<?xml version="1.0" encoding="UTF-8" standalone="no"?>
<svg xmlns:xlink="http://www.w3.org/1999/xlink" height="302.3px" width="207.9px" xmlns="http://www.w3.org/2000/svg">
  <g transform="matrix(1.0, 0.0, 0.0, 1.0, 85.3, 152.45)">
    <use height="239.65" transform="matrix(0.9058, 0.0, 0.0, 0.8354, -62.533, -93.2295)" width="177.65" xlink:href="#sprite0"/>
    <use height="181.4" transform="matrix(0.5109, 0.0, 0.0, 0.5109, -43.2376, -152.4632)" width="225.5" xlink:href="#sprite1"/>
  </g>
  <defs>
    <g id="sprite0" transform="matrix(1.0, 0.0, 0.0, 1.0, 88.8, 119.8)">
      <use height="239.65" transform="matrix(1.0, 0.0, 0.0, 1.0, -88.8, -119.8)" width="177.65" xlink:href="#shape0"/>
    </g>
    <g id="shape0" transform="matrix(1.0, 0.0, 0.0, 1.0, 88.8, 119.8)">
      <path d="M9.4 -117.9 Q7.65 -115.75 6.05 -115.75 L5.9 -115.75 Q4.1 -115.8 0.1 -117.35 -4.1 -116.75 -8.1 -115.45 -16.0 -112.9 -16.0 -109.25 L-15.75 -107.6 Q-15.35 -106.5 -14.75 -106.5 -13.25 -106.5 -12.95 -107.15 L-12.5 -108.5 -9.45 -110.8 Q-7.7 -112.0 -5.95 -112.0 -3.05 -112.0 -1.0 -110.1 1.15 -108.1 0.0 -105.75 L2.15 -105.75 2.9 -106.85 3.5 -108.0 Q3.5 -109.0 1.9 -110.85 L-1.3 -114.1 0.0 -114.1 0.75 -114.3 Q3.05 -114.7 5.65 -112.35 L5.9 -112.1 Q9.25 -108.25 10.85 -107.05 14.85 -104.15 15.9 -100.05 16.25 -98.6 16.25 -97.0 L16.2 -95.15 15.25 -92.9 15.25 -90.75 16.6 -92.0 Q17.9 -93.45 17.9 -94.55 18.8 -95.6 18.95 -97.0 L19.0 -99.6 Q19.0 -100.65 18.5 -101.95 17.45 -104.5 14.45 -107.9 11.15 -111.65 7.55 -114.4 L10.45 -114.9 Q11.9 -115.2 12.75 -116.3 16.25 -114.35 19.3 -111.3 21.85 -108.75 23.7 -105.8 27.8 -99.15 27.8 -90.75 27.8 -78.7 19.3 -70.2 15.75 -66.65 11.6 -64.6 9.75 -65.95 9.05 -66.15 L5.15 -66.3 1.95 -65.8 Q1.0 -65.5 0.55 -64.9 -0.45 -63.6 -0.5 -59.5 L0.5 -59.5 1.4 -59.25 3.3 -58.7 3.3 -53.2 35.7 -31.2 73.75 -55.7 Q80.45 -59.0 85.25 -55.7 92.45 -50.9 85.25 -43.2 L39.2 -20.2 3.3 -39.7 3.3 -23.55 1.65 -20.3 Q-0.65 -15.6 0.5 -12.75 L-1.55 -12.75 -2.15 -14.5 -3.25 -16.55 Q-2.45 -20.5 -1.65 -21.05 -3.6 -19.9 -5.0 -17.25 -6.25 -14.9 -6.25 -13.4 -6.25 -11.55 -3.65 -10.0 L-2.6 -9.25 Q-1.05 -8.0 -1.05 -6.75 L-1.15 -5.15 0.15 -4.9 Q0.55 -7.55 2.3 -7.55 L3.3 -7.55 3.3 6.35 46.25 51.35 53.75 111.35 Q53.75 118.45 45.25 119.85 34.35 118.85 32.7 112.35 L32.7 55.8 -2.0 23.1 -5.15 49.6 -5.15 49.7 -5.4 49.65 Q-5.5 52.3 -7.6 53.6 L-8.35 54.0 Q-8.9 54.25 -9.35 55.05 L-8.75 56.25 -8.65 58.1 Q-8.65 62.05 -10.95 65.95 -12.3 68.2 -15.75 72.75 -13.95 73.2 -12.7 74.8 L-11.8 75.3 -32.3 111.35 Q-34.2 118.55 -46.3 118.35 -58.35 113.8 -54.3 105.85 L-21.3 63.35 -15.3 8.35 -8.8 -40.05 -11.7 -43.3 -39.3 -47.7 -68.8 -19.2 Q-81.35 -14.1 -82.8 -19.2 -90.5 -23.25 -88.3 -28.2 L-44.3 -60.2 -7.1 -53.0 -5.9 -62.0 Q-15.0 -63.4 -21.8 -70.2 L-22.85 -71.3 Q-30.3 -79.5 -30.3 -90.75 -30.3 -102.8 -21.8 -111.3 -13.3 -119.8 -1.25 -119.8 2.65 -119.8 6.15 -118.9 L9.4 -117.9 M-14.55 -82.1 L-14.05 -83.4 -14.85 -83.7 -16.4 -84.25 Q-18.2 -84.25 -20.05 -82.65 -21.45 -81.35 -22.0 -80.15 L-22.55 -80.2 -22.75 -79.2 Q-22.75 -78.6 -21.1 -76.7 L-19.0 -74.5 -18.7 -74.4 Q-11.15 -71.3 -9.75 -70.9 L-6.95 -69.9 -6.85 -70.15 Q-7.5 -70.7 -7.8 -71.5 -8.35 -72.85 -9.0 -73.4 L-10.8 -74.15 -16.65 -75.9 -17.1 -76.05 Q-19.5 -77.1 -19.5 -80.15 -19.5 -82.2 -14.55 -82.1" fill="#000000" fill-rule="evenodd" stroke="none"/>
      <path d="M12.75 -116.3 Q11.9 -115.2 10.45 -114.9 L7.55 -114.4 Q11.15 -111.65 14.45 -107.9 17.45 -104.5 18.5 -101.95 19.0 -100.65 19.0 -99.6 L18.95 -97.0 Q18.8 -95.6 17.9 -94.55 17.9 -93.45 16.6 -92.0 L15.25 -90.75 15.25 -92.9 16.2 -95.15 16.25 -97.0 Q16.25 -98.6 15.9 -100.05 14.85 -104.15 10.85 -107.05 9.25 -108.25 5.9 -112.1 L5.65 -112.35 Q3.05 -114.7 0.75 -114.3 L0.0 -114.1 -1.3 -114.1 1.9 -110.85 Q3.5 -109.0 3.5 -108.0 L2.9 -106.85 2.15 -105.75 0.0 -105.75 Q1.15 -108.1 -1.0 -110.1 -3.05 -112.0 -5.95 -112.0 -7.7 -112.0 -9.45 -110.8 L-12.5 -108.5 -12.95 -107.15 Q-13.25 -106.5 -14.75 -106.5 -15.35 -106.5 -15.75 -107.6 L-16.0 -109.25 Q-16.0 -112.9 -8.1 -115.45 -4.1 -116.75 0.1 -117.35 4.1 -115.8 5.9 -115.75 L6.05 -115.75 Q7.65 -115.75 9.4 -117.9 L12.75 -116.3 M-11.8 75.3 L-12.7 74.8 Q-13.95 73.2 -15.75 72.75 -12.3 68.2 -10.95 65.95 -8.65 62.05 -8.65 58.1 L-8.75 56.25 -9.35 55.05 Q-8.9 54.25 -8.35 54.0 L-7.6 53.6 Q-5.5 52.3 -5.4 49.65 L-5.15 49.7 -7.3 67.35 -11.8 75.3 M3.3 -7.55 L2.3 -7.55 Q0.55 -7.55 0.15 -4.9 L-1.15 -5.15 -1.05 -6.75 Q-1.05 -8.0 -2.6 -9.25 L-3.65 -10.0 Q-6.25 -11.55 -6.25 -13.4 -6.25 -14.9 -5.0 -17.25 -3.6 -19.9 -1.65 -21.05 -2.45 -20.5 -3.25 -16.55 L-2.15 -14.5 -1.55 -12.75 0.5 -12.75 Q-0.65 -15.6 1.65 -20.3 L3.3 -23.55 3.3 -7.55 M3.3 -58.7 L1.4 -59.25 0.5 -59.5 -0.5 -59.5 Q-0.45 -63.6 0.55 -64.9 1.0 -65.5 1.95 -65.8 L5.15 -66.3 9.05 -66.15 Q9.75 -65.95 11.6 -64.6 7.7 -62.65 3.3 -62.0 L3.3 -58.7 M-14.55 -82.1 Q-19.5 -82.2 -19.5 -80.15 -19.5 -77.1 -17.1 -76.05 L-16.65 -75.9 -10.8 -74.15 -9.0 -73.4 Q-8.35 -72.85 -7.8 -71.5 -7.5 -70.7 -6.85 -70.15 L-6.95 -69.9 -9.75 -70.9 Q-11.15 -71.3 -18.7 -74.4 L-19.0 -74.5 -21.1 -76.7 Q-22.75 -78.6 -22.75 -79.2 L-22.55 -80.2 -22.0 -80.15 Q-21.45 -81.35 -20.05 -82.65 -18.2 -84.25 -16.4 -84.25 L-14.85 -83.7 -14.05 -83.4 -14.55 -82.1" fill="#770000" fill-rule="evenodd" stroke="none"/>
    </g>
    <g id="sprite1" transform="matrix(1.0, 0.0, 0.0, 1.0, 300.5, 216.0)">
      <use height="89.0" transform="matrix(1.0, 0.0, 0.0, 1.0, -167.15, -135.0)" width="42.35" xlink:href="#sprite2"/>
      <use height="51.55" transform="matrix(1.0, 0.0, 0.0, 1.0, -231.55, -123.4)" width="106.75" xlink:href="#sprite3"/>
      <use height="77.75" transform="matrix(1.0, 0.0, 0.0, 1.0, -233.4, -162.5)" width="102.4" xlink:href="#sprite4"/>
      <use height="114.2" transform="matrix(1.0, 0.0, 0.0, 1.0, -225.2, -171.5)" width="52.5" xlink:href="#sprite5"/>
    </g>
    <g id="sprite2" transform="matrix(1.0, 0.0, 0.0, 1.0, 0.0, 0.0)">
      <use height="89.0" transform="matrix(1.0, 0.0, 0.0, 1.0, 0.0, 0.0)" width="42.35" xlink:href="#shape1"/>
    </g>
    <g id="shape1" transform="matrix(1.0, 0.0, 0.0, 1.0, 0.0, 0.0)">
      <path d="M2.15 26.0 Q2.15 25.5 3.2 25.4 5.35 25.2 5.15 23.0 5.0 21.35 7.2 21.5 7.65 21.5 8.2 21.1 9.3 20.3 10.15 18.0 9.45 22.95 14.15 22.7 16.95 22.55 18.35 20.1 19.8 17.6 21.6 16.25 22.45 15.65 22.75 14.6 L22.9 13.95 23.6 11.15 Q24.4 8.6 26.05 7.75 31.05 5.2 36.1 2.85 38.3 1.85 40.45 0.45 41.15 0.0 42.15 0.0 41.45 5.35 35.3 6.2 33.15 6.5 31.1 7.95 27.15 10.8 25.0 12.85 24.15 13.7 23.65 14.55 L23.5 14.8 Q21.95 17.7 24.65 20.5 25.15 21.0 24.85 21.9 L24.35 23.1 Q20.8 30.45 27.1 34.1 28.65 35.0 30.3 35.55 L33.1 36.2 Q36.45 36.65 38.8 39.45 L41.65 42.5 Q42.15 43.0 42.25 44.0 43.1 51.45 37.9 54.55 L36.15 55.0 Q29.9 54.95 24.8 51.9 24.15 51.5 24.35 50.05 25.05 44.8 22.85 41.55 22.15 40.5 22.45 39.05 23.2 35.45 20.15 35.8 18.15 36.0 16.45 36.7 14.65 37.5 13.35 39.15 11.1 42.0 13.45 44.7 L15.05 46.15 Q17.4 47.75 17.5 52.0 17.55 55.9 15.85 58.8 15.15 60.0 14.75 61.2 14.15 63.0 14.15 65.0 14.15 74.0 13.25 82.9 13.15 84.0 12.3 85.1 L9.15 89.0 Q6.45 84.85 4.55 80.8 4.15 80.0 4.15 79.0 4.15 75.5 4.6 72.05 4.65 71.5 5.2 71.1 12.2 65.9 11.05 56.0 10.55 51.7 9.5 48.85 L8.85 47.1 Q8.2 45.2 8.45 43.05 8.85 39.8 7.05 39.4 L3.15 38.8 Q1.35 38.55 0.45 36.25 L0.0 35.4 Q2.25 31.3 2.15 26.0" fill="#990000" fill-rule="evenodd" stroke="none"/>
    </g>
    <g id="sprite3" transform="matrix(1.0, 0.0, 0.0, 1.0, 0.0, 0.0)">
      <use height="51.55" transform="matrix(1.0, 0.0, 0.0, 1.0, 0.0, 0.0)" width="106.75" xlink:href="#shape2"/>
    </g>
    <g id="shape2" transform="matrix(1.0, 0.0, 0.0, 1.0, 0.0, 0.0)">
      <path d="M39.8 0.1 Q44.3 1.0 47.5 4.15 46.75 4.9 46.6 5.55 45.75 9.9 46.1 14.35 46.35 17.35 44.5 19.15 L43.05 20.65 37.55 26.15 Q36.75 26.9 36.45 27.65 34.2 33.4 39.7 32.25 L42.75 31.85 Q52.25 31.4 61.75 31.4 L67.5 31.45 68.1 32.9 Q71.9 41.4 78.55 41.4 84.45 41.4 87.0 36.65 88.45 34.0 88.55 31.15 92.15 30.5 95.7 29.3 100.9 27.55 105.5 30.15 L104.0 31.65 Q102.75 32.9 100.95 33.8 L98.6 34.65 Q95.1 35.35 97.65 38.5 98.75 39.9 100.1 40.9 L101.6 41.75 Q102.85 42.3 104.75 42.25 106.95 42.2 106.75 44.4 L104.7 45.1 Q100.65 45.95 98.9 48.5 L97.45 49.95 Q94.05 52.2 89.75 51.3 L71.75 47.3 71.05 47.15 Q65.0 39.1 62.8 37.4 56.3 34.25 42.4 42.4 40.9 43.25 39.55 44.2 36.4 43.4 33.55 41.75 L29.05 38.95 Q28.25 38.4 27.6 38.25 L18.8 37.0 17.7 36.95 Q15.95 39.9 11.8 40.15 L3.85 40.85 Q0.5 41.2 0.0 38.55 3.55 32.4 9.1 29.3 L9.3 29.2 10.6 29.8 Q11.8 30.4 12.85 30.55 20.95 31.75 28.7 30.15 29.75 29.9 30.2 29.1 32.5 24.9 31.9 19.4 31.75 17.9 32.35 16.65 34.1 12.9 33.8 8.4 33.75 7.4 34.15 6.6 L35.45 3.3 36.15 1.6 Q36.75 0.4 37.95 0.1 38.75 -0.1 39.8 0.1" fill="#990000" fill-rule="evenodd" stroke="none"/>
    </g>
    <g id="sprite4" transform="matrix(1.0, 0.0, 0.0, 1.0, 0.0, 0.0)">
      <use height="77.75" transform="matrix(1.0, 0.0, 0.0, 1.0, 0.0, 0.0)" width="102.4" xlink:href="#shape3"/>
    </g>
    <g id="shape3" transform="matrix(1.0, 0.0, 0.0, 1.0, 0.0, 0.0)">
      <path d="M67.4 20.5 Q66.8 16.7 70.35 15.4 71.4 15.0 71.9 14.2 74.35 10.45 78.45 8.65 L98.35 0.4 100.4 0.0 Q101.4 0.0 101.6 0.7 102.4 4.0 102.4 7.5 102.4 9.0 101.65 9.75 99.75 11.65 97.25 13.25 L88.55 18.75 Q84.45 21.25 79.4 21.7 74.9 22.1 72.4 24.5 78.7 24.15 81.55 29.4 82.4 31.0 82.25 32.4 82.05 34.65 79.35 35.05 L74.35 34.75 Q73.4 34.5 72.7 34.05 L71.1 32.85 Q69.2 31.3 66.5 31.05 61.0 30.55 59.45 33.5 58.3 35.65 56.2 37.15 51.45 40.55 48.55 45.4 47.85 44.85 47.8 43.5 47.5 37.15 51.45 34.5 51.45 33.5 51.15 33.4 48.45 32.5 45.45 32.5 L36.5 32.95 35.4 33.1 Q27.3 34.25 20.45 37.5 23.9 36.85 26.35 38.65 27.45 39.5 28.6 39.7 30.35 40.0 31.4 41.5 36.35 48.65 29.5 54.55 28.45 55.5 28.05 56.7 26.7 60.4 26.05 64.45 L25.85 65.55 Q25.45 68.0 25.95 70.4 26.75 74.45 28.45 77.5 22.0 78.95 23.2 72.45 24.15 67.05 24.05 61.5 L23.55 54.5 23.25 53.45 Q18.95 52.5 14.45 52.5 L12.6 52.15 Q10.95 51.5 9.3 51.0 4.4 49.5 0.7 46.2 -0.05 45.5 0.0 44.55 0.65 30.6 15.45 29.3 18.95 29.0 22.25 27.9 L27.65 26.1 31.35 25.95 35.45 26.3 Q43.4 25.7 51.45 25.95 56.7 26.15 61.3 24.2 62.95 23.5 64.45 23.5 67.85 23.45 67.4 20.5" fill="#990000" fill-rule="evenodd" stroke="none"/>
    </g>
    <g id="sprite5" transform="matrix(1.0, 0.0, 0.0, 1.0, 0.0, 0.0)">
      <use height="114.2" transform="matrix(1.0, 0.0, 0.0, 1.0, 0.0, 0.0)" width="52.5" xlink:href="#shape4"/>
    </g>
    <g id="shape4" transform="matrix(1.0, 0.0, 0.0, 1.0, 0.0, 0.0)">
      <path d="M43.05 7.0 L42.9 24.6 Q38.85 29.35 38.85 35.35 L38.95 37.9 Q39.25 40.85 40.35 43.25 41.45 45.7 43.15 47.4 L43.75 53.05 Q44.05 55.25 46.25 56.65 48.8 58.25 50.1 60.25 48.85 62.35 48.85 65.0 48.85 68.05 50.4 70.3 51.1 71.35 52.15 72.15 52.55 78.9 52.5 86.0 52.45 89.9 50.7 92.8 47.7 97.8 45.7 102.85 45.05 104.5 44.7 106.15 44.05 109.0 43.65 111.95 L43.35 113.1 42.85 114.05 Q37.9 115.15 38.95 109.0 40.7 98.8 44.2 88.05 L44.7 85.95 Q45.8 77.2 44.25 68.95 L43.65 67.2 41.85 62.75 Q39.6 55.4 34.4 50.6 34.55 49.0 33.75 48.7 L31.1 47.85 30.15 47.6 28.95 47.35 26.1 46.8 23.8 46.6 23.45 46.3 Q20.35 43.6 15.95 43.35 11.5 43.15 8.4 45.6 5.8 47.65 5.2 51.1 L2.15 50.75 Q0.6 50.5 0.35 49.65 -1.1 44.15 3.2 42.15 L5.95 40.75 Q8.1 39.55 10.15 39.45 16.2 39.1 22.1 39.75 L34.05 40.9 Q35.55 41.0 36.3 40.25 37.05 39.5 37.05 38.0 L37.25 20.15 Q37.85 18.4 37.85 16.75 37.85 14.8 37.4 13.15 L37.55 8.0 37.75 6.9 Q39.7 1.35 44.05 0.0 43.05 3.3 43.05 7.0" fill="#990000" fill-rule="evenodd" stroke="none"/>
    </g>
  </defs>
</svg>
