<?xml version="1.0" encoding="UTF-8" standalone="no"?>
<svg xmlns:xlink="http://www.w3.org/1999/xlink" height="127.15px" width="483.85px" xmlns="http://www.w3.org/2000/svg">
  <g transform="matrix(1.0, 0.0, 0.0, 1.0, -2.4, -12.3)">
    <use height="15.65" transform="matrix(1.0, 0.0, 0.0, 1.0, 174.65, 38.35)" width="156.15" xlink:href="#text0"/>
    <use height="29.0" transform="matrix(1.0, 0.0, 0.0, 1.0, 38.8, 13.25)" width="411.3" xlink:href="#text1"/>
    <use height="26.3" transform="matrix(1.0, 0.0, 0.0, 1.0, 129.95, 73.15)" width="229.95" xlink:href="#button0"/>
    <use height="15.65" transform="matrix(1.0, 0.0, 0.0, 1.0, 238.7, 75.3)" width="22.25" xlink:href="#text2"/>
    <use height="26.3" transform="matrix(1.0, 0.0, 0.0, 1.0, 129.85, 98.9)" width="229.95" xlink:href="#button1"/>
    <use height="15.65" transform="matrix(1.0, 0.0, 0.0, 1.0, 201.5, 101.05)" width="96.5" xlink:href="#text3"/>
  </g>
  <defs>
    <g id="text0" transform="matrix(1.0, 0.0, 0.0, 1.0, -87.45, 1.05)">
      <g transform="matrix(1.0, 0.0, 0.0, 1.0, 0.0, 0.0)">
        <use fill="#000000" height="15.65" transform="matrix(0.0166, 0.0, 0.0, 0.0166, 86.0, 14.0)" width="156.15" xlink:href="#font_Redensek_p0"/>
        <use fill="#000000" height="15.65" transform="matrix(0.0166, 0.0, 0.0, 0.0166, 93.95, 14.0)" width="156.15" xlink:href="#font_Redensek_l0"/>
        <use fill="#000000" height="15.65" transform="matrix(0.0166, 0.0, 0.0, 0.0166, 100.6, 14.0)" width="156.15" xlink:href="#font_Redensek_a0"/>
        <use fill="#000000" height="15.65" transform="matrix(0.0166, 0.0, 0.0, 0.0166, 108.55, 14.0)" width="156.15" xlink:href="#font_Redensek_y0"/>
        <use fill="#000000" height="15.65" transform="matrix(0.0166, 0.0, 0.0, 0.0166, 123.1, 14.0)" width="156.15" xlink:href="#font_Redensek_o0"/>
        <use fill="#000000" height="15.65" transform="matrix(0.0166, 0.0, 0.0, 0.0166, 131.05, 14.0)" width="156.15" xlink:href="#font_Redensek_n0"/>
        <use fill="#000000" height="15.65" transform="matrix(0.0166, 0.0, 0.0, 0.0166, 145.65, 14.0)" width="156.15" xlink:href="#font_Redensek_g0"/>
        <use fill="#000000" height="15.65" transform="matrix(0.0166, 0.0, 0.0, 0.0166, 153.6, 14.0)" width="156.15" xlink:href="#font_Redensek_a0"/>
        <use fill="#000000" height="15.65" transform="matrix(0.0166, 0.0, 0.0, 0.0166, 161.55, 14.0)" width="156.15" xlink:href="#font_Redensek_m0"/>
        <use fill="#000000" height="15.65" transform="matrix(0.0166, 0.0, 0.0, 0.0166, 172.1, 14.0)" width="156.15" xlink:href="#font_Redensek_e0"/>
        <use fill="#000000" height="15.65" transform="matrix(0.0166, 0.0, 0.0, 0.0166, 180.05, 14.0)" width="156.15" xlink:href="#font_Redensek_s0"/>
        <use fill="#000000" height="15.65" transform="matrix(0.0166, 0.0, 0.0, 0.0166, 188.0, 14.0)" width="156.15" xlink:href="#font_Redensek_f0"/>
        <use fill="#000000" height="15.65" transform="matrix(0.0166, 0.0, 0.0, 0.0166, 194.65, 14.0)" width="156.15" xlink:href="#font_Redensek_r0"/>
        <use fill="#000000" height="15.65" transform="matrix(0.0166, 0.0, 0.0, 0.0166, 201.3, 14.0)" width="156.15" xlink:href="#font_Redensek_e0"/>
        <use fill="#000000" height="15.65" transform="matrix(0.0166, 0.0, 0.0, 0.0166, 209.25, 14.0)" width="156.15" xlink:href="#font_Redensek_e0"/>
        <use fill="#000000" height="15.65" transform="matrix(0.0166, 0.0, 0.0, 0.0166, 217.2, 14.0)" width="156.15" xlink:href="#font_Redensek_.0"/>
        <use fill="#000000" height="15.65" transform="matrix(0.0166, 0.0, 0.0, 0.0166, 219.9, 14.0)" width="156.15" xlink:href="#font_Redensek_c0"/>
        <use fill="#000000" height="15.65" transform="matrix(0.0166, 0.0, 0.0, 0.0166, 227.85, 14.0)" width="156.15" xlink:href="#font_Redensek_a0"/>
      </g>
    </g>
    <g id="font_Redensek_p0">
      <path d="M177.0 0.0 L177.0 -77.5 409.5 -77.5 409.5 -155.0 488.0 -155.0 488.0 -331.0 409.5 -331.0 409.5 -408.5 78.0 -408.5 78.0 0.0 177.0 0.0 M177.0 -311.0 L389.0 -311.0 389.0 -175.0 177.0 -175.0 177.0 -311.0" fill-rule="evenodd" stroke="none"/>
    </g>
    <g id="font_Redensek_l0">
      <path d="M78.0 0.0 L409.5 0.0 409.5 -97.5 177.0 -97.5 177.0 -408.5 78.0 -408.5 78.0 0.0" fill-rule="evenodd" stroke="none"/>
    </g>
    <g id="font_Redensek_a0">
      <path d="M156.5 -77.5 L156.5 0.0 488.0 0.0 488.0 -331.0 409.5 -331.0 409.5 -408.5 156.5 -408.5 156.5 -311.0 389.0 -311.0 389.0 -253.0 78.0 -253.0 78.0 -77.5 156.5 -77.5 M177.0 -155.5 L389.0 -155.5 389.0 -97.5 177.0 -97.5 177.0 -155.5" fill-rule="evenodd" stroke="none"/>
    </g>
    <g id="font_Redensek_y0">
      <path d="M408.5 1.0 L408.5 -77.5 486.0 -77.5 486.0 -408.5 388.0 -408.5 388.0 -253.0 176.0 -253.0 176.0 -408.5 78.0 -408.5 78.0 -233.0 155.5 -233.0 155.5 -155.5 388.0 -155.5 388.0 -97.5 155.5 -97.5 155.5 1.0 408.5 1.0" fill-rule="evenodd" stroke="none"/>
    </g>
    <g id="font_Redensek_o0">
      <path d="M409.5 0.0 L409.5 -77.5 488.0 -77.5 488.0 -331.0 409.5 -331.0 409.5 -408.5 156.5 -408.5 156.5 -331.0 78.0 -331.0 78.0 -77.5 156.5 -77.5 156.5 0.0 409.5 0.0 M177.0 -97.5 L177.0 -311.0 389.0 -311.0 389.0 -97.5 177.0 -97.5" fill-rule="evenodd" stroke="none"/>
    </g>
    <g id="font_Redensek_n0">
      <path d="M177.0 0.0 L177.0 -311.0 389.0 -311.0 389.0 0.0 488.0 0.0 488.0 -331.0 409.5 -331.0 409.5 -408.5 78.0 -408.5 78.0 0.0 177.0 0.0" fill-rule="evenodd" stroke="none"/>
    </g>
    <g id="font_Redensek_g0">
      <path d="M409.5 0.0 L409.5 -77.5 488.0 -77.5 488.0 -408.5 156.5 -408.5 156.5 -331.0 78.0 -331.0 78.0 -155.5 389.0 -155.5 389.0 -97.5 156.5 -97.5 156.5 0.0 409.5 0.0 M177.0 -311.0 L389.0 -311.0 389.0 -253.0 177.0 -253.0 177.0 -311.0" fill-rule="evenodd" stroke="none"/>
    </g>
    <g id="font_Redensek_m0">
      <path d="M177.0 0.0 L177.0 -311.0 310.5 -311.0 310.5 0.0 409.5 0.0 409.5 -311.0 543.5 -311.0 543.5 0.0 641.5 0.0 641.5 -331.0 564.0 -331.0 564.0 -408.5 389.0 -408.5 389.0 -331.0 331.0 -331.0 331.0 -408.5 78.0 -408.5 78.0 0.0 177.0 0.0" fill-rule="evenodd" stroke="none"/>
    </g>
    <g id="font_Redensek_e0">
      <path d="M409.5 0.0 L409.5 -97.5 177.0 -97.5 177.0 -155.5 488.0 -155.5 488.0 -331.0 409.5 -331.0 409.5 -408.5 156.5 -408.5 156.5 -331.0 78.0 -331.0 78.0 -77.5 156.5 -77.5 156.5 0.0 409.5 0.0 M177.0 -311.0 L389.0 -311.0 389.0 -253.0 177.0 -253.0 177.0 -311.0" fill-rule="evenodd" stroke="none"/>
    </g>
    <g id="font_Redensek_s0">
      <path d="M409.5 1.0 L409.5 -77.5 488.0 -77.5 488.0 -176.0 409.5 -176.0 409.5 -252.5 177.0 -252.5 177.0 -311.0 488.0 -311.0 488.0 -408.5 156.5 -408.5 156.5 -331.0 78.0 -331.0 78.0 -232.5 156.5 -232.5 156.5 -156.0 389.0 -156.0 389.0 -97.5 78.0 -97.5 78.0 1.0 409.5 1.0" fill-rule="evenodd" stroke="none"/>
    </g>
    <g id="font_Redensek_f0">
      <path d="M176.0 1.0 L176.0 -154.5 410.0 -154.5 410.0 -253.0 176.0 -253.0 176.0 -310.0 410.0 -310.0 410.0 -408.5 155.5 -408.5 155.5 -330.0 78.0 -330.0 78.0 1.0 176.0 1.0" fill-rule="evenodd" stroke="none"/>
    </g>
    <g id="font_Redensek_r0">
      <path d="M177.0 0.0 L177.0 -311.0 310.5 -311.0 310.5 -155.5 409.5 -155.5 409.5 -331.0 331.0 -331.0 331.0 -408.5 78.0 -408.5 78.0 0.0 177.0 0.0" fill-rule="evenodd" stroke="none"/>
    </g>
    <g id="font_Redensek_.0">
      <path d="M176.0 0.0 L176.0 -97.5 78.0 -97.5 78.0 0.0 176.0 0.0" fill-rule="evenodd" stroke="none"/>
    </g>
    <g id="font_Redensek_c0">
      <path d="M409.5 0.0 L409.5 -77.5 488.0 -77.5 488.0 -176.0 389.0 -176.0 389.0 -97.5 177.0 -97.5 177.0 -311.0 389.0 -311.0 389.0 -232.5 488.0 -232.5 488.0 -331.0 409.5 -331.0 409.5 -408.5 156.5 -408.5 156.5 -331.0 78.0 -331.0 78.0 -77.5 156.5 -77.5 156.5 0.0 409.5 0.0" fill-rule="evenodd" stroke="none"/>
    </g>
    <g id="text1" transform="matrix(1.0, 0.0, 0.0, 1.0, 133.6, -11.25)">
      <g transform="matrix(1.0, 0.0, 0.0, 1.0, -139.45, 0.0)">
        <use fill="#000000" height="29.0" transform="matrix(0.0361, 0.0, 0.0, 0.0361, 5.0, 34.0)" width="411.3" xlink:href="#font_VTKS_clean_t0"/>
        <use fill="#000000" height="29.0" transform="matrix(0.0361, 0.0, 0.0, 0.0361, 27.55, 34.0)" width="411.3" xlink:href="#font_VTKS_clean_o0"/>
        <use fill="#000000" height="29.0" transform="matrix(0.0361, 0.0, 0.0, 0.0361, 60.7, 34.0)" width="411.3" xlink:href="#font_VTKS_clean_r0"/>
        <use fill="#000000" height="29.0" transform="matrix(0.0361, 0.0, 0.0, 0.0361, 80.9, 34.0)" width="411.3" xlink:href="#font_VTKS_clean_e0"/>
        <use fill="#000000" height="29.0" transform="matrix(0.0361, 0.0, 0.0, 0.0361, 101.7, 34.0)" width="411.3" xlink:href="#font_VTKS_clean_g0"/>
        <use fill="#000000" height="29.0" transform="matrix(0.0361, 0.0, 0.0, 0.0361, 122.4, 34.0)" width="411.3" xlink:href="#font_VTKS_clean_i0"/>
        <use fill="#000000" height="29.0" transform="matrix(0.0361, 0.0, 0.0, 0.0361, 128.9, 34.0)" width="411.3" xlink:href="#font_VTKS_clean_s0"/>
        <use fill="#000000" height="29.0" transform="matrix(0.0361, 0.0, 0.0, 0.0361, 148.25, 34.0)" width="411.3" xlink:href="#font_VTKS_clean_t0"/>
        <use fill="#000000" height="29.0" transform="matrix(0.0361, 0.0, 0.0, 0.0361, 170.8, 34.0)" width="411.3" xlink:href="#font_VTKS_clean_e0"/>
        <use fill="#000000" height="29.0" transform="matrix(0.0361, 0.0, 0.0, 0.0361, 191.6, 34.0)" width="411.3" xlink:href="#font_VTKS_clean_r0"/>
        <use fill="#000000" height="29.0" transform="matrix(0.0361, 0.0, 0.0, 0.0361, 222.15, 34.0)" width="411.3" xlink:href="#font_VTKS_clean_a0"/>
        <use fill="#000000" height="29.0" transform="matrix(0.0361, 0.0, 0.0, 0.0361, 250.55, 34.0)" width="411.3" xlink:href="#font_VTKS_clean_h0"/>
        <use fill="#000000" height="29.0" transform="matrix(0.0361, 0.0, 0.0, 0.0361, 268.5, 34.0)" width="411.3" xlink:href="#font_VTKS_clean_i0"/>
        <use fill="#000000" height="29.0" transform="matrix(0.0361, 0.0, 0.0, 0.0361, 275.0, 34.0)" width="411.3" xlink:href="#font_VTKS_clean_g0"/>
        <use fill="#000000" height="29.0" transform="matrix(0.0361, 0.0, 0.0, 0.0361, 295.7, 34.0)" width="411.3" xlink:href="#font_VTKS_clean_h0"/>
        <use fill="#000000" height="29.0" transform="matrix(0.0361, 0.0, 0.0, 0.0361, 313.65, 34.0)" width="411.3" xlink:href="#font_VTKS_clean_s0"/>
        <use fill="#000000" height="29.0" transform="matrix(0.0361, 0.0, 0.0, 0.0361, 333.0, 34.0)" width="411.3" xlink:href="#font_VTKS_clean_c0"/>
        <use fill="#000000" height="29.0" transform="matrix(0.0361, 0.0, 0.0, 0.0361, 353.55, 34.0)" width="411.3" xlink:href="#font_VTKS_clean_o0"/>
        <use fill="#000000" height="29.0" transform="matrix(0.0361, 0.0, 0.0, 0.0361, 376.35, 34.0)" width="411.3" xlink:href="#font_VTKS_clean_r0"/>
        <use fill="#000000" height="29.0" transform="matrix(0.0361, 0.0, 0.0, 0.0361, 396.55, 34.0)" width="411.3" xlink:href="#font_VTKS_clean_e0"/>
      </g>
    </g>
    <g id="font_VTKS_clean_t0">
      <path d="M471.5 -569.0 L81.5 -565.0 33.5 -565.0 Q18.0 -565.0 18.0 -533.5 L18.0 -508.5 16.0 -471.0 Q38.5 -464.5 65.0 -464.5 L233.5 -466.5 233.5 -117.5 235.5 -119.5 233.5 -122.0 233.5 -50.5 241.0 -43.0 308.0 -41.0 324.5 -41.0 332.5 -48.5 334.5 -214.0 334.5 -413.0 332.5 -468.5 333.0 -468.5 457.5 -468.5 Q502.0 -468.5 514.5 -441.5 524.0 -390.0 535.5 -390.0 L613.0 -390.0 621.0 -398.0 Q621.0 -490.0 557.0 -542.0 506.0 -569.0 471.5 -569.0" fill-rule="evenodd" stroke="none"/>
    </g>
    <g id="font_VTKS_clean_o0">
      <path d="M123.5 -302.0 L123.5 -302.0 Q123.5 -350.0 166.0 -411.0 232.5 -484.5 317.0 -484.5 382.5 -484.5 442.5 -439.0 513.0 -373.5 513.0 -302.0 L513.0 -274.5 Q513.0 -248.0 495.5 -205.0 433.5 -92.5 321.0 -92.5 232.5 -92.5 172.5 -157.0 123.5 -220.5 123.5 -272.5 L123.5 -302.0 M301.0 -583.0 L269.5 -579.0 Q192.5 -570.5 107.5 -495.5 24.5 -397.5 24.5 -314.0 L24.5 -260.0 26.5 -243.5 Q34.5 -164.0 110.5 -76.5 209.0 6.0 295.5 6.0 L344.5 6.0 Q390.0 6.0 467.5 -32.5 614.0 -129.0 614.0 -288.5 614.0 -392.0 545.0 -477.0 481.5 -542.5 444.5 -554.5 406.0 -575.0 334.5 -583.0 L301.0 -583.0" fill-rule="evenodd" stroke="none"/>
    </g>
    <g id="font_VTKS_clean_r0">
      <path d="M125.5 -472.5 L121.5 -472.5 123.5 -474.5 259.0 -474.5 Q307.0 -470.5 319.5 -466.5 440.5 -430.5 440.5 -333.0 L434.5 -296.5 Q401.5 -214.0 291.5 -214.0 219.5 -214.0 129.0 -250.0 L127.5 -306.5 127.5 -484.5 125.5 -472.5 M51.0 -573.0 L26.5 -566.5 28.5 -542.5 26.5 -510.5 28.5 -115.5 28.5 -88.5 26.5 -21.5 34.0 -14.0 116.5 -9.5 127.5 -24.0 129.5 -167.0 129.5 -149.0 Q151.5 -135.5 198.0 -125.5 208.5 -125.5 222.0 -94.5 349.0 106.0 544.5 106.0 683.5 106.0 774.5 9.5 L774.5 0.0 713.5 -57.0 703.0 -57.0 Q635.0 7.5 545.5 7.5 476.5 1.0 476.5 -3.0 366.5 -46.0 321.5 -126.0 L321.5 -115.5 Q413.5 -115.5 494.0 -199.5 541.5 -269.5 541.5 -334.0 L533.0 -388.5 Q505.0 -481.0 426.0 -530.5 351.0 -569.0 279.5 -573.0 L51.0 -573.0" fill-rule="evenodd" stroke="none"/>
    </g>
    <g id="font_VTKS_clean_e0">
      <path d="M294.0 -579.0 L294.0 -579.0 Q234.5 -579.0 169.0 -550.0 25.0 -473.5 25.0 -318.0 25.0 -241.5 57.5 -164.0 133.0 -17.5 294.0 -17.5 426.5 -17.5 516.5 -124.0 563.0 -200.5 563.0 -251.0 563.0 -266.0 472.0 -271.0 L464.5 -263.5 Q457.0 -210.0 433.5 -179.5 373.5 -118.0 311.5 -118.0 L270.5 -118.0 Q215.5 -128.0 186.5 -153.0 150.5 -181.0 133.5 -241.0 L316.0 -241.0 326.0 -251.0 326.0 -329.5 316.0 -339.5 126.0 -339.5 126.0 -335.5 Q126.0 -351.5 136.5 -382.0 186.0 -478.5 290.0 -478.5 L299.5 -478.5 Q331.5 -478.5 369.5 -466.5 433.0 -444.5 467.0 -394.0 L477.0 -394.0 Q547.0 -428.5 549.5 -438.5 L549.5 -445.5 Q515.0 -507.0 445.5 -542.5 362.0 -579.0 294.0 -579.0" fill-rule="evenodd" stroke="none"/>
    </g>
    <g id="font_VTKS_clean_g0">
      <path d="M286.0 -579.0 L286.0 -579.0 Q203.5 -579.0 136.0 -535.0 13.0 -440.5 13.0 -312.0 L13.0 -306.5 Q13.0 -203.5 94.5 -112.5 184.5 -35.5 270.0 -35.5 L297.5 -35.5 Q381.0 -35.5 464.0 -102.0 L452.0 -102.0 452.0 -92.5 Q452.0 20.0 439.5 38.0 430.0 57.5 421.5 60.5 L418.0 60.5 Q400.0 55.0 400.0 44.0 388.0 35.5 312.5 25.0 L299.0 33.5 Q299.0 72.0 312.5 98.0 358.0 159.0 407.0 159.0 L434.5 159.0 462.0 150.5 Q551.0 109.0 551.0 -39.5 L551.0 -106.0 549.0 -234.0 553.0 -258.0 553.0 -261.0 Q545.0 -320.0 501.5 -320.0 L443.0 -318.0 375.5 -318.0 366.0 -308.5 366.0 -230.0 374.5 -217.5 429.0 -219.5 440.5 -219.5 440.5 -228.0 437.5 -223.0 Q378.0 -134.0 284.0 -134.0 230.0 -134.0 183.0 -168.5 114.0 -229.0 114.0 -296.5 L114.0 -320.0 Q114.0 -345.0 130.5 -382.0 187.5 -480.5 282.0 -480.5 349.0 -480.5 406.0 -432.5 L443.5 -384.5 455.5 -384.5 526.0 -422.0 526.0 -438.0 Q434.0 -579.0 286.0 -579.0" fill-rule="evenodd" stroke="none"/>
    </g>
    <g id="font_VTKS_clean_i0">
      <path d="M35.0 -561.0 L25.5 -551.5 25.5 -472.0 35.0 -462.5 54.5 -462.5 51.0 -467.0 49.0 -462.0 49.0 -233.5 47.0 -61.5 60.0 -53.0 138.0 -53.0 148.0 -63.0 148.0 -453.5 149.0 -462.5 163.5 -462.5 171.5 -470.5 169.5 -497.0 169.5 -499.5 171.5 -513.0 169.5 -502.0 171.5 -502.0 169.5 -522.0 169.5 -529.0 171.5 -542.5 169.5 -531.0 171.5 -531.0 Q168.5 -561.0 155.0 -561.0 L35.0 -561.0" fill-rule="evenodd" stroke="none"/>
    </g>
    <g id="font_VTKS_clean_s0">
      <path d="M251.0 -588.5 L251.0 -588.5 Q176.0 -588.5 121.5 -552.5 47.0 -498.0 47.0 -419.5 47.0 -357.0 101.0 -314.0 135.5 -275.0 317.0 -253.0 423.5 -238.0 423.5 -180.5 423.5 -138.0 378.5 -109.0 353.0 -94.0 288.5 -86.5 L287.0 -88.5 276.5 -88.5 275.0 -86.5 217.5 -96.0 Q159.0 -104.0 98.5 -163.0 L87.0 -163.0 21.5 -117.0 Q21.5 -99.5 38.5 -83.0 136.5 12.0 282.5 12.0 322.5 12.0 379.0 -2.5 522.5 -53.5 522.5 -180.5 522.5 -257.5 457.5 -308.0 411.5 -338.5 318.5 -355.0 148.0 -369.0 148.0 -413.5 L148.0 -425.5 Q148.0 -436.0 157.5 -450.5 187.5 -488.0 233.5 -488.0 L276.5 -488.0 Q305.0 -488.0 351.0 -458.5 372.0 -439.5 378.0 -402.0 L436.0 -404.0 463.5 -404.0 473.5 -414.0 473.5 -425.5 Q473.5 -442.0 462.5 -471.0 401.0 -588.5 251.0 -588.5" fill-rule="evenodd" stroke="none"/>
    </g>
    <g id="font_VTKS_clean_a0">
      <path d="M101.5 -172.0 L101.5 -204.0 101.5 -204.5 Q116.0 -238.5 149.5 -252.5 172.5 -272.0 309.0 -284.5 390.0 -297.0 417.5 -312.0 L406.5 -312.0 408.5 -182.5 408.5 -178.5 Q408.5 -157.0 391.5 -149.0 250.0 -98.5 199.0 -98.5 171.0 -98.5 146.0 -110.5 112.5 -131.5 101.5 -172.0 M261.5 -559.5 L261.5 -559.5 Q205.0 -559.5 139.5 -535.0 36.0 -476.0 36.0 -390.5 L36.0 -380.5 45.5 -371.0 131.5 -371.0 Q137.5 -408.5 150.0 -421.5 193.5 -459.0 242.0 -459.0 L281.5 -459.0 Q297.0 -459.0 314.0 -453.5 334.0 -449.5 334.0 -443.5 362.5 -443.5 397.0 -407.0 L396.0 -409.5 Q364.0 -389.0 185.0 -369.0 0.5 -324.0 0.5 -188.5 0.5 -158.0 9.5 -131.0 61.5 0.0 197.0 0.0 264.5 0.0 400.5 -45.5 507.5 -82.0 507.5 -173.0 L507.5 -302.5 Q507.5 -407.5 492.0 -435.5 420.5 -559.5 261.5 -559.5" fill-rule="evenodd" stroke="none"/>
    </g>
    <g id="font_VTKS_clean_h0">
      <path d="M41.0 -567.0 L44.5 -567.0 Q28.5 -567.0 28.5 -506.0 L28.5 -70.5 38.0 -61.0 117.5 -61.0 127.5 -70.5 127.5 -302.5 Q253.5 -337.0 289.5 -337.0 L311.5 -337.0 348.0 -330.0 Q391.0 -305.0 391.0 -157.0 L391.0 -22.0 389.0 -14.0 402.0 -2.0 460.5 -2.0 479.5 0.0 490.0 -9.5 492.0 -124.0 492.0 -135.5 Q492.0 -206.5 480.0 -286.0 446.5 -435.5 315.0 -435.5 L301.0 -435.5 Q230.0 -435.5 117.5 -402.5 L127.5 -402.5 129.5 -525.0 127.5 -531.0 129.5 -536.0 129.5 -557.0 121.5 -564.5 41.0 -567.0" fill-rule="evenodd" stroke="none"/>
    </g>
    <g id="font_VTKS_clean_c0">
      <path d="M326.5 -567.0 L326.5 -567.0 Q126.0 -567.0 49.0 -407.0 32.0 -367.0 24.0 -303.0 L26.0 -294.0 26.0 -290.0 Q26.0 -204.0 75.0 -127.0 169.5 -11.5 306.5 -11.5 357.5 -11.5 414.5 -33.5 554.5 -100.0 554.5 -252.0 L549.5 -267.0 469.5 -264.5 456.5 -260.5 453.5 -240.5 Q453.5 -198.0 424.5 -159.5 375.0 -112.0 320.5 -112.0 L295.5 -112.0 251.0 -119.5 Q125.0 -165.5 125.0 -292.0 125.0 -333.5 140.5 -365.5 191.0 -466.5 308.5 -466.5 L348.0 -466.5 Q360.5 -466.5 397.0 -455.5 424.0 -440.0 438.5 -390.0 524.0 -404.5 533.0 -415.0 L524.5 -444.5 Q483.0 -567.0 326.5 -567.0" fill-rule="evenodd" stroke="none"/>
    </g>
    <g id="button0" transform="matrix(1.0, 0.0, 0.0, 1.0, 4.5, 2.25)">
      <use height="21.8" transform="matrix(1.0, 0.0, 0.0, 1.0, 0.0, 0.0)" width="220.95" xlink:href="#shape0"/>
      <use height="21.8" transform="matrix(1.0, 0.0, 0.0, 1.0, 0.0, 0.0)" width="220.95" xlink:href="#sprite0"/>
    </g>
    <g id="shape0" transform="matrix(1.0, 0.0, 0.0, 1.0, 0.0, 0.0)">
      <path d="M220.95 7.55 L220.95 21.8 0.0 21.8 0.0 0.0 213.4 0.0 220.95 7.55" fill="#000000" fill-opacity="0.3529412" fill-rule="evenodd" stroke="none"/>
    </g>
    <g id="sprite0" transform="matrix(1.0, 0.0, 0.0, 1.0, 0.0, 0.0)">
      <use height="21.8" transform="matrix(1.0, 0.0, 0.0, 1.0, 0.0, 0.0)" width="220.95" xlink:href="#sprite1"/>
    </g>
    <g id="sprite1" transform="matrix(1.0, 0.0, 0.0, 1.0, 0.0, 0.0)">
      <use height="21.8" transform="matrix(1.0, 0.0, 0.0, 1.0, 0.0, 0.0)" width="220.95" xlink:href="#shape1"/>
    </g>
    <g id="shape1" transform="matrix(1.0, 0.0, 0.0, 1.0, 0.0, 0.0)">
      <path d="M220.95 7.55 L220.95 21.8 0.0 21.8 0.0 0.0 213.4 0.0 220.95 7.55" fill="#d50000" fill-opacity="0.6901961" fill-rule="evenodd" stroke="none"/>
    </g>
    <g id="text2" transform="matrix(1.0, 0.0, 0.0, 1.0, -124.2, 1.05)">
      <g transform="matrix(1.0, 0.0, 0.0, 1.0, 24.4, 0.0)">
        <use fill="#000000" height="15.65" transform="matrix(0.0166, 0.0, 0.0, 0.0166, 99.0, 14.0)" width="22.25" xlink:href="#font_Redensek_o0"/>
        <use fill="#000000" height="15.65" transform="matrix(0.0166, 0.0, 0.0, 0.0166, 106.95, 14.0)" width="22.25" xlink:href="#font_Redensek_k0"/>
      </g>
    </g>
    <g id="font_Redensek_k0">
      <path d="M177.0 0.0 L177.0 -155.5 310.5 -155.5 310.5 -77.0 389.0 -77.0 389.0 0.0 488.0 0.0 488.0 -97.0 409.5 -97.0 409.5 -175.5 331.0 -175.5 331.0 -233.0 409.5 -233.0 409.5 -311.5 488.0 -311.5 488.0 -408.5 389.0 -408.5 389.0 -331.5 310.5 -331.5 310.5 -253.0 177.0 -253.0 177.0 -408.5 78.0 -408.5 78.0 0.0 177.0 0.0" fill-rule="evenodd" stroke="none"/>
    </g>
    <g id="button1" transform="matrix(1.0, 0.0, 0.0, 1.0, 4.5, 2.25)">
      <use height="21.8" transform="matrix(1.0, 0.0, 0.0, 1.0, 0.0, 0.0)" width="220.95" xlink:href="#shape0"/>
      <use height="21.8" transform="matrix(1.0, 0.0, 0.0, 1.0, 0.0, 0.0)" width="220.95" xlink:href="#sprite0"/>
    </g>
    <g id="text3" transform="matrix(1.0, 0.0, 0.0, 1.0, -87.1, 1.05)">
      <g transform="matrix(1.0, 0.0, 0.0, 1.0, 24.4, 0.0)">
        <use fill="#000000" height="15.65" transform="matrix(0.0166, 0.0, 0.0, 0.0166, 61.0, 14.0)" width="96.5" xlink:href="#font_Redensek_g0"/>
        <use fill="#000000" height="15.65" transform="matrix(0.0166, 0.0, 0.0, 0.0166, 68.95, 14.0)" width="96.5" xlink:href="#font_Redensek_a0"/>
        <use fill="#000000" height="15.65" transform="matrix(0.0166, 0.0, 0.0, 0.0166, 76.9, 14.0)" width="96.5" xlink:href="#font_Redensek_m0"/>
        <use fill="#000000" height="15.65" transform="matrix(0.0166, 0.0, 0.0, 0.0166, 87.45, 14.0)" width="96.5" xlink:href="#font_Redensek_e0"/>
        <use fill="#000000" height="15.65" transform="matrix(0.0166, 0.0, 0.0, 0.0166, 95.4, 14.0)" width="96.5" xlink:href="#font_Redensek_s0"/>
        <use fill="#000000" height="15.65" transform="matrix(0.0166, 0.0, 0.0, 0.0166, 103.35, 14.0)" width="96.5" xlink:href="#font_Redensek_f0"/>
        <use fill="#000000" height="15.65" transform="matrix(0.0166, 0.0, 0.0, 0.0166, 110.0, 14.0)" width="96.5" xlink:href="#font_Redensek_r0"/>
        <use fill="#000000" height="15.65" transform="matrix(0.0166, 0.0, 0.0, 0.0166, 116.65, 14.0)" width="96.5" xlink:href="#font_Redensek_e0"/>
        <use fill="#000000" height="15.65" transform="matrix(0.0166, 0.0, 0.0, 0.0166, 124.6, 14.0)" width="96.5" xlink:href="#font_Redensek_e0"/>
        <use fill="#000000" height="15.65" transform="matrix(0.0166, 0.0, 0.0, 0.0166, 132.55, 14.0)" width="96.5" xlink:href="#font_Redensek_.0"/>
        <use fill="#000000" height="15.65" transform="matrix(0.0166, 0.0, 0.0, 0.0166, 135.25, 14.0)" width="96.5" xlink:href="#font_Redensek_c0"/>
        <use fill="#000000" height="15.65" transform="matrix(0.0166, 0.0, 0.0, 0.0166, 143.2, 14.0)" width="96.5" xlink:href="#font_Redensek_a0"/>
      </g>
    </g>
  </defs>
</svg>
