<?xml version="1.0" encoding="UTF-8" standalone="no"?>
<svg xmlns:xlink="http://www.w3.org/1999/xlink" height="386.0px" width="252.1px" xmlns="http://www.w3.org/2000/svg">
  <g transform="matrix(1.0, 0.0, 0.0, 1.0, 0.0, 0.0)">
    <use height="386.0" transform="matrix(1.0, 0.0, 0.0, 1.0, 0.0, 0.0)" width="252.1" xlink:href="#shape0"/>
  </g>
  <defs>
    <g id="shape0" transform="matrix(1.0, 0.0, 0.0, 1.0, 0.0, 0.0)">
      <path d="M166.9 75.35 Q169.35 76.4 174.7 77.85 181.15 79.55 183.9 81.7 186.6 83.8 187.6 87.3 188.1 89.2 188.1 91.5 188.1 92.85 181.8 97.95 174.6 103.75 168.1 106.0 L168.1 107.0 Q182.05 109.65 192.4 114.2 L199.8 118.0 194.9 123.05 185.95 130.6 185.85 130.7 184.1 130.0 Q176.25 127.05 172.1 123.8 169.95 122.1 168.8 120.3 166.25 116.35 166.1 106.0 L166.05 105.0 Q165.35 99.2 157.3 91.0 149.65 83.2 143.1 80.0 141.75 79.35 137.65 75.3 132.5 70.3 129.25 67.75 116.65 57.75 104.0 59.0 L92.0 59.0 92.0 60.0 Q105.0 67.75 130.6 90.55 148.8 106.7 154.95 114.85 158.1 118.95 158.1 121.0 158.1 125.0 153.9 125.75 147.8 126.05 144.1 127.0 L144.1 129.0 153.2 132.4 161.75 135.5 Q169.15 138.15 171.7 139.5 175.0 141.25 176.1 143.4 L176.6 143.55 176.4 144.1 Q175.55 146.8 175.1 150.0 174.65 153.35 173.6 157.4 172.05 163.15 169.35 170.25 L167.45 174.95 Q164.0 183.2 162.8 191.05 L162.4 194.1 Q162.1 196.8 162.1 199.5 162.1 206.7 167.4 220.2 L170.85 228.45 Q173.85 235.2 177.9 243.2 183.15 253.6 189.15 264.1 194.0 272.6 195.1 274.0 L201.0 282.15 Q204.45 287.2 205.6 289.55 L206.1 291.0 Q206.35 292.35 206.15 298.6 205.95 303.65 207.1 305.0 209.4 307.7 219.0 312.15 L222.05 313.5 228.8 316.35 Q241.5 321.55 252.1 325.0 248.2 329.15 247.25 336.9 246.2 345.3 245.1 347.0 243.65 349.25 235.35 355.45 228.1 360.9 228.1 363.0 228.1 364.15 228.4 364.75 229.2 366.6 232.1 368.0 231.35 379.15 214.6 379.1 L200.4 378.15 195.05 377.85 Q190.55 377.65 188.1 378.0 L176.15 380.05 162.1 381.0 Q158.65 380.9 154.5 383.45 150.3 386.0 147.6 386.0 137.35 386.0 134.35 380.65 L126.65 379.65 Q110.0 376.95 110.0 370.0 110.0 368.9 113.5 367.6 118.35 365.75 122.1 362.0 L118.95 359.0 Q116.4 357.05 115.0 357.0 L115.0 356.4 Q114.85 352.3 112.8 342.8 110.5 332.25 109.0 330.0 114.65 328.55 122.1 312.4 130.1 294.95 130.1 279.5 130.1 270.8 129.0 262.85 L127.65 255.15 Q125.4 244.95 121.2 236.2 119.45 232.55 117.3 229.1 113.55 223.05 108.6 217.5 105.35 213.8 101.55 210.3 99.05 208.0 95.8 205.35 L91.05 201.55 84.35 196.3 81.9 194.3 Q73.0 186.7 73.0 180.5 73.0 179.9 76.95 176.05 L77.8 175.25 75.3 170.75 71.75 165.7 Q67.55 160.1 60.0 151.0 62.75 147.85 68.8 144.4 73.0 141.95 73.0 139.5 73.0 133.4 59.4 117.25 48.1 103.85 39.0 96.0 47.8 97.35 53.4 88.95 58.0 82.1 58.0 74.5 58.0 74.05 52.8 67.4 47.0 60.0 43.0 56.0 47.3 56.0 53.85 53.25 L63.0 49.0 Q67.75 47.05 69.5 45.65 L73.0 42.0 Q76.7 38.3 88.85 35.95 98.85 34.0 107.5 34.0 107.85 34.0 113.95 35.95 L121.1 38.0 Q120.3 46.05 123.1 50.0 125.35 53.15 131.6 55.15 L145.1 58.95 Q154.45 62.0 162.1 67.0 161.75 72.15 165.7 74.7 L166.9 75.35 M95.65 144.45 L101.0 145.0 Q101.0 145.5 101.5 146.0 L102.0 147.0 Q93.45 151.05 91.5 152.5 89.0 154.35 89.0 159.0 L89.05 159.3 Q89.65 161.8 99.0 174.9 104.6 182.8 113.45 194.55 L120.6 204.0 121.45 205.1 124.25 208.8 133.6 221.05 136.7 225.1 142.7 232.9 Q152.05 244.9 154.1 247.0 148.65 240.5 143.2 232.9 L137.65 224.9 134.2 219.65 126.55 207.25 124.8 204.3 124.6 203.95 Q120.7 197.25 117.85 191.8 110.0 176.8 110.0 171.5 110.0 169.55 112.35 167.7 113.8 166.6 117.55 164.25 125.1 159.05 125.1 151.0 L119.55 150.2 113.0 150.0 113.2 149.65 114.2 148.2 Q114.6 147.85 116.0 147.0 114.55 144.5 108.65 140.25 102.8 136.0 101.0 136.0 102.2 133.8 105.15 130.25 L110.0 125.0 99.8 124.9 96.2 130.55 Q92.0 137.5 92.0 139.0 92.0 143.15 95.65 144.45 M171.55 271.25 Q184.95 284.1 191.2 293.8 198.1 304.55 198.1 314.5 L197.85 316.95 196.85 320.0 195.65 322.4 195.3 323.0 Q193.65 325.85 190.95 329.15 L181.1 340.0 Q177.5 344.3 171.3 344.55 L158.2 344.1 153.1 344.0 156.25 344.85 Q161.45 346.45 164.2 348.6 168.1 351.65 168.1 356.5 168.1 359.95 166.15 365.9 167.65 361.8 183.55 353.05 198.2 345.0 199.6 345.0 201.45 345.0 205.1 351.0 209.1 357.6 209.1 363.0 209.1 364.45 208.1 366.05 L208.25 366.2 Q215.8 359.65 217.6 357.0 220.1 353.35 220.1 346.5 220.1 340.75 216.3 335.5 209.85 326.6 208.1 323.0 207.45 321.65 207.15 318.3 L206.9 314.95 206.8 311.1 Q206.65 302.35 204.1 299.0 197.55 290.3 188.8 282.8 180.2 275.35 171.55 271.25 M149.05 309.25 Q143.5 315.05 140.45 318.85 L140.3 319.1 139.55 320.0 138.1 322.0 138.1 327.0 Q142.4 327.0 147.4 324.05 L147.45 324.0 148.95 323.0 151.8 321.2 Q153.0 320.45 153.95 320.0 156.0 319.0 157.1 319.0 L162.9 319.65 164.95 320.0 169.1 321.0 169.35 320.8 168.9 320.0 166.9 316.65 Q164.0 311.65 162.6 308.7 160.2 303.65 159.45 298.7 L149.05 309.25" fill="#ffffff" fill-opacity="0.4627451" fill-rule="evenodd" stroke="none"/>
      <path d="M199.8 118.0 Q211.75 125.05 217.1 135.55 221.05 143.4 221.9 154.25 L222.1 162.3 222.1 169.4 222.1 172.0 Q222.1 177.05 219.0 180.3 217.25 182.05 212.1 184.95 207.2 187.7 205.25 190.0 202.1 193.7 202.1 199.5 202.1 203.65 211.1 235.55 220.1 267.5 220.1 271.0 220.1 276.2 212.85 283.35 209.85 286.25 205.6 289.55 204.45 287.2 201.0 282.15 L195.1 274.0 Q194.0 272.6 189.15 264.1 183.15 253.6 177.9 243.2 173.85 235.2 170.85 228.45 L167.4 220.2 Q162.1 206.7 162.1 199.5 162.1 196.8 162.4 194.1 L162.8 191.05 Q164.0 183.2 167.45 174.95 L169.35 170.25 178.6 171.0 Q188.05 171.0 195.15 167.0 203.1 162.45 203.1 155.0 203.1 146.35 200.7 142.0 196.95 135.2 185.85 130.7 L185.95 130.6 194.9 123.05 199.8 118.0 M176.4 144.1 Q177.1 146.0 177.1 149.5 177.1 153.1 176.5 154.45 175.9 155.75 173.7 157.3 L173.6 157.4 Q174.65 153.35 175.1 150.0 175.55 146.8 176.4 144.1" fill="#9d9d9d" fill-opacity="0.4627451" fill-rule="evenodd" stroke="none"/>
      <path d="M95.8 205.35 L88.85 203.2 81.6 201.0 81.35 200.9 Q79.2 199.85 76.45 196.65 L67.0 185.0 Q62.55 179.6 57.05 176.7 56.3 176.3 48.8 173.4 L48.45 173.25 Q44.65 171.7 43.1 169.25 L42.2 167.3 Q41.0 164.0 41.0 158.5 41.0 154.8 43.5 151.35 46.85 146.6 53.0 147.0 53.0 142.9 51.5 136.5 L50.0 130.0 49.65 127.45 Q49.15 126.45 47.2 125.05 L27.0 112.0 2.55 96.4 Q0.5 94.9 0.1 93.85 L0.0 91.0 Q0.0 80.4 12.5 62.25 18.8 53.1 26.0 45.0 27.45 43.3 29.6 36.6 33.05 29.5 42.0 24.0 69.5 6.95 77.35 3.75 86.5 0.0 102.5 0.0 122.35 0.0 135.2 15.95 139.25 20.95 143.5 28.9 L149.1 39.0 Q162.8 40.15 169.6 42.75 178.1 45.95 178.1 52.0 L176.2 59.8 Q173.3 68.4 168.1 74.0 L166.9 75.35 165.7 74.7 Q161.75 72.15 162.1 67.0 154.45 62.0 145.1 58.95 L131.6 55.15 Q125.35 53.15 123.1 50.0 120.3 46.05 121.1 38.0 L113.95 35.95 Q107.85 34.0 107.5 34.0 98.85 34.0 88.85 35.95 76.7 38.3 73.0 42.0 L69.5 45.65 Q67.75 47.05 63.0 49.0 L53.85 53.25 Q47.3 56.0 43.0 56.0 47.0 60.0 52.8 67.4 58.0 74.05 58.0 74.5 58.0 82.1 53.4 88.95 47.8 97.35 39.0 96.0 48.1 103.85 59.4 117.25 73.0 133.4 73.0 139.5 73.0 141.95 68.8 144.4 62.75 147.85 60.0 151.0 67.55 160.1 71.75 165.7 L75.3 170.75 77.8 175.25 76.95 176.05 Q73.0 179.9 73.0 180.5 73.0 186.7 81.9 194.3 L84.35 196.3 91.05 201.55 95.8 205.35 M185.85 130.7 Q196.95 135.2 200.7 142.0 203.1 146.35 203.1 155.0 203.1 162.45 195.15 167.0 188.05 171.0 178.6 171.0 L169.35 170.25 Q172.05 163.15 173.6 157.4 L173.7 157.3 Q175.9 155.75 176.5 154.45 177.1 153.1 177.1 149.5 177.1 146.0 176.4 144.1 L176.6 143.55 176.1 143.4 Q175.0 141.25 171.7 139.5 169.15 138.15 161.75 135.5 L153.2 132.4 144.1 129.0 144.1 127.0 Q147.8 126.05 153.9 125.75 158.1 125.0 158.1 121.0 158.1 118.95 154.95 114.85 148.8 106.7 130.6 90.55 105.0 67.75 92.0 60.0 L92.0 59.0 104.0 59.0 Q116.65 57.75 129.25 67.75 132.5 70.3 137.65 75.3 141.75 79.35 143.1 80.0 149.65 83.2 157.3 91.0 165.35 99.2 166.05 105.0 L166.1 106.0 Q166.25 116.35 168.8 120.3 169.95 122.1 172.1 123.8 176.25 127.05 184.1 130.0 L185.85 130.7" fill="#373737" fill-opacity="0.5803922" fill-rule="evenodd" stroke="none"/>
      <path d="M95.65 144.45 Q92.0 143.15 92.0 139.0 92.0 137.5 96.2 130.55 L99.8 124.9 110.0 125.0 105.15 130.25 Q102.2 133.8 101.0 136.0 102.8 136.0 108.65 140.25 114.55 144.5 116.0 147.0 114.6 147.85 114.2 148.2 L113.2 149.65 113.0 150.0 119.55 150.2 125.1 151.0 Q125.1 159.05 117.55 164.25 113.8 166.6 112.35 167.7 110.0 169.55 110.0 171.5 110.0 176.8 117.85 191.8 120.7 197.25 124.6 203.95 L124.8 204.3 126.55 207.25 134.2 219.65 137.65 224.9 143.2 232.9 Q148.65 240.5 154.1 247.0 152.05 244.9 142.7 232.9 L136.7 225.1 133.6 221.05 124.25 208.8 121.45 205.1 120.6 204.0 113.45 194.55 Q104.6 182.8 99.0 174.9 89.65 161.8 89.05 159.3 L89.0 159.0 Q89.0 154.35 91.5 152.5 93.45 151.05 102.0 147.0 L101.5 146.0 Q101.0 145.5 101.0 145.0 L95.65 144.45 M149.05 309.25 L159.45 298.7 Q160.2 303.65 162.6 308.7 164.0 311.65 166.9 316.65 L168.9 320.0 169.35 320.8 169.1 321.0 164.95 320.0 162.9 319.65 157.1 319.0 Q156.0 319.0 153.95 320.0 153.0 320.45 151.8 321.2 L148.95 323.0 147.45 324.0 147.4 324.05 Q142.4 327.0 138.1 327.0 L138.1 322.0 139.55 320.0 140.3 319.1 140.45 318.85 Q143.5 315.05 149.05 309.25 M171.55 271.25 Q180.2 275.35 188.8 282.8 197.55 290.3 204.1 299.0 206.65 302.35 206.8 311.1 L206.9 314.95 207.15 318.3 Q207.45 321.65 208.1 323.0 209.85 326.6 216.3 335.5 220.1 340.75 220.1 346.5 220.1 353.35 217.6 357.0 215.8 359.65 208.25 366.2 L208.1 366.05 Q209.1 364.45 209.1 363.0 209.1 357.6 205.1 351.0 201.45 345.0 199.6 345.0 198.2 345.0 183.55 353.05 167.65 361.8 166.15 365.9 168.1 359.95 168.1 356.5 168.1 351.65 164.2 348.6 161.45 346.45 156.25 344.85 L153.1 344.0 158.2 344.1 171.3 344.55 Q177.5 344.3 181.1 340.0 L190.95 329.15 Q193.65 325.85 195.3 323.0 L195.65 322.4 196.85 320.0 197.85 316.95 198.1 314.5 Q198.1 304.55 191.2 293.8 184.95 284.1 171.55 271.25" fill="#9d9d9d" fill-opacity="0.2" fill-rule="evenodd" stroke="none"/>
    </g>
  </defs>
</svg>
