<?xml version="1.0" encoding="UTF-8" standalone="no"?>
<svg xmlns:xlink="http://www.w3.org/1999/xlink" height="43.95px" width="231.5px" xmlns="http://www.w3.org/2000/svg">
  <g transform="matrix(1.0, 0.0, 0.0, 1.0, 113.0, 21.95)">
    <use height="43.95" transform="matrix(1.0, 0.0, 0.0, 1.0, -2.25, -21.95)" width="60.75" xlink:href="#sprite0"/>
    <use height="43.95" transform="matrix(1.0, 0.0, 0.0, 1.0, -58.5, -21.95)" width="82.85" xlink:href="#sprite1"/>
  </g>
  <defs>
    <g id="sprite0" transform="matrix(1.0, 0.0, 0.0, 1.0, 30.4, 21.95)">
      <use height="43.95" transform="matrix(1.0, 0.0, 0.0, 1.0, -30.4, -21.95)" width="60.75" xlink:href="#shape0"/>
    </g>
    <g id="shape0" transform="matrix(1.0, 0.0, 0.0, 1.0, 30.4, 21.95)">
      <path d="M30.35 -21.95 L30.35 22.0 -28.15 22.0 -24.5 14.35 -17.25 9.3 -30.4 -0.15 -2.4 -8.45 -10.0 -15.95 -7.15 -21.95 30.35 -21.95" fill="#848484" fill-rule="evenodd" stroke="none"/>
    </g>
    <g id="sprite1" transform="matrix(1.0, 0.0, 0.0, 1.0, 41.45, 21.95)">
      <use height="43.95" transform="matrix(1.0, 0.0, 0.0, 1.0, -41.45, -21.95)" width="82.85" xlink:href="#shape1"/>
    </g>
    <g id="shape1" transform="matrix(1.0, 0.0, 0.0, 1.0, 41.45, 21.95)">
      <path d="M41.4 -8.65 L13.4 -0.35 26.55 9.1 19.3 14.15 15.65 22.0 -41.45 22.0 0.55 -21.95 36.55 -21.95 33.8 -16.15 41.4 -8.65" fill="#848484" fill-rule="evenodd" stroke="none"/>
    </g>
  </defs>
</svg>
