<?xml version="1.0" encoding="UTF-8" standalone="no"?>
<svg xmlns:xlink="http://www.w3.org/1999/xlink" height="11.55px" width="30.3px" xmlns="http://www.w3.org/2000/svg">
  <g transform="matrix(1.0, 0.0, 0.0, 1.0, 15.15, 5.8)">
    <use height="11.55" transform="matrix(1.0, 0.0, 0.0, 1.0, -15.15, -5.8)" width="30.3" xlink:href="#shape0"/>
  </g>
  <defs>
    <g id="shape0" transform="matrix(1.0, 0.0, 0.0, 1.0, 15.15, 5.8)">
      <path d="M-10.55 -5.8 L-5.7 -5.05 -5.4 -2.55 10.4 2.25 11.0 1.9 15.15 4.0 14.9 5.5 14.35 5.75 -4.55 -1.05 -3.85 -0.8 -3.8 -0.25 0.25 1.85 -2.85 0.9 -1.6 1.75 -0.35 1.95 -1.25 2.3 -3.9 0.8 -4.65 1.1 -6.8 0.3 -4.95 3.3 Q-5.9 1.9 -6.8 0.8 L-6.75 1.15 -8.35 0.85 -9.3 1.15 -11.05 -0.1 -11.35 -1.7 -11.95 -0.55 -12.5 -1.15 Q-15.45 -1.95 -15.1 -5.2 L-12.85 -4.8 -12.75 -5.6 -10.55 -5.8 M-7.4 -3.35 L-5.65 -2.8 -5.95 -4.95 -7.0 -4.6 -6.9 -4.35 -7.4 -3.35" fill="#000000" fill-rule="evenodd" stroke="none"/>
    </g>
  </defs>
</svg>
