<?xml version="1.0" encoding="UTF-8" standalone="no"?>
<svg xmlns:xlink="http://www.w3.org/1999/xlink" height="40.1px" width="272.85px" xmlns="http://www.w3.org/2000/svg">
  <g transform="matrix(1.0, 0.0, 0.0, 1.0, -92.05, -10.3)">
    <use height="40.1" transform="matrix(1.0, 0.0, 0.0, 1.0, 92.05, 10.3)" width="272.85" xlink:href="#sprite0"/>
    <use height="40.1" transform="matrix(1.0, 0.0, 0.0, 1.0, 92.05, 10.3)" width="272.85" xlink:href="#sprite1"/>
  </g>
  <defs>
    <g id="sprite0" transform="matrix(1.0, 0.0, 0.0, 1.0, -92.05, -10.3)">
      <use height="40.1" transform="matrix(1.0, 0.0, 0.0, 1.0, 92.05, 10.3)" width="272.85" xlink:href="#text0"/>
    </g>
    <g id="text0" transform="matrix(1.0, 0.0, 0.0, 1.0, -90.05, -8.3)">
      <g transform="matrix(1.0, 0.0, 0.0, 1.0, 0.0, 0.0)">
        <use fill="#b3b3b3" height="40.1" transform="matrix(0.0459, 0.0, 0.0, 0.0459, 88.0, 43.0)" width="272.85" xlink:href="#font_VTKS_clean_l0"/>
        <use fill="#b3b3b3" height="40.1" transform="matrix(0.0459, 0.0, 0.0, 0.0459, 111.15, 43.0)" width="272.85" xlink:href="#font_VTKS_clean_e0"/>
        <use fill="#b3b3b3" height="40.1" transform="matrix(0.0459, 0.0, 0.0, 0.0459, 137.55, 43.0)" width="272.85" xlink:href="#font_VTKS_clean_v0"/>
        <use fill="#b3b3b3" height="40.1" transform="matrix(0.0459, 0.0, 0.0, 0.0459, 165.7, 43.0)" width="272.85" xlink:href="#font_VTKS_clean_e0"/>
        <use fill="#b3b3b3" height="40.1" transform="matrix(0.0459, 0.0, 0.0, 0.0459, 192.1, 43.0)" width="272.85" xlink:href="#font_VTKS_clean_l0"/>
        <use fill="#b3b3b3" height="40.1" transform="matrix(0.0459, 0.0, 0.0, 0.0459, 228.35, 43.0)" width="272.85" xlink:href="#font_VTKS_clean_c0"/>
        <use fill="#b3b3b3" height="40.1" transform="matrix(0.0459, 0.0, 0.0, 0.0459, 254.45, 43.0)" width="272.85" xlink:href="#font_VTKS_clean_l0"/>
        <use fill="#b3b3b3" height="40.1" transform="matrix(0.0459, 0.0, 0.0, 0.0459, 277.6, 43.0)" width="272.85" xlink:href="#font_VTKS_clean_e0"/>
        <use fill="#b3b3b3" height="40.1" transform="matrix(0.0459, 0.0, 0.0, 0.0459, 304.0, 43.0)" width="272.85" xlink:href="#font_VTKS_clean_a0"/>
        <use fill="#b3b3b3" height="40.1" transform="matrix(0.0459, 0.0, 0.0, 0.0459, 326.9, 43.0)" width="272.85" xlink:href="#font_VTKS_clean_r0"/>
      </g>
    </g>
    <g id="font_VTKS_clean_l0">
      <path d="M51.5 -559.5 L51.5 -559.5 Q35.0 -557.0 35.0 -543.5 L35.0 -513.5 37.0 -526.0 35.0 -526.0 39.0 -31.0 46.5 -23.5 197.5 -17.5 233.5 -17.5 Q399.5 -17.5 475.0 -98.0 507.0 -139.5 512.5 -184.5 L512.5 -194.5 Q512.5 -209.0 423.5 -216.0 L416.5 -209.5 406.5 -172.5 Q372.0 -116.0 212.5 -116.0 L134.0 -119.5 134.0 -469.5 136.0 -549.5 128.0 -557.0 51.5 -559.5" fill-rule="evenodd" stroke="none"/>
    </g>
    <g id="font_VTKS_clean_e0">
      <path d="M294.0 -579.0 L294.0 -579.0 Q234.5 -579.0 169.0 -550.0 25.0 -473.5 25.0 -318.0 25.0 -241.5 57.5 -164.0 133.0 -17.5 294.0 -17.5 426.5 -17.5 516.5 -124.0 563.0 -200.5 563.0 -251.0 563.0 -266.0 472.0 -271.0 L464.5 -263.5 Q457.0 -210.0 433.5 -179.5 373.5 -118.0 311.5 -118.0 L270.5 -118.0 Q215.5 -128.0 186.5 -153.0 150.5 -181.0 133.5 -241.0 L316.0 -241.0 326.0 -251.0 326.0 -329.5 316.0 -339.5 126.0 -339.5 126.0 -335.5 Q126.0 -351.5 136.5 -382.0 186.0 -478.5 290.0 -478.5 L299.5 -478.5 Q331.5 -478.5 369.5 -466.5 433.0 -444.5 467.0 -394.0 L477.0 -394.0 Q547.0 -428.5 549.5 -438.5 L549.5 -445.5 Q515.0 -507.0 445.5 -542.5 362.0 -579.0 294.0 -579.0" fill-rule="evenodd" stroke="none"/>
    </g>
    <g id="font_VTKS_clean_v0">
      <path d="M706.5 -724.0 L706.5 -724.0 Q651.5 -724.0 628.5 -711.5 578.5 -700.0 510.5 -620.5 444.5 -529.0 365.5 -264.0 323.0 -173.5 279.0 -133.5 L288.5 -133.5 Q216.0 -322.5 179.0 -401.5 121.0 -549.5 87.5 -586.5 L77.5 -586.5 10.5 -534.5 Q59.0 -447.0 197.0 -96.5 216.5 -23.5 269.5 -23.5 341.0 -23.5 426.5 -164.0 458.0 -218.0 512.5 -391.0 586.5 -625.5 699.5 -625.5 L750.0 -621.5 770.0 -701.0 Q770.0 -724.0 706.5 -724.0" fill-rule="evenodd" stroke="none"/>
    </g>
    <g id="font_VTKS_clean_c0">
      <path d="M326.5 -567.0 L326.5 -567.0 Q126.0 -567.0 49.0 -407.0 32.0 -367.0 24.0 -303.0 L26.0 -294.0 26.0 -290.0 Q26.0 -204.0 75.0 -127.0 169.5 -11.5 306.5 -11.5 357.5 -11.5 414.5 -33.5 554.5 -100.0 554.5 -252.0 L549.5 -267.0 469.5 -264.5 456.5 -260.5 453.5 -240.5 Q453.5 -198.0 424.5 -159.5 375.0 -112.0 320.5 -112.0 L295.5 -112.0 251.0 -119.5 Q125.0 -165.5 125.0 -292.0 125.0 -333.5 140.5 -365.5 191.0 -466.5 308.5 -466.5 L348.0 -466.5 Q360.5 -466.5 397.0 -455.5 424.0 -440.0 438.5 -390.0 524.0 -404.5 533.0 -415.0 L524.5 -444.5 Q483.0 -567.0 326.5 -567.0" fill-rule="evenodd" stroke="none"/>
    </g>
    <g id="font_VTKS_clean_a0">
      <path d="M101.5 -172.0 L101.5 -204.0 101.5 -204.5 Q116.0 -238.5 149.5 -252.5 172.5 -272.0 309.0 -284.5 390.0 -297.0 417.5 -312.0 L406.5 -312.0 408.5 -182.5 408.5 -178.5 Q408.5 -157.0 391.5 -149.0 250.0 -98.5 199.0 -98.5 171.0 -98.5 146.0 -110.5 112.5 -131.5 101.5 -172.0 M261.5 -559.5 L261.5 -559.5 Q205.0 -559.5 139.5 -535.0 36.0 -476.0 36.0 -390.5 L36.0 -380.5 45.5 -371.0 131.5 -371.0 Q137.5 -408.5 150.0 -421.5 193.5 -459.0 242.0 -459.0 L281.5 -459.0 Q297.0 -459.0 314.0 -453.5 334.0 -449.5 334.0 -443.5 362.5 -443.5 397.0 -407.0 L396.0 -409.5 Q364.0 -389.0 185.0 -369.0 0.5 -324.0 0.5 -188.5 0.5 -158.0 9.5 -131.0 61.5 0.0 197.0 0.0 264.5 0.0 400.5 -45.5 507.5 -82.0 507.5 -173.0 L507.5 -302.5 Q507.5 -407.5 492.0 -435.5 420.5 -559.5 261.5 -559.5" fill-rule="evenodd" stroke="none"/>
    </g>
    <g id="font_VTKS_clean_r0">
      <path d="M125.5 -472.5 L121.5 -472.5 123.5 -474.5 259.0 -474.5 Q307.0 -470.5 319.5 -466.5 440.5 -430.5 440.5 -333.0 L434.5 -296.5 Q401.5 -214.0 291.5 -214.0 219.5 -214.0 129.0 -250.0 L127.5 -306.5 127.5 -484.5 125.5 -472.5 M51.0 -573.0 L26.5 -566.5 28.5 -542.5 26.5 -510.5 28.5 -115.5 28.5 -88.5 26.5 -21.5 34.0 -14.0 116.5 -9.5 127.5 -24.0 129.5 -167.0 129.5 -149.0 Q151.5 -135.5 198.0 -125.5 208.5 -125.5 222.0 -94.5 349.0 106.0 544.5 106.0 683.5 106.0 774.5 9.5 L774.5 0.0 713.5 -57.0 703.0 -57.0 Q635.0 7.5 545.5 7.5 476.5 1.0 476.5 -3.0 366.5 -46.0 321.5 -126.0 L321.5 -115.5 Q413.5 -115.5 494.0 -199.5 541.5 -269.5 541.5 -334.0 L533.0 -388.5 Q505.0 -481.0 426.0 -530.5 351.0 -569.0 279.5 -573.0 L51.0 -573.0" fill-rule="evenodd" stroke="none"/>
    </g>
    <g id="sprite1" transform="matrix(1.0, 0.0, 0.0, 1.0, -92.05, -10.3)">
      <use height="40.1" transform="matrix(1.0, 0.0, 0.0, 1.0, 92.05, 10.3)" width="272.85" xlink:href="#sprite2"/>
    </g>
    <g id="sprite2" transform="matrix(1.0, 0.0, 0.0, 1.0, -92.05, -10.3)">
      <use height="40.1" transform="matrix(1.0, 0.0, 0.0, 1.0, 92.05, 10.3)" width="272.85" xlink:href="#text1"/>
    </g>
    <g id="text1" transform="matrix(1.0, 0.0, 0.0, 1.0, -90.05, -8.3)">
      <g transform="matrix(1.0, 0.0, 0.0, 1.0, 0.0, 0.0)">
        <use fill="#000000" height="40.1" transform="matrix(0.0459, 0.0, 0.0, 0.0459, 88.0, 43.0)" width="272.85" xlink:href="#font_VTKS_clean_l0"/>
        <use fill="#000000" height="40.1" transform="matrix(0.0459, 0.0, 0.0, 0.0459, 111.15, 43.0)" width="272.85" xlink:href="#font_VTKS_clean_e0"/>
        <use fill="#000000" height="40.1" transform="matrix(0.0459, 0.0, 0.0, 0.0459, 137.55, 43.0)" width="272.85" xlink:href="#font_VTKS_clean_v0"/>
        <use fill="#000000" height="40.1" transform="matrix(0.0459, 0.0, 0.0, 0.0459, 165.7, 43.0)" width="272.85" xlink:href="#font_VTKS_clean_e0"/>
        <use fill="#000000" height="40.1" transform="matrix(0.0459, 0.0, 0.0, 0.0459, 192.1, 43.0)" width="272.85" xlink:href="#font_VTKS_clean_l0"/>
        <use fill="#000000" height="40.1" transform="matrix(0.0459, 0.0, 0.0, 0.0459, 228.35, 43.0)" width="272.85" xlink:href="#font_VTKS_clean_c0"/>
        <use fill="#000000" height="40.1" transform="matrix(0.0459, 0.0, 0.0, 0.0459, 254.45, 43.0)" width="272.85" xlink:href="#font_VTKS_clean_l0"/>
        <use fill="#000000" height="40.1" transform="matrix(0.0459, 0.0, 0.0, 0.0459, 277.6, 43.0)" width="272.85" xlink:href="#font_VTKS_clean_e0"/>
        <use fill="#000000" height="40.1" transform="matrix(0.0459, 0.0, 0.0, 0.0459, 304.0, 43.0)" width="272.85" xlink:href="#font_VTKS_clean_a0"/>
        <use fill="#000000" height="40.1" transform="matrix(0.0459, 0.0, 0.0, 0.0459, 326.9, 43.0)" width="272.85" xlink:href="#font_VTKS_clean_r0"/>
      </g>
    </g>
  </defs>
</svg>
