<?xml version="1.0" encoding="UTF-8" standalone="no"?>
<svg xmlns:xlink="http://www.w3.org/1999/xlink" height="1824.0px" width="2156.8px" xmlns="http://www.w3.org/2000/svg">
  <g transform="matrix(1.0, 0.0, 0.0, 1.0, 1070.0, 942.65)">
    <use height="1021.0" transform="matrix(1.0, 0.0, 0.0, 1.0, -795.15, -511.65)" width="1603.9" xlink:href="#sprite0"/>
    <use height="87.7" transform="matrix(1.0, 0.0, 0.0, 1.0, -179.8, -92.75)" width="326.25" xlink:href="#sprite3"/>
  </g>
  <defs>
    <g id="sprite0" transform="matrix(1.0, 0.0, 0.0, 1.0, 976.75, 393.0)">
      <use height="1021.0" transform="matrix(1.0, 0.0, 0.0, 1.0, -976.75, -393.0)" width="1603.9" xlink:href="#shape0"/>
      <use height="79.7" transform="matrix(0.793, 0.0, 0.0, 0.793, -182.2637, 107.5354)" width="1.8" xlink:href="#sprite1"/>
      <use height="79.7" transform="matrix(-0.793, 0.0, 0.0, -0.793, -180.7863, 129.7146)" width="1.8" xlink:href="#sprite1"/>
      <use height="79.7" transform="matrix(0.0, 0.793, -0.793, 0.0, -170.2354, 118.1363)" width="1.8" xlink:href="#sprite1"/>
      <use height="79.7" transform="matrix(0.0, -0.793, 0.793, 0.0, -192.6646, 119.5637)" width="1.8" xlink:href="#sprite1"/>
    </g>
    <g id="shape0" transform="matrix(1.0, 0.0, 0.0, 1.0, 976.75, 393.0)">
      <path d="M-134.5 120.5 L-136.05 118.95 -134.1 116.95 -43.1 116.95 Q-43.45 60.25 -83.7 20.0 -123.55 -19.9 -179.75 -20.45 L-179.75 71.65 -181.55 73.45 -183.3 71.65 -183.3 -20.45 Q-239.5 -19.9 -279.45 20.0 -319.65 60.25 -319.95 116.95 L-229.0 116.95 -227.0 118.95 -228.6 120.5 -319.9 120.5 Q-319.05 176.15 -279.45 215.75 -239.5 255.7 -183.3 256.3 L-183.3 166.2 -181.55 164.4 -179.75 166.2 -179.75 256.3 Q-123.55 255.7 -83.7 215.75 -44.05 176.15 -43.1 120.5 L-134.5 120.5 M627.15 628.0 L-976.75 628.0 -976.75 -393.0 627.15 -393.0 627.15 628.0" fill="#000000" fill-opacity="0.5529412" fill-rule="evenodd" stroke="none"/>
    </g>
    <g id="sprite1" transform="matrix(1.0, 0.0, 0.0, 1.0, 0.9, 42.2)">
      <clipPath id="clipPath0" transform="matrix(1.0, 0.0, 0.0, 1.0, 0.9, 42.2)">
        <use height="71.2" transform="matrix(1.0, 0.0, 0.0, 1.0, -0.9, -33.7)" width="1.8" xlink:href="#sprite2"/>
      </clipPath>
      <g clip-path="url(#clipPath0)">
        <use height="440.0" transform="matrix(0.0019, 0.0, 0.0, 0.1293, -0.7507, -28.45)" width="800.0" xlink:href="#shape2"/>
      </g>
    </g>
    <g id="sprite2" transform="matrix(1.0, 0.0, 0.0, 1.0, 0.9, 40.1)">
      <use height="71.2" transform="matrix(1.0, 0.0, 0.0, 1.0, -0.9, -40.1)" width="1.8" xlink:href="#shape1"/>
    </g>
    <g id="shape1" transform="matrix(1.0, 0.0, 0.0, 1.0, 0.9, 40.1)">
      <path d="M0.9 -29.4 L0.9 -24.6 0.0 -22.9 -0.9 -24.75 -0.9 -29.25 0.0 -31.1 0.9 -29.4 M0.9 -11.4 L0.9 -6.6 0.0 -4.9 -0.9 -6.75 -0.9 -11.25 0.0 -13.1 0.9 -11.4 M0.9 -2.4 L0.9 2.4 0.0 4.1 -0.9 2.25 -0.9 -2.25 0.0 -4.1 0.9 -2.4 M0.9 -15.6 L0.0 -13.9 -0.9 -15.75 -0.9 -20.25 0.0 -22.1 0.9 -20.4 0.9 -15.6 M0.0 22.1 L-0.9 20.25 -0.9 15.75 0.0 13.9 0.9 15.6 0.9 20.4 0.0 22.1 M0.0 13.1 L-0.9 11.25 -0.9 6.75 0.0 4.9 0.9 6.6 0.9 11.4 0.0 13.1 M0.9 24.6 L0.9 29.4 0.0 31.1 -0.9 29.25 -0.9 24.75 0.0 22.9 0.9 24.6" fill="#000000" fill-opacity="0.54901963" fill-rule="evenodd" stroke="none"/>
      <path d="M0.9 -33.6 L0.0 -31.9 -0.9 -33.75 -0.9 -38.25 0.0 -40.1 0.9 -38.4 0.9 -33.6" fill="#000000" fill-opacity="0.54901963" fill-rule="evenodd" stroke="none"/>
    </g>
    <g id="shape2" transform="matrix(1.0, 0.0, 0.0, 1.0, 400.0, 220.0)">
      <path d="M400.0 220.0 L-400.0 220.0 -400.0 -220.0 400.0 -220.0 400.0 220.0" fill="#000000" fill-opacity="0.54901963" fill-rule="evenodd" stroke="none"/>
    </g>
    <g id="sprite3" transform="matrix(1.0, 0.0, 0.0, 1.0, 271.15, 75.6)">
      <use height="24.2" transform="matrix(1.0, 0.0, 0.0, 1.0, -39.95, -12.1)" width="83.8" xlink:href="#sprite4"/>
    </g>
    <g id="sprite4" transform="matrix(1.0, 0.0, 0.0, 1.0, 28.7, 12.1)">
      <use height="14.8" transform="matrix(1.0, 0.0, 0.0, 1.0, -24.15, -2.7)" width="75.3" xlink:href="#shape3"/>
      <use height="20.9" transform="matrix(1.0, 0.0, 0.0, 1.0, -28.7, -12.1)" width="13.0" xlink:href="#sprite5"/>
    </g>
    <g id="shape3" transform="matrix(1.0, 0.0, 0.0, 1.0, 24.15, 2.7)">
      <path d="M48.05 -0.8 L48.05 -2.7 49.3 -2.7 49.3 -0.8 51.15 -0.8 51.15 0.45 49.3 0.45 49.3 2.3 48.05 2.3 48.05 0.45 46.15 0.45 46.15 -0.8 48.05 -0.8 M50.65 12.1 L-24.1 12.1 -24.1 12.0 -24.15 12.0 -24.15 4.25 -20.4 4.25 -20.4 8.1 47.0 8.1 47.0 4.25 50.75 4.25 50.75 12.0 50.65 12.0 50.65 12.1 M-23.65 1.7 L-23.65 0.3 -20.95 0.3 -20.95 1.7 -23.65 1.7" fill="#ffffff" fill-opacity="0.0" fill-rule="evenodd" stroke="none"/>
    </g>
    <g id="sprite5" transform="matrix(1.0, 0.0, 0.0, 1.0, 6.5, 10.45)">
      <use height="6.5" transform="matrix(1.0, 0.0, 0.0, 1.0, -6.5, -10.45)" width="13.0" xlink:href="#sprite6"/>
      <use height="11.5" transform="matrix(1.0, 0.0, 0.0, 1.0, -0.5, -1.05)" width="1.0" xlink:href="#sprite7"/>
    </g>
    <g id="sprite6" transform="matrix(1.0, 0.0, 0.0, 1.0, 6.5, 3.25)">
      <use height="6.5" transform="matrix(1.0, 0.0, 0.0, 1.0, -6.5, -3.25)" width="13.0" xlink:href="#shape4"/>
    </g>
    <g id="shape4" transform="matrix(1.0, 0.0, 0.0, 1.0, 6.5, 3.25)">
      <path d="M-6.5 -3.25 L-2.45 -3.25 0.05 -0.75 2.55 -3.25 6.5 -3.25 0.0 3.25 -6.5 -3.25" fill="#ffffff" fill-opacity="0.0" fill-rule="evenodd" stroke="none"/>
    </g>
    <g id="sprite7" transform="matrix(1.0, 0.0, 0.0, 1.0, 0.5, 5.75)">
      <use height="43.2" transform="matrix(0.0012, 0.0, 0.0, 0.2662, -0.5018, -5.75)" width="843.2" xlink:href="#shape5"/>
    </g>
    <g id="shape5" transform="matrix(1.0, 0.0, 0.0, 1.0, 421.6, 21.6)">
      <path d="M-421.6 -21.6 L421.6 -21.6 421.6 21.6 -421.6 21.6 -421.6 -21.6" fill="#ffffff" fill-opacity="0.0" fill-rule="evenodd" stroke="none"/>
    </g>
  </defs>
</svg>
