<?xml version="1.0" encoding="UTF-8" standalone="no"?>
<svg xmlns:xlink="http://www.w3.org/1999/xlink" height="25.2px" width="383.1px" xmlns="http://www.w3.org/2000/svg">
  <g transform="matrix(1.0, 0.0, 0.0, 1.0, 179.8, 15.35)">
    <use height="21.05" transform="matrix(1.1737, 0.0, 0.0, 1.1737, -179.7679, -15.355)" width="326.4" xlink:href="#text0"/>
    <use height="24.7" transform="matrix(1.0, 0.0, 0.0, 1.0, -179.8, -14.85)" width="383.05" xlink:href="#sprite0"/>
  </g>
  <defs>
    <g id="text0" transform="matrix(1.0, 0.0, 0.0, 1.0, 76.1, -2.85)">
      <g transform="matrix(1.0, 0.0, 0.0, 1.0, -77.55, 0.0)">
        <use fill="#000000" height="21.05" transform="matrix(0.0293, 0.0, 0.0, 0.0293, 0.0, 23.0)" width="326.4" xlink:href="#font_LilyUPC_-0"/>
        <use fill="#000000" height="21.05" transform="matrix(0.0293, 0.0, 0.0, 0.0293, 17.45, 23.0)" width="326.4" xlink:href="#font_LilyUPC_K0"/>
        <use fill="#000000" height="21.05" transform="matrix(0.0293, 0.0, 0.0, 0.0293, 30.8, 23.0)" width="326.4" xlink:href="#font_LilyUPC_i0"/>
        <use fill="#000000" height="21.05" transform="matrix(0.0293, 0.0, 0.0, 0.0293, 35.0, 23.0)" width="326.4" xlink:href="#font_LilyUPC_l0"/>
        <use fill="#000000" height="21.05" transform="matrix(0.0293, 0.0, 0.0, 0.0293, 39.45, 23.0)" width="326.4" xlink:href="#font_LilyUPC_l0"/>
        <use fill="#000000" height="21.05" transform="matrix(0.0293, 0.0, 0.0, 0.0293, 49.5, 23.0)" width="326.4" xlink:href="#font_LilyUPC_t0"/>
        <use fill="#000000" height="21.05" transform="matrix(0.0293, 0.0, 0.0, 0.0293, 56.65, 23.0)" width="326.4" xlink:href="#font_LilyUPC_h0"/>
        <use fill="#000000" height="21.05" transform="matrix(0.0293, 0.0, 0.0, 0.0293, 67.1, 23.0)" width="326.4" xlink:href="#font_LilyUPC_e0"/>
        <use fill="#000000" height="21.05" transform="matrix(0.0293, 0.0, 0.0, 0.0293, 82.5, 23.0)" width="326.4" xlink:href="#font_LilyUPC_e0"/>
        <use fill="#000000" height="21.05" transform="matrix(0.0293, 0.0, 0.0, 0.0293, 92.3, 23.0)" width="326.4" xlink:href="#font_LilyUPC_n0"/>
        <use fill="#000000" height="21.05" transform="matrix(0.0293, 0.0, 0.0, 0.0293, 102.75, 23.0)" width="326.4" xlink:href="#font_LilyUPC_e0"/>
        <use fill="#000000" height="21.05" transform="matrix(0.0293, 0.0, 0.0, 0.0293, 112.55, 23.0)" width="326.4" xlink:href="#font_LilyUPC_m0"/>
        <use fill="#000000" height="21.05" transform="matrix(0.0293, 0.0, 0.0, 0.0293, 128.45, 23.0)" width="326.4" xlink:href="#font_LilyUPC_i0"/>
        <use fill="#000000" height="21.05" transform="matrix(0.0293, 0.0, 0.0, 0.0293, 132.65, 23.0)" width="326.4" xlink:href="#font_LilyUPC_e0"/>
        <use fill="#000000" height="21.05" transform="matrix(0.0293, 0.0, 0.0, 0.0293, 142.45, 23.0)" width="326.4" xlink:href="#font_LilyUPC_s0"/>
        <use fill="#000000" height="21.05" transform="matrix(0.0293, 0.0, 0.0, 0.0293, 157.55, 23.0)" width="326.4" xlink:href="#font_LilyUPC_t0"/>
        <use fill="#000000" height="21.05" transform="matrix(0.0293, 0.0, 0.0, 0.0293, 164.7, 23.0)" width="326.4" xlink:href="#font_LilyUPC_h0"/>
        <use fill="#000000" height="21.05" transform="matrix(0.0293, 0.0, 0.0, 0.0293, 175.15, 23.0)" width="326.4" xlink:href="#font_LilyUPC_a0"/>
        <use fill="#000000" height="21.05" transform="matrix(0.0293, 0.0, 0.0, 0.0293, 185.55, 23.0)" width="326.4" xlink:href="#font_LilyUPC_t0"/>
        <use fill="#000000" height="21.05" transform="matrix(0.0293, 0.0, 0.0, 0.0293, 198.3, 23.0)" width="326.4" xlink:href="#font_LilyUPC_I0"/>
        <use fill="#000000" height="21.05" transform="matrix(0.0293, 0.0, 0.0, 0.0293, 209.0, 23.0)" width="326.4" xlink:href="#font_LilyUPC_c0"/>
        <use fill="#000000" height="21.05" transform="matrix(0.0293, 0.0, 0.0, 0.0293, 217.6, 23.0)" width="326.4" xlink:href="#font_LilyUPC_a0"/>
        <use fill="#000000" height="21.05" transform="matrix(0.0293, 0.0, 0.0, 0.0293, 228.0, 23.0)" width="326.4" xlink:href="#font_LilyUPC_n0"/>
        <use fill="#000000" height="21.05" transform="matrix(0.0293, 0.0, 0.0, 0.0293, 238.45, 23.0)" width="326.4" xlink:href="#font_LilyUPC__1"/>
        <use fill="#000000" height="21.05" transform="matrix(0.0293, 0.0, 0.0, 0.0293, 244.0, 23.0)" width="326.4" xlink:href="#font_LilyUPC_t0"/>
        <use fill="#000000" height="21.05" transform="matrix(0.0293, 0.0, 0.0, 0.0293, 256.75, 23.0)" width="326.4" xlink:href="#font_LilyUPC_r0"/>
        <use fill="#000000" height="21.05" transform="matrix(0.0293, 0.0, 0.0, 0.0293, 264.85, 23.0)" width="326.4" xlink:href="#font_LilyUPC_e0"/>
        <use fill="#000000" height="21.05" transform="matrix(0.0293, 0.0, 0.0, 0.0293, 274.65, 23.0)" width="326.4" xlink:href="#font_LilyUPC_a0"/>
        <use fill="#000000" height="21.05" transform="matrix(0.0293, 0.0, 0.0, 0.0293, 285.05, 23.0)" width="326.4" xlink:href="#font_LilyUPC_c0"/>
        <use fill="#000000" height="21.05" transform="matrix(0.0293, 0.0, 0.0, 0.0293, 293.65, 23.0)" width="326.4" xlink:href="#font_LilyUPC_h0"/>
        <use fill="#000000" height="21.05" transform="matrix(0.0293, 0.0, 0.0, 0.0293, 304.1, 23.0)" width="326.4" xlink:href="#font_LilyUPC_.0"/>
      </g>
    </g>
    <g id="font_LilyUPC_-0">
      <path d="M393.5 -206.5 L393.5 -290.0 48.5 -290.0 48.5 -206.5 393.5 -206.5" fill-rule="evenodd" stroke="none"/>
    </g>
    <g id="font_LilyUPC_K0">
      <path d="M465.0 -477.5 L337.0 -477.5 184.5 -279.5 184.5 -477.5 34.0 -477.5 34.0 0.0 184.5 0.0 184.5 -123.0 228.5 -178.0 344.0 0.0 487.5 0.0 302.0 -274.5 465.0 -477.5" fill-rule="evenodd" stroke="none"/>
    </g>
    <g id="font_LilyUPC_i0">
      <path d="M90.0 -478.5 L90.0 -478.5 Q62.0 -478.5 41.5 -461.0 21.5 -443.5 21.5 -419.0 21.5 -394.5 42.0 -377.0 62.0 -359.5 90.0 -359.5 118.5 -359.5 138.5 -377.0 159.0 -394.5 159.0 -419.0 159.0 -443.5 138.5 -461.0 118.5 -478.5 90.0 -478.5 M25.5 0.0 L154.5 0.0 154.5 -341.0 25.5 -341.0 25.5 0.0" fill-rule="evenodd" stroke="none"/>
    </g>
    <g id="font_LilyUPC_l0">
      <path d="M32.0 0.0 L161.0 0.0 161.0 -477.5 32.0 -477.5 32.0 0.0" fill-rule="evenodd" stroke="none"/>
    </g>
    <g id="font_LilyUPC_t0">
      <path d="M201.0 -116.5 L201.0 -270.0 265.5 -270.0 265.5 -341.0 201.0 -341.0 201.0 -477.5 72.0 -477.5 72.0 -341.0 7.5 -341.0 7.5 -270.0 72.0 -270.0 72.0 -104.5 Q72.0 -46.0 108.0 -21.5 138.5 1.0 226.5 1.0 240.5 1.0 251.0 0.5 261.5 0.5 265.5 0.0 L265.5 -70.5 Q265.0 -70.5 258.5 -69.5 252.5 -68.5 246.0 -68.5 228.0 -68.5 218.5 -76.5 201.0 -89.0 201.0 -116.5" fill-rule="evenodd" stroke="none"/>
    </g>
    <g id="font_LilyUPC_h0">
      <path d="M368.5 -245.5 L368.5 -245.5 Q368.5 -266.5 356.5 -290.0 344.5 -313.0 316.0 -329.5 288.0 -346.0 243.5 -346.0 215.0 -346.0 195.5 -339.0 176.5 -331.5 166.5 -323.5 156.5 -315.0 154.5 -313.0 L154.5 -477.5 25.5 -477.5 25.5 0.0 154.5 0.0 154.5 -216.0 Q155.0 -228.5 165.0 -249.5 175.0 -270.0 207.0 -274.5 240.0 -274.5 256.5 -259.0 272.5 -244.0 272.5 -222.0 L272.5 0.0 368.5 1.0 368.5 -245.5" fill-rule="evenodd" stroke="none"/>
    </g>
    <g id="font_LilyUPC_e0">
      <path d="M210.0 -275.5 L210.0 -275.5 Q244.0 -273.0 255.0 -252.0 266.5 -231.5 266.5 -199.0 L148.5 -199.0 Q148.5 -275.5 210.0 -275.5 M148.5 -139.5 L352.5 -139.5 Q353.0 -144.0 354.5 -156.0 355.5 -167.5 355.5 -183.5 353.0 -276.0 316.5 -311.5 291.0 -336.0 261.0 -343.5 230.5 -350.5 180.5 -350.5 105.0 -348.5 62.0 -306.0 19.5 -263.0 19.5 -163.5 21.0 1.0 168.0 9.5 172.5 9.5 180.0 10.0 187.5 10.5 191.5 10.5 243.0 10.5 281.0 1.0 318.5 -8.0 333.0 -14.0 L347.5 -96.5 Q335.0 -87.5 302.0 -73.5 268.5 -60.0 220.5 -58.5 148.5 -58.5 148.5 -139.5" fill-rule="evenodd" stroke="none"/>
    </g>
    <g id="font_LilyUPC_n0">
      <path d="M368.5 -245.5 L368.5 -245.5 Q368.5 -266.5 356.5 -290.0 344.5 -313.0 316.0 -329.5 288.0 -346.0 243.5 -346.0 215.0 -346.0 195.5 -339.0 176.5 -331.5 166.5 -323.5 156.5 -315.0 154.5 -313.0 L154.5 -341.0 25.5 -341.0 25.5 0.0 154.5 0.0 154.5 -216.0 Q155.0 -228.5 165.0 -249.5 175.0 -270.0 207.0 -274.5 240.0 -274.5 256.5 -259.0 272.5 -244.0 272.5 -222.0 L272.5 0.0 368.5 0.0 368.5 -245.5" fill-rule="evenodd" stroke="none"/>
    </g>
    <g id="font_LilyUPC_m0">
      <path d="M459.0 0.0 L556.0 0.0 556.0 -252.0 Q556.0 -294.0 524.5 -321.5 493.5 -348.5 431.0 -348.5 396.0 -348.0 373.5 -337.5 351.0 -327.0 341.0 -314.5 331.5 -301.5 331.0 -301.0 328.0 -312.5 310.0 -330.0 292.0 -347.5 247.0 -347.5 191.0 -346.5 158.0 -313.0 L158.0 -341.0 29.0 -341.0 29.0 0.0 158.0 0.0 158.0 -211.0 Q158.5 -224.0 167.5 -244.5 177.0 -265.0 208.0 -268.0 260.0 -268.0 260.0 -216.0 L260.0 0.0 356.0 0.0 356.0 -211.0 Q356.5 -224.0 366.0 -244.5 376.0 -265.0 406.5 -268.0 459.0 -268.0 459.0 -216.0 L459.0 0.0" fill-rule="evenodd" stroke="none"/>
    </g>
    <g id="font_LilyUPC_s0">
      <path d="M144.5 -244.5 L144.5 -244.5 Q144.5 -278.5 206.5 -278.5 259.5 -278.5 287.5 -269.5 315.5 -261.0 324.5 -255.0 L306.0 -334.0 Q296.0 -338.0 266.5 -343.5 237.5 -349.5 188.5 -349.5 184.5 -349.5 175.5 -349.0 166.5 -348.5 161.5 -348.5 103.0 -346.0 61.0 -322.0 19.5 -297.5 15.0 -251.0 15.0 -202.0 42.0 -179.5 68.5 -156.5 105.5 -148.5 142.5 -140.0 179.0 -130.5 215.0 -121.5 215.0 -100.5 215.0 -81.5 199.0 -72.0 183.0 -62.5 135.0 -62.5 89.5 -63.0 60.0 -76.5 30.5 -90.0 20.5 -99.0 L36.5 -12.0 Q49.5 -7.0 84.5 0.5 119.0 8.5 166.0 8.5 187.5 8.5 198.5 7.5 267.0 2.0 303.0 -25.5 339.0 -53.0 339.0 -117.5 337.0 -161.0 310.5 -181.5 284.0 -202.0 246.0 -209.0 207.5 -216.5 177.0 -223.0 146.0 -229.5 144.5 -244.5" fill-rule="evenodd" stroke="none"/>
    </g>
    <g id="font_LilyUPC_a0">
      <path d="M182.5 -67.5 L182.5 -67.5 Q162.0 -63.5 153.5 -63.5 118.0 -63.5 115.0 -87.0 115.0 -109.5 128.0 -120.0 141.0 -130.5 171.0 -135.0 195.5 -139.0 208.0 -145.0 220.5 -151.0 224.5 -156.5 229.0 -161.5 229.5 -162.5 L229.5 -110.5 Q229.5 -103.0 219.5 -88.5 209.0 -74.0 182.5 -67.5 M229.5 1.0 L358.5 0.0 358.5 -240.5 Q358.5 -285.0 320.0 -315.5 281.5 -346.0 195.5 -346.0 153.5 -346.0 122.0 -339.0 91.0 -332.0 73.5 -324.0 56.5 -316.0 56.5 -314.0 L35.0 -234.5 Q45.5 -245.5 79.5 -262.0 113.0 -278.5 172.0 -278.5 197.5 -278.5 214.0 -268.5 230.5 -258.0 230.5 -244.5 230.5 -230.0 211.5 -218.0 192.5 -205.5 154.5 -200.5 85.5 -190.5 51.5 -167.0 17.5 -143.5 17.5 -91.0 18.5 -43.0 53.5 -18.5 88.5 6.5 135.5 6.5 184.0 5.0 204.5 -9.5 225.5 -24.0 229.5 -33.5 L229.5 1.0" fill-rule="evenodd" stroke="none"/>
    </g>
    <g id="font_LilyUPC_I0">
      <path d="M184.5 -477.5 L34.0 -477.5 34.0 0.0 184.5 0.0 184.5 -477.5" fill-rule="evenodd" stroke="none"/>
    </g>
    <g id="font_LilyUPC_c0">
      <path d="M303.0 -13.0 L312.5 -96.0 Q312.5 -94.5 297.0 -86.5 282.0 -78.5 257.5 -71.5 233.0 -64.5 205.0 -64.5 165.0 -69.0 152.5 -95.5 140.5 -122.5 140.5 -176.0 140.5 -221.0 154.5 -247.0 168.0 -273.0 209.0 -276.5 249.5 -276.5 274.5 -267.0 299.5 -257.5 308.5 -251.0 L298.0 -332.0 Q285.5 -336.0 254.0 -341.5 223.0 -347.5 179.5 -347.5 94.5 -345.0 55.0 -302.5 15.5 -260.0 15.5 -177.5 15.5 -109.5 33.5 -69.0 51.5 -28.5 90.0 -10.5 128.5 7.5 192.5 7.5 236.0 7.5 264.5 -0.5 293.0 -8.0 303.0 -13.0" fill-rule="evenodd" stroke="none"/>
    </g>
    <g id="font_LilyUPC__1">
      <path d="M109.5 -545.5 L28.5 -372.5 88.0 -372.5 209.0 -545.5 109.5 -545.5" fill-rule="evenodd" stroke="none"/>
    </g>
    <g id="font_LilyUPC_r0">
      <path d="M29.0 0.0 L158.0 0.0 158.0 -201.5 Q158.0 -247.0 202.0 -267.0 219.5 -275.5 245.0 -275.5 274.0 -275.5 302.0 -266.0 L289.0 -342.0 Q277.0 -345.0 253.0 -345.0 228.0 -345.0 208.0 -339.0 190.5 -333.5 180.0 -326.5 169.5 -319.5 164.0 -312.5 158.5 -305.5 158.0 -305.0 L158.0 -341.0 29.0 -341.0 29.0 0.0" fill-rule="evenodd" stroke="none"/>
    </g>
    <g id="font_LilyUPC_.0">
      <path d="M35.5 0.0 L171.0 0.0 171.0 -110.0 35.5 -110.0 35.5 0.0" fill-rule="evenodd" stroke="none"/>
    </g>
    <g id="sprite0" transform="matrix(1.0, 0.0, 0.0, 1.0, 179.75, 15.35)">
      <use height="21.05" transform="matrix(1.1737, 0.0, 0.0, 1.1737, -179.7679, -15.355)" width="326.4" xlink:href="#text0"/>
    </g>
  </defs>
</svg>
