<?xml version="1.0" encoding="UTF-8" standalone="no"?>
<svg xmlns:xlink="http://www.w3.org/1999/xlink" height="64.6px" width="64.6px" xmlns="http://www.w3.org/2000/svg">
  <g transform="matrix(1.0, 0.0, 0.0, 1.0, 0.0, 0.0)">
    <use height="64.6" transform="matrix(1.0, 0.0, 0.0, 1.0, 0.0, 0.0)" width="64.6" xlink:href="#shape0"/>
    <use height="17.55" transform="matrix(1.0, 0.0, 0.0, 1.0, 0.9, 33.85)" width="52.5" xlink:href="#sprite0"/>
  </g>
  <defs>
    <g id="shape0" transform="matrix(1.0, 0.0, 0.0, 1.0, 0.0, 0.0)">
      <path d="M55.15 9.45 Q64.6 18.9 64.6 32.25 64.6 45.7 55.15 55.15 50.1 60.2 43.85 62.6 L32.95 64.6 32.25 64.6 26.05 64.05 23.0 63.35 23.0 63.3 22.9 63.3 Q16.75 61.5 11.65 57.2 L10.85 56.5 9.45 55.15 Q0.0 45.7 0.0 32.25 0.0 18.9 9.45 9.45 18.9 0.0 32.25 0.0 45.7 0.0 55.15 9.45" fill="#000000" fill-rule="evenodd" stroke="none"/>
    </g>
    <g id="sprite0" transform="matrix(1.0, 0.0, 0.0, 1.0, 21.5, 8.75)">
      <use height="17.5" transform="matrix(1.0, 0.0, 0.0, 1.0, -21.45, -8.75)" width="42.9" xlink:href="#shape1"/>
    </g>
    <g id="shape1" transform="matrix(1.0, 0.0, 0.0, 1.0, 21.45, 8.75)">
      <path d="M16.0 -8.75 L20.65 -6.0 Q21.85 -1.75 21.25 0.8 L18.1 4.65 Q9.15 8.6 0.7 5.6 -1.55 2.0 -3.9 1.35 -5.25 3.2 -4.75 6.95 L-8.5 8.6 -15.75 8.25 Q-18.2 6.8 -20.25 4.5 L-20.25 4.3 -21.45 -0.05 -21.0 -1.8 -18.2 -2.0 -4.8 -0.5 -5.35 -1.35 -4.25 -0.05 -4.4 -1.25 -4.1 -0.9 Q6.9 -5.55 16.0 -8.75" fill="#ffffff" fill-rule="evenodd" stroke="none"/>
    </g>
  </defs>
</svg>
