<?xml version="1.0" encoding="UTF-8" standalone="no"?>
<svg xmlns:xlink="http://www.w3.org/1999/xlink" height="36.6px" width="39.85px" xmlns="http://www.w3.org/2000/svg">
  <g transform="matrix(1.0, 0.0, 0.0, 1.0, 3.1, 0.05)">
    <use height="36.5" transform="matrix(1.0, 0.0, 0.0, 1.0, 0.0, 0.0)" width="35.25" xlink:href="#sprite0"/>
  </g>
  <defs>
    <g id="sprite0" transform="matrix(1.0, 0.0, 0.0, 1.0, 0.0, 0.0)">
      <use height="36.5" transform="matrix(1.0, 0.0, 0.0, 1.0, 0.0, 0.0)" width="35.25" xlink:href="#shape0"/>
    </g>
    <g id="shape0" transform="matrix(1.0, 0.0, 0.0, 1.0, 0.0, 0.0)">
      <path d="M15.6 10.3 L12.75 13.3 11.1 24.25 11.5 32.2 12.25 36.5 10.1 32.1 8.85 28.0 9.4 33.45 9.85 35.5 4.55 32.05 5.25 33.65 2.15 31.35 0.0 26.45 0.0 16.75 2.1 8.95 6.65 3.7 13.6 0.5 17.85 0.0 24.4 1.2 27.1 2.65 30.3 5.5 33.5 9.9 34.9 13.9 35.25 17.55 35.25 25.5 34.6 31.75 32.35 36.2 33.3 32.4 33.3 31.15 31.4 35.15 31.05 32.6 29.6 33.65 29.1 32.5 26.9 32.0 29.55 29.85 32.0 26.9 33.9 22.8 34.6 18.7 34.4 14.95 34.15 13.9 33.4 12.35 31.5 10.3 30.8 9.6 28.65 9.6 27.55 10.65 26.8 10.85 24.65 7.95 22.9 7.95 21.25 9.6 20.05 14.9 20.05 21.0 20.5 22.15 21.9 23.9 19.9 22.45 19.25 19.8 19.25 14.15 20.5 9.4 20.6 8.9 21.95 7.95 17.8 7.95 15.6 10.3 M27.25 5.5 L26.9 7.5 27.75 6.15 28.9 5.5 27.25 5.5 M24.9 5.75 L22.25 4.65 14.15 5.5 6.9 10.5 4.5 17.0 7.9 11.25 5.75 17.9 6.4 27.25 7.15 17.75 10.75 9.15 16.25 5.9 23.9 5.9 25.75 7.5 24.9 5.75 M24.5 4.65 L21.5 2.25 14.5 1.0 9.65 4.0 14.4 2.25 19.0 2.25 24.5 4.65 M5.65 10.0 L11.0 6.5 4.15 9.5 3.15 13.4 2.25 21.75 4.75 11.65 5.65 10.0 M3.65 24.0 L5.5 29.75 4.65 22.65 4.65 18.9 3.65 24.0" fill="#373737" fill-rule="evenodd" stroke="none"/>
      <path d="M15.6 10.3 L17.8 7.95 21.95 7.95 20.6 8.9 20.5 9.4 20.05 9.3 15.6 10.3 M21.25 9.6 L22.9 7.95 24.65 7.95 26.8 10.85 21.25 9.6 M27.55 10.65 L28.65 9.6 30.8 9.6 31.5 10.3 27.55 10.65" fill="#151515" fill-rule="evenodd" stroke="none"/>
      <path d="M27.25 5.5 L28.9 5.5 27.75 6.15 26.9 7.5 27.25 5.5 M24.5 4.65 L19.0 2.25 14.4 2.25 9.65 4.0 14.5 1.0 21.5 2.25 24.5 4.65 M24.9 5.75 L25.75 7.5 23.9 5.9 16.25 5.9 10.75 9.15 7.15 17.75 6.4 27.25 5.75 17.9 7.9 11.25 4.5 17.0 6.9 10.5 14.15 5.5 22.25 4.65 24.9 5.75 M3.65 24.0 L4.65 18.9 4.65 22.65 5.5 29.75 3.65 24.0 M5.65 10.0 L4.75 11.65 2.25 21.75 3.15 13.4 4.15 9.5 11.0 6.5 5.65 10.0" fill="#555555" fill-rule="evenodd" stroke="none"/>
    </g>
  </defs>
</svg>
