<?xml version="1.0" encoding="UTF-8" standalone="no"?>
<svg xmlns:xlink="http://www.w3.org/1999/xlink" height="651.3px" width="172.0px" xmlns="http://www.w3.org/2000/svg">
  <g transform="matrix(1.0, 0.0, 0.0, 1.0, 0.0, 0.0)">
    <use height="651.3" transform="matrix(1.0, 0.0, 0.0, 1.0, 0.0, 0.0)" width="172.0" xlink:href="#shape0"/>
  </g>
  <defs>
    <g id="shape0" transform="matrix(1.0, 0.0, 0.0, 1.0, 0.0, 0.0)">
      <path d="M167.25 51.4 Q170.3 57.7 172.0 65.9 171.75 71.35 169.7 74.5 L163.65 74.55 163.4 74.8 162.85 74.9 158.45 74.3 156.1 74.0 154.95 73.35 152.7 70.6 152.55 70.7 155.4 76.5 154.65 76.9 151.9 78.2 152.0 78.45 151.8 78.25 143.1 70.9 Q142.6 84.55 136.8 90.55 129.65 97.95 112.55 97.0 L107.0 97.65 100.3 97.75 97.85 92.45 Q95.2 87.05 94.1 85.9 93.2 90.95 91.3 94.15 L88.9 97.25 Q71.45 95.9 62.05 91.9 52.4 87.75 44.0 76.1 37.35 65.3 36.05 64.9 L30.9 73.05 30.75 70.7 Q30.75 66.35 30.9 65.45 31.2 63.5 32.8 59.6 L32.8 59.55 30.3 64.5 28.65 67.2 28.85 67.8 29.2 67.9 27.95 69.9 Q26.35 73.7 25.3 77.3 L23.1 77.8 22.0 79.45 Q20.9 80.8 19.05 81.45 L13.75 83.65 11.8 84.05 Q2.1 79.2 3.5 64.9 3.75 61.9 4.3 59.15 L4.95 56.45 5.4 56.55 Q12.05 45.2 16.35 41.1 L18.8 38.75 Q19.25 38.45 21.45 37.5 22.4 37.05 24.05 36.65 L27.3 35.55 29.0 34.8 35.7 34.2 Q37.85 34.15 38.4 33.7 L38.9 33.2 42.45 32.9 43.4 32.8 43.45 33.0 43.95 33.0 47.1 33.0 Q48.7 33.0 52.6 31.3 L62.1 26.9 66.1 24.5 69.05 22.5 Q70.85 21.05 72.35 19.1 74.6 16.25 75.15 13.55 80.25 6.55 79.0 1.4 93.25 -1.8 107.55 2.3 107.5 13.0 109.85 18.0 112.6 23.75 114.2 25.1 116.45 27.0 125.4 30.15 L127.6 30.7 Q129.65 31.3 132.35 32.55 135.25 33.85 138.6 34.65 L141.95 35.4 149.8 39.1 Q153.75 41.0 155.7 42.15 160.05 44.75 163.65 47.9 L167.25 51.4 M112.55 97.0 L112.6 96.9 110.85 96.9 112.55 97.0 M142.2 439.65 L138.1 458.6 133.3 465.35 128.1 472.05 131.35 481.15 Q132.6 485.3 132.6 489.55 132.6 491.5 131.6 495.3 L130.6 499.25 Q130.6 500.35 135.4 509.15 L137.3 512.5 Q137.0 522.3 135.9 532.2 133.1 556.7 124.95 581.95 123.9 585.65 123.35 589.45 121.4 602.25 124.8 615.1 127.05 618.55 131.75 621.8 136.95 625.45 147.5 630.05 152.35 632.25 160.5 637.5 L158.9 638.75 Q156.9 639.9 155.25 639.3 156.7 639.85 158.7 641.95 160.75 644.1 161.6 644.45 157.55 646.0 153.45 646.25 L143.35 646.35 Q132.85 646.35 129.35 643.85 124.85 639.3 118.6 635.05 111.85 630.45 109.05 628.2 104.4 624.5 101.6 620.85 L101.6 614.7 Q102.5 614.7 104.95 613.6 107.45 612.4 108.1 612.35 L108.1 611.4 Q107.45 610.8 103.25 598.95 99.0 586.75 98.1 582.55 L98.1 585.6 99.1 592.0 Q100.1 598.95 100.1 602.4 L99.1 617.8 Q99.1 625.05 99.25 625.4 99.6 626.25 105.6 631.7 108.05 633.95 111.7 639.05 L116.65 646.15 Q116.2 647.45 114.45 648.95 L112.3 650.8 Q97.3 650.55 89.5 650.85 69.95 651.6 64.95 648.3 62.6 646.8 61.9 643.75 61.5 641.9 61.5 636.9 61.5 634.6 63.0 629.35 64.5 624.1 64.5 622.05 L64.25 619.1 64.25 618.8 64.15 618.1 Q67.3 608.2 67.5 599.65 67.65 589.85 63.95 581.95 52.35 544.3 50.95 511.45 51.6 505.45 53.55 499.6 56.55 492.4 56.55 491.45 56.55 488.75 55.8 485.45 55.05 482.15 55.05 481.55 55.05 479.4 61.0 475.7 66.6 472.25 69.05 472.05 68.7 468.95 68.15 468.55 L65.3 468.25 Q62.8 468.25 61.75 469.35 61.05 470.05 59.05 472.5 L53.05 464.7 51.15 462.1 Q45.85 443.95 41.6 426.2 42.0 418.35 42.0 410.65 42.0 404.85 39.0 385.75 L37.25 374.35 38.95 372.4 Q39.55 371.45 39.55 370.2 39.55 366.65 37.55 360.05 35.55 353.4 35.55 350.6 35.55 343.25 41.55 340.7 45.8 338.9 56.05 338.8 L57.05 338.8 65.8 339.25 Q78.35 344.35 90.15 350.85 L91.55 353.5 94.25 357.6 93.0 357.6 94.05 400.3 Q94.9 375.6 101.2 357.35 L100.7 357.4 100.9 357.15 101.2 357.35 101.25 357.35 Q111.8 363.95 121.65 371.65 123.8 378.9 129.2 385.25 L134.9 391.35 Q138.2 394.75 139.6 396.95 140.85 398.9 142.0 406.95 143.1 414.55 143.1 420.1 L142.2 439.65 M90.05 142.95 L90.05 139.45 Q90.05 136.35 91.35 127.75 L92.3 120.5 Q94.35 124.4 98.75 131.35 103.9 141.3 104.1 152.15 L104.1 152.95 103.75 152.8 101.8 155.85 Q98.8 160.0 95.6 160.9 L91.3 147.45 90.05 142.95 M96.5 458.65 Q94.6 443.45 93.4 428.5 92.2 441.2 92.5 457.25 L96.5 458.65 M91.5 515.35 L97.5 495.05 91.5 495.05 91.5 515.35" fill="#000000" fill-rule="evenodd" stroke="none"/>
      <path d="M167.25 51.4 L163.65 47.9 Q160.05 44.75 155.7 42.15 153.75 41.0 149.8 39.1 L141.95 35.4 138.6 34.65 Q135.25 33.85 132.35 32.55 129.65 31.3 127.6 30.7 L125.4 30.15 Q116.45 27.0 114.2 25.1 112.6 23.75 109.85 18.0 107.5 13.0 107.55 2.3 L111.0 3.4 Q108.95 13.35 118.0 21.4 133.8 26.45 150.4 34.05 161.3 39.1 167.25 51.4 M75.15 13.55 Q74.6 16.25 72.35 19.1 70.85 21.05 69.05 22.5 L66.1 24.5 62.1 26.9 52.6 31.3 Q48.7 33.0 47.1 33.0 L43.95 33.0 Q43.7 32.75 43.45 32.8 L43.4 32.8 42.45 32.9 38.9 33.2 38.4 33.7 Q37.85 34.15 35.7 34.2 L29.0 34.8 27.3 35.55 24.05 36.65 Q22.4 37.05 21.45 37.5 19.25 38.45 18.8 38.75 L16.35 41.1 Q12.05 45.2 5.4 56.55 L4.95 56.4 Q9.0 42.1 23.2 34.2 L69.5 19.9 Q72.9 16.55 75.15 13.55 M11.8 84.05 L13.75 83.65 19.05 81.45 Q20.9 80.8 22.0 79.45 L23.1 77.8 25.3 77.3 Q26.35 73.7 27.95 69.9 L29.2 67.9 28.85 67.8 28.65 67.2 30.3 64.5 32.8 59.55 32.8 59.6 Q31.2 63.5 30.9 65.45 30.75 66.35 30.75 70.7 L30.9 73.05 30.45 73.6 Q28.1 76.25 25.3 77.3 23.85 82.1 23.35 86.55 16.35 86.35 11.8 84.05 M88.9 97.25 L91.3 94.15 Q93.2 90.95 94.1 85.9 95.2 87.05 97.85 92.45 L100.3 97.75 93.4 97.5 88.9 97.25 M152.0 78.45 L151.9 78.2 154.65 76.9 155.4 76.5 152.55 70.7 152.7 70.6 154.95 73.35 156.1 74.0 158.45 74.3 162.85 74.9 163.4 74.8 163.65 74.55 169.7 74.5 Q165.95 80.2 156.25 78.45 L158.7 85.0 Q155.7 81.45 152.0 78.45 M150.95 398.75 L142.2 439.65 143.1 420.1 Q143.1 414.55 142.0 406.95 140.85 398.9 139.6 396.95 138.2 394.75 134.9 391.35 L129.2 385.25 Q123.8 378.9 121.65 371.65 L130.1 378.55 Q141.0 387.9 150.95 398.75 M160.5 637.5 L160.55 637.55 Q170.0 643.65 170.0 645.65 170.0 650.5 160.0 651.3 L139.5 651.3 127.8 651.1 Q125.7 650.25 123.35 648.9 L116.5 644.25 Q116.95 645.15 116.65 646.15 L111.7 639.05 Q108.05 633.95 105.6 631.7 99.6 626.25 99.25 625.4 99.1 625.05 99.1 617.8 L100.1 602.4 Q100.1 598.95 99.1 592.0 L98.1 585.6 98.1 582.55 Q99.0 586.75 103.25 598.95 107.45 610.8 108.1 611.4 L108.1 612.35 Q107.45 612.4 104.95 613.6 102.5 614.7 101.6 614.7 L101.6 620.85 Q104.4 624.5 109.05 628.2 111.85 630.45 118.6 635.05 124.85 639.3 129.35 643.85 132.85 646.35 143.35 646.35 L153.45 646.25 Q157.55 646.0 161.6 644.45 160.75 644.1 158.7 641.95 156.7 639.85 155.25 639.3 156.9 639.9 158.9 638.75 L160.5 637.5 M41.6 426.2 Q29.3 374.7 25.5 326.45 33.1 328.2 40.45 330.4 53.5 334.15 65.8 339.25 L57.05 338.8 56.05 338.8 Q45.8 338.9 41.55 340.7 35.55 343.25 35.55 350.6 35.55 353.4 37.55 360.05 39.55 366.65 39.55 370.2 39.55 371.45 38.95 372.4 L37.25 374.35 39.0 385.75 Q42.0 404.85 42.0 410.65 42.0 418.35 41.6 426.2 M90.05 142.95 L91.3 147.45 95.6 160.9 Q98.8 160.0 101.8 155.85 L103.75 152.8 104.1 152.95 Q104.1 165.1 101.9 171.25 98.1 181.8 95.6 196.95 L95.1 196.95 Q92.35 181.95 91.25 170.15 90.15 158.45 90.05 142.95" fill="#151515" fill-rule="evenodd" stroke="none"/>
      <path d="M30.9 73.05 L36.05 64.9 Q37.35 65.3 44.0 76.1 52.4 87.75 62.05 91.9 71.45 95.9 88.9 97.25 L93.4 97.5 100.3 97.75 107.0 97.65 112.55 97.0 Q129.65 97.95 136.8 90.55 142.6 84.55 143.1 70.9 L151.8 78.25 152.0 78.45 Q155.7 81.45 158.7 85.0 165.7 106.75 153.0 117.4 144.35 122.0 136.25 122.95 121.05 124.75 107.9 113.7 108.9 118.75 114.85 123.3 L123.6 129.45 Q125.8 132.0 126.45 133.35 L129.0 140.55 130.6 145.9 Q125.05 175.8 128.15 208.0 129.1 217.8 131.0 227.75 134.0 248.85 145.2 264.45 L145.85 268.3 147.1 275.5 Q147.1 278.05 145.25 280.5 143.6 282.65 144.1 284.95 L143.35 284.95 Q146.1 290.35 154.1 302.15 161.1 314.2 161.1 324.85 161.1 330.2 159.15 338.1 L153.6 361.05 Q153.45 362.65 150.5 374.2 L147.6 385.6 142.1 385.6 137.4 382.8 Q133.45 380.3 130.1 375.2 L130.1 378.55 121.65 371.65 Q111.8 363.95 101.25 357.35 L101.2 357.35 100.9 357.15 100.8 357.1 Q95.55 353.8 90.15 350.85 78.35 344.35 65.8 339.25 53.5 334.15 40.45 330.4 42.85 329.4 44.05 329.4 L44.05 328.95 Q39.35 326.25 34.1 324.15 28.8 322.1 27.55 321.35 L28.05 316.25 28.55 311.95 Q28.55 307.4 29.55 307.25 30.55 307.1 30.55 304.35 30.55 301.9 29.55 299.15 28.55 296.3 28.55 294.9 28.55 285.35 36.55 278.4 44.75 271.3 56.55 271.3 60.7 271.3 63.25 272.95 65.85 274.6 70.5 274.6 L70.55 274.15 Q68.0 272.5 54.8 269.35 43.5 266.75 42.55 263.75 46.75 261.55 47.55 260.85 L43.05 260.4 43.05 257.1 49.4 248.75 Q53.15 243.65 55.4 239.45 61.55 227.8 61.55 212.95 L61.25 208.0 60.45 200.15 Q63.35 162.25 51.4 129.25 54.4 123.65 57.05 122.55 59.25 121.7 70.9 117.55 78.75 114.15 82.55 110.25 63.65 122.35 47.8 120.15 40.3 119.1 33.5 114.9 21.35 103.9 23.35 86.55 23.85 82.1 25.3 77.3 28.1 76.25 30.45 73.6 L30.9 73.05 M104.1 152.95 L104.1 152.15 Q103.9 141.3 98.75 131.35 94.35 124.4 92.3 120.5 L91.35 127.75 Q90.05 136.35 90.05 139.45 L90.05 142.95 Q90.15 158.45 91.25 170.15 92.35 181.95 95.1 196.95 L95.6 196.95 Q98.1 181.8 101.9 171.25 104.1 165.1 104.1 152.95" fill="#8f0101" fill-rule="evenodd" stroke="none"/>
      <path d="M43.95 33.0 L43.45 33.0 43.4 32.8 43.45 32.8 Q43.7 32.75 43.95 33.0 M5.4 56.55 L4.95 56.45 4.95 56.4 5.4 56.55" fill="#333333" fill-rule="evenodd" stroke="none"/>
      <path d="M136.25 122.95 Q132.75 134.25 130.6 145.9 L129.0 140.55 126.45 133.35 Q125.8 132.0 123.6 129.45 L114.85 123.3 Q108.9 118.75 107.9 113.7 121.05 124.75 136.25 122.95 M145.2 264.45 L146.3 265.95 Q168.4 295.1 165.5 327.4 166.85 363.1 150.95 398.75 141.0 387.9 130.1 378.55 L130.1 375.2 Q133.45 380.3 137.4 382.8 L142.1 385.6 147.6 385.6 150.5 374.2 Q153.45 362.65 153.6 361.05 L159.15 338.1 Q161.1 330.2 161.1 324.85 161.1 314.2 154.1 302.15 146.1 290.35 143.35 284.95 L144.1 284.95 Q143.6 282.65 145.25 280.5 147.1 278.05 147.1 275.5 L145.85 268.3 145.2 264.45 M25.5 326.45 Q18.95 291.95 33.0 271.2 49.15 248.7 57.0 224.45 58.7 216.15 59.7 208.0 L60.45 200.15 61.25 208.0 61.55 212.95 Q61.55 227.8 55.4 239.45 53.15 243.65 49.4 248.75 L43.05 257.1 43.05 260.4 47.55 260.85 Q46.75 261.55 42.55 263.75 43.5 266.75 54.8 269.35 68.0 272.5 70.55 274.15 L70.5 274.6 Q65.85 274.6 63.25 272.95 60.7 271.3 56.55 271.3 44.75 271.3 36.55 278.4 28.55 285.35 28.55 294.9 28.55 296.3 29.55 299.15 30.55 301.9 30.55 304.35 30.55 307.1 29.55 307.25 28.55 307.4 28.55 311.95 L28.05 316.25 27.55 321.35 Q28.8 322.1 34.1 324.15 39.35 326.25 44.05 328.95 L44.05 329.4 Q42.85 329.4 40.45 330.4 33.1 328.2 25.5 326.45 M51.4 129.25 L47.8 120.15 Q63.65 122.35 82.55 110.25 78.75 114.15 70.9 117.55 59.25 121.7 57.05 122.55 54.4 123.65 51.4 129.25" fill="#5c0101" fill-rule="evenodd" stroke="none"/>
      <path d="M135.9 532.2 L137.1 540.95 Q140.1 562.55 140.1 567.45 140.1 580.7 131.75 586.15 129.1 587.85 123.35 589.45 123.9 585.65 124.95 581.95 133.1 556.7 135.9 532.2 M67.5 599.65 L51.7 598.15 37.0 596.25 Q28.6 596.25 19.8 602.6 L11.55 608.4 Q6.05 611.95 0.0 614.2 L0.0 609.45 Q4.7 602.8 12.5 569.9 20.15 535.45 22.0 529.2 31.1 499.3 35.85 474.0 40.45 449.4 41.6 426.2 45.85 443.95 51.15 462.1 L51.95 464.85 51.95 480.9 Q50.25 495.6 50.95 511.45 52.35 544.3 63.95 581.95 67.65 589.85 67.5 599.65 M94.25 357.6 L100.7 357.4 101.2 357.35 Q94.9 375.6 94.05 400.3 L93.0 357.6 94.25 357.6 M91.5 515.35 L91.5 495.05 97.5 495.05 91.5 515.35" fill="#8f0101" fill-opacity="0.7137255" fill-rule="evenodd" stroke="none"/>
      <path d="M90.15 350.85 Q95.55 353.8 100.8 357.1 L100.9 357.15 100.7 357.4 94.25 357.6 91.55 353.5 90.15 350.85" fill="#430101" fill-rule="evenodd" stroke="none"/>
      <path d="M96.5 458.65 L92.5 457.25 Q92.2 441.2 93.4 428.5 94.6 443.45 96.5 458.65" fill="#8f0101" fill-opacity="0.6117647" fill-rule="evenodd" stroke="none"/>
      <path d="M138.1 458.6 L135.95 468.65 135.95 481.85 Q137.7 497.0 137.3 512.5 L135.4 509.15 Q130.6 500.35 130.6 499.25 L131.6 495.3 Q132.6 491.5 132.6 489.55 132.6 485.3 131.35 481.15 L128.1 472.05 133.3 465.35 138.1 458.6 M51.15 462.1 L53.05 464.7 59.05 472.5 Q61.05 470.05 61.75 469.35 62.8 468.25 65.3 468.25 L68.15 468.55 Q68.7 468.95 69.05 472.05 66.6 472.25 61.0 475.7 55.05 479.4 55.05 481.55 55.05 482.15 55.8 485.45 56.55 488.75 56.55 491.45 56.55 492.4 53.55 499.6 51.6 505.45 50.95 511.45 50.25 495.6 51.95 480.9 L51.95 464.85 51.15 462.1" fill="#2b2b2b" fill-rule="evenodd" stroke="none"/>
      <path d="M21.55 361.0 Q22.55 360.05 22.55 359.1 L23.05 359.1" fill="none" stroke="#ff0000" stroke-linecap="round" stroke-linejoin="round" stroke-width="0.05"/>
    </g>
  </defs>
</svg>
