<?xml version="1.0" encoding="UTF-8" standalone="no"?>
<svg xmlns:xlink="http://www.w3.org/1999/xlink" height="15.5px" width="19.25px" xmlns="http://www.w3.org/2000/svg">
  <g transform="matrix(1.0, 0.0, 0.0, 1.0, 0.05, 0.0)">
    <use height="15.5" transform="matrix(1.0, 0.0, 0.0, 1.0, -0.05, 0.0)" width="19.25" xlink:href="#shape0"/>
  </g>
  <defs>
    <g id="shape0" transform="matrix(1.0, 0.0, 0.0, 1.0, 0.05, 0.0)">
      <path d="M17.2 5.5 Q18.35 5.75 18.65 5.95 19.2 6.3 19.2 7.9 19.2 9.25 16.35 11.5 13.8 13.5 13.2 13.5 L11.75 13.2 Q9.2 15.5 5.7 15.5 1.1 15.5 0.2 13.15 -0.25 11.95 0.2 10.5 0.2 5.55 3.75 3.65 5.5 2.7 15.95 0.0 L16.2 3.4 Q16.2 4.95 15.7 6.65 L15.9 6.55 17.2 5.5" fill="#000000" fill-rule="evenodd" stroke="none"/>
    </g>
  </defs>
</svg>
