<?xml version="1.0" encoding="UTF-8" standalone="no"?>
<svg xmlns:xlink="http://www.w3.org/1999/xlink" height="98.1px" width="119.45px" xmlns="http://www.w3.org/2000/svg">
  <g transform="matrix(1.0, 0.0, 0.0, 1.0, 59.7, 49.05)">
    <use height="98.1" transform="matrix(1.0, 0.0, 0.0, 1.0, -59.7, -49.05)" width="119.45" xlink:href="#shape0"/>
  </g>
  <defs>
    <g id="shape0" transform="matrix(1.0, 0.0, 0.0, 1.0, 59.7, 49.05)">
      <path d="M42.4 39.85 L42.45 39.85 42.45 39.9 42.4 39.85" fill="#1a1a1a" fill-rule="evenodd" stroke="none"/>
      <path d="M2.8 -33.0 L20.9 -35.5 Q39.35 -38.0 46.3 -38.0 53.35 -38.0 54.45 -31.05 54.85 -28.55 54.7 -23.95 L54.45 -16.0 Q54.45 -1.95 53.7 3.95 52.55 12.8 48.45 23.0 45.9 29.2 38.85 36.35 31.35 44.0 26.8 44.0 22.75 44.0 18.1 42.15 16.4 41.45 9.6 38.0 -2.25 32.0 -12.7 32.0 -14.75 32.0 -16.65 34.0 -18.55 36.0 -20.7 36.0 -22.7 36.0 -26.75 33.5 -30.8 31.0 -31.7 31.0 -34.65 31.0 -38.4 34.0 -42.15 37.0 -42.7 37.0 -43.7 35.0 -49.45 25.55 -54.7 15.2 -54.7 6.0 -54.7 2.45 -50.35 -16.45 -47.35 -29.4 -45.8 -34.75 L-45.3 -36.4 -41.0 -37.35 -35.7 -38.0 Q-34.4 -38.0 -31.8 -36.5 -29.2 -35.0 -26.7 -35.0 -25.65 -37.1 -21.1 -40.55 -16.55 -44.0 -14.7 -44.0 L-6.55 -38.5 Q1.6 -33.0 2.8 -33.0 M44.55 -28.4 L42.85 -27.85 Q34.4 -24.9 28.35 -15.95 25.6 -11.85 22.5 -5.25 L17.3 6.0 12.3 3.0 12.3 14.0 Q12.95 16.6 20.05 25.0 26.8 33.0 27.3 33.0 32.65 33.0 40.35 8.0 43.2 -1.2 45.3 -10.6 47.3 -19.35 47.3 -22.0 47.3 -24.0 46.5 -25.75 L45.3 -27.6 45.1 -28.55 44.55 -28.4 M-27.7 27.0 L-37.15 17.75 -42.65 11.8 Q-42.45 24.05 -41.7 31.0 L-35.6 29.0 Q-29.8 27.0 -27.7 27.0" fill="#4d4d4d" fill-rule="evenodd" stroke="none"/>
      <path d="M42.45 39.9 Q32.9 49.55 26.8 49.0 21.9 49.05 16.25 46.8 L16.2 46.8 7.35 42.45 Q-3.3 37.05 -12.7 37.0 L-13.0 37.45 Q-16.6 41.2 -20.7 41.0 -23.65 41.3 -29.35 37.75 -31.5 36.45 -31.7 36.0 -33.2 36.25 -35.25 37.9 -41.35 42.75 -42.7 42.0 -44.1 42.0 -45.3 41.25 -46.55 40.5 -47.15 39.25 -48.15 37.3 -53.7 28.15 L-53.9 27.8 Q-59.75 16.25 -59.7 6.0 -59.8 2.25 -55.2 -17.55 -52.2 -30.7 -50.6 -36.15 L-50.6 -36.2 -50.05 -37.95 Q-49.65 -39.2 -48.7 -40.05 -47.8 -40.9 -46.6 -41.25 L-41.85 -42.25 -41.9 -42.25 -35.7 -43.0 Q-33.5 -43.25 -29.3 -40.8 L-28.75 -40.55 Q-27.0 -42.35 -24.1 -44.5 -17.6 -49.5 -14.7 -49.0 -13.15 -49.0 -11.9 -48.15 L-3.75 -42.65 2.8 -38.0 20.2 -40.45 20.25 -40.45 Q39.15 -43.0 46.3 -43.0 57.65 -43.0 59.4 -31.8 L59.4 -31.85 Q59.85 -29.0 59.7 -23.75 L59.45 -16.0 Q59.45 -1.5 58.65 4.6 57.45 14.0 53.1 24.9 50.3 31.85 42.4 39.85 L42.45 39.9 M2.8 -33.0 Q1.6 -33.0 -6.55 -38.5 L-14.7 -44.0 Q-16.55 -44.0 -21.1 -40.55 -25.65 -37.1 -26.7 -35.0 -29.2 -35.0 -31.8 -36.5 -34.4 -38.0 -35.7 -38.0 L-41.0 -37.35 -45.3 -36.4 -45.8 -34.75 Q-47.35 -29.4 -50.35 -16.45 -54.7 2.45 -54.7 6.0 -54.7 15.2 -49.45 25.55 -43.7 35.0 -42.7 37.0 -42.15 37.0 -38.4 34.0 -34.65 31.0 -31.7 31.0 -30.8 31.0 -26.75 33.5 -22.7 36.0 -20.7 36.0 -18.55 36.0 -16.65 34.0 -14.75 32.0 -12.7 32.0 -2.25 32.0 9.6 38.0 16.4 41.45 18.1 42.15 22.75 44.0 26.8 44.0 31.35 44.0 38.85 36.35 45.9 29.2 48.45 23.0 52.55 12.8 53.7 3.95 54.45 -1.95 54.45 -16.0 L54.7 -23.95 Q54.85 -28.55 54.45 -31.05 53.35 -38.0 46.3 -38.0 39.35 -38.0 20.9 -35.5 L2.8 -33.0 M45.3 -27.6 L46.5 -25.75 Q47.3 -24.0 47.3 -22.0 47.3 -19.35 45.3 -10.6 43.2 -1.2 40.35 8.0 32.65 33.0 27.3 33.0 26.8 33.0 20.05 25.0 12.95 16.6 12.3 14.0 L12.3 3.0 17.3 6.0 22.5 -5.25 Q25.6 -11.85 28.35 -15.95 34.4 -24.9 42.85 -27.85 L44.55 -28.4 45.3 -27.6 M-27.7 27.0 Q-29.8 27.0 -35.6 29.0 L-41.7 31.0 Q-42.45 24.05 -42.65 11.8 L-37.15 17.75 -27.7 27.0" fill="#3c3c3c" fill-rule="evenodd" stroke="none"/>
    </g>
  </defs>
</svg>
