<?xml version="1.0" encoding="UTF-8" standalone="no"?>
<svg xmlns:xlink="http://www.w3.org/1999/xlink" height="53.5px" width="318.5px" xmlns="http://www.w3.org/2000/svg">
  <g transform="matrix(1.0, 0.0, 0.0, 1.0, 22.95, 26.75)">
    <use height="53.5" transform="matrix(1.0, 0.0, 0.0, 1.0, -22.95, -26.75)" width="45.85" xlink:href="#shape0"/>
    <use height="16.6" transform="matrix(1.0, 0.0, 0.0, 1.0, 44.5, -10.4)" width="251.05" xlink:href="#text0"/>
  </g>
  <defs>
    <g id="shape0" transform="matrix(1.0, 0.0, 0.0, 1.0, 22.95, 26.75)">
      <path d="M2.75 -15.5 L3.0 -15.0 3.0 -14.95 3.05 -14.7 3.1 -14.7 3.15 -14.6 3.6 -14.6 3.65 -14.5 3.7 -14.5 3.7 -14.45 3.8 -14.45 3.8 -14.35 3.85 -14.25 3.85 -14.15 3.95 -13.65 3.85 -13.55 3.85 -13.5 3.8 -13.45 3.7 -13.35 3.75 -13.3 3.8 -13.1 3.85 -13.05 3.95 -12.95 4.2 -12.95 4.4 -12.8 4.4 -12.75 4.45 -12.65 4.45 -12.6 4.55 -12.6 4.5 -12.45 4.6 -12.4 4.65 -12.35 4.55 -12.35 4.7 -11.85 4.7 -11.65 4.75 -11.65 4.8 -11.5 4.75 -11.45 4.8 -11.35 4.75 -11.1 4.75 -11.0 4.7 -10.85 4.75 -10.8 4.65 -10.8 4.65 -10.75 4.65 -10.5 4.6 -10.45 4.6 -10.4 4.5 -10.3 4.45 -10.25 4.45 -10.2 4.35 -10.1 4.3 -10.1 4.3 -10.0 4.2 -9.95 4.25 -9.9 4.2 -9.9 4.2 -9.85 4.0 -9.65 4.0 -9.6 3.95 -9.5 3.9 -9.5 3.7 -9.3 3.75 -9.25 3.6 -9.1 3.55 -9.05 3.25 -8.8 2.8 -8.4 2.2 -7.8 1.4 -7.1 1.05 -6.65 1.0 -6.6 0.5 -6.15 0.45 -6.15 -4.85 -1.5 -4.9 -1.45 -4.95 -1.35 -5.05 -1.3 -5.4 -0.95 -5.45 -0.9 -5.95 -0.6 -6.05 -0.45 -6.15 -0.45 -6.7 0.05 -6.65 0.1 -6.95 0.3 -7.0 0.4 -7.3 0.55 -7.7 0.9 -8.0 1.2 -8.05 1.2 -8.2 1.35 -8.25 1.35 -8.45 1.5 -8.55 1.5 Q-8.55 1.65 -8.65 1.55 L-9.0 1.85 -9.25 1.95 -9.4 2.05 -9.75 2.3 -9.8 2.3 -9.9 2.35 -10.0 2.4 -10.4 2.35 -10.45 2.4 -10.6 2.35 -10.65 2.4 Q-10.8 2.45 -10.9 2.3 L-10.95 2.35 -11.0 2.3 -11.15 2.35 -11.3 2.2 -11.45 2.1 -11.55 2.15 -11.7 2.1 -11.8 2.0 -11.95 1.95 -12.25 1.7 -12.15 1.65 -12.2 1.6 -12.3 1.6 -12.2 1.55 -12.25 1.45 -12.2 1.45 -12.25 1.25 -12.35 1.2 -12.45 1.25 -12.5 1.15 -12.55 1.15 -12.55 1.05 -12.6 1.1 Q-13.2 1.4 -13.7 0.7 L-13.75 0.45 -13.75 0.4 Q-14.1 0.15 -14.35 0.2 L-14.35 0.25 Q-14.65 -0.15 -15.1 -0.25 L-15.15 -0.2 -15.2 -0.25 -15.25 -0.45 Q-15.65 -1.0 -16.0 -0.65 L-16.05 -0.6 -16.1 -0.6 Q-17.2 -1.05 -18.15 -1.7 L-18.2 -1.75 -18.45 -1.9 -18.55 -1.95 -18.8 -2.15 -18.85 -2.2 -19.0 -2.2 -19.0 -2.3 -19.05 -2.3 -19.1 -2.3 -19.15 -2.45 -19.25 -2.45 -20.5 -3.65 -20.55 -3.6 -20.65 -3.65 -20.7 -3.7 -20.75 -3.7 -20.8 -3.8 -21.05 -4.05 -21.2 -4.15 -21.2 -4.1 -21.35 -4.2 -21.6 -4.4 -21.7 -4.4 -21.8 -4.45 -21.85 -4.65 -21.95 -5.0 -21.9 -5.05 -21.95 -5.1 -21.85 -5.1 -21.95 -5.15 -21.85 -5.3 -21.85 -5.35 -21.85 -5.4 -21.8 -5.45 -21.85 -5.45 -21.75 -5.6 -21.7 -5.65 -21.75 -5.65 -21.55 -5.75 -21.6 -5.8 -22.2 -6.35 -22.25 -6.5 -22.25 -6.6 -22.3 -6.85 -22.3 -6.9 -22.15 -6.95 -22.25 -6.95 -22.2 -7.0 -22.2 -7.1 Q-21.7 -7.5 -22.35 -7.85 L-22.35 -7.9 -22.45 -8.3 -22.45 -8.4 -22.4 -8.45 -22.45 -8.5 -22.35 -8.55 -22.4 -8.65 -22.35 -8.7 -22.35 -8.75 -21.95 -9.2 -21.85 -9.2 Q-22.4 -9.55 -22.4 -9.95 L-22.45 -10.0 -22.35 -10.5 -21.8 -10.9 -22.25 -11.6 -22.3 -11.65 -22.35 -11.7 -22.2 -12.05 -22.2 -12.15 -22.25 -12.1 -21.65 -12.7 -21.7 -12.85 Q-22.35 -13.4 -21.9 -14.0 L-21.25 -14.4 -21.2 -14.5 Q-21.85 -15.0 -21.5 -15.75 L-20.95 -16.2 -20.85 -16.2 Q-21.3 -16.85 -20.85 -17.4 L-20.8 -17.45 -20.85 -17.45 -20.65 -17.6 Q-19.8 -18.05 -19.3 -17.2 L-18.95 -17.8 -18.15 -18.95 -18.05 -18.95 -18.1 -19.05 -18.2 -19.1 -19.35 -19.4 -19.4 -19.45 -19.9 -20.1 Q-20.4 -21.15 -20.05 -22.1 L-20.1 -22.2 Q-20.05 -22.55 -20.35 -23.05 L-20.3 -22.95 -20.85 -21.65 -20.9 -21.6 -22.9 -23.8 -22.85 -23.8 -22.8 -23.7 -21.3 -24.15 -22.75 -24.7 -22.8 -24.8 -22.95 -24.75 -22.95 -24.8 -21.35 -26.2 -20.65 -26.75 -20.65 -26.6 -20.6 -26.15 -20.3 -25.15 -20.25 -25.1 -20.05 -25.4 -20.1 -25.45 -20.05 -25.55 -19.95 -25.6 -20.1 -25.6 -20.0 -25.65 -20.0 -25.7 -19.95 -25.7 -20.0 -25.8 -19.95 -25.85 -19.95 -25.9 -19.9 -25.95 -19.9 -26.05 -19.85 -26.1 -19.9 -26.15 -19.85 -26.15 -19.85 -26.2 -19.75 -26.25 -19.8 -26.4 -19.75 -26.4 -19.8 -26.45 -19.65 -26.5 -19.05 -25.75 -17.85 -24.5 -17.8 -24.35 -17.75 -24.3 -17.85 -24.25 -17.95 -24.25 -17.95 -24.3 -18.0 -24.25 -18.25 -24.15 -18.4 -24.15 -18.45 -24.1 -18.55 -24.2 -19.2 -23.85 -18.45 -23.55 -18.35 -23.6 -17.75 -23.65 -17.5 -23.6 -16.6 -23.2 -16.55 -23.1 -15.9 -22.45 Q-15.65 -21.9 -15.7 -21.4 L-15.7 -21.3 -15.1 -21.65 -13.55 -22.3 -13.6 -22.4 -13.7 -22.4 -13.8 -22.45 -13.85 -22.55 Q-14.2 -23.05 -13.8 -23.6 L-13.8 -23.65 -13.75 -23.7 -13.75 -23.8 -13.55 -23.9 -13.4 -23.95 -13.3 -24.0 -13.15 -24.05 -13.15 -24.0 -13.0 -24.05 -13.0 -23.95 -12.55 -23.9 -12.4 -23.9 Q-12.3 -23.85 -12.25 -23.95 L-12.2 -23.95 -11.55 -24.4 -11.45 -24.4 -11.35 -24.35 -10.8 -24.2 -10.55 -24.0 -10.5 -24.05 -10.4 -24.15 -10.15 -24.5 -10.05 -24.6 -10.0 -24.55 Q-9.35 -24.75 -8.9 -24.2 L-8.9 -24.15 -8.85 -24.15 -8.8 -24.05 -8.75 -24.2 Q-8.45 -24.65 -7.95 -24.6 L-7.9 -24.65 -7.85 -24.65 -7.7 -24.6 -7.65 -24.65 -7.65 -24.6 -7.55 -24.5 -7.0 -24.2 -6.95 -24.25 -6.7 -24.5 -5.95 -24.55 -5.9 -24.55 -5.25 -24.05 -5.15 -24.1 -4.9 -24.3 -4.3 -24.4 -4.25 -24.35 -3.5 -23.8 Q-2.5 -24.45 -2.0 -23.35 L-1.95 -23.3 -1.35 -23.45 -1.25 -23.5 Q-0.3 -23.35 -0.4 -22.45 L-0.35 -22.35 -0.15 -22.2 -0.05 -22.0 1.8 -18.85 2.45 -17.05 2.35 -16.9 Q1.95 -16.75 2.45 -16.3 L2.75 -15.55 2.75 -15.5 M-16.15 -15.5 L-15.35 -15.55 -15.3 -15.45 -15.25 -15.5 Q-16.65 -16.8 -18.05 -17.25 L-18.05 -17.1 -18.35 -16.45 -18.8 -15.5 -19.2 -14.05 Q-19.65 -12.25 -19.7 -10.45 L-19.7 -10.4 -19.5 -10.45 -19.45 -10.5 -19.4 -10.55 -19.25 -10.7 -19.2 -10.7 -19.05 -10.85 -19.1 -10.9 -19.05 -10.95 Q-18.9 -11.65 -18.4 -12.15 L-18.4 -12.3 -18.45 -12.3 -18.25 -12.45 -18.2 -12.4 -17.65 -12.7 -17.6 -12.75 -17.5 -12.9 -17.45 -12.8 -17.2 -13.05 -16.95 -13.3 -16.9 -13.35 Q-16.55 -14.2 -16.45 -15.15 L-16.45 -15.2 -16.4 -15.2 -16.45 -15.25 -16.25 -15.45 -16.15 -15.5 M-9.25 -21.4 L-9.15 -21.45 Q-8.55 -21.9 -7.95 -21.95 -10.35 -22.1 -12.9 -21.3 L-13.85 -21.0 -13.55 -19.9 -12.7 -18.3 -12.45 -18.0 -12.35 -17.95 Q-11.85 -18.65 -11.7 -19.4 L-11.7 -19.45 -11.15 -19.75 -11.1 -19.8 Q-10.85 -19.75 -10.55 -19.95 L-10.35 -20.05 Q-10.3 -20.05 -10.15 -20.15 L-10.1 -20.2 -10.15 -20.25 -10.1 -20.35 -9.65 -20.95 -9.6 -21.0 -9.65 -21.05 Q-9.55 -21.05 -9.55 -21.1 L-9.3 -21.35 -9.25 -21.4" fill="#000000" fill-opacity="0.3019608" fill-rule="evenodd" stroke="none"/>
      <path d="M6.55 -11.7 L6.5 -11.9 6.5 -11.95 9.05 -12.2 Q11.85 -11.95 12.75 -9.4 L18.05 5.1 Q19.2 8.5 14.7 10.2 19.3 8.85 20.6 12.05 L22.9 18.4 12.05 22.4 9.15 14.3 7.95 14.75 10.9 22.8 0.05 26.75 -8.55 3.15 -8.3 2.95 -8.25 2.95 -7.8 2.55 -7.75 2.55 -7.4 2.3 -7.35 2.2 -7.05 1.95 -7.0 1.95 -6.35 1.35 -6.25 1.25 -6.15 1.2 -5.6 0.8 -5.55 0.75 -5.1 0.25 -5.05 0.25 -4.95 0.15 -4.85 0.1 0.8 -4.9 6.45 10.6 7.65 10.15 1.8 -5.85 2.0 -6.05 2.05 -6.05 2.55 -6.5 2.5 -6.6 3.45 -7.4 3.55 -7.45 4.15 -8.1 4.65 -8.6 4.7 -8.6 5.05 -8.85 5.15 -8.95 5.25 -9.15 5.5 -9.4 5.55 -9.4 5.7 -9.5 5.65 -9.6 5.8 -9.8 5.85 -9.9 6.0 -9.95 5.95 -10.0 5.95 -10.05 6.05 -10.1 6.15 -10.2 6.15 -10.4 6.3 -10.45 6.3 -10.6 6.35 -10.6 6.45 -10.85 6.4 -10.9 6.45 -11.0 6.4 -11.1 6.5 -11.25 6.45 -11.4 6.45 -11.5 6.45 -11.6 6.55 -11.7" fill="#000000" fill-rule="evenodd" stroke="none"/>
    </g>
  </defs>
</svg>
