<?xml version="1.0" encoding="UTF-8" standalone="no"?>
<svg xmlns:xlink="http://www.w3.org/1999/xlink" height="795.55px" width="789.45px" xmlns="http://www.w3.org/2000/svg">
  <g transform="matrix(1.0, 0.0, 0.0, 1.0, 311.2, 279.0)">
    <use height="317.55" transform="matrix(2.3548, 0.0, 0.0, 2.3548, -281.45, -251.2)" width="315.1" xlink:href="#sprite0"/>
  </g>
  <defs>
    <g id="sprite0" transform="matrix(1.0, 0.0, 0.0, 1.0, 0.0, 0.0)">
      <use height="251.1" transform="matrix(1.0, 0.0, 0.0, 1.0, 25.1, 48.0)" width="251.1" xlink:href="#sprite1"/>
      <use height="251.1" transform="matrix(1.0434, -0.7752, 0.2115, 0.2847, 0.0, 246.05)" width="251.1" xlink:href="#sprite1"/>
      <use height="251.1" transform="matrix(0.7215, 0.3451, -0.0942, 0.1969, 33.8, 70.15)" width="251.1" xlink:href="#sprite1"/>
      <use height="251.1" transform="matrix(0.1666, 0.7801, -0.2129, 0.0455, 172.7, 0.0)" width="251.1" xlink:href="#sprite1"/>
    </g>
    <g id="sprite1" transform="matrix(1.0, 0.0, 0.0, 1.0, 0.0, 0.0)">
      <use height="251.1" transform="matrix(1.0, 0.0, 0.0, 1.0, 0.0, 0.0)" width="251.1" xlink:href="#shape0"/>
    </g>
    <g id="shape0" transform="matrix(1.0, 0.0, 0.0, 1.0, 0.0, 0.0)">
      <path d="M214.3 36.75 Q251.1 73.55 251.1 125.55 251.1 177.55 214.3 214.3 177.55 251.1 125.55 251.1 73.55 251.1 36.75 214.3 0.0 177.55 0.0 125.55 0.0 73.55 36.75 36.75 73.55 0.0 125.55 0.0 177.55 0.0 214.3 36.75" fill="url(#gradient0)" fill-rule="evenodd" stroke="none"/>
    </g>
    <radialGradient cx="0" cy="0" gradientTransform="matrix(0.1547, 0.0, 0.0, 0.1547, 125.55, 125.55)" gradientUnits="userSpaceOnUse" id="gradient0" r="819.2" spreadMethod="pad">
      <stop offset="0.25882352941176473" stop-color="#ffffff" stop-opacity="0.6313726"/>
      <stop offset="0.5490196078431373" stop-color="#ffffff" stop-opacity="0.34901962"/>
      <stop offset="0.8823529411764706" stop-color="#ffffff" stop-opacity="0.0"/>
    </radialGradient>
  </defs>
</svg>
