<?xml version="1.0" encoding="UTF-8" standalone="no"?>
<svg xmlns:xlink="http://www.w3.org/1999/xlink" height="10.95px" width="324.45px" xmlns="http://www.w3.org/2000/svg">
  <g transform="matrix(1.0, 0.0, 0.0, 1.0, 108.15, 5.3)">
    <use height="4.0" transform="matrix(1.0, 0.0, 0.0, 1.0, 0.0, 0.0)" width="216.3" xlink:href="#shape0"/>
    <use height="4.0" transform="matrix(0.7501, 0.0, 0.0, 1.0, 0.0, 0.0)" width="216.3" xlink:href="#sprite0"/>
    <use height="10.95" transform="matrix(1.0, 0.0, 0.0, 1.0, -108.15, -5.3)" width="324.45" xlink:href="#sprite1"/>
  </g>
  <defs>
    <g id="shape0" transform="matrix(1.0, 0.0, 0.0, 1.0, 0.0, 0.0)">
      <path d="M216.3 4.0 L0.0 4.0 0.0 0.0 216.3 0.0 216.3 4.0" fill="#000000" fill-opacity="0.14117648" fill-rule="evenodd" stroke="none"/>
    </g>
    <g id="sprite0" transform="matrix(1.0, 0.0, 0.0, 1.0, 0.0, 0.0)">
      <use height="4.0" transform="matrix(1.0, 0.0, 0.0, 1.0, 0.0, 0.0)" width="216.3" xlink:href="#shape1"/>
    </g>
    <g id="shape1" transform="matrix(1.0, 0.0, 0.0, 1.0, 108.15, 2.0)">
      <path d="M108.15 2.0 L-108.15 2.0 -108.15 -2.0 108.15 -2.0 108.15 2.0" fill="#cc3300" fill-rule="evenodd" stroke="none"/>
    </g>
    <g id="sprite1" transform="matrix(1.0, 0.0, 0.0, 1.0, 109.25, 7.3)">
      <use height="21.95" transform="matrix(0.2727, 0.0, 0.0, 0.1822, -1.1182, -2.0046)" width="8.25" xlink:href="#shape2"/>
    </g>
    <g id="shape2" transform="matrix(1.0, 0.0, 0.0, 1.0, 4.1, 11.0)">
      <path d="M4.15 -10.75 L3.35 10.95 -4.1 10.7 -3.3 -11.0 4.15 -10.75" fill="#010101" fill-opacity="0.0" fill-rule="evenodd" stroke="none"/>
    </g>
  </defs>
</svg>
