<?xml version="1.0" encoding="UTF-8" standalone="no"?>
<svg xmlns:xlink="http://www.w3.org/1999/xlink" height="11.5px" width="41.95px" xmlns="http://www.w3.org/2000/svg">
  <g transform="matrix(1.0, 0.0, 0.0, 1.0, 0.0, 0.0)">
    <use height="11.5" transform="matrix(1.0, 0.0, 0.0, 1.0, 0.0, 0.0)" width="41.95" xlink:href="#shape0"/>
  </g>
  <defs>
    <g id="shape0" transform="matrix(1.0, 0.0, 0.0, 1.0, 0.0, 0.0)">
      <path d="M3.45 0.3 L3.6 0.35 3.85 0.25 Q7.4 -0.9 25.95 3.0 L30.65 3.45 31.55 3.5 32.75 3.55 32.9 3.5 33.6 2.5 33.85 2.35 34.75 1.05 34.8 0.95 34.85 1.0 Q35.45 0.45 35.95 0.35 L36.0 0.95 37.15 0.7 Q37.55 0.9 38.0 0.7 L39.1 0.6 40.4 0.55 41.15 0.6 41.65 1.15 41.95 2.75 41.85 4.05 41.85 4.1 Q41.35 4.4 41.35 4.5 L41.5 5.4 41.7 6.55 41.1 7.35 Q40.55 7.85 40.5 8.2 L40.35 9.25 39.55 10.2 38.1 11.2 36.6 11.5 Q35.4 11.3 34.65 10.9 L33.95 10.4 32.9 9.7 32.6 9.6 31.3 9.6 Q30.95 9.35 30.55 9.25 L30.3 9.15 Q5.0 8.95 2.85 7.8 L2.4 7.9 2.25 7.75 Q0.0 5.65 0.0 3.4 0.0 1.25 1.7 0.7 L2.2 0.55 2.55 0.5 3.45 0.3" fill="#000000" fill-rule="evenodd" stroke="none"/>
      <path d="M31.3 9.6 L3.8 8.35 3.05 8.5 2.4 7.9 2.85 7.8 Q5.0 8.95 30.3 9.15 L30.55 9.25 Q30.95 9.35 31.3 9.6 M2.2 0.55 L2.95 0.1 3.45 0.3 2.55 0.5 2.2 0.55" fill="#1a1a1a" fill-rule="evenodd" stroke="none"/>
    </g>
  </defs>
</svg>
