<?xml version="1.0" encoding="UTF-8" standalone="no"?>
<svg xmlns:xlink="http://www.w3.org/1999/xlink" height="139.2px" width="653.4px" xmlns="http://www.w3.org/2000/svg">
  <g transform="matrix(1.0, 0.0, 0.0, 1.0, 307.4, 67.3)">
    <use height="74.85" transform="matrix(0.7862, 0.0, 0.0, 0.7862, -129.9629, -28.4613)" width="351.35" xlink:href="#sprite0"/>
  </g>
  <defs>
    <g id="sprite0" transform="matrix(1.0, 0.0, 0.0, 1.0, 165.3, 36.2)">
      <use height="102.75" transform="matrix(0.7285, 0.0, 0.0, 0.7285, -165.2947, -36.1917)" width="482.3" xlink:href="#text0"/>
    </g>
    <g id="text0" transform="matrix(1.0, 0.0, 0.0, 1.0, 154.9, -14.15)">
      <g transform="matrix(1.0, 0.0, 0.0, 1.0, -154.55, 0.0)">
        <use fill="#c10202" height="102.75" transform="matrix(0.0928, 0.0, 0.0, 0.0928, 0.0, 86.0)" width="482.3" xlink:href="#font_Angelic_War_G0"/>
        <use fill="#c10202" height="102.75" transform="matrix(0.0928, 0.0, 0.0, 0.0928, 38.8, 86.0)" width="482.3" xlink:href="#font_Angelic_War_a0"/>
        <use fill="#c10202" height="102.75" transform="matrix(0.0928, 0.0, 0.0, 0.0928, 73.05, 86.0)" width="482.3" xlink:href="#font_Angelic_War_m0"/>
        <use fill="#c10202" height="102.75" transform="matrix(0.0928, 0.0, 0.0, 0.0928, 139.3, 86.0)" width="482.3" xlink:href="#font_Angelic_War_e0"/>
      </g>
      <g transform="matrix(1.0, 0.0, 0.0, 1.0, -154.55, 0.0)">
        <use fill="#000000" height="102.75" transform="matrix(0.0928, 0.0, 0.0, 0.0928, 270.05, 86.0)" width="482.3" xlink:href="#font_Angelic_War_s0"/>
        <use fill="#000000" height="102.75" transform="matrix(0.0928, 0.0, 0.0, 0.0928, 299.25, 86.0)" width="482.3" xlink:href="#font_Angelic_War_a0"/>
        <use fill="#000000" height="102.75" transform="matrix(0.0928, 0.0, 0.0, 0.0928, 333.5, 86.0)" width="482.3" xlink:href="#font_Angelic_War_v0"/>
        <use fill="#000000" height="102.75" transform="matrix(0.0928, 0.0, 0.0, 0.0928, 374.05, 86.0)" width="482.3" xlink:href="#font_Angelic_War_e0"/>
        <use fill="#000000" height="102.75" transform="matrix(0.0928, 0.0, 0.0, 0.0928, 410.6, 86.0)" width="482.3" xlink:href="#font_Angelic_War_d0"/>
      </g>
    </g>
    <g id="font_Angelic_War_G0">
      <path d="M295.0 236.0 L292.0 245.0 301.0 245.0 298.0 236.0 295.0 236.0 M276.5 150.5 L276.5 150.5 Q241.0 159.5 203.0 159.5 203.0 176.0 221.5 190.5 L224.5 190.5 283.0 184.5 286.0 184.5 276.5 150.5 M371.5 83.0 L374.5 83.0 380.5 89.0 380.5 92.0 371.5 89.0 371.5 83.0 M399.5 68.0 L402.5 68.0 411.5 77.0 408.5 77.0 399.5 68.0 M185.0 46.5 L160.0 99.0 Q153.5 150.5 142.0 150.5 L154.0 162.5 Q167.0 193.5 185.0 193.5 L203.0 193.5 182.0 156.5 160.0 156.5 Q160.0 124.5 191.0 55.5 191.0 46.5 185.0 46.5 M191.0 34.5 L188.0 43.5 191.0 43.5 194.0 46.5 197.0 46.5 200.0 37.5 200.0 34.5 191.0 34.5 M279.5 15.5 L279.5 22.5 289.0 31.5 Q287.0 15.5 279.5 15.5 M209.5 9.5 L209.5 9.5 Q203.0 11.0 197.0 25.5 197.0 34.5 203.0 34.5 L212.5 12.5 209.5 9.5 M26.0 9.5 L26.0 9.5 Q-5.0 34.5 -5.0 77.0 L4.0 123.0 Q53.0 190.5 145.0 190.5 L145.0 212.0 Q155.0 303.5 212.5 303.5 L239.5 303.5 Q266.5 303.5 301.0 258.0 L295.0 252.0 286.0 252.0 Q262.0 297.5 224.5 297.5 168.5 297.5 154.0 202.5 L154.0 190.5 163.0 190.5 Q163.0 178.5 133.0 147.5 71.5 120.5 71.5 77.0 L29.0 9.5 26.0 9.5 M102.5 3.5 L102.5 6.5 108.5 6.5 108.5 3.5 102.5 3.5 102.5 0.5 96.5 0.5 96.5 3.5 102.5 3.5 M350.0 -2.5 L356.0 -2.5 Q365.5 -2.5 365.5 3.5 L350.0 0.5 350.0 -2.5 M270.5 -5.5 L267.5 -5.5 264.5 -2.5 270.5 19.5 273.5 19.5 273.5 15.5 270.5 -5.5 M68.5 -14.5 L35.0 0.5 35.0 3.5 Q35.0 14.0 71.5 68.0 L74.5 68.0 Q74.5 35.0 102.5 9.5 L62.5 0.5 62.5 -5.5 86.5 0.5 89.5 0.5 Q89.5 -4.0 68.5 -14.5 M359.5 -17.5 L365.5 -17.5 365.5 -14.5 359.5 -14.5 359.5 -17.5 M371.5 -21.0 L383.5 -21.0 383.5 -17.5 371.5 -17.5 371.5 -21.0 M139.0 -42.0 L145.0 -42.0 145.0 -36.0 148.0 -39.0 157.0 -39.0 157.0 -36.0 Q148.0 -36.0 148.0 -30.0 L142.0 -30.0 139.0 -42.0 M136.0 -61.0 L136.0 -61.0 Q154.0 -53.5 154.0 -48.0 136.0 -51.0 136.0 -57.0 L136.0 -61.0 M44.0 -106.5 L44.0 -106.5 Q44.0 -79.0 59.5 -67.0 L62.5 -76.0 Q59.0 -106.5 50.0 -106.5 L44.0 -106.5 M44.0 -121.5 L44.0 -118.5 Q44.0 -109.5 50.0 -109.5 L47.0 -121.5 44.0 -121.5 M105.5 -133.5 L105.5 -133.5 Q105.5 -155.5 130.0 -167.5 L179.0 -94.0 179.0 -91.0 Q125.0 -91.0 93.5 -130.5 L96.5 -130.5 105.5 -124.5 108.5 -124.5 105.5 -133.5 M239.5 -217.0 L246.5 -217.0 246.5 -207.0 243.5 -204.0 246.5 -201.0 246.5 -195.0 239.5 -195.0 236.5 -198.0 239.5 -217.0 M252.5 -214.0 L258.5 -220.0 258.5 -214.0 252.5 -214.0 M65.5 -238.0 L65.5 -238.0 Q65.5 -243.0 80.5 -247.0 L114.5 -244.0 114.5 -241.0 65.5 -238.0 M261.5 -265.5 L258.5 -265.5 Q256.0 -244.0 249.5 -244.0 L258.5 -229.0 258.5 -223.0 255.5 -223.0 252.5 -226.0 Q252.5 -235.0 246.5 -235.0 L246.5 -226.0 243.5 -229.0 Q216.5 -204.0 194.0 -204.0 L170.0 -204.0 Q182.5 -185.5 209.5 -174.0 263.0 -174.0 326.0 -235.0 L326.0 -238.0 261.5 -265.5 M89.5 -265.5 L105.5 -256.5 105.5 -253.5 89.5 -262.5 89.5 -265.5 M99.5 -283.5 L99.5 -280.5 108.5 -271.5 111.5 -271.5 111.5 -280.5 102.5 -283.5 99.5 -283.5 M47.0 -296.5 L74.5 -277.5 74.5 -274.5 47.0 -290.5 47.0 -296.5 M89.5 -330.0 L96.5 -330.0 96.5 -317.5 93.5 -317.5 89.5 -330.0 M236.5 -336.0 L236.5 -336.0 Q236.5 -313.5 224.5 -293.5 L233.5 -290.5 Q239.0 -290.5 243.5 -308.5 L239.5 -308.5 246.5 -327.0 246.5 -336.0 236.5 -336.0 M35.0 -379.0 L35.0 -379.0 Q23.0 -357.0 23.0 -323.5 L23.0 -314.5 38.0 -302.5 41.0 -302.5 35.0 -280.5 29.0 -280.5 32.0 -290.5 32.0 -293.5 29.0 -296.5 29.0 -299.5 32.0 -302.5 23.0 -305.5 Q29.5 -253.5 41.0 -253.5 41.0 -229.0 99.5 -217.0 L99.5 -210.0 80.5 -217.0 74.5 -217.0 111.5 -189.0 Q62.5 -160.0 56.5 -143.5 L74.5 -82.0 74.5 -79.0 68.5 -54.0 123.5 -24.0 80.5 -17.5 Q80.5 -12.0 114.5 0.5 158.5 -14.5 179.0 -14.5 L197.0 -14.5 218.5 -11.5 Q214.0 0.5 209.5 0.5 L212.5 12.5 215.5 12.5 227.5 -11.5 160.0 -33.0 160.0 -36.0 163.0 -36.0 Q206.5 -25.0 206.5 -21.0 245.5 -21.0 270.5 37.5 L273.5 37.5 273.5 25.5 258.5 0.5 270.5 -11.5 Q263.5 -38.5 255.5 -48.0 L255.5 -54.0 258.5 -57.0 344.0 -48.0 350.0 -54.0 362.5 -51.0 362.5 -42.0 270.5 -51.0 267.5 -51.0 273.5 -21.0 Q273.5 -8.5 298.0 -8.5 L341.0 -36.0 344.0 -36.0 341.0 -33.0 347.0 -14.5 344.0 -14.5 Q338.0 -14.5 338.0 -27.0 320.0 -19.5 307.0 -5.5 353.0 8.0 353.0 55.5 353.0 97.5 326.0 123.0 L320.0 86.0 Q296.0 31.5 279.5 31.5 L279.5 43.5 Q310.0 114.5 310.0 129.0 310.0 143.0 283.0 147.5 L295.0 181.5 310.0 178.5 313.0 178.5 304.0 224.0 307.0 233.0 Q315.5 233.0 326.0 172.5 423.5 130.5 423.5 43.5 L423.5 34.5 Q423.5 8.0 417.5 -5.5 L399.5 9.5 383.5 6.5 Q383.5 -1.0 414.5 -11.5 406.0 -31.5 386.5 -51.0 355.0 -91.0 221.5 -91.0 206.5 -91.0 160.0 -170.5 L170.0 -174.0 170.0 -177.0 Q157.0 -177.0 157.0 -186.0 L157.0 -189.0 179.0 -174.0 191.0 -174.0 Q120.5 -241.5 120.5 -250.5 120.5 -256.0 80.5 -277.5 L80.5 -280.5 86.5 -280.5 Q83.5 -298.5 77.5 -299.5 L71.5 -305.5 Q99.5 -295.0 99.5 -287.5 L108.5 -290.5 108.5 -330.0 111.5 -351.0 80.5 -360.0 Q80.5 -351.0 74.5 -351.0 L74.5 -354.0 Q74.5 -368.5 35.0 -379.0 M163.0 -400.0 L163.0 -400.0 Q149.5 -400.0 123.5 -385.0 L123.5 -382.0 133.0 -379.0 Q155.0 -394.0 166.0 -394.0 L173.0 -394.0 Q239.5 -394.0 239.5 -342.0 L246.5 -342.0 246.5 -345.0 Q246.5 -394.5 179.0 -400.0 L163.0 -400.0 M62.5 -403.5 L56.5 -394.0 56.5 -388.0 117.5 -360.0 126.5 -370.0 Q126.5 -375.0 111.5 -379.0 L111.5 -376.0 62.5 -403.5 M301.0 -406.5 L307.0 -412.5 310.0 -412.5 310.0 -403.5 301.0 -400.0 301.0 -406.5 M264.5 -421.5 L286.0 -412.5 286.0 -406.5 264.5 -415.5 264.5 -421.5 M224.5 -455.5 L233.5 -446.5 236.5 -455.5 224.5 -455.5 M145.0 -455.5 L145.0 -455.5 Q68.5 -439.0 68.5 -406.5 L117.5 -385.0 Q145.0 -427.5 176.0 -427.5 L148.0 -455.5 145.0 -455.5 M151.0 -458.5 L179.0 -430.5 Q214.0 -430.5 243.5 -403.5 255.5 -367.0 286.0 -367.0 L286.0 -364.0 283.0 -364.0 261.5 -370.0 258.5 -370.0 261.5 -367.0 Q261.5 -339.0 279.5 -339.0 L292.0 -342.0 304.0 -342.0 329.0 -336.0 329.0 -333.0 326.0 -333.0 292.0 -336.0 283.0 -333.0 283.0 -336.0 267.5 -333.0 267.5 -299.5 283.0 -296.5 286.0 -296.5 286.0 -299.5 273.5 -317.5 292.0 -311.5 283.0 -280.5 273.5 -280.5 273.5 -283.5 283.0 -287.5 Q283.0 -292.5 267.5 -296.5 L267.5 -293.5 264.5 -290.5 264.5 -280.5 270.5 -280.5 270.5 -277.5 Q261.5 -277.5 261.5 -271.5 L332.0 -244.0 335.0 -253.5 326.0 -256.5 326.0 -262.5 338.0 -262.5 341.0 -259.5 347.0 -290.5 347.0 -293.5 341.0 -293.5 Q341.0 -299.5 350.0 -299.5 L350.0 -320.5 Q350.0 -339.0 335.0 -348.0 L344.0 -345.0 347.0 -345.0 Q336.5 -376.5 320.0 -400.0 L320.0 -403.5 425.5 -403.5 425.5 -406.5 422.5 -418.5 425.5 -430.5 425.5 -446.5 279.5 -446.5 243.5 -452.5 239.5 -443.5 Q251.5 -424.5 261.5 -424.5 L261.5 -421.5 258.5 -421.5 Q233.5 -431.5 233.5 -443.5 219.5 -443.5 215.5 -455.5 L221.5 -455.5 221.5 -458.5 151.0 -458.5" fill-rule="evenodd" stroke="none"/>
    </g>
    <g id="font_Angelic_War_a0">
      <path d="M85.0 -13.5 L94.0 -13.5 94.0 -10.5 85.0 -10.5 85.0 -13.5 M301.0 -16.5 L307.0 -10.5 307.0 -7.5 301.0 -13.5 301.0 -16.5 M367.0 -19.5 L370.0 -19.5 Q379.0 -19.5 385.0 -7.5 L382.0 -7.5 367.0 -16.5 367.0 -19.5 M397.0 -22.5 L400.0 -22.5 400.0 -16.5 397.0 -16.5 397.0 -22.5 M289.0 -31.5 L295.0 -31.5 289.0 -25.5 289.0 -31.5 M217.0 -58.5 L223.0 -58.5 223.0 -52.5 217.0 -58.5 M289.0 -61.5 L295.0 -61.5 298.0 -52.5 292.0 -52.5 289.0 -61.5 M322.0 -70.5 L328.0 -70.5 328.0 -67.5 322.0 -67.5 322.0 -70.5 M271.0 -76.5 L274.0 -76.5 280.0 -70.5 280.0 -67.5 274.0 -67.5 271.0 -70.5 271.0 -76.5 M307.0 -73.5 L313.0 -79.5 316.0 -79.5 316.0 -73.5 313.0 -70.5 310.0 -70.5 307.0 -73.5 M271.0 -94.5 L274.0 -94.5 274.0 -88.5 271.0 -88.5 271.0 -94.5 M-2.0 -124.5 L-2.0 -82.5 7.0 -82.5 7.0 -79.5 1.0 -73.5 Q1.0 -61.0 22.0 -31.5 L25.0 -34.5 82.0 -28.5 85.0 -31.5 Q85.0 -28.0 103.0 -25.5 L103.0 -28.5 124.0 -49.5 Q102.5 -49.5 85.0 -94.5 85.0 -106.5 -2.0 -124.5 M277.0 -121.5 L283.0 -127.5 283.0 -121.5 277.0 -121.5 M49.0 -175.5 L55.0 -175.5 55.0 -169.5 49.0 -169.5 49.0 -175.5 M292.0 -172.5 L298.0 -178.5 298.0 -172.5 292.0 -172.5 M28.0 -181.5 L31.0 -181.5 34.0 -178.5 28.0 -172.5 25.0 -172.5 25.0 -178.5 28.0 -181.5 M64.0 -214.5 L64.0 -214.5 Q64.0 -193.5 55.0 -193.5 L52.0 -193.5 55.0 -202.5 55.0 -205.5 52.0 -205.5 Q16.0 -185.5 1.0 -139.5 8.0 -127.0 85.0 -106.5 L85.0 -115.5 Q85.0 -142.0 97.0 -163.5 L94.0 -163.5 91.0 -166.5 88.0 -166.5 91.0 -175.5 91.0 -178.5 85.0 -178.5 Q85.0 -185.5 100.0 -187.5 L103.0 -187.5 94.0 -169.5 100.0 -169.5 136.0 -202.5 70.0 -214.5 64.0 -214.5 M268.0 -217.5 L277.0 -214.5 277.0 -211.5 274.0 -208.5 268.0 -214.5 268.0 -217.5 M169.0 -238.5 L178.0 -241.5 187.0 -238.5 187.0 -232.5 169.0 -235.5 169.0 -238.5 M163.0 -244.5 L163.0 -247.5 109.0 -232.5 109.0 -229.5 112.0 -226.5 112.0 -223.5 97.0 -226.5 85.0 -223.5 85.0 -220.5 88.0 -220.5 97.0 -223.5 Q97.0 -208.5 148.0 -208.5 L163.0 -244.5 M181.0 -250.5 L187.0 -250.5 187.0 -247.5 181.0 -247.5 181.0 -250.5 M196.0 -256.5 L205.0 -256.5 205.0 -253.5 202.0 -250.5 196.0 -256.5 M-17.0 -262.5 L-17.0 -256.5 -8.0 -256.5 -14.0 -262.5 -17.0 -262.5 M-35.0 -259.5 L-38.0 -262.5 Q-77.0 -258.0 -77.0 -235.5 L-56.0 -232.5 -20.0 -250.5 -26.0 -259.5 -29.0 -259.5 -32.0 -256.5 -35.0 -256.5 -35.0 -259.5 M-2.0 -280.5 L-11.0 -271.5 Q-11.0 -267.0 1.0 -262.5 L4.0 -262.5 1.0 -280.5 -2.0 -280.5 M-113.0 -307.5 L-125.0 -292.5 Q-125.0 -274.5 -107.0 -262.5 L-104.0 -262.5 -107.0 -277.5 -107.0 -280.5 -101.0 -280.5 -95.0 -265.5 -74.0 -271.5 -74.0 -274.5 Q-110.0 -286.0 -110.0 -292.5 L-110.0 -295.5 -107.0 -298.5 Q-113.0 -298.5 -113.0 -307.5 M325.0 -322.5 L325.0 -322.5 Q265.0 -286.0 172.0 -250.5 166.0 -250.5 154.0 -214.5 L154.0 -211.5 Q183.5 -229.0 250.0 -244.5 L253.0 -244.5 253.0 -241.5 250.0 -238.5 250.0 -190.5 256.0 -181.5 250.0 -181.5 250.0 -172.5 247.0 -94.5 223.0 -70.5 Q206.5 -43.5 202.0 -43.5 L202.0 -52.5 205.0 -55.5 Q179.0 -43.5 157.0 -43.5 L142.0 -43.5 127.0 -46.5 115.0 -34.5 Q115.0 -28.5 130.0 -28.5 L127.0 -25.5 127.0 -22.5 130.0 -19.5 112.0 -16.5 Q101.5 -22.5 70.0 -25.5 L58.0 -19.5 55.0 -19.5 55.0 -22.5 61.0 -22.5 55.0 -28.5 37.0 -28.5 34.0 -25.5 37.0 -16.5 49.0 -16.5 52.0 -19.5 46.0 -10.5 67.0 -1.5 70.0 -1.5 73.0 -4.5 73.0 1.5 82.0 1.5 106.0 -13.5 109.0 -13.5 91.0 4.5 124.0 4.5 124.0 -1.5 130.0 -1.5 130.0 4.5 133.0 1.5 Q188.5 1.5 235.0 -49.5 226.0 -49.5 226.0 -55.5 L235.0 -52.5 241.0 -52.5 238.0 -55.5 244.0 -64.5 Q250.0 -64.5 256.0 -46.5 275.0 -46.5 286.0 -34.5 L280.0 -28.5 Q280.0 -40.5 259.0 -40.5 L256.0 -40.5 Q275.0 1.5 328.0 1.5 L361.0 1.5 Q402.5 1.5 430.0 -40.5 L418.0 -55.5 418.0 -58.5 Q430.0 -58.5 430.0 -46.5 L436.0 -46.5 442.0 -70.5 433.0 -100.5 430.0 -100.5 430.0 -94.5 427.0 -94.5 424.0 -97.5 424.0 -100.5 427.0 -103.5 418.0 -106.5 415.0 -106.5 415.0 -100.5 409.0 -106.5 Q391.0 -97.5 391.0 -88.5 L400.0 -61.5 Q400.0 -48.0 379.0 -40.5 328.0 -40.5 328.0 -100.5 L328.0 -127.5 331.0 -193.5 328.0 -196.5 331.0 -199.5 331.0 -256.5 322.0 -256.5 Q323.5 -268.5 331.0 -268.5 L331.0 -286.5 328.0 -322.5 325.0 -322.5 M-140.0 -328.5 L-131.0 -301.5 -119.0 -313.5 -119.0 -322.5 -140.0 -328.5 M-143.0 -358.5 L-143.0 -343.5 -128.0 -337.5 -125.0 -337.5 Q-125.0 -358.5 -143.0 -358.5 M262.0 -367.5 L268.0 -367.5 268.0 -364.5 262.0 -358.5 262.0 -367.5 M259.0 -382.5 L265.0 -382.5 265.0 -376.5 259.0 -376.5 259.0 -382.5 M-122.0 -412.5 L-122.0 -412.5 Q-137.5 -412.5 -143.0 -367.5 L-134.0 -364.5 Q-128.5 -364.5 -122.0 -412.5 M250.0 -430.5 L253.0 -430.5 253.0 -427.5 250.0 -424.5 247.0 -424.5 247.0 -427.5 250.0 -430.5 M256.0 -439.5 L259.0 -439.5 259.0 -436.5 256.0 -433.5 253.0 -433.5 253.0 -436.5 256.0 -439.5 M262.0 -448.5 L265.0 -448.5 265.0 -445.5 262.0 -442.5 259.0 -442.5 259.0 -445.5 262.0 -448.5 M-122.0 -451.5 L-131.0 -421.5 -131.0 -418.5 -128.0 -418.5 Q-119.5 -418.5 -113.0 -445.5 L-119.0 -451.5 -122.0 -451.5 M244.0 -454.5 L250.0 -454.5 250.0 -451.5 244.0 -451.5 244.0 -454.5 M274.0 -460.5 L277.0 -460.5 271.0 -451.5 268.0 -451.5 274.0 -460.5 M259.0 -496.5 L256.0 -496.5 Q239.0 -448.5 229.0 -448.5 250.0 -412.5 250.0 -376.5 L250.0 -343.5 247.0 -340.5 253.0 -340.5 253.0 -334.5 247.0 -334.5 247.0 -331.5 250.0 -331.5 322.0 -364.5 Q298.0 -463.5 277.0 -463.5 L280.0 -466.5 259.0 -496.5 M-50.0 -532.5 L-50.0 -532.5 Q-62.0 -532.5 -80.0 -514.5 L-74.0 -505.5 -83.0 -508.5 Q-104.5 -487.5 -116.0 -460.5 -116.0 -451.5 -110.0 -451.5 L-107.0 -451.5 Q-102.5 -481.5 -38.0 -532.5 L-50.0 -532.5 M142.0 -541.5 L142.0 -538.5 Q154.0 -538.5 175.0 -514.5 L178.0 -514.5 181.0 -517.5 184.0 -517.5 Q184.0 -499.5 196.0 -499.5 L196.0 -493.5 226.0 -523.5 Q226.0 -536.5 166.0 -541.5 L157.0 -538.5 154.0 -541.5 142.0 -541.5 M127.0 -568.5 L112.0 -553.5 112.0 -550.5 199.0 -541.5 Q184.0 -558.0 130.0 -568.5 L127.0 -568.5 M100.0 -574.5 L100.0 -571.5 106.0 -571.5 106.0 -574.5 100.0 -574.5 M58.0 -574.5 L58.0 -574.5 Q10.0 -574.5 -53.0 -538.5 L-53.0 -535.5 -41.0 -535.5 Q34.0 -559.5 61.0 -559.5 L76.0 -556.5 Q92.5 -556.5 97.0 -568.5 L97.0 -574.5 58.0 -574.5" fill-rule="evenodd" stroke="none"/>
    </g>
    <g id="font_Angelic_War_m0">
      <path d="M316.0 -10.5 L316.0 -7.5 322.0 -7.5 322.0 -10.5 316.0 -10.5 M253.0 -16.5 L253.0 -7.5 268.0 -7.5 268.0 -10.5 253.0 -16.5 M70.0 -19.5 L79.0 -16.5 79.0 -13.5 76.0 -10.5 67.0 -13.5 67.0 -16.5 70.0 -19.5 M73.0 -31.5 L82.0 -31.5 82.0 -25.5 79.0 -25.5 73.0 -31.5 M271.0 -37.5 L253.0 -34.5 253.0 -19.5 Q271.0 -19.5 271.0 -7.5 L307.0 -7.5 Q289.0 -31.5 271.0 -37.5 M223.0 -40.5 L229.0 -40.5 229.0 -34.5 223.0 -40.5 M28.0 -43.5 L28.0 -43.5 Q28.0 -38.5 -14.0 -34.5 L-14.0 -7.5 25.0 -7.5 Q32.0 -9.0 40.0 -31.5 40.0 -40.5 28.0 -43.5 M313.0 -58.5 L313.0 -58.5 Q299.5 -40.5 286.0 -40.5 L337.0 -7.5 382.0 -7.5 Q382.0 -14.5 361.0 -16.5 L358.0 -19.5 Q340.0 -26.5 340.0 -31.5 L382.0 -16.5 385.0 -16.5 385.0 -19.5 373.0 -37.5 391.0 -31.5 385.0 -7.5 460.0 -7.5 460.0 -13.5 439.0 -13.5 445.0 -19.5 460.0 -19.5 460.0 -34.5 Q432.5 -34.5 403.0 -55.5 L385.0 -55.5 382.0 -52.5 382.0 -55.5 379.0 -55.5 376.0 -52.5 370.0 -52.5 322.0 -58.5 319.0 -58.5 316.0 -55.5 313.0 -58.5 M214.0 -70.5 L214.0 -70.5 Q214.0 -1.0 244.0 28.5 L238.0 28.5 241.0 37.5 Q307.0 115.5 385.0 115.5 L397.0 115.5 Q454.0 104.0 454.0 94.5 426.5 103.5 403.0 103.5 L397.0 103.5 Q293.5 103.5 247.0 -13.5 240.5 -70.5 214.0 -70.5 M214.0 -97.5 L211.0 -82.5 235.0 -70.5 238.0 -70.5 238.0 -88.5 214.0 -97.5 M364.0 -139.5 L385.0 -130.5 385.0 -124.5 364.0 -133.5 364.0 -139.5 M49.0 -148.5 L49.0 -133.5 70.0 -133.5 76.0 -127.5 76.0 -124.5 70.0 -118.5 64.0 -118.5 64.0 -127.5 49.0 -127.5 49.0 -97.5 Q50.5 -91.5 64.0 -85.5 L88.0 -88.5 88.0 -85.5 82.0 -79.5 Q82.0 -73.5 91.0 -73.5 L91.0 -64.5 106.0 -70.5 115.0 -67.5 115.0 -61.5 112.0 -61.5 97.0 -64.5 Q134.0 -22.5 145.0 -22.5 L145.0 -16.5 142.0 -16.5 70.0 -76.5 58.0 -76.5 58.0 -73.5 61.0 -73.5 76.0 -64.5 76.0 -61.5 73.0 -61.5 49.0 -76.5 Q49.0 -53.5 37.0 -49.5 L43.0 -40.5 43.0 -34.5 37.0 -7.5 157.0 -7.5 157.0 -10.5 151.0 -10.5 151.0 -16.5 Q162.5 -7.5 172.0 -7.5 L187.0 -7.5 Q187.0 -16.0 175.0 -25.5 L193.0 -16.5 196.0 -16.5 196.0 -34.5 Q130.0 -34.5 130.0 -100.5 104.0 -125.5 52.0 -148.5 L49.0 -148.5 M115.0 -154.5 L115.0 -154.5 Q116.5 -124.5 130.0 -124.5 L130.0 -142.5 Q128.5 -148.5 115.0 -154.5 M124.0 -166.5 L124.0 -160.5 127.0 -160.5 127.0 -166.5 124.0 -166.5 124.0 -169.5 118.0 -175.5 115.0 -175.5 124.0 -166.5 M229.0 -184.5 L229.0 -184.5 Q214.0 -132.0 214.0 -109.5 214.0 -105.0 235.0 -97.5 L238.0 -97.5 Q244.0 -136.5 256.0 -163.5 256.0 -172.0 235.0 -184.5 L229.0 -184.5 M697.0 -214.5 L667.0 -205.5 Q670.0 -196.0 679.0 -193.5 L709.0 -205.5 Q709.0 -210.0 697.0 -214.5 M658.0 -232.5 L655.0 -223.5 658.0 -214.5 661.0 -214.5 661.0 -232.5 658.0 -232.5 M49.0 -235.5 L49.0 -208.5 Q49.0 -198.0 82.0 -193.5 L88.0 -193.5 88.0 -205.5 67.0 -226.5 67.0 -220.5 70.0 -217.5 67.0 -217.5 Q52.0 -226.5 52.0 -235.5 L49.0 -235.5 M745.0 -253.5 L733.0 -235.5 739.0 -223.5 Q763.0 -239.5 763.0 -247.5 763.0 -251.5 745.0 -253.5 M658.0 -283.5 L658.0 -280.5 655.0 -277.5 Q655.0 -268.5 646.0 -268.5 L646.0 -265.5 661.0 -250.5 661.0 -283.5 658.0 -283.5 M526.0 -286.5 L520.0 -280.5 Q520.0 -221.5 580.0 -199.5 L580.0 -79.5 Q580.0 -34.5 517.0 -34.5 L517.0 -7.5 727.0 -7.5 727.0 -34.5 700.0 -37.5 Q661.0 -49.0 661.0 -82.5 L661.0 -145.5 Q652.0 -145.5 646.0 -157.5 L646.0 -160.5 658.0 -154.5 661.0 -154.5 661.0 -190.5 667.0 -190.5 667.0 -193.5 646.0 -226.5 Q646.0 -238.5 655.0 -238.5 L655.0 -241.5 Q636.5 -262.5 622.0 -262.5 L583.0 -262.5 580.0 -265.5 580.0 -214.5 Q535.0 -225.0 535.0 -280.5 L535.0 -286.5 526.0 -286.5 M397.0 -295.5 L319.0 -283.5 Q284.0 -283.5 235.0 -193.5 235.0 -187.0 256.0 -172.5 L259.0 -172.5 310.0 -259.5 316.0 -253.5 316.0 -172.5 Q324.5 -172.5 334.0 -163.5 334.0 -173.5 349.0 -181.5 L343.0 -199.5 Q349.0 -211.5 358.0 -211.5 L352.0 -229.5 355.0 -229.5 364.0 -220.5 364.0 -214.5 349.0 -202.5 358.0 -187.5 340.0 -160.5 Q352.0 -142.5 361.0 -142.5 L361.0 -139.5 358.0 -139.5 Q334.0 -149.5 334.0 -160.5 L322.0 -163.5 316.0 -169.5 316.0 -121.5 Q362.0 -90.0 385.0 -85.5 L385.0 -82.5 382.0 -82.5 Q359.0 -85.5 319.0 -118.5 L316.0 -118.5 316.0 -73.5 Q316.0 -64.0 382.0 -58.5 L391.0 -61.5 400.0 -61.5 397.0 -76.5 397.0 -142.5 Q436.0 -208.5 436.0 -289.5 L430.0 -295.5 424.0 -295.5 424.0 -277.5 427.0 -274.5 Q413.0 -178.5 397.0 -163.5 L397.0 -295.5 M766.0 -310.5 L766.0 -310.5 Q766.0 -289.5 751.0 -262.5 751.0 -256.5 766.0 -256.5 L769.0 -256.5 Q787.0 -277.5 787.0 -292.5 787.0 -303.0 766.0 -310.5 M658.0 -355.5 L655.0 -355.5 652.0 -352.5 631.0 -352.5 613.0 -346.5 604.0 -349.5 580.0 -343.5 577.0 -343.5 574.0 -346.5 574.0 -343.5 Q523.0 -313.0 523.0 -292.5 L523.0 -289.5 538.0 -289.5 550.0 -313.5 Q550.0 -325.5 610.0 -334.5 629.5 -334.5 673.0 -307.5 L679.0 -313.5 679.0 -325.5 Q658.0 -334.5 658.0 -355.5 M505.0 -373.5 L505.0 -370.5 511.0 -370.5 511.0 -373.5 505.0 -373.5 M307.0 -373.5 L316.0 -373.5 313.0 -364.5 313.0 -361.5 316.0 -358.5 Q311.5 -358.5 307.0 -370.5 L307.0 -373.5 M610.0 -370.5 L616.0 -376.5 616.0 -370.5 610.0 -370.5 M475.0 -382.5 L475.0 -376.5 478.0 -376.5 478.0 -382.5 475.0 -382.5 M655.0 -385.5 L655.0 -379.5 661.0 -385.5 655.0 -385.5 M751.0 -388.5 L751.0 -388.5 Q751.0 -364.5 781.0 -358.5 L784.0 -358.5 Q784.0 -383.5 751.0 -388.5 M385.0 -406.5 L385.0 -403.5 391.0 -397.5 391.0 -406.5 385.0 -406.5 M544.0 -409.5 L547.0 -409.5 556.0 -406.5 556.0 -403.5 553.0 -403.5 544.0 -406.5 544.0 -409.5 M379.0 -400.5 L388.0 -409.5 Q397.0 -407.5 397.0 -391.5 L388.0 -388.5 379.0 -400.5 M370.0 -412.5 L376.0 -412.5 376.0 -406.5 370.0 -412.5 M529.0 -415.5 L535.0 -415.5 535.0 -412.5 529.0 -412.5 529.0 -415.5 M580.0 -412.5 L586.0 -418.5 598.0 -412.5 598.0 -406.5 580.0 -412.5 M691.0 -424.5 L697.0 -418.5 697.0 -424.5 691.0 -424.5 M568.0 -427.5 L577.0 -424.5 577.0 -418.5 568.0 -421.5 568.0 -427.5 M433.0 -427.5 L445.0 -424.5 Q430.0 -404.5 415.0 -397.5 L409.0 -397.5 406.0 -412.5 406.0 -415.5 412.0 -415.5 415.0 -412.5 415.0 -415.5 424.0 -418.5 427.0 -421.5 433.0 -427.5 M556.0 -430.5 L562.0 -424.5 553.0 -424.5 553.0 -427.5 556.0 -430.5 M322.0 -433.5 L334.0 -433.5 334.0 -430.5 322.0 -430.5 322.0 -433.5 M646.0 -439.5 L646.0 -433.5 649.0 -433.5 649.0 -439.5 646.0 -439.5 M283.0 -433.5 L292.0 -436.5 319.0 -433.5 319.0 -430.5 307.0 -427.5 283.0 -430.5 283.0 -433.5 M259.0 -436.5 L262.0 -433.5 265.0 -433.5 268.0 -436.5 274.0 -436.5 280.0 -430.5 259.0 -430.5 259.0 -436.5 M619.0 -442.5 L619.0 -436.5 625.0 -436.5 619.0 -442.5 M553.0 -439.5 L565.0 -439.5 565.0 -433.5 553.0 -433.5 553.0 -439.5 M130.0 -376.5 L130.0 -376.5 Q143.0 -439.5 175.0 -439.5 L193.0 -439.5 199.0 -433.5 199.0 -430.5 Q188.5 -430.5 133.0 -376.5 L130.0 -376.5 M400.0 -448.5 L391.0 -442.5 397.0 -436.5 403.0 -436.5 406.0 -439.5 400.0 -448.5 M343.0 -445.5 L346.0 -445.5 364.0 -436.5 Q364.0 -427.5 373.0 -427.5 L373.0 -421.5 361.0 -418.5 Q361.0 -430.0 337.0 -430.5 L337.0 -433.5 343.0 -433.5 340.0 -436.5 340.0 -439.5 343.0 -439.5 346.0 -436.5 349.0 -436.5 349.0 -442.5 343.0 -442.5 343.0 -445.5 M325.0 -448.5 L340.0 -445.5 340.0 -442.5 337.0 -439.5 325.0 -442.5 325.0 -448.5 M424.0 -463.5 L418.0 -457.5 424.0 -457.5 424.0 -463.5 M436.0 -466.5 L436.0 -460.5 445.0 -460.5 445.0 -466.5 436.0 -466.5 M217.0 -463.5 L232.0 -463.5 232.0 -460.5 217.0 -460.5 217.0 -463.5 M526.0 -469.5 L526.0 -463.5 529.0 -460.5 532.0 -460.5 535.0 -463.5 529.0 -469.5 526.0 -469.5 M250.0 -466.5 L262.0 -466.5 262.0 -463.5 250.0 -463.5 250.0 -466.5 M709.0 -472.5 L709.0 -466.5 712.0 -466.5 712.0 -472.5 709.0 -472.5 M1210.0 -478.5 L1210.0 -478.5 Q1172.5 -478.5 1135.0 -469.5 L1135.0 -466.5 1159.0 -466.5 1177.0 -472.5 1177.0 -469.5 1186.0 -475.5 1204.0 -472.5 1210.0 -478.5 M1123.0 -478.5 L1123.0 -466.5 1129.0 -466.5 1132.0 -478.5 1123.0 -478.5 M1141.0 -481.5 L1141.0 -478.5 1165.0 -478.5 1165.0 -481.5 1141.0 -481.5 M1174.0 -484.5 L1174.0 -481.5 1180.0 -481.5 1180.0 -484.5 1174.0 -484.5 M715.0 -484.5 L715.0 -481.5 721.0 -481.5 721.0 -484.5 715.0 -484.5 M550.0 -484.5 L544.0 -478.5 550.0 -478.5 550.0 -484.5 M433.0 -469.5 L433.0 -469.5 Q433.0 -481.5 442.0 -481.5 L442.0 -469.5 457.0 -472.5 463.0 -454.5 Q461.0 -439.5 454.0 -439.5 L448.0 -439.5 445.0 -442.5 445.0 -436.5 439.0 -436.5 439.0 -442.5 445.0 -442.5 445.0 -445.5 442.0 -448.5 442.0 -451.5 445.0 -454.5 433.0 -454.5 436.0 -445.5 427.0 -436.5 424.0 -436.5 Q424.0 -445.5 415.0 -445.5 L409.0 -445.5 Q414.5 -433.5 421.0 -433.5 L421.0 -427.5 418.0 -424.5 415.0 -424.5 412.0 -427.5 409.0 -427.5 397.0 -418.5 400.0 -433.5 394.0 -433.5 391.0 -430.5 373.0 -451.5 373.0 -454.5 379.0 -460.5 379.0 -454.5 Q385.0 -454.5 385.0 -463.5 L391.0 -463.5 391.0 -457.5 Q398.5 -467.5 424.0 -475.5 L430.0 -475.5 430.0 -472.5 427.0 -469.5 433.0 -469.5 M448.0 -484.5 L454.0 -478.5 448.0 -478.5 448.0 -484.5 M421.0 -484.5 L427.0 -484.5 427.0 -478.5 421.0 -484.5 M826.0 -490.5 L826.0 -487.5 832.0 -487.5 832.0 -490.5 826.0 -490.5 M532.0 -490.5 L523.0 -478.5 535.0 -475.5 535.0 -472.5 532.0 -469.5 538.0 -469.5 541.0 -472.5 544.0 -469.5 Q544.0 -486.0 532.0 -490.5 M301.0 -490.5 L301.0 -487.5 307.0 -487.5 307.0 -490.5 301.0 -490.5 301.0 -496.5 292.0 -496.5 292.0 -493.5 301.0 -490.5 M1234.0 -496.5 L1195.0 -487.5 1195.0 -484.5 1216.0 -481.5 1228.0 -481.5 Q1261.0 -489.0 1261.0 -496.5 L1252.0 -496.5 1237.0 -493.5 1234.0 -496.5 M331.0 -496.5 L331.0 -493.5 328.0 -490.5 340.0 -490.5 340.0 -493.5 331.0 -496.5 M1243.0 -502.5 L1243.0 -499.5 1249.0 -499.5 1249.0 -502.5 1243.0 -502.5 M577.0 -502.5 L577.0 -496.5 580.0 -496.5 580.0 -502.5 577.0 -502.5 M571.0 -505.5 L568.0 -490.5 568.0 -487.5 574.0 -487.5 577.0 -490.5 574.0 -499.5 574.0 -502.5 577.0 -505.5 571.0 -505.5 571.0 -511.5 568.0 -514.5 580.0 -517.5 580.0 -520.5 Q565.0 -520.5 565.0 -529.5 L562.0 -526.5 550.0 -529.5 550.0 -529.5 Q550.0 -535.0 631.0 -577.5 L715.0 -556.5 715.0 -553.5 619.0 -502.5 619.0 -505.5 610.0 -505.5 613.0 -514.5 613.0 -517.5 601.0 -508.5 598.0 -508.5 Q592.0 -508.5 592.0 -520.5 L586.0 -520.5 586.0 -514.5 589.0 -511.5 583.0 -505.5 583.0 -502.5 586.0 -499.5 583.0 -499.5 589.0 -490.5 592.0 -490.5 595.0 -493.5 601.0 -493.5 Q601.0 -489.0 577.0 -478.5 L577.0 -481.5 568.0 -481.5 568.0 -478.5 574.0 -478.5 574.0 -475.5 Q544.0 -461.5 535.0 -451.5 L535.0 -457.5 538.0 -460.5 532.0 -460.5 Q532.0 -451.0 508.0 -445.5 L514.0 -454.5 Q508.0 -454.5 508.0 -463.5 L496.0 -460.5 496.0 -454.5 499.0 -454.5 502.0 -457.5 502.0 -445.5 499.0 -445.5 496.0 -448.5 490.0 -448.5 487.0 -445.5 484.0 -454.5 487.0 -457.5 481.0 -457.5 Q481.0 -448.5 475.0 -448.5 475.0 -464.5 490.0 -472.5 L490.0 -490.5 487.0 -490.5 487.0 -478.5 484.0 -478.5 484.0 -496.5 511.0 -514.5 Q523.0 -514.5 523.0 -520.5 L556.0 -514.5 556.0 -511.5 Q542.5 -511.5 535.0 -496.5 L535.0 -490.5 544.0 -490.5 547.0 -493.5 559.0 -484.5 562.0 -484.5 556.0 -493.5 Q564.5 -505.5 571.0 -505.5 M511.0 -505.5 L511.0 -499.5 514.0 -499.5 514.0 -505.5 511.0 -505.5 M946.0 -511.5 L946.0 -511.5 Q946.0 -490.5 967.0 -490.5 L970.0 -490.5 Q970.0 -499.5 961.0 -499.5 L961.0 -505.5 964.0 -505.5 967.0 -502.5 Q967.0 -482.5 1069.0 -469.5 L1072.0 -469.5 1075.0 -472.5 1078.0 -469.5 1081.0 -469.5 1081.0 -475.5 1090.0 -475.5 1090.0 -466.5 1120.0 -466.5 1117.0 -475.5 1063.0 -484.5 1069.0 -475.5 1069.0 -472.5 Q1053.5 -490.5 1027.0 -490.5 L1021.0 -490.5 1021.0 -487.5 1027.0 -487.5 1027.0 -484.5 1024.0 -484.5 Q1007.0 -498.0 946.0 -511.5 M544.0 -499.5 L544.0 -499.5 Q544.0 -507.0 562.0 -508.5 L562.0 -502.5 547.0 -499.5 544.0 -499.5 M1270.0 -520.5 L1270.0 -517.5 1276.0 -511.5 1276.0 -508.5 1270.0 -514.5 1249.0 -505.5 1249.0 -502.5 1270.0 -499.5 1285.0 -514.5 1270.0 -520.5 M292.0 -520.5 L292.0 -520.5 Q292.0 -508.5 286.0 -508.5 L292.0 -502.5 292.0 -508.5 301.0 -505.5 304.0 -505.5 298.0 -520.5 292.0 -520.5 M337.0 -523.5 L337.0 -511.5 343.0 -511.5 346.0 -520.5 337.0 -523.5 M583.0 -529.5 L583.0 -526.5 589.0 -526.5 589.0 -529.5 583.0 -529.5 M430.0 -529.5 L427.0 -529.5 424.0 -526.5 424.0 -523.5 427.0 -520.5 430.0 -520.5 433.0 -523.5 433.0 -526.5 430.0 -529.5 M655.0 -535.5 L655.0 -532.5 661.0 -532.5 661.0 -535.5 655.0 -535.5 M442.0 -535.5 L442.0 -529.5 448.0 -535.5 442.0 -535.5 M640.0 -547.5 L646.0 -541.5 649.0 -541.5 652.0 -544.5 655.0 -541.5 655.0 -547.5 640.0 -547.5 M271.0 -547.5 L271.0 -544.5 277.0 -544.5 277.0 -547.5 271.0 -547.5 M310.0 -529.5 L310.0 -529.5 Q310.0 -540.0 379.0 -547.5 466.0 -541.0 466.0 -532.5 L466.0 -529.5 451.0 -523.5 448.0 -523.5 445.0 -526.5 445.0 -520.5 442.0 -523.5 409.0 -505.5 409.0 -511.5 400.0 -511.5 Q400.0 -499.5 391.0 -499.5 L385.0 -499.5 385.0 -502.5 388.0 -505.5 382.0 -511.5 379.0 -511.5 Q379.0 -490.5 361.0 -490.5 L355.0 -502.5 349.0 -496.5 349.0 -490.5 352.0 -487.5 349.0 -487.5 346.0 -484.5 334.0 -484.5 331.0 -487.5 328.0 -478.5 325.0 -481.5 322.0 -481.5 319.0 -478.5 316.0 -478.5 316.0 -484.5 313.0 -481.5 292.0 -490.5 289.0 -487.5 280.0 -487.5 280.0 -496.5 271.0 -490.5 256.0 -490.5 271.0 -517.5 277.0 -517.5 280.0 -514.5 Q281.5 -522.0 301.0 -529.5 L304.0 -529.5 307.0 -526.5 307.0 -523.5 304.0 -520.5 304.0 -517.5 307.0 -520.5 334.0 -502.5 346.0 -502.5 346.0 -508.5 Q335.5 -508.5 322.0 -517.5 L322.0 -520.5 325.0 -523.5 319.0 -523.5 316.0 -520.5 310.0 -529.5 M622.0 -553.5 L622.0 -547.5 625.0 -547.5 625.0 -553.5 622.0 -553.5 M565.0 -571.5 L568.0 -571.5 574.0 -565.5 571.0 -565.5 565.0 -571.5 M838.0 -586.5 L829.0 -577.5 829.0 -571.5 850.0 -580.5 844.0 -586.5 838.0 -586.5 M586.0 -589.5 L592.0 -589.5 595.0 -580.5 592.0 -580.5 586.0 -586.5 586.0 -589.5 M1288.0 -601.5 L1297.0 -571.5 1279.0 -526.5 1294.0 -520.5 Q1309.0 -550.5 1309.0 -568.5 1309.0 -601.5 1288.0 -601.5 M511.0 -601.5 L511.0 -592.5 517.0 -592.5 517.0 -595.5 511.0 -601.5 M490.0 -601.5 L484.0 -595.5 490.0 -595.5 490.0 -601.5 M1120.0 -607.5 L1105.0 -604.5 1102.0 -604.5 1108.0 -586.5 1108.0 -583.5 1093.0 -589.5 1093.0 -592.5 1102.0 -592.5 1102.0 -598.5 1099.0 -601.5 1075.0 -595.5 1075.0 -592.5 Q1075.0 -574.5 1093.0 -574.5 L1099.0 -574.5 1090.0 -583.5 1090.0 -586.5 1108.0 -580.5 Q1124.0 -580.5 1138.0 -598.5 L1120.0 -607.5 M1126.0 -610.5 L1126.0 -607.5 Q1138.0 -606.0 1138.0 -598.5 L1144.0 -604.5 1138.0 -610.5 1126.0 -610.5 M826.0 -607.5 L826.0 -610.5 790.0 -595.5 Q799.0 -584.5 799.0 -574.5 L799.0 -571.5 787.0 -541.5 931.0 -499.5 934.0 -499.5 934.0 -502.5 Q926.5 -502.5 904.0 -526.5 865.0 -541.5 799.0 -553.5 L799.0 -559.5 826.0 -568.5 823.0 -571.5 Q823.0 -588.0 838.0 -592.5 L826.0 -607.5 M307.0 -559.5 L307.0 -559.5 Q326.0 -613.5 382.0 -613.5 L388.0 -613.5 391.0 -610.5 391.0 -613.5 418.0 -604.5 Q450.5 -588.0 463.0 -553.5 L388.0 -559.5 Q349.0 -559.5 334.0 -553.5 L334.0 -556.5 Q320.5 -547.5 307.0 -547.5 L307.0 -556.5 310.0 -559.5 307.0 -559.5 M925.0 -628.5 L916.0 -619.5 916.0 -613.5 919.0 -613.5 934.0 -616.5 934.0 -622.5 928.0 -628.5 925.0 -628.5 M940.0 -634.5 L937.0 -634.5 934.0 -631.5 946.0 -622.5 949.0 -622.5 949.0 -631.5 940.0 -634.5 M892.0 -634.5 L892.0 -637.5 883.0 -634.5 874.0 -634.5 Q878.5 -610.5 892.0 -610.5 L892.0 -607.5 883.0 -604.5 Q871.0 -622.0 871.0 -631.5 L841.0 -619.5 841.0 -616.5 Q858.5 -589.5 868.0 -589.5 L904.0 -604.5 892.0 -634.5 M541.0 -640.5 L541.0 -634.5 544.0 -634.5 544.0 -640.5 541.0 -640.5 M154.0 -640.5 L139.0 -637.5 Q85.0 -619.5 64.0 -583.5 64.0 -578.5 79.0 -574.5 79.0 -599.5 157.0 -625.5 L154.0 -640.5 M1021.0 -646.5 L1021.0 -643.5 1027.0 -643.5 1027.0 -646.5 1021.0 -646.5 M1234.0 -655.5 L1234.0 -652.5 1231.0 -649.5 1231.0 -646.5 1234.0 -646.5 1297.0 -607.5 1300.0 -607.5 Q1300.0 -625.0 1234.0 -655.5 M1003.0 -661.5 L1003.0 -658.5 1006.0 -655.5 1015.0 -655.5 1015.0 -658.5 1006.0 -661.5 1003.0 -661.5 M1102.0 -664.5 L1102.0 -658.5 1132.0 -658.5 1132.0 -661.5 1102.0 -664.5 M1024.0 -664.5 L1030.0 -658.5 1033.0 -658.5 1027.0 -664.5 1024.0 -664.5 1024.0 -667.5 1018.0 -667.5 1018.0 -664.5 1024.0 -664.5 M988.0 -664.5 L946.0 -655.5 Q946.0 -644.5 964.0 -628.5 L1000.0 -637.5 997.0 -640.5 Q997.0 -648.0 1009.0 -649.5 1007.5 -657.0 988.0 -664.5 M715.0 -664.5 L715.0 -664.5 Q701.0 -664.5 601.0 -601.5 L598.0 -601.5 Q362.0 -655.5 292.0 -655.5 L274.0 -652.5 265.0 -658.5 Q160.0 -652.0 160.0 -640.5 L160.0 -628.5 208.0 -637.5 202.0 -646.5 205.0 -646.5 214.0 -640.5 241.0 -640.5 241.0 -646.5 256.0 -643.5 274.0 -643.5 Q361.0 -643.5 490.0 -607.5 553.0 -598.5 553.0 -589.5 L556.0 -589.5 559.0 -592.5 568.0 -592.5 571.0 -589.5 559.0 -580.5 559.0 -577.5 562.0 -574.5 553.0 -577.5 Q539.5 -571.5 538.0 -565.5 L535.0 -568.5 Q496.0 -547.5 487.0 -547.5 L481.0 -547.5 Q474.5 -571.0 442.0 -604.5 402.5 -625.5 373.0 -625.5 326.5 -625.5 301.0 -562.5 L304.0 -562.5 301.0 -553.5 301.0 -550.5 304.0 -547.5 Q241.0 -514.0 238.0 -490.5 186.5 -478.5 169.0 -466.5 L163.0 -466.5 142.0 -469.5 139.0 -457.5 Q131.0 -457.5 76.0 -511.5 L61.0 -565.5 55.0 -559.5 55.0 -535.5 Q55.0 -472.5 142.0 -448.5 L142.0 -442.5 130.0 -430.5 Q130.0 -445.5 124.0 -445.5 L118.0 -445.5 115.0 -442.5 115.0 -445.5 -5.0 -436.5 -8.0 -436.5 Q-2.5 -421.5 7.0 -421.5 L7.0 -418.5 4.0 -418.5 Q-2.5 -418.5 -14.0 -433.5 L-20.0 -433.5 -20.0 -406.5 Q38.5 -406.5 49.0 -355.5 L52.0 -355.5 55.0 -358.5 55.0 -355.5 49.0 -346.5 49.0 -340.5 70.0 -346.5 79.0 -346.5 79.0 -343.5 Q49.0 -336.0 49.0 -328.5 L49.0 -316.5 Q82.0 -310.5 82.0 -286.5 L73.0 -274.5 Q49.0 -273.0 49.0 -265.5 L49.0 -247.5 52.0 -244.5 Q104.0 -220.5 112.0 -193.5 112.0 -175.5 127.0 -175.5 L130.0 -175.5 130.0 -274.5 100.0 -280.5 100.0 -286.5 Q116.0 -277.5 130.0 -277.5 L133.0 -277.5 136.0 -280.5 Q140.0 -267.0 160.0 -256.5 L163.0 -256.5 Q130.0 -283.0 130.0 -319.5 L130.0 -322.5 Q130.0 -332.5 139.0 -343.5 L139.0 -346.5 31.0 -403.5 31.0 -406.5 34.0 -406.5 142.0 -349.5 Q155.0 -366.0 190.0 -391.5 L190.0 -394.5 187.0 -397.5 190.0 -406.5 193.0 -406.5 193.0 -391.5 241.0 -400.5 Q304.0 -378.0 304.0 -349.5 L307.0 -349.5 307.0 -355.5 313.0 -355.5 310.0 -346.5 Q310.0 -337.5 316.0 -337.5 L313.0 -334.5 316.0 -310.5 Q316.0 -299.5 307.0 -286.5 L397.0 -298.5 397.0 -301.5 391.0 -301.5 391.0 -304.5 397.0 -304.5 397.0 -325.5 403.0 -325.5 400.0 -337.5 Q406.0 -351.0 412.0 -352.5 L415.0 -352.5 421.0 -304.5 430.0 -298.5 433.0 -298.5 424.0 -364.5 Q431.5 -377.5 445.0 -382.5 L448.0 -382.5 451.0 -379.5 Q466.0 -394.5 478.0 -394.5 L481.0 -394.5 484.0 -391.5 Q484.0 -400.5 508.0 -400.5 L526.0 -397.5 Q526.0 -385.5 532.0 -385.5 L532.0 -391.5 538.0 -391.5 562.0 -373.5 Q572.0 -346.5 580.0 -346.5 626.0 -361.5 652.0 -361.5 L655.0 -361.5 655.0 -367.5 601.0 -406.5 601.0 -409.5 Q618.5 -400.0 640.0 -397.5 L637.0 -415.5 Q625.0 -415.5 625.0 -421.5 L622.0 -418.5 Q589.0 -428.5 589.0 -433.5 L616.0 -424.5 619.0 -424.5 Q585.5 -451.0 568.0 -454.5 L568.0 -451.5 553.0 -454.5 547.0 -454.5 544.0 -451.5 544.0 -457.5 553.0 -457.5 568.0 -454.5 571.0 -457.5 574.0 -454.5 580.0 -454.5 Q616.0 -454.5 616.0 -463.5 640.0 -474.0 640.0 -478.5 677.5 -461.5 691.0 -448.5 L727.0 -415.5 748.0 -418.5 Q703.0 -469.5 661.0 -484.5 L661.0 -490.5 745.0 -532.5 Q773.5 -532.5 787.0 -577.5 L787.0 -586.5 784.0 -589.5 739.0 -571.5 655.0 -586.5 655.0 -592.5 700.0 -616.5 694.0 -625.5 694.0 -628.5 706.0 -622.5 736.0 -637.5 736.0 -640.5 715.0 -664.5 M1186.0 -670.5 L1186.0 -667.5 Q1199.5 -652.5 1222.0 -652.5 L1228.0 -658.5 1228.0 -661.5 1186.0 -670.5 M1030.0 -673.5 L1030.0 -667.5 1060.0 -652.5 1096.0 -655.5 1096.0 -658.5 Q1088.0 -666.0 1033.0 -673.5 L1030.0 -673.5 M1066.0 -676.5 L1066.0 -673.5 1126.0 -667.5 1138.0 -667.5 Q1145.5 -658.5 1153.0 -658.5 L1153.0 -655.5 Q1153.0 -636.0 1138.0 -619.5 1165.0 -619.5 1165.0 -661.5 L1123.0 -676.5 1066.0 -676.5 M745.0 -682.5 L745.0 -682.5 Q718.0 -674.5 718.0 -667.5 L718.0 -664.5 Q724.0 -664.5 742.0 -643.5 L775.0 -661.5 Q775.0 -668.5 745.0 -682.5 M817.0 -688.5 L799.0 -685.5 793.0 -685.5 793.0 -679.5 796.0 -676.5 820.0 -685.5 820.0 -688.5 817.0 -688.5 M838.0 -709.5 L826.0 -697.5 832.0 -697.5 859.0 -706.5 859.0 -709.5 838.0 -709.5 M814.0 -715.5 L781.0 -703.5 787.0 -694.5 787.0 -691.5 Q820.0 -691.5 829.0 -712.5 L826.0 -712.5 823.0 -715.5 814.0 -715.5 M880.0 -742.5 L826.0 -724.5 826.0 -721.5 838.0 -718.5 Q875.0 -727.5 880.0 -742.5 M886.0 -745.5 L886.0 -745.5 Q869.5 -718.5 856.0 -718.5 L856.0 -715.5 871.0 -712.5 Q912.5 -733.5 925.0 -733.5 L925.0 -736.5 910.0 -742.5 910.0 -736.5 886.0 -745.5 M1099.0 -748.5 L1099.0 -745.5 1105.0 -745.5 1105.0 -748.5 1099.0 -748.5 M1045.0 -751.5 L1045.0 -748.5 1054.0 -748.5 1054.0 -751.5 1045.0 -751.5 M916.0 -751.5 L916.0 -751.5 Q917.5 -745.5 931.0 -739.5 L934.0 -739.5 937.0 -742.5 940.0 -742.5 943.0 -739.5 943.0 -742.5 946.0 -745.5 916.0 -751.5 M1015.0 -763.5 L1015.0 -760.5 1030.0 -754.5 1036.0 -754.5 1027.0 -763.5 1015.0 -763.5" fill-rule="evenodd" stroke="none"/>
    </g>
    <g id="font_Angelic_War_e0">
      <path d="M291.0 303.5 L291.0 306.5 281.0 313.5 278.0 316.5 287.0 319.5 297.0 309.5 297.0 303.5 291.0 303.5 M474.0 160.5 L474.0 160.5 Q427.5 181.5 408.0 181.5 L408.0 184.5 Q417.0 184.5 417.0 193.5 L417.0 196.5 Q433.0 196.5 486.0 172.5 L486.0 169.5 483.0 166.5 Q474.0 166.5 474.0 160.5 M252.0 160.5 L231.0 172.5 Q231.0 177.5 264.0 190.5 L264.0 187.5 Q318.0 222.5 318.0 253.5 318.0 281.5 297.0 297.5 L303.0 306.5 Q327.0 281.5 327.0 265.5 L327.0 253.5 Q327.0 231.0 303.0 202.5 L303.0 199.5 315.0 196.5 351.0 205.5 351.0 202.5 360.0 205.5 375.0 202.5 378.0 205.5 378.0 202.5 381.0 205.5 Q402.0 201.5 402.0 196.5 L381.0 184.5 363.0 190.5 342.0 184.5 342.0 187.5 339.0 187.5 336.0 184.5 333.0 184.5 330.0 187.5 321.0 181.5 321.0 184.5 318.0 181.5 315.0 184.5 Q254.5 169.5 252.0 160.5 M327.0 139.5 L282.0 148.5 282.0 145.5 255.0 157.5 255.0 160.5 258.0 163.5 261.0 163.5 264.0 160.5 267.0 160.5 270.0 163.5 270.0 160.5 273.0 160.5 276.0 163.5 279.0 163.5 282.0 160.5 282.0 163.5 285.0 160.5 288.0 160.5 291.0 163.5 294.0 163.5 297.0 160.5 297.0 163.5 327.0 154.5 327.0 157.5 339.0 151.5 339.0 148.5 336.0 145.5 Q327.0 145.5 327.0 139.5 M513.0 136.5 L480.0 154.5 Q482.5 163.5 498.0 163.5 L501.0 163.5 534.0 136.5 525.0 139.5 513.0 136.5 M375.0 112.5 L375.0 112.5 Q369.0 121.5 342.0 133.5 343.5 139.5 357.0 145.5 373.0 130.5 390.0 124.5 388.5 118.5 375.0 112.5 M180.0 109.5 L138.0 112.5 Q160.0 135.0 201.0 160.5 L228.0 160.5 Q249.0 147.5 249.0 142.5 214.0 135.0 180.0 109.5 M408.0 103.5 L384.0 106.5 Q384.0 111.0 396.0 115.5 L408.0 103.5 M99.0 25.5 L90.0 61.5 Q97.0 75.5 135.0 109.5 L150.0 109.5 171.0 106.5 Q105.0 45.0 105.0 25.5 L99.0 25.5 M582.0 -7.5 L582.0 10.5 585.0 13.5 582.0 13.5 Q582.0 19.5 591.0 19.5 L591.0 25.5 585.0 25.5 582.0 22.5 Q569.5 83.0 525.0 121.5 L531.0 127.5 540.0 127.5 Q552.0 127.5 567.0 109.5 615.0 42.5 615.0 1.5 615.0 -4.5 585.0 -7.5 L582.0 -7.5 M465.0 -19.5 L435.0 -16.5 Q435.0 -10.5 444.0 -10.5 L444.0 -4.5 435.0 -4.5 435.0 16.5 Q427.0 61.5 417.0 61.5 L423.0 82.5 426.0 82.5 Q450.0 57.5 465.0 1.5 L462.0 1.5 465.0 -13.5 465.0 -19.5 M606.0 -79.5 L588.0 -70.5 588.0 -64.5 591.0 -61.5 Q567.0 -61.5 567.0 -52.5 L576.0 -40.5 Q576.0 -16.5 615.0 -16.5 L615.0 -31.5 606.0 -79.5 M42.0 -82.5 L45.0 -82.5 45.0 -76.5 42.0 -76.5 42.0 -82.5 M549.0 -109.5 L552.0 -109.5 561.0 -100.5 561.0 -91.5 549.0 -106.5 549.0 -109.5 M393.0 -112.5 L369.0 -103.5 369.0 -106.5 Q331.0 -85.5 327.0 -76.5 L327.0 -73.5 330.0 -76.5 333.0 -73.5 348.0 -82.5 366.0 -82.5 369.0 -79.5 369.0 -82.5 Q382.5 -73.5 396.0 -73.5 405.0 -73.5 405.0 -79.5 L411.0 -73.5 411.0 -70.5 393.0 -70.5 393.0 -67.5 420.0 -55.5 417.0 -52.5 426.0 -34.5 432.0 -40.5 432.0 -55.5 438.0 -55.5 438.0 -49.5 435.0 -34.5 438.0 -34.5 441.0 -37.5 456.0 -37.5 456.0 -43.5 459.0 -43.5 459.0 -37.5 465.0 -37.5 465.0 -43.5 Q465.0 -67.0 441.0 -94.5 L438.0 -94.5 435.0 -91.5 Q435.0 -103.5 399.0 -112.5 L396.0 -112.5 393.0 -109.5 393.0 -112.5 M42.0 -127.5 L45.0 -127.5 45.0 -121.5 42.0 -121.5 42.0 -127.5 M516.0 -136.5 L522.0 -130.5 522.0 -127.5 516.0 -127.5 513.0 -130.5 513.0 -133.5 516.0 -136.5 M504.0 -157.5 L504.0 -157.5 Q477.0 -136.5 477.0 -118.5 486.0 -100.5 495.0 -100.5 L495.0 -103.5 498.0 -106.5 Q498.0 -112.0 483.0 -115.5 L495.0 -127.5 498.0 -127.5 498.0 -124.5 Q529.0 -70.5 564.0 -70.5 L570.0 -70.5 570.0 -73.5 Q596.5 -85.0 597.0 -91.5 L597.0 -94.5 555.0 -145.5 552.0 -142.5 Q529.5 -157.5 519.0 -157.5 L507.0 -154.5 504.0 -157.5 M45.0 -226.5 L51.0 -226.5 51.0 -220.5 45.0 -220.5 45.0 -226.5 M84.0 -256.5 L84.0 -256.5 Q76.5 -256.5 66.0 -244.5 72.0 -202.5 81.0 -202.5 L84.0 -202.5 Q84.0 -238.5 105.0 -238.5 L105.0 -241.5 Q93.0 -241.5 84.0 -256.5 M9.0 -256.5 L0.0 -175.5 3.0 -166.5 0.0 -163.5 Q16.5 -30.0 60.0 16.5 L66.0 10.5 60.0 10.5 60.0 7.5 63.0 7.5 72.0 13.5 Q72.0 19.5 63.0 19.5 L63.0 22.5 87.0 55.5 Q87.0 32.0 96.0 22.5 L96.0 16.5 Q72.0 -50.5 72.0 -103.5 L78.0 -187.5 60.0 -223.5 Q60.0 -247.5 9.0 -256.5 M174.0 -265.5 L180.0 -265.5 180.0 -259.5 183.0 -262.5 192.0 -262.5 192.0 -259.5 Q183.0 -259.5 183.0 -253.5 L177.0 -253.5 174.0 -265.5 M99.0 -271.5 L87.0 -262.5 Q109.5 -238.5 126.0 -238.5 L249.0 -238.5 249.0 -241.5 195.0 -256.5 195.0 -259.5 198.0 -259.5 264.0 -238.5 300.0 -238.5 297.0 -262.5 294.0 -259.5 291.0 -259.5 294.0 -262.5 285.0 -271.5 99.0 -271.5 M300.0 -274.5 L306.0 -238.5 342.0 -238.5 Q360.0 -250.5 360.0 -259.5 L363.0 -256.5 372.0 -259.5 375.0 -259.5 351.0 -238.5 369.0 -238.5 369.0 -244.5 372.0 -244.5 372.0 -238.5 384.0 -238.5 384.0 -265.5 369.0 -268.5 369.0 -262.5 363.0 -262.5 Q363.0 -274.5 303.0 -274.5 L300.0 -274.5 M12.0 -277.5 L12.0 -259.5 54.0 -247.5 Q58.5 -247.5 63.0 -259.5 46.5 -259.5 12.0 -277.5 M303.0 -304.5 L306.0 -304.5 306.0 -298.5 303.0 -298.5 303.0 -304.5 M84.0 -328.5 L66.0 -313.5 66.0 -301.5 78.0 -271.5 Q94.5 -271.5 99.0 -304.5 93.0 -328.5 87.0 -328.5 L84.0 -328.5 M327.0 -334.5 L333.0 -340.5 336.0 -340.5 330.0 -334.5 327.0 -334.5 M300.0 -340.5 L318.0 -328.5 321.0 -328.5 324.0 -331.5 327.0 -331.5 327.0 -325.5 324.0 -325.5 321.0 -328.5 321.0 -325.5 336.0 -298.5 330.0 -298.5 330.0 -304.5 Q310.0 -334.5 300.0 -334.5 L300.0 -340.5 M45.0 -352.5 L45.0 -352.5 Q34.0 -352.5 15.0 -283.5 41.5 -268.5 69.0 -268.5 L72.0 -268.5 72.0 -271.5 69.0 -274.5 Q54.0 -274.5 45.0 -352.5 M282.0 -367.5 L297.0 -310.5 294.0 -310.5 297.0 -280.5 375.0 -271.5 384.0 -277.5 375.0 -331.5 Q375.0 -343.0 285.0 -367.5 L282.0 -367.5 M57.0 -379.5 L45.0 -358.5 Q54.0 -350.5 57.0 -316.5 L81.0 -334.5 84.0 -334.5 87.0 -331.5 Q69.0 -376.5 60.0 -379.5 L57.0 -379.5 M279.0 -394.5 L288.0 -403.5 291.0 -403.5 Q291.0 -394.5 297.0 -394.5 L297.0 -388.5 279.0 -391.5 279.0 -394.5 M291.0 -421.5 L297.0 -421.5 291.0 -415.5 291.0 -421.5 M192.0 -427.5 L192.0 -418.5 201.0 -418.5 192.0 -427.5 M165.0 -427.5 L162.0 -409.5 Q180.0 -412.5 180.0 -418.5 171.0 -418.5 171.0 -427.5 L165.0 -427.5 M273.0 -436.5 L279.0 -436.5 279.0 -427.5 276.0 -424.5 279.0 -421.5 279.0 -415.5 273.0 -415.5 270.0 -418.5 273.0 -436.5 M252.0 -442.5 L255.0 -442.5 258.0 -433.5 252.0 -427.5 246.0 -433.5 246.0 -436.5 252.0 -442.5 M156.0 -445.5 L156.0 -445.5 Q135.0 -441.0 135.0 -430.5 L132.0 -433.5 129.0 -433.5 Q84.0 -415.5 84.0 -394.5 L87.0 -394.5 84.0 -391.5 102.0 -334.5 120.0 -367.5 105.0 -370.5 111.0 -376.5 129.0 -376.5 129.0 -379.5 162.0 -415.5 156.0 -445.5 M165.0 -448.5 L162.0 -445.5 Q168.0 -427.5 174.0 -427.5 L180.0 -427.5 180.0 -433.5 Q173.5 -446.5 165.0 -448.5 M195.0 -451.5 L174.0 -448.5 174.0 -445.5 Q187.0 -445.5 204.0 -421.5 240.0 -415.0 249.0 -406.5 274.5 -382.5 282.0 -382.5 282.0 -370.5 291.0 -370.5 L294.0 -367.5 Q331.5 -361.5 369.0 -343.5 L372.0 -343.5 Q342.0 -415.5 318.0 -415.5 318.0 -425.5 291.0 -433.5 262.5 -451.5 204.0 -451.5 L195.0 -451.5" fill-rule="evenodd" stroke="none"/>
    </g>
    <g id="font_Angelic_War_s0">
      <path d="M648.0 283.5 L657.0 283.5 657.0 292.5 648.0 283.5 M1152.0 277.5 L1131.0 280.5 1131.0 283.5 1146.0 286.5 1152.0 277.5 M1167.0 274.5 L1161.0 280.5 1176.0 280.5 1176.0 274.5 1167.0 274.5 M639.0 268.5 L615.0 295.5 615.0 298.5 Q658.0 298.5 717.0 289.5 L717.0 277.5 711.0 271.5 654.0 271.5 639.0 268.5 M1125.0 265.5 L1125.0 271.5 1146.0 271.5 1146.0 268.5 1125.0 265.5 M432.0 262.5 L438.0 262.5 438.0 265.5 432.0 265.5 432.0 262.5 M771.0 250.5 L771.0 250.5 Q730.0 268.5 717.0 268.5 L726.0 286.5 780.0 265.5 771.0 250.5 M-219.0 247.5 L-219.0 250.5 Q-190.5 322.5 -138.0 322.5 L-120.0 322.5 Q-76.5 322.5 -60.0 292.5 L-60.0 271.5 -66.0 265.5 -81.0 265.5 Q-81.0 310.5 -123.0 310.5 L-132.0 310.5 Q-180.5 310.5 -204.0 247.5 L-219.0 247.5 M-219.0 232.5 L-219.0 238.5 -210.0 241.5 -207.0 241.5 -207.0 235.5 -216.0 232.5 -219.0 232.5 M-18.0 229.5 L-18.0 229.5 Q3.0 280.5 84.0 280.5 L93.0 280.5 123.0 277.5 123.0 268.5 72.0 274.5 Q-6.0 258.5 -6.0 229.5 L-18.0 229.5 M486.0 226.5 L447.0 274.5 480.0 283.5 Q480.0 274.5 492.0 268.5 L495.0 268.5 495.0 277.5 Q483.0 277.5 483.0 283.5 L516.0 277.5 519.0 280.5 522.0 280.5 525.0 277.5 525.0 280.5 Q543.0 280.5 543.0 292.5 543.0 297.0 582.0 298.5 L585.0 289.5 588.0 289.5 Q588.0 298.5 594.0 298.5 L600.0 298.5 Q601.5 283.5 618.0 265.5 552.0 254.0 486.0 226.5 M462.0 220.5 L453.0 229.5 465.0 229.5 465.0 235.5 453.0 235.5 453.0 229.5 Q436.5 235.5 432.0 244.5 L438.0 244.5 429.0 253.5 426.0 253.5 426.0 250.5 429.0 247.5 423.0 247.5 414.0 262.5 423.0 265.5 423.0 259.5 429.0 259.5 429.0 265.5 426.0 268.5 441.0 271.5 480.0 226.5 480.0 223.5 465.0 220.5 462.0 220.5 M246.0 220.5 L201.0 244.5 Q133.0 264.0 129.0 271.5 L129.0 274.5 132.0 274.5 Q246.0 246.0 246.0 226.5 L246.0 220.5 M375.0 217.5 L366.0 238.5 372.0 238.5 Q372.0 229.5 378.0 229.5 378.0 238.5 384.0 238.5 L384.0 241.5 369.0 241.5 369.0 244.5 408.0 259.5 438.0 232.5 438.0 229.5 375.0 217.5 M354.0 217.5 L351.0 235.5 Q357.0 234.0 363.0 220.5 L363.0 217.5 354.0 217.5 M1299.0 214.5 L1263.0 259.5 1260.0 256.5 1245.0 262.5 Q1240.0 277.5 1224.0 277.5 L1221.0 277.5 1221.0 274.5 1224.0 271.5 1194.0 274.5 1194.0 277.5 1197.0 280.5 1197.0 283.5 1194.0 286.5 1221.0 283.5 Q1305.0 257.0 1305.0 220.5 L1299.0 214.5 M282.0 211.5 L282.0 214.5 288.0 214.5 288.0 211.5 282.0 211.5 M270.0 211.5 L267.0 220.5 267.0 223.5 282.0 217.5 276.0 211.5 270.0 211.5 M264.0 211.5 L252.0 223.5 252.0 229.5 261.0 229.5 264.0 211.5 M501.0 190.5 L495.0 196.5 495.0 199.5 504.0 190.5 501.0 190.5 M270.0 190.5 L270.0 193.5 276.0 193.5 276.0 190.5 270.0 190.5 M393.0 184.5 L393.0 184.5 Q388.5 184.5 375.0 214.5 L444.0 226.5 Q453.0 226.5 459.0 214.5 L393.0 184.5 M939.0 181.5 L939.0 184.5 948.0 208.5 Q1037.5 267.5 1107.0 280.5 L1110.0 280.5 1107.0 271.5 1110.0 262.5 1110.0 259.5 Q1055.5 240.5 942.0 181.5 L939.0 181.5 M339.0 187.5 L348.0 184.5 351.0 184.5 351.0 190.5 339.0 190.5 339.0 187.5 M285.0 169.5 L300.0 169.5 300.0 175.5 291.0 178.5 291.0 175.5 285.0 175.5 285.0 169.5 M432.0 163.5 L432.0 169.5 435.0 169.5 435.0 163.5 432.0 163.5 M303.0 166.5 L309.0 166.5 309.0 169.5 303.0 169.5 303.0 166.5 M315.0 163.5 L321.0 163.5 321.0 166.5 315.0 166.5 315.0 163.5 M6.0 163.5 L15.0 163.5 15.0 169.5 12.0 169.5 6.0 163.5 M42.0 145.5 L42.0 145.5 Q-21.0 145.5 -21.0 202.5 L-21.0 223.5 -18.0 226.5 -9.0 223.5 -9.0 214.5 Q-9.0 187.5 18.0 172.5 L84.0 193.5 99.0 187.5 Q99.0 193.5 114.0 193.5 123.0 193.5 123.0 184.5 L126.0 187.5 141.0 172.5 42.0 145.5 M615.0 142.5 L615.0 145.5 621.0 145.5 621.0 142.5 615.0 142.5 615.0 139.5 606.0 139.5 606.0 142.5 615.0 142.5 M399.0 136.5 L399.0 142.5 396.0 139.5 Q366.0 139.5 345.0 181.5 L342.0 181.5 342.0 178.5 345.0 175.5 345.0 172.5 342.0 172.5 Q327.0 180.0 327.0 196.5 L327.0 205.5 333.0 211.5 345.0 211.5 366.0 214.5 384.0 178.5 366.0 169.5 Q404.5 145.5 405.0 139.5 L405.0 136.5 399.0 136.5 M195.0 142.5 L201.0 136.5 201.0 142.5 195.0 142.5 M-195.0 133.5 L-195.0 133.5 Q-222.0 160.5 -222.0 205.5 L-222.0 223.5 -213.0 223.5 -210.0 220.5 Q-210.0 174.5 -180.0 139.5 L-180.0 136.5 -183.0 136.5 -186.0 139.5 -189.0 139.5 -195.0 133.5 M522.0 130.5 L522.0 133.5 Q526.5 145.5 543.0 151.5 L546.0 151.5 Q546.0 145.5 537.0 145.5 L537.0 142.5 543.0 142.5 543.0 139.5 522.0 130.5 522.0 124.5 Q539.5 139.5 558.0 139.5 594.0 139.5 594.0 124.5 578.5 106.5 570.0 106.5 554.5 74.0 510.0 16.5 L510.0 16.5 Q469.5 16.5 462.0 46.5 L510.0 31.5 519.0 37.5 Q519.0 48.5 492.0 73.5 L492.0 76.5 495.0 79.5 Q484.5 79.5 426.0 130.5 L426.0 133.5 456.0 115.5 459.0 118.5 Q459.0 111.0 507.0 85.5 L513.0 85.5 519.0 130.5 522.0 130.5 M261.0 133.5 L261.0 133.5 Q277.5 133.5 282.0 148.5 282.0 153.5 264.0 160.5 L261.0 160.5 267.0 145.5 264.0 145.5 258.0 139.5 258.0 136.5 261.0 133.5 M240.0 118.5 L240.0 118.5 Q240.0 141.5 213.0 163.5 L255.0 184.5 267.0 181.5 273.0 181.5 273.0 184.5 Q264.0 184.5 264.0 190.5 L273.0 187.5 276.0 187.5 279.0 190.5 282.0 187.5 282.0 184.5 279.0 181.5 279.0 178.5 285.0 178.5 285.0 184.5 288.0 184.5 291.0 181.5 294.0 181.5 Q279.0 202.5 273.0 202.5 L273.0 205.5 312.0 211.5 Q312.0 200.0 327.0 175.5 L306.0 178.5 303.0 178.5 303.0 172.5 Q336.0 170.0 336.0 163.5 L327.0 163.5 333.0 157.5 Q333.0 150.5 240.0 118.5 M594.0 115.5 L594.0 118.5 600.0 118.5 600.0 115.5 594.0 115.5 M420.0 109.5 L420.0 115.5 423.0 115.5 423.0 109.5 420.0 109.5 M321.0 100.5 L321.0 103.5 327.0 103.5 327.0 100.5 321.0 100.5 M741.0 97.5 L699.0 103.5 Q657.0 123.5 657.0 145.5 L657.0 163.5 Q667.0 217.5 702.0 217.5 L711.0 217.5 Q735.0 217.5 735.0 193.5 735.0 183.0 726.0 175.5 672.0 171.5 672.0 151.5 672.0 113.0 741.0 106.5 L756.0 109.5 762.0 109.5 762.0 103.5 756.0 97.5 741.0 97.5 M141.0 94.5 L150.0 94.5 150.0 97.5 141.0 97.5 141.0 94.5 M156.0 79.5 L162.0 79.5 162.0 82.5 156.0 82.5 156.0 79.5 M1158.0 70.5 L1158.0 70.5 Q1125.0 90.5 1125.0 121.5 L1125.0 127.5 Q1125.0 175.5 1164.0 181.5 L1170.0 181.5 1185.0 163.5 1185.0 160.5 Q1140.0 143.0 1140.0 130.5 L1140.0 127.5 Q1144.5 96.5 1167.0 79.5 L1158.0 70.5 M-39.0 67.5 L-39.0 67.5 Q-75.0 86.0 -75.0 91.5 -33.0 88.5 -33.0 76.5 L-33.0 67.5 -39.0 67.5 M117.0 64.5 L117.0 70.5 120.0 70.5 126.0 64.5 117.0 64.5 M1212.0 61.5 L1176.0 61.5 1173.0 64.5 1179.0 73.5 1212.0 70.5 Q1305.0 88.5 1305.0 157.5 L1308.0 154.5 1311.0 154.5 1305.0 187.5 Q1305.0 196.5 1317.0 199.5 L1320.0 169.5 1320.0 160.5 Q1320.0 145.5 1311.0 145.5 L1311.0 142.5 1314.0 139.5 1314.0 130.5 1302.0 130.5 1302.0 127.5 1311.0 127.5 Q1279.0 61.5 1212.0 61.5 M267.0 58.5 L267.0 64.5 261.0 64.5 258.0 61.5 Q253.0 71.0 204.0 82.5 L204.0 79.5 168.0 85.5 165.0 82.5 165.0 79.5 168.0 76.5 159.0 76.5 159.0 70.5 162.0 67.5 153.0 67.5 156.0 70.5 153.0 79.5 144.0 79.5 141.0 76.5 138.0 79.5 135.0 79.5 135.0 76.5 138.0 73.5 138.0 70.5 132.0 70.5 132.0 76.5 18.0 64.5 -30.0 64.5 -30.0 67.5 -27.0 70.5 -27.0 88.5 Q16.5 91.5 69.0 103.5 85.5 88.5 96.0 88.5 L99.0 88.5 99.0 94.5 72.0 103.5 72.0 109.5 75.0 106.5 Q102.0 106.5 210.0 160.5 L210.0 151.5 Q231.0 140.0 237.0 115.5 225.0 115.5 225.0 109.5 250.0 109.5 282.0 58.5 L267.0 58.5 M348.0 55.5 L348.0 61.5 351.0 61.5 351.0 55.5 348.0 55.5 M168.0 55.5 L162.0 61.5 168.0 61.5 168.0 55.5 M324.0 46.5 L318.0 52.5 324.0 52.5 330.0 46.5 324.0 46.5 M498.0 43.5 L498.0 43.5 Q465.0 43.5 450.0 82.5 487.5 82.5 507.0 43.5 L498.0 43.5 M237.0 37.5 L237.0 43.5 240.0 43.5 240.0 37.5 237.0 37.5 M546.0 31.5 L555.0 31.5 555.0 37.5 546.0 37.5 546.0 31.5 M462.0 28.5 L378.0 46.5 375.0 46.5 372.0 43.5 369.0 43.5 366.0 46.5 363.0 46.5 Q378.0 82.5 432.0 82.5 L438.0 82.5 Q462.0 39.0 462.0 28.5 M210.0 28.5 L189.0 34.5 192.0 43.5 201.0 43.5 210.0 34.5 210.0 28.5 M459.0 13.5 L459.0 16.5 468.0 16.5 468.0 13.5 459.0 13.5 M336.0 10.5 L336.0 16.5 339.0 16.5 345.0 10.5 336.0 10.5 M279.0 7.5 L273.0 46.5 282.0 46.5 288.0 40.5 288.0 19.5 285.0 16.5 288.0 13.5 288.0 10.5 279.0 7.5 M-21.0 7.5 L-21.0 16.5 -18.0 16.5 -18.0 7.5 -21.0 7.5 M222.0 7.5 L228.0 7.5 234.0 13.5 222.0 13.5 222.0 7.5 M-3.0 4.5 L-3.0 7.5 3.0 7.5 3.0 4.5 -3.0 4.5 M705.0 1.5 L705.0 10.5 711.0 10.5 747.0 28.5 Q831.0 61.5 831.0 118.5 L831.0 124.5 780.0 103.5 777.0 103.5 777.0 115.5 Q799.0 115.5 831.0 139.5 L831.0 145.5 Q831.0 197.0 789.0 232.5 796.0 250.5 801.0 250.5 852.0 207.5 852.0 148.5 L927.0 196.5 924.0 172.5 852.0 133.5 Q842.5 91.5 834.0 91.5 L837.0 88.5 831.0 73.5 Q775.0 1.5 708.0 1.5 L705.0 1.5 M24.0 -1.5 L30.0 4.5 30.0 -1.5 24.0 -1.5 M636.0 -4.5 L636.0 -4.5 Q584.5 -4.5 519.0 10.5 529.5 33.5 567.0 76.5 L567.0 70.5 Q589.5 38.0 648.0 22.5 672.0 22.5 672.0 10.5 L675.0 10.5 Q675.0 19.5 681.0 19.5 L687.0 19.5 687.0 -1.5 672.0 -4.5 636.0 -4.5 M441.0 -7.5 L441.0 -7.5 Q436.0 -1.5 411.0 -1.5 L411.0 1.5 414.0 4.5 Q447.0 4.5 447.0 -7.5 L441.0 -7.5 M537.0 -13.5 L537.0 -10.5 543.0 -10.5 543.0 -13.5 537.0 -13.5 M243.0 -16.5 L243.0 -13.5 246.0 -10.5 Q218.5 -10.5 216.0 13.5 L216.0 19.5 Q228.0 19.5 228.0 25.5 L231.0 28.5 234.0 25.5 240.0 25.5 237.0 13.5 Q238.5 7.5 252.0 1.5 262.0 1.5 273.0 10.5 L276.0 10.5 279.0 1.5 Q268.0 -10.5 249.0 -10.5 L249.0 -13.5 252.0 -16.5 243.0 -16.5 M306.0 -19.5 L300.0 -13.5 306.0 -13.5 306.0 -19.5 309.0 -19.5 309.0 -25.5 306.0 -25.5 306.0 -19.5 M264.0 -19.5 L264.0 -10.5 270.0 -10.5 273.0 -13.5 267.0 -19.5 264.0 -19.5 M387.0 -22.5 L387.0 -16.5 390.0 -16.5 390.0 -22.5 387.0 -22.5 M282.0 -22.5 L282.0 -16.5 288.0 -16.5 288.0 -22.5 282.0 -22.5 M345.0 -37.5 L345.0 -34.5 348.0 -31.5 354.0 -37.5 345.0 -37.5 M384.0 -55.5 L390.0 -49.5 390.0 -55.5 384.0 -55.5 M273.0 -61.5 L282.0 -61.5 282.0 -55.5 273.0 -55.5 273.0 -61.5 M216.0 -64.5 L210.0 -52.5 210.0 -49.5 213.0 -46.5 225.0 -58.5 225.0 -64.5 216.0 -64.5 M177.0 -64.5 L168.0 -55.5 174.0 -55.5 180.0 -61.5 180.0 -64.5 177.0 -64.5 M159.0 -64.5 L159.0 -58.5 162.0 -58.5 162.0 -64.5 159.0 -64.5 M393.0 -67.5 L387.0 -61.5 393.0 -61.5 393.0 -67.5 M195.0 -73.5 L201.0 -67.5 201.0 -73.5 195.0 -73.5 M387.0 -79.5 L387.0 -76.5 393.0 -76.5 393.0 -79.5 387.0 -79.5 M312.0 -82.5 L306.0 -76.5 306.0 -73.5 312.0 -79.5 312.0 -82.5 M111.0 -82.5 L111.0 -79.5 120.0 -79.5 120.0 -82.5 111.0 -82.5 M576.0 -85.5 L576.0 -85.5 Q576.0 -52.5 543.0 -13.5 574.0 -13.5 591.0 -76.5 591.0 -82.0 576.0 -85.5 M159.0 -85.5 L153.0 -79.5 Q154.5 -73.5 168.0 -67.5 L174.0 -76.5 171.0 -76.5 174.0 -79.5 174.0 -82.5 171.0 -85.5 168.0 -82.5 165.0 -82.5 162.0 -85.5 159.0 -85.5 M354.0 -79.5 L360.0 -85.5 360.0 -79.5 354.0 -79.5 M234.0 -88.5 L234.0 -85.5 240.0 -85.5 240.0 -88.5 234.0 -88.5 M222.0 -88.5 L219.0 -88.5 216.0 -85.5 216.0 -82.5 219.0 -79.5 228.0 -82.5 222.0 -88.5 M333.0 -94.5 L333.0 -94.5 Q318.0 -94.5 315.0 -85.5 L315.0 -76.5 324.0 -76.5 339.0 -88.5 339.0 -94.5 333.0 -94.5 M108.0 -94.5 L108.0 -88.5 105.0 -88.5 102.0 -91.5 102.0 -85.5 111.0 -85.5 111.0 -94.5 108.0 -94.5 M-51.0 -100.5 L-51.0 -94.5 -48.0 -94.5 -48.0 -100.5 -51.0 -100.5 M576.0 -103.5 L576.0 -100.5 Q577.5 -94.5 591.0 -88.5 L591.0 -97.5 576.0 -103.5 M159.0 -103.5 L159.0 -100.5 165.0 -100.5 165.0 -103.5 159.0 -103.5 M327.0 -109.5 L321.0 -103.5 321.0 -97.5 327.0 -97.5 330.0 -100.5 330.0 -109.5 327.0 -109.5 M174.0 -109.5 L168.0 -103.5 177.0 -103.5 177.0 -106.5 174.0 -109.5 M219.0 -124.5 L219.0 -118.5 225.0 -118.5 225.0 -124.5 219.0 -124.5 M345.0 -127.5 L345.0 -124.5 351.0 -124.5 351.0 -127.5 345.0 -127.5 M123.0 -127.5 L117.0 -121.5 117.0 -118.5 123.0 -124.5 123.0 -127.5 M159.0 -133.5 L153.0 -127.5 153.0 -121.5 159.0 -121.5 165.0 -127.5 165.0 -133.5 159.0 -133.5 M363.0 -139.5 L357.0 -139.5 354.0 -136.5 354.0 -133.5 357.0 -130.5 363.0 -136.5 363.0 -139.5 M375.0 -142.5 L375.0 -139.5 381.0 -139.5 381.0 -142.5 375.0 -142.5 M186.0 -148.5 L183.0 -139.5 186.0 -139.5 192.0 -145.5 192.0 -148.5 186.0 -148.5 M132.0 -151.5 L132.0 -139.5 135.0 -139.5 138.0 -142.5 135.0 -151.5 132.0 -151.5 M339.0 -154.5 L339.0 -151.5 345.0 -151.5 345.0 -154.5 339.0 -154.5 M180.0 -154.5 L180.0 -148.5 186.0 -154.5 180.0 -154.5 M-9.0 -157.5 L-9.0 -121.5 -12.0 -118.5 -6.0 -79.5 -9.0 -70.5 12.0 -67.5 69.0 -67.5 Q21.0 -128.5 21.0 -157.5 L-9.0 -157.5 M372.0 -160.5 L357.0 -151.5 357.0 -148.5 372.0 -145.5 375.0 -145.5 378.0 -154.5 372.0 -160.5 M468.0 -166.5 L468.0 -166.5 Q453.0 -157.5 453.0 -145.5 L453.0 -130.5 456.0 -130.5 Q456.0 -145.0 471.0 -166.5 L468.0 -166.5 M321.0 -166.5 L321.0 -163.5 327.0 -163.5 327.0 -166.5 321.0 -166.5 M135.0 -166.5 L135.0 -157.5 138.0 -157.5 138.0 -166.5 135.0 -166.5 M405.0 -178.5 L405.0 -178.5 Q400.0 -178.5 399.0 -154.5 399.0 -148.5 420.0 -148.5 L426.0 -175.5 405.0 -178.5 M495.0 -181.5 L483.0 -178.5 483.0 -175.5 486.0 -172.5 489.0 -172.5 492.0 -175.5 495.0 -175.5 Q527.5 -175.5 549.0 -157.5 L579.0 -112.5 588.0 -112.5 588.0 -121.5 582.0 -121.5 585.0 -124.5 Q562.0 -181.5 495.0 -181.5 M435.0 -184.5 L435.0 -178.5 438.0 -178.5 438.0 -184.5 435.0 -184.5 M312.0 -184.5 L306.0 -178.5 306.0 -175.5 309.0 -178.5 312.0 -178.5 315.0 -175.5 315.0 -184.5 312.0 -184.5 M120.0 -184.5 L120.0 -178.5 123.0 -178.5 123.0 -184.5 120.0 -184.5 M216.0 -187.5 L216.0 -187.5 Q228.0 -183.0 237.0 -163.5 L225.0 -163.5 216.0 -184.5 216.0 -187.5 M336.0 -199.5 L321.0 -196.5 321.0 -178.5 Q351.0 -178.5 351.0 -187.5 L351.0 -193.5 336.0 -199.5 M447.0 -214.5 L447.0 -208.5 450.0 -208.5 450.0 -214.5 447.0 -214.5 M390.0 -226.5 L390.0 -223.5 396.0 -223.5 396.0 -226.5 390.0 -226.5 M318.0 -235.5 L318.0 -226.5 324.0 -226.5 327.0 -229.5 321.0 -235.5 318.0 -235.5 M441.0 -238.5 L435.0 -232.5 441.0 -232.5 441.0 -238.5 M333.0 -244.5 L333.0 -241.5 339.0 -241.5 339.0 -244.5 333.0 -244.5 333.0 -253.5 330.0 -253.5 327.0 -244.5 333.0 -244.5 M432.0 -247.5 L432.0 -244.5 438.0 -238.5 438.0 -241.5 432.0 -247.5 M195.0 -250.5 L195.0 -244.5 201.0 -250.5 195.0 -250.5 M363.0 -253.5 L357.0 -247.5 357.0 -244.5 366.0 -244.5 366.0 -253.5 363.0 -253.5 M348.0 -259.5 L342.0 -253.5 342.0 -250.5 348.0 -250.5 348.0 -259.5 M318.0 -259.5 L318.0 -253.5 Q306.0 -253.5 306.0 -247.5 L306.0 -241.5 315.0 -232.5 324.0 -259.5 318.0 -259.5 M192.0 -277.5 L186.0 -271.5 186.0 -268.5 195.0 -268.5 195.0 -277.5 192.0 -277.5 M462.0 -280.5 L456.0 -274.5 462.0 -274.5 462.0 -280.5 M204.0 -286.5 L204.0 -283.5 210.0 -277.5 216.0 -283.5 216.0 -286.5 204.0 -286.5 M3.0 -310.5 L9.0 -283.5 -36.0 -283.5 Q-130.5 -283.5 -198.0 -229.5 -261.0 -144.0 -261.0 -94.5 -261.0 -47.5 -237.0 -1.5 L-234.0 -1.5 -234.0 -4.5 Q-246.0 -31.5 -246.0 -70.5 -246.0 -157.5 -162.0 -220.5 -117.0 -240.0 -117.0 -244.5 L-114.0 -241.5 Q-76.5 -253.5 -51.0 -253.5 L-39.0 -253.5 Q35.5 -253.5 66.0 -220.5 L210.0 -166.5 210.0 -163.5 207.0 -160.5 Q227.5 -160.5 240.0 -133.5 L237.0 -130.5 237.0 -124.5 Q246.0 -124.5 246.0 -118.5 L234.0 -118.5 234.0 -109.5 237.0 -109.5 246.0 -115.5 246.0 -100.5 237.0 -67.5 240.0 -64.5 240.0 -61.5 237.0 -64.5 Q219.0 -43.5 207.0 -43.5 L207.0 -40.5 Q189.0 -31.5 150.0 -31.5 L138.0 -31.5 132.0 -37.5 Q144.0 -37.5 144.0 -43.5 L144.0 -46.5 141.0 -46.5 126.0 -34.5 111.0 -40.5 66.0 -64.5 42.0 -61.5 18.0 -64.5 -6.0 -64.5 -6.0 -7.5 27.0 -7.5 36.0 -34.5 Q89.5 1.5 153.0 1.5 L153.0 4.5 Q143.5 4.5 138.0 19.5 L147.0 22.5 Q162.0 20.0 162.0 13.5 L162.0 4.5 159.0 1.5 168.0 1.5 171.0 4.5 Q171.0 0.5 189.0 -1.5 L189.0 4.5 Q245.5 -16.5 273.0 -37.5 L276.0 -37.5 276.0 -31.5 282.0 -31.5 282.0 -37.5 279.0 -40.5 300.0 -37.5 309.0 -40.5 306.0 -31.5 306.0 -28.5 309.0 -25.5 Q318.0 -25.5 318.0 -19.5 L312.0 -19.5 312.0 -13.5 315.0 -10.5 321.0 -16.5 360.0 4.5 357.0 19.5 357.0 40.5 366.0 40.5 369.0 37.5 369.0 40.5 459.0 19.5 459.0 16.5 Q399.0 13.5 399.0 1.5 L396.0 4.5 Q382.5 4.5 327.0 -37.5 L333.0 -43.5 348.0 -43.5 348.0 -55.5 339.0 -55.5 312.0 -43.5 324.0 -64.5 327.0 -64.5 327.0 -58.5 324.0 -55.5 324.0 -52.5 378.0 -85.5 375.0 -88.5 375.0 -91.5 378.0 -88.5 Q403.5 -112.0 414.0 -139.5 414.0 -145.5 399.0 -145.5 L387.0 -139.5 Q387.0 -130.5 381.0 -130.5 L384.0 -127.5 Q384.0 -117.0 336.0 -73.5 L342.0 -73.5 342.0 -70.5 336.0 -70.5 333.0 -73.5 303.0 -61.5 300.0 -61.5 297.0 -64.5 Q301.5 -88.5 309.0 -88.5 L306.0 -91.5 318.0 -109.5 312.0 -109.5 312.0 -121.5 Q321.0 -121.5 321.0 -127.5 L321.0 -130.5 312.0 -130.5 315.0 -133.5 312.0 -160.5 Q312.0 -179.5 264.0 -184.5 L264.0 -187.5 267.0 -190.5 261.0 -190.5 261.0 -193.5 264.0 -193.5 297.0 -187.5 300.0 -187.5 300.0 -190.5 285.0 -211.5 Q252.0 -238.0 252.0 -247.5 L249.0 -247.5 246.0 -244.5 228.0 -250.5 225.0 -250.5 225.0 -244.5 Q225.0 -230.5 240.0 -214.5 247.5 -184.5 252.0 -184.5 L255.0 -184.5 258.0 -187.5 Q271.0 -176.5 279.0 -157.5 L273.0 -151.5 264.0 -151.5 Q245.5 -165.0 225.0 -199.5 103.0 -250.5 3.0 -310.5 M33.0 -337.5 L36.0 -337.5 Q69.0 -325.5 69.0 -319.5 L33.0 -334.5 33.0 -337.5 M36.0 -409.5 L36.0 -409.5 Q3.0 -382.0 3.0 -337.5 L3.0 -325.5 54.0 -292.5 Q193.0 -220.5 201.0 -220.5 L207.0 -220.5 171.0 -271.5 Q69.0 -299.5 69.0 -349.5 L69.0 -376.5 Q62.5 -376.5 36.0 -409.5 M84.0 -442.5 L84.0 -442.5 Q61.0 -436.5 45.0 -418.5 L72.0 -385.5 Q104.5 -415.5 111.0 -415.5 L84.0 -442.5 M126.0 -451.5 L87.0 -445.5 114.0 -418.5 153.0 -421.5 168.0 -418.5 Q168.0 -432.0 126.0 -451.5 M255.0 -454.5 L255.0 -454.5 Q250.5 -454.5 243.0 -433.5 L177.0 -451.5 165.0 -451.5 165.0 -448.5 195.0 -442.5 195.0 -439.5 192.0 -439.5 150.0 -448.5 150.0 -445.5 177.0 -418.5 Q212.5 -403.5 219.0 -391.5 169.5 -358.5 168.0 -343.5 L168.0 -340.5 Q205.5 -378.0 225.0 -382.5 241.0 -382.5 261.0 -316.5 L291.0 -316.5 291.0 -319.5 288.0 -322.5 288.0 -382.5 285.0 -385.5 288.0 -388.5 324.0 -376.5 Q408.0 -343.0 408.0 -226.5 L408.0 -214.5 402.0 -214.5 402.0 -211.5 408.0 -211.5 408.0 -193.5 429.0 -190.5 432.0 -190.5 435.0 -205.5 435.0 -208.5 429.0 -226.5 435.0 -232.5 429.0 -232.5 426.0 -229.5 414.0 -268.5 417.0 -283.5 414.0 -298.5 417.0 -307.5 411.0 -307.5 411.0 -322.5 Q411.0 -336.0 381.0 -367.5 326.5 -403.5 285.0 -403.5 L285.0 -433.5 282.0 -454.5 255.0 -454.5" fill-rule="evenodd" stroke="none"/>
    </g>
    <g id="font_Angelic_War_v0">
      <path d="M171.0 181.5 L171.0 187.5 177.0 187.5 171.0 181.5 M144.0 160.5 L144.0 163.5 150.0 169.5 150.0 166.5 144.0 160.5 M159.0 154.5 L147.0 157.5 147.0 160.5 150.0 163.5 159.0 160.5 159.0 154.5 M141.0 151.5 L141.0 157.5 144.0 157.5 144.0 151.5 141.0 151.5 141.0 145.5 129.0 127.5 126.0 127.5 126.0 130.5 135.0 151.5 141.0 151.5 M153.0 148.5 L147.0 154.5 156.0 154.5 156.0 148.5 153.0 148.5 M87.0 145.5 L87.0 148.5 96.0 151.5 96.0 145.5 87.0 145.5 90.0 133.5 Q84.0 133.5 84.0 118.5 L78.0 124.5 78.0 127.5 84.0 145.5 87.0 145.5 M123.0 112.5 L123.0 115.5 Q124.5 127.5 132.0 127.5 L132.0 118.5 126.0 112.5 123.0 112.5 M105.0 112.5 L102.0 121.5 102.0 124.5 111.0 121.5 111.0 112.5 105.0 112.5 M189.0 109.5 L183.0 115.5 192.0 115.5 192.0 109.5 189.0 109.5 M195.0 106.5 L201.0 112.5 204.0 112.5 198.0 106.5 195.0 106.5 M153.0 106.5 L153.0 109.5 159.0 109.5 159.0 106.5 153.0 106.5 153.0 103.5 150.0 100.5 144.0 106.5 153.0 106.5 M129.0 103.5 L126.0 112.5 141.0 124.5 144.0 124.5 144.0 118.5 141.0 115.5 144.0 115.5 Q142.5 109.5 129.0 103.5 M114.0 94.5 L114.0 94.5 Q96.0 98.0 96.0 103.5 L96.0 106.5 105.0 100.5 111.0 100.5 Q111.0 109.5 117.0 109.5 L117.0 103.5 120.0 106.5 126.0 100.5 120.0 94.5 117.0 94.5 117.0 100.5 114.0 100.5 114.0 94.5 M138.0 91.5 L138.0 94.5 144.0 94.5 144.0 91.5 138.0 91.5 M117.0 88.5 L117.0 91.5 123.0 91.5 123.0 88.5 117.0 88.5 M66.0 88.5 L66.0 94.5 60.0 94.5 57.0 91.5 57.0 97.5 63.0 103.5 72.0 100.5 69.0 97.5 72.0 94.5 66.0 88.5 M204.0 85.5 L204.0 88.5 210.0 94.5 213.0 94.5 210.0 85.5 204.0 85.5 M174.0 85.5 L174.0 91.5 180.0 85.5 174.0 85.5 M192.0 82.5 L198.0 88.5 198.0 82.5 192.0 82.5 M141.0 82.5 L141.0 85.5 147.0 85.5 147.0 82.5 141.0 82.5 M123.0 82.5 L123.0 88.5 126.0 88.5 126.0 82.5 123.0 82.5 M102.0 79.5 L102.0 82.5 108.0 82.5 108.0 79.5 102.0 79.5 M162.0 76.5 L162.0 82.5 165.0 82.5 165.0 76.5 162.0 76.5 M96.0 76.5 L96.0 85.5 102.0 91.5 102.0 82.5 99.0 79.5 102.0 76.5 96.0 76.5 M237.0 73.5 L237.0 76.5 243.0 76.5 243.0 73.5 237.0 73.5 M111.0 73.5 L111.0 79.5 114.0 82.5 108.0 82.5 108.0 91.5 111.0 91.5 117.0 85.5 117.0 79.5 111.0 73.5 M369.0 70.5 L369.0 76.5 375.0 76.5 375.0 70.5 369.0 70.5 M213.0 67.5 L213.0 70.5 219.0 70.5 219.0 67.5 213.0 67.5 M135.0 64.5 L135.0 70.5 141.0 64.5 135.0 64.5 M246.0 58.5 L240.0 64.5 243.0 64.5 249.0 58.5 246.0 58.5 M372.0 55.5 L372.0 61.5 381.0 61.5 381.0 58.5 372.0 55.5 M207.0 55.5 L207.0 64.5 210.0 64.5 210.0 55.5 207.0 55.5 M396.0 52.5 L381.0 55.5 381.0 58.5 387.0 58.5 399.0 55.5 399.0 52.5 396.0 52.5 M411.0 37.5 L411.0 40.5 417.0 40.5 417.0 37.5 411.0 37.5 M381.0 31.5 L381.0 37.5 384.0 37.5 384.0 31.5 381.0 31.5 M285.0 28.5 L285.0 28.5 Q265.0 34.5 261.0 46.5 L270.0 46.5 Q270.0 39.5 282.0 34.5 L285.0 34.5 288.0 37.5 288.0 31.5 285.0 28.5 M297.0 25.5 L291.0 31.5 297.0 31.5 303.0 25.5 297.0 25.5 M429.0 7.5 L420.0 16.5 423.0 16.5 429.0 10.5 429.0 7.5 M252.0 7.5 L258.0 16.5 267.0 10.5 270.0 10.5 273.0 13.5 273.0 10.5 276.0 7.5 252.0 7.5 M285.0 1.5 L285.0 4.5 294.0 4.5 294.0 1.5 285.0 1.5 M228.0 -1.5 L228.0 1.5 234.0 7.5 237.0 7.5 243.0 1.5 243.0 -1.5 234.0 1.5 231.0 1.5 228.0 -1.5 M129.0 -1.5 L123.0 4.5 129.0 4.5 129.0 -1.5 M174.0 -10.5 L180.0 1.5 183.0 1.5 183.0 -10.5 174.0 -10.5 M291.0 -16.5 L288.0 -4.5 297.0 -4.5 297.0 -10.5 291.0 -16.5 282.0 -25.5 279.0 -25.5 279.0 -22.5 282.0 -19.5 273.0 -19.5 261.0 -28.5 258.0 -28.5 261.0 -25.5 258.0 -22.5 Q260.5 -14.5 273.0 -7.5 L285.0 -7.5 Q285.0 -16.5 291.0 -16.5 M276.0 -16.5 L282.0 -16.5 282.0 -13.5 276.0 -13.5 276.0 -16.5 M159.0 -28.5 L159.0 -22.5 162.0 -22.5 162.0 -28.5 159.0 -28.5 M252.0 -40.5 L252.0 -31.5 258.0 -31.5 258.0 -34.5 252.0 -40.5 M273.0 -43.5 L273.0 -37.5 279.0 -37.5 279.0 -34.5 276.0 -31.5 276.0 -28.5 285.0 -37.5 285.0 -43.5 273.0 -43.5 M114.0 -43.5 L108.0 -37.5 108.0 -34.5 114.0 -40.5 114.0 -43.5 M291.0 -52.5 L291.0 -49.5 297.0 -49.5 297.0 -52.5 291.0 -52.5 M24.0 -52.5 L24.0 -46.5 27.0 -46.5 27.0 -52.5 24.0 -52.5 M306.0 -55.5 L300.0 -49.5 306.0 -49.5 306.0 -55.5 M171.0 -55.5 L171.0 -52.5 177.0 -52.5 177.0 -55.5 171.0 -55.5 M81.0 -55.5 L81.0 -55.5 Q75.0 -55.5 75.0 -46.5 L69.0 -46.5 69.0 -43.5 75.0 -43.5 69.0 -37.5 69.0 -34.5 72.0 -31.5 66.0 -31.5 66.0 -19.5 81.0 -22.5 81.0 -25.5 75.0 -25.5 75.0 -28.5 78.0 -31.5 78.0 -34.5 75.0 -37.5 81.0 -37.5 81.0 -40.5 78.0 -43.5 78.0 -46.5 84.0 -55.5 81.0 -55.5 M225.0 -64.5 L228.0 -64.5 228.0 -58.5 225.0 -58.5 225.0 -64.5 M291.0 -70.5 L291.0 -58.5 297.0 -58.5 294.0 -70.5 291.0 -70.5 M228.0 -73.5 L237.0 -73.5 237.0 -70.5 228.0 -70.5 228.0 -73.5 M285.0 -79.5 L282.0 -79.5 279.0 -76.5 285.0 -70.5 285.0 -79.5 M246.0 -76.5 L249.0 -76.5 255.0 -70.5 246.0 -70.5 246.0 -76.5 M360.0 -91.5 L360.0 -85.5 366.0 -85.5 360.0 -91.5 M15.0 -103.5 L12.0 -94.5 15.0 -91.5 27.0 -94.5 27.0 -97.5 15.0 -103.5 M294.0 -106.5 L279.0 -103.5 285.0 -97.5 294.0 -97.5 297.0 -100.5 297.0 -103.5 294.0 -106.5 M405.0 -112.5 L405.0 -109.5 411.0 -109.5 411.0 -112.5 405.0 -112.5 M315.0 -118.5 L312.0 -109.5 312.0 -106.5 327.0 -112.5 327.0 -106.5 321.0 -97.5 327.0 -97.5 321.0 -88.5 Q306.0 -91.0 306.0 -97.5 L288.0 -91.5 276.0 -94.5 273.0 -94.5 Q273.0 -89.5 309.0 -79.5 328.5 -87.0 330.0 -94.5 L333.0 -94.5 333.0 -91.5 330.0 -88.5 330.0 -85.5 342.0 -85.5 342.0 -88.5 336.0 -88.5 336.0 -97.5 339.0 -97.5 342.0 -94.5 348.0 -94.5 354.0 -100.5 354.0 -106.5 351.0 -106.5 348.0 -103.5 Q348.0 -112.5 342.0 -112.5 L342.0 -106.5 315.0 -118.5 M195.0 -115.5 L201.0 -115.5 198.0 -103.5 195.0 -103.5 195.0 -115.5 M177.0 -115.5 L183.0 -115.5 183.0 -112.5 177.0 -112.5 177.0 -115.5 M375.0 -121.5 L369.0 -121.5 366.0 -118.5 372.0 -112.5 375.0 -112.5 375.0 -121.5 M390.0 -124.5 L390.0 -121.5 396.0 -121.5 396.0 -124.5 390.0 -124.5 M306.0 -127.5 L306.0 -121.5 309.0 -121.5 309.0 -127.5 306.0 -127.5 M348.0 -130.5 L342.0 -124.5 348.0 -124.5 348.0 -130.5 M387.0 -136.5 L381.0 -130.5 387.0 -130.5 387.0 -136.5 M303.0 -136.5 L303.0 -130.5 309.0 -130.5 303.0 -136.5 M288.0 -136.5 L288.0 -133.5 294.0 -133.5 294.0 -136.5 288.0 -136.5 M336.0 -139.5 L336.0 -133.5 339.0 -133.5 339.0 -139.5 336.0 -139.5 M285.0 -145.5 L279.0 -139.5 282.0 -139.5 288.0 -145.5 285.0 -145.5 M357.0 -148.5 L357.0 -139.5 360.0 -136.5 Q369.0 -136.5 369.0 -130.5 L378.0 -130.5 381.0 -139.5 378.0 -139.5 378.0 -145.5 375.0 -145.5 375.0 -139.5 369.0 -139.5 Q369.0 -148.5 360.0 -148.5 L357.0 -148.5 M333.0 -148.5 L333.0 -142.5 336.0 -142.5 336.0 -148.5 333.0 -148.5 M318.0 -157.5 L324.0 -151.5 327.0 -151.5 321.0 -157.5 318.0 -157.5 M198.0 -157.5 L201.0 -157.5 201.0 -151.5 198.0 -151.5 198.0 -157.5 M531.0 -163.5 L531.0 -157.5 534.0 -157.5 534.0 -163.5 531.0 -163.5 M417.0 -172.5 L417.0 -166.5 Q403.0 -158.5 399.0 -142.5 405.0 -142.5 405.0 -133.5 L408.0 -133.5 411.0 -136.5 411.0 -139.5 408.0 -142.5 408.0 -148.5 411.0 -151.5 408.0 -154.5 414.0 -160.5 420.0 -160.5 423.0 -157.5 426.0 -160.5 420.0 -172.5 417.0 -172.5 M393.0 -172.5 L390.0 -172.5 393.0 -163.5 393.0 -160.5 390.0 -157.5 390.0 -154.5 Q396.0 -154.5 396.0 -163.5 L399.0 -163.5 402.0 -160.5 405.0 -160.5 405.0 -163.5 Q405.0 -168.0 393.0 -172.5 M300.0 -169.5 L309.0 -169.5 309.0 -163.5 300.0 -160.5 300.0 -169.5 M429.0 -175.5 L429.0 -169.5 432.0 -169.5 432.0 -175.5 429.0 -175.5 M399.0 -178.5 L399.0 -175.5 405.0 -175.5 405.0 -178.5 399.0 -178.5 M501.0 -181.5 L501.0 -175.5 504.0 -175.5 504.0 -181.5 501.0 -181.5 M321.0 -184.5 L321.0 -181.5 324.0 -178.5 318.0 -178.5 Q321.0 -166.5 336.0 -166.5 L336.0 -160.5 333.0 -157.5 Q348.0 -157.5 348.0 -151.5 360.0 -156.0 360.0 -160.5 343.0 -160.5 333.0 -178.5 L333.0 -181.5 336.0 -184.5 330.0 -184.5 327.0 -181.5 324.0 -184.5 321.0 -184.5 324.0 -187.5 318.0 -193.5 315.0 -193.5 318.0 -184.5 321.0 -184.5 M432.0 -187.5 L432.0 -184.5 438.0 -184.5 438.0 -187.5 432.0 -187.5 M390.0 -187.5 L390.0 -175.5 393.0 -175.5 393.0 -187.5 390.0 -187.5 M486.0 -190.5 L477.0 -187.5 477.0 -184.5 486.0 -181.5 489.0 -184.5 489.0 -187.5 486.0 -190.5 M342.0 -193.5 L342.0 -190.5 345.0 -178.5 348.0 -178.5 348.0 -184.5 351.0 -184.5 351.0 -178.5 372.0 -187.5 372.0 -193.5 345.0 -187.5 345.0 -193.5 342.0 -193.5 M375.0 -196.5 L375.0 -181.5 366.0 -172.5 372.0 -166.5 378.0 -166.5 375.0 -163.5 Q381.0 -150.0 387.0 -148.5 L378.0 -196.5 375.0 -196.5 M330.0 -196.5 L330.0 -193.5 336.0 -187.5 339.0 -187.5 339.0 -196.5 330.0 -196.5 M450.0 -199.5 L444.0 -193.5 444.0 -190.5 450.0 -190.5 Q456.0 -190.5 456.0 -175.5 L465.0 -175.5 468.0 -178.5 471.0 -175.5 468.0 -172.5 468.0 -169.5 471.0 -166.5 480.0 -169.5 483.0 -169.5 483.0 -163.5 492.0 -163.5 492.0 -166.5 489.0 -169.5 489.0 -172.5 492.0 -175.5 459.0 -187.5 459.0 -190.5 462.0 -193.5 Q450.0 -193.5 450.0 -199.5 M267.0 -199.5 L261.0 -193.5 267.0 -193.5 267.0 -199.5 M345.0 -202.5 L345.0 -196.5 348.0 -196.5 348.0 -202.5 345.0 -202.5 M444.0 -205.5 L444.0 -199.5 447.0 -199.5 447.0 -205.5 444.0 -205.5 M378.0 -205.5 L378.0 -199.5 381.0 -199.5 381.0 -205.5 378.0 -205.5 M369.0 -205.5 L369.0 -202.5 375.0 -202.5 375.0 -205.5 369.0 -205.5 M435.0 -208.5 L435.0 -205.5 441.0 -205.5 441.0 -208.5 435.0 -208.5 M318.0 -211.5 L315.0 -211.5 312.0 -208.5 312.0 -199.5 315.0 -199.5 318.0 -208.5 318.0 -211.5 M348.0 -214.5 L348.0 -208.5 351.0 -208.5 351.0 -214.5 348.0 -214.5 M339.0 -214.5 L333.0 -208.5 342.0 -205.5 342.0 -211.5 339.0 -214.5 M234.0 -217.5 L234.0 -211.5 237.0 -211.5 237.0 -217.5 234.0 -217.5 M429.0 -220.5 L429.0 -211.5 417.0 -211.5 414.0 -214.5 414.0 -211.5 426.0 -199.5 435.0 -199.5 435.0 -205.5 432.0 -205.5 429.0 -202.5 423.0 -208.5 Q435.0 -208.5 435.0 -214.5 L429.0 -220.5 M150.0 -223.5 L153.0 -223.5 159.0 -217.5 159.0 -214.5 156.0 -214.5 150.0 -220.5 150.0 -223.5 M171.0 -244.5 L177.0 -244.5 177.0 -238.5 171.0 -238.5 171.0 -244.5 M510.0 -250.5 L510.0 -247.5 516.0 -247.5 516.0 -250.5 510.0 -250.5 M471.0 -250.5 L471.0 -244.5 477.0 -244.5 471.0 -250.5 M414.0 -253.5 L414.0 -247.5 417.0 -247.5 417.0 -253.5 414.0 -253.5 M168.0 -259.5 L177.0 -259.5 177.0 -253.5 174.0 -253.5 168.0 -259.5 M324.0 -262.5 L327.0 -262.5 327.0 -256.5 324.0 -256.5 324.0 -262.5 M120.0 -256.5 L126.0 -262.5 129.0 -262.5 135.0 -256.5 135.0 -250.5 120.0 -253.5 120.0 -256.5 M240.0 -286.5 L243.0 -274.5 246.0 -274.5 249.0 -283.5 249.0 -286.5 240.0 -286.5 M264.0 -298.5 L270.0 -292.5 270.0 -298.5 264.0 -298.5 M132.0 -304.5 L135.0 -304.5 135.0 -298.5 132.0 -298.5 132.0 -304.5 M270.0 -316.5 L270.0 -307.5 273.0 -307.5 276.0 -316.5 270.0 -316.5 M123.0 -319.5 L129.0 -313.5 123.0 -313.5 123.0 -319.5 M126.0 -328.5 L132.0 -328.5 132.0 -322.5 126.0 -322.5 126.0 -328.5 M357.0 -334.5 L363.0 -334.5 363.0 -331.5 357.0 -331.5 357.0 -334.5 M294.0 -340.5 L279.0 -334.5 282.0 -331.5 282.0 -328.5 279.0 -325.5 279.0 -322.5 282.0 -322.5 285.0 -325.5 288.0 -325.5 291.0 -322.5 291.0 -328.5 285.0 -328.5 285.0 -331.5 Q297.0 -331.5 297.0 -340.5 L294.0 -340.5 M513.0 -349.5 L513.0 -346.5 519.0 -340.5 519.0 -343.5 513.0 -349.5 M360.0 -349.5 L363.0 -349.5 363.0 -343.5 360.0 -343.5 360.0 -349.5 M48.0 -352.5 L48.0 -346.5 54.0 -346.5 54.0 -352.5 48.0 -352.5 M288.0 -355.5 L291.0 -343.5 294.0 -343.5 294.0 -349.5 303.0 -343.5 303.0 -349.5 297.0 -355.5 288.0 -355.5 M354.0 -376.5 L360.0 -376.5 360.0 -367.5 354.0 -373.5 354.0 -376.5 M90.0 -394.5 L96.0 -400.5 99.0 -400.5 93.0 -394.5 90.0 -394.5 M63.0 -400.5 L81.0 -388.5 84.0 -388.5 87.0 -391.5 90.0 -391.5 90.0 -385.5 87.0 -385.5 84.0 -388.5 84.0 -385.5 99.0 -358.5 93.0 -358.5 93.0 -364.5 Q73.0 -394.5 63.0 -394.5 L63.0 -400.5 M345.0 -409.5 L348.0 -409.5 348.0 -403.5 351.0 -406.5 354.0 -406.5 348.0 -400.5 345.0 -400.5 345.0 -409.5 M36.0 -412.5 L42.0 -412.5 51.0 -403.5 Q36.0 -406.0 36.0 -412.5 M417.0 -418.5 L423.0 -418.5 423.0 -415.5 417.0 -415.5 417.0 -418.5 M393.0 -418.5 L399.0 -418.5 399.0 -412.5 393.0 -412.5 393.0 -418.5 M30.0 -421.5 L33.0 -421.5 33.0 -415.5 30.0 -415.5 30.0 -421.5 M420.0 -433.5 L423.0 -433.5 438.0 -430.5 438.0 -421.5 429.0 -421.5 420.0 -430.5 420.0 -433.5 M-12.0 -433.5 L-9.0 -433.5 -9.0 -427.5 -12.0 -427.5 -12.0 -433.5 M288.0 -442.5 L288.0 -412.5 Q348.0 -403.0 348.0 -382.5 348.0 -359.5 309.0 -274.5 L309.0 -271.5 312.0 -268.5 Q306.0 -268.5 306.0 -259.5 L306.0 -256.5 297.0 -259.5 291.0 -253.5 297.0 -253.5 Q297.0 -241.5 288.0 -241.5 L288.0 -235.5 291.0 -232.5 276.0 -193.5 285.0 -193.5 288.0 -196.5 288.0 -193.5 282.0 -187.5 273.0 -193.5 273.0 -184.5 261.0 -187.5 258.0 -187.5 264.0 -169.5 267.0 -172.5 282.0 -157.5 282.0 -154.5 279.0 -154.5 276.0 -157.5 276.0 -151.5 291.0 -145.5 294.0 -157.5 297.0 -157.5 Q309.0 -157.5 309.0 -133.5 L312.0 -133.5 315.0 -136.5 312.0 -139.5 315.0 -148.5 315.0 -151.5 312.0 -154.5 315.0 -154.5 315.0 -157.5 312.0 -160.5 312.0 -163.5 315.0 -160.5 321.0 -166.5 Q312.0 -166.5 312.0 -175.5 L309.0 -172.5 303.0 -172.5 303.0 -175.5 309.0 -175.5 306.0 -178.5 309.0 -181.5 306.0 -193.5 306.0 -196.5 309.0 -199.5 Q309.0 -213.0 297.0 -229.5 L297.0 -241.5 300.0 -241.5 306.0 -223.5 309.0 -223.5 309.0 -229.5 315.0 -229.5 315.0 -220.5 Q340.5 -244.5 357.0 -328.5 L360.0 -328.5 360.0 -316.5 366.0 -316.5 Q396.0 -397.5 411.0 -397.5 L411.0 -400.5 408.0 -403.5 414.0 -409.5 417.0 -409.5 417.0 -403.5 453.0 -415.5 453.0 -442.5 288.0 -442.5 M-15.0 -442.5 L-15.0 -412.5 -6.0 -409.5 Q25.0 -409.5 48.0 -373.5 L57.0 -379.5 60.0 -370.5 57.0 -370.5 54.0 -367.5 150.0 -133.5 162.0 -133.5 168.0 -139.5 174.0 -133.5 174.0 -130.5 153.0 -130.5 174.0 -73.5 Q192.0 -80.5 192.0 -94.5 L195.0 -94.5 195.0 -91.5 Q195.0 -67.5 177.0 -67.5 L201.0 -4.5 240.0 -4.5 243.0 -7.5 246.0 -4.5 255.0 -4.5 255.0 -10.5 249.0 -10.5 252.0 -13.5 252.0 -22.5 249.0 -22.5 249.0 -16.5 246.0 -16.5 246.0 -19.5 Q246.0 -64.5 255.0 -64.5 255.0 -55.5 261.0 -55.5 L264.0 -55.5 264.0 -58.5 258.0 -64.5 264.0 -79.5 255.0 -100.5 261.0 -100.5 264.0 -97.5 264.0 -94.5 261.0 -91.5 267.0 -85.5 273.0 -103.5 255.0 -103.5 249.0 -127.5 252.0 -127.5 Q265.5 -112.5 276.0 -109.5 L282.0 -130.5 279.0 -130.5 Q264.0 -154.5 258.0 -154.5 252.0 -130.5 246.0 -130.5 L237.0 -130.5 225.0 -157.5 228.0 -157.5 Q211.5 -202.5 204.0 -202.5 L204.0 -223.5 213.0 -223.5 213.0 -226.5 210.0 -229.5 207.0 -229.5 204.0 -226.5 198.0 -226.5 195.0 -235.5 198.0 -238.5 198.0 -241.5 195.0 -241.5 192.0 -238.5 Q187.0 -262.0 141.0 -364.5 137.5 -388.5 129.0 -388.5 129.0 -404.5 186.0 -412.5 L186.0 -439.5 Q178.0 -439.5 177.0 -424.5 L171.0 -424.5 180.0 -442.5 45.0 -442.5 45.0 -436.5 42.0 -436.5 33.0 -442.5 -15.0 -442.5" fill-rule="evenodd" stroke="none"/>
    </g>
    <g id="font_Angelic_War_d0">
      <path d="M666.0 124.5 L666.0 127.5 672.0 127.5 672.0 124.5 666.0 124.5 M480.0 118.5 L480.0 118.5 Q481.5 124.5 495.0 130.5 L498.0 130.5 Q496.5 124.5 483.0 118.5 L480.0 118.5 M618.0 112.5 L618.0 112.5 Q618.0 119.0 663.0 127.5 663.0 120.0 630.0 112.5 L618.0 112.5 M591.0 109.5 L591.0 115.5 612.0 115.5 612.0 112.5 591.0 109.5 M579.0 109.5 L579.0 112.5 585.0 112.5 585.0 109.5 579.0 109.5 M444.0 109.5 L444.0 118.5 474.0 124.5 477.0 124.5 477.0 121.5 450.0 109.5 444.0 109.5 M687.0 106.5 L654.0 112.5 654.0 115.5 663.0 118.5 666.0 118.5 669.0 115.5 678.0 124.5 699.0 118.5 699.0 115.5 Q699.0 111.0 687.0 106.5 M420.0 106.5 L420.0 112.5 438.0 115.5 438.0 112.5 432.0 106.5 420.0 106.5 M504.0 94.5 L504.0 97.5 510.0 97.5 510.0 94.5 504.0 94.5 M6.0 91.5 L6.0 91.5 Q-3.0 91.5 -3.0 97.5 L-3.0 100.5 9.0 94.5 9.0 91.5 6.0 91.5 M-15.0 91.5 L-30.0 97.5 -30.0 100.5 -24.0 100.5 -24.0 106.5 -36.0 106.5 -39.0 103.5 -48.0 118.5 Q-15.0 111.0 -15.0 97.5 L-15.0 91.5 M453.0 79.5 L450.0 88.5 453.0 97.5 Q462.0 97.5 462.0 103.5 L465.0 100.5 492.0 106.5 498.0 100.5 495.0 97.5 495.0 94.5 498.0 91.5 453.0 79.5 M405.0 64.5 L405.0 67.5 Q415.0 67.5 429.0 82.5 L432.0 82.5 429.0 79.5 429.0 76.5 432.0 76.5 435.0 79.5 438.0 79.5 438.0 73.5 408.0 64.5 405.0 64.5 405.0 61.5 396.0 61.5 396.0 64.5 405.0 64.5 M357.0 46.5 L357.0 49.5 387.0 61.5 396.0 61.5 396.0 58.5 363.0 46.5 357.0 46.5 M288.0 46.5 L279.0 61.5 318.0 76.5 Q318.0 53.0 288.0 46.5 M-240.0 43.5 L-222.0 70.5 Q-159.0 121.5 -120.0 121.5 L-117.0 121.5 -117.0 118.5 -120.0 115.5 -120.0 112.5 -108.0 112.5 -108.0 118.5 -114.0 118.5 -114.0 121.5 -93.0 124.5 -69.0 124.5 Q-63.5 124.5 -54.0 97.5 L-99.0 103.5 Q-178.5 103.5 -222.0 43.5 L-240.0 43.5 M321.0 37.5 L327.0 55.5 330.0 55.5 333.0 52.5 339.0 58.5 339.0 61.5 330.0 55.5 333.0 67.5 Q333.0 90.0 396.0 103.5 L399.0 100.5 432.0 100.5 432.0 94.5 390.0 73.5 Q386.5 63.0 324.0 37.5 L321.0 37.5 M315.0 28.5 L315.0 31.5 321.0 31.5 321.0 28.5 315.0 28.5 M261.0 16.5 L255.0 22.5 255.0 28.5 264.0 25.5 267.0 25.5 Q267.0 35.0 285.0 40.5 L285.0 46.5 288.0 43.5 303.0 49.5 306.0 49.5 303.0 40.5 Q270.0 27.5 270.0 16.5 L261.0 16.5 M234.0 -1.5 L237.0 -1.5 240.0 7.5 240.0 13.5 237.0 13.5 234.0 4.5 234.0 -1.5 M477.0 -22.5 L483.0 -22.5 483.0 -19.5 477.0 -19.5 477.0 -22.5 M213.0 -31.5 L219.0 -31.5 219.0 -28.5 213.0 -28.5 213.0 -31.5 M735.0 -43.5 L735.0 -43.5 Q750.0 -17.5 750.0 10.5 L750.0 13.5 744.0 49.5 Q744.0 54.5 759.0 58.5 768.0 58.5 768.0 25.5 760.0 -43.5 738.0 -43.5 L735.0 -43.5 M201.0 -46.5 L198.0 -43.5 180.0 -43.5 180.0 -37.5 177.0 -40.5 111.0 -13.5 Q115.5 -4.5 168.0 13.5 L168.0 19.5 123.0 40.5 Q46.0 62.0 -12.0 118.5 L66.0 94.5 66.0 91.5 63.0 88.5 72.0 91.5 156.0 52.5 156.0 49.5 150.0 49.5 150.0 46.5 156.0 46.5 159.0 49.5 195.0 28.5 273.0 58.5 Q277.5 58.5 282.0 46.5 L249.0 28.5 Q249.0 13.5 258.0 13.5 L258.0 10.5 Q249.0 10.5 249.0 -4.5 249.0 -25.5 231.0 -25.5 L231.0 -31.5 240.0 -31.5 Q240.0 -39.0 201.0 -46.5 M96.0 -37.5 L102.0 -43.5 105.0 -43.5 105.0 -37.5 96.0 -37.5 M108.0 -46.5 L114.0 -52.5 117.0 -52.5 117.0 -46.5 108.0 -46.5 M-231.0 -52.5 L-225.0 -52.5 -231.0 -46.5 -231.0 -52.5 M291.0 -43.5 L291.0 -43.5 Q295.5 -55.5 300.0 -55.5 L297.0 -43.5 291.0 -43.5 M-165.0 -73.5 L-156.0 -73.5 -156.0 -67.5 -165.0 -67.5 -165.0 -73.5 M-204.0 -79.5 L-198.0 -79.5 -198.0 -73.5 -204.0 -79.5 M-102.0 -85.5 L-96.0 -85.5 -96.0 -82.5 -102.0 -82.5 -102.0 -85.5 M-189.0 -91.5 L-189.0 -88.5 -183.0 -88.5 -183.0 -91.5 -189.0 -91.5 M-84.0 -91.5 L-78.0 -97.5 -78.0 -91.5 -84.0 -91.5 M606.0 -121.5 L606.0 -121.5 Q537.0 -114.0 537.0 -58.5 L537.0 -55.5 540.0 -58.5 549.0 -58.5 549.0 -55.5 Q537.0 -55.5 537.0 -49.5 541.5 -22.5 561.0 -22.5 580.0 -28.5 582.0 -37.5 L582.0 -52.5 Q555.0 -61.0 555.0 -64.5 L555.0 -82.5 Q573.0 -109.5 603.0 -109.5 L627.0 -109.5 678.0 -94.5 738.0 -46.5 744.0 -46.5 Q687.0 -121.5 606.0 -121.5 M117.0 -121.5 L120.0 -121.5 123.0 -112.5 120.0 -112.5 117.0 -115.5 117.0 -121.5 M84.0 -121.5 L87.0 -121.5 111.0 -118.5 111.0 -115.5 99.0 -115.5 84.0 -118.5 84.0 -121.5 M414.0 -202.5 L333.0 -163.5 333.0 -94.5 Q289.0 -43.5 252.0 -43.5 264.0 -26.5 267.0 -10.5 L291.0 -19.5 291.0 -22.5 288.0 -25.5 Q300.0 -25.5 333.0 -52.5 L333.0 -7.5 336.0 -4.5 480.0 -13.5 Q489.0 -13.5 489.0 -19.5 L489.0 -40.5 486.0 -40.5 486.0 -34.5 483.0 -34.5 483.0 -40.5 486.0 -43.5 Q414.0 -43.5 414.0 -91.5 L414.0 -202.5 M51.0 -217.5 L57.0 -217.5 57.0 -214.5 51.0 -214.5 51.0 -217.5 M87.0 -331.5 L90.0 -331.5 90.0 -325.5 87.0 -325.5 87.0 -331.5 M78.0 -358.5 L81.0 -358.5 75.0 -349.5 72.0 -349.5 78.0 -358.5 M114.0 -355.5 L123.0 -364.5 126.0 -364.5 126.0 -358.5 114.0 -352.5 114.0 -355.5 M390.0 -424.5 L393.0 -424.5 393.0 -421.5 390.0 -418.5 387.0 -418.5 387.0 -421.5 390.0 -424.5 M189.0 -427.5 L192.0 -427.5 192.0 -424.5 189.0 -421.5 186.0 -421.5 186.0 -424.5 189.0 -427.5 M225.0 -433.5 L222.0 -418.5 237.0 -418.5 228.0 -433.5 225.0 -433.5 M195.0 -436.5 L204.0 -436.5 204.0 -433.5 195.0 -430.5 195.0 -436.5 M225.0 -445.5 L225.0 -445.5 Q228.0 -433.0 240.0 -427.5 L240.0 -430.5 231.0 -445.5 225.0 -445.5 M234.0 -451.5 L249.0 -433.5 243.0 -421.5 246.0 -421.5 270.0 -442.5 Q270.0 -449.5 237.0 -451.5 L234.0 -451.5 M198.0 -451.5 L198.0 -451.5 Q167.5 -445.5 150.0 -430.5 L159.0 -406.5 162.0 -406.5 165.0 -409.5 171.0 -409.5 150.0 -394.5 Q150.0 -376.5 141.0 -376.5 L129.0 -376.5 129.0 -382.5 132.0 -382.5 156.0 -400.5 156.0 -403.5 153.0 -403.5 99.0 -397.5 99.0 -403.5 93.0 -403.5 Q42.0 -355.0 30.0 -310.5 L30.0 -307.5 60.0 -334.5 63.0 -334.5 54.0 -322.5 Q15.0 -301.5 15.0 -229.5 18.0 -142.0 33.0 -133.5 L30.0 -130.5 57.0 -76.5 57.0 -73.5 Q-6.0 -94.5 -111.0 -103.5 -158.0 -103.5 -183.0 -85.5 -235.5 -85.5 -252.0 -1.5 L-246.0 31.5 -228.0 31.5 -234.0 1.5 -234.0 -4.5 Q-234.0 -42.0 -177.0 -58.5 L-180.0 -61.5 -174.0 -67.5 -171.0 -67.5 -171.0 -64.5 -174.0 -61.5 Q-111.5 -70.0 -105.0 -79.5 L-105.0 -76.5 -108.0 -73.5 -108.0 -70.5 Q-1.5 -70.5 75.0 -25.5 L84.0 -31.5 87.0 -31.5 81.0 -22.5 90.0 -19.5 96.0 -31.5 102.0 -31.5 102.0 -28.5 99.0 -25.5 99.0 -22.5 150.0 -43.5 150.0 -46.5 141.0 -46.5 141.0 -49.5 150.0 -52.5 153.0 -52.5 156.0 -49.5 177.0 -52.5 177.0 -58.5 Q105.0 -102.0 105.0 -214.5 L105.0 -220.5 Q105.0 -341.5 171.0 -400.5 L204.0 -418.5 207.0 -418.5 210.0 -415.5 213.0 -415.5 213.0 -421.5 210.0 -424.5 213.0 -427.5 213.0 -442.5 Q213.0 -448.0 198.0 -451.5 M408.0 -592.5 L408.0 -592.5 Q347.5 -556.5 333.0 -556.5 L333.0 -544.5 348.0 -526.5 Q348.0 -516.0 333.0 -493.5 L333.0 -427.5 330.0 -424.5 285.0 -442.5 Q258.0 -426.0 258.0 -415.5 L264.0 -415.5 279.0 -418.5 279.0 -412.5 273.0 -412.5 Q333.0 -373.0 333.0 -331.5 L333.0 -166.5 Q394.5 -196.5 414.0 -217.5 L414.0 -544.5 Q405.0 -544.5 405.0 -550.5 L405.0 -553.5 411.0 -553.5 411.0 -547.5 414.0 -547.5 414.0 -592.5 408.0 -592.5 M405.0 -649.5 L411.0 -649.5 411.0 -646.5 405.0 -646.5 405.0 -649.5 M396.0 -658.5 L399.0 -658.5 405.0 -652.5 402.0 -652.5 396.0 -658.5 M297.0 -667.5 L276.0 -643.5 285.0 -643.5 288.0 -646.5 288.0 -640.5 297.0 -640.5 297.0 -667.5 M237.0 -670.5 L231.0 -664.5 231.0 -649.5 243.0 -649.5 243.0 -661.5 237.0 -670.5 M231.0 -676.5 L231.0 -670.5 234.0 -670.5 234.0 -676.5 231.0 -676.5 M291.0 -679.5 L285.0 -673.5 285.0 -670.5 294.0 -679.5 291.0 -679.5 M273.0 -679.5 L252.0 -676.5 255.0 -661.5 255.0 -646.5 258.0 -646.5 Q272.5 -656.5 285.0 -679.5 L273.0 -679.5 M411.0 -685.5 L336.0 -682.5 Q336.0 -673.5 327.0 -673.5 L324.0 -676.5 324.0 -679.5 327.0 -682.5 306.0 -679.5 306.0 -649.5 312.0 -649.5 309.0 -646.5 312.0 -634.5 Q333.0 -601.0 333.0 -562.5 L414.0 -598.5 414.0 -682.5 411.0 -685.5" fill-rule="evenodd" stroke="none"/>
    </g>
  </defs>
</svg>
