<?xml version="1.0" encoding="UTF-8" standalone="no"?>
<svg xmlns:xlink="http://www.w3.org/1999/xlink" height="126.3px" width="550.95px" xmlns="http://www.w3.org/2000/svg">
  <g transform="matrix(1.0, 0.0, 0.0, 1.0, 159.25, 56.35)">
    <use height="62.25" transform="matrix(1.0, 0.0, 0.0, 1.0, -158.4, -33.6)" width="549.95" xlink:href="#sprite0"/>
  </g>
  <defs>
    <g id="sprite0" transform="matrix(1.0, 0.0, 0.0, 1.0, 159.25, 29.35)">
      <use height="58.75" transform="matrix(1.0, 0.0, 0.0, 1.0, -159.25, -29.35)" width="25.55" xlink:href="#sprite1"/>
    </g>
    <g id="sprite1" transform="matrix(1.0, 0.0, 0.0, 1.0, 12.75, 29.35)">
      <use height="58.75" transform="matrix(1.0, 0.0, 0.0, 1.0, -12.75, -29.35)" width="25.55" xlink:href="#shape0"/>
    </g>
    <g id="shape0" transform="matrix(1.0, 0.0, 0.0, 1.0, 12.75, 29.35)">
      <path d="M5.9 -29.35 L8.3 -17.2 10.2 -16.85 10.45 -16.5 10.6 -16.5 12.8 2.55 12.6 21.25 Q12.2 23.7 10.25 25.3 L9.95 25.55 9.3 25.95 Q6.75 27.6 3.75 28.35 L2.8 28.55 1.75 28.75 -2.9 29.4 -5.8 28.0 -12.75 -13.3 -11.7 -14.2 0.0 -15.65 1.85 -17.4 1.9 -28.55 5.9 -29.35" fill="#ffffff" fill-rule="evenodd" stroke="none"/>
    </g>
  </defs>
</svg>
