<?xml version="1.0" encoding="UTF-8" standalone="no"?>
<svg xmlns:xlink="http://www.w3.org/1999/xlink" height="299.1px" width="376.5px" xmlns="http://www.w3.org/2000/svg">
  <g transform="matrix(1.0, 0.0, 0.0, 1.0, 182.65, 150.0)">
    <use height="250.4" transform="matrix(1.0, 0.0, 0.0, 1.0, -180.75, -141.15)" width="363.0" xlink:href="#shape0"/>
  </g>
  <defs>
    <g id="shape0" transform="matrix(1.0, 0.0, 0.0, 1.0, 180.75, 141.15)">
      <path d="M-2.4 -141.0 L-2.0 -141.15 -1.25 -140.25 -0.5 -138.0 -1.5 -139.0 -2.0 -140.9 -2.4 -141.0" fill="#686868" fill-rule="evenodd" stroke="none"/>
      <path d="M182.25 -23.9 L181.85 -22.65 181.5 -22.5 171.0 -24.9 32.1 -26.4 30.75 -26.4 21.0 -26.5 18.5 -26.5 17.6 -26.5 18.5 -26.65 18.85 -27.9 29.5 -27.9 30.0 -27.75 171.75 -26.15 182.25 -23.9 M39.75 107.5 L39.85 107.75 39.75 108.25 39.6 108.5 39.5 109.0 30.85 109.25 31.0 107.75 39.75 107.5 M33.6 98.1 L31.85 91.0 31.25 88.6 28.0 72.85 26.6 67.85 25.85 64.35 22.0 47.1 20.5 40.5 19.25 35.85 14.75 14.25 14.35 13.75 14.5 13.1 14.1 12.6 14.25 12.0 13.0 8.1 10.35 -4.0 8.5 -12.15 7.85 -15.4 7.85 -15.65 7.75 -15.75 8.0 -16.25 8.85 -12.5 9.25 -12.25 20.6 39.25 21.0 39.35 23.6 52.6 34.0 97.1 33.6 98.1 M-32.15 -27.15 L-170.15 -28.65 -179.9 -30.9 -180.65 -31.15 -180.75 -32.65 -170.5 -30.15 -1.25 -28.15 -1.4 -27.5 1.0 -26.75 -1.9 -26.75 -4.4 -26.75 -4.9 -26.75 -14.9 -26.9 -15.65 -26.9 -27.5 -27.0 -28.0 -23.9 -28.5 -25.5 -28.0 -27.0 -32.15 -27.15 M-19.65 -108.5 L-21.75 -107.25 -22.65 -108.5 -24.15 -114.65 -24.75 -118.15 -24.9 -118.75 -22.65 -120.25 -22.4 -120.15 -22.25 -119.9 -22.15 -118.15 -21.25 -117.75 -20.15 -116.9 -18.65 -111.25 -17.75 -110.65 -17.5 -110.15 -17.9 -109.9 -19.65 -108.5 M-29.4 -116.75 L-31.9 -115.0 -35.65 -111.0 -43.0 -105.25 -44.4 -104.5 -45.25 -105.65 -45.75 -107.9 -30.65 -119.4 -29.75 -119.9 -29.25 -118.65 -30.4 -117.5 -29.9 -117.0 -29.4 -116.75 M-25.75 -126.25 L-25.9 -127.5 -25.9 -128.15 -27.5 -128.9 -28.9 -134.25 Q-27.05 -135.55 -25.25 -136.9 L-25.15 -136.75 -23.25 -128.15 -23.25 -128.0 -23.15 -127.5 -23.5 -127.25 -23.65 -127.0 -24.0 -126.75 -24.4 -126.65 -24.5 -126.4 -24.9 -126.25 -25.0 -126.0 -25.4 -125.9 -25.75 -126.25 M-18.0 -128.4 L-15.4 -130.0 -9.65 -135.65 -2.4 -141.0 -2.0 -140.9 -1.5 -139.0 -0.5 -138.0 -14.0 -127.5 -16.25 -125.9 -17.0 -125.5 -17.4 -125.25 -17.75 -126.25 -18.0 -126.5 -18.4 -126.5 -18.65 -127.75 -18.0 -128.4 M3.5 -36.0 L3.75 -35.4 3.75 -34.9 3.5 -36.0 M27.35 -31.5 L21.1 -31.5 20.75 -31.65 18.75 -31.65 22.35 -32.65 Q27.0 -32.5 27.35 -31.5 M-14.75 -32.0 L-23.0 -32.15 Q-19.15 -34.25 -14.75 -32.0" fill="#000000" fill-rule="evenodd" stroke="none"/>
      <path d="M44.6 49.75 L43.85 53.85 43.6 53.5 43.25 53.6 42.75 55.35 39.85 61.1 42.0 50.0 42.75 51.1 43.0 52.35 43.6 52.75 43.5 50.35 42.6 46.5 43.0 46.6 44.6 49.75 M-5.75 89.5 L-8.0 88.5 Q-10.75 85.35 -14.0 84.1 L-14.25 83.75 -14.4 83.6 -14.75 82.85 -17.9 76.5 -18.0 76.25 -16.9 65.5 -16.9 65.1 -16.25 60.0 -9.9 62.85 -9.65 63.1 -6.65 66.0 -6.15 71.6 -5.5 74.0 -5.25 74.35 -5.75 76.1 Q-5.25 79.1 -5.9 81.5 L-5.5 87.0 -5.75 89.5 M-27.65 -7.75 L-26.4 -11.5 -26.0 -8.9 -27.65 -7.75 M-30.65 -119.4 L-29.5 -122.25 -27.75 -124.5 -25.75 -126.25 -25.4 -125.9 -25.0 -126.0 -24.9 -126.25 -24.5 -126.4 -24.4 -126.65 -24.0 -126.75 -23.65 -127.0 -23.5 -127.25 -23.15 -127.5 -23.25 -128.0 -23.25 -128.15 -22.9 -128.25 -22.4 -128.5 -20.25 -129.15 -18.65 -129.0 -18.0 -128.4 -18.65 -127.75 -18.4 -126.5 -18.0 -126.5 -17.75 -126.25 -19.9 -122.5 -22.4 -120.15 -22.65 -120.25 -24.9 -118.75 -24.75 -118.15 -27.65 -116.9 -29.4 -116.75 -29.9 -117.0 -30.4 -117.5 -29.25 -118.65 -29.75 -119.9 -30.65 -119.4" fill="#060606" fill-rule="evenodd" stroke="none"/>
      <path d="M-25.15 -136.75 L-24.25 -136.15 -23.4 -131.5 -22.4 -128.5 -22.9 -128.25 -23.25 -128.15 -25.15 -136.75" fill="#6c6c6c" fill-rule="evenodd" stroke="none"/>
      <path d="M-18.5 79.85 L-20.65 77.1 -23.0 72.75 -24.25 62.75 -23.25 50.75 -20.25 37.85 -20.5 37.5 -20.15 36.5 -13.9 32.1 -11.65 39.75 -8.75 44.0 -12.5 50.35 -14.15 54.1 Q-15.4 53.1 -16.65 46.5 L-20.4 50.6 -20.9 56.35 -19.5 60.85 -16.9 65.1 -16.9 65.5 -18.0 76.25 -17.9 76.5 -18.5 79.85 M-25.9 -127.5 L-27.5 -128.9 -25.9 -128.15 -25.9 -127.5" fill="#0e0e0e" fill-rule="evenodd" stroke="none"/>
      <path d="M-14.0 -127.5 L-12.75 -127.5 -12.4 -126.75 -12.75 -126.9 -12.5 -126.0 -13.5 -125.15 -15.75 -124.15 -16.25 -125.9 -14.0 -127.5" fill="#373737" fill-rule="evenodd" stroke="none"/>
      <path d="M-12.4 -126.75 L-12.4 -126.65 -12.0 -126.15 -12.5 -126.0 -12.75 -126.9 -12.4 -126.75 M4.0 -35.65 L4.25 -36.25 4.75 -36.9 5.35 -37.25 5.75 -37.5 7.25 -37.9 7.6 -37.9 8.85 -37.5 9.25 -37.4 9.6 -37.0 7.6 -36.65 7.0 -35.9 6.75 -35.65 6.35 -34.5 3.75 -33.9 3.75 -34.0 3.75 -34.9 3.85 -34.9 3.85 -35.4 4.0 -35.65 M-23.75 -1.25 L-24.15 -3.25 -23.9 -3.65 -22.75 -4.65 -20.25 -7.4 -20.15 -6.65 -20.4 -6.4 -22.5 -2.9 -23.75 -1.25" fill="#333333" fill-rule="evenodd" stroke="none"/>
      <path d="M-27.4 39.85 L-29.65 24.25 -29.75 14.0 -28.0 18.25 -24.65 18.5 -25.65 24.25 -26.0 24.75 -26.25 27.6 -27.4 39.85 M-12.0 -126.15 L-12.0 -125.25 Q-14.0 -120.5 -12.15 -117.4 L-12.0 -108.0 -12.0 -107.75 -12.5 -106.9 -12.65 -105.75 -12.0 -102.5 -11.75 -87.25 -11.75 -86.75 -11.25 -79.9 -10.9 -78.75 -10.75 -77.15 -10.65 -76.4 -10.25 -73.75 -10.25 -71.65 -11.15 -73.65 -14.15 -73.75 -14.15 -74.4 -14.5 -74.25 -15.25 -89.75 -14.9 -101.25 -15.0 -123.5 -13.5 -125.15 -12.5 -126.0 -12.0 -126.15 M-14.4 -95.15 L-14.75 -95.25 -14.5 -82.4 -14.15 -82.25 -14.4 -95.15 M-23.75 18.6 L-22.9 18.6 -22.65 21.35 -25.25 32.25 -25.75 28.6 -23.75 18.6 M-22.25 24.0 L-21.75 27.35 -23.75 37.0 -24.4 38.35 -25.0 35.35 -24.65 35.25 -24.4 32.5 -23.15 27.75 -23.0 25.85 -22.25 24.0" fill="#535353" fill-rule="evenodd" stroke="none"/>
      <path d="M-27.9 -21.0 Q-28.65 -20.9 -30.25 -23.65 L-32.15 -27.15 -28.0 -27.0 -28.5 -25.5 -28.0 -23.9 -27.65 -21.9 -27.9 -21.0 M-34.15 -32.25 L-34.9 -34.25 -35.65 -38.65 -34.25 -43.25 -32.0 -43.9 -26.25 -44.4 -21.25 -44.75 -17.0 -42.4 -16.0 -41.75 Q-12.25 -40.65 -11.5 -41.15 L-10.0 -40.15 -10.65 -39.25 -10.65 -37.75 -11.0 -37.5 -12.9 -37.0 -12.9 -36.5 -13.0 -35.4 -13.9 -32.0 -14.75 -32.0 Q-19.15 -34.25 -23.0 -32.15 L-34.15 -32.25 M-24.15 -114.65 L-29.4 -116.75 -27.65 -116.9 -24.75 -118.15 -24.15 -114.65 M-17.0 -125.5 L-16.9 -124.75 Q-14.5 -121.15 -18.65 -114.15 L-19.15 -116.0 -20.15 -116.9 -21.25 -117.75 -21.5 -119.5 -22.25 -119.9 -22.4 -120.15 -19.9 -122.5 -17.75 -126.25 -17.4 -125.25 -17.0 -125.5" fill="#232323" fill-rule="evenodd" stroke="none"/>
      <path d="M-17.0 -125.5 L-16.25 -125.9 -15.75 -124.15 -16.9 -124.75 -17.0 -125.5" fill="#6b6b6b" fill-rule="evenodd" stroke="none"/>
      <path d="M-12.0 -125.25 L-11.9 -125.25 -9.9 -124.25 -9.15 -122.15 -9.15 -120.15 -9.75 -117.75 -10.65 -117.0 -12.15 -117.4 Q-14.0 -120.5 -12.0 -125.25 M-13.9 32.1 L-2.25 32.35 -1.65 33.0 5.0 35.35 6.0 40.6 14.0 40.5 14.5 40.5 14.25 40.85 14.85 46.75 11.25 47.1 5.35 47.35 -2.15 47.0 -8.75 44.0 -11.65 39.75 -13.9 32.1" fill="#2a2a2a" fill-rule="evenodd" stroke="none"/>
      <path d="M35.85 -1.4 L34.0 0.35 32.85 -1.25 31.6 -5.65 35.85 -1.4 M31.85 91.0 L26.6 93.5 26.25 90.75 31.25 88.6 31.85 91.0 M16.1 93.85 L5.6 94.1 7.35 91.25 7.75 91.25 16.6 91.1 16.5 91.75 17.1 91.85 16.35 92.0 17.1 92.1 16.25 92.35 16.1 92.85 16.85 93.0 16.1 93.0 16.75 93.25 16.0 93.35 16.1 93.85 M-22.5 -67.4 L-20.5 -76.65 -20.4 -77.4 -20.0 -77.5 -19.75 -79.0 -19.4 -81.5 Q-20.25 -82.0 -19.9 -86.5 L-20.0 -87.15 -19.65 -108.5 -17.9 -109.9 -17.5 -110.15 -17.75 -110.65 -17.9 -112.25 -18.65 -114.15 Q-14.5 -121.15 -16.9 -124.75 L-15.75 -124.15 -15.0 -123.5 -14.9 -101.25 -15.25 -89.75 -14.5 -74.25 -14.15 -74.4 -14.15 -73.75 -17.75 -73.65 -19.5 -70.0 -22.5 -66.0 -22.5 -67.4 M-14.4 -95.15 L-14.15 -82.25 -14.5 -82.4 -14.75 -95.25 -14.4 -95.15" fill="#090909" fill-rule="evenodd" stroke="none"/>
      <path d="M-22.25 -119.9 L-21.5 -119.5 -21.25 -117.75 -22.15 -118.15 -22.25 -119.9 M-20.15 -116.9 L-19.15 -116.0 -18.65 -114.15 -17.9 -112.25 -17.75 -110.65 -18.65 -111.25 -20.15 -116.9" fill="#585858" fill-rule="evenodd" stroke="none"/>
      <path d="M-13.5 -125.15 L-15.0 -123.5 -15.75 -124.15 -13.5 -125.15" fill="#5e5e5e" fill-rule="evenodd" stroke="none"/>
      <path d="M-12.0 -108.0 L-10.15 -110.5 -4.9 -110.15 -7.15 -106.75 -6.9 -106.15 -2.15 -86.65 -2.0 -86.25 -0.15 -78.5 0.5 -76.0 8.5 -42.9 8.6 -42.25 8.6 -42.15 8.85 -41.15 3.25 -40.75 9.0 -40.75 9.35 -39.4 9.35 -39.0 9.6 -38.15 9.6 -38.0 5.1 -38.0 4.6 -37.65 5.0 -37.5 3.5 -37.25 5.35 -37.25 4.75 -36.9 4.25 -36.25 4.0 -35.65 3.75 -35.4 3.5 -36.0 3.35 -36.9 3.25 -37.15 -12.5 -106.5 -12.5 -106.9 -12.0 -107.75 -12.0 -108.0 M4.5 -39.65 L4.25 -39.9 3.75 -39.65 4.5 -39.65 M8.85 -41.15 L9.0 -40.75 3.85 -40.9 8.85 -41.15 M9.6 -38.0 L9.75 -37.5 9.85 -36.9 9.6 -37.0 9.25 -37.4 9.75 -37.5 8.85 -37.5 7.6 -37.9 9.6 -38.0 M7.25 -37.9 L5.75 -37.5 5.25 -37.9 7.25 -37.9 M3.75 -35.4 L3.85 -35.4 3.85 -34.9 3.75 -34.9 3.75 -35.4 M13.1 -23.9 L14.35 -18.15 14.35 -18.0 14.85 -16.5 8.1 -16.65 6.25 -23.9 13.0 -24.15 10.85 -23.9 13.1 -23.9 M14.1 -18.65 L13.85 -18.9 13.35 -18.65 14.1 -18.65 M11.25 -23.25 L11.35 -23.0 12.1 -23.0 12.25 -23.4 11.85 -23.4 11.25 -23.25 M12.6 -21.9 L12.35 -22.15 11.85 -21.9 12.6 -21.9 M12.6 -21.4 L12.1 -21.15 12.85 -21.15 12.6 -21.65 12.0 -21.5 12.6 -21.4 M8.25 -17.4 L8.1 -17.15 13.85 -17.15 8.25 -17.4 M7.1 -21.4 L7.0 -21.15 12.0 -21.15 7.1 -21.4" fill="#303030" fill-rule="evenodd" stroke="none"/>
      <path d="M-4.9 -110.15 L-4.9 -109.15 -6.9 -106.15 -7.15 -106.75 -4.9 -110.15 M-12.65 -105.75 L-12.5 -106.9 -12.5 -106.5 -12.65 -105.75 M-16.9 1.85 L-16.75 3.0 -15.65 4.75 -15.15 7.5 -14.5 8.25 -12.75 1.35 -9.4 -2.5 -1.5 -3.5 8.85 -4.0 11.5 13.1 13.35 36.35 13.0 36.35 8.0 36.1 5.0 35.35 -1.65 33.0 -2.25 32.35 -8.4 23.5 Q-15.4 11.25 -14.25 9.25 L-17.65 9.75 -23.5 13.5 -20.65 1.5 -20.25 1.5 -17.75 1.85 -16.9 1.85" fill="#202020" fill-rule="evenodd" stroke="none"/>
      <path d="M-12.0 -102.5 L-12.65 -105.75 -12.5 -106.5 3.25 -37.15 3.35 -36.9 3.5 -36.0 3.75 -34.9 3.75 -34.0 3.0 -36.65 1.25 -44.65 -1.25 -55.0 -2.65 -62.65 -6.0 -76.25 -6.4 -78.65 -8.25 -86.75 -8.4 -87.15 -9.5 -93.0 -12.0 -102.5 M6.1 -23.25 L6.25 -23.9 8.1 -16.65 8.0 -16.25 7.75 -15.75 7.6 -15.9 7.6 -16.75 7.35 -17.65 7.0 -19.25 6.85 -19.5 6.85 -19.9 6.75 -20.15 6.5 -21.65 6.1 -23.25" fill="#010101" fill-rule="evenodd" stroke="none"/>
      <path d="M30.75 -26.4 L32.1 -26.4 31.5 -25.0 30.75 -26.4 M-2.15 -86.65 L11.85 -84.9 -2.0 -86.25 -2.15 -86.65 M12.5 -40.9 L19.25 -44.25 28.25 -43.4 31.5 -42.5 32.6 -31.4 30.5 -31.5 27.35 -31.5 Q27.0 -32.5 22.35 -32.65 L18.75 -31.65 18.25 -32.75 17.5 -32.75 17.6 -34.0 17.1 -34.15 17.0 -33.5 15.75 -35.5 15.6 -36.0 15.1 -36.15 15.0 -36.4 15.0 -36.75 12.5 -37.15 10.75 -38.65 10.6 -39.15 9.6 -39.65 10.0 -41.0 11.75 -40.5 12.5 -40.9 M-10.65 -76.4 L-10.75 -77.15 -6.0 -76.25 -10.65 -76.4 M-11.75 -86.75 L-11.75 -87.25 -8.4 -87.15 -8.25 -86.75 -11.75 -86.75 M20.5 40.5 L22.0 47.1 14.85 46.75 14.25 40.85 14.5 40.5 20.5 40.5 M26.85 32.25 L38.0 31.5 38.1 31.75 38.85 39.6 37.6 43.5 34.25 45.25 31.75 46.5 30.35 46.6 26.85 32.25" fill="#404040" fill-rule="evenodd" stroke="none"/>
      <path d="M11.85 -84.9 L19.35 -83.75 22.1 -83.25 22.0 -82.9 21.25 -83.15 20.35 -82.9 20.25 -82.5 22.5 -82.25 22.75 -81.9 23.1 -79.75 22.0 -79.15 22.0 -78.75 20.25 -78.65 10.75 -78.25 -0.15 -78.5 -2.0 -86.25 11.85 -84.9 M-10.9 -78.75 L-11.25 -79.9 -11.75 -86.75 -8.25 -86.75 -6.4 -78.65 -10.9 -78.75 M23.0 -78.75 L22.25 -78.75 22.6 -79.0 23.0 -78.75" fill="#575757" fill-rule="evenodd" stroke="none"/>
      <path d="M21.25 -76.4 L13.0 -75.75 0.5 -76.0 -0.15 -78.5 10.75 -78.25 20.25 -78.65 20.5 -78.4 22.0 -78.75 22.25 -78.75 23.0 -78.75 25.0 -78.0 25.1 -77.65 23.5 -76.75 21.35 -76.4 21.25 -76.4 M-10.75 -77.15 L-10.9 -78.75 -6.4 -78.65 -6.0 -76.25 -10.75 -77.15" fill="#2f2f2f" fill-rule="evenodd" stroke="none"/>
      <path d="M39.6 84.85 L42.5 97.75 42.5 98.0 41.6 101.25 40.1 106.6 40.1 106.75 39.75 107.5 31.0 107.75 33.6 98.5 33.6 98.1 34.0 97.1 23.6 52.6 21.0 39.35 20.6 39.25 9.25 -12.25 8.85 -12.5 8.0 -16.25 8.1 -16.65 14.85 -16.5 18.25 -3.5 26.85 32.25 30.35 46.6 34.75 64.1 36.6 71.85 36.75 72.85 39.6 84.85 M-10.25 -71.65 L-10.25 -73.75 -8.65 -67.9 -8.65 -67.4 -9.0 -67.9 -10.25 -71.65 M5.35 -37.25 L3.5 -37.25 5.0 -37.5 4.6 -37.65 5.1 -38.0 9.6 -38.0 7.6 -37.9 7.25 -37.9 5.25 -37.9 5.75 -37.5 5.35 -37.25 M9.0 -40.75 L3.25 -40.75 8.85 -41.15 3.85 -40.9 9.0 -40.75 M4.5 -39.65 L3.75 -39.65 4.25 -39.9 4.5 -39.65 M8.85 -37.5 L9.75 -37.5 9.25 -37.4 8.85 -37.5 M13.0 -24.15 L13.1 -23.9 10.85 -23.9 13.0 -24.15 M14.1 -18.65 L13.35 -18.65 13.85 -18.9 14.1 -18.65 M11.25 -23.25 L11.85 -23.4 12.25 -23.4 12.1 -23.0 11.35 -23.0 11.25 -23.25 M12.6 -21.4 L12.0 -21.5 12.6 -21.65 12.85 -21.15 12.1 -21.15 12.6 -21.4 M12.6 -21.9 L11.85 -21.9 12.35 -22.15 12.6 -21.9 M7.1 -21.4 L12.0 -21.15 7.0 -21.15 7.1 -21.4 M8.25 -17.4 L13.85 -17.15 8.1 -17.15 8.25 -17.4 M-23.9 -3.65 L-23.5 -5.4 -22.75 -5.9 -22.75 -6.0 -21.9 -6.4 -21.9 -6.5 -20.65 -7.65 -20.0 -8.0 -20.25 -7.4 -22.75 -4.65 -23.9 -3.65" fill="#242424" fill-rule="evenodd" stroke="none"/>
      <path d="M-14.15 -73.75 L-11.15 -73.65 -10.25 -71.65 -9.0 -67.9 -8.65 -67.4 -8.25 -66.9 -8.25 -66.75 -8.15 -66.5 -3.75 -59.75 -1.25 -55.0 1.25 -44.65 -1.0 -45.0 -5.4 -46.75 -5.65 -46.9 -8.4 -53.15 -8.0 -53.5 -13.0 -68.75 -14.15 -73.75" fill="#8b8b8b" fill-rule="evenodd" stroke="none"/>
      <path d="M44.6 58.85 L43.5 64.35 36.75 72.85 36.6 71.85 Q37.25 71.0 35.75 65.1 L39.5 62.25 44.6 58.85 M-14.75 82.85 L-18.5 79.85 -17.9 76.5 -14.75 82.85 M-20.0 -87.15 L-19.9 -86.5 -20.0 -87.0 -20.0 -87.15" fill="#313131" fill-rule="evenodd" stroke="none"/>
      <path d="M-20.5 -76.65 L-27.25 -76.75 -20.4 -77.4 -20.5 -76.65 M-54.75 -85.75 L-45.15 -86.75 -26.0 -87.65 -20.0 -87.15 -20.0 -87.0 -30.4 -87.25 -44.4 -86.65 -54.5 -85.5 -54.75 -85.75" fill="#363636" fill-rule="evenodd" stroke="none"/>
      <path d="M-20.0 -87.0 L-19.9 -86.5 Q-20.25 -82.0 -19.4 -81.5 L-19.75 -79.0 -40.15 -79.4 -52.75 -80.25 -54.15 -80.4 -54.5 -80.5 -54.5 -81.0 -56.0 -81.75 -56.15 -84.15 -54.25 -84.25 -54.75 -84.75 -56.4 -84.75 -57.15 -85.15 -54.5 -85.5 -44.4 -86.65 -30.4 -87.25 -20.0 -87.0 M-54.9 -80.5 L-55.25 -80.5 -55.75 -80.75 -54.9 -80.5" fill="#3c3c3c" fill-rule="evenodd" stroke="none"/>
      <path d="M-24.25 62.75 L-27.4 39.85 -26.25 27.6 -25.75 28.6 -25.25 32.25 -25.0 35.35 -24.4 38.35 Q-24.9 38.85 -23.9 42.85 L-21.9 33.1 -21.15 31.25 -21.75 27.35 -22.25 24.0 -22.65 21.35 -22.9 18.6 -23.25 17.25 -23.65 14.6 -23.5 13.5 -17.65 9.75 -13.9 32.1 -20.15 36.5 -20.5 37.5 -20.25 37.85 -23.25 50.75 -24.25 62.75 M-54.5 -78.0 Q-58.5 -77.15 -59.65 -80.9 -58.15 -87.75 -54.75 -85.75 L-54.5 -85.5 -57.15 -85.15 -56.4 -84.75 -54.75 -84.75 -54.25 -84.25 -56.15 -84.15 -56.0 -81.75 -54.5 -81.0 -54.5 -80.5 -54.15 -80.4 -52.75 -80.25 -54.15 -80.15 -54.9 -80.5 -55.75 -80.75 -55.25 -80.5 -56.65 -80.5 -58.15 -79.75 -58.15 -79.4 -56.65 -78.65 -55.5 -78.4 -54.5 -78.0" fill="#1a1a1a" fill-rule="evenodd" stroke="none"/>
      <path d="M19.35 -83.75 Q21.85 -85.5 25.85 -79.75 26.1 -75.5 21.25 -76.4 L21.35 -76.4 23.5 -76.75 25.1 -77.65 25.0 -78.0 23.0 -78.75 22.6 -79.0 22.25 -78.75 22.0 -78.75 20.5 -78.4 20.25 -78.65 22.0 -78.75 22.0 -79.15 23.1 -79.75 22.75 -81.9 22.5 -82.25 20.25 -82.5 20.35 -82.9 21.25 -83.15 22.0 -82.9 22.1 -83.25 19.35 -83.75" fill="#606060" fill-rule="evenodd" stroke="none"/>
      <path d="M8.5 -42.9 L10.6 -42.5 12.5 -40.9 11.75 -40.5 10.0 -41.0 9.6 -39.65 10.6 -39.15 10.75 -38.65 12.5 -37.15 15.0 -36.75 15.0 -36.4 10.85 -36.5 9.85 -36.9 9.75 -37.5 9.6 -38.0 9.6 -38.15 9.35 -39.0 9.35 -39.4 9.0 -40.75 8.85 -41.15 8.6 -42.15 8.6 -42.25 8.5 -42.9 M1.25 -44.65 L3.0 -36.65 1.25 -36.65 -0.5 -41.65 -1.65 -43.65 -5.4 -46.75 -1.0 -45.0 1.25 -44.65" fill="#747474" fill-rule="evenodd" stroke="none"/>
      <path d="M9.85 -36.9 L10.85 -36.5 12.0 -34.9 12.0 -34.0 11.85 -32.9 11.0 -32.15 9.25 -32.15 9.0 -32.25 8.0 -32.4 7.6 -32.5 6.35 -33.75 6.25 -34.0 6.35 -34.5 6.75 -35.65 7.0 -35.9 7.6 -36.65 9.6 -37.0 9.85 -36.9 M15.1 -36.15 L15.6 -36.0 15.75 -35.5 15.1 -36.15 M25.85 79.1 L26.25 79.1 26.35 79.6 26.25 81.75 17.0 82.0 17.1 81.5 16.75 81.35 16.85 79.5 25.85 79.1" fill="#505050" fill-rule="evenodd" stroke="none"/>
      <path d="M-27.25 -76.75 L-43.15 -76.9 -53.9 -78.0 -54.5 -78.0 -55.5 -78.4 -56.65 -78.65 -58.15 -79.4 -58.15 -79.75 -56.65 -80.5 -55.25 -80.5 -54.9 -80.5 -54.15 -80.15 -52.75 -80.25 -40.15 -79.4 -19.75 -79.0 -20.0 -77.5 -20.4 -77.4 -27.25 -76.75 M-9.65 63.1 L-4.5 64.85 8.6 69.6 15.6 69.5 15.5 69.75 16.0 70.0 15.85 71.6 16.25 71.75 15.85 72.0 16.35 72.6 Q15.75 73.1 16.6 77.35 L7.5 79.6 7.25 81.75 7.6 82.1 17.0 82.0 17.25 82.75 17.0 87.0 17.35 87.25 17.0 87.35 17.1 88.0 7.75 91.25 7.35 91.25 -5.5 87.0 -5.9 81.5 Q-5.25 79.1 -5.75 76.1 L-5.25 74.35 -5.5 74.0 -6.15 71.6 -6.65 66.0 -9.65 63.1" fill="#1d1d1d" fill-rule="evenodd" stroke="none"/>
      <path d="M-17.0 -42.4 L-17.75 -54.5 -19.15 -60.25 -18.9 -61.5 -19.5 -70.0 -17.75 -73.65 -14.15 -73.75 -13.0 -68.75 -8.0 -53.5 -8.4 -53.15 -5.65 -46.9 -10.15 -45.15 -12.15 -43.25 -15.15 -42.75 -15.9 -42.0 -16.0 -41.75 -17.0 -42.4" fill="#262626" fill-rule="evenodd" stroke="none"/>
      <path d="M-5.65 -46.9 L-5.4 -46.75 -1.65 -43.65 -0.5 -41.65 1.25 -36.65 -12.65 -36.65 -12.9 -36.5 -12.9 -37.0 -11.0 -37.5 -10.65 -37.75 -10.65 -39.25 -10.0 -40.15 -11.5 -41.15 Q-12.25 -40.65 -16.0 -41.75 L-15.9 -42.0 -15.15 -42.75 -12.15 -43.25 -10.15 -45.15 -5.65 -46.9" fill="#454545" fill-rule="evenodd" stroke="none"/>
      <path d="M-26.25 -44.4 L-25.9 -53.9 -24.9 -59.5 -23.65 -63.9 -22.5 -66.0 -19.5 -70.0 -18.9 -61.5 -19.15 -60.25 -17.75 -54.5 -17.0 -42.4 -21.25 -44.75 -26.25 -44.4 M6.1 -23.25 L6.5 -21.65 6.75 -20.15 6.85 -19.9 6.85 -19.5 7.0 -19.25 7.35 -17.65 7.6 -16.75 7.6 -15.9 7.75 -15.75 7.85 -15.65 7.85 -15.4 8.5 -12.15 7.1 -12.0 3.85 -12.75 1.75 -14.75 1.6 -16.15 2.5 -21.4 2.75 -25.65 5.0 -25.15 6.0 -23.9 6.1 -23.65 6.1 -23.25" fill="#030303" fill-rule="evenodd" stroke="none"/>
      <path d="M32.5 1.1 L31.25 1.75 30.5 1.75 29.1 1.25 28.85 0.6 29.0 -1.25 29.0 -1.5 30.0 -1.9 31.1 -2.15 31.75 -2.15 32.5 -1.75 32.85 -1.25 33.0 -0.75 33.0 0.25 32.5 1.1 M-180.75 -32.65 L-179.9 -36.4 -169.75 -34.0 -34.15 -32.25 -23.0 -32.15 -14.75 -32.0 -14.4 -29.75 -1.75 -30.4 -1.4 -29.25 -1.25 -28.15 -170.5 -30.15 -180.75 -32.65 M-8.65 -67.9 L-8.25 -66.9 -8.65 -67.4 -8.65 -67.9 M27.35 -31.5 L30.5 -31.5 30.85 -30.15 30.35 -30.0 18.85 -29.4 18.75 -31.65 20.75 -31.65 21.1 -31.5 27.35 -31.5" fill="#131313" fill-rule="evenodd" stroke="none"/>
      <path d="M-23.65 -63.9 L-22.5 -67.4 -22.5 -66.0 -23.65 -63.9" fill="#222222" fill-rule="evenodd" stroke="none"/>
      <path d="M18.5 -26.5 L21.0 -26.5 21.25 -26.4 21.25 -26.15 21.35 -25.75 21.35 -25.5 21.85 -23.75 22.0 -23.4 22.1 -22.9 22.25 -22.75 22.25 -22.4 22.35 -22.0 22.75 -20.9 22.75 -20.75 22.6 -20.15 23.0 -19.9 23.0 -19.5 25.5 -10.4 26.6 -2.5 18.25 -3.5 14.85 -16.5 14.35 -18.0 14.35 -18.15 13.1 -23.9 13.0 -24.15 12.75 -25.25 16.1 -26.0 Q14.75 -21.15 15.85 -20.5 L16.6 -26.0 18.35 -26.15 18.5 -26.5 M3.0 -36.65 L3.75 -34.0 3.75 -33.9 2.1 -33.5 1.25 -36.65 3.0 -36.65 M10.85 -36.5 L15.0 -36.4 15.1 -36.15 15.75 -35.5 17.0 -33.5 17.0 -32.75 12.0 -34.0 12.0 -34.9 10.85 -36.5 M20.6 -22.65 L18.35 -8.15 18.85 -8.0 21.0 -22.65 20.5 -22.9 20.6 -22.65 M7.1 -12.0 L8.5 -12.15 10.35 -4.0 8.85 -4.0 7.1 -12.0" fill="#8c8c8c" fill-rule="evenodd" stroke="none"/>
      <path d="M182.25 -23.9 L171.75 -26.15 30.0 -27.75 29.5 -27.9 18.85 -27.9 18.85 -29.4 30.35 -30.0 30.85 -30.15 30.5 -31.5 32.6 -31.4 168.5 -29.75 179.75 -27.5 182.25 -23.9 M-14.75 -32.0 L-13.9 -32.0 -4.25 -31.9 -3.9 -31.9 -2.0 -31.9 -1.75 -30.4 -14.4 -29.75 -14.75 -32.0" fill="#353535" fill-rule="evenodd" stroke="none"/>
      <path d="M18.85 -27.9 L18.5 -26.65 17.6 -26.5 18.5 -26.5 18.35 -26.15 16.6 -26.0 16.1 -26.0 12.75 -25.25 Q14.35 -28.9 11.0 -32.15 L11.85 -32.9 12.0 -34.0 17.0 -32.75 17.5 -32.75 18.25 -32.75 18.75 -31.65 18.85 -29.4 18.85 -27.9 M-26.4 -11.5 L-26.4 -13.4 -27.5 -20.5 -27.9 -21.0 -27.65 -21.9 -28.0 -23.9 -27.5 -27.0 -15.65 -26.9 -14.15 -19.25 Q-15.15 -17.5 -13.65 -12.4 L-12.25 -9.65 -12.9 -7.65 -13.15 -7.75 -14.5 -8.5 -16.75 -8.75 -19.25 -8.5 -20.0 -8.0 -20.65 -7.65 -22.0 -7.0 -22.75 -6.0 -22.75 -5.9 -23.5 -5.4 -23.9 -3.65 -24.15 -3.25 -23.75 -1.25 -24.9 -2.5 -25.4 -5.0 -25.4 -5.15 -26.0 -8.9 -26.4 -11.5 M-4.0 -33.15 L-4.15 -33.4 -3.75 -33.25 -4.0 -33.15" fill="#464646" fill-rule="evenodd" stroke="none"/>
      <path d="M17.0 -33.5 L17.1 -34.15 17.6 -34.0 17.5 -32.75 17.0 -32.75 17.0 -33.5 M16.1 -26.0 L16.6 -26.0 15.85 -20.5 Q14.75 -21.15 16.1 -26.0 M17.1 88.0 L26.25 90.75 17.0 91.1 17.1 88.0" fill="#070707" fill-rule="evenodd" stroke="none"/>
      <path d="M2.75 -25.65 L2.5 -21.4 1.6 -16.15 1.75 -14.75 3.85 -12.75 7.1 -12.0 8.85 -4.0 -1.5 -3.5 -9.4 -2.5 -11.9 -11.25 -14.9 -26.9 -4.9 -26.75 Q-6.15 -21.4 -5.0 -20.65 L-4.4 -26.75 -1.9 -26.75 -1.75 -26.5 0.85 -26.25 2.75 -25.65 M-12.65 -36.65 L1.25 -36.65 2.1 -33.5 -1.65 -32.75 -2.0 -31.9 -3.9 -31.9 -3.75 -33.25 -4.15 -33.4 -4.0 -33.15 -4.25 -31.9 -13.9 -32.0 -13.0 -35.4 -12.5 -36.15 -12.65 -36.65 M-1.0 -21.65 L-1.5 -21.65 -3.15 -8.15 -2.75 -8.0 -1.0 -21.65" fill="#525252" fill-rule="evenodd" stroke="none"/>
      <path d="M26.6 93.5 L16.1 93.85 16.0 93.35 16.75 93.25 16.1 93.0 16.85 93.0 16.1 92.85 16.25 92.35 17.1 92.1 16.35 92.0 17.1 91.85 16.5 91.75 16.6 91.1 17.0 91.1 26.25 90.75 26.6 93.5 M-12.9 -36.5 L-12.65 -36.65 -12.5 -36.15 -13.0 -35.4 -12.9 -36.5 M-15.65 -26.9 L-14.9 -26.9 -11.9 -11.25 -9.4 -2.5 -12.75 1.35 -14.5 8.25 -15.15 7.5 -15.65 4.75 -16.75 3.0 -16.9 1.85 Q-14.65 2.0 -14.9 -1.4 L-15.75 -5.5 -16.75 -8.0 -16.75 -8.75 -14.5 -8.5 -13.15 -7.75 -12.9 -7.65 -12.25 -9.65 -13.65 -12.4 Q-15.15 -17.5 -14.15 -19.25 L-15.65 -26.9" fill="#0a0a0a" fill-rule="evenodd" stroke="none"/>
      <path d="M6.35 -34.5 L6.25 -34.0 6.35 -33.75 7.0 -32.15 Q3.25 -26.65 5.0 -25.15 L2.75 -25.65 0.85 -26.25 -1.75 -26.5 -1.9 -26.75 1.0 -26.75 -1.4 -27.5 -1.25 -28.15 -1.4 -29.25 -1.15 -30.75 -1.65 -32.75 2.1 -33.5 3.75 -33.9 6.35 -34.5" fill="#181818" fill-rule="evenodd" stroke="none"/>
      <path d="M3.75 -35.4 L4.0 -35.65 3.85 -35.4 3.75 -35.4 M7.75 91.25 L17.1 88.0 17.0 91.1 16.6 91.1 7.75 91.25" fill="#050505" fill-rule="evenodd" stroke="none"/>
      <path d="M6.35 -33.75 L7.6 -32.5 8.0 -32.4 9.0 -32.25 9.25 -32.15 11.0 -32.15 Q14.35 -28.9 12.75 -25.25 L11.25 -26.5 8.5 -26.5 7.1 -25.65 6.25 -24.4 6.0 -23.9 5.0 -25.15 Q3.25 -26.65 7.0 -32.15 L6.35 -33.75 M-17.65 9.75 L-14.25 9.25 Q-15.4 11.25 -8.4 23.5 L-2.25 32.35 -13.9 32.1 -17.65 9.75" fill="#272727" fill-rule="evenodd" stroke="none"/>
      <path d="M36.6 -3.4 L35.85 -1.4 31.6 -5.65 31.5 -6.15 31.1 -7.25 31.1 -7.65 30.75 -8.4 30.75 -8.5 30.6 -8.65 31.25 -8.65 31.75 -8.5 33.1 -8.4 34.75 -7.4 35.35 -7.15 36.25 -5.5 36.35 -3.5 36.6 -3.4 M20.6 -22.65 L21.0 -22.65 18.85 -8.0 18.35 -8.15 20.6 -22.65 M-4.9 -26.75 L-4.4 -26.75 -5.0 -20.65 Q-6.15 -21.4 -4.9 -26.75 M-4.0 -33.15 L-3.75 -33.25 -3.9 -31.9 -4.25 -31.9 -4.0 -33.15 M-1.0 -21.65 L-2.75 -8.0 -3.15 -8.15 -1.5 -21.65 -1.0 -21.65" fill="#080808" fill-rule="evenodd" stroke="none"/>
      <path d="M5.6 94.1 L-5.75 89.5 -5.5 87.0 7.35 91.25 5.6 94.1 M-1.65 -32.75 L-1.15 -30.75 -1.4 -29.25 -1.75 -30.4 -2.0 -31.9 -1.65 -32.75 M-24.65 18.5 L-23.65 14.6 -23.25 17.25 -23.75 18.6 -25.75 28.6 -26.25 27.6 -26.0 24.75 -25.65 24.25 -24.65 18.5 M-25.25 32.25 L-22.65 21.35 -22.25 24.0 -23.0 25.85 -23.15 27.75 -24.4 32.5 -24.65 35.25 -25.0 35.35 -25.25 32.25 M-21.75 27.35 L-21.15 31.25 -21.9 33.1 -23.9 42.85 Q-24.9 38.85 -24.4 38.35 L-23.75 37.0 -21.75 27.35 M39.1 62.25 L35.5 49.25 35.5 48.25 34.25 45.25 37.6 43.5 41.75 48.6 42.0 50.0 39.85 61.1 39.5 62.25 39.1 62.25" fill="#020202" fill-rule="evenodd" stroke="none"/>
      <path d="M21.0 -26.5 L30.75 -26.4 31.5 -25.0 37.0 -7.75 Q37.6 -3.75 36.6 -3.4 L36.35 -3.5 36.25 -5.5 35.35 -7.15 34.75 -7.4 33.1 -8.4 31.75 -8.5 31.25 -8.65 30.6 -8.65 29.1 -8.4 28.35 -8.4 27.1 -7.65 26.85 -7.9 26.0 -9.75 Q27.25 -10.65 25.25 -16.65 L23.0 -19.5 23.0 -19.9 22.75 -20.75 22.75 -20.9 22.35 -22.0 22.25 -22.4 22.25 -22.75 22.1 -22.9 22.0 -23.4 21.85 -23.75 21.35 -25.5 21.35 -25.75 21.25 -26.15 21.25 -26.4 21.0 -26.5 M36.75 13.35 L43.25 35.85 38.1 31.75 38.0 31.5 26.85 32.25 27.75 30.0 29.35 23.35 29.5 9.25 32.0 9.6 36.75 13.35" fill="#666666" fill-rule="evenodd" stroke="none"/>
      <path d="M43.25 35.85 L44.6 49.75 43.0 46.6 42.6 46.5 43.5 50.35 43.6 52.75 43.0 52.35 42.75 51.1 42.0 50.0 41.75 48.6 37.6 43.5 38.85 39.6 38.1 31.75 43.25 35.85 M22.75 -20.75 L23.0 -19.9 22.6 -20.15 22.75 -20.75" fill="#484848" fill-rule="evenodd" stroke="none"/>
      <path d="M6.0 -23.9 L6.25 -24.4 7.1 -25.65 8.5 -26.5 11.25 -26.5 12.75 -25.25 13.0 -24.15 6.25 -23.9 6.1 -23.25 6.1 -23.65 6.0 -23.9" fill="#040404" fill-rule="evenodd" stroke="none"/>
      <path d="M21.0 -22.65 L20.6 -22.65 20.5 -22.9 21.0 -22.65" fill="#4b4b4b" fill-rule="evenodd" stroke="none"/>
      <path d="M-29.75 14.0 L-30.0 4.35 -27.65 -7.75 -26.0 -8.9 -25.4 -5.15 -25.4 -5.0 -28.5 11.35 -28.0 18.25 -29.75 14.0" fill="#3b3b3b" fill-rule="evenodd" stroke="none"/>
      <path d="M29.1 -8.4 L30.6 -8.65 30.75 -8.5 30.75 -8.4 31.1 -7.65 31.1 -7.25 31.5 -6.15 31.6 -5.65 32.85 -1.25 32.5 -1.75 31.75 -2.15 31.1 -2.15 30.0 -1.9 29.0 -1.5 29.1 -8.4 M29.1 1.25 L30.5 1.75 29.35 1.85 29.1 1.5 29.1 1.25" fill="#393939" fill-rule="evenodd" stroke="none"/>
      <path d="M23.0 -19.5 L25.25 -16.65 Q27.25 -10.65 26.0 -9.75 L26.85 -7.9 27.1 -7.65 28.35 -8.4 29.1 -8.4 29.0 -1.5 29.0 -1.25 28.85 0.6 28.85 1.0 26.6 -2.5 25.5 -10.4 23.0 -19.5" fill="#8f8f8f" fill-rule="evenodd" stroke="none"/>
      <path d="M-16.75 -8.75 L-16.75 -8.0 -15.75 -5.5 -14.9 -1.4 -15.9 -2.15 -17.5 -2.15 -18.25 -1.75 -19.0 -1.0 -19.25 -1.25 -19.15 -2.0 -19.5 -2.4 -19.4 -3.75 -19.75 -4.15 -19.5 -4.65 -19.9 -5.25 -20.0 -5.65 -19.75 -6.0 -20.15 -6.65 -20.25 -7.4 -20.0 -8.0 -19.25 -8.5 -16.75 -8.75" fill="#282828" fill-rule="evenodd" stroke="none"/>
      <path d="M-14.9 -1.4 Q-14.65 2.0 -16.9 1.85 L-17.75 1.85 -18.75 0.6 -19.0 -1.0 -18.25 -1.75 -17.5 -2.15 -15.9 -2.15 -14.9 -1.4" fill="#121212" fill-rule="evenodd" stroke="none"/>
      <path d="M-19.25 -1.25 L-19.0 -1.0 -18.75 0.6 -17.75 1.85 -20.25 1.5 -19.75 -0.65 -19.25 -1.25" fill="#b8b8b8" fill-rule="evenodd" stroke="none"/>
      <path d="M-19.5 -2.4 L-19.15 -2.0 -19.25 -1.25 -19.75 -0.65 -19.5 -2.4" fill="#b7b7b7" fill-rule="evenodd" stroke="none"/>
      <path d="M-19.9 -5.25 L-19.5 -4.65 -19.75 -4.15 -19.4 -3.75 -19.5 -2.4 -19.75 -0.65 -20.25 1.5 -20.65 1.5 -22.25 0.35 -19.9 -5.25" fill="#a4a4a4" fill-rule="evenodd" stroke="none"/>
      <path d="M-20.15 -6.65 L-19.75 -6.0 -20.0 -5.65 -19.9 -5.25 -22.25 0.35 -23.75 -1.15 -23.75 -1.25 -22.5 -2.9 -20.4 -6.4 -20.15 -6.65 M16.6 77.35 L16.85 79.5 7.5 79.6 16.6 77.35" fill="#3f3f3f" fill-rule="evenodd" stroke="none"/>
      <path d="M-22.75 -6.0 L-22.0 -7.0 -20.65 -7.65 -21.9 -6.5 -21.9 -6.4 -22.75 -6.0" fill="#111111" fill-rule="evenodd" stroke="none"/>
      <path d="M18.25 -3.5 L26.6 -2.5 28.85 1.0 29.1 1.25 29.1 1.5 29.0 1.85 29.5 9.25 29.35 23.35 27.75 30.0 26.85 32.25 18.25 -3.5 M8.85 -4.0 L10.35 -4.0 13.0 8.1 14.25 12.0 14.1 12.6 14.5 13.1 14.35 13.75 14.75 14.25 19.25 35.85 13.35 36.35 11.5 13.1 8.85 -4.0" fill="#707070" fill-rule="evenodd" stroke="none"/>
      <path d="M-25.4 -5.0 L-24.9 -2.5 -23.75 -1.25 -23.75 -1.15 -22.25 0.35 -20.65 1.5 -23.5 13.5 -23.65 14.6 -24.65 18.5 -28.0 18.25 -28.5 11.35 -25.4 -5.0 M-22.9 18.6 L-23.75 18.6 -23.25 17.25 -22.9 18.6" fill="#787878" fill-rule="evenodd" stroke="none"/>
      <path d="M19.25 35.85 L20.5 40.5 14.5 40.5 14.0 40.5 13.85 39.6 14.35 39.6 13.6 39.35 13.0 36.35 13.35 36.35 19.25 35.85 M13.75 38.5 L14.1 38.5 13.85 38.25 13.75 38.5" fill="#383838" fill-rule="evenodd" stroke="none"/>
      <path d="M34.0 0.35 L32.5 1.1 33.0 0.25 33.0 -0.75 32.85 -1.25 34.0 0.35" fill="#1c1c1c" fill-rule="evenodd" stroke="none"/>
      <path d="M28.85 0.6 L29.1 1.25 28.85 1.0 28.85 0.6 M29.1 1.5 L29.35 1.85 29.0 1.85 29.1 1.5" fill="#dadada" fill-rule="evenodd" stroke="none"/>
      <path d="M31.25 1.75 L36.75 13.35 32.0 9.6 29.5 9.25 29.0 1.85 29.35 1.85 30.5 1.75 31.25 1.75" fill="#7c7c7c" fill-rule="evenodd" stroke="none"/>
      <path d="M22.0 47.1 L25.85 64.35 18.25 64.5 14.85 46.75 22.0 47.1 M30.35 46.6 L31.75 46.5 34.25 45.25 35.5 48.25 35.5 49.25 39.1 62.25 34.75 64.1 30.35 46.6" fill="#3a3a3a" fill-rule="evenodd" stroke="none"/>
      <path d="M5.0 35.35 L8.0 36.1 13.0 36.35 13.6 39.35 14.35 39.6 13.85 39.6 14.0 40.5 6.0 40.6 5.0 35.35 M13.75 38.5 L13.85 38.25 14.1 38.5 13.75 38.5" fill="#343434" fill-rule="evenodd" stroke="none"/>
      <path d="M25.85 64.35 L26.6 67.85 22.85 69.35 15.6 69.5 8.6 69.6 9.75 60.6 9.5 59.25 10.35 49.1 11.0 49.1 11.1 48.6 10.5 48.6 10.5 47.75 11.1 47.75 11.25 47.1 14.85 46.75 18.25 64.5 25.85 64.35" fill="#595959" fill-rule="evenodd" stroke="none"/>
      <path d="M-4.5 64.85 L-2.75 64.75 5.35 47.35 11.25 47.1 11.1 47.75 10.5 47.75 10.5 48.6 11.1 48.6 11.0 49.1 10.35 49.1 9.5 59.25 9.75 60.6 8.6 69.6 -4.5 64.85" fill="#292929" fill-rule="evenodd" stroke="none"/>
      <path d="M-8.75 44.0 L-2.15 47.0 5.35 47.35 -2.75 64.75 -4.5 64.85 -9.65 63.1 -9.9 62.85 -14.15 54.35 -14.5 54.5 -16.25 60.0 -16.9 65.1 -19.5 60.85 -20.9 56.35 -20.4 50.6 -16.65 46.5 Q-15.4 53.1 -14.15 54.1 L-12.5 50.35 -8.75 44.0" fill="#4e4e4e" fill-rule="evenodd" stroke="none"/>
      <path d="M43.85 53.85 L44.6 58.85 39.5 62.25 39.85 61.1 42.75 55.35 43.25 53.6 43.6 53.5 43.85 53.85" fill="#141b14" fill-rule="evenodd" stroke="none"/>
      <path d="M26.6 67.85 L28.0 72.85 31.25 88.6 26.25 90.75 17.1 88.0 17.0 87.35 17.35 87.25 17.0 87.0 17.25 82.75 17.0 82.0 26.25 81.75 26.35 79.6 26.25 79.1 25.85 79.1 16.6 77.35 Q15.75 73.1 16.35 72.6 L15.85 72.0 16.25 71.75 15.85 71.6 16.0 70.0 15.5 69.75 15.6 69.5 22.85 69.35 26.6 67.85 M34.75 64.1 L39.1 62.25 39.5 62.25 35.75 65.1 Q37.25 71.0 36.6 71.85 L34.75 64.1" fill="#4c4c4c" fill-rule="evenodd" stroke="none"/>
      <path d="M-16.25 60.0 L-14.5 54.5 -14.15 54.35 -9.9 62.85 -16.25 60.0" fill="#030502" fill-rule="evenodd" stroke="none"/>
      <path d="M43.5 64.35 L42.5 69.6 43.0 73.85 42.75 79.0 41.6 82.5 39.6 84.85 36.75 72.85 43.5 64.35" fill="#212121" fill-rule="evenodd" stroke="none"/>
      <path d="M7.5 79.6 L16.85 79.5 16.75 81.35 17.1 81.5 17.0 82.0 7.6 82.1 7.25 81.75 7.5 79.6" fill="#2b2b2b" fill-rule="evenodd" stroke="none"/>
      <path d="M16.6 77.35 L25.85 79.1 16.85 79.5 16.6 77.35" fill="#5f5f5f" fill-rule="evenodd" stroke="none"/>
      <path d="M-24.0 18.5 L-23.4 16.5 -22.9 18.6 -22.65 21.35 -23.25 23.5 -23.4 24.35 -23.65 25.0 -24.0 27.85 -24.65 30.0 -24.75 30.75 -25.0 31.0 -25.4 32.75 -25.9 29.5 -25.9 27.85 -25.25 25.25 -25.25 24.6 -25.0 24.25 -24.65 22.5 -24.75 22.5 -24.65 22.1 -24.65 21.6 -24.15 19.85 -24.15 19.35 -24.0 19.25 -24.0 18.5 M-21.75 27.35 L-22.25 29.35 -22.4 29.6 -22.65 30.35 -23.15 34.0 -23.5 34.85 -23.5 35.25 -23.65 35.85 -23.75 37.0 -24.15 37.25 -24.4 38.35 -24.9 36.6 -25.15 36.0 -25.0 35.75 -25.0 34.85 -24.9 34.85 -24.4 32.6 -24.5 32.6 -24.4 32.35 -23.75 30.0 -23.75 29.5 -23.65 29.5 -23.65 28.35 -23.15 26.25 -23.0 26.1 -23.0 25.5 -22.9 25.5 -22.4 23.35 -22.0 24.35 -21.75 27.35 M-14.4 54.0 L-14.4 54.35 -15.25 57.1 -15.9 58.6 -16.25 60.1 -16.25 60.35 -16.9 65.35 -19.65 60.85 -19.75 60.75 -20.15 58.6 -20.9 56.75 -20.9 56.0 -21.0 55.35 -20.4 50.6 -20.4 50.5 -16.75 46.35 -14.65 53.85 -14.4 54.0" fill="#000000" fill-opacity="0.50980395" fill-rule="evenodd" stroke="none"/>
      <path d="M-14.4 54.0 L-12.15 49.35 -8.9 44.25 -8.9 44.1 -8.5 44.0 -6.65 45.0 -1.9 47.0 6.6 47.35 14.35 46.85 14.5 47.6 15.35 66.0 15.25 66.25 15.35 66.25 15.5 69.5 8.1 69.6 7.5 69.35 7.35 69.35 5.6 68.6 5.5 68.6 -9.4 63.25 -9.5 63.25 -10.0 62.85 -14.25 54.35 -14.4 54.35 -14.4 54.0 M43.6 53.5 L43.5 52.75 43.25 49.85 43.25 49.25 42.75 46.5 44.5 49.35 44.35 49.6 44.5 49.75 44.5 50.35 43.85 53.1 43.6 53.5" fill="#050505" fill-opacity="0.50980395" fill-rule="evenodd" stroke="none"/>
      <path d="M14.5 47.6 L14.35 46.85 14.85 46.75 14.75 47.6 14.5 47.6" fill="#0b0b0b" fill-rule="evenodd" stroke="none"/>
      <path d="M15.5 69.5 L15.35 66.25 15.25 66.25 15.35 66.0 14.5 47.6 14.75 47.6 14.85 46.75 15.1 46.75 15.0 47.6 15.1 47.85 15.25 49.75 15.35 50.35 15.6 65.85 15.35 66.0 15.85 69.5 15.5 69.5" fill="#0f0f0f" fill-rule="evenodd" stroke="none"/>
      <path d="M15.1 46.75 L22.0 47.1 26.5 66.5 26.5 67.25 26.75 67.6 26.6 67.85 23.5 69.25 23.1 69.35 15.85 69.5 15.35 66.0 15.6 65.85 15.35 50.35 15.25 49.75 15.1 47.85 15.0 47.6 15.1 46.75 M43.6 53.5 L43.25 53.6 43.35 54.0 39.85 61.1 39.5 62.25 39.1 62.25 38.85 62.5 34.75 64.1 33.1 58.0 33.0 57.75 31.25 50.1 31.1 49.85 30.35 46.6 31.1 46.6 32.25 46.25 Q34.95 44.9 37.6 43.5 L39.6 45.75 39.6 45.85 39.75 46.25 41.75 48.75 41.85 49.5 42.0 50.0 43.1 52.5 43.5 52.75 43.6 53.5" fill="#0d0d0d" fill-opacity="0.50980395" fill-rule="evenodd" stroke="none"/>
      <path d="M44.5 50.35 L45.1 53.75 44.5 57.5 43.75 53.75 43.6 53.5 43.85 53.1 44.5 50.35" fill="#050505" fill-rule="evenodd" stroke="none"/>
    </g>
  </defs>
</svg>
