<?xml version="1.0" encoding="UTF-8" standalone="no"?>
<svg xmlns:xlink="http://www.w3.org/1999/xlink" height="299.1px" width="376.5px" xmlns="http://www.w3.org/2000/svg">
  <g transform="matrix(1.0, 0.0, 0.0, 1.0, 182.65, 150.0)">
    <use height="276.85" transform="matrix(1.0, 0.0, 0.0, 1.0, -180.9, -147.5)" width="339.9" xlink:href="#shape0"/>
  </g>
  <defs>
    <g id="shape0" transform="matrix(1.0, 0.0, 0.0, 1.0, 180.9, 147.5)">
      <path d="M19.75 -16.15 L149.25 -42.4 159.0 -41.75 158.5 -40.65 148.75 -41.15 33.1 -17.5 31.25 -17.15 31.25 -16.75 31.0 -17.0 22.0 -15.15 19.1 -14.65 17.25 -14.25 19.75 -15.5 19.75 -16.15 M25.75 -21.75 L24.6 -21.5 23.85 -21.4 19.25 -20.5 19.0 -21.0 Q19.25 -21.75 23.35 -22.15 L25.75 -21.75 M-18.25 -131.0 Q-16.9 -131.4 -14.15 -137.75 L-6.75 -147.5 -4.5 -145.9 -3.4 -144.75 -15.9 -128.65 -16.4 -128.25 -16.75 -128.9 -17.15 -129.5 -17.5 -129.0 -18.0 -128.5 -19.15 -129.65 -18.25 -131.0 M-10.9 -117.65 L-7.65 -114.75 -10.25 -111.25 -11.0 -110.75 -12.0 -111.75 -14.0 -113.15 -17.4 -116.15 -19.25 -117.5 -21.15 -119.4 -21.25 -119.75 -19.65 -121.9 -19.15 -121.9 -17.25 -120.15 -15.0 -120.15 -14.0 -119.9 -10.9 -117.65 M-25.25 -128.25 L-24.75 -127.65 -25.25 -126.9 -25.75 -126.4 -25.75 -126.25 -26.4 -125.25 -27.25 -125.65 -27.75 -126.25 -30.4 -126.25 -31.4 -127.15 -36.4 -130.9 -33.65 -134.75 -26.65 -129.4 -26.4 -129.25 -26.15 -129.0 -25.75 -128.75 -25.25 -128.25 M-28.75 -118.25 L-28.15 -118.75 -27.15 -117.5 -27.4 -117.0 -30.15 -114.15 -30.25 -113.5 -32.15 -109.4 -39.4 -100.25 -41.25 -102.15 -28.75 -118.25 M-24.9 -58.15 L-37.75 -76.65 -37.9 -76.65 -38.15 -77.15 -39.65 -79.4 -42.25 -83.0 -45.4 -87.5 -45.5 -87.75 -54.9 -101.0 -54.9 -102.25 -54.4 -102.0 -40.0 -81.5 -39.65 -80.5 -33.75 -72.65 -33.65 -72.0 -33.15 -71.9 1.85 -21.75 2.0 -21.5 2.0 -20.9 2.6 -20.25 2.5 -19.5 2.25 -19.9 1.0 -21.5 0.85 -21.75 -9.65 -36.75 -9.9 -37.0 -10.5 -37.9 -14.4 -43.4 -14.5 -43.65 -17.25 -47.5 -17.4 -47.5 -17.9 -48.4 -24.75 -58.15 -24.9 -58.15 M10.5 -8.25 L10.6 -8.4 10.5 -8.5 10.6 -9.15 10.75 -9.15 10.85 -9.15 14.75 -3.65 15.0 -3.4 15.1 -3.15 15.35 -2.9 99.75 116.6 102.6 128.25 109.75 125.85 109.0 127.35 Q103.0 130.0 102.1 129.1 L99.35 118.1 48.5 45.6 38.0 31.25 32.35 23.1 32.0 22.75 30.1 19.6 29.6 19.35 24.0 11.1 19.5 4.85 19.1 4.35 16.25 0.0 16.1 -0.15 16.0 -0.4 15.85 -0.5 15.75 -0.75 15.5 -1.0 15.25 -1.4 14.6 -2.25 14.35 -2.65 12.6 -5.0 12.5 -5.0 11.1 -7.25 10.85 -7.5 10.5 -8.25 M1.35 -12.4 L1.6 -12.4 2.0 -12.5 3.0 -12.65 2.5 -12.25 3.35 -12.25 4.1 -11.75 2.25 -11.15 2.0 -11.15 1.6 -11.0 -4.25 -9.9 -5.0 -9.65 -13.0 -8.15 -13.9 -7.9 -26.65 -5.25 -165.9 23.1 -179.25 22.6 -179.4 21.85 -179.5 21.75 -179.5 21.25 -166.25 21.75 -8.65 -10.25 1.35 -12.4 M-27.65 -13.5 L-28.15 -15.9 Q-28.0 -18.4 -25.0 -20.9 -18.25 -24.4 -13.5 -21.25 L-15.75 -19.9 Q-20.0 -22.9 -25.25 -19.9 L-26.9 -18.15 -27.25 -16.25 -27.65 -16.0 -27.65 -13.5 M-3.9 -15.9 L-3.65 -16.0 -3.65 -15.9 -3.9 -15.9" fill="#000000" fill-rule="evenodd" stroke="none"/>
      <path d="M-25.25 -128.4 L-25.25 -128.25 -25.75 -128.75 -25.25 -128.4" fill="#111111" fill-rule="evenodd" stroke="none"/>
      <path d="M-18.25 -131.0 L-19.15 -129.65 -18.0 -128.5 -17.5 -129.0 -17.15 -129.5 -16.75 -128.9 -16.9 -125.9 Q-17.75 -122.9 -19.15 -121.9 L-19.65 -121.9 -21.25 -119.75 -21.15 -119.4 Q-21.4 -118.25 -24.15 -117.15 L-26.4 -116.65 -27.4 -117.0 -27.15 -117.5 -28.15 -118.75 -28.75 -118.25 Q-30.25 -120.65 -27.25 -125.65 L-26.4 -125.25 -25.75 -126.25 -25.75 -126.4 -25.25 -126.9 -24.75 -127.65 -25.25 -128.25 -25.25 -128.4 -24.0 -129.5 -21.65 -130.9 -19.5 -131.4 -18.25 -131.0 M15.6 108.35 L6.85 108.5 16.35 105.35 16.0 108.35 15.6 108.35" fill="#050505" fill-rule="evenodd" stroke="none"/>
      <path d="M-15.9 -128.65 L-15.4 -128.65 -14.75 -124.9 -15.0 -125.0 -16.4 -128.25 -15.9 -128.65" fill="#535353" fill-rule="evenodd" stroke="none"/>
      <path d="M-26.4 -116.65 L-24.15 -117.15 Q-21.4 -118.25 -21.15 -119.4 L-19.25 -117.5 -17.4 -116.15 -18.75 -115.15 -26.15 -116.5 -26.4 -116.65 M-19.15 -121.9 Q-17.75 -122.9 -16.9 -125.9 L-16.75 -128.9 -16.4 -128.25 -15.0 -125.0 -15.0 -124.65 -14.65 -122.65 -15.0 -120.15 -17.25 -120.15 -19.15 -121.9 M-19.4 -68.9 L-17.4 -72.65 -13.9 -72.5 -12.65 -66.5 -7.75 -49.15 -7.9 -48.15 -5.9 -42.5 -19.0 -60.65 -18.9 -66.0 -19.4 -68.9 M-17.4 -47.5 L-17.25 -47.5 -14.5 -43.65 -14.4 -43.4 -10.5 -37.9 -16.0 -33.65 -16.65 -34.0 -17.4 -47.5 M-23.75 9.25 L-23.25 7.85 -22.15 6.6 -21.15 5.75 -20.65 5.5 -22.0 7.5 -23.75 9.25 M-14.4 21.35 L-12.4 14.85 -9.0 11.35 -2.5 10.6 9.35 10.0 11.5 24.85 13.35 52.5 13.0 52.5 7.35 52.25 5.0 51.35 -1.65 48.75 -2.25 48.0 -8.65 37.6 Q-15.25 24.5 -14.15 22.5 L-14.4 21.35" fill="#222222" fill-rule="evenodd" stroke="none"/>
      <path d="M-15.4 -128.65 L-11.65 -128.65 -11.4 -128.25 -11.15 -127.5 -11.65 -127.9 -11.25 -126.75 -12.15 -125.9 -14.65 -124.9 -14.75 -124.9 -15.4 -128.65 M13.0 52.5 L13.35 52.5 19.1 52.1 21.1 51.35 22.5 57.1 13.85 57.1 14.1 56.85 14.35 56.75 13.75 56.5 13.75 56.0 14.25 56.0 14.25 55.6 13.6 55.6 14.25 55.25 13.5 55.25 13.6 54.25 13.25 54.1 13.5 53.85 13.25 53.35 13.85 53.25 13.1 53.25 13.75 52.85 13.0 52.5" fill="#3b3b3b" fill-rule="evenodd" stroke="none"/>
      <path d="M-14.15 -124.25 L-15.0 -124.65 -15.0 -125.0 -14.75 -124.9 -14.65 -124.9 -14.5 -124.9 -14.15 -124.25" fill="#282828" fill-rule="evenodd" stroke="none"/>
      <path d="M-13.9 -123.9 L-14.15 -124.25 -14.5 -124.9 -14.65 -124.9 -12.15 -125.9 -13.9 -123.9" fill="#525252" fill-rule="evenodd" stroke="none"/>
      <path d="M-10.75 -126.9 L-10.75 -126.15 Q-13.25 -121.65 -10.9 -117.65 L-14.0 -119.9 -13.9 -123.9 -12.15 -125.9 -11.25 -126.75 -10.75 -126.9 M-11.0 -110.75 L-11.25 -88.15 -11.25 -87.65 -11.15 -82.0 -10.65 -78.4 -10.4 -76.75 -10.4 -76.15 -10.25 -74.75 -10.15 -74.4 -10.15 -74.25 -9.9 -70.15 -10.65 -72.5 -13.9 -72.5 -13.9 -74.25 -14.4 -75.5 -14.25 -77.5 -13.9 -77.4 -13.9 -76.65 -13.5 -76.75 -13.65 -95.25 Q-14.4 -95.75 -14.25 -100.75 L-14.0 -113.15 -12.0 -111.75 -11.0 -110.75 M-14.4 -94.25 L-14.0 -79.65 -14.4 -79.75 -14.65 -93.4 -14.4 -94.25" fill="#4a4a4a" fill-rule="evenodd" stroke="none"/>
      <path d="M-11.15 -127.5 L-10.75 -126.9 -11.25 -126.75 -11.65 -127.9 -11.15 -127.5 M-23.65 11.0 L-23.75 9.25 -22.0 7.5 -20.25 6.1 -23.4 11.25 -23.65 11.0 M-0.15 -7.4 L-0.65 -7.25 -0.65 -7.65 -0.15 -7.4" fill="#313131" fill-rule="evenodd" stroke="none"/>
      <path d="M-10.75 -126.15 L-8.9 -125.0 -8.25 -123.9 -7.9 -121.5 -8.5 -118.4 -9.25 -117.5 -10.9 -117.65 Q-13.25 -121.65 -10.75 -126.15" fill="#2b2b2b" fill-rule="evenodd" stroke="none"/>
      <path d="M-17.4 -116.15 L-14.0 -113.15 -14.25 -100.75 Q-14.4 -95.75 -13.65 -95.25 L-13.5 -76.75 -13.9 -76.65 -13.9 -77.4 -14.25 -77.5 -14.4 -75.5 -13.9 -74.25 -13.9 -72.5 -17.4 -72.65 -19.4 -68.9 -22.4 -65.25 -22.65 -65.75 -22.25 -67.65 -20.25 -76.4 -20.0 -76.5 -20.4 -77.25 -19.75 -77.4 -19.5 -78.75 -19.0 -81.15 -19.15 -82.4 -19.65 -83.0 -19.5 -87.15 -19.65 -87.65 -18.75 -115.15 -17.4 -116.15 M-15.0 -124.65 L-14.15 -124.25 -13.9 -123.9 -14.0 -119.9 -15.0 -120.15 -14.65 -122.65 -15.0 -124.65 M-14.4 -94.25 L-14.65 -93.4 -14.4 -79.75 -14.0 -79.65 -14.4 -94.25 M31.5 4.6 L32.1 4.75 32.5 4.75 33.35 4.85 34.35 5.25 34.35 5.35 35.1 5.75 35.85 6.0 36.75 7.6 37.0 9.6 36.1 11.5 32.0 6.75 31.6 5.25 31.5 4.6 M7.1 -10.9 L10.0 -9.0 10.5 -8.25 10.85 -7.5 11.1 -7.25 12.5 -5.0 Q12.85 1.0 7.75 1.0 4.0 1.1 2.1 -2.4 L3.5 -11.15 7.1 -10.9 M-5.0 -9.65 L-4.25 -9.9 -4.5 -8.65 -5.0 -8.9 -5.0 -9.65 M-3.9 -15.9 L-3.5 -19.9 -3.15 -20.5 -2.75 -20.5 -3.65 -16.0 -3.9 -15.9" fill="#080808" fill-rule="evenodd" stroke="none"/>
      <path d="M-27.4 -117.0 L-26.4 -116.65 -26.15 -116.5 -28.9 -113.0 -31.25 -108.25 -37.0 -100.65 -38.25 -99.25 -39.4 -100.25 -32.15 -109.4 -30.25 -113.5 -30.15 -114.15 -27.4 -117.0" fill="#010101" fill-rule="evenodd" stroke="none"/>
      <path d="M-22.65 -65.75 L-22.4 -65.25 -19.0 -60.65 -5.9 -42.5 -4.5 -40.5 2.5 -30.5 -1.0 -29.65 4.1 -24.25 2.25 -22.5 2.1 -21.9 1.85 -21.75 -33.15 -71.9 -33.65 -72.0 -33.75 -72.65 -39.65 -80.5 -40.0 -81.5 -54.4 -102.0 -54.9 -102.25 -54.9 -107.15 -49.65 -107.75 -49.65 -103.0 -38.75 -88.15 -38.65 -87.9 -32.25 -79.15 -30.4 -76.5 -23.0 -66.15 -22.65 -65.75 M13.25 -9.9 L16.6 -10.75 20.75 -5.25 21.25 -4.65 22.6 -2.5 20.5 -2.0 13.25 -9.9" fill="#161616" fill-rule="evenodd" stroke="none"/>
      <path d="M-20.4 -77.25 L-20.0 -76.5 -20.25 -76.4 -26.15 -76.65 -20.4 -77.25 M-55.25 -86.75 L-45.5 -87.75 -45.4 -87.5 -54.65 -86.5 -55.25 -86.75 M-38.75 -88.15 L-29.25 -88.75 Q-20.75 -89.0 -19.9 -87.9 L-29.0 -88.4 -38.65 -87.9 -38.75 -88.15 M33.35 12.25 L33.25 12.1 32.85 11.6 33.25 11.85 33.25 12.1 33.35 12.1 33.35 12.25 M22.0 -8.15 L21.6 -8.15 21.6 -8.5 22.0 -8.15 M34.85 61.75 L38.25 75.75 38.25 76.25 34.85 77.1 17.25 77.35 14.85 63.75 Q33.1 64.6 34.85 61.75" fill="#363636" fill-rule="evenodd" stroke="none"/>
      <path d="M-19.65 -87.65 L-19.5 -87.15 -19.65 -83.0 -19.15 -82.4 -19.0 -81.15 -19.5 -78.75 -32.25 -79.15 -38.65 -87.9 -29.0 -88.4 -19.9 -87.9 -19.65 -87.65 M-52.9 -80.4 L-54.65 -80.65 -55.15 -81.5 -56.25 -81.9 -56.25 -84.75 -54.65 -84.9 -55.15 -85.5 -56.65 -85.4 -56.9 -85.9 -54.65 -86.5 -45.4 -87.5 -42.25 -83.0 -39.65 -79.4 -52.9 -80.4 M-55.0 -80.65 L-55.5 -80.65 -56.0 -80.9 -55.0 -80.65" fill="#3e3e3e" fill-rule="evenodd" stroke="none"/>
      <path d="M24.6 -21.5 L25.5 -21.4 23.85 -21.4 24.6 -21.5 M2.0 -21.5 L1.85 -21.75 2.1 -21.9 2.0 -21.5 M10.5 -8.25 L10.5 -8.5 10.6 -8.4 10.5 -8.25 M10.6 -9.15 Q11.35 -12.9 16.0 -12.15 L16.5 -11.65 16.6 -10.75 13.25 -9.9 10.75 -9.15 10.6 -9.15 M-8.65 -10.25 L-166.25 21.75 -179.5 21.25 -180.75 17.35 -180.9 17.0 -180.9 16.25 -167.9 16.85 -27.25 -11.25 -14.65 -13.75 -15.75 -19.9 -13.5 -21.25 -14.5 -17.25 -13.9 -13.9 -13.0 -14.0 -7.9 -13.9 -12.9 -13.9 -12.4 -13.75 -12.75 -13.5 -12.4 -13.5 -12.5 -13.15 -12.0 -13.15 -12.25 -12.75 -7.5 -12.7 -11.9 -12.65 -11.65 -12.25 -6.25 -12.25 -11.65 -12.15 -10.75 -11.0 -8.9 -11.0 -10.75 -10.9 -10.15 -10.15 -8.65 -10.25 M-13.9 -7.9 L-13.0 -8.15 -11.4 1.6 -9.0 11.35 -12.4 14.85 -14.4 21.35 -15.15 20.0 Q-15.25 16.75 -16.5 14.85 L-14.75 14.1 -14.25 13.0 -14.5 11.75 -15.4 7.1 -16.4 4.5 -16.4 4.25 -13.75 4.6 -12.5 5.35 -11.9 3.1 -13.15 0.35 -14.0 -4.65 -13.65 -7.65 -13.9 -7.9 M-12.4 -25.5 L-12.65 -26.4 -12.15 -26.75 -11.9 -26.15 -12.4 -25.5 M-9.9 -14.65 L-9.25 -14.75 -4.7 -14.65 -9.9 -14.65 M-4.25 -15.75 L-3.9 -15.9 -3.65 -15.9 -0.9 -15.9 -4.25 -15.75 M-9.15 -12.9 L-9.4 -13.15 -9.0 -13.15 -9.15 -12.9 M-11.15 -13.15 L-10.75 -13.15 -10.9 -12.9 -11.15 -13.15 M-4.5 -11.65 L-5.65 -11.75 -4.4 -11.9 -4.15 -11.75 -4.5 -11.65 M-4.15 -13.15 L-3.75 -13.15 -3.9 -12.9 -4.15 -13.15 M-5.65 -12.9 L-5.9 -13.15 -5.5 -13.15 -5.65 -12.9 M-7.4 -12.9 L-7.65 -13.15 -7.25 -13.15 -7.4 -12.9 M14.75 110.75 L4.6 110.85 6.5 108.5 6.85 108.5 15.6 108.35 15.5 109.25 16.1 109.35 15.35 109.35 15.25 109.75 15.85 110.0 15.0 110.1 14.75 110.75" fill="#0a0a0a" fill-rule="evenodd" stroke="none"/>
      <path d="M2.5 -19.5 L2.6 -20.25 2.0 -20.9 2.0 -21.5 2.1 -21.9 2.25 -22.5 4.1 -24.25 5.1 -24.65 6.75 -24.5 7.35 -24.4 9.0 -22.5 7.25 -20.5 4.6 -19.75 3.25 -19.0 3.0 -18.9 2.85 -18.9 2.5 -19.5" fill="#2c2c2c" fill-rule="evenodd" stroke="none"/>
      <path d="M4.1 -24.25 L-1.0 -29.65 2.5 -30.5 5.35 -26.65 6.75 -24.5 5.1 -24.65 4.1 -24.25 M26.6 2.85 L28.35 5.25 29.5 6.85 32.85 11.6 33.25 12.1 33.35 12.25 34.1 13.25 106.75 114.35 109.75 125.85 102.6 128.25 99.75 116.6 15.35 -2.9 15.1 -3.15 15.0 -3.4 14.75 -3.65 10.85 -9.15 10.75 -9.15 13.25 -9.9 20.5 -2.0 22.6 -2.5 25.6 1.35 26.6 2.85" fill="#262626" fill-rule="evenodd" stroke="none"/>
      <path d="M19.1 -14.65 L22.0 -15.15 22.0 -15.0 22.6 -12.25 22.85 -11.5 22.85 -11.15 23.0 -10.75 23.1 -10.25 23.25 -9.9 23.25 -9.75 23.1 -8.9 23.6 -7.65 25.6 1.35 22.6 -2.5 21.25 -4.65 22.0 -8.15 21.6 -8.5 21.6 -8.15 20.75 -5.25 16.6 -10.75 17.5 -14.15 19.1 -14.65 M19.25 -20.5 L18.75 -20.4 18.75 -21.0 19.0 -21.0 19.25 -20.5 M5.35 -26.65 L15.75 -26.4 15.85 -26.15 16.5 -25.5 18.6 -21.5 18.35 -21.25 18.1 -20.9 13.1 -20.9 12.0 -22.4 11.0 -22.75 9.0 -22.5 7.35 -24.4 6.75 -24.5 5.35 -26.65 M15.5 -13.25 L16.85 -13.9 16.5 -11.65 16.0 -12.15 15.5 -13.25 M7.75 1.0 Q12.85 1.0 12.5 -5.0 L12.6 -5.0 14.35 -2.65 14.6 -2.25 15.25 -1.4 15.5 -1.0 15.75 -0.75 15.85 -0.5 16.0 -0.4 16.1 -0.15 16.25 0.0 19.1 4.35 19.1 5.5 19.5 5.5 19.5 4.85 24.0 11.1 9.35 10.0 7.75 1.0" fill="#777777" fill-rule="evenodd" stroke="none"/>
      <path d="M5.5 -36.15 Q5.75 -35.25 11.5 -34.25 L13.1 -32.25 12.5 -31.75 10.75 -32.15 10.25 -30.65 11.35 -29.9 13.0 -27.65 15.6 -27.0 15.75 -26.4 5.35 -26.65 2.5 -30.5 -4.5 -40.5 5.5 -36.15" fill="#808080" fill-rule="evenodd" stroke="none"/>
      <path d="M1.5 -45.75 L5.5 -36.15 -4.5 -40.5 -5.9 -42.5 -7.9 -48.15 -7.75 -49.15 -12.65 -66.5 -13.9 -72.5 -10.65 -72.5 -9.9 -70.15 -8.5 -66.25 -8.25 -65.15 -4.65 -59.4 -4.25 -58.0 -3.5 -57.25 1.5 -45.75" fill="#949494" fill-rule="evenodd" stroke="none"/>
      <path d="M-10.15 -74.25 L-8.75 -68.5 -8.65 -68.25 -8.65 -68.15 -8.5 -66.25 -9.9 -70.15 -10.15 -74.25" fill="#252525" fill-rule="evenodd" stroke="none"/>
      <path d="M-11.25 -88.15 L-7.65 -88.15 8.7 -85.95 -6.75 -87.65 -11.25 -87.65 -11.25 -88.15 M-4.15 -75.9 L-10.4 -76.15 -10.4 -76.75 -4.15 -75.9 M18.6 -21.5 L18.75 -21.0 18.35 -21.25 18.6 -21.5 M43.85 75.75 L42.6 80.75 41.75 81.5 36.35 89.75 35.85 90.0 Q36.75 89.0 35.0 81.85 L38.6 79.25 38.85 79.0 39.1 78.75 43.85 75.75 M10.5 64.0 L10.35 64.5 9.85 64.6 9.6 66.75 Q8.75 71.5 9.35 72.1 L7.75 83.0 8.35 86.6 7.1 86.5 -10.0 79.85 -11.0 77.85 -3.75 77.75 3.6 64.25 7.25 64.35 10.5 64.0 M-18.9 78.0 L-16.75 78.0 -17.4 81.0 -18.9 78.0" fill="#383838" fill-rule="evenodd" stroke="none"/>
      <path d="M21.85 -75.9 L15.0 -75.25 5.75 -75.25 -4.15 -75.9 -10.4 -76.75 -10.65 -78.4 8.25 -77.75 20.85 -78.15 22.25 -77.9 22.6 -78.15 23.0 -78.15 24.0 -78.15 25.85 -77.15 Q24.35 -75.75 21.85 -75.9" fill="#303030" fill-rule="evenodd" stroke="none"/>
      <path d="M8.7 -85.95 L9.25 -85.9 20.1 -84.0 22.75 -83.4 22.85 -83.0 21.1 -82.75 21.0 -82.4 23.1 -82.15 23.5 -81.65 24.0 -79.4 22.75 -78.65 22.6 -78.15 20.85 -78.15 8.25 -77.75 -10.65 -78.4 -11.15 -82.0 -11.25 -87.65 -6.75 -87.65 8.7 -85.95 M24.0 -78.15 L23.0 -78.15 23.25 -78.4 24.0 -78.15" fill="#575757" fill-rule="evenodd" stroke="none"/>
      <path d="M20.1 -84.0 Q22.5 -85.9 26.6 -79.4 26.75 -74.65 21.85 -75.9 24.35 -75.75 25.85 -77.15 L24.0 -78.15 23.25 -78.4 23.0 -78.15 22.6 -78.15 22.25 -77.9 20.85 -78.15 22.6 -78.15 22.75 -78.65 24.0 -79.4 23.5 -81.65 23.1 -82.15 21.0 -82.4 21.1 -82.75 22.85 -83.0 22.75 -83.4 20.1 -84.0" fill="#646464" fill-rule="evenodd" stroke="none"/>
      <path d="M-54.65 -78.25 Q-57.5 -76.75 -59.9 -81.4 -60.25 -86.5 -55.25 -86.75 L-54.65 -86.5 -56.9 -85.9 -56.65 -85.4 -55.15 -85.5 -54.65 -84.9 -56.25 -84.75 -56.25 -81.9 -55.15 -81.5 -54.65 -80.65 -52.9 -80.4 -55.0 -80.65 -56.0 -80.9 -55.5 -80.65 -57.4 -80.65 -58.4 -80.0 -58.4 -79.65 -56.75 -78.75 -55.5 -78.5 -55.4 -78.4 -54.65 -78.25" fill="#1c1c1c" fill-rule="evenodd" stroke="none"/>
      <path d="M-19.5 -78.75 L-19.75 -77.4 -20.4 -77.25 -26.15 -76.65 -30.4 -76.5 -32.25 -79.15 -19.5 -78.75 M-22.25 -67.65 L-22.65 -65.75 -23.0 -66.15 -22.25 -67.65 M-37.9 -76.65 L-43.9 -76.9 -54.65 -78.25 -55.4 -78.4 -55.5 -78.5 -56.75 -78.75 -58.4 -79.65 -58.4 -80.0 -57.4 -80.65 -55.5 -80.65 -55.0 -80.65 -52.9 -80.4 -39.65 -79.4 -38.15 -77.15 -37.9 -76.65" fill="#1f1f1f" fill-rule="evenodd" stroke="none"/>
      <path d="M-22.4 -65.25 L-19.4 -68.9 -18.9 -66.0 -19.0 -60.65 -22.4 -65.25 M-24.9 -58.15 L-24.75 -58.15 -17.9 -48.4 -17.4 -47.5 -16.65 -34.0 -20.75 -36.15 -26.4 -35.9 -26.0 -51.25 -24.9 -58.15 M-26.5 -2.65 L-26.15 -2.4 -25.9 1.25 -26.15 1.5 -27.65 2.35 -26.5 -2.65" fill="#030303" fill-rule="evenodd" stroke="none"/>
      <path d="M-16.65 -34.0 L-16.0 -33.65 -15.9 -33.5 Q-13.15 -31.5 -11.4 -32.65 L-9.4 -31.15 -10.0 -30.4 -10.0 -28.4 -10.65 -27.65 -12.4 -27.4 -12.15 -26.75 -12.65 -26.4 -12.4 -25.5 -13.5 -21.25 Q-18.25 -24.4 -25.0 -20.9 -28.0 -18.4 -28.15 -15.9 L-27.65 -13.5 -27.65 -11.65 Q-32.4 -15.25 -35.25 -30.0 L-33.9 -34.75 Q-31.15 -36.0 -26.4 -35.9 L-20.75 -36.15 -16.65 -34.0 M-14.15 22.5 Q-15.25 24.5 -8.65 37.6 L-2.25 48.0 -13.75 47.75 -17.5 22.85 -14.15 22.5" fill="#202020" fill-rule="evenodd" stroke="none"/>
      <path d="M-8.65 -68.15 L-7.5 -65.0 -8.4 -66.15 -8.5 -66.25 -8.65 -68.15 M-14.9 99.25 L-15.4 98.35 -15.4 98.25 -15.75 96.75 -15.65 97.0 -14.9 99.25" fill="#141414" fill-rule="evenodd" stroke="none"/>
      <path d="M-7.5 -65.0 L-2.65 -56.25 1.5 -45.75 -3.5 -57.25 -4.25 -58.0 -4.65 -59.4 -8.25 -65.15 -8.5 -66.25 -8.4 -66.15 -7.5 -65.0 M-20.65 5.5 L-19.9 5.1 -19.65 5.35 -19.9 5.6 -20.25 6.1 -22.0 7.5 -20.65 5.5" fill="#323232" fill-rule="evenodd" stroke="none"/>
      <path d="M-10.5 -37.9 L-9.9 -37.0 -9.65 -36.75 0.85 -21.75 1.0 -21.5 2.25 -19.9 2.5 -19.5 2.85 -18.9 1.35 -18.0 -0.15 -17.65 -0.5 -17.5 -1.25 -17.0 -1.4 -16.4 -3.65 -16.0 -2.75 -20.5 -3.15 -20.5 -3.5 -19.9 -3.9 -15.9 -4.25 -15.75 -9.25 -14.75 -9.9 -14.65 -13.0 -14.0 -13.9 -13.9 -14.5 -17.25 -13.5 -21.25 -12.4 -25.5 -11.9 -26.15 -12.15 -26.75 -12.4 -27.4 -10.65 -27.65 -10.0 -28.4 -10.0 -30.4 -9.4 -31.15 -11.4 -32.65 Q-13.15 -31.5 -15.9 -33.5 L-16.0 -33.65 -10.5 -37.9 M3.5 -11.15 L2.1 -2.4 Q4.0 1.1 7.75 1.0 L9.35 10.0 -2.5 10.6 -9.0 11.35 -11.4 1.6 -13.0 -8.15 -5.0 -9.65 -5.0 -8.9 -4.5 -8.65 -4.25 -9.9 1.6 -11.0 2.0 -11.15 2.25 -11.15 3.5 -11.15 M-0.65 -7.25 L-2.5 4.75 -2.5 5.35 -2.15 5.35 -0.15 -7.4 -0.65 -7.65 -0.65 -7.25" fill="#434343" fill-rule="evenodd" stroke="none"/>
      <path d="M31.25 -16.75 L31.25 -17.15 33.1 -17.5 31.85 -14.65 31.25 -16.75 M33.1 -23.25 L25.75 -21.75 23.35 -22.15 Q19.25 -21.75 19.0 -21.0 L18.75 -21.0 18.6 -21.5 16.5 -25.5 15.85 -26.15 15.75 -26.4 15.6 -27.0 13.0 -27.65 11.35 -29.9 10.25 -30.65 10.75 -32.15 12.5 -31.75 13.1 -32.25 20.0 -35.4 28.5 -34.65 31.75 -33.9 32.5 -33.25 33.1 -23.25 M29.6 4.85 L31.5 4.6 31.6 5.25 32.0 6.75 33.0 10.85 33.1 11.1 33.25 11.85 32.85 11.6 29.5 6.85 29.6 4.85 M-27.65 2.35 L-26.15 1.5 -29.0 19.5 -28.5 26.85 -30.15 23.0 -30.25 14.1 -27.65 2.35" fill="#343434" fill-rule="evenodd" stroke="none"/>
      <path d="M159.0 -41.75 L149.25 -42.4 19.75 -16.15 19.25 -19.4 18.85 -20.15 18.75 -20.4 19.25 -20.5 23.85 -21.4 25.5 -21.4 24.6 -21.5 25.75 -21.75 33.1 -23.25 145.0 -45.65 155.1 -45.25 159.0 -41.75 M1.35 -12.4 L-8.65 -10.25 -10.15 -10.15 -10.75 -10.9 -8.9 -11.0 -10.75 -11.0 -11.65 -12.15 -6.25 -12.25 -11.65 -12.25 -11.9 -12.65 -7.5 -12.7 -12.25 -12.75 -12.0 -13.15 -12.5 -13.15 -12.4 -13.5 -12.75 -13.5 -12.4 -13.75 -12.9 -13.9 -7.9 -13.9 -13.0 -14.0 -9.9 -14.65 -4.7 -14.65 -9.25 -14.75 -4.25 -15.75 -0.9 -15.9 0.35 -13.9 1.25 -13.0 1.35 -12.4 M-3.65 -16.0 L-1.4 -16.4 -0.9 -16.25 -0.9 -15.9 -3.65 -15.9 -3.65 -16.0 M-11.15 -13.15 L-10.9 -12.9 -10.75 -13.15 -11.15 -13.15 M-9.15 -12.9 L-9.0 -13.15 -9.4 -13.15 -9.15 -12.9 M-7.4 -12.9 L-7.25 -13.15 -7.65 -13.15 -7.4 -12.9 M-5.65 -12.9 L-5.5 -13.15 -5.9 -13.15 -5.65 -12.9 M-4.15 -13.15 L-3.9 -12.9 -3.75 -13.15 -4.15 -13.15 M-4.5 -11.65 L-4.15 -11.75 -4.4 -11.9 -5.65 -11.75 -4.5 -11.65 M-12.9 100.6 L-14.9 99.35 -14.9 99.25 -15.65 97.0 -12.9 100.6 M6.85 97.0 L16.0 96.85 16.1 99.35 6.5 99.6 6.85 97.0" fill="#272727" fill-rule="evenodd" stroke="none"/>
      <path d="M19.75 -16.15 L19.75 -15.5 17.25 -14.25 19.1 -14.65 17.5 -14.15 16.85 -13.9 15.5 -13.25 14.85 -15.75 14.1 -17.15 12.85 -18.25 13.35 -19.5 13.1 -20.9 18.1 -20.9 18.75 -20.4 18.85 -20.15 19.25 -19.4 19.75 -16.15" fill="#464646" fill-rule="evenodd" stroke="none"/>
      <path d="M18.35 -21.25 L18.75 -21.0 18.75 -20.4 18.1 -20.9 18.35 -21.25 M16.85 -13.9 L17.5 -14.15 16.6 -10.75 16.5 -11.65 16.85 -13.9 M32.0 6.75 L36.1 11.5 34.5 13.0 33.1 11.1 33.0 10.85 32.0 6.75 M35.75 104.75 L35.1 105.5 25.5 110.35 25.25 108.0 36.0 102.75 35.75 104.75" fill="#090909" fill-rule="evenodd" stroke="none"/>
      <path d="M13.1 -20.9 L13.35 -19.5 12.85 -18.25 10.6 -17.65 8.75 -18.0 8.25 -18.15 7.25 -19.75 7.5 -20.25 7.25 -20.5 9.0 -22.5 11.0 -22.75 12.0 -22.4 13.1 -20.9" fill="#4c4c4c" fill-rule="evenodd" stroke="none"/>
      <path d="M-1.4 -16.4 L-1.25 -17.0 -0.5 -17.5 0.5 -16.9 Q1.35 -15.15 1.25 -13.0 L0.35 -13.9 -0.9 -15.9 -0.9 -16.25 -1.4 -16.4 M-23.65 27.25 L-23.25 30.1 -24.0 31.75 -25.5 37.85 -25.9 40.6 -26.25 40.75 -26.5 39.75 -26.25 36.75 -23.65 27.25 M-22.65 34.75 L-22.25 37.6 -24.5 45.35 -24.9 47.85 -25.25 48.1 -25.5 44.75 -24.9 43.6 -22.65 34.75 M-21.75 41.6 L-21.15 45.75 -21.9 47.35 -24.25 56.6 -24.75 53.25 -24.65 51.35 -21.75 41.6 M4.6 110.85 L-6.65 106.1 -6.15 103.85 6.5 108.5 4.6 110.85 M37.5 60.35 L41.1 65.5 38.25 75.75 34.85 61.75 37.5 60.35" fill="#020202" fill-rule="evenodd" stroke="none"/>
      <path d="M7.25 -20.5 L7.5 -20.25 7.25 -19.75 8.25 -18.15 8.75 -18.0 7.1 -13.15 7.1 -10.9 3.5 -11.15 2.25 -11.15 4.1 -11.75 3.35 -12.25 2.5 -12.25 3.0 -12.65 2.0 -12.5 1.6 -12.4 1.35 -12.4 1.25 -13.0 Q1.35 -15.15 0.5 -16.9 L-0.5 -17.5 -0.15 -17.65 1.35 -18.0 2.85 -18.9 3.0 -18.9 3.25 -19.0 4.6 -19.75 7.25 -20.5 M34.1 13.25 L33.35 12.25 33.35 12.1 33.25 12.1 33.25 11.85 33.1 11.1 34.5 13.0 34.1 13.25" fill="#1d1d1d" fill-rule="evenodd" stroke="none"/>
      <path d="M12.85 -18.25 L14.1 -17.15 14.85 -15.75 15.5 -13.25 16.0 -12.15 Q11.35 -12.9 10.6 -9.15 L10.5 -8.5 10.5 -8.25 10.0 -9.0 7.1 -10.9 7.1 -13.15 8.75 -18.0 10.6 -17.65 12.85 -18.25" fill="#2a2a2a" fill-rule="evenodd" stroke="none"/>
      <path d="M-26.65 -5.25 L-13.9 -7.9 -13.65 -7.65 -14.0 -4.65 -13.15 0.35 -11.9 3.1 -12.5 5.35 -13.75 4.6 -16.4 4.25 -19.0 4.6 -19.9 5.1 -20.65 5.5 -21.15 5.75 -22.15 6.6 -23.25 7.85 -23.75 9.25 -23.65 11.0 -24.65 9.85 -25.9 1.25 -26.15 -2.4 -26.5 -2.65 -26.65 -5.25 M-27.65 -11.65 L-27.65 -13.5 -27.65 -16.0 -27.25 -16.25 -26.9 -18.15 -25.25 -19.9 Q-20.0 -22.9 -15.75 -19.9 L-14.65 -13.75 -27.25 -11.25 -27.65 -11.65" fill="#484848" fill-rule="evenodd" stroke="none"/>
      <path d="M22.0 -15.15 L31.0 -17.0 31.25 -16.75 31.85 -14.65 Q39.25 6.5 37.0 9.6 L36.75 7.6 35.85 6.0 35.1 5.75 34.35 5.35 34.35 5.25 33.35 4.85 32.5 4.75 32.1 4.75 31.5 4.6 29.6 4.85 28.35 5.25 26.6 2.85 Q27.85 1.85 25.75 -4.65 L23.6 -7.65 23.25 -9.75 23.25 -9.9 23.1 -10.25 23.0 -10.75 22.85 -11.15 22.85 -11.5 22.6 -12.25 22.0 -15.0 22.0 -15.15" fill="#6c6c6c" fill-rule="evenodd" stroke="none"/>
      <path d="M23.25 -9.75 L23.6 -7.65 23.1 -8.9 23.25 -9.75 M32.35 23.1 L38.0 31.25 43.0 51.25 38.1 47.5 36.6 41.25 36.25 40.85 36.35 40.25 32.35 23.1" fill="#565656" fill-rule="evenodd" stroke="none"/>
      <path d="M19.1 4.35 L19.5 4.85 19.5 5.5 19.1 5.5 19.1 4.35 M21.6 -8.15 L22.0 -8.15 21.25 -4.65 20.75 -5.25 21.6 -8.15 M-16.75 78.0 L-16.5 76.5 -10.0 79.85 -7.0 82.75 -6.0 90.85 -16.4 81.85 -17.25 81.5 -17.4 81.0 -16.75 78.0" fill="#060606" fill-rule="evenodd" stroke="none"/>
      <path d="M-0.65 -7.25 L-0.15 -7.4 -2.15 5.35 -2.5 5.35 -2.5 4.75 -0.65 -7.25 M-6.65 106.1 L-8.65 104.85 -12.9 100.6 -15.65 97.0 -15.75 96.75 -15.4 98.25 -15.65 98.0 -18.65 91.25 -17.25 81.5 -16.4 81.85 -6.0 90.85 -5.75 91.25 -6.5 98.25 -6.15 103.85 -6.65 106.1 M16.35 105.35 L25.25 108.0 16.0 108.35 16.35 105.35" fill="#070707" fill-rule="evenodd" stroke="none"/>
      <path d="M-26.15 1.5 L-25.9 1.25 -24.65 9.85 -23.65 11.0 -23.4 11.25 -22.0 12.85 -20.5 13.85 -23.5 26.35 -23.65 27.25 -28.5 26.85 -29.0 19.5 -26.15 1.5" fill="#626262" fill-rule="evenodd" stroke="none"/>
      <path d="M23.6 -7.65 L25.75 -4.65 Q27.85 1.85 26.6 2.85 L25.6 1.35 23.6 -7.65 M28.35 5.25 L29.6 4.85 29.5 6.85 28.35 5.25" fill="#838383" fill-rule="evenodd" stroke="none"/>
      <path d="M-19.9 5.1 L-19.0 4.6 -16.4 4.25 -16.4 4.5 -15.4 7.1 -14.5 11.75 -15.9 11.0 -17.75 11.35 -18.0 11.6 -18.65 12.0 -19.0 11.0 -18.9 10.0 -19.25 9.85 -19.15 8.25 -19.5 8.1 -19.25 7.35 -19.65 7.1 -19.75 6.6 -19.5 5.85 -19.9 5.6 -19.65 5.35 -19.9 5.1 M42.6 80.75 L41.5 85.25 42.1 92.1 Q41.25 92.35 41.1 97.0 L40.5 98.75 35.75 104.75 36.0 102.75 36.35 99.25 37.1 97.25 Q36.1 95.0 36.5 92.1 L35.85 90.0 36.35 89.75 41.75 81.5 42.6 80.75 M-10.0 79.85 L7.1 86.5 8.35 86.6 15.25 86.5 15.0 86.75 Q16.0 87.35 15.75 94.25 L16.0 94.6 6.85 97.0 6.5 99.6 16.1 99.35 16.35 105.35 6.85 108.5 6.5 108.5 -6.15 103.85 -6.5 98.25 -5.75 91.25 -6.0 90.85 -7.0 82.75 -10.0 79.85" fill="#1e1e1e" fill-rule="evenodd" stroke="none"/>
      <path d="M-20.25 6.1 L-19.9 5.6 -19.5 5.85 -19.75 6.6 -19.65 7.1 -21.15 10.85 -22.0 12.85 -23.4 11.25 -20.25 6.1" fill="#3c3c3c" fill-rule="evenodd" stroke="none"/>
      <path d="M-19.65 7.1 L-19.25 7.35 -19.5 8.1 -21.15 10.85 -19.65 7.1" fill="#8b8b8b" fill-rule="evenodd" stroke="none"/>
      <path d="M-19.5 8.1 L-19.15 8.25 -19.25 9.85 -19.5 11.6 -20.15 13.85 -20.5 13.85 -22.0 12.85 -21.15 10.85 -19.5 8.1" fill="#898989" fill-rule="evenodd" stroke="none"/>
      <path d="M-19.25 9.85 L-18.9 10.0 -19.0 11.0 -19.5 11.6 -19.25 9.85" fill="#b7b7b7" fill-rule="evenodd" stroke="none"/>
      <path d="M-19.0 11.0 L-18.65 12.0 -18.65 13.35 -18.0 14.25 -20.15 13.85 -19.5 11.6 -19.0 11.0" fill="#b6b6b6" fill-rule="evenodd" stroke="none"/>
      <path d="M24.0 11.1 L29.6 19.35 29.75 22.5 29.5 38.1 27.85 45.1 26.85 47.85 26.6 48.5 21.1 51.35 19.1 52.1 13.35 52.5 11.5 24.85 9.35 10.0 24.0 11.1" fill="#737373" fill-rule="evenodd" stroke="none"/>
      <path d="M26.85 47.85 L38.1 47.5 38.75 56.0 37.5 60.35 34.85 61.75 Q33.1 64.6 14.85 63.75 L13.85 57.1 22.5 57.1 21.1 51.35 26.6 48.5 26.85 47.85" fill="#414141" fill-rule="evenodd" stroke="none"/>
      <path d="M32.0 22.75 L32.35 23.1 36.35 40.25 36.25 40.85 36.6 41.25 38.1 47.5 26.85 47.85 27.85 45.1 29.5 38.1 29.75 22.5 32.0 22.75" fill="#515151" fill-rule="evenodd" stroke="none"/>
      <path d="M29.6 19.35 L30.1 19.6 32.0 22.75 29.75 22.5 29.6 19.35" fill="#686868" fill-rule="evenodd" stroke="none"/>
      <path d="M-18.65 12.0 L-18.0 11.6 -17.75 11.35 -15.9 11.0 -14.5 11.75 -14.25 13.0 -14.75 14.1 -16.5 14.85 -18.0 14.25 -18.65 13.35 -18.65 12.0" fill="#121212" fill-rule="evenodd" stroke="none"/>
      <path d="M-16.5 14.85 Q-15.25 16.75 -15.15 20.0 L-14.4 21.35 -14.15 22.5 -17.5 22.85 -23.5 26.35 -20.5 13.85 -20.15 13.85 -18.0 14.25 -16.5 14.85" fill="#1b1b1b" fill-rule="evenodd" stroke="none"/>
      <path d="M-23.25 30.1 L-23.65 27.25 -23.5 26.35 -17.5 22.85 -13.75 47.75 -20.4 52.1 -20.4 53.35 -23.65 65.0 -24.9 76.1 -27.9 50.5 -26.5 39.75 -26.25 40.75 -25.5 44.75 -25.25 48.1 -24.65 51.35 -24.75 53.25 -24.25 56.6 -21.9 47.35 -21.15 45.75 -21.75 41.6 -22.25 37.6 -22.65 34.75 -23.25 30.1" fill="#181818" fill-rule="evenodd" stroke="none"/>
      <path d="M-23.25 30.1 L-22.65 34.75 -24.9 43.6 -25.5 44.75 -26.25 40.75 -25.9 40.6 -25.5 37.85 -24.0 31.75 -23.25 30.1 M-22.25 37.6 L-21.75 41.6 -24.65 51.35 -25.25 48.1 -24.9 47.85 -24.5 45.35 -22.25 37.6 M-26.5 39.75 L-27.9 50.5 -30.15 33.6 -30.15 23.0 -28.5 26.85 -23.65 27.25 -26.25 36.75 -26.5 39.75" fill="#424242" fill-rule="evenodd" stroke="none"/>
      <path d="M-2.25 48.0 L-1.65 48.75 5.0 51.35 6.0 57.25 13.85 57.1 14.85 63.75 10.5 64.0 7.25 64.35 3.6 64.25 -2.65 63.6 -8.75 60.75 -11.65 56.25 -13.75 47.75 -2.25 48.0" fill="#2d2d2d" fill-rule="evenodd" stroke="none"/>
      <path d="M5.0 51.35 L7.35 52.25 13.0 52.5 13.75 52.85 13.1 53.25 13.85 53.25 13.25 53.35 13.5 53.85 13.25 54.1 13.6 54.25 13.5 55.25 14.25 55.25 13.6 55.6 14.25 55.6 14.25 56.0 13.75 56.0 13.75 56.5 14.35 56.75 14.1 56.85 13.85 57.1 6.0 57.25 5.0 51.35" fill="#373737" fill-rule="evenodd" stroke="none"/>
      <path d="M38.1 47.5 L43.0 51.25 44.1 65.25 42.25 62.35 43.25 68.6 43.0 70.1 41.1 65.5 37.5 60.35 38.75 56.0 38.1 47.5" fill="#404040" fill-rule="evenodd" stroke="none"/>
      <path d="M-24.9 76.1 L-23.65 65.0 -20.4 53.35 -20.4 52.1 -13.75 47.75 -11.65 56.25 -8.75 60.75 -14.5 70.85 -15.9 67.0 -16.75 62.35 -20.5 66.25 -21.25 71.35 -19.9 76.1 -19.75 76.5 -18.9 78.0 -17.4 81.0 -17.25 81.5 -18.65 91.25 -19.25 94.35 -21.15 91.75 -23.75 86.25 -24.9 76.1" fill="#101010" fill-rule="evenodd" stroke="none"/>
      <path d="M8.35 86.6 L7.75 83.0 9.35 72.1 Q8.75 71.5 9.6 66.75 L9.85 64.6 10.35 64.5 10.5 64.0 14.85 63.75 17.25 77.35 34.85 77.1 38.25 76.25 38.85 79.0 38.6 79.25 35.0 81.85 Q36.75 89.0 35.85 90.0 L36.5 92.1 Q36.1 95.0 37.1 97.25 L36.35 99.25 36.0 102.75 25.25 108.0 16.35 105.35 16.1 99.35 25.5 99.1 25.5 96.6 16.0 94.6 15.75 94.25 Q16.0 87.35 15.0 86.75 L15.25 86.5 8.35 86.6" fill="#494949" fill-rule="evenodd" stroke="none"/>
      <path d="M3.6 64.25 L-3.75 77.75 -11.0 77.85 -14.5 71.1 -16.5 76.5 -16.75 78.0 -18.9 78.0 -19.75 76.5 -19.9 76.1 -21.25 71.35 -20.5 66.25 -16.75 62.35 -15.9 67.0 -14.5 70.85 -8.75 60.75 -2.65 63.6 3.6 64.25" fill="#454545" fill-rule="evenodd" stroke="none"/>
      <path d="M-11.0 77.85 L-10.0 79.85 -16.5 76.5 -14.5 71.1 -11.0 77.85" fill="#030503" fill-rule="evenodd" stroke="none"/>
      <path d="M43.0 70.1 L42.85 70.5 39.1 78.75 38.85 79.0 38.25 76.25 38.25 75.75 41.1 65.5 43.0 70.1 M44.1 65.25 L43.25 68.6 42.25 62.35 44.1 65.25" fill="#040404" fill-rule="evenodd" stroke="none"/>
      <path d="M42.85 70.5 L43.1 70.25 43.85 75.75 39.1 78.75 42.85 70.5" fill="#141b13" fill-rule="evenodd" stroke="none"/>
      <path d="M-15.65 98.0 L-19.25 94.35 -18.65 91.25 -15.65 98.0" fill="#3a3a3a" fill-rule="evenodd" stroke="none"/>
      <path d="M16.0 94.6 L25.5 96.6 16.0 96.85 16.0 94.6" fill="#585858" fill-rule="evenodd" stroke="none"/>
      <path d="M25.5 96.6 L25.5 99.1 16.1 99.35 16.0 96.85 25.5 96.6" fill="#444444" fill-rule="evenodd" stroke="none"/>
      <path d="M16.0 94.6 L16.0 96.85 6.85 97.0 16.0 94.6" fill="#3d3d3d" fill-rule="evenodd" stroke="none"/>
      <path d="M25.5 110.35 L14.75 110.75 15.0 110.1 15.85 110.0 15.25 109.75 15.35 109.35 16.1 109.35 15.5 109.25 15.6 108.35 16.0 108.35 25.25 108.0 25.5 110.35" fill="#0b0b0b" fill-rule="evenodd" stroke="none"/>
      <path d="M-24.75 34.35 L-24.5 34.1 -24.4 33.35 -24.0 32.1 -24.15 32.1 -24.0 31.75 -24.0 31.35 -23.25 29.35 -22.65 33.35 -22.75 34.75 -23.4 37.75 -23.9 39.1 -24.15 40.75 -24.9 42.85 -24.9 43.6 -25.25 43.85 -25.5 45.0 -25.65 45.25 -25.75 45.0 -25.75 44.35 -26.25 40.75 -26.15 40.0 -25.9 39.75 -25.5 38.0 -25.65 38.0 -25.5 37.75 -25.5 37.25 -24.75 35.0 -24.75 34.35 M-21.75 41.6 L-22.4 43.6 -22.5 44.5 -23.15 45.75 -23.25 47.5 -24.15 50.35 -24.4 50.6 -24.75 51.35 -25.25 49.6 -25.25 49.25 -25.4 48.85 -25.25 48.5 -25.25 47.6 -25.15 47.6 -24.65 45.6 -24.5 45.35 -24.5 44.75 -23.9 42.6 -23.75 42.35 -23.75 41.85 -23.15 40.25 -23.15 39.75 -23.0 39.35 -23.0 38.85 -22.4 37.1 -21.9 39.25 -21.75 40.6 -21.75 41.6 M-14.5 71.25 L-16.5 76.5 -17.15 80.25 -17.4 81.0 -17.5 80.75 -18.9 78.0 -19.9 76.5 -21.25 71.75 -21.25 71.0 -21.4 70.6 -20.65 66.25 -20.65 66.1 -20.4 66.0 -16.9 62.25 -15.75 67.25 -15.75 67.35 -14.5 70.75 -14.5 71.25" fill="#000000" fill-opacity="0.50980395" fill-rule="evenodd" stroke="none"/>
      <path d="M14.85 86.5 L7.75 86.6 7.35 86.5 7.0 86.35 6.85 86.35 -9.75 80.0 -9.9 80.0 -10.25 79.75 -10.4 79.6 -14.4 71.25 -14.5 71.25 -14.5 70.75 -12.5 67.1 -12.15 66.25 -12.25 66.25 -9.5 62.0 -9.25 61.5 -8.75 60.75 -2.15 63.75 6.5 64.35 14.35 63.75 14.35 64.5 14.75 78.85 14.6 79.1 14.75 79.1 14.85 83.35 14.85 84.85 14.75 85.0 14.85 86.5" fill="#040404" fill-opacity="0.50980395" fill-rule="evenodd" stroke="none"/>
      <path d="M14.35 63.75 L15.0 63.75 15.0 64.0 14.75 64.35 14.35 64.5 14.35 63.75" fill="#090909" fill-rule="evenodd" stroke="none"/>
      <path d="M42.85 70.1 L42.85 70.5 39.1 78.75 38.6 79.25 23.75 85.85 23.5 86.0 23.1 86.1 22.6 86.35 15.25 86.6 14.85 86.5 15.0 84.75 14.85 83.35 14.75 79.1 14.75 78.85 15.1 78.6 15.1 66.0 14.85 64.35 15.0 64.0 15.0 63.75 23.25 64.1 31.5 63.5 37.5 60.35 38.75 61.75 38.6 62.0 40.5 64.5 41.1 65.5 41.35 65.6 42.85 70.1" fill="#0a0a0a" fill-opacity="0.50980395" fill-rule="evenodd" stroke="none"/>
      <path d="M14.35 64.5 L14.75 64.35 15.0 64.0 14.85 64.35 15.1 66.0 15.1 78.6 14.75 78.85 14.35 64.5 M14.75 79.1 L14.6 79.1 14.75 78.85 14.75 79.1 M14.85 83.35 L15.0 84.75 14.85 86.5 14.75 85.0 14.85 84.85 14.85 83.35" fill="#0c0c0c" fill-rule="evenodd" stroke="none"/>
      <path d="M42.85 70.1 L43.0 70.1 43.1 70.25 42.85 70.5 42.85 70.1" fill="#0a0a0a" fill-rule="evenodd" stroke="none"/>
      <path d="M43.25 68.25 L42.85 66.5 42.35 62.35 43.75 64.85 44.1 65.25 44.0 66.0 43.25 68.25" fill="#030303" fill-opacity="0.50980395" fill-rule="evenodd" stroke="none"/>
      <path d="M44.0 66.0 L44.5 71.0 44.0 74.0 43.1 70.25 43.25 68.6 43.25 68.25 44.0 66.0" fill="#030303" fill-rule="evenodd" stroke="none"/>
    </g>
  </defs>
</svg>
