<?xml version="1.0" encoding="UTF-8" standalone="no"?>
<svg xmlns:xlink="http://www.w3.org/1999/xlink" height="299.1px" width="376.5px" xmlns="http://www.w3.org/2000/svg">
  <g transform="matrix(1.0, 0.0, 0.0, 1.0, 182.65, 150.0)">
    <use height="279.35" transform="matrix(1.0, 0.0, 0.0, 1.0, -157.4, -150.0)" width="316.65" xlink:href="#shape0"/>
  </g>
  <defs>
    <g id="shape0" transform="matrix(1.0, 0.0, 0.0, 1.0, 157.4, 150.0)">
      <path d="M127.0 -60.9 L126.75 -59.65 118.75 -58.5 34.0 -11.0 30.6 -9.15 32.1 -7.0 32.0 -6.15 30.35 -8.5 29.75 -8.65 29.1 -8.4 22.6 -4.5 22.35 -4.4 18.6 -2.4 17.85 -1.9 17.5 -1.9 19.25 -3.5 19.35 -3.75 19.0 -3.75 20.0 -4.25 29.1 -9.25 117.35 -58.75 Q118.0 -60.15 127.0 -60.9 M159.1 124.25 L158.6 125.25 154.1 129.35 153.85 129.25 146.85 118.35 36.35 24.75 33.35 22.25 33.0 22.0 31.25 20.35 31.0 20.25 30.25 19.75 30.1 19.5 29.1 18.6 27.6 17.5 26.75 16.6 26.6 16.6 23.25 13.5 23.0 13.5 22.6 13.1 21.85 12.5 21.5 12.1 21.25 12.1 16.25 7.75 14.1 5.85 14.0 5.85 13.75 5.75 13.6 5.5 13.25 5.25 13.1 5.1 13.0 5.1 13.6 4.85 14.5 5.5 14.85 5.25 15.75 5.75 24.25 12.85 147.5 117.25 154.6 128.25 159.1 124.25 M-30.5 25.25 L-138.65 85.85 -152.9 89.0 -153.0 88.6 -157.25 83.75 -157.4 82.6 -153.0 87.6 -139.0 84.75 -4.4 9.35 Q0.75 6.5 5.85 3.6 L7.1 2.85 7.85 3.6 7.35 4.0 3.35 6.25 0.6 7.75 0.0 8.25 -4.4 10.35 -10.9 14.25 -12.0 14.85 -17.4 17.85 -19.4 19.0 -19.65 19.25 -20.5 19.6 -22.0 20.5 -22.9 21.0 -24.5 21.85 -29.15 24.5 -30.5 25.25 M-26.25 -28.25 L-94.9 -86.5 Q-96.15 -86.9 -98.15 -93.75 L-95.75 -88.5 -4.1 -11.15 -3.35 -10.5 1.1 -6.75 1.1 -6.65 1.5 -6.25 1.75 -5.9 2.6 -4.9 2.85 -3.75 -1.65 -7.5 -1.9 -7.65 -10.75 -15.15 -11.0 -15.4 -11.4 -15.65 -11.65 -15.9 -11.75 -15.9 -22.9 -25.5 -23.15 -25.65 -24.5 -26.9 -26.15 -28.25 -26.25 -28.25 M-30.75 -96.15 L-33.15 -96.5 -34.0 -97.15 -34.25 -97.5 -26.0 -116.75 -25.75 -117.25 -24.25 -117.0 -24.5 -116.25 -26.25 -113.0 -26.25 -111.75 -27.4 -107.5 -31.9 -96.9 -30.75 -96.15 M-26.4 -122.75 L-29.75 -121.4 Q-36.15 -121.5 -36.65 -122.5 -37.0 -123.15 -35.0 -127.0 L-24.9 -126.0 -24.65 -125.9 -24.75 -125.4 -25.75 -123.15 -26.25 -123.15 -26.4 -122.75 M-19.15 -131.65 L-18.0 -134.0 -16.9 -139.0 -12.75 -149.15 -12.25 -150.0 -9.65 -150.0 -18.15 -130.15 -19.65 -130.25 -19.15 -131.65 M-7.4 -124.9 L-5.9 -124.75 -7.9 -119.9 -6.9 -119.15 -7.25 -119.25 -10.5 -119.65 -12.65 -119.9 -13.0 -120.0 -17.15 -120.4 -18.25 -121.15 -18.5 -121.25 -19.25 -121.4 -18.15 -124.0 -17.0 -124.15 -15.65 -123.75 -12.75 -125.25 -11.15 -125.25 -9.9 -125.15 -7.4 -124.9 M-15.15 -9.25 Q-20.15 -12.0 -24.65 -9.25 L-26.4 -7.65 Q-27.5 -5.9 -27.25 -3.25 L-27.75 -5.5 Q-27.4 -8.25 -24.5 -10.15 -18.9 -13.4 -12.9 -10.75 L-15.15 -9.25 M-7.9 4.75 L-7.75 4.6 -7.75 4.75 -7.9 4.75" fill="#000000" fill-rule="evenodd" stroke="none"/>
      <path d="M-9.65 -150.0 L-9.0 -150.0 -8.25 -149.25 -16.25 -130.65 -16.5 -130.75 -17.25 -131.4 -18.15 -130.15 -9.65 -150.0" fill="#2b2b2b" fill-rule="evenodd" stroke="none"/>
      <path d="M3.6 127.1 L-7.4 122.25 -7.0 120.25 5.5 125.25 3.6 127.1 M-26.0 -116.75 L-26.4 -116.9 -27.0 -118.9 -26.4 -122.75 -26.25 -123.15 -25.75 -123.15 -24.75 -125.4 -24.65 -125.9 -24.9 -126.0 -22.4 -129.65 Q-19.9 -132.0 -19.15 -131.65 L-19.65 -130.25 -18.15 -130.15 -17.25 -131.4 -16.5 -130.75 -16.0 -128.9 Q-16.0 -125.5 -17.0 -124.15 L-18.15 -124.0 -19.25 -121.4 -18.5 -121.25 Q-21.65 -116.25 -24.5 -116.25 L-24.25 -117.0 -25.75 -117.25 -26.0 -116.75 M0.6 0.1 L1.5 -1.0 Q3.75 -1.9 5.0 3.5 L2.5 1.5 0.75 0.1 0.6 0.1 M-23.5 40.1 L-23.25 43.1 -26.25 53.0 -26.75 51.6 -26.75 50.1 -23.5 40.1 M-22.65 48.5 L-22.25 51.5 -23.15 53.25 -25.5 61.0 -25.75 57.6 -22.65 48.5 M-21.75 55.75 L-21.15 59.5 -23.5 67.25 -23.75 67.85 -24.15 69.35 -24.65 69.85 -24.9 64.85 -24.0 62.5 -21.75 55.75 M37.1 77.1 L37.6 77.35 39.85 81.0 37.25 88.6 35.0 78.25 37.1 77.1" fill="#020202" fill-rule="evenodd" stroke="none"/>
      <path d="M-17.75 -115.65 L-22.9 -116.0 -24.5 -116.25 Q-21.65 -116.25 -18.5 -121.25 L-18.25 -121.15 -17.15 -120.4 -13.0 -120.0 Q-13.75 -115.25 -17.75 -115.65 M-16.25 -130.65 Q-16.15 -130.0 -15.65 -129.65 L-13.65 -126.5 -12.75 -125.25 -15.65 -123.75 -17.0 -124.15 Q-16.0 -125.5 -16.0 -128.9 L-16.5 -130.75 -16.25 -130.65" fill="#2a2a2a" fill-rule="evenodd" stroke="none"/>
      <path d="M-15.65 -129.65 L-13.9 -129.4 -13.65 -126.5 -15.65 -129.65" fill="#4b4b4b" fill-rule="evenodd" stroke="none"/>
      <path d="M-13.9 -129.4 L-10.15 -129.25 -10.25 -129.0 -9.9 -129.15 -9.65 -127.9 -10.15 -128.25 -10.15 -127.9 -9.75 -127.0 -10.5 -126.15 -12.75 -125.25 -13.65 -126.5 -13.9 -129.4 M-10.5 -88.65 L-7.5 -88.65 6.0 -86.9 21.6 -84.0 21.1 -83.9 10.35 -86.0 -6.15 -88.15 -10.5 -88.15 -10.5 -88.65 M-4.0 -75.15 L-9.75 -75.4 -9.9 -76.15 -4.0 -75.15" fill="#383838" fill-rule="evenodd" stroke="none"/>
      <path d="M42.75 66.75 L43.5 80.75 41.85 78.25 42.75 83.5 42.6 86.85 40.85 82.1 39.85 81.0 37.6 77.35 37.1 77.1 38.6 72.5 38.0 63.1 42.75 66.75 M-28.5 61.6 L-30.5 43.85 -30.5 31.85 -29.5 34.35 -29.0 34.75 -28.75 35.5 -22.65 35.75 -23.4 39.35 -23.5 40.1 -26.75 50.1 -26.75 51.6 -28.5 61.6 M-10.15 -129.25 L-9.9 -129.15 -10.25 -129.0 -10.15 -129.25 M-20.5 19.6 L-19.65 19.25 -19.4 19.0 -19.25 19.5 -20.65 23.0 -21.9 25.5 -23.15 24.0 -21.65 21.85 -20.5 19.6 M-23.25 43.1 L-22.65 48.5 -25.75 57.6 -26.25 53.0 -23.25 43.1 M-22.25 51.5 L-21.75 55.75 -24.0 62.5 -25.25 62.5 -25.5 61.0 -23.15 53.25 -22.25 51.5" fill="#3a3a3a" fill-rule="evenodd" stroke="none"/>
      <path d="M-9.65 -127.9 L-9.4 -127.15 Q-9.55 -127.05 -9.75 -127.0 L-10.15 -127.9 -10.15 -128.25 -9.65 -127.9 M5.0 67.5 L5.85 73.75 13.75 73.6 14.25 74.35 14.6 80.5 9.1 81.0 6.0 81.25 1.5 80.85 -2.75 80.35 -8.75 77.5 -11.65 72.35 -13.75 63.5 -2.25 63.75 -1.9 64.35 5.0 67.5" fill="#323232" fill-rule="evenodd" stroke="none"/>
      <path d="M-9.4 -127.15 L-9.4 -126.75 -9.4 -125.75 -9.9 -125.15 -11.15 -125.25 -10.5 -126.15 -9.75 -127.0 Q-9.55 -127.05 -9.4 -127.15 M-9.65 -117.5 L-10.5 -88.65 -10.5 -88.15 -10.5 -81.75 -10.0 -77.65 -9.9 -76.15 -9.75 -75.4 -9.65 -73.5 -9.4 -68.9 -10.15 -70.9 -13.25 -70.9 -12.9 -76.0 -13.0 -78.15 -13.65 -78.0 -13.9 -88.15 Q-13.25 -90.0 -13.75 -92.9 L-13.25 -93.0 -13.25 -81.5 -12.9 -81.5 -12.9 -93.25 -13.5 -93.15 -13.5 -95.25 -13.0 -95.65 -13.25 -104.0 -12.9 -104.4 -12.65 -119.9 -10.5 -119.65 -9.65 -117.5 M5.0 67.5 L7.25 68.35 13.0 68.75 13.25 70.25 13.6 70.35 13.35 71.5 13.6 72.25 14.25 72.5 13.75 72.6 14.35 72.75 13.85 73.5 14.5 73.6 13.75 73.6 5.85 73.75 5.0 67.5" fill="#424242" fill-rule="evenodd" stroke="none"/>
      <path d="M-9.4 -126.75 L-7.4 -124.9 -9.9 -125.15 -9.4 -125.75 -9.4 -126.75 M-6.9 -119.15 L-7.9 -117.25 -9.65 -117.5 -10.5 -119.65 -7.25 -119.25 -6.9 -119.15" fill="#232323" fill-rule="evenodd" stroke="none"/>
      <path d="M-11.15 -125.25 L-12.75 -125.25 -10.5 -126.15 -11.15 -125.25" fill="#3d3d3d" fill-rule="evenodd" stroke="none"/>
      <path d="M34.75 26.0 L33.85 26.25 33.75 25.6 33.75 25.5 33.35 23.6 34.75 26.0 M-54.9 -78.0 Q-58.4 -76.75 -60.0 -81.65 -59.25 -88.4 -55.15 -87.25 L-54.65 -87.15 -54.9 -86.65 -57.15 -86.4 -56.65 -85.65 -55.4 -85.9 -54.4 -85.15 -54.65 -85.0 -56.25 -84.75 -56.25 -81.75 -54.9 -81.0 -54.75 -80.25 -52.9 -80.15 -53.0 -79.9 -54.75 -80.25 -55.15 -80.4 -56.15 -80.65 -58.4 -79.9 -58.65 -79.65 -56.9 -78.5 -54.9 -78.0 M-5.9 -124.75 L-4.4 -124.0 Q-6.0 -119.4 -6.9 -119.15 L-7.9 -119.9 -5.9 -124.75 M-10.25 96.5 L6.75 103.25 8.35 103.35 14.75 103.25 Q14.25 105.75 15.1 106.6 L14.6 107.0 Q15.6 107.6 15.1 111.6 L6.0 114.0 5.85 116.5 15.25 116.35 Q16.0 121.6 15.25 122.25 L5.85 125.25 5.5 125.25 -7.0 120.25 -7.15 115.1 -6.5 107.6 -7.5 98.75 -10.25 96.5" fill="#1c1c1c" fill-rule="evenodd" stroke="none"/>
      <path d="M17.85 -1.9 L18.6 -2.4 18.1 0.1 17.6 -0.65 17.6 -0.9 17.85 -1.9 M36.35 24.75 L34.75 26.0 33.35 23.6 33.0 22.0 33.35 22.25 36.35 24.75 M-98.15 -93.75 L-98.0 -94.25 -93.25 -95.9 -90.9 -90.4 -26.5 -36.5 -16.5 -28.15 -14.4 -26.4 -9.9 -22.75 -8.0 -20.75 -7.15 -20.4 -2.75 -16.5 2.85 -11.75 -3.75 -11.65 -3.65 -11.4 -4.1 -11.15 -95.75 -88.5 -98.15 -93.75 M-21.75 -67.65 L-19.9 -75.75 -19.5 -75.75 -19.75 -76.65 -19.25 -76.9 -19.25 -78.0 -18.5 -80.15 Q-19.4 -82.0 -18.9 -87.15 L-19.0 -87.9 -17.75 -115.65 Q-13.75 -115.25 -13.0 -120.0 L-12.65 -119.9 -12.9 -104.4 -13.25 -104.0 -13.0 -95.65 -13.5 -95.25 -13.5 -93.15 -12.9 -93.25 -12.9 -81.5 -13.25 -81.5 -13.25 -93.0 -13.75 -92.9 Q-13.25 -90.0 -13.9 -88.15 L-13.65 -78.0 -13.0 -78.15 -12.9 -76.0 -13.25 -70.9 -13.5 -70.9 -13.65 -71.0 -16.9 -71.15 -19.0 -67.5 Q-21.5 -65.4 -21.25 -64.65 L-22.4 -63.75 -21.75 -67.65 M3.6 -11.25 L4.1 -10.65 4.35 -10.5 4.35 -10.4 4.1 -10.4 4.0 -10.25 3.35 -9.9 2.0 -8.65 1.6 -8.0 1.25 -7.25 1.1 -6.75 -3.35 -10.5 -4.1 -11.15 3.35 -11.4 3.6 -11.25 M2.5 -10.25 L3.35 -10.15 3.1 -10.5 2.5 -10.25 M1.75 -5.9 L1.5 -6.25 2.0 -6.0 2.1 -5.75 1.75 -5.9 M25.85 7.5 L26.0 7.6 27.5 9.0 26.75 9.1 27.1 9.35 28.0 9.25 28.1 9.5 29.1 10.25 28.0 10.85 22.0 10.85 27.75 11.0 Q24.75 13.1 24.25 12.85 L15.75 5.75 24.1 6.0 24.5 6.25 24.75 6.6 25.0 6.85 25.85 7.35 24.25 7.5 25.85 7.5 M0.35 -10.15 L0.1 -10.5 -0.5 -10.25 0.35 -10.15 M1.1 -10.25 L2.0 -10.15 1.75 -10.5 1.1 -10.25 M-3.35 -10.5 L-2.25 -10.65 -1.65 -10.25 -1.4 -10.65 -2.0 -10.75 -3.35 -10.5 M-5.65 -13.0 L-5.25 -12.9 -5.0 -13.15 -5.25 -13.25 -6.0 -13.15 -5.65 -13.0 M3.35 6.25 L7.35 4.0 9.75 3.6 13.0 5.1 13.1 5.1 13.25 5.25 13.35 5.35 13.6 5.5 13.75 5.75 12.35 12.35 Q10.6 14.75 8.35 14.5 0.85 13.75 3.35 6.25 M23.6 5.6 L15.75 5.75 14.85 5.25 15.25 5.0 20.35 5.0 15.5 4.85 15.75 4.75 20.0 4.75 19.6 4.35 16.35 4.35 16.6 4.25 19.35 2.6 20.1 2.6 21.35 3.75 20.85 4.25 21.6 4.5 21.85 4.25 23.6 5.6 M24.1 6.75 L23.75 6.5 17.0 6.75 24.1 6.75 M18.35 3.5 L19.35 3.5 18.5 3.25 18.35 3.5 M19.6 3.75 L19.5 4.1 20.5 4.25 19.6 3.75" fill="#080808" fill-rule="evenodd" stroke="none"/>
      <path d="M-30.5 31.85 L-30.5 25.25 -29.15 24.5 -29.4 27.5 -29.0 34.75 -29.5 34.35 -30.5 31.85 M-28.4 16.0 L-27.5 12.85 -27.65 15.5 -28.0 15.85 -28.4 16.0 M-22.9 -116.0 L-24.9 -112.0 -25.75 -107.25 -30.4 -96.15 -30.75 -96.15 -31.9 -96.9 -27.4 -107.5 -26.25 -111.75 -26.25 -113.0 -24.5 -116.25 -22.9 -116.0" fill="#2e2e2e" fill-rule="evenodd" stroke="none"/>
      <path d="M3.6 -36.9 L3.6 -36.65 3.75 -36.25 3.85 -35.75 4.0 -35.4 4.1 -34.9 4.25 -34.75 6.85 -27.5 0.5 -31.9 -4.65 -34.15 -7.4 -43.0 -7.4 -43.5 -7.0 -43.5 -7.5 -43.75 -7.25 -44.25 -12.25 -64.65 -13.25 -70.9 -10.15 -70.9 -9.4 -68.9 -9.4 -68.5 -8.15 -65.15 -7.9 -63.25 -3.0 -53.75 2.6 -39.5 3.25 -37.15 3.6 -36.9" fill="#919191" fill-rule="evenodd" stroke="none"/>
      <path d="M-8.65 121.1 L-9.65 120.6 -10.5 119.5 -8.65 121.1 M-9.65 -73.5 L-8.4 -67.65 -8.25 -67.25 -8.15 -65.15 -9.4 -68.5 -9.4 -68.9 -9.65 -73.5 M4.35 -10.5 L5.6 -10.5 Q6.85 -9.0 9.5 -8.0 L9.0 -7.75 8.25 -6.9 7.85 -5.65 5.5 -4.65 3.5 -2.75 2.85 -3.75 2.6 -4.9 1.75 -5.9 2.1 -5.75 2.0 -6.0 1.5 -6.25 1.1 -6.65 1.1 -6.75 1.25 -7.25 1.6 -8.0 2.0 -8.65 3.35 -9.9 4.0 -10.25 4.1 -10.4 4.35 -10.4 4.35 -10.5" fill="#272727" fill-rule="evenodd" stroke="none"/>
      <path d="M23.25 -74.9 L18.85 -74.4 7.85 -74.25 -4.0 -75.15 -9.9 -76.15 -10.0 -77.65 10.1 -76.75 21.85 -77.15 22.85 -76.9 23.6 -77.15 24.0 -77.15 24.85 -77.25 26.5 -76.65 26.85 -76.25 25.35 -75.25 23.25 -74.9 M6.0 114.0 L15.1 111.6 15.35 113.75 24.25 113.5 24.75 113.5 24.75 116.1 15.25 116.35 15.6 116.25 15.25 116.1 15.35 113.75 6.0 114.0" fill="#333333" fill-rule="evenodd" stroke="none"/>
      <path d="M-10.5 -88.15 L-6.15 -88.15 10.35 -86.0 21.1 -83.9 22.6 -83.15 23.85 -83.15 23.85 -82.4 22.85 -82.65 22.0 -81.9 24.25 -81.25 24.6 -80.5 25.0 -78.5 23.75 -77.65 23.6 -77.15 21.85 -77.15 10.1 -76.75 -10.0 -77.65 -10.5 -81.75 -10.5 -88.15" fill="#525252" fill-rule="evenodd" stroke="none"/>
      <path d="M22.6 -4.5 L29.1 -8.4 29.75 -8.65 30.35 -8.5 32.0 -6.15 32.5 -4.25 33.6 -0.9 37.75 17.35 29.1 10.25 28.1 9.5 28.0 9.25 27.5 9.0 26.0 7.6 25.85 7.5 25.85 7.35 24.5 4.5 24.0 2.35 24.0 2.25 23.6 0.6 23.6 0.35 23.5 0.1 22.85 -3.15 22.85 -3.25 22.6 -4.5 M21.6 -84.0 L23.35 -83.9 25.5 -82.15 27.35 -79.25 27.6 -78.75 27.35 -77.15 26.5 -76.65 24.85 -77.25 24.0 -77.15 23.6 -77.15 22.85 -76.9 21.85 -77.15 23.6 -77.15 23.75 -77.65 25.0 -78.5 24.6 -80.5 24.25 -81.25 22.0 -81.9 22.85 -82.65 23.85 -82.4 23.85 -83.15 22.6 -83.15 21.1 -83.9 21.6 -84.0 M27.6 17.5 L29.1 18.6 28.1 19.0 27.6 17.5" fill="#656565" fill-rule="evenodd" stroke="none"/>
      <path d="M-19.4 -88.5 L-19.0 -87.9 -18.9 -87.15 Q-19.4 -82.0 -18.5 -80.15 L-19.25 -78.0 -42.4 -78.9 -52.9 -80.15 -54.75 -80.25 -54.9 -81.0 -56.25 -81.75 -56.25 -84.75 -54.65 -85.0 -54.4 -85.15 -55.4 -85.9 -56.65 -85.65 -57.15 -86.4 -54.9 -86.65 -54.65 -87.15 -46.15 -88.15 -31.25 -88.9 -19.4 -88.5" fill="#3b3b3b" fill-rule="evenodd" stroke="none"/>
      <path d="M43.25 92.0 L41.75 96.6 41.25 96.85 35.75 105.85 35.0 106.5 Q35.85 104.85 34.25 98.1 L37.75 95.6 38.35 95.35 43.25 92.0 M-19.9 -75.75 L-26.25 -76.0 -19.75 -76.65 -19.5 -75.75 -19.9 -75.75 M-55.15 -87.25 L-46.0 -88.4 -29.75 -89.4 -20.15 -89.0 -19.4 -88.5 -31.25 -88.9 -46.15 -88.15 -54.65 -87.15 -55.15 -87.25 M1.5 80.85 L6.0 81.25 9.1 81.0 8.5 85.85 8.75 86.25 7.6 92.75 7.25 93.25 7.0 96.1 6.6 96.35 Q7.5 96.75 7.75 102.75 L8.25 102.85 7.75 103.0 8.35 103.35 6.75 103.25 -10.25 96.5 -10.5 96.25 -13.15 90.6 -4.5 90.5 1.5 80.85 M-17.75 96.75 L-20.4 91.5 -20.4 90.75 -16.0 90.6 -16.9 92.75 -17.75 96.75" fill="#353535" fill-rule="evenodd" stroke="none"/>
      <path d="M-26.25 -76.0 L-43.65 -76.4 -54.9 -78.0 -56.9 -78.5 -58.65 -79.65 -58.4 -79.9 -56.15 -80.65 -55.15 -80.4 -54.75 -80.25 -53.0 -79.9 -52.9 -80.15 -42.4 -78.9 -19.25 -78.0 -19.25 -76.9 -19.75 -76.65 -26.25 -76.0" fill="#212121" fill-rule="evenodd" stroke="none"/>
      <path d="M27.35 -77.15 Q26.6 -74.0 23.25 -74.9 L25.35 -75.25 26.85 -76.25 26.5 -76.65 27.35 -77.15 M13.35 68.75 L18.75 68.35 21.25 67.35 26.5 64.35 26.85 63.6 38.0 63.1 38.6 72.5 37.1 77.1 35.0 78.25 Q32.75 81.6 14.6 80.5 L14.25 74.35 13.75 73.6 14.5 73.6 13.85 73.5 14.35 72.75 13.75 72.6 14.25 72.5 13.6 72.25 13.35 71.5 13.6 70.35 13.25 70.25 13.0 68.75 13.35 68.75" fill="#484848" fill-rule="evenodd" stroke="none"/>
      <path d="M-19.0 -67.5 L-16.9 -71.15 -13.65 -71.0 -13.5 -70.9 -13.25 -70.9 -12.25 -64.65 -7.25 -44.25 -7.5 -43.75 -7.0 -43.5 -7.4 -43.5 -7.4 -43.0 -4.65 -34.15 -9.15 -32.15 -13.15 -28.25 -14.4 -26.4 -16.5 -28.15 -17.15 -45.9 -18.5 -54.25 -18.25 -55.9 -18.75 -62.65 -18.5 -64.15 -19.0 -67.5 M-20.4 26.5 L-19.75 26.6 -18.25 26.75 -17.25 28.0 -16.15 28.25 -15.75 29.35 -15.4 29.5 -14.75 33.5 -14.15 34.6 -14.0 35.75 -17.15 36.1 -23.4 39.35 -22.65 35.75 -20.4 26.5 M30.25 19.75 L31.0 20.25 31.25 20.35 33.0 22.0 33.35 23.6 33.75 25.5 33.1 25.0 32.85 24.85 31.85 24.85 30.25 25.25 30.0 25.25 30.25 19.75" fill="#1b1b1b" fill-rule="evenodd" stroke="none"/>
      <path d="M43.5 80.75 L43.5 81.75 42.75 83.5 41.85 78.25 43.5 80.75 M-27.5 12.85 L-26.4 7.0 -25.65 11.75 -27.5 12.85 M-26.25 -26.75 L-26.25 -28.25 -26.15 -28.25 -24.5 -26.9 -26.25 -26.75 M-26.5 -36.5 L-25.75 -50.75 -23.9 -61.4 -23.5 -61.5 -22.4 -63.75 -21.25 -64.65 Q-21.5 -65.4 -19.0 -67.5 L-18.5 -64.15 -18.75 -62.65 -18.25 -55.9 -18.5 -54.25 -17.15 -45.9 -16.5 -28.15 -26.5 -36.5 M39.85 81.0 L40.85 82.1 42.6 86.85 38.1 95.25 37.6 89.85 37.25 89.1 37.25 88.6 39.85 81.0" fill="#030303" fill-rule="evenodd" stroke="none"/>
      <path d="M-23.9 -61.4 L-21.75 -67.65 -22.4 -63.75 -23.5 -61.5 -23.9 -61.4" fill="#1e1e1e" fill-rule="evenodd" stroke="none"/>
      <path d="M-14.4 -26.4 L-13.15 -28.25 -9.15 -32.15 -4.65 -34.15 -0.4 -27.0 2.85 -16.4 -2.75 -16.5 -7.15 -20.4 -8.0 -20.75 -9.9 -22.75 -14.4 -26.4" fill="#434343" fill-rule="evenodd" stroke="none"/>
      <path d="M-15.75 114.1 L-16.15 113.35 -16.25 113.25 -16.5 112.6 -16.5 112.5 -16.4 112.5 -15.75 114.1 M-8.25 -67.25 L-7.25 -63.75 -8.15 -65.15 -8.25 -67.25" fill="#151515" fill-rule="evenodd" stroke="none"/>
      <path d="M-7.25 -63.75 L-2.15 -53.5 2.75 -39.4 3.25 -38.75 3.6 -36.9 3.25 -37.15 2.6 -39.5 -3.0 -53.75 -7.9 -63.25 -8.15 -65.15 -7.25 -63.75" fill="#363636" fill-rule="evenodd" stroke="none"/>
      <path d="M6.85 -27.5 L12.1 -25.9 13.85 -23.25 14.0 -22.75 13.25 -22.65 11.6 -23.0 11.0 -21.15 12.25 -20.15 13.85 -17.5 16.6 -16.65 16.75 -15.9 17.0 -15.65 16.75 -15.75 16.75 -15.9 2.85 -16.4 -0.4 -27.0 -4.65 -34.15 0.5 -31.9 6.85 -27.5" fill="#848484" fill-rule="evenodd" stroke="none"/>
      <path d="M2.85 -16.4 L3.6 -11.25 3.35 -11.4 2.85 -11.75 -2.75 -16.5 2.85 -16.4 M2.85 -3.75 L3.5 -2.75 1.5 -1.0 0.6 0.1 -2.15 1.6 -2.5 1.75 -2.65 1.85 -2.75 2.0 -3.5 2.35 -3.75 2.5 -1.75 -7.4 -1.9 -7.65 -1.65 -7.5 2.85 -3.75 M-11.4 -15.65 L-11.0 -15.4 -10.75 -15.15 -1.9 -7.65 -2.25 -7.25 -4.15 2.75 -7.75 4.6 -7.9 4.75 -11.9 6.85 -13.75 -4.65 Q-14.4 -5.4 -12.9 -10.75 L-11.65 -14.9 -11.4 -15.65 M0.6 7.75 L3.35 6.25 Q0.85 13.75 8.35 14.5 L10.0 24.35 -0.75 24.75 -8.5 25.5 -10.9 14.25 -4.4 10.35 0.0 8.25 -2.0 19.0 -1.5 19.1 0.6 7.75" fill="#3c3c3c" fill-rule="evenodd" stroke="none"/>
      <path d="M17.5 -1.9 L17.85 -1.9 17.6 -0.9 17.25 -1.4 17.5 -1.9 M18.6 -2.4 L22.35 -4.4 22.85 -3.25 22.85 -3.15 23.5 0.1 23.6 0.35 23.6 0.6 24.0 2.25 24.0 2.35 23.85 3.35 24.5 6.25 24.1 6.0 23.6 5.6 21.85 4.25 21.75 4.0 21.35 3.75 20.1 2.6 19.75 2.5 19.75 1.6 19.35 1.25 18.1 0.1 18.6 -2.4 M16.75 -15.9 L16.75 -15.75 17.35 -14.9 19.6 -10.4 17.1 -8.9 16.1 -9.0 14.25 -8.15 12.5 -7.9 11.1 -8.4 9.5 -8.0 Q6.85 -9.0 5.6 -10.5 L4.35 -10.5 4.1 -10.65 3.6 -11.25 2.85 -16.4 16.75 -15.9 M10.0 24.35 L8.35 14.5 Q10.6 14.75 12.35 12.35 L13.75 5.75 14.0 5.85 14.1 5.85 16.25 7.75 21.25 12.1 19.6 18.6 19.75 19.35 20.25 18.75 21.6 12.35 21.85 12.5 22.6 13.1 23.0 13.5 23.25 13.5 26.6 16.6 27.75 25.75 16.6 24.6 10.0 24.35" fill="#5d5d5d" fill-rule="evenodd" stroke="none"/>
      <path d="M-26.4 7.0 L-27.0 -1.75 -27.25 -3.25 Q-27.5 -5.9 -26.4 -7.65 L-24.65 -9.25 Q-20.15 -12.0 -15.15 -9.25 L-13.15 4.0 -13.4 7.75 -25.4 14.35 -25.65 11.75 -26.4 7.0 M9.5 -8.0 L11.1 -8.4 12.5 -7.9 13.75 -6.4 13.85 -4.75 13.6 -3.75 12.85 -3.0 10.85 -2.75 9.75 -3.15 7.85 -5.4 7.85 -5.65 8.25 -6.9 9.0 -7.75 9.5 -8.0 M-17.4 17.85 L-12.0 14.85 -11.4 16.5 -12.0 18.6 -13.5 18.0 -15.75 17.75 -17.4 17.85 M-24.5 21.85 L-22.9 21.0 -23.15 21.85 -23.25 22.1 -23.5 22.25 -23.4 23.6 -24.25 22.6 -24.4 21.85 -24.5 21.85" fill="#494949" fill-rule="evenodd" stroke="none"/>
      <path d="M20.0 -4.25 L19.0 -3.75 19.35 -3.75 19.25 -3.5 17.5 -1.9 17.25 -1.4 16.5 -2.0 15.6 -3.75 13.85 -4.75 13.75 -6.4 12.5 -7.9 14.25 -8.15 16.1 -9.0 17.1 -8.9 18.1 -8.5 19.5 -6.65 20.0 -4.25 M8.35 103.35 L7.75 103.0 8.25 102.85 7.75 102.75 Q7.5 96.75 6.6 96.35 L7.0 96.1 7.25 93.25 7.6 92.75 8.75 86.25 8.5 85.85 9.1 81.0 14.6 80.5 16.35 90.1 33.75 89.85 37.25 89.1 37.6 89.85 38.1 95.25 37.75 95.6 22.1 103.0 14.75 103.25 8.35 103.35" fill="#444444" fill-rule="evenodd" stroke="none"/>
      <path d="M127.0 -60.9 Q118.0 -60.15 117.35 -58.75 L29.1 -9.25 Q26.6 -12.0 26.0 -11.5 L19.5 -6.65 18.1 -8.5 17.1 -8.9 19.6 -10.4 33.85 -18.25 114.0 -62.4 122.6 -63.75 127.0 -60.9 M-4.4 9.35 L-6.15 7.85 2.5 1.5 5.0 3.5 5.85 3.6 Q0.75 6.5 -4.4 9.35" fill="#171717" fill-rule="evenodd" stroke="none"/>
      <path d="M32.0 -6.15 L32.1 -7.0 30.6 -9.15 34.0 -11.0 33.85 -6.9 32.5 -4.25 32.0 -6.15 M13.85 -23.25 L21.0 -26.15 30.5 -25.25 33.35 -24.4 33.85 -18.25 19.6 -10.4 17.35 -14.9 17.35 -15.5 17.0 -15.65 16.75 -15.9 16.6 -16.65 13.85 -17.5 12.25 -20.15 11.0 -21.15 11.6 -23.0 13.25 -22.65 14.0 -22.75 13.85 -23.25 M-1.9 -7.65 L-1.75 -7.4 -2.25 -7.25 -1.9 -7.65" fill="#262626" fill-rule="evenodd" stroke="none"/>
      <path d="M29.1 -9.25 L20.0 -4.25 19.5 -6.65 26.0 -11.5 Q26.6 -12.0 29.1 -9.25 M-157.4 82.6 L-157.0 82.25 -143.65 79.5 -28.4 16.0 -28.0 15.85 -27.65 15.5 -25.4 14.35 -13.4 7.75 -11.9 7.0 -11.9 6.85 -7.9 4.75 -7.75 4.75 -7.75 4.6 -4.15 2.75 -3.9 2.5 -3.75 2.5 -3.5 2.35 -2.75 2.0 -2.65 1.85 -2.5 1.75 -2.15 1.6 0.6 0.1 0.75 0.1 2.5 1.5 -6.15 7.85 -4.4 9.35 -139.0 84.75 -153.0 87.6 -157.4 82.6" fill="#060606" fill-rule="evenodd" stroke="none"/>
      <path d="M-27.0 -1.75 Q-31.0 -2.5 -34.9 -21.5 L-33.4 -25.9 -30.9 -26.5 -26.25 -26.75 -24.5 -26.9 -23.15 -25.65 -22.9 -25.5 -11.75 -15.9 -11.65 -14.9 -12.9 -10.75 Q-18.9 -13.4 -24.5 -10.15 -27.4 -8.25 -27.75 -5.5 L-27.25 -3.25 -27.0 -1.75 M19.75 2.5 L19.35 2.6 16.6 4.25 16.35 4.35 15.75 4.75 15.5 4.85 15.25 5.0 14.85 5.25 Q16.35 1.25 19.35 1.25 L19.75 1.6 19.75 2.5" fill="#0d0d0d" fill-rule="evenodd" stroke="none"/>
      <path d="M-15.15 -9.25 L-12.9 -10.75 Q-14.4 -5.4 -13.75 -4.65 L-11.9 6.85 -11.9 7.0 -13.4 7.75 -13.15 4.0 -15.15 -9.25 M-11.75 -15.9 L-11.65 -15.9 -11.4 -15.65 -11.65 -14.9 -11.75 -15.9 M-12.0 14.85 L-10.9 14.25 -8.5 25.5 -12.15 29.0 -14.15 34.6 -14.75 33.5 -15.4 29.5 -15.75 29.35 -16.15 28.25 -14.4 27.5 -14.0 26.75 -14.15 25.1 -15.75 17.75 -13.5 18.0 -12.0 18.6 -11.4 16.5 -12.0 14.85" fill="#0a0a0a" fill-rule="evenodd" stroke="none"/>
      <path d="M22.35 -4.4 L22.6 -4.5 22.85 -3.25 22.35 -4.4 M16.75 -15.75 L17.0 -15.65 17.35 -15.5 17.35 -14.9 16.75 -15.75 M24.0 2.35 L24.5 4.5 25.85 7.35 25.0 6.85 24.75 6.6 24.5 6.25 23.85 3.35 24.0 2.35 M26.6 16.6 L26.75 16.6 27.6 17.5 28.1 19.0 29.1 18.6 30.1 19.5 30.25 19.75 30.0 25.25 29.85 27.75 29.75 28.85 27.75 25.75 26.6 16.6" fill="#6c6c6c" fill-rule="evenodd" stroke="none"/>
      <path d="M37.75 17.35 L152.25 113.25 159.25 123.85 159.1 124.25 154.6 128.25 147.5 117.25 24.25 12.85 Q24.75 13.1 27.75 11.0 L22.0 10.85 28.0 10.85 29.1 10.25 37.75 17.35 M10.85 -2.75 L12.85 -3.0 13.6 -3.75 13.85 -4.75 15.6 -3.75 16.5 -2.0 17.25 -1.4 17.6 -0.9 17.6 -0.65 18.1 0.1 19.35 1.25 Q16.35 1.25 14.85 5.25 L14.5 5.5 13.6 4.85 13.0 5.1 9.75 3.6 10.25 2.25 10.85 -2.75 M2.85 -11.75 L3.35 -11.4 -4.1 -11.15 -3.65 -11.4 -3.75 -11.65 2.85 -11.75 M2.5 -10.25 L3.1 -10.5 3.35 -10.15 2.5 -10.25 M25.85 7.35 L25.85 7.5 24.25 7.5 25.85 7.35 M27.5 9.0 L28.0 9.25 27.1 9.35 26.75 9.1 27.5 9.0 M-3.35 -10.5 L-2.0 -10.75 -1.4 -10.65 -1.65 -10.25 -2.25 -10.65 -3.35 -10.5 M1.1 -10.25 L1.75 -10.5 2.0 -10.15 1.1 -10.25 M0.35 -10.15 L-0.5 -10.25 0.1 -10.5 0.35 -10.15 M-5.65 -13.0 L-6.0 -13.15 -5.25 -13.25 -5.0 -13.15 -5.25 -12.9 -5.65 -13.0 M-23.4 23.6 L-23.5 22.25 -23.25 22.1 -23.15 21.85 -22.0 20.5 -20.5 19.6 -21.65 21.85 -23.15 24.0 -23.4 23.6 M24.1 6.0 L15.75 5.75 23.6 5.6 24.1 6.0 M24.1 6.75 L17.0 6.75 23.75 6.5 24.1 6.75 M19.75 2.5 L20.1 2.6 19.35 2.6 19.75 2.5 M21.35 3.75 L21.75 4.0 21.85 4.25 21.6 4.5 20.85 4.25 21.35 3.75 M18.35 3.5 L18.5 3.25 19.35 3.5 18.35 3.5 M15.25 5.0 L15.5 4.85 20.35 5.0 15.25 5.0 M15.75 4.75 L16.35 4.35 19.6 4.35 20.0 4.75 15.75 4.75 M19.6 3.75 L20.5 4.25 19.5 4.1 19.6 3.75" fill="#303030" fill-rule="evenodd" stroke="none"/>
      <path d="M-1.75 -7.4 L-3.75 2.5 -3.9 2.5 -4.15 2.75 -2.25 -7.25 -1.75 -7.4 M0.0 8.25 L0.6 7.75 -1.5 19.1 -2.0 19.0 0.0 8.25 M13.25 5.25 L13.6 5.5 13.35 5.35 13.25 5.25 M21.25 12.1 L21.5 12.1 21.85 12.5 21.6 12.35 20.25 18.75 19.75 19.35 19.6 18.6 21.25 12.1 M15.1 125.0 L15.25 122.25 24.1 124.75 15.1 125.0" fill="#070707" fill-rule="evenodd" stroke="none"/>
      <path d="M7.85 -5.65 L7.85 -5.4 9.75 -3.15 10.85 -2.75 10.25 2.25 9.75 3.6 7.35 4.0 7.85 3.6 7.1 2.85 5.85 3.6 5.0 3.5 Q3.75 -1.9 1.5 -1.0 L3.5 -2.75 5.5 -4.65 7.85 -5.65 M-8.5 25.5 L-0.75 24.75 10.0 24.35 12.0 41.6 13.35 68.75 13.0 68.75 7.25 68.35 5.0 67.5 -1.9 64.35 -2.25 63.75 -8.5 52.5 -13.15 40.75 -14.0 35.75 -14.15 34.6 -12.15 29.0 -8.5 25.5" fill="#242424" fill-rule="evenodd" stroke="none"/>
      <path d="M-25.4 14.35 L-27.65 15.5 -27.5 12.85 -25.65 11.75 -25.4 14.35 M-24.5 21.85 L-24.4 21.85 -24.25 22.6 -23.4 23.6 -23.15 24.0 -21.9 25.5 -20.4 26.5 -22.65 35.75 -28.75 35.5 -29.0 34.75 -29.4 27.5 -29.15 24.5 -24.5 21.85" fill="#535353" fill-rule="evenodd" stroke="none"/>
      <path d="M13.35 68.75 L12.0 41.6 10.0 24.35 16.6 24.6 27.75 25.75 29.75 28.85 30.0 36.0 29.5 53.35 28.75 55.6 28.0 60.25 26.85 63.6 26.5 64.35 21.25 67.35 18.75 68.35 13.35 68.75" fill="#757575" fill-rule="evenodd" stroke="none"/>
      <path d="M36.75 39.5 L42.75 66.75 38.0 63.1 26.85 63.6 28.0 60.25 28.75 55.6 29.5 53.35 30.0 36.0 32.35 36.35 36.75 39.5 M-16.5 112.6 L-20.15 108.6 -19.4 105.85 -19.0 106.0 -18.75 107.35 -16.65 112.25 -16.5 112.5 -16.5 112.6" fill="#454545" fill-rule="evenodd" stroke="none"/>
      <path d="M14.6 80.5 Q32.75 81.6 35.0 78.25 L37.25 88.6 37.25 89.1 33.75 89.85 16.35 90.1 14.6 80.5" fill="#313131" fill-rule="evenodd" stroke="none"/>
      <path d="M-17.15 36.1 L-14.0 35.75 -13.15 40.75 -8.5 52.5 -2.25 63.75 -13.75 63.5 -17.15 36.1" fill="#1f1f1f" fill-rule="evenodd" stroke="none"/>
      <path d="M-17.4 17.85 L-15.75 17.75 -14.15 25.1 -14.65 24.6 -15.4 24.5 -17.15 24.75 -18.15 25.35 -18.4 25.35 -18.75 23.6 -18.9 22.6 -19.15 20.6 -19.25 19.5 -19.4 19.0 -17.4 17.85" fill="#191919" fill-rule="evenodd" stroke="none"/>
      <path d="M-20.15 108.6 L-22.5 104.6 -24.65 99.25 -25.65 89.0 -23.75 77.6 -20.4 67.5 -13.75 63.5 -11.65 72.35 -8.75 77.5 -14.5 87.5 Q-16.4 84.35 -16.9 78.1 L-20.75 81.6 -21.65 86.25 -20.4 90.75 -20.4 91.5 -17.75 96.75 -17.75 97.1 -19.4 105.85 -20.15 108.6 M-18.4 25.35 L-18.15 25.35 -17.15 24.75 -15.4 24.5 -14.65 24.6 -14.15 25.1 -14.0 26.75 -14.4 27.5 -16.15 28.25 -17.25 28.0 -18.25 26.75 -18.4 25.35" fill="#111111" fill-rule="evenodd" stroke="none"/>
      <path d="M-19.75 26.6 L-19.25 24.25 -18.75 23.6 -18.4 25.35 -18.25 26.75 -19.75 26.6" fill="#9f9f9f" fill-rule="evenodd" stroke="none"/>
      <path d="M-19.25 24.25 L-18.9 22.6 -18.75 23.6 -19.25 24.25" fill="#a1a1a1" fill-rule="evenodd" stroke="none"/>
      <path d="M-19.15 20.6 L-18.9 22.6 -19.25 24.25 -19.75 26.6 -20.4 26.5 -21.9 25.5 -20.65 23.0 -19.15 20.6" fill="#6f6f6f" fill-rule="evenodd" stroke="none"/>
      <path d="M-19.15 20.6 L-20.65 23.0 -19.25 19.5 -19.15 20.6" fill="#707070" fill-rule="evenodd" stroke="none"/>
      <path d="M-23.15 21.85 L-22.9 21.0 -22.0 20.5 -23.15 21.85 M15.25 116.35 L5.85 116.5 6.0 114.0 15.35 113.75 15.25 116.1 15.6 116.25 15.25 116.35" fill="#202020" fill-rule="evenodd" stroke="none"/>
      <path d="M33.85 26.25 L33.35 27.85 32.35 28.35 31.25 28.5 29.85 27.75 30.0 25.25 30.25 25.25 31.85 24.85 32.85 24.85 33.1 25.0 33.75 25.5 33.75 25.6 33.85 26.25" fill="#121212" fill-rule="evenodd" stroke="none"/>
      <path d="M32.35 28.35 L36.75 39.5 32.35 36.35 30.0 36.0 29.75 28.85 29.85 27.75 31.25 28.5 32.35 28.35" fill="#555555" fill-rule="evenodd" stroke="none"/>
      <path d="M-25.65 89.0 L-28.5 61.6 -26.75 51.6 -26.25 53.0 -25.75 57.6 -25.5 61.0 -25.25 62.5 -24.9 64.85 -24.65 69.85 -24.15 69.35 -23.75 67.85 -23.5 67.25 -21.15 59.5 -21.75 55.75 -22.25 51.5 -22.65 48.5 -23.25 43.1 -23.5 40.1 -23.4 39.35 -17.15 36.1 -13.75 63.5 -20.4 67.5 -23.75 77.6 -25.65 89.0" fill="#161616" fill-rule="evenodd" stroke="none"/>
      <path d="M-24.9 64.85 L-25.25 62.5 -24.0 62.5 -24.9 64.85 M1.5 80.85 L-4.5 90.5 -13.15 90.6 -14.75 87.75 -16.0 90.6 -20.4 90.75 -21.65 86.25 -20.75 81.6 -16.9 78.1 Q-16.4 84.35 -14.5 87.5 L-8.75 77.5 -2.75 80.35 1.5 80.85" fill="#393939" fill-rule="evenodd" stroke="none"/>
      <path d="M-13.15 90.6 L-10.5 96.25 -16.9 92.75 -16.0 90.6 -14.75 87.75 -13.15 90.6" fill="#111710" fill-rule="evenodd" stroke="none"/>
      <path d="M34.6 120.75 L33.75 121.75 24.35 126.5 24.1 124.75 34.85 119.1 34.6 120.75 M-10.5 96.25 L-10.25 96.5 -7.5 98.75 -6.5 107.6 -17.75 97.1 -17.75 96.75 -16.9 92.75 -10.5 96.25" fill="#0e0e0e" fill-rule="evenodd" stroke="none"/>
      <path d="M42.6 86.85 L43.25 92.0 38.35 95.35 38.1 95.25 42.6 86.85" fill="#131a13" fill-rule="evenodd" stroke="none"/>
      <path d="M41.75 96.6 L40.75 100.35 41.1 108.1 40.35 109.75 Q40.75 110.25 39.5 114.35 L34.6 120.75 34.85 119.1 Q35.1 115.1 36.25 114.0 L35.0 106.5 35.75 105.85 41.25 96.85 41.75 96.6 M38.1 95.25 L38.35 95.35 37.75 95.6 38.1 95.25" fill="#1a1a1a" fill-rule="evenodd" stroke="none"/>
      <path d="M35.0 106.5 L36.25 114.0 Q35.1 115.1 34.85 119.1 L24.1 124.75 15.25 122.25 Q16.0 121.6 15.25 116.35 L24.75 116.1 24.75 113.5 24.25 113.5 15.1 111.6 Q15.6 107.6 14.6 107.0 L15.1 106.6 Q14.25 105.75 14.75 103.25 L22.1 103.0 37.75 95.6 34.25 98.1 Q35.85 104.85 35.0 106.5" fill="#404040" fill-rule="evenodd" stroke="none"/>
      <path d="M-7.4 122.25 L-8.65 121.1 -10.5 119.5 -14.75 115.0 -16.4 112.5 -16.5 112.5 -16.65 112.25 -18.75 107.35 -19.0 106.0 -19.4 105.85 -17.75 97.1 -6.5 107.6 -7.15 115.1 -7.0 120.25 -7.4 122.25" fill="#040404" fill-rule="evenodd" stroke="none"/>
      <path d="M-14.75 115.0 L-15.75 114.25 -15.75 114.1 -16.4 112.5 -14.75 115.0" fill="#2c2c2c" fill-rule="evenodd" stroke="none"/>
      <path d="M24.25 113.5 L15.35 113.75 15.1 111.6 24.25 113.5" fill="#474747" fill-rule="evenodd" stroke="none"/>
      <path d="M5.85 125.25 L15.25 122.25 15.1 125.0 5.85 125.25" fill="#050505" fill-rule="evenodd" stroke="none"/>
      <path d="M14.5 126.85 L3.6 127.1 5.5 125.25 5.85 125.25 15.1 125.0 15.1 125.75 14.25 125.85 15.0 125.85 14.75 126.5 13.85 126.6 14.6 126.6 14.5 126.85 M14.85 125.6 L15.0 125.35 14.6 125.35 14.85 125.6" fill="#0c0c0c" fill-rule="evenodd" stroke="none"/>
      <path d="M24.35 126.5 L14.5 126.85 14.6 126.6 13.85 126.6 14.75 126.5 15.0 125.85 14.25 125.85 15.1 125.75 15.1 125.0 24.1 124.75 24.35 126.5 M14.85 125.6 L14.6 125.35 15.0 125.35 14.85 125.6" fill="#181818" fill-rule="evenodd" stroke="none"/>
      <path d="M-24.0 44.5 L-23.65 43.85 -23.25 42.75 -23.0 44.1 -22.65 48.5 -22.9 48.85 -23.4 50.5 -23.5 51.1 -24.25 53.1 -24.25 53.75 -25.0 55.35 -25.0 55.85 -25.15 56.5 -25.5 56.6 -25.5 57.5 -25.9 57.85 -26.25 55.1 -26.25 54.5 -26.4 53.0 -26.4 52.25 -26.25 52.25 -25.65 50.35 -25.65 49.75 -25.25 49.25 -24.75 46.85 -24.0 45.0 -24.0 44.5 M-14.75 87.85 L-16.9 92.75 -17.0 93.6 -17.15 94.1 -17.75 97.0 -19.65 93.0 -20.0 92.0 -20.25 91.6 -20.4 91.6 -20.4 91.35 -20.5 91.25 -20.5 90.75 -21.65 86.75 -21.65 85.5 -20.9 81.6 -17.15 78.1 -15.4 86.0 -14.75 87.35 -14.65 87.6 -14.75 87.85 M-23.0 52.5 L-22.4 51.0 -21.75 55.25 -21.75 55.75 -22.25 56.6 -22.65 58.6 -23.4 60.5 -23.5 61.25 -24.0 62.5 -24.15 63.1 -24.4 63.75 -24.65 64.0 -25.0 65.1 -25.4 62.5 -25.65 62.1 -25.75 61.35 -25.5 60.5 -25.4 60.5 -24.75 58.6 -24.75 58.1 -24.0 56.0 -23.9 55.35 -23.65 55.1 -23.15 53.25 -23.15 53.1 -23.0 52.5" fill="#000000" fill-opacity="0.50980395" fill-rule="evenodd" stroke="none"/>
      <path d="M14.35 103.25 L8.35 103.35 7.0 103.25 6.0 102.85 5.85 102.85 5.25 102.5 -10.65 96.25 -10.75 96.1 -14.65 87.85 -14.75 87.85 -14.65 87.6 -14.75 87.35 -14.15 86.6 -12.25 83.0 -12.4 83.0 -10.5 80.35 -9.15 77.85 -8.9 77.6 -8.9 77.5 -8.65 77.5 -3.15 80.25 -2.25 80.5 -2.15 80.6 6.35 81.25 6.35 81.1 14.1 80.5 14.1 81.25 14.1 91.6 14.0 91.75 14.25 92.85 14.35 92.85 14.25 96.5 14.25 97.75 14.1 98.0 14.25 98.0 14.25 102.25 14.35 103.25" fill="#030303" fill-opacity="0.50980395" fill-rule="evenodd" stroke="none"/>
      <path d="M42.6 86.85 L42.35 87.1 42.35 86.5 42.6 86.85 M14.1 80.5 L14.6 80.5 14.75 80.75 14.6 81.1 14.1 81.25 14.1 80.5" fill="#060606" fill-rule="evenodd" stroke="none"/>
      <path d="M14.75 80.75 L14.85 81.0 14.75 81.25 14.85 81.5 15.0 82.6 14.6 91.35 14.25 92.85 14.0 91.75 14.1 91.6 14.1 81.25 14.6 81.1 14.75 80.75 M14.25 96.5 L14.5 97.6 14.25 102.25 14.25 98.0 14.1 98.0 14.25 97.75 14.25 96.5" fill="#080808" fill-rule="evenodd" stroke="none"/>
      <path d="M42.35 87.1 L41.25 89.6 40.85 90.0 40.75 90.5 38.1 95.25 38.35 95.35 37.75 95.6 37.25 96.0 22.0 103.0 16.0 103.1 14.75 103.35 14.35 103.25 14.25 102.25 14.5 97.6 14.25 96.5 14.35 92.85 14.25 92.85 14.6 91.35 15.0 82.6 14.85 81.5 14.75 81.25 14.85 81.0 14.75 80.75 14.6 80.5 23.1 81.0 31.1 80.25 31.1 80.1 31.5 80.1 32.35 79.75 37.1 77.1 37.75 77.6 39.85 81.0 41.0 82.35 41.1 83.1 42.1 85.1 42.1 86.0 42.25 86.0 42.25 86.1 42.35 86.5 42.35 87.1" fill="#060606" fill-opacity="0.50980395" fill-rule="evenodd" stroke="none"/>
      <path d="M42.75 83.1 L42.35 82.75 42.35 82.6 42.0 79.0 42.0 78.25 43.5 80.75 43.5 81.25 42.75 83.1" fill="#020202" fill-opacity="0.50980395" fill-rule="evenodd" stroke="none"/>
      <path d="M43.5 81.25 L44.0 86.85 43.35 90.1 42.6 86.85 42.6 83.75 42.75 83.1 43.5 81.25" fill="#020202" fill-rule="evenodd" stroke="none"/>
    </g>
  </defs>
</svg>
