<?xml version="1.0" encoding="UTF-8" standalone="no"?>
<svg xmlns:xlink="http://www.w3.org/1999/xlink" height="299.1px" width="376.5px" xmlns="http://www.w3.org/2000/svg">
  <g transform="matrix(1.0, 0.0, 0.0, 1.0, 182.65, 150.0)">
    <use height="134.6" transform="matrix(1.0, 0.0, 0.0, 1.0, -129.9, -103.5)" width="313.9" xlink:href="#shape0"/>
  </g>
  <defs>
    <g id="shape0" transform="matrix(1.0, 0.0, 0.0, 1.0, 129.9, 103.5)">
      <path d="M184.0 -51.5 L183.6 -49.4 182.35 -48.4 182.0 -48.5 171.35 -50.15 15.35 -62.15 15.0 -62.15 12.75 -62.25 12.1 -62.4 10.25 -62.5 9.35 -62.5 10.1 -62.65 10.25 -63.0 10.25 -64.0 10.5 -64.15 171.6 -52.0 182.35 -50.4 184.0 -51.5 M-113.75 -29.5 L-120.15 -30.25 -120.25 -32.5 -113.75 -31.65 -113.75 -29.5 M-18.75 -64.65 L-124.25 -72.75 -129.5 -73.75 -129.9 -73.9 -129.75 -75.25 -126.15 -74.4 -17.5 -66.25 -17.4 -66.15 -17.15 -66.15 -6.9 -65.4 -6.9 -64.65 -5.25 -63.75 -5.65 -63.75 -6.65 -63.75 -11.4 -64.15 -12.25 -64.25 -13.9 -64.25 -14.25 -64.4 -14.65 -64.4 -18.5 -64.65 -18.75 -64.65 M-36.65 -71.4 L-38.5 -69.75 -39.9 -70.75 -39.25 -71.4 -33.4 -78.25 -36.5 -76.0 -37.5 -77.0 -37.25 -77.4 -35.25 -79.65 -27.15 -86.0 -28.15 -84.65 -28.25 -84.5 -28.5 -84.25 -28.9 -84.15 -30.4 -81.75 -29.9 -81.9 -29.4 -82.9 -28.75 -83.0 -37.75 -72.4 -36.65 -71.4 M-21.5 -91.25 L-21.15 -91.75 -15.4 -98.65 -11.0 -102.9 -20.25 -92.25 -20.5 -92.0 -20.65 -91.9 -20.65 -91.75 -21.5 -91.25 M-15.0 -95.75 L-11.5 -98.4 -13.5 -95.9 -12.4 -94.9 -18.5 -90.0 -21.5 -87.65 -22.25 -88.75 -22.75 -88.5 -22.65 -89.0 -20.15 -91.5 -19.4 -91.9 -15.0 -95.75 M75.6 -84.5 L76.0 -84.5 75.85 -83.15 68.85 -82.15 16.5 -66.5 16.35 -68.0 69.35 -83.65 75.6 -84.5 M-29.0 -42.65 Q-31.4 -46.25 -24.4 -51.9 L-21.0 -52.65 Q-16.9 -52.4 -16.25 -51.25 L-16.75 -50.4 -17.15 -50.0 -17.15 -49.9 -18.15 -49.25 Q-19.65 -50.9 -22.25 -50.75 L-25.0 -50.25 Q-27.5 -49.15 -28.5 -46.65 L-29.0 -42.65 M15.6 -52.25 L15.6 -52.65 Q23.1 -56.0 27.0 -50.15 20.25 -54.15 18.0 -50.9 L15.6 -52.25" fill="#000000" fill-rule="evenodd" stroke="none"/>
      <path d="M-11.5 -98.4 L-10.75 -98.9 -9.75 -97.75 -12.4 -94.9 -13.5 -95.9 -11.5 -98.4" fill="#666666" fill-rule="evenodd" stroke="none"/>
      <path d="M-11.0 -102.9 L-10.15 -103.5 -9.25 -102.4 -15.0 -95.75 -19.4 -91.9 -19.65 -92.25 -20.25 -92.25 -11.0 -102.9" fill="#616161" fill-rule="evenodd" stroke="none"/>
      <path d="M-15.75 28.75 L-16.4 28.75 -16.5 23.0 -12.15 28.1 -12.65 28.25 -13.65 28.6 -15.75 28.75 M-40.25 -46.4 L-50.4 -46.15 -50.0 -46.4 -50.9 -46.4 -50.5 -46.5 -49.25 -46.5 -48.9 -46.5 -40.25 -46.4 M-26.75 -86.25 L-21.5 -91.25 -20.65 -91.75 -20.65 -91.9 -20.5 -92.0 -20.25 -92.25 -19.65 -92.25 -20.15 -91.5 -22.65 -89.0 -22.75 -88.5 Q-25.75 -86.15 -25.65 -85.4 L-27.9 -83.65 -28.0 -83.9 -28.65 -83.25 -28.75 -83.0 -29.4 -82.9 -29.9 -81.9 -30.4 -81.75 -28.9 -84.15 -28.5 -84.25 -28.25 -84.5 -28.15 -84.65 -26.65 -85.9 -26.75 -86.25 M-1.0 -63.75 L-1.65 -63.75 -3.25 -63.9 -4.65 -64.0 -4.5 -64.4 -4.5 -64.5 -3.9 -65.9 -2.75 -66.65 -2.4 -66.75 -2.25 -66.75 -0.75 -66.5 0.25 -65.75 1.0 -63.65 -1.0 -63.75 M0.5 -61.65 L-0.5 -60.5 -1.65 -60.25 -2.9 -60.65 0.5 -61.65 M37.25 -15.4 L37.1 -15.25 37.25 -15.0 37.35 -14.9 37.75 -8.0 37.1 -8.5 36.5 -15.9 37.25 -15.4 M38.5 -13.65 L39.1 -13.0 39.75 -5.15 38.85 -6.65 39.1 -7.25 38.5 -13.65 M-24.25 -21.5 L-24.0 -20.65 -24.25 -13.5 -24.65 -13.0 -24.5 -10.9 -25.25 -5.25 -25.5 -6.9 -24.25 -21.5 M-23.4 -18.75 L-23.25 -18.25 -23.0 -16.75 -23.5 -14.4 -24.0 -3.5 -24.25 -2.65 -24.65 -3.15 -24.65 -4.4 -23.4 -18.75 M-22.75 -16.9 L-22.15 -15.75 -23.0 -5.4 -23.15 -4.9 -23.15 -4.75 -23.0 -3.25 -23.25 0.35 -23.65 0.25 -23.9 -1.4 -23.5 -3.15 -23.75 -3.65 -23.4 -4.5 -22.75 -16.9" fill="#020202" fill-rule="evenodd" stroke="none"/>
      <path d="M-129.75 -75.25 L-126.25 -76.0 -122.0 -75.0 -19.15 -67.4 -18.65 -67.4 -14.9 -67.15 -14.4 -67.15 -16.0 -66.5 -6.75 -66.0 -6.9 -65.4 -17.15 -66.15 -17.5 -66.25 -126.15 -74.4 -129.75 -75.25 M-20.0 -79.15 L-20.9 -78.25 -21.75 -78.0 -28.4 -80.9 -27.15 -82.25 -28.5 -82.9 -27.9 -83.65 -25.65 -85.4 Q-25.75 -86.15 -22.75 -88.5 L-22.25 -88.75 -21.5 -87.65 -18.5 -90.0 -18.4 -89.25 Q-15.5 -80.75 -19.75 -79.25 L-20.0 -79.15 M13.25 -65.0 L24.5 -64.15 23.35 -63.9 11.6 -64.5 13.25 -65.0 M-19.65 -92.25 L-19.4 -91.9 -20.15 -91.5 -19.65 -92.25 M17.75 13.1 L17.6 13.85 18.0 14.25 17.85 15.1 8.0 15.6 7.75 13.5 8.25 13.5 17.75 13.1" fill="#1d1d1d" fill-rule="evenodd" stroke="none"/>
      <path d="M-27.15 -86.0 L-26.75 -86.25 -26.65 -85.9 -28.15 -84.65 -27.15 -86.0" fill="#898989" fill-rule="evenodd" stroke="none"/>
      <path d="M-28.4 -80.9 L-36.65 -71.4 -37.75 -72.4 -28.75 -83.0 -28.65 -83.25 -28.0 -83.9 -27.9 -83.65 -28.5 -82.9 -27.15 -82.25 -28.4 -80.9 M-15.65 -27.65 Q-13.0 -24.15 -3.9 -19.4 L-15.65 -19.25 -18.9 -27.15 -15.65 -27.65 M42.0 -10.15 L42.5 -10.15 43.25 -8.25 43.35 -7.75 43.25 -7.75 43.25 -8.25 42.0 -10.15" fill="#585858" fill-rule="evenodd" stroke="none"/>
      <path d="M-19.15 -71.65 L-19.15 -71.75 -19.65 -77.5 -19.65 -77.65 -19.75 -79.25 Q-15.5 -80.75 -18.4 -89.25 L-16.5 -88.9 -15.15 -74.0 -15.4 -72.9 Q-14.65 -71.15 -14.9 -67.15 L-18.65 -67.4 -18.65 -69.9 -19.15 -71.65 M-14.5 -53.75 L-17.65 -54.25 -17.75 -56.25 -13.9 -57.4 -13.5 -53.75 -14.5 -53.75 M-18.15 -60.15 L-18.5 -64.65 -14.65 -64.4 -14.4 -61.25 -14.9 -61.0 -18.15 -60.15 M-14.25 -64.4 L-13.9 -64.25 -13.65 -61.5 -13.65 -61.4 -14.0 -61.4 -14.25 -64.4 M-13.5 -56.4 L-13.5 -57.25 -13.15 -57.15 -13.15 -56.25 -13.5 -56.4 M-13.0 -55.75 L-13.0 -55.15 -13.4 -55.25 -13.4 -55.9 -13.0 -55.75 M-16.9 1.5 L-10.25 2.5 -6.75 6.25 -5.25 11.25 -16.9 8.5 -16.9 3.0 -16.9 1.5 M28.5 23.35 L28.85 23.35 29.6 28.25 18.25 28.85 18.35 27.85 18.75 27.5 18.35 27.35 18.5 26.5 19.25 26.5 18.5 26.35 18.75 25.85 18.5 24.0 19.0 24.0 19.0 24.35 19.35 24.35 19.25 24.0 28.5 23.35" fill="#070707" fill-rule="evenodd" stroke="none"/>
      <path d="M-18.5 -60.0 L-18.75 -64.65 -18.5 -64.65 -18.15 -60.15 -18.5 -60.0 M-19.15 -67.4 L-19.15 -71.65 -18.65 -69.9 -18.65 -67.4 -19.15 -67.4 M-19.65 -77.65 L-20.0 -79.15 -19.75 -79.25 -19.65 -77.65 M-17.65 -54.25 L-18.15 -54.4 -18.25 -56.15 -17.75 -56.25 -17.65 -54.25" fill="#151515" fill-rule="evenodd" stroke="none"/>
      <path d="M-16.5 -88.9 L-14.9 -89.5 -13.75 -89.65 -13.65 -89.25 -14.5 -86.4 Q-13.65 -82.9 -13.0 -82.65 L-11.65 -66.9 -14.4 -67.15 -14.9 -67.15 Q-14.65 -71.15 -15.4 -72.9 L-15.15 -74.0 -16.5 -88.9 M-14.65 -64.4 L-14.25 -64.4 -14.0 -61.4 -14.4 -61.25 -14.65 -64.4 M-13.9 -64.25 L-12.25 -64.25 -11.4 -64.15 -11.25 -62.15 -13.65 -61.5 -13.9 -64.25 M-10.9 -58.25 L-10.25 -54.0 -13.5 -53.75 -13.9 -57.4 -10.9 -58.25 M-13.0 -55.75 L-13.4 -55.9 -13.4 -55.25 -13.0 -55.15 -13.0 -55.75 M-13.5 -56.4 L-13.15 -56.25 -13.15 -57.15 -13.5 -57.25 -13.5 -56.4" fill="#696969" fill-rule="evenodd" stroke="none"/>
      <path d="M-13.65 -89.25 L-12.15 -89.5 -11.5 -88.9 -10.75 -86.75 -11.15 -83.9 -11.9 -82.75 -13.0 -82.65 Q-13.65 -82.9 -14.5 -86.4 L-13.65 -89.25 M32.1 -34.4 L30.0 -32.9 28.6 -35.65 29.75 -36.0 30.1 -36.4 32.1 -34.4 M-20.25 -40.25 L-19.65 -40.4 -19.0 -40.4 -19.0 -40.25 -20.25 -40.25" fill="#1f1f1f" fill-rule="evenodd" stroke="none"/>
      <path d="M0.75 -69.5 Q1.1 -73.15 4.35 -72.65 L5.85 -71.65 6.5 -70.0 6.25 -69.25 3.6 -68.9 1.85 -69.15 1.6 -69.25 0.75 -69.5" fill="#535353" fill-rule="evenodd" stroke="none"/>
      <path d="M-22.15 21.75 L-24.9 11.5 -24.65 8.85 -25.0 8.5 -25.25 1.0 -25.25 -5.25 -24.65 -4.4 -24.65 -3.15 -24.25 -2.65 -23.9 -1.4 -23.65 0.25 -23.25 0.35 -23.0 -3.25 -23.15 -4.75 -23.15 -4.9 -23.0 -5.4 -22.15 -15.75 -22.75 -16.9 -22.75 -17.65 -23.25 -18.25 -23.4 -18.75 -24.0 -20.65 -24.25 -21.5 -24.4 -22.25 -18.9 -27.15 -15.65 -19.25 -21.4 -13.75 -21.65 -12.15 -22.65 3.0 -21.9 21.0 -22.15 21.75 M3.6 -68.9 L6.25 -69.25 10.1 -67.75 11.1 -67.65 11.5 -67.5 10.85 -67.15 10.5 -66.25 10.25 -64.0 10.25 -63.0 10.1 -62.65 9.35 -62.5 10.25 -62.5 10.85 -61.15 11.5 -61.0 9.6 -61.15 8.0 -60.65 6.1 -60.5 4.35 -61.0 Q5.0 -61.5 4.6 -66.25 L3.6 -68.9" fill="#1c1c1c" fill-rule="evenodd" stroke="none"/>
      <path d="M-120.25 -32.5 L-106.5 -34.75 -54.75 -49.65 -54.65 -49.65 -52.0 -50.4 -52.0 -50.5 -50.65 -50.9 -18.5 -60.0 -18.15 -60.15 -14.9 -61.0 -14.4 -61.25 -14.0 -61.4 -13.65 -61.4 -13.65 -61.5 -11.25 -62.15 -10.9 -62.15 -10.0 -62.4 -4.25 -62.15 -4.75 -61.9 -5.2 -61.9 -7.5 -62.0 -5.4 -61.75 -101.25 -33.65 -113.75 -31.65 -120.25 -32.5 M10.1 -68.0 L10.25 -68.25 10.6 -68.4 10.6 -67.9 10.25 -67.9 10.1 -68.0 M-5.65 -63.75 L-5.25 -63.75 -4.9 -63.75 -1.65 -63.75 -1.0 -63.75 -1.5 -63.5 -1.4 -63.25 -6.15 -63.5 -5.65 -63.75 M-4.75 -63.9 L-4.65 -64.0 -3.25 -63.9 -4.75 -63.9 M-2.25 -66.75 L-1.5 -67.9 -1.0 -67.9 0.75 -69.5 1.6 -69.25 1.85 -69.15 3.6 -68.9 4.6 -66.25 Q5.0 -61.5 4.35 -61.0 L1.35 -60.15 -0.5 -60.5 0.5 -61.65 2.75 -62.5 2.35 -63.25 1.75 -63.4 2.0 -63.75 1.0 -63.65 0.25 -65.75 -0.75 -66.5 -2.25 -66.75 M10.1 -67.75 L10.25 -67.9 15.1 -67.75 14.35 -67.5 14.1 -67.5 11.1 -67.65 10.1 -67.75 M0.1 -63.4 L-0.25 -63.25 -1.15 -63.25 -0.65 -63.65 0.1 -63.4 M-2.4 -62.65 L-3.4 -62.4 -3.65 -62.65 -2.4 -62.65 M-9.65 -62.5 L-8.75 -62.75 -6.4 -62.9 -8.4 -62.9 -8.4 -63.0 -8.0 -63.0 -3.25 -62.9 -5.7 -62.9 -3.9 -62.5 -9.65 -62.5 M-6.5 -63.4 L-2.15 -63.25 -7.0 -63.25 -6.5 -63.4 M13.35 -67.25 L12.75 -67.0 12.5 -67.25 13.35 -67.25 M-21.65 -39.0 L-21.9 -38.15 -25.4 -36.75 -25.75 -36.75 -25.25 -39.15 -21.65 -39.0 M27.25 12.6 L27.6 12.85 27.85 14.6 17.85 15.1 18.0 14.25 17.6 13.85 17.75 13.1 27.25 12.6" fill="#313131" fill-rule="evenodd" stroke="none"/>
      <path d="M-6.75 -66.5 L-6.4 -67.65 -5.4 -68.75 -3.15 -68.75 0.75 -69.5 -1.0 -67.9 -1.5 -67.9 -2.25 -66.75 -2.4 -66.75 -2.75 -66.65 -3.9 -65.9 -4.5 -64.5 -4.5 -64.4 -4.65 -64.0 -4.75 -63.9 -4.9 -63.75 -5.25 -63.75 -6.9 -64.65 -6.9 -65.4 -6.75 -66.0 -6.75 -66.5 M-6.65 -63.75 L-5.65 -63.75 -6.15 -63.5 -6.5 -63.4 -6.65 -63.75" fill="#121212" fill-rule="evenodd" stroke="none"/>
      <path d="M10.6 -68.4 L64.6 -83.9 70.85 -84.75 75.6 -84.5 69.35 -83.65 16.35 -68.0 15.1 -67.75 10.25 -67.9 10.6 -67.9 10.6 -68.4 M-6.5 -63.4 L-6.15 -63.5 -1.4 -63.25 -1.5 -63.5 -1.0 -63.75 1.0 -63.65 0.1 -63.4 -0.65 -63.65 -1.15 -63.25 -0.25 -63.25 -2.4 -62.65 -3.65 -62.65 -3.4 -62.4 -3.75 -62.25 -4.15 -62.15 -4.25 -62.15 -10.0 -62.4 -9.65 -62.5 -3.9 -62.5 -5.7 -62.9 -3.25 -62.9 -8.0 -63.0 -8.0 -63.15 -7.0 -63.25 -2.15 -63.25 -6.5 -63.4 M-1.65 -63.75 L-4.9 -63.75 -4.75 -63.9 -3.25 -63.9 -1.65 -63.75 M-5.2 -61.9 L-5.4 -61.75 -7.5 -62.0 -5.2 -61.9 M-8.4 -62.9 L-6.4 -62.9 -8.75 -62.75 -8.4 -62.9 M14.1 -67.5 L13.35 -67.25 12.5 -67.25 11.5 -67.5 11.1 -67.65 14.1 -67.5" fill="#484848" fill-rule="evenodd" stroke="none"/>
      <path d="M-52.0 -46.0 L-100.75 -31.5 -113.75 -29.5 -113.75 -31.65 -101.25 -33.65 -5.4 -61.75 -5.2 -61.9 -4.75 -61.9 -4.25 -62.15 -4.15 -62.15 -3.75 -62.25 -3.4 -62.4 -2.4 -62.65 -0.25 -63.25 0.1 -63.4 1.0 -63.65 2.0 -63.75 1.75 -63.4 2.35 -63.25 2.75 -62.5 0.5 -61.65 -2.9 -60.65 -5.75 -59.9 -6.25 -59.65 -7.9 -59.25 -8.4 -59.0 -10.9 -58.25 -13.9 -57.4 -17.75 -56.25 -18.25 -56.15 -21.75 -55.0 -35.4 -51.0 -41.5 -49.15 -50.15 -46.65 -50.5 -46.5 -50.9 -46.4 -52.0 -46.0 M16.5 -66.5 L13.25 -65.5 12.75 -67.0 13.35 -67.25 14.1 -67.5 14.35 -67.5 15.1 -67.75 16.35 -68.0 16.5 -66.5" fill="#010101" fill-rule="evenodd" stroke="none"/>
      <path d="M6.25 -69.25 L8.6 -69.25 10.1 -68.0 10.25 -67.9 10.1 -67.75 6.25 -69.25" fill="#858585" fill-rule="evenodd" stroke="none"/>
      <path d="M45.85 3.75 L45.75 18.0 Q45.1 17.5 45.35 13.0 L45.0 12.75 45.25 5.85 45.35 4.5 45.85 3.75 M45.75 19.75 L45.6 24.75 45.0 25.6 44.85 22.35 45.75 19.75 M13.25 -65.5 L13.25 -65.0 11.6 -64.5 10.5 -64.15 10.25 -64.0 10.5 -66.25 10.85 -67.15 11.5 -67.5 12.5 -67.25 12.75 -67.0 13.25 -65.5 M12.6 -61.9 L12.0 -61.15 11.5 -61.0 10.85 -61.15 10.25 -62.5 12.1 -62.4 12.75 -62.25 12.6 -61.9" fill="#1a1a1a" fill-rule="evenodd" stroke="none"/>
      <path d="M24.5 -64.15 L24.6 -64.15 171.25 -53.4 184.0 -51.5 182.35 -50.4 171.6 -52.0 10.5 -64.15 11.6 -64.5 23.35 -63.9 24.5 -64.15 M-11.65 -66.9 L-6.75 -66.5 -6.75 -66.0 -16.0 -66.5 -14.4 -67.15 -11.65 -66.9 M-17.15 -66.15 L-17.4 -66.15 -17.5 -66.25 -17.15 -66.15 M-21.4 -36.5 L-21.25 -36.25 -23.65 -32.25 -25.15 -34.25 -24.15 -35.0 -21.4 -36.5" fill="#707070" fill-rule="evenodd" stroke="none"/>
      <path d="M15.35 -62.15 L15.5 -56.15 15.6 -52.65 15.6 -52.25 Q16.0 -46.15 15.25 -45.4 L15.0 -52.9 15.0 -56.0 15.0 -62.15 15.35 -62.15 M-0.5 -60.5 L1.35 -60.15 4.35 -61.0 6.1 -60.5 8.0 -60.65 8.0 -54.5 8.1 -47.65 Q5.1 -46.4 4.0 -46.75 1.85 -46.4 -1.4 -47.65 L-1.5 -54.25 -1.65 -60.25 -0.5 -60.5 M-8.0 -63.0 L-8.4 -63.0 -8.25 -63.5 -8.0 -63.15 -8.0 -63.0 M-8.4 -59.0 L-7.9 -59.25 -7.9 -54.15 -7.75 -49.0 Q-8.9 -49.5 -8.25 -54.0 L-8.4 -59.0 M-6.25 -59.65 L-5.75 -59.9 -5.65 -54.15 -5.75 -44.65 -6.15 -46.15 -6.15 -54.15 -6.25 -59.65" fill="#0f0f0f" fill-rule="evenodd" stroke="none"/>
      <path d="M12.0 -61.15 L12.6 -61.9 12.6 -55.25 12.6 -54.15 12.6 -49.75 12.25 -49.75 12.1 -54.5 12.0 -55.0 12.0 -61.15 M41.25 -10.65 L42.0 -10.15 43.25 -8.25 43.25 -7.75 41.85 -4.0 41.25 -10.65 M37.1 -8.5 L37.75 -8.0 38.85 -6.65 39.75 -5.15 40.6 -4.15 41.35 -2.9 40.25 0.25 36.85 1.25 37.1 -8.5 M-23.75 -41.4 L-21.65 -42.9 -21.4 -41.9 -20.5 -40.5 -20.65 -40.15 -21.25 -39.9 -23.25 -40.9 -23.75 -41.4" fill="#0d0d0d" fill-rule="evenodd" stroke="none"/>
      <path d="M-26.65 -35.25 Q-33.15 -37.25 -35.65 -46.4 L-35.9 -47.25 -35.65 -49.25 -35.4 -51.0 -21.75 -55.0 -18.15 -54.4 -17.65 -54.25 -14.5 -53.75 -14.65 -53.65 -16.25 -51.25 Q-16.9 -52.4 -21.0 -52.65 L-24.4 -51.9 Q-31.4 -46.25 -29.0 -42.65 L-29.0 -42.4 -28.9 -42.0 -28.75 -41.75 -28.75 -41.65 -28.5 -40.15 -28.4 -40.15 Q-27.5 -36.75 -26.65 -36.0 L-26.65 -35.25 M18.75 20.5 L28.5 23.35 19.25 24.0 19.0 24.0 18.75 20.5" fill="#141414" fill-rule="evenodd" stroke="none"/>
      <path d="M-24.5 -32.15 L-26.65 -35.25 -26.65 -36.0 Q-27.5 -36.75 -28.4 -40.15 L-28.75 -41.65 -28.75 -41.75 -28.9 -42.0 -29.0 -42.4 -29.0 -42.65 -28.5 -46.65 Q-27.5 -49.15 -25.0 -50.25 L-22.25 -50.75 Q-19.65 -50.9 -18.15 -49.25 L-16.5 -46.65 -16.75 -46.15 -15.75 -44.15 -14.9 -43.4 -15.25 -42.15 -15.65 -42.25 -16.9 -43.0 -19.25 -43.4 -21.65 -42.9 -23.75 -41.4 -25.25 -39.15 -25.75 -36.75 -25.15 -34.25 -23.65 -32.25 -21.4 -30.9 -18.75 -30.65 -17.75 -30.75 -18.25 -30.4 -20.65 -30.5 -22.15 -30.75 -24.5 -32.15 M-52.25 -50.65 L-50.65 -50.9 -52.0 -50.5 -52.25 -50.65 M-35.4 -51.0 L-35.65 -49.25 -41.5 -49.15 -35.4 -51.0" fill="#3e3e3e" fill-rule="evenodd" stroke="none"/>
      <path d="M43.1 26.0 L43.0 26.0 42.25 26.1 42.0 26.25 39.35 26.75 43.6 25.5 43.75 25.75 43.1 26.0 M-5.15 29.5 L-8.9 29.25 -9.15 29.1 -9.9 29.1 -13.65 28.6 -12.65 28.25 -5.15 29.5 M-35.65 -46.4 L-40.25 -46.4 -48.9 -46.5 -49.25 -46.65 -50.15 -46.65 -41.5 -49.15 -35.65 -49.25 -35.9 -47.25 -35.65 -46.4" fill="#131313" fill-rule="evenodd" stroke="none"/>
      <path d="M15.5 -56.15 L16.1 -56.4 23.6 -56.0 28.6 -55.0 29.25 -53.25 30.25 -47.15 27.0 -50.15 Q23.1 -56.0 15.6 -52.65 L15.5 -56.15 M12.0 -55.0 L12.1 -54.5 10.1 -54.5 12.0 -55.0 M12.6 -54.15 L12.6 -55.25 15.0 -56.0 15.0 -52.9 12.6 -54.15" fill="#343434" fill-rule="evenodd" stroke="none"/>
      <path d="M30.25 -47.15 L32.75 -44.65 34.1 -42.65 34.75 -39.15 Q33.5 -32.9 28.75 -32.25 L27.5 -32.0 27.35 -32.25 27.75 -32.4 30.0 -32.9 32.1 -34.4 33.6 -36.5 34.0 -38.9 33.6 -41.25 32.1 -43.4 30.0 -44.65 27.75 -45.0 25.35 -44.5 24.1 -43.65 23.0 -44.9 23.35 -45.9 23.1 -46.25 22.0 -47.5 20.1 -48.4 18.0 -50.9 Q20.25 -54.15 27.0 -50.15 L30.25 -47.15" fill="#636363" fill-rule="evenodd" stroke="none"/>
      <path d="M-50.4 -46.15 L-52.0 -46.0 -50.9 -46.4 -50.0 -46.4 -50.4 -46.15 M-54.75 -49.65 L-53.75 -50.4 -52.25 -50.65 -52.0 -50.5 -52.0 -50.4 -54.65 -49.65 -54.75 -49.65 M-17.0 -37.25 L-16.5 -35.5 -17.5 -34.15 -18.25 -33.9 -19.15 -33.9 -20.15 -34.4 -20.65 -34.9 -20.9 -35.65 -20.9 -35.75 -21.0 -36.15 -20.4 -37.4 -19.75 -37.9 -18.15 -38.0 -17.0 -37.25 M-49.25 -46.5 L-50.5 -46.5 -50.15 -46.65 -49.25 -46.65 -49.25 -46.5" fill="#171717" fill-rule="evenodd" stroke="none"/>
      <path d="M12.1 -54.5 L12.25 -49.75 12.6 -49.75 12.6 -54.15 15.0 -52.9 15.25 -45.4 Q16.0 -46.15 15.6 -52.25 L18.0 -50.9 20.1 -48.4 22.1 -45.9 23.5 -43.25 23.35 -42.9 13.85 -43.9 5.6 -44.15 4.0 -46.75 Q5.1 -46.4 8.1 -47.65 L8.0 -54.5 10.1 -54.5 12.1 -54.5" fill="#a0a0a0" fill-rule="evenodd" stroke="none"/>
      <path d="M-17.15 -49.9 L-17.15 -50.0 -16.75 -50.4 -16.25 -51.25 -14.65 -53.65 -14.5 -53.75 -13.5 -53.75 -10.25 -54.0 -8.25 -54.0 Q-8.9 -49.5 -7.75 -49.0 L-7.9 -54.15 -6.15 -54.15 -6.15 -46.15 -5.75 -44.65 -5.65 -54.15 -1.5 -54.25 -1.4 -47.65 Q1.85 -46.4 4.0 -46.75 L5.6 -44.15 -4.0 -43.15 -12.25 -41.65 -15.9 -47.4 -17.15 -49.9" fill="#7a7a7a" fill-rule="evenodd" stroke="none"/>
      <path d="M-18.15 -49.25 L-17.15 -49.9 -15.9 -47.4 -16.5 -46.65 -18.15 -49.25 M-18.65 -40.65 L-18.65 -39.75 -19.0 -40.25 -19.0 -40.4 -18.65 -40.65" fill="#0a0a0a" fill-rule="evenodd" stroke="none"/>
      <path d="M45.0 25.6 L44.5 25.75 43.75 25.75 43.6 25.5 44.85 22.35 45.0 25.6 M-12.25 -41.65 L-15.15 -36.75 -14.9 -36.65 -15.9 -28.0 -17.15 -29.4 -17.5 -29.15 -17.75 -29.5 -18.25 -30.4 -17.75 -30.75 -17.5 -31.4 -18.25 -33.9 -17.5 -34.15 -16.5 -35.5 -17.0 -37.25 -17.4 -38.4 -18.65 -39.75 -18.65 -40.65 -18.4 -41.5 -18.0 -42.25 -17.4 -42.4 -15.65 -42.25 -15.25 -42.15 -14.9 -43.4 -15.75 -44.15 -16.75 -46.15 -16.5 -46.65 -15.9 -47.4 -12.25 -41.65 M18.5 24.0 L8.85 24.35 18.75 20.5 19.0 24.0 18.5 24.0" fill="#101010" fill-rule="evenodd" stroke="none"/>
      <path d="M5.6 -44.15 L7.75 -38.4 8.75 -33.65 9.1 -33.4 11.75 -18.9 11.25 -18.9 2.85 -19.0 -3.9 -19.4 Q-13.0 -24.15 -15.65 -27.65 L-15.9 -28.0 -14.9 -36.65 -15.15 -36.75 -12.25 -41.65 -4.0 -43.15 5.6 -44.15" fill="#2b2b2b" fill-rule="evenodd" stroke="none"/>
      <path d="M-49.25 -46.65 L-48.9 -46.5 -49.25 -46.5 -49.25 -46.65" fill="#272727" fill-rule="evenodd" stroke="none"/>
      <path d="M-28.75 -41.65 L-28.4 -40.15 -28.5 -40.15 -28.75 -41.65" fill="#404040" fill-rule="evenodd" stroke="none"/>
      <path d="M39.35 26.75 L39.1 26.75 38.6 26.85 38.5 27.0 27.75 30.0 16.6 30.6 17.85 29.85 18.5 29.85 18.35 29.35 19.0 29.25 18.25 28.85 29.6 28.25 28.85 23.35 39.85 20.85 40.1 24.35 43.6 25.5 39.35 26.75 M-16.4 28.75 L-20.75 27.35 -22.15 21.75 -21.9 21.0 -22.65 3.0 -21.65 -12.15 -21.4 -13.75 -15.65 -19.25 -13.4 -15.9 -10.5 -14.25 -12.15 -12.15 -13.65 -10.25 -15.65 -5.25 -16.75 -6.25 -17.65 -7.9 -17.9 -7.75 -20.9 -2.0 -20.65 3.0 -20.75 5.0 -19.4 6.85 -16.9 8.5 -16.75 15.75 Q-16.15 16.25 -16.25 22.5 L-16.5 23.0 -16.4 28.75 M25.35 -44.5 L27.75 -45.0 30.0 -44.65 32.1 -43.4 33.6 -41.25 34.0 -38.9 33.6 -36.5 32.6 -36.9 30.5 -38.0 30.1 -39.15 29.75 -39.4 29.5 -39.9 29.1 -40.25 28.6 -40.9 28.25 -41.25 28.0 -41.65 27.5 -41.9 27.35 -42.0 26.6 -42.15 26.1 -41.9 Q26.4 -42.25 26.25 -42.65 L26.0 -43.9 25.5 -43.9 25.35 -44.5 M-21.65 -42.9 L-19.25 -43.4 -16.9 -43.0 -15.65 -42.25 -17.4 -42.4 -18.0 -42.25 -18.4 -41.5 -18.65 -40.65 -19.0 -40.4 -19.65 -40.4 -20.25 -40.25 -20.65 -40.15 -20.5 -40.5 -21.4 -41.9 -21.65 -42.9" fill="#080808" fill-rule="evenodd" stroke="none"/>
      <path d="M33.6 -36.5 L32.1 -34.4 30.1 -36.4 30.5 -37.5 30.5 -38.0 32.6 -36.9 33.6 -36.5 M24.1 -43.65 L25.35 -44.5 25.5 -43.9 24.1 -43.65" fill="#0c0c0c" fill-rule="evenodd" stroke="none"/>
      <path d="M29.75 -39.4 L30.1 -39.15 30.5 -38.0 30.5 -37.5 30.1 -36.4 29.75 -36.0 28.6 -35.65 28.1 -35.65 27.0 -36.15 26.85 -36.15 26.85 -36.25 26.6 -36.5 26.35 -37.75 26.25 -38.0 26.25 -38.15 26.35 -38.4 27.0 -39.4 29.0 -39.75 29.75 -39.4" fill="#1b1b1b" fill-rule="evenodd" stroke="none"/>
      <path d="M28.25 -41.25 L28.6 -40.9 29.1 -40.25 29.5 -39.9 29.75 -39.4 29.0 -39.75 27.0 -39.4 26.35 -38.4 26.25 -38.65 26.1 -41.9 27.5 -41.9 28.25 -41.25" fill="#323232" fill-rule="evenodd" stroke="none"/>
      <path d="M26.1 -41.9 L26.6 -42.15 27.35 -42.0 27.5 -41.9 28.0 -41.65 28.25 -41.25 27.5 -41.9 26.1 -41.9 M-25.25 -39.15 L-23.75 -41.4 -23.25 -40.9 -21.25 -39.9 -21.25 -39.75 -21.65 -39.0 -25.25 -39.15 M8.25 13.5 L17.25 11.6 17.75 13.1 8.25 13.5" fill="#202020" fill-rule="evenodd" stroke="none"/>
      <path d="M-24.9 11.5 L-26.75 5.35 -27.25 -2.5 -25.25 1.0 -25.0 8.5 -24.65 8.85 -24.9 11.5 M20.1 -48.4 L22.0 -47.5 23.1 -46.25 23.35 -45.9 23.0 -44.9 24.1 -43.65 25.5 -43.9 26.0 -43.9 26.25 -42.65 Q26.4 -42.25 26.1 -41.9 L26.25 -38.65 23.35 -42.9 23.5 -43.25 22.1 -45.9 20.1 -48.4 M-16.9 3.0 L-16.9 8.5 -19.4 6.85 -20.75 5.0 -20.65 3.0 -16.9 3.0 M-8.15 2.85 L1.75 2.75 3.0 5.35 -8.15 2.85" fill="#6f6f6f" fill-rule="evenodd" stroke="none"/>
      <path d="M27.35 -32.25 L27.5 -32.0 27.75 -30.4 27.85 -29.25 Q28.35 -25.0 27.85 -24.4 L25.5 -20.65 19.35 -19.5 11.75 -18.9 9.1 -33.4 8.75 -33.65 7.75 -38.4 5.6 -44.15 13.85 -43.9 23.35 -42.9 26.25 -38.65 26.35 -38.4 26.25 -38.15 26.25 -38.0 26.35 -37.75 26.6 -36.5 26.85 -36.25 26.85 -36.15 26.85 -36.0 27.25 -34.15 27.25 -34.0 27.35 -33.15 27.35 -32.25" fill="#a5a5a5" fill-rule="evenodd" stroke="none"/>
      <path d="M11.75 -18.9 L19.35 -19.5 20.85 -17.4 13.0 -17.0 12.1 -18.65 11.25 -18.9 11.75 -18.9" fill="#8a8a8a" fill-rule="evenodd" stroke="none"/>
      <path d="M19.35 -19.5 L25.5 -20.65 36.5 -21.4 37.5 -17.75 36.35 -16.15 31.0 -13.9 22.6 -13.15 13.6 -13.0 12.5 -17.0 13.0 -17.0 20.85 -17.4 19.35 -19.5" fill="#848484" fill-rule="evenodd" stroke="none"/>
      <path d="M42.1 -16.9 L42.85 -15.65 45.25 -5.0 43.85 -7.15 43.6 -7.65 43.35 -7.75 43.25 -8.25 42.5 -10.15 42.0 -10.15 40.75 -12.75 37.25 -15.4 36.5 -15.9 36.35 -16.15 37.5 -17.75 36.5 -21.4 25.5 -20.65 27.85 -24.4 Q28.35 -25.0 27.85 -29.25 L30.25 -29.15 31.1 -28.4 35.1 -23.0 36.5 -21.9 36.5 -21.4 42.1 -16.9" fill="#868686" fill-rule="evenodd" stroke="none"/>
      <path d="M13.6 -13.0 L22.6 -13.15 31.0 -13.9 30.1 -5.15 27.85 0.5 Q25.75 -3.5 13.1 -10.25 L12.5 -12.9 13.6 -13.0 M18.5 24.0 L18.75 25.85 18.5 26.35 19.25 26.5 18.5 26.5 18.35 27.35 18.75 27.5 18.35 27.85 18.25 28.85 7.75 29.35 8.85 24.35 18.5 24.0 M19.0 24.0 L19.25 24.0 19.35 24.35 19.0 24.35 19.0 24.0" fill="#050505" fill-rule="evenodd" stroke="none"/>
      <path d="M-3.9 -19.4 L2.85 -19.0 4.25 -16.75 12.5 -17.0 13.6 -13.0 12.5 -12.9 11.35 -12.9 10.6 -12.75 8.75 -12.65 -4.65 -12.4 -4.75 -12.4 -5.0 -12.65 -10.5 -14.25 -13.4 -15.9 -15.65 -19.25 -3.9 -19.4" fill="#545454" fill-rule="evenodd" stroke="none"/>
      <path d="M2.85 -19.0 L11.25 -18.9 12.1 -18.65 13.0 -17.0 12.5 -17.0 4.25 -16.75 2.85 -19.0" fill="#828282" fill-rule="evenodd" stroke="none"/>
      <path d="M10.6 -12.75 L11.35 -12.9 11.35 -10.4 11.1 -10.5 10.6 -12.75 10.75 -6.9 11.1 -6.75 11.1 -8.25 11.5 -7.9 11.5 -6.4 10.85 -6.65 10.85 -3.4 11.6 -3.0 Q10.35 -2.15 11.25 6.5 L8.75 6.6 4.35 5.6 8.75 -12.65 10.6 -12.75 M-18.65 -39.75 L-17.4 -38.4 -17.0 -37.25 -18.15 -38.0 -19.75 -37.9 -20.4 -37.4 -21.0 -36.15 -21.25 -36.25 -21.4 -36.5 -21.75 -37.4 -21.9 -38.15 -21.65 -39.0 -21.25 -39.75 -21.25 -39.9 -20.65 -40.15 -20.25 -40.25 -19.0 -40.25 -18.65 -39.75" fill="#181818" fill-rule="evenodd" stroke="none"/>
      <path d="M30.0 -32.9 L27.75 -32.4 27.35 -33.15 27.25 -34.0 27.25 -34.15 26.85 -36.0 26.85 -36.15 27.0 -36.15 28.1 -35.65 28.6 -35.65 30.0 -32.9" fill="#303030" fill-rule="evenodd" stroke="none"/>
      <path d="M27.75 -32.4 L27.35 -32.25 27.35 -33.15 27.75 -32.4" fill="#474747" fill-rule="evenodd" stroke="none"/>
      <path d="M-21.9 -38.15 L-21.75 -37.4 -25.4 -36.75 -21.9 -38.15" fill="#4e4e4e" fill-rule="evenodd" stroke="none"/>
      <path d="M-25.75 -36.75 L-25.4 -36.75 -21.75 -37.4 -24.15 -35.0 -25.15 -34.25 -25.75 -36.75" fill="#4d4d4d" fill-rule="evenodd" stroke="none"/>
      <path d="M-21.75 -37.4 L-21.4 -36.5 -24.15 -35.0 -21.75 -37.4" fill="#717171" fill-rule="evenodd" stroke="none"/>
      <path d="M-21.25 -36.25 L-21.0 -36.15 -20.9 -35.75 -20.9 -35.65 -20.65 -34.9 -21.4 -30.9 -23.65 -32.25 -21.25 -36.25" fill="#7c7c7c" fill-rule="evenodd" stroke="none"/>
      <path d="M-20.65 -34.9 L-20.15 -34.4 -19.15 -33.9 -18.75 -30.65 -21.4 -30.9 -20.65 -34.9" fill="#4c4c4c" fill-rule="evenodd" stroke="none"/>
      <path d="M-18.25 -33.9 L-17.5 -31.4 -17.75 -30.75 -18.75 -30.65 -19.15 -33.9 -18.25 -33.9" fill="#2e2e2e" fill-rule="evenodd" stroke="none"/>
      <path d="M28.75 -32.25 L29.1 -32.25 35.75 -24.65 31.1 -28.4 30.25 -29.15 27.75 -30.4 27.5 -32.0 28.75 -32.25 M11.35 -12.9 L12.5 -12.9 13.1 -10.25 16.35 1.6 17.5 6.1 16.25 6.25 11.25 6.5 Q10.35 -2.15 11.6 -3.0 L10.85 -3.4 10.85 -6.65 11.5 -6.4 11.5 -7.9 11.1 -8.25 11.1 -6.75 10.75 -6.9 10.6 -12.75 11.1 -10.5 11.35 -10.4 11.35 -12.9" fill="#727272" fill-rule="evenodd" stroke="none"/>
      <path d="M35.75 -24.65 L42.1 -16.9 36.5 -21.4 36.5 -21.9 35.1 -23.0 31.1 -28.4 35.75 -24.65" fill="#4b4b4b" fill-rule="evenodd" stroke="none"/>
      <path d="M27.85 -29.25 L27.75 -30.4 30.25 -29.15 27.85 -29.25" fill="#767676" fill-rule="evenodd" stroke="none"/>
      <path d="M-27.25 -2.5 Q-30.4 -29.75 -24.5 -32.15 L-22.15 -30.75 -20.65 -30.5 -21.4 -30.4 -21.65 -29.9 -24.4 -22.25 -24.25 -21.5 -25.5 -6.9 -25.25 -5.25 -24.5 -10.9 -24.65 -13.0 -24.25 -13.5 -24.0 -20.65 -23.4 -18.75 -24.65 -4.4 -25.25 -5.25 -25.25 1.0 -27.25 -2.5 M-23.25 -18.25 L-22.75 -17.65 -22.75 -16.9 -23.4 -4.5 -23.75 -3.65 -24.0 -3.5 -23.5 -14.4 -23.0 -16.75 -23.25 -18.25" fill="#353535" fill-rule="evenodd" stroke="none"/>
      <path d="M-15.9 -28.0 L-15.65 -27.65 -18.9 -27.15 -24.4 -22.25 -21.65 -29.9 -21.4 -30.4 -20.65 -30.5 -18.25 -30.4 -17.75 -29.5 -17.5 -29.15 -17.15 -29.4 -15.9 -28.0 M16.35 1.6 L13.1 -10.25 Q25.75 -3.5 27.85 0.5 L28.0 0.75 16.35 1.6 M1.75 2.75 L-1.65 -4.4 -4.65 -12.4 8.75 -12.65 4.25 2.5 1.75 2.75" fill="#3b3b3b" fill-rule="evenodd" stroke="none"/>
      <path d="M-23.9 -1.4 L-24.25 -2.65 -24.0 -3.5 -23.75 -3.65 -23.5 -3.15 -23.9 -1.4 M-20.65 3.0 L-20.9 -2.0 -17.9 -7.75 -17.65 -7.9 -16.75 -6.25 -15.65 -5.25 -13.65 -10.25 -12.15 -12.15 -4.75 -12.4 -4.65 -12.4 -1.65 -4.4 1.75 2.75 -8.15 2.85 -10.25 2.5 -15.65 -5.25 -16.9 1.5 -16.9 3.0 -20.65 3.0" fill="#7e7e7e" fill-rule="evenodd" stroke="none"/>
      <path d="M16.25 6.25 L17.5 6.1 23.85 5.85 32.0 3.0 36.85 1.25 40.25 0.25 36.75 4.35 Q38.85 7.6 38.0 9.1 L38.25 9.5 39.0 10.6 Q38.85 12.25 40.1 14.6 L39.75 17.6 39.85 20.85 28.85 23.35 28.5 23.35 18.75 20.5 Q18.85 17.35 17.85 15.1 L27.85 14.6 27.6 12.85 27.25 12.6 17.25 11.6 17.35 10.75 16.75 10.0 17.25 9.75 16.75 9.5 17.0 9.0 Q16.25 8.85 16.25 6.25" fill="#565656" fill-rule="evenodd" stroke="none"/>
      <path d="M45.25 -1.75 L45.25 -1.4 40.25 0.25 41.35 -2.9 41.85 -4.0 43.25 -7.75 43.35 -7.75 43.6 -7.65 43.85 -7.15 45.25 -1.75" fill="#111710" fill-rule="evenodd" stroke="none"/>
      <path d="M40.1 -11.9 L41.25 -11.0 41.25 -10.65 41.85 -4.0 41.35 -2.9 40.6 -4.15 40.1 -11.9" fill="#040404" fill-rule="evenodd" stroke="none"/>
      <path d="M37.35 -14.9 L37.25 -15.0 37.1 -15.25 37.25 -15.4 40.75 -12.75 42.0 -10.15 41.25 -10.65 41.25 -11.0 40.1 -11.9 39.1 -13.0 38.5 -13.65 38.35 -13.9 37.35 -14.9" fill="#7b7b7b" fill-rule="evenodd" stroke="none"/>
      <path d="M-12.15 -12.15 L-10.5 -14.25 -5.0 -12.65 -4.75 -12.4 -12.15 -12.15" fill="#757575" fill-rule="evenodd" stroke="none"/>
      <path d="M17.5 6.1 L16.35 1.6 28.0 0.75 27.85 0.5 30.1 -5.15 32.0 3.0 23.85 5.85 17.5 6.1 M1.75 2.75 L4.25 2.5 3.0 5.35 1.75 2.75" fill="#6a6a6a" fill-rule="evenodd" stroke="none"/>
      <path d="M8.75 -12.65 L4.35 5.6 3.0 5.35 4.25 2.5 8.75 -12.65" fill="#1e1e1e" fill-rule="evenodd" stroke="none"/>
      <path d="M-9.9 29.1 L-15.75 28.75 -13.65 28.6 -9.9 29.1 M4.35 5.6 L8.75 6.6 11.25 6.5 16.25 6.25 Q16.25 8.85 17.0 9.0 L16.75 9.5 17.25 9.75 16.75 10.0 17.35 10.75 17.25 11.6 8.25 13.5 7.75 13.5 8.0 15.6 17.85 15.1 Q18.85 17.35 18.75 20.5 L8.85 24.35 -4.4 23.0 -5.4 16.85 -5.25 11.25 -6.75 6.25 -10.25 2.5 -8.15 2.85 3.0 5.35 4.35 5.6" fill="#191919" fill-rule="evenodd" stroke="none"/>
      <path d="M45.25 -5.0 L45.25 -1.75 43.85 -7.15 45.25 -5.0 M45.25 2.25 L45.85 3.75 45.35 4.5 45.25 2.25" fill="#090909" fill-rule="evenodd" stroke="none"/>
      <path d="M45.25 -1.4 L45.25 2.25 45.35 4.5 45.25 5.85 38.0 9.1 Q38.85 7.6 36.75 4.35 L40.25 0.25 45.25 -1.4" fill="#494949" fill-rule="evenodd" stroke="none"/>
      <path d="M38.0 9.1 L45.25 5.85 45.0 12.75 38.25 9.5 38.0 9.1" fill="#464646" fill-rule="evenodd" stroke="none"/>
      <path d="M-10.25 2.5 L-16.9 1.5 -15.65 -5.25 -10.25 2.5" fill="#050805" fill-rule="evenodd" stroke="none"/>
      <path d="M16.6 30.6 L5.85 31.1 -3.4 29.75 -3.75 29.6 -4.25 29.6 -5.0 29.5 -5.15 29.5 -12.65 28.25 -12.15 28.1 -16.5 23.0 -16.25 22.5 Q-16.15 16.25 -16.75 15.75 L-16.9 8.5 -5.25 11.25 -5.4 16.85 -4.4 23.0 8.85 24.35 7.75 29.35 18.25 28.85 19.0 29.25 18.35 29.35 18.5 29.85 17.85 29.85 16.6 30.6" fill="#030303" fill-rule="evenodd" stroke="none"/>
      <path d="M45.75 18.0 L45.75 19.75 44.85 22.35 43.6 25.5 40.1 24.35 39.85 20.85 39.75 17.6 40.1 14.6 Q38.85 12.25 39.0 10.6 L38.25 9.5 45.0 12.75 45.35 13.0 Q45.1 17.5 45.75 18.0" fill="#2d2d2d" fill-rule="evenodd" stroke="none"/>
      <path d="M27.25 12.6 L17.75 13.1 17.25 11.6 27.25 12.6" fill="#292929" fill-rule="evenodd" stroke="none"/>
      <path d="M44.5 25.75 L43.1 26.0 43.75 25.75 44.5 25.75" fill="#232323" fill-rule="evenodd" stroke="none"/>
      <path d="M-15.5 -5.0 L-16.15 -2.5 -16.5 -0.25 -16.9 1.5 -16.9 3.0 -16.75 7.75 -16.9 8.5 -19.4 6.85 -19.5 6.85 -20.0 5.85 -20.25 5.5 -20.65 5.25 -20.75 5.0 -20.75 4.85 -20.9 4.75 -20.75 3.6 -20.9 -0.25 -21.0 -1.25 -20.9 -1.9 -20.9 -2.25 -20.75 -2.65 -20.4 -3.0 -20.15 -3.4 -17.75 -8.0 -16.75 -6.4 -15.65 -5.4 -15.65 -5.25 -15.5 -5.0 M-24.25 -20.5 L-24.15 -20.65 -23.4 -18.75 -23.65 -18.65 -23.4 -18.25 -22.75 -16.9 -22.9 -16.75 -22.65 -16.25 -22.65 -15.65 -23.0 -13.65 -22.75 -13.4 -22.9 -12.65 -22.9 -11.75 -23.0 -11.0 -23.0 -10.15 -23.25 -9.9 -23.15 -9.15 -23.15 -8.25 -23.25 -7.75 -23.25 -7.0 -23.4 -4.5 -23.5 -4.0 -23.5 -3.75 -23.9 -3.5 -24.0 -3.4 -23.5 -3.4 -23.5 -3.15 -23.65 -1.65 -23.9 -1.15 -24.0 -1.4 -24.15 -1.5 -24.25 -1.9 -24.25 -2.25 -24.4 -3.0 -24.15 -3.9 -24.4 -5.4 -24.15 -6.0 -24.0 -6.15 -24.0 -6.5 -24.25 -6.65 -24.5 -6.0 -24.4 -5.4 -24.65 -3.65 -25.25 -5.0 -25.25 -6.15 -25.0 -6.5 -25.15 -7.9 -24.9 -8.75 -24.9 -9.4 -24.75 -10.65 -24.9 -11.0 -24.75 -12.4 -24.65 -12.9 -24.65 -13.0 -24.75 -13.0 -24.75 -13.15 -24.5 -13.5 -24.5 -14.4 -24.9 -14.65 -24.65 -15.0 -24.5 -16.25 -24.5 -17.0 -24.25 -17.15 -24.5 -17.4 -24.25 -17.65 -24.4 -18.25 -24.4 -18.65 -24.15 -19.0 -24.25 -20.25 -24.25 -20.5 M-23.5 -17.65 L-23.5 -16.15 -23.4 -18.0 -23.5 -17.65 M-23.5 -16.15 L-23.65 -14.5 -23.4 -14.9 -23.4 -15.75 -23.5 -16.15 M-23.5 -14.4 L-23.65 -14.4 -23.75 -13.75 -24.25 -12.25 -24.15 -12.15 -24.15 -11.25 -24.0 -10.75 -24.15 -7.4 -23.9 -8.0 -23.9 -9.9 -23.75 -10.65 -23.9 -10.75 -23.65 -11.9 -23.65 -13.75 -23.5 -14.4" fill="#000000" fill-opacity="0.50980395" fill-rule="evenodd" stroke="none"/>
      <path d="M31.0 -13.9 L36.25 -16.15 36.5 -16.0 36.5 -15.9 37.1 -10.4 36.85 1.35 31.85 3.0 30.1 -5.15 31.0 -13.9" fill="#262626" fill-opacity="0.50980395" fill-rule="evenodd" stroke="none"/>
      <path d="M13.6 -13.0 L22.25 -13.15 30.25 -13.65 30.5 -13.75 30.5 -13.9 31.0 -13.9 30.1 -5.15 31.85 3.0 31.85 3.1 23.85 5.85 17.5 6.1 17.5 6.25 16.25 6.35 15.0 -2.75 14.6 -4.65 14.5 -4.9 14.6 -5.4 14.25 -8.4 14.25 -8.5 14.1 -9.75 14.0 -10.0 13.85 -12.5 13.6 -12.65 13.6 -13.0 M36.5 -15.9 L37.1 -15.4 37.35 -15.4 39.85 -13.4 41.5 -11.5 41.5 -11.4 41.75 -11.15 41.75 -11.0 41.85 -10.75 42.1 -10.5 42.1 -10.25 42.0 -10.15 42.35 -9.5 43.25 -8.4 43.25 -7.75 43.25 -7.25 42.6 -5.65 42.35 -5.25 42.25 -5.25 42.1 -4.4 41.85 -4.0 41.85 -3.75 41.6 -3.4 41.35 -3.25 41.25 -3.15 41.35 -2.9 41.35 -2.65 41.25 -2.25 41.1 -2.0 41.0 -1.65 40.85 -1.4 40.75 -1.0 40.6 -0.75 40.5 -0.4 40.35 -0.15 40.25 0.25 36.85 1.35 37.1 -10.4 36.5 -15.9 M39.0 -13.0 L39.0 -11.65 39.25 -9.4 39.35 -9.15 39.35 -7.25 39.6 -5.5 39.75 -5.15 39.75 -4.9 40.0 -4.65 40.6 -3.9 40.25 -11.25 40.1 -11.9 39.1 -13.0 39.0 -13.0 M38.35 -13.9 L37.1 -15.15 37.25 -12.15 37.35 -12.0 37.35 -10.5 37.6 -8.25 38.85 -6.4 39.0 -7.15 38.75 -11.5 38.5 -13.5 38.35 -13.9" fill="#131313" fill-opacity="0.50980395" fill-rule="evenodd" stroke="none"/>
      <path d="M-15.65 -5.4 L-15.25 -6.0 -13.65 -10.25 -13.4 -10.5 -13.25 -10.75 -12.4 -11.9 -12.15 -12.15 -12.0 -12.4 -10.65 -14.15 -10.5 -14.25 -5.0 -12.65 -4.75 -12.5 -4.65 -12.5 -3.5 -12.25 5.0 -12.4 5.0 -12.5 10.6 -12.75 11.35 -12.9 12.5 -12.9 13.1 -13.0 13.25 -12.25 13.5 -10.15 13.35 -9.9 13.6 -8.65 13.75 -8.25 13.75 -7.9 14.0 -6.4 14.1 -6.0 14.1 -5.9 15.85 6.25 8.25 6.6 3.25 5.5 3.0 5.35 -8.25 2.85 -10.0 2.6 -10.15 2.6 -10.5 2.35 -15.5 -5.0 -15.65 -5.25 -15.65 -5.4" fill="#050505" fill-opacity="0.50980395" fill-rule="evenodd" stroke="none"/>
      <path d="M13.1 -13.0 L13.6 -13.0 13.6 -12.65 13.6 -12.4 13.25 -12.25 13.1 -13.0" fill="#0e0e0e" fill-rule="evenodd" stroke="none"/>
      <path d="M16.25 6.35 L15.85 6.25 14.1 -5.9 14.1 -6.0 14.0 -6.4 13.75 -7.9 13.75 -8.25 13.6 -8.65 13.35 -9.9 13.5 -10.15 13.25 -12.25 13.6 -12.4 13.6 -12.65 13.85 -12.5 14.0 -10.0 14.1 -9.75 14.25 -8.5 14.25 -8.4 14.6 -5.4 14.5 -4.9 14.6 -4.65 15.0 -2.75 16.25 6.35" fill="#151515" fill-rule="evenodd" stroke="none"/>
      <path d="M38.35 -13.9 L38.5 -13.5 38.75 -11.5 39.0 -7.15 38.85 -6.4 37.6 -8.25 37.35 -10.5 37.35 -12.0 37.25 -12.15 37.1 -15.15 38.35 -13.9 M39.0 -13.0 L39.1 -13.0 40.1 -11.9 40.25 -11.25 40.6 -3.9 40.0 -4.65 39.75 -4.9 39.75 -5.15 39.6 -5.5 39.35 -7.25 39.35 -9.15 39.25 -9.4 39.0 -11.65 39.0 -13.0" fill="#131313" fill-rule="evenodd" stroke="none"/>
      <path d="M43.25 -7.75 L43.35 -7.9 43.5 -7.9 43.6 -7.65 43.25 -7.75 M45.0 -3.0 L44.75 -3.5 43.85 -7.15 45.1 -5.4 45.1 -4.5 45.0 -3.65 45.0 -3.0 M45.6 3.25 L45.75 4.25 45.35 4.5 45.35 3.1 45.6 3.25" fill="#080808" fill-opacity="0.50980395" fill-rule="evenodd" stroke="none"/>
      <path d="M45.0 -3.0 L45.0 -3.65 45.1 -4.5 45.85 -3.25 45.6 3.25 45.35 3.1 45.25 2.5 45.35 -1.0 45.25 -1.25 45.0 -3.0" fill="#080808" fill-rule="evenodd" stroke="none"/>
    </g>
  </defs>
</svg>
