<?xml version="1.0" encoding="UTF-8" standalone="no"?>
<svg xmlns:xlink="http://www.w3.org/1999/xlink" height="77.4px" width="126.15px" xmlns="http://www.w3.org/2000/svg">
  <g transform="matrix(1.0, 0.0, 0.0, 1.0, 48.15, 38.0)">
    <use height="181.4" transform="matrix(0.1734, -0.1734, 0.1858, 0.1858, -40.9615, 1.13)" width="225.5" xlink:href="#sprite0"/>
    <use height="181.4" transform="matrix(0.0, 0.1642, -0.176, 0.0, 18.7583, -18.8966)" width="225.5" xlink:href="#sprite5"/>
    <use height="67.2" transform="matrix(1.0, 0.0, 0.0, 1.0, -33.5, -34.4)" width="111.5" xlink:href="#sprite10"/>
    <use height="63.55" transform="matrix(1.0, 0.0, 0.0, 1.0, -48.15, -24.15)" width="89.5" xlink:href="#sprite12"/>
  </g>
  <defs>
    <g id="sprite0" transform="matrix(1.0, 0.0, 0.0, 1.0, 300.5, 216.0)">
      <use height="89.0" transform="matrix(1.0, 0.0, 0.0, 1.0, -167.15, -135.0)" width="42.35" xlink:href="#sprite1"/>
      <use height="51.55" transform="matrix(1.0, 0.0, 0.0, 1.0, -231.55, -123.4)" width="106.75" xlink:href="#sprite2"/>
      <use height="77.75" transform="matrix(1.0, 0.0, 0.0, 1.0, -233.4, -162.5)" width="102.4" xlink:href="#sprite3"/>
      <use height="114.2" transform="matrix(1.0, 0.0, 0.0, 1.0, -225.2, -171.5)" width="52.5" xlink:href="#sprite4"/>
    </g>
    <g id="sprite1" transform="matrix(1.0, 0.0, 0.0, 1.0, 21.2, 44.5)">
      <use height="89.0" transform="matrix(1.0, 0.0, 0.0, 1.0, -21.2, -44.5)" width="42.35" xlink:href="#shape0"/>
    </g>
    <g id="shape0" transform="matrix(1.0, 0.0, 0.0, 1.0, 21.2, 44.5)">
      <path d="M19.25 -44.05 L20.95 -44.5 Q20.25 -39.15 14.1 -38.3 11.95 -38.0 9.9 -36.55 5.95 -33.7 3.8 -31.65 2.95 -30.8 2.45 -29.95 L2.3 -29.7 Q0.75 -26.8 3.45 -24.0 3.95 -23.5 3.65 -22.6 L3.15 -21.4 Q-0.4 -14.05 5.9 -10.4 7.45 -9.5 9.1 -8.95 L11.9 -8.3 Q15.25 -7.85 17.6 -5.05 L20.45 -2.0 Q20.95 -1.5 21.05 -0.5 21.9 6.95 16.7 10.05 L14.95 10.5 Q8.7 10.45 3.6 7.4 2.95 7.0 3.15 5.55 3.85 0.3 1.65 -2.95 0.95 -4.0 1.25 -5.45 2.0 -9.05 -1.05 -8.7 L-4.75 -7.8 Q-6.55 -7.0 -7.85 -5.35 -10.1 -2.5 -7.75 0.2 L-6.15 1.65 Q-3.8 3.25 -3.7 7.5 -3.65 11.4 -5.35 14.3 L-6.45 16.7 Q-7.05 18.5 -7.05 20.5 -7.05 29.5 -7.95 38.4 -8.05 39.5 -8.9 40.6 L-12.05 44.5 Q-14.75 40.35 -16.65 36.3 -17.05 35.5 -17.05 34.5 L-16.6 27.55 Q-16.55 27.0 -16.0 26.6 -9.0 21.4 -10.15 11.5 -10.65 7.2 -11.7 4.35 L-12.35 2.6 Q-13.0 0.7 -12.75 -1.45 -12.35 -4.7 -14.15 -5.1 L-18.05 -5.7 Q-19.85 -5.95 -20.75 -8.25 L-21.2 -9.1 Q-18.95 -13.2 -19.05 -18.5 -19.05 -19.0 -18.0 -19.1 -15.85 -19.3 -16.05 -21.5 -16.2 -23.15 -14.0 -23.0 -13.55 -23.0 -13.0 -23.4 -11.9 -24.2 -11.05 -26.5 -11.75 -21.55 -7.05 -21.8 -4.25 -21.95 -2.85 -24.4 -1.4 -26.9 0.4 -28.25 1.25 -28.85 1.55 -29.9 L1.7 -30.55 2.4 -33.35 Q3.2 -35.9 4.85 -36.75 L14.9 -41.65 Q17.1 -42.65 19.25 -44.05" fill="#4b0101" fill-rule="evenodd" stroke="none"/>
    </g>
    <g id="sprite2" transform="matrix(1.0, 0.0, 0.0, 1.0, 0.0, 0.0)">
      <use height="51.55" transform="matrix(1.0, 0.0, 0.0, 1.0, 0.0, 0.0)" width="106.75" xlink:href="#shape1"/>
    </g>
    <g id="shape1" transform="matrix(1.0, 0.0, 0.0, 1.0, 0.0, 0.0)">
      <path d="M88.55 31.15 Q92.15 30.5 95.7 29.3 100.9 27.55 105.5 30.15 L104.0 31.65 Q102.75 32.9 100.95 33.8 L98.6 34.65 Q95.1 35.35 97.65 38.5 98.75 39.9 100.1 40.9 L101.6 41.75 Q102.85 42.3 104.75 42.25 106.95 42.2 106.75 44.4 L104.7 45.1 Q100.65 45.95 98.9 48.5 L97.45 49.95 Q94.05 52.2 89.75 51.3 L71.75 47.3 71.05 47.15 Q65.0 39.1 62.8 37.4 56.3 34.25 42.4 42.4 40.9 43.25 39.55 44.2 36.4 43.4 33.55 41.75 L29.05 38.95 Q28.25 38.4 27.6 38.25 L18.8 37.0 17.7 36.95 Q15.95 39.9 11.8 40.15 L3.85 40.85 Q0.5 41.2 0.0 38.55 3.55 32.4 9.1 29.3 L9.3 29.2 10.6 29.8 Q11.8 30.4 12.85 30.55 20.95 31.75 28.7 30.15 29.75 29.9 30.2 29.1 32.5 24.9 31.9 19.4 31.75 17.9 32.35 16.65 34.1 12.9 33.8 8.4 33.75 7.4 34.15 6.6 L35.45 3.3 36.15 1.6 Q36.75 0.4 37.95 0.1 38.75 -0.1 39.8 0.1 44.3 1.0 47.5 4.15 46.75 4.9 46.6 5.55 45.75 9.9 46.1 14.35 46.35 17.35 44.5 19.15 L43.05 20.65 37.55 26.15 Q36.75 26.9 36.45 27.65 34.2 33.4 39.7 32.25 L42.75 31.85 Q52.25 31.4 61.75 31.4 L67.5 31.45 68.1 32.9 Q71.9 41.4 78.55 41.4 84.45 41.4 87.0 36.65 88.45 34.0 88.55 31.15" fill="#d20202" fill-rule="evenodd" stroke="none"/>
    </g>
    <g id="sprite3" transform="matrix(1.0, 0.0, 0.0, 1.0, 0.0, 0.0)">
      <use height="77.75" transform="matrix(1.0, 0.0, 0.0, 1.0, 0.0, 0.0)" width="102.4" xlink:href="#shape2"/>
    </g>
    <g id="shape2" transform="matrix(1.0, 0.0, 0.0, 1.0, 0.0, 0.0)">
      <path d="M81.55 29.4 Q82.4 31.0 82.25 32.4 82.05 34.65 79.35 35.05 L74.35 34.75 Q73.4 34.5 72.7 34.05 L71.1 32.85 Q69.2 31.3 66.5 31.05 61.0 30.55 59.45 33.5 58.3 35.65 56.2 37.15 51.45 40.55 48.55 45.4 47.85 44.85 47.8 43.5 47.5 37.15 51.45 34.5 51.45 33.5 51.15 33.4 48.45 32.5 45.45 32.5 L36.5 32.95 35.4 33.1 Q27.3 34.25 20.45 37.5 23.9 36.85 26.35 38.65 27.45 39.5 28.6 39.7 30.35 40.0 31.4 41.5 36.35 48.65 29.5 54.55 28.45 55.5 28.05 56.7 26.7 60.4 26.05 64.45 L25.85 65.55 Q25.45 68.0 25.95 70.4 26.75 74.45 28.45 77.5 22.0 78.95 23.2 72.45 24.15 67.05 24.05 61.5 L23.55 54.5 23.25 53.45 Q18.95 52.5 14.45 52.5 L12.6 52.15 Q10.95 51.5 9.3 51.0 4.4 49.5 0.7 46.2 -0.05 45.5 0.0 44.55 0.65 30.6 15.45 29.3 18.95 29.0 22.25 27.9 L27.65 26.1 31.35 25.95 35.45 26.3 Q43.4 25.7 51.45 25.95 56.7 26.15 61.3 24.2 62.95 23.5 64.45 23.5 67.85 23.45 67.4 20.5 66.8 16.7 70.35 15.4 71.4 15.0 71.9 14.2 74.35 10.45 78.45 8.65 L98.35 0.4 100.4 0.0 Q101.4 0.0 101.6 0.7 102.4 4.0 102.4 7.5 102.4 9.0 101.65 9.75 99.75 11.65 97.25 13.25 L88.55 18.75 Q84.45 21.25 79.4 21.7 74.9 22.1 72.4 24.5 78.7 24.15 81.55 29.4" fill="#540101" fill-rule="evenodd" stroke="none"/>
    </g>
    <g id="sprite4" transform="matrix(1.0, 0.0, 0.0, 1.0, 0.0, 0.0)">
      <use height="114.2" transform="matrix(1.0, 0.0, 0.0, 1.0, 0.0, 0.0)" width="52.5" xlink:href="#shape3"/>
    </g>
    <g id="shape3" transform="matrix(1.0, 0.0, 0.0, 1.0, 0.0, 0.0)">
      <path d="M43.05 7.0 L42.9 24.6 Q38.85 29.35 38.85 35.35 L38.95 37.9 Q39.25 40.85 40.35 43.25 41.45 45.7 43.15 47.4 L43.75 53.05 Q44.05 55.25 46.25 56.65 48.8 58.25 50.1 60.25 48.85 62.35 48.85 65.0 48.85 68.05 50.4 70.3 51.1 71.35 52.15 72.15 52.55 78.9 52.5 86.0 52.45 89.9 50.7 92.8 47.7 97.8 45.7 102.85 45.05 104.5 44.7 106.15 44.05 109.0 43.65 111.95 L43.35 113.1 42.85 114.05 Q37.9 115.15 38.95 109.0 40.7 98.8 44.2 88.05 L44.7 85.95 Q45.8 77.2 44.25 68.95 L43.65 67.2 41.85 62.75 Q39.6 55.4 34.4 50.6 34.55 49.0 33.75 48.7 L31.1 47.85 30.15 47.6 28.95 47.35 26.1 46.8 23.8 46.6 23.45 46.3 Q20.35 43.6 15.95 43.35 11.5 43.15 8.4 45.6 5.8 47.65 5.2 51.1 L2.15 50.75 Q0.6 50.5 0.35 49.65 -1.1 44.15 3.2 42.15 L5.95 40.75 Q8.1 39.55 10.15 39.45 16.2 39.1 22.1 39.75 L34.05 40.9 Q35.55 41.0 36.3 40.25 37.05 39.5 37.05 38.0 L37.25 20.15 Q37.85 18.4 37.85 16.75 37.85 14.8 37.4 13.15 L37.55 8.0 37.75 6.9 Q39.7 1.35 44.05 0.0 43.05 3.3 43.05 7.0" fill="#540101" fill-rule="evenodd" stroke="none"/>
    </g>
    <g id="sprite5" transform="matrix(1.0, 0.0, 0.0, 1.0, 300.5, 216.0)">
      <use height="89.0" transform="matrix(1.0, 0.0, 0.0, 1.0, -167.15, -135.0)" width="42.35" xlink:href="#sprite6"/>
      <use height="51.55" transform="matrix(1.0, 0.0, 0.0, 1.0, -231.55, -123.4)" width="106.75" xlink:href="#sprite7"/>
      <use height="77.75" transform="matrix(1.0, 0.0, 0.0, 1.0, -233.4, -162.5)" width="102.4" xlink:href="#sprite8"/>
      <use height="114.2" transform="matrix(1.0, 0.0, 0.0, 1.0, -225.2, -171.5)" width="52.5" xlink:href="#sprite9"/>
    </g>
    <g id="sprite6" transform="matrix(1.0, 0.0, 0.0, 1.0, 0.0, 0.0)">
      <use height="89.0" transform="matrix(1.0, 0.0, 0.0, 1.0, 0.0, 0.0)" width="42.35" xlink:href="#shape4"/>
    </g>
    <g id="shape4" transform="matrix(1.0, 0.0, 0.0, 1.0, 0.0, 0.0)">
      <path d="M2.15 26.0 Q2.15 25.5 3.2 25.4 5.35 25.2 5.15 23.0 5.0 21.35 7.2 21.5 7.65 21.5 8.2 21.1 9.3 20.3 10.15 18.0 9.45 22.95 14.15 22.7 16.95 22.55 18.35 20.1 19.8 17.6 21.6 16.25 22.45 15.65 22.75 14.6 L22.9 13.95 23.6 11.15 Q24.4 8.6 26.05 7.75 31.05 5.2 36.1 2.85 38.3 1.85 40.45 0.45 41.15 0.0 42.15 0.0 41.45 5.35 35.3 6.2 33.15 6.5 31.1 7.95 27.15 10.8 25.0 12.85 24.15 13.7 23.65 14.55 L23.5 14.8 Q21.95 17.7 24.65 20.5 25.15 21.0 24.85 21.9 L24.35 23.1 Q20.8 30.45 27.1 34.1 28.65 35.0 30.3 35.55 L33.1 36.2 Q36.45 36.65 38.8 39.45 L41.65 42.5 Q42.15 43.0 42.25 44.0 43.1 51.45 37.9 54.55 L36.15 55.0 Q29.9 54.95 24.8 51.9 24.15 51.5 24.35 50.05 25.05 44.8 22.85 41.55 22.15 40.5 22.45 39.05 23.2 35.45 20.15 35.8 18.15 36.0 16.45 36.7 14.65 37.5 13.35 39.15 11.1 42.0 13.45 44.7 L15.05 46.15 Q17.4 47.75 17.5 52.0 17.55 55.9 15.85 58.8 15.15 60.0 14.75 61.2 14.15 63.0 14.15 65.0 14.15 74.0 13.25 82.9 13.15 84.0 12.3 85.1 L9.15 89.0 Q6.45 84.85 4.55 80.8 4.15 80.0 4.15 79.0 4.15 75.5 4.6 72.05 4.65 71.5 5.2 71.1 12.2 65.9 11.05 56.0 10.55 51.7 9.5 48.85 L8.85 47.1 Q8.2 45.2 8.45 43.05 8.85 39.8 7.05 39.4 L3.15 38.8 Q1.35 38.55 0.45 36.25 L0.0 35.4 Q2.25 31.3 2.15 26.0" fill="#990000" fill-opacity="0.41960785" fill-rule="evenodd" stroke="none"/>
    </g>
    <g id="sprite7" transform="matrix(1.0, 0.0, 0.0, 1.0, 0.0, 0.0)">
      <use height="51.55" transform="matrix(1.0, 0.0, 0.0, 1.0, 0.0, 0.0)" width="106.75" xlink:href="#shape5"/>
    </g>
    <g id="shape5" transform="matrix(1.0, 0.0, 0.0, 1.0, 0.0, 0.0)">
      <path d="M39.8 0.1 Q44.3 1.0 47.5 4.15 46.75 4.9 46.6 5.55 45.75 9.9 46.1 14.35 46.35 17.35 44.5 19.15 L43.05 20.65 37.55 26.15 Q36.75 26.9 36.45 27.65 34.2 33.4 39.7 32.25 L42.75 31.85 Q52.25 31.4 61.75 31.4 L67.5 31.45 68.1 32.9 Q71.9 41.4 78.55 41.4 84.45 41.4 87.0 36.65 88.45 34.0 88.55 31.15 92.15 30.5 95.7 29.3 100.9 27.55 105.5 30.15 L104.0 31.65 Q102.75 32.9 100.95 33.8 L98.6 34.65 Q95.1 35.35 97.65 38.5 98.75 39.9 100.1 40.9 L101.6 41.75 Q102.85 42.3 104.75 42.25 106.95 42.2 106.75 44.4 L104.7 45.1 Q100.65 45.95 98.9 48.5 L97.45 49.95 Q94.05 52.2 89.75 51.3 L71.75 47.3 71.05 47.15 Q65.0 39.1 62.8 37.4 56.3 34.25 42.4 42.4 40.9 43.25 39.55 44.2 36.4 43.4 33.55 41.75 L29.05 38.95 Q28.25 38.4 27.6 38.25 L18.8 37.0 17.7 36.95 Q15.95 39.9 11.8 40.15 L3.85 40.85 Q0.5 41.2 0.0 38.55 3.55 32.4 9.1 29.3 L9.3 29.2 10.6 29.8 Q11.8 30.4 12.85 30.55 20.95 31.75 28.7 30.15 29.75 29.9 30.2 29.1 32.5 24.9 31.9 19.4 31.75 17.9 32.35 16.65 34.1 12.9 33.8 8.4 33.75 7.4 34.15 6.6 L35.45 3.3 36.15 1.6 Q36.75 0.4 37.95 0.1 38.75 -0.1 39.8 0.1" fill="#990000" fill-rule="evenodd" stroke="none"/>
    </g>
    <g id="sprite8" transform="matrix(1.0, 0.0, 0.0, 1.0, 0.0, 0.0)">
      <use height="77.75" transform="matrix(1.0, 0.0, 0.0, 1.0, 0.0, 0.0)" width="102.4" xlink:href="#shape6"/>
    </g>
    <g id="shape6" transform="matrix(1.0, 0.0, 0.0, 1.0, 0.0, 0.0)">
      <path d="M67.4 20.5 Q66.8 16.7 70.35 15.4 71.4 15.0 71.9 14.2 74.35 10.45 78.45 8.65 L98.35 0.4 100.4 0.0 Q101.4 0.0 101.6 0.7 102.4 4.0 102.4 7.5 102.4 9.0 101.65 9.75 99.75 11.65 97.25 13.25 L88.55 18.75 Q84.45 21.25 79.4 21.7 74.9 22.1 72.4 24.5 78.7 24.15 81.55 29.4 82.4 31.0 82.25 32.4 82.05 34.65 79.35 35.05 L74.35 34.75 Q73.4 34.5 72.7 34.05 L71.1 32.85 Q69.2 31.3 66.5 31.05 61.0 30.55 59.45 33.5 58.3 35.65 56.2 37.15 51.45 40.55 48.55 45.4 47.85 44.85 47.8 43.5 47.5 37.15 51.45 34.5 51.45 33.5 51.15 33.4 48.45 32.5 45.45 32.5 L36.5 32.95 35.4 33.1 Q27.3 34.25 20.45 37.5 23.9 36.85 26.35 38.65 27.45 39.5 28.6 39.7 30.35 40.0 31.4 41.5 36.35 48.65 29.5 54.55 28.45 55.5 28.05 56.7 26.7 60.4 26.05 64.45 L25.85 65.55 Q25.45 68.0 25.95 70.4 26.75 74.45 28.45 77.5 22.0 78.95 23.2 72.45 24.15 67.05 24.05 61.5 L23.55 54.5 23.25 53.45 Q18.95 52.5 14.45 52.5 L12.6 52.15 Q10.95 51.5 9.3 51.0 4.4 49.5 0.7 46.2 -0.05 45.5 0.0 44.55 0.65 30.6 15.45 29.3 18.95 29.0 22.25 27.9 L27.65 26.1 31.35 25.95 35.45 26.3 Q43.4 25.7 51.45 25.95 56.7 26.15 61.3 24.2 62.95 23.5 64.45 23.5 67.85 23.45 67.4 20.5" fill="#990000" fill-opacity="0.41960785" fill-rule="evenodd" stroke="none"/>
    </g>
    <g id="sprite9" transform="matrix(1.0, 0.0, 0.0, 1.0, 0.0, 0.0)">
      <use height="114.2" transform="matrix(1.0, 0.0, 0.0, 1.0, 0.0, 0.0)" width="52.5" xlink:href="#shape7"/>
    </g>
    <g id="shape7" transform="matrix(1.0, 0.0, 0.0, 1.0, 0.0, 0.0)">
      <path d="M43.05 7.0 L42.9 24.6 Q38.85 29.35 38.85 35.35 L38.95 37.9 Q39.25 40.85 40.35 43.25 41.45 45.7 43.15 47.4 L43.75 53.05 Q44.05 55.25 46.25 56.65 48.8 58.25 50.1 60.25 48.85 62.35 48.85 65.0 48.85 68.05 50.4 70.3 51.1 71.35 52.15 72.15 52.55 78.9 52.5 86.0 52.45 89.9 50.7 92.8 47.7 97.8 45.7 102.85 45.05 104.5 44.7 106.15 44.05 109.0 43.65 111.95 L43.35 113.1 42.85 114.05 Q37.9 115.15 38.95 109.0 40.7 98.8 44.2 88.05 L44.7 85.95 Q45.8 77.2 44.25 68.95 L43.65 67.2 41.85 62.75 Q39.6 55.4 34.4 50.6 34.55 49.0 33.75 48.7 L31.1 47.85 30.15 47.6 28.95 47.35 26.1 46.8 23.8 46.6 23.45 46.3 Q20.35 43.6 15.95 43.35 11.5 43.15 8.4 45.6 5.8 47.65 5.2 51.1 L2.15 50.75 Q0.6 50.5 0.35 49.65 -1.1 44.15 3.2 42.15 L5.95 40.75 Q8.1 39.55 10.15 39.45 16.2 39.1 22.1 39.75 L34.05 40.9 Q35.55 41.0 36.3 40.25 37.05 39.5 37.05 38.0 L37.25 20.15 Q37.85 18.4 37.85 16.75 37.85 14.8 37.4 13.15 L37.55 8.0 37.75 6.9 Q39.7 1.35 44.05 0.0 43.05 3.3 43.05 7.0" fill="#990000" fill-rule="evenodd" stroke="none"/>
    </g>
    <g id="sprite10" transform="matrix(1.0, 0.0, 0.0, 1.0, 36.6, 30.35)">
      <use height="40.7" transform="matrix(0.4926, 0.0, 0.0, 0.6183, -17.981, -12.5827)" width="73.0" xlink:href="#sprite11"/>
    </g>
    <g id="sprite11" transform="matrix(1.0, 0.0, 0.0, 1.0, 36.5, 20.35)">
      <use height="40.7" transform="matrix(1.0, 0.0, 0.0, 1.0, -36.5, -20.35)" width="73.0" xlink:href="#shape8"/>
    </g>
    <g id="shape8" transform="matrix(1.0, 0.0, 0.0, 1.0, 36.5, 20.35)">
      <path d="M2.0 -19.45 L1.5 -19.8 2.3 -20.35 2.5 -19.8 2.0 -19.45 M7.1 -7.85 Q6.7 -8.45 9.75 -8.3 9.9 -8.45 9.9 -7.8 L9.85 -7.45 9.75 -7.3 7.3 -7.3 7.2 -7.4 7.1 -7.85 M10.15 0.4 L10.15 -0.1 9.65 -0.6 Q9.15 -0.35 9.15 1.3 L9.15 1.35 5.15 4.35 5.4 4.35 5.55 4.8 5.25 5.1 4.8 5.3 4.3 4.95 4.1 5.05 2.5 5.05 2.25 4.3 Q8.75 2.05 10.0 -1.95 10.7 -4.15 11.0 -8.05 11.4 -7.65 11.5 -6.7 L11.5 -5.05 Q11.5 -1.55 10.65 -0.25 L10.15 0.4 M36.0 0.8 L36.5 1.3 36.5 1.55 36.0 1.8 35.5 1.55 Q35.5 1.2 36.0 0.8 M19.4 11.45 L18.9 11.95 Q16.05 9.5 15.0 6.6 16.35 6.85 17.5 8.4 L19.4 11.45 M-23.6 -9.45 Q-23.5 -9.7 -23.5 -9.05 L-23.6 -8.7 Q-23.8 -8.35 -24.25 -8.3 L-24.75 -8.6 -24.3 -9.4 -23.6 -9.45 M-24.0 -10.3 L-24.5 -10.6 Q-24.2 -11.0 -23.6 -11.2 L-23.5 -10.8 Q-23.5 -10.5 -24.0 -10.3 M-3.1 -11.75 L-3.0 -11.3 Q-3.0 -10.9 -4.05 -9.8 -5.05 -8.8 -5.2 -8.8 L-5.65 -8.95 -5.7 -8.9 -5.8 -9.35 Q-5.8 -10.0 -5.1 -10.75 L-3.5 -11.8 -3.1 -11.75 M-9.85 -5.6 L-9.65 -5.35 -10.15 -4.85 -10.55 -4.9 -10.65 -5.35 -10.6 -5.55 -10.55 -5.4 -10.15 -5.35 -9.85 -5.6 M-14.25 1.55 Q-13.5 2.55 -13.5 3.6 L-13.55 4.05 -13.55 4.2 -14.0 4.3 Q-14.6 4.3 -14.75 2.6 -14.75 1.85 -14.25 1.55 M-14.5 15.9 L-14.0 16.4 Q-14.1 16.75 -14.5 16.9 L-15.0 16.6 Q-15.0 16.15 -14.5 15.9" fill="#870101" fill-rule="evenodd" stroke="none"/>
      <path d="M3.25 -11.15 L3.25 -10.8 Q3.25 -10.4 1.3 -7.45 L-0.7 -4.6 -0.75 -4.45 Q-0.8 -4.25 -1.15 -4.1 L-1.55 -4.2 -1.65 -4.7 -1.5 -5.25 -1.35 -5.3 -1.25 -5.5 Q0.7 -10.2 2.4 -11.0 L2.25 -11.1 3.1 -11.7 3.25 -11.3 3.25 -11.15 M4.85 -4.1 L5.05 -3.6 4.75 -3.3 4.35 -3.1 3.85 -3.45 Q4.4 -4.15 4.85 -4.1 M26.05 12.45 L25.55 12.95 25.05 12.6 25.05 12.05 25.85 12.05 26.05 12.45 M1.6 7.95 L0.3 7.75 -0.75 7.4 -0.75 6.95 -1.1 6.2 -1.15 5.0 Q-1.15 2.9 -0.65 2.8 -0.15 3.25 -0.15 4.85 L-0.25 6.8 -0.35 6.85 1.1 6.75 Q1.75 6.8 2.75 7.45 L2.25 7.85 1.6 7.95 M-15.25 -13.5 L-15.75 -13.85 -15.75 -14.45 -14.9 -14.45 -14.75 -14.0 -14.75 -13.85 -15.25 -13.5 M-8.2 3.4 Q-8.05 3.45 -8.05 3.85 -8.05 4.4 -9.15 4.8 L-9.65 4.45 -9.05 3.7 -8.55 3.3 -8.2 3.4 M-8.3 13.6 Q-6.95 12.45 -3.75 11.05 -0.55 9.65 0.0 9.2 L0.5 9.7 Q-0.35 11.15 -3.55 12.6 -6.4 13.9 -7.75 13.9 L-8.15 13.85 -8.3 13.6 M-8.05 9.95 L-7.65 10.6 -7.55 11.2 -8.05 11.45 -8.4 11.3 -8.55 10.8 Q-8.55 10.15 -8.05 9.95" fill="#2b0000" fill-rule="evenodd" stroke="none"/>
      <path d="M9.15 1.35 L9.15 1.3 Q9.15 -0.35 9.65 -0.6 L10.15 -0.1 10.15 0.4 10.15 2.8 9.65 3.05 Q9.15 2.8 9.15 1.35 M-16.55 -11.4 L-16.8 -11.6 Q-17.0 -12.4 -16.35 -12.45 -15.7 -12.5 -15.25 -11.8 -15.25 -11.3 -16.05 -11.3 L-16.55 -11.4 M-14.05 -9.45 L-14.0 -8.3 -14.05 -8.15 -14.5 -8.05 -15.1 -8.25 -15.75 -8.85 -15.75 -9.45 -14.05 -9.45 M-12.25 -4.35 L-12.6 -4.45 -12.75 -4.95 -12.6 -5.5 -12.25 -5.6 -11.85 -5.5 -11.75 -5.0 -11.75 -4.7 -12.25 -4.35 M-9.85 -5.6 L-10.15 -5.35 -10.55 -5.4 -10.6 -5.55 -10.65 -5.85 -10.35 -6.3 -9.85 -6.2 -9.65 -5.85 -9.85 -5.6 M-14.6 0.3 L-13.65 0.25 Q-13.5 -0.05 -13.5 0.55 -13.5 1.3 -14.4 1.3 L-14.8 1.25 Q-15.0 1.5 -15.0 0.85 L-14.6 0.3 M-10.4 -1.95 Q-10.5 -2.6 -8.9 -3.6 L-8.5 -3.5 Q-8.35 -3.4 -8.35 -3.0 -8.35 -2.6 -9.1 -2.1 L-9.9 -1.6 -10.4 -1.95 M-5.5 7.45 L-10.95 10.55 Q-14.55 12.55 -15.25 13.2 L-15.6 13.1 -15.75 12.7 Q-15.75 11.5 -12.75 9.8 -10.0 8.2 -6.0 6.95 L-5.5 7.45 M-9.4 16.4 Q-8.9 16.6 -8.9 17.3 L-9.1 18.1 -10.15 18.9 -10.55 18.75 -10.65 18.2 Q-10.65 17.25 -9.4 16.4 M-14.75 19.4 L-23.55 18.3 Q-23.85 19.35 -24.5 19.65 L-24.85 19.6 -25.0 19.1 Q-25.0 17.15 -23.8 15.45 -22.3 13.15 -19.6 13.4 L-19.1 13.9 Q-19.35 14.4 -21.05 14.8 -22.7 15.25 -23.15 16.3 L-23.35 17.35 -20.7 17.65 -14.25 18.4 -14.0 18.9 Q-14.15 19.4 -14.75 19.4" fill="#b10101" fill-rule="evenodd" stroke="none"/>
      <path d="M-35.4 19.9 L-36.0 20.35 -36.35 20.35 -36.5 19.85 Q-36.5 19.45 -36.2 19.45 L-35.6 19.55 -35.4 19.9" fill="#4b0101" fill-rule="evenodd" stroke="none"/>
    </g>
    <g id="sprite12" transform="matrix(1.0, 0.0, 0.0, 1.0, 48.05, 25.15)">
      <use height="40.7" transform="matrix(0.6245, 0.0, 0.0, -0.6245, -22.7947, 12.7088)" width="73.0" xlink:href="#sprite11"/>
    </g>
  </defs>
</svg>
