<?xml version="1.0" encoding="UTF-8" standalone="no"?>
<svg xmlns:xlink="http://www.w3.org/1999/xlink" height="48.85px" width="101.45px" xmlns="http://www.w3.org/2000/svg">
  <g transform="matrix(1.0, 0.0, 0.0, 1.0, 50.65, 24.4)">
    <use height="48.85" transform="matrix(1.0, 0.0, 0.0, 1.0, -50.65, -24.4)" width="101.45" xlink:href="#shape0"/>
  </g>
  <defs>
    <g id="shape0" transform="matrix(1.0, 0.0, 0.0, 1.0, 50.65, 24.4)">
      <path d="M31.2 -24.3 L31.45 -24.05 33.3 -20.7 31.2 -24.3 M33.3 -20.7 L33.85 -19.7 33.55 -19.95 33.3 -20.7 M36.65 -15.15 L37.4 -15.05 38.25 -13.55 37.5 -13.5 37.5 -13.55 37.3 -14.05 37.05 -14.35 36.9 -14.8 36.65 -14.95 36.65 -15.15 M36.1 -15.0 L36.35 -14.8 36.4 -14.75 37.05 -13.5 36.9 -13.55 36.85 -13.5 36.25 -13.55 35.3 -15.4 35.5 -15.35 35.75 -15.35 36.1 -15.0 M41.85 -5.5 L41.6 -5.95 41.95 -5.4 41.85 -5.5 M41.55 -6.15 L41.25 -6.3 41.05 -6.95 41.55 -6.15 M40.25 -8.35 L40.05 -8.45 39.85 -9.0 40.25 -8.35 M21.05 -13.65 L21.8 -13.65 21.5 -13.5 22.0 -13.25 20.35 -13.0 20.1 -12.9 15.55 -13.0 15.5 -13.75 17.75 -13.75 18.2 -13.7 18.6 -13.75 19.05 -13.7 19.45 -13.75 19.85 -13.65 20.45 -13.7 20.65 -13.65 21.05 -13.65 M17.35 -11.15 L17.65 -11.2 17.65 -10.75 17.6 -10.15 13.6 -10.2 13.6 -11.2 17.35 -11.15 M34.1 -5.8 Q38.3 -7.25 39.7 -3.95 40.35 -0.25 38.15 0.6 L39.45 -1.1 Q40.15 -2.4 39.25 -4.15 37.85 -6.35 34.7 -5.0 L34.45 -5.45 34.1 -5.8" fill="#000000" fill-rule="evenodd" stroke="none"/>
      <path d="M31.2 -24.3 L33.3 -20.7 33.55 -19.95 33.85 -19.7 33.9 -19.55 33.9 -19.5 34.3 -18.9 35.05 -17.5 35.15 -17.4 35.2 -17.25 35.35 -17.1 35.4 -16.85 35.4 -16.8 35.0 -17.4 34.75 -16.95 34.5 -16.95 30.55 -23.95 31.0 -24.4 31.2 -24.3" fill="#0e0e0e" fill-rule="evenodd" stroke="none"/>
      <path d="M49.3 1.15 L49.1 1.4 48.5 1.55 47.5 1.6 40.2 1.5 41.0 0.85 49.1 1.0 49.3 1.15" fill="#2c2c2c" fill-rule="evenodd" stroke="none"/>
      <path d="M35.4 -16.85 L35.5 -16.85 35.4 -16.8 35.4 -16.85 M48.6 3.0 L48.3 2.85 48.7 2.75 47.7 2.75 50.0 2.4 50.1 2.3 50.1 2.2 47.5 1.6 48.5 1.55 49.1 1.4 49.3 1.15 Q51.0 1.4 50.6 2.35 L49.7 2.95 48.6 3.0 M29.75 -14.9 L29.95 -14.75 29.8 -13.6 28.5 -13.55 28.55 -13.4 28.15 -12.9 29.8 -12.85 29.9 -12.3 29.6 -12.25 29.6 -12.0 28.6 -11.95 27.7 -11.65 26.9 -12.25 27.25 -13.7 Q27.2 -14.4 26.55 -15.3 L26.95 -15.5 28.85 -14.95 29.75 -14.9 M21.1 9.65 L21.1 9.75 21.0 9.75 21.1 9.65" fill="#121212" fill-rule="evenodd" stroke="none"/>
      <path d="M38.25 -13.55 L41.35 -13.45 35.1 -13.45 35.5 -13.6 36.25 -13.55 36.85 -13.5 37.05 -13.5 37.5 -13.55 37.5 -13.5 38.25 -13.55 M47.7 2.75 L48.7 2.75 48.3 2.85 48.6 3.0 38.4 2.85 38.35 2.75 47.7 2.75 M30.5 -13.6 L30.25 -13.55 30.25 -13.6 30.65 -13.65 30.7 -13.6 30.5 -13.6 M35.95 -2.65 L36.1 -2.65 36.5 -2.45 36.7 -2.1 36.8 -1.75 36.7 -1.3 36.5 -0.95 36.4 -1.1 36.5 -1.2 36.45 -1.5 36.25 -1.95 36.0 -2.2 35.55 -2.35 34.95 -2.2 35.3 -2.5 35.95 -2.65 M21.7 5.4 L21.5 6.9 21.6 7.15 21.1 9.65 21.0 9.75 21.1 9.85 21.0 10.3 20.95 10.45 20.6 13.15 20.55 13.15 20.5 13.15 20.75 10.95 20.85 10.5 20.95 10.45 20.95 10.1 21.0 9.75 21.0 9.65 21.3 6.75 21.2 6.6 21.5 5.4 21.7 5.4 M13.8 -5.6 L14.15 -5.85 13.95 -5.6 13.8 -5.6 M19.05 -13.7 L18.6 -13.75 18.7 -13.75 19.05 -13.7 M19.85 -13.65 L19.45 -13.75 19.5 -13.8 19.85 -13.65" fill="#0b0b0b" fill-rule="evenodd" stroke="none"/>
      <path d="M47.5 1.6 L50.1 2.2 50.1 2.3 50.0 2.4 47.7 2.75 38.35 2.75 38.15 2.45 38.9 2.3 40.2 1.5 47.5 1.6 M23.95 -12.15 L25.15 -11.7 Q26.35 -11.65 26.9 -12.25 L27.7 -11.65 27.65 -6.55 27.6 -5.8 25.2 -5.6 23.4 -5.8 23.4 -6.65 23.45 -11.75 23.95 -12.15 M20.15 -11.25 L20.35 -11.35 20.35 -6.55 20.4 -6.25 20.3 -5.25 20.1 -5.25 20.1 -6.15 20.1 -6.7 20.15 -11.25 M34.95 -2.2 L35.55 -2.35 36.0 -2.2 36.25 -1.95 36.45 -1.5 36.5 -1.2 36.4 -1.1 36.25 -0.85 36.2 -0.75 35.85 -0.45 35.7 -0.45 35.35 -0.45 Q33.8 -1.2 34.95 -2.2 M15.35 -2.0 L15.2 -2.2 15.3 -2.2 15.35 -2.0 M19.35 20.15 L15.05 19.95 19.45 18.55 19.35 20.15" fill="#161616" fill-rule="evenodd" stroke="none"/>
      <path d="M35.1 -13.45 L34.9 -13.55 34.65 -13.55 33.25 -15.05 34.5 -16.95 34.75 -16.95 35.0 -17.4 35.4 -16.8 36.1 -15.0 35.75 -15.35 35.5 -15.35 35.3 -15.4 34.65 -15.1 35.5 -13.6 35.1 -13.45 M36.85 -13.5 L36.9 -13.55 37.05 -13.5 36.85 -13.5 M38.25 -11.95 L38.4 -11.65 37.6 -11.5 34.65 -11.1 33.65 -12.0 33.5 -12.3 34.35 -12.3 34.6 -12.7 37.55 -12.7 38.25 -11.95 M32.6 -4.2 L33.9 -1.95 34.2 2.05 33.85 2.35 31.4 2.8 29.25 3.6 28.9 3.55 28.5 3.6 28.1 3.55 26.25 3.55 22.5 3.6 22.45 3.5 22.25 3.5 23.8 -3.5 24.7 -5.2 32.6 -4.2" fill="#313131" fill-rule="evenodd" stroke="none"/>
      <path d="M35.5 -16.85 L36.65 -15.15 36.65 -14.95 37.05 -14.35 37.3 -14.05 37.5 -13.55 37.05 -13.5 36.4 -14.75 36.35 -14.8 36.1 -15.0 35.4 -16.8 35.5 -16.85 M38.25 -11.95 L37.55 -12.7 38.0 -12.65 37.95 -12.6 38.25 -11.95 M29.8 -12.85 L29.95 -12.85 29.9 -12.3 29.8 -12.85 M30.0 -14.3 L29.95 -14.2 30.0 -13.6 29.8 -13.6 29.95 -14.75 30.0 -14.3 M38.05 5.25 L38.15 6.05 38.05 5.7 38.05 5.25 M38.2 6.3 L38.25 7.1 38.35 8.8 38.3 8.65 38.3 8.5 38.25 8.4 38.25 7.1 38.2 6.7 38.2 6.45 38.2 6.3 M37.85 6.0 L37.8 6.7 37.75 5.4 37.8 5.4 37.85 6.0 M37.95 7.6 L37.85 8.0 37.95 7.55 37.95 7.6 M38.15 9.75 L38.1 10.15 38.1 9.55 38.15 9.6 38.15 9.75 M38.25 12.65 L38.25 12.45 38.35 12.4 38.25 12.75 38.25 12.65 M6.9 13.6 L7.0 13.45 7.0 13.5 6.95 13.6 7.25 13.85 6.9 13.6 M7.25 12.05 L7.3 12.05 7.25 13.2 7.25 12.6 7.25 12.05" fill="#020202" fill-rule="evenodd" stroke="none"/>
      <path d="M37.05 -14.35 L36.65 -14.95 36.9 -14.8 37.05 -14.35 M33.5 -12.3 L33.65 -12.0 34.65 -11.1 34.6 -10.9 34.6 -10.85 34.55 -10.5 34.55 -10.4 34.35 -7.75 34.4 -7.65 34.15 -7.15 34.15 -6.3 33.5 -6.2 33.25 -6.4 32.55 -6.45 32.45 -6.95 32.6 -7.1 32.9 -12.0 33.35 -12.3 33.5 -12.3 M34.45 3.55 L37.0 6.0 37.1 6.3 37.65 13.8 37.35 21.8 37.45 22.6 36.85 24.4 36.4 24.15 35.05 24.15 35.2 18.0 35.25 14.7 36.4 14.3 36.85 13.95 36.9 13.95 36.9 11.4 37.0 11.25 36.9 10.7 36.9 10.5 35.9 8.75 35.9 8.7 35.85 8.55 35.5 7.9 35.1 8.25 34.95 8.3 34.7 8.35 34.1 7.1 33.8 6.35 33.25 5.8 33.25 5.75 33.2 5.7 33.15 5.65 32.9 5.4 32.8 5.25 32.75 5.25 32.75 5.2 32.7 5.2 32.55 5.1 32.55 5.0 32.3 4.8 33.5 4.45 34.45 3.55 M23.95 20.15 L24.3 21.9 19.55 22.2 19.55 22.15 19.2 22.1 19.55 22.05 19.6 21.4 19.2 21.45 19.6 21.35 19.55 20.8 19.2 20.75 19.55 20.6 19.2 20.5 19.5 20.45 19.5 20.15 23.95 20.15 M19.4 20.95 L19.2 20.95 19.35 20.85 19.4 20.95 M19.5 20.15 L19.15 20.25 19.35 20.15 19.5 20.15" fill="#050505" fill-rule="evenodd" stroke="none"/>
      <path d="M37.6 -11.5 L38.4 -11.65 38.25 -11.95 38.6 -11.4 38.65 -11.25 38.75 -11.15 38.75 -11.1 39.0 -10.65 39.05 -10.5 39.1 -10.5 39.15 -10.35 39.35 -10.1 39.45 -9.85 39.5 -9.8 39.65 -9.4 39.75 -9.3 39.75 -9.1 39.85 -9.05 39.85 -9.0 40.05 -8.45 40.25 -8.35 40.35 -8.25 40.4 -8.1 40.45 -8.05 41.0 -7.05 41.05 -7.0 41.05 -6.95 41.25 -6.3 41.55 -6.15 41.6 -6.05 41.6 -5.95 41.85 -5.5 40.75 -5.8 37.6 -11.5 M37.7 -3.55 L38.35 -2.6 36.7 -2.1 36.5 -2.45 37.65 -3.55 37.7 -3.55" fill="#252525" fill-rule="evenodd" stroke="none"/>
      <path d="M35.3 -15.4 L36.25 -13.55 35.5 -13.6 34.65 -15.1 35.3 -15.4 M13.6 -5.3 L13.8 -5.6 13.95 -5.6 13.6 -5.3" fill="#070707" fill-rule="evenodd" stroke="none"/>
      <path d="M29.75 -14.9 L30.0 -14.95 30.3 -14.9 30.45 -14.95 30.5 -14.85 29.95 -14.75 29.75 -14.9 M34.05 -3.9 L35.1 -3.85 35.4 -2.7 35.3 -2.65 35.35 -2.6 35.3 -2.5 34.95 -2.2 Q33.8 -1.2 35.35 -0.45 L35.3 -0.45 34.95 0.85 34.95 1.3 35.0 1.6 35.3 1.6 35.0 1.95 34.65 1.85 34.4 2.05 34.2 2.05 33.9 -1.95 32.6 -4.2 33.95 -5.2 34.5 -4.85 33.65 -4.3 33.85 -3.85 34.05 -3.9 M34.45 3.55 L35.55 2.2 37.95 4.35 38.0 4.45 38.0 4.75 37.55 5.5 37.4 5.65 37.7 10.4 37.75 10.55 37.8 11.0 37.75 11.5 37.9 13.1 38.0 13.2 38.15 12.9 38.25 12.8 38.25 12.75 38.35 12.4 38.5 12.15 38.55 12.0 38.5 16.8 38.35 17.4 38.4 20.3 37.45 22.6 37.35 21.8 37.65 13.8 37.1 6.3 37.0 6.0 34.45 3.55" fill="#191919" fill-rule="evenodd" stroke="none"/>
      <path d="M29.95 -14.75 L30.5 -14.85 30.45 -14.95 30.95 -14.95 31.6 -14.9 31.75 -14.6 30.0 -14.3 29.95 -14.75 M23.3 -13.4 L23.65 -13.55 26.1 -13.5 23.3 -13.4 M34.15 -6.3 L34.15 -7.15 34.4 -7.65 34.3 -6.3 34.15 -6.3 M7.95 22.45 L7.9 23.15 7.35 23.35 7.2 21.4 7.3 20.7 7.95 22.45 M10.35 10.0 L10.35 9.7 10.4 9.55 10.45 9.4 10.45 9.5 10.4 9.55 10.35 10.0" fill="#101010" fill-rule="evenodd" stroke="none"/>
      <path d="M30.95 -14.95 L31.25 -15.25 31.45 -15.2 31.6 -14.9 30.95 -14.95 M31.5 -13.85 L31.2 -13.55 31.0 -13.55 30.7 -13.6 30.65 -13.65 31.5 -13.85 M31.65 -12.3 L31.15 -12.3 30.95 -12.6 31.7 -12.35 31.65 -12.3 M35.05 24.15 L36.4 24.15 36.85 24.4 35.3 24.45 34.8 24.15 35.05 24.15 M13.85 0.45 L13.15 0.4 12.7 0.1 13.95 -0.9 14.2 -0.8 14.55 -0.85 14.0 0.25 13.85 0.45" fill="#1c1c1c" fill-rule="evenodd" stroke="none"/>
      <path d="M24.6 -15.6 L24.75 -16.5 24.95 -16.7 25.9 -17.0 26.7 -16.55 26.95 -15.9 26.95 -15.5 26.55 -15.3 24.7 -15.45 24.6 -15.6 M38.5 16.8 L39.2 15.7 39.0 18.95 38.4 20.3 38.35 17.4 38.5 16.8" fill="#4b4b4b" fill-rule="evenodd" stroke="none"/>
      <path d="M24.6 -15.6 L24.7 -15.45 23.95 -14.9 23.7 -14.3 23.65 -13.55 23.3 -13.4 22.0 -13.25 21.5 -13.5 21.8 -13.65 21.05 -13.65 21.25 -15.0 22.45 -15.05 24.55 -15.6 24.6 -15.6 M22.8 -11.9 L23.95 -12.15 23.45 -11.75 22.8 -11.9" fill="#4a4a4a" fill-rule="evenodd" stroke="none"/>
      <path d="M24.7 -15.45 L26.55 -15.3 Q27.2 -14.4 27.25 -13.7 L26.9 -12.25 Q26.35 -11.65 25.15 -11.7 L23.95 -12.15 24.25 -12.25 Q25.7 -11.55 26.45 -12.75 L26.65 -12.8 26.55 -13.0 26.55 -13.1 26.55 -13.45 26.45 -14.0 26.15 -14.45 25.25 -14.85 24.8 -14.85 24.0 -14.45 23.65 -13.55 23.7 -14.3 23.95 -14.9 24.7 -15.45" fill="#2f2f2f" fill-rule="evenodd" stroke="none"/>
      <path d="M23.65 -13.55 L24.0 -14.45 24.8 -14.85 25.25 -14.85 26.15 -14.45 26.45 -14.0 26.55 -13.45 26.3 -13.5 26.1 -13.5 23.65 -13.55 M26.45 -12.75 Q25.7 -11.55 24.25 -12.25 L25.9 -12.65 26.45 -12.75 M33.8 6.35 L33.35 5.95 33.25 5.8 33.8 6.35 M33.15 5.65 L33.0 5.55 32.9 5.4 33.15 5.65 M7.25 13.2 L7.2 13.2 7.25 12.6 7.25 13.2" fill="#0f0f0f" fill-rule="evenodd" stroke="none"/>
      <path d="M29.9 -12.3 L29.8 -6.55 29.8 -5.2 29.55 -5.1 29.6 -6.55 29.6 -12.0 29.6 -12.25 29.9 -12.3" fill="#151515" fill-rule="evenodd" stroke="none"/>
      <path d="M22.0 -13.25 L23.3 -13.4 26.1 -13.5 26.3 -13.5 25.85 -13.4 25.8 -13.35 16.7 -11.55 16.3 -11.35 17.35 -11.15 13.6 -11.2 12.25 -11.5 20.1 -12.9 20.35 -13.0 22.0 -13.25" fill="#343434" fill-rule="evenodd" stroke="none"/>
      <path d="M31.75 -14.6 L31.85 -14.3 31.5 -13.85 30.65 -13.65 30.25 -13.6 30.0 -13.6 29.95 -14.2 30.0 -14.3 31.75 -14.6 M26.55 -13.45 L26.55 -13.1 26.5 -13.1 26.55 -13.0 26.65 -12.8 26.45 -12.75 25.9 -12.65 25.85 -13.4 26.3 -13.5 26.55 -13.45 M15.5 -13.75 L15.55 -13.0 -50.6 -13.8 -50.65 -14.5 15.5 -13.75 M18.4 -5.5 L17.15 -5.9 15.5 -5.75 Q18.75 -7.4 19.75 -6.05 L18.4 -5.5" fill="#010101" fill-rule="evenodd" stroke="none"/>
      <path d="M26.55 -13.1 L26.55 -13.0 26.5 -13.1 26.55 -13.1 M24.25 -12.25 L23.95 -12.15 22.8 -11.9 21.55 -11.65 21.35 -11.6 20.35 -11.35 20.15 -11.25 17.65 -10.75 17.65 -11.2 17.35 -11.15 16.3 -11.35 16.7 -11.55 25.8 -13.35 25.85 -13.4 25.9 -12.65 24.25 -12.25 M29.15 5.6 L28.4 5.6 28.4 5.55 29.15 5.6 M30.15 15.1 L35.25 14.7 35.2 18.0 30.15 15.1" fill="#040404" fill-rule="evenodd" stroke="none"/>
      <path d="M31.25 -6.55 L31.65 -12.3 31.7 -12.35 31.95 -12.15 Q32.2 -11.95 32.6 -11.8 L32.9 -12.0 32.6 -7.1 32.45 -6.95 32.55 -6.45 31.25 -6.55" fill="#696969" fill-rule="evenodd" stroke="none"/>
      <path d="M31.0 -13.55 L30.5 -13.6 30.7 -13.6 31.0 -13.55 M30.25 -13.55 L29.8 -13.6 30.0 -13.6 30.25 -13.6 30.25 -13.55 M38.15 0.6 L37.15 1.35 35.95 1.65 35.45 1.65 35.3 1.6 35.0 1.6 34.95 1.3 35.5 1.35 36.65 1.2 37.65 0.6 38.3 -0.35 38.3 -0.4 38.5 -1.45 38.35 -2.6 37.7 -3.55 36.75 -4.2 35.6 -4.4 34.55 -4.2 34.05 -3.9 33.85 -3.85 33.65 -4.3 34.5 -4.85 34.65 -4.95 34.7 -5.0 Q37.85 -6.35 39.25 -4.15 40.15 -2.4 39.45 -1.1 L38.15 0.6 M13.85 0.75 L13.85 0.45 14.0 0.25 14.55 -0.85 15.0 -1.0 15.05 -1.0 15.15 -1.0 14.75 0.65 14.75 0.9 14.7 0.95 13.85 0.75" fill="#2d2d2d" fill-rule="evenodd" stroke="none"/>
      <path d="M30.4 -6.55 L30.4 -12.25 30.6 -12.45 30.7 -6.5 30.6 -5.95 30.4 -5.9 30.4 -6.55 M36.4 -1.1 L36.5 -0.95 36.25 -0.85 36.4 -1.1 M13.5 -1.4 L13.45 -2.1 13.65 -2.4 13.95 -2.55 14.0 -2.55 14.1 -2.65 14.75 -2.6 15.2 -2.2 15.35 -2.0 15.15 -1.05 15.1 -1.05 15.05 -1.0 15.0 -1.0 14.55 -0.85 14.2 -0.8 13.95 -0.9 13.6 -1.25 13.5 -1.4" fill="#171717" fill-rule="evenodd" stroke="none"/>
      <path d="M29.8 -6.55 L30.4 -6.55 30.4 -5.9 30.6 -5.95 30.7 -6.5 31.25 -6.55 32.55 -6.45 33.25 -6.4 33.5 -6.2 34.1 -5.8 34.45 -5.45 33.95 -5.2 32.6 -4.2 24.7 -5.2 25.2 -5.6 27.6 -5.8 27.65 -6.55 29.6 -6.55 29.55 -5.1 29.8 -5.2 29.8 -6.55" fill="#5d5d5d" fill-rule="evenodd" stroke="none"/>
      <path d="M34.45 -5.45 L34.7 -5.0 34.65 -4.95 34.5 -4.85 33.95 -5.2 34.45 -5.45" fill="#202020" fill-rule="evenodd" stroke="none"/>
      <path d="M34.05 -3.9 L34.55 -4.2 35.6 -4.4 36.75 -4.2 36.15 -2.75 36.1 -2.65 35.95 -2.65 35.5 -2.65 35.35 -2.6 35.3 -2.65 35.4 -2.7 35.1 -3.85 34.05 -3.9 M12.05 -0.85 L11.8 -1.9 11.9 -2.9 12.1 -3.0 12.55 -3.95 12.75 -3.95 13.65 -4.6 14.65 -4.75 15.8 -4.55 15.65 -4.15 15.4 -4.15 15.35 -3.0 15.05 -3.0 14.8 -2.95 14.7 -2.95 14.1 -2.65 14.0 -2.55 13.95 -2.55 13.65 -2.4 13.45 -2.1 13.5 -1.4 12.4 -0.9 12.05 -0.85" fill="#080808" fill-rule="evenodd" stroke="none"/>
      <path d="M23.4 -6.65 L23.4 -5.8 25.2 -5.6 24.7 -5.2 16.75 -4.45 16.8 -4.6 17.25 -5.1 17.3 -5.1 17.4 -5.2 17.7 -5.25 17.8 -5.35 18.4 -5.5 19.75 -6.05 20.1 -6.15 20.1 -5.25 20.3 -5.25 20.4 -6.25 21.0 -6.5 21.3 -6.55 21.3 -6.05 21.45 -6.0 21.5 -6.65 23.4 -6.65" fill="#717171" fill-rule="evenodd" stroke="none"/>
      <path d="M26.25 3.55 L28.1 3.55 28.5 3.6 28.9 3.55 29.25 3.6 34.45 3.55 33.5 4.45 32.3 4.8 32.2 4.8 29.2 5.6 29.15 5.6 28.4 5.55 27.2 5.55 25.4 5.5 25.35 5.55 24.1 5.55 22.7 5.5 22.55 5.4 21.7 5.4 21.5 5.4 21.8 4.2 22.05 3.95 25.7 4.1 26.25 3.55 M14.75 1.5 L14.05 1.35 14.1 1.25 14.35 1.3 14.75 1.25 14.75 1.5" fill="#515151" fill-rule="evenodd" stroke="none"/>
      <path d="M34.4 2.05 L34.65 1.85 35.0 1.95 35.45 2.15 34.4 2.05" fill="#333333" fill-rule="evenodd" stroke="none"/>
      <path d="M34.2 2.05 L34.4 2.05 35.45 2.15 35.55 2.2 34.45 3.55 29.25 3.6 31.4 2.8 33.85 2.35 34.2 2.05" fill="#404040" fill-rule="evenodd" stroke="none"/>
      <path d="M35.35 -2.6 L35.5 -2.65 35.95 -2.65 35.3 -2.5 35.35 -2.6 M20.6 13.15 L21.1 13.15 22.45 13.2 23.7 13.2 24.15 13.2 24.9 13.0 25.15 13.0 32.35 11.65 30.75 13.5 30.15 15.1 30.3 17.05 29.85 19.85 23.95 20.15 19.45 18.55 19.45 17.6 Q19.8 17.15 19.8 16.35 L24.3 16.45 24.35 15.65 24.15 15.65 20.15 15.05 20.35 14.2 20.2 13.95 20.35 13.95 20.3 13.65 20.5 13.5 20.3 13.4 20.55 13.15 20.6 13.15" fill="#222222" fill-rule="evenodd" stroke="none"/>
      <path d="M36.1 -2.65 L36.15 -2.75 36.75 -4.2 37.7 -3.55 37.65 -3.55 36.5 -2.45 36.1 -2.65" fill="#131313" fill-rule="evenodd" stroke="none"/>
      <path d="M38.35 -2.6 L38.5 -1.45 38.25 -1.45 36.8 -1.75 36.7 -2.1 38.35 -2.6" fill="#353535" fill-rule="evenodd" stroke="none"/>
      <path d="M38.5 -1.45 L38.3 -0.4 37.95 -0.5 36.7 -1.3 38.25 -1.45 38.5 -1.45" fill="#5e5e5e" fill-rule="evenodd" stroke="none"/>
      <path d="M38.3 -0.4 L38.3 -0.35 37.65 0.6 37.25 0.15 36.5 -0.95 37.95 -0.5 38.3 -0.4" fill="#959595" fill-rule="evenodd" stroke="none"/>
      <path d="M37.65 0.6 L36.65 1.2 36.45 0.65 36.2 -0.75 37.25 0.15 37.65 0.6" fill="#9c9c9c" fill-rule="evenodd" stroke="none"/>
      <path d="M36.5 -0.95 L37.25 0.15 36.2 -0.75 36.25 -0.85 36.5 -0.95" fill="#9d9d9d" fill-rule="evenodd" stroke="none"/>
      <path d="M36.5 -0.95 L36.7 -1.3 37.95 -0.5 36.5 -0.95" fill="#969696" fill-rule="evenodd" stroke="none"/>
      <path d="M36.65 1.2 L35.5 1.35 35.55 0.2 35.7 -0.45 35.85 -0.45 36.2 -0.75 36.45 0.65 36.65 1.2 M36.7 -1.3 L36.8 -1.75 38.25 -1.45 36.7 -1.3" fill="#5f5f5f" fill-rule="evenodd" stroke="none"/>
      <path d="M35.5 1.35 L34.95 1.3 34.95 0.85 35.3 -0.45 35.35 -0.45 35.7 -0.45 35.55 0.2 35.5 1.35 M19.8 16.35 L15.3 16.25 15.4 15.45 15.9 15.45 19.85 15.65 19.8 16.35" fill="#2b2b2b" fill-rule="evenodd" stroke="none"/>
      <path d="M38.35 2.75 L38.4 2.85 Q39.9 3.35 39.75 10.8 L39.2 15.7 38.5 16.8 38.55 12.0 38.35 8.8 38.25 7.1 38.2 6.3 38.15 6.05 38.05 5.25 38.05 5.0 38.0 4.75 38.0 4.45 37.95 4.35 36.65 1.7 35.95 1.65 37.15 1.35 38.15 2.45 38.35 2.75 M37.8 5.4 L37.85 5.4 37.85 6.0 37.8 5.4 M37.8 9.3 L37.75 9.15 37.8 9.3 M37.7 8.55 L37.75 8.35 37.75 8.55 37.7 8.55 M38.2 6.7 L38.15 6.5 38.2 6.45 38.2 6.7 M38.15 9.6 L38.15 9.75 38.15 9.6" fill="#303030" fill-rule="evenodd" stroke="none"/>
      <path d="M35.3 1.6 L35.45 1.65 35.95 1.65 36.65 1.7 37.95 4.35 35.55 2.2 35.45 2.15 35.0 1.95 35.3 1.6" fill="#383838" fill-rule="evenodd" stroke="none"/>
      <path d="M38.0 4.75 L38.05 5.0 38.05 5.25 38.05 5.7 38.15 6.05 38.2 6.3 38.2 6.45 38.15 6.5 38.2 6.7 38.25 7.1 38.25 8.4 38.3 8.5 38.3 8.65 38.35 8.8 38.55 12.0 38.5 12.15 38.35 12.4 38.25 12.45 38.25 12.65 38.2 12.7 38.25 12.8 38.15 12.9 38.0 12.95 37.9 11.3 37.95 11.2 37.9 11.2 37.8 10.65 37.75 9.3 37.8 9.3 37.75 9.15 37.65 8.6 37.65 8.55 37.7 8.55 37.75 8.55 37.75 8.35 37.75 8.3 37.55 5.5 38.0 4.75 M37.8 5.4 L37.75 5.4 37.8 6.7 37.85 6.0 37.85 5.4 37.8 5.4 M34.7 8.35 L34.95 8.35 35.1 8.25 35.5 7.9 35.85 8.55 35.9 8.7 35.9 8.75 36.9 10.5 36.9 10.7 37.0 11.25 36.9 11.4 36.9 13.95 36.85 13.95 36.4 14.3 35.25 14.7 35.2 12.8 35.25 12.35 35.35 11.45 35.15 10.6 34.9 9.75 34.8 8.7 34.7 8.4 34.7 8.35 M37.95 7.6 L37.95 7.55 37.85 8.0 37.95 7.6 M38.15 9.75 L38.15 9.6 38.1 9.55 38.1 10.15 38.15 9.75" fill="#000000" fill-opacity="0.50980395" fill-rule="evenodd" stroke="none"/>
      <path d="M38.15 12.9 L38.0 13.2 37.9 13.1 37.75 11.5 37.8 11.0 37.75 10.55 37.7 10.4 37.4 5.65 37.55 5.5 37.75 8.3 37.75 8.35 37.7 8.55 37.65 8.55 37.65 8.6 37.75 9.15 37.8 9.3 37.75 9.3 37.8 10.65 37.9 11.2 37.95 11.2 37.9 11.3 38.0 12.95 38.15 12.9 M38.25 12.75 L38.25 12.8 38.2 12.7 38.25 12.65 38.25 12.75 M17.1 13.05 L17.2 13.0 17.2 13.05 17.1 13.05 M20.15 5.4 L19.75 5.4 19.55 5.35 20.15 5.4" fill="#030303" fill-rule="evenodd" stroke="none"/>
      <path d="M34.95 8.35 L34.95 8.3 35.1 8.25 34.95 8.35 M35.15 10.6 L35.35 11.45 35.25 12.35 35.25 11.35 35.15 10.6" fill="#3d3d3d" fill-rule="evenodd" stroke="none"/>
      <path d="M34.95 8.3 L34.95 8.35 34.7 8.35 34.5 8.15 34.1 7.1 34.7 8.35 34.95 8.3 M33.0 5.55 L32.95 5.5 32.9 5.4 33.0 5.55" fill="#8b8b8b" fill-rule="evenodd" stroke="none"/>
      <path d="M32.45 11.6 L32.6 11.3 34.7 8.4 34.8 8.7 34.9 9.75 35.15 10.6 35.25 11.35 32.45 11.6" fill="#040704" fill-rule="evenodd" stroke="none"/>
      <path d="M28.4 5.6 L27.2 5.55 28.4 5.55 28.4 5.6 M25.35 5.55 L25.15 5.55 24.1 5.55 25.35 5.55 M32.35 11.65 L32.45 11.6 35.25 11.35 35.25 12.35 35.2 12.8 35.25 14.7 30.15 15.1 30.75 13.5 32.35 11.65" fill="#060606" fill-rule="evenodd" stroke="none"/>
      <path d="M21.5 5.4 L20.35 5.35 20.15 5.4 19.55 5.35 13.95 5.25 13.95 5.2 13.7 5.15 13.35 3.7 14.45 3.3 16.15 3.35 16.6 3.3 17.0 3.35 17.3 3.3 17.85 3.4 18.95 3.45 18.25 3.9 18.55 3.95 22.05 3.95 21.95 3.8 22.35 3.8 22.5 3.6 26.25 3.55 25.7 4.1 22.05 3.95 21.8 4.2 21.5 5.4" fill="#727272" fill-rule="evenodd" stroke="none"/>
      <path d="M21.35 -11.6 L21.55 -11.65 21.5 -6.65 21.45 -6.0 21.3 -6.05 21.3 -6.55 21.35 -11.6" fill="#141414" fill-rule="evenodd" stroke="none"/>
      <path d="M13.6 -10.2 L12.15 -10.4 12.1 -11.45 12.25 -11.5 13.6 -11.2 13.6 -10.2" fill="#393939" fill-rule="evenodd" stroke="none"/>
      <path d="M9.85 19.35 L9.8 20.95 7.95 22.45 7.3 20.7 7.05 19.55 7.2 16.85 10.3 14.85 9.75 16.65 9.85 19.35 M13.55 -5.15 L13.6 -5.3 13.95 -5.6 14.15 -5.85 14.65 -6.3 17.95 -6.95 18.6 -6.95 20.1 -6.7 20.1 -6.15 19.75 -6.05 Q18.75 -7.4 15.5 -5.75 L13.55 -5.15 M20.4 -6.25 L20.35 -6.55 21.0 -6.5 20.4 -6.25" fill="#373737" fill-rule="evenodd" stroke="none"/>
      <path d="M14.35 1.3 L13.9 1.15 Q13.8 1.0 13.85 0.75 L14.7 0.95 14.75 1.25 14.35 1.3 M13.15 0.4 L12.6 0.35 Q11.6 -0.55 11.5 -2.15 11.55 -3.6 12.5 -4.5 L13.55 -5.15 15.5 -5.75 17.15 -5.9 18.4 -5.5 17.8 -5.35 17.7 -5.25 17.4 -5.2 17.3 -5.1 17.25 -5.1 16.65 -4.9 16.8 -4.6 16.75 -4.45 16.6 -4.3 16.3 -4.2 15.8 -4.55 14.65 -4.75 13.65 -4.6 12.75 -3.95 12.55 -3.95 12.1 -3.0 11.9 -2.9 11.8 -1.9 12.05 -0.85 12.7 0.1 13.15 0.4" fill="#575757" fill-rule="evenodd" stroke="none"/>
      <path d="M13.5 -1.4 L13.6 -1.25 13.95 -0.9 12.7 0.1 12.05 -0.85 12.4 -0.9 13.5 -1.4" fill="#0a0a0a" fill-rule="evenodd" stroke="none"/>
      <path d="M14.85 2.5 L15.1 1.7 14.85 1.45 14.75 1.5 14.75 1.25 14.7 0.95 14.75 0.9 14.75 0.65 15.15 -1.0 15.15 -1.05 15.35 -2.0 15.3 -2.2 15.45 -2.65 16.6 -4.3 16.75 -4.45 24.7 -5.2 23.8 -3.5 22.25 3.5 18.95 3.45 17.85 3.4 17.3 3.3 17.0 3.35 16.6 3.3 16.15 3.35 14.85 2.5" fill="#b2b2b2" fill-rule="evenodd" stroke="none"/>
      <path d="M16.3 -4.2 L16.6 -4.3 15.45 -2.65 15.35 -3.0 15.4 -4.15 15.65 -4.15 16.3 -4.2 M16.8 -4.6 L16.65 -4.9 17.25 -5.1 16.8 -4.6" fill="#4c4c4c" fill-rule="evenodd" stroke="none"/>
      <path d="M7.0 13.45 L6.95 11.95 7.25 12.05 7.25 12.6 7.2 13.2 7.15 13.3 7.0 13.5 7.0 13.45 M15.8 -4.55 L16.3 -4.2 15.65 -4.15 15.8 -4.55 M19.45 18.55 L23.95 20.15 19.5 20.15 19.35 20.15 19.45 18.55" fill="#111111" fill-rule="evenodd" stroke="none"/>
      <path d="M6.95 23.35 L6.9 13.6 7.25 13.85 7.25 14.05 7.2 16.85 7.05 19.55 7.3 20.7 7.2 21.4 7.35 23.35 6.95 23.35 M14.8 -2.95 L15.05 -3.0 15.35 -3.0 14.8 -2.95" fill="#232323" fill-rule="evenodd" stroke="none"/>
      <path d="M15.05 -1.0 L15.1 -1.05 15.15 -1.05 15.15 -1.0 15.05 -1.0 M15.2 -2.2 L14.75 -2.6 14.1 -2.65 14.7 -2.95 14.8 -2.95 15.35 -3.0 15.45 -2.65 15.3 -2.2 15.2 -2.2" fill="#1f1f1f" fill-rule="evenodd" stroke="none"/>
      <path d="M14.45 3.3 L14.6 3.2 14.85 2.5 16.15 3.35 14.45 3.3" fill="#535353" fill-rule="evenodd" stroke="none"/>
      <path d="M22.5 3.6 L22.35 3.8 21.95 3.8 22.05 3.95 18.55 3.95 18.25 3.9 18.95 3.45 22.25 3.5 22.45 3.5 22.5 3.6" fill="#797979" fill-rule="evenodd" stroke="none"/>
      <path d="M14.85 19.95 L9.85 19.35 9.75 16.65 10.3 14.85 10.4 14.8 10.65 14.55 Q10.2 13.85 11.1 12.95 L10.35 11.95 10.35 11.3 10.45 11.3 13.0 12.0 16.9 13.05 17.1 13.05 17.2 13.05 20.5 13.15 20.55 13.15 20.3 13.4 20.5 13.5 20.3 13.65 20.35 13.95 20.2 13.95 20.35 14.2 20.15 15.05 20.0 15.05 15.9 15.45 15.4 15.45 15.3 16.25 19.8 16.35 Q19.8 17.15 19.45 17.6 L19.45 18.55 15.05 19.95 14.85 19.95" fill="#676767" fill-rule="evenodd" stroke="none"/>
      <path d="M22.45 13.2 L23.7 13.2 22.45 13.2" fill="#242424" fill-rule="evenodd" stroke="none"/>
      <path d="M21.1 13.15 L22.45 13.2 21.1 13.15" fill="#7b7b7b" fill-rule="evenodd" stroke="none"/>
      <path d="M20.0 15.05 L20.15 15.05 24.15 15.65 19.85 15.65 20.0 15.05" fill="#2e2e2e" fill-rule="evenodd" stroke="none"/>
      <path d="M15.9 15.45 L20.0 15.05 19.85 15.65 15.9 15.45" fill="#3f3f3f" fill-rule="evenodd" stroke="none"/>
      <path d="M19.85 15.65 L24.15 15.65 24.35 15.65 24.3 16.45 19.8 16.35 19.85 15.65" fill="#1d1d1d" fill-rule="evenodd" stroke="none"/>
      <path d="M10.65 8.85 L10.85 8.2 11.4 7.5 Q12.3 6.6 13.25 6.2 L12.9 9.9 13.0 12.0 10.45 11.3 10.45 11.2 10.65 8.85" fill="#212121" fill-opacity="0.50980395" fill-rule="evenodd" stroke="none"/>
      <path d="M10.35 11.3 L10.35 10.0 10.4 9.55 10.45 9.5 10.45 9.4 10.65 8.85 10.45 11.2 10.45 11.3 10.35 11.3" fill="#101010" fill-opacity="0.50980395" fill-rule="evenodd" stroke="none"/>
      <path d="M7.3 12.05 L9.35 12.7 10.35 11.95 11.1 12.95 Q10.2 13.85 10.65 14.55 L7.25 14.05 7.25 13.85 7.25 13.2 7.3 12.05" fill="#5b5b5b" fill-rule="evenodd" stroke="none"/>
      <path d="M7.2 13.2 L7.25 13.2 7.25 13.85 6.95 13.6 7.0 13.5 7.15 13.3 7.2 13.2" fill="#0e0e0e" fill-opacity="0.50980395" fill-rule="evenodd" stroke="none"/>
      <path d="M10.65 14.55 L10.4 14.8 10.3 14.85 7.2 16.85 7.25 14.05 10.65 14.55" fill="#595959" fill-rule="evenodd" stroke="none"/>
      <path d="M7.35 23.35 L11.25 23.8 10.85 23.9 7.05 23.6 6.95 23.35 7.35 23.35" fill="#262626" fill-rule="evenodd" stroke="none"/>
      <path d="M19.55 22.2 L17.35 22.5 14.5 22.35 14.85 19.95 15.05 19.95 19.35 20.15 19.15 20.25 19.5 20.15 19.5 20.45 19.2 20.5 19.55 20.6 19.2 20.75 19.55 20.8 19.6 21.35 19.2 21.45 19.6 21.4 19.55 22.05 19.2 22.1 19.55 22.15 19.55 22.2 M19.4 20.95 L19.35 20.85 19.2 20.95 19.4 20.95" fill="#090909" fill-rule="evenodd" stroke="none"/>
      <path d="M31.55 -24.05 L33.95 -19.7 34.0 -19.55 34.0 -19.5 34.4 -18.9 35.15 -17.5 35.25 -17.4 35.3 -17.25 35.45 -17.1 35.5 -16.85 35.6 -16.85 36.75 -15.15 37.5 -15.05 38.35 -13.55 41.45 -13.45 35.2 -13.45 35.0 -13.55 34.75 -13.55 33.35 -15.05 34.6 -16.95 30.65 -23.95 31.1 -24.4 31.3 -24.3 31.55 -24.05 M19.55 -13.75 L19.6 -13.8 19.95 -13.65 20.55 -13.7 20.75 -13.65 21.15 -13.65 21.35 -15.0 22.55 -15.05 24.65 -15.6 24.7 -15.6 24.85 -16.5 25.05 -16.7 26.0 -17.0 26.8 -16.55 27.05 -15.9 27.05 -15.5 28.95 -14.95 29.85 -14.9 30.1 -14.95 30.4 -14.9 30.55 -14.95 31.05 -14.95 31.35 -15.25 31.55 -15.2 31.95 -14.3 31.3 -13.55 31.1 -13.55 30.6 -13.6 30.35 -13.55 29.9 -13.6 28.6 -13.55 28.65 -13.4 28.25 -12.9 30.05 -12.85 30.0 -12.3 29.9 -6.55 30.5 -6.55 30.5 -12.25 30.7 -12.45 30.8 -6.5 31.35 -6.55 31.75 -12.3 31.25 -12.3 31.05 -12.6 31.8 -12.35 32.05 -12.15 Q32.3 -11.95 32.7 -11.8 L33.45 -12.3 34.45 -12.3 34.7 -12.7 37.65 -12.7 38.1 -12.65 38.05 -12.6 38.35 -11.95 38.7 -11.4 38.75 -11.25 38.85 -11.15 38.85 -11.1 39.1 -10.65 39.15 -10.5 39.2 -10.5 39.25 -10.35 39.45 -10.1 39.55 -9.85 39.6 -9.8 39.75 -9.4 39.85 -9.3 39.85 -9.1 39.95 -9.05 39.95 -9.0 40.35 -8.35 40.45 -8.25 40.5 -8.1 40.55 -8.05 41.1 -7.05 41.15 -7.0 41.15 -6.95 41.65 -6.15 41.7 -6.05 41.7 -5.95 42.05 -5.4 41.95 -5.5 40.85 -5.8 37.7 -11.5 34.75 -11.1 34.7 -10.9 34.7 -10.85 34.65 -10.5 34.65 -10.4 34.45 -7.75 34.5 -7.65 34.4 -6.3 34.25 -6.3 33.6 -6.2 34.2 -5.8 Q38.4 -7.25 39.8 -3.95 40.45 -0.25 38.25 0.6 L37.25 1.35 38.25 2.45 39.0 2.3 40.3 1.5 41.1 0.85 49.2 1.0 49.4 1.15 Q51.1 1.4 50.7 2.35 L49.8 2.95 38.5 2.85 Q40.0 3.35 39.85 10.8 L39.1 18.95 36.95 24.4 35.4 24.45 34.9 24.15 35.15 24.15 35.3 18.0 30.25 15.1 30.4 17.05 29.95 19.85 24.05 20.15 24.4 21.9 19.65 22.2 17.45 22.5 14.6 22.35 14.95 19.95 9.95 19.35 9.9 20.95 Q8.45 22.45 8.05 22.45 L8.0 23.15 7.45 23.35 11.35 23.8 10.95 23.9 7.15 23.6 7.05 23.35 7.0 13.6 7.1 13.45 7.05 11.95 7.35 12.05 7.4 12.05 9.45 12.7 10.45 11.95 10.45 9.7 10.95 8.2 11.5 7.5 Q12.4 6.6 13.35 6.2 L13.0 9.9 13.1 12.0 17.0 13.05 17.3 13.0 17.3 13.05 20.6 13.15 20.85 10.95 20.95 10.5 21.05 10.45 20.7 13.15 24.25 13.2 25.0 13.0 25.25 13.0 32.55 11.6 32.7 11.3 34.8 8.4 34.8 8.35 34.6 8.15 33.9 6.35 33.45 5.95 33.35 5.8 33.35 5.75 33.25 5.65 33.1 5.55 33.05 5.5 32.9 5.25 32.85 5.25 32.85 5.2 32.8 5.2 32.65 5.1 32.65 5.0 32.4 4.8 32.3 4.8 29.3 5.6 25.5 5.5 25.45 5.55 22.8 5.5 22.65 5.4 21.8 5.4 21.6 6.9 21.7 7.15 21.2 9.65 21.2 9.75 21.1 9.75 21.1 9.65 21.4 6.75 21.3 6.6 21.6 5.4 20.45 5.35 19.85 5.4 19.65 5.35 14.05 5.25 14.05 5.2 13.8 5.15 13.45 3.7 14.7 3.2 15.2 1.7 14.95 1.45 14.85 1.5 14.15 1.35 14.2 1.25 14.4 1.3 14.0 1.15 Q13.9 1.0 13.95 0.75 L13.95 0.45 12.7 0.35 Q11.7 -0.55 11.6 -2.15 11.65 -3.6 12.6 -4.5 L13.65 -5.15 13.7 -5.3 13.9 -5.6 14.25 -5.85 14.75 -6.3 18.05 -6.95 18.7 -6.95 20.2 -6.7 20.25 -11.25 17.75 -10.75 17.7 -10.15 13.7 -10.2 12.25 -10.4 12.2 -11.45 12.35 -11.5 20.2 -12.9 -50.5 -13.8 -50.55 -14.5 17.85 -13.75 18.3 -13.7 18.7 -13.75 18.8 -13.75 19.15 -13.7 19.55 -13.75 M27.8 -11.65 L27.75 -6.55 29.7 -6.55 29.7 -12.0 28.7 -11.95 27.8 -11.65 M22.9 -11.9 L21.65 -11.65 21.6 -6.65 23.5 -6.65 23.55 -11.75 22.9 -11.9 M21.45 -11.6 L20.45 -11.35 20.45 -6.55 21.1 -6.5 21.4 -6.55 21.45 -11.6 M21.1 9.75 L21.2 9.85 21.1 10.3 21.05 10.45 21.05 10.1 21.1 9.75" fill="#000000" fill-opacity="0.6431373" fill-rule="evenodd" stroke="none"/>
    </g>
  </defs>
</svg>
