<?xml version="1.0" encoding="UTF-8" standalone="no"?>
<svg xmlns:xlink="http://www.w3.org/1999/xlink" height="296.35px" width="279.3px" xmlns="http://www.w3.org/2000/svg">
  <g transform="matrix(1.0, 0.0, 0.0, 1.0, 127.45, 132.15)">
    <use height="164.2" transform="matrix(0.7944, 0.5745, -0.5745, 0.7944, 10.05, -86.8)" width="151.85" xlink:href="#sprite0"/>
  </g>
  <defs>
    <g id="sprite0" transform="matrix(1.0, 0.0, 0.0, 1.0, 0.0, 0.0)">
      <use height="164.2" transform="matrix(1.0, 0.0, 0.0, 1.0, 0.0, 0.0)" width="151.85" xlink:href="#shape0"/>
    </g>
    <g id="shape0" transform="matrix(1.0, 0.0, 0.0, 1.0, 0.0, 0.0)">
      <path d="M124.35 43.0 Q121.1 51.8 121.1 60.0 121.1 104.3 131.65 126.7 136.15 136.15 142.7 142.3 L142.5 142.7 144.3 145.4 Q149.35 153.2 151.85 158.3 L147.8 161.25 Q145.95 162.5 145.95 164.2 L131.2 164.2 120.4 154.75 111.3 156.95 Q100.6 128.45 87.05 99.6 69.8 62.95 53.05 36.8 79.95 25.9 107.8 22.3 108.9 22.3 112.95 26.85 L113.2 24.9 116.45 0.0 116.85 0.1 Q119.9 15.05 128.55 34.05 126.1 38.3 124.35 43.0 M0.0 117.4 L0.1 117.35 2.0 119.9 0.6 120.2 0.0 117.45 0.0 117.4" fill="#6d0101" fill-opacity="0.49803922" fill-rule="evenodd" stroke="none"/>
    </g>
  </defs>
</svg>
