<?xml version="1.0" encoding="UTF-8" standalone="no"?>
<svg xmlns:xlink="http://www.w3.org/1999/xlink" height="116.4px" width="83.45px" xmlns="http://www.w3.org/2000/svg">
  <g transform="matrix(1.0, 0.0, 0.0, 1.0, 6.45, 39.95)">
    <use height="37.0" transform="matrix(1.0, 0.0, 0.0, 1.0, 0.0, 0.0)" width="77.0" xlink:href="#shape0"/>
    <use height="111.6" transform="matrix(0.6433, 0.0, 0.0, 1.0432, -6.4748, -39.9595)" width="117.85" xlink:href="#sprite0"/>
  </g>
  <defs>
    <g id="shape0" transform="matrix(1.0, 0.0, 0.0, 1.0, 0.0, 0.0)">
      <path d="M76.45 9.65 L76.5 9.6 76.1 9.35 76.05 8.9 Q76.05 8.55 76.45 8.05 L76.8 7.35 76.35 6.15 76.4 5.65 76.8 5.45 76.8 4.8 75.6 4.5 75.6 3.75 Q76.3 2.65 76.95 2.15 L75.7 0.85 75.0 0.0 77.0 0.0 77.0 10.0 76.45 9.65 M59.3 0.0 L63.15 0.0 61.75 1.3 61.7 1.35 59.3 0.0 M74.0 1.2 L73.65 1.05 73.45 0.35 73.05 0.3 Q72.55 0.3 72.25 0.9 L71.6 1.65 71.3 1.0 70.65 0.3 70.15 0.95 69.6 1.65 68.45 0.05 68.45 0.0 74.55 0.0 74.0 1.2 M64.35 2.15 L63.15 0.0 66.6 0.0 64.35 2.15 M58.95 37.0 L60.45 35.1 62.7 36.65 63.25 35.95 Q63.75 35.4 63.9 35.4 L65.0 36.3 65.3 34.95 65.45 34.95 66.0 35.85 66.45 34.5 68.35 37.0 58.95 37.0 M58.5 36.7 L58.8 37.0 56.7 37.0 58.1 36.65 58.5 36.7 M76.9 33.4 L77.0 33.45 77.0 37.0 76.4 37.0 76.4 36.0 Q76.25 34.05 76.9 33.4 M72.15 36.55 L72.95 37.0 68.95 37.0 69.5 36.3 70.5 35.1 72.15 36.55 M24.65 0.0 L28.1 2.25 26.85 4.5 26.55 4.35 25.9 3.1 25.5 2.15 23.7 3.35 Q22.35 4.1 22.05 4.8 L22.05 4.65 Q21.25 2.45 20.75 2.15 L19.2 2.9 Q18.15 3.5 18.35 4.5 L18.05 4.5 16.35 2.75 Q16.35 2.9 16.05 2.9 L15.85 3.6 15.6 4.2 15.35 4.05 14.45 2.3 Q13.9 2.2 13.2 3.3 L12.95 2.55 12.45 1.95 12.05 2.6 11.05 0.0 24.65 0.0 M28.95 2.75 L29.8 3.3 29.7 3.75 29.55 3.75 28.95 2.75 M0.0 5.65 L0.0 4.45 Q0.85 5.05 1.35 5.6 L0.75 6.1 0.0 5.65 M2.0 0.0 L1.7 0.35 0.95 0.9 0.35 0.7 1.35 1.65 0.0 2.65 0.0 0.0 2.0 0.0 M9.3 3.3 L9.05 3.3 7.4 0.0 10.85 0.0 10.0 1.25 Q9.3 2.55 9.3 3.3 M5.7 0.0 L5.55 0.2 4.35 1.95 3.45 0.15 Q3.3 0.3 3.3 0.75 L3.15 0.75 2.65 0.0 5.7 0.0" fill="#ffffff" fill-opacity="0.5137255" fill-rule="evenodd" stroke="none"/>
      <path d="M76.45 9.65 L77.0 10.0 77.0 23.95 76.7 23.65 Q76.35 23.3 76.35 22.8 L76.4 22.4 76.8 22.2 Q74.75 20.95 74.75 20.2 74.75 19.7 75.3 19.4 L76.2 18.9 75.6 18.3 75.3 17.9 76.95 17.25 75.8 15.65 Q75.25 14.85 74.45 15.35 L75.7 13.95 76.95 12.75 76.8 12.6 Q76.4 12.15 75.8 12.0 75.45 11.9 75.45 11.3 75.45 10.9 75.75 10.35 76.05 9.85 76.45 9.65 M59.3 0.0 L61.7 1.35 Q60.65 2.25 60.3 3.15 L60.0 2.9 59.55 1.85 Q59.3 1.5 58.85 1.5 L58.1 2.4 57.3 3.45 56.55 1.9 56.0 0.6 55.85 0.75 Q55.85 1.45 54.75 2.75 L53.0 1.8 Q52.25 1.6 51.6 0.75 L50.9 0.0 59.3 0.0 M45.0 1.05 L42.65 1.65 42.05 0.6 41.65 0.0 47.4 0.0 45.0 1.05 M49.6 0.7 Q48.75 1.35 48.6 1.8 L48.0 0.8 47.65 0.0 50.9 0.0 Q50.45 0.0 49.6 0.7 M76.9 33.4 L76.95 33.35 76.2 32.45 75.6 31.35 76.5 31.1 76.25 30.5 75.9 30.0 76.7 29.55 77.0 29.55 77.0 33.45 76.9 33.4 M77.0 25.2 L77.0 27.3 Q76.0 26.45 74.75 26.4 L74.9 26.4 Q75.25 25.95 76.4 25.45 L77.0 25.2 M24.65 0.0 L40.15 0.0 Q37.45 1.2 36.0 3.15 36.0 2.9 35.7 2.9 L34.8 1.2 34.0 2.5 33.65 3.45 33.35 3.45 Q33.15 2.7 32.25 1.8 32.1 2.15 32.1 3.15 L31.95 3.15 30.5 1.35 29.8 3.3 28.95 2.75 28.1 2.25 24.65 0.0 M0.0 5.65 L0.75 6.1 0.15 6.5 0.0 6.6 0.0 5.65 M1.35 9.2 L0.0 10.4 0.0 8.05 0.15 8.2 1.35 9.2 M0.0 11.15 L1.5 11.75 Q0.1 12.45 0.0 13.2 L0.0 11.15 M0.0 13.2 Q0.95 13.4 2.25 14.1 L3.6 14.9 2.5 15.8 Q1.6 16.2 1.35 16.95 L3.45 17.9 3.15 19.0 Q3.15 19.5 5.05 20.3 L8.1 21.35 7.8 21.5 Q6.25 21.5 3.0 24.1 L3.3 24.65 4.2 25.2 3.9 25.2 1.05 26.0 Q0.4 26.3 0.0 27.2 L1.65 27.95 1.5 28.35 0.1 28.75 0.0 28.8 0.0 27.2 0.0 13.2 M0.0 30.25 L0.3 30.65 0.0 30.95 0.0 30.25 M12.9 33.5 L13.15 33.8 13.65 34.25 13.75 33.95 14.1 33.8 14.45 34.1 14.75 33.15 14.9 33.35 15.35 34.25 15.5 34.1 15.6 34.1 15.6 33.35 Q16.35 33.55 17.9 35.1 18.15 34.3 18.9 33.0 L20.1 35.4 21.5 33.8 21.9 34.1 22.15 33.35 22.5 32.85 23.55 35.25 23.7 35.1 24.2 34.35 24.65 33.65 25.5 35.1 Q25.5 34.95 25.8 34.95 L25.8 34.5 Q26.0 36.05 26.9 37.0 L0.75 37.0 1.2 36.65 3.0 35.25 Q3.2 36.05 3.6 36.3 L4.1 35.7 Q4.6 35.25 4.9 35.25 L5.3 35.4 5.75 35.85 7.2 34.1 7.95 35.7 Q8.45 35.75 9.6 34.95 L10.95 33.95 11.6 34.65 12.9 33.5" fill="#999999" fill-opacity="0.5137255" fill-rule="evenodd" stroke="none"/>
    </g>
    <g id="sprite0" transform="matrix(1.0, 0.0, 0.0, 1.0, -79.4, 43.0)">
      <use height="208.8" transform="matrix(0.3384, 0.0, 0.0, 0.3384, 125.4724, -13.7806)" width="212.15" xlink:href="#sprite1"/>
      <use height="208.8" transform="matrix(0.1398, 0.3057, 0.3057, -0.1398, 101.6102, -13.8373)" width="212.15" xlink:href="#sprite1"/>
      <use height="208.8" transform="matrix(-0.1882, 0.149, 0.149, 0.1882, 128.1017, -20.7503)" width="212.15" xlink:href="#sprite1"/>
      <use height="208.8" transform="matrix(-0.2842, 0.0, 0.0, -0.2842, 159.5887, 33.2307)" width="212.15" xlink:href="#sprite1"/>
      <use height="208.8" transform="matrix(0.267, -0.219, -0.219, -0.267, 125.1218, 68.6134)" width="212.15" xlink:href="#sprite1"/>
      <use height="208.8" transform="matrix(-0.0387, -0.1975, -0.1975, 0.0387, 187.8556, 32.7518)" width="212.15" xlink:href="#sprite1"/>
    </g>
    <g id="sprite1" transform="matrix(1.0, 0.0, 0.0, 1.0, 77.2, 45.15)">
      <use height="26.65" transform="matrix(1.0, 0.0, 0.0, 1.0, 11.15, 4.35)" width="36.4" xlink:href="#sprite2"/>
      <use height="26.65" transform="matrix(0.5278, -0.306, 0.7939, 1.3692, 49.05, 9.35)" width="36.4" xlink:href="#sprite2"/>
      <use height="26.65" transform="matrix(1.0, 0.0, 1.6729, 0.718, -12.85, 26.7)" width="36.4" xlink:href="#sprite2"/>
      <use height="26.65" transform="matrix(0.7903, -0.5799, 1.7121, 0.7026, 40.8, 56.55)" width="36.4" xlink:href="#sprite2"/>
      <use height="26.65" transform="matrix(1.728, 0.0, -0.22, 0.6442, -0.15, 58.15)" width="36.4" xlink:href="#sprite2"/>
    </g>
    <g id="sprite2" transform="matrix(1.0, 0.0, 0.0, 1.0, 0.0, 0.0)">
      <use height="25.45" transform="matrix(1.0, 0.0, 0.0, 1.0, 0.2, 0.0)" width="36.2" xlink:href="#sprite3"/>
      <use height="25.45" transform="matrix(1.0, 0.0, 0.0, 1.0, 0.0, 1.2)" width="36.2" xlink:href="#sprite3"/>
    </g>
    <g id="sprite3" transform="matrix(1.0, 0.0, 0.0, 1.0, 0.0, 0.0)">
      <use height="25.45" transform="matrix(1.0, 0.0, 0.0, 1.0, 0.0, 0.0)" width="36.2" xlink:href="#shape1"/>
    </g>
    <g id="shape1" transform="matrix(1.0, 0.0, 0.0, 1.0, 0.0, 0.0)">
      <path d="M28.8 25.45 L14.35 14.3 0.0 10.2 18.0 0.0 36.2 6.7 32.05 16.0 34.95 17.8 28.8 25.45" fill="#d9d9d9" fill-opacity="0.88235295" fill-rule="evenodd" stroke="none"/>
    </g>
  </defs>
</svg>
