<?xml version="1.0" encoding="UTF-8" standalone="no"?>
<svg xmlns:xlink="http://www.w3.org/1999/xlink" height="77.95px" width="221.9px" xmlns="http://www.w3.org/2000/svg">
  <g transform="matrix(1.0, 0.0, 0.0, 1.0, 109.85, 61.1)">
    <use height="16.6" transform="matrix(1.0, 0.0, 0.0, 1.0, -61.1, -24.25)" width="171.85" xlink:href="#sprite0"/>
    <use height="33.45" transform="matrix(1.0, 0.0, 0.0, 1.0, -109.65, -21.6)" width="38.65" xlink:href="#sprite1"/>
  </g>
  <defs>
    <g id="sprite0" transform="matrix(1.0, 0.0, 0.0, 1.0, 85.9, 8.3)">
      <use height="16.6" transform="matrix(1.0, 0.0, 0.0, 1.0, -85.9, -8.3)" width="171.85" xlink:href="#text0"/>
    </g>
    <g id="sprite1" transform="matrix(1.0, 0.0, 0.0, 1.0, 19.3, 16.35)">
      <use height="33.45" transform="matrix(1.0, 0.0, 0.0, 1.0, -19.3, -16.35)" width="38.65" xlink:href="#shape0"/>
    </g>
    <g id="shape0" transform="matrix(1.0, 0.0, 0.0, 1.0, 19.3, 16.35)">
      <path d="M10.0 -8.2 L8.75 -8.6 8.75 -8.65 8.55 -9.55 13.25 -8.85 11.65 -6.6 11.55 -6.6 11.55 -6.45 11.5 -6.35 11.5 -6.25 Q11.15 -5.4 10.3 -5.0 L10.85 -5.0 10.9 -4.85 13.55 -8.75 13.6 -8.2 13.6 -7.7 13.35 -4.4 11.55 -3.65 13.75 -4.2 18.9 1.4 18.8 1.5 18.75 1.55 18.65 1.6 17.45 1.85 17.3 2.05 17.15 2.1 17.0 2.0 13.85 3.25 Q12.0 4.1 10.1 4.35 L9.55 4.55 9.5 4.05 8.85 1.45 Q8.05 -0.35 7.0 -1.25 L3.2 -3.85 3.2 -3.8 2.7 -4.1 6.6 -5.15 8.0 -5.15 8.55 -5.35 8.75 -5.7 10.9 -6.3 10.8 -6.5 10.7 -6.6 10.6 -6.65 Q10.4 -6.95 10.45 -7.3 L9.9 -7.75 10.1 -8.1 10.05 -8.15 10.05 -8.2 10.0 -8.2 M0.0 -9.2 L0.15 -7.05 0.15 -5.9 0.15 -5.8 -0.45 -6.3 Q-0.9 -6.85 -0.9 -8.1 L-0.7 -9.15 -0.35 -9.3 0.0 -9.2 M8.8 -7.2 L8.8 -8.2 10.35 -6.6 9.65 -6.3 8.95 -6.1 8.75 -6.05 8.8 -7.2 M9.15 -6.7 L9.45 -6.4 9.7 -6.7 9.15 -6.7 M4.35 -4.95 L4.3 -5.0 4.25 -5.0 4.3 -5.05 3.55 -4.95 4.0 -4.9 2.3 -4.4 1.15 -5.15 5.1 -5.15 5.0 -5.1 4.9 -5.05 4.8 -5.0 4.7 -5.0 4.6 -4.95 4.5 -4.95 4.4 -4.95 4.35 -4.95 M13.2 -2.9 L13.75 -2.4 12.95 -3.45 13.2 -2.9 M14.2 -2.4 L14.15 -2.6 Q13.85 -3.3 13.2 -3.5 L14.2 -2.4 M12.7 -3.0 L12.9 -2.95 12.45 -3.35 12.7 -3.0 M8.05 -0.45 L7.9 -0.35 8.5 0.1 Q9.75 1.3 9.9 3.05 L12.6 2.4 12.5 2.3 Q13.25 1.95 14.05 1.85 L13.7 2.0 13.35 2.35 13.55 2.3 13.6 2.3 13.65 2.25 13.7 2.25 13.75 2.2 13.95 2.25 14.1 2.3 14.15 2.35 14.2 2.25 14.9 2.15 15.6 1.7 15.6 1.5 15.8 1.0 Q16.0 0.8 16.25 0.7 L16.3 0.75 16.1 0.45 14.3 -1.45 13.2 -1.45 12.6 -1.95 12.55 -1.5 12.15 -1.75 12.3 -1.9 11.2 -1.85 11.2 -1.7 11.1 -1.6 11.35 -1.25 10.8 -1.25 11.0 -1.2 10.3 -0.7 9.8 -0.85 8.8 -0.4 8.55 -0.45 8.45 -0.5 8.05 -0.45 M19.35 1.9 L19.35 2.0 18.5 5.0 18.25 5.65 9.2 8.9 Q9.55 7.45 9.55 5.65 L9.55 5.1 19.35 1.7 19.35 1.9 M0.15 6.1 L0.2 7.7 -0.85 8.1 -0.95 5.7 -0.95 5.6 -0.55 6.25 0.15 6.1 M0.2 8.25 L0.0 9.05 -0.45 9.2 -0.75 9.05 -0.85 8.55 0.2 8.25 M9.85 3.8 L10.05 3.85 10.15 3.65 9.85 3.8 M10.9 3.6 L11.2 3.45 10.75 3.4 10.9 3.6 M-10.25 -7.45 L-9.6 -7.3 -9.6 -7.15 Q-9.6 -4.75 -8.7 -2.9 L-8.7 -2.85 -8.0 -1.65 -11.0 -0.95 -10.75 -0.95 -11.1 -0.9 -11.2 -0.95 -11.3 -0.7 -11.5 -0.75 -12.9 -4.15 -12.9 -4.45 -12.7 -4.35 -12.65 -4.85 -12.95 -5.0 -12.85 -4.6 -13.15 -5.1 -13.1 -5.2 -12.9 -5.25 -13.5 -5.85 -10.9 -6.8 -10.3 -7.35 -10.25 -7.45 M-12.2 -3.1 L-12.35 -3.1 -12.35 -2.95 -12.2 -2.95 -12.2 -3.1 M-12.25 -3.7 L-12.3 -3.8 -12.45 -3.85 -12.55 -3.8 -12.6 -3.7 -12.55 -3.55 -12.45 -3.5 -12.3 -3.55 -12.25 -3.7 M-11.4 -5.75 L-11.5 -5.85 -11.25 -5.2 Q-11.15 -5.5 -11.4 -5.75 M-10.7 -5.15 Q-10.5 -5.7 -11.05 -5.95 L-11.0 -5.8 Q-10.7 -5.25 -11.15 -4.9 L-11.55 -5.0 -11.65 -4.9 -12.1 -4.65 Q-11.35 -4.7 -10.7 -5.15 M-13.65 -5.05 L-12.05 -0.25 -7.8 -1.35 -6.5 0.05 -2.0 3.1 -1.75 3.25 -4.15 3.25 -4.4 2.8 -4.45 3.05 -4.45 3.25 -8.75 3.25 -9.3 3.5 -9.5 4.0 -9.5 5.4 -9.45 6.3 -18.65 4.25 -13.35 -3.15 -13.65 -5.05 M-17.15 3.45 Q-16.95 3.75 -16.6 3.65 -16.85 3.35 -17.2 3.4 L-17.15 3.45 M-17.05 3.15 L-16.65 3.35 -16.35 3.15 -17.05 3.15 M-15.5 1.45 L-15.65 1.45 -15.7 1.8 -15.5 1.45 M-9.45 6.75 Q-9.3 9.1 -8.55 10.7 L-8.75 11.1 -11.1 10.65 Q-15.05 10.0 -18.4 8.45 L-18.6 8.25 -18.7 7.25 -18.5 7.0 -18.5 6.95 -18.55 6.95 -18.6 6.85 -19.2 5.05 -18.85 5.0 -19.3 4.65 -9.45 6.75 M-10.85 -1.95 L-10.8 -1.85 -10.7 -1.85 -10.6 -1.85 -10.55 -1.95 -10.6 -2.05 -10.7 -2.1 -10.8 -2.05 -10.85 -1.95" fill="#ffffff" fill-opacity="0.4627451" fill-rule="evenodd" stroke="none"/>
      <path d="M1.3 -14.1 Q4.55 -13.7 6.2 -11.9 7.8 -10.15 7.8 -7.0 L7.75 -5.7 0.65 -5.7 0.65 -6.85 Q0.65 -8.75 0.45 -9.3 0.2 -9.9 -0.6 -9.9 -1.25 -9.9 -1.6 -9.35 L-1.9 -7.9 Q-1.9 -6.25 -1.25 -5.55 L2.55 -3.0 4.35 -1.85 4.35 -1.8 4.4 -1.55 4.1 -1.65 Q3.4 -1.65 3.4 -1.05 3.4 -0.4 4.0 -0.4 4.65 -0.4 4.65 -1.05 L4.6 -1.2 4.95 -1.15 5.35 -1.2 6.25 -0.5 7.45 1.0 Q7.0 1.1 7.0 1.55 7.0 1.8 7.15 1.9 L7.6 2.4 7.85 3.35 7.75 4.3 Q7.75 5.1 8.45 5.1 L8.55 5.1 8.55 5.85 Q8.55 8.0 8.0 9.6 L7.95 9.6 Q7.2 9.6 7.2 10.35 7.2 10.7 7.45 10.85 L7.4 10.95 Q7.15 10.95 7.05 11.1 L6.8 11.6 6.35 12.0 6.1 12.4 6.1 12.5 5.35 13.1 4.9 13.2 Q4.65 13.25 4.65 13.45 3.25 14.2 1.3 14.45 L1.3 17.1 -1.95 17.1 -1.95 16.1 -1.9 16.0 -1.4 14.95 -1.4 14.9 -1.25 14.7 -1.15 14.35 Q-1.15 13.75 -1.7 13.8 -2.25 13.85 -2.3 14.3 -4.95 13.95 -6.9 12.2 -8.15 11.05 -8.65 8.95 -8.5 8.85 -8.5 8.6 -8.5 8.3 -8.8 8.3 L-9.0 5.6 -9.0 4.2 -3.5 4.2 -3.5 4.3 -3.2 4.65 Q-2.9 4.65 -2.9 4.3 L-2.9 4.2 -2.25 4.2 -2.35 4.35 -1.95 5.25 -1.95 5.9 -1.95 6.55 -2.0 6.55 -3.05 6.75 -3.15 7.1 Q-3.2 8.0 -2.15 8.0 L-1.9 8.0 -1.75 9.45 Q-1.55 10.15 -0.7 10.15 0.05 10.15 0.4 9.65 L0.5 9.5 1.2 9.75 Q2.1 9.75 2.1 7.95 2.1 7.4 1.75 7.3 L1.75 7.25 1.9 6.9 Q1.9 6.25 1.3 6.25 0.8 6.25 0.7 6.7 L0.4 4.85 0.2 4.4 0.3 3.9 Q0.35 3.15 -0.3 3.15 L-0.85 3.35 -1.85 2.65 -4.7 0.8 -4.7 0.7 Q-4.7 0.15 -5.45 0.0 L-5.8 0.0 -6.0 -0.15 -5.85 -0.5 -5.95 -0.8 Q-6.1 -1.1 -6.4 -1.1 L-6.9 -1.0 -8.25 -3.0 Q-8.95 -4.5 -9.05 -6.25 L-8.55 -6.8 Q-8.3 -7.2 -8.3 -7.5 L-8.5 -8.2 -8.9 -8.75 Q-8.65 -10.2 -7.85 -11.25 -7.15 -11.5 -5.3 -13.0 L-4.8 -13.4 -4.4 -13.55 -2.8 -13.95 -2.6 -13.95 Q-2.35 -13.95 -2.25 -14.05 L-1.95 -14.1 -1.95 -16.35 1.3 -16.35 1.3 -14.1 M-1.75 2.5 Q-1.4 2.5 -1.4 2.15 -1.4 1.8 -1.75 1.85 L-2.1 2.2 -1.75 2.5 M0.7 7.1 L0.85 7.4 0.7 7.45 0.7 7.1 M0.8 3.05 Q0.4 3.05 0.4 3.3 0.4 3.7 0.75 3.7 L1.1 3.4 Q1.1 3.05 0.8 3.05" fill="#ffffff" fill-opacity="0.69803923" fill-rule="evenodd" stroke="none"/>
    </g>
  </defs>
</svg>
