<?xml version="1.0" encoding="UTF-8" standalone="no"?>
<svg xmlns:xlink="http://www.w3.org/1999/xlink" height="17.0px" width="123.0px" xmlns="http://www.w3.org/2000/svg">
  <g transform="matrix(1.0, 0.0, 0.0, 1.0, 64.5, 8.5)">
    <use height="17.0" transform="matrix(1.0, 0.0, 0.0, 1.0, -64.5, -8.5)" width="123.0" xlink:href="#text0"/>
  </g>
  <defs>
    <g id="text0" transform="matrix(1.0, 0.0, 0.0, 1.0, 0.0, -5.0)">
      <g transform="matrix(1.0, 0.0, 0.0, 1.0, 0.0, 0.0)">
        <use fill="#ffffff" fill-opacity="0.4117647" height="17.0" transform="matrix(0.0293, 0.0, 0.0, 0.0293, 0.0, 21.0)" width="123.0" xlink:href="#font_Visitor_TT1_BRK_r0"/>
        <use fill="#ffffff" fill-opacity="0.4117647" height="17.0" transform="matrix(0.0293, 0.0, 0.0, 0.0293, 18.0, 21.0)" width="123.0" xlink:href="#font_Visitor_TT1_BRK_e0"/>
        <use fill="#ffffff" fill-opacity="0.4117647" height="17.0" transform="matrix(0.0293, 0.0, 0.0, 0.0293, 36.0, 21.0)" width="123.0" xlink:href="#font_Visitor_TT1_BRK_l0"/>
        <use fill="#ffffff" fill-opacity="0.4117647" height="17.0" transform="matrix(0.0293, 0.0, 0.0, 0.0293, 54.0, 21.0)" width="123.0" xlink:href="#font_Visitor_TT1_BRK_o0"/>
        <use fill="#ffffff" fill-opacity="0.4117647" height="17.0" transform="matrix(0.0293, 0.0, 0.0, 0.0293, 72.0, 21.0)" width="123.0" xlink:href="#font_Visitor_TT1_BRK_a0"/>
        <use fill="#ffffff" fill-opacity="0.4117647" height="17.0" transform="matrix(0.0293, 0.0, 0.0, 0.0293, 90.0, 21.0)" width="123.0" xlink:href="#font_Visitor_TT1_BRK_d0"/>
      </g>
    </g>
    <g id="font_Visitor_TT1_BRK_r0">
      <path d="M102.5 -409.5 L102.5 -307.0 409.5 -307.0 409.5 -409.5 102.5 -409.5 M307.5 -102.5 L307.5 -205.0 102.5 -205.0 102.5 0.0 0.0 0.0 0.0 -512.0 512.0 -512.0 512.0 -205.0 409.5 -205.0 409.5 -102.5 512.0 -102.5 512.0 0.0 409.5 0.0 409.5 -102.5 307.5 -102.5" fill-rule="evenodd" stroke="none"/>
    </g>
    <g id="font_Visitor_TT1_BRK_e0">
      <path d="M0.0 0.0 L0.0 -512.0 512.0 -512.0 512.0 -409.5 102.5 -409.5 102.5 -307.0 307.5 -307.0 307.5 -205.0 102.5 -205.0 102.5 -102.5 512.0 -102.5 512.0 0.0 0.0 0.0" fill-rule="evenodd" stroke="none"/>
    </g>
    <g id="font_Visitor_TT1_BRK_l0">
      <path d="M0.0 0.0 L0.0 -512.0 102.5 -512.0 102.5 -102.5 512.0 -102.5 512.0 0.0 0.0 0.0" fill-rule="evenodd" stroke="none"/>
    </g>
    <g id="font_Visitor_TT1_BRK_o0">
      <path d="M102.5 -409.5 L102.5 -102.5 409.5 -102.5 409.5 -409.5 102.5 -409.5 M0.0 0.0 L0.0 -512.0 512.0 -512.0 512.0 0.0 0.0 0.0" fill-rule="evenodd" stroke="none"/>
    </g>
    <g id="font_Visitor_TT1_BRK_a0">
      <path d="M102.5 -409.5 L102.5 -307.0 409.5 -307.0 409.5 -409.5 102.5 -409.5 M409.5 0.0 L409.5 -205.0 102.5 -205.0 102.5 0.0 0.0 0.0 0.0 -512.0 512.0 -512.0 512.0 0.0 409.5 0.0" fill-rule="evenodd" stroke="none"/>
    </g>
    <g id="font_Visitor_TT1_BRK_d0">
      <path d="M0.0 0.0 L0.0 -512.0 409.5 -512.0 409.5 -409.5 512.0 -409.5 512.0 -102.5 409.5 -102.5 409.5 -409.5 102.5 -409.5 102.5 -102.5 409.5 -102.5 409.5 0.0 0.0 0.0" fill-rule="evenodd" stroke="none"/>
    </g>
  </defs>
</svg>
