<?xml version="1.0" encoding="UTF-8" standalone="no"?>
<svg xmlns:xlink="http://www.w3.org/1999/xlink" height="76.2px" width="208.1px" xmlns="http://www.w3.org/2000/svg">
  <g transform="matrix(1.0, 0.0, 0.0, 1.0, 15.8, 12.8)">
    <use height="76.2" transform="matrix(1.0, 0.0, 0.0, 1.0, -15.8, -12.8)" width="208.1" xlink:href="#sprite0"/>
  </g>
  <defs>
    <g id="sprite0" transform="matrix(1.0, 0.0, 0.0, 1.0, 15.8, 12.8)">
      <use height="7.5" transform="matrix(1.0, 0.0, 0.0, 1.0, 2.0, -12.8)" width="137.5" xlink:href="#text0"/>
      <use height="43.2" transform="matrix(1.0, 0.0, 0.0, 1.0, 2.0, -2.9)" width="190.3" xlink:href="#text1"/>
      <use height="17.5" transform="matrix(1.0, 0.0, 0.0, 1.0, -15.8, 45.9)" width="193.65" xlink:href="#sprite1"/>
    </g>
    <g id="text0" transform="matrix(1.0, 0.0, 0.0, 1.0, 0.0, -1.2)">
      <g transform="matrix(1.0, 0.0, 0.0, 1.0, 0.0, 0.0)">
        <use fill="#ffffff" fill-opacity="0.94509804" height="7.5" transform="matrix(0.0107, 0.0, 0.0, 0.0107, 0.0, 8.0)" width="137.5" xlink:href="#font_Visitor_TT1_BRK_n0"/>
        <use fill="#ffffff" fill-opacity="0.94509804" height="7.5" transform="matrix(0.0107, 0.0, 0.0, 0.0107, 6.6, 8.0)" width="137.5" xlink:href="#font_Visitor_TT1_BRK_o0"/>
        <use fill="#ffffff" fill-opacity="0.94509804" height="7.5" transform="matrix(0.0107, 0.0, 0.0, 0.0107, 19.8, 8.0)" width="137.5" xlink:href="#font_Visitor_TT1_BRK_s0"/>
        <use fill="#ffffff" fill-opacity="0.94509804" height="7.5" transform="matrix(0.0107, 0.0, 0.0, 0.0107, 26.4, 8.0)" width="137.5" xlink:href="#font_Visitor_TT1_BRK_a0"/>
        <use fill="#ffffff" fill-opacity="0.94509804" height="7.5" transform="matrix(0.0107, 0.0, 0.0, 0.0107, 33.0, 8.0)" width="137.5" xlink:href="#font_Visitor_TT1_BRK_v0"/>
        <use fill="#ffffff" fill-opacity="0.94509804" height="7.5" transform="matrix(0.0107, 0.0, 0.0, 0.0107, 39.6, 8.0)" width="137.5" xlink:href="#font_Visitor_TT1_BRK_e0"/>
        <use fill="#ffffff" fill-opacity="0.94509804" height="7.5" transform="matrix(0.0107, 0.0, 0.0, 0.0107, 46.2, 8.0)" width="137.5" xlink:href="#font_Visitor_TT1_BRK_d0"/>
        <use fill="#ffffff" fill-opacity="0.94509804" height="7.5" transform="matrix(0.0107, 0.0, 0.0, 0.0107, 59.4, 8.0)" width="137.5" xlink:href="#font_Visitor_TT1_BRK_g0"/>
        <use fill="#ffffff" fill-opacity="0.94509804" height="7.5" transform="matrix(0.0107, 0.0, 0.0, 0.0107, 66.0, 8.0)" width="137.5" xlink:href="#font_Visitor_TT1_BRK_a0"/>
        <use fill="#ffffff" fill-opacity="0.94509804" height="7.5" transform="matrix(0.0107, 0.0, 0.0, 0.0107, 72.6, 8.0)" width="137.5" xlink:href="#font_Visitor_TT1_BRK_m0"/>
        <use fill="#ffffff" fill-opacity="0.94509804" height="7.5" transform="matrix(0.0107, 0.0, 0.0, 0.0107, 79.2, 8.0)" width="137.5" xlink:href="#font_Visitor_TT1_BRK_e0"/>
        <use fill="#ffffff" fill-opacity="0.94509804" height="7.5" transform="matrix(0.0107, 0.0, 0.0, 0.0107, 92.4, 8.0)" width="137.5" xlink:href="#font_Visitor_TT1_BRK_f0"/>
        <use fill="#ffffff" fill-opacity="0.94509804" height="7.5" transform="matrix(0.0107, 0.0, 0.0, 0.0107, 99.0, 8.0)" width="137.5" xlink:href="#font_Visitor_TT1_BRK_o0"/>
        <use fill="#ffffff" fill-opacity="0.94509804" height="7.5" transform="matrix(0.0107, 0.0, 0.0, 0.0107, 105.6, 8.0)" width="137.5" xlink:href="#font_Visitor_TT1_BRK_u0"/>
        <use fill="#ffffff" fill-opacity="0.94509804" height="7.5" transform="matrix(0.0107, 0.0, 0.0, 0.0107, 112.2, 8.0)" width="137.5" xlink:href="#font_Visitor_TT1_BRK_n0"/>
        <use fill="#ffffff" fill-opacity="0.94509804" height="7.5" transform="matrix(0.0107, 0.0, 0.0, 0.0107, 118.8, 8.0)" width="137.5" xlink:href="#font_Visitor_TT1_BRK_d0"/>
        <use fill="#ffffff" fill-opacity="0.94509804" height="7.5" transform="matrix(0.0107, 0.0, 0.0, 0.0107, 125.4, 8.0)" width="137.5" xlink:href="#font_Visitor_TT1_BRK_.0"/>
        <use fill="#ffffff" fill-opacity="0.94509804" height="7.5" transform="matrix(0.0107, 0.0, 0.0, 0.0107, 127.6, 8.0)" width="137.5" xlink:href="#font_Visitor_TT1_BRK_.0"/>
        <use fill="#ffffff" fill-opacity="0.94509804" height="7.5" transform="matrix(0.0107, 0.0, 0.0, 0.0107, 129.8, 8.0)" width="137.5" xlink:href="#font_Visitor_TT1_BRK_.0"/>
      </g>
    </g>
    <g id="font_Visitor_TT1_BRK_n0">
      <path d="M409.5 0.0 L409.5 -409.5 102.5 -409.5 102.5 0.0 0.0 0.0 0.0 -512.0 512.0 -512.0 512.0 0.0 409.5 0.0" fill-rule="evenodd" stroke="none"/>
    </g>
    <g id="font_Visitor_TT1_BRK_o0">
      <path d="M102.5 -409.5 L102.5 -102.5 409.5 -102.5 409.5 -409.5 102.5 -409.5 M0.0 0.0 L0.0 -512.0 512.0 -512.0 512.0 0.0 0.0 0.0" fill-rule="evenodd" stroke="none"/>
    </g>
    <g id="font_Visitor_TT1_BRK_s0">
      <path d="M0.0 -205.0 L0.0 -512.0 512.0 -512.0 512.0 -409.5 102.5 -409.5 102.5 -307.0 512.0 -307.0 512.0 0.0 0.0 0.0 0.0 -102.5 409.5 -102.5 409.5 -205.0 0.0 -205.0" fill-rule="evenodd" stroke="none"/>
    </g>
    <g id="font_Visitor_TT1_BRK_a0">
      <path d="M102.5 -409.5 L102.5 -307.0 409.5 -307.0 409.5 -409.5 102.5 -409.5 M409.5 0.0 L409.5 -205.0 102.5 -205.0 102.5 0.0 0.0 0.0 0.0 -512.0 512.0 -512.0 512.0 0.0 409.5 0.0" fill-rule="evenodd" stroke="none"/>
    </g>
    <g id="font_Visitor_TT1_BRK_v0">
      <path d="M307.0 -102.5 L307.0 -205.0 409.5 -205.0 409.5 -102.5 307.0 -102.5 M409.5 -205.0 L409.5 -512.0 512.0 -512.0 512.0 -205.0 409.5 -205.0 M102.5 -102.5 L102.5 -205.0 0.0 -205.0 0.0 -512.0 102.5 -512.0 102.5 -205.0 205.0 -205.0 205.0 -102.5 307.5 -102.5 307.5 0.0 205.0 0.0 205.0 -102.5 102.5 -102.5" fill-rule="evenodd" stroke="none"/>
    </g>
    <g id="font_Visitor_TT1_BRK_e0">
      <path d="M0.0 0.0 L0.0 -512.0 512.0 -512.0 512.0 -409.5 102.5 -409.5 102.5 -307.0 307.5 -307.0 307.5 -205.0 102.5 -205.0 102.5 -102.5 512.0 -102.5 512.0 0.0 0.0 0.0" fill-rule="evenodd" stroke="none"/>
    </g>
    <g id="font_Visitor_TT1_BRK_d0">
      <path d="M0.0 0.0 L0.0 -512.0 409.5 -512.0 409.5 -409.5 512.0 -409.5 512.0 -102.5 409.5 -102.5 409.5 -409.5 102.5 -409.5 102.5 -102.5 409.5 -102.5 409.5 0.0 0.0 0.0" fill-rule="evenodd" stroke="none"/>
    </g>
    <g id="font_Visitor_TT1_BRK_g0">
      <path d="M0.0 0.0 L0.0 -512.0 512.0 -512.0 512.0 -409.5 102.5 -409.5 102.5 -102.5 409.5 -102.5 409.5 -205.0 205.0 -205.0 205.0 -307.0 512.0 -307.0 512.0 0.0 0.0 0.0" fill-rule="evenodd" stroke="none"/>
    </g>
    <g id="font_Visitor_TT1_BRK_m0">
      <path d="M205.0 0.0 L205.0 -409.5 102.5 -409.5 102.5 0.0 0.0 0.0 0.0 -512.0 512.0 -512.0 512.0 0.0 409.5 0.0 409.5 -409.5 307.5 -409.5 307.5 0.0 205.0 0.0" fill-rule="evenodd" stroke="none"/>
    </g>
    <g id="font_Visitor_TT1_BRK_f0">
      <path d="M0.0 0.0 L0.0 -512.0 512.0 -512.0 512.0 -409.5 102.5 -409.5 102.5 -307.0 307.5 -307.0 307.5 -205.0 102.5 -205.0 102.5 0.0 0.0 0.0" fill-rule="evenodd" stroke="none"/>
    </g>
    <g id="font_Visitor_TT1_BRK_u0">
      <path d="M0.0 0.0 L0.0 -512.0 102.5 -512.0 102.5 -102.5 409.5 -102.5 409.5 -512.0 512.0 -512.0 512.0 0.0 0.0 0.0" fill-rule="evenodd" stroke="none"/>
    </g>
    <g id="font_Visitor_TT1_BRK_.0">
      <path d="M0.0 0.0 L0.0 -102.5 102.5 -102.5 102.5 0.0 0.0 0.0" fill-rule="evenodd" stroke="none"/>
    </g>
    <g id="text1" transform="matrix(1.0, 0.0, 0.0, 1.0, 0.0, -1.2)">
      <g transform="matrix(1.0, 0.0, 0.0, 1.0, 0.0, 0.0)">
        <use fill="#cc0000" fill-opacity="0.94509804" height="43.2" transform="matrix(0.0107, 0.0, 0.0, 0.0107, 0.0, 8.0)" width="190.3" xlink:href="#font_Visitor_TT1_BRK_m0"/>
        <use fill="#cc0000" fill-opacity="0.94509804" height="43.2" transform="matrix(0.0107, 0.0, 0.0, 0.0107, 6.6, 8.0)" width="190.3" xlink:href="#font_Visitor_TT1_BRK_a0"/>
        <use fill="#cc0000" fill-opacity="0.94509804" height="43.2" transform="matrix(0.0107, 0.0, 0.0, 0.0107, 13.2, 8.0)" width="190.3" xlink:href="#font_Visitor_TT1_BRK_y0"/>
        <use fill="#cc0000" fill-opacity="0.94509804" height="43.2" transform="matrix(0.0107, 0.0, 0.0, 0.0107, 19.8, 8.0)" width="190.3" xlink:href="#font_Visitor_TT1_BRK_b0"/>
        <use fill="#cc0000" fill-opacity="0.94509804" height="43.2" transform="matrix(0.0107, 0.0, 0.0, 0.0107, 26.4, 8.0)" width="190.3" xlink:href="#font_Visitor_TT1_BRK_e0"/>
        <use fill="#cc0000" fill-opacity="0.94509804" height="43.2" transform="matrix(0.0107, 0.0, 0.0, 0.0107, 39.6, 8.0)" width="190.3" xlink:href="#font_Visitor_TT1_BRK_y0"/>
        <use fill="#cc0000" fill-opacity="0.94509804" height="43.2" transform="matrix(0.0107, 0.0, 0.0, 0.0107, 46.2, 8.0)" width="190.3" xlink:href="#font_Visitor_TT1_BRK_o0"/>
        <use fill="#cc0000" fill-opacity="0.94509804" height="43.2" transform="matrix(0.0107, 0.0, 0.0, 0.0107, 52.8, 8.0)" width="190.3" xlink:href="#font_Visitor_TT1_BRK_u0"/>
        <use fill="#cc0000" fill-opacity="0.94509804" height="43.2" transform="matrix(0.0107, 0.0, 0.0, 0.0107, 66.0, 8.0)" width="190.3" xlink:href="#font_Visitor_TT1_BRK_h0"/>
        <use fill="#cc0000" fill-opacity="0.94509804" height="43.2" transform="matrix(0.0107, 0.0, 0.0, 0.0107, 72.6, 8.0)" width="190.3" xlink:href="#font_Visitor_TT1_BRK_a0"/>
        <use fill="#cc0000" fill-opacity="0.94509804" height="43.2" transform="matrix(0.0107, 0.0, 0.0, 0.0107, 79.2, 8.0)" width="190.3" xlink:href="#font_Visitor_TT1_BRK_v0"/>
        <use fill="#cc0000" fill-opacity="0.94509804" height="43.2" transform="matrix(0.0107, 0.0, 0.0, 0.0107, 85.8, 8.0)" width="190.3" xlink:href="#font_Visitor_TT1_BRK_e0"/>
        <use fill="#cc0000" fill-opacity="0.94509804" height="43.2" transform="matrix(0.0107, 0.0, 0.0, 0.0107, 99.0, 8.0)" width="190.3" xlink:href="#font_Visitor_TT1_BRK_p0"/>
        <use fill="#cc0000" fill-opacity="0.94509804" height="43.2" transform="matrix(0.0107, 0.0, 0.0, 0.0107, 105.6, 8.0)" width="190.3" xlink:href="#font_Visitor_TT1_BRK_l0"/>
        <use fill="#cc0000" fill-opacity="0.94509804" height="43.2" transform="matrix(0.0107, 0.0, 0.0, 0.0107, 112.2, 8.0)" width="190.3" xlink:href="#font_Visitor_TT1_BRK_a0"/>
        <use fill="#cc0000" fill-opacity="0.94509804" height="43.2" transform="matrix(0.0107, 0.0, 0.0, 0.0107, 118.8, 8.0)" width="190.3" xlink:href="#font_Visitor_TT1_BRK_y0"/>
        <use fill="#cc0000" fill-opacity="0.94509804" height="43.2" transform="matrix(0.0107, 0.0, 0.0, 0.0107, 125.4, 8.0)" width="190.3" xlink:href="#font_Visitor_TT1_BRK_e0"/>
        <use fill="#cc0000" fill-opacity="0.94509804" height="43.2" transform="matrix(0.0107, 0.0, 0.0, 0.0107, 132.0, 8.0)" width="190.3" xlink:href="#font_Visitor_TT1_BRK_d0"/>
        <use fill="#cc0000" fill-opacity="0.94509804" height="43.2" transform="matrix(0.0107, 0.0, 0.0, 0.0107, 145.2, 8.0)" width="190.3" xlink:href="#font_Visitor_TT1_BRK_s0"/>
        <use fill="#cc0000" fill-opacity="0.94509804" height="43.2" transform="matrix(0.0107, 0.0, 0.0, 0.0107, 151.8, 8.0)" width="190.3" xlink:href="#font_Visitor_TT1_BRK_h0"/>
        <use fill="#cc0000" fill-opacity="0.94509804" height="43.2" transform="matrix(0.0107, 0.0, 0.0, 0.0107, 158.4, 8.0)" width="190.3" xlink:href="#font_Visitor_TT1_BRK_o0"/>
        <use fill="#cc0000" fill-opacity="0.94509804" height="43.2" transform="matrix(0.0107, 0.0, 0.0, 0.0107, 165.0, 8.0)" width="190.3" xlink:href="#font_Visitor_TT1_BRK_r0"/>
        <use fill="#cc0000" fill-opacity="0.94509804" height="43.2" transform="matrix(0.0107, 0.0, 0.0, 0.0107, 171.6, 8.0)" width="190.3" xlink:href="#font_Visitor_TT1_BRK_t0"/>
        <use fill="#cc0000" fill-opacity="0.94509804" height="43.2" transform="matrix(0.0107, 0.0, 0.0, 0.0107, 178.2, 8.0)" width="190.3" xlink:href="#font_Visitor_TT1_BRK_y0"/>
      </g>
      <g transform="matrix(1.0, 0.0, 0.0, 1.0, 0.0, 0.0)">
        <use fill="#cc0000" fill-opacity="0.94509804" height="43.2" transform="matrix(0.0107, 0.0, 0.0, 0.0107, 0.0, 20.0)" width="190.3" xlink:href="#font_Visitor_TT1_BRK_c0"/>
        <use fill="#cc0000" fill-opacity="0.94509804" height="43.2" transform="matrix(0.0107, 0.0, 0.0, 0.0107, 6.6, 20.0)" width="190.3" xlink:href="#font_Visitor_TT1_BRK_o0"/>
        <use fill="#cc0000" fill-opacity="0.94509804" height="43.2" transform="matrix(0.0107, 0.0, 0.0, 0.0107, 13.2, 20.0)" width="190.3" xlink:href="#font_Visitor_TT1_BRK_v0"/>
        <use fill="#cc0000" fill-opacity="0.94509804" height="43.2" transform="matrix(0.0107, 0.0, 0.0, 0.0107, 19.8, 20.0)" width="190.3" xlink:href="#font_Visitor_TT1_BRK_e0"/>
        <use fill="#cc0000" fill-opacity="0.94509804" height="43.2" transform="matrix(0.0107, 0.0, 0.0, 0.0107, 26.4, 20.0)" width="190.3" xlink:href="#font_Visitor_TT1_BRK_r0"/>
        <use fill="#cc0000" fill-opacity="0.94509804" height="43.2" transform="matrix(0.0107, 0.0, 0.0, 0.0107, 33.0, 20.0)" width="190.3" xlink:href="#font_Visitor_TT1_BRK_s0"/>
        <use fill="#cc0000" fill-opacity="0.94509804" height="43.2" transform="matrix(0.0107, 0.0, 0.0, 0.0107, 46.2, 20.0)" width="190.3" xlink:href="#font_Visitor_TT1_BRK_o0"/>
        <use fill="#cc0000" fill-opacity="0.94509804" height="43.2" transform="matrix(0.0107, 0.0, 0.0, 0.0107, 52.8, 20.0)" width="190.3" xlink:href="#font_Visitor_TT1_BRK_n0"/>
        <use fill="#cc0000" fill-opacity="0.94509804" height="43.2" transform="matrix(0.0107, 0.0, 0.0, 0.0107, 66.0, 20.0)" width="190.3" xlink:href="#font_Visitor_TT1_BRK_a0"/>
        <use fill="#cc0000" fill-opacity="0.94509804" height="43.2" transform="matrix(0.0107, 0.0, 0.0, 0.0107, 79.2, 20.0)" width="190.3" xlink:href="#font_Visitor_TT1_BRK_a0"/>
        <use fill="#cc0000" fill-opacity="0.94509804" height="43.2" transform="matrix(0.0107, 0.0, 0.0, 0.0107, 85.8, 20.0)" width="190.3" xlink:href="#font_Visitor_TT1_BRK_n0"/>
        <use fill="#cc0000" fill-opacity="0.94509804" height="43.2" transform="matrix(0.0107, 0.0, 0.0, 0.0107, 92.4, 20.0)" width="190.3" xlink:href="#font_Visitor_TT1_BRK_o0"/>
        <use fill="#cc0000" fill-opacity="0.94509804" height="43.2" transform="matrix(0.0107, 0.0, 0.0, 0.0107, 99.0, 20.0)" width="190.3" xlink:href="#font_Visitor_TT1_BRK_t0"/>
        <use fill="#cc0000" fill-opacity="0.94509804" height="43.2" transform="matrix(0.0107, 0.0, 0.0, 0.0107, 105.6, 20.0)" width="190.3" xlink:href="#font_Visitor_TT1_BRK_h0"/>
        <use fill="#cc0000" fill-opacity="0.94509804" height="43.2" transform="matrix(0.0107, 0.0, 0.0, 0.0107, 112.2, 20.0)" width="190.3" xlink:href="#font_Visitor_TT1_BRK_e0"/>
        <use fill="#cc0000" fill-opacity="0.94509804" height="43.2" transform="matrix(0.0107, 0.0, 0.0, 0.0107, 118.8, 20.0)" width="190.3" xlink:href="#font_Visitor_TT1_BRK_r0"/>
        <use fill="#cc0000" fill-opacity="0.94509804" height="43.2" transform="matrix(0.0107, 0.0, 0.0, 0.0107, 132.0, 20.0)" width="190.3" xlink:href="#font_Visitor_TT1_BRK_w0"/>
        <use fill="#cc0000" fill-opacity="0.94509804" height="43.2" transform="matrix(0.0107, 0.0, 0.0, 0.0107, 138.6, 20.0)" width="190.3" xlink:href="#font_Visitor_TT1_BRK_e0"/>
        <use fill="#cc0000" fill-opacity="0.94509804" height="43.2" transform="matrix(0.0107, 0.0, 0.0, 0.0107, 145.2, 20.0)" width="190.3" xlink:href="#font_Visitor_TT1_BRK_b0"/>
        <use fill="#cc0000" fill-opacity="0.94509804" height="43.2" transform="matrix(0.0107, 0.0, 0.0, 0.0107, 151.8, 20.0)" width="190.3" xlink:href="#font_Visitor_TT1_BRK_s0"/>
        <use fill="#cc0000" fill-opacity="0.94509804" height="43.2" transform="matrix(0.0107, 0.0, 0.0, 0.0107, 158.4, 20.0)" width="190.3" xlink:href="#font_Visitor_TT1_BRK_i0"/>
        <use fill="#cc0000" fill-opacity="0.94509804" height="43.2" transform="matrix(0.0107, 0.0, 0.0, 0.0107, 160.6, 20.0)" width="190.3" xlink:href="#font_Visitor_TT1_BRK_t0"/>
        <use fill="#cc0000" fill-opacity="0.94509804" height="43.2" transform="matrix(0.0107, 0.0, 0.0, 0.0107, 167.2, 20.0)" width="190.3" xlink:href="#font_Visitor_TT1_BRK_e0"/>
        <use fill="#cc0000" fill-opacity="0.94509804" height="43.2" transform="matrix(0.0107, 0.0, 0.0, 0.0107, 173.8, 20.0)" width="190.3" xlink:href="#font_Visitor_TT1_BRK__1"/>
        <use fill="#cc0000" fill-opacity="0.94509804" height="43.2" transform="matrix(0.0107, 0.0, 0.0, 0.0107, 182.6, 20.0)" width="190.3" xlink:href="#font_Visitor_TT1_BRK_i0"/>
        <use fill="#cc0000" fill-opacity="0.94509804" height="43.2" transform="matrix(0.0107, 0.0, 0.0, 0.0107, 184.8, 20.0)" width="190.3" xlink:href="#font_Visitor_TT1_BRK_f0"/>
      </g>
      <g transform="matrix(1.0, 0.0, 0.0, 1.0, 0.0, 0.0)">
        <use fill="#cc0000" fill-opacity="0.94509804" height="43.2" transform="matrix(0.0107, 0.0, 0.0, 0.0107, 0.0, 32.0)" width="190.3" xlink:href="#font_Visitor_TT1_BRK_n0"/>
        <use fill="#cc0000" fill-opacity="0.94509804" height="43.2" transform="matrix(0.0107, 0.0, 0.0, 0.0107, 6.6, 32.0)" width="190.3" xlink:href="#font_Visitor_TT1_BRK_o0"/>
        <use fill="#cc0000" fill-opacity="0.94509804" height="43.2" transform="matrix(0.0107, 0.0, 0.0, 0.0107, 13.2, 32.0)" width="190.3" xlink:href="#font_Visitor_TT1_BRK_t0"/>
        <use fill="#cc0000" fill-opacity="0.94509804" height="43.2" transform="matrix(0.0107, 0.0, 0.0, 0.0107, 26.4, 32.0)" width="190.3" xlink:href="#font_Visitor_TT1_BRK_g0"/>
        <use fill="#cc0000" fill-opacity="0.94509804" height="43.2" transform="matrix(0.0107, 0.0, 0.0, 0.0107, 33.0, 32.0)" width="190.3" xlink:href="#font_Visitor_TT1_BRK_o0"/>
        <use fill="#cc0000" fill-opacity="0.94509804" height="43.2" transform="matrix(0.0107, 0.0, 0.0, 0.0107, 46.2, 32.0)" width="190.3" xlink:href="#font_Visitor_TT1_BRK_i0"/>
        <use fill="#cc0000" fill-opacity="0.94509804" height="43.2" transform="matrix(0.0107, 0.0, 0.0, 0.0107, 48.4, 32.0)" width="190.3" xlink:href="#font_Visitor_TT1_BRK_n0"/>
        <use fill="#cc0000" fill-opacity="0.94509804" height="43.2" transform="matrix(0.0107, 0.0, 0.0, 0.0107, 61.6, 32.0)" width="190.3" xlink:href="#font_Visitor_TT1_BRK_y0"/>
        <use fill="#cc0000" fill-opacity="0.94509804" height="43.2" transform="matrix(0.0107, 0.0, 0.0, 0.0107, 68.2, 32.0)" width="190.3" xlink:href="#font_Visitor_TT1_BRK_o0"/>
        <use fill="#cc0000" fill-opacity="0.94509804" height="43.2" transform="matrix(0.0107, 0.0, 0.0, 0.0107, 74.8, 32.0)" width="190.3" xlink:href="#font_Visitor_TT1_BRK_u0"/>
        <use fill="#cc0000" fill-opacity="0.94509804" height="43.2" transform="matrix(0.0107, 0.0, 0.0, 0.0107, 81.4, 32.0)" width="190.3" xlink:href="#font_Visitor_TT1_BRK_r0"/>
        <use fill="#cc0000" fill-opacity="0.94509804" height="43.2" transform="matrix(0.0107, 0.0, 0.0, 0.0107, 94.6, 32.0)" width="190.3" xlink:href="#font_Visitor_TT1_BRK_c0"/>
        <use fill="#cc0000" fill-opacity="0.94509804" height="43.2" transform="matrix(0.0107, 0.0, 0.0, 0.0107, 101.2, 32.0)" width="190.3" xlink:href="#font_Visitor_TT1_BRK_o0"/>
        <use fill="#cc0000" fill-opacity="0.94509804" height="43.2" transform="matrix(0.0107, 0.0, 0.0, 0.0107, 107.8, 32.0)" width="190.3" xlink:href="#font_Visitor_TT1_BRK_o0"/>
        <use fill="#cc0000" fill-opacity="0.94509804" height="43.2" transform="matrix(0.0107, 0.0, 0.0, 0.0107, 114.4, 32.0)" width="190.3" xlink:href="#font_Visitor_TT1_BRK_k0"/>
        <use fill="#cc0000" fill-opacity="0.94509804" height="43.2" transform="matrix(0.0107, 0.0, 0.0, 0.0107, 121.0, 32.0)" width="190.3" xlink:href="#font_Visitor_TT1_BRK_i0"/>
        <use fill="#cc0000" fill-opacity="0.94509804" height="43.2" transform="matrix(0.0107, 0.0, 0.0, 0.0107, 123.2, 32.0)" width="190.3" xlink:href="#font_Visitor_TT1_BRK_e0"/>
        <use fill="#cc0000" fill-opacity="0.94509804" height="43.2" transform="matrix(0.0107, 0.0, 0.0, 0.0107, 129.8, 32.0)" width="190.3" xlink:href="#font_Visitor_TT1_BRK_s0"/>
      </g>
      <g transform="matrix(1.0, 0.0, 0.0, 1.0, 0.0, 0.0)">
        <use fill="#cc0000" fill-opacity="0.94509804" height="43.2" transform="matrix(0.0107, 0.0, 0.0, 0.0107, 0.0, 43.0)" width="190.3" xlink:href="#font_Visitor_TT1_BRK_c0"/>
        <use fill="#cc0000" fill-opacity="0.94509804" height="43.2" transform="matrix(0.0107, 0.0, 0.0, 0.0107, 6.6, 43.0)" width="190.3" xlink:href="#font_Visitor_TT1_BRK_o0"/>
        <use fill="#cc0000" fill-opacity="0.94509804" height="43.2" transform="matrix(0.0107, 0.0, 0.0, 0.0107, 13.2, 43.0)" width="190.3" xlink:href="#font_Visitor_TT1_BRK_n0"/>
        <use fill="#cc0000" fill-opacity="0.94509804" height="43.2" transform="matrix(0.0107, 0.0, 0.0, 0.0107, 19.8, 43.0)" width="190.3" xlink:href="#font_Visitor_TT1_BRK_f0"/>
        <use fill="#cc0000" fill-opacity="0.94509804" height="43.2" transform="matrix(0.0107, 0.0, 0.0, 0.0107, 26.4, 43.0)" width="190.3" xlink:href="#font_Visitor_TT1_BRK_i0"/>
        <use fill="#cc0000" fill-opacity="0.94509804" height="43.2" transform="matrix(0.0107, 0.0, 0.0, 0.0107, 28.6, 43.0)" width="190.3" xlink:href="#font_Visitor_TT1_BRK_g0"/>
        <use fill="#cc0000" fill-opacity="0.94509804" height="43.2" transform="matrix(0.0107, 0.0, 0.0, 0.0107, 35.2, 43.0)" width="190.3" xlink:href="#font_Visitor_TT1_BRK_u0"/>
        <use fill="#cc0000" fill-opacity="0.94509804" height="43.2" transform="matrix(0.0107, 0.0, 0.0, 0.0107, 41.8, 43.0)" width="190.3" xlink:href="#font_Visitor_TT1_BRK_r0"/>
        <use fill="#cc0000" fill-opacity="0.94509804" height="43.2" transform="matrix(0.0107, 0.0, 0.0, 0.0107, 48.4, 43.0)" width="190.3" xlink:href="#font_Visitor_TT1_BRK_a0"/>
        <use fill="#cc0000" fill-opacity="0.94509804" height="43.2" transform="matrix(0.0107, 0.0, 0.0, 0.0107, 55.0, 43.0)" width="190.3" xlink:href="#font_Visitor_TT1_BRK_t0"/>
        <use fill="#cc0000" fill-opacity="0.94509804" height="43.2" transform="matrix(0.0107, 0.0, 0.0, 0.0107, 61.6, 43.0)" width="190.3" xlink:href="#font_Visitor_TT1_BRK_i0"/>
        <use fill="#cc0000" fill-opacity="0.94509804" height="43.2" transform="matrix(0.0107, 0.0, 0.0, 0.0107, 63.8, 43.0)" width="190.3" xlink:href="#font_Visitor_TT1_BRK_o0"/>
        <use fill="#cc0000" fill-opacity="0.94509804" height="43.2" transform="matrix(0.0107, 0.0, 0.0, 0.0107, 70.4, 43.0)" width="190.3" xlink:href="#font_Visitor_TT1_BRK_n0"/>
      </g>
    </g>
    <g id="font_Visitor_TT1_BRK_y0">
      <path d="M307.0 -307.0 L307.0 -409.5 409.5 -409.5 409.5 -307.0 307.0 -307.0 M409.5 -409.5 L409.5 -512.0 512.0 -512.0 512.0 -409.5 409.5 -409.5 M102.5 -307.0 L102.5 -409.5 0.0 -409.5 0.0 -512.0 102.5 -512.0 102.5 -409.5 205.0 -409.5 205.0 -307.0 307.5 -307.0 307.5 0.0 205.0 0.0 205.0 -307.0 102.5 -307.0" fill-rule="evenodd" stroke="none"/>
    </g>
    <g id="font_Visitor_TT1_BRK_b0">
      <path d="M409.5 -307.0 L409.5 -409.5 102.5 -409.5 102.5 -307.0 409.5 -307.0 409.5 -205.0 512.0 -205.0 512.0 0.0 0.0 0.0 0.0 -512.0 512.0 -512.0 512.0 -307.0 409.5 -307.0 M409.5 -205.0 L102.5 -205.0 102.5 -102.5 409.5 -102.5 409.5 -205.0" fill-rule="evenodd" stroke="none"/>
    </g>
    <g id="font_Visitor_TT1_BRK_h0">
      <path d="M409.5 0.0 L409.5 -205.0 102.5 -205.0 102.5 0.0 0.0 0.0 0.0 -512.0 102.5 -512.0 102.5 -307.0 409.5 -307.0 409.5 -512.0 512.0 -512.0 512.0 0.0 409.5 0.0" fill-rule="evenodd" stroke="none"/>
    </g>
    <g id="font_Visitor_TT1_BRK_p0">
      <path d="M102.5 -409.5 L102.5 -307.0 409.5 -307.0 409.5 -409.5 102.5 -409.5 M0.0 0.0 L0.0 -512.0 512.0 -512.0 512.0 -205.0 102.5 -205.0 102.5 0.0 0.0 0.0" fill-rule="evenodd" stroke="none"/>
    </g>
    <g id="font_Visitor_TT1_BRK_l0">
      <path d="M0.0 0.0 L0.0 -512.0 102.5 -512.0 102.5 -102.5 512.0 -102.5 512.0 0.0 0.0 0.0" fill-rule="evenodd" stroke="none"/>
    </g>
    <g id="font_Visitor_TT1_BRK_r0">
      <path d="M102.5 -409.5 L102.5 -307.0 409.5 -307.0 409.5 -409.5 102.5 -409.5 M307.5 -102.5 L307.5 -205.0 102.5 -205.0 102.5 0.0 0.0 0.0 0.0 -512.0 512.0 -512.0 512.0 -205.0 409.5 -205.0 409.5 -102.5 512.0 -102.5 512.0 0.0 409.5 0.0 409.5 -102.5 307.5 -102.5" fill-rule="evenodd" stroke="none"/>
    </g>
    <g id="font_Visitor_TT1_BRK_t0">
      <path d="M0.0 -409.5 L0.0 -512.0 512.0 -512.0 512.0 -409.5 307.0 -409.5 307.0 0.0 205.0 0.0 205.0 -409.5 0.0 -409.5" fill-rule="evenodd" stroke="none"/>
    </g>
    <g id="font_Visitor_TT1_BRK_c0">
      <path d="M0.0 0.0 L0.0 -512.0 512.0 -512.0 512.0 -409.5 102.5 -409.5 102.5 -102.5 512.0 -102.5 512.0 0.0 0.0 0.0" fill-rule="evenodd" stroke="none"/>
    </g>
    <g id="font_Visitor_TT1_BRK_w0">
      <path d="M0.0 0.0 L0.0 -512.0 102.5 -512.0 102.5 -102.5 205.0 -102.5 205.0 -512.0 307.5 -512.0 307.5 -102.5 409.5 -102.5 409.5 -512.0 512.0 -512.0 512.0 0.0 0.0 0.0" fill-rule="evenodd" stroke="none"/>
    </g>
    <g id="font_Visitor_TT1_BRK_i0">
      <path d="M0.0 0.0 L0.0 -512.0 102.5 -512.0 102.5 0.0 0.0 0.0" fill-rule="evenodd" stroke="none"/>
    </g>
    <g id="font_Visitor_TT1_BRK__1">
      <path d="M0.0 102.5 L0.0 -102.5 102.5 -102.5 102.5 102.5 0.0 102.5" fill-rule="evenodd" stroke="none"/>
    </g>
    <g id="font_Visitor_TT1_BRK_k0">
      <path d="M409.5 -409.5 L409.5 -512.0 512.0 -512.0 512.0 -409.5 409.5 -409.5 409.5 -307.0 307.0 -307.0 307.0 -409.5 409.5 -409.5 M307.5 -102.5 L307.5 -205.0 102.5 -205.0 102.5 0.0 0.0 0.0 0.0 -512.0 102.5 -512.0 102.5 -307.0 307.5 -307.0 307.5 -205.0 409.5 -205.0 409.5 -102.5 512.0 -102.5 512.0 0.0 409.5 0.0 409.5 -102.5 307.5 -102.5" fill-rule="evenodd" stroke="none"/>
    </g>
    <g id="sprite1" transform="matrix(1.0, 0.0, 0.0, 1.0, 23.75, 10.55)">
      <use height="13.9" id="boxx" transform="matrix(1.0, 0.0, 0.0, 1.0, -7.95, -6.95)" width="171.85" xlink:href="#sprite2"/>
      <use height="9.9" transform="matrix(1.0, 0.0, 0.0, 1.0, -23.75, -4.95)" width="87.0" xlink:href="#button0"/>
    </g>
    <g id="sprite2" transform="matrix(1.0, 0.0, 0.0, 1.0, 15.3, 6.95)">
      <use height="13.9" transform="matrix(1.0, 0.0, 0.0, 1.0, -15.3, -6.95)" width="171.85" xlink:href="#text2"/>
    </g>
    <g id="button0" transform="matrix(1.0, 0.0, 0.0, 1.0, 43.5, 4.95)">
      <use height="39.5" transform="matrix(2.2038, 0.0, 0.0, 0.2532, -43.525, -4.9999)" width="39.5" xlink:href="#shape0"/>
    </g>
    <g id="shape0" transform="matrix(1.0, 0.0, 0.0, 1.0, 19.75, 19.75)">
      <path d="M19.75 -19.75 L19.75 19.75 -19.75 19.75 -19.75 -19.75 19.75 -19.75" fill="#ffffff" fill-opacity="0.0" fill-rule="evenodd" stroke="none"/>
    </g>
  </defs>
</svg>
