<?xml version="1.0" encoding="UTF-8" standalone="no"?>
<svg xmlns:xlink="http://www.w3.org/1999/xlink" height="76.2px" width="208.1px" xmlns="http://www.w3.org/2000/svg">
  <g transform="matrix(1.0, 0.0, 0.0, 1.0, 15.8, 12.8)">
    <use height="7.5" transform="matrix(1.0, 0.0, 0.0, 1.0, 2.0, 3.2)" width="163.9" xlink:href="#sprite0"/>
  </g>
  <defs>
    <g id="sprite0" transform="matrix(1.0, 0.0, 0.0, 1.0, -2.0, -3.2)">
      <use height="7.5" transform="matrix(1.0, 0.0, 0.0, 1.0, 2.0, 3.2)" width="163.9" xlink:href="#text0"/>
    </g>
    <g id="text0" transform="matrix(1.0, 0.0, 0.0, 1.0, 0.0, -1.2)">
      <g transform="matrix(1.0, 0.0, 0.0, 1.0, 0.0, 0.0)">
        <use fill="#ffffff" fill-opacity="0.8666667" height="7.5" transform="matrix(0.0107, 0.0, 0.0, 0.0107, 0.0, 8.0)" width="163.9" xlink:href="#font_Visitor_TT1_BRK_g0"/>
        <use fill="#ffffff" fill-opacity="0.8666667" height="7.5" transform="matrix(0.0107, 0.0, 0.0, 0.0107, 6.6, 8.0)" width="163.9" xlink:href="#font_Visitor_TT1_BRK_a0"/>
        <use fill="#ffffff" fill-opacity="0.8666667" height="7.5" transform="matrix(0.0107, 0.0, 0.0, 0.0107, 13.2, 8.0)" width="163.9" xlink:href="#font_Visitor_TT1_BRK_m0"/>
        <use fill="#ffffff" fill-opacity="0.8666667" height="7.5" transform="matrix(0.0107, 0.0, 0.0, 0.0107, 19.8, 8.0)" width="163.9" xlink:href="#font_Visitor_TT1_BRK_e0"/>
        <use fill="#ffffff" fill-opacity="0.8666667" height="7.5" transform="matrix(0.0107, 0.0, 0.0, 0.0107, 33.0, 8.0)" width="163.9" xlink:href="#font_Visitor_TT1_BRK_l0"/>
        <use fill="#ffffff" fill-opacity="0.8666667" height="7.5" transform="matrix(0.0107, 0.0, 0.0, 0.0107, 39.6, 8.0)" width="163.9" xlink:href="#font_Visitor_TT1_BRK_o0"/>
        <use fill="#ffffff" fill-opacity="0.8666667" height="7.5" transform="matrix(0.0107, 0.0, 0.0, 0.0107, 46.2, 8.0)" width="163.9" xlink:href="#font_Visitor_TT1_BRK_a0"/>
        <use fill="#ffffff" fill-opacity="0.8666667" height="7.5" transform="matrix(0.0107, 0.0, 0.0, 0.0107, 52.8, 8.0)" width="163.9" xlink:href="#font_Visitor_TT1_BRK_d0"/>
        <use fill="#ffffff" fill-opacity="0.8666667" height="7.5" transform="matrix(0.0107, 0.0, 0.0, 0.0107, 59.4, 8.0)" width="163.9" xlink:href="#font_Visitor_TT1_BRK_e0"/>
        <use fill="#ffffff" fill-opacity="0.8666667" height="7.5" transform="matrix(0.0107, 0.0, 0.0, 0.0107, 66.0, 8.0)" width="163.9" xlink:href="#font_Visitor_TT1_BRK_d0"/>
        <use fill="#ffffff" fill-opacity="0.8666667" height="7.5" transform="matrix(0.0107, 0.0, 0.0, 0.0107, 79.2, 8.0)" width="163.9" xlink:href="#font_Visitor_TT1_BRK_s0"/>
        <use fill="#ffffff" fill-opacity="0.8666667" height="7.5" transform="matrix(0.0107, 0.0, 0.0, 0.0107, 85.8, 8.0)" width="163.9" xlink:href="#font_Visitor_TT1_BRK_u0"/>
        <use fill="#ffffff" fill-opacity="0.8666667" height="7.5" transform="matrix(0.0107, 0.0, 0.0, 0.0107, 92.4, 8.0)" width="163.9" xlink:href="#font_Visitor_TT1_BRK_c0"/>
        <use fill="#ffffff" fill-opacity="0.8666667" height="7.5" transform="matrix(0.0107, 0.0, 0.0, 0.0107, 99.0, 8.0)" width="163.9" xlink:href="#font_Visitor_TT1_BRK_c0"/>
        <use fill="#ffffff" fill-opacity="0.8666667" height="7.5" transform="matrix(0.0107, 0.0, 0.0, 0.0107, 105.6, 8.0)" width="163.9" xlink:href="#font_Visitor_TT1_BRK_e0"/>
        <use fill="#ffffff" fill-opacity="0.8666667" height="7.5" transform="matrix(0.0107, 0.0, 0.0, 0.0107, 112.2, 8.0)" width="163.9" xlink:href="#font_Visitor_TT1_BRK_s0"/>
        <use fill="#ffffff" fill-opacity="0.8666667" height="7.5" transform="matrix(0.0107, 0.0, 0.0, 0.0107, 118.8, 8.0)" width="163.9" xlink:href="#font_Visitor_TT1_BRK_s0"/>
        <use fill="#ffffff" fill-opacity="0.8666667" height="7.5" transform="matrix(0.0107, 0.0, 0.0, 0.0107, 125.4, 8.0)" width="163.9" xlink:href="#font_Visitor_TT1_BRK_f0"/>
        <use fill="#ffffff" fill-opacity="0.8666667" height="7.5" transform="matrix(0.0107, 0.0, 0.0, 0.0107, 132.0, 8.0)" width="163.9" xlink:href="#font_Visitor_TT1_BRK_u0"/>
        <use fill="#ffffff" fill-opacity="0.8666667" height="7.5" transform="matrix(0.0107, 0.0, 0.0, 0.0107, 138.6, 8.0)" width="163.9" xlink:href="#font_Visitor_TT1_BRK_l0"/>
        <use fill="#ffffff" fill-opacity="0.8666667" height="7.5" transform="matrix(0.0107, 0.0, 0.0, 0.0107, 145.2, 8.0)" width="163.9" xlink:href="#font_Visitor_TT1_BRK_l0"/>
        <use fill="#ffffff" fill-opacity="0.8666667" height="7.5" transform="matrix(0.0107, 0.0, 0.0, 0.0107, 151.8, 8.0)" width="163.9" xlink:href="#font_Visitor_TT1_BRK_y0"/>
      </g>
    </g>
    <g id="font_Visitor_TT1_BRK_g0">
      <path d="M0.0 0.0 L0.0 -512.0 512.0 -512.0 512.0 -409.5 102.5 -409.5 102.5 -102.5 409.5 -102.5 409.5 -205.0 205.0 -205.0 205.0 -307.0 512.0 -307.0 512.0 0.0 0.0 0.0" fill-rule="evenodd" stroke="none"/>
    </g>
    <g id="font_Visitor_TT1_BRK_a0">
      <path d="M102.5 -409.5 L102.5 -307.0 409.5 -307.0 409.5 -409.5 102.5 -409.5 M409.5 0.0 L409.5 -205.0 102.5 -205.0 102.5 0.0 0.0 0.0 0.0 -512.0 512.0 -512.0 512.0 0.0 409.5 0.0" fill-rule="evenodd" stroke="none"/>
    </g>
    <g id="font_Visitor_TT1_BRK_m0">
      <path d="M205.0 0.0 L205.0 -409.5 102.5 -409.5 102.5 0.0 0.0 0.0 0.0 -512.0 512.0 -512.0 512.0 0.0 409.5 0.0 409.5 -409.5 307.5 -409.5 307.5 0.0 205.0 0.0" fill-rule="evenodd" stroke="none"/>
    </g>
    <g id="font_Visitor_TT1_BRK_e0">
      <path d="M0.0 0.0 L0.0 -512.0 512.0 -512.0 512.0 -409.5 102.5 -409.5 102.5 -307.0 307.5 -307.0 307.5 -205.0 102.5 -205.0 102.5 -102.5 512.0 -102.5 512.0 0.0 0.0 0.0" fill-rule="evenodd" stroke="none"/>
    </g>
    <g id="font_Visitor_TT1_BRK_l0">
      <path d="M0.0 0.0 L0.0 -512.0 102.5 -512.0 102.5 -102.5 512.0 -102.5 512.0 0.0 0.0 0.0" fill-rule="evenodd" stroke="none"/>
    </g>
    <g id="font_Visitor_TT1_BRK_o0">
      <path d="M102.5 -409.5 L102.5 -102.5 409.5 -102.5 409.5 -409.5 102.5 -409.5 M0.0 0.0 L0.0 -512.0 512.0 -512.0 512.0 0.0 0.0 0.0" fill-rule="evenodd" stroke="none"/>
    </g>
    <g id="font_Visitor_TT1_BRK_d0">
      <path d="M0.0 0.0 L0.0 -512.0 409.5 -512.0 409.5 -409.5 512.0 -409.5 512.0 -102.5 409.5 -102.5 409.5 -409.5 102.5 -409.5 102.5 -102.5 409.5 -102.5 409.5 0.0 0.0 0.0" fill-rule="evenodd" stroke="none"/>
    </g>
    <g id="font_Visitor_TT1_BRK_s0">
      <path d="M0.0 -205.0 L0.0 -512.0 512.0 -512.0 512.0 -409.5 102.5 -409.5 102.5 -307.0 512.0 -307.0 512.0 0.0 0.0 0.0 0.0 -102.5 409.5 -102.5 409.5 -205.0 0.0 -205.0" fill-rule="evenodd" stroke="none"/>
    </g>
    <g id="font_Visitor_TT1_BRK_u0">
      <path d="M0.0 0.0 L0.0 -512.0 102.5 -512.0 102.5 -102.5 409.5 -102.5 409.5 -512.0 512.0 -512.0 512.0 0.0 0.0 0.0" fill-rule="evenodd" stroke="none"/>
    </g>
    <g id="font_Visitor_TT1_BRK_c0">
      <path d="M0.0 0.0 L0.0 -512.0 512.0 -512.0 512.0 -409.5 102.5 -409.5 102.5 -102.5 512.0 -102.5 512.0 0.0 0.0 0.0" fill-rule="evenodd" stroke="none"/>
    </g>
    <g id="font_Visitor_TT1_BRK_f0">
      <path d="M0.0 0.0 L0.0 -512.0 512.0 -512.0 512.0 -409.5 102.5 -409.5 102.5 -307.0 307.5 -307.0 307.5 -205.0 102.5 -205.0 102.5 0.0 0.0 0.0" fill-rule="evenodd" stroke="none"/>
    </g>
    <g id="font_Visitor_TT1_BRK_y0">
      <path d="M307.0 -307.0 L307.0 -409.5 409.5 -409.5 409.5 -307.0 307.0 -307.0 M409.5 -409.5 L409.5 -512.0 512.0 -512.0 512.0 -409.5 409.5 -409.5 M102.5 -307.0 L102.5 -409.5 0.0 -409.5 0.0 -512.0 102.5 -512.0 102.5 -409.5 205.0 -409.5 205.0 -307.0 307.5 -307.0 307.5 0.0 205.0 0.0 205.0 -307.0 102.5 -307.0" fill-rule="evenodd" stroke="none"/>
    </g>
  </defs>
</svg>
