<?xml version="1.0" encoding="UTF-8" standalone="no"?>
<svg xmlns:xlink="http://www.w3.org/1999/xlink" height="16.6px" width="214.5px" xmlns="http://www.w3.org/2000/svg">
  <g transform="matrix(1.0, 0.0, 0.0, 1.0, 0.0, 0.0)">
    <use height="16.6" transform="matrix(1.0, 0.0, 0.0, 1.0, 0.0, 0.0)" width="214.5" xlink:href="#shape0"/>
    <use height="13.35" transform="matrix(0.3333, 0.0, 0.0, 1.0, 2.6, 1.65)" width="206.15" xlink:href="#sprite0"/>
  </g>
  <defs>
    <g id="shape0" transform="matrix(1.0, 0.0, 0.0, 1.0, 0.0, 0.0)">
      <path d="M214.5 0.0 Q213.45 13.1 198.95 16.6 L0.0 16.6 0.0 0.0 214.5 0.0" fill="#000000" fill-rule="evenodd" stroke="none"/>
    </g>
    <g id="sprite0" transform="matrix(1.0, 0.0, 0.0, 1.0, 0.0, 0.0)">
      <use height="13.35" transform="matrix(1.0, 0.0, 0.0, 1.0, 0.0, 0.0)" width="206.15" xlink:href="#shape1"/>
    </g>
    <g id="shape1" transform="matrix(1.0, 0.0, 0.0, 1.0, 0.0, 0.0)">
      <path d="M206.15 0.0 Q206.15 10.25 193.6 13.35 L0.0 13.35 0.0 0.0 206.15 0.0" fill="#cc0000" fill-rule="evenodd" stroke="none"/>
    </g>
  </defs>
</svg>
