<?xml version="1.0" encoding="UTF-8" standalone="no"?>
<svg xmlns:xlink="http://www.w3.org/1999/xlink" height="45.75px" width="474.15px" xmlns="http://www.w3.org/2000/svg">
  <g transform="matrix(1.0, 0.0, 0.0, 1.0, 135.65, 1.25)">
    <use height="45.75" transform="matrix(1.0, 0.0, 0.0, 1.0, -135.65, -1.25)" width="474.15" xlink:href="#sprite0"/>
  </g>
  <defs>
    <g id="sprite0" transform="matrix(1.0, 0.0, 0.0, 1.0, 135.65, 1.25)">
      <use height="35.1" transform="matrix(0.5679, 0.0, 0.0, 0.5679, -34.14, -1.2622)" width="116.6" xlink:href="#text0"/>
      <use height="15.5" transform="matrix(1.0, 0.0, 0.0, 1.0, -135.65, 19.85)" width="283.3" xlink:href="#text1"/>
    </g>
    <g id="text0" transform="matrix(1.0, 0.0, 0.0, 1.0, 30.8, -9.4)">
      <g transform="matrix(1.0, 0.0, 0.0, 1.0, -29.35, 0.0)">
        <use fill="#ff0000" fill-opacity="0.18431373" height="35.1" transform="matrix(0.041, 0.0, 0.0, 0.041, 0.0, 38.0)" width="116.6" xlink:href="#font_Angelic_War_A0"/>
        <use fill="#ff0000" fill-opacity="0.18431373" height="35.1" transform="matrix(0.041, 0.0, 0.0, 0.041, 14.7, 38.0)" width="116.6" xlink:href="#font_Angelic_War_c0"/>
        <use fill="#ff0000" fill-opacity="0.18431373" height="35.1" transform="matrix(0.041, 0.0, 0.0, 0.041, 29.2, 38.0)" width="116.6" xlink:href="#font_Angelic_War_t0"/>
      </g>
      <g transform="matrix(1.0, 0.0, 0.0, 1.0, -29.35, 0.0)">
        <use fill="#ffffff" fill-opacity="0.05490196" height="35.1" transform="matrix(0.041, 0.0, 0.0, 0.041, 50.5, 38.0)" width="116.6" xlink:href="#font_Angelic_War_10"/>
        <use fill="#ffffff" fill-opacity="0.05490196" height="35.1" transform="matrix(0.041, 0.0, 0.0, 0.041, 76.8, 38.0)" width="116.6" xlink:href="#font_Angelic_War_-0"/>
        <use fill="#ffffff" fill-opacity="0.05490196" height="35.1" transform="matrix(0.041, 0.0, 0.0, 0.041, 99.85, 38.0)" width="116.6" xlink:href="#font_Angelic_War_10"/>
      </g>
    </g>
    <g id="font_Angelic_War_A0">
      <path d="M330.0 -26.5 L345.0 -26.5 345.0 -23.5 339.0 -17.5 330.0 -17.5 330.0 -26.5 M183.0 -32.5 L177.0 -26.5 186.0 -26.5 186.0 -29.5 183.0 -32.5 M69.0 -32.5 L75.0 -38.5 75.0 -32.5 69.0 -32.5 M318.0 -44.5 L318.0 -35.5 330.0 -35.5 330.0 -38.5 318.0 -44.5 M132.0 -44.5 L138.0 -50.5 141.0 -50.5 141.0 -44.5 132.0 -44.5 M270.0 -59.5 L258.0 -56.5 261.0 -47.5 270.0 -59.5 M453.0 -71.5 L456.0 -71.5 456.0 -68.5 453.0 -65.5 450.0 -65.5 450.0 -68.5 453.0 -71.5 M60.0 -65.5 L66.0 -71.5 69.0 -71.5 72.0 -62.5 66.0 -56.5 60.0 -62.5 60.0 -65.5 M318.0 -77.5 L300.0 -77.5 270.0 -38.5 270.0 -35.5 Q277.0 -24.0 294.0 -14.5 305.5 -14.5 318.0 -74.5 L318.0 -77.5 M330.0 -83.5 L321.0 -50.5 321.0 -44.5 324.0 -44.5 Q324.0 -53.5 330.0 -53.5 L336.0 -53.5 342.0 -47.5 336.0 -38.5 354.0 -47.5 354.0 -50.5 336.0 -83.5 330.0 -83.5 M261.0 -104.5 L270.0 -104.5 270.0 -101.5 261.0 -98.5 261.0 -104.5 M48.0 -113.5 L51.0 -113.5 48.0 -110.5 48.0 -107.5 51.0 -104.5 51.0 -98.5 45.0 -92.5 36.0 -92.5 36.0 -98.5 48.0 -113.5 M372.0 -131.5 L378.0 -125.5 378.0 -131.5 372.0 -131.5 M72.0 -146.5 L84.0 -146.5 78.0 -140.5 72.0 -140.5 72.0 -146.5 M333.0 -155.5 L333.0 -155.5 Q328.0 -154.5 303.0 -89.5 L303.0 -86.5 Q321.0 -86.5 324.0 -98.5 L321.0 -107.5 Q333.0 -129.0 333.0 -149.5 L333.0 -155.5 M306.0 -152.5 L312.0 -158.5 312.0 -152.5 306.0 -152.5 M303.0 -161.5 L300.0 -161.5 Q300.0 -173.5 312.0 -179.5 L315.0 -179.5 315.0 -170.5 303.0 -161.5 M324.0 -212.5 L330.0 -206.5 330.0 -203.5 324.0 -209.5 324.0 -212.5 M87.0 -209.5 L93.0 -215.5 93.0 -209.5 87.0 -203.5 87.0 -209.5 M582.0 -230.5 L588.0 -224.5 594.0 -224.5 588.0 -230.5 582.0 -230.5 M579.0 -242.5 L579.0 -236.5 585.0 -236.5 579.0 -242.5 579.0 -248.5 573.0 -248.5 579.0 -242.5 M552.0 -245.5 L552.0 -239.5 558.0 -233.5 561.0 -233.5 564.0 -236.5 564.0 -233.5 561.0 -230.5 561.0 -224.5 567.0 -230.5 567.0 -239.5 552.0 -245.5 M549.0 -251.5 L549.0 -248.5 555.0 -248.5 555.0 -251.5 549.0 -251.5 M525.0 -254.5 L525.0 -251.5 546.0 -224.5 552.0 -230.5 540.0 -236.5 540.0 -239.5 543.0 -242.5 Q541.5 -248.5 528.0 -254.5 L525.0 -254.5 M477.0 -254.5 L477.0 -248.5 480.0 -248.5 480.0 -254.5 477.0 -254.5 M159.0 -245.5 L165.0 -251.5 165.0 -245.5 159.0 -245.5 M462.0 -260.5 L462.0 -257.5 471.0 -257.5 471.0 -260.5 462.0 -260.5 M516.0 -263.5 L516.0 -260.5 522.0 -260.5 522.0 -263.5 516.0 -263.5 M390.0 -275.5 L396.0 -269.5 396.0 -275.5 390.0 -275.5 M513.0 -278.5 L513.0 -272.5 516.0 -272.5 516.0 -278.5 513.0 -278.5 M480.0 -278.5 L480.0 -269.5 483.0 -269.5 483.0 -278.5 480.0 -278.5 M177.0 -287.5 L177.0 -281.5 180.0 -281.5 180.0 -287.5 177.0 -287.5 M147.0 -290.5 L147.0 -284.5 150.0 -284.5 150.0 -290.5 147.0 -290.5 M123.0 -290.5 L123.0 -284.5 129.0 -278.5 132.0 -287.5 129.0 -287.5 126.0 -290.5 123.0 -290.5 M111.0 -296.5 L111.0 -290.5 117.0 -290.5 111.0 -296.5 M126.0 -314.5 L126.0 -311.5 132.0 -311.5 132.0 -314.5 126.0 -314.5 M-9.0 -317.5 L-9.0 -314.5 -3.0 -314.5 -3.0 -317.5 -9.0 -317.5 M456.0 -320.5 L450.0 -314.5 450.0 -311.5 Q462.0 -311.5 492.0 -266.5 L492.0 -263.5 489.0 -260.5 Q498.0 -249.0 498.0 -233.5 L498.0 -203.5 495.0 -200.5 498.0 -200.5 483.0 -155.5 Q470.5 -108.0 405.0 -62.5 L420.0 -65.5 429.0 -65.5 429.0 -53.5 417.0 -53.5 417.0 -59.5 414.0 -59.5 393.0 -41.5 384.0 -41.5 393.0 -56.5 Q367.0 -55.0 333.0 -29.5 L324.0 -32.5 324.0 -29.5 Q313.5 -29.5 306.0 -11.5 L336.0 -5.5 Q370.0 -5.5 408.0 -23.5 465.0 -42.0 498.0 -89.5 L489.0 -92.5 492.0 -101.5 486.0 -110.5 486.0 -113.5 495.0 -113.5 Q495.0 -106.0 507.0 -104.5 L525.0 -146.5 522.0 -149.5 522.0 -152.5 525.0 -155.5 525.0 -185.5 Q519.0 -229.0 504.0 -260.5 L507.0 -263.5 504.0 -263.5 Q479.5 -304.5 459.0 -320.5 L456.0 -320.5 M138.0 -323.5 L138.0 -323.5 Q135.0 -305.5 129.0 -305.5 L135.0 -299.5 141.0 -305.5 141.0 -323.5 138.0 -323.5 M318.0 -323.5 L327.0 -326.5 327.0 -320.5 318.0 -320.5 318.0 -323.5 M48.0 -323.5 L57.0 -326.5 57.0 -317.5 48.0 -317.5 48.0 -323.5 M-36.0 -329.5 L-36.0 -323.5 -27.0 -320.5 -27.0 -329.5 -36.0 -329.5 M120.0 -332.5 L117.0 -323.5 123.0 -314.5 132.0 -317.5 132.0 -320.5 129.0 -323.5 126.0 -320.5 123.0 -320.5 126.0 -323.5 123.0 -332.5 120.0 -332.5 M159.0 -347.5 L159.0 -344.5 165.0 -344.5 165.0 -347.5 159.0 -347.5 M186.0 -359.5 L186.0 -353.5 189.0 -353.5 189.0 -359.5 186.0 -359.5 M168.0 -362.5 L162.0 -356.5 162.0 -353.5 165.0 -350.5 171.0 -356.5 171.0 -359.5 168.0 -362.5 M-3.0 -365.5 L-3.0 -365.5 Q-3.0 -361.0 9.0 -356.5 L12.0 -356.5 0.0 -365.5 -3.0 -365.5 M84.0 -374.5 L87.0 -374.5 87.0 -368.5 84.0 -368.5 84.0 -374.5 M159.0 -401.5 L159.0 -398.5 168.0 -398.5 168.0 -401.5 159.0 -401.5 M231.0 -407.5 L231.0 -401.5 234.0 -401.5 234.0 -407.5 231.0 -407.5 M60.0 -398.5 L66.0 -404.5 69.0 -404.5 69.0 -401.5 63.0 -395.5 60.0 -395.5 60.0 -398.5 M276.0 -443.5 L276.0 -443.5 Q262.0 -441.0 258.0 -428.5 251.5 -419.5 243.0 -419.5 L243.0 -416.5 258.0 -416.5 258.0 -410.5 Q258.0 -401.5 234.0 -401.5 252.0 -373.5 252.0 -362.5 225.0 -362.5 225.0 -353.5 L216.0 -356.5 186.0 -350.5 186.0 -347.5 192.0 -347.5 192.0 -344.5 186.0 -344.5 183.0 -347.5 159.0 -323.5 Q153.0 -323.5 153.0 -332.5 L150.0 -332.5 150.0 -329.5 153.0 -320.5 150.0 -320.5 153.0 -308.5 159.0 -308.5 Q227.5 -341.5 246.0 -341.5 L255.0 -341.5 255.0 -290.5 213.0 -275.5 213.0 -272.5 231.0 -263.5 222.0 -245.5 255.0 -254.5 258.0 -254.5 258.0 -251.5 255.0 -248.5 255.0 -182.5 252.0 -101.5 201.0 -53.5 192.0 -56.5 159.0 -50.5 Q93.0 -58.5 93.0 -101.5 L90.0 -101.5 87.0 -98.5 78.0 -98.5 78.0 -110.5 87.0 -107.5 90.0 -107.5 90.0 -125.5 Q90.0 -197.5 201.0 -239.5 211.5 -239.5 216.0 -260.5 L213.0 -269.5 213.0 -272.5 Q52.5 -225.0 48.0 -200.5 3.0 -179.5 3.0 -113.5 L3.0 -107.5 18.0 -119.5 18.0 -116.5 6.0 -104.5 3.0 -104.5 9.0 -68.5 12.0 -68.5 12.0 -74.5 21.0 -74.5 Q21.0 -65.5 12.0 -65.5 22.5 -44.5 27.0 -44.5 L30.0 -59.5 24.0 -59.5 30.0 -65.5 33.0 -65.5 33.0 -56.5 30.0 -35.5 Q65.5 -5.5 102.0 -5.5 L132.0 -5.5 135.0 -8.5 135.0 -5.5 Q145.5 -5.5 156.0 -17.5 L162.0 -17.5 165.0 -14.5 Q165.0 -26.5 171.0 -26.5 L168.0 -41.5 177.0 -50.5 180.0 -50.5 180.0 -44.5 177.0 -41.5 192.0 -32.5 Q234.0 -45.0 234.0 -59.5 252.0 -59.5 252.0 -68.5 L255.0 -68.5 258.0 -65.5 264.0 -65.5 258.0 -71.5 258.0 -74.5 261.0 -77.5 270.0 -71.5 276.0 -71.5 Q322.0 -168.0 336.0 -182.5 L336.0 -308.5 330.0 -308.5 330.0 -311.5 336.0 -320.5 336.0 -344.5 Q391.5 -344.5 441.0 -317.5 L444.0 -317.5 453.0 -323.5 453.0 -326.5 Q421.0 -350.5 333.0 -362.5 333.0 -406.5 276.0 -443.5 M216.0 -458.5 L150.0 -458.5 Q93.0 -447.0 63.0 -422.5 30.0 -389.5 24.0 -389.5 L24.0 -386.5 27.0 -383.5 18.0 -383.5 15.0 -386.5 15.0 -374.5 21.0 -380.5 24.0 -380.5 27.0 -377.5 24.0 -359.5 21.0 -359.5 18.0 -362.5 15.0 -362.5 15.0 -356.5 21.0 -356.5 Q33.0 -308.5 66.0 -308.5 L87.0 -311.5 117.0 -326.5 114.0 -329.5 117.0 -344.5 117.0 -365.5 111.0 -398.5 111.0 -410.5 Q143.5 -428.5 171.0 -428.5 L192.0 -428.5 216.0 -458.5" fill-rule="evenodd" stroke="none"/>
    </g>
    <g id="font_Angelic_War_c0">
      <path d="M154.5 67.5 L154.5 67.5 Q124.5 75.5 124.5 88.5 L124.5 100.5 Q124.5 127.5 169.5 133.5 L196.5 130.5 196.5 127.5 193.5 124.5 190.5 124.5 187.5 127.5 166.5 127.5 Q130.5 127.5 130.5 100.5 L130.5 88.5 Q140.5 70.5 163.5 70.5 L166.5 70.5 181.5 82.5 190.5 82.5 190.5 79.5 Q186.0 67.5 169.5 67.5 L154.5 67.5 M151.5 1.5 L157.5 1.5 157.5 4.5 151.5 4.5 151.5 1.5 M13.5 25.5 L13.5 25.5 Q60.0 25.5 124.5 -7.5 L145.5 -1.5 145.5 1.5 142.5 4.5 142.5 10.5 145.5 13.5 Q72.0 52.5 46.5 52.5 19.0 52.5 7.5 31.5 L7.5 25.5 13.5 25.5 M7.5 16.5 L7.5 16.5 Q7.5 -11.5 58.5 -19.5 L100.5 -16.5 100.5 -10.5 Q31.0 16.5 10.5 16.5 L7.5 16.5 M337.5 -58.5 L310.5 -52.5 280.5 -55.5 283.5 -43.5 280.5 -28.5 283.5 -25.5 280.5 -22.5 280.5 -19.5 Q297.0 -19.5 337.5 -58.5 M-70.5 -13.5 L-70.5 -16.5 Q-70.5 -55.0 19.5 -61.5 L31.5 -61.5 Q53.5 -61.5 88.5 -22.5 L61.5 -22.5 Q8.5 -22.5 -1.5 19.5 -70.5 14.0 -70.5 -13.5 M220.5 -82.5 L220.5 -67.5 232.5 -67.5 232.5 -73.5 220.5 -82.5 M391.5 -85.5 L391.5 -82.5 394.5 -73.5 370.5 -73.5 Q355.5 -73.5 352.5 -64.5 L388.5 -67.5 391.5 -67.5 391.5 -64.5 Q391.5 -44.5 358.5 -37.5 L364.5 -31.5 Q391.0 -31.5 397.5 -64.5 L397.5 -67.5 Q434.5 -67.5 451.5 -40.5 L451.5 -25.5 Q451.5 -10.0 424.5 7.5 457.5 -1.0 457.5 -25.5 L457.5 -31.5 Q457.5 -52.0 433.5 -64.5 394.5 -68.5 394.5 -85.5 L391.5 -85.5 M61.5 -82.5 L64.5 -82.5 67.5 -79.5 61.5 -70.5 58.5 -70.5 55.5 -73.5 61.5 -82.5 M310.5 -91.5 L298.5 -76.5 322.5 -70.5 337.5 -70.5 337.5 -76.5 310.5 -91.5 M163.5 -91.5 L163.5 -67.5 172.5 -67.5 166.5 -91.5 163.5 -91.5 M256.5 -94.5 L232.5 -85.5 232.5 -82.5 235.5 -82.5 Q252.0 -82.5 256.5 -94.5 M295.5 -106.5 L295.5 -106.5 Q271.5 -106.5 271.5 -94.5 L268.5 -94.5 265.5 -97.5 265.5 -94.5 268.5 -79.5 271.5 -79.5 Q271.5 -100.5 304.5 -100.5 L304.5 -103.5 295.5 -106.5 M64.5 -109.5 L73.5 -109.5 73.5 -106.5 67.5 -100.5 64.5 -100.5 64.5 -109.5 M415.5 -136.5 L415.5 -130.5 427.5 -130.5 427.5 -133.5 418.5 -136.5 415.5 -136.5 M406.5 -136.5 L397.5 -127.5 397.5 -124.5 409.5 -136.5 406.5 -136.5 M418.5 -145.5 L418.5 -139.5 421.5 -139.5 421.5 -145.5 418.5 -145.5 M244.5 -148.5 L244.5 -142.5 247.5 -142.5 247.5 -148.5 244.5 -148.5 M238.5 -151.5 L238.5 -145.5 241.5 -145.5 241.5 -151.5 238.5 -151.5 M127.5 -160.5 L127.5 -154.5 130.5 -151.5 Q139.5 -151.5 139.5 -145.5 L139.5 -142.5 133.5 -142.5 157.5 -100.5 160.5 -100.5 160.5 -103.5 Q145.5 -160.5 130.5 -160.5 L127.5 -160.5 M190.5 -214.5 L175.5 -211.5 175.5 -208.5 187.5 -199.5 190.5 -199.5 190.5 -208.5 187.5 -211.5 193.5 -211.5 193.5 -214.5 190.5 -214.5 M640.5 -217.5 L640.5 -214.5 643.5 -199.5 646.5 -199.5 646.5 -202.5 643.5 -217.5 640.5 -217.5 M19.5 -229.5 L25.5 -229.5 25.5 -223.5 19.5 -229.5 M238.5 -238.5 L232.5 -232.5 250.5 -232.5 250.5 -238.5 238.5 -238.5 M412.5 -244.5 L412.5 -238.5 415.5 -238.5 415.5 -244.5 412.5 -244.5 M253.5 -265.5 L253.5 -262.5 259.5 -262.5 259.5 -265.5 253.5 -265.5 M409.5 -310.5 L409.5 -304.5 412.5 -304.5 412.5 -310.5 409.5 -310.5 M64.5 -331.5 L64.5 -328.5 70.5 -322.5 70.5 -325.5 64.5 -331.5 M82.5 -346.5 L88.5 -346.5 88.5 -343.5 82.5 -343.5 82.5 -346.5 M283.5 -349.5 L289.5 -349.5 289.5 -346.5 283.5 -346.5 283.5 -349.5 M268.5 -355.5 L274.5 -355.5 274.5 -352.5 268.5 -352.5 268.5 -355.5 M40.5 -361.5 L34.5 -355.5 34.5 -352.5 40.5 -352.5 40.5 -349.5 34.5 -343.5 34.5 -352.5 31.5 -352.5 Q-1.5 -286.5 -1.5 -229.5 -1.5 -148.5 25.5 -97.5 37.5 -61.5 76.5 -61.5 L76.5 -58.5 70.5 -58.5 31.5 -64.5 1.5 -64.5 Q-65.0 -64.5 -76.5 -16.5 -76.5 23.0 -1.5 28.5 15.0 58.5 52.5 58.5 87.0 58.5 175.5 10.5 229.5 38.0 229.5 76.5 L229.5 82.5 235.5 82.5 238.5 79.5 Q238.5 40.5 181.5 4.5 L193.5 4.5 Q230.5 4.5 262.5 -7.5 331.0 10.5 379.5 16.5 L421.5 10.5 421.5 4.5 385.5 10.5 Q339.0 10.5 307.5 -4.5 274.5 -4.5 274.5 -25.5 L259.5 -22.5 259.5 -28.5 Q274.5 -31.0 274.5 -46.5 L274.5 -52.5 271.5 -55.5 262.5 -52.5 262.5 -49.5 268.5 -49.5 268.5 -46.5 262.5 -46.5 259.5 -49.5 Q247.5 -43.5 226.5 -43.5 L196.5 -43.5 Q196.5 -52.5 175.5 -52.5 88.5 -100.0 88.5 -220.5 L82.5 -220.5 82.5 -223.5 88.5 -223.5 88.5 -262.5 85.5 -262.5 70.5 -253.5 64.5 -259.5 64.5 -262.5 76.5 -280.5 64.5 -295.5 64.5 -301.5 67.5 -304.5 Q52.5 -345.0 40.5 -361.5 M346.5 -367.5 L346.5 -367.5 Q334.0 -356.5 322.5 -331.5 L322.5 -328.5 331.5 -328.5 331.5 -325.5 Q322.5 -325.5 304.5 -283.5 L310.5 -283.5 Q346.0 -283.5 349.5 -343.5 L346.5 -367.5 M271.5 -367.5 L277.5 -367.5 277.5 -364.5 271.5 -364.5 271.5 -367.5 M721.5 -379.5 L721.5 -379.5 Q703.5 -373.0 703.5 -367.5 L706.5 -367.5 Q775.5 -334.5 775.5 -268.5 L790.5 -265.5 Q790.5 -259.5 781.5 -259.5 L760.5 -211.5 Q760.5 -187.5 694.5 -169.5 L694.5 -172.5 Q652.5 -179.5 652.5 -199.5 L646.5 -199.5 Q646.5 -170.5 697.5 -163.5 L727.5 -172.5 Q793.5 -205.0 793.5 -265.5 L787.5 -289.5 Q772.5 -350.5 721.5 -379.5 M652.5 -397.5 L652.5 -397.5 Q646.5 -397.5 646.5 -388.5 L640.5 -388.5 640.5 -379.5 655.5 -379.5 694.5 -373.5 715.5 -379.5 Q696.0 -397.5 658.5 -397.5 L652.5 -397.5 M637.5 -397.5 L637.5 -397.5 Q517.0 -397.5 412.5 -232.5 343.0 -109.5 319.5 -109.5 L319.5 -106.5 Q329.5 -106.5 346.5 -88.5 L358.5 -88.5 367.5 -97.5 379.5 -94.5 382.5 -94.5 370.5 -112.5 Q392.5 -140.5 463.5 -271.5 550.5 -379.5 619.5 -379.5 L634.5 -379.5 643.5 -397.5 637.5 -397.5 M310.5 -388.5 L316.5 -394.5 319.5 -394.5 319.5 -388.5 310.5 -385.5 310.5 -388.5 M115.5 -394.5 L118.5 -394.5 118.5 -388.5 115.5 -388.5 115.5 -394.5 M115.5 -400.5 L121.5 -400.5 121.5 -397.5 115.5 -397.5 115.5 -400.5 M136.5 -424.5 L139.5 -424.5 139.5 -418.5 136.5 -418.5 136.5 -424.5 M142.5 -424.5 L148.5 -430.5 151.5 -430.5 151.5 -424.5 142.5 -421.5 142.5 -424.5 M202.5 -436.5 L205.5 -436.5 205.5 -433.5 Q205.5 -424.5 199.5 -424.5 L202.5 -436.5 M229.5 -433.5 L235.5 -439.5 238.5 -439.5 241.5 -436.5 238.5 -427.5 229.5 -427.5 229.5 -433.5 M151.5 -442.5 L157.5 -442.5 157.5 -439.5 151.5 -439.5 151.5 -442.5 M208.5 -451.5 L148.5 -445.5 Q128.5 -442.5 58.5 -385.5 L91.5 -301.5 Q97.5 -301.5 97.5 -310.5 128.5 -418.5 196.5 -418.5 L205.5 -418.5 Q262.5 -414.0 262.5 -391.5 250.5 -358.0 250.5 -328.5 L250.5 -322.5 Q255.0 -298.5 262.5 -298.5 L265.5 -310.5 268.5 -310.5 268.5 -298.5 262.5 -298.5 Q275.5 -283.5 289.5 -283.5 304.5 -286.0 304.5 -292.5 L298.5 -292.5 301.5 -301.5 304.5 -301.5 304.5 -295.5 307.5 -295.5 310.5 -304.5 310.5 -307.5 307.5 -310.5 310.5 -310.5 313.5 -307.5 Q330.0 -376.5 343.5 -376.5 307.0 -451.5 208.5 -451.5" fill-rule="evenodd" stroke="none"/>
    </g>
    <g id="font_Angelic_War_t0">
      <path d="M161.5 -13.5 L176.5 -16.5 176.5 -10.5 173.5 -13.5 164.5 -10.5 161.5 -10.5 161.5 -13.5 M137.5 -115.5 L137.5 -115.5 Q120.5 -115.5 107.5 -103.5 107.5 -91.0 128.5 -64.5 L131.5 -64.5 125.5 -106.5 125.5 -109.5 140.5 -73.5 137.5 -64.5 140.5 -61.5 140.5 -58.5 137.5 -55.5 Q156.5 -31.5 167.5 -31.5 L167.5 -28.5 164.5 -28.5 Q156.5 -28.5 140.5 -43.5 L137.5 -22.5 140.5 -10.5 140.5 -1.5 185.5 -1.5 230.5 -7.5 230.5 -10.5 Q221.5 -10.5 221.5 -16.5 L233.5 -16.5 233.5 -13.5 230.5 -10.5 Q275.5 -22.0 275.5 -28.5 L275.5 -34.5 272.5 -37.5 275.5 -40.5 275.5 -46.5 230.5 -28.5 227.5 -28.5 224.5 -31.5 221.5 -31.5 218.5 -28.5 206.5 -34.5 215.5 -52.5 Q149.5 -52.5 149.5 -115.5 L137.5 -115.5 M86.5 -115.5 L92.5 -121.5 92.5 -115.5 86.5 -115.5 M146.5 -202.5 L119.5 -202.5 116.5 -199.5 128.5 -136.5 125.5 -133.5 128.5 -121.5 149.5 -121.5 146.5 -166.5 146.5 -202.5 M146.5 -235.5 L146.5 -235.5 Q131.5 -235.5 65.5 -199.5 L65.5 -133.5 68.5 -85.5 Q71.0 -28.0 116.5 -7.5 L119.5 -7.5 122.5 -10.5 125.5 -10.5 128.5 -7.5 131.5 -49.5 Q131.5 -58.5 104.5 -79.5 L101.5 -79.5 104.5 -88.5 101.5 -100.5 Q111.5 -121.5 122.5 -121.5 113.5 -177.0 92.5 -199.5 L92.5 -205.5 98.5 -211.5 146.5 -211.5 146.5 -235.5 M65.5 -391.5 L65.5 -229.5 80.5 -232.5 80.5 -226.5 Q65.5 -226.0 65.5 -217.5 L65.5 -208.5 Q128.5 -247.5 146.5 -247.5 L146.5 -373.5 140.5 -373.5 Q128.0 -373.5 101.5 -385.5 L101.5 -382.5 95.5 -388.5 92.5 -385.5 71.5 -391.5 65.5 -391.5 M-12.5 -439.5 L-12.5 -397.5 44.5 -397.5 47.5 -409.5 -12.5 -439.5 M92.5 -535.5 L98.5 -535.5 95.5 -517.5 92.5 -517.5 89.5 -520.5 92.5 -535.5 M80.5 -574.5 L80.5 -574.5 Q92.5 -563.5 98.5 -544.5 L98.5 -541.5 92.5 -541.5 Q92.5 -554.5 74.5 -562.5 L68.5 -541.5 71.5 -514.5 68.5 -502.5 74.5 -493.5 68.5 -481.5 68.5 -439.5 5.5 -439.5 5.5 -436.5 23.5 -430.5 Q124.0 -376.5 146.5 -376.5 L146.5 -397.5 272.5 -397.5 272.5 -439.5 146.5 -439.5 146.5 -574.5 80.5 -574.5" fill-rule="evenodd" stroke="none"/>
    </g>
    <g id="font_Angelic_War_10">
      <path d="M150.0 -382.0 L150.0 -196.0 Q150.0 -143.0 27.0 -143.0 L23.5 -143.0 23.5 -104.5 339.5 -104.5 357.5 -108.0 368.0 -104.5 371.5 -104.5 371.5 -108.0 364.5 -139.5 311.5 -150.0 Q248.5 -150.0 248.5 -241.5 L248.5 -248.5 Q153.5 -369.0 153.5 -382.0 L150.0 -382.0 M241.5 -389.0 L241.5 -385.5 248.5 -385.5 248.5 -389.0 241.5 -389.0 241.5 -392.5 231.0 -396.0 227.5 -396.0 227.5 -392.5 231.0 -389.0 241.5 -389.0 M167.5 -435.0 L167.5 -435.0 Q156.0 -435.0 150.0 -417.0 150.0 -373.0 248.5 -259.0 L248.5 -382.0 192.0 -396.0 192.0 -399.5 199.0 -399.5 216.5 -396.0 220.0 -396.0 Q218.5 -403.0 167.5 -435.0 M150.0 -456.0 L150.0 -452.5 157.0 -445.5 160.5 -445.5 150.0 -456.0 M178.0 -519.0 L178.0 -519.0 Q159.0 -519.0 150.0 -501.5 L150.0 -494.5 Q160.5 -452.5 167.5 -452.5 188.5 -464.5 188.5 -484.0 L181.5 -519.0 178.0 -519.0 M20.0 -610.5 L20.0 -568.5 86.5 -568.5 90.5 -572.0 94.0 -568.5 111.5 -568.5 Q82.5 -610.5 76.0 -610.5 L20.0 -610.5 M129.0 -617.5 L129.0 -621.0 90.5 -614.0 90.5 -607.0 115.0 -568.5 Q150.0 -568.5 150.0 -561.5 L150.0 -512.0 Q160.5 -522.5 174.5 -522.5 L174.5 -526.0 129.0 -617.5 M213.0 -673.5 L195.5 -659.5 Q195.5 -652.5 227.5 -645.5 L227.5 -642.0 224.0 -642.0 188.5 -649.0 Q164.0 -642.0 164.0 -635.0 L164.0 -631.5 167.5 -631.5 178.0 -621.0 171.0 -593.0 Q171.0 -573.5 202.5 -501.5 L199.0 -501.5 199.0 -498.0 202.5 -494.5 202.5 -491.0 Q202.5 -464.5 174.5 -438.5 L174.5 -435.0 245.0 -396.0 248.5 -396.0 248.5 -501.5 252.0 -526.0 227.5 -543.5 227.5 -547.0 245.0 -533.0 252.0 -533.0 252.0 -621.0 255.5 -673.5 213.0 -673.5" fill-rule="evenodd" stroke="none"/>
    </g>
    <g id="font_Angelic_War_-0">
      <path d="M189.0 -238.0 L197.5 -238.0 197.5 -235.0 189.0 -235.0 189.0 -238.0 M233.5 -244.0 L222.0 -238.0 222.0 -232.0 247.0 -232.0 247.0 -238.0 233.5 -244.0 M178.0 -241.0 L186.0 -241.0 186.0 -238.0 178.0 -238.0 178.0 -241.0 M167.0 -244.0 L175.0 -244.0 175.0 -241.0 167.0 -241.0 167.0 -244.0 M158.5 -247.0 L164.0 -247.0 164.0 -244.0 158.5 -244.0 158.5 -247.0 M150.0 -250.0 L155.5 -250.0 155.5 -247.0 150.0 -247.0 150.0 -250.0 M131.0 -256.0 L133.5 -256.0 147.5 -253.0 147.5 -250.0 144.5 -250.0 131.0 -253.0 131.0 -256.0 M117.0 -259.0 L128.0 -259.0 128.0 -256.0 117.0 -256.0 117.0 -259.0 M92.0 -259.0 L100.5 -259.0 100.5 -256.0 97.5 -253.0 92.0 -259.0 M83.5 -277.5 L83.5 -274.5 Q49.0 -274.5 45.0 -262.0 L53.0 -247.0 56.0 -250.0 61.5 -250.0 61.5 -247.0 56.0 -247.0 Q61.5 -233.5 67.0 -232.0 L136.5 -232.0 136.5 -235.0 Q103.0 -248.0 103.0 -253.0 122.5 -250.5 144.5 -232.0 L191.5 -232.0 211.0 -235.0 211.0 -232.0 216.5 -232.0 222.0 -241.0 228.0 -241.0 228.0 -247.0 Q171.0 -274.5 100.5 -274.5 L86.5 -274.5 83.5 -277.5 M20.0 -289.5 L20.0 -232.0 61.5 -232.0 56.0 -238.0 20.0 -289.5 M20.0 -301.5 L20.0 -301.5 Q28.5 -282.5 42.0 -268.5 59.0 -280.5 78.0 -280.5 168.5 -280.5 219.5 -253.0 L225.0 -253.0 225.0 -256.0 222.0 -259.0 222.0 -262.0 228.0 -268.5 230.5 -268.5 230.5 -265.0 228.0 -262.0 228.0 -253.0 Q228.0 -245.5 258.0 -238.0 L261.0 -238.0 261.0 -301.5 219.5 -301.5 219.5 -283.5 211.0 -283.5 211.0 -286.5 214.0 -289.5 214.0 -301.5 144.5 -301.5 Q157.0 -286.5 164.0 -286.5 L164.0 -283.5 161.5 -283.5 Q136.5 -301.5 128.0 -301.5 L20.0 -301.5" fill-rule="evenodd" stroke="none"/>
    </g>
    <g id="text1" transform="matrix(1.0, 0.0, 0.0, 1.0, -0.85, 1.0)">
      <g transform="matrix(1.0, 0.0, 0.0, 1.0, 0.0, 0.0)">
        <use fill="#ffffff" fill-opacity="0.18431373" height="15.5" transform="matrix(0.0146, 0.0, 0.0, 0.0146, 0.0, 12.0)" width="283.3" xlink:href="#font_Fusion_f0"/>
        <use fill="#ffffff" fill-opacity="0.18431373" height="15.5" transform="matrix(0.0146, 0.0, 0.0, 0.0146, 16.5, 12.0)" width="283.3" xlink:href="#font_Fusion_o0"/>
        <use fill="#ffffff" fill-opacity="0.18431373" height="15.5" transform="matrix(0.0146, 0.0, 0.0, 0.0146, 33.0, 12.0)" width="283.3" xlink:href="#font_Fusion_r0"/>
        <use fill="#ffffff" fill-opacity="0.18431373" height="15.5" transform="matrix(0.0146, 0.0, 0.0, 0.0146, 49.5, 12.0)" width="283.3" xlink:href="#font_Fusion_t0"/>
        <use fill="#ffffff" fill-opacity="0.18431373" height="15.5" transform="matrix(0.0146, 0.0, 0.0, 0.0146, 66.0, 12.0)" width="283.3" xlink:href="#font_Fusion_r0"/>
        <use fill="#ffffff" fill-opacity="0.18431373" height="15.5" transform="matrix(0.0146, 0.0, 0.0, 0.0146, 82.5, 12.0)" width="283.3" xlink:href="#font_Fusion_e0"/>
        <use fill="#ffffff" fill-opacity="0.18431373" height="15.5" transform="matrix(0.0146, 0.0, 0.0, 0.0146, 99.0, 12.0)" width="283.3" xlink:href="#font_Fusion_s0"/>
        <use fill="#ffffff" fill-opacity="0.18431373" height="15.5" transform="matrix(0.0146, 0.0, 0.0, 0.0146, 115.5, 12.0)" width="283.3" xlink:href="#font_Fusion_s0"/>
        <use fill="#ffffff" fill-opacity="0.18431373" height="15.5" transform="matrix(0.0146, 0.0, 0.0, 0.0146, 144.0, 12.0)" width="283.3" xlink:href="#font_Fusion_e0"/>
        <use fill="#ffffff" fill-opacity="0.18431373" height="15.5" transform="matrix(0.0146, 0.0, 0.0, 0.0146, 160.5, 12.0)" width="283.3" xlink:href="#font_Fusion_n0"/>
        <use fill="#ffffff" fill-opacity="0.18431373" height="15.5" transform="matrix(0.0146, 0.0, 0.0, 0.0146, 177.75, 12.0)" width="283.3" xlink:href="#font_Fusion_t0"/>
        <use fill="#ffffff" fill-opacity="0.18431373" height="15.5" transform="matrix(0.0146, 0.0, 0.0, 0.0146, 194.25, 12.0)" width="283.3" xlink:href="#font_Fusion_r0"/>
        <use fill="#ffffff" fill-opacity="0.18431373" height="15.5" transform="matrix(0.0146, 0.0, 0.0, 0.0146, 210.75, 12.0)" width="283.3" xlink:href="#font_Fusion_a0"/>
        <use fill="#ffffff" fill-opacity="0.18431373" height="15.5" transform="matrix(0.0146, 0.0, 0.0, 0.0146, 227.25, 12.0)" width="283.3" xlink:href="#font_Fusion_n0"/>
        <use fill="#ffffff" fill-opacity="0.18431373" height="15.5" transform="matrix(0.0146, 0.0, 0.0, 0.0146, 244.5, 12.0)" width="283.3" xlink:href="#font_Fusion_c0"/>
        <use fill="#ffffff" fill-opacity="0.18431373" height="15.5" transform="matrix(0.0146, 0.0, 0.0, 0.0146, 261.0, 12.0)" width="283.3" xlink:href="#font_Fusion_e0"/>
      </g>
    </g>
    <g id="font_Fusion_f0">
      <path d="M1075.0 -564.5 L1075.0 -564.5 Q1075.0 -585.0 1060.0 -599.5 1045.5 -614.5 1025.0 -614.5 L151.5 -614.5 Q110.5 -614.5 80.5 -585.0 51.0 -555.0 51.0 -515.0 L51.0 0.0 307.0 0.0 307.0 -205.0 972.5 -205.0 1075.0 -358.5 307.0 -358.5 307.0 -409.5 Q307.0 -430.5 322.0 -446.0 336.5 -461.0 357.0 -461.0 L819.0 -461.0 819.0 -409.5 1075.0 -409.5 1075.0 -564.5" fill-rule="evenodd" stroke="none"/>
    </g>
    <g id="font_Fusion_o0">
      <path d="M975.5 -614.5 L151.5 -614.5 Q110.5 -614.5 80.5 -585.0 51.0 -555.0 51.0 -515.0 L51.0 -100.5 Q51.0 -60.5 81.0 -30.0 111.5 0.0 151.5 0.0 L975.5 0.0 Q1015.5 0.0 1045.5 -30.0 1075.0 -60.5 1075.0 -100.5 L1075.0 -515.0 Q1075.0 -555.0 1045.5 -585.0 1015.5 -614.5 975.5 -614.5 M769.0 -461.0 L769.0 -461.0 Q789.5 -461.0 804.0 -446.0 819.0 -431.5 819.0 -411.0 L819.0 -203.5 Q819.0 -183.0 804.0 -168.5 789.5 -153.5 769.0 -153.5 L357.0 -153.5 Q336.5 -153.5 322.0 -168.5 307.0 -183.0 307.0 -203.5 L307.0 -411.0 Q307.0 -431.5 322.0 -446.0 336.5 -461.0 357.0 -461.0 L769.0 -461.0" fill-rule="evenodd" stroke="none"/>
    </g>
    <g id="font_Fusion_r0">
      <path d="M819.0 -410.5 L819.0 -357.5 Q819.0 -338.0 804.0 -322.5 789.5 -307.0 769.0 -307.0 L409.5 -307.0 682.0 102.5 939.0 102.5 768.0 -153.5 975.5 -153.5 Q1015.5 -153.5 1045.5 -183.0 1075.0 -213.0 1075.0 -254.0 L1075.0 -515.0 Q1075.0 -555.0 1045.5 -585.0 1015.5 -614.5 975.5 -614.5 L51.0 -614.5 51.0 0.0 307.0 0.0 307.0 -461.0 769.0 -461.0 Q789.5 -461.0 804.0 -446.0 819.0 -431.0 819.0 -410.5" fill-rule="evenodd" stroke="none"/>
    </g>
    <g id="font_Fusion_t0">
      <path d="M1075.0 -100.5 L1075.0 -256.0 819.0 -256.0 819.0 -203.5 Q819.0 -183.0 804.0 -168.5 789.5 -153.5 769.0 -153.5 L357.0 -153.5 Q337.5 -153.5 322.5 -169.0 307.0 -184.0 307.0 -203.5 L307.0 -409.5 716.5 -409.5 819.0 -563.0 307.0 -563.0 307.0 -614.5 51.0 -614.5 51.0 -100.5 Q51.0 -60.5 81.0 -30.0 111.5 0.0 151.5 0.0 L975.5 0.0 Q1015.5 0.0 1045.5 -29.5 1075.0 -59.5 1075.0 -100.5" fill-rule="evenodd" stroke="none"/>
    </g>
    <g id="font_Fusion_e0">
      <path d="M819.0 -358.5 L307.0 -358.5 307.0 -411.0 Q307.0 -431.5 322.0 -446.0 336.5 -461.0 357.0 -461.0 L769.0 -461.0 Q789.5 -461.0 804.0 -446.0 819.0 -431.5 819.0 -411.0 L819.0 -358.5 M1075.0 -256.0 L1075.0 -515.0 Q1075.0 -555.0 1045.5 -585.0 1015.5 -614.5 975.5 -614.5 L151.5 -614.5 Q110.5 -614.5 80.5 -585.0 51.0 -555.0 51.0 -515.0 L51.0 -100.5 Q51.0 -60.5 81.0 -30.0 111.5 0.0 151.5 0.0 L870.0 0.0 972.5 -153.5 357.0 -153.5 Q336.5 -153.5 322.0 -168.5 307.0 -183.0 307.0 -203.5 L307.0 -256.0 1075.0 -256.0" fill-rule="evenodd" stroke="none"/>
    </g>
    <g id="font_Fusion_s0">
      <path d="M307.0 -358.5 L307.0 -411.0 Q307.0 -431.5 322.0 -446.0 336.5 -461.0 357.0 -461.0 L972.5 -461.0 1075.0 -614.5 151.5 -614.5 Q110.5 -614.5 80.5 -585.0 51.0 -555.0 51.0 -515.0 L51.0 -256.0 819.0 -256.0 819.0 -203.5 Q819.0 -184.0 804.0 -169.0 789.5 -153.5 769.0 -153.5 L153.5 -153.5 51.0 0.0 975.5 0.0 Q1015.5 0.0 1045.5 -29.5 1075.0 -59.5 1075.0 -100.5 L1075.0 -358.5 307.0 -358.5" fill-rule="evenodd" stroke="none"/>
    </g>
    <g id="font_Fusion_n0">
      <path d="M307.0 -614.5 L51.0 -614.5 51.0 0.0 307.0 0.0 307.0 -409.5 410.5 -409.5 Q431.0 -409.5 445.5 -394.5 460.5 -380.0 460.5 -359.5 L460.5 -100.5 Q460.5 -60.5 490.5 -30.0 521.0 0.0 561.0 0.0 L1026.5 0.0 Q1066.5 0.0 1096.5 -29.5 1126.0 -59.5 1126.0 -100.5 L1126.0 -614.5 870.0 -512.0 870.0 -203.5 Q870.0 -184.0 855.0 -169.0 840.5 -153.5 820.0 -153.5 L766.5 -153.5 Q746.0 -153.5 731.5 -168.5 716.5 -183.0 716.5 -203.5 L716.5 -463.5 Q716.5 -503.5 687.0 -533.5 657.0 -563.0 617.0 -563.0 L307.0 -563.0 307.0 -614.5" fill-rule="evenodd" stroke="none"/>
    </g>
    <g id="font_Fusion_a0">
      <path d="M1075.0 0.0 L1075.0 -614.5 151.5 -614.5 Q110.5 -614.5 80.5 -585.0 51.0 -555.0 51.0 -515.0 L51.0 -100.5 Q51.0 -60.5 81.0 -30.0 111.5 0.0 151.5 0.0 L614.0 0.0 716.5 -153.5 357.0 -153.5 Q336.5 -153.5 322.0 -168.5 307.0 -183.0 307.0 -203.5 L307.0 -411.0 Q307.0 -431.5 322.0 -446.0 336.5 -461.0 357.0 -461.0 L819.0 -461.0 819.0 0.0 1075.0 0.0" fill-rule="evenodd" stroke="none"/>
    </g>
    <g id="font_Fusion_c0">
      <path d="M1025.0 -614.5 L151.5 -614.5 Q110.5 -614.5 80.5 -585.0 51.0 -555.0 51.0 -515.0 L51.0 -100.5 Q51.0 -60.5 81.0 -30.0 111.5 0.0 151.5 0.0 L1075.0 0.0 1075.0 -153.5 357.0 -153.5 Q336.5 -153.5 322.0 -168.5 307.0 -183.0 307.0 -203.5 L307.0 -409.5 Q307.0 -430.5 322.0 -446.0 336.5 -461.0 357.0 -461.0 L819.0 -461.0 819.0 -409.5 1075.0 -409.5 1075.0 -564.5 Q1075.0 -585.0 1060.0 -599.5 1045.5 -614.5 1025.0 -614.5" fill-rule="evenodd" stroke="none"/>
    </g>
  </defs>
</svg>
