<?xml version="1.0" encoding="UTF-8" standalone="no"?>
<svg xmlns:xlink="http://www.w3.org/1999/xlink" height="50.55px" width="57.45px" xmlns="http://www.w3.org/2000/svg">
  <g transform="matrix(1.0, 0.0, 0.0, 1.0, 0.0, 0.0)">
    <use height="50.55" transform="matrix(1.0, 0.0, 0.0, 1.0, 0.0, 0.0)" width="57.45" xlink:href="#shape0"/>
  </g>
  <defs>
    <g id="shape0" transform="matrix(1.0, 0.0, 0.0, 1.0, 0.0, 0.0)">
      <path d="M57.25 19.65 Q57.75 23.4 56.95 27.25 56.2 30.6 54.6 33.6 L52.8 36.45 51.4 38.05 Q49.7 39.75 48.35 39.95 L44.75 39.9 39.95 39.1 Q34.05 37.8 33.3 36.45 L30.6 31.4 31.7 36.7 Q32.05 38.25 28.15 43.35 L24.75 47.35 Q23.0 49.15 21.85 49.9 20.65 50.65 18.1 50.5 15.45 50.4 12.45 49.25 9.1 48.0 6.2 45.9 L5.6 45.45 Q2.8 43.25 0.85 40.3 -1.25 37.15 1.75 33.05 L3.05 31.45 Q5.55 28.85 9.85 26.0 11.95 24.55 14.25 23.3 L12.65 21.55 Q11.95 20.8 11.65 18.25 L11.45 16.05 11.3 14.0 11.35 13.45 11.3 13.15 11.4 8.55 11.65 5.6 Q11.9 4.6 13.25 4.05 L15.55 3.15 Q16.4 2.65 18.5 2.55 L20.4 2.65 24.0 0.75 Q24.9 0.25 28.25 0.05 L32.55 0.2 Q33.25 0.55 35.45 11.7 L35.45 11.85 36.25 15.75 42.15 14.75 48.8 14.4 52.15 14.9 Q56.8 16.0 57.25 19.65 M24.95 2.85 L24.55 3.15 24.3 3.3 Q24.15 3.85 24.15 4.55 L24.3 6.2 24.55 8.5 24.7 9.35 24.7 9.45 24.9 10.7 25.25 12.5 25.45 13.5 26.15 17.0 26.3 17.3 26.4 18.0 26.65 18.95 26.9 20.15 27.05 20.6 27.05 20.7 27.5 22.5 27.55 22.55 28.35 24.85 29.15 25.35 29.5 25.3 29.5 24.65 29.45 24.65 29.45 24.6 29.3 23.3 29.25 23.25 29.25 23.15 29.2 22.95 28.85 21.1 28.85 20.8 28.85 20.55 28.8 20.55 28.8 20.35 28.15 16.75 28.15 16.65 26.9 10.05 26.9 10.0 26.8 9.35 26.8 9.3 26.15 5.95 26.1 5.95 25.95 5.05 25.95 4.9 25.4 3.5 24.95 2.85 M18.35 21.45 L18.35 21.3 17.9 19.05 17.9 18.9 17.85 18.75 17.7 17.8 17.65 17.45 17.5 16.9 17.5 16.7 16.65 11.75 16.65 11.65 16.6 11.65 16.6 11.45 15.85 7.75 15.7 7.2 15.0 6.0 Q14.45 5.3 14.15 5.45 L12.85 6.0 12.4 7.2 Q12.3 7.55 12.35 8.8 L12.4 10.9 12.55 11.55 12.75 12.9 12.85 13.7 13.0 14.35 13.3 15.7 13.8 17.85 13.9 18.3 14.9 21.45 15.4 23.05 15.45 23.2 15.5 23.2 15.5 23.25 16.05 24.1 16.15 24.25 16.65 25.1 18.05 25.5 18.75 25.35 18.7 23.5 18.65 23.5 18.65 23.45 18.65 23.35 18.65 23.3 18.55 22.5 18.45 22.1 18.4 21.8 18.35 21.45 M17.55 16.9 L17.5 16.9 17.55 17.05 17.55 16.9 M12.8 41.6 Q13.6 42.15 14.9 42.35 L17.7 42.8 19.55 42.55 Q20.5 42.25 22.25 41.35 23.75 40.55 25.65 38.05 27.45 35.65 27.7 34.3 27.95 33.35 27.9 29.65 L27.8 27.05 26.2 27.45 23.3 27.8 20.3 27.5 19.2 27.15 18.35 26.9 Q18.1 26.9 17.55 26.55 L16.3 25.4 Q11.7 28.2 11.4 28.55 7.85 33.05 7.75 35.95 7.7 36.95 8.05 37.85 L8.65 38.8 8.95 39.6 9.15 40.35 Q9.45 41.25 10.3 41.6 L12.15 41.95 12.95 41.8 12.8 41.6 M48.95 23.85 L48.7 23.35 Q48.15 22.3 47.25 21.45 46.15 20.45 44.75 20.05 L41.55 19.45 Q40.1 19.3 39.15 19.45 L36.95 19.8 37.7 23.75 Q37.8 24.4 37.05 25.3 36.25 26.15 35.3 26.3 L29.85 26.55 31.65 28.8 34.65 32.15 Q35.7 32.95 38.45 33.6 L42.9 33.9 45.5 33.15 46.95 32.1 48.7 30.05 Q49.6 28.9 49.7 27.85 L49.6 26.35 49.95 26.15 50.75 25.25 50.9 25.0 Q51.2 24.3 50.9 23.55 L50.45 22.35 50.2 21.4 49.9 20.65 49.45 20.05 Q47.85 18.25 43.3 17.3 L36.7 18.25 36.95 19.6 42.3 18.75 Q46.95 19.25 48.6 22.9 L48.95 23.85 M51.75 34.8 L52.4 34.2 53.5 32.3 54.35 30.2 Q54.6 29.8 54.15 29.65 L53.6 29.6 Q53.15 31.45 52.15 32.85 49.7 36.15 44.0 37.25 L36.15 37.6 Q41.6 39.15 46.65 37.55 49.3 36.65 51.75 34.8 M28.7 40.1 Q26.6 42.45 24.35 44.15 17.05 49.7 10.9 46.65 L10.6 47.1 Q10.4 47.55 10.8 47.6 L13.3 48.4 16.55 48.8 Q19.95 48.05 22.6 46.5 27.7 43.6 30.35 38.05 L28.7 40.1" fill="#ff0000" fill-rule="evenodd" stroke="none"/>
      <path d="M18.55 22.5 L18.65 23.3 18.65 23.35 18.65 23.45 18.65 23.5 18.7 23.5 18.75 25.35 18.05 25.5 16.65 25.1 16.15 24.25 16.05 24.1 15.5 23.25 15.5 23.2 15.45 23.2 15.4 23.05 14.9 21.45 13.9 18.3 13.8 17.85 13.3 15.7 13.0 14.35 12.85 13.7 12.75 12.9 12.55 11.55 12.4 10.9 12.35 8.8 Q12.3 7.55 12.4 7.2 L12.85 6.0 14.15 5.45 Q14.45 5.3 15.0 6.0 L15.7 7.2 15.85 7.75 16.6 11.45 16.6 11.65 16.65 11.65 16.65 11.75 17.5 16.7 17.5 16.9 17.65 17.45 17.7 17.8 17.85 18.75 17.9 18.9 17.9 19.05 18.35 21.3 18.35 21.45 18.2 21.45 18.25 21.8 18.25 22.15 18.35 22.55 18.4 22.55 18.55 22.5 M24.95 2.85 L25.4 3.5 25.95 4.9 25.95 5.05 26.1 5.95 26.15 5.95 26.8 9.3 26.8 9.35 26.9 10.0 26.9 10.05 28.15 16.65 28.15 16.75 28.8 20.35 28.8 20.55 28.85 20.55 28.85 20.8 28.85 21.1 29.2 22.95 29.25 23.15 29.25 23.25 29.3 23.3 29.45 24.6 29.45 24.65 29.5 24.65 29.5 25.3 29.15 25.35 28.35 24.85 27.55 22.55 27.5 22.5 27.05 20.7 27.05 20.6 26.9 20.15 26.65 18.95 26.4 18.0 26.3 17.3 26.15 17.0 25.45 13.5 25.25 12.5 24.9 10.7 24.7 9.45 24.7 9.35 24.55 8.5 24.3 6.2 24.15 4.55 Q24.15 3.85 24.3 3.3 L24.55 3.15 24.95 2.85 M17.55 16.9 L17.55 17.05 17.5 16.9 17.55 16.9 M51.75 34.8 Q49.3 36.65 46.65 37.55 41.6 39.15 36.15 37.6 L44.0 37.25 Q49.7 36.15 52.15 32.85 53.15 31.45 53.6 29.6 L54.15 29.65 Q54.6 29.8 54.35 30.2 L53.5 32.3 52.4 34.2 51.75 34.8 M28.7 40.1 L30.35 38.05 Q27.7 43.6 22.6 46.5 19.95 48.05 16.55 48.8 L13.3 48.4 10.8 47.6 Q10.4 47.55 10.6 47.1 L10.9 46.65 Q17.05 49.7 24.35 44.15 26.6 42.45 28.7 40.1" fill="#fea3a3" fill-rule="evenodd" stroke="none"/>
      <path d="M18.25 22.15 L18.25 21.8 18.4 21.8 18.45 22.1 18.3 22.15 18.25 22.15" fill="#e6e6e6" fill-rule="evenodd" stroke="none"/>
      <path d="M18.55 22.5 L18.4 22.55 18.35 22.55 18.25 22.15 18.3 22.15 18.45 22.1 18.55 22.5 M18.25 21.8 L18.2 21.45 18.35 21.45 18.4 21.8 18.25 21.8 M12.8 41.6 L12.95 41.8 12.15 41.95 10.3 41.6 Q9.45 41.25 9.15 40.35 L8.95 39.6 8.65 38.8 8.05 37.85 Q7.7 36.95 7.75 35.95 7.85 33.05 11.4 28.55 11.7 28.2 16.3 25.4 L17.55 26.55 13.85 28.8 13.45 29.2 12.1 30.75 Q9.8 34.2 10.85 37.95 11.3 39.4 12.2 40.7 L12.8 41.6 M49.6 26.35 L49.35 26.5 49.3 25.45 48.95 23.85 48.6 22.9 Q46.95 19.25 42.3 18.75 L36.95 19.6 36.7 18.25 43.3 17.3 Q47.85 18.25 49.45 20.05 L49.9 20.65 50.2 21.4 50.45 22.35 50.9 23.55 Q51.2 24.3 50.9 25.0 L50.75 25.25 49.95 26.15 49.6 26.35" fill="#b10101" fill-rule="evenodd" stroke="none"/>
    </g>
  </defs>
</svg>
