<?xml version="1.0" encoding="UTF-8" standalone="no"?>
<svg xmlns:xlink="http://www.w3.org/1999/xlink" height="243.95px" width="389.15px" xmlns="http://www.w3.org/2000/svg">
  <g transform="matrix(1.0, 0.0, 0.0, 1.0, 0.0, -0.05)">
    <use height="243.95" transform="matrix(1.0, 0.0, 0.0, 1.0, 0.0, 0.05)" width="389.15" xlink:href="#shape0"/>
  </g>
  <defs>
    <g id="shape0" transform="matrix(1.0, 0.0, 0.0, 1.0, 0.0, -0.05)">
      <path d="M300.1 0.55 Q319.15 1.8 351.55 7.3 L382.2 12.65 387.35 13.55 387.15 16.65 388.15 30.7 Q389.15 43.35 389.15 62.15 L389.15 74.15 Q389.15 89.15 388.15 102.15 L385.15 157.15 Q383.2 162.55 377.6 179.1 371.65 195.25 365.15 206.8 346.5 239.8 319.0 244.0 316.1 242.0 267.4 238.8 202.45 234.6 183.15 232.15 170.95 230.65 81.4 197.5 26.75 177.3 0.0 166.55 L0.15 166.15 Q1.15 164.15 18.45 139.35 36.6 113.4 39.15 109.15 52.55 87.35 71.2 69.4 76.05 64.75 96.15 48.15 109.35 37.25 129.05 26.3 L133.4 23.95 Q130.25 27.75 129.2 31.2 129.9 31.9 130.9 32.1 L133.7 32.2 140.2 31.2 146.7 30.2 Q149.8 30.2 152.55 31.2 155.3 32.2 158.2 32.2 157.3 36.45 150.5 39.1 L142.2 42.2 142.2 43.2 146.25 43.7 150.7 44.2 Q160.55 44.2 166.85 40.5 169.55 38.9 179.2 30.2 193.1 17.75 202.05 18.25 206.5 18.5 208.2 21.2 L208.2 21.3 Q212.6 21.7 216.7 23.8 221.05 26.05 228.2 25.2 228.2 28.2 229.2 30.2 L226.7 31.85 Q226.1 32.65 225.2 36.2 233.45 38.7 236.1 40.0 239.35 41.6 240.25 44.0 240.9 45.7 241.1 51.1 241.4 58.6 242.2 64.2 243.2 71.5 245.95 86.8 248.2 100.4 248.2 108.2 248.2 116.15 246.2 122.95 244.2 129.75 244.2 133.7 244.2 146.65 248.2 161.5 252.25 176.65 256.2 177.2 256.2 175.15 257.7 172.8 259.2 170.4 259.2 169.7 259.2 164.45 256.2 145.9 L253.2 128.2 Q253.2 127.05 255.7 118.0 258.2 108.9 258.2 102.7 258.2 87.8 257.9 84.3 257.05 74.65 253.2 64.2 L253.2 38.2 268.2 38.2 273.45 39.6 277.2 40.2 277.2 35.2 271.25 30.8 Q265.1 26.15 263.2 25.2 L263.2 19.2 282.2 19.2 Q285.15 20.35 298.9 27.45 310.0 33.2 312.7 33.2 316.95 33.2 321.4 30.85 327.2 27.85 326.2 23.2 322.15 22.6 307.25 16.85 L290.2 10.2 Q291.3 8.25 297.45 2.85 L300.1 0.55 M161.4 14.65 L162.95 14.15 161.65 15.15 161.4 14.65 M198.15 11.15 L200.05 11.0 204.55 10.4 204.7 11.2 200.15 11.5 200.1 11.5 198.3 11.75 198.25 11.75 198.15 11.15" fill="#000000" fill-rule="evenodd" stroke="none"/>
      <path d="M133.4 23.95 Q149.95 15.15 156.15 15.15 L161.4 14.65 161.65 15.15 160.2 16.2 160.2 24.2 Q167.35 22.25 185.0 15.4 192.05 12.65 198.25 11.75 L198.3 11.75 200.1 11.5 200.15 11.5 204.7 11.2 Q208.5 11.2 221.65 13.7 234.8 16.2 240.2 16.2 248.35 16.2 256.35 9.7 261.35 5.7 265.2 0.05 271.4 -0.05 279.65 0.35 L286.65 0.65 297.0 0.35 300.1 0.55 297.45 2.85 Q291.3 8.25 290.2 10.2 L307.25 16.85 Q322.15 22.6 326.2 23.2 327.2 27.85 321.4 30.85 316.95 33.2 312.7 33.2 310.0 33.2 298.9 27.45 285.15 20.35 282.2 19.2 L263.2 19.2 263.2 25.2 Q265.1 26.15 271.25 30.8 L277.2 35.2 277.2 40.2 273.45 39.6 268.2 38.2 253.2 38.2 253.2 64.2 Q257.05 74.65 257.9 84.3 258.2 87.8 258.2 102.7 258.2 108.9 255.7 118.0 253.2 127.05 253.2 128.2 L256.2 145.9 Q259.2 164.45 259.2 169.7 259.2 170.4 257.7 172.8 256.2 175.15 256.2 177.2 252.25 176.65 248.2 161.5 244.2 146.65 244.2 133.7 244.2 129.75 246.2 122.95 248.2 116.15 248.2 108.2 248.2 100.4 245.95 86.8 243.2 71.5 242.2 64.2 241.4 58.6 241.1 51.1 240.9 45.7 240.25 44.0 239.35 41.6 236.1 40.0 233.45 38.7 225.2 36.2 226.1 32.65 226.7 31.85 L229.2 30.2 Q228.2 28.2 228.2 25.2 221.05 26.05 216.7 23.8 212.6 21.7 208.2 21.3 L208.2 21.2 Q206.5 18.5 202.05 18.25 193.1 17.75 179.2 30.2 169.55 38.9 166.85 40.5 160.55 44.2 150.7 44.2 L146.25 43.7 142.2 43.2 142.2 42.2 150.5 39.1 Q157.3 36.45 158.2 32.2 155.3 32.2 152.55 31.2 149.8 30.2 146.7 30.2 L140.2 31.2 133.7 32.2 130.9 32.1 Q129.9 31.9 129.2 31.2 130.25 27.75 133.4 23.95" fill="#330000" fill-rule="evenodd" stroke="none"/>
      <path d="M162.95 14.15 L164.2 13.65 Q170.5 12.05 198.15 11.15 L198.25 11.75 Q192.05 12.65 185.0 15.4 167.35 22.25 160.2 24.2 L160.2 16.2 161.65 15.15 162.95 14.15 M204.55 10.4 L223.0 7.05 251.15 1.15 Q255.9 0.1 265.2 0.05 261.35 5.7 256.35 9.7 248.35 16.2 240.2 16.2 234.8 16.2 221.65 13.7 208.5 11.2 204.7 11.2 L204.55 10.4" fill="#650101" fill-rule="evenodd" stroke="none"/>
    </g>
  </defs>
</svg>
