<?xml version="1.0" encoding="UTF-8" standalone="no"?>
<svg xmlns:xlink="http://www.w3.org/1999/xlink" height="90.2px" width="13.95px" xmlns="http://www.w3.org/2000/svg">
  <g transform="matrix(1.0, 0.0, 0.0, 1.0, 0.0, 0.0)">
    <use height="90.2" transform="matrix(1.0, 0.0, 0.0, 1.0, 0.0, 0.0)" width="13.95" xlink:href="#shape0"/>
  </g>
  <defs>
    <g id="shape0" transform="matrix(1.0, 0.0, 0.0, 1.0, 0.0, 0.0)">
      <path d="M8.15 0.0 L9.5 7.5 Q10.2 11.5 11.1 14.45 L9.4 14.55 9.3 14.4 9.15 14.55 9.4 14.55 11.7 19.15 Q14.45 24.7 13.85 25.9 L8.75 28.85 Q8.45 29.55 7.7 41.65 7.05 54.7 7.3 61.05 L8.05 75.8 Q8.6 87.25 8.35 87.8 5.2 90.75 3.9 90.1 L2.75 89.35 2.2 88.75 Q3.9 85.75 4.0 84.5 4.25 82.7 2.85 79.8 2.25 78.5 2.55 75.35 2.85 72.6 1.2 70.55 0.35 69.5 0.45 62.7 0.5 55.1 0.05 53.35 -0.25 52.1 1.1 49.2 2.45 46.2 2.3 44.55 L0.8 36.35 Q0.5 34.75 2.45 31.2 3.3 29.5 1.35 22.85 -0.7 16.2 0.5 13.75 L2.0 9.05 Q3.0 5.25 3.3 4.65 4.25 2.6 5.0 1.75 6.4 0.0 8.15 0.0" fill="#7d0202" fill-opacity="0.5921569" fill-rule="evenodd" stroke="none"/>
    </g>
  </defs>
</svg>
