<?xml version="1.0" encoding="UTF-8" standalone="no"?>
<svg xmlns:xlink="http://www.w3.org/1999/xlink" height="136.95px" width="326.95px" xmlns="http://www.w3.org/2000/svg">
  <g transform="matrix(1.0, 0.0, 0.0, 1.0, 159.55, 64.5)">
    <use height="71.35" transform="matrix(0.9993, 0.0313, -0.0313, 0.9993, -156.6213, -45.9657)" width="319.1" xlink:href="#sprite0"/>
    <use height="30.05" transform="matrix(0.9563, 0.2889, -0.2889, 0.9563, 11.2377, 15.0191)" width="23.15" xlink:href="#sprite1"/>
  </g>
  <defs>
    <g id="sprite0" transform="matrix(1.0, 0.0, 0.0, 1.0, 159.55, 35.7)">
      <use height="71.35" transform="matrix(1.0, 0.0, 0.0, 1.0, -159.55, -35.7)" width="319.1" xlink:href="#shape0"/>
    </g>
    <g id="shape0" transform="matrix(1.0, 0.0, 0.0, 1.0, 159.55, 35.7)">
      <path d="M37.2 -22.05 L37.4 -22.0 37.2 -19.65 37.2 -18.05 37.05 -16.55 Q36.9 -16.25 35.6 -15.95 L35.2 -15.85 Q36.15 -15.4 36.15 -14.6 L36.15 -14.2 36.65 -14.05 36.9 -14.9 37.5 -14.95 Q38.0 -14.95 38.25 -13.9 38.45 -12.9 40.15 -12.9 L43.4 -13.05 44.35 -13.15 44.35 -14.0 44.45 -14.65 44.05 -15.4 Q44.05 -16.0 44.35 -16.3 L44.2 -18.3 Q44.2 -18.95 44.35 -19.25 L43.85 -19.25 41.95 -19.1 41.95 -21.75 37.4 -22.0 37.2 -22.55 37.2 -22.05 M18.95 -9.45 L18.95 -9.15 19.7 -9.15 Q20.6 -9.3 21.05 -8.0 21.5 -6.65 21.85 -6.55 L23.55 -6.1 25.75 -5.8 27.4 -5.75 29.3 -5.8 30.7 -5.9 34.55 -5.8 35.8 -5.8 38.85 -5.65 48.45 -5.35 54.05 -5.65 Q53.4 -7.25 49.6 -7.3 L48.6 -7.3 44.2 -7.9 44.0 -8.3 44.0 -8.4 37.55 -7.9 36.5 -7.9 37.4 -10.25 37.55 -10.5 36.95 -10.9 35.5 -11.25 34.9 -11.35 31.9 -11.4 31.2 -11.35 26.9 -11.2 23.85 -11.05 21.05 -11.1 Q21.15 -10.5 20.55 -10.1 L19.2 -9.8 18.95 -9.8 18.95 -9.45 M25.85 -35.7 L26.15 -35.7 28.85 -35.55 Q29.3 -35.45 29.85 -34.95 L29.9 -34.85 30.3 -34.5 30.4 -34.25 30.6 -34.25 30.75 -34.2 49.95 -34.2 50.05 -35.25 54.45 -35.25 54.45 -34.35 54.45 -34.05 60.35 -34.05 Q61.85 -34.05 64.45 -35.1 L64.95 -35.3 65.05 -35.4 65.55 -35.25 74.5 -35.25 74.5 -34.55 Q75.6 -32.45 76.0 -30.7 L76.25 -29.05 Q76.25 -27.75 75.8 -26.75 L74.55 -24.95 74.55 -24.25 65.8 -24.25 65.2 -24.4 62.6 -25.2 62.45 -25.25 62.25 -23.35 62.15 -22.4 62.15 -22.25 61.95 -19.45 61.95 -19.35 62.15 -16.95 61.45 -16.4 61.1 -16.15 61.1 -15.2 61.0 -13.2 60.85 -12.9 60.95 -11.8 60.95 -11.7 60.8 -10.8 60.65 -9.9 60.5 -9.8 60.65 -9.6 Q60.7 -7.7 62.15 -7.0 L62.4 -6.95 62.85 -6.8 67.45 -6.55 68.0 -6.55 Q70.65 -6.5 71.7 -5.65 73.35 -4.35 72.65 -0.65 74.05 -1.35 76.75 0.25 L76.9 0.3 78.2 1.25 82.8 3.95 84.35 4.4 Q85.9 4.7 87.8 4.35 L89.7 3.8 91.45 3.1 93.2 2.3 93.5 2.15 Q93.55 2.05 93.65 2.05 L93.7 2.0 93.8 2.05 93.85 2.0 93.85 1.9 93.8 1.9 93.65 1.85 93.1 1.45 92.95 1.3 Q92.25 0.8 92.25 0.0 92.25 -0.95 92.9 -1.65 94.9 -4.45 104.75 -4.45 L107.8 -4.15 112.65 -3.75 116.55 -3.9 123.45 -4.3 126.7 -4.6 127.1 -4.6 129.75 -4.8 140.75 -5.35 140.9 -5.35 142.45 -5.05 142.45 -3.75 141.45 -2.5 140.75 -0.3 140.6 0.3 140.55 0.65 140.55 1.1 Q140.6 1.0 140.7 1.0 143.1 0.0 143.55 -2.0 L143.7 -3.25 147.6 -3.45 151.3 -3.75 151.95 -3.75 153.35 -3.9 155.05 -4.0 158.35 -4.15 Q159.0 -2.15 159.3 1.1 L159.3 1.3 159.4 2.5 159.45 4.4 159.55 9.95 159.55 11.9 159.55 12.45 159.25 24.0 159.1 25.5 158.7 29.0 Q157.85 34.45 156.2 34.45 L155.85 34.45 153.05 34.15 152.75 34.15 151.35 33.9 149.15 33.6 142.3 32.7 139.65 32.25 137.05 31.9 136.4 33.85 Q135.4 35.65 134.55 35.65 L132.7 35.35 Q132.05 34.9 132.05 33.6 132.05 32.65 132.3 32.2 132.55 31.7 133.15 31.25 L130.35 30.75 128.0 30.3 121.65 29.3 121.4 29.3 119.35 29.0 116.4 28.55 115.35 28.3 107.8 26.3 106.2 25.8 101.6 24.85 98.85 25.8 98.65 25.95 Q98.3 26.15 98.1 26.3 95.85 27.4 92.55 27.85 L86.6 28.4 86.3 28.45 Q86.15 25.9 85.1 23.5 83.65 20.15 80.6 17.05 78.4 14.85 76.15 13.55 73.9 12.3 71.55 12.05 L69.25 12.0 69.2 12.0 Q69.7 18.85 65.1 20.55 L61.7 21.0 59.75 20.45 58.0 19.6 Q57.45 19.3 56.85 18.25 L56.8 18.05 Q56.1 16.75 54.45 17.1 52.75 17.5 53.0 15.55 L53.0 14.45 52.9 14.0 53.0 13.65 52.85 12.5 46.55 12.75 45.15 12.75 43.7 12.75 Q43.7 13.8 44.0 15.45 L44.0 17.1 Q43.1 16.95 42.85 15.6 L42.55 12.75 40.8 12.65 40.75 13.55 40.05 13.25 39.0 12.8 39.0 10.25 22.8 8.65 20.95 12.65 19.8 12.65 19.95 11.15 20.15 11.05 19.95 11.05 19.65 11.0 18.05 10.75 16.6 10.6 12.35 10.1 6.0 9.2 -1.05 8.95 -6.4 8.7 -7.7 8.7 -13.95 8.4 -20.8 8.1 -40.2 7.2 -42.25 7.15 -52.2 6.7 -62.25 6.15 -70.05 5.55 -73.5 5.7 Q-75.65 5.6 -75.25 4.25 L-77.55 3.65 -77.6 3.6 -79.5 2.6 -83.8 2.3 -85.6 2.35 -86.6 2.45 -89.4 2.6 -89.4 2.35 -91.75 2.45 -93.65 2.35 -94.55 2.2 -94.85 2.15 Q-94.95 2.05 -95.0 2.05 L-96.45 1.45 Q-97.25 1.3 -99.85 1.45 L-101.2 1.25 -101.45 1.1 Q-102.05 0.7 -102.05 0.0 L-101.8 -0.75 Q-101.35 -1.4 -100.15 -1.5 L-98.55 -1.5 -96.75 -1.65 -95.3 -1.8 -95.4 -3.25 -95.25 -3.9 -97.65 -4.05 -100.25 -4.45 -100.75 -4.45 -102.65 -4.5 -103.8 -4.5 -107.35 -4.3 Q-107.85 -4.15 -110.35 -4.3 L-113.45 -4.45 -119.75 -4.45 -123.85 -4.35 -125.8 -4.35 -126.2 -4.35 -129.0 -4.45 -129.3 -4.45 -129.35 -4.15 -130.7 -4.35 Q-131.25 -4.35 -132.55 -3.55 L-133.05 -3.25 -133.6 -3.0 -135.8 -2.7 -136.75 -2.95 -137.25 -3.55 Q-137.55 -4.3 -140.55 -4.15 L-158.65 -4.15 -158.85 -4.5 Q-159.55 -5.65 -159.55 -6.5 -159.55 -8.3 -158.5 -9.0 L-137.85 -9.0 -137.7 -9.0 -137.4 -9.0 Q-137.75 -10.05 -137.1 -12.45 L-137.0 -12.6 Q-136.6 -14.15 -136.1 -14.75 L-135.25 -15.1 -133.45 -14.95 Q-133.3 -14.65 -133.5 -13.3 L-133.45 -12.75 Q-133.2 -12.25 -132.55 -12.45 L-132.55 -9.15 -132.75 -9.0 -132.6 -9.0 -132.55 -9.0 -132.25 -9.0 -129.3 -9.0 -129.3 -8.1 -129.0 -8.15 -128.85 -8.1 -95.25 -8.0 -95.25 -8.15 -95.1 -8.3 -92.75 -8.75 -89.8 -8.6 -89.4 -8.7 -89.1 -8.55 -88.7 -8.45 -85.7 -8.15 -85.4 -8.15 -84.85 -8.15 -83.1 -8.25 -82.65 -8.25 -81.9 -8.25 -78.8 -8.7 -78.75 -8.45 -78.75 -8.55 -78.65 -8.55 -77.6 -9.3 -76.75 -9.9 -76.1 -10.35 -61.05 -10.35 -60.9 -9.9 -60.65 -9.65 -60.1 -9.6 -59.9 -9.6 -59.75 -9.75 -59.3 -10.2 -47.7 -10.2 -46.9 -9.75 -46.3 -9.3 -45.8 -9.9 -34.7 -9.9 -33.95 -9.75 -33.95 -9.6 -33.95 -9.35 -33.8 -9.15 -33.2 -9.15 -33.1 -9.35 -33.05 -9.45 -32.6 -9.9 -21.3 -9.75 Q-21.15 -9.75 -20.95 -9.6 L-20.55 -9.45 Q-20.1 -9.15 -19.85 -9.15 L-19.4 -9.35 -19.4 -9.45 -19.25 -9.75 -8.0 -9.75 -7.85 -9.6 -7.55 -9.35 -6.95 -9.3 -6.45 -9.35 -6.3 -9.5 -6.1 -9.9 -5.8 -10.05 -5.65 -9.9 1.4 -9.9 8.0 -9.6 8.9 -9.45 8.9 -9.3 9.2 -9.3 9.55 -9.65 9.65 -9.75 9.95 -9.95 10.8 -10.05 11.7 -10.05 12.0 -9.75 12.15 -9.6 12.3 -9.45 12.2 -9.3 12.35 -9.3 12.3 -9.45 12.5 -9.75 12.6 -9.8 12.8 -9.95 13.05 -10.05 14.65 -9.9 14.85 -9.9 14.95 -10.05 15.15 -9.9 15.9 -9.5 Q15.9 -9.95 16.15 -10.2 L17.0 -15.1 18.2 -15.1 18.2 -14.3 18.95 -14.3 19.7 -14.35 19.85 -15.4 20.25 -15.2 20.25 -15.35 Q20.25 -15.95 20.55 -16.25 20.1 -16.7 20.0 -17.7 L19.95 -18.5 20.1 -21.1 20.1 -21.45 20.15 -22.0 20.15 -22.05 20.25 -22.15 20.15 -22.15 19.55 -22.05 19.35 -21.9 18.05 -21.85 16.55 -22.05 15.55 -22.15 15.55 -23.15 14.8 -23.15 12.95 -23.3 11.3 -23.2 8.2 -23.05 6.25 -23.0 0.05 -22.7 -2.45 -22.55 -6.4 -22.25 -12.55 -21.85 -14.4 -21.85 -15.2 -21.9 -15.85 -22.0 -16.0 -22.0 -16.25 -21.9 -16.6 -22.0 -17.15 -22.3 -17.15 -22.4 Q-18.0 -23.0 -18.3 -24.25 -18.6 -25.35 -18.6 -27.5 L-18.6 -27.75 Q-18.5 -29.25 -17.8 -31.45 -17.0 -34.1 -16.1 -34.25 L17.95 -34.25 20.0 -34.5 21.65 -34.25 22.8 -34.25 Q22.95 -34.1 23.2 -34.1 L23.2 -34.25 23.25 -34.25 23.5 -34.65 24.15 -35.55 24.3 -35.6 25.85 -35.7 M21.05 -14.05 L21.05 -14.0 21.2 -14.0 21.05 -14.05 M50.2 -25.65 L50.3 -25.65 50.2 -25.7 50.2 -25.65 M52.1 -17.55 L49.65 -17.45 47.85 -17.4 47.95 -15.85 47.65 -14.9 47.15 -12.55 47.25 -11.35 47.25 -11.25 Q47.65 -9.95 48.85 -9.8 L49.3 -9.75 52.4 -10.05 Q53.85 -10.4 54.35 -10.9 L54.65 -11.25 54.8 -11.55 54.8 -11.65 56.05 -13.2 Q56.25 -13.45 56.55 -13.5 L56.4 -14.8 56.55 -15.8 56.4 -15.7 54.65 -15.95 53.25 -15.7 Q52.9 -16.4 53.1 -17.25 53.15 -17.55 52.1 -17.55 M63.75 12.05 L64.65 13.7 Q65.25 14.6 65.25 15.55 65.25 16.2 64.35 18.1 L63.75 18.1 Q64.45 16.45 63.5 14.6 62.6 12.8 61.0 12.2 L56.85 12.45 56.35 12.45 56.85 15.25 Q57.0 17.05 57.75 17.8 59.95 20.2 62.75 20.2 64.1 20.2 65.25 19.6 L66.6 18.65 Q68.3 16.95 68.3 14.85 L68.15 12.0 64.65 12.0 63.75 12.05 M134.65 31.5 Q134.2 31.7 133.9 32.4 L133.0 34.15 133.35 34.75 133.95 34.75 135.15 32.95 135.5 31.55 134.65 31.5 M-133.9 -9.0 L-133.75 -9.3 -133.8 -9.3 -133.9 -9.0 M-81.55 -2.5 L-81.55 -2.4 -81.4 -2.4 -81.55 -2.5" fill="#ffffff" fill-opacity="0.4117647" fill-rule="evenodd" stroke="none"/>
    </g>
    <g id="sprite1" transform="matrix(1.0, 0.0, 0.0, 1.0, 11.55, 15.0)">
      <use height="30.05" transform="matrix(1.0, 0.0, 0.0, 1.0, -11.55, -15.0)" width="23.15" xlink:href="#shape1"/>
    </g>
    <g id="shape1" transform="matrix(1.0, 0.0, 0.0, 1.0, 11.55, 15.0)">
      <path d="M10.9 -10.4 L11.6 -10.1 9.45 15.05 6.9 14.95 Q1.6 14.8 -4.35 13.5 L-4.35 13.35 -4.6 13.3 -4.9 13.2 -5.9 13.3 -11.55 12.6 -9.35 -10.95 -9.35 -11.0 -8.2 -11.0 -6.35 -15.0 9.85 -13.4 9.85 -10.85 10.9 -10.4" fill="#ffffff" fill-opacity="0.27450982" fill-rule="evenodd" stroke="none"/>
    </g>
  </defs>
</svg>
