<?xml version="1.0" encoding="UTF-8" standalone="no"?>
<svg xmlns:xlink="http://www.w3.org/1999/xlink" height="24.2px" width="83.8px" xmlns="http://www.w3.org/2000/svg">
  <g transform="matrix(1.0, 0.0, 0.0, 1.0, 28.7, 12.1)">
    <use height="14.8" transform="matrix(1.0, 0.0, 0.0, 1.0, -24.15, -2.7)" width="75.3" xlink:href="#shape0"/>
    <use height="20.9" transform="matrix(1.0, 0.0, 0.0, 1.0, -11.0, -12.1)" width="13.0" xlink:href="#sprite0"/>
  </g>
  <defs>
    <g id="shape0" transform="matrix(1.0, 0.0, 0.0, 1.0, 24.15, 2.7)">
      <path d="M48.05 -0.8 L48.05 -2.7 49.3 -2.7 49.3 -0.8 51.15 -0.8 51.15 0.45 49.3 0.45 49.3 2.3 48.05 2.3 48.05 0.45 46.15 0.45 46.15 -0.8 48.05 -0.8 M50.65 12.1 L-24.1 12.1 -24.1 12.0 -24.15 12.0 -24.15 4.25 -20.4 4.25 -20.4 8.1 47.0 8.1 47.0 4.25 50.75 4.25 50.75 12.0 50.65 12.0 50.65 12.1 M-23.65 1.7 L-23.65 0.3 -20.95 0.3 -20.95 1.7 -23.65 1.7" fill="#ffffff" fill-rule="evenodd" stroke="none"/>
    </g>
    <g id="sprite0" transform="matrix(1.0, 0.0, 0.0, 1.0, 6.5, 10.45)">
      <use height="6.5" transform="matrix(1.0, 0.0, 0.0, 1.0, -6.5, -10.45)" width="13.0" xlink:href="#sprite1"/>
      <use height="11.5" transform="matrix(1.0, 0.0, 0.0, 1.0, -0.5, -1.05)" width="1.0" xlink:href="#sprite2"/>
    </g>
    <g id="sprite1" transform="matrix(1.0, 0.0, 0.0, 1.0, 6.5, 3.25)">
      <use height="6.5" transform="matrix(1.0, 0.0, 0.0, 1.0, -6.5, -3.25)" width="13.0" xlink:href="#shape1"/>
    </g>
    <g id="shape1" transform="matrix(1.0, 0.0, 0.0, 1.0, 6.5, 3.25)">
      <path d="M-6.5 -3.25 L-2.45 -3.25 0.05 -0.75 2.55 -3.25 6.5 -3.25 0.0 3.25 -6.5 -3.25" fill="#ffffff" fill-rule="evenodd" stroke="none"/>
    </g>
    <g id="sprite2" transform="matrix(1.0, 0.0, 0.0, 1.0, 0.5, 5.75)">
      <use height="43.2" transform="matrix(0.0012, 0.0, 0.0, 0.2662, -0.5018, -5.75)" width="843.2" xlink:href="#shape2"/>
    </g>
    <g id="shape2" transform="matrix(1.0, 0.0, 0.0, 1.0, 421.6, 21.6)">
      <path d="M-421.6 -21.6 L421.6 -21.6 421.6 21.6 -421.6 21.6 -421.6 -21.6" fill="#ffffff" fill-opacity="0.44705883" fill-rule="evenodd" stroke="none"/>
    </g>
  </defs>
</svg>
