<?xml version="1.0" encoding="UTF-8" standalone="no"?>
<svg xmlns:xlink="http://www.w3.org/1999/xlink" height="108.9px" width="324.45px" xmlns="http://www.w3.org/2000/svg">
  <g transform="matrix(1.0, 0.0, 0.0, 1.0, 106.85, -3.2)">
    <use height="108.9" transform="matrix(1.0, 0.0, 0.0, 1.0, -106.85, 3.2)" width="324.45" xlink:href="#sprite0"/>
  </g>
  <defs>
    <g id="sprite0" transform="matrix(1.0, 0.0, 0.0, 1.0, 106.85, -3.2)">
      <use height="7.5" transform="matrix(1.0, 0.0, 0.0, 1.0, 2.0, 3.2)" width="56.1" xlink:href="#text0"/>
      <use height="7.5" transform="matrix(1.0, 0.0, 0.0, 1.0, 2.0, 33.2)" width="60.5" xlink:href="#text1"/>
      <use height="7.5" transform="matrix(1.0, 0.0, 0.0, 1.0, 2.0, 63.25)" width="100.1" xlink:href="#text2"/>
      <use height="7.5" transform="matrix(1.0, 0.0, 0.0, 1.0, 2.0, 93.25)" width="31.9" xlink:href="#text3"/>
      <use height="10.95" transform="matrix(1.0, 0.0, 0.0, 1.0, -106.85, 10.6)" width="324.45" xlink:href="#sprite1"/>
      <use height="10.95" transform="matrix(0.7295, 0.0, 0.0, 1.0, -77.5995, 40.95)" width="324.45" xlink:href="#sprite1"/>
      <use height="10.95" transform="matrix(1.0, 0.0, 0.0, 1.0, -106.85, 70.95)" width="324.45" xlink:href="#sprite1"/>
      <use height="10.95" transform="matrix(0.5585, 0.0, 0.0, 1.0, -59.1004, 100.95)" width="324.45" xlink:href="#sprite1"/>
    </g>
    <g id="text0" transform="matrix(1.0, 0.0, 0.0, 1.0, 0.0, -1.2)">
      <g transform="matrix(1.0, 0.0, 0.0, 1.0, 0.0, 0.0)">
        <use fill="#000000" fill-opacity="0.6117647" height="7.5" transform="matrix(0.0107, 0.0, 0.0, 0.0107, 0.0, 8.0)" width="56.1" xlink:href="#font_Visitor_TT1_BRK_s0"/>
        <use fill="#000000" fill-opacity="0.6117647" height="7.5" transform="matrix(0.0107, 0.0, 0.0, 0.0107, 6.6, 8.0)" width="56.1" xlink:href="#font_Visitor_TT1_BRK_t0"/>
        <use fill="#000000" fill-opacity="0.6117647" height="7.5" transform="matrix(0.0107, 0.0, 0.0, 0.0107, 13.2, 8.0)" width="56.1" xlink:href="#font_Visitor_TT1_BRK_a0"/>
        <use fill="#000000" fill-opacity="0.6117647" height="7.5" transform="matrix(0.0107, 0.0, 0.0, 0.0107, 19.8, 8.0)" width="56.1" xlink:href="#font_Visitor_TT1_BRK_b0"/>
        <use fill="#000000" fill-opacity="0.6117647" height="7.5" transform="matrix(0.0107, 0.0, 0.0, 0.0107, 26.4, 8.0)" width="56.1" xlink:href="#font_Visitor_TT1_BRK_i0"/>
        <use fill="#000000" fill-opacity="0.6117647" height="7.5" transform="matrix(0.0107, 0.0, 0.0, 0.0107, 28.6, 8.0)" width="56.1" xlink:href="#font_Visitor_TT1_BRK_l0"/>
        <use fill="#000000" fill-opacity="0.6117647" height="7.5" transform="matrix(0.0107, 0.0, 0.0, 0.0107, 35.2, 8.0)" width="56.1" xlink:href="#font_Visitor_TT1_BRK_i0"/>
        <use fill="#000000" fill-opacity="0.6117647" height="7.5" transform="matrix(0.0107, 0.0, 0.0, 0.0107, 37.4, 8.0)" width="56.1" xlink:href="#font_Visitor_TT1_BRK_t0"/>
        <use fill="#000000" fill-opacity="0.6117647" height="7.5" transform="matrix(0.0107, 0.0, 0.0, 0.0107, 44.0, 8.0)" width="56.1" xlink:href="#font_Visitor_TT1_BRK_y0"/>
      </g>
    </g>
    <g id="font_Visitor_TT1_BRK_s0">
      <path d="M0.0 -205.0 L0.0 -512.0 512.0 -512.0 512.0 -409.5 102.5 -409.5 102.5 -307.0 512.0 -307.0 512.0 0.0 0.0 0.0 0.0 -102.5 409.5 -102.5 409.5 -205.0 0.0 -205.0" fill-rule="evenodd" stroke="none"/>
    </g>
    <g id="font_Visitor_TT1_BRK_t0">
      <path d="M0.0 -409.5 L0.0 -512.0 512.0 -512.0 512.0 -409.5 307.0 -409.5 307.0 0.0 205.0 0.0 205.0 -409.5 0.0 -409.5" fill-rule="evenodd" stroke="none"/>
    </g>
    <g id="font_Visitor_TT1_BRK_a0">
      <path d="M102.5 -409.5 L102.5 -307.0 409.5 -307.0 409.5 -409.5 102.5 -409.5 M409.5 0.0 L409.5 -205.0 102.5 -205.0 102.5 0.0 0.0 0.0 0.0 -512.0 512.0 -512.0 512.0 0.0 409.5 0.0" fill-rule="evenodd" stroke="none"/>
    </g>
    <g id="font_Visitor_TT1_BRK_b0">
      <path d="M409.5 -307.0 L409.5 -409.5 102.5 -409.5 102.5 -307.0 409.5 -307.0 409.5 -205.0 512.0 -205.0 512.0 0.0 0.0 0.0 0.0 -512.0 512.0 -512.0 512.0 -307.0 409.5 -307.0 M409.5 -205.0 L102.5 -205.0 102.5 -102.5 409.5 -102.5 409.5 -205.0" fill-rule="evenodd" stroke="none"/>
    </g>
    <g id="font_Visitor_TT1_BRK_i0">
      <path d="M0.0 0.0 L0.0 -512.0 102.5 -512.0 102.5 0.0 0.0 0.0" fill-rule="evenodd" stroke="none"/>
    </g>
    <g id="font_Visitor_TT1_BRK_l0">
      <path d="M0.0 0.0 L0.0 -512.0 102.5 -512.0 102.5 -102.5 512.0 -102.5 512.0 0.0 0.0 0.0" fill-rule="evenodd" stroke="none"/>
    </g>
    <g id="font_Visitor_TT1_BRK_y0">
      <path d="M307.0 -307.0 L307.0 -409.5 409.5 -409.5 409.5 -307.0 307.0 -307.0 M409.5 -409.5 L409.5 -512.0 512.0 -512.0 512.0 -409.5 409.5 -409.5 M102.5 -307.0 L102.5 -409.5 0.0 -409.5 0.0 -512.0 102.5 -512.0 102.5 -409.5 205.0 -409.5 205.0 -307.0 307.5 -307.0 307.5 0.0 205.0 0.0 205.0 -307.0 102.5 -307.0" fill-rule="evenodd" stroke="none"/>
    </g>
    <g id="text1" transform="matrix(1.0, 0.0, 0.0, 1.0, 0.0, -1.2)">
      <g transform="matrix(1.0, 0.0, 0.0, 1.0, 0.0, 0.0)">
        <use fill="#000000" fill-opacity="0.6117647" height="7.5" transform="matrix(0.0107, 0.0, 0.0, 0.0107, 0.0, 8.0)" width="60.5" xlink:href="#font_Visitor_TT1_BRK_c0"/>
        <use fill="#000000" fill-opacity="0.6117647" height="7.5" transform="matrix(0.0107, 0.0, 0.0, 0.0107, 6.6, 8.0)" width="60.5" xlink:href="#font_Visitor_TT1_BRK_a0"/>
        <use fill="#000000" fill-opacity="0.6117647" height="7.5" transform="matrix(0.0107, 0.0, 0.0, 0.0107, 13.2, 8.0)" width="60.5" xlink:href="#font_Visitor_TT1_BRK_p0"/>
        <use fill="#000000" fill-opacity="0.6117647" height="7.5" transform="matrix(0.0107, 0.0, 0.0, 0.0107, 19.8, 8.0)" width="60.5" xlink:href="#font_Visitor_TT1_BRK_a0"/>
        <use fill="#000000" fill-opacity="0.6117647" height="7.5" transform="matrix(0.0107, 0.0, 0.0, 0.0107, 26.4, 8.0)" width="60.5" xlink:href="#font_Visitor_TT1_BRK_c0"/>
        <use fill="#000000" fill-opacity="0.6117647" height="7.5" transform="matrix(0.0107, 0.0, 0.0, 0.0107, 33.0, 8.0)" width="60.5" xlink:href="#font_Visitor_TT1_BRK_t0"/>
        <use fill="#000000" fill-opacity="0.6117647" height="7.5" transform="matrix(0.0107, 0.0, 0.0, 0.0107, 39.6, 8.0)" width="60.5" xlink:href="#font_Visitor_TT1_BRK_i0"/>
        <use fill="#000000" fill-opacity="0.6117647" height="7.5" transform="matrix(0.0107, 0.0, 0.0, 0.0107, 41.8, 8.0)" width="60.5" xlink:href="#font_Visitor_TT1_BRK_t0"/>
        <use fill="#000000" fill-opacity="0.6117647" height="7.5" transform="matrix(0.0107, 0.0, 0.0, 0.0107, 48.4, 8.0)" width="60.5" xlink:href="#font_Visitor_TT1_BRK_y0"/>
      </g>
    </g>
    <g id="font_Visitor_TT1_BRK_c0">
      <path d="M0.0 0.0 L0.0 -512.0 512.0 -512.0 512.0 -409.5 102.5 -409.5 102.5 -102.5 512.0 -102.5 512.0 0.0 0.0 0.0" fill-rule="evenodd" stroke="none"/>
    </g>
    <g id="font_Visitor_TT1_BRK_p0">
      <path d="M102.5 -409.5 L102.5 -307.0 409.5 -307.0 409.5 -409.5 102.5 -409.5 M0.0 0.0 L0.0 -512.0 512.0 -512.0 512.0 -205.0 102.5 -205.0 102.5 0.0 0.0 0.0" fill-rule="evenodd" stroke="none"/>
    </g>
    <g id="text2" transform="matrix(1.0, 0.0, 0.0, 1.0, 0.0, -1.2)">
      <g transform="matrix(1.0, 0.0, 0.0, 1.0, 0.0, 0.0)">
        <use fill="#000000" fill-opacity="0.6117647" height="7.5" transform="matrix(0.0107, 0.0, 0.0, 0.0107, 0.0, 8.0)" width="100.1" xlink:href="#font_Visitor_TT1_BRK_r0"/>
        <use fill="#000000" fill-opacity="0.6117647" height="7.5" transform="matrix(0.0107, 0.0, 0.0, 0.0107, 6.6, 8.0)" width="100.1" xlink:href="#font_Visitor_TT1_BRK_e0"/>
        <use fill="#000000" fill-opacity="0.6117647" height="7.5" transform="matrix(0.0107, 0.0, 0.0, 0.0107, 13.2, 8.0)" width="100.1" xlink:href="#font_Visitor_TT1_BRK_l0"/>
        <use fill="#000000" fill-opacity="0.6117647" height="7.5" transform="matrix(0.0107, 0.0, 0.0, 0.0107, 19.8, 8.0)" width="100.1" xlink:href="#font_Visitor_TT1_BRK_o0"/>
        <use fill="#000000" fill-opacity="0.6117647" height="7.5" transform="matrix(0.0107, 0.0, 0.0, 0.0107, 26.4, 8.0)" width="100.1" xlink:href="#font_Visitor_TT1_BRK_a0"/>
        <use fill="#000000" fill-opacity="0.6117647" height="7.5" transform="matrix(0.0107, 0.0, 0.0, 0.0107, 33.0, 8.0)" width="100.1" xlink:href="#font_Visitor_TT1_BRK_d0"/>
        <use fill="#000000" fill-opacity="0.6117647" height="7.5" transform="matrix(0.0107, 0.0, 0.0, 0.0107, 39.6, 8.0)" width="100.1" xlink:href="#font_Visitor_TT1_BRK_i0"/>
        <use fill="#000000" fill-opacity="0.6117647" height="7.5" transform="matrix(0.0107, 0.0, 0.0, 0.0107, 41.8, 8.0)" width="100.1" xlink:href="#font_Visitor_TT1_BRK_n0"/>
        <use fill="#000000" fill-opacity="0.6117647" height="7.5" transform="matrix(0.0107, 0.0, 0.0, 0.0107, 48.4, 8.0)" width="100.1" xlink:href="#font_Visitor_TT1_BRK_g0"/>
        <use fill="#000000" fill-opacity="0.6117647" height="7.5" transform="matrix(0.0107, 0.0, 0.0, 0.0107, 61.6, 8.0)" width="100.1" xlink:href="#font_Visitor_TT1_BRK_s0"/>
        <use fill="#000000" fill-opacity="0.6117647" height="7.5" transform="matrix(0.0107, 0.0, 0.0, 0.0107, 68.2, 8.0)" width="100.1" xlink:href="#font_Visitor_TT1_BRK_p0"/>
        <use fill="#000000" fill-opacity="0.6117647" height="7.5" transform="matrix(0.0107, 0.0, 0.0, 0.0107, 74.8, 8.0)" width="100.1" xlink:href="#font_Visitor_TT1_BRK_e0"/>
        <use fill="#000000" fill-opacity="0.6117647" height="7.5" transform="matrix(0.0107, 0.0, 0.0, 0.0107, 81.4, 8.0)" width="100.1" xlink:href="#font_Visitor_TT1_BRK_e0"/>
        <use fill="#000000" fill-opacity="0.6117647" height="7.5" transform="matrix(0.0107, 0.0, 0.0, 0.0107, 88.0, 8.0)" width="100.1" xlink:href="#font_Visitor_TT1_BRK_d0"/>
      </g>
    </g>
    <g id="font_Visitor_TT1_BRK_r0">
      <path d="M102.5 -409.5 L102.5 -307.0 409.5 -307.0 409.5 -409.5 102.5 -409.5 M307.5 -102.5 L307.5 -205.0 102.5 -205.0 102.5 0.0 0.0 0.0 0.0 -512.0 512.0 -512.0 512.0 -205.0 409.5 -205.0 409.5 -102.5 512.0 -102.5 512.0 0.0 409.5 0.0 409.5 -102.5 307.5 -102.5" fill-rule="evenodd" stroke="none"/>
    </g>
    <g id="font_Visitor_TT1_BRK_e0">
      <path d="M0.0 0.0 L0.0 -512.0 512.0 -512.0 512.0 -409.5 102.5 -409.5 102.5 -307.0 307.5 -307.0 307.5 -205.0 102.5 -205.0 102.5 -102.5 512.0 -102.5 512.0 0.0 0.0 0.0" fill-rule="evenodd" stroke="none"/>
    </g>
    <g id="font_Visitor_TT1_BRK_o0">
      <path d="M102.5 -409.5 L102.5 -102.5 409.5 -102.5 409.5 -409.5 102.5 -409.5 M0.0 0.0 L0.0 -512.0 512.0 -512.0 512.0 0.0 0.0 0.0" fill-rule="evenodd" stroke="none"/>
    </g>
    <g id="font_Visitor_TT1_BRK_d0">
      <path d="M0.0 0.0 L0.0 -512.0 409.5 -512.0 409.5 -409.5 512.0 -409.5 512.0 -102.5 409.5 -102.5 409.5 -409.5 102.5 -409.5 102.5 -102.5 409.5 -102.5 409.5 0.0 0.0 0.0" fill-rule="evenodd" stroke="none"/>
    </g>
    <g id="font_Visitor_TT1_BRK_n0">
      <path d="M409.5 0.0 L409.5 -409.5 102.5 -409.5 102.5 0.0 0.0 0.0 0.0 -512.0 512.0 -512.0 512.0 0.0 409.5 0.0" fill-rule="evenodd" stroke="none"/>
    </g>
    <g id="font_Visitor_TT1_BRK_g0">
      <path d="M0.0 0.0 L0.0 -512.0 512.0 -512.0 512.0 -409.5 102.5 -409.5 102.5 -102.5 409.5 -102.5 409.5 -205.0 205.0 -205.0 205.0 -307.0 512.0 -307.0 512.0 0.0 0.0 0.0" fill-rule="evenodd" stroke="none"/>
    </g>
    <g id="text3" transform="matrix(1.0, 0.0, 0.0, 1.0, 0.0, -1.2)">
      <g transform="matrix(1.0, 0.0, 0.0, 1.0, 0.0, 0.0)">
        <use fill="#000000" fill-opacity="0.6117647" height="7.5" transform="matrix(0.0107, 0.0, 0.0, 0.0107, 0.0, 8.0)" width="31.9" xlink:href="#font_Visitor_TT1_BRK_z0"/>
        <use fill="#000000" fill-opacity="0.6117647" height="7.5" transform="matrix(0.0107, 0.0, 0.0, 0.0107, 6.6, 8.0)" width="31.9" xlink:href="#font_Visitor_TT1_BRK_o0"/>
        <use fill="#000000" fill-opacity="0.6117647" height="7.5" transform="matrix(0.0107, 0.0, 0.0, 0.0107, 13.2, 8.0)" width="31.9" xlink:href="#font_Visitor_TT1_BRK_o0"/>
        <use fill="#000000" fill-opacity="0.6117647" height="7.5" transform="matrix(0.0107, 0.0, 0.0, 0.0107, 19.8, 8.0)" width="31.9" xlink:href="#font_Visitor_TT1_BRK_m0"/>
      </g>
    </g>
    <g id="font_Visitor_TT1_BRK_z0">
      <path d="M205.0 -205.0 L205.0 -307.0 307.0 -307.0 307.0 -205.0 205.0 -205.0 205.0 -102.5 512.0 -102.5 512.0 0.0 0.0 0.0 0.0 -102.5 102.5 -102.5 102.5 -205.0 205.0 -205.0 M0.0 -409.5 L0.0 -512.0 512.0 -512.0 512.0 -409.5 409.5 -409.5 409.5 -307.0 307.0 -307.0 307.0 -409.5 0.0 -409.5" fill-rule="evenodd" stroke="none"/>
    </g>
    <g id="font_Visitor_TT1_BRK_m0">
      <path d="M205.0 0.0 L205.0 -409.5 102.5 -409.5 102.5 0.0 0.0 0.0 0.0 -512.0 512.0 -512.0 512.0 0.0 409.5 0.0 409.5 -409.5 307.5 -409.5 307.5 0.0 205.0 0.0" fill-rule="evenodd" stroke="none"/>
    </g>
    <g id="sprite1" transform="matrix(1.0, 0.0, 0.0, 1.0, 108.15, 5.3)">
      <use height="4.0" transform="matrix(1.0, 0.0, 0.0, 1.0, 0.0, 0.0)" width="216.3" xlink:href="#shape0"/>
      <use height="4.0" transform="matrix(0.0104, 0.0, 0.0, 1.0, 0.0, 0.0)" width="216.3" xlink:href="#sprite2"/>
      <use height="10.95" transform="matrix(1.0, 0.0, 0.0, 1.0, -108.15, -5.3)" width="324.45" xlink:href="#sprite3"/>
    </g>
    <g id="shape0" transform="matrix(1.0, 0.0, 0.0, 1.0, 0.0, 0.0)">
      <path d="M216.3 4.0 L0.0 4.0 0.0 0.0 216.3 0.0 216.3 4.0" fill="#000000" fill-opacity="0.08627451" fill-rule="evenodd" stroke="none"/>
    </g>
    <g id="sprite2" transform="matrix(1.0, 0.0, 0.0, 1.0, 0.0, 0.0)">
      <use height="4.0" transform="matrix(1.0, 0.0, 0.0, 1.0, 0.0, 0.0)" width="216.3" xlink:href="#shape1"/>
    </g>
    <g id="shape1" transform="matrix(1.0, 0.0, 0.0, 1.0, 108.15, 2.0)">
      <path d="M108.15 2.0 L-108.15 2.0 -108.15 -2.0 108.15 -2.0 108.15 2.0" fill="#cc3300" fill-opacity="0.6117647" fill-rule="evenodd" stroke="none"/>
    </g>
    <g id="sprite3" transform="matrix(1.0, 0.0, 0.0, 1.0, 109.25, 7.3)">
      <use height="21.95" transform="matrix(0.2727, 0.0, 0.0, 0.1822, -1.1182, -2.0046)" width="8.25" xlink:href="#shape2"/>
    </g>
    <g id="shape2" transform="matrix(1.0, 0.0, 0.0, 1.0, 4.1, 11.0)">
      <path d="M4.15 -10.75 L3.35 10.95 -4.1 10.7 -3.3 -11.0 4.15 -10.75" fill="#010101" fill-opacity="0.0" fill-rule="evenodd" stroke="none"/>
    </g>
  </defs>
</svg>
