<?xml version="1.0" encoding="UTF-8" standalone="no"?>
<svg xmlns:xlink="http://www.w3.org/1999/xlink" height="417.4px" width="602.0px" xmlns="http://www.w3.org/2000/svg">
  <g transform="matrix(1.0, 0.0, 0.0, 1.0, 332.0, 319.0)">
    <use height="156.95" transform="matrix(1.0, 0.0, 0.0, 1.0, -258.5, -230.45)" width="369.05" xlink:href="#shape0"/>
    <use height="26.25" transform="matrix(1.0, 0.0, 0.0, 1.0, -241.95, -113.5)" width="204.0" xlink:href="#shape1"/>
    <use height="58.05" transform="matrix(1.2585, 0.0, 0.0, 1.0, -263.05, -135.95)" width="184.0" xlink:href="#button0"/>
  </g>
  <defs>
    <g id="shape0" transform="matrix(1.0, 0.0, 0.0, 1.0, 258.5, 230.45)">
      <path d="M-258.0 -82.0 L-247.0 -82.0 -247.0 -229.95 M110.05 -82.0 L-247.0 -82.0 -247.0 -74.0" fill="none" stroke="#010101" stroke-linecap="round" stroke-linejoin="round" stroke-opacity="0.0" stroke-width="1.0"/>
    </g>
    <g id="shape1" transform="matrix(1.0, 0.0, 0.0, 1.0, 241.95, 113.5)">
      <path d="M-229.5 -111.55 Q-227.6 -109.7 -227.6 -106.9 -227.6 -104.7 -228.7 -102.3 -229.75 -99.9 -235.05 -92.1 L-228.15 -92.1 -228.15 -87.8 -241.95 -87.8 -241.95 -91.4 Q-235.8 -101.45 -234.65 -103.8 -233.5 -106.2 -233.5 -107.55 -233.5 -108.55 -233.85 -109.05 -234.2 -109.55 -234.9 -109.55 -235.65 -109.55 -236.0 -109.0 -236.35 -108.45 -236.35 -106.8 L-236.35 -104.4 -241.95 -104.4 -241.95 -105.3 -241.75 -108.65 Q-241.55 -109.85 -240.65 -111.05 -239.8 -112.2 -238.45 -112.85 -237.1 -113.45 -235.15 -113.45 -231.45 -113.45 -229.5 -111.55 M-206.8 -112.95 L-206.8 -87.8 -213.3 -87.8 -213.3 -112.95 -206.8 -112.95 M-215.15 -103.15 L-215.15 -98.35 -219.2 -98.35 -219.2 -87.8 -225.75 -87.8 -225.75 -112.95 -214.65 -112.95 -214.65 -107.9 -219.2 -107.9 -219.2 -103.15 -215.15 -103.15 M-198.8 -104.7 L-198.95 -102.6 -198.95 -100.45 -204.85 -100.45 -204.85 -101.8 Q-204.85 -104.2 -204.3 -105.5 -203.75 -106.8 -202.1 -107.8 -200.45 -108.8 -197.8 -108.8 -194.6 -108.8 -193.0 -107.65 -191.35 -106.55 -191.05 -104.9 -190.7 -103.25 -190.7 -98.15 L-190.7 -87.8 -196.8 -87.8 -196.8 -89.65 Q-197.4 -88.55 -198.3 -88.0 -199.2 -87.45 -200.45 -87.45 -202.1 -87.45 -203.5 -88.35 -204.85 -89.3 -204.85 -92.4 L-204.85 -94.1 Q-204.85 -96.4 -204.15 -97.25 -203.4 -98.1 -200.5 -99.2 -197.4 -100.4 -197.2 -100.85 -197.0 -101.25 -197.0 -102.55 L-197.2 -104.65 Q-197.45 -105.15 -198.0 -105.15 -198.65 -105.15 -198.8 -104.7 M-189.0 -102.7 Q-189.0 -105.15 -188.35 -106.35 -187.7 -107.5 -186.1 -108.15 L-182.5 -108.8 -179.0 -108.25 Q-177.6 -107.75 -176.8 -106.9 -176.05 -106.05 -175.85 -105.3 -175.7 -104.6 -175.7 -103.05 L-175.7 -101.85 -181.3 -101.85 -181.3 -102.95 Q-181.3 -104.4 -181.45 -104.75 -181.6 -105.15 -182.25 -105.15 -182.8 -105.15 -183.05 -104.8 L-183.3 -103.75 -183.15 -102.35 Q-183.05 -101.9 -182.4 -101.4 -181.75 -100.85 -179.7 -99.85 -176.95 -98.5 -176.1 -97.3 -175.25 -96.15 -175.25 -93.9 -175.25 -91.35 -175.9 -90.1 -176.55 -88.8 -178.05 -88.1 -179.6 -87.45 -181.75 -87.45 -184.15 -87.45 -185.85 -88.15 -187.55 -88.9 -188.2 -90.2 -188.85 -91.45 -188.85 -94.05 L-188.85 -95.05 -183.25 -95.05 -183.25 -93.75 Q-183.25 -92.05 -183.05 -91.6 -182.85 -91.1 -182.2 -91.1 -181.55 -91.1 -181.3 -91.4 -181.05 -91.75 -181.05 -92.8 -181.05 -94.3 -181.35 -94.65 -181.75 -95.05 -185.0 -96.85 -187.8 -98.45 -188.4 -99.7 -189.0 -100.95 -189.0 -102.7 M-167.25 -112.95 L-167.25 -107.3 Q-166.45 -108.05 -165.5 -108.4 L-163.5 -108.8 Q-161.85 -108.8 -160.7 -107.95 -159.55 -107.1 -159.25 -106.0 -159.0 -104.9 -159.0 -102.0 L-159.0 -87.8 -165.3 -87.8 -165.3 -102.3 Q-165.3 -104.1 -165.45 -104.65 -165.65 -105.15 -166.3 -105.15 -166.85 -105.15 -167.05 -104.6 L-167.25 -102.5 -167.25 -87.8 -173.55 -87.8 -173.55 -112.95 -167.25 -112.95 M-197.0 -93.35 L-197.0 -97.6 Q-198.5 -96.5 -198.7 -95.75 L-198.95 -93.6 Q-198.95 -92.0 -198.75 -91.55 -198.55 -91.1 -197.95 -91.1 -197.35 -91.1 -197.15 -91.45 -197.0 -91.8 -197.0 -93.35 M-76.25 -105.15 Q-76.8 -105.15 -77.05 -104.8 L-77.3 -103.75 -77.15 -102.35 Q-77.05 -101.9 -76.4 -101.4 -75.75 -100.85 -73.7 -99.85 -70.95 -98.5 -70.1 -97.3 -69.25 -96.15 -69.25 -93.9 -69.25 -91.35 -69.9 -90.1 -70.55 -88.8 -72.05 -88.1 -73.6 -87.45 -75.75 -87.45 -78.15 -87.45 -79.85 -88.15 -81.55 -88.9 -82.2 -90.2 -82.85 -91.45 -82.85 -94.05 L-82.85 -95.05 -77.25 -95.05 -77.25 -93.75 Q-77.25 -92.05 -77.05 -91.6 -76.85 -91.1 -76.2 -91.1 -75.55 -91.1 -75.3 -91.4 -75.05 -91.75 -75.05 -92.8 -75.05 -94.3 -75.35 -94.65 L-79.0 -96.85 Q-81.8 -98.45 -82.4 -99.7 -83.0 -100.95 -83.0 -102.7 -83.0 -105.15 -82.35 -106.35 -81.7 -107.5 -80.1 -108.15 -78.55 -108.8 -76.5 -108.8 L-73.0 -108.25 Q-71.6 -107.75 -70.8 -106.9 -70.05 -106.05 -69.85 -105.3 -69.7 -104.6 -69.7 -103.05 L-69.7 -101.85 -75.3 -101.85 -75.3 -102.95 Q-75.3 -104.4 -75.45 -104.75 -75.6 -105.15 -76.25 -105.15 M-59.65 -97.7 Q-58.8 -97.2 -58.5 -96.4 -58.2 -95.6 -58.2 -94.15 L-61.15 -94.15 -61.15 -95.35 -61.25 -96.2 -61.65 -96.4 Q-61.9 -96.4 -62.0 -96.25 L-62.1 -95.35 -62.1 -90.5 -61.95 -89.65 Q-61.8 -89.4 -61.55 -89.4 -61.25 -89.4 -61.1 -89.7 L-61.0 -90.75 -61.0 -92.0 -58.2 -92.0 -58.3 -90.15 Q-58.35 -89.5 -58.8 -88.85 -59.25 -88.2 -59.95 -87.9 -60.65 -87.55 -61.7 -87.55 -63.05 -87.55 -63.8 -88.0 -64.6 -88.45 -64.9 -89.3 -65.25 -90.1 -65.25 -91.6 L-65.25 -94.55 -64.95 -96.55 Q-64.7 -97.2 -63.85 -97.7 -63.0 -98.25 -61.75 -98.25 -60.5 -98.25 -59.65 -97.7 M-52.05 -97.95 Q-51.3 -97.6 -50.9 -97.1 L-50.35 -96.05 Q-50.2 -95.55 -50.2 -94.45 L-50.2 -91.9 Q-50.2 -90.5 -50.35 -89.85 -50.45 -89.25 -50.95 -88.65 -51.4 -88.1 -52.1 -87.85 L-53.75 -87.55 -55.5 -87.8 Q-56.25 -88.0 -56.65 -88.5 L-57.2 -89.6 -57.4 -91.55 -57.4 -94.2 Q-57.4 -95.65 -57.05 -96.45 -56.75 -97.25 -55.95 -97.75 -55.15 -98.25 -53.9 -98.25 L-52.05 -97.95 M-46.1 -97.1 L-45.25 -97.95 -44.1 -98.25 Q-42.8 -98.25 -42.1 -97.1 L-41.2 -97.95 -40.1 -98.25 Q-39.3 -98.25 -38.75 -97.85 -38.25 -97.45 -38.1 -96.9 -37.95 -96.35 -37.95 -95.1 L-37.95 -87.75 -41.0 -87.75 -41.0 -94.45 -41.1 -96.1 -41.5 -96.4 Q-41.85 -96.4 -41.95 -96.1 L-42.05 -94.45 -42.05 -87.75 -45.1 -87.75 -45.1 -94.3 -45.15 -96.1 -45.55 -96.4 -45.9 -96.25 -46.1 -95.85 -46.1 -94.9 -46.1 -87.75 -49.15 -87.75 -49.15 -98.05 -46.05 -98.05 -46.1 -97.1 M-149.55 -113.5 Q-146.7 -113.5 -144.8 -112.3 -142.9 -111.1 -142.3 -109.5 -141.75 -107.85 -141.75 -104.8 L-141.75 -103.7 -148.3 -103.7 -148.3 -106.0 Q-148.3 -108.15 -148.45 -108.7 -148.65 -109.2 -149.35 -109.2 -149.95 -109.2 -150.15 -108.75 L-150.4 -106.35 -150.4 -94.3 -150.15 -92.05 Q-149.95 -91.55 -149.3 -91.55 -148.6 -91.55 -148.3 -92.15 -148.1 -92.75 -148.1 -94.5 L-148.1 -97.5 -149.4 -97.5 -149.4 -101.3 -141.75 -101.3 -141.75 -87.8 -145.85 -87.8 -146.45 -89.6 Q-147.15 -88.45 -148.15 -87.85 -149.15 -87.25 -150.55 -87.25 -152.2 -87.25 -153.6 -88.05 -155.05 -88.85 -155.8 -90.05 -156.55 -91.25 -156.75 -92.5 L-156.95 -96.4 -156.95 -103.9 Q-156.95 -107.5 -156.55 -109.15 -156.15 -110.75 -154.3 -112.1 -152.45 -113.5 -149.55 -113.5 M-136.9 -107.8 Q-135.25 -108.8 -132.6 -108.8 -129.4 -108.8 -127.8 -107.65 -126.15 -106.55 -125.85 -104.9 -125.5 -103.25 -125.5 -98.15 L-125.5 -87.8 -131.6 -87.8 -131.6 -89.65 Q-132.2 -88.55 -133.1 -88.0 -134.0 -87.45 -135.25 -87.45 -136.9 -87.45 -138.3 -88.35 -139.65 -89.3 -139.65 -92.4 L-139.65 -94.1 Q-139.65 -96.4 -138.95 -97.25 -138.2 -98.1 -135.3 -99.2 -132.2 -100.4 -132.0 -100.85 -131.8 -101.25 -131.8 -102.55 L-132.0 -104.65 Q-132.25 -105.15 -132.8 -105.15 -133.45 -105.15 -133.6 -104.7 L-133.75 -102.6 -133.75 -100.45 -139.65 -100.45 -139.65 -101.8 Q-139.65 -104.2 -139.1 -105.5 -138.55 -106.8 -136.9 -107.8 M-116.95 -104.8 L-117.25 -104.05 -117.3 -102.1 -117.3 -87.8 -123.4 -87.8 -123.4 -108.4 -117.2 -108.4 -117.3 -106.45 -115.55 -108.2 Q-114.55 -108.8 -113.25 -108.8 -110.75 -108.8 -109.3 -106.45 -108.5 -107.6 -107.5 -108.2 -106.5 -108.8 -105.3 -108.8 -103.7 -108.8 -102.65 -108.0 -101.6 -107.25 -101.3 -106.1 -101.0 -105.0 -101.0 -102.45 L-101.0 -87.8 -107.1 -87.8 -107.1 -101.25 Q-107.1 -103.9 -107.25 -104.5 -107.45 -105.15 -108.1 -105.15 -108.8 -105.15 -108.95 -104.5 -109.15 -103.9 -109.15 -101.25 L-109.15 -87.8 -115.25 -87.8 -115.25 -100.9 Q-115.25 -103.95 -115.4 -104.55 -115.55 -105.15 -116.2 -105.15 -116.65 -105.15 -116.95 -104.8 M-98.3 -105.55 Q-97.55 -107.15 -95.9 -107.95 -94.25 -108.8 -92.05 -108.8 -89.45 -108.8 -87.7 -107.8 -86.0 -106.8 -85.3 -105.1 -84.6 -103.5 -84.6 -100.5 L-84.6 -97.75 -92.75 -97.75 -92.75 -93.3 Q-92.75 -91.9 -92.55 -91.5 -92.35 -91.1 -91.75 -91.1 -91.05 -91.1 -90.8 -91.6 -90.55 -92.15 -90.55 -93.7 L-90.55 -96.4 -84.6 -96.4 -84.6 -94.9 Q-84.6 -92.95 -84.85 -91.95 -85.1 -90.9 -86.0 -89.75 -86.85 -88.6 -88.2 -88.0 -89.6 -87.45 -91.65 -87.45 -93.65 -87.45 -95.15 -88.0 -96.65 -88.6 -97.5 -89.55 -98.35 -90.6 -98.7 -91.8 L-99.0 -95.3 -99.0 -101.3 Q-99.0 -104.0 -98.3 -105.55 M-92.6 -104.75 L-92.75 -102.6 -92.75 -101.1 -90.9 -101.1 -90.9 -102.6 -91.1 -104.65 Q-91.25 -105.15 -91.8 -105.15 -92.45 -105.15 -92.6 -104.75 M-132.75 -91.1 Q-132.15 -91.1 -131.95 -91.45 -131.8 -91.8 -131.8 -93.35 L-131.8 -97.6 Q-133.3 -96.5 -133.5 -95.75 L-133.75 -93.6 Q-133.75 -92.0 -133.55 -91.55 -133.35 -91.1 -132.75 -91.1 M-53.4 -96.2 Q-53.5 -96.4 -53.8 -96.4 L-54.15 -96.2 -54.25 -95.2 -54.25 -90.55 -54.15 -89.6 -53.8 -89.4 Q-53.5 -89.4 -53.4 -89.6 L-53.35 -90.45 -53.35 -95.2 -53.4 -96.2 M-66.0 -90.3 L-66.0 -87.75 -68.35 -87.75 -68.35 -90.3 -66.0 -90.3" fill="#000000" fill-rule="evenodd" stroke="none"/>
    </g>
  </defs>
</svg>
