<?xml version="1.0" encoding="UTF-8" standalone="no"?>
<svg xmlns:xlink="http://www.w3.org/1999/xlink" height="417.4px" width="602.0px" xmlns="http://www.w3.org/2000/svg">
  <g transform="matrix(1.0, 0.0, 0.0, 1.0, 332.0, 319.0)">
    <use height="156.95" transform="matrix(1.0, 0.0, 0.0, 1.0, -258.5, -230.45)" width="369.05" xlink:href="#shape0"/>
    <use height="19.95" transform="matrix(1.0, 0.0, 0.0, 1.0, -240.65, -109.85)" width="150.2" xlink:href="#text0"/>
    <use height="58.05" transform="matrix(1.2585, 0.0, 0.0, 1.0, -263.05, -135.95)" width="184.0" xlink:href="#button0"/>
  </g>
  <defs>
    <g id="shape0" transform="matrix(1.0, 0.0, 0.0, 1.0, 258.5, 230.45)">
      <path d="M-258.0 -82.0 L-247.0 -82.0 -247.0 -229.95 M110.05 -82.0 L-247.0 -82.0 -247.0 -74.0" fill="none" stroke="#010101" stroke-linecap="round" stroke-linejoin="round" stroke-opacity="0.0" stroke-width="1.0"/>
    </g>
    <g id="text0" transform="matrix(1.0, 0.0, 0.0, 1.0, 6.9, -4.0)">
      <g transform="matrix(1.0, 0.0, 0.0, 1.0, -7.8, 0.0)">
        <use fill="#000000" height="19.95" transform="matrix(0.0283, 0.0, 0.0, 0.0283, 0.0, 22.0)" width="150.2" xlink:href="#font_carbon_block_g0"/>
        <use fill="#000000" height="19.95" transform="matrix(0.0283, 0.0, 0.0, 0.0283, 11.9, 22.0)" width="150.2" xlink:href="#font_carbon_block_a0"/>
        <use fill="#000000" height="19.95" transform="matrix(0.0283, 0.0, 0.0, 0.0283, 23.9, 22.0)" width="150.2" xlink:href="#font_carbon_block_m0"/>
        <use fill="#000000" height="19.95" transform="matrix(0.0283, 0.0, 0.0, 0.0283, 42.3, 22.0)" width="150.2" xlink:href="#font_carbon_block_e0"/>
        <use fill="#000000" height="19.95" transform="matrix(0.0283, 0.0, 0.0, 0.0283, 52.7, 22.0)" width="150.2" xlink:href="#font_carbon_block_s0"/>
        <use fill="#000000" height="19.95" transform="matrix(0.0283, 0.0, 0.0, 0.0283, 64.65, 22.0)" width="150.2" xlink:href="#font_carbon_block_p0"/>
        <use fill="#000000" height="19.95" transform="matrix(0.0283, 0.0, 0.0, 0.0283, 76.1, 22.0)" width="150.2" xlink:href="#font_carbon_block_o0"/>
        <use fill="#000000" height="19.95" transform="matrix(0.0283, 0.0, 0.0, 0.0283, 88.05, 22.0)" width="150.2" xlink:href="#font_carbon_block_n0"/>
        <use fill="#000000" height="19.95" transform="matrix(0.0283, 0.0, 0.0, 0.0283, 100.05, 22.0)" width="150.2" xlink:href="#font_carbon_block_d0"/>
        <use fill="#000000" height="19.95" transform="matrix(0.0283, 0.0, 0.0, 0.0283, 112.05, 22.0)" width="150.2" xlink:href="#font_carbon_block_.0"/>
        <use fill="#000000" height="19.95" transform="matrix(0.0283, 0.0, 0.0, 0.0283, 117.35, 22.0)" width="150.2" xlink:href="#font_carbon_block_n0"/>
        <use fill="#000000" height="19.95" transform="matrix(0.0283, 0.0, 0.0, 0.0283, 129.35, 22.0)" width="150.2" xlink:href="#font_carbon_block_e0"/>
        <use fill="#000000" height="19.95" transform="matrix(0.0283, 0.0, 0.0, 0.0283, 139.75, 22.0)" width="150.2" xlink:href="#font_carbon_block_t0"/>
      </g>
    </g>
    <g id="font_carbon_block_g0">
      <path d="M395.5 0.0 L395.5 -303.0 191.5 -303.0 191.5 -228.5 253.0 -228.5 253.0 -98.5 Q253.0 -60.5 211.0 -60.5 169.0 -60.5 169.0 -98.5 L169.0 -506.0 Q169.0 -543.0 211.0 -543.0 253.0 -543.0 253.0 -506.0 L253.0 -377.0 395.5 -377.0 395.5 -499.0 Q395.5 -559.5 330.0 -591.0 277.5 -615.5 211.0 -615.5 142.5 -615.5 92.0 -591.0 25.5 -558.0 25.5 -498.5 L25.5 -103.5 Q25.5 -47.0 75.5 -12.0 120.0 18.5 179.0 18.5 260.0 18.5 308.5 -37.0 L320.5 0.0 395.5 0.0" fill-rule="evenodd" stroke="none"/>
    </g>
    <g id="font_carbon_block_a0">
      <path d="M254.0 -314.5 L170.0 -314.5 170.0 -501.5 Q170.0 -539.5 212.0 -539.5 254.0 -539.5 254.0 -501.5 L254.0 -314.5 M396.5 0.0 L396.5 -498.5 Q396.5 -559.0 331.0 -591.0 278.5 -615.5 212.0 -615.5 144.5 -615.5 92.0 -591.0 26.5 -559.0 26.5 -498.5 L26.5 0.0 170.0 0.0 170.0 -236.5 254.0 -236.5 254.0 0.0 396.5 0.0" fill-rule="evenodd" stroke="none"/>
    </g>
    <g id="font_carbon_block_m0">
      <path d="M622.5 0.0 L622.5 -495.5 Q622.5 -554.0 560.0 -588.0 508.0 -615.5 444.5 -615.5 371.5 -615.5 324.5 -581.5 279.5 -615.5 208.0 -615.5 143.0 -615.5 91.0 -588.0 26.5 -554.0 26.5 -495.5 L26.5 0.0 170.0 0.0 170.0 -498.5 Q170.0 -536.5 212.0 -536.5 226.5 -536.5 239.5 -527.5 253.0 -518.0 253.0 -503.5 L253.0 0.0 396.5 0.0 396.5 -495.5 Q396.5 -536.5 437.0 -536.5 480.0 -536.5 480.0 -498.5 L480.0 0.0 622.5 0.0" fill-rule="evenodd" stroke="none"/>
    </g>
    <g id="font_carbon_block_e0">
      <path d="M343.0 0.0 L343.0 -82.0 170.0 -82.0 170.0 -286.5 339.0 -286.5 339.0 -365.5 170.0 -365.5 170.0 -516.0 343.0 -516.0 343.0 -597.0 27.5 -597.0 27.5 0.0 343.0 0.0" fill-rule="evenodd" stroke="none"/>
    </g>
    <g id="font_carbon_block_s0">
      <path d="M398.5 -470.0 L398.5 -470.0 Q398.5 -554.0 345.0 -588.0 302.0 -615.5 210.0 -615.5 27.5 -615.5 27.5 -502.0 L27.5 -430.0 Q27.5 -379.0 86.0 -325.5 L195.0 -240.5 Q257.5 -190.5 257.5 -157.0 L257.5 -109.5 Q257.5 -58.5 210.0 -58.5 169.0 -58.5 169.0 -95.5 L169.0 -212.0 22.5 -212.0 22.5 -132.0 Q22.5 16.5 210.0 16.5 394.5 16.5 394.5 -98.5 L394.5 -180.0 Q394.5 -226.5 336.0 -277.5 L227.5 -361.5 Q167.0 -413.0 167.0 -460.0 L167.0 -501.0 Q167.0 -545.0 210.0 -545.0 259.5 -545.0 259.5 -465.0 L259.5 -397.5 398.5 -397.5 398.5 -470.0" fill-rule="evenodd" stroke="none"/>
    </g>
    <g id="font_carbon_block_p0">
      <path d="M258.0 -467.0 L258.0 -332.0 Q258.0 -278.5 174.0 -278.5 L172.0 -278.5 170.0 -278.5 170.0 -506.0 Q170.0 -542.0 212.0 -542.0 258.0 -542.0 258.0 -467.0 M393.0 -340.0 L393.0 -499.0 Q393.0 -558.0 328.5 -591.0 277.5 -615.5 212.0 -615.5 143.0 -615.5 93.0 -591.0 26.5 -558.0 26.5 -498.5 L26.5 0.0 170.0 0.0 170.0 -206.0 Q173.0 -205.0 185.5 -205.0 L199.5 -205.0 Q326.5 -205.0 375.5 -286.0 393.0 -315.5 393.0 -340.0" fill-rule="evenodd" stroke="none"/>
    </g>
    <g id="font_carbon_block_o0">
      <path d="M253.0 -98.5 L253.0 -98.5 Q253.0 -60.5 211.0 -60.5 169.0 -60.5 169.0 -98.5 L169.0 -506.0 Q169.0 -543.0 211.0 -543.0 253.0 -543.0 253.0 -506.0 L253.0 -98.5 M395.5 -101.5 L395.5 -498.5 Q395.5 -559.0 330.0 -591.0 277.5 -615.5 211.0 -615.5 142.5 -615.5 92.0 -591.0 25.5 -558.0 25.5 -498.5 L25.5 -101.5 Q25.5 -42.0 92.0 -9.0 142.5 16.5 211.0 16.5 279.5 16.5 330.0 -9.0 395.5 -41.0 395.5 -101.5" fill-rule="evenodd" stroke="none"/>
    </g>
    <g id="font_carbon_block_n0">
      <path d="M396.5 0.0 L396.5 -498.5 Q396.5 -559.0 331.0 -591.0 278.5 -615.5 212.0 -615.5 144.5 -615.5 92.0 -591.0 26.5 -559.0 26.5 -498.5 L26.5 0.0 170.0 0.0 170.0 -501.5 Q170.0 -539.5 212.0 -539.5 254.0 -539.5 254.0 -501.5 L254.0 0.0 396.5 0.0" fill-rule="evenodd" stroke="none"/>
    </g>
    <g id="font_carbon_block_d0">
      <path d="M254.0 -111.5 L254.0 -111.5 Q254.0 -72.5 189.5 -72.5 L170.0 -72.5 170.0 -528.5 189.5 -528.5 Q254.0 -528.5 254.0 -489.5 L254.0 -111.5 M397.5 -130.0 L397.5 -467.0 Q397.5 -598.0 218.0 -598.0 L27.5 -598.0 27.5 0.0 217.0 0.0 Q397.5 0.0 397.5 -130.0" fill-rule="evenodd" stroke="none"/>
    </g>
    <g id="font_carbon_block_.0">
      <path d="M156.5 0.0 L156.5 -94.0 27.5 -94.0 27.5 0.0 156.5 0.0" fill-rule="evenodd" stroke="none"/>
    </g>
    <g id="font_carbon_block_t0">
      <path d="M169.0 -598.0 L25.5 -598.0 25.5 -101.5 Q25.5 16.5 210.0 16.5 394.5 16.5 394.5 -101.5 L394.5 -232.5 251.0 -232.5 251.0 -98.5 Q251.0 -60.5 210.0 -60.5 169.0 -60.5 169.0 -98.5 L169.0 -386.0 357.5 -386.0 357.5 -465.0 169.0 -465.0 169.0 -598.0" fill-rule="evenodd" stroke="none"/>
    </g>
  </defs>
</svg>
