<?xml version="1.0" encoding="UTF-8" standalone="no"?>
<svg xmlns:xlink="http://www.w3.org/1999/xlink" height="417.4px" width="602.0px" xmlns="http://www.w3.org/2000/svg">
  <g transform="matrix(1.0, 0.0, 0.0, 1.0, 332.0, 319.0)">
    <use height="156.95" transform="matrix(1.0, 0.0, 0.0, 1.0, -258.5, -230.45)" width="369.05" xlink:href="#shape0"/>
    <use height="44.7" transform="matrix(1.0, 0.0, 0.0, 1.0, -241.95, -131.1)" width="185.8" xlink:href="#sprite0"/>
    <use height="58.05" transform="matrix(1.2585, 0.0, 0.0, 1.0, -263.05, -135.95)" width="184.0" xlink:href="#button0"/>
  </g>
  <defs>
    <g id="shape0" transform="matrix(1.0, 0.0, 0.0, 1.0, 258.5, 230.45)">
      <path d="M-258.0 -82.0 L-247.0 -82.0 -247.0 -229.95 M110.05 -82.0 L-247.0 -82.0 -247.0 -74.0" fill="none" stroke="#010101" stroke-linecap="round" stroke-linejoin="round" stroke-opacity="0.0" stroke-width="1.0"/>
    </g>
    <g id="sprite0" transform="matrix(1.0, 0.0, 0.0, 1.0, 0.0, 0.0)">
      <use height="44.2" transform="matrix(1.0, 0.0, 0.0, 1.0, 0.0, 0.5)" width="185.8" xlink:href="#sprite1"/>
      <use height="44.2" transform="matrix(1.0, 0.0, 0.0, 1.0, 0.0, 0.0)" width="185.8" xlink:href="#sprite2"/>
    </g>
    <g id="sprite1" transform="matrix(1.0, 0.0, 0.0, 1.0, 0.0, 0.0)">
      <use height="43.45" transform="matrix(1.0, 0.0, 0.0, 1.0, 0.0, 0.0)" width="26.5" xlink:href="#shape1"/>
      <use height="19.6" transform="matrix(1.0, 0.0, 0.0, 1.0, 21.35, 24.6)" width="164.45" xlink:href="#text0"/>
      <use height="16.4" transform="matrix(1.0, 0.0, 0.0, 1.0, 137.75, 13.55)" width="44.55" xlink:href="#text1"/>
    </g>
    <g id="shape1" transform="matrix(1.0, 0.0, 0.0, 1.0, 0.0, 0.0)">
      <path d="M15.85 17.7 L16.6 18.55 Q17.9 20.85 18.4 23.35 L19.2 28.8 19.35 31.95 Q19.45 36.7 16.65 40.35 13.5 44.6 8.3 43.0 5.95 42.4 4.7 40.3 2.25 36.25 3.95 31.65 5.45 27.6 8.1 24.05 11.05 20.2 15.0 17.5 L15.85 17.7 M5.8 0.0 Q7.5 0.65 8.75 2.0 L12.6 7.1 Q15.15 10.9 14.25 15.0 L13.05 15.3 Q8.5 14.6 4.55 12.15 2.15 10.6 0.7 8.05 0.05 6.95 0.0 5.8 -0.1 0.1 5.8 0.0 M26.5 12.75 Q26.25 14.1 25.05 14.9 21.35 17.3 17.15 16.25 L17.0 15.85 17.3 15.15 Q19.85 11.65 24.05 10.4 25.0 10.5 25.6 10.85 26.2 11.2 26.3 11.8 L26.5 12.75" fill="#000000" fill-rule="evenodd" stroke="none"/>
    </g>
    <g id="text0" transform="matrix(1.0, 0.0, 0.0, 1.0, 15.25, 3.85)">
      <g transform="matrix(1.0, 0.0, 0.0, 1.0, -15.25, 0.0)">
        <use fill="#000000" height="19.6" transform="matrix(0.0215, 0.0, 0.0, 0.0215, 0.0, 15.0)" width="164.45" xlink:href="#font_Arcade_L0"/>
        <use fill="#000000" height="19.6" transform="matrix(0.0215, 0.0, 0.0, 0.0215, 12.45, 15.0)" width="164.45" xlink:href="#font_Arcade_A0"/>
        <use fill="#000000" height="19.6" transform="matrix(0.0215, 0.0, 0.0, 0.0215, 24.9, 15.0)" width="164.45" xlink:href="#font_Arcade_S0"/>
        <use fill="#000000" height="19.6" transform="matrix(0.0215, 0.0, 0.0, 0.0215, 37.35, 15.0)" width="164.45" xlink:href="#font_Arcade_H0"/>
        <use fill="#000000" height="19.6" transform="matrix(0.0215, 0.0, 0.0, 0.0215, 49.8, 15.0)" width="164.45" xlink:href="#font_Arcade_-0"/>
        <use fill="#000000" height="19.6" transform="matrix(0.0215, 0.0, 0.0, 0.0215, 59.55, 15.0)" width="164.45" xlink:href="#font_Arcade_G0"/>
        <use fill="#000000" height="19.6" transform="matrix(0.0215, 0.0, 0.0, 0.0215, 72.0, 15.0)" width="164.45" xlink:href="#font_Arcade_A0"/>
        <use fill="#000000" height="19.6" transform="matrix(0.0215, 0.0, 0.0, 0.0215, 84.45, 15.0)" width="164.45" xlink:href="#font_Arcade_M0"/>
        <use fill="#000000" height="19.6" transform="matrix(0.0215, 0.0, 0.0, 0.0215, 96.9, 15.0)" width="164.45" xlink:href="#font_Arcade_E0"/>
        <use fill="#000000" height="19.6" transform="matrix(0.0215, 0.0, 0.0, 0.0215, 109.35, 15.0)" width="164.45" xlink:href="#font_Arcade_.0"/>
        <use fill="#000000" height="19.6" transform="matrix(0.0215, 0.0, 0.0, 0.0215, 117.45, 15.0)" width="164.45" xlink:href="#font_Arcade_N0"/>
        <use fill="#000000" height="19.6" transform="matrix(0.0215, 0.0, 0.0, 0.0215, 129.9, 15.0)" width="164.45" xlink:href="#font_Arcade_E0"/>
        <use fill="#000000" height="19.6" transform="matrix(0.0215, 0.0, 0.0, 0.0215, 142.35, 15.0)" width="164.45" xlink:href="#font_Arcade_T0"/>
      </g>
    </g>
    <g id="font_Arcade_L0">
      <path d="M67.5 -483.5 L67.5 -426.0 125.0 -426.0 125.0 -483.5 67.5 -483.5 M0.0 -483.5 L0.0 -426.0 57.5 -426.0 57.5 -483.5 0.0 -483.5 M67.5 -551.0 L67.5 -493.5 125.0 -493.5 125.0 -551.0 67.5 -551.0 M0.0 -551.0 L0.0 -493.5 57.5 -493.5 57.5 -551.0 0.0 -551.0 M67.5 -618.5 L67.5 -561.0 125.0 -561.0 125.0 -618.5 67.5 -618.5 M0.0 -618.5 L0.0 -561.0 57.5 -561.0 57.5 -618.5 0.0 -618.5 M67.5 -686.0 L67.5 -628.5 125.0 -628.5 125.0 -686.0 67.5 -686.0 M0.0 -686.0 L0.0 -628.5 57.5 -628.5 57.5 -686.0 0.0 -686.0 M406.5 -279.5 L406.5 -222.0 464.0 -222.0 464.0 -279.5 406.5 -279.5 M339.0 -279.5 L339.0 -222.0 396.5 -222.0 396.5 -279.5 339.0 -279.5 M271.5 -279.5 L271.5 -222.0 328.5 -222.0 328.5 -279.5 271.5 -279.5 M203.0 -279.5 L203.0 -222.0 260.0 -222.0 260.0 -279.5 203.0 -279.5 M135.0 -279.5 L135.0 -222.0 192.5 -222.0 192.5 -279.5 135.0 -279.5 M67.5 -279.5 L67.5 -222.0 125.0 -222.0 125.0 -279.5 67.5 -279.5 M0.0 -279.5 L0.0 -222.0 57.5 -222.0 57.5 -279.5 0.0 -279.5 M67.5 -347.0 L67.5 -290.0 125.0 -290.0 125.0 -347.0 67.5 -347.0 M0.0 -347.0 L0.0 -290.0 57.5 -290.0 57.5 -347.0 0.0 -347.0 M67.5 -414.5 L67.5 -357.5 125.0 -357.5 125.0 -414.5 67.5 -414.5 M0.0 -414.5 L0.0 -357.5 57.5 -357.5 57.5 -414.5 0.0 -414.5" fill-rule="evenodd" stroke="none"/>
    </g>
    <g id="font_Arcade_A0">
      <path d="M406.5 -483.5 L406.5 -426.0 464.0 -426.0 464.0 -483.5 406.5 -483.5 M339.0 -483.5 L339.0 -426.0 396.5 -426.0 396.5 -483.5 339.0 -483.5 M67.5 -483.5 L67.5 -426.0 125.0 -426.0 125.0 -483.5 67.5 -483.5 M0.0 -483.5 L0.0 -426.0 57.5 -426.0 57.5 -483.5 0.0 -483.5 M406.5 -551.0 L406.5 -493.5 464.0 -493.5 464.0 -551.0 406.5 -551.0 M339.0 -551.0 L339.0 -493.5 396.5 -493.5 396.5 -551.0 339.0 -551.0 M67.5 -551.0 L67.5 -493.5 125.0 -493.5 125.0 -551.0 67.5 -551.0 M0.0 -551.0 L0.0 -493.5 57.5 -493.5 57.5 -551.0 0.0 -551.0 M339.0 -618.5 L339.0 -561.0 396.5 -561.0 396.5 -618.5 339.0 -618.5 M271.5 -618.5 L271.5 -561.0 328.5 -561.0 328.5 -618.5 271.5 -618.5 M135.0 -618.5 L135.0 -561.0 192.5 -561.0 192.5 -618.5 135.0 -618.5 M67.5 -618.5 L67.5 -561.0 125.0 -561.0 125.0 -618.5 67.5 -618.5 M271.5 -686.0 L271.5 -628.5 328.5 -628.5 328.5 -686.0 271.5 -686.0 M203.0 -686.0 L203.0 -628.5 260.0 -628.5 260.0 -686.0 203.0 -686.0 M135.0 -686.0 L135.0 -628.5 192.5 -628.5 192.5 -686.0 135.0 -686.0 M406.5 -279.5 L406.5 -222.0 464.0 -222.0 464.0 -279.5 406.5 -279.5 M339.0 -279.5 L339.0 -222.0 396.5 -222.0 396.5 -279.5 339.0 -279.5 M67.5 -279.5 L67.5 -222.0 125.0 -222.0 125.0 -279.5 67.5 -279.5 M0.0 -279.5 L0.0 -222.0 57.5 -222.0 57.5 -279.5 0.0 -279.5 M406.5 -347.0 L406.5 -290.0 464.0 -290.0 464.0 -347.0 406.5 -347.0 M339.0 -347.0 L339.0 -290.0 396.5 -290.0 396.5 -347.0 339.0 -347.0 M67.5 -347.0 L67.5 -290.0 125.0 -290.0 125.0 -347.0 67.5 -347.0 M0.0 -347.0 L0.0 -290.0 57.5 -290.0 57.5 -347.0 0.0 -347.0 M406.5 -414.5 L406.5 -357.5 464.0 -357.5 464.0 -414.5 406.5 -414.5 M339.0 -414.5 L339.0 -357.5 396.5 -357.5 396.5 -414.5 339.0 -414.5 M271.5 -414.5 L271.5 -357.5 328.5 -357.5 328.5 -414.5 271.5 -414.5 M203.0 -414.5 L203.0 -357.5 260.0 -357.5 260.0 -414.5 203.0 -414.5 M135.0 -414.5 L135.0 -357.5 192.5 -357.5 192.5 -414.5 135.0 -414.5 M67.5 -414.5 L67.5 -357.5 125.0 -357.5 125.0 -414.5 67.5 -414.5 M0.0 -414.5 L0.0 -357.5 57.5 -357.5 57.5 -414.5 0.0 -414.5" fill-rule="evenodd" stroke="none"/>
    </g>
    <g id="font_Arcade_S0">
      <path d="M339.0 -483.5 L339.0 -426.0 396.5 -426.0 396.5 -483.5 339.0 -483.5 M271.5 -483.5 L271.5 -426.0 328.5 -426.0 328.5 -483.5 271.5 -483.5 M203.0 -483.5 L203.0 -426.0 260.0 -426.0 260.0 -483.5 203.0 -483.5 M135.0 -483.5 L135.0 -426.0 192.5 -426.0 192.5 -483.5 135.0 -483.5 M67.5 -483.5 L67.5 -426.0 125.0 -426.0 125.0 -483.5 67.5 -483.5 M67.5 -551.0 L67.5 -493.5 125.0 -493.5 125.0 -551.0 67.5 -551.0 M0.0 -551.0 L0.0 -493.5 57.5 -493.5 57.5 -551.0 0.0 -551.0 M406.5 -618.5 L406.5 -561.0 464.0 -561.0 464.0 -618.5 406.5 -618.5 M339.0 -618.5 L339.0 -561.0 396.5 -561.0 396.5 -618.5 339.0 -618.5 M67.5 -618.5 L67.5 -561.0 125.0 -561.0 125.0 -618.5 67.5 -618.5 M0.0 -618.5 L0.0 -561.0 57.5 -561.0 57.5 -618.5 0.0 -618.5 M339.0 -686.0 L339.0 -628.5 396.5 -628.5 396.5 -686.0 339.0 -686.0 M271.5 -686.0 L271.5 -628.5 328.5 -628.5 328.5 -686.0 271.5 -686.0 M203.0 -686.0 L203.0 -628.5 260.0 -628.5 260.0 -686.0 203.0 -686.0 M135.0 -686.0 L135.0 -628.5 192.5 -628.5 192.5 -686.0 135.0 -686.0 M67.5 -686.0 L67.5 -628.5 125.0 -628.5 125.0 -686.0 67.5 -686.0 M339.0 -279.5 L339.0 -222.0 396.5 -222.0 396.5 -279.5 339.0 -279.5 M271.5 -279.5 L271.5 -222.0 328.5 -222.0 328.5 -279.5 271.5 -279.5 M203.0 -279.5 L203.0 -222.0 260.0 -222.0 260.0 -279.5 203.0 -279.5 M135.0 -279.5 L135.0 -222.0 192.5 -222.0 192.5 -279.5 135.0 -279.5 M67.5 -279.5 L67.5 -222.0 125.0 -222.0 125.0 -279.5 67.5 -279.5 M406.5 -347.0 L406.5 -290.0 464.0 -290.0 464.0 -347.0 406.5 -347.0 M339.0 -347.0 L339.0 -290.0 396.5 -290.0 396.5 -347.0 339.0 -347.0 M67.5 -347.0 L67.5 -290.0 125.0 -290.0 125.0 -347.0 67.5 -347.0 M0.0 -347.0 L0.0 -290.0 57.5 -290.0 57.5 -347.0 0.0 -347.0 M406.5 -414.5 L406.5 -357.5 464.0 -357.5 464.0 -414.5 406.5 -414.5 M339.0 -414.5 L339.0 -357.5 396.5 -357.5 396.5 -414.5 339.0 -414.5" fill-rule="evenodd" stroke="none"/>
    </g>
    <g id="font_Arcade_H0">
      <path d="M406.5 -483.5 L406.5 -426.0 464.0 -426.0 464.0 -483.5 406.5 -483.5 M339.0 -483.5 L339.0 -426.0 396.5 -426.0 396.5 -483.5 339.0 -483.5 M271.5 -483.5 L271.5 -426.0 328.5 -426.0 328.5 -483.5 271.5 -483.5 M203.0 -483.5 L203.0 -426.0 260.0 -426.0 260.0 -483.5 203.0 -483.5 M135.0 -483.5 L135.0 -426.0 192.5 -426.0 192.5 -483.5 135.0 -483.5 M67.5 -483.5 L67.5 -426.0 125.0 -426.0 125.0 -483.5 67.5 -483.5 M0.0 -483.5 L0.0 -426.0 57.5 -426.0 57.5 -483.5 0.0 -483.5 M406.5 -551.0 L406.5 -493.5 464.0 -493.5 464.0 -551.0 406.5 -551.0 M339.0 -551.0 L339.0 -493.5 396.5 -493.5 396.5 -551.0 339.0 -551.0 M67.5 -551.0 L67.5 -493.5 125.0 -493.5 125.0 -551.0 67.5 -551.0 M0.0 -551.0 L0.0 -493.5 57.5 -493.5 57.5 -551.0 0.0 -551.0 M406.5 -618.5 L406.5 -561.0 464.0 -561.0 464.0 -618.5 406.5 -618.5 M339.0 -618.5 L339.0 -561.0 396.5 -561.0 396.5 -618.5 339.0 -618.5 M67.5 -618.5 L67.5 -561.0 125.0 -561.0 125.0 -618.5 67.5 -618.5 M0.0 -618.5 L0.0 -561.0 57.5 -561.0 57.5 -618.5 0.0 -618.5 M406.5 -686.0 L406.5 -628.5 464.0 -628.5 464.0 -686.0 406.5 -686.0 M339.0 -686.0 L339.0 -628.5 396.5 -628.5 396.5 -686.0 339.0 -686.0 M67.5 -686.0 L67.5 -628.5 125.0 -628.5 125.0 -686.0 67.5 -686.0 M0.0 -686.0 L0.0 -628.5 57.5 -628.5 57.5 -686.0 0.0 -686.0 M406.5 -279.5 L406.5 -222.0 464.0 -222.0 464.0 -279.5 406.5 -279.5 M339.0 -279.5 L339.0 -222.0 396.5 -222.0 396.5 -279.5 339.0 -279.5 M67.5 -279.5 L67.5 -222.0 125.0 -222.0 125.0 -279.5 67.5 -279.5 M0.0 -279.5 L0.0 -222.0 57.5 -222.0 57.5 -279.5 0.0 -279.5 M406.5 -347.0 L406.5 -290.0 464.0 -290.0 464.0 -347.0 406.5 -347.0 M339.0 -347.0 L339.0 -290.0 396.5 -290.0 396.5 -347.0 339.0 -347.0 M67.5 -347.0 L67.5 -290.0 125.0 -290.0 125.0 -347.0 67.5 -347.0 M0.0 -347.0 L0.0 -290.0 57.5 -290.0 57.5 -347.0 0.0 -347.0 M406.5 -414.5 L406.5 -357.5 464.0 -357.5 464.0 -414.5 406.5 -414.5 M339.0 -414.5 L339.0 -357.5 396.5 -357.5 396.5 -414.5 339.0 -414.5 M67.5 -414.5 L67.5 -357.5 125.0 -357.5 125.0 -414.5 67.5 -414.5 M0.0 -414.5 L0.0 -357.5 57.5 -357.5 57.5 -414.5 0.0 -414.5" fill-rule="evenodd" stroke="none"/>
    </g>
    <g id="font_Arcade_-0">
      <path d="M271.5 -483.5 L271.5 -426.0 329.0 -426.0 329.0 -483.5 271.5 -483.5 M203.0 -483.5 L203.0 -426.0 260.5 -426.0 260.5 -483.5 203.0 -483.5 M135.5 -483.5 L135.5 -426.0 193.0 -426.0 193.0 -483.5 135.5 -483.5 M68.0 -483.5 L68.0 -426.0 125.5 -426.0 125.5 -483.5 68.0 -483.5 M0.5 -483.5 L0.5 -426.0 58.0 -426.0 58.0 -483.5 0.5 -483.5" fill-rule="evenodd" stroke="none"/>
    </g>
    <g id="font_Arcade_G0">
      <path d="M406.5 -483.5 L406.5 -426.0 464.0 -426.0 464.0 -483.5 406.5 -483.5 M339.0 -483.5 L339.0 -426.0 396.5 -426.0 396.5 -483.5 339.0 -483.5 M271.5 -483.5 L271.5 -426.0 328.5 -426.0 328.5 -483.5 271.5 -483.5 M67.5 -483.5 L67.5 -426.0 125.0 -426.0 125.0 -483.5 67.5 -483.5 M0.0 -483.5 L0.0 -426.0 57.5 -426.0 57.5 -483.5 0.0 -483.5 M67.5 -551.0 L67.5 -493.5 125.0 -493.5 125.0 -551.0 67.5 -551.0 M0.0 -551.0 L0.0 -493.5 57.5 -493.5 57.5 -551.0 0.0 -551.0 M406.5 -618.5 L406.5 -561.0 464.0 -561.0 464.0 -618.5 406.5 -618.5 M339.0 -618.5 L339.0 -561.0 396.5 -561.0 396.5 -618.5 339.0 -618.5 M67.5 -618.5 L67.5 -561.0 125.0 -561.0 125.0 -618.5 67.5 -618.5 M0.0 -618.5 L0.0 -561.0 57.5 -561.0 57.5 -618.5 0.0 -618.5 M339.0 -686.0 L339.0 -628.5 396.5 -628.5 396.5 -686.0 339.0 -686.0 M271.5 -686.0 L271.5 -628.5 328.5 -628.5 328.5 -686.0 271.5 -686.0 M203.0 -686.0 L203.0 -628.5 260.0 -628.5 260.0 -686.0 203.0 -686.0 M135.0 -686.0 L135.0 -628.5 192.5 -628.5 192.5 -686.0 135.0 -686.0 M67.5 -686.0 L67.5 -628.5 125.0 -628.5 125.0 -686.0 67.5 -686.0 M339.0 -279.5 L339.0 -222.0 396.5 -222.0 396.5 -279.5 339.0 -279.5 M271.5 -279.5 L271.5 -222.0 328.5 -222.0 328.5 -279.5 271.5 -279.5 M203.0 -279.5 L203.0 -222.0 260.0 -222.0 260.0 -279.5 203.0 -279.5 M135.0 -279.5 L135.0 -222.0 192.5 -222.0 192.5 -279.5 135.0 -279.5 M67.5 -279.5 L67.5 -222.0 125.0 -222.0 125.0 -279.5 67.5 -279.5 M406.5 -347.0 L406.5 -290.0 464.0 -290.0 464.0 -347.0 406.5 -347.0 M339.0 -347.0 L339.0 -290.0 396.5 -290.0 396.5 -347.0 339.0 -347.0 M67.5 -347.0 L67.5 -290.0 125.0 -290.0 125.0 -347.0 67.5 -347.0 M0.0 -347.0 L0.0 -290.0 57.5 -290.0 57.5 -347.0 0.0 -347.0 M406.5 -414.5 L406.5 -357.5 464.0 -357.5 464.0 -414.5 406.5 -414.5 M339.0 -414.5 L339.0 -357.5 396.5 -357.5 396.5 -414.5 339.0 -414.5 M67.5 -414.5 L67.5 -357.5 125.0 -357.5 125.0 -414.5 67.5 -414.5 M0.0 -414.5 L0.0 -357.5 57.5 -357.5 57.5 -414.5 0.0 -414.5" fill-rule="evenodd" stroke="none"/>
    </g>
    <g id="font_Arcade_M0">
      <path d="M406.5 -483.5 L406.5 -426.0 464.0 -426.0 464.0 -483.5 406.5 -483.5 M339.0 -483.5 L339.0 -426.0 396.5 -426.0 396.5 -483.5 339.0 -483.5 M271.5 -483.5 L271.5 -426.0 328.5 -426.0 328.5 -483.5 271.5 -483.5 M203.0 -483.5 L203.0 -426.0 260.0 -426.0 260.0 -483.5 203.0 -483.5 M135.0 -483.5 L135.0 -426.0 192.5 -426.0 192.5 -483.5 135.0 -483.5 M67.5 -483.5 L67.5 -426.0 125.0 -426.0 125.0 -483.5 67.5 -483.5 M0.0 -483.5 L0.0 -426.0 57.5 -426.0 57.5 -483.5 0.0 -483.5 M406.5 -551.0 L406.5 -493.5 464.0 -493.5 464.0 -551.0 406.5 -551.0 M339.0 -551.0 L339.0 -493.5 396.5 -493.5 396.5 -551.0 339.0 -551.0 M271.5 -551.0 L271.5 -493.5 328.5 -493.5 328.5 -551.0 271.5 -551.0 M135.0 -551.0 L135.0 -493.5 192.5 -493.5 192.5 -551.0 135.0 -551.0 M67.5 -551.0 L67.5 -493.5 125.0 -493.5 125.0 -551.0 67.5 -551.0 M0.0 -551.0 L0.0 -493.5 57.5 -493.5 57.5 -551.0 0.0 -551.0 M406.5 -618.5 L406.5 -561.0 464.0 -561.0 464.0 -618.5 406.5 -618.5 M339.0 -618.5 L339.0 -561.0 396.5 -561.0 396.5 -618.5 339.0 -618.5 M67.5 -618.5 L67.5 -561.0 125.0 -561.0 125.0 -618.5 67.5 -618.5 M0.0 -618.5 L0.0 -561.0 57.5 -561.0 57.5 -618.5 0.0 -618.5 M406.5 -686.0 L406.5 -628.5 464.0 -628.5 464.0 -686.0 406.5 -686.0 M0.0 -686.0 L0.0 -628.5 57.5 -628.5 57.5 -686.0 0.0 -686.0 M406.5 -279.5 L406.5 -222.0 464.0 -222.0 464.0 -279.5 406.5 -279.5 M339.0 -279.5 L339.0 -222.0 396.5 -222.0 396.5 -279.5 339.0 -279.5 M67.5 -279.5 L67.5 -222.0 125.0 -222.0 125.0 -279.5 67.5 -279.5 M0.0 -279.5 L0.0 -222.0 57.5 -222.0 57.5 -279.5 0.0 -279.5 M406.5 -347.0 L406.5 -290.0 464.0 -290.0 464.0 -347.0 406.5 -347.0 M339.0 -347.0 L339.0 -290.0 396.5 -290.0 396.5 -347.0 339.0 -347.0 M67.5 -347.0 L67.5 -290.0 125.0 -290.0 125.0 -347.0 67.5 -347.0 M0.0 -347.0 L0.0 -290.0 57.5 -290.0 57.5 -347.0 0.0 -347.0 M406.5 -414.5 L406.5 -357.5 464.0 -357.5 464.0 -414.5 406.5 -414.5 M339.0 -414.5 L339.0 -357.5 396.5 -357.5 396.5 -414.5 339.0 -414.5 M203.0 -414.5 L203.0 -357.5 260.0 -357.5 260.0 -414.5 203.0 -414.5 M67.5 -414.5 L67.5 -357.5 125.0 -357.5 125.0 -414.5 67.5 -414.5 M0.0 -414.5 L0.0 -357.5 57.5 -357.5 57.5 -414.5 0.0 -414.5" fill-rule="evenodd" stroke="none"/>
    </g>
    <g id="font_Arcade_E0">
      <path d="M339.0 -483.5 L339.0 -426.0 396.5 -426.0 396.5 -483.5 339.0 -483.5 M271.5 -483.5 L271.5 -426.0 328.5 -426.0 328.5 -483.5 271.5 -483.5 M203.0 -483.5 L203.0 -426.0 260.0 -426.0 260.0 -483.5 203.0 -483.5 M135.0 -483.5 L135.0 -426.0 192.5 -426.0 192.5 -483.5 135.0 -483.5 M67.5 -483.5 L67.5 -426.0 125.0 -426.0 125.0 -483.5 67.5 -483.5 M0.0 -483.5 L0.0 -426.0 57.5 -426.0 57.5 -483.5 0.0 -483.5 M67.5 -551.0 L67.5 -493.5 125.0 -493.5 125.0 -551.0 67.5 -551.0 M0.0 -551.0 L0.0 -493.5 57.5 -493.5 57.5 -551.0 0.0 -551.0 M67.5 -618.5 L67.5 -561.0 125.0 -561.0 125.0 -618.5 67.5 -618.5 M0.0 -618.5 L0.0 -561.0 57.5 -561.0 57.5 -618.5 0.0 -618.5 M406.5 -686.0 L406.5 -628.5 464.0 -628.5 464.0 -686.0 406.5 -686.0 M339.0 -686.0 L339.0 -628.5 396.5 -628.5 396.5 -686.0 339.0 -686.0 M271.5 -686.0 L271.5 -628.5 328.5 -628.5 328.5 -686.0 271.5 -686.0 M203.0 -686.0 L203.0 -628.5 260.0 -628.5 260.0 -686.0 203.0 -686.0 M135.0 -686.0 L135.0 -628.5 192.5 -628.5 192.5 -686.0 135.0 -686.0 M67.5 -686.0 L67.5 -628.5 125.0 -628.5 125.0 -686.0 67.5 -686.0 M0.0 -686.0 L0.0 -628.5 57.5 -628.5 57.5 -686.0 0.0 -686.0 M406.5 -279.5 L406.5 -222.0 464.0 -222.0 464.0 -279.5 406.5 -279.5 M339.0 -279.5 L339.0 -222.0 396.5 -222.0 396.5 -279.5 339.0 -279.5 M271.5 -279.5 L271.5 -222.0 328.5 -222.0 328.5 -279.5 271.5 -279.5 M203.0 -279.5 L203.0 -222.0 260.0 -222.0 260.0 -279.5 203.0 -279.5 M135.0 -279.5 L135.0 -222.0 192.5 -222.0 192.5 -279.5 135.0 -279.5 M67.5 -279.5 L67.5 -222.0 125.0 -222.0 125.0 -279.5 67.5 -279.5 M0.0 -279.5 L0.0 -222.0 57.5 -222.0 57.5 -279.5 0.0 -279.5 M67.5 -347.0 L67.5 -290.0 125.0 -290.0 125.0 -347.0 67.5 -347.0 M0.0 -347.0 L0.0 -290.0 57.5 -290.0 57.5 -347.0 0.0 -347.0 M67.5 -414.5 L67.5 -357.5 125.0 -357.5 125.0 -414.5 67.5 -414.5 M0.0 -414.5 L0.0 -357.5 57.5 -357.5 57.5 -414.5 0.0 -414.5" fill-rule="evenodd" stroke="none"/>
    </g>
    <g id="font_Arcade_.0">
      <path d="M202.5 -212.0 L202.5 -154.5 260.0 -154.5 260.0 -212.0 202.5 -212.0 M135.0 -212.0 L135.0 -154.5 192.5 -154.5 192.5 -212.0 135.0 -212.0 M202.5 -279.5 L202.5 -222.0 260.0 -222.0 260.0 -279.5 202.5 -279.5 M135.0 -279.5 L135.0 -222.0 192.5 -222.0 192.5 -279.5 135.0 -279.5" fill-rule="evenodd" stroke="none"/>
    </g>
    <g id="font_Arcade_N0">
      <path d="M406.5 -483.5 L406.5 -426.0 464.0 -426.0 464.0 -483.5 406.5 -483.5 M339.0 -483.5 L339.0 -426.0 396.5 -426.0 396.5 -483.5 339.0 -483.5 M271.5 -483.5 L271.5 -426.0 328.5 -426.0 328.5 -483.5 271.5 -483.5 M203.0 -483.5 L203.0 -426.0 260.0 -426.0 260.0 -483.5 203.0 -483.5 M67.5 -483.5 L67.5 -426.0 125.0 -426.0 125.0 -483.5 67.5 -483.5 M0.0 -483.5 L0.0 -426.0 57.5 -426.0 57.5 -483.5 0.0 -483.5 M406.5 -551.0 L406.5 -493.5 464.0 -493.5 464.0 -551.0 406.5 -551.0 M339.0 -551.0 L339.0 -493.5 396.5 -493.5 396.5 -551.0 339.0 -551.0 M203.0 -551.0 L203.0 -493.5 260.0 -493.5 260.0 -551.0 203.0 -551.0 M135.0 -551.0 L135.0 -493.5 192.5 -493.5 192.5 -551.0 135.0 -551.0 M67.5 -551.0 L67.5 -493.5 125.0 -493.5 125.0 -551.0 67.5 -551.0 M0.0 -551.0 L0.0 -493.5 57.5 -493.5 57.5 -551.0 0.0 -551.0 M406.5 -618.5 L406.5 -561.0 464.0 -561.0 464.0 -618.5 406.5 -618.5 M339.0 -618.5 L339.0 -561.0 396.5 -561.0 396.5 -618.5 339.0 -618.5 M135.0 -618.5 L135.0 -561.0 192.5 -561.0 192.5 -618.5 135.0 -618.5 M67.5 -618.5 L67.5 -561.0 125.0 -561.0 125.0 -618.5 67.5 -618.5 M0.0 -618.5 L0.0 -561.0 57.5 -561.0 57.5 -618.5 0.0 -618.5 M406.5 -686.0 L406.5 -628.5 464.0 -628.5 464.0 -686.0 406.5 -686.0 M339.0 -686.0 L339.0 -628.5 396.5 -628.5 396.5 -686.0 339.0 -686.0 M67.5 -686.0 L67.5 -628.5 125.0 -628.5 125.0 -686.0 67.5 -686.0 M0.0 -686.0 L0.0 -628.5 57.5 -628.5 57.5 -686.0 0.0 -686.0 M406.5 -279.5 L406.5 -222.0 464.0 -222.0 464.0 -279.5 406.5 -279.5 M339.0 -279.5 L339.0 -222.0 396.5 -222.0 396.5 -279.5 339.0 -279.5 M67.5 -279.5 L67.5 -222.0 125.0 -222.0 125.0 -279.5 67.5 -279.5 M0.0 -279.5 L0.0 -222.0 57.5 -222.0 57.5 -279.5 0.0 -279.5 M406.5 -347.0 L406.5 -290.0 464.0 -290.0 464.0 -347.0 406.5 -347.0 M339.0 -347.0 L339.0 -290.0 396.5 -290.0 396.5 -347.0 339.0 -347.0 M67.5 -347.0 L67.5 -290.0 125.0 -290.0 125.0 -347.0 67.5 -347.0 M0.0 -347.0 L0.0 -290.0 57.5 -290.0 57.5 -347.0 0.0 -347.0 M406.5 -414.5 L406.5 -357.5 464.0 -357.5 464.0 -414.5 406.5 -414.5 M339.0 -414.5 L339.0 -357.5 396.5 -357.5 396.5 -414.5 339.0 -414.5 M271.5 -414.5 L271.5 -357.5 328.5 -357.5 328.5 -414.5 271.5 -414.5 M67.5 -414.5 L67.5 -357.5 125.0 -357.5 125.0 -414.5 67.5 -414.5 M0.0 -414.5 L0.0 -357.5 57.5 -357.5 57.5 -414.5 0.0 -414.5" fill-rule="evenodd" stroke="none"/>
    </g>
    <g id="font_Arcade_T0">
      <path d="M203.0 -483.5 L203.0 -426.0 260.0 -426.0 260.0 -483.5 203.0 -483.5 M135.0 -483.5 L135.0 -426.0 192.5 -426.0 192.5 -483.5 135.0 -483.5 M203.0 -551.0 L203.0 -493.5 260.0 -493.5 260.0 -551.0 203.0 -551.0 M135.0 -551.0 L135.0 -493.5 192.5 -493.5 192.5 -551.0 135.0 -551.0 M203.0 -618.5 L203.0 -561.0 260.0 -561.0 260.0 -618.5 203.0 -618.5 M135.0 -618.5 L135.0 -561.0 192.5 -561.0 192.5 -618.5 135.0 -618.5 M339.0 -686.0 L339.0 -628.5 396.5 -628.5 396.5 -686.0 339.0 -686.0 M271.5 -686.0 L271.5 -628.5 328.5 -628.5 328.5 -686.0 271.5 -686.0 M203.0 -686.0 L203.0 -628.5 260.0 -628.5 260.0 -686.0 203.0 -686.0 M135.0 -686.0 L135.0 -628.5 192.5 -628.5 192.5 -686.0 135.0 -686.0 M67.5 -686.0 L67.5 -628.5 125.0 -628.5 125.0 -686.0 67.5 -686.0 M0.0 -686.0 L0.0 -628.5 57.5 -628.5 57.5 -686.0 0.0 -686.0 M203.0 -279.5 L203.0 -222.0 260.0 -222.0 260.0 -279.5 203.0 -279.5 M135.0 -279.5 L135.0 -222.0 192.5 -222.0 192.5 -279.5 135.0 -279.5 M203.0 -347.0 L203.0 -290.0 260.0 -290.0 260.0 -347.0 203.0 -347.0 M135.0 -347.0 L135.0 -290.0 192.5 -290.0 192.5 -347.0 135.0 -347.0 M203.0 -414.5 L203.0 -357.5 260.0 -357.5 260.0 -414.5 203.0 -414.5 M135.0 -414.5 L135.0 -357.5 192.5 -357.5 192.5 -414.5 135.0 -414.5" fill-rule="evenodd" stroke="none"/>
    </g>
    <g id="text1" transform="matrix(1.0, 0.0, 0.0, 1.0, -103.75, 3.35)">
      <g transform="matrix(1.0, 0.0, 0.0, 1.0, 103.55, 0.0)">
        <use fill="#000000" height="16.4" transform="matrix(0.0176, 0.0, 0.0, 0.0176, 0.0, 12.0)" width="44.55" xlink:href="#font_Arcade_v0"/>
        <use fill="#000000" height="16.4" transform="matrix(0.0176, 0.0, 0.0, 0.0176, 10.35, 12.0)" width="44.55" xlink:href="#font_Arcade_20"/>
        <use fill="#000000" height="16.4" transform="matrix(0.0176, 0.0, 0.0, 0.0176, 20.7, 12.0)" width="44.55" xlink:href="#font_Arcade_.0"/>
        <use fill="#000000" height="16.4" transform="matrix(0.0176, 0.0, 0.0, 0.0176, 27.5, 12.0)" width="44.55" xlink:href="#font_Arcade_00"/>
      </g>
    </g>
    <g id="font_Arcade_v0">
      <path d="M406.5 -483.5 L406.5 -426.0 464.0 -426.0 464.0 -483.5 406.5 -483.5 M339.0 -483.5 L339.0 -426.0 396.5 -426.0 396.5 -483.5 339.0 -483.5 M67.5 -483.5 L67.5 -426.0 125.0 -426.0 125.0 -483.5 67.5 -483.5 M0.0 -483.5 L0.0 -426.0 57.5 -426.0 57.5 -483.5 0.0 -483.5 M406.5 -551.0 L406.5 -493.5 464.0 -493.5 464.0 -551.0 406.5 -551.0 M339.0 -551.0 L339.0 -493.5 396.5 -493.5 396.5 -551.0 339.0 -551.0 M67.5 -551.0 L67.5 -493.5 125.0 -493.5 125.0 -551.0 67.5 -551.0 M0.0 -551.0 L0.0 -493.5 57.5 -493.5 57.5 -551.0 0.0 -551.0 M271.5 -279.5 L271.5 -222.0 328.5 -222.0 328.5 -279.5 271.5 -279.5 M203.0 -279.5 L203.0 -222.0 260.0 -222.0 260.0 -279.5 203.0 -279.5 M135.0 -279.5 L135.0 -222.0 192.5 -222.0 192.5 -279.5 135.0 -279.5 M339.0 -347.0 L339.0 -290.0 396.5 -290.0 396.5 -347.0 339.0 -347.0 M271.5 -347.0 L271.5 -290.0 328.5 -290.0 328.5 -347.0 271.5 -347.0 M135.0 -347.0 L135.0 -290.0 192.5 -290.0 192.5 -347.0 135.0 -347.0 M67.5 -347.0 L67.5 -290.0 125.0 -290.0 125.0 -347.0 67.5 -347.0 M406.5 -414.5 L406.5 -357.5 464.0 -357.5 464.0 -414.5 406.5 -414.5 M339.0 -414.5 L339.0 -357.5 396.5 -357.5 396.5 -414.5 339.0 -414.5 M67.5 -414.5 L67.5 -357.5 125.0 -357.5 125.0 -414.5 67.5 -414.5 M0.0 -414.5 L0.0 -357.5 57.5 -357.5 57.5 -414.5 0.0 -414.5" fill-rule="evenodd" stroke="none"/>
    </g>
    <g id="font_Arcade_20">
      <path d="M271.5 -483.5 L271.5 -426.0 328.5 -426.0 328.5 -483.5 271.5 -483.5 M203.0 -483.5 L203.0 -426.0 260.0 -426.0 260.0 -483.5 203.0 -483.5 M135.0 -483.5 L135.0 -426.0 192.5 -426.0 192.5 -483.5 135.0 -483.5 M339.0 -551.0 L339.0 -493.5 396.5 -493.5 396.5 -551.0 339.0 -551.0 M271.5 -551.0 L271.5 -493.5 328.5 -493.5 328.5 -551.0 271.5 -551.0 M406.5 -618.5 L406.5 -561.0 464.0 -561.0 464.0 -618.5 406.5 -618.5 M339.0 -618.5 L339.0 -561.0 396.5 -561.0 396.5 -618.5 339.0 -618.5 M67.5 -618.5 L67.5 -561.0 125.0 -561.0 125.0 -618.5 67.5 -618.5 M0.0 -618.5 L0.0 -561.0 57.5 -561.0 57.5 -618.5 0.0 -618.5 M339.0 -686.0 L339.0 -628.5 396.5 -628.5 396.5 -686.0 339.0 -686.0 M271.5 -686.0 L271.5 -628.5 328.5 -628.5 328.5 -686.0 271.5 -686.0 M203.0 -686.0 L203.0 -628.5 260.0 -628.5 260.0 -686.0 203.0 -686.0 M135.0 -686.0 L135.0 -628.5 192.5 -628.5 192.5 -686.0 135.0 -686.0 M67.5 -686.0 L67.5 -628.5 125.0 -628.5 125.0 -686.0 67.5 -686.0 M406.5 -279.5 L406.5 -222.0 464.0 -222.0 464.0 -279.5 406.5 -279.5 M339.0 -279.5 L339.0 -222.0 396.5 -222.0 396.5 -279.5 339.0 -279.5 M271.5 -279.5 L271.5 -222.0 328.5 -222.0 328.5 -279.5 271.5 -279.5 M203.0 -279.5 L203.0 -222.0 260.0 -222.0 260.0 -279.5 203.0 -279.5 M135.0 -279.5 L135.0 -222.0 192.5 -222.0 192.5 -279.5 135.0 -279.5 M67.5 -279.5 L67.5 -222.0 125.0 -222.0 125.0 -279.5 67.5 -279.5 M0.0 -279.5 L0.0 -222.0 57.5 -222.0 57.5 -279.5 0.0 -279.5 M67.5 -347.0 L67.5 -290.0 125.0 -290.0 125.0 -347.0 67.5 -347.0 M0.0 -347.0 L0.0 -290.0 57.5 -290.0 57.5 -347.0 0.0 -347.0 M135.0 -414.5 L135.0 -357.5 192.5 -357.5 192.5 -414.5 135.0 -414.5 M67.5 -414.5 L67.5 -357.5 125.0 -357.5 125.0 -414.5 67.5 -414.5" fill-rule="evenodd" stroke="none"/>
    </g>
    <g id="font_Arcade_00">
      <path d="M339.0 -483.5 L339.0 -426.0 396.5 -426.0 396.5 -483.5 339.0 -483.5 M271.5 -483.5 L271.5 -426.0 328.5 -426.0 328.5 -483.5 271.5 -483.5 M67.5 -483.5 L67.5 -426.0 125.0 -426.0 125.0 -483.5 67.5 -483.5 M0.0 -483.5 L0.0 -426.0 57.5 -426.0 57.5 -483.5 0.0 -483.5 M339.0 -551.0 L339.0 -493.5 396.5 -493.5 396.5 -551.0 339.0 -551.0 M271.5 -551.0 L271.5 -493.5 328.5 -493.5 328.5 -551.0 271.5 -551.0 M67.5 -551.0 L67.5 -493.5 125.0 -493.5 125.0 -551.0 67.5 -551.0 M0.0 -551.0 L0.0 -493.5 57.5 -493.5 57.5 -551.0 0.0 -551.0 M339.0 -618.5 L339.0 -561.0 396.5 -561.0 396.5 -618.5 339.0 -618.5 M271.5 -618.5 L271.5 -561.0 328.5 -561.0 328.5 -618.5 271.5 -618.5 M67.5 -618.5 L67.5 -561.0 125.0 -561.0 125.0 -618.5 67.5 -618.5 M0.0 -618.5 L0.0 -561.0 57.5 -561.0 57.5 -618.5 0.0 -618.5 M271.5 -686.0 L271.5 -628.5 328.5 -628.5 328.5 -686.0 271.5 -686.0 M203.0 -686.0 L203.0 -628.5 260.0 -628.5 260.0 -686.0 203.0 -686.0 M135.0 -686.0 L135.0 -628.5 192.5 -628.5 192.5 -686.0 135.0 -686.0 M67.5 -686.0 L67.5 -628.5 125.0 -628.5 125.0 -686.0 67.5 -686.0 M271.5 -279.5 L271.5 -222.0 328.5 -222.0 328.5 -279.5 271.5 -279.5 M203.0 -279.5 L203.0 -222.0 260.0 -222.0 260.0 -279.5 203.0 -279.5 M135.0 -279.5 L135.0 -222.0 192.5 -222.0 192.5 -279.5 135.0 -279.5 M67.5 -279.5 L67.5 -222.0 125.0 -222.0 125.0 -279.5 67.5 -279.5 M339.0 -347.0 L339.0 -290.0 396.5 -290.0 396.5 -347.0 339.0 -347.0 M271.5 -347.0 L271.5 -290.0 328.5 -290.0 328.5 -347.0 271.5 -347.0 M67.5 -347.0 L67.5 -290.0 125.0 -290.0 125.0 -347.0 67.5 -347.0 M0.0 -347.0 L0.0 -290.0 57.5 -290.0 57.5 -347.0 0.0 -347.0 M339.0 -414.5 L339.0 -357.5 396.5 -357.5 396.5 -414.5 339.0 -414.5 M271.5 -414.5 L271.5 -357.5 328.5 -357.5 328.5 -414.5 271.5 -414.5 M67.5 -414.5 L67.5 -357.5 125.0 -357.5 125.0 -414.5 67.5 -414.5 M0.0 -414.5 L0.0 -357.5 57.5 -357.5 57.5 -414.5 0.0 -414.5" fill-rule="evenodd" stroke="none"/>
    </g>
    <g id="sprite2" transform="matrix(1.0, 0.0, 0.0, 1.0, 0.0, 0.0)">
      <use height="43.45" transform="matrix(1.0, 0.0, 0.0, 1.0, 0.0, 0.0)" width="26.5" xlink:href="#shape2"/>
      <use height="19.6" transform="matrix(1.0, 0.0, 0.0, 1.0, 21.35, 24.6)" width="164.45" xlink:href="#text2"/>
      <use height="16.4" transform="matrix(1.0, 0.0, 0.0, 1.0, 137.75, 13.55)" width="44.55" xlink:href="#text3"/>
    </g>
    <g id="shape2" transform="matrix(1.0, 0.0, 0.0, 1.0, 0.0, 0.0)">
      <path d="M4.35 1.1 L4.7 0.95 Q6.55 1.6 8.9 6.2 5.2 4.1 3.7 4.1 2.1 4.1 1.9 5.35 L1.75 5.35 1.75 3.35 Q3.05 1.6 4.35 1.1 M21.75 13.3 Q20.75 14.7 19.0 14.85 L19.15 14.7 Q21.15 12.65 22.75 11.7 L21.75 13.3 M9.5 31.7 L9.5 33.0 17.4 33.0 17.4 34.95 9.5 34.95 9.5 38.95 7.75 38.95 7.75 31.05 9.65 29.15 13.1 29.15 13.1 31.0 10.2 31.0 9.5 31.7" fill="#ffffff" fill-rule="evenodd" stroke="none"/>
      <path d="M4.35 1.1 Q3.05 1.6 1.75 3.35 L1.75 5.35 1.9 5.35 Q2.1 4.1 3.7 4.1 5.2 4.1 8.9 6.2 6.55 1.6 4.7 0.95 L4.35 1.1 M8.75 2.0 L12.6 7.1 Q15.15 10.9 14.25 15.0 L13.05 15.3 Q8.5 14.6 4.55 12.15 2.15 10.6 0.7 8.05 0.05 6.95 0.0 5.8 -0.1 0.1 5.8 0.0 7.5 0.65 8.75 2.0" fill="#009bca" fill-rule="evenodd" stroke="none"/>
      <path d="M16.6 18.55 Q17.9 20.85 18.4 23.35 L19.2 28.8 19.35 31.95 Q19.45 36.7 16.65 40.35 13.5 44.6 8.3 43.0 5.95 42.4 4.7 40.3 2.25 36.25 3.95 31.65 5.45 27.6 8.1 24.05 11.05 20.2 15.0 17.5 L15.85 17.7 16.6 18.55 M9.5 31.7 L10.2 31.0 13.1 31.0 13.1 29.15 9.65 29.15 7.75 31.05 7.75 38.95 9.5 38.95 9.5 34.95 17.4 34.95 17.4 33.0 9.5 33.0 9.5 31.7" fill="#ff0302" fill-rule="evenodd" stroke="none"/>
      <path d="M17.15 16.25 L17.0 15.85 17.3 15.15 Q19.85 11.65 24.05 10.4 25.0 10.5 25.6 10.85 26.2 11.2 26.3 11.8 L26.5 12.75 Q26.25 14.1 25.05 14.9 21.35 17.3 17.15 16.25 M21.75 13.3 L22.75 11.7 Q21.15 12.65 19.15 14.7 L19.0 14.85 Q20.75 14.7 21.75 13.3" fill="#fb9606" fill-rule="evenodd" stroke="none"/>
    </g>
    <g id="text2" transform="matrix(1.0, 0.0, 0.0, 1.0, 15.25, 3.85)">
      <g transform="matrix(1.0, 0.0, 0.0, 1.0, -15.25, 0.0)">
        <use fill="#9c9c9c" height="19.6" transform="matrix(0.0215, 0.0, 0.0, 0.0215, 0.0, 15.0)" width="164.45" xlink:href="#font_Arcade_L0"/>
        <use fill="#9c9c9c" height="19.6" transform="matrix(0.0215, 0.0, 0.0, 0.0215, 12.45, 15.0)" width="164.45" xlink:href="#font_Arcade_A0"/>
        <use fill="#9c9c9c" height="19.6" transform="matrix(0.0215, 0.0, 0.0, 0.0215, 24.9, 15.0)" width="164.45" xlink:href="#font_Arcade_S0"/>
        <use fill="#9c9c9c" height="19.6" transform="matrix(0.0215, 0.0, 0.0, 0.0215, 37.35, 15.0)" width="164.45" xlink:href="#font_Arcade_H0"/>
        <use fill="#9c9c9c" height="19.6" transform="matrix(0.0215, 0.0, 0.0, 0.0215, 49.8, 15.0)" width="164.45" xlink:href="#font_Arcade_-0"/>
        <use fill="#9c9c9c" height="19.6" transform="matrix(0.0215, 0.0, 0.0, 0.0215, 59.55, 15.0)" width="164.45" xlink:href="#font_Arcade_G0"/>
        <use fill="#9c9c9c" height="19.6" transform="matrix(0.0215, 0.0, 0.0, 0.0215, 72.0, 15.0)" width="164.45" xlink:href="#font_Arcade_A0"/>
        <use fill="#9c9c9c" height="19.6" transform="matrix(0.0215, 0.0, 0.0, 0.0215, 84.45, 15.0)" width="164.45" xlink:href="#font_Arcade_M0"/>
        <use fill="#9c9c9c" height="19.6" transform="matrix(0.0215, 0.0, 0.0, 0.0215, 96.9, 15.0)" width="164.45" xlink:href="#font_Arcade_E0"/>
        <use fill="#9c9c9c" height="19.6" transform="matrix(0.0215, 0.0, 0.0, 0.0215, 109.35, 15.0)" width="164.45" xlink:href="#font_Arcade_.0"/>
        <use fill="#9c9c9c" height="19.6" transform="matrix(0.0215, 0.0, 0.0, 0.0215, 117.45, 15.0)" width="164.45" xlink:href="#font_Arcade_N0"/>
        <use fill="#9c9c9c" height="19.6" transform="matrix(0.0215, 0.0, 0.0, 0.0215, 129.9, 15.0)" width="164.45" xlink:href="#font_Arcade_E0"/>
        <use fill="#9c9c9c" height="19.6" transform="matrix(0.0215, 0.0, 0.0, 0.0215, 142.35, 15.0)" width="164.45" xlink:href="#font_Arcade_T0"/>
      </g>
    </g>
    <g id="text3" transform="matrix(1.0, 0.0, 0.0, 1.0, -103.75, 3.35)">
      <g transform="matrix(1.0, 0.0, 0.0, 1.0, 103.55, 0.0)">
        <use fill="#009bca" height="16.4" transform="matrix(0.0176, 0.0, 0.0, 0.0176, 0.0, 12.0)" width="44.55" xlink:href="#font_Arcade_v0"/>
        <use fill="#009bca" height="16.4" transform="matrix(0.0176, 0.0, 0.0, 0.0176, 10.35, 12.0)" width="44.55" xlink:href="#font_Arcade_20"/>
        <use fill="#009bca" height="16.4" transform="matrix(0.0176, 0.0, 0.0, 0.0176, 20.7, 12.0)" width="44.55" xlink:href="#font_Arcade_.0"/>
        <use fill="#009bca" height="16.4" transform="matrix(0.0176, 0.0, 0.0, 0.0176, 27.5, 12.0)" width="44.55" xlink:href="#font_Arcade_00"/>
      </g>
    </g>
  </defs>
</svg>
