<?xml version="1.0" encoding="UTF-8" standalone="no"?>
<svg xmlns:xlink="http://www.w3.org/1999/xlink" height="47.25px" width="175.1px" xmlns="http://www.w3.org/2000/svg">
  <g transform="matrix(1.0, 0.0, 0.0, 1.0, 25.5, 37.35)">
    <use height="119.0" transform="matrix(0.0967, 0.0, 0.0, 0.0504, 0.0, 0.0)" width="119.0" xlink:href="#sprite0"/>
    <use height="119.0" transform="matrix(0.063, 0.0, 0.0, 0.0329, -18.0, -5.95)" width="119.0" xlink:href="#sprite0"/>
    <use height="119.0" transform="matrix(0.063, 0.0, 0.0, 0.0329, -25.5, 1.75)" width="119.0" xlink:href="#sprite0"/>
    <use height="119.0" transform="matrix(0.063, 0.0, 0.0, 0.0329, -8.5, -13.15)" width="119.0" xlink:href="#sprite0"/>
    <use height="119.0" transform="matrix(0.0967, 0.0, 0.0, 0.0504, 41.05, -29.25)" width="119.0" xlink:href="#sprite0"/>
    <use height="119.0" transform="matrix(0.0967, 0.0, 0.0, 0.0504, 12.5, 1.75)" width="119.0" xlink:href="#sprite0"/>
    <use height="119.0" transform="matrix(0.0967, 0.0, 0.0, 0.0504, 64.05, -21.25)" width="119.0" xlink:href="#sprite0"/>
    <use height="119.0" transform="matrix(0.0967, 0.0, 0.0, 0.0504, 38.5, -8.05)" width="119.0" xlink:href="#sprite0"/>
    <use height="119.0" transform="matrix(0.0967, 0.0, 0.0, 0.0504, 52.55, -23.25)" width="119.0" xlink:href="#sprite0"/>
    <use height="119.0" transform="matrix(0.0967, 0.0, 0.0, 0.0504, 52.55, -2.05)" width="119.0" xlink:href="#sprite0"/>
    <use height="119.0" transform="matrix(0.0967, 0.0, 0.0, 0.0504, 75.55, -15.25)" width="119.0" xlink:href="#sprite0"/>
    <use height="119.0" transform="matrix(0.1135, 0.0, 0.0, 0.0592, 92.55, -24.3)" width="119.0" xlink:href="#sprite0"/>
    <use height="119.0" transform="matrix(0.1135, 0.0, 0.0, 0.0592, 110.05, -30.3)" width="119.0" xlink:href="#sprite0"/>
    <use height="119.0" transform="matrix(0.1135, 0.0, 0.0, 0.0592, 80.05, 2.8)" width="119.0" xlink:href="#sprite0"/>
    <use height="119.0" transform="matrix(0.1135, 0.0, 0.0, 0.0592, 129.05, -37.35)" width="119.0" xlink:href="#sprite0"/>
  </g>
  <defs>
    <g id="sprite0" transform="matrix(1.0, 0.0, 0.0, 1.0, 0.0, 0.0)">
      <use height="119.0" transform="matrix(1.0, 0.0, 0.0, 1.0, 0.0, 0.0)" width="119.0" xlink:href="#shape0"/>
    </g>
    <g id="shape0" transform="matrix(1.0, 0.0, 0.0, 1.0, 0.0, 0.0)">
      <path d="M93.1 82.55 Q82.4 92.15 60.5 92.15 47.5 92.15 36.0 78.85 32.25 74.5 29.35 69.4 26.95 65.35 26.95 64.55 26.95 59.7 28.0 55.45 28.1 53.6 28.75 51.85 29.2 50.65 29.75 49.9 31.55 45.5 34.6 41.85 45.75 28.4 72.2 25.4 85.4 27.6 93.85 44.3 97.0 50.55 98.85 57.65 L99.0 58.15 99.6 58.8 Q100.4 59.9 100.4 62.2 L100.1 63.9 100.4 67.95 Q100.4 75.85 93.1 82.55 M89.4 70.1 Q92.05 68.2 92.05 64.65 92.05 52.55 82.75 43.9 L76.25 38.15 Q74.3 36.05 73.65 34.0 L72.95 33.85 Q59.8 31.45 50.0 36.05 49.45 37.7 47.95 39.4 L43.05 44.2 Q35.8 51.15 35.8 59.3 35.8 61.5 37.95 72.65 L37.8 73.95 39.65 76.0 Q48.5 85.5 50.65 85.5 L60.6 85.25 60.75 84.7 Q60.75 83.1 62.15 82.55 L66.25 81.85 Q74.45 80.5 82.05 74.75 85.15 72.45 89.4 70.1" fill="#ffffff" fill-opacity="0.32156864" fill-rule="evenodd" stroke="none"/>
      <path d="M101.55 17.4 Q119.0 34.85 119.0 59.5 119.0 84.15 101.55 101.55 84.15 119.0 59.5 119.0 34.85 119.0 17.4 101.55 0.0 84.15 0.0 59.5 0.0 34.85 17.4 17.4 34.85 0.0 59.5 0.0 84.15 0.0 101.55 17.4" fill="url(#gradient0)" fill-rule="evenodd" stroke="none"/>
    </g>
    <radialGradient cx="0" cy="0" gradientTransform="matrix(0.0731, 0.0, 0.0, 0.0731, 59.5, 59.5)" gradientUnits="userSpaceOnUse" id="gradient0" r="819.2" spreadMethod="pad">
      <stop offset="0.2980392156862745" stop-color="#ff0000"/>
      <stop offset="0.8627450980392157" stop-color="#dd0000" stop-opacity="0.0"/>
    </radialGradient>
  </defs>
</svg>
