<?xml version="1.0" encoding="UTF-8" standalone="no"?>
<svg xmlns:xlink="http://www.w3.org/1999/xlink" height="209.0px" width="83.9px" xmlns="http://www.w3.org/2000/svg">
  <g transform="matrix(1.0, 0.0, 0.0, 1.0, 11.4, 0.0)">
    <use height="209.0" transform="matrix(1.0, 0.0, 0.0, 1.0, -11.4, 0.0)" width="83.9" xlink:href="#sprite0"/>
    <use height="59.45" transform="matrix(1.0, 0.0, 0.0, 1.0311, -0.8, 32.4282)" width="39.85" xlink:href="#sprite1"/>
  </g>
  <defs>
    <g id="sprite0" transform="matrix(1.0, 0.0, 0.0, 1.0, 11.4, 0.0)">
      <use height="209.0" transform="matrix(1.0, 0.0, 0.0, 1.0, -11.4, 0.0)" width="83.9" xlink:href="#shape0"/>
    </g>
    <g id="shape0" transform="matrix(1.0, 0.0, 0.0, 1.0, 11.4, 0.0)">
      <path d="M2.85 55.85 Q0.8 50.8 0.75 45.05 1.0 39.65 8.4 36.2 L11.5 34.9 Q12.5 34.05 10.6 31.85 8.5 30.7 6.65 28.85 1.7 23.9 1.7 16.9 1.7 9.9 6.65 4.95 11.65 0.0 18.65 0.0 25.65 0.0 30.6 4.95 35.55 9.9 35.55 16.9 35.55 23.9 30.6 28.85 26.45 33.0 20.9 33.7 L21.35 35.0 28.85 36.9 Q32.85 38.05 33.95 43.55 L32.45 42.65 Q33.7 44.85 33.25 48.3 L32.6 48.95 Q31.0 50.3 28.2 51.3 L27.65 49.5 Q25.4 45.35 23.55 44.85 25.2 46.0 26.35 50.45 L25.2 51.05 21.8 50.05 21.2 49.9 20.7 49.8 Q15.25 48.65 10.35 50.05 L10.05 50.2 9.45 47.85 9.05 50.75 6.2 52.7 Q4.35 54.1 2.85 55.85 M32.4 59.05 Q31.5 62.55 31.05 66.0 L31.0 66.4 Q30.65 68.95 30.55 71.5 30.35 75.85 30.8 80.2 L33.2 88.5 33.7 90.7 34.15 91.85 34.1 91.85 34.5 93.25 35.15 94.1 35.35 94.35 35.55 94.6 36.25 95.75 37.25 97.05 Q39.65 100.75 42.1 105.45 L43.4 108.15 44.7 110.8 45.45 112.55 Q45.6 113.35 46.65 115.2 L47.2 116.85 47.25 117.0 47.35 116.85 47.5 117.45 47.5 117.5 47.55 117.5 49.3 122.0 49.3 122.1 49.55 122.75 50.2 124.45 50.2 124.55 50.15 124.55 48.85 125.75 50.15 124.8 50.3 124.75 51.25 127.45 51.25 127.55 51.45 128.1 51.5 128.2 53.35 133.8 Q54.0 135.15 53.45 137.95 L54.0 142.3 52.9 142.2 Q50.9 142.1 51.25 143.45 L49.25 143.05 47.85 142.95 Q46.7 142.95 46.6 143.25 L46.4 143.55 45.85 143.4 44.1 143.55 43.8 143.65 41.55 143.5 Q41.85 140.65 42.95 137.85 L38.65 133.75 35.8 130.8 35.75 130.8 35.5 130.55 35.5 130.45 35.25 130.2 35.15 130.2 34.9 130.0 34.9 129.9 34.95 129.85 34.15 129.0 34.0 128.95 34.0 128.8 33.9 128.75 31.45 125.85 Q31.25 125.4 30.85 125.1 L28.25 121.7 25.25 117.1 23.6 113.9 23.55 113.9 23.35 113.85 23.35 115.8 22.95 124.9 22.45 129.8 22.45 129.85 22.4 130.5 22.45 130.55 22.45 130.6 22.4 131.05 22.3 131.15 22.25 131.7 22.25 131.8 22.2 132.05 21.85 134.85 20.95 140.7 20.85 143.45 20.15 143.5 Q19.55 143.55 19.15 144.15 L18.7 144.9 17.55 144.7 Q16.95 144.55 16.05 145.05 L15.8 144.75 14.3 144.55 Q13.35 144.55 12.8 144.95 L12.4 145.35 10.65 145.25 9.95 145.45 9.95 145.4 9.65 144.8 Q9.2 144.3 8.0 144.3 7.1 144.3 6.55 144.7 L5.65 144.9 5.75 144.05 Q5.05 141.05 5.75 138.05 L5.35 136.2 5.1 135.15 4.95 134.7 4.9 134.6 4.2 132.25 3.45 130.0 3.25 129.2 1.8 124.5 1.15 122.25 1.1 122.05 Q0.35 119.0 0.1 116.1 L0.0 113.7 0.0 111.8 0.05 111.25 0.05 111.2 0.1 110.8 Q0.85 101.5 3.0 97.1 L3.45 96.1 3.6 95.85 4.85 93.15 5.3 92.25 5.25 92.25 5.3 92.1 5.35 91.9 5.4 91.9 5.55 91.1 5.7 90.7 5.8 90.1 5.8 90.05 Q6.95 85.45 6.75 79.45 6.45 69.05 3.35 57.55 5.15 55.9 6.2 55.8 L6.3 55.8 Q7.5 55.8 9.5 57.55 11.35 59.15 12.7 59.35 L12.85 59.5 13.15 59.75 Q16.85 60.9 20.75 59.75 L23.75 59.1 Q26.05 58.45 26.8 57.4 L27.15 58.4 Q27.35 59.1 28.5 59.6 L29.75 59.9 29.8 60.05 30.05 59.95 32.4 59.05 M18.2 36.2 L10.45 36.65 18.3 37.0 19.6 38.0 18.2 36.2 M24.1 36.9 L21.45 36.2 20.75 36.85 24.1 36.9 M33.15 109.75 L33.2 109.8 33.2 109.75 33.15 109.75" fill="#000000" fill-rule="evenodd" stroke="none"/>
      <path d="M33.95 43.55 Q38.7 46.65 38.05 51.55 36.85 56.2 32.4 59.05 L30.05 59.95 29.75 59.9 28.5 59.6 Q27.35 59.1 27.15 58.4 L26.8 57.4 Q26.05 58.45 23.75 59.1 L20.75 59.75 20.3 59.8 20.1 59.85 Q11.95 60.5 10.2 53.8 10.25 57.0 12.7 59.35 11.35 59.15 9.5 57.55 7.5 55.8 6.3 55.8 L6.2 55.8 Q5.15 55.9 3.35 57.55 L3.3 57.35 3.25 57.15 3.2 57.0 2.85 55.85 Q4.35 54.1 6.2 52.7 L9.05 50.75 10.05 50.2 10.35 50.05 Q15.25 48.65 20.7 49.8 L21.2 49.9 22.45 50.8 24.0 52.45 Q25.05 53.7 25.4 54.95 25.55 55.45 26.45 55.45 27.7 55.45 28.5 54.4 29.65 52.85 30.25 52.45 L32.0 50.7 32.6 48.95 33.25 48.3 Q33.7 44.85 32.45 42.65 L33.95 43.55" fill="#9d9d9d" fill-opacity="0.93333334" fill-rule="evenodd" stroke="none"/>
      <path d="M9.05 50.75 L9.45 47.85 10.05 50.2 9.05 50.75 M25.2 51.05 L26.35 50.45 Q25.2 46.0 23.55 44.85 25.4 45.35 27.65 49.5 L28.2 51.3 27.1 51.65 25.2 51.05 M18.2 36.2 L19.6 38.0 18.3 37.0 10.45 36.65 18.2 36.2 M24.1 36.9 L20.75 36.85 21.45 36.2 24.1 36.9" fill="#1a1a1a" fill-rule="evenodd" stroke="none"/>
      <path d="M21.2 49.9 L21.8 50.05 25.2 51.05 27.1 51.65 28.2 51.3 Q31.0 50.3 32.6 48.95 L32.0 50.7 30.25 52.45 Q29.65 52.85 28.5 54.4 27.7 55.45 26.45 55.45 25.55 55.45 25.4 54.95 25.05 53.7 24.0 52.45 L22.45 50.8 21.2 49.9" fill="#666666" fill-rule="evenodd" stroke="none"/>
      <path d="M29.75 59.9 L30.05 59.95 29.8 60.05 29.75 59.9 M33.15 109.75 L33.2 109.75 33.2 109.8 33.15 109.75" fill="#cc0000" fill-rule="evenodd" stroke="none"/>
      <path d="M12.7 59.35 Q10.25 57.0 10.2 53.8 11.95 60.5 20.1 59.85 L20.3 59.8 20.75 59.75 Q16.85 60.9 13.15 59.75 L12.85 59.5 12.7 59.35" fill="#373737" fill-rule="evenodd" stroke="none"/>
      <path d="M6.45 196.85 L6.6 196.7 6.6 197.0 6.45 196.85 M71.5 191.2 L71.45 191.2 71.5 191.15 71.5 191.2" fill="#2b2b2b" fill-rule="evenodd" stroke="none"/>
      <path d="M55.3 148.05 L55.3 148.1 55.25 148.05 55.3 148.05 M55.3 148.15 L56.1 155.8 57.6 165.35 59.0 176.0 Q59.6 179.3 60.7 181.45 L61.0 182.5 63.05 184.45 65.35 186.4 Q66.65 187.35 67.75 187.6 69.25 188.6 70.25 188.7 L70.7 189.0 Q72.25 190.1 72.5 191.05 L72.5 198.8 72.45 198.85 72.45 199.05 71.4 200.3 Q70.0 201.3 67.65 201.3 L67.15 201.2 66.2 201.2 61.25 200.7 56.2 199.95 51.45 199.35 49.85 199.1 48.9 198.7 48.8 198.7 48.7 198.6 48.6 198.45 47.85 192.2 47.5 191.25 47.0 187.25 46.9 186.8 46.9 186.4 46.9 186.1 46.8 185.55 46.7 183.3 Q46.7 181.35 47.15 180.15 L48.2 176.15 48.2 175.95 48.3 174.0 48.2 171.45 Q48.0 168.2 45.85 163.7 41.25 154.15 40.65 148.2 L40.65 147.7 41.2 147.8 41.45 148.1 42.4 148.3 43.3 148.05 43.45 147.8 43.9 147.8 43.9 147.95 44.15 148.1 45.65 148.3 46.2 148.3 46.5 148.45 Q47.45 149.05 48.0 149.05 L49.45 148.6 50.55 148.5 51.0 148.35 51.0 148.3 51.15 148.1 51.25 148.1 52.4 148.4 53.3 148.25 53.35 148.2 54.3 148.3 55.3 148.15 M20.9 149.35 Q21.45 153.8 20.4 162.05 L20.25 163.6 20.15 163.7 Q19.65 167.3 18.4 170.1 17.15 172.9 17.9 180.55 L18.4 182.35 18.45 183.0 Q18.9 183.6 19.2 184.7 L19.85 187.45 Q20.35 188.45 20.45 190.0 L21.85 197.0 21.55 197.8 21.0 206.9 Q15.55 211.2 7.75 206.75 L6.45 196.85 6.6 197.0 6.6 196.7 6.6 195.3 7.35 193.5 7.2 193.5 8.15 191.4 8.3 190.7 8.45 190.7 9.5 188.0 10.1 184.7 10.1 184.65 10.3 180.95 10.15 178.9 10.1 178.5 10.0 178.1 8.45 168.55 Q5.0 153.25 5.05 150.2 L5.1 149.7 5.35 149.7 7.95 149.7 7.95 150.15 8.95 150.2 10.0 150.1 10.25 149.65 Q10.6 150.0 11.75 150.25 L13.8 150.5 15.2 150.3 15.6 150.55 16.6 150.75 17.65 150.55 18.0 150.8 Q18.15 151.2 20.05 150.15 20.5 149.9 20.5 149.4 L20.9 149.35 M53.9 147.75 L54.05 147.85 53.9 147.8 53.85 147.8 53.9 147.75 M9.25 196.6 L8.9 196.8 9.7 197.6 15.3 198.05 Q18.85 198.05 20.15 197.25 L20.85 196.25 Q19.15 194.95 14.1 195.35 L9.0 196.15 9.25 196.6 M71.5 191.2 L71.5 191.15 71.45 191.2 71.5 191.2 M68.15 201.1 L68.2 201.1 68.2 201.05 68.15 201.1" fill="#a90101" fill-rule="evenodd" stroke="none"/>
      <path d="M9.25 196.6 L9.0 196.15 14.1 195.35 Q19.15 194.95 20.85 196.25 L20.15 197.25 Q18.85 198.05 15.3 198.05 L9.7 197.6 8.9 196.8 9.25 196.6" fill="#c90303" fill-rule="evenodd" stroke="none"/>
      <path d="M54.0 142.3 L55.35 142.55 Q56.8 142.55 57.1 142.95 L57.2 143.75 Q57.15 144.45 57.5 144.6 57.85 144.8 57.85 145.15 L57.75 145.9 Q57.5 146.4 56.4 146.45 56.4 147.6 55.6 147.85 L55.3 148.05 55.25 148.05 55.3 148.1 55.3 148.15 54.3 148.3 53.35 148.2 53.3 148.25 52.4 148.4 51.25 148.1 51.15 148.1 51.0 148.3 51.0 148.35 50.55 148.5 49.45 148.6 48.0 149.05 Q47.45 149.05 46.5 148.45 L46.2 148.3 45.65 148.3 44.15 148.1 43.9 147.95 43.9 147.8 43.45 147.8 43.3 148.05 42.4 148.3 41.45 148.1 41.2 147.8 40.65 147.7 40.25 147.65 39.2 147.55 Q38.35 147.3 38.35 146.65 L38.6 146.15 37.7 145.6 Q37.55 145.4 37.55 145.0 37.55 144.65 38.05 144.7 38.55 144.7 38.7 144.15 38.5 143.75 38.6 143.5 38.7 143.15 39.95 143.15 L41.15 143.3 41.55 143.5 43.8 143.65 44.1 143.55 45.85 143.4 46.4 143.55 46.6 143.25 Q46.7 142.95 47.85 142.95 L49.25 143.05 51.25 143.45 Q50.9 142.1 52.9 142.2 L54.0 142.3 M20.85 143.45 Q21.6 143.5 21.8 144.1 L21.8 144.95 22.45 145.4 23.1 146.1 21.8 148.15 22.25 148.7 22.05 149.05 20.9 149.35 20.5 149.4 Q20.5 149.9 20.05 150.15 18.15 151.2 18.0 150.8 L17.65 150.55 16.6 150.75 15.6 150.55 15.2 150.3 13.8 150.5 11.75 150.25 Q10.6 150.0 10.25 149.65 L10.0 150.1 8.95 150.2 7.95 150.15 7.95 149.7 5.35 149.7 5.1 149.7 Q3.95 149.6 3.2 148.65 L2.6 147.55 2.85 147.0 2.2 146.6 2.15 146.3 Q2.15 145.45 3.05 145.3 L4.3 145.05 Q5.1 144.25 5.35 144.65 L5.65 144.9 6.55 144.7 Q7.1 144.3 8.0 144.3 9.2 144.3 9.65 144.8 L9.95 145.4 9.95 145.45 10.65 145.25 12.4 145.35 12.8 144.95 Q13.35 144.55 14.3 144.55 L15.8 144.75 16.05 145.05 Q16.95 144.55 17.55 144.7 L18.7 144.9 19.15 144.15 Q19.55 143.55 20.15 143.5 L20.85 143.45 M40.8 143.65 L40.15 143.6 Q39.55 143.6 39.45 143.85 L39.45 144.1 39.7 144.45 38.65 144.75 Q38.3 144.8 38.3 145.05 38.3 145.3 38.85 145.55 L39.35 146.0 39.1 146.6 Q39.1 147.2 39.4 147.25 L41.05 147.25 41.2 147.3 41.45 147.3 41.4 146.7 41.5 143.95 41.4 144.05 41.1 144.3 40.7 144.25 40.8 143.65 M55.05 143.1 L54.55 143.35 54.1 143.05 54.5 146.3 54.7 146.3 55.2 146.4 55.25 147.15 55.55 147.2 55.65 146.8 Q55.65 146.4 55.2 146.3 55.75 145.8 56.25 146.3 56.65 146.6 57.0 145.8 L57.1 145.2 Q57.1 144.9 56.45 144.35 55.95 143.95 56.4 143.05 L55.6 142.85 55.05 143.1 M53.9 147.75 L53.85 147.8 53.9 147.8 54.05 147.85 53.9 147.75 M3.8 146.1 L3.7 146.25 3.75 146.55 4.4 146.85 3.9 147.45 3.8 147.85 3.8 148.1 4.2 148.3 3.95 148.55 4.45 149.0 4.95 149.35 5.15 149.25 Q5.3 147.1 5.6 145.05 4.95 145.1 4.8 145.3 L4.6 145.75 3.8 146.1 M20.8 143.75 L20.6 147.9 20.65 148.0 20.8 148.0 20.85 148.35 20.75 148.4 20.85 149.05 21.15 149.0 21.45 148.7 20.9 148.15 21.8 147.15 22.35 146.15 Q22.35 145.95 21.8 145.8 21.15 145.6 21.0 145.2 L21.1 144.2 20.8 143.75" fill="#fff7f7" fill-rule="evenodd" stroke="none"/>
      <path d="M50.2 124.55 L50.3 124.75 50.15 124.8 48.85 125.75 50.15 124.55 50.2 124.55" fill="#540101" fill-rule="evenodd" stroke="none"/>
      <path d="M16.25 36.3 L15.4 35.85 15.15 35.75 14.5 35.4 13.7 35.05 21.4 35.05 21.35 35.15 21.35 35.2 21.2 35.25 21.35 35.4 21.6 36.25 21.45 36.2 20.75 36.85 21.9 36.9 22.25 37.65 Q22.45 37.85 22.2 37.95 L19.9 38.25 17.5 37.0 18.3 37.0 19.6 38.0 18.2 36.2 16.25 36.3 M0.9 47.7 L0.75 45.05 Q1.0 39.8 8.05 36.4 L8.6 36.5 9.0 36.5 9.4 36.6 10.35 36.9 12.0 38.2 Q14.45 40.35 14.45 42.15 14.45 43.5 13.7 44.75 L12.8 44.25 Q11.6 43.65 11.15 45.65 9.45 45.55 8.85 46.0 L8.25 46.0 Q6.7 46.1 6.65 47.25 L6.35 46.95 5.8 46.8 Q5.3 46.8 5.2 47.25 L5.15 48.0 5.2 48.35 Q2.55 46.45 0.9 47.7 M31.35 41.3 L27.2 38.75 24.7 37.25 24.65 37.15 24.25 36.4 23.8 35.65 28.85 36.9 Q31.8 37.75 33.15 40.95 L32.5 40.95 31.35 41.3 M16.95 38.45 L17.0 38.45 16.9 38.5 16.85 38.4 16.95 38.45 M14.9 42.7 L14.95 42.85 14.85 42.9 14.9 42.55 14.9 42.7 M12.95 45.75 L13.0 45.75 13.0 45.8 12.95 45.75 M23.75 35.6 L23.65 35.85 23.25 35.5 23.75 35.6 M5.95 90.4 L6.2 90.4 6.2 90.55 7.4 90.8 Q6.85 91.4 6.6 92.45 L6.35 93.75 6.25 94.1 6.05 94.05 4.75 93.9 4.4 93.9 4.1 93.9 3.85 93.85 4.5 92.6 5.3 90.65 Q5.6 90.45 5.95 90.4 M35.75 94.95 L35.35 95.3 35.3 95.25 Q35.3 94.8 34.9 95.1 L34.45 95.55 34.1 95.75 33.45 95.9 32.75 94.3 32.7 94.15 32.4 93.55 31.45 91.65 Q33.0 91.1 33.25 90.7 L33.7 90.35 33.85 90.3 34.0 90.35 34.9 92.45 35.85 94.0 36.05 94.6 35.75 94.95 M8.0 94.45 L8.05 93.6 8.15 93.15 8.6 92.05 8.95 91.15 10.8 91.75 13.75 92.5 12.95 94.15 12.55 95.6 9.3 94.75 8.0 94.45 M32.0 96.7 L28.95 97.75 28.95 97.8 28.9 97.8 Q28.75 97.7 28.5 98.0 L27.8 98.1 28.05 97.9 Q29.55 97.0 29.55 95.7 29.55 94.4 28.05 93.45 27.35 93.0 26.5 92.8 L28.15 92.8 29.85 92.2 30.2 92.85 30.55 93.4 31.05 94.15 31.55 95.05 31.95 96.65 32.0 96.7 M21.3 98.15 L18.6 97.45 Q16.15 96.5 14.45 96.05 L14.55 95.05 15.1 92.7 17.35 93.0 21.8 93.0 20.9 93.45 Q19.45 94.4 19.45 95.7 19.45 97.0 20.9 97.9 L21.3 98.15 M22.1 92.9 L22.1 92.85 22.25 92.85 22.1 92.9" fill="#000000" fill-rule="evenodd" stroke="none"/>
      <path d="M17.5 37.0 L16.25 36.3 18.2 36.2 19.6 38.0 18.3 37.0 17.5 37.0 M21.6 36.25 L21.9 36.9 20.75 36.85 21.45 36.2 21.6 36.25" fill="#1a1a1a" fill-rule="evenodd" stroke="none"/>
      <path d="M35.8 43.95 Q39.05 46.15 39.05 51.6 39.05 53.5 36.65 56.15 L32.9 60.45 Q31.7 62.25 31.75 64.9 L31.85 69.45 31.75 69.5 31.85 69.6 30.55 70.45 29.8 70.6 29.3 70.75 28.45 71.0 28.25 71.15 27.85 71.15 20.7 71.75 Q14.75 71.75 10.6 70.65 L9.0 70.15 8.0 70.1 5.75 68.75 Q5.4 68.5 5.3 68.05 L5.05 67.05 5.2 67.05 4.9 65.4 4.3 62.45 2.25 56.0 2.6 56.0 2.6 56.15 3.8 56.15 4.7 55.55 6.35 55.25 7.05 55.4 Q7.65 55.45 8.05 55.05 8.2 54.8 8.45 54.8 L8.6 54.45 8.85 54.1 9.1 53.15 9.65 52.8 9.85 52.4 10.1 52.4 10.85 52.2 11.85 52.4 12.45 52.05 13.35 52.1 Q13.8 52.1 14.25 51.7 L14.45 51.5 14.7 51.7 16.15 52.15 Q17.15 52.15 17.15 51.4 L17.1 51.2 17.3 50.85 17.45 51.05 Q17.2 50.95 17.2 51.25 L17.85 51.8 18.05 52.1 19.3 52.35 19.8 52.05 19.8 52.0 Q20.1 52.4 20.85 52.4 L21.9 51.95 22.05 51.75 23.25 51.75 23.45 51.6 Q23.85 51.65 24.15 52.05 24.5 52.55 25.75 52.55 26.7 52.55 27.7 51.0 L27.6 50.75 Q27.8 50.4 27.95 50.4 L28.35 50.5 29.1 50.6 28.5 50.65 28.0 50.7 28.35 51.05 29.3 51.4 Q30.0 51.4 30.0 51.0 L30.15 50.5 30.7 50.55 Q30.55 50.85 31.05 50.85 L31.9 50.2 32.15 49.5 32.25 49.45 32.35 49.45 32.35 49.6 33.0 49.65 33.6 49.75 Q34.3 49.75 34.35 49.4 L34.3 48.9 34.55 47.9 34.05 46.6 34.45 46.6 Q35.15 46.6 35.2 46.05 L35.1 45.3 36.25 45.05 36.35 44.7 Q36.05 44.1 35.8 44.05 L35.8 43.95 M2.2 55.95 L2.1 55.65 2.2 55.65 2.2 55.95 M17.45 47.95 L17.45 47.9 17.55 47.9 17.45 47.95 M34.5 44.4 L35.0 44.45 34.75 44.55 34.55 44.65 34.5 44.6 34.5 44.4 M34.2 45.8 L34.0 46.0 34.0 46.15 33.85 46.2 33.65 45.9 34.2 45.8 M33.45 45.9 L33.4 46.15 33.65 47.0 33.85 47.9 33.3 46.05 33.25 45.9 33.45 45.9 M31.55 49.2 L31.55 49.25 31.55 49.35 31.45 49.4 31.55 49.2 M30.3 50.1 L30.1 50.2 29.75 50.25 29.9 50.1 30.3 50.1 M31.7 47.7 L31.7 47.8 31.65 47.8 31.7 47.7 M30.4 48.9 L30.4 48.95 30.3 48.95 30.4 48.9 M33.15 58.05 L34.1 57.8 34.15 57.5 Q34.15 56.85 32.65 56.55 31.1 56.2 31.1 57.05 31.1 58.05 33.15 58.05 M23.5 51.05 L23.75 50.85 23.8 50.8 23.95 51.2 23.65 51.15 23.6 51.2 23.5 51.05 M22.5 51.15 L22.2 51.25 22.0 51.15 22.5 51.15 M21.95 51.15 L21.55 51.3 21.3 51.35 21.4 51.3 21.8 50.85 21.85 51.15 21.95 51.15 M20.45 51.45 L20.25 51.45 20.0 51.35 20.45 51.45 M19.85 51.15 L19.75 51.15 19.55 51.0 19.25 51.35 19.1 51.85 18.8 51.75 18.85 51.7 19.6 50.6 19.8 51.1 19.85 51.15 M27.4 58.75 Q29.0 56.9 29.0 55.95 L28.85 55.25 Q28.3 55.35 28.05 56.15 L27.35 57.45 Q27.05 58.1 25.75 58.7 23.25 59.85 18.2 59.85 L16.5 59.5 15.2 59.1 Q15.0 59.1 14.95 59.2 L14.95 59.25 14.9 59.7 Q14.9 61.1 22.9 61.1 25.4 61.1 27.4 58.75 M14.5 50.6 L14.6 50.45 14.65 50.45 14.8 50.85 Q15.1 51.45 16.0 51.45 L16.6 51.4 15.45 51.65 14.8 51.15 14.6 51.05 14.55 50.6 14.5 50.6 M12.55 51.4 L13.0 51.45 13.65 51.3 13.2 51.55 12.55 51.7 12.55 51.45 12.55 51.4 M11.4 51.7 L11.15 51.75 10.85 51.7 10.85 51.65 11.4 51.7 M10.75 51.65 L10.65 51.65 10.4 51.8 9.9 51.95 9.85 51.95 9.85 51.9 Q10.3 51.85 10.55 51.6 L10.6 51.6 10.75 51.65 M12.15 51.2 L12.1 51.3 12.1 51.15 12.15 51.2 M8.6 52.6 L8.65 52.25 Q8.8 51.8 9.2 51.85 L9.2 51.9 9.05 51.9 8.95 51.9 Q8.8 51.9 8.8 52.15 L8.9 52.3 8.9 52.4 8.9 52.45 8.65 52.25 8.6 53.0 8.6 52.7 8.6 52.6 M6.15 54.45 L6.05 54.6 5.95 54.65 5.95 54.55 5.2 54.55 4.8 54.6 6.15 54.45 M7.9 54.05 L8.25 53.85 8.2 53.9 8.1 53.95 7.9 54.05 M8.55 53.55 L8.6 53.15 8.6 53.4 8.55 53.6 8.55 53.55 M5.95 90.4 L5.85 90.05 5.9 89.75 6.05 89.75 6.0 89.55 6.05 89.0 7.35 89.35 7.45 89.25 Q9.75 90.15 14.7 90.8 L20.4 91.25 Q26.65 91.25 30.85 90.0 L32.35 89.6 32.9 89.15 Q33.55 88.95 33.55 89.7 L33.55 89.9 33.6 89.85 33.7 90.2 33.7 90.35 33.25 90.7 Q33.0 91.1 31.45 91.65 L32.4 93.55 32.7 94.15 32.75 94.3 33.45 95.9 33.65 96.7 34.45 96.15 34.6 96.05 34.8 95.95 35.25 95.45 35.3 95.35 35.35 95.3 35.75 94.95 36.25 95.75 40.0 100.55 43.65 106.05 45.7 108.55 46.5 109.65 Q47.65 111.2 49.2 112.55 L48.85 112.55 48.65 112.6 48.65 112.45 Q48.65 112.3 47.25 111.85 L45.5 111.95 45.05 112.35 45.05 112.65 45.25 112.7 46.05 112.25 46.25 112.25 46.1 112.35 Q45.6 112.45 45.3 112.8 L43.8 112.75 42.8 112.55 Q41.75 112.55 41.75 112.8 L41.75 112.9 41.8 112.95 41.3 113.3 41.05 113.1 40.7 113.5 Q39.8 113.2 38.25 114.4 L38.25 114.6 38.2 114.6 38.1 114.55 37.8 114.45 Q36.85 114.25 36.85 115.25 L36.9 115.45 36.85 115.45 36.85 115.6 36.8 115.55 Q36.45 115.1 35.5 115.1 34.65 115.1 34.1 115.45 L34.1 115.3 34.05 115.15 Q32.8 115.15 31.95 116.0 L31.55 115.9 31.4 115.9 29.95 115.7 29.75 115.7 28.45 115.6 Q27.85 115.7 27.55 115.9 L25.3 115.75 24.25 115.85 24.25 116.15 25.9 116.2 25.9 116.3 27.15 116.3 27.1 116.6 27.15 116.7 25.8 116.4 Q24.85 116.4 23.95 117.0 L24.65 116.4 24.6 116.25 24.25 116.25 24.0 116.35 23.5 116.25 Q22.95 116.25 22.3 116.8 L20.8 116.45 20.15 116.25 20.1 116.4 20.4 116.75 18.75 116.75 18.6 116.75 Q18.55 116.6 18.25 116.6 L17.9 116.6 12.6 117.3 Q11.8 117.5 11.65 118.0 L11.15 117.9 9.45 117.75 8.25 117.8 8.25 117.75 8.2 117.55 7.3 117.95 6.25 118.35 5.5 118.2 5.3 118.4 5.35 118.6 4.7 118.4 3.55 118.2 3.0 118.45 2.9 118.35 2.9 118.25 2.6 117.9 Q2.2 117.6 1.6 117.6 L0.55 117.75 -0.1 117.6 Q-0.7 117.55 -1.2 118.0 L-1.7 118.35 Q-1.0 116.4 -0.65 113.15 -0.25 111.55 0.0 108.6 L1.0 102.8 Q1.25 100.15 2.9 96.4 L4.1 93.9 4.4 93.9 4.35 94.0 4.35 94.3 6.15 94.7 6.15 94.4 6.25 94.1 6.35 93.75 6.6 92.45 Q6.85 91.4 7.4 90.8 L6.2 90.55 6.2 90.4 5.95 90.4 M12.55 95.6 L12.95 94.15 13.75 92.5 10.8 91.75 8.95 91.15 8.6 92.05 8.15 93.15 8.05 93.6 8.0 94.45 7.85 95.05 8.8 95.15 8.8 95.25 12.35 96.4 12.55 95.6 M7.2 94.75 L7.2 94.95 7.25 94.95 7.2 94.75 M14.45 96.05 L14.4 96.35 14.2 97.05 15.1 97.4 17.1 97.9 18.75 98.35 20.4 98.8 21.9 99.15 22.1 99.25 24.9 99.75 26.45 99.7 28.45 98.75 Q29.05 98.4 30.4 98.25 L31.65 97.75 32.15 97.5 32.0 96.7 31.95 96.65 31.55 95.05 31.05 94.15 30.55 93.4 30.2 92.85 29.85 92.2 28.15 92.8 26.5 92.8 22.4 92.8 22.25 92.8 22.25 92.75 22.1 92.8 22.1 92.85 22.1 92.9 22.05 93.0 21.8 93.0 17.35 93.0 15.1 92.7 14.55 95.05 14.45 96.05 M37.55 115.55 L37.4 116.0 37.05 115.8 37.1 115.8 37.55 115.55 M-2.8 120.6 L-2.0 119.1 -0.8 118.6 Q0.45 118.05 1.6 118.05 L2.3 118.25 2.4 118.35 2.4 118.45 0.45 118.3 Q-2.05 118.8 -2.45 120.2 L-2.4 120.25 -2.6 120.5 -2.8 120.6 M29.45 116.2 L29.35 116.1 30.45 116.1 30.4 116.15 29.6 116.15 29.45 116.2 M31.1 116.1 L31.25 116.1 31.25 116.25 31.1 116.1 M31.3 116.3 L31.65 116.35 Q31.75 116.55 32.5 116.55 L32.95 116.55 32.75 116.6 31.7 116.65 Q31.5 116.45 31.25 116.4 L31.3 116.3 M33.5 115.95 L33.4 115.85 33.55 115.8 33.6 115.8 33.55 115.85 33.5 115.95 M20.5 116.8 L21.0 117.0 21.85 117.25 21.85 117.35 21.45 117.2 20.6 116.95 20.5 116.8 M22.35 117.45 Q22.45 117.3 22.6 117.3 L22.7 117.4 22.95 117.45 23.95 117.0 22.95 117.6 22.35 117.45 M3.75 119.0 L3.8 118.95 4.1 118.95 4.45 118.95 5.2 118.95 5.2 119.1 3.75 119.0 M5.25 119.1 L5.55 119.1 5.5 119.15 5.5 119.25 5.35 119.2 5.3 119.15 5.25 119.1 M6.25 119.5 L6.65 119.25 6.65 119.55 6.25 119.5 M10.0 118.2 L10.6 118.25 10.6 118.3 10.8 118.35 11.2 118.35 11.35 118.4 11.6 118.35 11.6 118.6 11.65 118.75 Q11.05 118.45 10.55 118.5 L10.0 118.2 M12.5 118.8 L12.55 118.8 12.65 118.8 12.55 119.0 12.5 118.8 M3.1 119.5 L3.05 119.55 3.0 119.55 3.0 119.45 3.1 119.5 M8.15 118.6 L8.4 118.6 8.3 118.65 8.15 118.65 8.15 118.6 M5.8 118.95 L5.8 118.85 5.9 118.85 5.8 118.95 M12.1 118.15 L12.15 117.95 12.3 117.95 12.1 118.15 M11.35 119.4 L11.25 119.35 11.45 119.4 11.35 119.4" fill="#a90101" fill-rule="evenodd" stroke="none"/>
      <path d="M13.7 44.75 L14.6 45.3 14.8 45.1 Q15.0 44.85 15.65 44.85 16.75 44.85 17.15 45.7 L17.35 46.35 17.45 46.1 Q18.25 44.7 18.7 44.7 L18.9 44.9 19.1 45.15 Q20.55 43.35 22.2 43.45 23.05 43.5 23.45 43.95 L23.35 44.55 23.1 45.25 22.85 45.75 Q22.85 46.15 23.0 46.35 L23.35 46.0 23.45 46.35 25.75 46.35 26.0 46.3 25.9 45.95 25.85 45.45 24.95 45.45 24.55 44.75 Q24.2 44.35 23.7 44.25 L24.6 44.1 28.4 44.55 Q28.55 43.7 29.3 43.45 29.9 43.3 29.9 42.3 30.6 41.65 31.35 41.3 L32.5 40.95 33.15 40.95 33.3 40.95 Q33.45 40.4 34.35 40.05 35.5 39.65 35.65 41.4 L35.8 43.15 35.8 43.9 35.8 43.95 35.8 44.05 35.55 44.1 35.0 44.45 34.5 44.4 34.55 44.3 34.6 44.05 Q35.15 43.9 35.15 43.45 L35.1 43.2 35.35 43.2 Q35.2 42.8 35.2 42.0 L35.45 42.0 35.6 41.6 35.5 41.1 34.2 41.15 Q34.0 41.25 34.0 41.6 L34.05 41.85 33.85 41.85 33.8 42.15 Q34.45 42.2 34.45 42.65 L34.45 42.95 33.5 43.1 Q33.35 43.2 33.35 43.65 L33.4 43.95 33.2 44.45 33.85 44.9 34.05 44.8 34.3 45.3 34.2 45.8 33.65 45.9 33.45 45.9 33.25 45.9 33.3 46.05 33.85 47.9 33.85 47.95 33.85 48.15 Q33.75 48.55 32.75 48.7 32.45 48.75 32.45 48.9 L31.65 49.0 31.55 49.2 31.45 49.4 31.35 49.6 31.35 49.65 30.3 50.1 29.9 50.1 29.75 50.25 29.1 50.6 28.35 50.5 27.95 50.4 Q27.8 50.4 27.6 50.75 L27.45 50.75 26.95 51.05 26.9 51.45 25.4 51.65 23.95 51.2 23.8 50.8 23.75 50.85 23.5 51.05 22.5 51.15 22.0 51.15 21.95 51.15 21.85 51.15 21.8 50.85 21.4 51.3 21.3 51.35 20.45 51.45 20.0 51.35 20.0 51.25 19.85 51.15 19.8 51.1 19.6 50.6 18.85 51.7 18.8 51.75 17.8 51.2 17.45 51.05 17.3 50.85 17.1 51.2 16.95 51.15 16.6 51.4 16.0 51.45 Q15.1 51.45 14.8 50.85 L14.65 50.45 14.6 50.45 14.5 50.6 Q14.3 50.5 13.85 51.1 L13.65 51.3 13.0 51.45 12.55 51.4 Q12.55 50.85 12.15 51.2 L12.1 51.15 12.1 51.3 11.4 51.7 10.85 51.65 10.75 51.65 10.6 51.6 10.55 51.6 Q10.3 51.85 9.85 51.9 L9.5 51.0 9.5 50.3 9.45 49.7 8.8 49.2 8.75 50.2 8.75 50.3 8.2 50.15 8.15 50.1 8.1 50.15 8.0 50.15 8.0 50.6 8.05 50.9 7.65 50.7 5.3 50.1 5.3 50.85 6.85 51.5 7.25 51.65 7.55 52.25 8.35 53.6 8.4 53.6 8.3 53.8 8.25 53.85 7.9 54.05 Q7.6 54.25 7.4 54.4 L7.3 54.35 6.15 54.4 6.15 54.45 4.8 54.6 Q4.15 54.65 3.8 55.05 L3.55 55.35 3.45 55.5 2.2 55.55 2.2 55.65 2.1 55.65 0.85 55.6 0.35 55.8 Q-0.05 55.8 -0.4 54.4 L-0.65 52.95 -0.6 52.3 -0.8 51.15 -0.75 50.55 -0.35 51.05 -0.35 51.15 -0.3 51.35 -0.25 51.3 0.25 51.9 0.25 52.05 0.25 52.25 0.2 52.25 0.2 52.8 0.1 52.95 -0.2 52.85 -0.2 53.1 0.2 53.15 0.35 53.65 Q0.6 54.0 1.3 54.2 L1.25 54.2 1.25 54.3 1.5 54.25 2.6 54.3 Q2.95 54.3 2.65 54.15 L2.75 53.85 1.8 53.25 0.8 52.75 0.75 52.6 0.7 51.5 0.6 50.15 0.35 50.3 0.05 50.5 -0.15 50.1 -0.5 49.55 0.55 47.95 0.9 47.7 Q2.55 46.45 5.2 48.35 L5.15 48.0 5.2 47.25 Q5.3 46.8 5.8 46.8 L6.35 46.95 6.65 47.25 Q6.7 46.1 8.25 46.0 L8.85 46.0 Q9.45 45.55 11.15 45.65 11.6 43.65 12.8 44.25 L13.7 44.75 M7.0 47.25 L6.85 47.25 6.8 47.65 6.8 47.75 6.65 47.45 6.5 47.45 6.35 49.2 Q6.35 49.65 6.5 49.8 L6.55 49.8 Q6.9 49.15 7.2 49.05 L9.35 48.6 9.35 48.05 9.25 47.6 7.7 47.6 7.3 48.0 Q7.3 47.45 7.0 47.25 M1.4 49.35 L1.25 49.35 1.25 49.8 Q1.25 50.6 2.2 50.85 L2.35 50.6 Q2.55 50.25 2.1 49.9 L1.4 49.35 M2.0 48.15 L1.9 48.6 Q1.9 49.1 2.6 49.05 3.5 49.05 3.95 49.95 4.45 49.55 4.45 49.15 4.45 48.6 4.05 48.4 L2.0 48.15 M12.95 45.75 L13.0 45.8 13.0 45.75 12.95 45.75 M15.0 47.95 Q14.15 47.85 14.15 48.35 L14.2 48.8 15.55 48.95 15.7 49.2 15.8 49.05 15.85 48.6 Q15.85 48.1 15.0 47.95 M10.7 48.95 L10.7 49.4 11.1 49.95 12.55 50.3 Q12.95 50.3 12.65 50.25 L12.7 49.85 12.45 49.2 10.7 48.95 M10.45 47.75 L10.3 46.5 10.1 47.75 Q10.1 48.65 10.25 49.05 L10.3 49.05 10.45 47.75 M11.0 45.9 L10.85 45.9 10.85 46.8 10.85 47.35 Q10.95 47.9 11.6 47.9 L11.85 47.85 12.4 47.85 Q12.75 47.3 14.6 47.3 L14.6 46.9 14.5 46.4 12.95 46.75 Q12.15 47.0 11.85 47.2 L11.65 46.8 11.0 45.9 M14.8 45.3 L14.75 46.0 14.95 46.8 15.1 46.55 15.1 45.6 14.95 45.3 14.8 45.3 M17.45 47.95 L17.55 47.9 17.45 47.9 17.45 47.95 M15.95 48.15 L15.95 48.9 17.3 49.65 Q16.95 50.0 17.05 50.55 L17.65 50.45 17.8 49.9 17.45 48.85 Q16.95 48.0 15.95 48.15 M29.45 48.45 L29.3 48.0 Q28.85 48.2 28.85 49.05 L29.05 49.8 29.2 49.65 29.45 48.45 M29.75 46.8 L29.6 46.8 29.6 47.3 Q29.6 47.7 30.15 48.0 L30.35 48.15 30.35 48.25 Q30.35 48.6 30.5 48.8 L30.6 48.95 30.5 49.1 30.35 49.55 30.4 49.95 30.65 49.95 30.85 49.5 30.95 49.5 31.1 48.8 30.95 48.25 30.9 47.65 29.75 46.8 M26.35 47.6 L26.45 47.7 Q27.95 47.8 28.05 48.05 L28.15 48.65 28.25 48.0 28.15 47.3 Q27.75 46.7 26.35 46.8 L26.35 47.6 M26.15 48.35 Q26.15 48.95 26.45 49.3 L27.05 49.95 27.2 49.8 27.2 48.95 26.8 48.45 26.15 48.35 M26.5 45.7 Q26.5 46.05 26.8 46.15 L29.6 46.65 29.9 46.5 Q29.8 43.95 26.6 45.3 L26.5 45.7 M24.5 49.05 L24.35 48.6 Q23.6 48.6 23.6 49.8 L23.8 50.55 23.95 50.4 24.5 49.05 M21.5 48.9 L22.2 48.15 22.85 47.25 22.75 46.8 Q21.1 47.75 21.1 48.9 L21.15 49.5 21.7 50.25 21.95 49.8 21.5 48.9 M23.6 45.55 L23.55 45.6 23.65 44.95 24.2 45.45 23.6 45.55 M31.75 43.1 L31.7 42.6 31.0 43.35 30.95 44.1 Q30.95 44.85 31.15 45.0 L31.3 44.85 31.75 43.1 M32.3 41.6 L32.3 42.45 33.2 42.5 33.35 42.1 33.25 41.6 32.3 41.6 M34.5 44.6 L34.4 44.55 34.5 44.4 34.5 44.6 M33.2 46.3 L33.2 45.65 Q33.2 44.75 32.9 44.3 L32.75 44.3 32.75 44.85 32.9 45.95 31.55 45.75 31.45 46.2 31.55 46.65 32.0 46.65 33.2 47.55 33.35 47.4 Q33.45 46.8 33.2 46.4 L33.2 46.3 M31.7 47.7 L31.65 47.8 31.7 47.8 31.7 47.7 M30.4 48.9 L30.3 48.95 30.4 48.95 30.4 48.9 M14.0 50.75 L14.15 50.3 13.9 49.7 13.25 49.2 Q13.0 49.3 13.0 49.7 13.0 50.1 13.25 50.25 L14.0 50.75 M8.6 52.6 L8.5 51.75 8.3 51.5 8.3 51.45 8.75 51.75 8.9 51.6 8.9 51.45 9.2 51.8 9.2 51.85 Q8.8 51.8 8.65 52.25 L8.6 52.6 M4.75 52.3 L4.7 51.8 Q2.95 52.3 2.95 53.85 L3.0 54.35 1.0 54.35 0.95 54.9 1.0 55.5 2.95 55.5 3.2 55.05 3.2 54.65 3.9 53.65 4.45 53.7 Q4.85 53.7 4.55 53.6 L4.6 53.25 4.6 52.95 4.75 52.3 M1.5 51.55 L1.3 50.55 1.15 50.75 Q1.15 51.15 1.5 51.55 M18.6 116.75 L18.75 116.75 20.4 116.75 20.5 116.8 20.6 116.95 21.45 117.2 21.85 117.35 21.85 117.5 22.1 117.5 22.0 119.05 21.95 118.95 21.35 118.3 21.2 117.65 20.95 118.05 19.9 117.5 19.85 118.1 20.45 118.9 20.4 119.05 Q20.25 119.45 20.25 120.65 L20.35 121.85 20.55 121.85 21.1 120.05 21.25 119.6 Q21.75 120.15 21.75 120.6 L21.65 121.0 21.35 119.75 Q21.1 120.1 21.1 120.7 L21.15 121.7 Q21.35 122.3 22.05 122.35 L22.15 122.15 22.2 121.7 22.2 121.85 22.4 121.6 22.4 117.7 22.35 117.45 22.95 117.6 23.95 117.0 Q24.85 116.4 25.8 116.4 L27.15 116.7 27.25 116.95 27.3 117.0 Q26.75 117.3 26.75 117.85 L27.35 118.45 Q28.9 117.4 30.15 117.4 30.8 117.4 30.8 117.0 L30.65 116.35 28.5 116.65 29.2 116.45 29.5 116.25 29.45 116.2 29.6 116.15 30.4 116.15 30.45 116.1 Q30.75 115.9 31.1 116.1 L31.25 116.25 31.25 116.3 31.3 116.3 31.25 116.4 Q31.5 116.45 31.7 116.65 L32.75 116.6 32.95 116.55 Q33.6 116.45 33.6 116.1 L33.5 115.95 33.55 115.85 33.6 115.8 34.1 115.45 Q34.65 115.1 35.5 115.1 36.45 115.1 36.8 115.55 L36.85 115.6 36.85 115.75 37.05 115.8 37.4 116.0 37.55 115.55 37.75 115.35 38.2 114.95 38.4 114.9 38.7 114.8 38.5 114.7 38.6 114.7 41.4 114.6 41.5 114.4 41.4 114.0 41.55 113.85 42.2 113.05 42.2 113.0 42.75 113.0 43.8 112.75 45.3 112.8 Q45.6 112.45 46.1 112.35 L46.25 112.25 46.95 112.25 47.55 112.5 48.25 112.7 48.65 112.6 48.85 112.55 49.2 112.55 53.4 112.3 53.5 114.25 55.55 114.5 55.65 115.15 Q55.65 116.35 53.9 117.8 52.05 119.3 49.75 119.55 L50.4 118.9 50.55 118.05 Q50.55 117.25 49.95 116.35 L49.8 116.35 49.7 117.1 49.5 118.95 49.7 119.55 49.5 119.55 49.5 120.3 47.6 120.25 47.55 120.9 47.6 121.3 47.4 121.3 44.55 120.85 42.3 121.3 42.55 120.8 42.6 119.65 42.45 118.15 42.3 118.15 41.6 120.05 Q41.3 120.8 41.3 121.3 L41.35 121.55 Q40.9 121.8 40.5 122.45 39.8 123.6 36.0 123.6 L35.4 123.95 34.4 124.3 33.7 124.15 33.2 124.0 Q31.95 124.0 31.1 124.7 L31.2 124.55 31.65 123.7 31.5 123.1 Q31.0 123.1 30.5 123.4 L29.25 123.7 29.3 123.45 29.15 122.8 27.55 123.3 Q29.15 122.8 29.55 122.25 L29.7 121.3 Q29.7 119.8 28.95 119.4 L28.9 119.45 28.85 119.95 29.15 121.15 27.5 122.25 Q27.15 122.45 27.15 122.75 27.15 123.15 27.3 123.3 L26.0 123.05 25.9 122.65 25.7 122.65 25.65 123.35 25.75 124.05 25.8 124.1 25.2 124.85 25.15 124.3 22.15 123.95 21.8 123.3 21.6 123.3 21.55 124.0 Q21.55 124.65 21.8 124.95 22.15 125.3 23.25 125.55 L23.1 125.55 23.05 126.2 23.1 126.5 22.9 126.5 22.4 126.5 22.3 126.9 20.65 127.2 19.4 127.1 19.2 127.25 Q17.75 128.6 13.4 128.6 11.6 128.6 10.7 127.65 L10.65 127.65 10.75 127.55 10.8 127.05 10.75 126.6 10.8 126.5 Q10.8 125.4 11.35 124.8 L11.9 123.95 11.7 123.3 Q10.7 123.75 10.5 124.25 L10.4 125.45 10.4 125.5 10.0 124.3 9.8 124.3 9.75 125.15 Q9.75 125.65 10.05 126.55 L10.6 127.65 10.3 127.65 8.05 127.3 7.85 127.4 Q7.65 127.7 6.85 128.0 L4.85 128.4 3.3 128.8 3.3 128.4 3.15 127.6 1.65 127.7 1.55 128.35 1.6 128.7 -2.1 128.25 Q-3.95 128.25 -4.4 128.7 -4.9 129.1 -5.7 129.1 -6.7 129.1 -11.4 126.2 -11.4 125.6 -10.05 124.2 L-8.7 122.75 Q-8.7 121.8 -6.75 121.35 L-3.65 121.0 -2.8 120.6 -2.6 120.5 -2.4 120.25 -2.45 120.2 Q-2.05 118.8 0.45 118.3 L2.4 118.45 2.4 118.5 2.6 119.0 3.0 119.45 3.0 119.55 3.05 119.55 3.1 119.5 3.2 119.5 3.5 119.05 3.55 119.1 3.75 119.0 5.2 119.1 5.25 119.1 5.3 119.15 5.35 119.2 5.5 119.25 5.5 119.75 5.2 119.75 Q5.2 120.3 5.75 121.0 6.35 121.9 7.15 121.9 7.65 121.9 7.35 121.65 7.2 120.0 5.75 119.8 L6.25 119.5 6.65 119.55 6.65 119.25 8.5 118.2 8.45 118.05 10.0 118.2 10.55 118.5 Q11.05 118.45 11.65 118.75 L11.8 118.85 11.7 119.15 11.65 120.2 Q11.65 120.95 11.9 121.2 L12.1 120.95 12.3 120.15 12.3 120.65 Q12.3 121.4 12.55 121.7 L12.6 121.65 12.55 122.1 12.6 122.65 Q12.9 123.2 14.05 123.2 14.55 123.2 14.2 123.1 L14.25 122.6 Q14.25 121.95 13.9 121.75 L12.6 121.6 13.05 120.7 13.4 119.65 13.25 119.0 Q12.8 119.1 12.55 119.35 L12.55 119.25 12.55 119.0 12.65 118.8 13.6 118.35 14.65 117.75 Q15.1 117.25 16.95 117.15 L18.6 116.8 18.6 116.75 M27.8 98.1 Q26.4 98.85 24.5 98.85 22.65 98.85 21.3 98.15 L20.9 97.9 Q19.45 97.0 19.45 95.7 19.45 94.4 20.9 93.45 L21.8 93.0 22.05 93.0 22.1 92.9 22.25 92.85 22.4 92.8 26.5 92.8 Q27.35 93.0 28.05 93.45 29.55 94.4 29.55 95.7 29.55 97.0 28.05 97.9 L27.8 98.1 M48.05 116.0 L47.8 116.0 47.75 116.6 48.55 118.15 47.6 118.95 Q47.35 119.1 47.35 119.4 L48.0 120.0 49.0 119.15 49.05 118.15 49.0 117.15 48.05 116.0 M46.05 113.75 L45.9 113.0 Q45.4 113.15 45.25 113.75 L45.2 114.75 45.3 115.9 45.65 115.9 Q46.05 114.6 46.05 113.75 M50.55 114.35 L50.05 113.35 49.4 112.7 49.35 112.8 49.25 113.25 Q49.25 113.8 49.6 114.65 L50.35 116.05 50.55 115.8 50.55 114.35 M48.85 114.25 L48.8 113.35 46.9 113.45 Q46.7 113.55 46.7 113.95 L46.8 114.55 48.6 114.7 48.85 114.25 M43.95 113.2 L43.75 113.2 43.7 113.8 43.9 114.25 44.1 114.7 43.9 115.1 43.7 115.5 44.35 116.1 44.5 115.95 44.55 114.8 Q44.55 113.45 43.95 113.2 M43.95 116.35 L43.75 116.35 43.7 117.2 Q43.7 118.85 45.05 119.4 L45.85 120.25 46.05 119.95 46.1 119.6 46.5 119.6 46.9 119.15 47.1 118.5 46.95 117.85 46.75 118.15 45.65 118.25 45.25 117.65 Q45.05 117.75 45.0 118.25 L44.95 118.25 Q44.45 118.25 44.25 117.5 L43.95 116.35 M42.0 114.2 L41.85 114.2 41.75 114.8 41.75 114.85 Q41.1 114.7 41.1 115.7 L41.15 116.3 42.15 116.1 42.6 116.9 42.85 116.65 42.85 115.5 42.0 114.2 M30.2 125.2 L26.75 125.55 25.85 125.65 26.05 124.6 26.05 124.3 Q26.7 124.7 28.45 124.7 L29.1 124.0 29.05 124.25 29.15 124.75 Q29.4 125.15 30.2 125.2 M50.8 113.75 L51.35 114.15 51.15 113.5 Q50.9 113.6 50.8 113.75 M24.15 121.9 L24.25 122.5 26.5 122.55 26.8 122.4 26.7 121.85 26.55 121.15 26.4 121.15 24.2 121.25 24.15 121.9 M24.15 123.7 L24.4 123.9 24.4 123.7 24.15 123.7 M36.45 116.25 L36.4 116.8 36.8 117.6 38.3 119.55 38.55 119.25 38.55 117.65 Q37.8 115.8 36.45 116.25 M35.15 121.3 L35.15 121.6 34.9 121.45 Q34.65 121.6 34.65 122.1 34.65 122.6 34.9 122.8 35.6 123.4 38.1 123.4 L38.65 123.1 38.95 122.45 38.8 121.8 37.0 122.3 37.0 122.15 36.8 121.45 35.15 121.3 M32.8 120.65 L32.55 120.65 32.05 121.65 31.65 122.6 32.3 123.25 32.9 122.7 32.95 121.85 32.8 120.65 M34.4 118.95 L34.65 120.35 34.9 120.1 34.9 118.3 Q34.2 117.3 33.4 117.3 L33.35 117.8 Q33.35 118.35 34.4 118.95 M2.85 120.25 L2.8 120.3 2.7 120.3 2.7 120.45 2.5 120.65 2.25 119.65 2.1 119.65 1.45 120.85 Q0.95 121.7 0.95 122.15 L1.0 122.7 1.55 122.75 Q1.8 122.55 2.0 122.45 L2.2 123.0 Q2.55 122.45 3.05 122.05 L3.3 121.5 Q3.3 120.7 2.9 120.3 L2.85 120.25 M3.5 122.4 L3.3 123.0 Q3.3 123.4 3.75 123.85 L3.75 124.25 4.25 124.3 4.55 124.5 6.5 126.0 6.75 125.7 6.75 124.45 6.15 123.7 Q5.85 123.25 5.25 123.1 L5.15 123.05 3.5 122.4 M4.9 121.55 L4.65 121.2 3.95 121.05 3.95 121.95 4.8 122.55 4.9 122.5 6.4 123.35 6.75 123.25 6.75 123.0 Q6.95 122.25 6.15 121.85 L4.9 121.55 M0.7 121.65 L0.55 120.95 Q-0.15 121.1 -0.15 122.2 L-0.05 123.2 0.1 123.2 0.5 122.5 0.7 121.65 M8.15 118.6 L8.15 118.65 8.3 118.65 8.4 118.6 8.15 118.6 M9.5 123.3 Q9.5 122.7 9.1 122.6 8.7 122.65 8.25 123.65 7.8 124.6 7.8 125.3 7.8 126.3 8.45 126.65 L8.65 126.35 Q8.65 125.3 9.1 124.45 L9.5 123.3 M11.35 119.4 L11.45 119.4 11.25 119.35 11.35 119.4 M2.4 127.6 L2.45 127.1 Q2.45 126.4 1.25 126.15 -0.1 125.8 -0.5 124.8 L-0.75 124.8 -0.8 125.45 -0.4 126.6 Q0.35 127.7 2.2 127.7 2.7 127.7 2.4 127.6 M18.2 125.15 L18.8 125.05 19.35 125.65 Q18.8 125.7 18.55 125.9 L18.2 125.15 Q17.85 124.7 17.25 124.75 L17.05 125.4 Q17.05 125.75 17.4 126.05 L18.35 127.5 18.55 127.2 18.55 127.0 19.3 127.0 19.8 126.25 19.85 125.55 19.8 124.6 20.25 124.15 20.5 122.9 Q20.5 121.55 19.75 121.3 L19.45 121.3 19.4 121.9 20.0 123.0 18.95 123.8 18.45 123.45 18.35 123.55 Q18.25 123.8 18.3 124.0 L18.1 124.55 18.2 125.15 M18.75 119.15 L18.0 118.15 16.45 118.35 16.4 118.95 16.5 119.55 Q18.6 119.8 18.65 120.35 L18.55 121.7 18.75 121.4 18.75 119.15 M-1.0 126.8 Q-1.0 125.9 -1.65 125.0 L-2.45 123.7 Q-2.75 123.85 -2.75 124.65 L-2.5 125.9 Q-2.1 127.05 -1.2 127.05 -0.7 127.05 -1.0 126.8 M-0.8 120.45 Q-0.8 120.05 -0.95 119.8 -2.0 119.9 -2.3 120.45 L-2.5 121.65 -2.4 122.7 -2.2 122.65 Q-1.95 121.95 -1.35 121.4 -0.8 120.9 -0.8 120.45 M-7.35 124.15 L-7.95 124.85 -6.5 124.15 -7.35 124.15" fill="#ffffff" fill-rule="evenodd" stroke="none"/>
      <path d="M35.35 95.3 L35.3 95.35 35.3 95.25 35.35 95.3" fill="#8f0101" fill-rule="evenodd" stroke="none"/>
      <path d="M2.25 56.0 L2.2 56.0 2.2 55.95 2.2 55.65 2.2 55.55 3.45 55.5 3.55 55.35 3.8 55.05 Q4.15 54.65 4.8 54.6 L5.2 54.55 5.95 54.55 5.95 54.65 6.05 54.6 6.15 54.45 6.15 54.4 7.3 54.35 7.4 54.4 Q7.6 54.25 7.9 54.05 L8.1 53.95 8.2 53.9 8.25 53.85 8.3 53.8 8.4 53.6 8.5 53.6 8.55 53.55 8.55 53.6 8.6 53.4 8.6 53.15 8.65 53.45 9.1 53.15 8.85 54.1 8.6 54.45 8.45 54.8 Q8.2 54.8 8.05 55.05 7.65 55.45 7.05 55.4 L6.35 55.25 4.7 55.55 3.8 56.15 2.6 56.15 2.6 56.0 2.25 56.0 M35.0 44.45 L35.55 44.1 35.8 44.05 Q36.05 44.1 36.35 44.7 L36.25 45.05 35.1 45.3 35.2 46.05 Q35.15 46.6 34.45 46.6 L34.05 46.6 34.55 47.9 34.3 48.9 34.35 49.4 Q34.3 49.75 33.6 49.75 L33.0 49.65 32.35 49.6 32.35 49.45 32.25 49.45 32.15 49.5 31.9 50.2 31.05 50.85 Q30.55 50.85 30.7 50.55 L30.15 50.5 30.0 51.0 Q30.0 51.4 29.3 51.4 L28.35 51.05 28.0 50.7 28.5 50.65 29.1 50.6 29.75 50.25 30.1 50.2 30.3 50.1 31.35 49.65 31.35 49.6 31.45 49.4 31.55 49.35 31.55 49.25 31.55 49.2 31.65 49.0 32.45 48.9 Q32.45 48.75 32.75 48.7 33.75 48.55 33.85 48.15 L33.85 47.95 33.85 47.9 33.65 47.0 33.4 46.15 33.45 45.9 33.65 45.9 33.85 46.2 34.0 46.15 34.0 46.0 34.2 45.8 34.3 45.3 34.05 44.8 34.4 44.55 34.5 44.6 34.55 44.65 34.75 44.55 35.0 44.45 M33.15 58.05 Q31.1 58.05 31.1 57.05 31.1 56.2 32.65 56.55 34.15 56.85 34.15 57.5 L34.1 57.8 33.15 58.05 M27.6 50.75 L27.7 51.0 Q26.7 52.55 25.75 52.55 24.5 52.55 24.15 52.05 23.85 51.65 23.45 51.6 L23.25 51.75 22.05 51.75 21.9 51.95 20.85 52.4 Q20.1 52.4 19.8 52.0 L19.8 52.05 19.3 52.35 18.05 52.1 17.85 51.8 17.2 51.25 Q17.2 50.95 17.45 51.05 L17.8 51.2 18.8 51.75 19.1 51.85 19.25 51.35 19.55 51.0 19.75 51.15 19.85 51.15 20.0 51.25 20.0 51.35 20.25 51.45 20.45 51.45 21.3 51.35 21.55 51.3 21.95 51.15 22.0 51.15 22.2 51.25 22.5 51.15 23.5 51.05 23.6 51.2 23.65 51.15 23.95 51.2 25.4 51.65 26.9 51.45 26.95 51.05 27.45 50.75 27.6 50.75 M17.1 51.2 L17.15 51.4 Q17.15 52.15 16.15 52.15 L14.7 51.7 14.45 51.5 14.25 51.7 Q13.8 52.1 13.35 52.1 L12.45 52.05 11.85 52.4 10.85 52.2 10.1 52.4 9.85 52.4 9.85 52.05 9.85 51.95 9.9 51.95 10.4 51.8 10.65 51.65 10.75 51.65 10.85 51.65 10.85 51.7 11.15 51.75 11.4 51.7 12.1 51.3 12.15 51.2 Q12.55 50.85 12.55 51.4 L12.55 51.45 12.55 51.7 13.2 51.55 13.65 51.3 13.85 51.1 Q14.3 50.5 14.5 50.6 L14.55 50.6 14.6 51.05 14.8 51.15 15.45 51.65 16.6 51.4 16.95 51.15 17.1 51.2 M27.4 58.75 Q25.4 61.1 22.9 61.1 14.9 61.1 14.9 59.7 L14.95 59.25 14.95 59.2 Q15.0 59.1 15.2 59.1 L16.5 59.5 18.2 59.85 Q23.25 59.85 25.75 58.7 27.05 58.1 27.35 57.45 L28.05 56.15 Q28.3 55.35 28.85 55.25 L29.0 55.95 Q29.0 56.9 27.4 58.75 M9.2 51.9 L8.9 52.4 8.9 52.3 8.8 52.15 Q8.8 51.9 8.95 51.9 L9.05 51.9 9.2 51.9 M8.9 52.45 L8.6 53.0 8.65 52.25 8.9 52.45 M6.25 94.1 L6.15 94.4 6.15 94.7 4.35 94.3 4.35 94.0 4.4 93.9 4.75 93.9 6.05 94.05 6.25 94.1 M-1.7 118.35 L-1.2 118.0 Q-0.7 117.55 -0.1 117.6 L0.55 117.75 1.6 117.6 Q2.2 117.6 2.6 117.9 L2.9 118.25 2.9 118.35 3.0 118.45 3.55 118.2 4.7 118.4 5.35 118.6 5.3 118.4 5.5 118.2 6.25 118.35 7.3 117.95 8.2 117.55 8.25 117.75 8.25 117.8 9.45 117.75 11.15 117.9 11.65 118.0 Q11.8 117.5 12.6 117.3 L17.9 116.6 18.25 116.6 Q18.55 116.6 18.6 116.75 L18.6 116.8 16.95 117.15 Q15.1 117.25 14.65 117.75 L13.6 118.35 12.65 118.8 12.55 118.8 12.5 118.8 12.35 118.5 Q11.95 118.55 11.8 118.85 L11.65 118.75 11.6 118.6 11.6 118.35 11.35 118.4 11.2 118.35 10.8 118.35 10.6 118.3 10.6 118.25 10.0 118.2 8.45 118.05 8.5 118.2 6.65 119.25 6.25 119.5 5.75 119.8 5.55 119.75 5.5 119.75 5.5 119.25 5.5 119.15 5.55 119.1 5.25 119.1 5.2 119.1 5.2 118.95 4.45 118.95 4.1 118.95 3.8 118.95 3.75 119.0 3.55 119.1 3.5 119.05 3.2 119.5 3.1 119.5 3.0 119.45 2.6 119.0 2.4 118.5 2.4 118.45 2.4 118.35 2.3 118.25 1.6 118.05 Q0.45 118.05 -0.8 118.6 L-2.0 119.1 -2.25 119.0 -2.25 118.9 -2.0 118.5 -1.7 118.35 M20.4 116.75 L20.1 116.4 20.15 116.25 20.8 116.45 22.3 116.8 Q22.95 116.25 23.5 116.25 L24.0 116.35 24.25 116.25 24.6 116.25 24.65 116.4 23.95 117.0 22.95 117.45 22.7 117.4 22.6 117.3 Q22.45 117.3 22.35 117.45 L22.25 117.25 22.1 117.25 22.1 117.5 21.85 117.5 21.85 117.35 21.85 117.25 21.0 117.0 20.5 116.8 20.4 116.75 M27.15 116.7 L27.1 116.6 27.15 116.3 25.9 116.3 25.9 116.2 24.25 116.15 24.25 115.85 25.3 115.75 27.55 115.9 Q27.85 115.7 28.45 115.6 L29.75 115.7 29.95 115.7 31.4 115.9 31.55 115.9 31.95 116.0 Q32.8 115.15 34.05 115.15 L34.1 115.3 34.1 115.45 33.6 115.8 33.55 115.8 33.4 115.85 33.5 115.95 33.6 116.1 Q33.6 116.45 32.95 116.55 L32.5 116.55 Q31.75 116.55 31.65 116.35 L31.3 116.3 31.25 116.3 31.25 116.25 31.25 116.1 31.1 116.1 Q30.75 115.9 30.45 116.1 L29.35 116.1 29.45 116.2 29.5 116.25 29.2 116.45 28.5 116.65 27.4 116.95 27.3 117.0 27.25 116.95 27.15 116.7 M36.85 115.6 L36.85 115.45 36.9 115.45 36.85 115.25 Q36.85 114.25 37.8 114.45 L38.1 114.55 38.2 114.6 38.25 114.6 38.25 114.4 Q39.8 113.2 40.7 113.5 L41.05 113.1 41.3 113.3 41.8 112.95 41.75 112.9 41.75 112.8 Q41.75 112.55 42.8 112.55 L43.8 112.75 42.75 113.0 42.2 113.0 42.2 113.05 41.55 113.85 41.4 114.0 41.5 114.4 41.4 114.6 38.6 114.7 38.5 114.7 38.7 114.8 38.4 114.9 38.2 114.95 37.75 115.35 37.55 115.55 37.1 115.8 37.05 115.8 36.85 115.75 36.85 115.6 M46.25 112.25 L46.05 112.25 45.25 112.7 45.05 112.65 45.05 112.35 45.5 111.95 47.25 111.85 Q48.65 112.3 48.65 112.45 L48.65 112.6 48.25 112.7 47.55 112.5 46.95 112.25 46.25 112.25 M35.3 95.35 L35.25 95.45 34.8 95.95 34.6 96.05 34.45 96.15 33.65 96.7 33.45 95.9 34.1 95.75 34.45 95.55 34.9 95.1 Q35.3 94.8 35.3 95.25 L35.3 95.35 M8.0 94.45 L9.3 94.75 12.55 95.6 12.35 96.4 8.8 95.25 8.8 95.15 7.85 95.05 8.0 94.45 M32.0 96.7 L32.15 97.5 31.65 97.75 30.4 98.25 Q29.05 98.4 28.45 98.75 L26.45 99.7 24.9 99.75 22.1 99.25 21.9 99.15 20.4 98.8 18.75 98.35 17.1 97.9 15.1 97.4 14.2 97.05 14.4 96.35 14.45 96.05 Q16.15 96.5 18.6 97.45 L21.3 98.15 Q22.65 98.85 24.5 98.85 26.4 98.85 27.8 98.1 L28.5 98.0 Q28.75 97.7 28.9 97.8 L28.95 97.8 28.95 97.75 32.0 96.7 M7.2 94.75 L7.25 94.95 7.2 94.95 7.2 94.75 M42.95 147.75 Q43.7 147.25 43.7 148.05 L43.85 148.05 44.55 148.25 45.25 148.4 46.2 147.9 Q46.7 147.6 46.7 148.3 L47.05 148.45 48.25 148.95 48.9 148.75 49.45 148.35 49.75 148.45 49.8 148.45 50.6 148.65 51.15 148.1 Q51.6 147.8 51.7 148.2 L51.8 148.2 52.3 148.35 52.85 148.5 53.2 148.35 53.15 148.3 53.2 148.05 53.3 148.0 53.6 147.9 Q53.8 147.9 54.0 148.05 L54.35 148.2 Q54.85 148.2 54.9 148.0 55.0 147.75 55.45 147.6 L55.7 148.1 Q55.7 149.0 54.65 149.0 L53.95 148.95 53.9 149.25 53.05 149.4 51.75 149.1 51.5 148.95 51.35 149.1 50.5 149.55 49.7 149.4 Q49.4 149.75 48.55 149.75 47.3 149.75 46.7 149.25 L46.45 149.0 45.4 149.25 43.85 149.05 43.5 148.8 Q43.25 149.1 42.7 149.1 42.05 149.1 41.4 148.65 L40.9 148.2 40.95 148.1 42.4 148.4 42.85 147.95 42.95 147.75 M5.8 118.95 L5.9 118.85 5.8 118.85 5.8 118.95 M12.1 118.15 L12.3 117.95 12.15 117.95 12.1 118.15 M15.8 149.65 L16.25 149.65 17.2 150.05 17.2 150.0 17.95 150.25 18.55 150.5 18.6 150.5 19.55 149.8 Q21.2 148.85 21.2 150.1 L20.75 151.15 Q20.2 151.8 19.4 151.8 L18.35 151.5 18.2 151.4 17.7 151.6 16.7 151.85 15.4 151.55 15.35 151.5 15.15 151.5 13.25 151.8 Q12.4 151.8 11.25 151.15 L10.45 150.6 Q10.2 151.2 9.05 151.2 L8.05 151.05 7.3 150.6 5.55 150.1 5.05 150.0 Q5.05 149.5 5.45 149.25 6.1 148.9 7.4 149.55 L8.0 149.9 8.9 150.15 9.65 149.9 Q9.9 149.6 10.15 149.6 10.55 149.6 10.55 149.75 L10.55 149.9 10.6 149.7 10.7 149.65 11.0 149.55 Q11.2 149.55 11.25 149.7 L11.5 149.85 12.1 149.6 12.6 149.75 12.65 150.0 13.1 150.0 13.15 150.05 14.85 150.45 14.9 150.4 15.25 150.15 15.35 150.2 15.35 150.05 15.8 149.65 M10.55 149.9 L10.55 150.0 10.7 150.0 10.55 149.9" fill="#6d0101" fill-rule="evenodd" stroke="none"/>
      <path d="M23.45 43.95 L23.6 43.7 23.65 44.25 23.7 44.25 Q24.2 44.35 24.55 44.75 L24.95 45.45 25.85 45.45 25.9 45.95 26.0 46.3 25.75 46.35 23.45 46.35 23.35 46.0 23.0 46.35 Q22.85 46.15 22.85 45.75 L23.1 45.25 23.35 44.55 23.45 43.95 M-0.75 50.55 L-0.8 50.2 -0.7 49.5 -0.55 49.5 -0.5 49.55 -0.15 50.1 0.05 50.5 0.05 50.6 -0.1 51.0 -0.1 51.05 -0.35 51.05 -0.75 50.55 M2.0 48.15 L4.05 48.4 Q4.45 48.6 4.45 49.15 4.45 49.55 3.95 49.95 3.5 49.05 2.6 49.05 1.9 49.1 1.9 48.6 L2.0 48.15 M1.4 49.35 L2.1 49.9 Q2.55 50.25 2.35 50.6 L2.2 50.85 Q1.25 50.6 1.25 49.8 L1.25 49.35 1.4 49.35 M7.0 47.25 Q7.3 47.45 7.3 48.0 L7.7 47.6 9.25 47.6 9.35 48.05 9.35 48.6 7.2 49.05 Q6.9 49.15 6.55 49.8 L6.5 49.8 Q6.35 49.65 6.35 49.2 L6.5 47.45 6.65 47.45 6.8 47.75 6.8 47.65 6.85 47.25 7.0 47.25 M14.8 45.3 L14.95 45.3 15.1 45.6 15.1 46.55 14.95 46.8 14.75 46.0 14.8 45.3 M11.0 45.9 L11.65 46.8 11.85 47.2 Q12.15 47.0 12.95 46.75 L14.5 46.4 14.6 46.9 14.6 47.3 Q12.75 47.3 12.4 47.85 L11.85 47.85 11.6 47.9 Q10.95 47.9 10.85 47.35 L10.85 46.8 10.85 45.9 11.0 45.9 M10.45 47.75 L10.3 49.05 10.25 49.05 Q10.1 48.65 10.1 47.75 L10.3 46.5 10.45 47.75 M10.7 48.95 L12.45 49.2 12.7 49.85 12.65 50.25 Q12.95 50.3 12.55 50.3 L11.1 49.95 10.7 49.4 10.7 48.95 M15.0 47.95 Q15.85 48.1 15.85 48.6 L15.8 49.05 15.7 49.2 15.55 48.95 14.2 48.8 14.15 48.35 Q14.15 47.85 15.0 47.95 M15.95 48.15 Q16.95 48.0 17.45 48.85 L17.8 49.9 17.65 50.45 17.05 50.55 Q16.95 50.0 17.3 49.65 L15.95 48.9 15.95 48.15 M23.6 45.55 L24.2 45.45 23.65 44.95 23.55 45.6 23.6 45.55 M21.5 48.9 L21.95 49.8 21.7 50.25 21.15 49.5 21.1 48.9 Q21.1 47.75 22.75 46.8 L22.85 47.25 22.2 48.15 21.5 48.9 M24.5 49.05 L23.95 50.4 23.8 50.55 23.6 49.8 Q23.6 48.6 24.35 48.6 L24.5 49.05 M26.5 45.7 L26.6 45.3 Q29.8 43.95 29.9 46.5 L29.6 46.65 26.8 46.15 Q26.5 46.05 26.5 45.7 M26.15 48.35 L26.8 48.45 27.2 48.95 27.2 49.8 27.05 49.95 26.45 49.3 Q26.15 48.95 26.15 48.35 M26.35 47.6 L26.35 46.8 Q27.75 46.7 28.15 47.3 L28.25 48.0 28.15 48.65 28.05 48.05 Q27.95 47.8 26.45 47.7 L26.35 47.6 M29.75 46.8 L30.9 47.65 30.95 48.25 31.1 48.8 30.95 49.5 30.85 49.5 30.65 49.95 30.4 49.95 30.35 49.55 30.5 49.1 30.6 48.95 30.5 48.8 Q30.35 48.6 30.35 48.25 L30.35 48.15 30.15 48.0 Q29.6 47.7 29.6 47.3 L29.6 46.8 29.75 46.8 M29.45 48.45 L29.2 49.65 29.05 49.8 28.85 49.05 Q28.85 48.2 29.3 48.0 L29.45 48.45 M34.05 41.85 L34.0 41.6 Q34.0 41.25 34.2 41.15 L35.5 41.1 35.6 41.6 35.45 42.0 35.2 42.0 34.1 42.0 34.05 41.85 M35.1 43.2 L35.15 43.45 Q35.15 43.9 34.6 44.05 L34.55 44.3 34.5 44.4 34.4 44.55 34.05 44.8 33.85 44.9 33.2 44.45 33.4 43.95 33.35 43.65 Q33.35 43.2 33.5 43.1 L34.45 42.95 35.0 42.9 35.1 43.2 M32.3 41.6 L33.25 41.6 33.35 42.1 33.2 42.5 32.3 42.45 32.3 41.6 M31.75 43.1 L31.3 44.85 31.15 45.0 Q30.95 44.85 30.95 44.1 L31.0 43.35 31.7 42.6 31.75 43.1 M33.2 46.3 L33.2 46.4 Q33.45 46.8 33.35 47.4 L33.2 47.55 32.0 46.65 31.55 46.65 31.45 46.2 31.55 45.75 32.9 45.95 32.75 44.85 32.75 44.3 32.9 44.3 Q33.2 44.75 33.2 45.65 L33.2 46.3 M9.85 52.4 L9.65 52.8 9.1 53.15 8.65 53.45 8.6 53.15 8.55 53.55 8.5 53.6 8.4 53.6 8.35 53.6 7.55 52.25 7.25 51.65 6.85 51.5 5.3 50.85 5.3 50.1 7.65 50.7 8.05 50.9 8.0 50.6 8.0 50.15 8.1 50.15 8.15 50.1 8.2 50.15 8.75 50.3 8.75 50.2 8.8 49.2 9.45 49.7 9.5 50.3 9.5 51.0 9.85 51.9 9.85 51.95 9.85 52.05 9.85 52.4 M14.0 50.75 L13.25 50.25 Q13.0 50.1 13.0 49.7 13.0 49.3 13.25 49.2 L13.9 49.7 14.15 50.3 14.0 50.75 M9.2 51.85 L9.2 51.8 8.9 51.45 8.9 51.6 8.75 51.75 8.3 51.45 8.3 51.5 8.5 51.75 8.6 52.6 8.6 52.7 8.6 53.0 8.9 52.45 8.9 52.4 9.2 51.9 9.2 51.85 M4.75 52.3 L4.6 52.95 4.6 53.25 4.55 53.6 Q4.85 53.7 4.45 53.7 L3.9 53.65 3.2 54.65 3.2 55.05 2.95 55.5 1.0 55.5 0.95 54.9 1.0 54.35 3.0 54.35 2.95 53.85 Q2.95 52.3 4.7 51.8 L4.75 52.3 M0.25 52.25 L0.35 52.25 0.8 52.75 1.8 53.25 2.75 53.85 2.65 54.15 Q2.95 54.3 2.6 54.3 L1.5 54.25 1.3 54.2 Q0.6 54.0 0.35 53.65 L0.2 53.15 0.2 52.85 0.2 52.8 0.2 52.25 0.25 52.25 M48.85 114.25 L48.6 114.7 46.8 114.55 46.7 113.95 Q46.7 113.55 46.9 113.45 L48.8 113.35 48.85 114.25 M50.55 114.35 L50.55 115.8 50.35 116.05 49.6 114.65 Q49.25 113.8 49.25 113.25 L49.35 112.8 49.4 112.7 50.05 113.35 50.55 114.35 M46.05 113.75 Q46.05 114.6 45.65 115.9 L45.3 115.9 45.2 114.75 45.25 113.75 Q45.4 113.15 45.9 113.0 L46.05 113.75 M48.05 116.0 L49.0 117.15 49.05 118.15 49.0 119.15 48.0 120.0 47.35 119.4 Q47.35 119.1 47.6 118.95 L48.55 118.15 47.75 116.6 47.8 116.0 48.05 116.0 M49.7 119.55 L49.5 118.95 49.7 117.1 49.8 116.35 49.95 116.35 Q50.55 117.25 50.55 118.05 L50.4 118.9 49.75 119.55 49.7 119.55 M43.95 113.2 Q44.55 113.45 44.55 114.8 L44.5 115.95 44.35 116.1 43.7 115.5 43.9 115.1 44.1 114.7 43.9 114.25 43.7 113.8 43.75 113.2 43.95 113.2 M42.0 114.2 L42.85 115.5 42.85 116.65 42.6 116.9 42.15 116.1 41.15 116.3 41.1 115.7 Q41.1 114.7 41.75 114.85 L41.75 114.8 41.85 114.2 42.0 114.2 M43.95 116.35 L44.25 117.5 Q44.45 118.25 44.95 118.25 L45.0 118.25 Q45.05 117.75 45.25 117.65 L45.65 118.25 46.75 118.15 46.95 117.85 47.1 118.5 46.9 119.15 46.5 119.6 46.1 119.6 46.05 119.95 45.85 120.25 45.05 119.4 Q43.7 118.85 43.7 117.2 L43.75 116.35 43.95 116.35 M41.35 121.55 L41.3 121.3 Q41.3 120.8 41.6 120.05 L42.3 118.15 42.45 118.15 42.6 119.65 42.55 120.8 42.3 121.3 41.45 121.85 41.35 121.55 M47.6 121.3 L47.55 120.9 47.6 120.25 49.5 120.3 49.9 120.15 50.2 119.65 50.35 120.3 49.7 121.55 47.65 121.45 47.6 121.3 M31.1 124.7 L30.35 125.2 30.2 125.2 Q29.4 125.15 29.15 124.75 L29.05 124.25 29.1 124.0 28.45 124.7 Q26.7 124.7 26.05 124.3 L26.05 124.6 25.85 125.65 25.75 125.9 Q25.3 126.85 24.35 126.85 L23.15 126.8 23.1 126.5 23.05 126.2 23.1 125.55 23.25 125.55 Q22.15 125.3 21.8 124.95 21.55 124.65 21.55 124.0 L21.6 123.3 21.8 123.3 22.15 123.95 25.15 124.3 25.2 124.85 25.8 124.1 25.75 124.05 25.65 123.35 25.7 122.65 25.9 122.65 26.0 123.05 27.3 123.3 Q27.15 123.15 27.15 122.75 27.15 122.45 27.5 122.25 L29.15 121.15 28.85 119.95 28.9 119.45 28.95 119.4 Q29.7 119.8 29.7 121.3 L29.55 122.25 Q29.15 122.8 27.55 123.3 L29.15 122.8 29.3 123.45 29.25 123.7 30.5 123.4 Q31.0 123.1 31.5 123.1 L31.65 123.7 31.2 124.55 31.1 124.7 M10.65 127.65 L10.6 127.7 10.6 127.65 10.05 126.55 Q9.75 125.65 9.75 125.15 L9.8 124.3 10.0 124.3 10.4 125.5 10.4 125.45 10.5 124.25 Q10.7 123.75 11.7 123.3 L11.9 123.95 11.35 124.8 Q10.8 125.4 10.8 126.5 L10.75 126.6 10.8 127.05 10.75 127.55 10.65 127.65 M3.3 128.8 L3.25 129.05 3.1 129.2 Q1.85 129.3 1.6 128.7 L1.55 128.35 1.65 127.7 3.15 127.6 3.3 128.4 3.3 128.8 M43.15 144.8 L43.3 144.8 Q43.7 145.2 43.7 146.0 L43.5 147.05 43.35 147.05 43.05 145.35 43.15 144.8 M41.75 145.0 L41.2 146.3 41.0 146.35 40.9 145.5 Q40.9 144.75 41.6 144.35 L41.75 145.0 M40.95 148.1 L40.8 147.9 40.9 147.05 41.85 146.85 42.9 146.65 43.05 147.3 42.95 147.75 42.85 147.95 42.4 148.4 40.95 148.1 M49.05 145.0 L49.05 145.95 49.55 146.05 51.15 146.3 51.2 146.9 51.15 147.4 Q51.5 147.55 51.0 147.55 L49.05 147.3 48.85 147.55 48.2 146.9 48.4 144.9 48.5 144.35 48.7 144.35 49.05 145.0 M49.95 143.55 Q51.4 143.05 51.4 145.15 L51.35 146.1 51.2 146.25 50.35 145.6 Q50.35 145.1 50.75 144.85 49.9 144.35 49.9 144.1 L49.95 143.55 M46.1 144.8 L46.8 145.7 47.1 146.3 47.05 146.75 Q47.4 146.9 46.9 146.9 L45.95 146.85 45.85 145.75 45.9 144.8 46.1 144.8 M54.45 143.35 L54.45 144.45 54.1 144.7 Q53.85 143.8 53.15 143.5 L52.5 143.0 52.7 142.3 53.75 142.65 54.45 143.35 M55.05 144.45 Q55.55 144.8 55.65 145.25 L55.7 145.95 55.6 146.75 55.4 146.85 Q54.85 145.55 54.85 145.15 L55.05 144.45 M52.75 145.15 Q53.15 145.6 53.15 146.45 L53.1 147.2 52.5 147.75 51.85 147.1 Q51.85 146.7 52.2 146.35 L52.5 145.75 52.55 145.15 52.75 145.15 M27.3 117.0 L27.4 116.95 28.5 116.65 30.65 116.35 30.8 117.0 Q30.8 117.4 30.15 117.4 28.9 117.4 27.35 118.45 L26.75 117.85 Q26.75 117.3 27.3 117.0 M22.1 117.5 L22.1 117.25 22.25 117.25 22.35 117.45 22.4 117.7 22.4 121.6 22.2 121.85 22.2 121.7 22.15 122.15 22.05 122.35 Q21.35 122.3 21.15 121.7 L21.1 120.7 Q21.1 120.1 21.35 119.75 L21.65 121.0 21.75 120.6 Q21.75 120.15 21.25 119.6 L21.1 120.05 20.55 121.85 20.35 121.85 20.25 120.65 Q20.25 119.45 20.4 119.05 L20.45 118.9 19.85 118.1 19.9 117.5 20.95 118.05 21.2 117.65 21.35 118.3 21.95 118.95 22.0 119.05 22.1 117.5 M24.15 121.9 L24.2 121.25 26.4 121.15 26.55 121.15 26.7 121.85 26.8 122.4 26.5 122.55 24.25 122.5 24.15 121.9 M36.45 116.25 Q37.8 115.8 38.55 117.65 L38.55 119.25 38.3 119.55 36.8 117.6 36.4 116.8 36.45 116.25 M34.4 118.95 Q33.35 118.35 33.35 117.8 L33.4 117.3 Q34.2 117.3 34.9 118.3 L34.9 120.1 34.65 120.35 34.4 118.95 M32.8 120.65 L32.95 121.85 32.9 122.7 32.3 123.25 31.65 122.6 32.05 121.65 32.55 120.65 32.8 120.65 M35.15 121.3 L36.8 121.45 37.0 122.15 37.0 122.3 38.8 121.8 38.95 122.45 38.65 123.1 38.1 123.4 Q35.6 123.4 34.9 122.8 34.65 122.6 34.65 122.1 34.65 121.6 34.9 121.45 L35.15 121.6 35.15 121.3 M5.5 119.75 L5.55 119.75 5.75 119.8 Q7.2 120.0 7.35 121.65 7.65 121.9 7.15 121.9 6.35 121.9 5.75 121.0 5.2 120.3 5.2 119.75 L5.5 119.75 M11.8 118.85 Q11.95 118.55 12.35 118.5 L12.5 118.8 12.55 119.0 12.55 119.25 12.55 119.35 Q12.8 119.1 13.25 119.0 L13.4 119.65 13.05 120.7 12.6 121.6 13.9 121.75 Q14.25 121.95 14.25 122.6 L14.2 123.1 Q14.55 123.2 14.05 123.2 12.9 123.2 12.6 122.65 L12.55 122.1 12.6 121.65 12.55 121.7 Q12.3 121.4 12.3 120.65 L12.3 120.15 12.1 120.95 11.9 121.2 Q11.65 120.95 11.65 120.2 L11.7 119.15 11.8 118.85 M2.85 120.25 L2.9 120.3 Q3.3 120.7 3.3 121.5 L3.05 122.05 Q2.55 122.45 2.2 123.0 L2.0 122.45 Q1.8 122.55 1.55 122.75 L1.0 122.7 0.95 122.15 Q0.95 121.7 1.45 120.85 L2.1 119.65 2.25 119.65 2.5 120.65 2.7 120.45 2.7 120.3 2.8 120.3 2.85 120.25 M0.7 121.65 L0.5 122.5 0.1 123.2 -0.05 123.2 -0.15 122.2 Q-0.15 121.1 0.55 120.95 L0.7 121.65 M4.9 121.55 L6.15 121.85 Q6.95 122.25 6.75 123.0 L6.75 123.25 6.4 123.35 4.9 122.5 4.8 122.55 3.95 121.95 3.95 121.05 4.65 121.2 4.9 121.55 M3.5 122.4 L5.15 123.05 5.25 123.1 Q5.85 123.25 6.15 123.7 L6.75 124.45 6.75 125.7 6.5 126.0 4.55 124.5 4.25 124.3 3.75 124.25 3.75 123.85 Q3.3 123.4 3.3 123.0 L3.5 122.4 M9.5 123.3 L9.1 124.45 Q8.65 125.3 8.65 126.35 L8.45 126.65 Q7.8 126.3 7.8 125.3 7.8 124.6 8.25 123.65 8.7 122.65 9.1 122.6 9.5 122.7 9.5 123.3 M18.75 119.15 L18.75 121.4 18.55 121.7 18.65 120.35 Q18.6 119.8 16.5 119.55 L16.4 118.95 16.45 118.35 18.0 118.15 18.75 119.15 M18.45 123.45 L18.95 123.8 20.0 123.0 19.4 121.9 19.45 121.3 19.75 121.3 Q20.5 121.55 20.5 122.9 L20.25 124.15 19.8 124.6 19.85 125.55 19.8 126.25 19.3 127.0 18.55 127.0 18.55 127.2 18.35 127.5 17.4 126.05 Q17.05 125.75 17.05 125.4 L17.25 124.75 Q17.85 124.7 18.2 125.15 L18.1 124.55 18.3 124.0 Q18.25 123.8 18.35 123.55 L18.45 123.45 M18.2 125.15 L18.55 125.9 Q18.8 125.7 19.35 125.65 L18.8 125.05 18.2 125.15 M2.4 127.6 Q2.7 127.7 2.2 127.7 0.35 127.7 -0.4 126.6 L-0.8 125.45 -0.75 124.8 -0.5 124.8 Q-0.1 125.8 1.25 126.15 2.45 126.4 2.45 127.1 L2.4 127.6 M4.8 145.75 L4.75 146.25 4.6 146.4 Q4.15 145.9 4.15 145.2 L4.2 144.15 4.4 144.15 Q4.8 145.05 4.8 145.75 M6.7 148.3 Q7.0 148.4 6.5 148.4 5.55 148.4 5.3 148.0 L5.2 147.55 5.3 146.95 6.55 147.1 6.75 147.8 6.7 148.3 M7.15 145.6 Q7.15 144.9 8.8 145.0 10.4 145.1 10.4 145.8 L10.45 146.3 10.15 146.4 7.25 146.2 7.15 145.6 M9.8 148.4 L10.15 148.8 10.1 149.3 Q10.45 149.4 9.95 149.4 L8.75 149.35 8.65 148.35 8.7 147.55 8.95 147.55 9.8 148.4 M10.45 146.5 L10.6 147.3 10.6 147.4 11.9 146.9 12.1 147.5 Q11.9 148.75 11.45 148.75 10.35 148.75 10.15 148.15 L10.15 147.45 10.2 146.5 10.45 146.5 M12.6 149.75 L12.55 149.4 12.6 148.75 14.95 148.9 14.35 148.65 Q14.05 148.45 14.05 147.7 L14.1 147.0 14.15 146.95 14.25 147.0 14.25 146.95 13.05 146.85 12.95 146.25 13.0 145.65 14.1 145.55 14.7 146.3 14.7 147.4 14.65 147.45 Q15.15 147.85 17.0 148.1 17.9 147.9 18.4 148.45 18.75 148.85 18.75 149.45 L18.7 149.95 Q19.05 150.05 18.55 150.05 17.3 150.05 16.85 149.45 L16.75 149.3 15.95 149.1 15.8 149.65 15.35 150.05 15.1 150.05 13.1 150.0 12.65 150.0 12.6 149.75 M16.45 144.8 Q18.05 145.05 18.6 145.55 19.0 145.9 19.0 146.7 L18.8 147.7 18.0 147.7 Q17.55 146.1 16.9 145.85 L16.4 145.4 16.45 144.8 M19.9 145.85 L20.7 146.65 20.7 148.75 20.5 149.05 19.95 149.0 19.85 148.4 20.05 147.95 20.25 147.45 19.6 146.45 19.65 145.85 19.9 145.85 M21.3 143.85 L21.35 144.6 21.3 145.15 21.2 145.3 Q20.5 144.9 20.5 144.5 L20.7 143.8 21.3 143.85 M-0.8 120.45 Q-0.8 120.9 -1.35 121.4 -1.95 121.95 -2.2 122.65 L-2.4 122.7 -2.5 121.65 -2.3 120.45 Q-2.0 119.9 -0.95 119.8 -0.8 120.05 -0.8 120.45 M-1.0 126.8 Q-0.7 127.05 -1.2 127.05 -2.1 127.05 -2.5 125.9 L-2.75 124.65 Q-2.75 123.85 -2.45 123.7 L-1.65 125.0 Q-1.0 125.9 -1.0 126.8" fill="#d0d0d0" fill-rule="evenodd" stroke="none"/>
    </g>
    <g id="sprite1" transform="matrix(1.0, 0.0, 0.0, 1.0, 1.55, 0.7)">
      <use height="58.75" transform="matrix(1.0, 0.0, 0.0, 1.0, 0.0, 0.0)" width="37.4" xlink:href="#shape1"/>
      <use height="59.45" transform="matrix(1.0, 0.0, 0.0, 1.0, -1.55, -0.7)" width="39.85" xlink:href="#sprite2"/>
    </g>
    <g id="shape1" transform="matrix(1.0, 0.0, 0.0, 1.0, 0.0, 0.0)">
      <path d="M28.1 1.85 Q32.1 3.0 33.2 8.5 37.95 11.6 37.3 16.5 36.1 21.15 31.65 24.0 30.7 27.7 30.25 31.35 29.9 33.9 29.8 36.45 29.6 40.8 30.05 45.15 L33.75 58.2 34.2 58.75 3.85 58.75 4.8 55.95 Q6.2 51.0 6.0 44.4 5.7 34.0 2.6 22.5 L2.1 20.8 Q0.05 15.75 0.0 10.0 0.25 4.6 7.65 1.15 L10.4 0.0 20.8 0.0 28.1 1.85" fill="#99ff00" fill-opacity="0.0" fill-rule="evenodd" stroke="none"/>
    </g>
    <g id="sprite2" transform="matrix(1.0, 0.0, 0.0, 1.0, 0.8, -34.9)">
      <use height="58.95" transform="matrix(1.0, 0.0, 0.0, 1.0, -0.8, 34.95)" width="39.85" xlink:href="#shape2"/>
    </g>
    <g id="shape2" transform="matrix(1.0, 0.0, 0.0, 1.0, 0.8, -34.95)">
      <path d="M19.6 38.0 L18.2 36.2 10.45 36.65 18.3 37.0 19.6 38.0 M2.85 55.85 Q0.8 50.8 0.75 45.05 1.0 39.65 8.4 36.2 L11.4 34.95 21.35 34.95 21.35 35.0 28.85 36.9 Q32.85 38.05 33.95 43.55 L32.45 42.65 Q33.7 44.85 33.25 48.3 L32.6 48.95 Q31.0 50.3 28.2 51.3 L27.65 49.5 Q25.4 45.35 23.55 44.85 25.2 46.0 26.35 50.45 L25.2 51.05 21.8 50.05 21.2 49.9 20.7 49.8 Q15.25 48.65 10.35 50.05 L10.05 50.2 9.45 47.85 9.05 50.75 6.2 52.7 Q4.35 54.1 2.85 55.85 M32.4 59.05 Q31.5 62.55 31.05 66.0 L31.0 66.4 Q30.65 68.95 30.55 71.5 30.35 75.85 30.8 80.2 L33.2 88.5 33.7 90.7 34.15 91.85 34.1 91.85 34.5 93.25 35.0 93.9 4.55 93.9 4.85 93.15 5.3 92.25 5.25 92.25 5.3 92.1 5.35 91.9 5.4 91.9 5.55 91.1 5.7 90.7 5.8 90.1 5.8 90.05 Q6.95 85.45 6.75 79.45 6.45 69.05 3.35 57.55 5.15 55.9 6.2 55.8 L6.3 55.8 Q7.5 55.8 9.5 57.55 11.35 59.15 12.7 59.35 L12.85 59.5 13.15 59.75 Q16.85 60.9 20.75 59.75 L23.75 59.1 Q26.05 58.45 26.8 57.4 L27.15 58.4 Q27.35 59.1 28.5 59.6 L29.75 59.9 29.8 60.05 30.05 59.95 32.4 59.05 M21.45 36.2 L20.75 36.85 24.1 36.9 21.45 36.2" fill="#000000" fill-rule="evenodd" stroke="none"/>
      <path d="M33.95 43.55 Q38.7 46.65 38.05 51.55 36.85 56.2 32.4 59.05 L30.05 59.95 29.75 59.9 28.5 59.6 Q27.35 59.1 27.15 58.4 L26.8 57.4 Q26.05 58.45 23.75 59.1 L20.75 59.75 20.3 59.8 20.1 59.85 Q11.95 60.5 10.2 53.8 10.25 57.0 12.7 59.35 11.35 59.15 9.5 57.55 7.5 55.8 6.3 55.8 L6.2 55.8 Q5.15 55.9 3.35 57.55 L3.3 57.35 3.25 57.15 3.2 57.0 2.85 55.85 Q4.35 54.1 6.2 52.7 L9.05 50.75 10.05 50.2 10.35 50.05 Q15.25 48.65 20.7 49.8 L21.2 49.9 22.45 50.8 24.0 52.45 Q25.05 53.7 25.4 54.95 25.55 55.45 26.45 55.45 27.7 55.45 28.5 54.4 29.65 52.85 30.25 52.45 L32.0 50.7 32.6 48.95 33.25 48.3 Q33.7 44.85 32.45 42.65 L33.95 43.55" fill="#9d9d9d" fill-opacity="0.93333334" fill-rule="evenodd" stroke="none"/>
      <path d="M19.6 38.0 L18.3 37.0 10.45 36.65 18.2 36.2 19.6 38.0 M9.05 50.75 L9.45 47.85 10.05 50.2 9.05 50.75 M25.2 51.05 L26.35 50.45 Q25.2 46.0 23.55 44.85 25.4 45.35 27.65 49.5 L28.2 51.3 27.1 51.65 25.2 51.05 M21.45 36.2 L24.1 36.9 20.75 36.85 21.45 36.2" fill="#1a1a1a" fill-rule="evenodd" stroke="none"/>
      <path d="M21.2 49.9 L21.8 50.05 25.2 51.05 27.1 51.65 28.2 51.3 Q31.0 50.3 32.6 48.95 L32.0 50.7 30.25 52.45 Q29.65 52.85 28.5 54.4 27.7 55.45 26.45 55.45 25.55 55.45 25.4 54.95 25.05 53.7 24.0 52.45 L22.45 50.8 21.2 49.9" fill="#666666" fill-rule="evenodd" stroke="none"/>
      <path d="M29.75 59.9 L30.05 59.95 29.8 60.05 29.75 59.9" fill="#cc0000" fill-rule="evenodd" stroke="none"/>
      <path d="M12.7 59.35 Q10.25 57.0 10.2 53.8 11.95 60.5 20.1 59.85 L20.3 59.8 20.75 59.75 Q16.85 60.9 13.15 59.75 L12.85 59.5 12.7 59.35" fill="#373737" fill-rule="evenodd" stroke="none"/>
      <path d="M17.5 37.0 L18.3 37.0 19.6 38.0 18.2 36.2 16.25 36.3 15.4 35.85 15.15 35.75 14.5 35.4 13.7 35.05 21.4 35.05 21.35 35.15 21.35 35.2 21.2 35.25 21.35 35.4 21.6 36.25 21.45 36.2 20.75 36.85 21.9 36.9 22.25 37.65 Q22.45 37.85 22.2 37.95 L19.9 38.25 17.5 37.0 M0.9 47.7 L0.75 45.05 Q1.0 39.8 8.05 36.4 L8.6 36.5 9.0 36.5 9.4 36.6 10.35 36.9 12.0 38.2 Q14.45 40.35 14.45 42.15 14.45 43.5 13.7 44.75 L12.8 44.25 Q11.6 43.65 11.15 45.65 9.45 45.55 8.85 46.0 L8.25 46.0 Q6.7 46.1 6.65 47.25 L6.35 46.95 5.8 46.8 Q5.3 46.8 5.2 47.25 L5.15 48.0 5.2 48.35 Q2.55 46.45 0.9 47.7 M31.35 41.3 L27.2 38.75 24.7 37.25 24.65 37.15 24.25 36.4 23.8 35.65 28.85 36.9 Q31.8 37.75 33.15 40.95 L32.5 40.95 31.35 41.3 M16.95 38.45 L17.0 38.45 16.9 38.5 16.85 38.4 16.95 38.45 M14.9 42.7 L14.95 42.85 14.85 42.9 14.9 42.55 14.9 42.7 M12.95 45.75 L13.0 45.75 13.0 45.8 12.95 45.75 M23.75 35.6 L23.65 35.85 23.25 35.5 23.75 35.6 M5.95 90.4 L6.2 90.4 6.2 90.55 7.4 90.8 Q6.85 91.4 6.6 92.45 L6.35 93.75 6.3 93.9 4.75 93.9 4.4 93.9 4.1 93.9 3.85 93.85 4.5 92.6 5.3 90.65 Q5.6 90.45 5.95 90.4 M8.05 93.9 L8.05 93.6 8.15 93.15 8.6 92.05 8.95 91.15 10.8 91.75 13.75 92.5 13.05 93.9 8.05 93.9 M14.9 93.9 L15.1 92.7 17.35 93.0 21.8 93.0 20.9 93.45 Q20.55 93.65 20.35 93.9 L14.9 93.9 M22.1 92.9 L22.1 92.85 22.25 92.85 22.1 92.9 M26.5 92.8 L28.15 92.8 29.85 92.2 30.2 92.85 30.55 93.4 30.9 93.9 28.65 93.9 28.05 93.45 Q27.35 93.0 26.5 92.8 M32.6 93.9 L32.4 93.55 31.45 91.65 Q33.0 91.1 33.25 90.7 L33.7 90.35 33.85 90.3 34.0 90.35 34.9 92.45 35.8 93.9 32.6 93.9" fill="#000000" fill-rule="evenodd" stroke="none"/>
      <path d="M16.25 36.3 L18.2 36.2 19.6 38.0 18.3 37.0 17.5 37.0 16.25 36.3 M21.9 36.9 L20.75 36.85 21.45 36.2 21.6 36.25 21.9 36.9" fill="#1a1a1a" fill-rule="evenodd" stroke="none"/>
      <path d="M35.8 43.95 Q39.05 46.15 39.05 51.6 39.05 53.5 36.65 56.15 L32.9 60.45 Q31.7 62.25 31.75 64.9 L31.85 69.45 31.75 69.5 31.85 69.6 30.55 70.45 29.8 70.6 29.3 70.75 28.45 71.0 28.25 71.15 27.85 71.15 20.7 71.75 Q14.75 71.75 10.6 70.65 L9.0 70.15 8.0 70.1 5.75 68.75 Q5.4 68.5 5.3 68.05 L5.05 67.05 5.2 67.05 4.9 65.4 4.3 62.45 2.25 56.0 2.6 56.0 2.6 56.15 3.8 56.15 4.7 55.55 6.35 55.25 7.05 55.4 Q7.65 55.45 8.05 55.05 8.2 54.8 8.45 54.8 L8.6 54.45 8.85 54.1 9.1 53.15 9.65 52.8 9.85 52.4 10.1 52.4 10.85 52.2 11.85 52.4 12.45 52.05 13.35 52.1 Q13.8 52.1 14.25 51.7 L14.45 51.5 14.7 51.7 16.15 52.15 Q17.15 52.15 17.15 51.4 L17.1 51.2 17.3 50.85 17.45 51.05 Q17.2 50.95 17.2 51.25 L17.85 51.8 18.05 52.1 19.3 52.35 19.8 52.05 19.8 52.0 Q20.1 52.4 20.85 52.4 L21.9 51.95 22.05 51.75 23.25 51.75 23.45 51.6 Q23.85 51.65 24.15 52.05 24.5 52.55 25.75 52.55 26.7 52.55 27.7 51.0 L27.6 50.75 Q27.8 50.4 27.95 50.4 L28.35 50.5 29.1 50.6 28.5 50.65 28.0 50.7 28.35 51.05 29.3 51.4 Q30.0 51.4 30.0 51.0 L30.15 50.5 30.7 50.55 Q30.55 50.85 31.05 50.85 L31.9 50.2 32.15 49.5 32.25 49.45 32.35 49.45 32.35 49.6 33.0 49.65 33.6 49.75 Q34.3 49.75 34.35 49.4 L34.3 48.9 34.55 47.9 34.05 46.6 34.45 46.6 Q35.15 46.6 35.2 46.05 L35.1 45.3 36.25 45.05 36.35 44.7 Q36.05 44.1 35.8 44.05 L35.8 43.95 M2.2 55.95 L2.1 55.65 2.2 55.65 2.2 55.95 M17.45 47.95 L17.45 47.9 17.55 47.9 17.45 47.95 M34.5 44.4 L35.0 44.45 34.75 44.55 34.55 44.65 34.5 44.6 34.5 44.4 M34.2 45.8 L34.0 46.0 34.0 46.15 33.85 46.2 33.65 45.9 34.2 45.8 M33.45 45.9 L33.4 46.15 33.65 47.0 33.85 47.9 33.3 46.05 33.25 45.9 33.45 45.9 M31.55 49.2 L31.55 49.25 31.55 49.35 31.45 49.4 31.55 49.2 M30.3 50.1 L30.1 50.2 29.75 50.25 29.9 50.1 30.3 50.1 M31.65 47.8 L31.7 47.7 31.7 47.8 31.65 47.8 M30.4 48.9 L30.4 48.95 30.3 48.95 30.4 48.9 M33.15 58.05 L34.1 57.8 34.15 57.5 Q34.15 56.85 32.65 56.55 31.1 56.2 31.1 57.05 31.1 58.05 33.15 58.05 M23.5 51.05 L23.75 50.85 23.8 50.8 23.95 51.2 23.65 51.15 23.6 51.2 23.5 51.05 M22.5 51.15 L22.2 51.25 22.0 51.15 22.5 51.15 M21.95 51.15 L21.55 51.3 21.3 51.35 21.4 51.3 21.8 50.85 21.85 51.15 21.95 51.15 M20.45 51.45 L20.25 51.45 20.0 51.35 20.45 51.45 M19.85 51.15 L19.75 51.15 19.55 51.0 19.25 51.35 19.1 51.85 18.8 51.75 18.85 51.7 19.6 50.6 19.8 51.1 19.85 51.15 M27.4 58.75 Q29.0 56.9 29.0 55.95 L28.85 55.25 Q28.3 55.35 28.05 56.15 L27.35 57.45 Q27.05 58.1 25.75 58.7 23.25 59.85 18.2 59.85 L16.5 59.5 15.2 59.1 Q15.0 59.1 14.95 59.2 L14.95 59.25 14.9 59.7 Q14.9 61.1 22.9 61.1 25.4 61.1 27.4 58.75 M16.6 51.4 L15.45 51.65 14.8 51.15 14.6 51.05 14.55 50.6 14.5 50.6 14.6 50.45 14.65 50.45 14.8 50.85 Q15.1 51.45 16.0 51.45 L16.6 51.4 M13.65 51.3 L13.2 51.55 12.55 51.7 12.55 51.45 12.55 51.4 13.0 51.45 13.65 51.3 M12.15 51.2 L12.1 51.3 12.1 51.15 12.15 51.2 M11.4 51.7 L11.15 51.75 10.85 51.7 10.85 51.65 11.4 51.7 M10.75 51.65 L10.65 51.65 10.4 51.8 9.9 51.95 9.85 51.95 9.85 51.9 Q10.3 51.85 10.55 51.6 L10.6 51.6 10.75 51.65 M8.6 52.6 L8.65 52.25 Q8.8 51.8 9.2 51.85 L9.2 51.9 9.05 51.9 8.95 51.9 Q8.8 51.9 8.8 52.15 L8.9 52.3 8.9 52.4 8.9 52.45 8.65 52.25 8.6 53.0 8.6 52.7 8.6 52.6 M7.9 54.05 L8.25 53.85 8.2 53.9 8.1 53.95 7.9 54.05 M8.55 53.55 L8.6 53.15 8.6 53.4 8.55 53.6 8.55 53.55 M6.15 54.45 L6.05 54.6 5.95 54.65 5.95 54.55 5.2 54.55 4.8 54.6 6.15 54.45 M5.95 90.4 L5.85 90.05 5.9 89.75 6.05 89.75 6.0 89.55 6.05 89.0 7.35 89.35 7.45 89.25 Q9.75 90.15 14.7 90.8 L20.4 91.25 Q26.65 91.25 30.85 90.0 L32.35 89.6 32.9 89.15 Q33.55 88.95 33.55 89.7 L33.55 89.9 33.6 89.85 33.7 90.2 33.7 90.35 33.25 90.7 Q33.0 91.1 31.45 91.65 L32.4 93.55 32.6 93.9 30.9 93.9 30.55 93.4 30.2 92.85 29.85 92.2 28.15 92.8 26.5 92.8 22.4 92.8 22.25 92.8 22.25 92.75 22.1 92.8 22.1 92.85 22.1 92.9 22.05 93.0 21.8 93.0 17.35 93.0 15.1 92.7 14.9 93.9 13.05 93.9 13.75 92.5 10.8 91.75 8.95 91.15 8.6 92.05 8.15 93.15 8.05 93.6 8.05 93.9 6.3 93.9 6.35 93.75 6.6 92.45 Q6.85 91.4 7.4 90.8 L6.2 90.55 6.2 90.4 5.95 90.4" fill="#a90101" fill-rule="evenodd" stroke="none"/>
      <path d="M13.7 44.75 L14.6 45.3 14.8 45.1 Q15.0 44.85 15.65 44.85 16.75 44.85 17.15 45.7 L17.35 46.35 17.45 46.1 Q18.25 44.7 18.7 44.7 L18.9 44.9 19.1 45.15 Q20.55 43.35 22.2 43.45 23.05 43.5 23.45 43.95 L23.35 44.55 23.1 45.25 22.85 45.75 Q22.85 46.15 23.0 46.35 L23.35 46.0 23.45 46.35 25.75 46.35 26.0 46.3 25.9 45.95 25.85 45.45 24.95 45.45 24.55 44.75 Q24.2 44.35 23.7 44.25 L24.6 44.1 28.4 44.55 Q28.55 43.7 29.3 43.45 29.9 43.3 29.9 42.3 30.6 41.65 31.35 41.3 L32.5 40.95 33.15 40.95 33.3 40.95 Q33.45 40.4 34.35 40.05 35.5 39.65 35.65 41.4 L35.8 43.15 35.8 43.9 35.8 43.95 35.8 44.05 35.55 44.1 35.0 44.45 34.5 44.4 34.55 44.3 34.6 44.05 Q35.15 43.9 35.15 43.45 L35.1 43.2 35.35 43.2 Q35.2 42.8 35.2 42.0 L35.45 42.0 35.6 41.6 35.5 41.1 34.2 41.15 Q34.0 41.25 34.0 41.6 L34.05 41.85 33.85 41.85 33.8 42.15 Q34.45 42.2 34.45 42.65 L34.45 42.95 33.5 43.1 Q33.35 43.2 33.35 43.65 L33.4 43.95 33.2 44.45 33.85 44.9 34.05 44.8 34.3 45.3 34.2 45.8 33.65 45.9 33.45 45.9 33.25 45.9 33.3 46.05 33.85 47.9 33.85 47.95 33.85 48.15 Q33.75 48.55 32.75 48.7 32.45 48.75 32.45 48.9 L31.65 49.0 31.55 49.2 31.45 49.4 31.35 49.6 31.35 49.65 30.3 50.1 29.9 50.1 29.75 50.25 29.1 50.6 28.35 50.5 27.95 50.4 Q27.8 50.4 27.6 50.75 L27.45 50.75 26.95 51.05 26.9 51.45 25.4 51.65 23.95 51.2 23.8 50.8 23.75 50.85 23.5 51.05 22.5 51.15 22.0 51.15 21.95 51.15 21.85 51.15 21.8 50.85 21.4 51.3 21.3 51.35 20.45 51.45 20.0 51.35 20.0 51.25 19.85 51.15 19.8 51.1 19.6 50.6 18.85 51.7 18.8 51.75 17.8 51.2 17.45 51.05 17.3 50.85 17.1 51.2 16.95 51.15 16.6 51.4 16.0 51.45 Q15.1 51.45 14.8 50.85 L14.65 50.45 14.6 50.45 14.5 50.6 Q14.3 50.5 13.85 51.1 L13.65 51.3 13.0 51.45 12.55 51.4 Q12.55 50.85 12.15 51.2 L12.1 51.15 12.1 51.3 11.4 51.7 10.85 51.65 10.75 51.65 10.6 51.6 10.55 51.6 Q10.3 51.85 9.85 51.9 L9.5 51.0 9.5 50.3 9.45 49.7 8.8 49.2 8.75 50.2 8.75 50.3 8.2 50.15 8.15 50.1 8.1 50.15 8.0 50.15 8.0 50.6 8.05 50.9 7.65 50.7 5.3 50.1 5.3 50.85 6.85 51.5 7.25 51.65 7.55 52.25 8.35 53.6 8.4 53.6 8.3 53.8 8.25 53.85 7.9 54.05 Q7.6 54.25 7.4 54.4 L7.3 54.35 6.15 54.4 6.15 54.45 4.8 54.6 Q4.15 54.65 3.8 55.05 L3.55 55.35 3.45 55.5 2.2 55.55 2.2 55.65 2.1 55.65 0.85 55.6 0.35 55.8 Q-0.05 55.8 -0.4 54.4 L-0.65 52.95 -0.6 52.3 -0.8 51.15 -0.75 50.55 -0.35 51.05 -0.35 51.15 -0.3 51.35 -0.25 51.3 0.25 51.9 0.25 52.05 0.25 52.25 0.2 52.25 0.2 52.8 0.1 52.95 -0.2 52.85 -0.2 53.1 0.2 53.15 0.35 53.65 Q0.6 54.0 1.3 54.2 L1.25 54.2 1.25 54.3 1.5 54.25 2.6 54.3 Q2.95 54.3 2.65 54.15 L2.75 53.85 1.8 53.25 0.8 52.75 0.75 52.6 0.7 51.5 0.6 50.15 0.35 50.3 0.05 50.5 -0.15 50.1 -0.5 49.55 0.55 47.95 0.9 47.7 Q2.55 46.45 5.2 48.35 L5.15 48.0 5.2 47.25 Q5.3 46.8 5.8 46.8 L6.35 46.95 6.65 47.25 Q6.7 46.1 8.25 46.0 L8.85 46.0 Q9.45 45.55 11.15 45.65 11.6 43.65 12.8 44.25 L13.7 44.75 M7.0 47.25 L6.85 47.25 6.8 47.65 6.8 47.75 6.65 47.45 6.5 47.45 6.35 49.2 Q6.35 49.65 6.5 49.8 L6.55 49.8 Q6.9 49.15 7.2 49.05 L9.35 48.6 9.35 48.05 9.25 47.6 7.7 47.6 7.3 48.0 Q7.3 47.45 7.0 47.25 M1.4 49.35 L1.25 49.35 1.25 49.8 Q1.25 50.6 2.2 50.85 L2.35 50.6 Q2.55 50.25 2.1 49.9 L1.4 49.35 M1.9 48.6 Q1.9 49.1 2.6 49.05 3.5 49.05 3.95 49.95 4.45 49.55 4.45 49.15 4.45 48.6 4.05 48.4 L2.0 48.15 1.9 48.6 M12.95 45.75 L13.0 45.8 13.0 45.75 12.95 45.75 M15.95 48.15 L15.95 48.9 17.3 49.65 Q16.95 50.0 17.05 50.55 L17.65 50.45 17.8 49.9 17.45 48.85 Q16.95 48.0 15.95 48.15 M15.0 47.95 Q14.15 47.85 14.15 48.35 L14.2 48.8 15.55 48.95 15.7 49.2 15.8 49.05 15.85 48.6 Q15.85 48.1 15.0 47.95 M10.7 48.95 L10.7 49.4 11.1 49.95 12.55 50.3 Q12.95 50.3 12.65 50.25 L12.7 49.85 12.45 49.2 10.7 48.95 M10.45 47.75 L10.3 46.5 10.1 47.75 Q10.1 48.65 10.25 49.05 L10.3 49.05 10.45 47.75 M11.0 45.9 L10.85 45.9 10.85 46.8 10.85 47.35 Q10.95 47.9 11.6 47.9 L11.85 47.85 12.4 47.85 Q12.75 47.3 14.6 47.3 L14.6 46.9 14.5 46.4 12.95 46.75 Q12.15 47.0 11.85 47.2 L11.65 46.8 11.0 45.9 M15.1 45.6 L14.95 45.3 14.8 45.3 14.75 46.0 14.95 46.8 15.1 46.55 15.1 45.6 M17.45 47.95 L17.55 47.9 17.45 47.9 17.45 47.95 M29.45 48.45 L29.3 48.0 Q28.85 48.2 28.85 49.05 L29.05 49.8 29.2 49.65 29.45 48.45 M29.6 46.8 L29.6 47.3 Q29.6 47.7 30.15 48.0 L30.35 48.15 30.35 48.25 Q30.35 48.6 30.5 48.8 L30.6 48.95 30.5 49.1 30.35 49.55 30.4 49.95 30.65 49.95 30.85 49.5 30.95 49.5 31.1 48.8 30.95 48.25 30.9 47.65 29.75 46.8 29.6 46.8 M26.15 48.35 Q26.15 48.95 26.45 49.3 L27.05 49.95 27.2 49.8 27.2 48.95 26.8 48.45 26.15 48.35 M26.35 47.6 L26.45 47.7 Q27.95 47.8 28.05 48.05 L28.15 48.65 28.25 48.0 28.15 47.3 Q27.75 46.7 26.35 46.8 L26.35 47.6 M26.6 45.3 L26.5 45.7 Q26.5 46.05 26.8 46.15 L29.6 46.65 29.9 46.5 Q29.8 43.95 26.6 45.3 M24.5 49.05 L24.35 48.6 Q23.6 48.6 23.6 49.8 L23.8 50.55 23.95 50.4 24.5 49.05 M21.5 48.9 L22.2 48.15 22.85 47.25 22.75 46.8 Q21.1 47.75 21.1 48.9 L21.15 49.5 21.7 50.25 21.95 49.8 21.5 48.9 M23.6 45.55 L23.55 45.6 23.65 44.95 24.2 45.45 23.6 45.55 M31.75 43.1 L31.7 42.6 31.0 43.35 30.95 44.1 Q30.95 44.85 31.15 45.0 L31.3 44.85 31.75 43.1 M32.3 41.6 L32.3 42.45 33.2 42.5 33.35 42.1 33.25 41.6 32.3 41.6 M34.5 44.6 L34.4 44.55 34.5 44.4 34.5 44.6 M33.2 46.4 L33.2 46.3 33.2 45.65 Q33.2 44.75 32.9 44.3 L32.75 44.3 32.75 44.85 32.9 45.95 31.55 45.75 31.45 46.2 31.55 46.65 32.0 46.65 33.2 47.55 33.35 47.4 Q33.45 46.8 33.2 46.4 M31.65 47.8 L31.7 47.8 31.7 47.7 31.65 47.8 M30.4 48.9 L30.3 48.95 30.4 48.95 30.4 48.9 M14.0 50.75 L14.15 50.3 13.9 49.7 13.25 49.2 Q13.0 49.3 13.0 49.7 13.0 50.1 13.25 50.25 L14.0 50.75 M8.6 52.6 L8.5 51.75 8.3 51.5 8.3 51.45 8.75 51.75 8.9 51.6 8.9 51.45 9.2 51.8 9.2 51.85 Q8.8 51.8 8.65 52.25 L8.6 52.6 M4.75 52.3 L4.7 51.8 Q2.95 52.3 2.95 53.85 L3.0 54.35 1.0 54.35 0.95 54.9 1.0 55.5 2.95 55.5 3.2 55.05 3.2 54.65 3.9 53.65 4.45 53.7 Q4.85 53.7 4.55 53.6 L4.6 53.25 4.6 52.95 4.75 52.3 M1.5 51.55 L1.3 50.55 1.15 50.75 Q1.15 51.15 1.5 51.55 M21.8 93.0 L22.05 93.0 22.1 92.9 22.25 92.85 22.4 92.8 26.5 92.8 Q27.35 93.0 28.05 93.45 L28.65 93.9 20.35 93.9 Q20.55 93.65 20.9 93.45 L21.8 93.0" fill="#ffffff" fill-rule="evenodd" stroke="none"/>
      <path d="M2.25 56.0 L2.2 56.0 2.2 55.95 2.2 55.65 2.2 55.55 3.45 55.5 3.55 55.35 3.8 55.05 Q4.15 54.65 4.8 54.6 L5.2 54.55 5.95 54.55 5.95 54.65 6.05 54.6 6.15 54.45 6.15 54.4 7.3 54.35 7.4 54.4 Q7.6 54.25 7.9 54.05 L8.1 53.95 8.2 53.9 8.25 53.85 8.3 53.8 8.4 53.6 8.5 53.6 8.55 53.55 8.55 53.6 8.6 53.4 8.6 53.15 8.65 53.45 9.1 53.15 8.85 54.1 8.6 54.45 8.45 54.8 Q8.2 54.8 8.05 55.05 7.65 55.45 7.05 55.4 L6.35 55.25 4.7 55.55 3.8 56.15 2.6 56.15 2.6 56.0 2.25 56.0 M35.0 44.45 L35.55 44.1 35.8 44.05 Q36.05 44.1 36.35 44.7 L36.25 45.05 35.1 45.3 35.2 46.05 Q35.15 46.6 34.45 46.6 L34.05 46.6 34.55 47.9 34.3 48.9 34.35 49.4 Q34.3 49.75 33.6 49.75 L33.0 49.65 32.35 49.6 32.35 49.45 32.25 49.45 32.15 49.5 31.9 50.2 31.05 50.85 Q30.55 50.85 30.7 50.55 L30.15 50.5 30.0 51.0 Q30.0 51.4 29.3 51.4 L28.35 51.05 28.0 50.7 28.5 50.65 29.1 50.6 29.75 50.25 30.1 50.2 30.3 50.1 31.35 49.65 31.35 49.6 31.45 49.4 31.55 49.35 31.55 49.25 31.55 49.2 31.65 49.0 32.45 48.9 Q32.45 48.75 32.75 48.7 33.75 48.55 33.85 48.15 L33.85 47.95 33.85 47.9 33.65 47.0 33.4 46.15 33.45 45.9 33.65 45.9 33.85 46.2 34.0 46.15 34.0 46.0 34.2 45.8 34.3 45.3 34.05 44.8 34.4 44.55 34.5 44.6 34.55 44.65 34.75 44.55 35.0 44.45 M33.15 58.05 Q31.1 58.05 31.1 57.05 31.1 56.2 32.65 56.55 34.15 56.85 34.15 57.5 L34.1 57.8 33.15 58.05 M27.6 50.75 L27.7 51.0 Q26.7 52.55 25.75 52.55 24.5 52.55 24.15 52.05 23.85 51.65 23.45 51.6 L23.25 51.75 22.05 51.75 21.9 51.95 20.85 52.4 Q20.1 52.4 19.8 52.0 L19.8 52.05 19.3 52.35 18.05 52.1 17.85 51.8 17.2 51.25 Q17.2 50.95 17.45 51.05 L17.8 51.2 18.8 51.75 19.1 51.85 19.25 51.35 19.55 51.0 19.75 51.15 19.85 51.15 20.0 51.25 20.0 51.35 20.25 51.45 20.45 51.45 21.3 51.35 21.55 51.3 21.95 51.15 22.0 51.15 22.2 51.25 22.5 51.15 23.5 51.05 23.6 51.2 23.65 51.15 23.95 51.2 25.4 51.65 26.9 51.45 26.95 51.05 27.45 50.75 27.6 50.75 M17.1 51.2 L17.15 51.4 Q17.15 52.15 16.15 52.15 L14.7 51.7 14.45 51.5 14.25 51.7 Q13.8 52.1 13.35 52.1 L12.45 52.05 11.85 52.4 10.85 52.2 10.1 52.4 9.85 52.4 9.85 52.05 9.85 51.95 9.9 51.95 10.4 51.8 10.65 51.65 10.75 51.65 10.85 51.65 10.85 51.7 11.15 51.75 11.4 51.7 12.1 51.3 12.15 51.2 Q12.55 50.85 12.55 51.4 L12.55 51.45 12.55 51.7 13.2 51.55 13.65 51.3 13.85 51.1 Q14.3 50.5 14.5 50.6 L14.55 50.6 14.6 51.05 14.8 51.15 15.45 51.65 16.6 51.4 16.95 51.15 17.1 51.2 M27.4 58.75 Q25.4 61.1 22.9 61.1 14.9 61.1 14.9 59.7 L14.95 59.25 14.95 59.2 Q15.0 59.1 15.2 59.1 L16.5 59.5 18.2 59.85 Q23.25 59.85 25.75 58.7 27.05 58.1 27.35 57.45 L28.05 56.15 Q28.3 55.35 28.85 55.25 L29.0 55.95 Q29.0 56.9 27.4 58.75 M9.2 51.9 L8.9 52.4 8.9 52.3 8.8 52.15 Q8.8 51.9 8.95 51.9 L9.05 51.9 9.2 51.9 M8.9 52.45 L8.6 53.0 8.65 52.25 8.9 52.45" fill="#6d0101" fill-rule="evenodd" stroke="none"/>
      <path d="M23.45 43.95 L23.6 43.7 23.65 44.25 23.7 44.25 Q24.2 44.35 24.55 44.75 L24.95 45.45 25.85 45.45 25.9 45.95 26.0 46.3 25.75 46.35 23.45 46.35 23.35 46.0 23.0 46.35 Q22.85 46.15 22.85 45.75 L23.1 45.25 23.35 44.55 23.45 43.95 M-0.75 50.55 L-0.8 50.2 -0.7 49.5 -0.55 49.5 -0.5 49.55 -0.15 50.1 0.05 50.5 0.05 50.6 -0.1 51.0 -0.1 51.05 -0.35 51.05 -0.75 50.55 M1.9 48.6 L2.0 48.15 4.05 48.4 Q4.45 48.6 4.45 49.15 4.45 49.55 3.95 49.95 3.5 49.05 2.6 49.05 1.9 49.1 1.9 48.6 M1.4 49.35 L2.1 49.9 Q2.55 50.25 2.35 50.6 L2.2 50.85 Q1.25 50.6 1.25 49.8 L1.25 49.35 1.4 49.35 M7.0 47.25 Q7.3 47.45 7.3 48.0 L7.7 47.6 9.25 47.6 9.35 48.05 9.35 48.6 7.2 49.05 Q6.9 49.15 6.55 49.8 L6.5 49.8 Q6.35 49.65 6.35 49.2 L6.5 47.45 6.65 47.45 6.8 47.75 6.8 47.65 6.85 47.25 7.0 47.25 M15.1 45.6 L15.1 46.55 14.95 46.8 14.75 46.0 14.8 45.3 14.95 45.3 15.1 45.6 M11.0 45.9 L11.65 46.8 11.85 47.2 Q12.15 47.0 12.95 46.75 L14.5 46.4 14.6 46.9 14.6 47.3 Q12.75 47.3 12.4 47.85 L11.85 47.85 11.6 47.9 Q10.95 47.9 10.85 47.35 L10.85 46.8 10.85 45.9 11.0 45.9 M10.45 47.75 L10.3 49.05 10.25 49.05 Q10.1 48.65 10.1 47.75 L10.3 46.5 10.45 47.75 M10.7 48.95 L12.45 49.2 12.7 49.85 12.65 50.25 Q12.95 50.3 12.55 50.3 L11.1 49.95 10.7 49.4 10.7 48.95 M15.0 47.95 Q15.85 48.1 15.85 48.6 L15.8 49.05 15.7 49.2 15.55 48.95 14.2 48.8 14.15 48.35 Q14.15 47.85 15.0 47.95 M15.95 48.15 Q16.95 48.0 17.45 48.85 L17.8 49.9 17.65 50.45 17.05 50.55 Q16.95 50.0 17.3 49.65 L15.95 48.9 15.95 48.15 M23.6 45.55 L24.2 45.45 23.65 44.95 23.55 45.6 23.6 45.55 M21.5 48.9 L21.95 49.8 21.7 50.25 21.15 49.5 21.1 48.9 Q21.1 47.75 22.75 46.8 L22.85 47.25 22.2 48.15 21.5 48.9 M24.5 49.05 L23.95 50.4 23.8 50.55 23.6 49.8 Q23.6 48.6 24.35 48.6 L24.5 49.05 M26.6 45.3 Q29.8 43.95 29.9 46.5 L29.6 46.65 26.8 46.15 Q26.5 46.05 26.5 45.7 L26.6 45.3 M26.35 47.6 L26.35 46.8 Q27.75 46.7 28.15 47.3 L28.25 48.0 28.15 48.65 28.05 48.05 Q27.95 47.8 26.45 47.7 L26.35 47.6 M26.15 48.35 L26.8 48.45 27.2 48.95 27.2 49.8 27.05 49.95 26.45 49.3 Q26.15 48.95 26.15 48.35 M29.6 46.8 L29.75 46.8 30.9 47.65 30.95 48.25 31.1 48.8 30.95 49.5 30.85 49.5 30.65 49.95 30.4 49.95 30.35 49.55 30.5 49.1 30.6 48.95 30.5 48.8 Q30.35 48.6 30.35 48.25 L30.35 48.15 30.15 48.0 Q29.6 47.7 29.6 47.3 L29.6 46.8 M29.45 48.45 L29.2 49.65 29.05 49.8 28.85 49.05 Q28.85 48.2 29.3 48.0 L29.45 48.45 M34.05 41.85 L34.0 41.6 Q34.0 41.25 34.2 41.15 L35.5 41.1 35.6 41.6 35.45 42.0 35.2 42.0 34.1 42.0 34.05 41.85 M35.1 43.2 L35.15 43.45 Q35.15 43.9 34.6 44.05 L34.55 44.3 34.5 44.4 34.4 44.55 34.05 44.8 33.85 44.9 33.2 44.45 33.4 43.95 33.35 43.65 Q33.35 43.2 33.5 43.1 L34.45 42.95 35.0 42.9 35.1 43.2 M31.75 43.1 L31.3 44.85 31.15 45.0 Q30.95 44.85 30.95 44.1 L31.0 43.35 31.7 42.6 31.75 43.1 M32.3 41.6 L33.25 41.6 33.35 42.1 33.2 42.5 32.3 42.45 32.3 41.6 M33.2 46.4 Q33.45 46.8 33.35 47.4 L33.2 47.55 32.0 46.65 31.55 46.65 31.45 46.2 31.55 45.75 32.9 45.95 32.75 44.85 32.75 44.3 32.9 44.3 Q33.2 44.75 33.2 45.65 L33.2 46.3 33.2 46.4 M9.85 52.4 L9.65 52.8 9.1 53.15 8.65 53.45 8.6 53.15 8.55 53.55 8.5 53.6 8.4 53.6 8.35 53.6 7.55 52.25 7.25 51.65 6.85 51.5 5.3 50.85 5.3 50.1 7.65 50.7 8.05 50.9 8.0 50.6 8.0 50.15 8.1 50.15 8.15 50.1 8.2 50.15 8.75 50.3 8.75 50.2 8.8 49.2 9.45 49.7 9.5 50.3 9.5 51.0 9.85 51.9 9.85 51.95 9.85 52.05 9.85 52.4 M14.0 50.75 L13.25 50.25 Q13.0 50.1 13.0 49.7 13.0 49.3 13.25 49.2 L13.9 49.7 14.15 50.3 14.0 50.75 M9.2 51.85 L9.2 51.8 8.9 51.45 8.9 51.6 8.75 51.75 8.3 51.45 8.3 51.5 8.5 51.75 8.6 52.6 8.6 52.7 8.6 53.0 8.9 52.45 8.9 52.4 9.2 51.9 9.2 51.85 M4.75 52.3 L4.6 52.95 4.6 53.25 4.55 53.6 Q4.85 53.7 4.45 53.7 L3.9 53.65 3.2 54.65 3.2 55.05 2.95 55.5 1.0 55.5 0.95 54.9 1.0 54.35 3.0 54.35 2.95 53.85 Q2.95 52.3 4.7 51.8 L4.75 52.3 M0.25 52.25 L0.35 52.25 0.8 52.75 1.8 53.25 2.75 53.85 2.65 54.15 Q2.95 54.3 2.6 54.3 L1.5 54.25 1.3 54.2 Q0.6 54.0 0.35 53.65 L0.2 53.15 0.2 52.85 0.2 52.8 0.2 52.25 0.25 52.25" fill="#d0d0d0" fill-rule="evenodd" stroke="none"/>
    </g>
  </defs>
</svg>
