<?xml version="1.0" encoding="UTF-8" standalone="no"?>
<svg xmlns:xlink="http://www.w3.org/1999/xlink" height="12.9px" width="48.0px" xmlns="http://www.w3.org/2000/svg">
  <g transform="matrix(1.0, 0.0, 0.0, 1.0, 0.0, 0.05)">
    <use height="12.9" transform="matrix(1.0, 0.0, 0.0, 1.0, 0.0, -0.05)" width="48.0" xlink:href="#shape0"/>
  </g>
  <defs>
    <g id="shape0" transform="matrix(1.0, 0.0, 0.0, 1.0, 0.0, 0.05)">
      <path d="M43.55 4.0 L43.7 4.05 44.05 3.9 45.7 3.5 Q48.0 4.7 48.0 6.0 48.0 9.75 45.35 11.95 L43.9 11.75 41.3 12.4 22.45 12.4 15.45 11.8 14.1 12.0 13.3 11.9 Q7.85 11.05 3.0 9.65 0.85 9.4 0.1 7.15 L0.05 5.4 Q0.55 4.15 1.6 3.6 L1.85 3.2 Q2.8 1.85 4.7 0.9 7.55 0.4 10.0 1.95 15.9 4.5 20.75 4.9 L29.0 5.4 39.8 4.75 42.55 4.35 43.55 4.0" fill="#000000" fill-rule="evenodd" stroke="none"/>
      <path d="M45.35 11.95 L45.05 12.2 42.4 12.85 22.6 12.85 14.1 12.0 15.45 11.8 22.45 12.4 41.3 12.4 43.9 11.75 45.35 11.95 M0.05 5.4 Q0.15 4.55 0.5 3.65 1.4 1.65 4.0 0.25 7.0 -0.3 10.0 0.25 L19.15 3.15 Q24.3 4.3 29.4 4.1 L40.8 3.35 43.55 4.0 42.55 4.35 39.8 4.75 29.0 5.4 20.75 4.9 Q15.9 4.5 10.0 1.95 7.55 0.4 4.7 0.9 2.8 1.85 1.85 3.2 L1.6 3.6 Q0.55 4.15 0.05 5.4" fill="#1a1a1a" fill-rule="evenodd" stroke="none"/>
    </g>
  </defs>
</svg>
