<?xml version="1.0" encoding="UTF-8" standalone="no"?>
<svg xmlns:xlink="http://www.w3.org/1999/xlink" height="47.4px" width="301.0px" xmlns="http://www.w3.org/2000/svg">
  <g transform="matrix(1.0, 0.0, 0.0, 1.0, 137.0, 23.8)">
    <use height="16.1" transform="matrix(1.0, 0.0, 0.0, 1.0, -83.05, -9.5)" width="89.7" xlink:href="#text0"/>
    <use height="41.15" transform="matrix(1.0, 0.0, 0.0, 1.0, -137.0, -23.8)" width="153.65" xlink:href="#sprite0"/>
  </g>
  <defs>
    <g id="text0" transform="matrix(1.0, 0.0, 0.0, 1.0, -0.85, -3.45)">
      <g transform="matrix(1.0, 0.0, 0.0, 1.0, 0.0, 0.0)">
        <use fill="#000000" height="16.1" transform="matrix(0.0176, 0.0, 0.0, 0.0176, 0.0, 18.0)" width="89.7" xlink:href="#font_Kozuka_Gothic_Pro_H_M0"/>
        <use fill="#000000" height="16.1" transform="matrix(0.0176, 0.0, 0.0, 0.0176, 15.75, 18.0)" width="89.7" xlink:href="#font_Kozuka_Gothic_Pro_H_20"/>
        <use fill="#000000" height="16.1" transform="matrix(0.0176, 0.0, 0.0, 0.0176, 26.2, 18.0)" width="89.7" xlink:href="#font_Kozuka_Gothic_Pro_H_10"/>
      </g>
      <g transform="matrix(1.0, 0.0, 0.0, 1.0, 0.0, 0.0)">
        <use fill="#cc0000" height="16.1" transform="matrix(0.0176, 0.0, 0.0, 0.0176, 40.4, 18.0)" width="89.7" xlink:href="#font_Kozuka_Gothic_Pro_H_-0"/>
        <use fill="#cc0000" height="16.1" transform="matrix(0.0176, 0.0, 0.0, 0.0176, 50.2, 18.0)" width="89.7" xlink:href="#font_Kozuka_Gothic_Pro_H_s0"/>
        <use fill="#cc0000" height="16.1" transform="matrix(0.0176, 0.0, 0.0, 0.0176, 58.3, 18.0)" width="89.7" xlink:href="#font_Kozuka_Gothic_Pro_H_t0"/>
        <use fill="#cc0000" height="16.1" transform="matrix(0.0176, 0.0, 0.0, 0.0176, 65.55, 18.0)" width="89.7" xlink:href="#font_Kozuka_Gothic_Pro_H_a0"/>
        <use fill="#cc0000" height="16.1" transform="matrix(0.0176, 0.0, 0.0, 0.0176, 75.7, 18.0)" width="89.7" xlink:href="#font_Kozuka_Gothic_Pro_H_t0"/>
        <use fill="#cc0000" height="16.1" transform="matrix(0.0176, 0.0, 0.0, 0.0176, 82.95, 18.0)" width="89.7" xlink:href="#font_Kozuka_Gothic_Pro_H_s0"/>
      </g>
    </g>
    <g id="font_Kozuka_Gothic_Pro_H_M0">
      <path d="M798.5 -791.5 L843.5 0.0 673.5 0.0 662.5 -282.5 Q659.0 -346.5 657.0 -422.0 654.5 -497.5 655.0 -576.5 L652.0 -576.5 Q641.5 -528.5 629.5 -479.0 617.5 -429.0 605.5 -382.5 593.5 -336.5 582.5 -298.0 L504.5 -14.5 368.5 -14.5 298.0 -296.0 Q288.0 -334.0 277.5 -381.0 267.5 -427.5 257.5 -477.5 247.5 -527.5 239.5 -576.5 L236.5 -576.5 Q234.0 -501.5 230.5 -424.0 227.5 -346.5 224.0 -281.5 L211.0 0.0 49.0 0.0 103.5 -791.5 323.5 -791.5 387.0 -535.5 Q404.0 -464.5 420.0 -393.5 435.5 -322.0 447.5 -252.0 L451.5 -252.0 Q464.0 -321.0 480.0 -394.0 496.0 -467.0 514.0 -536.5 L581.5 -791.5 798.5 -791.5" fill-rule="evenodd" stroke="none"/>
    </g>
    <g id="font_Kozuka_Gothic_Pro_H_20">
      <path d="M536.5 -150.5 L536.5 0.0 40.0 0.0 40.0 -112.5 130.0 -210.0 Q197.5 -279.5 245.5 -335.5 293.5 -392.0 319.0 -440.5 345.0 -489.0 345.0 -535.5 345.0 -581.5 318.0 -612.0 290.5 -643.0 234.5 -644.0 195.0 -643.0 158.5 -627.5 122.5 -612.0 95.0 -592.0 L48.0 -723.0 Q85.0 -750.0 144.0 -769.0 202.5 -788.5 270.5 -789.5 357.5 -788.5 414.0 -757.0 470.0 -725.0 497.0 -671.5 524.0 -617.5 524.0 -552.0 523.0 -484.0 497.0 -425.0 471.0 -366.0 429.0 -314.0 387.0 -262.0 339.0 -215.0 L273.5 -152.5 273.5 -150.5 536.5 -150.5" fill-rule="evenodd" stroke="none"/>
    </g>
    <g id="font_Kozuka_Gothic_Pro_H_10">
      <path d="M423.0 0.0 L247.0 0.0 247.0 -618.5 245.0 -618.5 111.0 -550.0 71.0 -680.0 270.5 -778.0 423.0 -778.0 423.0 0.0" fill-rule="evenodd" stroke="none"/>
    </g>
    <g id="font_Kozuka_Gothic_Pro_H_-0">
      <path d="M35.0 -255.0 L35.0 -378.0 310.5 -378.0 310.5 -255.0 35.0 -255.0" fill-rule="evenodd" stroke="none"/>
    </g>
    <g id="font_Kozuka_Gothic_Pro_H_s0">
      <path d="M408.5 -557.5 L377.5 -431.5 Q359.0 -442.0 330.5 -450.5 302.5 -459.5 271.5 -460.0 241.5 -459.5 226.0 -448.0 211.0 -436.5 211.0 -417.0 210.0 -400.0 227.5 -386.0 245.0 -371.5 291.5 -352.5 366.0 -320.5 398.5 -276.5 431.0 -232.5 431.0 -177.0 430.0 -87.0 368.0 -38.5 305.5 10.0 195.5 10.5 146.5 10.0 102.5 0.0 58.5 -10.5 29.5 -27.5 L60.5 -156.5 Q75.0 -147.5 97.5 -139.0 120.5 -130.0 145.5 -124.5 171.0 -118.5 194.5 -118.5 228.5 -118.5 244.5 -129.5 261.0 -140.5 261.0 -161.5 262.0 -181.5 245.5 -196.0 229.5 -210.0 186.5 -227.0 131.5 -250.5 100.0 -278.5 68.0 -307.0 55.0 -337.0 41.5 -367.5 42.0 -397.5 42.5 -452.5 69.5 -495.0 96.5 -538.0 146.0 -562.5 195.0 -587.5 263.0 -588.0 308.0 -587.5 345.0 -579.0 382.0 -570.0 408.5 -557.5" fill-rule="evenodd" stroke="none"/>
    </g>
    <g id="font_Kozuka_Gothic_Pro_H_t0">
      <path d="M88.0 -576.5 L88.0 -682.0 266.0 -732.0 266.0 -576.5 386.0 -576.5 386.0 -446.5 266.0 -446.5 266.0 -229.0 Q266.0 -179.0 282.0 -157.5 298.0 -136.5 330.5 -137.0 345.5 -137.0 356.0 -138.0 366.5 -139.0 377.5 -142.0 L378.5 -3.0 Q361.5 2.5 333.0 6.5 304.5 10.5 268.0 10.5 202.5 9.5 165.5 -14.0 128.0 -38.0 111.5 -73.5 95.0 -109.0 91.5 -145.0 87.5 -181.0 88.0 -206.5 L88.0 -446.5 17.5 -446.5 17.5 -576.5 88.0 -576.5" fill-rule="evenodd" stroke="none"/>
    </g>
    <g id="font_Kozuka_Gothic_Pro_H_a0">
      <path d="M341.0 -197.5 L341.0 -272.5 Q303.0 -273.0 272.0 -264.5 240.5 -256.0 221.5 -237.0 203.0 -217.5 202.5 -184.0 203.5 -149.0 221.0 -132.5 238.5 -116.5 263.0 -116.5 282.0 -116.5 299.5 -125.5 317.5 -134.5 329.0 -152.5 340.5 -170.5 341.0 -197.5 M516.0 -339.0 L516.0 -136.5 Q516.0 -97.5 518.0 -62.0 520.0 -26.5 525.0 0.0 L363.5 0.0 353.5 -55.0 350.0 -55.0 Q323.5 -20.5 285.0 -4.5 246.5 11.5 201.5 11.5 149.0 11.0 110.0 -13.0 71.5 -36.5 50.0 -76.5 29.0 -116.5 28.5 -166.0 29.5 -242.0 70.0 -290.5 111.0 -338.5 180.0 -361.5 249.0 -384.5 335.0 -385.0 336.0 -418.5 316.0 -439.5 296.0 -460.5 242.5 -461.0 201.5 -460.5 165.0 -450.0 128.0 -439.5 100.0 -422.0 L67.5 -539.0 Q95.5 -555.5 149.5 -571.0 203.5 -587.0 278.5 -588.0 373.0 -587.0 424.5 -552.0 476.5 -517.0 496.5 -460.5 517.0 -404.0 516.0 -339.0" fill-rule="evenodd" stroke="none"/>
    </g>
    <g id="sprite0" transform="matrix(1.0, 0.0, 0.0, 1.0, 32.2, 20.5)">
      <use height="41.15" transform="matrix(1.0, 0.0, 0.0, 1.0, -32.2, -20.5)" width="153.65" xlink:href="#button0"/>
    </g>
    <g id="button0" transform="matrix(1.0, 0.0, 0.0, 1.0, 38.0, 21.0)">
      <use height="14.55" transform="matrix(1.0, 0.0, 0.0, 1.0, -3.65, -7.3)" width="7.25" xlink:href="#shape0"/>
      <use height="24.25" transform="matrix(1.0, 0.0, 0.0, 1.0, -38.0, -12.4)" width="41.25" xlink:href="#sprite1"/>
    </g>
    <g id="shape0" transform="matrix(1.0, 0.0, 0.0, 1.0, 3.65, 7.3)">
      <path d="M3.6 -7.3 L3.6 7.25 -3.65 0.0 3.6 -7.3" fill="#000000" fill-rule="evenodd" stroke="none"/>
    </g>
    <g id="sprite1" transform="matrix(1.0, 0.0, 0.0, 1.0, 32.0, 11.9)">
      <use height="23.75" transform="matrix(1.0, 0.0, 0.0, 1.0, -9.25, -11.9)" width="18.5" xlink:href="#sprite2"/>
    </g>
    <g id="sprite2" transform="matrix(1.0, 0.0, 0.0, 1.0, 9.25, 11.9)">
      <use height="23.75" transform="matrix(1.0, 0.0, 0.0, 1.0, -9.25, -11.9)" width="18.5" xlink:href="#shape1"/>
    </g>
    <g id="shape1" transform="matrix(1.0, 0.0, 0.0, 1.0, 9.25, 11.9)">
      <path d="M2.25 -11.9 L9.25 -11.9 -3.35 0.75 7.75 11.85 3.0 11.85 -9.25 -0.4 2.25 -11.9" fill="#000000" fill-opacity="0.39607844" fill-rule="evenodd" stroke="none"/>
    </g>
  </defs>
</svg>
