<?xml version="1.0" encoding="UTF-8" standalone="no"?>
<svg xmlns:xlink="http://www.w3.org/1999/xlink" height="4355.6px" width="2834.2px" xmlns="http://www.w3.org/2000/svg">
  <g transform="matrix(1.0, 0.0, 0.0, 1.0, 1335.45, 1959.7)">
    <use height="157.65" transform="matrix(1.0, 0.0, 0.0, 1.0, -18.25, 33.9)" width="49.45" xlink:href="#shape0"/>
    <use height="47.0" transform="matrix(0.9773, 0.0, 0.0, 0.9773, 0.3, -2.25)" width="47.0" xlink:href="#sprite0"/>
    <use height="10.45" transform="matrix(0.5762, 0.0, 0.0, 1.0, 31.9414, 16.65)" width="26.6" xlink:href="#sprite1"/>
  </g>
  <defs>
    <g id="shape0" transform="matrix(1.0, 0.0, 0.0, 1.0, 18.25, -33.9)">
      <path d="M18.0 41.25 L10.85 102.75 23.85 142.45 11.75 180.2" fill="none" stroke="#000000" stroke-linecap="round" stroke-linejoin="round" stroke-width="14.75"/>
      <path d="M18.0 41.25 L1.85 143.55 -10.9 184.2" fill="none" stroke="#000000" stroke-linecap="round" stroke-linejoin="round" stroke-width="14.75"/>
      <path d="M17.1 49.05 L17.55 84.6 21.85 117.2" fill="none" stroke="#000000" stroke-linecap="round" stroke-linejoin="round" stroke-width="14.75"/>
      <path d="M17.1 49.05 L16.15 84.6 20.15 117.2" fill="none" stroke="#000000" stroke-linecap="round" stroke-linejoin="round" stroke-width="14.75"/>
    </g>
    <g id="sprite0" transform="matrix(1.0, 0.0, 0.0, 1.0, 0.0, 0.0)">
      <use height="47.0" transform="matrix(1.0, 0.0, 0.0, 1.0, 0.0, 0.0)" width="47.0" xlink:href="#shape1"/>
    </g>
    <g id="shape1" transform="matrix(1.0, 0.0, 0.0, 1.0, 0.0, 0.0)">
      <path d="M0.0 23.5 Q0.0 13.8 6.85 6.9 13.75 0.0 23.5 0.0 33.2 0.0 40.1 6.9 47.0 13.8 47.0 23.5 47.0 33.25 40.1 40.15 33.2 47.0 23.5 47.0 13.75 47.0 6.85 40.15 0.0 33.25 0.0 23.5" fill="#000000" fill-rule="evenodd" stroke="none"/>
    </g>
    <g id="sprite1" transform="matrix(1.0, 0.0, 0.0, 1.0, 13.9, 4.75)">
      <use height="10.45" transform="matrix(1.0, 0.0, 0.0, 1.0, -13.9, -4.75)" width="26.6" xlink:href="#shape2"/>
    </g>
    <g id="shape2" transform="matrix(1.0, 0.0, 0.0, 1.0, 13.9, 4.75)">
      <path d="M12.4 -2.4 Q13.25 1.15 11.8 4.85 L8.7 5.25 5.85 4.4 Q5.6 1.7 4.35 0.5 2.85 1.2 1.8 3.9 -3.6 6.9 -10.5 4.9 L-13.25 2.45 Q-14.0 0.7 -13.9 -2.45 L-11.05 -4.75 4.15 -1.1 4.3 -1.4 4.4 -0.5 5.0 -1.55 4.75 -0.85 12.4 -2.4" fill="#ffffff" fill-rule="evenodd" stroke="none"/>
    </g>
  </defs>
</svg>
