<?xml version="1.0" encoding="UTF-8" standalone="no"?>
<svg xmlns:xlink="http://www.w3.org/1999/xlink" height="4355.6px" width="2834.2px" xmlns="http://www.w3.org/2000/svg">
  <g transform="matrix(1.0, 0.0, 0.0, 1.0, 1335.45, 1959.7)">
    <use height="149.95" transform="matrix(1.0, 0.0, 0.0, 1.0, -45.65, 35.55)" width="114.2" xlink:href="#shape0"/>
    <use height="47.0" transform="matrix(0.9773, 0.0, 0.0, 0.9773, 19.3, 0.3)" width="47.0" xlink:href="#sprite0"/>
    <use height="10.45" transform="matrix(0.5679, 0.093, -0.1615, 0.9856, 51.3237, 20.2754)" width="26.6" xlink:href="#sprite1"/>
  </g>
  <defs>
    <g id="shape0" transform="matrix(1.0, 0.0, 0.0, 1.0, 45.65, -35.55)">
      <path d="M28.6 42.9 L10.75 102.4 42.0 123.7 42.0 166.45" fill="none" stroke="#000000" stroke-linecap="round" stroke-linejoin="round" stroke-width="14.75"/>
      <path d="M28.6 42.9 L10.75 102.4 -6.1 143.3 -38.3 178.15" fill="none" stroke="#000000" stroke-linecap="round" stroke-linejoin="round" stroke-width="14.75"/>
      <path d="M28.6 42.9 L34.2 81.85 61.2 81.3" fill="none" stroke="#000000" stroke-linecap="round" stroke-linejoin="round" stroke-width="14.75"/>
      <path d="M28.6 42.9 L-4.95 64.65 0.95 98.6" fill="none" stroke="#000000" stroke-linecap="round" stroke-linejoin="round" stroke-width="14.75"/>
    </g>
    <g id="sprite0" transform="matrix(1.0, 0.0, 0.0, 1.0, 0.0, 0.0)">
      <use height="47.0" transform="matrix(1.0, 0.0, 0.0, 1.0, 0.0, 0.0)" width="47.0" xlink:href="#shape1"/>
    </g>
    <g id="shape1" transform="matrix(1.0, 0.0, 0.0, 1.0, 0.0, 0.0)">
      <path d="M0.0 23.5 Q0.0 13.8 6.85 6.9 13.75 0.0 23.5 0.0 33.2 0.0 40.1 6.9 47.0 13.8 47.0 23.5 47.0 33.25 40.1 40.15 33.2 47.0 23.5 47.0 13.75 47.0 6.85 40.15 0.0 33.25 0.0 23.5" fill="#000000" fill-rule="evenodd" stroke="none"/>
    </g>
    <g id="sprite1" transform="matrix(1.0, 0.0, 0.0, 1.0, 13.9, 4.75)">
      <use height="10.45" transform="matrix(1.0, 0.0, 0.0, 1.0, -13.9, -4.75)" width="26.6" xlink:href="#shape2"/>
    </g>
    <g id="shape2" transform="matrix(1.0, 0.0, 0.0, 1.0, 13.9, 4.75)">
      <path d="M12.4 -2.4 Q13.25 1.15 11.8 4.85 L8.7 5.25 5.85 4.4 Q5.6 1.7 4.35 0.5 2.85 1.2 1.8 3.9 -3.6 6.9 -10.5 4.9 L-13.25 2.45 Q-14.0 0.7 -13.9 -2.45 L-11.05 -4.75 4.15 -1.1 4.3 -1.4 4.4 -0.5 5.0 -1.55 4.75 -0.85 12.4 -2.4" fill="#ffffff" fill-rule="evenodd" stroke="none"/>
    </g>
  </defs>
</svg>
