<?xml version="1.0" encoding="UTF-8" standalone="no"?>
<svg xmlns:xlink="http://www.w3.org/1999/xlink" height="4355.6px" width="2834.2px" xmlns="http://www.w3.org/2000/svg">
  <g transform="matrix(1.0, 0.0, 0.0, 1.0, 1335.45, 1959.7)">
    <use height="135.05" transform="matrix(1.0, 0.0, 0.0, 1.0, -50.75, 29.85)" width="136.15" xlink:href="#shape0"/>
    <use height="47.0" transform="matrix(0.9773, 0.0, 0.0, 0.9773, 21.5, 4.45)" width="47.0" xlink:href="#sprite0"/>
    <use height="10.45" transform="matrix(0.5265, 0.2296, -0.3985, 0.9139, 54.4738, 25.9181)" width="26.6" xlink:href="#sprite1"/>
  </g>
  <defs>
    <g id="shape0" transform="matrix(1.0, 0.0, 0.0, 1.0, 50.75, -29.85)">
      <path d="M28.6 42.9 L10.75 102.4 -4.4 147.25 -43.4 131.75" fill="none" stroke="#000000" stroke-linecap="round" stroke-linejoin="round" stroke-width="14.75"/>
      <path d="M28.6 42.9 L10.75 102.4 51.45 124.25 76.1 157.55" fill="none" stroke="#000000" stroke-linecap="round" stroke-linejoin="round" stroke-width="14.75"/>
      <path d="M28.6 42.9 L-14.5 43.4 -26.45 73.5" fill="none" stroke="#000000" stroke-linecap="round" stroke-linejoin="round" stroke-width="14.75"/>
      <path d="M28.6 42.9 L66.6 63.95 78.05 37.2" fill="none" stroke="#000000" stroke-linecap="round" stroke-linejoin="round" stroke-width="14.75"/>
    </g>
    <g id="sprite0" transform="matrix(1.0, 0.0, 0.0, 1.0, 0.0, 0.0)">
      <use height="47.0" transform="matrix(1.0, 0.0, 0.0, 1.0, 0.0, 0.0)" width="47.0" xlink:href="#shape1"/>
    </g>
    <g id="shape1" transform="matrix(1.0, 0.0, 0.0, 1.0, 0.0, 0.0)">
      <path d="M0.0 23.5 Q0.0 13.8 6.85 6.9 13.75 0.0 23.5 0.0 33.2 0.0 40.1 6.9 47.0 13.8 47.0 23.5 47.0 33.25 40.1 40.15 33.2 47.0 23.5 47.0 13.75 47.0 6.85 40.15 0.0 33.25 0.0 23.5" fill="#000000" fill-rule="evenodd" stroke="none"/>
    </g>
    <g id="sprite1" transform="matrix(1.0, 0.0, 0.0, 1.0, 13.9, 4.75)">
      <use height="10.45" transform="matrix(1.0, 0.0, 0.0, 1.0, -13.9, -4.75)" width="26.6" xlink:href="#shape2"/>
    </g>
    <g id="shape2" transform="matrix(1.0, 0.0, 0.0, 1.0, 13.9, 4.75)">
      <path d="M12.4 -2.4 Q13.25 1.15 11.8 4.85 L8.7 5.25 5.85 4.4 Q5.6 1.7 4.35 0.5 2.85 1.2 1.8 3.9 -3.6 6.9 -10.5 4.9 L-13.25 2.45 Q-14.0 0.7 -13.9 -2.45 L-11.05 -4.75 4.15 -1.1 4.3 -1.4 4.4 -0.5 5.0 -1.55 4.75 -0.85 12.4 -2.4" fill="#ffffff" fill-rule="evenodd" stroke="none"/>
    </g>
  </defs>
</svg>
