<?xml version="1.0" encoding="UTF-8" standalone="no"?>
<svg xmlns:xlink="http://www.w3.org/1999/xlink" height="4355.6px" width="2834.2px" xmlns="http://www.w3.org/2000/svg">
  <g transform="matrix(1.0, 0.0, 0.0, 1.0, 1335.45, 1959.7)">
    <use height="46.6" transform="matrix(1.0, 0.0, 0.0, 1.0, -0.95, 141.85)" width="40.75" xlink:href="#shape0"/>
    <use height="113.25" transform="matrix(1.0, 0.0, 0.0, 1.0, -21.4, 84.5)" width="33.2" xlink:href="#shape1"/>
    <use height="39.9" transform="matrix(1.0, 0.0, 0.0, 1.0, -2.55, 62.5)" width="57.4" xlink:href="#shape2"/>
    <use height="43.2" transform="matrix(1.0, 0.0, 0.0, 1.0, -45.05, 82.3)" width="50.8" xlink:href="#shape3"/>
    <use height="77.4" transform="matrix(2.4639, 0.0, 0.0, 2.4639, -113.1374, -47.3287)" width="126.15" xlink:href="#sprite0"/>
    <use height="47.0" transform="matrix(0.9773, 0.0, 0.0, 0.9773, -14.25, 47.3)" width="47.0" xlink:href="#sprite1"/>
    <use height="12.6" transform="matrix(1.0, 0.0, 0.0, 1.0, 0.0, 73.35)" width="30.25" xlink:href="#sprite2"/>
  </g>
  <defs>
    <g id="shape0" transform="matrix(1.0, 0.0, 0.0, 1.0, 0.95, -141.85)">
      <path d="M6.4 149.2 L32.25 156.55 32.45 181.1" fill="none" stroke="#000000" stroke-linecap="round" stroke-linejoin="round" stroke-width="14.75"/>
    </g>
    <g id="shape1" transform="matrix(1.0, 0.0, 0.0, 1.0, 21.4, -84.5)">
      <path d="M4.3 91.85 L4.45 149.1 -8.55 190.4 -14.05 182.6" fill="none" stroke="#000000" stroke-linecap="round" stroke-linejoin="round" stroke-width="14.75"/>
    </g>
    <g id="shape2" transform="matrix(1.0, 0.0, 0.0, 1.0, 2.55, -62.5)">
      <path d="M4.8 78.1 L32.15 69.85 47.5 95.05" fill="none" stroke="#000000" stroke-linecap="round" stroke-linejoin="round" stroke-width="14.75"/>
    </g>
    <g id="shape3" transform="matrix(1.0, 0.0, 0.0, 1.0, 45.05, -82.3)">
      <path d="M-1.6 89.65 L-32.3 96.2 -37.7 118.15" fill="none" stroke="#000000" stroke-linecap="round" stroke-linejoin="round" stroke-width="14.75"/>
    </g>
    <g id="sprite0" transform="matrix(1.0, 0.0, 0.0, 1.0, 48.15, 38.0)">
      <use height="31.75" transform="matrix(1.0, 0.0, 0.0, 1.0, -15.55, -18.0)" width="38.3" xlink:href="#shape4"/>
    </g>
    <g id="shape4" transform="matrix(1.0, 0.0, 0.0, 1.0, 15.55, 18.0)">
      <path d="M7.9 -8.6 L7.4 -8.5 6.9 -8.6 6.7 -8.8 6.9 -9.0 7.4 -9.1 7.9 -9.0 8.1 -8.8 7.9 -8.6 M0.75 -9.75 L0.55 -9.7 Q0.25 -10.65 1.55 -11.2 L1.4 -10.4 0.75 -9.75 M1.2 -8.25 L-1.4 -6.35 0.2 -4.85 1.3 -7.7 2.6 -7.65 4.7 -14.2 4.75 -9.2 Q4.7 -8.3 5.0 -7.4 L5.65 -7.3 7.25 -5.25 8.25 -5.45 8.8 -8.6 8.9 -5.55 11.85 -6.35 12.85 -6.05 14.3 -3.9 14.9 -4.0 Q15.25 -2.2 14.4 -0.7 13.65 0.75 12.05 1.55 L12.4 3.1 15.25 6.5 15.45 8.05 Q11.6 6.35 10.4 2.25 L9.35 2.85 7.05 2.55 Q7.5 5.85 9.45 8.8 L8.5 8.95 9.0 9.9 8.8 10.6 4.5 5.85 4.6 5.7 4.6 5.4 4.0 5.6 3.35 7.75 4.1 9.75 2.9 7.9 -0.1 8.9 -0.45 9.6 -1.05 9.65 -1.8 10.2 -1.7 10.85 -3.75 13.75 -4.15 13.6 -4.3 12.6 -4.3 10.1 -3.9 9.8 -4.85 9.75 -4.95 9.9 -6.25 8.5 -6.2 7.6 -7.9 7.4 -8.55 7.7 -8.85 8.15 Q-12.15 6.55 -10.75 2.3 -9.6 -1.25 -6.6 -3.6 -9.8 -5.55 -11.3 -8.95 L-11.65 -9.95 -14.6 -9.8 -14.0 -8.5 -12.05 -7.65 -13.0 -7.4 Q-14.05 -7.7 -14.75 -8.7 -15.55 -9.85 -15.55 -11.2 L-14.95 -10.9 -14.75 -10.35 -11.75 -10.5 -11.85 -11.25 -11.3 -10.55 -8.9 -10.7 -10.95 -10.05 Q-8.6 -7.15 -5.55 -4.9 L-5.25 -5.3 -5.25 -6.0 -5.05 -6.05 -4.9 -6.05 -4.5 -6.55 -4.5 -6.9 -4.5 -7.1 -4.85 -7.65 -3.9 -7.5 -3.7 -7.65 -3.55 -7.75 -4.55 -9.4 -4.25 -9.8 Q-3.95 -14.25 -1.7 -18.0 L0.15 -16.35 Q-0.2 -12.05 -2.2 -8.5 L-1.5 -8.8 -0.85 -8.9 0.6 -8.85 1.2 -8.25 M3.15 -7.1 L4.25 -5.4 3.7 -7.9 3.15 -7.1 M1.85 -1.5 L1.4 -1.65 1.55 -2.1 2.8 -2.0 2.55 -2.55 2.8 -3.1 2.45 -3.7 -0.25 -2.75 -0.3 -2.1 1.85 -1.5 M7.25 -1.55 L10.1 -0.2 Q10.4 -1.5 9.6 -2.5 9.05 -3.2 8.35 -3.7 L7.95 -2.1 7.7 -3.15 7.05 -2.35 7.25 -1.55 M22.65 0.05 L22.75 0.25 22.65 0.45 22.45 0.55 22.25 0.45 22.15 0.25 22.25 0.05 22.45 -0.05 22.65 0.05 M15.95 -7.05 L16.25 -6.7 15.6 -6.45 15.95 -7.05 M6.3 0.75 L8.85 1.0 6.3 0.2 6.3 0.75 M5.55 1.2 L5.0 0.55 5.15 1.45 5.55 1.2 M6.85 4.15 L6.15 2.45 5.6 3.25 6.85 4.15 M1.15 13.55 Q1.75 13.7 1.2 13.6 L1.15 13.55 M0.85 4.05 L1.1 4.6 0.75 5.8 3.0 3.45 2.6 3.05 0.85 4.05 M1.9 2.6 Q1.15 2.15 0.4 1.85 L-0.6 1.6 -0.45 3.4 0.05 3.4 0.25 3.85 1.9 2.6 M-4.35 -11.6 L-4.25 -11.35 -4.35 -11.05 -4.65 -10.95 Q-4.8 -10.95 -4.9 -11.05 L-5.05 -11.35 -4.9 -11.6 -4.65 -11.75 -4.35 -11.6 M-5.8 -9.55 L-6.15 -9.35 -6.5 -9.55 -6.65 -10.1 -6.5 -10.6 -6.15 -10.85 -5.8 -10.6 -5.65 -10.1 -5.8 -9.55 M-8.4 -9.65 L-8.4 -9.1 -8.95 -9.1 -8.95 -9.65 -8.4 -9.65 M-2.75 4.5 L-3.25 3.8 -4.0 4.5 -2.75 4.5 M-4.5 2.95 L-4.1 2.5 -4.45 1.8 -7.25 0.9 -8.1 1.3 -8.8 2.9 -6.55 1.8 Q-5.25 2.05 -4.5 2.95 M-0.75 -2.2 L-0.7 -2.8 -2.6 -3.45 -2.7 -2.75 -0.75 -2.2 M-4.3 -2.5 L-4.15 -2.95 -4.9 -2.75 -4.3 -2.5 M-1.85 -5.3 L-2.25 -4.7 -2.55 -3.95 -0.15 -3.95 0.2 -4.8 -1.85 -5.3 M-3.55 5.6 L-2.7 6.85 -1.9 6.75 -2.0 5.5 -2.75 5.05 -3.55 5.6 M-6.15 6.8 L-6.1 6.15 -6.85 6.75 -6.15 6.8 M-15.5 6.65 L-15.35 6.4 -15.1 6.25 Q-14.95 6.25 -14.8 6.4 L-14.7 6.65 -14.8 6.95 -15.1 7.05 -15.35 6.95 -15.5 6.65 M-6.2 0.4 L-4.85 0.7 -5.1 -0.15 -6.2 0.4 M-9.35 9.6 L-9.25 9.8 -9.35 10.0 -9.55 10.1 -9.75 10.0 -9.85 9.8 -9.75 9.6 -9.55 9.5 -9.35 9.6 M-9.95 8.1 L-9.95 8.8 -10.4 8.8 -10.4 8.1 -9.95 8.1 M-14.7 8.6 L-14.7 8.0 -14.3 8.0 -14.3 8.6 -14.7 8.6" fill="#010101" fill-opacity="0.0" fill-rule="evenodd" stroke="none"/>
    </g>
    <g id="sprite1" transform="matrix(1.0, 0.0, 0.0, 1.0, 0.0, 0.0)">
      <use height="47.0" transform="matrix(1.0, 0.0, 0.0, 1.0, 0.0, 0.0)" width="47.0" xlink:href="#shape5"/>
    </g>
    <g id="shape5" transform="matrix(1.0, 0.0, 0.0, 1.0, 0.0, 0.0)">
      <path d="M0.0 23.5 Q0.0 13.8 6.85 6.9 13.75 0.0 23.5 0.0 33.2 0.0 40.1 6.9 47.0 13.8 47.0 23.5 47.0 33.25 40.1 40.15 33.2 47.0 23.5 47.0 13.75 47.0 6.85 40.15 0.0 33.25 0.0 23.5" fill="#000000" fill-rule="evenodd" stroke="none"/>
    </g>
    <g id="sprite2" transform="matrix(1.0, 0.0, 0.0, 1.0, 15.1, 6.3)">
      <use height="12.6" transform="matrix(1.0, 0.0, 0.0, 1.0, -15.1, -6.3)" width="30.25" xlink:href="#shape6"/>
    </g>
    <g id="shape6" transform="matrix(1.0, 0.0, 0.0, 1.0, 15.1, 6.3)">
      <path d="M14.3 3.25 Q12.85 4.85 11.1 5.95 L6.0 6.2 3.4 5.0 Q3.7 2.3 2.75 0.95 1.1 1.45 -0.5 4.0 -6.4 6.2 -12.75 3.35 L-14.95 0.55 Q-15.35 -1.25 -14.55 -4.35 -12.9 -5.3 -11.3 -6.3 -4.85 -4.0 2.9 -0.7 L3.1 -0.95 3.0 -0.05 3.8 -1.0 3.4 -0.35 12.85 -1.5 14.85 -1.3 15.15 -0.05 14.3 3.05 14.3 3.25" fill="#ffffff" fill-rule="evenodd" stroke="none"/>
    </g>
  </defs>
</svg>
