<?xml version="1.0" encoding="UTF-8" standalone="no"?>
<svg xmlns:xlink="http://www.w3.org/1999/xlink" height="4355.6px" width="2834.2px" xmlns="http://www.w3.org/2000/svg">
  <g transform="matrix(1.0, 0.0, 0.0, 1.0, 1335.45, 1959.7)">
    <use height="40.15" transform="matrix(1.0, 0.0, 0.0, 1.0, -59.55, 154.85)" width="96.85" xlink:href="#shape0"/>
    <use height="47.0" transform="matrix(0.9773, 0.0, 0.0, 0.9773, -67.7, 158.3)" width="47.0" xlink:href="#sprite0"/>
  </g>
  <defs>
    <g id="shape0" transform="matrix(1.0, 0.0, 0.0, 1.0, 59.55, -154.85)">
      <path d="M0.45 175.55 L13.6 187.65 29.95 180.6" fill="none" stroke="#000000" stroke-linecap="round" stroke-linejoin="round" stroke-width="14.75"/>
      <path d="M-52.2 186.85 Q-5.85 163.65 1.05 176.8 L-33.9 187.5 -14.05 182.6" fill="none" stroke="#000000" stroke-linecap="round" stroke-linejoin="round" stroke-width="14.75"/>
      <path d="M-41.95 184.55 L-4.7 174.2 15.55 182.95" fill="none" stroke="#000000" stroke-linecap="round" stroke-linejoin="round" stroke-width="14.75"/>
      <path d="M-27.25 165.55 Q0.5 157.5 -11.25 168.8" fill="none" stroke="#000000" stroke-linecap="round" stroke-linejoin="round" stroke-width="14.75"/>
    </g>
    <g id="sprite0" transform="matrix(1.0, 0.0, 0.0, 1.0, 0.0, 0.0)">
      <use height="47.0" transform="matrix(1.0, 0.0, 0.0, 1.0, 0.0, 0.0)" width="47.0" xlink:href="#shape1"/>
    </g>
    <g id="shape1" transform="matrix(1.0, 0.0, 0.0, 1.0, 0.0, 0.0)">
      <path d="M0.0 23.5 Q0.0 13.8 6.85 6.9 13.75 0.0 23.5 0.0 33.2 0.0 40.1 6.9 47.0 13.8 47.0 23.5 47.0 33.25 40.1 40.15 33.2 47.0 23.5 47.0 13.75 47.0 6.85 40.15 0.0 33.25 0.0 23.5" fill="#000000" fill-rule="evenodd" stroke="none"/>
    </g>
  </defs>
</svg>
