<?xml version="1.0" encoding="UTF-8" standalone="no"?>
<svg xmlns:xlink="http://www.w3.org/1999/xlink" height="4355.6px" width="2834.2px" xmlns="http://www.w3.org/2000/svg">
  <g transform="matrix(1.0, 0.0, 0.0, 1.0, 1335.45, 1959.7)">
    <use height="158.05" transform="matrix(1.0, 0.0, 0.0, 1.0, -48.5, 32.2)" width="93.7" xlink:href="#shape0"/>
    <use height="47.0" transform="matrix(0.9773, 0.0, 0.0, 0.9773, 11.7, 16.2)" width="47.0" xlink:href="#sprite0"/>
    <use height="12.6" transform="matrix(0.9996, -0.0222, 0.0222, 0.9996, 22.3668, 45.738)" width="30.25" xlink:href="#sprite1"/>
  </g>
  <defs>
    <g id="shape0" transform="matrix(1.0, 0.0, 0.0, 1.0, 48.5, -32.2)">
      <path d="M26.9 39.55 Q10.4 69.15 2.4 102.95 L27.2 137.9 32.3 182.9" fill="none" stroke="#000000" stroke-linecap="round" stroke-linejoin="round" stroke-width="14.75"/>
      <path d="M-1.0 106.8 L-7.5 145.65 -41.15 173.2" fill="none" stroke="#000000" stroke-linecap="round" stroke-linejoin="round" stroke-width="14.75"/>
      <path d="M24.9 43.45 L33.65 73.75 37.85 103.4" fill="none" stroke="#000000" stroke-linecap="round" stroke-linejoin="round" stroke-width="14.75"/>
      <path d="M23.8 42.3 L-15.25 59.8 -14.35 96.0" fill="none" stroke="#000000" stroke-linecap="round" stroke-linejoin="round" stroke-width="14.75"/>
    </g>
    <g id="sprite0" transform="matrix(1.0, 0.0, 0.0, 1.0, 0.0, 0.0)">
      <use height="47.0" transform="matrix(1.0, 0.0, 0.0, 1.0, 0.0, 0.0)" width="47.0" xlink:href="#shape1"/>
    </g>
    <g id="shape1" transform="matrix(1.0, 0.0, 0.0, 1.0, 0.0, 0.0)">
      <path d="M0.0 23.5 Q0.0 13.8 6.85 6.9 13.75 0.0 23.5 0.0 33.2 0.0 40.1 6.9 47.0 13.8 47.0 23.5 47.0 33.25 40.1 40.15 33.2 47.0 23.5 47.0 13.75 47.0 6.85 40.15 0.0 33.25 0.0 23.5" fill="#000000" fill-rule="evenodd" stroke="none"/>
    </g>
    <g id="sprite1" transform="matrix(1.0, 0.0, 0.0, 1.0, 15.1, 6.3)">
      <use height="12.6" transform="matrix(1.0, 0.0, 0.0, 1.0, -15.1, -6.3)" width="30.25" xlink:href="#shape2"/>
    </g>
    <g id="shape2" transform="matrix(1.0, 0.0, 0.0, 1.0, 15.1, 6.3)">
      <path d="M14.3 3.25 Q12.85 4.85 11.1 5.95 L6.0 6.2 3.4 5.0 Q3.7 2.3 2.75 0.95 1.1 1.45 -0.5 4.0 -6.4 6.2 -12.75 3.35 L-14.95 0.55 Q-15.35 -1.25 -14.55 -4.35 -12.9 -5.3 -11.3 -6.3 -4.85 -4.0 2.9 -0.7 L3.1 -0.95 3.0 -0.05 3.8 -1.0 3.4 -0.35 12.85 -1.5 14.85 -1.3 15.15 -0.05 14.3 3.05 14.3 3.25" fill="#ffffff" fill-rule="evenodd" stroke="none"/>
    </g>
  </defs>
</svg>
