<?xml version="1.0" encoding="UTF-8" standalone="no"?>
<svg xmlns:xlink="http://www.w3.org/1999/xlink" height="8.25px" width="39.95px" xmlns="http://www.w3.org/2000/svg">
  <g transform="matrix(1.0, 0.0, 0.0, 1.0, 19.95, 4.1)">
    <use height="4.7" transform="matrix(0.669, 0.0941, -0.0705, 0.501, -19.6022, -3.9586)" width="59.15" xlink:href="#sprite0"/>
  </g>
  <defs>
    <g id="sprite0" transform="matrix(1.0, 0.0, 0.0, 1.0, 29.55, 2.35)">
      <use height="4.7" transform="matrix(1.0, 0.0, 0.0, 1.0, -29.55, -2.35)" width="59.15" xlink:href="#sprite1"/>
    </g>
    <g id="sprite1" transform="matrix(1.0, 0.0, 0.0, 1.0, 29.55, 2.35)">
      <use height="4.65" transform="matrix(1.0, 0.0, 0.0, 1.0, -29.55, -2.35)" width="59.05" xlink:href="#sprite2"/>
      <use height="4.65" transform="matrix(1.0, 0.0, 0.0, 1.0, -29.45, -2.3)" width="59.05" xlink:href="#sprite2"/>
    </g>
    <g id="sprite2" transform="matrix(1.0, 0.0, 0.0, 1.0, 29.5, 2.3)">
      <use height="4.65" transform="matrix(1.0, 0.0, 0.0, 1.0, -29.5, -2.3)" width="59.05" xlink:href="#shape0"/>
    </g>
    <g id="shape0" transform="matrix(1.0, 0.0, 0.0, 1.0, 29.5, 2.3)">
      <path d="M28.8 2.35 L-27.8 2.35 Q-31.15 0.6 -27.8 -2.3 L28.8 -2.3 Q30.35 0.05 28.8 2.35" fill="#ff0000" fill-opacity="0.48235294" fill-rule="evenodd" stroke="none"/>
    </g>
  </defs>
</svg>
