<?xml version="1.0" encoding="UTF-8" standalone="no"?>
<svg xmlns:xlink="http://www.w3.org/1999/xlink" height="302.3px" width="207.9px" xmlns="http://www.w3.org/2000/svg">
  <g transform="matrix(1.0, 0.0, 0.0, 1.0, 85.3, 152.45)">
    <use height="118.25" transform="matrix(1.0, 0.0, 0.0, 1.0, -68.5, 24.4)" width="162.8" xlink:href="#shape0"/>
    <use height="181.4" transform="matrix(0.5109, 0.0, 0.0, 0.5109, -43.2376, -152.4632)" width="225.5" xlink:href="#sprite0"/>
  </g>
  <defs>
    <g id="shape0" transform="matrix(1.0, 0.0, 0.0, 1.0, 81.4, 59.1)">
      <path d="M-3.7 -17.25 Q-10.55 -24.4 -10.55 -34.35 -10.55 -44.6 -3.3 -51.85 3.95 -59.1 14.2 -59.1 24.45 -59.1 31.7 -51.85 38.95 -44.6 38.95 -34.35 38.95 -26.9 35.15 -21.05 33.7 -18.85 31.7 -16.85 26.15 -11.3 18.9 -10.0 21.25 -8.75 26.0 -6.9 30.45 -5.2 35.65 -3.4 42.15 -0.6 49.8 1.35 L52.15 1.95 59.5 7.45 71.65 16.35 77.1 21.5 Q81.4 25.95 81.4 27.6 81.4 29.6 72.05 30.1 L71.4 30.1 64.3 27.1 63.05 26.15 59.85 23.1 50.65 11.85 Q47.5 8.1 31.55 3.35 19.35 -0.3 15.35 -0.5 L13.75 -3.3 Q13.95 -1.8 14.3 -0.5 L14.3 -0.45 14.7 1.0 15.05 2.05 13.4 2.45 11.0 3.25 Q11.3 5.05 13.3 5.25 15.45 5.45 15.75 6.25 16.15 7.4 17.3 8.7 18.6 10.25 19.6 10.25 21.25 9.9 22.6 9.15 L27.3 9.9 31.55 12.35 Q38.75 16.3 51.75 21.8 L54.1 22.8 54.4 25.75 Q54.4 28.8 52.35 32.2 50.85 34.65 49.4 35.85 L39.55 41.8 Q31.15 46.5 28.9 47.35 L7.8 56.15 Q1.35 58.8 -3.6 58.85 L-3.8 58.95 Q-6.5 59.7 -9.5 57.6 -12.6 55.4 -12.6 52.5 -12.6 50.1 -9.35 48.15 -4.3 45.2 -1.85 43.25 L-1.0 42.95 4.85 41.25 14.15 39.15 20.4 37.35 Q22.95 36.15 29.3 32.45 36.05 28.5 37.65 27.1 L38.05 25.75 37.65 25.6 37.65 24.85 37.45 25.55 -8.65 12.35 Q-23.7 8.05 -33.3 5.6 L-37.75 7.55 Q-45.8 11.0 -52.15 13.2 L-52.15 13.35 Q-50.8 23.85 -50.4 24.85 -48.05 30.85 -47.6 37.25 L-47.15 44.8 -47.3 44.95 -48.6 46.3 Q-51.9 49.35 -55.0 49.35 -57.2 49.35 -59.05 48.3 -61.95 46.65 -63.65 45.85 L-63.65 44.85 Q-63.65 44.15 -62.5 41.15 -61.4 38.1 -61.4 37.0 L-65.15 22.6 -67.35 12.85 -69.65 12.85 Q-71.65 12.6 -76.05 10.8 -81.4 8.6 -81.4 7.1 -81.4 5.25 -77.95 4.55 L-68.75 2.9 -68.9 -0.65 -68.6 -4.5 -67.7 -7.75 -65.9 -4.95 -65.5 -3.75 -66.35 -2.0 -67.25 -0.5 Q-67.25 1.0 -66.2 1.75 -63.85 3.4 -63.5 3.75 -63.5 3.0 -64.0 0.85 L-64.5 -1.75 -64.35 -3.6 -64.1 -5.25 -64.1 -5.4 -63.75 -8.05 -63.75 -8.25 -63.9 -8.9 -64.25 -9.5 Q-63.0 -9.4 -61.05 -7.9 L-60.85 -7.75 -59.25 -6.0 -59.0 -5.25 Q-58.15 -5.4 -57.6 -6.25 L-57.6 -6.35 Q-57.25 -7.0 -57.25 -7.3 L-57.25 -7.35 -57.75 -8.35 -58.5 -9.25 -47.4 -8.75 Q-45.9 -8.75 -45.75 -10.6 L-43.55 -9.9 -41.05 -8.9 Q-37.1 -7.3 -30.5 -4.25 L-29.55 -3.8 -28.4 -4.0 -19.1 -5.45 Q-14.15 -6.8 -6.0 -11.25 L2.35 -12.25 4.25 -11.6 5.25 -11.25 6.0 -11.0 7.6 -11.25 9.5 -11.5 9.5 -12.0 7.45 -12.05 Q6.65 -12.1 6.1 -12.6 L5.5 -13.25 Q5.1 -13.85 2.1 -15.2 L1.15 -15.6 -1.75 -17.25 -3.7 -17.25 M12.25 -40.75 L12.0 -40.75 Q10.45 -38.15 8.85 -33.85 7.3 -29.7 6.25 -25.5 L5.25 -25.5 Q5.0 -26.4 4.4 -26.75 L3.0 -27.25 2.75 -26.0 Q2.75 -25.15 4.25 -23.7 L5.35 -22.75 6.95 -24.2 Q8.5 -25.25 10.85 -25.25 10.85 -25.25 10.95 -25.2 L13.25 -23.95 Q13.5 -23.8 13.85 -23.6 16.65 -22.0 17.35 -22.0 L19.25 -22.25 Q19.8 -24.55 15.65 -25.1 L14.1 -25.35 Q12.55 -25.65 11.4 -26.15 9.75 -26.85 9.0 -28.0 10.0 -28.1 10.35 -29.3 11.25 -32.2 12.25 -34.25 L12.25 -40.75 M3.2 -0.35 L3.55 -1.35 1.6 -0.5 -1.65 0.7 Q-6.6 2.5 -10.15 3.1 L-11.1 2.85 -11.15 3.25 -10.15 3.1 Q-2.55 5.1 -0.85 5.1 1.2 5.1 3.2 -0.35" fill="#000000" fill-rule="evenodd" stroke="none"/>
      <path d="M15.05 2.05 Q16.85 7.0 20.6 8.55 L22.6 9.15 Q21.25 9.9 19.6 10.25 18.6 10.25 17.3 8.7 16.15 7.4 15.75 6.25 15.45 5.45 13.3 5.25 11.3 5.05 11.0 3.25 L13.4 2.45 15.05 2.05 M-67.7 -7.75 L-67.35 -8.5 Q-65.3 -12.3 -60.45 -12.4 -52.75 -12.75 -45.75 -10.6 -45.9 -8.75 -47.4 -8.75 L-58.5 -9.25 -57.75 -8.35 -57.25 -7.35 -57.25 -7.3 Q-57.25 -7.0 -57.6 -6.35 L-57.6 -6.25 Q-58.15 -5.4 -59.0 -5.25 L-59.25 -6.0 -60.85 -7.75 -61.05 -7.9 Q-63.0 -9.4 -64.25 -9.5 L-63.9 -8.9 -63.75 -8.25 -63.75 -8.05 -64.1 -5.4 -64.1 -5.25 -64.35 -3.6 -64.5 -1.75 -64.0 0.85 Q-63.5 3.0 -63.5 3.75 -63.85 3.4 -66.2 1.75 -67.25 1.0 -67.25 -0.5 L-66.35 -2.0 -65.5 -3.75 -65.9 -4.95 -67.7 -7.75 M-6.0 -11.25 Q-3.45 -12.65 -0.55 -14.4 L-1.5 -15.2 -3.3 -16.85 -3.7 -17.25 -1.75 -17.25 1.15 -15.6 2.1 -15.2 Q5.1 -13.85 5.5 -13.25 L6.1 -12.6 Q6.65 -12.1 7.45 -12.05 L9.5 -12.0 9.5 -11.5 7.6 -11.25 6.0 -11.0 5.25 -11.25 4.25 -11.6 2.35 -12.25 -6.0 -11.25 M12.25 -40.75 L12.25 -34.25 Q11.25 -32.2 10.35 -29.3 10.0 -28.1 9.0 -28.0 9.75 -26.85 11.4 -26.15 12.55 -25.65 14.1 -25.35 L15.65 -25.1 Q19.8 -24.55 19.25 -22.25 L17.35 -22.0 Q16.65 -22.0 13.85 -23.6 13.5 -23.8 13.25 -23.95 L10.95 -25.2 Q10.85 -25.25 10.85 -25.25 8.5 -25.25 6.95 -24.2 L5.35 -22.75 4.25 -23.7 Q2.75 -25.15 2.75 -26.0 L3.0 -27.25 4.4 -26.75 Q5.0 -26.4 5.25 -25.5 L6.25 -25.5 Q7.3 -29.7 8.85 -33.85 10.45 -38.15 12.0 -40.75 L12.25 -40.75" fill="#770000" fill-rule="evenodd" stroke="none"/>
    </g>
    <g id="sprite0" transform="matrix(1.0, 0.0, 0.0, 1.0, 300.5, 216.0)">
      <use height="89.0" transform="matrix(1.0, 0.0, 0.0, 1.0, -167.15, -135.0)" width="42.35" xlink:href="#sprite1"/>
      <use height="51.55" transform="matrix(1.0, 0.0, 0.0, 1.0, -231.55, -123.4)" width="106.75" xlink:href="#sprite2"/>
      <use height="77.75" transform="matrix(1.0, 0.0, 0.0, 1.0, -233.4, -162.5)" width="102.4" xlink:href="#sprite3"/>
      <use height="114.2" transform="matrix(1.0, 0.0, 0.0, 1.0, -225.2, -171.5)" width="52.5" xlink:href="#sprite4"/>
    </g>
    <g id="sprite1" transform="matrix(1.0, 0.0, 0.0, 1.0, 0.0, 0.0)">
      <use height="89.0" transform="matrix(1.0, 0.0, 0.0, 1.0, 0.0, 0.0)" width="42.35" xlink:href="#shape1"/>
    </g>
    <g id="shape1" transform="matrix(1.0, 0.0, 0.0, 1.0, 0.0, 0.0)">
      <path d="M2.15 26.0 Q2.15 25.5 3.2 25.4 5.35 25.2 5.15 23.0 5.0 21.35 7.2 21.5 7.65 21.5 8.2 21.1 9.3 20.3 10.15 18.0 9.45 22.95 14.15 22.7 16.95 22.55 18.35 20.1 19.8 17.6 21.6 16.25 22.45 15.65 22.75 14.6 L22.9 13.95 23.6 11.15 Q24.4 8.6 26.05 7.75 31.05 5.2 36.1 2.85 38.3 1.85 40.45 0.45 41.15 0.0 42.15 0.0 41.45 5.35 35.3 6.2 33.15 6.5 31.1 7.95 27.15 10.8 25.0 12.85 24.15 13.7 23.65 14.55 L23.5 14.8 Q21.95 17.7 24.65 20.5 25.15 21.0 24.85 21.9 L24.35 23.1 Q20.8 30.45 27.1 34.1 28.65 35.0 30.3 35.55 L33.1 36.2 Q36.45 36.65 38.8 39.45 L41.65 42.5 Q42.15 43.0 42.25 44.0 43.1 51.45 37.9 54.55 L36.15 55.0 Q29.9 54.95 24.8 51.9 24.15 51.5 24.35 50.05 25.05 44.8 22.85 41.55 22.15 40.5 22.45 39.05 23.2 35.45 20.15 35.8 18.15 36.0 16.45 36.7 14.65 37.5 13.35 39.15 11.1 42.0 13.45 44.7 L15.05 46.15 Q17.4 47.75 17.5 52.0 17.55 55.9 15.85 58.8 15.15 60.0 14.75 61.2 14.15 63.0 14.15 65.0 14.15 74.0 13.25 82.9 13.15 84.0 12.3 85.1 L9.15 89.0 Q6.45 84.85 4.55 80.8 4.15 80.0 4.15 79.0 4.15 75.5 4.6 72.05 4.65 71.5 5.2 71.1 12.2 65.9 11.05 56.0 10.55 51.7 9.5 48.85 L8.85 47.1 Q8.2 45.2 8.45 43.05 8.85 39.8 7.05 39.4 L3.15 38.8 Q1.35 38.55 0.45 36.25 L0.0 35.4 Q2.25 31.3 2.15 26.0" fill="#990000" fill-rule="evenodd" stroke="none"/>
    </g>
    <g id="sprite2" transform="matrix(1.0, 0.0, 0.0, 1.0, 0.0, 0.0)">
      <use height="51.55" transform="matrix(1.0, 0.0, 0.0, 1.0, 0.0, 0.0)" width="106.75" xlink:href="#shape2"/>
    </g>
    <g id="shape2" transform="matrix(1.0, 0.0, 0.0, 1.0, 0.0, 0.0)">
      <path d="M39.8 0.1 Q44.3 1.0 47.5 4.15 46.75 4.9 46.6 5.55 45.75 9.9 46.1 14.35 46.35 17.35 44.5 19.15 L43.05 20.65 37.55 26.15 Q36.75 26.9 36.45 27.65 34.2 33.4 39.7 32.25 L42.75 31.85 Q52.25 31.4 61.75 31.4 L67.5 31.45 68.1 32.9 Q71.9 41.4 78.55 41.4 84.45 41.4 87.0 36.65 88.45 34.0 88.55 31.15 92.15 30.5 95.7 29.3 100.9 27.55 105.5 30.15 L104.0 31.65 Q102.75 32.9 100.95 33.8 L98.6 34.65 Q95.1 35.35 97.65 38.5 98.75 39.9 100.1 40.9 L101.6 41.75 Q102.85 42.3 104.75 42.25 106.95 42.2 106.75 44.4 L104.7 45.1 Q100.65 45.95 98.9 48.5 L97.45 49.95 Q94.05 52.2 89.75 51.3 L71.75 47.3 71.05 47.15 Q65.0 39.1 62.8 37.4 56.3 34.25 42.4 42.4 40.9 43.25 39.55 44.2 36.4 43.4 33.55 41.75 L29.05 38.95 Q28.25 38.4 27.6 38.25 L18.8 37.0 17.7 36.95 Q15.95 39.9 11.8 40.15 L3.85 40.85 Q0.5 41.2 0.0 38.55 3.55 32.4 9.1 29.3 L9.3 29.2 10.6 29.8 Q11.8 30.4 12.85 30.55 20.95 31.75 28.7 30.15 29.75 29.9 30.2 29.1 32.5 24.9 31.9 19.4 31.75 17.9 32.35 16.65 34.1 12.9 33.8 8.4 33.75 7.4 34.15 6.6 L35.45 3.3 36.15 1.6 Q36.75 0.4 37.95 0.1 38.75 -0.1 39.8 0.1" fill="#990000" fill-rule="evenodd" stroke="none"/>
    </g>
    <g id="sprite3" transform="matrix(1.0, 0.0, 0.0, 1.0, 0.0, 0.0)">
      <use height="77.75" transform="matrix(1.0, 0.0, 0.0, 1.0, 0.0, 0.0)" width="102.4" xlink:href="#shape3"/>
    </g>
    <g id="shape3" transform="matrix(1.0, 0.0, 0.0, 1.0, 0.0, 0.0)">
      <path d="M67.4 20.5 Q66.8 16.7 70.35 15.4 71.4 15.0 71.9 14.2 74.35 10.45 78.45 8.65 L98.35 0.4 100.4 0.0 Q101.4 0.0 101.6 0.7 102.4 4.0 102.4 7.5 102.4 9.0 101.65 9.75 99.75 11.65 97.25 13.25 L88.55 18.75 Q84.45 21.25 79.4 21.7 74.9 22.1 72.4 24.5 78.7 24.15 81.55 29.4 82.4 31.0 82.25 32.4 82.05 34.65 79.35 35.05 L74.35 34.75 Q73.4 34.5 72.7 34.05 L71.1 32.85 Q69.2 31.3 66.5 31.05 61.0 30.55 59.45 33.5 58.3 35.65 56.2 37.15 51.45 40.55 48.55 45.4 47.85 44.85 47.8 43.5 47.5 37.15 51.45 34.5 51.45 33.5 51.15 33.4 48.45 32.5 45.45 32.5 L36.5 32.95 35.4 33.1 Q27.3 34.25 20.45 37.5 23.9 36.85 26.35 38.65 27.45 39.5 28.6 39.7 30.35 40.0 31.4 41.5 36.35 48.65 29.5 54.55 28.45 55.5 28.05 56.7 26.7 60.4 26.05 64.45 L25.85 65.55 Q25.45 68.0 25.95 70.4 26.75 74.45 28.45 77.5 22.0 78.95 23.2 72.45 24.15 67.05 24.05 61.5 L23.55 54.5 23.25 53.45 Q18.95 52.5 14.45 52.5 L12.6 52.15 Q10.95 51.5 9.3 51.0 4.4 49.5 0.7 46.2 -0.05 45.5 0.0 44.55 0.65 30.6 15.45 29.3 18.95 29.0 22.25 27.9 L27.65 26.1 31.35 25.95 35.45 26.3 Q43.4 25.7 51.45 25.95 56.7 26.15 61.3 24.2 62.95 23.5 64.45 23.5 67.85 23.45 67.4 20.5" fill="#990000" fill-rule="evenodd" stroke="none"/>
    </g>
    <g id="sprite4" transform="matrix(1.0, 0.0, 0.0, 1.0, 0.0, 0.0)">
      <use height="114.2" transform="matrix(1.0, 0.0, 0.0, 1.0, 0.0, 0.0)" width="52.5" xlink:href="#shape4"/>
    </g>
    <g id="shape4" transform="matrix(1.0, 0.0, 0.0, 1.0, 0.0, 0.0)">
      <path d="M43.05 7.0 L42.9 24.6 Q38.85 29.35 38.85 35.35 L38.95 37.9 Q39.25 40.85 40.35 43.25 41.45 45.7 43.15 47.4 L43.75 53.05 Q44.05 55.25 46.25 56.65 48.8 58.25 50.1 60.25 48.85 62.35 48.85 65.0 48.85 68.05 50.4 70.3 51.1 71.35 52.15 72.15 52.55 78.9 52.5 86.0 52.45 89.9 50.7 92.8 47.7 97.8 45.7 102.85 45.05 104.5 44.7 106.15 44.05 109.0 43.65 111.95 L43.35 113.1 42.85 114.05 Q37.9 115.15 38.95 109.0 40.7 98.8 44.2 88.05 L44.7 85.95 Q45.8 77.2 44.25 68.95 L43.65 67.2 41.85 62.75 Q39.6 55.4 34.4 50.6 34.55 49.0 33.75 48.7 L31.1 47.85 30.15 47.6 28.95 47.35 26.1 46.8 23.8 46.6 23.45 46.3 Q20.35 43.6 15.95 43.35 11.5 43.15 8.4 45.6 5.8 47.65 5.2 51.1 L2.15 50.75 Q0.6 50.5 0.35 49.65 -1.1 44.15 3.2 42.15 L5.95 40.75 Q8.1 39.55 10.15 39.45 16.2 39.1 22.1 39.75 L34.05 40.9 Q35.55 41.0 36.3 40.25 37.05 39.5 37.05 38.0 L37.25 20.15 Q37.85 18.4 37.85 16.75 37.85 14.8 37.4 13.15 L37.55 8.0 37.75 6.9 Q39.7 1.35 44.05 0.0 43.05 3.3 43.05 7.0" fill="#990000" fill-rule="evenodd" stroke="none"/>
    </g>
  </defs>
</svg>
