<?xml version="1.0" encoding="UTF-8" standalone="no"?>
<svg xmlns:xlink="http://www.w3.org/1999/xlink" height="302.3px" width="207.9px" xmlns="http://www.w3.org/2000/svg">
  <g transform="matrix(1.0, 0.0, 0.0, 1.0, 85.3, 152.45)">
    <use height="118.25" transform="matrix(1.0, 0.0, 0.0, 1.0, -68.5, 31.6)" width="162.8" xlink:href="#shape0"/>
  </g>
  <defs>
    <g id="shape0" transform="matrix(1.0, 0.0, 0.0, 1.0, 81.4, 59.1)">
      <path d="M-3.7 -17.25 Q-10.55 -24.4 -10.55 -34.35 -10.55 -44.6 -3.3 -51.85 3.95 -59.1 14.2 -59.1 24.45 -59.1 31.7 -51.85 38.95 -44.6 38.95 -34.35 38.95 -26.9 35.15 -21.05 33.7 -18.85 31.7 -16.85 26.15 -11.3 18.9 -10.0 21.25 -8.75 26.0 -6.9 30.45 -5.2 35.65 -3.4 42.15 -0.6 49.8 1.35 L52.15 1.95 59.5 7.45 71.65 16.35 77.1 21.5 Q81.4 25.95 81.4 27.6 81.4 29.6 72.05 30.1 L71.4 30.1 64.3 27.1 63.05 26.15 59.85 23.1 50.65 11.85 Q47.5 8.1 31.55 3.35 19.35 -0.3 15.35 -0.5 L13.75 -3.3 Q13.95 -1.8 14.3 -0.5 L14.3 -0.45 14.7 1.0 15.05 2.05 13.4 2.45 11.0 3.25 Q11.3 5.05 13.3 5.25 15.45 5.45 15.75 6.25 16.15 7.4 17.3 8.7 18.6 10.25 19.6 10.25 21.25 9.9 22.6 9.15 L27.3 9.9 31.55 12.35 Q38.75 16.3 51.75 21.8 L54.1 22.8 54.4 25.75 Q54.4 28.8 52.35 32.2 50.85 34.65 49.4 35.85 L39.55 41.8 Q31.15 46.5 28.9 47.35 L7.8 56.15 Q1.35 58.8 -3.6 58.85 L-3.8 58.95 Q-6.5 59.7 -9.5 57.6 -12.6 55.4 -12.6 52.5 -12.6 50.1 -9.35 48.15 -4.3 45.2 -1.85 43.25 L-1.0 42.95 4.85 41.25 14.15 39.15 20.4 37.35 Q22.95 36.15 29.3 32.45 36.05 28.5 37.65 27.1 L38.05 25.75 37.65 25.6 37.65 24.85 37.45 25.55 -8.65 12.35 Q-23.7 8.05 -33.3 5.6 L-37.75 7.55 Q-45.8 11.0 -52.15 13.2 L-52.15 13.35 Q-50.8 23.85 -50.4 24.85 -48.05 30.85 -47.6 37.25 L-47.15 44.8 -47.3 44.95 -48.6 46.3 Q-51.9 49.35 -55.0 49.35 -57.2 49.35 -59.05 48.3 -61.95 46.65 -63.65 45.85 L-63.65 44.85 Q-63.65 44.15 -62.5 41.15 -61.4 38.1 -61.4 37.0 L-65.15 22.6 -67.35 12.85 -69.65 12.85 Q-71.65 12.6 -76.05 10.8 -81.4 8.6 -81.4 7.1 -81.4 5.25 -77.95 4.55 L-68.75 2.9 -68.9 -0.65 -68.6 -4.5 -67.7 -7.75 -65.9 -4.95 -65.5 -3.75 -66.35 -2.0 -67.25 -0.5 Q-67.25 1.0 -66.2 1.75 -63.85 3.4 -63.5 3.75 -63.5 3.0 -64.0 0.85 L-64.5 -1.75 -64.35 -3.6 -64.1 -5.25 -64.1 -5.4 -63.75 -8.05 -63.75 -8.25 -63.9 -8.9 -64.25 -9.5 Q-63.0 -9.4 -61.05 -7.9 L-60.85 -7.75 -59.25 -6.0 -59.0 -5.25 Q-58.15 -5.4 -57.6 -6.25 L-57.6 -6.35 Q-57.25 -7.0 -57.25 -7.3 L-57.25 -7.35 -57.75 -8.35 -58.5 -9.25 -47.4 -8.75 Q-45.9 -8.75 -45.75 -10.6 L-43.55 -9.9 -41.05 -8.9 Q-37.1 -7.3 -30.5 -4.25 L-29.55 -3.8 -28.4 -4.0 -19.1 -5.45 Q-14.15 -6.8 -6.0 -11.25 L2.35 -12.25 4.25 -11.6 5.25 -11.25 6.0 -11.0 7.6 -11.25 9.5 -11.5 9.5 -12.0 7.45 -12.05 Q6.65 -12.1 6.1 -12.6 L5.5 -13.25 Q5.1 -13.85 2.1 -15.2 L1.15 -15.6 -1.75 -17.25 -3.7 -17.25 M12.25 -40.75 L12.0 -40.75 Q10.45 -38.15 8.85 -33.85 7.3 -29.7 6.25 -25.5 L5.25 -25.5 Q5.0 -26.4 4.4 -26.75 L3.0 -27.25 2.75 -26.0 Q2.75 -25.15 4.25 -23.7 L5.35 -22.75 6.95 -24.2 Q8.5 -25.25 10.85 -25.25 10.85 -25.25 10.95 -25.2 L13.25 -23.95 Q13.5 -23.8 13.85 -23.6 16.65 -22.0 17.35 -22.0 L19.25 -22.25 Q19.8 -24.55 15.65 -25.1 L14.1 -25.35 Q12.55 -25.65 11.4 -26.15 9.75 -26.85 9.0 -28.0 10.0 -28.1 10.35 -29.3 11.25 -32.2 12.25 -34.25 L12.25 -40.75 M3.2 -0.35 L3.55 -1.35 1.6 -0.5 -1.65 0.7 Q-6.6 2.5 -10.15 3.1 L-11.1 2.85 -11.15 3.25 -10.15 3.1 Q-2.55 5.1 -0.85 5.1 1.2 5.1 3.2 -0.35" fill="#000000" fill-rule="evenodd" stroke="none"/>
      <path d="M15.05 2.05 Q16.85 7.0 20.6 8.55 L22.6 9.15 Q21.25 9.9 19.6 10.25 18.6 10.25 17.3 8.7 16.15 7.4 15.75 6.25 15.45 5.45 13.3 5.25 11.3 5.05 11.0 3.25 L13.4 2.45 15.05 2.05 M-67.7 -7.75 L-67.35 -8.5 Q-65.3 -12.3 -60.45 -12.4 -52.75 -12.75 -45.75 -10.6 -45.9 -8.75 -47.4 -8.75 L-58.5 -9.25 -57.75 -8.35 -57.25 -7.35 -57.25 -7.3 Q-57.25 -7.0 -57.6 -6.35 L-57.6 -6.25 Q-58.15 -5.4 -59.0 -5.25 L-59.25 -6.0 -60.85 -7.75 -61.05 -7.9 Q-63.0 -9.4 -64.25 -9.5 L-63.9 -8.9 -63.75 -8.25 -63.75 -8.05 -64.1 -5.4 -64.1 -5.25 -64.35 -3.6 -64.5 -1.75 -64.0 0.85 Q-63.5 3.0 -63.5 3.75 -63.85 3.4 -66.2 1.75 -67.25 1.0 -67.25 -0.5 L-66.35 -2.0 -65.5 -3.75 -65.9 -4.95 -67.7 -7.75 M-6.0 -11.25 Q-3.45 -12.65 -0.55 -14.4 L-1.5 -15.2 -3.3 -16.85 -3.7 -17.25 -1.75 -17.25 1.15 -15.6 2.1 -15.2 Q5.1 -13.85 5.5 -13.25 L6.1 -12.6 Q6.65 -12.1 7.45 -12.05 L9.5 -12.0 9.5 -11.5 7.6 -11.25 6.0 -11.0 5.25 -11.25 4.25 -11.6 2.35 -12.25 -6.0 -11.25 M12.25 -40.75 L12.25 -34.25 Q11.25 -32.2 10.35 -29.3 10.0 -28.1 9.0 -28.0 9.75 -26.85 11.4 -26.15 12.55 -25.65 14.1 -25.35 L15.65 -25.1 Q19.8 -24.55 19.25 -22.25 L17.35 -22.0 Q16.65 -22.0 13.85 -23.6 13.5 -23.8 13.25 -23.95 L10.95 -25.2 Q10.85 -25.25 10.85 -25.25 8.5 -25.25 6.95 -24.2 L5.35 -22.75 4.25 -23.7 Q2.75 -25.15 2.75 -26.0 L3.0 -27.25 4.4 -26.75 Q5.0 -26.4 5.25 -25.5 L6.25 -25.5 Q7.3 -29.7 8.85 -33.85 10.45 -38.15 12.0 -40.75 L12.25 -40.75" fill="#770000" fill-rule="evenodd" stroke="none"/>
    </g>
  </defs>
</svg>
