<?xml version="1.0" encoding="UTF-8" standalone="no"?>
<svg xmlns:xlink="http://www.w3.org/1999/xlink" height="4219.5px" width="2206.5px" xmlns="http://www.w3.org/2000/svg">
  <g transform="matrix(1.0, 0.0, 0.0, 1.0, 100.15, -256.4)">
    <use height="1349.3" transform="matrix(3.0553, 0.0, 0.0, 3.0553, -73.5243, 274.4633)" width="705.6" xlink:href="#sprite0"/>
    <use height="25.2" transform="matrix(1.6289, 0.0, 0.0, 1.6289, 646.0746, 1129.6373)" width="287.95" xlink:href="#sprite8"/>
  </g>
  <defs>
    <g id="sprite0" transform="matrix(1.0, 0.0, 0.0, 1.0, 312.3, 364.05)">
      <use height="651.3" transform="matrix(1.0, 0.0, 0.0, -0.6909, -31.0, 985.25)" width="172.0" xlink:href="#sprite1"/>
      <use height="503.45" transform="matrix(0.6486, 0.0, 0.0, 0.1327, -87.6, 501.55)" width="503.45" xlink:href="#sprite2"/>
      <use height="40.5" transform="matrix(0.4062, -0.9134, 0.9134, 0.4062, -71.5, 59.05)" width="122.7" xlink:href="#sprite3"/>
      <use height="40.5" transform="matrix(-0.1049, -0.9941, 0.9941, -0.1049, 120.5, 69.65)" width="122.7" xlink:href="#sprite3"/>
      <use height="651.3" transform="matrix(1.0, 0.0, 0.0, 1.0, -31.0, -105.9)" width="172.0" xlink:href="#sprite1"/>
      <use height="58.3" transform="matrix(2.5084, -0.0067, 0.0067, 2.5084, -11.25, -220.85)" width="56.85" xlink:href="#sprite4"/>
      <use height="187.05" transform="matrix(0.9659, 0.2588, -0.2588, 0.9659, 130.65, 38.95)" width="59.85" xlink:href="#sprite5"/>
      <use height="197.25" transform="matrix(-0.4221, -0.9024, 0.9024, -0.4221, -105.35, 161.6)" width="490.25" xlink:href="#sprite6"/>
      <use height="51.45" transform="matrix(-0.5115, -0.8568, 0.8568, -0.5115, -56.9, 92.6)" width="178.4" xlink:href="#sprite7"/>
    </g>
    <g id="sprite1" transform="matrix(1.0, 0.0, 0.0, 1.0, 0.0, 0.0)">
      <use height="651.3" transform="matrix(1.0, 0.0, 0.0, 1.0, 0.0, 0.0)" width="172.0" xlink:href="#shape0"/>
    </g>
    <g id="shape0" transform="matrix(1.0, 0.0, 0.0, 1.0, 0.0, 0.0)">
      <path d="M167.25 51.4 Q170.3 57.7 172.0 65.9 171.75 71.35 169.7 74.5 L163.65 74.55 163.4 74.8 162.85 74.9 158.45 74.3 156.1 74.0 154.95 73.35 152.7 70.6 152.55 70.7 155.4 76.5 154.65 76.9 151.9 78.2 152.0 78.45 151.8 78.25 143.1 70.9 Q142.6 84.55 136.8 90.55 129.65 97.95 112.55 97.0 L107.0 97.65 100.3 97.75 97.85 92.45 Q95.2 87.05 94.1 85.9 93.2 90.95 91.3 94.15 L88.9 97.25 Q71.45 95.9 62.05 91.9 52.4 87.75 44.0 76.1 37.35 65.3 36.05 64.9 L30.9 73.05 30.75 70.7 Q30.75 66.35 30.9 65.45 31.2 63.5 32.8 59.6 L32.8 59.55 30.3 64.5 28.65 67.2 28.85 67.8 29.2 67.9 27.95 69.9 Q26.35 73.7 25.3 77.3 L23.1 77.8 22.0 79.45 Q20.9 80.8 19.05 81.45 L13.75 83.65 11.8 84.05 Q2.1 79.2 3.5 64.9 3.75 61.9 4.3 59.15 L4.95 56.45 5.4 56.55 Q12.05 45.2 16.35 41.1 L18.8 38.75 Q19.25 38.45 21.45 37.5 22.4 37.05 24.05 36.65 L27.3 35.55 29.0 34.8 35.7 34.2 Q37.85 34.15 38.4 33.7 L38.9 33.2 42.45 32.9 43.4 32.8 43.45 33.0 43.95 33.0 47.1 33.0 Q48.7 33.0 52.6 31.3 L62.1 26.9 66.1 24.5 69.05 22.5 Q70.85 21.05 72.35 19.1 74.6 16.25 75.15 13.55 80.25 6.55 79.0 1.4 93.25 -1.8 107.55 2.3 107.5 13.0 109.85 18.0 112.6 23.75 114.2 25.1 116.45 27.0 125.4 30.15 L127.6 30.7 Q129.65 31.3 132.35 32.55 135.25 33.85 138.6 34.65 L141.95 35.4 149.8 39.1 Q153.75 41.0 155.7 42.15 160.05 44.75 163.65 47.9 L167.25 51.4 M112.55 97.0 L112.6 96.9 110.85 96.9 112.55 97.0 M142.2 439.65 L138.1 458.6 133.3 465.35 128.1 472.05 131.35 481.15 Q132.6 485.3 132.6 489.55 132.6 491.5 131.6 495.3 L130.6 499.25 Q130.6 500.35 135.4 509.15 L137.3 512.5 Q137.0 522.3 135.9 532.2 133.1 556.7 124.95 581.95 123.9 585.65 123.35 589.45 121.4 602.25 124.8 615.1 127.05 618.55 131.75 621.8 136.95 625.45 147.5 630.05 152.35 632.25 160.5 637.5 L158.9 638.75 Q156.9 639.9 155.25 639.3 156.7 639.85 158.7 641.95 160.75 644.1 161.6 644.45 157.55 646.0 153.45 646.25 L143.35 646.35 Q132.85 646.35 129.35 643.85 124.85 639.3 118.6 635.05 111.85 630.45 109.05 628.2 104.4 624.5 101.6 620.85 L101.6 614.7 Q102.5 614.7 104.95 613.6 107.45 612.4 108.1 612.35 L108.1 611.4 Q107.45 610.8 103.25 598.95 99.0 586.75 98.1 582.55 L98.1 585.6 99.1 592.0 Q100.1 598.95 100.1 602.4 L99.1 617.8 Q99.1 625.05 99.25 625.4 99.6 626.25 105.6 631.7 108.05 633.95 111.7 639.05 L116.65 646.15 Q116.2 647.45 114.45 648.95 L112.3 650.8 Q97.3 650.55 89.5 650.85 69.95 651.6 64.95 648.3 62.6 646.8 61.9 643.75 61.5 641.9 61.5 636.9 61.5 634.6 63.0 629.35 64.5 624.1 64.5 622.05 L64.25 619.1 64.25 618.8 64.15 618.1 Q67.3 608.2 67.5 599.65 67.65 589.85 63.95 581.95 52.35 544.3 50.95 511.45 51.6 505.45 53.55 499.6 56.55 492.4 56.55 491.45 56.55 488.75 55.8 485.45 55.05 482.15 55.05 481.55 55.05 479.4 61.0 475.7 66.6 472.25 69.05 472.05 68.7 468.95 68.15 468.55 L65.3 468.25 Q62.8 468.25 61.75 469.35 61.05 470.05 59.05 472.5 L53.05 464.7 51.15 462.1 Q45.85 443.95 41.6 426.2 42.0 418.35 42.0 410.65 42.0 404.85 39.0 385.75 L37.25 374.35 38.95 372.4 Q39.55 371.45 39.55 370.2 39.55 366.65 37.55 360.05 35.55 353.4 35.55 350.6 35.55 343.25 41.55 340.7 45.8 338.9 56.05 338.8 L57.05 338.8 65.8 339.25 Q78.35 344.35 90.15 350.85 L91.55 353.5 94.25 357.6 93.0 357.6 94.05 400.3 Q94.9 375.6 101.2 357.35 L100.7 357.4 100.9 357.15 101.2 357.35 101.25 357.35 Q111.8 363.95 121.65 371.65 123.8 378.9 129.2 385.25 L134.9 391.35 Q138.2 394.75 139.6 396.95 140.85 398.9 142.0 406.95 143.1 414.55 143.1 420.1 L142.2 439.65 M90.05 142.95 L90.05 139.45 Q90.05 136.35 91.35 127.75 L92.3 120.5 Q94.35 124.4 98.75 131.35 103.9 141.3 104.1 152.15 L104.1 152.95 103.75 152.8 101.8 155.85 Q98.8 160.0 95.6 160.9 L91.3 147.45 90.05 142.95 M96.5 458.65 Q94.6 443.45 93.4 428.5 92.2 441.2 92.5 457.25 L96.5 458.65 M91.5 515.35 L97.5 495.05 91.5 495.05 91.5 515.35" fill="#000000" fill-opacity="0.30588236" fill-rule="evenodd" stroke="none"/>
      <path d="M167.25 51.4 L163.65 47.9 Q160.05 44.75 155.7 42.15 153.75 41.0 149.8 39.1 L141.95 35.4 138.6 34.65 Q135.25 33.85 132.35 32.55 129.65 31.3 127.6 30.7 L125.4 30.15 Q116.45 27.0 114.2 25.1 112.6 23.75 109.85 18.0 107.5 13.0 107.55 2.3 L111.0 3.4 Q108.95 13.35 118.0 21.4 133.8 26.45 150.4 34.05 161.3 39.1 167.25 51.4 M75.15 13.55 Q74.6 16.25 72.35 19.1 70.85 21.05 69.05 22.5 L66.1 24.5 62.1 26.9 52.6 31.3 Q48.7 33.0 47.1 33.0 L43.95 33.0 Q43.7 32.75 43.45 32.8 L43.4 32.8 42.45 32.9 38.9 33.2 38.4 33.7 Q37.85 34.15 35.7 34.2 L29.0 34.8 27.3 35.55 24.05 36.65 Q22.4 37.05 21.45 37.5 19.25 38.45 18.8 38.75 L16.35 41.1 Q12.05 45.2 5.4 56.55 L4.95 56.4 Q9.0 42.1 23.2 34.2 L69.5 19.9 Q72.9 16.55 75.15 13.55 M11.8 84.05 L13.75 83.65 19.05 81.45 Q20.9 80.8 22.0 79.45 L23.1 77.8 25.3 77.3 Q26.35 73.7 27.95 69.9 L29.2 67.9 28.85 67.8 28.65 67.2 30.3 64.5 32.8 59.55 32.8 59.6 Q31.2 63.5 30.9 65.45 30.75 66.35 30.75 70.7 L30.9 73.05 30.45 73.6 Q28.1 76.25 25.3 77.3 23.85 82.1 23.35 86.55 16.35 86.35 11.8 84.05 M88.9 97.25 L91.3 94.15 Q93.2 90.95 94.1 85.9 95.2 87.05 97.85 92.45 L100.3 97.75 93.4 97.5 88.9 97.25 M152.0 78.45 L151.9 78.2 154.65 76.9 155.4 76.5 152.55 70.7 152.7 70.6 154.95 73.35 156.1 74.0 158.45 74.3 162.85 74.9 163.4 74.8 163.65 74.55 169.7 74.5 Q165.95 80.2 156.25 78.45 L158.7 85.0 Q155.7 81.45 152.0 78.45 M150.95 398.75 L142.2 439.65 143.1 420.1 Q143.1 414.55 142.0 406.95 140.85 398.9 139.6 396.95 138.2 394.75 134.9 391.35 L129.2 385.25 Q123.8 378.9 121.65 371.65 L130.1 378.55 Q141.0 387.9 150.95 398.75 M160.5 637.5 L160.55 637.55 Q170.0 643.65 170.0 645.65 170.0 650.5 160.0 651.3 L139.5 651.3 127.8 651.1 Q125.7 650.25 123.35 648.9 L116.5 644.25 Q116.95 645.15 116.65 646.15 L111.7 639.05 Q108.05 633.95 105.6 631.7 99.6 626.25 99.25 625.4 99.1 625.05 99.1 617.8 L100.1 602.4 Q100.1 598.95 99.1 592.0 L98.1 585.6 98.1 582.55 Q99.0 586.75 103.25 598.95 107.45 610.8 108.1 611.4 L108.1 612.35 Q107.45 612.4 104.95 613.6 102.5 614.7 101.6 614.7 L101.6 620.85 Q104.4 624.5 109.05 628.2 111.85 630.45 118.6 635.05 124.85 639.3 129.35 643.85 132.85 646.35 143.35 646.35 L153.45 646.25 Q157.55 646.0 161.6 644.45 160.75 644.1 158.7 641.95 156.7 639.85 155.25 639.3 156.9 639.9 158.9 638.75 L160.5 637.5 M41.6 426.2 Q29.3 374.7 25.5 326.45 33.1 328.2 40.45 330.4 53.5 334.15 65.8 339.25 L57.05 338.8 56.05 338.8 Q45.8 338.9 41.55 340.7 35.55 343.25 35.55 350.6 35.55 353.4 37.55 360.05 39.55 366.65 39.55 370.2 39.55 371.45 38.95 372.4 L37.25 374.35 39.0 385.75 Q42.0 404.85 42.0 410.65 42.0 418.35 41.6 426.2 M90.05 142.95 L91.3 147.45 95.6 160.9 Q98.8 160.0 101.8 155.85 L103.75 152.8 104.1 152.95 Q104.1 165.1 101.9 171.25 98.1 181.8 95.6 196.95 L95.1 196.95 Q92.35 181.95 91.25 170.15 90.15 158.45 90.05 142.95" fill="#151515" fill-opacity="0.30588236" fill-rule="evenodd" stroke="none"/>
      <path d="M30.9 73.05 L36.05 64.9 Q37.35 65.3 44.0 76.1 52.4 87.75 62.05 91.9 71.45 95.9 88.9 97.25 L93.4 97.5 100.3 97.75 107.0 97.65 112.55 97.0 Q129.65 97.95 136.8 90.55 142.6 84.55 143.1 70.9 L151.8 78.25 152.0 78.45 Q155.7 81.45 158.7 85.0 165.7 106.75 153.0 117.4 144.35 122.0 136.25 122.95 121.05 124.75 107.9 113.7 108.9 118.75 114.85 123.3 L123.6 129.45 Q125.8 132.0 126.45 133.35 L129.0 140.55 130.6 145.9 Q125.05 175.8 128.15 208.0 129.1 217.8 131.0 227.75 134.0 248.85 145.2 264.45 L145.85 268.3 147.1 275.5 Q147.1 278.05 145.25 280.5 143.6 282.65 144.1 284.95 L143.35 284.95 Q146.1 290.35 154.1 302.15 161.1 314.2 161.1 324.85 161.1 330.2 159.15 338.1 L153.6 361.05 Q153.45 362.65 150.5 374.2 L147.6 385.6 142.1 385.6 137.4 382.8 Q133.45 380.3 130.1 375.2 L130.1 378.55 121.65 371.65 Q111.8 363.95 101.25 357.35 L101.2 357.35 100.9 357.15 100.8 357.1 Q95.55 353.8 90.15 350.85 78.35 344.35 65.8 339.25 53.5 334.15 40.45 330.4 42.85 329.4 44.05 329.4 L44.05 328.95 Q39.35 326.25 34.1 324.15 28.8 322.1 27.55 321.35 L28.05 316.25 28.55 311.95 Q28.55 307.4 29.55 307.25 30.55 307.1 30.55 304.35 30.55 301.9 29.55 299.15 28.55 296.3 28.55 294.9 28.55 285.35 36.55 278.4 44.75 271.3 56.55 271.3 60.7 271.3 63.25 272.95 65.85 274.6 70.5 274.6 L70.55 274.15 Q68.0 272.5 54.8 269.35 43.5 266.75 42.55 263.75 46.75 261.55 47.55 260.85 L43.05 260.4 43.05 257.1 49.4 248.75 Q53.15 243.65 55.4 239.45 61.55 227.8 61.55 212.95 L61.25 208.0 60.45 200.15 Q63.35 162.25 51.4 129.25 54.4 123.65 57.05 122.55 59.25 121.7 70.9 117.55 78.75 114.15 82.55 110.25 63.65 122.35 47.8 120.15 40.3 119.1 33.5 114.9 21.35 103.9 23.35 86.55 23.85 82.1 25.3 77.3 28.1 76.25 30.45 73.6 L30.9 73.05 M104.1 152.95 L104.1 152.15 Q103.9 141.3 98.75 131.35 94.35 124.4 92.3 120.5 L91.35 127.75 Q90.05 136.35 90.05 139.45 L90.05 142.95 Q90.15 158.45 91.25 170.15 92.35 181.95 95.1 196.95 L95.6 196.95 Q98.1 181.8 101.9 171.25 104.1 165.1 104.1 152.95" fill="#8f0101" fill-opacity="0.30588236" fill-rule="evenodd" stroke="none"/>
      <path d="M43.95 33.0 L43.45 33.0 43.4 32.8 43.45 32.8 Q43.7 32.75 43.95 33.0 M5.4 56.55 L4.95 56.45 4.95 56.4 5.4 56.55" fill="#333333" fill-opacity="0.30588236" fill-rule="evenodd" stroke="none"/>
      <path d="M136.25 122.95 Q132.75 134.25 130.6 145.9 L129.0 140.55 126.45 133.35 Q125.8 132.0 123.6 129.45 L114.85 123.3 Q108.9 118.75 107.9 113.7 121.05 124.75 136.25 122.95 M145.2 264.45 L146.3 265.95 Q168.4 295.1 165.5 327.4 166.85 363.1 150.95 398.75 141.0 387.9 130.1 378.55 L130.1 375.2 Q133.45 380.3 137.4 382.8 L142.1 385.6 147.6 385.6 150.5 374.2 Q153.45 362.65 153.6 361.05 L159.15 338.1 Q161.1 330.2 161.1 324.85 161.1 314.2 154.1 302.15 146.1 290.35 143.35 284.95 L144.1 284.95 Q143.6 282.65 145.25 280.5 147.1 278.05 147.1 275.5 L145.85 268.3 145.2 264.45 M25.5 326.45 Q18.95 291.95 33.0 271.2 49.15 248.7 57.0 224.45 58.7 216.15 59.7 208.0 L60.45 200.15 61.25 208.0 61.55 212.95 Q61.55 227.8 55.4 239.45 53.15 243.65 49.4 248.75 L43.05 257.1 43.05 260.4 47.55 260.85 Q46.75 261.55 42.55 263.75 43.5 266.75 54.8 269.35 68.0 272.5 70.55 274.15 L70.5 274.6 Q65.85 274.6 63.25 272.95 60.7 271.3 56.55 271.3 44.75 271.3 36.55 278.4 28.55 285.35 28.55 294.9 28.55 296.3 29.55 299.15 30.55 301.9 30.55 304.35 30.55 307.1 29.55 307.25 28.55 307.4 28.55 311.95 L28.05 316.25 27.55 321.35 Q28.8 322.1 34.1 324.15 39.35 326.25 44.05 328.95 L44.05 329.4 Q42.85 329.4 40.45 330.4 33.1 328.2 25.5 326.45 M51.4 129.25 L47.8 120.15 Q63.65 122.35 82.55 110.25 78.75 114.15 70.9 117.55 59.25 121.7 57.05 122.55 54.4 123.65 51.4 129.25" fill="#5c0101" fill-opacity="0.30588236" fill-rule="evenodd" stroke="none"/>
      <path d="M135.9 532.2 L137.1 540.95 Q140.1 562.55 140.1 567.45 140.1 580.7 131.75 586.15 129.1 587.85 123.35 589.45 123.9 585.65 124.95 581.95 133.1 556.7 135.9 532.2 M67.5 599.65 L51.7 598.15 37.0 596.25 Q28.6 596.25 19.8 602.6 L11.55 608.4 Q6.05 611.95 0.0 614.2 L0.0 609.45 Q4.7 602.8 12.5 569.9 20.15 535.45 22.0 529.2 31.1 499.3 35.85 474.0 40.45 449.4 41.6 426.2 45.85 443.95 51.15 462.1 L51.95 464.85 51.95 480.9 Q50.25 495.6 50.95 511.45 52.35 544.3 63.95 581.95 67.65 589.85 67.5 599.65 M94.25 357.6 L100.7 357.4 101.2 357.35 Q94.9 375.6 94.05 400.3 L93.0 357.6 94.25 357.6 M91.5 515.35 L91.5 495.05 97.5 495.05 91.5 515.35" fill="#8f0101" fill-opacity="0.21960784" fill-rule="evenodd" stroke="none"/>
      <path d="M90.15 350.85 Q95.55 353.8 100.8 357.1 L100.9 357.15 100.7 357.4 94.25 357.6 91.55 353.5 90.15 350.85" fill="#430101" fill-opacity="0.30588236" fill-rule="evenodd" stroke="none"/>
      <path d="M96.5 458.65 L92.5 457.25 Q92.2 441.2 93.4 428.5 94.6 443.45 96.5 458.65" fill="#8f0101" fill-opacity="0.1882353" fill-rule="evenodd" stroke="none"/>
      <path d="M138.1 458.6 L135.95 468.65 135.95 481.85 Q137.7 497.0 137.3 512.5 L135.4 509.15 Q130.6 500.35 130.6 499.25 L131.6 495.3 Q132.6 491.5 132.6 489.55 132.6 485.3 131.35 481.15 L128.1 472.05 133.3 465.35 138.1 458.6 M51.15 462.1 L53.05 464.7 59.05 472.5 Q61.05 470.05 61.75 469.35 62.8 468.25 65.3 468.25 L68.15 468.55 Q68.7 468.95 69.05 472.05 66.6 472.25 61.0 475.7 55.05 479.4 55.05 481.55 55.05 482.15 55.8 485.45 56.55 488.75 56.55 491.45 56.55 492.4 53.55 499.6 51.6 505.45 50.95 511.45 50.25 495.6 51.95 480.9 L51.95 464.85 51.15 462.1" fill="#2b2b2b" fill-opacity="0.30588236" fill-rule="evenodd" stroke="none"/>
      <path d="M21.55 361.0 Q22.55 360.05 22.55 359.1 L23.05 359.1" fill="none" stroke="#ff0000" stroke-linecap="round" stroke-linejoin="round" stroke-opacity="0.30588236" stroke-width="0.05"/>
    </g>
    <g id="sprite2" transform="matrix(1.0, 0.0, 0.0, 1.0, 0.0, 0.0)">
      <use height="503.45" transform="matrix(1.0, 0.0, 0.0, 1.0, 0.0, 0.0)" width="503.45" xlink:href="#shape1"/>
    </g>
    <g id="shape1" transform="matrix(1.0, 0.0, 0.0, 1.0, 0.0, 0.0)">
      <path d="M429.7 73.7 Q503.45 147.4 503.45 251.7 503.45 356.0 429.7 429.7 356.0 503.45 251.7 503.45 147.4 503.45 73.7 429.7 0.0 356.0 0.0 251.7 0.0 147.4 73.7 73.7 147.4 0.0 251.7 0.0 356.0 0.0 429.7 73.7" fill="url(#gradient0)" fill-rule="evenodd" stroke="none"/>
    </g>
    <radialGradient cx="0" cy="0" gradientTransform="matrix(0.3104, 0.0, 0.0, 0.3104, 251.75, 251.75)" gradientUnits="userSpaceOnUse" id="gradient0" r="819.2" spreadMethod="pad">
      <stop offset="0.050980392156862744" stop-color="#000000" stop-opacity="0.54901963"/>
      <stop offset="0.9450980392156862" stop-color="#000000" stop-opacity="0.0"/>
    </radialGradient>
    <g id="sprite3" transform="matrix(1.0, 0.0, 0.0, 1.0, 0.0, 0.0)">
      <use height="40.5" transform="matrix(1.0, 0.0, 0.0, 1.0, 0.0, 0.0)" width="122.7" xlink:href="#shape2"/>
    </g>
    <g id="shape2" transform="matrix(1.0, 0.0, 0.0, 1.0, 0.0, 0.0)">
      <path d="M122.6 14.9 Q120.85 30.45 107.1 32.45 L13.45 40.5 Q1.55 38.55 0.0 21.3 1.0 7.7 14.65 4.45 L112.4 0.0 Q123.65 3.0 122.6 14.9" fill="#000000" fill-rule="evenodd" stroke="none"/>
    </g>
    <g id="sprite4" transform="matrix(1.0, 0.0, 0.0, 1.0, 0.0, 0.0)">
      <use height="58.3" transform="matrix(1.0, 0.0, 0.0, 1.0, 0.0, 0.0)" width="56.85" xlink:href="#shape3"/>
    </g>
    <g id="shape3" transform="matrix(1.0, 0.0, 0.0, 1.0, 0.0, 0.0)">
      <path d="M42.4 4.45 Q46.2 6.15 47.35 7.25 L50.4 10.6 53.1 13.75 Q55.9 17.5 56.6 22.25 L56.6 22.4 56.85 32.25 Q56.85 43.35 56.65 44.65 L55.7 48.75 53.1 58.25 53.05 58.3 52.15 56.65 51.35 55.5 51.25 55.45 52.85 51.0 52.85 49.5 51.35 50.65 Q50.5 51.35 49.35 51.25 L49.35 50.0 50.45 48.75 Q52.4 45.85 53.8 38.45 55.5 29.45 54.85 23.25 53.8 25.5 53.6 26.9 53.8 24.75 53.15 22.25 52.15 18.8 49.5 14.7 L42.4 4.45 M7.8 41.25 L8.0 48.75 8.1 52.25 5.55 48.75 5.05 48.05 4.6 47.35 4.6 43.25 5.85 44.0 6.1 41.6 5.6 38.35 Q5.6 37.1 6.05 35.5 L6.7 33.3 Q7.35 31.55 8.1 30.55 7.9 31.9 7.85 33.25 L7.8 35.5 7.8 41.25 M1.3 36.6 L1.2 35.5 Q1.0 32.7 1.15 29.3 2.2 28.3 2.35 26.05 2.1 21.4 2.35 20.0 L1.6 20.7 Q1.15 21.15 0.85 21.75 L0.7 21.7 Q1.6 19.4 3.8 16.95 L5.15 15.5 11.6 9.0 11.85 8.75 14.95 8.3 18.35 7.75 18.4 7.8 Q13.4 9.2 8.8 15.0 6.3 18.15 5.15 21.15 4.1 23.8 4.1 26.35 4.1 27.3 4.5 27.25 4.85 27.2 4.85 27.75 4.85 28.6 3.6 30.35 2.35 32.05 2.35 33.5 L2.5 35.5 2.5 35.9 2.85 38.75 2.75 38.85 1.3 36.6 M24.5 2.65 L25.35 2.5 27.75 2.2 29.35 0.9 30.85 0.0 35.0 1.5 34.35 2.5 33.6 3.75 33.05 3.4 32.35 3.25 Q29.0 5.1 27.6 6.5 L28.1 6.5 24.4 9.35 Q21.55 11.4 21.1 12.0 L23.85 7.25 21.6 7.5 21.6 7.0 23.6 4.0 24.5 2.65 M44.6 22.25 Q43.8 19.9 42.65 18.1 38.9 12.25 30.1 10.25 28.35 10.3 26.6 10.9 L25.6 11.3 27.65 9.55 Q29.75 8.0 30.85 8.0 32.95 8.0 34.5 8.75 L39.6 11.5 39.5 11.3 39.35 11.25 Q36.6 9.4 32.6 5.0 L35.35 5.0 Q40.45 5.2 45.5 14.05 47.9 18.2 49.2 22.25 50.5 26.55 50.6 30.75 L50.6 34.25 47.85 30.75 48.0 42.1 Q48.05 45.95 46.9 48.75 46.2 50.45 45.1 51.75 L46.1 48.75 46.55 45.2 46.6 37.25 Q46.6 28.05 44.6 22.25" fill="#4d4d4d" fill-rule="evenodd" stroke="none"/>
      <path d="M51.35 55.5 L51.3 55.55 51.2 55.6 49.75 55.95 Q48.5 56.15 47.85 56.5 45.1 58.0 44.25 58.0 L41.4 57.85 40.8 57.75 Q37.75 57.15 37.6 55.25 L35.6 55.5 35.6 53.5 36.15 52.5 37.9 48.75 Q38.8 46.45 39.15 44.35 39.35 42.95 39.35 37.25 39.35 31.65 38.95 28.0 L38.35 24.5 37.7 22.25 Q35.1 15.0 28.6 15.0 27.1 15.0 26.15 16.2 29.4 17.65 30.8 22.25 31.85 25.75 31.85 31.1 31.85 35.1 31.25 37.2 L28.35 43.75 Q28.35 40.55 28.85 37.7 29.35 34.8 29.35 32.0 L29.1 24.1 28.7 22.25 Q27.75 19.25 25.55 17.2 L24.95 18.15 23.9 17.25 22.85 16.0 Q21.8 16.5 20.85 17.5 L20.85 16.0 19.55 16.0 18.8 15.3 17.5 14.25 Q14.85 14.25 11.5 20.5 L10.65 22.25 Q8.7 26.4 8.1 30.55 7.35 31.55 6.7 33.3 L6.05 35.5 Q5.6 37.1 5.6 38.35 L6.1 41.6 5.85 44.0 4.6 43.25 4.6 47.35 Q3.0 44.6 2.85 41.25 L2.6 41.0 2.5 41.4 2.35 42.0 Q1.6 39.75 1.3 36.6 L2.75 38.85 2.85 38.75 2.5 35.9 2.5 35.5 2.35 33.5 Q2.35 32.05 3.6 30.35 4.85 28.6 4.85 27.75 4.85 27.2 4.5 27.25 4.1 27.3 4.1 26.35 4.1 23.8 5.15 21.15 6.3 18.15 8.8 15.0 13.4 9.2 18.4 7.8 L18.35 7.75 14.95 8.3 11.85 8.75 11.9 8.65 Q14.95 5.15 21.25 3.4 L24.5 2.65 23.6 4.0 21.6 7.0 21.6 7.5 23.85 7.25 21.1 12.0 Q21.55 11.4 24.4 9.35 L28.1 6.5 27.6 6.5 Q29.0 5.1 32.35 3.25 L33.05 3.4 33.6 3.75 34.35 2.5 35.0 1.5 37.75 2.5 38.15 2.65 42.4 4.45 49.5 14.7 Q52.15 18.8 53.15 22.25 53.8 24.75 53.6 26.9 53.8 25.5 54.85 23.25 55.5 29.45 53.8 38.45 52.4 45.85 50.45 48.75 L49.35 50.0 49.35 51.25 Q50.5 51.35 51.35 50.65 L52.85 49.5 52.85 51.0 51.25 55.45 51.35 55.5 M1.15 29.3 L1.35 26.0 0.1 26.0 Q-0.2 23.95 0.65 21.75 L0.7 21.7 0.85 21.75 Q1.15 21.15 1.6 20.7 L2.35 20.0 Q2.1 21.4 2.35 26.05 2.2 28.3 1.15 29.3 M44.6 22.25 Q46.6 28.05 46.6 37.25 L46.55 45.2 46.1 48.75 45.1 51.75 Q46.2 50.45 46.9 48.75 48.05 45.95 48.0 42.1 L47.85 30.75 50.6 34.25 50.6 30.75 Q50.5 26.55 49.2 22.25 47.9 18.2 45.5 14.05 40.45 5.2 35.35 5.0 L32.6 5.0 Q36.6 9.4 39.35 11.25 L39.5 11.3 39.6 11.5 34.5 8.75 Q32.95 8.0 30.85 8.0 29.75 8.0 27.65 9.55 L25.6 11.3 26.6 10.9 Q28.35 10.3 30.1 10.25 38.9 12.25 42.65 18.1 43.8 19.9 44.6 22.25" fill="#666666" fill-rule="evenodd" stroke="none"/>
      <path d="M36.15 52.5 L33.15 53.15 19.75 51.65 Q17.05 50.55 14.65 48.75 L12.15 46.65 11.65 46.15 Q9.35 43.85 7.8 41.25 L7.8 35.5 7.85 33.25 Q7.9 31.9 8.1 30.55 8.7 26.4 10.65 22.25 L11.5 20.5 Q14.85 14.25 17.5 14.25 L18.8 15.3 19.55 16.0 20.85 16.0 20.85 17.5 Q21.8 16.5 22.85 16.0 L23.9 17.25 24.95 18.15 25.55 17.2 Q27.75 19.25 28.7 22.25 L29.1 24.1 29.35 32.0 Q29.35 34.8 28.85 37.7 28.35 40.55 28.35 43.75 L31.25 37.2 Q31.85 35.1 31.85 31.1 31.85 25.75 30.8 22.25 29.4 17.65 26.15 16.2 27.1 15.0 28.6 15.0 35.1 15.0 37.7 22.25 L38.35 24.5 38.95 28.0 Q39.35 31.65 39.35 37.25 39.35 42.95 39.15 44.35 38.8 46.45 37.9 48.75 L36.15 52.5" fill="#000000" fill-rule="evenodd" stroke="none"/>
      <path d="M7.0 34.55 L7.4 35.05 7.35 35.1 Q5.65 33.75 5.0 31.7 L5.1 31.6 4.95 31.0 4.7 30.4 Q4.6 30.25 4.5 30.4 3.9 28.45 3.95 26.4 L4.05 24.95 5.25 23.4 7.6 23.35 7.65 23.45 8.7 23.7 8.7 23.8 14.35 25.8 14.6 25.75 Q16.45 26.6 18.4 27.05 24.4 28.4 30.4 26.9 L35.85 26.2 38.7 26.45 39.75 26.6 39.75 26.95 40.2 27.0 40.55 27.7 Q41.15 28.95 40.95 30.4 L40.9 30.4 40.9 30.45 40.85 31.1 Q40.6 33.15 39.55 35.0 L38.7 36.3 36.55 38.15 34.95 38.85 30.75 39.2 32.35 39.1 34.9 38.45 36.6 37.55 Q38.1 36.5 39.1 34.75 39.8 33.5 39.95 32.05 L39.95 31.85 40.25 29.5 39.6 29.7 38.15 30.35 35.9 31.5 Q30.65 34.2 24.7 35.05 L24.65 35.15 Q23.95 35.75 23.45 34.75 L23.25 34.1 22.6 32.85 22.15 32.2 21.0 32.0 20.75 32.0 Q20.35 32.1 20.0 32.35 L19.0 34.15 18.7 34.2 18.8 34.5 18.6 34.7 16.65 36.3 18.0 34.6 Q13.7 34.1 10.65 31.15 L10.6 31.0 10.4 30.95 10.25 30.95 10.05 30.9 9.9 30.85 9.8 30.75 9.65 30.6 9.55 30.5 9.55 30.3 8.35 29.9 Q7.45 29.6 6.7 29.0 L4.95 27.25 4.9 27.55 4.8 27.85 4.7 28.4 4.7 28.95 4.75 29.2 4.85 29.75 Q5.15 32.15 6.65 34.05 L6.95 34.45 7.0 34.55" fill="#959595" fill-rule="evenodd" stroke="none"/>
      <path d="M7.0 34.55 L6.95 34.45 6.65 34.05 Q5.15 32.15 4.85 29.75 L5.55 30.6 Q9.85 35.1 15.95 36.4 L15.25 36.6 Q11.65 37.75 8.5 35.85 L8.0 35.5 7.0 34.55 M39.95 31.85 L39.95 32.05 Q39.8 33.5 39.1 34.75 38.1 36.5 36.6 37.55 L34.9 38.45 32.35 39.1 30.75 39.2 28.15 38.8 27.85 38.7 27.8 38.6 27.2 38.25 26.3 37.25 32.25 36.1 35.3 34.95 35.25 35.2 37.4 33.8 39.95 31.85" fill="#e1e1e1" fill-rule="evenodd" stroke="none"/>
      <path d="M4.85 29.75 L4.75 29.2 4.7 28.95 4.7 28.4 4.8 27.85 4.9 27.55 4.95 27.25 6.7 29.0 Q7.45 29.6 8.35 29.9 L9.55 30.3 9.55 30.5 9.65 30.6 9.8 30.75 9.9 30.85 10.05 30.9 10.25 30.95 10.4 30.95 10.6 31.0 10.65 31.15 Q13.7 34.1 18.0 34.6 L16.65 36.3 18.6 34.7 Q18.3 35.55 17.5 36.1 13.0 39.05 8.45 36.0 L8.5 35.9 8.5 35.85 Q11.65 37.75 15.25 36.6 L15.95 36.4 Q9.85 35.1 5.55 30.6 L4.85 29.75 M23.45 34.75 Q23.95 35.75 24.65 35.15 L24.7 35.05 Q30.65 34.2 35.9 31.5 L38.15 30.35 39.6 29.7 40.25 29.5 39.95 31.85 37.4 33.8 35.25 35.2 35.3 34.95 32.25 36.1 26.3 37.25 27.2 38.25 27.8 38.6 27.75 38.65 Q24.7 37.7 23.45 34.75" fill="#bbbbbb" fill-rule="evenodd" stroke="none"/>
      <path d="M42.4 4.45 Q46.2 6.15 47.35 7.25 L50.4 10.6 53.1 13.75 Q55.9 17.5 56.6 22.25 L56.6 22.4 56.85 32.25 Q56.85 43.35 56.65 44.65 L55.7 48.75 53.1 58.25 53.05 58.3 52.15 56.65 51.35 55.5 51.25 55.45 52.85 51.0 52.85 49.5 51.35 50.65 Q50.5 51.35 49.35 51.25 L49.35 50.0 50.45 48.75 Q52.4 45.85 53.8 38.45 55.5 29.45 54.85 23.25 53.8 25.5 53.6 26.9 53.8 24.75 53.15 22.25 52.15 18.8 49.5 14.7 L42.4 4.45 M8.1 30.55 Q7.9 31.9 7.85 33.25 L7.8 35.5 7.8 41.25 8.0 48.75 8.1 52.25 5.55 48.75 5.05 48.05 4.6 47.35 4.6 43.25 5.85 44.0 6.1 41.6 5.6 38.35 Q5.6 37.1 6.05 35.5 L6.7 33.3 Q7.35 31.55 8.1 30.55 M1.3 36.6 L1.2 35.5 Q1.0 32.7 1.15 29.3 2.2 28.3 2.35 26.05 2.1 21.4 2.35 20.0 L1.6 20.7 Q1.15 21.15 0.85 21.75 L0.7 21.7 Q1.6 19.4 3.8 16.95 L5.15 15.5 11.6 9.0 11.85 8.75 14.95 8.3 18.35 7.75 18.4 7.8 Q13.4 9.2 8.8 15.0 6.3 18.15 5.15 21.15 4.1 23.8 4.1 26.35 4.1 27.3 4.5 27.25 4.85 27.2 4.85 27.75 4.85 28.6 3.6 30.35 2.35 32.05 2.35 33.5 L2.5 35.5 2.5 35.9 2.85 38.75 2.75 38.85 1.3 36.6 M24.5 2.65 L25.35 2.5 27.75 2.2 29.35 0.9 30.85 0.0 35.0 1.5 34.35 2.5 33.6 3.75 33.05 3.4 32.35 3.25 Q29.0 5.1 27.6 6.5 L28.1 6.5 24.4 9.35 Q21.55 11.4 21.1 12.0 L23.85 7.25 21.6 7.5 21.6 7.0 23.6 4.0 24.5 2.65 M45.5 14.05 Q47.9 18.2 49.2 22.25 50.5 26.55 50.6 30.75 L50.6 34.25 47.85 30.75 48.0 42.1 Q48.05 45.95 46.9 48.75 46.2 50.45 45.1 51.75 L46.1 48.75 46.55 45.2 46.6 37.25 Q46.6 28.05 44.6 22.25 43.8 19.9 42.65 18.1 38.9 12.25 30.1 10.25 28.35 10.3 26.6 10.9 L25.6 11.3 27.65 9.55 Q29.75 8.0 30.85 8.0 32.95 8.0 34.5 8.75 L39.6 11.5 39.5 11.3 39.35 11.25 Q36.6 9.4 32.6 5.0 L35.35 5.0 Q40.45 5.2 45.5 14.05" fill="#4d4d4d" fill-rule="evenodd" stroke="none"/>
      <path d="M51.35 55.5 L51.3 55.55 51.2 55.6 49.75 55.95 Q48.5 56.15 47.85 56.5 45.1 58.0 44.25 58.0 L41.4 57.85 40.8 57.75 Q37.75 57.15 37.6 55.25 L35.6 55.5 35.6 53.5 36.15 52.5 37.9 48.75 Q38.8 46.45 39.15 44.35 39.35 42.95 39.35 37.25 39.35 31.65 38.95 28.0 L38.35 24.5 37.7 22.25 Q35.1 15.0 28.6 15.0 27.1 15.0 26.15 16.2 29.4 17.65 30.8 22.25 31.85 25.75 31.85 31.1 31.85 35.1 31.25 37.2 L28.35 43.75 Q28.35 40.55 28.85 37.7 29.35 34.8 29.35 32.0 L29.1 24.1 28.7 22.25 Q27.75 19.25 25.55 17.2 L24.95 18.15 23.9 17.25 22.85 16.0 Q21.8 16.5 20.85 17.5 L20.85 16.0 19.55 16.0 18.8 15.3 17.5 14.25 Q14.85 14.25 11.5 20.5 L10.65 22.25 Q8.7 26.4 8.1 30.55 7.35 31.55 6.7 33.3 L6.05 35.5 Q5.6 37.1 5.6 38.35 L6.1 41.6 5.85 44.0 4.6 43.25 4.6 47.35 Q3.0 44.6 2.85 41.25 L2.6 41.0 2.5 41.4 2.35 42.0 Q1.6 39.75 1.3 36.6 L2.75 38.85 2.85 38.75 2.5 35.9 2.5 35.5 2.35 33.5 Q2.35 32.05 3.6 30.35 4.85 28.6 4.85 27.75 4.85 27.2 4.5 27.25 4.1 27.3 4.1 26.35 4.1 23.8 5.15 21.15 6.3 18.15 8.8 15.0 13.4 9.2 18.4 7.8 L18.35 7.75 14.95 8.3 11.85 8.75 11.9 8.65 Q14.95 5.15 21.25 3.4 L24.5 2.65 23.6 4.0 21.6 7.0 21.6 7.5 23.85 7.25 21.1 12.0 Q21.55 11.4 24.4 9.35 L28.1 6.5 27.6 6.5 Q29.0 5.1 32.35 3.25 L33.05 3.4 33.6 3.75 34.35 2.5 35.0 1.5 37.75 2.5 38.15 2.65 42.4 4.45 49.5 14.7 Q52.15 18.8 53.15 22.25 53.8 24.75 53.6 26.9 53.8 25.5 54.85 23.25 55.5 29.45 53.8 38.45 52.4 45.85 50.45 48.75 L49.35 50.0 49.35 51.25 Q50.5 51.35 51.35 50.65 L52.85 49.5 52.85 51.0 51.25 55.45 51.35 55.5 M1.15 29.3 L1.35 26.0 0.1 26.0 Q-0.2 23.95 0.65 21.75 L0.7 21.7 0.85 21.75 Q1.15 21.15 1.6 20.7 L2.35 20.0 Q2.1 21.4 2.35 26.05 2.2 28.3 1.15 29.3 M45.5 14.05 Q40.45 5.2 35.35 5.0 L32.6 5.0 Q36.6 9.4 39.35 11.25 L39.5 11.3 39.6 11.5 34.5 8.75 Q32.95 8.0 30.85 8.0 29.75 8.0 27.65 9.55 L25.6 11.3 26.6 10.9 Q28.35 10.3 30.1 10.25 38.9 12.25 42.65 18.1 43.8 19.9 44.6 22.25 46.6 28.05 46.6 37.25 L46.55 45.2 46.1 48.75 45.1 51.75 Q46.2 50.45 46.9 48.75 48.05 45.95 48.0 42.1 L47.85 30.75 50.6 34.25 50.6 30.75 Q50.5 26.55 49.2 22.25 47.9 18.2 45.5 14.05" fill="#666666" fill-rule="evenodd" stroke="none"/>
    </g>
    <g id="sprite5" transform="matrix(1.0, 0.0, 0.0, 1.0, 0.0, 0.0)">
      <use height="187.05" transform="matrix(1.0, 0.0, 0.0, 1.0, 0.0, 0.0)" width="59.85" xlink:href="#shape4"/>
    </g>
    <g id="shape4" transform="matrix(1.0, 0.0, 0.0, 1.0, 0.0, 0.0)">
      <path d="M40.3 21.65 Q42.4 30.05 42.95 43.4 L43.2 67.7 Q43.2 74.65 40.25 88.35 37.3 102.15 37.3 108.45 37.3 119.75 40.35 133.3 L41.05 136.35 Q46.85 138.9 47.25 138.9 L47.55 139.0 48.15 139.1 Q49.25 139.1 51.0 141.5 52.65 143.7 52.65 144.3 52.65 145.5 51.9 146.05 L50.2 147.2 Q47.7 149.4 47.7 157.5 47.7 160.05 50.25 164.7 L54.0 170.85 Q56.25 174.9 59.85 183.0 59.85 183.4 59.65 183.3 59.4 183.25 59.4 183.6 L57.6 185.45 Q55.65 187.05 54.75 187.05 L53.35 186.85 51.95 186.6 Q51.4 186.6 49.75 185.7 48.1 184.8 47.15 184.8 L45.15 184.0 Q43.2 183.15 42.2 183.15 41.5 183.15 40.5 182.3 39.5 181.4 38.25 181.4 L37.2 180.95 36.15 180.45 34.5 179.45 33.15 178.4 Q32.15 178.4 27.6 171.3 23.1 164.2 23.1 162.8 L22.0 160.95 Q20.85 159.3 20.85 157.8 L21.5 156.3 21.35 154.7 20.6 154.2 Q17.65 151.95 17.65 144.75 17.65 143.8 18.65 138.55 L19.65 138.55 19.45 133.65 19.65 130.5 19.2 130.6 Q17.45 113.55 9.8 85.9 4.3 66.15 3.1 60.9 0.0 48.1 0.0 40.75 0.0 26.8 2.95 15.7 7.1 0.0 15.7 0.0 34.8 0.0 40.3 21.65" fill="#000000" fill-rule="evenodd" stroke="none"/>
    </g>
    <g id="sprite6" transform="matrix(1.0, 0.0, 0.0, 1.0, 0.0, 0.0)">
      <use height="197.25" transform="matrix(1.0, 0.0, 0.0, 1.0, 0.0, 0.0)" width="490.25" xlink:href="#shape5"/>
    </g>
    <g id="shape5" transform="matrix(1.0, 0.0, 0.0, 1.0, 0.0, 0.0)">
      <path d="M366.0 77.15 Q366.9 74.85 366.65 72.8 L365.75 70.5 366.85 70.8 Q367.6 73.85 366.1 77.15 L366.0 77.15 M298.9 55.75 L299.15 55.8 305.7 57.8 316.2 61.6 Q323.9 64.45 327.55 65.35 L331.75 66.7 335.25 67.7 337.45 68.55 Q338.2 68.9 339.2 69.25 L340.25 69.55 Q341.25 69.8 342.1 70.2 350.0 74.2 354.85 75.5 L365.9 77.5 365.6 78.1 365.4 78.4 365.3 78.75 364.05 80.85 Q363.4 81.65 361.3 82.3 L357.45 83.15 Q355.35 83.55 354.9 83.85 L354.75 84.0 354.65 84.05 Q351.2 83.3 347.35 81.85 L334.8 77.95 330.25 76.55 327.15 75.9 295.15 59.55 296.6 56.9 296.7 56.75 296.7 56.55 297.4 55.5 298.9 55.75 M315.6 78.0 L316.45 76.55 317.85 75.5 325.15 77.85 327.5 79.85 327.45 79.85 319.85 77.55 317.85 81.45 315.15 78.7 315.6 78.0 M380.8 95.5 L381.7 93.7 384.7 95.65 383.1 98.65 382.7 98.45 380.9 97.1 380.75 97.05 380.25 96.55 380.8 95.5 M489.8 131.55 L485.6 138.25 484.05 138.8 474.3 136.7 473.6 134.85 472.4 134.35 471.25 134.65 469.75 133.5 469.85 131.55 402.8 115.35 402.8 115.1 403.15 114.45 472.95 130.65 Q476.25 131.15 478.6 128.1 L478.95 128.2 479.25 128.45 489.8 131.55 M401.5 116.25 Q397.75 119.05 393.1 118.65 L369.15 113.05 Q368.8 113.5 368.6 114.25 L368.5 115.15 369.25 115.4 372.2 116.45 Q372.65 116.6 372.35 117.85 371.75 119.45 372.3 121.0 L373.9 124.8 Q374.05 126.1 372.85 128.25 L372.1 129.4 371.1 129.7 370.8 130.3 372.8 131.9 372.35 185.85 369.4 185.9 368.65 187.25 368.65 187.35 371.1 188.85 381.2 196.65 372.25 197.25 360.6 188.1 360.25 186.8 366.2 186.6 366.4 186.1 363.3 185.8 363.95 131.65 365.2 129.2 364.95 128.65 364.7 127.85 363.7 127.2 362.95 126.45 Q362.3 125.85 362.5 124.5 L362.6 121.95 Q362.55 121.25 361.55 120.25 L360.45 118.75 359.6 116.8 Q359.45 115.9 359.75 114.65 L353.8 115.2 346.5 113.5 346.45 113.4 305.45 131.9 307.1 133.5 300.25 135.25 298.15 133.55 295.5 132.75 290.4 134.55 288.0 126.2 297.05 126.2 300.9 127.6 300.45 128.2 301.2 127.4 339.4 110.1 339.55 109.95 340.9 108.45 Q341.65 107.7 343.15 107.05 L319.0 101.4 316.1 103.45 309.1 102.3 306.65 101.2 298.35 86.95 293.85 84.15 292.85 83.85 Q288.6 82.3 272.85 77.9 265.35 75.65 258.0 74.45 L254.65 73.85 250.95 73.1 245.8 71.9 241.35 70.85 239.9 70.05 240.05 69.7 243.55 69.2 246.65 68.85 268.45 74.85 280.55 78.1 285.95 79.3 290.95 80.2 Q300.95 82.45 303.2 83.45 307.3 85.55 304.4 90.85 L304.1 91.35 401.5 116.25 M212.6 126.3 L203.7 117.05 211.55 102.25 212.25 99.5 Q207.25 99.8 203.1 98.5 199.0 97.2 195.35 94.55 193.9 93.9 190.35 97.0 L185.45 90.5 187.3 86.5 187.15 85.75 182.6 86.4 182.75 90.55 158.55 104.5 164.9 109.75 172.0 111.15 172.5 113.55 Q171.15 115.3 168.5 114.7 162.25 112.75 156.4 109.75 154.7 108.85 152.7 107.6 149.65 106.4 147.75 103.0 L147.7 102.85 149.5 100.85 181.6 82.1 183.7 78.3 177.7 68.55 178.85 68.5 180.9 69.05 188.2 82.9 203.3 85.7 198.15 93.9 Q207.15 99.15 214.95 94.6 L216.25 95.85 216.75 99.25 222.4 102.45 223.7 103.3 212.6 126.3 M38.5 67.25 L37.7 69.4 30.8 68.4 22.65 87.65 21.0 91.45 Q16.45 92.95 14.05 89.5 L15.95 84.65 22.9 66.25 20.05 64.6 41.25 26.4 41.75 25.55 55.9 29.55 55.1 31.1 55.05 31.25 36.95 64.7 38.5 67.25 M197.95 45.7 L197.9 45.65 199.95 41.1 198.2 39.7 200.0 36.55 200.35 36.3 Q193.95 32.45 191.75 29.4 189.05 25.25 192.05 19.95 L192.7 18.75 202.2 21.55 201.05 23.25 Q199.4 26.35 200.0 28.3 200.8 30.0 204.1 32.25 L203.55 33.55 202.55 35.15 Q202.45 35.45 201.55 35.7 L200.45 36.3 200.6 36.35 200.7 36.4 201.25 36.55 Q202.65 37.25 203.6 37.25 L204.7 37.35 205.6 37.7 204.75 39.15 219.45 44.05 220.55 46.25 224.35 47.75 222.5 50.85 217.25 50.3 216.95 51.2 227.75 54.3 233.75 59.1 234.85 59.95 204.85 51.9 197.95 45.7 M229.75 29.7 L230.35 30.1 230.6 32.4 230.45 36.15 Q229.9 39.3 228.25 42.35 L227.75 43.2 224.75 42.45 225.8 42.15 227.2 39.7 Q227.8 38.0 228.45 37.05 L229.0 35.8 229.4 34.5 Q229.45 32.75 229.6 32.25 L229.75 29.7 M243.0 33.8 L244.5 34.2 245.2 35.9 Q245.95 38.3 244.7 40.35 L244.65 40.4 Q243.7 41.9 241.95 42.95 L241.1 43.4 Q241.8 42.9 242.95 40.75 L243.45 40.0 244.1 38.45 Q244.35 36.9 243.1 34.05 L243.0 33.8 M280.05 44.8 L284.5 46.15 285.05 47.0 Q286.2 49.35 284.9 51.65 L284.6 52.45 284.55 52.4 284.25 51.55 Q283.6 50.4 282.35 49.35 282.6 47.95 280.95 46.0 L280.05 44.8 M354.0 95.8 Q354.7 96.15 355.75 96.5 L355.85 96.6 Q357.3 97.25 357.7 98.0 358.35 98.95 357.7 100.0 L357.6 100.1 356.85 100.85 354.85 100.25 Q354.15 99.85 354.0 99.4 L353.9 99.1 354.15 97.8 353.55 96.9 Q353.05 96.4 353.2 96.15 L353.7 95.75 353.9 95.75 354.0 95.8 M361.35 98.6 L361.95 98.45 Q362.65 98.35 363.6 98.9 L365.15 100.15 Q366.35 101.35 366.25 101.85 365.9 102.55 364.65 102.6 363.6 102.6 362.1 101.95 L360.65 100.75 Q360.3 100.1 360.5 99.35 360.9 98.9 361.35 98.6 M367.75 102.2 L367.75 101.85 Q368.1 101.4 368.85 101.05 L370.0 101.05 370.75 101.3 Q371.8 101.85 372.45 102.55 L372.85 103.3 372.85 103.85 372.35 104.55 Q371.85 104.8 370.15 104.1 L370.05 103.95 Q368.0 102.85 367.75 102.2 M376.65 102.55 L377.2 102.35 Q377.6 102.65 378.15 102.85 379.4 103.75 379.45 104.6 L379.2 105.15 Q378.55 106.4 377.75 106.0 L376.5 104.8 375.8 103.9 Q375.4 103.3 375.65 103.0 375.65 102.9 376.65 102.55 M394.4 109.1 L393.8 109.8 Q393.3 110.1 392.2 109.5 L390.85 108.65 Q390.55 108.1 390.85 107.45 L391.4 106.95 391.6 106.85 392.3 106.75 392.95 107.2 393.35 107.35 Q394.7 108.45 394.4 109.1 M387.4 106.15 L387.35 106.65 Q386.5 108.2 384.95 107.4 383.15 106.5 383.35 105.3 L383.75 104.3 385.9 105.1 386.85 105.6 387.4 106.15 M295.6 90.85 L209.15 69.3 211.7 64.8 211.8 64.8 Q223.15 66.95 233.75 70.5 L224.6 69.8 Q222.65 70.35 224.4 71.7 L238.75 74.75 294.05 88.7 295.0 89.75 295.6 90.85 M289.0 93.5 L292.4 94.35 286.25 102.05 284.25 102.05 289.0 93.5 M205.75 85.45 L210.25 86.65 Q205.5 90.95 207.9 95.3 200.75 92.5 205.75 85.45 M259.25 49.1 L261.7 50.45 263.15 51.2 262.95 51.95 263.05 53.1 262.2 53.75 261.75 54.4 261.6 54.4 Q258.55 52.95 258.1 52.1 257.95 51.55 259.05 49.55 L259.25 49.2 259.25 49.1 M279.35 51.3 L280.9 52.0 Q282.65 52.9 283.35 54.45 283.75 55.5 283.6 56.55 L283.1 57.75 Q282.3 59.05 281.2 59.8 279.55 60.85 277.5 60.95 L276.1 60.55 275.8 60.3 273.85 59.3 272.75 59.15 272.4 58.6 Q271.55 57.05 272.75 54.75 L274.0 52.9 Q274.9 52.2 276.3 51.75 278.5 51.1 279.35 51.3 M281.75 54.75 Q281.1 53.6 280.15 53.1 L279.1 53.25 Q277.6 53.2 276.15 54.3 L275.85 54.4 Q274.9 55.2 274.4 56.15 273.55 57.3 274.7 58.15 L276.3 59.1 Q278.25 60.05 279.85 59.35 281.1 58.8 281.9 57.6 282.6 56.3 281.75 54.75 M339.5 94.15 L339.7 93.9 338.35 92.9 337.5 92.15 336.95 91.55 337.8 91.45 339.75 91.7 341.15 92.35 Q342.45 93.05 342.75 93.75 343.05 94.4 342.6 95.25 341.85 96.75 340.0 96.6 L339.7 96.5 338.85 96.4 337.95 96.05 335.65 94.85 336.35 93.8 338.05 94.15 338.95 94.2 339.5 94.15 M349.2 94.85 Q351.5 96.1 350.65 97.65 350.3 98.4 349.6 98.6 L349.25 98.65 346.4 98.55 345.05 97.85 345.75 96.5 344.3 95.2 Q344.2 95.15 344.65 94.5 344.95 93.8 346.2 93.85 L346.65 93.9 346.85 93.9 Q347.7 93.9 348.8 94.4 L349.2 94.85" fill="#000000" fill-rule="evenodd" stroke="none"/>
      <path d="M365.75 70.5 L366.65 72.8 Q366.9 74.85 366.0 77.15 L365.9 77.5 354.85 75.5 Q350.0 74.2 342.1 70.2 341.25 69.8 340.25 69.55 L339.2 69.25 Q338.2 68.9 337.45 68.55 L335.25 67.7 331.75 66.7 327.55 65.35 Q323.9 64.45 316.2 61.6 L305.7 57.8 299.15 55.8 298.9 55.75 Q298.75 54.75 298.25 54.0 L299.45 52.0 299.35 52.0 298.45 50.7 298.15 50.35 365.75 70.5 M285.9 65.95 L288.9 67.0 287.25 70.15 286.35 71.85 288.3 74.2 234.85 59.95 233.75 59.1 235.35 56.25 237.75 51.85 238.0 51.05 285.9 65.95 M205.85 22.6 L229.75 29.7 229.6 32.25 Q229.45 32.75 229.4 34.5 L229.0 35.8 205.05 28.55 205.75 24.05 205.85 22.6 M230.35 30.1 L243.0 33.8 243.1 34.05 Q244.35 36.9 244.1 38.45 L243.45 40.0 230.45 36.15 230.6 32.4 230.35 30.1 M245.2 34.4 L262.65 39.7 263.0 40.65 263.9 42.8 Q265.0 44.7 264.85 44.95 264.35 45.8 262.95 45.25 L262.65 45.2 256.8 43.1 251.7 41.45 247.0 39.8 Q246.3 39.45 245.75 36.95 L245.2 34.4 M271.9 42.45 L273.9 43.05 272.75 42.95 271.9 42.45 M284.5 46.15 L294.5 49.3 296.1 50.95 297.9 53.1 Q297.95 53.55 297.25 55.2 L297.3 55.4 296.7 56.55 296.7 56.75 296.65 56.75 294.55 56.35 286.8 54.0 284.55 52.85 284.6 52.45 284.9 51.65 Q286.2 49.35 285.05 47.0 L284.5 46.15 M265.85 61.5 L262.4 61.2 262.45 60.95 Q262.2 60.7 261.95 60.65 L261.35 60.3 256.55 60.5 256.2 61.1 256.75 61.4 256.25 62.2 260.3 64.25 265.2 65.35 268.2 65.05 Q268.2 64.95 268.35 64.95 269.5 65.2 269.95 64.4 270.45 63.35 268.85 62.6 267.55 61.8 265.85 61.5 M252.15 60.35 Q252.4 60.2 252.8 60.1 L253.15 59.35 252.35 58.75 251.7 58.25 249.95 57.4 249.55 57.3 249.05 57.3 248.0 57.15 246.0 56.45 245.25 55.6 244.2 55.0 Q243.35 54.5 242.25 54.4 L242.05 54.35 241.9 54.4 242.0 54.4 239.55 55.0 238.5 56.8 238.65 56.85 Q238.45 57.5 239.1 58.05 L241.05 59.45 244.35 60.4 247.95 61.4 250.0 61.4 251.7 61.05 252.15 60.35 M272.15 65.55 L271.85 65.85 Q271.4 66.45 272.55 67.05 L275.55 68.15 Q278.4 69.25 279.0 69.6 L279.3 69.25 279.6 68.45 279.75 68.3 280.8 68.95 281.65 68.9 281.1 70.0 283.9 69.7 285.1 68.35 285.15 68.1 Q285.4 67.6 285.25 67.4 L284.4 66.75 284.3 66.7 Q283.45 66.25 281.9 65.85 L281.0 65.85 277.85 65.4 276.5 64.8 275.35 64.6 275.3 64.55 275.3 64.65 274.05 64.8 272.4 65.1 272.15 65.55" fill="#515151" fill-rule="evenodd" stroke="none"/>
      <path d="M365.9 77.5 L366.1 77.15 372.5 78.35 371.35 80.5 Q370.0 83.1 368.15 84.0 L362.55 85.8 Q361.5 86.2 359.3 85.4 L356.9 84.55 354.9 83.85 Q355.35 83.55 357.45 83.15 L361.3 82.3 Q363.4 81.65 364.05 80.85 L365.3 78.75 365.4 78.4 365.6 78.1 365.9 77.5 M464.55 122.25 L465.35 120.6 471.8 123.8 464.55 122.25 M402.8 115.35 L402.6 115.3 402.8 115.1 402.8 115.35 M202.2 21.55 L205.85 22.6 205.75 24.05 205.05 28.55 204.9 29.35 204.1 32.25 Q200.8 30.0 200.0 28.3 199.4 26.35 201.05 23.25 L202.2 21.55 M478.9 127.75 L478.95 128.2 478.6 128.1 478.9 127.75 M469.75 125.35 L470.95 126.2 407.65 110.05 407.0 109.0 469.75 125.35 M469.85 127.95 L471.4 129.2 408.15 113.8 408.75 112.75 469.85 127.95" fill="#111111" fill-rule="evenodd" stroke="none"/>
      <path d="M366.1 77.15 Q367.6 73.85 366.85 70.8 L373.5 72.65 373.35 73.2 Q373.65 75.6 372.5 78.35 L366.1 77.15 M380.55 97.35 L380.75 97.05 380.9 97.1 380.55 97.35 M55.1 31.1 L55.15 31.25 55.05 31.25 55.1 31.1" fill="#595959" fill-rule="evenodd" stroke="none"/>
      <path d="M306.65 101.2 L307.9 103.35 305.95 104.85 301.9 102.65 299.75 98.7 298.1 95.65 297.75 94.7 296.9 93.25 296.55 92.6 295.6 90.85 295.0 89.75 294.05 88.7 293.25 88.05 292.85 83.85 293.85 84.15 298.35 86.95 306.65 101.2 M23.5 93.8 L23.3 94.3 Q22.5 95.3 21.55 95.6 L21.2 95.55 21.1 95.6 18.35 94.95 Q15.65 94.2 14.0 93.45 L12.5 92.5 12.3 92.35 11.9 91.9 10.8 90.0 Q8.85 87.55 9.65 86.55 9.3 87.85 12.25 90.15 14.7 92.25 16.55 93.15 19.65 94.8 22.7 94.1 L23.5 93.8 M23.0 97.65 L24.55 99.0 Q26.25 100.4 26.4 102.2 26.5 103.5 26.15 104.35 L24.75 106.0 Q24.0 106.55 23.5 106.7 L21.55 106.7 20.9 106.8 Q20.45 106.95 20.35 107.05 L16.65 106.6 13.4 106.3 11.4 105.65 9.4 104.8 4.85 101.7 Q1.9 99.5 1.5 98.7 0.1 96.75 0.0 96.0 L0.85 94.3 Q1.65 92.9 1.95 92.8 2.75 92.1 4.95 92.25 L8.85 92.35 10.1 92.3 Q10.1 92.65 10.65 93.25 L12.15 94.6 13.65 95.7 15.2 96.55 Q17.75 98.0 20.05 97.95 L23.0 97.65 M360.2 92.25 L359.35 91.8 358.55 91.55 357.3 91.2 356.75 91.1 355.1 90.35 355.2 90.2 356.6 90.35 358.95 91.0 360.55 91.8 360.2 92.25 M364.6 93.2 L363.9 92.7 364.8 92.8 366.15 92.95 367.2 93.5 367.45 93.75 367.9 93.95 368.25 94.4 368.2 94.55 367.95 94.6 364.6 93.2 M370.95 94.6 L372.4 94.45 374.55 94.95 374.7 95.15 375.6 95.5 375.95 96.1 374.85 96.25 374.4 96.3 371.8 95.35 Q370.9 95.0 370.95 94.9 L370.95 94.85 370.95 94.6 M380.55 97.35 L377.95 95.95 378.1 95.85 378.65 96.0 378.95 95.95 379.15 96.0 380.25 96.55 380.75 97.05 380.55 97.35 M353.7 89.7 L353.3 90.3 351.0 89.7 348.9 89.3 349.0 89.05 349.1 89.0 349.95 88.95 350.25 88.9 351.05 88.3 352.2 88.75 353.7 89.7 M336.9 86.1 L336.75 86.5 336.35 86.55 332.95 84.85 333.0 84.75 334.35 85.25 335.8 85.45 335.95 85.5 336.65 85.95 336.9 86.1 M345.7 88.0 L345.15 87.95 343.15 87.75 342.3 87.25 342.35 87.2 342.3 87.2 342.45 86.85 343.75 86.95 345.8 88.0 345.7 88.0" fill="#090909" fill-rule="evenodd" stroke="none"/>
      <path d="M287.25 70.15 L315.6 78.0 315.15 78.7 317.85 81.45 318.0 81.55 326.2 82.1 326.9 80.9 380.8 95.5 380.25 96.55 379.15 96.0 378.95 95.95 378.65 96.0 378.1 95.85 377.95 95.95 380.55 97.35 380.9 97.1 382.7 98.45 383.1 98.65 383.9 99.2 397.45 102.8 398.0 101.7 398.15 101.9 Q402.5 104.6 403.5 106.75 L403.6 106.95 403.7 107.1 403.7 107.2 404.15 109.5 Q404.15 112.25 403.15 114.45 L402.8 115.1 402.6 115.3 402.6 115.4 401.5 116.25 304.1 91.35 304.4 90.85 Q307.3 85.55 303.2 83.45 300.95 82.45 290.95 80.2 L285.95 79.3 280.55 78.1 268.45 74.85 246.65 68.85 243.55 69.2 240.05 69.7 239.9 70.05 241.35 70.85 245.8 71.9 250.95 73.1 254.65 73.85 258.0 74.45 Q265.35 75.65 272.85 77.9 288.6 82.3 292.85 83.85 L293.25 88.05 294.05 88.7 238.75 74.75 224.4 71.7 Q222.65 70.35 224.6 69.8 L233.75 70.5 Q223.15 66.95 211.8 64.8 L211.7 64.8 209.15 69.3 295.6 90.85 296.55 92.6 63.2 34.5 55.15 31.25 55.1 31.1 55.9 29.55 56.4 28.55 57.55 13.1 50.15 4.95 197.75 45.8 197.95 45.7 204.85 51.9 234.85 59.95 288.3 74.2 286.35 71.85 287.25 70.15 M20.3 0.3 L21.8 0.0 36.35 3.9 36.4 4.0 36.5 3.9 36.7 3.95 42.55 11.35 41.25 25.45 21.5 19.9 Q21.2 14.85 19.8 9.45 19.85 5.1 26.5 6.25 20.85 2.85 20.3 0.3 M360.2 92.25 L360.55 91.8 358.95 91.0 356.6 90.35 355.2 90.2 355.1 90.35 356.75 91.1 357.3 91.2 358.55 91.55 359.35 91.8 360.2 92.25 M354.0 95.8 L353.9 95.75 353.7 95.75 353.2 96.15 Q353.05 96.4 353.55 96.9 L354.15 97.8 353.9 99.1 354.0 99.4 Q354.15 99.85 354.85 100.25 L356.85 100.85 357.6 100.1 357.7 100.0 Q358.35 98.95 357.7 98.0 357.3 97.25 355.85 96.6 L355.75 96.5 Q354.7 96.15 354.0 95.8 M361.35 98.6 Q360.9 98.9 360.5 99.35 360.3 100.1 360.65 100.75 L362.1 101.95 Q363.6 102.6 364.65 102.6 365.9 102.55 366.25 101.85 366.35 101.35 365.15 100.15 L363.6 98.9 Q362.65 98.35 361.95 98.45 L361.35 98.6 M370.95 94.6 L370.95 94.85 370.95 94.9 Q370.9 95.0 371.8 95.35 L374.4 96.3 374.85 96.25 375.95 96.1 375.6 95.5 374.7 95.15 374.55 94.95 372.4 94.45 370.95 94.6 M364.6 93.2 L367.95 94.6 368.2 94.55 368.25 94.4 367.9 93.95 367.45 93.75 367.2 93.5 366.15 92.95 364.8 92.8 363.9 92.7 364.6 93.2 M367.75 102.2 Q368.0 102.85 370.05 103.95 L370.15 104.1 Q371.85 104.8 372.35 104.55 L372.85 103.85 372.85 103.3 372.45 102.55 Q371.8 101.85 370.75 101.3 L370.0 101.05 368.85 101.05 Q368.1 101.4 367.75 101.85 L367.75 102.2 M353.7 89.7 L352.2 88.75 351.05 88.3 350.25 88.9 349.95 88.95 349.1 89.0 349.0 89.05 348.9 89.3 351.0 89.7 353.3 90.3 353.7 89.7 M376.65 102.55 Q375.65 102.9 375.65 103.0 375.4 103.3 375.8 103.9 L376.5 104.8 377.75 106.0 Q378.55 106.4 379.2 105.15 L379.45 104.6 Q379.4 103.75 378.15 102.85 377.6 102.65 377.2 102.35 L376.65 102.55 M394.4 109.1 Q394.7 108.45 393.35 107.35 L392.95 107.2 392.3 106.75 391.6 106.85 391.4 106.95 390.85 107.45 Q390.55 108.1 390.85 108.65 L392.2 109.5 Q393.3 110.1 393.8 109.8 L394.4 109.1 M387.4 106.15 L386.85 105.6 385.9 105.1 383.75 104.3 383.35 105.3 Q383.15 106.5 384.95 107.4 386.5 108.2 387.35 106.65 L387.4 106.15 M41.25 26.4 L41.25 25.45 41.75 25.55 41.25 26.4 M345.7 88.0 L345.8 88.0 343.75 86.95 342.45 86.85 342.3 87.2 342.35 87.2 342.3 87.25 343.15 87.75 345.15 87.95 345.7 88.0 M336.9 86.1 L336.65 85.95 335.95 85.5 335.8 85.45 334.35 85.25 333.0 84.75 332.95 84.85 336.35 86.55 336.75 86.5 336.9 86.1 M349.2 94.85 L348.8 94.4 Q347.7 93.9 346.85 93.9 L346.65 93.9 346.2 93.85 Q344.95 93.8 344.65 94.5 344.2 95.15 344.3 95.2 L345.75 96.5 345.05 97.85 346.4 98.55 349.25 98.65 349.6 98.6 Q350.3 98.4 350.65 97.65 351.5 96.1 349.2 94.85 M339.5 94.15 L338.95 94.2 338.05 94.15 336.35 93.8 335.65 94.85 337.95 96.05 338.85 96.4 339.7 96.5 340.0 96.6 Q341.85 96.75 342.6 95.25 343.05 94.4 342.75 93.75 342.45 93.05 341.15 92.35 L339.75 91.7 337.8 91.45 336.95 91.55 337.5 92.15 338.35 92.9 339.7 93.9 339.5 94.15" fill="#373737" fill-rule="evenodd" stroke="none"/>
      <path d="M381.7 93.7 L381.85 93.65 395.9 97.75 398.8 99.85 384.7 95.65 381.7 93.7" fill="#484848" fill-rule="evenodd" stroke="none"/>
      <path d="M327.45 79.85 L326.9 80.9 326.2 82.1 318.0 81.55 317.85 81.45 319.85 77.55 327.45 79.85 M398.8 99.85 L398.85 99.9 398.0 101.7 397.45 102.8 383.9 99.2 383.1 98.65 384.7 95.65 398.8 99.85 M22.65 87.65 Q27.2 89.7 25.85 92.1 25.1 93.25 23.5 93.8 L22.7 94.1 Q19.65 94.8 16.55 93.15 14.7 92.25 12.25 90.15 9.3 87.85 9.65 86.55 L9.8 86.15 Q10.35 84.95 11.2 84.9 L15.95 84.65 14.05 89.5 Q16.45 92.95 21.0 91.45 L22.65 87.65 M21.2 95.55 L23.0 97.65 20.05 97.95 Q17.75 98.0 15.2 96.55 L13.65 95.7 12.15 94.6 10.65 93.25 Q10.1 92.65 10.1 92.3 L10.85 92.2 12.3 92.35 12.5 92.5 14.0 93.45 Q15.65 94.2 18.35 94.95 L21.1 95.6 21.2 95.55 M297.75 94.7 L235.05 79.85 Q233.85 78.15 236.0 78.3 L296.9 93.25 297.75 94.7" fill="#222222" fill-rule="evenodd" stroke="none"/>
      <path d="M465.35 120.6 L465.45 120.25 Q465.7 119.85 466.1 119.95 L478.45 122.95 490.2 130.15 Q490.4 131.15 489.8 131.55 L479.25 128.45 478.95 128.2 478.9 127.75 478.85 127.65 Q478.6 127.05 477.75 126.5 475.45 124.95 472.7 124.05 L471.8 123.8 465.35 120.6" fill="#444444" fill-rule="evenodd" stroke="none"/>
      <path d="M295.15 59.55 L294.85 60.1 Q294.0 59.35 293.6 59.6 293.1 59.8 292.45 60.95 L291.1 62.95 289.9 64.8 Q289.65 65.55 288.9 65.3 L287.4 65.4 286.15 65.9 285.9 65.95 238.0 51.05 237.75 51.85 Q236.6 50.55 235.35 49.9 L232.7 49.8 Q232.05 50.25 231.55 51.1 230.9 52.4 232.1 53.75 232.8 55.0 234.85 56.0 L235.35 56.25 233.75 59.1 227.75 54.3 227.45 54.0 231.3 46.8 232.65 47.5 234.15 44.8 227.75 43.2 228.25 42.35 Q229.9 39.3 230.45 36.15 L243.45 40.0 242.95 40.75 Q241.8 42.9 241.1 43.4 L241.95 42.95 Q243.7 41.9 244.65 40.4 L244.7 40.35 Q245.95 38.3 245.2 35.9 L244.5 34.2 245.2 34.4 245.75 36.95 Q246.3 39.45 247.0 39.8 L251.7 41.45 256.8 43.1 262.65 45.2 262.95 45.25 Q262.1 46.7 260.9 47.7 L259.25 49.1 259.25 49.2 259.05 49.55 Q257.95 51.55 258.1 52.1 258.55 52.95 261.6 54.4 L261.75 54.4 262.2 53.75 263.05 53.1 262.95 51.95 263.15 51.2 263.85 49.5 265.5 47.15 Q266.85 46.0 269.6 45.25 L274.5 45.4 Q276.1 45.75 279.2 47.3 L282.35 49.35 Q283.6 50.4 284.25 51.55 L284.55 52.4 284.6 52.45 284.55 52.85 286.8 54.0 294.55 56.35 296.65 56.75 296.7 56.75 296.6 56.9 295.15 59.55 M403.7 107.1 L403.7 107.0 464.55 122.25 471.8 123.8 472.7 124.05 Q475.45 124.95 477.75 126.5 478.6 127.05 478.85 127.65 L478.9 127.75 478.6 128.1 Q476.25 131.15 472.95 130.65 L403.15 114.45 Q404.15 112.25 404.15 109.5 L403.7 107.2 403.7 107.1 M190.35 97.0 Q189.1 98.0 187.7 99.3 L188.05 101.5 185.45 101.35 Q178.1 105.95 172.05 111.0 L172.0 111.15 164.9 109.75 158.55 104.5 182.75 90.55 182.6 86.4 187.15 85.75 187.3 86.5 185.45 90.5 190.35 97.0 M20.05 64.6 L19.45 64.25 8.0 59.1 5.55 55.35 Q22.35 39.25 21.5 19.9 L41.25 25.45 42.55 11.35 36.7 3.95 36.5 3.8 38.1 2.85 48.05 6.05 49.75 4.85 50.15 4.95 57.55 13.1 56.4 28.55 55.9 29.55 41.75 25.55 41.25 25.45 41.25 26.4 20.05 64.6 M469.75 125.35 L407.0 109.0 407.65 110.05 470.95 126.2 469.75 125.35 M469.85 127.95 L408.75 112.75 408.15 113.8 471.4 129.2 469.85 127.95 M180.9 69.05 L230.25 81.4 224.65 89.9 222.85 90.0 213.8 87.6 210.25 86.65 205.75 85.45 203.75 84.85 203.3 85.7 188.2 82.9 180.9 69.05 M222.4 102.45 L233.75 81.15 289.0 93.5 284.25 102.05 229.7 100.5 227.35 103.4 223.95 103.4 223.7 103.3 222.4 102.45 M204.1 32.25 L204.9 29.35 205.05 28.55 229.0 35.8 228.45 37.05 Q227.8 38.0 227.2 39.7 L225.8 42.15 224.75 42.45 205.6 37.7 204.7 37.35 203.6 37.25 Q202.65 37.25 201.25 36.55 L200.7 36.4 200.6 36.35 200.45 36.3 201.55 35.7 Q202.45 35.45 202.55 35.15 L203.55 33.55 204.1 32.25 M279.35 51.3 Q278.5 51.1 276.3 51.75 274.9 52.2 274.0 52.9 L272.75 54.75 Q271.55 57.05 272.4 58.6 L272.75 59.15 273.85 59.3 275.8 60.3 276.1 60.55 277.5 60.95 Q279.55 60.85 281.2 59.8 282.3 59.05 283.1 57.75 L283.6 56.55 Q283.75 55.5 283.35 54.45 282.65 52.9 280.9 52.0 L279.35 51.3" fill="#1e1e1e" fill-rule="evenodd" stroke="none"/>
      <path d="M178.85 68.5 L125.05 55.05 99.65 75.6 96.55 73.0 38.6 67.45 38.5 67.25 36.95 64.7 55.05 31.25 55.15 31.25 63.2 34.5 296.55 92.6 296.9 93.25 236.0 78.3 Q233.85 78.15 235.05 79.85 L297.75 94.7 298.1 95.65 292.4 94.35 289.0 93.5 233.75 81.15 222.4 102.45 216.75 99.25 216.25 95.85 214.95 94.6 211.5 91.2 213.8 87.6 222.85 90.0 224.65 89.9 230.25 81.4 180.9 69.05 178.85 68.5 M5.55 55.35 L1.0 48.3 Q16.1 31.45 11.75 5.2 L14.1 1.1 20.3 0.3 Q20.85 2.85 26.5 6.25 19.85 5.1 19.8 9.45 21.2 14.85 21.5 19.9 22.35 39.25 5.55 55.35 M54.95 43.3 L48.45 55.85 102.6 61.5 114.0 52.6 54.8 38.15 53.5 40.35 54.95 43.3" fill="#0d0d0d" fill-rule="evenodd" stroke="none"/>
      <path d="M298.15 50.35 L298.45 50.7 299.35 52.0 299.45 52.0 298.25 54.0 Q298.75 54.75 298.9 55.75 L297.4 55.5 296.7 56.55 297.3 55.4 297.25 55.2 Q297.95 53.55 297.9 53.1 L296.1 50.95 294.5 49.3 298.15 50.35 M262.65 39.7 L271.9 42.45 272.75 42.95 273.9 43.05 280.05 44.8 280.95 46.0 Q282.6 47.95 282.35 49.35 L279.2 47.3 Q276.1 45.75 274.5 45.4 L269.6 45.25 Q266.85 46.0 265.5 47.15 L263.85 49.5 263.15 51.2 261.7 50.45 259.25 49.1 260.9 47.7 Q262.1 46.7 262.95 45.25 264.35 45.8 264.85 44.95 265.0 44.7 263.9 42.8 L263.0 40.65 262.65 39.7" fill="#555555" fill-rule="evenodd" stroke="none"/>
      <path d="M265.85 61.5 L265.4 62.0 265.0 62.8 Q264.95 63.35 265.85 63.85 L267.95 64.85 268.2 65.05 265.2 65.35 260.3 64.25 256.25 62.2 256.75 61.4 258.25 62.1 260.25 62.05 262.0 61.85 262.2 61.35 262.4 61.2 265.85 61.5 M249.95 57.4 L249.65 57.5 248.3 57.65 247.8 58.7 249.1 59.55 250.1 60.45 251.4 60.65 252.15 60.35 251.7 61.05 250.0 61.4 247.95 61.4 244.35 60.4 241.05 59.45 239.1 58.05 Q238.45 57.5 238.65 56.85 L240.8 57.95 244.8 57.95 Q245.6 58.0 246.1 57.1 L246.0 56.45 248.0 57.15 249.05 57.3 249.55 57.3 249.95 57.4 M279.75 68.3 L279.6 68.45 279.3 69.25 279.0 69.6 Q278.4 69.25 275.55 68.15 L272.55 67.05 Q271.4 66.45 271.85 65.85 L272.15 65.55 273.3 66.3 276.3 66.6 278.15 66.2 278.35 65.95 277.4 65.4 277.85 65.4 281.0 65.85 281.9 65.85 280.05 66.7 279.3 68.15 279.75 68.3 M285.1 68.35 L283.9 69.7 281.1 70.0 281.65 68.9 283.95 69.0 Q284.8 68.9 285.0 68.3 L285.1 68.35" fill="#2b2b2b" fill-rule="evenodd" stroke="none"/>
      <path d="M262.4 61.2 L262.2 61.35 262.45 60.95 262.4 61.2" fill="#888888" fill-rule="evenodd" stroke="none"/>
      <path d="M297.9 49.75 L297.7 49.8 297.65 49.65 297.9 49.75 M281.75 54.75 Q282.6 56.3 281.9 57.6 281.1 58.8 279.85 59.35 278.25 60.05 276.3 59.1 L274.7 58.15 Q273.55 57.3 274.4 56.15 274.9 55.2 275.85 54.4 L276.15 54.3 Q277.6 53.2 279.1 53.25 L280.15 53.1 Q281.1 53.6 281.75 54.75" fill="#737373" fill-rule="evenodd" stroke="none"/>
      <path d="M299.75 98.7 L291.55 104.95 280.7 104.75 227.35 103.4 229.7 100.5 284.25 102.05 286.25 102.05 292.4 94.35 298.1 95.65 299.75 98.7" fill="#2f2f2f" fill-rule="evenodd" stroke="none"/>
      <path d="M280.7 104.75 L267.25 129.4 213.6 127.2 212.6 126.3 223.7 103.3 223.95 103.4 227.35 103.4 280.7 104.75" fill="#1a1a1a" fill-rule="evenodd" stroke="none"/>
    </g>
    <g id="sprite7" transform="matrix(1.0, 0.0, 0.0, 1.0, 0.0, 0.0)">
      <use height="51.45" transform="matrix(1.0, 0.0, 0.0, 1.0, 0.0, 0.0)" width="178.4" xlink:href="#shape6"/>
    </g>
    <g id="shape6" transform="matrix(1.0, 0.0, 0.0, 1.0, 0.0, 0.0)">
      <path d="M11.65 3.05 L13.05 2.35 Q23.75 -2.75 41.85 3.2 47.1 4.95 58.85 9.75 69.95 14.35 75.75 16.05 88.75 20.15 106.5 22.0 L119.95 22.8 Q123.9 20.15 128.3 16.3 133.75 11.7 137.7 7.55 139.7 6.85 147.95 11.1 L157.05 16.05 Q159.45 16.85 169.1 18.55 177.65 20.6 178.25 23.4 179.3 28.35 173.7 30.3 L168.65 31.95 Q165.7 33.1 164.1 34.75 L158.0 43.45 Q153.45 49.55 148.2 51.35 145.85 52.2 130.3 46.95 L110.0 40.35 93.85 42.2 62.35 45.7 48.3 46.2 35.5 46.25 Q13.35 43.1 4.95 40.85 L3.65 40.55 Q2.9 38.9 1.65 37.7 0.3 36.3 0.1 35.35 -0.2 34.1 0.65 26.7 1.4 19.35 2.0 17.6 3.95 8.8 4.8 7.1 5.6 5.3 11.4 3.1 L11.65 3.05" fill="#000000" fill-rule="evenodd" stroke="none"/>
    </g>
    <g id="sprite8" transform="matrix(1.0, 0.0, 0.0, 1.0, 54.5, -4.75)">
      <use height="25.1" transform="matrix(1.0, 0.0, 0.0, 1.0, -53.95, 4.75)" width="287.25" xlink:href="#sprite9"/>
      <use height="25.1" transform="matrix(1.0, 0.0, 0.0, 1.0, -53.8, 4.75)" width="287.25" xlink:href="#sprite9"/>
      <use height="25.1" transform="matrix(1.0, 0.0, 0.0, 1.0, -53.8, 4.75)" width="287.25" xlink:href="#sprite9"/>
      <use height="25.1" transform="matrix(1.0, 0.0, 0.0, 1.0, -54.5, 4.85)" width="287.25" xlink:href="#text1"/>
    </g>
    <g id="sprite9" transform="matrix(1.0, 0.0, 0.0, 1.0, 54.5, -4.85)">
      <use height="25.1" transform="matrix(1.0, 0.0, 0.0, 1.0, -54.5, 4.85)" width="287.25" xlink:href="#text0"/>
    </g>
    <g id="text0" transform="matrix(1.0, 0.0, 0.0, 1.0, 56.5, -2.85)">
      <g transform="matrix(1.0, 0.0, 0.0, 1.0, -58.0, 0.0)">
        <use fill="#fe4e4e" height="25.1" transform="matrix(0.0293, 0.0, 0.0, 0.0293, 0.0, 23.0)" width="287.25" xlink:href="#font_LilyUPC_-0"/>
        <use fill="#fe4e4e" height="25.1" transform="matrix(0.0293, 0.0, 0.0, 0.0293, 17.45, 23.0)" width="287.25" xlink:href="#font_LilyUPC_I0"/>
        <use fill="#fe4e4e" height="25.1" transform="matrix(0.0293, 0.0, 0.0, 0.0293, 22.55, 23.0)" width="287.25" xlink:href="#font_LilyUPC__1"/>
        <use fill="#fe4e4e" height="25.1" transform="matrix(0.0293, 0.0, 0.0, 0.0293, 28.1, 23.0)" width="287.25" xlink:href="#font_LilyUPC_m0"/>
        <use fill="#fe4e4e" height="25.1" transform="matrix(0.0293, 0.0, 0.0, 0.0293, 49.6, 23.0)" width="287.25" xlink:href="#font_LilyUPC_t0"/>
        <use fill="#fe4e4e" height="25.1" transform="matrix(0.0293, 0.0, 0.0, 0.0293, 56.75, 23.0)" width="287.25" xlink:href="#font_LilyUPC_a0"/>
        <use fill="#fe4e4e" height="25.1" transform="matrix(0.0293, 0.0, 0.0, 0.0293, 67.15, 23.0)" width="287.25" xlink:href="#font_LilyUPC_l0"/>
        <use fill="#fe4e4e" height="25.1" transform="matrix(0.0293, 0.0, 0.0, 0.0293, 71.6, 23.0)" width="287.25" xlink:href="#font_LilyUPC_k0"/>
        <use fill="#fe4e4e" height="25.1" transform="matrix(0.0293, 0.0, 0.0, 0.0293, 82.85, 23.0)" width="287.25" xlink:href="#font_LilyUPC_i0"/>
        <use fill="#fe4e4e" height="25.1" transform="matrix(0.0293, 0.0, 0.0, 0.0293, 87.05, 23.0)" width="287.25" xlink:href="#font_LilyUPC_n0"/>
        <use fill="#fe4e4e" height="25.1" transform="matrix(0.0293, 0.0, 0.0, 0.0293, 97.5, 23.0)" width="287.25" xlink:href="#font_LilyUPC_g0"/>
        <use fill="#fe4e4e" height="25.1" transform="matrix(0.0293, 0.0, 0.0, 0.0293, 113.85, 23.0)" width="287.25" xlink:href="#font_LilyUPC_a0"/>
        <use fill="#fe4e4e" height="25.1" transform="matrix(0.0293, 0.0, 0.0, 0.0293, 124.25, 23.0)" width="287.25" xlink:href="#font_LilyUPC_b0"/>
        <use fill="#fe4e4e" height="25.1" transform="matrix(0.0293, 0.0, 0.0, 0.0293, 134.7, 23.0)" width="287.25" xlink:href="#font_LilyUPC_o0"/>
        <use fill="#fe4e4e" height="25.1" transform="matrix(0.0293, 0.0, 0.0, 0.0293, 145.95, 23.0)" width="287.25" xlink:href="#font_LilyUPC_u0"/>
        <use fill="#fe4e4e" height="25.1" transform="matrix(0.0293, 0.0, 0.0, 0.0293, 156.4, 23.0)" width="287.25" xlink:href="#font_LilyUPC_t0"/>
        <use fill="#fe4e4e" height="25.1" transform="matrix(0.0293, 0.0, 0.0, 0.0293, 169.15, 23.0)" width="287.25" xlink:href="#font_LilyUPC_R0"/>
        <use fill="#fe4e4e" height="25.1" transform="matrix(0.0293, 0.0, 0.0, 0.0293, 182.3, 23.0)" width="287.25" xlink:href="#font_LilyUPC_E0"/>
        <use fill="#fe4e4e" height="25.1" transform="matrix(0.0293, 0.0, 0.0, 0.0293, 193.05, 23.0)" width="287.25" xlink:href="#font_LilyUPC_A0"/>
        <use fill="#fe4e4e" height="25.1" transform="matrix(0.0293, 0.0, 0.0, 0.0293, 207.15, 23.0)" width="287.25" xlink:href="#font_LilyUPC_L0"/>
        <use fill="#fe4e4e" height="25.1" transform="matrix(0.0293, 0.0, 0.0, 0.0293, 223.25, 23.0)" width="287.25" xlink:href="#font_LilyUPC_h0"/>
        <use fill="#fe4e4e" height="25.1" transform="matrix(0.0293, 0.0, 0.0, 0.0293, 233.7, 23.0)" width="287.25" xlink:href="#font_LilyUPC_e0"/>
        <use fill="#fe4e4e" height="25.1" transform="matrix(0.0293, 0.0, 0.0, 0.0293, 243.5, 23.0)" width="287.25" xlink:href="#font_LilyUPC_l0"/>
        <use fill="#fe4e4e" height="25.1" transform="matrix(0.0293, 0.0, 0.0, 0.0293, 247.95, 23.0)" width="287.25" xlink:href="#font_LilyUPC_p0"/>
        <use fill="#fe4e4e" height="25.1" transform="matrix(0.0293, 0.0, 0.0, 0.0293, 264.05, 23.0)" width="287.25" xlink:href="#font_LilyUPC__2"/>
      </g>
    </g>
    <g id="font_LilyUPC_-0">
      <path d="M393.5 -206.5 L393.5 -290.0 48.5 -290.0 48.5 -206.5 393.5 -206.5" fill-rule="evenodd" stroke="none"/>
    </g>
    <g id="font_LilyUPC_I0">
      <path d="M184.5 -477.5 L34.0 -477.5 34.0 0.0 184.5 0.0 184.5 -477.5" fill-rule="evenodd" stroke="none"/>
    </g>
    <g id="font_LilyUPC__1">
      <path d="M109.5 -545.5 L28.5 -372.5 88.0 -372.5 209.0 -545.5 109.5 -545.5" fill-rule="evenodd" stroke="none"/>
    </g>
    <g id="font_LilyUPC_m0">
      <path d="M459.0 0.0 L556.0 0.0 556.0 -252.0 Q556.0 -294.0 524.5 -321.5 493.5 -348.5 431.0 -348.5 396.0 -348.0 373.5 -337.5 351.0 -327.0 341.0 -314.5 331.5 -301.5 331.0 -301.0 328.0 -312.5 310.0 -330.0 292.0 -347.5 247.0 -347.5 191.0 -346.5 158.0 -313.0 L158.0 -341.0 29.0 -341.0 29.0 0.0 158.0 0.0 158.0 -211.0 Q158.5 -224.0 167.5 -244.5 177.0 -265.0 208.0 -268.0 260.0 -268.0 260.0 -216.0 L260.0 0.0 356.0 0.0 356.0 -211.0 Q356.5 -224.0 366.0 -244.5 376.0 -265.0 406.5 -268.0 459.0 -268.0 459.0 -216.0 L459.0 0.0" fill-rule="evenodd" stroke="none"/>
    </g>
    <g id="font_LilyUPC_t0">
      <path d="M201.0 -116.5 L201.0 -270.0 265.5 -270.0 265.5 -341.0 201.0 -341.0 201.0 -477.5 72.0 -477.5 72.0 -341.0 7.5 -341.0 7.5 -270.0 72.0 -270.0 72.0 -104.5 Q72.0 -46.0 108.0 -21.5 138.5 1.0 226.5 1.0 240.5 1.0 251.0 0.5 261.5 0.5 265.5 0.0 L265.5 -70.5 Q265.0 -70.5 258.5 -69.5 252.5 -68.5 246.0 -68.5 228.0 -68.5 218.5 -76.5 201.0 -89.0 201.0 -116.5" fill-rule="evenodd" stroke="none"/>
    </g>
    <g id="font_LilyUPC_a0">
      <path d="M182.5 -67.5 L182.5 -67.5 Q162.0 -63.5 153.5 -63.5 118.0 -63.5 115.0 -87.0 115.0 -109.5 128.0 -120.0 141.0 -130.5 171.0 -135.0 195.5 -139.0 208.0 -145.0 220.5 -151.0 224.5 -156.5 229.0 -161.5 229.5 -162.5 L229.5 -110.5 Q229.5 -103.0 219.5 -88.5 209.0 -74.0 182.5 -67.5 M229.5 1.0 L358.5 0.0 358.5 -240.5 Q358.5 -285.0 320.0 -315.5 281.5 -346.0 195.5 -346.0 153.5 -346.0 122.0 -339.0 91.0 -332.0 73.5 -324.0 56.5 -316.0 56.5 -314.0 L35.0 -234.5 Q45.5 -245.5 79.5 -262.0 113.0 -278.5 172.0 -278.5 197.5 -278.5 214.0 -268.5 230.5 -258.0 230.5 -244.5 230.5 -230.0 211.5 -218.0 192.5 -205.5 154.5 -200.5 85.5 -190.5 51.5 -167.0 17.5 -143.5 17.5 -91.0 18.5 -43.0 53.5 -18.5 88.5 6.5 135.5 6.5 184.0 5.0 204.5 -9.5 225.5 -24.0 229.5 -33.5 L229.5 1.0" fill-rule="evenodd" stroke="none"/>
    </g>
    <g id="font_LilyUPC_l0">
      <path d="M32.0 0.0 L161.0 0.0 161.0 -477.5 32.0 -477.5 32.0 0.0" fill-rule="evenodd" stroke="none"/>
    </g>
    <g id="font_LilyUPC_k0">
      <path d="M25.5 0.0 L154.5 0.0 154.5 -128.0 179.5 -147.5 284.0 1.0 407.5 0.0 251.0 -207.5 409.5 -341.0 285.0 -341.0 154.5 -231.5 154.5 -477.5 25.5 -477.5 25.5 0.0" fill-rule="evenodd" stroke="none"/>
    </g>
    <g id="font_LilyUPC_i0">
      <path d="M90.0 -478.5 L90.0 -478.5 Q62.0 -478.5 41.5 -461.0 21.5 -443.5 21.5 -419.0 21.5 -394.5 42.0 -377.0 62.0 -359.5 90.0 -359.5 118.5 -359.5 138.5 -377.0 159.0 -394.5 159.0 -419.0 159.0 -443.5 138.5 -461.0 118.5 -478.5 90.0 -478.5 M25.5 0.0 L154.5 0.0 154.5 -341.0 25.5 -341.0 25.5 0.0" fill-rule="evenodd" stroke="none"/>
    </g>
    <g id="font_LilyUPC_n0">
      <path d="M368.5 -245.5 L368.5 -245.5 Q368.5 -266.5 356.5 -290.0 344.5 -313.0 316.0 -329.5 288.0 -346.0 243.5 -346.0 215.0 -346.0 195.5 -339.0 176.5 -331.5 166.5 -323.5 156.5 -315.0 154.5 -313.0 L154.5 -341.0 25.5 -341.0 25.5 0.0 154.5 0.0 154.5 -216.0 Q155.0 -228.5 165.0 -249.5 175.0 -270.0 207.0 -274.5 240.0 -274.5 256.5 -259.0 272.5 -244.0 272.5 -222.0 L272.5 0.0 368.5 0.0 368.5 -245.5" fill-rule="evenodd" stroke="none"/>
    </g>
    <g id="font_LilyUPC_g0">
      <path d="M242.0 -252.0 L242.0 -87.0 Q242.0 -85.0 224.5 -77.0 207.0 -69.0 186.5 -67.5 150.0 -67.5 132.5 -91.0 114.5 -114.5 114.5 -167.0 114.5 -228.5 131.5 -251.0 148.0 -273.5 186.5 -273.5 206.0 -272.5 221.0 -265.0 235.5 -257.0 242.0 -252.0 M371.0 36.0 L371.0 -341.0 242.0 -341.0 242.0 -321.5 Q233.5 -328.5 211.5 -339.0 189.0 -349.5 158.0 -349.5 119.5 -349.5 89.0 -335.5 58.5 -321.5 38.5 -280.5 18.5 -239.5 18.5 -165.0 18.5 -66.5 60.0 -31.0 101.5 4.5 153.5 6.0 186.5 6.0 210.0 0.0 233.5 -6.5 242.0 -10.5 L242.0 28.5 Q242.0 51.0 216.5 63.5 191.5 75.5 152.5 75.5 122.5 75.5 95.0 67.5 67.5 59.5 49.5 50.5 31.0 41.5 28.5 39.0 L44.0 130.0 Q47.5 133.5 89.0 141.0 130.5 148.5 190.5 148.5 285.0 146.0 328.0 113.5 371.0 81.5 371.0 36.0" fill-rule="evenodd" stroke="none"/>
    </g>
    <g id="font_LilyUPC_b0">
      <path d="M160.0 -89.0 L160.0 -254.0 Q160.0 -256.0 177.5 -264.0 195.5 -272.0 215.5 -273.5 253.5 -273.5 270.5 -253.0 287.0 -233.0 287.0 -176.0 287.0 -114.0 270.0 -90.5 253.0 -67.5 215.5 -67.5 196.5 -68.0 181.5 -76.0 166.5 -84.0 160.0 -89.0 M31.0 -477.5 L31.0 0.0 160.0 0.0 160.0 -22.5 Q168.0 -14.5 190.0 -3.0 212.0 8.5 244.0 8.5 383.0 8.5 383.0 -177.5 383.0 -284.0 343.5 -314.5 304.0 -345.0 248.0 -347.5 215.0 -347.5 192.0 -341.0 169.0 -334.5 160.0 -329.5 L160.0 -477.5 31.0 -477.5" fill-rule="evenodd" stroke="none"/>
    </g>
    <g id="font_LilyUPC_o0">
      <path d="M140.0 -172.0 L140.0 -172.0 Q140.0 -205.5 144.0 -228.5 148.5 -251.0 163.5 -266.5 179.0 -282.5 210.0 -282.5 253.5 -282.5 265.0 -252.0 276.5 -222.0 276.5 -170.0 276.5 -135.0 273.0 -113.0 269.5 -91.0 255.0 -75.0 240.5 -59.5 210.0 -59.5 178.5 -59.5 163.5 -75.5 149.0 -91.5 145.5 -112.5 142.0 -133.0 140.0 -172.0 M209.0 -355.5 L209.0 -355.5 Q115.5 -355.5 67.0 -309.0 18.5 -262.0 17.5 -171.0 17.5 -106.5 38.0 -66.0 59.0 -25.5 101.0 -6.5 142.5 13.0 206.5 13.5 308.5 13.5 354.0 -31.0 399.0 -75.5 399.0 -172.0 399.0 -233.5 381.0 -274.0 362.5 -314.5 320.5 -335.0 278.5 -355.5 209.0 -355.5" fill-rule="evenodd" stroke="none"/>
    </g>
    <g id="font_LilyUPC_u0">
      <path d="M25.5 -94.0 L25.5 -94.0 Q25.5 -59.0 54.0 -28.0 83.0 3.0 147.5 7.5 185.0 7.5 213.0 0.0 241.0 -8.0 257.5 -17.0 273.0 -25.5 273.0 -26.5 273.0 -26.5 272.5 -26.5 L272.5 0.0 368.5 0.0 368.5 -341.0 272.5 -341.0 272.5 -125.0 Q272.5 -108.5 262.0 -90.5 252.0 -72.0 219.5 -66.5 154.5 -66.5 154.5 -118.5 L154.5 -341.0 25.5 -341.0 25.5 -94.0" fill-rule="evenodd" stroke="none"/>
    </g>
    <g id="font_LilyUPC_R0">
      <path d="M354.5 -191.5 L354.5 -191.5 Q356.0 -192.0 375.0 -194.5 393.5 -197.5 414.0 -209.5 434.5 -221.5 450.5 -250.5 466.0 -279.0 466.0 -328.0 466.0 -406.0 420.5 -441.5 375.5 -477.5 301.0 -477.5 L40.0 -477.5 40.0 0.0 190.5 0.0 190.5 -397.0 248.0 -397.0 Q316.5 -397.0 316.5 -314.0 316.5 -272.0 295.0 -254.5 273.5 -237.5 249.0 -237.5 L190.5 -237.5 317.5 1.0 479.5 0.0 354.5 -191.5" fill-rule="evenodd" stroke="none"/>
    </g>
    <g id="font_LilyUPC_E0">
      <path d="M38.0 -477.5 L38.0 0.0 388.0 0.0 388.0 -81.5 188.5 -81.5 188.5 -207.5 349.5 -207.5 349.5 -289.0 188.5 -289.0 188.5 -396.0 385.0 -396.0 385.0 -477.5 38.0 -477.5" fill-rule="evenodd" stroke="none"/>
    </g>
    <g id="font_LilyUPC_A0">
      <path d="M287.0 -153.5 L176.5 -153.5 232.0 -300.0 287.0 -153.5 M145.0 -70.0 L319.0 -70.0 345.5 0.0 505.0 0.0 324.0 -477.5 188.0 -477.5 9.5 0.0 118.0 0.0 145.0 -70.0" fill-rule="evenodd" stroke="none"/>
    </g>
    <g id="font_LilyUPC_L0">
      <path d="M185.5 -80.0 L185.5 -477.5 35.0 -477.5 35.0 0.0 385.0 0.0 385.0 -80.0 185.5 -80.0" fill-rule="evenodd" stroke="none"/>
    </g>
    <g id="font_LilyUPC_h0">
      <path d="M368.5 -245.5 L368.5 -245.5 Q368.5 -266.5 356.5 -290.0 344.5 -313.0 316.0 -329.5 288.0 -346.0 243.5 -346.0 215.0 -346.0 195.5 -339.0 176.5 -331.5 166.5 -323.5 156.5 -315.0 154.5 -313.0 L154.5 -477.5 25.5 -477.5 25.5 0.0 154.5 0.0 154.5 -216.0 Q155.0 -228.5 165.0 -249.5 175.0 -270.0 207.0 -274.5 240.0 -274.5 256.5 -259.0 272.5 -244.0 272.5 -222.0 L272.5 0.0 368.5 1.0 368.5 -245.5" fill-rule="evenodd" stroke="none"/>
    </g>
    <g id="font_LilyUPC_e0">
      <path d="M210.0 -275.5 L210.0 -275.5 Q244.0 -273.0 255.0 -252.0 266.5 -231.5 266.5 -199.0 L148.5 -199.0 Q148.5 -275.5 210.0 -275.5 M148.5 -139.5 L352.5 -139.5 Q353.0 -144.0 354.5 -156.0 355.5 -167.5 355.5 -183.5 353.0 -276.0 316.5 -311.5 291.0 -336.0 261.0 -343.5 230.5 -350.5 180.5 -350.5 105.0 -348.5 62.0 -306.0 19.5 -263.0 19.5 -163.5 21.0 1.0 168.0 9.5 172.5 9.5 180.0 10.0 187.5 10.5 191.5 10.5 243.0 10.5 281.0 1.0 318.5 -8.0 333.0 -14.0 L347.5 -96.5 Q335.0 -87.5 302.0 -73.5 268.5 -60.0 220.5 -58.5 148.5 -58.5 148.5 -139.5" fill-rule="evenodd" stroke="none"/>
    </g>
    <g id="font_LilyUPC_p0">
      <path d="M158.0 -252.0 L158.0 -252.0 Q164.5 -257.0 179.0 -265.0 194.0 -272.5 213.5 -273.5 251.5 -273.5 268.0 -250.0 285.0 -226.5 285.0 -164.5 285.0 -107.0 267.0 -88.5 249.0 -69.5 213.5 -67.5 193.5 -67.5 175.5 -75.0 158.0 -82.5 158.0 -85.0 L158.0 -252.0 M29.0 136.5 L158.0 136.5 158.0 -11.0 Q167.5 -7.0 191.5 0.0 215.5 6.5 246.0 6.5 300.0 3.5 340.5 -30.0 381.0 -64.0 381.0 -168.0 381.0 -242.0 362.0 -282.0 343.5 -322.0 314.5 -334.5 285.5 -347.5 248.0 -347.5 215.5 -347.5 191.5 -336.5 167.5 -326.0 158.0 -318.5 L158.0 -341.0 29.0 -341.0 29.0 136.5" fill-rule="evenodd" stroke="none"/>
    </g>
    <g id="font_LilyUPC__2">
      <path d="M117.0 -125.5 L117.0 -125.5 Q85.0 -125.5 66.5 -106.5 48.5 -87.5 48.5 -62.5 48.5 -37.0 66.5 -18.0 85.0 1.0 117.0 1.0 149.5 1.0 167.5 -18.0 185.5 -36.5 185.5 -62.5 185.5 -88.5 167.5 -107.0 149.5 -125.5 117.0 -125.5 M44.0 -487.5 L44.0 -379.0 85.0 -163.0 149.5 -163.0 187.5 -379.0 187.5 -487.5 44.0 -487.5" fill-rule="evenodd" stroke="none"/>
    </g>
    <g id="text1" transform="matrix(1.0, 0.0, 0.0, 1.0, 56.5, -2.85)">
      <g transform="matrix(1.0, 0.0, 0.0, 1.0, -58.0, 0.0)">
        <use fill="#ffffff" height="25.1" transform="matrix(0.0293, 0.0, 0.0, 0.0293, 0.0, 23.0)" width="287.25" xlink:href="#font_LilyUPC_-0"/>
        <use fill="#ffffff" height="25.1" transform="matrix(0.0293, 0.0, 0.0, 0.0293, 17.45, 23.0)" width="287.25" xlink:href="#font_LilyUPC_I0"/>
        <use fill="#ffffff" height="25.1" transform="matrix(0.0293, 0.0, 0.0, 0.0293, 22.55, 23.0)" width="287.25" xlink:href="#font_LilyUPC__1"/>
        <use fill="#ffffff" height="25.1" transform="matrix(0.0293, 0.0, 0.0, 0.0293, 28.1, 23.0)" width="287.25" xlink:href="#font_LilyUPC_m0"/>
        <use fill="#ffffff" height="25.1" transform="matrix(0.0293, 0.0, 0.0, 0.0293, 49.6, 23.0)" width="287.25" xlink:href="#font_LilyUPC_t0"/>
        <use fill="#ffffff" height="25.1" transform="matrix(0.0293, 0.0, 0.0, 0.0293, 56.75, 23.0)" width="287.25" xlink:href="#font_LilyUPC_a0"/>
        <use fill="#ffffff" height="25.1" transform="matrix(0.0293, 0.0, 0.0, 0.0293, 67.15, 23.0)" width="287.25" xlink:href="#font_LilyUPC_l0"/>
        <use fill="#ffffff" height="25.1" transform="matrix(0.0293, 0.0, 0.0, 0.0293, 71.6, 23.0)" width="287.25" xlink:href="#font_LilyUPC_k0"/>
        <use fill="#ffffff" height="25.1" transform="matrix(0.0293, 0.0, 0.0, 0.0293, 82.85, 23.0)" width="287.25" xlink:href="#font_LilyUPC_i0"/>
        <use fill="#ffffff" height="25.1" transform="matrix(0.0293, 0.0, 0.0, 0.0293, 87.05, 23.0)" width="287.25" xlink:href="#font_LilyUPC_n0"/>
        <use fill="#ffffff" height="25.1" transform="matrix(0.0293, 0.0, 0.0, 0.0293, 97.5, 23.0)" width="287.25" xlink:href="#font_LilyUPC_g0"/>
        <use fill="#ffffff" height="25.1" transform="matrix(0.0293, 0.0, 0.0, 0.0293, 113.85, 23.0)" width="287.25" xlink:href="#font_LilyUPC_a0"/>
        <use fill="#ffffff" height="25.1" transform="matrix(0.0293, 0.0, 0.0, 0.0293, 124.25, 23.0)" width="287.25" xlink:href="#font_LilyUPC_b0"/>
        <use fill="#ffffff" height="25.1" transform="matrix(0.0293, 0.0, 0.0, 0.0293, 134.7, 23.0)" width="287.25" xlink:href="#font_LilyUPC_o0"/>
        <use fill="#ffffff" height="25.1" transform="matrix(0.0293, 0.0, 0.0, 0.0293, 145.95, 23.0)" width="287.25" xlink:href="#font_LilyUPC_u0"/>
        <use fill="#ffffff" height="25.1" transform="matrix(0.0293, 0.0, 0.0, 0.0293, 156.4, 23.0)" width="287.25" xlink:href="#font_LilyUPC_t0"/>
        <use fill="#ffffff" height="25.1" transform="matrix(0.0293, 0.0, 0.0, 0.0293, 169.15, 23.0)" width="287.25" xlink:href="#font_LilyUPC_R0"/>
        <use fill="#ffffff" height="25.1" transform="matrix(0.0293, 0.0, 0.0, 0.0293, 182.3, 23.0)" width="287.25" xlink:href="#font_LilyUPC_E0"/>
        <use fill="#ffffff" height="25.1" transform="matrix(0.0293, 0.0, 0.0, 0.0293, 193.05, 23.0)" width="287.25" xlink:href="#font_LilyUPC_A0"/>
        <use fill="#ffffff" height="25.1" transform="matrix(0.0293, 0.0, 0.0, 0.0293, 207.15, 23.0)" width="287.25" xlink:href="#font_LilyUPC_L0"/>
        <use fill="#ffffff" height="25.1" transform="matrix(0.0293, 0.0, 0.0, 0.0293, 223.25, 23.0)" width="287.25" xlink:href="#font_LilyUPC_h0"/>
        <use fill="#ffffff" height="25.1" transform="matrix(0.0293, 0.0, 0.0, 0.0293, 233.7, 23.0)" width="287.25" xlink:href="#font_LilyUPC_e0"/>
        <use fill="#ffffff" height="25.1" transform="matrix(0.0293, 0.0, 0.0, 0.0293, 243.5, 23.0)" width="287.25" xlink:href="#font_LilyUPC_l0"/>
        <use fill="#ffffff" height="25.1" transform="matrix(0.0293, 0.0, 0.0, 0.0293, 247.95, 23.0)" width="287.25" xlink:href="#font_LilyUPC_p0"/>
        <use fill="#ffffff" height="25.1" transform="matrix(0.0293, 0.0, 0.0, 0.0293, 264.05, 23.0)" width="287.25" xlink:href="#font_LilyUPC__2"/>
      </g>
    </g>
  </defs>
</svg>
