<?xml version="1.0" encoding="UTF-8" standalone="no"?>
<svg xmlns:xlink="http://www.w3.org/1999/xlink" height="49.0px" width="46.1px" xmlns="http://www.w3.org/2000/svg">
  <g transform="matrix(1.0, 0.0, 0.0, 1.0, 19.0, 19.0)">
    <clipPath id="clipPath0" transform="matrix(1.0, 0.0, 0.0, 1.0, 19.0, 19.0)">
      <use height="22.8" transform="matrix(1.0, 0.0, 0.0, 1.0, -16.7, -18.8)" width="27.0" xlink:href="#shape0"/>
    </clipPath>
    <g clip-path="url(#clipPath0)">
      <use height="24.1" transform="matrix(1.0, 0.0, 0.0, 1.0, -9.95, -4.85)" width="28.7" xlink:href="#shape1"/>
    </g>
  </g>
  <defs>
    <g id="shape0" transform="matrix(1.0, 0.0, 0.0, 1.0, 16.7, 18.8)">
      <path d="M10.05 -18.8 L10.3 4.0 -16.7 2.25 -16.65 -18.65 10.05 -18.8" fill="#000000" fill-rule="evenodd" stroke="none"/>
    </g>
    <g id="shape1" transform="matrix(1.0, 0.0, 0.0, 1.0, 9.95, 4.85)">
      <path d="M-5.55 -4.85 L-4.1 -3.75 -2.8 -3.05 -1.8 -1.9 0.05 -0.45 -0.85 0.75 4.15 2.1 4.4 2.25 4.45 2.3 9.25 5.35 Q9.85 6.3 8.9 7.0 L8.5 7.15 7.8 7.0 3.1 3.85 -0.1 3.15 -0.15 3.1 -0.25 3.1 -0.2 3.15 Q3.05 5.1 5.9 7.3 L12.1 9.85 18.65 13.5 18.75 14.4 Q18.0 16.05 16.95 15.5 L10.75 11.4 8.15 10.25 10.2 12.45 16.1 17.1 Q16.95 17.9 15.55 19.15 L14.7 19.25 9.25 14.2 4.3 8.5 -0.05 5.0 1.35 6.85 5.5 10.55 Q5.7 10.85 5.3 11.5 4.85 12.05 4.2 11.9 L0.1 8.0 -3.2 3.75 -3.2 3.7 -4.35 5.15 -6.45 3.5 -7.5 2.9 -8.25 2.1 -9.95 0.75 -8.9 -0.55 Q-8.8 -1.6 -8.1 -2.4 -7.45 -3.25 -6.55 -3.55 L-5.55 -4.85" fill="#ffffff" fill-opacity="0.0" fill-rule="evenodd" stroke="none"/>
    </g>
  </defs>
</svg>
