<?xml version="1.0" encoding="UTF-8" standalone="no"?>
<svg xmlns:xlink="http://www.w3.org/1999/xlink" height="24.95px" width="171.85px" xmlns="http://www.w3.org/2000/svg">
  <g transform="matrix(1.0, 0.0, 0.0, 1.0, -3.5, -4.85)">
    <use height="24.75" transform="matrix(1.0, 0.0, 0.0, 1.0, 3.95, 4.95)" width="171.25" xlink:href="#sprite0"/>
    <use height="24.75" transform="matrix(1.0, 0.0, 0.0, 1.0, 4.1, 5.05)" width="171.25" xlink:href="#sprite0"/>
    <use height="24.75" transform="matrix(1.0, 0.0, 0.0, 1.0, 4.1, 5.05)" width="171.25" xlink:href="#sprite0"/>
    <use height="24.75" transform="matrix(1.0, 0.0, 0.0, 1.0, 3.5, 4.85)" width="171.25" xlink:href="#text1"/>
  </g>
  <defs>
    <g id="sprite0" transform="matrix(1.0, 0.0, 0.0, 1.0, -3.5, -4.85)">
      <use height="24.75" transform="matrix(1.0, 0.0, 0.0, 1.0, 3.5, 4.85)" width="171.25" xlink:href="#text0"/>
    </g>
    <g id="text0" transform="matrix(1.0, 0.0, 0.0, 1.0, -1.5, -2.85)">
      <g transform="matrix(1.0, 0.0, 0.0, 1.0, 0.0, 0.0)">
        <use fill="#ff0000" height="24.75" transform="matrix(0.0293, 0.0, 0.0, 0.0293, 0.0, 23.0)" width="171.25" xlink:href="#font_LilyUPC_-0"/>
        <use fill="#ff0000" height="24.75" transform="matrix(0.0293, 0.0, 0.0, 0.0293, 17.45, 23.0)" width="171.25" xlink:href="#font_LilyUPC_N0"/>
        <use fill="#ff0000" height="24.75" transform="matrix(0.0293, 0.0, 0.0, 0.0293, 30.8, 23.0)" width="171.25" xlink:href="#font_LilyUPC_e0"/>
        <use fill="#ff0000" height="24.75" transform="matrix(0.0293, 0.0, 0.0, 0.0293, 40.6, 23.0)" width="171.25" xlink:href="#font_LilyUPC_e0"/>
        <use fill="#ff0000" height="24.75" transform="matrix(0.0293, 0.0, 0.0, 0.0293, 50.4, 23.0)" width="171.25" xlink:href="#font_LilyUPC_d0"/>
        <use fill="#ff0000" height="24.75" transform="matrix(0.0293, 0.0, 0.0, 0.0293, 66.65, 23.0)" width="171.25" xlink:href="#font_LilyUPC_s0"/>
        <use fill="#ff0000" height="24.75" transform="matrix(0.0293, 0.0, 0.0, 0.0293, 76.15, 23.0)" width="171.25" xlink:href="#font_LilyUPC_o0"/>
        <use fill="#ff0000" height="24.75" transform="matrix(0.0293, 0.0, 0.0, 0.0293, 87.4, 23.0)" width="171.25" xlink:href="#font_LilyUPC_m0"/>
        <use fill="#ff0000" height="24.75" transform="matrix(0.0293, 0.0, 0.0, 0.0293, 103.3, 23.0)" width="171.25" xlink:href="#font_LilyUPC_e0"/>
        <use fill="#ff0000" height="24.75" transform="matrix(0.0293, 0.0, 0.0, 0.0293, 118.7, 23.0)" width="171.25" xlink:href="#font_LilyUPC_h0"/>
        <use fill="#ff0000" height="24.75" transform="matrix(0.0293, 0.0, 0.0, 0.0293, 129.15, 23.0)" width="171.25" xlink:href="#font_LilyUPC_e0"/>
        <use fill="#ff0000" height="24.75" transform="matrix(0.0293, 0.0, 0.0, 0.0293, 138.95, 23.0)" width="171.25" xlink:href="#font_LilyUPC_l0"/>
        <use fill="#ff0000" height="24.75" transform="matrix(0.0293, 0.0, 0.0, 0.0293, 143.4, 23.0)" width="171.25" xlink:href="#font_LilyUPC_p0"/>
      </g>
    </g>
    <g id="font_LilyUPC_-0">
      <path d="M393.5 -206.5 L393.5 -290.0 48.5 -290.0 48.5 -206.5 393.5 -206.5" fill-rule="evenodd" stroke="none"/>
    </g>
    <g id="font_LilyUPC_N0">
      <path d="M350.5 -199.5 L211.0 -477.5 33.5 -477.5 33.5 0.0 144.5 0.0 144.5 -287.5 294.0 0.0 460.0 0.0 460.0 -477.5 350.5 -477.5 350.5 -199.5" fill-rule="evenodd" stroke="none"/>
    </g>
    <g id="font_LilyUPC_e0">
      <path d="M210.0 -275.5 L210.0 -275.5 Q244.0 -273.0 255.0 -252.0 266.5 -231.5 266.5 -199.0 L148.5 -199.0 Q148.5 -275.5 210.0 -275.5 M148.5 -139.5 L352.5 -139.5 Q353.0 -144.0 354.5 -156.0 355.5 -167.5 355.5 -183.5 353.0 -276.0 316.5 -311.5 291.0 -336.0 261.0 -343.5 230.5 -350.5 180.5 -350.5 105.0 -348.5 62.0 -306.0 19.5 -263.0 19.5 -163.5 21.0 1.0 168.0 9.5 172.5 9.5 180.0 10.0 187.5 10.5 191.5 10.5 243.0 10.5 281.0 1.0 318.5 -8.0 333.0 -14.0 L347.5 -96.5 Q335.0 -87.5 302.0 -73.5 268.5 -60.0 220.5 -58.5 148.5 -58.5 148.5 -139.5" fill-rule="evenodd" stroke="none"/>
    </g>
    <g id="font_LilyUPC_d0">
      <path d="M245.0 -89.0 L245.0 -89.0 Q239.0 -84.0 224.0 -76.0 208.5 -68.0 189.5 -67.5 151.5 -67.5 134.5 -91.0 117.5 -114.5 117.5 -176.0 117.5 -228.0 135.0 -251.0 153.0 -273.5 189.5 -273.5 209.5 -272.0 227.5 -264.0 245.0 -256.0 245.0 -254.0 L245.0 -89.0 M374.0 -477.5 L245.0 -477.5 245.0 -334.5 Q237.0 -338.0 215.5 -343.0 193.5 -347.5 156.5 -347.5 21.5 -341.0 21.5 -177.5 21.5 -102.5 41.5 -61.0 61.5 -20.0 92.0 -5.5 123.0 8.5 161.0 8.5 192.0 8.5 214.5 -2.0 236.5 -12.5 245.0 -19.5 L245.0 0.0 374.0 0.0 374.0 -477.5" fill-rule="evenodd" stroke="none"/>
    </g>
    <g id="font_LilyUPC_s0">
      <path d="M144.5 -244.5 L144.5 -244.5 Q144.5 -278.5 206.5 -278.5 259.5 -278.5 287.5 -269.5 315.5 -261.0 324.5 -255.0 L306.0 -334.0 Q296.0 -338.0 266.5 -343.5 237.5 -349.5 188.5 -349.5 184.5 -349.5 175.5 -349.0 166.5 -348.5 161.5 -348.5 103.0 -346.0 61.0 -322.0 19.5 -297.5 15.0 -251.0 15.0 -202.0 42.0 -179.5 68.5 -156.5 105.5 -148.5 142.5 -140.0 179.0 -130.5 215.0 -121.5 215.0 -100.5 215.0 -81.5 199.0 -72.0 183.0 -62.5 135.0 -62.5 89.5 -63.0 60.0 -76.5 30.5 -90.0 20.5 -99.0 L36.5 -12.0 Q49.5 -7.0 84.5 0.5 119.0 8.5 166.0 8.5 187.5 8.5 198.5 7.5 267.0 2.0 303.0 -25.5 339.0 -53.0 339.0 -117.5 337.0 -161.0 310.5 -181.5 284.0 -202.0 246.0 -209.0 207.5 -216.5 177.0 -223.0 146.0 -229.5 144.5 -244.5" fill-rule="evenodd" stroke="none"/>
    </g>
    <g id="font_LilyUPC_o0">
      <path d="M140.0 -172.0 L140.0 -172.0 Q140.0 -205.5 144.0 -228.5 148.5 -251.0 163.5 -266.5 179.0 -282.5 210.0 -282.5 253.5 -282.5 265.0 -252.0 276.5 -222.0 276.5 -170.0 276.5 -135.0 273.0 -113.0 269.5 -91.0 255.0 -75.0 240.5 -59.5 210.0 -59.5 178.5 -59.5 163.5 -75.5 149.0 -91.5 145.5 -112.5 142.0 -133.0 140.0 -172.0 M209.0 -355.5 L209.0 -355.5 Q115.5 -355.5 67.0 -309.0 18.5 -262.0 17.5 -171.0 17.5 -106.5 38.0 -66.0 59.0 -25.5 101.0 -6.5 142.5 13.0 206.5 13.5 308.5 13.5 354.0 -31.0 399.0 -75.5 399.0 -172.0 399.0 -233.5 381.0 -274.0 362.5 -314.5 320.5 -335.0 278.5 -355.5 209.0 -355.5" fill-rule="evenodd" stroke="none"/>
    </g>
    <g id="font_LilyUPC_m0">
      <path d="M459.0 0.0 L556.0 0.0 556.0 -252.0 Q556.0 -294.0 524.5 -321.5 493.5 -348.5 431.0 -348.5 396.0 -348.0 373.5 -337.5 351.0 -327.0 341.0 -314.5 331.5 -301.5 331.0 -301.0 328.0 -312.5 310.0 -330.0 292.0 -347.5 247.0 -347.5 191.0 -346.5 158.0 -313.0 L158.0 -341.0 29.0 -341.0 29.0 0.0 158.0 0.0 158.0 -211.0 Q158.5 -224.0 167.5 -244.5 177.0 -265.0 208.0 -268.0 260.0 -268.0 260.0 -216.0 L260.0 0.0 356.0 0.0 356.0 -211.0 Q356.5 -224.0 366.0 -244.5 376.0 -265.0 406.5 -268.0 459.0 -268.0 459.0 -216.0 L459.0 0.0" fill-rule="evenodd" stroke="none"/>
    </g>
    <g id="font_LilyUPC_h0">
      <path d="M368.5 -245.5 L368.5 -245.5 Q368.5 -266.5 356.5 -290.0 344.5 -313.0 316.0 -329.5 288.0 -346.0 243.5 -346.0 215.0 -346.0 195.5 -339.0 176.5 -331.5 166.5 -323.5 156.5 -315.0 154.5 -313.0 L154.5 -477.5 25.5 -477.5 25.5 0.0 154.5 0.0 154.5 -216.0 Q155.0 -228.5 165.0 -249.5 175.0 -270.0 207.0 -274.5 240.0 -274.5 256.5 -259.0 272.5 -244.0 272.5 -222.0 L272.5 0.0 368.5 1.0 368.5 -245.5" fill-rule="evenodd" stroke="none"/>
    </g>
    <g id="font_LilyUPC_l0">
      <path d="M32.0 0.0 L161.0 0.0 161.0 -477.5 32.0 -477.5 32.0 0.0" fill-rule="evenodd" stroke="none"/>
    </g>
    <g id="font_LilyUPC_p0">
      <path d="M158.0 -252.0 L158.0 -252.0 Q164.5 -257.0 179.0 -265.0 194.0 -272.5 213.5 -273.5 251.5 -273.5 268.0 -250.0 285.0 -226.5 285.0 -164.5 285.0 -107.0 267.0 -88.5 249.0 -69.5 213.5 -67.5 193.5 -67.5 175.5 -75.0 158.0 -82.5 158.0 -85.0 L158.0 -252.0 M29.0 136.5 L158.0 136.5 158.0 -11.0 Q167.5 -7.0 191.5 0.0 215.5 6.5 246.0 6.5 300.0 3.5 340.5 -30.0 381.0 -64.0 381.0 -168.0 381.0 -242.0 362.0 -282.0 343.5 -322.0 314.5 -334.5 285.5 -347.5 248.0 -347.5 215.5 -347.5 191.5 -336.5 167.5 -326.0 158.0 -318.5 L158.0 -341.0 29.0 -341.0 29.0 136.5" fill-rule="evenodd" stroke="none"/>
    </g>
    <g id="text1" transform="matrix(1.0, 0.0, 0.0, 1.0, -1.5, -2.85)">
      <g transform="matrix(1.0, 0.0, 0.0, 1.0, 0.0, 0.0)">
        <use fill="#ffffff" height="24.75" transform="matrix(0.0293, 0.0, 0.0, 0.0293, 0.0, 23.0)" width="171.25" xlink:href="#font_LilyUPC_-0"/>
        <use fill="#ffffff" height="24.75" transform="matrix(0.0293, 0.0, 0.0, 0.0293, 17.45, 23.0)" width="171.25" xlink:href="#font_LilyUPC_N0"/>
        <use fill="#ffffff" height="24.75" transform="matrix(0.0293, 0.0, 0.0, 0.0293, 30.8, 23.0)" width="171.25" xlink:href="#font_LilyUPC_e0"/>
        <use fill="#ffffff" height="24.75" transform="matrix(0.0293, 0.0, 0.0, 0.0293, 40.6, 23.0)" width="171.25" xlink:href="#font_LilyUPC_e0"/>
        <use fill="#ffffff" height="24.75" transform="matrix(0.0293, 0.0, 0.0, 0.0293, 50.4, 23.0)" width="171.25" xlink:href="#font_LilyUPC_d0"/>
        <use fill="#ffffff" height="24.75" transform="matrix(0.0293, 0.0, 0.0, 0.0293, 66.65, 23.0)" width="171.25" xlink:href="#font_LilyUPC_s0"/>
        <use fill="#ffffff" height="24.75" transform="matrix(0.0293, 0.0, 0.0, 0.0293, 76.15, 23.0)" width="171.25" xlink:href="#font_LilyUPC_o0"/>
        <use fill="#ffffff" height="24.75" transform="matrix(0.0293, 0.0, 0.0, 0.0293, 87.4, 23.0)" width="171.25" xlink:href="#font_LilyUPC_m0"/>
        <use fill="#ffffff" height="24.75" transform="matrix(0.0293, 0.0, 0.0, 0.0293, 103.3, 23.0)" width="171.25" xlink:href="#font_LilyUPC_e0"/>
        <use fill="#ffffff" height="24.75" transform="matrix(0.0293, 0.0, 0.0, 0.0293, 118.7, 23.0)" width="171.25" xlink:href="#font_LilyUPC_h0"/>
        <use fill="#ffffff" height="24.75" transform="matrix(0.0293, 0.0, 0.0, 0.0293, 129.15, 23.0)" width="171.25" xlink:href="#font_LilyUPC_e0"/>
        <use fill="#ffffff" height="24.75" transform="matrix(0.0293, 0.0, 0.0, 0.0293, 138.95, 23.0)" width="171.25" xlink:href="#font_LilyUPC_l0"/>
        <use fill="#ffffff" height="24.75" transform="matrix(0.0293, 0.0, 0.0, 0.0293, 143.4, 23.0)" width="171.25" xlink:href="#font_LilyUPC_p0"/>
      </g>
    </g>
  </defs>
</svg>
