<?xml version="1.0" encoding="UTF-8" standalone="no"?>
<svg xmlns:xlink="http://www.w3.org/1999/xlink" height="10.9px" width="30.8px" xmlns="http://www.w3.org/2000/svg">
  <g transform="matrix(1.0, 0.0, 0.0, 1.0, 24.85, 8.25)">
    <use height="10.9" transform="matrix(1.0, 0.0, 0.0, 1.0, -24.85, -8.25)" width="30.8" xlink:href="#shape0"/>
  </g>
  <defs>
    <g id="shape0" transform="matrix(1.0, 0.0, 0.0, 1.0, 24.85, 8.25)">
      <path d="M4.95 -0.9 L5.5 -1.05 5.95 -0.35 5.8 1.05 5.8 1.35 5.35 2.3 5.2 2.3 5.1 2.4 4.8 2.65 4.55 2.6 4.5 2.65 4.45 2.65 4.15 2.25 4.0 2.25 Q2.6 2.05 1.6 1.05 L1.4 1.15 0.0 0.9 -0.4 0.95 Q-0.95 1.0 -1.4 0.6 L-1.55 0.6 -2.05 0.2 -2.15 -0.15 Q-7.35 -1.6 -12.8 -1.85 L-12.5 -1.65 -12.7 -1.35 -12.85 -1.35 -13.05 -1.05 -13.05 -0.9 -13.2 -0.65 -13.2 -0.5 -13.3 -0.15 -13.7 0.6 -13.85 0.6 -14.1 0.55 -14.15 0.65 -14.4 0.65 -14.8 0.35 -14.9 0.15 Q-14.45 -1.1 -14.8 -2.45 -16.25 -3.6 -17.95 -3.0 L-18.05 -2.85 -18.1 -2.3 -18.05 -2.35 -17.85 -2.05 -18.2 -1.75 -18.45 -1.25 -18.65 0.15 -19.15 0.5 Q-20.25 0.65 -20.35 -0.45 L-20.25 -0.7 -20.25 -0.8 Q-19.45 -2.55 -20.55 -4.45 L-20.8 -4.4 Q-21.25 -4.9 -21.7 -4.8 L-21.8 -4.8 -23.25 -5.3 Q-23.9 -5.45 -24.25 -6.0 L-24.7 -6.05 -24.85 -6.3 -24.6 -7.65 -23.95 -7.55 -23.95 -7.8 -23.65 -8.25 -22.4 -7.9 -22.1 -8.0 -21.6 -7.6 -21.75 -6.95 -19.65 -6.4 -19.55 -6.45 -18.3 -6.15 -18.25 -6.1 -17.75 -5.9 -17.6 -5.95 -17.3 -5.75 -16.3 -5.6 Q-16.0 -5.5 -15.8 -5.8 L-15.45 -5.55 -15.1 -6.35 -14.2 -6.25 -13.9 -6.1 -13.6 -6.1 -12.85 -5.7 -13.1 -5.0 -12.55 -4.9 -12.25 -4.8 -11.6 -4.85 -11.35 -4.75 -9.3 -4.1 -9.05 -4.15 -8.65 -3.9 -8.35 -4.0 -8.0 -3.75 -7.85 -3.8 -6.65 -3.4 -6.6 -3.45 -6.25 -3.25 -6.15 -3.3 -5.7 -3.0 -5.3 -3.0 -5.0 -2.8 -4.35 -2.9 -4.2 -2.8 -3.45 -2.85 -1.25 -1.65 -0.95 -1.6 -0.85 -1.6 -0.6 -1.45 Q0.15 -1.6 0.7 -1.15 L0.8 -1.15 1.2 -0.9 4.7 -0.55 4.95 -0.9" fill="#000000" fill-rule="evenodd" stroke="none"/>
    </g>
  </defs>
</svg>
