<?xml version="1.0" encoding="UTF-8" standalone="no"?>
<svg xmlns:xlink="http://www.w3.org/1999/xlink" height="116.4px" width="75.8px" xmlns="http://www.w3.org/2000/svg">
  <g transform="matrix(1.0, 0.0, 0.0, 1.0, 15.45, 30.15)">
    <use height="55.9" transform="matrix(1.0, 0.0, 0.0, 1.0, 0.0, 0.0)" width="52.6" xlink:href="#shape0"/>
    <use height="111.6" transform="matrix(0.6433, 0.0, 0.0, 1.0432, -15.4748, -30.1595)" width="117.85" xlink:href="#sprite0"/>
  </g>
  <defs>
    <g id="shape0" transform="matrix(1.0, 0.0, 0.0, 1.0, 0.0, 0.0)">
      <path d="M51.8 12.3 L48.75 9.0 49.65 7.85 49.5 7.7 Q49.0 7.9 48.75 7.55 48.5 7.3 48.6 6.9 L49.5 6.15 Q49.0 6.15 48.45 5.45 49.3 5.25 50.3 3.2 L48.75 2.85 48.75 1.65 48.9 1.35 47.7 1.35 47.05 1.9 Q46.55 2.1 46.05 2.55 L45.8 2.4 Q45.65 2.15 45.65 1.5 L45.3 1.5 43.8 2.85 43.65 2.7 Q43.35 1.55 43.05 1.35 L40.85 1.95 Q39.45 2.35 39.3 3.05 L37.25 1.25 Q36.05 0.3 35.9 0.3 35.1 0.3 33.55 1.35 31.95 2.5 31.5 3.45 31.25 2.75 28.95 1.35 L29.0 1.55 28.75 1.65 27.5 1.35 25.8 0.8 25.5 1.5 24.5 1.2 23.95 1.6 Q23.6 2.0 23.3 2.0 22.7 2.0 22.7 1.65 L22.05 1.65 21.95 1.85 16.7 0.0 52.6 0.0 52.6 12.6 51.8 12.3 M51.1 40.2 L52.6 40.7 52.6 46.8 50.75 44.0 49.25 41.75 Q49.25 41.3 51.75 40.65 L51.1 40.2 M49.85 47.0 L50.25 46.7 Q50.9 46.7 52.05 47.35 L52.6 47.7 52.6 54.1 49.75 54.2 49.9 53.4 50.3 50.85 49.65 47.45 49.85 47.0 M0.0 22.55 L11.05 26.35 8.85 27.7 7.2 28.8 7.35 28.95 10.95 30.15 Q7.75 30.6 6.4 31.15 L3.45 32.4 Q4.15 32.9 6.5 33.75 L6.3 33.9 Q4.25 33.75 0.9 35.45 L0.0 35.95 0.0 22.55 M0.5 48.75 L0.0 48.55 0.0 46.6 0.25 46.95 0.6 47.9 0.5 48.75 M12.15 52.8 L12.3 52.25 Q12.45 51.75 13.4 51.75 L14.25 52.55 Q14.25 51.75 14.4 51.15 L14.6 51.35 15.05 52.4 Q15.45 53.2 15.45 53.75 L15.45 53.6 17.55 50.1 Q19.1 47.65 19.8 47.55 L20.05 48.3 20.3 49.25 Q20.9 49.25 22.1 49.95 23.35 50.7 23.75 51.35 24.75 51.0 25.3 50.5 25.7 50.15 25.9 50.15 26.25 50.15 26.4 50.3 L27.0 51.0 Q28.3 50.2 28.05 49.5 L28.2 49.5 28.75 50.4 Q29.1 50.85 28.95 51.15 29.85 51.2 30.9 50.1 32.2 48.75 33.45 48.3 L34.65 50.2 Q35.2 51.15 35.45 52.95 L37.7 51.75 37.95 52.7 38.55 51.8 39.6 50.7 40.5 51.5 Q41.2 51.95 41.0 52.7 L42.25 51.0 43.25 49.5 46.0 52.55 Q46.5 53.0 47.05 54.3 L19.2 55.25 12.15 52.8 M0.15 45.65 L0.0 45.65 0.0 45.55 0.15 45.65 M10.6 52.25 L11.4 52.05 Q11.8 52.05 11.85 52.2 L11.85 52.7 10.6 52.25 M47.25 54.3 L47.7 52.95 48.65 54.15 48.7 54.25 47.25 54.3" fill="#f2f2f2" fill-opacity="0.5019608" fill-rule="evenodd" stroke="none"/>
      <path d="M51.8 12.3 L52.6 12.6 52.6 14.8 52.0 14.4 Q51.5 13.95 51.5 13.35 L51.7 12.9 51.9 12.45 51.8 12.3 M16.7 0.0 L21.95 1.85 21.45 2.4 Q20.95 2.95 21.0 3.6 L19.1 2.0 18.75 2.45 18.2 2.85 17.55 2.0 Q16.05 3.8 15.15 5.3 12.7 1.85 11.75 1.85 11.45 1.85 11.15 2.3 L10.65 2.85 9.95 2.15 8.9 3.05 8.25 2.0 6.65 3.2 6.25 2.55 5.85 1.85 Q4.05 2.6 3.6 3.6 L3.45 3.45 1.85 1.45 1.5 1.05 1.25 1.7 Q0.6 3.05 0.6 4.1 L0.25 5.05 0.0 5.45 0.0 0.0 16.7 0.0 M51.1 40.2 L49.65 39.15 49.95 38.9 Q51.25 39.15 51.75 38.55 L52.2 37.55 48.75 35.7 Q46.25 34.3 45.15 33.2 L48.2 32.6 51.5 31.85 50.7 31.05 50.7 30.15 51.65 30.1 Q52.05 30.0 52.05 29.1 L51.7 28.4 Q51.35 28.05 51.35 27.6 L52.15 26.55 52.6 26.0 52.6 40.7 51.1 40.2 M49.2 20.85 Q47.25 20.1 47.1 19.4 L50.75 17.3 52.6 16.0 52.6 24.75 51.95 24.2 51.5 23.6 Q51.5 23.35 51.65 23.25 L51.9 23.1 Q51.15 22.6 51.15 22.2 L51.2 21.75 51.75 21.5 49.2 20.85 M0.0 22.55 L0.0 16.85 1.35 18.2 0.75 18.8 0.45 19.25 3.45 21.15 2.55 21.9 Q3.2 22.05 5.45 23.15 8.2 24.55 11.15 26.3 L11.05 26.35 0.0 22.55 M0.0 8.75 L0.4 8.95 1.35 9.45 1.35 10.1 Q0.95 10.65 0.0 11.1 L0.0 8.75 M0.45 7.5 Q0.2 7.6 0.0 7.8 L0.0 6.35 0.15 6.55 0.45 7.5 M0.0 48.55 L0.5 48.75 0.0 50.2 0.0 48.55 M12.15 52.8 L19.2 55.25 0.0 55.9 0.0 52.55 4.05 52.55 4.05 52.7 Q3.6 53.35 3.45 53.75 L5.85 53.9 5.6 54.6 8.45 53.25 10.6 52.25 11.85 52.7 12.15 52.8" fill="#b7b7b7" fill-opacity="0.5019608" fill-rule="evenodd" stroke="none"/>
    </g>
    <g id="sprite0" transform="matrix(1.0, 0.0, 0.0, 1.0, -79.4, 43.0)">
      <use height="208.8" transform="matrix(0.3384, 0.0, 0.0, 0.3384, 125.4724, -13.7806)" width="212.15" xlink:href="#sprite1"/>
      <use height="208.8" transform="matrix(0.1398, 0.3057, 0.3057, -0.1398, 101.6102, -13.8373)" width="212.15" xlink:href="#sprite1"/>
      <use height="208.8" transform="matrix(-0.1882, 0.149, 0.149, 0.1882, 128.1017, -20.7503)" width="212.15" xlink:href="#sprite1"/>
      <use height="208.8" transform="matrix(-0.2842, 0.0, 0.0, -0.2842, 159.5887, 33.2307)" width="212.15" xlink:href="#sprite1"/>
      <use height="208.8" transform="matrix(0.267, -0.219, -0.219, -0.267, 125.1218, 68.6134)" width="212.15" xlink:href="#sprite1"/>
      <use height="208.8" transform="matrix(-0.0387, -0.1975, -0.1975, 0.0387, 187.8556, 32.7518)" width="212.15" xlink:href="#sprite1"/>
    </g>
    <g id="sprite1" transform="matrix(1.0, 0.0, 0.0, 1.0, 77.2, 45.15)">
      <use height="26.65" transform="matrix(1.0, 0.0, 0.0, 1.0, 11.15, 4.35)" width="36.4" xlink:href="#sprite2"/>
      <use height="26.65" transform="matrix(0.5278, -0.306, 0.7939, 1.3692, 49.05, 9.35)" width="36.4" xlink:href="#sprite2"/>
      <use height="26.65" transform="matrix(1.0, 0.0, 1.6729, 0.718, -12.85, 26.7)" width="36.4" xlink:href="#sprite2"/>
      <use height="26.65" transform="matrix(0.7903, -0.5799, 1.7121, 0.7026, 40.8, 56.55)" width="36.4" xlink:href="#sprite2"/>
      <use height="26.65" transform="matrix(1.728, 0.0, -0.22, 0.6442, -0.15, 58.15)" width="36.4" xlink:href="#sprite2"/>
    </g>
    <g id="sprite2" transform="matrix(1.0, 0.0, 0.0, 1.0, 0.0, 0.0)">
      <use height="25.45" transform="matrix(1.0, 0.0, 0.0, 1.0, 0.2, 0.0)" width="36.2" xlink:href="#sprite3"/>
      <use height="25.45" transform="matrix(1.0, 0.0, 0.0, 1.0, 0.0, 1.2)" width="36.2" xlink:href="#sprite3"/>
    </g>
    <g id="sprite3" transform="matrix(1.0, 0.0, 0.0, 1.0, 0.0, 0.0)">
      <use height="25.45" transform="matrix(1.0, 0.0, 0.0, 1.0, 0.0, 0.0)" width="36.2" xlink:href="#shape1"/>
    </g>
    <g id="shape1" transform="matrix(1.0, 0.0, 0.0, 1.0, 0.0, 0.0)">
      <path d="M28.8 25.45 L14.35 14.3 0.0 10.2 18.0 0.0 36.2 6.7 32.05 16.0 34.95 17.8 28.8 25.45" fill="#d9d9d9" fill-opacity="0.88235295" fill-rule="evenodd" stroke="none"/>
    </g>
  </defs>
</svg>
