<?xml version="1.0" encoding="UTF-8" standalone="no"?>
<svg xmlns:xlink="http://www.w3.org/1999/xlink" height="64.6px" width="64.6px" xmlns="http://www.w3.org/2000/svg">
  <g transform="matrix(1.0, 0.0, 0.0, 1.0, 0.0, 0.0)">
    <use height="64.6" transform="matrix(1.0, 0.0, 0.0, 1.0, 0.0, 0.0)" width="64.6" xlink:href="#shape0"/>
  </g>
  <defs>
    <g id="shape0" transform="matrix(1.0, 0.0, 0.0, 1.0, 0.0, 0.0)">
      <path d="M55.15 9.45 Q64.6 18.9 64.6 32.25 64.6 45.7 55.15 55.15 50.1 60.2 43.85 62.6 L32.95 64.6 32.25 64.6 26.05 64.05 23.0 63.35 23.0 63.3 22.9 63.3 Q16.75 61.5 11.65 57.2 L10.85 56.5 9.45 55.15 Q0.0 45.7 0.0 32.25 0.0 18.9 9.45 9.45 18.9 0.0 32.25 0.0 45.7 0.0 55.15 9.45" fill="#000000" fill-rule="evenodd" stroke="none"/>
    </g>
  </defs>
</svg>
