<?xml version="1.0" encoding="UTF-8" standalone="no"?>
<svg xmlns:xlink="http://www.w3.org/1999/xlink" height="73.4px" width="730.8px" xmlns="http://www.w3.org/2000/svg">
  <g transform="matrix(1.0, 0.0, 0.0, 1.0, 0.05, 0.15)">
    <use height="73.4" id="laser2" transform="matrix(1.0, 0.0, 0.0, 1.0, -0.05, -0.15)" width="730.8" xlink:href="#sprite0"/>
    <use height="73.4" id="laser" transform="matrix(1.0, 0.0, 0.0, 1.0, -0.05, -0.15)" width="730.8" xlink:href="#sprite2"/>
  </g>
  <defs>
    <g id="sprite0" transform="matrix(1.0, 0.0, 0.0, 1.0, 0.05, 0.15)">
      <use height="73.15" transform="matrix(1.0, 0.0, 0.0, 1.0, 0.0, 0.0)" width="730.75" xlink:href="#sprite1"/>
    </g>
    <g id="sprite1" transform="matrix(1.0, 0.0, 0.0, 1.0, 0.0, 0.0)">
      <use height="73.15" transform="matrix(1.0, 0.0, 0.0, 1.0, 0.0, 0.0)" width="730.75" xlink:href="#shape0"/>
    </g>
    <g id="shape0" transform="matrix(1.0, 0.0, 0.0, 1.0, 0.0, 0.0)">
      <path d="M0.0 44.7 Q0.0 36.4 5.45 33.75 10.1 31.55 17.45 33.8 24.15 35.85 29.45 40.3 34.9 44.85 34.9 48.65 34.9 53.0 33.7 55.15 30.5 60.9 19.9 60.9 11.85 60.9 6.15 56.7 0.0 52.15 0.0 44.7 M31.0 3.0 Q34.9 6.3 34.9 11.9 35.2 14.2 33.8 17.45 30.85 24.15 22.35 24.15 15.75 24.15 12.3 19.3 9.8 15.8 9.8 11.9 9.8 6.3 13.7 3.0 17.25 0.0 22.35 0.0 27.45 0.0 31.0 3.0 M47.45 43.65 Q52.55 43.65 56.1 46.7 60.0 50.15 60.0 56.0 60.25 58.3 58.75 61.55 55.75 68.25 47.45 68.25 40.85 68.25 37.4 63.4 34.9 59.9 34.9 56.0 34.9 50.15 38.8 46.7 42.35 43.65 47.45 43.65 M138.4 35.55 L140.35 38.55 Q143.45 35.8 147.6 35.8 152.7 35.8 156.25 39.95 160.15 44.55 160.15 52.35 L160.3 54.2 Q160.3 57.1 159.5 59.7 156.9 68.25 147.6 68.25 140.2 68.25 137.05 61.75 134.25 63.35 130.15 63.35 122.45 63.35 118.15 54.15 115.15 47.7 115.15 42.25 L115.2 40.85 Q111.6 40.15 109.25 38.25 L108.7 39.5 Q105.7 46.2 97.35 46.2 L95.45 46.1 96.2 46.7 Q100.1 50.15 100.1 56.0 100.2 58.3 98.65 61.55 95.55 68.25 87.55 68.25 80.95 68.25 77.5 63.4 75.0 59.9 75.0 56.0 75.0 50.15 78.9 46.7 82.45 43.65 87.55 43.65 L89.85 43.85 87.9 41.8 Q84.85 43.75 79.9 43.75 74.8 43.75 68.65 37.7 62.45 31.65 62.45 26.6 L62.65 23.95 62.45 21.7 Q62.45 15.85 66.75 12.4 70.65 9.35 76.25 9.35 81.8 9.35 85.7 12.4 90.0 15.85 90.0 21.7 L90.0 23.8 90.05 23.85 Q93.2 21.6 97.5 21.6 102.4 21.6 105.85 24.5 107.0 21.75 109.7 19.75 113.9 16.7 120.05 16.7 126.15 16.7 130.35 19.75 135.05 23.2 135.05 29.05 135.3 30.4 134.85 32.15 136.8 33.5 138.4 35.55 M150.05 0.0 Q155.15 0.0 158.7 3.0 162.6 6.3 162.6 11.9 162.9 14.2 161.5 17.45 158.55 24.15 150.05 24.15 143.45 24.15 140.0 19.3 137.5 15.8 137.5 11.9 137.5 6.3 141.4 3.0 144.95 0.0 150.05 0.0 M210.05 6.25 Q215.15 6.25 218.7 11.0 222.6 16.2 222.6 25.1 223.6 30.2 222.55 34.75 221.2 40.45 216.6 42.55 220.15 46.25 220.15 53.25 220.95 55.65 219.6 59.7 216.8 68.25 206.4 68.25 202.45 68.25 198.45 65.9 192.6 62.45 192.6 55.7 192.6 49.05 196.9 44.4 199.05 42.05 201.75 40.8 199.8 38.9 198.75 35.85 197.5 32.3 197.5 24.8 197.5 16.0 201.4 10.85 204.95 6.2 210.05 6.25 M250.2 21.7 Q250.2 15.85 254.1 12.4 257.65 9.35 262.75 9.35 267.85 9.35 271.4 12.4 275.3 15.85 275.3 21.7 275.55 24.0 274.05 27.25 271.05 33.95 262.75 33.95 256.15 33.95 252.7 29.1 250.2 25.6 250.2 21.7 M290.2 46.7 Q294.8 43.65 301.5 43.65 308.15 43.65 312.75 46.7 317.85 50.15 317.85 56.0 318.45 58.3 316.7 61.55 313.1 68.25 301.35 68.25 292.0 68.25 287.85 63.4 285.1 60.2 285.1 56.0 285.1 50.15 290.2 46.7 M325.2 28.95 Q330.3 28.95 333.85 32.0 337.75 35.45 337.75 41.3 338.0 43.6 336.55 46.85 333.55 53.55 325.2 53.55 318.95 53.55 315.35 48.7 312.65 45.05 312.65 41.3 312.65 35.45 316.55 32.0 320.1 28.95 325.2 28.95 M347.9 0.3 Q355.0 0.7 359.9 4.2 365.35 8.1 365.35 14.35 365.35 18.45 364.1 20.85 361.0 26.6 351.55 26.6 340.4 26.6 334.65 21.1 330.4 17.0 330.4 11.9 330.4 6.05 335.85 2.85 340.8 -0.05 347.9 0.3 M440.35 14.05 Q440.6 18.25 437.9 24.2 434.05 32.7 425.95 35.3 433.4 38.8 438.9 44.8 445.55 52.0 445.55 59.1 L445.55 61.7 Q445.35 64.3 444.45 66.45 441.65 73.15 433.0 73.15 431.7 73.15 417.65 60.4 410.95 54.35 407.3 50.35 L406.8 51.75 Q404.0 58.45 395.35 58.45 388.7 58.45 385.3 53.05 383.7 50.55 383.15 47.8 380.25 48.65 376.65 48.65 370.65 48.65 366.7 45.0 362.9 41.5 362.9 36.75 362.9 31.25 367.6 27.05 371.9 23.15 377.9 22.1 384.1 21.0 388.2 23.7 392.2 26.3 392.8 31.75 L395.35 31.65 Q400.4 32.0 404.0 35.3 L404.9 36.25 Q406.4 33.95 409.15 32.95 L408.5 32.2 Q405.45 28.6 405.45 23.85 405.45 20.15 410.9 13.8 416.4 7.4 422.9 3.6 430.35 -0.8 434.9 1.05 440.35 3.25 440.35 14.05 M497.95 60.9 Q497.95 55.05 504.6 50.85 510.65 47.05 519.25 46.25 527.95 45.5 533.85 48.4 540.5 51.65 540.5 58.45 540.95 62.3 538.05 65.95 532.3 73.15 515.4 73.15 504.7 73.15 500.45 68.3 497.95 65.4 497.95 60.9 M488.15 24.15 Q488.15 28.5 486.95 30.65 483.65 36.4 472.85 36.4 468.55 36.4 465.1 35.45 465.5 37.0 465.5 38.8 471.3 39.05 475.4 41.8 480.5 45.25 480.5 51.1 481.1 53.4 479.4 56.65 475.85 63.35 464.25 63.35 454.5 63.35 450.5 58.5 448.0 55.5 448.0 51.1 L448.0 50.8 Q443.0 49.85 440.3 46.25 437.9 43.0 437.9 38.85 437.9 33.0 442.2 29.55 446.1 26.5 451.7 26.5 L454.05 26.65 Q452.9 24.3 452.9 21.7 452.9 14.95 458.4 12.05 463.25 9.5 470.55 10.55 477.55 11.6 482.65 15.25 488.15 19.2 488.15 24.15 M568.1 6.9 Q574.2 6.9 578.4 10.0 583.1 13.4 583.1 19.25 583.55 21.55 581.9 24.8 578.5 31.5 568.05 31.5 559.5 31.5 555.6 26.65 553.05 23.45 553.05 19.25 553.05 13.45 557.75 10.0 561.95 6.9 568.1 6.9 M654.65 39.4 Q658.15 36.25 663.3 36.55 668.35 36.9 671.95 40.2 675.85 43.85 675.85 49.3 L675.8 51.9 Q675.55 54.5 674.65 56.65 671.8 63.35 663.3 63.35 656.7 63.35 653.25 57.85 650.75 53.9 650.75 49.6 650.75 42.9 654.65 39.4 M650.75 9.35 Q655.85 9.35 659.4 12.4 663.3 15.85 663.3 21.7 663.6 24.0 662.2 27.25 659.3 33.95 650.75 33.95 L647.5 33.6 Q648.3 36.5 648.3 40.1 L648.5 41.95 Q648.55 44.85 647.75 47.45 646.25 52.6 642.25 54.65 643.1 56.45 643.1 58.45 643.1 62.8 641.9 64.95 638.7 70.7 628.1 70.7 620.05 70.7 614.9 65.2 610.65 60.65 610.65 56.0 603.7 56.0 599.25 49.85 595.65 44.85 595.65 39.8 595.65 33.1 599.95 29.55 603.8 26.35 609.45 26.85 615.0 27.35 618.9 31.2 623.2 35.45 623.2 41.95 L623.1 44.65 623.6 44.65 Q623.2 42.5 623.2 40.1 623.2 32.3 627.1 27.7 630.65 23.55 635.75 23.55 L638.4 23.85 638.2 21.7 Q638.2 15.85 642.1 12.4 645.65 9.35 650.75 9.35 M690.75 9.35 Q695.75 9.35 699.25 12.4 703.15 15.85 703.15 21.7 703.4 24.0 701.95 27.25 699.05 33.95 690.9 33.95 684.25 33.95 680.8 29.1 678.3 25.6 678.3 21.7 678.3 15.85 682.2 12.4 685.7 9.35 690.75 9.35 M730.7 53.55 Q730.95 55.85 729.5 59.1 726.6 65.8 718.45 65.8 711.85 65.8 708.4 60.95 705.9 57.45 705.9 53.55 705.9 47.7 709.8 44.25 713.25 41.2 718.3 41.2 723.35 41.2 726.85 44.25 730.7 47.7 730.7 53.55" fill="#cc0000" fill-opacity="0.8901961" fill-rule="evenodd" stroke="none"/>
    </g>
    <g id="sprite2" transform="matrix(1.0, 0.0, 0.0, 1.0, 0.05, 0.15)">
      <use height="73.15" transform="matrix(1.0, 0.0, 0.0, 1.0, 0.0, 0.0)" width="730.75" xlink:href="#sprite1"/>
    </g>
  </defs>
</svg>
