<?xml version="1.0" encoding="UTF-8" standalone="no"?>
<svg xmlns:xlink="http://www.w3.org/1999/xlink" height="159.8px" width="255.0px" xmlns="http://www.w3.org/2000/svg">
  <g transform="matrix(1.0, 0.0, 0.0, 1.0, 127.5, 79.9)">
    <use height="159.8" transform="matrix(1.0, 0.0, 0.0, 1.0, -127.5, -79.9)" width="255.0" xlink:href="#shape0"/>
  </g>
  <defs>
    <g id="shape0" transform="matrix(1.0, 0.0, 0.0, 1.0, 127.5, 79.9)">
      <path d="M-120.5 -56.4 Q-120.5 -66.95 -112.5 -72.95 -103.25 -79.9 -84.0 -79.9 -49.55 -79.9 -36.35 -63.2 -31.45 -56.95 -27.95 -46.5 L-22.5 -27.9 Q-19.6 -18.45 -8.45 -9.85 L2.05 -2.0 Q8.65 3.1 13.5 8.1 20.7 15.55 40.6 19.05 56.15 21.75 70.5 21.1 84.7 20.55 103.05 30.65 113.0 36.15 127.5 46.1 127.1 52.75 121.95 61.65 116.8 70.5 116.5 76.1 L102.8 76.9 73.25 78.1 78.5 78.1 Q78.5 79.9 68.15 79.9 L44.05 78.25 Q8.45 74.05 -4.5 66.1 L-21.5 55.85 -34.5 47.8 -35.7 47.7 Q-40.25 45.9 -50.95 42.35 -70.4 35.8 -83.2 29.7 -127.5 8.5 -127.5 -21.4 -127.5 -34.05 -120.8 -45.4 L-120.35 -45.35 -120.4 -46.05 -120.5 -56.4" fill="#000000" fill-rule="evenodd" stroke="none"/>
    </g>
  </defs>
</svg>
