<?xml version="1.0" encoding="UTF-8" standalone="no"?>
<svg xmlns:xlink="http://www.w3.org/1999/xlink" height="89.0px" width="42.35px" xmlns="http://www.w3.org/2000/svg">
  <g transform="matrix(1.0, 0.0, 0.0, 1.0, 0.0, 0.0)">
    <use height="89.0" transform="matrix(1.0, 0.0, 0.0, 1.0, 0.0, 0.0)" width="42.35" xlink:href="#shape0"/>
  </g>
  <defs>
    <g id="shape0" transform="matrix(1.0, 0.0, 0.0, 1.0, 0.0, 0.0)">
      <path d="M2.15 26.0 Q2.15 25.5 3.2 25.4 5.35 25.2 5.15 23.0 5.0 21.35 7.2 21.5 7.65 21.5 8.2 21.1 9.3 20.3 10.15 18.0 9.45 22.95 14.15 22.7 16.95 22.55 18.35 20.1 19.8 17.6 21.6 16.25 22.45 15.65 22.75 14.6 L22.9 13.95 23.6 11.15 Q24.4 8.6 26.05 7.75 31.05 5.2 36.1 2.85 38.3 1.85 40.45 0.45 41.15 0.0 42.15 0.0 41.45 5.35 35.3 6.2 33.15 6.5 31.1 7.95 27.15 10.8 25.0 12.85 24.15 13.7 23.65 14.55 L23.5 14.8 Q21.95 17.7 24.65 20.5 25.15 21.0 24.85 21.9 L24.35 23.1 Q20.8 30.45 27.1 34.1 28.65 35.0 30.3 35.55 L33.1 36.2 Q36.45 36.65 38.8 39.45 L41.65 42.5 Q42.15 43.0 42.25 44.0 43.1 51.45 37.9 54.55 L36.15 55.0 Q29.9 54.95 24.8 51.9 24.15 51.5 24.35 50.05 25.05 44.8 22.85 41.55 22.15 40.5 22.45 39.05 23.2 35.45 20.15 35.8 18.15 36.0 16.45 36.7 14.65 37.5 13.35 39.15 11.1 42.0 13.45 44.7 L15.05 46.15 Q17.4 47.75 17.5 52.0 17.55 55.9 15.85 58.8 15.15 60.0 14.75 61.2 14.15 63.0 14.15 65.0 14.15 74.0 13.25 82.9 13.15 84.0 12.3 85.1 L9.15 89.0 Q6.45 84.85 4.55 80.8 4.15 80.0 4.15 79.0 4.15 75.5 4.6 72.05 4.65 71.5 5.2 71.1 12.2 65.9 11.05 56.0 10.55 51.7 9.5 48.85 L8.85 47.1 Q8.2 45.2 8.45 43.05 8.85 39.8 7.05 39.4 L3.15 38.8 Q1.35 38.55 0.45 36.25 L0.0 35.4 Q2.25 31.3 2.15 26.0" fill="#990000" fill-rule="evenodd" stroke="none"/>
    </g>
  </defs>
</svg>
