<?xml version="1.0" encoding="UTF-8" standalone="no"?>
<svg xmlns:xlink="http://www.w3.org/1999/xlink" height="186.7px" width="87.05px" xmlns="http://www.w3.org/2000/svg">
  <g transform="matrix(1.0, 0.0, 0.0, 1.0, 21.7, 104.05)">
    <use height="186.7" transform="matrix(1.0, 0.0, 0.0, 1.0, -21.7, -104.05)" width="87.05" xlink:href="#shape0"/>
    <use height="8.8" transform="matrix(1.0, 0.0, 0.0, 1.0, 10.95, 52.3)" width="15.6" xlink:href="#shape1"/>
    <use height="9.15" transform="matrix(1.0, 0.0, 0.0, 1.0, -1.15, 32.65)" width="13.3" xlink:href="#shape2"/>
  </g>
  <defs>
    <g id="shape0" transform="matrix(1.0, 0.0, 0.0, 1.0, 21.7, 104.05)">
      <path d="M4.65 40.35 L3.9 40.2 Q6.65 39.0 9.6 39.65 L9.65 39.5 10.9 39.8 13.45 40.6 Q18.35 37.2 22.65 32.25 L26.45 28.25 26.3 28.15 26.35 27.95 26.3 27.6 26.55 26.1 26.7 25.6 Q26.8 24.5 27.4 24.0 27.4 23.0 28.65 22.45 L29.65 20.3 31.2 16.6 31.25 16.55 31.2 16.55 31.0 16.5 30.9 16.15 32.8 8.0 32.45 3.65 Q32.2 1.2 33.15 0.3 L33.15 0.2 32.65 -0.7 Q32.65 -1.7 32.95 -3.0 L33.15 -3.65 32.7 -5.1 31.55 -9.15 30.3 -10.65 28.4 -12.55 Q27.1 -13.85 26.15 -14.25 L22.95 -15.05 22.85 -15.05 Q17.75 -12.1 15.1 -9.7 L5.3 -0.75 Q3.2 0.65 -2.55 0.65 L-9.25 0.35 -9.3 0.05 -10.45 -0.85 -10.75 -1.85 -10.5 -3.75 -10.3 -6.5 Q-10.3 -9.45 -10.6 -10.9 L-11.65 -13.25 -12.15 -14.3 -13.25 -14.6 Q-13.55 -14.75 -13.55 -16.0 -13.55 -17.15 -12.9 -17.8 L-12.95 -17.85 -13.45 -18.95 -13.0 -20.7 Q-12.55 -21.75 -12.55 -23.25 L-12.55 -23.4 -12.7 -25.75 -12.7 -26.05 -12.85 -26.1 Q-13.2 -28.55 -14.95 -31.9 L-15.15 -32.25 -16.75 -34.95 Q-17.55 -35.35 -18.0 -36.0 -18.45 -36.7 -18.5 -37.9 L-19.3 -38.95 Q-19.85 -40.05 -19.85 -41.5 L-19.85 -41.8 -20.1 -42.3 Q-21.1 -44.3 -21.1 -46.5 L-20.8 -48.4 -20.55 -48.9 -20.9 -49.65 -21.55 -49.75 -21.7 -50.1 Q-21.05 -52.15 -20.9 -53.4 L-20.9 -53.95 Q-20.8 -55.25 -20.35 -56.25 L-19.85 -57.75 -19.75 -58.2 -19.45 -58.5 -19.3 -58.5 Q-19.05 -59.65 -17.6 -60.9 L-15.8 -63.8 -14.2 -66.2 -12.8 -71.5 -12.5 -74.65 Q-12.35 -76.3 -11.15 -76.05 L-11.05 -76.1 -10.95 -76.35 Q-10.25 -77.8 -10.15 -78.85 L-10.1 -80.95 Q-9.9 -82.5 -9.25 -82.5 -8.9 -82.5 -8.75 -82.2 L-8.5 -81.75 Q-8.35 -84.05 -7.0 -86.8 L-6.75 -88.25 Q-6.7 -89.1 -5.95 -89.25 L-5.4 -88.7 -4.75 -90.6 -4.05 -92.55 -3.7 -93.45 -3.6 -93.45 -3.1 -93.15 -2.9 -93.35 Q-0.8 -95.4 0.8 -97.8 L2.0 -99.85 2.4 -99.7 2.6 -99.4 3.85 -101.35 Q4.85 -102.9 5.35 -102.9 L5.75 -102.8 5.95 -102.45 6.75 -103.3 Q7.4 -104.0 7.9 -104.05 L8.05 -103.9 8.15 -103.6 7.7 -102.1 7.1 -100.8 7.1 -100.75 7.7 -101.55 Q8.2 -102.3 8.45 -102.3 8.95 -102.3 8.95 -101.55 10.4 -103.8 10.8 -103.8 11.5 -103.8 11.5 -103.05 L11.2 -102.0 Q12.25 -101.8 11.65 -100.2 12.55 -100.7 13.6 -101.65 14.75 -101.65 14.75 -98.8 L14.8 -99.4 Q14.85 -99.85 15.25 -99.85 16.3 -99.85 16.1 -97.45 L16.2 -97.85 Q16.35 -98.1 16.9 -98.25 L17.35 -97.65 17.55 -97.75 17.9 -97.9 Q18.65 -97.9 18.5 -96.65 L18.2 -94.9 18.2 -94.8 18.7 -95.5 19.55 -96.15 Q20.1 -96.15 20.1 -95.4 L20.0 -94.35 20.5 -95.05 21.1 -95.85 Q21.65 -95.65 21.65 -95.15 L21.45 -94.2 21.2 -93.3 21.5 -93.3 Q22.05 -93.3 22.05 -92.5 L21.95 -91.45 22.0 -91.35 22.45 -92.45 Q22.85 -93.3 23.45 -93.3 24.0 -93.3 23.95 -92.75 L23.6 -91.2 23.6 -91.05 24.35 -91.75 Q24.95 -91.75 24.95 -90.65 L24.85 -89.1 25.35 -90.1 Q25.75 -90.9 26.25 -90.9 27.25 -90.9 27.05 -87.75 L27.05 -86.9 27.2 -85.0 27.75 -85.5 Q28.3 -85.5 28.45 -84.8 L28.55 -83.8 29.0 -83.85 Q29.55 -83.85 29.55 -82.85 L29.45 -81.4 29.55 -81.5 29.8 -81.6 Q30.5 -81.6 30.75 -80.65 L30.95 -79.35 31.2 -79.65 31.6 -79.8 Q32.1 -79.4 32.1 -78.35 L32.05 -76.8 33.05 -77.05 Q34.85 -77.05 35.15 -75.2 L35.3 -72.6 35.65 -74.35 Q35.9 -75.6 36.5 -75.6 37.0 -75.6 37.05 -74.25 L36.95 -72.3 Q37.85 -72.15 38.0 -71.15 L38.2 -69.3 38.3 -69.15 38.8 -69.4 Q39.45 -69.4 39.45 -68.45 L39.35 -66.9 39.8 -66.9 Q40.3 -66.9 40.35 -66.0 L40.25 -64.65 41.05 -64.4 41.05 -64.0 40.7 -62.2 41.5 -62.05 41.5 -61.45 Q41.5 -60.65 40.85 -59.25 L41.3 -59.4 41.8 -58.95 41.35 -57.65 40.85 -56.4 41.75 -56.5 41.8 -56.05 40.95 -52.9 41.05 -52.9 41.15 -52.45 40.35 -50.1 40.25 -49.75 Q39.6 -46.45 39.35 -46.45 L38.8 -44.75 37.4 -41.85 37.65 -40.7 38.0 -38.7 39.8 -34.85 39.35 -34.35 38.9 -33.85 38.45 -32.95 39.35 -29.35 Q39.35 -29.05 39.15 -28.85 L39.0 -28.7 40.1 -26.25 41.8 -23.95 42.2 -23.25 42.8 -23.7 Q43.85 -23.9 44.5 -23.1 L45.0 -21.85 45.95 -20.7 46.55 -19.95 46.8 -20.1 Q47.45 -19.35 51.05 -17.35 L55.3 -14.85 Q55.65 -14.55 57.6 -13.4 59.0 -12.55 59.1 -12.1 L59.65 -9.2 60.9 -6.8 Q63.9 0.25 63.9 7.25 L63.9 9.85 63.75 11.0 Q64.6 12.1 64.95 13.25 65.35 14.4 65.35 16.0 65.35 20.95 63.85 25.8 L63.9 26.1 62.3 45.45 62.6 46.05 61.5 47.85 59.35 50.6 Q58.7 54.0 57.6 54.45 58.3 57.3 58.3 61.25 L58.2 68.65 58.35 82.0 57.6 82.0 57.45 72.55 57.4 72.55 56.65 71.65 56.3 71.8 Q55.4 70.6 55.65 69.45 L56.15 67.15 Q56.15 64.4 55.4 61.3 54.65 58.7 54.65 58.25 L54.75 57.9 55.0 57.85 Q56.9 61.35 56.9 67.15 L56.75 70.55 57.2 71.15 57.45 71.55 57.35 68.85 Q57.05 59.35 57.05 54.5 54.05 54.5 52.35 53.75 L51.0 52.85 50.3 53.2 49.9 53.0 49.85 53.05 43.55 57.05 40.4 59.0 39.25 59.9 37.35 61.4 33.1 65.8 33.0 65.95 32.05 67.35 32.05 67.5 Q32.05 69.2 30.95 75.65 L29.95 82.0 29.85 82.5 29.5 82.65 29.2 82.55 29.1 82.15 29.1 82.0 Q29.15 79.4 30.3 74.45 L30.75 70.6 31.1 68.85 31.1 68.7 30.95 68.85 30.7 68.85 30.6 68.55 Q27.1 73.7 26.55 73.7 L26.3 73.65 25.7 74.1 Q24.45 74.95 23.3 74.95 L22.25 74.8 22.25 74.75 20.9 75.1 17.9 74.8 17.4 74.35 16.15 74.95 11.6 73.65 8.55 74.25 Q6.65 74.25 5.4 73.2 4.55 72.5 4.5 72.0 2.7 71.85 1.6 70.65 0.8 69.9 -0.6 67.45 L-1.3 66.65 -1.45 66.7 Q-2.6 65.85 -2.6 61.75 L-2.45 58.55 -2.3 57.95 -3.05 56.7 Q-3.5 55.85 -4.45 55.2 -5.4 54.6 -5.85 54.6 L-5.85 54.55 -6.65 53.6 -6.95 52.95 -7.4 52.15 -8.25 50.2 -8.25 48.8 -8.4 47.5 -8.5 47.15 -8.4 46.5 -8.4 46.25 -8.35 46.25 Q-7.9 44.7 -5.9 42.7 L-3.7 41.05 -3.55 40.95 Q-0.95 39.55 2.2 40.25 L4.75 40.4 Q6.35 40.7 7.15 41.5 L9.2 44.4 11.0 45.8 12.8 46.9 16.95 47.8 Q17.3 47.95 17.3 48.65 L17.0 50.55 16.95 50.7 17.05 50.55 Q17.75 49.75 17.7 49.05 L17.6 47.9 Q17.55 47.0 17.9 46.8 18.45 47.65 18.6 49.05 21.8 45.5 27.6 40.6 L34.5 34.9 34.7 29.95 33.65 28.85 Q31.25 26.55 30.05 26.55 29.6 26.55 28.35 27.3 L27.35 27.95 26.85 28.85 27.95 27.9 Q26.15 30.25 22.65 33.45 18.6 36.75 15.2 40.85 L14.45 41.95 14.65 42.4 15.15 43.85 14.75 44.2 14.75 44.25 14.7 44.35 Q14.15 43.9 13.85 42.95 L13.55 42.4 13.25 41.85 10.9 40.15 10.35 40.05 8.35 39.85 4.65 40.35 M40.05 82.0 L39.35 82.0 Q39.95 74.25 39.95 69.3 L39.4 61.15 Q39.4 60.85 39.55 60.8 L39.8 60.75 Q40.45 61.2 40.65 64.65 L40.7 69.35 40.4 77.5 40.05 82.0 M24.4 -43.45 Q24.75 -43.2 24.85 -41.85 L25.1 -39.6 25.7 -40.05 26.25 -39.95 26.5 -39.6 26.75 -48.25 Q27.0 -53.45 28.3 -55.9 L28.75 -55.45 28.15 -50.05 28.05 -49.1 30.8 -51.65 Q34.2 -54.6 34.7 -54.7 37.6 -55.0 38.85 -52.2 L39.25 -51.0 39.4 -51.35 39.55 -54.7 40.0 -57.45 39.9 -60.45 39.8 -62.75 39.55 -62.95 Q39.25 -63.15 39.25 -64.2 L38.9 -64.2 Q38.25 -65.7 37.95 -66.55 37.4 -68.0 37.25 -69.0 L36.05 -68.85 35.9 -71.55 Q35.65 -70.75 35.15 -70.75 34.5 -70.75 34.3 -71.95 L34.15 -73.5 34.1 -73.5 Q34.1 -71.65 33.1 -72.55 L32.45 -70.2 Q32.1 -69.05 31.4 -68.1 30.85 -69.2 30.9 -70.85 L30.95 -73.6 30.55 -74.95 Q30.1 -75.7 30.1 -76.35 L29.9 -79.0 29.9 -79.05 Q29.7 -78.55 29.2 -78.55 28.5 -78.55 28.45 -79.45 L28.55 -80.55 Q27.25 -78.25 26.2 -85.45 25.75 -85.75 25.8 -86.85 L25.9 -87.55 25.85 -88.0 25.9 -88.8 Q25.2 -87.3 24.65 -87.3 L23.95 -87.4 23.9 -89.25 Q23.65 -89.25 23.5 -89.05 23.25 -88.8 23.05 -88.8 22.55 -89.05 22.6 -89.5 L22.6 -90.15 22.35 -89.6 Q22.2 -89.25 21.8 -89.25 21.0 -89.25 20.95 -90.05 L21.05 -91.05 Q21.05 -90.9 20.65 -90.9 19.85 -90.9 19.85 -91.5 L20.0 -92.4 Q19.6 -92.1 19.3 -92.1 18.6 -92.4 19.0 -94.0 L18.65 -93.6 18.0 -93.4 Q17.2 -93.4 17.15 -93.9 L17.3 -94.6 16.6 -94.6 16.5 -93.9 Q16.4 -93.4 15.95 -93.4 15.5 -93.4 15.35 -94.8 L15.2 -96.75 Q14.15 -96.55 13.9 -97.55 L13.7 -99.0 13.6 -99.15 13.5 -98.75 Q13.4 -98.5 12.95 -98.4 L12.4 -99.25 12.35 -99.3 Q11.85 -98.55 11.4 -98.55 L10.75 -98.7 10.7 -99.9 Q9.9 -99.7 9.85 -100.4 L9.95 -101.2 Q9.15 -99.95 7.35 -98.25 L5.7 -96.75 5.05 -96.85 5.0 -97.2 6.2 -101.1 6.2 -101.25 Q4.65 -99.9 2.25 -96.95 L0.2 -94.35 -0.15 -94.45 -0.4 -94.75 -0.65 -93.6 Q-0.95 -93.05 -2.2 -92.85 -2.35 -91.2 -2.9 -90.65 -3.3 -90.4 -3.75 -90.1 L-4.65 -87.4 -4.55 -86.5 -4.7 -86.4 -5.0 -86.4 -5.3 -86.55 -5.65 -87.05 -5.85 -86.3 -6.5 -83.95 Q-7.15 -81.65 -8.45 -79.95 L-9.05 -80.25 Q-9.05 -78.75 -9.5 -77.3 L-10.2 -75.25 -12.25 -69.25 -8.15 -75.9 -7.6 -75.0 -6.2 -76.3 -5.65 -75.9 -2.5 -77.75 -2.2 -76.85 -1.45 -77.4 0.45 -75.2 0.6 -75.6 0.8 -76.0 1.1 -76.1 1.35 -76.0 3.5 -77.85 4.0 -77.4 4.0 -77.15 4.1 -77.0 4.25 -76.95 6.15 -77.65 6.1 -77.05 6.8 -77.7 7.4 -77.25 8.05 -75.9 8.95 -76.15 9.6 -75.1 10.45 -74.85 10.85 -73.05 11.9 -72.85 12.5 -71.4 12.9 -72.65 13.25 -72.85 14.6 -70.05 15.35 -70.65 15.85 -70.4 Q16.95 -69.7 17.0 -68.65 L17.15 -69.1 18.0 -69.5 18.8 -68.4 Q19.35 -68.4 19.9 -67.85 21.25 -66.65 21.95 -64.9 L23.15 -62.1 24.15 -59.25 25.0 -59.55 Q25.9 -58.15 25.7 -56.4 L25.65 -54.6 Q25.9 -51.05 24.45 -48.0 L24.05 -46.75 23.45 -43.05 24.4 -43.45 M4.55 -75.75 Q4.25 -75.45 3.7 -75.45 3.05 -75.45 3.0 -75.7 L3.05 -76.15 0.35 -72.85 Q-0.45 -72.85 -0.5 -73.35 L-0.4 -74.25 -1.3 -74.35 -1.3 -75.85 -1.45 -76.05 -2.3 -75.6 Q-2.75 -75.6 -3.05 -75.95 L-3.25 -76.35 -5.4 -74.55 Q-7.25 -73.2 -8.05 -73.2 -8.55 -73.2 -8.65 -73.5 L-8.85 -73.05 -8.8 -72.8 Q-8.8 -72.4 -15.65 -62.25 L-16.4 -60.8 -17.65 -59.05 -17.85 -58.6 -14.05 -58.75 -14.35 -59.75 -14.2 -60.45 -13.7 -60.6 -12.4 -60.25 Q-13.05 -63.0 -10.8 -61.1 L-7.9 -58.05 -7.9 -59.1 Q-7.8 -59.95 -7.25 -59.95 -6.6 -59.95 -5.1 -53.4 L-4.4 -50.25 Q-4.4 -49.7 -5.55 -49.2 L-6.4 -48.85 Q-5.95 -48.45 -5.3 -48.45 -5.1 -48.45 -4.8 -48.75 L-4.75 -48.55 -5.25 -47.55 -5.35 -47.4 -6.35 -47.65 Q-5.65 -46.1 -5.65 -45.0 -5.65 -43.4 -7.2 -41.5 -9.55 -38.65 -13.95 -38.65 -16.9 -38.65 -18.7 -40.35 L-18.4 -39.5 -18.15 -38.95 -18.0 -38.9 -17.6 -38.35 -11.95 -37.15 -11.55 -37.1 -11.65 -37.05 -13.4 -36.95 -15.35 -36.85 -17.35 -37.15 Q-17.25 -36.4 -14.2 -35.5 L-10.75 -34.75 Q-9.15 -36.45 -6.6 -36.6 L-5.95 -37.55 -5.65 -37.85 -5.45 -37.9 -5.45 -36.5 Q-3.6 -35.3 -3.55 -33.4 -6.1 -36.0 -8.5 -35.0 -10.85 -34.1 -11.5 -31.9 L-11.55 -31.65 -12.25 -29.0 -12.05 -27.55 Q-11.8 -26.45 -9.9 -25.55 -8.05 -24.65 -5.65 -24.85 L-5.05 -24.85 -5.75 -24.65 -7.6 -24.35 Q-10.05 -23.8 -11.65 -25.55 L-11.65 -23.25 -12.35 -18.95 Q-12.35 -18.75 -11.55 -18.55 L-11.5 -18.6 -11.5 -18.55 -4.15 -17.95 -4.0 -18.15 -1.65 -18.1 1.8 -18.25 3.7 -18.45 Q4.7 -18.75 7.25 -20.1 L7.4 -20.0 7.45 -19.7 Q7.45 -18.75 4.85 -17.85 2.05 -16.95 -1.4 -16.95 L-3.05 -16.95 -3.25 -16.85 -10.65 -16.95 -12.05 -17.2 -12.55 -15.95 -12.5 -15.4 -12.4 -15.4 -12.35 -15.7 -11.5 -15.35 -5.5 -15.05 Q-4.15 -15.0 -4.15 -14.45 -4.15 -13.95 -4.6 -13.95 L-10.45 -14.1 Q-9.25 -11.85 -9.25 -6.5 L-9.85 -1.85 -8.85 -1.2 -8.55 -1.0 -8.05 -0.7 Q-7.45 -0.3 -6.1 -0.3 L2.6 -0.65 Q3.4 -0.9 8.6 -5.1 12.6 -8.2 14.75 -10.65 L18.05 -13.6 Q20.05 -15.1 21.85 -16.05 22.95 -16.1 24.05 -17.0 25.1 -17.85 25.1 -18.25 L25.05 -18.3 25.5 -19.1 Q26.45 -21.25 26.8 -21.6 L27.05 -20.7 Q27.05 -17.95 24.95 -16.35 L28.75 -13.75 Q29.2 -13.05 30.55 -11.9 31.85 -10.85 32.15 -10.2 L33.55 -6.75 33.8 -5.95 33.85 -6.2 34.1 -5.6 Q34.5 -5.2 35.2 -1.7 40.55 -8.55 41.7 -12.5 42.35 -14.75 42.4 -21.35 41.55 -21.85 39.85 -25.05 L38.1 -28.55 38.0 -28.6 38.05 -28.2 38.0 -27.75 36.6 -27.55 35.6 -27.6 Q33.95 -25.3 31.25 -25.3 30.0 -25.3 29.25 -26.1 28.7 -26.65 28.7 -26.95 L29.35 -28.0 Q29.95 -29.0 29.95 -29.55 29.95 -30.0 27.5 -30.0 27.35 -30.05 27.35 -30.4 L27.55 -30.8 28.5 -30.9 Q29.95 -30.9 30.55 -30.35 L30.95 -29.55 30.6 -28.15 29.75 -26.95 30.0 -26.55 31.3 -26.35 Q34.25 -26.35 35.6 -29.35 L36.35 -32.4 36.0 -33.9 35.45 -35.1 Q34.0 -34.35 33.95 -34.35 L33.7 -34.4 Q33.15 -34.05 32.45 -34.05 L32.0 -34.15 Q31.9 -34.15 31.9 -34.5 31.9 -35.3 33.1 -35.75 34.25 -36.2 34.25 -37.65 34.25 -38.25 34.85 -39.4 L35.9 -41.2 Q38.6 -45.85 38.6 -48.4 38.05 -53.7 36.65 -53.7 33.65 -53.7 31.0 -50.95 L27.9 -47.55 27.55 -42.6 Q28.65 -43.85 29.2 -45.0 L29.8 -46.55 30.5 -48.0 Q33.05 -51.2 35.15 -50.3 36.95 -49.5 36.95 -47.1 L36.8 -45.3 Q36.3 -44.15 34.55 -43.65 L34.0 -44.15 35.0 -45.15 Q35.95 -46.2 35.95 -47.1 L35.9 -48.3 Q35.6 -49.5 34.4 -49.5 32.0 -49.5 30.25 -45.45 28.9 -42.2 27.85 -41.55 L28.8 -40.65 Q29.75 -39.9 30.55 -39.9 31.45 -39.9 32.3 -40.75 32.9 -40.75 32.9 -40.25 L32.1 -39.45 Q31.25 -38.95 30.8 -38.95 29.45 -38.95 28.1 -39.75 L27.55 -40.1 27.65 -39.25 29.15 -38.6 Q30.1 -37.9 30.1 -37.1 L29.35 -36.0 Q28.6 -35.15 28.6 -34.8 28.6 -34.2 29.45 -33.1 L29.45 -32.8 Q29.4 -32.55 29.0 -32.55 28.1 -32.55 27.8 -33.65 L27.65 -34.8 Q27.65 -35.55 28.35 -36.2 L29.0 -37.25 Q29.0 -37.95 27.75 -38.2 L27.95 -36.25 27.95 -35.85 Q27.95 -35.7 27.55 -35.7 27.3 -35.7 26.75 -36.6 L26.15 -37.9 26.0 -37.95 Q26.45 -35.85 25.45 -35.85 24.8 -35.85 24.25 -37.9 L23.8 -40.2 23.75 -40.8 23.75 -40.9 23.45 -40.3 22.85 -39.6 Q22.45 -39.65 22.35 -39.9 L22.3 -40.2 Q22.3 -43.25 22.85 -47.5 23.5 -52.7 24.4 -52.3 L24.55 -53.25 24.1 -56.05 23.15 -58.65 22.0 -61.55 Q21.1 -62.15 19.55 -66.45 L19.55 -66.0 Q19.45 -65.85 19.1 -65.85 18.5 -65.85 18.15 -66.5 L17.9 -67.35 17.85 -66.7 Q17.75 -66.45 17.3 -66.45 16.5 -66.45 16.1 -67.6 L15.55 -69.4 15.3 -68.9 Q15.15 -68.55 14.7 -68.55 14.15 -68.55 13.75 -69.4 L13.4 -70.5 Q13.05 -69.9 12.6 -69.9 12.0 -69.9 11.75 -70.45 L11.35 -71.25 10.7 -71.5 Q10.3 -71.6 10.1 -72.1 L9.4 -73.0 Q8.8 -73.8 8.6 -74.5 L8.4 -74.55 8.15 -74.4 Q8.05 -74.25 7.85 -74.25 7.3 -74.25 6.95 -75.1 L6.65 -76.2 5.85 -75.6 Q5.0 -75.6 5.0 -76.35 L4.55 -75.75 M1.25 -59.9 Q2.75 -60.7 8.4 -61.15 L16.1 -60.9 Q16.1 -60.4 15.25 -60.25 16.65 -58.3 18.1 -55.35 19.85 -51.75 19.85 -49.95 L19.75 -49.6 Q19.7 -49.35 19.3 -49.35 18.95 -49.35 18.6 -50.05 L17.75 -51.1 17.8 -49.6 17.35 -49.35 Q16.85 -50.25 15.75 -51.05 L14.25 -51.8 10.8 -52.4 Q13.7 -50.1 14.15 -49.05 L14.05 -48.75 13.6 -48.6 11.8 -50.3 Q10.35 -51.6 8.4 -51.95 L6.85 -51.65 8.5 -51.0 10.55 -49.8 Q12.35 -46.75 12.35 -45.0 12.35 -43.4 10.8 -41.5 8.45 -38.65 4.05 -38.65 1.1 -38.65 -0.7 -40.35 L-0.4 -39.5 -0.15 -38.95 0.0 -38.9 0.4 -38.35 Q1.05 -38.0 6.05 -37.15 L6.45 -37.1 6.35 -37.05 4.6 -36.95 2.65 -36.85 0.65 -37.15 Q0.75 -36.4 3.8 -35.5 L8.45 -34.7 Q8.35 -34.45 7.95 -34.35 L5.25 -34.2 Q1.3 -34.2 0.0 -36.0 -0.45 -36.7 -0.5 -37.9 -1.0 -38.35 -1.3 -38.95 -1.85 -40.05 -1.85 -41.5 L-1.85 -41.8 -2.1 -42.3 Q-3.1 -44.3 -3.1 -46.5 L-2.95 -47.7 -3.5 -47.8 -3.5 -48.4 -3.2 -48.4 Q-2.85 -48.4 -2.65 -48.95 L-2.6 -49.0 -2.5 -49.25 -2.05 -50.2 Q-2.75 -50.4 -3.15 -50.8 L-3.3 -50.95 -3.75 -51.75 -3.8 -53.4 -3.8 -53.6 -3.7 -55.65 -3.45 -55.65 -3.55 -56.0 -3.55 -57.15 -3.55 -58.75 Q-3.5 -60.1 -2.95 -60.1 -2.55 -60.1 -2.25 -59.7 L-1.9 -59.2 -0.85 -61.3 0.25 -62.7 Q0.7 -62.3 1.0 -61.05 L1.25 -59.9 M0.05 -60.1 L0.05 -60.15 -0.95 -58.6 -1.75 -57.6 Q-2.1 -57.6 -2.25 -57.8 L-2.65 -58.2 -2.65 -55.3 -2.8 -55.25 Q-2.65 -54.85 -2.75 -54.3 L-2.85 -53.4 -3.0 -52.75 Q-2.95 -51.65 -1.05 -51.3 L-0.05 -51.6 0.25 -51.6 2.1 -52.0 3.75 -52.55 Q6.55 -53.4 8.7 -53.15 L9.2 -53.4 10.65 -53.55 12.95 -53.4 14.25 -53.1 Q15.35 -52.85 16.15 -52.3 L16.35 -52.6 16.9 -52.8 Q17.65 -52.8 18.35 -52.0 18.25 -53.6 16.65 -56.15 L14.0 -60.4 10.1 -60.4 1.4 -58.85 Q1.3 -58.65 0.95 -58.65 0.05 -58.65 0.05 -60.1 M1.55 -50.8 Q1.55 -50.05 -0.65 -50.05 -1.35 -49.5 -1.7 -48.75 L-1.7 -48.7 -1.9 -48.2 -2.2 -46.5 Q-2.2 -44.65 -1.3 -42.8 L-0.95 -42.15 1.5 -42.3 10.1 -42.3 Q11.15 -43.65 11.35 -45.05 11.35 -47.7 9.25 -49.45 7.4 -51.05 4.7 -51.35 L1.85 -50.9 1.55 -50.8 M35.85 -39.25 Q35.15 -38.15 35.15 -37.35 L34.9 -36.0 Q36.4 -36.5 36.8 -35.1 L37.3 -33.55 37.3 -32.4 Q37.3 -30.8 36.2 -28.65 L36.15 -28.5 36.8 -28.6 36.85 -29.2 Q37.05 -29.65 38.05 -29.7 L37.45 -32.95 37.75 -33.95 37.6 -34.3 37.45 -34.7 Q37.45 -35.25 38.3 -35.25 37.05 -38.65 36.7 -40.5 L35.85 -39.25 M0.35 -45.1 L0.35 -45.6 Q0.35 -46.6 1.2 -46.6 2.05 -46.6 2.05 -45.55 L2.0 -44.95 Q1.85 -44.65 1.25 -44.65 0.55 -44.65 0.35 -45.1 M0.05 -41.25 L-0.2 -41.25 Q1.4 -39.6 4.1 -39.6 7.3 -39.6 9.3 -41.35 2.1 -42.3 0.05 -41.25 M34.1 -16.6 L34.0 -16.35 33.9 -16.2 33.55 -16.05 Q32.95 -16.05 31.5 -18.45 L29.6 -21.75 Q31.05 -21.5 32.3 -19.55 L34.1 -16.6 M33.95 -2.4 L33.75 -1.9 33.35 -0.75 34.0 0.4 34.65 1.7 34.65 2.0 34.65 2.05 34.6 2.05 34.3 2.05 34.2 1.95 Q35.55 6.95 35.85 12.2 L36.05 14.4 36.1 18.4 36.1 22.85 36.25 23.0 36.2 23.25 36.1 23.35 36.1 26.9 36.35 26.9 36.45 27.25 36.2 33.45 36.45 33.25 36.3 34.35 36.1 34.55 35.35 46.0 35.75 46.25 37.4 47.45 37.3 47.75 37.0 47.85 Q36.5 47.85 35.5 47.1 L35.2 46.85 35.15 46.9 35.3 47.7 Q35.8 49.2 37.6 49.45 L37.7 49.55 42.1 46.5 Q43.5 44.7 45.2 43.05 45.25 42.7 45.65 41.85 L46.0 41.2 Q45.5 40.35 45.15 38.95 L44.75 36.7 Q44.75 36.25 46.55 35.2 L48.45 34.25 49.05 33.45 49.5 33.1 49.5 32.8 49.6 27.65 Q49.75 25.0 50.3 22.95 L50.15 22.7 Q49.75 21.7 49.75 19.0 L49.8 16.55 50.0 15.5 49.9 14.5 49.9 11.95 49.75 1.6 49.8 1.35 Q50.9 2.6 50.85 5.8 L50.65 11.3 50.5 14.1 50.5 14.25 50.65 13.95 Q51.0 14.25 51.0 14.7 L50.8 15.95 51.2 16.65 52.7 19.15 Q53.75 21.15 53.75 21.85 L53.7 22.15 53.6 22.15 Q53.85 22.25 53.35 22.25 L52.1 20.05 50.6 17.15 50.45 19.1 Q50.45 21.0 51.25 22.35 52.3 24.25 52.85 26.9 L52.5 27.25 50.75 23.9 50.8 25.3 50.35 32.75 Q55.6 35.5 57.1 40.4 L56.75 40.7 Q54.35 37.4 51.65 34.8 L50.45 33.7 49.2 34.9 52.0 37.2 Q54.3 39.0 54.3 39.8 L54.25 40.1 54.2 40.15 Q54.4 40.3 53.9 40.3 L52.2 38.65 52.15 38.5 52.1 38.55 48.0 35.25 47.15 35.75 45.7 36.65 46.0 37.7 46.6 39.0 46.6 40.35 46.75 40.25 46.75 40.2 47.25 39.5 46.55 37.4 46.65 37.05 46.9 37.0 47.95 38.75 48.15 38.85 48.25 38.75 Q48.5 39.05 48.85 39.05 L48.8 39.2 Q51.4 40.55 53.55 42.35 56.7 45.05 56.7 47.1 L56.65 47.4 56.6 47.4 56.45 47.5 56.7 48.8 56.75 48.75 57.1 49.8 57.2 49.75 57.25 50.1 57.1 50.35 57.05 51.75 56.75 51.9 56.7 51.85 56.55 51.9 56.15 50.85 54.75 51.4 52.15 52.4 53.1 52.85 Q55.2 53.75 56.1 53.75 L58.0 53.7 58.55 49.4 Q58.95 46.85 59.5 45.3 L59.75 45.4 59.85 45.8 59.7 48.15 60.3 47.4 61.7 45.85 58.55 39.35 58.6 39.1 Q59.25 39.0 59.95 40.3 L60.8 42.25 61.55 44.0 61.85 38.05 62.45 29.5 61.65 32.1 Q61.2 34.0 60.6 35.0 L60.35 34.95 60.25 34.55 Q60.25 33.55 61.75 29.05 62.55 26.55 63.1 25.8 L63.7 23.25 Q64.6 19.25 64.6 15.95 64.6 13.15 63.65 12.15 L63.2 15.75 Q62.7 17.9 61.7 19.35 L61.45 19.3 61.35 18.95 Q61.35 18.1 62.05 15.1 L62.8 12.0 63.15 7.25 Q63.15 2.3 62.6 -0.35 L61.25 -4.85 61.0 -4.85 Q60.5 -4.85 59.75 -6.85 L59.4 -7.9 59.2 -8.2 59.15 -8.35 59.1 -8.25 58.65 -5.9 Q58.1 -3.4 57.65 -2.75 L57.4 -2.8 57.3 -3.2 Q57.3 -4.25 57.6 -5.9 L57.85 -7.15 57.85 -7.2 Q57.85 -10.3 58.8 -10.0 L58.35 -11.35 58.25 -11.65 53.75 -6.45 56.75 -8.15 57.1 -7.75 52.25 -4.55 49.75 -0.95 49.45 -1.0 49.35 -1.35 Q49.35 -2.25 53.5 -7.2 L57.9 -12.15 Q57.0 -13.4 54.65 -14.45 51.95 -15.6 50.0 -16.65 47.6 -17.95 46.8 -18.9 L45.85 -14.2 Q44.8 -9.5 44.05 -7.9 L43.8 -7.95 43.7 -8.3 44.7 -13.0 Q45.6 -17.1 46.25 -19.15 45.7 -19.5 44.6 -21.35 43.65 -22.9 42.6 -22.8 L42.8 -22.65 42.95 -22.65 43.05 -22.45 43.7 -21.95 43.75 -22.05 43.95 -21.8 44.1 -21.7 44.1 -21.55 44.25 -20.6 Q44.25 -19.4 43.5 -18.4 L43.3 -18.4 Q43.05 -14.2 41.35 -9.6 39.05 -3.4 35.1 -0.35 34.45 -1.25 34.1 -2.4 L33.95 -2.4 M43.05 -6.0 L43.15 -5.65 Q43.15 -4.9 39.95 -0.95 L36.2 3.3 35.9 3.3 35.8 2.95 Q35.8 2.4 42.75 -6.05 L43.05 -6.0 M61.25 -4.9 L61.2 -4.95 61.15 -4.9 61.25 -4.9 M22.85 59.8 L22.65 60.4 22.3 61.0 22.3 61.25 21.95 61.5 21.9 61.5 19.75 63.45 18.45 64.55 15.95 66.5 Q14.05 68.15 9.9 69.9 L5.65 71.75 5.2 72.0 6.35 72.95 Q7.1 73.45 8.65 73.45 10.5 73.45 15.5 71.45 L15.85 71.8 Q15.4 72.35 12.85 73.25 L13.6 73.5 16.05 74.05 Q16.5 74.05 19.55 72.0 L19.9 72.35 18.1 73.95 18.7 74.1 19.7 74.35 Q21.65 74.35 23.05 73.55 L24.45 72.55 24.85 72.9 23.65 73.9 24.75 73.35 26.55 72.15 26.8 72.2 26.9 72.35 29.25 69.4 32.25 65.2 32.5 65.2 33.9 63.5 34.15 63.55 34.2 63.55 35.25 62.5 35.2 62.25 Q35.2 61.45 38.65 58.85 L42.3 56.35 42.65 56.55 43.35 56.05 Q45.2 54.8 46.85 53.9 49.1 52.3 52.25 50.85 L52.55 51.05 53.3 50.6 55.75 49.35 55.45 46.4 53.7 44.4 Q51.1 41.5 48.55 39.65 L47.95 40.65 46.7 42.55 Q46.25 43.8 41.2 48.4 L41.05 48.3 Q38.3 50.45 30.55 55.5 L30.55 55.6 Q30.55 56.0 29.55 56.25 L28.0 56.5 26.3 56.5 26.2 56.4 Q25.75 56.7 25.65 56.2 L26.35 55.6 29.65 55.3 Q30.5 54.55 33.35 52.55 L33.3 52.25 Q33.35 50.95 33.55 49.75 33.8 48.3 34.3 47.65 L34.25 47.1 34.25 46.9 34.25 46.75 34.65 40.45 34.7 40.25 34.7 39.9 34.45 39.85 34.4 39.5 34.5 35.85 33.45 36.6 27.3 41.2 Q25.4 42.8 22.65 45.6 L18.65 49.7 18.65 49.95 17.75 51.05 16.3 51.9 16.2 52.0 Q15.4 53.1 14.3 53.45 13.55 54.1 13.75 55.35 L13.7 55.75 12.6 56.05 11.8 56.2 11.95 56.6 22.85 57.05 23.8 58.4 23.55 58.7 Q23.15 58.25 22.55 57.85 L22.4 57.8 21.9 57.65 Q13.4 57.8 12.75 57.55 L11.3 57.15 Q10.1 56.9 9.0 56.45 L7.7 55.65 5.75 55.65 5.55 55.65 3.8 55.65 5.0 55.0 8.3 55.3 8.85 55.5 8.95 55.55 9.0 55.55 11.0 56.35 9.75 53.45 8.65 50.35 Q6.9 48.6 5.7 48.0 L5.7 47.6 6.65 47.6 Q7.45 47.75 8.3 48.4 9.55 49.35 9.55 50.25 L9.5 50.65 9.55 50.75 9.7 51.5 Q10.35 52.75 12.7 52.75 L13.3 52.75 13.65 52.7 Q15.25 52.4 15.9 51.2 L16.55 49.25 16.55 48.3 Q12.0 48.05 8.35 44.45 L6.05 42.4 6.05 42.75 5.85 43.6 Q5.6 44.05 5.15 44.05 4.5 44.05 4.2 43.45 L4.05 42.85 4.25 42.15 4.8 42.0 5.1 41.95 5.5 41.95 4.25 41.25 3.95 41.9 2.95 42.35 Q2.15 42.35 1.65 41.55 L1.35 41.0 Q-1.3 41.15 -3.15 41.8 L-3.75 42.05 Q-5.4 42.7 -6.35 43.75 -6.85 44.3 -7.65 46.75 L-6.7 51.1 -6.45 51.6 Q-6.4 49.75 -5.35 48.3 -4.05 46.5 -1.5 45.75 L-0.9 45.55 -0.8 45.5 -0.75 45.85 -2.0 46.4 Q-3.6 47.1 -5.05 49.15 -5.8 50.15 -5.7 52.45 L-6.0 52.65 -5.9 53.0 Q-5.75 53.3 -4.8 53.75 L-4.1 54.15 -3.7 54.15 -1.85 57.05 -1.8 57.0 Q-1.5 56.6 -1.05 56.6 0.55 55.95 0.95 55.6 L1.3 55.95 Q0.7 56.75 -1.5 58.0 L-1.5 58.05 -1.5 58.25 -1.75 58.35 -1.85 59.45 -1.85 61.8 -1.65 64.1 -1.6 64.4 1.55 69.0 2.3 69.6 2.2 69.3 2.35 69.2 2.25 69.0 2.2 67.8 2.25 66.55 3.15 65.4 3.4 65.45 3.5 65.75 3.25 66.75 2.95 67.8 Q2.95 68.65 3.5 69.8 L3.45 69.9 Q3.95 70.3 4.5 70.4 L4.6 70.7 4.5 70.9 5.25 71.25 Q6.4 70.55 9.25 69.2 L14.9 66.35 17.0 64.65 19.25 62.65 21.55 60.55 21.55 60.35 Q22.05 60.4 22.85 59.8 M4.8 42.0 Q4.35 42.0 4.35 42.65 L4.35 43.1 Q4.45 43.5 5.0 43.5 L5.55 43.25 5.85 42.65 Q5.85 42.15 5.1 42.0 L4.8 42.0 M33.15 10.85 Q33.15 13.0 31.65 17.5 30.6 20.55 29.75 22.1 L30.95 21.85 Q33.45 21.5 35.0 22.2 L34.95 20.5 34.95 13.1 33.7 4.95 33.3 9.7 33.15 10.7 33.15 10.85 M28.55 23.6 Q30.1 23.45 32.95 24.95 L32.9 25.2 32.55 25.35 30.9 24.85 Q29.65 24.35 29.25 24.35 27.7 24.35 27.5 25.35 L27.5 26.15 Q28.85 25.25 31.6 26.55 33.7 27.55 34.8 28.55 L35.15 24.85 35.05 23.35 Q34.4 23.2 33.7 22.85 32.5 22.3 31.8 22.3 30.25 22.3 28.95 23.25 L28.55 23.6 M2.4 41.3 L2.45 41.5 Q2.6 41.85 3.15 41.85 3.75 41.85 3.75 41.4 3.75 40.75 3.1 40.75 2.4 40.75 2.4 41.3 M4.95 48.25 Q5.5 48.25 5.8 49.1 L6.05 50.1 6.0 50.35 5.6 50.5 Q5.35 50.5 4.9 49.7 L4.45 48.45 4.95 48.25 M34.15 52.05 L36.9 50.1 Q35.65 50.0 35.0 49.15 L34.75 50.2 34.15 52.05 M29.1 82.0 L29.95 82.0 29.1 82.0 M10.5 53.25 L10.65 53.45 11.65 55.8 12.5 55.55 12.7 55.25 Q13.4 54.65 13.15 53.65 L11.25 53.45 10.5 53.25 M10.7 58.15 L10.5 58.3 9.85 58.65 8.8 59.0 Q9.4 60.15 9.4 60.65 9.4 61.25 8.85 61.3 L7.5 59.35 5.75 59.7 5.15 59.55 4.75 59.05 6.95 58.3 6.05 56.4 Q7.0 56.1 8.2 58.0 L9.0 57.9 10.65 57.85 10.7 58.15 M6.25 52.65 Q6.25 51.65 7.0 52.3 7.75 53.0 7.75 53.9 L7.7 54.55 Q7.9 54.7 7.4 54.7 6.95 54.7 6.25 52.65 M14.5 70.7 Q14.25 70.2 14.4 69.95 15.0 69.9 15.2 70.25 L15.45 71.0 15.05 71.3 Q14.7 71.2 14.5 70.7 M49.9 58.95 Q50.25 60.5 50.85 61.35 L52.85 63.5 55.25 65.9 55.25 66.15 54.9 66.3 Q52.3 66.3 50.4 62.2 48.95 59.15 48.95 57.7 48.95 56.95 49.3 56.7 L49.9 58.95 M47.85 61.9 Q49.3 61.9 50.65 64.0 L52.65 67.4 52.25 67.8 50.3 64.85 Q49.05 62.95 47.85 61.9 M-11.45 -59.35 Q-11.5 -58.95 -12.0 -58.95 L-13.25 -59.35 -12.95 -58.1 Q-12.9 -57.55 -13.9 -57.6 L-16.3 -57.6 -18.8 -57.45 -18.85 -57.15 -19.3 -56.3 -19.4 -56.1 -19.75 -54.15 -19.9 -53.4 -20.15 -51.55 -19.6 -50.95 -19.65 -50.45 Q-15.75 -53.1 -10.9 -51.55 L-9.5 -51.0 -8.5 -50.5 -8.15 -50.3 -7.45 -49.85 -7.0 -49.75 Q-6.55 -49.75 -6.15 -50.2 -5.75 -50.55 -5.75 -50.8 L-6.3 -53.4 -7.0 -56.35 -7.15 -56.15 Q-7.25 -56.05 -7.45 -56.05 -10.4 -59.35 -11.45 -60.0 L-11.45 -59.35 M-18.65 -50.05 L-19.85 -48.4 Q-20.2 -47.55 -20.2 -46.5 -20.2 -44.65 -19.3 -42.8 L-18.9 -42.1 -8.0 -42.15 -7.9 -42.3 Q-6.85 -43.65 -6.65 -45.05 -6.65 -47.4 -8.25 -49.0 L-8.6 -49.25 -8.8 -49.5 Q-9.75 -50.3 -10.9 -50.75 L-13.3 -51.35 -16.35 -50.8 -18.65 -50.05 M-16.0 -44.95 Q-16.15 -44.65 -16.75 -44.65 -17.45 -44.65 -17.65 -45.1 L-17.65 -45.6 Q-17.65 -46.6 -16.8 -46.6 -15.95 -46.6 -15.95 -45.55 L-16.0 -44.95 M-13.9 -39.6 Q-10.7 -39.6 -8.7 -41.4 L-18.45 -41.5 Q-16.8 -39.6 -13.9 -39.6 M-15.05 -34.4 L-13.75 -31.9 -12.95 -29.85 -12.55 -31.9 -11.8 -33.45 -11.25 -34.2 -12.75 -34.2 -15.05 -34.4" fill="#000000" fill-rule="evenodd" stroke="none"/>
      <path d="M43.05 -6.0 L42.75 -6.05 Q35.8 2.4 35.8 2.95 L35.9 3.3 36.2 3.3 39.95 -0.95 Q43.15 -4.9 43.15 -5.65 L43.05 -6.0 M33.95 -2.4 L34.1 -2.4 Q34.45 -1.25 35.1 -0.35 39.05 -3.4 41.35 -9.6 43.05 -14.2 43.3 -18.4 L43.5 -18.4 Q44.25 -19.4 44.25 -20.6 L44.1 -21.55 44.1 -21.7 43.95 -21.8 43.75 -22.05 43.7 -21.95 43.05 -22.45 42.95 -22.65 42.8 -22.65 42.6 -22.8 Q43.65 -22.9 44.6 -21.35 45.7 -19.5 46.25 -19.15 45.6 -17.1 44.7 -13.0 L43.7 -8.3 43.8 -7.95 44.05 -7.9 Q44.8 -9.5 45.85 -14.2 L46.8 -18.9 Q47.6 -17.95 50.0 -16.65 51.95 -15.6 54.65 -14.45 57.0 -13.4 57.9 -12.15 L53.5 -7.2 Q49.35 -2.25 49.35 -1.35 L49.45 -1.0 49.75 -0.95 52.25 -4.55 57.1 -7.75 56.75 -8.15 53.75 -6.45 58.25 -11.65 58.35 -11.35 58.8 -10.0 Q57.85 -10.3 57.85 -7.2 L57.85 -7.15 57.6 -5.9 Q57.3 -4.25 57.3 -3.2 L57.4 -2.8 57.65 -2.75 Q58.1 -3.4 58.65 -5.9 L59.1 -8.25 59.15 -8.35 59.2 -8.2 59.4 -7.9 59.75 -6.85 Q60.5 -4.85 61.0 -4.85 L61.25 -4.85 62.6 -0.35 Q63.15 2.3 63.15 7.25 L62.8 12.0 62.05 15.1 Q61.35 18.1 61.35 18.95 L61.45 19.3 61.7 19.35 Q62.7 17.9 63.2 15.75 L63.65 12.15 Q64.6 13.15 64.6 15.95 64.6 19.25 63.7 23.25 L63.1 25.8 Q62.55 26.55 61.75 29.05 60.25 33.55 60.25 34.55 L60.35 34.95 60.6 35.0 Q61.2 34.0 61.65 32.1 L62.45 29.5 61.85 38.05 61.55 44.0 60.8 42.25 59.95 40.3 Q59.25 39.0 58.6 39.1 L58.55 39.35 61.7 45.85 60.3 47.4 59.7 48.15 59.85 45.8 59.75 45.4 59.5 45.3 Q58.95 46.85 58.55 49.4 L58.0 53.7 56.1 53.75 Q55.2 53.75 53.1 52.85 L52.15 52.4 54.75 51.4 56.15 50.85 56.55 51.9 56.7 51.85 56.75 51.9 57.05 51.75 57.1 50.35 57.25 50.1 57.2 49.75 57.1 49.8 56.75 48.75 56.7 48.8 56.45 47.5 56.6 47.4 56.65 47.4 56.7 47.1 Q56.7 45.05 53.55 42.35 51.4 40.55 48.8 39.2 L48.85 39.05 Q48.5 39.05 48.25 38.75 L48.15 38.85 47.95 38.75 46.9 37.0 46.65 37.05 46.55 37.4 47.25 39.5 46.75 40.2 46.75 40.25 46.6 40.35 46.6 39.0 46.0 37.7 45.7 36.65 47.15 35.75 48.0 35.25 52.1 38.55 52.15 38.5 52.2 38.65 53.9 40.3 Q54.4 40.3 54.2 40.15 L54.25 40.1 54.3 39.8 Q54.3 39.0 52.0 37.2 L49.2 34.9 50.45 33.7 51.65 34.8 Q54.35 37.4 56.75 40.7 L57.1 40.4 Q55.6 35.5 50.35 32.75 L50.8 25.3 50.75 23.9 52.5 27.25 52.85 26.9 Q52.3 24.25 51.25 22.35 50.45 21.0 50.45 19.1 L50.6 17.15 52.1 20.05 53.35 22.25 Q53.85 22.25 53.6 22.15 L53.7 22.15 53.75 21.85 Q53.75 21.15 52.7 19.15 L51.2 16.65 50.8 15.95 51.0 14.7 Q51.0 14.25 50.65 13.95 L50.5 14.25 50.5 14.1 50.65 11.3 50.85 5.8 Q50.9 2.6 49.8 1.35 L49.75 1.6 49.9 11.95 49.9 14.5 50.0 15.5 49.8 16.55 49.75 19.0 Q49.75 21.7 50.15 22.7 L50.3 22.95 Q49.75 25.0 49.6 27.65 L49.5 32.8 49.5 33.1 49.05 33.45 48.45 34.25 46.55 35.2 Q44.75 36.25 44.75 36.7 L45.15 38.95 Q45.5 40.35 46.0 41.2 L45.65 41.85 Q45.25 42.7 45.2 43.05 43.5 44.7 42.1 46.5 L37.7 49.55 37.6 49.45 Q35.8 49.2 35.3 47.7 L35.15 46.9 35.2 46.85 35.5 47.1 Q36.5 47.85 37.0 47.85 L37.3 47.75 37.4 47.45 35.75 46.25 35.35 46.0 36.1 34.55 36.3 34.35 36.45 33.25 36.2 33.45 36.45 27.25 36.35 26.9 36.1 26.9 36.1 23.35 36.2 23.25 36.25 23.0 36.1 22.85 36.1 18.4 36.05 14.4 35.85 12.2 Q35.55 6.95 34.2 1.95 L34.3 2.05 34.6 2.05 34.65 2.05 34.65 2.0 34.65 1.7 34.0 0.4 33.35 -0.75 33.75 -1.9 33.95 -2.4" fill="url(#gradient0)" fill-rule="evenodd" stroke="none"/>
      <path d="M28.55 23.6 L28.95 23.25 Q30.25 22.3 31.8 22.3 32.5 22.3 33.7 22.85 34.4 23.2 35.05 23.35 L35.15 24.85 34.8 28.55 Q33.7 27.55 31.6 26.55 28.85 25.25 27.5 26.15 L27.5 25.35 Q27.7 24.35 29.25 24.35 29.65 24.35 30.9 24.85 L32.55 25.35 32.9 25.2 32.95 24.95 Q30.1 23.45 28.55 23.6 M33.15 10.85 L33.15 10.7 33.3 9.7 33.7 4.95 34.95 13.1 34.95 20.5 35.0 22.2 Q33.45 21.5 30.95 21.85 L29.75 22.1 Q30.6 20.55 31.65 17.5 33.15 13.0 33.15 10.85" fill="#1064a2" fill-rule="evenodd" stroke="none"/>
      <path d="M57.6 82.0 L40.05 82.0 40.4 77.5 40.7 69.35 40.65 64.65 Q40.45 61.2 39.8 60.75 L39.55 60.8 Q39.4 60.85 39.4 61.15 L39.95 69.3 Q39.95 74.25 39.35 82.0 L29.95 82.0 30.95 75.65 Q32.05 69.2 32.05 67.5 L32.05 67.35 33.0 65.95 33.1 65.8 37.35 61.4 39.25 59.9 40.4 59.0 43.55 57.05 49.85 53.05 49.9 53.0 50.3 53.2 51.0 52.85 52.35 53.75 Q54.05 54.5 57.05 54.5 57.05 59.35 57.35 68.85 L57.45 71.55 57.2 71.15 56.75 70.55 56.9 67.15 Q56.9 61.35 55.0 57.85 L54.75 57.9 54.65 58.25 Q54.65 58.7 55.4 61.3 56.15 64.4 56.15 67.15 L55.65 69.45 Q55.4 70.6 56.3 71.8 L56.65 71.65 57.4 72.55 57.45 72.55 57.6 82.0 M34.15 52.05 L34.75 50.2 35.0 49.15 Q35.65 50.0 36.9 50.1 L34.15 52.05 M47.85 61.9 Q49.05 62.95 50.3 64.85 L52.25 67.8 52.65 67.4 50.65 64.0 Q49.3 61.9 47.85 61.9 M49.9 58.95 L49.3 56.7 Q48.95 56.95 48.95 57.7 48.95 59.15 50.4 62.2 52.3 66.3 54.9 66.3 L55.25 66.15 55.25 65.9 52.85 63.5 50.85 61.35 Q50.25 60.5 49.9 58.95" fill="#003366" fill-rule="evenodd" stroke="none"/>
      <path d="M-2.9 -90.65 Q-2.35 -91.2 -2.2 -92.85 -0.95 -93.05 -0.65 -93.6 L-0.4 -94.75 -0.15 -94.45 0.2 -94.35 2.25 -96.95 Q4.65 -99.9 6.2 -101.25 L6.2 -101.1 5.0 -97.2 5.05 -96.85 5.7 -96.75 7.35 -98.25 Q9.15 -99.95 9.95 -101.2 L9.85 -100.4 Q9.9 -99.7 10.7 -99.9 L10.75 -98.7 11.4 -98.55 Q11.85 -98.55 12.35 -99.3 L12.4 -99.25 12.95 -98.4 Q13.4 -98.5 13.5 -98.75 L13.6 -99.15 13.7 -99.0 13.9 -97.55 Q14.15 -96.55 15.2 -96.75 L15.35 -94.8 Q15.5 -93.4 15.95 -93.4 16.4 -93.4 16.5 -93.9 L16.6 -94.6 17.3 -94.6 17.15 -93.9 Q17.2 -93.4 18.0 -93.4 L18.65 -93.6 19.0 -94.0 Q18.6 -92.4 19.3 -92.1 19.6 -92.1 20.0 -92.4 L19.85 -91.5 Q19.85 -90.9 20.65 -90.9 21.05 -90.9 21.05 -91.05 L20.95 -90.05 Q21.0 -89.25 21.8 -89.25 22.2 -89.25 22.35 -89.6 L22.6 -90.15 22.6 -89.5 Q22.55 -89.05 23.05 -88.8 23.25 -88.8 23.5 -89.05 23.65 -89.25 23.9 -89.25 L23.95 -87.4 24.65 -87.3 Q25.2 -87.3 25.9 -88.8 L25.85 -88.0 25.9 -87.55 25.8 -86.85 Q25.75 -85.75 26.2 -85.45 27.25 -78.25 28.55 -80.55 L28.45 -79.45 Q28.5 -78.55 29.2 -78.55 29.7 -78.55 29.9 -79.05 L29.9 -79.0 30.1 -76.35 Q30.1 -75.7 30.55 -74.95 L30.95 -73.6 30.9 -70.85 Q30.85 -69.2 31.4 -68.1 32.1 -69.05 32.45 -70.2 L33.1 -72.55 Q34.1 -71.65 34.1 -73.5 L34.15 -73.5 34.3 -71.95 Q34.5 -70.75 35.15 -70.75 35.65 -70.75 35.9 -71.55 L36.05 -68.85 37.25 -69.0 Q37.4 -68.0 37.95 -66.55 38.25 -65.7 38.9 -64.2 L39.25 -64.2 Q39.25 -63.15 39.55 -62.95 L39.8 -62.75 39.9 -60.45 40.0 -57.45 39.55 -54.7 39.4 -51.35 39.25 -51.0 38.85 -52.2 Q37.6 -55.0 34.7 -54.7 34.2 -54.6 30.8 -51.65 L28.05 -49.1 28.15 -50.05 28.75 -55.45 28.3 -55.9 Q27.0 -53.45 26.75 -48.25 L26.5 -39.6 26.25 -39.95 25.7 -40.05 25.1 -39.6 24.85 -41.85 Q24.75 -43.2 24.4 -43.45 25.45 -49.75 27.4 -55.85 27.85 -57.3 28.7 -58.65 L27.7 -57.7 28.1 -58.65 29.5 -61.85 28.05 -61.25 29.6 -66.25 25.75 -65.2 25.9 -66.5 Q26.35 -70.35 28.35 -73.35 L27.35 -73.35 Q26.35 -73.1 25.5 -72.65 L21.5 -70.1 20.9 -69.75 Q22.1 -70.8 21.85 -74.8 21.55 -78.8 23.55 -81.7 L18.4 -79.5 18.2 -79.6 Q17.7 -80.25 18.4 -81.1 L19.45 -82.65 20.55 -84.3 21.55 -86.05 20.9 -85.85 Q17.55 -86.05 15.0 -84.3 L13.5 -83.25 12.75 -82.65 12.55 -82.85 Q12.25 -84.8 12.95 -86.6 13.45 -87.75 13.6 -88.95 L13.7 -90.25 12.05 -89.8 Q9.1 -88.6 6.9 -86.2 L6.2 -85.7 6.85 -94.85 3.65 -92.75 Q1.1 -90.7 -0.95 -88.0 L-0.95 -92.25 -2.9 -88.3 -2.9 -90.65 M35.85 -39.25 L36.7 -40.5 Q37.05 -38.65 38.3 -35.25 37.45 -35.25 37.45 -34.7 L37.6 -34.3 37.75 -33.95 37.45 -32.95 38.05 -29.7 Q37.05 -29.65 36.85 -29.2 L36.8 -28.6 36.15 -28.5 36.2 -28.65 Q37.3 -30.8 37.3 -32.4 L37.3 -33.55 36.8 -35.1 Q36.4 -36.5 34.9 -36.0 L35.15 -37.35 Q35.15 -38.15 35.85 -39.25" fill="#663300" fill-rule="evenodd" stroke="none"/>
      <path d="M-2.9 -90.65 L-2.9 -88.3 -0.95 -92.25 -0.95 -88.0 Q1.1 -90.7 3.65 -92.75 L6.85 -94.85 6.2 -85.7 6.9 -86.2 Q9.1 -88.6 12.05 -89.8 L13.7 -90.25 13.6 -88.95 Q13.45 -87.75 12.95 -86.6 12.25 -84.8 12.55 -82.85 L12.75 -82.65 13.5 -83.25 15.0 -84.3 Q17.55 -86.05 20.9 -85.85 L21.55 -86.05 20.55 -84.3 19.45 -82.65 18.4 -81.1 Q17.7 -80.25 18.2 -79.6 L18.4 -79.5 23.55 -81.7 Q21.55 -78.8 21.85 -74.8 22.1 -70.8 20.9 -69.75 L21.5 -70.1 25.5 -72.65 Q26.35 -73.1 27.35 -73.35 L28.35 -73.35 Q26.35 -70.35 25.9 -66.5 L25.75 -65.2 29.6 -66.25 28.05 -61.25 29.5 -61.85 28.1 -58.65 27.7 -57.7 28.7 -58.65 Q27.85 -57.3 27.4 -55.85 25.45 -49.75 24.4 -43.45 L23.45 -43.05 24.05 -46.75 24.45 -48.0 Q25.9 -51.05 25.65 -54.6 L25.7 -56.4 Q25.9 -58.15 25.0 -59.55 L24.15 -59.25 23.15 -62.1 21.95 -64.9 Q21.25 -66.65 19.9 -67.85 19.35 -68.4 18.8 -68.4 L18.0 -69.5 17.15 -69.1 17.0 -68.65 Q16.95 -69.7 15.85 -70.4 L15.35 -70.65 14.6 -70.05 13.25 -72.85 12.9 -72.65 12.5 -71.4 11.9 -72.85 10.85 -73.05 10.45 -74.85 9.6 -75.1 8.95 -76.15 8.05 -75.9 7.4 -77.25 6.8 -77.7 6.1 -77.05 6.15 -77.65 4.25 -76.95 4.1 -77.0 4.0 -77.15 4.0 -77.4 3.5 -77.85 1.35 -76.0 1.1 -76.1 0.8 -76.0 0.6 -75.6 0.45 -75.2 -1.45 -77.4 -2.2 -76.85 -2.5 -77.75 -5.65 -75.9 -6.2 -76.3 -7.6 -75.0 -8.15 -75.9 -12.25 -69.25 -10.2 -75.25 -9.5 -77.3 Q-9.05 -78.75 -9.05 -80.25 L-8.45 -79.95 Q-7.15 -81.65 -6.5 -83.95 L-5.85 -86.3 -5.65 -87.05 -5.3 -86.55 -5.0 -86.4 -4.7 -86.4 -4.55 -86.5 -4.65 -87.4 -3.75 -90.1 Q-3.3 -90.4 -2.9 -90.65 M0.05 -60.1 Q0.05 -58.65 0.95 -58.65 1.3 -58.65 1.4 -58.85 L10.1 -60.4 14.0 -60.4 16.65 -56.15 Q18.25 -53.6 18.35 -52.0 17.65 -52.8 16.9 -52.8 L16.35 -52.6 16.15 -52.3 Q15.35 -52.85 14.25 -53.1 L12.95 -53.4 10.65 -53.55 9.2 -53.4 8.7 -53.15 Q6.55 -53.4 3.75 -52.55 L2.1 -52.0 0.25 -51.6 -0.05 -51.6 -1.05 -51.3 Q-2.95 -51.65 -3.0 -52.75 L-2.85 -53.4 -2.75 -54.3 Q-2.65 -54.85 -2.8 -55.25 L-2.65 -55.3 -2.65 -58.2 -2.25 -57.8 Q-2.1 -57.6 -1.75 -57.6 L-0.95 -58.6 0.05 -60.15 0.05 -60.1 M-11.45 -59.35 L-11.45 -60.0 Q-10.4 -59.35 -7.45 -56.05 -7.25 -56.05 -7.15 -56.15 L-7.0 -56.35 -6.3 -53.4 -5.75 -50.8 Q-5.75 -50.55 -6.15 -50.2 -6.55 -49.75 -7.0 -49.75 L-7.45 -49.85 -8.15 -50.3 -8.5 -50.5 -9.5 -51.0 -10.9 -51.55 Q-15.75 -53.1 -19.65 -50.45 L-19.6 -50.95 -20.15 -51.55 -19.9 -53.4 -19.75 -54.15 -19.4 -56.1 -19.3 -56.3 -18.85 -57.15 -18.8 -57.45 -16.3 -57.6 -13.9 -57.6 Q-12.9 -57.55 -12.95 -58.1 L-13.25 -59.35 -12.0 -58.95 Q-11.5 -58.95 -11.45 -59.35" fill="#713800" fill-rule="evenodd" stroke="none"/>
      <path d="M4.75 40.4 L4.65 40.35 8.35 39.85 10.35 40.05 10.9 40.15 13.25 41.85 13.55 42.4 13.85 42.95 Q14.15 43.9 14.7 44.35 L14.75 44.25 14.75 44.2 15.15 43.85 14.65 42.4 14.45 41.95 15.2 40.85 Q18.6 36.75 22.65 33.45 26.15 30.25 27.95 27.9 L26.85 28.85 27.35 27.95 28.35 27.3 Q29.6 26.55 30.05 26.55 31.25 26.55 33.65 28.85 L34.7 29.95 34.5 34.9 27.6 40.6 Q21.8 45.5 18.6 49.05 18.45 47.65 17.9 46.8 17.55 47.0 17.6 47.9 L17.7 49.05 Q17.75 49.75 17.05 50.55 L17.0 50.55 17.3 48.65 Q17.3 47.95 16.95 47.8 L12.8 46.9 11.0 45.8 9.2 44.4 7.15 41.5 Q6.35 40.7 4.75 40.4 M1.25 -59.9 L1.0 -61.05 Q0.7 -62.3 0.25 -62.7 L-0.85 -61.3 -1.9 -59.2 -2.25 -59.7 Q-2.55 -60.1 -2.95 -60.1 -3.5 -60.1 -3.55 -58.75 L-3.55 -57.15 -3.55 -56.0 -3.45 -55.65 -3.7 -55.65 -3.8 -53.6 -3.8 -53.4 -3.75 -51.75 -3.3 -50.95 -3.15 -50.8 Q-2.75 -50.4 -2.05 -50.2 L-2.5 -49.25 -2.6 -49.0 -2.65 -48.95 Q-2.85 -48.4 -3.2 -48.4 L-3.5 -48.4 -3.5 -47.8 -2.95 -47.7 -3.1 -46.5 Q-3.1 -44.3 -2.1 -42.3 L-1.85 -41.8 -1.85 -41.5 Q-1.85 -40.05 -1.3 -38.95 -1.0 -38.35 -0.5 -37.9 -0.45 -36.7 0.0 -36.0 1.3 -34.2 5.25 -34.2 L7.95 -34.35 Q8.35 -34.45 8.45 -34.7 L3.8 -35.5 Q0.75 -36.4 0.65 -37.15 L2.65 -36.85 4.6 -36.95 6.35 -37.05 6.45 -37.1 6.05 -37.15 Q1.05 -38.0 0.4 -38.35 L0.0 -38.9 -0.15 -38.95 -0.4 -39.5 -0.7 -40.35 Q1.1 -38.65 4.05 -38.65 8.45 -38.65 10.8 -41.5 12.35 -43.4 12.35 -45.0 12.35 -46.75 10.55 -49.8 L8.5 -51.0 6.85 -51.65 8.4 -51.95 Q10.35 -51.6 11.8 -50.3 L13.6 -48.6 14.05 -48.75 14.15 -49.05 Q13.7 -50.1 10.8 -52.4 L14.25 -51.8 15.75 -51.05 Q16.85 -50.25 17.35 -49.35 L17.8 -49.6 17.75 -51.1 18.6 -50.05 Q18.95 -49.35 19.3 -49.35 19.7 -49.35 19.75 -49.6 L19.85 -49.95 Q19.85 -51.75 18.1 -55.35 16.65 -58.3 15.25 -60.25 16.1 -60.4 16.1 -60.9 L8.4 -61.15 Q2.75 -60.7 1.25 -59.9 M4.55 -75.75 L5.0 -76.35 Q5.0 -75.6 5.85 -75.6 L6.65 -76.2 6.95 -75.1 Q7.3 -74.25 7.85 -74.25 8.05 -74.25 8.15 -74.4 L8.4 -74.55 8.6 -74.5 Q8.8 -73.8 9.4 -73.0 L10.1 -72.1 Q10.3 -71.6 10.7 -71.5 L11.35 -71.25 11.75 -70.45 Q12.0 -69.9 12.6 -69.9 13.05 -69.9 13.4 -70.5 L13.75 -69.4 Q14.15 -68.55 14.7 -68.55 15.15 -68.55 15.3 -68.9 L15.55 -69.4 16.1 -67.6 Q16.5 -66.45 17.3 -66.45 17.75 -66.45 17.85 -66.7 L17.9 -67.35 18.15 -66.5 Q18.5 -65.85 19.1 -65.85 19.45 -65.85 19.55 -66.0 L19.55 -66.45 Q21.1 -62.15 22.0 -61.55 L23.15 -58.65 24.1 -56.05 24.55 -53.25 24.4 -52.3 Q23.5 -52.7 22.85 -47.5 22.3 -43.25 22.3 -40.2 L22.35 -39.9 Q22.45 -39.65 22.85 -39.6 L23.45 -40.3 23.75 -40.9 23.75 -40.8 23.8 -40.2 24.25 -37.9 Q24.8 -35.85 25.45 -35.85 26.45 -35.85 26.0 -37.95 L26.15 -37.9 26.75 -36.6 Q27.3 -35.7 27.55 -35.7 27.95 -35.7 27.95 -35.85 L27.95 -36.25 27.75 -38.2 Q29.0 -37.95 29.0 -37.25 L28.35 -36.2 Q27.65 -35.55 27.65 -34.8 L27.8 -33.65 Q28.1 -32.55 29.0 -32.55 29.4 -32.55 29.45 -32.8 L29.45 -33.1 Q28.6 -34.2 28.6 -34.8 28.6 -35.15 29.35 -36.0 L30.1 -37.1 Q30.1 -37.9 29.15 -38.6 L27.65 -39.25 27.55 -40.1 28.1 -39.75 Q29.45 -38.95 30.8 -38.95 31.25 -38.95 32.1 -39.45 L32.9 -40.25 Q32.9 -40.75 32.3 -40.75 31.45 -39.9 30.55 -39.9 29.75 -39.9 28.8 -40.65 L27.85 -41.55 Q28.9 -42.2 30.25 -45.45 32.0 -49.5 34.4 -49.5 35.6 -49.5 35.9 -48.3 L35.95 -47.1 Q35.95 -46.2 35.0 -45.15 L34.0 -44.15 34.55 -43.65 Q36.3 -44.15 36.8 -45.3 L36.95 -47.1 Q36.95 -49.5 35.15 -50.3 33.05 -51.2 30.5 -48.0 L29.8 -46.55 29.2 -45.0 Q28.65 -43.85 27.55 -42.6 L27.9 -47.55 31.0 -50.95 Q33.65 -53.7 36.65 -53.7 38.05 -53.7 38.6 -48.4 38.6 -45.85 35.9 -41.2 L34.85 -39.4 Q34.25 -38.25 34.25 -37.65 34.25 -36.2 33.1 -35.75 31.9 -35.3 31.9 -34.5 31.9 -34.15 32.0 -34.15 L32.45 -34.05 Q33.15 -34.05 33.7 -34.4 L33.95 -34.35 Q34.0 -34.35 35.45 -35.1 L36.0 -33.9 36.35 -32.4 35.6 -29.35 Q34.25 -26.35 31.3 -26.35 L30.0 -26.55 29.75 -26.95 30.6 -28.15 30.95 -29.55 30.55 -30.35 Q29.95 -30.9 28.5 -30.9 L27.55 -30.8 27.35 -30.4 Q27.35 -30.05 27.5 -30.0 29.95 -30.0 29.95 -29.55 29.95 -29.0 29.35 -28.0 L28.7 -26.95 Q28.7 -26.65 29.25 -26.1 30.0 -25.3 31.25 -25.3 33.95 -25.3 35.6 -27.6 L36.6 -27.55 38.0 -27.75 38.05 -28.2 38.0 -28.6 38.1 -28.55 39.85 -25.05 Q41.55 -21.85 42.4 -21.35 42.35 -14.75 41.7 -12.5 40.55 -8.55 35.2 -1.7 34.5 -5.2 34.1 -5.6 L33.85 -6.2 33.8 -5.95 33.55 -6.75 32.15 -10.2 Q31.85 -10.85 30.55 -11.9 29.2 -13.05 28.75 -13.75 L24.95 -16.35 Q27.05 -17.95 27.05 -20.7 L26.8 -21.6 Q26.45 -21.25 25.5 -19.1 L25.05 -18.3 25.1 -18.25 Q25.1 -17.85 24.05 -17.0 22.95 -16.1 21.85 -16.05 20.05 -15.1 18.05 -13.6 L14.75 -10.65 Q12.6 -8.2 8.6 -5.1 3.4 -0.9 2.6 -0.65 L-6.1 -0.3 Q-7.45 -0.3 -8.05 -0.7 L-8.55 -1.0 -8.85 -1.2 -9.85 -1.85 -9.25 -6.5 Q-9.25 -11.85 -10.45 -14.1 L-4.6 -13.95 Q-4.15 -13.95 -4.15 -14.45 -4.15 -15.0 -5.5 -15.05 L-11.5 -15.35 -12.35 -15.7 -12.4 -15.4 -12.5 -15.4 -12.55 -15.95 -12.05 -17.2 -10.65 -16.95 -3.25 -16.85 -3.05 -16.95 -1.4 -16.95 Q2.05 -16.95 4.85 -17.85 7.45 -18.75 7.45 -19.7 L7.4 -20.0 7.25 -20.1 Q4.7 -18.75 3.7 -18.45 L1.8 -18.25 -1.65 -18.1 -4.0 -18.15 -4.15 -17.95 -11.5 -18.55 -11.5 -18.6 -11.55 -18.55 Q-12.35 -18.75 -12.35 -18.95 L-11.65 -23.25 -11.65 -25.55 Q-10.05 -23.8 -7.6 -24.35 L-5.75 -24.65 -5.05 -24.85 -5.65 -24.85 Q-8.05 -24.65 -9.9 -25.55 -11.8 -26.45 -12.05 -27.55 L-12.25 -29.0 -11.55 -31.65 -11.5 -31.9 Q-10.85 -34.1 -8.5 -35.0 -6.1 -36.0 -3.55 -33.4 -3.6 -35.3 -5.45 -36.5 L-5.45 -37.9 -5.65 -37.85 -5.95 -37.55 -6.6 -36.6 Q-9.15 -36.45 -10.75 -34.75 L-14.2 -35.5 Q-17.25 -36.4 -17.35 -37.15 L-15.35 -36.85 -13.4 -36.95 -11.65 -37.05 -11.55 -37.1 -11.95 -37.15 -17.6 -38.35 -18.0 -38.9 -18.15 -38.95 -18.4 -39.5 -18.7 -40.35 Q-16.9 -38.65 -13.95 -38.65 -9.55 -38.65 -7.2 -41.5 -5.65 -43.4 -5.65 -45.0 -5.65 -46.1 -6.35 -47.65 L-5.35 -47.4 -5.25 -47.55 -4.75 -48.55 -4.8 -48.75 Q-5.1 -48.45 -5.3 -48.45 -5.95 -48.45 -6.4 -48.85 L-5.55 -49.2 Q-4.4 -49.7 -4.4 -50.25 L-5.1 -53.4 Q-6.6 -59.95 -7.25 -59.95 -7.8 -59.95 -7.9 -59.1 L-7.9 -58.05 -10.8 -61.1 Q-13.05 -63.0 -12.4 -60.25 L-13.7 -60.6 -14.2 -60.45 -14.35 -59.75 -14.05 -58.75 -17.85 -58.6 -17.65 -59.05 -16.4 -60.8 -15.65 -62.25 Q-8.8 -72.4 -8.8 -72.8 L-8.85 -73.05 -8.65 -73.5 Q-8.55 -73.2 -8.05 -73.2 -7.25 -73.2 -5.4 -74.55 L-3.25 -76.35 -3.05 -75.95 Q-2.75 -75.6 -2.3 -75.6 L-1.45 -76.05 -1.3 -75.85 -1.3 -74.35 -0.4 -74.25 -0.5 -73.35 Q-0.45 -72.85 0.35 -72.85 L3.05 -76.15 3.0 -75.7 Q3.05 -75.45 3.7 -75.45 4.25 -75.45 4.55 -75.75 M22.1 -30.45 Q18.45 -27.5 15.8 -23.8 L15.6 -23.95 14.2 -17.2 21.2 -22.95 22.4 -30.7 22.1 -30.45 M34.1 -16.6 L32.3 -19.55 Q31.05 -21.5 29.6 -21.75 L31.5 -18.45 Q32.95 -16.05 33.55 -16.05 L33.9 -16.2 34.0 -16.35 34.1 -16.6 M0.05 -41.25 Q2.1 -42.3 9.3 -41.35 7.3 -39.6 4.1 -39.6 1.4 -39.6 -0.2 -41.25 L0.05 -41.25 M25.65 56.2 Q25.75 56.7 26.2 56.4 L26.3 56.5 28.0 56.5 29.55 56.25 Q30.55 56.0 30.55 55.6 L30.55 55.5 Q38.3 50.45 41.05 48.3 L41.2 48.4 Q46.25 43.8 46.7 42.55 L47.95 40.65 48.55 39.65 Q51.1 41.5 53.7 44.4 L55.45 46.4 55.75 49.35 53.3 50.6 52.55 51.05 52.25 50.85 Q49.1 52.3 46.85 53.9 45.2 54.8 43.35 56.05 L42.65 56.55 42.3 56.35 38.65 58.85 Q35.2 61.45 35.2 62.25 L35.25 62.5 34.2 63.55 34.15 63.55 33.9 63.5 32.5 65.2 32.25 65.2 29.25 69.4 26.9 72.35 26.8 72.2 26.55 72.15 24.75 73.35 23.65 73.9 24.85 72.9 24.45 72.55 23.05 73.55 Q21.65 74.35 19.7 74.35 L18.7 74.1 18.1 73.95 19.9 72.35 19.55 72.0 Q16.5 74.05 16.05 74.05 L13.6 73.5 12.85 73.25 Q15.4 72.35 15.85 71.8 L15.5 71.45 Q10.5 73.45 8.65 73.45 7.1 73.45 6.35 72.95 L5.2 72.0 5.65 71.75 9.9 69.9 Q14.05 68.15 15.95 66.5 L18.45 64.55 19.75 63.45 21.9 61.5 21.95 61.5 22.3 61.25 22.3 61.0 22.65 60.4 22.85 59.8 23.7 58.95 23.7 58.9 23.55 58.7 23.8 58.4 23.95 58.7 25.65 56.2 M10.5 53.25 L11.25 53.45 13.15 53.65 Q13.4 54.65 12.7 55.25 L12.5 55.55 11.65 55.8 10.65 53.45 10.5 53.25 M14.5 70.7 Q14.7 71.2 15.05 71.3 L15.45 71.0 15.2 70.25 Q15.0 69.9 14.4 69.95 14.25 70.2 14.5 70.7 M-15.05 -34.4 L-12.75 -34.2 -11.25 -34.2 -11.8 -33.45 -12.55 -31.9 -12.95 -29.85 -13.75 -31.9 -15.05 -34.4 M-13.9 -39.6 Q-16.8 -39.6 -18.45 -41.5 L-8.7 -41.4 Q-10.7 -39.6 -13.9 -39.6" fill="#ffcc99" fill-rule="evenodd" stroke="none"/>
      <path d="M17.0 64.65 L14.9 66.35 9.25 69.2 Q6.4 70.55 5.25 71.25 L4.5 70.9 4.6 70.7 4.5 70.4 Q3.95 70.3 3.45 69.9 L3.5 69.8 Q2.95 68.65 2.95 67.8 L3.25 66.75 3.5 65.75 3.4 65.45 3.15 65.4 2.25 66.55 2.2 67.8 2.25 69.0 2.35 69.2 2.2 69.3 2.3 69.6 1.55 69.0 -1.6 64.4 -1.65 64.1 -1.85 61.8 -1.85 59.45 -1.75 58.35 -1.5 58.25 -1.5 58.05 -1.5 58.0 Q0.7 56.75 1.3 55.95 L0.95 55.6 Q0.55 55.95 -1.05 56.6 -1.5 56.6 -1.8 57.0 L-1.85 57.05 -3.7 54.15 -4.1 54.15 -4.8 53.75 Q-5.75 53.3 -5.9 53.0 L-6.0 52.65 -5.7 52.45 Q-5.8 50.15 -5.05 49.15 -3.6 47.1 -2.0 46.4 L-0.75 45.85 -0.8 45.5 -0.9 45.55 -1.5 45.75 Q-4.05 46.5 -5.35 48.3 -6.4 49.75 -6.45 51.6 L-6.7 51.1 -7.65 46.75 Q-6.85 44.3 -6.35 43.75 -5.4 42.7 -3.75 42.05 L-3.55 43.8 -3.35 44.1 -2.7 44.75 -1.7 45.3 -1.6 45.3 -1.3 45.4 -0.8 45.5 -0.65 45.55 0.15 45.65 0.5 45.75 1.95 46.05 5.05 46.1 6.2 46.15 6.4 46.55 Q6.3 47.3 6.6 47.55 L6.65 47.6 5.7 47.6 5.7 48.0 Q6.9 48.6 8.65 50.35 L9.75 53.45 11.0 56.35 9.0 55.55 8.95 55.55 8.85 55.5 8.3 55.3 5.0 55.0 3.8 55.65 5.55 55.65 Q4.8 55.8 4.45 56.15 L4.25 56.25 3.75 56.5 3.0 57.05 Q2.3 57.6 1.85 58.35 L1.55 58.75 1.45 59.1 1.55 61.4 1.6 61.55 2.2 62.5 2.45 62.75 Q3.0 63.15 3.75 63.25 L3.9 63.3 5.55 63.45 7.5 63.65 8.0 63.7 12.7 63.75 12.9 63.85 13.9 64.4 14.2 64.55 14.35 64.6 17.0 64.65 M4.95 48.25 L4.45 48.45 4.9 49.7 Q5.35 50.5 5.6 50.5 L6.0 50.35 6.05 50.1 5.8 49.1 Q5.5 48.25 4.95 48.25 M6.25 52.65 Q6.95 54.7 7.4 54.7 7.9 54.7 7.7 54.55 L7.75 53.9 Q7.75 53.0 7.0 52.3 6.25 51.65 6.25 52.65" fill="#cccccc" fill-rule="evenodd" stroke="none"/>
      <path d="M0.1 44.05 Q-1.25 44.05 -1.5 43.25 L-1.5 42.6 Q-1.5 41.7 -0.2 41.35 1.1 41.0 1.1 43.0 L0.8 43.7 Q0.45 44.05 0.1 44.05" fill="#1c70bc" fill-rule="evenodd" stroke="none"/>
      <path d="M3.8 43.0 L3.85 43.75 3.5 44.8 2.7 45.3 Q2.2 45.3 1.9 44.8 L1.65 44.2 1.95 43.3 Q2.5 42.5 3.8 43.0" fill="#ff0000" fill-rule="evenodd" stroke="none"/>
      <path d="M4.8 42.0 L5.1 42.0 Q5.85 42.15 5.85 42.65 L5.55 43.25 5.0 43.5 Q4.45 43.5 4.35 43.1 L4.35 42.65 Q4.35 42.0 4.8 42.0" fill="#ffff00" fill-rule="evenodd" stroke="none"/>
      <path d="M2.4 41.3 Q2.4 40.75 3.1 40.75 3.75 40.75 3.75 41.4 3.75 41.85 3.15 41.85 2.6 41.85 2.45 41.5 L2.4 41.3" fill="#66ff00" fill-rule="evenodd" stroke="none"/>
      <path d="M23.55 58.7 L23.7 58.9 23.7 58.95 22.85 59.8 Q22.05 60.4 21.55 60.35 L21.55 60.55 19.25 62.65 17.0 64.65 14.35 64.6 14.2 64.55 13.9 64.4 12.9 63.85 12.7 63.75 8.0 63.7 7.5 63.65 5.55 63.45 3.9 63.3 3.75 63.25 Q3.0 63.15 2.45 62.75 L2.2 62.5 1.6 61.55 1.55 61.4 1.45 59.1 1.55 58.75 1.85 58.35 Q2.3 57.6 3.0 57.05 L3.75 56.5 4.25 56.25 4.45 56.15 Q4.8 55.8 5.55 55.65 L5.75 55.65 7.7 55.65 9.0 56.45 Q10.1 56.9 11.3 57.15 L12.75 57.55 Q13.4 57.8 21.9 57.65 L22.4 57.8 22.55 57.85 Q23.15 58.25 23.55 58.7 M-3.75 42.05 L-3.15 41.8 Q-1.3 41.15 1.35 41.0 L1.65 41.55 Q2.15 42.35 2.95 42.35 L3.95 41.9 4.25 41.25 5.5 41.95 5.1 41.95 4.8 42.0 4.25 42.15 4.05 42.85 4.2 43.45 Q4.5 44.05 5.15 44.05 5.6 44.05 5.85 43.6 L6.05 42.75 6.05 42.4 8.35 44.45 Q12.0 48.05 16.55 48.3 L16.55 49.25 15.9 51.2 Q15.25 52.4 13.65 52.7 L13.3 52.75 12.7 52.75 Q10.35 52.75 9.7 51.5 L9.55 50.75 9.5 50.65 9.55 50.25 Q9.55 49.35 8.3 48.4 7.45 47.75 6.65 47.6 L6.6 47.55 Q6.3 47.3 6.4 46.55 L6.2 46.15 5.05 46.1 1.95 46.05 0.5 45.75 0.15 45.65 -0.65 45.55 -0.8 45.5 -1.3 45.4 -1.6 45.3 -1.7 45.3 -2.7 44.75 -3.35 44.1 -3.55 43.8 -3.75 42.05 M3.8 43.0 Q2.5 42.5 1.95 43.3 L1.65 44.2 1.9 44.8 Q2.2 45.3 2.7 45.3 L3.5 44.8 3.85 43.75 3.8 43.0 M0.1 44.05 Q0.45 44.05 0.8 43.7 L1.1 43.0 Q1.1 41.0 -0.2 41.35 -1.5 41.7 -1.5 42.6 L-1.5 43.25 Q-1.25 44.05 0.1 44.05 M10.7 58.15 L10.65 57.85 9.0 57.9 8.2 58.0 Q7.0 56.1 6.05 56.4 L6.95 58.3 4.75 59.05 5.15 59.55 5.75 59.7 7.5 59.35 8.85 61.3 Q9.4 61.25 9.4 60.65 9.4 60.15 8.8 59.0 L9.85 58.65 10.5 58.3 10.7 58.15" fill="#d6d6d6" fill-rule="evenodd" stroke="none"/>
      <path d="M22.1 -30.45 L22.4 -30.7 21.2 -22.95 14.2 -17.2 15.6 -23.95 15.8 -23.8 Q18.45 -27.5 22.1 -30.45" fill="#ffc68c" fill-rule="evenodd" stroke="none"/>
      <path d="M-16.0 -44.95 L-15.95 -45.55 Q-15.95 -46.6 -16.8 -46.6 -17.65 -46.6 -17.65 -45.6 L-17.65 -45.1 Q-17.45 -44.65 -16.75 -44.65 -16.15 -44.65 -16.0 -44.95 M-18.65 -50.05 L-16.35 -50.8 -13.3 -51.35 -10.9 -50.75 Q-9.75 -50.3 -8.8 -49.5 L-8.6 -49.25 -8.25 -49.0 Q-6.65 -47.4 -6.65 -45.05 -6.85 -43.65 -7.9 -42.3 L-8.0 -42.15 -18.9 -42.1 -19.3 -42.8 Q-20.2 -44.65 -20.2 -46.5 -20.2 -47.55 -19.85 -48.4 L-18.65 -50.05" fill="url(#gradient1)" fill-rule="evenodd" stroke="none"/>
      <path d="M1.55 -50.8 L1.85 -50.9 4.7 -51.35 Q7.4 -51.05 9.25 -49.45 11.35 -47.7 11.35 -45.05 11.15 -43.65 10.1 -42.3 L1.5 -42.3 -0.95 -42.15 -1.3 -42.8 Q-2.2 -44.65 -2.2 -46.5 L-1.9 -48.2 -1.7 -48.7 -1.7 -48.75 Q-1.35 -49.5 -0.65 -50.05 1.55 -50.05 1.55 -50.8 M0.35 -45.1 Q0.55 -44.65 1.25 -44.65 1.85 -44.65 2.0 -44.95 L2.05 -45.55 Q2.05 -46.6 1.2 -46.6 0.35 -46.6 0.35 -45.6 L0.35 -45.1" fill="url(#gradient2)" fill-rule="evenodd" stroke="none"/>
      <path d="M57.6 82.0 L40.05 82.0 39.35 82.0 29.95 82.0 29.1 82.0" fill="none" stroke="#000000" stroke-linecap="round" stroke-linejoin="round" stroke-width="1.0"/>
    </g>
    <linearGradient gradientTransform="matrix(0.0074, 0.0, 0.0, 0.0467, 42.85, 15.45)" gradientUnits="userSpaceOnUse" id="gradient0" spreadMethod="pad" x1="-819.2" x2="819.2">
      <stop offset="0.0" stop-color="#0f639f"/>
      <stop offset="1.0" stop-color="#3286eb"/>
    </linearGradient>
    <radialGradient cx="0" cy="0" gradientTransform="matrix(0.0146, 0.0, 0.0, 0.0146, -18.6, -44.8)" gradientUnits="userSpaceOnUse" id="gradient1" r="819.2" spreadMethod="pad">
      <stop offset="0.7294117647058823" stop-color="#ffffff"/>
      <stop offset="0.8627450980392157" stop-color="#ffecec"/>
      <stop offset="1.0" stop-color="#fe9292"/>
    </radialGradient>
    <radialGradient cx="0" cy="0" gradientTransform="matrix(0.0151, 0.0, 0.0, 0.0151, -1.0, -45.0)" gradientUnits="userSpaceOnUse" id="gradient2" r="819.2" spreadMethod="pad">
      <stop offset="0.7294117647058823" stop-color="#ffffff"/>
      <stop offset="0.8627450980392157" stop-color="#ffecec"/>
      <stop offset="1.0" stop-color="#fe9292"/>
    </radialGradient>
    <g id="shape1" transform="matrix(1.0, 0.0, 0.0, 1.0, -10.95, -52.3)">
      <path d="M22.6 60.4 L22.65 60.65 22.55 60.95 22.1 61.1 21.0 60.8 15.5 60.45 13.65 60.05 Q12.5 59.65 11.7 58.85 10.95 58.05 10.95 55.95 10.95 54.0 11.25 53.2 11.8 51.75 13.5 52.7 15.85 53.85 21.65 54.75 L26.0 55.6 26.1 55.65 26.55 55.9 26.45 56.25 26.3 56.4 26.3 56.5 25.95 56.5 18.9 55.5 Q14.45 54.5 12.5 53.3 11.85 54.1 11.85 55.95 L11.9 57.3 Q12.1 58.15 13.05 58.8 L14.45 59.1 Q15.05 59.15 14.9 59.3 L21.3 59.55 Q21.75 59.55 22.15 59.95 L22.1 60.05 22.2 60.35 22.6 60.4" fill="#000000" fill-rule="evenodd" stroke="none"/>
      <path d="M25.95 56.5 Q23.9 60.45 22.8 60.45 L22.6 60.4 22.2 60.35 22.1 60.05 22.15 59.95 Q21.75 59.55 21.3 59.55 L14.9 59.3 Q15.05 59.15 14.45 59.1 L13.05 58.8 Q12.1 58.15 11.9 57.3 L11.85 55.95 Q11.85 54.1 12.5 53.3 14.45 54.5 18.9 55.5 L25.95 56.5" fill="#ffcc99" fill-rule="evenodd" stroke="none"/>
    </g>
    <g id="shape2" transform="matrix(1.0, 0.0, 0.0, 1.0, 1.15, -32.65)">
      <path d="M9.85 40.0 L7.75 38.95 4.65 37.2 2.4 35.2 Q1.5 34.15 0.4 33.75 L-0.1 34.95 -0.2 35.95 Q-0.35 37.9 2.7 39.1 5.0 40.0 5.55 40.6 L7.0 41.35 6.9 41.35 7.15 41.75 5.65 41.4 5.5 41.5 5.15 41.5 0.05 39.15 Q-0.95 38.65 -1.1 37.65 L-1.1 35.95 Q-0.95 33.8 -0.5 33.15 0.5 31.65 3.05 34.75 L8.3 38.1 12.15 40.5 Q10.8 39.7 10.7 39.95 L10.2 40.15 9.85 40.0" fill="#000000" fill-rule="evenodd" stroke="none"/>
      <path d="M7.0 41.35 L5.55 40.6 Q5.0 40.0 2.7 39.1 -0.35 37.9 -0.2 35.95 L-0.1 34.95 0.4 33.75 Q1.5 34.15 2.4 35.2 L4.65 37.2 7.75 38.95 9.85 40.0 9.85 40.2 Q9.85 40.35 7.0 41.35 M5.65 41.4 L7.15 41.75 7.2 41.8 5.65 41.4" fill="#ffcc99" fill-rule="evenodd" stroke="none"/>
    </g>
  </defs>
</svg>
