<?xml version="1.0" encoding="UTF-8" standalone="no"?>
<svg xmlns:xlink="http://www.w3.org/1999/xlink" height="2538.15px" width="2893.45px" xmlns="http://www.w3.org/2000/svg">
  <g transform="matrix(1.0, 0.0, 0.0, 1.0, 1435.45, 1332.8)">
    <use height="2493.0" id="boxx" transform="matrix(1.0, 0.0, 0.0, 1.0, -1435.45, -1296.6)" width="2893.45" xlink:href="#sprite0"/>
  </g>
  <defs>
    <g id="sprite0" transform="matrix(1.0, 0.0, 0.0, 1.0, 1435.4, 1335.45)">
      <use height="1824.0" transform="matrix(1.0, 0.0, 0.0, 1.0, -1069.95, -942.6)" width="2156.8" xlink:href="#sprite1"/>
    </g>
    <g id="sprite1" transform="matrix(1.0, 0.0, 0.0, 1.0, 1070.0, 942.65)">
      <use height="1824.0" transform="matrix(1.0, 0.0, 0.0, 1.0, -1070.0, -942.65)" width="2156.8" xlink:href="#shape0"/>
      <use height="87.7" transform="matrix(1.0, 0.0, 0.0, 1.0, -272.85, 63.3)" width="326.25" xlink:href="#sprite2"/>
    </g>
    <g id="shape0" transform="matrix(1.0, 0.0, 0.0, 1.0, 1070.0, 942.65)">
      <path d="M119.55 -2.2 L119.55 0.3 8.85 0.3 9.85 -2.2 119.55 -2.2 M-119.55 0.3 L-119.55 -2.2 -9.05 -2.2 -7.95 0.3 -119.55 0.3 M44.8 46.15 L44.8 35.45 46.4 35.45 46.4 46.15 44.8 46.15 M41.85 41.95 L41.85 46.15 40.25 46.15 40.25 41.95 41.85 41.95 M17.25 5.9 L17.25 10.45 18.15 10.45 18.15 11.65 17.25 11.65 17.25 13.1 15.9 13.1 15.9 11.65 13.0 11.65 13.0 10.45 16.1 5.9 17.25 5.9 M15.9 8.0 L14.25 10.45 15.9 10.45 15.9 8.0 M6.55 11.25 L6.65 11.05 6.85 10.95 7.85 10.95 8.1 11.05 8.25 11.25 8.25 12.95 9.55 12.95 9.55 6.6 7.8 4.85 6.05 6.6 6.05 12.95 6.55 12.95 6.55 11.25 M6.85 11.25 L6.85 13.25 5.75 13.25 5.75 6.45 7.8 4.45 9.85 6.45 9.85 13.25 7.85 13.25 7.85 11.25 6.85 11.25 M7.1 24.2 L6.25 24.2 6.25 19.05 7.8 17.55 9.35 19.05 9.35 24.2 7.85 24.2 7.85 22.7 7.1 22.7 7.1 24.2 M6.85 23.95 L6.85 22.7 6.95 22.55 Q7.05 22.45 7.1 22.45 L7.85 22.45 8.05 22.55 8.15 22.7 8.15 23.95 9.15 23.95 9.15 19.15 7.8 17.85 6.5 19.15 6.5 23.95 6.85 23.95 M15.75 18.35 Q15.3 18.35 15.05 18.75 14.7 19.1 14.65 20.35 15.15 19.75 15.9 19.75 16.8 19.75 17.4 20.4 18.0 21.05 18.0 22.1 18.0 23.2 17.35 23.85 16.7 24.5 15.7 24.5 14.6 24.5 13.9 23.7 13.2 22.85 13.2 20.9 13.2 18.95 13.95 18.1 14.7 17.2 15.85 17.2 16.65 17.2 17.2 17.65 17.75 18.15 17.85 19.0 L16.55 19.15 16.3 18.55 15.75 18.35 M15.05 23.0 Q15.4 23.4 15.75 23.4 L16.4 23.1 16.65 22.1 16.4 21.1 Q16.1 20.75 15.7 20.75 15.3 20.75 15.05 21.05 14.75 21.4 14.75 22.0 14.75 22.65 15.05 23.0 M17.7 30.3 L17.4 31.2 16.7 31.8 17.6 32.5 17.9 33.55 Q17.9 34.55 17.3 35.15 16.65 35.8 15.6 35.8 14.6 35.8 13.95 35.25 13.2 34.65 13.2 33.6 13.2 33.0 13.5 32.55 13.8 32.05 14.4 31.8 13.85 31.55 13.65 31.15 L13.4 30.3 Q13.4 29.5 13.95 29.0 14.5 28.45 15.55 28.45 16.55 28.45 17.1 29.0 17.7 29.5 17.7 30.3 M16.15 29.8 Q15.95 29.55 15.55 29.55 15.15 29.55 14.9 29.8 L14.7 30.4 14.9 31.05 Q15.15 31.3 15.55 31.3 L16.15 31.05 16.4 30.4 16.15 29.8 M14.85 34.35 L15.55 34.65 Q16.0 34.65 16.3 34.35 L16.55 33.5 16.25 32.7 Q16.0 32.35 15.55 32.35 15.05 32.35 14.8 32.7 L14.55 33.45 Q14.55 34.05 14.85 34.35 M9.1 30.3 L9.1 34.25 7.95 34.25 7.95 33.1 7.4 33.1 7.4 34.25 6.7 34.25 6.7 30.3 7.9 29.1 9.1 30.3 M8.95 30.35 L7.9 29.35 6.9 30.35 6.9 34.05 7.2 34.05 7.2 33.1 7.25 33.0 Q7.35 32.9 7.4 32.9 L7.95 32.9 8.1 33.0 8.2 33.1 8.2 34.05 8.95 34.05 8.95 30.35 M9.95 46.15 L8.4 46.15 8.4 41.95 9.95 41.95 9.95 46.15 M35.7 41.95 L37.3 41.95 37.3 46.15 35.7 46.15 35.7 41.95 M26.6 46.15 L26.6 41.95 28.2 41.95 28.2 46.15 26.6 46.15 M22.05 35.45 L23.65 35.45 23.65 46.2 22.05 46.2 22.05 35.45 M17.5 46.15 L17.5 41.95 19.05 41.95 19.05 46.15 17.5 46.15 M12.95 46.15 L12.95 41.95 14.5 41.95 14.5 46.15 12.95 46.15 M3.8 46.15 L3.8 41.95 5.4 41.95 5.4 46.15 3.8 46.15 M32.75 41.95 L32.75 46.15 31.15 46.15 31.15 41.95 32.75 41.95 M17.0 50.35 L17.0 51.95 4.05 51.95 4.05 50.35 17.0 50.35 M4.1 59.5 L9.15 59.5 9.15 61.05 4.1 61.05 4.1 59.5 M4.1 77.7 L9.15 77.7 9.15 79.3 4.1 79.3 4.1 77.7 M4.05 73.15 L17.0 73.15 17.0 74.75 4.05 74.75 4.05 73.15 M4.1 68.6 L9.15 68.6 9.15 70.15 4.1 70.15 4.1 68.6 M4.1 64.05 L9.15 64.05 9.15 65.6 4.1 65.6 4.1 64.05 M9.15 56.5 L4.1 56.5 4.1 54.9 9.15 54.9 9.15 56.5 M9.15 82.25 L9.15 83.85 4.1 83.85 4.1 82.25 9.15 82.25 M4.1 92.95 L4.1 91.35 9.15 91.35 9.15 92.95 4.1 92.95 M4.1 97.5 L4.1 95.9 17.0 95.9 17.0 97.5 4.1 97.5 M9.15 86.8 L9.15 88.4 4.1 88.4 4.1 86.8 9.15 86.8 M-7.55 11.25 L-7.55 13.25 -8.65 13.25 -8.65 6.45 -6.6 4.45 -4.55 6.45 -4.55 13.25 -6.55 13.25 -6.55 11.25 -7.55 11.25 M-6.3 11.05 L-6.15 11.25 -6.15 12.95 -4.85 12.95 -4.85 6.6 -6.6 4.85 -8.35 6.6 -8.35 12.95 -7.85 12.95 -7.85 11.25 -7.75 11.05 -7.55 10.95 -6.55 10.95 -6.3 11.05 M-16.5 7.75 L-16.1 6.7 -15.4 6.1 -14.3 5.85 Q-13.3 5.85 -12.7 6.5 -12.2 7.05 -12.2 7.7 -12.2 8.65 -13.2 9.2 -12.6 9.35 -12.25 9.8 -11.85 10.25 -11.85 10.9 -11.85 11.85 -12.55 12.5 -13.25 13.15 -14.25 13.15 -15.25 13.15 -15.9 12.6 -16.5 12.05 -16.6 11.15 L-15.3 11.0 -14.95 11.75 -14.3 12.05 Q-13.85 12.05 -13.55 11.7 -13.25 11.4 -13.25 10.85 -13.25 10.35 -13.55 10.0 -13.85 9.7 -14.25 9.7 L-14.85 9.8 -14.7 8.7 -13.85 8.45 Q-13.55 8.2 -13.55 7.8 L-13.8 7.2 -14.35 7.0 -14.95 7.25 -15.25 7.95 -16.5 7.75 M-12.05 18.55 L-14.65 18.55 -14.85 19.8 -13.9 19.55 Q-13.0 19.55 -12.4 20.2 -11.75 20.9 -11.75 21.95 -11.75 22.85 -12.25 23.5 -12.95 24.45 -14.2 24.45 -15.2 24.45 -15.8 23.95 -16.45 23.4 -16.55 22.5 L-15.2 22.35 -14.85 23.1 -14.2 23.35 Q-13.75 23.35 -13.45 23.05 -13.15 22.7 -13.15 21.95 -13.15 21.3 -13.45 21.0 -13.75 20.65 -14.2 20.65 -14.8 20.65 -15.3 21.2 L-16.4 21.0 -15.7 17.3 -12.05 17.3 -12.05 18.55 M-7.65 23.95 L-7.65 22.7 -7.55 22.55 -7.4 22.45 -6.65 22.45 -6.45 22.55 -6.35 22.7 -6.35 23.95 -5.35 23.95 -5.35 19.15 -6.7 17.85 -8.0 19.15 -8.0 23.95 -7.65 23.95 M-7.4 22.7 L-7.4 24.2 -8.25 24.2 -8.25 19.05 -6.7 17.55 -5.15 19.05 -5.15 24.2 -6.65 24.2 -6.65 22.7 -7.4 22.7 M-6.7 29.35 L-7.7 30.35 -7.7 34.05 -7.4 34.05 -7.4 33.1 -7.35 33.0 -7.2 32.9 -6.65 32.9 Q-6.55 32.9 -6.5 33.0 L-6.4 33.1 -6.4 34.05 -5.65 34.05 -5.65 30.35 -6.7 29.35 M-28.05 46.15 L-28.05 41.95 -26.45 41.95 -26.45 46.15 -28.05 46.15 M-40.1 41.95 L-40.1 46.15 -41.7 46.15 -41.7 41.95 -40.1 41.95 M-37.15 41.95 L-35.55 41.95 -35.55 46.15 -37.15 46.15 -37.15 41.95 M-32.6 41.95 L-31.0 41.95 -31.0 46.15 -32.6 46.15 -32.6 41.95 M-23.5 35.4 L-21.9 35.4 -21.9 46.2 -23.5 46.2 -23.5 35.4 M-6.7 29.1 L-5.5 30.3 -5.5 34.25 -6.65 34.25 -6.65 33.1 -7.2 33.1 -7.2 34.25 -7.9 34.25 -7.9 30.3 -6.7 29.1 M-11.9 29.55 L-13.05 31.2 -14.0 33.45 -14.3 35.6 -15.6 35.6 Q-15.6 34.1 -15.0 32.55 -14.4 31.05 -13.45 29.8 L-16.6 29.8 -16.6 28.55 -11.9 28.55 -11.9 29.55 M-46.25 46.2 L-46.25 35.4 -44.65 35.4 -44.65 46.2 -46.25 46.2 M-9.85 46.15 L-9.85 41.95 -8.25 41.95 -8.25 46.15 -9.85 46.15 M-3.7 46.15 L-5.3 46.15 -5.3 41.95 -3.7 41.95 -3.7 46.15 M-14.4 46.15 L-14.4 41.95 -12.8 41.95 -12.8 46.15 -14.4 46.15 M-18.95 46.15 L-18.95 41.95 -17.35 41.95 -17.35 46.15 -18.95 46.15" fill="#000000" fill-opacity="0.4" fill-rule="evenodd" stroke="none"/>
      <path d="M2.2 118.6 L-1.7 118.6 -1.7 0.3 0.25 -2.2 2.2 0.3 2.2 118.6" fill="#000000" fill-opacity="0.5921569" fill-rule="evenodd" stroke="none"/>
      <path d="M119.55 -2.2 Q119.1 -50.9 84.5 -85.5 50.3 -119.7 2.2 -120.45 L0.0 -120.5 -1.7 -120.5 Q-50.1 -119.9 -84.55 -85.5 -119.1 -50.9 -119.55 -2.2 L-119.55 0.3 Q-119.1 49.0 -84.55 83.55 -50.1 118.0 -1.7 118.6 L2.2 118.6 Q50.3 117.8 84.5 83.55 119.1 49.0 119.55 0.3 L119.55 -2.2 M1086.8 881.35 L-1070.0 881.35 -1070.0 -942.65 1086.8 -942.65 1086.8 881.35" fill="#000000" fill-opacity="0.52156866" fill-rule="evenodd" stroke="none"/>
    </g>
    <g id="sprite2" transform="matrix(1.0, 0.0, 0.0, 1.0, 271.15, 75.6)">
      <use height="24.2" transform="matrix(1.0, 0.0, 0.0, 1.0, -39.95, -12.1)" width="83.8" xlink:href="#sprite3"/>
    </g>
    <g id="sprite3" transform="matrix(1.0, 0.0, 0.0, 1.0, 28.7, 12.1)">
      <use height="14.8" transform="matrix(1.0, 0.0, 0.0, 1.0, -24.15, -2.7)" width="75.3" xlink:href="#shape1"/>
      <use height="20.9" transform="matrix(1.0, 0.0, 0.0, 1.0, -28.7, -12.1)" width="13.0" xlink:href="#sprite4"/>
    </g>
    <g id="shape1" transform="matrix(1.0, 0.0, 0.0, 1.0, 24.15, 2.7)">
      <path d="M48.05 -0.8 L48.05 -2.7 49.3 -2.7 49.3 -0.8 51.15 -0.8 51.15 0.45 49.3 0.45 49.3 2.3 48.05 2.3 48.05 0.45 46.15 0.45 46.15 -0.8 48.05 -0.8 M50.65 12.1 L-24.1 12.1 -24.1 12.0 -24.15 12.0 -24.15 4.25 -20.4 4.25 -20.4 8.1 47.0 8.1 47.0 4.25 50.75 4.25 50.75 12.0 50.65 12.0 50.65 12.1 M-23.65 1.7 L-23.65 0.3 -20.95 0.3 -20.95 1.7 -23.65 1.7" fill="#ffffff" fill-opacity="0.0" fill-rule="evenodd" stroke="none"/>
    </g>
    <g id="sprite4" transform="matrix(1.0, 0.0, 0.0, 1.0, 6.5, 10.45)">
      <use height="6.5" transform="matrix(1.0, 0.0, 0.0, 1.0, -6.5, -10.45)" width="13.0" xlink:href="#sprite5"/>
      <use height="11.5" transform="matrix(1.0, 0.0, 0.0, 1.0, -0.5, -1.05)" width="1.0" xlink:href="#sprite6"/>
    </g>
    <g id="sprite5" transform="matrix(1.0, 0.0, 0.0, 1.0, 6.5, 3.25)">
      <use height="6.5" transform="matrix(1.0, 0.0, 0.0, 1.0, -6.5, -3.25)" width="13.0" xlink:href="#shape2"/>
    </g>
    <g id="shape2" transform="matrix(1.0, 0.0, 0.0, 1.0, 6.5, 3.25)">
      <path d="M-6.5 -3.25 L-2.45 -3.25 0.05 -0.75 2.55 -3.25 6.5 -3.25 0.0 3.25 -6.5 -3.25" fill="#ffffff" fill-opacity="0.0" fill-rule="evenodd" stroke="none"/>
    </g>
    <g id="sprite6" transform="matrix(1.0, 0.0, 0.0, 1.0, 0.5, 5.75)">
      <use height="43.2" transform="matrix(0.0012, 0.0, 0.0, 0.2662, -0.5018, -5.75)" width="843.2" xlink:href="#shape3"/>
    </g>
    <g id="shape3" transform="matrix(1.0, 0.0, 0.0, 1.0, 421.6, 21.6)">
      <path d="M-421.6 -21.6 L421.6 -21.6 421.6 21.6 -421.6 21.6 -421.6 -21.6" fill="#ffffff" fill-opacity="0.0" fill-rule="evenodd" stroke="none"/>
    </g>
  </defs>
</svg>
