<?xml version="1.0" encoding="UTF-8" standalone="no"?>
<svg xmlns:xlink="http://www.w3.org/1999/xlink" height="71.5px" width="106.25px" xmlns="http://www.w3.org/2000/svg">
  <g transform="matrix(1.0, 0.0, 0.0, 1.0, -337.0, 28.15)">
    <use height="24.4" transform="matrix(0.9966, 0.0, 0.0, 1.0541, 337.1636, 12.7546)" width="106.25" xlink:href="#sprite0"/>
  </g>
  <defs>
    <g id="sprite0" transform="matrix(1.0, 0.0, 0.0, 1.0, -337.0, -13.95)">
      <use height="24.4" transform="matrix(1.0, 0.0, 0.0, 1.0, 337.0, 13.95)" width="106.25" xlink:href="#shape0"/>
    </g>
    <g id="shape0" transform="matrix(1.0, 0.0, 0.0, 1.0, -337.0, -13.95)">
      <path d="M339.65 15.8 L338.4 17.25 337.0 18.95 337.0 15.8 339.65 15.8 M390.65 29.25 L390.8 29.5 391.25 29.6 Q391.85 29.6 391.65 29.4 L391.85 28.85 Q391.75 28.65 391.25 28.35 L390.85 28.4 Q390.6 28.5 390.6 28.9 L390.65 29.25 M365.4 15.85 L365.35 16.35 Q365.35 17.8 365.5 18.35 L365.6 19.0 368.35 19.5 369.9 19.4 369.9 24.55 369.2 23.4 Q367.95 21.5 366.85 20.5 365.55 20.95 365.05 21.5 364.35 22.3 364.35 24.0 364.35 25.45 364.5 26.15 L364.6 27.0 367.35 27.5 Q368.95 27.5 369.6 26.8 L369.9 26.45 369.9 33.05 387.25 33.05 386.05 36.95 368.35 36.95 Q366.9 36.95 365.65 35.95 364.2 34.85 364.15 32.95 L364.15 19.15 362.2 18.95 362.2 23.95 Q362.25 25.75 360.8 26.95 L358.85 27.9 Q358.05 27.0 356.85 26.5 L355.25 26.8 Q354.6 27.05 354.45 27.95 L342.75 27.95 342.75 31.05 342.35 29.15 342.0 27.1 Q341.4 27.5 341.2 28.1 L341.1 29.2 341.6 32.05 Q342.1 33.9 342.75 34.55 L342.75 36.95 337.0 36.95 337.0 25.45 337.35 25.5 Q339.25 25.5 342.75 21.75 L342.75 23.55 356.45 23.55 356.45 19.7 344.5 19.7 Q346.25 17.5 346.9 15.8 L362.2 15.8 362.2 15.85 365.4 15.85 M408.35 19.75 Q408.35 22.25 408.6 21.25 L409.3 21.8 408.75 23.6 Q408.35 25.5 408.35 27.5 408.35 29.3 408.8 31.3 409.5 34.2 410.85 35.5 L412.4 34.7 412.95 34.4 412.95 36.95 410.95 36.95 Q410.1 36.0 408.85 35.5 L407.25 35.8 Q406.6 36.05 406.45 36.95 L400.7 36.9 Q403.1 34.95 403.1 33.4 L403.0 33.0 Q402.1 33.15 400.45 34.65 L398.25 36.9 391.9 36.85 Q390.5 36.85 389.2 35.85 387.7 34.65 387.7 32.85 L387.7 23.8 388.35 23.8 Q390.7 25.65 394.0 27.7 L393.55 27.7 393.55 32.45 407.2 32.45 407.2 27.7 397.7 27.7 393.35 25.25 391.1 23.8 407.2 23.8 Q407.2 18.55 400.1 18.55 L390.95 19.5 389.25 15.6 Q395.2 13.95 400.0 13.95 406.1 13.95 409.55 16.5 L410.7 17.5 409.25 17.8 Q408.35 18.15 408.35 19.75 M443.25 21.55 Q441.8 22.05 440.8 23.2 439.35 24.8 439.35 26.35 439.35 27.15 441.85 29.5 L443.25 29.05 Q443.15 30.75 442.55 32.2 441.8 31.5 440.35 32.55 437.85 34.35 437.45 36.8 434.25 38.15 429.65 38.35 L428.2 37.5 Q426.6 36.65 426.6 35.75 L426.65 34.25 Q437.45 34.05 437.45 28.55 L420.5 28.4 Q419.05 28.4 417.75 27.35 416.25 26.25 416.25 24.4 L416.25 18.65 416.45 18.2 416.85 16.9 416.75 16.5 416.25 16.6 416.25 15.55 419.8 15.55 420.75 16.2 Q420.35 16.7 420.35 17.75 420.35 20.25 420.6 19.25 L422.1 20.25 422.1 23.9 437.45 23.9 437.45 15.65 443.25 15.7 443.25 21.55" fill="#ffffff" fill-opacity="0.972549" fill-rule="evenodd" stroke="none"/>
    </g>
  </defs>
</svg>
