<?xml version="1.0" encoding="UTF-8" standalone="no"?>
<svg xmlns:xlink="http://www.w3.org/1999/xlink" height="15.1px" width="13.5px" xmlns="http://www.w3.org/2000/svg">
  <g transform="matrix(1.0, 0.0, 0.0, 1.0, 6.75, 7.55)">
    <use height="15.1" transform="matrix(1.0, 0.0, 0.0, 1.0, -6.75, -7.55)" width="13.5" xlink:href="#shape0"/>
  </g>
  <defs>
    <g id="shape0" transform="matrix(1.0, 0.0, 0.0, 1.0, 6.75, 7.55)">
      <path d="M5.4 -5.85 L3.55 -5.75 1.45 -5.65 -0.3 -5.55 -1.55 -5.45 -2.0 -5.45 -2.0 6.85 -1.55 6.8 -1.15 6.75 1.25 6.5 4.05 6.25 6.15 6.0 6.15 4.45 6.15 2.65 6.15 0.75 6.15 -1.0 6.15 -2.9 6.15 -4.85 6.15 -5.9 5.4 -5.85 M-2.85 -6.1 L6.75 -6.6 6.75 6.5 -2.85 7.55 -2.85 -6.1" fill="#b7b7b7" fill-rule="evenodd" stroke="none"/>
      <path d="M-6.75 -7.25 L-2.85 -6.1 -2.85 7.55 -6.75 6.45 -6.75 -7.25" fill="#9d9d9d" fill-rule="evenodd" stroke="none"/>
      <path d="M-6.75 -7.25 L1.45 -7.55 6.75 -6.6 -2.85 -6.1 -6.75 -7.25" fill="#c4c4c4" fill-rule="evenodd" stroke="none"/>
      <path d="M3.35 -3.9 L5.4 -5.85 6.15 -5.9 6.15 -4.85 3.9 -2.75 3.5 -3.7 3.35 -3.9 M3.55 -5.75 L-1.55 -1.1 -1.55 -2.85 1.45 -5.65 3.55 -5.75 M-1.55 0.7 L1.25 -1.9 Q1.35 -1.45 1.6 -1.1 L1.8 -0.85 -0.4 1.15 -0.85 1.15 -0.85 1.55 -1.55 2.15 -1.55 0.7 M6.15 -2.9 L6.15 -1.0 3.8 0.85 1.55 1.0 6.15 -2.9 M6.15 0.75 L6.15 2.65 5.05 3.55 2.55 3.7 3.4 3.05 5.5 2.85 5.5 1.3 6.15 0.75 M6.15 4.45 L6.15 6.0 4.05 6.25 4.7 5.7 5.5 5.6 5.5 5.0 6.15 4.45 M1.25 6.5 L-1.15 6.75 -0.35 6.05 2.05 5.9 1.25 6.5 M-1.55 -5.45 L-0.3 -5.55 -1.55 -4.45 -1.55 -5.45 M-0.85 3.05 L-0.85 3.35 0.95 3.2 0.15 3.85 -0.85 3.9 -0.85 4.7 -1.55 5.25 -1.55 3.65 -0.85 3.05" fill="#333333" fill-rule="evenodd" stroke="none"/>
      <path d="M3.0 -3.55 L3.05 -3.5 3.1 -3.45 3.15 -3.3 3.2 -3.15 3.2 -3.1 3.2 -2.9 3.2 -2.6 3.2 -2.55 3.15 -2.5 3.15 -2.4 3.15 -2.25 3.1 -2.15 3.1 -2.1 3.05 -2.05 3.05 -1.95 3.0 -1.9 2.95 -1.95 2.95 -2.0 2.95 -2.1 3.0 -2.15 3.05 -2.25 3.05 -2.3 3.05 -2.4 3.05 -2.45 3.05 -2.55 3.1 -2.6 3.1 -2.7 3.1 -2.85 3.1 -3.0 3.1 -3.1 3.1 -3.15 3.05 -3.2 3.0 -3.3 2.95 -3.35 Q2.6 -3.4 2.5 -3.6 L2.5 -3.65 2.9 -3.65 3.0 -3.55 M3.35 -3.9 Q3.0 -4.25 2.55 -4.25 2.0 -4.25 1.6 -3.7 1.2 -3.15 1.2 -2.4 L1.25 -1.9 -1.55 0.7 -1.55 -1.1 3.55 -5.75 5.4 -5.85 3.35 -3.9 M1.8 -0.85 Q2.1 -0.55 2.55 -0.55 3.1 -0.55 3.5 -1.1 3.9 -1.65 3.9 -2.4 L3.9 -2.75 6.15 -4.85 6.15 -2.9 1.55 1.0 -0.4 1.15 1.8 -0.85 M6.15 -1.0 L6.15 0.75 5.5 1.3 5.5 0.75 3.8 0.85 6.15 -1.0 M6.15 2.65 L6.15 4.45 5.5 5.0 5.5 3.5 5.05 3.55 6.15 2.65 M4.05 6.25 L1.25 6.5 2.05 5.9 4.7 5.7 4.05 6.25 M-1.15 6.75 L-1.55 6.8 -1.55 5.25 -0.85 4.7 -0.85 6.1 -0.35 6.05 -1.15 6.75 M-0.3 -5.55 L1.45 -5.65 -1.55 -2.85 -1.55 -4.45 -0.3 -5.55 M5.15 1.15 L5.1 1.2 5.0 1.35 4.85 1.5 4.85 1.55 4.85 1.8 4.85 2.05 4.85 2.1 4.9 2.2 4.9 2.25 4.9 2.4 4.9 2.55 4.85 2.55 4.8 2.45 4.8 2.3 4.8 2.2 4.75 2.15 4.75 2.1 4.75 1.75 4.75 1.6 1.9 1.6 1.85 1.6 -0.35 1.6 -0.3 1.55 1.95 1.35 4.8 1.4 4.8 1.3 4.8 1.25 4.85 1.2 4.95 1.15 4.95 1.1 5.0 1.1 5.0 1.05 5.1 1.1 5.15 1.15 M-0.85 1.55 L-0.85 3.05 -1.55 3.65 -1.55 2.15 -0.85 1.55 M0.95 3.2 L3.4 3.05 2.55 3.7 0.15 3.85 0.95 3.2 M5.1 4.05 L4.9 4.1 4.9 4.4 4.9 5.2 4.9 5.3 4.8 5.05 4.8 4.4 4.8 4.2 -0.35 4.3 4.45 3.95 4.8 4.0 4.8 3.9 5.1 3.85 5.1 3.8 5.2 3.85 5.25 3.9 5.1 4.05" fill="#848484" fill-rule="evenodd" stroke="none"/>
      <path d="M3.0 -3.55 L2.9 -3.65 2.5 -3.65 2.5 -3.6 Q2.6 -3.4 2.95 -3.35 L3.0 -3.3 3.05 -3.2 3.1 -3.15 3.1 -3.1 3.1 -3.0 3.1 -2.85 3.1 -2.7 3.1 -2.6 3.05 -2.55 3.05 -2.45 3.05 -2.4 3.05 -2.3 3.05 -2.25 3.0 -2.15 2.95 -2.1 2.95 -2.0 2.95 -1.95 3.0 -1.9 3.05 -1.95 3.05 -2.05 3.1 -2.1 3.1 -2.15 3.15 -2.25 3.15 -2.4 3.15 -2.5 3.2 -2.55 3.2 -2.6 3.2 -2.9 3.2 -3.1 3.2 -3.15 3.15 -3.3 3.1 -3.45 3.05 -3.5 3.0 -3.55 M1.25 -1.9 L1.2 -2.4 Q1.2 -3.15 1.6 -3.7 2.0 -4.25 2.55 -4.25 3.0 -4.25 3.35 -3.9 L3.5 -3.7 3.9 -2.75 3.9 -2.4 Q3.9 -1.65 3.5 -1.1 3.1 -0.55 2.55 -0.55 2.1 -0.55 1.8 -0.85 L1.6 -1.1 Q1.35 -1.45 1.25 -1.9 M5.15 1.15 L5.1 1.1 5.0 1.05 5.0 1.1 4.95 1.1 4.95 1.15 4.85 1.2 4.8 1.25 4.8 1.3 4.8 1.4 1.95 1.35 -0.3 1.55 -0.35 1.6 1.85 1.6 1.9 1.6 4.75 1.6 4.75 1.75 4.75 2.1 4.75 2.15 4.8 2.2 4.8 2.3 4.8 2.45 4.85 2.55 4.9 2.55 4.9 2.4 4.9 2.25 4.9 2.2 4.85 2.1 4.85 2.05 4.85 1.8 4.85 1.55 4.85 1.5 5.0 1.35 5.1 1.2 5.15 1.15 M5.5 1.3 L5.5 2.85 3.4 3.05 0.95 3.2 -0.85 3.35 -0.85 3.05 -0.85 1.55 -0.85 1.15 -0.4 1.15 1.55 1.0 3.8 0.85 5.5 0.75 5.5 1.3 M2.55 3.7 L5.05 3.55 5.5 3.5 5.5 5.0 5.5 5.6 4.7 5.7 2.05 5.9 -0.35 6.05 -0.85 6.1 -0.85 4.7 -0.85 3.9 0.15 3.85 2.55 3.7 M5.1 4.05 L5.25 3.9 5.2 3.85 5.1 3.8 5.1 3.85 4.8 3.9 4.8 4.0 4.45 3.95 -0.35 4.3 4.8 4.2 4.8 4.4 4.8 5.05 4.9 5.3 4.9 5.2 4.9 4.4 4.9 4.1 5.1 4.05" fill="#6f6f6f" fill-rule="evenodd" stroke="none"/>
      <path d="M-1.55 -1.1 L-1.55 0.7 -1.55 2.15 -1.55 3.65 -1.55 5.25 -1.55 6.8 -2.0 6.85 -2.0 -5.45 -1.55 -5.45 -1.55 -4.45 -1.55 -2.85 -1.55 -1.1" fill="#4d4d4d" fill-rule="evenodd" stroke="none"/>
    </g>
  </defs>
</svg>
