<?xml version="1.0" encoding="UTF-8" standalone="no"?>
<svg xmlns:xlink="http://www.w3.org/1999/xlink" height="51.6px" width="58.75px" xmlns="http://www.w3.org/2000/svg">
  <g transform="matrix(1.0, 0.0, 0.0, 1.0, 21.7, 19.0)">
    <use height="37.7" id="boxx" transform="matrix(0.9308, 0.0, 0.0, 0.9308, -14.0278, -16.2164)" width="25.95" xlink:href="#sprite0"/>
    <use height="10.9" transform="matrix(0.8017, -0.032, 0.032, 0.8017, -10.4359, -11.0696)" width="30.8" xlink:href="#sprite4"/>
  </g>
  <defs>
    <g id="sprite0" transform="matrix(1.0, 0.0, 0.0, 1.0, 14.05, 18.55)">
      <use height="302.3" id="boxx" transform="matrix(-0.1248, 0.0, 0.0, 0.1248, 11.893, -18.5714)" width="207.9" xlink:href="#sprite1"/>
    </g>
    <g id="sprite1" transform="matrix(1.0, 0.0, 0.0, 1.0, 85.3, 152.45)">
      <use height="210.65" transform="matrix(1.0, 0.0, 0.0, 1.0, -36.05, -85.85)" width="86.6" xlink:href="#shape0"/>
      <use height="64.6" id="head" transform="matrix(-0.9405, 0.0, 0.0, 0.9402, 44.0, -131.8)" width="64.6" xlink:href="#sprite2"/>
      <use height="56.9" id="zonee" transform="matrix(1.0, 0.0, 0.0, 1.0, -14.15, -127.95)" width="56.9" xlink:href="#sprite3"/>
    </g>
    <g id="shape0" transform="matrix(1.0, 0.0, 0.0, 1.0, 36.05, 85.85)">
      <path d="M46.4 -79.0 Q49.35 -76.3 49.35 -72.45 49.35 -71.15 49.65 -68.8 L49.9 -65.3 Q49.9 -64.85 50.25 -63.95 L50.55 -62.65 Q50.55 -53.7 47.3 -42.3 43.3 -28.4 37.85 -28.4 30.55 -28.4 28.7 -28.55 24.95 -28.8 22.85 -30.0 21.4 -30.85 19.9 -33.0 19.35 -15.15 20.55 0.45 L31.95 59.65 36.65 119.35 Q34.85 122.15 31.55 124.25 16.75 126.85 15.95 117.5 L15.95 57.3 12.15 33.15 6.75 55.15 1.7 115.1 Q0.1 124.3 -14.4 120.55 -17.55 118.15 -19.1 115.2 L-9.4 56.1 2.8 12.5 5.35 4.5 Q5.5 -24.9 9.4 -54.85 L9.5 -55.7 9.3 -55.25 9.6 -57.2 Q8.95 -58.25 7.1 -58.95 L6.1 -60.2 5.1 -60.45 4.3 -61.25 Q5.4 -58.5 5.4 -56.55 5.4 -53.7 5.7 -51.7 L5.9 -50.5 5.95 -50.05 5.3 -48.65 4.6 -47.85 -4.2 -39.95 Q-13.1 -32.1 -13.85 -32.1 L-16.6 -31.15 -19.75 -30.2 Q-20.25 -30.2 -23.65 -34.3 -27.4 -38.85 -27.4 -41.3 -27.4 -42.25 -29.6 -46.9 -31.95 -52.0 -32.55 -55.4 -32.75 -56.65 -34.5 -62.25 -36.05 -67.1 -36.05 -68.65 -36.05 -74.8 -35.25 -74.8 L-32.8 -77.25 Q-30.2 -79.7 -28.7 -79.7 L-26.55 -79.65 Q-25.2 -79.4 -25.2 -78.05 L-23.75 -76.15 Q-22.3 -74.1 -22.3 -71.6 -22.3 -69.05 -19.55 -60.55 -16.75 -52.0 -15.6 -50.85 -9.65 -57.05 -4.45 -64.75 L-1.7 -65.35 0.3 -65.95 -0.9 -68.2 Q-0.6 -69.2 -1.35 -69.5 L-1.4 -69.45 Q-0.9 -71.8 0.2 -73.7 L4.4 -75.25 Q8.45 -76.5 12.8 -77.05 13.55 -86.05 19.95 -85.85 26.7 -84.7 23.05 -75.15 L22.95 -74.15 28.2 -70.8 33.1 -50.4 30.65 -50.25 Q31.15 -48.25 31.7 -47.75 32.3 -47.15 35.3 -47.15 36.4 -47.15 37.7 -49.15 39.45 -51.85 39.45 -56.4 39.45 -58.55 36.6 -68.0 36.6 -69.9 37.05 -73.8 37.55 -77.75 37.8 -77.75 L38.85 -79.6 Q39.85 -81.45 40.6 -81.45 43.75 -81.45 46.4 -79.0" fill="#000000" fill-rule="evenodd" stroke="none"/>
      <path d="M4.6 -75.1 L5.05 -74.8 Q9.3 -70.45 13.05 -65.05 L13.05 -62.3 12.55 -61.8 12.5 -61.3 Q11.85 -57.5 9.6 -54.7 L9.7 -55.55 8.9 -53.85 8.8 -53.8 8.8 -53.65 4.75 -45.5 Q5.65 -56.65 -4.75 -65.05 L-1.5 -72.75 Q1.45 -74.15 4.6 -75.1" fill="#000000" fill-rule="evenodd" stroke="none"/>
    </g>
    <g id="sprite2" transform="matrix(1.0, 0.0, 0.0, 1.0, 0.0, 0.0)">
      <use height="64.6" transform="matrix(1.0, 0.0, 0.0, 1.0, 0.0, 0.0)" width="64.6" xlink:href="#shape1"/>
    </g>
    <g id="shape1" transform="matrix(1.0, 0.0, 0.0, 1.0, 0.0, 0.0)">
      <path d="M55.15 9.45 Q64.6 18.9 64.6 32.25 64.6 45.7 55.15 55.15 50.1 60.2 43.85 62.6 L32.95 64.6 32.25 64.6 26.05 64.05 23.0 63.35 23.0 63.3 22.9 63.3 Q16.75 61.5 11.65 57.2 L10.85 56.5 9.45 55.15 Q0.0 45.7 0.0 32.25 0.0 18.9 9.45 9.45 18.9 0.0 32.25 0.0 45.7 0.0 55.15 9.45" fill="#000000" fill-rule="evenodd" stroke="none"/>
    </g>
    <g id="sprite3" transform="matrix(1.0, 0.0, 0.0, 1.0, 28.45, 28.45)">
      <use height="36.75" transform="matrix(2.6465, 0.0, 0.0, 1.5483, -28.4621, -28.4302)" width="21.5" xlink:href="#shape2"/>
    </g>
    <g id="shape2" transform="matrix(1.0, 0.0, 0.0, 1.0, 10.15, 21.85)">
      <path d="M11.35 -21.85 L11.35 14.9 -10.15 14.9 -10.15 -21.85 11.35 -21.85" fill="#010101" fill-opacity="0.0" fill-rule="evenodd" stroke="none"/>
    </g>
    <g id="sprite4" transform="matrix(1.0, 0.0, 0.0, 1.0, 24.85, 8.25)">
      <use height="10.9" transform="matrix(1.0, 0.0, 0.0, 1.0, -24.85, -8.25)" width="30.8" xlink:href="#shape3"/>
    </g>
    <g id="shape3" transform="matrix(1.0, 0.0, 0.0, 1.0, 24.85, 8.25)">
      <path d="M4.95 -0.9 L5.5 -1.05 5.95 -0.35 5.8 1.05 5.8 1.35 5.35 2.3 5.2 2.3 5.1 2.4 4.8 2.65 4.55 2.6 4.5 2.65 4.45 2.65 4.15 2.25 4.0 2.25 Q2.6 2.05 1.6 1.05 L1.4 1.15 0.0 0.9 -0.4 0.95 Q-0.95 1.0 -1.4 0.6 L-1.55 0.6 -2.05 0.2 -2.15 -0.15 Q-7.35 -1.6 -12.8 -1.85 L-12.5 -1.65 -12.7 -1.35 -12.85 -1.35 -13.05 -1.05 -13.05 -0.9 -13.2 -0.65 -13.2 -0.5 -13.3 -0.15 -13.7 0.6 -13.85 0.6 -14.1 0.55 -14.15 0.65 -14.4 0.65 -14.8 0.35 -14.9 0.15 Q-14.45 -1.1 -14.8 -2.45 -16.25 -3.6 -17.95 -3.0 L-18.05 -2.85 -18.1 -2.3 -18.05 -2.35 -17.85 -2.05 -18.2 -1.75 -18.45 -1.25 -18.65 0.15 -19.15 0.5 Q-20.25 0.65 -20.35 -0.45 L-20.25 -0.7 -20.25 -0.8 Q-19.45 -2.55 -20.55 -4.45 L-20.8 -4.4 Q-21.25 -4.9 -21.7 -4.8 L-21.8 -4.8 -23.25 -5.3 Q-23.9 -5.45 -24.25 -6.0 L-24.7 -6.05 -24.85 -6.3 -24.6 -7.65 -23.95 -7.55 -23.95 -7.8 -23.65 -8.25 -22.4 -7.9 -22.1 -8.0 -21.6 -7.6 -21.75 -6.95 -19.65 -6.4 -19.55 -6.45 -18.3 -6.15 -18.25 -6.1 -17.75 -5.9 -17.6 -5.95 -17.3 -5.75 -16.3 -5.6 Q-16.0 -5.5 -15.8 -5.8 L-15.45 -5.55 -15.1 -6.35 -14.2 -6.25 -13.9 -6.1 -13.6 -6.1 -12.85 -5.7 -13.1 -5.0 -12.55 -4.9 -12.25 -4.8 -11.6 -4.85 -11.35 -4.75 -9.3 -4.1 -9.05 -4.15 -8.65 -3.9 -8.35 -4.0 -8.0 -3.75 -7.85 -3.8 -6.65 -3.4 -6.6 -3.45 -6.25 -3.25 -6.15 -3.3 -5.7 -3.0 -5.3 -3.0 -5.0 -2.8 -4.35 -2.9 -4.2 -2.8 -3.45 -2.85 -1.25 -1.65 -0.95 -1.6 -0.85 -1.6 -0.6 -1.45 Q0.15 -1.6 0.7 -1.15 L0.8 -1.15 1.2 -0.9 4.7 -0.55 4.95 -0.9" fill="#000000" fill-rule="evenodd" stroke="none"/>
    </g>
  </defs>
</svg>
