<?xml version="1.0" encoding="UTF-8" standalone="no"?>
<svg xmlns:xlink="http://www.w3.org/1999/xlink" height="63.55px" width="89.5px" xmlns="http://www.w3.org/2000/svg">
  <g transform="matrix(1.0, 0.0, 0.0, 1.0, 48.05, 25.15)">
    <use height="40.7" transform="matrix(0.8442, 0.0, 0.0, -0.8442, -33.5647, 12.7302)" width="73.0" xlink:href="#sprite0"/>
  </g>
  <defs>
    <g id="sprite0" transform="matrix(1.0, 0.0, 0.0, 1.0, 36.5, 20.35)">
      <use height="40.7" transform="matrix(1.0, 0.0, 0.0, 1.0, -36.5, -20.35)" width="73.0" xlink:href="#shape0"/>
    </g>
    <g id="shape0" transform="matrix(1.0, 0.0, 0.0, 1.0, 36.5, 20.35)">
      <path d="M2.0 -19.45 L1.5 -19.8 2.3 -20.35 2.5 -19.8 2.0 -19.45 M7.1 -7.85 Q6.7 -8.45 9.75 -8.3 9.9 -8.45 9.9 -7.8 L9.85 -7.45 9.75 -7.3 7.3 -7.3 7.2 -7.4 7.1 -7.85 M10.15 0.4 L10.15 -0.1 9.65 -0.6 Q9.15 -0.35 9.15 1.3 L9.15 1.35 5.15 4.35 5.4 4.35 5.55 4.8 5.25 5.1 4.8 5.3 4.3 4.95 4.1 5.05 2.5 5.05 2.25 4.3 Q8.75 2.05 10.0 -1.95 10.7 -4.15 11.0 -8.05 11.4 -7.65 11.5 -6.7 L11.5 -5.05 Q11.5 -1.55 10.65 -0.25 L10.15 0.4 M36.0 0.8 L36.5 1.3 36.5 1.55 36.0 1.8 35.5 1.55 Q35.5 1.2 36.0 0.8 M19.4 11.45 L18.9 11.95 Q16.05 9.5 15.0 6.6 16.35 6.85 17.5 8.4 L19.4 11.45 M-23.6 -9.45 Q-23.5 -9.7 -23.5 -9.05 L-23.6 -8.7 Q-23.8 -8.35 -24.25 -8.3 L-24.75 -8.6 -24.3 -9.4 -23.6 -9.45 M-24.0 -10.3 L-24.5 -10.6 Q-24.2 -11.0 -23.6 -11.2 L-23.5 -10.8 Q-23.5 -10.5 -24.0 -10.3 M-3.1 -11.75 L-3.0 -11.3 Q-3.0 -10.9 -4.05 -9.8 -5.05 -8.8 -5.2 -8.8 L-5.65 -8.95 -5.7 -8.9 -5.8 -9.35 Q-5.8 -10.0 -5.1 -10.75 L-3.5 -11.8 -3.1 -11.75 M-9.85 -5.6 L-9.65 -5.35 -10.15 -4.85 -10.55 -4.9 -10.65 -5.35 -10.6 -5.55 -10.55 -5.4 -10.15 -5.35 -9.85 -5.6 M-14.25 1.55 Q-13.5 2.55 -13.5 3.6 L-13.55 4.05 -13.55 4.2 -14.0 4.3 Q-14.6 4.3 -14.75 2.6 -14.75 1.85 -14.25 1.55 M-14.5 15.9 L-14.0 16.4 Q-14.1 16.75 -14.5 16.9 L-15.0 16.6 Q-15.0 16.15 -14.5 15.9" fill="#870101" fill-rule="evenodd" stroke="none"/>
      <path d="M3.25 -11.15 L3.25 -10.8 Q3.25 -10.4 1.3 -7.45 L-0.7 -4.6 -0.75 -4.45 Q-0.8 -4.25 -1.15 -4.1 L-1.55 -4.2 -1.65 -4.7 -1.5 -5.25 -1.35 -5.3 -1.25 -5.5 Q0.7 -10.2 2.4 -11.0 L2.25 -11.1 3.1 -11.7 3.25 -11.3 3.25 -11.15 M4.85 -4.1 L5.05 -3.6 4.75 -3.3 4.35 -3.1 3.85 -3.45 Q4.4 -4.15 4.85 -4.1 M26.05 12.45 L25.55 12.95 25.05 12.6 25.05 12.05 25.85 12.05 26.05 12.45 M1.6 7.95 L0.3 7.75 -0.75 7.4 -0.75 6.95 -1.1 6.2 -1.15 5.0 Q-1.15 2.9 -0.65 2.8 -0.15 3.25 -0.15 4.85 L-0.25 6.8 -0.35 6.85 1.1 6.75 Q1.75 6.8 2.75 7.45 L2.25 7.85 1.6 7.95 M-15.25 -13.5 L-15.75 -13.85 -15.75 -14.45 -14.9 -14.45 -14.75 -14.0 -14.75 -13.85 -15.25 -13.5 M-8.2 3.4 Q-8.05 3.45 -8.05 3.85 -8.05 4.4 -9.15 4.8 L-9.65 4.45 -9.05 3.7 -8.55 3.3 -8.2 3.4 M-8.3 13.6 Q-6.95 12.45 -3.75 11.05 -0.55 9.65 0.0 9.2 L0.5 9.7 Q-0.35 11.15 -3.55 12.6 -6.4 13.9 -7.75 13.9 L-8.15 13.85 -8.3 13.6 M-8.05 9.95 L-7.65 10.6 -7.55 11.2 -8.05 11.45 -8.4 11.3 -8.55 10.8 Q-8.55 10.15 -8.05 9.95" fill="#2b0000" fill-rule="evenodd" stroke="none"/>
      <path d="M9.15 1.35 L9.15 1.3 Q9.15 -0.35 9.65 -0.6 L10.15 -0.1 10.15 0.4 10.15 2.8 9.65 3.05 Q9.15 2.8 9.15 1.35 M-16.55 -11.4 L-16.8 -11.6 Q-17.0 -12.4 -16.35 -12.45 -15.7 -12.5 -15.25 -11.8 -15.25 -11.3 -16.05 -11.3 L-16.55 -11.4 M-14.05 -9.45 L-14.0 -8.3 -14.05 -8.15 -14.5 -8.05 -15.1 -8.25 -15.75 -8.85 -15.75 -9.45 -14.05 -9.45 M-12.25 -4.35 L-12.6 -4.45 -12.75 -4.95 -12.6 -5.5 -12.25 -5.6 -11.85 -5.5 -11.75 -5.0 -11.75 -4.7 -12.25 -4.35 M-9.85 -5.6 L-10.15 -5.35 -10.55 -5.4 -10.6 -5.55 -10.65 -5.85 -10.35 -6.3 -9.85 -6.2 -9.65 -5.85 -9.85 -5.6 M-14.6 0.3 L-13.65 0.25 Q-13.5 -0.05 -13.5 0.55 -13.5 1.3 -14.4 1.3 L-14.8 1.25 Q-15.0 1.5 -15.0 0.85 L-14.6 0.3 M-10.4 -1.95 Q-10.5 -2.6 -8.9 -3.6 L-8.5 -3.5 Q-8.35 -3.4 -8.35 -3.0 -8.35 -2.6 -9.1 -2.1 L-9.9 -1.6 -10.4 -1.95 M-5.5 7.45 L-10.95 10.55 Q-14.55 12.55 -15.25 13.2 L-15.6 13.1 -15.75 12.7 Q-15.75 11.5 -12.75 9.8 -10.0 8.2 -6.0 6.95 L-5.5 7.45 M-9.4 16.4 Q-8.9 16.6 -8.9 17.3 L-9.1 18.1 -10.15 18.9 -10.55 18.75 -10.65 18.2 Q-10.65 17.25 -9.4 16.4 M-14.75 19.4 L-23.55 18.3 Q-23.85 19.35 -24.5 19.65 L-24.85 19.6 -25.0 19.1 Q-25.0 17.15 -23.8 15.45 -22.3 13.15 -19.6 13.4 L-19.1 13.9 Q-19.35 14.4 -21.05 14.8 -22.7 15.25 -23.15 16.3 L-23.35 17.35 -20.7 17.65 -14.25 18.4 -14.0 18.9 Q-14.15 19.4 -14.75 19.4" fill="#b10101" fill-rule="evenodd" stroke="none"/>
      <path d="M-35.4 19.9 L-36.0 20.35 -36.35 20.35 -36.5 19.85 Q-36.5 19.45 -36.2 19.45 L-35.6 19.55 -35.4 19.9" fill="#4b0101" fill-rule="evenodd" stroke="none"/>
    </g>
  </defs>
</svg>
