<?xml version="1.0" encoding="UTF-8" standalone="no"?>
<svg xmlns:xlink="http://www.w3.org/1999/xlink" height="208.8px" width="212.15px" xmlns="http://www.w3.org/2000/svg">
  <g transform="matrix(1.0, 0.0, 0.0, 1.0, 77.2, 45.15)">
    <use height="26.65" transform="matrix(1.0, 0.0, 0.0, 1.0, 11.15, 4.35)" width="36.4" xlink:href="#sprite0"/>
    <use height="26.65" transform="matrix(0.5278, -0.306, 0.7939, 1.3692, 49.05, 9.35)" width="36.4" xlink:href="#sprite0"/>
    <use height="26.65" transform="matrix(1.0, 0.0, 1.6729, 0.718, -12.85, 26.7)" width="36.4" xlink:href="#sprite0"/>
    <use height="26.65" transform="matrix(0.7903, -0.5799, 1.7121, 0.7026, 40.8, 56.55)" width="36.4" xlink:href="#sprite0"/>
    <use height="26.65" transform="matrix(1.728, 0.0, -0.22, 0.6442, -0.15, 58.15)" width="36.4" xlink:href="#sprite0"/>
  </g>
  <defs>
    <g id="sprite0" transform="matrix(1.0, 0.0, 0.0, 1.0, 0.0, 0.0)">
      <use height="25.45" transform="matrix(1.0, 0.0, 0.0, 1.0, 0.2, 0.0)" width="36.2" xlink:href="#sprite1"/>
      <use height="25.45" transform="matrix(1.0, 0.0, 0.0, 1.0, 0.0, 1.2)" width="36.2" xlink:href="#sprite1"/>
    </g>
    <g id="sprite1" transform="matrix(1.0, 0.0, 0.0, 1.0, 0.0, 0.0)">
      <use height="25.45" transform="matrix(1.0, 0.0, 0.0, 1.0, 0.0, 0.0)" width="36.2" xlink:href="#shape0"/>
    </g>
    <g id="shape0" transform="matrix(1.0, 0.0, 0.0, 1.0, 0.0, 0.0)">
      <path d="M28.8 25.45 L14.35 14.3 0.0 10.2 18.0 0.0 36.2 6.7 32.05 16.0 34.95 17.8 28.8 25.45" fill="#d9d9d9" fill-opacity="0.88235295" fill-rule="evenodd" stroke="none"/>
    </g>
  </defs>
</svg>
