<?xml version="1.0" encoding="UTF-8" standalone="no"?>
<svg xmlns:xlink="http://www.w3.org/1999/xlink" height="208.8px" width="212.15px" xmlns="http://www.w3.org/2000/svg">
  <g transform="matrix(1.0, 0.0, 0.0, 1.0, 77.2, 45.15)">
    <use height="26.65" transform="matrix(0.948, 0.3094, -0.4061, 0.557, 24.15, -27.65)" width="36.4" xlink:href="#sprite0"/>
    <use height="26.65" transform="matrix(0.7283, -0.4482, 0.4471, 1.8539, 80.85, 8.85)" width="36.4" xlink:href="#sprite0"/>
    <use height="26.65" transform="matrix(0.948, 0.3094, -0.9159, 1.3918, -20.9, 24.55)" width="36.4" xlink:href="#sprite0"/>
    <use height="26.65" transform="matrix(0.1814, -0.9318, 0.9274, 0.2973, 70.0, 85.85)" width="36.4" xlink:href="#sprite0"/>
    <use height="26.65" transform="matrix(1.1046, -0.6021, 0.0381, 0.5741, 6.35, 119.65)" width="36.4" xlink:href="#sprite0"/>
  </g>
  <defs>
    <g id="sprite0" transform="matrix(1.0, 0.0, 0.0, 1.0, 0.0, 0.0)">
      <use height="25.45" transform="matrix(1.0, 0.0, 0.0, 1.0, 0.2, 0.0)" width="36.2" xlink:href="#sprite1"/>
      <use height="25.45" transform="matrix(1.0, 0.0, 0.0, 1.0, 0.0, 1.2)" width="36.2" xlink:href="#sprite1"/>
    </g>
    <g id="sprite1" transform="matrix(1.0, 0.0, 0.0, 1.0, 0.0, 0.0)">
      <use height="25.45" transform="matrix(1.0, 0.0, 0.0, 1.0, 0.0, 0.0)" width="36.2" xlink:href="#shape0"/>
    </g>
    <g id="shape0" transform="matrix(1.0, 0.0, 0.0, 1.0, 0.0, 0.0)">
      <path d="M28.8 25.45 L14.35 14.3 0.0 10.2 18.0 0.0 36.2 6.7 32.05 16.0 34.95 17.8 28.8 25.45" fill="#d9d9d9" fill-opacity="0.88235295" fill-rule="evenodd" stroke="none"/>
    </g>
  </defs>
</svg>
