<?xml version="1.0" encoding="UTF-8" standalone="no"?>
<svg xmlns:xlink="http://www.w3.org/1999/xlink" height="208.8px" width="212.15px" xmlns="http://www.w3.org/2000/svg">
  <g transform="matrix(1.0, 0.0, 0.0, 1.0, 77.2, 45.15)">
    <use height="26.65" transform="matrix(0.9232, 0.3785, -0.433, 0.446, 26.4, -34.5)" width="36.4" xlink:href="#sprite0"/>
    <use height="26.65" transform="matrix(0.7722, -0.4837, 0.3454, 1.9506, 88.3, 9.0)" width="36.4" xlink:href="#sprite0"/>
    <use height="26.65" transform="matrix(0.9232, 0.3785, -1.3501, 0.9221, -24.3, 32.3)" width="36.4" xlink:href="#sprite0"/>
    <use height="26.65" transform="matrix(0.0257, -0.9428, 0.7469, 0.2251, 77.0, 90.95)" width="36.4" xlink:href="#sprite0"/>
    <use height="26.65" transform="matrix(0.9457, -0.6642, 0.0865, 0.5453, 8.35, 132.2)" width="36.4" xlink:href="#sprite0"/>
  </g>
  <defs>
    <g id="sprite0" transform="matrix(1.0, 0.0, 0.0, 1.0, 0.0, 0.0)">
      <use height="25.45" transform="matrix(1.0, 0.0, 0.0, 1.0, 0.2, 0.0)" width="36.2" xlink:href="#sprite1"/>
      <use height="25.45" transform="matrix(1.0, 0.0, 0.0, 1.0, 0.0, 1.2)" width="36.2" xlink:href="#sprite1"/>
    </g>
    <g id="sprite1" transform="matrix(1.0, 0.0, 0.0, 1.0, 0.0, 0.0)">
      <use height="25.45" transform="matrix(1.0, 0.0, 0.0, 1.0, 0.0, 0.0)" width="36.2" xlink:href="#shape0"/>
    </g>
    <g id="shape0" transform="matrix(1.0, 0.0, 0.0, 1.0, 0.0, 0.0)">
      <path d="M28.8 25.45 L14.35 14.3 0.0 10.2 18.0 0.0 36.2 6.7 32.05 16.0 34.95 17.8 28.8 25.45" fill="#d9d9d9" fill-opacity="0.88235295" fill-rule="evenodd" stroke="none"/>
    </g>
  </defs>
</svg>
