<?xml version="1.0" encoding="UTF-8" standalone="no"?>
<svg xmlns:xlink="http://www.w3.org/1999/xlink" height="208.8px" width="212.15px" xmlns="http://www.w3.org/2000/svg">
  <g transform="matrix(1.0, 0.0, 0.0, 1.0, 77.2, 45.15)">
    <use height="26.65" transform="matrix(0.9065, 0.4146, -0.4377, 0.3819, 27.6, -38.5)" width="36.4" xlink:href="#sprite0"/>
    <use height="26.65" transform="matrix(0.7966, -0.5038, 0.2747, 2.0043, 92.8, 9.05)" width="36.4" xlink:href="#sprite0"/>
    <use height="26.65" transform="matrix(0.9065, 0.4146, -1.5044, 0.586, -27.7, 37.75)" width="36.4" xlink:href="#sprite0"/>
    <use height="26.65" transform="matrix(-0.0621, -0.937, 0.6397, 0.1842, 81.05, 93.6)" width="36.4" xlink:href="#sprite0"/>
    <use height="26.65" transform="matrix(0.8519, -0.6859, 0.1102, 0.5268, 9.6, 139.35)" width="36.4" xlink:href="#sprite0"/>
  </g>
  <defs>
    <g id="sprite0" transform="matrix(1.0, 0.0, 0.0, 1.0, 0.0, 0.0)">
      <use height="25.45" transform="matrix(1.0, 0.0, 0.0, 1.0, 0.2, 0.0)" width="36.2" xlink:href="#sprite1"/>
      <use height="25.45" transform="matrix(1.0, 0.0, 0.0, 1.0, 0.0, 1.2)" width="36.2" xlink:href="#sprite1"/>
    </g>
    <g id="sprite1" transform="matrix(1.0, 0.0, 0.0, 1.0, 0.0, 0.0)">
      <use height="25.45" transform="matrix(1.0, 0.0, 0.0, 1.0, 0.0, 0.0)" width="36.2" xlink:href="#shape0"/>
    </g>
    <g id="shape0" transform="matrix(1.0, 0.0, 0.0, 1.0, 0.0, 0.0)">
      <path d="M28.8 25.45 L14.35 14.3 0.0 10.2 18.0 0.0 36.2 6.7 32.05 16.0 34.95 17.8 28.8 25.45" fill="#d9d9d9" fill-opacity="0.5411765" fill-rule="evenodd" stroke="none"/>
    </g>
  </defs>
</svg>
