<?xml version="1.0" encoding="UTF-8" standalone="no"?>
<svg xmlns:xlink="http://www.w3.org/1999/xlink" height="208.8px" width="212.15px" xmlns="http://www.w3.org/2000/svg">
  <g transform="matrix(1.0, 0.0, 0.0, 1.0, 77.2, 45.15)">
    <use height="26.65" transform="matrix(0.9046, 0.4188, -0.4374, 0.3746, 27.75, -39.05)" width="36.4" xlink:href="#sprite0"/>
    <use height="26.65" transform="matrix(0.8, -0.506, 0.2665, 2.0109, 93.35, 9.15)" width="36.4" xlink:href="#sprite0"/>
    <use height="26.65" transform="matrix(0.9046, 0.4188, -1.5193, 0.5397, -28.15, 38.45)" width="36.4" xlink:href="#sprite0"/>
    <use height="26.65" transform="matrix(-0.074, -0.9356, 0.6261, 0.1801, 81.55, 93.95)" width="36.4" xlink:href="#sprite0"/>
    <use height="26.65" transform="matrix(0.8401, -0.6884, 0.1142, 0.5242, 9.8, 140.2)" width="36.4" xlink:href="#sprite0"/>
  </g>
  <defs>
    <g id="sprite0" transform="matrix(1.0, 0.0, 0.0, 1.0, 0.0, 0.0)">
      <use height="25.45" transform="matrix(1.0, 0.0, 0.0, 1.0, 0.2, 0.0)" width="36.2" xlink:href="#sprite1"/>
      <use height="25.45" transform="matrix(1.0, 0.0, 0.0, 1.0, 0.0, 1.2)" width="36.2" xlink:href="#sprite1"/>
    </g>
    <g id="sprite1" transform="matrix(1.0, 0.0, 0.0, 1.0, 0.0, 0.0)">
      <use height="25.45" transform="matrix(1.0, 0.0, 0.0, 1.0, 0.0, 0.0)" width="36.2" xlink:href="#shape0"/>
    </g>
    <g id="shape0" transform="matrix(1.0, 0.0, 0.0, 1.0, 0.0, 0.0)">
      <path d="M28.8 25.45 L14.35 14.3 0.0 10.2 18.0 0.0 36.2 6.7 32.05 16.0 34.95 17.8 28.8 25.45" fill="#d9d9d9" fill-opacity="0.5019608" fill-rule="evenodd" stroke="none"/>
    </g>
  </defs>
</svg>
