<?xml version="1.0" encoding="UTF-8" standalone="no"?>
<svg xmlns:xlink="http://www.w3.org/1999/xlink" height="208.8px" width="212.15px" xmlns="http://www.w3.org/2000/svg">
  <g transform="matrix(1.0, 0.0, 0.0, 1.0, 77.2, 45.15)">
    <use height="26.65" transform="matrix(0.9013, 0.4259, -0.4382, 0.366, 27.95, -39.5)" width="36.4" xlink:href="#sprite0"/>
    <use height="26.65" transform="matrix(0.8034, -0.5083, 0.2583, 2.0174, 93.95, 9.1)" width="36.4" xlink:href="#sprite0"/>
    <use height="26.65" transform="matrix(0.9013, 0.4259, -1.5311, 0.4981, -28.65, 39.05)" width="36.4" xlink:href="#sprite0"/>
    <use height="26.65" transform="matrix(-0.086, -0.934, 0.6125, 0.1759, 82.15, 94.3)" width="36.4" xlink:href="#sprite0"/>
    <use height="26.65" transform="matrix(0.8307, -0.6881, 0.1164, 0.522, 9.85, 141.05)" width="36.4" xlink:href="#sprite0"/>
  </g>
  <defs>
    <g id="sprite0" transform="matrix(1.0, 0.0, 0.0, 1.0, 0.0, 0.0)">
      <use height="25.45" transform="matrix(1.0, 0.0, 0.0, 1.0, 0.2, 0.0)" width="36.2" xlink:href="#sprite1"/>
      <use height="25.45" transform="matrix(1.0, 0.0, 0.0, 1.0, 0.0, 1.2)" width="36.2" xlink:href="#sprite1"/>
    </g>
    <g id="sprite1" transform="matrix(1.0, 0.0, 0.0, 1.0, 0.0, 0.0)">
      <use height="25.45" transform="matrix(1.0, 0.0, 0.0, 1.0, 0.0, 0.0)" width="36.2" xlink:href="#shape0"/>
    </g>
    <g id="shape0" transform="matrix(1.0, 0.0, 0.0, 1.0, 0.0, 0.0)">
      <path d="M28.8 25.45 L14.35 14.3 0.0 10.2 18.0 0.0 36.2 6.7 32.05 16.0 34.95 17.8 28.8 25.45" fill="#d9d9d9" fill-opacity="0.45882353" fill-rule="evenodd" stroke="none"/>
    </g>
  </defs>
</svg>
