<?xml version="1.0" encoding="UTF-8" standalone="no"?>
<svg xmlns:xlink="http://www.w3.org/1999/xlink" height="208.8px" width="212.15px" xmlns="http://www.w3.org/2000/svg">
  <g transform="matrix(1.0, 0.0, 0.0, 1.0, 77.2, 45.15)">
    <use height="26.65" transform="matrix(0.8975, 0.4342, -0.4382, 0.3502, 28.25, -40.5)" width="36.4" xlink:href="#sprite0"/>
    <use height="26.65" transform="matrix(0.8103, -0.5128, 0.2418, 2.0303, 95.05, 9.15)" width="36.4" xlink:href="#sprite0"/>
    <use height="26.65" transform="matrix(0.8974, 0.4342, -1.5541, 0.404, -29.7, 40.65)" width="36.4" xlink:href="#sprite0"/>
    <use height="26.65" transform="matrix(-0.1067, -0.9308, 0.5858, 0.1658, 83.1, 94.95)" width="36.4" xlink:href="#sprite0"/>
    <use height="26.65" transform="matrix(0.8073, -0.6925, 0.1224, 0.5171, 10.15, 142.75)" width="36.4" xlink:href="#sprite0"/>
  </g>
  <defs>
    <g id="sprite0" transform="matrix(1.0, 0.0, 0.0, 1.0, 0.0, 0.0)">
      <use height="25.45" transform="matrix(1.0, 0.0, 0.0, 1.0, 0.2, 0.0)" width="36.2" xlink:href="#sprite1"/>
      <use height="25.45" transform="matrix(1.0, 0.0, 0.0, 1.0, 0.0, 1.2)" width="36.2" xlink:href="#sprite1"/>
    </g>
    <g id="sprite1" transform="matrix(1.0, 0.0, 0.0, 1.0, 0.0, 0.0)">
      <use height="25.45" transform="matrix(1.0, 0.0, 0.0, 1.0, 0.0, 0.0)" width="36.2" xlink:href="#shape0"/>
    </g>
    <g id="shape0" transform="matrix(1.0, 0.0, 0.0, 1.0, 0.0, 0.0)">
      <path d="M28.8 25.45 L14.35 14.3 0.0 10.2 18.0 0.0 36.2 6.7 32.05 16.0 34.95 17.8 28.8 25.45" fill="#d9d9d9" fill-opacity="0.3764706" fill-rule="evenodd" stroke="none"/>
    </g>
  </defs>
</svg>
