<?xml version="1.0" encoding="UTF-8" standalone="no"?>
<svg xmlns:xlink="http://www.w3.org/1999/xlink" height="208.8px" width="212.15px" xmlns="http://www.w3.org/2000/svg">
  <g transform="matrix(1.0, 0.0, 0.0, 1.0, 77.2, 45.15)">
    <use height="26.65" transform="matrix(0.89, 0.4495, -0.4368, 0.3276, 28.65, -42.05)" width="36.4" xlink:href="#sprite0"/>
    <use height="26.65" transform="matrix(0.8204, -0.5197, 0.2166, 2.0495, 96.7, 9.15)" width="36.4" xlink:href="#sprite0"/>
    <use height="26.65" transform="matrix(0.89, 0.4495, -1.5759, 0.2717, -31.45, 42.75)" width="36.4" xlink:href="#sprite0"/>
    <use height="26.65" transform="matrix(-0.1391, -0.9249, 0.5454, 0.1519, 84.55, 95.9)" width="36.4" xlink:href="#sprite0"/>
    <use height="26.65" transform="matrix(0.7724, -0.698, 0.1321, 0.5094, 10.55, 145.35)" width="36.4" xlink:href="#sprite0"/>
  </g>
  <defs>
    <g id="sprite0" transform="matrix(1.0, 0.0, 0.0, 1.0, 0.0, 0.0)">
      <use height="25.45" transform="matrix(1.0, 0.0, 0.0, 1.0, 0.2, 0.0)" width="36.2" xlink:href="#sprite1"/>
      <use height="25.45" transform="matrix(1.0, 0.0, 0.0, 1.0, 0.0, 1.2)" width="36.2" xlink:href="#sprite1"/>
    </g>
    <g id="sprite1" transform="matrix(1.0, 0.0, 0.0, 1.0, 0.0, 0.0)">
      <use height="25.45" transform="matrix(1.0, 0.0, 0.0, 1.0, 0.0, 0.0)" width="36.2" xlink:href="#shape0"/>
    </g>
    <g id="shape0" transform="matrix(1.0, 0.0, 0.0, 1.0, 0.0, 0.0)">
      <path d="M28.8 25.45 L14.35 14.3 0.0 10.2 18.0 0.0 36.2 6.7 32.05 16.0 34.95 17.8 28.8 25.45" fill="#d9d9d9" fill-opacity="0.2509804" fill-rule="evenodd" stroke="none"/>
    </g>
  </defs>
</svg>
