<?xml version="1.0" encoding="UTF-8" standalone="no"?>
<svg xmlns:xlink="http://www.w3.org/1999/xlink" height="208.8px" width="212.15px" xmlns="http://www.w3.org/2000/svg">
  <g transform="matrix(1.0, 0.0, 0.0, 1.0, 77.2, 45.15)">
    <use height="26.65" transform="matrix(0.8859, 0.4576, -0.4347, 0.3137, 28.85, -43.05)" width="36.4" xlink:href="#sprite0"/>
    <use height="26.65" transform="matrix(0.8272, -0.5243, 0.1995, 2.0621, 97.8, 9.2)" width="36.4" xlink:href="#sprite0"/>
    <use height="26.65" transform="matrix(0.8859, 0.4576, -1.5845, 0.1812, -32.6, 44.15)" width="36.4" xlink:href="#sprite0"/>
    <use height="26.65" transform="matrix(-0.1626, -0.9201, 0.5181, 0.1439, 85.6, 96.5)" width="36.4" xlink:href="#sprite0"/>
    <use height="26.65" transform="matrix(0.7493, -0.701, 0.1379, 0.5043, 10.95, 147.1)" width="36.4" xlink:href="#sprite0"/>
  </g>
  <defs>
    <g id="sprite0" transform="matrix(1.0, 0.0, 0.0, 1.0, 0.0, 0.0)">
      <use height="25.45" transform="matrix(1.0, 0.0, 0.0, 1.0, 0.2, 0.0)" width="36.2" xlink:href="#sprite1"/>
      <use height="25.45" transform="matrix(1.0, 0.0, 0.0, 1.0, 0.0, 1.2)" width="36.2" xlink:href="#sprite1"/>
    </g>
    <g id="sprite1" transform="matrix(1.0, 0.0, 0.0, 1.0, 0.0, 0.0)">
      <use height="25.45" transform="matrix(1.0, 0.0, 0.0, 1.0, 0.0, 0.0)" width="36.2" xlink:href="#shape0"/>
    </g>
    <g id="shape0" transform="matrix(1.0, 0.0, 0.0, 1.0, 0.0, 0.0)">
      <path d="M28.8 25.45 L14.35 14.3 0.0 10.2 18.0 0.0 36.2 6.7 32.05 16.0 34.95 17.8 28.8 25.45" fill="#d9d9d9" fill-opacity="0.16862746" fill-rule="evenodd" stroke="none"/>
    </g>
  </defs>
</svg>
