<?xml version="1.0" encoding="UTF-8" standalone="no"?>
<svg xmlns:xlink="http://www.w3.org/1999/xlink" height="208.8px" width="212.15px" xmlns="http://www.w3.org/2000/svg">
  <g transform="matrix(1.0, 0.0, 0.0, 1.0, 77.2, 45.15)">
    <use height="26.65" transform="matrix(0.877, 0.4775, -0.4317, 0.2845, 29.5, -45.15)" width="36.4" xlink:href="#sprite0"/>
    <use height="26.65" transform="matrix(0.8402, -0.5372, 0.166, 2.0874, 99.95, 8.85)" width="36.4" xlink:href="#sprite0"/>
    <use height="26.65" transform="matrix(0.877, 0.4775, -1.5862, 0.0016, -34.95, 47.05)" width="36.4" xlink:href="#sprite0"/>
    <use height="26.65" transform="matrix(-0.2068, -0.9097, 0.4643, 0.1265, 87.6, 97.6)" width="36.4" xlink:href="#sprite0"/>
    <use height="26.65" transform="matrix(0.7069, -0.7041, 0.1496, 0.4944, 11.4, 150.5)" width="36.4" xlink:href="#sprite0"/>
  </g>
  <defs>
    <g id="sprite0" transform="matrix(1.0, 0.0, 0.0, 1.0, 0.0, 0.0)">
      <use height="25.45" transform="matrix(1.0, 0.0, 0.0, 1.0, 0.2, 0.0)" width="36.2" xlink:href="#sprite1"/>
      <use height="25.45" transform="matrix(1.0, 0.0, 0.0, 1.0, 0.0, 1.2)" width="36.2" xlink:href="#sprite1"/>
    </g>
    <g id="sprite1" transform="matrix(1.0, 0.0, 0.0, 1.0, 0.0, 0.0)">
      <use height="25.45" transform="matrix(1.0, 0.0, 0.0, 1.0, 0.0, 0.0)" width="36.2" xlink:href="#shape0"/>
    </g>
    <g id="shape0" transform="matrix(1.0, 0.0, 0.0, 1.0, 0.0, 0.0)">
      <path d="M28.8 25.45 L14.35 14.3 0.0 10.2 18.0 0.0 36.2 6.7 32.05 16.0 34.95 17.8 28.8 25.45" fill="#d9d9d9" fill-opacity="0.0" fill-rule="evenodd" stroke="none"/>
    </g>
  </defs>
</svg>
