<?xml version="1.0" encoding="UTF-8" standalone="no"?>
<svg xmlns:xlink="http://www.w3.org/1999/xlink" height="37.0px" width="78.85px" xmlns="http://www.w3.org/2000/svg">
  <g transform="matrix(1.0, 0.0, 0.0, 1.0, 39.4, 18.5)">
    <use height="37.0" transform="matrix(1.0, 0.0, 0.0, 1.0, -39.4, -18.5)" width="78.85" xlink:href="#shape0"/>
  </g>
  <defs>
    <g id="shape0" transform="matrix(1.0, 0.0, 0.0, 1.0, 39.4, 18.5)">
      <path d="M39.45 -10.0 L29.5 -18.5 39.45 -18.5 39.45 -10.0 M-28.05 -18.5 L39.45 18.35 39.45 18.5 -17.9 18.5 -39.4 6.8 -39.4 -18.5 -28.05 -18.5" fill="#ffffff" fill-opacity="0.5137255" fill-rule="evenodd" stroke="none"/>
      <path d="M29.5 -18.5 L39.45 -10.0 39.45 18.35 -28.05 -18.5 29.5 -18.5 M-17.9 18.5 L-39.4 18.5 -39.4 6.8 -17.9 18.5" fill="#999999" fill-opacity="0.5137255" fill-rule="evenodd" stroke="none"/>
    </g>
  </defs>
</svg>
