<?xml version="1.0" encoding="UTF-8" standalone="no"?>
<svg xmlns:xlink="http://www.w3.org/1999/xlink" height="4746.05px" width="4032.2px" xmlns="http://www.w3.org/2000/svg">
  <g transform="matrix(1.0, 0.0, 0.0, 1.0, 1909.25, 2139.9)">
    <use height="894.85" id="boxx2" transform="matrix(1.0, 0.0, 0.0, 1.0, -663.1, -363.1)" width="1209.1" xlink:href="#sprite0"/>
  </g>
  <defs>
    <g id="sprite0" transform="matrix(1.0, 0.0, 0.0, 1.0, 656.2, 363.65)">
      <use height="467.85" transform="matrix(1.0, 0.0, 0.0, 1.0, -414.0, -236.0)" width="829.7" xlink:href="#shape0"/>
      <use height="51.6" id="sp_3" transform="matrix(0.7947, -0.196, 0.196, 0.7947, -340.7685, 20.5043)" width="58.75" xlink:href="#sprite1"/>
      <use height="308.8" transform="matrix(1.0, 0.0, 0.0, 1.0, -414.0, -74.95)" width="831.7" xlink:href="#shape2"/>
      <use height="193.2" id="en_1" transform="matrix(0.9468, 0.0, 0.0, 0.9468, 171.3567, -20.7727)" width="163.95" xlink:href="#sprite2"/>
      <use height="193.2" id="en_2" transform="matrix(-0.9608, 0.0, 0.0, 0.9608, -308.5053, 5.9529)" width="163.95" xlink:href="#sprite4"/>
      <use height="49.0" id="sp_1" transform="matrix(-1.589, 0.0218, 0.0218, 1.589, 286.9274, -53.956)" width="46.1" xlink:href="#sprite5"/>
      <use height="49.0" id="sp_2" transform="matrix(-0.3681, 0.0051, 0.0051, 0.3681, 135.7989, -21.0408)" width="46.1" xlink:href="#sprite6"/>
      <use height="1041.55" id="vinnie_1" transform="matrix(0.8591, 0.0, 0.0, 0.8591, -656.2066, -363.6307)" width="1407.35" xlink:href="#sprite7"/>
      <use height="212.8" id="rk_1" transform="matrix(-0.682, 0.1, 0.1, 0.682, 226.6109, -67.8435)" width="826.55" xlink:href="#sprite11"/>
      <use height="167.15" transform="matrix(1.0, 0.0, 0.0, 1.0, 236.85, -32.25)" width="178.85" xlink:href="#shape13"/>
      <use height="33.3" id="mit_1" transform="matrix(1.0, 0.0, 0.0, 1.0, 206.8, -51.5)" width="66.0" xlink:href="#sprite12"/>
      <use height="33.3" id="mit_2" transform="matrix(0.36, 0.0, 0.0, 0.36, 110.75, -22.03)" width="66.0" xlink:href="#sprite12"/>
      <use height="290.55" transform="matrix(1.0, 0.0, 0.0, 1.0, -414.0, -56.55)" width="831.7" xlink:href="#shape15"/>
    </g>
    <g id="shape0" transform="matrix(1.0, 0.0, 0.0, 1.0, 414.0, 236.0)">
      <path d="M121.65 -60.4 Q130.65 -64.6 139.65 -59.8 L147.6 -55.65 Q151.25 -54.65 154.1 -54.9 157.3 -55.2 159.5 -57.1 L160.2 -57.15 160.15 -57.7 Q167.65 -65.6 176.3 -60.95 L183.3 -57.2 Q189.85 -53.8 197.1 -52.85 L199.8 -52.6 204.1 -52.35 Q210.05 -50.0 213.45 -52.1 L243.8 -53.7 Q254.6 -54.9 261.5 -51.55 277.2 -44.0 293.8 -42.65 L303.8 -41.8 307.7 -41.5 319.75 -40.55 Q329.3 -39.75 337.9 -43.65 345.8 -47.25 355.25 -44.5 364.9 -37.45 372.4 -33.35 376.7 -31.05 381.5 -29.45 L389.9 -26.8 Q395.7 -25.05 401.75 -24.3 L415.7 -22.75 415.7 -14.1 401.75 -14.95 389.7 -15.35 Q366.4 -15.25 343.85 -18.85 L331.7 -20.1 299.75 -21.8 291.85 -22.75 Q277.0 -25.3 257.75 -24.65 241.5 -24.05 221.7 -20.2 216.55 -18.1 205.7 -12.85 L185.55 -13.65 Q182.75 -15.05 179.65 -15.55 169.9 -17.1 159.9 -13.15 150.6 -14.15 135.75 -19.95 119.15 -27.45 94.6 -26.8 L92.1 -26.75 Q88.8 -28.05 84.05 -33.05 88.95 -35.2 93.25 -38.75 L105.25 -48.75 113.2 -54.85 Q117.9 -58.35 120.65 -59.85 L121.4 -59.6 121.65 -60.4 M-414.0 -43.45 L-402.15 -56.2 Q-397.3 -61.35 -386.15 -59.25 -382.6 -58.2 -379.1 -57.45 L-377.65 -57.15 -376.05 -56.9 -366.4 -55.8 Q-362.2 -55.55 -358.05 -55.75 -351.05 -56.05 -344.6 -54.2 L-340.65 -49.5 Q-333.55 -41.9 -322.05 -40.35 L-322.05 -40.3 Q-324.05 -38.05 -330.15 -34.35 -334.05 -33.05 -338.1 -32.35 -352.5 -29.8 -356.1 -18.05 -357.05 -15.05 -358.5 -12.3 -362.15 -5.35 -367.7 2.2 -372.1 8.2 -383.95 7.4 -394.3 6.65 -400.55 15.3 -406.65 20.7 -414.0 26.1 L-414.0 -43.45 M-169.3 -61.75 Q-162.25 -63.25 -157.65 -60.9 -152.1 -58.05 -146.25 -55.7 -137.9 -52.4 -130.35 -58.35 -127.55 -60.5 -122.15 -60.85 -112.3 -61.5 -103.55 -57.25 L-75.4 -56.0 -54.2 -55.15 Q-51.15 -55.05 -48.35 -53.65 -35.15 -46.15 -25.95 -42.6 L-24.4 -42.0 Q-16.6 -39.15 -8.25 -37.6 L-8.05 -37.55 -2.15 -36.05 Q5.85 -33.35 10.75 -29.05 L2.85 -20.65 Q-2.95 -14.85 -7.55 -11.3 -9.15 -10.05 -13.6 -7.15 L-17.1 -5.05 Q-20.5 -3.15 -23.95 -1.6 L-29.75 0.75 -38.45 5.45 Q-42.5 10.05 -48.55 6.7 -56.5 2.3 -66.85 -5.8 L-69.95 -8.3 -77.0 -13.05 Q-80.95 -17.65 -88.0 -22.15 -93.45 -29.55 -107.55 -28.95 -115.6 -33.75 -127.6 -33.2 -132.8 -30.25 -137.65 -28.25 -140.95 -26.9 -144.1 -26.0 -150.2 -24.2 -157.7 -19.25 -158.85 -15.8 -168.05 -15.7 -182.8 -13.9 -196.3 -21.45 -203.35 -23.8 -212.0 -29.15 L-213.9 -30.35 -224.3 -38.45 Q-233.65 -33.95 -244.4 -25.55 -263.3 -21.25 -287.8 -21.4 -303.05 -24.25 -313.95 -40.0 L-322.0 -40.35 Q-310.65 -49.85 -292.0 -48.8 L-264.05 -47.75 -253.9 -46.95 -242.05 -45.7 Q-233.0 -45.1 -224.3 -38.45 -218.4 -45.35 -208.05 -44.7 -201.55 -44.3 -200.4 -49.7 -189.05 -57.65 -178.2 -58.8 -173.35 -60.9 -169.3 -61.75 M178.0 -49.55 Q178.0 -47.2 178.35 -45.3 L178.65 -43.35 178.7 -42.5 Q176.5 -32.35 174.4 -30.25 L179.4 -26.65 180.8 -26.65 Q180.2 -32.0 184.45 -33.75 187.0 -34.8 193.75 -35.9 L193.75 -38.8 196.15 -38.9 202.35 -39.6 Q202.25 -40.75 203.3 -41.9 L205.1 -43.8 205.2 -43.9 Q202.9 -45.3 196.2 -46.3 L188.6 -47.6 187.3 -48.85 Q185.15 -50.8 180.7 -51.1 176.55 -51.4 175.8 -52.45 175.5 -51.55 176.0 -50.8 176.55 -49.95 178.0 -49.55 M283.25 -42.4 L280.35 -40.5 Q278.3 -39.1 278.3 -37.4 278.3 -35.7 284.6 -32.65 287.65 -31.15 291.85 -29.55 292.8 -29.1 293.95 -27.8 L295.75 -25.25 Q297.6 -22.35 300.75 -22.35 305.7 -22.35 310.05 -23.9 315.2 -25.8 315.45 -28.85 L311.9 -28.85 Q305.25 -27.6 299.7 -28.85 300.4 -28.85 300.4 -29.55 L302.55 -30.55 Q303.8 -31.15 304.7 -32.35 L299.9 -32.7 Q294.75 -33.4 291.15 -35.4 287.85 -37.3 283.25 -42.4 M-172.25 -54.5 Q-173.75 -54.2 -174.95 -52.9 -176.75 -51.05 -176.55 -48.85 L-177.05 -48.75 Q-185.0 -47.65 -185.8 -43.9 L-184.15 -43.5 -183.0 -43.1 Q-183.0 -41.8 -184.4 -38.8 L-184.4 -35.9 -180.85 -35.9 Q-180.15 -36.6 -178.05 -36.6 -178.8 -40.1 -174.95 -43.5 L-172.25 -46.3 Q-170.85 -48.25 -170.85 -49.9 -170.85 -50.75 -171.55 -52.25 -172.2 -53.65 -172.25 -54.5 M-46.65 -46.3 L-53.65 -46.7 -53.75 -46.55 -54.0 -45.95 -54.15 -44.95 Q-54.15 -44.2 -52.35 -42.0 L-50.55 -39.95 Q-50.55 -39.4 -53.15 -37.1 -55.55 -34.95 -54.85 -33.1 L-48.05 -29.05 Q-44.9 -26.6 -44.75 -24.1 L-44.75 -23.85 -40.15 -23.55 Q-37.1 -22.85 -35.5 -21.65 -37.3 -19.6 -37.85 -18.0 -38.4 -16.5 -38.4 -13.8 -38.4 -12.9 -38.0 -12.2 -37.6 -11.55 -37.6 -10.9 L-34.1 -10.9 Q-25.55 -29.1 -18.25 -25.25 L-17.9 -25.9 Q-17.55 -26.35 -17.55 -27.35 -17.55 -30.15 -25.95 -30.8 L-36.9 -30.95 -36.9 -33.8 -34.8 -35.9 -36.55 -36.95 -39.2 -38.45 Q-42.15 -40.15 -44.05 -40.3 -42.75 -45.15 -46.65 -46.3" fill="#cccccc" fill-rule="evenodd" stroke="none"/>
      <path d="M-75.4 -56.0 Q-73.75 -58.65 -72.85 -61.65 -69.1 -70.0 -66.65 -72.55 -62.15 -77.05 -60.25 -78.2 -57.0 -80.1 -54.5 -85.25 -51.15 -88.05 -49.85 -89.85 L-41.35 -101.45 Q-26.45 -105.1 -17.5 -99.0 -3.55 -98.65 2.4 -94.95 19.7 -90.35 28.65 -83.05 36.5 -79.4 39.6 -77.6 44.75 -74.55 51.85 -74.95 60.8 -74.05 65.65 -74.85 71.75 -76.0 73.6 -73.85 79.95 -66.65 88.5 -73.1 100.1 -74.25 105.2 -69.55 L114.15 -64.65 Q116.8 -63.05 120.6 -59.9 L120.65 -59.85 Q117.9 -58.35 113.2 -54.85 L105.25 -48.75 93.25 -38.75 Q88.95 -35.2 84.05 -33.05 76.15 -33.9 65.85 -36.3 52.4 -39.4 32.35 -36.95 29.3 -35.6 21.85 -35.05 19.4 -35.05 15.6 -32.6 L10.75 -29.05 Q5.85 -33.35 -2.15 -36.05 L-8.05 -37.55 -8.25 -37.6 Q-16.6 -39.15 -24.4 -42.0 L-25.95 -42.6 Q-35.15 -46.15 -48.35 -53.65 -51.15 -55.05 -54.2 -55.15 L-75.4 -56.0 M213.45 -52.1 L213.45 -52.15 Q220.5 -69.35 235.8 -75.9 243.3 -79.1 251.75 -79.65 262.45 -80.35 271.95 -74.35 276.15 -71.65 281.7 -71.35 L291.8 -70.7 Q297.2 -70.3 302.6 -70.45 L309.7 -70.85 325.7 -71.85 Q332.15 -71.65 338.05 -68.8 360.7 -61.8 381.7 -64.0 386.95 -64.55 392.0 -63.1 395.7 -62.05 399.7 -62.25 L415.7 -62.9 415.7 -22.75 401.75 -24.3 Q395.7 -25.05 389.9 -26.8 L381.5 -29.45 Q376.7 -31.05 372.4 -33.35 364.9 -37.45 355.25 -44.5 345.8 -47.25 337.9 -43.65 329.3 -39.75 319.75 -40.55 L307.7 -41.5 303.8 -41.8 293.8 -42.65 Q277.2 -44.0 261.5 -51.55 254.6 -54.9 243.8 -53.7 L213.45 -52.1 M-366.4 -55.8 Q-350.45 -61.1 -343.6 -65.3 -334.9 -70.6 -326.1 -65.95 -318.75 -62.1 -310.35 -60.5 -298.7 -54.0 -290.2 -58.4 -284.2 -61.5 -278.65 -65.0 L-272.55 -68.9 -262.25 -74.45 Q-254.0 -79.4 -246.0 -78.35 -234.85 -76.85 -228.15 -80.15 -218.95 -84.6 -212.9 -77.05 -209.1 -74.05 -207.5 -72.95 -200.05 -68.8 -194.05 -69.0 -187.4 -60.75 -178.2 -58.8 -189.05 -57.65 -200.4 -49.7 -201.55 -44.3 -208.05 -44.7 -218.4 -45.35 -224.3 -38.45 -233.0 -45.1 -242.05 -45.7 L-253.9 -46.95 -264.05 -47.75 -292.0 -48.8 Q-310.65 -49.85 -322.0 -40.35 L-322.05 -40.35 Q-333.55 -41.9 -340.65 -49.5 L-344.6 -54.2 Q-351.05 -56.05 -358.05 -55.75 -362.2 -55.55 -366.4 -55.8" fill="#dddddd" fill-rule="evenodd" stroke="none"/>
      <path d="M120.65 -59.85 L120.6 -59.9 Q116.8 -63.05 114.15 -64.65 L105.2 -69.55 Q100.1 -74.25 88.5 -73.1 79.95 -66.65 73.6 -73.85 71.75 -76.0 65.65 -74.85 60.8 -74.05 51.85 -74.95 44.75 -74.55 39.6 -77.6 36.5 -79.4 28.65 -83.05 19.7 -90.35 2.4 -94.95 -3.55 -98.65 -17.5 -99.0 -26.45 -105.1 -41.35 -101.45 L-49.85 -89.85 Q-51.15 -88.05 -54.5 -85.25 -57.0 -80.1 -60.25 -78.2 -62.15 -77.05 -66.65 -72.55 -69.1 -70.0 -72.85 -61.65 -73.75 -58.65 -75.4 -56.0 L-103.55 -57.25 Q-112.3 -61.5 -122.15 -60.85 -127.55 -60.5 -130.35 -58.35 -137.9 -52.4 -146.25 -55.7 -152.1 -58.05 -157.65 -60.9 -162.25 -63.25 -169.3 -61.75 -170.75 -62.4 -178.2 -58.8 -187.4 -60.75 -194.05 -69.0 -200.05 -68.8 -207.5 -72.95 -209.1 -74.05 -212.9 -77.05 -218.95 -84.6 -228.15 -80.15 -234.85 -76.85 -246.0 -78.35 -254.0 -79.4 -262.25 -74.45 L-272.55 -68.9 -278.65 -65.0 Q-284.2 -61.5 -290.2 -58.4 -298.7 -54.0 -310.35 -60.5 -318.75 -62.1 -326.1 -65.95 -334.9 -70.6 -343.6 -65.3 -350.45 -61.1 -366.4 -55.8 L-376.05 -56.9 -377.65 -57.15 -379.1 -57.45 Q-382.6 -58.2 -386.15 -59.25 -397.3 -61.35 -402.15 -56.2 L-414.0 -43.45 -414.0 -236.0 415.7 -236.0 415.7 -62.9 399.7 -62.25 Q395.7 -62.05 392.0 -63.1 386.95 -64.55 381.7 -64.0 360.7 -61.8 338.05 -68.8 332.15 -71.65 325.7 -71.85 L309.7 -70.85 302.6 -70.45 Q297.2 -70.3 291.8 -70.7 L281.7 -71.35 Q276.15 -71.65 271.95 -74.35 262.45 -80.35 251.75 -79.65 243.3 -79.1 235.8 -75.9 220.5 -69.35 213.45 -52.15 L213.45 -52.1 204.1 -52.35 203.9 -52.45 197.1 -52.85 Q189.85 -53.8 183.3 -57.2 L176.3 -60.95 Q167.65 -65.6 160.15 -57.7 L159.5 -57.1 Q156.75 -56.65 154.1 -54.9 L147.6 -55.65 139.65 -59.8 Q130.65 -64.6 121.65 -60.4 L120.65 -59.85" fill="#e6e6e6" fill-rule="evenodd" stroke="none"/>
      <path d="M15.6 -32.6 Q19.4 -35.05 21.85 -35.05 29.3 -35.6 32.35 -36.95 52.4 -39.4 65.85 -36.3 76.15 -33.9 84.05 -33.05 88.8 -28.05 92.1 -26.75 L94.6 -26.8 Q119.15 -27.45 135.75 -19.95 150.6 -14.15 159.9 -13.15 169.9 -17.1 179.65 -15.55 182.75 -15.05 185.55 -13.65 L205.7 -12.85 Q216.55 -18.1 221.7 -20.2 241.5 -24.05 257.75 -24.65 277.0 -25.3 291.85 -22.75 L299.75 -21.8 331.7 -20.1 343.85 -18.85 Q366.4 -15.25 389.7 -15.35 L401.75 -14.95 415.7 -14.1 415.7 231.85 -414.0 231.85 -414.0 26.1 Q-406.65 20.7 -400.55 15.3 -394.3 6.65 -383.95 7.4 -372.1 8.2 -367.7 2.2 -362.15 -5.35 -358.5 -12.3 -357.05 -15.05 -356.1 -18.05 -352.5 -29.8 -338.1 -32.35 -334.05 -33.05 -330.15 -34.35 -324.05 -38.05 -322.05 -40.3 L-322.0 -40.35 -313.95 -40.0 Q-303.05 -24.25 -287.8 -21.4 -263.3 -21.25 -244.4 -25.55 -233.65 -33.95 -224.3 -38.45 L-213.9 -30.35 -212.0 -29.15 Q-203.35 -23.8 -196.3 -21.45 -182.8 -13.9 -168.05 -15.7 -158.85 -15.8 -157.7 -19.25 -150.2 -24.2 -144.1 -26.0 -140.95 -26.9 -137.65 -28.25 -132.8 -30.25 -127.6 -33.2 -115.6 -33.75 -107.55 -28.95 -93.45 -29.55 -88.0 -22.15 -80.95 -17.65 -77.0 -13.05 L-69.95 -8.3 -66.85 -5.8 Q-56.5 2.3 -48.55 6.7 -42.5 10.05 -38.45 5.45 L-29.75 0.75 -23.95 -1.6 Q-20.5 -3.15 -17.1 -5.05 -13.95 -5.6 -9.9 -7.5 L-0.3 -13.1 3.95 -13.1 3.95 -11.6 -5.05 -5.0 Q-9.6 -1.6 -9.7 2.65 6.25 -0.95 13.25 -4.4 12.8 -4.85 12.65 -5.35 L12.55 -5.8 17.55 -5.8 Q17.55 -5.45 18.25 -5.1 L18.95 -4.4 21.8 -4.4 21.8 -4.85 Q21.5 -7.1 19.0 -12.1 16.15 -17.65 16.15 -18.4 L17.55 -20.25 19.7 -22.35 Q17.1 -26.9 16.9 -28.85 L16.85 -29.05 16.15 -31.0 15.6 -32.6 M66.25 -29.55 L66.25 -30.95 62.0 -30.65 Q59.1 -30.05 59.1 -28.5 59.1 -28.05 60.55 -26.7 62.0 -25.3 62.0 -23.85 L61.95 -19.4 Q61.4 -16.5 58.3 -13.8 L58.3 -5.1 60.5 -5.1 Q61.15 -5.75 63.5 -13.5 L63.95 -14.8 Q65.8 -20.15 68.0 -20.15 68.5 -20.15 70.55 -18.75 L70.75 -18.6 Q72.65 -17.2 72.65 -16.65 72.65 -15.85 71.75 -14.55 L70.55 -13.1 70.55 -10.2 77.75 -10.2 80.7 -11.15 83.4 -11.6 Q90.7 -11.6 95.9 -6.0 L99.8 -1.5 Q102.05 0.95 104.15 1.95 103.4 0.45 102.65 -5.7 102.1 -10.05 99.15 -11.6 92.0 -15.4 91.6 -15.7 86.7 -18.9 87.0 -21.65 83.8 -21.35 81.7 -21.65 76.6 -22.45 77.75 -26.65 75.0 -26.55 71.55 -28.1 68.1 -29.65 66.25 -29.55 M-312.7 -24.0 Q-314.05 -23.05 -315.65 -22.2 -319.05 -20.45 -321.25 -20.85 -317.35 -18.55 -315.4 -15.15 L-315.1 -14.65 Q-313.3 -11.15 -312.0 -4.4 L-311.6 -4.3 Q-311.2 -4.15 -311.2 -3.7 -310.05 -4.85 -309.7 -7.45 L-309.3 -11.9 Q-309.0 -14.3 -307.55 -15.15 -306.1 -16.05 -303.35 -15.2 L-303.25 -16.15 -302.65 -16.6 -308.85 -21.55 Q-310.75 -23.1 -312.7 -24.0 M-257.1 -8.7 L-258.15 -8.55 Q-266.85 -7.25 -268.95 -5.1 -267.45 -3.6 -262.0 -2.45 -257.8 -1.55 -256.1 -1.55 -253.1 -1.55 -247.9 -5.65 -245.75 -7.4 -243.65 -8.15 -241.75 -8.95 -239.9 -8.9 L-238.85 -8.8 -236.45 -3.0 Q-235.1 -0.1 -233.15 1.25 L-233.15 -1.6 Q-233.15 -3.25 -234.25 -6.9 L-235.15 -10.55 -235.35 -12.75 Q-235.35 -13.6 -234.6 -14.7 -233.85 -15.75 -233.85 -16.65 -233.85 -17.95 -234.35 -19.45 L-234.95 -21.3 Q-235.0 -22.15 -233.7 -23.0 -238.1 -22.65 -242.0 -20.45 -247.05 -17.65 -248.9 -13.1 -250.15 -9.95 -257.1 -8.7 M-105.25 -18.4 Q-107.4 -17.35 -108.55 -17.35 -109.4 -17.35 -111.25 -18.05 L-114.0 -18.75 Q-115.05 -18.75 -117.45 -17.45 -118.6 -16.85 -119.35 -16.15 L-117.8 -14.9 Q-114.55 -12.7 -112.85 -10.2 L-110.3 -5.8 Q-108.2 -2.4 -106.35 -1.55 -103.4 -0.15 -94.2 7.2 -86.05 13.65 -81.35 14.9 L-79.85 14.9 -79.85 9.95 Q-81.95 7.85 -86.95 3.7 L-93.5 -1.55 -93.5 -4.4 -82.05 -5.1 -82.05 -7.3 Q-87.65 -6.7 -91.0 -9.45 -94.75 -12.55 -92.7 -18.05 L-94.5 -18.15 -98.05 -18.75 -102.45 -19.45 Q-103.05 -19.45 -105.25 -18.4" fill="#c4c4c4" fill-rule="evenodd" stroke="none"/>
      <path d="M10.75 -29.05 L15.6 -32.6 16.15 -31.0 16.85 -29.05 16.9 -28.85 Q17.1 -26.9 19.7 -22.35 L17.55 -20.25 16.15 -18.4 Q16.15 -17.65 19.0 -12.1 21.5 -7.1 21.8 -4.85 L21.8 -4.4 18.95 -4.4 18.25 -5.1 Q17.55 -5.45 17.55 -5.8 L12.55 -5.8 12.65 -5.35 Q12.8 -4.85 13.25 -4.4 6.25 -0.95 -9.7 2.65 -9.6 -1.6 -5.05 -5.0 L3.95 -11.6 3.95 -13.1 -0.3 -13.1 -9.9 -7.5 Q-13.95 -5.6 -17.1 -5.05 L-13.6 -7.15 Q-9.15 -10.05 -7.55 -11.3 -2.95 -14.85 2.85 -20.65 L10.75 -29.05 M66.25 -29.55 Q68.1 -29.65 71.55 -28.1 75.0 -26.55 77.75 -26.65 76.6 -22.45 81.7 -21.65 83.8 -21.35 87.0 -21.65 86.7 -18.9 91.6 -15.7 92.0 -15.4 99.15 -11.6 102.1 -10.05 102.65 -5.7 103.4 0.45 104.15 1.95 102.05 0.95 99.8 -1.5 L95.9 -6.0 Q90.7 -11.6 83.4 -11.6 L80.7 -11.15 77.75 -10.2 70.55 -10.2 70.55 -13.1 71.75 -14.55 Q72.65 -15.85 72.65 -16.65 72.65 -17.2 70.75 -18.6 L70.55 -18.75 Q68.5 -20.15 68.0 -20.15 65.8 -20.15 63.95 -14.8 L63.5 -13.5 Q61.15 -5.75 60.5 -5.1 L58.3 -5.1 58.3 -13.8 Q61.4 -16.5 61.95 -19.4 L62.0 -23.85 Q62.0 -25.3 60.55 -26.7 59.1 -28.05 59.1 -28.5 59.1 -30.05 62.0 -30.65 L66.25 -30.95 66.25 -29.55 M-312.7 -24.0 Q-310.75 -23.1 -308.85 -21.55 L-302.65 -16.6 -303.25 -16.15 -303.35 -15.2 Q-306.1 -16.05 -307.55 -15.15 -309.0 -14.3 -309.3 -11.9 L-309.7 -7.45 Q-310.05 -4.85 -311.2 -3.7 -311.2 -4.15 -311.6 -4.3 L-312.0 -4.4 Q-313.3 -11.15 -315.1 -14.65 L-315.4 -15.15 Q-317.35 -18.55 -321.25 -20.85 -319.05 -20.45 -315.65 -22.2 -314.05 -23.05 -312.7 -24.0 M-257.1 -8.7 Q-250.15 -9.95 -248.9 -13.1 -247.05 -17.65 -242.0 -20.45 -238.1 -22.65 -233.7 -23.0 -235.0 -22.15 -234.95 -21.3 L-234.35 -19.45 Q-233.85 -17.95 -233.85 -16.65 -233.85 -15.75 -234.6 -14.7 -235.35 -13.6 -235.35 -12.75 L-235.15 -10.55 -234.25 -6.9 Q-233.15 -3.25 -233.15 -1.6 L-233.15 1.25 Q-235.1 -0.1 -236.45 -3.0 L-238.85 -8.8 -239.9 -8.9 Q-241.75 -8.95 -243.65 -8.15 -245.75 -7.4 -247.9 -5.65 -253.1 -1.55 -256.1 -1.55 -257.8 -1.55 -262.0 -2.45 -267.45 -3.6 -268.95 -5.1 -266.85 -7.25 -258.15 -8.55 L-257.1 -8.7 M-105.25 -18.4 Q-103.05 -19.45 -102.45 -19.45 L-98.05 -18.75 -94.5 -18.15 -92.7 -18.05 Q-94.75 -12.55 -91.0 -9.45 -87.65 -6.7 -82.05 -7.3 L-82.05 -5.1 -93.5 -4.4 -93.5 -1.55 -86.95 3.7 Q-81.95 7.85 -79.85 9.95 L-79.85 14.9 -81.35 14.9 Q-86.05 13.65 -94.2 7.2 -103.4 -0.15 -106.35 -1.55 -108.2 -2.4 -110.3 -5.8 L-112.85 -10.2 Q-114.55 -12.7 -117.8 -14.9 L-119.35 -16.15 Q-118.6 -16.85 -117.45 -17.45 -115.05 -18.75 -114.0 -18.75 L-111.25 -18.05 Q-109.4 -17.35 -108.55 -17.35 -107.4 -17.35 -105.25 -18.4" fill="#bbbbbb" fill-rule="evenodd" stroke="none"/>
      <path d="M178.0 -49.55 Q176.55 -49.95 176.0 -50.8 175.5 -51.55 175.8 -52.45 176.55 -51.4 180.7 -51.1 185.15 -50.8 187.3 -48.85 L188.6 -47.6 196.2 -46.3 Q202.9 -45.3 205.2 -43.9 L205.1 -43.8 203.3 -41.9 Q202.25 -40.75 202.35 -39.6 L196.15 -38.9 193.75 -38.8 193.75 -35.9 Q187.0 -34.8 184.45 -33.75 180.2 -32.0 180.8 -26.65 L179.4 -26.65 174.4 -30.25 Q176.5 -32.35 178.7 -42.5 L178.65 -43.35 178.35 -45.3 Q178.0 -47.2 178.0 -49.55 M283.25 -42.4 Q287.85 -37.3 291.15 -35.4 294.75 -33.4 299.9 -32.7 L304.7 -32.35 Q303.8 -31.15 302.55 -30.55 L300.4 -29.55 Q300.4 -28.85 299.7 -28.85 305.25 -27.6 311.9 -28.85 L315.45 -28.85 Q315.2 -25.8 310.05 -23.9 305.7 -22.35 300.75 -22.35 297.6 -22.35 295.75 -25.25 L293.95 -27.8 Q292.8 -29.1 291.85 -29.55 287.65 -31.15 284.6 -32.65 278.3 -35.7 278.3 -37.4 278.3 -39.1 280.35 -40.5 L283.25 -42.4 M-172.25 -54.5 Q-172.2 -53.65 -171.55 -52.25 -170.85 -50.75 -170.85 -49.9 -170.85 -48.25 -172.25 -46.3 L-174.95 -43.5 Q-178.8 -40.1 -178.05 -36.6 -180.15 -36.6 -180.85 -35.9 L-184.4 -35.9 -184.4 -38.8 Q-183.0 -41.8 -183.0 -43.1 L-184.15 -43.5 -185.8 -43.9 Q-185.0 -47.65 -177.05 -48.75 L-176.55 -48.85 Q-176.75 -51.05 -174.95 -52.9 -173.75 -54.2 -172.25 -54.5 M-46.65 -46.3 Q-42.75 -45.15 -44.05 -40.3 -42.15 -40.15 -39.2 -38.45 L-36.55 -36.95 -34.8 -35.9 -36.9 -33.8 -36.9 -30.95 -25.95 -30.8 Q-17.55 -30.15 -17.55 -27.35 -17.55 -26.35 -17.9 -25.9 L-18.25 -25.25 Q-25.55 -29.1 -34.1 -10.9 L-37.6 -10.9 Q-37.6 -11.55 -38.0 -12.2 -38.4 -12.9 -38.4 -13.8 -38.4 -16.5 -37.85 -18.0 -37.3 -19.6 -35.5 -21.65 -37.1 -22.85 -40.15 -23.55 L-44.75 -23.85 -44.75 -24.1 Q-44.9 -26.6 -48.05 -29.05 L-54.85 -33.1 Q-55.55 -34.95 -53.15 -37.1 -50.55 -39.4 -50.55 -39.95 L-52.35 -42.0 Q-54.15 -44.2 -54.15 -44.95 L-54.0 -45.95 -53.75 -46.55 -53.65 -46.7 -46.65 -46.3" fill="#bfbfbf" fill-rule="evenodd" stroke="none"/>
    </g>
    <g id="sprite1" transform="matrix(1.0, 0.0, 0.0, 1.0, 21.7, 19.0)">
      <use height="26.3" transform="matrix(1.0, 0.0, 0.0, 1.0, -16.2, -7.05)" width="34.95" xlink:href="#shape1"/>
    </g>
    <g id="shape1" transform="matrix(1.0, 0.0, 0.0, 1.0, 16.2, 7.05)">
      <path d="M-5.55 -4.85 L-4.1 -3.75 -2.8 -3.05 -1.8 -1.9 0.05 -0.45 -0.85 0.75 4.15 2.1 4.4 2.25 4.45 2.3 9.25 5.35 Q9.85 6.3 8.9 7.0 L8.5 7.15 7.8 7.0 3.1 3.85 -0.1 3.15 -0.15 3.1 -0.25 3.1 -0.2 3.15 Q3.05 5.1 5.9 7.3 L12.1 9.85 18.65 13.5 18.75 14.4 Q18.0 16.05 16.95 15.5 L10.75 11.4 8.15 10.25 10.2 12.45 16.1 17.1 Q16.95 17.9 15.55 19.15 L14.7 19.25 9.25 14.2 4.3 8.5 -0.05 5.0 1.35 6.85 5.5 10.55 Q5.7 10.85 5.3 11.5 4.85 12.05 4.2 11.9 L0.1 8.0 -3.2 3.75 -3.2 3.7 -4.35 5.15 -6.45 3.5 -7.5 2.9 -8.25 2.1 -9.95 0.75 -8.9 -0.55 Q-8.8 -1.6 -8.1 -2.4 -7.45 -3.25 -6.55 -3.55 L-5.55 -4.85" fill="#ffffff" fill-opacity="0.0" fill-rule="evenodd" stroke="none"/>
      <path d="M1.8 -6.4 L1.8 -5.9 -9.1 5.95 -8.7 6.05 -5.8 3.65 -7.5 5.75 -6.45 5.05 -5.9 4.1 -5.9 4.95 -7.95 6.5 -7.95 7.15 -9.3 8.55 -6.4 8.1 -8.9 8.7 -8.6 8.8 -9.35 9.9 -9.45 10.75 -10.95 11.7 -12.25 11.4 -11.6 12.2 -12.25 12.45 Q-13.8 14.45 -16.2 13.15 L-15.15 11.5 -15.7 11.2 -15.15 9.45 -13.0 6.0 -10.95 6.55 -2.15 -4.05 -2.2 -4.6 0.75 -7.05 1.8 -6.4 M-12.3 7.85 L-11.25 6.65 -13.0 6.15 -13.1 7.15 -12.85 7.1 -12.3 7.85" fill="#ffffff" fill-opacity="0.0" fill-rule="evenodd" stroke="none"/>
    </g>
    <g id="shape2" transform="matrix(1.0, 0.0, 0.0, 1.0, 414.0, 74.95)">
      <path d="M74.55 131.65 L70.3 131.4 Q71.4 130.9 72.35 130.05 L74.55 131.65" fill="#dddddd" fill-rule="evenodd" stroke="none"/>
      <path d="M409.6 19.85 L415.7 20.55 417.7 20.7 417.7 233.85 -414.0 233.85 -414.0 146.9 Q-400.0 145.9 -390.1 146.8 -380.2 152.55 -370.1 151.05 -363.1 146.85 -354.05 146.9 -340.55 146.15 -330.2 143.3 -320.95 140.75 -310.05 140.9 -303.05 139.9 -301.0 138.5 -290.6 136.35 -287.6 134.75 -268.85 132.7 -258.05 135.95 -252.4 137.65 -252.95 145.85 -252.0 155.55 -242.7 152.1 -239.5 147.45 -234.15 148.45 -224.95 150.1 -220.85 144.85 -210.1 143.9 -202.5 142.2 -201.1 136.1 -197.8 134.65 -177.9 135.3 -163.75 131.1 -156.85 137.8 -144.15 138.45 -136.2 138.8 -131.75 136.7 -116.8 134.6 -106.3 131.3 -99.2 126.85 -90.1 127.4 L-74.25 128.7 Q-61.25 131.55 -55.45 124.5 -46.15 121.9 -40.25 121.05 -28.7 108.65 -25.6 119.75 -20.15 124.9 -18.1 125.75 -8.95 129.65 -0.35 125.5 L4.25 125.1 Q26.45 108.95 54.65 114.7 L60.45 114.4 61.3 113.55 62.2 112.65 63.95 110.95 Q64.8 110.5 65.7 110.15 70.6 108.25 75.45 110.2 76.95 110.75 78.15 111.8 L80.15 112.45 Q82.65 113.4 84.8 115.0 L85.95 115.85 88.55 116.45 94.35 117.65 Q96.75 118.05 98.7 119.6 L100.1 120.0 107.05 122.4 Q109.0 122.95 110.85 123.7 L114.25 123.95 Q116.5 122.6 118.9 122.15 122.75 118.8 127.45 116.9 133.9 114.3 140.2 111.05 151.1 105.45 163.3 103.1 L164.25 102.3 Q165.35 101.5 166.55 100.9 L168.85 99.9 169.75 99.15 Q175.35 95.1 181.5 91.65 186.7 88.7 192.3 88.3 207.85 86.75 222.85 89.6 233.05 91.55 242.55 95.15 L244.75 96.45 245.25 97.35 246.35 99.95 246.55 100.8 246.65 101.45 252.05 103.0 Q265.55 102.1 264.5 110.0 274.9 114.35 281.55 116.5 285.8 123.85 295.85 122.7 L309.75 122.3 Q316.5 122.7 320.15 120.75 341.6 120.8 356.35 110.85 369.25 112.65 375.95 115.25 384.7 115.9 389.55 115.1 395.75 110.95 403.7 111.15 L415.7 111.45 415.7 33.75 414.4 33.75 414.85 32.7 414.9 30.1 Q414.9 27.85 414.35 25.8 L413.35 23.15 412.8 22.25 Q411.35 20.65 409.6 19.85 M-414.0 81.05 L-414.0 40.75 Q-413.55 38.95 -412.1 37.7 -408.25 37.0 -403.65 34.5 -398.3 31.6 -392.0 31.7 L-368.1 32.8 Q-354.85 35.1 -348.2 31.65 -338.6 26.6 -331.2 32.9 L-318.0 32.25 Q-305.45 30.5 -301.65 28.7 -285.65 29.25 -275.7 24.65 -264.15 22.95 -259.65 25.1 L-242.15 26.75 Q-229.85 30.8 -218.1 30.1 L-210.1 29.8 Q-206.35 29.65 -203.2 26.9 -189.85 25.15 -183.45 20.85 -166.45 19.3 -154.0 21.0 L-140.15 22.4 -126.1 23.85 Q-103.4 27.0 -80.15 26.9 L-61.95 33.3 Q-53.65 34.75 -49.6 36.7 -36.5 36.5 -29.8 32.5 -5.05 30.05 12.05 24.5 23.4 25.45 26.65 22.9 L51.9 21.8 Q57.8 19.9 59.8 19.9 76.8 19.9 93.75 19.0 103.7 13.75 108.45 16.95 119.85 16.35 124.8 22.0 127.8 18.9 127.3 23.05 135.1 13.4 144.1 17.25 150.9 20.15 157.9 21.15 L159.35 21.3 158.4 22.55 158.1 23.4 157.8 24.3 157.55 25.15 157.55 27.75 157.55 29.5 157.55 31.25 157.55 32.1 157.8 33.0 158.1 33.85 158.45 34.7 159.0 35.6 159.85 36.45 160.7 37.3 161.6 38.2 162.45 39.05 164.2 39.9 166.5 40.8 167.4 41.65 168.25 42.55 170.0 43.3 172.0 44.0 172.6 44.55 174.35 46.3 176.05 48.05 176.95 48.9 176.5 49.45 172.35 51.05 170.55 51.8 169.7 52.7 168.85 53.6 168.15 54.3 167.4 54.7 Q162.6 50.3 156.3 49.2 L143.85 48.4 Q128.9 49.2 116.1 55.3 111.0 55.3 106.3 56.85 105.35 57.15 104.5 57.6 L102.2 57.9 Q97.35 56.5 92.5 55.55 81.9 53.4 72.05 56.45 49.85 54.3 28.0 56.45 2.95 55.1 -19.55 64.55 -39.6 65.95 -59.5 65.7 -63.7 63.45 -68.3 64.7 -77.4 67.25 -86.55 67.35 -87.9 66.05 -89.75 65.1 -94.65 62.55 -100.8 64.45 L-102.75 64.25 Q-123.0 63.2 -142.35 69.95 -145.5 71.05 -148.6 70.6 -167.45 67.85 -181.5 78.2 L-181.8 78.35 -184.85 78.85 Q-186.75 81.25 -192.2 80.45 -196.1 79.9 -202.3 81.35 L-202.75 81.55 -212.75 82.25 Q-214.9 82.45 -216.55 83.4 L-221.75 83.15 Q-230.4 79.05 -246.1 78.75 -256.95 78.0 -263.55 73.2 -268.2 69.8 -273.95 70.65 L-285.95 72.4 -292.05 72.85 Q-310.95 72.7 -331.45 76.8 -336.2 79.95 -341.95 79.25 L-348.05 78.95 Q-367.95 79.15 -391.65 76.85 -400.2 79.9 -414.0 81.05 M171.15 18.25 Q177.05 14.95 183.75 14.95 189.45 15.25 192.4 16.45 182.0 18.2 171.15 18.25 M239.5 20.6 Q245.25 18.9 247.75 18.9 249.4 19.95 251.15 20.7 L239.5 20.6 M271.75 20.85 Q276.8 19.45 280.45 16.85 286.2 15.55 293.85 12.95 L307.65 11.05 Q314.7 5.6 322.2 8.85 342.6 8.1 351.8 13.8 359.9 18.85 367.7 18.9 380.65 13.35 390.0 17.2 L397.7 18.85 394.0 18.8 393.95 18.95 392.25 19.2 390.25 19.75 388.5 20.5 Q330.2 21.15 271.75 20.85 M74.55 131.65 L72.35 130.05 Q71.4 130.9 70.3 131.4 L74.55 131.65" fill="#b3b3b3" fill-rule="evenodd" stroke="none"/>
      <path d="M-414.0 146.9 L-414.0 81.05 Q-400.2 79.9 -391.65 76.85 -367.95 79.15 -348.05 78.95 L-341.95 79.25 Q-336.2 79.95 -331.45 76.8 -310.95 72.7 -292.05 72.85 L-285.95 72.4 -273.95 70.65 Q-268.2 69.8 -263.55 73.2 -256.95 78.0 -246.1 78.75 -230.4 79.05 -221.75 83.15 L-216.55 83.4 Q-214.9 82.45 -212.75 82.25 L-202.75 81.55 -202.3 81.35 Q-196.1 79.9 -192.2 80.45 -186.75 81.25 -184.85 78.85 L-181.8 78.35 -181.5 78.2 Q-167.45 67.85 -148.6 70.6 -145.5 71.05 -142.35 69.95 -123.0 63.2 -102.75 64.25 L-100.8 64.45 Q-94.65 62.55 -89.75 65.1 -87.9 66.05 -86.55 67.35 -77.4 67.25 -68.3 64.7 -63.7 63.45 -59.5 65.7 -39.6 65.95 -19.55 64.55 2.95 55.1 28.0 56.45 49.85 54.3 72.05 56.45 81.9 53.4 92.5 55.55 97.35 56.5 102.2 57.9 L104.5 57.6 Q105.35 57.15 106.3 56.85 111.0 55.3 116.1 55.3 128.9 49.2 143.85 48.4 L156.3 49.2 Q162.6 50.3 167.4 54.7 L168.15 54.3 168.85 53.6 169.7 52.7 170.55 51.8 172.35 51.05 176.5 49.45 176.95 48.9 176.05 48.05 174.35 46.3 172.6 44.55 172.0 44.0 170.0 43.3 168.25 42.55 167.4 41.65 166.5 40.8 164.2 39.9 162.45 39.05 161.6 38.2 160.7 37.3 159.85 36.45 159.0 35.6 158.45 34.7 158.1 33.85 157.8 33.0 157.55 32.1 157.55 31.25 157.55 29.5 157.55 27.75 157.55 25.15 157.8 24.3 158.1 23.4 158.4 22.55 159.35 21.3 Q162.2 18.0 166.8 18.15 L171.15 18.25 Q182.0 18.2 192.4 16.45 L202.75 14.15 210.25 14.7 Q213.55 15.1 215.75 17.6 L216.3 18.5 217.1 20.25 217.3 20.9 222.75 20.4 239.5 20.6 251.15 20.7 271.75 20.85 Q330.2 21.15 388.5 20.5 L390.25 19.75 392.25 19.2 393.95 18.95 394.0 18.8 397.7 18.85 405.6 18.95 Q407.75 19.0 409.6 19.85 411.35 20.65 412.8 22.25 L413.35 23.15 414.35 25.8 Q414.9 27.85 414.9 30.1 L414.85 32.7 414.4 33.75 415.7 33.75 415.7 111.45 403.7 111.15 Q395.75 110.95 389.55 115.1 384.7 115.9 375.95 115.25 369.25 112.65 356.35 110.85 341.6 120.8 320.15 120.75 316.5 122.7 309.75 122.3 L295.85 122.7 Q285.8 123.85 281.55 116.5 274.9 114.35 264.5 110.0 265.55 102.1 252.05 103.0 L246.65 101.45 246.55 100.8 246.35 99.95 245.25 97.35 244.75 96.45 242.55 95.15 Q233.05 91.55 222.85 89.6 207.85 86.75 192.3 88.3 186.7 88.7 181.5 91.65 175.35 95.1 169.75 99.15 L168.85 99.9 166.55 100.9 Q165.35 101.5 164.25 102.3 L163.3 103.1 Q151.1 105.45 140.2 111.05 133.9 114.3 127.45 116.9 122.75 118.8 118.9 122.15 116.5 122.6 114.25 123.95 L110.85 123.7 Q109.0 122.95 107.05 122.4 L100.1 120.0 98.7 119.6 Q96.75 118.05 94.35 117.65 L88.55 116.45 85.95 115.85 84.8 115.0 Q82.65 113.4 80.15 112.45 L78.15 111.8 Q76.95 110.75 75.45 110.2 70.6 108.25 65.7 110.15 64.8 110.5 63.95 110.95 L62.2 112.65 61.3 113.55 60.45 114.4 54.65 114.7 Q26.45 108.95 4.25 125.1 L-0.35 125.5 Q-8.95 129.65 -18.1 125.75 -20.15 124.9 -25.6 119.75 -28.7 108.65 -40.25 121.05 -46.15 121.9 -55.45 124.5 -61.25 131.55 -74.25 128.7 L-90.1 127.4 Q-99.2 126.85 -106.3 131.3 -116.8 134.6 -131.75 136.7 -136.2 138.8 -144.15 138.45 -156.85 137.8 -163.75 131.1 -177.9 135.3 -197.8 134.65 -201.1 136.1 -202.5 142.2 -210.1 143.9 -220.85 144.85 -224.95 150.1 -234.15 148.45 -239.5 147.45 -242.7 152.1 -252.0 155.55 -252.95 145.85 -252.4 137.65 -258.05 135.95 -268.85 132.7 -287.6 134.75 -290.6 136.35 -301.0 138.5 -303.05 139.9 -310.05 140.9 -320.95 140.75 -330.2 143.3 -340.55 146.15 -354.05 146.9 -363.1 146.85 -370.1 151.05 -380.2 152.55 -390.1 146.8 -400.0 145.9 -414.0 146.9" fill="#c4c4c4" fill-rule="evenodd" stroke="none"/>
      <path d="M166.95 0.3 L205.0 0.3 216.35 0.3 296.15 0.3 295.95 27.6 166.65 29.0 166.95 0.3 M135.2 33.75 L113.65 24.95 113.95 -10.7 135.6 -13.25 135.2 33.75 M415.7 -65.45 L355.3 -56.95 355.3 -25.7 344.8 -24.55 344.8 -64.35 415.7 -74.95 415.7 -65.45" fill="#666666" fill-rule="evenodd" stroke="none"/>
      <path d="M135.6 -13.25 L135.6 -17.1 153.15 -19.5 152.65 46.0 135.2 37.15 135.2 33.75 135.6 -13.25 M205.0 0.3 L205.7 -12.85 216.35 -17.85 216.35 0.3 205.0 0.3" fill="#777777" fill-rule="evenodd" stroke="none"/>
      <path d="M153.15 -19.5 L166.95 -20.15 166.95 0.3 166.65 29.0 166.55 46.0 152.65 46.0 153.15 -19.5 M216.35 -17.85 L296.15 -11.75 296.15 0.3 216.35 0.3 216.35 -17.85" fill="#848484" fill-rule="evenodd" stroke="none"/>
      <path d="M371.95 -51.55 L393.8 -54.05 415.7 -51.8 415.7 -32.25 371.95 -27.5 371.95 -51.55" fill="#0d0d0d" fill-rule="evenodd" stroke="none"/>
      <path d="M393.8 -54.05 L415.7 -56.55 415.7 -51.8 393.8 -54.05" fill="#262626" fill-rule="evenodd" stroke="none"/>
      <path d="M393.8 -54.05 L371.95 -51.55 355.3 -56.95 415.7 -65.45 415.7 -56.55 393.8 -54.05" fill="#373737" fill-rule="evenodd" stroke="none"/>
      <path d="M355.3 -56.95 L371.95 -51.55 371.95 -27.5 355.3 -25.7 355.3 -56.95" fill="#444444" fill-rule="evenodd" stroke="none"/>
    </g>
    <g id="sprite2" transform="matrix(1.0, 0.0, 0.0, 1.0, 97.0, 66.35)">
      <use height="35.5" transform="matrix(1.0, 0.0, 0.0, 1.0, -6.15, -17.05)" width="12.5" xlink:href="#sprite3"/>
    </g>
    <g id="sprite3" transform="matrix(1.0, 0.0, 0.0, 1.0, 6.25, 17.75)">
      <use height="39.5" transform="matrix(0.3165, 0.0, 0.0, 0.8987, -6.2499, -17.7499)" width="39.5" xlink:href="#shape3"/>
    </g>
    <g id="shape3" transform="matrix(1.0, 0.0, 0.0, 1.0, 19.75, 19.75)">
      <path d="M19.75 -19.75 L19.75 19.75 -19.75 19.75 -19.75 -19.75 19.75 -19.75" fill="#ffffff" fill-opacity="0.0" fill-rule="evenodd" stroke="none"/>
    </g>
    <g id="sprite4" transform="matrix(1.0, 0.0, 0.0, 1.0, 97.0, 66.35)">
      <use height="35.5" transform="matrix(1.0, 0.0, 0.0, 1.0, -6.15, -17.05)" width="12.5" xlink:href="#sprite3"/>
    </g>
    <g id="sprite5" transform="matrix(1.0, 0.0, 0.0, 1.0, 19.0, 19.0)">
      <clipPath id="clipPath0" transform="matrix(1.0, 0.0, 0.0, 1.0, 19.0, 19.0)">
        <use height="32.85" transform="matrix(1.0, 0.0, 0.0, 1.0, -16.65, -18.8)" width="26.7" xlink:href="#shape4"/>
      </clipPath>
      <g clip-path="url(#clipPath0)">
        <use height="24.1" transform="matrix(1.0, 0.0, 0.0, 1.0, -9.95, -4.85)" width="28.7" xlink:href="#shape5"/>
      </g>
    </g>
    <g id="shape4" transform="matrix(1.0, 0.0, 0.0, 1.0, 16.65, 18.8)">
      <path d="M10.05 -18.8 L9.6 14.05 -15.55 13.55 -16.65 -18.65 10.05 -18.8" fill="#000000" fill-rule="evenodd" stroke="none"/>
    </g>
    <g id="shape5" transform="matrix(1.0, 0.0, 0.0, 1.0, 9.95, 4.85)">
      <path d="M-5.55 -4.85 L-4.1 -3.75 -2.8 -3.05 -1.8 -1.9 0.05 -0.45 -0.85 0.75 4.15 2.1 4.4 2.25 4.45 2.3 9.25 5.35 Q9.85 6.3 8.9 7.0 L8.5 7.15 7.8 7.0 3.1 3.85 -0.1 3.15 -0.15 3.1 -0.25 3.1 -0.2 3.15 Q3.05 5.1 5.9 7.3 L12.1 9.85 18.65 13.5 18.75 14.4 Q18.0 16.05 16.95 15.5 L10.75 11.4 8.15 10.25 10.2 12.45 16.1 17.1 Q16.95 17.9 15.55 19.15 L14.7 19.25 9.25 14.2 4.3 8.5 -0.05 5.0 1.35 6.85 5.5 10.55 Q5.7 10.85 5.3 11.5 4.85 12.05 4.2 11.9 L0.1 8.0 -3.2 3.75 -3.2 3.7 -4.35 5.15 -6.45 3.5 -7.5 2.9 -8.25 2.1 -9.95 0.75 -8.9 -0.55 Q-8.8 -1.6 -8.1 -2.4 -7.45 -3.25 -6.55 -3.55 L-5.55 -4.85" fill="#ffffff" fill-opacity="0.0" fill-rule="evenodd" stroke="none"/>
    </g>
    <g id="sprite6" transform="matrix(1.0, 0.0, 0.0, 1.0, 19.0, 19.0)">
      <clipPath id="clipPath1" transform="matrix(1.0, 0.0, 0.0, 1.0, 19.0, 19.0)">
        <use height="22.8" transform="matrix(1.0, 0.0, 0.0, 1.0, -16.7, -18.8)" width="27.0" xlink:href="#shape6"/>
      </clipPath>
      <g clip-path="url(#clipPath1)">
        <use height="24.1" transform="matrix(1.0, 0.0, 0.0, 1.0, -9.95, -4.85)" width="28.7" xlink:href="#shape7"/>
      </g>
    </g>
    <g id="shape6" transform="matrix(1.0, 0.0, 0.0, 1.0, 16.7, 18.8)">
      <path d="M10.05 -18.8 L10.3 4.0 -16.7 2.25 -16.65 -18.65 10.05 -18.8" fill="#000000" fill-rule="evenodd" stroke="none"/>
    </g>
    <g id="shape7" transform="matrix(1.0, 0.0, 0.0, 1.0, 9.95, 4.85)">
      <path d="M-5.55 -4.85 L-4.1 -3.75 -2.8 -3.05 -1.8 -1.9 0.05 -0.45 -0.85 0.75 4.15 2.1 4.4 2.25 4.45 2.3 9.25 5.35 Q9.85 6.3 8.9 7.0 L8.5 7.15 7.8 7.0 3.1 3.85 -0.1 3.15 -0.15 3.1 -0.25 3.1 -0.2 3.15 Q3.05 5.1 5.9 7.3 L12.1 9.85 18.65 13.5 18.75 14.4 Q18.0 16.05 16.95 15.5 L10.75 11.4 8.15 10.25 10.2 12.45 16.1 17.1 Q16.95 17.9 15.55 19.15 L14.7 19.25 9.25 14.2 4.3 8.5 -0.05 5.0 1.35 6.85 5.5 10.55 Q5.7 10.85 5.3 11.5 4.85 12.05 4.2 11.9 L0.1 8.0 -3.2 3.75 -3.2 3.7 -4.35 5.15 -6.45 3.5 -7.5 2.9 -8.25 2.1 -9.95 0.75 -8.9 -0.55 Q-8.8 -1.6 -8.1 -2.4 -7.45 -3.25 -6.55 -3.55 L-5.55 -4.85" fill="#ffffff" fill-opacity="0.0" fill-rule="evenodd" stroke="none"/>
    </g>
    <g id="sprite7" transform="matrix(1.0, 0.0, 0.0, 1.0, 312.3, 507.7)">
      <use height="4355.6" id="boxx" transform="matrix(0.2316, 0.0, 0.0, 0.2316, -312.2985, -475.1021)" width="2834.2" xlink:href="#sprite8"/>
    </g>
    <g id="sprite8" transform="matrix(1.0, 0.0, 0.0, 1.0, 1335.45, 1959.7)">
      <use height="156.35" transform="matrix(1.0, 0.0, 0.0, 1.0, -28.35, 33.9)" width="68.0" xlink:href="#shape8"/>
      <use height="79.65" transform="matrix(1.0, 0.0, 0.0, 1.0, -20.55, 41.7)" width="60.4" xlink:href="#shape9"/>
      <use height="47.0" transform="matrix(0.9773, 0.0, 0.0, 0.9773, 0.3, 0.05)" width="47.0" xlink:href="#sprite9"/>
      <use height="12.6" transform="matrix(1.0, 0.0, 0.0, 1.0, 13.9, 20.55)" width="30.25" xlink:href="#sprite10"/>
    </g>
    <g id="shape8" transform="matrix(1.0, 0.0, 0.0, 1.0, 28.35, -33.9)">
      <path d="M18.0 41.25 L10.75 102.4 28.3 140.15 32.3 182.9" fill="none" stroke="#000000" stroke-linecap="round" stroke-linejoin="round" stroke-width="14.75"/>
      <path d="M10.75 102.4 L-3.0 139.5 -21.0 181.0" fill="none" stroke="#000000" stroke-linecap="round" stroke-linejoin="round" stroke-width="14.75"/>
    </g>
    <g id="shape9" transform="matrix(1.0, 0.0, 0.0, 1.0, 20.55, -41.7)">
      <path d="M17.1 49.05 L-6.8 80.75 -13.2 113.0" fill="none" stroke="#000000" stroke-linecap="round" stroke-linejoin="round" stroke-width="14.75"/>
      <path d="M17.1 49.05 L32.5 81.0 29.5 114.0" fill="none" stroke="#000000" stroke-linecap="round" stroke-linejoin="round" stroke-width="14.75"/>
    </g>
    <g id="sprite9" transform="matrix(1.0, 0.0, 0.0, 1.0, 0.0, 0.0)">
      <use height="47.0" transform="matrix(1.0, 0.0, 0.0, 1.0, 0.0, 0.0)" width="47.0" xlink:href="#shape10"/>
    </g>
    <g id="shape10" transform="matrix(1.0, 0.0, 0.0, 1.0, 0.0, 0.0)">
      <path d="M0.0 23.5 Q0.0 13.8 6.85 6.9 13.75 0.0 23.5 0.0 33.2 0.0 40.1 6.9 47.0 13.8 47.0 23.5 47.0 33.25 40.1 40.15 33.2 47.0 23.5 47.0 13.75 47.0 6.85 40.15 0.0 33.25 0.0 23.5" fill="#000000" fill-rule="evenodd" stroke="none"/>
    </g>
    <g id="sprite10" transform="matrix(1.0, 0.0, 0.0, 1.0, 15.1, 6.3)">
      <use height="12.6" transform="matrix(1.0, 0.0, 0.0, 1.0, -15.1, -6.3)" width="30.25" xlink:href="#shape11"/>
    </g>
    <g id="shape11" transform="matrix(1.0, 0.0, 0.0, 1.0, 15.1, 6.3)">
      <path d="M14.3 3.25 Q12.85 4.85 11.1 5.95 L6.0 6.2 3.4 5.0 Q3.7 2.3 2.75 0.95 1.1 1.45 -0.5 4.0 -6.4 6.2 -12.75 3.35 L-14.95 0.55 Q-15.35 -1.25 -14.55 -4.35 -12.9 -5.3 -11.3 -6.3 -4.85 -4.0 2.9 -0.7 L3.1 -0.95 3.0 -0.05 3.8 -1.0 3.4 -0.35 12.85 -1.5 14.85 -1.3 15.15 -0.05 14.3 3.05 14.3 3.25" fill="#ffffff" fill-rule="evenodd" stroke="none"/>
    </g>
    <g id="sprite11" transform="matrix(1.0, 0.0, 0.0, 1.0, 406.6, 109.8)">
      <use height="174.0" transform="matrix(1.0, 0.0, 0.0, 1.0, -399.0, -87.0)" width="797.95" xlink:href="#shape12"/>
    </g>
    <g id="shape12" transform="matrix(1.0, 0.0, 0.0, 1.0, 399.0, 87.0)">
      <path d="M398.95 -87.0 L-399.0 87.0" fill="none" stroke="#cc0022" stroke-linecap="round" stroke-linejoin="round" stroke-opacity="0.0" stroke-width="0.05"/>
    </g>
    <g id="shape13" transform="matrix(1.0, 0.0, 0.0, 1.0, -236.85, 32.25)">
      <path d="M272.15 96.45 L236.85 79.85 237.3 -20.15 272.65 -25.2 272.15 96.45" fill="#777777" fill-rule="evenodd" stroke="none"/>
      <path d="M272.65 -25.2 L288.75 -18.7 288.35 92.3 288.4 92.75 272.15 96.45 272.65 -25.2" fill="#848484" fill-rule="evenodd" stroke="none"/>
      <path d="M288.75 -18.7 L344.8 -24.35 344.8 -24.55 355.3 -25.7 355.3 -25.45 371.95 -27.15 415.7 -31.55 415.7 134.9 288.35 92.3 288.75 -18.7" fill="#666666" fill-rule="evenodd" stroke="none"/>
      <path d="M355.3 -25.7 L371.95 -27.5 371.95 -27.15 355.3 -25.45 355.3 -25.7" fill="#444444" fill-rule="evenodd" stroke="none"/>
      <path d="M371.95 -27.5 L415.7 -32.25 415.7 -31.55 371.95 -27.15 371.95 -27.5" fill="#0d0d0d" fill-rule="evenodd" stroke="none"/>
    </g>
    <g id="sprite12" transform="matrix(1.0, 0.0, 0.0, 1.0, 46.25, 15.5)">
      <use height="30.95" transform="matrix(1.0, 0.0, 0.0, 1.0, -18.7, -15.5)" width="37.45" xlink:href="#sprite13"/>
    </g>
    <g id="sprite13" transform="matrix(1.0, 0.0, 0.0, 1.0, 21.0, 11.35)">
      <use height="30.95" transform="matrix(1.0, 0.0, 0.0, 1.0, -21.0, -11.35)" width="37.45" xlink:href="#shape14"/>
    </g>
    <g id="shape14" transform="matrix(1.0, 0.0, 0.0, 1.0, 21.0, 11.35)">
      <path d="M-19.75 16.05 L-19.85 15.8 -19.75 15.95 -19.75 16.05 M-19.9 15.7 L-19.9 15.5 -19.85 15.4 -19.9 15.7 M-20.85 13.85 L-20.9 13.85 -20.9 13.8 -20.85 13.85 M-20.55 11.55 Q-20.8 11.3 -20.65 11.0 L-20.65 11.15 -20.55 11.4 -20.55 11.55 M-20.65 10.95 L-20.65 10.85 -20.6 10.85 -20.65 10.95 M-9.45 8.45 L-9.4 8.5 -9.5 8.45 -9.45 8.45 M-9.15 8.8 L-9.05 9.5 -9.0 9.5 -9.0 9.55 -9.1 9.55 -9.1 9.1 -9.15 8.8 M-5.6 8.25 L-5.65 8.2 -5.8 8.0 -5.6 8.25 M-9.75 8.6 L-9.7 8.55 -9.65 8.65 Q-9.6 8.65 -9.5 8.75 L-9.7 8.65 -10.85 8.9 -10.9 8.85 -9.75 8.6 M-9.2 9.55 L-9.2 9.6 -9.25 9.6 -9.2 9.55 M-8.2 10.4 L-8.1 10.55 -8.2 10.45 -8.2 10.4 M-5.0 10.65 L-5.05 10.55 -5.05 10.45 -5.0 10.65 M-9.85 9.8 L-9.8 9.9 -9.9 9.75 -9.85 9.8 M-12.9 11.25 L-12.85 11.45 -12.9 11.35 -12.9 11.25 M-3.95 7.6 L-3.9 7.6 -3.9 7.7 -3.95 7.6 M-2.65 11.7 L-2.5 10.85 -2.5 11.2 -2.65 11.7 M-18.85 10.3 L-18.65 10.4 -18.55 10.55 -18.65 10.45 -18.85 10.3 M-18.55 10.65 L-18.5 10.8 -18.5 10.85 -18.55 10.7 -18.55 10.65 M-20.05 11.25 L-20.0 11.1 -20.0 11.15 -20.05 11.25 M-20.1 10.85 L-20.15 10.8 Q-20.2 10.7 -20.3 10.7 -20.15 10.65 -20.1 10.85 M-17.1 9.65 L-17.05 9.75 -17.15 9.75 -17.1 9.65 M-13.6 15.3 L-13.55 15.3 -13.6 15.35 -13.75 15.5 -13.6 15.3 M-17.75 15.2 L-17.7 15.35 -17.7 15.4 -17.75 15.25 -17.75 15.2 M-19.25 15.55 L-19.2 15.7 -19.25 15.8 -19.25 15.65 -19.25 15.55 M-3.2 12.9 L-3.05 12.65 -2.0 12.45 -2.95 12.65 -3.1 12.8 -3.2 12.9 M-20.65 13.05 L-20.45 13.2 -20.5 13.2 -20.65 13.05 M-20.4 13.45 L-20.35 13.55 -20.4 13.6 -20.4 13.45" fill="#191413" fill-rule="evenodd" stroke="none"/>
      <path d="M-16.65 16.3 L-16.75 16.3 Q-16.95 16.45 -17.4 16.6 L-18.4 16.45 -19.05 16.2 -19.4 16.3 -19.6 16.2 -19.1 16.2 -18.25 15.95 -18.25 15.7 -18.1 15.85 -17.6 15.85 -16.75 15.6 -16.75 15.35 -16.7 14.9 Q-16.7 14.45 -17.1 14.4 L-18.25 14.75 -18.3 14.9 -18.65 14.8 -19.75 15.1 -19.85 15.25 -19.85 15.35 -19.8 15.15 -19.75 15.0 -19.95 14.55 -20.05 14.1 -20.6 14.15 -20.85 14.0 -20.75 14.0 -20.3 14.05 -19.45 13.85 -19.4 13.6 -19.3 13.15 Q-19.3 12.7 -19.7 12.65 L-20.25 12.75 -20.35 12.2 -20.3 11.65 -20.4 11.6 -19.95 11.65 -19.05 11.5 -19.05 11.25 -19.0 11.15 -18.9 11.25 -18.7 11.3 -18.4 11.3 -17.55 11.05 -17.55 10.8 -17.45 10.35 Q-17.5 9.9 -17.9 9.9 L-19.0 10.15 -19.1 10.35 -19.35 10.25 -19.9 10.4 Q-19.45 9.5 -18.65 9.35 L-18.25 9.35 -17.7 9.5 -17.15 10.05 -16.4 11.15 Q-15.5 13.1 -16.3 15.9 -16.3 16.1 -16.65 16.3 M-6.9 7.6 L-6.25 7.55 -5.95 7.6 -5.3 7.85 -5.1 8.0 -4.7 8.4 Q-3.95 9.2 -3.8 10.65 -3.75 11.75 -4.0 12.5 L-4.55 13.3 -4.7 13.45 -5.15 13.75 -5.9 13.85 -6.35 13.65 -6.75 13.45 -6.9 13.5 -7.65 13.65 -6.75 13.45 -4.9 13.05 -4.7 12.75 Q-4.3 12.25 -4.7 11.95 L-5.1 11.8 -5.3 11.8 -9.35 12.75 -9.45 13.1 -9.35 12.1 -9.3 12.05 -9.3 12.1 -9.35 12.45 -6.9 11.75 -6.55 11.65 -6.55 11.5 -7.75 11.8 -6.9 11.55 -6.5 11.45 -5.1 11.0 -4.7 10.9 -4.7 10.95 -4.6 10.95 -4.45 10.85 -4.15 11.0 -4.05 10.4 Q-4.05 9.75 -4.65 9.6 L-4.75 9.75 -5.0 9.75 -5.0 9.85 -5.1 9.8 -5.35 9.9 -5.3 9.95 -5.4 9.9 -5.65 9.95 -5.65 9.9 -6.0 9.5 -5.95 9.4 -6.0 9.25 -6.05 9.2 -6.2 9.2 -6.3 9.05 -6.2 9.0 -5.8 9.05 -5.8 8.95 -5.75 8.95 -5.75 9.05 -5.6 9.05 -5.6 8.95 -5.55 8.95 -5.1 8.9 Q-5.05 8.4 -5.4 8.1 L-5.65 8.0 -5.8 7.9 -6.05 7.95 -6.1 7.95 -6.2 7.95 -6.3 8.1 -6.4 8.1 -6.5 8.1 -6.5 8.15 Q-6.65 8.0 -6.9 8.0 L-9.05 8.4 -7.65 8.1 -7.45 8.0 -7.05 7.6 -6.9 7.6 M-1.0 8.25 L-0.85 8.55 -2.9 8.85 -2.95 8.65 -1.0 8.25 M-0.6 10.1 L-0.6 10.15 -2.5 10.6 -2.5 10.3 -2.45 10.45 -0.6 10.1 M-5.0 13.75 L-5.15 13.75 -5.0 13.7 -5.0 13.75 M-12.7 12.65 L-10.0 12.05 -9.9 11.45 Q-9.9 10.75 -10.5 10.7 L-11.5 11.0 Q-11.55 10.85 -11.8 10.75 L-12.1 10.65 -13.05 10.85 -13.35 10.2 -11.05 9.75 -11.15 9.25 Q-11.25 8.8 -11.7 8.85 L-13.55 9.3 Q-12.9 8.2 -11.8 8.4 L-11.55 8.5 -10.85 9.1 -10.0 10.45 Q-8.95 12.75 -10.8 15.0 L-10.5 14.9 -11.0 15.1 -12.2 15.05 -12.5 14.85 -12.55 14.8 -13.2 14.85 -13.15 14.75 -10.7 14.15 -10.5 14.1 -10.3 13.95 -10.3 13.75 -10.3 13.45 Q-10.45 12.9 -10.85 12.95 L-12.75 13.4 -12.75 13.0 -12.7 12.65 M-17.75 12.25 Q-17.6 12.25 -17.55 12.4 L-17.6 12.35 Q-17.7 12.25 -17.75 12.25 M-17.5 12.65 L-17.45 12.75 -17.5 12.8 -17.5 12.65 M-17.6 13.05 L-16.5 12.8 -16.4 12.35 Q-16.4 11.9 -16.8 11.8 L-17.9 12.1 -17.95 12.2 -18.15 12.0 -18.55 12.05 -18.7 12.8 Q-18.65 13.45 -18.4 13.6 L-18.05 13.7 -17.65 13.3 -17.3 13.3 -16.45 13.05 -16.4 12.8 -17.7 13.2 -17.95 13.1 -17.95 13.15 -18.0 13.05 -18.1 12.5 -18.05 12.45 -18.1 12.7 -18.05 12.9 -18.0 13.0 -17.95 13.05 -17.85 13.1 -17.75 13.1 -17.6 13.05 M-14.8 10.45 L-14.75 10.35 -14.7 10.3 -14.65 10.05 -14.65 9.75 -15.1 9.35 -15.35 9.35 -15.65 9.3 -17.1 9.65 -16.85 9.55 Q-16.3 8.8 -15.55 8.8 L-14.7 9.15 -14.25 9.65 -13.45 11.0 Q-12.5 13.3 -13.6 15.3 L-13.85 15.6 -14.35 15.9 -15.45 15.9 -16.0 15.7 -15.9 15.45 -15.95 15.65 -14.35 15.25 -14.25 15.25 -14.15 15.2 -13.75 14.6 Q-13.7 14.2 -14.2 13.9 L-14.55 13.75 -14.7 13.75 -15.55 13.9 -15.55 13.6 -15.5 13.2 -13.6 12.75 -13.45 12.5 -13.45 11.95 -13.95 11.55 -14.4 11.4 -14.6 11.0 -14.65 10.85 -14.7 10.75 -14.8 10.45" fill="#151515" fill-rule="evenodd" stroke="none"/>
      <path d="M-19.9 15.5 L-19.85 15.35 -19.85 15.25 -19.75 15.1 -18.65 14.8 -18.3 14.9 -18.25 14.75 -17.1 14.4 Q-16.7 14.45 -16.7 14.9 L-16.75 15.35 -17.85 15.65 -17.7 15.4 -17.7 15.35 -17.75 15.2 -17.8 15.1 -17.85 15.05 -17.85 15.0 -17.9 15.0 -18.0 14.9 -18.1 14.9 -18.25 15.0 -18.35 15.1 -18.4 15.35 -18.25 15.6 -18.25 15.65 -18.25 15.7 -19.35 16.05 -19.35 16.0 -19.25 15.8 -19.2 15.7 -19.25 15.55 -19.35 15.45 -19.35 15.35 -19.6 15.25 -19.85 15.4 -19.9 15.5 M-20.95 13.3 L-21.0 13.3 -20.95 13.05 -20.8 12.9 -20.5 12.85 -20.25 12.75 -19.7 12.65 Q-19.3 12.7 -19.3 13.15 L-19.4 13.6 -20.5 13.85 -20.45 13.8 -20.4 13.6 -20.35 13.55 -20.4 13.45 -20.45 13.25 -20.45 13.2 -20.65 13.05 -20.7 13.05 -20.95 13.25 -20.95 13.3 M-20.65 10.85 L-20.7 10.95 -20.6 10.7 -20.5 10.5 -20.4 10.5 -19.9 10.4 -19.35 10.25 -19.1 10.35 -19.0 10.15 -17.9 9.9 Q-17.5 9.9 -17.45 10.35 L-17.55 10.8 -18.65 11.15 -18.65 11.05 -18.5 10.85 -18.5 10.8 -18.55 10.65 -18.55 10.55 -18.65 10.4 -18.85 10.3 -18.9 10.35 -19.05 10.45 -19.1 10.5 -19.2 10.8 -19.05 11.1 -19.0 11.15 -19.05 11.25 -20.15 11.5 -20.05 11.25 -20.0 11.15 -20.0 11.1 -20.0 11.05 -20.1 10.85 Q-20.15 10.65 -20.3 10.7 L-20.4 10.7 Q-20.5 10.7 -20.6 10.85 L-20.65 10.85 M-0.75 9.05 L-0.7 9.0 -0.65 9.2 -0.6 10.05 -0.6 10.1 -2.45 10.45 -2.5 10.3 -2.65 9.35 -0.75 9.05 M-17.75 12.25 L-17.85 12.25 -18.1 12.45 -18.05 12.45 -18.1 12.5 -18.05 12.25 -17.95 12.2 -17.9 12.1 -16.8 11.8 Q-16.4 11.9 -16.4 12.35 L-16.5 12.8 -17.6 13.05 -17.55 13.0 -17.5 12.8 -17.45 12.75 -17.5 12.65 -17.55 12.45 -17.55 12.4 Q-17.6 12.25 -17.75 12.25" fill="#4d4d4d" fill-rule="evenodd" stroke="none"/>
      <path d="M-19.6 16.2 L-19.75 16.05 -19.75 15.95 -19.7 16.0 -19.6 16.05 -19.5 16.05 -19.35 16.05 -18.25 15.7 -18.25 15.65 -18.05 15.7 -17.95 15.7 -17.85 15.65 -16.75 15.35 -16.75 15.6 -17.6 15.85 -18.1 15.85 -18.25 15.7 -18.25 15.95 -19.1 16.2 -19.6 16.2 M-20.85 14.0 L-20.85 13.85 -20.7 13.9 -20.65 13.9 -20.5 13.85 -19.4 13.6 -19.45 13.85 -20.3 14.05 -20.75 14.0 -20.85 14.0 M-20.4 11.6 L-20.45 11.6 -20.55 11.55 -20.55 11.4 -20.45 11.5 -20.15 11.5 -19.05 11.25 -19.05 11.5 -19.95 11.65 -20.4 11.6 M-18.65 11.15 L-17.55 10.8 -17.55 11.05 -18.4 11.3 -18.7 11.3 -18.9 11.25 -19.0 11.15 -18.85 11.15 -18.65 11.15 M-17.65 13.3 L-17.7 13.3 -17.8 13.3 -17.95 13.2 -17.95 13.15 -17.95 13.1 -17.7 13.2 -16.4 12.8 -16.45 13.05 -17.3 13.3 -17.65 13.3" fill="#111111" fill-rule="evenodd" stroke="none"/>
      <path d="M-19.85 15.8 L-19.9 15.7 -19.85 15.4 -19.6 15.25 -19.35 15.35 -19.35 15.45 -19.25 15.55 -19.25 15.65 -19.25 15.8 -19.35 16.0 -19.35 16.05 -19.5 16.05 -19.6 16.05 -19.7 16.0 -19.75 15.95 -19.85 15.8 M-20.9 13.8 L-20.95 13.75 -21.0 13.5 -20.95 13.3 -20.95 13.25 -20.7 13.05 -20.65 13.05 -20.5 13.2 -20.45 13.2 -20.45 13.25 -20.4 13.45 -20.4 13.6 -20.45 13.8 -20.5 13.85 -20.65 13.9 -20.7 13.9 -20.85 13.85 -20.9 13.8 M-20.65 11.0 L-20.65 10.95 -20.6 10.85 Q-20.5 10.7 -20.4 10.7 L-20.3 10.7 Q-20.2 10.7 -20.15 10.8 L-20.1 10.85 -20.0 11.05 -20.0 11.1 -20.05 11.25 -20.15 11.5 -20.45 11.5 -20.55 11.4 -20.65 11.15 -20.65 11.0 M-19.0 11.15 L-19.05 11.1 -19.2 10.8 -19.1 10.5 -19.05 10.45 -18.9 10.35 -18.85 10.3 -18.65 10.45 -18.55 10.55 -18.55 10.65 -18.55 10.7 -18.5 10.85 -18.65 11.05 -18.65 11.15 -18.85 11.15 -19.0 11.15 M-18.05 12.45 L-18.1 12.45 -17.85 12.25 -17.75 12.25 Q-17.7 12.25 -17.6 12.35 L-17.55 12.4 -17.55 12.45 -17.5 12.65 -17.5 12.8 -17.55 13.0 -17.6 13.05 -17.75 13.1 -17.85 13.1 -17.95 13.05 -18.0 13.0 -18.05 12.9 -18.1 12.7 -18.05 12.45 M-17.95 12.2 L-18.05 12.25 -18.1 12.5 -18.0 13.05 -17.95 13.15 -17.95 13.2 -17.8 13.3 -17.7 13.3 -17.65 13.3 -18.05 13.7 -18.4 13.6 Q-18.65 13.45 -18.7 12.8 L-18.55 12.05 -18.15 12.0 -17.95 12.2 M-15.85 11.4 L-16.05 11.05 -16.05 11.0 -15.95 11.0 -15.9 11.15 -15.8 11.25 -15.65 11.3 -15.65 11.35 -15.65 11.45 -15.8 11.45 -15.85 11.4 M-14.7 11.15 L-14.8 11.25 -14.95 11.25 -15.0 11.2 -15.1 11.15 -15.15 11.0 -15.25 10.9 -15.2 10.85 -15.1 10.8 -15.05 10.95 -14.9 11.05 -14.7 11.15 M-17.7 15.4 L-17.85 15.65 -17.95 15.7 -18.05 15.7 -18.25 15.65 -18.25 15.6 -18.4 15.35 -18.35 15.1 -18.25 15.0 -18.1 14.9 -18.0 14.9 -17.9 15.0 -17.85 15.0 -17.85 15.05 -17.8 15.1 -17.75 15.2 -17.75 15.25 -17.7 15.4" fill="#040404" fill-rule="evenodd" stroke="none"/>
      <path d="M2.15 2.25 L2.25 -10.4 2.3 -10.4 3.85 -10.75 9.2 -11.35 9.25 -11.3 Q11.3 -8.25 15.0 -3.35 L15.0 -3.3 15.0 2.15 14.95 6.15 15.0 8.25 15.0 8.45 15.0 8.5 14.45 9.25 13.15 11.25 11.75 13.45 10.9 14.95 10.85 15.1 10.75 15.2 10.6 15.25 2.2 17.15 2.05 17.15 2.1 16.2 2.1 15.35 2.15 2.25 M-14.6 19.2 L-14.85 19.25 -14.95 19.2 -15.0 19.05 -15.1 18.85 -15.8 17.75 -16.65 16.3 Q-16.3 16.1 -16.3 15.9 -15.5 13.1 -16.4 11.15 L-17.15 10.05 -17.7 9.5 -18.25 9.35 -18.65 9.35 -18.85 2.3 Q-15.3 -4.05 -13.4 -7.9 -11.25 -8.25 -8.4 -9.25 L-6.9 -9.5 -6.9 3.85 -6.9 7.6 -7.05 7.6 -7.45 8.0 -7.65 8.1 -9.05 8.4 -9.45 8.45 -9.5 8.45 -9.55 8.5 -9.75 8.55 -9.75 8.6 -10.9 8.85 -10.85 8.9 -9.9 9.75 -9.8 9.9 -9.7 10.15 -9.55 10.5 -9.5 10.55 Q-9.35 10.7 -9.35 11.35 L-9.35 11.45 -9.3 12.0 -9.3 12.05 -9.35 12.1 -9.45 13.1 -9.75 14.05 -7.65 13.65 -6.9 13.5 -6.75 16.65 -6.75 17.9 -6.75 18.0 -7.05 18.05 -14.6 19.2 M-6.25 7.55 L-6.2 7.55 -6.15 7.55 -6.0 7.5 -4.7 7.3 -4.45 7.35 -4.35 7.4 -4.3 7.45 -3.95 7.6 -3.9 7.7 -3.85 7.7 -3.5 8.0 -3.0 8.65 -2.95 8.65 -2.9 8.85 -2.75 9.2 -2.65 9.35 -2.5 10.3 -2.5 10.6 -2.5 10.85 -2.65 11.7 -2.8 11.95 -3.0 12.55 -3.05 12.65 -3.2 12.9 -3.25 13.0 -3.5 13.35 -3.6 13.35 -4.05 13.55 -4.15 13.6 -4.3 13.6 -5.0 13.75 -5.0 13.7 -5.15 13.75 -4.7 13.45 -4.55 13.3 -4.0 12.5 Q-3.75 11.75 -3.8 10.65 -3.95 9.2 -4.7 8.4 L-5.1 8.0 -5.3 7.85 -5.95 7.6 -6.25 7.55 M-12.7 12.65 L-12.75 13.0 -12.75 13.4 -12.8 13.5 -13.05 14.35 -13.05 14.55 -13.2 14.75 -13.15 14.75 -13.2 14.85 -12.55 14.8 -12.5 14.85 -12.2 15.05 -11.0 15.1 -10.5 14.9 -10.8 15.0 Q-8.95 12.75 -10.0 10.45 L-10.85 9.1 -11.55 8.5 -11.8 8.4 Q-12.9 8.2 -13.55 9.3 L-14.05 9.35 -13.75 9.75 -13.45 10.25 -13.35 10.2 -13.05 10.85 -12.95 11.05 -12.9 11.0 -12.85 11.0 -12.85 11.1 -12.8 11.15 -12.75 11.2 -12.8 11.2 -12.85 11.25 -12.9 11.25 -12.9 11.35 -12.85 11.45 -12.8 11.85 -12.75 12.65 -12.7 12.65 M-14.8 10.45 L-15.05 10.45 -15.1 10.45 -15.1 10.5 -15.85 10.6 -15.9 10.6 -15.9 10.65 -16.2 10.65 -16.25 10.65 -16.05 11.0 -16.05 11.05 -15.85 11.4 -15.75 11.8 -15.7 11.95 -15.55 13.05 -15.55 13.2 -15.5 13.2 -15.55 13.6 -15.55 13.9 Q-15.65 14.75 -15.9 15.45 L-16.0 15.7 -15.45 15.9 -14.35 15.9 -13.85 15.6 -13.6 15.3 Q-12.5 13.3 -13.45 11.0 L-14.25 9.65 -14.7 9.15 -15.55 8.8 Q-16.3 8.8 -16.85 9.55 L-17.1 9.65 -15.65 9.3 -15.35 9.35 -15.1 9.35 -14.65 9.75 -14.65 10.05 -14.7 10.3 -14.75 10.35 -14.8 10.45 M-17.1 9.65 L-17.15 9.75 -17.05 9.75 -17.1 9.65 M-13.6 15.3 L-13.75 15.5 -13.6 15.35 -13.55 15.3 -13.6 15.3" fill="#737373" fill-rule="evenodd" stroke="none"/>
      <path d="M-1.55 7.2 L-1.5 7.2 -1.35 7.35 -0.85 8.25 -1.0 8.25 -2.95 8.65 -3.0 8.65 -3.5 8.0 -3.85 7.7 -3.9 7.7 -3.9 7.6 -3.95 7.55 -1.6 7.2 -1.55 7.2 M-8.25 10.35 L-8.2 10.35 -6.95 10.15 -6.75 10.15 -6.55 10.1 -5.85 10.05 -5.65 9.95 -5.4 9.9 -5.3 9.95 -5.15 10.2 -5.05 10.45 -5.05 10.55 -5.0 10.65 -5.1 10.9 -5.1 11.0 -6.5 11.45 -6.9 11.55 -7.75 11.8 -7.95 11.75 -7.85 11.15 -8.0 10.85 -8.1 10.55 -8.2 10.4 -8.25 10.35" fill="#555555" fill-rule="evenodd" stroke="none"/>
      <path d="M-0.7 11.65 L-0.7 11.75 -0.75 11.8 -0.85 12.2 -0.9 12.2 -2.0 12.45 -3.05 12.65 -3.0 12.55 -2.8 11.95 -2.65 11.7 -2.5 11.2 -0.6 10.85 -0.7 11.65" fill="#515151" fill-rule="evenodd" stroke="none"/>
      <path d="M-16.05 11.0 L-16.25 10.65 -16.2 10.65 -15.9 10.65 -15.9 10.6 -15.85 10.6 -15.1 10.5 -15.1 10.45 -15.05 10.45 -14.8 10.45 -14.7 10.75 -14.8 10.7 -14.95 10.75 -15.1 10.8 -15.2 10.85 -15.25 10.9 -15.15 11.0 -15.1 11.15 -15.0 11.2 -14.95 11.25 -14.8 11.25 -14.7 11.15 -14.7 11.1 -14.6 11.0 -14.4 11.4 -15.75 11.8 -15.85 11.4 -15.8 11.45 -15.65 11.45 -15.65 11.35 -15.55 11.3 -15.5 11.2 -15.5 11.05 -15.65 11.0 -15.75 10.95 -15.95 11.0 -16.05 11.0" fill="#8c8c8c" fill-rule="evenodd" stroke="none"/>
      <path d="M2.1 16.2 L-5.7 17.0 -6.75 16.65 2.1 15.35 2.1 16.2 M-15.95 11.0 L-15.75 10.95 -15.65 11.0 -15.5 11.05 -15.5 11.2 -15.55 11.3 -15.65 11.35 -15.65 11.3 -15.8 11.25 -15.9 11.15 -15.95 11.0 M-14.7 11.15 L-14.9 11.05 -15.05 10.95 -15.1 10.8 -14.95 10.75 -14.8 10.7 -14.7 10.75 -14.65 10.85 -14.6 11.0 -14.7 11.1 -14.7 11.15" fill="#6f6f6f" fill-rule="evenodd" stroke="none"/>
      <path d="M-11.5 11.0 L-10.5 10.7 Q-9.9 10.75 -9.9 11.45 L-10.0 12.05 -12.7 12.65 -12.75 12.65 -12.8 11.85 -12.85 11.45 -12.9 11.25 -12.85 11.25 -11.5 11.0 M-15.5 13.2 L-15.55 13.2 -15.55 13.05 -15.7 11.95 -15.75 11.8 -14.4 11.4 -13.95 11.55 -13.45 11.95 -13.45 12.5 -13.6 12.75 -15.5 13.2" fill="#595959" fill-rule="evenodd" stroke="none"/>
      <path d="M12.0 15.25 L2.5 17.55 2.2 17.15 10.6 15.25 10.75 15.25 12.0 15.25 M-5.7 18.3 L-13.85 19.6 -14.6 19.2 -7.05 18.05 -6.75 18.0 -6.75 17.9 -5.7 18.3 M-15.9 15.45 Q-15.65 14.75 -15.55 13.9 L-14.7 13.75 -14.55 13.75 -14.2 13.9 Q-13.7 14.2 -13.75 14.6 L-14.15 15.2 -14.25 15.25 -14.35 15.25 -15.95 15.65 -15.9 15.45" fill="#3c3c3c" fill-rule="evenodd" stroke="none"/>
      <path d="M16.45 8.5 L12.0 15.25 10.75 15.25 10.75 15.2 10.85 15.1 10.9 14.95 11.75 13.45 13.15 11.25 14.45 9.25 15.0 8.5 16.45 8.5 M-9.4 8.5 L-9.25 8.65 -9.15 8.8 -9.1 9.1 -9.1 9.55 -9.2 9.6 -9.2 9.55 -9.2 9.5 -9.2 9.4 -9.2 9.35 -9.2 9.2 -9.2 9.15 -9.4 8.8 -9.5 8.75 Q-9.6 8.65 -9.65 8.65 L-9.7 8.55 -9.75 8.55 -9.55 8.5 -9.5 8.45 -9.4 8.5 M-8.05 11.8 L-8.05 11.25 -8.15 10.8 -8.15 10.75 -8.15 10.65 -8.15 10.6 -8.25 10.55 -8.25 10.5 -8.3 10.5 -8.3 10.45 -8.35 10.45 -8.35 10.4 -8.4 10.4 -8.45 10.35 -8.45 10.3 -8.25 10.3 -8.25 10.35 -8.2 10.4 -8.2 10.45 -8.1 10.55 -8.0 10.85 -7.85 11.15 -7.95 11.75 -8.05 11.8 M-12.75 13.4 L-10.85 12.95 Q-10.45 12.9 -10.3 13.45 L-10.3 13.75 -10.3 13.95 -10.5 14.1 -10.7 14.15 -13.15 14.75 -13.2 14.75 -13.05 14.55 -13.05 14.35 -12.8 13.5 -12.75 13.4" fill="#444444" fill-rule="evenodd" stroke="none"/>
      <path d="M-6.5 8.15 L-6.5 8.25 -6.4 8.25 -6.35 8.3 -6.35 8.4 -6.25 8.65 -6.25 8.95 -6.2 9.0 -6.3 9.05 -6.2 9.2 -6.35 9.2 -6.45 9.2 -6.55 9.25 -6.55 9.35 -6.5 9.5 -6.5 9.6 -6.35 9.65 -6.25 9.65 -6.1 9.7 -6.05 9.55 -6.0 9.5 -5.65 9.9 -5.65 9.95 -5.85 10.05 -6.55 10.1 -6.75 10.15 -6.95 10.15 -8.2 10.35 -8.25 10.35 -8.25 10.3 -8.45 10.3 -8.45 10.35 -8.4 10.4 -8.35 10.4 -8.35 10.45 -8.3 10.45 -8.3 10.5 -8.25 10.5 -8.25 10.55 -8.15 10.6 -8.15 10.65 -8.15 10.75 -8.15 10.8 -8.05 11.25 -8.05 11.8 -9.3 12.0 -9.35 11.45 -9.35 11.35 Q-9.35 10.7 -9.5 10.55 L-9.55 10.5 -9.1 10.45 -8.75 10.4 -8.6 10.3 -8.85 9.9 -9.1 9.55 -9.0 9.55 -9.0 9.5 -9.05 9.5 -9.15 8.8 -9.25 8.65 -9.4 8.5 -9.45 8.45 -9.05 8.4 -6.9 8.0 Q-6.65 8.0 -6.5 8.15 M-9.5 8.75 L-9.4 8.8 -9.2 9.15 -9.2 9.2 -9.2 9.35 -9.2 9.4 -9.2 9.5 -9.2 9.55 -9.25 9.6 -9.85 9.8 -9.9 9.75 -10.85 8.9 -9.7 8.65 -9.5 8.75 M-7.55 9.95 L-7.5 9.9 -7.45 9.75 -7.45 9.6 -7.55 9.6 -7.7 9.55 -7.85 9.55 -7.9 9.6 -8.0 9.65 -8.05 9.75 -8.0 9.85 -7.95 9.95 -7.85 10.05 -7.75 10.05 -7.6 10.05 -7.55 9.95 M-8.25 10.0 L-8.15 9.9 -8.2 9.75 -8.25 9.65 -8.4 9.6 -8.55 9.65 -8.65 9.7 -8.75 9.75 -8.8 9.8 -8.7 9.9 -8.65 10.05 -8.55 10.1 -8.5 10.15 -8.35 10.15 -8.25 10.05 -8.25 10.0 M-5.1 11.0 L-5.1 10.9 -5.0 10.65 -5.05 10.45 -5.15 10.2 -5.3 9.95 -5.35 9.9 -5.1 9.8 -5.0 9.85 -5.0 9.9 -4.85 10.25 -4.75 10.7 -4.7 10.9 -5.1 11.0 M-13.55 9.3 L-11.7 8.85 Q-11.25 8.8 -11.15 9.25 L-11.05 9.75 -13.35 10.2 -13.45 10.25 -13.75 9.75 -14.05 9.35 -13.55 9.3 M-6.75 9.75 L-6.7 9.6 -6.7 9.5 -6.75 9.4 -6.9 9.35 -7.1 9.4 -7.15 9.4 -7.25 9.45 -7.3 9.6 -7.25 9.7 -7.15 9.75 -7.05 9.85 -7.0 9.9 -6.9 9.9 -6.85 9.85 -6.75 9.75" fill="#666666" fill-rule="evenodd" stroke="none"/>
      <path d="M-13.05 10.85 L-12.1 10.65 -11.8 10.75 Q-11.55 10.85 -11.5 11.0 L-12.85 11.25 -12.8 11.2 -12.75 11.2 -12.8 11.15 -12.85 11.1 -12.85 11.0 -12.9 11.0 -12.95 11.05 -13.05 10.85" fill="#777777" fill-rule="evenodd" stroke="none"/>
      <path d="M-6.0 9.5 L-6.05 9.55 -6.25 9.5 -6.35 9.35 -6.45 9.2 -6.35 9.2 -6.2 9.2 -6.05 9.2 -6.0 9.25 -5.95 9.4 -6.0 9.5 M-7.9 9.6 L-7.85 9.55 -7.7 9.55 -7.55 9.6 -7.45 9.6 -7.45 9.75 -7.5 9.9 -7.55 9.95 -7.55 9.9 -7.7 9.85 -7.85 9.75 -7.9 9.6 M-8.65 9.7 L-8.55 9.65 -8.4 9.6 -8.25 9.65 -8.2 9.75 -8.15 9.9 -8.25 10.0 -8.45 9.95 -8.6 9.85 -8.65 9.7 M-7.15 9.4 L-7.1 9.4 -6.9 9.35 -6.75 9.4 -6.7 9.5 -6.7 9.6 -6.75 9.75 -6.9 9.75 -7.0 9.7 -7.1 9.55 -7.15 9.4" fill="#808080" fill-rule="evenodd" stroke="none"/>
      <path d="M-9.1 9.55 L-8.85 9.9 -8.6 10.3 -8.75 10.4 -9.1 10.45 -9.2 10.05 -9.3 10.05 -9.7 10.15 -9.8 9.9 -9.85 9.8 -9.25 9.6 -9.2 9.6 -9.1 9.55 M-9.3 12.0 L-8.05 11.8 -7.95 11.75 -7.75 11.8 -6.55 11.5 -6.55 11.65 -6.9 11.75 -9.35 12.45 -9.3 12.1 -9.3 12.05 -9.3 12.0 M-6.05 9.55 L-6.1 9.7 -6.25 9.65 -6.35 9.65 -6.5 9.6 -6.5 9.5 -6.55 9.35 -6.55 9.25 -6.45 9.2 -6.35 9.35 -6.25 9.5 -6.05 9.55 M-7.9 9.6 L-7.85 9.75 -7.7 9.85 -7.55 9.9 -7.55 9.95 -7.6 10.05 -7.75 10.05 -7.85 10.05 -7.95 9.95 -8.0 9.85 -8.05 9.75 -8.0 9.65 -7.9 9.6 M-8.65 9.7 L-8.6 9.85 -8.45 9.95 -8.25 10.0 -8.25 10.05 -8.35 10.15 -8.5 10.15 -8.55 10.1 -8.65 10.05 -8.7 9.9 -8.8 9.8 -8.75 9.75 -8.65 9.7 M-7.15 9.4 L-7.1 9.55 -7.0 9.7 -6.9 9.75 -6.75 9.75 -6.85 9.85 -6.9 9.9 -7.0 9.9 -7.05 9.85 -7.15 9.75 -7.25 9.7 -7.3 9.6 -7.25 9.45 -7.15 9.4" fill="#0d0d0d" fill-rule="evenodd" stroke="none"/>
      <path d="M-9.45 13.1 L-9.35 12.75 -5.3 11.8 -5.1 11.8 -4.7 11.95 Q-4.3 12.25 -4.7 12.75 L-4.9 13.05 -6.75 13.45 -7.65 13.65 -9.75 14.05 -9.45 13.1" fill="#373737" fill-rule="evenodd" stroke="none"/>
      <path d="M-9.1 10.45 L-9.55 10.5 -9.7 10.15 -9.3 10.05 -9.2 10.05 -9.1 10.45" fill="#484848" fill-rule="evenodd" stroke="none"/>
      <path d="M-6.2 9.0 L-6.25 8.95 -6.25 8.65 -6.35 8.4 -6.35 8.3 -6.4 8.25 -6.5 8.25 -6.5 8.15 -6.5 8.1 -6.4 8.1 -6.3 8.1 -6.15 8.1 -5.95 8.3 -5.85 8.4 -5.8 8.5 -5.8 8.55 -5.75 8.6 -5.75 8.65 -5.75 8.8 -5.75 8.95 -5.8 8.95 -5.8 9.05 -6.2 9.0" fill="#7b7b7b" fill-rule="evenodd" stroke="none"/>
      <path d="M-5.75 8.95 L-5.75 8.8 -5.75 8.65 -5.75 8.6 -5.8 8.55 -5.8 8.5 -5.85 8.4 -5.95 8.3 -6.15 8.1 -6.3 8.1 -6.2 7.95 -6.1 7.95 -5.8 8.0 -5.65 8.2 -5.6 8.25 -5.55 8.4 -5.55 8.5 -5.6 8.8 -5.6 8.95 -5.6 9.05 -5.75 9.05 -5.75 8.95" fill="#6a6a6a" fill-rule="evenodd" stroke="none"/>
      <path d="M-5.6 8.95 L-5.6 8.8 -5.55 8.5 -5.55 8.4 -5.6 8.25 -5.8 8.0 -6.1 7.95 -6.05 7.95 -5.8 7.9 -5.65 8.0 -5.4 8.1 Q-5.05 8.4 -5.1 8.9 L-5.55 8.95 -5.6 8.95" fill="#262626" fill-rule="evenodd" stroke="none"/>
      <path d="M9.25 -11.3 L10.85 -11.3 16.45 -3.85 15.0 -3.3 15.0 -3.35 Q11.3 -8.25 9.25 -11.3 M-5.0 9.85 L-5.0 9.75 -4.75 9.75 -4.7 9.8 -4.55 10.05 -4.45 10.25 -4.45 10.35 -4.45 10.85 -4.6 10.95 -4.7 10.95 -4.7 10.9 -4.75 10.7 -4.85 10.25 -5.0 9.9 -5.0 9.85" fill="#959595" fill-rule="evenodd" stroke="none"/>
      <path d="M-4.75 9.75 L-4.65 9.6 Q-4.05 9.75 -4.05 10.4 L-4.15 11.0 -4.45 10.85 -4.45 10.35 -4.45 10.25 -4.55 10.05 -4.7 9.8 -4.75 9.75" fill="#404040" fill-rule="evenodd" stroke="none"/>
      <path d="M-4.3 7.45 L-4.3 7.4 -3.6 7.15 -2.6 6.95 -1.9 7.1 -1.55 7.2 -1.6 7.2 -3.95 7.55 -3.95 7.6 -4.3 7.45 M-0.85 8.55 L-0.85 8.6 -0.75 9.05 -2.65 9.35 -2.75 9.2 -2.9 8.85 -0.85 8.55 M-0.6 10.05 L-0.55 10.1 -0.6 10.1 -0.6 10.05 M-0.6 10.15 L-0.55 10.7 -0.7 11.65 -0.6 10.85 -2.5 11.2 -2.5 10.85 -2.5 10.6 -0.6 10.15 M-0.9 12.2 L-1.3 12.65 -2.0 13.3 -2.25 13.3 -3.05 13.15 -3.25 13.0 -3.2 12.9 -3.1 12.8 -2.95 12.65 -2.0 12.45 -0.9 12.2" fill="#1a1a1a" fill-rule="evenodd" stroke="none"/>
      <path d="M-5.95 3.85 L2.15 2.25 2.1 15.35 -6.75 16.65 -6.9 13.5 -6.75 13.45 -6.35 13.65 -5.9 13.85 -5.15 13.75 -5.0 13.75 -4.3 13.6 -4.15 13.6 -4.05 13.55 -3.6 13.35 -3.5 13.35 -3.25 13.0 -3.05 13.15 -2.25 13.3 -2.0 13.3 -1.3 12.65 -0.9 12.2 -0.85 12.2 -0.75 11.8 -0.7 11.75 -0.7 11.65 -0.55 10.7 -0.6 10.15 -0.6 10.1 -0.55 10.1 -0.6 10.05 -0.65 9.2 -0.7 9.0 -0.75 9.05 -0.85 8.6 -0.85 8.55 -1.0 8.25 -0.85 8.25 -1.35 7.35 -1.5 7.2 -1.55 7.2 -1.9 7.1 -2.6 6.95 -3.6 7.15 -4.3 7.4 -4.3 7.45 -4.35 7.4 -4.45 7.35 -4.7 7.3 -6.0 7.5 -6.15 7.55 -6.2 7.55 -6.25 7.55 -6.9 7.6 -6.9 3.85 -5.95 3.85" fill="#848484" fill-rule="evenodd" stroke="none"/>
      <path d="M16.45 -3.85 L16.45 8.5 15.0 8.5 15.0 8.45 15.0 8.25 14.95 6.15 15.0 2.15 15.0 -3.3 16.45 -3.85 M-5.7 17.0 L-5.7 18.3 -6.75 17.9 -6.75 16.65 -5.7 17.0 M-6.9 -9.5 L-5.95 -9.5 -5.95 3.85 -6.9 3.85 -6.9 -9.5" fill="#626262" fill-rule="evenodd" stroke="none"/>
      <path d="M2.3 14.85 L15.1 8.25 16.45 8.5 12.25 14.8 Q11.4 16.0 8.25 16.55 L3.0 17.25 2.25 17.25 Q2.45 16.8 2.25 16.4 L1.2 16.4 -2.45 16.85 -6.15 17.15 -6.15 17.2 -6.15 17.25 Q-5.65 17.25 -5.1 18.4 L-13.75 19.25 -14.05 19.25 -14.45 19.2 -14.95 19.2 Q-15.0 18.15 -15.6 17.5 L-16.7 16.05 -16.6 15.95 -15.85 15.55 -14.55 16.05 Q-14.0 16.05 -13.35 15.35 -12.7 14.6 -12.2 14.6 -11.9 14.6 -11.65 14.85 L-10.95 15.1 Q-10.3 15.1 -10.0 14.5 -9.7 13.9 -9.05 13.7 L-8.1 14.95 2.3 14.85 M-18.5 8.65 L-18.7 3.3 Q-18.7 0.8 -15.65 -2.75 L-16.3 4.65 -12.95 8.9 Q-13.8 8.75 -14.15 8.4 L-15.05 8.2 Q-15.65 8.2 -16.25 8.6 L-17.15 8.95 -17.75 8.8 -18.5 8.65" fill="#000000" fill-opacity="0.101960786" fill-rule="evenodd" stroke="none"/>
    </g>
    <g id="shape15" transform="matrix(1.0, 0.0, 0.0, 1.0, 414.0, 56.55)">
      <path d="M-153.0 36.0 Q-153.6 36.0 -153.85 36.5 L-154.0 37.0 Q-175.4 38.3 -183.45 40.35 -188.7 41.7 -189.2 43.95 L-189.55 45.55 Q-190.05 46.35 -191.7 46.8 L-192.25 46.95 -211.5 48.0 -222.8 47.4 -239.0 46.0 -239.0 44.0 -236.5 41.2 Q-234.95 39.25 -235.0 38.0 -240.5 38.65 -245.15 36.35 -248.1 34.9 -251.0 32.0 -249.0 31.05 -244.25 29.8 L-243.1 29.55 -243.0 30.0 -242.85 29.45 Q-239.0 28.45 -238.05 27.15 L-234.5 27.0 -226.75 28.0 -219.0 29.0 Q-210.1 29.0 -196.95 25.5 L-184.5 22.0 Q-183.5 22.0 -178.85 23.8 -173.25 25.95 -172.0 28.0 -173.6 27.7 -174.05 28.45 L-174.4 29.3 -175.0 31.0 Q-174.0 31.0 -174.0 32.0 -170.5 32.65 -161.8 31.7 -154.5 31.55 -153.0 36.0 M26.2 28.5 L26.25 28.55 27.85 30.0 24.85 31.4 Q23.2 32.0 21.85 32.0 L21.85 30.0 Q23.35 28.25 24.3 27.6 25.65 26.65 26.85 27.0 25.2 27.6 26.2 28.5 M30.45 33.1 L32.85 33.0 Q32.85 34.0 33.85 35.5 L34.65 37.05 34.85 38.0 33.15 39.4 Q32.25 39.85 31.05 40.0 L30.35 40.0 27.9 39.5 Q26.8 39.0 25.85 39.0 24.9 36.55 26.65 34.9 L27.2 34.45 Q28.45 33.45 30.45 33.1 M10.85 46.0 Q11.7 45.3 12.15 43.9 L12.95 43.1 14.85 43.5 17.85 44.0 17.85 46.0 Q17.25 46.0 17.0 46.5 L16.85 47.0 11.85 47.0 10.85 46.0 M0.25 35.05 L2.4 33.9 Q4.5 35.15 6.3 38.0 L6.85 39.0 Q6.2 39.0 6.0 39.65 5.85 40.0 5.85 41.0 L-1.15 41.0 -2.65 39.9 Q-3.55 39.3 -5.15 39.0 -4.15 39.0 -4.15 38.0 -3.5 37.35 -1.85 36.35 L0.25 35.05 M13.85 36.0 L13.85 33.0 15.85 32.5 17.85 32.0 19.85 34.0 19.75 34.05 16.85 35.5 15.85 35.95 15.35 36.1 13.85 36.0 M40.7 29.0 Q41.55 29.2 42.4 29.8 L44.55 31.6 Q45.85 32.7 46.85 33.0 46.25 33.0 46.0 33.5 L45.85 34.0 37.85 34.0 37.45 33.45 Q36.85 32.3 36.85 30.0 L37.5 29.55 37.7 29.45 40.7 29.0 M-157.0 174.5 Q-159.05 176.0 -163.0 180.0 L-163.0 182.0 Q-158.65 181.45 -152.95 183.15 -146.6 185.0 -143.5 185.0 -135.0 185.0 -128.2 180.0 L-123.35 176.55 Q-120.55 175.0 -117.5 175.0 -109.05 175.0 -97.45 177.55 L-78.0 182.0 -78.0 188.0 Q-80.85 189.35 -83.75 192.85 L-88.0 198.0 Q-84.3 201.25 -79.8 202.9 -74.1 205.0 -66.0 205.0 -62.1 205.0 -59.45 203.0 -56.3 200.6 -53.0 200.0 L-46.0 200.0 -45.85 200.5 Q-45.6 201.0 -45.0 201.0 -45.0 203.35 -47.5 206.0 -50.0 208.65 -50.0 210.0 -50.0 214.85 -45.0 217.7 -41.9 219.45 -41.55 219.7 -40.0 220.9 -40.0 222.5 -40.0 224.25 -46.05 228.5 -52.5 233.05 -53.0 234.0 L-302.1 234.0 Q-303.3 233.95 -304.7 233.35 L-305.5 233.0 Q-307.5 232.0 -309.0 232.0 -306.9 222.75 -319.85 218.85 L-330.65 216.15 Q-336.75 214.65 -339.0 213.0 -338.25 211.95 -333.75 210.5 -329.3 209.0 -327.0 209.0 -326.3 207.5 -326.1 204.5 -325.9 201.3 -325.5 200.2 -324.0 195.75 -315.0 197.0 L-318.95 192.6 Q-321.0 190.0 -321.0 187.0 -321.0 181.5 -293.45 177.75 L-258.0 174.0 -253.0 174.0 -255.1 176.75 Q-257.1 179.25 -258.0 180.0 L-258.0 181.0 -243.0 181.0 Q-235.5 179.55 -207.7 177.35 L-184.55 175.4 -152.0 172.0 Q-154.7 172.8 -157.0 174.5" fill="#000000" fill-opacity="0.101960786" fill-rule="evenodd" stroke="none"/>
      <path d="M237.1 22.35 L237.2 3.0 237.2 0.3 216.35 0.3 235.9 -16.55 237.3 -16.45 237.25 -6.0 272.4 30.0 288.55 42.0 384.45 124.5 415.7 134.9 417.7 187.0 262.95 153.0 236.85 79.85 237.1 28.5 237.1 22.35 249.25 85.65 276.9 114.9 358.35 115.8 288.45 58.65 272.35 46.2 237.1 22.35 M371.95 -27.5 L355.3 -25.7 355.3 -56.55 371.95 -39.55 371.95 -27.5 M166.85 9.9 L166.95 0.3 237.1 28.5 214.85 29.6 166.5 40.8 166.55 35.3 205.1 28.6 218.6 28.45 166.85 9.9 M135.25 33.8 L152.65 46.0 166.55 46.0 149.95 70.0 127.7 51.0 114.8 25.95 128.3 37.4 135.25 33.8 M113.85 24.1 L113.65 23.7 113.8 12.4 113.85 24.1 M113.85 1.05 L113.95 -10.7 135.25 26.0 135.25 29.9 113.85 1.05 M-15.15 182.1 L273.95 231.85 -414.0 231.85 -414.0 201.15 -224.25 168.5 -15.15 182.1" fill="#000000" fill-opacity="0.2" fill-rule="evenodd" stroke="none"/>
      <path d="M237.1 22.35 L272.35 46.2 288.45 58.65 358.35 115.8 276.9 114.9 249.25 85.65 237.1 22.35 M166.85 9.9 L218.6 28.45 205.1 28.6 166.55 35.3 166.85 9.9 M135.25 33.8 L128.3 37.4 114.8 25.95 113.85 24.1 113.8 12.4 113.85 1.05 135.25 29.9 135.25 33.8" fill="#000000" fill-opacity="0.4" fill-rule="evenodd" stroke="none"/>
    </g>
  </defs>
</svg>
