<?xml version="1.0" encoding="UTF-8" standalone="no"?>
<svg xmlns:xlink="http://www.w3.org/1999/xlink" height="58.15px" width="51.1px" xmlns="http://www.w3.org/2000/svg">
  <g transform="matrix(1.0, 0.0, 0.0, 1.0, 28.25, 30.75)">
    <use height="111.6" transform="matrix(0.4335, 0.0, 0.0, 0.5211, -28.2263, -30.7587)" width="117.85" xlink:href="#sprite0"/>
  </g>
  <defs>
    <g id="sprite0" transform="matrix(1.0, 0.0, 0.0, 1.0, -79.4, 43.0)">
      <use height="208.8" transform="matrix(0.3384, 0.0, 0.0, 0.3384, 125.4724, -13.7806)" width="212.15" xlink:href="#sprite1"/>
      <use height="208.8" transform="matrix(0.1398, 0.3057, 0.3057, -0.1398, 101.6102, -13.8373)" width="212.15" xlink:href="#sprite1"/>
      <use height="208.8" transform="matrix(-0.1882, 0.149, 0.149, 0.1882, 128.1017, -20.7503)" width="212.15" xlink:href="#sprite1"/>
      <use height="208.8" transform="matrix(-0.2842, 0.0, 0.0, -0.2842, 159.5887, 33.2307)" width="212.15" xlink:href="#sprite1"/>
      <use height="208.8" transform="matrix(0.267, -0.219, -0.219, -0.267, 125.1218, 68.6134)" width="212.15" xlink:href="#sprite1"/>
      <use height="208.8" transform="matrix(-0.0387, -0.1975, -0.1975, 0.0387, 187.8556, 32.7518)" width="212.15" xlink:href="#sprite1"/>
    </g>
    <g id="sprite1" transform="matrix(1.0, 0.0, 0.0, 1.0, 77.2, 45.15)">
      <use height="26.65" transform="matrix(1.0, 0.0, 0.0, 1.0, 11.15, 4.35)" width="36.4" xlink:href="#sprite2"/>
      <use height="26.65" transform="matrix(0.5278, -0.306, 0.7939, 1.3692, 49.05, 9.35)" width="36.4" xlink:href="#sprite2"/>
      <use height="26.65" transform="matrix(1.0, 0.0, 1.6729, 0.718, -12.85, 26.7)" width="36.4" xlink:href="#sprite2"/>
      <use height="26.65" transform="matrix(0.7903, -0.5799, 1.7121, 0.7026, 40.8, 56.55)" width="36.4" xlink:href="#sprite2"/>
      <use height="26.65" transform="matrix(1.728, 0.0, -0.22, 0.6442, -0.15, 58.15)" width="36.4" xlink:href="#sprite2"/>
    </g>
    <g id="sprite2" transform="matrix(1.0, 0.0, 0.0, 1.0, 0.0, 0.0)">
      <use height="25.45" transform="matrix(1.0, 0.0, 0.0, 1.0, 0.2, 0.0)" width="36.2" xlink:href="#sprite3"/>
      <use height="25.45" transform="matrix(1.0, 0.0, 0.0, 1.0, 0.0, 1.2)" width="36.2" xlink:href="#sprite3"/>
    </g>
    <g id="sprite3" transform="matrix(1.0, 0.0, 0.0, 1.0, 0.0, 0.0)">
      <use height="25.45" transform="matrix(1.0, 0.0, 0.0, 1.0, 0.0, 0.0)" width="36.2" xlink:href="#shape0"/>
    </g>
    <g id="shape0" transform="matrix(1.0, 0.0, 0.0, 1.0, 0.0, 0.0)">
      <path d="M28.8 25.45 L14.35 14.3 0.0 10.2 18.0 0.0 36.2 6.7 32.05 16.0 34.95 17.8 28.8 25.45" fill="#d9d9d9" fill-opacity="0.88235295" fill-rule="evenodd" stroke="none"/>
    </g>
  </defs>
</svg>
