<?xml version="1.0" encoding="UTF-8" standalone="no"?>
<svg xmlns:xlink="http://www.w3.org/1999/xlink" height="91.0px" width="132.0px" xmlns="http://www.w3.org/2000/svg">
  <g transform="matrix(1.0, 0.0, 0.0, 1.0, 66.0, 45.5)">
    <use height="91.0" transform="matrix(1.0, 0.0, 0.0, 1.0, -66.0, -45.5)" width="132.0" xlink:href="#shape0"/>
  </g>
  <defs>
    <g id="shape0" transform="matrix(1.0, 0.0, 0.0, 1.0, 66.0, 45.5)">
      <path d="M45.5 -21.95 L46.0 -21.35 52.9 -14.0 37.95 -11.9 16.85 -34.15 31.8 -36.4 45.5 -21.95 M56.6 -40.1 L62.0 -34.4 48.0 -32.4 42.7 -38.0 56.6 -40.1 M-13.85 -29.6 L0.15 -31.65 11.55 -19.6 -2.45 -17.55 -13.85 -29.6" fill="#6a6a6a" fill-rule="evenodd" stroke="none"/>
      <path d="M46.0 -21.35 L46.0 -21.4 45.5 -21.95 31.8 -36.4 33.05 -36.55 42.7 -38.0 48.0 -32.4 62.0 -34.4 56.6 -40.1 66.0 -41.5 66.0 14.5 -28.0 45.5 -28.0 -27.5 -13.85 -29.6 -2.45 -17.55 11.55 -19.6 0.15 -31.65 13.1 -33.6 16.85 -34.15 37.95 -11.9 52.9 -14.0 46.0 -21.35" fill="#999999" fill-rule="evenodd" stroke="none"/>
      <path d="M31.8 -36.4 L16.85 -34.15 13.1 -33.6 0.15 -31.65 -13.85 -29.6 -28.0 -27.5 -42.0 -31.5 55.0 -45.5 66.0 -41.5 56.6 -40.1 42.7 -38.0 33.05 -36.55 31.8 -36.4" fill="#c8c8c8" fill-rule="evenodd" stroke="none"/>
      <path d="M-42.0 -31.5 L-28.0 -27.5 -28.0 45.5 -42.0 40.5 -42.0 17.0 -42.0 9.7 -42.0 -2.4 -42.0 -31.5" fill="#848484" fill-rule="evenodd" stroke="none"/>
      <path d="M-42.0 9.7 L-58.0 22.5 -66.0 18.5 -42.0 -2.4 -42.0 9.7" fill="#777777" fill-rule="evenodd" stroke="none"/>
      <path d="M-42.0 17.0 L-48.0 22.5 -58.0 22.5 -42.0 9.7 -42.0 17.0" fill="#626262" fill-rule="evenodd" stroke="none"/>
    </g>
  </defs>
</svg>
