<?xml version="1.0" encoding="UTF-8" standalone="no"?>
<svg xmlns:xlink="http://www.w3.org/1999/xlink" height="494.4px" width="502.4px" xmlns="http://www.w3.org/2000/svg">
  <g transform="matrix(1.0, 0.0, 0.0, 1.0, 247.45, 448.95)">
    <use height="9.25" transform="matrix(1.0, 0.0, 0.0, 1.0, -12.5, 14.25)" width="36.5" xlink:href="#shape0"/>
    <use height="36.25" transform="matrix(1.0, 0.0, 0.0, 1.0, -11.5, -18.1)" width="23.05" xlink:href="#shape1"/>
    <use height="34.05" id="zonee" transform="matrix(0.875, 0.0, 0.0, 0.9941, -10.6, -16.8499)" width="24.0" xlink:href="#sprite0"/>
  </g>
  <defs>
    <g id="shape0" transform="matrix(1.0, 0.0, 0.0, 1.0, 12.5, -14.25)">
      <path d="M18.0 23.5 L11.0 23.0 -1.85 22.0 Q-11.25 21.3 -12.5 19.75 L-8.05 15.95 Q-7.5 15.35 -7.1 14.4 L-7.05 14.25 10.05 14.35 Q24.0 15.15 24.0 19.0 24.0 22.25 22.75 23.0 L18.0 23.5" fill="#000000" fill-opacity="0.17254902" fill-rule="evenodd" stroke="none"/>
    </g>
    <g id="shape1" transform="matrix(1.0, 0.0, 0.0, 1.0, 11.5, 18.1)">
      <path d="M11.4 -6.75 L11.45 -6.55 11.25 -6.05 11.25 -5.85 9.95 -5.8 9.15 -5.7 8.3 -5.6 7.95 -5.6 7.3 -5.45 6.75 -5.3 6.45 -5.3 5.9 -5.2 4.65 -5.15 4.3 -5.1 3.75 -5.05 2.2 -5.05 0.35 -5.05 -0.9 -5.25 -1.9 -5.4 -2.65 -5.4 -3.45 -5.35 -5.2 -5.3 -5.55 -5.25 -6.45 -5.15 -7.55 -5.1 -8.85 -5.05 -10.65 -5.2 -11.2 -5.5 -11.4 -5.85 Q-11.3 -5.9 -11.35 -6.25 L-11.25 -6.55 -10.95 -6.35 -10.75 -6.15 -10.3 -6.8 -10.0 -6.3 Q-9.5 -6.15 -9.45 -6.45 L-9.1 -6.65 -8.85 -6.4 -8.55 -6.05 -8.25 -5.95 -7.1 -6.0 -6.55 -6.05 -6.15 -6.15 -5.85 -6.05 -4.55 -5.8 -4.15 -5.95 -3.35 -6.15 -2.2 -6.15 -1.4 -5.95 0.1 -6.0 1.0 -6.05 2.75 -6.05 3.45 -6.2 4.55 -6.15 5.1 -6.05 6.2 -6.05 6.45 -5.95 7.15 -6.05 8.05 -6.25 8.75 -6.25 9.5 -6.45 9.85 -6.5 11.1 -6.6 11.4 -6.75 M11.2 4.35 L11.2 4.5 11.05 5.05 9.4 5.55 Q9.1 5.65 9.05 5.7 L8.2 6.0 7.85 6.1 6.85 6.15 6.4 6.2 5.3 6.35 3.45 6.45 3.2 6.45 2.35 6.55 1.35 6.65 0.55 6.65 -0.25 6.65 -1.25 6.6 -1.9 6.65 -3.55 6.55 -3.8 6.55 -7.35 6.5 -8.2 6.45 -9.65 6.15 -10.0 6.1 -10.7 5.75 -10.8 5.55 Q-11.1 5.35 -11.0 4.7 -10.85 4.7 -10.55 5.0 L-10.0 5.2 -9.1 5.4 -8.75 5.45 -8.35 5.4 -7.45 5.45 -6.85 5.5 -6.2 5.55 -5.55 5.65 -5.0 5.6 -3.75 5.6 -3.25 5.7 -2.7 5.7 -2.1 5.75 -1.35 5.8 -0.75 5.9 -0.35 5.9 3.2 5.8 4.2 5.65 4.55 5.7 5.55 5.6 6.1 5.6 6.6 5.45 7.1 5.35 8.0 5.25 8.6 5.15 8.95 5.05 9.75 4.85 10.3 4.7 11.2 4.35 M11.1 13.55 L11.15 13.6 11.2 14.3 Q11.15 14.5 11.25 14.55 L11.4 15.15 11.55 15.7 Q0.75 20.05 -10.35 16.7 L-10.6 16.05 -10.5 15.3 -10.5 14.8 Q-9.7 14.6 -9.4 15.2 L-9.15 15.65 -8.9 15.85 -8.45 15.95 -8.0 16.05 -7.65 15.85 Q-7.5 15.65 -7.2 15.85 L-6.7 16.25 -6.45 16.45 -6.2 16.7 Q-5.95 17.1 -5.55 16.85 L-4.9 16.75 -4.25 16.7 -3.8 16.85 Q-3.1 16.95 -3.05 16.6 L-3.25 16.35 -3.9 15.7 Q-3.9 15.2 -3.3 15.35 L-2.65 15.4 -2.4 15.4 -2.35 15.05 Q-2.15 14.9 -2.3 14.75 L-2.3 14.25 -2.2 13.85 Q-1.6 14.05 -1.8 14.65 L-1.95 15.05 -1.85 15.4 -2.25 15.8 Q-2.65 15.95 -2.45 16.2 L-2.3 16.75 -2.0 16.8 -1.1 16.7 -0.25 16.65 0.4 16.5 Q0.6 16.25 1.0 16.35 L1.5 16.35 Q1.85 16.3 1.9 16.5 L2.2 16.65 2.85 16.55 4.0 16.65 4.35 16.55 6.4 16.25 6.95 16.15 7.45 16.15 7.7 15.85 Q7.8 15.3 8.4 15.4 L9.0 15.3 9.6 15.15 9.9 15.0 10.05 14.9 10.3 14.85 10.8 14.3 10.9 13.8 11.1 13.55 M-11.3 -16.55 L-11.45 -17.0 -11.4 -17.35 Q-0.65 -18.8 10.45 -17.4 L10.5 -17.4 10.85 -17.35 10.85 -16.8 10.85 -16.6 10.55 -16.6 Q10.25 -16.65 10.0 -16.4 L9.7 -16.4 9.55 -16.1 9.2 -15.55 9.6 -14.95 9.35 -14.5 Q9.15 -14.25 9.25 -13.75 L9.3 -13.45 Q9.4 -13.1 9.1 -13.1 L9.0 -13.35 8.85 -13.9 9.0 -14.65 8.95 -14.9 8.3 -15.75 Q8.25 -16.05 8.5 -16.25 L8.7 -16.4 8.65 -16.85 8.15 -16.9 7.7 -16.3 7.65 -16.2 7.4 -16.25 7.3 -16.25 7.1 -16.35 6.8 -16.4 6.55 -16.7 5.95 -16.6 5.45 -16.25 4.3 -17.15 3.45 -16.9 3.15 -16.95 2.45 -16.9 1.65 -16.9 1.45 -16.3 1.2 -16.55 0.8 -17.05 0.0 -17.25 -0.5 -17.35 -1.1 -17.25 -1.45 -17.2 Q-1.75 -17.4 -2.1 -17.2 L-2.4 -17.05 -2.9 -16.95 -3.65 -17.2 -4.35 -16.95 -4.8 -16.9 -5.85 -16.8 Q-5.9 -16.55 -6.1 -16.45 L-6.55 -16.95 -7.05 -16.7 -7.35 -16.85 -7.75 -16.75 -8.1 -16.6 -8.55 -16.7 -8.9 -16.65 -9.4 -16.55 -9.65 -16.35 -9.75 -16.65 -10.1 -16.35 -10.35 -16.6 -10.65 -16.5 Q-11.05 -16.4 -11.0 -16.75 L-11.3 -16.55 M6.8 -12.4 L7.1 -12.45 7.55 -12.2 7.05 -11.85 6.75 -11.95 6.55 -11.75 6.3 -11.4 6.0 -11.6 Q5.55 -11.55 5.6 -12.1 L6.1 -12.25 Q6.5 -12.15 6.8 -12.4 M4.6 -12.85 L4.6 -12.9 4.8 -13.15 5.0 -12.9 Q5.2 -12.65 4.95 -12.45 L4.65 -12.25 Q4.55 -12.4 4.6 -12.85 M5.0 -14.75 L4.7 -15.2 5.1 -15.15 Q5.5 -15.05 5.55 -14.35 L5.25 -14.35 5.2 -14.4 Q5.05 -14.5 5.0 -14.75 M-10.85 -11.55 L-10.75 -12.2 -10.45 -12.45 -10.4 -12.2 -10.55 -11.65 -10.65 -11.25 -10.85 -11.55" fill="#373737" fill-rule="evenodd" stroke="none"/>
      <path d="M-10.5 14.8 L-10.45 13.6 -10.4 9.95 -10.35 9.5 -10.5 8.35 -10.6 7.85 -10.6 6.75 -10.7 5.75 -10.0 6.1 -9.65 6.15 -8.2 6.45 -7.35 6.5 -3.8 6.55 -3.55 6.55 -1.9 6.65 -1.25 6.6 -0.25 6.65 0.55 6.65 1.35 6.65 Q1.5 6.95 2.0 6.9 L3.1 6.95 3.85 6.9 4.9 6.8 5.2 6.9 6.75 7.15 7.2 7.3 7.9 7.8 8.15 8.5 8.1 9.05 Q7.55 9.35 7.45 9.75 L7.7 10.1 8.2 10.5 8.45 10.7 8.75 11.25 8.9 11.6 9.1 12.0 9.25 12.2 9.4 12.45 9.9 13.1 9.85 13.75 Q9.75 14.25 10.05 14.9 L9.9 15.0 9.6 15.15 9.0 15.3 8.4 15.4 Q7.8 15.3 7.7 15.85 L7.45 16.15 6.95 16.15 6.4 16.25 4.35 16.55 4.0 16.65 2.85 16.55 2.2 16.65 1.9 16.5 Q1.85 16.3 1.5 16.35 L1.0 16.35 Q0.6 16.25 0.4 16.5 L-0.25 16.65 -1.1 16.7 -2.0 16.8 -2.3 16.75 -2.45 16.2 Q-2.65 15.95 -2.25 15.8 L-1.85 15.4 -1.95 15.05 -1.8 14.65 Q-1.6 14.05 -2.2 13.85 L-2.3 14.25 -2.3 14.75 Q-2.15 14.9 -2.35 15.05 L-2.4 15.4 -2.65 15.4 -3.3 15.35 Q-3.9 15.2 -3.9 15.7 L-3.25 16.35 -3.05 16.6 Q-3.1 16.95 -3.8 16.85 L-4.25 16.7 -4.9 16.75 -5.55 16.85 Q-5.95 17.1 -6.2 16.7 L-6.45 16.45 -6.7 16.25 -7.2 15.85 Q-7.5 15.65 -7.65 15.85 L-8.0 16.05 -8.45 15.95 -8.9 15.85 -9.15 15.65 -9.4 15.2 Q-9.7 14.6 -10.5 14.8 M-11.0 4.7 L-10.8 4.1 -10.8 2.05 -10.9 1.55 -10.9 0.5 -11.0 -3.25 -11.05 -3.9 -11.15 -4.45 -11.2 -5.1 -11.2 -5.5 -10.65 -5.2 -8.85 -5.05 -7.55 -5.1 -6.45 -5.15 -5.55 -5.25 -5.2 -5.3 -3.45 -5.35 -2.65 -5.4 -1.9 -5.4 -0.9 -5.25 0.35 -5.05 2.2 -5.05 3.75 -5.05 4.3 -5.1 4.65 -5.15 5.9 -5.2 6.45 -5.3 6.75 -5.3 Q6.45 -5.0 6.55 -4.45 L6.7 -3.5 6.8 -3.1 6.75 -2.05 6.65 -1.35 6.6 -1.05 6.5 -0.45 6.45 0.1 Q6.25 0.5 6.3 0.85 L6.15 1.25 6.05 1.8 Q6.1 2.45 5.55 2.45 L5.0 2.45 4.7 2.5 Q4.6 2.85 4.8 3.05 L4.55 3.4 4.1 3.7 Q3.6 4.05 3.65 4.5 L3.8 4.85 4.0 5.2 Q4.2 5.45 4.55 5.7 L4.2 5.65 3.2 5.8 -0.35 5.9 -0.75 5.9 -1.35 5.8 -2.1 5.75 -2.7 5.7 -3.25 5.7 -3.75 5.6 -5.0 5.6 -5.55 5.65 -6.2 5.55 -6.85 5.5 -7.45 5.45 -8.35 5.4 -8.75 5.45 -9.1 5.4 -10.0 5.2 -10.55 5.0 Q-10.85 4.7 -11.0 4.7 M-11.25 -6.55 L-11.25 -6.8 -11.2 -7.1 -11.15 -8.2 -11.05 -8.55 -11.05 -9.55 -11.1 -10.2 -11.15 -11.2 -11.25 -12.25 -11.35 -12.65 -11.35 -12.75 -11.35 -14.65 -11.4 -16.2 -11.3 -16.55 -11.0 -16.75 Q-11.05 -16.4 -10.65 -16.5 L-10.35 -16.6 -10.1 -16.35 -9.75 -16.65 -9.65 -16.35 -9.4 -16.55 -8.9 -16.65 -8.55 -16.7 -8.1 -16.6 -7.75 -16.75 -7.35 -16.85 -7.05 -16.7 -6.55 -16.95 -6.1 -16.45 Q-5.9 -16.55 -5.85 -16.8 L-4.8 -16.9 -4.35 -16.95 -3.65 -17.2 -2.9 -16.95 -2.4 -17.05 -2.1 -17.2 Q-1.75 -17.4 -1.45 -17.2 L-1.1 -17.25 -0.5 -17.35 0.0 -17.25 0.8 -17.05 1.2 -16.55 1.45 -16.3 1.65 -16.9 2.45 -16.9 3.15 -16.95 3.45 -16.9 4.3 -17.15 5.45 -16.25 5.95 -16.6 6.55 -16.7 6.8 -16.4 7.1 -16.35 7.3 -16.25 7.4 -16.25 7.65 -16.2 7.45 -15.45 7.2 -14.75 Q6.85 -14.45 6.9 -13.75 L7.15 -13.45 Q7.15 -13.4 7.4 -13.3 L7.5 -12.8 7.7 -12.45 7.55 -12.2 7.35 -11.65 7.4 -11.1 6.65 -10.35 6.3 -10.0 6.05 -9.15 6.0 -8.55 6.15 -7.35 6.15 -6.75 6.05 -6.35 Q6.05 -6.15 6.2 -6.05 L5.1 -6.05 4.55 -6.15 3.45 -6.2 2.75 -6.05 1.0 -6.05 0.1 -6.0 -1.4 -5.95 -2.2 -6.15 -3.35 -6.15 -4.15 -5.95 -4.55 -5.8 -5.85 -6.05 -6.15 -6.15 -6.55 -6.05 -7.1 -6.0 -8.25 -5.95 -8.55 -6.05 -8.85 -6.4 -9.1 -6.65 -9.45 -6.45 Q-9.5 -6.15 -10.0 -6.3 L-10.3 -6.8 -10.75 -6.15 -10.95 -6.35 -11.25 -6.55 M5.0 -14.75 Q5.05 -14.5 5.2 -14.4 L5.25 -14.35 5.55 -14.35 Q5.5 -15.05 5.1 -15.15 L4.7 -15.2 5.0 -14.75 M4.6 -12.85 Q4.55 -12.4 4.65 -12.25 L4.95 -12.45 Q5.2 -12.65 5.0 -12.9 L4.8 -13.15 4.6 -12.9 4.6 -12.85 M6.8 -12.4 Q6.5 -12.15 6.1 -12.25 L5.6 -12.1 Q5.55 -11.55 6.0 -11.6 L6.3 -11.4 6.55 -11.75 6.75 -11.95 7.05 -11.85 7.55 -12.2 7.1 -12.45 6.8 -12.4 M-10.85 -11.55 L-10.65 -11.25 -10.55 -11.65 -10.4 -12.2 -10.45 -12.45 -10.75 -12.2 -10.85 -11.55" fill="#515151" fill-rule="evenodd" stroke="none"/>
      <path d="M10.85 -16.6 L10.85 -16.55 10.8 -16.2 10.8 -15.2 10.9 -12.25 10.9 -11.35 11.1 -10.05 Q11.05 -8.9 11.15 -8.0 L11.25 -7.45 11.4 -6.75 11.1 -6.6 9.85 -6.5 9.5 -6.45 8.75 -6.25 8.05 -6.25 7.15 -6.05 6.45 -5.95 6.2 -6.05 Q6.05 -6.15 6.05 -6.35 L6.15 -6.75 6.15 -7.35 6.0 -8.55 6.05 -9.15 6.3 -10.0 6.65 -10.35 7.4 -11.1 7.35 -11.65 7.55 -12.2 7.7 -12.45 7.5 -12.8 7.4 -13.3 Q7.15 -13.4 7.15 -13.45 L6.9 -13.75 Q6.85 -14.45 7.2 -14.75 L7.45 -15.45 7.65 -16.2 7.7 -16.3 8.15 -16.9 8.65 -16.85 8.7 -16.4 8.5 -16.25 Q8.25 -16.05 8.3 -15.75 L8.95 -14.9 9.0 -14.65 8.85 -13.9 9.0 -13.35 9.1 -13.1 Q9.4 -13.1 9.3 -13.45 L9.25 -13.75 Q9.15 -14.25 9.35 -14.5 L9.6 -14.95 9.2 -15.55 9.55 -16.1 9.7 -16.4 10.0 -16.4 Q10.25 -16.65 10.55 -16.6 L10.85 -16.6 M11.25 -5.85 L11.15 -3.55 11.15 -3.25 11.1 -2.25 11.05 -1.95 11.05 1.85 11.05 2.65 11.2 4.05 11.2 4.3 11.2 4.35 10.3 4.7 9.75 4.85 8.95 5.05 8.6 5.15 8.0 5.25 7.1 5.35 6.6 5.45 6.1 5.6 5.55 5.6 4.55 5.7 Q4.2 5.45 4.0 5.2 L3.8 4.85 3.65 4.5 Q3.6 4.05 4.1 3.7 L4.55 3.4 4.8 3.05 Q4.6 2.85 4.7 2.5 L5.0 2.45 5.55 2.45 Q6.1 2.45 6.05 1.8 L6.15 1.25 6.3 0.85 Q6.25 0.5 6.45 0.1 L6.5 -0.45 6.6 -1.05 6.65 -1.35 6.75 -2.05 6.8 -3.1 6.7 -3.5 6.55 -4.45 Q6.45 -5.0 6.75 -5.3 L7.3 -5.45 7.95 -5.6 8.3 -5.6 9.15 -5.7 9.95 -5.8 11.25 -5.85 M11.05 5.05 Q10.85 5.8 10.9 6.5 L10.95 8.2 11.0 9.65 11.05 11.4 11.05 12.7 11.05 12.85 11.15 13.5 11.1 13.55 10.9 13.8 10.8 14.3 10.3 14.85 10.05 14.9 Q9.75 14.25 9.85 13.75 L9.9 13.1 9.4 12.45 9.25 12.2 9.1 12.0 8.9 11.6 8.75 11.25 8.45 10.7 8.2 10.5 7.7 10.1 7.45 9.75 Q7.55 9.35 8.1 9.05 L8.15 8.5 7.9 7.8 7.2 7.3 6.75 7.15 5.2 6.9 4.9 6.8 3.85 6.9 3.1 6.95 2.0 6.9 Q1.5 6.95 1.35 6.65 L2.35 6.55 3.2 6.45 3.45 6.45 5.3 6.35 6.4 6.2 6.85 6.15 7.85 6.1 8.2 6.0 9.05 5.7 Q9.1 5.65 9.4 5.55 L11.05 5.05" fill="#444444" fill-rule="evenodd" stroke="none"/>
      <path d="M7.65 -17.7 L10.45 -17.4 10.5 -17.4 10.85 -17.35 10.85 -16.8 10.85 -16.6 10.85 -16.55 10.8 -16.2 10.8 -15.2 10.9 -12.25 10.9 -11.35 11.1 -10.05 Q11.05 -8.9 11.15 -8.0 L11.25 -7.45 11.4 -6.75 11.45 -6.55 11.25 -6.05 11.25 -5.85 11.15 -3.55 11.15 -3.25 11.1 -2.25 11.05 -1.95 11.05 1.85 11.05 2.65 11.2 4.05 11.2 4.3 11.2 4.35 11.2 4.5 11.05 5.05 Q10.85 5.8 10.9 6.5 L10.95 8.2 11.0 9.65 11.05 11.4 11.05 12.7 11.05 12.85 11.15 13.5 11.1 13.55 11.15 13.6 11.2 14.3 Q11.15 14.5 11.25 14.55 L11.4 15.15 11.55 15.7 Q0.75 20.05 -10.35 16.7 L-10.6 16.05 -10.5 15.3 -10.5 14.8 -10.45 13.6 -10.4 9.95 -10.35 9.5 -10.5 8.35 -10.6 7.85 -10.6 6.75 -10.7 5.75 -10.8 5.55 Q-11.1 5.35 -11.0 4.7 L-10.8 4.1 -10.8 2.05 -10.9 1.55 -10.9 0.5 -11.0 -3.25 -11.05 -3.9 -11.15 -4.45 -11.2 -5.1 -11.2 -5.5 -11.4 -5.85 Q-11.3 -5.9 -11.35 -6.25 L-11.25 -6.55 -11.25 -6.8 -11.2 -7.1 -11.15 -8.2 -11.05 -8.55 -11.05 -9.55 -11.1 -10.2 -11.15 -11.2 -11.25 -12.25 -11.35 -12.65 -11.35 -12.75 -11.35 -14.65 -11.4 -16.2 -11.3 -16.55 -11.45 -17.0 -11.4 -17.35 -10.45 -17.45 -6.25 -17.85 -6.25 -14.5 Q-4.45 -7.2 -4.15 0.5 -4.0 4.1 -4.0 7.75 -2.85 9.5 -1.25 10.5 L0.75 10.5 Q2.2 11.95 3.6 12.6 L4.5 12.5 4.75 12.5 Q7.2 5.9 7.75 -1.3 8.4 -9.6 7.65 -17.7 M-8.75 10.5 L-8.25 12.25 -7.5 13.5 -5.85 14.05 -4.5 14.25 -2.5 14.25 Q-2.1 14.6 -1.5 14.75 L-1.25 14.75 -1.0 14.75 -0.75 14.75 Q-0.15 14.35 -1.25 14.25 L-1.45 14.0 -1.5 13.75 -2.5 13.75 -3.25 13.0 -3.5 12.75 -3.75 12.75 -4.25 12.75 -5.75 11.75 -7.0 10.25 -6.75 3.5 -10.35 -16.85 Q-9.15 -8.55 -8.75 0.0 -8.5 5.2 -8.75 10.5" fill="#000000" fill-opacity="0.4" fill-rule="evenodd" stroke="none"/>
      <path d="M-6.25 -17.85 L-3.55 -18.0 -3.45 -16.75 -3.25 -15.5 -2.25 -14.5 -1.75 -13.75 Q-1.55 -11.65 -2.25 -9.75 L-2.25 -9.5 -1.5 -8.25 Q-0.2 -2.5 1.45 2.35 L2.0 5.25 2.75 6.5 Q3.5 2.45 3.65 -1.75 L3.75 -9.75 3.25 -10.5 Q3.3 -14.6 2.15 -18.05 L7.65 -17.7 Q8.4 -9.6 7.75 -1.3 7.2 5.9 4.75 12.5 L4.5 12.5 3.6 12.6 Q2.2 11.95 0.75 10.5 L-1.25 10.5 Q-2.85 9.5 -4.0 7.75 -4.0 4.1 -4.15 0.5 -4.45 -7.2 -6.25 -14.5 L-6.25 -17.85" fill="#000000" fill-opacity="0.16078432" fill-rule="evenodd" stroke="none"/>
      <path d="M-3.55 -18.0 L2.15 -18.05 Q3.3 -14.6 3.25 -10.5 L3.75 -9.75 3.65 -1.75 Q3.5 2.45 2.75 6.5 L2.0 5.25 1.45 2.35 Q-0.2 -2.5 -1.5 -8.25 L-2.25 -9.5 -2.25 -9.75 Q-1.55 -11.65 -1.75 -13.75 L-2.25 -14.5 -3.25 -15.5 -3.45 -16.75 -3.55 -18.0" fill="#010101" fill-opacity="0.0" fill-rule="evenodd" stroke="none"/>
      <path d="M-8.75 10.5 Q-8.5 5.2 -8.75 0.0 -9.15 -8.55 -10.35 -16.85 L-6.75 3.5 -7.0 10.25 -5.75 11.75 -4.25 12.75 -3.75 12.75 -3.5 12.75 -3.25 13.0 -2.5 13.75 -1.5 13.75 -1.45 14.0 -1.25 14.25 Q-0.15 14.35 -0.75 14.75 L-1.0 14.75 -1.25 14.75 -1.5 14.75 Q-2.1 14.6 -2.5 14.25 L-4.5 14.25 -5.85 14.05 -7.5 13.5 -8.25 12.25 -8.75 10.5" fill="#000000" fill-opacity="0.17254902" fill-rule="evenodd" stroke="none"/>
    </g>
    <g id="sprite0" transform="matrix(1.0, 0.0, 0.0, 1.0, 12.0, 17.0)">
      <use height="34.05" transform="matrix(1.0, 0.0, 0.0, 1.0, -12.0, -17.0)" width="24.0" xlink:href="#shape2"/>
    </g>
    <g id="shape2" transform="matrix(1.0, 0.0, 0.0, 1.0, 12.0, 17.0)">
      <path d="M12.0 17.05 L-12.0 17.05 -12.0 -17.0 12.0 -17.0 12.0 17.05" fill="#555555" fill-opacity="0.0" fill-rule="evenodd" stroke="none"/>
    </g>
  </defs>
</svg>
