<?xml version="1.0" encoding="UTF-8" standalone="no"?>
<svg xmlns:xlink="http://www.w3.org/1999/xlink" height="494.4px" width="502.4px" xmlns="http://www.w3.org/2000/svg">
  <g transform="matrix(1.0, 0.0, 0.0, 1.0, 247.45, 448.95)">
    <use height="62.9" transform="matrix(1.0, 0.0, 0.0, 1.0, -136.15, -17.45)" width="272.6" xlink:href="#sprite0"/>
    <use height="9.25" transform="matrix(1.0, 0.0, 0.0, 1.0, -12.5, 14.25)" width="36.5" xlink:href="#shape1"/>
    <use height="27.9" transform="matrix(0.0134, -0.9998, 0.9998, 0.0134, -18.0005, -119.2903)" width="22.95" xlink:href="#sprite1"/>
    <use height="476.8" transform="matrix(0.9878, 0.0, 0.0, 0.975, -18.5577, -437.4787)" width="60.6" xlink:href="#sprite2"/>
    <use height="132.0" transform="matrix(0.8873, 0.0, 0.0, 0.6796, -167.8153, -69.6543)" width="382.0" xlink:href="#sprite7"/>
  </g>
  <defs>
    <g id="sprite0" transform="matrix(1.0, 0.0, 0.0, 1.0, 136.3, 31.45)">
      <use height="62.9" transform="matrix(1.0, 0.0, 0.0, 1.0, -136.3, -31.45)" width="272.6" xlink:href="#shape0"/>
    </g>
    <g id="shape0" transform="matrix(1.0, 0.0, 0.0, 1.0, 136.3, 31.45)">
      <path d="M0.15 -31.45 L2.5 -31.45 -0.7 -3.95 -0.3 -4.05 25.05 -30.95 47.55 -29.6 2.8 -4.75 87.15 -24.25 96.55 -22.25 Q114.95 -18.0 124.9 -12.95 L9.95 -2.1 136.3 2.15 Q133.65 12.2 106.05 19.85 L4.95 -1.3 0.0 -0.85 53.25 29.1 50.4 29.35 11.8 31.35 -2.65 -0.65 -3.5 -0.55 -7.35 31.45 -8.5 31.4 -45.35 29.8 -3.9 -0.55 -8.0 -0.15 -97.7 21.95 Q-119.3 16.85 -128.8 10.6 -136.3 5.65 -136.3 0.0 L-136.25 -0.9 -136.15 -1.4 -3.4 -1.4 -3.15 -2.65 -5.1 -3.25 -4.9 -2.1 -8.4 -3.95 -106.8 -19.6 -96.45 -22.25 Q-77.55 -26.6 -54.95 -28.85 L-8.4 -3.95 -5.45 -3.75 -21.05 -31.1 Q-10.8 -31.45 0.1 -31.45 L0.15 -31.45" fill="url(#gradient0)" fill-rule="evenodd" stroke="none"/>
    </g>
    <radialGradient cx="0" cy="0" gradientTransform="matrix(0.168, 0.0, 0.0, 0.0387, 0.1, 0.0)" gradientUnits="userSpaceOnUse" id="gradient0" r="819.2" spreadMethod="pad">
      <stop offset="0.0" stop-color="#000000" stop-opacity="0.0"/>
      <stop offset="0.23921568627450981" stop-color="#000000" stop-opacity="0.3764706"/>
      <stop offset="0.47843137254901963" stop-color="#000000" stop-opacity="0.0"/>
      <stop offset="0.8980392156862745" stop-color="#000000" stop-opacity="0.0"/>
    </radialGradient>
    <g id="shape1" transform="matrix(1.0, 0.0, 0.0, 1.0, 12.5, -14.25)">
      <path d="M18.0 23.5 L11.0 23.0 -1.85 22.0 Q-11.25 21.3 -12.5 19.75 L-8.05 15.95 Q-7.5 15.35 -7.1 14.4 L-7.05 14.25 10.05 14.35 Q24.0 15.15 24.0 19.0 24.0 22.25 22.75 23.0 L18.0 23.5" fill="#000000" fill-opacity="0.17254902" fill-rule="evenodd" stroke="none"/>
    </g>
    <g id="sprite1" transform="matrix(1.0, 0.0, 0.0, 1.0, 11.45, 13.95)">
      <use height="27.9" transform="matrix(1.0, 0.0, 0.0, 1.0, -11.45, -13.95)" width="22.95" xlink:href="#shape2"/>
    </g>
    <g id="shape2" transform="matrix(1.0, 0.0, 0.0, 1.0, 11.45, 13.95)">
      <path d="M9.95 -4.6 L6.85 -8.0 7.6 -9.8 5.4 -13.65 5.4 -13.95 8.65 -13.4 Q9.45 -13.3 9.85 -12.6 10.3 -11.75 11.1 -11.5 L11.25 -11.45 11.35 -10.95 11.4 -10.75 11.2 -10.25 11.2 -10.05 11.2 -10.0 9.2 -8.2 Q9.4 -7.5 9.85 -6.95 L9.95 -4.7 9.95 -4.6 M-8.35 -12.3 L-5.9 -11.65 Q-2.75 -10.7 -2.75 -9.15 L-1.95 -9.05 Q-3.6 -9.05 -5.15 -7.9 -6.45 -6.95 -7.25 -5.55 L-7.25 -5.05 -7.55 -5.1 -7.4 -4.85 -7.35 -4.6 -7.4 -4.1 -7.15 -4.1 -7.1 -3.85 -7.4 -3.2 -8.3 -3.2 -8.4 -3.3 -8.7 -3.6 -8.65 -4.35 -9.05 -4.95 -9.05 -6.1 -8.55 -6.6 -8.5 -7.0 -8.85 -7.75 -9.65 -9.1 -9.85 -9.25 -10.05 -9.45 -10.05 -10.45 -10.0 -10.5 Q-9.45 -11.55 -8.3 -11.85 L-8.35 -12.3 M4.75 -0.6 L7.65 -1.85 Q8.9 -2.3 9.55 -2.7 L9.2 -2.1 9.2 -0.85 9.0 -0.8 8.8 -0.35 8.6 0.8 8.25 1.05 8.2 1.05 8.05 1.35 7.7 1.9 7.65 2.0 Q7.4 2.7 7.7 2.65 8.5 3.05 8.2 4.65 L7.45 5.65 7.35 6.15 7.1 6.4 6.6 6.8 6.35 6.8 5.95 7.3 5.3 7.5 Q4.3 7.15 3.95 6.15 L3.35 8.4 1.85 9.15 0.2 9.15 Q-0.05 8.1 -0.55 7.65 L-0.55 4.55 Q0.9 3.75 2.1 2.7 L2.55 2.35 3.45 1.5 3.95 1.0 4.85 -0.1 4.75 -0.6" fill="#1e1e1e" fill-rule="evenodd" stroke="none"/>
      <path d="M-10.55 10.6 L-10.5 9.4 -10.45 5.75 -10.4 5.3 -10.55 4.15 -10.65 3.65 -10.65 2.55 -10.75 1.55 -10.05 1.9 -9.7 1.95 -8.25 2.25 -7.4 2.3 -3.85 2.35 -3.6 2.35 -1.95 2.45 -1.3 2.4 -0.3 2.45 0.5 2.45 1.3 2.45 Q1.45 2.75 1.95 2.7 L2.1 2.7 Q0.9 3.75 -0.55 4.55 L-0.55 7.65 Q-0.05 8.1 0.2 9.15 L1.85 9.15 3.35 8.4 3.95 6.15 Q4.3 7.15 5.3 7.5 L5.95 7.3 6.35 6.8 6.6 6.8 7.1 6.4 7.35 6.15 7.45 5.65 7.65 5.9 8.15 6.3 8.4 6.5 Q8.5 6.95 8.7 7.05 L8.85 7.4 9.05 7.8 9.2 8.0 9.35 8.25 9.85 8.9 9.8 9.55 Q9.7 10.05 10.0 10.7 L9.85 10.8 9.55 10.95 8.95 11.1 8.35 11.2 Q7.75 11.1 7.65 11.65 L7.4 11.95 6.9 11.95 6.35 12.05 4.3 12.35 3.95 12.45 2.8 12.35 2.15 12.45 1.85 12.3 1.45 12.15 0.95 12.15 Q0.55 12.05 0.35 12.3 L-0.3 12.45 -1.15 12.5 -2.05 12.6 -2.35 12.55 -2.5 12.0 Q-2.7 11.75 -2.3 11.6 L-1.9 11.2 -2.0 10.85 -1.85 10.45 Q-1.65 9.85 -2.25 9.65 L-2.35 10.05 -2.35 10.55 Q-2.2 10.7 -2.4 10.85 L-2.45 11.2 -2.7 11.2 -3.35 11.15 Q-3.95 11.0 -3.95 11.5 L-3.3 12.15 -3.1 12.4 Q-3.15 12.75 -3.85 12.65 -4.1 12.5 -4.3 12.5 L-4.95 12.55 -5.6 12.65 -6.25 12.5 -6.5 12.25 -6.75 12.05 -7.25 11.65 Q-7.55 11.45 -7.7 11.65 L-8.05 11.85 -8.5 11.75 -8.95 11.65 -9.2 11.45 -9.45 11.0 Q-9.75 10.4 -10.55 10.6 M-11.05 0.5 L-10.85 -0.1 -10.85 -2.15 -10.95 -2.65 -10.95 -3.7 -11.05 -7.45 -11.1 -8.1 -11.2 -8.65 -11.25 -9.3 -11.25 -9.7 -10.7 -9.4 -9.85 -9.25 -9.65 -9.1 -8.85 -7.75 -8.5 -7.0 -8.55 -6.6 -9.05 -6.1 -9.05 -4.95 -8.65 -4.35 -8.7 -3.6 -8.4 -3.3 -8.3 -3.2 -7.4 -3.2 -7.1 -3.85 -7.15 -4.1 -7.4 -4.1 -7.35 -4.6 -7.4 -4.85 -7.55 -5.1 -7.25 -5.05 -6.85 -4.95 -6.65 -4.7 -6.55 -4.45 -5.8 -4.1 Q-6.35 -3.75 -6.55 -2.85 L-6.5 -2.35 -6.4 -2.1 -5.9 -1.85 -5.65 -1.6 -4.4 -1.7 Q-3.85 -2.3 -3.75 -3.1 L-4.05 -3.35 -3.5 -3.8 Q-3.25 -3.9 -3.3 -4.2 L-2.9 -4.2 -2.65 -4.2 -2.55 -2.1 -1.4 -1.85 0.45 -1.7 2.1 -3.6 Q2.75 -4.1 3.35 -4.1 L3.6 -4.45 3.6 -4.6 4.0 -5.0 4.1 -5.2 4.75 -1.75 4.65 -1.7 Q4.55 -1.35 4.75 -1.15 L4.5 -0.8 4.05 -0.5 3.65 0.0 3.6 0.3 3.75 0.65 3.95 1.0 3.45 1.5 3.15 1.6 -0.4 1.7 -0.8 1.7 -1.4 1.6 -2.15 1.55 -2.75 1.5 -3.3 1.5 -3.8 1.4 -5.05 1.4 -5.6 1.45 -6.25 1.35 -6.9 1.3 -7.5 1.25 -8.4 1.2 -8.8 1.25 -9.15 1.2 Q-9.45 0.9 -10.05 1.0 L-10.6 0.8 -11.05 0.5 M-11.3 -10.75 L-11.3 -11.0 -11.25 -11.3 -11.2 -12.4 -11.1 -12.75 -11.05 -13.15 -9.4 -13.35 -8.75 -13.0 -8.55 -12.8 -8.4 -12.7 -8.35 -12.3 -8.3 -11.85 Q-9.45 -11.55 -10.0 -10.5 L-10.05 -10.5 -10.35 -11.0 -10.8 -10.35 -11.0 -10.55 -11.3 -10.75" fill="#515151" fill-rule="evenodd" stroke="none"/>
      <path d="M11.2 -10.0 L11.1 -7.75 11.1 -7.45 11.05 -6.45 11.0 -6.15 11.0 -2.35 11.0 -1.55 11.15 -0.15 11.15 0.1 11.15 0.15 10.25 0.5 9.7 0.65 8.9 0.85 8.55 0.95 8.25 1.05 8.6 0.8 8.8 -0.35 9.0 -0.8 9.2 -0.85 9.2 -2.1 9.55 -2.7 9.95 -4.15 9.95 -4.6 9.95 -4.7 9.85 -6.95 Q9.4 -7.5 9.2 -8.2 L11.2 -10.0 M11.0 0.85 Q10.8 1.6 10.85 2.3 L10.9 4.0 10.95 5.45 11.0 7.2 11.0 8.5 11.0 8.65 11.1 9.3 11.05 9.35 10.85 9.6 10.75 10.1 10.25 10.65 10.0 10.7 Q9.7 10.05 9.8 9.55 L9.85 8.9 9.35 8.25 9.2 8.0 9.05 7.8 8.85 7.4 8.7 7.05 Q8.5 6.95 8.4 6.5 L8.15 6.3 7.65 5.9 7.45 5.65 8.2 4.65 Q8.5 3.05 7.7 2.65 7.4 2.7 7.65 2.0 L7.7 1.9 7.8 1.9 8.15 1.8 9.0 1.5 9.35 1.35 11.0 0.85 M4.75 -1.75 L4.75 -1.15 4.75 -0.6 4.85 -0.1 3.95 1.0 3.75 0.65 3.6 0.3 3.65 0.0 4.05 -0.5 4.5 -0.8 4.75 -1.15 Q4.55 -1.35 4.65 -1.7 L4.75 -1.75 M2.55 2.35 L2.1 2.7 1.95 2.7 Q1.45 2.75 1.3 2.45 L2.3 2.35 2.55 2.35" fill="#444444" fill-rule="evenodd" stroke="none"/>
      <path d="M11.15 0.15 L11.15 0.3 11.0 0.85 9.35 1.35 9.0 1.5 8.15 1.8 7.8 1.9 7.7 1.9 8.05 1.35 8.2 1.05 8.25 1.05 8.55 0.95 8.9 0.85 9.7 0.65 10.25 0.5 11.15 0.15 M11.05 9.35 L11.1 9.4 11.15 10.1 11.2 10.35 11.35 10.95 11.5 11.5 Q0.7 15.85 -10.4 12.5 L-10.65 11.85 -10.55 11.1 -10.55 10.6 Q-9.75 10.4 -9.45 11.0 L-9.2 11.45 -8.95 11.65 -8.5 11.75 -8.05 11.85 -7.7 11.65 Q-7.55 11.45 -7.25 11.65 L-6.75 12.05 -6.5 12.25 -6.25 12.5 -5.6 12.65 -4.95 12.55 -4.3 12.5 Q-4.1 12.5 -3.85 12.65 -3.15 12.75 -3.1 12.4 L-3.3 12.15 -3.95 11.5 Q-3.95 11.0 -3.35 11.15 L-2.7 11.2 -2.45 11.2 -2.4 10.85 Q-2.2 10.7 -2.35 10.55 L-2.35 10.05 -2.25 9.65 Q-1.65 9.85 -1.85 10.45 L-2.0 10.85 -1.9 11.2 -2.3 11.6 Q-2.7 11.75 -2.5 12.0 L-2.35 12.55 -2.05 12.6 -1.15 12.5 -0.3 12.45 0.35 12.3 Q0.55 12.05 0.95 12.15 L1.45 12.15 1.85 12.3 2.15 12.45 2.8 12.35 3.95 12.45 4.3 12.35 6.35 12.05 6.9 11.95 7.4 11.95 7.65 11.65 Q7.75 11.1 8.35 11.2 L8.95 11.1 9.55 10.95 9.85 10.8 10.0 10.7 10.25 10.65 10.75 10.1 10.85 9.6 11.05 9.35 M-10.75 1.55 L-10.85 1.35 Q-11.15 1.15 -11.05 0.5 L-10.6 0.8 -10.05 1.0 Q-9.45 0.9 -9.15 1.2 L-8.8 1.25 -8.4 1.2 -7.5 1.25 -6.9 1.3 -6.25 1.35 -5.6 1.45 -5.05 1.4 -3.8 1.4 -3.3 1.5 -2.75 1.5 -2.15 1.55 -1.4 1.6 -0.8 1.7 -0.4 1.7 3.15 1.6 3.45 1.5 2.55 2.35 2.3 2.35 1.3 2.45 0.5 2.45 -0.3 2.45 -1.3 2.4 -1.95 2.45 -3.6 2.35 -3.85 2.35 -7.4 2.3 -8.25 2.25 -9.7 1.95 -10.05 1.9 -10.75 1.55 M-11.25 -9.7 L-11.45 -10.05 Q-11.35 -10.1 -11.4 -10.45 L-11.3 -10.75 -11.0 -10.55 -10.8 -10.35 -10.35 -11.0 -10.05 -10.5 -10.0 -10.5 -10.05 -10.45 -10.05 -9.45 -9.85 -9.25 -10.7 -9.4 -11.25 -9.7" fill="#373737" fill-rule="evenodd" stroke="none"/>
    </g>
    <g id="sprite2" transform="matrix(1.0, 0.0, 0.0, 1.0, 28.15, 278.75)">
      <use height="390.5" transform="matrix(1.0, 0.0, 0.0, 1.1365, -28.15, -246.4081)" width="42.0" xlink:href="#sprite3"/>
      <use height="419.5" transform="matrix(1.0, 0.0, 0.0, 1.1365, -24.4, -278.7364)" width="56.85" xlink:href="#sprite5"/>
    </g>
    <g id="sprite3" transform="matrix(1.0, 0.0, 0.0, 1.0, 21.0, 205.5)">
      <use height="369.0" transform="matrix(1.0, 0.0, 0.0, 1.0, -21.0, -184.5)" width="42.0" xlink:href="#sprite4"/>
    </g>
    <g id="sprite4" transform="matrix(1.0, 0.0, 0.0, 1.0, 21.0, 184.5)">
      <use height="369.0" transform="matrix(1.0, 0.0, 0.0, 1.0, -21.0, -184.5)" width="42.0" xlink:href="#shape3"/>
    </g>
    <g id="shape3" transform="matrix(1.0, 0.0, 0.0, 1.0, 21.0, 184.5)">
      <path d="M-4.0 -158.45 Q-4.0 -152.3 -7.0 -134.25 -10.0 -116.15 -10.0 -104.95 -10.0 -94.2 -5.15 -73.75 L5.5 -33.25 Q12.8 -6.05 16.15 10.65 21.0 34.9 21.0 52.05 21.0 78.25 7.5 110.45 L-1.8 131.2 Q-6.0 140.7 -6.0 144.05 -6.0 147.9 -2.05 161.1 2.0 174.5 4.0 177.05 L4.0 184.5 Q-18.0 172.35 -18.0 155.05 -18.0 144.9 -14.1 138.0 -8.6 130.55 -5.5 125.65 0.2 116.7 3.1 103.9 7.0 86.55 7.0 58.55 7.0 41.3 2.65 12.05 0.45 -2.35 -7.0 -44.35 -13.75 -82.15 -16.6 -103.65 -21.0 -136.15 -21.0 -158.95 -21.0 -172.55 -20.05 -184.5 L-4.6 -182.95 -4.5 -179.25 -4.0 -158.45" fill="#000000" fill-opacity="0.27450982" fill-rule="evenodd" stroke="none"/>
    </g>
    <g id="sprite5" transform="matrix(1.0, 0.0, 0.0, 1.0, 28.4, 224.75)">
      <use height="387.45" transform="matrix(1.0, 0.0, 0.0, 1.0, -28.4, -193.75)" width="56.85" xlink:href="#sprite6"/>
    </g>
    <g id="sprite6" transform="matrix(1.0, 0.0, 0.0, 1.0, 28.4, 193.75)">
      <use height="387.45" transform="matrix(1.0, 0.0, 0.0, 1.0, -28.4, -193.75)" width="56.85" xlink:href="#shape4"/>
    </g>
    <g id="shape4" transform="matrix(1.0, 0.0, 0.0, 1.0, 28.4, 193.75)">
      <path d="M28.45 -193.75 L25.35 -187.0 Q5.25 -140.3 1.4 -126.0 -0.65 -118.55 -1.05 -111.45 L-1.15 -96.0 Q-1.15 -86.1 2.35 -73.55 4.05 -67.65 10.1 -50.45 15.5 -35.2 17.85 -25.35 21.35 -10.6 21.35 3.0 21.35 8.3 20.55 15.1 L18.55 23.4 Q14.35 39.85 10.35 47.0 6.9 53.15 -0.45 68.25 L-7.65 83.0 Q-13.1 91.95 -15.6 105.45 -17.15 113.85 -17.15 120.25 -17.15 125.5 -16.15 129.95 L-13.15 141.0 Q-12.1 144.8 -11.7 152.2 -11.4 158.25 -10.15 160.5 -6.7 166.65 1.25 172.4 L16.85 184.0 16.85 188.5 6.85 188.5 Q6.5 188.15 2.2 187.55 L-3.65 187.0 Q-8.8 187.0 -12.85 189.15 -16.0 190.85 -18.05 193.7 -22.1 193.3 -25.1 190.75 -28.4 187.9 -28.4 184.35 -28.4 182.35 -26.2 180.55 L-21.4 177.15 Q-14.4 171.9 -14.4 162.5 -14.4 154.9 -19.9 139.7 -25.4 124.5 -25.4 115.75 -25.4 110.6 -22.4 101.85 -18.75 90.95 -18.4 89.25 L-15.35 79.35 Q-13.8 73.85 -12.4 67.25 L-11.3 64.75 Q-9.65 60.8 -9.1 58.0 -8.7 55.9 -8.9 54.5 L-7.1 47.55 Q-5.75 42.25 -5.65 36.25 -5.55 31.15 -4.95 24.55 -4.4 18.35 -4.4 15.1 -4.4 -1.4 -11.45 -17.75 L-18.55 -33.4 Q-21.35 -39.8 -23.65 -46.05 -23.7 -51.6 -23.9 -56.8 L-24.15 -70.25 Q-24.15 -75.2 -24.65 -84.45 -25.15 -93.7 -25.15 -104.25 L-25.35 -127.05 Q-25.35 -136.2 -24.25 -142.6 -22.4 -153.05 -9.2 -188.05 L-8.15 -188.0 Q11.65 -188.0 28.45 -193.75" fill="#000000" fill-opacity="0.24313726" fill-rule="evenodd" stroke="none"/>
    </g>
    <g id="sprite7" transform="matrix(1.0, 0.0, 0.0, 1.0, 191.0, 66.0)">
      <use height="132.0" transform="matrix(1.0, 0.0, 0.0, 1.0, -191.0, -66.0)" width="382.0" xlink:href="#shape5"/>
    </g>
    <g id="shape5" transform="matrix(1.0, 0.0, 0.0, 1.0, 191.0, 66.0)">
      <path d="M-55.0 5.9 Q-54.0 3.65 -54.0 0.5 -54.0 -0.75 -55.0 -5.75 -56.0 -10.75 -56.0 -12.0 -56.0 -23.35 -48.0 -26.0 -45.0 -27.0 -39.95 -27.1 L-31.0 -27.0 Q-27.3 -27.0 -23.35 -33.1 -20.9 -36.9 -16.45 -46.5 -11.95 -56.4 -9.75 -59.9 -5.9 -66.0 -2.5 -66.0 4.7 -66.0 6.9 -54.95 8.7 -46.05 8.0 -24.0 7.75 -14.85 13.35 -8.05 15.4 -5.6 19.5 -1.9 L27.0 5.0 Q37.6 15.4 62.8 16.95 68.9 17.35 82.7 17.35 L99.0 18.0 Q126.5 21.7 160.15 28.05 186.65 33.0 190.0 33.0 190.0 33.95 190.5 35.3 191.0 36.7 191.0 38.0 191.0 45.7 173.05 56.0 155.55 66.0 144.0 66.0 L123.15 64.5 92.0 62.0 Q84.35 61.6 75.9 57.75 67.65 54.0 67.0 54.0 L38.5 54.95 Q16.0 55.55 16.0 54.0 L30.0 54.0 Q-7.4 52.95 -15.95 54.8 L-21.5 56.4 -23.0 54.65 Q-24.85 51.65 -23.0 48.0 L-36.15 43.25 Q-46.25 39.6 -52.7 36.7 -73.0 27.75 -73.0 20.0 -73.0 15.85 -70.05 13.95 -68.55 13.0 -63.5 11.6 -58.95 10.4 -56.95 8.6 -55.7 7.45 -55.0 5.9" fill="#777777" fill-opacity="0.5137255" fill-rule="evenodd" stroke="none"/>
      <path d="M-23.0 54.65 Q-36.25 57.8 -59.0 56.0 -64.4 55.55 -99.7 56.7 L-142.5 58.0 Q-159.4 58.0 -174.0 54.0 -191.0 49.3 -191.0 42.0 -191.0 39.25 -189.3 37.25 -188.1 35.9 -184.45 33.4 -174.0 26.2 -167.0 18.0 -178.4 14.9 -182.2 7.9 -185.0 2.7 -185.0 -9.0 -185.0 -16.75 -183.8 -20.4 -182.45 -24.35 -178.95 -26.0 -175.75 -27.5 -168.8 -27.85 L-151.5 -28.0 Q-137.5 -28.0 -118.8 -24.8 -92.95 -20.45 -76.0 -12.0 -70.6 -9.3 -61.25 -0.4 L-55.0 5.9 Q-55.7 7.45 -56.95 8.6 -58.95 10.4 -63.5 11.6 -68.55 13.0 -70.05 13.95 -73.0 15.85 -73.0 20.0 -73.0 27.75 -52.7 36.7 -46.25 39.6 -36.15 43.25 L-23.0 48.0 Q-24.85 51.65 -23.0 54.65" fill="#555555" fill-opacity="0.5137255" fill-rule="evenodd" stroke="none"/>
    </g>
  </defs>
</svg>
