<?xml version="1.0" encoding="UTF-8" standalone="no"?>
<svg xmlns:xlink="http://www.w3.org/1999/xlink" height="125.15px" width="104.4px" xmlns="http://www.w3.org/2000/svg">
  <g transform="matrix(1.0, 0.0, 0.0, 1.0, 59.3, 37.75)">
    <use height="90.35" transform="matrix(1.0, 0.0, 0.0, 1.0, -19.55, -37.7)" width="46.1" xlink:href="#shape0"/>
  </g>
  <defs>
    <g id="shape0" transform="matrix(1.0, 0.0, 0.0, 1.0, 19.55, 37.7)">
      <path d="M21.05 -32.5 Q20.2 -33.0 19.0 -33.0 L17.2 -32.6 15.25 -32.45 15.4 -28.55 19.1 -29.2 Q22.0 -29.7 22.0 -30.65 22.0 -31.85 21.05 -32.5 M-14.0 -21.95 L-13.5 -21.95 Q-14.35 -23.2 -15.5 -23.55 -17.25 -24.05 -18.05 -26.7 L-18.9 -30.7 -19.05 -31.25 -19.05 -33.3 -18.9 -33.45 Q-18.35 -33.95 -17.6 -34.05 L-15.05 -34.1 Q-13.3 -34.1 -11.6 -33.25 L-9.6 -32.4 -9.5 -32.4 -8.75 -32.55 -8.15 -32.7 -8.1 -32.85 -7.95 -32.95 -8.0 -33.0 -8.45 -33.0 -8.45 -35.0 6.15 -36.6 20.4 -37.15 Q20.9 -35.95 21.55 -34.95 L21.55 -34.9 Q22.6 -33.25 24.1 -32.05 26.05 -30.5 26.05 -29.75 26.05 -27.35 21.45 -25.7 L15.4 -23.85 Q16.0 -22.75 16.0 -21.35 L15.65 -20.3 15.1 -19.4 13.05 -19.4 13.05 -22.4 11.3 -22.55 9.55 -23.0 9.6 -22.85 9.85 -22.7 9.4 -21.55 8.95 -20.0 6.85 -20.0 5.7 -20.3 Q5.7 -21.8 5.1 -23.0 L3.65 -21.2 2.2 -19.4 M10.0 -26.85 Q11.85 -26.85 12.4 -27.5 12.9 -28.1 12.9 -30.1 12.9 -31.7 12.2 -32.0 L9.55 -32.3 9.55 -30.75 10.6 -30.65 10.65 -29.9 10.6 -29.0 Q10.45 -28.6 9.7 -28.55 L9.7 -27.0 9.8 -26.9 10.0 -26.85 M5.1 -23.0 Q5.95 -25.8 5.95 -26.9 L5.7 -28.2 5.65 -28.35 5.65 -28.1 Q4.95 -24.35 2.45 -23.0 L-4.1 -21.15 -5.9 -21.15 Q-5.95 -20.65 -6.35 -19.7 -6.7 -18.8 -6.5 -18.05 M5.65 -28.35 L5.65 -30.75 3.3 -30.75 0.6 -31.2 Q0.1 -31.3 -0.35 -31.65 L-0.8 -32.0 -3.05 -32.15 -6.95 -32.0 Q-7.2 -27.1 -6.2 -21.15 L-5.9 -21.15 M21.55 -34.95 L18.2 -35.1 4.4 -33.85 -6.05 -32.6 Q-7.25 -32.6 -7.95 -32.95 L-7.85 -33.0 -8.0 -33.0 M1.95 -16.1 L1.6 -19.05 Q0.55 -19.85 -0.75 -19.85 L-2.25 -19.55 Q-2.45 -19.35 -2.45 -18.05 L-2.45 -16.55 Q-2.35 -15.85 -1.85 -15.8 L-1.8 -15.8 0.0 -16.1 Q1.15 -16.3 1.95 -16.1 L2.35 -10.15 Q2.8 -4.8 4.2 -1.5 L4.8 -0.4 8.3 6.2 9.9 9.2 Q11.65 12.65 11.65 13.4 L11.05 18.1 12.2 20.8 12.95 22.6 Q15.05 27.4 15.7 31.5 L13.95 31.75 13.2 31.7 12.75 30.3 12.25 30.3 11.95 30.3 11.75 31.8 12.15 31.75 M-11.7 -21.8 L-12.5 -22.1 -13.5 -21.95 -13.05 -21.25 Q-11.95 -19.2 -12.5 -17.1 -10.45 -15.5 -9.6 -10.35 -8.85 -6.0 -7.55 -3.5 -4.5 2.1 -2.4 9.95 L-2.15 10.9 Q-3.15 2.6 -3.0 -6.25 L-4.4 -9.3 -6.15 -11.8 Q-7.65 -14.05 -7.65 -15.15 L-7.05 -16.0 -6.85 -16.15 -9.65 -20.1 -12.2 -24.5 Q-13.05 -26.45 -15.65 -28.3 L-18.9 -30.7 M-2.0 -29.75 L-2.75 -29.75 -2.9 -29.6 Q-1.35 -28.45 -1.35 -28.1 L-1.85 -27.5 Q-2.35 -27.15 -2.65 -27.15 L-3.45 -27.5 -4.1 -28.1 -2.9 -29.6 M-9.6 -32.4 L-9.6 -28.85 Q-9.8 -26.65 -10.85 -25.7 -7.45 -18.75 -6.2 -16.9 L-6.0 -16.65 -1.2 -9.5 -0.8 -8.9 Q-0.75 -9.5 -1.5 -12.2 -1.95 -13.9 -1.85 -15.8 M-3.45 -3.15 L-6.0 -7.6 Q-8.15 -11.35 -8.15 -13.1 -7.85 -15.15 -7.85 -16.55 M-6.0 -16.65 L-6.85 -16.15 M-3.0 -6.25 L-2.9 -6.0 -1.2 -2.7 -0.25 -1.25 Q1.5 1.5 3.25 4.75 4.3 6.75 4.95 9.15 L5.75 10.05 Q6.5 10.6 7.95 10.6 L9.15 10.55 Q9.5 10.35 9.9 9.2 M11.75 31.8 L11.65 32.05 Q12.9 32.4 13.35 34.2 L14.25 37.65 15.15 38.2 16.25 38.85 Q17.5 39.55 17.5 40.45 17.5 42.95 14.55 44.8 11.6 46.65 9.55 45.6 L9.55 45.9 9.55 47.1 10.75 47.55 Q11.35 47.95 11.35 48.25 11.35 50.15 9.0 51.25 7.1 52.15 5.0 52.15 4.15 52.15 2.65 51.55 L0.7 51.05 0.1 50.95 -0.2 50.95 -0.2 49.45 Q0.9 48.85 1.6 48.85 L1.3 48.85 1.3 43.9 2.05 42.55 2.2 42.25 2.8 40.9 2.1 38.25 Q1.45 36.3 1.6 34.45 1.8 31.6 0.85 30.55 -0.2 29.45 -0.2 27.95 L0.4 25.6 Q-0.3 18.5 -1.85 12.1 L-2.15 10.9 M8.05 18.4 Q7.65 17.5 6.95 17.25 6.45 17.05 6.45 16.15 L7.45 14.35 5.9 12.45 Q5.4 11.45 5.75 10.05 M10.95 18.85 Q10.7 18.55 10.15 18.55 7.45 18.55 5.3 19.2 4.3 19.5 3.7 19.95 2.55 20.7 2.55 21.8 2.55 22.5 3.35 22.75 4.25 22.95 4.3 23.55 L4.95 26.5 5.45 29.3 5.95 32.35 M12.2 20.8 L11.0 20.65 10.0 20.95 10.0 22.15 12.25 30.3 M-0.25 -1.25 L1.85 9.2 Q3.3 16.3 3.7 19.95 M11.75 31.8 L7.5 32.3 Q4.5 32.8 4.5 34.75 L5.1 37.7 6.1 41.05 Q7.25 40.1 9.45 39.3 13.7 37.7 15.15 38.2 M4.65 42.4 L2.05 42.55 M1.6 48.85 L3.05 49.45 4.3 49.45 Q9.4 49.45 9.25 46.75 M6.1 41.05 Q4.8 42.1 4.8 43.3 4.8 44.7 6.6 45.4 L9.55 45.9 M0.1 50.65 L0.4 50.95 0.7 51.05 M4.8 -0.4 Q2.95 -2.9 -0.8 -8.9" fill="none" stroke="#000000" stroke-linecap="round" stroke-linejoin="round" stroke-width="1.0"/>
    </g>
  </defs>
</svg>
