<?xml version="1.0" encoding="UTF-8" standalone="no"?>
<svg xmlns:xlink="http://www.w3.org/1999/xlink" height="478.65px" width="812.2px" xmlns="http://www.w3.org/2000/svg">
  <g transform="matrix(1.0, 0.0, 0.0, 1.0, 6.0, 0.0)">
    <use height="444.15" transform="matrix(1.0, 0.0, 0.0, 1.0, -6.0, 34.5)" width="806.2" xlink:href="#sprite0"/>
    <use height="48.3" transform="matrix(1.0143, 0.0, 0.0, 1.0143, 289.3216, 223.0357)" width="220.5" xlink:href="#sprite1"/>
  </g>
  <defs>
    <g id="sprite0" transform="matrix(1.0, 0.0, 0.0, 1.0, 0.0, 0.0)">
      <use height="9.0" transform="matrix(5.9718, 0.0, 0.0, 49.35, 0.0, 0.0)" width="135.0" xlink:href="#shape0"/>
    </g>
    <g id="shape0" transform="matrix(1.0, 0.0, 0.0, 1.0, 0.0, 0.0)">
      <path d="M135.0 9.0 L0.0 9.0 0.0 0.0 135.0 0.0 135.0 9.0" fill="#000000" fill-opacity="0.8862745" fill-rule="evenodd" stroke="none"/>
    </g>
    <g id="sprite1" transform="matrix(1.0, 0.0, 0.0, 1.0, 26.55, 1.0)">
      <use height="26.3" transform="matrix(1.0, 0.0, 0.0, 1.0, -16.35, 21.0)" width="210.3" xlink:href="#text0"/>
    </g>
    <g id="text0" transform="matrix(1.0, 0.0, 0.0, 1.0, 26.55, 1.0)">
      <g transform="matrix(1.0, 0.0, 0.0, 1.0, -28.0, 0.0)">
        <use fill="#ffffff" fill-opacity="0.9764706" height="26.3" transform="matrix(0.0264, 0.0, 0.0, 0.0264, 0.0, 22.0)" width="210.3" xlink:href="#font_Fusion_t0"/>
        <use fill="#ffffff" fill-opacity="0.9764706" height="26.3" transform="matrix(0.0264, 0.0, 0.0, 0.0264, 29.7, 22.0)" width="210.3" xlink:href="#font_Fusion_r0"/>
        <use fill="#ffffff" fill-opacity="0.9764706" height="26.3" transform="matrix(0.0264, 0.0, 0.0, 0.0264, 59.4, 22.0)" width="210.3" xlink:href="#font_Fusion_a0"/>
        <use fill="#ffffff" fill-opacity="0.9764706" height="26.3" transform="matrix(0.0264, 0.0, 0.0, 0.0264, 89.1, 22.0)" width="210.3" xlink:href="#font_Fusion_i0"/>
        <use fill="#ffffff" fill-opacity="0.9764706" height="26.3" transform="matrix(0.0264, 0.0, 0.0, 0.0264, 98.55, 22.0)" width="210.3" xlink:href="#font_Fusion_n0"/>
        <use fill="#ffffff" fill-opacity="0.9764706" height="26.3" transform="matrix(0.0264, 0.0, 0.0, 0.0264, 129.6, 22.0)" width="210.3" xlink:href="#font_Fusion_i0"/>
        <use fill="#ffffff" fill-opacity="0.9764706" height="26.3" transform="matrix(0.0264, 0.0, 0.0, 0.0264, 139.05, 22.0)" width="210.3" xlink:href="#font_Fusion_n0"/>
        <use fill="#ffffff" fill-opacity="0.9764706" height="26.3" transform="matrix(0.0264, 0.0, 0.0, 0.0264, 170.1, 22.0)" width="210.3" xlink:href="#font_Fusion_g0"/>
      </g>
    </g>
    <g id="font_Fusion_t0">
      <path d="M1075.0 -100.5 L1075.0 -256.0 819.0 -256.0 819.0 -203.5 Q819.0 -183.0 804.0 -168.5 789.5 -153.5 769.0 -153.5 L357.0 -153.5 Q337.5 -153.5 322.5 -169.0 307.0 -184.0 307.0 -203.5 L307.0 -409.5 716.5 -409.5 819.0 -563.0 307.0 -563.0 307.0 -614.5 51.0 -614.5 51.0 -100.5 Q51.0 -60.5 81.0 -30.0 111.5 0.0 151.5 0.0 L975.5 0.0 Q1015.5 0.0 1045.5 -29.5 1075.0 -59.5 1075.0 -100.5" fill-rule="evenodd" stroke="none"/>
    </g>
    <g id="font_Fusion_r0">
      <path d="M819.0 -410.5 L819.0 -357.5 Q819.0 -338.0 804.0 -322.5 789.5 -307.0 769.0 -307.0 L409.5 -307.0 682.0 102.5 939.0 102.5 768.0 -153.5 975.5 -153.5 Q1015.5 -153.5 1045.5 -183.0 1075.0 -213.0 1075.0 -254.0 L1075.0 -515.0 Q1075.0 -555.0 1045.5 -585.0 1015.5 -614.5 975.5 -614.5 L51.0 -614.5 51.0 0.0 307.0 0.0 307.0 -461.0 769.0 -461.0 Q789.5 -461.0 804.0 -446.0 819.0 -431.0 819.0 -410.5" fill-rule="evenodd" stroke="none"/>
    </g>
    <g id="font_Fusion_a0">
      <path d="M1075.0 0.0 L1075.0 -614.5 151.5 -614.5 Q110.5 -614.5 80.5 -585.0 51.0 -555.0 51.0 -515.0 L51.0 -100.5 Q51.0 -60.5 81.0 -30.0 111.5 0.0 151.5 0.0 L614.0 0.0 716.5 -153.5 357.0 -153.5 Q336.5 -153.5 322.0 -168.5 307.0 -183.0 307.0 -203.5 L307.0 -411.0 Q307.0 -431.5 322.0 -446.0 336.5 -461.0 357.0 -461.0 L819.0 -461.0 819.0 0.0 1075.0 0.0" fill-rule="evenodd" stroke="none"/>
    </g>
    <g id="font_Fusion_i0">
      <path d="M51.0 0.0 L307.0 0.0 307.0 -614.5 51.0 -614.5 51.0 0.0" fill-rule="evenodd" stroke="none"/>
    </g>
    <g id="font_Fusion_n0">
      <path d="M307.0 -614.5 L51.0 -614.5 51.0 0.0 307.0 0.0 307.0 -409.5 410.5 -409.5 Q431.0 -409.5 445.5 -394.5 460.5 -380.0 460.5 -359.5 L460.5 -100.5 Q460.5 -60.5 490.5 -30.0 521.0 0.0 561.0 0.0 L1026.5 0.0 Q1066.5 0.0 1096.5 -29.5 1126.0 -59.5 1126.0 -100.5 L1126.0 -614.5 870.0 -512.0 870.0 -203.5 Q870.0 -184.0 855.0 -169.0 840.5 -153.5 820.0 -153.5 L766.5 -153.5 Q746.0 -153.5 731.5 -168.5 716.5 -183.0 716.5 -203.5 L716.5 -463.5 Q716.5 -503.5 687.0 -533.5 657.0 -563.0 617.0 -563.0 L307.0 -563.0 307.0 -614.5" fill-rule="evenodd" stroke="none"/>
    </g>
    <g id="font_Fusion_g0">
      <path d="M1075.0 -461.0 L1075.0 -614.5 151.5 -614.5 Q110.5 -614.5 80.5 -585.0 51.0 -555.0 51.0 -515.0 L51.0 -100.5 Q51.0 -60.5 81.0 -30.0 111.5 0.0 151.5 0.0 L975.5 0.0 Q1015.5 0.0 1045.5 -29.5 1075.0 -59.5 1075.0 -100.5 L1075.0 -358.5 409.5 -358.5 512.0 -256.0 819.0 -256.0 819.0 -153.5 357.0 -153.5 Q336.5 -153.5 322.0 -168.5 307.0 -183.0 307.0 -203.5 L307.0 -411.0 Q307.0 -431.5 322.0 -446.0 336.5 -461.0 357.0 -461.0 L1075.0 -461.0" fill-rule="evenodd" stroke="none"/>
    </g>
  </defs>
</svg>
