<?xml version="1.0" encoding="UTF-8" standalone="no"?>
<svg xmlns:xlink="http://www.w3.org/1999/xlink" height="13.2px" width="50.9px" xmlns="http://www.w3.org/2000/svg">
  <g transform="matrix(1.0, 0.0, 0.0, 1.0, 0.0, 0.0)">
    <use height="13.2" transform="matrix(1.0, 0.0, 0.0, 1.0, 0.0, 0.0)" width="50.9" xlink:href="#shape0"/>
  </g>
  <defs>
    <g id="shape0" transform="matrix(1.0, 0.0, 0.0, 1.0, 0.0, 0.0)">
      <path d="M3.3 12.15 Q0.0 10.2 0.0 8.8 0.0 7.7 2.5 5.25 L3.5 4.25 3.6 4.3 3.95 4.15 Q7.9 2.55 29.95 4.3 L35.5 4.2 36.55 4.15 37.95 4.0 38.15 3.95 Q38.35 3.35 38.8 2.9 L39.05 2.7 Q39.35 1.9 39.95 1.3 L40.0 1.2 40.05 1.15 41.25 0.4 41.4 1.0 42.7 0.6 43.65 0.5 44.9 0.3 46.45 0.1 48.0 0.0 50.1 0.1 Q50.9 0.3 50.9 0.95 50.9 1.65 49.5 2.75 L48.25 3.8 48.9 4.6 Q49.5 5.05 49.5 6.4 L49.2 7.6 48.85 8.3 49.2 9.45 Q49.2 10.25 47.9 11.65 46.45 13.2 45.15 13.2 44.2 13.2 43.65 12.35 L43.4 11.7 41.1 11.35 40.25 10.9 Q39.75 10.55 38.95 10.35 L38.6 10.25 37.05 10.4 36.2 10.15 35.85 10.05 Q6.5 12.9 3.8 12.0 L3.3 12.15" fill="#000000" fill-rule="evenodd" stroke="none"/>
      <path d="M37.05 10.4 Q7.8 13.3 5.0 12.4 L4.15 12.65 3.3 12.15 3.8 12.0 Q6.5 12.9 35.85 10.05 L36.2 10.15 37.05 10.4" fill="#1a1a1a" fill-rule="evenodd" stroke="none"/>
    </g>
  </defs>
</svg>
