<?xml version="1.0" encoding="UTF-8" standalone="no"?>
<svg xmlns:xlink="http://www.w3.org/1999/xlink" height="216.0px" width="372.1px" xmlns="http://www.w3.org/2000/svg">
  <g transform="matrix(1.0, 0.0, 0.0, 1.0, 0.0, 0.0)">
    <use height="216.0" transform="matrix(1.0, 0.0, 0.0, 1.0, 0.0, 0.0)" width="372.1" xlink:href="#shape0"/>
  </g>
  <defs>
    <g id="shape0" transform="matrix(1.0, 0.0, 0.0, 1.0, 0.0, 0.0)">
      <path d="M242.65 90.7 L243.55 90.9 Q265.9 96.0 274.1 99.0 L272.25 102.45 Q270.35 105.45 267.1 106.0 L267.1 107.0 298.1 107.0 Q319.8 103.6 340.45 99.3 351.65 97.0 358.6 97.0 L364.1 98.5 Q369.8 100.0 372.1 100.0 370.9 113.75 332.55 131.3 319.6 137.25 305.1 142.4 293.05 146.6 290.1 147.0 275.7 148.85 268.1 158.3 266.25 160.6 265.0 163.0 L263.1 163.0 Q247.5 170.05 240.45 173.5 228.1 179.6 228.1 184.5 228.1 185.75 229.1 188.25 230.1 190.75 230.1 192.0 230.1 197.5 225.15 202.0 220.8 206.0 217.1 206.0 214.6 206.0 196.0 198.0 L177.6 190.0 Q176.1 190.0 167.4 196.0 158.65 202.0 156.1 202.0 L137.1 204.45 Q120.1 206.9 113.0 207.0 109.15 207.0 105.25 208.4 L97.45 211.5 Q84.95 216.0 63.5 216.0 60.35 216.0 56.95 209.05 54.0 202.95 54.0 200.0 54.0 198.8 56.65 194.95 L62.5 186.6 Q66.4 180.8 68.5 176.0 L56.75 175.45 Q51.65 174.05 53.0 167.0 50.0 166.0 42.0 166.0 35.8 166.0 27.95 169.0 20.05 172.0 15.0 172.0 6.0 172.0 3.6 169.4 1.55 167.15 0.0 157.0 11.6 152.4 22.3 147.15 38.0 139.5 38.0 136.5 38.0 135.25 37.0 132.5 36.0 129.75 36.0 128.5 36.0 120.65 40.5 115.0 44.05 110.55 51.65 106.25 55.85 103.9 64.8 99.35 L64.0 102.0 64.0 121.0 64.5 121.15 Q65.0 121.4 65.0 122.0 L75.5 117.0 Q86.2 111.8 89.0 109.0 L89.85 109.4 Q87.3 114.8 82.15 123.55 78.0 131.35 78.0 137.5 78.0 143.0 88.35 150.05 91.7 152.3 95.55 154.35 L99.0 156.0 112.65 153.2 Q129.3 149.6 147.1 145.0 156.75 142.45 160.65 138.9 L162.85 136.5 Q163.9 135.35 165.1 135.0 164.05 133.25 158.3 128.25 L151.45 122.3 Q171.3 126.55 186.0 133.4 194.95 137.55 212.1 147.0 212.1 145.3 214.6 140.7 217.1 136.15 217.1 135.0 217.1 133.05 211.7 130.0 207.55 127.7 204.7 127.15 L214.05 128.0 225.6 129.0 Q236.95 129.0 240.1 126.05 241.1 125.1 241.1 122.5 241.1 120.65 239.6 118.05 238.1 115.5 238.1 113.0 241.1 110.0 244.2 108.9 247.25 107.85 252.1 103.0 L252.1 100.0 Q248.6 98.3 231.55 95.15 214.35 92.0 208.1 92.0 L208.0 91.55 230.55 90.65 242.65 90.7" fill="#ffffff" fill-opacity="0.9411765" fill-rule="evenodd" stroke="none"/>
      <path d="M64.8 99.35 L66.0 98.75 Q74.75 94.0 80.0 89.0 92.75 76.8 108.85 52.45 120.9 34.15 127.0 22.0 128.0 22.0 128.0 21.0 141.1 40.7 158.75 65.8 L181.1 98.0 Q188.05 96.45 189.6 93.1 190.1 91.95 190.1 86.5 190.1 80.0 184.15 74.35 183.5 73.75 171.1 64.25 162.3 57.5 158.05 50.8 152.1 41.35 152.1 28.5 152.1 20.35 155.8 11.65 159.05 4.05 163.1 0.0 190.3 34.65 202.95 54.75 214.25 72.75 218.1 86.0 221.85 86.0 242.65 90.7 L230.55 90.65 208.0 91.55 Q207.35 91.75 207.1 92.0 L208.1 92.0 Q214.35 92.0 231.55 95.15 248.6 98.3 252.1 100.0 L252.1 103.0 Q247.25 107.85 244.2 108.9 241.1 110.0 238.1 113.0 238.1 115.5 239.6 118.05 241.1 120.65 241.1 122.5 241.1 125.1 240.1 126.05 236.95 129.0 225.6 129.0 L214.05 128.0 204.7 127.15 Q207.55 127.7 211.7 130.0 217.1 133.05 217.1 135.0 217.1 136.15 214.6 140.7 212.1 145.3 212.1 147.0 194.95 137.55 186.0 133.4 171.3 126.55 151.45 122.3 L158.3 128.25 Q164.05 133.25 165.1 135.0 163.9 135.35 162.85 136.5 L160.65 138.9 Q156.75 142.45 147.1 145.0 129.3 149.6 112.65 153.2 L99.0 156.0 95.55 154.35 Q91.7 152.3 88.35 150.05 78.0 143.0 78.0 137.5 78.0 131.35 82.15 123.55 87.3 114.8 89.85 109.4 L90.0 109.0 89.0 109.0 Q86.2 111.8 75.5 117.0 L65.0 122.0 Q65.0 121.4 64.5 121.15 L64.0 121.0 64.0 102.0 64.8 99.35 M204.7 127.15 L203.1 127.0 202.25 127.0 204.7 127.15 M151.45 122.3 L151.1 122.0 150.1 122.0 151.45 122.3" fill="#ffffff" fill-opacity="0.5921569" fill-rule="evenodd" stroke="none"/>
    </g>
  </defs>
</svg>
