<?xml version="1.0" encoding="UTF-8" standalone="no"?>
<svg xmlns:xlink="http://www.w3.org/1999/xlink" height="982.95px" width="542.9px" xmlns="http://www.w3.org/2000/svg">
  <g transform="matrix(1.0, 0.0, 0.0, 1.0, 311.5, 274.1)">
    <use height="133.25" transform="matrix(1.0, 0.0, 0.0, 1.0, -62.45, 35.55)" width="147.2" xlink:href="#shape0"/>
    <use height="47.0" transform="matrix(0.9773, 0.0, 0.0, 0.9773, 21.5, 4.45)" width="47.0" xlink:href="#sprite0"/>
    <use height="40.65" id="zonee" transform="matrix(1.0, 0.0, 0.0, 1.0, 15.7, -2.45)" width="42.5" xlink:href="#sprite1"/>
  </g>
  <defs>
    <g id="shape0" transform="matrix(1.0, 0.0, 0.0, 1.0, 62.45, -35.55)">
      <path d="M28.6 42.9 L10.75 102.4 50.35 119.25 69.4 161.45" fill="none" stroke="#000000" stroke-linecap="round" stroke-linejoin="round" stroke-width="14.75"/>
      <path d="M28.6 42.9 L10.75 102.4 -16.7 140.55 -55.1 134.55" fill="none" stroke="#000000" stroke-linecap="round" stroke-linejoin="round" stroke-width="14.75"/>
      <path d="M28.6 42.9 L58.25 70.1 77.4 46.7" fill="none" stroke="#000000" stroke-linecap="round" stroke-linejoin="round" stroke-width="14.75"/>
      <path d="M28.6 42.9 L-15.05 51.25 -20.25 81.3" fill="none" stroke="#000000" stroke-linecap="round" stroke-linejoin="round" stroke-width="14.75"/>
    </g>
    <g id="sprite0" transform="matrix(1.0, 0.0, 0.0, 1.0, 0.0, 0.0)">
      <use height="47.0" transform="matrix(1.0, 0.0, 0.0, 1.0, 0.0, 0.0)" width="47.0" xlink:href="#shape1"/>
    </g>
    <g id="shape1" transform="matrix(1.0, 0.0, 0.0, 1.0, 0.0, 0.0)">
      <path d="M0.0 23.5 Q0.0 13.8 6.85 6.9 13.75 0.0 23.5 0.0 33.2 0.0 40.1 6.9 47.0 13.8 47.0 23.5 47.0 33.25 40.1 40.15 33.2 47.0 23.5 47.0 13.75 47.0 6.85 40.15 0.0 33.25 0.0 23.5" fill="#000000" fill-rule="evenodd" stroke="none"/>
    </g>
    <g id="sprite1" transform="matrix(1.0, 0.0, 0.0, 1.0, 21.25, 20.3)">
      <use height="36.75" transform="matrix(1.9767, 0.0, 0.0, 1.1061, -21.264, -20.3188)" width="21.5" xlink:href="#shape2"/>
    </g>
    <g id="shape2" transform="matrix(1.0, 0.0, 0.0, 1.0, 10.15, 21.85)">
      <path d="M11.35 -21.85 L11.35 14.9 -10.15 14.9 -10.15 -21.85 11.35 -21.85" fill="#010101" fill-opacity="0.0" fill-rule="evenodd" stroke="none"/>
    </g>
  </defs>
</svg>
