<?xml version="1.0" encoding="UTF-8" standalone="no"?>
<svg xmlns:xlink="http://www.w3.org/1999/xlink" height="33.9px" width="232.95px" xmlns="http://www.w3.org/2000/svg">
  <g transform="matrix(1.0, 0.0, 0.0, 1.0, 0.0, 0.0)">
    <use height="33.9" transform="matrix(1.0, 0.0, 0.0, 1.0, 0.0, 0.0)" width="232.95" xlink:href="#shape0"/>
    <use height="26.3" transform="matrix(1.0, 0.0, 0.0, 1.0, 0.3, 4.95)" width="229.95" xlink:href="#button0"/>
    <use height="15.65" transform="matrix(1.0, 0.0, 0.0, 1.0, 81.9, 7.1)" width="76.55" xlink:href="#text0"/>
  </g>
  <defs>
    <g id="shape0" transform="matrix(1.0, 0.0, 0.0, 1.0, 0.0, 0.0)">
      <path d="M232.95 0.0 L232.95 11.0 221.95 0.0 232.95 0.0 M230.95 33.9 L0.0 33.9 0.0 2.0 219.95 2.0 230.95 13.0 230.95 33.9" fill="#ffffff" fill-opacity="0.7019608" fill-rule="evenodd" stroke="none"/>
    </g>
    <g id="button0" transform="matrix(1.0, 0.0, 0.0, 1.0, 4.5, 2.25)">
      <use height="21.8" transform="matrix(1.0, 0.0, 0.0, 1.0, 0.0, 0.0)" width="220.95" xlink:href="#shape1"/>
      <use height="21.8" transform="matrix(1.0, 0.0, 0.0, 1.0, 0.0, 0.0)" width="220.95" xlink:href="#sprite0"/>
    </g>
    <g id="shape1" transform="matrix(1.0, 0.0, 0.0, 1.0, 0.0, 0.0)">
      <path d="M220.95 7.55 L220.95 21.8 0.0 21.8 0.0 0.0 213.4 0.0 220.95 7.55" fill="#000000" fill-opacity="0.3529412" fill-rule="evenodd" stroke="none"/>
    </g>
    <g id="sprite0" transform="matrix(1.0, 0.0, 0.0, 1.0, 0.0, 0.0)">
      <use height="21.8" transform="matrix(1.0, 0.0, 0.0, 1.0, 0.0, 0.0)" width="220.95" xlink:href="#sprite1"/>
    </g>
    <g id="sprite1" transform="matrix(1.0, 0.0, 0.0, 1.0, 0.0, 0.0)">
      <use height="21.8" transform="matrix(1.0, 0.0, 0.0, 1.0, 0.0, 0.0)" width="220.95" xlink:href="#shape2"/>
    </g>
    <g id="shape2" transform="matrix(1.0, 0.0, 0.0, 1.0, 0.0, 0.0)">
      <path d="M220.95 7.55 L220.95 21.8 0.0 21.8 0.0 0.0 213.4 0.0 220.95 7.55" fill="#d50000" fill-opacity="0.6901961" fill-rule="evenodd" stroke="none"/>
    </g>
    <g id="text0" transform="matrix(1.0, 0.0, 0.0, 1.0, -97.05, 1.05)">
      <g transform="matrix(1.0, 0.0, 0.0, 1.0, 24.4, 0.0)">
        <use fill="#000000" height="15.65" transform="matrix(0.0166, 0.0, 0.0, 0.0166, 71.0, 14.0)" width="76.55" xlink:href="#font_Redensek_m0"/>
        <use fill="#000000" height="15.65" transform="matrix(0.0166, 0.0, 0.0, 0.0166, 81.55, 14.0)" width="76.55" xlink:href="#font_Redensek_a0"/>
        <use fill="#000000" height="15.65" transform="matrix(0.0166, 0.0, 0.0, 0.0166, 89.5, 14.0)" width="76.55" xlink:href="#font_Redensek_i0"/>
        <use fill="#000000" height="15.65" transform="matrix(0.0166, 0.0, 0.0, 0.0166, 92.2, 14.0)" width="76.55" xlink:href="#font_Redensek_n0"/>
        <use fill="#000000" height="15.65" transform="matrix(0.0166, 0.0, 0.0, 0.0166, 106.8, 14.0)" width="76.55" xlink:href="#font_Redensek_m0"/>
        <use fill="#000000" height="15.65" transform="matrix(0.0166, 0.0, 0.0, 0.0166, 117.35, 14.0)" width="76.55" xlink:href="#font_Redensek_e0"/>
        <use fill="#000000" height="15.65" transform="matrix(0.0166, 0.0, 0.0, 0.0166, 125.3, 14.0)" width="76.55" xlink:href="#font_Redensek_n0"/>
        <use fill="#000000" height="15.65" transform="matrix(0.0166, 0.0, 0.0, 0.0166, 133.25, 14.0)" width="76.55" xlink:href="#font_Redensek_u0"/>
      </g>
    </g>
    <g id="font_Redensek_m0">
      <path d="M177.0 0.0 L177.0 -311.0 310.5 -311.0 310.5 0.0 409.5 0.0 409.5 -311.0 543.5 -311.0 543.5 0.0 641.5 0.0 641.5 -331.0 564.0 -331.0 564.0 -408.5 389.0 -408.5 389.0 -331.0 331.0 -331.0 331.0 -408.5 78.0 -408.5 78.0 0.0 177.0 0.0" fill-rule="evenodd" stroke="none"/>
    </g>
    <g id="font_Redensek_a0">
      <path d="M156.5 -77.5 L156.5 0.0 488.0 0.0 488.0 -331.0 409.5 -331.0 409.5 -408.5 156.5 -408.5 156.5 -311.0 389.0 -311.0 389.0 -253.0 78.0 -253.0 78.0 -77.5 156.5 -77.5 M177.0 -155.5 L389.0 -155.5 389.0 -97.5 177.0 -97.5 177.0 -155.5" fill-rule="evenodd" stroke="none"/>
    </g>
    <g id="font_Redensek_i0">
      <path d="M176.0 0.0 L176.0 -254.0 78.0 -254.0 78.0 0.0 176.0 0.0 M176.0 -311.0 L176.0 -408.5 78.0 -408.5 78.0 -311.0 176.0 -311.0" fill-rule="evenodd" stroke="none"/>
    </g>
    <g id="font_Redensek_n0">
      <path d="M177.0 0.0 L177.0 -311.0 389.0 -311.0 389.0 0.0 488.0 0.0 488.0 -331.0 409.5 -331.0 409.5 -408.5 78.0 -408.5 78.0 0.0 177.0 0.0" fill-rule="evenodd" stroke="none"/>
    </g>
    <g id="font_Redensek_e0">
      <path d="M409.5 0.0 L409.5 -97.5 177.0 -97.5 177.0 -155.5 488.0 -155.5 488.0 -331.0 409.5 -331.0 409.5 -408.5 156.5 -408.5 156.5 -331.0 78.0 -331.0 78.0 -77.5 156.5 -77.5 156.5 0.0 409.5 0.0 M177.0 -311.0 L389.0 -311.0 389.0 -253.0 177.0 -253.0 177.0 -311.0" fill-rule="evenodd" stroke="none"/>
    </g>
    <g id="font_Redensek_u0">
      <path d="M156.5 0.0 L488.0 0.0 488.0 -408.5 389.0 -408.5 389.0 -97.5 177.0 -97.5 177.0 -408.5 78.0 -408.5 78.0 -77.5 156.5 -77.5 156.5 0.0" fill-rule="evenodd" stroke="none"/>
    </g>
  </defs>
</svg>
