<?xml version="1.0" encoding="UTF-8" standalone="no"?>
<svg xmlns:xlink="http://www.w3.org/1999/xlink" height="343.3px" width="258.95px" xmlns="http://www.w3.org/2000/svg">
  <g transform="matrix(1.0, 0.0, 0.0, 1.0, 117.0, 162.3)">
    <use height="343.3" id="zonee" transform="matrix(1.0, 0.0, 0.0, 1.0, -117.0, -162.3)" width="258.95" xlink:href="#sprite0"/>
  </g>
  <defs>
    <g id="sprite0" transform="matrix(1.0, 0.0, 0.0, 1.0, 129.45, 171.65)">
      <use height="343.3" transform="matrix(1.0, 0.0, 0.0, 1.0, -129.45, -171.65)" width="258.95" xlink:href="#shape0"/>
    </g>
    <g id="shape0" transform="matrix(1.0, 0.0, 0.0, 1.0, 129.45, 171.65)">
      <path d="M33.5 -44.35 L33.5 -91.35 -101.95 -101.35 -101.95 -60.3 33.5 -44.35 M-119.4 -118.6 L46.5 -109.35 46.5 86.65 -119.45 61.65 -119.45 -118.6 -119.4 -118.6 M-54.15 15.65 Q-58.6 7.8 -58.85 5.25 -62.3 -5.15 -66.3 -3.1 -67.85 -2.3 -68.85 0.3 -69.85 2.75 -69.85 5.5 -69.85 8.9 -65.85 17.55 -60.75 28.65 -54.6 28.65 L-50.6 28.15 Q-49.85 27.75 -49.85 26.1 -49.85 23.25 -54.15 15.65 M-30.1 48.15 Q-27.35 46.8 -27.35 45.15 -27.35 42.55 -36.35 42.1 -45.35 41.7 -45.35 45.15 L-44.45 47.4 Q-42.55 49.65 -37.6 49.65 -33.1 49.65 -30.1 48.15 M-39.35 30.9 L-39.6 30.75 -35.85 30.9 -39.35 30.9 M-25.4 32.9 Q-23.35 31.5 -23.35 28.6 -23.35 27.15 -24.3 26.3 -26.25 24.45 -31.55 25.1 -37.0 23.9 -41.95 26.75 -46.35 29.25 -46.35 31.2 L-46.35 31.9 -45.6 33.25 Q-43.65 35.15 -37.6 35.15 -28.65 35.15 -25.4 32.9 M-28.1 29.25 L-28.6 29.5 -31.6 30.0 -29.75 29.4 -28.9 29.25 -28.1 29.25 M-18.35 -0.35 Q-17.15 -4.45 -15.25 -12.45 -13.35 -20.35 -13.35 -21.15 -13.35 -24.25 -14.8 -24.8 -16.25 -25.35 -18.3 -23.3 -23.4 -18.1 -25.85 -5.25 -25.85 -2.15 -26.85 5.8 -27.85 13.7 -27.85 17.25 L-27.6 19.5 -26.9 20.0 -25.85 20.15 Q-21.2 20.15 -19.9 12.1 -19.2 2.55 -18.35 -0.35 M-1.35 -2.6 Q-1.35 -10.65 -5.55 -5.25 -9.2 -0.55 -10.4 3.9 -11.7 8.5 -16.45 15.15 L-20.85 21.35 -20.6 23.0 -19.9 23.5 -18.85 23.65 Q-8.3 16.7 -5.15 10.9 -1.35 3.8 -1.35 -2.6 M-42.85 -27.05 Q-42.85 -21.25 -40.85 -9.25 -38.85 2.75 -38.85 8.95 L-38.85 14.9 Q-38.55 20.65 -37.1 20.65 -32.7 20.65 -31.85 6.55 L-31.85 -8.9 Q-31.85 -25.0 -32.1 -32.9 -36.55 -45.4 -40.05 -39.2 -42.85 -34.25 -42.85 -27.05" fill="#000000" fill-rule="evenodd" stroke="none"/>
      <path d="M33.5 -44.35 L-101.95 -60.3 -101.95 -101.35 33.5 -91.35 33.5 -44.35 M-42.85 -27.05 Q-42.85 -34.25 -40.05 -39.2 -36.55 -45.4 -32.1 -32.9 -31.85 -25.0 -31.85 -8.9 L-31.85 6.55 Q-32.7 20.65 -37.1 20.65 -38.55 20.65 -38.85 14.9 L-38.85 8.95 Q-38.85 2.75 -40.85 -9.25 -42.85 -21.25 -42.85 -27.05 M-1.35 -2.6 Q-1.35 3.8 -5.15 10.9 -8.3 16.7 -18.85 23.65 L-19.9 23.5 -20.6 23.0 -20.85 21.35 -16.45 15.15 Q-11.7 8.5 -10.4 3.9 -9.2 -0.55 -5.55 -5.25 -1.35 -10.65 -1.35 -2.6 M-18.35 -0.35 Q-19.2 2.55 -19.9 12.1 -21.2 20.15 -25.85 20.15 L-26.9 20.0 -27.6 19.5 -27.85 17.25 Q-27.85 13.7 -26.85 5.8 -25.85 -2.15 -25.85 -5.25 -23.4 -18.1 -18.3 -23.3 -16.25 -25.35 -14.8 -24.8 -13.35 -24.25 -13.35 -21.15 -13.35 -20.35 -15.25 -12.45 -17.15 -4.45 -18.35 -0.35 M-28.1 29.25 L-28.9 29.25 -29.75 29.4 -31.6 30.0 -28.6 29.5 -28.1 29.25 M-25.4 32.9 Q-28.65 35.15 -37.6 35.15 -43.65 35.15 -45.6 33.25 L-46.35 31.9 -46.35 31.2 Q-46.35 29.25 -41.95 26.75 -37.0 23.9 -31.55 25.1 -26.25 24.45 -24.3 26.3 -23.35 27.15 -23.35 28.6 -23.35 31.5 -25.4 32.9 M-39.35 30.9 L-35.85 30.9 -39.6 30.75 -39.35 30.9 M-30.1 48.15 Q-33.1 49.65 -37.6 49.65 -42.55 49.65 -44.45 47.4 L-45.35 45.15 Q-45.35 41.7 -36.35 42.1 -27.35 42.55 -27.35 45.15 -27.35 46.8 -30.1 48.15 M-54.15 15.65 Q-49.85 23.25 -49.85 26.1 -49.85 27.75 -50.6 28.15 L-54.6 28.65 Q-60.75 28.65 -65.85 17.55 -69.85 8.9 -69.85 5.5 -69.85 2.75 -68.85 0.3 -67.85 -2.3 -66.3 -3.1 -62.3 -5.15 -58.85 5.25 -58.6 7.8 -54.15 15.65" fill="#ff0000" fill-rule="evenodd" stroke="none"/>
      <path d="M112.5 -163.0 L129.5 -149.35 129.5 161.65 112.5 171.65 112.5 -163.0 M83.5 -138.35 L46.5 -109.35 -119.4 -118.6 -91.45 -147.45 83.5 -138.35 M46.5 86.65 L83.5 139.65 -92.5 109.65 -119.45 61.65 46.5 86.65" fill="#333333" fill-rule="evenodd" stroke="none"/>
      <path d="M46.5 -109.35 L83.5 -138.35 83.5 139.65 46.5 86.65 46.5 -109.35" fill="#1a1a1a" fill-rule="evenodd" stroke="none"/>
      <path d="M112.5 -163.0 L112.5 171.65 -129.45 126.65 -129.45 -171.65 -119.45 -171.65 112.5 -163.0 M83.5 -138.35 L-91.45 -147.45 -119.4 -118.6 -119.45 -118.6 -119.45 61.65 -92.5 109.65 83.5 139.65 83.5 -138.35" fill="#4d4d4d" fill-rule="evenodd" stroke="none"/>
    </g>
  </defs>
</svg>
