<?xml version="1.0" encoding="UTF-8" standalone="no"?>
<svg xmlns:xlink="http://www.w3.org/1999/xlink" height="79.15px" width="38.65px" xmlns="http://www.w3.org/2000/svg">
  <g transform="matrix(1.0, 0.0, 0.0, 1.0, 10.6, 5.05)">
    <use height="12.0" transform="matrix(1.5681, 0.0, 0.0, 1.5681, -2.9, 29.3)" width="12.0" xlink:href="#sprite0"/>
  </g>
  <defs>
    <g id="sprite0" transform="matrix(1.0, 0.0, 0.0, 1.0, 0.0, 0.0)">
      <use height="137.0" transform="matrix(0.0875, 0.0, 0.0, 0.0875, 0.0, 0.0)" width="137.0" xlink:href="#sprite1"/>
    </g>
    <g id="sprite1" transform="matrix(1.0, 0.0, 0.0, 1.0, 0.0, 0.0)">
      <use height="137.0" transform="matrix(1.0, 0.0, 0.0, 1.0, 0.0, 0.0)" width="137.0" xlink:href="#shape0"/>
    </g>
    <g id="shape0" transform="matrix(1.0, 0.0, 0.0, 1.0, 0.0, 0.0)">
      <path d="M137.0 68.5 Q137.0 96.85 116.9 116.9 96.85 137.0 68.5 137.0 40.15 137.0 20.05 116.9 0.0 96.85 0.0 68.5 0.0 40.15 20.05 20.05 40.15 0.0 68.5 0.0 96.85 0.0 116.9 20.05 137.0 40.15 137.0 68.5 M124.85 68.25 Q124.85 45.1 108.4 28.7 92.05 12.35 68.9 12.35 45.75 12.35 29.35 28.7 13.0 45.1 13.0 68.25 13.0 91.4 29.35 107.75 45.75 124.2 68.9 124.2 92.05 124.2 108.4 107.75 124.85 91.4 124.85 68.25" fill="#ffffff" fill-opacity="0.49019608" fill-rule="evenodd" stroke="none"/>
      <path d="M124.85 68.25 Q124.85 91.4 108.4 107.75 92.05 124.2 68.9 124.2 45.75 124.2 29.35 107.75 13.0 91.4 13.0 68.25 13.0 45.1 29.35 28.7 45.75 12.35 68.9 12.35 92.05 12.35 108.4 28.7 124.85 45.1 124.85 68.25" fill="#ffffff" fill-opacity="0.23137255" fill-rule="evenodd" stroke="none"/>
    </g>
  </defs>
</svg>
