<?xml version="1.0" encoding="UTF-8" standalone="no"?>
<svg xmlns:xlink="http://www.w3.org/1999/xlink" height="1341.75px" width="1157.55px" xmlns="http://www.w3.org/2000/svg">
  <g transform="matrix(1.0, 0.0, 0.0, 1.0, 127.9, -1.45)">
    <use height="665.4" transform="matrix(1.0, 0.0, 0.0, 1.0, 430.9, 48.75)" width="28.05" xlink:href="#sprite0"/>
    <use height="665.4" transform="matrix(0.995, 0.0962, -0.0962, 0.995, 376.5637, 49.163)" width="28.05" xlink:href="#sprite0"/>
    <use height="665.4" transform="matrix(1.267, -0.2635, 0.2635, 1.267, 461.6668, 55.4418)" width="28.05" xlink:href="#sprite0"/>
    <use height="665.4" transform="matrix(1.781, 0.0948, -0.0948, 1.781, 331.6274, 36.3915)" width="28.05" xlink:href="#sprite0"/>
    <use height="665.4" transform="matrix(1.4369, -0.325, 0.325, 1.4369, 489.6215, 44.2739)" width="28.05" xlink:href="#sprite0"/>
    <use height="665.4" transform="matrix(-0.9761, 0.108, 0.1231, 1.113, 396.2586, 41.803)" width="28.05" xlink:href="#sprite0"/>
    <use height="665.4" transform="matrix(-0.9594, 0.2145, 0.2164, 1.0971, 449.3346, 36.3897)" width="28.05" xlink:href="#sprite0"/>
    <use height="665.4" transform="matrix(-1.2691, -0.1565, -0.1013, 1.4386, 367.0341, 52.5502)" width="28.05" xlink:href="#sprite0"/>
    <use height="665.4" transform="matrix(-1.7267, 0.2979, 0.3119, 1.972, 491.537, 17.316)" width="28.05" xlink:href="#sprite0"/>
    <use height="665.4" transform="matrix(-1.4426, -0.2065, -0.1403, 1.6344, 338.4166, 43.1452)" width="28.05" xlink:href="#sprite0"/>
    <use height="665.4" transform="matrix(0.9791, 0.2003, -0.2003, 0.9791, 586.6834, 33.4796)" width="28.05" xlink:href="#sprite0"/>
    <use height="665.4" transform="matrix(0.955, 0.2934, -0.2934, 0.955, 533.4018, 22.9511)" width="28.05" xlink:href="#sprite0"/>
    <use height="665.4" transform="matrix(1.2932, -0.0043, 0.0043, 1.2932, 615.4585, 46.1711)" width="28.05" xlink:href="#sprite0"/>
    <use height="665.4" transform="matrix(1.7247, 0.4495, -0.4495, 1.7247, 491.9669, 1.4708)" width="28.05" xlink:href="#sprite0"/>
    <use height="665.4" transform="matrix(1.4719, -0.0303, 0.0303, 1.4719, 645.1059, 40.8425)" width="28.05" xlink:href="#sprite0"/>
    <use height="665.4" transform="matrix(1.0, 0.0, 0.0, 1.0, 714.4, 48.75)" width="28.05" xlink:href="#sprite0"/>
    <use height="665.4" transform="matrix(0.995, 0.0962, -0.0962, 0.995, 660.0637, 49.163)" width="28.05" xlink:href="#sprite0"/>
    <use height="665.4" transform="matrix(1.267, -0.2635, 0.2635, 1.267, 745.1668, 55.4418)" width="28.05" xlink:href="#sprite0"/>
    <use height="665.4" transform="matrix(1.781, 0.0948, -0.0948, 1.781, 615.1274, 36.3915)" width="28.05" xlink:href="#sprite0"/>
    <use height="665.4" transform="matrix(1.4369, -0.325, 0.325, 1.4369, 773.1215, 44.2739)" width="28.05" xlink:href="#sprite0"/>
    <use height="665.4" transform="matrix(-0.9761, 0.108, 0.1231, 1.113, 679.7586, 41.803)" width="28.05" xlink:href="#sprite0"/>
    <use height="665.4" transform="matrix(-0.9594, 0.2145, 0.2164, 1.0971, 732.8346, 36.3897)" width="28.05" xlink:href="#sprite0"/>
    <use height="665.4" transform="matrix(-1.2691, -0.1565, -0.1013, 1.4386, 650.5341, 52.5502)" width="28.05" xlink:href="#sprite0"/>
    <use height="665.4" transform="matrix(-1.7267, 0.2979, 0.3119, 1.972, 775.037, 17.316)" width="28.05" xlink:href="#sprite0"/>
    <use height="665.4" transform="matrix(-1.4426, -0.2065, -0.1403, 1.6344, 621.9166, 43.1452)" width="28.05" xlink:href="#sprite0"/>
    <use height="665.4" transform="matrix(0.9791, 0.2003, -0.2003, 0.9791, 870.1834, 33.4796)" width="28.05" xlink:href="#sprite0"/>
    <use height="665.4" transform="matrix(0.955, 0.2934, -0.2934, 0.955, 816.9018, 22.9511)" width="28.05" xlink:href="#sprite0"/>
    <use height="665.4" transform="matrix(1.2932, -0.0043, 0.0043, 1.2932, 898.9585, 46.1711)" width="28.05" xlink:href="#sprite0"/>
    <use height="665.4" transform="matrix(1.7247, 0.4495, -0.4495, 1.7247, 775.4669, 1.4708)" width="28.05" xlink:href="#sprite0"/>
    <use height="665.4" transform="matrix(1.4719, -0.0303, 0.0303, 1.4719, 928.6059, 40.8425)" width="28.05" xlink:href="#sprite0"/>
    <use height="665.4" transform="matrix(1.0, 0.0, 0.0, 1.0, 110.15, 54.1)" width="28.05" xlink:href="#sprite0"/>
    <use height="665.4" transform="matrix(0.995, 0.0962, -0.0962, 0.995, 55.8137, 54.513)" width="28.05" xlink:href="#sprite0"/>
    <use height="665.4" transform="matrix(1.267, -0.2635, 0.2635, 1.267, 140.9168, 60.7918)" width="28.05" xlink:href="#sprite0"/>
    <use height="665.4" transform="matrix(1.781, 0.0948, -0.0948, 1.781, 10.8774, 41.7415)" width="28.05" xlink:href="#sprite0"/>
    <use height="665.4" transform="matrix(1.4369, -0.325, 0.325, 1.4369, 168.8715, 49.6239)" width="28.05" xlink:href="#sprite0"/>
    <use height="665.4" transform="matrix(-0.9761, 0.108, 0.1231, 1.113, 75.5086, 47.153)" width="28.05" xlink:href="#sprite0"/>
    <use height="665.4" transform="matrix(-0.9594, 0.2145, 0.2164, 1.0971, 128.5846, 41.7397)" width="28.05" xlink:href="#sprite0"/>
    <use height="665.4" transform="matrix(-1.2691, -0.1565, -0.1013, 1.4386, 46.2841, 57.9002)" width="28.05" xlink:href="#sprite0"/>
    <use height="665.4" transform="matrix(-1.7267, 0.2979, 0.3119, 1.972, 170.787, 22.666)" width="28.05" xlink:href="#sprite0"/>
    <use height="665.4" transform="matrix(-1.4426, -0.2065, -0.1403, 1.6344, 17.6666, 48.4952)" width="28.05" xlink:href="#sprite0"/>
    <use height="665.4" transform="matrix(0.9791, 0.2003, -0.2003, 0.9791, 265.9334, 38.8296)" width="28.05" xlink:href="#sprite0"/>
    <use height="665.4" transform="matrix(0.955, 0.2934, -0.2934, 0.955, 212.6518, 28.3011)" width="28.05" xlink:href="#sprite0"/>
    <use height="665.4" transform="matrix(1.2932, -0.0043, 0.0043, 1.2932, 294.7085, 51.5211)" width="28.05" xlink:href="#sprite0"/>
    <use height="665.4" transform="matrix(1.7247, 0.4495, -0.4495, 1.7247, 171.2169, 6.8208)" width="28.05" xlink:href="#sprite0"/>
    <use height="665.4" transform="matrix(1.4719, -0.0303, 0.0303, 1.4719, 324.3559, 46.1925)" width="28.05" xlink:href="#sprite0"/>
  </g>
  <defs/>
</svg>
