<?xml version="1.0" encoding="UTF-8" standalone="no"?>
<svg xmlns:xlink="http://www.w3.org/1999/xlink" height="40.15px" width="93.65px" xmlns="http://www.w3.org/2000/svg">
  <g transform="matrix(1.0, 0.0, 0.0, 1.0, 40.7, 60.65)">
    <use height="14.4" transform="matrix(1.0, 0.0, 0.0, 1.0, -40.7, -59.75)" width="93.65" xlink:href="#sprite0"/>
  </g>
  <defs>
    <g id="sprite0" transform="matrix(1.0, 0.0, 0.0, 1.0, 0.0, 0.0)">
      <use height="14.4" transform="matrix(1.0, 0.0, 0.0, 1.0, 0.0, 0.0)" width="93.65" xlink:href="#shape0"/>
    </g>
    <g id="shape0" transform="matrix(1.0, 0.0, 0.0, 1.0, 0.0, 0.0)">
      <path d="M63.8 5.45 L63.8 2.95 67.6 2.95 67.6 5.6 70.25 5.6 70.25 9.25 67.6 9.25 67.6 11.6 64.1 11.6 64.1 9.15 61.3 9.15 61.3 5.45 63.8 5.45 M64.85 4.05 L64.85 6.5 62.4 6.5 62.4 8.45 64.85 8.45 64.85 10.9 66.75 10.9 66.75 8.45 69.2 8.45 69.2 6.5 66.75 6.5 66.75 4.05 64.85 4.05 M73.3 5.8 L71.4 5.8 71.4 3.3 74.65 0.8 84.3 0.8 85.3 2.1 86.25 0.8 91.3 0.8 93.65 3.15 93.65 11.95 92.0 13.9 86.5 13.9 85.5 12.45 84.45 13.9 73.3 13.9 73.3 5.8 M49.15 3.9 L49.2 4.8 49.2 9.85 49.15 11.0 48.9 11.2 Q48.7 11.2 48.65 11.05 L48.6 9.95 48.6 4.8 48.65 3.9 48.9 3.7 49.15 3.9 M45.55 4.15 L45.45 6.5 45.45 8.4 45.55 10.85 Q45.6 11.55 46.05 12.15 L47.25 13.05 48.9 13.35 50.55 13.0 Q51.35 12.75 51.7 12.1 52.15 11.5 52.25 10.75 L52.3 8.4 52.3 6.5 52.25 4.1 51.7 2.8 Q51.3 2.2 50.5 1.9 L48.9 1.6 47.3 1.9 47.2 1.9 Q46.45 2.25 46.05 2.85 45.6 3.45 45.55 4.15 M41.35 5.75 L40.75 5.75 40.75 1.8 37.55 1.8 37.55 13.1 40.75 13.1 40.75 8.45 41.35 8.45 41.35 13.1 44.45 13.1 44.45 1.8 41.35 1.8 41.35 5.75 M78.4 3.4 Q78.15 4.15 78.15 5.7 L78.15 9.5 78.2 10.7 78.3 11.25 78.9 12.35 80.0 13.05 81.7 13.35 83.05 13.1 84.15 12.35 84.7 11.55 84.75 11.2 84.9 9.35 84.9 5.7 84.75 3.85 84.25 2.75 83.15 1.95 81.45 1.65 Q80.3 1.65 79.5 2.1 78.65 2.55 78.4 3.4 M72.65 5.15 L73.3 5.2 73.8 5.25 74.1 5.6 74.15 5.8 74.15 7.05 74.15 13.1 77.2 13.1 77.2 1.8 75.35 1.8 Q74.3 3.15 72.3 3.6 L72.3 5.15 72.65 5.15 M51.5 0.0 L60.7 0.0 60.7 6.0 59.05 6.0 59.05 14.4 53.6 14.4 53.65 11.75 51.1 14.4 31.15 14.4 30.0 12.7 27.8 14.4 0.15 14.4 0.0 0.0 28.1 0.0 29.45 1.9 31.1 0.0 35.1 0.0 36.6 1.75 36.6 0.0 50.45 0.0 51.5 1.0 51.5 0.0 M18.1 4.55 L18.15 5.2 18.3 8.0 18.45 8.9 17.7 8.9 17.85 8.05 18.05 5.2 18.1 4.55 M14.1 4.3 L14.1 1.8 9.0 1.8 9.0 13.1 14.35 13.1 17.6 13.1 17.75 11.15 18.55 11.15 18.6 11.3 18.7 13.1 21.85 13.1 20.25 1.8 15.85 1.8 14.35 13.1 14.35 10.65 12.2 10.65 12.2 8.45 14.0 8.45 14.0 6.1 12.2 6.1 12.2 4.3 14.1 4.3 M4.85 5.75 L4.25 5.75 4.25 1.8 1.1 1.8 1.1 13.1 4.25 13.1 4.25 8.45 4.85 8.45 4.85 13.1 8.0 13.1 8.0 1.8 4.85 1.8 4.85 5.75 M25.85 4.05 L26.05 4.3 26.05 5.25 26.05 9.5 25.9 10.75 Q25.8 10.95 25.4 10.95 L25.4 4.0 25.85 4.05 M30.3 2.9 Q29.95 3.5 29.95 4.8 L30.0 5.6 30.2 6.35 30.25 6.45 Q30.45 6.95 30.8 7.25 L32.25 8.3 33.25 8.95 33.65 9.35 33.8 10.45 33.7 11.05 33.35 11.2 33.1 11.1 33.0 10.4 33.0 8.9 30.05 8.9 30.05 9.75 Q30.05 11.05 30.35 11.75 L30.55 12.2 31.45 12.9 Q32.25 13.35 33.45 13.35 L35.35 12.95 Q36.2 12.55 36.5 11.95 36.8 11.35 36.8 10.15 36.8 8.55 36.25 7.7 35.75 7.0 33.75 5.85 L33.65 5.8 33.0 5.15 32.9 4.45 33.0 3.9 33.3 3.7 33.55 3.85 33.65 4.5 33.65 5.4 36.6 5.4 36.6 4.85 Q36.6 3.5 36.3 2.95 36.05 2.35 35.2 1.95 34.35 1.6 33.25 1.6 L31.45 1.9 30.3 2.9 M24.55 1.8 L22.25 1.8 22.25 13.1 26.05 13.1 27.6 13.0 Q28.15 12.9 28.55 12.55 L29.05 11.75 29.2 9.75 29.2 5.85 29.2 5.6 29.1 3.7 28.6 2.7 27.4 2.0 24.55 1.8 M88.8 4.75 L88.85 4.2 88.9 3.75 Q88.95 3.6 89.15 3.6 89.4 3.6 89.45 3.75 L89.5 4.6 89.5 4.75 89.5 10.2 89.45 11.15 89.15 11.35 Q88.95 11.35 88.9 11.2 L88.8 10.15 88.8 4.75 M86.05 3.4 Q85.8 4.15 85.8 5.7 L85.8 9.5 Q85.8 10.7 85.95 11.25 L86.1 11.7 86.55 12.35 Q86.95 12.85 87.65 13.05 L89.35 13.35 90.7 13.1 91.05 12.95 91.8 12.35 92.0 12.1 92.4 11.2 92.55 9.45 92.55 9.35 92.55 5.7 92.4 3.85 91.9 2.75 90.8 1.95 89.1 1.65 Q87.95 1.65 87.15 2.1 L86.45 2.7 86.05 3.4 M81.15 10.15 L81.15 4.75 81.25 3.75 Q81.3 3.6 81.5 3.6 81.75 3.6 81.8 3.75 L81.85 4.75 81.85 10.2 81.8 11.15 81.8 11.2 81.5 11.35 Q81.3 11.35 81.25 11.2 L81.25 11.15 81.15 10.15 M52.85 4.3 L54.55 4.3 54.55 13.1 57.7 13.1 57.7 4.3 59.35 4.3 59.35 1.8 52.85 1.8 52.85 4.3" fill="#000000" fill-opacity="0.05882353" fill-rule="evenodd" stroke="none"/>
      <path d="M64.85 4.05 L66.75 4.05 66.75 6.5 69.2 6.5 69.2 8.45 66.75 8.45 66.75 10.9 64.85 10.9 64.85 8.45 62.4 8.45 62.4 6.5 64.85 6.5 64.85 4.05 M72.65 5.15 L72.3 5.15 72.3 3.6 Q74.3 3.15 75.35 1.8 L77.2 1.8 77.2 13.1 74.15 13.1 74.15 7.05 74.15 5.8 74.1 5.6 73.8 5.25 73.3 5.2 72.65 5.15 M78.4 3.4 Q78.65 2.55 79.5 2.1 80.3 1.65 81.45 1.65 L83.15 1.95 84.25 2.75 84.75 3.85 84.9 5.7 84.9 9.35 84.75 11.2 84.7 11.55 84.15 12.35 83.05 13.1 81.7 13.35 80.0 13.05 78.9 12.35 78.3 11.25 78.2 10.7 78.15 9.5 78.15 5.7 Q78.15 4.15 78.4 3.4 M41.35 5.75 L41.35 1.8 44.45 1.8 44.45 13.1 41.35 13.1 41.35 8.45 40.75 8.45 40.75 13.1 37.55 13.1 37.55 1.8 40.75 1.8 40.75 5.75 41.35 5.75 M45.55 4.15 Q45.6 3.45 46.05 2.85 46.45 2.25 47.2 1.9 L47.3 1.9 48.9 1.6 50.5 1.9 Q51.3 2.2 51.7 2.8 L52.25 4.1 52.3 6.5 52.3 8.4 52.25 10.75 Q52.15 11.5 51.7 12.1 51.35 12.75 50.55 13.0 L48.9 13.35 47.25 13.05 46.05 12.15 Q45.6 11.55 45.55 10.85 L45.45 8.4 45.45 6.5 45.55 4.15 M49.15 3.9 L48.9 3.7 48.65 3.9 48.6 4.8 48.6 9.95 48.65 11.05 Q48.7 11.2 48.9 11.2 L49.15 11.0 49.2 9.85 49.2 4.8 49.15 3.9 M52.85 4.3 L52.85 1.8 59.35 1.8 59.35 4.3 57.7 4.3 57.7 13.1 54.55 13.1 54.55 4.3 52.85 4.3 M81.15 10.15 L81.25 11.15 81.25 11.2 Q81.3 11.35 81.5 11.35 L81.8 11.2 81.8 11.15 81.85 10.2 81.85 4.75 81.8 3.75 Q81.75 3.6 81.5 3.6 81.3 3.6 81.25 3.75 L81.15 4.75 81.15 10.15 M86.05 3.4 L86.45 2.7 87.15 2.1 Q87.95 1.65 89.1 1.65 L90.8 1.95 91.9 2.75 92.4 3.85 92.55 5.7 92.55 9.35 92.55 9.45 92.4 11.2 92.0 12.1 91.8 12.35 91.05 12.95 90.7 13.1 89.35 13.35 87.65 13.05 Q86.95 12.85 86.55 12.35 L86.1 11.7 85.95 11.25 Q85.8 10.7 85.8 9.5 L85.8 5.7 Q85.8 4.15 86.05 3.4 M88.8 4.75 L88.8 10.15 88.9 11.2 Q88.95 11.35 89.15 11.35 L89.45 11.15 89.5 10.2 89.5 4.75 89.5 4.6 89.45 3.75 Q89.4 3.6 89.15 3.6 88.95 3.6 88.9 3.75 L88.85 4.2 88.8 4.75 M24.55 1.8 L27.4 2.0 28.6 2.7 29.1 3.7 29.2 5.6 29.2 5.85 29.2 9.75 29.05 11.75 28.55 12.55 Q28.15 12.9 27.6 13.0 L26.05 13.1 22.25 13.1 22.25 1.8 24.55 1.8 M30.3 2.9 L31.45 1.9 33.25 1.6 Q34.35 1.6 35.2 1.95 36.05 2.35 36.3 2.95 36.6 3.5 36.6 4.85 L36.6 5.4 33.65 5.4 33.65 4.5 33.55 3.85 33.3 3.7 33.0 3.9 32.9 4.45 33.0 5.15 33.65 5.8 33.75 5.85 Q35.75 7.0 36.25 7.7 36.8 8.55 36.8 10.15 36.8 11.35 36.5 11.95 36.2 12.55 35.35 12.95 L33.45 13.35 Q32.25 13.35 31.45 12.9 L30.55 12.2 30.35 11.75 Q30.05 11.05 30.05 9.75 L30.05 8.9 33.0 8.9 33.0 10.4 33.1 11.1 33.35 11.2 33.7 11.05 33.8 10.45 33.65 9.35 33.25 8.95 32.25 8.3 30.8 7.25 Q30.45 6.95 30.25 6.45 L30.2 6.35 30.0 5.6 29.95 4.8 Q29.95 3.5 30.3 2.9 M25.85 4.05 L25.4 4.0 25.4 10.95 Q25.8 10.95 25.9 10.75 L26.05 9.5 26.05 5.25 26.05 4.3 25.85 4.05 M4.85 5.75 L4.85 1.8 8.0 1.8 8.0 13.1 4.85 13.1 4.85 8.45 4.25 8.45 4.25 13.1 1.1 13.1 1.1 1.8 4.25 1.8 4.25 5.75 4.85 5.75 M14.1 4.3 L12.2 4.3 12.2 6.1 14.0 6.1 14.0 8.45 12.2 8.45 12.2 10.65 14.35 10.65 14.35 13.1 15.85 1.8 20.25 1.8 21.85 13.1 18.7 13.1 18.6 11.3 18.55 11.15 17.75 11.15 17.6 13.1 14.35 13.1 9.0 13.1 9.0 1.8 14.1 1.8 14.1 4.3 M18.1 4.55 L18.05 5.2 17.85 8.05 17.7 8.9 18.45 8.9 18.3 8.0 18.15 5.2 18.1 4.55" fill="#ffffff" fill-opacity="0.043137256" fill-rule="evenodd" stroke="none"/>
    </g>
  </defs>
</svg>
