<?xml version="1.0" encoding="UTF-8" standalone="no"?>
<svg xmlns:xlink="http://www.w3.org/1999/xlink" height="209.0px" width="83.9px" xmlns="http://www.w3.org/2000/svg">
  <g transform="matrix(1.0, 0.0, 0.0, 1.0, 11.4, 0.0)">
    <use height="206.2" transform="matrix(1.0, 0.0, 0.0, 1.0, 0.4, 0.0)" width="69.7" xlink:href="#shape0"/>
  </g>
  <defs>
    <g id="shape0" transform="matrix(1.0, 0.0, 0.0, 1.0, -0.4, 0.0)">
      <path d="M33.95 43.55 Q38.7 46.65 38.05 51.55 36.85 56.2 32.4 59.05 L32.3 59.4 31.4 59.2 31.0 59.35 Q28.65 57.3 27.85 57.1 27.3 56.95 26.6 57.85 24.25 60.75 17.95 60.75 16.05 60.75 12.95 59.8 9.85 58.8 7.9 58.8 L5.6 58.75 Q4.45 58.8 3.8 59.2 L3.35 57.55 3.45 57.5 3.3 57.35 3.25 57.15 3.2 57.0 2.85 55.85 Q4.35 54.1 6.2 52.7 L9.05 50.75 10.05 50.2 10.35 50.05 Q15.25 48.65 20.7 49.8 L21.2 49.9 22.45 50.8 24.0 52.45 Q25.05 53.7 25.4 54.95 25.55 55.45 26.45 55.45 27.7 55.45 28.5 54.4 29.65 52.85 30.25 52.45 L32.0 50.7 32.6 48.95 33.25 48.3 Q33.7 44.85 32.45 42.65 L33.95 43.55 M34.6 93.35 L34.65 93.3 34.7 93.45 34.7 93.5 35.15 94.1 35.35 94.35 35.55 94.6 36.05 95.45 36.35 95.6 36.2 95.7 33.25 97.7 28.7 102.7 27.25 104.2 25.75 107.4 24.3 110.6 24.2 111.45 Q24.0 112.8 23.65 113.2 L23.85 113.55 23.5 113.75 23.4 113.75 Q22.75 113.75 21.95 112.35 L21.8 112.3 21.85 112.15 21.75 111.95 20.7 109.45 Q20.35 108.6 19.05 107.3 L16.9 105.2 Q14.6 102.8 12.25 101.0 L11.2 100.25 4.9 97.45 2.95 97.35 2.95 97.25 3.0 97.1 3.45 96.1 3.6 95.85 4.45 94.25 4.25 94.15 4.5 94.05 4.8 94.0 Q5.5 94.0 10.8 96.45 16.1 98.85 19.65 98.85 22.15 98.85 25.6 97.8 L29.4 96.45 32.1 94.95 34.6 93.35 M20.75 59.75 L20.3 59.8 20.1 59.85 Q11.95 60.5 10.2 53.8 10.25 57.0 12.7 59.35 L12.85 59.5 13.15 59.75 Q16.85 60.9 20.75 59.75" fill="#e1e1e1" fill-opacity="0.93333334" fill-rule="evenodd" stroke="none"/>
      <path d="M3.35 57.55 L3.3 57.35 3.45 57.5 3.35 57.55" fill="#9d9d9d" fill-opacity="0.93333334" fill-rule="evenodd" stroke="none"/>
      <path d="M32.3 59.4 L32.3 59.6 32.25 59.6 Q31.45 62.8 31.05 66.0 L31.0 66.4 Q30.65 68.95 30.55 71.5 30.35 75.85 30.8 80.2 L33.2 88.5 33.7 90.7 34.15 91.85 34.1 91.85 34.5 93.25 34.6 93.35 32.1 94.95 29.4 96.45 25.6 97.8 Q22.15 98.85 19.65 98.85 16.1 98.85 10.8 96.45 5.5 94.0 4.8 94.0 L4.5 94.05 4.85 93.15 5.3 92.25 5.25 92.25 5.3 92.1 5.35 91.9 5.4 91.9 5.55 91.1 5.7 90.7 5.8 90.1 5.8 90.05 6.45 86.55 6.55 86.25 6.55 85.85 Q6.85 82.85 6.75 79.45 6.45 69.9 3.85 59.4 L3.65 59.3 3.8 59.2 Q4.45 58.8 5.6 58.75 L7.9 58.8 Q9.85 58.8 12.95 59.8 16.05 60.75 17.95 60.75 24.25 60.75 26.6 57.85 27.3 56.95 27.85 57.1 28.65 57.3 31.0 59.35 L31.4 59.2 32.3 59.4 M30.05 59.95 L29.75 59.9 29.8 60.05 30.05 59.95" fill="#000000" fill-opacity="0.9607843" fill-rule="evenodd" stroke="none"/>
      <path d="M2.85 55.85 Q0.8 50.8 0.75 45.05 1.0 39.65 8.4 36.2 L11.5 34.9 Q12.5 34.05 10.6 31.85 8.5 30.7 6.65 28.85 1.7 23.9 1.7 16.9 1.7 9.9 6.65 4.95 11.65 0.0 18.65 0.0 25.65 0.0 30.6 4.95 35.55 9.9 35.55 16.9 35.55 23.9 30.6 28.85 26.45 33.0 20.9 33.7 L21.35 35.0 28.85 36.9 Q32.85 38.05 33.95 43.55 L32.45 42.65 Q33.7 44.85 33.25 48.3 L32.6 48.95 Q31.0 50.3 28.2 51.3 L27.65 49.5 Q25.4 45.35 23.55 44.85 25.2 46.0 26.35 50.45 L25.2 51.05 21.8 50.05 21.2 49.9 20.7 49.8 Q15.25 48.65 10.35 50.05 L10.05 50.2 9.45 47.85 9.05 50.75 6.2 52.7 Q4.35 54.1 2.85 55.85 M36.2 95.7 L36.25 95.75 37.25 97.05 Q39.65 100.75 42.1 105.45 L43.4 108.15 44.7 110.8 44.85 111.15 44.95 111.15 45.05 111.55 45.2 111.9 45.2 112.0 45.4 112.55 45.4 112.65 45.5 112.7 Q45.7 113.5 46.65 115.2 L47.2 116.85 47.25 117.0 47.35 116.85 47.5 117.45 47.5 117.5 47.55 117.5 48.1 118.9 48.25 118.9 48.45 119.75 48.75 120.5 48.75 120.55 49.3 122.0 49.3 122.1 49.55 122.75 53.35 133.8 Q54.0 135.15 53.45 137.95 L53.75 140.15 54.25 142.35 55.2 149.6 55.6 151.85 56.1 155.8 57.6 165.35 58.5 171.75 Q58.6 174.5 59.3 177.3 60.0 180.2 60.45 181.25 L60.75 181.95 61.0 182.5 61.6 183.15 61.55 183.2 61.6 183.2 61.4 183.35 61.75 183.3 61.75 183.35 61.8 183.5 61.95 183.5 62.05 183.6 61.35 183.85 61.25 183.85 61.25 183.9 61.3 183.9 59.95 185.15 Q59.0 186.3 58.25 188.0 L58.25 188.2 56.45 186.6 Q55.35 185.75 53.1 184.75 50.05 183.4 47.6 183.25 L47.65 183.15 47.55 183.1 47.55 182.9 47.3 182.35 47.3 181.4 47.85 179.65 48.2 178.45 Q48.9 177.45 49.05 175.1 L48.8 172.45 48.8 172.4 48.75 172.1 48.65 171.7 48.6 171.35 47.45 167.65 46.1 164.2 45.6 162.95 44.45 160.15 Q43.35 158.05 43.3 157.25 L43.1 156.65 42.45 154.4 41.8 151.85 41.5 149.95 41.5 149.85 41.5 149.6 41.5 149.3 41.35 146.85 41.6 142.85 41.75 141.6 42.15 140.35 42.95 137.85 Q38.0 133.3 34.15 129.0 L34.0 128.95 34.0 128.8 33.9 128.75 32.5 127.1 32.75 126.85 32.15 126.7 31.9 126.55 32.05 126.55 31.45 125.85 Q31.25 125.4 30.85 125.1 L28.35 121.8 28.25 121.7 25.25 117.1 23.6 113.9 23.55 113.9 23.4 113.85 23.35 113.85 23.35 115.8 23.15 121.75 Q23.0 122.25 23.0 123.05 L23.05 123.3 22.55 123.4 23.05 123.45 22.95 124.9 22.55 129.1 22.6 129.1 22.55 130.1 22.45 130.1 22.4 130.55 22.4 130.7 22.35 130.75 20.95 140.7 20.85 143.45 20.8 143.75 20.85 143.5 20.85 143.75 20.8 143.75 20.6 147.9 20.65 148.0 20.65 148.7 20.7 151.05 20.9 152.7 20.9 156.9 20.9 157.3 20.4 162.05 20.3 163.4 20.25 163.65 20.15 163.7 20.1 164.25 19.8 165.2 Q19.2 167.15 18.9 168.9 L18.4 170.1 Q17.7 171.7 17.65 174.9 L17.6 175.2 17.8 178.75 17.95 179.9 17.9 180.85 17.95 181.15 18.45 182.8 18.45 183.0 18.65 183.3 19.4 185.55 19.95 190.25 20.0 190.45 Q17.65 188.2 14.3 188.1 11.1 188.0 8.75 189.95 L9.5 188.0 9.9 185.85 Q10.35 184.9 10.4 181.95 L10.2 179.65 9.95 177.3 9.75 176.1 9.5 174.9 9.35 174.2 8.45 168.55 Q5.6 155.8 5.15 151.55 L5.1 149.85 5.1 149.7 5.1 149.25 5.15 149.25 Q5.3 147.1 5.6 145.05 L5.65 144.9 5.75 144.05 Q5.05 141.05 5.75 138.05 L4.1 131.95 4.1 131.65 3.85 130.6 3.35 129.05 2.3 125.55 2.15 124.9 2.0 124.1 1.75 122.95 1.45 120.4 0.8 116.35 Q0.45 112.7 0.4 110.05 L0.55 108.9 1.25 102.5 Q1.95 99.4 2.9 97.35 L2.95 97.25 2.95 97.35 4.9 97.45 11.2 100.25 12.25 101.0 Q14.6 102.8 16.9 105.2 L19.05 107.3 Q20.35 108.6 20.7 109.45 L21.75 111.95 21.85 112.15 21.8 112.3 21.95 112.35 Q22.75 113.75 23.4 113.75 L23.5 113.75 23.85 113.55 23.65 113.2 Q24.0 112.8 24.2 111.45 L24.3 110.6 25.75 107.4 27.25 104.2 28.7 102.7 33.25 97.7 36.2 95.7 M66.2 187.6 L67.4 187.95 69.85 189.0 69.9 189.0 70.1 189.85 69.75 190.45 69.4 190.35 68.35 190.6 65.55 190.8 65.65 189.3 66.2 187.6 M19.6 38.0 L18.2 36.2 10.45 36.65 18.3 37.0 19.6 38.0 M20.75 36.85 L24.1 36.9 21.45 36.2 20.75 36.85 M53.9 147.75 L53.85 147.8 53.9 147.8 54.05 147.85 53.9 147.75 M33.2 109.75 L33.15 109.75 33.2 109.8 33.2 109.75 M13.25 185.05 L13.45 185.05 13.45 185.0 13.25 184.95 13.25 185.05 M9.4 196.05 L9.2 194.95 Q9.2 193.6 9.65 193.05 10.9 191.6 15.2 191.6 17.3 191.6 18.9 193.5 20.2 195.05 20.2 196.1 L20.05 196.5 19.95 196.85 19.6 197.0 13.35 197.3 10.95 196.65 9.2 196.4 9.4 196.05 M14.35 187.15 L14.35 187.0 14.2 187.05 14.35 187.15" fill="#000000" fill-rule="evenodd" stroke="none"/>
      <path d="M9.05 50.75 L9.45 47.85 10.05 50.2 9.05 50.75 M25.2 51.05 L26.35 50.45 Q25.2 46.0 23.55 44.85 25.4 45.35 27.65 49.5 L28.2 51.3 27.1 51.65 25.2 51.05 M19.6 38.0 L18.3 37.0 10.45 36.65 18.2 36.2 19.6 38.0 M20.75 36.85 L21.45 36.2 24.1 36.9 20.75 36.85" fill="#1a1a1a" fill-rule="evenodd" stroke="none"/>
      <path d="M21.2 49.9 L21.8 50.05 25.2 51.05 27.1 51.65 28.2 51.3 Q31.0 50.3 32.6 48.95 L32.0 50.7 30.25 52.45 Q29.65 52.85 28.5 54.4 27.7 55.45 26.45 55.45 25.55 55.45 25.4 54.95 25.05 53.7 24.0 52.45 L22.45 50.8 21.2 49.9" fill="#666666" fill-rule="evenodd" stroke="none"/>
      <path d="M30.05 59.95 L29.8 60.05 29.75 59.9 30.05 59.95 M33.2 109.75 L33.2 109.8 33.15 109.75 33.2 109.75" fill="#cc0000" fill-rule="evenodd" stroke="none"/>
      <path d="M20.75 59.75 Q16.85 60.9 13.15 59.75 L12.85 59.5 12.7 59.35 Q10.25 57.0 10.2 53.8 11.95 60.5 20.1 59.85 L20.3 59.8 20.75 59.75" fill="#373737" fill-rule="evenodd" stroke="none"/>
      <path d="M45.4 112.55 L45.5 112.7 45.4 112.65 45.4 112.55 M32.5 127.1 L32.15 126.7 32.75 126.85 32.5 127.1 M20.85 143.45 L20.85 143.5 20.8 143.75 20.85 143.45 M5.6 145.05 L5.5 145.05 5.55 144.85 5.65 144.9 5.6 145.05" fill="#4d4d4d" fill-rule="evenodd" stroke="none"/>
      <path d="M23.05 123.3 L23.05 123.35 23.05 123.45 22.55 123.4 23.05 123.3" fill="#262626" fill-rule="evenodd" stroke="none"/>
      <path d="M61.6 183.15 L61.75 183.3 61.4 183.35 61.6 183.2 61.6 183.15 M61.75 183.35 L61.95 183.5 61.8 183.5 61.75 183.35 M13.25 185.05 L13.25 184.95 13.45 185.0 13.45 185.05 13.25 185.05 M14.35 187.15 L14.2 187.05 14.35 187.0 14.35 187.15 M61.3 183.9 L61.25 183.9 61.35 183.85 61.3 183.9" fill="#2b2b2b" fill-rule="evenodd" stroke="none"/>
      <path d="M61.25 183.9 L61.25 183.85 61.35 183.85 61.25 183.9 M61.6 183.2 L61.55 183.2 61.6 183.15 61.6 183.2" fill="#000000" fill-opacity="0.93333334" fill-rule="evenodd" stroke="none"/>
      <path d="M62.05 183.6 L62.25 183.55 62.3 183.65 62.2 183.75 62.85 184.3 63.45 184.95 65.15 186.5 65.95 187.35 66.15 187.4 66.2 187.55 66.2 187.6 65.65 189.3 65.55 190.8 68.35 190.6 69.4 190.35 69.75 190.45 69.75 190.5 69.7 190.65 69.8 191.0 69.8 191.05 69.8 191.15 69.95 192.4 69.95 192.9 69.75 194.45 Q69.4 195.85 68.5 196.75 L68.35 196.95 65.1 197.45 Q60.45 197.45 59.55 195.15 L58.85 193.7 58.15 192.35 56.1 189.55 Q55.3 188.6 54.0 188.1 53.05 187.75 52.7 188.1 51.85 188.2 51.75 190.1 L51.65 190.8 51.45 192.1 51.25 196.1 50.95 196.45 50.55 196.6 49.8 196.3 49.6 195.45 48.65 191.4 47.35 187.6 46.9 186.45 46.9 186.1 46.8 185.55 46.7 183.65 46.75 183.5 46.9 183.45 46.7 183.4 46.8 183.25 47.15 183.25 47.6 183.25 Q50.05 183.4 53.1 184.75 55.35 185.75 56.45 186.6 L58.25 188.2 58.25 188.0 Q59.0 186.3 59.95 185.15 L61.3 183.9 61.35 183.85 62.05 183.6 M20.0 190.45 L20.1 190.55 20.1 190.7 20.0 190.7 Q20.2 192.0 20.55 192.7 L20.6 193.25 20.65 193.5 20.95 195.15 21.15 196.35 21.15 196.4 21.35 196.5 21.1 196.85 21.1 197.3 21.0 197.75 20.8 199.25 20.2 202.25 19.9 203.85 19.4 205.0 19.2 205.1 Q17.1 206.05 14.7 206.2 L13.35 206.0 13.0 205.95 10.7 204.75 10.4 204.4 9.9 202.35 9.05 199.2 8.2 197.0 8.2 196.5 8.0 196.45 8.2 196.45 8.15 194.0 8.15 193.75 8.4 193.05 8.45 191.4 8.45 191.05 8.7 190.15 8.6 190.05 8.75 189.95 Q11.1 188.0 14.3 188.1 17.65 188.2 20.0 190.45 M9.4 196.05 L9.2 196.4 10.95 196.65 13.35 197.3 19.6 197.0 19.95 196.85 20.05 196.5 20.2 196.1 Q20.2 195.05 18.9 193.5 17.3 191.6 15.2 191.6 10.9 191.6 9.65 193.05 9.2 193.6 9.2 194.95 L9.4 196.05" fill="#6f6f6f" fill-rule="evenodd" stroke="none"/>
      <path d="M53.9 147.75 L54.05 147.85 53.9 147.8 53.85 147.8 53.9 147.75" fill="#a90101" fill-rule="evenodd" stroke="none"/>
    </g>
  </defs>
</svg>
