<?xml version="1.0" encoding="UTF-8" standalone="no"?>
<svg xmlns:xlink="http://www.w3.org/1999/xlink" height="27.05px" width="257.55px" xmlns="http://www.w3.org/2000/svg">
  <g transform="matrix(1.0, 0.0, 0.0, 1.0, 125.55, 14.85)">
    <use height="15.5" transform="matrix(1.0, 0.0, 0.0, 1.0, -125.55, -14.85)" width="229.5" xlink:href="#text0"/>
    <use height="12.4" transform="matrix(1.0, 0.0, 0.0, 1.0, -16.05, -0.2)" width="148.05" xlink:href="#text1"/>
  </g>
  <defs>
    <g id="text0" transform="matrix(1.0, 0.0, 0.0, 1.0, 39.0, 1.05)">
      <g transform="matrix(1.0, 0.0, 0.0, 1.0, -39.85, 0.0)">
        <use fill="#ffffff" height="15.5" transform="matrix(0.0146, 0.0, 0.0, 0.0146, 0.0, 12.0)" width="229.5" xlink:href="#font_Fusion_c0"/>
        <use fill="#ffffff" height="15.5" transform="matrix(0.0146, 0.0, 0.0, 0.0146, 15.55, 12.0)" width="229.5" xlink:href="#font_Fusion_o0"/>
        <use fill="#ffffff" height="15.5" transform="matrix(0.0146, 0.0, 0.0, 0.0146, 31.1, 12.0)" width="229.5" xlink:href="#font_Fusion_n0"/>
        <use fill="#ffffff" height="15.5" transform="matrix(0.0146, 0.0, 0.0, 0.0146, 47.4, 12.0)" width="229.5" xlink:href="#font_Fusion_g0"/>
        <use fill="#ffffff" height="15.5" transform="matrix(0.0146, 0.0, 0.0, 0.0146, 62.95, 12.0)" width="229.5" xlink:href="#font_Fusion_r0"/>
        <use fill="#ffffff" height="15.5" transform="matrix(0.0146, 0.0, 0.0, 0.0146, 78.5, 12.0)" width="229.5" xlink:href="#font_Fusion_a0"/>
        <use fill="#ffffff" height="15.5" transform="matrix(0.0146, 0.0, 0.0, 0.0146, 94.05, 12.0)" width="229.5" xlink:href="#font_Fusion_t0"/>
        <use fill="#ffffff" height="15.5" transform="matrix(0.0146, 0.0, 0.0, 0.0146, 109.6, 12.0)" width="229.5" xlink:href="#font_Fusion_u0"/>
        <use fill="#ffffff" height="15.5" transform="matrix(0.0146, 0.0, 0.0, 0.0146, 125.15, 12.0)" width="229.5" xlink:href="#font_Fusion_l0"/>
        <use fill="#ffffff" height="15.5" transform="matrix(0.0146, 0.0, 0.0, 0.0146, 140.7, 12.0)" width="229.5" xlink:href="#font_Fusion_a0"/>
        <use fill="#ffffff" height="15.5" transform="matrix(0.0146, 0.0, 0.0, 0.0146, 156.25, 12.0)" width="229.5" xlink:href="#font_Fusion_t0"/>
        <use fill="#ffffff" height="15.5" transform="matrix(0.0146, 0.0, 0.0, 0.0146, 171.8, 12.0)" width="229.5" xlink:href="#font_Fusion_i0"/>
        <use fill="#ffffff" height="15.5" transform="matrix(0.0146, 0.0, 0.0, 0.0146, 176.1, 12.0)" width="229.5" xlink:href="#font_Fusion_o0"/>
        <use fill="#ffffff" height="15.5" transform="matrix(0.0146, 0.0, 0.0, 0.0146, 191.65, 12.0)" width="229.5" xlink:href="#font_Fusion_n0"/>
        <use fill="#ffffff" height="15.5" transform="matrix(0.0146, 0.0, 0.0, 0.0146, 207.95, 12.0)" width="229.5" xlink:href="#font_Fusion_s0"/>
      </g>
    </g>
    <g id="font_Fusion_c0">
      <path d="M1015.0 -622.5 L158.5 -622.5 Q114.0 -622.5 82.0 -590.5 50.0 -558.5 50.0 -515.0 L50.0 -108.5 Q50.0 -65.0 82.5 -32.5 115.0 0.0 158.5 0.0 L1074.5 0.0 1074.5 -170.5 360.0 -170.5 Q344.5 -170.5 333.0 -182.0 321.5 -193.5 321.5 -209.5 L321.5 -411.5 Q321.5 -428.5 333.0 -440.0 344.5 -452.0 360.0 -452.0 L803.0 -452.0 803.0 -401.5 1074.5 -401.5 1074.5 -563.5 Q1074.5 -587.5 1057.0 -605.0 1039.5 -622.5 1015.0 -622.5" fill-rule="evenodd" stroke="none"/>
    </g>
    <g id="font_Fusion_o0">
      <path d="M966.5 -622.5 L158.5 -622.5 Q114.0 -622.5 82.0 -590.5 50.0 -558.5 50.0 -515.0 L50.0 -108.5 Q50.0 -65.0 82.5 -32.5 115.0 0.0 158.5 0.0 L966.5 0.0 Q1010.0 0.0 1042.5 -32.5 1074.5 -65.5 1074.5 -108.5 L1074.5 -515.0 Q1074.5 -558.0 1042.5 -590.5 1010.0 -622.5 966.5 -622.5 M764.0 -452.0 L764.0 -452.0 Q779.5 -452.0 791.5 -440.0 803.0 -428.5 803.0 -413.0 L803.0 -209.5 Q803.0 -194.0 791.5 -182.0 779.5 -170.5 764.0 -170.5 L360.0 -170.5 Q344.5 -170.5 333.0 -182.0 321.5 -193.5 321.5 -209.5 L321.5 -413.0 Q321.5 -429.0 333.0 -440.5 344.5 -452.0 360.0 -452.0 L764.0 -452.0" fill-rule="evenodd" stroke="none"/>
    </g>
    <g id="font_Fusion_n0">
      <path d="M321.5 -622.5 L50.0 -622.5 50.0 0.0 321.5 0.0 321.5 -401.5 412.5 -401.5 Q428.0 -401.5 440.0 -390.0 451.5 -378.0 451.5 -362.5 L451.5 -108.5 Q451.5 -65.0 484.0 -32.5 516.5 0.0 560.0 0.0 L1016.5 0.0 Q1060.5 0.0 1092.5 -32.0 1124.5 -64.0 1124.5 -108.5 L1124.5 -622.5 853.0 -519.0 853.0 -209.5 Q853.0 -195.0 841.5 -182.5 829.5 -170.5 814.0 -170.5 L761.5 -170.5 Q746.0 -170.5 734.5 -182.0 723.0 -193.5 723.0 -209.5 L723.0 -464.5 Q723.0 -507.5 691.0 -540.0 658.5 -572.0 615.0 -572.0 L321.5 -572.0 321.5 -622.5" fill-rule="evenodd" stroke="none"/>
    </g>
    <g id="font_Fusion_g0">
      <path d="M1074.5 -452.0 L1074.5 -622.5 158.5 -622.5 Q114.0 -622.5 82.0 -590.5 50.0 -558.5 50.0 -515.0 L50.0 -108.5 Q50.0 -65.0 82.5 -32.5 115.0 0.0 158.5 0.0 L966.5 0.0 Q1010.5 0.0 1042.5 -32.0 1074.5 -64.0 1074.5 -108.5 L1074.5 -371.5 401.5 -371.5 507.5 -251.0 803.0 -251.0 803.0 -170.5 360.0 -170.5 Q344.5 -170.5 333.0 -182.0 321.5 -193.5 321.5 -209.5 L321.5 -413.0 Q321.5 -429.0 333.0 -440.5 344.5 -452.0 360.0 -452.0 L1074.5 -452.0" fill-rule="evenodd" stroke="none"/>
    </g>
    <g id="font_Fusion_r0">
      <path d="M803.0 -412.5 L803.0 -360.5 Q803.0 -345.5 791.5 -333.0 779.5 -321.0 764.0 -321.0 L401.5 -321.0 673.0 100.5 941.0 100.5 773.5 -150.5 966.5 -150.5 Q1010.5 -150.5 1042.5 -182.5 1074.5 -214.5 1074.5 -259.0 L1074.5 -515.0 Q1074.5 -558.0 1042.5 -590.5 1010.0 -622.5 966.5 -622.5 L50.0 -622.5 50.0 0.0 321.5 0.0 321.5 -452.0 764.0 -452.0 Q779.5 -452.0 791.5 -440.0 803.0 -428.5 803.0 -412.5" fill-rule="evenodd" stroke="none"/>
    </g>
    <g id="font_Fusion_a0">
      <path d="M1074.5 0.0 L1074.5 -622.5 158.5 -622.5 Q114.0 -622.5 82.0 -590.5 50.0 -558.5 50.0 -515.0 L50.0 -108.5 Q50.0 -65.0 82.5 -32.5 115.0 0.0 158.5 0.0 L618.0 0.0 723.0 -170.5 360.0 -170.5 Q344.5 -170.5 333.0 -182.0 321.5 -193.5 321.5 -209.5 L321.5 -413.0 Q321.5 -429.0 333.0 -440.5 344.5 -452.0 360.0 -452.0 L803.0 -452.0 803.0 0.0 1074.5 0.0" fill-rule="evenodd" stroke="none"/>
    </g>
    <g id="font_Fusion_t0">
      <path d="M1074.5 -108.5 L1074.5 -271.0 803.0 -271.0 803.0 -209.5 Q803.0 -194.0 791.5 -182.0 779.5 -170.5 764.0 -170.5 L360.0 -170.5 Q345.5 -170.5 333.5 -182.5 321.5 -194.5 321.5 -209.5 L321.5 -401.5 718.5 -401.5 823.5 -572.0 321.5 -572.0 321.5 -622.5 50.0 -622.5 50.0 -108.5 Q50.0 -65.0 82.5 -32.5 115.0 0.0 158.5 0.0 L966.5 0.0 Q1010.5 0.0 1042.5 -32.0 1074.5 -64.0 1074.5 -108.5" fill-rule="evenodd" stroke="none"/>
    </g>
    <g id="font_Fusion_u0">
      <path d="M321.5 -622.5 L50.0 -622.5 50.0 -108.5 Q50.0 -65.0 82.5 -32.5 115.0 0.0 158.5 0.0 L768.5 0.0 803.0 -75.5 803.0 0.0 1074.5 0.0 1074.5 -622.5 803.0 -622.5 803.0 -170.5 360.0 -170.5 Q344.5 -170.5 333.0 -182.0 321.5 -193.5 321.5 -209.5 L321.5 -622.5" fill-rule="evenodd" stroke="none"/>
    </g>
    <g id="font_Fusion_l0">
      <path d="M1074.5 -108.5 L1074.5 -271.0 803.0 -271.0 803.0 -209.5 Q803.0 -194.0 791.5 -182.0 779.5 -170.5 764.0 -170.5 L360.0 -170.5 Q345.5 -170.5 333.5 -182.5 321.5 -194.5 321.5 -209.5 L321.5 -622.5 50.0 -622.5 50.0 -108.5 Q50.0 -65.0 82.5 -32.5 115.0 0.0 158.5 0.0 L966.5 0.0 Q1010.5 0.0 1042.5 -32.0 1074.5 -64.0 1074.5 -108.5" fill-rule="evenodd" stroke="none"/>
    </g>
    <g id="font_Fusion_i0">
      <path d="M50.0 0.0 L321.5 0.0 321.5 -622.5 50.0 -622.5 50.0 0.0" fill-rule="evenodd" stroke="none"/>
    </g>
    <g id="font_Fusion_s0">
      <path d="M321.5 -371.5 L321.5 -413.0 Q321.5 -429.0 333.0 -440.5 344.5 -452.0 360.0 -452.0 L969.5 -452.0 1074.5 -622.5 158.5 -622.5 Q114.0 -622.5 82.0 -590.5 50.0 -558.5 50.0 -515.0 L50.0 -251.0 803.0 -251.0 803.0 -209.5 Q803.0 -195.0 791.5 -182.5 779.5 -170.5 764.0 -170.5 L155.0 -170.5 50.0 0.0 966.5 0.0 Q1010.5 0.0 1042.5 -32.0 1074.5 -64.0 1074.5 -108.5 L1074.5 -371.5 321.5 -371.5" fill-rule="evenodd" stroke="none"/>
    </g>
    <g id="text1" transform="matrix(1.0, 0.0, 0.0, 1.0, -1.15, 1.0)">
      <g transform="matrix(1.0, 0.0, 0.0, 1.0, 0.4, 0.0)">
        <use fill="#cc0000" height="12.4" transform="matrix(0.0127, 0.0, 0.0, 0.0127, 0.0, 10.0)" width="148.05" xlink:href="#font_Fusion_y0"/>
        <use fill="#cc0000" height="12.4" transform="matrix(0.0127, 0.0, 0.0, 0.0127, 14.3, 10.0)" width="148.05" xlink:href="#font_Fusion_o1"/>
        <use fill="#cc0000" height="12.4" transform="matrix(0.0127, 0.0, 0.0, 0.0127, 28.6, 10.0)" width="148.05" xlink:href="#font_Fusion_u1"/>
        <use fill="#cc0000" height="12.4" transform="matrix(0.0127, 0.0, 0.0, 0.0127, 53.3, 10.0)" width="148.05" xlink:href="#font_Fusion_m0"/>
        <use fill="#cc0000" height="12.4" transform="matrix(0.0127, 0.0, 0.0, 0.0127, 70.85, 10.0)" width="148.05" xlink:href="#font_Fusion_a1"/>
        <use fill="#cc0000" height="12.4" transform="matrix(0.0127, 0.0, 0.0, 0.0127, 85.15, 10.0)" width="148.05" xlink:href="#font_Fusion_d0"/>
        <use fill="#cc0000" height="12.4" transform="matrix(0.0127, 0.0, 0.0, 0.0127, 99.45, 10.0)" width="148.05" xlink:href="#font_Fusion_e0"/>
        <use fill="#cc0000" height="12.4" transform="matrix(0.0127, 0.0, 0.0, 0.0127, 124.15, 10.0)" width="148.05" xlink:href="#font_Fusion_i1"/>
        <use fill="#cc0000" height="12.4" transform="matrix(0.0127, 0.0, 0.0, 0.0127, 128.7, 10.0)" width="148.05" xlink:href="#font_Fusion_t1"/>
      </g>
    </g>
    <g id="font_Fusion_y0">
      <path d="M51.0 -356.5 L51.0 -356.5 Q51.0 -316.5 81.0 -286.0 111.5 -256.0 151.5 -256.0 L819.0 -256.0 819.0 -203.5 Q819.0 -184.0 804.0 -169.0 789.5 -153.5 769.0 -153.5 L153.5 -153.5 256.0 0.0 975.5 0.0 Q1015.5 0.0 1045.5 -29.5 1075.0 -59.5 1075.0 -100.5 L1075.0 -614.5 819.0 -614.5 819.0 -358.5 357.0 -358.5 Q336.5 -358.5 322.0 -373.5 307.0 -388.0 307.0 -408.5 L307.0 -614.5 51.0 -614.5 51.0 -356.5" fill-rule="evenodd" stroke="none"/>
    </g>
    <g id="font_Fusion_o1">
      <path d="M975.5 -614.5 L151.5 -614.5 Q110.5 -614.5 80.5 -585.0 51.0 -555.0 51.0 -515.0 L51.0 -100.5 Q51.0 -60.5 81.0 -30.0 111.5 0.0 151.5 0.0 L975.5 0.0 Q1015.5 0.0 1045.5 -30.0 1075.0 -60.5 1075.0 -100.5 L1075.0 -515.0 Q1075.0 -555.0 1045.5 -585.0 1015.5 -614.5 975.5 -614.5 M769.0 -461.0 L769.0 -461.0 Q789.5 -461.0 804.0 -446.0 819.0 -431.5 819.0 -411.0 L819.0 -203.5 Q819.0 -183.0 804.0 -168.5 789.5 -153.5 769.0 -153.5 L357.0 -153.5 Q336.5 -153.5 322.0 -168.5 307.0 -183.0 307.0 -203.5 L307.0 -411.0 Q307.0 -431.5 322.0 -446.0 336.5 -461.0 357.0 -461.0 L769.0 -461.0" fill-rule="evenodd" stroke="none"/>
    </g>
    <g id="font_Fusion_u1">
      <path d="M307.0 -614.5 L51.0 -614.5 51.0 -100.5 Q51.0 -60.5 81.0 -30.0 111.5 0.0 151.5 0.0 L768.0 0.0 819.0 -77.0 819.0 0.0 1075.0 0.0 1075.0 -614.5 819.0 -614.5 819.0 -153.5 357.0 -153.5 Q336.5 -153.5 322.0 -168.5 307.0 -183.0 307.0 -203.5 L307.0 -614.5" fill-rule="evenodd" stroke="none"/>
    </g>
    <g id="font_Fusion_m0">
      <path d="M819.0 -464.0 L819.0 -464.0 Q818.0 -503.5 789.5 -533.5 760.5 -563.0 719.5 -563.0 L307.0 -563.0 307.0 -614.5 51.0 -614.5 51.0 0.0 307.0 0.0 307.0 -409.5 513.0 -409.5 Q533.5 -409.5 548.0 -394.5 563.0 -380.0 563.0 -359.5 L563.0 0.0 819.0 0.0 819.0 -409.5 1025.0 -409.5 Q1045.5 -409.5 1060.0 -394.5 1075.0 -380.0 1075.0 -359.5 L1075.0 0.0 1331.0 0.0 1331.0 -463.5 Q1331.0 -503.5 1301.5 -533.5 1271.5 -563.0 1231.5 -563.0 L819.0 -563.0 819.0 -464.0" fill-rule="evenodd" stroke="none"/>
    </g>
    <g id="font_Fusion_a1">
      <path d="M1075.0 0.0 L1075.0 -614.5 151.5 -614.5 Q110.5 -614.5 80.5 -585.0 51.0 -555.0 51.0 -515.0 L51.0 -100.5 Q51.0 -60.5 81.0 -30.0 111.5 0.0 151.5 0.0 L614.0 0.0 716.5 -153.5 357.0 -153.5 Q336.5 -153.5 322.0 -168.5 307.0 -183.0 307.0 -203.5 L307.0 -411.0 Q307.0 -431.5 322.0 -446.0 336.5 -461.0 357.0 -461.0 L819.0 -461.0 819.0 0.0 1075.0 0.0" fill-rule="evenodd" stroke="none"/>
    </g>
    <g id="font_Fusion_d0">
      <path d="M1075.0 0.0 L1075.0 -614.5 819.0 -614.5 819.0 -153.5 357.0 -153.5 Q336.5 -153.5 322.0 -168.5 307.0 -183.0 307.0 -203.5 L307.0 -359.5 Q307.0 -380.0 322.0 -394.5 336.5 -409.5 357.0 -409.5 L614.0 -409.5 716.5 -563.0 151.5 -563.0 Q110.5 -563.0 80.5 -533.5 51.0 -503.5 51.0 -463.5 L51.0 -100.5 Q51.0 -60.5 81.0 -30.0 111.5 0.0 151.5 0.0 L1075.0 0.0" fill-rule="evenodd" stroke="none"/>
    </g>
    <g id="font_Fusion_e0">
      <path d="M819.0 -358.5 L307.0 -358.5 307.0 -411.0 Q307.0 -431.5 322.0 -446.0 336.5 -461.0 357.0 -461.0 L769.0 -461.0 Q789.5 -461.0 804.0 -446.0 819.0 -431.5 819.0 -411.0 L819.0 -358.5 M1075.0 -256.0 L1075.0 -515.0 Q1075.0 -555.0 1045.5 -585.0 1015.5 -614.5 975.5 -614.5 L151.5 -614.5 Q110.5 -614.5 80.5 -585.0 51.0 -555.0 51.0 -515.0 L51.0 -100.5 Q51.0 -60.5 81.0 -30.0 111.5 0.0 151.5 0.0 L870.0 0.0 972.5 -153.5 357.0 -153.5 Q336.5 -153.5 322.0 -168.5 307.0 -183.0 307.0 -203.5 L307.0 -256.0 1075.0 -256.0" fill-rule="evenodd" stroke="none"/>
    </g>
    <g id="font_Fusion_i1">
      <path d="M51.0 0.0 L307.0 0.0 307.0 -614.5 51.0 -614.5 51.0 0.0" fill-rule="evenodd" stroke="none"/>
    </g>
    <g id="font_Fusion_t1">
      <path d="M1075.0 -100.5 L1075.0 -256.0 819.0 -256.0 819.0 -203.5 Q819.0 -183.0 804.0 -168.5 789.5 -153.5 769.0 -153.5 L357.0 -153.5 Q337.5 -153.5 322.5 -169.0 307.0 -184.0 307.0 -203.5 L307.0 -409.5 716.5 -409.5 819.0 -563.0 307.0 -563.0 307.0 -614.5 51.0 -614.5 51.0 -100.5 Q51.0 -60.5 81.0 -30.0 111.5 0.0 151.5 0.0 L975.5 0.0 Q1015.5 0.0 1045.5 -29.5 1075.0 -59.5 1075.0 -100.5" fill-rule="evenodd" stroke="none"/>
    </g>
  </defs>
</svg>
