<?xml version="1.0" encoding="UTF-8" standalone="no"?>
<svg xmlns:xlink="http://www.w3.org/1999/xlink" height="7.0px" width="16.25px" xmlns="http://www.w3.org/2000/svg">
  <g transform="matrix(1.0, 0.0, 0.0, 1.0, 8.1, 3.5)">
    <use height="7.0" transform="matrix(1.0, 0.0, 0.0, 1.0, -8.1, -3.5)" width="16.25" xlink:href="#shape0"/>
  </g>
  <defs>
    <g id="shape0" transform="matrix(1.0, 0.0, 0.0, 1.0, 8.1, 3.5)">
      <path d="M0.75 0.15 L2.5 0.8 3.3 1.1 6.05 2.1 8.15 2.65 6.05 2.45 1.75 2.1 1.05 2.1 2.95 3.5 0.9 3.1 -1.2 2.5 -1.2 3.25 -1.55 3.4 -2.2 3.1 -2.75 2.75 Q-3.1 1.75 -3.35 1.65 -4.6 0.9 -4.85 0.9 L-6.2 0.9 -8.1 -0.85 -8.1 -0.9 -6.5 -0.9 Q-5.2 -0.95 -5.0 -1.25 L-5.65 -2.0 Q-5.65 -2.45 -4.25 -2.8 -2.65 -3.25 -2.4 -3.5 -2.4 -2.9 -1.5 -1.75 -0.45 -0.4 0.75 0.15" fill="#ffffff" fill-opacity="0.5411765" fill-rule="evenodd" stroke="none"/>
    </g>
  </defs>
</svg>
