<?xml version="1.0" encoding="UTF-8" standalone="no"?>
<svg xmlns:xlink="http://www.w3.org/1999/xlink" height="49.5px" width="56.05px" xmlns="http://www.w3.org/2000/svg">
  <g transform="matrix(1.0, 0.0, 0.0, 1.0, 19.0, 19.5)">
    <use height="37.7" id="boxx" transform="matrix(1.0, 0.0, 0.0, 1.0, -14.25, -17.35)" width="25.95" xlink:href="#sprite0"/>
    <use height="11.55" transform="matrix(0.6432, -0.5276, 0.5276, 0.6432, -7.5554, -0.0374)" width="30.3" xlink:href="#sprite6"/>
  </g>
  <defs>
    <g id="sprite0" transform="matrix(1.0, 0.0, 0.0, 1.0, 14.05, 18.55)">
      <use height="302.3" id="boxx" transform="matrix(-0.1248, 0.0, 0.0, 0.1248, 11.893, -18.5714)" width="207.9" xlink:href="#sprite1"/>
    </g>
    <g id="sprite1" transform="matrix(1.0, 0.0, 0.0, 1.0, 85.3, 152.45)">
      <use height="210.65" transform="matrix(1.0, 0.0, 0.0, 1.0, -19.1, -85.85)" width="61.85" xlink:href="#shape0"/>
      <use height="48.15" transform="matrix(1.0, 0.0, 0.0, 1.0, -19.1, -75.1)" width="32.15" xlink:href="#sprite2"/>
      <use height="64.6" id="head" transform="matrix(-0.9405, 0.0, 0.0, 0.9402, 44.0, -131.8)" width="64.6" xlink:href="#sprite3"/>
      <use height="59.2" transform="matrix(1.0, 0.0, 0.0, 1.0, -23.85, -36.9)" width="21.6" xlink:href="#sprite4"/>
      <use height="56.9" id="zonee" transform="matrix(1.0, 0.0, 0.0, 1.0, -14.15, -127.95)" width="56.9" xlink:href="#sprite5"/>
    </g>
    <g id="shape0" transform="matrix(1.0, 0.0, 0.0, 1.0, 30.9, 105.3)">
      <path d="M11.15 -93.6 L16.4 -90.25 26.5 -48.15 30.95 -2.8 Q28.1 2.0 22.8 2.0 16.75 1.15 15.7 -1.6 L13.1 -46.3 8.6 -64.2 Q7.15 -39.6 8.75 -19.0 L20.15 40.2 24.85 99.9 Q23.05 102.7 19.75 104.8 4.95 107.4 4.15 98.05 L4.15 37.85 0.35 13.7 -5.05 35.7 -10.1 95.65 Q-11.7 104.85 -26.2 101.1 -29.35 98.7 -30.9 95.75 L-21.2 36.65 -9.0 -6.95 -6.45 -14.95 Q-6.3 -44.35 -2.4 -74.3 L-2.3 -75.15 -2.5 -74.7 -2.2 -76.65 Q-2.85 -77.7 -4.7 -78.4 L-5.7 -79.65 -6.7 -79.9 -10.7 -83.9 -12.7 -87.65 Q-12.4 -88.65 -13.15 -88.95 L-13.2 -88.9 Q-12.7 -91.25 -11.6 -93.15 L-7.4 -94.7 Q-3.35 -95.95 1.0 -96.5 1.75 -105.5 8.15 -105.3 14.9 -104.15 11.25 -94.6 L11.15 -93.6 M1.15 8.8 L1.15 8.9 1.2 8.75 1.15 8.8" fill="#000000" fill-rule="evenodd" stroke="none"/>
    </g>
    <g id="sprite2" transform="matrix(1.0, 0.0, 0.0, 1.0, 16.05, 24.05)">
      <use height="48.15" transform="matrix(1.0, 0.0, 0.0, 1.0, -16.05, -24.05)" width="32.15" xlink:href="#shape1"/>
    </g>
    <g id="shape1" transform="matrix(1.0, 0.0, 0.0, 1.0, 16.05, 24.05)">
      <path d="M8.1 -23.75 Q12.35 -19.4 16.1 -14.0 L16.1 -11.25 15.6 -10.75 15.55 -10.25 Q14.9 -6.45 12.65 -3.65 L12.75 -4.5 11.95 -2.8 11.85 -2.75 11.85 -2.6 0.85 19.45 0.75 21.05 0.6 21.25 -0.4 21.75 -0.45 21.95 Q-1.25 23.25 -3.4 24.0 L-3.65 24.05 Q-9.65 24.4 -14.9 23.0 L-15.1 22.75 -16.05 21.25 -15.85 19.2 1.55 -21.7 Q4.5 -23.1 7.65 -24.05 L8.1 -23.75" fill="#000000" fill-rule="evenodd" stroke="none"/>
    </g>
    <g id="sprite3" transform="matrix(1.0, 0.0, 0.0, 1.0, 0.0, 0.0)">
      <use height="64.6" transform="matrix(1.0, 0.0, 0.0, 1.0, 0.0, 0.0)" width="64.6" xlink:href="#shape2"/>
    </g>
    <g id="shape2" transform="matrix(1.0, 0.0, 0.0, 1.0, 0.0, 0.0)">
      <path d="M55.15 9.45 Q64.6 18.9 64.6 32.25 64.6 45.7 55.15 55.15 50.1 60.2 43.85 62.6 L32.95 64.6 32.25 64.6 26.05 64.05 23.0 63.35 23.0 63.3 22.9 63.3 Q16.75 61.5 11.65 57.2 L10.85 56.5 9.45 55.15 Q0.0 45.7 0.0 32.25 0.0 18.9 9.45 9.45 18.9 0.0 32.25 0.0 45.7 0.0 55.15 9.45" fill="#000000" fill-rule="evenodd" stroke="none"/>
    </g>
    <g id="sprite4" transform="matrix(1.0, 0.0, 0.0, 1.0, 10.8, 29.6)">
      <use height="59.2" transform="matrix(1.0, 0.0, 0.0, 1.0, -10.8, -29.6)" width="21.6" xlink:href="#shape3"/>
    </g>
    <g id="shape3" transform="matrix(1.0, 0.0, 0.0, 1.0, 10.8, 29.6)">
      <path d="M-1.05 -29.45 L-0.7 -29.6 2.3 -29.6 3.3 -28.6 Q5.3 -28.9 5.8 -27.6 L8.3 -27.1 10.8 -24.1 6.85 21.95 Q5.25 24.35 4.3 27.2 L1.45 29.05 Q-7.85 31.45 -10.8 23.05 L-5.9 -24.65 -5.1 -26.5 Q-2.5 -27.8 -1.05 -29.45" fill="#000000" fill-rule="evenodd" stroke="none"/>
    </g>
    <g id="sprite5" transform="matrix(1.0, 0.0, 0.0, 1.0, 28.45, 28.45)">
      <use height="36.75" transform="matrix(2.6465, 0.0, 0.0, 1.5483, -28.4621, -28.4302)" width="21.5" xlink:href="#shape4"/>
    </g>
    <g id="shape4" transform="matrix(1.0, 0.0, 0.0, 1.0, 10.15, 21.85)">
      <path d="M11.35 -21.85 L11.35 14.9 -10.15 14.9 -10.15 -21.85 11.35 -21.85" fill="#010101" fill-opacity="0.0" fill-rule="evenodd" stroke="none"/>
    </g>
    <g id="sprite6" transform="matrix(1.0, 0.0, 0.0, 1.0, 15.15, 5.8)">
      <use height="11.55" transform="matrix(1.0, 0.0, 0.0, 1.0, -15.15, -5.8)" width="30.3" xlink:href="#shape5"/>
    </g>
    <g id="shape5" transform="matrix(1.0, 0.0, 0.0, 1.0, 15.15, 5.8)">
      <path d="M-10.55 -5.8 L-5.7 -5.05 -5.4 -2.55 10.4 2.25 11.0 1.9 15.15 4.0 14.9 5.5 14.35 5.75 -4.55 -1.05 -3.85 -0.8 -3.8 -0.25 0.25 1.85 -2.85 0.9 -1.6 1.75 -0.35 1.95 -1.25 2.3 -3.9 0.8 -4.65 1.1 -6.8 0.3 -4.95 3.3 Q-5.9 1.9 -6.8 0.8 L-6.75 1.15 -8.35 0.85 -9.3 1.15 -11.05 -0.1 -11.35 -1.7 -11.95 -0.55 -12.5 -1.15 Q-15.45 -1.95 -15.1 -5.2 L-12.85 -4.8 -12.75 -5.6 -10.55 -5.8 M-7.4 -3.35 L-5.65 -2.8 -5.95 -4.95 -7.0 -4.6 -6.9 -4.35 -7.4 -3.35" fill="#000000" fill-rule="evenodd" stroke="none"/>
    </g>
  </defs>
</svg>
