<?xml version="1.0" encoding="UTF-8" standalone="no"?>
<svg xmlns:xlink="http://www.w3.org/1999/xlink" height="138.0px" width="661.95px" xmlns="http://www.w3.org/2000/svg">
  <g transform="matrix(1.0, 0.0, 0.0, 1.0, 262.5, 188.5)">
    <use height="138.0" transform="matrix(1.0, 0.0, 0.0, 1.0, -262.5, -188.5)" width="661.95" xlink:href="#shape0"/>
    <use height="31.65" transform="matrix(1.0, 0.0, 0.0, 1.0, -239.6, -116.3)" width="192.55" xlink:href="#text0"/>
    <use height="58.0" transform="matrix(1.0, 0.0, 0.0, 1.0, -256.05, -130.1)" width="184.0" xlink:href="#button0"/>
  </g>
  <defs>
    <g id="shape0" transform="matrix(1.0, 0.0, 0.0, 1.0, 262.5, 188.5)">
      <path d="M-262.0 -82.0 L-247.0 -82.0 -247.0 -188.0 M398.95 -82.0 L-247.0 -82.0 -247.0 -51.0" fill="none" stroke="#010101" stroke-linecap="round" stroke-linejoin="round" stroke-opacity="0.0" stroke-width="1.0"/>
    </g>
    <g id="text0" transform="matrix(1.0, 0.0, 0.0, 1.0, 18.1, -5.05)">
      <g transform="matrix(1.0, 0.0, 0.0, 1.0, -20.55, 0.0)">
        <use fill="#ffffff" height="31.65" transform="matrix(0.0313, 0.0, 0.0, 0.0313, 0.0, 29.0)" width="192.55" xlink:href="#font_Arial_K0"/>
        <use fill="#ffffff" height="31.65" transform="matrix(0.0313, 0.0, 0.0, 0.0313, 23.1, 29.0)" width="192.55" xlink:href="#font_Arial_e0"/>
        <use fill="#ffffff" height="31.65" transform="matrix(0.0313, 0.0, 0.0, 0.0313, 40.9, 29.0)" width="192.55" xlink:href="#font_Arial_e0"/>
        <use fill="#ffffff" height="31.65" transform="matrix(0.0313, 0.0, 0.0, 0.0313, 58.7, 29.0)" width="192.55" xlink:href="#font_Arial_p0"/>
        <use fill="#ffffff" height="31.65" transform="matrix(0.0313, 0.0, 0.0, 0.0313, 78.25, 29.0)" width="192.55" xlink:href="#font_Arial_B0"/>
        <use fill="#ffffff" height="31.65" transform="matrix(0.0313, 0.0, 0.0, 0.0313, 101.35, 29.0)" width="192.55" xlink:href="#font_Arial_u0"/>
        <use fill="#ffffff" height="31.65" transform="matrix(0.0313, 0.0, 0.0, 0.0313, 120.9, 29.0)" width="192.55" xlink:href="#font_Arial_s0"/>
        <use fill="#ffffff" height="31.65" transform="matrix(0.0313, 0.0, 0.0, 0.0313, 138.7, 29.0)" width="192.55" xlink:href="#font_Arial_y0"/>
      </g>
      <g transform="matrix(1.0, 0.0, 0.0, 1.0, -20.55, 0.0)">
        <use fill="#ffffff" height="31.65" transform="matrix(0.0156, 0.0, 0.0, 0.0156, 156.5, 29.0)" width="192.55" xlink:href="#font_Arial_.0"/>
        <use fill="#ffffff" height="31.65" transform="matrix(0.0156, 0.0, 0.0, 0.0156, 160.95, 29.0)" width="192.55" xlink:href="#font_Arial_n0"/>
        <use fill="#ffffff" height="31.65" transform="matrix(0.0156, 0.0, 0.0, 0.0156, 170.7, 29.0)" width="192.55" xlink:href="#font_Arial_e0"/>
        <use fill="#ffffff" height="31.65" transform="matrix(0.0156, 0.0, 0.0, 0.0156, 179.6, 29.0)" width="192.55" xlink:href="#font_Arial_t0"/>
      </g>
    </g>
    <g id="font_Arial_K0">
      <path d="M76.5 0.0 L224.5 0.0 224.5 -221.5 344.5 -344.0 546.0 0.0 737.5 0.0 446.5 -447.5 722.5 -733.0 523.5 -733.0 224.5 -407.5 224.5 -733.0 76.5 -733.0 76.5 0.0" fill-rule="evenodd" stroke="none"/>
    </g>
    <g id="font_Arial_e0">
      <path d="M389.0 -311.0 L179.0 -311.0 Q178.5 -368.5 208.5 -402.0 238.5 -435.5 284.5 -435.5 327.5 -435.5 357.5 -403.5 387.5 -372.0 389.0 -311.0 M381.0 -169.0 L381.0 -169.0 Q369.5 -129.0 347.0 -111.0 324.5 -93.0 291.5 -93.0 243.0 -93.0 210.5 -127.5 178.0 -162.5 176.5 -225.0 L528.5 -225.0 Q531.5 -386.5 463.0 -464.5 394.5 -543.0 276.0 -543.0 170.5 -543.0 101.5 -468.0 32.5 -393.5 32.5 -261.5 32.5 -151.0 85.0 -78.5 151.5 12.0 290.0 12.0 377.5 12.0 436.0 -28.0 494.0 -68.5 521.0 -145.5 L381.0 -169.0" fill-rule="evenodd" stroke="none"/>
    </g>
    <g id="font_Arial_p0">
      <path d="M208.5 -274.5 L208.5 -274.5 Q208.5 -352.5 242.5 -392.0 276.5 -432.0 328.0 -432.0 377.5 -432.0 411.0 -391.5 444.5 -351.0 444.5 -267.5 444.5 -178.0 412.0 -138.5 379.5 -99.5 330.5 -99.5 279.5 -99.5 244.0 -142.0 208.5 -185.0 208.5 -274.5 M69.5 -531.0 L69.5 202.0 210.0 202.0 210.0 -65.5 Q249.5 -23.0 285.5 -5.5 321.0 12.0 365.0 12.0 457.5 12.0 522.5 -61.5 587.5 -135.5 587.5 -268.5 587.5 -398.0 523.0 -470.5 458.5 -543.0 366.0 -543.0 313.0 -543.0 269.5 -518.0 226.0 -493.0 200.5 -453.0 L200.5 -531.0 69.5 -531.0" fill-rule="evenodd" stroke="none"/>
    </g>
    <g id="font_Arial_B0">
      <path d="M223.0 -319.5 L342.5 -319.5 Q443.5 -319.5 474.0 -309.0 504.0 -298.5 520.0 -275.5 536.0 -252.5 536.0 -219.5 536.0 -180.5 515.5 -157.0 494.5 -134.0 461.5 -128.0 440.0 -123.5 360.0 -123.5 L223.0 -123.5 223.0 -319.5 M223.0 -611.0 L308.0 -611.0 Q412.5 -611.0 434.5 -608.5 471.5 -604.0 490.5 -582.5 509.0 -561.5 509.0 -527.5 509.0 -492.0 487.5 -470.0 465.5 -448.5 427.5 -444.0 406.5 -441.5 320.0 -441.5 L223.0 -441.5 223.0 -611.0 M75.0 -733.0 L75.0 0.0 324.5 0.0 Q466.0 -1.0 503.0 -5.0 562.0 -11.5 602.5 -39.5 642.5 -68.0 666.0 -115.0 689.0 -162.5 689.0 -212.5 689.0 -276.0 653.0 -323.0 617.0 -370.0 550.0 -389.5 597.5 -411.0 625.5 -454.0 653.0 -497.0 653.0 -548.5 653.0 -596.0 630.5 -634.0 608.0 -672.5 574.5 -695.5 540.5 -718.5 498.0 -725.5 455.0 -733.0 368.0 -733.0 L75.0 -733.0" fill-rule="evenodd" stroke="none"/>
    </g>
    <g id="font_Arial_u0">
      <path d="M423.0 0.0 L553.5 0.0 553.5 -531.0 413.0 -531.0 413.0 -307.0 Q413.0 -193.0 402.5 -163.5 392.0 -134.5 363.5 -114.5 335.0 -95.0 299.0 -95.0 267.5 -95.0 247.0 -109.5 226.5 -124.5 219.0 -149.5 211.0 -175.0 211.0 -287.0 L211.0 -531.0 70.5 -531.0 70.5 -195.0 Q70.5 -120.0 89.5 -77.5 108.5 -35.0 151.0 -11.5 193.5 12.0 247.0 12.0 299.5 12.0 347.0 -12.5 394.0 -37.0 423.0 -79.5 L423.0 0.0" fill-rule="evenodd" stroke="none"/>
    </g>
    <g id="font_Arial_s0">
      <path d="M24.0 -151.5 L24.0 -151.5 Q43.5 -76.0 107.0 -32.0 170.0 12.0 278.5 12.0 398.0 12.0 459.0 -40.5 520.0 -93.0 520.0 -166.0 520.0 -233.0 476.0 -270.5 431.5 -307.5 319.5 -333.0 207.0 -358.5 188.0 -372.5 174.0 -383.0 174.0 -398.0 174.0 -415.5 190.0 -426.5 214.0 -442.0 269.5 -442.0 313.5 -442.0 337.5 -425.5 361.0 -409.0 369.5 -378.0 L502.0 -402.5 Q482.0 -472.0 429.0 -507.5 376.0 -543.0 267.0 -543.0 152.5 -543.0 98.0 -496.0 43.5 -449.0 43.5 -380.0 43.5 -303.5 106.5 -260.5 152.0 -229.5 322.0 -192.0 358.5 -183.5 369.0 -173.5 379.0 -163.0 379.0 -147.0 379.0 -123.5 360.5 -109.5 333.0 -89.5 278.5 -89.5 229.0 -89.5 201.5 -110.5 174.0 -132.0 165.0 -173.0 L24.0 -151.5" fill-rule="evenodd" stroke="none"/>
    </g>
    <g id="font_Arial_y0">
      <path d="M7.0 -531.0 L209.0 1.5 Q196.5 46.0 173.0 75.0 149.5 103.5 100.5 103.5 74.0 103.5 41.0 97.0 L53.5 207.0 Q92.5 215.5 133.0 215.5 173.0 215.5 205.0 207.0 236.5 198.5 258.5 183.5 280.0 168.0 297.0 143.5 313.5 119.0 332.0 72.5 L365.5 -20.0 553.0 -531.0 407.5 -531.0 283.5 -154.0 156.5 -531.0 7.0 -531.0" fill-rule="evenodd" stroke="none"/>
    </g>
    <g id="font_Arial_.0">
      <path d="M73.5 0.0 L214.0 0.0 214.0 -140.5 73.5 -140.5 73.5 0.0" fill-rule="evenodd" stroke="none"/>
    </g>
    <g id="font_Arial_n0">
      <path d="M556.5 0.0 L556.5 -330.0 Q556.5 -391.5 549.0 -424.5 541.0 -457.5 521.5 -483.5 501.5 -509.5 463.0 -526.0 424.5 -543.0 378.0 -543.0 272.5 -543.0 203.0 -453.0 L203.0 -531.0 72.5 -531.0 72.5 0.0 213.0 0.0 213.0 -240.5 Q213.0 -329.5 224.0 -362.5 234.5 -395.5 263.5 -415.5 292.5 -435.5 329.0 -435.5 357.5 -435.5 378.0 -421.5 398.0 -407.5 407.0 -382.0 416.0 -357.0 416.0 -271.0 L416.0 0.0 556.5 0.0" fill-rule="evenodd" stroke="none"/>
    </g>
    <g id="font_Arial_t0">
      <path d="M317.0 -531.0 L221.0 -531.0 221.0 -718.5 80.0 -636.5 80.0 -531.0 15.5 -531.0 15.5 -419.0 80.0 -419.0 80.0 -187.5 Q80.0 -113.0 84.5 -88.5 90.0 -54.0 104.5 -33.5 118.5 -13.5 149.0 -0.5 179.5 12.0 217.5 12.0 279.5 12.0 328.5 -9.0 L316.5 -118.0 Q279.5 -104.5 260.0 -104.5 246.0 -104.5 236.5 -111.5 226.5 -118.5 224.0 -129.0 221.0 -140.0 221.0 -205.0 L221.0 -419.0 317.0 -419.0 317.0 -531.0" fill-rule="evenodd" stroke="none"/>
    </g>
  </defs>
</svg>
