<?xml version="1.0" encoding="UTF-8" standalone="no"?>
<svg xmlns:xlink="http://www.w3.org/1999/xlink" height="138.0px" width="661.95px" xmlns="http://www.w3.org/2000/svg">
  <g transform="matrix(1.0, 0.0, 0.0, 1.0, 262.5, 188.5)">
    <use height="138.0" transform="matrix(1.0, 0.0, 0.0, 1.0, -262.5, -188.5)" width="661.95" xlink:href="#shape0"/>
    <use height="12.25" transform="matrix(1.0, 0.0, 0.0, 1.0, -240.4, -99.9)" width="232.5" xlink:href="#text0"/>
    <use height="58.0" transform="matrix(1.0, 0.0, 0.0, 1.0, -256.05, -130.1)" width="184.0" xlink:href="#button0"/>
  </g>
  <defs>
    <g id="shape0" transform="matrix(1.0, 0.0, 0.0, 1.0, 262.5, 188.5)">
      <path d="M-262.0 -82.0 L-247.0 -82.0 -247.0 -188.0 M398.95 -82.0 L-247.0 -82.0 -247.0 -51.0" fill="none" stroke="#010101" stroke-linecap="round" stroke-linejoin="round" stroke-opacity="0.0" stroke-width="1.0"/>
    </g>
    <g id="text0" transform="matrix(1.0, 0.0, 0.0, 1.0, -1.35, -1.85)">
      <g transform="matrix(1.0, 0.0, 0.0, 1.0, 0.0, 0.0)">
        <use fill="#ffffff" height="12.25" transform="matrix(0.0127, 0.0, 0.0, 0.0127, 0.0, 13.0)" width="232.5" xlink:href="#font_Jedi_O0"/>
        <use fill="#ffffff" height="12.25" transform="matrix(0.0127, 0.0, 0.0, 0.0127, 10.4, 13.0)" width="232.5" xlink:href="#font_Jedi_N0"/>
        <use fill="#ffffff" height="12.25" transform="matrix(0.0127, 0.0, 0.0, 0.0127, 21.55, 13.0)" width="232.5" xlink:href="#font_Jedi_L0"/>
        <use fill="#ffffff" height="12.25" transform="matrix(0.0127, 0.0, 0.0, 0.0127, 31.7, 13.0)" width="232.5" xlink:href="#font_Jedi_I0"/>
        <use fill="#ffffff" height="12.25" transform="matrix(0.0127, 0.0, 0.0, 0.0127, 42.55, 13.0)" width="232.5" xlink:href="#font_Jedi_N0"/>
        <use fill="#ffffff" height="12.25" transform="matrix(0.0127, 0.0, 0.0, 0.0127, 53.7, 13.0)" width="232.5" xlink:href="#font_Jedi_E0"/>
        <use fill="#ffffff" height="12.25" transform="matrix(0.0127, 0.0, 0.0, 0.0127, 64.45, 13.0)" width="232.5" xlink:href="#font_Jedi_-0"/>
        <use fill="#ffffff" height="12.25" transform="matrix(0.0127, 0.0, 0.0, 0.0127, 75.1, 13.0)" width="232.5" xlink:href="#font_Jedi_G0"/>
        <use fill="#ffffff" height="12.25" transform="matrix(0.0127, 0.0, 0.0, 0.0127, 86.1, 13.0)" width="232.5" xlink:href="#font_Jedi_A0"/>
        <use fill="#ffffff" height="12.25" transform="matrix(0.0127, 0.0, 0.0, 0.0127, 98.7, 13.0)" width="232.5" xlink:href="#font_Jedi_M0"/>
        <use fill="#ffffff" height="12.25" transform="matrix(0.0127, 0.0, 0.0, 0.0127, 112.2, 13.0)" width="232.5" xlink:href="#font_Jedi_E0"/>
        <use fill="#ffffff" height="12.25" transform="matrix(0.0127, 0.0, 0.0, 0.0127, 122.95, 13.0)" width="232.5" xlink:href="#font_Jedi_S0"/>
        <use fill="#ffffff" height="12.25" transform="matrix(0.0127, 0.0, 0.0, 0.0127, 133.3, 13.0)" width="232.5" xlink:href="#font_Jedi_-0"/>
        <use fill="#ffffff" height="12.25" transform="matrix(0.0127, 0.0, 0.0, 0.0127, 143.95, 13.0)" width="232.5" xlink:href="#font_Jedi_Z0"/>
        <use fill="#ffffff" height="12.25" transform="matrix(0.0127, 0.0, 0.0, 0.0127, 154.75, 13.0)" width="232.5" xlink:href="#font_Jedi_O0"/>
        <use fill="#ffffff" height="12.25" transform="matrix(0.0127, 0.0, 0.0, 0.0127, 165.15, 13.0)" width="232.5" xlink:href="#font_Jedi_N0"/>
        <use fill="#ffffff" height="12.25" transform="matrix(0.0127, 0.0, 0.0, 0.0127, 176.3, 13.0)" width="232.5" xlink:href="#font_Jedi_E0"/>
        <use fill="#ffffff" height="12.25" transform="matrix(0.0127, 0.0, 0.0, 0.0127, 187.05, 13.0)" width="232.5" xlink:href="#font_Jedi_.0"/>
        <use fill="#ffffff" height="12.25" transform="matrix(0.0127, 0.0, 0.0, 0.0127, 191.2, 13.0)" width="232.5" xlink:href="#font_Jedi_c0"/>
        <use fill="#ffffff" height="12.25" transform="matrix(0.0127, 0.0, 0.0, 0.0127, 201.3, 13.0)" width="232.5" xlink:href="#font_Jedi_o0"/>
        <use fill="#ffffff" height="12.25" transform="matrix(0.0127, 0.0, 0.0, 0.0127, 211.7, 13.0)" width="232.5" xlink:href="#font_Jedi_m0"/>
      </g>
    </g>
    <g id="font_Jedi_O0">
      <path d="M435.5 -186.0 L435.5 -186.0 Q389.5 -186.0 355.5 -212.5 279.5 -274.0 313.0 -371.5 328.5 -417.5 369.5 -460.0 410.5 -502.5 460.5 -529.0 515.5 -558.0 562.0 -558.0 607.0 -558.0 641.0 -531.0 674.5 -505.5 687.5 -463.5 701.0 -418.5 685.0 -371.5 669.5 -327.0 628.0 -284.0 534.0 -186.0 435.5 -186.0 M625.0 -743.5 L625.0 -743.5 Q484.0 -743.5 329.5 -628.0 174.5 -512.5 127.0 -371.5 79.0 -231.5 155.5 -116.0 232.0 0.0 372.5 0.0 513.0 0.0 667.5 -115.5 822.5 -231.0 870.5 -371.5 918.5 -513.5 842.5 -628.5 766.5 -743.5 625.0 -743.5" fill-rule="evenodd" stroke="none"/>
    </g>
    <g id="font_Jedi_N0">
      <path d="M933.5 -558.0 L980.5 -558.0 1043.5 -743.5 764.0 -743.5 626.5 -338.5 486.0 -743.5 253.0 -743.5 0.5 0.0 233.0 0.0 371.0 -405.5 511.5 0.0 744.0 0.0 933.5 -558.0" fill-rule="evenodd" stroke="none"/>
    </g>
    <g id="font_Jedi_L0">
      <path d="M0.5 0.0 L791.0 0.0 854.0 -186.0 296.0 -186.0 485.5 -743.5 253.0 -743.5 0.5 0.0" fill-rule="evenodd" stroke="none"/>
    </g>
    <g id="font_Jedi_I0">
      <path d="M319.5 -186.0 L63.5 -186.0 0.5 0.0 744.0 0.0 807.0 -186.0 552.0 -186.0 678.5 -558.0 980.5 -558.0 1043.5 -743.5 253.0 -743.5 190.0 -558.0 446.0 -558.0 319.5 -186.0" fill-rule="evenodd" stroke="none"/>
    </g>
    <g id="font_Jedi_E0">
      <path d="M996.5 -743.5 L253.0 -743.5 0.5 0.0 791.0 0.0 854.0 -186.0 296.0 -186.0 328.0 -279.0 653.0 -279.0 716.5 -465.0 391.0 -465.0 422.5 -558.0 933.5 -558.0 996.5 -743.5" fill-rule="evenodd" stroke="none"/>
    </g>
    <g id="font_Jedi_-0">
      <path d="M158.5 -465.0 L95.5 -279.0 839.0 -279.0 902.0 -465.0 158.5 -465.0" fill-rule="evenodd" stroke="none"/>
    </g>
    <g id="font_Jedi_G0">
      <path d="M621.5 -186.0 L482.0 -186.0 Q428.5 -186.0 393.5 -208.0 319.5 -255.0 359.5 -371.5 376.0 -420.5 415.0 -463.5 500.5 -558.0 608.5 -558.0 L980.5 -558.0 1043.5 -743.5 625.0 -743.5 Q514.5 -743.5 410.5 -690.5 310.5 -639.0 235.5 -554.5 160.5 -470.0 127.0 -371.5 95.0 -278.0 111.0 -191.5 128.5 -100.0 198.5 -49.5 267.0 0.0 372.5 0.0 L744.0 0.0 902.0 -465.0 577.0 -465.0 514.0 -279.0 653.5 -279.0 621.5 -186.0" fill-rule="evenodd" stroke="none"/>
    </g>
    <g id="font_Jedi_A0">
      <path d="M688.5 -93.0 L697.5 0.0 930.0 0.0 857.5 -743.5 556.5 -743.5 0.5 0.0 233.0 0.0 302.5 -93.0 688.5 -93.0 M666.5 -325.5 L476.5 -325.5 644.0 -550.5 666.5 -325.5" fill-rule="evenodd" stroke="none"/>
    </g>
    <g id="font_Jedi_M0">
      <path d="M950.0 -743.5 L569.5 -306.5 485.5 -743.5 253.0 -743.5 0.5 0.0 233.0 0.0 369.0 -400.0 465.5 0.0 833.5 -400.0 697.5 0.0 976.5 0.0 1039.5 -186.0 993.0 -186.0 1182.5 -743.5 950.0 -743.5" fill-rule="evenodd" stroke="none"/>
    </g>
    <g id="font_Jedi_S0">
      <path d="M482.5 -186.0 L63.5 -186.0 0.5 0.0 419.0 0.0 Q532.0 0.0 602.0 -25.5 721.0 -69.5 761.5 -188.0 783.0 -249.5 756.5 -298.0 737.5 -333.5 685.0 -372.0 L461.0 -535.0 Q450.5 -546.0 452.5 -552.5 454.5 -558.0 469.0 -558.0 L933.5 -558.0 996.5 -743.5 532.0 -743.5 Q441.5 -743.5 340.0 -700.0 221.0 -649.0 190.0 -558.0 175.5 -515.0 176.5 -486.0 178.0 -436.0 223.0 -403.5 L490.5 -209.0 Q506.5 -197.5 504.5 -191.5 502.5 -186.0 482.5 -186.0" fill-rule="evenodd" stroke="none"/>
    </g>
    <g id="font_Jedi_Z0">
      <path d="M0.5 0.0 L791.0 0.0 854.0 -186.0 424.0 -186.0 996.5 -743.5 253.0 -743.5 190.0 -558.0 573.5 -558.0 0.5 0.0" fill-rule="evenodd" stroke="none"/>
    </g>
    <g id="font_Jedi_.0">
      <path d="M312.0 -232.5 L79.5 -232.5 0.5 0.0 233.0 0.0 312.0 -232.5" fill-rule="evenodd" stroke="none"/>
    </g>
    <g id="font_Jedi_c0">
      <path d="M933.5 -558.0 L996.5 -743.5 625.0 -743.5 Q514.5 -743.5 410.5 -690.5 310.5 -639.0 235.5 -554.5 160.5 -470.0 127.0 -371.5 95.0 -278.0 111.0 -191.5 128.5 -100.0 198.5 -49.5 267.0 0.0 372.5 0.0 L744.0 0.0 807.0 -186.0 482.5 -186.0 Q428.5 -186.0 393.5 -208.0 319.5 -255.0 359.5 -371.5 376.0 -420.5 415.0 -463.5 500.5 -558.0 609.0 -558.0 L933.5 -558.0" fill-rule="evenodd" stroke="none"/>
    </g>
    <g id="font_Jedi_o0">
      <path d="M435.5 -186.0 L435.5 -186.0 Q389.5 -186.0 355.5 -212.5 279.5 -274.0 313.0 -371.5 328.5 -417.5 369.5 -460.0 410.5 -502.5 460.5 -529.0 515.5 -558.0 562.0 -558.0 607.0 -558.0 641.0 -531.0 674.5 -505.5 687.5 -463.5 701.0 -418.5 685.0 -371.5 669.5 -327.0 628.0 -284.0 534.0 -186.0 435.5 -186.0 M625.0 -743.5 L625.0 -743.5 Q484.0 -743.5 329.5 -628.0 174.5 -512.5 127.0 -371.5 79.0 -231.5 155.5 -116.0 232.0 0.0 372.5 0.0 513.0 0.0 667.5 -115.5 822.5 -231.0 870.5 -371.5 918.5 -513.5 842.5 -628.5 766.5 -743.5 625.0 -743.5" fill-rule="evenodd" stroke="none"/>
    </g>
    <g id="font_Jedi_m0">
      <path d="M950.0 -743.5 L569.5 -306.5 485.5 -743.5 253.0 -743.5 0.5 0.0 233.0 0.0 369.0 -400.0 465.5 0.0 833.5 -400.0 697.5 0.0 930.0 0.0 1182.5 -743.5 950.0 -743.5" fill-rule="evenodd" stroke="none"/>
    </g>
  </defs>
</svg>
