<?xml version="1.0" encoding="UTF-8" standalone="no"?>
<svg xmlns:xlink="http://www.w3.org/1999/xlink" height="138.0px" width="661.95px" xmlns="http://www.w3.org/2000/svg">
  <g transform="matrix(1.0, 0.0, 0.0, 1.0, 262.5, 188.5)">
    <use height="138.0" transform="matrix(1.0, 0.0, 0.0, 1.0, -262.5, -188.5)" width="661.95" xlink:href="#shape0"/>
    <use height="18.8" transform="matrix(1.0, 0.0, 0.0, 1.0, -242.15, -103.6)" width="134.25" xlink:href="#text0"/>
    <use height="58.0" transform="matrix(1.0, 0.0, 0.0, 1.0, -256.05, -130.1)" width="184.0" xlink:href="#button0"/>
  </g>
  <defs>
    <g id="shape0" transform="matrix(1.0, 0.0, 0.0, 1.0, 262.5, 188.5)">
      <path d="M-262.0 -82.0 L-247.0 -82.0 -247.0 -188.0 M398.95 -82.0 L-247.0 -82.0 -247.0 -51.0" fill="none" stroke="#010101" stroke-linecap="round" stroke-linejoin="round" stroke-opacity="0.0" stroke-width="1.0"/>
    </g>
    <g id="text0" transform="matrix(1.0, 0.0, 0.0, 1.0, -26.45, 1.0)">
      <g transform="matrix(1.0, 0.0, 0.0, 1.0, 26.25, 0.0)">
        <use fill="#ffffff" height="18.8" transform="matrix(0.0225, 0.0, 0.0, 0.0225, 0.0, 17.0)" width="134.25" xlink:href="#font_Acknowledge_TT_BRK_a0"/>
        <use fill="#ffffff" height="18.8" transform="matrix(0.0225, 0.0, 0.0, 0.0225, 12.1, 17.0)" width="134.25" xlink:href="#font_Acknowledge_TT_BRK_n0"/>
        <use fill="#ffffff" height="18.8" transform="matrix(0.0225, 0.0, 0.0, 0.0225, 24.2, 17.0)" width="134.25" xlink:href="#font_Acknowledge_TT_BRK_d0"/>
        <use fill="#ffffff" height="18.8" transform="matrix(0.0225, 0.0, 0.0, 0.0225, 36.3, 17.0)" width="134.25" xlink:href="#font_Acknowledge_TT_BRK_k0"/>
        <use fill="#ffffff" height="18.8" transform="matrix(0.0225, 0.0, 0.0, 0.0225, 48.4, 17.0)" width="134.25" xlink:href="#font_Acknowledge_TT_BRK_o0"/>
        <use fill="#ffffff" height="18.8" transform="matrix(0.0225, 0.0, 0.0, 0.0225, 60.5, 17.0)" width="134.25" xlink:href="#font_Acknowledge_TT_BRK_n0"/>
        <use fill="#ffffff" height="18.8" transform="matrix(0.0225, 0.0, 0.0, 0.0225, 72.6, 17.0)" width="134.25" xlink:href="#font_Acknowledge_TT_BRK_.0"/>
        <use fill="#ffffff" height="18.8" transform="matrix(0.0225, 0.0, 0.0, 0.0225, 77.8, 17.0)" width="134.25" xlink:href="#font_Acknowledge_TT_BRK_c0"/>
        <use fill="#ffffff" height="18.8" transform="matrix(0.0225, 0.0, 0.0, 0.0225, 89.9, 17.0)" width="134.25" xlink:href="#font_Acknowledge_TT_BRK_o0"/>
        <use fill="#ffffff" height="18.8" transform="matrix(0.0225, 0.0, 0.0, 0.0225, 102.0, 17.0)" width="134.25" xlink:href="#font_Acknowledge_TT_BRK_m0"/>
      </g>
    </g>
    <g id="font_Acknowledge_TT_BRK_a0">
      <path d="M307.0 -77.0 L307.0 -153.5 153.5 -153.5 153.5 -77.0 307.0 -77.0 M0.0 -307.0 L0.0 -384.0 460.5 -384.0 460.5 0.0 0.0 0.0 0.0 -230.5 307.0 -230.5 307.0 -307.0 0.0 -307.0" fill-rule="evenodd" stroke="none"/>
    </g>
    <g id="font_Acknowledge_TT_BRK_n0">
      <path d="M153.5 -307.0 L153.5 0.0 0.0 0.0 0.0 -384.0 460.5 -384.0 460.5 0.0 307.0 0.0 307.0 -307.0 153.5 -307.0" fill-rule="evenodd" stroke="none"/>
    </g>
    <g id="font_Acknowledge_TT_BRK_d0">
      <path d="M153.5 -307.0 L153.5 -77.0 307.0 -77.0 307.0 -307.0 153.5 -307.0 M0.0 0.0 L0.0 -384.0 384.0 -384.0 384.0 -307.0 460.5 -307.0 460.5 -77.0 384.0 -77.0 384.0 0.0 0.0 0.0" fill-rule="evenodd" stroke="none"/>
    </g>
    <g id="font_Acknowledge_TT_BRK_k0">
      <path d="M153.5 -153.5 L153.5 0.0 0.0 0.0 0.0 -384.0 153.5 -384.0 153.5 -230.5 230.5 -230.5 230.5 -307.0 307.0 -307.0 307.0 -384.0 460.5 -384.0 460.5 -307.0 384.0 -307.0 384.0 -230.5 307.0 -230.5 307.0 -153.5 384.0 -153.5 384.0 -77.0 460.5 -77.0 460.5 0.0 307.0 0.0 307.0 -77.0 230.5 -77.0 230.5 -153.5 153.5 -153.5" fill-rule="evenodd" stroke="none"/>
    </g>
    <g id="font_Acknowledge_TT_BRK_o0">
      <path d="M153.5 -307.0 L153.5 -77.0 307.0 -77.0 307.0 -307.0 153.5 -307.0 M0.0 0.0 L0.0 -384.0 460.5 -384.0 460.5 0.0 0.0 0.0" fill-rule="evenodd" stroke="none"/>
    </g>
    <g id="font_Acknowledge_TT_BRK_.0">
      <path d="M0.0 0.0 L0.0 -153.5 153.5 -153.5 153.5 0.0 0.0 0.0" fill-rule="evenodd" stroke="none"/>
    </g>
    <g id="font_Acknowledge_TT_BRK_c0">
      <path d="M153.5 -307.0 L153.5 -77.0 460.5 -77.0 460.5 0.0 0.0 0.0 0.0 -384.0 460.5 -384.0 460.5 -307.0 153.5 -307.0" fill-rule="evenodd" stroke="none"/>
    </g>
    <g id="font_Acknowledge_TT_BRK_m0">
      <path d="M153.5 -307.0 L153.5 0.0 0.0 0.0 0.0 -384.0 614.5 -384.0 614.5 0.0 461.0 0.0 461.0 -307.0 384.0 -307.0 384.0 0.0 230.5 0.0 230.5 -307.0 153.5 -307.0" fill-rule="evenodd" stroke="none"/>
    </g>
  </defs>
</svg>
