<?xml version="1.0" encoding="UTF-8" standalone="no"?>
<svg xmlns:xlink="http://www.w3.org/1999/xlink" height="25.1px" width="192.7px" xmlns="http://www.w3.org/2000/svg">
  <g transform="matrix(1.0, 0.0, 0.0, 1.0, 7.25, -4.85)">
    <use height="25.1" transform="matrix(1.0, 0.0, 0.0, 1.0, -7.25, 4.85)" width="192.7" xlink:href="#text0"/>
  </g>
  <defs>
    <g id="text0" transform="matrix(1.0, 0.0, 0.0, 1.0, 9.25, -2.85)">
      <g transform="matrix(1.0, 0.0, 0.0, 1.0, -10.7, 0.0)">
        <use fill="#fe4e4e" height="25.1" transform="matrix(0.0293, 0.0, 0.0, 0.0293, 0.0, 23.0)" width="192.7" xlink:href="#font_LilyUPC_-0"/>
        <use fill="#fe4e4e" height="25.1" transform="matrix(0.0293, 0.0, 0.0, 0.0293, 17.45, 23.0)" width="192.7" xlink:href="#font_LilyUPC_B0"/>
        <use fill="#fe4e4e" height="25.1" transform="matrix(0.0293, 0.0, 0.0, 0.0293, 30.35, 23.0)" width="192.7" xlink:href="#font_LilyUPC_r0"/>
        <use fill="#fe4e4e" height="25.1" transform="matrix(0.0293, 0.0, 0.0, 0.0293, 38.45, 23.0)" width="192.7" xlink:href="#font_LilyUPC_i0"/>
        <use fill="#fe4e4e" height="25.1" transform="matrix(0.0293, 0.0, 0.0, 0.0293, 42.65, 23.0)" width="192.7" xlink:href="#font_LilyUPC_n0"/>
        <use fill="#fe4e4e" height="25.1" transform="matrix(0.0293, 0.0, 0.0, 0.0293, 53.1, 23.0)" width="192.7" xlink:href="#font_LilyUPC_g0"/>
        <use fill="#fe4e4e" height="25.1" transform="matrix(0.0293, 0.0, 0.0, 0.0293, 69.45, 23.0)" width="192.7" xlink:href="#font_LilyUPC_m0"/>
        <use fill="#fe4e4e" height="25.1" transform="matrix(0.0293, 0.0, 0.0, 0.0293, 85.35, 23.0)" width="192.7" xlink:href="#font_LilyUPC_e0"/>
        <use fill="#fe4e4e" height="25.1" transform="matrix(0.0293, 0.0, 0.0, 0.0293, 100.75, 23.0)" width="192.7" xlink:href="#font_LilyUPC_a0"/>
        <use fill="#fe4e4e" height="25.1" transform="matrix(0.0293, 0.0, 0.0, 0.0293, 116.75, 23.0)" width="192.7" xlink:href="#font_LilyUPC_b0"/>
        <use fill="#fe4e4e" height="25.1" transform="matrix(0.0293, 0.0, 0.0, 0.0293, 127.2, 23.0)" width="192.7" xlink:href="#font_LilyUPC_e0"/>
        <use fill="#fe4e4e" height="25.1" transform="matrix(0.0293, 0.0, 0.0, 0.0293, 137.0, 23.0)" width="192.7" xlink:href="#font_LilyUPC_e0"/>
        <use fill="#fe4e4e" height="25.1" transform="matrix(0.0293, 0.0, 0.0, 0.0293, 146.8, 23.0)" width="192.7" xlink:href="#font_LilyUPC_r0"/>
        <use fill="#fe4e4e" height="25.1" transform="matrix(0.0293, 0.0, 0.0, 0.0293, 160.5, 23.0)" width="192.7" xlink:href="#font_LilyUPC_.0"/>
        <use fill="#fe4e4e" height="25.1" transform="matrix(0.0293, 0.0, 0.0, 0.0293, 165.45, 23.0)" width="192.7" xlink:href="#font_LilyUPC_.0"/>
        <use fill="#fe4e4e" height="25.1" transform="matrix(0.0293, 0.0, 0.0, 0.0293, 170.4, 23.0)" width="192.7" xlink:href="#font_LilyUPC_.0"/>
      </g>
    </g>
    <g id="font_LilyUPC_-0">
      <path d="M393.5 -206.5 L393.5 -290.0 48.5 -290.0 48.5 -206.5 393.5 -206.5" fill-rule="evenodd" stroke="none"/>
    </g>
    <g id="font_LilyUPC_B0">
      <path d="M330.0 -348.0 L330.0 -348.0 Q330.0 -314.5 315.0 -302.0 300.0 -289.0 268.5 -289.0 L184.5 -289.0 184.5 -397.0 271.5 -397.0 Q327.5 -397.0 330.0 -348.0 M272.5 -80.0 L184.5 -80.0 184.5 -207.5 269.5 -207.5 Q345.0 -207.5 345.0 -142.5 345.0 -105.0 326.5 -92.5 307.5 -80.0 272.5 -80.0 M280.5 -477.5 L34.0 -477.5 34.0 0.0 256.5 0.0 Q345.5 0.0 403.0 -23.5 461.0 -47.5 461.0 -135.5 459.0 -252.0 313.5 -252.0 358.0 -252.0 398.0 -274.5 438.5 -296.5 438.5 -363.5 437.0 -426.0 395.5 -452.0 354.0 -477.5 280.5 -477.5" fill-rule="evenodd" stroke="none"/>
    </g>
    <g id="font_LilyUPC_r0">
      <path d="M29.0 0.0 L158.0 0.0 158.0 -201.5 Q158.0 -247.0 202.0 -267.0 219.5 -275.5 245.0 -275.5 274.0 -275.5 302.0 -266.0 L289.0 -342.0 Q277.0 -345.0 253.0 -345.0 228.0 -345.0 208.0 -339.0 190.5 -333.5 180.0 -326.5 169.5 -319.5 164.0 -312.5 158.5 -305.5 158.0 -305.0 L158.0 -341.0 29.0 -341.0 29.0 0.0" fill-rule="evenodd" stroke="none"/>
    </g>
    <g id="font_LilyUPC_i0">
      <path d="M90.0 -478.5 L90.0 -478.5 Q62.0 -478.5 41.5 -461.0 21.5 -443.5 21.5 -419.0 21.5 -394.5 42.0 -377.0 62.0 -359.5 90.0 -359.5 118.5 -359.5 138.5 -377.0 159.0 -394.5 159.0 -419.0 159.0 -443.5 138.5 -461.0 118.5 -478.5 90.0 -478.5 M25.5 0.0 L154.5 0.0 154.5 -341.0 25.5 -341.0 25.5 0.0" fill-rule="evenodd" stroke="none"/>
    </g>
    <g id="font_LilyUPC_n0">
      <path d="M368.5 -245.5 L368.5 -245.5 Q368.5 -266.5 356.5 -290.0 344.5 -313.0 316.0 -329.5 288.0 -346.0 243.5 -346.0 215.0 -346.0 195.5 -339.0 176.5 -331.5 166.5 -323.5 156.5 -315.0 154.5 -313.0 L154.5 -341.0 25.5 -341.0 25.5 0.0 154.5 0.0 154.5 -216.0 Q155.0 -228.5 165.0 -249.5 175.0 -270.0 207.0 -274.5 240.0 -274.5 256.5 -259.0 272.5 -244.0 272.5 -222.0 L272.5 0.0 368.5 0.0 368.5 -245.5" fill-rule="evenodd" stroke="none"/>
    </g>
    <g id="font_LilyUPC_g0">
      <path d="M242.0 -252.0 L242.0 -87.0 Q242.0 -85.0 224.5 -77.0 207.0 -69.0 186.5 -67.5 150.0 -67.5 132.5 -91.0 114.5 -114.5 114.5 -167.0 114.5 -228.5 131.5 -251.0 148.0 -273.5 186.5 -273.5 206.0 -272.5 221.0 -265.0 235.5 -257.0 242.0 -252.0 M371.0 36.0 L371.0 -341.0 242.0 -341.0 242.0 -321.5 Q233.5 -328.5 211.5 -339.0 189.0 -349.5 158.0 -349.5 119.5 -349.5 89.0 -335.5 58.5 -321.5 38.5 -280.5 18.5 -239.5 18.5 -165.0 18.5 -66.5 60.0 -31.0 101.5 4.5 153.5 6.0 186.5 6.0 210.0 0.0 233.5 -6.5 242.0 -10.5 L242.0 28.5 Q242.0 51.0 216.5 63.5 191.5 75.5 152.5 75.5 122.5 75.5 95.0 67.5 67.5 59.5 49.5 50.5 31.0 41.5 28.5 39.0 L44.0 130.0 Q47.5 133.5 89.0 141.0 130.5 148.5 190.5 148.5 285.0 146.0 328.0 113.5 371.0 81.5 371.0 36.0" fill-rule="evenodd" stroke="none"/>
    </g>
    <g id="font_LilyUPC_m0">
      <path d="M459.0 0.0 L556.0 0.0 556.0 -252.0 Q556.0 -294.0 524.5 -321.5 493.5 -348.5 431.0 -348.5 396.0 -348.0 373.5 -337.5 351.0 -327.0 341.0 -314.5 331.5 -301.5 331.0 -301.0 328.0 -312.5 310.0 -330.0 292.0 -347.5 247.0 -347.5 191.0 -346.5 158.0 -313.0 L158.0 -341.0 29.0 -341.0 29.0 0.0 158.0 0.0 158.0 -211.0 Q158.5 -224.0 167.5 -244.5 177.0 -265.0 208.0 -268.0 260.0 -268.0 260.0 -216.0 L260.0 0.0 356.0 0.0 356.0 -211.0 Q356.5 -224.0 366.0 -244.5 376.0 -265.0 406.5 -268.0 459.0 -268.0 459.0 -216.0 L459.0 0.0" fill-rule="evenodd" stroke="none"/>
    </g>
    <g id="font_LilyUPC_e0">
      <path d="M210.0 -275.5 L210.0 -275.5 Q244.0 -273.0 255.0 -252.0 266.5 -231.5 266.5 -199.0 L148.5 -199.0 Q148.5 -275.5 210.0 -275.5 M148.5 -139.5 L352.5 -139.5 Q353.0 -144.0 354.5 -156.0 355.5 -167.5 355.5 -183.5 353.0 -276.0 316.5 -311.5 291.0 -336.0 261.0 -343.5 230.5 -350.5 180.5 -350.5 105.0 -348.5 62.0 -306.0 19.5 -263.0 19.5 -163.5 21.0 1.0 168.0 9.5 172.5 9.5 180.0 10.0 187.5 10.5 191.5 10.5 243.0 10.5 281.0 1.0 318.5 -8.0 333.0 -14.0 L347.5 -96.5 Q335.0 -87.5 302.0 -73.5 268.5 -60.0 220.5 -58.5 148.5 -58.5 148.5 -139.5" fill-rule="evenodd" stroke="none"/>
    </g>
    <g id="font_LilyUPC_a0">
      <path d="M182.5 -67.5 L182.5 -67.5 Q162.0 -63.5 153.5 -63.5 118.0 -63.5 115.0 -87.0 115.0 -109.5 128.0 -120.0 141.0 -130.5 171.0 -135.0 195.5 -139.0 208.0 -145.0 220.5 -151.0 224.5 -156.5 229.0 -161.5 229.5 -162.5 L229.5 -110.5 Q229.5 -103.0 219.5 -88.5 209.0 -74.0 182.5 -67.5 M229.5 1.0 L358.5 0.0 358.5 -240.5 Q358.5 -285.0 320.0 -315.5 281.5 -346.0 195.5 -346.0 153.5 -346.0 122.0 -339.0 91.0 -332.0 73.5 -324.0 56.5 -316.0 56.5 -314.0 L35.0 -234.5 Q45.5 -245.5 79.5 -262.0 113.0 -278.5 172.0 -278.5 197.5 -278.5 214.0 -268.5 230.5 -258.0 230.5 -244.5 230.5 -230.0 211.5 -218.0 192.5 -205.5 154.5 -200.5 85.5 -190.5 51.5 -167.0 17.5 -143.5 17.5 -91.0 18.5 -43.0 53.5 -18.5 88.5 6.5 135.5 6.5 184.0 5.0 204.5 -9.5 225.5 -24.0 229.5 -33.5 L229.5 1.0" fill-rule="evenodd" stroke="none"/>
    </g>
    <g id="font_LilyUPC_b0">
      <path d="M160.0 -89.0 L160.0 -254.0 Q160.0 -256.0 177.5 -264.0 195.5 -272.0 215.5 -273.5 253.5 -273.5 270.5 -253.0 287.0 -233.0 287.0 -176.0 287.0 -114.0 270.0 -90.5 253.0 -67.5 215.5 -67.5 196.5 -68.0 181.5 -76.0 166.5 -84.0 160.0 -89.0 M31.0 -477.5 L31.0 0.0 160.0 0.0 160.0 -22.5 Q168.0 -14.5 190.0 -3.0 212.0 8.5 244.0 8.5 383.0 8.5 383.0 -177.5 383.0 -284.0 343.5 -314.5 304.0 -345.0 248.0 -347.5 215.0 -347.5 192.0 -341.0 169.0 -334.5 160.0 -329.5 L160.0 -477.5 31.0 -477.5" fill-rule="evenodd" stroke="none"/>
    </g>
    <g id="font_LilyUPC_.0">
      <path d="M35.5 0.0 L171.0 0.0 171.0 -110.0 35.5 -110.0 35.5 0.0" fill-rule="evenodd" stroke="none"/>
    </g>
  </defs>
</svg>
