<?xml version="1.0" encoding="UTF-8" standalone="no"?>
<svg xmlns:xlink="http://www.w3.org/1999/xlink" height="204.25px" width="505.1px" xmlns="http://www.w3.org/2000/svg">
  <g transform="matrix(1.0, 0.0, 0.0, 1.0, 245.95, 84.55)">
    <use height="94.45" transform="matrix(0.9996, 0.0177, -0.0177, 0.9996, -242.9766, -55.3905)" width="491.9" xlink:href="#sprite0"/>
    <use height="41.9" transform="matrix(0.9983, 0.0527, -0.0527, 0.9983, 40.2463, 18.7084)" width="48.5" xlink:href="#sprite1"/>
  </g>
  <defs>
    <g id="sprite0" transform="matrix(1.0, 0.0, 0.0, 1.0, 245.95, 47.25)">
      <use height="94.45" transform="matrix(1.0, 0.0, 0.0, 1.0, -245.95, -47.25)" width="491.9" xlink:href="#shape0"/>
    </g>
    <g id="shape0" transform="matrix(1.0, 0.0, 0.0, 1.0, 245.95, 47.25)">
      <path d="M78.4 -29.35 L78.3 -26.5 78.3 -25.7 78.3 -24.5 78.2 -22.9 87.45 -22.9 87.35 -24.7 87.55 -25.95 86.9 -25.95 84.45 -25.85 84.4 -25.85 84.4 -29.2 80.15 -29.45 78.7 -29.55 78.4 -29.35 M1.75 -0.05 L1.3 -0.15 -0.75 -0.15 -2.4 -0.15 -3.0 -0.05 Q-4.1 0.05 -4.1 0.7 L-4.1 0.95 Q-4.0 1.65 -3.2 1.95 L-0.3 2.15 2.1 2.05 Q3.25 1.95 3.25 1.4 3.25 0.7 2.8 0.4 L1.75 -0.05 M1.3 -11.5 L0.05 -11.6 -0.75 -11.6 -3.0 -11.5 Q-4.1 -11.15 -4.1 -10.0 -4.1 -8.9 -3.8 -8.4 L-3.2 -7.65 -2.9 -7.55 -0.3 -7.4 0.3 -7.4 2.1 -7.45 Q3.25 -7.85 3.25 -8.85 L3.25 -8.9 Q3.25 -9.9 2.8 -10.5 L2.7 -10.5 1.75 -11.35 1.75 -11.5 1.3 -11.5 M30.05 -30.45 L23.2 -30.0 21.65 -29.9 16.5 -29.45 13.7 -29.35 11.2 -29.35 10.3 -29.45 8.85 -29.6 8.45 -29.6 Q6.8 -30.35 6.15 -32.5 5.8 -33.95 5.8 -36.75 5.8 -38.85 6.8 -41.75 7.9 -45.25 9.1 -45.5 L59.9 -45.5 59.9 -44.95 59.95 -45.5 60.15 -45.5 60.4 -46.0 61.35 -47.15 62.85 -47.25 63.5 -47.25 66.0 -47.25 67.45 -47.15 Q68.0 -47.05 68.7 -46.45 L69.3 -45.7 69.65 -45.45 69.85 -45.25 94.9 -45.6 94.9 -46.8 100.75 -46.8 100.75 -45.6 Q100.45 -45.6 100.75 -45.15 L108.25 -45.15 Q110.45 -45.15 114.3 -46.8 L114.35 -46.95 115.0 -46.8 126.55 -46.8 126.55 -45.8 Q128.9 -41.75 128.9 -38.75 L128.8 -37.0 128.35 -35.75 126.65 -33.45 126.65 -32.5 115.35 -32.5 114.55 -32.7 111.05 -33.7 110.6 -30.1 110.45 -26.25 110.6 -23.2 110.95 -22.75 111.8 -22.75 117.6 -23.1 124.9 -22.65 125.85 -22.45 Q126.35 -22.2 126.55 -22.1 127.8 -21.4 128.35 -19.95 128.9 -18.55 128.9 -16.35 L128.8 -15.2 129.8 -15.2 130.1 -15.2 130.65 -15.45 134.65 -16.35 139.35 -16.9 150.95 -17.9 227.25 -17.9 228.15 -17.9 228.9 -18.05 Q229.35 -18.45 229.95 -18.45 230.8 -18.45 231.3 -17.1 231.9 -15.8 232.35 -15.45 L233.8 -15.35 236.65 -15.55 Q238.75 -15.9 241.15 -15.55 243.4 -15.2 244.8 -14.4 245.85 -13.7 245.9 -13.05 L245.9 -12.85 245.9 -12.5 Q245.85 -11.5 241.95 -0.5 238.2 10.55 238.4 14.4 L239.1 21.15 239.4 22.95 239.65 25.1 Q239.65 26.2 235.9 28.0 232.65 29.5 230.8 29.6 L230.4 29.6 229.35 29.5 228.25 29.2 228.35 29.1 228.15 29.2 228.05 29.2 227.8 29.1 227.8 29.95 225.1 29.95 223.95 29.75 216.05 28.95 213.8 28.65 206.75 27.65 197.65 25.9 189.1 25.1 187.7 24.75 187.05 24.55 186.6 24.45 Q186.0 22.25 183.8 17.75 L182.05 13.95 Q180.3 10.35 179.7 8.6 L179.0 6.95 178.3 5.9 177.3 4.35 138.5 4.35 138.4 4.45 Q136.95 5.15 134.05 8.05 L133.3 8.6 131.85 10.1 Q129.65 12.25 129.0 13.7 128.55 14.6 128.55 15.15 L128.8 16.5 129.1 17.65 129.1 17.75 129.2 17.75 Q134.5 22.7 138.35 27.0 L141.55 31.1 Q146.05 37.15 146.05 41.0 146.05 42.65 144.0 43.3 L140.6 44.5 136.15 46.1 Q132.95 47.2 131.5 47.2 126.45 47.2 126.35 44.75 L126.15 41.65 Q126.15 39.8 125.5 38.8 L123.95 36.15 122.5 33.6 Q122.0 32.95 119.95 32.1 117.95 31.3 117.95 31.1 L118.15 30.3 118.5 29.1 118.4 28.15 Q118.15 26.8 117.4 26.2 116.35 25.2 113.9 24.9 L113.3 24.9 110.45 25.75 109.35 25.9 106.05 25.9 Q104.75 25.75 102.1 24.65 L99.75 23.65 97.95 22.95 Q98.0 24.2 97.75 24.3 L96.45 24.45 Q96.8 25.1 96.8 26.55 L96.8 26.7 Q96.8 27.8 96.5 28.15 L95.9 28.15 95.7 27.55 95.25 26.25 94.7 25.0 Q94.25 26.2 93.15 27.0 L93.15 28.15 93.05 28.15 91.05 26.9 90.55 26.9 Q88.65 26.7 88.55 26.4 L88.8 24.65 89.8 22.65 90.3 19.15 90.8 18.4 Q91.05 15.0 92.55 12.9 L90.3 12.9 Q70.9 10.55 50.8 7.15 L50.8 8.65 49.55 12.9 47.55 15.65 47.3 15.65 45.35 15.5 45.35 15.2 Q45.35 14.6 44.4 13.95 L45.7 14.2 45.6 14.05 44.2 13.85 Q43.2 13.25 41.2 12.9 L36.0 11.55 Q35.25 11.1 34.4 9.65 L34.4 9.45 33.5 7.05 32.25 4.7 31.7 3.65 31.6 3.5 31.35 3.4 31.35 3.5 28.2 3.4 24.0 3.5 -84.65 3.4 Q-85.65 2.4 -85.95 0.7 L-86.0 -1.1 -86.2 -2.45 -86.2 -2.9 -215.7 -2.9 -215.6 -2.35 Q-215.05 0.4 -217.15 1.05 L-222.1 1.4 -230.15 1.4 -237.2 1.5 -244.5 -2.55 -245.25 -4.8 -245.6 -6.05 -245.8 -7.1 -245.95 -7.85 -245.6 -9.85 -245.5 -10.4 -245.25 -12.15 -245.25 -12.3 -243.05 -13.6 -242.7 -13.7 Q-241.45 -14.5 -239.75 -14.9 L-235.75 -15.8 -232.2 -16.55 -213.0 -16.6 -212.9 -16.35 -212.6 -16.45 -212.4 -16.45 Q-211.85 -16.1 -211.6 -15.45 L-210.85 -13.7 -210.85 -12.85 -211.05 -12.85 -210.85 -12.6 -85.5 -12.6 -85.5 -12.85 -85.3 -13.05 -85.3 -13.95 -84.95 -17.15 -80.65 -17.55 -80.25 -17.55 -80.25 -17.9 -80.25 -18.15 Q-80.2 -19.95 -78.7 -20.4 L-73.95 -20.65 -69.45 -20.95 -66.0 -21.2 -64.15 -21.4 Q-62.95 -21.2 -62.4 -20.5 L-61.95 -19.65 -61.6 -19.0 -61.15 -17.6 -61.05 -17.55 Q-60.5 -16.7 -59.65 -16.9 L-21.95 -17.0 -17.35 -17.55 -11.0 -17.9 -2.2 -17.7 Q2.1 -17.7 3.6 -16.6 L3.8 -16.55 Q5.7 -15.45 10.65 -15.0 L55.95 -15.1 55.95 -22.9 56.1 -22.9 56.1 -23.0 55.95 -23.35 55.85 -25.05 55.85 -25.4 55.85 -26.15 56.1 -29.6 54.85 -29.45 53.35 -29.35 51.35 -29.6 50.1 -29.7 50.1 -31.05 49.95 -31.0 46.8 -31.15 45.6 -31.15 44.4 -31.15 38.1 -30.9 Q37.8 -30.9 37.65 -30.7 L30.05 -30.45 M57.95 -18.55 Q57.95 -17.45 58.3 -17.0 58.75 -16.55 59.6 -16.55 60.25 -16.55 60.4 -16.9 L68.55 -16.6 69.5 -16.35 69.75 -16.35 Q70.4 -16.45 70.75 -16.9 71.1 -17.35 71.1 -18.45 L71.1 -18.55 70.4 -19.6 69.4 -20.55 59.7 -20.65 Q59.3 -20.55 58.65 -19.65 57.95 -18.9 57.95 -18.55 M73.95 -19.65 Q73.3 -18.9 73.3 -18.55 73.3 -17.45 73.65 -17.0 73.95 -16.55 74.85 -16.55 L75.7 -16.7 75.8 -16.9 84.0 -16.6 85.0 -16.35 Q85.9 -16.35 86.3 -16.9 L86.55 -18.45 85.9 -19.6 84.95 -20.55 74.95 -20.65 Q74.5 -20.55 73.95 -19.65 M66.8 -12.3 L67.0 -12.3 66.9 -12.4 66.8 -12.3 M103.05 -34.0 L101.75 -34.0 Q100.1 -33.7 100.75 -32.0 L98.75 -31.9 96.8 -31.9 96.35 -31.9 96.05 -31.9 Q94.7 -31.7 94.25 -30.9 94.0 -30.45 94.0 -29.7 L94.1 -29.55 94.0 -29.55 93.45 -29.45 93.55 -27.05 95.55 -26.95 97.95 -27.15 Q99.55 -27.5 101.0 -28.2 102.35 -28.95 103.05 -29.9 104.05 -31.15 104.05 -33.0 L104.05 -34.1 103.85 -34.1 103.05 -34.0 M95.05 -34.4 L95.05 -34.2 95.25 -34.2 95.05 -34.4 M100.35 -16.35 Q101.3 -16.35 101.55 -16.9 101.9 -17.35 101.9 -18.45 L101.3 -19.6 100.3 -20.55 96.25 -20.55 90.95 -20.1 89.85 -20.1 89.5 -19.65 Q88.8 -18.9 88.8 -18.55 88.8 -17.45 89.05 -17.0 89.5 -16.55 90.4 -16.55 L90.85 -16.55 Q91.2 -16.6 91.3 -16.9 L99.4 -16.6 100.35 -16.35 M223.4 18.6 L223.65 18.55 Q224.6 18.05 224.65 15.95 L224.65 11.1 224.3 7.7 Q223.85 5.7 223.85 4.2 L183.15 4.2 183.05 4.35 182.75 4.35 182.75 4.45 183.8 7.05 184.7 8.7 187.15 12.45 Q188.05 13.7 190.55 14.4 L191.35 14.5 197.3 15.2 201.5 15.95 207.85 16.95 210.75 17.2 213.05 17.55 221.8 18.6 223.4 18.6 M89.5 -23.45 L89.5 -23.35 90.7 -23.55 89.5 -23.45 M110.0 13.7 L109.9 13.7 Q110.0 16.4 109.05 18.7 108.05 21.4 106.5 21.8 L105.2 21.8 106.5 19.9 Q107.35 18.5 107.35 17.2 L107.05 15.2 106.5 13.65 106.15 13.55 101.45 13.85 99.9 13.95 99.2 14.2 98.9 14.5 Q98.4 14.95 98.4 16.6 98.4 18.55 98.75 19.7 99.0 21.5 100.3 22.25 L100.75 22.5 101.8 22.95 Q105.05 24.45 106.05 24.45 L107.9 24.2 109.45 23.9 111.95 23.45 114.8 22.95 Q115.3 22.6 115.3 20.8 L115.35 18.5 115.3 17.55 Q115.0 15.05 114.0 13.95 L113.75 13.65 110.9 13.65 110.0 13.7 M-221.1 -12.7 L-221.75 -12.7 -221.1 -12.5 -221.1 -12.7 M-229.25 -0.4 L-229.6 -0.5 -229.5 -0.3 -229.25 -0.4 M-124.05 -6.95 L-145.65 -6.85 -140.35 -6.65 Q-126.05 -6.55 -124.25 -6.85 L-124.05 -6.95 M-13.3 -0.05 Q-14.3 0.05 -14.3 0.7 -14.3 1.65 -13.4 1.95 L-10.45 2.15 -9.75 2.15 -8.2 2.05 Q-6.9 1.95 -6.9 1.4 -6.9 0.7 -7.4 0.4 L-8.3 -0.05 -8.4 -0.05 -10.9 -0.15 -13.3 -0.05 M-10.9 -11.6 L-13.3 -11.5 Q-14.3 -11.15 -14.3 -10.0 -14.3 -8.2 -13.4 -7.65 L-10.45 -7.4 -8.2 -7.45 Q-6.9 -7.85 -6.9 -8.9 -6.9 -9.9 -7.4 -10.5 L-8.4 -11.5 -10.9 -11.6 M-21.05 -0.15 L-23.4 -0.05 Q-24.35 0.05 -24.35 0.7 -24.35 1.65 -23.45 1.95 L-21.95 2.15 -20.5 2.15 -18.25 2.05 Q-16.9 1.95 -16.9 1.4 -16.9 0.7 -17.45 0.4 L-18.45 -0.05 -21.05 -0.15 M-33.0 -0.05 Q-34.05 0.05 -34.05 0.7 -34.05 1.65 -33.05 1.95 L-32.35 2.05 -30.3 2.15 -27.85 2.05 Q-26.6 1.95 -26.6 1.4 -26.6 0.7 -27.05 0.4 L-27.4 0.3 Q-27.6 0.05 -28.05 -0.05 L-30.65 -0.15 -33.0 -0.05 M-30.65 -11.6 L-33.0 -11.5 Q-34.05 -11.15 -34.05 -10.0 -34.05 -8.2 -33.05 -7.65 L-30.3 -7.4 -27.85 -7.45 Q-26.6 -7.85 -26.6 -8.9 -26.6 -9.9 -27.05 -10.5 L-28.05 -11.35 -30.65 -11.6 M-21.05 -11.6 L-23.4 -11.5 Q-24.35 -11.15 -24.35 -10.0 -24.35 -8.2 -23.45 -7.65 L-20.5 -7.4 -18.25 -7.45 Q-16.9 -7.85 -16.9 -8.9 -16.9 -9.9 -17.45 -10.5 L-18.45 -11.35 -21.05 -11.6 M-43.15 -0.05 Q-44.1 0.05 -44.1 0.7 -44.1 1.65 -43.2 1.95 L-40.35 2.15 -38.0 2.05 Q-36.65 1.95 -36.65 1.4 -36.65 0.7 -37.1 0.4 L-38.2 -0.05 -40.75 -0.15 -43.15 -0.05 M-52.9 -0.05 Q-54.0 0.05 -54.0 0.7 -54.0 1.65 -53.1 1.95 L-50.15 2.15 -47.7 2.05 Q-46.5 1.95 -46.5 1.4 -46.5 0.7 -47.0 0.4 L-48.05 -0.05 -50.55 -0.15 -52.9 -0.05 M-54.0 -10.0 Q-54.0 -8.2 -53.1 -7.65 L-50.15 -7.4 -47.7 -7.45 Q-46.5 -7.85 -46.5 -8.9 -46.5 -9.9 -47.0 -10.5 L-48.05 -11.35 -50.55 -11.6 -52.9 -11.5 Q-54.0 -11.15 -54.0 -10.0 M-40.75 -11.6 L-43.15 -11.5 Q-44.1 -11.15 -44.1 -10.0 -44.1 -8.4 -43.2 -7.65 L-40.35 -7.4 -38.0 -7.45 Q-36.65 -7.85 -36.65 -8.9 -36.65 -9.65 -37.0 -10.15 L-37.1 -10.5 -38.2 -11.35 -40.75 -11.6 M-62.15 -0.15 L-62.9 -0.05 Q-63.8 0.05 -63.95 0.6 L-63.95 0.7 Q-63.95 1.65 -62.95 1.95 L-60.05 2.15 -57.65 2.05 Q-56.5 1.95 -56.5 1.4 -56.5 0.7 -56.95 0.4 -57.2 0.3 -57.95 -0.05 L-60.5 -0.15 -62.15 -0.15 M-63.95 -10.0 Q-63.95 -8.2 -62.95 -7.65 L-60.05 -7.4 -57.65 -7.45 Q-56.5 -7.85 -56.5 -8.9 -56.5 -9.9 -56.95 -10.5 L-57.95 -11.35 -60.5 -11.6 -62.9 -11.5 Q-63.95 -11.15 -63.95 -10.0 M-72.95 -0.05 Q-73.95 0.05 -73.95 0.7 -73.95 1.65 -73.0 1.95 L-70.05 2.15 -67.7 2.05 Q-66.45 1.95 -66.45 1.4 -66.45 0.7 -66.9 0.4 L-68.0 -0.05 -70.5 -0.15 -72.95 -0.05 M-68.0 -11.5 L-70.5 -11.6 -72.95 -11.5 Q-73.95 -11.15 -73.95 -10.0 -73.95 -8.2 -73.0 -7.65 L-70.05 -7.4 -67.7 -7.45 Q-66.45 -7.85 -66.45 -8.9 -66.45 -9.9 -66.9 -10.5 L-68.0 -11.5" fill="#ffffff" fill-opacity="0.4117647" fill-rule="evenodd" stroke="none"/>
    </g>
    <g id="sprite1" transform="matrix(1.0, 0.0, 0.0, 1.0, 24.25, 20.95)">
      <use height="41.9" transform="matrix(1.0, 0.0, 0.0, 1.0, -24.25, -20.95)" width="48.5" xlink:href="#shape1"/>
    </g>
    <g id="shape1" transform="matrix(1.0, 0.0, 0.0, 1.0, 24.25, 20.95)">
      <path d="M20.9 -5.45 L19.9 -3.45 19.65 -1.7 Q19.75 -1.4 21.65 -1.2 L22.15 -1.2 24.15 0.05 24.25 0.05 24.25 20.05 Q23.7 20.95 23.15 20.95 L19.6 20.15 17.85 19.7 17.65 19.7 15.5 19.15 9.4 18.55 5.5 18.45 4.55 18.35 2.85 18.2 2.75 18.2 1.95 18.2 Q-1.1 17.9 -4.1 17.0 L-9.0 16.1 -11.7 16.0 -12.7 15.95 -14.15 15.55 -17.8 14.65 -21.5 13.9 -24.25 13.45 -24.05 -12.0 -23.55 -12.15 -23.55 -12.45 -23.55 -12.6 -21.6 -12.45 -21.35 -12.45 -19.35 -15.2 -18.1 -19.45 -18.1 -20.95 Q2.0 -17.55 21.4 -15.2 L23.65 -15.2 Q22.15 -13.1 21.9 -9.7 L21.4 -8.95 20.9 -5.45 M17.65 19.5 L17.95 19.6 17.95 19.5 17.65 19.5" fill="#ffffff" fill-opacity="0.3254902" fill-rule="evenodd" stroke="none"/>
    </g>
  </defs>
</svg>
