<?xml version="1.0" encoding="UTF-8" standalone="no"?>
<svg xmlns:xlink="http://www.w3.org/1999/xlink" height="32.9px" width="33.85px" xmlns="http://www.w3.org/2000/svg">
  <g transform="matrix(1.0, 0.0, 0.0, 1.0, 0.0, 0.0)">
    <use height="32.9" transform="matrix(1.0, 0.0, 0.0, 1.0, 0.0, 0.0)" width="33.85" xlink:href="#shape0"/>
  </g>
  <defs>
    <g id="shape0" transform="matrix(1.0, 0.0, 0.0, 1.0, 0.0, 0.0)">
      <path d="M0.0 4.75 L2.0 6.7 1.6 7.15 1.1 7.8 1.9 8.25 3.35 9.4 2.15 9.65 Q1.0 9.95 0.7 10.4 L3.25 12.05 2.85 12.25 Q2.55 12.35 2.1 12.75 L3.15 14.25 3.85 15.6 0.8 15.6 0.8 15.85 1.5 16.1 2.25 16.25 1.1 16.95 2.35 17.35 2.35 17.55 Q1.55 17.75 1.2 18.25 L1.9 18.6 1.7 18.8 0.7 18.85 0.5 19.2 2.75 19.75 Q4.45 20.15 5.1 20.7 L3.05 21.5 Q2.25 21.85 2.25 22.25 L3.15 23.1 Q4.2 23.75 5.6 24.1 L5.3 24.3 3.55 24.45 Q1.85 24.75 1.4 25.2 L3.55 26.0 2.55 26.8 1.6 27.75 1.6 28.25 2.35 28.45 1.8 29.25 1.4 30.1 3.35 29.6 3.35 30.2 3.15 30.9 3.25 31.3 4.0 30.7 4.55 30.0 5.6 31.75 7.0 30.4 7.3 31.3 7.3 31.2 7.95 30.4 8.95 31.4 Q9.6 30.45 10.2 30.1 L10.4 31.2 10.6 31.0 12.1 28.25 12.4 28.95 12.85 29.7 12.85 29.6 13.15 28.05 13.25 28.05 13.6 29.05 14.05 30.1 14.05 30.0 Q14.05 28.55 14.45 28.55 15.7 26.4 16.0 25.1 L18.1 28.15 Q19.6 30.3 19.75 31.2 L19.75 29.8 19.95 29.8 20.3 30.5 20.5 31.2 20.6 31.1 21.2 30.0 21.4 30.1 22.0 31.3 22.0 31.1 22.2 29.4 22.3 29.4 Q22.9 30.3 23.15 31.2 L24.15 28.95 24.35 28.55 26.65 30.8 27.2 31.35 28.8 32.9 0.0 32.9 0.0 4.75" fill="#ffffff" fill-opacity="0.5137255" fill-rule="evenodd" stroke="none"/>
      <path d="M0.0 4.75 L0.0 0.0 33.85 0.0 33.85 2.25 33.5 2.05 32.7 1.55 Q32.45 1.55 32.3 1.75 L31.9 2.25 30.9 0.85 29.85 1.85 29.15 0.85 28.95 0.95 28.45 2.25 28.35 2.15 27.6 0.95 27.1 1.45 26.4 0.25 24.65 1.75 24.05 0.65 Q23.8 0.75 23.25 1.15 L22.4 1.75 22.3 1.65 22.1 1.25 21.45 1.6 20.8 2.15 20.15 1.25 Q19.5 1.25 18.65 2.45 L17.2 0.45 15.7 2.25 14.65 1.05 13.85 2.9 12.0 1.05 11.4 2.25 11.0 1.75 9.65 3.8 9.55 3.7 8.75 1.85 8.05 2.5 7.2 2.9 5.9 1.45 5.1 3.6 4.3 2.35 3.55 1.15 3.45 1.25 3.25 2.15 3.25 2.05 2.45 0.95 2.1 1.45 1.7 1.05 1.6 1.15 1.4 1.65 0.65 0.45 0.4 1.1 1.0 1.75 2.25 2.65 2.15 2.95 2.0 3.2 2.45 3.9 Q1.3 4.9 0.6 4.9 0.75 5.45 1.2 5.8 L2.25 6.45 2.0 6.7 0.0 4.75 M24.35 28.55 L25.05 26.65 26.65 30.8 24.35 28.55 M27.2 31.35 L28.0 29.8 29.35 31.85 29.35 31.75 29.65 29.9 29.75 29.9 30.1 30.85 30.35 31.4 30.35 30.6 30.6 29.5 Q30.75 29.05 31.0 28.9 L30.35 27.95 30.75 28.05 Q30.75 27.8 30.4 27.5 30.1 27.25 30.15 26.85 L30.9 26.85 33.0 27.45 33.0 27.35 32.15 26.65 Q31.5 26.1 31.5 25.6 L31.6 25.6 32.3 25.5 30.85 24.8 29.65 23.8 33.1 23.55 33.0 23.25 Q32.35 23.25 30.65 22.55 L30.65 22.45 Q32.2 22.05 32.7 21.45 L31.1 21.05 31.5 20.3 31.4 20.1 Q30.55 20.1 30.25 20.5 31.65 17.85 31.8 16.65 L31.0 16.2 30.75 15.85 31.9 15.5 33.3 15.3 Q32.5 15.3 31.3 13.9 L32.4 13.55 33.65 13.15 31.0 12.8 Q29.1 12.4 28.45 11.75 L30.35 11.15 32.1 10.4 Q31.1 9.4 30.35 9.4 L30.45 9.3 Q31.6 9.15 32.4 8.4 L31.9 7.95 33.75 7.35 33.75 7.25 32.6 7.0 31.4 6.15 32.5 5.7 Q33.05 5.45 33.0 5.1 L32.45 4.95 32.0 4.7 33.4 3.55 33.85 3.25 33.85 32.9 28.8 32.9 27.2 31.35" fill="#999999" fill-opacity="0.5137255" fill-rule="evenodd" stroke="none"/>
    </g>
  </defs>
</svg>
