<?xml version="1.0" encoding="UTF-8" standalone="no"?>
<svg xmlns:xlink="http://www.w3.org/1999/xlink" height="71.45px" width="430.95px" xmlns="http://www.w3.org/2000/svg">
  <g transform="matrix(1.0, 0.0, 0.0, 1.0, 20.9, 12.45)">
    <use height="7.5" transform="matrix(1.0, 0.0, 0.0, 1.0, 211.3, 30.0)" width="84.7" xlink:href="#sprite0"/>
  </g>
  <defs>
    <g id="sprite0" transform="matrix(1.0, 0.0, 0.0, 1.0, -25.1, -30.0)">
      <use height="7.5" transform="matrix(1.0, 0.0, 0.0, 1.0, 25.1, 30.0)" width="84.7" xlink:href="#text0"/>
    </g>
    <g id="text0" transform="matrix(1.0, 0.0, 0.0, 1.0, 0.0, -1.2)">
      <g transform="matrix(1.0, 0.0, 0.0, 1.0, 0.0, 0.0)">
        <use fill="#ffffff" height="7.5" transform="matrix(0.0107, 0.0, 0.0, 0.0107, 0.0, 8.0)" width="84.7" xlink:href="#font_Visitor_TT1_BRK_u0"/>
        <use fill="#ffffff" height="7.5" transform="matrix(0.0107, 0.0, 0.0, 0.0107, 6.6, 8.0)" width="84.7" xlink:href="#font_Visitor_TT1_BRK_p0"/>
        <use fill="#ffffff" height="7.5" transform="matrix(0.0107, 0.0, 0.0, 0.0107, 13.2, 8.0)" width="84.7" xlink:href="#font_Visitor_TT1_BRK_g0"/>
        <use fill="#ffffff" height="7.5" transform="matrix(0.0107, 0.0, 0.0, 0.0107, 19.8, 8.0)" width="84.7" xlink:href="#font_Visitor_TT1_BRK_r0"/>
        <use fill="#ffffff" height="7.5" transform="matrix(0.0107, 0.0, 0.0, 0.0107, 26.4, 8.0)" width="84.7" xlink:href="#font_Visitor_TT1_BRK_a0"/>
        <use fill="#ffffff" height="7.5" transform="matrix(0.0107, 0.0, 0.0, 0.0107, 33.0, 8.0)" width="84.7" xlink:href="#font_Visitor_TT1_BRK_d0"/>
        <use fill="#ffffff" height="7.5" transform="matrix(0.0107, 0.0, 0.0, 0.0107, 39.6, 8.0)" width="84.7" xlink:href="#font_Visitor_TT1_BRK_e0"/>
        <use fill="#ffffff" height="7.5" transform="matrix(0.0107, 0.0, 0.0, 0.0107, 52.8, 8.0)" width="84.7" xlink:href="#font_Visitor_TT1_BRK_d0"/>
        <use fill="#ffffff" height="7.5" transform="matrix(0.0107, 0.0, 0.0, 0.0107, 59.4, 8.0)" width="84.7" xlink:href="#font_Visitor_TT1_BRK_o0"/>
        <use fill="#ffffff" height="7.5" transform="matrix(0.0107, 0.0, 0.0, 0.0107, 66.0, 8.0)" width="84.7" xlink:href="#font_Visitor_TT1_BRK_n0"/>
        <use fill="#ffffff" height="7.5" transform="matrix(0.0107, 0.0, 0.0, 0.0107, 72.6, 8.0)" width="84.7" xlink:href="#font_Visitor_TT1_BRK_e0"/>
      </g>
    </g>
    <g id="font_Visitor_TT1_BRK_u0">
      <path d="M0.0 0.0 L0.0 -512.0 102.5 -512.0 102.5 -102.5 409.5 -102.5 409.5 -512.0 512.0 -512.0 512.0 0.0 0.0 0.0" fill-rule="evenodd" stroke="none"/>
    </g>
    <g id="font_Visitor_TT1_BRK_p0">
      <path d="M102.5 -409.5 L102.5 -307.0 409.5 -307.0 409.5 -409.5 102.5 -409.5 M0.0 0.0 L0.0 -512.0 512.0 -512.0 512.0 -205.0 102.5 -205.0 102.5 0.0 0.0 0.0" fill-rule="evenodd" stroke="none"/>
    </g>
    <g id="font_Visitor_TT1_BRK_g0">
      <path d="M0.0 0.0 L0.0 -512.0 512.0 -512.0 512.0 -409.5 102.5 -409.5 102.5 -102.5 409.5 -102.5 409.5 -205.0 205.0 -205.0 205.0 -307.0 512.0 -307.0 512.0 0.0 0.0 0.0" fill-rule="evenodd" stroke="none"/>
    </g>
    <g id="font_Visitor_TT1_BRK_r0">
      <path d="M102.5 -409.5 L102.5 -307.0 409.5 -307.0 409.5 -409.5 102.5 -409.5 M307.5 -102.5 L307.5 -205.0 102.5 -205.0 102.5 0.0 0.0 0.0 0.0 -512.0 512.0 -512.0 512.0 -205.0 409.5 -205.0 409.5 -102.5 512.0 -102.5 512.0 0.0 409.5 0.0 409.5 -102.5 307.5 -102.5" fill-rule="evenodd" stroke="none"/>
    </g>
    <g id="font_Visitor_TT1_BRK_a0">
      <path d="M102.5 -409.5 L102.5 -307.0 409.5 -307.0 409.5 -409.5 102.5 -409.5 M409.5 0.0 L409.5 -205.0 102.5 -205.0 102.5 0.0 0.0 0.0 0.0 -512.0 512.0 -512.0 512.0 0.0 409.5 0.0" fill-rule="evenodd" stroke="none"/>
    </g>
    <g id="font_Visitor_TT1_BRK_d0">
      <path d="M0.0 0.0 L0.0 -512.0 409.5 -512.0 409.5 -409.5 512.0 -409.5 512.0 -102.5 409.5 -102.5 409.5 -409.5 102.5 -409.5 102.5 -102.5 409.5 -102.5 409.5 0.0 0.0 0.0" fill-rule="evenodd" stroke="none"/>
    </g>
    <g id="font_Visitor_TT1_BRK_e0">
      <path d="M0.0 0.0 L0.0 -512.0 512.0 -512.0 512.0 -409.5 102.5 -409.5 102.5 -307.0 307.5 -307.0 307.5 -205.0 102.5 -205.0 102.5 -102.5 512.0 -102.5 512.0 0.0 0.0 0.0" fill-rule="evenodd" stroke="none"/>
    </g>
    <g id="font_Visitor_TT1_BRK_o0">
      <path d="M102.5 -409.5 L102.5 -102.5 409.5 -102.5 409.5 -409.5 102.5 -409.5 M0.0 0.0 L0.0 -512.0 512.0 -512.0 512.0 0.0 0.0 0.0" fill-rule="evenodd" stroke="none"/>
    </g>
    <g id="font_Visitor_TT1_BRK_n0">
      <path d="M409.5 0.0 L409.5 -409.5 102.5 -409.5 102.5 0.0 0.0 0.0 0.0 -512.0 512.0 -512.0 512.0 0.0 409.5 0.0" fill-rule="evenodd" stroke="none"/>
    </g>
  </defs>
</svg>
