<?xml version="1.0" encoding="UTF-8" standalone="no"?>
<svg xmlns:xlink="http://www.w3.org/1999/xlink" height="71.45px" width="430.95px" xmlns="http://www.w3.org/2000/svg">
  <g transform="matrix(1.0, 0.0, 0.0, 1.0, 20.9, 12.45)">
    <use height="62.6" transform="matrix(1.0, 0.0, 0.0, 1.0, 2.7, -3.6)" width="205.75" xlink:href="#sprite0"/>
  </g>
  <defs>
    <g id="sprite0" transform="matrix(1.0, 0.0, 0.0, 1.0, 0.0, 3.6)">
      <use height="17.5" transform="matrix(1.0, 0.0, 0.0, 1.0, 0.0, -3.6)" width="193.65" xlink:href="#sprite1"/>
      <use height="17.5" transform="matrix(1.0, 0.0, 0.0, 1.0, 4.05, 11.45)" width="193.65" xlink:href="#sprite1"/>
      <use height="17.5" transform="matrix(1.0, 0.0, 0.0, 1.0, 8.05, 26.5)" width="193.65" xlink:href="#sprite1"/>
      <use height="17.5" transform="matrix(1.0, 0.0, 0.0, 1.0, 12.1, 41.5)" width="193.65" xlink:href="#sprite1"/>
    </g>
    <g id="sprite1" transform="matrix(1.0, 0.0, 0.0, 1.0, 23.75, 10.55)">
      <use height="13.9" id="boxx" transform="matrix(1.0, 0.0, 0.0, 1.0, -7.95, -6.95)" width="171.85" xlink:href="#sprite2"/>
      <use height="9.9" transform="matrix(1.0, 0.0, 0.0, 1.0, -23.75, -4.95)" width="87.0" xlink:href="#button0"/>
    </g>
    <g id="sprite2" transform="matrix(1.0, 0.0, 0.0, 1.0, 15.3, 6.95)">
      <use height="13.9" transform="matrix(1.0, 0.0, 0.0, 1.0, -15.3, -6.95)" width="171.85" xlink:href="#text0"/>
    </g>
    <g id="button0" transform="matrix(1.0, 0.0, 0.0, 1.0, 43.5, 4.95)">
      <use height="39.5" transform="matrix(2.2038, 0.0, 0.0, 0.2532, -43.525, -4.9999)" width="39.5" xlink:href="#shape0"/>
    </g>
    <g id="shape0" transform="matrix(1.0, 0.0, 0.0, 1.0, 19.75, 19.75)">
      <path d="M19.75 -19.75 L19.75 19.75 -19.75 19.75 -19.75 -19.75 19.75 -19.75" fill="#ffffff" fill-opacity="0.0" fill-rule="evenodd" stroke="none"/>
    </g>
  </defs>
</svg>
