<?xml version="1.0" encoding="UTF-8" standalone="no"?>
<svg xmlns:xlink="http://www.w3.org/1999/xlink" height="252.55px" width="466.35px" xmlns="http://www.w3.org/2000/svg">
  <g transform="matrix(1.0, 0.0, 0.0, 1.0, 220.7, 209.75)">
    <use height="108.35" transform="matrix(1.0, 0.0, 0.0, 1.0, -177.95, -209.75)" width="304.2" xlink:href="#sprite0"/>
  </g>
  <defs>
    <g id="sprite0" transform="matrix(1.0, 0.0, 0.0, 1.0, 188.6, 33.2)">
      <use height="33.5" transform="matrix(1.0, 0.0, 0.0, 1.0, -109.5, -18.65)" width="38.9" xlink:href="#shape0"/>
      <use height="194.8" transform="matrix(0.5561, 0.0, 0.0, 0.5561, -188.5782, -33.2005)" width="275.25" xlink:href="#sprite1"/>
      <use height="17.7" transform="matrix(1.0, 0.0, 0.0, 1.0, -42.4, -6.85)" width="158.0" xlink:href="#text0"/>
    </g>
    <g id="shape0" transform="matrix(1.0, 0.0, 0.0, 1.0, 109.5, 18.65)">
      <path d="M-104.55 -18.65 Q-96.3 -15.75 -86.3 -11.5 L-86.05 -11.85 -86.2 -10.75 -85.2 -11.95 -85.7 -11.15 -73.55 -12.5 -71.05 -12.35 -70.6 -10.75 -71.7 -6.8 -71.7 -6.65 Q-73.55 -4.55 -75.8 -3.25 L-82.35 -2.95 -85.75 -4.45 Q-85.3 -7.8 -86.5 -9.5 -88.65 -8.9 -90.7 -5.65 -98.35 -2.95 -106.45 -6.5 L-109.3 -10.0 Q-109.85 -12.3 -108.75 -16.15 L-104.55 -18.65 M-90.75 4.45 L-84.7 12.4 Q-86.0 11.6 -86.3 13.4 L-91.45 4.9 Q-91.55 4.2 -90.9 4.4 L-90.75 4.45 M-83.95 13.4 L-83.95 13.65 Q-84.0 14.75 -85.45 14.85 L-86.1 13.75 Q-85.75 12.05 -84.4 12.75 L-83.95 13.4" fill="#000000" fill-opacity="0.63529414" fill-rule="evenodd" stroke="none"/>
    </g>
    <g id="sprite1" transform="matrix(1.0, 0.0, 0.0, 1.0, 187.15, 59.7)">
      <use height="100.25" transform="matrix(1.0, 0.0, 0.0, 1.0, -50.4, -50.1)" width="100.8" xlink:href="#shape1"/>
      <clipPath id="clipPath0" transform="matrix(1.0, 0.0, 0.0, 1.0, 187.15, 59.7)">
        <use height="138.95" transform="matrix(1.0, 0.0, 0.0, 1.0, -187.15, -59.55)" width="137.0" xlink:href="#sprite2"/>
      </clipPath>
      <g clip-path="url(#clipPath0)">
        <use height="97.25" transform="matrix(1.0, 0.0, 0.0, 1.0, -48.9, -48.6)" width="97.8" xlink:href="#shape3"/>
      </g>
    </g>
    <g id="shape1" transform="matrix(1.0, 0.0, 0.0, 1.0, 50.4, 50.1)">
      <path d="M41.75 -49.9 L42.3 -49.3 Q50.4 -34.85 50.4 -17.05 50.4 10.75 30.65 30.45 10.95 50.15 -16.8 50.15 -27.25 50.15 -36.45 47.4 -43.4 45.35 -49.65 41.8 L-50.2 41.25 -50.4 40.5 -50.4 33.6 Q-50.4 33.05 -50.0 32.65 -49.65 32.2 -49.1 32.15 L-48.05 32.35 Q-42.15 36.25 -35.55 38.5 -26.75 41.4 -16.75 41.4 7.45 41.4 24.55 24.25 41.7 7.15 41.7 -17.05 41.7 -34.2 33.05 -47.8 32.75 -48.25 32.85 -48.8 32.9 -49.35 33.35 -49.7 33.75 -50.1 34.3 -50.1 L41.0 -50.1 41.75 -49.9" fill="#000000" fill-opacity="0.18431373" fill-rule="evenodd" stroke="none"/>
    </g>
    <g id="sprite2" transform="matrix(1.0, 0.0, 0.0, 1.0, 68.5, 69.45)">
      <use height="138.95" transform="matrix(1.0, 0.0, 0.0, 1.0, -68.5, -69.45)" width="137.0" xlink:href="#shape2"/>
    </g>
    <g id="shape2" transform="matrix(1.0, 0.0, 0.0, 1.0, 68.5, 69.45)">
      <path d="M-68.5 -69.45 L68.5 -69.45 68.5 69.5 Q-57.65 36.05 -68.5 -69.45" fill="#000000" fill-opacity="0.63529414" fill-rule="evenodd" stroke="none"/>
    </g>
    <g id="shape3" transform="matrix(1.0, 0.0, 0.0, 1.0, 48.9, 48.6)">
      <path d="M48.9 -17.05 Q48.9 10.15 29.6 29.4 10.35 48.65 -16.8 48.65 -27.0 48.65 -36.05 45.95 -42.8 43.95 -48.9 40.5 L-48.9 33.6 Q-42.85 37.6 -36.05 39.9 -27.0 42.9 -16.75 42.9 8.05 42.9 25.6 25.3 43.2 7.75 43.2 -17.05 43.2 -34.65 34.3 -48.6 L41.0 -48.6 Q48.9 -34.45 48.9 -17.05" fill="#000000" fill-opacity="0.63529414" fill-rule="evenodd" stroke="none"/>
    </g>
  </defs>
</svg>
