<?xml version="1.0" encoding="UTF-8" standalone="no"?>
<svg xmlns:xlink="http://www.w3.org/1999/xlink" height="252.55px" width="466.35px" xmlns="http://www.w3.org/2000/svg">
  <g transform="matrix(1.0, 0.0, 0.0, 1.0, 220.7, 209.75)">
    <use height="33.45" transform="matrix(1.0, 0.0, 0.0, 1.0, -119.25, 9.35)" width="169.3" xlink:href="#sprite0"/>
    <use height="53.5" transform="matrix(1.0, 0.0, 0.0, 1.0, -81.35, -72.3)" width="318.5" xlink:href="#sprite1"/>
    <use height="32.65" transform="matrix(1.0, 0.0, 0.0, 1.0, -77.8, -125.6)" width="321.75" xlink:href="#sprite2"/>
    <use height="108.35" transform="matrix(1.0, 0.0, 0.0, 1.0, -153.6, -209.75)" width="304.2" xlink:href="#sprite3"/>
  </g>
  <defs>
    <g id="sprite0" transform="matrix(1.0, 0.0, 0.0, 1.0, 36.25, 16.35)">
      <use height="33.45" transform="matrix(1.0, 0.0, 0.0, 1.0, -36.25, -16.35)" width="55.6" xlink:href="#shape0"/>
      <use height="16.6" transform="matrix(1.0, 0.0, 0.0, 1.0, 29.05, -6.7)" width="104.0" xlink:href="#text0"/>
    </g>
    <g id="shape0" transform="matrix(1.0, 0.0, 0.0, 1.0, 36.25, 16.35)">
      <path d="M10.0 -8.2 L8.75 -8.6 8.75 -8.65 8.55 -9.55 13.25 -8.85 11.65 -6.6 11.55 -6.6 11.55 -6.45 11.5 -6.35 11.5 -6.25 Q11.15 -5.4 10.3 -5.0 L10.85 -5.0 10.9 -4.85 13.55 -8.75 13.6 -8.2 13.6 -7.7 13.35 -4.4 11.55 -3.65 13.75 -4.2 18.9 1.4 18.8 1.5 18.75 1.55 18.65 1.6 17.45 1.85 17.3 2.05 17.15 2.1 17.0 2.0 13.85 3.25 Q12.0 4.1 10.1 4.35 L9.55 4.55 9.5 4.05 8.85 1.45 Q8.05 -0.35 7.0 -1.25 L3.2 -3.85 3.2 -3.8 2.7 -4.1 6.6 -5.15 8.0 -5.15 8.55 -5.35 8.75 -5.7 10.9 -6.3 10.8 -6.5 10.7 -6.6 10.6 -6.65 Q10.4 -6.95 10.45 -7.3 L9.9 -7.75 10.1 -8.1 10.05 -8.15 10.05 -8.2 10.0 -8.2 M0.0 -9.2 L0.15 -7.05 0.15 -5.9 0.15 -5.8 -0.45 -6.3 Q-0.9 -6.85 -0.9 -8.1 L-0.7 -9.15 -0.35 -9.3 0.0 -9.2 M8.8 -7.2 L8.8 -8.2 10.35 -6.6 9.65 -6.3 8.95 -6.1 8.75 -6.05 8.8 -7.2 M9.45 -6.4 L9.7 -6.7 9.15 -6.7 9.45 -6.4 M4.35 -4.95 L4.3 -5.0 4.25 -5.0 4.3 -5.05 3.55 -4.95 4.0 -4.9 2.3 -4.4 1.15 -5.15 5.1 -5.15 5.0 -5.1 4.9 -5.05 4.8 -5.0 4.7 -5.0 4.6 -4.95 4.5 -4.95 4.4 -4.95 4.35 -4.95 M12.7 -3.0 L12.9 -2.95 12.45 -3.35 12.7 -3.0 M14.2 -2.4 L14.15 -2.6 Q13.85 -3.3 13.2 -3.5 L14.2 -2.4 M13.2 -2.9 L13.75 -2.4 12.95 -3.45 13.2 -2.9 M8.45 -0.5 L8.05 -0.45 7.9 -0.35 8.5 0.1 Q9.75 1.3 9.9 3.05 L12.6 2.4 12.5 2.3 Q13.25 1.95 14.05 1.85 L13.7 2.0 13.35 2.35 13.55 2.3 13.6 2.3 13.65 2.25 13.7 2.25 13.75 2.2 13.95 2.25 14.1 2.3 14.15 2.35 14.2 2.25 14.9 2.15 15.6 1.7 15.6 1.5 15.8 1.0 Q16.0 0.8 16.25 0.7 L16.3 0.75 16.1 0.45 14.3 -1.45 13.2 -1.45 12.6 -1.95 12.55 -1.5 12.15 -1.75 12.3 -1.9 11.2 -1.85 11.2 -1.7 11.1 -1.6 11.35 -1.25 10.8 -1.25 11.0 -1.2 10.3 -0.7 9.8 -0.85 8.8 -0.4 8.55 -0.45 8.45 -0.5 M19.35 1.9 L19.35 2.0 18.5 5.0 18.25 5.65 9.2 8.9 Q9.55 7.45 9.55 5.65 L9.55 5.1 19.35 1.7 19.35 1.9 M0.15 6.1 L0.2 7.7 -0.85 8.1 -0.95 5.7 -0.95 5.6 -0.55 6.25 0.15 6.1 M0.2 8.25 L0.0 9.05 -0.45 9.2 -0.75 9.05 -0.85 8.55 0.2 8.25 M9.85 3.8 L10.05 3.85 10.15 3.65 9.85 3.8 M10.9 3.6 L11.2 3.45 10.75 3.4 10.9 3.6 M-10.25 -7.45 L-9.6 -7.3 -9.6 -7.15 Q-9.6 -4.75 -8.7 -2.9 L-8.7 -2.85 -8.0 -1.65 -11.0 -0.95 -10.75 -0.95 -11.1 -0.9 -11.2 -0.95 -11.3 -0.7 -11.5 -0.75 -12.9 -4.15 -12.9 -4.45 -12.7 -4.35 -12.65 -4.85 -12.95 -5.0 -12.85 -4.6 -13.15 -5.1 -13.1 -5.2 -12.9 -5.25 -13.5 -5.85 -10.9 -6.8 -10.3 -7.35 -10.25 -7.45 M-12.2 -3.1 L-12.35 -3.1 -12.35 -2.95 -12.2 -2.95 -12.2 -3.1 M-12.25 -3.7 L-12.3 -3.8 -12.45 -3.85 -12.55 -3.8 -12.6 -3.7 -12.55 -3.55 -12.45 -3.5 -12.3 -3.55 -12.25 -3.7 M-11.4 -5.75 L-11.5 -5.85 -11.25 -5.2 Q-11.15 -5.5 -11.4 -5.75 M-11.0 -5.8 Q-10.7 -5.25 -11.15 -4.9 L-11.55 -5.0 -11.65 -4.9 -12.1 -4.65 Q-11.35 -4.7 -10.7 -5.15 -10.5 -5.7 -11.05 -5.95 L-11.0 -5.8 M-13.65 -5.05 L-12.05 -0.25 -7.8 -1.35 -6.5 0.05 -2.0 3.1 -1.75 3.25 -4.15 3.25 -4.4 2.8 -4.45 3.05 -4.45 3.25 -8.75 3.25 -9.3 3.5 -9.5 4.0 -9.5 5.4 -9.45 6.3 -18.65 4.25 -13.35 -3.15 -13.65 -5.05 M-16.35 3.15 L-17.05 3.15 -16.65 3.35 -16.35 3.15 M-17.15 3.45 Q-16.95 3.75 -16.6 3.65 -16.85 3.35 -17.2 3.4 L-17.15 3.45 M-15.7 1.8 L-15.5 1.45 -15.65 1.45 -15.7 1.8 M-9.45 6.75 Q-9.3 9.1 -8.55 10.7 L-8.75 11.1 -11.1 10.65 Q-15.05 10.0 -18.4 8.45 L-18.6 8.25 -18.7 7.25 -18.5 7.0 -18.5 6.95 -18.55 6.95 -18.6 6.85 -19.2 5.05 -18.85 5.0 -19.3 4.65 -9.45 6.75 M-10.85 -1.95 L-10.8 -1.85 -10.7 -1.85 -10.6 -1.85 -10.55 -1.95 -10.6 -2.05 -10.7 -2.1 -10.8 -2.05 -10.85 -1.95" fill="#000000" fill-opacity="0.1254902" fill-rule="evenodd" stroke="none"/>
      <path d="M1.3 -14.1 Q4.55 -13.7 6.2 -11.9 7.8 -10.15 7.8 -7.0 L7.75 -5.7 0.65 -5.7 0.65 -6.85 Q0.65 -8.75 0.45 -9.3 0.2 -9.9 -0.6 -9.9 -1.25 -9.9 -1.6 -9.35 L-1.9 -7.9 Q-1.9 -6.25 -1.25 -5.55 L2.55 -3.0 4.35 -1.85 4.35 -1.8 4.4 -1.55 4.1 -1.65 Q3.4 -1.65 3.4 -1.05 3.4 -0.4 4.0 -0.4 4.65 -0.4 4.65 -1.05 L4.6 -1.2 4.95 -1.15 5.35 -1.2 6.25 -0.5 7.45 1.0 Q7.0 1.1 7.0 1.55 7.0 1.8 7.15 1.9 L7.6 2.4 7.85 3.35 7.75 4.3 Q7.75 5.1 8.45 5.1 L8.55 5.1 8.55 5.85 Q8.55 8.0 8.0 9.6 L7.95 9.6 Q7.2 9.6 7.2 10.35 7.2 10.7 7.45 10.85 L7.4 10.95 Q7.15 10.95 7.05 11.1 L6.8 11.6 6.35 12.0 6.1 12.4 6.1 12.5 5.35 13.1 4.9 13.2 Q4.65 13.25 4.65 13.45 3.25 14.2 1.3 14.45 L1.3 17.1 -1.95 17.1 -1.95 16.1 -1.9 16.0 -1.4 14.95 -1.4 14.9 -1.25 14.7 -1.15 14.35 Q-1.15 13.75 -1.7 13.8 -2.25 13.85 -2.3 14.3 -4.95 13.95 -6.9 12.2 -8.15 11.05 -8.65 8.95 -8.5 8.85 -8.5 8.6 -8.5 8.3 -8.8 8.3 L-9.0 5.6 -9.0 4.2 -3.5 4.2 -3.5 4.3 -3.2 4.65 Q-2.9 4.65 -2.9 4.3 L-2.9 4.2 -2.25 4.2 -2.35 4.35 -1.95 5.25 -1.95 5.9 -1.95 6.55 -2.0 6.55 -3.05 6.75 -3.15 7.1 Q-3.2 8.0 -2.15 8.0 L-1.9 8.0 -1.75 9.45 Q-1.55 10.15 -0.7 10.15 0.05 10.15 0.4 9.65 L0.5 9.5 1.2 9.75 Q2.1 9.75 2.1 7.95 2.1 7.4 1.75 7.3 L1.75 7.25 1.9 6.9 Q1.9 6.25 1.3 6.25 0.8 6.25 0.7 6.7 L0.4 4.85 0.2 4.4 0.3 3.9 Q0.35 3.15 -0.3 3.15 L-0.85 3.35 -1.85 2.65 -4.7 0.8 -4.7 0.7 Q-4.7 0.15 -5.45 0.0 L-5.8 0.0 -6.0 -0.15 -5.85 -0.5 -5.95 -0.8 Q-6.1 -1.1 -6.4 -1.1 L-6.9 -1.0 -8.25 -3.0 Q-8.95 -4.5 -9.05 -6.25 L-8.55 -6.8 Q-8.3 -7.2 -8.3 -7.5 L-8.5 -8.2 -8.9 -8.75 Q-8.65 -10.2 -7.85 -11.25 -7.15 -11.5 -5.3 -13.0 L-4.8 -13.4 -4.4 -13.55 -2.8 -13.95 -2.6 -13.95 Q-2.35 -13.95 -2.25 -14.05 L-1.95 -14.1 -1.95 -16.35 1.3 -16.35 1.3 -14.1 M0.7 7.1 L0.85 7.4 0.7 7.45 0.7 7.1 M0.8 3.05 Q0.4 3.05 0.4 3.3 0.4 3.7 0.75 3.7 L1.1 3.4 Q1.1 3.05 0.8 3.05 M-1.4 2.15 Q-1.4 1.8 -1.75 1.85 L-2.1 2.2 -1.75 2.5 Q-1.4 2.5 -1.4 2.15" fill="#000000" fill-opacity="0.42352942" fill-rule="evenodd" stroke="none"/>
      <path d="M-36.25 -0.9 L-33.45 -0.9 -33.45 -3.7 -32.05 -3.7 -32.05 -0.9 -29.25 -0.9 -29.25 0.5 -32.05 0.5 -32.05 3.3 -33.45 3.3 -33.45 0.5 -36.25 0.5 -36.25 -0.9" fill="#000000" fill-opacity="0.2784314" fill-rule="evenodd" stroke="none"/>
    </g>
    <g id="sprite1" transform="matrix(1.0, 0.0, 0.0, 1.0, 22.95, 26.75)">
      <use height="53.5" transform="matrix(1.0, 0.0, 0.0, 1.0, -22.95, -26.75)" width="45.85" xlink:href="#shape1"/>
      <use height="16.6" transform="matrix(1.0, 0.0, 0.0, 1.0, 44.5, -10.4)" width="251.05" xlink:href="#text1"/>
    </g>
    <g id="shape1" transform="matrix(1.0, 0.0, 0.0, 1.0, 22.95, 26.75)">
      <path d="M2.75 -15.5 L3.0 -15.0 3.0 -14.95 3.05 -14.7 3.1 -14.7 3.15 -14.6 3.6 -14.6 3.65 -14.5 3.7 -14.5 3.7 -14.45 3.8 -14.45 3.8 -14.35 3.85 -14.25 3.85 -14.15 3.95 -13.65 3.85 -13.55 3.85 -13.5 3.8 -13.45 3.7 -13.35 3.75 -13.3 3.8 -13.1 3.85 -13.05 3.95 -12.95 4.2 -12.95 4.4 -12.8 4.4 -12.75 4.45 -12.65 4.45 -12.6 4.55 -12.6 4.5 -12.45 4.6 -12.4 4.65 -12.35 4.55 -12.35 4.7 -11.85 4.7 -11.65 4.75 -11.65 4.8 -11.5 4.75 -11.45 4.8 -11.35 4.75 -11.1 4.75 -11.0 4.7 -10.85 4.75 -10.8 4.65 -10.8 4.65 -10.75 4.65 -10.5 4.6 -10.45 4.6 -10.4 4.5 -10.3 4.45 -10.25 4.45 -10.2 4.35 -10.1 4.3 -10.1 4.3 -10.0 4.2 -9.95 4.25 -9.9 4.2 -9.9 4.2 -9.85 4.0 -9.65 4.0 -9.6 3.95 -9.5 3.9 -9.5 3.7 -9.3 3.75 -9.25 3.6 -9.1 3.55 -9.05 3.25 -8.8 2.8 -8.4 2.2 -7.8 1.4 -7.1 1.05 -6.65 1.0 -6.6 0.5 -6.15 0.45 -6.15 -4.85 -1.5 -4.9 -1.45 -4.95 -1.35 -5.05 -1.3 -5.4 -0.95 -5.45 -0.9 -5.95 -0.6 -6.05 -0.45 -6.15 -0.45 -6.7 0.05 -6.65 0.1 -6.95 0.3 -7.0 0.4 -7.3 0.55 -7.7 0.9 -8.0 1.2 -8.05 1.2 -8.2 1.35 -8.25 1.35 -8.45 1.5 -8.55 1.5 Q-8.55 1.65 -8.65 1.55 L-9.0 1.85 -9.25 1.95 -9.4 2.05 -9.75 2.3 -9.8 2.3 -9.9 2.35 -10.0 2.4 -10.4 2.35 -10.45 2.4 -10.6 2.35 -10.65 2.4 Q-10.8 2.45 -10.9 2.3 L-10.95 2.35 -11.0 2.3 -11.15 2.35 -11.3 2.2 -11.45 2.1 -11.55 2.15 -11.7 2.1 -11.8 2.0 -11.95 1.95 -12.25 1.7 -12.15 1.65 -12.2 1.6 -12.3 1.6 -12.2 1.55 -12.25 1.45 -12.2 1.45 -12.25 1.25 -12.35 1.2 -12.45 1.25 -12.5 1.15 -12.55 1.15 -12.55 1.05 -12.6 1.1 Q-13.2 1.4 -13.7 0.7 L-13.75 0.45 -13.75 0.4 Q-14.1 0.15 -14.35 0.2 L-14.35 0.25 Q-14.65 -0.15 -15.1 -0.25 L-15.15 -0.2 -15.2 -0.25 -15.25 -0.45 Q-15.65 -1.0 -16.0 -0.65 L-16.05 -0.6 -16.1 -0.6 Q-17.2 -1.05 -18.15 -1.7 L-18.2 -1.75 -18.45 -1.9 -18.55 -1.95 -18.8 -2.15 -18.85 -2.2 -19.0 -2.2 -19.0 -2.3 -19.05 -2.3 -19.1 -2.3 -19.15 -2.45 -19.25 -2.45 -20.5 -3.65 -20.55 -3.6 -20.65 -3.65 -20.7 -3.7 -20.75 -3.7 -20.8 -3.8 -21.05 -4.05 -21.2 -4.15 -21.2 -4.1 -21.35 -4.2 -21.6 -4.4 -21.7 -4.4 -21.8 -4.45 -21.85 -4.65 -21.95 -5.0 -21.9 -5.05 -21.95 -5.1 -21.85 -5.1 -21.95 -5.15 -21.85 -5.3 -21.85 -5.35 -21.85 -5.4 -21.8 -5.45 -21.85 -5.45 -21.75 -5.6 -21.7 -5.65 -21.75 -5.65 -21.55 -5.75 -21.6 -5.8 -22.2 -6.35 -22.25 -6.5 -22.25 -6.6 -22.3 -6.85 -22.3 -6.9 -22.15 -6.95 -22.25 -6.95 -22.2 -7.0 -22.2 -7.1 Q-21.7 -7.5 -22.35 -7.85 L-22.35 -7.9 -22.45 -8.3 -22.45 -8.4 -22.4 -8.45 -22.45 -8.5 -22.35 -8.55 -22.4 -8.65 -22.35 -8.7 -22.35 -8.75 -21.95 -9.2 -21.85 -9.2 Q-22.4 -9.55 -22.4 -9.95 L-22.45 -10.0 -22.35 -10.5 -21.8 -10.9 -22.25 -11.6 -22.3 -11.65 -22.35 -11.7 -22.2 -12.05 -22.2 -12.15 -22.25 -12.1 -21.65 -12.7 -21.7 -12.85 Q-22.35 -13.4 -21.9 -14.0 L-21.25 -14.4 -21.2 -14.5 Q-21.85 -15.0 -21.5 -15.75 L-20.95 -16.2 -20.85 -16.2 Q-21.3 -16.85 -20.85 -17.4 L-20.8 -17.45 -20.85 -17.45 -20.65 -17.6 Q-19.8 -18.05 -19.3 -17.2 L-18.95 -17.8 -18.15 -18.95 -18.05 -18.95 -18.1 -19.05 -18.2 -19.1 -19.35 -19.4 -19.4 -19.45 -19.9 -20.1 Q-20.4 -21.15 -20.05 -22.1 L-20.1 -22.2 Q-20.05 -22.55 -20.35 -23.05 L-20.3 -22.95 -20.85 -21.65 -20.9 -21.6 -22.9 -23.8 -22.85 -23.8 -22.8 -23.7 -21.3 -24.15 -22.75 -24.7 -22.8 -24.8 -22.95 -24.75 -22.95 -24.8 -21.35 -26.2 -20.65 -26.75 -20.65 -26.6 -20.6 -26.15 -20.3 -25.15 -20.25 -25.1 -20.05 -25.4 -20.1 -25.45 -20.05 -25.55 -19.95 -25.6 -20.1 -25.6 -20.0 -25.65 -20.0 -25.7 -19.95 -25.7 -20.0 -25.8 -19.95 -25.85 -19.95 -25.9 -19.9 -25.95 -19.9 -26.05 -19.85 -26.1 -19.9 -26.15 -19.85 -26.15 -19.85 -26.2 -19.75 -26.25 -19.8 -26.4 -19.75 -26.4 -19.8 -26.45 -19.65 -26.5 -19.05 -25.75 -17.85 -24.5 -17.8 -24.35 -17.75 -24.3 -17.85 -24.25 -17.95 -24.25 -17.95 -24.3 -18.0 -24.25 -18.25 -24.15 -18.4 -24.15 -18.45 -24.1 -18.55 -24.2 -19.2 -23.85 -18.45 -23.55 -18.35 -23.6 -17.75 -23.65 -17.5 -23.6 -16.6 -23.2 -16.55 -23.1 -15.9 -22.45 Q-15.65 -21.9 -15.7 -21.4 L-15.7 -21.3 -15.1 -21.65 -13.55 -22.3 -13.6 -22.4 -13.7 -22.4 -13.8 -22.45 -13.85 -22.55 Q-14.2 -23.05 -13.8 -23.6 L-13.8 -23.65 -13.75 -23.7 -13.75 -23.8 -13.55 -23.9 -13.4 -23.95 -13.3 -24.0 -13.15 -24.05 -13.15 -24.0 -13.0 -24.05 -13.0 -23.95 -12.55 -23.9 -12.4 -23.9 Q-12.3 -23.85 -12.25 -23.95 L-12.2 -23.95 -11.55 -24.4 -11.45 -24.4 -11.35 -24.35 -10.8 -24.2 -10.55 -24.0 -10.5 -24.05 -10.4 -24.15 -10.15 -24.5 -10.05 -24.6 -10.0 -24.55 Q-9.35 -24.75 -8.9 -24.2 L-8.9 -24.15 -8.85 -24.15 -8.8 -24.05 -8.75 -24.2 Q-8.45 -24.65 -7.95 -24.6 L-7.9 -24.65 -7.85 -24.65 -7.7 -24.6 -7.65 -24.65 -7.65 -24.6 -7.55 -24.5 -7.0 -24.2 -6.95 -24.25 -6.7 -24.5 -5.95 -24.55 -5.9 -24.55 -5.25 -24.05 -5.15 -24.1 -4.9 -24.3 -4.3 -24.4 -4.25 -24.35 -3.5 -23.8 Q-2.5 -24.45 -2.0 -23.35 L-1.95 -23.3 -1.35 -23.45 -1.25 -23.5 Q-0.3 -23.35 -0.4 -22.45 L-0.35 -22.35 -0.15 -22.2 -0.05 -22.0 1.8 -18.85 2.45 -17.05 2.35 -16.9 Q1.95 -16.75 2.45 -16.3 L2.75 -15.55 2.75 -15.5 M-16.15 -15.5 L-15.35 -15.55 -15.3 -15.45 -15.25 -15.5 Q-16.65 -16.8 -18.05 -17.25 L-18.05 -17.1 -18.35 -16.45 -18.8 -15.5 -19.2 -14.05 Q-19.65 -12.25 -19.7 -10.45 L-19.7 -10.4 -19.5 -10.45 -19.45 -10.5 -19.4 -10.55 -19.25 -10.7 -19.2 -10.7 -19.05 -10.85 -19.1 -10.9 -19.05 -10.95 Q-18.9 -11.65 -18.4 -12.15 L-18.4 -12.3 -18.45 -12.3 -18.25 -12.45 -18.2 -12.4 -17.65 -12.7 -17.6 -12.75 -17.5 -12.9 -17.45 -12.8 -17.2 -13.05 -16.95 -13.3 -16.9 -13.35 Q-16.55 -14.2 -16.45 -15.15 L-16.45 -15.2 -16.4 -15.2 -16.45 -15.25 -16.25 -15.45 -16.15 -15.5 M-9.25 -21.4 L-9.15 -21.45 Q-8.55 -21.9 -7.95 -21.95 -10.35 -22.1 -12.9 -21.3 L-13.85 -21.0 -13.55 -19.9 -12.7 -18.3 -12.45 -18.0 -12.35 -17.95 Q-11.85 -18.65 -11.7 -19.4 L-11.7 -19.45 -11.15 -19.75 -11.1 -19.8 Q-10.85 -19.75 -10.55 -19.95 L-10.35 -20.05 Q-10.3 -20.05 -10.15 -20.15 L-10.1 -20.2 -10.15 -20.25 -10.1 -20.35 -9.65 -20.95 -9.6 -21.0 -9.65 -21.05 Q-9.55 -21.05 -9.55 -21.1 L-9.3 -21.35 -9.25 -21.4" fill="#000000" fill-opacity="0.2627451" fill-rule="evenodd" stroke="none"/>
      <path d="M6.55 -11.7 L6.5 -11.9 6.5 -11.95 9.05 -12.2 Q11.85 -11.95 12.75 -9.4 L18.05 5.1 Q19.2 8.5 14.7 10.2 19.3 8.85 20.6 12.05 L22.9 18.4 12.05 22.4 9.15 14.3 7.95 14.75 10.9 22.8 0.05 26.75 -8.55 3.15 -8.3 2.95 -8.25 2.95 -7.8 2.55 -7.75 2.55 -7.4 2.3 -7.35 2.2 -7.05 1.95 -7.0 1.95 -6.35 1.35 -6.25 1.25 -6.15 1.2 -5.6 0.8 -5.55 0.75 -5.1 0.25 -5.05 0.25 -4.95 0.15 -4.85 0.1 0.8 -4.9 6.45 10.6 7.65 10.15 1.8 -5.85 2.0 -6.05 2.05 -6.05 2.55 -6.5 2.5 -6.6 3.45 -7.4 3.55 -7.45 4.15 -8.1 4.65 -8.6 4.7 -8.6 5.05 -8.85 5.15 -8.95 5.25 -9.15 5.5 -9.4 5.55 -9.4 5.7 -9.5 5.65 -9.6 5.8 -9.8 5.85 -9.9 6.0 -9.95 5.95 -10.0 5.95 -10.05 6.05 -10.1 6.15 -10.2 6.15 -10.4 6.3 -10.45 6.3 -10.6 6.35 -10.6 6.45 -10.85 6.4 -10.9 6.45 -11.0 6.4 -11.1 6.5 -11.25 6.45 -11.4 6.45 -11.5 6.45 -11.6 6.55 -11.7" fill="#000000" fill-opacity="0.87058824" fill-rule="evenodd" stroke="none"/>
    </g>
    <g id="sprite2" transform="matrix(1.0, 0.0, 0.0, 1.0, 12.65, 12.65)">
      <use height="32.65" transform="matrix(1.0, 0.0, 0.0, 1.0, -12.65, -12.65)" width="48.0" xlink:href="#shape2"/>
      <use height="16.6" transform="matrix(1.0, 0.0, 0.0, 1.0, 58.05, -6.4)" width="251.05" xlink:href="#text2"/>
    </g>
    <g id="shape2" transform="matrix(1.0, 0.0, 0.0, 1.0, 12.65, 12.65)">
      <path d="M7.8 -4.5 L6.45 -2.75 4.3 -0.15 3.95 0.3 1.85 1.8 Q-2.45 4.45 -3.5 6.5 L-5.1 9.05 -6.2 10.1 -6.15 9.65 -6.3 9.5 -6.3 7.8 -6.25 7.85 -6.3 7.5 -6.8 7.7 -7.05 7.75 -7.1 7.85 -7.5 7.85 -7.6 7.65 -7.9 7.9 -7.9 8.1 -7.75 8.45 -8.0 8.8 -8.45 8.7 -8.55 8.5 -8.7 8.4 -8.85 8.2 -8.85 7.6 -9.05 7.55 -9.25 6.85 -7.8 5.3 -5.75 2.9 -1.3 -0.9 6.2 -3.8 7.8 -4.5 M18.1 -7.45 L18.15 -7.5 18.2 -7.45 18.3 -7.4 18.65 -7.2 18.75 -6.95 18.85 -6.75 19.05 -6.5 19.45 -5.5 19.5 -5.1 19.5 -4.85 19.45 -4.8 19.2 -4.45 19.1 -4.45 19.1 -4.3 18.75 -3.95 18.65 -3.95 18.7 -3.9 18.35 -3.65 Q17.5 -3.05 16.5 -2.65 L15.9 -2.5 15.5 -2.05 15.3 -1.55 15.15 -1.85 Q10.5 1.0 5.25 2.75 L4.65 3.0 3.35 3.55 11.5 2.8 17.05 2.3 17.75 2.35 17.65 2.2 18.85 2.3 18.95 2.1 22.35 2.4 23.7 2.7 23.9 2.5 23.95 2.5 24.05 2.55 24.1 2.65 24.35 2.9 24.45 3.15 24.45 3.4 24.55 3.65 24.65 4.75 24.6 5.15 24.55 5.45 24.45 5.45 24.15 5.7 24.05 5.7 24.0 5.85 23.6 6.05 23.45 6.05 23.5 6.1 23.15 6.2 21.05 6.7 20.4 6.75 19.9 7.05 19.6 7.45 19.55 7.1 Q14.3 8.55 8.8 8.85 L8.15 8.9 -3.05 10.2 4.85 0.8 Q9.7 -3.8 11.25 -5.7 L11.45 -5.8 12.15 -5.9 12.0 -6.05 13.15 -6.25 13.25 -6.5 16.6 -7.15 17.95 -7.25 18.1 -7.45 M29.9 19.9 L29.85 19.55 Q24.45 20.3 19.0 19.8 L18.4 19.75 6.6 19.4 6.0 19.45 5.75 19.35 5.7 19.45 5.35 19.35 5.25 19.05 4.9 19.2 4.85 19.35 4.8 19.75 4.45 20.0 4.1 19.75 4.05 19.45 4.0 19.3 3.9 19.1 4.15 18.5 4.0 18.35 4.2 16.7 4.3 16.7 4.1 14.45 4.15 14.4 4.25 14.25 4.25 14.15 4.35 13.95 4.35 13.75 4.3 13.6 4.15 13.45 4.25 13.25 4.2 12.85 4.35 12.7 5.0 12.7 5.2 13.45 6.3 13.45 6.4 13.35 22.55 14.2 28.1 14.45 28.8 14.6 28.7 14.5 29.85 14.75 29.95 14.55 Q31.75 14.75 33.35 15.3 L34.6 15.75 34.8 15.65 34.9 15.65 34.95 15.7 35.0 15.8 35.2 16.1 35.3 16.4 35.3 16.6 35.35 16.85 35.3 18.0 35.25 18.35 35.05 18.6 35.0 18.6 34.65 18.8 34.55 18.8 34.5 18.9 34.05 19.05 33.95 19.05 33.95 19.15 33.55 19.2 31.45 19.4 30.8 19.3 30.3 19.55 29.9 19.9 M-5.15 0.6 L-5.7 1.05 Q-8.7 3.75 -9.8 5.2 L-10.55 3.85 -10.5 3.8 -10.5 3.65 -10.55 3.55 -10.55 3.35 -10.65 3.1 -10.65 3.05 -10.85 2.95 -10.9 2.7 -11.1 2.35 -11.0 2.2 -10.45 1.9 -9.95 2.6 -8.9 2.1 -8.85 2.0 -5.15 0.6" fill="#000000" fill-opacity="0.29411766" fill-rule="evenodd" stroke="none"/>
      <path d="M11.15 -12.4 L11.3 -12.25 Q11.45 -12.2 11.55 -12.1 L12.35 -11.3 12.55 -11.0 12.65 -10.7 12.6 -10.65 12.5 -10.25 12.45 -10.2 12.5 -10.05 12.3 -9.65 12.2 -9.55 12.25 -9.5 12.05 -9.2 10.75 -7.5 10.25 -7.1 10.1 -6.55 10.1 -6.05 9.8 -6.25 Q6.65 -1.8 2.55 1.9 L2.1 2.35 -6.2 10.75 -6.6 11.25 -6.8 11.35 -6.8 11.45 -7.1 11.65 -7.35 11.5 -7.5 11.85 -7.45 12.0 -7.15 12.3 -7.25 12.7 -7.65 12.8 -7.9 12.65 -8.05 12.6 -8.25 12.5 -8.5 11.95 -8.7 11.95 -9.8 10.65 -9.75 10.6 -11.55 9.2 -11.55 9.1 -11.6 8.95 -11.65 8.9 -11.75 8.7 -11.9 8.55 -12.0 8.45 -12.2 8.45 -12.3 8.25 -12.65 8.0 -12.65 7.8 -12.2 7.35 -11.5 7.75 -10.75 6.9 -10.75 6.8 0.85 -4.5 4.85 -8.4 5.45 -8.8 5.3 -8.85 6.25 -9.5 6.2 -9.75 9.05 -11.7 10.25 -12.3 10.3 -12.55 10.35 -12.6 10.45 -12.6 10.55 -12.6 10.9 -12.55 11.15 -12.4" fill="#000000" fill-opacity="0.9843137" fill-rule="evenodd" stroke="none"/>
    </g>
    <g id="sprite3" transform="matrix(1.0, 0.0, 0.0, 1.0, 188.6, 33.2)">
      <use height="33.5" transform="matrix(1.0, 0.0, 0.0, 1.0, -109.5, -18.65)" width="38.9" xlink:href="#shape3"/>
      <use height="194.8" transform="matrix(0.5561, 0.0, 0.0, 0.5561, -188.5782, -33.2005)" width="275.25" xlink:href="#sprite4"/>
      <use height="17.7" transform="matrix(1.0, 0.0, 0.0, 1.0, -42.4, -6.85)" width="158.0" xlink:href="#text3"/>
    </g>
    <g id="shape3" transform="matrix(1.0, 0.0, 0.0, 1.0, 109.5, 18.65)">
      <path d="M-104.55 -18.65 Q-96.3 -15.75 -86.3 -11.5 L-86.05 -11.85 -86.2 -10.75 -85.2 -11.95 -85.7 -11.15 -73.55 -12.5 -71.05 -12.35 -70.6 -10.75 -71.7 -6.8 -71.7 -6.65 Q-73.55 -4.55 -75.8 -3.25 L-82.35 -2.95 -85.75 -4.45 Q-85.3 -7.8 -86.5 -9.5 -88.65 -8.9 -90.7 -5.65 -98.35 -2.95 -106.45 -6.5 L-109.3 -10.0 Q-109.85 -12.3 -108.75 -16.15 L-104.55 -18.65 M-90.75 4.45 L-84.7 12.4 Q-86.0 11.6 -86.3 13.4 L-91.45 4.9 Q-91.55 4.2 -90.9 4.4 L-90.75 4.45 M-83.95 13.4 L-83.95 13.65 Q-84.0 14.75 -85.45 14.85 L-86.1 13.75 Q-85.75 12.05 -84.4 12.75 L-83.95 13.4" fill="#000000" fill-rule="evenodd" stroke="none"/>
    </g>
    <g id="sprite4" transform="matrix(1.0, 0.0, 0.0, 1.0, 187.15, 59.7)">
      <use height="100.25" transform="matrix(1.0, 0.0, 0.0, 1.0, -50.4, -50.1)" width="100.8" xlink:href="#shape4"/>
      <clipPath id="clipPath0" transform="matrix(1.0, 0.0, 0.0, 1.0, 187.15, 59.7)">
        <use height="138.95" transform="matrix(1.0, 0.0, 0.0, 1.0, -187.15, -59.55)" width="137.0" xlink:href="#sprite5"/>
      </clipPath>
      <g clip-path="url(#clipPath0)">
        <use height="97.25" transform="matrix(1.0, 0.0, 0.0, 1.0, -48.9, -48.6)" width="97.8" xlink:href="#shape6"/>
      </g>
    </g>
    <g id="shape4" transform="matrix(1.0, 0.0, 0.0, 1.0, 50.4, 50.1)">
      <path d="M41.75 -49.9 L42.3 -49.3 Q50.4 -34.85 50.4 -17.05 50.4 10.75 30.65 30.45 10.95 50.15 -16.8 50.15 -27.25 50.15 -36.45 47.4 -43.4 45.35 -49.65 41.8 L-50.2 41.25 -50.4 40.5 -50.4 33.6 Q-50.4 33.05 -50.0 32.65 -49.65 32.2 -49.1 32.15 L-48.05 32.35 Q-42.15 36.25 -35.55 38.5 -26.75 41.4 -16.75 41.4 7.45 41.4 24.55 24.25 41.7 7.15 41.7 -17.05 41.7 -34.2 33.05 -47.8 32.75 -48.25 32.85 -48.8 32.9 -49.35 33.35 -49.7 33.75 -50.1 34.3 -50.1 L41.0 -50.1 41.75 -49.9" fill="#000000" fill-opacity="0.2901961" fill-rule="evenodd" stroke="none"/>
    </g>
    <g id="sprite5" transform="matrix(1.0, 0.0, 0.0, 1.0, 68.5, 69.45)">
      <use height="138.95" transform="matrix(1.0, 0.0, 0.0, 1.0, -68.5, -69.45)" width="137.0" xlink:href="#shape5"/>
    </g>
    <g id="shape5" transform="matrix(1.0, 0.0, 0.0, 1.0, 68.5, 69.45)">
      <path d="M-68.5 -69.45 L68.5 -69.45 68.5 69.5 Q-57.65 36.05 -68.5 -69.45" fill="#000000" fill-rule="evenodd" stroke="none"/>
    </g>
    <g id="shape6" transform="matrix(1.0, 0.0, 0.0, 1.0, 48.9, 48.6)">
      <path d="M48.9 -17.05 Q48.9 10.15 29.6 29.4 10.35 48.65 -16.8 48.65 -27.0 48.65 -36.05 45.95 -42.8 43.95 -48.9 40.5 L-48.9 33.6 Q-42.85 37.6 -36.05 39.9 -27.0 42.9 -16.75 42.9 8.05 42.9 25.6 25.3 43.2 7.75 43.2 -17.05 43.2 -34.65 34.3 -48.6 L41.0 -48.6 Q48.9 -34.45 48.9 -17.05" fill="#000000" fill-rule="evenodd" stroke="none"/>
    </g>
  </defs>
</svg>
