<?xml version="1.0" encoding="UTF-8" standalone="no"?>
<svg xmlns:xlink="http://www.w3.org/1999/xlink" height="239.65px" width="177.65px" xmlns="http://www.w3.org/2000/svg">
  <g transform="matrix(1.0, 0.0, 0.0, 1.0, 88.8, 119.8)">
    <use height="239.65" transform="matrix(1.0, 0.0, 0.0, 1.0, -88.8, -119.8)" width="177.65" xlink:href="#shape0"/>
  </g>
  <defs>
    <g id="shape0" transform="matrix(1.0, 0.0, 0.0, 1.0, 88.8, 119.8)">
      <path d="M9.4 -117.9 Q7.65 -115.75 6.05 -115.75 L5.9 -115.75 Q4.1 -115.8 0.1 -117.35 -4.1 -116.75 -8.1 -115.45 -16.0 -112.9 -16.0 -109.25 L-15.75 -107.6 Q-15.35 -106.5 -14.75 -106.5 -13.25 -106.5 -12.95 -107.15 L-12.5 -108.5 -9.45 -110.8 Q-7.7 -112.0 -5.95 -112.0 -3.05 -112.0 -1.0 -110.1 1.15 -108.1 0.0 -105.75 L2.15 -105.75 2.9 -106.85 3.5 -108.0 Q3.5 -109.0 1.9 -110.85 L-1.3 -114.1 0.0 -114.1 0.75 -114.3 Q3.05 -114.7 5.65 -112.35 L5.9 -112.1 Q9.25 -108.25 10.85 -107.05 14.85 -104.15 15.9 -100.05 16.25 -98.6 16.25 -97.0 L16.2 -95.15 15.25 -92.9 15.25 -90.75 16.6 -92.0 Q17.9 -93.45 17.9 -94.55 18.8 -95.6 18.95 -97.0 L19.0 -99.6 Q19.0 -100.65 18.5 -101.95 17.45 -104.5 14.45 -107.9 11.15 -111.65 7.55 -114.4 L10.45 -114.9 Q11.9 -115.2 12.75 -116.3 16.25 -114.35 19.3 -111.3 21.85 -108.75 23.7 -105.8 27.8 -99.15 27.8 -90.75 27.8 -78.7 19.3 -70.2 15.75 -66.65 11.6 -64.6 9.75 -65.95 9.05 -66.15 L5.15 -66.3 1.95 -65.8 Q1.0 -65.5 0.55 -64.9 -0.45 -63.6 -0.5 -59.5 L0.5 -59.5 1.4 -59.25 3.3 -58.7 3.3 -53.2 35.7 -31.2 73.75 -55.7 Q80.45 -59.0 85.25 -55.7 92.45 -50.9 85.25 -43.2 L39.2 -20.2 3.3 -39.7 3.3 -23.55 1.65 -20.3 Q-0.65 -15.6 0.5 -12.75 L-1.55 -12.75 -2.15 -14.5 -3.25 -16.55 Q-2.45 -20.5 -1.65 -21.05 -3.6 -19.9 -5.0 -17.25 -6.25 -14.9 -6.25 -13.4 -6.25 -11.55 -3.65 -10.0 L-2.6 -9.25 Q-1.05 -8.0 -1.05 -6.75 L-1.15 -5.15 0.15 -4.9 Q0.55 -7.55 2.3 -7.55 L3.3 -7.55 3.3 6.35 46.25 51.35 53.75 111.35 Q53.75 118.45 45.25 119.85 34.35 118.85 32.7 112.35 L32.7 55.8 -2.0 23.1 -5.15 49.6 -5.15 49.7 -5.4 49.65 Q-5.5 52.3 -7.6 53.6 L-8.35 54.0 Q-8.9 54.25 -9.35 55.05 L-8.75 56.25 -8.65 58.1 Q-8.65 62.05 -10.95 65.95 -12.3 68.2 -15.75 72.75 -13.95 73.2 -12.7 74.8 L-11.8 75.3 -32.3 111.35 Q-34.2 118.55 -46.3 118.35 -58.35 113.8 -54.3 105.85 L-21.3 63.35 -15.3 8.35 -8.8 -40.05 -11.7 -43.3 -39.3 -47.7 -68.8 -19.2 Q-81.35 -14.1 -82.8 -19.2 -90.5 -23.25 -88.3 -28.2 L-44.3 -60.2 -7.1 -53.0 -5.9 -62.0 Q-15.0 -63.4 -21.8 -70.2 L-22.85 -71.3 Q-30.3 -79.5 -30.3 -90.75 -30.3 -102.8 -21.8 -111.3 -13.3 -119.8 -1.25 -119.8 2.65 -119.8 6.15 -118.9 L9.4 -117.9 M-14.55 -82.1 L-14.05 -83.4 -14.85 -83.7 -16.4 -84.25 Q-18.2 -84.25 -20.05 -82.65 -21.45 -81.35 -22.0 -80.15 L-22.55 -80.2 -22.75 -79.2 Q-22.75 -78.6 -21.1 -76.7 L-19.0 -74.5 -18.7 -74.4 Q-11.15 -71.3 -9.75 -70.9 L-6.95 -69.9 -6.85 -70.15 Q-7.5 -70.7 -7.8 -71.5 -8.35 -72.85 -9.0 -73.4 L-10.8 -74.15 -16.65 -75.9 -17.1 -76.05 Q-19.5 -77.1 -19.5 -80.15 -19.5 -82.2 -14.55 -82.1" fill="#000000" fill-rule="evenodd" stroke="none"/>
      <path d="M12.75 -116.3 Q11.9 -115.2 10.45 -114.9 L7.55 -114.4 Q11.15 -111.65 14.45 -107.9 17.45 -104.5 18.5 -101.95 19.0 -100.65 19.0 -99.6 L18.95 -97.0 Q18.8 -95.6 17.9 -94.55 17.9 -93.45 16.6 -92.0 L15.25 -90.75 15.25 -92.9 16.2 -95.15 16.25 -97.0 Q16.25 -98.6 15.9 -100.05 14.85 -104.15 10.85 -107.05 9.25 -108.25 5.9 -112.1 L5.65 -112.35 Q3.05 -114.7 0.75 -114.3 L0.0 -114.1 -1.3 -114.1 1.9 -110.85 Q3.5 -109.0 3.5 -108.0 L2.9 -106.85 2.15 -105.75 0.0 -105.75 Q1.15 -108.1 -1.0 -110.1 -3.05 -112.0 -5.95 -112.0 -7.7 -112.0 -9.45 -110.8 L-12.5 -108.5 -12.95 -107.15 Q-13.25 -106.5 -14.75 -106.5 -15.35 -106.5 -15.75 -107.6 L-16.0 -109.25 Q-16.0 -112.9 -8.1 -115.45 -4.1 -116.75 0.1 -117.35 4.1 -115.8 5.9 -115.75 L6.05 -115.75 Q7.65 -115.75 9.4 -117.9 L12.75 -116.3 M-11.8 75.3 L-12.7 74.8 Q-13.95 73.2 -15.75 72.75 -12.3 68.2 -10.95 65.95 -8.65 62.05 -8.65 58.1 L-8.75 56.25 -9.35 55.05 Q-8.9 54.25 -8.35 54.0 L-7.6 53.6 Q-5.5 52.3 -5.4 49.65 L-5.15 49.7 -7.3 67.35 -11.8 75.3 M3.3 -7.55 L2.3 -7.55 Q0.55 -7.55 0.15 -4.9 L-1.15 -5.15 -1.05 -6.75 Q-1.05 -8.0 -2.6 -9.25 L-3.65 -10.0 Q-6.25 -11.55 -6.25 -13.4 -6.25 -14.9 -5.0 -17.25 -3.6 -19.9 -1.65 -21.05 -2.45 -20.5 -3.25 -16.55 L-2.15 -14.5 -1.55 -12.75 0.5 -12.75 Q-0.65 -15.6 1.65 -20.3 L3.3 -23.55 3.3 -7.55 M3.3 -58.7 L1.4 -59.25 0.5 -59.5 -0.5 -59.5 Q-0.45 -63.6 0.55 -64.9 1.0 -65.5 1.95 -65.8 L5.15 -66.3 9.05 -66.15 Q9.75 -65.95 11.6 -64.6 7.7 -62.65 3.3 -62.0 L3.3 -58.7 M-14.55 -82.1 Q-19.5 -82.2 -19.5 -80.15 -19.5 -77.1 -17.1 -76.05 L-16.65 -75.9 -10.8 -74.15 -9.0 -73.4 Q-8.35 -72.85 -7.8 -71.5 -7.5 -70.7 -6.85 -70.15 L-6.95 -69.9 -9.75 -70.9 Q-11.15 -71.3 -18.7 -74.4 L-19.0 -74.5 -21.1 -76.7 Q-22.75 -78.6 -22.75 -79.2 L-22.55 -80.2 -22.0 -80.15 Q-21.45 -81.35 -20.05 -82.65 -18.2 -84.25 -16.4 -84.25 L-14.85 -83.7 -14.05 -83.4 -14.55 -82.1" fill="#770000" fill-rule="evenodd" stroke="none"/>
    </g>
  </defs>
</svg>
