<?xml version="1.0" encoding="UTF-8" standalone="no"?>
<svg xmlns:xlink="http://www.w3.org/1999/xlink" height="450.5px" width="494.9px" xmlns="http://www.w3.org/2000/svg">
  <g transform="matrix(1.0, 0.0, 0.0, 1.0, 252.25, 225.25)">
    <use height="450.5" transform="matrix(1.0, 0.0, 0.0, 1.0, -252.25, -225.25)" width="494.9" xlink:href="#shape0"/>
  </g>
  <defs>
    <g id="shape0" transform="matrix(1.0, 0.0, 0.0, 1.0, 252.25, 225.25)">
      <path d="M-49.15 -190.3 L11.85 -179.8 Q47.9 -107.3 52.85 -34.8 L-252.25 -17.55 -252.25 -43.8 Q-140.55 -25.9 34.85 -43.8 48.9 -104.6 -2.15 -168.85 L-49.15 -190.3" fill="#333333" fill-rule="evenodd" stroke="none"/>
      <path d="M228.8 8.6 Q233.0 31.3 242.65 126.35 L-113.2 225.25 -252.25 225.25 -252.25 85.25 -197.2 44.25 Q-23.8 8.15 179.9 -3.75 210.1 -7.2 228.8 8.6 M-252.25 -43.8 L-252.25 -225.25 -49.15 -190.3 -2.15 -168.85 Q48.9 -104.6 34.85 -43.8 -140.55 -25.9 -252.25 -43.8" fill="#444444" fill-rule="evenodd" stroke="none"/>
      <path d="M52.85 -34.8 Q139.0 -39.0 221.9 -20.8 L-252.25 34.15 -252.25 -17.55 52.85 -34.8" fill="#222222" fill-rule="evenodd" stroke="none"/>
      <path d="M221.9 -20.8 Q226.05 -6.1 228.8 8.6 210.1 -7.2 179.9 -3.75 -23.8 8.15 -197.2 44.25 L-252.25 85.25 -252.25 34.15 221.9 -20.8" fill="#373737" fill-rule="evenodd" stroke="none"/>
    </g>
  </defs>
</svg>
