<?xml version="1.0" encoding="UTF-8" standalone="no"?>
<svg xmlns:xlink="http://www.w3.org/1999/xlink" height="61.65px" width="198.3px" xmlns="http://www.w3.org/2000/svg">
  <g transform="matrix(1.0, 0.0, 0.0, 1.0, 52.05, -31.65)">
    <path d="M109.1 71.3 L104.85 70.65 Q107.2 68.8 111.45 69.15 L111.85 68.35 Q113.55 65.5 116.45 65.7 L116.3 68.85 118.95 69.5 119.0 66.3 120.7 66.2 123.6 66.3 123.45 68.4 123.15 70.65 Q123.15 71.5 123.75 71.45 L124.8 71.45 124.45 71.9 126.6 72.05 Q124.8 72.25 124.5 72.85 L124.25 74.0 123.45 74.65 Q133.4 74.5 136.65 75.6 137.0 76.3 134.8 77.05 L144.0 77.55 144.1 77.85 144.9 78.45 144.05 79.0 146.1 79.2 146.2 79.1 146.25 80.1 Q146.25 81.15 143.85 81.45 L137.8 81.8 137.75 82.5 124.35 83.15 117.3 82.7 110.85 81.95 110.7 81.6 112.6 81.35 112.5 81.3 113.2 80.95 109.95 80.6 Q109.35 80.4 109.5 79.7 109.65 78.85 108.9 78.3 L108.9 78.15 105.35 77.7 Q107.35 76.2 112.1 75.45 107.4 75.35 106.8 74.85 107.3 74.15 106.55 73.85 110.3 73.1 110.45 71.75 L110.7 71.7 110.7 71.5 109.1 71.3 M116.3 78.7 L127.35 78.75 114.6 78.6 116.3 78.7 M46.05 33.0 L46.05 33.45 Q45.15 34.05 43.8 34.05 L42.25 33.85 41.4 33.3 43.15 32.5 Q44.65 32.05 46.05 33.0 M15.15 33.45 Q22.5 33.15 22.5 35.75 L22.45 36.6 22.45 36.65 22.95 37.1 21.25 39.75 22.95 40.1 23.05 39.95 23.1 40.95 Q23.1 42.2 17.9 44.25 L16.4 44.8 16.8 44.8 Q20.15 44.9 24.75 46.05 L24.75 46.5 Q23.85 47.1 22.5 47.1 L17.8 46.7 12.65 45.85 6.2 46.5 2.5 46.3 -0.5 45.75 Q-0.3 44.8 0.5 43.95 L-4.05 42.6 -5.85 41.95 -5.4 42.45 Q-5.4 43.05 -6.3 43.35 L-11.3 43.6 Q-9.95 43.8 -9.0 44.25 -10.05 44.85 -11.4 45.25 -7.6 45.9 -4.1 47.1 L-3.55 47.1 -3.05 47.1 -2.95 47.25 -1.85 47.4 -1.75 47.85 -1.7 49.1 Q-1.7 50.0 -1.85 50.9 L-5.25 51.2 -8.85 50.9 -8.9 49.4 -10.8 49.4 Q-11.7 50.0 -13.25 50.0 -14.75 50.0 -15.65 49.4 L-16.55 49.4 -21.05 48.95 -21.55 49.2 -23.0 49.4 -24.55 49.2 -25.4 48.65 -23.65 47.9 -23.55 47.9 -24.05 47.7 Q-24.2 48.5 -24.2 47.0 -24.2 45.9 -23.2 45.25 -23.45 44.05 -22.0 43.05 -18.6 40.75 -6.65 41.65 -9.45 40.55 -9.45 40.05 -9.45 38.5 -4.45 36.8 -1.3 35.7 2.85 34.95 4.4 33.9 6.7 33.4 L4.55 33.25 0.6 32.7 Q1.65 32.3 1.35 32.05 1.15 31.8 1.25 31.8 L17.0 31.65 17.1 31.85 17.6 32.4 Q17.2 32.55 17.45 32.8 L17.6 33.1 15.0 33.4 15.15 33.45 M17.6 35.85 L13.85 35.65 17.6 35.95 17.6 35.85 M34.95 43.5 L33.4 43.3 32.55 42.75 34.3 41.95 Q35.8 41.5 37.2 42.45 L37.2 42.9 Q36.3 43.5 34.95 43.5 M34.8 61.4 L34.8 61.85 Q33.9 62.45 32.55 62.45 L31.0 62.25 30.15 61.7 31.9 60.9 Q33.4 60.45 34.8 61.4 M20.45 55.95 Q19.7 56.55 18.35 56.55 16.9 56.55 14.9 55.35 L14.85 54.9 Q16.7 54.25 17.7 54.25 17.75 53.15 18.95 52.65 21.25 51.65 27.05 53.55 L25.0 55.1 Q23.4 55.95 21.3 55.95 L20.45 55.95 M25.5 64.65 L27.15 63.85 Q28.6 63.4 30.0 64.35 L30.0 64.8 Q29.2 65.4 27.8 65.4 L26.3 65.2 25.5 64.65 M34.5 71.1 Q36.75 70.35 41.7 71.0 L41.8 71.3 42.45 71.9 Q41.8 72.7 41.6 73.7 40.95 74.3 36.65 74.3 L33.95 74.1 31.95 73.55 32.15 73.1 31.95 73.1 30.4 72.9 29.6 72.35 31.35 71.5 33.45 71.65 Q33.9 71.3 34.5 71.1 M35.8 69.4 L34.95 68.85 36.7 68.05 Q38.2 67.6 39.5 68.55 L39.5 69.0 38.8 69.4 37.35 69.6 35.8 69.4 M1.0 60.7 L0.35 61.2 0.05 61.6 Q-0.5 62.45 -2.3 62.45 L-3.45 62.35 -5.55 62.45 Q-8.85 62.45 -9.45 60.7 L-9.45 58.8 Q-9.45 58.1 -9.0 57.5 L-17.75 58.35 Q-22.6 58.35 -24.05 57.65 L-24.8 56.7 Q-23.85 54.6 -19.5 53.7 -12.95 52.4 2.85 53.1 L2.0 53.6 Q4.15 54.0 5.45 55.8 L5.9 56.25 Q3.35 58.1 1.0 60.7 M1.8 71.3 L0.3 71.1 -0.5 70.65 1.2 69.8 Q2.6 69.4 3.95 70.35 L3.95 70.7 Q3.25 71.3 1.8 71.3 M15.35 76.75 Q17.7 76.1 21.75 76.05 L22.2 76.6 22.9 77.2 24.15 76.8 Q26.85 76.0 29.45 75.65 32.45 75.25 34.3 75.6 L35.35 75.05 37.6 75.15 Q39.5 74.85 41.6 75.55 L42.6 75.05 Q44.0 74.65 45.45 75.6 L45.45 76.05 Q44.55 76.65 43.2 76.65 L41.75 76.5 41.35 76.8 39.65 77.25 38.15 77.05 37.45 76.6 36.45 76.65 35.4 76.6 Q32.9 77.95 30.05 78.45 L31.85 78.85 33.15 78.75 Q33.15 78.45 46.65 78.45 L46.75 78.65 47.25 79.2 Q44.65 81.45 36.9 81.4 L31.3 81.0 31.2 81.05 31.0 81.15 Q32.35 81.2 33.6 81.6 L33.75 81.95 Q33.6 82.4 33.05 82.7 L31.35 83.15 29.85 82.95 29.0 82.4 29.0 81.3 19.5 81.45 Q5.85 81.45 -1.1 79.5 L2.9 76.65 2.4 76.65 0.85 76.45 0.0 75.9 Q1.0 75.3 1.75 75.1 3.25 74.65 4.55 75.6 6.45 74.55 7.75 74.25 9.85 73.7 11.75 75.2 L14.4 77.05 15.35 76.75 M2.25 92.7 Q1.35 93.3 0.0 93.3 L-1.5 93.1 -2.3 92.55 -0.6 91.75 Q0.85 91.3 2.25 92.25 L2.25 92.7 M39.4 84.6 Q40.9 84.15 43.65 85.1 L43.65 85.55 Q42.65 86.1 40.8 86.1 38.9 86.1 37.85 85.4 L39.4 84.6 M28.5 78.65 L23.85 79.35 23.7 79.5 27.45 78.9 28.5 78.65 M29.45 84.35 Q28.55 84.95 27.2 84.95 L25.7 84.75 24.9 84.2 26.55 83.4 Q28.0 82.95 29.45 83.9 L29.45 84.35 M43.2 71.15 L44.9 70.4 Q46.45 69.95 47.85 70.85 L47.85 71.3 Q46.95 71.9 45.6 71.9 L44.05 71.7 43.2 71.15 M48.65 73.4 Q50.75 73.05 53.1 73.85 L53.1 74.3 52.4 74.65 50.9 74.85 49.4 74.65 48.6 74.15 48.65 73.4 M-22.5 35.7 L-20.85 34.85 Q-19.35 34.45 -17.25 35.4 L-17.25 35.85 Q-18.15 36.45 -19.8 36.45 L-20.05 36.45 -19.5 36.6 -19.25 36.85 -19.05 37.4 -19.6 37.8 -21.3 38.15 -22.8 37.95 -23.6 37.4 -24.2 36.6 Q-23.65 36.2 -22.5 36.15 L-21.6 36.2 -22.5 35.7 M-15.45 45.9 L-12.5 45.6 -13.0 45.6 -15.4 45.85 -15.45 45.9 M-42.8 50.15 Q-41.15 50.6 -39.15 51.9 L-39.15 52.35 Q-40.05 52.95 -42.6 52.95 -45.2 52.95 -46.1 52.25 L-46.7 51.35 -46.55 49.7 -42.8 50.15 M-46.85 76.05 Q-47.75 76.65 -49.35 76.65 -51.05 76.65 -52.05 75.9 -50.7 75.1 -50.35 75.05 -48.85 74.65 -46.85 75.6 L-46.85 76.05 M-16.2 66.0 Q-17.9 66.0 -18.9 65.25 -17.9 64.05 -16.35 63.5 -14.6 62.85 -13.7 63.75 -13.55 64.2 -13.55 65.1 -14.45 66.0 -16.2 66.0 M-31.5 51.8 Q-32.5 52.35 -33.75 52.35 L-35.25 52.15 -36.05 51.65 Q-35.15 51.05 -34.35 50.85 -32.9 50.4 -31.5 51.35 L-31.5 51.8 M-24.95 73.85 L-24.95 74.3 Q-25.95 74.85 -27.75 74.85 -29.7 74.85 -30.75 74.15 -30.0 73.55 -29.2 73.35 -27.65 72.9 -24.95 73.85 M-24.0 75.25 L-24.8 74.7 Q-23.9 74.15 -23.15 73.9 -21.65 73.5 -20.25 74.45 L-20.25 74.85 Q-21.15 75.45 -22.5 75.45 L-24.0 75.25 M-25.95 81.75 Q-23.95 82.2 -22.65 83.3 L-22.65 84.05 -23.6 84.2 -25.4 84.35 Q-28.35 84.35 -29.05 83.5 L-29.55 81.9 -25.95 81.75 M-31.4 77.85 Q-32.45 78.45 -33.75 78.45 L-35.25 78.25 -36.05 77.7 -37.25 77.85 -38.75 77.65 -39.6 77.1 -37.9 76.3 -35.9 76.35 -33.45 76.25 -30.9 76.8 Q-30.3 77.25 -31.4 77.85 M-30.9 81.45 Q-31.65 81.95 -33.45 81.95 -35.2 81.95 -36.05 81.3 L-34.5 80.45 Q-33.05 80.05 -30.9 81.0 L-30.9 81.45 M-16.5 80.25 L-18.05 80.05 -18.9 79.5 -17.1 78.7 Q-15.6 78.25 -14.3 79.2 L-14.3 79.65 -15.0 80.05 -16.5 80.25" fill="#990000" fill-rule="evenodd" stroke="none"/>
    <path d="M68.65 69.4 L10.55 73.85 -27.3 73.7" fill="none" stroke="#000000" stroke-linecap="round" stroke-linejoin="round" stroke-width="10.0"/>
    <path d="M-10.55 73.35 L28.9 75.1 66.6 68.45 136.5 75.85" fill="none" stroke="#000000" stroke-linecap="round" stroke-linejoin="round" stroke-width="10.0"/>
    <path d="M122.65 73.55 L76.7 76.9 115.3 80.45" fill="none" stroke="#000000" stroke-linecap="round" stroke-linejoin="round" stroke-width="10.0"/>
  </g>
</svg>
