<?xml version="1.0" encoding="UTF-8" standalone="no"?>
<svg xmlns:xlink="http://www.w3.org/1999/xlink" height="53.3px" width="99.9px" xmlns="http://www.w3.org/2000/svg">
  <g transform="matrix(1.0, 0.0, 0.0, 1.0, 52.05, -31.65)">
    <path d="M46.05 33.0 L46.05 33.45 Q45.15 34.05 43.8 34.05 L42.25 33.85 41.4 33.3 43.15 32.5 Q44.65 32.05 46.05 33.0 M15.15 33.45 Q22.5 33.15 22.5 35.75 L22.45 36.6 22.45 36.65 22.95 37.1 21.25 39.75 22.95 40.1 23.05 39.95 23.1 40.95 Q23.1 42.2 17.9 44.25 L16.4 44.8 16.8 44.8 Q20.15 44.9 24.75 46.05 L24.75 46.5 Q23.85 47.1 22.5 47.1 L17.8 46.7 12.65 45.85 6.2 46.5 2.5 46.3 -0.5 45.75 Q-0.3 44.8 0.5 43.95 L-4.05 42.6 -5.85 41.95 -5.4 42.45 Q-5.4 43.05 -6.3 43.35 L-11.3 43.6 Q-9.95 43.8 -9.0 44.25 -10.05 44.85 -11.4 45.25 -7.6 45.9 -4.1 47.1 L-3.55 47.1 -3.05 47.1 -2.95 47.25 -1.85 47.4 -1.75 47.85 -1.7 49.1 Q-1.7 50.0 -1.85 50.9 L-5.25 51.2 -8.85 50.9 -8.9 49.4 -10.8 49.4 Q-11.7 50.0 -13.25 50.0 -14.75 50.0 -15.65 49.4 L-16.55 49.4 -21.05 48.95 -21.55 49.2 -23.0 49.4 -24.55 49.2 -25.4 48.65 -23.65 47.9 -23.55 47.9 -24.05 47.7 Q-24.2 48.5 -24.2 47.0 -24.2 45.9 -23.2 45.25 -23.45 44.05 -22.0 43.05 -18.6 40.75 -6.65 41.65 -9.45 40.55 -9.45 40.05 -9.45 38.5 -4.45 36.8 -1.3 35.7 2.85 34.95 4.4 33.9 6.7 33.4 L4.55 33.25 0.6 32.7 Q1.65 32.3 1.35 32.05 1.15 31.8 1.25 31.8 L17.0 31.65 17.1 31.85 17.6 32.4 Q17.2 32.55 17.45 32.8 L17.6 33.1 15.0 33.4 15.15 33.45 M17.6 35.85 L13.85 35.65 17.6 35.95 17.6 35.85 M34.95 43.5 L33.4 43.3 32.55 42.75 34.3 41.95 Q35.8 41.5 37.2 42.45 L37.2 42.9 Q36.3 43.5 34.95 43.5 M34.8 61.4 L34.8 61.85 Q33.9 62.45 32.55 62.45 L31.0 62.25 30.15 61.7 31.9 60.9 Q33.4 60.45 34.8 61.4 M20.45 55.95 Q19.7 56.55 18.35 56.55 16.9 56.55 14.9 55.35 L14.85 54.9 Q16.7 54.25 17.7 54.25 17.75 53.15 18.95 52.65 21.25 51.65 27.05 53.55 L25.0 55.1 Q23.4 55.95 21.3 55.95 L20.45 55.95 M22.35 69.0 Q21.45 69.6 20.1 69.6 L18.6 69.4 17.75 68.85 19.45 68.05 Q20.85 67.6 22.35 68.55 L22.35 69.0 M31.95 73.1 L30.4 72.9 29.6 72.35 31.35 71.5 Q32.8 71.1 34.2 72.05 L34.2 72.5 Q33.3 73.1 31.95 73.1 M39.5 69.0 L38.8 69.4 37.35 69.6 35.8 69.4 34.95 68.85 36.7 68.05 Q38.2 67.6 39.5 68.55 L39.5 69.0 M1.0 60.7 L0.35 61.2 0.05 61.6 Q-0.5 62.45 -2.3 62.45 L-3.45 62.35 -5.55 62.45 Q-8.85 62.45 -9.45 60.7 L-9.45 58.8 Q-9.45 58.1 -9.0 57.5 L-17.75 58.35 Q-22.6 58.35 -24.05 57.65 L-24.8 56.7 Q-23.85 54.6 -19.5 53.7 -12.95 52.4 2.85 53.1 L2.0 53.6 Q4.15 54.0 5.45 55.8 L5.9 56.25 Q3.35 58.1 1.0 60.7 M3.95 70.35 L3.95 70.7 Q3.25 71.3 1.8 71.3 L0.3 71.1 -0.5 70.65 1.2 69.8 Q2.6 69.4 3.95 70.35 M15.65 77.65 Q18.8 78.55 24.15 76.8 26.85 76.0 29.45 75.65 34.1 75.0 36.0 76.2 33.25 77.9 30.05 78.45 31.45 78.5 32.4 79.2 31.5 79.75 31.5 80.35 31.45 80.95 31.2 81.05 L19.5 81.45 Q5.85 81.45 -1.1 79.5 4.75 74.95 7.75 74.25 9.85 73.7 11.75 75.2 14.4 77.25 15.65 77.65 M28.5 78.65 L23.85 79.35 23.7 79.5 27.45 78.9 28.5 78.65 M25.7 84.75 L24.9 84.2 26.55 83.4 Q28.0 82.95 29.45 83.9 L29.45 84.35 Q28.55 84.95 27.2 84.95 L25.7 84.75 M47.85 70.85 L47.85 71.3 Q46.95 71.9 45.6 71.9 L44.05 71.7 43.2 71.15 44.9 70.4 Q46.45 69.95 47.85 70.85 M45.45 76.05 Q44.55 76.65 43.2 76.65 L41.65 76.45 40.85 75.9 Q42.35 75.1 42.6 75.05 44.0 74.65 45.45 75.6 L45.45 76.05 M-22.5 36.15 L-21.6 36.2 -22.5 35.7 -20.85 34.85 Q-19.35 34.45 -17.25 35.4 L-17.25 35.85 Q-18.15 36.45 -19.8 36.45 L-20.05 36.45 -19.5 36.6 -19.25 36.85 -19.05 37.4 -19.6 37.8 -21.3 38.15 -22.8 37.95 -23.6 37.4 -24.2 36.6 Q-23.65 36.2 -22.5 36.15 M-15.45 45.9 L-12.5 45.6 -13.0 45.6 -15.4 45.85 -15.45 45.9 M-46.7 51.35 L-46.55 49.7 -42.8 50.15 Q-41.15 50.6 -39.15 51.9 L-39.15 52.35 Q-40.05 52.95 -42.6 52.95 -45.2 52.95 -46.1 52.25 L-46.7 51.35 M-52.05 75.9 Q-50.7 75.1 -50.35 75.05 -48.85 74.65 -46.85 75.6 L-46.85 76.05 Q-47.75 76.65 -49.35 76.65 -51.05 76.65 -52.05 75.9 M-16.35 63.5 Q-14.6 62.85 -13.7 63.75 -13.55 64.2 -13.55 65.1 -14.45 66.0 -16.2 66.0 -17.9 66.0 -18.9 65.25 -17.9 64.05 -16.35 63.5 M-33.75 52.35 L-35.25 52.15 -36.05 51.65 Q-35.15 51.05 -34.35 50.85 -32.9 50.4 -31.5 51.35 L-31.5 51.8 Q-32.5 52.35 -33.75 52.35 M-24.95 73.85 L-24.95 74.3 Q-25.95 74.85 -27.75 74.85 -29.7 74.85 -30.75 74.15 -30.0 73.55 -29.2 73.35 -27.65 72.9 -24.95 73.85 M-16.5 80.25 L-18.05 80.05 -18.9 79.5 -17.1 78.7 Q-15.6 78.25 -14.3 79.2 L-14.3 79.65 -15.0 80.05 -16.5 80.25" fill="#990000" fill-rule="evenodd" stroke="none"/>
  </g>
</svg>
