<?xml version="1.0" encoding="UTF-8" standalone="no"?>
<svg xmlns:xlink="http://www.w3.org/1999/xlink" height="19.05px" width="26.45px" xmlns="http://www.w3.org/2000/svg">
  <g transform="matrix(1.0, 0.0, 0.0, 1.0, -102.8, -13.0)">
    <path d="M115.8 18.1 Q114.6 18.55 114.1 18.8 L114.0 18.8 115.7 19.2 117.6 19.6 Q117.85 20.25 118.8 20.3 L121.4 20.25 126.5 20.65 129.0 20.9 129.0 21.0 129.25 21.1 Q127.8 21.9 123.45 22.25 L118.35 22.6 115.0 23.15 112.15 23.95 Q109.4 24.6 108.6 26.7 L108.55 27.0 Q108.3 27.5 108.0 29.3 L107.25 32.0 107.2 32.05 107.05 30.2 106.85 28.6 106.7 27.3 106.65 26.85 106.85 26.45 107.0 25.35 107.0 25.2 105.3 25.25 Q104.3 25.1 104.25 23.85 104.3 23.6 104.8 23.3 L105.75 22.6 105.1 21.85 103.9 20.9 103.35 19.95 102.8 18.75 106.25 18.1 Q106.65 16.75 106.8 16.55 L108.65 14.75 110.9 13.0 109.75 15.25 108.4 17.1 108.5 17.15 109.75 16.55 110.85 16.5 110.85 16.6 109.55 17.65 109.35 17.8 111.35 17.8 Q114.9 17.8 116.7 16.8 L117.55 16.75 115.8 18.1 M115.55 19.9 L112.6 19.45 110.0 19.0 Q109.65 19.0 108.35 19.55 L106.9 20.0 106.3 19.5 Q105.75 19.1 105.3 19.1 L104.8 19.15 104.25 19.2 104.25 19.8 106.05 21.3 107.65 22.25 Q107.6 22.85 106.85 23.5 106.1 24.1 105.6 23.9 L106.5 24.5 107.0 24.65 109.45 23.55 Q110.9 23.05 112.35 22.1 L111.5 21.55 110.9 21.55 110.9 21.5 115.55 20.4 115.55 19.9" fill="#ffffff" fill-opacity="0.6431373" fill-rule="evenodd" stroke="none"/>
    <path d="M115.55 19.9 L115.55 20.4 110.9 21.5 110.9 21.55 111.5 21.55 112.35 22.1 Q110.9 23.05 109.45 23.55 L107.0 24.65 106.5 24.5 105.6 23.9 Q106.1 24.1 106.85 23.5 107.6 22.85 107.65 22.25 L106.05 21.3 104.25 19.8 104.25 19.2 104.8 19.15 105.3 19.1 Q105.75 19.1 106.3 19.5 L106.9 20.0 108.35 19.55 Q109.65 19.0 110.0 19.0 L112.6 19.45 115.55 19.9" fill="#cc6600" fill-opacity="0.7529412" fill-rule="evenodd" stroke="none"/>
  </g>
</svg>
