<?xml version="1.0" encoding="UTF-8" standalone="no"?>
<svg xmlns:xlink="http://www.w3.org/1999/xlink" height="9.65px" width="23.55px" xmlns="http://www.w3.org/2000/svg">
  <g transform="matrix(1.0, 0.0, 0.0, 1.0, -75.3, -75.55)">
    <path d="M97.85 77.3 L98.7 77.55 98.85 77.85 95.6 78.15 92.4 77.85 93.7 76.55 93.85 76.3 94.1 76.0 Q94.95 75.3 97.55 75.75 L97.3 76.15 96.5 76.65 Q96.5 76.85 97.85 77.3 M89.9 84.9 L86.75 85.2 81.8 84.3 Q82.95 83.6 84.45 83.35 87.3 82.85 89.75 84.45 L89.9 84.9" fill="#000000" fill-opacity="0.6627451" fill-rule="evenodd" stroke="none"/>
    <path d="M93.7 76.55 L93.6 76.35 93.85 76.3 93.7 76.55 M97.3 76.15 L98.15 76.35 98.15 77.25 97.85 77.3 Q96.5 76.85 96.5 76.65 L97.3 76.15 M82.3 81.35 L78.8 81.65 Q76.3 81.65 75.45 81.0 L75.3 80.55 Q76.7 78.55 82.4 79.35 L82.55 79.55 83.4 79.95 Q83.05 81.05 82.3 81.35" fill="#000000" fill-rule="evenodd" stroke="none"/>
  </g>
</svg>
