<?xml version="1.0" encoding="UTF-8" standalone="no"?>
<svg xmlns:xlink="http://www.w3.org/1999/xlink" height="20.85px" width="118.8px" xmlns="http://www.w3.org/2000/svg">
  <g transform="matrix(1.0, 0.0, 0.0, 1.0, -51.15, -66.15)">
    <path d="M165.35 68.7 L162.45 68.4 Q163.4 67.1 165.1 66.5 167.4 65.7 169.95 66.8 169.05 67.3 168.4 68.35 L165.35 68.7 M118.8 72.3 L115.0 74.55 Q113.95 75.2 111.2 75.2 L108.3 74.9 Q109.2 74.5 111.05 73.0 113.5 71.75 118.8 72.3 M97.3 76.15 L96.5 76.65 Q96.5 76.85 97.85 77.3 L98.7 77.55 98.85 77.85 95.6 78.15 92.4 77.85 93.7 76.55 93.85 76.3 94.1 76.0 Q94.95 75.3 97.55 75.75 L97.3 76.15 M89.9 84.9 L86.75 85.2 81.8 84.3 Q82.95 83.6 84.45 83.35 87.3 82.85 89.75 84.45 L89.9 84.9 M150.6 69.3 L150.8 69.5 151.7 69.9 151.7 70.8 148.95 71.1 145.95 70.8 Q148.6 69.15 150.6 69.3 M130.5 73.1 Q130.5 74.2 131.25 74.75 130.1 76.35 127.1 76.35 L124.95 76.0 123.0 75.5 Q123.55 74.75 123.0 73.6 L130.5 73.1 M137.75 74.9 Q140.1 72.95 142.25 73.2 143.75 73.35 145.85 74.9 L144.95 76.0 141.8 76.35 139.65 75.8 137.75 74.9 M155.4 80.85 L154.25 80.95 Q153.25 80.85 152.45 80.4 L155.25 80.55 155.4 80.85 M51.15 86.7 L52.35 84.9 Q52.95 84.45 58.1 84.9 L57.95 85.35 Q57.8 85.8 58.1 86.4 L58.25 86.7 54.65 87.0 51.15 86.7" fill="#000000" fill-opacity="0.6627451" fill-rule="evenodd" stroke="none"/>
    <path d="M97.85 77.3 Q96.5 76.85 96.5 76.65 L97.3 76.15 98.15 76.35 98.15 77.25 97.85 77.3 M93.85 76.3 L93.7 76.55 93.6 76.35 93.85 76.3 M83.4 79.95 Q83.05 81.05 82.3 81.35 L78.8 81.65 Q76.3 81.65 75.45 81.0 L75.3 80.55 Q76.7 78.55 82.4 79.35 L82.55 79.55 83.4 79.95" fill="#000000" fill-rule="evenodd" stroke="none"/>
  </g>
</svg>
