<?xml version="1.0" encoding="UTF-8" standalone="no"?>
<svg xmlns:xlink="http://www.w3.org/1999/xlink" height="68.65px" width="210.3px" xmlns="http://www.w3.org/2000/svg">
  <g transform="matrix(1.0, 0.0, 0.0, 1.0, -51.15, -36.55)">
    <path d="M258.4 41.7 L255.5 41.6 254.3 41.4 257.2 37.2 Q259.25 35.3 261.45 39.0 257.55 38.95 258.1 39.65 L259.5 40.7 Q259.5 41.65 258.4 41.7 M183.5 69.75 L181.45 70.15 179.85 70.05 179.85 70.15 180.6 70.5 Q179.8 72.65 177.75 72.3 L176.6 72.0 Q177.05 70.7 178.45 69.7 180.55 68.25 183.5 69.3 L183.5 69.75 M168.4 68.35 L166.65 68.7 167.15 69.45 166.4 70.5 Q165.8 71.1 163.35 71.1 161.4 71.1 157.8 70.2 159.3 68.4 162.15 67.6 L163.5 67.35 165.1 66.5 Q167.4 65.7 169.95 66.8 169.05 67.3 168.4 68.35 M187.8 89.9 L187.8 87.0 192.55 86.1 Q193.9 86.1 196.65 87.9 196.15 88.8 195.0 89.35 193.9 89.75 193.65 89.9 L187.8 89.9 M118.8 72.3 L115.0 74.55 Q113.95 75.2 111.2 75.2 L108.3 74.9 Q109.2 74.5 111.05 73.0 113.5 71.75 118.8 72.3 M97.3 76.15 L96.5 76.65 Q96.5 76.85 97.85 77.3 L98.7 77.55 98.85 77.85 95.6 78.15 92.4 77.85 93.7 76.55 93.85 76.3 94.1 76.0 Q94.95 75.3 97.55 75.75 L97.3 76.15 M86.75 85.2 L81.8 84.3 Q82.95 83.6 84.45 83.35 87.3 82.85 89.75 84.45 L89.9 84.9 86.75 85.2 M116.2 92.5 L113.0 92.85 109.8 92.55 Q109.5 91.25 109.5 90.35 113.0 90.35 116.4 91.5 116.4 92.4 116.2 92.5 M121.25 83.55 Q121.8 83.1 127.55 83.45 L128.3 84.75 Q127.6 85.8 126.0 85.8 L123.3 85.3 121.4 84.45 121.25 83.55 M150.6 69.3 L150.8 69.5 151.7 69.9 151.7 70.8 148.95 71.1 145.95 70.8 Q148.6 69.15 150.6 69.3 M130.5 73.1 Q130.5 74.2 131.25 74.75 130.1 76.35 127.1 76.35 L124.95 76.0 123.0 75.5 Q123.55 74.75 123.0 73.6 L130.5 73.1 M137.75 74.9 Q140.1 72.95 142.25 73.2 143.75 73.35 145.85 74.9 L144.95 76.0 141.8 76.35 139.65 75.8 137.75 74.9 M152.45 80.4 L155.25 80.55 155.4 80.85 154.25 80.95 Q153.25 80.85 152.45 80.4 M54.65 87.0 L51.15 86.7 52.35 84.9 Q52.95 84.45 58.1 84.9 L57.95 85.35 Q57.8 85.8 58.1 86.4 L58.25 86.7 54.65 87.0 M89.15 104.9 L89.0 104.7 Q88.85 104.55 88.85 103.65 88.85 101.75 92.15 101.6 95.45 101.45 96.5 103.35 94.2 105.2 91.8 105.2 L89.15 104.9" fill="#000000" fill-opacity="0.6627451" fill-rule="evenodd" stroke="none"/>
    <path d="M97.85 77.3 Q96.5 76.85 96.5 76.65 L97.3 76.15 98.15 76.35 98.15 77.25 97.85 77.3 M93.85 76.3 L93.7 76.55 93.6 76.35 93.85 76.3 M83.4 79.95 Q83.05 81.05 82.3 81.35 L78.8 81.65 Q76.3 81.65 75.45 81.0 L75.3 80.55 Q76.7 78.55 82.4 79.35 L82.55 79.55 83.4 79.95" fill="#000000" fill-rule="evenodd" stroke="none"/>
  </g>
</svg>
