<?xml version="1.0" encoding="UTF-8" standalone="no"?>
<svg xmlns:xlink="http://www.w3.org/1999/xlink" height="68.35px" width="292.2px" xmlns="http://www.w3.org/2000/svg">
  <g transform="matrix(1.0, 0.0, 0.0, 1.0, 0.0, 0.0)">
    <path d="M289.1 43.35 L292.2 46.45 292.2 47.45 Q284.75 47.05 282.85 49.8 282.2 50.75 282.2 54.45 L280.35 57.75 271.2 57.9 Q258.6 58.0 258.25 56.55 248.35 57.1 221.9 60.75 L152.35 52.45 93.55 46.25 28.65 39.95 Q25.35 35.65 25.35 34.45 25.35 32.8 27.8 28.25 29.8 24.5 31.35 22.45 L20.55 16.95 Q49.4 20.9 77.8 27.25 92.75 30.55 101.0 31.7 113.5 33.45 128.85 33.45 140.55 33.45 149.2 30.95 153.55 29.7 156.35 28.45 171.7 43.2 182.3 46.85 186.45 48.25 191.2 48.45 L199.7 48.45 209.95 47.45 220.2 46.45 Q221.45 46.45 223.7 47.45 225.95 48.45 227.2 48.45 227.45 48.45 234.75 44.95 242.05 41.45 242.2 41.45 L253.2 42.45 264.2 43.45 Q265.45 43.45 268.2 42.45 270.95 41.45 272.2 41.45 L280.9 42.45 289.1 43.35 M258.2 56.45 L258.25 56.55 260.55 56.45 258.2 56.45" fill="#999999" fill-rule="evenodd" stroke="none"/>
    <path d="M20.55 16.95 Q4.35 8.2 0.0 2.4 L2.3 0.7 Q2.85 0.3 3.35 0.0 L29.6 5.25 Q58.15 10.35 101.35 14.45 123.9 16.6 156.15 20.95 L210.05 28.15 Q246.6 32.8 279.25 34.85 L279.2 35.45 280.7 36.15 Q283.45 37.8 289.1 43.35 L280.9 42.45 272.2 41.45 Q270.95 41.45 268.2 42.45 265.45 43.45 264.2 43.45 L253.2 42.45 242.2 41.45 Q242.05 41.45 234.75 44.95 227.45 48.45 227.2 48.45 225.95 48.45 223.7 47.45 221.45 46.45 220.2 46.45 L209.95 47.45 199.7 48.45 191.2 48.45 Q186.45 48.25 182.3 46.85 171.7 43.2 156.35 28.45 153.55 29.7 149.2 30.95 140.55 33.45 128.85 33.45 113.5 33.45 101.0 31.7 92.75 30.55 77.8 27.25 49.4 20.9 20.55 16.95" fill="#cccccc" fill-rule="evenodd" stroke="none"/>
    <path d="M280.35 57.75 Q276.75 64.0 273.55 68.35 249.6 64.45 221.9 60.75 248.35 57.1 258.25 56.55 258.6 58.0 271.2 57.9 L280.35 57.75" fill="#6a6a6a" fill-rule="evenodd" stroke="none"/>
  </g>
</svg>
