<?xml version="1.0" encoding="UTF-8" standalone="no"?>
<svg xmlns:xlink="http://www.w3.org/1999/xlink" height="105.95px" width="105.95px" xmlns="http://www.w3.org/2000/svg">
  <g transform="matrix(1.0, 0.0, 0.0, 1.0, 0.0, 0.0)">
    <path d="M26.65 30.55 Q28.15 31.75 30.1 31.75 32.45 31.75 34.05 30.1 35.7 28.5 35.7 26.15 35.7 23.85 34.05 22.2 32.45 20.6 30.1 20.6 27.8 20.6 26.15 22.2 24.5 23.85 24.5 26.15 24.5 28.5 26.15 30.1 L26.6 30.5 26.65 30.55 M28.8 41.9 L27.3 40.0 Q24.75 37.4 21.05 37.4 17.4 37.4 14.75 40.0 12.15 42.6 12.15 46.3 12.15 49.95 14.75 52.55 17.4 55.2 21.05 55.2 24.3 55.2 26.75 53.15 28.25 52.4 29.05 51.1 29.95 49.75 29.95 46.95 L29.95 46.65 29.95 46.3 29.95 46.0 29.95 45.8 29.75 43.4 Q29.45 42.2 28.8 41.9 M19.3 18.6 Q33.15 4.8 52.75 4.8 72.35 4.8 86.25 18.6 100.1 32.5 100.1 52.15 100.1 71.75 86.25 85.55 72.35 99.5 52.75 99.5 33.15 99.5 19.3 85.55 5.45 71.75 5.45 52.15 5.45 32.5 19.3 18.6 M19.85 61.35 Q19.0 60.9 17.95 60.9 16.25 60.9 15.0 62.1 13.8 63.3 13.8 65.0 13.8 66.75 15.0 67.9 16.25 69.15 17.95 69.15 19.65 69.15 20.85 67.9 22.1 66.75 22.1 65.0 L22.1 64.95 22.3 62.85 Q22.3 61.45 22.1 61.25 L19.85 61.35 M44.15 73.25 Q43.3 71.6 41.95 70.25 38.8 67.1 34.3 67.1 29.8 67.1 26.65 70.25 23.5 73.4 23.5 77.9 23.5 82.4 26.65 85.55 29.8 88.7 34.3 88.7 38.8 88.7 41.95 85.55 45.1 82.4 45.1 77.9 45.1 75.95 44.55 74.25 L44.8 74.2 44.15 73.25 M69.15 27.35 L69.25 27.45 Q71.35 29.55 74.25 29.55 77.15 29.55 79.15 27.45 81.2 25.45 81.2 22.55 81.2 19.65 79.15 17.6 77.15 15.55 74.25 15.55 71.35 15.55 69.25 17.6 67.25 19.65 67.25 22.55 67.25 25.15 68.85 27.05 L68.85 27.1 69.15 27.35 M76.65 35.45 Q73.55 38.55 73.55 42.95 73.55 47.35 76.65 50.45 79.75 53.55 84.15 53.55 88.55 53.55 91.65 50.45 94.8 47.35 94.8 42.95 94.8 38.55 91.65 35.45 88.55 32.35 84.15 32.35 79.75 32.35 76.65 35.45 M63.7 18.2 Q63.7 13.35 60.2 9.9 56.75 6.4 51.9 6.4 47.05 6.4 43.55 9.9 40.1 13.35 40.1 18.2 40.1 23.05 43.55 26.55 47.05 30.0 51.9 30.0 56.75 30.0 60.2 26.55 63.7 23.05 63.7 18.2 M42.5 60.0 Q43.2 60.7 44.2 60.7 45.15 60.7 45.85 60.0 46.5 59.35 46.5 58.35 46.5 57.35 45.85 56.7 45.15 56.0 44.2 56.0 43.2 56.0 42.5 56.7 41.85 57.35 41.85 58.35 41.85 59.35 42.5 60.0 M58.75 61.3 Q59.55 62.1 60.65 62.1 61.7 62.1 62.5 61.3 63.25 60.5 63.25 59.45 63.25 58.35 62.5 57.55 61.7 56.8 60.65 56.8 59.55 56.8 58.75 57.55 58.0 58.35 58.0 59.45 58.0 60.5 58.75 61.3 M49.45 49.0 Q48.15 50.3 48.15 52.1 48.15 53.9 49.45 55.2 50.75 56.5 52.55 56.5 54.35 56.5 55.65 55.2 56.95 53.9 56.95 52.1 56.95 50.3 55.65 49.0 54.35 47.7 52.55 47.7 50.75 47.7 49.45 49.0 M59.7 41.45 Q58.6 41.45 57.85 42.2 57.05 43.0 57.05 44.05 57.05 45.15 57.85 45.95 58.6 46.7 59.7 46.7 60.8 46.7 61.55 45.95 62.35 45.15 62.35 44.05 62.35 43.0 61.55 42.2 60.8 41.45 59.7 41.45 M44.55 40.95 Q43.85 41.7 43.85 42.7 43.85 43.65 44.55 44.35 45.25 45.05 46.25 45.05 47.25 45.05 47.9 44.35 48.65 43.65 48.65 42.7 48.65 41.7 47.9 40.95 47.25 40.3 46.25 40.3 45.25 40.3 44.55 40.95 M49.75 86.05 Q47.75 85.85 46.5 86.7 44.95 87.8 45.2 89.2 L45.35 89.25 Q44.85 90.3 44.85 91.65 44.85 94.05 46.5 95.7 48.15 97.35 50.55 97.35 52.9 97.35 54.6 95.7 56.25 94.05 56.25 91.65 56.25 89.3 54.6 87.65 52.9 86.0 50.55 86.0 L49.75 86.05 M77.05 73.5 Q74.35 71.5 70.8 71.5 66.5 71.5 63.45 74.55 60.35 77.6 60.35 81.95 60.35 86.3 63.45 89.35 66.5 92.4 70.8 92.4 75.15 92.4 78.2 89.35 81.25 86.3 81.25 81.95 81.25 79.75 80.55 77.95 79.9 76.0 78.25 74.45 77.7 73.9 77.05 73.5 M82.1 63.0 Q81.75 63.95 81.75 65.1 81.75 67.45 83.4 69.1 85.05 70.75 87.45 70.75 89.8 70.75 91.45 69.1 93.1 67.45 93.1 65.1 93.1 62.7 91.45 61.05 89.8 59.4 87.45 59.4 85.05 59.4 83.4 61.05 82.7 61.7 82.3 62.6 L82.1 62.6 82.1 63.0" fill="#c4c4c4" fill-rule="evenodd" stroke="none"/>
    <path d="M26.6 30.5 L26.15 30.1 Q24.5 28.5 24.5 26.15 24.5 23.85 26.15 22.2 27.8 20.6 30.1 20.6 32.45 20.6 34.05 22.2 35.7 23.85 35.7 26.15 35.7 28.5 34.05 30.1 32.45 31.75 30.1 31.75 28.15 31.75 26.65 30.55 27.2 30.95 29.0 30.95 32.55 30.95 34.1 29.3 35.25 28.15 35.25 26.4 35.25 25.1 33.9 24.4 32.55 23.75 32.6 26.3 32.6 27.3 32.0 28.35 31.2 29.9 29.45 29.9 L27.15 29.2 Q26.2 28.95 26.6 30.5 M26.75 53.15 Q24.3 55.2 21.05 55.2 17.4 55.2 14.75 52.55 12.15 49.95 12.15 46.3 12.15 42.6 14.75 40.0 17.4 37.4 21.05 37.4 24.75 37.4 27.3 40.0 L28.8 41.9 Q28.0 41.45 26.6 42.3 27.15 43.25 27.3 44.7 L27.35 46.95 Q27.35 49.0 26.85 50.2 25.65 52.95 22.1 52.95 L20.6 52.45 Q19.85 52.3 19.4 53.7 L21.4 54.05 Q24.75 54.05 26.75 53.15 M22.1 64.95 L22.1 65.0 Q22.1 66.75 20.85 67.9 19.65 69.15 17.95 69.15 16.25 69.15 15.0 67.9 13.8 66.75 13.8 65.0 13.8 63.3 15.0 62.1 16.25 60.9 17.95 60.9 19.0 60.9 19.85 61.35 L19.1 61.6 Q19.65 62.2 19.65 62.65 L19.15 63.4 Q18.6 63.9 18.6 64.15 18.6 64.9 18.9 65.8 18.95 66.6 17.6 67.9 L17.85 68.25 19.05 68.3 Q20.9 68.3 21.8 66.05 L22.1 64.95 M44.55 74.25 Q45.1 75.95 45.1 77.9 45.1 82.4 41.95 85.55 38.8 88.7 34.3 88.7 29.8 88.7 26.65 85.55 23.5 82.4 23.5 77.9 23.5 73.4 26.65 70.25 29.8 67.1 34.3 67.1 38.8 67.1 41.95 70.25 43.3 71.6 44.15 73.25 L41.3 70.05 Q38.15 67.15 35.25 67.95 31.7 68.0 29.6 69.0 27.95 69.75 26.6 71.35 L27.9 71.7 30.4 70.35 Q33.3 68.95 36.2 68.95 38.25 68.95 41.85 73.6 41.6 73.75 41.6 74.2 L43.2 74.4 44.55 74.25 M68.85 27.05 Q67.25 25.15 67.25 22.55 67.25 19.65 69.25 17.6 71.35 15.55 74.25 15.55 77.15 15.55 79.15 17.6 81.2 19.65 81.2 22.55 81.2 25.45 79.15 27.45 77.15 29.55 74.25 29.55 71.35 29.55 69.25 27.45 L69.15 27.35 70.0 28.1 74.2 28.6 77.6 28.25 78.4 27.65 78.25 27.2 77.1 27.1 71.5 26.75 68.85 26.55 68.85 27.05 M76.65 35.45 Q79.75 32.35 84.15 32.35 88.55 32.35 91.65 35.45 94.8 38.55 94.8 42.95 94.8 47.35 91.65 50.45 88.55 53.55 84.15 53.55 79.75 53.55 76.65 50.45 73.55 47.35 73.55 42.95 73.55 38.55 76.65 35.45 M74.45 46.95 Q75.2 48.45 77.1 50.0 80.0 52.5 83.3 52.5 84.7 52.5 88.0 51.1 91.3 49.65 91.3 49.05 L91.2 48.55 91.05 48.5 89.95 48.4 Q88.85 48.4 88.15 49.3 87.45 50.2 86.35 50.2 80.9 50.2 78.5 47.9 77.35 46.85 77.0 46.7 L74.45 46.95 M63.7 18.2 Q63.7 23.05 60.2 26.55 56.75 30.0 51.9 30.0 47.05 30.0 43.55 26.55 40.1 23.05 40.1 18.2 40.1 13.35 43.55 9.9 47.05 6.4 51.9 6.4 56.75 6.4 60.2 9.9 63.7 13.35 63.7 18.2 M47.8 28.65 L51.4 29.1 Q56.6 29.1 59.7 26.4 62.1 24.35 62.1 22.6 L62.0 22.05 61.8 21.9 Q60.15 21.65 57.7 24.85 55.1 28.1 52.85 28.1 L49.05 27.65 Q47.95 27.5 47.1 28.15 47.45 28.15 47.8 28.65 M49.75 86.05 L50.55 86.0 Q52.9 86.0 54.6 87.65 56.25 89.3 56.25 91.65 56.25 94.05 54.6 95.7 52.9 97.35 50.55 97.35 48.15 97.35 46.5 95.7 44.85 94.05 44.85 91.65 44.85 90.3 45.35 89.25 L46.5 89.4 Q47.65 89.4 47.75 88.85 L48.05 87.9 51.8 87.3 53.05 86.8 Q51.15 86.15 49.75 86.05 M80.55 77.95 Q81.25 79.75 81.25 81.95 81.25 86.3 78.2 89.35 75.15 92.4 70.8 92.4 66.5 92.4 63.45 89.35 60.35 86.3 60.35 81.95 60.35 77.6 63.45 74.55 66.5 71.5 70.8 71.5 74.35 71.5 77.05 73.5 73.2 71.2 66.8 73.7 L71.6 74.05 Q75.8 74.4 76.55 75.95 L77.45 78.1 Q78.2 79.6 79.45 79.6 80.75 79.6 80.75 78.85 L80.55 77.95 M82.3 62.6 Q82.7 61.7 83.4 61.05 85.05 59.4 87.45 59.4 89.8 59.4 91.45 61.05 93.1 62.7 93.1 65.1 93.1 67.45 91.45 69.1 89.8 70.75 87.45 70.75 85.05 70.75 83.4 69.1 81.75 67.45 81.75 65.1 81.75 63.95 82.1 63.0 L82.1 66.35 83.05 67.65 Q83.9 68.55 85.85 68.55 86.5 68.55 87.1 67.95 84.7 67.2 84.65 65.4 L84.85 63.5 85.95 62.95 Q87.45 62.1 88.05 60.95 87.35 59.8 84.7 61.15 83.15 61.9 82.5 62.55 L82.3 62.6" fill="#3c3c3c" fill-rule="evenodd" stroke="none"/>
    <path d="M26.65 30.55 L26.6 30.5 Q26.2 28.95 27.15 29.2 L29.45 29.9 Q31.2 29.9 32.0 28.35 32.6 27.3 32.6 26.3 32.55 23.75 33.9 24.4 35.25 25.1 35.25 26.4 35.25 28.15 34.1 29.3 32.55 30.95 29.0 30.95 27.2 30.95 26.65 30.55 M28.8 41.9 Q29.45 42.2 29.75 43.4 L29.95 45.8 29.95 46.0 29.95 46.3 29.95 46.65 29.95 46.95 Q29.95 49.75 29.05 51.1 28.25 52.4 26.75 53.15 24.75 54.05 21.4 54.05 L19.4 53.7 Q19.85 52.3 20.6 52.45 L22.1 52.95 Q25.65 52.95 26.85 50.2 27.35 49.0 27.35 46.95 L27.3 44.7 Q27.15 43.25 26.6 42.3 28.0 41.45 28.8 41.9 M19.85 61.35 L22.1 61.25 Q22.3 61.45 22.3 62.85 L22.1 64.95 21.8 66.05 Q20.9 68.3 19.05 68.3 L17.85 68.25 17.6 67.9 Q18.95 66.6 18.9 65.8 18.6 64.9 18.6 64.15 18.6 63.9 19.15 63.4 L19.65 62.65 Q19.65 62.2 19.1 61.6 L19.85 61.35 M44.55 74.25 L43.2 74.4 41.6 74.2 Q41.6 73.75 41.85 73.6 38.25 68.95 36.2 68.95 33.3 68.95 30.4 70.35 L27.9 71.7 26.6 71.35 Q27.95 69.75 29.6 69.0 31.7 68.0 35.25 67.95 38.15 67.15 41.3 70.05 L44.15 73.25 44.8 74.2 44.55 74.25 M69.15 27.35 L68.85 27.1 68.85 27.05 68.85 26.55 71.5 26.75 77.1 27.1 78.25 27.2 78.4 27.65 77.6 28.25 74.2 28.6 70.0 28.1 69.15 27.35 M74.45 46.95 L77.0 46.7 Q77.35 46.85 78.5 47.9 80.9 50.2 86.35 50.2 87.45 50.2 88.15 49.3 88.85 48.4 89.95 48.4 L91.05 48.5 91.2 48.55 91.3 49.05 Q91.3 49.65 88.0 51.1 84.7 52.5 83.3 52.5 80.0 52.5 77.1 50.0 75.2 48.45 74.45 46.95 M82.7 51.35 L83.4 51.45 84.05 51.35 84.15 51.25 82.6 51.25 82.7 51.35 M47.8 28.65 Q47.45 28.15 47.1 28.15 47.95 27.5 49.05 27.65 L52.85 28.1 Q55.1 28.1 57.7 24.85 60.15 21.65 61.8 21.9 L62.0 22.05 62.1 22.6 Q62.1 24.35 59.7 26.4 56.6 29.1 51.4 29.1 L47.8 28.65 M45.35 89.25 L45.2 89.2 Q44.95 87.8 46.5 86.7 47.75 85.85 49.75 86.05 51.15 86.15 53.05 86.8 L51.8 87.3 48.05 87.9 47.75 88.85 Q47.65 89.4 46.5 89.4 L45.35 89.25 M80.55 77.95 L80.75 78.85 Q80.75 79.6 79.45 79.6 78.2 79.6 77.45 78.1 L76.55 75.95 Q75.8 74.4 71.6 74.05 L66.8 73.7 Q73.2 71.2 77.05 73.5 77.7 73.9 78.25 74.45 79.9 76.0 80.55 77.95 M82.3 62.6 L82.5 62.55 Q83.15 61.9 84.7 61.15 87.35 59.8 88.05 60.95 87.45 62.1 85.95 62.95 L84.85 63.5 84.65 65.4 Q84.7 67.2 87.1 67.95 86.5 68.55 85.85 68.55 83.9 68.55 83.05 67.65 L82.1 66.35 82.1 63.0 82.1 62.6 82.3 62.6" fill="#262626" fill-rule="evenodd" stroke="none"/>
    <path d="M15.45 15.5 Q31.05 0.0 52.95 0.0 74.95 0.0 90.45 15.5 105.95 31.05 105.95 52.95 105.95 74.95 90.45 90.4 74.95 105.95 52.95 105.95 31.05 105.95 15.45 90.4 0.0 74.95 0.0 52.95 0.0 31.05 15.45 15.5 M19.3 18.6 Q5.45 32.5 5.45 52.15 5.45 71.75 19.3 85.55 33.15 99.5 52.75 99.5 72.35 99.5 86.25 85.55 100.1 71.75 100.1 52.15 100.1 32.5 86.25 18.6 72.35 4.8 52.75 4.8 33.15 4.8 19.3 18.6" fill="#333333" fill-rule="evenodd" stroke="none"/>
    <path d="M82.7 51.35 L82.6 51.25 84.15 51.25 84.05 51.35 83.4 51.45 82.7 51.35" fill="#777777" fill-rule="evenodd" stroke="none"/>
    <path d="M44.55 40.95 Q45.25 40.3 46.25 40.3 47.25 40.3 47.9 40.95 48.65 41.7 48.65 42.7 48.65 43.65 47.9 44.35 47.25 45.05 46.25 45.05 45.25 45.05 44.55 44.35 43.85 43.65 43.85 42.7 43.85 41.7 44.55 40.95 M59.7 41.45 Q60.8 41.45 61.55 42.2 62.35 43.0 62.35 44.05 62.35 45.15 61.55 45.95 60.8 46.7 59.7 46.7 58.6 46.7 57.85 45.95 57.05 45.15 57.05 44.05 57.05 43.0 57.85 42.2 58.6 41.45 59.7 41.45 M49.45 49.0 Q50.75 47.7 52.55 47.7 54.35 47.7 55.65 49.0 56.95 50.3 56.95 52.1 56.95 53.9 55.65 55.2 54.35 56.5 52.55 56.5 50.75 56.5 49.45 55.2 48.15 53.9 48.15 52.1 48.15 50.3 49.45 49.0 M58.75 61.3 Q58.0 60.5 58.0 59.45 58.0 58.35 58.75 57.55 59.55 56.8 60.65 56.8 61.7 56.8 62.5 57.55 63.25 58.35 63.25 59.45 63.25 60.5 62.5 61.3 61.7 62.1 60.65 62.1 59.55 62.1 58.75 61.3 M42.5 60.0 Q41.85 59.35 41.85 58.35 41.85 57.35 42.5 56.7 43.2 56.0 44.2 56.0 45.15 56.0 45.85 56.7 46.5 57.35 46.5 58.35 46.5 59.35 45.85 60.0 45.15 60.7 44.2 60.7 43.2 60.7 42.5 60.0" fill="#999999" fill-rule="evenodd" stroke="none"/>
  </g>
</svg>
