<?xml version="1.0" encoding="UTF-8" standalone="no"?>
<svg xmlns:xlink="http://www.w3.org/1999/xlink" height="230.75px" width="462.0px" xmlns="http://www.w3.org/2000/svg">
  <g transform="matrix(1.0, 0.0, 0.0, 1.0, 0.0, 0.0)">
    <path d="M388.55 9.05 Q393.75 0.0 405.3 0.0 418.95 0.0 424.4 10.45 427.15 15.65 427.15 20.85 L430.45 22.3 429.5 29.4 388.2 27.5 384.9 25.15 Q384.5 18.9 386.9 12.55 387.65 10.65 388.55 9.05 M406.95 17.55 Q408.45 17.55 409.45 16.5 410.5 15.5 410.5 14.0 410.5 12.5 409.45 11.45 408.45 10.45 406.95 10.45 405.5 10.45 404.45 11.45 403.4 12.5 403.4 14.0 403.4 15.5 404.45 16.5 405.5 17.55 406.95 17.55 M443.05 44.85 Q443.75 45.5 443.75 46.5 443.75 47.5 443.05 48.2 442.35 48.9 441.4 48.9 440.4 48.9 439.7 48.2 439.0 47.5 439.0 46.5 439.0 45.5 439.7 44.85 440.4 44.15 441.4 44.15 442.35 44.15 443.05 44.85 M445.95 66.05 Q446.85 66.95 446.85 68.15 446.85 69.4 445.95 70.3 445.0 71.2 443.75 71.2 442.4 71.2 441.55 70.3 440.6 69.4 440.6 68.15 440.6 66.9 441.55 66.05 442.4 65.15 443.75 65.15 445.0 65.15 445.95 66.05 M345.8 85.5 Q345.8 84.1 346.75 83.15 347.7 82.1 349.0 82.1 350.35 82.1 351.3 83.15 352.25 84.1 352.25 85.5 352.25 86.95 351.3 87.95 350.35 88.95 349.0 88.95 347.7 88.95 346.75 87.95 345.8 86.95 345.8 85.5" fill="#a5bdcb" fill-rule="evenodd" stroke="none"/>
    <path d="M406.95 17.55 Q405.5 17.55 404.45 16.5 403.4 15.5 403.4 14.0 403.4 12.5 404.45 11.45 405.5 10.45 406.95 10.45 408.45 10.45 409.45 11.45 410.5 12.5 410.5 14.0 410.5 15.5 409.45 16.5 408.45 17.55 406.95 17.55" fill="#e2eefb" fill-rule="evenodd" stroke="none"/>
    <path d="M388.55 9.05 Q387.65 10.65 386.9 12.55 384.5 18.9 384.9 25.15 L388.2 27.5 429.5 29.4 430.45 22.3 430.95 42.25 436.9 42.35 Q443.05 42.6 444.25 43.2 445.4 43.8 447.8 52.8 L449.9 61.7 452.75 64.55 455.6 84.5 461.75 91.6 Q462.25 104.9 461.75 106.8 461.5 108.0 461.4 136.45 L461.3 164.75 459.65 170.9 Q457.75 177.3 456.55 178.5 455.35 179.7 453.7 184.2 L452.3 188.45 444.7 188.45 Q445.5 187.15 446.05 182.95 447.15 174.65 445.75 160.5 L445.65 159.75 444.8 152.65 441.8 98.5 448.4 99.05 Q455.05 99.4 455.05 98.3 L455.05 95.4 454.0 95.4 455.6 94.2 Q456.7 93.6 456.1 91.05 L455.45 89.1 452.7 75.3 Q452.7 74.35 450.45 68.05 448.2 61.6 447.65 61.05 447.05 60.45 445.8 60.05 L443.5 59.65 Q442.5 59.65 439.25 62.4 435.95 65.1 435.55 66.3 435.15 67.3 434.9 71.2 L434.75 74.9 335.1 73.9 334.4 78.85 Q334.35 78.15 334.2 79.2 L333.9 82.7 334.4 78.85 334.5 82.9 Q334.5 88.9 338.8 92.2 341.65 94.4 343.65 94.4 L428.75 96.2 423.45 96.35 426.85 97.3 400.05 97.3 412.35 106.15 Q425.3 115.55 428.55 118.2 L429.45 118.3 430.85 118.2 431.9 117.85 433.2 117.45 Q433.8 117.3 433.75 115.6 L433.55 112.95 432.45 98.6 438.85 98.9 442.7 148.75 442.55 149.0 Q442.05 150.15 441.55 153.0 L441.2 155.65 Q440.05 152.2 437.45 147.0 432.15 136.6 424.5 127.85 400.05 99.8 361.4 98.7 L370.5 99.6 Q381.65 101.4 392.0 105.8 425.05 119.95 437.5 154.65 443.75 160.15 443.75 161.15 L444.15 173.15 Q444.45 183.55 443.85 184.75 L441.95 175.6 Q439.35 162.2 439.95 159.5 L436.65 155.85 Q433.3 151.8 433.3 150.0 433.3 148.05 430.0 141.55 426.9 135.5 425.25 133.4 417.1 123.2 407.45 116.0 386.25 100.3 361.15 99.7 L357.8 99.7 357.8 97.3 349.3 96.6 339.75 95.9 Q338.5 95.9 336.4 94.4 334.05 92.75 334.05 91.15 334.05 89.65 333.1 86.0 L332.15 82.6 330.3 83.55 329.8 87.35 327.45 88.75 324.1 93.5 322.05 96.2 320.8 97.8 321.75 102.55 323.15 123.9 322.25 125.55 Q321.2 127.25 320.3 127.25 L318.9 127.25 319.85 132.9 322.2 137.2 322.2 171.4 320.8 171.85 317.95 175.7 Q314.85 179.6 313.65 179.95 L301.8 182.3 300.85 228.85 298.95 230.75 266.65 230.25 268.55 181.85 261.9 180.4 263.6 179.0 Q265.25 177.35 265.25 176.15 L264.75 109.65 249.55 121.05 222.5 121.05 Q219.8 120.9 217.1 119.4 211.75 116.3 212.05 109.2 L212.55 83.05 Q208.75 86.4 207.3 86.85 L205.9 84.0 158.25 84.45 Q110.15 84.8 108.05 84.5 L99.45 83.6 93.35 83.05 Q92.15 82.5 89.55 77.95 L87.2 73.55 87.2 68.85 144.65 67.9 Q145.85 67.9 153.9 61.25 L161.7 54.6 176.9 56.0 Q177.8 63.45 193.85 65.7 L209.7 66.45 208.75 63.15 Q191.6 65.55 183.35 59.6 179.1 56.5 177.85 51.75 L177.8 51.35 179.0 52.55 Q181.0 54.3 182.25 54.75 L194.0 56.8 205.85 58.35 Q207.55 58.15 210.15 49.85 L210.65 57.45 213.0 67.9 216.35 66.0 218.5 66.0 214.9 68.85 214.9 84.0 214.75 84.55 Q215.0 85.15 216.8 85.45 218.6 85.75 271.75 86.1 L324.6 86.4 327.3 87.15 Q329.9 87.55 329.35 85.45 328.75 83.35 328.7 74.0 L328.85 65.05 331.25 69.8 430.45 68.35 429.5 29.4 387.75 29.4 384.9 35.55 Q382.8 36.45 291.5 37.05 L200.65 37.5 Q201.55 37.75 202.85 40.75 L204.0 43.65 206.35 43.65 208.0 46.35 206.85 45.55 202.9 43.4 200.2 42.95 200.05 43.0 199.8 41.25 Q199.35 39.15 198.6 38.85 L196.15 37.6 Q194.3 36.65 193.15 36.85 192.05 36.95 190.25 38.05 L188.65 39.1 191.35 39.75 192.25 38.95 194.5 38.85 Q195.95 39.6 196.8 40.7 197.75 41.9 197.25 42.7 L196.2 44.5 Q195.55 45.45 195.0 45.45 L193.4 45.75 Q192.4 45.9 191.8 44.75 L190.7 41.9 190.25 40.45 188.2 40.2 187.7 40.2 189.25 37.5 164.55 37.95 157.45 36.05 158.9 25.15 158.4 23.25 172.65 22.75 170.25 19.9 170.25 18.8 171.7 18.25 176.45 17.1 Q184.2 15.75 189.75 18.0 L188.8 22.75 Q334.05 21.8 335.95 22.3 L346.65 23.95 358.75 25.6 Q362.55 26.1 384.9 25.15 383.45 20.4 385.3 14.9 386.4 11.65 388.55 9.05 M79.05 73.55 L78.1 73.55 77.7 71.1 79.05 73.55 M63.35 73.55 L60.1 73.55 54.9 67.4 2.2 64.55 Q1.15 61.95 0.5 58.85 -0.8 52.7 1.25 50.3 L54.9 49.85 57.75 43.2 61.2 42.3 60.65 45.75 Q60.05 50.35 59.8 54.65 58.9 68.35 61.7 73.5 L63.35 73.55 M62.15 42.05 L64.85 41.3 81.5 42.7 85.75 41.75 88.6 44.6 96.2 43.2 92.4 45.55 154.15 45.1 155.55 52.7 143.2 62.65 87.2 62.2 87.2 68.85 84.35 69.3 83.9 73.55 83.65 73.55 81.95 69.3 77.5 69.3 Q76.75 64.4 76.4 59.35 75.35 44.35 79.0 42.9 L62.15 42.05 M87.65 37.5 L88.15 26.55 89.55 15.65 Q91.45 13.05 94.3 10.55 100.0 5.6 104.75 6.15 109.65 6.8 115.5 11.95 120.25 16.1 120.9 18.0 121.35 19.45 121.85 27.05 L148.45 28.0 118.05 28.45 117.55 41.75 135.6 42.25 142.95 38.9 138.0 41.3 151.75 42.7 152.7 37.95 153.95 44.2 151.75 42.7 96.2 43.2 117.55 41.75 117.55 19.9 Q117.55 18.75 115.65 15.4 113.3 11.2 110.15 8.9 100.65 1.85 89.55 15.65 L87.65 37.5 M184.15 8.0 Q187.35 8.2 188.8 9.0 L184.15 8.0 M443.05 44.85 Q442.35 44.15 441.4 44.15 440.4 44.15 439.7 44.85 439.0 45.5 439.0 46.5 439.0 47.5 439.7 48.2 440.4 48.9 441.4 48.9 442.35 48.9 443.05 48.2 443.75 47.5 443.75 46.5 443.75 45.5 443.05 44.85 M427.15 97.4 L428.2 104.45 Q429.3 112.1 429.3 114.3 L429.3 114.95 427.15 97.4 M348.3 26.55 Q347.35 25.9 293.35 25.3 239.7 24.75 237.7 25.15 235.3 25.6 166.45 25.6 L161.25 28.0 161.25 34.65 384.9 33.7 386.3 31.3 386.3 28.45 367.85 27.9 348.3 26.55 M301.8 182.3 L304.25 180.7 307.5 171.1 307.5 166.5 Q307.55 162.2 307.9 161.3 308.3 160.4 309.5 159.05 L310.6 157.85 311.4 152.95 310.35 144.55 310.15 138.45 Q310.05 132.2 310.6 131.3 312.7 127.6 312.4 126.8 L306.5 114.35 303.35 106.75 Q300.15 98.7 300.15 96.8 300.15 94.9 298.45 92.0 L296.7 89.45 296.1 102.9 274.05 101.5 271.0 106.4 270.45 143.75 Q270.1 181.1 271.0 181.1 L277.8 181.05 275.45 181.3 275.45 183.45 Q275.5 185.8 275.9 186.8 276.5 188.45 278.5 190.1 L279.0 190.15 279.95 189.5 280.75 187.3 Q281.2 185.55 281.4 185.2 L282.65 180.55 282.65 180.5 283.85 182.35 288.1 182.35 287.8 183.5 Q287.55 185.05 287.9 186.2 289.15 189.9 289.75 190.3 L291.25 190.15 Q292.25 189.5 292.45 187.85 L292.9 184.1 293.2 182.3 301.8 182.3 M301.65 175.3 L301.4 167.65 301.0 168.85 300.8 160.9 302.4 163.95 303.45 163.75 303.65 166.8 303.45 170.5 301.6 172.95 301.65 175.3 M296.2 160.6 L284.05 159.85 285.1 168.25 284.25 165.4 283.9 169.05 284.05 164.35 281.8 163.95 280.95 171.95 281.85 172.45 Q281.1 172.3 280.95 171.95 L281.2 167.15 281.6 162.75 283.4 160.9 284.05 159.85 291.4 160.1 293.65 159.45 294.65 160.5 296.2 160.6 M283.8 169.45 L282.65 180.5 Q282.5 180.15 282.85 176.3 L283.2 172.9 283.25 172.55 Q283.0 171.95 283.4 170.75 L283.8 169.45 M199.65 45.15 L199.75 45.7 202.35 46.6 205.65 47.7 Q206.75 48.0 206.75 51.75 206.75 52.8 205.5 54.05 L203.35 55.85 Q202.7 56.4 192.4 54.3 L181.4 52.0 Q180.55 52.0 180.05 51.1 L179.1 47.95 Q178.7 46.0 179.45 44.55 179.9 43.7 181.15 42.7 181.85 42.15 184.85 42.15 L187.7 42.25 188.2 40.2 188.65 43.6 Q189.3 47.05 190.45 47.5 L193.55 48.7 196.1 49.05 Q197.0 48.7 198.4 47.0 L199.65 45.15 M209.25 60.4 L202.7 60.6 189.1 59.25 Q186.7 59.0 185.25 57.3 L184.3 55.65 183.3 55.3 Q182.25 55.15 182.25 55.85 182.25 56.7 182.8 57.65 183.3 58.55 184.55 59.95 185.55 61.1 195.3 62.0 L205.4 62.65 207.8 62.3 210.15 61.75 Q210.85 61.55 209.25 60.4 M215.4 89.7 L214.9 104.45 Q213.7 116.3 219.4 118.95 L225.35 119.15 247.65 118.7 262.4 107.75 261.9 89.25 247.65 89.7 Q247.4 100.1 239.85 105.7 237.55 107.45 234.75 108.5 L232.45 109.2 Q239.9 100.6 241.45 93.8 241.95 91.7 241.75 90.0 L241.5 88.75 215.4 89.7 M311.95 158.25 Q311.95 158.7 312.35 159.0 L313.25 159.25 314.15 159.0 314.5 158.25 Q314.5 157.8 314.15 157.55 313.75 157.25 313.25 157.25 312.7 157.25 312.35 157.55 311.95 157.8 311.95 158.25 M314.95 155.3 L314.05 155.0 Q313.5 155.0 313.15 155.3 312.75 155.6 312.75 156.0 312.75 156.45 313.15 156.7 313.5 157.0 314.05 157.0 L314.95 156.7 Q315.35 156.45 315.35 156.0 315.35 155.6 314.95 155.3 M315.8 153.05 Q315.4 152.75 314.85 152.75 314.35 152.75 313.95 153.05 313.6 153.35 313.6 153.75 313.6 154.2 313.95 154.5 L314.85 154.8 315.8 154.5 316.15 153.75 315.8 153.05 M312.5 150.6 Q312.15 150.9 312.15 151.3 312.15 151.75 312.5 152.05 L313.45 152.35 314.35 152.05 Q314.7 151.75 314.7 151.3 314.7 150.9 314.35 150.6 L313.45 150.3 Q312.9 150.3 312.5 150.6 M312.65 147.45 Q312.2 147.45 311.9 147.75 311.6 148.0 311.6 148.45 311.6 148.9 311.9 149.2 L312.65 149.45 313.35 149.2 313.65 148.45 313.35 147.75 Q313.05 147.45 312.65 147.45 M309.1 161.3 Q309.1 161.75 309.45 162.05 L310.35 162.3 311.3 162.05 311.65 161.3 311.3 160.6 Q310.9 160.3 310.35 160.3 309.85 160.3 309.45 160.6 309.1 160.9 309.1 161.3 M309.45 163.05 Q309.1 163.35 309.1 163.75 309.1 164.2 309.45 164.5 L310.35 164.75 311.3 164.5 311.65 163.75 311.3 163.05 Q310.9 162.75 310.35 162.75 309.85 162.75 309.45 163.05 M309.75 165.2 Q309.25 165.2 308.85 165.5 308.45 165.8 308.45 166.2 308.45 166.65 308.85 166.95 L309.75 167.2 310.7 166.95 311.05 166.2 310.7 165.5 Q310.3 165.2 309.75 165.2 M309.85 167.95 Q309.5 167.65 308.95 167.65 308.4 167.65 308.05 167.95 307.7 168.25 307.7 168.65 307.7 169.1 308.05 169.4 L308.95 169.65 309.85 169.4 Q310.2 169.1 310.2 168.65 310.2 168.25 309.85 167.95 M309.25 170.8 Q308.9 171.1 308.9 171.5 308.9 171.95 309.25 172.25 L310.2 172.55 311.05 172.25 Q311.45 171.95 311.45 171.5 311.45 171.1 311.05 170.8 310.7 170.5 310.2 170.5 309.65 170.5 309.25 170.8 M184.45 40.4 L182.0 40.95 182.15 40.8 Q182.85 40.35 184.45 40.4 M177.8 43.45 L177.45 45.35 177.45 45.6 177.4 43.65 177.8 43.45 M159.8 45.1 L156.05 45.55 155.35 45.1 159.8 45.1 M160.75 42.7 L164.1 42.25 177.4 43.65 160.75 42.7 M112.35 38.9 L115.2 37.5 117.1 37.5 117.55 41.75 112.35 38.9 M187.35 76.9 L188.35 78.2 Q189.7 79.65 191.15 80.2 192.6 80.8 193.4 80.2 L194.95 78.8 Q195.85 78.25 194.3 78.2 L192.6 78.3 190.7 77.85 Q189.5 77.55 189.5 76.5 L189.75 75.45 187.35 76.9 M114.4 80.05 Q113.3 79.25 111.4 79.25 109.9 79.25 108.6 77.15 L107.6 75.0 107.0 77.1 Q106.55 79.35 107.1 80.2 107.75 81.25 109.9 81.4 L113.75 81.15 Q115.5 80.85 114.4 80.05 M54.9 52.7 L54.4 55.05 59.15 56.5 58.7 52.2 54.9 52.7 M81.95 52.2 L76.75 52.2 77.2 56.0 80.55 56.5 81.95 52.2 83.85 56.5 86.25 57.45 87.2 52.2 81.95 52.2 M0.3 57.45 L54.9 57.9 54.4 55.05 0.75 54.1 0.3 57.45" fill="#000000" fill-rule="evenodd" stroke="none"/>
    <path d="M445.95 66.05 Q445.0 65.15 443.75 65.15 442.4 65.15 441.55 66.05 440.6 66.9 440.6 68.15 440.6 69.4 441.55 70.3 442.4 71.2 443.75 71.2 445.0 71.2 445.95 70.3 446.85 69.4 446.85 68.15 446.85 66.95 445.95 66.05 M428.75 96.2 L343.65 94.4 Q341.65 94.4 338.8 92.2 334.5 88.9 334.5 82.9 L334.4 78.85 333.9 82.7 334.2 79.2 Q334.35 78.15 334.4 78.85 L335.1 73.9 434.75 74.9 434.9 71.2 Q435.15 67.3 435.55 66.3 435.95 65.1 439.25 62.4 442.5 59.65 443.5 59.65 L445.8 60.05 Q447.05 60.45 447.65 61.05 448.2 61.6 450.45 68.05 452.7 74.35 452.7 75.3 L452.2 75.8 Q436.9 91.1 436.35 92.25 435.95 93.0 435.8 94.35 L435.75 95.55 436.35 95.95 428.75 96.2 M455.45 89.1 L456.1 91.05 Q456.7 93.6 455.6 94.2 L454.0 95.4 453.85 95.4 454.35 95.0 Q456.0 93.65 456.0 93.05 456.0 90.5 455.6 89.95 L455.45 89.1 M427.7 89.55 L433.0 89.15 Q434.85 87.8 435.55 86.0 436.95 82.4 431.25 79.95 L363.75 79.2 Q360.95 80.35 359.3 82.2 356.05 85.85 362.0 89.15 L388.9 89.35 390.3 89.7 395.15 90.3 Q399.8 90.7 426.35 90.3 L427.7 89.55 M345.8 85.5 Q345.8 86.95 346.75 87.95 347.7 88.95 349.0 88.95 350.35 88.95 351.3 87.95 352.25 86.95 352.25 85.5 352.25 84.1 351.3 83.15 350.35 82.1 349.0 82.1 347.7 82.1 346.75 83.15 345.8 84.1 345.8 85.5" fill="#323b48" fill-rule="evenodd" stroke="none"/>
    <path d="M430.1 82.7 L431.45 82.5 432.2 83.15 433.2 84.25 Q433.4 84.85 431.45 84.65 L430.1 82.7 431.45 84.65 Q433.4 84.85 433.2 84.25 L432.2 83.15 431.45 82.5 430.1 82.7 M427.7 89.55 L426.35 90.3 Q399.8 90.7 395.15 90.3 L390.3 89.7 388.9 89.35 362.0 89.15 Q356.05 85.85 359.3 82.2 360.95 80.35 363.75 79.2 L431.25 79.95 Q436.95 82.4 435.55 86.0 434.85 87.8 433.0 89.15 L427.7 89.55 M425.4 83.45 L395.35 82.3 394.35 83.5 Q393.45 84.65 394.2 84.65 L425.8 84.85 Q426.15 83.7 425.4 83.45 M392.8 44.15 L341.15 44.15 340.7 44.85 Q340.4 45.55 341.15 45.55 L367.1 46.25 Q393.05 46.75 393.05 45.55 L392.8 44.15 M394.5 44.85 Q396.0 47.7 393.75 48.9 L341.65 49.35 Q340.8 48.3 340.35 46.95 339.5 44.2 341.65 42.7 L392.55 42.25 394.5 44.85 M323.65 44.6 L222.5 44.6 221.6 45.35 Q221.0 46.05 222.5 46.05 L273.3 46.75 Q324.1 47.25 324.1 46.05 324.1 44.85 323.65 44.6 M324.5 43.45 L327.0 45.3 Q329.95 48.15 325.55 49.35 L223.45 49.85 Q221.8 48.75 221.0 47.4 219.3 44.65 223.45 43.2 L323.15 42.7 324.5 43.45 M341.65 55.55 L392.55 55.05 394.5 57.65 Q396.0 60.55 393.75 61.7 L341.65 62.2 Q340.8 61.1 340.35 59.75 339.5 57.0 341.65 55.55 M341.15 58.4 L367.1 59.1 Q393.05 59.6 393.05 58.4 L392.8 56.95 341.15 56.95 340.7 57.7 Q340.4 58.4 341.15 58.4 M323.65 56.95 L222.5 56.95 221.6 57.7 Q221.0 58.4 222.5 58.4 L273.3 59.1 Q324.1 59.6 324.1 58.4 324.1 57.2 323.65 56.95 M324.5 55.8 L327.0 57.65 Q329.95 60.55 325.55 61.7 L223.45 62.2 Q221.8 61.1 221.0 59.75 219.3 57.0 223.45 55.55 L323.15 55.05 324.5 55.8 M361.35 82.05 Q359.7 82.85 360.45 83.1 L363.0 83.7 375.7 84.25 Q388.5 84.75 388.7 84.25 L389.7 81.55 363.15 81.3 361.35 82.05" fill="#222827" fill-rule="evenodd" stroke="none"/>
    <path d="M452.7 75.3 L455.45 89.1 455.6 89.95 Q456.0 90.5 456.0 93.05 456.0 93.65 454.35 95.0 L453.85 95.4 436.35 95.95 435.75 95.55 435.8 94.35 Q435.95 93.0 436.35 92.25 436.9 91.1 452.2 75.8 L452.7 75.3" fill="#455365" fill-rule="evenodd" stroke="none"/>
    <path d="M454.0 95.4 L455.05 95.4 455.05 98.3 Q455.05 99.4 448.4 99.05 L441.8 98.5 444.8 152.65 Q443.75 146.65 442.7 148.75 L438.85 98.9 432.45 98.6 431.05 98.5 427.15 97.4 426.85 97.3 423.45 96.35 428.75 96.2 436.35 95.95 453.85 95.4 454.0 95.4" fill="#2b3335" fill-rule="evenodd" stroke="none"/>
    <path d="M427.15 97.4 L431.05 98.5 432.45 98.6 433.55 112.95 433.75 115.6 Q433.8 117.3 433.2 117.45 L431.9 117.85 430.85 118.2 429.45 118.3 428.55 118.2 428.85 117.75 428.9 117.6 429.3 114.95 429.3 114.3 Q429.3 112.1 428.2 104.45 L427.15 97.4" fill="#2d302f" fill-rule="evenodd" stroke="none"/>
    <path d="M425.4 83.45 Q426.15 83.7 425.8 84.85 L394.2 84.65 Q393.45 84.65 394.35 83.5 L395.35 82.3 425.4 83.45 M392.8 44.15 L393.05 45.55 Q393.05 46.75 367.1 46.25 L341.15 45.55 Q340.4 45.55 340.7 44.85 L341.15 44.15 392.8 44.15 M323.65 44.6 Q324.1 44.85 324.1 46.05 324.1 47.25 273.3 46.75 L222.5 46.05 Q221.0 46.05 221.6 45.35 L222.5 44.6 323.65 44.6 M323.65 56.95 Q324.1 57.2 324.1 58.4 324.1 59.6 273.3 59.1 L222.5 58.4 Q221.0 58.4 221.6 57.7 L222.5 56.95 323.65 56.95 M341.15 58.4 Q340.4 58.4 340.7 57.7 L341.15 56.95 392.8 56.95 393.05 58.4 Q393.05 59.6 367.1 59.1 L341.15 58.4 M361.35 82.05 L363.15 81.3 389.7 81.55 388.7 84.25 Q388.5 84.75 375.7 84.25 L363.0 83.7 360.45 83.1 Q359.7 82.85 361.35 82.05" fill="#eff8f1" fill-rule="evenodd" stroke="none"/>
    <path d="M429.5 29.4 L430.45 68.35 331.25 69.8 328.85 65.05 260.6 65.35 219.65 65.05 218.5 66.0 216.35 66.0 213.0 67.9 210.65 57.45 210.15 49.85 Q210.65 48.35 208.0 46.35 L206.35 43.65 204.0 43.65 202.85 40.75 Q201.55 37.75 200.65 37.5 L291.5 37.05 Q382.8 36.45 384.9 35.55 L387.75 29.4 429.5 29.4 M394.5 44.85 L392.55 42.25 341.65 42.7 Q339.5 44.2 340.35 46.95 340.8 48.3 341.65 49.35 L393.75 48.9 Q396.0 47.7 394.5 44.85 M341.65 55.55 Q339.5 57.0 340.35 59.75 340.8 61.1 341.65 62.2 L393.75 61.7 Q396.0 60.55 394.5 57.65 L392.55 55.05 341.65 55.55 M324.5 43.45 L323.15 42.7 223.45 43.2 Q219.3 44.65 221.0 47.4 221.8 48.75 223.45 49.85 L325.55 49.35 Q329.95 48.15 327.0 45.3 L324.5 43.45 M324.5 55.8 L323.15 55.05 223.45 55.55 Q219.3 57.0 221.0 59.75 221.8 61.1 223.45 62.2 L325.55 61.7 Q329.95 60.55 327.0 57.65 L324.5 55.8 M164.55 37.95 L189.25 37.5 187.7 40.2 185.25 40.2 184.45 40.4 Q182.85 40.35 182.15 40.8 L182.0 40.95 178.85 41.8 Q178.15 42.05 177.8 43.45 L177.4 43.65 164.1 42.25 164.55 37.95 M152.7 37.95 L151.75 42.7 138.0 41.3 142.95 38.9 147.95 36.55 152.7 37.95" fill="#647491" fill-rule="evenodd" stroke="none"/>
    <path d="M444.7 188.45 L443.75 185.5 443.3 185.45 Q443.0 185.3 443.75 184.9 L443.85 184.75 Q444.45 183.55 444.15 173.15 L443.75 161.15 Q443.75 160.15 437.5 154.65 425.05 119.95 392.0 105.8 381.65 101.4 370.5 99.6 L361.4 98.7 Q400.05 99.8 424.5 127.85 432.15 136.6 437.45 147.0 440.05 152.2 441.2 155.65 L441.55 153.0 Q442.05 150.15 442.55 149.0 L442.7 148.75 Q443.75 146.65 444.8 152.65 L445.65 159.75 445.75 160.5 Q447.15 174.65 446.05 182.95 445.5 187.15 444.7 188.45" fill="#ecf0ee" fill-rule="evenodd" stroke="none"/>
    <path d="M348.3 26.55 L367.85 27.9 386.3 28.45 386.3 31.3 384.9 33.7 161.25 34.65 161.25 28.0 166.45 25.6 Q235.3 25.6 237.7 25.15 239.7 24.75 293.35 25.3 347.35 25.9 348.3 26.55" fill="#7b90a7" fill-rule="evenodd" stroke="none"/>
    <path d="M328.85 65.05 L328.7 74.0 Q328.75 83.35 329.35 85.45 329.9 87.55 327.3 87.15 L324.6 86.4 271.75 86.1 Q218.6 85.75 216.8 85.45 215.0 85.15 214.75 84.55 L214.9 84.0 214.9 68.85 218.5 66.0 219.65 65.05 260.6 65.35 328.85 65.05 M323.3 81.55 Q324.55 80.45 324.55 78.8 324.55 77.2 323.3 76.0 322.05 74.9 320.25 74.9 318.45 74.9 317.2 76.0 315.95 77.2 315.95 78.8 315.95 80.45 317.2 81.55 318.5 82.7 320.25 82.7 322.05 82.7 323.3 81.55 M302.0 71.85 Q301.05 71.2 299.55 71.6 297.25 72.15 245.35 71.6 L242.6 72.35 242.0 78.0 242.65 79.0 Q243.55 80.05 244.75 80.15 L273.1 80.7 299.95 81.15 301.25 81.25 Q302.5 81.1 302.5 79.75 L302.7 72.55 302.0 71.85 M224.45 78.1 Q225.45 77.15 225.45 75.85 225.45 74.6 224.45 73.65 223.5 72.75 222.15 72.75 220.75 72.75 219.8 73.65 218.8 74.6 218.8 75.85 218.8 77.15 219.8 78.1 220.75 79.0 222.15 79.0 223.5 79.0 224.45 78.1" fill="#4c577b" fill-rule="evenodd" stroke="none"/>
    <path d="M323.3 81.55 Q322.05 82.7 320.25 82.7 318.5 82.7 317.2 81.55 315.95 80.45 315.95 78.8 315.95 77.2 317.2 76.0 318.45 74.9 320.25 74.9 322.05 74.9 323.3 76.0 324.55 77.2 324.55 78.8 324.55 80.45 323.3 81.55 M224.45 78.1 Q223.5 79.0 222.15 79.0 220.75 79.0 219.8 78.1 218.8 77.15 218.8 75.85 218.8 74.6 219.8 73.65 220.75 72.75 222.15 72.75 223.5 72.75 224.45 73.65 225.45 74.6 225.45 75.85 225.45 77.15 224.45 78.1 M254.35 77.4 Q253.6 78.0 252.55 78.0 251.5 78.0 250.75 77.4 250.0 76.8 250.0 75.95 250.0 75.1 250.75 74.5 251.5 73.9 252.55 73.9 253.6 73.9 254.35 74.5 255.1 75.1 255.1 75.95 255.1 76.8 254.35 77.4" fill="#495775" fill-rule="evenodd" stroke="none"/>
    <path d="M302.0 71.85 L302.7 72.55 302.5 79.75 Q302.5 81.1 301.25 81.25 L299.95 81.15 273.1 80.7 244.75 80.15 Q243.55 80.05 242.65 79.0 L242.0 78.0 242.6 72.35 245.35 71.6 Q297.25 72.15 299.55 71.6 301.05 71.2 302.0 71.85 M254.35 77.4 Q255.1 76.8 255.1 75.95 255.1 75.1 254.35 74.5 253.6 73.9 252.55 73.9 251.5 73.9 250.75 74.5 250.0 75.1 250.0 75.95 250.0 76.8 250.75 77.4 251.5 78.0 252.55 78.0 253.6 78.0 254.35 77.4" fill="#4c5565" fill-rule="evenodd" stroke="none"/>
    <path d="M277.8 181.05 L271.0 181.1 Q270.1 181.1 270.45 143.75 L271.0 106.4 274.05 101.5 296.1 102.9 296.7 89.45 298.45 92.0 Q300.15 94.9 300.15 96.8 300.15 98.7 303.35 106.75 L306.5 114.35 312.4 126.8 Q312.7 127.6 310.6 131.3 310.05 132.2 310.15 138.45 L310.35 144.55 311.4 152.95 310.6 157.85 309.5 159.05 Q308.3 160.4 307.9 161.3 307.55 162.2 307.5 166.5 L307.5 171.1 304.25 180.7 301.8 182.3 301.65 175.3 301.6 172.95 303.45 170.5 303.65 166.8 303.45 163.75 302.4 163.95 300.8 160.9 296.2 160.6 294.65 160.5 293.65 159.45 291.4 160.1 284.05 159.85 283.4 160.9 281.6 162.75 281.2 167.15 280.95 171.95 Q281.1 172.3 281.85 172.45 282.95 173.05 283.2 172.9 L282.85 176.3 Q282.5 180.15 282.65 180.5 L277.8 181.05 M286.65 113.85 L285.7 112.1 278.75 111.9 277.75 159.25 280.9 159.25 284.65 159.1 Q285.45 158.85 286.9 153.75 L298.95 153.75 299.45 153.3 Q300.0 152.85 300.4 152.75 300.7 152.65 301.4 150.05 302.1 147.55 302.4 147.45 L306.0 146.95 309.15 146.6 309.35 135.6 304.45 135.2 Q301.0 132.15 300.15 130.7 L297.65 126.9 295.25 123.35 Q294.5 121.8 289.15 117.0 287.85 115.85 286.65 113.85 M309.8 124.5 Q308.75 123.55 307.3 123.55 305.9 123.55 304.85 124.5 303.85 125.5 303.85 126.8 303.85 128.15 304.85 129.15 305.85 130.05 307.3 130.05 308.75 130.05 309.8 129.15 310.8 128.15 310.8 126.8 310.8 125.45 309.8 124.5 M309.35 154.05 Q309.35 153.15 308.65 152.55 307.9 151.9 306.9 151.9 305.9 151.9 305.2 152.55 304.45 153.15 304.45 154.05 304.45 154.95 305.2 155.6 305.9 156.2 306.9 156.2 307.9 156.2 308.65 155.6 309.35 154.95 309.35 154.05" fill="#2a3438" fill-rule="evenodd" stroke="none"/>
    <path d="M210.15 49.85 Q207.55 58.15 205.85 58.35 L194.0 56.8 182.25 54.75 Q181.0 54.3 179.0 52.55 L177.8 51.35 Q176.85 50.2 177.05 49.5 L177.45 45.6 177.45 45.35 177.8 43.45 Q178.15 42.05 178.85 41.8 L182.0 40.95 184.45 40.4 185.25 40.2 187.7 40.2 188.2 40.2 190.25 40.45 190.7 41.9 191.8 44.75 Q192.4 45.9 193.4 45.75 L195.0 45.45 Q195.55 45.45 196.2 44.5 L197.25 42.7 Q197.75 41.9 196.8 40.7 195.95 39.6 194.5 38.85 L192.25 38.95 191.35 39.75 188.65 39.1 190.25 38.05 Q192.05 36.95 193.15 36.85 194.3 36.65 196.15 37.6 L198.6 38.85 Q199.35 39.15 199.8 41.25 L200.05 43.0 200.2 42.95 202.9 43.4 206.85 45.55 208.0 46.35 Q210.65 48.35 210.15 49.85 M199.65 45.15 L198.4 47.0 Q197.0 48.7 196.1 49.05 L193.55 48.7 190.45 47.5 Q189.3 47.05 188.65 43.6 L188.2 40.2 187.7 42.25 184.85 42.15 Q181.85 42.15 181.15 42.7 179.9 43.7 179.45 44.55 178.7 46.0 179.1 47.95 L180.05 51.1 Q180.55 52.0 181.4 52.0 L192.4 54.3 Q202.7 56.4 203.35 55.85 L205.5 54.05 Q206.75 52.8 206.75 51.75 206.75 48.0 205.65 47.7 L202.35 46.6 199.75 45.7 199.65 45.15" fill="#a7afb1" fill-rule="evenodd" stroke="none"/>
    <path d="M209.25 60.4 Q210.85 61.55 210.15 61.75 L207.8 62.3 205.4 62.65 195.3 62.0 Q185.55 61.1 184.55 59.95 183.3 58.55 182.8 57.65 182.25 56.7 182.25 55.85 182.25 55.15 183.3 55.3 L184.3 55.65 185.25 57.3 Q186.7 59.0 189.1 59.25 L202.7 60.6 209.25 60.4 M54.9 52.7 L58.7 52.2 59.15 56.5 54.4 55.05 54.9 52.7 M81.95 52.2 L87.2 52.2 86.25 57.45 83.85 56.5 81.95 52.2 80.55 56.5 77.2 56.0 76.75 52.2 81.95 52.2 M0.3 57.45 L0.75 54.1 54.4 55.05 54.9 57.9 0.3 57.45" fill="#f7faf7" fill-rule="evenodd" stroke="none"/>
    <path d="M207.3 86.85 L107.1 88.3 Q95.25 84.0 93.35 83.05 L99.45 83.6 108.05 84.5 Q110.15 84.8 158.25 84.45 L205.9 84.0 207.3 86.85 M177.8 51.35 L177.85 51.75 Q179.1 56.5 183.35 59.6 191.6 65.55 208.75 63.15 L209.7 66.45 193.85 65.7 Q177.8 63.45 176.9 56.0 L161.7 54.6 153.9 61.25 Q145.85 67.9 144.65 67.9 L87.2 68.85 87.2 62.2 143.2 62.65 155.55 52.7 154.15 45.1 155.35 45.1 156.05 45.55 159.8 45.1 160.75 42.7 177.4 43.65 177.45 45.6 177.05 49.5 Q176.85 50.2 177.8 51.35 M153.95 44.2 L154.15 45.1 92.4 45.55 96.2 43.2 151.75 42.7 153.95 44.2 M114.4 80.05 Q115.5 80.85 113.75 81.15 L109.9 81.4 Q107.75 81.25 107.1 80.2 106.55 79.35 107.0 77.1 L107.6 75.0 108.6 77.15 Q109.9 79.25 111.4 79.25 113.3 79.25 114.4 80.05 M187.35 76.9 L189.75 75.45 189.5 76.5 Q189.5 77.55 190.7 77.85 L192.6 78.3 194.3 78.2 Q195.85 78.25 194.95 78.8 L193.4 80.2 Q192.6 80.8 191.15 80.2 189.7 79.65 188.35 78.2 L187.35 76.9" fill="#969fa5" fill-rule="evenodd" stroke="none"/>
    <path d="M301.65 175.3 L301.8 182.3 293.2 182.3 288.1 182.35 283.85 182.35 282.65 180.5 283.8 169.45 283.9 169.05 284.25 165.4 285.1 168.25 284.05 159.85 296.2 160.6 300.8 160.9 301.0 168.85 301.4 167.65 301.65 175.3 M286.65 113.85 Q287.85 115.85 289.15 117.0 294.5 121.8 295.25 123.35 L297.65 126.9 300.15 130.7 Q301.0 132.15 304.45 135.2 L309.35 135.6 309.15 146.6 306.0 146.95 302.4 147.45 Q302.1 147.55 301.4 150.05 300.7 152.65 300.4 152.75 300.0 152.85 299.45 153.3 L298.95 153.75 286.9 153.75 Q285.45 158.85 284.65 159.1 L280.9 159.25 277.75 159.25 278.75 111.9 285.7 112.1 286.65 113.85" fill="#313836" fill-rule="evenodd" stroke="none"/>
    <path d="M283.9 169.05 L283.8 169.45 283.4 170.75 Q283.0 171.95 283.25 172.55 L283.2 172.9 Q282.95 173.05 281.85 172.45 L280.95 171.95 281.8 163.95 284.05 164.35 283.9 169.05 M309.8 124.5 Q310.8 125.45 310.8 126.8 310.8 128.15 309.8 129.15 308.75 130.05 307.3 130.05 305.85 130.05 304.85 129.15 303.85 128.15 303.85 126.8 303.85 125.5 304.85 124.5 305.9 123.55 307.3 123.55 308.75 123.55 309.8 124.5 M312.65 147.45 Q313.05 147.45 313.35 147.75 L313.65 148.45 313.35 149.2 312.65 149.45 311.9 149.2 Q311.6 148.9 311.6 148.45 311.6 148.0 311.9 147.75 312.2 147.45 312.65 147.45 M312.5 150.6 Q312.9 150.3 313.45 150.3 L314.35 150.6 Q314.7 150.9 314.7 151.3 314.7 151.75 314.35 152.05 L313.45 152.35 312.5 152.05 Q312.15 151.75 312.15 151.3 312.15 150.9 312.5 150.6 M315.8 153.05 L316.15 153.75 315.8 154.5 314.85 154.8 313.95 154.5 Q313.6 154.2 313.6 153.75 313.6 153.35 313.95 153.05 314.35 152.75 314.85 152.75 315.4 152.75 315.8 153.05 M314.95 155.3 Q315.35 155.6 315.35 156.0 315.35 156.45 314.95 156.7 L314.05 157.0 Q313.5 157.0 313.15 156.7 312.75 156.45 312.75 156.0 312.75 155.6 313.15 155.3 313.5 155.0 314.05 155.0 L314.95 155.3 M311.95 158.25 Q311.95 157.8 312.35 157.55 312.7 157.25 313.25 157.25 313.75 157.25 314.15 157.55 314.5 157.8 314.5 158.25 L314.15 159.0 313.25 159.25 312.35 159.0 Q311.95 158.7 311.95 158.25 M309.35 154.05 Q309.35 154.95 308.65 155.6 307.9 156.2 306.9 156.2 305.9 156.2 305.2 155.6 304.45 154.95 304.45 154.05 304.45 153.15 305.2 152.55 305.9 151.9 306.9 151.9 307.9 151.9 308.65 152.55 309.35 153.15 309.35 154.05 M309.75 165.2 Q310.3 165.2 310.7 165.5 L311.05 166.2 310.7 166.95 309.75 167.2 308.85 166.95 Q308.45 166.65 308.45 166.2 308.45 165.8 308.85 165.5 309.25 165.2 309.75 165.2 M309.45 163.05 Q309.85 162.75 310.35 162.75 310.9 162.75 311.3 163.05 L311.65 163.75 311.3 164.5 310.35 164.75 309.45 164.5 Q309.1 164.2 309.1 163.75 309.1 163.35 309.45 163.05 M309.1 161.3 Q309.1 160.9 309.45 160.6 309.85 160.3 310.35 160.3 310.9 160.3 311.3 160.6 L311.65 161.3 311.3 162.05 310.35 162.3 309.45 162.05 Q309.1 161.75 309.1 161.3 M309.25 170.8 Q309.65 170.5 310.2 170.5 310.7 170.5 311.05 170.8 311.45 171.1 311.45 171.5 311.45 171.95 311.05 172.25 L310.2 172.55 309.25 172.25 Q308.9 171.95 308.9 171.5 308.9 171.1 309.25 170.8 M309.85 167.95 Q310.2 168.25 310.2 168.65 310.2 169.1 309.85 169.4 L308.95 169.65 308.05 169.4 Q307.7 169.1 307.7 168.65 307.7 168.25 308.05 167.95 308.4 167.65 308.95 167.65 309.5 167.65 309.85 167.95" fill="#c0c9cf" fill-rule="evenodd" stroke="none"/>
    <path d="M288.1 182.35 L293.2 182.3 292.9 184.1 292.45 187.85 Q292.25 189.5 291.25 190.15 L289.75 190.3 Q289.15 189.9 287.9 186.2 287.55 185.05 287.8 183.5 L288.1 182.35 M282.65 180.5 L282.65 180.55 281.4 185.2 Q281.2 185.55 280.75 187.3 L279.95 189.5 279.0 190.15 278.5 190.1 Q276.5 188.45 275.9 186.8 275.5 185.8 275.45 183.45 L275.45 181.3 277.8 181.05 282.65 180.5" fill="#2c2d2f" fill-rule="evenodd" stroke="none"/>
    <path d="M170.25 18.8 L169.8 18.9 169.8 9.0 Q175.85 7.05 182.95 7.85 L184.15 8.0 188.8 9.0 189.75 18.0 Q184.2 15.75 176.45 17.1 L171.7 18.25 170.25 18.8" fill="#3d4748" fill-rule="evenodd" stroke="none"/>
    <path d="M148.45 28.0 L158.4 23.25 158.9 25.15 157.45 36.05 164.55 37.95 164.1 42.25 160.75 42.7 159.8 45.1 155.35 45.1 154.15 45.1 153.95 44.2 152.7 37.95 147.95 36.55 148.45 28.0" fill="#293231" fill-rule="evenodd" stroke="none"/>
    <path d="M85.75 41.75 L87.65 37.5 89.55 15.65 Q100.65 1.85 110.15 8.9 113.3 11.2 115.65 15.4 117.55 18.75 117.55 19.9 L117.55 41.75 96.2 43.2 88.6 44.6 85.75 41.75 M112.35 38.9 L117.55 41.75 117.1 37.5 115.2 37.5 112.35 38.9" fill="#7892ab" fill-rule="evenodd" stroke="none"/>
    <path d="M142.95 38.9 L135.6 42.25 117.55 41.75 118.05 28.45 148.45 28.0 147.95 36.55 142.95 38.9" fill="#829db6" fill-rule="evenodd" stroke="none"/>
    <path d="M78.1 73.55 L78.2 74.15 63.35 73.55 61.7 73.5 Q58.9 68.35 59.8 54.65 60.05 50.35 60.65 45.75 L61.2 42.3 61.2 41.95 62.15 42.05 79.0 42.9 Q75.35 44.35 76.4 59.35 76.75 64.4 77.5 69.3 L77.7 71.1 78.1 73.55" fill="#485152" fill-rule="evenodd" stroke="none"/>
    <path d="M87.2 73.55 L83.85 74.05 79.6 74.5 79.05 73.55 77.7 71.1 77.5 69.3 81.95 69.3 83.65 73.55 83.85 74.05 83.9 73.55 84.35 69.3 87.2 68.85 87.2 73.55" fill="#969999" fill-rule="evenodd" stroke="none"/>
    <path d="M430.1 82.7 L431.45 84.65 Q433.4 84.85 433.2 84.25 L432.2 83.15 431.45 82.5 430.1 82.7 Z" fill="none" stroke="#000000" stroke-linecap="butt" stroke-linejoin="miter" stroke-width="1.0"/>
  </g>
</svg>
