<?xml version="1.0" encoding="UTF-8" standalone="no"?>
<svg xmlns:xlink="http://www.w3.org/1999/xlink" height="150.9px" width="319.05px" xmlns="http://www.w3.org/2000/svg">
  <g transform="matrix(1.0, 0.0, 0.0, 1.0, 144.3, 206.15)">
    <path d="M-93.5 -144.6 L14.8 -149.4 25.95 -199.55 2.55 -199.55 3.45 -201.1 20.15 -202.0 35.8 -202.0 26.9 -147.7 -116.05 -140.75 -118.95 -142.4 -122.2 -146.3 -117.2 -148.5 -115.75 -146.95 -115.75 -143.75 -113.85 -143.75 -94.65 -142.2 -93.5 -144.6 M15.8 -133.85 L15.8 -132.05 12.75 -129.5 1.2 -129.5 -0.8 -131.2 -12.7 -131.2 -14.9 -127.8 -22.05 -127.8 -21.95 -130.85 -12.35 -132.75 9.35 -132.75 15.8 -133.85" fill="#6a6a6a" fill-rule="evenodd" stroke="none"/>
    <path d="M-116.05 -140.75 L26.9 -147.7 105.8 -150.65 123.35 -156.3 132.4 -160.2 147.95 -169.1 161.6 -178.45 161.6 -181.2 157.65 -183.75 144.85 -189.05 130.55 -193.3 103.75 -197.75 85.5 -199.75 47.45 -202.0 35.8 -202.0 20.15 -202.0 3.45 -201.1 3.75 -201.8 Q4.45 -203.5 4.6 -205.15 L17.35 -206.15 62.6 -206.15 96.0 -203.75 119.5 -200.6 149.9 -193.95 166.2 -188.3 171.4 -184.55 173.7 -181.1 174.75 -177.25 173.4 -164.4 173.4 -160.5 166.7 -160.35 153.2 -158.65 135.15 -154.55 110.9 -146.2 101.35 -141.4 122.5 -147.55 155.45 -154.05 173.4 -155.4 173.4 -154.45 171.95 -140.65 145.45 -140.7 143.25 -142.55 134.25 -142.55 131.75 -140.7 126.3 -140.7 122.4 -139.0 105.95 -136.95 91.35 -131.85 78.1 -127.8 54.8 -125.65 -3.4 -123.55 -144.3 -120.85 -141.2 -141.45 -139.85 -145.5 -137.75 -147.9 -130.55 -153.5 -127.2 -153.15 Q-126.2 -153.15 -116.8 -157.5 L-117.1 -157.15 -128.3 -149.35 -131.2 -146.1 -131.2 -142.05 -128.95 -140.15 -116.05 -140.75 M1.2 -129.5 L12.75 -129.5 15.8 -132.05 15.8 -133.85 15.8 -135.6 0.85 -135.6 -3.05 -137.65 -10.0 -137.65 -14.05 -135.6 -21.85 -133.9 -21.95 -130.85 -22.05 -127.8 -14.9 -127.8 -5.05 -127.8 1.2 -129.5" fill="#e1e1e1" fill-rule="evenodd" stroke="none"/>
    <path d="M122.4 -139.0 L122.4 -135.1 126.8 -132.7 130.35 -132.7 137.5 -131.2 140.55 -131.2 145.15 -133.55 155.65 -133.55 159.2 -136.1 159.2 -138.4 161.4 -138.65 171.7 -138.65 170.25 -120.65 162.25 -117.9 149.8 -111.6 138.85 -102.7 129.15 -89.25 122.85 -77.8 117.75 -66.2 114.65 -55.25 -142.25 -55.25 -144.3 -74.25 -144.3 -120.85 -3.4 -123.55 54.8 -125.65 78.1 -127.8 91.35 -131.85 105.95 -136.95 122.4 -139.0" fill="#d5d5d5" fill-rule="evenodd" stroke="none"/>
    <path d="M-21.95 -130.85 L-21.85 -133.9 -14.05 -135.6 0.85 -135.6 15.8 -135.6 15.8 -133.85 9.35 -132.75 -12.35 -132.75 -21.95 -130.85" fill="#aaaaaa" fill-rule="evenodd" stroke="none"/>
    <path d="M1.2 -129.5 L-5.05 -127.8 -14.9 -127.8 -12.7 -131.2 -0.8 -131.2 1.2 -129.5 M-14.05 -135.6 L-10.0 -137.65 -3.05 -137.65 0.85 -135.6 -14.05 -135.6" fill="#bfbfbf" fill-rule="evenodd" stroke="none"/>
    <path d="M-115.75 -146.95 L-117.2 -148.5 -118.6 -150.0 -117.85 -153.6 -116.6 -150.7 -113.85 -150.7 -111.5 -152.4 -95.9 -153.45 -96.05 -149.35 -110.3 -149.35 -112.0 -146.95 -115.75 -146.95" fill="#808080" fill-rule="evenodd" stroke="none"/>
    <path d="M-116.8 -157.5 L-103.0 -164.1 -95.75 -157.05 -95.9 -153.45 -111.5 -152.4 -113.85 -150.7 -116.6 -150.7 -117.85 -153.6 -117.1 -157.15 -116.8 -157.5" fill="#9d9d9d" fill-rule="evenodd" stroke="none"/>
    <path d="M-117.2 -148.5 L-122.2 -146.3 -118.95 -142.4 -116.05 -140.75 -128.95 -140.15 -131.2 -142.05 -131.2 -146.1 -128.3 -149.35 -117.1 -157.15 -117.85 -153.6 -118.6 -150.0 -117.2 -148.5" fill="#484848" fill-rule="evenodd" stroke="none"/>
    <path d="M-93.5 -144.6 L-94.65 -142.2 -113.85 -143.75 -115.75 -143.75 -115.75 -146.95 -112.0 -146.95 -110.3 -149.35 -96.05 -149.35 -95.9 -153.45 -95.75 -157.05 -95.75 -157.55 -95.2 -156.5 -93.5 -144.6" fill="#595959" fill-rule="evenodd" stroke="none"/>
  </g>
</svg>
