<?xml version="1.0" encoding="UTF-8" standalone="no"?>
<svg xmlns:xlink="http://www.w3.org/1999/xlink" height="228.45px" width="693.8px" xmlns="http://www.w3.org/2000/svg">
  <g transform="matrix(1.0, 0.0, 0.0, 1.0, 0.0, 0.0)">
    <path d="M497.95 84.7 L501.05 84.6 555.05 87.1 586.1 89.15 638.45 95.6 654.15 99.1 659.4 101.65 662.7 104.05 667.55 109.15 667.6 111.4 665.65 111.0 656.0 108.7 653.2 108.35 639.25 106.75 589.65 104.05 519.65 101.3 492.1 100.7 491.5 97.65 489.9 93.05 486.2 85.05 497.95 84.7 M666.05 111.95 L671.15 121.75 672.15 124.4 673.4 132.8 673.7 142.55 671.55 142.65 671.2 137.25 669.6 137.3 664.75 118.25 660.65 116.15 659.0 113.45 657.0 113.5 655.25 110.2 666.05 111.95 M6.2 172.65 L5.15 171.95 2.8 169.45 1.8 164.5 0.0 145.65 1.45 143.55 17.7 140.6 43.5 139.8 44.4 140.5 6.95 145.1 5.8 146.3 5.85 148.15 9.05 163.7 11.85 173.55 14.95 178.35 6.2 172.65 M20.75 94.15 L20.75 92.9 22.3 89.65 24.7 86.65 32.0 79.85 34.7 78.0 36.4 78.0 76.45 77.55 107.45 77.2 167.55 77.5 163.85 81.55 162.3 84.4 161.1 92.8 93.25 92.3 43.5 93.15 20.75 94.15 M496.35 155.25 L514.35 154.7 519.85 156.3 520.0 159.8 517.3 162.05 496.6 162.0 496.35 155.25 M484.1 84.95 L486.6 89.15 489.45 95.55 490.85 100.6 396.5 97.35 320.6 95.75 317.45 80.15 334.15 80.45 356.55 80.7 439.7 83.4 484.1 84.95 M315.95 80.15 L318.65 95.75 162.75 92.85 163.95 85.2 166.15 81.25 169.3 77.55 169.55 77.55 223.2 78.5 224.9 78.55 301.05 79.9 315.95 80.15 M494.75 155.3 L495.0 162.0 404.7 159.85 323.65 158.75 323.8 152.65 494.75 155.3 M165.6 113.7 L179.35 117.0 198.0 124.6 212.5 132.25 221.3 140.3 226.65 149.75 228.25 151.65 322.15 152.7 322.05 158.75 228.45 158.2 228.55 161.7 225.45 164.65 222.7 164.7 217.45 157.6 202.3 144.25 194.05 138.85 186.25 134.85 180.0 132.8 169.9 131.15 165.6 113.7 M167.75 130.7 L155.05 129.6 146.7 129.85 134.45 133.0 122.05 137.6 111.6 144.05 109.1 146.45 92.55 145.25 96.65 139.3 104.3 130.75 112.5 126.05 133.85 117.5 151.2 113.9 163.7 113.25 167.75 130.7 M47.1 142.6 L50.3 143.3 119.2 148.4 113.85 152.55 108.9 157.25 106.0 155.65 101.7 153.9 94.4 159.9 88.8 157.8 88.6 151.95 88.7 151.75 45.15 150.15 33.05 149.15 28.45 146.25 28.4 144.75 47.1 142.6" fill="#e6e6e6" fill-rule="evenodd" stroke="none"/>
    <path d="M673.7 142.55 L676.2 144.3 644.1 143.35 640.85 143.75 640.0 144.3 634.05 148.2 633.05 147.4 639.1 143.3 642.95 142.5 649.8 142.7 660.2 143.0 663.8 142.85 671.55 142.65 673.7 142.55 M17.7 140.6 L17.3 127.05 18.5 126.9 26.35 126.05 26.95 126.0 28.55 137.1 30.8 137.0 29.85 106.85 30.8 99.15 31.0 97.15 30.95 95.8 19.5 97.8 21.75 94.45 20.8 94.5 20.75 94.15 43.5 93.15 93.25 92.3 161.1 92.8 162.3 84.4 163.85 81.55 167.55 77.5 169.3 77.55 166.15 81.25 163.95 85.2 162.75 92.85 318.65 95.75 315.95 80.15 317.45 80.15 320.6 95.75 396.5 97.35 490.85 100.6 489.45 95.55 486.6 89.15 484.1 84.95 486.2 85.05 489.9 93.05 491.5 97.65 492.1 100.7 519.65 101.3 589.65 104.05 639.25 106.75 653.2 108.35 655.25 110.2 640.25 108.4 581.95 105.1 492.35 101.8 495.3 122.15 496.35 155.25 494.75 155.3 493.75 122.65 491.2 101.75 468.75 101.2 395.1 98.15 320.75 96.9 323.3 122.15 324.1 146.95 323.8 152.65 322.15 152.7 322.35 146.7 321.65 125.35 319.1 96.85 249.2 95.65 214.5 94.65 162.65 94.0 162.9 101.0 165.6 113.7 169.9 131.15 170.35 132.8 170.15 138.35 168.6 138.1 168.3 132.95 167.75 130.7 163.7 113.25 161.25 100.0 161.05 94.0 130.85 93.65 41.5 94.1 42.7 95.15 43.5 97.35 43.0 116.9 43.7 138.85 46.75 141.3 51.15 142.2 92.55 145.25 109.1 146.45 120.15 147.25 121.35 146.75 119.2 148.4 50.3 143.3 47.1 142.6 44.4 140.5 43.5 139.8 17.7 140.6 M36.4 78.0 L61.05 54.05 75.7 40.55 96.25 23.1 101.55 18.85 100.25 21.1 101.7 21.1 107.65 16.1 110.65 15.15 134.7 13.4 134.7 13.75 110.35 37.6 97.85 51.55 76.45 77.55 36.4 78.0 M547.7 111.9 L547.75 113.75 546.85 117.15 540.95 124.7 532.7 133.0 529.1 134.65 507.2 134.6 504.6 133.4 502.6 131.45 500.95 111.25 501.5 109.9 503.65 108.55 542.25 109.45 544.95 110.1 547.7 111.9 M538.2 125.15 L541.05 121.8 542.1 120.0 543.2 118.2 544.9 115.3 544.85 113.7 542.65 111.9 505.55 110.6 503.8 112.05 506.25 113.9 509.35 113.8 509.45 116.2 507.1 117.4 504.5 117.35 504.55 118.8 505.7 118.85 510.15 121.9 510.15 123.15 509.0 124.5 505.9 124.45 506.55 126.05 510.65 129.75 512.25 130.9 510.05 131.35 506.0 130.35 508.25 132.3 526.3 132.75 529.95 131.75 536.1 127.6 537.25 126.3 538.2 125.15 M496.6 162.0 L496.65 163.5 496.2 172.55 493.65 196.4 493.6 196.65 492.25 196.6 494.65 173.55 495.0 162.0 496.6 162.0 M469.8 119.1 L467.5 117.15 467.4 114.25 482.5 114.7 482.6 118.7 469.8 119.1 M322.6 196.85 L322.8 200.95 322.8 201.8 320.95 201.85 320.85 198.0 321.2 195.75 322.05 158.75 323.65 158.75 322.5 195.75 322.6 196.85 M112.75 106.0 L109.35 104.2 87.2 104.45 84.25 107.75 83.35 112.25 83.55 118.85 85.1 121.4 90.1 124.0 109.85 123.35 112.85 120.9 114.6 117.95 114.3 108.6 112.75 106.0 M115.45 106.1 L116.6 108.25 116.9 116.95 115.9 119.85 113.5 122.9 110.0 124.95 89.4 125.6 85.9 124.5 82.75 121.2 81.5 118.3 81.2 109.1 82.9 106.55 86.0 103.35 87.55 103.0 109.9 102.3 113.15 103.55 115.45 106.1" fill="#7b7b7b" fill-rule="evenodd" stroke="none"/>
    <path d="M93.7 21.05 L93.65 19.1 94.55 17.25 101.95 13.15 122.4 8.4 141.8 5.65 163.35 4.15 296.35 0.0 349.45 1.05 372.45 2.05 381.7 3.5 387.45 5.45 395.7 9.4 426.2 28.6 449.55 44.7 464.15 56.0 497.95 84.7 486.2 85.05 483.4 81.6 473.4 71.15 456.3 57.7 444.65 48.55 423.15 32.7 403.2 19.8 387.55 10.8 387.45 10.7 387.0 10.45 376.9 6.05 364.55 3.8 317.45 2.5 286.9 2.3 213.15 4.6 207.9 5.85 203.85 8.1 201.65 10.55 150.05 12.2 134.7 13.4 110.65 15.15 107.65 16.1 101.7 21.1 100.25 21.1 101.55 18.85 97.0 19.0 93.7 21.05 M669.6 137.3 L671.2 137.25 671.55 142.65 663.8 142.85 Q665.0 142.1 666.15 141.3 L665.75 138.6 668.15 140.65 669.75 140.6 669.6 137.3 M317.8 9.3 L308.25 9.25 307.15 3.55 363.95 4.75 377.4 7.25 385.05 10.65 385.1 10.65 403.2 20.95 443.3 48.95 451.1 55.25 437.15 50.65 436.15 50.7 415.25 34.6 401.65 25.85 375.4 10.45 372.1 10.4 317.8 9.3 M203.2 10.5 L205.2 8.7 208.9 6.7 212.7 5.85 287.7 3.5 305.95 3.55 306.8 9.25 306.8 9.35 302.3 9.25 300.8 9.25 296.0 9.15 280.4 8.9 222.2 10.0 221.15 9.95 203.2 10.5" fill="#c8c8c8" fill-rule="evenodd" stroke="none"/>
    <path d="M693.4 161.55 L693.8 169.8 692.9 177.4 691.25 181.75 686.9 188.45 686.3 189.05 684.05 191.45 660.05 192.2 658.1 184.25 661.75 184.35 664.65 182.25 664.5 178.4 660.55 169.25 655.9 161.55 649.15 152.95 648.4 152.2 648.05 151.85 648.0 151.85 647.7 151.5 683.85 151.9 688.7 153.0 693.4 161.55 M658.7 121.6 L659.1 123.35 659.65 126.0 660.2 143.0 649.8 142.7 644.2 134.9 634.55 125.6 624.6 118.85 610.4 113.65 594.95 111.0 583.0 111.4 572.05 114.15 553.55 122.15 538.55 134.6 527.55 145.65 520.0 159.8 519.85 156.3 514.35 154.7 496.35 155.25 495.3 122.15 492.35 101.8 581.95 105.1 640.25 108.4 655.25 110.2 657.0 113.5 658.7 121.6 M547.7 111.9 L544.95 110.1 542.25 109.45 503.65 108.55 501.5 109.9 500.95 111.25 502.6 131.45 504.6 133.4 507.2 134.6 529.1 134.65 532.7 133.0 540.95 124.7 546.85 117.15 547.75 113.75 547.7 111.9 M519.35 196.7 L522.5 181.95 527.55 170.8 534.65 159.7 540.8 152.2 550.85 143.6 561.7 136.75 574.45 132.35 590.9 129.25 600.65 128.95 613.75 131.0 626.25 135.05 635.6 140.55 639.1 143.3 633.05 147.4 631.8 146.3 626.35 143.3 616.95 139.35 609.9 136.95 598.7 134.95 586.05 135.35 570.8 139.5 558.7 146.15 552.5 150.75 547.4 155.6 540.25 165.45 535.7 173.2 533.05 178.75 528.1 192.05 527.05 196.8 519.35 196.7 M323.8 152.65 L324.1 146.95 323.3 122.15 320.75 96.9 395.1 98.15 468.75 101.2 491.2 101.75 493.75 122.65 494.75 155.3 323.8 152.65 M496.6 162.0 L517.3 162.05 520.0 159.8 514.35 174.95 511.6 189.25 511.85 196.7 493.6 196.65 493.65 196.4 496.2 172.55 496.65 163.5 496.6 162.0 M495.0 162.0 L494.65 173.55 492.25 196.6 322.5 195.75 323.65 158.75 404.7 159.85 495.0 162.0 M370.0 116.4 L378.75 116.1 379.7 115.05 379.55 110.4 378.05 109.45 369.2 108.85 366.7 106.15 363.8 104.95 357.25 105.2 354.3 106.65 352.8 108.4 338.0 108.55 336.85 109.7 336.95 114.35 338.2 115.3 352.1 115.55 353.8 117.4 357.0 119.25 360.3 120.1 364.9 119.95 370.0 116.4 M469.8 119.1 L482.6 118.7 482.5 114.7 467.4 114.25 467.5 117.15 469.8 119.1 M165.6 113.7 L162.9 101.0 162.65 94.0 214.5 94.65 249.2 95.65 319.1 96.85 321.65 125.35 322.35 146.7 322.15 152.7 228.25 151.65 226.65 149.75 221.3 140.3 212.5 132.25 198.0 124.6 179.35 117.0 165.6 113.7 M218.55 112.45 L219.75 113.0 227.45 112.75 229.1 110.7 229.05 109.25 228.15 106.5 219.05 106.3 218.85 105.25 216.75 102.95 212.3 102.05 206.95 102.2 203.8 103.65 202.6 104.8 202.1 105.95 186.85 105.65 186.25 111.2 187.05 112.05 200.8 112.65 200.75 111.55 203.75 114.45 207.9 116.0 212.55 115.85 217.15 114.45 218.55 112.45 M169.9 131.15 L180.0 132.8 186.25 134.85 194.05 138.85 202.3 144.25 217.45 157.6 222.7 164.7 225.45 164.65 228.55 161.7 228.45 158.2 322.05 158.75 321.2 195.75 224.65 195.85 221.05 182.65 214.55 169.95 210.3 163.3 204.8 156.55 198.5 150.95 190.3 145.7 180.7 141.3 171.65 138.65 170.15 138.35 170.35 132.8 169.9 131.15 M167.75 130.7 L168.3 132.95 168.6 138.1 163.85 137.2 153.6 137.5 141.75 138.65 132.75 141.3 121.35 146.75 120.15 147.25 109.1 146.45 111.6 144.05 122.05 137.6 134.45 133.0 146.7 129.85 155.05 129.6 167.75 130.7 M92.55 145.25 L51.15 142.2 46.75 141.3 43.7 138.85 43.0 116.9 43.5 97.35 42.7 95.15 41.5 94.1 130.85 93.65 161.05 94.0 161.25 100.0 163.7 113.25 151.2 113.9 133.85 117.5 112.5 126.05 104.3 130.75 96.65 139.3 92.55 145.25 M47.1 142.6 L28.4 144.75 28.45 146.25 33.05 149.15 45.15 150.15 88.7 151.75 88.6 151.95 88.8 157.8 94.4 159.9 101.7 153.9 106.0 155.65 108.9 157.25 107.3 158.8 102.6 164.8 95.6 177.35 92.25 185.45 90.15 192.85 20.1 180.8 14.95 178.35 11.85 173.55 9.05 163.7 5.85 148.15 5.8 146.3 6.95 145.1 44.4 140.5 47.1 142.6 M115.45 106.1 L113.15 103.55 109.9 102.3 87.55 103.0 86.0 103.35 82.9 106.55 81.2 109.1 81.5 118.3 82.75 121.2 85.9 124.5 89.4 125.6 110.0 124.95 113.5 122.9 115.9 119.85 116.9 116.95 116.6 108.25 115.45 106.1 M112.75 106.0 L114.3 108.6 114.6 117.95 112.85 120.9 109.85 123.35 90.1 124.0 85.1 121.4 83.55 118.85 83.35 112.25 84.25 107.75 87.2 104.45 109.35 104.2 112.75 106.0" fill="#d9d9d9" fill-rule="evenodd" stroke="none"/>
    <path d="M686.3 189.05 L680.55 201.9 677.1 208.0 673.75 209.85 660.15 214.1 661.4 206.7 661.05 197.7 660.35 193.75 682.35 193.05 684.05 191.45 686.3 189.05 M524.1 219.9 L427.5 220.95 419.7 225.85 244.55 228.45 239.75 222.3 230.85 222.55 226.7 217.8 226.35 205.85 224.85 196.9 320.85 198.0 319.2 207.2 319.2 215.9 320.9 223.8 322.4 214.0 322.8 201.8 322.8 200.95 322.6 196.85 431.4 198.25 490.9 198.55 489.6 218.7 490.9 218.7 493.9 198.1 526.95 197.85 524.1 219.9 M102.85 218.35 L102.6 219.95 82.85 215.1 52.2 202.65 8.15 189.45 5.9 187.8 5.2 186.95 4.75 174.2 5.45 173.4 18.45 181.3 22.45 182.55 89.65 194.6 89.15 196.35 89.55 208.15 91.5 211.8 95.8 215.45 97.45 216.4 101.2 217.95 102.85 218.35 M317.45 80.15 L315.95 80.15 306.85 9.55 308.3 9.5 317.45 80.15 M542.1 120.0 L541.05 121.8 538.2 125.15 509.0 124.5 510.15 123.15 510.15 121.9 505.7 118.85 542.1 120.0 M537.25 126.3 L536.1 127.6 529.95 131.75 526.3 132.75 508.25 132.3 506.0 130.35 510.05 131.35 512.25 130.9 510.65 129.75 506.55 126.05 537.25 126.3 M507.1 117.4 L509.45 116.2 509.35 113.8 506.25 113.9 503.8 112.05 505.55 110.6 542.65 111.9 544.85 113.7 544.9 115.3 543.2 118.2 507.1 117.4 M301.05 79.9 L224.9 78.55 222.2 10.0 280.4 8.9 296.0 9.15 297.55 26.3 298.9 51.8 301.05 79.9 M223.2 78.5 L169.55 77.55 169.55 77.3 170.65 75.45 188.9 37.4 203.15 10.65 203.2 10.5 221.15 9.95 223.2 78.5 M201.6 10.7 L187.2 37.05 169.05 75.45 167.55 77.5 107.45 77.2 76.45 77.55 97.85 51.55 110.35 37.6 134.7 13.75 134.7 13.4 150.05 12.2 201.65 10.55 201.6 10.7 M484.5 210.85 L468.6 206.65 438.45 205.9 324.75 206.15 324.05 207.05 324.15 208.0 328.15 213.2 329.9 214.55 354.0 215.25 486.85 215.6 487.6 214.8 486.5 212.75 484.5 210.85 M317.7 206.7 L316.7 205.9 264.8 205.95 252.7 209.85 252.7 210.55 255.25 211.75 303.15 213.4 308.95 213.2 Q311.45 212.1 313.9 210.95 L316.7 209.0 317.7 206.7" fill="#2f2f2f" fill-rule="evenodd" stroke="none"/>
    <path d="M538.2 125.15 L537.25 126.3 506.55 126.05 505.9 124.45 509.0 124.5 538.2 125.15 M505.7 118.85 L504.55 118.8 504.5 117.35 507.1 117.4 543.2 118.2 542.1 120.0 505.7 118.85" fill="#919191" fill-rule="evenodd" stroke="none"/>
    <path d="M676.2 144.3 L688.9 151.3 691.7 154.2 692.8 156.95 693.4 161.55 688.7 153.0 683.85 151.9 647.7 151.5 647.4 151.2 647.05 150.85 646.3 150.2 640.0 144.3 640.85 143.75 644.1 143.35 676.2 144.3 M520.0 159.8 L527.55 145.65 538.55 134.6 553.55 122.15 572.05 114.15 583.0 111.4 594.95 111.0 610.4 113.65 624.6 118.85 634.55 125.6 644.2 134.9 649.8 142.7 642.95 142.5 639.1 143.3 635.6 140.55 626.25 135.05 613.75 131.0 600.65 128.95 590.9 129.25 574.45 132.35 561.7 136.75 550.85 143.6 540.8 152.2 534.65 159.7 527.55 170.8 522.5 181.95 519.35 196.7 511.85 196.7 511.6 189.25 514.35 174.95 520.0 159.8" fill="#eaeaea" fill-rule="evenodd" stroke="none"/>
    <path d="M494.75 155.3 L496.35 155.25 496.6 162.0 495.0 162.0 494.75 155.3 M323.8 152.65 L323.65 158.75 322.05 158.75 322.15 152.7 323.8 152.65 M26.35 126.05 L18.5 126.9 19.95 125.4 22.8 125.55 26.65 125.45 26.35 126.05 M22.65 121.1 L20.05 121.35 18.95 117.5 20.05 115.05 22.45 114.05 22.65 121.1" fill="#959595" fill-rule="evenodd" stroke="none"/>
    <path d="M5.45 173.4 L6.2 172.65 14.95 178.35 20.1 180.8 90.15 192.85 89.65 194.6 22.45 182.55 18.45 181.3 5.45 173.4 M96.25 23.1 L93.7 21.05 97.0 19.0 101.55 18.85 96.25 23.1 M660.05 192.2 L684.05 191.45 682.35 193.05 660.35 193.75 660.05 192.2 M169.3 77.55 L167.55 77.5 169.05 75.45 187.2 37.05 201.6 10.7 203.15 10.65 188.9 37.4 170.65 75.45 169.55 77.3 169.3 77.55 M511.85 196.7 L519.35 196.7 527.05 196.8 526.95 197.85 493.9 198.1 494.05 197.3 493.6 196.65 511.85 196.7 M456.3 57.7 L473.4 71.15 483.4 81.6 486.2 85.05 484.1 84.95 439.7 83.4 440.2 81.6 441.3 80.65 446.6 82.55 454.65 81.5 456.65 81.9 460.85 78.85 463.4 74.45 463.3 71.45 461.25 69.3 460.95 68.5 458.7 61.0 452.5 55.95 456.3 57.7 M334.15 80.45 L317.45 80.15 308.3 9.5 306.85 9.55 315.95 80.15 301.05 79.9 298.9 51.8 297.55 26.3 296.0 9.15 300.8 9.25 302.3 9.25 306.8 9.35 306.8 9.25 317.85 9.35 319.65 16.0 334.15 80.45 M224.9 78.55 L223.2 78.5 221.15 9.95 222.2 10.0 224.9 78.55 M372.1 10.4 L375.4 10.45 401.65 25.85 415.25 34.6 436.15 50.7 434.1 50.75 435.35 60.6 435.45 61.5 435.7 69.5 431.7 69.1 431.2 53.3 431.1 50.85 434.1 50.75 414.8 35.9 397.9 25.0 372.1 10.4 M490.9 198.55 L431.4 198.25 322.6 196.85 322.5 195.75 492.25 196.6 490.9 198.55 M320.85 198.0 L224.85 196.9 224.65 195.85 321.2 195.75 320.85 198.0" fill="#595959" fill-rule="evenodd" stroke="none"/>
    <path d="M492.25 196.6 L493.6 196.65 494.05 197.3 493.9 198.1 490.9 218.7 489.6 218.7 490.9 198.55 492.25 196.6 M322.8 201.8 L322.4 214.0 320.9 223.8 319.2 215.9 319.2 207.2 320.85 198.0 320.95 201.85 322.8 201.8" fill="#1a1a1a" fill-rule="evenodd" stroke="none"/>
    <path d="M660.15 214.1 L642.45 181.75 609.2 152.75 579.95 153.65 540.6 189.55 524.1 219.9 526.95 197.85 527.05 196.8 528.1 192.05 533.05 178.75 535.7 173.2 540.25 165.45 547.4 155.6 552.5 150.75 558.7 146.15 570.8 139.5 586.05 135.35 598.7 134.95 609.9 136.95 616.95 139.35 626.35 143.3 631.8 146.3 633.05 147.4 634.05 148.2 639.7 153.3 645.15 159.25 649.95 165.75 655.05 175.65 658.1 184.25 660.05 192.2 660.35 193.75 661.05 197.7 661.4 206.7 660.15 214.1 M226.7 217.8 L177.75 155.85 152.5 153.85 102.85 218.35 101.2 217.95 97.45 216.4 95.8 215.45 91.5 211.8 89.55 208.15 89.15 196.35 89.65 194.6 90.15 192.85 92.25 185.45 95.6 177.35 102.6 164.8 107.3 158.8 108.9 157.25 113.85 152.55 119.2 148.4 121.35 146.75 132.75 141.3 141.75 138.65 153.6 137.5 163.85 137.2 168.6 138.1 170.15 138.35 171.65 138.65 180.7 141.3 190.3 145.7 198.5 150.95 204.8 156.55 210.3 163.3 214.55 169.95 221.05 182.65 224.65 195.85 224.85 196.9 226.35 205.85 226.7 217.8" fill="#000000" fill-rule="evenodd" stroke="none"/>
    <path d="M648.0 151.85 L648.05 151.85 648.4 152.2 649.15 152.95 655.9 161.55 660.55 169.25 664.5 178.4 664.65 182.25 661.75 184.35 658.1 184.25 655.05 175.65 649.95 165.75 645.15 159.25 639.7 153.3 634.05 148.2 640.0 144.3 646.3 150.2 647.05 150.85 647.4 151.2 648.0 151.85" fill="#e1e1e1" fill-rule="evenodd" stroke="none"/>
    <path d="M201.65 10.55 L203.85 8.1 207.9 5.85 213.15 4.6 286.9 2.3 317.45 2.5 364.55 3.8 376.9 6.05 387.0 10.45 387.45 10.7 387.55 10.8 403.2 19.8 423.15 32.7 444.65 48.55 456.3 57.7 452.5 55.95 458.7 61.0 460.95 68.5 446.55 62.2 435.45 60.55 435.35 60.6 434.1 50.75 436.15 50.7 437.15 50.65 451.1 55.25 443.3 48.95 403.2 20.95 385.1 10.65 385.05 10.65 377.4 7.25 363.95 4.75 307.15 3.55 308.25 9.25 317.8 9.3 317.85 9.35 306.8 9.25 305.95 3.55 287.7 3.5 212.7 5.85 208.9 6.7 205.2 8.7 203.2 10.5 203.15 10.65 201.6 10.7 201.65 10.55 M443.0 80.05 L445.05 81.05 451.85 80.8 454.65 81.5 446.6 82.55 441.3 80.65 442.35 79.7 443.0 80.05" fill="#888888" fill-rule="evenodd" stroke="none"/>
    <path d="M435.45 60.55 L446.55 62.2 460.95 68.5 461.25 69.3 462.3 72.9 459.0 76.65 451.85 80.8 445.05 81.05 443.0 80.05 443.2 76.3 444.45 76.25 446.75 77.2 452.7 77.0 456.75 74.7 460.45 71.45 460.4 69.55 446.55 63.55 445.75 63.55 435.45 61.5 435.45 60.55" fill="#333333" fill-rule="evenodd" stroke="none"/>
    <path d="M665.65 111.0 L666.05 111.95 655.25 110.2 653.2 108.35 656.0 108.7 665.65 111.0 M429.1 70.75 L430.3 53.65 431.2 53.3 431.7 69.1 431.75 70.65 429.1 70.75" fill="#8c8c8c" fill-rule="evenodd" stroke="none"/>
    <path d="M429.1 70.75 L431.75 70.65 431.7 69.1 435.7 69.5 435.75 72.7 435.8 73.7 429.1 70.75" fill="#3c3c3c" fill-rule="evenodd" stroke="none"/>
    <path d="M435.8 73.7 L435.75 72.7 440.25 72.7 445.2 70.55 446.6 68.65 446.5 66.35 445.75 67.4 442.25 69.3 435.7 69.5 435.45 61.5 445.75 63.55 446.55 63.55 460.4 69.55 460.45 71.45 456.75 74.7 452.7 77.0 446.75 77.2 444.45 76.25 443.2 76.3 443.0 80.05 442.35 79.7 439.7 78.35 435.8 73.7" fill="#737373" fill-rule="evenodd" stroke="none"/>
    <path d="M435.75 72.7 L435.7 69.5 442.25 69.3 445.75 67.4 446.5 66.35 446.6 68.65 445.2 70.55 440.25 72.7 435.75 72.7" fill="#555555" fill-rule="evenodd" stroke="none"/>
    <path d="M451.85 80.8 L459.0 76.65 462.3 72.9 461.25 69.3 463.3 71.45 463.4 74.45 460.85 78.85 456.65 81.9 454.65 81.5 451.85 80.8" fill="#4d4d4d" fill-rule="evenodd" stroke="none"/>
    <path d="M369.2 108.85 L378.05 109.45 379.55 110.4 379.7 115.05 378.75 116.1 370.0 116.4 368.55 115.4 352.1 114.45 352.1 115.55 338.2 115.3 336.95 114.35 336.85 109.7 338.0 108.55 352.8 108.4 369.2 108.85 M219.05 106.3 L228.15 106.5 229.05 109.25 229.1 110.7 227.45 112.75 219.75 113.0 218.55 112.45 217.4 111.95 200.75 111.55 200.8 112.65 187.05 112.05 186.25 111.2 186.85 105.65 202.1 105.95 219.05 106.3" fill="#b3b3b3" fill-rule="evenodd" stroke="none"/>
    <path d="M657.0 113.5 L659.0 113.45 660.65 116.15 662.3 118.8 662.4 122.4 658.7 121.6 657.0 113.5 M659.1 123.35 L663.9 125.75 665.75 138.6 666.15 141.3 Q665.0 142.1 663.8 142.85 L660.2 143.0 659.65 126.0 659.1 123.35 M370.0 116.4 L364.9 119.95 360.3 120.1 357.0 119.25 353.8 117.4 352.1 115.55 352.1 114.45 368.55 115.4 370.0 116.4 M352.8 108.4 L354.3 106.65 357.25 105.2 363.8 104.95 366.7 106.15 369.2 108.85 352.8 108.4 M218.55 112.45 L217.15 114.45 212.55 115.85 207.9 116.0 203.75 114.45 200.75 111.55 217.4 111.95 218.55 112.45 M202.1 105.95 L202.6 104.8 203.8 103.65 206.95 102.2 212.3 102.05 216.75 102.95 218.85 105.25 219.05 106.3 202.1 105.95" fill="#cccccc" fill-rule="evenodd" stroke="none"/>
    <path d="M484.5 210.85 L486.5 212.75 487.6 214.8 486.85 215.6 354.0 215.25 329.9 214.55 328.15 213.2 324.15 208.0 324.05 207.05 324.75 206.15 438.45 205.9 468.6 206.65 484.5 210.85 M317.7 206.7 L316.7 209.0 313.9 210.95 Q311.45 212.1 308.95 213.2 L303.15 213.4 255.25 211.75 252.7 210.55 252.7 209.85 264.8 205.95 316.7 205.9 317.7 206.7" fill="#484848" fill-rule="evenodd" stroke="none"/>
    <path d="M18.4 113.65 L16.8 112.25 16.35 97.9 19.5 97.8 30.95 95.8 31.0 97.15 30.8 99.15 29.2 97.75 25.6 99.05 24.6 101.15 25.5 102.9 28.65 106.75 30.8 99.15 29.85 106.85 30.8 137.0 28.55 137.1 26.95 126.0 26.35 126.05 26.65 125.45 27.75 123.5 27.45 113.25 27.4 112.45 27.4 111.65 19.55 111.9 19.55 112.85 20.75 112.8 20.8 113.9 22.45 114.05 20.05 115.05 18.4 113.65 M24.1 108.4 L23.95 104.95 19.35 105.3 19.55 110.5 27.5 110.25 27.45 108.45 24.1 108.4 M19.95 125.4 L19.9 123.45 22.75 123.35 22.8 125.55 19.95 125.4" fill="#515151" fill-rule="evenodd" stroke="none"/>
    <path d="M24.1 108.4 L27.45 108.45 27.5 110.25 19.55 110.5 19.35 105.3 23.95 104.95 24.1 108.4 M27.45 113.25 L27.75 123.5 26.65 125.45 22.8 125.55 22.75 123.35 22.65 121.1 22.45 114.05 27.45 113.25 M20.75 112.8 L19.55 112.85 19.55 111.9 27.4 111.65 27.4 112.45 20.75 112.8" fill="#b7b7b7" fill-rule="evenodd" stroke="none"/>
    <path d="M17.3 127.05 L16.25 127.1 15.9 115.15 18.4 113.65 20.05 115.05 18.95 117.5 20.05 121.35 22.65 121.1 22.75 123.35 19.9 123.45 19.95 125.4 18.5 126.9 17.3 127.05 M30.8 99.15 L28.65 106.75 25.5 102.9 24.6 101.15 25.6 99.05 29.2 97.75 30.8 99.15 M27.4 112.45 L27.45 113.25 22.45 114.05 20.8 113.9 20.75 112.8 27.4 112.45" fill="#9d9d9d" fill-rule="evenodd" stroke="none"/>
    <path d="M660.65 116.15 L664.75 118.25 669.6 137.3 669.75 140.6 668.15 140.65 665.75 138.6 663.9 125.75 659.1 123.35 658.7 121.6 662.4 122.4 662.3 118.8 660.65 116.15" fill="#dddddd" fill-rule="evenodd" stroke="none"/>
    <path d="M439.7 83.4 L356.55 80.7 334.15 80.45 319.65 16.0 317.85 9.35 317.8 9.3 372.1 10.4 397.9 25.0 414.8 35.9 434.1 50.75 431.1 50.85 431.2 53.3 430.3 53.65 429.1 70.75 435.8 73.7 439.7 78.35 442.35 79.7 441.3 80.65 440.2 81.6 439.7 83.4" fill="#6f6f6f" fill-rule="evenodd" stroke="none"/>
  </g>
</svg>
