<?xml version="1.0" encoding="UTF-8" standalone="no"?>
<svg xmlns:xlink="http://www.w3.org/1999/xlink" height="31.3px" width="165.2px" xmlns="http://www.w3.org/2000/svg">
  <g transform="matrix(1.0, 0.0, 0.0, 1.0, -494.6, -87.4)">
    <path d="M556.35 112.25 L558.0 111.95 Q559.0 112.6 560.05 114.05 561.4 115.9 561.3 117.4 L559.85 118.35 559.0 118.7 556.9 116.25 Q555.7 114.65 555.7 114.25 555.7 112.5 556.35 112.25 M496.8 91.55 Q495.2 90.9 494.6 89.25 L495.35 87.65 Q499.55 87.25 501.45 87.55 502.95 87.8 503.7 88.55 L503.25 90.1 502.8 91.55 496.8 91.55 M579.1 94.6 L578.3 95.0 576.4 93.7 573.85 91.55 Q574.35 90.1 576.15 89.25 577.2 89.65 578.55 90.95 579.95 92.3 580.6 93.55 L579.1 94.6 M605.45 93.85 L606.3 92.1 608.05 92.7 Q609.1 93.3 610.05 94.7 L608.6 95.75 607.75 96.15 Q606.0 95.45 605.45 93.85 M653.25 106.8 Q651.9 104.85 651.9 103.35 651.9 101.5 652.5 101.1 L654.2 100.6 Q656.85 102.5 659.0 103.5 659.8 104.05 659.8 106.5 659.8 108.4 659.2 108.95 L657.5 109.65 Q654.95 109.3 653.25 106.8" fill="#000000" fill-opacity="0.72156864" fill-rule="evenodd" stroke="none"/>
  </g>
</svg>
