<?xml version="1.0" encoding="UTF-8" standalone="no"?>
<svg xmlns:xlink="http://www.w3.org/1999/xlink" height="55.15px" width="165.2px" xmlns="http://www.w3.org/2000/svg">
  <g transform="matrix(1.0, 0.0, 0.0, 1.0, -494.6, -87.4)">
    <path d="M620.15 101.85 Q619.05 101.85 618.45 101.2 617.8 100.45 616.95 100.3 619.6 97.5 622.5 100.7 621.7 101.85 620.15 101.85 M638.85 108.9 L638.85 109.75 636.4 110.65 634.7 111.2 Q636.05 111.9 635.25 112.55 634.55 113.15 633.25 113.15 632.2 113.15 631.05 112.35 L629.4 111.1 Q630.75 110.35 634.35 109.6 L638.85 108.9 M515.1 139.3 L515.25 139.2 521.7 139.6 521.7 140.9 Q520.25 142.55 518.1 142.55 L515.9 142.05 Q514.9 141.4 514.9 140.3 514.9 139.45 515.1 139.3 M558.0 111.95 Q559.0 112.6 560.05 114.05 561.4 115.9 561.3 117.4 L559.85 118.35 559.0 118.7 556.9 116.25 Q555.7 114.65 555.7 114.25 555.7 112.5 556.35 112.25 L558.0 111.95 M553.95 90.8 L553.95 91.6 552.6 92.4 550.6 92.8 Q548.7 92.8 548.45 92.1 549.2 91.25 549.2 90.5 L553.95 90.8 M516.9 93.45 L516.05 93.85 Q513.95 93.15 513.0 92.35 512.15 91.65 511.6 90.4 512.1 88.95 513.75 88.25 L516.15 89.7 518.35 92.4 516.9 93.45 M496.8 91.55 Q495.2 90.9 494.6 89.25 L495.35 87.65 Q499.55 87.25 501.45 87.55 502.95 87.8 503.7 88.55 L503.25 90.1 502.8 91.55 496.8 91.55 M627.0 96.8 L629.85 97.1 Q629.65 97.4 629.2 99.35 L626.15 99.6 624.45 99.3 623.6 98.75 624.3 97.05 627.0 96.8 M592.3 94.65 L593.0 94.5 598.15 94.9 Q597.7 95.6 594.75 95.6 L591.5 95.2 592.3 94.65 M605.45 93.85 L606.3 92.1 608.05 92.7 Q609.1 93.3 610.05 94.7 L608.6 95.75 607.75 96.15 Q606.0 95.45 605.45 93.85 M568.7 89.8 Q569.1 89.55 570.4 89.25 571.35 89.95 573.15 92.15 575.0 94.4 575.0 95.0 575.0 96.75 574.4 97.0 L572.7 97.3 Q568.1 95.15 568.1 92.0 568.1 90.15 568.7 89.8 M573.85 91.55 Q574.35 90.1 576.15 89.25 577.2 89.65 578.55 90.95 579.95 92.3 580.6 93.55 L579.1 94.6 578.3 95.0 576.4 93.7 573.85 91.55 M651.9 103.35 Q651.9 101.5 652.5 101.1 L654.2 100.6 Q656.85 102.5 659.0 103.5 659.8 104.05 659.8 106.5 659.8 108.4 659.2 108.95 L657.5 109.65 Q654.95 109.3 653.25 106.8 651.9 104.85 651.9 103.35" fill="#000000" fill-opacity="0.72156864" fill-rule="evenodd" stroke="none"/>
  </g>
</svg>
