<?xml version="1.0" encoding="UTF-8" standalone="no"?>
<svg xmlns:xlink="http://www.w3.org/1999/xlink" height="126.85px" width="258.05px" xmlns="http://www.w3.org/2000/svg">
  <g transform="matrix(1.0, 0.0, 0.0, 1.0, -401.75, -23.05)">
    <path d="M412.65 135.3 L412.8 135.5 Q416.4 134.15 418.25 134.15 420.25 134.1 422.15 135.6 L421.65 137.85 Q420.65 139.75 417.85 139.75 416.45 139.75 414.5 138.45 412.5 137.15 412.5 136.1 412.5 135.25 412.65 135.3 M469.4 126.5 Q471.7 125.85 473.3 126.55 L474.75 127.7 Q474.35 128.45 471.9 128.45 469.55 128.45 469.15 127.7 469.15 126.9 469.4 126.5 M482.95 93.35 L485.5 93.5 Q485.15 93.75 485.3 94.1 L485.5 94.35 484.2 95.1 482.1 95.6 Q480.1 95.6 479.85 94.7 L480.25 93.9 Q481.1 93.45 482.95 93.35 M474.5 96.15 L471.35 96.15 469.7 95.1 469.25 94.6 Q471.15 92.9 472.95 92.9 474.75 92.9 474.75 94.6 L474.5 96.15 M450.45 71.7 Q450.45 70.9 450.6 70.7 L450.7 70.4 Q453.6 69.7 455.05 70.7 456.05 71.4 456.05 72.5 L454.4 74.1 Q451.85 73.95 450.95 73.1 450.45 72.65 450.45 71.7 M440.4 72.05 L440.55 72.1 Q446.45 71.5 446.45 73.9 L446.1 74.1 444.15 75.25 Q442.05 75.45 440.95 74.4 440.25 73.7 440.25 73.0 440.25 72.15 440.4 72.05 M444.95 57.2 Q444.95 56.45 444.55 56.45 446.3 55.8 447.4 56.1 448.5 56.35 449.35 57.75 L449.35 60.25 447.0 60.55 Q445.1 60.55 444.65 59.95 L443.85 57.85 444.4 57.85 Q444.95 58.0 444.95 57.2 M408.0 25.75 L407.95 26.65 407.65 26.85 405.95 27.05 Q404.6 27.05 403.2 25.8 L401.75 24.3 402.6 23.15 Q405.65 22.75 407.1 24.05 408.0 24.85 408.0 25.75 M593.55 101.4 L600.35 100.95 602.1 100.95 602.1 102.3 600.5 102.75 598.1 102.95 Q594.4 102.95 594.0 102.35 594.15 101.6 593.55 101.4 M626.75 135.5 Q626.45 135.25 626.45 134.1 L627.3 133.2 628.15 132.3 Q628.15 131.9 629.2 131.2 L628.05 130.45 627.1 129.7 Q631.0 128.5 632.7 129.6 633.8 130.3 633.8 131.7 630.85 135.85 628.95 135.85 L626.75 135.5 M618.45 101.2 Q617.8 100.45 616.95 100.3 619.6 97.5 622.5 100.7 621.7 101.85 620.15 101.85 619.05 101.85 618.45 101.2 M638.85 108.9 L638.85 109.75 636.4 110.65 634.7 111.2 Q636.05 111.9 635.25 112.55 634.55 113.15 633.25 113.15 632.2 113.15 631.05 112.35 L629.4 111.1 Q630.75 110.35 634.35 109.6 L638.85 108.9 M515.9 142.05 Q514.9 141.4 514.9 140.3 514.9 139.45 515.1 139.3 L515.25 139.2 521.7 139.6 521.7 140.9 Q520.25 142.55 518.1 142.55 L515.9 142.05 M499.25 147.15 L499.4 147.1 Q502.9 146.95 505.9 148.6 L505.2 149.2 504.75 149.65 502.2 149.9 499.8 149.5 Q499.1 149.1 499.1 148.0 499.1 147.15 499.25 147.15 M505.7 106.45 L505.45 106.7 501.9 106.9 Q497.4 106.9 497.4 105.25 497.4 104.4 497.6 104.25 L497.75 104.05 504.5 103.65 Q505.9 104.0 505.9 105.6 505.9 106.4 505.7 106.45 M555.7 114.25 Q555.7 112.5 556.35 112.25 L558.0 111.95 Q559.0 112.6 560.05 114.05 561.4 115.9 561.3 117.4 L559.85 118.35 559.0 118.7 556.9 116.25 Q555.7 114.65 555.7 114.25 M564.75 108.6 Q565.6 108.0 565.6 107.5 569.3 107.7 571.55 108.45 570.75 109.4 570.3 110.85 L567.85 110.85 Q566.35 110.85 565.85 110.1 L564.75 108.6 M548.45 92.1 Q549.2 91.25 549.2 90.5 L553.95 90.8 553.95 91.6 552.6 92.4 550.6 92.8 Q548.7 92.8 548.45 92.1 M544.4 88.55 L546.05 88.55 545.8 90.2 542.35 91.05 Q539.3 91.05 539.3 89.35 539.3 88.55 539.45 88.4 L539.55 88.25 544.4 88.55 M532.65 96.4 L531.95 95.35 Q533.25 94.0 535.95 93.95 L539.3 94.35 Q538.4 95.25 538.1 96.65 L535.0 96.8 532.65 96.4 M516.05 93.85 Q513.95 93.15 513.0 92.35 512.15 91.65 511.6 90.4 512.1 88.95 513.75 88.25 L516.15 89.7 518.35 92.4 516.9 93.45 516.05 93.85 M503.7 88.55 L503.25 90.1 502.8 91.55 496.8 91.55 Q495.2 90.9 494.6 89.25 L495.35 87.65 Q499.55 87.25 501.45 87.55 502.95 87.8 503.7 88.55 M637.25 98.05 L639.95 98.85 Q639.4 100.25 639.5 100.85 L636.9 100.7 Q635.45 100.7 634.75 100.1 L633.35 98.55 Q635.1 97.5 637.25 98.05 M623.6 98.75 L624.3 97.05 627.0 96.8 629.85 97.1 Q629.65 97.4 629.2 99.35 L626.15 99.6 624.45 99.3 623.6 98.75 M594.75 95.6 L591.5 95.2 592.3 94.65 593.0 94.5 598.15 94.9 Q597.7 95.6 594.75 95.6 M605.45 93.85 L606.3 92.1 608.05 92.7 Q609.1 93.3 610.05 94.7 L608.6 95.75 607.75 96.15 Q606.0 95.45 605.45 93.85 M568.1 92.0 Q568.1 90.15 568.7 89.8 569.1 89.55 570.4 89.25 571.35 89.95 573.15 92.15 575.0 94.4 575.0 95.0 575.0 96.75 574.4 97.0 L572.7 97.3 Q568.1 95.15 568.1 92.0 M573.85 91.55 Q574.35 90.1 576.15 89.25 577.2 89.65 578.55 90.95 579.95 92.3 580.6 93.55 L579.1 94.6 578.3 95.0 576.4 93.7 573.85 91.55 M649.95 114.35 L649.65 114.15 649.85 112.85 655.3 112.45 655.05 114.85 651.3 114.85 649.95 114.35 M659.0 103.5 Q659.8 104.05 659.8 106.5 659.8 108.4 659.2 108.95 L657.5 109.65 Q654.95 109.3 653.25 106.8 651.9 104.85 651.9 103.35 651.9 101.5 652.5 101.1 L654.2 100.6 Q656.85 102.5 659.0 103.5" fill="#000000" fill-opacity="0.72156864" fill-rule="evenodd" stroke="none"/>
  </g>
</svg>
