<?xml version="1.0" encoding="UTF-8" standalone="no"?>
<svg xmlns:xlink="http://www.w3.org/1999/xlink" height="157.3px" width="279.45px" xmlns="http://www.w3.org/2000/svg">
  <g transform="matrix(1.0, 0.0, 0.0, 1.0, -380.35, -13.5)">
    <path d="M454.15 169.05 L452.2 167.6 Q453.15 166.15 456.65 167.6 460.05 169.0 460.05 169.95 460.05 170.8 459.75 170.8 L458.35 170.8 Q456.25 170.3 454.15 169.05 M456.6 153.3 Q456.35 153.6 456.4 153.95 L456.6 154.6 455.4 155.5 Q454.05 156.2 452.35 156.2 450.55 156.2 449.95 155.8 L449.35 154.75 Q450.8 153.15 453.05 152.85 454.9 152.65 456.6 153.3 M440.4 150.15 L440.55 149.9 Q445.1 149.8 447.0 151.45 L445.65 152.0 444.15 152.35 445.25 153.15 Q444.9 153.9 443.35 153.9 442.35 153.9 441.35 153.15 440.25 152.35 440.25 151.25 440.25 150.4 440.4 150.15 M435.5 129.6 Q437.9 129.9 437.9 131.2 437.9 132.6 437.7 132.1 L433.1 132.95 Q431.0 132.95 430.2 132.55 429.55 132.15 429.55 131.2 429.55 130.4 429.2 130.35 L428.5 130.25 Q433.0 129.35 435.5 129.6 M418.25 134.15 Q420.25 134.1 422.15 135.6 L421.65 137.85 Q420.65 139.75 417.85 139.75 416.45 139.75 414.5 138.45 412.5 137.15 412.5 136.1 412.5 135.25 412.65 135.3 L412.8 135.5 Q416.4 134.15 418.25 134.15 M408.0 113.7 Q408.0 111.7 410.3 111.1 412.7 110.45 414.2 113.05 L414.2 113.3 412.7 114.65 Q411.3 115.95 410.3 115.95 L408.85 115.7 Q408.25 115.4 408.15 115.4 L408.0 113.7 M440.45 119.9 Q438.85 119.9 438.15 119.5 437.35 119.05 437.35 118.0 437.35 117.2 437.55 117.15 L437.7 117.15 442.8 117.6 444.15 118.65 442.75 119.45 440.45 119.9 M478.5 136.4 L484.1 136.85 485.5 138.05 484.5 138.75 482.65 139.15 480.65 138.85 Q478.8 138.35 477.6 137.5 L478.5 136.4 M473.3 126.55 L474.75 127.7 Q474.35 128.45 471.9 128.45 469.55 128.45 469.15 127.7 469.15 126.9 469.4 126.5 471.7 125.85 473.3 126.55 M453.8 147.8 Q457.15 146.85 459.8 147.25 462.3 147.55 462.3 148.75 L462.15 149.75 462.0 149.9 459.45 149.9 Q456.65 149.65 455.2 148.9 L453.8 147.8 M465.15 140.3 L465.15 137.75 Q467.5 136.95 470.1 138.15 472.5 139.35 472.5 140.8 L472.45 141.9 472.2 142.3 469.95 142.55 Q468.1 142.55 467.1 141.85 466.1 140.85 465.15 140.3 M456.85 106.4 Q460.05 106.9 460.05 108.8 460.05 110.2 459.8 109.45 L455.8 109.75 451.4 109.3 451.0 107.45 Q453.65 105.95 456.85 106.4 M403.45 129.05 L403.45 128.25 Q403.45 127.45 403.6 127.25 L403.75 127.05 Q406.9 126.1 408.55 127.1 L411.95 129.35 Q411.65 129.85 410.3 130.1 L403.6 129.1 403.45 129.05 M382.95 146.75 L383.65 146.5 Q384.85 146.3 385.7 147.05 386.9 148.05 392.7 148.05 394.55 148.05 400.55 146.0 406.0 144.15 410.3 144.7 410.3 148.2 405.65 148.2 L397.95 148.8 389.6 149.35 384.65 148.9 Q383.35 148.5 382.1 147.25 382.2 147.0 382.95 146.75 M389.85 92.05 Q389.45 92.7 387.25 92.7 L384.15 92.05 380.35 91.2 Q380.45 91.0 381.2 90.65 L381.95 90.2 Q385.45 89.7 386.95 90.3 L389.85 92.05 M391.9 13.8 Q393.25 14.35 393.25 16.0 393.25 16.7 392.7 17.45 391.7 18.7 389.6 18.7 L387.9 18.55 387.05 18.35 387.05 17.05 Q387.2 16.8 388.0 16.5 L388.75 16.25 386.65 14.3 Q386.8 13.5 389.3 13.5 L391.9 13.8 M482.1 95.6 Q480.1 95.6 479.85 94.7 L480.25 93.9 Q481.1 93.45 482.95 93.35 L485.5 93.5 Q485.15 93.75 485.3 94.1 L485.5 94.35 484.2 95.1 482.1 95.6 M474.75 94.6 L474.5 96.15 471.35 96.15 469.7 95.1 469.25 94.6 Q471.15 92.9 472.95 92.9 474.75 92.9 474.75 94.6 M450.45 71.7 Q450.45 70.9 450.6 70.7 L450.7 70.4 Q453.6 69.7 455.05 70.7 456.05 71.4 456.05 72.5 L454.4 74.1 Q451.85 73.95 450.95 73.1 450.45 72.65 450.45 71.7 M433.15 90.05 L433.7 90.65 Q434.65 90.65 435.15 90.2 L433.15 90.05 M427.45 89.65 L433.1 88.6 438.55 89.2 438.55 90.5 436.25 91.65 431.45 92.15 427.9 91.75 Q427.2 91.45 427.2 90.45 427.2 89.6 427.35 89.55 L427.45 89.65 M420.65 93.25 Q417.15 93.25 415.9 88.8 419.35 87.1 420.75 87.95 422.85 89.25 423.8 89.2 422.55 90.05 422.6 91.1 L422.7 93.05 420.65 93.25 M440.25 73.0 Q440.25 72.15 440.4 72.05 L440.55 72.1 Q446.45 71.5 446.45 73.9 L446.1 74.1 444.15 75.25 Q442.05 75.45 440.95 74.4 440.25 73.7 440.25 73.0 M444.4 57.85 Q444.95 58.0 444.95 57.2 444.95 56.45 444.55 56.45 446.3 55.8 447.4 56.1 448.5 56.35 449.35 57.75 L449.35 60.25 447.0 60.55 Q445.1 60.55 444.65 59.95 L443.85 57.85 444.4 57.85 M407.1 24.05 Q408.0 24.85 408.0 25.75 L407.95 26.65 407.65 26.85 405.95 27.05 Q404.6 27.05 403.2 25.8 L401.75 24.3 402.6 23.15 Q405.65 22.75 407.1 24.05 M577.35 106.95 L577.5 106.9 Q580.7 106.05 586.3 108.6 L585.95 109.0 Q584.55 110.05 583.9 111.5 L581.1 111.95 Q577.2 111.95 577.2 107.8 577.2 106.95 577.35 106.95 M600.35 100.95 L602.1 100.95 602.1 102.3 600.5 102.75 598.1 102.95 Q594.4 102.95 594.0 102.35 594.15 101.6 593.55 101.4 L600.35 100.95 M626.45 134.1 L627.3 133.2 628.15 132.3 Q628.15 131.9 629.2 131.2 L628.05 130.45 627.1 129.7 Q631.0 128.5 632.7 129.6 633.8 130.3 633.8 131.7 630.85 135.85 628.95 135.85 L626.75 135.5 Q626.45 135.25 626.45 134.1 M620.15 101.85 Q619.05 101.85 618.45 101.2 617.8 100.45 616.95 100.3 619.6 97.5 622.5 100.7 621.7 101.85 620.15 101.85 M638.85 108.9 L638.85 109.75 636.4 110.65 634.7 111.2 Q636.05 111.9 635.25 112.55 634.55 113.15 633.25 113.15 632.2 113.15 631.05 112.35 L629.4 111.1 Q630.75 110.35 634.35 109.6 L638.85 108.9 M515.25 139.2 L521.7 139.6 521.7 140.9 Q520.25 142.55 518.1 142.55 L515.9 142.05 Q514.9 141.4 514.9 140.3 514.9 139.45 515.1 139.3 L515.25 139.2 M499.1 148.0 Q499.1 147.15 499.25 147.15 L499.4 147.1 Q502.9 146.95 505.9 148.6 L505.2 149.2 504.75 149.65 502.2 149.9 499.8 149.5 Q499.1 149.1 499.1 148.0 M491.05 137.35 L490.9 137.75 488.65 138.05 486.8 137.9 486.65 137.6 486.65 136.8 485.65 135.35 Q487.85 134.45 489.45 134.65 491.15 134.85 491.15 136.25 L491.05 137.35 M504.5 103.65 Q505.9 104.0 505.9 105.6 505.9 106.4 505.7 106.45 L505.45 106.7 501.9 106.9 Q497.4 106.9 497.4 105.25 497.4 104.4 497.6 104.25 L497.75 104.05 504.5 103.65 M562.7 128.65 Q562.4 127.05 562.1 126.8 566.55 125.7 568.25 126.35 569.2 126.75 569.85 127.7 569.25 128.55 569.25 129.85 L566.4 130.1 Q563.45 130.1 562.7 128.65 M555.7 114.25 Q555.7 112.5 556.35 112.25 L558.0 111.95 Q559.0 112.6 560.05 114.05 561.4 115.9 561.3 117.4 L559.85 118.35 559.0 118.7 556.9 116.25 Q555.7 114.65 555.7 114.25 M565.85 110.1 L564.75 108.6 Q565.6 108.0 565.6 107.5 569.3 107.7 571.55 108.45 570.75 109.4 570.3 110.85 L567.85 110.85 Q566.35 110.85 565.85 110.1 M553.95 95.5 L556.25 95.45 555.35 95.5 Q554.7 95.45 554.7 96.3 554.7 97.05 555.15 97.25 L555.4 97.55 553.7 97.9 Q552.7 97.9 552.1 97.3 L551.15 96.15 Q552.05 95.7 553.95 95.5 M553.95 91.6 L552.6 92.4 550.6 92.8 Q548.7 92.8 548.45 92.1 549.2 91.25 549.2 90.5 L553.95 90.8 553.95 91.6 M536.45 90.25 Q536.45 89.4 536.6 89.4 L536.7 89.35 539.3 89.4 539.3 89.35 Q539.3 88.55 539.45 88.4 L539.55 88.25 544.4 88.55 546.05 88.55 545.8 90.2 544.35 90.7 543.9 91.65 Q543.65 92.15 540.35 92.15 L537.15 91.75 Q536.45 91.4 536.45 90.25 M535.0 96.8 L532.65 96.4 531.95 95.35 Q533.25 94.0 535.95 93.95 L539.3 94.35 Q538.4 95.25 538.1 96.65 L535.0 96.8 M524.15 94.15 L524.25 92.45 528.55 92.6 Q528.55 94.3 528.25 94.7 L526.55 95.0 525.05 94.75 524.15 94.15 M523.95 98.85 Q524.4 98.7 524.4 97.9 524.4 96.3 527.05 97.1 528.8 97.65 530.8 98.85 529.5 99.35 528.85 100.25 L526.25 100.7 Q524.45 100.7 523.7 100.15 523.1 99.7 523.35 99.1 L523.95 98.85 M516.05 93.85 Q513.95 93.15 513.0 92.35 512.15 91.65 511.6 90.4 512.1 88.95 513.75 88.25 L516.15 89.7 518.35 92.4 516.9 93.45 516.05 93.85 M496.8 91.55 Q495.2 90.9 494.6 89.25 L495.35 87.65 Q499.55 87.25 501.45 87.55 502.95 87.8 503.7 88.55 L503.25 90.1 502.8 91.55 496.8 91.55 M633.35 98.55 Q635.1 97.5 637.25 98.05 L639.95 98.85 Q639.4 100.25 639.5 100.85 L636.9 100.7 Q635.45 100.7 634.75 100.1 L633.35 98.55 M627.0 96.8 L629.85 97.1 Q629.65 97.4 629.2 99.35 L626.15 99.6 624.45 99.3 623.6 98.75 624.3 97.05 627.0 96.8 M594.75 95.6 L591.5 95.2 592.3 94.65 593.0 94.5 598.15 94.9 Q597.7 95.6 594.75 95.6 M605.45 93.85 L606.3 92.1 608.05 92.7 Q609.1 93.3 610.05 94.7 L608.6 95.75 607.75 96.15 Q606.0 95.45 605.45 93.85 M568.7 89.8 Q569.1 89.55 570.4 89.25 571.35 89.95 573.15 92.15 575.0 94.4 575.0 95.0 575.0 96.75 574.4 97.0 L572.7 97.3 Q568.1 95.15 568.1 92.0 568.1 90.15 568.7 89.8 M573.85 91.55 Q574.35 90.1 576.15 89.25 577.2 89.65 578.55 90.95 579.9 92.25 580.55 93.45 580.6 90.55 583.85 91.0 587.1 91.45 588.5 93.9 L587.45 95.35 Q586.35 96.15 583.95 96.15 582.25 96.15 581.3 95.3 580.55 94.55 580.55 93.6 L579.1 94.6 578.3 95.0 576.4 93.7 573.85 91.55 M651.5 123.8 L653.05 124.85 Q652.55 125.6 650.15 125.6 L647.9 125.15 646.25 124.4 Q647.1 123.85 647.1 123.3 L651.5 123.8 M651.3 114.85 L649.95 114.35 649.65 114.15 649.85 112.85 655.3 112.45 655.05 114.85 651.3 114.85 M659.8 106.5 Q659.8 108.4 659.2 108.95 L657.5 109.65 Q654.95 109.3 653.25 106.8 651.9 104.85 651.9 103.35 651.9 101.5 652.5 101.1 L654.2 100.6 Q656.85 102.5 659.0 103.5 659.8 104.05 659.8 106.5" fill="#000000" fill-opacity="0.72156864" fill-rule="evenodd" stroke="none"/>
  </g>
</svg>
