<?xml version="1.0" encoding="UTF-8" standalone="no"?>
<svg xmlns:xlink="http://www.w3.org/1999/xlink" height="30.9px" width="41.9px" xmlns="http://www.w3.org/2000/svg">
  <g transform="matrix(1.0, 0.0, 0.0, 1.0, -121.15, 431.25)">
    <path d="M121.15 -409.5 Q121.2 -409.9 122.0 -411.45 L122.85 -413.0 124.75 -414.65 Q125.65 -415.35 125.85 -415.9 L124.2 -417.0 Q123.4 -417.5 123.4 -417.85 123.4 -419.85 124.9 -420.2 L127.75 -420.2 127.7 -420.35 127.4 -422.25 127.05 -422.85 127.1 -423.65 Q127.15 -424.95 127.35 -425.65 L127.75 -428.35 127.9 -431.2 127.9 -431.25 Q128.6 -429.55 129.15 -426.9 L130.05 -423.1 130.25 -422.65 Q131.65 -419.25 135.85 -418.25 L140.45 -417.0 Q143.3 -416.25 145.7 -416.15 L153.85 -415.7 Q160.65 -415.15 163.05 -414.0 L162.65 -413.85 162.65 -413.6 158.75 -413.1 150.6 -412.25 146.6 -412.35 Q145.0 -412.35 144.55 -411.25 L141.6 -410.5 138.9 -409.9 139.1 -409.9 141.75 -408.75 Q143.55 -408.0 144.55 -406.65 L143.2 -406.65 Q140.35 -408.3 134.7 -408.15 L131.6 -408.15 131.85 -407.95 Q133.35 -406.45 134.0 -406.25 L134.0 -406.05 132.3 -406.05 130.25 -407.05 130.05 -407.05 132.25 -403.95 Q133.55 -402.0 134.1 -400.35 L130.5 -403.2 127.55 -406.05 Q127.3 -406.35 126.6 -408.5 L121.15 -409.5 M127.65 -419.2 L126.85 -419.05 Q125.75 -418.75 125.5 -418.05 126.25 -418.4 127.45 -417.35 128.65 -416.35 128.9 -415.35 128.05 -415.1 126.25 -413.8 124.35 -412.4 123.4 -411.25 L123.4 -410.3 124.3 -410.2 125.1 -410.1 Q125.75 -410.1 126.7 -410.9 L127.55 -411.7 130.0 -410.9 132.45 -410.1 136.75 -410.9 141.3 -411.7 141.3 -412.45 Q135.05 -414.2 134.0 -414.2 L134.0 -414.35 134.9 -414.3 Q135.7 -414.4 136.25 -415.15 133.85 -416.75 131.55 -417.6 L127.65 -419.2" fill="#ffffff" fill-opacity="0.6431373" fill-rule="evenodd" stroke="none"/>
    <path d="M127.65 -419.2 L131.55 -417.6 Q133.85 -416.75 136.25 -415.15 135.7 -414.4 134.9 -414.3 L134.0 -414.35 134.0 -414.2 Q135.05 -414.2 141.3 -412.45 L141.3 -411.7 136.75 -410.9 132.45 -410.1 130.0 -410.9 127.55 -411.7 126.7 -410.9 Q125.75 -410.1 125.1 -410.1 L124.3 -410.2 123.4 -410.3 123.4 -411.25 Q124.35 -412.4 126.25 -413.8 128.05 -415.1 128.9 -415.35 128.65 -416.35 127.45 -417.35 126.25 -418.4 125.5 -418.05 125.75 -418.75 126.85 -419.05 L127.65 -419.2" fill="#cc6600" fill-opacity="0.7529412" fill-rule="evenodd" stroke="none"/>
  </g>
</svg>
