<?xml version="1.0" encoding="UTF-8" standalone="no"?>
<svg xmlns:xlink="http://www.w3.org/1999/xlink" height="116.0px" width="116.0px" xmlns="http://www.w3.org/2000/svg">
  <g transform="matrix(1.0, 0.0, 0.0, 1.0, 58.0, 58.0)">
    <path d="M35.95 7.8 L36.3 6.0 Q37.35 -0.6 36.3 -6.75 35.3 -12.8 32.1 -18.45 L13.15 -2.35 35.95 7.8 M34.1 13.95 L34.95 11.6 12.65 7.3 24.8 27.4 Q31.05 21.6 34.1 13.95 M29.4 -22.65 Q27.35 -25.45 24.9 -27.8 18.7 -33.75 10.2 -36.25 L7.9 -11.05 29.4 -22.65 M57.1 9.55 Q53.15 33.2 33.65 47.15 14.05 61.1 -9.55 57.1 -33.25 53.15 -47.2 33.65 -61.1 14.1 -57.1 -9.55 -53.15 -33.2 -33.6 -47.15 -14.05 -61.1 9.55 -57.1 33.25 -53.2 47.15 -33.6 61.1 -14.1 57.1 9.55 M-3.9 -37.85 Q-11.0 -37.4 -17.45 -34.15 L-2.2 -16.25 5.15 -37.4 -3.9 -37.85 M-4.15 -9.2 L-6.0 -8.2 Q-9.05 -6.0 -9.65 -2.3 -10.3 1.4 -8.1 4.45 -6.2 7.05 -3.15 7.9 L-2.2 8.1 Q1.45 8.75 4.5 6.55 7.55 4.35 8.15 0.7 8.8 -3.1 6.6 -6.1 4.45 -9.15 0.7 -9.75 -1.85 -10.15 -4.15 -9.2 M12.6 35.05 Q16.35 33.55 19.9 31.2 L2.3 13.3 -5.05 37.2 Q4.3 38.3 12.6 35.05 M-31.55 21.6 L-30.45 23.05 Q-22.7 33.05 -10.65 36.15 L-10.35 36.2 -7.3 11.6 -31.55 21.6 M-36.15 -13.7 L-37.1 -10.85 -38.05 -6.5 Q-39.75 3.95 -36.15 13.15 L-34.25 17.35 -13.65 -0.85 -36.15 -13.7 M-20.5 -32.45 L-22.8 -30.9 -23.9 -30.05 Q-30.4 -25.15 -34.05 -18.35 L-12.9 -13.3 -20.5 -32.45" fill="#2b2b2b" fill-rule="evenodd" stroke="none"/>
    <path d="M-4.15 -9.2 Q-1.85 -10.15 0.7 -9.75 4.45 -9.15 6.6 -6.1 8.8 -3.1 8.15 0.7 7.55 4.35 4.5 6.55 1.45 8.75 -2.2 8.1 L-3.15 7.9 Q-6.2 7.05 -8.1 4.45 -10.3 1.4 -9.65 -2.3 -9.05 -6.0 -6.0 -8.2 L-4.15 -9.2" fill="#666666" fill-rule="evenodd" stroke="none"/>
  </g>
</svg>
