<?xml version="1.0" encoding="UTF-8" standalone="no"?>
<svg xmlns:xlink="http://www.w3.org/1999/xlink" height="467.75px" width="102.9px" xmlns="http://www.w3.org/2000/svg">
  <g transform="matrix(1.0, 0.0, 0.0, 1.0, 6.9, 0.0)">
    <path d="M83.1 17.25 L85.0 19.7 86.8 22.35 88.45 25.15 90.0 28.05 91.4 31.1 Q98.1 108.7 95.05 187.15 92.05 265.2 89.3 343.3 87.0 409.0 55.9 467.75 L-1.45 460.45 -6.9 423.25 -5.7 429.3 Q-7.85 379.1 -1.75 329.65 4.4 279.75 2.55 228.8 -1.15 125.3 3.0 21.7 L53.35 0.0 Q63.1 1.95 71.45 7.25 74.05 8.8 76.5 10.7 L78.85 12.7 81.05 14.9 83.1 17.25 M36.75 296.6 Q34.7 291.45 33.1 288.2 L32.75 288.35 30.5 309.5 28.4 325.75 30.15 325.85 Q31.4 326.0 31.95 326.55 33.95 320.7 36.6 318.3 38.6 316.55 41.8 316.15 L47.2 315.4 Q50.35 314.5 52.65 311.45 44.0 311.4 40.05 304.2 38.9 302.15 36.75 296.6" fill="#000000" fill-rule="evenodd" stroke="none"/>
    <path d="M36.75 296.6 Q38.9 302.15 40.05 304.2 44.0 311.4 52.65 311.45 50.35 314.5 47.2 315.4 L41.8 316.15 Q38.6 316.55 36.6 318.3 33.95 320.7 31.95 326.55 31.4 326.0 30.15 325.85 L28.4 325.75 30.5 309.5 32.75 288.35 33.1 288.2 Q34.7 291.45 36.75 296.6" fill="#1a1a1a" fill-rule="evenodd" stroke="none"/>
  </g>
</svg>
