<?xml version="1.0" encoding="UTF-8" standalone="no"?>
<svg xmlns:xlink="http://www.w3.org/1999/xlink" height="60.15px" width="15.95px" xmlns="http://www.w3.org/2000/svg">
  <g transform="matrix(1.0, 0.0, 0.0, 1.0, 0.0, 0.0)">
    <path d="M9.3 0.1 L10.4 0.4 10.4 0.45 10.4 0.5 Q9.75 0.4 9.3 0.1" fill="#43522e" fill-rule="evenodd" stroke="none"/>
    <path d="M9.3 0.1 Q9.75 0.4 10.4 0.5 L10.4 0.45 Q11.9 1.9 11.35 4.65 L11.35 4.75 11.25 4.75 Q11.0 4.85 10.65 5.7 11.25 9.35 10.9 11.85 L10.9 11.95 11.3 14.25 11.3 14.5 11.65 15.75 Q11.8 16.3 11.6 16.15 11.4 16.1 11.45 17.25 L11.7 18.2 Q11.65 18.65 11.2 17.8 L11.15 17.8 11.65 19.6 Q12.25 19.65 11.9 20.05 L11.85 20.1 12.85 21.9 12.65 21.8 Q12.4 21.85 13.1 22.65 L13.05 22.65 Q12.75 22.85 13.2 23.55 L13.25 23.6 14.8 25.2 14.85 25.25 Q14.9 26.0 15.3 26.9 L15.3 26.95 Q15.6 30.95 15.45 37.6 15.4 38.8 15.7 39.2 L13.85 39.25 13.85 39.2 14.75 39.2 14.6 39.0 Q14.2 38.45 14.6 37.45 L14.55 37.4 14.35 36.4 14.35 36.3 14.5 34.95 14.55 34.95 Q14.2 34.1 14.35 32.55 L14.35 32.5 Q13.95 32.3 13.9 31.5 13.7 31.65 13.65 29.85 L13.45 29.85 Q13.5 29.35 12.95 29.35 L12.95 29.4 Q12.15 30.1 12.8 28.7 L12.85 28.7 12.85 28.65 Q12.45 27.75 11.8 28.1 L11.3 28.0 Q10.9 27.05 10.9 28.0 L10.95 28.05 Q11.25 28.45 10.55 30.2 L10.5 26.55 9.65 26.5 Q10.2 27.3 9.7 27.4 L9.7 27.45 9.8 27.9 Q9.9 28.9 9.15 28.35 L8.5 26.45 8.5 26.4 8.1 26.4 Q7.35 26.45 8.0 27.3 L7.75 27.8 Q7.45 28.35 7.3 27.9 7.0 27.15 6.7 27.8 7.2 28.55 6.8 29.1 L6.8 29.2 6.5 29.65 6.45 29.8 Q5.85 30.1 6.7 30.4 6.7 30.9 6.5 30.65 6.35 30.45 6.35 30.65 6.35 31.4 5.95 31.6 L6.0 33.15 5.95 33.15 5.95 33.05 Q5.4 30.5 5.5 27.9 L5.45 27.9 4.65 28.95 4.65 29.0 Q3.9 29.05 3.95 30.65 L3.9 30.65 Q3.25 31.25 3.8 31.4 L3.65 31.55 Q3.9 33.1 2.85 33.05 L2.7 33.1 Q2.4 33.65 2.6 35.8 L2.55 35.85 Q2.2 36.1 2.35 34.85 L2.35 34.6 2.3 34.85 Q2.05 35.65 2.2 36.85 2.4 38.85 1.8 39.05 L1.8 39.15 1.8 39.2 1.05 39.3 0.9 39.3 0.7 37.5 0.8 32.7 Q0.8 30.6 1.45 28.85 1.1 28.4 1.4 28.0 1.1 27.5 1.75 27.05 L1.9 25.65 1.9 25.6 2.4 24.75 2.4 24.65 Q2.8 24.1 3.45 23.85 L3.45 23.8 3.8 23.05 3.9 23.0 Q4.95 20.95 4.85 18.9 L4.8 18.65 Q5.5 18.7 5.4 17.85 5.1 17.0 5.55 16.25 L5.6 16.25 Q5.4 14.95 5.5 14.4 L5.5 14.45 Q5.7 15.35 5.85 13.5 L5.85 10.65 6.05 9.8 6.1 9.8 Q6.25 8.25 5.9 7.7 L5.85 7.65 Q6.15 5.75 5.65 4.65 L5.6 4.65 5.6 4.55 5.4 3.2 Q5.3 1.15 6.7 0.4 L6.8 0.35 Q8.15 0.55 8.8 0.35 L8.75 0.2 9.2 0.15 9.2 0.1 9.3 0.1 M2.1 59.05 L2.1 58.95 1.95 57.4 Q1.9 57.05 2.1 56.9 2.65 56.4 1.9 55.7 3.15 56.25 3.5 56.8 L3.55 56.8 Q4.45 56.7 3.95 57.15 L5.55 57.5 5.25 57.6 Q5.75 58.75 5.3 58.05 L5.25 58.0 Q4.75 58.55 5.1 58.85 L4.9 58.8 3.75 58.65 3.55 58.8 3.35 58.9 Q2.5 59.05 4.15 59.25 L4.9 59.4 2.7 59.15 2.6 59.15 2.5 59.1 2.1 59.05 M1.05 58.55 L0.95 58.5 0.7 58.3 0.7 58.2 Q0.5 55.65 0.55 51.95 0.7 48.95 1.1 46.4 L1.2 46.5 1.25 46.55 Q2.65 46.75 2.0 48.3 L1.9 48.5 1.95 48.5 Q2.25 48.75 1.95 48.9 L1.95 48.95 Q2.25 49.95 1.8 50.45 L1.85 50.55 2.0 51.25 1.95 51.3 Q1.4 52.2 1.65 53.25 L1.6 53.3 Q1.05 52.75 1.45 54.2 0.9 54.4 0.9 56.05 L1.05 58.45 1.05 58.55 M10.3 3.25 L10.4 3.5 Q11.05 4.25 10.85 3.8 10.65 3.2 10.3 3.25 M10.4 4.2 L10.4 4.3 Q10.85 4.85 10.4 4.2 M7.65 0.6 L7.65 0.65 Q8.35 1.15 7.65 0.6 M7.65 1.35 Q9.4 1.35 7.65 1.3 L7.65 1.35 M6.05 1.05 L6.05 1.1 Q6.65 1.2 6.05 1.05 M6.65 3.1 L6.65 3.15 Q7.15 3.5 6.65 3.1 M6.3 4.75 L6.3 4.8 Q6.85 4.2 6.3 4.75 M9.9 3.35 L9.9 3.4 Q10.4 3.95 9.9 3.35 M9.7 5.45 Q10.25 5.35 9.7 5.4 L9.7 5.45 M6.95 16.75 L6.95 16.7 5.85 18.4 5.85 18.7 Q6.6 18.25 6.95 16.75 M6.9 17.6 L6.9 17.7 Q7.3 18.7 8.35 18.45 8.65 18.6 8.55 18.3 8.05 16.3 6.9 17.6 M9.65 16.65 L9.65 16.75 10.65 18.2 10.6 17.15 Q10.0 15.4 9.65 16.65 M8.7 17.25 L8.6 17.25 8.5 17.25 Q8.6 18.5 9.0 18.2 L9.05 18.1 9.1 18.1 Q9.4 17.65 8.7 17.25 M10.15 19.05 Q10.65 18.9 9.8 19.0 L9.8 19.05 9.7 19.05 8.15 19.05 8.15 19.15 8.1 19.15 7.8 19.25 7.8 19.35 7.75 19.35 8.05 20.8 8.1 20.85 10.15 20.95 10.25 20.95 11.0 21.1 11.0 21.05 11.3 21.05 Q12.05 19.5 10.15 19.1 L10.15 19.05 M9.55 24.4 Q9.75 23.2 8.95 24.1 L9.0 24.35 Q9.4 25.15 9.55 24.4 M12.1 24.2 L12.15 24.2 12.1 24.15 11.7 24.3 11.8 24.35 11.85 24.4 12.1 24.25 12.1 24.2 M11.0 25.15 L11.6 24.8 11.6 24.7 11.0 25.05 11.0 25.15 M12.65 25.75 L12.65 25.8 Q13.35 25.8 12.65 25.75 M11.1 27.05 L11.1 27.15 Q11.45 27.8 11.1 27.05 M11.4 34.55 Q11.8 35.4 10.9 36.0 L10.95 35.7 10.9 34.75 Q11.0 33.75 11.4 34.55 M8.6 25.75 L8.6 25.8 Q9.55 26.55 8.6 25.75 M8.25 25.05 L8.3 25.15 Q8.9 25.5 8.25 25.05 M9.3 27.65 L9.3 27.7 9.65 27.85 9.3 27.65 M8.1 26.25 L8.1 26.3 Q8.75 26.15 8.1 26.25 M1.95 48.25 L1.95 48.15 Q2.1 47.15 1.75 48.05 L1.95 48.25 M6.7 50.8 L6.15 50.35 6.1 50.3 6.05 46.95 6.05 46.85 Q6.55 47.05 6.75 47.6 L6.9 48.6 6.75 50.8 6.7 50.8 M10.9 38.5 L10.85 37.25 10.85 37.15 Q11.7 37.7 10.9 38.5 M10.55 47.05 L10.6 47.0 Q11.3 47.45 11.1 49.55 L10.75 51.4 10.55 47.05 M12.25 59.35 L11.8 57.35 11.8 57.25 Q12.6 56.65 13.75 56.5 L13.75 56.55 Q13.95 57.85 13.35 58.9 L13.3 58.95 Q14.2 59.2 13.85 59.35 L13.85 59.4 12.3 59.35 12.25 59.35 M10.4 58.6 Q10.85 59.35 10.05 58.65 L9.95 58.6 Q10.05 59.1 9.2 59.25 L9.05 59.25 8.7 59.3 Q7.15 59.35 7.4 58.35 8.55 57.5 9.3 57.55 L9.3 57.5 9.6 57.7 Q10.4 58.25 10.4 58.55 L10.4 58.6" fill="#8c8c8c" fill-rule="evenodd" stroke="none"/>
    <path d="M10.3 3.25 Q10.65 3.2 10.85 3.8 11.05 4.25 10.4 3.5 L10.3 3.25" fill="#33432b" fill-rule="evenodd" stroke="none"/>
    <path d="M10.4 4.2 Q10.85 4.85 10.4 4.3 L10.4 4.2" fill="#324127" fill-rule="evenodd" stroke="none"/>
    <path d="M11.35 4.75 Q11.35 13.35 13.05 19.75 L13.55 21.05 Q15.95 24.75 15.9 32.0 L15.9 32.45 15.9 32.55 15.95 32.6 15.95 56.65 15.9 56.65 15.95 56.75 15.95 56.9 15.9 56.9 15.9 57.15 15.9 57.25 15.85 57.25 15.85 57.7 15.55 58.6 15.55 58.55 15.7 46.45 15.65 46.45 12.45 46.7 6.05 46.8 5.35 46.8 5.25 46.8 4.55 46.8 4.55 46.75 3.8 46.7 1.2 46.5 1.1 46.4 Q0.7 48.95 0.55 51.95 0.5 55.65 0.7 58.2 L0.7 58.3 0.65 58.25 0.45 57.85 0.45 57.75 0.35 55.55 0.45 47.7 0.45 47.65 0.45 47.55 0.55 34.15 0.55 34.1 0.55 34.0 0.55 30.55 Q1.05 23.6 3.8 19.0 4.65 17.7 4.85 15.75 5.55 10.1 5.6 4.65 L5.65 4.65 Q6.15 5.75 5.85 7.65 L5.9 7.7 Q6.25 8.25 6.1 9.8 L6.05 9.8 5.85 10.65 5.85 13.5 Q5.7 15.35 5.5 14.45 L5.5 14.4 Q5.4 14.95 5.6 16.25 L5.55 16.25 Q5.1 17.0 5.4 17.85 5.5 18.7 4.8 18.65 L4.85 18.9 Q4.95 20.95 3.9 23.0 L3.8 23.05 3.45 23.8 3.45 23.85 Q2.8 24.1 2.4 24.65 L2.4 24.75 1.9 25.6 1.9 25.65 1.75 27.05 Q1.1 27.5 1.4 28.0 1.1 28.4 1.45 28.85 0.8 30.6 0.8 32.7 L0.7 37.5 0.9 39.3 1.05 39.3 1.8 39.2 4.75 39.2 4.8 39.2 5.6 39.2 5.7 39.2 Q6.2 39.2 6.05 38.3 L6.05 38.2 6.1 38.2 Q6.6 37.95 6.05 38.1 L6.0 38.1 5.95 33.15 6.0 33.15 5.95 31.6 Q6.35 31.4 6.35 30.65 6.35 30.45 6.5 30.65 6.7 30.9 6.7 30.4 5.85 30.1 6.45 29.8 L6.5 29.65 6.8 29.2 Q6.8 34.9 6.95 38.95 L6.95 39.05 6.9 39.05 6.1 38.9 Q6.35 39.4 7.2 39.2 L7.2 39.15 13.75 39.2 13.85 39.2 13.85 39.25 15.7 39.2 Q15.4 38.8 15.45 37.6 15.6 30.95 15.3 26.95 L15.3 26.9 Q14.9 26.0 14.85 25.25 L14.8 25.2 13.25 23.6 13.2 23.55 Q12.75 22.85 13.05 22.65 L13.1 22.65 Q12.4 21.85 12.65 21.8 L12.85 21.9 11.85 20.1 11.9 20.05 Q12.25 19.65 11.65 19.6 L11.15 17.8 11.2 17.8 Q11.65 18.65 11.7 18.2 L11.45 17.25 Q11.4 16.1 11.6 16.15 11.8 16.3 11.65 15.75 L11.3 14.5 11.3 14.25 10.9 11.95 10.9 11.85 Q11.25 9.35 10.65 5.7 11.0 4.85 11.25 4.75 L11.35 4.75 M13.0 21.8 Q13.55 22.35 12.95 21.7 L13.0 21.8 M6.25 43.2 L5.95 42.75 5.95 42.95 6.25 43.2 M5.15 40.6 Q5.15 41.6 5.55 41.15 L5.15 40.6 M9.05 43.2 L8.95 43.2 8.7 43.2 8.85 43.4 8.85 43.45 8.75 43.4 8.6 43.35 Q9.0 43.8 9.05 43.2 M9.3 42.8 Q10.0 43.0 9.3 42.75 L9.3 42.8 M9.95 41.05 L10.0 41.1 Q10.55 41.25 9.95 41.05 M1.05 41.75 Q2.45 41.75 1.05 41.7 L1.05 41.75 M1.3 41.2 L1.3 41.25 Q2.4 41.05 1.3 41.2 M1.3 40.6 L1.3 40.65 Q2.35 40.75 1.3 40.6 M4.6 40.65 Q5.2 40.8 4.55 40.6 L4.6 40.65 M4.05 40.65 Q4.85 40.9 4.05 40.6 L4.05 40.65 M2.85 41.3 L2.85 41.35 Q3.8 41.05 2.85 41.3 M2.85 40.6 L2.85 40.65 Q3.65 41.15 2.85 40.6 M2.95 41.65 L2.95 41.7 Q3.65 41.9 2.95 41.65 M4.05 42.35 Q4.8 42.2 4.05 42.3 L4.05 42.35 M3.95 41.85 Q4.7 41.8 3.95 41.8 L3.95 41.85 M3.05 43.45 L3.05 43.5 Q3.55 43.0 3.05 43.45 M3.55 43.35 L3.55 43.4 Q4.3 42.75 3.55 43.35 M2.95 43.8 L2.95 43.85 Q3.6 44.05 2.95 43.8 M3.45 45.4 L3.35 45.4 3.3 45.4 Q3.15 45.15 2.95 45.4 2.9 46.0 3.3 45.75 L3.35 45.75 3.45 45.8 3.45 45.75 3.55 45.75 Q4.2 45.55 3.45 45.4 M2.1 45.1 Q2.75 45.45 2.1 45.05 L2.1 45.1 M2.5 45.3 L2.5 45.35 Q3.1 45.55 2.5 45.3 M1.65 43.8 L1.65 43.85 Q2.2 44.5 1.65 43.8 M2.5 44.1 Q2.45 44.5 2.75 44.5 3.7 44.55 2.5 44.1 M10.05 43.8 L10.05 43.85 Q10.8 44.05 10.05 43.8 M9.35 45.75 L9.35 45.8 Q10.1 45.0 9.35 45.75 M9.95 45.5 L10.0 45.55 Q10.75 45.75 9.95 45.5 M6.65 43.35 L6.65 43.4 Q7.55 43.2 6.65 43.35 M5.3 44.05 L5.4 44.2 Q5.9 44.2 5.25 43.85 L5.3 44.05 M5.95 45.75 L5.95 45.8 Q6.6 45.2 5.95 45.75 M6.8 45.4 L6.8 45.35 6.55 45.4 Q6.45 45.9 6.8 45.9 L6.8 45.85 6.8 45.75 Q7.0 45.6 6.8 45.4 M10.85 41.3 L10.85 41.35 Q11.4 40.8 10.85 41.3 M11.25 41.2 L11.25 41.25 Q12.25 41.1 11.25 41.2 M10.15 41.7 L10.15 41.75 Q10.8 41.85 10.15 41.7 M12.2 42.85 L12.2 42.8 11.85 42.85 11.9 43.35 11.95 43.35 Q12.1 43.65 12.25 43.35 L12.3 43.25 12.3 43.2 12.2 42.85 M14.45 40.95 L14.45 41.0 Q14.8 40.4 14.45 40.95 M13.5 41.15 Q14.15 40.75 13.5 41.1 L13.5 41.15 M12.95 41.15 Q13.5 40.95 12.95 41.1 L12.95 41.15 M13.5 42.75 Q14.15 43.75 13.5 42.65 L13.5 42.75 M13.25 41.8 L12.95 41.7 13.05 41.85 13.35 42.2 Q13.65 41.95 13.25 41.8 M14.0 43.25 L14.0 43.3 Q15.2 42.55 14.0 43.25 M14.0 41.95 Q14.5 42.6 14.0 41.9 L14.0 41.95 M13.55 43.7 Q13.2 44.75 13.05 43.7 13.15 45.05 13.55 43.8 L13.6 43.8 Q13.75 44.3 13.5 44.4 14.0 44.35 13.65 43.7 L13.55 43.7 M13.65 45.25 L13.55 45.25 13.5 45.25 13.5 45.3 Q13.8 46.1 13.7 45.25 L13.65 45.25 M14.0 45.25 Q14.4 46.1 14.0 45.15 L14.0 45.25 M12.45 44.95 L12.45 45.05 Q12.95 46.4 12.45 44.95 M10.55 45.75 L10.55 45.8 Q11.35 44.95 10.55 45.75" fill="#cccccc" fill-rule="evenodd" stroke="none"/>
    <path d="M7.9 0.1 L7.9 0.0 9.2 0.05 9.2 0.1 9.1 0.1 7.9 0.1" fill="#7e9878" fill-rule="evenodd" stroke="none"/>
    <path d="M7.2 0.2 L7.8 0.1 7.9 0.1 9.1 0.1 9.2 0.1 9.2 0.15 8.75 0.2 8.7 0.2 7.2 0.25 7.2 0.2" fill="#3f4f27" fill-rule="evenodd" stroke="none"/>
    <path d="M6.8 0.35 L6.8 0.25 7.15 0.2 7.2 0.2 7.2 0.25 8.7 0.2 8.75 0.2 8.8 0.35 Q8.15 0.55 6.8 0.35" fill="#8e9e6e" fill-rule="evenodd" stroke="none"/>
    <path d="M7.65 1.35 L7.65 1.3 Q9.4 1.35 7.65 1.35" fill="#869679" fill-rule="evenodd" stroke="none"/>
    <path d="M7.65 0.6 Q8.35 1.15 7.65 0.65 L7.65 0.6" fill="#95a85a" fill-rule="evenodd" stroke="none"/>
    <path d="M6.05 1.05 Q6.65 1.2 6.05 1.1 L6.05 1.05" fill="#334127" fill-rule="evenodd" stroke="none"/>
    <path d="M6.3 4.75 Q6.85 4.2 6.3 4.8 L6.3 4.75" fill="#2e4322" fill-rule="evenodd" stroke="none"/>
    <path d="M6.65 3.1 Q7.15 3.5 6.65 3.15 L6.65 3.1" fill="#304725" fill-rule="evenodd" stroke="none"/>
    <path d="M9.7 5.45 L9.7 5.4 Q10.25 5.35 9.7 5.45" fill="#8da975" fill-rule="evenodd" stroke="none"/>
    <path d="M9.9 3.35 Q10.4 3.95 9.9 3.4 L9.9 3.35" fill="#2c3a25" fill-rule="evenodd" stroke="none"/>
    <path d="M6.95 16.75 Q6.6 18.25 5.85 18.7 L5.85 18.4 6.95 16.7 6.95 16.75" fill="#8fab7a" fill-rule="evenodd" stroke="none"/>
    <path d="M6.9 17.6 Q8.05 16.3 8.55 18.3 8.65 18.6 8.35 18.45 7.3 18.7 6.9 17.7 L6.9 17.6" fill="#89a686" fill-rule="evenodd" stroke="none"/>
    <path d="M9.65 16.65 Q10.0 15.4 10.6 17.15 L10.65 18.2 9.65 16.75 9.65 16.65" fill="#86a287" fill-rule="evenodd" stroke="none"/>
    <path d="M9.05 18.1 L9.0 18.2 Q8.6 18.5 8.5 17.25 L8.6 17.25 8.7 17.25 9.0 18.05 9.05 18.1" fill="#90ab84" fill-rule="evenodd" stroke="none"/>
    <path d="M8.7 17.25 Q9.4 17.65 9.1 18.1 L9.05 18.1 9.0 18.05 8.7 17.25" fill="#849b7d" fill-rule="evenodd" stroke="none"/>
    <path d="M9.8 19.05 L9.8 19.0 Q10.65 18.9 10.15 19.05 L10.05 19.05 9.95 19.05 9.8 19.05" fill="#2d3c21" fill-rule="evenodd" stroke="none"/>
    <path d="M9.8 19.05 L9.95 19.05 10.05 19.05 10.15 19.1 Q12.05 19.5 11.3 21.05 L11.0 21.05 10.9 21.0 10.25 20.95 10.15 20.95 8.1 20.85 8.05 20.8 7.75 19.35 7.8 19.35 8.8 19.25 8.15 19.15 8.15 19.05 9.7 19.05 9.8 19.05 M9.1 19.65 L9.2 19.65 Q9.8 19.3 9.05 19.5 L9.05 19.4 8.7 19.35 9.05 19.65 9.1 19.7 9.1 19.65 M8.35 19.8 Q9.0 19.65 8.35 19.75 L8.35 19.8" fill="#bec2bb" fill-rule="evenodd" stroke="none"/>
    <path d="M9.1 19.65 L9.05 19.65 9.05 19.5 Q9.8 19.3 9.2 19.65 L9.1 19.65" fill="#7b8497" fill-rule="evenodd" stroke="none"/>
    <path d="M9.05 19.5 L9.05 19.65 9.1 19.65 9.1 19.7 9.05 19.65 8.7 19.35 9.05 19.4 9.05 19.5" fill="#70798e" fill-rule="evenodd" stroke="none"/>
    <path d="M7.8 19.35 L7.8 19.25 8.1 19.15 8.15 19.15 8.8 19.25 7.8 19.35" fill="#e0e1d0" fill-rule="evenodd" stroke="none"/>
    <path d="M8.35 19.8 L8.35 19.75 Q9.0 19.65 8.35 19.8" fill="#d4d4d7" fill-rule="evenodd" stroke="none"/>
    <path d="M9.55 24.4 Q9.4 25.15 9.0 24.35 L8.95 24.1 Q9.75 23.2 9.55 24.4" fill="#819886" fill-rule="evenodd" stroke="none"/>
    <path d="M10.05 19.05 L10.15 19.05 10.15 19.1 10.05 19.05 M12.1 24.2 L12.1 24.15 12.15 24.2 12.1 24.2" fill="#4e6337" fill-rule="evenodd" stroke="none"/>
    <path d="M11.0 21.05 L11.0 21.1 10.25 20.95 10.9 21.0 11.0 21.05" fill="#425129" fill-rule="evenodd" stroke="none"/>
    <path d="M12.1 24.15 L12.1 24.2 12.1 24.25 11.85 24.4 11.8 24.35 11.7 24.3 12.1 24.15" fill="#374e28" fill-rule="evenodd" stroke="none"/>
    <path d="M13.0 21.8 L12.95 21.7 Q13.55 22.35 13.0 21.8" fill="#586a40" fill-rule="evenodd" stroke="none"/>
    <path d="M12.65 25.75 Q13.35 25.8 12.65 25.8 L12.65 25.75" fill="#354a29" fill-rule="evenodd" stroke="none"/>
    <path d="M11.0 25.15 L11.0 25.05 11.6 24.7 11.6 24.8 11.0 25.15" fill="#374e2b" fill-rule="evenodd" stroke="none"/>
    <path d="M11.1 27.05 Q11.45 27.8 11.1 27.15 L11.1 27.05" fill="#32402b" fill-rule="evenodd" stroke="none"/>
    <path d="M15.55 58.6 L15.55 58.7 14.95 59.15 14.85 59.15 14.35 59.3 14.4 59.4 14.45 59.5 14.35 59.5 12.8 59.9 12.1 60.0 12.05 60.0 10.9 60.05 8.1 60.0 8.1 60.05 8.0 60.05 7.8 60.05 7.75 60.05 2.7 59.3 2.65 59.25 2.6 59.15 2.7 59.15 4.9 59.4 4.15 59.25 Q2.5 59.05 3.35 58.9 L3.55 58.8 3.75 58.65 4.9 58.8 5.1 58.85 Q4.75 58.55 5.25 58.0 L5.3 58.05 Q5.75 58.75 5.25 57.6 L5.55 57.5 3.95 57.15 Q4.45 56.7 3.55 56.8 L3.5 56.8 Q3.15 56.25 1.9 55.7 2.65 56.4 2.1 56.9 1.9 57.05 1.95 57.4 L2.1 58.95 2.0 58.95 Q1.45 58.85 1.05 58.55 L1.05 58.45 0.9 56.05 Q0.9 54.4 1.45 54.2 1.05 52.75 1.6 53.3 L1.65 53.3 1.65 53.25 Q1.4 52.2 1.95 51.3 L2.0 51.25 1.85 50.55 1.8 50.45 Q2.25 49.95 1.95 48.95 L1.95 48.9 Q2.25 48.75 1.95 48.5 L1.9 48.5 2.0 48.3 Q2.65 46.75 1.25 46.55 L1.2 46.5 3.8 46.7 3.8 46.8 5.35 46.8 6.05 46.8 12.45 46.7 15.65 46.45 15.7 46.45 15.55 58.55 15.55 58.6 M13.85 39.2 L13.75 39.2 7.2 39.15 7.15 39.15 Q6.95 39.2 6.95 39.05 L6.95 38.95 Q6.8 34.9 6.8 29.2 L6.8 29.1 Q7.2 28.55 6.7 27.8 7.0 27.15 7.3 27.9 7.45 28.35 7.75 27.8 L8.0 27.3 Q7.35 26.45 8.1 26.4 L8.5 26.4 8.5 26.45 9.15 28.35 Q9.9 28.9 9.8 27.9 L9.7 27.45 9.7 27.4 Q10.2 27.3 9.65 26.5 L10.5 26.55 10.55 30.2 Q11.25 28.45 10.95 28.05 L10.9 28.0 Q10.9 27.05 11.3 28.0 L11.8 28.1 Q12.45 27.75 12.85 28.65 L12.8 28.7 Q12.15 30.1 12.95 29.4 L12.95 29.35 Q13.5 29.35 13.45 29.85 L13.65 29.85 Q13.7 31.65 13.9 31.5 13.95 32.3 14.35 32.5 L14.35 32.55 Q14.2 34.1 14.55 34.95 L14.5 34.95 14.35 36.3 14.35 36.4 14.55 37.4 14.6 37.45 Q14.2 38.45 14.6 39.0 L14.75 39.2 13.85 39.2 M5.95 33.15 L6.0 38.1 6.05 38.1 6.05 38.2 6.05 38.3 Q6.2 39.2 5.7 39.2 L4.8 39.15 4.8 39.2 4.75 39.2 1.8 39.2 1.8 39.15 1.8 39.05 Q2.4 38.85 2.2 36.85 2.05 35.65 2.3 34.85 L2.35 34.85 Q2.2 36.1 2.55 35.85 L2.6 35.8 Q2.4 33.65 2.7 33.1 L2.85 33.05 Q3.9 33.1 3.65 31.55 L3.8 31.4 Q3.25 31.25 3.9 30.65 L3.95 30.65 Q3.9 29.05 4.65 29.0 L4.65 28.95 5.45 27.9 5.5 27.9 Q5.4 30.5 5.95 33.05 L5.95 33.15 M11.1 33.7 Q11.6 33.75 11.1 33.65 L11.1 33.7 M11.4 34.55 Q11.0 33.75 10.9 34.75 L10.95 35.7 10.9 36.0 Q11.8 35.4 11.4 34.55 M6.75 50.8 L6.9 48.6 6.75 47.6 Q6.55 47.05 6.05 46.85 L6.05 46.95 6.1 50.3 6.15 50.35 6.7 50.8 6.7 50.95 6.75 50.8 M10.9 38.5 Q11.7 37.7 10.85 37.15 L10.85 37.25 10.9 38.5 M10.6 47.0 L10.55 46.95 10.55 47.05 10.75 51.4 11.1 49.55 Q11.3 47.45 10.6 47.0 M12.3 59.35 L13.85 59.4 13.85 59.35 Q14.2 59.2 13.3 58.95 L13.35 58.9 Q13.95 57.85 13.75 56.55 L13.75 56.5 Q12.6 56.65 11.8 57.25 L11.8 57.35 12.25 59.35 12.3 59.4 12.3 59.35 M10.4 58.6 L10.4 58.55 Q10.4 58.25 9.6 57.7 L9.3 57.5 9.3 57.55 Q8.55 57.5 7.4 58.35 7.15 59.35 8.7 59.3 L9.05 59.25 9.2 59.25 Q10.05 59.1 9.95 58.6 L10.05 58.65 Q10.85 59.35 10.4 58.6 M11.85 59.55 L11.85 59.6 Q13.2 59.55 11.85 59.55 M4.15 58.95 L4.15 59.0 Q5.25 59.0 4.15 58.95 M9.65 57.6 L9.65 57.65 Q10.75 57.45 9.65 57.6 M5.1 57.0 L5.1 57.05 Q6.1 56.95 5.1 57.0 M9.95 59.5 L10.0 59.55 Q10.75 59.8 9.95 59.5 M8.6 59.75 L8.6 59.8 Q10.55 59.6 8.6 59.75" fill="#3c3c3c" fill-rule="evenodd" stroke="none"/>
    <path d="M12.85 28.65 L12.85 28.7 12.8 28.7 12.85 28.65" fill="#313d2b" fill-rule="evenodd" stroke="none"/>
    <path d="M11.1 33.7 L11.1 33.65 Q11.6 33.75 11.1 33.7" fill="#6e713f" fill-rule="evenodd" stroke="none"/>
    <path d="M15.9 32.0 L15.95 32.0 15.95 32.55 15.9 32.55 15.9 32.45 15.9 32.0" fill="#9fa5a2" fill-rule="evenodd" stroke="none"/>
    <path d="M8.6 25.75 Q9.55 26.55 8.6 25.8 L8.6 25.75" fill="#35462b" fill-rule="evenodd" stroke="none"/>
    <path d="M8.25 25.05 Q8.9 25.5 8.3 25.15 L8.25 25.05" fill="#354c24" fill-rule="evenodd" stroke="none"/>
    <path d="M9.3 27.65 L9.65 27.85 9.3 27.7 9.3 27.65" fill="#304424" fill-rule="evenodd" stroke="none"/>
    <path d="M8.1 26.25 Q8.75 26.15 8.1 26.3 L8.1 26.25" fill="#34462c" fill-rule="evenodd" stroke="none"/>
    <path d="M0.45 47.55 L0.1 46.5 Q0.6 44.5 0.3 42.4 L0.3 42.3 0.5 34.1 0.55 34.1 0.55 34.15 0.45 47.55" fill="#9ea193" fill-rule="evenodd" stroke="none"/>
    <path d="M2.3 34.85 L2.35 34.6 2.35 34.85 2.3 34.85" fill="#303b2b" fill-rule="evenodd" stroke="none"/>
    <path d="M6.05 38.1 Q6.6 37.95 6.1 38.2 L6.05 38.2 6.05 38.1" fill="#605f2a" fill-rule="evenodd" stroke="none"/>
    <path d="M5.7 39.2 L5.6 39.2 4.8 39.2 4.8 39.15 5.7 39.2" fill="#696543" fill-rule="evenodd" stroke="none"/>
    <path d="M7.2 39.15 L7.2 39.2 Q6.35 39.4 6.1 38.9 L6.9 39.05 6.95 39.05 Q6.95 39.2 7.15 39.15 L7.2 39.15" fill="#676033" fill-rule="evenodd" stroke="none"/>
    <path d="M5.15 40.6 L5.55 41.15 Q5.15 41.6 5.15 40.6" fill="#63522d" fill-rule="evenodd" stroke="none"/>
    <path d="M6.25 43.2 L5.95 42.95 5.95 42.75 6.25 43.2" fill="#574b2d" fill-rule="evenodd" stroke="none"/>
    <path d="M9.95 41.05 Q10.55 41.25 10.0 41.1 L9.95 41.05" fill="#695a32" fill-rule="evenodd" stroke="none"/>
    <path d="M9.3 42.8 L9.3 42.75 Q10.0 43.0 9.3 42.8" fill="#66593a" fill-rule="evenodd" stroke="none"/>
    <path d="M8.85 43.45 L8.85 43.4 8.7 43.2 8.95 43.2 9.05 43.2 9.0 43.25 8.85 43.45" fill="#b4aa85" fill-rule="evenodd" stroke="none"/>
    <path d="M8.85 43.45 L9.0 43.25 9.05 43.2 Q9.0 43.8 8.6 43.35 L8.75 43.4 8.85 43.45" fill="#564b2a" fill-rule="evenodd" stroke="none"/>
    <path d="M1.3 40.6 Q2.35 40.75 1.3 40.65 L1.3 40.6" fill="#605335" fill-rule="evenodd" stroke="none"/>
    <path d="M1.3 41.2 Q2.4 41.05 1.3 41.25 L1.3 41.2" fill="#5b4c2f" fill-rule="evenodd" stroke="none"/>
    <path d="M1.05 41.75 L1.05 41.7 Q2.45 41.75 1.05 41.75" fill="#574c2a" fill-rule="evenodd" stroke="none"/>
    <path d="M4.6 40.65 L4.55 40.6 Q5.2 40.8 4.6 40.65" fill="#564b31" fill-rule="evenodd" stroke="none"/>
    <path d="M4.05 40.65 L4.05 40.6 Q4.85 40.9 4.05 40.65" fill="#5e542f" fill-rule="evenodd" stroke="none"/>
    <path d="M2.95 41.65 Q3.65 41.9 2.95 41.7 L2.95 41.65" fill="#5e542e" fill-rule="evenodd" stroke="none"/>
    <path d="M2.85 41.3 Q3.8 41.05 2.85 41.35 L2.85 41.3" fill="#524923" fill-rule="evenodd" stroke="none"/>
    <path d="M2.85 40.6 Q3.65 41.15 2.85 40.65 L2.85 40.6" fill="#5d542d" fill-rule="evenodd" stroke="none"/>
    <path d="M3.95 41.85 L3.95 41.8 Q4.7 41.8 3.95 41.85" fill="#4f461f" fill-rule="evenodd" stroke="none"/>
    <path d="M4.05 42.35 L4.05 42.3 Q4.8 42.2 4.05 42.35" fill="#574828" fill-rule="evenodd" stroke="none"/>
    <path d="M2.95 43.8 Q3.6 44.05 2.95 43.85 L2.95 43.8" fill="#5d512b" fill-rule="evenodd" stroke="none"/>
    <path d="M3.55 43.35 Q4.3 42.75 3.55 43.4 L3.55 43.35" fill="#5e512b" fill-rule="evenodd" stroke="none"/>
    <path d="M3.05 43.45 Q3.55 43.0 3.05 43.5 L3.05 43.45" fill="#574e27" fill-rule="evenodd" stroke="none"/>
    <path d="M3.35 45.4 L3.45 45.4 3.45 45.65 3.45 45.75 3.45 45.8 3.35 45.75 3.35 45.7 Q3.05 45.8 3.05 45.5 L3.35 45.45 3.35 45.4" fill="#aea082" fill-rule="evenodd" stroke="none"/>
    <path d="M3.35 45.75 L3.3 45.75 Q2.9 46.0 2.95 45.4 3.15 45.15 3.3 45.4 L3.35 45.4 3.35 45.45 3.05 45.5 Q3.05 45.8 3.35 45.7 L3.35 45.75" fill="#4f4324" fill-rule="evenodd" stroke="none"/>
    <path d="M3.45 45.4 Q4.2 45.55 3.55 45.75 L3.45 45.75 3.45 45.65 3.45 45.4" fill="#554726" fill-rule="evenodd" stroke="none"/>
    <path d="M1.65 43.8 Q2.2 44.5 1.65 43.85 L1.65 43.8" fill="#605638" fill-rule="evenodd" stroke="none"/>
    <path d="M2.1 45.1 L2.1 45.05 Q2.75 45.45 2.1 45.1" fill="#5d532c" fill-rule="evenodd" stroke="none"/>
    <path d="M2.5 45.3 Q3.1 45.55 2.5 45.35 L2.5 45.3" fill="#625838" fill-rule="evenodd" stroke="none"/>
    <path d="M0.45 57.85 L0.4 57.85 Q0.05 54.9 0.0 52.45 L0.4 47.65 0.45 47.65 0.45 47.7 0.35 55.55 0.45 57.75 0.45 57.85" fill="#99a095" fill-rule="evenodd" stroke="none"/>
    <path d="M1.95 48.25 L1.75 48.05 Q2.1 47.15 1.95 48.15 L1.95 48.25" fill="#364528" fill-rule="evenodd" stroke="none"/>
    <path d="M4.55 46.8 L4.5 46.8 3.8 46.8 3.8 46.7 4.55 46.75 4.55 46.8" fill="#292f27" fill-rule="evenodd" stroke="none"/>
    <path d="M3.8 46.8 L4.5 46.8 4.55 46.8 5.25 46.8 5.35 46.8 3.8 46.8" fill="#171706" fill-rule="evenodd" stroke="none"/>
    <path d="M2.5 44.1 Q3.7 44.55 2.75 44.5 2.45 44.5 2.5 44.1" fill="#554827" fill-rule="evenodd" stroke="none"/>
    <path d="M10.05 43.8 Q10.8 44.05 10.05 43.85 L10.05 43.8" fill="#6c5c38" fill-rule="evenodd" stroke="none"/>
    <path d="M9.35 45.75 Q10.1 45.0 9.35 45.8 L9.35 45.75" fill="#4c3b23" fill-rule="evenodd" stroke="none"/>
    <path d="M9.95 45.5 Q10.75 45.75 10.0 45.55 L9.95 45.5" fill="#524526" fill-rule="evenodd" stroke="none"/>
    <path d="M6.65 43.35 Q7.55 43.2 6.65 43.4 L6.65 43.35" fill="#645532" fill-rule="evenodd" stroke="none"/>
    <path d="M5.3 44.05 L5.25 43.85 Q5.9 44.2 5.4 44.2 L5.3 44.05" fill="#604f2f" fill-rule="evenodd" stroke="none"/>
    <path d="M5.95 45.75 Q6.6 45.2 5.95 45.8 L5.95 45.75" fill="#655533" fill-rule="evenodd" stroke="none"/>
    <path d="M6.8 45.4 L6.7 45.4 6.65 45.5 6.75 45.8 6.8 45.85 6.8 45.9 Q6.45 45.9 6.55 45.4 L6.8 45.35 6.8 45.4" fill="#60502f" fill-rule="evenodd" stroke="none"/>
    <path d="M6.8 45.85 L6.75 45.8 6.65 45.5 6.7 45.4 6.8 45.4 Q7.0 45.6 6.8 45.75 L6.8 45.85" fill="#a79779" fill-rule="evenodd" stroke="none"/>
    <path d="M10.85 41.3 Q11.4 40.8 10.85 41.35 L10.85 41.3" fill="#64542e" fill-rule="evenodd" stroke="none"/>
    <path d="M11.25 41.2 Q12.25 41.1 11.25 41.25 L11.25 41.2" fill="#5f5123" fill-rule="evenodd" stroke="none"/>
    <path d="M10.15 41.7 Q10.8 41.85 10.15 41.75 L10.15 41.7" fill="#685834" fill-rule="evenodd" stroke="none"/>
    <path d="M12.2 42.85 L12.1 42.85 11.95 42.9 11.95 43.2 11.95 43.25 11.95 43.35 11.9 43.35 11.85 42.85 12.2 42.8 12.2 42.85" fill="#4f3f1b" fill-rule="evenodd" stroke="none"/>
    <path d="M11.95 43.25 L11.95 43.2 11.95 42.9 12.1 42.85 12.2 42.85 12.3 43.2 12.3 43.25 12.25 43.3 11.95 43.25" fill="#9f8f6c" fill-rule="evenodd" stroke="none"/>
    <path d="M11.95 43.35 L11.95 43.25 12.25 43.3 12.3 43.25 12.25 43.35 Q12.1 43.65 11.95 43.35" fill="#5c4c29" fill-rule="evenodd" stroke="none"/>
    <path d="M14.45 40.95 Q14.8 40.4 14.45 41.0 L14.45 40.95" fill="#5f4f2d" fill-rule="evenodd" stroke="none"/>
    <path d="M13.5 41.15 L13.5 41.1 Q14.15 40.75 13.5 41.15" fill="#61512e" fill-rule="evenodd" stroke="none"/>
    <path d="M12.95 41.15 L12.95 41.1 Q13.5 40.95 12.95 41.15" fill="#665636" fill-rule="evenodd" stroke="none"/>
    <path d="M13.25 41.8 L13.05 41.8 13.05 41.85 12.95 41.7 13.25 41.8 Q13.65 41.95 13.35 42.2 L13.05 41.85 13.25 41.8" fill="#57481e" fill-rule="evenodd" stroke="none"/>
    <path d="M13.05 41.85 L13.05 41.8 13.25 41.8 13.05 41.85" fill="#91825b" fill-rule="evenodd" stroke="none"/>
    <path d="M13.5 42.75 L13.5 42.65 Q14.15 43.75 13.5 42.75" fill="#5a4f2a" fill-rule="evenodd" stroke="none"/>
    <path d="M14.0 41.95 L14.0 41.9 Q14.5 42.6 14.0 41.95" fill="#5e4e2a" fill-rule="evenodd" stroke="none"/>
    <path d="M14.0 43.25 Q15.2 42.55 14.0 43.3 L14.0 43.25" fill="#5f5333" fill-rule="evenodd" stroke="none"/>
    <path d="M13.55 43.8 Q13.15 45.05 13.05 43.7 13.2 44.75 13.55 43.7 L13.55 43.8" fill="#60502a" fill-rule="evenodd" stroke="none"/>
    <path d="M13.55 43.8 L13.55 43.7 13.65 43.7 Q14.0 44.35 13.5 44.4 13.75 44.3 13.6 43.8 L13.55 43.8" fill="#45381e" fill-rule="evenodd" stroke="none"/>
    <path d="M13.65 45.25 L13.65 45.3 Q13.8 45.75 13.5 45.3 L13.5 45.25 13.55 45.25 13.65 45.25" fill="#8b805c" fill-rule="evenodd" stroke="none"/>
    <path d="M13.5 45.3 Q13.8 45.75 13.65 45.3 L13.65 45.25 13.7 45.25 Q13.8 46.1 13.5 45.3" fill="#4d401d" fill-rule="evenodd" stroke="none"/>
    <path d="M14.0 45.25 L14.0 45.15 Q14.4 46.1 14.0 45.25" fill="#524624" fill-rule="evenodd" stroke="none"/>
    <path d="M10.55 45.75 Q11.35 44.95 10.55 45.8 L10.55 45.75" fill="#5c4d2d" fill-rule="evenodd" stroke="none"/>
    <path d="M12.45 44.95 Q12.95 46.4 12.45 45.05 L12.45 44.95" fill="#524221" fill-rule="evenodd" stroke="none"/>
    <path d="M10.6 47.0 L10.55 47.05 10.55 46.95 10.6 47.0" fill="#7e703e" fill-rule="evenodd" stroke="none"/>
    <path d="M12.3 59.35 L12.3 59.4 12.25 59.35 12.3 59.35 M9.65 57.6 Q10.75 57.45 9.65 57.65 L9.65 57.6" fill="#151b19" fill-rule="evenodd" stroke="none"/>
    <path d="M11.85 59.55 Q13.2 59.55 11.85 59.6 L11.85 59.55" fill="#101615" fill-rule="evenodd" stroke="none"/>
    <path d="M10.9 60.05 L10.85 60.05 10.65 60.05 10.55 60.05 8.1 60.05 8.1 60.0 10.9 60.05" fill="#0d1c09" fill-rule="evenodd" stroke="none"/>
    <path d="M10.65 60.05 L10.65 60.1 7.8 60.05 8.0 60.05 8.1 60.05 10.55 60.05 10.65 60.05" fill="#516047" fill-rule="evenodd" stroke="none"/>
    <path d="M14.95 59.15 L14.95 59.2 14.45 59.5 14.4 59.4 14.35 59.3 14.85 59.15 14.95 59.15" fill="#757e70" fill-rule="evenodd" stroke="none"/>
    <path d="M15.95 56.9 L15.95 57.7 15.9 57.25 15.9 57.15 15.9 56.9 15.95 56.9" fill="#a3a49f" fill-rule="evenodd" stroke="none"/>
    <path d="M6.75 50.8 L6.7 50.95 6.7 50.8 6.75 50.8" fill="#74733e" fill-rule="evenodd" stroke="none"/>
    <path d="M1.65 53.25 L1.65 53.3 1.6 53.3 1.65 53.25" fill="#47523a" fill-rule="evenodd" stroke="none"/>
    <path d="M2.7 59.3 L2.6 59.3 2.35 59.2 2.25 59.2 2.1 59.05 2.5 59.1 2.6 59.15 2.65 59.25 2.7 59.3" fill="#778069" fill-rule="evenodd" stroke="none"/>
    <path d="M4.15 58.95 Q5.25 59.0 4.15 59.0 L4.15 58.95" fill="#131917" fill-rule="evenodd" stroke="none"/>
    <path d="M5.1 57.0 Q6.1 56.95 5.1 57.05 L5.1 57.0" fill="#151b18" fill-rule="evenodd" stroke="none"/>
    <path d="M9.95 59.5 Q10.75 59.8 10.0 59.55 L9.95 59.5" fill="#141918" fill-rule="evenodd" stroke="none"/>
    <path d="M8.6 59.75 Q10.55 59.6 8.6 59.8 L8.6 59.75" fill="#131817" fill-rule="evenodd" stroke="none"/>
    <path d="M10.4 0.45 Q11.9 1.9 11.35 4.65 L11.35 4.75 Q11.35 13.35 13.05 19.75 L13.55 21.05 Q15.95 24.75 15.9 32.0 L15.95 32.0 15.95 32.55 15.9 32.55 15.95 32.6 15.95 56.65 15.9 56.65 15.95 56.75 15.95 57.7 15.9 57.25 15.85 57.25 15.85 57.7 15.55 58.6 15.55 58.7 14.95 59.15 14.95 59.2 14.45 59.5 14.35 59.5 12.8 59.9 12.1 60.0 12.05 60.0 10.9 60.05 10.85 60.05 10.65 60.05 10.65 60.1 7.8 60.05 7.75 60.05 2.7 59.3 2.6 59.3 2.35 59.2 2.25 59.2 2.1 59.05 2.1 58.95 2.0 58.95 Q1.45 58.85 1.05 58.55 L0.95 58.5 0.7 58.3 0.65 58.25 0.45 57.85 0.4 57.85 Q0.05 54.9 0.0 52.45 L0.4 47.65 0.45 47.65 0.45 47.55 0.1 46.5 Q0.6 44.5 0.3 42.4 L0.3 42.3 0.5 34.1 0.55 34.1 0.55 34.0 0.55 30.55 Q1.05 23.6 3.8 19.0 4.65 17.7 4.85 15.75 5.55 10.1 5.6 4.65 L5.6 4.55 5.4 3.2 Q5.3 1.15 6.7 0.4 L6.8 0.35 6.8 0.25 7.15 0.2 7.2 0.2 7.8 0.1 7.9 0.1 7.9 0.0 9.2 0.05 9.2 0.1 9.3 0.1 10.4 0.4 10.4 0.45" fill="#000000" fill-opacity="0.6117647" fill-rule="evenodd" stroke="none"/>
  </g>
</svg>
