<?xml version="1.0" encoding="UTF-8" standalone="no"?>
<svg xmlns:xlink="http://www.w3.org/1999/xlink" height="16.1px" width="40.95px" xmlns="http://www.w3.org/2000/svg">
  <g transform="matrix(1.0, 0.0, 0.0, 1.0, 0.0, 0.0)">
    <path d="M0.15 4.65 Q0.7 3.5 1.65 3.1 1.7 2.8 1.9 2.7 2.85 1.5 4.6 0.8 7.05 0.6 9.0 2.3 13.65 5.35 17.8 6.25 20.55 6.35 24.75 7.6 L33.95 8.0 36.35 7.9 37.25 7.7 37.4 7.75 38.7 8.65 Q40.95 10.1 40.95 12.3 40.95 13.95 38.95 15.7 L36.65 15.2 34.35 15.55 18.4 13.65 12.45 12.4 11.35 12.4 11.7 12.5 Q5.8 13.25 0.7 8.15 0.15 7.45 0.0 6.3 -0.05 5.5 0.15 4.65" fill="#000000" fill-rule="evenodd" stroke="none"/>
    <path d="M37.25 7.7 L36.35 7.9 33.95 8.0 24.75 7.6 Q20.55 6.35 17.8 6.25 13.65 5.35 9.0 2.3 7.05 0.6 4.6 0.8 2.85 1.5 1.9 2.7 1.7 2.8 1.65 3.1 0.7 3.5 0.15 4.65 L0.7 3.05 Q1.7 1.2 4.1 0.05 6.65 -0.2 9.2 0.7 L16.6 4.45 Q20.9 6.0 25.2 6.35 L35.0 6.75 37.25 7.7 M11.7 12.5 L11.35 12.4 12.45 12.4 18.4 13.65 34.35 15.55 36.65 15.2 38.95 15.7 38.85 15.75 38.55 16.0 37.6 15.75 35.25 16.1 18.4 14.1 11.7 12.5" fill="#1a1a1a" fill-rule="evenodd" stroke="none"/>
  </g>
</svg>
