<?xml version="1.0" encoding="UTF-8" standalone="no"?>
<svg xmlns:xlink="http://www.w3.org/1999/xlink" height="139.65px" width="284.2px" xmlns="http://www.w3.org/2000/svg">
  <g transform="matrix(1.0, 0.0, 0.0, 1.0, -165.1, -112.3)">
    <path d="M313.45 157.65 Q300.8 150.95 285.85 149.65 L285.75 149.65 285.7 149.65 284.1 149.55 277.7 149.35 Q268.0 149.15 246.75 149.3 L173.75 148.95 172.45 112.3 341.75 112.95 388.45 154.3 388.45 164.3 390.45 186.3 341.1 183.65 339.8 181.3 Q331.05 166.1 313.45 157.65" fill="#6f6d65" fill-rule="evenodd" stroke="none"/>
    <path d="M313.45 157.65 Q319.4 160.8 324.85 165.15 334.7 173.05 339.8 181.3 L341.1 183.65 390.45 186.3 Q398.75 218.8 424.45 228.15 437.3 232.8 448.45 230.95 L449.0 229.55 Q449.5 230.05 449.1 239.65 448.7 249.3 442.6 251.4 440.65 252.05 438.05 251.95 L435.1 251.65 266.45 246.3 Q257.45 245.0 252.85 240.3 246.0 233.35 243.75 216.3 L243.2 212.25 243.75 212.3 Q242.95 205.8 241.6 199.3 238.95 186.3 236.45 186.3 L172.45 184.3 173.75 148.95 246.75 149.3 271.1 149.65 277.7 149.35 284.1 149.55 285.7 149.65 285.75 149.65 285.85 149.65 Q300.8 150.95 313.45 157.65 M201.6 170.0 Q199.5 167.65 196.45 167.65 193.4 167.65 191.25 170.0 189.1 172.3 189.1 175.65 189.1 178.95 191.25 181.3 193.4 183.65 196.45 183.65 199.5 183.65 201.6 181.3 203.75 178.95 203.75 175.65 203.75 172.3 201.6 170.0 M286.45 236.05 Q293.1 229.8 293.1 220.95 293.1 212.15 286.45 205.9 279.85 199.65 270.45 199.65 261.05 199.65 254.4 205.9 247.75 212.15 247.75 220.95 247.75 229.8 254.4 236.05 261.05 242.3 270.45 242.3 279.85 242.3 286.45 236.05" fill="#282828" fill-rule="evenodd" stroke="none"/>
    <path d="M173.3 198.4 L173.75 198.3 173.4 194.95 233.1 195.65 233.75 205.65 173.75 206.95 173.3 198.4" fill="#474541" fill-rule="evenodd" stroke="none"/>
    <path d="M172.45 184.3 L236.45 186.3 Q238.95 186.3 241.6 199.3 242.95 205.8 243.75 212.3 L243.2 212.25 Q241.45 211.8 237.75 209.0 L233.75 205.65 233.1 195.65 173.4 194.95 173.75 198.3 173.3 198.4 Q169.85 199.0 167.2 196.8 L165.1 194.3 165.1 168.3 Q165.1 165.4 166.45 158.25 L167.75 151.65 172.45 151.65 171.75 180.95 172.8 190.1 172.45 184.3" fill="#6b6a60" fill-rule="evenodd" stroke="none"/>
    <path d="M201.6 170.0 Q203.75 172.3 203.75 175.65 203.75 178.95 201.6 181.3 199.5 183.65 196.45 183.65 193.4 183.65 191.25 181.3 189.1 178.95 189.1 175.65 189.1 172.3 191.25 170.0 193.4 167.65 196.45 167.65 199.5 167.65 201.6 170.0" fill="#6e6f6a" fill-rule="evenodd" stroke="none"/>
    <path d="M286.45 236.05 Q279.85 242.3 270.45 242.3 261.05 242.3 254.4 236.05 247.75 229.8 247.75 220.95 247.75 212.15 254.4 205.9 261.05 199.65 270.45 199.65 279.85 199.65 286.45 205.9 293.1 212.15 293.1 220.95 293.1 229.8 286.45 236.05 M274.75 216.55 Q272.4 214.3 269.1 214.3 265.8 214.3 263.45 216.55 261.1 218.8 261.1 221.95 261.1 225.15 263.45 227.4 265.8 229.65 269.1 229.65 272.4 229.65 274.75 227.4 277.1 225.15 277.1 221.95 277.1 218.8 274.75 216.55" fill="#444444" fill-rule="evenodd" stroke="none"/>
    <path d="M274.75 216.55 Q277.1 218.8 277.1 221.95 277.1 225.15 274.75 227.4 272.4 229.65 269.1 229.65 265.8 229.65 263.45 227.4 261.1 225.15 261.1 221.95 261.1 218.8 263.45 216.55 265.8 214.3 269.1 214.3 272.4 214.3 274.75 216.55" fill="#5c5c5c" fill-rule="evenodd" stroke="none"/>
  </g>
</svg>
