<?xml version="1.0" encoding="UTF-8" standalone="no"?>
<svg xmlns:xlink="http://www.w3.org/1999/xlink" height="287.0px" width="743.2px" xmlns="http://www.w3.org/2000/svg">
  <g transform="matrix(1.0, 0.0, 0.0, 1.0, -3.45, 0.0)">
    <path d="M714.1 37.05 L716.6 37.15 716.8 37.1 716.85 37.1 Q718.15 36.8 723.9 30.95 L731.45 23.1 Q733.1 21.5 734.35 19.5 L736.45 16.1 Q737.6 14.5 736.35 14.5 735.3 14.55 733.45 15.45 732.2 16.1 723.05 24.35 L714.15 32.45 711.95 35.75 709.45 34.75 709.35 34.75 Q707.95 34.5 697.5 29.4 L697.3 29.3 697.45 29.2 698.0 28.6 723.3 0.85 742.0 8.95 743.4 12.6 Q744.55 15.75 744.75 17.2 L744.8 17.75 Q744.8 18.9 739.7 23.75 L737.5 25.75 Q731.25 31.4 727.15 34.45 724.65 36.35 719.5 37.1 L714.8 37.45 714.1 37.05" fill="#715f4f" fill-rule="evenodd" stroke="none"/>
    <path d="M711.95 35.75 L714.15 32.45 723.05 24.35 Q732.2 16.1 733.45 15.45 735.3 14.55 736.35 14.5 737.6 14.5 736.45 16.1 L734.35 19.5 Q733.1 21.5 731.45 23.1 L723.9 30.95 Q718.15 36.8 716.85 37.1 L716.8 37.1 716.6 37.15 714.1 37.05 713.4 36.9 711.45 36.45 711.85 35.9 711.95 35.75 M687.5 85.2 L687.15 84.1 687.9 83.8 687.95 83.75 689.45 83.1 691.6 84.75 Q694.15 86.6 696.45 87.45 L709.15 92.1 708.45 94.75 Q703.2 93.45 697.9 91.45 689.05 88.1 687.5 85.2 M691.85 70.7 L691.8 70.45 Q691.8 69.15 692.5 68.55 L692.65 68.4 692.85 68.3 693.45 68.1 698.2 71.9 Q703.4 75.85 705.45 76.45 L712.45 78.75 Q713.15 81.1 712.15 81.1 710.9 81.1 701.6 76.65 693.15 72.65 692.0 70.95 L691.85 70.7 M623.55 100.8 L626.1 103.35 Q628.35 105.9 629.45 106.45 630.6 107.0 631.6 109.45 L633.45 113.45 Q634.5 114.9 633.7 117.8 L632.15 122.45 Q631.7 124.1 630.4 123.25 L628.45 121.75 Q627.85 121.55 627.95 118.7 L628.15 114.1 Q628.15 112.5 627.2 110.85 626.3 109.4 625.45 109.1 624.95 108.95 625.65 113.75 626.5 119.25 626.15 120.45 625.65 122.05 624.15 121.95 623.0 121.9 620.15 120.75 618.0 119.9 618.15 115.0 618.2 113.4 619.15 106.45 619.55 103.35 620.2 101.6 L620.8 100.45 621.75 100.5 622.95 100.65 623.45 100.75 623.55 100.8 M718.5 65.85 L717.8 65.75 Q715.35 65.2 706.85 59.6 698.15 53.85 698.15 52.45 698.15 51.2 698.5 50.2 L698.8 49.45 701.2 52.55 Q703.95 55.7 705.8 56.1 708.75 56.75 719.6 62.35 L719.65 62.35 719.8 62.45 719.95 64.35 Q719.75 65.85 718.5 65.85" fill="#fffce2" fill-rule="evenodd" stroke="none"/>
    <path d="M739.7 23.75 Q744.8 18.9 744.8 17.75 L744.75 17.2 746.1 20.35 Q747.4 23.0 745.65 27.85 743.8 33.0 740.4 34.15 739.25 34.55 738.2 35.4 L738.45 35.1 Q742.85 32.8 744.25 25.9 L744.8 19.45 Q743.95 20.75 739.7 23.75 M697.3 29.3 L697.5 29.4 697.9 31.0 697.3 29.3 M709.35 34.75 L709.45 34.75 711.95 35.75 711.85 35.9 709.35 34.75 M734.95 39.55 L734.9 39.65 733.05 43.9 Q733.8 49.95 733.8 56.2 733.65 49.3 732.45 42.75 L734.95 39.55 M727.25 92.65 L726.35 95.25 Q721.5 108.95 716.0 117.9 L720.05 118.7 714.35 130.9 694.05 132.55 676.8 138.45 678.15 143.3 Q679.45 148.4 679.45 149.45 L679.15 157.75 Q677.45 163.1 675.15 165.75 L661.8 182.1 669.65 185.4 659.9 184.55 648.5 191.9 632.8 195.45 630.15 201.1 Q630.15 206.95 628.3 208.3 627.75 208.7 627.05 208.6 L626.45 208.45 622.8 217.75 624.8 224.0 623.15 219.75 619.45 217.45 614.8 224.45 Q625.6 245.5 614.45 266.55 608.9 277.1 601.15 283.45 L602.45 283.25 591.15 285.85 Q594.15 284.75 595.65 279.8 598.2 271.45 599.45 269.75 602.1 266.3 603.95 258.25 605.5 249.95 606.15 247.75 L606.35 245.15 607.6 244.05 610.8 240.45 Q612.25 239.2 610.35 238.05 L608.15 237.1 605.5 239.6 604.45 235.15 602.9 229.65 Q604.55 228.1 607.45 226.45 L607.7 225.5 Q607.7 224.5 606.45 224.1 605.3 223.75 604.1 224.55 L601.9 226.0 601.8 225.75 Q600.15 218.75 598.8 218.1 598.0 217.7 596.7 218.9 L594.15 221.45 Q592.65 222.65 591.55 224.8 590.45 226.95 590.45 228.45 590.45 229.3 591.8 235.1 593.15 240.95 593.15 242.75 593.15 244.95 590.5 250.95 588.2 256.05 586.8 258.1 585.95 259.4 575.9 261.2 L564.8 262.75 Q563.75 262.75 563.35 261.75 L563.15 260.75 568.45 255.45 Q570.4 253.55 569.5 244.9 568.8 238.2 567.8 235.1 L566.55 230.65 Q565.8 227.55 565.8 226.45 565.8 225.7 567.0 221.2 568.15 216.7 568.15 215.45 568.15 214.0 566.7 212.4 L564.45 210.1 Q563.9 209.35 564.25 206.35 L564.8 200.1 Q564.8 197.15 561.9 198.8 L556.45 202.75 544.55 211.35 Q534.65 218.4 532.15 219.45 529.4 220.6 525.25 221.2 L520.15 221.45 Q518.8 221.2 518.95 219.65 519.1 218.1 520.8 217.1 521.7 216.6 528.35 213.55 535.15 210.45 538.15 208.75 541.5 206.85 543.45 204.8 L546.45 201.1 Q547.9 199.45 546.7 198.6 L545.15 198.1 Q539.8 201.45 537.45 203.75 535.9 205.3 525.5 205.75 516.75 206.15 512.8 205.75 L505.85 204.8 512.25 204.25 512.8 204.45 521.15 204.8 529.45 203.45 Q532.3 203.0 536.2 197.65 L542.15 188.1 Q544.2 184.55 546.9 176.15 L549.15 168.45 539.7 161.65 540.75 160.25 591.8 196.1 601.45 191.75 601.55 191.4 603.8 199.1 624.15 189.75 613.5 182.65 619.8 163.45 604.15 165.45 634.8 158.45 604.45 139.1 614.8 145.1 625.8 142.45 620.8 129.45 608.35 127.6 617.9 99.3 622.95 100.65 621.75 100.5 620.8 100.45 620.2 101.6 Q619.55 103.35 619.15 106.45 618.2 113.4 618.15 115.0 618.0 119.9 620.15 120.75 623.0 121.9 624.15 121.95 625.65 122.05 626.15 120.45 626.5 119.25 625.65 113.75 624.95 108.95 625.45 109.1 626.3 109.4 627.2 110.85 628.15 112.5 628.15 114.1 L627.95 118.7 Q627.85 121.55 628.45 121.75 L630.4 123.25 Q631.7 124.1 632.15 122.45 L633.7 117.8 Q634.5 114.9 633.45 113.45 L631.6 109.45 Q630.6 107.0 629.45 106.45 628.35 105.9 626.1 103.35 L623.55 100.8 634.0 103.95 628.8 103.1 640.05 121.35 Q651.4 140.35 651.8 144.1 L653.15 157.1 657.15 160.45 652.2 138.9 Q646.9 117.0 645.45 115.1 L639.45 108.5 635.5 104.45 646.1 108.15 646.5 106.9 655.15 110.45 657.15 108.1 659.25 105.55 Q660.95 103.55 661.15 102.75 661.35 101.95 664.25 100.45 L667.15 99.1 668.45 94.1 650.15 94.35 620.05 95.15 618.3 98.1 622.45 85.75 676.8 83.75 672.4 79.9 679.4 84.55 674.55 105.7 681.05 105.7 703.15 116.1 703.95 120.2 Q704.65 123.0 704.45 116.75 705.8 117.45 715.8 116.75 721.7 107.75 726.75 94.0 L727.25 92.65 M700.4 245.55 Q697.3 252.7 691.6 259.35 690.2 261.45 686.4 263.95 L685.7 264.45 Q693.65 254.75 696.9 245.4 695.1 251.55 691.8 258.1 L693.45 256.45 698.25 249.6 700.4 245.55 M683.05 265.85 Q681.0 266.7 679.4 266.7 L677.95 266.9 683.05 265.85 M641.3 274.5 L608.45 281.9 609.55 280.95 641.3 274.5 M589.95 286.1 L585.9 287.0 Q578.2 287.15 571.65 285.15 L573.9 285.6 589.8 286.1 589.95 286.1 M560.25 279.35 Q554.2 274.9 549.55 267.8 545.45 261.65 542.95 254.2 L541.2 248.0 524.95 231.75 Q513.55 230.1 511.1 229.3 L505.5 226.65 524.95 231.75 533.05 238.15 Q541.15 244.7 541.15 245.75 541.15 247.0 547.45 258.3 553.5 269.3 558.45 277.1 L560.25 279.35 M494.55 220.6 L491.6 218.7 Q490.1 217.6 489.05 213.1 490.2 215.4 492.2 217.9 L494.55 220.6 M418.55 99.3 L420.05 95.95 403.0 97.6 395.65 92.7 396.4 91.1 405.15 95.75 420.05 95.95 421.9 92.25 418.55 99.3 M405.1 72.5 L406.25 69.95 394.85 62.6 389.15 65.05 389.15 50.45 391.05 51.4 390.45 54.75 430.45 82.8 427.15 81.1 415.15 72.75 407.8 67.1 405.1 72.5 M396.05 52.85 L405.45 31.75 398.15 53.75 396.05 52.85 M468.65 15.95 Q472.9 9.4 479.55 5.4 475.85 8.05 472.05 12.05 L468.65 15.95 M491.2 0.75 Q494.35 0.0 497.3 0.0 L492.3 0.65 491.2 0.75 M590.05 63.25 Q593.35 68.8 590.8 71.55 L607.05 76.45 589.5 71.9 589.5 71.15 Q590.25 66.45 590.05 63.25 M687.9 83.8 L690.8 74.1 691.85 70.7 692.0 70.95 687.95 83.75 687.9 83.8 M692.5 68.55 Q700.55 42.05 700.55 40.65 701.05 41.85 692.85 68.3 L692.65 68.4 692.5 68.55 M671.2 104.85 Q669.95 102.55 669.15 101.75 668.3 100.95 666.15 101.45 L664.15 102.1 664.15 108.75 Q664.15 112.75 664.3 114.5 664.55 117.2 665.45 119.45 666.8 122.75 668.8 126.1 L670.1 125.5 Q671.55 124.4 672.15 122.1 L674.1 115.65 Q675.05 111.55 673.8 109.45 L671.2 104.85 M667.45 142.75 L667.9 139.9 667.8 138.75 657.8 138.75 661.45 152.75 667.15 151.75 667.15 151.35 667.7 153.3 Q668.5 155.3 669.8 154.45 670.95 153.7 671.35 152.55 671.8 151.35 672.15 151.1 L674.7 150.25 Q676.45 149.7 676.45 149.1 L676.35 147.3 Q675.95 146.2 674.45 145.75 673.15 145.4 671.8 143.8 L670.15 142.1 668.45 142.3 667.45 142.75 M655.8 125.75 L656.45 130.45 666.45 130.1 Q667.45 130.1 667.15 126.45 L655.8 125.75 M678.75 195.9 Q685.05 200.35 689.55 205.95 696.95 215.1 698.55 225.8 697.0 217.65 691.65 209.75 686.65 202.35 678.75 195.9 M571.55 71.55 L571.8 72.55 571.95 73.2 571.8 73.1 473.45 46.45 473.15 47.05 473.9 45.15 571.55 71.55 M572.1 74.3 Q572.5 78.3 570.45 81.3 L558.75 108.45 516.45 80.35 522.5 79.5 Q530.2 78.65 532.25 79.7 534.85 80.95 538.75 85.1 542.8 89.35 542.8 91.1 542.8 92.6 544.45 93.65 545.3 94.15 546.1 94.35 L561.5 95.15 570.45 81.3 Q571.95 76.2 572.1 74.3 M574.3 118.8 L582.45 96.1 Q587.85 85.8 589.1 76.3 L611.8 82.45 590.45 77.1 587.55 86.2 585.1 96.75 588.65 97.3 594.05 98.4 Q596.5 99.2 604.6 100.0 L607.85 91.9 611.8 82.45 593.8 131.75 574.3 118.8 M562.5 64.85 L475.05 42.0 475.45 41.05 475.35 41.5 482.65 43.1 491.1 42.8 501.35 43.1 508.6 45.55 Q514.15 47.85 515.2 50.45 L562.5 64.85 M493.75 18.6 Q496.2 19.25 498.1 21.15 495.7 19.5 493.75 18.6 M444.85 92.95 L467.65 108.95 466.7 109.0 452.45 98.75 444.85 92.95 M627.45 248.7 Q626.5 258.65 621.9 266.95 617.0 275.85 610.5 280.1 625.2 266.5 627.45 248.7" fill="#6c625a" fill-rule="evenodd" stroke="none"/>
    <path d="M714.1 37.05 L714.8 37.45 719.5 37.1 Q724.65 36.35 727.15 34.45 731.25 31.4 737.5 25.75 L739.7 23.75 Q743.95 20.75 744.8 19.45 L744.25 25.9 Q742.85 32.8 738.45 35.1 L738.2 35.4 734.95 39.55 732.45 42.75 729.6 42.65 Q726.5 43.0 725.45 45.1 724.45 47.15 720.95 58.0 L719.6 62.35 Q708.75 56.75 705.8 56.1 703.95 55.7 701.2 52.55 L698.8 49.45 698.5 50.2 Q698.15 51.2 698.15 52.45 698.15 53.85 706.85 59.6 715.35 65.2 717.8 65.75 L718.5 65.85 717.95 67.65 717.8 68.15 717.45 69.1 716.7 71.35 708.45 94.75 706.75 101.0 Q705.6 105.65 704.8 109.45 L703.75 114.6 Q703.6 116.3 704.45 116.75 704.65 123.0 703.95 120.2 L703.15 116.1 681.05 105.7 687.25 86.05 687.5 85.2 Q689.05 88.1 697.9 91.45 703.2 93.45 708.45 94.75 L709.15 92.1 696.45 87.45 Q694.15 86.6 691.6 84.75 L689.45 83.1 687.95 83.75 692.0 70.95 Q693.15 72.65 701.6 76.65 710.9 81.1 712.15 81.1 713.15 81.1 712.45 78.75 L705.45 76.45 Q703.4 75.85 698.2 71.9 L693.45 68.1 692.85 68.3 Q701.05 41.85 700.55 40.65 700.1 39.45 698.55 33.65 L697.9 31.0 697.5 29.4 Q707.95 34.5 709.35 34.75 L711.85 35.9 711.45 36.45 713.4 36.9 714.1 37.05 M698.0 28.6 L697.45 29.2 697.15 28.1 698.0 28.6 M694.05 132.55 L669.65 185.4 661.8 182.1 675.15 165.75 Q677.45 163.1 679.15 157.75 L679.45 149.45 Q679.45 148.4 678.15 143.3 L676.8 138.45 694.05 132.55 M650.15 94.35 L668.45 94.1 667.15 99.1 664.25 100.45 Q661.35 101.95 661.15 102.75 660.95 103.55 659.25 105.55 L657.15 108.1 655.15 110.45 646.5 106.9 646.15 106.75 650.15 94.35" fill="#24181b" fill-rule="evenodd" stroke="none"/>
    <path d="M732.45 42.75 Q733.65 49.3 733.8 56.2 733.65 73.3 727.4 92.2 L727.25 92.65 726.75 94.0 Q721.7 107.75 715.8 116.75 705.8 117.45 704.45 116.75 703.6 116.3 703.75 114.6 L704.8 109.45 Q705.6 105.65 706.75 101.0 L708.45 94.75 716.7 71.35 717.45 69.1 717.8 68.15 717.95 67.65 718.5 65.85 Q719.75 65.85 719.95 64.35 L719.8 62.45 719.65 62.35 719.6 62.35 720.95 58.0 Q724.45 47.15 725.45 45.1 726.5 43.0 729.6 42.65 L732.45 42.75" fill="#59403e" fill-rule="evenodd" stroke="none"/>
    <path d="M405.45 31.75 L443.8 29.45 457.45 37.4 458.75 37.75 450.45 57.75 Q450.45 60.9 458.45 63.8 462.45 65.25 466.45 66.1 L471.05 52.8 471.8 50.7 515.2 80.5 515.4 79.65 516.45 80.35 558.75 108.45 551.15 126.1 569.15 133.1 574.3 118.8 593.8 131.75 611.8 82.45 589.1 76.3 589.5 71.9 607.05 76.45 665.45 73.75 672.4 79.9 676.8 83.75 622.45 85.75 618.3 98.1 617.9 99.3 608.35 127.6 607.45 127.45 604.45 139.1 634.8 158.45 604.15 165.45 405.45 31.75 M571.55 71.55 L473.9 45.15 475.05 42.0 562.5 64.85 568.75 66.45 Q570.7 68.9 571.55 71.55" fill="#7e6f62" fill-rule="evenodd" stroke="none"/>
    <path d="M671.2 104.85 L673.8 109.45 Q675.05 111.55 674.1 115.65 L672.15 122.1 Q671.55 124.4 670.1 125.5 L668.8 126.1 Q666.8 122.75 665.45 119.45 664.55 117.2 664.3 114.5 664.15 112.75 664.15 108.75 L664.15 102.1 666.15 101.45 Q668.3 100.95 669.15 101.75 669.95 102.55 671.2 104.85 M667.15 151.35 Q666.9 146.6 667.2 144.15 L667.45 142.75 668.45 142.3 670.15 142.1 671.8 143.8 Q673.15 145.4 674.45 145.75 675.95 146.2 676.35 147.3 L676.45 149.1 Q676.45 149.7 674.7 150.25 L672.15 151.1 Q671.8 151.35 671.35 152.55 670.95 153.7 669.8 154.45 668.5 155.3 667.7 153.3 L667.15 151.35" fill="#e8d7c8" fill-rule="evenodd" stroke="none"/>
    <path d="M608.35 127.6 L620.8 129.45 625.8 142.45 614.8 145.1 604.45 139.1 607.45 127.45 608.35 127.6 M667.45 142.75 L667.2 144.15 Q666.9 146.6 667.15 151.35 L667.15 151.75 661.45 152.75 657.8 138.75 667.8 138.75 667.9 139.9 667.45 142.75 M655.8 125.75 L667.15 126.45 Q667.45 130.1 666.45 130.1 L656.45 130.45 655.8 125.75" fill="#2e2617" fill-rule="evenodd" stroke="none"/>
    <path d="M635.5 104.45 L639.45 108.5 645.45 115.1 Q646.9 117.0 652.2 138.9 L657.15 160.45 653.15 157.1 651.8 144.1 Q651.4 140.35 640.05 121.35 L628.8 103.1 634.0 103.95 635.15 104.1 635.5 104.45" fill="#5d4f47" fill-rule="evenodd" stroke="none"/>
    <path d="M648.5 191.9 L668.8 189.1 673.7 192.35 676.9 194.45 678.75 195.9 Q686.65 202.35 691.65 209.75 697.0 217.65 698.55 225.8 700.4 235.4 696.9 245.4 693.65 254.75 685.7 264.45 L684.8 265.45 683.05 265.85 677.95 266.9 Q672.8 267.65 651.9 272.25 L641.3 274.5 609.55 280.95 610.5 280.1 Q617.0 275.85 621.9 266.95 626.5 258.65 627.45 248.7 627.95 244.8 627.85 240.7 627.65 233.1 625.4 225.65 L624.8 224.0 622.8 217.75 626.45 208.45 627.05 208.6 Q627.75 208.7 628.3 208.3 630.15 206.95 630.15 201.1 L632.8 195.45 648.5 191.9" fill="#5e4c4a" fill-rule="evenodd" stroke="none"/>
    <path d="M673.7 192.35 Q707.0 207.55 704.15 232.65 703.45 239.05 700.4 245.55 L698.25 249.6 693.45 256.45 691.8 258.1 Q695.1 251.55 696.9 245.4 700.4 235.4 698.55 225.8 696.95 215.1 689.55 205.95 685.05 200.35 678.75 195.9 L676.9 194.45 673.7 192.35 M608.45 281.9 L607.8 282.45 602.45 283.25 601.15 283.45 Q608.9 277.1 614.45 266.55 625.6 245.5 614.8 224.45 L619.45 217.45 623.15 219.75 624.8 224.0 625.4 225.65 Q627.65 233.1 627.85 240.7 627.95 244.8 627.45 248.7 625.2 266.5 610.5 280.1 L609.55 280.95 608.45 281.9" fill="#ffffef" fill-rule="evenodd" stroke="none"/>
    <path d="M458.75 37.75 L458.85 37.45 465.15 22.7 Q465.9 20.8 466.8 19.1 L468.45 16.1 Q468.5 16.05 468.65 15.95 L472.05 12.05 Q475.85 8.05 479.55 5.4 L479.7 5.3 481.15 4.4 481.1 4.55 481.05 5.0 481.15 7.1 484.7 7.25 Q488.7 7.6 490.8 8.45 493.2 9.4 530.15 30.95 566.85 52.45 568.45 53.75 571.6 56.4 576.05 61.7 580.3 66.75 581.6 69.85 582.15 71.15 582.15 72.1 L581.95 74.4 581.05 79.2 Q580.3 82.8 581.45 83.75 L585.45 86.75 Q587.3 81.55 588.55 76.15 L589.2 72.85 589.4 71.85 589.5 71.15 589.5 71.9 589.1 76.3 Q587.85 85.8 582.45 96.1 L574.3 118.8 569.15 133.1 551.15 126.1 558.75 108.45 570.45 81.3 Q572.5 78.3 572.1 74.3 L571.95 73.2 571.8 72.55 571.55 71.55 Q570.7 68.9 568.75 66.45 563.7 60.1 551.15 55.1 532.8 47.8 513.6 33.75 507.65 29.35 502.25 24.8 L498.1 21.15 Q496.2 19.25 493.75 18.6 L492.35 18.3 Q485.7 17.45 481.15 27.45 478.45 33.35 475.45 41.05 L475.05 42.0 473.9 45.15 473.15 47.05 471.8 50.7 471.05 52.8 466.45 66.1 Q462.45 65.25 458.45 63.8 450.45 60.9 450.45 57.75 L458.75 37.75 M487.65 1.4 L491.2 0.75 492.3 0.65 490.05 1.0 487.65 1.4 M507.95 6.7 L551.05 33.5 Q585.55 55.15 586.45 56.45 585.05 55.9 580.55 53.25 L559.75 40.25 539.2 26.95 507.95 6.7" fill="#4a3939" fill-rule="evenodd" stroke="none"/>
    <path d="M481.15 4.4 Q481.4 2.8 482.45 2.45 L487.65 1.4 490.05 1.0 492.3 0.65 497.3 0.0 507.95 6.7 539.2 26.95 559.75 40.25 580.55 53.25 Q585.05 55.9 586.45 56.45 589.65 57.7 590.05 63.25 590.25 66.45 589.5 71.15 L589.4 71.85 589.2 72.85 588.55 76.15 Q587.3 81.55 585.45 86.75 L581.45 83.75 Q580.3 82.8 581.05 79.2 L581.95 74.4 582.15 72.1 Q582.15 71.15 581.6 69.85 580.3 66.75 576.05 61.7 571.6 56.4 568.45 53.75 566.85 52.45 530.15 30.95 493.2 9.4 490.8 8.45 488.7 7.6 484.7 7.25 L481.15 7.1 481.05 5.0 481.1 4.55 481.15 4.4" fill="#8d7664" fill-rule="evenodd" stroke="none"/>
    <path d="M473.15 47.05 L473.45 46.45 571.8 73.1 571.95 73.2 572.1 74.3 Q571.95 76.2 570.45 81.3 L518.45 67.5 515.4 79.65 515.2 80.5 471.8 50.7 473.15 47.05" fill="#4b4642" fill-rule="evenodd" stroke="none"/>
    <path d="M587.55 86.2 L590.45 77.1 611.8 82.45 607.85 91.9 587.55 86.2" fill="#4c3833" fill-rule="evenodd" stroke="none"/>
    <path d="M321.85 228.7 Q317.5 230.6 308.6 231.55 L295.8 232.25 Q281.15 233.05 278.7 232.25 277.2 231.75 270.5 227.9 L266.65 225.65 285.05 224.3 288.95 222.85 295.05 220.3 Q296.95 219.35 297.45 215.0 L297.55 210.8 214.05 215.8 Q214.05 217.65 208.9 228.15 L208.0 228.2 Q206.6 231.25 202.6 234.8 197.7 239.15 191.05 241.8 186.85 243.45 181.95 244.45 169.25 247.0 160.1 241.1 157.25 239.25 155.1 236.8 L154.65 236.2 184.55 234.8 Q192.05 229.8 193.55 227.8 194.5 226.55 194.85 221.05 L195.05 215.8 172.1 219.05 148.1 222.3 Q150.05 217.7 151.65 212.6 L194.8 207.55 Q195.8 207.35 198.45 206.0 201.2 204.6 201.55 204.05 201.9 203.55 202.45 200.75 203.1 197.2 203.0 194.15 202.6 184.8 195.05 184.8 L157.8 188.55 155.6 194.55 Q156.9 184.65 155.95 175.3 L202.05 171.05 Q204.95 165.6 205.6 159.7 206.9 147.8 195.8 145.3 L150.55 149.8 150.7 153.9 Q148.65 148.8 145.9 143.9 L186.3 140.3 Q186.75 135.8 185.75 131.4 183.85 122.6 176.8 123.05 L153.25 125.25 Q165.35 114.25 180.75 119.05 187.15 121.05 192.35 124.7 L194.0 126.7 189.05 123.3 197.2 133.7 Q206.25 146.9 210.75 160.85 225.1 205.5 188.55 240.8 L191.05 241.8 208.0 228.2 Q213.95 217.55 217.25 204.75 L303.3 196.55 Q317.7 184.85 309.55 177.65 307.0 175.4 302.55 173.85 L298.55 172.8 221.8 181.8 Q221.9 182.7 220.4 186.7 221.05 179.7 220.55 173.25 L235.05 171.8 237.55 171.05 Q240.25 166.9 239.9 160.8 240.55 167.85 237.55 171.05 L238.85 171.55 241.05 172.05 Q288.15 165.55 292.1 163.45 289.05 170.75 292.3 163.3 L299.05 162.8 301.3 163.3 304.55 162.05 Q305.5 157.85 305.45 153.2 L305.35 150.9 Q306.65 156.5 304.55 162.05 L308.8 165.3 Q311.45 160.45 312.0 154.75 313.2 143.35 303.05 139.3 L300.3 141.3 296.8 140.8 296.15 143.0 Q295.25 142.0 294.05 141.8 L289.55 142.8 289.95 143.7 Q289.3 143.05 288.55 142.55 L268.7 143.25 294.05 141.8 288.05 138.05 284.35 137.4 Q285.5 134.15 285.25 131.1 285.9 134.6 285.55 137.55 L288.05 138.05 288.6 136.05 297.05 136.3 Q300.0 127.55 294.2 121.55 292.4 119.7 289.9 118.3 L287.8 117.3 281.85 117.3 279.55 116.8 277.55 119.3 273.3 119.3 Q277.35 121.2 277.35 128.8 277.35 132.1 276.75 135.15 277.35 131.45 276.65 127.4 275.25 119.35 268.55 116.85 L270.6 115.15 292.2 114.65 285.55 115.05 291.8 117.2 Q299.3 120.45 305.45 126.0 325.15 143.85 324.05 178.05 322.95 212.25 305.0 225.7 299.4 229.9 292.8 231.5 L287.3 232.3 321.85 228.7 M142.1 234.7 L141.3 234.7 Q141.3 237.05 134.1 242.9 125.9 249.55 117.75 251.75 110.15 253.8 98.55 249.3 L88.45 244.45 Q94.2 234.0 97.8 221.2 L123.05 218.3 124.3 218.45 127.35 217.8 Q132.15 215.8 134.8 208.3 137.45 200.8 128.75 194.55 126.05 192.6 122.55 191.0 L119.55 189.8 102.65 191.05 Q102.8 186.1 102.55 181.4 L133.55 177.8 Q135.45 177.6 136.75 173.65 138.05 169.55 138.05 163.3 138.05 158.0 129.8 154.0 L121.55 151.05 116.4 147.95 116.7 146.5 116.75 146.15 Q116.75 145.35 115.6 144.85 L115.45 144.8 116.35 142.3 Q117.95 137.55 117.1 136.3 112.9 130.3 110.6 129.3 108.4 128.35 105.35 127.45 101.6 126.4 100.2 126.55 L87.65 128.15 Q103.15 112.35 121.15 119.8 L115.8 119.55 113.05 119.3 127.05 126.3 133.9 136.7 Q141.5 149.9 145.45 163.8 157.95 208.3 128.55 243.3 L128.05 246.8 134.05 242.3 141.3 234.7 144.95 228.75 142.1 234.7 M82.8 246.9 Q81.25 252.0 73.65 254.7 64.5 257.05 60.85 258.25 56.25 259.8 43.05 253.5 L30.75 246.9 25.55 234.8 Q20.5 225.6 20.25 223.5 20.15 222.85 20.55 223.0 19.7 222.15 19.0 219.95 L33.85 218.65 35.15 214.0 Q37.15 210.2 37.75 206.0 38.85 197.6 31.65 195.7 L18.5 197.1 Q18.35 190.6 17.75 186.1 L16.95 181.85 Q16.55 181.45 16.3 180.75 L31.85 179.4 33.15 174.75 Q35.15 170.95 35.75 166.75 36.85 158.35 29.65 156.45 L18.6 157.65 Q20.4 151.85 23.7 145.45 L25.45 142.2 Q25.3 143.0 25.3 143.9 25.3 147.15 27.0 149.45 28.25 151.15 29.95 151.6 27.35 151.4 26.3 149.05 L26.95 150.8 Q27.8 152.7 29.05 153.3 31.05 154.3 38.05 154.8 L54.3 152.3 55.3 147.55 Q57.05 143.6 57.35 139.4 57.9 130.95 50.55 129.55 L31.7 132.85 Q43.4 118.65 60.7 122.6 69.45 124.6 76.35 129.6 L74.8 129.8 75.8 131.2 73.75 130.95 79.8 138.05 Q86.65 147.5 90.65 159.5 103.45 197.85 82.8 246.9 M128.2 123.5 L133.05 127.1 132.6 127.15 131.3 126.05 128.2 123.5 M533.1 145.55 Q533.15 143.35 532.5 141.2 L531.95 139.75 532.55 139.8 Q533.9 140.25 533.95 145.25 L533.1 145.55 M349.15 165.1 L477.05 155.1 Q467.1 157.2 464.2 159.5 L349.3 169.8 349.15 165.1 M484.6 117.8 L495.35 125.35 493.95 125.5 478.05 114.45 479.55 114.35 484.6 117.8 M492.4 125.7 L486.95 126.35 473.3 128.05 462.2 127.8 492.4 125.7 M454.65 128.35 L454.25 128.75 454.15 131.35 454.15 131.65 343.05 139.8 343.85 142.1 340.85 136.35 454.65 128.35 M531.15 185.85 Q528.4 184.35 524.85 184.45 L489.95 186.35 Q484.55 186.95 481.45 187.9 475.6 189.85 474.35 191.45 L474.3 192.15 429.55 197.1 352.3 204.7 340.4 205.8 343.3 199.55 530.55 180.95 Q531.9 180.95 532.5 179.95 534.0 180.8 533.3 182.9 L532.6 184.45 531.55 185.8 531.15 185.85 M221.0 132.1 Q222.05 136.85 220.3 142.3 L220.0 143.35 222.3 143.55 Q223.8 138.05 223.8 132.25 223.8 128.7 223.1 126.15 224.6 131.15 223.8 138.8 L228.75 143.65 219.7 144.35 220.0 143.35 219.8 143.3 219.5 144.35 211.65 145.0 210.15 142.7 219.8 141.3 221.0 132.1 M229.9 143.7 L229.95 143.7 Q233.8 147.85 235.5 153.0 L234.95 151.7 Q233.6 148.5 231.55 145.7 L229.9 143.7 M234.55 143.8 L235.55 144.8 236.65 148.2 235.95 146.6 234.55 143.8 M292.55 162.3 Q293.35 158.85 293.45 154.9 L293.45 153.05 Q294.25 158.2 292.55 162.3 M289.0 134.55 Q290.5 128.7 290.3 126.55 290.15 124.75 288.9 122.75 L286.55 119.55 Q290.5 122.45 290.35 128.1 290.25 131.45 289.0 134.55 M283.35 125.35 L282.5 124.0 Q281.15 122.1 279.2 120.5 L277.55 119.3 Q281.35 121.4 283.35 125.35 M32.25 136.25 Q34.9 136.25 36.25 139.95 L35.3 138.4 Q34.0 136.6 32.25 136.25 M37.05 143.35 L37.3 145.55 36.7 146.6 Q37.05 145.35 37.05 143.9 L37.05 143.35 M34.6 150.25 L34.3 150.8 33.5 151.15 34.6 150.25 M62.8 168.1 L63.05 170.3 62.45 171.35 Q62.8 170.1 62.8 168.65 L62.8 168.1 M60.35 175.0 L60.05 175.55 59.7 175.75 60.05 175.3 60.35 175.0 M81.05 172.3 Q82.8 168.35 83.1 164.15 83.65 155.7 76.3 154.3 L54.8 158.05 52.8 160.65 Q50.8 163.6 50.8 165.3 51.4 164.55 52.35 163.75 51.05 165.8 51.05 168.65 L51.15 169.9 Q50.05 170.1 49.05 170.8 45.1 173.65 44.85 185.4 44.65 197.2 48.55 199.8 52.95 202.75 55.3 202.6 L55.5 202.6 55.3 203.8 56.8 202.3 56.85 202.25 Q55.55 204.3 55.55 207.15 55.55 210.4 57.25 212.7 58.5 214.4 60.2 214.85 57.6 214.65 56.55 212.3 L57.2 214.05 Q58.05 215.95 59.3 216.55 61.3 217.55 68.3 218.05 L84.55 215.55 85.55 210.8 Q87.3 206.85 87.6 202.65 88.15 194.2 80.8 192.8 L61.7 196.15 59.6 194.35 Q61.4 190.6 61.4 185.55 61.4 182.1 60.55 179.3 L63.8 179.55 80.05 177.05 81.05 172.3 M58.0 161.0 Q60.65 161.0 62.0 164.7 L61.05 163.15 Q59.75 161.35 58.0 161.0 M123.05 233.35 Q125.3 229.05 126.55 224.8 L97.05 225.8 91.05 241.3 113.55 242.3 Q118.55 242.0 123.05 233.35 M64.55 214.05 L63.75 214.4 64.85 213.5 64.55 214.05 M62.5 199.5 Q65.15 199.5 66.5 203.2 L65.55 201.65 Q64.25 199.85 62.5 199.5 M67.3 206.6 L67.55 208.8 66.95 209.85 Q67.3 208.6 67.3 207.15 L67.3 206.6 M41.55 236.35 L41.8 238.55 41.2 239.6 Q41.55 238.35 41.55 236.9 L41.55 236.35 M39.1 243.25 L38.8 243.8 38.0 244.15 39.1 243.25 M59.8 240.55 Q61.55 236.6 61.85 232.4 62.4 223.95 55.05 222.55 L33.55 226.3 31.55 228.9 Q29.55 231.85 29.55 233.55 30.15 232.8 31.1 232.0 29.8 234.05 29.8 236.9 29.8 240.15 31.5 242.45 32.75 244.15 34.45 244.6 31.85 244.4 30.8 242.05 L31.45 243.8 Q32.3 245.7 33.55 246.3 35.55 247.3 42.55 247.8 L58.8 245.3 59.8 240.55 M36.75 229.25 Q39.4 229.25 40.75 232.95 L39.8 231.4 Q38.5 229.6 36.75 229.25 M17.2 207.9 L17.35 210.05 17.2 208.55 17.2 207.9" fill="#191413" fill-rule="evenodd" stroke="none"/>
    <path d="M531.95 139.75 L532.5 141.2 Q533.15 143.35 533.1 145.55 527.25 147.3 518.2 148.8 L495.4 152.05 Q484.35 153.55 477.05 155.1 L349.15 165.1 349.05 164.05 Q348.6 158.1 347.35 152.65 346.3 148.4 344.8 144.5 L461.8 134.9 468.65 135.0 Q480.0 135.0 490.45 132.75 L491.85 132.45 504.85 131.4 511.75 130.8 Q528.25 131.4 531.95 139.75" fill="#574c47" fill-rule="evenodd" stroke="none"/>
    <path d="M391.05 51.4 L391.15 50.75 396.05 52.85 398.15 53.75 405.45 31.75 604.15 165.45 591.8 196.1 540.75 160.25 Q541.45 158.9 541.3 157.3 540.15 153.4 540.15 151.9 540.15 148.75 539.6 147.3 538.95 145.5 537.05 144.15 L533.95 145.25 Q533.9 140.25 532.55 139.8 L531.95 139.75 Q528.25 131.4 511.75 130.8 L504.85 131.4 503.4 130.4 Q506.25 129.0 506.25 127.25 506.25 124.85 505.8 124.65 L505.3 124.95 Q502.35 123.9 499.25 124.85 L498.6 125.1 495.8 125.3 484.6 117.8 479.55 114.35 479.4 114.35 478.6 113.85 477.3 113.9 470.05 108.85 467.65 108.95 444.85 92.95 434.15 84.75 430.45 82.8 390.45 54.75 391.05 51.4" fill="#21201d" fill-rule="evenodd" stroke="none"/>
    <path d="M446.5 109.85 L448.0 106.95 Q450.05 102.9 452.45 98.75 L466.7 109.0 446.5 109.85 M539.7 161.65 L549.15 168.45 546.9 176.15 Q544.2 184.55 542.15 188.1 L536.2 197.65 Q532.3 203.0 529.45 203.45 L521.15 204.8 512.8 204.45 512.25 204.25 528.55 202.8 528.95 197.8 534.35 197.4 536.3 197.0 Q536.55 196.5 536.95 196.4 L537.05 194.1 Q537.05 191.6 534.35 188.5 L532.45 186.7 532.6 184.45 533.3 182.9 Q534.0 180.8 532.5 179.95 533.6 178.1 532.3 173.1 L529.85 166.15 535.3 164.4 537.15 164.25 537.2 163.5 537.45 163.35 539.7 161.65" fill="#0d0b0a" fill-rule="evenodd" stroke="none"/>
    <path d="M532.5 179.95 Q531.9 180.95 530.55 180.95 L343.3 199.55 Q345.9 193.35 347.4 187.0 348.7 181.15 349.15 175.15 L463.45 168.9 463.45 169.5 470.2 170.3 Q512.95 170.3 529.85 166.15 L532.3 173.1 Q533.6 178.1 532.5 179.95" fill="#5c4f44" fill-rule="evenodd" stroke="none"/>
    <path d="M604.15 165.45 L619.8 163.45 613.5 182.65 613.45 182.75 604.8 177.75 601.55 191.4 601.45 191.75 591.8 196.1 604.15 165.45" fill="#3b3028" fill-rule="evenodd" stroke="none"/>
    <path d="M613.5 182.65 L624.15 189.75 603.8 199.1 601.55 191.4 604.8 177.75 613.45 182.75 613.5 182.65" fill="#7d766a" fill-rule="evenodd" stroke="none"/>
    <path d="M425.75 109.75 L416.0 104.9 418.55 99.3 421.9 92.25 427.15 81.1 430.45 82.8 434.15 84.75 425.75 109.75 M396.4 91.1 L395.8 90.75 405.1 72.5 407.8 67.1 415.15 72.75 405.15 95.75 396.4 91.1" fill="#261f22" fill-rule="evenodd" stroke="none"/>
    <path d="M448.0 106.95 L425.75 109.75 434.15 84.75 444.85 92.95 452.45 98.75 Q450.05 102.9 448.0 106.95 M415.15 72.75 L427.15 81.1 421.9 92.25 420.05 95.95 405.15 95.75 415.15 72.75" fill="#16110e" fill-rule="evenodd" stroke="none"/>
    <path d="M331.05 220.15 L327.75 224.05 323.3 228.55 321.85 228.7 287.3 232.3 292.8 231.5 Q299.4 229.9 305.0 225.7 322.95 212.25 324.05 178.05 325.15 143.85 305.45 126.0 299.3 120.45 291.8 117.2 L285.55 115.05 292.2 114.65 314.8 113.3 319.0 115.3 319.75 115.65 Q324.25 118.15 328.3 121.5 L330.8 123.75 Q336.8 129.4 340.85 136.35 L343.85 142.1 344.8 144.5 Q346.3 148.4 347.35 152.65 348.6 158.1 349.05 164.05 L349.15 165.1 349.3 169.8 349.15 175.15 Q348.7 181.15 347.4 187.0 345.9 193.35 343.3 199.55 L340.4 205.8 340.05 205.8 335.3 213.25 Q330.85 219.8 329.4 220.3 L331.05 220.15 M88.45 244.45 L82.8 246.9 Q103.45 197.85 90.65 159.5 86.65 147.5 79.8 138.05 L73.75 130.95 75.8 131.2 81.55 131.8 Q88.85 139.8 93.7 148.95 L93.4 148.95 96.05 155.55 96.7 155.45 Q101.65 167.5 102.55 181.4 102.8 186.1 102.65 191.05 102.4 198.2 101.15 205.75 99.8 213.85 97.8 221.2 94.2 234.0 88.45 244.45 M121.15 119.8 L121.55 119.8 Q123.45 119.8 128.2 123.5 L131.3 126.05 132.6 127.15 138.05 132.25 Q142.5 137.95 145.9 143.9 148.65 148.8 150.7 153.9 154.85 164.25 155.95 175.3 156.9 184.65 155.6 194.55 L154.3 202.2 Q153.15 207.65 151.65 212.6 150.05 217.7 148.1 222.3 L148.05 222.3 144.95 228.75 141.3 234.7 134.05 242.3 128.05 246.8 128.55 243.3 Q157.95 208.3 145.45 163.8 141.5 149.9 133.9 136.7 L127.05 126.3 113.05 119.3 115.8 119.55 121.15 119.8 M210.15 142.7 L211.65 145.0 Q219.4 157.45 220.55 173.25 221.05 179.7 220.4 186.7 L219.7 192.55 Q218.75 198.9 217.25 204.75 213.95 217.55 208.0 228.2 L191.05 241.8 188.55 240.8 Q225.1 205.5 210.75 160.85 206.25 146.9 197.2 133.7 L189.05 123.3 194.0 126.7 197.4 129.0 Q205.0 135.25 210.15 142.7" fill="#7d726a" fill-rule="evenodd" stroke="none"/>
    <path d="M319.0 115.3 L446.5 109.85 466.7 109.0 467.65 108.95 470.05 108.85 477.3 113.9 478.05 114.45 493.95 125.5 492.4 125.7 462.2 127.8 454.9 127.65 454.65 128.35 340.85 136.35 Q336.8 129.4 330.8 123.75 L328.3 121.5 Q324.25 118.15 319.75 115.65 L319.0 115.3" fill="#5d584e" fill-rule="evenodd" stroke="none"/>
    <path d="M601.9 226.0 L604.1 224.55 Q605.3 223.75 606.45 224.1 607.7 224.5 607.7 225.5 L607.45 226.45 Q604.55 228.1 602.9 229.65 L601.8 230.75 Q599.6 233.45 598.75 234.95 597.15 237.95 598.45 239.45 599.7 240.9 601.4 241.65 L602.8 242.1 605.5 239.6 608.15 237.1 610.35 238.05 Q612.25 239.2 610.8 240.45 L607.6 244.05 606.35 245.15 Q604.6 246.3 602.45 246.45 598.3 246.7 595.7 245.4 592.75 243.9 593.45 241.1 596.6 228.55 600.45 226.75 L601.9 226.0" fill="#ebdcd4" fill-rule="evenodd" stroke="none"/>
    <path d="M591.15 285.85 L589.95 286.1 589.8 286.1 573.9 285.6 571.65 285.15 Q564.1 283.4 560.25 279.35 L558.45 277.1 Q553.5 269.3 547.45 258.3 541.15 247.0 541.15 245.75 541.15 244.7 533.05 238.15 L524.95 231.75 505.5 226.65 Q500.9 225.3 499.8 224.75 497.4 223.6 494.55 220.6 L492.2 217.9 Q490.2 215.4 489.05 213.1 487.35 209.5 487.7 206.4 L505.85 204.8 512.8 205.75 Q516.75 206.15 525.5 205.75 535.9 205.3 537.45 203.75 539.8 201.45 545.15 198.1 L546.7 198.6 Q547.9 199.45 546.45 201.1 L543.45 204.8 Q541.5 206.85 538.15 208.75 535.15 210.45 528.35 213.55 521.7 216.6 520.8 217.1 519.1 218.1 518.95 219.65 518.8 221.2 520.15 221.45 L525.25 221.2 Q529.4 220.6 532.15 219.45 534.65 218.4 544.55 211.35 L556.45 202.75 561.9 198.8 Q564.8 197.15 564.8 200.1 L564.25 206.35 Q563.9 209.35 564.45 210.1 L566.7 212.4 Q568.15 214.0 568.15 215.45 568.15 216.7 567.0 221.2 565.8 225.7 565.8 226.45 565.8 227.55 566.55 230.65 L567.8 235.1 Q568.8 238.2 569.5 244.9 570.4 253.55 568.45 255.45 L563.15 260.75 563.35 261.75 Q563.75 262.75 564.8 262.75 L575.9 261.2 Q585.95 259.4 586.8 258.1 588.2 256.05 590.5 250.95 593.15 244.95 593.15 242.75 593.15 240.95 591.8 235.1 590.45 229.3 590.45 228.45 590.45 226.95 591.55 224.8 592.65 222.65 594.15 221.45 L596.7 218.9 Q598.0 217.7 598.8 218.1 600.15 218.75 601.8 225.75 L601.9 226.0 600.45 226.75 Q596.6 228.55 593.45 241.1 592.75 243.9 595.7 245.4 598.3 246.7 602.45 246.45 604.6 246.3 606.35 245.15 L606.15 247.75 Q605.5 249.95 603.95 258.25 602.1 266.3 599.45 269.75 598.2 271.45 595.65 279.8 594.15 284.75 591.15 285.85 M602.9 229.65 L604.45 235.15 605.5 239.6 602.8 242.1 601.4 241.65 Q599.7 240.9 598.45 239.45 597.15 237.95 598.75 234.95 599.6 233.45 601.8 230.75 L602.9 229.65" fill="#141314" fill-rule="evenodd" stroke="none"/>
    <path d="M217.15 124.4 Q215.95 122.9 214.45 121.65 L212.55 120.3 216.3 119.05 Q219.9 119.8 221.8 122.9 222.5 124.1 223.0 125.65 L223.1 126.15 Q223.8 128.7 223.8 132.25 223.8 138.05 222.3 143.55 L220.0 143.35 220.3 142.3 Q222.05 136.85 221.0 132.1 220.45 129.5 219.05 127.1 L218.2 125.75 217.15 124.4 M219.5 144.35 L219.8 143.3 220.0 143.35 219.7 144.35 219.5 144.35 M229.95 143.7 L234.55 143.8 235.95 146.6 236.65 148.2 239.0 155.3 Q239.7 158.3 239.9 160.8 240.25 166.9 237.55 171.05 L235.05 171.8 Q236.6 167.8 236.75 162.25 236.85 157.3 235.5 153.0 233.8 147.85 229.95 143.7" fill="#4d453d" fill-rule="evenodd" stroke="none"/>
    <path d="M221.8 122.9 L221.7 122.75 Q220.7 121.05 219.4 120.0 L218.3 119.3 266.8 116.3 268.55 116.85 Q275.25 119.35 276.65 127.4 277.35 131.45 276.75 135.15 275.15 135.15 274.0 135.7 L273.2 136.25 265.9 136.6 265.45 136.35 Q264.35 135.8 262.75 135.8 261.15 135.8 260.0 136.35 L259.15 136.95 252.0 137.35 251.45 137.0 Q250.3 136.45 248.75 136.45 247.15 136.45 246.0 137.0 245.4 137.3 245.1 137.7 L238.05 138.05 237.45 137.7 Q236.35 137.15 234.75 137.15 233.15 137.15 232.0 137.7 231.3 138.0 231.05 138.45 L223.8 138.8 Q224.6 131.15 223.1 126.15 L223.0 125.65 Q222.5 124.1 221.8 122.9" fill="#736459" fill-rule="evenodd" stroke="none"/>
    <path d="M133.05 127.1 L153.25 125.25 176.8 123.05 Q183.85 122.6 185.75 131.4 186.75 135.8 186.3 140.3 L145.9 143.9 Q142.5 137.95 138.05 132.25 L132.6 127.15 133.05 127.1 M192.35 124.7 L191.55 123.8 213.55 121.8 217.15 124.4 218.2 125.75 219.05 127.1 Q220.45 129.5 221.0 132.1 L219.8 141.3 210.15 142.7 Q205.0 135.25 197.4 129.0 L194.0 126.7 192.35 124.7" fill="#70675e" fill-rule="evenodd" stroke="none"/>
    <path d="M150.7 153.9 L150.55 149.8 195.8 145.3 Q206.9 147.8 205.6 159.7 204.95 165.6 202.05 171.05 L155.95 175.3 Q154.85 164.25 150.7 153.9 M121.55 151.05 L129.8 154.0 Q138.05 158.0 138.05 163.3 138.05 169.55 136.75 173.65 135.45 177.6 133.55 177.8 L102.55 181.4 Q101.65 167.5 96.7 155.45 L121.55 151.05" fill="#625e51" fill-rule="evenodd" stroke="none"/>
    <path d="M228.75 143.65 L223.8 138.8 231.05 138.45 Q231.3 138.0 232.0 137.7 233.15 137.15 234.75 137.15 236.35 137.15 237.45 137.7 L238.05 138.05 245.1 137.7 Q245.4 137.3 246.0 137.0 247.15 136.45 248.75 136.45 250.3 136.45 251.45 137.0 L252.0 137.35 259.15 136.95 260.0 136.35 Q261.15 135.8 262.75 135.8 264.35 135.8 265.45 136.35 L265.9 136.6 273.2 136.25 274.0 135.7 Q275.15 135.15 276.75 135.15 278.35 135.15 279.45 135.7 280.4 136.15 280.55 136.75 L284.35 137.4 288.05 138.05 294.05 141.8 268.7 143.25 235.55 144.8 234.55 143.8 229.95 143.7 229.9 143.7 228.75 143.65 M230.95 139.2 L231.25 142.15 237.9 142.45 238.5 139.3 237.45 140.25 Q236.3 140.8 234.75 140.8 233.15 140.8 232.0 140.25 231.05 139.8 230.95 139.2 M252.5 138.65 L251.45 139.6 Q250.3 140.15 248.75 140.15 247.15 140.15 246.0 139.6 245.05 139.15 244.95 138.55 L245.25 141.45 251.9 141.8 252.5 138.65 M259.25 140.8 L265.9 141.15 266.5 138.0 Q266.3 138.55 265.45 138.95 L262.75 139.45 260.0 138.95 Q259.05 138.5 258.95 137.9 L259.25 140.8 M273.25 140.15 L279.9 140.45 280.5 137.3 279.45 138.25 Q278.3 138.8 276.75 138.8 275.15 138.8 274.0 138.25 273.05 137.8 272.95 137.2 L273.25 140.15 M95.75 148.7 L96.65 148.0 Q97.8 147.45 99.4 147.45 100.95 147.45 102.1 148.0 L102.25 148.05 Q103.25 148.6 103.25 149.3 L103.2 149.7 102.1 150.6 99.4 151.15 Q97.8 151.15 96.65 150.6 95.7 150.15 95.6 149.55 L95.55 149.3 95.75 148.75 95.75 148.7 M109.1 146.35 L109.05 146.15 Q109.05 145.35 110.15 144.85 111.3 144.3 112.9 144.3 L115.45 144.8 115.6 144.85 Q116.75 145.35 116.75 146.15 L116.7 146.5 Q116.45 147.05 115.6 147.45 L112.9 147.95 Q111.3 147.95 110.15 147.45 L109.85 147.3 Q109.2 146.85 109.1 146.35" fill="#70695d" fill-rule="evenodd" stroke="none"/>
    <path d="M220.55 173.25 Q219.4 157.45 211.65 145.0 L219.5 144.35 219.7 144.35 228.75 143.65 229.9 143.7 231.55 145.7 Q233.6 148.5 234.95 151.7 L235.5 153.0 Q236.85 157.3 236.75 162.25 236.6 167.8 235.05 171.8 L220.55 173.25" fill="#716a5d" fill-rule="evenodd" stroke="none"/>
    <path d="M62.0 164.7 Q62.7 166.2 62.8 168.1 L62.8 168.65 Q62.8 170.1 62.45 171.35 L60.35 175.0 60.05 175.3 59.25 175.9 59.15 175.9 56.8 176.35 55.7 176.35 Q54.0 175.9 52.75 174.2 52.05 173.25 51.65 172.15 51.25 171.1 51.15 169.9 L51.05 168.65 Q51.05 165.8 52.35 163.75 L52.5 163.6 Q54.55 161.8 56.35 161.25 L58.0 161.0 Q59.75 161.35 61.05 163.15 L62.0 164.7" fill="#0f0602" fill-rule="evenodd" stroke="none"/>
    <path d="M277.55 119.3 L279.55 116.8 281.85 117.3 281.55 117.3 Q284.55 118.1 286.55 119.55 L288.9 122.75 Q290.15 124.75 290.3 126.55 290.5 128.7 289.0 134.55 L288.3 136.05 288.6 136.05 288.05 138.05 285.55 137.55 Q285.9 134.6 285.25 131.1 L285.1 130.4 Q284.5 127.55 283.35 125.35 281.35 121.4 277.55 119.3" fill="#767061" fill-rule="evenodd" stroke="none"/>
    <path d="M281.85 117.3 L287.8 117.3 289.9 118.3 Q292.4 119.7 294.2 121.55 300.0 127.55 297.05 136.3 L288.6 136.05 288.3 136.05 289.0 134.55 Q290.25 131.45 290.35 128.1 290.5 122.45 286.55 119.55 284.55 118.1 281.55 117.3 L281.85 117.3" fill="#2d2721" fill-rule="evenodd" stroke="none"/>
    <path d="M284.35 137.4 L280.55 136.75 Q280.4 136.15 279.45 135.7 278.35 135.15 276.75 135.15 277.35 132.1 277.35 128.8 277.35 121.2 273.3 119.3 L277.55 119.3 279.2 120.5 Q281.15 122.1 282.5 124.0 L283.35 125.35 Q284.5 127.55 285.1 130.4 L285.25 131.1 Q285.5 134.15 284.35 137.4" fill="#8b7c6f" fill-rule="evenodd" stroke="none"/>
    <path d="M235.55 144.8 L268.7 143.25 288.55 142.55 Q289.3 143.05 289.95 143.7 L292.45 149.2 293.45 153.05 293.45 154.9 Q293.35 158.85 292.55 162.3 L292.1 163.45 Q288.15 165.55 241.05 172.05 L238.85 171.55 237.55 171.05 Q240.55 167.85 239.9 160.8 239.7 158.3 239.0 155.3 L236.65 148.2 235.55 144.8" fill="#60564c" fill-rule="evenodd" stroke="none"/>
    <path d="M305.35 150.9 Q304.9 149.1 304.1 147.25 303.1 144.95 301.6 142.9 L300.3 141.3 303.05 139.3 Q313.2 143.35 312.0 154.75 311.45 160.45 308.8 165.3 L304.55 162.05 Q306.65 156.5 305.35 150.9" fill="#4a413b" fill-rule="evenodd" stroke="none"/>
    <path d="M299.05 162.8 L299.25 158.3 Q299.05 155.0 298.0 150.5 L296.05 143.3 296.15 143.0 296.8 140.8 300.3 141.3 301.6 142.9 Q303.1 144.95 304.1 147.25 304.9 149.1 305.35 150.9 L305.45 153.2 Q305.5 157.85 304.55 162.05 L301.3 163.3 299.05 162.8" fill="#a0978f" fill-rule="evenodd" stroke="none"/>
    <path d="M292.1 163.45 L292.55 162.3 Q294.25 158.2 293.45 153.05 L292.45 149.2 289.95 143.7 289.55 142.8 294.05 141.8 Q295.25 142.0 296.15 143.0 L296.05 143.3 298.0 150.5 Q299.05 155.0 299.25 158.3 L299.05 162.8 292.3 163.3 Q289.05 170.75 292.1 163.45" fill="#6f6660" fill-rule="evenodd" stroke="none"/>
    <path d="M217.25 204.75 Q218.75 198.9 219.7 192.55 L220.4 186.7 Q221.9 182.7 221.8 181.8 L298.55 172.8 302.55 173.85 Q307.0 175.4 309.55 177.65 317.7 184.85 303.3 196.55 L217.25 204.75" fill="#3f3731" fill-rule="evenodd" stroke="none"/>
    <path d="M7.15 203.45 L5.45 204.95 Q5.6 203.25 7.8 200.45 L9.95 198.0 18.5 197.1 31.65 195.7 Q38.85 197.6 37.75 206.0 37.15 210.2 35.15 214.0 L14.0 215.8 14.4 215.25 16.6 211.9 17.35 210.75 17.35 210.05 17.2 207.9 17.0 206.2 16.7 205.1 Q15.6 201.35 12.95 201.1 L11.3 201.25 Q9.2 201.8 7.15 203.45 M5.15 164.2 L3.45 165.7 Q3.6 164.0 5.8 161.2 L7.95 158.75 18.6 157.65 29.65 156.45 Q36.85 158.35 35.75 166.75 35.15 170.95 33.15 174.75 L12.0 176.55 12.4 176.0 14.6 172.65 15.35 171.5 15.2 168.65 Q15.15 167.15 14.7 165.9 13.6 162.1 10.95 161.85 L9.3 162.0 Q7.2 162.55 5.15 164.2 M26.6 139.0 Q25.65 139.8 25.05 140.55 25.05 138.85 27.05 135.9 L29.05 133.3 31.7 132.85 50.55 129.55 Q57.9 130.95 57.35 139.4 57.05 143.6 55.3 147.55 L34.3 150.8 34.6 150.25 36.7 146.6 37.3 145.55 37.05 143.35 Q36.95 141.45 36.25 139.95 34.9 136.25 32.25 136.25 L30.6 136.5 Q29.4 136.85 28.1 137.8 L26.75 138.85 26.6 139.0 M62.8 168.1 Q62.7 166.2 62.0 164.7 60.65 161.0 58.0 161.0 L56.35 161.25 Q54.55 161.8 52.5 163.6 L52.35 163.75 Q51.4 164.55 50.8 165.3 50.8 163.6 52.8 160.65 L54.8 158.05 76.3 154.3 Q83.65 155.7 83.1 164.15 82.8 168.35 81.05 172.3 L60.05 175.55 60.35 175.0 62.45 171.35 63.05 170.3 62.8 168.1 M55.5 202.6 Q55.95 201.15 57.3 199.15 L59.3 196.55 61.7 196.15 80.8 192.8 Q88.15 194.2 87.6 202.65 87.3 206.85 85.55 210.8 L64.55 214.05 64.85 213.5 66.95 209.85 67.55 208.8 67.3 206.6 Q67.2 204.7 66.5 203.2 65.15 199.5 62.5 199.5 L60.9 199.75 60.85 199.75 Q59.05 200.3 57.0 202.1 L56.85 202.25 56.8 202.3 55.3 203.8 55.5 202.6 M41.55 236.35 Q41.45 234.45 40.75 232.95 39.4 229.25 36.75 229.25 L35.1 229.5 Q33.3 230.05 31.25 231.85 L31.1 232.0 Q30.15 232.8 29.55 233.55 29.55 231.85 31.55 228.9 L33.55 226.3 55.05 222.55 Q62.4 223.95 61.85 232.4 61.55 236.6 59.8 240.55 L38.8 243.8 39.1 243.25 41.2 239.6 41.8 238.55 41.55 236.35" fill="#514b49" fill-rule="evenodd" stroke="none"/>
    <path d="M25.45 142.2 Q25.7 140.4 26.6 139.0 L26.75 138.85 28.1 137.8 Q29.4 136.85 30.6 136.5 L32.25 136.25 Q34.0 136.6 35.3 138.4 L36.25 139.95 Q36.95 141.45 37.05 143.35 L37.05 143.9 Q37.05 145.35 36.7 146.6 L34.6 150.25 33.5 151.15 31.05 151.6 29.95 151.6 Q28.25 151.15 27.0 149.45 25.3 147.15 25.3 143.9 25.3 143.0 25.45 142.2" fill="#100a0d" fill-rule="evenodd" stroke="none"/>
    <path d="M76.35 129.6 L87.65 128.15 100.2 126.55 Q101.6 126.4 105.35 127.45 108.4 128.35 110.6 129.3 112.9 130.3 117.1 136.3 117.95 137.55 116.35 142.3 L115.45 144.8 112.9 144.3 Q111.3 144.3 110.15 144.85 109.05 145.35 109.05 146.15 L109.1 146.35 109.2 147.35 102.25 148.05 102.1 148.0 Q100.95 147.45 99.4 147.45 97.8 147.45 96.65 148.0 L95.75 148.7 93.7 148.95 Q88.85 139.8 81.55 131.8 L75.8 131.2 74.8 129.8 76.35 129.6" fill="#817068" fill-rule="evenodd" stroke="none"/>
    <path d="M7.85 177.1 Q6.05 176.65 4.8 174.7 3.25 172.25 3.45 169.05 3.65 166.2 5.15 164.2 7.2 162.55 9.3 162.0 L10.95 161.85 Q12.65 162.35 13.85 164.2 L14.7 165.9 Q15.15 167.15 15.2 168.65 L15.15 169.85 14.6 172.65 12.4 176.0 11.1 176.85 8.7 177.15 7.85 177.1 M63.75 214.4 L61.3 214.85 60.2 214.85 Q58.5 214.4 57.25 212.7 55.55 210.4 55.55 207.15 55.55 204.3 56.85 202.25 L57.0 202.1 Q59.05 200.3 60.85 199.75 L60.9 199.75 62.5 199.5 Q64.25 199.85 65.55 201.65 L66.5 203.2 Q67.2 204.7 67.3 206.6 L67.3 207.15 Q67.3 208.6 66.95 209.85 L64.85 213.5 63.75 214.4 M40.75 232.95 Q41.45 234.45 41.55 236.35 L41.55 236.9 Q41.55 238.35 41.2 239.6 L39.1 243.25 38.0 244.15 35.55 244.6 34.45 244.6 Q32.75 244.15 31.5 242.45 29.8 240.15 29.8 236.9 29.8 234.05 31.1 232.0 L31.25 231.85 Q33.3 230.05 35.1 229.5 L36.75 229.25 Q38.5 229.6 39.8 231.4 L40.75 232.95" fill="#0a0202" fill-rule="evenodd" stroke="none"/>
    <path d="M19.0 219.95 L17.45 220.05 Q10.5 219.05 8.55 217.95 7.35 217.25 6.6 215.3 L6.1 213.5 Q7.0 216.05 9.85 216.35 L10.7 216.4 13.1 216.1 14.0 215.8 35.15 214.0 33.85 218.65 19.0 219.95 M16.3 180.75 L15.45 180.8 Q8.5 179.8 6.55 178.7 5.35 178.0 4.6 176.05 L4.1 174.25 Q5.0 176.8 7.85 177.1 L8.7 177.15 11.1 176.85 12.0 176.55 33.15 174.75 31.85 179.4 16.3 180.75 M34.3 150.8 L55.3 147.55 54.3 152.3 38.05 154.8 Q31.05 154.3 29.05 153.3 27.8 152.7 26.95 150.8 L26.3 149.05 Q27.35 151.4 29.95 151.6 L31.05 151.6 33.5 151.15 34.3 150.8 M60.05 175.55 L81.05 172.3 80.05 177.05 63.8 179.55 60.55 179.3 Q56.3 178.8 54.8 178.05 53.55 177.45 52.7 175.55 L52.05 173.8 Q53.1 176.15 55.7 176.35 L56.8 176.35 59.15 175.9 59.25 175.9 59.7 175.75 60.05 175.55 M85.55 210.8 L84.55 215.55 68.3 218.05 Q61.3 217.55 59.3 216.55 58.05 215.95 57.2 214.05 L56.55 212.3 Q57.6 214.65 60.2 214.85 L61.3 214.85 63.75 214.4 64.55 214.05 85.55 210.8 M38.8 243.8 L59.8 240.55 58.8 245.3 42.55 247.8 Q35.55 247.3 33.55 246.3 32.3 245.7 31.45 243.8 L30.8 242.05 Q31.85 244.4 34.45 244.6 L35.55 244.6 38.0 244.15 38.8 243.8" fill="#19110b" fill-rule="evenodd" stroke="none"/>
    <path d="M9.85 216.35 Q8.05 215.9 6.8 213.95 5.25 211.5 5.45 208.3 5.65 205.45 7.15 203.45 9.2 201.8 11.3 201.25 L12.95 201.1 Q14.65 201.6 15.85 203.45 L16.7 205.1 17.0 206.2 17.2 207.9 17.2 208.55 17.15 209.1 Q17.05 210.6 16.6 211.9 L14.4 215.25 13.1 216.1 10.7 216.4 9.85 216.35" fill="#170000" fill-rule="evenodd" stroke="none"/>
    <path d="M51.15 169.9 Q51.25 171.1 51.65 172.15 49.5 173.0 47.9 175.85 45.55 179.85 45.55 185.55 45.55 191.25 47.9 195.3 50.2 199.35 53.5 199.35 56.75 199.35 59.1 195.3 L59.6 194.35 61.7 196.15 59.3 196.55 57.3 199.15 Q55.95 201.15 55.5 202.6 L55.3 202.6 Q52.95 202.75 48.55 199.8 44.65 197.2 44.85 185.4 45.1 173.65 49.05 170.8 50.05 170.1 51.15 169.9 M59.25 175.9 L60.05 175.3 59.7 175.75 59.25 175.9 M56.85 202.25 L56.8 202.3 56.85 202.25" fill="#0c0804" fill-rule="evenodd" stroke="none"/>
    <path d="M93.7 148.95 L95.75 148.7 95.75 148.75 95.55 149.3 95.6 149.55 95.9 152.45 102.55 152.8 103.2 149.7 103.25 149.3 Q103.25 148.6 102.25 148.05 L109.2 147.35 109.4 149.3 116.05 149.65 116.4 147.95 121.55 151.05 96.7 155.45 96.05 155.55 93.4 148.95 93.7 148.95" fill="#9b9882" fill-rule="evenodd" stroke="none"/>
    <path d="M230.95 139.2 Q231.05 139.8 232.0 140.25 233.15 140.8 234.75 140.8 236.3 140.8 237.45 140.25 L238.5 139.3 237.9 142.45 231.25 142.15 230.95 139.2 M273.25 140.15 L272.95 137.2 Q273.05 137.8 274.0 138.25 275.15 138.8 276.75 138.8 278.3 138.8 279.45 138.25 L280.5 137.3 279.9 140.45 273.25 140.15 M259.25 140.8 L258.95 137.9 Q259.05 138.5 260.0 138.95 L262.75 139.45 265.45 138.95 Q266.3 138.55 266.5 138.0 L265.9 141.15 259.25 140.8 M252.5 138.65 L251.9 141.8 245.25 141.45 244.95 138.55 Q245.05 139.15 246.0 139.6 247.15 140.15 248.75 140.15 250.3 140.15 251.45 139.6 L252.5 138.65 M109.2 147.35 L109.1 146.35 Q109.2 146.85 109.85 147.3 L110.15 147.45 Q111.3 147.95 112.9 147.95 L115.6 147.45 Q116.45 147.05 116.7 146.5 L116.4 147.95 116.05 149.65 109.4 149.3 109.2 147.35 M103.2 149.7 L102.55 152.8 95.9 152.45 95.6 149.55 Q95.7 150.15 96.65 150.6 97.8 151.15 99.4 151.15 L102.1 150.6 103.2 149.7" fill="#0d0700" fill-rule="evenodd" stroke="none"/>
    <path d="M155.6 194.55 L157.8 188.55 195.05 184.8 Q202.6 184.8 203.0 194.15 203.1 197.2 202.45 200.75 201.9 203.55 201.55 204.05 201.2 204.6 198.45 206.0 195.8 207.35 194.8 207.55 L151.65 212.6 Q153.15 207.65 154.3 202.2 L155.6 194.55" fill="#494541" fill-rule="evenodd" stroke="none"/>
    <path d="M102.65 191.05 L119.55 189.8 122.55 191.0 Q126.05 192.6 128.75 194.55 137.45 200.8 134.8 208.3 132.15 215.8 127.35 217.8 L124.3 218.45 123.05 218.3 97.8 221.2 Q99.8 213.85 101.15 205.75 102.4 198.2 102.65 191.05" fill="#3f3e3a" fill-rule="evenodd" stroke="none"/>
    <path d="M487.7 206.4 L331.05 220.15 329.4 220.3 Q330.85 219.8 335.3 213.25 L340.05 205.8 340.4 205.8 352.3 204.7 429.55 197.1 474.45 193.3 Q475.25 194.05 475.8 194.25 L479.5 194.7 483.5 194.3 486.3 193.35 507.5 191.9 528.35 190.75 528.8 192.95 528.5 194.2 Q528.15 196.55 528.9 197.8 L528.95 197.8 528.55 202.8 512.25 204.25 505.85 204.8 487.7 206.4 M266.65 225.65 L208.05 229.8 208.9 228.15 Q214.05 217.65 214.05 215.8 L297.55 210.8 297.45 215.0 Q296.95 219.35 295.05 220.3 L288.95 222.85 285.05 224.3 266.65 225.65 M154.65 236.2 L141.05 236.8 142.1 234.7 144.95 228.75 148.05 222.3 148.1 222.3 172.1 219.05 195.05 215.8 194.85 221.05 Q194.5 226.55 193.55 227.8 192.05 229.8 184.55 234.8 L154.65 236.2 M123.05 233.35 Q118.55 242.0 113.55 242.3 L91.05 241.3 97.05 225.8 126.55 224.8 Q125.3 229.05 123.05 233.35" fill="#2b2b2a" fill-rule="evenodd" stroke="none"/>
    <path d="M59.6 194.35 L59.1 195.3 Q56.75 199.35 53.5 199.35 50.2 199.35 47.9 195.3 45.55 191.25 45.55 185.55 45.55 179.85 47.9 175.85 49.5 173.0 51.65 172.15 52.05 173.25 52.75 174.2 54.0 175.9 55.7 176.35 53.1 176.15 52.05 173.8 L52.7 175.55 Q53.55 177.45 54.8 178.05 56.3 178.8 60.55 179.3 61.4 182.1 61.4 185.55 61.4 190.6 59.6 194.35" fill="#070707" fill-rule="evenodd" stroke="none"/>
    <path d="M540.75 160.25 L539.7 161.65 537.45 163.35 537.2 163.5 535.3 164.4 529.85 166.15 Q512.95 170.3 470.2 170.3 L463.45 169.5 463.45 168.9 463.45 160.2 464.2 159.5 Q467.1 157.2 477.05 155.1 484.35 153.55 495.4 152.05 L518.2 148.8 Q527.25 147.3 533.1 145.55 L533.95 145.25 537.05 144.15 Q538.95 145.5 539.6 147.3 540.15 148.75 540.15 151.9 540.15 153.4 541.3 157.3 541.45 158.9 540.75 160.25 M491.85 132.45 L490.45 132.75 Q480.0 135.0 468.65 135.0 L461.8 134.9 455.3 134.25 454.3 133.8 Q454.15 133.7 454.15 131.65 L454.15 131.35 454.25 128.75 454.65 128.35 454.9 127.65 462.2 127.8 473.3 128.05 486.95 126.35 492.4 125.7 493.95 125.5 495.35 125.35 495.8 125.3 498.6 125.1 499.25 124.85 Q502.35 123.9 505.3 124.95 L505.8 124.65 Q506.25 124.85 506.25 127.25 506.25 129.0 503.4 130.4 L502.6 130.75 Q499.7 131.9 497.9 131.9 L494.95 131.65 491.85 132.45 M474.3 192.15 L474.35 191.45 Q475.6 189.85 481.45 187.9 484.55 186.95 489.95 186.35 L524.85 184.45 Q528.4 184.35 531.15 185.85 531.8 186.2 532.45 186.7 L534.35 188.5 Q537.05 191.6 537.05 194.1 L536.95 196.4 Q536.55 196.5 536.3 197.0 L534.35 197.4 528.95 197.8 528.9 197.8 Q528.15 196.55 528.5 194.2 L528.8 192.95 529.3 190.65 528.35 190.75 507.5 191.9 486.3 193.35 483.5 194.3 479.5 194.7 475.8 194.25 Q475.25 194.05 474.45 193.3 L474.1 192.95 474.3 192.15" fill="#000000" fill-rule="evenodd" stroke="none"/>
  </g>
</svg>
