<?xml version="1.0" encoding="UTF-8" standalone="no"?>
<svg xmlns:xlink="http://www.w3.org/1999/xlink" height="174.3px" width="244.0px" xmlns="http://www.w3.org/2000/svg">
  <g transform="matrix(1.0, 0.0, 0.0, 1.0, 238.5, -112.7)">
    <path d="M-47.55 150.45 L-46.4 150.45 -59.25 132.95 Q-66.75 121.95 -70.15 112.7 -63.05 116.6 -49.0 128.65 -35.0 140.55 -31.85 144.85 -30.55 146.55 -26.45 158.8 -9.8 160.8 5.5 164.4 4.9 166.8 0.45 175.3 -3.65 183.3 -4.4 184.0 -7.4 187.05 -15.6 193.35 -20.85 197.45 -21.95 200.65 L-12.45 206.7 Q-7.75 209.45 -7.75 211.55 -7.75 222.7 -16.55 224.6 L-32.95 224.6 -32.8 225.65 Q-32.25 233.1 -31.1 236.25 -30.55 238.1 -29.1 239.65 L-29.4 244.1 Q-29.6 251.55 -30.7 255.25 -32.25 260.25 -32.95 270.65 L-33.9 286.85 -34.05 287.0 Q-38.0 277.3 -41.2 262.25 -44.7 245.95 -46.6 241.1 L-47.55 238.5 Q-55.75 219.3 -80.25 213.6 L-106.9 206.55 Q-123.5 202.45 -137.7 201.7 L-184.9 199.25 Q-224.7 196.15 -238.5 189.6 L-236.45 188.65 Q-237.0 188.65 -236.45 187.4 -226.2 187.75 -213.5 184.6 -198.15 180.9 -166.25 179.95 -148.35 180.7 -142.75 180.5 -133.6 180.3 -130.95 174.4 -129.3 173.25 -113.8 169.9 L-98.0 166.55 -99.05 166.55 Q-103.55 164.4 -114.75 160.25 -125.0 155.8 -130.95 148.15 L-123.15 148.15 Q-106.55 157.45 -73.65 156.75 -64.35 156.55 -55.4 156.75 L-56.85 155.45 Q-65.65 147.05 -69.4 145.95 L-69.4 144.85 -59.45 144.85 Q-48.85 150.45 -47.55 150.45 M-32.05 176.6 Q-35.2 176.6 -46.2 172.15 -57.2 167.65 -60.55 167.65 -62.3 167.65 -85.4 172.15 -108.8 176.6 -112.15 176.6 L-112.15 181.1 Q-75.75 190.75 -69.4 190.75 L-69.4 191.65 -74.8 191.45 Q-79.45 192.05 -82.4 196.15 -68.6 205.25 -55.2 209.9 -45.65 213.25 -32.6 219.2 L-27.7 218.25 Q-21.4 216.4 -20.05 212.5 -24.45 214.55 -31.5 208.35 -38.4 202.8 -39.65 197.25 -34.85 195.75 -24.45 188.55 -13.35 180.7 -7.75 174.4 L-7.75 168.8 -13.0 168.25 -17.65 167.65 Q-21.6 167.65 -27.0 172.15 L-32.05 176.6" fill="#ffffff" fill-opacity="0.6431373" fill-rule="evenodd" stroke="none"/>
    <path d="M-32.05 176.6 L-27.0 172.15 Q-21.6 167.65 -17.65 167.65 L-13.0 168.25 -7.75 168.8 -7.75 174.4 Q-13.35 180.7 -24.45 188.55 -34.85 195.75 -39.65 197.25 -38.4 202.8 -31.5 208.35 -24.45 214.55 -20.05 212.5 -21.4 216.4 -27.7 218.25 L-32.6 219.2 Q-45.65 213.25 -55.2 209.9 -68.6 205.25 -82.4 196.15 -79.45 192.05 -74.8 191.45 L-69.4 191.65 -69.4 190.75 Q-75.75 190.75 -112.15 181.1 L-112.15 176.6 Q-108.8 176.6 -85.4 172.15 -62.3 167.65 -60.55 167.65 -57.2 167.65 -46.2 172.15 -35.2 176.6 -32.05 176.6" fill="#cc6600" fill-opacity="0.7529412" fill-rule="evenodd" stroke="none"/>
  </g>
</svg>
