<?xml version="1.0" encoding="UTF-8" standalone="no"?>
<svg xmlns:xlink="http://www.w3.org/1999/xlink" height="287.0px" width="746.65px" xmlns="http://www.w3.org/2000/svg">
  <g transform="matrix(1.0, 0.0, 0.0, 1.0, 0.0, 0.0)">
    <path d="M714.1 37.05 L716.6 37.15 716.8 37.1 716.85 37.1 Q718.15 36.8 723.9 30.95 L731.45 23.1 Q733.1 21.5 734.35 19.5 L736.45 16.1 Q737.6 14.5 736.35 14.5 735.3 14.55 733.45 15.45 732.2 16.1 723.05 24.35 L714.15 32.45 711.95 35.75 709.45 34.75 709.35 34.75 Q707.95 34.5 697.5 29.4 L697.3 29.3 697.45 29.2 698.0 28.6 723.3 0.85 742.0 8.95 743.4 12.6 Q744.55 15.75 744.75 17.2 L744.8 17.75 Q744.8 18.9 739.7 23.75 L737.5 25.75 Q731.25 31.4 727.15 34.45 724.65 36.35 719.5 37.1 L714.8 37.45 714.1 37.05" fill="#715f4f" fill-rule="evenodd" stroke="none"/>
    <path d="M711.95 35.75 L714.15 32.45 723.05 24.35 Q732.2 16.1 733.45 15.45 735.3 14.55 736.35 14.5 737.6 14.5 736.45 16.1 L734.35 19.5 Q733.1 21.5 731.45 23.1 L723.9 30.95 Q718.15 36.8 716.85 37.1 L716.8 37.1 716.6 37.15 714.1 37.05 713.4 36.9 711.45 36.45 711.85 35.9 711.95 35.75 M687.5 85.2 L687.15 84.1 687.9 83.8 687.95 83.75 689.45 83.1 691.6 84.75 Q694.15 86.6 696.45 87.45 L709.15 92.1 708.45 94.75 Q703.2 93.45 697.9 91.45 689.05 88.1 687.5 85.2 M691.85 70.7 L691.8 70.45 Q691.8 69.15 692.5 68.55 L692.65 68.4 692.85 68.3 693.45 68.1 698.2 71.9 Q703.4 75.85 705.45 76.45 L712.45 78.75 Q713.15 81.1 712.15 81.1 710.9 81.1 701.6 76.65 693.15 72.65 692.0 70.95 L691.85 70.7 M623.55 100.8 L626.1 103.35 Q628.35 105.9 629.45 106.45 630.6 107.0 631.6 109.45 L633.45 113.45 Q634.5 114.9 633.7 117.8 L632.15 122.45 Q631.7 124.1 630.4 123.25 L628.45 121.75 Q627.85 121.55 627.95 118.7 L628.15 114.1 Q628.15 112.5 627.2 110.85 626.3 109.4 625.45 109.1 624.95 108.95 625.65 113.75 626.5 119.25 626.15 120.45 625.65 122.05 624.15 121.95 623.0 121.9 620.15 120.75 618.0 119.9 618.15 115.0 618.2 113.4 619.15 106.45 619.55 103.35 620.2 101.6 L620.8 100.45 621.75 100.5 622.95 100.65 623.45 100.75 623.55 100.8 M718.5 65.85 L717.8 65.75 Q715.35 65.2 706.85 59.6 698.15 53.85 698.15 52.45 698.15 51.2 698.5 50.2 L698.8 49.45 701.2 52.55 Q703.95 55.7 705.8 56.1 708.75 56.75 719.6 62.35 L719.65 62.35 719.8 62.45 719.95 64.35 Q719.75 65.85 718.5 65.85" fill="#fffce2" fill-rule="evenodd" stroke="none"/>
    <path d="M739.7 23.75 Q744.8 18.9 744.8 17.75 L744.75 17.2 746.1 20.35 Q747.4 23.0 745.65 27.85 743.8 33.0 740.4 34.15 739.25 34.55 738.2 35.4 L738.45 35.1 Q742.85 32.8 744.25 25.9 L744.8 19.45 Q743.95 20.75 739.7 23.75 M697.3 29.3 L697.5 29.4 697.9 31.0 697.3 29.3 M709.35 34.75 L709.45 34.75 711.95 35.75 711.85 35.9 709.35 34.75 M734.95 39.55 L734.9 39.65 733.05 43.9 Q733.8 49.95 733.8 56.2 733.65 49.3 732.45 42.75 L734.95 39.55 M727.25 92.65 L726.35 95.25 Q721.5 108.95 716.0 117.9 L720.05 118.7 714.35 130.9 694.05 132.55 676.8 138.45 678.15 143.3 Q679.45 148.4 679.45 149.45 L679.15 157.75 Q677.45 163.1 675.15 165.75 L661.8 182.1 669.65 185.4 659.9 184.55 648.5 191.9 632.8 195.45 630.15 201.1 Q630.15 206.95 628.3 208.3 627.75 208.7 627.05 208.6 L626.45 208.45 622.8 217.75 624.8 224.0 623.15 219.75 619.45 217.45 614.8 224.45 Q625.6 245.5 614.45 266.55 608.9 277.1 601.15 283.45 L602.45 283.25 591.15 285.85 Q594.15 284.75 595.65 279.8 598.2 271.45 599.45 269.75 602.1 266.3 603.95 258.25 605.5 249.95 606.15 247.75 L606.35 245.15 607.6 244.05 610.8 240.45 Q612.25 239.2 610.35 238.05 L608.15 237.1 605.5 239.6 604.45 235.15 602.9 229.65 Q604.55 228.1 607.45 226.45 L607.7 225.5 Q607.7 224.5 606.45 224.1 605.3 223.75 604.1 224.55 L601.9 226.0 601.8 225.75 Q600.15 218.75 598.8 218.1 598.0 217.7 596.7 218.9 L594.15 221.45 Q592.65 222.65 591.55 224.8 590.45 226.95 590.45 228.45 590.45 229.3 591.8 235.1 593.15 240.95 593.15 242.75 593.15 244.95 590.5 250.95 588.2 256.05 586.8 258.1 585.95 259.4 575.9 261.2 L564.8 262.75 Q563.75 262.75 563.35 261.75 L563.15 260.75 568.45 255.45 Q570.4 253.55 569.5 244.9 568.8 238.2 567.8 235.1 L566.55 230.65 Q565.8 227.55 565.8 226.45 565.8 225.7 567.0 221.2 568.15 216.7 568.15 215.45 568.15 214.0 566.7 212.4 L564.45 210.1 Q563.9 209.35 564.25 206.35 L564.8 200.1 Q564.8 197.15 561.9 198.8 L556.45 202.75 544.55 211.35 Q534.65 218.4 532.15 219.45 529.4 220.6 525.25 221.2 L520.15 221.45 Q518.8 221.2 518.95 219.65 519.1 218.1 520.8 217.1 521.7 216.6 528.35 213.55 535.15 210.45 538.15 208.75 541.5 206.85 543.45 204.8 L546.45 201.1 Q547.9 199.45 546.7 198.6 L545.15 198.1 Q539.8 201.45 537.45 203.75 535.9 205.3 525.5 205.75 516.75 206.15 512.8 205.75 L500.2 203.95 489.15 202.1 Q488.3 201.9 487.95 203.8 L487.85 204.6 487.55 201.65 Q479.2 204.5 468.85 203.1 L465.4 202.5 480.7 200.95 487.55 201.65 490.35 201.4 496.15 201.1 Q499.15 201.1 504.35 202.15 509.55 203.2 512.8 204.45 L521.15 204.8 529.45 203.45 Q532.3 203.0 536.2 197.65 L542.15 188.1 Q544.2 184.55 546.9 176.15 L549.15 168.45 537.7 160.2 538.05 158.35 591.8 196.1 601.45 191.75 601.55 191.4 603.8 199.1 624.15 189.75 613.5 182.65 619.8 163.45 604.15 165.45 634.8 158.45 604.45 139.1 614.8 145.1 625.8 142.45 620.8 129.45 608.35 127.6 617.9 99.3 622.95 100.65 621.75 100.5 620.8 100.45 620.2 101.6 Q619.55 103.35 619.15 106.45 618.2 113.4 618.15 115.0 618.0 119.9 620.15 120.75 623.0 121.9 624.15 121.95 625.65 122.05 626.15 120.45 626.5 119.25 625.65 113.75 624.95 108.95 625.45 109.1 626.3 109.4 627.2 110.85 628.15 112.5 628.15 114.1 L627.95 118.7 Q627.85 121.55 628.45 121.75 L630.4 123.25 Q631.7 124.1 632.15 122.45 L633.7 117.8 Q634.5 114.9 633.45 113.45 L631.6 109.45 Q630.6 107.0 629.45 106.45 628.35 105.9 626.1 103.35 L623.55 100.8 634.0 103.95 628.8 103.1 640.05 121.35 Q651.4 140.35 651.8 144.1 L653.15 157.1 657.15 160.45 652.2 138.9 Q646.9 117.0 645.45 115.1 L639.45 108.5 635.5 104.45 646.1 108.15 646.5 106.9 655.15 110.45 657.15 108.1 659.25 105.55 Q660.95 103.55 661.15 102.75 661.35 101.95 664.25 100.45 L667.15 99.1 668.45 94.1 650.15 94.35 620.05 95.15 618.3 98.1 622.45 85.75 676.8 83.75 672.4 79.9 679.4 84.55 674.55 105.7 681.05 105.7 703.15 116.1 703.95 120.2 Q704.65 123.0 704.45 116.75 705.8 117.45 715.8 116.75 721.7 107.75 726.75 94.0 L727.25 92.65 M700.4 245.55 Q697.3 252.7 691.6 259.35 690.2 261.45 686.4 263.95 L685.7 264.45 Q693.65 254.75 696.9 245.4 695.1 251.55 691.8 258.1 L693.45 256.45 698.25 249.6 700.4 245.55 M683.05 265.85 Q681.0 266.7 679.4 266.7 L677.95 266.9 683.05 265.85 M641.3 274.5 L608.45 281.9 609.55 280.95 641.3 274.5 M589.95 286.1 L585.9 287.0 Q578.2 287.15 571.65 285.15 L573.9 285.6 589.8 286.1 589.95 286.1 M560.25 279.35 Q554.2 274.9 549.55 267.8 545.45 261.65 542.95 254.2 L541.2 248.0 524.95 231.75 Q513.55 230.1 511.1 229.3 L505.5 226.65 524.95 231.75 533.05 238.15 Q541.15 244.7 541.15 245.75 541.15 247.0 547.45 258.3 553.5 269.3 558.45 277.1 L560.25 279.35 M494.55 220.6 L491.6 218.7 Q490.1 217.6 489.05 213.1 490.2 215.4 492.2 217.9 L494.55 220.6 M418.55 99.3 L420.05 95.95 403.0 97.6 395.65 92.7 396.4 91.1 405.15 95.75 420.05 95.95 421.9 92.25 418.55 99.3 M405.1 72.5 L406.25 69.95 394.85 62.6 389.15 65.05 389.15 50.45 391.05 51.4 390.45 54.75 430.45 82.8 427.15 81.1 415.15 72.75 407.8 67.1 405.1 72.5 M396.05 52.85 L405.45 31.75 398.15 53.75 396.05 52.85 M468.65 15.95 Q472.9 9.4 479.55 5.4 475.85 8.05 472.05 12.05 L468.65 15.95 M491.2 0.75 Q494.35 0.0 497.3 0.0 L492.3 0.65 491.2 0.75 M590.05 63.25 Q593.35 68.8 590.8 71.55 L607.05 76.45 589.5 71.9 589.5 71.15 Q590.25 66.45 590.05 63.25 M687.9 83.8 L690.8 74.1 691.85 70.7 692.0 70.95 687.95 83.75 687.9 83.8 M692.5 68.55 Q700.55 42.05 700.55 40.65 701.05 41.85 692.85 68.3 L692.65 68.4 692.5 68.55 M671.2 104.85 Q669.95 102.55 669.15 101.75 668.3 100.95 666.15 101.45 L664.15 102.1 664.15 108.75 Q664.15 112.75 664.3 114.5 664.55 117.2 665.45 119.45 666.8 122.75 668.8 126.1 L670.1 125.5 Q671.55 124.4 672.15 122.1 L674.1 115.65 Q675.05 111.55 673.8 109.45 L671.2 104.85 M666.45 130.1 Q667.45 130.1 667.15 126.45 L655.8 125.75 656.45 130.45 666.45 130.1 M667.45 142.75 L667.9 139.9 667.8 138.75 657.8 138.75 661.45 152.75 667.15 151.75 667.15 151.35 667.7 153.3 Q668.5 155.3 669.8 154.45 670.95 153.7 671.35 152.55 671.8 151.35 672.15 151.1 L674.7 150.25 Q676.45 149.7 676.45 149.1 L676.35 147.3 Q675.95 146.2 674.45 145.75 673.15 145.4 671.8 143.8 L670.15 142.1 668.45 142.3 667.45 142.75 M678.75 195.9 Q685.05 200.35 689.55 205.95 696.95 215.1 698.55 225.8 697.0 217.65 691.65 209.75 686.65 202.35 678.75 195.9 M571.55 71.55 L571.8 72.55 571.95 73.2 571.8 73.1 473.45 46.45 473.15 47.05 473.9 45.15 571.55 71.55 M572.1 74.3 Q572.5 78.3 570.45 81.3 L558.75 108.45 516.45 80.35 522.5 79.5 Q530.2 78.65 532.25 79.7 534.85 80.95 538.75 85.1 542.8 89.35 542.8 91.1 542.8 92.6 544.45 93.65 545.3 94.15 546.1 94.35 L561.5 95.15 570.45 81.3 Q571.95 76.2 572.1 74.3 M574.3 118.8 L582.45 96.1 Q587.85 85.8 589.1 76.3 L611.8 82.45 590.45 77.1 587.55 86.2 585.1 96.75 588.65 97.3 594.05 98.4 Q596.5 99.2 604.6 100.0 L607.85 91.9 611.8 82.45 593.8 131.75 574.3 118.8 M562.5 64.85 L475.05 42.0 475.45 41.05 475.35 41.5 482.65 43.1 491.1 42.8 501.35 43.1 508.6 45.55 Q514.15 47.85 515.2 50.45 L562.5 64.85 M498.1 21.15 Q495.7 19.5 493.75 18.6 496.2 19.25 498.1 21.15 M503.4 135.5 L505.3 135.35 515.35 142.45 513.25 142.6 503.4 135.5 M433.45 140.25 L435.45 140.15 Q434.45 144.75 434.1 149.05 L432.05 149.25 Q432.4 144.75 433.45 140.25 M435.2 172.15 L437.05 172.0 Q439.8 178.75 444.95 184.15 L440.95 184.4 437.95 178.9 Q436.35 175.55 435.2 172.15 M444.85 92.95 L474.85 114.0 473.7 114.05 452.45 98.75 444.85 92.95 M627.45 248.7 Q626.5 258.65 621.9 266.95 617.0 275.85 610.5 280.1 625.2 266.5 627.45 248.7" fill="#6c625a" fill-rule="evenodd" stroke="none"/>
    <path d="M714.1 37.05 L714.8 37.45 719.5 37.1 Q724.65 36.35 727.15 34.45 731.25 31.4 737.5 25.75 L739.7 23.75 Q743.95 20.75 744.8 19.45 L744.25 25.9 Q742.85 32.8 738.45 35.1 L738.2 35.4 734.95 39.55 732.45 42.75 729.6 42.65 Q726.5 43.0 725.45 45.1 724.45 47.15 720.95 58.0 L719.6 62.35 Q708.75 56.75 705.8 56.1 703.95 55.7 701.2 52.55 L698.8 49.45 698.5 50.2 Q698.15 51.2 698.15 52.45 698.15 53.85 706.85 59.6 715.35 65.2 717.8 65.75 L718.5 65.85 717.95 67.65 717.8 68.15 717.45 69.1 716.7 71.35 708.45 94.75 706.75 101.0 Q705.6 105.65 704.8 109.45 L703.75 114.6 Q703.6 116.3 704.45 116.75 704.65 123.0 703.95 120.2 L703.15 116.1 681.05 105.7 687.25 86.05 687.5 85.2 Q689.05 88.1 697.9 91.45 703.2 93.45 708.45 94.75 L709.15 92.1 696.45 87.45 Q694.15 86.6 691.6 84.75 L689.45 83.1 687.95 83.75 692.0 70.95 Q693.15 72.65 701.6 76.65 710.9 81.1 712.15 81.1 713.15 81.1 712.45 78.75 L705.45 76.45 Q703.4 75.85 698.2 71.9 L693.45 68.1 692.85 68.3 Q701.05 41.85 700.55 40.65 700.1 39.45 698.55 33.65 L697.9 31.0 697.5 29.4 Q707.95 34.5 709.35 34.75 L711.85 35.9 711.45 36.45 713.4 36.9 714.1 37.05 M698.0 28.6 L697.45 29.2 697.15 28.1 698.0 28.6 M694.05 132.55 L669.65 185.4 661.8 182.1 675.15 165.75 Q677.45 163.1 679.15 157.75 L679.45 149.45 Q679.45 148.4 678.15 143.3 L676.8 138.45 694.05 132.55 M650.15 94.35 L668.45 94.1 667.15 99.1 664.25 100.45 Q661.35 101.95 661.15 102.75 660.95 103.55 659.25 105.55 L657.15 108.1 655.15 110.45 646.5 106.9 646.15 106.75 650.15 94.35" fill="#24181b" fill-rule="evenodd" stroke="none"/>
    <path d="M732.45 42.75 Q733.65 49.3 733.8 56.2 733.65 73.3 727.4 92.2 L727.25 92.65 726.75 94.0 Q721.7 107.75 715.8 116.75 705.8 117.45 704.45 116.75 703.6 116.3 703.75 114.6 L704.8 109.45 Q705.6 105.65 706.75 101.0 L708.45 94.75 716.7 71.35 717.45 69.1 717.8 68.15 717.95 67.65 718.5 65.85 Q719.75 65.85 719.95 64.35 L719.8 62.45 719.65 62.35 719.6 62.35 720.95 58.0 Q724.45 47.15 725.45 45.1 726.5 43.0 729.6 42.65 L732.45 42.75" fill="#59403e" fill-rule="evenodd" stroke="none"/>
    <path d="M405.45 31.75 L443.8 29.45 457.45 37.4 458.75 37.75 450.45 57.75 Q450.45 60.9 458.45 63.8 462.45 65.25 466.45 66.1 L471.05 52.8 471.8 50.7 515.2 80.5 515.4 79.65 516.45 80.35 558.75 108.45 551.15 126.1 569.15 133.1 574.3 118.8 593.8 131.75 611.8 82.45 589.1 76.3 589.5 71.9 607.05 76.45 665.45 73.75 672.4 79.9 676.8 83.75 622.45 85.75 618.3 98.1 617.9 99.3 608.35 127.6 607.45 127.45 604.45 139.1 634.8 158.45 604.15 165.45 405.45 31.75 M571.55 71.55 L473.9 45.15 475.05 42.0 562.5 64.85 568.75 66.45 Q570.7 68.9 571.55 71.55" fill="#7e6f62" fill-rule="evenodd" stroke="none"/>
    <path d="M671.2 104.85 L673.8 109.45 Q675.05 111.55 674.1 115.65 L672.15 122.1 Q671.55 124.4 670.1 125.5 L668.8 126.1 Q666.8 122.75 665.45 119.45 664.55 117.2 664.3 114.5 664.15 112.75 664.15 108.75 L664.15 102.1 666.15 101.45 Q668.3 100.95 669.15 101.75 669.95 102.55 671.2 104.85 M667.15 151.35 Q666.9 146.6 667.2 144.15 L667.45 142.75 668.45 142.3 670.15 142.1 671.8 143.8 Q673.15 145.4 674.45 145.75 675.95 146.2 676.35 147.3 L676.45 149.1 Q676.45 149.7 674.7 150.25 L672.15 151.1 Q671.8 151.35 671.35 152.55 670.95 153.7 669.8 154.45 668.5 155.3 667.7 153.3 L667.15 151.35" fill="#e8d7c8" fill-rule="evenodd" stroke="none"/>
    <path d="M608.35 127.6 L620.8 129.45 625.8 142.45 614.8 145.1 604.45 139.1 607.45 127.45 608.35 127.6 M666.45 130.1 L656.45 130.45 655.8 125.75 667.15 126.45 Q667.45 130.1 666.45 130.1 M667.15 151.35 L667.15 151.75 661.45 152.75 657.8 138.75 667.8 138.75 667.9 139.9 667.45 142.75 667.2 144.15 Q666.9 146.6 667.15 151.35" fill="#2e2617" fill-rule="evenodd" stroke="none"/>
    <path d="M635.5 104.45 L639.45 108.5 645.45 115.1 Q646.9 117.0 652.2 138.9 L657.15 160.45 653.15 157.1 651.8 144.1 Q651.4 140.35 640.05 121.35 L628.8 103.1 634.0 103.95 635.15 104.1 635.5 104.45" fill="#5d4f47" fill-rule="evenodd" stroke="none"/>
    <path d="M673.7 192.35 Q707.0 207.55 704.15 232.65 703.45 239.05 700.4 245.55 L698.25 249.6 693.45 256.45 691.8 258.1 Q695.1 251.55 696.9 245.4 700.4 235.4 698.55 225.8 696.95 215.1 689.55 205.95 685.05 200.35 678.75 195.9 L676.9 194.45 673.7 192.35 M608.45 281.9 L607.8 282.45 602.45 283.25 601.15 283.45 Q608.9 277.1 614.45 266.55 625.6 245.5 614.8 224.45 L619.45 217.45 623.15 219.75 624.8 224.0 625.4 225.65 Q627.65 233.1 627.85 240.7 627.95 244.8 627.45 248.7 625.2 266.5 610.5 280.1 L609.55 280.95 608.45 281.9" fill="#ffffef" fill-rule="evenodd" stroke="none"/>
    <path d="M648.5 191.9 L668.8 189.1 673.7 192.35 676.9 194.45 678.75 195.9 Q686.65 202.35 691.65 209.75 697.0 217.65 698.55 225.8 700.4 235.4 696.9 245.4 693.65 254.75 685.7 264.45 L684.8 265.45 683.05 265.85 677.95 266.9 Q672.8 267.65 651.9 272.25 L641.3 274.5 609.55 280.95 610.5 280.1 Q617.0 275.85 621.9 266.95 626.5 258.65 627.45 248.7 627.95 244.8 627.85 240.7 627.65 233.1 625.4 225.65 L624.8 224.0 622.8 217.75 626.45 208.45 627.05 208.6 Q627.75 208.7 628.3 208.3 630.15 206.95 630.15 201.1 L632.8 195.45 648.5 191.9" fill="#5e4c4a" fill-rule="evenodd" stroke="none"/>
    <path d="M458.75 37.75 L458.85 37.45 465.15 22.7 Q465.9 20.8 466.8 19.1 L468.45 16.1 Q468.5 16.05 468.65 15.95 L472.05 12.05 Q475.85 8.05 479.55 5.4 L479.7 5.3 481.15 4.4 481.1 4.55 481.05 5.0 481.15 7.1 484.7 7.25 Q488.7 7.6 490.8 8.45 493.2 9.4 530.15 30.95 566.85 52.45 568.45 53.75 571.6 56.4 576.05 61.7 580.3 66.75 581.6 69.85 582.15 71.15 582.15 72.1 L581.95 74.4 581.05 79.2 Q580.3 82.8 581.45 83.75 L585.45 86.75 Q587.3 81.55 588.55 76.15 L589.2 72.85 589.4 71.85 589.5 71.15 589.5 71.9 589.1 76.3 Q587.85 85.8 582.45 96.1 L574.3 118.8 569.15 133.1 551.15 126.1 558.75 108.45 570.45 81.3 Q572.5 78.3 572.1 74.3 L571.95 73.2 571.8 72.55 571.55 71.55 Q570.7 68.9 568.75 66.45 563.7 60.1 551.15 55.1 532.8 47.8 513.6 33.75 507.65 29.35 502.25 24.8 L498.1 21.15 Q496.2 19.25 493.75 18.6 L492.35 18.3 Q485.7 17.45 481.15 27.45 478.45 33.35 475.45 41.05 L475.05 42.0 473.9 45.15 473.15 47.05 471.8 50.7 471.05 52.8 466.45 66.1 Q462.45 65.25 458.45 63.8 450.45 60.9 450.45 57.75 L458.75 37.75 M487.65 1.4 L491.2 0.75 492.3 0.65 490.05 1.0 487.65 1.4 M507.95 6.7 L551.05 33.5 Q585.55 55.15 586.45 56.45 585.05 55.9 580.55 53.25 L559.75 40.25 539.2 26.95 507.95 6.7" fill="#4a3939" fill-rule="evenodd" stroke="none"/>
    <path d="M481.15 4.4 Q481.4 2.8 482.45 2.45 L487.65 1.4 490.05 1.0 492.3 0.65 497.3 0.0 507.95 6.7 539.2 26.95 559.75 40.25 580.55 53.25 Q585.05 55.9 586.45 56.45 589.65 57.7 590.05 63.25 590.25 66.45 589.5 71.15 L589.4 71.85 589.2 72.85 588.55 76.15 Q587.3 81.55 585.45 86.75 L581.45 83.75 Q580.3 82.8 581.05 79.2 L581.95 74.4 582.15 72.1 Q582.15 71.15 581.6 69.85 580.3 66.75 576.05 61.7 571.6 56.4 568.45 53.75 566.85 52.45 530.15 30.95 493.2 9.4 490.8 8.45 488.7 7.6 484.7 7.25 L481.15 7.1 481.05 5.0 481.1 4.55 481.15 4.4" fill="#8d7664" fill-rule="evenodd" stroke="none"/>
    <path d="M473.15 47.05 L473.45 46.45 571.8 73.1 571.95 73.2 572.1 74.3 Q571.95 76.2 570.45 81.3 L518.45 67.5 515.4 79.65 515.2 80.5 471.8 50.7 473.15 47.05" fill="#4b4642" fill-rule="evenodd" stroke="none"/>
    <path d="M587.55 86.2 L590.45 77.1 611.8 82.45 607.85 91.9 587.55 86.2" fill="#4c3833" fill-rule="evenodd" stroke="none"/>
    <path d="M443.9 115.3 L448.0 106.95 Q450.05 102.9 452.45 98.75 L473.7 114.05 443.9 115.3 M537.7 160.2 L549.15 168.45 546.9 176.15 Q544.2 184.55 542.15 188.1 L536.2 197.65 Q532.3 203.0 529.45 203.45 L521.15 204.8 512.8 204.45 Q509.55 203.2 504.35 202.15 499.15 201.1 496.15 201.1 L490.35 201.4 487.55 201.65 480.7 200.95 481.5 200.85 530.65 195.95 Q534.4 195.9 532.4 188.1 L532.35 187.9 532.35 187.75 Q533.35 179.4 529.8 178.9 L444.95 184.15 Q439.8 178.75 437.05 172.0 L537.15 164.25 537.3 161.35 537.7 160.2 M503.4 135.5 L513.25 142.6 434.1 149.05 Q434.45 144.75 435.45 140.15 L503.4 135.5" fill="#0d0b0a" fill-rule="evenodd" stroke="none"/>
    <path d="M391.05 51.4 L391.15 50.75 396.05 52.85 398.15 53.75 405.45 31.75 604.15 165.45 591.8 196.1 538.05 158.35 Q538.45 155.55 537.6 152.65 534.75 142.95 516.8 142.3 L515.35 142.45 505.3 135.35 510.3 135.0 484.65 117.95 478.6 113.85 474.85 114.0 444.85 92.95 434.15 84.75 430.45 82.8 390.45 54.75 391.05 51.4" fill="#21201d" fill-rule="evenodd" stroke="none"/>
    <path d="M465.4 202.5 L335.5 215.45 331.65 218.6 329.55 220.5 334.2 214.1 333.4 215.5 481.5 200.85 480.7 200.95 465.4 202.5 M321.05 228.15 Q316.7 230.05 307.65 231.05 L294.85 231.75 Q280.2 232.55 277.8 231.75 L269.55 227.35 263.15 223.6 207.05 227.65 205.85 229.6 Q204.15 232.05 201.65 234.25 196.8 238.6 190.15 241.25 185.95 242.9 181.05 243.9 168.35 246.45 159.2 240.55 156.35 238.7 154.2 236.25 L152.6 234.15 140.4 234.15 Q140.4 236.5 133.2 242.4 125.0 249.05 116.8 251.25 109.2 253.3 97.6 248.8 91.8 246.55 87.55 243.9 L89.75 239.75 88.65 242.25 119.15 238.75 120.4 238.9 123.45 238.25 Q128.25 236.25 130.9 228.75 133.55 221.25 124.85 215.0 122.15 213.05 118.65 211.45 L115.65 210.25 99.1 211.5 100.25 205.2 Q101.05 200.4 101.45 195.75 L101.4 199.0 138.15 194.75 Q140.05 194.55 141.35 190.6 142.65 186.5 142.65 180.25 142.65 174.95 134.4 170.95 L126.15 168.0 123.45 159.55 Q124.2 157.7 123.4 156.75 L122.2 155.7 119.9 148.5 93.65 150.0 122.9 147.25 124.85 142.75 Q126.6 138.0 125.65 136.75 121.15 130.75 118.65 129.75 116.3 128.8 112.95 127.9 108.9 126.85 107.4 127.0 L79.9 130.25 80.65 131.25 72.8 130.45 78.85 137.55 Q85.7 147.0 89.7 159.0 102.5 197.35 81.85 246.35 80.3 251.45 72.7 254.2 68.45 255.7 59.9 257.75 55.35 259.3 42.1 252.95 35.5 249.8 29.8 246.35 L23.3 247.15 20.15 245.0 Q22.45 245.8 28.65 246.25 L44.9 243.75 45.9 239.0 46.15 238.5 46.3 239.0 Q47.15 240.9 48.4 241.5 50.4 242.5 57.4 243.0 L73.65 240.5 74.65 235.75 Q76.4 231.8 76.7 227.6 77.25 219.15 69.9 217.75 L48.4 221.5 46.45 224.05 Q44.75 221.7 41.15 221.0 L19.65 224.75 17.65 227.35 16.8 228.75 Q17.45 227.05 18.4 225.35 L20.05 222.8 Q18.0 221.75 16.8 213.65 L16.0 205.7 5.45 205.7 Q3.5 203.5 2.3 201.2 L3.15 201.9 Q5.05 203.05 12.0 204.05 L28.4 202.65 29.7 198.0 Q31.75 194.2 32.3 190.0 33.45 181.6 26.2 179.7 L15.65 180.8 Q14.1 178.25 15.2 169.55 L16.8 160.2 14.9 158.8 Q16.9 159.85 23.5 160.8 L39.9 159.4 41.2 154.75 41.75 153.7 Q42.55 155.2 43.65 155.75 45.65 156.75 52.65 157.25 L68.9 154.75 69.9 150.0 Q71.65 146.05 71.95 141.85 72.5 133.4 65.15 132.0 L43.65 135.75 41.65 138.35 41.6 138.45 Q40.1 137.1 37.7 136.45 L27.0 137.6 Q39.6 117.5 59.8 122.05 70.1 124.4 77.8 130.9 L79.9 130.25 85.9 128.45 Q101.7 111.75 120.15 119.25 L112.15 118.75 126.15 125.75 133.0 136.15 Q140.6 149.35 144.55 163.25 157.05 207.75 127.65 242.75 L127.15 246.25 133.15 241.75 140.4 234.15 Q143.2 230.05 145.55 225.3 142.7 232.4 141.9 233.0 L188.9 227.5 Q189.9 227.3 192.55 225.95 195.3 224.55 195.65 224.0 196.0 223.5 196.55 220.7 197.2 217.15 197.1 214.1 196.7 204.75 189.15 204.75 L151.9 208.5 151.4 210.0 153.4 201.7 154.6 194.75 206.15 190.0 Q209.05 184.55 209.7 178.65 211.0 166.75 199.9 164.25 L180.75 166.15 Q179.9 164.4 175.2 161.75 L169.65 159.0 152.4 161.0 Q150.6 154.7 147.75 148.7 L191.9 144.75 Q192.35 140.25 191.35 135.85 189.45 127.05 182.4 127.5 L146.8 130.85 Q160.75 112.6 179.85 118.5 189.6 121.55 196.5 128.45 L217.6 126.85 218.85 126.25 220.05 127.1 222.75 129.85 219.15 127.25 197.45 129.25 196.5 128.45 188.15 122.75 196.3 133.15 Q205.35 146.35 209.85 160.3 224.2 204.95 187.65 240.25 L190.15 241.25 207.05 227.65 297.9 219.0 Q312.3 207.3 304.15 200.1 301.6 197.85 297.15 196.3 L293.15 195.25 216.4 204.25 Q216.5 205.25 214.6 210.2 217.35 201.6 218.8 192.0 L218.95 191.25 Q219.1 198.0 217.9 198.5 269.65 190.75 270.65 190.0 L270.9 187.0 248.15 189.5 Q295.25 183.0 299.2 180.9 296.15 188.2 299.4 180.75 L306.15 180.25 308.4 180.75 311.65 179.5 315.9 182.75 Q318.55 177.9 319.1 172.2 320.3 160.8 310.15 156.75 L307.4 158.75 303.9 158.25 303.25 160.45 Q302.35 159.45 301.15 159.25 L296.65 160.25 297.05 161.15 295.65 160.0 266.4 161.15 290.15 159.75 285.75 151.15 286.45 149.8 Q287.2 147.95 286.4 147.0 285.55 146.0 284.7 145.65 L282.65 145.0 282.55 145.0 280.9 141.75 228.9 145.75 228.65 145.8 Q229.4 141.8 229.4 137.7 229.4 134.15 228.7 131.55 230.2 136.6 229.4 144.25 L282.15 141.5 289.9 143.0 Q291.1 139.65 290.85 136.55 291.5 140.05 291.15 143.0 L293.65 143.5 294.2 141.5 302.65 141.75 Q305.6 133.0 299.8 127.0 298.0 125.15 295.5 123.75 L293.4 122.75 287.45 122.75 285.15 122.25 283.15 124.75 Q286.95 126.85 289.0 130.8 L288.1 129.45 Q286.75 127.55 284.8 125.95 L283.15 124.75 278.9 124.75 Q282.95 126.65 282.95 134.25 282.95 137.6 282.35 140.65 282.95 136.9 282.25 132.85 280.7 123.8 272.4 121.75 L231.65 124.3 258.25 121.95 261.5 120.35 Q264.8 118.7 269.65 114.65 L289.8 114.2 284.65 114.5 290.9 116.65 Q298.4 119.9 304.55 125.45 324.25 143.3 323.15 177.5 322.05 211.7 304.1 225.15 297.9 229.8 291.85 231.2 L321.05 228.15 M17.45 241.95 Q14.6 237.6 15.9 231.75 L17.25 230.4 Q15.85 232.5 15.85 235.4 15.85 238.6 17.6 240.9 18.85 242.6 20.5 243.05 17.95 242.8 16.9 240.5 L17.45 241.95 M1.15 198.4 Q0.85 197.55 0.7 196.7 L1.35 197.95 Q2.6 199.9 4.45 200.35 2.15 200.1 1.15 198.4 M1.6 187.6 L1.6 187.5 1.7 187.45 1.6 187.6 M5.0 181.9 L5.45 181.3 10.8 181.3 5.0 181.9 M13.25 157.15 Q9.2 152.35 12.05 145.85 L12.65 144.65 13.2 144.2 Q11.7 146.25 11.5 149.05 11.3 152.3 12.85 154.7 14.1 156.65 15.95 157.1 13.1 156.8 12.2 154.25 L12.7 156.05 13.25 157.15 M17.3 138.6 L17.6 138.25 20.35 138.25 17.3 138.6 M127.65 123.25 Q133.1 126.75 137.15 131.75 L130.4 125.5 127.65 123.25 M223.5 125.0 L224.15 124.95 225.0 125.45 Q226.3 126.5 227.3 128.2 225.9 125.95 223.5 125.0 M327.45 121.0 L328.0 121.0 329.7 123.05 327.45 121.0 M505.3 135.35 L503.4 135.5 435.45 140.15 433.45 140.25 344.75 146.35 343.0 141.75 502.65 130.5 484.65 117.95 510.3 135.0 505.3 135.35 M348.3 173.45 L348.4 177.0 536.9 162.25 537.3 161.35 537.15 164.25 437.05 172.0 435.2 172.15 347.8 178.9 348.3 173.45 M444.95 184.15 L529.8 178.9 Q533.35 179.4 532.35 187.75 L532.35 187.9 529.65 180.25 417.25 186.15 440.95 184.4 444.95 184.15 M347.85 160.25 L346.55 152.55 347.7 156.1 347.85 160.25 M347.0 184.05 L346.1 190.25 Q346.2 191.6 342.3 199.3 345.45 191.8 347.0 184.05 M226.6 137.55 Q227.5 141.65 226.35 146.2 L225.45 146.35 226.6 137.55 M218.15 162.45 L226.15 161.5 232.55 161.35 218.15 162.45 M235.5 161.1 Q234.1 159.85 231.45 152.95 L228.9 145.75 235.6 161.1 235.5 161.1 M241.65 161.25 L242.65 162.25 243.75 165.65 243.05 164.05 241.65 161.25 M237.1 161.25 L237.15 161.25 Q240.9 165.35 242.6 170.45 L242.05 169.15 Q240.7 165.95 238.65 163.15 L237.1 161.25 M244.65 188.5 Q247.35 184.35 247.0 178.25 247.65 185.3 244.65 188.5 M213.4 148.5 L214.2 150.95 212.4 147.3 213.4 148.5 M218.3 163.25 Q220.4 166.35 219.95 177.95 L219.85 180.15 Q220.05 171.2 218.3 163.25 M294.6 140.05 Q296.1 134.15 295.9 132.0 295.75 130.2 294.5 128.2 L292.15 125.0 Q296.1 127.9 295.95 133.55 295.85 136.95 294.6 140.05 M311.65 179.5 Q312.6 175.3 312.55 170.65 L312.45 168.35 Q313.75 173.95 311.65 179.5 M299.65 179.75 Q300.45 176.3 300.55 172.35 L300.55 170.5 Q301.35 175.65 299.65 179.75 M46.8 138.7 Q49.7 138.65 51.05 143.0 L49.85 140.85 Q48.55 139.05 46.8 138.7 M51.55 145.15 L51.9 148.0 51.25 149.2 Q51.6 147.9 51.6 146.4 L51.55 145.15 M49.3 152.6 L48.9 153.25 48.35 153.4 49.3 152.6 M19.0 141.85 Q21.6 142.1 22.65 145.6 L21.9 144.2 Q20.7 142.35 19.0 141.85 M23.3 149.2 L23.4 151.5 22.75 152.5 23.25 149.85 23.3 149.2 M20.45 156.0 L20.05 156.55 19.55 156.65 20.45 156.0 M7.5 185.1 Q10.1 185.35 11.15 188.85 L10.4 187.45 Q9.2 185.6 7.5 185.1 M11.8 192.45 L11.9 194.75 11.25 195.75 11.75 193.1 11.8 192.45 M8.95 199.25 L8.55 199.8 8.05 199.9 8.95 199.25 M44.5 154.05 Q43.0 153.9 42.05 153.1 L42.25 152.65 Q43.25 153.7 44.5 154.05 M57.7 192.75 L56.2 190.7 Q51.35 183.05 59.15 174.75 57.7 172.7 55.6 171.1 51.45 167.9 48.15 170.25 44.2 173.1 43.95 184.85 43.75 196.65 47.65 199.25 52.05 202.2 54.4 202.05 57.6 201.8 62.65 196.75 L61.45 196.05 68.9 197.0 85.15 194.5 86.15 189.75 Q87.9 185.8 88.2 181.6 88.75 173.15 81.4 171.75 L59.9 175.5 57.9 178.1 Q55.9 181.05 55.9 182.75 L57.5 181.15 Q56.1 183.25 56.1 186.15 56.1 189.35 57.85 191.65 59.1 193.35 60.75 193.8 58.2 193.55 57.15 191.25 L57.7 192.75 M67.3 182.75 L66.1 180.6 Q64.8 178.8 63.05 178.45 65.95 178.4 67.3 182.75 M67.8 184.9 L68.15 187.75 67.5 188.9 Q67.85 187.65 67.85 186.15 L67.8 184.9 M65.55 192.35 L65.15 193.0 64.6 193.15 65.55 192.35 M93.65 150.0 Q94.7 150.0 96.95 157.85 94.7 151.65 91.45 145.95 93.5 149.1 93.65 150.0 M153.45 165.05 L154.65 168.75 154.8 172.6 Q154.3 168.75 153.45 165.05 M56.3 230.9 L56.65 233.75 56.0 234.95 Q56.35 233.65 56.35 232.15 L56.3 230.9 M54.05 238.35 L53.65 239.0 53.1 239.15 54.05 238.35 M55.8 228.75 L54.6 226.6 Q53.3 224.8 51.55 224.45 54.45 224.4 55.8 228.75 M46.45 237.75 Q47.65 239.35 49.25 239.8 47.3 239.6 46.25 238.25 L46.45 237.75 M22.8 227.7 Q25.7 227.65 27.05 232.0 L25.85 229.85 Q24.55 228.05 22.8 227.7 M27.55 234.15 L27.9 237.0 27.25 238.15 Q27.6 236.9 27.6 235.4 L27.55 234.15 M25.3 241.6 L24.9 242.25 24.35 242.4 25.3 241.6" fill="#191413" fill-rule="evenodd" stroke="none"/>
    <path d="M538.05 158.35 L537.7 160.2 537.3 161.35 536.9 162.25 348.4 177.0 348.3 173.45 347.85 160.25 347.7 156.1 432.05 149.25 434.1 149.05 513.25 142.6 515.35 142.45 516.8 142.3 Q534.75 142.95 537.6 152.65 538.45 155.55 538.05 158.35" fill="#574c47" fill-rule="evenodd" stroke="none"/>
    <path d="M417.25 186.15 L529.65 180.25 532.35 187.9 532.4 188.1 Q534.4 195.9 530.65 195.95 L481.5 200.85 333.4 215.5 334.2 214.1 339.85 203.9 342.3 199.3 Q346.2 191.6 346.1 190.25 L417.25 186.15" fill="#5c4f44" fill-rule="evenodd" stroke="none"/>
    <path d="M604.15 165.45 L619.8 163.45 613.5 182.65 613.45 182.75 604.8 177.75 601.55 191.4 601.45 191.75 591.8 196.1 604.15 165.45" fill="#3b3028" fill-rule="evenodd" stroke="none"/>
    <path d="M613.5 182.65 L624.15 189.75 603.8 199.1 601.55 191.4 604.8 177.75 613.45 182.75 613.5 182.65" fill="#7d766a" fill-rule="evenodd" stroke="none"/>
    <path d="M425.75 109.75 L416.0 104.9 418.55 99.3 421.9 92.25 427.15 81.1 430.45 82.8 434.15 84.75 425.75 109.75 M396.4 91.1 L395.8 90.75 405.1 72.5 407.8 67.1 415.15 72.75 405.15 95.75 396.4 91.1" fill="#261f22" fill-rule="evenodd" stroke="none"/>
    <path d="M448.0 106.95 L425.75 109.75 434.15 84.75 444.85 92.95 452.45 98.75 Q450.05 102.9 448.0 106.95 M415.15 72.75 L427.15 81.1 421.9 92.25 420.05 95.95 405.15 95.75 415.15 72.75" fill="#16110e" fill-rule="evenodd" stroke="none"/>
    <path d="M328.0 121.0 L327.4 120.25 443.9 115.3 473.7 114.05 474.85 114.0 478.6 113.85 484.65 117.95 502.65 130.5 343.0 141.75 342.65 141.75 Q342.05 138.3 334.65 128.95 L329.7 123.05 328.0 121.0" fill="#5d584e" fill-rule="evenodd" stroke="none"/>
    <path d="M329.55 220.5 Q326.05 224.85 322.4 228.0 L321.05 228.15 291.85 231.2 Q297.9 229.8 304.1 225.15 322.05 211.7 323.15 177.5 324.25 143.3 304.55 125.45 298.4 119.9 290.9 116.65 L284.65 114.5 289.8 114.2 313.9 112.75 318.85 115.1 Q323.4 117.6 327.45 121.0 L329.7 123.05 334.65 128.95 Q342.05 138.3 342.65 141.75 L343.0 141.75 344.75 146.35 346.55 152.55 347.85 160.25 348.3 173.45 347.8 178.9 347.0 184.05 Q345.45 191.8 342.3 199.3 L339.85 203.9 334.2 214.1 329.55 220.5 M87.55 243.9 L81.85 246.35 Q102.5 197.35 89.7 159.0 85.7 147.0 78.85 137.55 L72.8 130.45 80.65 131.25 Q87.0 138.2 91.45 145.95 94.7 151.65 96.95 157.85 L97.05 158.2 Q98.3 161.6 99.2 165.2 L100.7 172.5 100.75 172.75 101.1 175.25 Q102.35 185.0 101.45 195.75 101.05 200.4 100.25 205.2 L99.1 211.5 Q95.85 227.2 89.75 239.75 L87.55 243.9 M120.15 119.25 L120.65 119.25 Q122.65 119.25 127.65 123.25 L130.4 125.5 137.15 131.75 141.85 139.4 Q146.6 147.35 146.9 148.75 L147.75 148.7 Q150.6 154.7 152.4 161.0 L152.15 161.0 153.45 165.05 Q154.3 168.75 154.8 172.6 L155.1 180.45 Q155.35 192.55 154.4 194.75 L154.6 194.75 153.4 201.7 151.4 210.0 145.55 225.3 Q143.2 230.05 140.4 234.15 L133.15 241.75 127.15 246.25 127.65 242.75 Q157.05 207.75 144.55 163.25 140.6 149.35 133.0 136.15 L126.15 125.75 112.15 118.75 120.15 119.25 M218.95 191.25 L218.8 192.0 Q217.35 201.6 214.6 210.2 212.3 216.1 207.05 227.65 L190.15 241.25 187.65 240.25 Q224.2 204.95 209.85 160.3 205.35 146.35 196.3 133.15 L188.15 122.75 196.5 128.45 197.45 129.25 197.15 129.25 212.4 147.3 214.2 150.95 215.65 155.25 217.65 162.5 218.3 163.25 Q220.05 171.2 219.85 180.15 219.55 185.6 218.9 190.75 L218.95 191.25" fill="#7d726a" fill-rule="evenodd" stroke="none"/>
    <path d="M605.5 239.6 L608.15 237.1 610.35 238.05 Q612.25 239.2 610.8 240.45 L607.6 244.05 606.35 245.15 Q604.6 246.3 602.45 246.45 598.3 246.7 595.7 245.4 592.75 243.9 593.45 241.1 596.6 228.55 600.45 226.75 L601.9 226.0 604.1 224.55 Q605.3 223.75 606.45 224.1 607.7 224.5 607.7 225.5 L607.45 226.45 Q604.55 228.1 602.9 229.65 L601.8 230.75 Q599.6 233.45 598.75 234.95 597.15 237.95 598.45 239.45 599.7 240.9 601.4 241.65 L602.8 242.1 605.5 239.6" fill="#ebdcd4" fill-rule="evenodd" stroke="none"/>
    <path d="M591.15 285.85 L589.95 286.1 589.8 286.1 573.9 285.6 571.65 285.15 Q564.1 283.4 560.25 279.35 L558.45 277.1 Q553.5 269.3 547.45 258.3 541.15 247.0 541.15 245.75 541.15 244.7 533.05 238.15 L524.95 231.75 505.5 226.65 Q500.9 225.3 499.8 224.75 497.4 223.6 494.55 220.6 L492.2 217.9 Q490.2 215.4 489.05 213.1 487.15 209.15 487.8 205.75 L487.85 204.6 487.95 203.8 Q488.3 201.9 489.15 202.1 L500.2 203.95 512.8 205.75 Q516.75 206.15 525.5 205.75 535.9 205.3 537.45 203.75 539.8 201.45 545.15 198.1 L546.7 198.6 Q547.9 199.45 546.45 201.1 L543.45 204.8 Q541.5 206.85 538.15 208.75 535.15 210.45 528.35 213.55 521.7 216.6 520.8 217.1 519.1 218.1 518.95 219.65 518.8 221.2 520.15 221.45 L525.25 221.2 Q529.4 220.6 532.15 219.45 534.65 218.4 544.55 211.35 L556.45 202.75 561.9 198.8 Q564.8 197.15 564.8 200.1 L564.25 206.35 Q563.9 209.35 564.45 210.1 L566.7 212.4 Q568.15 214.0 568.15 215.45 568.15 216.7 567.0 221.2 565.8 225.7 565.8 226.45 565.8 227.55 566.55 230.65 L567.8 235.1 Q568.8 238.2 569.5 244.9 570.4 253.55 568.45 255.45 L563.15 260.75 563.35 261.75 Q563.75 262.75 564.8 262.75 L575.9 261.2 Q585.95 259.4 586.8 258.1 588.2 256.05 590.5 250.95 593.15 244.95 593.15 242.75 593.15 240.95 591.8 235.1 590.45 229.3 590.45 228.45 590.45 226.95 591.55 224.8 592.65 222.65 594.15 221.45 L596.7 218.9 Q598.0 217.7 598.8 218.1 600.15 218.75 601.8 225.75 L601.9 226.0 600.45 226.75 Q596.6 228.55 593.45 241.1 592.75 243.9 595.7 245.4 598.3 246.7 602.45 246.45 604.6 246.3 606.35 245.15 L606.15 247.75 Q605.5 249.95 603.95 258.25 602.1 266.3 599.45 269.75 598.2 271.45 595.65 279.8 594.15 284.75 591.15 285.85 M602.9 229.65 L604.45 235.15 605.5 239.6 602.8 242.1 601.4 241.65 Q599.7 240.9 598.45 239.45 597.15 237.95 598.75 234.95 599.6 233.45 601.8 230.75 L602.9 229.65" fill="#141314" fill-rule="evenodd" stroke="none"/>
    <path d="M218.85 126.25 L218.15 125.75 221.9 124.5 223.5 125.0 Q225.9 125.95 227.3 128.2 228.2 129.6 228.7 131.55 229.4 134.15 229.4 137.7 229.4 141.8 228.65 145.8 L226.35 146.2 Q227.5 141.65 226.6 137.55 225.85 134.2 223.8 131.2 L222.75 129.85 220.05 127.1 218.85 126.25 M236.9 161.0 L241.65 161.25 243.05 164.05 243.75 165.65 246.1 172.75 Q246.8 175.75 247.0 178.25 247.35 184.35 244.65 188.5 L242.15 189.25 Q243.7 185.25 243.85 179.7 243.95 174.75 242.6 170.45 240.9 165.35 237.15 161.25 L236.9 161.0" fill="#4d453d" fill-rule="evenodd" stroke="none"/>
    <path d="M224.15 124.95 L223.9 124.75 231.65 124.3 272.4 121.75 Q280.7 123.8 282.25 132.85 282.95 136.9 282.35 140.65 L282.15 141.5 229.4 144.25 Q230.2 136.6 228.7 131.55 228.2 129.6 227.3 128.2 226.3 126.5 225.0 125.45 L224.15 124.95" fill="#736459" fill-rule="evenodd" stroke="none"/>
    <path d="M137.15 131.75 L146.8 130.85 182.4 127.5 Q189.45 127.05 191.35 135.85 192.35 140.25 191.9 144.75 L147.75 148.7 146.9 148.75 Q146.6 147.35 141.85 139.4 L137.15 131.75 M222.75 129.85 L223.8 131.2 Q225.85 134.2 226.6 137.55 L225.45 146.35 213.4 148.5 212.4 147.3 197.15 129.25 197.45 129.25 219.15 127.25 222.75 129.85" fill="#70675e" fill-rule="evenodd" stroke="none"/>
    <path d="M226.35 146.2 L228.65 145.8 228.9 145.75 231.45 152.95 Q234.1 159.85 235.5 161.1 L232.55 161.35 226.15 161.5 225.15 154.5 223.7 154.65 223.6 154.65 215.65 155.25 214.2 150.95 213.4 148.5 225.45 146.35 226.35 146.2 M236.65 149.0 L237.05 151.75 Q237.7 153.25 239.35 154.35 240.85 155.4 242.4 155.75 L242.35 155.85 241.15 158.0 Q239.4 158.0 238.4 157.5 L236.85 156.8 235.15 155.5 Q234.3 154.65 234.05 153.55 233.9 152.9 233.9 151.25 233.9 150.15 234.55 149.7 L236.65 149.0 M264.65 147.5 L265.05 150.25 Q265.7 151.75 267.35 152.85 268.85 153.9 270.4 154.25 L270.35 154.35 269.15 156.5 Q267.4 156.5 266.4 156.0 L264.85 155.3 Q263.95 154.8 263.15 154.0 262.3 153.15 262.05 152.05 261.9 151.4 261.9 149.75 261.9 148.65 262.55 148.2 L264.65 147.5 M278.4 145.5 L278.8 148.25 Q279.45 149.75 281.1 150.85 282.6 151.9 284.15 152.25 L284.1 152.35 282.9 154.5 Q281.15 154.5 280.15 154.0 L278.6 153.3 276.9 152.0 Q276.05 151.15 275.8 150.05 275.65 149.4 275.65 147.75 275.65 146.65 276.3 146.2 L278.4 145.5 M250.15 149.0 L250.55 151.75 Q251.2 153.25 252.85 154.35 254.35 155.4 255.9 155.75 L255.85 155.85 254.65 158.0 Q252.9 158.0 251.9 157.5 L250.35 156.8 248.65 155.5 Q247.8 154.65 247.55 153.55 247.4 152.9 247.4 151.25 247.4 150.15 248.05 149.7 L250.15 149.0" fill="#120d08" fill-rule="evenodd" stroke="none"/>
    <path d="M180.75 166.15 L199.9 164.25 Q211.0 166.75 209.7 178.65 209.05 184.55 206.15 190.0 L154.6 194.75 154.4 194.75 Q155.35 192.55 155.1 180.45 L154.8 172.6 154.65 168.75 180.75 166.15 M126.15 168.0 L134.4 170.95 Q142.65 174.95 142.65 180.25 142.65 186.5 141.35 190.6 140.05 194.55 138.15 194.75 L101.4 199.0 101.45 195.75 Q102.35 185.0 101.1 175.25 L100.75 172.75 100.7 172.5 126.15 168.0" fill="#625e51" fill-rule="evenodd" stroke="none"/>
    <path d="M152.4 161.0 L169.65 159.0 175.2 161.75 Q179.9 164.4 180.75 166.15 L154.65 168.75 153.45 165.05 152.15 161.0 152.4 161.0" fill="#827e71" fill-rule="evenodd" stroke="none"/>
    <path d="M282.55 145.0 L282.65 145.0 284.7 145.65 Q285.55 146.0 286.4 147.0 287.2 147.95 286.45 149.8 L285.75 151.15 285.15 152.0 Q284.95 152.35 284.1 152.35 L284.15 152.25 Q282.6 151.9 281.1 150.85 279.45 149.75 278.8 148.25 L278.4 145.5 279.85 145.05 282.55 145.0 M236.65 149.0 L238.1 148.55 240.9 148.5 242.95 149.15 Q243.8 149.5 244.65 150.5 245.45 151.45 244.7 153.3 L243.4 155.5 Q243.2 155.85 242.35 155.85 L242.4 155.75 Q240.85 155.4 239.35 154.35 237.7 153.25 237.05 151.75 L236.65 149.0 M264.65 147.5 L266.1 147.05 268.9 147.0 270.95 147.65 Q271.8 148.0 272.65 149.0 273.45 149.95 272.7 151.8 L271.4 154.0 Q271.2 154.35 270.35 154.35 L270.4 154.25 Q268.85 153.9 267.35 152.85 265.7 151.75 265.05 150.25 L264.65 147.5 M250.15 149.0 L251.6 148.55 254.4 148.5 256.45 149.15 Q257.3 149.5 258.15 150.5 258.95 151.45 258.2 153.3 L256.9 155.5 Q256.7 155.85 255.85 155.85 L255.9 155.75 Q254.35 155.4 252.85 154.35 251.2 153.25 250.55 151.75 L250.15 149.0" fill="#8b8577" fill-rule="evenodd" stroke="none"/>
    <path d="M228.9 145.75 L280.9 141.75 282.55 145.0 279.85 145.05 278.4 145.5 276.3 146.2 Q275.65 146.65 275.65 147.75 275.65 149.4 275.8 150.05 276.05 151.15 276.9 152.0 L278.6 153.3 280.15 154.0 Q281.15 154.5 282.9 154.5 L284.1 152.35 Q284.95 152.35 285.15 152.0 L285.75 151.15 290.15 159.75 266.4 161.15 242.65 162.25 241.65 161.25 236.9 161.0 237.15 161.25 237.1 161.25 236.9 161.0 235.6 161.1 228.9 145.75 M242.35 155.85 Q243.2 155.85 243.4 155.5 L244.7 153.3 Q245.45 151.45 244.65 150.5 243.8 149.5 242.95 149.15 L240.9 148.5 238.1 148.55 236.65 149.0 234.55 149.7 Q233.9 150.15 233.9 151.25 233.9 152.9 234.05 153.55 234.3 154.65 235.15 155.5 L236.85 156.8 238.4 157.5 Q239.4 158.0 241.15 158.0 L242.35 155.85 M270.35 154.35 Q271.2 154.35 271.4 154.0 L272.7 151.8 Q273.45 149.95 272.65 149.0 271.8 148.0 270.95 147.65 L268.9 147.0 266.1 147.05 264.65 147.5 262.55 148.2 Q261.9 148.65 261.9 149.75 261.9 151.4 262.05 152.05 262.3 153.15 263.15 154.0 263.95 154.8 264.85 155.3 L266.4 156.0 Q267.4 156.5 269.15 156.5 L270.35 154.35 M255.85 155.85 Q256.7 155.85 256.9 155.5 L258.2 153.3 Q258.95 151.45 258.15 150.5 257.3 149.5 256.45 149.15 L254.4 148.5 251.6 148.55 250.15 149.0 248.05 149.7 Q247.4 150.15 247.4 151.25 247.4 152.9 247.55 153.55 247.8 154.65 248.65 155.5 L250.35 156.8 251.9 157.5 Q252.9 158.0 254.65 158.0 L255.85 155.85" fill="#70695d" fill-rule="evenodd" stroke="none"/>
    <path d="M215.65 155.25 L223.6 154.65 223.7 154.65 225.15 154.5 226.15 161.5 218.15 162.45 217.65 162.5 215.65 155.25" fill="#4f4741" fill-rule="evenodd" stroke="none"/>
    <path d="M217.65 162.5 L218.15 162.45 232.55 161.35 235.5 161.1 235.6 161.1 236.9 161.0 237.1 161.25 238.65 163.15 Q240.7 165.95 242.05 169.15 L242.6 170.45 Q243.95 174.75 243.85 179.7 243.7 185.25 242.15 189.25 L218.9 190.75 Q219.55 185.6 219.85 180.15 L219.95 177.95 Q220.4 166.35 218.3 163.25 L217.65 162.5" fill="#716a5d" fill-rule="evenodd" stroke="none"/>
    <path d="M248.15 189.5 L270.9 187.0 270.65 190.0 Q269.65 190.75 217.9 198.5 219.1 198.0 218.95 191.25 L218.9 190.75 242.15 189.25 244.65 188.5 248.15 189.5 M60.75 193.8 Q59.1 193.35 57.85 191.65 56.1 189.35 56.1 186.15 56.1 183.25 57.5 181.15 59.4 179.4 61.45 178.7 L63.05 178.45 Q64.8 178.8 66.1 180.6 L67.3 182.75 67.8 184.9 67.85 186.15 Q67.85 187.65 67.5 188.9 L65.55 192.35 64.6 193.15 61.9 193.8 60.75 193.8" fill="#0f0602" fill-rule="evenodd" stroke="none"/>
    <path d="M294.2 141.5 L293.65 143.5 291.15 143.0 Q291.5 140.05 290.85 136.55 L290.7 135.85 Q290.1 133.0 289.0 130.8 286.95 126.85 283.15 124.75 L285.15 122.25 287.45 122.75 287.15 122.75 Q290.15 123.55 292.15 125.0 L294.5 128.2 Q295.75 130.2 295.9 132.0 296.1 134.15 294.6 140.05 L293.9 141.5 294.2 141.5" fill="#767061" fill-rule="evenodd" stroke="none"/>
    <path d="M287.45 122.75 L293.4 122.75 295.5 123.75 Q298.0 125.15 299.8 127.0 305.6 133.0 302.65 141.75 L294.2 141.5 293.9 141.5 294.6 140.05 Q295.85 136.95 295.95 133.55 296.1 127.9 292.15 125.0 290.15 123.55 287.15 122.75 L287.45 122.75" fill="#2d2721" fill-rule="evenodd" stroke="none"/>
    <path d="M282.15 141.5 L282.35 140.65 Q282.95 137.6 282.95 134.25 282.95 126.65 278.9 124.75 L283.15 124.75 284.8 125.95 Q286.75 127.55 288.1 129.45 L289.0 130.8 Q290.1 133.0 290.7 135.85 L290.85 136.55 Q291.1 139.65 289.9 143.0 L282.15 141.5" fill="#8b7c6f" fill-rule="evenodd" stroke="none"/>
    <path d="M266.4 161.15 L295.65 160.0 297.05 161.15 299.55 166.65 300.55 170.5 300.55 172.35 Q300.45 176.3 299.65 179.75 L299.2 180.9 Q295.25 183.0 248.15 189.5 L244.65 188.5 Q247.65 185.3 247.0 178.25 246.8 175.75 246.1 172.75 L243.75 165.65 242.65 162.25 266.4 161.15" fill="#60564c" fill-rule="evenodd" stroke="none"/>
    <path d="M307.4 158.75 L310.15 156.75 Q320.3 160.8 319.1 172.2 318.55 177.9 315.9 182.75 L311.65 179.5 Q313.75 173.95 312.45 168.35 312.0 166.55 311.2 164.7 310.2 162.4 308.7 160.35 L307.4 158.75" fill="#4a413b" fill-rule="evenodd" stroke="none"/>
    <path d="M303.25 160.45 L303.9 158.25 307.4 158.75 308.7 160.35 Q310.2 162.4 311.2 164.7 312.0 166.55 312.45 168.35 L312.55 170.65 Q312.6 175.3 311.65 179.5 L308.4 180.75 306.15 180.25 306.35 175.75 Q306.15 172.45 305.1 167.95 L303.15 160.75 303.25 160.45" fill="#a0978f" fill-rule="evenodd" stroke="none"/>
    <path d="M297.05 161.15 L296.65 160.25 301.15 159.25 Q302.35 159.45 303.25 160.45 L303.15 160.75 305.1 167.95 Q306.15 172.45 306.35 175.75 L306.15 180.25 299.4 180.75 Q296.15 188.2 299.2 180.9 L299.65 179.75 Q301.35 175.65 300.55 170.5 L299.55 166.65 297.05 161.15" fill="#6f6660" fill-rule="evenodd" stroke="none"/>
    <path d="M214.6 210.2 Q216.5 205.25 216.4 204.25 L293.15 195.25 297.15 196.3 Q301.6 197.85 304.15 200.1 312.3 207.3 297.9 219.0 L207.05 227.65 Q212.3 216.1 214.6 210.2" fill="#3f3731" fill-rule="evenodd" stroke="none"/>
    <path d="M15.9 231.75 L15.65 232.0 Q15.65 230.7 16.8 228.75 L17.65 227.35 19.65 224.75 41.15 221.0 Q44.75 221.7 46.45 224.05 L48.4 221.5 69.9 217.75 Q77.25 219.15 76.7 227.6 76.4 231.8 74.65 235.75 L53.65 239.0 54.05 238.35 56.0 234.95 56.65 233.75 56.3 230.9 55.8 228.75 Q54.45 224.4 51.55 224.45 L49.95 224.7 Q48.7 225.1 47.45 226.0 L46.0 227.15 Q44.6 229.25 44.6 232.15 44.6 235.35 46.35 237.65 L46.45 237.75 46.25 238.25 45.65 237.25 46.15 238.5 45.9 239.0 24.9 242.25 25.3 241.6 27.25 238.15 27.9 237.0 27.55 234.15 27.05 232.0 Q25.7 227.65 22.8 227.7 L21.2 227.95 Q19.15 228.65 17.25 230.4 L15.9 231.75 M1.6 187.5 L0.05 188.9 Q0.15 187.2 2.35 184.4 L4.5 181.95 5.0 181.9 10.8 181.3 15.65 180.8 26.2 179.7 Q33.45 181.6 32.3 190.0 31.75 194.2 29.7 198.0 L8.55 199.8 8.95 199.25 11.25 195.75 11.9 194.75 11.8 192.45 Q11.8 190.45 11.15 188.85 10.1 185.35 7.5 185.1 L5.85 185.25 Q3.75 185.8 1.7 187.45 L1.6 187.5 M12.65 144.65 L11.55 145.65 Q11.65 143.95 13.85 141.15 L16.0 138.7 17.3 138.6 20.35 138.25 27.0 137.6 37.7 136.45 Q40.1 137.1 41.6 138.45 L41.65 138.35 43.65 135.75 65.15 132.0 Q72.5 133.4 71.95 141.85 71.65 146.05 69.9 150.0 L48.9 153.25 49.3 152.6 51.25 149.2 51.9 148.0 51.55 145.15 51.05 143.0 Q49.7 138.65 46.8 138.7 L45.2 138.95 Q44.05 139.35 42.9 140.1 L41.25 141.4 Q39.85 143.5 39.85 146.4 39.85 149.6 41.6 151.9 L42.25 152.65 42.05 153.1 40.9 151.5 41.55 153.25 41.75 153.7 41.2 154.75 20.05 156.55 20.45 156.0 22.75 152.5 23.4 151.5 23.3 149.2 Q23.3 147.2 22.65 145.6 21.6 142.1 19.0 141.85 L17.35 142.0 Q15.25 142.55 13.2 144.2 L12.65 144.65 M57.5 181.15 L55.9 182.75 Q55.9 181.05 57.9 178.1 L59.9 175.5 81.4 171.75 Q88.75 173.15 88.2 181.6 87.9 185.8 86.15 189.75 L65.15 193.0 65.55 192.35 67.5 188.9 68.15 187.75 67.8 184.9 67.3 182.75 Q65.95 178.4 63.05 178.45 L61.45 178.7 Q59.4 179.4 57.5 181.15" fill="#514b49" fill-rule="evenodd" stroke="none"/>
    <path d="M42.25 152.65 L41.6 151.9 Q39.85 149.6 39.85 146.4 39.85 143.5 41.25 141.4 L42.9 140.1 Q44.05 139.35 45.2 138.95 L46.8 138.7 Q48.55 139.05 49.85 140.85 L51.05 143.0 51.55 145.15 51.6 146.4 Q51.6 147.9 51.25 149.2 L49.3 152.6 48.35 153.4 45.65 154.05 44.5 154.05 Q43.25 153.7 42.25 152.65" fill="#100a0d" fill-rule="evenodd" stroke="none"/>
    <path d="M80.65 131.25 L79.9 130.25 107.4 127.0 Q108.9 126.85 112.95 127.9 116.3 128.8 118.65 129.75 121.15 130.75 125.65 136.75 126.6 138.0 124.85 142.75 L122.9 147.25 93.65 150.0 Q93.5 149.1 91.45 145.95 87.0 138.2 80.65 131.25" fill="#817068" fill-rule="evenodd" stroke="none"/>
    <path d="M13.2 144.2 Q15.25 142.55 17.35 142.0 L19.0 141.85 Q20.7 142.35 21.9 144.2 L22.65 145.6 Q23.3 147.2 23.3 149.2 L23.25 149.85 22.75 152.5 20.45 156.0 19.55 156.65 16.75 157.15 15.95 157.1 Q14.1 156.65 12.85 154.7 11.3 152.3 11.5 149.05 11.7 146.25 13.2 144.2 M55.8 228.75 L56.3 230.9 56.35 232.15 Q56.35 233.65 56.0 234.95 L54.05 238.35 53.1 239.15 50.4 239.8 49.25 239.8 Q47.65 239.35 46.45 237.75 L46.35 237.65 Q44.6 235.35 44.6 232.15 44.6 229.25 46.0 227.15 L47.45 226.0 Q48.7 225.1 49.95 224.7 L51.55 224.45 Q53.3 224.8 54.6 226.6 L55.8 228.75 M17.25 230.4 Q19.15 228.65 21.2 227.95 L22.8 227.7 Q24.55 228.05 25.85 229.85 L27.05 232.0 27.55 234.15 27.6 235.4 Q27.6 236.9 27.25 238.15 L25.3 241.6 24.35 242.4 21.65 243.05 20.5 243.05 Q18.85 242.6 17.6 240.9 15.85 238.6 15.85 235.4 15.85 232.5 17.25 230.4" fill="#0a0202" fill-rule="evenodd" stroke="none"/>
    <path d="M20.15 245.0 L19.65 244.75 Q18.4 244.15 17.55 242.25 L17.45 241.95 16.9 240.5 Q17.95 242.8 20.5 243.05 L21.65 243.05 24.35 242.4 24.9 242.25 45.9 239.0 44.9 243.75 28.65 246.25 Q22.45 245.8 20.15 245.0 M2.3 201.2 Q1.65 200.5 1.2 199.3 L0.7 197.5 1.15 198.4 Q2.15 200.1 4.45 200.35 L5.25 200.4 8.05 199.9 8.55 199.8 29.7 198.0 28.4 202.65 12.0 204.05 Q5.05 203.05 3.15 201.9 L2.3 201.2 M14.9 158.8 L14.65 158.65 13.25 157.15 12.7 156.05 12.2 154.25 Q13.1 156.8 15.95 157.1 L16.75 157.15 19.55 156.65 20.05 156.55 41.2 154.75 39.9 159.4 23.5 160.8 Q16.9 159.85 14.9 158.8 M48.9 153.25 L69.9 150.0 68.9 154.75 52.65 157.25 Q45.65 156.75 43.65 155.75 42.55 155.2 41.75 153.7 L41.55 153.25 40.9 151.5 42.05 153.1 Q43.0 153.9 44.5 154.05 L45.65 154.05 48.35 153.4 48.9 153.25 M61.45 196.05 L59.9 195.5 Q58.65 194.9 57.8 193.0 L57.7 192.75 57.15 191.25 Q58.2 193.55 60.75 193.8 L61.9 193.8 64.6 193.15 65.15 193.0 86.15 189.75 85.15 194.5 68.9 197.0 61.45 196.05 M53.65 239.0 L74.65 235.75 73.65 240.5 57.4 243.0 Q50.4 242.5 48.4 241.5 47.15 240.9 46.3 239.0 L46.15 238.5 45.65 237.25 46.25 238.25 Q47.3 239.6 49.25 239.8 L50.4 239.8 53.1 239.15 53.65 239.0" fill="#19110b" fill-rule="evenodd" stroke="none"/>
    <path d="M0.7 196.7 Q-0.15 194.75 0.0 192.3 0.2 189.6 1.55 187.65 L1.6 187.6 1.7 187.45 Q3.75 185.8 5.85 185.25 L7.5 185.1 Q9.2 185.6 10.4 187.45 L11.15 188.85 Q11.8 190.45 11.8 192.45 L11.75 193.1 11.25 195.75 8.95 199.25 8.05 199.9 5.25 200.4 4.45 200.35 Q2.6 199.9 1.35 197.95 L0.7 196.7" fill="#170000" fill-rule="evenodd" stroke="none"/>
    <path d="M61.45 196.05 L62.65 196.75 Q57.6 201.8 54.4 202.05 52.05 202.2 47.65 199.25 43.75 196.65 43.95 184.85 44.2 173.1 48.15 170.25 51.45 167.9 55.6 171.1 57.7 172.7 59.15 174.75 51.35 183.05 56.2 190.7 L57.7 192.75 57.8 193.0 Q58.65 194.9 59.9 195.5 L61.45 196.05" fill="#0c0804" fill-rule="evenodd" stroke="none"/>
    <path d="M122.2 155.7 L123.4 156.75 Q124.2 157.7 123.45 159.55 L122.15 161.75 Q121.95 162.1 121.1 162.1 L121.15 162.0 Q119.6 161.65 118.1 160.6 116.45 159.5 115.8 158.0 L115.4 155.25 116.85 154.8 119.65 154.75 121.7 155.4 Q121.95 155.5 122.2 155.7 M98.65 157.25 Q101.15 156.25 102.9 156.75 L104.95 157.4 Q105.8 157.75 106.65 158.75 107.45 159.7 106.7 161.55 L105.4 163.75 Q105.2 164.1 104.35 164.1 L104.4 164.0 Q102.85 163.65 101.35 162.6 99.7 161.5 99.05 160.0 L98.65 157.25" fill="#78736a" fill-rule="evenodd" stroke="none"/>
    <path d="M93.65 150.0 L119.9 148.5 122.2 155.7 Q121.95 155.5 121.7 155.4 L119.65 154.75 116.85 154.8 115.4 155.25 113.3 155.95 Q112.65 156.4 112.65 157.5 112.65 159.15 112.8 159.8 113.05 160.9 113.9 161.75 L115.6 163.05 117.15 163.75 119.9 164.25 121.1 162.1 Q121.95 162.1 122.15 161.75 L123.45 159.55 126.15 168.0 100.7 172.5 99.2 165.2 100.4 165.75 Q101.4 166.25 103.15 166.25 L104.35 164.1 Q105.2 164.1 105.4 163.75 L106.7 161.55 Q107.45 159.7 106.65 158.75 105.8 157.75 104.95 157.4 L102.9 156.75 Q101.15 156.25 98.65 157.25 L96.95 157.85 Q94.7 150.0 93.65 150.0" fill="#9b9882" fill-rule="evenodd" stroke="none"/>
    <path d="M115.4 155.25 L115.8 158.0 Q116.45 159.5 118.1 160.6 119.6 161.65 121.15 162.0 L121.1 162.1 119.9 164.25 117.15 163.75 115.6 163.05 113.9 161.75 Q113.05 160.9 112.8 159.8 112.65 159.15 112.65 157.5 112.65 156.4 113.3 155.95 L115.4 155.25 M98.65 157.25 L99.05 160.0 Q99.7 161.5 101.35 162.6 102.85 163.65 104.4 164.0 L104.35 164.1 103.15 166.25 Q101.4 166.25 100.4 165.75 L99.2 165.2 Q98.3 161.6 97.05 158.2 L96.95 157.85 98.65 157.25" fill="#0d0700" fill-rule="evenodd" stroke="none"/>
    <path d="M151.4 210.0 L151.9 208.5 189.15 204.75 Q196.7 204.75 197.1 214.1 197.2 217.15 196.55 220.7 196.0 223.5 195.65 224.0 195.3 224.55 192.55 225.95 189.9 227.3 188.9 227.5 L141.9 233.0 Q142.7 232.4 145.55 225.3 L151.4 210.0" fill="#494541" fill-rule="evenodd" stroke="none"/>
    <path d="M99.1 211.5 L115.65 210.25 118.65 211.45 Q122.15 213.05 124.85 215.0 133.55 221.25 130.9 228.75 128.25 236.25 123.45 238.25 L120.4 238.9 119.15 238.75 88.65 242.25 89.75 239.75 Q95.85 227.2 99.1 211.5" fill="#3f3e3a" fill-rule="evenodd" stroke="none"/>
  </g>
</svg>
