<?xml version="1.0" encoding="UTF-8" standalone="no"?>
<svg xmlns:xlink="http://www.w3.org/1999/xlink" height="16.05px" width="27.85px" xmlns="http://www.w3.org/2000/svg">
  <g transform="matrix(1.0, 0.0, 0.0, 1.0, 0.0, 0.0)">
    <path d="M11.75 1.7 L15.95 0.6 24.1 0.25 Q27.85 0.95 27.85 3.2 27.85 6.7 23.35 10.05 18.0 14.05 9.85 14.05 L6.7 13.65 6.85 14.05 Q6.4 15.4 5.0 16.05 L4.3 15.7 3.0 14.8 Q3.0 14.15 3.55 13.35 4.0 12.65 4.6 12.3 L4.0 11.25 3.8 9.85 3.0 10.05 0.75 10.05 0.4 9.8 Q0.0 9.55 0.0 8.05 0.0 6.05 2.85 3.35 6.45 -0.05 11.1 1.55 11.3 1.3 11.5 1.35 L11.75 1.7" fill="#000000" fill-rule="evenodd" stroke="none"/>
  </g>
</svg>
