<?xml version="1.0" encoding="UTF-8" standalone="no"?>
<svg xmlns:xlink="http://www.w3.org/1999/xlink" height="33.65px" width="92.75px" xmlns="http://www.w3.org/2000/svg">
  <g transform="matrix(1.0, 0.0, 0.0, 1.0, 46.7, -32.35)">
    <path d="M43.15 32.5 Q44.65 32.05 46.05 33.0 L46.05 33.45 Q45.15 34.05 43.8 34.05 L42.25 33.85 41.4 33.3 43.15 32.5 M14.5 36.85 Q14.7 36.9 14.7 37.8 14.7 38.7 13.5 39.35 12.4 39.95 11.25 39.95 L9.7 39.75 8.85 39.2 9.15 38.3 Q9.25 37.7 8.85 37.4 9.85 36.3 14.25 36.75 L14.5 36.85 M16.4 34.95 L10.8 35.75 4.7 36.45 Q2.8 36.45 1.8 35.7 4.4 33.35 9.65 32.95 14.75 32.6 16.4 34.2 L16.4 34.95 M16.8 44.8 Q20.15 44.9 24.75 46.05 L24.75 46.5 Q23.85 47.1 22.5 47.1 L17.8 46.7 12.45 45.75 Q13.25 44.65 16.8 44.8 M34.95 43.5 L33.4 43.3 32.55 42.75 34.3 41.95 Q35.8 41.5 37.2 42.45 L37.2 42.9 Q36.3 43.5 34.95 43.5 M25.0 55.1 Q23.4 55.95 21.3 55.95 18.75 55.95 17.75 55.2 17.3 53.35 18.95 52.65 21.25 51.65 27.05 53.55 L25.0 55.1 M1.0 60.7 L0.35 61.2 0.05 61.6 Q-0.5 62.45 -2.3 62.45 L-3.45 62.35 -5.55 62.45 Q-8.85 62.45 -9.45 60.7 L-9.45 58.8 Q-9.45 56.3 -3.45 54.25 2.8 52.1 5.45 55.8 L5.9 56.25 Q3.35 58.1 1.0 60.7 M-21.55 49.2 L-23.0 49.4 -24.55 49.2 -25.4 48.65 -23.65 47.9 Q-22.1 47.45 -20.85 48.35 L-20.85 48.8 -21.55 49.2 M-20.85 34.85 Q-19.35 34.45 -17.25 35.4 L-17.25 35.85 Q-18.15 36.45 -19.8 36.45 -21.5 36.45 -22.5 35.7 L-20.85 34.85 M-1.85 47.4 L-1.75 47.85 -1.7 49.1 Q-1.7 50.0 -1.85 50.9 L-5.25 51.2 -8.85 50.9 Q-9.1 49.0 -8.55 48.1 -7.6 46.5 -1.85 47.4 M-10.8 49.4 Q-11.7 50.0 -13.25 50.0 -14.9 50.0 -15.9 49.25 -15.05 48.65 -14.3 48.4 -12.8 48.0 -10.8 48.95 L-10.8 49.4 M-46.55 49.7 L-42.8 50.15 Q-41.15 50.6 -39.15 51.9 L-39.15 52.35 Q-40.05 52.95 -42.6 52.95 -45.2 52.95 -46.1 52.25 L-46.7 51.35 -46.55 49.7 M-16.35 63.5 Q-14.6 62.85 -13.7 63.75 -13.55 64.2 -13.55 65.1 -14.45 66.0 -16.2 66.0 -17.9 66.0 -18.9 65.25 -17.9 64.05 -16.35 63.5 M-34.35 50.85 Q-32.9 50.4 -31.5 51.35 L-31.5 51.8 Q-32.5 52.35 -33.75 52.35 L-35.25 52.15 -36.05 51.65 Q-35.15 51.05 -34.35 50.85" fill="#990000" fill-rule="evenodd" stroke="none"/>
  </g>
</svg>
