<?xml version="1.0" encoding="UTF-8" standalone="no"?>
<svg xmlns:xlink="http://www.w3.org/1999/xlink" height="61.15px" width="72.95px" xmlns="http://www.w3.org/2000/svg">
  <g transform="matrix(1.0, 0.0, 0.0, 1.0, 36.15, 37.8)">
    <path d="M-5.75 -32.8 L-31.15 -17.75 -25.45 6.0" fill="none" stroke="#000000" stroke-linecap="round" stroke-linejoin="round" stroke-width="10.0"/>
    <path d="M-6.05 -30.8 L9.45 -10.9 31.8 -23.75" fill="none" stroke="#000000" stroke-linecap="round" stroke-linejoin="round" stroke-width="10.0"/>
    <path d="M-21.35 0.05 L-21.3 0.1 -21.3 0.65 -21.3 0.75 -21.35 0.4 -21.35 0.05 M-24.05 2.4 L-24.0 2.45 -23.2 2.8 -23.0 2.85 -23.3 2.9 -23.05 2.95 -22.7 3.0 -22.15 3.0 -21.8 3.0 -21.55 3.25 -21.35 3.55 -21.9 3.15 -22.6 3.2 -23.85 3.05 -23.1 4.55 Q-22.35 6.1 -22.45 6.85 L-20.15 7.25 -20.3 5.9 -20.15 5.75 -19.95 5.5 Q-19.75 5.05 -20.5 4.85 L-20.65 4.1 -21.35 3.6 -21.3 3.4 -21.15 3.1 -20.95 2.95 -20.75 2.85 -20.4 2.45 -20.35 2.15 -20.35 2.55 -20.35 2.7 -20.25 3.15 -20.0 3.65 -20.0 3.95 -20.65 3.75 -21.05 3.6 -19.8 4.55 -19.65 5.5 -19.4 5.6 -19.0 5.65 -18.8 5.55 -18.7 5.5 -18.6 5.5 -18.55 5.6 -18.55 5.65 -18.55 5.8 -18.5 5.9 -18.5 6.05 -18.45 6.05 -18.4 6.1 -18.5 6.15 -18.7 6.15 -18.55 5.95 -18.95 6.05 Q-19.15 6.1 -19.2 6.25 L-19.15 6.95 -18.95 7.45 -18.5 7.35 -18.8 7.5 -18.75 8.15 -18.8 7.75 -19.1 8.0 -19.4 8.15 -19.5 7.75 -19.3 9.0 -19.15 10.3 -19.1 10.45 -19.05 10.5 -18.5 10.6 Q-18.05 10.55 -18.0 10.1 L-17.95 10.8 -19.45 10.95 -19.5 10.7 -20.0 11.0 -20.1 11.0 -19.9 12.55 -19.9 12.95 Q-20.6 14.1 -21.4 14.25 L-20.8 13.9 Q-20.15 13.5 -20.2 12.9 -20.15 12.3 -20.25 11.6 L-20.35 11.1 -20.15 11.1 -20.25 10.7 -20.6 10.65 -21.4 10.7 Q-22.6 11.0 -23.0 12.35 L-22.95 12.1 -22.55 11.4 Q-21.7 10.35 -20.25 10.7 L-20.45 9.85 -20.75 10.2 -20.85 10.2 -20.5 9.75 -20.55 9.55 -20.9 9.0 Q-21.4 8.35 -22.2 8.4 -23.15 8.4 -23.55 9.35 -23.9 10.15 -23.75 11.5 -23.6 12.8 -22.95 13.6 -22.3 14.3 -21.45 14.25 L-21.85 14.25 -22.45 14.05 -22.75 13.9 -22.8 14.25 Q-21.6 14.25 -20.5 14.8 L-19.85 15.15 -19.65 15.3 -19.4 15.05 -19.8 11.55 -19.45 11.05 -19.35 11.2 -18.75 11.3 -18.5 12.3 -18.3 12.2 -18.3 11.3 -18.1 11.3 -18.0 11.95 -18.1 12.25 -18.65 12.4 -19.0 12.95 -19.0 13.2 -19.0 13.3 -18.85 13.35 -18.75 13.5 -18.7 13.6 -18.8 13.85 -19.55 15.85 Q-20.2 14.9 -21.05 14.6 L-22.8 14.25 -23.05 13.9 -23.55 12.95 Q-24.25 11.4 -23.95 9.6 L-24.05 9.4 -24.15 8.9 Q-24.45 8.2 -25.1 8.1 L-27.5 7.7 -29.1 7.55 -29.85 7.7 -30.75 7.85 -31.35 8.05 -32.0 8.15 -32.35 7.9 -32.65 7.05 -32.75 5.9 -32.45 7.65 -32.25 7.2 -31.85 6.75 -32.4 3.1 -32.15 3.05 -31.7 2.9 -31.75 1.5 -31.0 1.3 -29.9 1.15 -26.8 1.75 -24.05 2.4 M-21.3 2.2 L-21.05 1.85 -20.7 1.15 -20.65 0.8 -20.9 -0.45 -20.85 -0.7 -20.75 -0.65 -20.75 -0.55 -20.75 -0.05 -20.3 0.75 -19.95 1.2 -18.65 1.65 -18.55 1.6 -18.8 1.8 -18.65 2.85 -18.5 3.8 -18.45 4.35 -18.3 5.15 -18.55 5.45 -18.6 5.45 -18.6 5.4 -18.6 5.35 -18.5 5.3 -18.45 5.3 -18.45 5.25 Q-18.35 5.15 -18.4 4.85 L-18.65 3.65 -18.8 2.55 -18.85 2.15 -18.85 1.9 -18.9 1.75 -19.15 1.7 -19.85 1.75 -20.25 1.8 -20.25 1.7 -20.25 1.6 -20.35 1.2 -20.9 1.85 -21.3 2.2 M-20.3 0.7 L-20.2 0.75 -20.25 0.75 -20.3 0.7 M-18.3 1.4 L-18.2 1.45 -17.0 0.95 -16.65 1.05 Q-16.45 1.25 -16.5 1.65 L-16.5 2.3 -16.4 2.45 -16.4 2.5 -16.2 2.75 -16.45 2.5 -16.9 2.15 -17.05 2.1 -17.1 2.1 -18.2 1.45 -18.4 1.55 -18.3 1.4 M-17.8 11.5 L-17.95 11.75 -18.0 11.2 -17.85 11.35 -17.8 11.5 M-17.2 1.15 L-17.25 1.4 -17.15 1.6 -16.9 1.7 -16.75 1.55 -16.65 1.35 -16.8 1.1 -17.0 1.05 -17.2 1.15 M-20.3 2.7 L-20.15 3.0 -19.85 3.35 -20.05 3.2 -20.3 2.8 -20.3 2.7 M-19.2 5.15 L-19.35 4.9 -19.55 4.15 -19.55 4.05 -19.4 4.5 -19.4 4.55 -19.35 4.7 -19.2 5.15 M-19.65 10.15 L-19.55 10.1 -19.6 9.65 -19.95 8.7 Q-20.75 7.35 -22.7 7.8 L-22.9 8.25 -22.9 8.5 -22.5 8.4 -21.7 8.3 Q-20.45 8.45 -20.1 10.2 L-19.85 10.2 -19.9 10.2 -19.95 10.4 -19.85 10.6 -19.65 10.7 -19.45 10.55 -19.35 10.35 -19.5 10.15 -19.65 10.15 M-18.85 13.45 L-19.05 13.35 -19.25 13.5 -19.25 13.7 -19.2 13.9 -18.95 13.9 -18.8 13.85 -18.75 13.6 -18.85 13.45 M-23.7 3.9 L-24.4 2.95 -29.5 1.75 -30.65 1.95 -30.15 6.0 -30.0 6.1 -24.2 6.8 -23.95 6.8 Q-23.5 6.35 -23.0 6.5 L-22.7 6.7 -22.6 6.75 -22.7 6.6 -22.8 6.5 Q-22.95 5.2 -23.7 3.9 M-22.8 6.9 Q-22.8 6.6 -23.3 6.65 L-23.8 6.85 -23.8 7.45 Q-24.15 7.1 -23.8 7.5 L-23.15 7.65 -22.9 7.55 -22.85 7.5 -22.8 7.2 -22.8 6.9 M-23.05 12.4 L-23.1 12.2 -23.05 12.15 -23.05 12.4 M-21.8 10.5 L-21.65 10.3 -21.7 10.5 -21.8 10.5" fill="#313238" fill-rule="evenodd" stroke="none"/>
    <path d="M-20.75 -0.55 L-20.7 -0.55 -20.5 0.05 -20.3 0.7 -20.25 0.75 -20.2 0.75 -19.2 1.15 -18.3 1.4 -18.4 1.55 -18.55 1.6 -18.65 1.65 -19.95 1.2 -20.3 0.75 -20.75 -0.05 -20.75 -0.55" fill="#a8aab2" fill-rule="evenodd" stroke="none"/>
    <path d="M-21.35 0.05 L-21.35 0.0 -21.35 -0.4 Q-21.2 -0.85 -20.85 -0.7 L-20.9 -0.45 -20.65 0.8 -20.7 1.15 -21.05 1.85 -21.3 2.2 -21.5 2.35 -22.4 2.75 -22.9 2.85 -23.0 2.85 -23.2 2.8 -24.0 2.45 -24.05 2.4 -23.0 2.65 -22.9 2.65 -22.85 2.6 -22.35 2.5 -21.7 2.05 -21.5 1.8 -21.3 1.3 -21.25 1.25 -21.3 1.0 -21.3 0.75 -21.3 0.65 -21.3 0.1 -21.35 0.05" fill="#323439" fill-rule="evenodd" stroke="none"/>
    <path d="M-17.2 1.15 L-17.0 1.05 -16.8 1.1 -16.65 1.35 -16.75 1.55 -16.9 1.7 -17.15 1.6 -17.25 1.4 -17.2 1.15 M-18.45 4.35 L-18.35 4.2 -18.25 4.1 -18.1 4.15 -18.05 4.3 -18.05 4.45 -18.2 4.5 -18.3 4.5 -18.45 4.35 M-18.85 13.45 L-18.75 13.6 -18.8 13.85 -18.95 13.9 -19.2 13.9 -19.25 13.7 -19.25 13.5 -19.05 13.35 -18.85 13.45" fill="#7b7a81" fill-rule="evenodd" stroke="none"/>
    <path d="M-16.2 2.75 L-16.05 3.25 -16.05 3.4 -16.15 3.35 -16.1 3.75 -16.15 6.15 -16.45 7.0 -16.65 8.05 -16.7 7.85 -16.75 7.6 -16.75 7.45 -16.8 7.35 -16.8 7.25 -16.8 7.2 -16.8 7.1 -16.8 7.05 -16.85 6.9 -16.85 6.75 -16.9 6.6 -16.9 6.55 -16.95 6.3 -16.95 6.2 -16.95 6.0 -17.0 5.95 -17.0 5.8 -17.0 5.75 -17.0 5.6 -17.5 2.2 -17.05 2.1 -16.9 2.15 -16.45 2.5 -16.2 2.75" fill="#626672" fill-rule="evenodd" stroke="none"/>
    <path d="M-16.65 8.05 L-16.65 8.1 -16.7 8.05 -18.05 7.85 -16.7 8.0 -16.7 7.85 -16.65 8.05 M-16.7 8.15 L-16.7 8.2 -18.0 8.0 -16.7 8.15 M-16.7 8.3 L-16.7 8.35 -18.0 8.15 -16.7 8.3 M-16.75 8.6 L-16.75 8.65 -18.0 8.45 -16.75 8.6 M-16.9 9.15 L-16.95 9.2 -18.1 9.05 -16.9 9.15 M-17.05 9.6 L-17.1 9.7 -18.0 9.55 -18.0 9.5 -17.05 9.6 M-17.15 9.8 L-17.65 11.15 -17.85 9.8 -18.0 9.7 -17.15 9.8 M-18.55 1.6 L-18.4 1.55 -18.2 1.45 -17.1 2.1 -17.05 2.1 -17.5 2.2 -17.0 5.6 -18.55 5.45 -18.3 5.15 -18.45 4.35 -18.5 3.8 -18.35 3.65 -18.2 3.45 -18.35 3.25 -18.5 3.0 -18.65 2.65 -18.65 2.85 -18.8 1.8 -18.55 1.6 M-17.0 5.75 L-17.0 5.8 -18.55 5.65 -18.55 5.6 -17.0 5.75 M-16.95 6.2 L-16.95 6.3 -18.4 6.1 -18.45 6.05 -16.95 6.2 M-16.9 6.55 L-16.9 6.6 -18.3 6.4 -16.9 6.55 M-16.8 7.05 L-16.8 7.1 -18.2 6.9 -16.8 7.05 M-16.8 7.2 L-16.8 7.25 -18.2 7.05 -16.8 7.2 M-16.8 7.35 L-16.75 7.45 -18.2 7.25 -18.2 7.2 -16.8 7.35 M-16.75 7.6 L-16.7 7.85 -16.75 7.7 -16.75 7.6 M-18.45 4.35 L-18.3 4.5 -18.2 4.5 -18.05 4.45 -18.05 4.3 -18.1 4.15 -18.25 4.1 -18.35 4.2 -18.45 4.35 M-18.05 9.35 L-18.05 9.3 -17.0 9.45 -18.05 9.35 M-18.1 8.75 L-18.1 8.7 -16.8 8.9 -18.1 8.75 M-18.05 7.7 L-18.05 7.65 -16.7 7.85 -18.05 7.7 M-18.25 6.75 L-18.25 6.7 -16.85 6.9 -18.25 6.75" fill="#494c55" fill-rule="evenodd" stroke="none"/>
    <path d="M-23.0 2.85 L-22.9 2.85 -22.4 2.75 -21.5 2.35 -21.3 2.2 -20.9 1.85 -20.35 1.2 -20.25 1.6 -20.25 1.7 -20.25 1.8 -20.3 1.85 -20.35 1.9 -20.4 1.95 -20.35 2.15 -20.4 2.45 -20.75 2.85 -20.95 2.95 -21.15 3.1 -21.3 3.4 -21.35 3.6 -21.35 3.55 -21.55 3.25 -21.8 3.0 -22.15 3.0 -22.7 3.0 -23.05 2.95 -23.3 2.9 -23.0 2.85 M-20.35 2.55 L-20.3 2.7 -20.3 2.8 -20.05 3.2 -19.85 3.35 -19.75 3.45 -19.7 3.5 -19.55 3.9 -19.55 4.05 -19.55 4.15 -19.35 4.9 -19.2 5.15 -19.15 5.2 -19.15 5.25 -19.15 5.4 -18.9 5.5 -18.7 5.5 -18.8 5.55 -19.0 5.65 -19.4 5.6 -19.65 5.5 -19.8 4.55 -21.05 3.6 -20.65 3.75 -20.0 3.95 -20.0 3.65 -20.25 3.15 -20.35 2.7 -20.35 2.55" fill="#020202" fill-rule="evenodd" stroke="none"/>
    <path d="M-20.25 1.8 L-19.85 1.75 -19.15 1.7 -18.9 1.75 -18.85 1.9 -18.85 2.15 -18.8 2.55 -18.65 3.65 -18.4 4.85 Q-18.35 5.15 -18.45 5.25 L-18.45 5.3 -18.5 5.3 -18.6 5.35 -18.6 5.4 -19.15 3.15 -19.15 2.75 -19.35 2.45 Q-19.55 2.3 -19.7 2.3 L-20.0 2.35 -20.1 2.5 -20.15 2.65 -19.85 3.15 -19.7 3.5 -19.75 3.45 -19.85 3.35 -20.15 3.0 -20.3 2.7 -20.35 2.55 -20.35 2.15 -20.4 1.95 -20.35 1.9 -20.3 1.85 -20.25 1.8" fill="#414244" fill-rule="evenodd" stroke="none"/>
    <path d="M-19.7 3.5 L-19.85 3.15 -20.15 2.65 -20.1 2.5 -20.0 2.35 -19.7 2.3 Q-19.55 2.3 -19.35 2.45 L-19.15 2.75 -19.15 3.15 -18.6 5.4 -18.6 5.45 -18.6 5.5 -18.7 5.5 -18.9 5.5 -19.15 5.4 -19.15 5.25 -19.15 5.2 -19.2 5.15 -19.35 4.7 -19.4 4.55 -19.4 4.5 -19.55 4.05 -19.55 3.9 -19.7 3.5 M-19.85 10.2 L-19.8 10.2 -19.75 10.15 -19.65 10.15 -19.5 10.15 -19.35 10.35 -19.45 10.55 -19.65 10.7 -19.85 10.6 -19.95 10.4 -19.9 10.2 -19.85 10.2" fill="#55585e" fill-rule="evenodd" stroke="none"/>
    <path d="M-18.5 3.8 L-18.65 2.85 -18.65 2.65 -18.5 3.0 -18.35 3.25 -18.2 3.45 -18.35 3.65 -18.5 3.8" fill="#000100" fill-rule="evenodd" stroke="none"/>
    <path d="M-17.65 11.15 L-17.8 11.5 -17.85 11.35 -18.0 11.2 -17.95 11.75 -18.0 11.95 -18.1 11.3 -18.3 11.3 -18.3 12.2 -18.5 12.3 -18.75 11.3 -19.35 11.2 -19.45 11.05 -19.5 10.95 -19.45 10.95 -17.95 10.8 -18.0 10.1 -18.0 9.7 -17.85 9.8 -17.65 11.15 M-20.1 5.25 L-20.2 5.05 Q-20.4 4.85 -20.55 4.9 L-20.85 5.15 -20.95 5.35 -20.1 5.25 M-20.0 5.45 L-20.9 5.55 -20.8 5.75 -20.4 5.85 -20.15 5.65 -20.0 5.45 M-21.35 3.6 L-20.65 4.1 -20.5 4.85 Q-19.75 5.05 -19.95 5.5 L-20.15 5.75 -20.3 5.9 -20.15 7.25 -22.45 6.85 Q-22.35 6.1 -23.1 4.55 L-23.85 3.05 -22.6 3.2 -21.9 3.15 -21.35 3.55 -21.35 3.6 M-22.95 4.55 Q-22.25 6.0 -22.3 6.8 L-20.35 7.05 -20.45 5.95 -20.6 5.9 -20.95 5.6 Q-21.3 5.2 -20.65 4.85 L-20.75 4.25 -22.0 3.3 -22.7 3.3 -23.65 3.25 -22.95 4.55 M-23.25 5.2 Q-23.75 3.8 -24.4 3.05 L-29.5 1.9 -30.4 2.05 -30.0 5.8 -24.15 6.6 -23.7 6.4 -22.95 6.35 -23.05 6.0 -23.25 5.2 M-23.7 3.9 Q-22.95 5.2 -22.8 6.5 L-22.7 6.6 -22.6 6.75 -22.7 6.7 -23.0 6.5 Q-23.5 6.35 -23.95 6.8 L-24.2 6.8 -30.0 6.1 -30.15 6.0 -30.65 1.95 -29.5 1.75 -24.4 2.95 -23.7 3.9" fill="#0e0e11" fill-rule="evenodd" stroke="none"/>
    <path d="M-20.1 5.25 L-20.95 5.35 -20.85 5.15 -20.55 4.9 Q-20.4 4.85 -20.2 5.05 L-20.1 5.25 M-20.0 5.45 L-20.15 5.65 -20.4 5.85 -20.8 5.75 -20.9 5.55 -20.0 5.45 M-28.85 3.9 L-28.65 4.3 -28.75 4.65 -29.05 4.9 -29.45 4.75 -29.65 4.45 -29.55 4.0 -29.2 3.8 -28.85 3.9" fill="#4c4d53" fill-rule="evenodd" stroke="none"/>
    <path d="M-16.65 8.1 L-16.7 8.15 -18.0 8.0 -16.7 8.2 -16.7 8.3 -18.0 8.15 -16.7 8.35 -16.75 8.6 -18.0 8.45 -16.75 8.65 -16.8 8.9 -16.85 8.95 -16.9 9.15 -18.1 9.05 -16.95 9.2 -17.0 9.45 -17.05 9.6 -18.0 9.5 -18.0 9.45 -18.05 9.35 -17.0 9.45 -18.05 9.3 -18.05 9.1 -18.1 9.05 -18.1 8.75 -16.8 8.9 -18.1 8.7 -18.15 8.55 -18.0 8.45 -17.95 8.4 -18.0 8.15 -18.0 8.0 -18.05 7.85 -18.05 7.7 -16.7 7.85 -16.7 8.0 -18.05 7.85 -16.7 8.05 -16.65 8.1 M-17.1 9.7 L-17.15 9.8 -18.0 9.7 -18.0 9.55 -17.1 9.7 M-17.0 5.6 L-17.0 5.75 -18.55 5.6 -18.6 5.5 -18.6 5.45 -18.55 5.45 -17.0 5.6 M-17.0 5.8 L-17.0 5.95 -16.95 6.0 -16.95 6.2 -18.45 6.05 -18.5 6.05 -18.5 5.9 -18.55 5.8 -18.55 5.65 -17.0 5.8 M-16.95 6.3 L-16.9 6.55 -18.3 6.4 -18.35 6.15 -18.5 6.15 -18.4 6.1 -16.95 6.3 M-16.9 6.6 L-16.85 6.75 -16.85 6.9 -16.8 7.05 -18.2 6.9 -16.8 7.1 -16.8 7.2 -18.2 7.05 -16.8 7.25 -16.8 7.35 -18.2 7.2 -18.2 7.05 -18.2 6.9 -18.25 6.9 -18.25 6.75 -16.85 6.9 -18.25 6.7 -18.25 6.55 -18.3 6.4 -16.9 6.6 M-16.75 7.45 L-16.75 7.6 -16.75 7.7 -16.7 7.85 -18.05 7.65 -18.15 7.5 -18.2 7.25 -16.75 7.45" fill="#33353b" fill-rule="evenodd" stroke="none"/>
    <path d="M-18.5 6.15 L-18.35 6.15 -18.3 6.4 -18.25 6.55 -18.25 6.7 -18.25 6.75 -18.25 6.9 -18.2 6.9 -18.2 7.05 -18.2 7.2 -18.2 7.25 -18.15 7.5 -18.05 7.65 -18.05 7.7 -18.05 7.85 -18.0 8.0 -18.0 8.15 -17.95 8.4 -18.0 8.45 -18.15 8.55 -18.1 8.7 -18.1 8.75 -18.1 9.05 -18.05 9.1 -18.05 9.3 -18.05 9.35 -18.0 9.45 -18.0 9.5 -18.0 9.55 -18.0 9.7 -18.7 9.85 -18.75 8.15 -18.8 7.5 -18.5 7.35 -18.65 6.75 -18.7 6.15 -18.5 6.15" fill="#43454b" fill-rule="evenodd" stroke="none"/>
    <path d="M-18.7 6.15 L-18.65 6.75 -18.5 7.35 -18.95 7.45 -19.15 6.95 -19.2 6.25 Q-19.15 6.1 -18.95 6.05 L-18.55 5.95 -18.7 6.15" fill="#010002" fill-rule="evenodd" stroke="none"/>
    <path d="M-16.05 3.4 L-16.1 3.75 -16.15 3.35 -16.05 3.4" fill="#484954" fill-rule="evenodd" stroke="none"/>
    <path d="M-18.75 8.15 L-18.7 9.85 -19.05 10.5 -19.1 10.45 -19.15 10.3 -19.3 9.0 -19.5 7.75 -19.4 8.15 -19.1 8.0 -18.8 7.75 -18.75 8.15" fill="#19171c" fill-rule="evenodd" stroke="none"/>
    <path d="M-18.7 9.85 L-18.0 9.7 -18.0 10.1 Q-18.05 10.55 -18.5 10.6 L-19.05 10.5 -18.7 9.85" fill="#3f4047" fill-rule="evenodd" stroke="none"/>
    <path d="M-19.85 10.2 L-20.1 10.2 Q-20.45 8.45 -21.7 8.3 L-22.5 8.4 -22.9 8.5 -22.9 8.25 -22.7 7.8 Q-20.75 7.35 -19.95 8.7 L-19.6 9.65 -19.55 10.1 -19.65 10.15 -19.75 10.15 -19.8 10.2 -19.85 10.2" fill="#1b1b1d" fill-rule="evenodd" stroke="none"/>
    <path d="M-19.45 10.95 L-19.5 10.95 -19.45 11.05 -19.8 11.55 -19.4 15.05 -19.65 15.3 -19.9 12.95 -19.9 12.55 -20.1 11.0 -20.0 11.0 -19.5 10.7 -19.45 10.95" fill="#16161a" fill-rule="evenodd" stroke="none"/>
    <path d="M-18.1 12.25 L-18.35 12.75 -18.7 13.6 -18.75 13.5 -18.85 13.35 -19.0 13.3 -19.0 13.2 -19.0 12.95 -18.65 12.4 -18.1 12.25" fill="#414249" fill-rule="evenodd" stroke="none"/>
    <path d="M-23.0 12.35 Q-22.6 11.0 -21.4 10.7 L-20.6 10.65 -20.25 10.7 -20.15 11.1 -20.35 11.1 -21.2 10.9 -21.35 10.9 -21.4 10.95 -22.2 11.45 -22.95 12.45 -23.05 12.45 -23.05 12.4 -23.0 12.35" fill="#09090b" fill-rule="evenodd" stroke="none"/>
    <path d="M-19.9 12.95 L-19.65 15.3 -19.85 15.15 -20.5 14.8 Q-21.6 14.25 -22.8 14.25 L-22.75 13.9 -22.45 14.05 -21.85 14.25 -21.45 14.25 -21.4 14.25 Q-20.6 14.1 -19.9 12.95" fill="#303137" fill-rule="evenodd" stroke="none"/>
    <path d="M-12.75 22.35 L-12.65 23.15 -12.8 23.35 -12.9 22.4 -12.75 22.35" fill="#44454d" fill-rule="evenodd" stroke="none"/>
    <path d="M-23.25 5.2 L-23.05 6.0 -22.95 6.35 -23.7 6.4 -24.15 6.6 -30.0 5.8 -30.4 2.05 -29.5 1.9 -24.4 3.05 Q-23.75 3.8 -23.25 5.2 M-22.95 4.55 L-23.65 3.25 -22.7 3.3 -22.0 3.3 -20.75 4.25 -20.65 4.85 Q-21.3 5.2 -20.95 5.6 L-20.6 5.9 -20.45 5.95 -20.35 7.05 -22.3 6.8 Q-22.25 6.0 -22.95 4.55 M-28.85 3.9 L-29.2 3.8 -29.55 4.0 -29.65 4.45 -29.45 4.75 -29.05 4.9 -28.75 4.65 -28.65 4.3 -28.85 3.9" fill="#2c2d33" fill-rule="evenodd" stroke="none"/>
    <path d="M-22.8 6.9 L-22.8 7.2 -22.85 7.5 -22.9 7.55 -23.15 7.65 -23.8 7.5 Q-24.15 7.1 -23.8 7.45 L-23.8 6.85 -23.3 6.65 Q-22.8 6.6 -22.8 6.9" fill="#3b3d42" fill-rule="evenodd" stroke="none"/>
    <path d="M-23.0 12.35 L-23.05 12.4 -23.05 12.15 -23.0 12.05 -23.0 11.9 -22.4 11.0 -22.35 10.95 -22.1 10.8 -21.8 10.5 -21.7 10.5 -21.65 10.3 -20.85 10.2 -20.75 10.2 -20.45 9.85 -20.25 10.7 Q-21.7 10.35 -22.55 11.4 L-22.95 12.1 -23.0 12.35" fill="#3e3f46" fill-rule="evenodd" stroke="none"/>
    <path d="M-32.75 5.9 L-32.75 5.7 -32.8 5.5 -32.85 5.05 -33.05 3.7 -33.1 3.5 -32.75 3.25 -32.45 3.05 -32.4 3.1 -31.85 6.75 -32.25 7.2 -32.45 7.65 -32.75 5.9" fill="#595a64" fill-rule="evenodd" stroke="none"/>
  </g>
</svg>
