<?xml version="1.0" encoding="UTF-8" standalone="no"?>
<svg xmlns:xlink="http://www.w3.org/1999/xlink" height="60.2px" width="76.4px" xmlns="http://www.w3.org/2000/svg">
  <g transform="matrix(1.0, 0.0, 0.0, 1.0, 38.8, 42.75)">
    <path d="M-5.75 -32.8 L-32.7 -23.15 -30.9 -0.25" fill="none" stroke="#000000" stroke-linecap="round" stroke-linejoin="round" stroke-width="10.0"/>
    <path d="M-6.05 -30.8 L19.55 -17.9 32.6 -37.75" fill="none" stroke="#000000" stroke-linecap="round" stroke-linejoin="round" stroke-width="10.0"/>
    <path d="M-38.1 -3.55 L-37.85 -3.6 -37.4 -3.75 -37.45 -5.15 -36.7 -5.35 -35.6 -5.5 -32.5 -4.9 -29.75 -4.25 -29.7 -4.2 -28.9 -3.85 -28.7 -3.8 -29.0 -3.75 -28.75 -3.7 -28.4 -3.65 -27.85 -3.65 -27.5 -3.65 -27.25 -3.4 -27.05 -3.1 -27.6 -3.5 -28.3 -3.45 -29.55 -3.6 -28.8 -2.1 Q-28.05 -0.55 -28.15 0.2 L-25.85 0.6 -26.0 -0.75 -25.85 -0.9 -25.65 -1.15 Q-25.45 -1.6 -26.2 -1.8 L-26.35 -2.55 -27.05 -3.05 -27.0 -3.25 -26.85 -3.55 -26.65 -3.7 -26.45 -3.8 Q-26.15 -3.95 -26.1 -4.2 L-26.05 -4.5 -26.05 -4.1 -26.05 -3.95 -25.95 -3.5 -25.7 -3.0 -25.7 -2.7 -26.35 -2.9 -26.75 -3.05 -25.5 -2.1 -25.35 -1.15 -25.1 -1.05 -24.7 -1.0 -24.5 -1.1 -24.4 -1.15 -24.3 -1.15 -24.25 -1.05 -24.25 -1.0 -24.25 -0.85 -24.2 -0.75 -24.2 -0.6 -24.15 -0.6 -24.1 -0.55 -24.2 -0.5 -24.4 -0.5 -24.25 -0.7 -24.65 -0.6 -24.9 -0.4 -24.85 0.3 -24.65 0.8 -24.2 0.7 -24.5 0.85 -24.45 1.5 -24.5 1.1 -24.8 1.35 -25.1 1.5 -25.2 1.1 -25.0 2.35 -24.85 3.65 -24.8 3.8 -24.75 3.85 -24.2 3.95 Q-23.75 3.9 -23.7 3.45 L-23.65 4.15 -25.15 4.3 -25.2 4.05 -25.7 4.35 -25.8 4.35 -25.6 5.9 -25.6 6.3 Q-26.3 7.45 -27.1 7.6 L-26.5 7.25 Q-25.85 6.85 -25.9 6.25 -25.85 5.65 -25.95 4.95 L-26.05 4.45 -25.85 4.45 -25.95 4.05 -26.15 3.2 -26.45 3.55 -26.55 3.55 -26.2 3.1 -26.25 2.9 -26.6 2.35 Q-27.1 1.7 -27.9 1.75 -28.85 1.75 -29.25 2.7 -29.6 3.5 -29.45 4.85 -29.3 6.15 -28.65 6.95 -28.0 7.65 -27.15 7.6 L-27.55 7.6 -28.15 7.4 -28.45 7.25 -28.5 7.6 Q-27.3 7.6 -26.2 8.15 L-25.55 8.5 -25.35 8.65 -25.1 8.4 -25.5 4.9 -25.15 4.4 -25.05 4.55 -24.45 4.65 -24.2 5.65 -24.0 5.55 -24.0 4.65 -23.8 4.65 -23.7 5.55 -24.35 5.75 -24.7 6.3 -24.7 6.55 -24.7 6.65 -24.55 6.7 -24.45 6.85 -24.3 7.1 -23.8 7.05 -23.35 6.8 -23.35 7.15 -22.7 12.05 -22.25 15.0 -22.2 15.35 -22.2 15.6 -22.25 15.35 -22.6 15.45 -22.6 15.4 -23.0 15.5 -23.05 15.35 -23.25 15.4 -23.45 15.5 -23.85 15.45 -23.05 15.35 -23.5 12.15 Q-24.15 8.85 -25.05 8.6 L-24.85 9.2 Q-24.65 9.9 -24.75 10.15 L-24.85 9.9 -25.25 9.2 Q-25.9 8.25 -26.75 7.95 L-28.5 7.6 -28.75 7.25 -29.25 6.3 Q-29.95 4.75 -29.65 2.95 L-29.75 2.75 -29.85 2.25 Q-30.15 1.55 -30.8 1.45 L-33.2 1.05 -34.8 0.9 -35.55 1.05 -36.45 1.2 -37.05 1.4 -37.7 1.5 -38.05 1.25 -38.35 0.4 -38.45 -0.75 -38.15 1.0 -37.95 0.55 -37.55 0.1 -38.1 -3.55 M-27.0 -5.9 L-27.05 -6.25 -27.05 -6.6 -27.0 -6.55 -27.0 -6.0 -27.0 -5.9 M-26.55 -7.35 L-26.45 -7.3 -26.45 -7.2 -26.45 -6.7 -26.0 -5.9 -25.65 -5.45 -24.35 -5.0 -24.25 -5.05 -24.5 -4.85 -24.35 -3.8 -24.2 -2.85 -24.15 -2.3 -24.0 -1.5 -24.25 -1.2 -24.3 -1.2 -24.3 -1.25 -24.3 -1.3 -24.2 -1.35 -24.15 -1.35 -24.15 -1.4 Q-24.05 -1.5 -24.1 -1.8 L-24.35 -3.0 -24.5 -4.1 -24.55 -4.5 -24.55 -4.75 -24.6 -4.9 -24.85 -4.95 -25.55 -4.9 -25.95 -4.85 -25.95 -4.95 -25.95 -5.05 -26.05 -5.45 -26.6 -4.8 -27.0 -4.45 -26.75 -4.8 -26.4 -5.5 -26.35 -5.85 -26.6 -7.1 -26.55 -7.35 M-26.0 -5.95 L-25.9 -5.9 -25.95 -5.9 -26.0 -5.95 M-24.0 -5.25 L-23.9 -5.2 -22.7 -5.7 -22.35 -5.6 Q-22.15 -5.4 -22.2 -5.0 L-22.2 -4.35 -22.1 -4.2 -22.1 -4.15 -21.9 -3.9 -22.15 -4.15 -22.6 -4.5 -22.75 -4.55 -22.8 -4.55 -23.9 -5.2 -24.1 -5.1 -24.0 -5.25 M-20.8 3.3 L-20.75 3.65 -20.95 3.7 -19.6 12.95 -20.2 13.5 -20.6 10.65 -21.1 6.85 -21.2 6.0 -21.6 5.25 -22.0 4.3 -22.0 3.85 -21.75 4.85 -21.6 5.2 -21.55 5.3 -21.8 3.9 -21.7 3.5 -20.8 3.4 -20.8 3.3 M-21.5 16.5 L-21.7 16.9 -21.7 16.8 -21.75 16.3 -22.0 15.2 -21.65 16.2 -21.5 16.5 M-35.85 -0.65 L-35.7 -0.55 -29.9 0.15 -29.65 0.15 Q-29.2 -0.3 -28.7 -0.15 L-28.4 0.05 -28.3 0.1 -28.4 -0.05 -28.5 -0.15 Q-28.65 -1.45 -29.4 -2.75 L-30.1 -3.7 -35.2 -4.9 -36.35 -4.7 -35.85 -0.65 M-26.0 -3.95 L-25.85 -3.65 -25.55 -3.3 -25.75 -3.45 -26.0 -3.85 -26.0 -3.95 M-24.9 -1.5 L-25.05 -1.75 -25.25 -2.5 -25.25 -2.6 -25.1 -2.15 -25.1 -2.1 -25.05 -1.95 -24.9 -1.5 M-22.6 -4.95 L-22.45 -5.1 -22.35 -5.3 -22.5 -5.55 -22.7 -5.6 -22.9 -5.5 -22.95 -5.25 -22.85 -5.05 -22.6 -4.95 M-23.6 5.5 L-23.7 4.55 -23.55 4.7 -23.45 5.5 -23.6 5.5 M-22.15 15.85 L-22.0 16.2 -21.9 16.5 -21.9 16.55 -22.0 16.3 -22.15 15.85 M-25.55 3.55 L-25.6 3.55 -25.65 3.75 -25.55 3.95 -25.35 4.05 -25.15 3.9 -25.05 3.7 -25.2 3.5 -25.35 3.5 -25.25 3.45 -25.3 3.0 -25.65 2.05 Q-26.45 0.7 -28.4 1.15 L-28.6 1.6 -28.6 1.85 -28.2 1.75 -27.4 1.65 Q-26.15 1.8 -25.8 3.55 L-25.55 3.55 M-21.35 8.75 L-21.4 8.55 -21.35 8.4 -21.35 8.75 M-28.55 0.85 L-28.5 0.55 -28.5 0.25 Q-28.5 -0.05 -29.0 0.0 L-29.5 0.2 -29.5 0.8 Q-29.85 0.45 -29.5 0.85 L-28.85 1.0 -28.6 0.9 -28.55 0.85 M-27.5 3.85 L-27.35 3.65 -27.4 3.85 -27.5 3.85 M-28.7 5.7 L-28.65 5.45 -28.25 4.75 Q-27.4 3.7 -25.95 4.05 L-26.3 4.0 -27.1 4.05 Q-28.3 4.35 -28.7 5.7 M-28.75 5.7 L-28.8 5.55 -28.75 5.5 -28.75 5.7 M-24.55 6.8 L-24.75 6.7 Q-24.85 6.7 -24.95 6.85 L-24.95 7.05 -24.9 7.25 -24.65 7.25 -24.5 7.2 -24.45 6.95 -24.55 6.8" fill="#313238" fill-rule="evenodd" stroke="none"/>
    <path d="M-38.45 -0.75 L-38.45 -0.95 -38.5 -1.15 -38.55 -1.6 -38.75 -2.95 -38.8 -3.15 -38.45 -3.4 -38.15 -3.6 -38.1 -3.55 -37.55 0.1 -37.95 0.55 -38.15 1.0 -38.45 -0.75" fill="#595a64" fill-rule="evenodd" stroke="none"/>
    <path d="M-20.85 14.8 L-20.95 15.2 -22.0 15.2 -21.75 16.3 -21.7 16.8 -21.7 16.9 -21.8 17.15 -21.85 16.8 -21.9 16.55 -21.9 16.5 -22.0 16.2 -22.15 15.85 -22.2 15.6 -22.2 15.35 -22.25 15.0 -22.7 12.05 -23.35 7.15 -23.35 6.8 -23.35 6.1 -23.45 5.5 -23.55 4.7 -23.7 4.55 -23.6 5.5 -23.7 5.55 -23.8 4.65 -24.0 4.65 -24.0 5.55 -24.2 5.65 -24.45 4.65 -25.05 4.55 -25.15 4.4 -25.2 4.3 -25.15 4.3 -23.65 4.15 -23.7 3.45 -23.7 3.05 -23.55 3.15 -22.45 11.55 -22.5 11.5 -22.5 11.65 -22.45 11.8 -22.45 11.95 -22.4 12.1 -22.4 12.3 -22.35 12.45 -22.35 12.7 -22.35 12.75 -22.3 12.75 -22.3 12.85 -22.3 13.0 -22.25 13.15 -22.25 13.3 -22.25 13.35 -22.2 13.35 -22.2 13.45 -22.25 13.45 -22.2 13.6 -22.2 13.75 -22.15 13.85 -22.15 14.0 -22.0 14.95 -20.85 14.8 M-35.85 -0.65 L-36.35 -4.7 -35.2 -4.9 -30.1 -3.7 -29.4 -2.75 Q-28.65 -1.45 -28.5 -0.15 L-28.4 -0.05 -28.3 0.1 -28.4 0.05 -28.7 -0.15 Q-29.2 -0.3 -29.65 0.15 L-29.9 0.15 -35.7 -0.55 -35.85 -0.65 M-35.7 -0.85 L-29.85 -0.05 -29.4 -0.25 -28.65 -0.3 -28.75 -0.65 -28.95 -1.45 Q-29.45 -2.85 -30.1 -3.6 L-35.2 -4.75 -36.1 -4.6 -35.7 -0.85 M-27.05 -3.1 L-27.05 -3.05 -26.35 -2.55 -26.2 -1.8 Q-25.45 -1.6 -25.65 -1.15 L-25.85 -0.9 -26.0 -0.75 -25.85 0.6 -28.15 0.2 Q-28.05 -0.55 -28.8 -2.1 L-29.55 -3.6 -28.3 -3.45 -27.6 -3.5 -27.05 -3.1 M-29.35 -3.4 L-28.65 -2.1 Q-27.95 -0.65 -28.0 0.15 L-26.05 0.4 -26.15 -0.7 -26.3 -0.75 -26.65 -1.05 Q-27.0 -1.45 -26.35 -1.8 L-26.45 -2.4 -27.7 -3.35 -28.4 -3.35 -29.35 -3.4 M-25.9 -1.6 L-26.25 -1.75 -26.55 -1.5 -26.65 -1.3 -25.8 -1.4 -25.9 -1.6 M-25.7 -1.2 L-26.6 -1.1 -26.5 -0.9 -26.1 -0.8 -25.85 -1.0 -25.7 -1.2" fill="#0e0e11" fill-rule="evenodd" stroke="none"/>
    <path d="M-35.7 -0.85 L-36.1 -4.6 -35.2 -4.75 -30.1 -3.6 Q-29.45 -2.85 -28.95 -1.45 L-28.75 -0.65 -28.65 -0.3 -29.4 -0.25 -29.85 -0.05 -35.7 -0.85 M-34.55 -2.75 L-34.9 -2.85 -35.25 -2.65 -35.35 -2.2 -35.15 -1.9 -34.75 -1.75 -34.45 -2.0 -34.35 -2.35 -34.55 -2.75 M-29.35 -3.4 L-28.4 -3.35 -27.7 -3.35 -26.45 -2.4 -26.35 -1.8 Q-27.0 -1.45 -26.65 -1.05 L-26.3 -0.75 -26.15 -0.7 -26.05 0.4 -28.0 0.15 Q-27.95 -0.65 -28.65 -2.1 L-29.35 -3.4" fill="#2c2d33" fill-rule="evenodd" stroke="none"/>
    <path d="M-34.55 -2.75 L-34.35 -2.35 -34.45 -2.0 -34.75 -1.75 -35.15 -1.9 -35.35 -2.2 -35.25 -2.65 -34.9 -2.85 -34.55 -2.75 M-25.9 -1.6 L-25.8 -1.4 -26.65 -1.3 -26.55 -1.5 -26.25 -1.75 -25.9 -1.6 M-25.7 -1.2 L-25.85 -1.0 -26.1 -0.8 -26.5 -0.9 -26.6 -1.1 -25.7 -1.2" fill="#4c4d53" fill-rule="evenodd" stroke="none"/>
    <path d="M-29.75 -4.25 L-28.7 -4.0 -28.6 -4.0 -28.55 -4.05 -28.05 -4.15 -27.4 -4.6 -27.2 -4.85 -27.0 -5.35 -26.95 -5.4 -27.0 -5.65 -27.0 -5.9 -27.0 -6.0 -27.0 -6.55 -27.05 -6.6 -27.05 -6.65 -27.05 -7.05 Q-26.9 -7.5 -26.55 -7.35 L-26.6 -7.1 -26.35 -5.85 -26.4 -5.5 -26.75 -4.8 -27.0 -4.45 -27.2 -4.3 -28.1 -3.9 -28.6 -3.8 -28.7 -3.8 -28.9 -3.85 -29.7 -4.2 -29.75 -4.25" fill="#323439" fill-rule="evenodd" stroke="none"/>
    <path d="M-26.45 -7.2 L-26.4 -7.2 -26.2 -6.6 -26.0 -5.95 -25.95 -5.9 -25.9 -5.9 -24.9 -5.5 -24.0 -5.25 -24.1 -5.1 -24.25 -5.05 -24.35 -5.0 -25.65 -5.45 -26.0 -5.9 -26.45 -6.7 -26.45 -7.2" fill="#a8aab2" fill-rule="evenodd" stroke="none"/>
    <path d="M-25.95 -4.85 L-26.0 -4.8 -26.05 -4.75 -26.1 -4.7 -26.05 -4.5 -26.1 -4.2 Q-26.15 -3.95 -26.45 -3.8 L-26.65 -3.7 -26.85 -3.55 -27.0 -3.25 -27.05 -3.05 -27.05 -3.1 -27.25 -3.4 -27.5 -3.65 -27.85 -3.65 -28.4 -3.65 -28.75 -3.7 -29.0 -3.75 -28.7 -3.8 -28.6 -3.8 -28.1 -3.9 -27.2 -4.3 -27.0 -4.45 -26.6 -4.8 -26.05 -5.45 -25.95 -5.05 -25.95 -4.95 -25.95 -4.85 M-26.05 -4.1 L-26.0 -3.95 -26.0 -3.85 -25.75 -3.45 -25.55 -3.3 -25.45 -3.2 -25.4 -3.15 -25.25 -2.75 -25.25 -2.6 -25.25 -2.5 -25.05 -1.75 -24.9 -1.5 -24.85 -1.45 -24.85 -1.4 -24.85 -1.25 -24.6 -1.15 -24.4 -1.15 -24.5 -1.1 -24.7 -1.0 -25.1 -1.05 -25.35 -1.15 -25.5 -2.1 -26.75 -3.05 -26.35 -2.9 -25.7 -2.7 -25.7 -3.0 -25.95 -3.5 -26.05 -3.95 -26.05 -4.1" fill="#020202" fill-rule="evenodd" stroke="none"/>
    <path d="M-26.05 -4.5 L-26.1 -4.7 -26.05 -4.75 -26.0 -4.8 -25.95 -4.85 -25.55 -4.9 -24.85 -4.95 -24.6 -4.9 -24.55 -4.75 -24.55 -4.5 -24.5 -4.1 -24.35 -3.0 -24.1 -1.8 Q-24.05 -1.5 -24.15 -1.4 L-24.15 -1.35 -24.2 -1.35 -24.3 -1.3 -24.3 -1.25 -24.85 -3.5 -24.85 -3.9 -25.05 -4.2 -25.4 -4.35 -25.7 -4.3 -25.8 -4.15 -25.85 -4.0 -25.55 -3.5 -25.4 -3.15 -25.45 -3.2 -25.55 -3.3 -25.85 -3.65 -26.0 -3.95 -26.05 -4.1 -26.05 -4.5" fill="#414244" fill-rule="evenodd" stroke="none"/>
    <path d="M-25.4 -3.15 L-25.55 -3.5 -25.85 -4.0 -25.8 -4.15 -25.7 -4.3 -25.4 -4.35 -25.05 -4.2 -24.85 -3.9 -24.85 -3.5 -24.3 -1.25 -24.3 -1.2 -24.3 -1.15 -24.4 -1.15 -24.6 -1.15 -24.85 -1.25 -24.85 -1.4 -24.85 -1.45 -24.9 -1.5 -25.05 -1.95 -25.1 -2.1 -25.1 -2.15 -25.25 -2.6 -25.25 -2.75 -25.4 -3.15 M-25.35 3.5 L-25.2 3.5 -25.05 3.7 -25.15 3.9 -25.35 4.05 -25.55 3.95 -25.65 3.75 -25.6 3.55 -25.55 3.55 -25.5 3.55 -25.45 3.5 -25.35 3.5" fill="#55585e" fill-rule="evenodd" stroke="none"/>
    <path d="M-22.6 -4.95 L-22.85 -5.05 -22.95 -5.25 -22.9 -5.5 -22.7 -5.6 -22.5 -5.55 -22.35 -5.3 -22.45 -5.1 -22.6 -4.95 M-24.15 -2.3 L-24.05 -2.45 -23.95 -2.55 -23.8 -2.5 -23.75 -2.35 -23.75 -2.2 -23.9 -2.15 -24.0 -2.15 -24.15 -2.3 M-24.55 6.8 L-24.45 6.95 -24.5 7.2 -24.65 7.25 -24.9 7.25 -24.95 7.05 -24.95 6.85 Q-24.85 6.7 -24.75 6.7 L-24.55 6.8" fill="#7b7a81" fill-rule="evenodd" stroke="none"/>
    <path d="M-21.9 -3.9 L-21.7 -3.2 -21.85 -3.3 -21.75 -2.2 -21.35 -2.4 -20.95 -2.4 -21.05 -2.05 -21.5 -1.9 -20.8 3.3 -20.8 3.4 -21.7 3.5 -21.8 3.9 -21.55 5.3 -21.6 5.2 -21.75 4.85 -22.0 3.85 -22.35 1.55 -22.35 1.5 -22.4 1.2 -22.45 0.95 -22.45 0.8 -22.5 0.7 -22.5 0.6 -22.5 0.55 -22.5 0.45 -22.5 0.4 -22.55 0.25 -22.55 0.1 -22.6 -0.05 -22.6 -0.1 -22.65 -0.35 -22.65 -0.45 -22.65 -0.65 -22.7 -0.7 -22.7 -0.85 -22.7 -0.9 -22.7 -1.05 -23.2 -4.45 -22.75 -4.55 -22.6 -4.5 -22.15 -4.15 -21.9 -3.9" fill="#626672" fill-rule="evenodd" stroke="none"/>
    <path d="M-21.7 -3.2 L-21.5 -3.1 -21.1 -3.2 -20.95 -2.4 -21.35 -2.4 -21.75 -2.2 -21.85 -3.3 -21.7 -3.2" fill="#484954" fill-rule="evenodd" stroke="none"/>
    <path d="M-20.6 14.15 L-20.85 14.8 -22.0 14.95 -22.15 14.0 -20.6 14.15 M-24.25 -5.05 L-24.1 -5.1 -23.9 -5.2 -22.8 -4.55 -22.75 -4.55 -23.2 -4.45 -22.7 -1.05 -24.25 -1.2 -24.0 -1.5 -24.15 -2.3 -24.2 -2.85 -24.05 -3.0 -23.9 -3.2 -24.05 -3.4 -24.2 -3.65 -24.35 -4.0 -24.35 -3.8 -24.5 -4.85 -24.25 -5.05 M-22.7 -0.9 L-22.7 -0.85 -24.25 -1.0 -24.25 -1.05 -22.7 -0.9 M-22.65 -0.45 L-22.65 -0.35 -24.1 -0.55 -24.15 -0.6 -22.65 -0.45 M-22.6 -0.1 L-22.6 -0.05 -24.0 -0.25 -22.6 -0.1 M-22.5 0.4 L-22.5 0.45 -23.9 0.25 -22.5 0.4 M-22.5 0.55 L-22.5 0.6 -23.9 0.4 -22.5 0.55 M-22.5 0.7 L-22.45 0.8 -23.9 0.6 -23.9 0.55 -22.5 0.7 M-22.45 0.95 L-22.4 1.2 -22.35 1.5 -22.35 1.55 -22.0 3.85 -22.0 4.3 -21.6 5.25 -21.2 6.0 -21.1 6.85 -21.15 6.9 -21.35 7.8 -21.35 8.4 -21.4 8.55 -21.35 8.75 -20.95 11.7 -22.45 11.55 -23.55 3.15 -23.7 3.05 -22.15 3.2 -22.15 3.1 -23.7 2.9 -23.7 2.85 -22.15 3.0 -22.2 2.85 -22.2 2.6 -23.8 2.4 -22.2 2.55 -22.25 2.4 -22.25 2.25 -22.3 2.0 -23.7 1.8 -22.3 1.95 -22.35 1.7 -23.7 1.5 -22.35 1.65 -22.35 1.55 -23.7 1.35 -22.35 1.5 -22.4 1.4 -23.75 1.2 -22.4 1.35 -22.4 1.2 -22.45 1.05 -22.45 0.95 M-24.15 -2.3 L-24.0 -2.15 -23.9 -2.15 -23.75 -2.2 -23.75 -2.35 -23.8 -2.5 -23.95 -2.55 -24.05 -2.45 -24.15 -2.3 M-23.75 2.7 L-23.75 2.65 -22.2 2.85 -23.75 2.7 M-23.8 2.1 L-23.8 2.05 -22.25 2.25 -23.8 2.1 M-23.75 1.05 L-23.75 1.0 -22.4 1.2 -23.75 1.05 M-23.95 0.1 L-23.95 0.05 -22.55 0.25 -23.95 0.1 M-22.35 12.7 L-20.75 12.9 -22.3 12.75 -22.35 12.75 -22.35 12.7 M-20.8 12.65 L-22.3 12.45 -20.8 12.6 -20.8 12.65 M-20.85 12.15 L-22.4 11.95 -20.9 12.1 -20.85 12.15 M-20.9 12.0 L-22.4 11.8 -20.9 11.95 -20.9 12.0 M-20.65 13.8 L-22.2 13.6 -20.65 13.75 -20.65 13.8 M-22.2 13.75 L-20.6 13.9 -20.6 14.0 -22.15 13.85 -22.2 13.75 M-20.7 13.5 L-22.2 13.35 -22.25 13.35 -22.25 13.3 -20.7 13.5 M-20.7 13.35 L-22.25 13.15 -20.7 13.3 -20.7 13.35 M-20.75 13.15 L-20.75 13.2 -22.3 13.0 -20.75 13.15" fill="#494c55" fill-rule="evenodd" stroke="none"/>
    <path d="M-24.35 -3.8 L-24.35 -4.0 -24.2 -3.65 -24.05 -3.4 -23.9 -3.2 -24.05 -3.0 -24.2 -2.85 -24.35 -3.8" fill="#000100" fill-rule="evenodd" stroke="none"/>
    <path d="M-22.7 -1.05 L-22.7 -0.9 -24.25 -1.05 -24.3 -1.15 -24.3 -1.2 -24.25 -1.2 -22.7 -1.05 M-22.7 -0.85 L-22.7 -0.7 -22.65 -0.65 -22.65 -0.45 -24.15 -0.6 -24.2 -0.6 -24.2 -0.75 -24.25 -0.85 -24.25 -1.0 -22.7 -0.85 M-22.65 -0.35 L-22.6 -0.1 -24.0 -0.25 -24.05 -0.5 -24.2 -0.5 -24.1 -0.55 -22.65 -0.35 M-22.6 -0.05 L-22.55 0.1 -22.55 0.25 -22.5 0.4 -23.9 0.25 -22.5 0.45 -22.5 0.55 -23.9 0.4 -22.5 0.6 -22.5 0.7 -23.9 0.55 -23.9 0.4 -23.9 0.25 -23.95 0.25 -23.95 0.1 -22.55 0.25 -23.95 0.05 -23.95 -0.1 -24.0 -0.25 -22.6 -0.05 M-22.45 0.8 L-22.45 0.95 -22.45 1.05 -22.4 1.2 -22.4 1.35 -23.75 1.2 -22.4 1.4 -22.35 1.5 -23.7 1.35 -22.35 1.55 -22.35 1.65 -23.7 1.5 -22.35 1.7 -22.3 1.95 -23.7 1.8 -22.3 2.0 -22.25 2.25 -22.25 2.4 -22.2 2.55 -23.8 2.4 -22.2 2.6 -22.2 2.85 -22.15 3.0 -23.7 2.85 -23.7 2.8 -23.75 2.7 -22.2 2.85 -23.75 2.65 -23.75 2.45 -23.8 2.4 -23.8 2.1 -22.25 2.25 -23.8 2.05 -23.85 1.9 -23.7 1.8 -23.65 1.75 -23.7 1.5 -23.7 1.35 -23.75 1.2 -23.75 1.05 -22.4 1.2 -23.75 1.0 -23.85 0.85 -23.9 0.6 -22.45 0.8 M-23.7 3.05 L-23.7 2.9 -22.15 3.1 -22.15 3.2 -23.7 3.05 M-22.45 11.55 L-20.95 11.7 -20.9 11.95 -22.4 11.8 -20.9 12.0 -20.9 12.1 -22.4 11.95 -20.85 12.15 -20.85 12.45 -20.8 12.6 -22.3 12.45 -20.8 12.65 -20.75 12.9 -22.35 12.7 -22.35 12.45 -22.4 12.3 -22.4 12.1 -22.45 11.95 -22.45 11.8 -22.5 11.65 -22.5 11.5 -22.45 11.55 M-20.65 13.8 L-20.6 13.9 -22.2 13.75 -22.2 13.6 -20.65 13.8 M-20.6 14.0 L-20.6 14.15 -22.15 14.0 -22.15 13.85 -20.6 14.0 M-20.7 13.5 L-20.65 13.75 -22.2 13.6 -22.25 13.45 -22.2 13.45 -22.2 13.35 -20.7 13.5 -22.25 13.3 -22.25 13.15 -20.7 13.35 -20.7 13.5 M-20.7 13.3 L-22.25 13.15 -22.3 13.0 -22.3 12.85 -22.3 12.75 -20.75 12.9 -20.75 13.15 -22.3 13.0 -20.75 13.2 -20.7 13.3" fill="#33353b" fill-rule="evenodd" stroke="none"/>
    <path d="M-24.2 -0.5 L-24.05 -0.5 -24.0 -0.25 -23.95 -0.1 -23.95 0.05 -23.95 0.1 -23.95 0.25 -23.9 0.25 -23.9 0.4 -23.9 0.55 -23.9 0.6 -23.85 0.85 -23.75 1.0 -23.75 1.05 -23.75 1.2 -23.7 1.35 -23.7 1.5 -23.65 1.75 -23.7 1.8 -23.85 1.9 -23.8 2.05 -23.8 2.1 -23.8 2.4 -23.75 2.45 -23.75 2.65 -23.75 2.7 -23.7 2.8 -23.7 2.85 -23.7 2.9 -23.7 3.05 -24.4 3.2 -24.45 1.5 -24.5 0.85 -24.2 0.7 -24.35 0.1 -24.4 -0.5 -24.2 -0.5" fill="#43454b" fill-rule="evenodd" stroke="none"/>
    <path d="M-24.4 -0.5 L-24.35 0.1 -24.2 0.7 -24.65 0.8 -24.85 0.3 -24.9 -0.4 -24.65 -0.6 -24.25 -0.7 -24.4 -0.5" fill="#010002" fill-rule="evenodd" stroke="none"/>
    <path d="M-20.2 13.5 L-20.55 14.05 -20.6 14.15 -20.6 14.0 -20.6 13.9 -20.65 13.8 -20.65 13.75 -20.7 13.5 -20.7 13.35 -20.7 13.3 -20.75 13.2 -20.75 13.15 -20.75 12.9 -20.8 12.65 -20.8 12.6 -20.85 12.45 -20.85 12.15 -20.9 12.1 -20.9 12.0 -20.9 11.95 -20.95 11.7 -21.35 8.75 -21.35 8.4 -21.35 7.8 -21.15 6.9 -21.1 6.85 -20.6 10.65 -20.2 13.5" fill="#656874" fill-rule="evenodd" stroke="none"/>
    <path d="M-20.95 15.2 L-21.15 15.7 -21.5 16.5 -21.65 16.2 -22.0 15.2 -20.95 15.2" fill="#42464b" fill-rule="evenodd" stroke="none"/>
    <path d="M-24.45 1.5 L-24.4 3.2 -24.75 3.85 -24.8 3.8 -24.85 3.65 -25.0 2.35 -25.2 1.1 -25.1 1.5 -24.8 1.35 -24.5 1.1 -24.45 1.5" fill="#19171c" fill-rule="evenodd" stroke="none"/>
    <path d="M-25.15 4.3 L-25.2 4.3 -25.15 4.4 -25.5 4.9 -25.1 8.4 -25.35 8.65 -25.6 6.3 -25.6 5.9 -25.8 4.35 -25.7 4.35 -25.2 4.05 -25.15 4.3" fill="#16161a" fill-rule="evenodd" stroke="none"/>
    <path d="M-24.4 3.2 L-23.7 3.05 -23.7 3.45 Q-23.75 3.9 -24.2 3.95 L-24.75 3.85 -24.4 3.2" fill="#3f4047" fill-rule="evenodd" stroke="none"/>
    <path d="M-23.7 5.55 L-23.6 5.5 -23.45 5.5 -23.35 6.1 -23.35 6.8 -23.8 7.05 -24.3 7.1 -24.45 6.85 -24.55 6.7 -24.7 6.65 -24.7 6.55 -24.7 6.3 -24.35 5.75 -23.7 5.55" fill="#414249" fill-rule="evenodd" stroke="none"/>
    <path d="M-25.35 3.5 L-25.45 3.5 -25.5 3.55 -25.55 3.55 -25.8 3.55 Q-26.15 1.8 -27.4 1.65 L-28.2 1.75 -28.6 1.85 -28.6 1.6 -28.4 1.15 Q-26.45 0.7 -25.65 2.05 L-25.3 3.0 -25.25 3.45 -25.35 3.5" fill="#1b1b1d" fill-rule="evenodd" stroke="none"/>
    <path d="M-28.55 0.85 L-28.6 0.9 -28.85 1.0 -29.5 0.85 Q-29.85 0.45 -29.5 0.8 L-29.5 0.2 -29.0 0.0 Q-28.5 -0.05 -28.5 0.25 L-28.5 0.55 -28.55 0.85" fill="#3b3d42" fill-rule="evenodd" stroke="none"/>
    <path d="M-26.55 3.55 L-26.45 3.55 -26.15 3.2 -25.95 4.05 Q-27.4 3.7 -28.25 4.75 L-28.65 5.45 -28.7 5.7 -28.75 5.75 -28.75 5.7 -28.75 5.5 -28.7 5.4 -28.7 5.25 -28.1 4.35 -28.05 4.3 -27.8 4.15 -27.5 3.85 -27.4 3.85 -27.35 3.65 -26.55 3.55" fill="#3e3f46" fill-rule="evenodd" stroke="none"/>
    <path d="M-25.95 4.05 L-25.85 4.45 -26.05 4.45 -26.9 4.25 -27.05 4.25 -27.1 4.3 Q-27.5 4.4 -27.9 4.8 L-28.65 5.8 -28.75 5.8 -28.75 5.75 -28.7 5.7 Q-28.3 4.35 -27.1 4.05 L-26.3 4.0 -25.95 4.05" fill="#09090b" fill-rule="evenodd" stroke="none"/>
    <path d="M-25.6 6.3 L-25.35 8.65 -25.55 8.5 -26.2 8.15 Q-27.3 7.6 -28.5 7.6 L-28.45 7.25 -28.15 7.4 -27.55 7.6 -27.15 7.6 -27.1 7.6 Q-26.3 7.45 -25.6 6.3" fill="#303137" fill-rule="evenodd" stroke="none"/>
    <path d="M-23.85 15.45 L-24.75 10.15 Q-24.65 9.9 -24.85 9.2 L-25.05 8.6 Q-24.15 8.85 -23.5 12.15 L-23.05 15.35 -23.85 15.45" fill="#2a2b31" fill-rule="evenodd" stroke="none"/>
    <path d="M-21.8 17.15 L-21.85 17.25 -22.5 17.35 -22.4 17.2 -22.6 15.45 -22.25 15.35 -22.2 15.6 -22.15 15.85 -22.0 16.3 -21.9 16.55 -21.85 16.8 -21.8 17.15 M-22.95 17.35 L-23.2 17.3 -23.45 15.5 -23.25 15.4 -22.95 17.35" fill="#44464f" fill-rule="evenodd" stroke="none"/>
    <path d="M-22.5 17.35 L-22.75 17.45 -22.95 17.4 -22.95 17.35 -23.25 15.4 -23.05 15.35 -23.0 15.5 -22.6 15.4 -22.6 15.45 -22.4 17.2 -22.5 17.35" fill="#121416" fill-rule="evenodd" stroke="none"/>
  </g>
</svg>
