<?xml version="1.0" encoding="UTF-8" standalone="no"?>
<svg xmlns:xlink="http://www.w3.org/1999/xlink" height="137.7px" width="166.55px" xmlns="http://www.w3.org/2000/svg">
  <g transform="matrix(1.0, 0.0, 0.0, 1.0, 83.25, 68.85)">
    <use height="137.7" transform="matrix(1.0, 0.0, 0.0, 1.0, -83.25, -68.85)" width="166.35" xlink:href="#shape0"/>
  </g>
  <defs>
    <g id="shape0" transform="matrix(1.0, 0.0, 0.0, 1.0, 83.25, 68.85)">
      <path d="M23.85 -22.2 L29.7 -22.2 29.7 -16.4 23.85 -16.4 23.85 -22.2 M28.5 -17.55 L28.5 -21.05 25.0 -21.05 25.0 -17.55 28.5 -17.55 M35.5 -18.75 L35.5 -17.55 34.35 -17.55 34.35 -18.75 35.5 -18.75 35.5 -22.2 36.7 -22.2 36.7 -18.75 35.5 -18.75 M34.35 -16.4 L33.2 -16.4 33.2 -17.55 34.35 -17.55 34.35 -16.4 M32.0 -18.75 L30.85 -18.75 30.85 -22.2 32.0 -22.2 32.0 -18.75 33.2 -18.75 33.2 -17.55 32.0 -17.55 32.0 -18.75 M1.7 -16.4 L0.5 -16.4 0.5 -18.7 -3.0 -18.7 -3.0 -16.4 -4.15 -16.4 -4.15 -22.2 1.7 -22.2 1.7 -16.4 M0.5 -19.9 L0.5 -21.05 -3.0 -21.05 -3.0 -19.9 0.5 -19.9 M8.7 -22.2 L8.7 -21.05 4.0 -21.05 4.0 -17.55 7.5 -17.55 7.5 -18.7 5.2 -18.7 5.2 -19.9 8.7 -19.9 8.7 -16.4 2.85 -16.4 2.85 -22.2 8.7 -22.2 M16.85 -16.4 L16.85 -22.2 22.7 -22.2 22.7 -16.4 21.5 -16.4 21.5 -21.05 18.0 -21.05 18.0 -16.4 16.85 -16.4 M15.7 -22.2 L15.7 -16.4 9.85 -16.4 9.85 -22.2 11.0 -22.2 11.0 -17.55 14.5 -17.55 14.5 -22.2 15.7 -22.2 M35.3 -63.05 L35.3 -67.7 34.15 -67.7 34.15 -68.85 36.5 -68.85 36.5 -63.05 35.3 -63.05 M33.0 -64.2 L33.0 -63.05 27.15 -63.05 27.15 -66.55 31.8 -66.55 31.8 -67.7 27.15 -67.7 27.15 -68.85 33.0 -68.85 33.0 -65.35 28.3 -65.35 28.3 -64.2 33.0 -64.2 M20.15 -63.05 L20.15 -68.85 25.95 -68.85 25.95 -63.05 24.8 -63.05 24.8 -67.7 23.65 -67.7 23.65 -63.05 22.45 -63.05 22.45 -67.7 21.3 -67.7 21.3 -63.05 20.15 -63.05 M83.1 64.7 L78.9 68.85 -78.85 68.85 -79.1 68.6 -79.15 68.6 -83.25 64.45 -83.25 37.65 -79.15 33.55 38.15 33.55 42.6 29.05 78.3 29.05 78.55 29.3 78.6 29.3 83.1 33.8 83.1 64.7 M-6.5 28.85 L-5.3 28.85 -5.3 31.15 -11.15 31.15 -11.15 25.35 -5.3 25.35 -5.3 27.65 -6.5 27.65 -6.5 28.85 M-13.5 -22.2 L-13.5 -21.05 -12.3 -21.05 -12.3 -17.55 -13.5 -17.55 -13.5 -16.4 -18.15 -16.4 -18.15 -22.2 -13.5 -22.2 M-5.3 -16.4 L-6.5 -16.4 -6.5 -17.55 -5.3 -17.55 -5.3 -16.4 M-5.3 -18.7 L-6.5 -18.7 -6.5 -17.55 -7.65 -17.55 -7.65 -18.7 -10.0 -18.7 -10.0 -16.4 -11.15 -16.4 -11.15 -22.2 -5.3 -22.2 -5.3 -18.7 M-6.5 -19.9 L-6.5 -21.05 -10.0 -21.05 -10.0 -19.9 -6.5 -19.9 M29.7 26.5 L27.35 26.5 27.35 31.15 26.15 31.15 26.15 26.5 23.85 26.5 23.85 25.35 29.7 25.35 29.7 26.5 M36.7 25.35 L36.7 26.5 34.35 26.5 34.35 31.15 33.15 31.15 33.15 26.5 30.85 26.5 30.85 25.35 36.7 25.35 M1.7 31.15 L0.5 31.15 0.5 28.85 -3.0 28.85 -3.0 31.15 -4.15 31.15 -4.15 25.35 1.7 25.35 1.7 31.15 M0.5 27.65 L0.5 26.5 -3.0 26.5 -3.0 27.65 0.5 27.65 M7.5 27.65 L7.5 26.5 4.0 26.5 4.0 27.65 7.5 27.65 M7.5 30.0 L6.35 30.0 6.35 28.85 4.0 28.85 4.0 31.15 2.85 31.15 2.85 25.35 8.7 25.35 8.7 28.85 7.5 28.85 7.5 30.0 8.7 30.0 8.7 31.15 7.5 31.15 7.5 30.0 M15.7 30.0 L15.7 31.15 14.5 31.15 14.5 30.0 15.7 30.0 M11.0 27.65 L14.5 27.65 14.5 26.5 11.0 26.5 11.0 27.65 M15.7 25.35 L15.7 28.85 14.5 28.85 14.5 30.0 13.35 30.0 13.35 28.85 11.0 28.85 11.0 31.15 9.85 31.15 9.85 25.35 15.7 25.35 M18.0 26.5 L18.0 27.65 20.35 27.65 20.35 28.85 18.0 28.85 18.0 30.0 22.7 30.0 22.7 31.15 16.85 31.15 16.85 25.35 22.7 25.35 22.7 26.5 18.0 26.5" fill="#ffffff" fill-rule="evenodd" stroke="none"/>
    </g>
  </defs>
</svg>
