<?xml version="1.0" encoding="UTF-8" standalone="no"?>
<svg xmlns:xlink="http://www.w3.org/1999/xlink" height="476.8px" width="60.6px" xmlns="http://www.w3.org/2000/svg">
  <g transform="matrix(1.0, 0.0, 0.0, 1.0, 28.15, 278.75)">
    <use height="390.5" transform="matrix(1.0, 0.0, 0.0, 1.1365, -28.15, -246.4081)" width="42.0" xlink:href="#sprite0"/>
    <use height="419.5" transform="matrix(1.0, 0.0, 0.0, 1.1365, -24.4, -278.7364)" width="56.85" xlink:href="#sprite2"/>
  </g>
  <defs>
    <g id="sprite0" transform="matrix(1.0, 0.0, 0.0, 1.0, 21.0, 205.5)">
      <use height="369.0" transform="matrix(1.0, 0.0, 0.0, 1.0, -21.0, -184.5)" width="42.0" xlink:href="#sprite1"/>
    </g>
    <g id="sprite1" transform="matrix(1.0, 0.0, 0.0, 1.0, 21.0, 184.5)">
      <use height="369.0" transform="matrix(1.0, 0.0, 0.0, 1.0, -21.0, -184.5)" width="42.0" xlink:href="#shape0"/>
    </g>
    <g id="shape0" transform="matrix(1.0, 0.0, 0.0, 1.0, 21.0, 184.5)">
      <path d="M-4.0 -158.45 Q-4.0 -152.3 -7.0 -134.25 -10.0 -116.15 -10.0 -104.95 -10.0 -94.2 -5.15 -73.75 L5.5 -33.25 Q12.8 -6.05 16.15 10.65 21.0 34.9 21.0 52.05 21.0 78.25 7.5 110.45 L-1.8 131.2 Q-6.0 140.7 -6.0 144.05 -6.0 147.9 -2.05 161.1 2.0 174.5 4.0 177.05 L4.0 184.5 Q-18.0 172.35 -18.0 155.05 -18.0 144.9 -14.1 138.0 -8.6 130.55 -5.5 125.65 0.2 116.7 3.1 103.9 7.0 86.55 7.0 58.55 7.0 41.3 2.65 12.05 0.45 -2.35 -7.0 -44.35 -13.75 -82.15 -16.6 -103.65 -21.0 -136.15 -21.0 -158.95 -21.0 -172.55 -20.05 -184.5 L-4.6 -182.95 -4.5 -179.25 -4.0 -158.45" fill="#000000" fill-opacity="0.28235295" fill-rule="evenodd" stroke="none"/>
    </g>
    <g id="sprite2" transform="matrix(1.0, 0.0, 0.0, 1.0, 28.4, 224.75)">
      <use height="387.45" transform="matrix(1.0, 0.0, 0.0, 1.0, -28.4, -193.75)" width="56.85" xlink:href="#sprite3"/>
    </g>
    <g id="sprite3" transform="matrix(1.0, 0.0, 0.0, 1.0, 28.4, 193.75)">
      <use height="387.45" transform="matrix(1.0, 0.0, 0.0, 1.0, -28.4, -193.75)" width="56.85" xlink:href="#shape1"/>
    </g>
    <g id="shape1" transform="matrix(1.0, 0.0, 0.0, 1.0, 28.4, 193.75)">
      <path d="M28.45 -193.75 L25.35 -187.0 Q5.25 -140.3 1.4 -126.0 -0.65 -118.55 -1.05 -111.45 L-1.15 -96.0 Q-1.15 -86.1 2.35 -73.55 4.05 -67.65 10.1 -50.45 15.5 -35.2 17.85 -25.35 21.35 -10.6 21.35 3.0 21.35 8.3 20.55 15.1 L18.55 23.4 Q14.35 39.85 10.35 47.0 6.9 53.15 -0.45 68.25 L-7.65 83.0 Q-13.1 91.95 -15.6 105.45 -17.15 113.85 -17.15 120.25 -17.15 125.5 -16.15 129.95 L-13.15 141.0 Q-12.1 144.8 -11.7 152.2 -11.4 158.25 -10.15 160.5 -6.7 166.65 1.25 172.4 L16.85 184.0 16.85 188.5 6.85 188.5 Q6.5 188.15 2.2 187.55 L-3.65 187.0 Q-8.8 187.0 -12.85 189.15 -16.0 190.85 -18.05 193.7 -22.1 193.3 -25.1 190.75 -28.4 187.9 -28.4 184.35 -28.4 182.35 -26.2 180.55 L-21.4 177.15 Q-14.4 171.9 -14.4 162.5 -14.4 154.9 -19.9 139.7 -25.4 124.5 -25.4 115.75 -25.4 110.6 -22.4 101.85 -18.75 90.95 -18.4 89.25 L-15.35 79.35 Q-13.8 73.85 -12.4 67.25 L-11.3 64.75 Q-9.65 60.8 -9.1 58.0 -8.7 55.9 -8.9 54.5 L-7.1 47.55 Q-5.75 42.25 -5.65 36.25 -5.55 31.15 -4.95 24.55 -4.4 18.35 -4.4 15.1 -4.4 -1.4 -11.45 -17.75 L-18.55 -33.4 Q-21.35 -39.8 -23.65 -46.05 -23.7 -51.6 -23.9 -56.8 L-24.15 -70.25 Q-24.15 -75.2 -24.65 -84.45 -25.15 -93.7 -25.15 -104.25 L-25.35 -127.05 Q-25.35 -136.2 -24.25 -142.6 -22.4 -153.05 -9.2 -188.05 L-8.15 -188.0 Q11.65 -188.0 28.45 -193.75" fill="#000000" fill-opacity="0.2509804" fill-rule="evenodd" stroke="none"/>
    </g>
  </defs>
</svg>
