<?xml version="1.0" encoding="UTF-8" standalone="no"?>
<svg xmlns:xlink="http://www.w3.org/1999/xlink" height="116.4px" width="75.8px" xmlns="http://www.w3.org/2000/svg">
  <g transform="matrix(1.0, 0.0, 0.0, 1.0, 22.85, 41.95)">
    <use height="37.0" transform="matrix(1.0, 0.0, 0.0, 1.0, 0.0, 0.0)" width="37.0" xlink:href="#shape0"/>
    <use height="111.6" transform="matrix(0.6433, 0.0, 0.0, 1.0432, -22.8748, -41.9595)" width="117.85" xlink:href="#sprite0"/>
  </g>
  <defs>
    <g id="shape0" transform="matrix(1.0, 0.0, 0.0, 1.0, 0.0, 0.0)">
      <path d="M31.85 31.45 Q30.9 28.7 30.9 28.2 L30.9 27.9 Q32.1 28.35 32.95 29.05 L35.75 31.2 Q34.8 29.8 33.6 27.4 32.9 26.0 31.95 25.35 L32.45 25.35 33.95 25.8 36.05 26.25 34.35 24.5 32.6 22.65 32.9 22.65 34.35 22.5 35.25 22.35 34.5 21.45 36.5 21.6 35.85 20.35 35.1 19.35 35.6 19.35 Q35.85 19.6 37.0 20.05 L37.0 34.25 31.85 31.45 M31.8 0.65 Q30.9 1.65 30.75 2.0 L30.2 0.9 29.15 1.8 Q28.35 2.65 28.5 3.15 L27.3 1.5 Q26.85 1.9 26.55 2.6 L26.1 3.45 25.25 2.55 Q24.7 1.85 24.3 1.85 L23.7 2.9 23.3 3.75 22.5 1.7 20.65 3.35 19.2 4.5 18.9 2.85 Q18.6 1.85 18.3 1.7 L17.75 2.45 16.35 0.75 15.6 1.85 15.45 1.7 15.0 0.95 14.45 0.15 13.95 1.0 Q13.45 1.75 13.5 1.85 L12.0 0.0 32.35 0.0 31.8 0.65 M36.2 3.9 L35.9 3.0 35.25 2.3 Q34.25 1.7 33.8 0.7 L33.6 0.0 37.0 0.0 37.0 4.7 36.2 3.9 M12.0 0.0 L10.55 1.2 9.6 0.3 8.85 0.75 8.55 1.2 Q8.55 0.7 7.75 0.0 L12.0 0.0 M0.0 13.95 L0.0 0.0 3.95 0.0 2.7 1.35 2.3 0.85 1.55 0.3 1.05 0.7 Q1.05 1.45 1.5 1.95 L2.7 3.45 1.85 4.5 3.0 5.95 Q3.0 6.55 2.3 7.0 L1.4 7.85 Q2.0 7.85 3.6 9.0 L3.45 9.15 Q2.7 9.35 2.4 10.05 2.4 10.5 2.95 10.85 L3.6 11.3 0.3 11.45 0.3 11.75 Q0.6 12.05 2.7 12.75 L2.55 12.9 Q2.05 13.05 1.5 13.45 1.05 13.85 1.05 14.0 1.05 14.4 1.2 14.6 L0.0 13.95 M7.0 0.95 L6.3 2.15 5.25 0.85 4.55 0.0 7.5 0.0 7.0 0.95 M2.55 34.5 L1.8 35.3 0.5 37.0 0.0 37.0 0.0 33.3 2.55 34.5" fill="#999999" fill-opacity="0.5137255" fill-rule="evenodd" stroke="none"/>
      <path d="M31.85 31.45 L37.0 34.25 37.0 37.0 30.05 37.0 30.3 33.9 30.45 31.8 30.75 31.8 32.9 34.35 31.85 31.45 M0.0 13.95 L1.2 14.6 3.35 15.8 4.05 16.35 1.75 17.15 Q0.8 17.4 0.6 17.75 2.0 18.3 3.15 19.2 3.0 19.2 3.0 19.5 1.7 19.6 1.7 20.35 L2.05 21.0 2.4 21.8 1.55 23.2 2.3 24.0 3.0 25.05 0.75 27.2 0.75 27.9 1.85 28.05 1.55 28.6 Q1.25 29.1 1.25 29.4 L2.4 29.9 2.25 30.05 1.55 30.45 0.9 31.05 1.85 31.35 1.25 32.15 0.75 32.9 3.75 33.5 3.45 33.65 2.55 34.5 0.0 33.3 0.0 13.95 M14.3 34.95 L15.0 34.2 15.6 34.8 16.2 35.25 17.6 34.2 18.45 35.55 Q19.1 34.95 19.5 34.95 L19.75 35.05 20.0 35.4 20.15 35.25 20.8 34.45 21.6 33.65 23.45 35.4 23.75 34.05 24.3 34.05 26.45 36.2 Q26.45 34.95 26.6 34.35 L26.9 34.35 28.5 35.8 29.85 37.0 12.15 37.0 14.15 34.65 14.15 34.85 14.3 34.95" fill="#ffffff" fill-opacity="0.5137255" fill-rule="evenodd" stroke="none"/>
    </g>
    <g id="sprite0" transform="matrix(1.0, 0.0, 0.0, 1.0, -79.4, 43.0)">
      <use height="208.8" transform="matrix(0.3384, 0.0, 0.0, 0.3384, 125.4724, -13.7806)" width="212.15" xlink:href="#sprite1"/>
      <use height="208.8" transform="matrix(0.1398, 0.3057, 0.3057, -0.1398, 101.6102, -13.8373)" width="212.15" xlink:href="#sprite1"/>
      <use height="208.8" transform="matrix(-0.1882, 0.149, 0.149, 0.1882, 128.1017, -20.7503)" width="212.15" xlink:href="#sprite1"/>
      <use height="208.8" transform="matrix(-0.2842, 0.0, 0.0, -0.2842, 159.5887, 33.2307)" width="212.15" xlink:href="#sprite1"/>
      <use height="208.8" transform="matrix(0.267, -0.219, -0.219, -0.267, 125.1218, 68.6134)" width="212.15" xlink:href="#sprite1"/>
      <use height="208.8" transform="matrix(-0.0387, -0.1975, -0.1975, 0.0387, 187.8556, 32.7518)" width="212.15" xlink:href="#sprite1"/>
    </g>
    <g id="sprite1" transform="matrix(1.0, 0.0, 0.0, 1.0, 77.2, 45.15)">
      <use height="26.65" transform="matrix(1.0, 0.0, 0.0, 1.0, 11.15, 4.35)" width="36.4" xlink:href="#sprite2"/>
      <use height="26.65" transform="matrix(0.5278, -0.306, 0.7939, 1.3692, 49.05, 9.35)" width="36.4" xlink:href="#sprite2"/>
      <use height="26.65" transform="matrix(1.0, 0.0, 1.6729, 0.718, -12.85, 26.7)" width="36.4" xlink:href="#sprite2"/>
      <use height="26.65" transform="matrix(0.7903, -0.5799, 1.7121, 0.7026, 40.8, 56.55)" width="36.4" xlink:href="#sprite2"/>
      <use height="26.65" transform="matrix(1.728, 0.0, -0.22, 0.6442, -0.15, 58.15)" width="36.4" xlink:href="#sprite2"/>
    </g>
    <g id="sprite2" transform="matrix(1.0, 0.0, 0.0, 1.0, 0.0, 0.0)">
      <use height="25.45" transform="matrix(1.0, 0.0, 0.0, 1.0, 0.2, 0.0)" width="36.2" xlink:href="#sprite3"/>
      <use height="25.45" transform="matrix(1.0, 0.0, 0.0, 1.0, 0.0, 1.2)" width="36.2" xlink:href="#sprite3"/>
    </g>
    <g id="sprite3" transform="matrix(1.0, 0.0, 0.0, 1.0, 0.0, 0.0)">
      <use height="25.45" transform="matrix(1.0, 0.0, 0.0, 1.0, 0.0, 0.0)" width="36.2" xlink:href="#shape1"/>
    </g>
    <g id="shape1" transform="matrix(1.0, 0.0, 0.0, 1.0, 0.0, 0.0)">
      <path d="M28.8 25.45 L14.35 14.3 0.0 10.2 18.0 0.0 36.2 6.7 32.05 16.0 34.95 17.8 28.8 25.45" fill="#d9d9d9" fill-opacity="0.88235295" fill-rule="evenodd" stroke="none"/>
    </g>
  </defs>
</svg>
