<?xml version="1.0" encoding="UTF-8" standalone="no"?>
<svg xmlns:xlink="http://www.w3.org/1999/xlink" height="37.0px" width="77.15px" xmlns="http://www.w3.org/2000/svg">
  <g transform="matrix(1.0, 0.0, 0.0, 1.0, 38.55, 18.5)">
    <use height="37.0" transform="matrix(1.0, 0.0, 0.0, 1.0, -38.55, -18.5)" width="77.15" xlink:href="#shape0"/>
  </g>
  <defs>
    <g id="shape0" transform="matrix(1.0, 0.0, 0.0, 1.0, 38.55, 18.5)">
      <path d="M26.0 -18.5 L38.6 -18.5 38.6 -11.1 26.0 -18.5 M38.6 -3.75 L38.6 12.75 -21.25 -18.5 13.5 -18.5 38.6 -3.75 M19.3 18.5 L-38.55 18.5 -38.55 -9.35 19.3 18.5" fill="#999999" fill-opacity="0.5137255" fill-rule="evenodd" stroke="none"/>
      <path d="M38.6 -11.1 L38.6 -3.75 13.5 -18.5 26.0 -18.5 38.6 -11.1 M38.6 12.75 L38.6 18.5 19.3 18.5 -38.55 -9.35 -38.55 -18.5 -21.25 -18.5 38.6 12.75" fill="#ffffff" fill-opacity="0.5137255" fill-rule="evenodd" stroke="none"/>
    </g>
  </defs>
</svg>
