<?xml version="1.0" encoding="UTF-8" standalone="no"?>
<svg xmlns:xlink="http://www.w3.org/1999/xlink" height="14.8px" width="32.6px" xmlns="http://www.w3.org/2000/svg">
  <g transform="matrix(1.0, 0.0, 0.0, 1.0, 16.3, 5.05)">
    <use height="10.1" transform="matrix(1.0, 0.0, 0.0, 1.0, -15.6, -5.05)" width="30.4" xlink:href="#shape0"/>
  </g>
  <defs>
    <g id="shape0" transform="matrix(1.0, 0.0, 0.0, 1.0, 15.6, 5.05)">
      <path d="M2.85 -4.2 Q3.3 -4.2 3.9 -3.6 L4.5 -2.8 Q4.55 -2.25 3.95 -1.8 L2.8 -1.85 Q1.7 -2.05 1.55 -2.45 L-1.5 -1.65 -3.85 -0.85 -4.35 -0.65 -7.6 0.75 -11.8 1.4 -14.7 2.15 -12.45 2.05 -10.7 2.15 -9.45 2.3 -8.45 2.45 -8.35 2.45 -7.35 2.25 -5.75 1.95 -4.95 1.8 -3.6 1.4 -1.05 0.6 -0.45 0.55 -0.45 0.6 Q-0.85 1.1 -0.85 1.45 L-0.8 1.6 0.85 1.15 2.0 0.9 3.9 0.9 5.85 0.5 6.15 0.45 6.15 0.5 5.65 0.95 4.75 1.7 3.3 3.2 2.6 4.15 Q5.85 3.6 7.3 2.3 L8.45 1.45 Q9.3 1.05 10.85 0.9 L11.6 0.8 11.6 0.5 Q11.6 0.3 11.75 0.2 L13.55 -1.2 13.85 -1.45 12.9 -1.9 11.55 -2.2 11.25 -1.9 Q11.2 -1.6 10.3 -1.55 L8.7 -1.45 Q7.35 -1.55 7.45 -2.0 L7.4 -2.3 6.95 -2.7 5.7 -3.55 4.55 -3.95 2.85 -4.2 M4.75 -4.8 L6.1 -4.3 7.5 -3.35 7.45 -3.35 8.15 -2.75 8.15 -2.7 8.3 -2.4 8.75 -2.35 10.2 -2.45 Q10.45 -2.45 10.45 -2.25 10.7 -3.1 11.45 -3.05 L13.25 -2.7 Q14.9 -2.05 14.7 -1.5 15.05 -1.05 14.0 -0.45 L12.5 0.75 12.3 1.35 11.65 1.65 10.9 1.75 8.85 2.25 7.9 2.95 Q6.35 4.45 2.7 5.0 L2.05 4.85 Q1.75 4.65 1.75 4.3 1.65 3.95 1.85 3.7 L2.6 2.65 2.65 2.65 3.3 1.8 2.05 1.75 1.1 2.0 -0.65 2.45 -1.1 2.4 -1.45 2.15 -1.65 1.7 -3.4 2.25 -4.6 2.6 -4.65 2.6 -5.6 2.75 -5.65 2.75 -7.2 3.1 -8.05 3.25 -8.35 3.3 -9.6 3.2 -10.75 3.0 -12.5 2.9 -14.6 3.0 -15.2 2.85 -15.55 2.3 Q-15.65 1.95 -15.4 1.7 L-14.9 1.3 -12.05 0.55 -11.95 0.55 -7.85 -0.05 Q-7.45 -0.15 -4.7 -1.4 L-4.25 -1.65 -4.2 -1.65 -1.7 -2.4 1.3 -3.3 1.75 -3.35 2.15 -3.05 2.4 -2.7 2.9 -2.75 3.65 -2.65 3.65 -2.7 3.3 -2.95 3.3 -3.0 2.9 -3.35 Q2.5 -3.3 2.25 -3.55 1.95 -3.75 1.95 -4.1 1.9 -4.5 2.2 -4.75 2.35 -5.0 2.75 -5.05 L4.75 -4.8" fill="#000000" fill-opacity="0.47058824" fill-rule="evenodd" stroke="none"/>
      <path d="M2.85 -4.2 L4.55 -3.95 5.7 -3.55 6.95 -2.7 7.4 -2.3 7.45 -2.0 Q7.35 -1.55 8.7 -1.45 L10.3 -1.55 Q11.2 -1.6 11.25 -1.9 L11.55 -2.2 12.9 -1.9 13.85 -1.45 13.55 -1.2 11.75 0.2 Q11.6 0.3 11.6 0.5 L11.6 0.8 10.85 0.9 Q9.3 1.05 8.45 1.45 L7.3 2.3 Q5.85 3.6 2.6 4.15 L3.3 3.2 4.75 1.7 5.65 0.95 6.15 0.5 6.15 0.45 5.85 0.5 3.9 0.9 2.0 0.9 0.85 1.15 -0.8 1.6 -0.85 1.45 Q-0.85 1.1 -0.45 0.6 L-0.45 0.55 -1.05 0.6 -3.6 1.4 -4.95 1.8 -5.75 1.95 -7.35 2.25 -8.35 2.45 -8.45 2.45 -9.45 2.3 -10.7 2.15 -12.45 2.05 -14.7 2.15 -11.8 1.4 -7.6 0.75 -4.35 -0.65 -3.85 -0.85 -1.5 -1.65 1.55 -2.45 Q1.7 -2.05 2.8 -1.85 L3.95 -1.8 Q4.55 -2.25 4.5 -2.8 L3.9 -3.6 Q3.3 -4.2 2.85 -4.2" fill="#ffffff" fill-opacity="0.47058824" fill-rule="evenodd" stroke="none"/>
    </g>
  </defs>
</svg>
