<?xml version="1.0" encoding="UTF-8" standalone="no"?>
<svg xmlns:xlink="http://www.w3.org/1999/xlink" height="14.8px" width="32.6px" xmlns="http://www.w3.org/2000/svg">
  <g transform="matrix(1.0, 0.0, 0.0, 1.0, 16.3, 5.05)">
    <use height="10.1" transform="matrix(1.0, 0.0, 0.0, 1.0, -16.3, -2.3)" width="30.4" xlink:href="#shape0"/>
  </g>
  <defs>
    <g id="shape0" transform="matrix(1.0, 0.0, 0.0, 1.0, 16.3, 2.3)">
      <path d="M3.2 -0.85 Q2.6 -1.45 2.15 -1.45 L3.85 -1.2 5.0 -0.8 6.25 0.05 6.7 0.45 6.75 0.75 Q6.65 1.2 8.0 1.3 L8.75 1.3 9.6 1.2 10.45 1.05 10.55 0.85 Q10.65 0.55 10.85 0.55 L12.2 0.85 13.15 1.3 12.95 1.5 12.85 1.55 12.55 1.75 11.05 2.95 Q10.9 3.05 10.9 3.25 L10.9 3.55 10.15 3.65 Q8.6 3.8 7.75 4.2 7.35 4.45 6.6 5.05 5.15 6.35 1.9 6.9 L2.6 5.95 Q3.2 5.05 4.05 4.45 L4.95 3.7 5.45 3.25 5.45 3.2 5.15 3.25 3.2 3.65 1.3 3.65 0.15 3.9 -1.5 4.35 -1.55 4.2 -1.15 3.35 -1.15 3.3 -1.75 3.35 -4.3 4.15 -5.65 4.55 -6.45 4.7 -8.05 5.0 -9.05 5.2 -9.15 5.2 -10.15 5.05 -11.4 4.9 -13.15 4.8 -15.4 4.9 -12.5 4.15 -8.3 3.5 -5.05 2.1 -4.55 1.9 -2.2 1.1 0.85 0.3 Q1.0 0.7 2.1 0.9 L3.25 0.95 Q3.85 0.5 3.8 -0.05 L3.2 -0.85" fill="#ffffff" fill-opacity="0.47058824" fill-rule="evenodd" stroke="none"/>
      <path d="M2.05 -2.3 L4.05 -2.05 5.4 -1.55 6.8 -0.6 6.75 -0.6 7.45 0.0 7.45 0.05 7.6 0.35 8.05 0.4 9.5 0.3 9.75 0.5 Q10.0 -0.35 10.75 -0.3 L12.55 0.05 Q14.2 0.7 14.0 1.25 14.35 1.7 13.3 2.3 12.75 2.6 11.8 3.5 L11.6 4.1 10.95 4.4 10.2 4.5 8.15 5.0 7.2 5.7 Q5.65 7.2 2.0 7.75 L1.35 7.6 Q1.05 7.4 1.05 7.05 0.95 6.7 1.15 6.45 L1.9 5.4 1.95 5.4 2.6 4.55 1.35 4.5 0.4 4.75 -1.35 5.2 -1.8 5.15 -2.15 4.9 -2.35 4.45 -4.1 5.0 -5.3 5.35 -5.35 5.35 -6.3 5.5 -6.35 5.5 -7.9 5.85 -8.75 6.0 -9.05 6.05 -10.3 5.95 -11.45 5.75 -13.2 5.65 -15.3 5.75 -15.9 5.6 -16.25 5.05 Q-16.35 4.7 -16.1 4.45 L-15.6 4.05 -12.75 3.3 -12.65 3.3 -8.55 2.7 -5.4 1.35 -4.95 1.1 -4.9 1.1 Q-4.15 0.75 -2.4 0.35 L0.6 -0.55 1.05 -0.6 1.45 -0.3 1.7 0.05 2.2 0.0 2.95 0.1 2.95 0.05 2.6 -0.2 2.6 -0.25 2.2 -0.6 Q1.8 -0.55 1.55 -0.8 1.25 -1.0 1.25 -1.35 1.2 -1.75 1.5 -2.0 L2.05 -2.3 M3.2 -0.85 L3.8 -0.05 Q3.85 0.5 3.25 0.95 L2.1 0.9 Q1.0 0.7 0.85 0.3 L-2.2 1.1 -4.55 1.9 -5.05 2.1 -8.3 3.5 -12.5 4.15 -15.4 4.9 -13.15 4.8 -11.4 4.9 -10.15 5.05 -9.15 5.2 -9.05 5.2 -8.05 5.0 -6.45 4.7 -5.65 4.55 -4.3 4.15 -1.75 3.35 -1.15 3.3 -1.15 3.35 -1.55 4.2 -1.5 4.35 0.15 3.9 1.3 3.65 3.2 3.65 5.15 3.25 5.45 3.2 5.45 3.25 4.95 3.7 4.05 4.45 Q3.2 5.05 2.6 5.95 L1.9 6.9 Q5.15 6.35 6.6 5.05 7.35 4.45 7.75 4.2 8.6 3.8 10.15 3.65 L10.9 3.55 10.9 3.25 Q10.9 3.05 11.05 2.95 L12.55 1.75 12.85 1.55 12.95 1.5 13.15 1.3 12.2 0.85 10.85 0.55 Q10.65 0.55 10.55 0.85 L10.45 1.05 9.6 1.2 8.75 1.3 8.0 1.3 Q6.65 1.2 6.75 0.75 L6.7 0.45 6.25 0.05 5.0 -0.8 3.85 -1.2 2.15 -1.45 Q2.6 -1.45 3.2 -0.85" fill="#000000" fill-opacity="0.47058824" fill-rule="evenodd" stroke="none"/>
    </g>
  </defs>
</svg>
