<?xml version="1.0" encoding="UTF-8" standalone="no"?>
<svg xmlns:xlink="http://www.w3.org/1999/xlink" height="299.1px" width="299.25px" xmlns="http://www.w3.org/2000/svg">
  <g transform="matrix(1.0, 0.0, 0.0, 1.0, 400.0, 300.0)">
    <path d="M-344.75 -300.0 L-345.15 -295.15 -363.9 -293.0 -369.5 -293.15 -371.75 -293.25 -372.75 -293.65 -373.4 -293.25 -375.5 -293.15 -390.4 -293.25 -394.9 -300.0 -344.75 -300.0" fill="url(#gradient0)" fill-rule="evenodd" stroke="none"/>
    <path d="M-326.65 -293.9 L-334.25 -295.15 -345.15 -295.15 -344.75 -300.0 -317.5 -300.0 -320.0 -292.9 -326.65 -293.9" fill="url(#gradient1)" fill-rule="evenodd" stroke="none"/>
    <path d="M-324.9 -287.75 L-324.9 -290.9 -326.0 -291.4 -326.65 -293.9 -320.0 -292.9 -323.5 -282.75 -324.9 -287.75" fill="url(#gradient2)" fill-rule="evenodd" stroke="none"/>
    <path d="M-326.0 -291.4 L-330.75 -291.9 -330.65 -291.5 -326.4 -285.25 -325.65 -289.25 -325.25 -289.15 -324.9 -287.75 -323.5 -282.75 -321.25 -274.65 -316.25 -130.9 -320.4 -127.75 -340.0 -122.0 -346.65 -275.0 -345.15 -295.15 -334.25 -295.15 -326.65 -293.9 -326.0 -291.4" fill="url(#gradient3)" fill-rule="evenodd" stroke="none"/>
    <path d="M-199.5 -300.0 L-160.65 -300.0 -164.25 -256.65 -179.0 -256.15 -197.4 -254.4 -196.25 -278.15 -199.5 -300.0" fill="url(#gradient4)" fill-rule="evenodd" stroke="none"/>
    <path d="M-160.65 -300.0 L-151.0 -300.0 -154.9 -256.0 -157.5 -256.5 -164.25 -256.65 -160.65 -300.0" fill="url(#gradient5)" fill-rule="evenodd" stroke="none"/>
    <path d="M-154.9 -256.0 L-153.4 -255.75 -152.5 -243.25 -156.15 -243.75 -176.65 -243.15 -201.4 -240.75 -201.65 -240.75 -202.25 -240.65 -202.75 -240.65 -203.15 -240.5 -205.4 -240.25 -205.75 -240.15 -207.9 -239.9 -208.25 -239.75 -208.75 -239.75 -209.15 -239.65 -209.65 -239.65 -210.0 -239.5 -210.5 -239.5 -210.9 -239.4 -211.65 -239.4 -212.15 -242.15 -212.4 -247.9 -212.9 -249.75 -212.65 -250.9 -213.0 -252.0 -212.15 -252.25 -206.75 -253.15 -206.65 -253.15 -206.65 -253.25 -197.4 -254.4 -179.0 -256.15 -164.25 -256.65 -157.5 -256.5 -154.9 -256.0 M-216.9 -245.15 L-217.4 -250.65 -214.75 -251.5 -215.9 -245.25 -216.9 -245.15" fill="url(#gradient6)" fill-rule="evenodd" stroke="none"/>
    <path d="M-398.25 -294.0 L-399.0 -300.0 -394.9 -300.0 -390.4 -293.25 -398.25 -294.0" fill="url(#gradient7)" fill-rule="evenodd" stroke="none"/>
    <path d="M-390.4 -293.25 L-394.9 -274.15 -399.9 -267.25 -400.0 -288.65 -398.25 -294.0 -390.4 -293.25" fill="url(#gradient8)" fill-rule="evenodd" stroke="none"/>
    <path d="M-345.15 -295.15 L-346.65 -275.0 -340.0 -122.0 -383.4 -117.15 -387.4 -160.15 -388.0 -161.4 -390.25 -170.4 -397.0 -193.65 -397.25 -195.9 -399.9 -205.65 -399.9 -267.25 -394.9 -274.15 -390.4 -293.25 -375.5 -293.15 Q-373.15 -290.75 -372.5 -290.9 L-369.5 -293.15 -363.9 -293.0 -345.15 -295.15" fill="url(#gradient9)" fill-rule="evenodd" stroke="none"/>
    <path d="M-324.9 -287.75 L-325.25 -289.15 -325.65 -289.25 -326.4 -285.25 -330.65 -291.5 -330.75 -291.9 -326.0 -291.4 -324.9 -290.9 -324.9 -287.75 M-369.5 -293.15 L-372.5 -290.9 Q-373.15 -290.75 -375.5 -293.15 L-373.4 -293.25 -371.75 -293.25 -369.5 -293.15 M-339.75 -87.4 L-336.25 -95.5 -328.25 -96.9 -326.15 -102.75 -323.0 -90.4 Q-333.9 -84.65 -352.25 -84.0 L-348.9 -89.5 -339.9 -86.65 -339.75 -87.4 M-321.15 -91.65 L-319.75 -100.25 -318.9 -93.9 -319.4 -92.5 -321.15 -91.65 M-373.4 -85.25 L-373.25 -86.15 -371.0 -84.9 -373.4 -85.25 M-379.9 -87.65 L-380.65 -87.75 -380.9 -88.4 -380.5 -90.25 -379.9 -87.65" fill="url(#gradient10)" fill-rule="evenodd" stroke="none"/>
    <path d="M-373.4 -293.25 L-372.75 -293.65 -371.75 -293.25 -373.4 -293.25" fill="url(#gradient11)" fill-rule="evenodd" stroke="none"/>
    <path d="M-340.0 -122.0 L-320.4 -127.75 -316.25 -130.9 -317.75 -99.75 -318.0 -94.65 -318.9 -93.9 -319.75 -100.25 -321.15 -91.65 -323.0 -90.4 -326.15 -102.75 -328.25 -96.9 -336.25 -95.5 -339.75 -87.4 -340.0 -122.0" fill="url(#gradient12)" fill-rule="evenodd" stroke="none"/>
    <path d="M-206.65 -254.25 L-206.65 -254.9 -206.5 -256.15 -206.5 -257.15 -206.4 -258.0 -206.4 -259.5 -206.25 -259.9 -205.25 -279.4 -208.4 -299.65 -208.4 -300.0 -199.5 -300.0 -196.25 -278.15 -197.4 -254.4 -206.65 -253.25 -206.65 -254.25" fill="url(#gradient13)" fill-rule="evenodd" stroke="none"/>
    <path d="M-206.75 -253.15 L-206.65 -254.25 -206.65 -253.25 -206.65 -253.15 -206.75 -253.15" fill="url(#gradient14)" fill-rule="evenodd" stroke="none"/>
    <path d="M-215.0 -205.0 L-215.25 -205.65 -215.0 -205.9 -211.0 -206.25 -210.5 -208.25 -215.25 -207.75 -215.5 -207.75 -218.25 -243.5 -218.25 -244.75 -216.9 -245.15 -215.9 -245.25 -214.75 -251.5 -214.15 -255.25 Q-213.5 -255.4 -212.15 -252.25 L-213.0 -252.0 -212.65 -250.9 -212.9 -249.75 -212.4 -247.9 -212.15 -242.15 -211.65 -239.4 -210.9 -239.4 -210.5 -239.5 -210.0 -239.5 -209.65 -239.65 -209.15 -239.65 -208.75 -239.75 -208.25 -239.75 -207.9 -239.9 -205.75 -240.15 -205.4 -240.25 -203.15 -240.5 -202.75 -240.65 -202.25 -240.65 -201.65 -240.75 -201.4 -240.75 -201.0 -239.9 -200.25 -238.15 -198.9 -237.5 -175.65 -223.9 -169.5 -219.9 -165.15 -213.65 -164.75 -213.15 -163.4 -210.75 -162.9 -210.5 -160.25 -204.25 -156.25 -200.75 Q-154.0 -196.65 -154.4 -195.9 L-158.0 -198.4 -162.9 -202.65 -171.25 -209.0 -171.9 -208.9 Q-172.0 -210.9 -178.9 -211.5 L-191.65 -210.25 -209.15 -208.4 -207.9 -206.65 -203.4 -207.0 -203.0 -207.15 -202.15 -207.15 -201.75 -207.25 -200.9 -207.25 -200.4 -207.4 -199.65 -207.4 -199.0 -207.5 -198.4 -207.5 -197.65 -207.65 -197.15 -207.65 -194.75 -207.9 -194.65 -207.9 -192.95 -208.05 -192.3 -208.1 -190.25 -208.3 -189.25 -208.4 -189.0 -208.4 -187.75 -208.5 -187.4 -208.5 -186.4 -208.65 -184.25 -208.75 -183.4 -208.9 -182.75 -208.9 -182.0 -209.0 -181.5 -209.0 -176.5 -208.65 -178.9 -208.4 -179.25 -208.25 -180.25 -208.25 -180.75 -208.15 -181.5 -208.15 -182.15 -208.0 -182.75 -208.0 -183.5 -207.9 -184.15 -207.9 -185.5 -207.65 -186.75 -207.65 -190.9 -207.25 -191.0 -207.25 -191.45 -207.2 -191.65 -207.15 -191.9 -207.15 -192.25 -207.1 -192.6 -207.1 -192.8 -207.05 -193.75 -207.0 -194.0 -207.0 -195.15 -206.9 -195.5 -206.9 -196.5 -206.75 -197.15 -206.75 -197.9 -206.65 -198.5 -206.65 -199.4 -206.5 -200.0 -206.5 -200.75 -206.4 -201.4 -206.4 -202.0 -206.25 -202.9 -206.25 -203.4 -206.15 -204.0 -206.15 -204.65 -206.0 -205.5 -206.0 -206.15 -205.9 -206.9 -205.9 -207.4 -205.75 -208.15 -205.65 -215.0 -205.0" fill="url(#gradient15)" fill-rule="evenodd" stroke="none"/>
    <path d="M-152.5 -243.25 L-153.9 -242.25 -159.9 -241.15 -159.9 -242.65 -162.15 -243.0 -170.65 -242.9 -187.4 -241.65 -201.0 -239.9 -201.4 -240.75 -176.65 -243.15 -156.15 -243.75 -152.5 -243.25" fill="url(#gradient16)" fill-rule="evenodd" stroke="none"/>
    <path d="M-159.9 -241.15 L-160.15 -237.25 -162.25 -237.0 -162.4 -236.65 Q-167.5 -237.15 -168.0 -236.25 L-176.15 -236.5 -176.15 -236.15 -185.65 -236.75 -186.9 -236.5 -198.9 -237.5 -200.25 -238.15 -201.0 -239.9 -187.4 -241.65 -170.65 -242.9 -162.15 -243.0 -159.9 -242.65 -159.9 -241.15" fill="url(#gradient17)" fill-rule="evenodd" stroke="none"/>
    <path d="M-160.15 -237.25 L-159.25 -232.75 -159.9 -230.9 -160.25 -227.5 -161.0 -225.5 -161.9 -224.65 -162.65 -226.0 -164.65 -225.75 -167.9 -223.9 -169.75 -226.0 -170.25 -226.15 -172.0 -225.75 -175.65 -223.9 -198.9 -237.5 -186.9 -236.5 -185.65 -236.75 -176.15 -236.15 -176.15 -236.5 -168.0 -236.25 Q-167.5 -237.15 -162.4 -236.65 L-162.25 -237.0 -160.15 -237.25" fill="url(#gradient18)" fill-rule="evenodd" stroke="none"/>
    <path d="M-159.25 -232.75 L-158.4 -232.25 -157.25 -227.75 -159.25 -221.15 -163.75 -214.15 -164.75 -213.15 -165.15 -213.65 -163.15 -217.15 -161.5 -221.9 -161.0 -225.5 -160.25 -227.5 -159.9 -230.9 -159.25 -232.75" fill="url(#gradient19)" fill-rule="evenodd" stroke="none"/>
    <path d="M-165.15 -213.65 L-169.5 -219.9 -175.65 -223.9 -172.0 -225.75 -170.25 -226.15 -169.75 -226.0 -167.9 -223.9 -164.65 -225.75 -162.65 -226.0 -161.9 -224.65 -161.0 -225.5 -161.5 -221.9 -163.15 -217.15 -165.15 -213.65 M-191.9 -207.15 L-191.65 -207.15 -191.45 -207.2 -191.0 -207.25 -190.9 -207.25 -186.75 -207.65 -185.5 -207.65 -183.5 -205.9 -181.5 -204.15 -177.9 -201.0 -177.0 -199.25 -177.4 -197.75 -178.25 -197.0 -180.65 -196.75 -183.4 -196.25 -187.5 -196.5 -190.4 -197.0 -194.0 -198.25 -192.15 -202.9 -191.9 -207.15" fill="url(#gradient20)" fill-rule="evenodd" stroke="none"/>
    <path d="M-158.4 -232.25 L-132.5 -206.5 -128.75 -202.5 Q-127.25 -198.65 -128.0 -198.0 L-129.4 -194.0 -134.0 -186.75 -137.5 -182.9 -139.4 -181.65 -156.9 -196.15 -154.4 -195.9 Q-154.0 -196.65 -156.25 -200.75 L-160.25 -204.25 -162.9 -210.5 -163.4 -210.75 -164.75 -213.15 -163.75 -214.15 -159.25 -221.15 -157.25 -227.75 -158.4 -232.25 M-121.5 -195.25 L-114.65 -188.5 Q-106.4 -178.25 -127.15 -171.5 L-132.9 -176.15 Q-121.65 -185.9 -121.5 -195.25 M-180.65 -196.75 L-178.75 -195.15 Q-186.15 -194.5 -187.5 -196.5 L-183.4 -196.25 -180.65 -196.75" fill="url(#gradient21)" fill-rule="evenodd" stroke="none"/>
    <path d="M-220.9 -205.25 L-221.15 -205.25 -222.25 -205.15 -222.65 -205.15 -223.5 -205.0 -224.15 -205.0 -224.75 -204.9 -225.9 -204.9 -226.15 -204.75 -226.75 -206.65 -215.5 -207.75 -215.25 -207.75 -210.5 -208.25 -211.0 -206.25 -215.0 -205.9 -220.9 -205.25 M-192.3 -208.1 L-192.95 -208.05 -194.65 -207.9 -194.75 -207.9 -197.15 -207.65 -197.65 -207.65 -198.4 -207.5 -199.0 -207.5 -199.65 -207.4 -200.4 -207.4 -200.9 -207.25 -201.75 -207.25 -202.15 -207.15 -203.0 -207.15 -203.4 -207.0 -207.9 -206.65 -209.15 -208.4 -191.65 -210.25 -191.25 -208.25 -192.3 -208.1" fill="url(#gradient22)" fill-rule="evenodd" stroke="none"/>
    <path d="M-215.25 -205.65 L-220.9 -205.25 -215.0 -205.9 -215.25 -205.65 M-190.25 -208.3 L-192.3 -208.1 -191.25 -208.25 -190.25 -208.3" fill="url(#gradient23)" fill-rule="evenodd" stroke="none"/>
    <path d="M-107.9 -170.9 L-107.4 -170.9 -106.9 -169.75 -107.25 -168.65 -107.75 -168.4 -110.25 -168.75 -111.65 -168.4 -111.9 -168.4 -112.25 -168.25 -115.75 -167.65 -121.75 -166.65 -123.4 -167.0 -125.65 -167.75 -171.4 -205.0 -173.5 -206.9 -175.25 -208.65 -179.15 -209.25 -180.5 -209.15 -181.15 -209.0 -181.5 -209.0 -182.0 -209.0 -182.75 -208.9 -183.4 -208.9 -184.25 -208.75 -186.4 -208.65 -187.4 -208.5 -187.75 -208.5 -189.0 -208.4 -189.25 -208.4 -190.25 -208.3 -191.25 -208.25 -191.65 -210.25 -178.9 -211.5 Q-172.0 -210.9 -171.9 -208.9 -172.0 -208.0 -167.65 -204.75 L-156.9 -196.15 -139.4 -181.65 Q-133.15 -177.4 -133.65 -175.65 L-132.9 -176.15 -127.15 -171.5 -124.75 -169.4 -123.5 -169.15 -121.0 -168.9 -107.9 -170.9" fill="url(#gradient24)" fill-rule="evenodd" stroke="none"/>
    <path d="M-176.5 -208.65 L-181.5 -209.0 -181.15 -209.0 -180.5 -209.15 -179.15 -209.25 -175.25 -208.65 -176.5 -208.65" fill="url(#gradient25)" fill-rule="evenodd" stroke="none"/>
    <path d="M-209.25 -203.65 L-211.0 -205.25 -208.25 -205.5 -207.15 -203.75 -209.25 -203.65 M-185.5 -207.65 L-184.15 -207.9 -183.5 -207.9 -182.75 -208.0 -182.15 -208.0 -181.5 -208.15 -180.75 -208.15 -180.25 -208.25 -179.25 -208.25 -178.9 -208.4 -176.5 -208.65 -175.25 -208.65 -173.5 -206.9 -183.5 -205.9 -185.5 -207.65" fill="url(#gradient26)" fill-rule="evenodd" stroke="none"/>
    <path d="M-211.0 -205.25 L-215.0 -205.0 -208.15 -205.65 -208.25 -205.5 -211.0 -205.25 M-171.9 -208.9 L-171.25 -209.0 -162.9 -202.65 -158.0 -198.4 -154.4 -195.9 -156.9 -196.15 -167.65 -204.75 Q-172.0 -208.0 -171.9 -208.9" fill="url(#gradient27)" fill-rule="evenodd" stroke="none"/>
    <path d="M-195.25 -195.4 L-195.5 -194.65 -199.75 -194.15 -200.9 -193.65 -205.5 -201.15 -206.15 -202.0 -207.15 -203.75 -208.25 -205.5 -208.15 -205.65 -207.4 -205.75 -206.9 -205.9 -206.15 -205.9 -205.5 -206.0 -204.65 -206.0 -204.0 -206.15 -203.4 -206.15 -202.9 -206.25 -202.0 -206.25 -201.4 -206.4 -200.75 -206.4 -200.0 -206.5 -199.4 -206.5 -198.5 -206.65 -197.9 -206.65 -197.15 -206.75 -196.5 -206.75 -195.5 -206.9 -195.15 -206.9 -194.0 -207.0 -193.75 -207.0 -192.8 -207.05 -192.6 -207.1 -192.25 -207.1 -191.9 -207.15 -192.15 -202.9 -194.0 -198.25 -195.25 -195.4" fill="url(#gradient28)" fill-rule="evenodd" stroke="none"/>
    <path d="M-207.15 -201.9 L-209.25 -203.65 -207.15 -203.75 -206.15 -202.0 -207.15 -201.9 M-173.5 -206.9 L-171.4 -205.0 -181.5 -204.15 -183.5 -205.9 -173.5 -206.9" fill="url(#gradient29)" fill-rule="evenodd" stroke="none"/>
    <path d="M-143.25 -167.4 L-195.25 -195.4 -194.0 -198.25 -190.4 -197.0 -187.5 -196.5 Q-186.15 -194.5 -178.75 -195.15 L-180.65 -196.75 -178.25 -197.0 -177.4 -197.75 -177.0 -199.25 -177.9 -201.0 -181.5 -204.15 -171.4 -205.0 -125.65 -167.75 -143.25 -167.4 M-205.5 -201.15 L-207.15 -201.9 -206.15 -202.0 -205.5 -201.15 M-154.5 -177.0 L-156.4 -176.9 -155.65 -176.25 -154.5 -177.0 M-137.25 -174.0 L-137.65 -176.0 Q-140.5 -178.0 -141.0 -176.5 L-137.5 -173.5 -137.15 -173.65 -136.65 -174.0 -137.25 -174.0 M-140.5 -173.25 L-141.4 -173.5 -145.0 -173.5 -145.15 -173.25 -141.65 -173.15 -140.5 -173.25 M-153.15 -173.15 L-150.75 -174.15 -154.25 -174.65 -154.4 -174.4 -153.15 -173.15" fill="url(#gradient30)" fill-rule="evenodd" stroke="none"/>
    <path d="M-195.5 -194.65 L-192.65 -161.4 -194.65 -161.15 -197.5 -161.4 -198.15 -161.75 -200.9 -193.65 -199.75 -194.15 -195.5 -194.65" fill="url(#gradient31)" fill-rule="evenodd" stroke="none"/>
    <path d="M-132.5 -206.5 Q-120.5 -205.25 -121.5 -195.25 -121.65 -185.9 -132.9 -176.15 L-133.65 -175.65 Q-133.15 -177.4 -139.4 -181.65 L-137.5 -182.9 -134.0 -186.75 -129.4 -194.0 -128.0 -198.0 Q-127.25 -198.65 -128.75 -202.5 L-132.5 -206.5 M-154.5 -177.0 L-155.65 -176.25 -156.4 -176.9 -154.5 -177.0 M-137.15 -173.65 L-137.5 -173.5 -141.0 -176.5 Q-140.5 -178.0 -137.65 -176.0 L-137.25 -174.0 -137.15 -173.65" fill="url(#gradient32)" fill-rule="evenodd" stroke="none"/>
    <path d="M-114.65 -188.5 Q-107.25 -188.25 -104.9 -182.25 -103.65 -176.5 -110.5 -170.75 L-114.15 -170.0 -123.5 -169.15 -124.75 -169.4 -127.15 -171.5 Q-106.4 -178.25 -114.65 -188.5 M-115.75 -167.65 Q-123.25 -164.5 -129.4 -166.5 L-121.75 -166.65 -115.75 -167.65" fill="url(#gradient33)" fill-rule="evenodd" stroke="none"/>
    <path d="M-137.15 -173.65 L-137.25 -174.0 -136.65 -174.0 -137.15 -173.65 M-140.5 -173.25 L-141.65 -173.15 -145.15 -173.25 -145.0 -173.5 -141.4 -173.5 -140.5 -173.25 M-153.15 -173.15 L-154.4 -174.4 -154.25 -174.65 -150.75 -174.15 -153.15 -173.15" fill="url(#gradient34)" fill-rule="evenodd" stroke="none"/>
    <path d="M-110.5 -170.75 L-107.9 -170.9 -121.0 -168.9 -123.5 -169.15 -114.15 -170.0 -110.5 -170.75" fill="url(#gradient35)" fill-rule="evenodd" stroke="none"/>
    <path d="M-107.75 -168.4 L-111.65 -168.4 -110.25 -168.75 -107.75 -168.4" fill="url(#gradient36)" fill-rule="evenodd" stroke="none"/>
    <path d="M-129.4 -166.5 L-138.4 -166.4 -141.25 -166.75 -123.4 -167.0 -121.75 -166.65 -129.4 -166.5" fill="url(#gradient37)" fill-rule="evenodd" stroke="none"/>
    <path d="M-141.25 -166.75 L-143.25 -167.4 -125.65 -167.75 -123.4 -167.0 -141.25 -166.75" fill="url(#gradient38)" fill-rule="evenodd" stroke="none"/>
    <path d="M-192.65 -161.4 L-191.9 -160.75 -198.15 -160.0 -199.5 -160.15 -198.15 -161.75 -197.5 -161.4 -194.65 -161.15 -192.65 -161.4" fill="url(#gradient39)" fill-rule="evenodd" stroke="none"/>
    <path d="M-399.9 -205.65 L-397.25 -195.9 -397.0 -193.65 -390.25 -170.4 -388.0 -161.4 -387.4 -160.15 -383.4 -117.15 -389.0 -122.65 -394.0 -163.15 -400.0 -183.75 -399.9 -205.65" fill="url(#gradient40)" fill-rule="evenodd" stroke="none"/>
    <path d="M-383.4 -117.15 L-340.0 -122.0 -339.75 -87.4 -339.9 -86.65 -348.9 -89.5 -352.25 -84.0 -359.5 -83.25 -371.0 -84.9 -373.25 -86.15 -373.4 -85.25 -378.65 -86.0 -378.9 -86.5 -383.4 -117.15" fill="url(#gradient41)" fill-rule="evenodd" stroke="none"/>
    <path d="M-323.0 -90.4 L-321.15 -91.65 -319.4 -92.5 -318.9 -93.9 -318.0 -94.65 -317.75 -99.75 -317.0 -99.65 -312.4 -95.75 Q-312.9 -85.5 -349.75 -82.15 L-367.4 -82.0 -380.5 -83.5 -390.15 -86.65 -393.25 -90.5 -393.15 -91.15 -390.5 -94.65 -389.75 -95.15 -387.25 -96.4 -385.25 -97.15 -384.4 -90.75 -380.9 -88.4 -380.65 -87.75 -379.9 -87.65 -378.9 -86.5 -378.65 -86.0 -373.4 -85.25 -371.0 -84.9 -359.5 -83.25 -352.25 -84.0 Q-333.9 -84.65 -323.0 -90.4" fill="url(#gradient42)" fill-rule="evenodd" stroke="none"/>
    <path d="M-389.0 -122.65 L-383.4 -117.15 -378.9 -86.5 -379.9 -87.65 -380.5 -90.25 -380.9 -88.4 -384.4 -90.75 -385.25 -97.15 -389.0 -122.65" fill="url(#gradient43)" fill-rule="evenodd" stroke="none"/>
    <path d="M-390.65 -74.25 L-390.4 -74.0 -389.9 -73.25 -388.9 -72.4 -381.0 -69.5 -380.5 -64.15 -378.25 -55.4 -378.0 -54.65 -381.15 -52.75 -388.65 -63.5 -390.4 -72.65 -390.75 -73.0 -390.65 -74.25 M-389.75 -95.15 L-389.4 -99.5 -387.25 -96.4 -389.75 -95.15" fill="url(#gradient44)" fill-rule="evenodd" stroke="none"/>
    <path d="M-312.4 -95.75 L-312.0 -82.0 -313.15 -77.9 -320.65 -73.4 -333.0 -69.75 -348.5 -67.65 -366.4 -67.4 -380.9 -69.5 -381.0 -69.5 -388.9 -72.4 -389.9 -73.25 -390.4 -74.0 -390.65 -74.25 -390.9 -74.65 -391.4 -75.25 -391.5 -75.5 -392.4 -76.75 -393.25 -90.5 -390.15 -86.65 -380.5 -83.5 -367.4 -82.0 -349.75 -82.15 Q-312.9 -85.5 -312.4 -95.75" fill="url(#gradient45)" fill-rule="evenodd" stroke="none"/>
    <path d="M-391.4 -75.25 L-390.9 -74.65 -390.65 -74.25 -390.75 -73.0 -390.4 -72.65 -388.65 -63.5 -381.15 -52.75 -380.15 -51.0 -373.4 -45.5 -369.9 -42.4 -368.65 -40.5 -367.4 -38.75 -357.65 -24.65 -349.9 -20.25 -346.15 -15.15 -346.4 -14.75 -353.15 -17.65 -361.65 -22.15 -365.75 -25.65 -370.65 -29.75 -372.75 -31.5 -374.75 -32.25 -376.0 -33.75 -379.15 -35.0 -382.4 -37.5 -387.15 -39.65 -387.25 -40.0 -389.5 -44.5 -389.75 -46.5 -389.65 -48.75 -391.4 -75.25" fill="url(#gradient46)" fill-rule="evenodd" stroke="none"/>
    <path d="M-400.0 -36.15 L-400.0 -38.15 -389.75 -46.5 -389.5 -44.5 -387.25 -40.0 -387.15 -39.65 -382.4 -37.5 -384.65 -35.4 -400.0 -36.15 M-381.15 -52.75 L-378.0 -54.65 -372.25 -46.5 -373.4 -45.5 -380.15 -51.0 -381.15 -52.75" fill="url(#gradient47)" fill-rule="evenodd" stroke="none"/>
    <path d="M-316.75 -0.9 L-321.65 -0.9 -367.75 -23.9 -374.25 -27.15 -379.9 -31.9 -384.65 -32.9 -399.65 -34.0 -400.0 -34.0 -400.0 -36.15 -384.65 -35.4 -376.65 -33.15 -374.0 -30.15 -371.75 -28.5 -365.75 -25.65 -361.65 -22.15 -353.15 -17.65 -346.4 -14.75 -346.15 -15.15 -346.0 -15.5 -316.75 -0.9" fill="url(#gradient48)" fill-rule="evenodd" stroke="none"/>
    <path d="M-367.75 -23.9 L-366.5 -0.9 -372.75 -0.9 -374.25 -27.15 -367.75 -23.9" fill="url(#gradient49)" fill-rule="evenodd" stroke="none"/>
    <path d="M-381.0 -69.5 L-380.9 -69.5 -366.4 -67.4 -348.5 -67.65 -333.0 -69.75 -320.65 -73.4 -313.15 -77.9 -312.4 -74.5 -312.4 -68.65 -312.9 -66.65 -314.4 -62.25 Q-315.25 -62.5 -318.9 -59.25 L-320.65 -58.25 -323.4 -57.65 -330.9 -54.65 -335.75 -54.75 -345.75 -53.75 -352.15 -57.4 -352.5 -57.25 -360.75 -46.5 -364.4 -41.0 -364.65 -40.9 -366.9 -42.0 -372.25 -46.5 -378.0 -54.65 -378.25 -55.4 -380.5 -64.15 -381.0 -69.5" fill="url(#gradient50)" fill-rule="evenodd" stroke="none"/>
    <path d="M-312.9 -66.65 L-279.4 -36.0 -279.5 -34.75 -298.15 -6.5 -302.4 -1.4 -302.5 -1.4 -359.15 -33.75 -365.75 -37.65 -365.4 -38.9 -365.4 -39.0 -364.75 -40.4 -364.65 -40.9 -364.4 -41.0 -360.75 -46.5 -352.5 -57.25 -352.15 -57.4 -345.75 -53.75 -335.75 -54.75 -330.9 -54.65 -323.4 -57.65 -320.65 -58.25 -318.9 -59.25 Q-315.25 -62.5 -314.4 -62.25 L-312.9 -66.65 M-271.25 -28.5 L-251.9 -10.65 -251.65 -10.0 -251.9 -9.9 -252.75 -9.0 -253.0 -7.65 -254.65 -5.65 -255.5 -3.0 -257.4 -0.9 -289.75 -0.9 -289.4 -2.25 Q-287.0 -4.25 -285.15 -7.9 L-282.75 -10.15 -271.25 -28.5" fill="url(#gradient51)" fill-rule="evenodd" stroke="none"/>
    <path d="M-364.65 -40.9 L-364.75 -40.4 -365.4 -39.0 -366.65 -39.5 -367.4 -38.75 -368.65 -40.5 -366.9 -42.0 -364.65 -40.9 M-376.65 -33.15 L-376.0 -33.75 -374.75 -32.25 -372.75 -31.5 -374.0 -30.15 -376.65 -33.15" fill="url(#gradient52)" fill-rule="evenodd" stroke="none"/>
    <path d="M-366.9 -42.0 L-368.65 -40.5 -369.9 -42.4 -373.4 -45.5 -372.25 -46.5 -366.9 -42.0 M-376.0 -33.75 L-376.65 -33.15 -384.65 -35.4 -382.4 -37.5 -379.15 -35.0 -376.0 -33.75" fill="url(#gradient53)" fill-rule="evenodd" stroke="none"/>
    <path d="M-365.4 -39.0 L-365.4 -38.9 -365.75 -37.65 -359.15 -33.75 Q-356.4 -29.9 -346.75 -25.65 L-346.0 -15.5 -346.15 -15.15 -349.9 -20.25 -357.65 -24.65 -367.4 -38.75 -366.65 -39.5 -365.4 -39.0" fill="url(#gradient54)" fill-rule="evenodd" stroke="none"/>
    <path d="M-302.75 -0.9 L-316.75 -0.9 -346.0 -15.5 -346.75 -25.65 Q-356.4 -29.9 -359.15 -33.75 L-302.5 -1.4 -302.75 -0.9 M-370.65 -29.75 L-365.75 -25.65 -371.75 -28.5 -370.65 -29.75" fill="url(#gradient55)" fill-rule="evenodd" stroke="none"/>
    <path d="M-374.0 -30.15 L-372.75 -31.5 -370.65 -29.75 -371.75 -28.5 -374.0 -30.15" fill="url(#gradient56)" fill-rule="evenodd" stroke="none"/>
    <path d="M-279.4 -36.0 L-277.75 -37.9 -271.15 -36.4 -270.5 -30.5 -271.25 -28.5 -282.75 -10.15 -285.15 -7.9 Q-287.0 -4.25 -289.4 -2.25 L-289.75 -0.9 -302.75 -0.9 -302.5 -1.4 -302.4 -1.4 -298.15 -6.5 -279.5 -34.75 -279.4 -36.0" fill="url(#gradient57)" fill-rule="evenodd" stroke="none"/>
    <path d="M-251.9 -10.65 Q-241.25 -9.4 -236.75 -0.9 L-257.4 -0.9 -255.5 -3.0 -254.65 -5.65 -253.0 -7.65 -252.75 -9.0 -251.9 -9.9 -251.65 -10.0 -251.9 -10.65" fill="url(#gradient58)" fill-rule="evenodd" stroke="none"/>
    <path d="M-317.25 -160.4 L-358.15 -150.9 -358.9 -150.9 -354.25 -163.75 -354.4 -164.0 -348.4 -180.0 -348.5 -180.25 -343.15 -194.4 -343.0 -195.5 -342.25 -197.0 -342.4 -198.15 -342.5 -198.5 -342.5 -199.25 -343.65 -211.65 -343.65 -212.9 -343.75 -213.25 -344.5 -225.9 -344.65 -226.0 -344.5 -226.25 -344.5 -227.25 -344.65 -227.65 -344.65 -228.9 -348.65 -277.0 -349.0 -277.65 -351.0 -299.65 -351.0 -299.75 -350.4 -299.9 -317.5 -300.0 -319.9 -293.65 -320.0 -292.9 -323.5 -282.75 -321.65 -275.5 -321.4 -274.9 -320.9 -264.5 -320.75 -259.25 -317.25 -160.4" fill="#a40000" fill-opacity="0.9098039" fill-rule="evenodd" stroke="none"/>
    <path d="M-273.5 -265.5 L-270.65 -214.15 -271.15 -166.75 -288.15 -178.5 -289.65 -177.9 -287.75 -167.15 -317.25 -160.4 -320.75 -259.25 -273.5 -265.5 M-317.5 -300.0 L-305.25 -300.0 -306.5 -276.4 -320.9 -264.5 -321.4 -274.9 -321.65 -275.5 -323.5 -282.75 -320.0 -292.9 -319.9 -293.65 -317.5 -300.0 M-309.65 -256.9 L-310.0 -257.0 -300.4 -207.5 -291.5 -183.15 -291.15 -183.0 -296.5 -200.25 -309.65 -256.9" fill="#b50000" fill-opacity="0.9098039" fill-rule="evenodd" stroke="none"/>
    <path d="M-274.65 -300.0 L-273.5 -265.5 -320.75 -259.25 -320.9 -264.5 -306.5 -276.4 -305.25 -300.0 -274.65 -300.0" fill="#ba0000" fill-rule="evenodd" stroke="none"/>
    <path d="M-105.9 -226.0 L-155.0 -242.0 -154.4 -242.25 -153.5 -242.4 -152.5 -243.25 -153.4 -255.65 -155.0 -256.0 -155.0 -256.4 -154.9 -256.65 -154.9 -257.9 -154.75 -258.15 -154.75 -259.25 -154.65 -259.5 -154.65 -260.65 -154.5 -260.9 -154.5 -262.15 -154.4 -262.4 -154.4 -263.5 -154.25 -263.75 -154.15 -266.25 -154.25 -266.5 -154.0 -267.75 -153.9 -268.0 -153.9 -269.25 -153.75 -269.5 -153.75 -270.65 -153.65 -270.9 -153.65 -272.0 -153.5 -272.25 -153.5 -273.5 -153.4 -273.75 -153.4 -274.9 -153.25 -275.15 -153.25 -276.25 -153.15 -276.65 -153.15 -277.75 -153.0 -278.0 -153.0 -279.15 -152.9 -279.4 -152.9 -280.65 -152.75 -280.9 -152.75 -282.0 -152.65 -282.25 -152.5 -283.5 -152.5 -285.65 -152.25 -287.65 -152.15 -288.0 -152.15 -289.15 -152.0 -289.4 -152.0 -290.5 -151.9 -290.75 -151.9 -292.0 -151.75 -292.25 -151.75 -293.4 -151.65 -293.65 -151.65 -294.75 -151.5 -295.0 -151.5 -296.25 -151.4 -296.5 -151.4 -297.65 -151.25 -297.9 -151.25 -299.0 -151.15 -299.4 -151.15 -300.0 -108.65 -300.0 -108.25 -250.65 -105.9 -226.0 M-274.65 -300.0 L-208.4 -300.0 -205.65 -282.0 -205.65 -281.5 -205.5 -281.15 -205.25 -279.0 -206.25 -259.9 -206.4 -259.5 -206.4 -258.0 -206.5 -257.15 -206.65 -256.9 -249.65 -268.65 -273.5 -265.5 -274.65 -300.0" fill="#f10000" fill-opacity="0.9098039" fill-rule="evenodd" stroke="none"/>
    <path d="M-106.15 -276.25 L-105.9 -263.65 -105.5 -225.65 -105.75 -225.9 -105.9 -226.0 -108.25 -250.65 -108.65 -300.0 -107.4 -300.0 -106.15 -276.25" fill="#ab0000" fill-rule="evenodd" stroke="none"/>
    <path d="M-107.4 -300.0 L-105.9 -300.0 -105.9 -276.4 -106.15 -276.25 -107.4 -300.0 M-105.9 -263.65 L-102.9 -225.0 -105.5 -225.65 -105.9 -263.65" fill="#b10000" fill-rule="evenodd" stroke="none"/>
    <path d="M-399.0 -300.0 L-398.25 -294.0 -398.4 -293.75 -398.5 -293.4 -398.5 -293.0 -399.9 -289.4 -400.0 -299.75 -399.0 -300.0 M-398.4 -178.25 L-399.5 -177.75 -400.0 -177.75 -399.9 -183.0 -398.4 -178.25" fill="#bf0000" fill-opacity="0.9098039" fill-rule="evenodd" stroke="none"/>
    <path d="M-102.9 -225.0 L-101.0 -206.25 -100.75 -184.9 -105.25 -182.65 -105.5 -183.15 -105.65 -183.25 -105.75 -183.25 -106.9 -184.9 -107.15 -185.0 -107.4 -185.4 -108.5 -186.4 -108.5 -186.75 -105.4 -221.75 -105.5 -225.65 -102.9 -225.0" fill="#ab0000" fill-opacity="0.9098039" fill-rule="evenodd" stroke="none"/>
    <path d="M-105.25 -182.65 L-105.65 -182.65 -105.75 -182.4 -106.15 -182.4 -106.5 -182.0 -106.75 -182.0 -108.75 -181.0 -108.65 -181.5 -108.65 -182.25 -108.9 -182.4 -108.65 -182.75 -108.65 -183.9 -108.4 -184.5 -108.5 -185.5 -108.4 -186.0 -108.5 -186.4 -107.4 -185.4 -107.15 -185.0 -106.9 -184.9 -105.75 -183.25 -105.65 -183.25 -105.5 -183.15 -105.25 -182.65" fill="#9b0000" fill-opacity="0.9098039" fill-rule="evenodd" stroke="none"/>
    <path d="M-309.65 -256.9 L-296.5 -200.25 -291.15 -183.0 -291.5 -183.15 -300.4 -207.5 -310.0 -257.0 -309.65 -256.9" fill="#b40000" fill-rule="evenodd" stroke="none"/>
  </g>
  <defs>
    <radialGradient cx="0" cy="0" gradientTransform="matrix(0.0388, 0.0, 0.0, 0.0388, -363.85, -293.15)" gradientUnits="userSpaceOnUse" id="gradient0" r="819.2" spreadMethod="pad">
      <stop offset="0.0" stop-color="#010101"/>
      <stop offset="1.0" stop-color="#000000"/>
    </radialGradient>
    <radialGradient cx="0" cy="0" gradientTransform="matrix(0.0332, 0.0, 0.0, 0.0332, -344.8, -300.0)" gradientUnits="userSpaceOnUse" id="gradient1" r="819.2" spreadMethod="pad">
      <stop offset="0.0" stop-color="#000000"/>
      <stop offset="1.0" stop-color="#000000"/>
    </radialGradient>
    <radialGradient cx="0" cy="0" gradientTransform="matrix(0.0245, 0.0, 0.0, 0.0245, -320.1, -293.0)" gradientUnits="userSpaceOnUse" id="gradient2" r="819.2" spreadMethod="pad">
      <stop offset="0.0" stop-color="#000000"/>
      <stop offset="1.0" stop-color="#000000"/>
    </radialGradient>
    <radialGradient cx="0" cy="0" gradientTransform="matrix(0.127, 0.0, 0.0, 0.127, -344.45, -226.0)" gradientUnits="userSpaceOnUse" id="gradient3" r="819.2" spreadMethod="pad">
      <stop offset="0.0" stop-color="#111111"/>
      <stop offset="1.0" stop-color="#000000"/>
    </radialGradient>
    <radialGradient cx="0" cy="0" gradientTransform="matrix(0.0802, 0.0, 0.0, 0.0802, -160.65, -300.0)" gradientUnits="userSpaceOnUse" id="gradient4" r="819.2" spreadMethod="pad">
      <stop offset="0.0" stop-color="#202020"/>
      <stop offset="1.0" stop-color="#040404"/>
    </radialGradient>
    <radialGradient cx="0" cy="0" gradientTransform="matrix(0.0644, 0.0, 0.0, 0.0644, -160.65, -300.0)" gradientUnits="userSpaceOnUse" id="gradient5" r="819.2" spreadMethod="pad">
      <stop offset="0.0" stop-color="#202020"/>
      <stop offset="1.0" stop-color="#000000"/>
    </radialGradient>
    <radialGradient cx="0" cy="0" gradientTransform="matrix(0.0658, 0.0, 0.0, 0.0658, -165.7, -256.7)" gradientUnits="userSpaceOnUse" id="gradient6" r="819.2" spreadMethod="pad">
      <stop offset="0.0" stop-color="#939393"/>
      <stop offset="1.0" stop-color="#3b3b3b"/>
    </radialGradient>
    <radialGradient cx="0" cy="0" gradientTransform="matrix(0.0135, 0.0, 0.0, 0.0135, -399.0, -300.0)" gradientUnits="userSpaceOnUse" id="gradient7" r="819.2" spreadMethod="pad">
      <stop offset="0.0" stop-color="#000000"/>
      <stop offset="1.0" stop-color="#000000"/>
    </radialGradient>
    <radialGradient cx="0" cy="0" gradientTransform="matrix(0.0343, 0.0, 0.0, 0.0343, -390.2, -293.25)" gradientUnits="userSpaceOnUse" id="gradient8" r="819.2" spreadMethod="pad">
      <stop offset="0.0" stop-color="#000000"/>
      <stop offset="1.0" stop-color="#000000"/>
    </radialGradient>
    <radialGradient cx="0" cy="0" gradientTransform="matrix(0.1725, 0.0, 0.0, 0.1725, -368.3, -257.7)" gradientUnits="userSpaceOnUse" id="gradient9" r="819.2" spreadMethod="pad">
      <stop offset="0.0" stop-color="#494949"/>
      <stop offset="1.0" stop-color="#000000"/>
    </radialGradient>
    <radialGradient cx="0" cy="0" gradientTransform="matrix(0.2762, 0.0, 0.0, 0.2762, -358.55, -293.2)" gradientUnits="userSpaceOnUse" id="gradient10" r="819.2" spreadMethod="pad">
      <stop offset="0.0" stop-color="#181818"/>
      <stop offset="1.0" stop-color="#000000"/>
    </radialGradient>
    <radialGradient cx="0" cy="0" gradientTransform="matrix(0.028, 0.0, 0.0, 0.028, -360.4, -294.0)" gradientUnits="userSpaceOnUse" id="gradient11" r="819.2" spreadMethod="pad">
      <stop offset="0.0" stop-color="#181818"/>
      <stop offset="1.0" stop-color="#040404"/>
    </radialGradient>
    <radialGradient cx="0" cy="0" gradientTransform="matrix(0.0696, 0.0, 0.0, 0.0696, -340.0, -79.1)" gradientUnits="userSpaceOnUse" id="gradient12" r="819.2" spreadMethod="pad">
      <stop offset="0.0" stop-color="#000000"/>
      <stop offset="1.0" stop-color="#000000"/>
    </radialGradient>
    <radialGradient cx="0" cy="0" gradientTransform="matrix(0.0654, 0.0, 0.0, 0.0654, -206.95, -247.0)" gradientUnits="userSpaceOnUse" id="gradient13" r="819.2" spreadMethod="pad">
      <stop offset="0.0" stop-color="#000000"/>
      <stop offset="1.0" stop-color="#000000"/>
    </radialGradient>
    <radialGradient cx="0" cy="0" gradientTransform="matrix(0.0393, 0.0, 0.0, 0.0393, -205.2, -279.15)" gradientUnits="userSpaceOnUse" id="gradient14" r="819.2" spreadMethod="pad">
      <stop offset="0.0" stop-color="#000000"/>
      <stop offset="1.0" stop-color="#000000"/>
    </radialGradient>
    <radialGradient cx="0" cy="0" gradientTransform="matrix(0.083, 0.0, 0.0, 0.083, -163.0, -210.55)" gradientUnits="userSpaceOnUse" id="gradient15" r="819.2" spreadMethod="pad">
      <stop offset="0.0" stop-color="#bdbdbd"/>
      <stop offset="1.0" stop-color="#2a2a2a"/>
    </radialGradient>
    <radialGradient cx="0" cy="0" gradientTransform="matrix(0.0696, 0.0, 0.0, 0.0696, -159.35, -241.25)" gradientUnits="userSpaceOnUse" id="gradient16" r="819.2" spreadMethod="pad">
      <stop offset="0.0" stop-color="#9f9f9f"/>
      <stop offset="1.0" stop-color="#9c9c9c"/>
    </radialGradient>
    <radialGradient cx="0" cy="0" gradientTransform="matrix(0.0586, 0.0, 0.0, 0.0586, -183.05, -273.15)" gradientUnits="userSpaceOnUse" id="gradient17" r="819.2" spreadMethod="pad">
      <stop offset="0.0" stop-color="#101010"/>
      <stop offset="1.0" stop-color="#000000"/>
    </radialGradient>
    <radialGradient cx="0" cy="0" gradientTransform="matrix(0.0345, 0.0, 0.0, 0.0345, -185.4, -238.55)" gradientUnits="userSpaceOnUse" id="gradient18" r="819.2" spreadMethod="pad">
      <stop offset="0.0" stop-color="#7c7c7c"/>
      <stop offset="1.0" stop-color="#000000"/>
    </radialGradient>
    <radialGradient cx="0" cy="0" gradientTransform="matrix(0.0298, 0.0, 0.0, 0.0298, -176.45, -215.9)" gradientUnits="userSpaceOnUse" id="gradient19" r="819.2" spreadMethod="pad">
      <stop offset="0.0" stop-color="#000000"/>
      <stop offset="1.0" stop-color="#000000"/>
    </radialGradient>
    <radialGradient cx="0" cy="0" gradientTransform="matrix(0.0413, 0.0, 0.0, 0.0413, -178.65, -228.45)" gradientUnits="userSpaceOnUse" id="gradient20" r="819.2" spreadMethod="pad">
      <stop offset="0.0" stop-color="#4d4d4d"/>
      <stop offset="1.0" stop-color="#000000"/>
    </radialGradient>
    <radialGradient cx="0" cy="0" gradientTransform="matrix(0.0817, 0.0, 0.0, 0.0817, -157.25, -227.85)" gradientUnits="userSpaceOnUse" id="gradient21" r="819.2" spreadMethod="pad">
      <stop offset="0.0" stop-color="#0d0d0d"/>
      <stop offset="1.0" stop-color="#000000"/>
    </radialGradient>
    <radialGradient cx="0" cy="0" gradientTransform="matrix(0.0434, 0.0, 0.0, 0.0434, -191.2, -208.35)" gradientUnits="userSpaceOnUse" id="gradient22" r="819.2" spreadMethod="pad">
      <stop offset="0.0" stop-color="#121212"/>
      <stop offset="1.0" stop-color="#121212"/>
    </radialGradient>
    <radialGradient cx="0" cy="0" gradientTransform="matrix(0.0581, 0.0, 0.0, 0.0581, -178.95, -209.35)" gradientUnits="userSpaceOnUse" id="gradient23" r="819.2" spreadMethod="pad">
      <stop offset="0.0" stop-color="#737373"/>
      <stop offset="1.0" stop-color="#717171"/>
    </radialGradient>
    <radialGradient cx="0" cy="0" gradientTransform="matrix(0.0962, 0.0, 0.0, 0.0962, -175.2, -208.8)" gradientUnits="userSpaceOnUse" id="gradient24" r="819.2" spreadMethod="pad">
      <stop offset="0.0" stop-color="#8f8f8f"/>
      <stop offset="1.0" stop-color="#8f8f8f"/>
    </radialGradient>
    <radialGradient cx="0" cy="0" gradientTransform="matrix(0.0482, 0.0, 0.0, 0.0482, -175.2, -208.8)" gradientUnits="userSpaceOnUse" id="gradient25" r="819.2" spreadMethod="pad">
      <stop offset="0.0" stop-color="#121212"/>
      <stop offset="1.0" stop-color="#121212"/>
    </radialGradient>
    <radialGradient cx="0" cy="0" gradientTransform="matrix(0.046, 0.0, 0.0, 0.046, -173.35, -206.95)" gradientUnits="userSpaceOnUse" id="gradient26" r="819.2" spreadMethod="pad">
      <stop offset="0.0" stop-color="#121212"/>
      <stop offset="1.0" stop-color="#121212"/>
    </radialGradient>
    <radialGradient cx="0" cy="0" gradientTransform="matrix(0.0429, 0.0, 0.0, 0.0429, -187.2, -207.6)" gradientUnits="userSpaceOnUse" id="gradient27" r="819.2" spreadMethod="pad">
      <stop offset="0.0" stop-color="#a1a1a1"/>
      <stop offset="1.0" stop-color="#757575"/>
    </radialGradient>
    <radialGradient cx="0" cy="0" gradientTransform="matrix(0.021, 0.0, 0.0, 0.021, -196.85, -193.4)" gradientUnits="userSpaceOnUse" id="gradient28" r="819.2" spreadMethod="pad">
      <stop offset="0.0" stop-color="#676767"/>
      <stop offset="1.0" stop-color="#242424"/>
    </radialGradient>
    <radialGradient cx="0" cy="0" gradientTransform="matrix(0.0463, 0.0, 0.0, 0.0463, -171.25, -205.15)" gradientUnits="userSpaceOnUse" id="gradient29" r="819.2" spreadMethod="pad">
      <stop offset="0.0" stop-color="#121212"/>
      <stop offset="1.0" stop-color="#121212"/>
    </radialGradient>
    <radialGradient cx="0" cy="0" gradientTransform="matrix(0.1081, 0.0, 0.0, 0.1081, -125.45, -167.85)" gradientUnits="userSpaceOnUse" id="gradient30" r="819.2" spreadMethod="pad">
      <stop offset="0.0" stop-color="#121212"/>
      <stop offset="1.0" stop-color="#121212"/>
    </radialGradient>
    <radialGradient cx="0" cy="0" gradientTransform="matrix(0.0431, 0.0, 0.0, 0.0431, -195.95, -195.6)" gradientUnits="userSpaceOnUse" id="gradient31" r="819.2" spreadMethod="pad">
      <stop offset="0.0" stop-color="#b3b3b3"/>
      <stop offset="1.0" stop-color="#505050"/>
    </radialGradient>
    <radialGradient cx="0" cy="0" gradientTransform="matrix(0.051, 0.0, 0.0, 0.051, -154.75, -174.9)" gradientUnits="userSpaceOnUse" id="gradient32" r="819.2" spreadMethod="pad">
      <stop offset="0.0" stop-color="#d9d9d9"/>
      <stop offset="1.0" stop-color="#414141"/>
    </radialGradient>
    <radialGradient cx="0" cy="0" gradientTransform="matrix(0.0354, 0.0, 0.0, 0.0354, -109.05, -186.35)" gradientUnits="userSpaceOnUse" id="gradient33" r="819.2" spreadMethod="pad">
      <stop offset="0.0" stop-color="#dfdfdf"/>
      <stop offset="1.0" stop-color="#434343"/>
    </radialGradient>
    <radialGradient cx="0" cy="0" gradientTransform="matrix(0.0235, 0.0, 0.0, 0.0235, -154.75, -174.9)" gradientUnits="userSpaceOnUse" id="gradient34" r="819.2" spreadMethod="pad">
      <stop offset="0.0" stop-color="#d9d9d9"/>
      <stop offset="1.0" stop-color="#2b2b2b"/>
    </radialGradient>
    <radialGradient cx="0" cy="0" gradientTransform="matrix(0.0393, 0.0, 0.0, 0.0393, -107.5, -170.95)" gradientUnits="userSpaceOnUse" id="gradient35" r="819.2" spreadMethod="pad">
      <stop offset="0.0" stop-color="#787878"/>
      <stop offset="1.0" stop-color="#767676"/>
    </radialGradient>
    <radialGradient cx="0" cy="0" gradientTransform="matrix(0.0224, 0.0, 0.0, 0.0224, -107.5, -168.5)" gradientUnits="userSpaceOnUse" id="gradient36" r="819.2" spreadMethod="pad">
      <stop offset="0.0" stop-color="#121212"/>
      <stop offset="1.0" stop-color="#121212"/>
    </radialGradient>
    <radialGradient cx="0" cy="0" gradientTransform="matrix(0.0246, 0.0, 0.0, 0.0246, -121.3, -166.7)" gradientUnits="userSpaceOnUse" id="gradient37" r="819.2" spreadMethod="pad">
      <stop offset="0.0" stop-color="#121212"/>
      <stop offset="1.0" stop-color="#121212"/>
    </radialGradient>
    <radialGradient cx="0" cy="0" gradientTransform="matrix(0.0246, 0.0, 0.0, 0.0246, -123.35, -167.15)" gradientUnits="userSpaceOnUse" id="gradient38" r="819.2" spreadMethod="pad">
      <stop offset="0.0" stop-color="#121212"/>
      <stop offset="1.0" stop-color="#121212"/>
    </radialGradient>
    <radialGradient cx="0" cy="0" gradientTransform="matrix(0.0077, 0.0, 0.0, 0.0077, -193.35, -161.55)" gradientUnits="userSpaceOnUse" id="gradient39" r="819.2" spreadMethod="pad">
      <stop offset="0.0" stop-color="#e4e4e4"/>
      <stop offset="1.0" stop-color="#4e4e4e"/>
    </radialGradient>
    <radialGradient cx="0" cy="0" gradientTransform="matrix(0.1037, 0.0, 0.0, 0.1037, -388.95, -122.9)" gradientUnits="userSpaceOnUse" id="gradient40" r="819.2" spreadMethod="pad">
      <stop offset="0.0" stop-color="#000000"/>
      <stop offset="1.0" stop-color="#000000"/>
    </radialGradient>
    <radialGradient cx="0" cy="0" gradientTransform="matrix(0.0714, 0.0, 0.0, 0.0714, -377.25, -77.0)" gradientUnits="userSpaceOnUse" id="gradient41" r="819.2" spreadMethod="pad">
      <stop offset="0.0" stop-color="#000000"/>
      <stop offset="1.0" stop-color="#000000"/>
    </radialGradient>
    <radialGradient cx="0" cy="0" gradientTransform="matrix(0.0825, 0.0, 0.0, 0.0825, -326.65, -102.3)" gradientUnits="userSpaceOnUse" id="gradient42" r="819.2" spreadMethod="pad">
      <stop offset="0.0" stop-color="#b3b3b3"/>
      <stop offset="1.0" stop-color="#b1b1b1"/>
    </radialGradient>
    <radialGradient cx="0" cy="0" gradientTransform="matrix(0.0542, 0.0, 0.0, 0.0542, -382.55, -78.95)" gradientUnits="userSpaceOnUse" id="gradient43" r="819.2" spreadMethod="pad">
      <stop offset="0.0" stop-color="#000000"/>
      <stop offset="1.0" stop-color="#000000"/>
    </radialGradient>
    <radialGradient cx="0" cy="0" gradientTransform="matrix(0.0448, 0.0, 0.0, 0.0448, -378.7, -64.45)" gradientUnits="userSpaceOnUse" id="gradient44" r="819.2" spreadMethod="pad">
      <stop offset="0.0" stop-color="#a3a3a3"/>
      <stop offset="1.0" stop-color="#212121"/>
    </radialGradient>
    <radialGradient cx="0" cy="0" gradientTransform="matrix(0.0882, 0.0, 0.0, 0.0882, -321.05, -87.7)" gradientUnits="userSpaceOnUse" id="gradient45" r="819.2" spreadMethod="pad">
      <stop offset="0.0" stop-color="#9c9c9c"/>
      <stop offset="1.0" stop-color="#444444"/>
    </radialGradient>
    <radialGradient cx="0" cy="0" gradientTransform="matrix(0.075, 0.0, 0.0, 0.075, -362.15, -31.45)" gradientUnits="userSpaceOnUse" id="gradient46" r="819.2" spreadMethod="pad">
      <stop offset="0.0" stop-color="#737373"/>
      <stop offset="1.0" stop-color="#212121"/>
    </radialGradient>
    <radialGradient cx="0" cy="0" gradientTransform="matrix(0.0623, 0.0, 0.0, 0.0623, -355.65, -61.35)" gradientUnits="userSpaceOnUse" id="gradient47" r="819.2" spreadMethod="pad">
      <stop offset="0.0" stop-color="#7f7f7f"/>
      <stop offset="1.0" stop-color="#7f7f7f"/>
    </radialGradient>
    <radialGradient cx="0" cy="0" gradientTransform="matrix(0.0854, 0.0, 0.0, 0.0854, -379.6, -31.85)" gradientUnits="userSpaceOnUse" id="gradient48" r="819.2" spreadMethod="pad">
      <stop offset="0.0" stop-color="#535353"/>
      <stop offset="1.0" stop-color="#535353"/>
    </radialGradient>
    <radialGradient cx="0" cy="0" gradientTransform="matrix(0.0401, 0.0, 0.0, 0.0401, -369.25, -33.7)" gradientUnits="userSpaceOnUse" id="gradient49" r="819.2" spreadMethod="pad">
      <stop offset="0.0" stop-color="#a0a0a0"/>
      <stop offset="1.0" stop-color="#434343"/>
    </radialGradient>
    <radialGradient cx="0" cy="0" gradientTransform="matrix(0.0481, 0.0, 0.0, 0.0481, -351.55, -69.65)" gradientUnits="userSpaceOnUse" id="gradient50" r="819.2" spreadMethod="pad">
      <stop offset="0.0" stop-color="#272727"/>
      <stop offset="1.0" stop-color="#000000"/>
    </radialGradient>
    <radialGradient cx="0" cy="0" gradientTransform="matrix(0.134, 0.0, 0.0, 0.134, -339.25, -72.75)" gradientUnits="userSpaceOnUse" id="gradient51" r="819.2" spreadMethod="pad">
      <stop offset="0.0" stop-color="#1f1f1f"/>
      <stop offset="1.0" stop-color="#030303"/>
    </radialGradient>
    <radialGradient cx="0" cy="0" gradientTransform="matrix(0.047, 0.0, 0.0, 0.047, -376.6, -33.15)" gradientUnits="userSpaceOnUse" id="gradient52" r="819.2" spreadMethod="pad">
      <stop offset="0.0" stop-color="#aeaeae"/>
      <stop offset="1.0" stop-color="#aeaeae"/>
    </radialGradient>
    <radialGradient cx="0" cy="0" gradientTransform="matrix(0.0529, 0.0, 0.0, 0.0529, -348.45, -59.3)" gradientUnits="userSpaceOnUse" id="gradient53" r="819.2" spreadMethod="pad">
      <stop offset="0.0" stop-color="#989898"/>
      <stop offset="1.0" stop-color="#979797"/>
    </radialGradient>
    <radialGradient cx="0" cy="0" gradientTransform="matrix(0.035, 0.0, 0.0, 0.035, -354.7, -29.95)" gradientUnits="userSpaceOnUse" id="gradient54" r="819.2" spreadMethod="pad">
      <stop offset="0.0" stop-color="#eeeeee"/>
      <stop offset="1.0" stop-color="#d7d7d7"/>
    </radialGradient>
    <radialGradient cx="0" cy="0" gradientTransform="matrix(0.0876, 0.0, 0.0, 0.0876, -344.25, -55.25)" gradientUnits="userSpaceOnUse" id="gradient55" r="819.2" spreadMethod="pad">
      <stop offset="0.0" stop-color="#aaaaaa"/>
      <stop offset="1.0" stop-color="#aaaaaa"/>
    </radialGradient>
    <radialGradient cx="0" cy="0" gradientTransform="matrix(0.0474, 0.0, 0.0, 0.0474, -374.0, -30.25)" gradientUnits="userSpaceOnUse" id="gradient56" r="819.2" spreadMethod="pad">
      <stop offset="0.0" stop-color="#adadad"/>
      <stop offset="1.0" stop-color="#adadad"/>
    </radialGradient>
    <radialGradient cx="0" cy="0" gradientTransform="matrix(0.0502, 0.0, 0.0, 0.0502, -274.25, -30.8)" gradientUnits="userSpaceOnUse" id="gradient57" r="819.2" spreadMethod="pad">
      <stop offset="0.0" stop-color="#eaeaea"/>
      <stop offset="1.0" stop-color="#616161"/>
    </radialGradient>
    <radialGradient cx="0" cy="0" gradientTransform="matrix(0.0197, 0.0, 0.0, 0.0197, -242.05, -3.45)" gradientUnits="userSpaceOnUse" id="gradient58" r="819.2" spreadMethod="pad">
      <stop offset="0.0" stop-color="#ededed"/>
      <stop offset="1.0" stop-color="#bcbcbc"/>
    </radialGradient>
  </defs>
</svg>
