<?xml version="1.0" encoding="UTF-8" standalone="no"?>
<svg xmlns:xlink="http://www.w3.org/1999/xlink" height="299.15px" width="299.35px" xmlns="http://www.w3.org/2000/svg">
  <g transform="matrix(1.0, 0.0, 0.0, 1.0, 400.0, 300.0)">
    <path d="M-379.9 -300.0 L-329.15 -300.0 -329.5 -294.9 -329.75 -294.75 -346.25 -293.0 -354.15 -292.9 -356.65 -293.15 -357.5 -293.4 -357.75 -293.15 -360.15 -292.9 -375.15 -293.0 -379.9 -300.0" fill="url(#gradient0)" fill-rule="evenodd" stroke="none"/>
    <path d="M-329.15 -300.0 L-305.9 -300.0 -308.65 -292.5 -313.9 -293.5 -319.15 -294.75 -329.5 -294.9 -329.15 -300.0" fill="url(#gradient1)" fill-rule="evenodd" stroke="none"/>
    <path d="M-308.65 -292.5 L-311.4 -285.15 -312.5 -288.75 -312.5 -290.5 -313.25 -291.15 -313.9 -293.5 -308.65 -292.5" fill="url(#gradient2)" fill-rule="evenodd" stroke="none"/>
    <path d="M-311.4 -285.15 L-308.9 -275.0 -308.5 -274.65 -304.25 -131.65 -307.75 -128.65 -325.4 -122.9 -328.4 -200.0 -329.0 -226.0 -329.4 -226.65 -331.15 -274.9 -329.75 -294.75 -329.5 -294.9 -319.15 -294.75 -313.9 -293.5 -313.25 -291.15 -316.9 -291.4 -313.25 -285.25 -312.9 -288.65 -312.5 -288.75 -311.4 -285.15" fill="url(#gradient3)" fill-rule="evenodd" stroke="none"/>
    <path d="M-162.65 -256.15 L-180.15 -255.4 -195.15 -253.9 -194.15 -277.65 -194.5 -278.4 -194.5 -280.75 -197.5 -300.0 -158.9 -300.0 -162.65 -256.15" fill="url(#gradient4)" fill-rule="evenodd" stroke="none"/>
    <path d="M-154.4 -255.5 L-156.75 -256.0 -162.65 -256.15 -158.9 -300.0 -150.5 -300.0 -154.4 -255.5" fill="url(#gradient5)" fill-rule="evenodd" stroke="none"/>
    <path d="M-162.65 -256.15 L-156.75 -256.0 -154.4 -255.5 -152.9 -255.0 -152.0 -242.9 -154.9 -243.4 -164.5 -243.4 -175.65 -242.75 -199.4 -240.4 -199.65 -240.4 -200.15 -240.25 -203.25 -239.9 -203.65 -239.75 -206.65 -239.4 -207.0 -239.25 -207.5 -239.25 -207.9 -239.15 -208.4 -239.15 -208.9 -239.0 -209.5 -239.0 -209.9 -245.5 -210.5 -248.5 -210.25 -249.5 -210.65 -250.0 -210.4 -250.75 -210.65 -251.65 -209.75 -251.75 -205.65 -252.5 -205.15 -252.5 -195.15 -253.9 -180.15 -255.4 -162.65 -256.15 M-215.5 -244.5 Q-216.5 -249.75 -215.65 -250.25 L-212.65 -251.0 -213.65 -245.25 -214.15 -244.75 -215.5 -244.5" fill="url(#gradient6)" fill-rule="evenodd" stroke="none"/>
    <path d="M-329.75 -294.75 L-331.15 -274.9 -329.4 -226.65 -329.0 -226.0 -328.4 -200.0 -325.4 -122.9 -349.5 -120.25 -369.25 -117.5 -369.4 -117.75 -372.9 -159.75 -382.65 -194.4 -390.5 -228.25 -392.15 -257.25 -391.65 -257.5 -379.75 -273.9 -375.15 -293.0 -360.15 -292.9 -357.4 -290.65 -354.15 -292.9 -346.25 -293.0 -329.75 -294.75" fill="url(#gradient7)" fill-rule="evenodd" stroke="none"/>
    <path d="M-312.5 -288.75 L-312.9 -288.65 -313.25 -285.25 -316.9 -291.4 -313.25 -291.15 -312.5 -290.5 -312.5 -288.75 M-354.15 -292.9 L-357.4 -290.65 -360.15 -292.9 -357.75 -293.15 -356.65 -293.15 -354.15 -292.9 M-326.0 -88.15 L-322.5 -96.5 -314.9 -98.0 -313.0 -103.75 -310.4 -91.5 Q-319.5 -85.9 -338.25 -84.9 L-334.9 -90.4 Q-327.25 -87.5 -326.0 -88.15 M-308.75 -92.65 L-307.5 -100.75 -307.15 -94.75 -307.25 -93.5 -308.75 -92.65 M-359.65 -85.9 L-359.5 -86.65 -357.15 -85.5 -359.65 -85.9 M-366.75 -88.0 L-367.5 -88.15 -367.65 -88.65 -367.5 -90.75 -366.75 -88.0" fill="url(#gradient8)" fill-rule="evenodd" stroke="none"/>
    <path d="M-357.75 -293.15 L-357.5 -293.4 -356.65 -293.15 -357.75 -293.15" fill="url(#gradient9)" fill-rule="evenodd" stroke="none"/>
    <path d="M-384.9 -293.9 L-385.65 -300.0 -379.9 -300.0 -375.15 -293.0 -384.9 -293.9" fill="url(#gradient10)" fill-rule="evenodd" stroke="none"/>
    <path d="M-376.4 -122.75 L-380.9 -163.4 -389.4 -193.0 -398.15 -229.25 -398.25 -257.4 -390.0 -277.0 -384.9 -293.9 -375.15 -293.0 -379.75 -273.9 -391.65 -257.5 -392.15 -257.25 -390.5 -228.25 -382.65 -194.4 -372.9 -159.75 -369.4 -117.75 -376.4 -122.75" fill="url(#gradient11)" fill-rule="evenodd" stroke="none"/>
    <path d="M-372.9 -97.9 L-376.4 -122.75 -369.4 -117.75 -369.25 -117.5 -365.4 -86.9 -366.75 -88.0 -367.5 -90.75 -367.65 -88.65 -371.9 -90.9 -372.9 -97.9" fill="url(#gradient12)" fill-rule="evenodd" stroke="none"/>
    <path d="M-306.0 -100.15 L-301.65 -97.5 -301.0 -96.75 -301.15 -92.9 -308.15 -88.65 -319.25 -85.4 -335.25 -83.15 -352.9 -82.75 -367.25 -84.25 -376.9 -87.15 -381.0 -90.75 -378.5 -95.15 -378.15 -95.0 -377.9 -95.65 -376.25 -96.25 -372.9 -97.9 -371.9 -90.9 -367.65 -88.65 -367.5 -88.15 -366.75 -88.0 -365.4 -86.9 -365.15 -86.5 -363.75 -86.25 -359.65 -85.9 -357.15 -85.5 -345.9 -84.15 -338.25 -84.9 Q-319.5 -85.9 -310.4 -91.5 L-309.5 -91.75 -308.75 -92.65 -307.25 -93.5 -307.15 -94.75 -306.25 -95.5 -306.0 -100.15" fill="url(#gradient13)" fill-rule="evenodd" stroke="none"/>
    <path d="M-378.5 -95.15 L-378.15 -99.4 -376.25 -96.25 -377.9 -95.65 -378.15 -95.0 -378.5 -95.15 M-368.75 -70.4 L-368.25 -64.25 -365.5 -55.25 -368.25 -54.15 -375.75 -63.9 -377.15 -69.75 -378.5 -73.5 -378.65 -75.15 -378.5 -75.15 -376.15 -72.75 -375.9 -72.65 -368.75 -70.4" fill="url(#gradient14)" fill-rule="evenodd" stroke="none"/>
    <path d="M-301.0 -96.75 L-300.65 -83.15 Q-300.5 -79.0 -301.5 -78.65 L-307.25 -74.65 -320.25 -70.75 -334.5 -68.65 -351.65 -68.15 -364.4 -69.5 -368.25 -70.4 -368.75 -70.4 -375.9 -72.65 -376.15 -72.75 -378.5 -75.15 -378.65 -75.15 -379.4 -76.0 -379.5 -76.0 -380.15 -76.75 -381.0 -90.75 -376.9 -87.15 -367.25 -84.25 -352.9 -82.75 -335.25 -83.15 -319.25 -85.4 -308.15 -88.65 -301.15 -92.9 -301.0 -96.75" fill="url(#gradient15)" fill-rule="evenodd" stroke="none"/>
    <path d="M-377.9 -46.9 L-378.0 -53.75 -379.5 -76.0 -379.4 -76.0 -378.65 -75.15 -378.5 -73.5 -377.15 -69.75 -375.75 -63.9 -368.25 -54.15 -365.9 -51.0 -360.5 -46.9 -356.5 -43.65 -355.15 -41.9 -353.5 -39.75 -343.4 -25.4 -335.75 -21.25 -332.25 -16.4 Q-336.9 -16.25 -351.65 -26.25 L-356.9 -30.5 -359.0 -32.15 -360.75 -32.5 -362.4 -34.25 -365.65 -35.5 -369.15 -37.9 -374.4 -39.9 Q-378.75 -45.65 -377.9 -46.9" fill="url(#gradient16)" fill-rule="evenodd" stroke="none"/>
    <path d="M-388.9 -36.25 L-377.9 -46.9 Q-378.75 -45.65 -374.4 -39.9 L-369.15 -37.9 -371.15 -35.9 -388.9 -36.25 M-365.5 -55.25 L-363.25 -51.5 -359.9 -47.4 -360.5 -46.9 -365.9 -51.0 -368.25 -54.15 -365.5 -55.25" fill="url(#gradient17)" fill-rule="evenodd" stroke="none"/>
    <path d="M-299.65 -0.9 L-305.4 -1.25 -356.75 -25.9 -361.15 -28.25 -362.25 -29.15 -362.5 -29.25 -363.0 -29.65 -363.25 -29.75 Q-365.15 -34.5 -388.5 -34.15 L-388.9 -36.25 -371.15 -35.9 -362.9 -33.65 -360.25 -30.75 -358.0 -29.15 -351.65 -26.25 Q-336.9 -16.25 -332.25 -16.4 L-332.15 -16.65 -299.65 -0.9" fill="url(#gradient18)" fill-rule="evenodd" stroke="none"/>
    <path d="M-356.75 -25.9 L-355.5 -1.0 -361.75 -0.9 -363.25 -29.75 -363.0 -29.65 -362.5 -29.25 -362.25 -29.15 -361.15 -28.25 -356.75 -25.9" fill="url(#gradient19)" fill-rule="evenodd" stroke="none"/>
    <path d="M-195.15 -253.9 L-205.15 -252.5 -203.65 -277.75 -203.75 -278.5 -203.75 -278.75 -203.75 -279.25 -206.75 -300.0 -197.5 -300.0 -194.5 -280.75 -194.5 -278.4 -194.15 -277.65 -195.15 -253.9" fill="url(#gradient20)" fill-rule="evenodd" stroke="none"/>
    <path d="M-205.15 -252.5 L-205.65 -252.5 -203.75 -278.75 -203.75 -278.5 -203.65 -277.75 -205.15 -252.5 M-159.25 -240.9 L-159.65 -237.0 Q-160.25 -236.15 -166.4 -236.4 L-166.4 -236.0 -174.0 -236.4 -174.4 -236.0 -196.15 -237.15 -197.65 -237.9 -198.4 -239.65 -184.75 -241.4 -168.15 -242.65 -160.4 -242.65 -159.15 -242.25 -159.25 -240.9" fill="url(#gradient21)" fill-rule="evenodd" stroke="none"/>
    <path d="M-209.75 -251.75 L-210.65 -251.65 -210.4 -250.75 -210.65 -250.0 -210.25 -249.5 -210.5 -248.5 -209.9 -245.5 -209.5 -239.0 -208.9 -239.0 -208.4 -239.15 -207.9 -239.15 -207.5 -239.25 -207.0 -239.25 -206.65 -239.4 -203.65 -239.75 -203.25 -239.9 -200.15 -240.25 -199.65 -240.4 -199.4 -240.4 -198.75 -240.4 -198.4 -239.65 -197.65 -237.9 -196.15 -237.15 -173.5 -224.15 -167.15 -219.65 -163.5 -214.25 -163.0 -213.65 -160.5 -209.5 -158.75 -204.9 -154.9 -201.25 -152.9 -196.4 -156.65 -198.9 -158.15 -200.65 -169.0 -209.25 -169.65 -209.25 Q-169.75 -210.9 -175.9 -211.75 L-188.25 -210.5 -206.5 -208.5 Q-206.4 -205.65 -199.65 -207.25 L-199.25 -207.4 -198.4 -207.4 -198.0 -207.5 -197.15 -207.5 -196.65 -207.65 -196.0 -207.65 -195.25 -207.75 -194.75 -207.75 -194.15 -207.9 -193.5 -207.9 -188.75 -208.4 -188.65 -208.4 -187.0 -208.55 -186.15 -208.65 -185.9 -208.65 -184.75 -208.75 -184.4 -208.75 -183.4 -208.9 -182.9 -208.9 -182.0 -209.0 -181.4 -209.0 -180.65 -209.15 -179.25 -209.15 -174.15 -208.9 -177.75 -208.5 -178.15 -208.4 -179.0 -208.4 -179.5 -208.25 -180.15 -208.25 -180.9 -208.15 -181.4 -208.15 -182.25 -208.0 -182.75 -208.0 -183.65 -207.9 -184.0 -207.9 -185.0 -207.75 -185.4 -207.75 -189.15 -207.4 -189.25 -207.4 -190.5 -207.25 -193.15 -207.0 -195.15 -206.9 -195.75 -206.75 -196.4 -206.75 -197.15 -206.65 -197.75 -206.65 -198.4 -206.5 -199.15 -206.5 -199.65 -206.4 -200.5 -206.4 -200.9 -206.25 -201.65 -206.25 -202.15 -206.15 -203.0 -206.15 -203.5 -206.0 -204.25 -206.0 -204.75 -205.9 -205.4 -205.9 -206.15 -205.65 -213.0 -205.0 -213.75 -205.0 -213.9 -205.65 -213.25 -205.9 -208.65 -206.4 -208.15 -208.25 -208.5 -208.25 -213.15 -207.75 -214.0 -207.75 -216.0 -228.15 -215.75 -236.0 -216.5 -244.15 -215.5 -244.5 -214.15 -244.75 -213.65 -245.25 -212.65 -251.0 -211.9 -254.75 -209.75 -251.75" fill="url(#gradient22)" fill-rule="evenodd" stroke="none"/>
    <path d="M-199.4 -240.4 L-175.65 -242.75 -164.5 -243.4 -154.9 -243.4 -152.0 -242.9 -154.15 -241.9 -159.25 -240.9 -159.15 -242.25 -160.4 -242.65 -168.15 -242.65 -184.75 -241.4 -198.4 -239.65 -198.75 -240.4 -199.4 -240.4" fill="url(#gradient23)" fill-rule="evenodd" stroke="none"/>
    <path d="M-159.65 -237.0 L-158.65 -232.65 -159.15 -231.15 -159.5 -227.0 -160.15 -225.25 -160.9 -224.65 -161.5 -225.9 -163.25 -225.75 -166.4 -224.0 -168.15 -226.0 -169.15 -226.0 -173.5 -224.15 -196.15 -237.15 -174.4 -236.0 -174.0 -236.4 -166.4 -236.0 -166.4 -236.4 Q-160.25 -236.15 -159.65 -237.0" fill="url(#gradient24)" fill-rule="evenodd" stroke="none"/>
    <path d="M-158.65 -232.65 L-157.65 -232.15 Q-155.0 -227.65 -157.9 -221.65 L-163.0 -213.65 -163.5 -214.25 -161.65 -218.0 -160.5 -221.75 -160.15 -225.25 -159.5 -227.0 -159.15 -231.15 -158.65 -232.65" fill="url(#gradient25)" fill-rule="evenodd" stroke="none"/>
    <path d="M-163.5 -214.25 L-167.15 -219.65 -173.5 -224.15 -169.15 -226.0 -168.15 -226.0 -166.4 -224.0 -163.25 -225.75 -161.5 -225.9 -160.9 -224.65 -160.15 -225.25 -160.5 -221.75 -161.65 -218.0 -163.5 -214.25 M-189.25 -207.4 L-189.15 -207.4 -185.4 -207.75 -185.0 -207.75 -184.0 -207.9 -183.65 -207.9 -181.65 -206.15 -179.75 -204.4 Q-171.65 -198.65 -179.65 -197.0 L-182.5 -196.5 -187.25 -196.9 -189.15 -197.15 -192.15 -198.25 -190.25 -203.0 -189.9 -207.25 -189.25 -207.4" fill="url(#gradient26)" fill-rule="evenodd" stroke="none"/>
    <path d="M-157.65 -232.15 L-133.25 -206.65 Q-128.65 -203.25 -128.5 -199.65 L-129.5 -195.4 -134.9 -186.9 Q-138.65 -182.4 -139.5 -182.5 L-155.5 -196.65 -152.9 -196.4 -154.9 -201.25 -158.75 -204.9 -160.5 -209.5 -163.0 -213.65 -157.9 -221.65 Q-155.0 -227.65 -157.65 -232.15 M-122.4 -195.25 L-116.25 -189.0 Q-107.9 -179.5 -128.0 -172.5 L-133.25 -177.0 Q-123.25 -184.9 -122.4 -195.25 M-187.25 -196.9 L-182.5 -196.5 -179.65 -197.0 -177.9 -195.4 -184.0 -195.15 -187.25 -196.9" fill="url(#gradient27)" fill-rule="evenodd" stroke="none"/>
    <path d="M-174.15 -208.9 L-179.25 -209.15 -178.5 -209.25 -177.9 -209.4 -176.15 -209.5 -173.0 -209.0 -174.15 -208.9" fill="url(#gradient28)" fill-rule="evenodd" stroke="none"/>
    <path d="M-110.0 -171.9 L-109.4 -171.9 -109.0 -170.9 -109.4 -169.5 -110.15 -169.5 -111.75 -169.9 -113.5 -169.4 -117.9 -168.5 -118.0 -168.5 -122.75 -167.65 -124.75 -168.15 -126.5 -168.75 -169.0 -205.4 -171.0 -207.15 -173.0 -209.0 -176.15 -209.5 -177.9 -209.4 -178.5 -209.25 -179.25 -209.15 -180.65 -209.15 -181.4 -209.0 -182.0 -209.0 -182.9 -208.9 -183.4 -208.9 -184.4 -208.75 -184.75 -208.75 -185.9 -208.65 -186.15 -208.65 -187.0 -208.55 -187.9 -208.5 -188.25 -210.5 -175.9 -211.75 Q-169.75 -210.9 -169.65 -209.25 L-168.9 -208.0 -155.5 -196.65 -139.5 -182.5 Q-133.5 -178.15 -134.0 -176.5 L-133.25 -177.0 -128.0 -172.5 -125.65 -170.25 -124.65 -170.15 -122.15 -169.9 -110.0 -171.9" fill="url(#gradient29)" fill-rule="evenodd" stroke="none"/>
    <path d="M-213.9 -205.65 L-220.0 -205.15 -213.25 -205.9 -213.9 -205.65 M-187.0 -208.55 L-188.65 -208.4 -187.9 -208.5 -187.0 -208.55" fill="url(#gradient30)" fill-rule="evenodd" stroke="none"/>
    <path d="M-220.0 -205.15 L-220.25 -205.15 -221.25 -205.0 -221.75 -205.0 -222.4 -204.9 -223.25 -204.9 -223.65 -204.75 -224.9 -204.75 -225.25 -206.5 -214.0 -207.75 -213.15 -207.75 -208.5 -208.25 -208.15 -208.25 -208.65 -206.4 -213.25 -205.9 -220.0 -205.15 M-188.65 -208.4 L-188.75 -208.4 -193.5 -207.9 -194.15 -207.9 -194.75 -207.75 -195.25 -207.75 -196.0 -207.65 -196.65 -207.65 -197.15 -207.5 -198.0 -207.5 -198.4 -207.4 -199.25 -207.4 -199.65 -207.25 Q-206.4 -205.65 -206.5 -208.5 L-188.25 -210.5 -187.9 -208.5 -188.65 -208.4" fill="url(#gradient31)" fill-rule="evenodd" stroke="none"/>
    <path d="M-210.15 -205.15 L-213.0 -205.0 -206.15 -205.65 -206.25 -205.5 -210.15 -205.15 M-169.65 -209.25 L-169.0 -209.25 -158.15 -200.65 -156.65 -198.9 -152.9 -196.4 -155.5 -196.65 -168.9 -208.0 -169.65 -209.25 M-190.5 -207.25 L-189.25 -207.4 -189.9 -207.25 -190.5 -207.25" fill="url(#gradient32)" fill-rule="evenodd" stroke="none"/>
    <path d="M-208.4 -203.5 L-210.15 -205.15 -206.25 -205.5 -205.15 -203.9 -208.4 -203.5 M-183.65 -207.9 L-182.75 -208.0 -182.25 -208.0 -181.4 -208.15 -180.9 -208.15 -180.15 -208.25 -179.5 -208.25 -179.0 -208.4 -178.15 -208.4 -177.75 -208.5 -174.15 -208.9 -173.0 -209.0 -171.0 -207.15 -181.65 -206.15 -183.65 -207.9" fill="url(#gradient33)" fill-rule="evenodd" stroke="none"/>
    <path d="M-198.9 -194.0 L-202.65 -199.9 -203.9 -202.15 -205.15 -203.9 -206.25 -205.5 -206.15 -205.65 -205.4 -205.9 -204.75 -205.9 -204.25 -206.0 -203.5 -206.0 -203.0 -206.15 -202.15 -206.15 -201.65 -206.25 -200.9 -206.25 -200.5 -206.4 -199.65 -206.4 -199.15 -206.5 -198.4 -206.5 -197.75 -206.65 -197.15 -206.65 -196.4 -206.75 -195.75 -206.75 -195.15 -206.9 -193.15 -207.0 -190.5 -207.25 -189.9 -207.25 -190.25 -203.0 -192.15 -198.25 -193.65 -194.75 -198.9 -194.0" fill="url(#gradient34)" fill-rule="evenodd" stroke="none"/>
    <path d="M-206.4 -201.9 L-208.4 -203.5 -205.15 -203.9 -203.9 -202.15 -206.4 -201.9 M-179.75 -204.4 L-181.65 -206.15 -171.0 -207.15 -169.0 -205.4 -179.75 -204.4" fill="url(#gradient35)" fill-rule="evenodd" stroke="none"/>
    <path d="M-144.75 -168.15 L-193.65 -194.75 -192.15 -198.25 -189.15 -197.15 -187.25 -196.9 -184.0 -195.15 -177.9 -195.4 -179.65 -197.0 Q-171.65 -198.65 -179.75 -204.4 L-169.0 -205.4 -126.5 -168.75 -144.75 -168.15 M-202.65 -199.9 L-206.4 -201.9 -203.9 -202.15 -202.65 -199.9 M-137.5 -174.9 Q-137.15 -177.75 -141.25 -177.75 L-140.65 -176.75 -137.65 -174.25 Q-137.15 -174.4 -137.0 -174.9 L-137.5 -174.9 M-156.4 -176.65 L-155.25 -177.5 -157.15 -177.5 -156.4 -176.65 M-145.15 -174.0 L-142.5 -173.9 -141.4 -174.0 -142.25 -174.25 -145.15 -174.0 M-154.25 -174.0 L-153.5 -173.9 -151.65 -174.75 -155.0 -175.25 -156.0 -176.15 -155.65 -175.25 -154.25 -174.0" fill="url(#gradient36)" fill-rule="evenodd" stroke="none"/>
    <path d="M-133.25 -206.65 Q-122.5 -206.15 -122.4 -195.25 -123.25 -184.9 -133.25 -177.0 L-134.0 -176.5 Q-133.5 -178.15 -139.5 -182.5 -138.65 -182.4 -134.9 -186.9 L-129.5 -195.4 -128.5 -199.65 Q-128.65 -203.25 -133.25 -206.65 M-137.65 -174.25 L-140.65 -176.75 -141.25 -177.75 Q-137.15 -177.75 -137.5 -174.9 L-137.65 -174.25 M-156.4 -176.65 L-157.15 -177.5 -155.25 -177.5 -156.4 -176.65 M-155.0 -175.25 L-154.25 -174.0 -155.65 -175.25 -156.0 -176.15 -155.0 -175.25" fill="url(#gradient37)" fill-rule="evenodd" stroke="none"/>
    <path d="M-193.65 -194.75 L-190.5 -162.0 -193.65 -161.9 -196.0 -162.4 -198.9 -194.0 -193.65 -194.75" fill="url(#gradient38)" fill-rule="evenodd" stroke="none"/>
    <path d="M-190.5 -162.0 L-189.9 -161.65 -190.0 -161.4 -196.9 -160.75 -197.25 -161.0 -196.0 -162.4 -193.65 -161.9 -190.5 -162.0" fill="url(#gradient39)" fill-rule="evenodd" stroke="none"/>
    <path d="M-142.75 -167.5 L-144.75 -168.15 -126.5 -168.75 -124.75 -168.15 -142.75 -167.5" fill="url(#gradient40)" fill-rule="evenodd" stroke="none"/>
    <path d="M-116.25 -189.0 Q-110.25 -189.0 -107.25 -183.25 -106.15 -176.5 -112.5 -171.75 L-116.65 -170.9 -124.65 -170.15 -125.65 -170.25 -128.0 -172.5 Q-107.9 -179.5 -116.25 -189.0 M-118.0 -168.5 Q-125.75 -165.4 -131.0 -167.4 L-122.75 -167.65 -118.0 -168.5" fill="url(#gradient41)" fill-rule="evenodd" stroke="none"/>
    <path d="M-137.65 -174.25 L-137.5 -174.9 -137.0 -174.9 Q-137.15 -174.4 -137.65 -174.25 M-145.15 -174.0 L-142.25 -174.25 -141.4 -174.0 -142.5 -173.9 -145.15 -174.0 M-155.0 -175.25 L-151.65 -174.75 -153.5 -173.9 -154.25 -174.0 -155.0 -175.25" fill="url(#gradient42)" fill-rule="evenodd" stroke="none"/>
    <path d="M-112.5 -171.75 L-110.0 -171.9 -122.15 -169.9 -124.65 -170.15 -116.65 -170.9 -112.5 -171.75" fill="url(#gradient43)" fill-rule="evenodd" stroke="none"/>
    <path d="M-110.15 -169.5 L-113.5 -169.4 -111.75 -169.9 -110.15 -169.5" fill="url(#gradient44)" fill-rule="evenodd" stroke="none"/>
    <path d="M-131.0 -167.4 L-141.65 -167.15 -142.75 -167.5 -124.75 -168.15 -122.75 -167.65 -131.0 -167.4" fill="url(#gradient45)" fill-rule="evenodd" stroke="none"/>
    <path d="M-304.25 -131.65 L-306.0 -100.15 -306.25 -95.5 -307.15 -94.75 -307.5 -100.75 -308.75 -92.65 -309.5 -91.75 -310.4 -91.5 -313.0 -103.75 -314.9 -98.0 -322.5 -96.5 -326.0 -88.15 -325.4 -122.9 -307.75 -128.65 -304.25 -131.65" fill="url(#gradient46)" fill-rule="evenodd" stroke="none"/>
    <path d="M-369.25 -117.5 L-349.5 -120.25 -325.4 -122.9 -326.0 -88.15 Q-327.25 -87.5 -334.9 -90.4 L-338.25 -84.9 -345.9 -84.15 -357.15 -85.5 -359.5 -86.65 -359.65 -85.9 -363.75 -86.25 -365.15 -86.5 -365.4 -86.9 -369.25 -117.5" fill="url(#gradient47)" fill-rule="evenodd" stroke="none"/>
    <path d="M-301.5 -78.65 L-300.9 -75.75 -301.4 -67.25 -302.15 -63.65 -302.75 -63.5 -307.0 -59.9 -317.4 -55.9 -320.65 -56.15 -331.4 -54.75 -337.9 -58.4 -338.25 -58.25 -351.0 -41.0 -354.4 -42.9 -359.4 -46.65 -359.9 -47.4 -363.25 -51.5 -365.5 -55.25 -368.25 -64.25 -368.75 -70.4 -368.25 -70.4 -364.4 -69.5 -351.65 -68.15 -334.5 -68.65 -320.25 -70.75 -307.25 -74.65 -301.5 -78.65" fill="url(#gradient48)" fill-rule="evenodd" stroke="none"/>
    <path d="M-359.9 -47.4 L-359.4 -46.65 -354.4 -42.9 -355.15 -41.9 -356.5 -43.65 -360.5 -46.9 -359.9 -47.4 M-369.15 -37.9 L-365.65 -35.5 -362.4 -34.25 -362.9 -33.65 -371.15 -35.9 -369.15 -37.9" fill="url(#gradient49)" fill-rule="evenodd" stroke="none"/>
    <path d="M-354.4 -42.9 L-351.0 -41.0 -352.5 -39.4 -353.5 -39.75 -355.15 -41.9 -354.4 -42.9 M-362.4 -34.25 L-360.75 -32.5 -359.0 -32.15 -360.25 -30.75 -362.9 -33.65 -362.4 -34.25" fill="url(#gradient50)" fill-rule="evenodd" stroke="none"/>
    <path d="M-301.4 -67.25 L-268.4 -38.15 Q-266.75 -37.5 -268.9 -33.9 L-274.15 -24.25 -285.0 -7.4 Q-288.15 -3.25 -289.25 -3.5 L-289.5 -3.5 -348.5 -36.15 -352.4 -38.4 -352.15 -39.0 -351.0 -41.0 -338.25 -58.25 -337.9 -58.4 -331.4 -54.75 -320.65 -56.15 -317.4 -55.9 -307.0 -59.9 -302.75 -63.5 -302.15 -63.65 -301.4 -67.25 M-259.4 -30.25 L-240.4 -13.4 -240.0 -12.75 -240.75 -11.75 -240.65 -10.65 Q-242.5 -9.4 -242.5 -6.25 L-244.9 -3.0 -245.25 -0.9 -277.4 -0.9 -276.4 -2.25 -275.5 -4.65 Q-273.4 -6.25 -271.4 -10.4 L-269.15 -12.5 -266.5 -16.65 -266.65 -17.0 -261.4 -25.9 -259.4 -30.25" fill="url(#gradient51)" fill-rule="evenodd" stroke="none"/>
    <path d="M-268.4 -38.15 L-266.65 -39.75 -259.9 -38.5 -259.0 -33.4 -258.9 -32.25 -259.4 -30.25 -261.4 -25.9 -266.65 -17.0 -266.5 -16.65 -269.15 -12.5 -271.4 -10.4 Q-273.4 -6.25 -275.5 -4.65 L-276.4 -2.25 -277.4 -0.9 -290.9 -0.9 -289.5 -3.5 -289.25 -3.5 Q-288.15 -3.25 -285.0 -7.4 L-274.15 -24.25 -268.9 -33.9 Q-266.75 -37.5 -268.4 -38.15" fill="url(#gradient52)" fill-rule="evenodd" stroke="none"/>
    <path d="M-240.4 -13.4 Q-225.0 -9.65 -224.25 -1.0 L-245.25 -0.9 -244.9 -3.0 -242.5 -6.25 Q-242.5 -9.4 -240.65 -10.65 L-240.75 -11.75 -240.0 -12.75 -240.4 -13.4" fill="url(#gradient53)" fill-rule="evenodd" stroke="none"/>
    <path d="M-352.15 -39.0 L-352.4 -38.4 -348.5 -36.15 Q-342.5 -29.75 -334.0 -26.65 L-332.15 -16.65 -332.25 -16.4 -335.75 -21.25 -343.4 -25.4 -353.5 -39.75 -352.5 -39.4 -352.15 -39.0" fill="url(#gradient54)" fill-rule="evenodd" stroke="none"/>
    <path d="M-351.0 -41.0 L-352.15 -39.0 -352.5 -39.4 -351.0 -41.0 M-359.0 -32.15 L-356.9 -30.5 -358.0 -29.15 -360.25 -30.75 -359.0 -32.15" fill="url(#gradient55)" fill-rule="evenodd" stroke="none"/>
    <path d="M-290.9 -0.9 L-299.65 -0.9 -332.15 -16.65 -334.0 -26.65 Q-342.5 -29.75 -348.5 -36.15 L-289.5 -3.5 -290.9 -0.9 M-356.9 -30.5 L-351.65 -26.25 -358.0 -29.15 -356.9 -30.5" fill="url(#gradient56)" fill-rule="evenodd" stroke="none"/>
    <path d="M-387.5 -300.0 L-385.65 -300.0 -384.9 -293.9 -384.9 -293.65 -387.4 -286.25 -387.5 -300.0 M-388.15 -188.15 L-385.5 -179.0 -389.4 -177.65 -388.15 -188.15" fill="#af0000" fill-opacity="0.9098039" fill-rule="evenodd" stroke="none"/>
    <path d="M-387.4 -286.25 L-387.65 -284.75 -390.0 -277.0 -390.25 -276.5 -398.25 -257.25 -398.15 -229.4 -388.25 -189.15 -388.15 -188.65 -388.15 -188.15 -389.4 -177.65 -389.65 -177.4 -400.0 -173.4 -400.0 -299.75 -387.5 -300.0 -387.4 -286.25" fill="#af0000" fill-rule="evenodd" stroke="none"/>
    <path d="M-389.65 -177.4 L-389.5 -176.65 -390.65 -167.9 -394.9 -172.65 -399.65 -171.65 -400.0 -171.65 -400.0 -173.4 -389.65 -177.4" fill="#b00000" fill-opacity="0.9098039" fill-rule="evenodd" stroke="none"/>
    <path d="M-387.65 -284.75 L-387.5 -263.65 -387.65 -263.0 -387.5 -250.75 -387.25 -250.15 -387.25 -226.25 -387.15 -226.0 -387.25 -224.5 -387.0 -223.9 -387.15 -214.75 -386.9 -212.4 -387.0 -204.65 -386.75 -203.5 -387.9 -191.5 -387.75 -190.75 -388.25 -189.15 -398.15 -229.4 -398.25 -257.25 -390.25 -276.5 -390.0 -277.0 -387.65 -284.75" fill="#a00000" fill-opacity="0.9098039" fill-rule="evenodd" stroke="none"/>
    <path d="M-305.15 -160.5 L-305.75 -160.4 -340.75 -151.75 -340.9 -152.15 -337.4 -162.15 -337.4 -162.5 -327.9 -188.9 -327.75 -190.15 -324.9 -197.75 -326.65 -222.9 -326.75 -223.4 -330.0 -272.25 -330.4 -273.75 -330.4 -274.75 -330.75 -277.15 -330.75 -280.65 -332.65 -300.0 -305.9 -300.0 -308.4 -293.65 -308.65 -292.5 -311.4 -285.15 -309.0 -275.65 -308.65 -274.65 -308.5 -273.0 -308.15 -260.0 -307.4 -232.75 -307.25 -232.25 -305.9 -181.75 -305.75 -181.15 -305.15 -160.5" fill="#a50000" fill-opacity="0.9098039" fill-rule="evenodd" stroke="none"/>
    <path d="M-266.15 -265.65 L-264.0 -215.75 -265.15 -168.0 -265.25 -167.15 -265.9 -167.4 -275.65 -175.75 -275.9 -176.15 -282.0 -200.75 -295.75 -261.65 -266.15 -265.65 M-274.4 -170.0 L-273.9 -168.15 -305.15 -160.5 -305.75 -181.15 -305.9 -181.75 -307.25 -232.25 -307.4 -232.75 -308.15 -260.0 -296.15 -261.65 -288.5 -207.5 -279.25 -179.0 -278.9 -178.75 -278.0 -178.15 -277.65 -177.5 -274.4 -170.0 M-305.9 -300.0 L-304.0 -300.0 -305.25 -275.5 -308.5 -273.0 -308.65 -274.65 -309.0 -275.65 -311.4 -285.15 -308.65 -292.5 -308.4 -293.65 -305.9 -300.0" fill="#b60000" fill-opacity="0.9098039" fill-rule="evenodd" stroke="none"/>
    <path d="M-267.0 -300.0 L-266.15 -265.65 -295.75 -261.65 -296.15 -261.65 -308.15 -260.0 -308.5 -273.0 -305.25 -275.5 -304.0 -300.0 -267.0 -300.0" fill="#bb0000" fill-rule="evenodd" stroke="none"/>
    <path d="M-109.65 -300.0 L-109.15 -251.4 -106.25 -234.25 -106.25 -233.9 -106.15 -233.5 -105.9 -231.75 -105.75 -231.15 -105.75 -230.65 -105.65 -230.4 -105.5 -228.75 -105.4 -228.5 -105.4 -228.0 -105.25 -227.5 -105.25 -226.5 -105.15 -226.4 -105.15 -225.75 -105.0 -225.4 -105.0 -224.9 -156.5 -241.4 -154.65 -241.9 -154.5 -241.9 -153.9 -242.0 -152.15 -242.9 -152.5 -248.9 -152.65 -249.15 -153.0 -255.0 -154.4 -255.5 -153.65 -265.4 -153.65 -266.0 -152.0 -284.0 -152.15 -284.15 -152.0 -284.75 -150.5 -300.0 -109.65 -300.0 M-267.0 -300.0 L-206.75 -300.0 -204.15 -282.65 -204.15 -282.5 -204.0 -281.75 -204.0 -281.15 -203.9 -280.9 -203.75 -279.25 -203.75 -278.75 -205.4 -255.25 -250.75 -267.65 -266.15 -265.65 -267.0 -300.0" fill="#f10000" fill-opacity="0.9098039" fill-rule="evenodd" stroke="none"/>
    <path d="M-108.75 -300.0 L-108.75 -265.15 -105.65 -231.65 -105.65 -231.4 -105.5 -230.9 -105.4 -229.25 -105.25 -228.75 -105.25 -228.5 -103.75 -220.0 -103.4 -220.9 -102.9 -216.15 -102.9 -214.15 -102.75 -213.75 -102.4 -210.75 -102.25 -210.25 -102.25 -209.75 -102.15 -209.15 -102.15 -209.0 -101.25 -198.25 -101.0 -193.4 -101.15 -192.25 -103.9 -213.75 -103.9 -215.25 -105.0 -224.9 -105.0 -225.4 -105.15 -225.75 -105.15 -226.4 -105.25 -226.5 -105.25 -227.5 -105.4 -228.0 -105.4 -228.5 -105.5 -228.75 -105.65 -230.4 -105.75 -230.65 -105.75 -231.15 -105.9 -231.75 -106.15 -233.5 -106.25 -233.9 -106.25 -234.25 -109.15 -251.4 -109.65 -300.0 -108.75 -300.0" fill="#ab0000" fill-rule="evenodd" stroke="none"/>
    <path d="M-103.4 -220.9 L-103.75 -220.0 -105.25 -228.5 -105.25 -228.75 -105.4 -229.25 -105.5 -230.9 -105.65 -231.4 -105.65 -231.65 -108.75 -265.15 -108.75 -300.0 -105.4 -300.0 -104.4 -275.4 -103.4 -220.9 M-103.9 -213.75 L-101.15 -192.25 -101.0 -193.4 -101.0 -190.5 -100.9 -190.15 -100.75 -189.0 -100.65 -185.9 -105.9 -182.4 -106.15 -183.5 -103.9 -213.75 M-101.25 -198.25 L-102.15 -209.0 -101.5 -206.5 -101.25 -198.25 M-102.15 -209.15 L-102.25 -209.75 -102.15 -209.75 -102.15 -209.15" fill="#ab0000" fill-opacity="0.9098039" fill-rule="evenodd" stroke="none"/>
    <path d="M-275.65 -175.75 L-274.4 -170.0 -277.65 -177.5 -278.0 -178.15 -278.25 -178.75 -278.9 -178.75 -279.25 -179.0 -288.5 -207.5 -296.15 -261.65 -295.75 -261.65 -282.0 -200.75 -275.9 -176.15 -275.65 -175.75" fill="#b50000" fill-rule="evenodd" stroke="none"/>
    <path d="M-278.9 -178.75 L-278.25 -178.75 -278.0 -178.15 -278.9 -178.75" fill="#b60000" fill-rule="evenodd" stroke="none"/>
  </g>
  <defs>
    <radialGradient cx="0" cy="0" gradientTransform="matrix(0.0394, 0.0, 0.0, 0.0394, -348.35, -292.95)" gradientUnits="userSpaceOnUse" id="gradient0" r="819.2" spreadMethod="pad">
      <stop offset="0.0" stop-color="#010101"/>
      <stop offset="1.0" stop-color="#000000"/>
    </radialGradient>
    <radialGradient cx="0" cy="0" gradientTransform="matrix(0.0283, 0.0, 0.0, 0.0283, -329.15, -300.0)" gradientUnits="userSpaceOnUse" id="gradient1" r="819.2" spreadMethod="pad">
      <stop offset="0.0" stop-color="#000000"/>
      <stop offset="1.0" stop-color="#000000"/>
    </radialGradient>
    <radialGradient cx="0" cy="0" gradientTransform="matrix(0.0245, 0.0, 0.0, 0.0245, -308.75, -292.5)" gradientUnits="userSpaceOnUse" id="gradient2" r="819.2" spreadMethod="pad">
      <stop offset="0.0" stop-color="#000000"/>
      <stop offset="1.0" stop-color="#000000"/>
    </radialGradient>
    <radialGradient cx="0" cy="0" gradientTransform="matrix(0.1262, 0.0, 0.0, 0.1262, -329.25, -226.35)" gradientUnits="userSpaceOnUse" id="gradient3" r="819.2" spreadMethod="pad">
      <stop offset="0.0" stop-color="#111111"/>
      <stop offset="1.0" stop-color="#000000"/>
    </radialGradient>
    <radialGradient cx="0" cy="0" gradientTransform="matrix(0.0803, 0.0, 0.0, 0.0803, -159.0, -300.0)" gradientUnits="userSpaceOnUse" id="gradient4" r="819.2" spreadMethod="pad">
      <stop offset="0.0" stop-color="#212121"/>
      <stop offset="1.0" stop-color="#040404"/>
    </radialGradient>
    <radialGradient cx="0" cy="0" gradientTransform="matrix(0.0648, 0.0, 0.0, 0.0648, -159.0, -300.0)" gradientUnits="userSpaceOnUse" id="gradient5" r="819.2" spreadMethod="pad">
      <stop offset="0.0" stop-color="#212121"/>
      <stop offset="1.0" stop-color="#000000"/>
    </radialGradient>
    <radialGradient cx="0" cy="0" gradientTransform="matrix(0.0655, 0.0, 0.0, 0.0655, -163.95, -256.2)" gradientUnits="userSpaceOnUse" id="gradient6" r="819.2" spreadMethod="pad">
      <stop offset="0.0" stop-color="#939393"/>
      <stop offset="1.0" stop-color="#3b3b3b"/>
    </radialGradient>
    <radialGradient cx="0" cy="0" gradientTransform="matrix(0.1723, 0.0, 0.0, 0.1723, -352.35, -257.75)" gradientUnits="userSpaceOnUse" id="gradient7" r="819.2" spreadMethod="pad">
      <stop offset="0.0" stop-color="#494949"/>
      <stop offset="1.0" stop-color="#000000"/>
    </radialGradient>
    <radialGradient cx="0" cy="0" gradientTransform="matrix(0.2749, 0.0, 0.0, 0.2749, -343.15, -293.0)" gradientUnits="userSpaceOnUse" id="gradient8" r="819.2" spreadMethod="pad">
      <stop offset="0.0" stop-color="#181818"/>
      <stop offset="1.0" stop-color="#000000"/>
    </radialGradient>
    <radialGradient cx="0" cy="0" gradientTransform="matrix(0.0284, 0.0, 0.0, 0.0284, -345.0, -293.8)" gradientUnits="userSpaceOnUse" id="gradient9" r="819.2" spreadMethod="pad">
      <stop offset="0.0" stop-color="#181818"/>
      <stop offset="1.0" stop-color="#040404"/>
    </radialGradient>
    <radialGradient cx="0" cy="0" gradientTransform="matrix(0.0154, 0.0, 0.0, 0.0154, -385.6, -300.0)" gradientUnits="userSpaceOnUse" id="gradient10" r="819.2" spreadMethod="pad">
      <stop offset="0.0" stop-color="#000000"/>
      <stop offset="1.0" stop-color="#000000"/>
    </radialGradient>
    <radialGradient cx="0" cy="0" gradientTransform="matrix(0.1964, 0.0, 0.0, 0.1964, -390.05, -277.1)" gradientUnits="userSpaceOnUse" id="gradient11" r="819.2" spreadMethod="pad">
      <stop offset="0.0" stop-color="#000000"/>
      <stop offset="1.0" stop-color="#000000"/>
    </radialGradient>
    <radialGradient cx="0" cy="0" gradientTransform="matrix(0.0541, 0.0, 0.0, 0.0541, -370.2, -79.15)" gradientUnits="userSpaceOnUse" id="gradient12" r="819.2" spreadMethod="pad">
      <stop offset="0.0" stop-color="#000000"/>
      <stop offset="1.0" stop-color="#000000"/>
    </radialGradient>
    <radialGradient cx="0" cy="0" gradientTransform="matrix(0.0916, 0.0, 0.0, 0.0916, -306.45, -100.5)" gradientUnits="userSpaceOnUse" id="gradient13" r="819.2" spreadMethod="pad">
      <stop offset="0.0" stop-color="#b3b3b3"/>
      <stop offset="1.0" stop-color="#b1b1b1"/>
    </radialGradient>
    <radialGradient cx="0" cy="0" gradientTransform="matrix(0.0343, 0.0, 0.0, 0.0343, -368.9, -72.95)" gradientUnits="userSpaceOnUse" id="gradient14" r="819.2" spreadMethod="pad">
      <stop offset="0.0" stop-color="#a3a3a3"/>
      <stop offset="1.0" stop-color="#212121"/>
    </radialGradient>
    <radialGradient cx="0" cy="0" gradientTransform="matrix(0.0896, 0.0, 0.0, 0.0896, -307.75, -88.9)" gradientUnits="userSpaceOnUse" id="gradient15" r="819.2" spreadMethod="pad">
      <stop offset="0.0" stop-color="#9c9c9c"/>
      <stop offset="1.0" stop-color="#444444"/>
    </radialGradient>
    <radialGradient cx="0" cy="0" gradientTransform="matrix(0.0754, 0.0, 0.0, 0.0754, -348.15, -32.3)" gradientUnits="userSpaceOnUse" id="gradient16" r="819.2" spreadMethod="pad">
      <stop offset="0.0" stop-color="#737373"/>
      <stop offset="1.0" stop-color="#212121"/>
    </radialGradient>
    <radialGradient cx="0" cy="0" gradientTransform="matrix(0.0603, 0.0, 0.0, 0.0603, -388.9, -36.35)" gradientUnits="userSpaceOnUse" id="gradient17" r="819.2" spreadMethod="pad">
      <stop offset="0.0" stop-color="#7f7f7f"/>
      <stop offset="1.0" stop-color="#7f7f7f"/>
    </radialGradient>
    <radialGradient cx="0" cy="0" gradientTransform="matrix(0.0894, 0.0, 0.0, 0.0894, -365.9, -32.35)" gradientUnits="userSpaceOnUse" id="gradient18" r="819.2" spreadMethod="pad">
      <stop offset="0.0" stop-color="#535353"/>
      <stop offset="1.0" stop-color="#535353"/>
    </radialGradient>
    <radialGradient cx="0" cy="0" gradientTransform="matrix(0.0405, 0.0, 0.0, 0.0405, -357.95, -34.0)" gradientUnits="userSpaceOnUse" id="gradient19" r="819.2" spreadMethod="pad">
      <stop offset="0.0" stop-color="#a0a0a0"/>
      <stop offset="1.0" stop-color="#434343"/>
    </radialGradient>
    <radialGradient cx="0" cy="0" gradientTransform="matrix(0.066, 0.0, 0.0, 0.066, -205.45, -246.55)" gradientUnits="userSpaceOnUse" id="gradient20" r="819.2" spreadMethod="pad">
      <stop offset="0.0" stop-color="#000000"/>
      <stop offset="1.0" stop-color="#000000"/>
    </radialGradient>
    <radialGradient cx="0" cy="0" gradientTransform="matrix(0.0572, 0.0, 0.0, 0.0572, -181.0, -272.4)" gradientUnits="userSpaceOnUse" id="gradient21" r="819.2" spreadMethod="pad">
      <stop offset="0.0" stop-color="#101010"/>
      <stop offset="1.0" stop-color="#000000"/>
    </radialGradient>
    <radialGradient cx="0" cy="0" gradientTransform="matrix(0.082, 0.0, 0.0, 0.082, -161.2, -210.8)" gradientUnits="userSpaceOnUse" id="gradient22" r="819.2" spreadMethod="pad">
      <stop offset="0.0" stop-color="#bdbdbd"/>
      <stop offset="1.0" stop-color="#2a2a2a"/>
    </radialGradient>
    <radialGradient cx="0" cy="0" gradientTransform="matrix(0.0668, 0.0, 0.0, 0.0668, -159.75, -240.9)" gradientUnits="userSpaceOnUse" id="gradient23" r="819.2" spreadMethod="pad">
      <stop offset="0.0" stop-color="#9f9f9f"/>
      <stop offset="1.0" stop-color="#9c9c9c"/>
    </radialGradient>
    <radialGradient cx="0" cy="0" gradientTransform="matrix(0.0332, 0.0, 0.0, 0.0332, -183.3, -238.3)" gradientUnits="userSpaceOnUse" id="gradient24" r="819.2" spreadMethod="pad">
      <stop offset="0.0" stop-color="#7c7c7c"/>
      <stop offset="1.0" stop-color="#000000"/>
    </radialGradient>
    <radialGradient cx="0" cy="0" gradientTransform="matrix(0.0297, 0.0, 0.0, 0.0297, -175.8, -215.9)" gradientUnits="userSpaceOnUse" id="gradient25" r="819.2" spreadMethod="pad">
      <stop offset="0.0" stop-color="#000000"/>
      <stop offset="1.0" stop-color="#000000"/>
    </radialGradient>
    <radialGradient cx="0" cy="0" gradientTransform="matrix(0.0419, 0.0, 0.0, 0.0419, -176.7, -228.4)" gradientUnits="userSpaceOnUse" id="gradient26" r="819.2" spreadMethod="pad">
      <stop offset="0.0" stop-color="#4d4d4d"/>
      <stop offset="1.0" stop-color="#000000"/>
    </radialGradient>
    <radialGradient cx="0" cy="0" gradientTransform="matrix(0.0792, 0.0, 0.0, 0.0792, -156.25, -227.8)" gradientUnits="userSpaceOnUse" id="gradient27" r="819.2" spreadMethod="pad">
      <stop offset="0.0" stop-color="#0d0d0d"/>
      <stop offset="1.0" stop-color="#000000"/>
    </radialGradient>
    <radialGradient cx="0" cy="0" gradientTransform="matrix(0.0501, 0.0, 0.0, 0.0501, -172.7, -209.05)" gradientUnits="userSpaceOnUse" id="gradient28" r="819.2" spreadMethod="pad">
      <stop offset="0.0" stop-color="#121212"/>
      <stop offset="1.0" stop-color="#121212"/>
    </radialGradient>
    <radialGradient cx="0" cy="0" gradientTransform="matrix(0.0909, 0.0, 0.0, 0.0909, -172.7, -209.05)" gradientUnits="userSpaceOnUse" id="gradient29" r="819.2" spreadMethod="pad">
      <stop offset="0.0" stop-color="#8f8f8f"/>
      <stop offset="1.0" stop-color="#8f8f8f"/>
    </radialGradient>
    <radialGradient cx="0" cy="0" gradientTransform="matrix(0.0596, 0.0, 0.0, 0.0596, -176.2, -209.6)" gradientUnits="userSpaceOnUse" id="gradient30" r="819.2" spreadMethod="pad">
      <stop offset="0.0" stop-color="#737373"/>
      <stop offset="1.0" stop-color="#717171"/>
    </radialGradient>
    <radialGradient cx="0" cy="0" gradientTransform="matrix(0.0458, 0.0, 0.0, 0.0458, -187.8, -208.6)" gradientUnits="userSpaceOnUse" id="gradient31" r="819.2" spreadMethod="pad">
      <stop offset="0.0" stop-color="#121212"/>
      <stop offset="1.0" stop-color="#121212"/>
    </radialGradient>
    <radialGradient cx="0" cy="0" gradientTransform="matrix(0.042, 0.0, 0.0, 0.042, -185.25, -207.75)" gradientUnits="userSpaceOnUse" id="gradient32" r="819.2" spreadMethod="pad">
      <stop offset="0.0" stop-color="#a1a1a1"/>
      <stop offset="1.0" stop-color="#757575"/>
    </radialGradient>
    <radialGradient cx="0" cy="0" gradientTransform="matrix(0.048, 0.0, 0.0, 0.048, -170.9, -207.25)" gradientUnits="userSpaceOnUse" id="gradient33" r="819.2" spreadMethod="pad">
      <stop offset="0.0" stop-color="#121212"/>
      <stop offset="1.0" stop-color="#121212"/>
    </radialGradient>
    <radialGradient cx="0" cy="0" gradientTransform="matrix(0.0208, 0.0, 0.0, 0.0208, -194.8, -193.7)" gradientUnits="userSpaceOnUse" id="gradient34" r="819.2" spreadMethod="pad">
      <stop offset="0.0" stop-color="#676767"/>
      <stop offset="1.0" stop-color="#242424"/>
    </radialGradient>
    <radialGradient cx="0" cy="0" gradientTransform="matrix(0.0483, 0.0, 0.0, 0.0483, -168.95, -205.5)" gradientUnits="userSpaceOnUse" id="gradient35" r="819.2" spreadMethod="pad">
      <stop offset="0.0" stop-color="#121212"/>
      <stop offset="1.0" stop-color="#121212"/>
    </radialGradient>
    <radialGradient cx="0" cy="0" gradientTransform="matrix(0.1059, 0.0, 0.0, 0.1059, -126.4, -168.85)" gradientUnits="userSpaceOnUse" id="gradient36" r="819.2" spreadMethod="pad">
      <stop offset="0.0" stop-color="#121212"/>
      <stop offset="1.0" stop-color="#121212"/>
    </radialGradient>
    <radialGradient cx="0" cy="0" gradientTransform="matrix(0.0506, 0.0, 0.0, 0.0506, -155.7, -175.5)" gradientUnits="userSpaceOnUse" id="gradient37" r="819.2" spreadMethod="pad">
      <stop offset="0.0" stop-color="#d9d9d9"/>
      <stop offset="1.0" stop-color="#414141"/>
    </radialGradient>
    <radialGradient cx="0" cy="0" gradientTransform="matrix(0.0425, 0.0, 0.0, 0.0425, -193.9, -195.85)" gradientUnits="userSpaceOnUse" id="gradient38" r="819.2" spreadMethod="pad">
      <stop offset="0.0" stop-color="#b3b3b3"/>
      <stop offset="1.0" stop-color="#505050"/>
    </radialGradient>
    <radialGradient cx="0" cy="0" gradientTransform="matrix(0.0077, 0.0, 0.0, 0.0077, -191.2, -162.3)" gradientUnits="userSpaceOnUse" id="gradient39" r="819.2" spreadMethod="pad">
      <stop offset="0.0" stop-color="#e4e4e4"/>
      <stop offset="1.0" stop-color="#4e4e4e"/>
    </radialGradient>
    <radialGradient cx="0" cy="0" gradientTransform="matrix(0.0251, 0.0, 0.0, 0.0251, -124.45, -168.15)" gradientUnits="userSpaceOnUse" id="gradient40" r="819.2" spreadMethod="pad">
      <stop offset="0.0" stop-color="#121212"/>
      <stop offset="1.0" stop-color="#121212"/>
    </radialGradient>
    <radialGradient cx="0" cy="0" gradientTransform="matrix(0.0349, 0.0, 0.0, 0.0349, -111.2, -187.05)" gradientUnits="userSpaceOnUse" id="gradient41" r="819.2" spreadMethod="pad">
      <stop offset="0.0" stop-color="#dfdfdf"/>
      <stop offset="1.0" stop-color="#484848"/>
    </radialGradient>
    <radialGradient cx="0" cy="0" gradientTransform="matrix(0.0239, 0.0, 0.0, 0.0239, -155.7, -175.5)" gradientUnits="userSpaceOnUse" id="gradient42" r="819.2" spreadMethod="pad">
      <stop offset="0.0" stop-color="#d9d9d9"/>
      <stop offset="1.0" stop-color="#2b2b2b"/>
    </radialGradient>
    <radialGradient cx="0" cy="0" gradientTransform="matrix(0.0389, 0.0, 0.0, 0.0389, -109.55, -171.95)" gradientUnits="userSpaceOnUse" id="gradient43" r="819.2" spreadMethod="pad">
      <stop offset="0.0" stop-color="#787878"/>
      <stop offset="1.0" stop-color="#767676"/>
    </radialGradient>
    <radialGradient cx="0" cy="0" gradientTransform="matrix(0.0229, 0.0, 0.0, 0.0229, -109.55, -169.55)" gradientUnits="userSpaceOnUse" id="gradient44" r="819.2" spreadMethod="pad">
      <stop offset="0.0" stop-color="#121212"/>
      <stop offset="1.0" stop-color="#121212"/>
    </radialGradient>
    <radialGradient cx="0" cy="0" gradientTransform="matrix(0.0251, 0.0, 0.0, 0.0251, -122.5, -167.75)" gradientUnits="userSpaceOnUse" id="gradient45" r="819.2" spreadMethod="pad">
      <stop offset="0.0" stop-color="#121212"/>
      <stop offset="1.0" stop-color="#121212"/>
    </radialGradient>
    <radialGradient cx="0" cy="0" gradientTransform="matrix(0.0686, 0.0, 0.0, 0.0686, -326.35, -80.15)" gradientUnits="userSpaceOnUse" id="gradient46" r="819.2" spreadMethod="pad">
      <stop offset="0.0" stop-color="#000000"/>
      <stop offset="1.0" stop-color="#000000"/>
    </radialGradient>
    <radialGradient cx="0" cy="0" gradientTransform="matrix(0.0728, 0.0, 0.0, 0.0728, -363.95, -77.45)" gradientUnits="userSpaceOnUse" id="gradient47" r="819.2" spreadMethod="pad">
      <stop offset="0.0" stop-color="#000000"/>
      <stop offset="1.0" stop-color="#000000"/>
    </radialGradient>
    <radialGradient cx="0" cy="0" gradientTransform="matrix(0.0449, 0.0, 0.0, 0.0449, -337.35, -70.6)" gradientUnits="userSpaceOnUse" id="gradient48" r="819.2" spreadMethod="pad">
      <stop offset="0.0" stop-color="#272727"/>
      <stop offset="1.0" stop-color="#000000"/>
    </radialGradient>
    <radialGradient cx="0" cy="0" gradientTransform="matrix(0.0485, 0.0, 0.0, 0.0485, -339.15, -59.6)" gradientUnits="userSpaceOnUse" id="gradient49" r="819.2" spreadMethod="pad">
      <stop offset="0.0" stop-color="#989898"/>
      <stop offset="1.0" stop-color="#979797"/>
    </radialGradient>
    <radialGradient cx="0" cy="0" gradientTransform="matrix(0.0428, 0.0, 0.0, 0.0428, -362.85, -33.7)" gradientUnits="userSpaceOnUse" id="gradient50" r="819.2" spreadMethod="pad">
      <stop offset="0.0" stop-color="#aeaeae"/>
      <stop offset="1.0" stop-color="#aeaeae"/>
    </radialGradient>
    <radialGradient cx="0" cy="0" gradientTransform="matrix(0.1328, 0.0, 0.0, 0.1328, -326.15, -73.75)" gradientUnits="userSpaceOnUse" id="gradient51" r="819.2" spreadMethod="pad">
      <stop offset="0.0" stop-color="#1f1f1f"/>
      <stop offset="1.0" stop-color="#030303"/>
    </radialGradient>
    <radialGradient cx="0" cy="0" gradientTransform="matrix(0.0531, 0.0, 0.0, 0.0531, -261.65, -33.05)" gradientUnits="userSpaceOnUse" id="gradient52" r="819.2" spreadMethod="pad">
      <stop offset="0.0" stop-color="#eaeaea"/>
      <stop offset="1.0" stop-color="#4a4a4a"/>
    </radialGradient>
    <radialGradient cx="0" cy="0" gradientTransform="matrix(0.0232, 0.0, 0.0, 0.0232, -229.9, -6.55)" gradientUnits="userSpaceOnUse" id="gradient53" r="819.2" spreadMethod="pad">
      <stop offset="0.0" stop-color="#ededed"/>
      <stop offset="1.0" stop-color="#b3b3b3"/>
    </radialGradient>
    <radialGradient cx="0" cy="0" gradientTransform="matrix(0.0344, 0.0, 0.0, 0.0344, -341.95, -30.75)" gradientUnits="userSpaceOnUse" id="gradient54" r="819.2" spreadMethod="pad">
      <stop offset="0.0" stop-color="#eeeeee"/>
      <stop offset="1.0" stop-color="#d7d7d7"/>
    </radialGradient>
    <radialGradient cx="0" cy="0" gradientTransform="matrix(0.0432, 0.0, 0.0, 0.0432, -360.25, -30.85)" gradientUnits="userSpaceOnUse" id="gradient55" r="819.2" spreadMethod="pad">
      <stop offset="0.0" stop-color="#adadad"/>
      <stop offset="1.0" stop-color="#adadad"/>
    </radialGradient>
    <radialGradient cx="0" cy="0" gradientTransform="matrix(0.0919, 0.0, 0.0, 0.0919, -334.9, -55.65)" gradientUnits="userSpaceOnUse" id="gradient56" r="819.2" spreadMethod="pad">
      <stop offset="0.0" stop-color="#aaaaaa"/>
      <stop offset="1.0" stop-color="#aaaaaa"/>
    </radialGradient>
  </defs>
</svg>
