<?xml version="1.0" encoding="UTF-8" standalone="no"?>
<svg xmlns:xlink="http://www.w3.org/1999/xlink" height="299.1px" width="291.35px" xmlns="http://www.w3.org/2000/svg">
  <g transform="matrix(1.0, 0.0, 0.0, 1.0, 388.0, 300.0)">
    <path d="M-348.4 -300.0 L-298.4 -300.0 -299.25 -295.25 -316.15 -293.5 -323.15 -293.5 -325.5 -293.75 -326.4 -294.0 -326.75 -293.75 -329.0 -293.5 -344.0 -293.65 -348.4 -300.0" fill="url(#gradient0)" fill-rule="evenodd" stroke="none"/>
    <path d="M-298.4 -300.0 L-282.25 -300.0 -285.0 -292.75 -287.9 -293.75 -291.0 -295.25 -299.25 -295.25 -298.4 -300.0" fill="url(#gradient1)" fill-rule="evenodd" stroke="none"/>
    <path d="M-285.0 -292.75 L-286.5 -289.25 -286.4 -291.5 -287.25 -291.65 -287.9 -293.75 -285.0 -292.75" fill="url(#gradient2)" fill-rule="evenodd" stroke="none"/>
    <path d="M-286.5 -288.25 L-285.75 -286.5 -282.65 -274.4 -279.75 -135.4 -281.25 -132.9 -281.75 -132.65 -296.4 -127.15 -300.5 -275.75 -299.25 -295.25 -291.0 -295.25 -287.9 -293.75 -287.25 -291.65 -289.15 -292.0 -289.15 -291.65 -286.5 -285.9 -286.25 -286.15 -286.5 -288.25" fill="url(#gradient3)" fill-rule="evenodd" stroke="none"/>
    <path d="M-156.0 -256.65 L-172.65 -255.9 -187.4 -254.4 -186.4 -277.25 -189.75 -300.0 -152.4 -300.0 -156.0 -256.65" fill="url(#gradient4)" fill-rule="evenodd" stroke="none"/>
    <path d="M-149.5 -256.15 L-156.0 -256.65 -152.4 -300.0 -145.65 -300.0 -149.5 -256.15" fill="url(#gradient5)" fill-rule="evenodd" stroke="none"/>
    <path d="M-156.0 -256.65 L-149.5 -256.15 -148.15 -255.25 -147.25 -243.75 -149.75 -244.25 -157.9 -244.25 -168.25 -243.65 -190.9 -241.25 -191.25 -241.25 -191.65 -241.15 -195.65 -240.65 -196.0 -240.5 -199.0 -240.15 -199.4 -240.0 -199.9 -240.0 -200.25 -239.9 -201.25 -239.75 -202.65 -251.75 -202.65 -252.15 -201.65 -252.25 -199.25 -252.65 -198.4 -252.75 -187.4 -254.4 -172.65 -255.9 -156.0 -256.65 M-208.9 -244.9 L-209.4 -249.65 Q-209.25 -251.0 -204.65 -251.5 L-206.0 -245.65 -208.9 -244.9" fill="url(#gradient6)" fill-rule="evenodd" stroke="none"/>
    <path d="M-356.4 -294.4 L-357.0 -300.0 -348.4 -300.0 -344.0 -293.65 -356.4 -294.4" fill="url(#gradient7)" fill-rule="evenodd" stroke="none"/>
    <path d="M-349.4 -125.9 L-352.75 -165.65 -361.75 -197.75 -369.4 -230.65 -369.25 -258.5 -361.25 -278.15 -356.4 -294.4 -344.0 -293.65 -348.25 -275.15 -361.25 -258.25 -359.9 -230.0 -352.4 -196.75 -343.0 -163.0 -339.75 -121.15 -349.4 -125.9" fill="url(#gradient8)" fill-rule="evenodd" stroke="none"/>
    <path d="M-346.25 -102.15 L-349.4 -125.9 -339.75 -121.15 -337.0 -90.65 -339.15 -91.9 -339.5 -94.15 -340.15 -95.15 -340.25 -92.4 -345.25 -94.4 -346.25 -102.15" fill="url(#gradient9)" fill-rule="evenodd" stroke="none"/>
    <path d="M-281.75 -103.5 L-277.25 -101.5 -276.15 -97.65 Q-278.9 -93.25 -290.65 -90.5 L-307.5 -87.9 Q-343.65 -85.4 -354.25 -94.15 L-353.9 -97.15 -353.4 -98.25 -353.15 -98.4 -353.15 -98.65 -351.75 -99.4 -347.65 -101.75 -346.25 -102.15 -345.25 -94.4 -340.25 -92.4 -339.15 -91.9 -337.0 -90.65 -331.25 -89.9 -328.4 -89.65 -316.5 -88.65 -309.5 -89.65 Q-292.0 -90.65 -284.65 -96.25 L-283.75 -96.5 -283.5 -97.25 -282.15 -98.25 -282.15 -101.4 -281.75 -103.5" fill="url(#gradient10)" fill-rule="evenodd" stroke="none"/>
    <path d="M-353.15 -98.65 L-353.25 -102.4 -351.75 -99.4 -353.15 -98.65 M-352.15 -79.25 L-352.0 -79.25 -349.25 -77.4 -347.15 -76.4 -342.5 -75.25 Q-343.15 -69.75 -341.75 -66.0 L-339.15 -60.15 -340.9 -59.5 -348.15 -67.75 -350.25 -73.75 -352.0 -77.25 -352.15 -79.25" fill="url(#gradient11)" fill-rule="evenodd" stroke="none"/>
    <path d="M-325.5 -293.75 L-326.75 -293.75 -326.4 -294.0 -325.5 -293.75" fill="url(#gradient12)" fill-rule="evenodd" stroke="none"/>
    <path d="M-286.5 -289.25 L-286.5 -288.25 -286.25 -286.15 -286.5 -285.9 -289.15 -291.65 -289.15 -292.0 -287.25 -291.65 -286.4 -291.5 -286.5 -289.25 M-323.15 -293.5 L-325.9 -291.4 -329.0 -293.5 -326.75 -293.75 -325.5 -293.75 -323.15 -293.5 M-298.0 -93.15 L-294.9 -101.0 -288.25 -102.65 -286.65 -108.0 -286.0 -106.25 -284.65 -96.25 Q-292.0 -90.65 -309.5 -89.65 L-306.25 -95.0 -298.4 -92.4 -298.0 -93.15 M-283.5 -97.25 L-282.65 -104.15 -282.25 -104.4 -282.15 -101.4 -282.15 -98.25 -283.5 -97.25 M-331.25 -89.9 L-331.0 -90.75 -328.4 -89.65 -331.25 -89.9 M-339.15 -91.9 L-340.25 -92.4 -340.15 -95.15 -339.5 -94.15 -339.15 -91.9" fill="url(#gradient13)" fill-rule="evenodd" stroke="none"/>
    <path d="M-299.25 -295.25 L-300.5 -275.75 -296.4 -127.15 -319.65 -124.25 -339.75 -121.15 -343.0 -163.0 -352.4 -196.75 -359.9 -230.0 -361.25 -258.25 -348.25 -275.15 -344.0 -293.65 -329.0 -293.5 -325.9 -291.4 -323.15 -293.5 -316.15 -293.5 -299.25 -295.25" fill="url(#gradient14)" fill-rule="evenodd" stroke="none"/>
    <path d="M-339.75 -121.15 L-319.65 -124.25 -296.4 -127.15 -298.0 -93.15 -298.4 -92.4 -306.25 -95.0 -309.5 -89.65 -316.5 -88.65 -328.4 -89.65 -331.0 -90.75 -331.25 -89.9 -337.0 -90.65 -339.75 -121.15" fill="url(#gradient15)" fill-rule="evenodd" stroke="none"/>
    <path d="M-187.4 -254.4 L-198.4 -252.75 -196.25 -277.4 -197.4 -282.4 -200.15 -300.0 -189.75 -300.0 -186.4 -277.25 -187.4 -254.4" fill="url(#gradient16)" fill-rule="evenodd" stroke="none"/>
    <path d="M-198.4 -252.75 L-199.25 -252.65 -197.4 -282.4 -196.25 -277.4 -198.4 -252.75 M-190.0 -240.65 L-178.4 -242.15 -161.5 -243.5 -155.0 -243.5 -154.15 -243.15 -154.25 -241.9 -154.5 -237.9 Q-155.0 -237.0 -159.9 -237.5 L-159.9 -237.15 -166.9 -237.4 -167.15 -237.0 -167.65 -237.15 -187.15 -237.9 -189.4 -238.9 -190.0 -240.65" fill="url(#gradient17)" fill-rule="evenodd" stroke="none"/>
    <path d="M-201.65 -252.25 L-202.65 -252.15 -202.65 -251.75 -201.25 -239.75 -200.25 -239.9 -199.9 -240.0 -199.4 -240.0 -199.0 -240.15 -196.0 -240.5 -195.65 -240.65 -191.65 -241.15 -191.25 -241.25 -190.9 -241.25 -190.25 -241.25 -190.0 -240.65 -189.4 -238.9 -187.15 -237.9 -170.15 -228.4 -165.9 -225.65 -160.15 -221.65 -156.9 -216.9 -156.4 -216.0 -154.15 -212.4 -151.75 -206.65 -148.75 -203.5 -147.0 -198.75 -150.15 -201.15 -154.65 -205.65 -161.15 -211.0 -161.9 -211.15 Q-162.0 -212.9 -168.15 -213.65 L-178.65 -212.4 -198.25 -210.15 -197.0 -208.4 -190.9 -209.0 -190.5 -209.15 -189.75 -209.15 -189.4 -209.25 -188.65 -209.25 -188.15 -209.4 -187.5 -209.4 -186.9 -209.5 -186.4 -209.5 -185.75 -209.65 -185.25 -209.65 -184.65 -209.75 -184.15 -209.75 -182.0 -210.0 -181.65 -210.0 -180.9 -210.15 -180.5 -210.15 -179.65 -210.25 -179.5 -210.25 -177.15 -210.5 -177.0 -210.5 -174.25 -210.75 -173.4 -210.9 -172.9 -210.9 -172.15 -211.0 -170.9 -211.0 -166.4 -210.75 -169.75 -210.4 -170.15 -210.25 -170.9 -210.25 -171.4 -210.15 -172.0 -210.15 -172.65 -210.0 -173.25 -210.0 -173.75 -209.9 -174.5 -209.9 -175.15 -209.75 -175.65 -209.75 -176.4 -209.65 -176.75 -209.65 -181.5 -209.15 -181.65 -209.15 -182.5 -209.0 -182.9 -209.0 -183.9 -208.9 -184.25 -208.9 -185.15 -208.75 -185.5 -208.75 -186.4 -208.65 -187.0 -208.65 -187.65 -208.5 -188.15 -208.5 -188.65 -208.4 -189.4 -208.4 -190.0 -208.25 -190.65 -208.25 -191.15 -208.15 -192.0 -208.15 -192.4 -208.0 -193.15 -208.0 -193.4 -207.9 -194.25 -207.9 -194.75 -207.75 -195.4 -207.75 -195.9 -207.65 -196.65 -207.65 -197.0 -207.5 -197.65 -207.5 -198.15 -207.4 -198.75 -207.4 -205.75 -206.5 -206.4 -206.5 -206.65 -206.4 -207.0 -206.4 -207.15 -207.0 -206.9 -207.25 -206.65 -207.25 -206.0 -207.4 -200.5 -208.0 -199.9 -209.9 -207.15 -209.15 -209.25 -229.65 -208.5 -234.65 -208.9 -244.9 -206.0 -245.65 -204.65 -251.5 -203.9 -255.15 Q-203.25 -255.25 -201.65 -252.25" fill="url(#gradient18)" fill-rule="evenodd" stroke="none"/>
    <path d="M-190.9 -241.25 L-168.25 -243.65 -157.9 -244.25 -149.75 -244.25 -147.25 -243.75 -150.0 -242.65 -154.25 -241.9 -154.15 -243.15 -155.0 -243.5 -161.5 -243.5 -178.4 -242.15 -190.0 -240.65 -190.25 -241.25 -190.9 -241.25" fill="url(#gradient19)" fill-rule="evenodd" stroke="none"/>
    <path d="M-154.65 -226.65 L-155.15 -226.25 -155.65 -227.25 -157.25 -227.0 -159.75 -225.4 -161.5 -227.4 -162.9 -227.25 -165.9 -225.65 -170.15 -228.4 -187.15 -237.9 -167.65 -237.15 -167.15 -237.0 -166.9 -237.4 -159.9 -237.15 -159.9 -237.5 Q-155.0 -237.0 -154.5 -237.9 L-153.65 -233.65 -154.0 -228.75 -154.65 -226.65" fill="url(#gradient20)" fill-rule="evenodd" stroke="none"/>
    <path d="M-154.65 -226.65 L-154.0 -228.75 -153.65 -233.65 -152.5 -233.25 -150.75 -229.15 -152.0 -222.9 -156.4 -216.0 -156.9 -216.9 -156.0 -218.65 -154.9 -222.65 -154.65 -226.65" fill="url(#gradient21)" fill-rule="evenodd" stroke="none"/>
    <path d="M-152.5 -233.25 L-130.25 -208.25 Q-126.4 -204.9 -126.0 -201.65 L-126.65 -197.9 -131.4 -189.75 -135.65 -185.4 -149.5 -198.9 -147.0 -198.75 -148.75 -203.5 -151.75 -206.65 -154.15 -212.4 -156.4 -216.0 -152.0 -222.9 -150.75 -229.15 -152.5 -233.25 M-119.9 -196.5 L-115.15 -191.25 Q-107.25 -182.4 -125.5 -175.65 L-129.9 -179.75 Q-121.4 -185.9 -119.9 -196.5 M-182.15 -198.9 L-177.0 -198.4 -173.9 -198.9 -172.4 -197.65 -172.65 -197.4 -178.5 -197.15 -182.15 -198.9" fill="url(#gradient22)" fill-rule="evenodd" stroke="none"/>
    <path d="M-165.9 -225.65 L-162.9 -227.25 -161.5 -227.4 -159.75 -225.4 -157.25 -227.0 -155.65 -227.25 -155.15 -226.25 -154.65 -226.65 -154.9 -222.65 -156.0 -218.65 -156.9 -216.9 -160.15 -221.65 -165.9 -225.65 M-182.5 -209.0 L-181.65 -209.15 -181.5 -209.15 -176.75 -209.65 -176.4 -209.65 -176.0 -209.65 -174.4 -208.0 -172.65 -206.25 Q-165.25 -199.75 -173.9 -198.9 L-177.0 -198.4 -182.15 -198.9 -185.0 -199.65 -183.0 -204.9 -182.5 -209.0" fill="url(#gradient23)" fill-rule="evenodd" stroke="none"/>
    <path d="M-109.65 -174.9 L-108.75 -174.9 -108.4 -173.9 -109.0 -172.65 -111.25 -172.9 -113.0 -172.4 -117.4 -171.4 -117.5 -171.4 -120.75 -170.75 -122.25 -171.15 -124.15 -171.9 -161.25 -207.4 -163.15 -209.15 -164.65 -210.9 -165.0 -210.9 -168.0 -211.4 -169.65 -211.25 -170.9 -211.0 -172.15 -211.0 -172.9 -210.9 -173.4 -210.9 -174.25 -210.75 -177.0 -210.5 -177.15 -210.5 -178.25 -210.5 -178.65 -212.4 -168.15 -213.65 Q-162.0 -212.9 -161.9 -211.15 L-161.15 -209.9 -160.65 -209.75 -149.5 -198.9 -135.65 -185.4 Q-130.15 -180.9 -130.65 -179.4 L-129.9 -179.75 -125.5 -175.65 -123.25 -173.25 -122.25 -173.15 -119.75 -173.0 -109.65 -174.9" fill="url(#gradient24)" fill-rule="evenodd" stroke="none"/>
    <path d="M-166.4 -210.75 L-170.9 -211.0 -169.65 -211.25 -168.0 -211.4 -165.0 -210.9 -166.4 -210.75" fill="url(#gradient25)" fill-rule="evenodd" stroke="none"/>
    <path d="M-202.9 -205.0 L-204.65 -206.5 -198.65 -207.15 -197.5 -205.5 -202.9 -205.0 M-175.65 -209.75 L-175.15 -209.75 -174.5 -209.9 -173.75 -209.9 -173.25 -210.0 -172.65 -210.0 -172.0 -210.15 -171.4 -210.15 -170.9 -210.25 -170.15 -210.25 -169.75 -210.4 -166.4 -210.75 -165.0 -210.9 -164.65 -210.9 -163.15 -209.15 -174.4 -208.0 -176.0 -209.65 -175.65 -209.75" fill="url(#gradient26)" fill-rule="evenodd" stroke="none"/>
    <path d="M-201.0 -203.4 L-202.9 -205.0 -197.5 -205.5 -196.5 -203.9 -201.0 -203.4 M-163.15 -209.15 L-161.25 -207.4 -172.65 -206.25 -174.4 -208.0 -163.15 -209.15" fill="url(#gradient27)" fill-rule="evenodd" stroke="none"/>
    <path d="M-204.65 -206.5 L-205.75 -206.5 -198.75 -207.4 -198.65 -207.15 -204.65 -206.5 M-147.0 -198.75 L-149.5 -198.9 -160.65 -209.75 -161.15 -209.9 -161.9 -211.15 -161.15 -211.0 -154.65 -205.65 -150.15 -201.15 -147.0 -198.75 M-176.4 -209.65 L-175.65 -209.75 -176.0 -209.65 -176.4 -209.65" fill="url(#gradient28)" fill-rule="evenodd" stroke="none"/>
    <path d="M-130.25 -208.25 Q-121.0 -208.5 -119.9 -196.5 -121.4 -185.9 -129.9 -179.75 L-130.65 -179.4 Q-130.15 -180.9 -135.65 -185.4 L-131.4 -189.75 -126.65 -197.9 -126.0 -201.65 Q-126.4 -204.9 -130.25 -208.25 M-134.75 -177.5 L-137.65 -180.0 -137.65 -180.5 -136.75 -180.65 -134.4 -179.65 -134.15 -177.75 -134.15 -177.4 -134.5 -177.25 -134.75 -177.5 M-152.15 -177.65 L-151.4 -176.4 Q-152.9 -177.0 -154.0 -179.75 L-152.15 -180.0 -153.4 -179.25 -152.15 -177.65" fill="url(#gradient29)" fill-rule="evenodd" stroke="none"/>
    <path d="M-207.15 -207.0 L-212.4 -206.65 -206.9 -207.25 -207.15 -207.0 M-177.15 -210.5 L-179.5 -210.25 -178.25 -210.5 -177.15 -210.5" fill="url(#gradient30)" fill-rule="evenodd" stroke="none"/>
    <path d="M-212.4 -206.65 L-212.5 -206.65 -214.65 -206.4 -215.15 -206.4 -215.75 -206.25 -216.5 -206.25 -217.0 -206.15 -218.0 -206.15 -218.4 -207.9 -207.15 -209.15 -199.9 -209.9 -200.5 -208.0 -206.0 -207.4 -206.65 -207.25 -206.9 -207.25 -212.4 -206.65 M-179.5 -210.25 L-179.65 -210.25 -180.5 -210.15 -180.9 -210.15 -181.65 -210.0 -182.0 -210.0 -184.15 -209.75 -184.65 -209.75 -185.25 -209.65 -185.75 -209.65 -186.4 -209.5 -186.9 -209.5 -187.5 -209.4 -188.15 -209.4 -188.65 -209.25 -189.4 -209.25 -189.75 -209.15 -190.5 -209.15 -190.9 -209.0 -197.0 -208.4 -198.25 -210.15 -178.65 -212.4 -178.25 -210.5 -179.5 -210.25" fill="url(#gradient31)" fill-rule="evenodd" stroke="none"/>
    <path d="M-191.25 -195.75 L-192.9 -198.65 -193.65 -199.25 -193.75 -200.0 -196.5 -203.9 -197.5 -205.5 -198.65 -207.15 -198.75 -207.4 -198.15 -207.4 -197.65 -207.5 -197.0 -207.5 -196.65 -207.65 -195.9 -207.65 -195.4 -207.75 -194.75 -207.75 -194.25 -207.9 -193.4 -207.9 -193.15 -208.0 -192.4 -208.0 -192.0 -208.15 -191.15 -208.15 -190.65 -208.25 -190.0 -208.25 -189.4 -208.4 -188.65 -208.4 -188.15 -208.5 -187.65 -208.5 -187.0 -208.65 -186.4 -208.65 -185.5 -208.75 -185.15 -208.75 -184.25 -208.9 -183.9 -208.9 -182.9 -209.0 -182.5 -209.0 -183.0 -204.9 -185.0 -199.65 -186.25 -196.9 -190.75 -196.15 -191.25 -195.75" fill="url(#gradient32)" fill-rule="evenodd" stroke="none"/>
    <path d="M-143.25 -170.9 L-186.0 -194.75 -186.25 -196.9 -185.0 -199.65 -182.15 -198.9 -178.5 -197.15 -172.65 -197.4 -172.4 -197.65 -173.9 -198.9 Q-165.25 -199.75 -172.65 -206.25 L-161.25 -207.4 -124.15 -171.9 -143.25 -170.9 M-193.65 -199.25 L-201.0 -203.4 -196.5 -203.9 -193.75 -200.0 -193.65 -199.25 M-134.15 -177.75 L-134.4 -179.65 -136.75 -180.65 -137.65 -180.5 -137.65 -180.0 -134.75 -177.5 -134.9 -177.25 -134.5 -177.25 -134.15 -177.4 -133.75 -177.75 -134.15 -177.75 M-151.4 -176.4 L-149.0 -177.25 -152.15 -177.65 -153.4 -179.25 -152.15 -180.0 -154.0 -179.75 Q-152.9 -177.0 -151.4 -176.4 M-143.15 -176.9 L-140.4 -176.5 -138.5 -176.75 -139.5 -177.0 -143.15 -176.9" fill="url(#gradient33)" fill-rule="evenodd" stroke="none"/>
    <path d="M-141.4 -170.25 L-143.25 -170.9 -124.15 -171.9 -122.25 -171.15 -141.4 -170.25" fill="url(#gradient34)" fill-rule="evenodd" stroke="none"/>
    <path d="M-186.0 -194.75 L-183.0 -164.9 -185.9 -164.75 -188.4 -165.25 -191.25 -195.75 -190.75 -196.15 -186.25 -196.9 -186.0 -194.75" fill="url(#gradient35)" fill-rule="evenodd" stroke="none"/>
    <path d="M-115.15 -191.25 Q-110.0 -191.4 -107.0 -185.75 -105.65 -180.0 -111.9 -174.75 L-115.0 -174.0 -122.25 -173.15 -123.25 -173.25 -125.5 -175.65 Q-107.25 -182.4 -115.15 -191.25 M-117.5 -171.4 Q-124.9 -168.5 -129.9 -170.25 L-120.75 -170.75 -117.5 -171.4" fill="url(#gradient36)" fill-rule="evenodd" stroke="none"/>
    <path d="M-111.9 -174.75 L-109.65 -174.9 -119.75 -173.0 -122.25 -173.15 -115.0 -174.0 -111.9 -174.75" fill="url(#gradient37)" fill-rule="evenodd" stroke="none"/>
    <path d="M-134.15 -177.75 L-133.75 -177.75 -134.15 -177.4 -134.15 -177.75 M-134.5 -177.25 L-134.9 -177.25 -134.75 -177.5 -134.5 -177.25 M-152.15 -177.65 L-149.0 -177.25 -151.4 -176.4 -152.15 -177.65 M-143.15 -176.9 L-139.5 -177.0 -138.5 -176.75 -140.4 -176.5 -143.15 -176.9" fill="url(#gradient38)" fill-rule="evenodd" stroke="none"/>
    <path d="M-109.0 -172.65 L-113.0 -172.4 -111.25 -172.9 -109.0 -172.65" fill="url(#gradient39)" fill-rule="evenodd" stroke="none"/>
    <path d="M-129.9 -170.25 L-138.4 -169.9 -141.4 -170.25 -122.25 -171.15 -120.75 -170.75 -129.9 -170.25" fill="url(#gradient40)" fill-rule="evenodd" stroke="none"/>
    <path d="M-183.0 -164.9 L-182.25 -164.5 -182.4 -164.25 -188.9 -163.65 -189.75 -163.65 -188.4 -165.25 -185.9 -164.75 -183.0 -164.9" fill="url(#gradient41)" fill-rule="evenodd" stroke="none"/>
    <path d="M-279.75 -135.4 L-281.75 -103.5 -282.15 -101.4 -282.25 -104.4 -282.65 -104.15 -283.5 -97.25 -283.75 -96.5 -284.65 -96.25 -286.0 -106.25 -286.65 -108.0 -288.25 -102.65 -294.9 -101.0 -298.0 -93.15 -296.4 -127.15 -281.75 -132.65 -281.25 -132.9 -279.75 -135.4" fill="url(#gradient42)" fill-rule="evenodd" stroke="none"/>
    <path d="M-276.15 -97.65 L-275.9 -84.0 -277.5 -82.65 -280.9 -79.75 -291.9 -76.0 -306.0 -73.65 -320.9 -72.9 -337.0 -73.9 -342.5 -75.25 -347.15 -76.4 -349.25 -77.4 -352.0 -79.25 -352.15 -79.25 -353.15 -80.0 -353.25 -80.0 -353.65 -80.4 -354.25 -94.15 Q-343.65 -85.4 -307.5 -87.9 L-290.65 -90.5 Q-278.9 -93.25 -276.15 -97.65" fill="url(#gradient43)" fill-rule="evenodd" stroke="none"/>
    <path d="M-352.0 -51.25 L-352.0 -57.65 -353.25 -80.0 -353.15 -80.0 -352.15 -79.25 -352.0 -77.25 -350.25 -73.75 -348.15 -67.75 -340.9 -59.5 -338.0 -55.9 -336.4 -55.0 -334.5 -53.25 -327.5 -48.25 -325.9 -46.0 -325.5 -45.5 -324.65 -44.5 -324.15 -44.0 -323.0 -42.25 -321.0 -39.75 -315.15 -31.0 -307.75 -27.15 -304.25 -22.4 -304.0 -21.75 -311.9 -24.75 -319.15 -28.4 -322.9 -31.25 -328.65 -35.65 -330.75 -37.25 -332.65 -37.65 -333.9 -39.0 -337.4 -40.15 -341.15 -42.4 -347.25 -44.25 -351.75 -48.25 -352.0 -51.25" fill="url(#gradient44)" fill-rule="evenodd" stroke="none"/>
    <path d="M-360.5 -40.25 L-352.0 -51.25 -351.75 -48.25 -347.25 -44.25 -341.15 -42.4 -342.5 -40.4 -360.5 -40.25 M-339.15 -60.15 L-337.0 -55.65 -336.4 -55.0 -338.0 -55.9 -340.9 -59.5 -339.15 -60.15" fill="url(#gradient45)" fill-rule="evenodd" stroke="none"/>
    <path d="M-258.15 -0.9 L-263.65 -1.0 -332.65 -33.0 -332.75 -33.25 -333.15 -33.5 -333.4 -33.75 -335.15 -35.0 -335.4 -35.25 -336.5 -36.15 -336.75 -36.4 -337.25 -36.75 -338.15 -37.15 -338.9 -37.25 -339.15 -37.25 -344.75 -38.0 -360.15 -38.15 -360.5 -40.25 -342.5 -40.4 -334.25 -38.4 -331.5 -35.65 -329.4 -34.15 -323.5 -31.25 -322.9 -31.25 -319.15 -28.4 -311.9 -24.75 -304.0 -21.75 -304.25 -22.4 -263.15 -3.4 -261.25 -1.15 -259.75 -1.75 -258.15 -0.9" fill="url(#gradient46)" fill-rule="evenodd" stroke="none"/>
    <path d="M-334.25 -38.4 L-342.5 -40.4 -341.15 -42.4 -337.4 -40.15 -333.9 -39.0 -334.25 -38.4" fill="url(#gradient47)" fill-rule="evenodd" stroke="none"/>
    <path d="M-277.5 -82.65 L-276.75 -76.75 -277.0 -71.5 -277.4 -68.75 Q-278.15 -68.9 -280.9 -65.25 L-283.9 -64.25 -290.0 -61.4 -293.15 -61.5 -303.0 -60.15 -309.5 -63.4 -315.4 -55.0 -315.75 -55.0 -315.9 -54.5 -316.9 -53.0 -317.25 -52.65 -317.25 -52.5 -323.25 -45.5 -324.25 -45.25 -325.25 -45.75 -325.75 -46.0 -325.9 -46.0 -327.5 -48.25 -334.5 -53.25 -336.4 -55.0 -337.0 -55.65 -339.15 -60.15 -341.75 -66.0 Q-343.15 -69.75 -342.5 -75.25 L-337.0 -73.9 -320.9 -72.9 -306.0 -73.65 -291.9 -76.0 -280.9 -79.75 -277.5 -82.65" fill="url(#gradient48)" fill-rule="evenodd" stroke="none"/>
    <path d="M-277.0 -71.5 L-245.65 -45.0 Q-241.9 -42.5 -249.25 -28.65 L-255.4 -18.0 -258.25 -14.15 Q-261.4 -10.5 -262.5 -10.4 L-264.0 -11.0 -323.0 -42.25 -324.15 -44.0 -322.0 -46.15 -317.25 -52.5 -317.25 -52.65 -316.9 -53.0 -315.9 -54.5 -315.4 -55.0 -309.5 -63.4 -303.0 -60.15 -293.15 -61.5 -290.0 -61.4 -283.9 -64.25 -280.9 -65.25 Q-278.15 -68.9 -277.4 -68.75 L-277.0 -71.5 M-235.65 -36.4 L-217.25 -20.9 -217.0 -20.75 Q-218.9 -7.5 -225.75 -0.9 L-244.75 -0.9 -253.15 -5.4 -250.0 -9.15 -248.65 -12.0 -246.5 -14.5 -244.65 -17.9 -242.4 -20.5 -238.9 -27.75 -238.0 -28.9 -235.65 -36.4" fill="url(#gradient49)" fill-rule="evenodd" stroke="none"/>
    <path d="M-315.4 -55.0 L-315.9 -54.5 -315.75 -55.0 -315.4 -55.0 M-317.25 -52.5 L-322.0 -46.15 -324.15 -44.0 -324.65 -44.5 -324.25 -45.25 -323.25 -45.5 -317.25 -52.5" fill="url(#gradient50)" fill-rule="evenodd" stroke="none"/>
    <path d="M-325.25 -45.75 L-324.25 -45.25 -324.65 -44.5 -325.5 -45.5 -325.25 -45.75 M-330.75 -37.25 L-328.65 -35.65 -329.4 -34.15 -331.5 -35.65 -330.75 -37.25" fill="url(#gradient51)" fill-rule="evenodd" stroke="none"/>
    <path d="M-325.9 -46.0 L-325.75 -46.0 -325.25 -45.75 -325.5 -45.5 -325.9 -46.0 M-333.9 -39.0 L-332.65 -37.65 -330.75 -37.25 -331.5 -35.65 -334.25 -38.4 -333.9 -39.0" fill="url(#gradient52)" fill-rule="evenodd" stroke="none"/>
    <path d="M-244.75 -0.9 L-258.15 -0.9 -259.75 -1.75 -254.9 -4.0 -253.15 -5.4 -244.75 -0.9 M-323.0 -42.25 L-264.0 -11.0 -263.9 -10.65 -265.25 -8.0 -265.75 -5.5 -263.15 -3.4 -304.25 -22.4 -307.75 -31.9 Q-316.4 -35.25 -321.0 -39.75 L-323.0 -42.25 M-328.65 -35.65 L-322.9 -31.25 -323.5 -31.25 -329.4 -34.15 -328.65 -35.65" fill="url(#gradient53)" fill-rule="evenodd" stroke="none"/>
    <path d="M-304.25 -22.4 L-307.75 -27.15 -315.15 -31.0 -321.0 -39.75 Q-316.4 -35.25 -307.75 -31.9 L-304.25 -22.4" fill="url(#gradient54)" fill-rule="evenodd" stroke="none"/>
    <path d="M-338.9 -36.75 L-339.15 -37.25 -338.9 -37.25 -338.15 -37.15 -337.25 -36.75 -336.75 -36.4 -338.9 -36.75" fill="url(#gradient55)" fill-rule="evenodd" stroke="none"/>
    <path d="M-332.65 -33.0 L-331.4 -4.15 -331.4 -3.0 -332.0 -2.4 -333.9 -1.75 -336.15 -1.9 -337.0 -2.4 -337.65 -3.15 -337.65 -3.75 -337.65 -11.0 -338.9 -36.75 -336.75 -36.4 -336.5 -36.15 -335.4 -35.25 -335.15 -35.0 -333.4 -33.75 -333.15 -33.5 -332.75 -33.25 -332.65 -33.0" fill="url(#gradient56)" fill-rule="evenodd" stroke="none"/>
    <path d="M-245.65 -45.0 L-243.65 -46.15 -236.65 -44.75 -235.5 -39.15 -235.65 -36.4 -238.0 -28.9 -238.9 -27.75 -242.4 -20.5 -244.65 -17.9 -246.5 -14.5 -248.65 -12.0 -250.0 -9.15 -253.15 -5.4 -254.9 -4.0 -259.75 -1.75 -261.25 -1.15 -263.15 -3.4 -265.75 -5.5 -265.25 -8.0 -263.9 -10.65 -264.0 -11.0 -262.5 -10.4 Q-261.4 -10.5 -258.25 -14.15 L-255.4 -18.0 -249.25 -28.65 Q-241.9 -42.5 -245.65 -45.0" fill="url(#gradient57)" fill-rule="evenodd" stroke="none"/>
    <path d="M-331.4 -4.15 Q-328.65 -2.15 -333.25 -0.9 L-336.75 -0.9 -338.4 -1.25 -338.9 -1.75 -338.9 -2.5 -337.65 -3.75 -337.65 -3.15 -337.0 -2.4 -336.15 -1.9 -333.9 -1.75 -332.0 -2.4 -331.4 -3.0 -331.4 -4.15" fill="url(#gradient58)" fill-rule="evenodd" stroke="none"/>
    <path d="M-217.0 -20.75 Q-211.15 -20.9 -204.4 -15.15 -198.75 -8.75 -201.25 -1.65 L-201.65 -0.9 -225.75 -0.9 Q-218.9 -7.5 -217.0 -20.75" fill="url(#gradient59)" fill-rule="evenodd" stroke="none"/>
    <path d="M-96.9 -220.25 L-96.65 -191.75 -97.75 -200.0 -97.9 -200.0 -98.0 -203.9 -96.9 -220.25 M-357.15 -300.0 L-357.0 -299.25 -357.0 -298.9 -356.65 -294.9 -356.4 -294.4 -356.5 -294.15 -356.65 -293.9 -356.9 -292.9 -357.0 -292.65 -358.75 -286.65 -359.0 -286.4 -359.0 -286.0 -361.4 -277.9 -361.5 -277.4 -369.25 -258.4 -369.4 -230.9 -361.65 -197.5 -361.5 -197.25 -357.65 -182.9 -374.4 -175.5 -380.75 -172.15 -381.15 -172.15 -388.0 -299.75 -357.15 -300.0" fill="#ae0000" fill-rule="evenodd" stroke="none"/>
    <path d="M-357.15 -300.0 L-352.65 -300.0 -352.65 -297.25 -352.9 -296.9 -352.9 -286.4 -352.65 -285.15 -352.65 -269.65 -352.9 -269.0 -352.75 -253.0 -352.65 -252.75 -352.65 -247.4 -352.5 -246.9 -352.25 -221.25 -352.15 -220.75 -351.9 -201.25 -352.5 -197.4 -352.5 -197.15 -352.4 -196.65 -352.25 -196.25 -353.9 -183.4 -353.65 -182.75 -354.9 -173.25 -357.65 -182.9 -361.5 -197.25 -361.65 -197.5 -369.4 -230.9 -369.25 -258.4 -361.5 -277.4 -361.4 -277.9 -359.0 -286.0 -359.0 -286.4 -358.75 -286.65 -357.0 -292.65 -356.9 -292.9 -356.65 -293.9 -356.5 -294.15 -356.4 -294.4 -356.65 -294.9 -357.0 -298.9 -357.0 -299.25 -357.15 -300.0" fill="#9f0000" fill-opacity="0.9098039" fill-rule="evenodd" stroke="none"/>
    <path d="M-357.65 -182.9 L-354.9 -173.25 -354.75 -172.5 -354.75 -172.15 -355.15 -171.0 -363.4 -175.4 -380.75 -172.15 -374.4 -175.5 -357.65 -182.9" fill="#af0000" fill-opacity="0.9098039" fill-rule="evenodd" stroke="none"/>
    <path d="M-280.4 -162.9 L-280.65 -162.9 -305.75 -156.0 -306.25 -156.0 -306.25 -156.4 -299.4 -177.25 -298.9 -178.25 -299.0 -178.65 -297.9 -181.15 -297.75 -182.4 -293.25 -195.25 -293.4 -195.65 -291.5 -200.65 -292.4 -218.4 -292.5 -219.0 -294.4 -259.25 -294.75 -261.0 -296.65 -291.9 -297.0 -292.65 -297.0 -295.25 -297.25 -296.5 -297.15 -296.9 -297.4 -300.0 -282.25 -300.0 -286.5 -289.25 -286.5 -288.25 -282.75 -275.4 -282.4 -262.65 -280.4 -162.9" fill="#a50000" fill-opacity="0.9098039" fill-rule="evenodd" stroke="none"/>
    <path d="M-250.0 -300.0 L-249.65 -267.15 -267.15 -264.75 -267.5 -264.65 -282.4 -262.65 -282.75 -275.4 -286.5 -288.25 -286.5 -289.25 -282.25 -300.0 -250.0 -300.0" fill="#b80000" fill-rule="evenodd" stroke="none"/>
    <path d="M-98.0 -203.9 L-99.0 -210.0 -104.0 -226.5 -154.25 -241.4 -154.25 -241.9 -150.0 -242.75 -147.4 -243.75 -147.15 -243.75 -147.65 -246.4 -147.4 -246.75 -147.9 -249.4 -147.75 -249.75 -148.4 -255.25 -149.5 -256.15 -148.65 -265.5 -148.75 -266.15 -147.15 -283.65 -147.15 -284.5 -145.65 -300.0 -98.75 -300.0 -98.0 -278.9 -96.9 -220.25 -98.0 -203.9 M-250.0 -300.0 L-200.15 -300.0 -199.4 -294.5 -199.0 -292.75 -197.4 -282.4 -199.25 -254.15 -248.5 -267.4 -249.65 -267.15 -250.0 -300.0" fill="#cd0000" fill-opacity="0.9098039" fill-rule="evenodd" stroke="none"/>
    <path d="M-249.65 -267.15 L-248.4 -213.5 -250.0 -187.25 -252.65 -197.65 -267.15 -264.75 -249.65 -267.15 M-246.9 -172.4 L-246.65 -172.0 -250.9 -170.9 -250.9 -169.65 -251.9 -170.65 -280.4 -162.9 -282.4 -262.65 -267.5 -264.65 -264.5 -209.4 -260.0 -181.5 -251.9 -170.65 -250.9 -170.9 -250.5 -176.25 -246.9 -172.4" fill="#b60000" fill-opacity="0.9098039" fill-rule="evenodd" stroke="none"/>
    <path d="M-250.0 -187.25 L-249.9 -185.25 -246.9 -172.4 -250.5 -176.25 -250.65 -176.75 -255.0 -181.75 -260.0 -181.5 -264.5 -209.4 -267.5 -264.65 -267.15 -264.75 -252.65 -197.65 -250.0 -187.25" fill="#b50000" fill-rule="evenodd" stroke="none"/>
    <path d="M-96.65 -191.75 L-96.65 -188.9 -98.4 -186.25 -98.65 -186.4 -97.9 -200.0 -97.75 -200.0 -96.65 -191.75" fill="#ab0000" fill-opacity="0.9098039" fill-rule="evenodd" stroke="none"/>
    <path d="M-260.0 -181.5 L-255.0 -181.75 -250.65 -176.75 -250.5 -176.25 -250.9 -170.9 -251.9 -170.65 -260.0 -181.5" fill="#b60000" fill-rule="evenodd" stroke="none"/>
  </g>
  <defs>
    <radialGradient cx="0" cy="0" gradientTransform="matrix(0.0386, 0.0, 0.0, 0.0386, -317.35, -293.55)" gradientUnits="userSpaceOnUse" id="gradient0" r="819.2" spreadMethod="pad">
      <stop offset="0.0" stop-color="#010101"/>
      <stop offset="1.0" stop-color="#000000"/>
    </radialGradient>
    <radialGradient cx="0" cy="0" gradientTransform="matrix(0.0197, 0.0, 0.0, 0.0197, -298.45, -300.0)" gradientUnits="userSpaceOnUse" id="gradient1" r="819.2" spreadMethod="pad">
      <stop offset="0.0" stop-color="#000000"/>
      <stop offset="1.0" stop-color="#000000"/>
    </radialGradient>
    <radialGradient cx="0" cy="0" gradientTransform="matrix(0.0242, 0.0, 0.0, 0.0242, -285.1, -292.75)" gradientUnits="userSpaceOnUse" id="gradient2" r="819.2" spreadMethod="pad">
      <stop offset="0.0" stop-color="#000000"/>
      <stop offset="1.0" stop-color="#000000"/>
    </radialGradient>
    <radialGradient cx="0" cy="0" gradientTransform="matrix(0.1236, 0.0, 0.0, 0.1236, -299.15, -228.45)" gradientUnits="userSpaceOnUse" id="gradient3" r="819.2" spreadMethod="pad">
      <stop offset="0.0" stop-color="#111111"/>
      <stop offset="1.0" stop-color="#000000"/>
    </radialGradient>
    <radialGradient cx="0" cy="0" gradientTransform="matrix(0.0787, 0.0, 0.0, 0.0787, -152.4, -300.0)" gradientUnits="userSpaceOnUse" id="gradient4" r="819.2" spreadMethod="pad">
      <stop offset="0.0" stop-color="#212121"/>
      <stop offset="1.0" stop-color="#040404"/>
    </radialGradient>
    <radialGradient cx="0" cy="0" gradientTransform="matrix(0.0638, 0.0, 0.0, 0.0638, -152.4, -300.0)" gradientUnits="userSpaceOnUse" id="gradient5" r="819.2" spreadMethod="pad">
      <stop offset="0.0" stop-color="#212121"/>
      <stop offset="1.0" stop-color="#000000"/>
    </radialGradient>
    <radialGradient cx="0" cy="0" gradientTransform="matrix(0.0649, 0.0, 0.0, 0.0649, -157.15, -256.7)" gradientUnits="userSpaceOnUse" id="gradient6" r="819.2" spreadMethod="pad">
      <stop offset="0.0" stop-color="#939393"/>
      <stop offset="1.0" stop-color="#3b3b3b"/>
    </radialGradient>
    <radialGradient cx="0" cy="0" gradientTransform="matrix(0.0177, 0.0, 0.0, 0.0177, -357.0, -300.0)" gradientUnits="userSpaceOnUse" id="gradient7" r="819.2" spreadMethod="pad">
      <stop offset="0.0" stop-color="#000000"/>
      <stop offset="1.0" stop-color="#000000"/>
    </radialGradient>
    <radialGradient cx="0" cy="0" gradientTransform="matrix(0.1931, 0.0, 0.0, 0.1931, -361.35, -277.95)" gradientUnits="userSpaceOnUse" id="gradient8" r="819.2" spreadMethod="pad">
      <stop offset="0.0" stop-color="#000000"/>
      <stop offset="1.0" stop-color="#000000"/>
    </radialGradient>
    <radialGradient cx="0" cy="0" gradientTransform="matrix(0.0533, 0.0, 0.0, 0.0533, -343.7, -82.85)" gradientUnits="userSpaceOnUse" id="gradient9" r="819.2" spreadMethod="pad">
      <stop offset="0.0" stop-color="#000000"/>
      <stop offset="1.0" stop-color="#000000"/>
    </radialGradient>
    <radialGradient cx="0" cy="0" gradientTransform="matrix(0.0867, 0.0, 0.0, 0.0867, -283.95, -104.6)" gradientUnits="userSpaceOnUse" id="gradient10" r="819.2" spreadMethod="pad">
      <stop offset="0.0" stop-color="#b3b3b3"/>
      <stop offset="1.0" stop-color="#b1b1b1"/>
    </radialGradient>
    <radialGradient cx="0" cy="0" gradientTransform="matrix(0.0335, 0.0, 0.0, 0.0335, -345.75, -76.15)" gradientUnits="userSpaceOnUse" id="gradient11" r="819.2" spreadMethod="pad">
      <stop offset="0.0" stop-color="#a3a3a3"/>
      <stop offset="1.0" stop-color="#6c6c6c"/>
    </radialGradient>
    <radialGradient cx="0" cy="0" gradientTransform="matrix(0.0284, 0.0, 0.0, 0.0284, -314.25, -294.35)" gradientUnits="userSpaceOnUse" id="gradient12" r="819.2" spreadMethod="pad">
      <stop offset="0.0" stop-color="#181818"/>
      <stop offset="1.0" stop-color="#040404"/>
    </radialGradient>
    <radialGradient cx="0" cy="0" gradientTransform="matrix(0.2699, 0.0, 0.0, 0.2699, -312.4, -293.55)" gradientUnits="userSpaceOnUse" id="gradient13" r="819.2" spreadMethod="pad">
      <stop offset="0.0" stop-color="#181818"/>
      <stop offset="1.0" stop-color="#000000"/>
    </radialGradient>
    <radialGradient cx="0" cy="0" gradientTransform="matrix(0.17, 0.0, 0.0, 0.17, -320.55, -259.2)" gradientUnits="userSpaceOnUse" id="gradient14" r="819.2" spreadMethod="pad">
      <stop offset="0.0" stop-color="#494949"/>
      <stop offset="1.0" stop-color="#000000"/>
    </radialGradient>
    <radialGradient cx="0" cy="0" gradientTransform="matrix(0.0738, 0.0, 0.0, 0.0738, -336.0, -81.5)" gradientUnits="userSpaceOnUse" id="gradient15" r="819.2" spreadMethod="pad">
      <stop offset="0.0" stop-color="#000000"/>
      <stop offset="1.0" stop-color="#000000"/>
    </radialGradient>
    <radialGradient cx="0" cy="0" gradientTransform="matrix(0.0655, 0.0, 0.0, 0.0655, -198.55, -247.1)" gradientUnits="userSpaceOnUse" id="gradient16" r="819.2" spreadMethod="pad">
      <stop offset="0.0" stop-color="#000000"/>
      <stop offset="1.0" stop-color="#000000"/>
    </radialGradient>
    <radialGradient cx="0" cy="0" gradientTransform="matrix(0.0566, 0.0, 0.0, 0.0566, -173.5, -272.4)" gradientUnits="userSpaceOnUse" id="gradient17" r="819.2" spreadMethod="pad">
      <stop offset="0.0" stop-color="#101010"/>
      <stop offset="1.0" stop-color="#000000"/>
    </radialGradient>
    <radialGradient cx="0" cy="0" gradientTransform="matrix(0.0797, 0.0, 0.0, 0.0797, -154.3, -212.7)" gradientUnits="userSpaceOnUse" id="gradient18" r="819.2" spreadMethod="pad">
      <stop offset="0.0" stop-color="#bdbdbd"/>
      <stop offset="1.0" stop-color="#2a2a2a"/>
    </radialGradient>
    <radialGradient cx="0" cy="0" gradientTransform="matrix(0.0619, 0.0, 0.0, 0.0619, -156.2, -241.6)" gradientUnits="userSpaceOnUse" id="gradient19" r="819.2" spreadMethod="pad">
      <stop offset="0.0" stop-color="#9f9f9f"/>
      <stop offset="1.0" stop-color="#9c9c9c"/>
    </radialGradient>
    <radialGradient cx="0" cy="0" gradientTransform="matrix(0.0311, 0.0, 0.0, 0.0311, -175.8, -239.3)" gradientUnits="userSpaceOnUse" id="gradient20" r="819.2" spreadMethod="pad">
      <stop offset="0.0" stop-color="#7c7c7c"/>
      <stop offset="1.0" stop-color="#000000"/>
    </radialGradient>
    <radialGradient cx="0" cy="0" gradientTransform="matrix(0.0294, 0.0, 0.0, 0.0294, -170.55, -217.35)" gradientUnits="userSpaceOnUse" id="gradient21" r="819.2" spreadMethod="pad">
      <stop offset="0.0" stop-color="#000000"/>
      <stop offset="1.0" stop-color="#000000"/>
    </radialGradient>
    <radialGradient cx="0" cy="0" gradientTransform="matrix(0.0752, 0.0, 0.0, 0.0752, -150.7, -229.1)" gradientUnits="userSpaceOnUse" id="gradient22" r="819.2" spreadMethod="pad">
      <stop offset="0.0" stop-color="#0d0d0d"/>
      <stop offset="1.0" stop-color="#000000"/>
    </radialGradient>
    <radialGradient cx="0" cy="0" gradientTransform="matrix(0.0422, 0.0, 0.0, 0.0422, -169.4, -229.65)" gradientUnits="userSpaceOnUse" id="gradient23" r="819.2" spreadMethod="pad">
      <stop offset="0.0" stop-color="#4d4d4d"/>
      <stop offset="1.0" stop-color="#000000"/>
    </radialGradient>
    <radialGradient cx="0" cy="0" gradientTransform="matrix(0.0826, 0.0, 0.0, 0.0826, -164.65, -211.0)" gradientUnits="userSpaceOnUse" id="gradient24" r="819.2" spreadMethod="pad">
      <stop offset="0.0" stop-color="#8f8f8f"/>
      <stop offset="1.0" stop-color="#8f8f8f"/>
    </radialGradient>
    <radialGradient cx="0" cy="0" gradientTransform="matrix(0.0527, 0.0, 0.0, 0.0527, -164.65, -211.0)" gradientUnits="userSpaceOnUse" id="gradient25" r="819.2" spreadMethod="pad">
      <stop offset="0.0" stop-color="#121212"/>
      <stop offset="1.0" stop-color="#121212"/>
    </radialGradient>
    <radialGradient cx="0" cy="0" gradientTransform="matrix(0.0507, 0.0, 0.0, 0.0507, -163.0, -209.25)" gradientUnits="userSpaceOnUse" id="gradient26" r="819.2" spreadMethod="pad">
      <stop offset="0.0" stop-color="#121212"/>
      <stop offset="1.0" stop-color="#121212"/>
    </radialGradient>
    <radialGradient cx="0" cy="0" gradientTransform="matrix(0.0509, 0.0, 0.0, 0.0509, -161.2, -207.55)" gradientUnits="userSpaceOnUse" id="gradient27" r="819.2" spreadMethod="pad">
      <stop offset="0.0" stop-color="#121212"/>
      <stop offset="1.0" stop-color="#121212"/>
    </radialGradient>
    <radialGradient cx="0" cy="0" gradientTransform="matrix(0.04, 0.0, 0.0, 0.04, -177.7, -209.65)" gradientUnits="userSpaceOnUse" id="gradient28" r="819.2" spreadMethod="pad">
      <stop offset="0.0" stop-color="#a1a1a1"/>
      <stop offset="1.0" stop-color="#757575"/>
    </radialGradient>
    <radialGradient cx="0" cy="0" gradientTransform="matrix(0.0496, 0.0, 0.0, 0.0496, -153.05, -177.95)" gradientUnits="userSpaceOnUse" id="gradient29" r="819.2" spreadMethod="pad">
      <stop offset="0.0" stop-color="#d9d9d9"/>
      <stop offset="1.0" stop-color="#414141"/>
    </radialGradient>
    <radialGradient cx="0" cy="0" gradientTransform="matrix(0.0615, 0.0, 0.0, 0.0615, -167.85, -211.5)" gradientUnits="userSpaceOnUse" id="gradient30" r="819.2" spreadMethod="pad">
      <stop offset="0.0" stop-color="#737373"/>
      <stop offset="1.0" stop-color="#717171"/>
    </radialGradient>
    <radialGradient cx="0" cy="0" gradientTransform="matrix(0.049, 0.0, 0.0, 0.049, -178.25, -210.55)" gradientUnits="userSpaceOnUse" id="gradient31" r="819.2" spreadMethod="pad">
      <stop offset="0.0" stop-color="#121212"/>
      <stop offset="1.0" stop-color="#121212"/>
    </radialGradient>
    <radialGradient cx="0" cy="0" gradientTransform="matrix(0.0204, 0.0, 0.0, 0.0204, -187.25, -195.75)" gradientUnits="userSpaceOnUse" id="gradient32" r="819.2" spreadMethod="pad">
      <stop offset="0.0" stop-color="#676767"/>
      <stop offset="1.0" stop-color="#242424"/>
    </radialGradient>
    <radialGradient cx="0" cy="0" gradientTransform="matrix(0.1016, 0.0, 0.0, 0.1016, -124.05, -171.9)" gradientUnits="userSpaceOnUse" id="gradient33" r="819.2" spreadMethod="pad">
      <stop offset="0.0" stop-color="#121212"/>
      <stop offset="1.0" stop-color="#121212"/>
    </radialGradient>
    <radialGradient cx="0" cy="0" gradientTransform="matrix(0.0258, 0.0, 0.0, 0.0258, -122.25, -171.25)" gradientUnits="userSpaceOnUse" id="gradient34" r="819.2" spreadMethod="pad">
      <stop offset="0.0" stop-color="#121212"/>
      <stop offset="1.0" stop-color="#121212"/>
    </radialGradient>
    <radialGradient cx="0" cy="0" gradientTransform="matrix(0.0415, 0.0, 0.0, 0.0415, -186.45, -197.85)" gradientUnits="userSpaceOnUse" id="gradient35" r="819.2" spreadMethod="pad">
      <stop offset="0.0" stop-color="#b3b3b3"/>
      <stop offset="1.0" stop-color="#505050"/>
    </radialGradient>
    <radialGradient cx="0" cy="0" gradientTransform="matrix(0.034, 0.0, 0.0, 0.034, -110.65, -189.6)" gradientUnits="userSpaceOnUse" id="gradient36" r="819.2" spreadMethod="pad">
      <stop offset="0.0" stop-color="#dfdfdf"/>
      <stop offset="1.0" stop-color="#494949"/>
    </radialGradient>
    <radialGradient cx="0" cy="0" gradientTransform="matrix(0.0381, 0.0, 0.0, 0.0381, -108.95, -175.0)" gradientUnits="userSpaceOnUse" id="gradient37" r="819.2" spreadMethod="pad">
      <stop offset="0.0" stop-color="#787878"/>
      <stop offset="1.0" stop-color="#767676"/>
    </radialGradient>
    <radialGradient cx="0" cy="0" gradientTransform="matrix(0.0244, 0.0, 0.0, 0.0244, -153.05, -177.95)" gradientUnits="userSpaceOnUse" id="gradient38" r="819.2" spreadMethod="pad">
      <stop offset="0.0" stop-color="#d9d9d9"/>
      <stop offset="1.0" stop-color="#2b2b2b"/>
    </radialGradient>
    <radialGradient cx="0" cy="0" gradientTransform="matrix(0.0236, 0.0, 0.0, 0.0236, -108.9, -172.65)" gradientUnits="userSpaceOnUse" id="gradient39" r="819.2" spreadMethod="pad">
      <stop offset="0.0" stop-color="#121212"/>
      <stop offset="1.0" stop-color="#121212"/>
    </radialGradient>
    <radialGradient cx="0" cy="0" gradientTransform="matrix(0.0258, 0.0, 0.0, 0.0258, -120.5, -170.85)" gradientUnits="userSpaceOnUse" id="gradient40" r="819.2" spreadMethod="pad">
      <stop offset="0.0" stop-color="#121212"/>
      <stop offset="1.0" stop-color="#121212"/>
    </radialGradient>
    <radialGradient cx="0" cy="0" gradientTransform="matrix(0.0077, 0.0, 0.0, 0.0077, -183.55, -165.15)" gradientUnits="userSpaceOnUse" id="gradient41" r="819.2" spreadMethod="pad">
      <stop offset="0.0" stop-color="#e4e4e4"/>
      <stop offset="1.0" stop-color="#4e4e4e"/>
    </radialGradient>
    <radialGradient cx="0" cy="0" gradientTransform="matrix(0.066, 0.0, 0.0, 0.066, -298.65, -85.0)" gradientUnits="userSpaceOnUse" id="gradient42" r="819.2" spreadMethod="pad">
      <stop offset="0.0" stop-color="#000000"/>
      <stop offset="1.0" stop-color="#000000"/>
    </radialGradient>
    <radialGradient cx="0" cy="0" gradientTransform="matrix(0.0901, 0.0, 0.0, 0.0901, -281.0, -93.85)" gradientUnits="userSpaceOnUse" id="gradient43" r="819.2" spreadMethod="pad">
      <stop offset="0.0" stop-color="#9c9c9c"/>
      <stop offset="1.0" stop-color="#444444"/>
    </radialGradient>
    <radialGradient cx="0" cy="0" gradientTransform="matrix(0.075, 0.0, 0.0, 0.075, -319.45, -37.55)" gradientUnits="userSpaceOnUse" id="gradient44" r="819.2" spreadMethod="pad">
      <stop offset="0.0" stop-color="#737373"/>
      <stop offset="1.0" stop-color="#212121"/>
    </radialGradient>
    <radialGradient cx="0" cy="0" gradientTransform="matrix(0.0524, 0.0, 0.0, 0.0524, -360.55, -40.35)" gradientUnits="userSpaceOnUse" id="gradient45" r="819.2" spreadMethod="pad">
      <stop offset="0.0" stop-color="#7f7f7f"/>
      <stop offset="1.0" stop-color="#7f7f7f"/>
    </radialGradient>
    <radialGradient cx="0" cy="0" gradientTransform="matrix(0.1337, 0.0, 0.0, 0.1337, -258.25, -1.0)" gradientUnits="userSpaceOnUse" id="gradient46" r="819.2" spreadMethod="pad">
      <stop offset="0.0" stop-color="#545454"/>
      <stop offset="1.0" stop-color="#535353"/>
    </radialGradient>
    <radialGradient cx="0" cy="0" gradientTransform="matrix(0.0408, 0.0, 0.0, 0.0408, -318.15, -63.3)" gradientUnits="userSpaceOnUse" id="gradient47" r="819.2" spreadMethod="pad">
      <stop offset="0.0" stop-color="#989898"/>
      <stop offset="1.0" stop-color="#979797"/>
    </radialGradient>
    <radialGradient cx="0" cy="0" gradientTransform="matrix(0.0422, 0.0, 0.0, 0.0422, -308.6, -75.5)" gradientUnits="userSpaceOnUse" id="gradient48" r="819.2" spreadMethod="pad">
      <stop offset="0.0" stop-color="#272727"/>
      <stop offset="1.0" stop-color="#000000"/>
    </radialGradient>
    <radialGradient cx="0" cy="0" gradientTransform="matrix(0.1318, 0.0, 0.0, 0.1318, -299.45, -78.5)" gradientUnits="userSpaceOnUse" id="gradient49" r="819.2" spreadMethod="pad">
      <stop offset="0.0" stop-color="#1f1f1f"/>
      <stop offset="1.0" stop-color="#000000"/>
    </radialGradient>
    <radialGradient cx="0" cy="0" gradientTransform="matrix(0.0327, 0.0, 0.0, 0.0327, -309.8, -65.6)" gradientUnits="userSpaceOnUse" id="gradient50" r="819.2" spreadMethod="pad">
      <stop offset="0.0" stop-color="#000000"/>
      <stop offset="1.0" stop-color="#000000"/>
    </radialGradient>
    <radialGradient cx="0" cy="0" gradientTransform="matrix(0.0362, 0.0, 0.0, 0.0362, -331.65, -35.75)" gradientUnits="userSpaceOnUse" id="gradient51" r="819.2" spreadMethod="pad">
      <stop offset="0.0" stop-color="#adadad"/>
      <stop offset="1.0" stop-color="#adadad"/>
    </radialGradient>
    <radialGradient cx="0" cy="0" gradientTransform="matrix(0.0361, 0.0, 0.0, 0.0361, -334.25, -38.5)" gradientUnits="userSpaceOnUse" id="gradient52" r="819.2" spreadMethod="pad">
      <stop offset="0.0" stop-color="#aeaeae"/>
      <stop offset="1.0" stop-color="#aeaeae"/>
    </radialGradient>
    <radialGradient cx="0" cy="0" gradientTransform="matrix(0.1144, 0.0, 0.0, 0.1144, -239.3, -8.7)" gradientUnits="userSpaceOnUse" id="gradient53" r="819.2" spreadMethod="pad">
      <stop offset="0.0" stop-color="#ababab"/>
      <stop offset="1.0" stop-color="#aaaaaa"/>
    </radialGradient>
    <radialGradient cx="0" cy="0" gradientTransform="matrix(0.0266, 0.0, 0.0, 0.0266, -315.5, -35.7)" gradientUnits="userSpaceOnUse" id="gradient54" r="819.2" spreadMethod="pad">
      <stop offset="0.0" stop-color="#eeeeee"/>
      <stop offset="1.0" stop-color="#d9d9d9"/>
    </radialGradient>
    <radialGradient cx="0" cy="0" gradientTransform="matrix(0.0073, 0.0, 0.0, 0.0073, -336.4, -35.5)" gradientUnits="userSpaceOnUse" id="gradient55" r="819.2" spreadMethod="pad">
      <stop offset="0.0" stop-color="#2d2d2d"/>
      <stop offset="1.0" stop-color="#212121"/>
    </radialGradient>
    <radialGradient cx="0" cy="0" gradientTransform="matrix(0.0451, 0.0, 0.0, 0.0451, -333.4, -38.1)" gradientUnits="userSpaceOnUse" id="gradient56" r="819.2" spreadMethod="pad">
      <stop offset="0.0" stop-color="#a0a0a0"/>
      <stop offset="1.0" stop-color="#555555"/>
    </radialGradient>
    <radialGradient cx="0" cy="0" gradientTransform="matrix(0.0562, 0.0, 0.0, 0.0562, -236.9, -40.05)" gradientUnits="userSpaceOnUse" id="gradient57" r="819.2" spreadMethod="pad">
      <stop offset="0.0" stop-color="#eaeaea"/>
      <stop offset="1.0" stop-color="#323232"/>
    </radialGradient>
    <radialGradient cx="0" cy="0" gradientTransform="matrix(0.0092, 0.0, 0.0, 0.0092, -331.45, -3.55)" gradientUnits="userSpaceOnUse" id="gradient58" r="819.2" spreadMethod="pad">
      <stop offset="0.0" stop-color="#f2f2f2"/>
      <stop offset="1.0" stop-color="#585858"/>
    </radialGradient>
    <radialGradient cx="0" cy="0" gradientTransform="matrix(0.0335, 0.0, 0.0, 0.0335, -206.45, -14.95)" gradientUnits="userSpaceOnUse" id="gradient59" r="819.2" spreadMethod="pad">
      <stop offset="0.0" stop-color="#ededed"/>
      <stop offset="1.0" stop-color="#8b8b8b"/>
    </radialGradient>
  </defs>
</svg>
