<?xml version="1.0" encoding="UTF-8" standalone="no"?>
<svg xmlns:xlink="http://www.w3.org/1999/xlink" height="298.35px" width="254.75px" xmlns="http://www.w3.org/2000/svg">
  <g transform="matrix(1.0, 0.0, 0.0, 1.0, 337.9, 300.0)">
    <path d="M-295.15 -300.0 L-247.9 -300.0 -248.75 -296.75 -263.75 -295.15 -271.5 -295.0 -273.75 -295.25 -274.75 -295.5 -275.15 -295.25 -277.4 -295.15 -291.9 -295.25 -292.65 -295.9 -295.15 -300.0" fill="url(#gradient0)" fill-rule="evenodd" stroke="none"/>
    <path d="M-247.9 -300.0 L-241.25 -300.0 -243.5 -296.5 -248.75 -296.75 -247.9 -300.0" fill="url(#gradient1)" fill-rule="evenodd" stroke="none"/>
    <path d="M-248.75 -296.75 L-249.9 -277.65 -248.15 -133.4 -290.15 -126.65 -292.5 -167.5 -292.9 -167.9 -293.0 -169.4 -301.25 -200.25 -308.15 -232.9 -309.0 -260.9 -295.75 -277.15 -291.9 -295.25 -277.4 -295.15 Q-274.75 -292.9 -274.15 -293.0 L-271.5 -295.0 -263.75 -295.15 -248.75 -296.75" fill="url(#gradient2)" fill-rule="evenodd" stroke="none"/>
    <path d="M-242.65 -293.15 L-241.75 -292.9 -241.9 -290.5 -242.65 -293.15 M-241.4 -103.15 Q-245.5 -97.75 -261.75 -96.4 L-258.5 -101.75 -251.75 -99.4 -251.25 -100.5 -248.5 -108.0 -243.5 -109.4 -242.25 -115.0 -241.4 -103.15 M-280.5 -96.0 L-283.15 -96.15 -282.75 -97.0 -280.5 -96.0 M-291.9 -97.65 L-293.5 -98.15 -292.9 -100.75 -291.9 -97.65 M-300.15 -103.0 L-300.65 -103.5 -300.5 -105.5 -300.15 -103.4 -300.15 -103.0 M-271.5 -295.0 L-274.15 -293.0 Q-274.75 -292.9 -277.4 -295.15 L-275.15 -295.25 -273.75 -295.25 -271.5 -295.0 M-281.9 -80.15 L-282.0 -79.75 -284.65 -80.25 -281.9 -80.15" fill="url(#gradient3)" fill-rule="evenodd" stroke="none"/>
    <path d="M-275.15 -295.25 L-274.75 -295.5 -273.75 -295.25 -275.15 -295.25" fill="url(#gradient4)" fill-rule="evenodd" stroke="none"/>
    <path d="M-308.0 -296.0 L-308.5 -300.0 -295.15 -300.0 -292.65 -295.9 -291.9 -295.25 -308.0 -296.0" fill="url(#gradient5)" fill-rule="evenodd" stroke="none"/>
    <path d="M-303.4 -130.75 L-305.0 -170.15 -312.65 -198.5 -320.4 -233.4 -319.9 -260.9 -312.65 -279.5 -308.0 -296.0 -291.9 -295.25 -295.75 -277.15 -309.0 -260.9 -308.15 -232.9 -301.25 -200.25 -293.0 -169.4 -292.9 -167.9 -292.5 -167.5 -290.15 -126.65 -303.4 -130.75" fill="url(#gradient6)" fill-rule="evenodd" stroke="none"/>
    <path d="M-300.75 -108.4 L-303.4 -130.75 -290.15 -126.65 -289.0 -96.5 -291.9 -97.65 -292.9 -100.75 -293.5 -98.15 -299.5 -99.75 -300.0 -102.5 -300.15 -103.4 -300.5 -105.5 -300.75 -108.4" fill="url(#gradient7)" fill-rule="evenodd" stroke="none"/>
    <path d="M-240.15 -109.0 L-237.25 -108.15 -234.0 -104.65 Q-236.0 -95.75 -272.5 -93.9 -308.25 -93.9 -310.15 -102.5 L-310.0 -103.4 -309.65 -103.65 -309.15 -104.15 -306.5 -106.4 -300.75 -108.4 -300.5 -105.5 -300.65 -103.5 -300.15 -103.0 -300.0 -102.5 -299.5 -99.75 -293.5 -98.15 -291.9 -97.65 -289.0 -96.5 -283.15 -96.15 -280.5 -96.0 -267.0 -95.4 -261.75 -96.4 Q-245.5 -97.75 -241.4 -103.15 L-240.65 -103.5 -240.25 -105.65 -240.15 -109.0" fill="url(#gradient8)" fill-rule="evenodd" stroke="none"/>
    <path d="M-309.9 -104.15 L-310.0 -106.5 -309.15 -104.15 -309.65 -103.65 -309.9 -104.15 M-299.0 -82.25 Q-298.75 -76.65 -298.0 -76.0 L-298.15 -74.65 -297.75 -74.5 -296.9 -69.9 -301.0 -73.65 -305.15 -81.25 -306.4 -82.9 -306.15 -83.0 -306.65 -85.15 -301.25 -82.75 -299.0 -82.25" fill="url(#gradient9)" fill-rule="evenodd" stroke="none"/>
    <path d="M-308.4 -58.25 L-309.4 -88.5 -308.9 -87.75 -308.0 -85.75 -307.9 -85.65 -306.65 -85.15 -306.15 -83.0 -306.4 -82.9 -305.15 -81.25 -301.0 -73.65 -296.9 -69.9 -289.75 -62.5 Q-277.5 -55.4 -277.25 -53.0 L-276.25 -51.75 -271.9 -46.15 -269.25 -42.4 -267.0 -38.9 -260.65 -35.75 -256.75 -30.5 -259.15 -31.15 -259.75 -31.4 -262.75 -32.4 -270.5 -36.0 -274.15 -38.5 -281.0 -43.4 -282.15 -44.4 -283.15 -44.5 -284.4 -44.65 -285.75 -46.0 -289.5 -47.15 -293.65 -49.0 -300.4 -50.4 -303.0 -52.15 -306.0 -53.5 -307.0 -54.15 Q-307.4 -56.9 -308.4 -58.25 M-310.0 -103.4 L-309.9 -104.15 -309.65 -103.65 -310.0 -103.4" fill="url(#gradient10)" fill-rule="evenodd" stroke="none"/>
    <path d="M-173.5 -300.0 L-138.4 -300.0 -142.0 -258.5 -154.15 -258.0 -171.5 -256.25 -170.65 -278.5 -173.5 -300.0" fill="url(#gradient11)" fill-rule="evenodd" stroke="none"/>
    <path d="M-138.4 -300.0 L-134.15 -300.0 -137.9 -258.25 -142.0 -258.5 -138.4 -300.0" fill="url(#gradient12)" fill-rule="evenodd" stroke="none"/>
    <path d="M-137.9 -258.25 L-136.9 -257.5 -135.9 -246.15 Q-136.65 -247.15 -143.15 -246.65 L-152.4 -246.0 -173.75 -243.65 -174.15 -243.65 -174.65 -243.5 -181.25 -242.65 -181.65 -242.5 -182.15 -242.5 -182.5 -242.4 -183.0 -242.4 -183.4 -242.25 -184.0 -242.25 -184.25 -242.15 -184.75 -242.15 -185.9 -251.0 -186.0 -254.0 -185.15 -254.25 -183.9 -254.4 -171.5 -256.15 -171.5 -256.25 -154.15 -258.0 -142.0 -258.5 -137.9 -258.25 M-193.5 -240.0 L-193.9 -240.0 -195.15 -251.5 Q-193.5 -252.75 -188.4 -253.5 L-190.0 -247.65 -193.5 -246.9 -193.5 -240.0" fill="url(#gradient13)" fill-rule="evenodd" stroke="none"/>
    <path d="M-243.5 -296.5 L-242.65 -293.15 -241.9 -290.5 -238.9 -277.75 -237.75 -138.9 -248.15 -133.4 -249.9 -277.65 -248.75 -296.75 -243.5 -296.5" fill="url(#gradient14)" fill-rule="evenodd" stroke="none"/>
    <path d="M-261.75 -96.4 L-267.0 -95.4 -280.5 -96.0 -282.75 -97.0 -283.15 -96.15 -289.0 -96.5 -290.15 -126.65 -248.15 -133.4 -251.25 -100.5 -251.75 -99.4 -258.5 -101.75 -261.75 -96.4" fill="url(#gradient15)" fill-rule="evenodd" stroke="none"/>
    <path d="M-184.0 -278.9 L-187.25 -299.9 -173.5 -300.0 -170.65 -278.5 -171.5 -256.25 -171.5 -256.15 -183.9 -254.4 -182.0 -278.9 Q-183.9 -287.15 -184.0 -278.9" fill="url(#gradient16)" fill-rule="evenodd" stroke="none"/>
    <path d="M-142.4 -244.5 L-142.75 -240.0 -146.0 -240.0 -146.15 -239.65 -152.25 -240.0 -152.5 -239.65 -170.15 -240.25 -172.25 -241.25 -173.15 -243.15 -149.0 -245.75 -142.4 -245.9 -142.4 -244.5 M-185.65 -255.15 L-184.65 -270.75 -184.5 -271.0 -184.5 -272.65 -184.4 -273.0 -184.4 -274.5 -184.25 -275.0 -184.25 -276.25 -184.0 -278.9 Q-183.9 -287.15 -182.0 -278.9 L-183.9 -254.4 -185.15 -254.25 -185.65 -255.15" fill="url(#gradient17)" fill-rule="evenodd" stroke="none"/>
    <path d="M-191.65 -209.65 L-192.65 -209.5 -192.75 -209.9 -192.5 -210.25 -184.25 -211.25 -183.4 -213.15 -191.9 -212.25 -192.4 -212.15 -193.0 -212.15 -192.75 -212.65 -195.0 -231.15 -195.0 -232.15 -193.25 -237.75 -193.5 -240.0 -193.5 -246.9 -190.0 -247.65 -188.4 -253.5 -187.5 -256.9 -187.0 -256.9 -185.65 -255.15 -185.15 -254.25 -186.0 -254.0 -185.9 -251.0 -184.75 -242.15 -184.25 -242.15 -184.0 -242.25 -183.4 -242.25 -183.0 -242.4 -182.5 -242.4 -182.15 -242.5 -181.65 -242.5 -181.25 -242.65 -174.65 -243.5 -174.15 -243.65 -173.75 -243.65 -173.15 -243.15 -172.25 -241.25 -170.15 -240.25 -163.25 -236.65 -150.5 -229.0 -145.0 -224.75 -143.15 -221.9 -142.4 -220.5 -139.9 -216.25 -138.0 -210.5 -135.4 -207.25 -134.0 -202.9 -136.5 -205.15 -139.75 -209.15 -146.25 -214.75 Q-146.15 -216.4 -151.25 -217.15 L-154.25 -216.75 -154.65 -216.65 -155.25 -216.65 -155.65 -216.5 -156.15 -216.5 -156.5 -216.4 -157.0 -216.4 -157.5 -216.25 -158.0 -216.25 -158.5 -216.15 -158.9 -216.15 -159.5 -216.0 -159.9 -216.0 -160.5 -215.9 -160.9 -215.9 -161.5 -215.75 -161.9 -215.75 -162.5 -215.65 -163.0 -215.65 -163.5 -215.5 -164.0 -215.5 -164.5 -215.4 -165.15 -215.4 -165.65 -215.25 -166.25 -215.25 -166.65 -215.15 -167.25 -215.15 -167.65 -215.0 -169.5 -214.9 -169.75 -214.75 -181.5 -213.4 -180.4 -211.75 -160.9 -213.9 -160.65 -214.0 -160.0 -214.0 -154.0 -214.65 -150.15 -214.4 -160.9 -213.15 -166.9 -212.4 -167.0 -212.4 -183.0 -210.65 -184.65 -210.4 -185.65 -210.4 -185.9 -210.25 -191.65 -209.65" fill="url(#gradient18)" fill-rule="evenodd" stroke="none"/>
    <path d="M-135.9 -246.15 L-142.4 -244.5 -142.4 -245.9 -149.0 -245.75 -173.15 -243.15 -173.75 -243.65 -152.4 -246.0 -143.15 -246.65 Q-136.65 -247.15 -135.9 -246.15" fill="url(#gradient19)" fill-rule="evenodd" stroke="none"/>
    <path d="M-142.75 -240.0 L-141.9 -236.25 -141.9 -230.75 -142.25 -229.25 -142.5 -228.9 -142.5 -230.15 -143.75 -230.15 -145.9 -228.4 -147.65 -230.4 -149.25 -229.9 -150.5 -229.0 -163.25 -236.65 -170.15 -240.25 -152.5 -239.65 -152.25 -240.0 -146.15 -239.65 -146.0 -240.0 -142.75 -240.0" fill="url(#gradient20)" fill-rule="evenodd" stroke="none"/>
    <path d="M-141.9 -236.25 L-140.65 -235.9 -138.4 -232.15 -138.4 -231.0 -139.15 -225.9 -142.4 -220.5 -143.15 -221.9 -142.15 -225.9 -142.25 -229.25 -141.9 -230.75 -141.9 -236.25" fill="url(#gradient21)" fill-rule="evenodd" stroke="none"/>
    <path d="M-150.5 -229.0 L-149.25 -229.9 -147.65 -230.4 -145.9 -228.4 -143.75 -230.15 -142.5 -230.15 -142.5 -228.9 -142.25 -229.25 -142.15 -225.9 -143.15 -221.9 -145.0 -224.75 -150.5 -229.0 M-160.9 -213.15 L-159.4 -211.5 -157.9 -209.9 Q-152.0 -203.65 -161.15 -202.5 L-164.9 -202.15 -170.25 -202.65 -167.0 -212.4 -166.9 -212.4 -160.9 -213.15" fill="url(#gradient22)" fill-rule="evenodd" stroke="none"/>
    <path d="M-140.65 -235.9 L-121.9 -211.5 -118.0 -205.9 -118.4 -201.9 -123.15 -193.5 -126.0 -190.5 -136.4 -202.9 -134.15 -202.75 -134.0 -202.9 -135.4 -207.25 -138.0 -210.5 -139.9 -216.25 -142.4 -220.5 -139.15 -225.9 -138.4 -231.0 -138.4 -232.15 -140.65 -235.9 M-112.0 -198.65 L-109.5 -195.5 Q-102.15 -187.0 -118.25 -181.15 L-121.15 -184.5 Q-113.25 -190.75 -112.0 -198.65 M-161.15 -202.5 L-160.15 -201.15 -160.65 -201.0 -167.15 -200.75 -170.25 -202.65 -164.9 -202.15 -161.15 -202.5" fill="url(#gradient23)" fill-rule="evenodd" stroke="none"/>
    <path d="M-104.5 -180.0 L-104.0 -180.0 -103.65 -179.25 -104.15 -177.75 -105.75 -178.15 -107.65 -177.5 -113.9 -176.0 -115.25 -176.4 -116.65 -177.0 -145.65 -211.15 -147.4 -212.75 -148.5 -214.5 -149.0 -214.5 -151.65 -215.0 -154.0 -214.65 -160.0 -214.0 -160.5 -215.9 -159.9 -216.0 -159.5 -216.0 -158.9 -216.15 -158.5 -216.15 -158.0 -216.25 -157.5 -216.25 -157.0 -216.4 -156.5 -216.4 -156.15 -216.5 -155.65 -216.5 -155.25 -216.65 -154.65 -216.65 -154.25 -216.75 -151.25 -217.15 Q-146.15 -216.4 -146.25 -214.75 L-145.65 -213.5 -144.15 -212.25 -136.4 -202.9 -126.0 -190.5 Q-121.25 -185.65 -121.75 -184.25 L-121.15 -184.5 -118.25 -181.15 -116.0 -178.4 -115.15 -178.25 -113.75 -178.0 -104.5 -180.0" fill="url(#gradient24)" fill-rule="evenodd" stroke="none"/>
    <path d="M-134.0 -202.9 L-134.15 -202.75 -136.4 -202.9 -144.15 -212.25 -145.65 -213.5 -146.25 -214.75 -139.75 -209.15 -136.5 -205.15 -134.0 -202.9" fill="url(#gradient25)" fill-rule="evenodd" stroke="none"/>
    <path d="M-121.9 -211.5 Q-111.65 -210.0 -112.0 -198.65 -113.25 -190.75 -121.15 -184.5 L-121.75 -184.25 Q-121.25 -185.65 -126.0 -190.5 L-123.15 -193.5 -118.4 -201.9 -118.0 -205.9 -121.9 -211.5 M-125.75 -182.4 L-128.25 -184.75 -128.25 -185.15 -127.25 -185.25 -125.4 -184.5 -125.0 -182.65 -125.4 -182.0 -125.75 -182.4 M-143.25 -180.9 L-145.15 -182.15 -145.65 -184.25 -143.65 -184.4 -144.75 -183.75 -143.75 -182.0 -143.25 -180.9" fill="url(#gradient26)" fill-rule="evenodd" stroke="none"/>
    <path d="M-194.4 -210.0 L-195.65 -210.0 -196.0 -209.9 -196.75 -209.9 -197.15 -209.75 -202.65 -209.15 -203.4 -209.15 -203.65 -210.9 -201.75 -211.0 -200.5 -211.25 -199.9 -211.25 -199.5 -211.4 -199.0 -211.4 -198.5 -211.5 -198.0 -211.5 -197.4 -211.65 -193.15 -212.15 -193.0 -212.15 -192.4 -212.15 -191.9 -212.25 -183.4 -213.15 -184.25 -211.25 -192.5 -210.25 -193.4 -210.25 -194.4 -210.0 M-160.5 -215.9 L-160.0 -214.0 -160.65 -214.0 -160.9 -213.9 -180.4 -211.75 -181.5 -213.4 -169.75 -214.75 -169.5 -214.9 -167.65 -215.0 -167.25 -215.15 -166.65 -215.15 -166.25 -215.25 -165.65 -215.25 -165.15 -215.4 -164.5 -215.4 -164.0 -215.5 -163.5 -215.5 -163.0 -215.65 -162.5 -215.65 -161.9 -215.75 -161.5 -215.75 -160.9 -215.9 -160.5 -215.9" fill="url(#gradient27)" fill-rule="evenodd" stroke="none"/>
    <path d="M-192.75 -209.9 L-194.4 -210.0 -193.4 -210.25 -192.5 -210.25 -192.75 -209.9 M-154.0 -214.65 L-151.65 -215.0 -149.0 -214.5 -150.15 -214.4 -154.0 -214.65" fill="url(#gradient28)" fill-rule="evenodd" stroke="none"/>
    <path d="M-190.25 -208.15 L-191.65 -209.65 -185.9 -210.25 -185.65 -210.4 -184.65 -210.4 -183.0 -210.65 -182.15 -209.0 -190.25 -208.15 M-149.0 -214.5 L-148.5 -214.5 -147.4 -212.75 -159.4 -211.5 -160.9 -213.15 -150.15 -214.4 -149.0 -214.5" fill="url(#gradient29)" fill-rule="evenodd" stroke="none"/>
    <path d="M-188.75 -206.65 L-190.25 -208.15 -182.15 -209.0 -181.0 -207.4 -188.75 -206.65 M-147.4 -212.75 L-145.65 -211.15 -157.9 -209.9 -159.4 -211.5 -147.4 -212.75" fill="url(#gradient30)" fill-rule="evenodd" stroke="none"/>
    <path d="M-181.0 -207.4 L-182.15 -209.0 -183.0 -210.65 -167.0 -212.4 -170.25 -202.65 -171.0 -200.65 -175.9 -199.75 -181.0 -207.4" fill="url(#gradient31)" fill-rule="evenodd" stroke="none"/>
    <path d="M-136.9 -175.65 L-170.5 -195.5 -171.0 -200.65 -170.25 -202.65 -167.15 -200.75 -160.65 -201.0 -160.15 -201.15 -161.15 -202.5 Q-152.0 -203.65 -157.9 -209.9 L-145.65 -211.15 -116.65 -177.0 -136.9 -175.65 M-175.75 -198.9 L-188.75 -206.65 -181.0 -207.4 -175.9 -199.75 -175.9 -199.4 -175.75 -198.9 M-133.5 -181.65 L-135.15 -181.25 -131.9 -181.25 -130.15 -181.65 -133.5 -181.65 M-125.4 -182.0 L-125.0 -182.65 -125.4 -184.5 -127.25 -185.25 -128.25 -185.15 -128.25 -184.75 -125.75 -182.4 -126.5 -182.15 -125.4 -182.0 M-143.75 -182.0 L-144.75 -183.75 -143.65 -184.4 -145.65 -184.25 -145.15 -182.15 -143.25 -180.9 -141.0 -181.75 -143.75 -182.0" fill="url(#gradient32)" fill-rule="evenodd" stroke="none"/>
    <path d="M-135.25 -175.0 L-136.9 -175.65 -116.65 -177.0 -115.25 -176.4 -135.25 -175.0" fill="url(#gradient33)" fill-rule="evenodd" stroke="none"/>
    <path d="M-170.5 -195.5 L-167.65 -169.75 -171.0 -169.65 -172.65 -170.0 -175.75 -198.9 -175.9 -199.4 -175.9 -199.75 -171.0 -200.65 -170.5 -195.5" fill="url(#gradient34)" fill-rule="evenodd" stroke="none"/>
    <path d="M-109.5 -195.5 Q-103.0 -193.75 -102.65 -190.15 -101.15 -185.0 -106.75 -179.9 L-109.75 -179.0 -115.15 -178.25 -116.0 -178.4 -118.25 -181.15 Q-102.15 -187.0 -109.5 -195.5 M-113.9 -176.0 Q-117.65 -173.9 -124.15 -175.25 L-113.9 -176.0" fill="url(#gradient35)" fill-rule="evenodd" stroke="none"/>
    <path d="M-133.5 -181.65 L-130.15 -181.65 -131.9 -181.25 -135.15 -181.25 -133.5 -181.65 M-125.75 -182.4 L-125.4 -182.0 -126.5 -182.15 -125.75 -182.4 M-143.25 -180.9 L-143.75 -182.0 -141.0 -181.75 -143.25 -180.9" fill="url(#gradient36)" fill-rule="evenodd" stroke="none"/>
    <path d="M-106.75 -179.9 L-104.5 -180.0 -113.75 -178.0 -115.15 -178.25 -109.75 -179.0 -106.75 -179.9" fill="url(#gradient37)" fill-rule="evenodd" stroke="none"/>
    <path d="M-104.15 -177.75 L-107.65 -177.5 -105.75 -178.15 -104.15 -177.75" fill="url(#gradient38)" fill-rule="evenodd" stroke="none"/>
    <path d="M-124.15 -175.25 L-133.15 -174.65 -135.25 -175.0 -115.25 -176.4 -113.9 -176.0 -124.15 -175.25" fill="url(#gradient39)" fill-rule="evenodd" stroke="none"/>
    <path d="M-167.65 -169.75 L-167.0 -169.15 -173.4 -168.4 -174.15 -168.4 -172.65 -170.0 -171.0 -169.65 -167.65 -169.75" fill="url(#gradient40)" fill-rule="evenodd" stroke="none"/>
    <path d="M-237.75 -138.9 L-240.15 -109.0 -240.25 -105.65 -240.65 -103.5 -241.4 -103.15 -242.25 -115.0 -243.5 -109.4 -248.5 -108.0 -251.25 -100.5 -248.15 -133.4 -237.75 -138.9" fill="url(#gradient41)" fill-rule="evenodd" stroke="none"/>
    <path d="M-300.0 -102.5 L-300.15 -103.0 -300.15 -103.4 -300.0 -102.5" fill="url(#gradient42)" fill-rule="evenodd" stroke="none"/>
    <path d="M-234.0 -104.65 L-233.9 -91.4 -235.65 -88.5 Q-253.5 -78.25 -281.9 -80.15 L-284.65 -80.25 -288.5 -80.4 -299.0 -82.25 -301.25 -82.75 -306.65 -85.15 -307.9 -85.65 -308.0 -85.75 -308.9 -87.75 -309.4 -88.5 -309.5 -89.0 -310.15 -102.5 Q-308.25 -93.9 -272.5 -93.9 -236.0 -95.75 -234.0 -104.65" fill="url(#gradient43)" fill-rule="evenodd" stroke="none"/>
    <path d="M-312.0 -46.4 L-308.4 -58.25 Q-307.4 -56.9 -307.0 -54.15 L-306.0 -53.5 -303.0 -52.15 -300.4 -50.4 -293.65 -49.0 -294.15 -47.15 -312.0 -46.4" fill="url(#gradient44)" fill-rule="evenodd" stroke="none"/>
    <path d="M-172.15 -3.5 L-172.4 -3.4 -173.25 -2.5 -174.5 -2.65 -174.65 -2.65 -173.25 -3.5 -172.5 -3.75 -172.15 -3.5 M-187.75 -2.5 L-196.15 -2.0 -202.9 -3.9 -283.25 -39.75 Q-289.25 -44.65 -290.4 -44.15 L-290.5 -44.15 -293.9 -44.75 -297.5 -44.65 -311.65 -44.4 -312.0 -46.4 -294.15 -47.15 -285.9 -45.65 -283.4 -43.15 -281.15 -41.65 -274.15 -38.5 -270.5 -36.0 -262.75 -32.4 -259.75 -31.4 -259.15 -31.15 -256.75 -30.5 -219.25 -13.75 -217.5 -11.65 -216.0 -12.25 -201.15 -5.5 -198.15 -4.75 -195.75 -4.5 -190.75 -4.65 -186.0 -2.75 -187.75 -2.5" fill="url(#gradient45)" fill-rule="evenodd" stroke="none"/>
    <path d="M-285.75 -46.0 L-285.9 -45.65 -294.15 -47.15 -293.65 -49.0 -289.5 -47.15 -285.75 -46.0" fill="url(#gradient46)" fill-rule="evenodd" stroke="none"/>
    <path d="M-235.65 -88.5 L-234.9 -83.25 -235.4 -77.5 -237.4 -72.9 Q-238.5 -73.25 -244.0 -69.25 L-246.25 -69.5 -255.4 -67.9 -261.4 -70.9 -262.65 -68.65 -272.5 -56.75 -275.9 -53.75 Q-276.55 -53.35 -277.25 -53.0 -277.5 -55.4 -289.75 -62.5 L-296.9 -69.9 -297.75 -74.5 -298.15 -74.65 -298.0 -76.0 Q-298.75 -76.65 -299.0 -82.25 L-288.5 -80.4 -284.65 -80.25 -282.0 -79.75 -281.9 -80.15 Q-253.5 -78.25 -235.65 -88.5" fill="url(#gradient47)" fill-rule="evenodd" stroke="none"/>
    <path d="M-235.4 -77.5 L-207.25 -54.65 Q-200.5 -49.25 -206.75 -35.65 -215.65 -18.4 -221.25 -20.9 L-222.65 -21.5 -222.75 -21.5 -271.75 -46.15 -271.9 -46.15 -276.25 -51.75 Q-274.5 -52.0 -268.75 -59.4 L-262.65 -68.65 -261.4 -70.9 -255.4 -67.9 -246.25 -69.5 -244.0 -69.25 Q-238.5 -73.25 -237.4 -72.9 L-235.4 -77.5 M-195.25 -44.75 L-179.25 -31.75 -178.9 -30.65 -178.15 -29.9 -178.25 -27.9 -177.9 -26.0 -178.75 -23.0 -178.65 -21.15 -181.0 -16.5 -181.0 -15.9 -183.25 -13.15 -184.0 -11.15 -187.25 -10.4 -188.4 -8.4 Q-193.4 -8.9 -193.75 -7.75 L-197.9 -9.15 -198.65 -9.5 -201.5 -10.9 -210.5 -15.5 -208.15 -17.4 -205.9 -20.0 -198.9 -31.4 Q-197.9 -35.25 -197.15 -35.4 L-196.0 -39.25 -195.25 -44.75" fill="url(#gradient48)" fill-rule="evenodd" stroke="none"/>
    <path d="M-207.25 -54.65 L-204.75 -55.25 -198.0 -54.25 -197.25 -53.75 -196.25 -52.15 -195.25 -44.75 -196.0 -39.25 -197.15 -35.4 Q-197.9 -35.25 -198.9 -31.4 L-205.9 -20.0 -208.15 -17.4 -210.5 -15.5 -216.0 -12.25 -217.5 -11.65 -219.25 -13.75 -222.15 -15.75 Q-222.9 -19.15 -221.65 -20.65 L-222.75 -21.5 -222.65 -21.5 -221.25 -20.9 Q-215.65 -18.4 -206.75 -35.65 -200.5 -49.25 -207.25 -54.65" fill="url(#gradient49)" fill-rule="evenodd" stroke="none"/>
    <path d="M-271.9 -46.15 L-271.75 -46.15 -222.75 -21.5 -221.65 -20.65 Q-222.9 -19.15 -222.15 -15.75 L-219.25 -13.75 -256.75 -30.5 -260.65 -35.75 -263.5 -39.75 -269.25 -42.4 -271.9 -46.15 M-281.0 -43.4 L-274.15 -38.5 -281.15 -41.65 -281.0 -43.4 M-210.5 -15.5 L-201.5 -10.9 -201.15 -5.5 -216.0 -12.25 -210.5 -15.5" fill="url(#gradient50)" fill-rule="evenodd" stroke="none"/>
    <path d="M-262.65 -68.65 L-268.75 -59.4 Q-274.5 -52.0 -276.25 -51.75 L-277.25 -53.0 Q-276.55 -53.35 -275.9 -53.75 L-272.5 -56.75 -262.65 -68.65" fill="url(#gradient51)" fill-rule="evenodd" stroke="none"/>
    <path d="M-285.9 -45.65 L-285.75 -46.0 -284.4 -44.65 -283.15 -44.5 -283.4 -43.15 -285.9 -45.65" fill="url(#gradient52)" fill-rule="evenodd" stroke="none"/>
    <path d="M-283.4 -43.15 L-283.15 -44.5 -282.15 -44.4 -281.0 -43.4 -281.15 -41.65 -283.4 -43.15" fill="url(#gradient53)" fill-rule="evenodd" stroke="none"/>
    <path d="M-290.5 -44.15 L-290.75 -43.5 -292.9 -42.75 -296.15 -42.75 -296.75 -43.25 -297.5 -44.65 -293.9 -44.75 -290.5 -44.15" fill="url(#gradient54)" fill-rule="evenodd" stroke="none"/>
    <path d="M-290.75 -43.5 L-289.9 -10.65 -290.0 -9.5 -292.0 -8.65 -294.15 -8.75 -295.65 -9.65 -295.9 -10.5 -296.75 -43.25 -296.15 -42.75 -292.9 -42.75 -290.75 -43.5" fill="url(#gradient55)" fill-rule="evenodd" stroke="none"/>
    <path d="M-179.25 -31.75 Q-169.4 -32.25 -162.65 -21.0 L-162.15 -18.4 -162.75 -12.25 -163.75 -10.4 -167.25 -6.4 -172.15 -3.5 -172.5 -3.75 -173.25 -3.5 -174.65 -2.65 Q-179.9 -0.75 -187.75 -2.5 L-186.0 -2.75 -190.75 -4.65 -196.0 -7.0 -197.9 -9.15 -193.75 -7.75 Q-193.4 -8.9 -188.4 -8.4 L-187.25 -10.4 -184.0 -11.15 -183.25 -13.15 -181.0 -15.9 -181.0 -16.5 -178.65 -21.15 -178.75 -23.0 -177.9 -26.0 -178.25 -27.9 -178.15 -29.9 -178.9 -30.65 -179.25 -31.75" fill="url(#gradient56)" fill-rule="evenodd" stroke="none"/>
    <path d="M-190.75 -4.65 L-195.75 -4.5 -196.0 -7.0 -190.75 -4.65" fill="url(#gradient57)" fill-rule="evenodd" stroke="none"/>
    <path d="M-198.65 -9.5 L-197.9 -9.15 -196.0 -7.0 -195.75 -4.5 -198.15 -4.75 -198.65 -9.5" fill="url(#gradient58)" fill-rule="evenodd" stroke="none"/>
    <path d="M-201.5 -10.9 L-198.65 -9.5 -198.15 -4.75 -201.15 -5.5 -201.5 -10.9" fill="url(#gradient59)" fill-rule="evenodd" stroke="none"/>
    <path d="M-260.65 -35.75 L-267.0 -38.9 -269.25 -42.4 -263.5 -39.75 -260.65 -35.75" fill="url(#gradient60)" fill-rule="evenodd" stroke="none"/>
    <path d="M-289.9 -10.65 L-289.0 -10.25 -288.75 -9.65 -289.15 -8.75 -290.15 -8.15 -293.15 -7.5 -295.0 -7.65 -296.75 -8.25 -297.25 -9.25 -295.9 -10.5 -295.65 -9.65 -294.15 -8.75 -292.0 -8.65 -290.0 -9.5 -289.9 -10.65" fill="url(#gradient61)" fill-rule="evenodd" stroke="none"/>
    <path d="M-332.9 -175.9 L-337.9 -300.0 -320.25 -300.0 -319.5 -289.9 -319.4 -289.4 -319.4 -289.25 -316.75 -277.0 -316.15 -270.9 -316.25 -270.4 -319.9 -260.75 -320.25 -248.0 -320.15 -247.25 -320.4 -242.4 -320.25 -241.65 -320.4 -233.75 -316.4 -214.5 -316.15 -214.0 -315.75 -212.5 -315.75 -212.0 -315.0 -208.75 -314.9 -207.75 -315.4 -200.25 -315.25 -199.15 -315.75 -189.15 -318.15 -186.15 Q-332.65 -178.65 -332.9 -175.9" fill="#ae0000" fill-rule="evenodd" stroke="none"/>
    <path d="M-320.25 -300.0 L-308.5 -300.0 -308.0 -296.0 -308.0 -295.9 -312.5 -279.9 -316.15 -270.9 -316.75 -277.0 -319.4 -289.25 -319.4 -289.4 -319.5 -289.9 -320.25 -300.0 M-314.9 -207.75 L-313.25 -201.0 -313.25 -200.65 -315.4 -200.25 -314.9 -207.75" fill="#b20000" fill-rule="evenodd" stroke="none"/>
    <path d="M-308.5 -300.0 L-296.5 -299.9 -295.15 -300.0 -294.9 -299.4 -295.15 -298.65 -295.0 -298.25 -295.15 -280.9 -295.4 -278.15 -295.4 -277.0 -295.15 -276.25 -294.75 -243.5 -294.5 -243.0 -294.5 -225.5 -294.4 -225.25 -294.25 -217.5 -294.15 -217.15 -293.9 -205.65 -295.65 -179.75 -295.5 -178.15 -295.75 -175.75 -307.25 -178.75 -313.15 -200.65 -313.25 -200.65 -313.25 -201.0 -314.9 -207.75 -315.0 -208.75 -315.75 -212.0 -315.75 -212.5 -316.15 -214.0 -316.4 -214.5 -320.4 -233.75 -320.25 -241.65 -320.4 -242.4 -320.15 -247.25 -320.25 -248.0 -319.9 -260.75 -316.25 -270.4 -316.15 -270.9 -312.5 -279.9 -308.0 -295.9 -308.0 -296.0 -308.5 -300.0" fill="#9f0000" fill-opacity="0.9098039" fill-rule="evenodd" stroke="none"/>
    <path d="M-307.25 -178.75 L-310.4 -179.5 -332.5 -175.65 -332.9 -175.9 Q-332.65 -178.65 -318.15 -186.15 L-315.75 -189.15 -315.25 -199.15 -315.4 -200.25 -313.25 -200.65 -313.15 -200.65 -307.25 -178.75" fill="#af0000" fill-opacity="0.9098039" fill-rule="evenodd" stroke="none"/>
    <path d="M-135.65 -285.5 L-134.15 -300.0 -84.5 -300.0 -83.15 -223.4 -83.9 -191.5 -86.75 -194.25 -90.4 -213.25 -98.65 -229.5 -142.65 -241.9 -142.4 -244.65 -136.25 -246.0 -135.9 -246.0 -136.0 -246.25 -136.25 -247.65 -136.25 -249.15 -136.5 -250.65 -136.5 -252.0 -136.75 -253.75 -136.75 -254.9 -137.15 -256.15 -137.0 -257.65 -137.65 -258.0 -137.75 -258.15 -137.9 -258.25 -137.15 -267.0 -137.25 -267.15 -135.65 -284.5 -135.65 -285.5 M-217.75 -300.0 L-187.25 -300.0 -187.25 -299.9 -187.15 -299.65 -187.15 -299.0 -187.0 -298.75 -187.0 -298.15 -186.9 -297.9 -186.9 -297.15 -184.0 -278.9 -184.25 -276.25 -184.25 -275.0 -184.4 -274.5 -184.4 -273.0 -184.5 -272.65 -184.5 -271.0 -184.65 -270.75 -185.65 -255.15 -187.0 -256.9 -187.4 -256.9 -187.5 -256.5 -187.5 -256.15 -188.15 -254.5 -218.0 -262.5 -217.75 -265.65 -217.9 -294.25 -217.75 -300.0 M-239.25 -279.9 L-241.9 -290.5 -241.75 -292.9 -242.65 -293.15 -243.5 -296.5 -243.4 -296.75 -243.25 -296.9 -243.15 -297.15 -243.0 -297.25 -243.0 -297.4 -242.9 -297.5 -242.5 -298.15 -242.4 -298.25 -242.4 -298.4 -242.15 -298.65 -242.15 -298.75 -241.9 -299.0 -241.75 -299.25 -241.75 -299.4 -241.5 -299.65 -241.5 -299.75 -241.4 -300.0 -240.25 -300.0 -239.25 -279.9" fill="#cb0000" fill-opacity="0.9098039" fill-rule="evenodd" stroke="none"/>
    <path d="M-238.65 -268.0 L-239.0 -277.65 -239.15 -278.5 -239.25 -278.65 -239.25 -279.9 -240.25 -300.0 -220.4 -300.0 -222.9 -263.75 -238.65 -268.0" fill="#d30000" fill-rule="evenodd" stroke="none"/>
    <path d="M-218.25 -261.25 L-218.0 -259.15 -202.25 -177.9 -216.15 -186.5 -223.75 -186.0 -224.9 -174.65 -225.25 -174.75 -227.0 -185.75 -226.25 -214.75 -222.9 -263.75 -220.4 -300.0 -217.75 -300.0 -217.9 -294.25 -219.9 -269.15 -219.9 -268.65 -218.25 -261.25" fill="#d00000" fill-rule="evenodd" stroke="none"/>
    <path d="M-202.25 -177.9 L-202.4 -177.5 -238.15 -165.65 -238.15 -185.15 -238.25 -185.65 -238.4 -200.15 -238.15 -202.0 -236.9 -205.5 -238.65 -268.0 -222.9 -263.75 -226.25 -214.75 -227.0 -185.75 -225.25 -174.75 -224.9 -174.65 -223.75 -186.0 -216.15 -186.5 -202.25 -177.9" fill="#d40000" fill-opacity="0.9098039" fill-rule="evenodd" stroke="none"/>
    <path d="M-218.0 -262.5 L-218.25 -261.25 -219.9 -268.65 -219.9 -269.15 -217.9 -294.25 -217.75 -265.65 -218.0 -262.5" fill="#ab0000" fill-rule="evenodd" stroke="none"/>
    <path d="M-238.15 -165.65 L-249.4 -161.9 -249.75 -161.9 -248.65 -165.15 -248.4 -167.0 -245.65 -175.75 -245.65 -176.25 -241.15 -190.75 -241.25 -191.4 -238.4 -200.15 -238.25 -185.65 -238.15 -185.15 -238.15 -165.65" fill="#c00000" fill-opacity="0.9098039" fill-rule="evenodd" stroke="none"/>
  </g>
  <defs>
    <radialGradient cx="0" cy="0" gradientTransform="matrix(0.0361, 0.0, 0.0, 0.0361, -265.9, -295.05)" gradientUnits="userSpaceOnUse" id="gradient0" r="819.2" spreadMethod="pad">
      <stop offset="0.0" stop-color="#010101"/>
      <stop offset="1.0" stop-color="#000000"/>
    </radialGradient>
    <radialGradient cx="0" cy="0" gradientTransform="matrix(0.0082, 0.0, 0.0, 0.0082, -248.0, -300.0)" gradientUnits="userSpaceOnUse" id="gradient1" r="819.2" spreadMethod="pad">
      <stop offset="0.0" stop-color="#000000"/>
      <stop offset="1.0" stop-color="#000000"/>
    </radialGradient>
    <radialGradient cx="0" cy="0" gradientTransform="matrix(0.1671, 0.0, 0.0, 0.1671, -267.85, -261.75)" gradientUnits="userSpaceOnUse" id="gradient2" r="819.2" spreadMethod="pad">
      <stop offset="0.0" stop-color="#494949"/>
      <stop offset="1.0" stop-color="#000000"/>
    </radialGradient>
    <radialGradient cx="0" cy="0" gradientTransform="matrix(0.2639, 0.0, 0.0, 0.2639, -261.45, -295.05)" gradientUnits="userSpaceOnUse" id="gradient3" r="819.2" spreadMethod="pad">
      <stop offset="0.0" stop-color="#181818"/>
      <stop offset="1.0" stop-color="#000000"/>
    </radialGradient>
    <radialGradient cx="0" cy="0" gradientTransform="matrix(0.028, 0.0, 0.0, 0.028, -263.2, -295.85)" gradientUnits="userSpaceOnUse" id="gradient4" r="819.2" spreadMethod="pad">
      <stop offset="0.0" stop-color="#181818"/>
      <stop offset="1.0" stop-color="#040404"/>
    </radialGradient>
    <radialGradient cx="0" cy="0" gradientTransform="matrix(0.0208, 0.0, 0.0, 0.0208, -308.4, -300.0)" gradientUnits="userSpaceOnUse" id="gradient5" r="819.2" spreadMethod="pad">
      <stop offset="0.0" stop-color="#000000"/>
      <stop offset="1.0" stop-color="#000000"/>
    </radialGradient>
    <radialGradient cx="0" cy="0" gradientTransform="matrix(0.1891, 0.0, 0.0, 0.1891, -312.55, -279.95)" gradientUnits="userSpaceOnUse" id="gradient6" r="819.2" spreadMethod="pad">
      <stop offset="0.0" stop-color="#000000"/>
      <stop offset="1.0" stop-color="#000000"/>
    </radialGradient>
    <radialGradient cx="0" cy="0" gradientTransform="matrix(0.0522, 0.0, 0.0, 0.0522, -298.25, -88.5)" gradientUnits="userSpaceOnUse" id="gradient7" r="819.2" spreadMethod="pad">
      <stop offset="0.0" stop-color="#000000"/>
      <stop offset="1.0" stop-color="#000000"/>
    </radialGradient>
    <radialGradient cx="0" cy="0" gradientTransform="matrix(0.0795, 0.0, 0.0, 0.0795, -245.5, -110.8)" gradientUnits="userSpaceOnUse" id="gradient8" r="819.2" spreadMethod="pad">
      <stop offset="0.0" stop-color="#b3b3b3"/>
      <stop offset="1.0" stop-color="#b1b1b1"/>
    </radialGradient>
    <radialGradient cx="0" cy="0" gradientTransform="matrix(0.0324, 0.0, 0.0, 0.0324, -305.35, -81.25)" gradientUnits="userSpaceOnUse" id="gradient9" r="819.2" spreadMethod="pad">
      <stop offset="0.0" stop-color="#a3a3a3"/>
      <stop offset="1.0" stop-color="#6c6c6c"/>
    </radialGradient>
    <radialGradient cx="0" cy="0" gradientTransform="matrix(0.0894, 0.0, 0.0, 0.0894, -271.2, -45.25)" gradientUnits="userSpaceOnUse" id="gradient10" r="819.2" spreadMethod="pad">
      <stop offset="0.0" stop-color="#737373"/>
      <stop offset="1.0" stop-color="#212121"/>
    </radialGradient>
    <radialGradient cx="0" cy="0" gradientTransform="matrix(0.0753, 0.0, 0.0, 0.0753, -138.45, -300.0)" gradientUnits="userSpaceOnUse" id="gradient11" r="819.2" spreadMethod="pad">
      <stop offset="0.0" stop-color="#212121"/>
      <stop offset="1.0" stop-color="#040404"/>
    </radialGradient>
    <radialGradient cx="0" cy="0" gradientTransform="matrix(0.0612, 0.0, 0.0, 0.0612, -138.45, -300.0)" gradientUnits="userSpaceOnUse" id="gradient12" r="819.2" spreadMethod="pad">
      <stop offset="0.0" stop-color="#212121"/>
      <stop offset="1.0" stop-color="#000000"/>
    </radialGradient>
    <radialGradient cx="0" cy="0" gradientTransform="matrix(0.0663, 0.0, 0.0, 0.0663, -142.85, -258.6)" gradientUnits="userSpaceOnUse" id="gradient13" r="819.2" spreadMethod="pad">
      <stop offset="0.0" stop-color="#939393"/>
      <stop offset="1.0" stop-color="#3b3b3b"/>
    </radialGradient>
    <radialGradient cx="0" cy="0" gradientTransform="matrix(0.1201, 0.0, 0.0, 0.1201, -249.35, -231.9)" gradientUnits="userSpaceOnUse" id="gradient14" r="819.2" spreadMethod="pad">
      <stop offset="0.0" stop-color="#111111"/>
      <stop offset="1.0" stop-color="#000000"/>
    </radialGradient>
    <radialGradient cx="0" cy="0" gradientTransform="matrix(0.0746, 0.0, 0.0, 0.0746, -288.6, -87.65)" gradientUnits="userSpaceOnUse" id="gradient15" r="819.2" spreadMethod="pad">
      <stop offset="0.0" stop-color="#000000"/>
      <stop offset="1.0" stop-color="#000000"/>
    </radialGradient>
    <radialGradient cx="0" cy="0" gradientTransform="matrix(0.0636, 0.0, 0.0, 0.0636, -185.85, -249.4)" gradientUnits="userSpaceOnUse" id="gradient16" r="819.2" spreadMethod="pad">
      <stop offset="0.0" stop-color="#0c0c0c"/>
      <stop offset="1.0" stop-color="#000000"/>
    </radialGradient>
    <radialGradient cx="0" cy="0" gradientTransform="matrix(0.0568, 0.0, 0.0, 0.0568, -158.05, -273.7)" gradientUnits="userSpaceOnUse" id="gradient17" r="819.2" spreadMethod="pad">
      <stop offset="0.0" stop-color="#101010"/>
      <stop offset="1.0" stop-color="#000000"/>
    </radialGradient>
    <radialGradient cx="0" cy="0" gradientTransform="matrix(0.0764, 0.0, 0.0, 0.0764, -139.95, -216.25)" gradientUnits="userSpaceOnUse" id="gradient18" r="819.2" spreadMethod="pad">
      <stop offset="0.0" stop-color="#bdbdbd"/>
      <stop offset="1.0" stop-color="#2a2a2a"/>
    </radialGradient>
    <radialGradient cx="0" cy="0" gradientTransform="matrix(0.0577, 0.0, 0.0, 0.0577, -146.75, -243.9)" gradientUnits="userSpaceOnUse" id="gradient19" r="819.2" spreadMethod="pad">
      <stop offset="0.0" stop-color="#9f9f9f"/>
      <stop offset="1.0" stop-color="#9c9c9c"/>
    </radialGradient>
    <radialGradient cx="0" cy="0" gradientTransform="matrix(0.0281, 0.0, 0.0, 0.0281, -160.4, -241.75)" gradientUnits="userSpaceOnUse" id="gradient20" r="819.2" spreadMethod="pad">
      <stop offset="0.0" stop-color="#7c7c7c"/>
      <stop offset="1.0" stop-color="#020202"/>
    </radialGradient>
    <radialGradient cx="0" cy="0" gradientTransform="matrix(0.029, 0.0, 0.0, 0.029, -158.6, -220.45)" gradientUnits="userSpaceOnUse" id="gradient21" r="819.2" spreadMethod="pad">
      <stop offset="0.0" stop-color="#000000"/>
      <stop offset="1.0" stop-color="#000000"/>
    </radialGradient>
    <radialGradient cx="0" cy="0" gradientTransform="matrix(0.0426, 0.0, 0.0, 0.0426, -154.4, -232.5)" gradientUnits="userSpaceOnUse" id="gradient22" r="819.2" spreadMethod="pad">
      <stop offset="0.0" stop-color="#4d4d4d"/>
      <stop offset="1.0" stop-color="#000000"/>
    </radialGradient>
    <radialGradient cx="0" cy="0" gradientTransform="matrix(0.0697, 0.0, 0.0, 0.0697, -138.3, -232.0)" gradientUnits="userSpaceOnUse" id="gradient23" r="819.2" spreadMethod="pad">
      <stop offset="0.0" stop-color="#0d0d0d"/>
      <stop offset="1.0" stop-color="#000000"/>
    </radialGradient>
    <radialGradient cx="0" cy="0" gradientTransform="matrix(0.0705, 0.0, 0.0, 0.0705, -148.55, -214.6)" gradientUnits="userSpaceOnUse" id="gradient24" r="819.2" spreadMethod="pad">
      <stop offset="0.0" stop-color="#8f8f8f"/>
      <stop offset="1.0" stop-color="#8f8f8f"/>
    </radialGradient>
    <radialGradient cx="0" cy="0" gradientTransform="matrix(0.0375, 0.0, 0.0, 0.0375, -162.95, -212.95)" gradientUnits="userSpaceOnUse" id="gradient25" r="819.2" spreadMethod="pad">
      <stop offset="0.0" stop-color="#a1a1a1"/>
      <stop offset="1.0" stop-color="#757575"/>
    </radialGradient>
    <radialGradient cx="0" cy="0" gradientTransform="matrix(0.0486, 0.0, 0.0, 0.0486, -145.2, -182.35)" gradientUnits="userSpaceOnUse" id="gradient26" r="819.2" spreadMethod="pad">
      <stop offset="0.0" stop-color="#d9d9d9"/>
      <stop offset="1.0" stop-color="#414141"/>
    </radialGradient>
    <radialGradient cx="0" cy="0" gradientTransform="matrix(0.0535, 0.0, 0.0, 0.0535, -159.9, -214.1)" gradientUnits="userSpaceOnUse" id="gradient27" r="819.2" spreadMethod="pad">
      <stop offset="0.0" stop-color="#121212"/>
      <stop offset="1.0" stop-color="#121212"/>
    </radialGradient>
    <radialGradient cx="0" cy="0" gradientTransform="matrix(0.0562, 0.0, 0.0, 0.0562, -148.55, -214.6)" gradientUnits="userSpaceOnUse" id="gradient28" r="819.2" spreadMethod="pad">
      <stop offset="0.0" stop-color="#121212"/>
      <stop offset="1.0" stop-color="#121212"/>
    </radialGradient>
    <radialGradient cx="0" cy="0" gradientTransform="matrix(0.0544, 0.0, 0.0, 0.0544, -147.2, -212.9)" gradientUnits="userSpaceOnUse" id="gradient29" r="819.2" spreadMethod="pad">
      <stop offset="0.0" stop-color="#121212"/>
      <stop offset="1.0" stop-color="#121212"/>
    </radialGradient>
    <radialGradient cx="0" cy="0" gradientTransform="matrix(0.0546, 0.0, 0.0, 0.0546, -145.65, -211.25)" gradientUnits="userSpaceOnUse" id="gradient30" r="819.2" spreadMethod="pad">
      <stop offset="0.0" stop-color="#121212"/>
      <stop offset="1.0" stop-color="#121212"/>
    </radialGradient>
    <radialGradient cx="0" cy="0" gradientTransform="matrix(0.0198, 0.0, 0.0, 0.0198, -171.85, -199.5)" gradientUnits="userSpaceOnUse" id="gradient31" r="819.2" spreadMethod="pad">
      <stop offset="0.0" stop-color="#676767"/>
      <stop offset="1.0" stop-color="#242424"/>
    </radialGradient>
    <radialGradient cx="0" cy="0" gradientTransform="matrix(0.0952, 0.0, 0.0, 0.0952, -116.55, -177.05)" gradientUnits="userSpaceOnUse" id="gradient32" r="819.2" spreadMethod="pad">
      <stop offset="0.0" stop-color="#121212"/>
      <stop offset="1.0" stop-color="#121212"/>
    </radialGradient>
    <radialGradient cx="0" cy="0" gradientTransform="matrix(0.0267, 0.0, 0.0, 0.0267, -115.05, -176.45)" gradientUnits="userSpaceOnUse" id="gradient33" r="819.2" spreadMethod="pad">
      <stop offset="0.0" stop-color="#121212"/>
      <stop offset="1.0" stop-color="#121212"/>
    </radialGradient>
    <radialGradient cx="0" cy="0" gradientTransform="matrix(0.0402, 0.0, 0.0, 0.0402, -171.15, -201.55)" gradientUnits="userSpaceOnUse" id="gradient34" r="819.2" spreadMethod="pad">
      <stop offset="0.0" stop-color="#b3b3b3"/>
      <stop offset="1.0" stop-color="#505050"/>
    </radialGradient>
    <radialGradient cx="0" cy="0" gradientTransform="matrix(0.0328, 0.0, 0.0, 0.0328, -105.85, -194.1)" gradientUnits="userSpaceOnUse" id="gradient35" r="819.2" spreadMethod="pad">
      <stop offset="0.0" stop-color="#dfdfdf"/>
      <stop offset="1.0" stop-color="#505050"/>
    </radialGradient>
    <radialGradient cx="0" cy="0" gradientTransform="matrix(0.025, 0.0, 0.0, 0.025, -145.2, -182.35)" gradientUnits="userSpaceOnUse" id="gradient36" r="819.2" spreadMethod="pad">
      <stop offset="0.0" stop-color="#d9d9d9"/>
      <stop offset="1.0" stop-color="#2b2b2b"/>
    </radialGradient>
    <radialGradient cx="0" cy="0" gradientTransform="matrix(0.0369, 0.0, 0.0, 0.0369, -104.05, -180.1)" gradientUnits="userSpaceOnUse" id="gradient37" r="819.2" spreadMethod="pad">
      <stop offset="0.0" stop-color="#787878"/>
      <stop offset="1.0" stop-color="#767676"/>
    </radialGradient>
    <radialGradient cx="0" cy="0" gradientTransform="matrix(0.0247, 0.0, 0.0, 0.0247, -104.0, -177.85)" gradientUnits="userSpaceOnUse" id="gradient38" r="819.2" spreadMethod="pad">
      <stop offset="0.0" stop-color="#121212"/>
      <stop offset="1.0" stop-color="#121212"/>
    </radialGradient>
    <radialGradient cx="0" cy="0" gradientTransform="matrix(0.0266, 0.0, 0.0, 0.0266, -113.6, -176.05)" gradientUnits="userSpaceOnUse" id="gradient39" r="819.2" spreadMethod="pad">
      <stop offset="0.0" stop-color="#121212"/>
      <stop offset="1.0" stop-color="#121212"/>
    </radialGradient>
    <radialGradient cx="0" cy="0" gradientTransform="matrix(0.0075, 0.0, 0.0, 0.0075, -168.1, -170.0)" gradientUnits="userSpaceOnUse" id="gradient40" r="819.2" spreadMethod="pad">
      <stop offset="0.0" stop-color="#e4e4e4"/>
      <stop offset="1.0" stop-color="#4e4e4e"/>
    </radialGradient>
    <radialGradient cx="0" cy="0" gradientTransform="matrix(0.0599, 0.0, 0.0, 0.0599, -252.35, -92.1)" gradientUnits="userSpaceOnUse" id="gradient41" r="819.2" spreadMethod="pad">
      <stop offset="0.0" stop-color="#000000"/>
      <stop offset="1.0" stop-color="#000000"/>
    </radialGradient>
    <radialGradient cx="0" cy="0" gradientTransform="matrix(0.0572, 0.0, 0.0, 0.0572, -301.95, -135.15)" gradientUnits="userSpaceOnUse" id="gradient42" r="819.2" spreadMethod="pad">
      <stop offset="0.0" stop-color="#020202"/>
      <stop offset="1.0" stop-color="#000000"/>
    </radialGradient>
    <radialGradient cx="0" cy="0" gradientTransform="matrix(0.0905, 0.0, 0.0, 0.0905, -236.4, -101.1)" gradientUnits="userSpaceOnUse" id="gradient43" r="819.2" spreadMethod="pad">
      <stop offset="0.0" stop-color="#9c9c9c"/>
      <stop offset="1.0" stop-color="#444444"/>
    </radialGradient>
    <radialGradient cx="0" cy="0" gradientTransform="matrix(0.0409, 0.0, 0.0, 0.0409, -312.0, -46.5)" gradientUnits="userSpaceOnUse" id="gradient44" r="819.2" spreadMethod="pad">
      <stop offset="0.0" stop-color="#7f7f7f"/>
      <stop offset="1.0" stop-color="#7f7f7f"/>
    </radialGradient>
    <radialGradient cx="0" cy="0" gradientTransform="matrix(0.1478, 0.0, 0.0, 0.1478, -199.1, -2.8)" gradientUnits="userSpaceOnUse" id="gradient45" r="819.2" spreadMethod="pad">
      <stop offset="0.0" stop-color="#555555"/>
      <stop offset="1.0" stop-color="#535353"/>
    </radialGradient>
    <radialGradient cx="0" cy="0" gradientTransform="matrix(0.0308, 0.0, 0.0, 0.0308, -281.4, -69.1)" gradientUnits="userSpaceOnUse" id="gradient46" r="819.2" spreadMethod="pad">
      <stop offset="0.0" stop-color="#989898"/>
      <stop offset="1.0" stop-color="#979797"/>
    </radialGradient>
    <radialGradient cx="0" cy="0" gradientTransform="matrix(0.0468, 0.0, 0.0, 0.0468, -260.6, -82.75)" gradientUnits="userSpaceOnUse" id="gradient47" r="819.2" spreadMethod="pad">
      <stop offset="0.0" stop-color="#272727"/>
      <stop offset="1.0" stop-color="#000000"/>
    </radialGradient>
    <radialGradient cx="0" cy="0" gradientTransform="matrix(0.1264, 0.0, 0.0, 0.1264, -254.55, -85.6)" gradientUnits="userSpaceOnUse" id="gradient48" r="819.2" spreadMethod="pad">
      <stop offset="0.0" stop-color="#1f1f1f"/>
      <stop offset="1.0" stop-color="#000000"/>
    </radialGradient>
    <radialGradient cx="0" cy="0" gradientTransform="matrix(0.0542, 0.0, 0.0, 0.0542, -196.0, -50.05)" gradientUnits="userSpaceOnUse" id="gradient49" r="819.2" spreadMethod="pad">
      <stop offset="0.0" stop-color="#eaeaea"/>
      <stop offset="1.0" stop-color="#383838"/>
    </radialGradient>
    <radialGradient cx="0" cy="0" gradientTransform="matrix(0.1184, 0.0, 0.0, 0.1184, -201.05, -5.5)" gradientUnits="userSpaceOnUse" id="gradient50" r="819.2" spreadMethod="pad">
      <stop offset="0.0" stop-color="#ababab"/>
      <stop offset="1.0" stop-color="#aaaaaa"/>
    </radialGradient>
    <radialGradient cx="0" cy="0" gradientTransform="matrix(0.031, 0.0, 0.0, 0.031, -267.2, -72.35)" gradientUnits="userSpaceOnUse" id="gradient51" r="819.2" spreadMethod="pad">
      <stop offset="0.0" stop-color="#000000"/>
      <stop offset="1.0" stop-color="#000000"/>
    </radialGradient>
    <radialGradient cx="0" cy="0" gradientTransform="matrix(0.0291, 0.0, 0.0, 0.0291, -285.85, -45.65)" gradientUnits="userSpaceOnUse" id="gradient52" r="819.2" spreadMethod="pad">
      <stop offset="0.0" stop-color="#aeaeae"/>
      <stop offset="1.0" stop-color="#aeaeae"/>
    </radialGradient>
    <radialGradient cx="0" cy="0" gradientTransform="matrix(0.0294, 0.0, 0.0, 0.0294, -283.35, -43.05)" gradientUnits="userSpaceOnUse" id="gradient53" r="819.2" spreadMethod="pad">
      <stop offset="0.0" stop-color="#adadad"/>
      <stop offset="1.0" stop-color="#adadad"/>
    </radialGradient>
    <radialGradient cx="0" cy="0" gradientTransform="matrix(0.0097, 0.0, 0.0, 0.0097, -292.05, -42.15)" gradientUnits="userSpaceOnUse" id="gradient54" r="819.2" spreadMethod="pad">
      <stop offset="0.0" stop-color="#515151"/>
      <stop offset="1.0" stop-color="#212121"/>
    </radialGradient>
    <radialGradient cx="0" cy="0" gradientTransform="matrix(0.0446, 0.0, 0.0, 0.0446, -291.05, -44.5)" gradientUnits="userSpaceOnUse" id="gradient55" r="819.2" spreadMethod="pad">
      <stop offset="0.0" stop-color="#a0a0a0"/>
      <stop offset="1.0" stop-color="#4a4a4a"/>
    </radialGradient>
    <radialGradient cx="0" cy="0" gradientTransform="matrix(0.0429, 0.0, 0.0, 0.0429, -167.85, -26.8)" gradientUnits="userSpaceOnUse" id="gradient56" r="819.2" spreadMethod="pad">
      <stop offset="0.0" stop-color="#ededed"/>
      <stop offset="1.0" stop-color="#5a5a5a"/>
    </radialGradient>
    <radialGradient cx="0" cy="0" gradientTransform="matrix(0.034, 0.0, 0.0, 0.034, -172.8, -5.25)" gradientUnits="userSpaceOnUse" id="gradient57" r="819.2" spreadMethod="pad">
      <stop offset="0.0" stop-color="#888888"/>
      <stop offset="1.0" stop-color="#878787"/>
    </radialGradient>
    <radialGradient cx="0" cy="0" gradientTransform="matrix(0.0166, 0.0, 0.0, 0.0166, -198.1, -4.75)" gradientUnits="userSpaceOnUse" id="gradient58" r="819.2" spreadMethod="pad">
      <stop offset="0.0" stop-color="#939393"/>
      <stop offset="1.0" stop-color="#939393"/>
    </radialGradient>
    <radialGradient cx="0" cy="0" gradientTransform="matrix(0.0181, 0.0, 0.0, 0.0181, -198.1, -4.75)" gradientUnits="userSpaceOnUse" id="gradient59" r="819.2" spreadMethod="pad">
      <stop offset="0.0" stop-color="#a0a0a0"/>
      <stop offset="1.0" stop-color="#a0a0a0"/>
    </radialGradient>
    <radialGradient cx="0" cy="0" gradientTransform="matrix(0.023, 0.0, 0.0, 0.023, -270.6, -43.2)" gradientUnits="userSpaceOnUse" id="gradient60" r="819.2" spreadMethod="pad">
      <stop offset="0.0" stop-color="#eeeeee"/>
      <stop offset="1.0" stop-color="#eaeaea"/>
    </radialGradient>
    <radialGradient cx="0" cy="0" gradientTransform="matrix(0.009, 0.0, 0.0, 0.009, -289.9, -10.45)" gradientUnits="userSpaceOnUse" id="gradient61" r="819.2" spreadMethod="pad">
      <stop offset="0.0" stop-color="#f2f2f2"/>
      <stop offset="1.0" stop-color="#545454"/>
    </radialGradient>
  </defs>
</svg>
