<?xml version="1.0" encoding="UTF-8" standalone="no"?>
<svg xmlns:xlink="http://www.w3.org/1999/xlink" height="297.1px" width="238.15px" xmlns="http://www.w3.org/2000/svg">
  <g transform="matrix(1.0, 0.0, 0.0, 1.0, 313.4, 300.0)">
    <path d="M-265.9 -300.0 L-218.25 -300.0 -219.65 -295.5 -235.25 -293.9 -241.75 -293.9 -243.9 -294.15 -244.75 -294.5 -245.15 -294.25 -247.5 -294.0 -262.15 -294.25 -265.9 -300.0" fill="url(#gradient0)" fill-rule="evenodd" stroke="none"/>
    <path d="M-216.15 -295.4 L-219.65 -295.5 -218.25 -300.0 -213.0 -300.0 -216.15 -295.4" fill="url(#gradient1)" fill-rule="evenodd" stroke="none"/>
    <path d="M-219.65 -295.5 L-220.75 -276.4 -220.5 -205.25 -220.75 -181.0 -220.4 -155.75 -220.65 -132.65 -261.9 -125.25 -263.9 -166.25 -271.75 -198.65 -272.15 -199.0 -278.5 -231.25 -279.15 -259.75 -265.65 -276.0 -262.15 -294.25 -247.5 -294.0 -244.4 -291.9 -241.75 -293.9 -235.25 -293.9 -219.65 -295.5" fill="url(#gradient2)" fill-rule="evenodd" stroke="none"/>
    <path d="M-276.4 -107.65 L-276.75 -121.75 -276.65 -122.65 -276.25 -120.5 -274.15 -99.9 -276.25 -102.0 -276.4 -107.65 M-241.75 -293.9 L-244.4 -291.9 -247.5 -294.0 -245.15 -294.25 -243.9 -294.15 -241.75 -293.9 M-224.65 -99.9 L-222.15 -107.15 -218.15 -108.65 -217.0 -114.15 -216.75 -102.5 Q-218.65 -97.15 -234.5 -95.4 L-231.4 -100.75 -230.25 -100.65 -225.25 -98.65 -224.9 -98.65 -224.65 -99.9 M-267.0 -96.65 L-266.25 -99.25 -265.75 -98.65 -265.15 -96.15 -267.0 -96.65 M-254.65 -78.9 L-254.9 -78.4 -257.65 -78.9 -254.65 -78.9 M-252.9 -94.65 L-255.75 -94.75 -255.4 -95.65 -252.9 -94.65" fill="url(#gradient3)" fill-rule="evenodd" stroke="none"/>
    <path d="M-243.9 -294.15 L-245.15 -294.25 -244.75 -294.5 -243.9 -294.15" fill="url(#gradient4)" fill-rule="evenodd" stroke="none"/>
    <path d="M-280.9 -294.65 L-281.5 -300.0 -265.9 -300.0 -262.15 -294.25 -280.5 -295.15 -280.9 -294.65" fill="url(#gradient5)" fill-rule="evenodd" stroke="none"/>
    <path d="M-277.4 -129.25 L-277.4 -129.65 -277.75 -131.4 -278.75 -171.75 -285.75 -199.65 -292.9 -233.5 -292.15 -259.65 -287.4 -272.75 -286.65 -274.0 -286.5 -275.15 -285.4 -277.4 -280.9 -294.65 -280.5 -295.15 -262.15 -294.25 -265.65 -276.0 -279.15 -259.75 -278.5 -231.25 -272.15 -199.0 -271.75 -198.65 -263.9 -166.25 -261.9 -125.25 -277.4 -129.25" fill="url(#gradient6)" fill-rule="evenodd" stroke="none"/>
    <path d="M-261.9 -125.25 L-220.65 -132.65 -224.65 -99.9 -224.9 -98.65 -225.25 -98.65 -230.25 -100.65 -231.4 -100.75 -234.5 -95.4 -240.0 -94.25 -252.9 -94.65 -255.4 -95.65 -255.75 -94.75 -261.9 -95.15 -261.9 -125.25" fill="url(#gradient7)" fill-rule="evenodd" stroke="none"/>
    <path d="M-216.15 -295.4 L-212.65 -276.65 -213.0 -138.25 -220.65 -132.65 -220.4 -155.75 -220.75 -181.0 -220.5 -205.25 -220.75 -276.4 -219.65 -295.5 -216.15 -295.4" fill="url(#gradient8)" fill-rule="evenodd" stroke="none"/>
    <path d="M-134.25 -257.9 L-144.0 -257.4 -162.9 -255.5 -161.9 -277.65 -164.75 -300.0 -130.5 -300.0 -134.25 -257.9" fill="url(#gradient9)" fill-rule="evenodd" stroke="none"/>
    <path d="M-131.65 -257.75 L-134.25 -257.9 -130.5 -300.0 -127.75 -300.0 -131.65 -257.75" fill="url(#gradient10)" fill-rule="evenodd" stroke="none"/>
    <path d="M-134.25 -257.9 L-131.65 -257.75 -130.65 -257.65 -129.65 -246.15 -135.15 -246.15 -164.5 -243.15 -175.15 -241.75 -175.4 -241.65 -175.9 -241.65 -177.25 -253.15 -176.15 -253.65 -162.9 -255.5 -144.0 -257.4 -134.25 -257.9 M-186.25 -239.5 L-187.75 -251.0 -184.4 -252.15 -179.75 -253.0 -181.4 -247.15 -185.25 -246.4 -185.25 -239.75 -186.25 -239.5" fill="url(#gradient11)" fill-rule="evenodd" stroke="none"/>
    <path d="M-162.9 -255.5 L-176.15 -253.65 -176.4 -254.0 -174.4 -278.4 -176.0 -282.25 -176.4 -281.9 -176.5 -276.75 -178.4 -256.4 -178.75 -256.4 -177.5 -278.25 -180.5 -299.9 -164.75 -300.0 -161.9 -277.65 -162.9 -255.5" fill="url(#gradient12)" fill-rule="evenodd" stroke="none"/>
    <path d="M-176.15 -253.65 L-177.25 -253.15 -175.9 -241.65 -175.4 -241.65 -175.15 -241.75 -164.5 -243.15 -164.0 -242.75 -163.25 -240.9 -161.15 -239.9 -153.75 -236.0 -142.25 -229.0 -136.75 -224.5 -135.9 -223.0 -134.9 -221.15 -132.15 -216.0 -130.4 -210.25 -128.25 -207.0 -127.15 -202.9 -129.25 -205.15 Q-129.4 -206.4 -132.15 -209.25 L-137.5 -214.25 -139.0 -216.0 -142.75 -216.75 -143.25 -216.75 -143.75 -216.65 -144.15 -216.65 -158.25 -214.75 -158.4 -214.75 -159.5 -214.65 -160.25 -214.5 -160.65 -214.5 -161.25 -214.4 -161.75 -214.4 -162.25 -214.25 -162.9 -214.25 -163.4 -214.15 -172.5 -213.15 -171.4 -211.5 -149.9 -213.75 -144.75 -214.4 -141.5 -214.15 -152.5 -212.75 -158.75 -212.0 -174.9 -210.25 -175.5 -210.15 -185.0 -209.25 -185.0 -209.9 -175.4 -211.0 -174.65 -212.9 -181.9 -212.15 -182.5 -212.0 -183.0 -212.0 -185.4 -212.0 -187.5 -230.5 -187.5 -231.65 -185.4 -237.0 -185.25 -239.15 -185.25 -239.75 -185.25 -246.4 -181.4 -247.15 -179.75 -253.0 -178.65 -255.75 -178.75 -256.4 -178.4 -256.4 -176.4 -254.0 -176.15 -253.65" fill="url(#gradient13)" fill-rule="evenodd" stroke="none"/>
    <path d="M-164.5 -243.15 L-135.15 -246.15 -129.65 -246.15 -130.15 -245.5 -135.5 -244.5 -135.4 -245.4 -139.65 -245.4 -164.0 -242.75 -164.5 -243.15 M-185.25 -239.15 L-186.25 -239.5 -185.25 -239.75 -185.25 -239.15" fill="url(#gradient14)" fill-rule="evenodd" stroke="none"/>
    <path d="M-164.0 -242.75 L-139.65 -245.4 -135.4 -245.4 -135.5 -244.5 -135.9 -239.5 -138.5 -239.65 -138.5 -239.25 -144.25 -239.5 -144.5 -239.15 -161.15 -239.9 -163.25 -240.9 -164.0 -242.75 M-178.4 -256.4 L-176.5 -276.75 -176.4 -281.9 -176.0 -282.25 -174.4 -278.4 -176.4 -254.0 -178.4 -256.4" fill="url(#gradient15)" fill-rule="evenodd" stroke="none"/>
    <path d="M-135.9 -239.5 L-135.0 -235.75 -135.0 -231.4 -135.5 -229.4 -135.65 -229.9 -136.65 -229.75 -138.25 -228.15 -139.75 -230.0 -141.15 -229.75 -142.25 -229.0 -153.75 -236.0 -161.15 -239.9 -144.5 -239.15 -144.25 -239.5 -138.5 -239.25 -138.5 -239.65 -135.9 -239.5" fill="url(#gradient16)" fill-rule="evenodd" stroke="none"/>
    <path d="M-135.0 -235.75 L-134.4 -235.65 -131.65 -231.25 Q-131.0 -225.15 -134.9 -221.15 L-135.9 -223.0 -135.25 -226.0 -135.5 -229.4 -135.0 -231.4 -135.0 -235.75" fill="url(#gradient17)" fill-rule="evenodd" stroke="none"/>
    <path d="M-134.4 -235.65 L-117.65 -211.4 -114.0 -206.15 -114.25 -201.65 -117.15 -196.65 -117.9 -194.65 -121.15 -191.25 -129.4 -202.9 -127.15 -202.9 -128.25 -207.0 -130.4 -210.25 -132.15 -216.0 -134.9 -221.15 Q-131.0 -225.15 -131.65 -231.25 L-134.4 -235.65 M-108.15 -197.4 L-106.9 -195.75 Q-99.9 -187.25 -114.5 -181.9 L-116.65 -184.9 Q-108.9 -191.4 -108.15 -197.4 M-162.25 -202.4 L-157.4 -202.0 -154.5 -202.4 -153.75 -201.0 Q-161.9 -199.9 -162.5 -201.65 L-162.25 -202.4" fill="url(#gradient18)" fill-rule="evenodd" stroke="none"/>
    <path d="M-142.25 -229.0 L-141.15 -229.75 -139.75 -230.0 -138.25 -228.15 -136.65 -229.75 -135.65 -229.9 -135.5 -229.4 -135.25 -226.0 -135.9 -223.0 -136.75 -224.5 -142.25 -229.0 M-150.0 -209.75 Q-145.5 -203.25 -154.5 -202.4 L-157.4 -202.0 -162.25 -202.4 -158.75 -212.0 -152.5 -212.75 -151.4 -211.4 -150.0 -209.75 M-174.9 -210.25 L-173.9 -208.75 -174.15 -208.9 -175.5 -210.15 -174.9 -210.25" fill="url(#gradient19)" fill-rule="evenodd" stroke="none"/>
    <path d="M-102.5 -180.65 L-101.75 -180.65 -101.5 -179.75 -101.75 -178.5 -103.4 -178.75 -104.65 -178.25 -110.4 -176.5 -111.65 -176.9 -113.0 -177.5 -137.25 -211.0 -138.65 -212.65 -139.75 -214.25 -142.75 -214.75 -144.75 -214.4 -149.9 -213.75 -150.25 -215.65 -144.15 -216.65 -143.75 -216.65 -143.25 -216.75 -142.75 -216.75 -139.0 -216.0 -137.5 -214.25 -129.4 -202.9 -121.15 -191.25 Q-116.75 -185.9 -117.15 -184.65 L-116.65 -184.9 -114.5 -181.9 -112.4 -178.9 -111.9 -178.9 -110.15 -178.65 -102.5 -180.65" fill="url(#gradient20)" fill-rule="evenodd" stroke="none"/>
    <path d="M-127.15 -202.9 L-129.4 -202.9 -137.5 -214.25 -132.15 -209.25 Q-129.4 -206.4 -129.25 -205.15 L-127.15 -202.9" fill="url(#gradient21)" fill-rule="evenodd" stroke="none"/>
    <path d="M-193.0 -210.9 L-185.4 -212.0 -183.0 -212.0 -193.0 -210.9 M-144.15 -216.65 L-150.25 -215.65 -158.25 -214.75 -144.15 -216.65" fill="url(#gradient22)" fill-rule="evenodd" stroke="none"/>
    <path d="M-187.0 -209.75 L-195.65 -208.75 -196.0 -210.5 -195.5 -210.5 -194.25 -210.75 -193.9 -210.75 -193.15 -210.9 -193.0 -210.9 -183.0 -212.0 -182.5 -212.0 -181.9 -212.15 -174.65 -212.9 -175.4 -211.0 -185.0 -209.9 -187.0 -209.75 M-150.25 -215.65 L-149.9 -213.75 -171.4 -211.5 -172.5 -213.15 -163.4 -214.15 -162.9 -214.25 -162.25 -214.25 -161.75 -214.4 -161.25 -214.4 -160.65 -214.5 -160.25 -214.5 -159.5 -214.65 -158.4 -214.75 -158.25 -214.75 -150.25 -215.65" fill="url(#gradient23)" fill-rule="evenodd" stroke="none"/>
    <path d="M-185.0 -209.25 L-187.0 -209.75 -185.0 -209.9 -185.0 -209.25 M-144.75 -214.4 L-142.75 -214.75 -139.75 -214.25 -141.5 -214.15 -144.75 -214.4" fill="url(#gradient24)" fill-rule="evenodd" stroke="none"/>
    <path d="M-183.9 -207.9 L-185.0 -209.25 -175.5 -210.15 -174.15 -208.9 -183.9 -207.9 M-139.75 -214.25 L-138.65 -212.65 -151.4 -211.4 -152.5 -212.75 -141.5 -214.15 -139.75 -214.25" fill="url(#gradient25)" fill-rule="evenodd" stroke="none"/>
    <path d="M-158.75 -212.0 L-162.25 -202.4 -162.5 -201.65 -162.9 -200.5 -167.75 -199.4 -172.9 -207.4 -173.9 -208.75 -174.9 -210.25 -158.75 -212.0" fill="url(#gradient26)" fill-rule="evenodd" stroke="none"/>
    <path d="M-182.4 -206.4 L-183.9 -207.9 -174.15 -208.9 -173.9 -208.75 -172.9 -207.4 -182.4 -206.4 M-138.65 -212.65 L-137.25 -211.0 -150.0 -209.75 -151.4 -211.4 -138.65 -212.65" fill="url(#gradient27)" fill-rule="evenodd" stroke="none"/>
    <path d="M-133.9 -176.0 L-162.0 -193.4 -162.9 -200.5 -162.5 -201.65 Q-161.9 -199.9 -153.75 -201.0 L-154.5 -202.4 Q-145.5 -203.25 -150.0 -209.75 L-137.25 -211.0 -113.0 -177.5 -133.9 -176.0 M-167.4 -197.0 L-182.4 -206.4 -172.9 -207.4 -167.75 -199.4 -167.4 -197.0 M-127.5 -182.0 L-131.15 -181.75 -127.75 -181.65 -126.0 -181.9 -127.5 -182.0 M-121.25 -182.9 L-122.0 -182.5 -120.9 -182.4 -120.5 -184.75 Q-126.5 -187.0 -121.25 -182.9 M-139.75 -182.25 L-140.5 -184.0 -139.5 -184.5 -140.0 -184.65 -141.5 -184.4 -141.25 -182.4 -139.25 -181.15 -137.4 -182.0 -139.75 -182.25" fill="url(#gradient28)" fill-rule="evenodd" stroke="none"/>
    <path d="M-132.65 -175.4 L-133.9 -176.0 -113.0 -177.5 -111.65 -176.9 -132.65 -175.4" fill="url(#gradient29)" fill-rule="evenodd" stroke="none"/>
    <path d="M-162.0 -193.4 L-159.5 -169.9 -164.65 -170.0 -167.4 -197.0 -167.75 -199.4 -162.9 -200.5 -162.0 -193.4" fill="url(#gradient30)" fill-rule="evenodd" stroke="none"/>
    <path d="M-117.65 -211.4 Q-107.9 -210.5 -108.15 -197.4 -108.9 -191.4 -116.65 -184.9 L-117.15 -184.65 Q-116.75 -185.9 -121.15 -191.25 L-117.9 -194.65 -117.15 -196.65 -114.25 -201.65 -114.0 -206.15 -117.65 -211.4 M-120.9 -182.4 L-121.25 -182.9 Q-126.5 -187.0 -120.5 -184.75 L-120.9 -182.4 M-139.25 -181.15 L-141.25 -182.4 -141.5 -184.4 -140.0 -184.65 -139.5 -184.5 -140.5 -184.0 -139.75 -182.25 -139.25 -181.15" fill="url(#gradient31)" fill-rule="evenodd" stroke="none"/>
    <path d="M-106.9 -195.75 Q-101.15 -194.9 -100.4 -189.15 L-100.4 -187.5 -101.0 -185.25 -104.5 -180.5 -107.0 -179.65 -111.9 -178.9 -112.4 -178.9 -114.5 -181.9 Q-99.9 -187.25 -106.9 -195.75 M-111.65 -176.5 Q-115.75 -174.4 -121.5 -175.75 L-111.65 -176.5" fill="url(#gradient32)" fill-rule="evenodd" stroke="none"/>
    <path d="M-127.5 -182.0 L-126.0 -181.9 -127.75 -181.65 -131.15 -181.75 -127.5 -182.0 M-120.9 -182.4 L-122.0 -182.5 -121.25 -182.9 -120.9 -182.4 M-139.25 -181.15 L-139.75 -182.25 -137.4 -182.0 -139.25 -181.15" fill="url(#gradient33)" fill-rule="evenodd" stroke="none"/>
    <path d="M-104.5 -180.5 L-102.5 -180.65 -110.15 -178.65 -111.9 -178.9 -107.0 -179.65 -104.5 -180.5" fill="url(#gradient34)" fill-rule="evenodd" stroke="none"/>
    <path d="M-101.75 -178.5 L-104.65 -178.25 -103.4 -178.75 -101.75 -178.5" fill="url(#gradient35)" fill-rule="evenodd" stroke="none"/>
    <path d="M-110.4 -176.5 L-111.65 -176.5 -121.5 -175.75 -129.9 -175.15 -132.65 -175.4 -111.65 -176.9 -110.4 -176.5" fill="url(#gradient36)" fill-rule="evenodd" stroke="none"/>
    <path d="M-159.5 -169.9 L-158.9 -169.5 -159.15 -169.15 -165.9 -168.5 -164.65 -170.0 -159.5 -169.9" fill="url(#gradient37)" fill-rule="evenodd" stroke="none"/>
    <path d="M-220.65 -132.65 L-213.0 -138.25 -215.75 -107.9 -216.15 -102.9 -216.75 -102.5 -217.0 -114.15 -218.15 -108.65 -222.15 -107.15 -224.65 -99.9 -220.65 -132.65" fill="url(#gradient38)" fill-rule="evenodd" stroke="none"/>
    <path d="M-215.75 -107.9 L-214.25 -107.4 Q-210.0 -104.75 -210.0 -103.75 -210.9 -94.9 -244.0 -92.75 -282.15 -92.5 -285.75 -101.0 L-285.75 -101.5 -285.15 -101.5 -285.25 -102.15 -283.15 -104.9 -276.4 -107.65 -276.25 -102.0 -274.15 -99.9 -273.9 -98.25 -267.0 -96.65 -265.15 -96.15 -261.9 -95.15 -255.75 -94.75 -252.9 -94.65 -240.0 -94.25 -234.5 -95.4 Q-218.65 -97.15 -216.75 -102.5 L-216.15 -102.9 -215.75 -107.9" fill="url(#gradient39)" fill-rule="evenodd" stroke="none"/>
    <path d="M-276.75 -121.75 L-277.4 -129.25 -261.9 -125.25 -261.9 -95.15 -265.15 -96.15 -265.75 -98.65 -266.25 -99.25 -267.0 -96.65 -273.9 -98.25 -274.15 -99.9 -276.25 -120.5 -276.65 -122.65 -276.75 -121.75" fill="url(#gradient40)" fill-rule="evenodd" stroke="none"/>
    <path d="M-284.5 -56.4 L-285.25 -87.5 -284.75 -87.0 -283.0 -84.75 -282.65 -84.4 -282.5 -84.15 -280.9 -83.4 -280.5 -81.0 -275.65 -74.4 -274.4 -72.0 -273.4 -71.4 -262.4 -61.0 -252.5 -54.75 -250.15 -52.25 -248.9 -50.65 -243.4 -43.5 -243.15 -43.25 -241.0 -39.9 -239.75 -37.75 -235.9 -36.0 -232.9 -34.15 -230.0 -29.65 -234.25 -31.0 -243.75 -35.15 -246.4 -37.0 -254.15 -42.25 -255.25 -43.15 -256.15 -43.15 -257.15 -43.25 -258.5 -44.65 -262.15 -45.5 -266.65 -47.25 -273.9 -48.65 -281.9 -52.25 -283.15 -54.75 -284.5 -56.4 M-285.75 -101.5 L-285.65 -103.65 -285.25 -102.15 -285.15 -101.5 -285.75 -101.5 M-285.75 -104.65 L-285.65 -104.4 -285.65 -103.75 -285.75 -104.65" fill="url(#gradient41)" fill-rule="evenodd" stroke="none"/>
    <path d="M-210.0 -103.75 L-210.0 -90.75 Q-210.65 -86.75 -211.65 -86.65 -225.9 -77.75 -254.65 -78.9 L-257.65 -78.9 -264.15 -79.5 -274.5 -81.15 -280.9 -83.4 -282.5 -84.15 -282.65 -84.4 -283.0 -84.75 -284.75 -87.0 -285.25 -87.5 -285.4 -87.75 -285.4 -88.0 -285.5 -88.4 -285.5 -93.25 -285.65 -93.65 -285.65 -98.5 -285.75 -98.9 -285.75 -101.0 Q-282.15 -92.5 -244.0 -92.75 -210.9 -94.9 -210.0 -103.75" fill="url(#gradient42)" fill-rule="evenodd" stroke="none"/>
    <path d="M-284.65 -44.4 L-284.5 -56.4 -283.15 -54.75 -281.9 -52.25 -273.9 -48.65 -266.65 -47.25 -266.65 -45.5 -284.65 -44.4" fill="url(#gradient43)" fill-rule="evenodd" stroke="none"/>
    <path d="M-148.9 -5.15 L-149.75 -4.0 -151.65 -4.25 -149.4 -5.25 -148.9 -5.15 M-164.4 -3.65 L-172.15 -2.9 -178.65 -4.5 -256.25 -38.5 -261.75 -42.5 -266.65 -43.0 -273.65 -42.75 -284.25 -42.25 -284.65 -44.4 -266.65 -45.5 -258.4 -44.15 -256.0 -41.75 -253.75 -40.25 -246.4 -37.0 -243.75 -35.15 -234.25 -31.0 -230.0 -29.65 -194.5 -14.0 -193.65 -13.4 -192.75 -11.9 -191.15 -12.5 -177.15 -6.25 -174.25 -5.65 -171.9 -5.4 -166.75 -5.65 -162.25 -3.9 -164.4 -3.65" fill="url(#gradient44)" fill-rule="evenodd" stroke="none"/>
    <path d="M-258.4 -44.15 L-266.65 -45.5 -266.65 -47.25 -262.15 -45.5 -258.5 -44.65 -258.4 -44.15" fill="url(#gradient45)" fill-rule="evenodd" stroke="none"/>
    <path d="M-274.5 -81.15 L-274.65 -77.65 -273.4 -71.4 -274.4 -72.0 -275.65 -74.4 -280.5 -81.0 -280.9 -83.4 -274.5 -81.15" fill="url(#gradient46)" fill-rule="evenodd" stroke="none"/>
    <path d="M-211.65 -86.65 L-211.25 -81.75 -211.75 -76.25 -212.65 -72.4 Q-213.65 -72.65 -217.9 -68.75 L-219.9 -68.9 -228.15 -67.0 -233.9 -70.0 -234.9 -68.15 -242.4 -59.0 -245.65 -55.75 -250.15 -52.25 -252.5 -54.75 -262.4 -61.0 -273.4 -71.4 -274.65 -77.65 -274.5 -81.15 -264.15 -79.5 -257.65 -78.9 -254.9 -78.4 -254.65 -78.9 Q-225.9 -77.75 -211.65 -86.65" fill="url(#gradient47)" fill-rule="evenodd" stroke="none"/>
    <path d="M-211.75 -76.25 L-185.65 -55.15 -185.5 -55.0 Q-175.9 -49.0 -182.25 -34.25 -189.5 -17.9 -198.9 -21.75 L-199.15 -21.75 -243.0 -43.25 -243.15 -43.25 -243.4 -43.5 -248.9 -50.65 -246.15 -52.5 -240.25 -59.15 -234.9 -68.15 -233.9 -70.0 -228.15 -67.0 -219.9 -68.9 -217.9 -68.75 Q-213.65 -72.65 -212.65 -72.4 L-211.75 -76.25 M-171.9 -44.0 L-158.15 -32.9 -156.0 -31.15 Q-155.65 -27.65 -154.9 -27.4 L-155.4 -25.15 -155.15 -22.25 -157.0 -17.65 -156.9 -17.15 -159.0 -14.5 -159.75 -12.4 -163.0 -11.5 -164.25 -9.5 -164.9 -9.4 Q-169.75 -9.75 -170.15 -8.75 L-174.65 -9.9 -174.75 -9.9 -175.0 -10.15 -175.65 -10.4 -175.75 -10.4 -177.0 -11.15 -178.75 -11.9 -178.9 -11.9 -186.15 -15.65 Q-181.15 -17.9 -174.25 -31.75 L-174.0 -33.15 -173.0 -34.9 -173.15 -35.5 -172.25 -38.4 -171.9 -44.0" fill="url(#gradient48)" fill-rule="evenodd" stroke="none"/>
    <path d="M-185.65 -55.15 L-183.65 -55.65 -178.15 -55.0 -175.0 -54.15 Q-173.4 -53.0 -172.9 -51.15 L-171.9 -44.0 -172.25 -38.4 -173.15 -35.5 -173.0 -34.9 -174.0 -33.15 -174.25 -31.75 Q-181.15 -17.9 -186.15 -15.65 L-191.15 -12.5 -192.75 -11.9 -193.65 -13.4 -194.5 -14.0 -197.15 -15.75 -198.4 -18.75 -197.5 -20.75 -198.65 -21.0 -199.5 -21.65 -199.15 -21.75 -198.9 -21.75 Q-189.5 -17.9 -182.25 -34.25 -175.9 -49.0 -185.5 -55.0 L-185.65 -55.15" fill="url(#gradient49)" fill-rule="evenodd" stroke="none"/>
    <path d="M-243.15 -43.25 L-243.0 -43.25 -199.15 -21.75 -199.5 -21.65 -198.65 -21.0 -197.5 -20.75 -198.4 -18.75 -197.15 -15.75 -194.5 -14.0 -230.0 -29.65 -232.9 -34.15 -235.9 -36.0 -238.25 -38.75 -241.0 -39.9 -243.15 -43.25 M-254.15 -42.25 L-246.4 -37.0 -253.75 -40.25 -254.15 -42.25 M-186.15 -15.65 L-178.9 -11.9 -177.15 -6.25 -191.15 -12.5 -186.15 -15.65" fill="url(#gradient50)" fill-rule="evenodd" stroke="none"/>
    <path d="M-250.15 -52.25 L-245.65 -55.75 -242.4 -59.0 -234.9 -68.15 -240.25 -59.15 -246.15 -52.5 -248.9 -50.65 -250.15 -52.25" fill="url(#gradient51)" fill-rule="evenodd" stroke="none"/>
    <path d="M-256.0 -41.75 L-258.4 -44.15 -258.5 -44.65 -257.15 -43.25 -256.15 -43.15 -256.0 -41.75" fill="url(#gradient52)" fill-rule="evenodd" stroke="none"/>
    <path d="M-253.75 -40.25 L-256.0 -41.75 -256.15 -43.15 -255.25 -43.15 -254.15 -42.25 -253.75 -40.25" fill="url(#gradient53)" fill-rule="evenodd" stroke="none"/>
    <path d="M-266.65 -43.0 L-267.15 -41.9 -267.75 -41.4 -269.65 -41.0 -273.0 -41.4 -273.65 -42.75 -266.65 -43.0" fill="url(#gradient54)" fill-rule="evenodd" stroke="none"/>
    <path d="M-267.15 -41.9 L-266.5 -8.9 -266.65 -7.75 -268.5 -6.9 -271.5 -7.25 -272.25 -8.0 -272.5 -9.0 -273.0 -41.4 -269.65 -41.0 -267.75 -41.4 -267.15 -41.9" fill="url(#gradient55)" fill-rule="evenodd" stroke="none"/>
    <path d="M-241.0 -39.9 L-238.25 -38.75 -235.9 -36.0 -239.75 -37.75 -241.0 -39.9" fill="url(#gradient56)" fill-rule="evenodd" stroke="none"/>
    <path d="M-178.9 -11.9 L-178.75 -11.9 -177.0 -11.15 -175.75 -10.4 -174.25 -5.65 -177.15 -6.25 -178.9 -11.9" fill="url(#gradient57)" fill-rule="evenodd" stroke="none"/>
    <path d="M-175.75 -10.4 L-175.65 -10.4 -175.0 -10.15 -174.75 -9.9 -173.4 -8.15 -172.75 -7.9 -171.9 -5.4 -174.25 -5.65 -175.75 -10.4" fill="url(#gradient58)" fill-rule="evenodd" stroke="none"/>
    <path d="M-158.15 -32.9 Q-148.5 -33.65 -141.0 -22.65 L-140.0 -17.4 -140.25 -14.4 -143.25 -9.15 -145.15 -7.4 -148.9 -5.15 -149.4 -5.25 -151.65 -4.25 Q-156.25 -2.15 -164.4 -3.65 L-162.25 -3.9 -166.75 -5.65 -172.75 -7.9 -173.4 -8.15 -174.75 -9.9 -174.65 -9.9 -170.15 -8.75 Q-169.75 -9.75 -164.9 -9.4 L-164.25 -9.5 -163.0 -11.5 -159.75 -12.4 -159.0 -14.5 -156.9 -17.15 -157.0 -17.65 -155.15 -22.25 -155.4 -25.15 -154.9 -27.4 Q-155.65 -27.65 -156.0 -31.15 L-158.15 -32.9" fill="url(#gradient59)" fill-rule="evenodd" stroke="none"/>
    <path d="M-172.75 -7.9 L-166.75 -5.65 -171.9 -5.4 -172.75 -7.9" fill="url(#gradient60)" fill-rule="evenodd" stroke="none"/>
    <path d="M-266.5 -8.9 Q-264.25 -6.4 -269.15 -5.75 L-271.4 -5.75 -273.5 -6.5 -274.0 -7.25 -273.75 -8.15 -272.5 -9.0 -272.25 -8.0 -271.5 -7.25 -268.5 -6.9 -266.65 -7.75 -266.5 -8.9" fill="url(#gradient61)" fill-rule="evenodd" stroke="none"/>
    <path d="M-305.65 -176.75 L-307.5 -235.9 -307.15 -234.15 -307.5 -236.75 -307.65 -237.65 -307.65 -238.65 -307.75 -239.5 -307.65 -240.4 -308.0 -252.25 -307.65 -251.5 -308.0 -252.75 -308.0 -253.25 -308.15 -253.65 -308.25 -254.65 -308.15 -255.15 -309.4 -300.0 -299.9 -300.0 -298.4 -279.0 -295.65 -221.75 -295.65 -200.9 -295.9 -184.75 -305.4 -177.75 -305.65 -176.75 M-311.4 -265.5 L-311.5 -265.9 -311.5 -266.4 -311.65 -266.65 -311.65 -266.9 -311.65 -267.25 -308.65 -256.15 -308.75 -255.65 -310.75 -263.25 -311.4 -265.5" fill="#ae0000" fill-rule="evenodd" stroke="none"/>
    <path d="M-299.9 -300.0 L-291.9 -300.0 -289.75 -266.5 -292.15 -259.75 -292.25 -259.15 -292.75 -258.65 -292.4 -258.65 -292.15 -258.75 -292.9 -233.5 -292.65 -233.4 -292.65 -232.65 -292.4 -232.0 -286.5 -202.75 -295.65 -200.9 -295.65 -221.75 -298.4 -279.0 -299.9 -300.0" fill="#b30000" fill-rule="evenodd" stroke="none"/>
    <path d="M-280.25 -178.0 L-280.25 -177.9 -305.15 -174.0 -305.65 -174.0 -305.65 -176.75 -305.4 -177.75 -295.9 -184.75 -295.65 -200.9 -286.5 -202.75 -285.75 -200.15 -285.75 -199.75 -280.25 -178.0 M-291.9 -300.0 L-281.5 -300.0 -280.9 -294.65 -280.9 -294.25 -281.4 -292.25 -281.4 -292.0 -281.75 -290.5 -281.9 -290.15 -282.0 -289.65 -282.15 -289.25 -282.15 -289.15 -282.9 -287.15 -282.9 -286.9 -283.0 -286.4 -283.15 -286.15 -283.15 -285.75 -283.25 -285.65 -283.25 -285.25 -283.4 -285.15 -283.4 -284.75 -283.5 -284.65 -283.5 -284.25 -283.65 -284.15 -283.65 -283.9 -285.15 -278.65 -285.15 -278.25 -285.4 -277.5 -285.65 -277.0 -285.75 -276.65 -286.15 -275.65 -286.25 -275.25 -286.25 -275.15 -286.4 -274.9 -286.4 -274.75 -287.0 -273.15 -287.0 -273.0 -287.75 -271.65 -288.0 -270.9 -288.4 -269.9 -288.5 -269.5 -288.5 -269.4 -289.25 -267.4 -289.25 -267.25 -289.75 -266.5 -291.9 -300.0" fill="#af0000" fill-opacity="0.9098039" fill-rule="evenodd" stroke="none"/>
    <path d="M-281.5 -300.0 L-261.9 -300.0 -261.9 -295.0 -262.0 -294.25 -262.0 -294.15 -261.75 -293.75 -262.25 -274.5 -262.15 -274.25 -262.25 -271.65 -262.15 -271.0 -261.75 -249.5 -261.65 -249.25 -261.5 -238.75 -261.4 -238.25 -261.15 -222.4 -261.0 -222.15 -260.9 -212.25 -260.75 -211.75 -261.4 -187.65 -261.25 -187.25 -261.75 -174.4 -270.0 -176.0 -270.25 -176.15 -280.25 -178.0 -285.75 -199.75 -285.75 -200.15 -286.5 -202.75 -292.4 -232.0 -292.65 -232.65 -292.65 -233.4 -292.9 -233.5 -292.15 -258.75 -292.25 -259.15 -292.15 -259.75 -289.75 -266.5 -289.25 -267.25 -289.25 -267.4 -288.5 -269.4 -288.5 -269.5 -288.4 -269.9 -288.0 -270.9 -287.75 -271.65 -287.0 -273.0 -287.0 -273.15 -286.4 -274.75 -286.4 -274.9 -286.25 -275.15 -286.25 -275.25 -286.15 -275.65 -285.75 -276.65 -285.65 -277.0 -285.4 -277.5 -285.15 -278.25 -285.15 -278.65 -283.65 -283.9 -283.65 -284.15 -283.5 -284.25 -283.5 -284.65 -283.4 -284.75 -283.4 -285.15 -283.25 -285.25 -283.25 -285.65 -283.15 -285.75 -283.15 -286.15 -283.0 -286.4 -282.9 -286.9 -282.9 -287.15 -282.15 -289.15 -282.15 -289.25 -282.0 -289.65 -281.9 -290.15 -281.75 -290.5 -281.4 -292.0 -281.4 -292.25 -280.9 -294.25 -280.9 -294.65 -281.5 -300.0" fill="#9f0000" fill-opacity="0.9098039" fill-rule="evenodd" stroke="none"/>
    <path d="M-292.25 -259.15 L-292.15 -258.75 -292.4 -258.65 -292.75 -258.65 -292.25 -259.15" fill="#b20000" fill-rule="evenodd" stroke="none"/>
    <path d="M-75.25 -191.9 L-81.5 -194.9 -86.0 -213.5 -96.25 -229.5 -135.9 -240.4 -135.5 -244.5 -135.15 -244.5 -134.75 -244.65 -129.75 -245.65 -129.65 -246.15 -130.4 -251.65 -130.25 -251.9 -130.5 -254.65 -130.5 -254.75 -130.9 -257.5 -131.65 -257.75 -127.75 -300.0 -76.25 -300.0 -76.25 -270.9 -75.4 -233.9 -75.25 -191.9 M-189.75 -300.0 L-180.5 -300.0 -180.5 -299.5 -180.4 -299.15 -180.25 -298.9 -177.5 -277.75 -178.75 -256.4 -178.65 -256.0 -178.65 -255.75 -179.75 -253.0 -180.5 -252.9 -189.9 -255.4 -192.0 -266.75 -189.75 -300.0 M-205.9 -259.75 L-212.65 -261.5 -212.65 -276.5 -216.15 -295.4 -216.0 -295.75 -213.0 -300.0 -207.25 -300.0 -205.9 -269.4 -205.9 -259.75" fill="#cb0000" fill-opacity="0.9098039" fill-rule="evenodd" stroke="none"/>
    <path d="M-207.25 -300.0 L-202.75 -300.0 -203.5 -259.0 -205.9 -259.75 -205.9 -269.4 -207.25 -300.0" fill="#d30000" fill-rule="evenodd" stroke="none"/>
    <path d="M-189.9 -255.4 L-186.25 -235.4 -186.4 -234.4 -186.75 -233.25 -187.5 -231.5 -187.5 -231.15 -186.65 -224.65 -186.75 -224.0 -186.65 -223.65 -185.9 -217.0 -185.9 -216.65 -185.75 -216.25 -185.4 -213.5 -185.4 -212.0 -193.0 -210.9 -193.15 -210.9 -193.9 -210.75 -194.25 -210.75 -195.5 -210.5 -196.0 -210.5 -196.0 -210.0 -195.75 -208.9 -195.4 -208.75 -194.15 -209.0 -193.75 -209.0 -187.0 -209.75 -185.0 -209.25 -182.4 -206.4 -181.25 -205.75 -181.15 -205.4 -176.5 -177.25 -193.9 -185.9 -208.5 -185.0 -210.25 -176.15 -210.4 -177.15 -210.15 -178.65 -210.15 -179.0 -209.4 -189.25 -209.4 -189.4 -209.25 -189.75 -209.15 -190.5 -209.15 -190.9 -209.0 -191.9 -208.9 -192.25 -208.9 -192.4 -208.15 -193.9 -207.4 -197.9 -205.5 -204.15 -205.65 -211.15 -205.4 -215.75 -205.75 -221.5 -205.5 -225.65 -204.65 -230.0 -203.5 -259.0 -202.75 -300.0 -189.75 -300.0 -192.0 -266.75 -189.9 -255.4 M-210.4 -175.15 L-210.5 -175.9 -210.25 -175.75 -210.4 -175.15" fill="#d00000" fill-rule="evenodd" stroke="none"/>
    <path d="M-176.5 -177.25 L-213.15 -162.4 -212.9 -173.75 -213.0 -175.65 -212.75 -177.75 -209.4 -189.25 -210.15 -179.0 -210.15 -178.65 -210.4 -177.15 -210.25 -176.15 -208.5 -185.0 -193.9 -185.9 -176.5 -177.25 M-205.5 -225.65 L-205.9 -259.75 -203.5 -259.0 -204.65 -230.0 -205.5 -225.65 M-210.4 -175.15 L-210.25 -175.75 -210.5 -175.9 -210.4 -175.15" fill="#d40000" fill-opacity="0.9098039" fill-rule="evenodd" stroke="none"/>
    <path d="M-186.4 -234.4 L-186.15 -233.65 -186.0 -232.5 -185.75 -231.9 -185.75 -231.15 -185.15 -228.75 -185.25 -228.25 -185.25 -227.9 -185.0 -227.5 -184.75 -226.25 -184.5 -225.5 -184.9 -224.4 -184.5 -224.15 -184.25 -223.25 -184.15 -222.5 -184.0 -222.0 -184.0 -221.25 -183.75 -220.0 -183.4 -219.0 -183.4 -218.9 -183.65 -218.75 -183.5 -218.0 -183.15 -217.0 -182.9 -215.15 -182.75 -215.0 -182.9 -214.5 -182.4 -212.0 -182.25 -212.0 -182.15 -210.75 -182.0 -210.25 -181.25 -205.75 -182.4 -206.4 -185.0 -209.25 -187.0 -209.75 -193.75 -209.0 -194.15 -209.0 -195.4 -208.75 -195.75 -208.9 -196.0 -210.0 -196.0 -210.5 -195.5 -210.5 -194.25 -210.75 -193.9 -210.75 -193.15 -210.9 -193.0 -210.9 -185.4 -212.0 -185.4 -213.5 -185.75 -216.25 -185.9 -216.65 -185.9 -217.0 -186.65 -223.65 -186.75 -224.0 -186.65 -224.65 -187.5 -231.15 -187.5 -231.5 -186.75 -233.25 -186.4 -234.4" fill="#ce0000" fill-rule="evenodd" stroke="none"/>
    <path d="M-307.5 -235.9 L-307.5 -236.75 -307.15 -234.15 -307.5 -235.9 M-307.75 -239.5 L-311.25 -264.5 -310.75 -263.25 -308.75 -255.65 -308.65 -256.15 -311.65 -267.25 -311.65 -266.9 -311.75 -267.4 -311.9 -267.65 -311.9 -267.75 -312.4 -269.25 -313.4 -300.0 -309.4 -300.0 -308.15 -255.15 -308.25 -254.65 -308.15 -253.65 -308.0 -253.25 -308.0 -252.75 -307.65 -251.5 -308.0 -252.25 -307.65 -240.4 -307.75 -239.5" fill="#af0000" fill-rule="evenodd" stroke="none"/>
    <path d="M-311.25 -264.5 L-311.4 -265.0 -311.4 -265.5 -310.75 -263.25 -311.25 -264.5" fill="#d70000" fill-rule="evenodd" stroke="none"/>
    <path d="M-208.9 -192.4 L-206.9 -215.25 -205.75 -221.5 -205.4 -215.75 -205.65 -211.15 -207.4 -197.9 -208.15 -193.9 -208.9 -192.4" fill="#ab0000" fill-rule="evenodd" stroke="none"/>
    <path d="M-205.65 -211.15 L-205.5 -204.15 -207.4 -197.9 -205.65 -211.15" fill="#ab0000" fill-opacity="0.9098039" fill-rule="evenodd" stroke="none"/>
    <path d="M-213.15 -162.4 L-213.4 -162.25 -216.5 -161.0 -217.0 -161.0 -217.0 -161.4 -215.4 -167.0 -215.4 -167.75 -213.0 -175.65 -212.9 -173.75 -213.15 -162.4" fill="#c00000" fill-opacity="0.9098039" fill-rule="evenodd" stroke="none"/>
  </g>
  <defs>
    <radialGradient cx="0" cy="0" gradientTransform="matrix(0.0368, 0.0, 0.0, 0.0368, -236.25, -293.9)" gradientUnits="userSpaceOnUse" id="gradient0" r="819.2" spreadMethod="pad">
      <stop offset="0.0" stop-color="#010101"/>
      <stop offset="1.0" stop-color="#000000"/>
    </radialGradient>
    <radialGradient cx="0" cy="0" gradientTransform="matrix(0.0063, 0.0, 0.0, 0.0063, -218.35, -300.0)" gradientUnits="userSpaceOnUse" id="gradient1" r="819.2" spreadMethod="pad">
      <stop offset="0.0" stop-color="#000000"/>
      <stop offset="1.0" stop-color="#000000"/>
    </radialGradient>
    <radialGradient cx="0" cy="0" gradientTransform="matrix(0.1678, 0.0, 0.0, 0.1678, -237.5, -260.6)" gradientUnits="userSpaceOnUse" id="gradient2" r="819.2" spreadMethod="pad">
      <stop offset="0.0" stop-color="#494949"/>
      <stop offset="1.0" stop-color="#000000"/>
    </radialGradient>
    <radialGradient cx="0" cy="0" gradientTransform="matrix(0.2644, 0.0, 0.0, 0.2644, -232.1, -293.9)" gradientUnits="userSpaceOnUse" id="gradient3" r="819.2" spreadMethod="pad">
      <stop offset="0.0" stop-color="#181818"/>
      <stop offset="1.0" stop-color="#000000"/>
    </radialGradient>
    <radialGradient cx="0" cy="0" gradientTransform="matrix(0.0278, 0.0, 0.0, 0.0278, -233.8, -294.7)" gradientUnits="userSpaceOnUse" id="gradient4" r="819.2" spreadMethod="pad">
      <stop offset="0.0" stop-color="#181818"/>
      <stop offset="1.0" stop-color="#040404"/>
    </radialGradient>
    <radialGradient cx="0" cy="0" gradientTransform="matrix(0.0246, 0.0, 0.0, 0.0246, -281.45, -300.0)" gradientUnits="userSpaceOnUse" id="gradient5" r="819.2" spreadMethod="pad">
      <stop offset="0.0" stop-color="#000000"/>
      <stop offset="1.0" stop-color="#000000"/>
    </radialGradient>
    <radialGradient cx="0" cy="0" gradientTransform="matrix(0.1684, 0.0, 0.0, 0.1684, -292.05, -259.85)" gradientUnits="userSpaceOnUse" id="gradient6" r="819.2" spreadMethod="pad">
      <stop offset="0.0" stop-color="#0a0a0a"/>
      <stop offset="1.0" stop-color="#000000"/>
    </radialGradient>
    <radialGradient cx="0" cy="0" gradientTransform="matrix(0.0757, 0.0, 0.0, 0.0757, -261.7, -86.2)" gradientUnits="userSpaceOnUse" id="gradient7" r="819.2" spreadMethod="pad">
      <stop offset="0.0" stop-color="#000000"/>
      <stop offset="1.0" stop-color="#000000"/>
    </radialGradient>
    <radialGradient cx="0" cy="0" gradientTransform="matrix(0.1198, 0.0, 0.0, 0.1198, -220.65, -230.8)" gradientUnits="userSpaceOnUse" id="gradient8" r="819.2" spreadMethod="pad">
      <stop offset="0.0" stop-color="#111111"/>
      <stop offset="1.0" stop-color="#000000"/>
    </radialGradient>
    <radialGradient cx="0" cy="0" gradientTransform="matrix(0.0753, 0.0, 0.0, 0.0753, -130.6, -300.0)" gradientUnits="userSpaceOnUse" id="gradient9" r="819.2" spreadMethod="pad">
      <stop offset="0.0" stop-color="#222222"/>
      <stop offset="1.0" stop-color="#040404"/>
    </radialGradient>
    <radialGradient cx="0" cy="0" gradientTransform="matrix(0.0618, 0.0, 0.0, 0.0618, -130.6, -300.0)" gradientUnits="userSpaceOnUse" id="gradient10" r="819.2" spreadMethod="pad">
      <stop offset="0.0" stop-color="#222222"/>
      <stop offset="1.0" stop-color="#000000"/>
    </radialGradient>
    <radialGradient cx="0" cy="0" gradientTransform="matrix(0.0666, 0.0, 0.0, 0.0666, -135.0, -258.0)" gradientUnits="userSpaceOnUse" id="gradient11" r="819.2" spreadMethod="pad">
      <stop offset="0.0" stop-color="#939393"/>
      <stop offset="1.0" stop-color="#3b3b3b"/>
    </radialGradient>
    <radialGradient cx="0" cy="0" gradientTransform="matrix(0.0648, 0.0, 0.0, 0.0648, -179.15, -248.95)" gradientUnits="userSpaceOnUse" id="gradient12" r="819.2" spreadMethod="pad">
      <stop offset="0.0" stop-color="#0c0c0c"/>
      <stop offset="1.0" stop-color="#000000"/>
    </radialGradient>
    <radialGradient cx="0" cy="0" gradientTransform="matrix(0.0751, 0.0, 0.0, 0.0751, -132.2, -216.1)" gradientUnits="userSpaceOnUse" id="gradient13" r="819.2" spreadMethod="pad">
      <stop offset="0.0" stop-color="#bdbdbd"/>
      <stop offset="1.0" stop-color="#2a2a2a"/>
    </radialGradient>
    <radialGradient cx="0" cy="0" gradientTransform="matrix(0.0545, 0.0, 0.0, 0.0545, -141.9, -243.5)" gradientUnits="userSpaceOnUse" id="gradient14" r="819.2" spreadMethod="pad">
      <stop offset="0.0" stop-color="#9f9f9f"/>
      <stop offset="1.0" stop-color="#9c9c9c"/>
    </radialGradient>
    <radialGradient cx="0" cy="0" gradientTransform="matrix(0.0574, 0.0, 0.0, 0.0574, -149.6, -272.95)" gradientUnits="userSpaceOnUse" id="gradient15" r="819.2" spreadMethod="pad">
      <stop offset="0.0" stop-color="#101010"/>
      <stop offset="1.0" stop-color="#000000"/>
    </radialGradient>
    <radialGradient cx="0" cy="0" gradientTransform="matrix(0.0265, 0.0, 0.0, 0.0265, -152.05, -241.3)" gradientUnits="userSpaceOnUse" id="gradient16" r="819.2" spreadMethod="pad">
      <stop offset="0.0" stop-color="#7c7c7c"/>
      <stop offset="1.0" stop-color="#020202"/>
    </radialGradient>
    <radialGradient cx="0" cy="0" gradientTransform="matrix(0.029, 0.0, 0.0, 0.029, -152.4, -220.25)" gradientUnits="userSpaceOnUse" id="gradient17" r="819.2" spreadMethod="pad">
      <stop offset="0.0" stop-color="#000000"/>
      <stop offset="1.0" stop-color="#000000"/>
    </radialGradient>
    <radialGradient cx="0" cy="0" gradientTransform="matrix(0.0672, 0.0, 0.0, 0.0672, -131.6, -231.7)" gradientUnits="userSpaceOnUse" id="gradient18" r="819.2" spreadMethod="pad">
      <stop offset="0.0" stop-color="#0d0d0d"/>
      <stop offset="1.0" stop-color="#000000"/>
    </radialGradient>
    <radialGradient cx="0" cy="0" gradientTransform="matrix(0.0451, 0.0, 0.0, 0.0451, -146.25, -232.15)" gradientUnits="userSpaceOnUse" id="gradient19" r="819.2" spreadMethod="pad">
      <stop offset="0.0" stop-color="#4d4d4d"/>
      <stop offset="1.0" stop-color="#000000"/>
    </radialGradient>
    <radialGradient cx="0" cy="0" gradientTransform="matrix(0.0637, 0.0, 0.0, 0.0637, -139.8, -214.4)" gradientUnits="userSpaceOnUse" id="gradient20" r="819.2" spreadMethod="pad">
      <stop offset="0.0" stop-color="#8f8f8f"/>
      <stop offset="1.0" stop-color="#8f8f8f"/>
    </radialGradient>
    <radialGradient cx="0" cy="0" gradientTransform="matrix(0.0209, 0.0, 0.0, 0.0209, -143.55, -207.35)" gradientUnits="userSpaceOnUse" id="gradient21" r="819.2" spreadMethod="pad">
      <stop offset="0.0" stop-color="#212121"/>
      <stop offset="1.0" stop-color="#212121"/>
    </radialGradient>
    <radialGradient cx="0" cy="0" gradientTransform="matrix(0.0661, 0.0, 0.0, 0.0661, -142.2, -216.95)" gradientUnits="userSpaceOnUse" id="gradient22" r="819.2" spreadMethod="pad">
      <stop offset="0.0" stop-color="#717171"/>
      <stop offset="1.0" stop-color="#707070"/>
    </radialGradient>
    <radialGradient cx="0" cy="0" gradientTransform="matrix(0.0565, 0.0, 0.0, 0.0565, -149.8, -213.85)" gradientUnits="userSpaceOnUse" id="gradient23" r="819.2" spreadMethod="pad">
      <stop offset="0.0" stop-color="#121212"/>
      <stop offset="1.0" stop-color="#121212"/>
    </radialGradient>
    <radialGradient cx="0" cy="0" gradientTransform="matrix(0.0586, 0.0, 0.0, 0.0586, -139.8, -214.4)" gradientUnits="userSpaceOnUse" id="gradient24" r="819.2" spreadMethod="pad">
      <stop offset="0.0" stop-color="#121212"/>
      <stop offset="1.0" stop-color="#121212"/>
    </radialGradient>
    <radialGradient cx="0" cy="0" gradientTransform="matrix(0.057, 0.0, 0.0, 0.057, -138.55, -212.75)" gradientUnits="userSpaceOnUse" id="gradient25" r="819.2" spreadMethod="pad">
      <stop offset="0.0" stop-color="#121212"/>
      <stop offset="1.0" stop-color="#121212"/>
    </radialGradient>
    <radialGradient cx="0" cy="0" gradientTransform="matrix(0.0197, 0.0, 0.0, 0.0197, -163.6, -199.4)" gradientUnits="userSpaceOnUse" id="gradient26" r="819.2" spreadMethod="pad">
      <stop offset="0.0" stop-color="#676767"/>
      <stop offset="1.0" stop-color="#242424"/>
    </radialGradient>
    <radialGradient cx="0" cy="0" gradientTransform="matrix(0.0571, 0.0, 0.0, 0.0571, -137.15, -211.15)" gradientUnits="userSpaceOnUse" id="gradient27" r="819.2" spreadMethod="pad">
      <stop offset="0.0" stop-color="#121212"/>
      <stop offset="1.0" stop-color="#121212"/>
    </radialGradient>
    <radialGradient cx="0" cy="0" gradientTransform="matrix(0.0918, 0.0, 0.0, 0.0918, -112.9, -177.6)" gradientUnits="userSpaceOnUse" id="gradient28" r="819.2" spreadMethod="pad">
      <stop offset="0.0" stop-color="#121212"/>
      <stop offset="1.0" stop-color="#121212"/>
    </radialGradient>
    <radialGradient cx="0" cy="0" gradientTransform="matrix(0.0274, 0.0, 0.0, 0.0274, -111.55, -177.0)" gradientUnits="userSpaceOnUse" id="gradient29" r="819.2" spreadMethod="pad">
      <stop offset="0.0" stop-color="#121212"/>
      <stop offset="1.0" stop-color="#121212"/>
    </radialGradient>
    <radialGradient cx="0" cy="0" gradientTransform="matrix(0.0399, 0.0, 0.0, 0.0399, -163.0, -201.4)" gradientUnits="userSpaceOnUse" id="gradient30" r="819.2" spreadMethod="pad">
      <stop offset="0.0" stop-color="#b3b3b3"/>
      <stop offset="1.0" stop-color="#505050"/>
    </radialGradient>
    <radialGradient cx="0" cy="0" gradientTransform="matrix(0.0484, 0.0, 0.0, 0.0484, -141.45, -182.65)" gradientUnits="userSpaceOnUse" id="gradient31" r="819.2" spreadMethod="pad">
      <stop offset="0.0" stop-color="#d9d9d9"/>
      <stop offset="1.0" stop-color="#414141"/>
    </radialGradient>
    <radialGradient cx="0" cy="0" gradientTransform="matrix(0.0324, 0.0, 0.0, 0.0324, -103.75, -194.5)" gradientUnits="userSpaceOnUse" id="gradient32" r="819.2" spreadMethod="pad">
      <stop offset="0.0" stop-color="#dfdfdf"/>
      <stop offset="1.0" stop-color="#505050"/>
    </radialGradient>
    <radialGradient cx="0" cy="0" gradientTransform="matrix(0.0256, 0.0, 0.0, 0.0256, -141.45, -182.65)" gradientUnits="userSpaceOnUse" id="gradient33" r="819.2" spreadMethod="pad">
      <stop offset="0.0" stop-color="#d9d9d9"/>
      <stop offset="1.0" stop-color="#2b2b2b"/>
    </radialGradient>
    <radialGradient cx="0" cy="0" gradientTransform="matrix(0.0364, 0.0, 0.0, 0.0364, -101.95, -180.75)" gradientUnits="userSpaceOnUse" id="gradient34" r="819.2" spreadMethod="pad">
      <stop offset="0.0" stop-color="#787878"/>
      <stop offset="1.0" stop-color="#767676"/>
    </radialGradient>
    <radialGradient cx="0" cy="0" gradientTransform="matrix(0.0254, 0.0, 0.0, 0.0254, -101.85, -178.55)" gradientUnits="userSpaceOnUse" id="gradient35" r="819.2" spreadMethod="pad">
      <stop offset="0.0" stop-color="#121212"/>
      <stop offset="1.0" stop-color="#121212"/>
    </radialGradient>
    <radialGradient cx="0" cy="0" gradientTransform="matrix(0.0273, 0.0, 0.0, 0.0273, -110.25, -176.65)" gradientUnits="userSpaceOnUse" id="gradient36" r="819.2" spreadMethod="pad">
      <stop offset="0.0" stop-color="#121212"/>
      <stop offset="1.0" stop-color="#121212"/>
    </radialGradient>
    <radialGradient cx="0" cy="0" gradientTransform="matrix(0.0075, 0.0, 0.0, 0.0075, -159.9, -170.1)" gradientUnits="userSpaceOnUse" id="gradient37" r="819.2" spreadMethod="pad">
      <stop offset="0.0" stop-color="#e4e4e4"/>
      <stop offset="1.0" stop-color="#4e4e4e"/>
    </radialGradient>
    <radialGradient cx="0" cy="0" gradientTransform="matrix(0.0595, 0.0, 0.0, 0.0595, -225.95, -91.3)" gradientUnits="userSpaceOnUse" id="gradient38" r="819.2" spreadMethod="pad">
      <stop offset="0.0" stop-color="#000000"/>
      <stop offset="1.0" stop-color="#000000"/>
    </radialGradient>
    <radialGradient cx="0" cy="0" gradientTransform="matrix(0.0763, 0.0, 0.0, 0.0763, -223.8, -110.1)" gradientUnits="userSpaceOnUse" id="gradient39" r="819.2" spreadMethod="pad">
      <stop offset="0.0" stop-color="#b3b3b3"/>
      <stop offset="1.0" stop-color="#b1b1b1"/>
    </radialGradient>
    <radialGradient cx="0" cy="0" gradientTransform="matrix(0.0612, 0.0, 0.0, 0.0612, -277.9, -133.7)" gradientUnits="userSpaceOnUse" id="gradient40" r="819.2" spreadMethod="pad">
      <stop offset="0.0" stop-color="#020202"/>
      <stop offset="1.0" stop-color="#000000"/>
    </radialGradient>
    <radialGradient cx="0" cy="0" gradientTransform="matrix(0.0909, 0.0, 0.0, 0.0909, -243.8, -44.15)" gradientUnits="userSpaceOnUse" id="gradient41" r="819.2" spreadMethod="pad">
      <stop offset="0.0" stop-color="#737373"/>
      <stop offset="1.0" stop-color="#212121"/>
    </radialGradient>
    <radialGradient cx="0" cy="0" gradientTransform="matrix(0.0921, 0.0, 0.0, 0.0921, -211.0, -100.55)" gradientUnits="userSpaceOnUse" id="gradient42" r="819.2" spreadMethod="pad">
      <stop offset="0.0" stop-color="#9c9c9c"/>
      <stop offset="1.0" stop-color="#444444"/>
    </radialGradient>
    <radialGradient cx="0" cy="0" gradientTransform="matrix(0.0361, 0.0, 0.0, 0.0361, -284.55, -44.4)" gradientUnits="userSpaceOnUse" id="gradient43" r="819.2" spreadMethod="pad">
      <stop offset="0.0" stop-color="#7f7f7f"/>
      <stop offset="1.0" stop-color="#7f7f7f"/>
    </radialGradient>
    <radialGradient cx="0" cy="0" gradientTransform="matrix(0.1425, 0.0, 0.0, 0.1425, -175.15, -3.65)" gradientUnits="userSpaceOnUse" id="gradient44" r="819.2" spreadMethod="pad">
      <stop offset="0.0" stop-color="#555555"/>
      <stop offset="1.0" stop-color="#535353"/>
    </radialGradient>
    <radialGradient cx="0" cy="0" gradientTransform="matrix(0.0289, 0.0, 0.0, 0.0289, -260.9, -67.75)" gradientUnits="userSpaceOnUse" id="gradient45" r="819.2" spreadMethod="pad">
      <stop offset="0.0" stop-color="#989898"/>
      <stop offset="1.0" stop-color="#979797"/>
    </radialGradient>
    <radialGradient cx="0" cy="0" gradientTransform="matrix(0.027, 0.0, 0.0, 0.027, -282.8, -83.7)" gradientUnits="userSpaceOnUse" id="gradient46" r="819.2" spreadMethod="pad">
      <stop offset="0.0" stop-color="#a3a3a3"/>
      <stop offset="1.0" stop-color="#5f5f5f"/>
    </radialGradient>
    <radialGradient cx="0" cy="0" gradientTransform="matrix(0.0507, 0.0, 0.0, 0.0507, -233.2, -81.8)" gradientUnits="userSpaceOnUse" id="gradient47" r="819.2" spreadMethod="pad">
      <stop offset="0.0" stop-color="#272727"/>
      <stop offset="1.0" stop-color="#000000"/>
    </radialGradient>
    <radialGradient cx="0" cy="0" gradientTransform="matrix(0.1234, 0.0, 0.0, 0.1234, -229.05, -84.8)" gradientUnits="userSpaceOnUse" id="gradient48" r="819.2" spreadMethod="pad">
      <stop offset="0.0" stop-color="#1f1f1f"/>
      <stop offset="1.0" stop-color="#000000"/>
    </radialGradient>
    <radialGradient cx="0" cy="0" gradientTransform="matrix(0.0548, 0.0, 0.0, 0.0548, -172.75, -50.55)" gradientUnits="userSpaceOnUse" id="gradient49" r="819.2" spreadMethod="pad">
      <stop offset="0.0" stop-color="#eaeaea"/>
      <stop offset="1.0" stop-color="#383838"/>
    </radialGradient>
    <radialGradient cx="0" cy="0" gradientTransform="matrix(0.1203, 0.0, 0.0, 0.1203, -177.05, -6.25)" gradientUnits="userSpaceOnUse" id="gradient50" r="819.2" spreadMethod="pad">
      <stop offset="0.0" stop-color="#ababab"/>
      <stop offset="1.0" stop-color="#aaaaaa"/>
    </radialGradient>
    <radialGradient cx="0" cy="0" gradientTransform="matrix(0.0305, 0.0, 0.0, 0.0305, -243.15, -71.3)" gradientUnits="userSpaceOnUse" id="gradient51" r="819.2" spreadMethod="pad">
      <stop offset="0.0" stop-color="#000000"/>
      <stop offset="1.0" stop-color="#000000"/>
    </radialGradient>
    <radialGradient cx="0" cy="0" gradientTransform="matrix(0.0289, 0.0, 0.0, 0.0289, -258.4, -44.15)" gradientUnits="userSpaceOnUse" id="gradient52" r="819.2" spreadMethod="pad">
      <stop offset="0.0" stop-color="#aeaeae"/>
      <stop offset="1.0" stop-color="#aeaeae"/>
    </radialGradient>
    <radialGradient cx="0" cy="0" gradientTransform="matrix(0.0293, 0.0, 0.0, 0.0293, -255.95, -41.6)" gradientUnits="userSpaceOnUse" id="gradient53" r="819.2" spreadMethod="pad">
      <stop offset="0.0" stop-color="#adadad"/>
      <stop offset="1.0" stop-color="#adadad"/>
    </radialGradient>
    <radialGradient cx="0" cy="0" gradientTransform="matrix(0.0095, 0.0, 0.0, 0.0095, -268.25, -40.5)" gradientUnits="userSpaceOnUse" id="gradient54" r="819.2" spreadMethod="pad">
      <stop offset="0.0" stop-color="#515151"/>
      <stop offset="1.0" stop-color="#212121"/>
    </radialGradient>
    <radialGradient cx="0" cy="0" gradientTransform="matrix(0.0448, 0.0, 0.0, 0.0448, -267.3, -42.9)" gradientUnits="userSpaceOnUse" id="gradient55" r="819.2" spreadMethod="pad">
      <stop offset="0.0" stop-color="#a0a0a0"/>
      <stop offset="1.0" stop-color="#4a4a4a"/>
    </radialGradient>
    <radialGradient cx="0" cy="0" gradientTransform="matrix(0.024, 0.0, 0.0, 0.024, -245.2, -42.05)" gradientUnits="userSpaceOnUse" id="gradient56" r="819.2" spreadMethod="pad">
      <stop offset="0.0" stop-color="#eeeeee"/>
      <stop offset="1.0" stop-color="#eaeaea"/>
    </radialGradient>
    <radialGradient cx="0" cy="0" gradientTransform="matrix(0.0193, 0.0, 0.0, 0.0193, -174.2, -5.6)" gradientUnits="userSpaceOnUse" id="gradient57" r="819.2" spreadMethod="pad">
      <stop offset="0.0" stop-color="#a0a0a0"/>
      <stop offset="1.0" stop-color="#a0a0a0"/>
    </radialGradient>
    <radialGradient cx="0" cy="0" gradientTransform="matrix(0.0173, 0.0, 0.0, 0.0173, -174.2, -5.6)" gradientUnits="userSpaceOnUse" id="gradient58" r="819.2" spreadMethod="pad">
      <stop offset="0.0" stop-color="#939393"/>
      <stop offset="1.0" stop-color="#939393"/>
    </radialGradient>
    <radialGradient cx="0" cy="0" gradientTransform="matrix(0.0443, 0.0, 0.0, 0.0443, -175.05, -10.0)" gradientUnits="userSpaceOnUse" id="gradient59" r="819.2" spreadMethod="pad">
      <stop offset="0.0" stop-color="#f0f0f0"/>
      <stop offset="1.0" stop-color="#5a5a5a"/>
    </radialGradient>
    <radialGradient cx="0" cy="0" gradientTransform="matrix(0.0365, 0.0, 0.0, 0.0365, -149.45, -6.75)" gradientUnits="userSpaceOnUse" id="gradient60" r="819.2" spreadMethod="pad">
      <stop offset="0.0" stop-color="#888888"/>
      <stop offset="1.0" stop-color="#878787"/>
    </radialGradient>
    <radialGradient cx="0" cy="0" gradientTransform="matrix(0.009, 0.0, 0.0, 0.009, -266.65, -8.8)" gradientUnits="userSpaceOnUse" id="gradient61" r="819.2" spreadMethod="pad">
      <stop offset="0.0" stop-color="#f2f2f2"/>
      <stop offset="1.0" stop-color="#434343"/>
    </radialGradient>
  </defs>
</svg>
