<?xml version="1.0" encoding="UTF-8" standalone="no"?>
<svg xmlns:xlink="http://www.w3.org/1999/xlink" height="299.1px" width="234.25px" xmlns="http://www.w3.org/2000/svg">
  <g transform="matrix(1.0, 0.0, 0.0, 1.0, 303.15, 300.0)">
    <path d="M-258.5 -300.0 L-257.75 -300.0 -257.5 -298.4 -257.75 -298.4 -258.5 -298.25 -258.5 -300.0 M-254.9 -300.0 L-244.9 -300.0 -244.5 -299.65 -245.0 -299.5 -245.4 -299.5 -254.65 -298.9 -254.9 -300.0" fill="url(#gradient0)" fill-rule="evenodd" stroke="none"/>
    <path d="M-258.4 -289.4 L-259.25 -299.15 -259.25 -300.0 -258.5 -300.0 -258.5 -298.25 -257.75 -298.4 -257.5 -298.4 -257.75 -300.0 -254.9 -300.0 -254.65 -298.9 -245.4 -299.5 -245.0 -299.5 -244.5 -299.65 -244.9 -300.0 -242.25 -300.0 -235.5 -288.9 -256.5 -290.0 -258.4 -289.4" fill="url(#gradient1)" fill-rule="evenodd" stroke="none"/>
    <path d="M-257.5 -124.75 L-258.4 -165.75 -265.75 -196.15 -271.75 -227.15 -270.75 -254.0 -262.75 -273.75 -258.4 -289.4 -256.5 -290.0 -235.5 -288.9 -238.5 -270.5 -252.75 -253.5 -252.5 -225.0 -246.4 -191.5 -238.9 -159.9 -238.9 -158.75 -238.5 -158.4 -237.15 -116.4 -254.75 -120.5 -257.5 -124.75" fill="url(#gradient2)" fill-rule="evenodd" stroke="none"/>
    <path d="M-242.25 -300.0 L-189.75 -300.0 -193.25 -289.75 -208.15 -288.25 -215.0 -288.4 -217.4 -288.65 -218.0 -288.9 -218.5 -288.65 -220.9 -288.5 -235.5 -288.9 -242.25 -300.0" fill="url(#gradient3)" fill-rule="evenodd" stroke="none"/>
    <path d="M-189.75 -300.0 L-184.15 -300.0 -191.5 -289.75 -193.25 -289.75 -189.75 -300.0" fill="url(#gradient4)" fill-rule="evenodd" stroke="none"/>
    <path d="M-190.15 -204.15 L-191.4 -130.65 -196.25 -124.75 -195.0 -197.4 -195.25 -198.65 -194.75 -222.9 -195.0 -224.25 -194.15 -268.0 -194.4 -270.4 -193.25 -289.75 -191.5 -289.75 -189.15 -271.0 -190.25 -205.9 -190.15 -204.15" fill="url(#gradient5)" fill-rule="evenodd" stroke="none"/>
    <path d="M-124.4 -300.0 L-128.75 -253.15 -146.0 -252.0 -156.75 -250.75 -155.5 -273.25 -158.25 -297.15 -158.65 -297.65 -158.65 -300.0 -124.4 -300.0" fill="url(#gradient6)" fill-rule="evenodd" stroke="none"/>
    <path d="M-128.75 -253.15 L-124.4 -300.0 -123.15 -300.0 -127.5 -253.15 -128.75 -253.15" fill="url(#gradient7)" fill-rule="evenodd" stroke="none"/>
    <path d="M-156.75 -250.75 L-146.0 -252.0 -128.75 -253.15 -127.5 -253.15 -125.9 -252.9 -125.0 -241.5 -137.0 -240.75 -157.65 -238.4 -169.5 -236.9 -170.75 -248.15 -170.75 -248.75 -169.75 -249.0 -156.75 -250.75 M-181.65 -235.0 L-182.9 -246.5 -174.75 -248.25 -174.15 -248.25 -174.15 -248.4 -173.5 -248.4 -175.5 -242.5 -179.65 -241.9 -179.75 -235.25 -181.65 -235.0" fill="url(#gradient8)" fill-rule="evenodd" stroke="none"/>
    <path d="M-218.5 -288.65 L-218.0 -288.9 -217.4 -288.65 -218.5 -288.65" fill="url(#gradient9)" fill-rule="evenodd" stroke="none"/>
    <path d="M-255.9 -99.75 L-256.0 -107.0 Q-256.3 -112.2 -255.5 -112.75 L-252.5 -90.5 -255.65 -93.0 -255.9 -99.75 M-217.4 -288.65 L-215.0 -288.4 -217.75 -286.25 -220.9 -288.5 -218.5 -288.65 -217.4 -288.65 M-201.25 -91.9 L-199.0 -98.75 -196.0 -100.5 -195.15 -104.9 -194.75 -105.0 -194.75 -98.15 -195.0 -92.9 -199.0 -89.65 -206.5 -87.25 -210.5 -86.65 -207.5 -92.15 -202.0 -90.15 -201.65 -90.15 -201.25 -91.9 M-244.25 -87.4 L-243.5 -89.9 -243.15 -90.0 -242.15 -86.9 -244.25 -87.4 M-229.0 -85.5 L-232.0 -85.5 -231.65 -86.5 -229.0 -85.5" fill="url(#gradient10)" fill-rule="evenodd" stroke="none"/>
    <path d="M-193.25 -289.75 L-194.4 -270.4 -194.15 -268.0 -195.0 -224.25 -194.75 -222.9 -195.25 -198.65 -195.0 -197.4 -196.25 -124.75 -196.15 -124.5 -210.5 -121.4 -237.15 -116.4 -238.5 -158.4 -238.9 -158.75 -238.9 -159.9 -246.4 -191.5 -252.5 -225.0 -252.75 -253.5 -238.5 -270.5 -235.5 -288.9 -220.9 -288.5 -217.75 -286.25 -215.0 -288.4 -208.15 -288.25 -193.25 -289.75" fill="url(#gradient11)" fill-rule="evenodd" stroke="none"/>
    <path d="M-237.15 -116.4 L-210.5 -121.4 -196.15 -124.5 -201.25 -91.9 -201.65 -90.15 -202.0 -90.15 -207.5 -92.15 -210.5 -86.65 -215.15 -85.4 -229.0 -85.5 -231.65 -86.5 -232.0 -85.5 -238.25 -85.75 -237.15 -116.4" fill="url(#gradient12)" fill-rule="evenodd" stroke="none"/>
    <path d="M-191.4 -130.65 L-194.5 -99.4 -194.75 -98.15 -194.75 -105.0 -195.15 -104.9 -196.0 -100.5 -199.0 -98.75 -201.25 -91.9 -196.15 -124.5 -196.25 -124.75 -191.4 -130.65" fill="url(#gradient13)" fill-rule="evenodd" stroke="none"/>
    <path d="M-181.75 -204.9 L-190.15 -204.15 -190.25 -205.9 -189.9 -205.9 -176.5 -207.25 -176.25 -207.25 -175.4 -207.4 -174.65 -207.4 -174.15 -207.5 -173.25 -207.5 -172.9 -207.65 -168.4 -208.0 -169.25 -206.15 -180.65 -204.75 -181.75 -204.9 M-155.5 -209.4 L-142.5 -210.65 -142.15 -208.9 -164.9 -206.65 -166.25 -208.25 -162.15 -208.65 -161.75 -208.75 -161.0 -208.75 -160.5 -208.9 -159.9 -208.9 -159.25 -209.0 -158.75 -209.0 -158.15 -209.15 -157.65 -209.15 -155.65 -209.4 -155.5 -209.4" fill="url(#gradient14)" fill-rule="evenodd" stroke="none"/>
    <path d="M-181.25 -204.75 L-181.75 -204.9 -180.65 -204.75 -181.25 -204.75 M-133.5 -209.5 L-134.9 -209.4 -137.5 -209.5 -136.0 -209.9 -133.5 -209.5" fill="url(#gradient15)" fill-rule="evenodd" stroke="none"/>
    <path d="M-180.15 -203.25 L-181.25 -204.75 -180.65 -204.75 -179.9 -204.5 -170.5 -205.25 -169.9 -204.25 -180.15 -203.25 M-145.65 -206.5 L-146.5 -207.75 -134.9 -209.4 -133.5 -209.5 -132.25 -207.9 -145.65 -206.5" fill="url(#gradient16)" fill-rule="evenodd" stroke="none"/>
    <path d="M-178.75 -201.75 L-180.15 -203.25 -169.9 -204.25 -168.5 -202.65 -178.75 -201.75 M-144.65 -205.0 L-145.65 -206.5 -132.25 -207.9 -131.0 -206.25 -144.65 -205.0" fill="url(#gradient17)" fill-rule="evenodd" stroke="none"/>
    <path d="M-136.25 -224.5 L-134.25 -225.4 -133.15 -223.5 -132.0 -224.9 -131.5 -225.25 -130.9 -225.15 -131.15 -220.0 -136.25 -224.5 M-146.5 -207.75 L-145.65 -206.5 -144.65 -205.0 Q-140.25 -199.0 -150.4 -197.65 L-152.25 -197.4 -156.5 -197.65 -153.15 -207.0 -146.5 -207.75 M-170.5 -205.25 L-169.15 -205.4 -168.25 -203.9 -168.15 -203.65 -166.4 -200.9 -167.25 -201.25 -168.5 -202.65 -169.9 -204.25 -170.5 -205.25" fill="url(#gradient18)" fill-rule="evenodd" stroke="none"/>
    <path d="M-181.0 -207.4 L-182.4 -219.15 -182.75 -226.9 -179.9 -233.0 -180.0 -234.75 -179.75 -235.25 -179.65 -241.9 -175.5 -242.5 -173.5 -248.4 -172.25 -252.0 -171.15 -250.9 -169.75 -249.0 -170.75 -248.75 -170.75 -248.15 -169.5 -236.9 -157.65 -238.4 -157.4 -238.15 -156.5 -236.15 -154.65 -235.25 -147.5 -231.5 -136.25 -224.5 -131.15 -220.0 -129.65 -217.25 -126.65 -211.15 -125.4 -206.15 Q-123.15 -203.4 -122.5 -198.4 L-124.15 -200.4 -126.0 -203.9 -131.25 -209.25 -132.5 -211.15 Q-136.0 -212.5 -136.5 -211.9 L-155.5 -209.4 -155.65 -209.4 -157.65 -209.15 -158.15 -209.15 -158.75 -209.0 -159.25 -209.0 -159.9 -208.9 -160.5 -208.9 -161.0 -208.75 -161.75 -208.75 -162.15 -208.65 -166.25 -208.25 -164.9 -206.65 -142.15 -208.9 -137.5 -209.5 -134.9 -209.4 -146.5 -207.75 -153.15 -207.0 -169.15 -205.4 -170.5 -205.25 -179.9 -204.5 -180.65 -204.75 -169.25 -206.15 -168.4 -208.0 -172.9 -207.65 -173.25 -207.5 -174.15 -207.5 -174.65 -207.4 -175.4 -207.4 -176.25 -207.25 -176.5 -207.25 -181.0 -207.4" fill="url(#gradient19)" fill-rule="evenodd" stroke="none"/>
    <path d="M-153.15 -207.0 L-156.5 -197.65 -157.15 -196.15 -157.4 -195.65 -162.25 -194.5 -166.4 -200.9 -168.15 -203.65 -168.25 -203.9 -169.15 -205.4 -153.15 -207.0" fill="url(#gradient20)" fill-rule="evenodd" stroke="none"/>
    <path d="M-102.5 -176.5 L-101.75 -176.5 -101.5 -175.65 -101.65 -174.75 -102.15 -174.4 -103.25 -174.65 -103.9 -174.25 -109.5 -172.4 -110.5 -172.75 -111.5 -173.25 -131.0 -206.25 -132.25 -207.9 -133.5 -209.5 -136.0 -209.9 -137.5 -209.5 -142.15 -208.9 -142.5 -210.65 -136.5 -211.9 Q-136.0 -212.5 -132.5 -211.15 L-131.25 -209.25 -124.65 -198.25 -118.4 -187.4 Q-114.4 -181.5 -114.9 -180.25 L-114.5 -180.4 -113.0 -178.0 -111.15 -174.75 -109.15 -174.4 -102.5 -176.5" fill="url(#gradient21)" fill-rule="evenodd" stroke="none"/>
    <path d="M-189.9 -205.9 L-181.0 -207.4 -176.5 -207.25 -189.9 -205.9 M-142.5 -210.65 L-155.5 -209.4 -136.5 -211.9 -142.5 -210.65" fill="url(#gradient22)" fill-rule="evenodd" stroke="none"/>
    <path d="M-131.25 -209.25 L-126.0 -203.9 -124.15 -200.4 -122.5 -198.4 -124.65 -198.25 -131.25 -209.25" fill="url(#gradient23)" fill-rule="evenodd" stroke="none"/>
    <path d="M-127.15 -227.0 L-115.0 -206.5 -112.15 -201.5 -112.25 -197.25 -116.15 -189.75 -118.4 -187.4 -124.65 -198.25 -122.5 -198.4 Q-123.15 -203.4 -125.4 -206.15 L-126.65 -211.15 -129.65 -217.25 -127.5 -221.0 -127.15 -227.0 M-106.4 -191.9 L-106.0 -191.4 Q-99.25 -184.15 -113.0 -178.0 L-114.5 -180.4 -109.5 -185.25 Q-106.0 -190.9 -106.4 -191.9 M-156.5 -197.65 L-152.25 -197.4 -150.4 -197.65 -149.65 -196.4 -157.15 -196.15 -156.5 -197.65" fill="url(#gradient24)" fill-rule="evenodd" stroke="none"/>
    <path d="M-130.5 -231.0 L-130.15 -231.0 -127.15 -227.0 -127.5 -221.0 -129.65 -217.25 -131.15 -220.0 -130.9 -225.15 -130.5 -226.4 -130.5 -231.0" fill="url(#gradient25)" fill-rule="evenodd" stroke="none"/>
    <path d="M-131.25 -235.15 L-130.5 -231.0 -130.5 -226.4 -130.9 -225.15 -131.5 -225.25 -132.0 -224.9 -133.15 -223.5 -134.25 -225.4 -136.25 -224.5 -147.5 -231.5 -154.65 -235.25 -138.5 -234.5 -138.5 -234.9 -133.75 -234.65 -133.25 -235.0 -131.25 -235.15" fill="url(#gradient26)" fill-rule="evenodd" stroke="none"/>
    <path d="M-130.9 -240.25 L-131.25 -235.15 -133.25 -235.0 -133.75 -234.65 -138.5 -234.9 -138.5 -234.5 -154.65 -235.25 -156.5 -236.15 -157.4 -238.15 -136.75 -240.5 -130.9 -240.25 M-171.15 -250.9 L-172.25 -252.0 -173.5 -248.4 -174.15 -248.4 -172.65 -264.75 -172.75 -267.15 -172.4 -267.65 -172.4 -270.75 -171.5 -278.5 -169.15 -273.75 -171.15 -250.9" fill="url(#gradient27)" fill-rule="evenodd" stroke="none"/>
    <path d="M-125.0 -241.5 L-126.65 -240.9 -130.9 -240.25 -136.75 -240.5 -157.4 -238.15 -157.65 -238.4 -137.0 -240.75 -125.0 -241.5 M-180.0 -234.75 L-181.4 -234.65 -181.65 -235.0 -179.75 -235.25 -180.0 -234.75" fill="url(#gradient28)" fill-rule="evenodd" stroke="none"/>
    <path d="M-158.65 -300.0 L-158.65 -297.65 -158.25 -297.15 -155.5 -273.25 -156.75 -250.75 -169.75 -249.0 -171.15 -250.9 -169.15 -273.75 -171.5 -278.5 -172.4 -270.75 -172.4 -267.65 -172.75 -267.15 -172.65 -264.75 -174.15 -248.4 -174.15 -248.25 -174.75 -248.25 -173.25 -273.5 -176.65 -299.9 -158.65 -300.0" fill="url(#gradient29)" fill-rule="evenodd" stroke="none"/>
    <path d="M-133.4 -171.75 L-156.25 -186.65 -157.4 -195.65 -157.15 -196.15 -149.65 -196.4 -150.4 -197.65 Q-140.25 -199.0 -144.65 -205.0 L-131.0 -206.25 -111.5 -173.25 -133.4 -171.75 M-161.9 -190.65 L-178.75 -201.75 -168.5 -202.65 -167.25 -201.25 -166.4 -200.9 -162.25 -194.5 -161.9 -190.65 M-128.0 -177.65 L-129.65 -177.25 -126.4 -177.25 -124.65 -177.65 -128.0 -177.65 M-118.65 -178.0 L-118.25 -178.75 -118.25 -180.4 -120.0 -181.25 -121.15 -181.0 -119.0 -178.5 -120.15 -178.25 -118.65 -178.0 M-138.15 -177.9 L-138.9 -179.65 -137.9 -180.25 -139.9 -180.15 -140.0 -178.0 -137.75 -176.75 -135.9 -177.75 -138.15 -177.9" fill="url(#gradient30)" fill-rule="evenodd" stroke="none"/>
    <path d="M-156.25 -186.65 L-153.9 -164.9 -159.15 -165.0 -161.9 -190.65 -162.25 -194.5 -157.4 -195.65 -156.25 -186.65" fill="url(#gradient31)" fill-rule="evenodd" stroke="none"/>
    <path d="M-115.0 -206.5 Q-104.15 -202.9 -106.4 -191.9 -106.0 -190.9 -109.5 -185.25 L-114.5 -180.4 -114.9 -180.25 Q-114.4 -181.5 -118.4 -187.4 L-116.15 -189.75 -112.25 -197.25 -112.15 -201.5 -115.0 -206.5 M-119.0 -178.5 L-121.15 -181.0 -120.0 -181.25 -118.25 -180.4 -118.25 -178.75 -118.65 -178.0 -119.0 -178.5 M-138.15 -177.9 L-137.75 -176.75 -140.0 -178.0 -139.9 -180.15 -137.9 -180.25 -138.9 -179.65 -138.15 -177.9" fill="url(#gradient32)" fill-rule="evenodd" stroke="none"/>
    <path d="M-106.0 -191.4 Q-95.5 -186.5 -104.5 -176.4 L-107.25 -175.4 -111.15 -174.75 -113.0 -178.0 Q-99.25 -184.15 -106.0 -191.4 M-112.25 -172.15 L-115.9 -171.15 -120.9 -171.5 -112.25 -172.15" fill="url(#gradient33)" fill-rule="evenodd" stroke="none"/>
    <path d="M-128.0 -177.65 L-124.65 -177.65 -126.4 -177.25 -129.65 -177.25 -128.0 -177.65 M-119.0 -178.5 L-118.65 -178.0 -120.15 -178.25 -119.0 -178.5 M-137.75 -176.75 L-138.15 -177.9 -135.9 -177.75 -137.75 -176.75" fill="url(#gradient34)" fill-rule="evenodd" stroke="none"/>
    <path d="M-102.15 -174.4 L-103.9 -174.25 -103.25 -174.65 -102.15 -174.4" fill="url(#gradient35)" fill-rule="evenodd" stroke="none"/>
    <path d="M-104.5 -176.4 L-102.5 -176.5 -109.15 -174.4 -111.15 -174.75 -107.25 -175.4 -104.5 -176.4" fill="url(#gradient36)" fill-rule="evenodd" stroke="none"/>
    <path d="M-132.25 -171.25 L-133.4 -171.75 -111.5 -173.25 -110.5 -172.75 -132.25 -171.25" fill="url(#gradient37)" fill-rule="evenodd" stroke="none"/>
    <path d="M-109.5 -172.4 L-112.25 -172.15 -120.9 -171.5 -130.4 -170.9 -132.25 -171.25 -110.5 -172.75 -109.5 -172.4" fill="url(#gradient38)" fill-rule="evenodd" stroke="none"/>
    <path d="M-153.9 -164.9 L-153.25 -164.25 -154.5 -163.9 -160.4 -163.5 -159.15 -165.0 -153.9 -164.9" fill="url(#gradient39)" fill-rule="evenodd" stroke="none"/>
    <path d="M-256.0 -107.0 L-257.5 -124.75 -254.75 -120.5 -237.15 -116.4 -238.25 -85.75 -242.15 -86.9 -243.15 -90.0 -243.5 -89.9 -244.25 -87.4 -251.65 -88.9 -252.5 -90.5 -255.5 -112.75 Q-256.3 -112.2 -256.0 -107.0" fill="url(#gradient40)" fill-rule="evenodd" stroke="none"/>
    <path d="M-194.5 -99.4 L-189.15 -96.4 -188.75 -92.25 Q-201.4 -83.15 -226.65 -83.5 -254.65 -82.65 -265.15 -91.9 L-265.25 -91.9 -265.0 -92.4 -264.5 -92.15 -264.75 -93.65 -263.65 -96.15 -257.25 -99.5 -255.9 -99.75 -255.65 -93.0 -252.5 -90.5 -251.65 -88.9 -244.25 -87.4 -242.15 -86.9 -238.25 -85.75 -232.0 -85.5 -229.0 -85.5 -215.15 -85.4 -210.5 -86.65 -206.5 -87.25 -199.0 -89.65 -195.0 -92.9 -194.75 -98.15 -194.5 -99.4" fill="url(#gradient41)" fill-rule="evenodd" stroke="none"/>
    <path d="M-188.75 -92.25 L-188.9 -78.75 -190.5 -77.5 Q-200.65 -68.9 -231.25 -69.25 L-238.15 -69.5 -251.0 -71.25 -254.0 -72.15 -254.15 -72.15 -255.25 -72.65 -259.0 -73.75 -260.9 -74.65 -262.25 -75.9 -263.9 -77.25 -264.25 -77.65 -265.15 -78.4 -265.15 -84.0 -265.25 -84.4 -265.25 -88.5 -265.15 -91.9 Q-254.65 -82.65 -226.65 -83.5 -201.4 -83.15 -188.75 -92.25" fill="url(#gradient42)" fill-rule="evenodd" stroke="none"/>
    <path d="M-265.25 -88.5 L-265.25 -91.9 -265.15 -91.9 -265.25 -88.5" fill="url(#gradient43)" fill-rule="evenodd" stroke="none"/>
    <path d="M-263.9 -42.65 L-264.9 -43.65 -265.0 -47.75 -265.15 -47.9 -265.0 -58.75 -265.15 -78.4 -264.25 -77.65 -263.9 -77.25 -262.25 -75.9 -260.9 -74.65 -259.0 -73.75 -258.4 -71.15 -254.0 -65.65 -251.5 -62.0 -238.75 -51.15 -228.15 -44.5 -226.9 -43.0 -225.25 -41.0 -220.4 -34.5 -219.75 -34.15 -219.9 -33.75 -218.9 -32.5 -216.65 -29.0 -216.15 -27.9 -215.15 -27.65 -209.65 -24.65 -206.75 -20.25 -206.75 -19.75 -219.9 -25.0 -222.75 -26.9 -231.25 -32.65 -232.75 -32.9 -233.65 -32.9 -233.65 -33.0 -234.75 -33.9 -234.9 -34.25 -243.5 -37.0 -251.4 -38.15 -259.75 -41.5 -261.75 -43.0 -264.15 -45.75 -264.4 -45.5 -263.9 -43.4 -263.9 -42.9 -263.9 -42.65 M-265.25 -91.9 L-265.5 -96.0 -264.75 -93.65 -264.5 -92.15 -265.0 -92.4 -265.25 -91.9" fill="url(#gradient44)" fill-rule="evenodd" stroke="none"/>
    <path d="M-261.4 -33.5 L-261.65 -34.5 -261.65 -34.9 -261.75 -35.0 -262.0 -36.0 -262.15 -36.4 -262.4 -37.4 -262.4 -37.75 -262.5 -37.9 -263.25 -40.75 -263.4 -41.15 -263.65 -42.15 -263.65 -42.4 -263.75 -42.5 -263.75 -42.9 -263.9 -42.9 -263.9 -43.4 -264.4 -45.5 -264.15 -45.75 -261.75 -43.0 -259.75 -41.5 -251.4 -38.15 -243.5 -37.0 -242.9 -35.0 -261.4 -33.5 M-265.15 -47.9 L-266.0 -51.25 -266.15 -51.65 -267.75 -58.5 -265.0 -58.75 -265.15 -47.9" fill="url(#gradient45)" fill-rule="evenodd" stroke="none"/>
    <path d="M-259.0 -73.75 L-255.25 -72.65 -254.15 -72.15 -254.5 -69.5 -254.0 -65.65 -258.4 -71.15 -259.0 -73.75" fill="url(#gradient46)" fill-rule="evenodd" stroke="none"/>
    <path d="M-190.5 -77.5 L-189.9 -72.65 -190.25 -66.75 -190.9 -64.0 -193.0 -62.4 -195.15 -60.0 -197.0 -60.0 -204.4 -57.9 -209.75 -60.75 -210.5 -59.65 Q-219.15 -47.5 -226.9 -43.0 L-228.15 -44.5 -238.75 -51.15 -251.5 -62.0 -254.0 -65.65 -254.5 -69.5 -254.15 -72.15 -254.0 -72.15 -251.0 -71.25 -238.15 -69.5 -231.25 -69.25 Q-200.65 -68.9 -190.5 -77.5" fill="url(#gradient47)" fill-rule="evenodd" stroke="none"/>
    <path d="M-190.25 -66.75 L-166.4 -47.65 Q-154.75 -40.4 -160.15 -25.75 -167.4 -9.25 -177.9 -13.0 L-179.25 -13.65 -179.4 -13.65 -218.9 -32.5 -219.9 -33.75 -219.75 -34.15 -220.4 -34.5 -225.25 -41.0 Q-213.15 -50.0 -210.5 -59.65 L-209.75 -60.75 -204.4 -57.9 -197.0 -60.0 -195.15 -60.0 -193.0 -62.4 -190.9 -64.0 -190.25 -66.75 M-151.15 -35.25 L-139.15 -25.65 Q-132.5 -22.25 -135.9 -9.5 L-137.9 -6.75 -138.65 -4.5 -141.9 -3.65 -143.5 -1.5 -148.75 -1.25 -148.9 -0.9 -150.0 -0.9 -155.25 -2.25 -155.5 -2.4 -155.75 -2.5 -156.4 -2.75 -157.65 -3.4 -159.65 -4.25 -159.75 -4.25 -164.9 -6.75 Q-150.5 -18.75 -151.15 -35.25" fill="url(#gradient48)" fill-rule="evenodd" stroke="none"/>
    <path d="M-210.5 -59.65 Q-213.15 -50.0 -225.25 -41.0 L-226.9 -43.0 Q-219.15 -47.5 -210.5 -59.65" fill="url(#gradient49)" fill-rule="evenodd" stroke="none"/>
    <path d="M-263.75 -42.5 L-263.9 -42.65 -263.9 -42.9 -263.75 -42.9 -263.75 -42.5" fill="url(#gradient50)" fill-rule="evenodd" stroke="none"/>
    <path d="M-242.9 -35.0 L-243.5 -37.0 -234.9 -34.25 -234.75 -33.9 -242.9 -35.0" fill="url(#gradient51)" fill-rule="evenodd" stroke="none"/>
    <path d="M-163.15 -0.9 L-168.75 -0.9 -174.0 -3.15 -174.65 -3.4 -232.75 -28.25 -238.0 -32.15 -243.5 -32.65 -247.15 -32.25 -253.5 -31.9 -260.75 -31.25 -261.4 -33.5 -242.9 -35.0 -234.75 -33.9 -233.65 -33.0 -233.65 -32.9 -232.4 -31.65 -232.15 -31.15 -230.25 -30.25 -225.9 -28.0 -222.75 -26.9 -219.9 -25.0 -206.75 -19.75 -172.9 -5.25 -172.15 -4.75 -171.25 -3.25 -169.5 -3.75 -163.15 -0.9" fill="url(#gradient52)" fill-rule="evenodd" stroke="none"/>
    <path d="M-166.4 -47.65 Q-165.25 -48.75 -155.4 -46.4 -151.75 -45.25 -151.15 -35.25 -150.5 -18.75 -164.9 -6.75 L-166.5 -5.4 -169.5 -3.75 -171.25 -3.25 -172.15 -4.75 -172.9 -5.25 -176.15 -7.4 -177.5 -10.0 -176.9 -12.15 -178.5 -12.5 -179.15 -12.9 -179.4 -13.65 -179.25 -13.65 -177.9 -13.0 Q-167.4 -9.25 -160.15 -25.75 -154.75 -40.4 -166.4 -47.65 M-174.0 -3.15 L-174.25 -2.9 -174.65 -3.4 -174.0 -3.15" fill="url(#gradient53)" fill-rule="evenodd" stroke="none"/>
    <path d="M-157.9 -0.9 L-163.15 -0.9 -169.5 -3.75 -166.5 -5.4 -164.9 -6.75 -159.75 -4.25 -157.9 -0.9 M-218.9 -32.5 L-179.4 -13.65 -179.15 -12.9 -178.5 -12.5 -176.9 -12.15 -177.5 -10.0 -176.15 -7.4 -172.9 -5.25 -206.75 -19.75 -206.75 -20.25 -209.65 -24.65 -215.15 -27.65 -216.65 -29.0 -218.9 -32.5 M-231.25 -32.65 L-222.75 -26.9 -225.9 -28.0 -230.25 -30.25 -231.25 -32.65" fill="url(#gradient54)" fill-rule="evenodd" stroke="none"/>
    <path d="M-247.15 -32.25 L-247.4 -31.65 -249.5 -30.9 -253.15 -31.25 -253.5 -31.9 -247.15 -32.25" fill="url(#gradient55)" fill-rule="evenodd" stroke="none"/>
    <path d="M-233.65 -32.9 L-232.75 -32.9 -232.4 -31.65 -233.65 -32.9" fill="url(#gradient56)" fill-rule="evenodd" stroke="none"/>
    <path d="M-232.75 -32.9 L-231.25 -32.65 -230.25 -30.25 -232.15 -31.15 -232.4 -31.65 -232.75 -32.9" fill="url(#gradient57)" fill-rule="evenodd" stroke="none"/>
    <path d="M-247.4 -31.65 L-247.15 -0.9 -253.15 -0.9 -253.15 -31.25 -249.5 -30.9 -247.4 -31.65" fill="url(#gradient58)" fill-rule="evenodd" stroke="none"/>
    <path d="M-215.15 -27.65 L-216.15 -27.9 -216.65 -29.0 -215.15 -27.65" fill="url(#gradient59)" fill-rule="evenodd" stroke="none"/>
    <path d="M-155.4 -0.9 L-157.9 -0.9 -159.75 -4.25 -159.65 -4.25 -157.65 -3.4 -156.4 -2.75 -155.4 -0.9" fill="url(#gradient60)" fill-rule="evenodd" stroke="none"/>
    <path d="M-154.0 -0.9 L-155.4 -0.9 -156.4 -2.75 -155.75 -2.5 -154.0 -0.9" fill="url(#gradient61)" fill-rule="evenodd" stroke="none"/>
    <path d="M-139.15 -25.65 Q-119.5 -23.15 -121.0 -6.75 -122.0 -3.0 -124.5 -0.9 L-148.9 -0.9 -148.75 -1.25 -143.5 -1.5 -141.9 -3.65 -138.65 -4.5 -137.9 -6.75 -135.9 -9.5 Q-132.5 -22.25 -139.15 -25.65 M-150.0 -0.9 L-154.0 -0.9 -155.75 -2.5 -155.5 -2.4 -155.25 -2.25 -150.0 -0.9" fill="url(#gradient62)" fill-rule="evenodd" stroke="none"/>
    <path d="M-189.5 -251.4 L-189.15 -271.65 -188.25 -292.65 -188.4 -294.0 -184.15 -300.0 -176.75 -300.0 -176.75 -299.75 -176.0 -266.4 -176.25 -247.9 -177.0 -247.9 -189.5 -251.4 M-284.65 -300.0 L-279.4 -300.0 -278.9 -274.65 -279.25 -262.4 -279.65 -256.0 -280.0 -246.75 -280.65 -242.4 -280.65 -237.4 -282.65 -205.65 -283.0 -205.65 -283.5 -232.0 -283.75 -255.25 -284.0 -258.0 -283.9 -258.15 -284.65 -300.0" fill="#ad0000" fill-rule="evenodd" stroke="none"/>
    <path d="M-259.25 -169.0 L-281.9 -165.9 -282.25 -165.9 -284.75 -170.15 -277.5 -177.65 -278.0 -214.5 -280.0 -246.75 -279.65 -256.0 -269.25 -258.0 -269.15 -258.0 -270.65 -254.15 -271.75 -227.65 -271.5 -226.0 -271.4 -225.75 -271.4 -225.5 -265.4 -194.65 -265.0 -193.5 -265.0 -193.4 -259.25 -169.0 M-279.4 -300.0 L-267.15 -300.0 -268.65 -272.4 -279.25 -262.4 -278.9 -274.65 -279.4 -300.0" fill="#ae0000" fill-opacity="0.9098039" fill-rule="evenodd" stroke="none"/>
    <path d="M-267.15 -300.0 L-259.25 -300.0 -258.4 -289.4 -258.65 -288.15 -263.0 -273.0 -269.25 -258.0 -279.65 -256.0 -279.25 -262.4 -268.65 -272.4 -267.15 -300.0" fill="#b00000" fill-rule="evenodd" stroke="none"/>
    <path d="M-259.25 -300.0 L-258.5 -300.0 -257.75 -299.9 -256.9 -300.0 -231.65 -300.0 -231.65 -293.9 -232.0 -293.15 -231.75 -288.75 -232.0 -284.5 -231.9 -283.9 -232.25 -266.9 -232.15 -266.65 -232.25 -261.5 -231.9 -260.65 -231.5 -228.4 -231.15 -227.75 -231.15 -213.65 -231.0 -213.4 -230.9 -201.0 -230.75 -200.5 -231.15 -175.4 -231.0 -174.9 -231.15 -165.9 -252.9 -169.9 -259.25 -169.0 -265.0 -193.4 -265.0 -193.5 -265.4 -194.65 -271.4 -225.5 -271.4 -225.75 -271.5 -226.0 -271.75 -227.65 -270.65 -254.15 -269.15 -258.0 -269.25 -258.0 -263.0 -273.0 -258.65 -288.15 -258.4 -289.4 -259.25 -300.0" fill="#9e0000" fill-opacity="0.9098039" fill-rule="evenodd" stroke="none"/>
    <path d="M-70.0 -300.0 L-69.75 -291.9 -70.15 -273.75 -68.9 -187.15 -77.9 -190.15 -78.25 -190.75 -83.4 -208.75 -95.5 -225.15 -131.25 -235.0 -131.65 -235.0 -130.9 -240.25 -127.4 -240.9 -127.15 -240.9 -126.65 -241.0 -125.0 -241.5 -125.15 -244.25 -125.65 -247.0 -125.5 -247.25 -125.9 -249.9 -125.75 -250.15 -126.15 -252.9 -127.5 -253.15 -123.5 -299.65 -123.25 -299.9 -70.0 -300.0 M-189.15 -271.65 L-189.65 -274.0 -191.5 -289.75 -191.4 -290.25 -188.4 -294.0 -188.25 -292.65 -189.15 -271.65" fill="#cb0000" fill-opacity="0.9098039" fill-rule="evenodd" stroke="none"/>
    <path d="M-176.75 -300.0 L-171.25 -299.9 -170.65 -300.0 -163.9 -300.0 -165.0 -288.9 -164.9 -288.25 -166.4 -271.25 -166.25 -270.0 -167.0 -260.75 -164.25 -243.65 -163.4 -237.75 -163.5 -237.65 -162.9 -234.9 -163.0 -234.65 -162.65 -232.15 -162.5 -231.9 -162.4 -231.25 -162.4 -231.0 -161.9 -227.65 -161.65 -227.65 -162.0 -227.0 -161.15 -224.0 -161.15 -223.9 -161.25 -223.75 -161.25 -223.5 -160.65 -220.0 -160.65 -219.75 -160.15 -216.15 -160.25 -216.0 -160.0 -215.9 -159.5 -212.25 -159.5 -211.65 -158.9 -209.0 -158.9 -208.4 -158.65 -207.15 -158.65 -206.0 -158.15 -204.15 -158.25 -203.5 -157.65 -201.4 -157.75 -200.65 -157.4 -200.0 -157.4 -199.25 -157.5 -198.65 -157.5 -198.4 -157.15 -197.65 -157.15 -197.25 -157.4 -196.5 -157.25 -196.5 -157.25 -196.4 -157.15 -196.4 -157.15 -196.0 -157.0 -195.15 -157.0 -194.65 -155.9 -186.65 -156.4 -186.65 -156.4 -186.25 -156.25 -185.65 -156.25 -184.9 -156.15 -184.9 -156.0 -183.15 -156.0 -182.65 -155.4 -176.75 -155.25 -176.25 -155.25 -175.75 -155.0 -175.0 -155.25 -175.0 -155.25 -174.9 -154.9 -172.65 -154.9 -172.15 -154.75 -171.15 -154.75 -170.75 -155.0 -170.9 -155.5 -171.0 -155.65 -171.25 -155.9 -171.25 -156.4 -171.4 -158.75 -172.5 -159.5 -172.75 -159.5 -172.9 -159.65 -173.0 -159.9 -173.0 -160.25 -176.65 -160.4 -177.25 -160.4 -177.9 -161.4 -187.15 -161.5 -187.5 -161.5 -188.9 -161.65 -189.4 -161.9 -190.65 -176.75 -200.25 -176.9 -200.5 -176.75 -201.9 -176.9 -201.9 -176.75 -207.15 -176.9 -207.25 -176.9 -207.75 -176.5 -209.15 -176.75 -209.75 -176.75 -212.25 -176.5 -212.4 -176.5 -212.75 -176.75 -213.0 -176.9 -215.65 -176.75 -216.0 -176.9 -216.15 -176.9 -216.4 -176.75 -217.0 -176.5 -219.25 -176.5 -220.0 -176.65 -220.5 -176.5 -221.0 -176.5 -222.75 -176.65 -223.15 -176.75 -224.65 -176.5 -225.25 -176.4 -226.25 -176.5 -226.5 -176.4 -227.75 -176.5 -229.25 -176.4 -229.75 -176.5 -230.0 -176.75 -233.4 -176.5 -233.5 -176.5 -233.75 -176.65 -234.0 -176.15 -238.65 -176.4 -242.4 -176.25 -242.65 -176.15 -244.9 -176.25 -245.65 -176.15 -245.9 -176.25 -247.9 -174.75 -248.25 -173.25 -273.5 -176.15 -295.5 -176.25 -295.9 -176.25 -296.4 -176.75 -299.75 -176.75 -300.0" fill="#cf0000" fill-rule="evenodd" stroke="none"/>
    <path d="M-155.9 -186.65 L-155.65 -186.25 -153.65 -170.4 -154.65 -170.65 -154.65 -170.75 -154.75 -170.75 -154.75 -171.15 -154.9 -172.15 -154.9 -172.65 -155.25 -174.9 -155.25 -175.0 -155.0 -175.0 -155.25 -175.75 -155.25 -176.25 -155.4 -176.75 -156.0 -182.65 -156.0 -183.15 -156.15 -184.9 -156.25 -184.9 -156.25 -185.65 -156.4 -186.25 -156.4 -186.65 -155.9 -186.65 M-176.75 -299.75 L-176.25 -296.4 -176.25 -295.9 -176.15 -295.5 -173.25 -273.5 -174.75 -248.25 -176.25 -247.9 -176.0 -266.4 -176.75 -299.75 M-176.75 -200.25 L-161.9 -190.65 -161.65 -189.4 -161.5 -188.9 -161.5 -187.5 -161.4 -187.15 -160.4 -177.9 -160.4 -177.25 -160.25 -176.65 -159.9 -173.0 -174.5 -179.4 -181.25 -179.15 -177.15 -196.0 -176.75 -200.25" fill="#d10000" fill-rule="evenodd" stroke="none"/>
    <path d="M-154.75 -169.75 L-154.9 -169.65 -155.4 -169.4 -155.4 -169.25 -155.75 -169.25 -156.15 -169.0 -156.25 -168.75 -156.65 -168.75 -156.75 -168.5 -157.75 -168.0 -158.15 -168.0 -158.5 -167.75 -158.65 -167.5 -159.0 -167.5 -159.25 -167.25 -159.9 -173.0 -159.65 -173.0 -159.5 -172.9 -159.5 -172.75 -158.75 -172.5 -156.4 -171.4 -155.9 -171.25 -155.65 -171.25 -155.5 -171.0 -155.0 -170.9 -154.75 -170.75 -154.65 -170.75 -154.65 -170.65 -154.75 -169.75" fill="#c10000" fill-opacity="0.9098039" fill-rule="evenodd" stroke="none"/>
    <path d="M-181.25 -179.15 L-190.65 -179.0 -190.25 -200.75 -190.4 -201.25 -190.4 -202.5 -190.15 -204.15 -189.4 -204.15 -188.75 -204.25 -188.5 -204.25 -181.75 -204.9 -181.25 -204.75 -178.75 -201.75 -176.9 -200.5 -176.75 -200.25 -177.15 -196.0 -181.25 -179.15 M-190.25 -205.9 L-189.5 -251.4 -177.0 -247.9 -182.9 -246.5 -182.4 -243.75 -181.65 -235.0 -181.5 -234.65 -181.0 -234.65 -180.4 -234.75 -180.0 -234.75 -180.0 -232.75 -181.75 -229.0 -181.9 -228.75 -182.65 -226.9 -182.65 -223.9 -182.5 -223.75 -182.5 -222.15 -182.4 -221.9 -182.4 -221.15 -182.25 -220.75 -182.25 -218.4 -182.15 -218.0 -182.15 -217.0 -181.9 -215.75 -181.9 -215.4 -181.75 -214.65 -181.65 -212.9 -181.4 -212.15 -181.4 -211.25 -181.25 -210.15 -181.25 -209.4 -181.15 -209.0 -181.15 -208.65 -181.0 -207.9 -181.0 -207.4 -189.9 -205.9 -190.25 -205.9" fill="#ab0000" fill-opacity="0.9098039" fill-rule="evenodd" stroke="none"/>
    <path d="M-190.15 -204.15 L-190.25 -205.9 -189.9 -205.9 -181.0 -207.4 -181.0 -207.9 -181.15 -208.65 -181.15 -209.0 -181.25 -209.4 -181.25 -210.15 -181.4 -211.25 -181.4 -212.15 -181.65 -212.9 -181.75 -214.65 -181.9 -215.4 -181.9 -215.75 -182.15 -217.0 -182.15 -218.0 -182.25 -218.4 -182.25 -220.75 -182.4 -221.15 -182.4 -221.9 -182.5 -222.15 -182.5 -223.75 -182.65 -223.9 -182.65 -226.9 -181.9 -228.75 -181.75 -229.0 -180.0 -232.75 -180.0 -234.75 -180.4 -234.75 -181.0 -234.65 -181.5 -234.65 -181.65 -235.0 -182.4 -243.75 -182.9 -246.5 -177.0 -247.9 -176.25 -247.9 -176.15 -245.9 -176.25 -245.65 -176.15 -244.9 -176.25 -242.65 -176.4 -242.4 -176.15 -238.65 -176.65 -234.0 -176.5 -233.75 -176.5 -233.5 -176.75 -233.4 -176.5 -230.0 -176.4 -229.75 -176.5 -229.25 -176.4 -227.75 -176.5 -226.5 -176.4 -226.25 -176.5 -225.25 -176.75 -224.65 -176.65 -223.15 -176.5 -222.75 -176.5 -221.0 -176.65 -220.5 -176.5 -220.0 -176.5 -219.25 -176.75 -217.0 -176.9 -216.4 -176.9 -216.15 -176.75 -216.0 -176.9 -215.65 -176.75 -213.0 -176.5 -212.75 -176.5 -212.4 -176.75 -212.25 -176.75 -209.75 -176.5 -209.15 -176.9 -207.75 -176.9 -207.25 -176.75 -207.15 -176.9 -201.9 -176.75 -201.9 -176.9 -200.5 -178.75 -201.75 -181.25 -204.75 -181.75 -204.9 -188.5 -204.25 -188.75 -204.25 -189.4 -204.15 -190.15 -204.15" fill="#9b0000" fill-opacity="0.9098039" fill-rule="evenodd" stroke="none"/>
    <path d="M-295.9 -193.25 L-296.9 -227.75 -296.4 -225.0 -295.4 -217.9 -297.4 -258.65 -296.9 -229.75 -301.4 -264.4 -303.15 -300.0 -284.65 -300.0 -283.9 -258.15 -284.0 -258.0 -287.75 -254.65 -287.25 -254.5 -283.75 -255.25 -283.5 -232.0 -285.4 -205.15 -285.25 -196.0 -295.9 -193.25" fill="#b60000" fill-rule="evenodd" stroke="none"/>
    <path d="M-296.9 -228.75 L-296.9 -229.75 -297.4 -258.65 -295.4 -217.9 -296.4 -225.0 -296.9 -228.75 M-284.0 -258.0 L-283.75 -255.25 -287.25 -254.5 -287.75 -254.65 -284.0 -258.0" fill="#b50000" fill-rule="evenodd" stroke="none"/>
    <path d="M-296.9 -227.75 L-296.9 -228.75 -296.4 -225.0 -296.9 -227.75" fill="#ed0000" fill-rule="evenodd" stroke="none"/>
    <path d="M-284.75 -170.15 L-284.9 -180.75 -285.25 -196.0 -285.4 -205.15 -283.5 -232.0 -283.0 -205.65 -282.65 -205.65 -280.65 -237.4 -280.65 -242.4 -280.0 -246.75 -278.0 -214.5 -277.5 -177.65 -284.75 -170.15" fill="#ae0000" fill-rule="evenodd" stroke="none"/>
    <path d="M-284.9 -180.75 L-290.65 -180.4 Q-291.65 -180.65 -294.4 -185.9 L-295.9 -193.25 -285.25 -196.0 -284.9 -180.75" fill="#b00000" fill-opacity="0.9098039" fill-rule="evenodd" stroke="none"/>
    <path d="M-153.65 -170.4 L-154.5 -169.75 -154.75 -169.75 -154.65 -170.65 -153.65 -170.4 M-159.25 -167.25 L-187.25 -152.75 -187.5 -153.25 -181.25 -179.15 -174.5 -179.4 -159.9 -173.0 -159.25 -167.25" fill="#d50000" fill-opacity="0.9098039" fill-rule="evenodd" stroke="none"/>
  </g>
  <defs>
    <radialGradient cx="0" cy="0" gradientTransform="matrix(0.0166, 0.0, 0.0, 0.0166, -244.9, -299.65)" gradientUnits="userSpaceOnUse" id="gradient0" r="819.2" spreadMethod="pad">
      <stop offset="0.0" stop-color="#000000"/>
      <stop offset="1.0" stop-color="#000000"/>
    </radialGradient>
    <radialGradient cx="0" cy="0" gradientTransform="matrix(0.0321, 0.0, 0.0, 0.0321, -259.2, -300.0)" gradientUnits="userSpaceOnUse" id="gradient1" r="819.2" spreadMethod="pad">
      <stop offset="0.0" stop-color="#000000"/>
      <stop offset="1.0" stop-color="#000000"/>
    </radialGradient>
    <radialGradient cx="0" cy="0" gradientTransform="matrix(0.173, 0.0, 0.0, 0.173, -270.65, -254.2)" gradientUnits="userSpaceOnUse" id="gradient2" r="819.2" spreadMethod="pad">
      <stop offset="0.0" stop-color="#0a0a0a"/>
      <stop offset="1.0" stop-color="#000000"/>
    </radialGradient>
    <radialGradient cx="0" cy="0" gradientTransform="matrix(0.0425, 0.0, 0.0, 0.0425, -209.5, -288.25)" gradientUnits="userSpaceOnUse" id="gradient3" r="819.2" spreadMethod="pad">
      <stop offset="0.0" stop-color="#010101"/>
      <stop offset="1.0" stop-color="#000000"/>
    </radialGradient>
    <radialGradient cx="0" cy="0" gradientTransform="matrix(0.0131, 0.0, 0.0, 0.0131, -189.8, -300.0)" gradientUnits="userSpaceOnUse" id="gradient4" r="819.2" spreadMethod="pad">
      <stop offset="0.0" stop-color="#000000"/>
      <stop offset="1.0" stop-color="#000000"/>
    </radialGradient>
    <radialGradient cx="0" cy="0" gradientTransform="matrix(0.1215, 0.0, 0.0, 0.1215, -194.9, -224.15)" gradientUnits="userSpaceOnUse" id="gradient5" r="819.2" spreadMethod="pad">
      <stop offset="0.0" stop-color="#111111"/>
      <stop offset="1.0" stop-color="#000000"/>
    </radialGradient>
    <radialGradient cx="0" cy="0" gradientTransform="matrix(0.0798, 0.0, 0.0, 0.0798, -125.1, -300.0)" gradientUnits="userSpaceOnUse" id="gradient6" r="819.2" spreadMethod="pad">
      <stop offset="0.0" stop-color="#262626"/>
      <stop offset="1.0" stop-color="#070707"/>
    </radialGradient>
    <radialGradient cx="0" cy="0" gradientTransform="matrix(0.0653, 0.0, 0.0, 0.0653, -124.6, -298.25)" gradientUnits="userSpaceOnUse" id="gradient7" r="819.2" spreadMethod="pad">
      <stop offset="0.0" stop-color="#242424"/>
      <stop offset="1.0" stop-color="#000000"/>
    </radialGradient>
    <radialGradient cx="0" cy="0" gradientTransform="matrix(0.0675, 0.0, 0.0, 0.0675, -129.4, -253.3)" gradientUnits="userSpaceOnUse" id="gradient8" r="819.2" spreadMethod="pad">
      <stop offset="0.0" stop-color="#939393"/>
      <stop offset="1.0" stop-color="#3b3b3b"/>
    </radialGradient>
    <radialGradient cx="0" cy="0" gradientTransform="matrix(0.028, 0.0, 0.0, 0.028, -207.25, -289.05)" gradientUnits="userSpaceOnUse" id="gradient9" r="819.2" spreadMethod="pad">
      <stop offset="0.0" stop-color="#181818"/>
      <stop offset="1.0" stop-color="#040404"/>
    </radialGradient>
    <radialGradient cx="0" cy="0" gradientTransform="matrix(0.2696, 0.0, 0.0, 0.2696, -205.55, -288.25)" gradientUnits="userSpaceOnUse" id="gradient10" r="819.2" spreadMethod="pad">
      <stop offset="0.0" stop-color="#181818"/>
      <stop offset="1.0" stop-color="#000000"/>
    </radialGradient>
    <radialGradient cx="0" cy="0" gradientTransform="matrix(0.1714, 0.0, 0.0, 0.1714, -210.1, -254.3)" gradientUnits="userSpaceOnUse" id="gradient11" r="819.2" spreadMethod="pad">
      <stop offset="0.0" stop-color="#494949"/>
      <stop offset="1.0" stop-color="#000000"/>
    </radialGradient>
    <radialGradient cx="0" cy="0" gradientTransform="matrix(0.078, 0.0, 0.0, 0.078, -238.5, -76.75)" gradientUnits="userSpaceOnUse" id="gradient12" r="819.2" spreadMethod="pad">
      <stop offset="0.0" stop-color="#000000"/>
      <stop offset="1.0" stop-color="#000000"/>
    </radialGradient>
    <radialGradient cx="0" cy="0" gradientTransform="matrix(0.0604, 0.0, 0.0, 0.0604, -202.95, -82.7)" gradientUnits="userSpaceOnUse" id="gradient13" r="819.2" spreadMethod="pad">
      <stop offset="0.0" stop-color="#000000"/>
      <stop offset="1.0" stop-color="#000000"/>
    </radialGradient>
    <radialGradient cx="0" cy="0" gradientTransform="matrix(0.0599, 0.0, 0.0, 0.0599, -142.15, -208.9)" gradientUnits="userSpaceOnUse" id="gradient14" r="819.2" spreadMethod="pad">
      <stop offset="0.0" stop-color="#121212"/>
      <stop offset="1.0" stop-color="#121212"/>
    </radialGradient>
    <radialGradient cx="0" cy="0" gradientTransform="matrix(0.0615, 0.0, 0.0, 0.0615, -133.35, -209.55)" gradientUnits="userSpaceOnUse" id="gradient15" r="819.2" spreadMethod="pad">
      <stop offset="0.0" stop-color="#121212"/>
      <stop offset="1.0" stop-color="#121212"/>
    </radialGradient>
    <radialGradient cx="0" cy="0" gradientTransform="matrix(0.06, 0.0, 0.0, 0.06, -132.25, -207.95)" gradientUnits="userSpaceOnUse" id="gradient16" r="819.2" spreadMethod="pad">
      <stop offset="0.0" stop-color="#121212"/>
      <stop offset="1.0" stop-color="#121212"/>
    </radialGradient>
    <radialGradient cx="0" cy="0" gradientTransform="matrix(0.06, 0.0, 0.0, 0.06, -131.0, -206.35)" gradientUnits="userSpaceOnUse" id="gradient17" r="819.2" spreadMethod="pad">
      <stop offset="0.0" stop-color="#121212"/>
      <stop offset="1.0" stop-color="#121212"/>
    </radialGradient>
    <radialGradient cx="0" cy="0" gradientTransform="matrix(0.0465, 0.0, 0.0, 0.0465, -140.5, -227.4)" gradientUnits="userSpaceOnUse" id="gradient18" r="819.2" spreadMethod="pad">
      <stop offset="0.0" stop-color="#4d4d4d"/>
      <stop offset="1.0" stop-color="#000000"/>
    </radialGradient>
    <radialGradient cx="0" cy="0" gradientTransform="matrix(0.0746, 0.0, 0.0, 0.0746, -126.7, -211.35)" gradientUnits="userSpaceOnUse" id="gradient19" r="819.2" spreadMethod="pad">
      <stop offset="0.0" stop-color="#bdbdbd"/>
      <stop offset="1.0" stop-color="#2a2a2a"/>
    </radialGradient>
    <radialGradient cx="0" cy="0" gradientTransform="matrix(0.0188, 0.0, 0.0, 0.0188, -167.0, -202.1)" gradientUnits="userSpaceOnUse" id="gradient20" r="819.2" spreadMethod="pad">
      <stop offset="0.0" stop-color="#dedede"/>
      <stop offset="1.0" stop-color="#242424"/>
    </radialGradient>
    <radialGradient cx="0" cy="0" gradientTransform="matrix(0.0576, 0.0, 0.0, 0.0576, -133.35, -209.55)" gradientUnits="userSpaceOnUse" id="gradient21" r="819.2" spreadMethod="pad">
      <stop offset="0.0" stop-color="#8f8f8f"/>
      <stop offset="1.0" stop-color="#8f8f8f"/>
    </radialGradient>
    <radialGradient cx="0" cy="0" gradientTransform="matrix(0.0683, 0.0, 0.0, 0.0683, -135.5, -212.1)" gradientUnits="userSpaceOnUse" id="gradient22" r="819.2" spreadMethod="pad">
      <stop offset="0.0" stop-color="#717171"/>
      <stop offset="1.0" stop-color="#707070"/>
    </radialGradient>
    <radialGradient cx="0" cy="0" gradientTransform="matrix(0.0206, 0.0, 0.0, 0.0206, -138.65, -202.65)" gradientUnits="userSpaceOnUse" id="gradient23" r="819.2" spreadMethod="pad">
      <stop offset="0.0" stop-color="#212121"/>
      <stop offset="1.0" stop-color="#212121"/>
    </radialGradient>
    <radialGradient cx="0" cy="0" gradientTransform="matrix(0.0654, 0.0, 0.0, 0.0654, -127.2, -227.1)" gradientUnits="userSpaceOnUse" id="gradient24" r="819.2" spreadMethod="pad">
      <stop offset="0.0" stop-color="#0d0d0d"/>
      <stop offset="1.0" stop-color="#000000"/>
    </radialGradient>
    <radialGradient cx="0" cy="0" gradientTransform="matrix(0.0296, 0.0, 0.0, 0.0296, -148.55, -215.65)" gradientUnits="userSpaceOnUse" id="gradient25" r="819.2" spreadMethod="pad">
      <stop offset="0.0" stop-color="#000000"/>
      <stop offset="1.0" stop-color="#000000"/>
    </radialGradient>
    <radialGradient cx="0" cy="0" gradientTransform="matrix(0.0252, 0.0, 0.0, 0.0252, -146.05, -236.6)" gradientUnits="userSpaceOnUse" id="gradient26" r="819.2" spreadMethod="pad">
      <stop offset="0.0" stop-color="#7c7c7c"/>
      <stop offset="1.0" stop-color="#020202"/>
    </radialGradient>
    <radialGradient cx="0" cy="0" gradientTransform="matrix(0.059, 0.0, 0.0, 0.059, -143.4, -268.35)" gradientUnits="userSpaceOnUse" id="gradient27" r="819.2" spreadMethod="pad">
      <stop offset="0.0" stop-color="#101010"/>
      <stop offset="1.0" stop-color="#020202"/>
    </radialGradient>
    <radialGradient cx="0" cy="0" gradientTransform="matrix(0.0618, 0.0, 0.0, 0.0618, -131.15, -240.25)" gradientUnits="userSpaceOnUse" id="gradient28" r="819.2" spreadMethod="pad">
      <stop offset="0.0" stop-color="#9f9f9f"/>
      <stop offset="1.0" stop-color="#9c9c9c"/>
    </radialGradient>
    <radialGradient cx="0" cy="0" gradientTransform="matrix(0.0706, 0.0, 0.0, 0.0706, -174.95, -244.5)" gradientUnits="userSpaceOnUse" id="gradient29" r="819.2" spreadMethod="pad">
      <stop offset="0.0" stop-color="#0c0c0c"/>
      <stop offset="1.0" stop-color="#000000"/>
    </radialGradient>
    <radialGradient cx="0" cy="0" gradientTransform="matrix(0.0891, 0.0, 0.0, 0.0891, -111.5, -173.35)" gradientUnits="userSpaceOnUse" id="gradient30" r="819.2" spreadMethod="pad">
      <stop offset="0.0" stop-color="#121212"/>
      <stop offset="1.0" stop-color="#121212"/>
    </radialGradient>
    <radialGradient cx="0" cy="0" gradientTransform="matrix(0.0401, 0.0, 0.0, 0.0401, -157.4, -196.6)" gradientUnits="userSpaceOnUse" id="gradient31" r="819.2" spreadMethod="pad">
      <stop offset="0.0" stop-color="#b3b3b3"/>
      <stop offset="1.0" stop-color="#505050"/>
    </radialGradient>
    <radialGradient cx="0" cy="0" gradientTransform="matrix(0.0485, 0.0, 0.0, 0.0485, -140.1, -178.25)" gradientUnits="userSpaceOnUse" id="gradient32" r="819.2" spreadMethod="pad">
      <stop offset="0.0" stop-color="#d9d9d9"/>
      <stop offset="1.0" stop-color="#414141"/>
    </radialGradient>
    <radialGradient cx="0" cy="0" gradientTransform="matrix(0.0322, 0.0, 0.0, 0.0322, -103.75, -190.35)" gradientUnits="userSpaceOnUse" id="gradient33" r="819.2" spreadMethod="pad">
      <stop offset="0.0" stop-color="#dfdfdf"/>
      <stop offset="1.0" stop-color="#505050"/>
    </radialGradient>
    <radialGradient cx="0" cy="0" gradientTransform="matrix(0.0264, 0.0, 0.0, 0.0264, -140.1, -178.25)" gradientUnits="userSpaceOnUse" id="gradient34" r="819.2" spreadMethod="pad">
      <stop offset="0.0" stop-color="#d9d9d9"/>
      <stop offset="1.0" stop-color="#353535"/>
    </radialGradient>
    <radialGradient cx="0" cy="0" gradientTransform="matrix(0.0264, 0.0, 0.0, 0.0264, -101.85, -174.45)" gradientUnits="userSpaceOnUse" id="gradient35" r="819.2" spreadMethod="pad">
      <stop offset="0.0" stop-color="#121212"/>
      <stop offset="1.0" stop-color="#121212"/>
    </radialGradient>
    <radialGradient cx="0" cy="0" gradientTransform="matrix(0.0361, 0.0, 0.0, 0.0361, -101.95, -176.65)" gradientUnits="userSpaceOnUse" id="gradient36" r="819.2" spreadMethod="pad">
      <stop offset="0.0" stop-color="#787878"/>
      <stop offset="1.0" stop-color="#767676"/>
    </radialGradient>
    <radialGradient cx="0" cy="0" gradientTransform="matrix(0.0283, 0.0, 0.0, 0.0283, -110.3, -172.8)" gradientUnits="userSpaceOnUse" id="gradient37" r="819.2" spreadMethod="pad">
      <stop offset="0.0" stop-color="#121212"/>
      <stop offset="1.0" stop-color="#121212"/>
    </radialGradient>
    <radialGradient cx="0" cy="0" gradientTransform="matrix(0.0282, 0.0, 0.0, 0.0282, -109.15, -172.45)" gradientUnits="userSpaceOnUse" id="gradient38" r="819.2" spreadMethod="pad">
      <stop offset="0.0" stop-color="#121212"/>
      <stop offset="1.0" stop-color="#121212"/>
    </radialGradient>
    <radialGradient cx="0" cy="0" gradientTransform="matrix(0.0086, 0.0, 0.0, 0.0086, -153.3, -164.4)" gradientUnits="userSpaceOnUse" id="gradient39" r="819.2" spreadMethod="pad">
      <stop offset="0.0" stop-color="#e4e4e4"/>
      <stop offset="1.0" stop-color="#555555"/>
    </radialGradient>
    <radialGradient cx="0" cy="0" gradientTransform="matrix(0.0637, 0.0, 0.0, 0.0637, -257.55, -125.3)" gradientUnits="userSpaceOnUse" id="gradient40" r="819.2" spreadMethod="pad">
      <stop offset="0.0" stop-color="#020202"/>
      <stop offset="1.0" stop-color="#000000"/>
    </radialGradient>
    <radialGradient cx="0" cy="0" gradientTransform="matrix(0.0859, 0.0, 0.0, 0.0859, -195.15, -99.85)" gradientUnits="userSpaceOnUse" id="gradient41" r="819.2" spreadMethod="pad">
      <stop offset="0.0" stop-color="#b3b3b3"/>
      <stop offset="1.0" stop-color="#b1b1b1"/>
    </radialGradient>
    <radialGradient cx="0" cy="0" gradientTransform="matrix(0.0945, 0.0, 0.0, 0.0945, -188.8, -92.45)" gradientUnits="userSpaceOnUse" id="gradient42" r="819.2" spreadMethod="pad">
      <stop offset="0.0" stop-color="#9c9c9c"/>
      <stop offset="1.0" stop-color="#444444"/>
    </radialGradient>
    <radialGradient cx="0" cy="0" gradientTransform="matrix(0.0135, 0.0, 0.0, 0.0135, -263.65, -89.4)" gradientUnits="userSpaceOnUse" id="gradient43" r="819.2" spreadMethod="pad">
      <stop offset="0.0" stop-color="#a1a1a1"/>
      <stop offset="1.0" stop-color="#212121"/>
    </radialGradient>
    <radialGradient cx="0" cy="0" gradientTransform="matrix(0.0941, 0.0, 0.0, 0.0941, -220.0, -34.25)" gradientUnits="userSpaceOnUse" id="gradient44" r="819.2" spreadMethod="pad">
      <stop offset="0.0" stop-color="#737373"/>
      <stop offset="1.0" stop-color="#212121"/>
    </radialGradient>
    <radialGradient cx="0" cy="0" gradientTransform="matrix(0.0344, 0.0, 0.0, 0.0344, -261.1, -33.5)" gradientUnits="userSpaceOnUse" id="gradient45" r="819.2" spreadMethod="pad">
      <stop offset="0.0" stop-color="#7f7f7f"/>
      <stop offset="1.0" stop-color="#7f7f7f"/>
    </radialGradient>
    <radialGradient cx="0" cy="0" gradientTransform="matrix(0.0156, 0.0, 0.0, 0.0156, -259.55, -75.2)" gradientUnits="userSpaceOnUse" id="gradient46" r="819.2" spreadMethod="pad">
      <stop offset="0.0" stop-color="#929292"/>
      <stop offset="1.0" stop-color="#7a7a7a"/>
    </radialGradient>
    <radialGradient cx="0" cy="0" gradientTransform="matrix(0.0552, 0.0, 0.0, 0.0552, -209.25, -72.8)" gradientUnits="userSpaceOnUse" id="gradient47" r="819.2" spreadMethod="pad">
      <stop offset="0.0" stop-color="#272727"/>
      <stop offset="1.0" stop-color="#000000"/>
    </radialGradient>
    <radialGradient cx="0" cy="0" gradientTransform="matrix(0.1215, 0.0, 0.0, 0.1215, -206.9, -76.1)" gradientUnits="userSpaceOnUse" id="gradient48" r="819.2" spreadMethod="pad">
      <stop offset="0.0" stop-color="#1f1f1f"/>
      <stop offset="1.0" stop-color="#000000"/>
    </radialGradient>
    <radialGradient cx="0" cy="0" gradientTransform="matrix(0.0288, 0.0, 0.0, 0.0288, -222.65, -62.35)" gradientUnits="userSpaceOnUse" id="gradient49" r="819.2" spreadMethod="pad">
      <stop offset="0.0" stop-color="#000000"/>
      <stop offset="1.0" stop-color="#000000"/>
    </radialGradient>
    <radialGradient cx="0" cy="0" gradientTransform="matrix(0.032, 0.0, 0.0, 0.032, -267.35, -56.8)" gradientUnits="userSpaceOnUse" id="gradient50" r="819.2" spreadMethod="pad">
      <stop offset="0.0" stop-color="#818181"/>
      <stop offset="1.0" stop-color="#818181"/>
    </radialGradient>
    <radialGradient cx="0" cy="0" gradientTransform="matrix(0.0325, 0.0, 0.0, 0.0325, -244.15, -58.8)" gradientUnits="userSpaceOnUse" id="gradient51" r="819.2" spreadMethod="pad">
      <stop offset="0.0" stop-color="#989898"/>
      <stop offset="1.0" stop-color="#979797"/>
    </radialGradient>
    <radialGradient cx="0" cy="0" gradientTransform="matrix(0.1259, 0.0, 0.0, 0.1259, -163.2, -1.0)" gradientUnits="userSpaceOnUse" id="gradient52" r="819.2" spreadMethod="pad">
      <stop offset="0.0" stop-color="#545454"/>
      <stop offset="1.0" stop-color="#535353"/>
    </radialGradient>
    <radialGradient cx="0" cy="0" gradientTransform="matrix(0.0554, 0.0, 0.0, 0.0554, -152.55, -42.9)" gradientUnits="userSpaceOnUse" id="gradient53" r="819.2" spreadMethod="pad">
      <stop offset="0.0" stop-color="#eaeaea"/>
      <stop offset="1.0" stop-color="#393939"/>
    </radialGradient>
    <radialGradient cx="0" cy="0" gradientTransform="matrix(0.1069, 0.0, 0.0, 0.1069, -164.05, -11.8)" gradientUnits="userSpaceOnUse" id="gradient54" r="819.2" spreadMethod="pad">
      <stop offset="0.0" stop-color="#ababab"/>
      <stop offset="1.0" stop-color="#aaaaaa"/>
    </radialGradient>
    <radialGradient cx="0" cy="0" gradientTransform="matrix(0.0094, 0.0, 0.0, 0.0094, -248.25, -30.4)" gradientUnits="userSpaceOnUse" id="gradient55" r="819.2" spreadMethod="pad">
      <stop offset="0.0" stop-color="#515151"/>
      <stop offset="1.0" stop-color="#212121"/>
    </radialGradient>
    <radialGradient cx="0" cy="0" gradientTransform="matrix(0.0325, 0.0, 0.0, 0.0325, -234.7, -33.9)" gradientUnits="userSpaceOnUse" id="gradient56" r="819.2" spreadMethod="pad">
      <stop offset="0.0" stop-color="#aeaeae"/>
      <stop offset="1.0" stop-color="#aeaeae"/>
    </radialGradient>
    <radialGradient cx="0" cy="0" gradientTransform="matrix(0.0329, 0.0, 0.0, 0.0329, -232.25, -31.4)" gradientUnits="userSpaceOnUse" id="gradient57" r="819.2" spreadMethod="pad">
      <stop offset="0.0" stop-color="#adadad"/>
      <stop offset="1.0" stop-color="#adadad"/>
    </radialGradient>
    <radialGradient cx="0" cy="0" gradientTransform="matrix(0.025, 0.0, 0.0, 0.025, -247.3, -20.65)" gradientUnits="userSpaceOnUse" id="gradient58" r="819.2" spreadMethod="pad">
      <stop offset="0.0" stop-color="#a0a0a0"/>
      <stop offset="1.0" stop-color="#373737"/>
    </radialGradient>
    <radialGradient cx="0" cy="0" gradientTransform="matrix(0.0524, 0.0, 0.0, 0.0524, -223.45, -32.35)" gradientUnits="userSpaceOnUse" id="gradient59" r="819.2" spreadMethod="pad">
      <stop offset="0.0" stop-color="#eeeeee"/>
      <stop offset="1.0" stop-color="#d8d8d8"/>
    </radialGradient>
    <radialGradient cx="0" cy="0" gradientTransform="matrix(0.0168, 0.0, 0.0, 0.0168, -164.05, -11.8)" gradientUnits="userSpaceOnUse" id="gradient60" r="819.2" spreadMethod="pad">
      <stop offset="0.0" stop-color="#a0a0a0"/>
      <stop offset="1.0" stop-color="#a0a0a0"/>
    </radialGradient>
    <radialGradient cx="0" cy="0" gradientTransform="matrix(0.0155, 0.0, 0.0, 0.0155, -161.4, -11.25)" gradientUnits="userSpaceOnUse" id="gradient61" r="819.2" spreadMethod="pad">
      <stop offset="0.0" stop-color="#939393"/>
      <stop offset="1.0" stop-color="#939393"/>
    </radialGradient>
    <radialGradient cx="0" cy="0" gradientTransform="matrix(0.0443, 0.0, 0.0, 0.0443, -155.75, -2.05)" gradientUnits="userSpaceOnUse" id="gradient62" r="819.2" spreadMethod="pad">
      <stop offset="0.0" stop-color="#f0f0f0"/>
      <stop offset="1.0" stop-color="#646464"/>
    </radialGradient>
  </defs>
</svg>
