<?xml version="1.0" encoding="UTF-8" standalone="no"?>
<svg xmlns:xlink="http://www.w3.org/1999/xlink" height="299.1px" width="219.25px" xmlns="http://www.w3.org/2000/svg">
  <g transform="matrix(1.0, 0.0, 0.0, 1.0, 323.65, 300.0)">
    <path d="M-176.25 -300.0 L-124.65 -300.0 Q-124.0 -299.5 -125.4 -295.25 L-130.25 -272.9 -139.5 -273.9 -155.25 -274.9 -185.9 -279.15 -176.25 -300.0" fill="url(#gradient0)" fill-rule="evenodd" stroke="none"/>
    <path d="M-130.25 -272.9 L-139.15 -255.4 -151.25 -253.4 -156.5 -253.5 -159.75 -253.9 -161.65 -253.65 -174.65 -254.0 -174.9 -254.15 -185.9 -279.15 -155.25 -274.9 -139.5 -273.9 -130.25 -272.9" fill="url(#gradient1)" fill-rule="evenodd" stroke="none"/>
    <path d="M-221.75 -277.4 L-222.0 -300.0 -176.25 -300.0 -185.9 -279.15 -221.75 -277.4" fill="url(#gradient2)" fill-rule="evenodd" stroke="none"/>
    <path d="M-219.25 -257.75 L-221.75 -277.4 -185.9 -279.15 -174.9 -254.15 -204.9 -257.25 -219.25 -257.75 M-196.75 -266.75 L-193.5 -266.75 -192.65 -266.65 -189.25 -266.65 -188.5 -266.5 -185.25 -266.5 -186.0 -267.4 -199.75 -275.15 -200.9 -275.0 -201.9 -267.0 -197.5 -266.9 -196.75 -266.75 M-209.9 -274.4 L-210.25 -274.5 -211.5 -267.15 -208.25 -267.15 -209.9 -274.4" fill="url(#gradient3)" fill-rule="evenodd" stroke="none"/>
    <path d="M-221.9 -87.0 L-222.15 -119.65 -227.9 -152.0 -232.75 -188.0 -230.65 -218.4 -221.15 -239.15 -219.75 -250.15 -219.25 -257.75 -204.9 -257.25 -174.9 -254.15 -174.65 -254.0 -176.25 -233.15 -190.75 -214.4 -192.0 -182.65 -188.15 -148.0 -182.65 -110.25 -182.25 -109.75 -183.15 -64.0 -209.4 -68.0 -221.5 -74.4 -221.9 -87.0" fill="url(#gradient4)" fill-rule="evenodd" stroke="none"/>
    <path d="M-196.75 -266.75 L-197.5 -266.9 -201.9 -267.0 -200.9 -275.0 -199.75 -275.15 -186.0 -267.4 -185.25 -266.5 -188.5 -266.5 -189.25 -266.65 -192.65 -266.65 -193.5 -266.75 -196.75 -266.75 M-209.9 -274.4 L-208.25 -267.15 -211.5 -267.15 -210.25 -274.5 -209.9 -274.4" fill="url(#gradient5)" fill-rule="evenodd" stroke="none"/>
    <path d="M-139.15 -255.4 L-139.65 -234.15 -148.25 -78.4 -156.0 -72.65 -183.15 -64.0 -182.25 -109.75 -182.65 -110.25 -188.15 -148.0 -192.0 -182.65 -190.75 -214.4 -176.25 -233.15 -174.65 -254.0 -161.65 -253.65 -158.75 -251.15 -156.5 -253.5 -151.25 -253.4 -139.15 -255.4" fill="url(#gradient6)" fill-rule="evenodd" stroke="none"/>
    <path d="M-148.25 -78.4 L-155.4 -50.4 -156.25 -46.15 -157.5 -41.65 -159.75 -42.5 -160.25 -42.4 -162.75 -36.15 Q-165.5 -33.4 -166.15 -33.5 L-179.4 -32.0 -181.75 -32.65 -182.4 -31.65 -188.9 -31.0 -183.15 -64.0 -156.0 -72.65 -148.25 -78.4" fill="url(#gradient7)" fill-rule="evenodd" stroke="none"/>
    <path d="M-223.15 -52.65 L-221.9 -87.0 -221.5 -74.4 -220.5 -46.15 -217.9 -58.9 -217.9 -60.75 -217.4 -60.9 -211.0 -35.5 -218.4 -38.5 -223.25 -43.5 -223.15 -52.65 M-156.5 -253.5 L-158.75 -251.15 -161.65 -253.65 -159.75 -253.9 -156.5 -253.5 M-156.25 -46.15 L-156.4 -41.65 Q-160.75 -35.65 -162.75 -36.15 L-160.25 -42.4 -159.75 -42.5 -157.5 -41.65 -156.25 -46.15 M-179.4 -32.0 L-182.4 -31.65 -181.75 -32.65 -179.4 -32.0 M-194.5 -31.9 L-197.5 -32.4 Q-195.65 -38.65 -194.5 -31.9" fill="url(#gradient8)" fill-rule="evenodd" stroke="none"/>
    <path d="M-188.9 -31.0 L-194.5 -31.9 Q-195.65 -38.65 -197.5 -32.4 L-208.0 -33.5 -211.0 -35.5 -217.4 -60.9 -217.9 -60.75 -217.9 -58.9 -220.5 -46.15 -221.5 -74.4 -209.4 -68.0 -183.15 -64.0 -188.9 -31.0" fill="url(#gradient9)" fill-rule="evenodd" stroke="none"/>
    <path d="M-155.4 -50.4 L-150.65 -46.75 -149.9 -40.75 -155.9 -34.9 -167.15 -30.65 -182.9 -28.25 -200.9 -28.5 -215.9 -31.15 -227.15 -36.0 -227.25 -36.25 -226.25 -36.4 -227.75 -40.5 -228.25 -40.9 -229.15 -38.65 -231.9 -41.5 -230.5 -47.4 -223.15 -52.65 -223.25 -43.5 -218.4 -38.5 -211.0 -35.5 -208.0 -33.5 -197.5 -32.4 -194.5 -31.9 -188.9 -31.0 -182.4 -31.65 -179.4 -32.0 -166.15 -33.5 Q-165.5 -33.4 -162.75 -36.15 -160.75 -35.65 -156.4 -41.65 L-156.25 -46.15 -155.4 -50.4" fill="url(#gradient10)" fill-rule="evenodd" stroke="none"/>
    <path d="M-149.9 -40.75 L-150.65 -26.4 -152.25 -24.4 Q-163.25 -12.0 -193.0 -12.9 L-201.15 -12.9 -215.0 -15.5 -216.75 -15.9 -227.65 -21.0 -227.15 -36.0 -215.9 -31.15 -200.9 -28.5 -182.9 -28.25 -167.15 -30.65 -155.9 -34.9 -149.9 -40.75 M-232.15 -34.25 L-231.9 -41.5 -229.15 -38.65 -230.9 -33.15 -231.25 -33.15 -232.15 -34.25" fill="url(#gradient11)" fill-rule="evenodd" stroke="none"/>
    <path d="M-200.5 -0.9 L-234.5 -0.9 -234.4 -4.9 -233.65 -34.9 -233.4 -35.65 -232.15 -34.25 -231.25 -33.15 -230.9 -33.15 -229.15 -38.65 -228.25 -40.9 -227.75 -40.5 -226.25 -36.4 -227.25 -36.25 -227.15 -36.0 -227.65 -21.0 -216.75 -15.9 -215.0 -15.5 Q-215.65 -12.15 -200.5 -0.9" fill="url(#gradient12)" fill-rule="evenodd" stroke="none"/>
    <path d="M-234.5 -0.9 L-247.15 -0.9 -247.65 -1.15 -247.5 -1.5 -234.4 -4.9 -234.5 -0.9" fill="url(#gradient13)" fill-rule="evenodd" stroke="none"/>
    <path d="M-152.25 -24.4 L-152.15 -16.9 -152.5 -15.15 -153.25 -10.65 Q-154.25 -10.75 -157.65 -6.25 L-161.5 -8.15 -161.9 -7.5 -166.0 -0.9 -200.5 -0.9 Q-215.65 -12.15 -215.0 -15.5 L-201.15 -12.9 -193.0 -12.9 Q-163.25 -12.0 -152.25 -24.4" fill="url(#gradient14)" fill-rule="evenodd" stroke="none"/>
    <path d="M-152.5 -15.15 L-141.75 -6.25 -135.5 -0.9 -163.25 -0.9 -161.65 -5.5 -161.9 -7.5 -161.5 -8.15 -157.65 -6.25 Q-154.25 -10.75 -153.25 -10.65 L-152.5 -15.15" fill="url(#gradient15)" fill-rule="evenodd" stroke="none"/>
    <path d="M-141.75 -6.25 Q-133.15 -7.4 -126.15 -1.65 L-125.5 -0.9 -135.5 -0.9 -141.75 -6.25" fill="url(#gradient16)" fill-rule="evenodd" stroke="none"/>
    <path d="M-163.25 -0.9 L-166.0 -0.9 -161.9 -7.5 -161.65 -5.5 -163.25 -0.9" fill="url(#gradient17)" fill-rule="evenodd" stroke="none"/>
    <path d="M-222.25 -115.9 L-229.65 -115.0 -230.65 -115.0 -245.65 -121.5 -250.25 -133.4 -263.15 -138.65 -284.9 -138.65 -306.15 -147.9 -314.75 -157.15 -314.75 -157.5 -308.0 -165.15 -304.15 -187.4 -304.75 -240.0 -304.65 -240.25 -291.65 -246.25 -227.0 -226.65 -227.0 -225.9 -227.75 -224.4 -227.9 -224.15 -228.0 -223.9 -228.15 -223.65 -228.15 -223.5 -228.4 -223.15 -228.5 -222.9 -228.65 -222.65 -228.65 -222.5 -228.75 -222.4 -229.25 -221.25 -229.4 -221.0 -229.5 -220.75 -229.65 -220.5 -229.75 -220.4 -230.65 -218.25 -230.65 -217.9 -232.75 -188.25 -227.9 -153.0 -228.0 -152.75 -222.15 -119.4 -222.25 -115.9 M-306.25 -300.0 L-304.9 -300.0 -304.0 -292.15 -305.25 -267.5 -306.25 -300.0" fill="#b20000" fill-opacity="0.9098039" fill-rule="evenodd" stroke="none"/>
    <path d="M-304.9 -300.0 L-222.0 -300.0 -221.75 -276.75 -221.65 -276.5 -221.65 -276.4 -219.25 -257.75 -220.9 -239.65 -227.0 -226.65 -291.65 -246.25 -304.65 -240.25 -305.15 -253.0 -304.9 -253.9 -305.25 -257.9 -305.15 -258.25 -305.0 -258.5 -305.25 -259.9 -305.25 -267.5 -304.0 -292.15 -304.9 -300.0" fill="#b40000" fill-rule="evenodd" stroke="none"/>
    <path d="M-314.75 -157.5 L-316.15 -184.5 -316.4 -234.5 -316.4 -239.4 -316.5 -239.4 -316.4 -239.9 -316.65 -241.4 -316.4 -242.0 -322.15 -300.0 -306.25 -300.0 -305.25 -267.5 -305.25 -259.9 -305.0 -258.5 -305.15 -258.25 -305.25 -257.9 -304.9 -253.9 -305.15 -253.0 -304.65 -240.25 -304.75 -240.0 -304.15 -187.4 -308.0 -165.15 -314.75 -157.5" fill="#b80000" fill-rule="evenodd" stroke="none"/>
    <path d="M-323.15 -232.0 L-316.65 -241.4 -316.4 -239.9 -316.5 -239.4 -323.15 -232.0" fill="#fa0000" fill-rule="evenodd" stroke="none"/>
    <path d="M-106.15 -275.75 L-105.4 -300.0 -104.4 -300.0 -104.4 -298.65 -106.15 -275.75 -106.0 -274.15 -106.25 -274.0 -106.15 -275.75 M-113.15 -166.0 L-108.0 -225.65 -107.75 -200.25 -104.75 -164.15 -113.15 -166.0 M-106.4 -272.15 L-106.25 -272.5 -106.15 -272.25 -106.4 -272.15 M-316.4 -234.5 L-323.4 -231.15 -323.65 -231.25 -323.15 -232.0 -316.5 -239.4 -316.4 -239.4 -316.4 -234.5" fill="#cd0000" fill-opacity="0.9098039" fill-rule="evenodd" stroke="none"/>
    <path d="M-222.0 -300.0 L-192.0 -299.75 -155.15 -300.0 -155.75 -281.9 -155.5 -280.4 -155.75 -272.4 -155.9 -272.0 -155.75 -271.65 -157.0 -227.75 -156.9 -227.15 -156.25 -201.25 -156.15 -200.5 -156.0 -192.5 -155.9 -192.25 -155.25 -169.15 -155.15 -168.65 -155.15 -162.75 -155.0 -162.5 -154.5 -147.65 -153.65 -136.0 -153.5 -135.4 -152.5 -124.15 -152.65 -121.75 -152.0 -114.75 -188.15 -120.0 -215.4 -116.75 -215.75 -116.75 -222.25 -115.9 -222.15 -119.4 -228.0 -152.75 -227.9 -153.0 -232.75 -188.25 -230.65 -217.9 -230.65 -218.25 -229.75 -220.4 -229.65 -220.5 -229.5 -220.75 -229.4 -221.0 -229.25 -221.25 -228.75 -222.4 -228.65 -222.5 -228.65 -222.65 -228.5 -222.9 -228.4 -223.15 -228.15 -223.5 -228.15 -223.65 -228.0 -223.9 -227.9 -224.15 -227.75 -224.4 -227.0 -225.9 -227.0 -226.65 -220.9 -239.65 -219.25 -257.75 -221.65 -276.4 -221.65 -276.5 -221.75 -276.75 -222.0 -300.0" fill="#a10000" fill-opacity="0.9098039" fill-rule="evenodd" stroke="none"/>
    <path d="M-105.4 -300.0 L-106.15 -275.75 -106.25 -274.0 -106.25 -272.5 -106.4 -272.15 -107.25 -253.5 -107.4 -252.15 -107.4 -251.65 -107.9 -247.0 -107.75 -242.15 -108.0 -225.65 -113.15 -166.0 -125.25 -169.0 -133.5 -187.75 -141.75 -195.25 -139.65 -233.65 -139.9 -234.0 -139.75 -235.0 -139.15 -255.4 -138.9 -256.0 -130.25 -272.9 -130.0 -274.5 -124.25 -300.0 -105.4 -300.0" fill="#b60000" fill-rule="evenodd" stroke="none"/>
    <path d="M-141.75 -195.25 L-133.5 -187.75 -125.25 -169.0 -113.15 -166.0 -118.0 -114.9 -118.25 -116.4 -117.25 -130.4 -117.4 -132.0 -144.9 -140.65 -143.9 -157.4 -144.0 -158.75 -142.5 -185.9 -141.75 -195.25 M-107.75 -242.15 L-107.9 -247.0 -107.4 -251.65 -107.25 -249.0 -107.75 -242.15 M-107.4 -252.15 L-107.25 -253.5 -107.15 -252.25 -107.4 -252.15 M-118.15 -113.65 L-118.4 -114.4 -118.0 -114.5 -118.15 -113.65" fill="#b40000" fill-opacity="0.9098039" fill-rule="evenodd" stroke="none"/>
  </g>
  <defs>
    <radialGradient cx="0" cy="0" gradientTransform="matrix(0.0729, 0.0, 0.0, 0.0729, -129.8, -300.0)" gradientUnits="userSpaceOnUse" id="gradient0" r="819.2" spreadMethod="pad">
      <stop offset="0.0" stop-color="#080808"/>
      <stop offset="1.0" stop-color="#000000"/>
    </radialGradient>
    <radialGradient cx="0" cy="0" gradientTransform="matrix(0.0522, 0.0, 0.0, 0.0522, -151.7, -253.45)" gradientUnits="userSpaceOnUse" id="gradient1" r="819.2" spreadMethod="pad">
      <stop offset="0.0" stop-color="#010101"/>
      <stop offset="1.0" stop-color="#000000"/>
    </radialGradient>
    <radialGradient cx="0" cy="0" gradientTransform="matrix(0.0621, 0.0, 0.0, 0.0621, -221.75, -277.4)" gradientUnits="userSpaceOnUse" id="gradient2" r="819.2" spreadMethod="pad">
      <stop offset="0.0" stop-color="#393939"/>
      <stop offset="1.0" stop-color="#000000"/>
    </radialGradient>
    <radialGradient cx="0" cy="0" gradientTransform="matrix(0.0641, 0.0, 0.0, 0.0641, -221.75, -277.4)" gradientUnits="userSpaceOnUse" id="gradient3" r="819.2" spreadMethod="pad">
      <stop offset="0.0" stop-color="#393939"/>
      <stop offset="1.0" stop-color="#000000"/>
    </radialGradient>
    <radialGradient cx="0" cy="0" gradientTransform="matrix(0.2405, 0.0, 0.0, 0.2405, -219.15, -257.8)" gradientUnits="userSpaceOnUse" id="gradient4" r="819.2" spreadMethod="pad">
      <stop offset="0.0" stop-color="#1c1c1c"/>
      <stop offset="1.0" stop-color="#000000"/>
    </radialGradient>
    <radialGradient cx="0" cy="0" gradientTransform="matrix(0.0627, 0.0, 0.0, 0.0627, -216.0, -267.25)" gradientUnits="userSpaceOnUse" id="gradient5" r="819.2" spreadMethod="pad">
      <stop offset="0.0" stop-color="#242424"/>
      <stop offset="1.0" stop-color="#000000"/>
    </radialGradient>
    <radialGradient cx="0" cy="0" gradientTransform="matrix(0.1897, 0.0, 0.0, 0.1897, -149.15, -215.75)" gradientUnits="userSpaceOnUse" id="gradient6" r="819.2" spreadMethod="pad">
      <stop offset="0.0" stop-color="#494949"/>
      <stop offset="1.0" stop-color="#000000"/>
    </radialGradient>
    <radialGradient cx="0" cy="0" gradientTransform="matrix(0.0868, 0.0, 0.0, 0.0868, -190.5, -21.3)" gradientUnits="userSpaceOnUse" id="gradient7" r="819.2" spreadMethod="pad">
      <stop offset="0.0" stop-color="#000000"/>
      <stop offset="1.0" stop-color="#000000"/>
    </radialGradient>
    <radialGradient cx="0" cy="0" gradientTransform="matrix(0.299, 0.0, 0.0, 0.299, -217.2, -256.1)" gradientUnits="userSpaceOnUse" id="gradient8" r="819.2" spreadMethod="pad">
      <stop offset="0.0" stop-color="#202020"/>
      <stop offset="1.0" stop-color="#000000"/>
    </radialGradient>
    <radialGradient cx="0" cy="0" gradientTransform="matrix(0.0752, 0.0, 0.0, 0.0752, -221.5, -74.6)" gradientUnits="userSpaceOnUse" id="gradient9" r="819.2" spreadMethod="pad">
      <stop offset="0.0" stop-color="#020202"/>
      <stop offset="1.0" stop-color="#000000"/>
    </radialGradient>
    <radialGradient cx="0" cy="0" gradientTransform="matrix(0.092, 0.0, 0.0, 0.092, -157.15, -51.9)" gradientUnits="userSpaceOnUse" id="gradient10" r="819.2" spreadMethod="pad">
      <stop offset="0.0" stop-color="#b3b3b3"/>
      <stop offset="1.0" stop-color="#b1b1b1"/>
    </radialGradient>
    <radialGradient cx="0" cy="0" gradientTransform="matrix(0.1008, 0.0, 0.0, 0.1008, -231.85, -41.85)" gradientUnits="userSpaceOnUse" id="gradient11" r="819.2" spreadMethod="pad">
      <stop offset="0.0" stop-color="#a1a1a1"/>
      <stop offset="1.0" stop-color="#4e4e4e"/>
    </radialGradient>
    <radialGradient cx="0" cy="0" gradientTransform="matrix(0.0585, 0.0, 0.0, 0.0585, -233.55, -35.8)" gradientUnits="userSpaceOnUse" id="gradient12" r="819.2" spreadMethod="pad">
      <stop offset="0.0" stop-color="#a8a8a8"/>
      <stop offset="1.0" stop-color="#212121"/>
    </radialGradient>
    <radialGradient cx="0" cy="0" gradientTransform="matrix(0.027, 0.0, 0.0, 0.027, -247.65, -1.45)" gradientUnits="userSpaceOnUse" id="gradient13" r="819.2" spreadMethod="pad">
      <stop offset="0.0" stop-color="#7f7f7f"/>
      <stop offset="1.0" stop-color="#7f7f7f"/>
    </radialGradient>
    <radialGradient cx="0" cy="0" gradientTransform="matrix(0.0699, 0.0, 0.0, 0.0699, -161.2, -21.25)" gradientUnits="userSpaceOnUse" id="gradient14" r="819.2" spreadMethod="pad">
      <stop offset="0.0" stop-color="#272727"/>
      <stop offset="1.0" stop-color="#000000"/>
    </radialGradient>
    <radialGradient cx="0" cy="0" gradientTransform="matrix(0.0497, 0.0, 0.0, 0.0497, -167.05, -26.65)" gradientUnits="userSpaceOnUse" id="gradient15" r="819.2" spreadMethod="pad">
      <stop offset="0.0" stop-color="#1f1f1f"/>
      <stop offset="1.0" stop-color="#0c0c0c"/>
    </radialGradient>
    <radialGradient cx="0" cy="0" gradientTransform="matrix(0.0226, 0.0, 0.0, 0.0226, -126.15, -1.55)" gradientUnits="userSpaceOnUse" id="gradient16" r="819.2" spreadMethod="pad">
      <stop offset="0.0" stop-color="#eaeaea"/>
      <stop offset="1.0" stop-color="#787878"/>
    </radialGradient>
    <radialGradient cx="0" cy="0" gradientTransform="matrix(0.0329, 0.0, 0.0, 0.0329, -188.15, -10.45)" gradientUnits="userSpaceOnUse" id="gradient17" r="819.2" spreadMethod="pad">
      <stop offset="0.0" stop-color="#000000"/>
      <stop offset="1.0" stop-color="#000000"/>
    </radialGradient>
  </defs>
</svg>
