<?xml version="1.0" encoding="UTF-8" standalone="no"?>
<svg xmlns:xlink="http://www.w3.org/1999/xlink" height="299.1px" width="299.35px" xmlns="http://www.w3.org/2000/svg">
  <g transform="matrix(1.0, 0.0, 0.0, 1.0, 400.1, 300.0)">
    <path d="M-230.0 -300.0 L-224.25 -297.65 -268.15 -290.65 -268.65 -290.65 -269.15 -290.5 -278.65 -292.65 -285.75 -295.15 -289.65 -300.0 -230.0 -300.0" fill="url(#gradient0)" fill-rule="evenodd" stroke="none"/>
    <path d="M-155.25 -300.0 L-156.0 -295.0 -171.9 -297.5 -187.25 -294.65 -199.25 -290.9 -213.5 -292.15 -214.5 -292.65 -224.0 -297.5 -224.25 -297.65 -230.0 -300.0 -204.25 -300.0 -187.25 -296.75 -187.0 -298.9 -187.25 -299.0 -198.15 -300.0 -155.25 -300.0" fill="url(#gradient1)" fill-rule="evenodd" stroke="none"/>
    <path d="M-224.25 -297.65 L-224.0 -297.5 -226.4 -294.9 -226.5 -294.9 -268.15 -290.65 -224.25 -297.65" fill="url(#gradient2)" fill-rule="evenodd" stroke="none"/>
    <path d="M-226.5 -294.9 L-274.9 -244.25 -285.0 -233.0 -294.9 -226.0 -298.5 -224.15 -298.65 -223.9 -300.5 -222.9 -303.25 -221.4 -312.65 -222.0 -317.0 -223.65 -328.0 -226.15 -319.0 -233.9 -309.4 -245.0 -278.65 -292.65 -269.15 -290.5 -268.65 -290.65 -268.15 -290.65 -226.5 -294.9" fill="url(#gradient3)" fill-rule="evenodd" stroke="none"/>
    <path d="M-226.4 -294.9 L-223.5 -295.65 -221.4 -295.0 -226.4 -294.9" fill="url(#gradient4)" fill-rule="evenodd" stroke="none"/>
    <path d="M-224.0 -297.5 L-214.5 -292.65 -221.4 -295.0 -223.5 -295.65 -226.4 -294.9 -224.0 -297.5" fill="url(#gradient5)" fill-rule="evenodd" stroke="none"/>
    <path d="M-198.15 -300.0 L-187.25 -299.0 -187.0 -298.9 -187.25 -296.75 -204.25 -300.0 -198.15 -300.0" fill="url(#gradient6)" fill-rule="evenodd" stroke="none"/>
    <path d="M-105.4 -264.9 L-114.25 -270.4 -128.15 -278.65 Q-130.9 -280.65 -127.65 -297.5 L-129.9 -300.0 -106.5 -300.0 -104.0 -289.5 -105.4 -264.9 M-156.0 -295.0 L-155.25 -300.0 -145.75 -300.0 -146.15 -296.0 -149.75 -291.5 -156.0 -295.0" fill="url(#gradient7)" fill-rule="evenodd" stroke="none"/>
    <path d="M-114.25 -270.4 L-114.5 -230.25 -118.0 -194.0 -125.5 -156.9 -136.9 -130.65 -155.75 -131.25 -169.9 -132.75 -187.4 -135.25 -187.65 -135.4 -196.0 -165.5 -196.25 -167.75 -184.9 -277.9 -187.25 -294.65 -171.9 -297.5 -156.0 -295.0 -149.75 -291.5 -146.25 -286.5 -135.5 -278.75 -128.15 -278.65 -114.25 -270.4 M-146.65 -280.25 L-145.15 -280.9 -147.0 -283.4 -157.25 -291.0 -161.0 -291.0 -157.9 -285.75 -146.65 -280.25" fill="url(#gradient8)" fill-rule="evenodd" stroke="none"/>
    <path d="M-199.25 -290.9 L-187.25 -294.65 -184.9 -277.9 -196.25 -167.75 -196.0 -165.5 -187.65 -135.4 -200.25 -140.75 -201.0 -168.25 -189.5 -275.75 -189.5 -276.75 -199.25 -290.9" fill="url(#gradient9)" fill-rule="evenodd" stroke="none"/>
    <path d="M-129.9 -300.0 L-127.65 -297.5 Q-130.9 -280.65 -128.15 -278.65 L-135.5 -278.75 -146.25 -286.5 -149.75 -291.5 -146.15 -296.0 -145.75 -300.0 -129.9 -300.0 M-146.65 -280.25 L-157.9 -285.75 -161.0 -291.0 -157.25 -291.0 -147.0 -283.4 -145.15 -280.9 -146.65 -280.25 M-161.5 -123.9 L-165.9 -124.4 -163.25 -129.75 -162.9 -129.75 -161.5 -123.9 M-151.9 -129.15 L-143.15 -123.4 -143.15 -123.0 -154.5 -123.25 -153.4 -129.15 -151.9 -129.15" fill="url(#gradient10)" fill-rule="evenodd" stroke="none"/>
    <path d="M-114.25 -270.4 L-105.4 -264.9 -107.0 -229.9 -111.0 -195.0 -118.65 -156.9 -128.65 -130.25 -136.9 -130.65 -125.5 -156.9 -118.0 -194.0 -114.5 -230.25 -114.25 -270.4" fill="url(#gradient11)" fill-rule="evenodd" stroke="none"/>
    <path d="M-339.9 -265.15 L-339.9 -265.75 -340.0 -266.0 -337.25 -277.75 -334.0 -281.25 -333.9 -281.5 -319.25 -296.4 -319.25 -296.0 -319.0 -296.65 -317.9 -299.0 -317.75 -299.4 -317.4 -300.0 -289.65 -300.0 -285.75 -295.15 -278.65 -292.65 -309.4 -245.0 -319.0 -233.9 -328.0 -226.15 -329.15 -226.75 -332.25 -230.9 -336.75 -234.9 -336.5 -237.25 -337.25 -241.0 -337.75 -247.25 -338.25 -247.9 -339.5 -265.0 -339.9 -265.15" fill="url(#gradient12)" fill-rule="evenodd" stroke="none"/>
    <path d="M-349.65 -128.5 L-347.75 -149.0 -347.9 -154.4 -347.25 -170.15 -347.5 -171.25 -346.75 -192.9 -347.0 -193.25 -345.25 -211.25 -342.25 -221.15 -338.5 -229.75 -337.5 -227.75 -337.5 -226.9 -332.4 -226.25 -329.15 -226.75 -328.0 -226.15 -317.0 -223.65 -312.65 -222.0 -303.25 -221.4 -300.5 -222.9 -299.25 -223.0 -298.65 -223.9 -298.5 -224.15 -298.4 -223.9 -298.25 -223.75 -299.0 -217.65 -303.5 -209.75 -306.0 -167.4 -306.75 -144.0 -308.75 -123.15 -314.0 -122.25 -314.25 -122.15 -315.15 -122.0 -315.15 -122.5 -315.65 -122.5 -317.15 -121.75 -324.75 -120.65 -327.9 -120.65 -325.25 -146.4 -330.15 -151.25 -330.5 -151.25 -335.5 -147.25 -337.5 -120.75 -340.25 -120.9 -340.25 -132.5 -341.25 -135.5 -344.15 -148.5 -344.5 -148.65 -347.25 -122.65 -350.0 -123.25 -349.65 -128.5" fill="url(#gradient13)" fill-rule="evenodd" stroke="none"/>
    <path d="M-294.9 -226.0 L-294.9 -223.4 -295.0 -222.75 -295.4 -222.5 -295.65 -219.9 -296.0 -219.5 -298.25 -223.75 -298.4 -223.9 -298.5 -224.15 -294.9 -226.0 M-300.5 -222.9 L-298.65 -223.9 -299.25 -223.0 -300.5 -222.9 M-338.5 -229.75 L-338.75 -239.5 -338.25 -247.9 -337.75 -247.25 -337.25 -241.0 -336.5 -237.25 -336.75 -234.9 -332.25 -230.9 -329.15 -226.75 -332.4 -226.25 -337.5 -226.9 -337.5 -227.75 -338.5 -229.75 M-337.5 -120.75 L-335.5 -147.25 -330.5 -151.25 -330.15 -151.25 -325.25 -146.4 -327.9 -120.65 -337.5 -120.75 M-317.15 -121.75 L-315.65 -122.5 -315.15 -122.5 -315.15 -122.0 -317.15 -121.75 M-347.25 -122.65 L-344.5 -148.65 -344.15 -148.5 -341.25 -135.5 -340.25 -132.5 -340.25 -120.9 -346.9 -122.15 -347.25 -122.65" fill="url(#gradient14)" fill-rule="evenodd" stroke="none"/>
    <path d="M-347.9 -154.4 L-348.15 -175.15 -349.75 -189.5 -348.5 -203.4 -341.4 -249.65 -339.9 -265.15 -339.5 -265.0 -338.25 -247.9 -338.75 -239.5 -338.5 -229.75 -342.25 -221.15 -345.25 -211.25 -347.0 -193.25 -346.75 -192.9 -347.5 -171.25 -347.25 -170.15 -347.9 -154.4" fill="url(#gradient15)" fill-rule="evenodd" stroke="none"/>
    <path d="M-333.9 -281.5 L-317.75 -299.4 -317.9 -299.0 -319.0 -296.65 -319.25 -296.4 -333.9 -281.5" fill="url(#gradient16)" fill-rule="evenodd" stroke="none"/>
    <path d="M-319.25 -296.4 L-319.0 -296.65 -319.25 -296.0 -319.25 -296.4" fill="url(#gradient17)" fill-rule="evenodd" stroke="none"/>
    <path d="M-295.0 -222.75 L-292.25 -206.25 -291.4 -191.5 -290.9 -172.75 -299.15 -142.15 -300.25 -128.5 -300.5 -127.15 -308.75 -123.15 -306.75 -144.0 -306.0 -167.4 -303.5 -209.75 -299.0 -217.65 -298.25 -223.75 -296.0 -219.5 -295.65 -219.9 -295.4 -222.5 -295.0 -222.75" fill="url(#gradient18)" fill-rule="evenodd" stroke="none"/>
    <path d="M-300.25 -128.5 L-298.15 -127.4 -298.25 -126.15 -298.2 -125.35 Q-298.6 -123.6 -303.75 -121.75 L-312.25 -119.65 -314.0 -122.25 -308.75 -123.15 -300.5 -127.15 -300.25 -128.5 M-356.5 -123.25 L-355.0 -126.25 -349.65 -128.5 -350.0 -123.25 -347.25 -122.65 -346.9 -122.15 -340.25 -120.9 -337.5 -120.75 -327.9 -120.65 -324.75 -120.65 -317.15 -121.75 -315.15 -122.0 -314.25 -122.15 -316.0 -119.15 Q-353.25 -116.25 -356.5 -123.25" fill="url(#gradient19)" fill-rule="evenodd" stroke="none"/>
    <path d="M-187.65 -135.4 L-187.4 -135.25 -188.5 -120.5 -201.0 -124.4 -200.25 -140.75 -187.65 -135.4" fill="url(#gradient20)" fill-rule="evenodd" stroke="none"/>
    <path d="M-205.25 -28.4 L-205.25 -51.75 -207.25 -68.4 -205.65 -85.25 -200.15 -101.4 -201.0 -124.4 -188.5 -120.5 -194.75 -89.5 -194.5 -89.25 -197.15 -66.15 -196.9 -65.5 -201.75 -16.75 -201.65 -15.4 -202.0 -14.5 -203.0 -4.5 -203.25 -5.65 -202.15 -14.4 -203.0 -28.4 -203.65 -29.75 Q-204.5 -25.25 -205.25 -24.9 L-205.25 -28.4" fill="url(#gradient21)" fill-rule="evenodd" stroke="none"/>
    <path d="M-205.4 -26.0 L-205.4 -27.25 -205.25 -28.4 -205.25 -24.9 -205.4 -26.0" fill="url(#gradient22)" fill-rule="evenodd" stroke="none"/>
    <path d="M-191.5 -0.9 L-202.0 -0.9 -200.5 -12.65 Q-200.0 -16.0 -199.15 -16.9 L-194.9 -13.0 -192.65 -5.25 -191.5 -2.65 -191.5 -0.9 M-203.5 -0.9 L-208.15 -0.9 -205.4 -26.0 -205.25 -24.9 Q-204.5 -25.25 -203.65 -29.75 L-203.0 -28.4 -202.15 -14.4 -203.25 -5.65 -203.0 -4.5 -203.0 -4.25 -203.15 -3.25 -203.15 -2.9 -203.25 -2.0 -203.25 -1.5 -203.5 -0.9" fill="url(#gradient23)" fill-rule="evenodd" stroke="none"/>
    <path d="M-188.5 -120.5 L-171.0 -117.65 -156.75 -116.15 -140.15 -115.0 -140.15 -114.65 -140.0 -113.75 -139.9 -113.5 -139.9 -113.0 -139.75 -112.5 -139.75 -112.15 -139.65 -111.5 -139.65 -111.4 -138.25 -98.25 -140.5 -83.75 -143.0 -59.0 -149.65 -9.0 -149.5 -7.25 -150.4 -0.9 -191.5 -0.9 -191.5 -2.65 -192.65 -5.25 -194.9 -13.0 -199.15 -16.9 Q-200.0 -16.0 -200.5 -12.65 L-202.0 -0.9 -203.5 -0.9 -203.25 -1.5 -203.25 -2.0 -203.15 -2.9 -203.15 -3.25 -203.0 -4.25 -203.0 -4.5 -202.0 -14.5 -201.65 -15.4 -201.75 -16.75 -196.9 -65.5 -197.15 -66.15 -194.5 -89.25 -194.75 -89.5 -188.5 -120.5" fill="url(#gradient24)" fill-rule="evenodd" stroke="none"/>
    <path d="M-187.4 -135.25 L-169.9 -132.75 -155.75 -131.25 -136.9 -130.65 -140.15 -115.0 -156.75 -116.15 -171.0 -117.65 -188.5 -120.5 -187.4 -135.25 M-161.5 -123.9 L-162.9 -129.75 -163.25 -129.75 -165.9 -124.4 -161.5 -123.9 M-151.9 -129.15 L-153.4 -129.15 -154.5 -123.25 -143.15 -123.0 -143.15 -123.4 -151.9 -129.15" fill="url(#gradient25)" fill-rule="evenodd" stroke="none"/>
    <path d="M-136.9 -130.65 L-128.65 -130.25 -140.15 -115.0 -136.9 -130.65" fill="url(#gradient26)" fill-rule="evenodd" stroke="none"/>
    <path d="M-298.2 -125.35 L-297.75 -117.75 -298.0 -113.5 -303.4 -110.4 -312.5 -108.0 -313.25 -119.0 -313.15 -119.5 -312.5 -119.5 -312.25 -119.65 -303.75 -121.75 Q-298.6 -123.6 -298.2 -125.35 M-351.75 -109.15 Q-352.75 -108.9 -355.75 -112.25 L-356.5 -123.25 Q-353.25 -116.25 -316.0 -119.15 -318.75 -113.0 -320.15 -113.15 L-325.0 -112.5 -326.75 -106.5 -337.75 -106.65 -345.5 -107.4 -351.75 -109.15" fill="url(#gradient27)" fill-rule="evenodd" stroke="none"/>
    <path d="M-303.4 -110.4 L-303.0 -108.5 -302.4 -108.15 -298.9 -105.5 -297.65 -101.5 -297.25 -89.4 -297.4 -88.75 Q-296.75 -86.75 -302.65 -83.4 L-310.0 -80.9 -311.0 -80.65 -310.0 -79.25 -303.15 -80.75 -308.5 -78.9 -310.5 -78.25 -323.65 -76.15 -314.65 -78.15 -313.4 -79.75 -313.75 -80.0 -314.15 -80.0 -324.5 -78.5 -335.0 -78.25 -342.75 -79.0 -343.15 -78.9 -343.4 -78.9 -347.75 -78.5 -348.15 -77.9 -348.25 -77.4 -348.5 -77.15 -352.4 -73.4 Q-353.75 -70.7 -354.6 -70.5 L-354.65 -70.5 Q-354.9 -74.25 -353.25 -76.0 L-352.75 -80.65 -352.5 -81.0 -351.4 -84.65 -350.4 -87.5 -345.9 -91.25 -337.9 -96.75 -327.9 -103.5 -327.4 -104.0 -326.75 -106.5 -325.0 -112.5 -320.15 -113.15 Q-318.75 -113.0 -316.0 -119.15 L-314.25 -122.15 -314.0 -122.25 -312.25 -119.65 -312.5 -119.5 -313.15 -119.5 -313.25 -119.0 -312.5 -108.0 -303.4 -110.4" fill="url(#gradient28)" fill-rule="evenodd" stroke="none"/>
    <path d="M-352.15 -101.4 L-352.4 -105.65 -351.75 -109.15 -345.5 -107.4 -337.75 -106.65 -326.75 -106.5 -327.4 -104.0 -327.9 -103.5 -337.9 -96.75 Q-338.15 -97.5 -341.75 -97.9 L-343.9 -96.4 -343.9 -96.9 -345.0 -97.9 -348.9 -99.5 -349.65 -99.15 -351.5 -101.25 -352.15 -101.4" fill="url(#gradient29)" fill-rule="evenodd" stroke="none"/>
    <path d="M-352.25 -93.5 L-352.65 -95.15 -352.25 -100.9 -352.15 -101.4 -351.5 -101.25 -349.65 -99.15 -348.9 -99.5 -345.0 -97.9 -343.9 -96.9 -343.9 -96.4 -341.75 -97.9 Q-338.15 -97.5 -337.9 -96.75 L-345.9 -91.25 -350.4 -87.5 -351.9 -90.75 -352.25 -92.4 -352.25 -93.5 M-323.65 -76.15 L-323.4 -75.9 -322.75 -74.75 -326.9 -74.0 -332.4 -74.25 -323.65 -76.15" fill="url(#gradient30)" fill-rule="evenodd" stroke="none"/>
    <path d="M-330.25 -65.9 L-330.75 -65.5 -330.5 -67.4 -329.4 -67.25 -330.25 -65.9 M-364.65 -70.15 Q-370.15 -87.4 -352.25 -93.5 L-352.25 -92.4 -353.4 -90.4 -353.75 -89.4 -354.0 -89.0 -355.4 -86.25 -356.5 -83.9 -356.65 -83.65 -358.75 -79.15 Q-358.5 -74.4 -359.15 -73.9 L-357.0 -69.5 -354.25 -67.75 -357.4 -62.75 -360.0 -64.5 -362.65 -67.25 -363.15 -67.9 -363.5 -68.5 -363.9 -69.0 -364.4 -69.9 -364.65 -70.15 M-353.75 -61.25 Q-350.0 -63.5 -347.75 -63.4 L-350.65 -60.15 -353.75 -61.25" fill="url(#gradient31)" fill-rule="evenodd" stroke="none"/>
    <path d="M-363.65 -64.5 L-364.65 -67.5 -364.65 -70.15 -364.4 -69.9 -363.9 -69.0 -363.5 -68.5 -363.15 -67.9 -363.0 -67.5 -363.0 -67.25 -362.5 -65.75 -361.65 -64.0 -361.5 -63.75 -358.0 -61.9 -358.5 -60.9 -361.4 -61.9 -363.65 -64.5" fill="url(#gradient32)" fill-rule="evenodd" stroke="none"/>
    <path d="M-368.15 -63.4 L-363.65 -64.5 -361.4 -61.9 -358.5 -60.9 -359.65 -59.15 -361.4 -58.75 -368.15 -63.4" fill="url(#gradient33)" fill-rule="evenodd" stroke="none"/>
    <path d="M-359.5 -56.9 L-361.4 -56.75 Q-366.5 -61.65 -367.65 -61.25 L-368.0 -61.5 -368.15 -63.4 -361.4 -58.75 -360.25 -58.5 -359.9 -58.65 -359.65 -59.15 -358.5 -60.9 -358.0 -61.9 -357.4 -62.75 -354.25 -67.75 -352.4 -70.9 -351.25 -71.75 -348.5 -77.15 -348.25 -77.4 -348.15 -77.9 -347.75 -78.5 -345.25 -78.4 -339.15 -74.4 -339.25 -72.9 -343.5 -75.4 -344.75 -76.15 -346.75 -76.65 -347.4 -75.5 -348.25 -74.4 -359.5 -56.9" fill="url(#gradient34)" fill-rule="evenodd" stroke="none"/>
    <path d="M-308.5 -78.9 L-310.75 -77.5 -310.5 -78.25 -308.5 -78.9 M-320.65 -71.5 L-330.25 -65.9 -329.4 -67.25 -330.5 -67.4 -330.75 -65.5 -331.0 -65.15 -332.75 -65.75 -334.5 -65.25 -331.5 -65.0 -335.65 -62.5 -359.5 -56.9 -348.25 -74.4 -343.5 -75.4 -339.25 -72.9 -332.4 -74.25 -326.9 -74.0 -322.75 -74.75 -322.65 -74.75 -320.65 -71.5 M-353.75 -61.25 L-350.65 -60.15 -347.75 -63.4 Q-350.0 -63.5 -353.75 -61.25 M-339.9 -63.75 L-344.75 -62.5 -341.75 -63.0 -339.9 -63.75" fill="url(#gradient35)" fill-rule="evenodd" stroke="none"/>
    <path d="M-331.0 -65.15 L-331.5 -65.0 -334.5 -65.25 -332.75 -65.75 -331.0 -65.15 M-362.65 -67.25 L-363.0 -67.5 -363.15 -67.9 -362.65 -67.25 M-339.9 -63.75 L-341.75 -63.0 -344.75 -62.5 -339.9 -63.75" fill="url(#gradient36)" fill-rule="evenodd" stroke="none"/>
    <path d="M-310.75 -77.5 L-314.25 -70.25 -315.75 -69.15 -317.65 -68.9 -319.25 -69.15 -319.15 -69.5 -320.65 -71.5 -322.65 -74.75 -322.75 -74.75 -323.4 -75.9 -323.65 -76.15 -310.5 -78.25 -310.75 -77.5" fill="url(#gradient37)" fill-rule="evenodd" stroke="none"/>
    <path d="M-287.25 -85.9 L-287.25 -84.25 -303.15 -80.75 -310.0 -79.25 -311.0 -80.65 -310.0 -80.9 -287.25 -85.9 M-314.15 -80.0 L-313.75 -80.0 -313.4 -79.75 -314.65 -78.15 -323.65 -76.15 -332.4 -74.25 -339.25 -72.9 -339.15 -74.4 -314.15 -80.0" fill="url(#gradient38)" fill-rule="evenodd" stroke="none"/>
    <path d="M-294.4 -89.4 L-293.75 -89.4 -287.25 -85.9 -310.0 -80.9 -302.65 -83.4 Q-296.75 -86.75 -297.4 -88.75 L-294.4 -89.4 M-343.4 -78.9 L-343.15 -78.9 -342.75 -79.0 -335.0 -78.25 -324.5 -78.5 -314.15 -80.0 -339.15 -74.4 -345.25 -78.4 -343.4 -78.9" fill="url(#gradient39)" fill-rule="evenodd" stroke="none"/>
    <path d="M-297.25 -89.4 L-294.4 -89.4 -297.4 -88.75 -297.25 -89.4 M-347.75 -78.5 L-343.4 -78.9 -345.25 -78.4 -347.75 -78.5" fill="url(#gradient40)" fill-rule="evenodd" stroke="none"/>
    <path d="M-139.65 -111.4 L-136.4 -91.0 -135.4 -71.15 -135.0 -49.9 -145.9 -12.4 -147.15 -1.0 -150.4 -0.9 -149.5 -7.25 -149.65 -9.0 -143.0 -59.0 -140.5 -83.75 -138.25 -98.25 -139.65 -111.4" fill="url(#gradient41)" fill-rule="evenodd" stroke="none"/>
    <path d="M-350.4 -87.5 L-351.4 -84.65 -352.4 -86.15 -351.9 -90.75 -350.4 -87.5" fill="url(#gradient42)" fill-rule="evenodd" stroke="none"/>
    <path d="M-351.4 -84.65 L-352.5 -81.0 -352.75 -80.65 -353.25 -76.0 Q-354.9 -74.25 -354.65 -70.5 L-354.6 -70.5 -352.4 -70.9 -354.25 -67.75 -357.0 -69.5 -359.15 -73.9 Q-358.5 -74.4 -358.75 -79.15 L-356.65 -83.65 -356.5 -83.9 -355.4 -86.25 -354.0 -89.0 -353.75 -89.4 -353.4 -90.4 -352.25 -92.4 -351.9 -90.75 -352.4 -86.15 -351.4 -84.65 M-357.4 -62.75 L-358.0 -61.9 -361.5 -63.75 -361.65 -64.0 -362.5 -65.75 -363.0 -67.25 -363.0 -67.5 -362.65 -67.25 -360.0 -64.5 -357.4 -62.75" fill="url(#gradient43)" fill-rule="evenodd" stroke="none"/>
    <path d="M-354.6 -70.5 Q-353.75 -70.7 -352.4 -73.4 L-348.5 -77.15 -351.25 -71.75 -352.4 -70.9 -354.6 -70.5" fill="url(#gradient44)" fill-rule="evenodd" stroke="none"/>
    <path d="M-344.75 -76.15 L-347.4 -75.5 -346.75 -76.65 -344.75 -76.15" fill="url(#gradient45)" fill-rule="evenodd" stroke="none"/>
    <path d="M-348.25 -74.4 L-347.4 -75.5 -344.75 -76.15 -343.5 -75.4 -348.25 -74.4" fill="url(#gradient46)" fill-rule="evenodd" stroke="none"/>
    <path d="M-314.25 -70.25 L-312.75 -41.65 Q-314.25 -40.25 -317.9 -41.4 L-317.65 -41.65 -319.25 -69.15 -317.65 -68.9 -315.75 -69.15 -314.25 -70.25" fill="url(#gradient47)" fill-rule="evenodd" stroke="none"/>
    <path d="M-312.75 -41.65 L-311.75 -40.9 -311.9 -40.25 -313.4 -39.4 -315.75 -39.0 -318.65 -39.5 -319.0 -40.15 -317.9 -41.4 Q-314.25 -40.25 -312.75 -41.65" fill="url(#gradient48)" fill-rule="evenodd" stroke="none"/>
    <path d="M-359.65 -59.15 L-359.9 -58.65 -360.25 -58.5 -361.4 -58.75 -359.65 -59.15" fill="url(#gradient49)" fill-rule="evenodd" stroke="none"/>
    <path d="M-318.9 -300.0 L-317.4 -300.0 -317.75 -299.4 -320.75 -296.4 -318.9 -300.0 M-340.65 -258.4 L-341.4 -249.65 -342.15 -246.0 -342.25 -245.65 -342.25 -245.15 -348.25 -204.5 -348.25 -204.25 -348.4 -204.0 -349.75 -190.15 -348.25 -176.4 -348.15 -176.15 -348.0 -175.15 -348.15 -174.4 -347.75 -149.0 -349.65 -128.5 -355.0 -126.15 -356.5 -123.25 -356.4 -120.0 -367.75 -122.65 -363.0 -205.15 -349.65 -241.4 -340.75 -258.4 -340.65 -258.4" fill="#c80000" fill-opacity="0.9098039" fill-rule="evenodd" stroke="none"/>
    <path d="M-320.75 -296.4 L-321.5 -295.25 -333.9 -281.5 -334.0 -281.25 -337.25 -277.75 -337.25 -277.25 -339.9 -266.25 -340.0 -266.0 -339.9 -265.75 -339.9 -265.15 -340.5 -259.4 -340.65 -258.4 -340.75 -258.4 -349.65 -241.4 -363.0 -205.15 -367.75 -122.65 -383.0 -126.15 -400.0 -131.65 -400.0 -253.5 -396.15 -266.5 -351.65 -300.0 -318.9 -300.0 -320.75 -296.4" fill="#f50000" fill-rule="evenodd" stroke="none"/>
    <path d="M-367.75 -122.65 L-368.65 -105.9 -399.65 -125.5 Q-400.35 -126.15 -400.0 -131.65 L-383.0 -126.15 -367.75 -122.65" fill="#fa0000" fill-opacity="0.9098039" fill-rule="evenodd" stroke="none"/>
    <path d="M-141.4 -270.25 L-134.9 -269.25 -134.65 -269.15 -107.5 -264.9 -105.65 -263.4 -105.5 -263.15 -105.5 -262.15 -107.15 -230.15 -111.0 -196.75 -111.0 -195.15 -118.75 -156.9 -128.4 -131.25 -128.65 -130.25 -140.25 -115.15 -138.9 -105.75 -138.75 -105.4 -138.75 -105.0 -138.65 -104.4 -138.65 -104.15 -136.4 -90.9 -135.15 -51.9 -135.25 -50.5 -135.15 -50.4 -136.0 -46.4 -140.4 -32.0 -141.5 -27.5 -145.75 -13.15 -146.15 -10.75 -146.4 -10.5 -146.5 -10.25 -149.65 -9.0 -149.5 -8.75 -150.15 -8.65 -151.25 -7.9 -161.0 -3.25 -161.15 -3.4 -184.65 -6.15 -186.4 -6.9 -186.65 -7.15 -187.75 -7.5 -194.0 -10.15 -194.25 -10.4 -197.15 -11.5 -197.4 -11.75 -200.4 -12.9 -200.75 -13.0 -200.9 -13.25 -204.0 -14.4 -204.15 -14.65 -206.5 -15.5 -206.75 -15.75 -206.5 -16.15 -206.5 -16.25 -206.4 -17.4 -206.4 -17.75 -206.25 -18.65 -206.25 -19.15 -206.15 -19.9 -206.15 -20.5 -206.0 -21.0 -206.0 -22.0 -205.9 -22.25 -205.9 -23.4 -205.4 -26.0 -205.4 -27.25 -205.25 -28.4 -205.25 -42.4 -205.4 -42.4 -205.25 -50.75 -207.25 -68.9 -205.65 -85.0 -200.15 -101.4 -200.9 -124.0 -201.0 -124.4 -200.25 -140.5 -201.0 -167.75 -194.5 -226.15 -194.5 -226.4 -191.9 -252.0 -191.9 -252.9 -190.25 -268.4 -190.4 -268.5 -189.5 -275.75 -189.5 -276.15 -182.75 -275.65 -182.5 -275.5 -164.75 -274.15 -141.4 -270.25 M-270.15 -300.0 L-265.4 -295.75 -265.15 -295.5 -250.5 -282.9 -239.65 -281.9 -238.9 -281.9 -285.25 -233.0 -294.9 -226.0 -294.9 -223.4 -295.0 -222.75 -292.65 -207.15 -292.5 -206.9 -291.5 -191.15 -291.65 -190.65 -291.5 -190.4 -291.0 -174.15 -291.15 -173.65 -291.0 -173.5 -291.0 -172.4 -295.0 -158.0 -295.0 -157.9 -299.15 -142.15 -299.15 -142.0 -299.0 -141.9 -300.25 -128.5 -298.25 -127.25 -297.75 -116.0 -298.0 -114.25 -298.0 -113.4 -302.5 -110.9 -302.9 -110.75 -302.9 -110.65 -303.4 -110.4 -303.0 -108.5 -301.65 -107.5 -300.4 -106.25 -299.0 -105.25 -299.0 -104.9 -298.4 -103.25 -297.9 -102.25 -297.9 -101.0 -297.65 -99.0 -297.5 -95.65 -297.65 -95.0 -297.5 -94.75 -297.4 -92.15 -297.25 -91.0 -297.25 -89.4 -293.75 -89.4 -287.25 -85.9 -287.25 -84.25 -295.65 -82.4 -307.15 -79.5 -308.5 -78.9 -310.75 -77.5 -311.25 -76.75 -312.15 -75.0 -312.0 -74.75 -313.15 -72.9 -313.15 -72.75 -314.25 -70.25 -314.15 -65.25 -314.0 -64.4 -313.9 -60.65 -313.75 -60.65 -313.65 -55.75 -313.5 -54.75 -313.15 -46.4 -312.75 -41.65 -312.25 -41.15 -311.9 -40.4 -312.5 -39.9 -313.65 -39.4 -316.65 -39.0 -317.75 -39.25 -318.65 -39.65 -318.9 -40.15 -318.9 -40.25 -318.5 -40.75 -318.25 -40.9 -318.25 -41.0 -318.0 -41.25 -317.9 -41.4 -317.65 -41.5 -317.75 -41.75 -317.75 -44.0 -318.0 -46.4 -318.0 -47.5 -318.15 -48.75 -318.15 -51.0 -318.25 -51.0 -318.65 -60.25 -318.75 -60.4 -319.0 -64.9 -319.15 -68.65 -319.25 -69.15 -319.25 -69.5 -320.65 -71.5 -330.25 -65.9 -330.75 -65.5 -331.0 -65.15 -331.5 -65.0 -334.4 -63.4 -334.15 -65.0 -334.15 -65.25 -332.65 -74.15 -332.65 -74.4 -331.9 -78.4 -331.75 -80.4 -331.5 -81.0 -331.5 -81.5 -331.4 -81.75 -330.9 -84.25 -330.9 -85.0 -330.75 -85.9 -330.65 -86.15 -330.4 -87.5 -330.5 -87.75 -330.0 -90.25 -329.9 -90.65 -329.9 -90.75 -329.25 -94.15 -329.4 -94.65 -329.15 -95.0 -328.75 -97.4 -328.9 -97.65 -328.65 -98.25 -328.5 -98.5 -328.65 -99.0 -328.4 -99.4 -328.15 -100.65 -328.25 -100.9 -327.75 -102.9 -327.9 -103.5 -327.5 -103.75 -327.4 -104.75 -327.5 -105.25 -327.4 -105.5 -325.9 -114.65 -325.9 -115.25 -325.65 -117.65 -325.65 -118.15 -322.9 -150.0 -323.0 -150.5 -321.0 -171.25 -321.15 -171.75 -319.9 -193.75 -320.15 -194.25 -319.0 -213.4 -319.15 -213.65 -318.65 -223.9 -318.4 -224.25 -318.15 -232.75 -318.25 -233.0 -318.4 -234.65 -318.0 -235.4 -314.5 -258.0 -314.65 -258.75 -307.75 -300.0 -271.4 -299.9 -270.15 -300.0" fill="#ad0000" fill-opacity="0.9098039" fill-rule="evenodd" stroke="none"/>
    <path d="M-140.75 -272.25 L-141.4 -270.25 -164.75 -274.15 -182.5 -275.5 -182.75 -275.65 -189.5 -276.15 -189.5 -276.65 -199.25 -290.9 -213.5 -292.25 -221.4 -295.0 -226.5 -294.9 -233.65 -287.25 -238.9 -281.9 -239.65 -281.9 -250.5 -282.9 -265.15 -295.5 -265.4 -295.75 -270.15 -300.0 -133.75 -300.0 -137.25 -287.0 -137.5 -285.4 -139.65 -277.25 -139.75 -277.25 -139.65 -277.0 -139.75 -276.75 -140.75 -272.25" fill="#b80000" fill-opacity="0.9098039" fill-rule="evenodd" stroke="none"/>
    <path d="M-233.65 -287.25 L-226.75 -280.5 -238.9 -281.9 -233.65 -287.25" fill="#ca0000" fill-rule="evenodd" stroke="none"/>
    <path d="M-233.65 -287.25 L-226.5 -294.9 -221.4 -295.0 -213.5 -292.25 -199.25 -290.9 -189.5 -276.65 -189.5 -276.15 -206.4 -277.65 -226.5 -280.4 -226.75 -280.5 -233.65 -287.25" fill="#c80000" fill-rule="evenodd" stroke="none"/>
    <path d="M-226.5 -280.4 L-206.4 -277.65 -189.5 -276.15 -189.5 -275.75 -190.4 -268.5 -197.25 -269.15 -219.5 -273.4 -226.5 -280.4" fill="#bd0000" fill-rule="evenodd" stroke="none"/>
    <path d="M-226.5 -280.4 L-219.5 -273.4 -219.65 -273.15 -244.4 -241.4 -258.25 -206.5 -268.4 -147.15 -269.75 -109.15 -264.5 -78.5 -295.65 -82.4 -287.25 -84.25 -287.25 -85.9 -293.75 -89.4 -297.25 -89.4 -297.25 -91.0 -297.4 -92.15 -297.5 -94.75 -297.65 -95.0 -297.5 -95.65 -297.65 -99.0 -297.9 -101.0 -297.9 -102.25 -298.4 -103.25 -299.0 -104.9 -299.0 -105.25 -300.4 -106.25 -301.65 -107.5 -303.0 -108.5 -303.4 -110.4 -302.9 -110.65 -302.9 -110.75 -302.5 -110.9 -298.0 -113.4 -298.0 -114.25 -297.75 -116.0 -298.25 -127.25 -300.25 -128.5 -299.0 -141.9 -299.15 -142.0 -299.15 -142.15 -295.0 -157.9 -295.0 -158.0 -291.0 -172.4 -291.0 -173.5 -291.15 -173.65 -291.0 -174.15 -291.5 -190.4 -291.65 -190.65 -291.5 -191.15 -292.5 -206.9 -292.65 -207.15 -295.0 -222.75 -294.9 -223.4 -294.9 -226.0 -285.25 -233.0 -238.9 -281.9 -226.75 -280.5 -226.5 -280.4" fill="#bf0000" fill-rule="evenodd" stroke="none"/>
    <path d="M-129.9 -300.0 L-129.75 -299.75 -134.25 -288.75 -134.75 -286.9 -137.0 -281.75 -137.15 -280.75 -137.5 -280.15 -139.15 -276.75 -138.9 -276.5 -139.15 -275.75 -140.75 -272.25 -139.75 -276.75 -139.65 -277.0 -139.75 -277.25 -139.65 -277.25 -137.5 -285.4 -137.25 -287.0 -133.75 -300.0 -129.9 -300.0" fill="#9b0000" fill-opacity="0.9098039" fill-rule="evenodd" stroke="none"/>
    <path d="M-106.65 -299.9 L-106.75 -299.75 -104.15 -289.5 -105.5 -265.75 -105.4 -264.9 -105.65 -263.4 -107.5 -264.9 -134.65 -269.15 -134.9 -269.25 -141.4 -270.25 -140.75 -272.25 -139.15 -275.75 -138.9 -276.5 -139.15 -276.75 -137.5 -280.15 -137.15 -280.75 -137.0 -281.75 -134.75 -286.9 -134.25 -288.75 -129.75 -299.75 -129.9 -300.0 -106.65 -299.9 M-116.75 -124.65 L-116.0 -151.4 -107.5 -214.75 -104.75 -252.4 -104.65 -254.15 -104.5 -252.65 -104.75 -252.4 -106.0 -207.65 -116.75 -124.65" fill="#bb0000" fill-opacity="0.9098039" fill-rule="evenodd" stroke="none"/>
    <path d="M-105.65 -263.4 L-105.4 -264.9 -105.5 -265.75 -104.15 -289.5 -106.75 -299.75 -106.65 -299.9 -100.75 -299.9 -104.4 -262.25 -105.5 -263.15 -105.65 -263.4" fill="#d00000" fill-rule="evenodd" stroke="none"/>
    <path d="M-105.5 -263.15 L-104.4 -262.25 -105.5 -262.15 -105.5 -263.15" fill="#c30000" fill-rule="evenodd" stroke="none"/>
    <path d="M-321.5 -295.25 L-322.25 -293.5 -322.9 -292.65 -336.9 -266.15 -337.15 -265.25 -337.4 -265.0 -338.65 -262.9 -338.65 -262.4 -339.25 -261.65 -339.5 -260.75 -340.25 -259.65 -340.5 -259.4 -339.9 -265.15 -339.9 -265.75 -340.0 -266.0 -339.9 -266.25 -337.25 -277.25 -337.25 -277.75 -334.0 -281.25 -333.9 -281.5 -321.5 -295.25" fill="#e30000" fill-opacity="0.9098039" fill-rule="evenodd" stroke="none"/>
    <path d="M-141.5 -27.5 L-121.5 -17.15 -127.5 -51.15 -127.65 -53.4 -119.9 -99.5 -117.15 -119.25 -117.0 -118.0 -117.9 -90.75 -117.15 -40.25 -112.9 -16.5 -137.5 -14.75 -146.15 -10.75 -145.75 -13.15 -141.5 -27.5 M-205.4 -42.4 L-205.25 -42.4 -205.25 -28.4 -205.4 -27.25 -205.4 -26.0 -205.9 -23.4 -205.9 -22.25 -206.0 -22.0 -206.0 -21.0 -206.15 -20.5 -206.15 -19.9 -206.25 -19.15 -206.25 -18.65 -206.4 -17.75 -206.4 -17.4 -206.5 -16.25 -206.5 -16.15 -206.75 -15.75 -230.75 -18.5 -254.5 -14.65 -301.0 -20.25 -319.4 -27.65 -346.5 -39.4 -346.9 -39.9 -334.5 -62.5 -334.65 -63.0 -334.4 -63.4 -331.5 -65.0 -331.0 -65.15 -330.75 -65.5 -330.25 -65.9 -320.65 -71.5 -319.25 -69.5 -319.25 -69.15 -319.15 -68.65 -319.0 -64.9 -318.75 -60.4 -318.65 -60.25 -318.25 -51.0 -318.15 -51.0 -318.15 -48.75 -318.0 -47.5 -318.0 -46.4 -317.75 -44.0 -317.75 -41.75 -317.65 -41.5 -317.9 -41.4 -318.0 -41.25 -318.25 -41.0 -318.25 -40.9 -318.5 -40.75 -318.9 -40.25 -318.9 -40.15 -318.65 -39.65 -317.75 -39.25 -316.65 -39.0 -313.65 -39.4 -312.5 -39.9 -311.9 -40.4 -312.25 -41.15 -312.75 -41.65 -313.15 -46.4 -313.5 -54.75 -313.65 -55.75 -313.75 -60.65 -313.9 -60.65 -314.0 -64.4 -314.15 -65.25 -314.25 -70.25 -313.15 -72.75 -313.15 -72.9 -312.0 -74.75 -312.15 -75.0 -311.25 -76.75 -310.75 -77.5 -308.5 -78.9 -307.15 -79.5 -295.65 -82.4 -264.5 -78.5 -269.75 -109.15 -268.4 -147.15 -258.25 -206.5 -244.4 -241.4 -219.65 -273.15 -219.5 -272.4 -222.9 -219.4 -233.9 -167.75 -242.5 -115.65 -254.25 -72.65 -269.75 -30.15 -269.25 -29.9 -227.75 -40.4 -205.4 -42.4" fill="#bf0000" fill-opacity="0.9098039" fill-rule="evenodd" stroke="none"/>
    <path d="M-104.65 -254.15 L-104.75 -252.4 -107.5 -214.75 -116.0 -151.4 -116.75 -124.65 -117.15 -119.25 -119.9 -99.5 -127.65 -53.4 -127.5 -51.15 -121.5 -17.15 -141.5 -27.5 -140.4 -32.0 -136.0 -46.4 -135.15 -50.4 -135.25 -50.5 -135.15 -51.9 -136.4 -90.9 -138.65 -104.15 -138.65 -104.4 -138.75 -105.0 -138.75 -105.4 -138.9 -105.75 -140.25 -115.15 -128.65 -130.25 -128.4 -131.25 -118.75 -156.9 -111.0 -195.15 -111.0 -196.75 -107.15 -230.15 -105.5 -262.15 -104.4 -262.25 -104.25 -261.25 -104.65 -254.15 M-219.5 -273.4 L-197.25 -269.15 -190.4 -268.5 -190.25 -268.4 -191.9 -252.9 -191.9 -252.0 -194.5 -226.4 -194.5 -226.15 -201.0 -167.75 -200.25 -140.5 -201.0 -124.4 -200.9 -124.0 -200.15 -101.4 -205.65 -85.0 -207.25 -68.9 -205.25 -50.75 -205.4 -42.4 -227.75 -40.4 -269.25 -29.9 -269.75 -30.15 -254.25 -72.65 -242.5 -115.65 -233.9 -167.75 -222.9 -219.4 -219.5 -272.4 -219.65 -273.15 -219.5 -273.4" fill="#be0000" fill-rule="evenodd" stroke="none"/>
  </g>
  <defs>
    <radialGradient cx="0" cy="0" gradientTransform="matrix(0.0754, 0.0, 0.0, 0.0754, -285.7, -295.3)" gradientUnits="userSpaceOnUse" id="gradient0" r="819.2" spreadMethod="pad">
      <stop offset="0.0" stop-color="#7f7f7f"/>
      <stop offset="1.0" stop-color="#000000"/>
    </radialGradient>
    <radialGradient cx="0" cy="0" gradientTransform="matrix(0.0548, 0.0, 0.0, 0.0548, -199.2, -290.95)" gradientUnits="userSpaceOnUse" id="gradient1" r="819.2" spreadMethod="pad">
      <stop offset="0.0" stop-color="#494949"/>
      <stop offset="1.0" stop-color="#000000"/>
    </radialGradient>
    <radialGradient cx="0" cy="0" gradientTransform="matrix(0.056, 0.0, 0.0, 0.056, -224.0, -297.7)" gradientUnits="userSpaceOnUse" id="gradient2" r="819.2" spreadMethod="pad">
      <stop offset="0.0" stop-color="#000000"/>
      <stop offset="1.0" stop-color="#000000"/>
    </radialGradient>
    <radialGradient cx="0" cy="0" gradientTransform="matrix(0.1522, 0.0, 0.0, 0.1522, -329.65, -224.9)" gradientUnits="userSpaceOnUse" id="gradient3" r="819.2" spreadMethod="pad">
      <stop offset="0.0" stop-color="#565656"/>
      <stop offset="1.0" stop-color="#000000"/>
    </radialGradient>
    <radialGradient cx="0" cy="0" gradientTransform="matrix(0.0158, 0.0, 0.0, 0.0158, -223.0, -295.75)" gradientUnits="userSpaceOnUse" id="gradient4" r="819.2" spreadMethod="pad">
      <stop offset="0.0" stop-color="#000000"/>
      <stop offset="1.0" stop-color="#000000"/>
    </radialGradient>
    <radialGradient cx="0" cy="0" gradientTransform="matrix(0.0163, 0.0, 0.0, 0.0163, -213.4, -292.25)" gradientUnits="userSpaceOnUse" id="gradient5" r="819.2" spreadMethod="pad">
      <stop offset="0.0" stop-color="#000000"/>
      <stop offset="1.0" stop-color="#000000"/>
    </radialGradient>
    <radialGradient cx="0" cy="0" gradientTransform="matrix(0.021, 0.0, 0.0, 0.021, -204.25, -300.0)" gradientUnits="userSpaceOnUse" id="gradient6" r="819.2" spreadMethod="pad">
      <stop offset="0.0" stop-color="#000000"/>
      <stop offset="1.0" stop-color="#000000"/>
    </radialGradient>
    <radialGradient cx="0" cy="0" gradientTransform="matrix(0.0605, 0.0, 0.0, 0.0605, -106.55, -300.0)" gradientUnits="userSpaceOnUse" id="gradient7" r="819.2" spreadMethod="pad">
      <stop offset="0.0" stop-color="#191919"/>
      <stop offset="1.0" stop-color="#000000"/>
    </radialGradient>
    <radialGradient cx="0" cy="0" gradientTransform="matrix(0.1467, 0.0, 0.0, 0.1467, -157.05, -249.3)" gradientUnits="userSpaceOnUse" id="gradient8" r="819.2" spreadMethod="pad">
      <stop offset="0.0" stop-color="#494949"/>
      <stop offset="1.0" stop-color="#000000"/>
    </radialGradient>
    <radialGradient cx="0" cy="0" gradientTransform="matrix(0.1726, 0.0, 0.0, 0.1726, -189.45, -276.7)" gradientUnits="userSpaceOnUse" id="gradient9" r="819.2" spreadMethod="pad">
      <stop offset="0.0" stop-color="#575757"/>
      <stop offset="1.0" stop-color="#414141"/>
    </radialGradient>
    <radialGradient cx="0" cy="0" gradientTransform="matrix(0.2166, 0.0, 0.0, 0.2166, -156.5, -300.0)" gradientUnits="userSpaceOnUse" id="gradient10" r="819.2" spreadMethod="pad">
      <stop offset="0.0" stop-color="#626262"/>
      <stop offset="1.0" stop-color="#000000"/>
    </radialGradient>
    <radialGradient cx="0" cy="0" gradientTransform="matrix(0.1681, 0.0, 0.0, 0.1681, -105.45, -264.85)" gradientUnits="userSpaceOnUse" id="gradient11" r="819.2" spreadMethod="pad">
      <stop offset="0.0" stop-color="#040404"/>
      <stop offset="1.0" stop-color="#000000"/>
    </radialGradient>
    <radialGradient cx="0" cy="0" gradientTransform="matrix(0.1084, 0.0, 0.0, 0.1084, -285.7, -295.3)" gradientUnits="userSpaceOnUse" id="gradient12" r="819.2" spreadMethod="pad">
      <stop offset="0.0" stop-color="#7f7f7f"/>
      <stop offset="1.0" stop-color="#2d2d2d"/>
    </radialGradient>
    <radialGradient cx="0" cy="0" gradientTransform="matrix(0.1452, 0.0, 0.0, 0.1452, -324.65, -234.05)" gradientUnits="userSpaceOnUse" id="gradient13" r="819.2" spreadMethod="pad">
      <stop offset="0.0" stop-color="#292929"/>
      <stop offset="1.0" stop-color="#000000"/>
    </radialGradient>
    <radialGradient cx="0" cy="0" gradientTransform="matrix(0.1886, 0.0, 0.0, 0.1886, -292.85, -251.55)" gradientUnits="userSpaceOnUse" id="gradient14" r="819.2" spreadMethod="pad">
      <stop offset="0.0" stop-color="#363636"/>
      <stop offset="1.0" stop-color="#000000"/>
    </radialGradient>
    <radialGradient cx="0" cy="0" gradientTransform="matrix(0.114, 0.0, 0.0, 0.114, -348.05, -175.45)" gradientUnits="userSpaceOnUse" id="gradient15" r="819.2" spreadMethod="pad">
      <stop offset="0.0" stop-color="#5e5e5e"/>
      <stop offset="1.0" stop-color="#040404"/>
    </radialGradient>
    <radialGradient cx="0" cy="0" gradientTransform="matrix(0.0375, 0.0, 0.0, 0.0375, -337.15, -277.95)" gradientUnits="userSpaceOnUse" id="gradient16" r="819.2" spreadMethod="pad">
      <stop offset="0.0" stop-color="#000000"/>
      <stop offset="1.0" stop-color="#000000"/>
    </radialGradient>
    <radialGradient cx="0" cy="0" gradientTransform="matrix(0.0355, 0.0, 0.0, 0.0355, -329.75, -274.55)" gradientUnits="userSpaceOnUse" id="gradient17" r="819.2" spreadMethod="pad">
      <stop offset="0.0" stop-color="#0e0e0e"/>
      <stop offset="1.0" stop-color="#030303"/>
    </radialGradient>
    <radialGradient cx="0" cy="0" gradientTransform="matrix(0.1378, 0.0, 0.0, 0.1378, -295.75, -228.05)" gradientUnits="userSpaceOnUse" id="gradient18" r="819.2" spreadMethod="pad">
      <stop offset="0.0" stop-color="#808080"/>
      <stop offset="1.0" stop-color="#040404"/>
    </radialGradient>
    <radialGradient cx="0" cy="0" gradientTransform="matrix(0.0713, 0.0, 0.0, 0.0713, -356.5, -123.5)" gradientUnits="userSpaceOnUse" id="gradient19" r="819.2" spreadMethod="pad">
      <stop offset="0.0" stop-color="#212121"/>
      <stop offset="1.0" stop-color="#212121"/>
    </radialGradient>
    <radialGradient cx="0" cy="0" gradientTransform="matrix(0.0285, 0.0, 0.0, 0.0285, -200.2, -140.85)" gradientUnits="userSpaceOnUse" id="gradient20" r="819.2" spreadMethod="pad">
      <stop offset="0.0" stop-color="#4d4d4d"/>
      <stop offset="1.0" stop-color="#2f2f2f"/>
    </radialGradient>
    <radialGradient cx="0" cy="0" gradientTransform="matrix(0.1508, 0.0, 0.0, 0.1508, -200.9, -124.5)" gradientUnits="userSpaceOnUse" id="gradient21" r="819.2" spreadMethod="pad">
      <stop offset="0.0" stop-color="#383838"/>
      <stop offset="1.0" stop-color="#030303"/>
    </radialGradient>
    <radialGradient cx="0" cy="0" gradientTransform="matrix(0.1303, 0.0, 0.0, 0.1303, -200.9, -124.5)" gradientUnits="userSpaceOnUse" id="gradient22" r="819.2" spreadMethod="pad">
      <stop offset="0.0" stop-color="#383838"/>
      <stop offset="1.0" stop-color="#040404"/>
    </radialGradient>
    <radialGradient cx="0" cy="0" gradientTransform="matrix(0.1467, 0.0, 0.0, 0.1467, -179.4, -117.75)" gradientUnits="userSpaceOnUse" id="gradient23" r="819.2" spreadMethod="pad">
      <stop offset="0.0" stop-color="#202020"/>
      <stop offset="1.0" stop-color="#000000"/>
    </radialGradient>
    <radialGradient cx="0" cy="0" gradientTransform="matrix(0.1532, 0.0, 0.0, 0.1532, -188.45, -120.6)" gradientUnits="userSpaceOnUse" id="gradient24" r="819.2" spreadMethod="pad">
      <stop offset="0.0" stop-color="#1c1c1c"/>
      <stop offset="1.0" stop-color="#000000"/>
    </radialGradient>
    <radialGradient cx="0" cy="0" gradientTransform="matrix(0.0626, 0.0, 0.0, 0.0626, -187.4, -135.35)" gradientUnits="userSpaceOnUse" id="gradient25" r="819.2" spreadMethod="pad">
      <stop offset="0.0" stop-color="#393939"/>
      <stop offset="1.0" stop-color="#000000"/>
    </radialGradient>
    <radialGradient cx="0" cy="0" gradientTransform="matrix(0.0232, 0.0, 0.0, 0.0232, -128.7, -130.25)" gradientUnits="userSpaceOnUse" id="gradient26" r="819.2" spreadMethod="pad">
      <stop offset="0.0" stop-color="#000000"/>
      <stop offset="1.0" stop-color="#000000"/>
    </radialGradient>
    <radialGradient cx="0" cy="0" gradientTransform="matrix(0.0595, 0.0, 0.0, 0.0595, -346.2, -118.95)" gradientUnits="userSpaceOnUse" id="gradient27" r="819.2" spreadMethod="pad">
      <stop offset="0.0" stop-color="#b5b5b5"/>
      <stop offset="1.0" stop-color="#757575"/>
    </radialGradient>
    <radialGradient cx="0" cy="0" gradientTransform="matrix(0.0605, 0.0, 0.0, 0.0605, -345.2, -87.8)" gradientUnits="userSpaceOnUse" id="gradient28" r="819.2" spreadMethod="pad">
      <stop offset="0.0" stop-color="#b6b6b6"/>
      <stop offset="1.0" stop-color="#3f3f3f"/>
    </radialGradient>
    <radialGradient cx="0" cy="0" gradientTransform="matrix(0.0361, 0.0, 0.0, 0.0361, -351.25, -97.25)" gradientUnits="userSpaceOnUse" id="gradient29" r="819.2" spreadMethod="pad">
      <stop offset="0.0" stop-color="#292929"/>
      <stop offset="1.0" stop-color="#000000"/>
    </radialGradient>
    <radialGradient cx="0" cy="0" gradientTransform="matrix(0.042, 0.0, 0.0, 0.042, -351.8, -90.9)" gradientUnits="userSpaceOnUse" id="gradient30" r="819.2" spreadMethod="pad">
      <stop offset="0.0" stop-color="#565656"/>
      <stop offset="1.0" stop-color="#000000"/>
    </radialGradient>
    <radialGradient cx="0" cy="0" gradientTransform="matrix(0.0404, 0.0, 0.0, 0.0404, -354.2, -61.3)" gradientUnits="userSpaceOnUse" id="gradient31" r="819.2" spreadMethod="pad">
      <stop offset="0.0" stop-color="#d9d9d9"/>
      <stop offset="1.0" stop-color="#363636"/>
    </radialGradient>
    <radialGradient cx="0" cy="0" gradientTransform="matrix(0.0146, 0.0, 0.0, 0.0146, -358.75, -60.55)" gradientUnits="userSpaceOnUse" id="gradient32" r="819.2" spreadMethod="pad">
      <stop offset="0.0" stop-color="#e1e1e1"/>
      <stop offset="1.0" stop-color="#7a7a7a"/>
    </radialGradient>
    <radialGradient cx="0" cy="0" gradientTransform="matrix(0.0293, 0.0, 0.0, 0.0293, -344.65, -68.95)" gradientUnits="userSpaceOnUse" id="gradient33" r="819.2" spreadMethod="pad">
      <stop offset="0.0" stop-color="#787878"/>
      <stop offset="1.0" stop-color="#777777"/>
    </radialGradient>
    <radialGradient cx="0" cy="0" gradientTransform="matrix(0.0288, 0.0, 0.0, 0.0288, -348.15, -74.45)" gradientUnits="userSpaceOnUse" id="gradient34" r="819.2" spreadMethod="pad">
      <stop offset="0.0" stop-color="#979797"/>
      <stop offset="1.0" stop-color="#939393"/>
    </radialGradient>
    <radialGradient cx="0" cy="0" gradientTransform="matrix(0.0542, 0.0, 0.0, 0.0542, -335.5, -62.7)" gradientUnits="userSpaceOnUse" id="gradient35" r="819.2" spreadMethod="pad">
      <stop offset="0.0" stop-color="#121212"/>
      <stop offset="1.0" stop-color="#121212"/>
    </radialGradient>
    <radialGradient cx="0" cy="0" gradientTransform="matrix(0.0404, 0.0, 0.0, 0.0404, -354.2, -61.3)" gradientUnits="userSpaceOnUse" id="gradient36" r="819.2" spreadMethod="pad">
      <stop offset="0.0" stop-color="#d9d9d9"/>
      <stop offset="1.0" stop-color="#373737"/>
    </radialGradient>
    <radialGradient cx="0" cy="0" gradientTransform="matrix(0.0164, 0.0, 0.0, 0.0164, -321.45, -75.45)" gradientUnits="userSpaceOnUse" id="gradient37" r="819.2" spreadMethod="pad">
      <stop offset="0.0" stop-color="#dedede"/>
      <stop offset="1.0" stop-color="#313131"/>
    </radialGradient>
    <radialGradient cx="0" cy="0" gradientTransform="matrix(0.0647, 0.0, 0.0, 0.0647, -287.35, -84.4)" gradientUnits="userSpaceOnUse" id="gradient38" r="819.2" spreadMethod="pad">
      <stop offset="0.0" stop-color="#121212"/>
      <stop offset="1.0" stop-color="#121212"/>
    </radialGradient>
    <radialGradient cx="0" cy="0" gradientTransform="matrix(0.0639, 0.0, 0.0, 0.0639, -294.05, -89.5)" gradientUnits="userSpaceOnUse" id="gradient39" r="819.2" spreadMethod="pad">
      <stop offset="0.0" stop-color="#717171"/>
      <stop offset="1.0" stop-color="#707070"/>
    </radialGradient>
    <radialGradient cx="0" cy="0" gradientTransform="matrix(0.0669, 0.0, 0.0, 0.0669, -294.05, -89.5)" gradientUnits="userSpaceOnUse" id="gradient40" r="819.2" spreadMethod="pad">
      <stop offset="0.0" stop-color="#121212"/>
      <stop offset="1.0" stop-color="#121212"/>
    </radialGradient>
    <radialGradient cx="0" cy="0" gradientTransform="matrix(0.1112, 0.0, 0.0, 0.1112, -136.5, -91.0)" gradientUnits="userSpaceOnUse" id="gradient41" r="819.2" spreadMethod="pad">
      <stop offset="0.0" stop-color="#494949"/>
      <stop offset="1.0" stop-color="#000000"/>
    </radialGradient>
    <radialGradient cx="0" cy="0" gradientTransform="matrix(0.0284, 0.0, 0.0, 0.0284, -330.75, -94.1)" gradientUnits="userSpaceOnUse" id="gradient42" r="819.2" spreadMethod="pad">
      <stop offset="0.0" stop-color="#000000"/>
      <stop offset="1.0" stop-color="#000000"/>
    </radialGradient>
    <radialGradient cx="0" cy="0" gradientTransform="matrix(0.0249, 0.0, 0.0, 0.0249, -349.25, -79.95)" gradientUnits="userSpaceOnUse" id="gradient43" r="819.2" spreadMethod="pad">
      <stop offset="0.0" stop-color="#424242"/>
      <stop offset="1.0" stop-color="#010101"/>
    </radialGradient>
    <radialGradient cx="0" cy="0" gradientTransform="matrix(0.018, 0.0, 0.0, 0.018, -340.4, -74.5)" gradientUnits="userSpaceOnUse" id="gradient44" r="819.2" spreadMethod="pad">
      <stop offset="0.0" stop-color="#212121"/>
      <stop offset="1.0" stop-color="#212121"/>
    </radialGradient>
    <radialGradient cx="0" cy="0" gradientTransform="matrix(0.0634, 0.0, 0.0, 0.0634, -296.55, -86.65)" gradientUnits="userSpaceOnUse" id="gradient45" r="819.2" spreadMethod="pad">
      <stop offset="0.0" stop-color="#121212"/>
      <stop offset="1.0" stop-color="#121212"/>
    </radialGradient>
    <radialGradient cx="0" cy="0" gradientTransform="matrix(0.0633, 0.0, 0.0, 0.0633, -297.5, -85.55)" gradientUnits="userSpaceOnUse" id="gradient46" r="819.2" spreadMethod="pad">
      <stop offset="0.0" stop-color="#121212"/>
      <stop offset="1.0" stop-color="#121212"/>
    </radialGradient>
    <radialGradient cx="0" cy="0" gradientTransform="matrix(0.0376, 0.0, 0.0, 0.0376, -318.45, -70.4)" gradientUnits="userSpaceOnUse" id="gradient47" r="819.2" spreadMethod="pad">
      <stop offset="0.0" stop-color="#b3b3b3"/>
      <stop offset="1.0" stop-color="#505050"/>
    </radialGradient>
    <radialGradient cx="0" cy="0" gradientTransform="matrix(0.0076, 0.0, 0.0, 0.0076, -313.05, -41.95)" gradientUnits="userSpaceOnUse" id="gradient48" r="819.2" spreadMethod="pad">
      <stop offset="0.0" stop-color="#cfcfcf"/>
      <stop offset="1.0" stop-color="#3b3b3b"/>
    </radialGradient>
    <radialGradient cx="0" cy="0" gradientTransform="matrix(0.0306, 0.0, 0.0, 0.0306, -336.9, -64.15)" gradientUnits="userSpaceOnUse" id="gradient49" r="819.2" spreadMethod="pad">
      <stop offset="0.0" stop-color="#121212"/>
      <stop offset="1.0" stop-color="#121212"/>
    </radialGradient>
  </defs>
</svg>
