<?xml version="1.0" encoding="UTF-8" standalone="no"?>
<svg xmlns:xlink="http://www.w3.org/1999/xlink" height="299.1px" width="297.6px" xmlns="http://www.w3.org/2000/svg">
  <g transform="matrix(1.0, 0.0, 0.0, 1.0, 400.0, 300.0)">
    <path d="M-301.75 -300.0 L-263.4 -300.0 -256.9 -297.5 -256.0 -297.75 -256.15 -298.0 -257.4 -300.0 -253.25 -300.0 -247.75 -294.5 -241.25 -292.4 -234.75 -285.75 -223.15 -281.15 -266.15 -275.65 -266.5 -275.65 -267.15 -275.5 -267.75 -275.5 -268.15 -275.4 -278.0 -277.65 -285.25 -280.25 -301.75 -300.0" fill="url(#gradient0)" fill-rule="evenodd" stroke="none"/>
    <path d="M-263.4 -300.0 L-258.15 -300.0 -256.5 -298.0 -256.15 -298.0 -256.0 -297.75 -256.9 -297.5 -263.4 -300.0" fill="url(#gradient1)" fill-rule="evenodd" stroke="none"/>
    <path d="M-258.15 -300.0 L-257.4 -300.0 -256.15 -298.0 -256.5 -298.0 -258.15 -300.0" fill="url(#gradient2)" fill-rule="evenodd" stroke="none"/>
    <path d="M-253.25 -300.0 L-250.15 -300.0 -241.25 -292.4 -247.75 -294.5 -253.25 -300.0" fill="url(#gradient3)" fill-rule="evenodd" stroke="none"/>
    <path d="M-199.5 -274.65 L-213.5 -276.0 -214.15 -276.4 -223.15 -281.15 -234.75 -285.75 -241.25 -292.4 -250.15 -300.0 -194.65 -300.0 -190.9 -298.25 -166.65 -296.0 -148.0 -292.15 -154.4 -284.75 -155.65 -277.15 -171.0 -280.0 -187.0 -277.65 -199.5 -274.65 M-186.65 -279.5 L-186.15 -281.65 -206.75 -283.65 -186.65 -279.5" fill="url(#gradient4)" fill-rule="evenodd" stroke="none"/>
    <path d="M-194.65 -300.0 L-145.75 -300.0 -147.0 -294.9 -148.0 -292.15 -166.65 -296.0 -190.9 -298.25 -194.65 -300.0" fill="url(#gradient5)" fill-rule="evenodd" stroke="none"/>
    <path d="M-145.0 -300.0 L-111.75 -300.0 -111.65 -299.5 -111.4 -296.15 -111.25 -295.65 -110.4 -287.0 -107.5 -271.75 -108.9 -248.25 -116.25 -253.15 -129.25 -261.15 Q-131.9 -263.15 -128.65 -279.4 L-133.4 -284.65 -144.15 -283.9 -145.15 -283.4 Q-146.15 -283.0 -146.0 -278.0 L-149.65 -273.65 -155.65 -277.15 -154.4 -284.75 -148.0 -292.15 -147.0 -294.9 -145.0 -300.0" fill="url(#gradient6)" fill-rule="evenodd" stroke="none"/>
    <path d="M-145.75 -300.0 L-145.0 -300.0 -147.0 -294.9 -145.75 -300.0" fill="url(#gradient7)" fill-rule="evenodd" stroke="none"/>
    <path d="M-108.9 -248.25 L-110.15 -214.15 -114.15 -180.5 -121.65 -144.0 -131.4 -118.25 -138.15 -118.4 -127.75 -142.65 -120.0 -179.9 -116.65 -213.9 -116.25 -253.15 -108.9 -248.25" fill="url(#gradient8)" fill-rule="evenodd" stroke="none"/>
    <path d="M-155.65 -277.15 L-149.65 -273.65 -145.75 -268.4 -136.15 -261.25 -129.25 -261.15 -116.25 -253.15 -116.65 -213.9 -120.0 -179.9 -127.75 -142.65 -138.15 -118.4 -155.65 -118.75 -169.15 -120.15 -187.15 -122.65 -187.25 -122.9 -195.9 -153.0 -195.9 -155.65 -189.9 -212.75 -189.9 -215.25 -184.75 -261.4 -187.0 -277.65 -171.0 -280.0 -155.65 -277.15 M-147.15 -262.75 L-146.5 -262.75 Q-145.85 -263.05 -145.25 -263.4 L-147.0 -265.75 -156.9 -273.25 -160.65 -273.4 -157.65 -268.25 -147.15 -262.75" fill="url(#gradient9)" fill-rule="evenodd" stroke="none"/>
    <path d="M-149.65 -273.65 L-146.0 -278.0 Q-146.15 -283.0 -145.15 -283.4 L-144.15 -283.9 -133.4 -284.65 -128.65 -279.4 Q-131.9 -263.15 -129.25 -261.15 L-136.15 -261.25 -145.75 -268.4 -149.65 -273.65 M-147.15 -262.75 L-157.65 -268.25 -160.65 -273.4 -156.9 -273.25 -147.0 -265.75 -145.25 -263.4 Q-145.85 -263.05 -146.5 -262.75 L-147.15 -262.75 M-161.65 -111.65 L-165.9 -112.0 -163.4 -117.25 -163.0 -117.15 -161.65 -111.65 M-152.25 -116.75 L-144.4 -111.4 -144.5 -111.0 -155.25 -111.15 -153.9 -116.75 -152.25 -116.75" fill="url(#gradient10)" fill-rule="evenodd" stroke="none"/>
    <path d="M-346.0 -254.9 L-343.0 -265.5 Q-343.4 -266.4 -340.5 -268.4 L-320.75 -285.65 -320.4 -286.15 -318.65 -289.75 -318.25 -290.4 -313.4 -300.0 -301.75 -300.0 -285.25 -280.25 -278.0 -277.65 -312.0 -232.0 -322.9 -221.65 -333.0 -214.75 -334.15 -215.4 -336.65 -218.9 -342.0 -224.0 -341.75 -225.25 -342.75 -229.9 -343.4 -235.75 -344.0 -235.75 -346.0 -254.9" fill="url(#gradient11)" fill-rule="evenodd" stroke="none"/>
    <path d="M-227.0 -279.25 L-290.4 -220.65 Q-295.75 -217.5 -301.15 -214.4 L-304.0 -212.65 -304.25 -212.5 -305.9 -211.5 -308.4 -210.0 -317.4 -210.5 -321.25 -212.0 -333.0 -214.75 -322.9 -221.65 -312.0 -232.0 -278.0 -277.65 -268.15 -275.4 -267.75 -275.5 -267.15 -275.5 -266.5 -275.65 -266.15 -275.65 -227.0 -279.25" fill="url(#gradient12)" fill-rule="evenodd" stroke="none"/>
    <path d="M-354.4 -131.9 L-354.4 -132.15 -354.15 -134.4 -354.15 -134.75 -354.0 -135.65 -354.0 -136.15 -353.9 -137.0 -353.9 -137.5 -353.5 -138.5 -353.65 -142.0 -352.75 -159.4 -353.0 -160.4 -351.9 -181.65 -352.15 -182.65 -350.0 -200.5 -350.25 -200.65 -347.0 -211.65 -344.0 -218.65 -342.75 -215.65 -334.15 -215.4 -333.0 -214.75 -321.25 -212.0 -317.4 -210.5 -308.4 -210.0 -305.9 -211.5 -304.65 -211.75 -304.25 -212.5 -304.0 -212.65 -303.75 -212.25 -304.15 -206.4 -308.5 -198.5 -312.4 -134.5 -312.15 -134.15 -314.25 -112.75 -320.5 -111.65 -320.75 -112.15 -322.5 -111.25 -329.4 -110.15 -333.15 -110.15 -330.4 -135.65 -335.5 -140.5 -340.65 -136.65 -342.75 -110.15 -345.5 -110.25 -345.5 -121.25 -349.65 -136.75 -349.5 -137.5 -350.0 -137.75 -350.75 -130.75 -351.4 -128.25 -351.25 -126.25 -353.0 -112.15 -356.0 -112.75 -356.0 -114.4 -355.9 -115.0 -355.9 -115.5 -354.4 -131.9" fill="url(#gradient13)" fill-rule="evenodd" stroke="none"/>
    <path d="M-301.15 -214.4 L-301.25 -211.65 -301.5 -208.9 -301.9 -208.4 -303.75 -212.25 -304.0 -212.65 -301.15 -214.4 M-305.9 -211.5 L-304.25 -212.5 -304.65 -211.75 -305.9 -211.5 M-344.0 -235.75 L-343.4 -235.75 -342.75 -229.9 -341.75 -225.25 -342.0 -224.0 -336.65 -218.9 -334.15 -215.4 -342.75 -215.65 -344.0 -218.65 -344.5 -228.5 -344.0 -235.75 M-342.75 -110.15 L-340.65 -136.65 -335.5 -140.5 -330.4 -135.65 -333.15 -110.15 -336.25 -109.9 -342.75 -110.15 M-322.5 -111.25 L-320.75 -112.15 -320.5 -111.65 -322.5 -111.25 M-353.0 -112.15 L-351.25 -126.25 -351.4 -128.25 -350.75 -130.75 -350.0 -137.75 -349.5 -137.5 -349.65 -136.75 -345.5 -121.25 -345.5 -110.25 -352.15 -111.5 -353.0 -112.15" fill="url(#gradient14)" fill-rule="evenodd" stroke="none"/>
    <path d="M-356.0 -118.5 L-354.4 -131.9 -355.9 -115.5 -355.9 -118.5 -356.0 -118.5 M-353.9 -137.5 L-354.25 -164.15 -356.0 -178.9 -355.0 -189.75 -348.75 -236.75 -347.4 -241.25 -347.5 -240.25 -347.25 -240.4 -347.25 -241.75 -347.25 -241.9 -347.15 -242.15 -346.0 -254.9 -344.0 -235.75 -344.5 -228.5 -344.0 -218.65 -347.0 -211.65 -350.25 -200.65 -350.0 -200.5 -352.15 -182.65 -351.9 -181.65 -353.0 -160.4 -352.75 -159.4 -353.65 -142.0 -353.5 -138.5 -353.9 -137.5" fill="url(#gradient15)" fill-rule="evenodd" stroke="none"/>
    <path d="M-340.5 -268.4 L-318.5 -290.15 -318.65 -289.75 -320.4 -286.15 -320.75 -285.65 -340.5 -268.4" fill="url(#gradient16)" fill-rule="evenodd" stroke="none"/>
    <path d="M-318.5 -290.15 L-318.25 -290.4 -318.65 -289.75 -318.5 -290.15" fill="url(#gradient17)" fill-rule="evenodd" stroke="none"/>
    <path d="M-223.15 -281.15 L-227.0 -279.25 -266.15 -275.65 -223.15 -281.15" fill="url(#gradient18)" fill-rule="evenodd" stroke="none"/>
    <path d="M-214.15 -276.4 L-222.4 -279.4 -223.75 -279.65 -226.5 -279.25 -227.0 -279.25 -223.15 -281.15 -214.15 -276.4" fill="url(#gradient19)" fill-rule="evenodd" stroke="none"/>
    <path d="M-222.4 -279.4 L-226.5 -279.25 -223.75 -279.65 -222.4 -279.4" fill="url(#gradient20)" fill-rule="evenodd" stroke="none"/>
    <path d="M-186.65 -279.5 L-206.75 -283.65 -186.15 -281.65 -186.65 -279.5" fill="url(#gradient21)" fill-rule="evenodd" stroke="none"/>
    <path d="M-200.75 -128.4 L-201.4 -154.75 -190.0 -259.4 -190.0 -260.4 -190.15 -260.75 -190.65 -261.5 -199.5 -274.65 -187.0 -277.65 -184.75 -261.4 -189.9 -215.25 -189.9 -212.75 -195.9 -155.65 -195.9 -153.0 -187.25 -122.9 -200.75 -128.4" fill="url(#gradient22)" fill-rule="evenodd" stroke="none"/>
    <path d="M-201.4 -112.4 L-200.75 -128.4 -187.25 -122.9 -187.15 -122.65 -188.4 -108.4 -201.4 -112.4" fill="url(#gradient23)" fill-rule="evenodd" stroke="none"/>
    <path d="M-190.0 -259.4 L-190.15 -259.9 -190.0 -260.4 -190.0 -259.4" fill="url(#gradient24)" fill-rule="evenodd" stroke="none"/>
    <path d="M-190.15 -259.9 L-190.5 -261.15 -190.15 -260.75 -190.0 -260.4 -190.15 -259.9" fill="url(#gradient25)" fill-rule="evenodd" stroke="none"/>
    <path d="M-190.5 -261.15 L-190.65 -261.5 -190.15 -260.75 -190.5 -261.15" fill="url(#gradient26)" fill-rule="evenodd" stroke="none"/>
    <path d="M-347.4 -241.25 L-347.25 -241.75 -347.25 -240.4 -347.5 -240.25 -347.4 -241.25" fill="url(#gradient27)" fill-rule="evenodd" stroke="none"/>
    <path d="M-301.25 -211.65 L-298.5 -195.65 -297.75 -183.9 -297.15 -162.75 -305.4 -132.25 -306.65 -118.25 -306.9 -117.0 -314.25 -112.75 -312.15 -134.15 -312.4 -134.5 -308.5 -198.5 -304.15 -206.4 -303.75 -212.25 -301.9 -208.4 -301.5 -208.9 -301.25 -211.65" fill="url(#gradient28)" fill-rule="evenodd" stroke="none"/>
    <path d="M-306.65 -118.25 L-304.5 -117.25 -304.5 -114.15 -308.9 -111.25 -317.15 -109.0 -318.5 -111.4 -319.0 -111.65 -320.9 -108.4 -327.65 -107.5 -339.75 -107.15 -350.4 -108.0 -359.0 -110.15 -362.5 -112.75 -361.5 -115.9 -356.0 -118.5 -355.9 -118.5 -355.9 -115.5 -355.9 -115.0 -356.0 -114.4 -356.0 -112.75 -353.0 -112.15 -352.15 -111.5 -345.5 -110.25 -342.75 -110.15 -336.25 -109.9 -333.15 -110.15 -329.4 -110.15 -322.5 -111.25 -320.5 -111.65 -314.25 -112.75 -306.9 -117.0 -306.65 -118.25" fill="url(#gradient29)" fill-rule="evenodd" stroke="none"/>
    <path d="M-304.5 -114.15 L-303.9 -103.25 -308.75 -100.0 -317.5 -97.5 -318.0 -106.9 -317.65 -108.9 -317.25 -109.0 -317.15 -109.0 -308.9 -111.25 -304.5 -114.15 M-357.9 -98.75 L-361.9 -101.75 -362.5 -112.75 -359.0 -110.15 -350.4 -108.0 -339.75 -107.15 -327.65 -107.5 -320.9 -108.4 Q-323.5 -102.4 -324.9 -102.5 L-329.65 -101.75 -331.4 -95.9 -340.75 -95.75 -349.75 -96.65 -357.9 -98.75" fill="url(#gradient30)" fill-rule="evenodd" stroke="none"/>
    <path d="M-358.4 -90.65 L-358.5 -90.9 -358.5 -95.4 -357.9 -98.75 -349.75 -96.65 -340.75 -95.75 -331.4 -95.9 -332.25 -93.15 -342.75 -86.0 -343.75 -86.75 -347.0 -87.4 -348.75 -86.0 -349.4 -86.15 -350.65 -87.4 Q-354.9 -89.65 -355.5 -88.9 L-357.65 -90.9 -358.4 -90.65" fill="url(#gradient31)" fill-rule="evenodd" stroke="none"/>
    <path d="M-359.0 -84.5 L-358.9 -88.9 -358.4 -90.65 -357.65 -90.9 -355.5 -88.9 Q-354.9 -89.65 -350.65 -87.4 L-349.4 -86.15 -348.75 -86.0 -347.0 -87.4 -343.75 -86.75 -342.75 -86.0 -351.75 -80.15 Q-356.25 -77.25 -356.15 -76.25 L-357.9 -80.4 -358.25 -80.5 -358.25 -81.9 -358.9 -83.9 -359.0 -84.5 M-329.0 -65.75 L-328.65 -64.9 -333.0 -64.0 -335.75 -64.0 -329.0 -65.75" fill="url(#gradient32)" fill-rule="evenodd" stroke="none"/>
    <path d="M-308.75 -100.0 L-308.4 -98.25 -304.75 -95.4 -304.15 -90.65 -303.75 -79.75 -303.9 -78.9 -304.0 -76.65 -308.9 -73.0 -315.25 -70.75 -316.25 -70.5 -315.25 -69.15 -309.4 -70.5 -316.25 -68.0 -328.65 -65.75 -319.75 -68.0 -318.5 -69.9 -319.4 -69.75 -328.0 -68.25 -340.5 -67.9 -346.4 -68.65 -348.0 -68.5 -353.15 -68.0 -353.65 -67.15 -353.75 -66.9 -359.15 -62.15 -359.75 -61.0 -361.15 -60.25 Q-361.15 -64.25 -359.25 -65.75 L-358.65 -70.15 -358.4 -70.5 -357.25 -73.65 -356.15 -76.25 Q-356.25 -77.25 -351.75 -80.15 L-342.75 -86.0 -332.25 -93.15 -331.4 -95.9 -329.65 -101.75 -324.9 -102.5 Q-323.5 -102.4 -320.9 -108.4 L-319.0 -111.65 -318.5 -111.4 -317.15 -109.0 -317.25 -109.0 -317.65 -108.9 -318.0 -106.9 -317.5 -97.5 -308.75 -100.0" fill="url(#gradient33)" fill-rule="evenodd" stroke="none"/>
    <path d="M-187.15 -122.65 L-169.15 -120.15 -155.65 -118.75 -138.15 -118.4 -141.9 -103.4 -157.0 -104.15 -165.65 -105.0 -188.4 -108.4 -187.15 -122.65 M-161.65 -111.65 L-163.0 -117.15 -163.4 -117.25 -165.9 -112.0 -161.65 -111.65 M-152.25 -116.75 L-153.9 -116.75 -155.25 -111.15 -144.5 -111.0 -144.4 -111.4 -152.25 -116.75" fill="url(#gradient34)" fill-rule="evenodd" stroke="none"/>
    <path d="M-202.65 -0.9 L-203.15 -0.9 -202.65 -8.15 -204.0 -20.75 -205.9 -15.4 -206.25 -15.15 -206.4 -19.15 -208.4 -0.9 -208.9 -0.9 -206.25 -24.5 -206.15 -22.25 -206.15 -25.65 -206.0 -41.25 -207.9 -59.15 -206.15 -76.15 -200.9 -90.75 -201.4 -112.4 -188.4 -108.4 -191.4 -95.15 -194.15 -78.15 -196.4 -54.75 -202.65 -0.9" fill="url(#gradient35)" fill-rule="evenodd" stroke="none"/>
    <path d="M-131.4 -118.25 L-141.9 -103.4 -138.15 -118.4 -131.4 -118.25" fill="url(#gradient36)" fill-rule="evenodd" stroke="none"/>
    <path d="M-141.9 -103.4 L-139.9 -88.15 -144.15 -48.9 -151.25 -0.9 -194.25 -0.9 -195.4 -4.0 -199.4 -7.5 Q-200.4 -6.15 -200.9 -2.9 L-201.0 -0.9 -202.65 -0.9 -196.4 -54.75 -194.15 -78.15 -191.4 -95.15 -188.4 -108.4 -165.65 -105.0 -157.0 -104.15 -141.9 -103.4" fill="url(#gradient37)" fill-rule="evenodd" stroke="none"/>
    <path d="M-194.25 -0.9 L-201.0 -0.9 -200.9 -2.9 Q-200.4 -6.15 -199.4 -7.5 L-195.4 -4.0 -194.25 -0.9 M-203.15 -0.9 L-208.4 -0.9 -206.4 -19.15 -206.25 -15.15 -205.9 -15.4 -204.0 -20.75 -202.65 -8.15 -203.15 -0.9" fill="url(#gradient38)" fill-rule="evenodd" stroke="none"/>
    <path d="M-139.9 -88.15 L-138.5 -61.0 -138.25 -40.75 -148.9 -4.0 -149.25 -0.9 -151.25 -0.9 -144.15 -48.9 -139.9 -88.15" fill="url(#gradient39)" fill-rule="evenodd" stroke="none"/>
    <path d="M-338.65 -56.75 L-339.15 -56.0 -339.4 -56.15 -338.75 -57.4 -339.15 -57.9 -338.0 -57.9 -338.65 -56.75 M-373.9 -62.4 Q-375.75 -69.65 -372.65 -75.15 -368.0 -82.75 -359.0 -84.5 L-358.9 -83.9 -360.0 -82.0 -363.9 -75.75 -367.0 -69.25 -367.25 -64.0 -365.15 -59.65 -361.65 -57.4 -365.5 -52.9 -368.75 -55.15 -372.0 -58.9 -372.15 -59.15 -372.9 -60.4 -373.65 -62.25 -373.9 -62.4 M-358.9 -50.4 L-362.15 -51.4 Q-358.25 -53.5 -355.9 -53.65 L-358.9 -50.4" fill="url(#gradient40)" fill-rule="evenodd" stroke="none"/>
    <path d="M-357.25 -73.65 L-358.4 -70.5 -358.65 -70.15 -359.25 -65.75 Q-361.15 -64.25 -361.15 -60.25 L-358.9 -60.65 -361.65 -57.4 -365.15 -59.65 -367.25 -64.0 -367.0 -69.25 -363.9 -75.75 -360.0 -82.0 -358.9 -83.9 -358.25 -81.9 -358.25 -80.5 -358.5 -75.65 -357.25 -73.65 M-372.15 -59.15 L-372.0 -58.9 -368.75 -55.15 -365.5 -52.9 -365.9 -52.25 -367.4 -52.25 -370.9 -54.15 -372.4 -57.5 -372.25 -58.0 -372.15 -59.15" fill="url(#gradient41)" fill-rule="evenodd" stroke="none"/>
    <path d="M-368.25 -47.25 L-370.4 -47.15 Q-376.4 -52.0 -377.5 -51.65 L-377.9 -52.25 -377.9 -53.75 -370.5 -49.0 -369.4 -48.75 Q-369.05 -48.85 -368.75 -49.0 L-368.25 -49.5 -366.75 -51.25 -365.9 -52.25 -365.5 -52.9 -361.65 -57.4 -358.9 -60.65 -357.5 -61.65 -353.75 -66.9 -353.65 -67.15 -353.15 -68.0 -350.25 -67.9 -343.5 -63.9 -343.65 -62.25 -348.9 -65.15 -350.0 -65.75 -352.0 -66.15 -352.75 -65.0 -353.65 -64.0 -368.25 -47.25" fill="url(#gradient42)" fill-rule="evenodd" stroke="none"/>
    <path d="M-361.15 -60.25 L-359.75 -61.0 -359.15 -62.15 -353.75 -66.9 -357.5 -61.65 -358.9 -60.65 -361.15 -60.25" fill="url(#gradient43)" fill-rule="evenodd" stroke="none"/>
    <path d="M-303.75 -79.75 L-300.9 -79.65 -303.9 -78.9 -303.75 -79.75 M-353.15 -68.0 L-348.0 -68.5 -350.25 -67.9 -353.15 -68.0" fill="url(#gradient44)" fill-rule="evenodd" stroke="none"/>
    <path d="M-300.9 -79.65 L-300.25 -79.65 -293.25 -76.0 -315.25 -70.75 -308.9 -73.0 -304.0 -76.65 -303.9 -78.9 -300.9 -79.65 M-348.0 -68.5 L-346.4 -68.65 -340.5 -67.9 -328.0 -68.25 -319.4 -69.75 -343.5 -63.9 -350.25 -67.9 -348.0 -68.5" fill="url(#gradient45)" fill-rule="evenodd" stroke="none"/>
    <path d="M-293.25 -76.0 L-293.25 -74.5 -309.4 -70.5 -315.25 -69.15 -316.25 -70.5 -315.25 -70.75 -293.25 -76.0 M-319.4 -69.75 L-318.5 -69.9 -319.75 -68.0 -328.65 -65.75 -329.0 -65.75 -335.75 -64.0 -343.65 -62.25 -343.5 -63.9 -319.4 -69.75" fill="url(#gradient46)" fill-rule="evenodd" stroke="none"/>
    <path d="M-316.25 -68.0 L-320.15 -60.0 -320.65 -59.5 -322.65 -58.9 -325.0 -59.25 -327.15 -62.9 -328.5 -64.9 -328.65 -64.9 -329.0 -65.75 -328.65 -65.75 -316.25 -68.0" fill="url(#gradient47)" fill-rule="evenodd" stroke="none"/>
    <path d="M-356.15 -76.25 L-357.25 -73.65 -358.5 -75.65 -358.25 -80.5 -357.9 -80.4 -356.15 -76.25" fill="url(#gradient48)" fill-rule="evenodd" stroke="none"/>
    <path d="M-352.75 -65.0 L-352.0 -66.15 -350.0 -65.75 -352.75 -65.0" fill="url(#gradient49)" fill-rule="evenodd" stroke="none"/>
    <path d="M-352.75 -65.0 L-350.0 -65.75 -348.9 -65.15 -353.65 -64.0 -352.75 -65.0" fill="url(#gradient50)" fill-rule="evenodd" stroke="none"/>
    <path d="M-327.15 -62.9 L-338.65 -56.75 -338.0 -57.9 -339.15 -57.9 -338.75 -57.4 -339.4 -56.15 -340.0 -55.9 -341.65 -56.25 -343.25 -55.75 -340.5 -55.65 -344.65 -53.25 -368.25 -47.25 -353.65 -64.0 -348.9 -65.15 -343.65 -62.25 -335.75 -64.0 -333.0 -64.0 -328.65 -64.9 -328.5 -64.9 -327.15 -62.9 M-353.75 -53.0 L-353.25 -52.9 -348.25 -54.25 -353.75 -53.0 M-358.9 -50.4 L-355.9 -53.65 Q-358.25 -53.5 -362.15 -51.4 L-358.9 -50.4" fill="url(#gradient51)" fill-rule="evenodd" stroke="none"/>
    <path d="M-340.0 -55.9 L-339.9 -55.65 -340.5 -55.65 -343.25 -55.75 -341.65 -56.25 -340.0 -55.9 M-353.75 -53.0 L-348.25 -54.25 -353.25 -52.9 -353.75 -53.0" fill="url(#gradient52)" fill-rule="evenodd" stroke="none"/>
    <path d="M-373.15 -55.0 L-374.5 -59.5 -373.9 -62.4 -373.65 -62.25 -372.9 -60.4 -372.15 -59.15 -372.25 -58.0 -372.4 -57.5 -370.9 -54.15 -367.4 -52.25 -365.9 -52.25 -366.75 -51.25 Q-370.9 -51.0 -373.15 -55.0" fill="url(#gradient53)" fill-rule="evenodd" stroke="none"/>
    <path d="M-377.9 -53.75 L-373.15 -55.0 Q-370.9 -51.0 -366.75 -51.25 L-368.25 -49.5 -370.5 -49.0 -377.9 -53.75" fill="url(#gradient54)" fill-rule="evenodd" stroke="none"/>
    <path d="M-320.15 -60.0 L-318.9 -31.9 -318.75 -31.65 -319.4 -31.4 -320.9 -31.15 -324.0 -31.5 -323.75 -33.5 -325.0 -59.25 -322.65 -58.9 -320.65 -59.5 -320.15 -60.0" fill="url(#gradient55)" fill-rule="evenodd" stroke="none"/>
    <path d="M-318.9 -31.9 L-318.0 -31.4 -318.0 -30.5 -320.5 -29.4 -324.15 -29.5 -325.0 -30.15 -325.0 -30.75 -324.0 -31.5 -320.9 -31.15 -319.4 -31.4 -318.75 -31.65 -318.9 -31.9" fill="url(#gradient56)" fill-rule="evenodd" stroke="none"/>
    <path d="M-368.25 -49.5 L-368.75 -49.0 Q-369.05 -48.85 -369.4 -48.75 L-370.5 -49.0 -368.25 -49.5" fill="url(#gradient57)" fill-rule="evenodd" stroke="none"/>
    <path d="M-206.25 -24.5 L-206.15 -25.65 -206.15 -22.25 -206.25 -24.5" fill="url(#gradient58)" fill-rule="evenodd" stroke="none"/>
    <path d="M-351.0 -219.75 L-348.65 -237.5 -347.25 -241.75 -347.25 -241.9 -347.15 -242.15 -346.25 -252.0 -346.25 -252.4 -346.0 -254.9 -342.75 -265.9 -342.65 -266.5 -318.25 -290.4 -314.15 -298.15 -314.15 -298.4 -314.0 -298.5 -313.9 -298.75 -313.9 -298.9 -313.75 -299.15 -313.4 -300.0 -310.25 -300.0 -320.65 -280.4 -321.65 -278.0 -321.75 -277.65 -326.25 -269.15 -327.15 -267.75 -332.15 -258.25 -332.25 -257.75 -336.5 -249.9 -337.65 -247.25 -339.5 -244.15 -339.65 -243.4 -340.0 -243.25 -340.0 -242.9 -343.75 -236.0 -343.9 -235.9 -344.0 -235.65 -344.0 -235.0 -346.15 -231.4 -346.4 -230.5 -348.5 -226.25 -348.75 -224.75 -349.25 -224.15 -349.5 -222.75 -351.0 -219.75" fill="#e20000" fill-opacity="0.9098039" fill-rule="evenodd" stroke="none"/>
    <path d="M-313.4 -300.0 L-313.75 -299.15 -313.9 -298.9 -313.9 -298.75 -314.0 -298.5 -314.15 -298.4 -314.15 -298.15 -318.25 -290.4 -342.65 -266.5 -342.75 -265.9 -346.0 -254.9 -346.25 -252.4 -346.25 -252.0 -347.15 -242.15 -347.25 -241.9 -347.25 -241.75 -348.65 -237.5 -351.0 -219.75 -351.15 -218.75 -351.4 -217.9 -361.5 -191.75 -364.25 -157.4 -366.5 -119.15 -366.4 -110.5 -389.65 -115.65 -400.0 -118.9 -400.0 -250.25 -398.4 -254.75 -335.65 -299.65 -335.0 -300.0 -313.4 -300.0" fill="#f40000" fill-rule="evenodd" stroke="none"/>
    <path d="M-400.0 -118.9 L-389.65 -115.65 -366.4 -110.5 -366.25 -93.0 -399.9 -112.75 -400.0 -118.9" fill="#f90000" fill-opacity="0.9098039" fill-rule="evenodd" stroke="none"/>
    <path d="M-149.25 -0.9 L-193.4 -0.9 -194.4 -1.25 -194.5 -1.5 -200.65 -3.9 -201.15 -4.0 -201.25 -4.25 -202.25 -4.5 -205.65 -5.9 -206.5 -6.0 -207.0 -6.15 -208.0 -6.15 -208.25 -6.25 -208.25 -6.5 -208.15 -6.9 -206.15 -25.65 -206.15 -33.5 -206.0 -40.65 -207.75 -57.25 -207.75 -57.4 -207.9 -57.65 -207.9 -58.4 -206.15 -74.0 -206.25 -74.5 -206.25 -74.9 -206.0 -75.65 -206.15 -76.15 -203.65 -83.15 -203.65 -83.25 -203.5 -83.5 -203.4 -83.9 -203.25 -84.25 -203.15 -84.65 -203.0 -85.0 -202.9 -85.4 -202.9 -85.5 -200.9 -90.75 -201.5 -112.25 -200.75 -128.15 -201.4 -154.5 -195.0 -211.9 -195.0 -212.15 -192.4 -236.75 -192.4 -237.5 -190.75 -253.4 -190.15 -258.9 -189.9 -258.9 -164.5 -256.65 -141.15 -252.75 -139.75 -252.65 -139.65 -252.5 -110.15 -247.9 -109.0 -246.75 -108.9 -246.4 -108.9 -246.0 -110.25 -216.15 -110.15 -214.65 -114.15 -182.25 -114.15 -180.9 -121.4 -146.25 -121.65 -144.15 -131.4 -118.25 -142.0 -103.5 -140.15 -88.5 -140.0 -88.25 -140.0 -86.15 -139.9 -86.15 -138.75 -62.25 -138.4 -40.15 -144.75 -18.5 -148.65 -5.4 -149.0 -3.75 -148.9 -3.4 -149.25 -0.9 M-330.75 -61.15 L-330.15 -64.65 -330.15 -65.4 -329.9 -65.9 -329.65 -67.15 -329.65 -68.25 -329.4 -68.65 -329.15 -70.0 -329.25 -70.25 -328.75 -72.65 -328.65 -73.0 -328.65 -73.15 -328.4 -73.25 -328.25 -75.9 -328.0 -76.5 -328.0 -77.0 -327.75 -77.5 -327.4 -79.75 -327.5 -80.0 -327.25 -80.65 -327.25 -81.5 -327.0 -81.9 -326.15 -85.9 -326.15 -86.5 -325.65 -89.75 -325.5 -90.25 -325.65 -90.5 -325.4 -91.0 -324.9 -94.0 -323.5 -101.15 -323.65 -101.9 -323.25 -103.25 -323.4 -103.65 -323.0 -104.75 -323.15 -105.25 -323.0 -105.9 -323.15 -106.5 -322.65 -111.15 -322.5 -111.25 -321.15 -124.9 -321.25 -126.25 -318.9 -148.0 -319.15 -148.9 -318.25 -156.65 -317.4 -169.9 -317.5 -170.75 -316.25 -191.25 -316.5 -192.0 -315.65 -206.0 -315.75 -206.4 -314.9 -220.9 -313.65 -229.75 -313.9 -230.25 -313.5 -230.9 -312.9 -235.15 -313.0 -236.15 -308.75 -266.25 -308.9 -266.9 -308.65 -267.25 -304.4 -299.5 -304.65 -299.9 -304.65 -300.0 -285.9 -300.0 -281.5 -295.9 -259.0 -276.65 -258.65 -276.25 -246.75 -266.15 -242.25 -265.65 -241.75 -265.65 -278.9 -231.25 -279.25 -231.15 -279.4 -230.9 -289.65 -221.5 -290.4 -220.65 Q-295.75 -217.5 -301.15 -214.4 L-301.0 -214.15 -301.25 -211.65 -299.25 -199.4 -299.25 -199.15 -299.15 -198.75 -298.9 -196.5 -298.75 -196.25 -298.4 -194.5 -297.75 -180.75 -297.9 -180.0 -297.75 -179.75 -297.25 -163.65 -297.4 -163.15 -297.25 -163.0 -297.25 -161.65 -301.25 -147.65 -301.25 -147.5 -305.4 -132.25 -305.4 -131.75 -306.65 -118.25 -304.5 -117.15 -304.5 -111.25 -304.4 -111.25 -304.4 -111.15 -303.9 -103.25 -307.75 -100.75 -308.25 -100.5 -308.25 -100.4 -308.75 -100.0 -308.5 -98.4 -304.9 -95.15 -304.9 -94.75 -304.75 -94.75 -304.75 -94.15 -304.65 -94.15 -304.65 -93.5 -304.4 -91.9 -304.0 -83.65 -304.0 -80.4 -303.75 -79.75 -301.0 -79.5 -300.25 -79.65 -293.25 -76.0 -293.25 -74.5 -299.75 -72.9 -312.65 -69.4 -312.9 -69.25 -316.25 -68.0 -318.0 -64.65 -317.9 -64.4 -319.9 -60.75 -320.4 -60.0 -320.0 -57.15 -319.9 -52.65 -319.75 -52.5 -319.75 -50.75 -319.65 -50.75 -319.65 -47.65 -319.5 -46.5 -319.5 -44.15 -319.4 -43.65 -319.4 -40.65 -319.25 -40.65 -319.15 -35.5 -319.0 -34.9 -318.9 -31.9 -318.4 -31.4 -318.25 -31.4 -318.0 -30.75 -318.65 -30.15 -320.9 -29.4 -322.4 -29.25 -323.75 -29.5 -324.5 -29.75 -325.0 -30.4 -325.0 -30.5 -324.65 -31.0 -324.25 -31.4 -324.0 -31.5 -323.75 -31.9 -324.0 -39.0 -324.25 -40.4 -324.15 -42.0 -324.5 -50.4 -324.65 -51.65 -324.9 -58.75 -325.0 -59.15 -325.65 -60.4 -325.75 -60.5 -326.0 -60.9 -326.0 -61.0 -326.15 -61.15 -326.25 -61.4 -326.4 -61.5 -326.5 -61.75 -326.75 -62.15 -326.75 -62.4 -327.15 -62.9 -330.75 -61.15" fill="#ad0000" fill-opacity="0.9098039" fill-rule="evenodd" stroke="none"/>
    <path d="M-285.9 -300.0 L-280.4 -300.0 -280.75 -299.15 -281.5 -295.9 -285.9 -300.0" fill="#e80000" fill-opacity="0.9098039" fill-rule="evenodd" stroke="none"/>
    <path d="M-110.5 -196.9 L-110.4 -196.5 -110.65 -196.4 -110.5 -196.9 M-110.65 -196.0 L-110.5 -193.9 -118.5 -134.75 -118.5 -138.75 -110.65 -196.0 M-280.4 -300.0 L-200.25 -300.0 -198.75 -299.9 -128.75 -300.0 -132.65 -285.0 -133.0 -284.25 -132.9 -284.0 -133.5 -282.5 -134.15 -280.15 -134.15 -280.0 -134.75 -276.5 -139.5 -259.5 -139.4 -259.25 -140.4 -255.0 -141.15 -252.75 -164.5 -256.65 -189.9 -258.9 -190.15 -258.9 -190.25 -259.0 -190.0 -259.4 -190.5 -261.15 -190.65 -261.5 -199.15 -274.0 -199.5 -274.65 -213.4 -276.0 -214.15 -276.4 -222.4 -279.4 -227.0 -279.25 -235.15 -271.75 -235.5 -271.4 -236.15 -271.0 -236.75 -270.25 -237.75 -269.5 -237.9 -269.25 -241.75 -265.65 -242.25 -265.65 -246.75 -266.15 -258.65 -276.25 -259.0 -276.65 -281.5 -295.9 -280.75 -299.15 -280.4 -300.0" fill="#bb0000" fill-opacity="0.9098039" fill-rule="evenodd" stroke="none"/>
    <path d="M-128.75 -300.0 L-122.75 -300.0 -129.15 -283.4 -130.25 -281.15 -130.15 -280.9 -135.0 -268.25 -135.4 -268.0 -135.5 -267.5 -135.5 -266.65 -138.9 -259.0 -139.0 -258.9 -138.9 -258.5 -139.0 -258.5 -139.4 -256.9 -140.4 -255.0 -139.4 -259.25 -139.5 -259.5 -134.75 -276.5 -134.15 -280.0 -134.15 -280.15 -133.5 -282.5 -132.9 -284.0 -133.0 -284.25 -132.65 -285.0 -128.75 -300.0" fill="#9b0000" fill-opacity="0.9098039" fill-rule="evenodd" stroke="none"/>
    <path d="M-122.75 -300.0 L-111.75 -300.0 -110.9 -289.25 -107.75 -272.0 -107.5 -271.65 -109.0 -246.75 -110.15 -247.9 -139.65 -252.5 -139.75 -252.65 -141.15 -252.75 -140.4 -255.0 -139.4 -256.9 -139.0 -258.5 -138.9 -258.5 -139.0 -258.9 -138.9 -259.0 -135.5 -266.65 -135.5 -267.5 -135.4 -268.0 -135.0 -268.25 -130.15 -280.9 -130.25 -281.15 -129.15 -283.4 -122.75 -300.0" fill="#b80000" fill-opacity="0.9098039" fill-rule="evenodd" stroke="none"/>
    <path d="M-111.75 -300.0 L-102.4 -300.0 -102.4 -299.5 -108.25 -246.15 -108.9 -246.4 -109.0 -246.75 -107.5 -271.65 -107.75 -272.0 -110.9 -289.25 -111.75 -300.0" fill="#ce0000" fill-rule="evenodd" stroke="none"/>
    <path d="M-108.25 -246.15 L-108.15 -245.9 -108.9 -246.0 -108.9 -246.4 -108.25 -246.15" fill="#c30000" fill-rule="evenodd" stroke="none"/>
    <path d="M-119.0 -128.75 L-118.9 -126.75 -120.5 -81.65 -120.0 -31.5 -115.9 -8.4 -138.75 -6.15 -148.15 -0.9 -149.25 -0.9 -148.9 -3.4 -149.0 -3.75 -148.65 -5.4 -144.75 -18.5 -125.9 -9.15 -132.4 -43.65 -124.4 -90.5 -119.0 -128.75 M-208.25 -6.25 L-228.4 -8.4 -251.9 -4.0 -297.9 -8.9 -345.15 -27.65 -345.25 -28.0 -332.9 -50.15 -330.9 -60.9 -330.75 -61.15 -327.15 -62.9 -326.75 -62.4 -326.75 -62.15 -326.5 -61.75 -326.4 -61.5 -326.25 -61.4 -326.15 -61.15 -326.0 -61.0 -326.0 -60.9 -325.75 -60.5 -325.65 -60.4 -325.0 -59.15 -324.9 -58.75 -324.65 -51.65 -324.5 -50.4 -324.15 -42.0 -324.25 -40.4 -324.0 -39.0 -323.75 -31.9 -324.0 -31.5 -324.25 -31.4 -324.65 -31.0 -325.0 -30.5 -325.0 -30.4 -324.5 -29.75 -323.75 -29.5 -322.4 -29.25 -320.9 -29.4 -318.65 -30.15 -318.0 -30.75 -318.25 -31.4 -318.4 -31.4 -318.9 -31.9 -319.0 -34.9 -319.15 -35.5 -319.25 -40.65 -319.4 -40.65 -319.4 -43.65 -319.5 -44.15 -319.5 -46.5 -319.65 -47.65 -319.65 -50.75 -319.75 -50.75 -319.75 -52.5 -319.9 -52.65 -320.0 -57.15 -320.4 -60.0 -319.9 -60.75 -317.9 -64.4 -318.0 -64.65 -316.25 -68.0 -312.9 -69.25 -312.65 -69.4 -299.75 -72.9 -273.5 -69.75 -278.75 -99.9 -277.15 -137.9 -266.5 -196.65 -251.15 -230.4 -221.9 -258.75 -221.75 -258.0 -225.5 -206.65 -237.0 -153.65 -245.4 -104.75 -257.4 -62.0 -272.65 -20.4 -272.0 -20.15 -230.25 -31.0 -206.15 -33.5 -206.15 -25.65 -208.15 -6.9 -208.25 -6.5 -208.25 -6.25" fill="#bf0000" fill-opacity="0.9098039" fill-rule="evenodd" stroke="none"/>
    <path d="M-227.25 -264.15 L-227.0 -264.0 -221.9 -258.75 -251.15 -230.4 -266.5 -196.65 -277.15 -137.9 -278.75 -99.9 -273.5 -69.75 -299.75 -72.9 -293.25 -74.5 -293.25 -76.0 -300.25 -79.65 -301.0 -79.5 -303.75 -79.75 -304.0 -80.4 -304.0 -83.65 -304.4 -91.9 -304.65 -93.5 -304.65 -94.15 -304.75 -94.15 -304.75 -94.75 -304.9 -94.75 -304.9 -95.15 -308.5 -98.4 -308.75 -100.0 -308.25 -100.4 -308.25 -100.5 -307.75 -100.75 -303.9 -103.25 -304.4 -111.15 -304.4 -111.25 -304.5 -111.25 -304.5 -117.15 -306.65 -118.25 -305.4 -131.75 -305.4 -132.25 -301.25 -147.5 -301.25 -147.65 -297.25 -161.65 -297.25 -163.0 -297.4 -163.15 -297.25 -163.65 -297.75 -179.75 -297.9 -180.0 -297.75 -180.75 -298.4 -194.5 -298.75 -196.25 -298.9 -196.5 -299.15 -198.75 -299.25 -199.15 -299.25 -199.4 -301.25 -211.65 -301.0 -214.15 -301.15 -214.4 Q-295.75 -217.5 -290.4 -220.65 L-289.65 -221.5 -279.4 -230.9 -279.25 -231.15 -278.9 -231.25 -241.75 -265.65 -227.25 -264.15" fill="#bf0000" fill-rule="evenodd" stroke="none"/>
    <path d="M-235.15 -271.75 L-227.0 -279.25 -222.4 -279.4 -214.15 -276.4 -213.4 -276.0 -199.5 -274.65 -199.15 -274.0 -190.65 -261.5 -190.5 -261.15 -190.0 -259.4 -190.25 -259.0 -227.0 -264.0 -227.25 -264.15 -235.15 -271.75" fill="#cb0000" fill-rule="evenodd" stroke="none"/>
    <path d="M-190.15 -258.9 L-190.75 -253.4 -200.25 -254.5 -221.9 -258.75 -227.0 -264.0 -190.25 -259.0 -190.15 -258.9" fill="#bd0000" fill-rule="evenodd" stroke="none"/>
    <path d="M-227.25 -264.15 L-241.75 -265.65 -237.9 -269.25 -237.75 -269.5 -236.75 -270.25 -236.15 -271.0 -235.5 -271.4 -235.15 -271.75 -227.25 -264.15" fill="#cd0000" fill-rule="evenodd" stroke="none"/>
    <path d="M-108.15 -245.9 L-110.5 -196.9 -110.65 -196.4 -110.65 -196.0 -118.5 -138.75 -118.5 -134.75 -119.0 -128.75 -124.4 -90.5 -132.4 -43.65 -125.9 -9.15 -144.75 -18.5 -138.4 -40.15 -138.75 -62.25 -139.9 -86.15 -140.0 -86.15 -140.0 -88.25 -140.15 -88.5 -142.0 -103.5 -131.4 -118.25 -121.65 -144.15 -121.4 -146.25 -114.15 -180.9 -114.15 -182.25 -110.15 -214.65 -110.25 -216.15 -108.9 -246.0 -108.15 -245.9 M-190.75 -253.4 L-192.4 -237.5 -192.4 -236.75 -195.0 -212.15 -195.0 -211.9 -201.4 -154.5 -200.75 -128.15 -201.5 -112.25 -200.9 -90.75 -202.9 -85.5 -202.9 -85.4 -203.0 -85.0 -203.15 -84.65 -203.25 -84.25 -203.4 -83.9 -203.5 -83.5 -203.65 -83.25 -203.65 -83.15 -206.15 -76.15 -206.0 -75.65 -206.25 -74.9 -206.25 -74.5 -206.15 -74.0 -207.9 -58.4 -207.9 -57.65 -207.75 -57.4 -207.75 -57.25 -206.0 -40.65 -206.15 -33.5 -230.25 -31.0 -272.0 -20.15 -272.65 -20.4 -257.4 -62.0 -245.4 -104.75 -237.0 -153.65 -225.5 -206.65 -221.75 -258.0 -221.9 -258.75 -200.25 -254.5 -190.75 -253.4" fill="#be0000" fill-rule="evenodd" stroke="none"/>
    <path d="M-366.4 -110.5 L-366.5 -119.15 -364.25 -157.4 -361.5 -191.75 -351.4 -217.9 -354.5 -193.25 -354.65 -193.15 -354.65 -192.9 -356.0 -179.4 -355.65 -175.9 -355.5 -175.5 -355.5 -175.15 -354.25 -164.0 -354.0 -138.0 -353.9 -137.5 -353.9 -137.0 -354.0 -136.15 -354.0 -135.65 -354.15 -134.75 -354.15 -134.4 -354.4 -132.15 -354.4 -131.9 -354.75 -129.25 -354.9 -129.0 -354.9 -128.0 -355.0 -127.5 -355.0 -126.75 -355.15 -126.0 -356.0 -118.5 -361.5 -115.75 -362.5 -112.75 -362.4 -109.65 -366.4 -110.5" fill="#ca0000" fill-opacity="0.9098039" fill-rule="evenodd" stroke="none"/>
  </g>
  <defs>
    <radialGradient cx="0" cy="0" gradientTransform="matrix(0.0758, 0.0, 0.0, 0.0758, -285.1, -280.3)" gradientUnits="userSpaceOnUse" id="gradient0" r="819.2" spreadMethod="pad">
      <stop offset="0.0" stop-color="#7f7f7f"/>
      <stop offset="1.0" stop-color="#000000"/>
    </radialGradient>
    <radialGradient cx="0" cy="0" gradientTransform="matrix(0.0476, 0.0, 0.0, 0.0476, -285.55, -286.75)" gradientUnits="userSpaceOnUse" id="gradient1" r="819.2" spreadMethod="pad">
      <stop offset="0.0" stop-color="#737373"/>
      <stop offset="1.0" stop-color="#000000"/>
    </radialGradient>
    <radialGradient cx="0" cy="0" gradientTransform="matrix(0.0133, 0.0, 0.0, 0.0133, -256.3, -298.05)" gradientUnits="userSpaceOnUse" id="gradient2" r="819.2" spreadMethod="pad">
      <stop offset="0.0" stop-color="#000000"/>
      <stop offset="1.0" stop-color="#000000"/>
    </radialGradient>
    <radialGradient cx="0" cy="0" gradientTransform="matrix(0.0145, 0.0, 0.0, 0.0145, -250.2, -300.0)" gradientUnits="userSpaceOnUse" id="gradient3" r="819.2" spreadMethod="pad">
      <stop offset="0.0" stop-color="#161616"/>
      <stop offset="1.0" stop-color="#0b0b0b"/>
    </radialGradient>
    <radialGradient cx="0" cy="0" gradientTransform="matrix(0.0692, 0.0, 0.0, 0.0692, -199.5, -274.65)" gradientUnits="userSpaceOnUse" id="gradient4" r="819.2" spreadMethod="pad">
      <stop offset="0.0" stop-color="#494949"/>
      <stop offset="1.0" stop-color="#070707"/>
    </radialGradient>
    <radialGradient cx="0" cy="0" gradientTransform="matrix(0.0595, 0.0, 0.0, 0.0595, -194.55, -300.0)" gradientUnits="userSpaceOnUse" id="gradient5" r="819.2" spreadMethod="pad">
      <stop offset="0.0" stop-color="#000000"/>
      <stop offset="1.0" stop-color="#000000"/>
    </radialGradient>
    <radialGradient cx="0" cy="0" gradientTransform="matrix(0.0591, 0.0, 0.0, 0.0591, -107.65, -271.85)" gradientUnits="userSpaceOnUse" id="gradient6" r="819.2" spreadMethod="pad">
      <stop offset="0.0" stop-color="#0f0f0f"/>
      <stop offset="1.0" stop-color="#000000"/>
    </radialGradient>
    <radialGradient cx="0" cy="0" gradientTransform="matrix(0.0099, 0.0, 0.0, 0.0099, -145.8, -300.0)" gradientUnits="userSpaceOnUse" id="gradient7" r="819.2" spreadMethod="pad">
      <stop offset="0.0" stop-color="#000000"/>
      <stop offset="1.0" stop-color="#000000"/>
    </radialGradient>
    <radialGradient cx="0" cy="0" gradientTransform="matrix(0.1624, 0.0, 0.0, 0.1624, -108.95, -248.25)" gradientUnits="userSpaceOnUse" id="gradient8" r="819.2" spreadMethod="pad">
      <stop offset="0.0" stop-color="#040404"/>
      <stop offset="1.0" stop-color="#000000"/>
    </radialGradient>
    <radialGradient cx="0" cy="0" gradientTransform="matrix(0.1413, 0.0, 0.0, 0.1413, -156.4, -232.75)" gradientUnits="userSpaceOnUse" id="gradient9" r="819.2" spreadMethod="pad">
      <stop offset="0.0" stop-color="#494949"/>
      <stop offset="1.0" stop-color="#000000"/>
    </radialGradient>
    <radialGradient cx="0" cy="0" gradientTransform="matrix(0.2309, 0.0, 0.0, 0.2309, -154.25, -300.0)" gradientUnits="userSpaceOnUse" id="gradient10" r="819.2" spreadMethod="pad">
      <stop offset="0.0" stop-color="#656565"/>
      <stop offset="1.0" stop-color="#000000"/>
    </radialGradient>
    <radialGradient cx="0" cy="0" gradientTransform="matrix(0.1096, 0.0, 0.0, 0.1096, -285.1, -280.3)" gradientUnits="userSpaceOnUse" id="gradient11" r="819.2" spreadMethod="pad">
      <stop offset="0.0" stop-color="#7f7f7f"/>
      <stop offset="1.0" stop-color="#2d2d2d"/>
    </radialGradient>
    <radialGradient cx="0" cy="0" gradientTransform="matrix(0.1541, 0.0, 0.0, 0.1541, -334.75, -213.6)" gradientUnits="userSpaceOnUse" id="gradient12" r="819.2" spreadMethod="pad">
      <stop offset="0.0" stop-color="#565656"/>
      <stop offset="1.0" stop-color="#000000"/>
    </radialGradient>
    <radialGradient cx="0" cy="0" gradientTransform="matrix(0.144, 0.0, 0.0, 0.144, -329.95, -222.65)" gradientUnits="userSpaceOnUse" id="gradient13" r="819.2" spreadMethod="pad">
      <stop offset="0.0" stop-color="#292929"/>
      <stop offset="1.0" stop-color="#000000"/>
    </radialGradient>
    <radialGradient cx="0" cy="0" gradientTransform="matrix(0.1873, 0.0, 0.0, 0.1873, -298.7, -240.0)" gradientUnits="userSpaceOnUse" id="gradient14" r="819.2" spreadMethod="pad">
      <stop offset="0.0" stop-color="#363636"/>
      <stop offset="1.0" stop-color="#000000"/>
    </radialGradient>
    <radialGradient cx="0" cy="0" gradientTransform="matrix(0.1134, 0.0, 0.0, 0.1134, -354.3, -164.8)" gradientUnits="userSpaceOnUse" id="gradient15" r="819.2" spreadMethod="pad">
      <stop offset="0.0" stop-color="#5e5e5e"/>
      <stop offset="1.0" stop-color="#060606"/>
    </radialGradient>
    <radialGradient cx="0" cy="0" gradientTransform="matrix(0.0385, 0.0, 0.0, 0.0385, -319.05, -287.4)" gradientUnits="userSpaceOnUse" id="gradient16" r="819.2" spreadMethod="pad">
      <stop offset="0.0" stop-color="#010101"/>
      <stop offset="1.0" stop-color="#000000"/>
    </radialGradient>
    <radialGradient cx="0" cy="0" gradientTransform="matrix(0.0522, 0.0, 0.0, 0.0522, -332.75, -261.95)" gradientUnits="userSpaceOnUse" id="gradient17" r="819.2" spreadMethod="pad">
      <stop offset="0.0" stop-color="#0e0e0e"/>
      <stop offset="1.0" stop-color="#010101"/>
    </radialGradient>
    <radialGradient cx="0" cy="0" gradientTransform="matrix(0.0564, 0.0, 0.0, 0.0564, -222.95, -281.25)" gradientUnits="userSpaceOnUse" id="gradient18" r="819.2" spreadMethod="pad">
      <stop offset="0.0" stop-color="#000000"/>
      <stop offset="1.0" stop-color="#000000"/>
    </radialGradient>
    <radialGradient cx="0" cy="0" gradientTransform="matrix(0.0172, 0.0, 0.0, 0.0172, -213.35, -276.1)" gradientUnits="userSpaceOnUse" id="gradient19" r="819.2" spreadMethod="pad">
      <stop offset="0.0" stop-color="#000000"/>
      <stop offset="1.0" stop-color="#000000"/>
    </radialGradient>
    <radialGradient cx="0" cy="0" gradientTransform="matrix(0.0141, 0.0, 0.0, 0.0141, -222.85, -279.7)" gradientUnits="userSpaceOnUse" id="gradient20" r="819.2" spreadMethod="pad">
      <stop offset="0.0" stop-color="#000000"/>
      <stop offset="1.0" stop-color="#000000"/>
    </radialGradient>
    <radialGradient cx="0" cy="0" gradientTransform="matrix(0.0269, 0.0, 0.0, 0.0269, -208.1, -283.95)" gradientUnits="userSpaceOnUse" id="gradient21" r="819.2" spreadMethod="pad">
      <stop offset="0.0" stop-color="#000000"/>
      <stop offset="1.0" stop-color="#000000"/>
    </radialGradient>
    <radialGradient cx="0" cy="0" gradientTransform="matrix(0.1683, 0.0, 0.0, 0.1683, -189.9, -260.65)" gradientUnits="userSpaceOnUse" id="gradient22" r="819.2" spreadMethod="pad">
      <stop offset="0.0" stop-color="#575757"/>
      <stop offset="1.0" stop-color="#414141"/>
    </radialGradient>
    <radialGradient cx="0" cy="0" gradientTransform="matrix(0.0287, 0.0, 0.0, 0.0287, -200.7, -128.55)" gradientUnits="userSpaceOnUse" id="gradient23" r="819.2" spreadMethod="pad">
      <stop offset="0.0" stop-color="#4d4d4d"/>
      <stop offset="1.0" stop-color="#2f2f2f"/>
    </radialGradient>
    <radialGradient cx="0" cy="0" gradientTransform="matrix(0.1618, 0.0, 0.0, 0.1618, -189.9, -260.65)" gradientUnits="userSpaceOnUse" id="gradient24" r="819.2" spreadMethod="pad">
      <stop offset="0.0" stop-color="#575757"/>
      <stop offset="1.0" stop-color="#474747"/>
    </radialGradient>
    <radialGradient cx="0" cy="0" gradientTransform="matrix(0.0198, 0.0, 0.0, 0.0198, -189.9, -260.65)" gradientUnits="userSpaceOnUse" id="gradient25" r="819.2" spreadMethod="pad">
      <stop offset="0.0" stop-color="#575757"/>
      <stop offset="1.0" stop-color="#020202"/>
    </radialGradient>
    <radialGradient cx="0" cy="0" gradientTransform="matrix(0.0207, 0.0, 0.0, 0.0207, -189.9, -260.65)" gradientUnits="userSpaceOnUse" id="gradient26" r="819.2" spreadMethod="pad">
      <stop offset="0.0" stop-color="#575757"/>
      <stop offset="1.0" stop-color="#494949"/>
    </radialGradient>
    <radialGradient cx="0" cy="0" gradientTransform="matrix(0.0609, 0.0, 0.0, 0.0609, -346.0, -255.25)" gradientUnits="userSpaceOnUse" id="gradient27" r="819.2" spreadMethod="pad">
      <stop offset="0.0" stop-color="#0f0f0f"/>
      <stop offset="1.0" stop-color="#090909"/>
    </radialGradient>
    <radialGradient cx="0" cy="0" gradientTransform="matrix(0.1367, 0.0, 0.0, 0.1367, -301.95, -216.9)" gradientUnits="userSpaceOnUse" id="gradient28" r="819.2" spreadMethod="pad">
      <stop offset="0.0" stop-color="#808080"/>
      <stop offset="1.0" stop-color="#040404"/>
    </radialGradient>
    <radialGradient cx="0" cy="0" gradientTransform="matrix(0.0709, 0.0, 0.0, 0.0709, -362.5, -112.95)" gradientUnits="userSpaceOnUse" id="gradient29" r="819.2" spreadMethod="pad">
      <stop offset="0.0" stop-color="#212121"/>
      <stop offset="1.0" stop-color="#212121"/>
    </radialGradient>
    <radialGradient cx="0" cy="0" gradientTransform="matrix(0.0578, 0.0, 0.0, 0.0578, -351.15, -108.2)" gradientUnits="userSpaceOnUse" id="gradient30" r="819.2" spreadMethod="pad">
      <stop offset="0.0" stop-color="#b5b5b5"/>
      <stop offset="1.0" stop-color="#545454"/>
    </radialGradient>
    <radialGradient cx="0" cy="0" gradientTransform="matrix(0.0346, 0.0, 0.0, 0.0346, -357.4, -86.85)" gradientUnits="userSpaceOnUse" id="gradient31" r="819.2" spreadMethod="pad">
      <stop offset="0.0" stop-color="#292929"/>
      <stop offset="1.0" stop-color="#040404"/>
    </radialGradient>
    <radialGradient cx="0" cy="0" gradientTransform="matrix(0.0412, 0.0, 0.0, 0.0412, -358.1, -80.6)" gradientUnits="userSpaceOnUse" id="gradient32" r="819.2" spreadMethod="pad">
      <stop offset="0.0" stop-color="#565656"/>
      <stop offset="1.0" stop-color="#000000"/>
    </radialGradient>
    <radialGradient cx="0" cy="0" gradientTransform="matrix(0.0604, 0.0, 0.0, 0.0604, -350.35, -77.25)" gradientUnits="userSpaceOnUse" id="gradient33" r="819.2" spreadMethod="pad">
      <stop offset="0.0" stop-color="#b6b6b6"/>
      <stop offset="1.0" stop-color="#333333"/>
    </radialGradient>
    <radialGradient cx="0" cy="0" gradientTransform="matrix(0.06, 0.0, 0.0, 0.06, -187.1, -122.8)" gradientUnits="userSpaceOnUse" id="gradient34" r="819.2" spreadMethod="pad">
      <stop offset="0.0" stop-color="#393939"/>
      <stop offset="1.0" stop-color="#000000"/>
    </radialGradient>
    <radialGradient cx="0" cy="0" gradientTransform="matrix(0.1365, 0.0, 0.0, 0.1365, -201.45, -112.6)" gradientUnits="userSpaceOnUse" id="gradient35" r="819.2" spreadMethod="pad">
      <stop offset="0.0" stop-color="#383838"/>
      <stop offset="1.0" stop-color="#020202"/>
    </radialGradient>
    <radialGradient cx="0" cy="0" gradientTransform="matrix(0.0223, 0.0, 0.0, 0.0223, -131.4, -118.4)" gradientUnits="userSpaceOnUse" id="gradient36" r="819.2" spreadMethod="pad">
      <stop offset="0.0" stop-color="#000000"/>
      <stop offset="1.0" stop-color="#000000"/>
    </radialGradient>
    <radialGradient cx="0" cy="0" gradientTransform="matrix(0.1388, 0.0, 0.0, 0.1388, -188.3, -108.55)" gradientUnits="userSpaceOnUse" id="gradient37" r="819.2" spreadMethod="pad">
      <stop offset="0.0" stop-color="#1c1c1c"/>
      <stop offset="1.0" stop-color="#000000"/>
    </radialGradient>
    <radialGradient cx="0" cy="0" gradientTransform="matrix(0.1326, 0.0, 0.0, 0.1326, -179.3, -105.7)" gradientUnits="userSpaceOnUse" id="gradient38" r="819.2" spreadMethod="pad">
      <stop offset="0.0" stop-color="#202020"/>
      <stop offset="1.0" stop-color="#010101"/>
    </radialGradient>
    <radialGradient cx="0" cy="0" gradientTransform="matrix(0.0981, 0.0, 0.0, 0.0981, -139.55, -80.5)" gradientUnits="userSpaceOnUse" id="gradient39" r="819.2" spreadMethod="pad">
      <stop offset="0.0" stop-color="#494949"/>
      <stop offset="1.0" stop-color="#000000"/>
    </radialGradient>
    <radialGradient cx="0" cy="0" gradientTransform="matrix(0.0417, 0.0, 0.0, 0.0417, -362.4, -51.45)" gradientUnits="userSpaceOnUse" id="gradient40" r="819.2" spreadMethod="pad">
      <stop offset="0.0" stop-color="#d9d9d9"/>
      <stop offset="1.0" stop-color="#373737"/>
    </radialGradient>
    <radialGradient cx="0" cy="0" gradientTransform="matrix(0.0267, 0.0, 0.0, 0.0267, -355.4, -69.65)" gradientUnits="userSpaceOnUse" id="gradient41" r="819.2" spreadMethod="pad">
      <stop offset="0.0" stop-color="#424242"/>
      <stop offset="1.0" stop-color="#0d0d0d"/>
    </radialGradient>
    <radialGradient cx="0" cy="0" gradientTransform="matrix(0.0329, 0.0, 0.0, 0.0329, -353.65, -64.0)" gradientUnits="userSpaceOnUse" id="gradient42" r="819.2" spreadMethod="pad">
      <stop offset="0.0" stop-color="#979797"/>
      <stop offset="1.0" stop-color="#939393"/>
    </radialGradient>
    <radialGradient cx="0" cy="0" gradientTransform="matrix(0.018, 0.0, 0.0, 0.018, -346.9, -64.4)" gradientUnits="userSpaceOnUse" id="gradient43" r="819.2" spreadMethod="pad">
      <stop offset="0.0" stop-color="#212121"/>
      <stop offset="1.0" stop-color="#212121"/>
    </radialGradient>
    <radialGradient cx="0" cy="0" gradientTransform="matrix(0.0657, 0.0, 0.0, 0.0657, -300.55, -79.75)" gradientUnits="userSpaceOnUse" id="gradient44" r="819.2" spreadMethod="pad">
      <stop offset="0.0" stop-color="#121212"/>
      <stop offset="1.0" stop-color="#121212"/>
    </radialGradient>
    <radialGradient cx="0" cy="0" gradientTransform="matrix(0.0624, 0.0, 0.0, 0.0624, -300.55, -79.75)" gradientUnits="userSpaceOnUse" id="gradient45" r="819.2" spreadMethod="pad">
      <stop offset="0.0" stop-color="#717171"/>
      <stop offset="1.0" stop-color="#707070"/>
    </radialGradient>
    <radialGradient cx="0" cy="0" gradientTransform="matrix(0.063, 0.0, 0.0, 0.063, -293.35, -74.6)" gradientUnits="userSpaceOnUse" id="gradient46" r="819.2" spreadMethod="pad">
      <stop offset="0.0" stop-color="#121212"/>
      <stop offset="1.0" stop-color="#121212"/>
    </radialGradient>
    <radialGradient cx="0" cy="0" gradientTransform="matrix(0.0163, 0.0, 0.0, 0.0163, -326.95, -65.3)" gradientUnits="userSpaceOnUse" id="gradient47" r="819.2" spreadMethod="pad">
      <stop offset="0.0" stop-color="#dedede"/>
      <stop offset="1.0" stop-color="#313131"/>
    </radialGradient>
    <radialGradient cx="0" cy="0" gradientTransform="matrix(0.0281, 0.0, 0.0, 0.0281, -337.5, -84.1)" gradientUnits="userSpaceOnUse" id="gradient48" r="819.2" spreadMethod="pad">
      <stop offset="0.0" stop-color="#000000"/>
      <stop offset="1.0" stop-color="#000000"/>
    </radialGradient>
    <radialGradient cx="0" cy="0" gradientTransform="matrix(0.062, 0.0, 0.0, 0.062, -303.3, -77.0)" gradientUnits="userSpaceOnUse" id="gradient49" r="819.2" spreadMethod="pad">
      <stop offset="0.0" stop-color="#121212"/>
      <stop offset="1.0" stop-color="#121212"/>
    </radialGradient>
    <radialGradient cx="0" cy="0" gradientTransform="matrix(0.0619, 0.0, 0.0, 0.0619, -304.35, -75.9)" gradientUnits="userSpaceOnUse" id="gradient50" r="819.2" spreadMethod="pad">
      <stop offset="0.0" stop-color="#121212"/>
      <stop offset="1.0" stop-color="#121212"/>
    </radialGradient>
    <radialGradient cx="0" cy="0" gradientTransform="matrix(0.0564, 0.0, 0.0, 0.0564, -344.7, -53.35)" gradientUnits="userSpaceOnUse" id="gradient51" r="819.2" spreadMethod="pad">
      <stop offset="0.0" stop-color="#121212"/>
      <stop offset="1.0" stop-color="#121212"/>
    </radialGradient>
    <radialGradient cx="0" cy="0" gradientTransform="matrix(0.0405, 0.0, 0.0, 0.0405, -362.4, -51.45)" gradientUnits="userSpaceOnUse" id="gradient52" r="819.2" spreadMethod="pad">
      <stop offset="0.0" stop-color="#d9d9d9"/>
      <stop offset="1.0" stop-color="#373737"/>
    </radialGradient>
    <radialGradient cx="0" cy="0" gradientTransform="matrix(0.0174, 0.0, 0.0, 0.0174, -368.1, -50.95)" gradientUnits="userSpaceOnUse" id="gradient53" r="819.2" spreadMethod="pad">
      <stop offset="0.0" stop-color="#e1e1e1"/>
      <stop offset="1.0" stop-color="#757575"/>
    </radialGradient>
    <radialGradient cx="0" cy="0" gradientTransform="matrix(0.0291, 0.0, 0.0, 0.0291, -354.7, -59.7)" gradientUnits="userSpaceOnUse" id="gradient54" r="819.2" spreadMethod="pad">
      <stop offset="0.0" stop-color="#787878"/>
      <stop offset="1.0" stop-color="#777777"/>
    </radialGradient>
    <radialGradient cx="0" cy="0" gradientTransform="matrix(0.0372, 0.0, 0.0, 0.0372, -324.15, -60.35)" gradientUnits="userSpaceOnUse" id="gradient55" r="819.2" spreadMethod="pad">
      <stop offset="0.0" stop-color="#b3b3b3"/>
      <stop offset="1.0" stop-color="#505050"/>
    </radialGradient>
    <radialGradient cx="0" cy="0" gradientTransform="matrix(0.0075, 0.0, 0.0, 0.0075, -319.15, -32.25)" gradientUnits="userSpaceOnUse" id="gradient56" r="819.2" spreadMethod="pad">
      <stop offset="0.0" stop-color="#cfcfcf"/>
      <stop offset="1.0" stop-color="#3b3b3b"/>
    </radialGradient>
    <radialGradient cx="0" cy="0" gradientTransform="matrix(0.0304, 0.0, 0.0, 0.0304, -346.2, -54.85)" gradientUnits="userSpaceOnUse" id="gradient57" r="819.2" spreadMethod="pad">
      <stop offset="0.0" stop-color="#121212"/>
      <stop offset="1.0" stop-color="#121212"/>
    </radialGradient>
    <radialGradient cx="0" cy="0" gradientTransform="matrix(0.0747, 0.0, 0.0, 0.0747, -205.95, -41.05)" gradientUnits="userSpaceOnUse" id="gradient58" r="819.2" spreadMethod="pad">
      <stop offset="0.0" stop-color="#242424"/>
      <stop offset="1.0" stop-color="#000000"/>
    </radialGradient>
  </defs>
</svg>
