<?xml version="1.0" encoding="UTF-8" standalone="no"?>
<svg xmlns:xlink="http://www.w3.org/1999/xlink" height="299.1px" width="291.0px" xmlns="http://www.w3.org/2000/svg">
  <g transform="matrix(1.0, 0.0, 0.0, 1.0, 400.0, 300.0)">
    <path d="M-257.5 -300.0 L-252.75 -300.0 -263.15 -268.0 -263.15 -269.0 -263.0 -269.75 -257.5 -300.0" fill="url(#gradient0)" fill-rule="evenodd" stroke="none"/>
    <path d="M-130.0 -300.0 L-131.65 -295.4 -131.9 -293.5 -132.25 -293.15 -145.4 -244.9 -145.5 -244.65 -146.15 -242.4 -146.4 -241.9 -147.4 -238.75 -162.25 -241.75 -183.4 -244.25 -196.15 -250.4 -213.4 -249.5 -227.75 -251.5 -263.0 -266.25 -263.25 -266.4 -263.5 -266.5 -263.4 -267.0 -263.4 -267.25 -263.15 -268.0 -252.75 -300.0 -130.0 -300.0" fill="url(#gradient1)" fill-rule="evenodd" stroke="none"/>
    <path d="M-251.5 -249.0 L-252.25 -248.75 -265.0 -253.9 -262.0 -265.0 -261.65 -264.65 -258.4 -257.25 -251.5 -249.0 M-264.0 -281.0 L-264.75 -278.15 -264.65 -277.15 -263.25 -269.75 -263.15 -269.0 -263.15 -268.0 -263.4 -267.25 -270.65 -274.65 -264.25 -281.25 -264.0 -281.0" fill="url(#gradient2)" fill-rule="evenodd" stroke="none"/>
    <path d="M-260.75 -263.75 L-251.5 -249.0 -258.4 -257.25 -261.65 -264.65 -260.75 -263.75 M-263.15 -269.0 L-263.25 -269.75 -264.65 -277.15 -264.75 -278.15 -264.0 -281.0 -263.25 -269.75 -263.0 -269.75 -263.15 -269.0" fill="url(#gradient3)" fill-rule="evenodd" stroke="none"/>
    <path d="M-315.15 -270.25 L-289.15 -287.4 -278.75 -300.0 -257.5 -300.0 -263.0 -269.75 -263.25 -269.75 -264.0 -281.0 -264.25 -281.25 -270.65 -274.65 -263.4 -267.25 -263.4 -267.0 -263.5 -266.5 -309.5 -259.75 -315.15 -270.25" fill="url(#gradient4)" fill-rule="evenodd" stroke="none"/>
    <path d="M-327.5 -262.25 L-327.15 -262.65 -323.0 -266.15 -315.15 -270.25 -309.5 -259.75 -327.5 -262.25" fill="url(#gradient5)" fill-rule="evenodd" stroke="none"/>
    <path d="M-368.5 -234.0 L-365.5 -236.5 -333.4 -257.4 -327.5 -262.25 -327.5 -262.15 -327.9 -261.75 -336.65 -251.0 -368.5 -234.0" fill="url(#gradient6)" fill-rule="evenodd" stroke="none"/>
    <path d="M-374.75 -222.65 L-374.75 -223.25 -369.15 -233.65 -368.5 -234.0 -336.65 -251.0 -327.9 -261.75 -327.5 -262.15 -327.5 -262.25 -309.5 -259.75 -286.5 -235.65 -278.9 -232.65 -324.5 -193.4 -341.15 -184.65 -356.0 -179.75 -357.4 -180.5 -360.75 -184.65 -366.75 -189.4 -367.15 -192.15 -368.4 -195.9 -370.0 -203.0 -370.4 -203.0 -370.9 -200.75 -374.75 -222.65" fill="url(#gradient7)" fill-rule="evenodd" stroke="none"/>
    <path d="M-130.0 -300.0 L-123.4 -300.0 -124.15 -294.4 -127.65 -297.25 -128.25 -297.5 -128.25 -297.15 -145.4 -244.9 -132.25 -293.15 -131.9 -293.5 -131.65 -295.4 -130.0 -300.0" fill="url(#gradient8)" fill-rule="evenodd" stroke="none"/>
    <path d="M-145.4 -244.9 L-128.25 -297.15 -124.25 -284.25 -121.65 -274.65 -117.65 -236.75 -120.15 -223.25 -121.25 -201.5 -123.25 -203.75 -123.9 -204.5 -133.65 -211.0 Q-135.5 -212.9 -132.75 -227.65 L-136.0 -232.15 -145.5 -231.4 -146.0 -231.0 Q-146.65 -230.65 -146.9 -226.0 L-150.15 -222.15 -154.9 -225.25 -153.25 -232.15 -153.5 -232.25 -147.4 -238.4 -147.4 -238.75 -146.4 -241.9 -146.15 -242.4 -145.5 -244.65 -145.4 -244.9 M-134.15 -247.75 L-133.4 -248.5 -133.5 -248.9 -140.4 -250.0 -140.5 -248.4 -134.15 -247.75" fill="url(#gradient9)" fill-rule="evenodd" stroke="none"/>
    <path d="M-128.25 -297.15 L-128.25 -297.5 -127.65 -297.25 -124.15 -294.4 -124.25 -284.25 -128.25 -297.15" fill="url(#gradient10)" fill-rule="evenodd" stroke="none"/>
    <path d="M-224.15 -232.75 L-234.4 -232.15 -270.4 -230.4 -278.9 -232.65 -286.5 -235.65 -309.5 -259.75 -263.5 -266.5 -263.25 -266.4 -263.0 -266.25 -262.25 -265.5 -262.15 -265.25 -262.0 -265.0 -265.0 -253.9 -252.25 -248.75 -251.5 -249.0 -260.75 -263.75 -240.4 -244.15 -235.9 -242.75 -231.15 -236.75 -221.75 -232.9 -224.15 -232.75" fill="url(#gradient11)" fill-rule="evenodd" stroke="none"/>
    <path d="M-234.4 -232.15 L-302.75 -187.0 -319.5 -179.5 -327.5 -177.0 -328.25 -176.75 -332.0 -175.65 -340.0 -175.5 -342.4 -176.65 -356.0 -179.75 -341.15 -184.65 -324.5 -193.4 -278.9 -232.65 -270.4 -230.4 -234.4 -232.15" fill="url(#gradient12)" fill-rule="evenodd" stroke="none"/>
    <path d="M-369.9 -184.65 L-367.75 -181.25 Q-358.5 -179.5 -357.4 -180.5 L-356.0 -179.75 -342.4 -176.65 -340.0 -175.5 -332.0 -175.65 -328.25 -176.75 -328.15 -176.15 -327.75 -172.4 -331.15 -163.75 -331.65 -142.25 -333.9 -121.5 -333.75 -119.25 -335.9 -100.15 -337.75 -78.4 -338.4 -77.75 -343.65 -76.4 -343.65 -76.75 -344.25 -76.65 -345.4 -75.9 -352.4 -74.0 -355.5 -73.9 -355.4 -78.25 -353.0 -99.75 -358.15 -104.5 -363.75 -100.4 -365.9 -73.5 -369.0 -73.65 -369.15 -85.0 -374.65 -102.0 -375.0 -102.15 -375.5 -97.25 -376.5 -92.65 -378.25 -75.65 -381.65 -76.25 -382.15 -77.0 -377.75 -123.75 -378.0 -124.5 -376.0 -146.25 -376.25 -146.9 -374.15 -165.5 -374.4 -165.75 -371.75 -178.5 -371.25 -179.25 -369.9 -184.65" fill="url(#gradient13)" fill-rule="evenodd" stroke="none"/>
    <path d="M-327.5 -177.0 L-327.65 -175.4 -328.15 -176.15 -328.25 -176.75 -327.5 -177.0 M-370.9 -200.75 L-370.4 -203.0 -370.0 -203.0 -368.4 -195.9 -367.15 -192.15 -366.75 -189.4 -360.75 -184.65 -357.4 -180.5 Q-358.5 -179.5 -367.75 -181.25 L-369.9 -184.65 -371.15 -195.0 -370.9 -200.75 M-378.25 -75.65 L-376.5 -92.65 -375.5 -97.25 -375.0 -102.15 -374.65 -102.0 -369.15 -85.0 -369.0 -73.65 -377.25 -75.0 -378.25 -75.65 M-365.9 -73.5 L-363.75 -100.4 -358.15 -104.5 -353.0 -99.75 -355.4 -78.25 -355.5 -73.9 -360.15 -73.4 -365.9 -73.5 M-345.4 -75.9 L-344.25 -76.65 -343.65 -76.75 -343.65 -76.4 -345.4 -75.9" fill="url(#gradient14)" fill-rule="evenodd" stroke="none"/>
    <path d="M-384.15 -85.0 L-382.4 -101.75 -382.65 -130.9 -384.4 -146.0 -383.25 -157.4 -379.9 -205.4 -375.25 -219.0 -375.15 -218.4 -375.0 -219.75 -374.75 -222.65 -370.9 -200.75 -371.15 -195.0 -369.9 -184.65 -371.25 -179.25 -371.75 -178.5 -374.4 -165.75 -374.15 -165.5 -376.25 -146.9 -376.0 -146.25 -378.0 -124.5 -377.75 -123.75 -382.15 -77.0 -384.5 -80.0 -384.0 -85.0 -384.15 -85.0" fill="url(#gradient15)" fill-rule="evenodd" stroke="none"/>
    <path d="M-202.4 -227.4 L-216.15 -229.4 -221.75 -232.9 -231.15 -236.75 -235.9 -242.75 -262.15 -265.25 -262.25 -265.5 -263.0 -266.25 -227.75 -251.5 -213.4 -249.5 -196.15 -250.4 -183.4 -244.25 -162.25 -241.75 -147.4 -238.75 -147.4 -238.4 -153.5 -232.25 -153.25 -232.15 -154.9 -225.25 -171.0 -229.15 -187.5 -228.5 -202.4 -227.4 M-186.0 -229.65 L-184.5 -230.9 -184.75 -231.15 -203.65 -233.4 -186.0 -229.65" fill="url(#gradient16)" fill-rule="evenodd" stroke="none"/>
    <path d="M-235.9 -242.75 L-240.4 -244.15 -260.75 -263.75 -261.65 -264.65 -262.0 -265.0 -262.15 -265.25 -235.9 -242.75" fill="url(#gradient17)" fill-rule="evenodd" stroke="none"/>
    <path d="M-150.15 -222.15 L-146.9 -226.0 Q-146.65 -230.65 -146.0 -231.0 L-145.5 -231.4 -136.0 -232.15 -132.75 -227.65 Q-135.5 -212.9 -133.65 -211.0 L-138.9 -210.75 Q-149.75 -218.65 -150.15 -222.15 M-134.15 -247.75 L-140.5 -248.4 -140.4 -250.0 -133.5 -248.9 -133.4 -248.5 -134.15 -247.75 M-147.5 -212.0 L-157.75 -217.5 -160.9 -222.5 -157.0 -222.15 -147.5 -214.5 -146.4 -212.5 -147.5 -212.0 M-155.4 -77.75 L-149.5 -73.5 -149.9 -73.15 -155.65 -72.4 -157.75 -72.4 -156.5 -77.65 -155.4 -77.75 M-163.25 -72.5 L-167.15 -72.75 -164.65 -77.65 -164.15 -77.0 -163.25 -72.5" fill="url(#gradient18)" fill-rule="evenodd" stroke="none"/>
    <path d="M-216.15 -229.4 L-224.15 -232.75 -221.75 -232.9 -216.15 -229.4" fill="url(#gradient19)" fill-rule="evenodd" stroke="none"/>
    <path d="M-186.0 -229.65 L-203.65 -233.4 -184.75 -231.15 -184.5 -230.9 -186.0 -229.65" fill="url(#gradient20)" fill-rule="evenodd" stroke="none"/>
    <path d="M-206.0 -91.15 L-206.0 -92.25 -205.9 -93.25 -205.9 -96.5 -205.75 -116.0 -201.0 -170.25 -195.9 -213.65 -197.9 -220.4 -202.4 -227.4 -187.5 -228.5 -185.9 -213.0 -191.15 -170.15 -196.25 -111.0 -187.4 -82.4 -204.0 -88.75 -206.0 -91.15" fill="url(#gradient21)" fill-rule="evenodd" stroke="none"/>
    <path d="M-133.65 -211.0 L-123.9 -204.5 -123.25 -203.75 -124.15 -169.5 -127.5 -137.75 -134.9 -103.5 -143.0 -79.9 -157.4 -79.25 -170.15 -80.15 -187.15 -82.25 -187.4 -82.4 -196.25 -111.0 -191.15 -170.15 -185.9 -213.0 -187.5 -228.5 -171.0 -229.15 -154.9 -225.25 -150.15 -222.15 Q-149.75 -218.65 -138.9 -210.75 L-133.65 -211.0 M-147.5 -212.0 L-146.4 -212.5 -147.5 -214.5 -157.0 -222.15 -160.9 -222.5 -157.75 -217.5 -147.5 -212.0" fill="url(#gradient22)" fill-rule="evenodd" stroke="none"/>
    <path d="M-375.25 -219.0 L-375.25 -219.25 -375.0 -219.75 -375.15 -218.4 -375.25 -219.0" fill="url(#gradient23)" fill-rule="evenodd" stroke="none"/>
    <path d="M-333.4 -85.0 L-331.15 -84.0 -329.0 -80.0 -329.0 -79.9 Q-331.15 -76.15 -332.0 -76.15 L-338.25 -73.15 -339.15 -75.15 -339.75 -75.65 -341.5 -72.4 -348.4 -70.75 -360.15 -69.9 -373.5 -70.65 -382.9 -72.75 -389.25 -76.15 -390.4 -79.25 -390.4 -79.4 -390.5 -79.65 Q-390.75 -80.5 -387.15 -83.75 L-384.15 -85.0 -384.0 -85.0 -384.5 -80.0 -382.15 -77.0 -381.65 -76.25 -378.25 -75.65 -377.25 -75.0 -369.0 -73.65 -365.9 -73.5 -360.15 -73.4 -355.5 -73.9 -352.4 -74.0 -345.4 -75.9 -343.65 -76.4 -338.4 -77.75 -337.75 -78.4 -333.5 -83.9 -333.4 -85.0" fill="url(#gradient24)" fill-rule="evenodd" stroke="none"/>
    <path d="M-329.0 -79.9 L-328.9 -69.4 Q-331.0 -65.25 -331.75 -65.15 L-338.75 -61.75 -339.0 -72.9 -338.25 -73.15 -332.0 -76.15 Q-331.15 -76.15 -329.0 -79.9 M-385.65 -63.15 L-388.75 -65.0 -389.15 -65.75 -390.15 -69.15 -390.4 -79.25 -389.25 -76.15 -382.9 -72.75 -373.5 -70.65 -360.15 -69.9 -348.4 -70.75 -341.5 -72.4 -344.65 -66.25 Q-349.75 -65.4 -350.15 -64.65 L-351.75 -59.15 Q-378.25 -57.65 -385.0 -62.9 L-385.65 -63.15" fill="url(#gradient25)" fill-rule="evenodd" stroke="none"/>
    <path d="M-385.9 -56.25 L-386.15 -61.0 -385.65 -63.15 -385.0 -62.9 Q-378.25 -57.65 -351.75 -59.15 -351.15 -55.9 -364.25 -48.4 L-366.65 -49.75 -370.15 -50.4 -372.4 -48.75 -372.9 -48.9 -374.25 -50.15 -379.4 -52.0 -380.25 -51.4 -384.0 -54.15 -384.75 -53.75 -385.0 -54.0 -385.5 -55.25 -385.25 -56.25 -385.75 -56.5 -385.9 -56.25" fill="url(#gradient26)" fill-rule="evenodd" stroke="none"/>
    <path d="M-386.4 -54.4 L-385.9 -56.25 -385.75 -56.5 -385.25 -56.25 -385.5 -55.25 -385.0 -54.0 -384.75 -53.75 -384.0 -54.15 -380.25 -51.4 -379.4 -52.0 -374.25 -50.15 -372.9 -48.9 -372.4 -48.75 -370.15 -50.4 -366.65 -49.75 -364.25 -48.4 -379.65 -39.25 -381.15 -37.0 -383.25 -39.65 -385.4 -43.75 -386.4 -47.9 -386.4 -54.4" fill="url(#gradient27)" fill-rule="evenodd" stroke="none"/>
    <path d="M-331.75 -65.15 Q-332.65 -64.0 -329.5 -61.5 L-329.5 -47.0 -329.4 -46.25 Q-328.5 -42.9 -332.15 -38.65 L-337.75 -35.4 -338.15 -35.15 -337.5 -33.9 -334.5 -35.0 -339.15 -32.25 -340.9 -31.75 -347.9 -29.75 -341.5 -32.25 -340.5 -34.25 -340.9 -34.15 -349.25 -31.75 -361.0 -30.5 -370.0 -30.9 -376.4 -30.25 -377.15 -29.5 -386.15 -23.9 -388.15 -23.15 -388.9 -23.0 -387.75 -26.5 -385.4 -28.0 -383.65 -32.65 -383.5 -32.9 -382.75 -34.5 -381.15 -37.0 -379.65 -39.25 -364.25 -48.4 Q-351.15 -55.9 -351.75 -59.15 L-350.15 -64.65 Q-349.75 -65.4 -344.65 -66.25 L-341.5 -72.4 -339.75 -75.65 -339.15 -75.15 -338.25 -73.15 -339.0 -72.9 -338.75 -61.75 -331.75 -65.15" fill="url(#gradient28)" fill-rule="evenodd" stroke="none"/>
    <path d="M-327.65 -175.4 L-325.25 -161.65 -324.25 -146.0 -323.75 -129.4 -332.15 -99.15 -333.4 -85.0 -333.5 -83.9 -337.75 -78.4 -335.9 -100.15 -333.75 -119.25 -333.9 -121.5 -331.65 -142.25 -331.15 -163.75 -327.75 -172.4 -328.15 -176.15 -327.65 -175.4" fill="url(#gradient29)" fill-rule="evenodd" stroke="none"/>
    <path d="M-121.25 -201.5 L-121.4 -169.9 -125.25 -139.25 -132.65 -105.25 -141.4 -81.65 -143.0 -79.9 -134.9 -103.5 -127.5 -137.75 -124.15 -169.5 -123.25 -203.75 -121.25 -201.5" fill="url(#gradient30)" fill-rule="evenodd" stroke="none"/>
    <path d="M-141.4 -81.65 L-148.25 -68.25 -143.0 -79.9 -141.4 -81.65" fill="url(#gradient31)" fill-rule="evenodd" stroke="none"/>
    <path d="M-206.0 -95.25 L-205.9 -96.5 -205.9 -93.25 -206.0 -95.25" fill="url(#gradient32)" fill-rule="evenodd" stroke="none"/>
    <path d="M-206.0 -92.25 L-206.25 -92.4 -206.0 -95.25 -205.9 -93.25 -206.0 -92.25" fill="url(#gradient33)" fill-rule="evenodd" stroke="none"/>
    <path d="M-204.75 -73.75 L-206.0 -91.15 -204.0 -88.75 -187.4 -82.4 -187.15 -82.25 -189.15 -69.15 -204.75 -73.75" fill="url(#gradient34)" fill-rule="evenodd" stroke="none"/>
    <path d="M-198.9 -0.9 L-214.0 -0.9 -212.4 -13.4 -213.0 -25.25 -211.25 -40.25 -205.5 -62.65 -205.4 -61.75 -205.25 -63.65 -204.75 -68.25 -204.65 -65.65 -204.65 -69.65 -204.75 -73.75 -189.15 -69.15 -192.0 -56.25 -193.0 -39.75 -195.5 -19.25 -198.9 -0.9" fill="url(#gradient35)" fill-rule="evenodd" stroke="none"/>
    <path d="M-204.75 -68.25 L-204.65 -69.65 -204.65 -65.65 -204.75 -68.25" fill="url(#gradient36)" fill-rule="evenodd" stroke="none"/>
    <path d="M-205.5 -62.65 L-205.5 -62.75 -205.25 -63.65 -205.4 -61.75 -205.5 -62.65" fill="url(#gradient37)" fill-rule="evenodd" stroke="none"/>
    <path d="M-148.9 -67.0 L-146.65 -52.75 -146.0 -37.0 -148.4 -18.5 -151.75 -0.9 -198.9 -0.9 -195.5 -19.25 -193.0 -39.75 -192.0 -56.25 -189.15 -69.15 -171.65 -66.65 -160.65 -65.9 -148.9 -67.0" fill="url(#gradient38)" fill-rule="evenodd" stroke="none"/>
    <path d="M-148.25 -68.25 L-148.4 -68.0 -148.5 -67.75 -148.9 -67.0 -160.65 -65.9 -171.65 -66.65 -189.15 -69.15 -187.15 -82.25 -170.15 -80.15 -157.4 -79.25 -143.0 -79.9 -148.25 -68.25 M-155.4 -77.75 L-156.5 -77.65 -157.75 -72.4 -155.65 -72.4 -149.9 -73.15 -149.5 -73.5 -155.4 -77.75 M-163.25 -72.5 L-164.15 -77.0 -164.65 -77.65 -167.15 -72.75 -163.25 -72.5" fill="url(#gradient39)" fill-rule="evenodd" stroke="none"/>
    <path d="M-400.0 -25.0 L-399.9 -41.25 -397.5 -43.75 -396.65 -45.25 -389.0 -52.15 -389.0 -52.25 -386.4 -54.4 -386.4 -47.9 -385.4 -43.75 -385.25 -38.75 -382.75 -34.5 -383.5 -32.9 -383.65 -32.65 -385.4 -28.0 -387.75 -26.5 -388.9 -23.0 -388.15 -23.15 -391.0 -21.65 -395.5 -21.9 Q-400.0 -24.25 -400.0 -25.0" fill="url(#gradient40)" fill-rule="evenodd" stroke="none"/>
    <path d="M-373.4 -25.0 L-373.75 -24.5 -374.25 -24.9 -373.4 -25.0 M-390.5 -17.9 L-390.9 -17.65 -393.65 -15.5 -395.65 -15.9 -396.25 -16.0 -396.75 -16.15 -391.15 -18.5 -390.0 -18.75 -390.5 -17.9 M-399.9 -17.25 L-400.0 -25.0 Q-400.0 -24.25 -395.5 -21.9 L-391.0 -21.65 -399.65 -17.15 -399.9 -17.25 M-399.9 -41.25 L-400.0 -50.15 Q-395.0 -52.65 -389.0 -52.25 L-389.0 -52.15 -396.65 -45.25 -397.5 -43.75 -399.9 -41.25" fill="url(#gradient41)" fill-rule="evenodd" stroke="none"/>
    <path d="M-329.5 -47.0 L-327.65 -46.9 -329.4 -46.25 -329.5 -47.0 M-376.4 -30.25 L-370.0 -30.9 -372.25 -29.9 -376.4 -30.25" fill="url(#gradient42)" fill-rule="evenodd" stroke="none"/>
    <path d="M-327.65 -46.9 L-318.0 -43.0 -337.75 -35.4 -332.15 -38.65 Q-328.5 -42.9 -329.4 -46.25 L-327.65 -46.9 M-370.0 -30.9 L-361.0 -30.5 -349.25 -31.75 -340.9 -34.15 -362.75 -25.5 -372.25 -29.9 -370.0 -30.9" fill="url(#gradient43)" fill-rule="evenodd" stroke="none"/>
    <path d="M-318.0 -43.0 L-318.15 -41.5 -334.5 -35.0 -337.5 -33.9 -338.15 -35.15 -337.75 -35.4 -318.0 -43.0 M-351.9 -28.15 L-363.0 -24.0 -362.75 -25.5 -340.9 -34.15 -340.5 -34.25 -341.5 -32.25 -347.9 -29.75 -351.9 -28.15" fill="url(#gradient44)" fill-rule="evenodd" stroke="none"/>
    <path d="M-381.15 -37.0 L-382.75 -34.5 -385.25 -38.75 -385.4 -43.75 -383.25 -39.65 -381.15 -37.0" fill="url(#gradient45)" fill-rule="evenodd" stroke="none"/>
    <path d="M-340.9 -31.75 L-344.25 -25.15 -345.25 -24.0 -346.9 -23.65 -349.4 -24.0 -351.75 -28.15 -351.9 -28.15 -347.9 -29.75 -340.9 -31.75" fill="url(#gradient46)" fill-rule="evenodd" stroke="none"/>
    <path d="M-363.0 -24.0 L-369.5 -26.75 -372.9 -28.0 -373.65 -28.15 -375.0 -28.25 -375.75 -27.4 -377.0 -26.4 -400.0 -14.9 -400.0 -17.0 -399.65 -17.15 -391.0 -21.65 -388.15 -23.15 -386.15 -23.9 -381.5 -26.0 Q-377.15 -28.75 -377.15 -29.5 L-376.4 -30.25 -372.25 -29.9 -362.75 -25.5 -363.0 -24.0" fill="url(#gradient47)" fill-rule="evenodd" stroke="none"/>
    <path d="M-386.15 -23.9 L-377.15 -29.5 Q-377.15 -28.75 -381.5 -26.0 L-386.15 -23.9" fill="url(#gradient48)" fill-rule="evenodd" stroke="none"/>
    <path d="M-344.25 -25.15 L-343.9 -0.9 -349.0 -0.9 -349.4 -24.0 -346.9 -23.65 -345.25 -24.0 -344.25 -25.15" fill="url(#gradient49)" fill-rule="evenodd" stroke="none"/>
    <path d="M-375.75 -27.4 L-373.65 -28.15 -372.9 -28.0 -377.0 -26.4 -375.75 -27.4" fill="url(#gradient50)" fill-rule="evenodd" stroke="none"/>
    <path d="M-369.5 -26.75 L-373.4 -25.0 -374.25 -24.9 -373.75 -24.5 -374.15 -24.5 -376.75 -23.4 -379.15 -22.75 -378.65 -22.65 -382.65 -20.75 -390.5 -17.9 -390.0 -18.75 -391.15 -18.5 -396.75 -16.15 -396.25 -16.0 -395.65 -15.9 -399.9 -14.15 -400.0 -14.9 -377.0 -26.4 -372.9 -28.0 -369.5 -26.75 M-388.9 -18.75 L-385.75 -19.75 -384.65 -20.5 -389.25 -18.9 -388.9 -18.75" fill="url(#gradient51)" fill-rule="evenodd" stroke="none"/>
    <path d="M-375.75 -27.4 L-375.0 -28.25 -373.65 -28.15 -375.75 -27.4" fill="url(#gradient52)" fill-rule="evenodd" stroke="none"/>
    <path d="M-373.75 -24.5 L-374.0 -24.15 -374.15 -24.5 -373.75 -24.5" fill="url(#gradient53)" fill-rule="evenodd" stroke="none"/>
    <path d="M-376.75 -23.4 L-375.4 -22.75 -378.65 -22.65 -379.15 -22.75 -376.75 -23.4 M-388.9 -18.75 L-389.25 -18.9 -384.65 -20.5 -385.75 -19.75 -388.9 -18.75" fill="url(#gradient54)" fill-rule="evenodd" stroke="none"/>
    <path d="M-400.0 -17.0 L-399.9 -17.25 -399.65 -17.15 -400.0 -17.0" fill="url(#gradient55)" fill-rule="evenodd" stroke="none"/>
    <path d="M-274.75 -249.0 L-275.25 -247.4 -304.65 -271.15 -307.65 -275.25 -307.65 -275.4 -289.0 -287.5 -288.9 -287.75 -278.75 -300.0 -265.65 -300.0 -265.65 -299.65 -265.75 -299.4 -270.0 -275.65 -270.25 -275.15 -270.4 -274.5 -270.25 -274.25 -274.25 -252.25 -274.5 -251.4 -274.75 -249.0" fill="#d80000" fill-opacity="0.9098039" fill-rule="evenodd" stroke="none"/>
    <path d="M-278.75 -300.0 L-288.9 -287.75 -289.0 -287.5 -307.65 -275.4 -312.15 -281.9 -312.5 -282.15 -285.0 -299.75 -278.75 -300.0" fill="#e80000" fill-rule="evenodd" stroke="none"/>
    <path d="M-307.65 -275.4 L-307.65 -275.25 -315.15 -270.25 Q-315.8 -269.85 -316.5 -269.5 L-316.65 -269.5 -323.5 -265.75 -326.9 -262.75 -327.0 -262.75 -327.15 -262.65 -327.25 -262.5 -327.5 -262.25 -333.4 -257.4 -344.0 -250.5 -344.15 -250.5 -346.4 -249.0 -346.65 -248.75 -346.75 -248.75 -365.5 -236.5 -366.9 -235.25 -366.9 -235.15 -367.25 -235.0 -369.15 -233.4 -374.75 -222.9 -374.75 -222.65 -374.9 -222.0 -375.0 -219.75 -375.25 -219.25 -375.25 -219.0 -379.75 -206.0 -383.15 -159.25 -383.15 -158.4 -384.4 -145.15 -384.4 -144.25 -384.25 -144.0 -384.25 -143.9 -382.65 -130.0 -382.65 -129.0 -382.5 -128.75 -382.5 -99.75 -384.15 -85.0 -386.75 -83.9 -390.4 -80.15 -390.5 -79.65 -390.4 -79.4 -390.4 -75.75 -400.0 -76.9 -399.9 -230.5 -393.9 -241.9 -393.9 -242.0 -393.5 -242.75 -393.4 -243.0 -392.65 -244.15 -312.5 -282.15 -312.15 -281.9 -307.65 -275.4" fill="#ee0000" fill-rule="evenodd" stroke="none"/>
    <path d="M-393.5 -242.75 L-393.9 -242.0 -393.9 -241.9 -399.9 -230.5 -400.0 -232.0 -399.9 -232.4 -400.0 -235.0 -393.5 -242.75" fill="#f00000" fill-rule="evenodd" stroke="none"/>
    <path d="M-257.65 -300.0 L-257.75 -299.4 -264.0 -281.5 -264.0 -281.15 -264.9 -278.0 -265.15 -277.75 -267.25 -271.15 -267.75 -270.15 -267.65 -269.9 -272.75 -254.15 -273.4 -252.9 -274.75 -249.0 -274.5 -251.4 -274.25 -252.25 -270.25 -274.25 -270.4 -274.5 -270.25 -275.15 -270.0 -275.65 -265.75 -299.4 -265.65 -299.65 -265.65 -300.0 -264.75 -299.9 -257.65 -300.0" fill="#e80000" fill-opacity="0.9098039" fill-rule="evenodd" stroke="none"/>
    <path d="M-123.4 -300.0 L-124.25 -294.5 -124.4 -285.0 -121.9 -276.0 -121.65 -275.5 -121.75 -275.0 -121.75 -274.9 -122.0 -274.9 -124.5 -263.5 -124.65 -263.15 -124.65 -263.0 -124.75 -262.65 -124.75 -262.5 -129.9 -243.9 -129.75 -243.75 -133.0 -231.25 -133.75 -229.15 -133.75 -228.75 -138.5 -211.15 -138.65 -210.75 -139.15 -208.0 -139.65 -206.5 -139.65 -205.9 -139.9 -204.75 -140.9 -201.75 -141.0 -201.75 -154.0 -203.65 -178.5 -206.25 -178.9 -206.4 -195.9 -209.25 -196.4 -209.4 -196.5 -209.5 -196.25 -210.4 -195.9 -213.75 -197.9 -220.4 -202.4 -227.4 -215.25 -229.15 -216.15 -229.4 -224.15 -232.75 -234.4 -232.15 -246.65 -224.0 -275.25 -247.4 -274.75 -249.0 -273.4 -252.9 -272.75 -254.15 -267.65 -269.9 -267.75 -270.15 -267.25 -271.15 -265.15 -277.75 -264.9 -278.0 -264.0 -281.15 -264.0 -281.5 -257.75 -299.4 -257.65 -300.0 -130.5 -300.0 -130.0 -299.9 -128.0 -300.0 -127.4 -299.75 -123.4 -300.0" fill="#be0000" fill-opacity="0.9098039" fill-rule="evenodd" stroke="none"/>
    <path d="M-117.4 -300.0 L-119.4 -283.9 -121.4 -276.0 -121.9 -276.0 -124.4 -285.0 -124.25 -294.5 -123.4 -300.0 -117.4 -300.0" fill="#d50000" fill-rule="evenodd" stroke="none"/>
    <path d="M-109.0 -276.9 L-113.4 -280.4 -113.65 -279.4 -114.75 -276.5 -121.4 -276.0 -119.4 -283.9 -117.4 -300.0 -110.0 -300.0 -109.0 -276.9" fill="#ca0000" fill-rule="evenodd" stroke="none"/>
    <path d="M-113.65 -279.4 L-113.4 -280.4 -109.0 -276.9 -113.75 -276.5 -113.5 -279.0 -113.65 -279.4" fill="#e50000" fill-rule="evenodd" stroke="none"/>
    <path d="M-113.65 -279.4 L-113.5 -279.0 -113.75 -276.5 -114.75 -276.5 -113.65 -279.4 M-284.0 -0.9 L-279.9 -25.4 -279.5 -25.5 -279.5 -25.0 -283.25 -0.9 -284.0 -0.9 M-279.25 -27.25 L-279.5 -27.65 -279.15 -27.75 -279.25 -27.25 M-279.4 -26.5 L-279.65 -26.9 -279.25 -27.0 -279.4 -26.5 M-279.75 -26.15 L-279.4 -26.25 -279.5 -25.65 -279.75 -26.15" fill="#ba0000" fill-rule="evenodd" stroke="none"/>
    <path d="M-114.75 -276.5 L-113.75 -276.5 -114.0 -273.25 -114.15 -272.65 -114.15 -272.15 -117.9 -240.25 -120.25 -260.4 -120.15 -261.5 -114.75 -276.5 M-119.0 -229.5 L-120.15 -219.25 -120.0 -218.4 -120.25 -218.25 -120.15 -219.25 -120.4 -221.4 -120.15 -221.65 -120.25 -222.15 -120.25 -223.4 -120.15 -223.65 -120.15 -224.15 -120.0 -224.5 -120.0 -224.65 -119.0 -229.5" fill="#b90000" fill-rule="evenodd" stroke="none"/>
    <path d="M-113.75 -276.5 L-109.0 -276.9 -116.5 -233.75 -114.0 -270.9 -114.15 -272.15 -114.15 -272.65 -113.9 -272.75 -114.0 -273.25 -113.75 -276.5" fill="#e40000" fill-rule="evenodd" stroke="none"/>
    <path d="M-114.0 -273.25 L-113.9 -272.75 -114.15 -272.65 -114.0 -273.25 M-114.15 -272.15 L-114.0 -270.9 -116.5 -233.75 -117.15 -228.0 -117.0 -227.4 -119.0 -199.5 -119.65 -199.5 -120.0 -199.65 -120.4 -199.65 -121.25 -199.75 -121.4 -201.75 -120.25 -218.25 -120.0 -218.4 -120.15 -219.25 -119.0 -229.5 -117.65 -236.5 -117.75 -236.65 -117.9 -240.25 -114.15 -272.15" fill="#b60000" fill-rule="evenodd" stroke="none"/>
    <path d="M-121.65 -275.5 L-121.9 -276.0 -121.4 -276.0 -121.65 -275.5" fill="#d30000" fill-rule="evenodd" stroke="none"/>
    <path d="M-121.4 -276.0 L-114.75 -276.5 -120.15 -261.5 -121.75 -274.9 -121.75 -275.0 -121.65 -275.5 -121.4 -276.0" fill="#c80000" fill-rule="evenodd" stroke="none"/>
    <path d="M-307.65 -275.25 L-304.65 -271.15 -304.75 -270.75 -309.75 -260.15 -310.0 -259.75 -310.15 -259.15 -310.75 -258.25 -310.65 -258.0 -327.15 -222.15 -327.4 -221.9 -330.9 -214.25 -331.0 -213.65 -337.4 -200.15 -338.25 -197.65 -342.0 -190.0 -342.15 -189.25 -345.0 -183.4 -359.9 -146.4 -360.0 -145.25 -360.65 -141.65 -360.5 -141.15 -363.4 -120.0 -363.25 -119.5 -364.25 -111.0 -365.15 -95.4 -365.0 -94.5 -366.25 -73.5 -365.0 -67.25 -364.9 -66.4 -364.4 -64.4 -364.4 -63.5 -363.75 -61.5 -363.75 -60.75 -362.75 -57.25 -362.65 -55.5 -362.4 -55.15 -362.75 -55.0 -362.5 -54.9 -361.5 -50.9 -361.4 -50.15 -361.5 -49.9 -361.4 -49.9 -361.4 -49.65 -360.5 -45.9 -360.15 -44.9 -361.4 -45.25 -364.4 -46.65 -364.5 -46.9 -368.25 -48.5 -368.25 -48.65 -368.9 -48.75 -369.4 -49.15 -372.75 -50.65 -372.75 -50.75 -373.25 -50.9 -373.9 -51.25 -374.4 -51.4 -380.5 -54.25 -380.5 -54.4 -383.25 -55.65 -385.25 -56.25 -385.25 -56.65 -385.65 -56.65 -385.9 -56.75 -386.0 -56.9 -386.0 -57.0 -386.0 -61.5 -385.65 -63.15 -388.75 -65.15 -389.0 -65.75 -390.0 -68.9 -390.15 -71.15 -390.0 -71.5 -390.25 -74.0 -390.25 -74.4 -390.4 -75.75 -390.4 -79.4 -390.5 -79.65 -390.4 -80.15 -386.75 -83.9 -384.15 -85.0 -382.5 -99.75 -382.5 -128.75 -382.65 -129.0 -382.65 -130.0 -384.25 -143.9 -384.25 -144.0 -384.4 -144.25 -384.4 -145.15 -383.15 -158.4 -383.15 -159.25 -379.75 -206.0 -375.25 -219.0 -375.25 -219.25 -375.0 -219.75 -374.9 -222.0 -374.75 -222.65 -374.75 -222.9 -369.15 -233.4 -367.25 -235.0 -366.9 -235.15 -366.9 -235.25 -365.5 -236.5 -346.75 -248.75 -346.65 -248.75 -346.4 -249.0 -344.15 -250.5 -344.0 -250.5 -333.4 -257.4 -327.5 -262.25 -327.25 -262.5 -327.15 -262.65 -327.0 -262.75 -326.9 -262.75 -323.5 -265.75 -316.65 -269.5 -316.5 -269.5 Q-315.8 -269.85 -315.15 -270.25 L-307.65 -275.25" fill="#dd0000" fill-opacity="0.9098039" fill-rule="evenodd" stroke="none"/>
    <path d="M-400.0 -76.9 L-390.4 -75.75 -390.25 -74.4 -390.25 -74.0 -390.0 -71.5 -390.15 -71.15 -390.0 -68.9 -389.0 -65.75 -388.75 -65.15 -385.65 -63.15 -386.0 -61.5 -386.0 -57.0 -400.0 -63.5 -400.0 -76.9" fill="#f40000" fill-opacity="0.9098039" fill-rule="evenodd" stroke="none"/>
    <path d="M-139.9 -204.75 L-139.65 -205.9 -139.65 -206.5 -139.15 -208.0 -138.65 -210.75 -138.5 -211.15 -133.75 -228.75 -133.75 -229.15 -133.0 -231.25 -129.75 -243.75 -129.9 -243.9 -124.75 -262.5 -124.75 -262.65 -124.65 -263.0 -124.65 -263.15 -124.5 -263.5 -122.0 -274.9 -121.75 -274.9 -120.15 -261.5 -120.25 -260.4 -132.9 -224.9 -133.5 -222.25 -138.65 -207.9 -139.65 -205.9 -139.5 -205.4 -139.9 -204.75 M-308.65 -131.15 L-309.15 -127.15 -313.15 -109.0 -315.25 -72.9 -314.9 -70.65 -314.9 -68.75 -316.5 -55.5 -319.15 -43.5 -327.65 -46.9 -329.5 -47.0 -329.5 -53.65 -329.75 -53.9 -329.5 -54.4 -329.65 -61.0 -329.5 -61.5 -330.25 -62.15 -330.9 -63.0 -331.65 -63.65 -331.75 -65.15 -331.15 -65.9 -328.9 -69.4 -329.0 -80.4 -331.4 -84.0 -333.4 -85.0 -332.15 -98.65 -332.0 -99.5 -323.9 -128.9 -323.9 -130.0 -324.0 -130.4 -323.9 -131.15 -324.5 -147.25 -324.65 -147.5 -325.25 -161.65 -327.65 -175.4 -327.4 -176.5 -327.5 -177.0 -319.25 -179.75 -306.15 -185.5 -306.0 -184.4 -308.65 -131.15" fill="#b30000" fill-opacity="0.9098039" fill-rule="evenodd" stroke="none"/>
    <path d="M-140.9 -201.75 L-139.9 -204.75 -139.5 -205.4 -139.65 -205.9 -138.65 -207.9 -133.5 -222.25 -132.9 -224.9 -120.25 -260.4 -117.9 -240.25 -117.75 -236.65 -117.65 -236.5 -119.0 -229.5 -120.0 -224.65 -120.0 -224.5 -120.15 -224.15 -120.15 -223.65 -120.25 -223.4 -120.25 -222.15 -120.15 -221.65 -120.4 -221.4 -120.15 -219.25 -120.25 -218.25 -121.4 -201.75 -121.25 -199.75 -123.0 -199.9 -123.4 -199.9 -140.9 -201.75" fill="#a30000" fill-opacity="0.9098039" fill-rule="evenodd" stroke="none"/>
    <path d="M-275.25 -247.4 L-246.65 -224.0 -302.15 -187.65 -302.75 -187.15 -306.0 -185.75 -305.75 -190.75 -305.9 -193.4 -305.65 -194.0 -305.75 -195.65 -305.65 -196.25 -305.25 -206.9 -305.5 -209.65 -305.25 -210.15 -305.5 -214.4 -305.25 -215.0 -304.9 -254.75 -305.0 -255.15 -304.9 -265.75 -304.65 -266.4 -304.75 -270.75 -304.65 -271.15 -275.25 -247.4 M-196.4 -209.4 L-195.9 -209.25 -178.9 -206.4 -178.5 -206.25 -154.0 -203.65 -141.0 -201.75 -140.9 -201.75 -123.4 -199.9 -123.0 -199.9 -121.25 -199.75 -121.25 -199.65 -121.4 -174.25 -121.4 -170.0 -125.4 -139.15 -132.65 -105.4 -135.75 -96.4 -141.75 -81.0 -145.75 -72.9 -146.15 -72.75 -149.0 -66.9 -146.9 -53.15 -146.75 -52.9 -146.15 -38.15 -146.0 -37.75 -146.65 -31.25 -146.75 -30.75 -148.65 -18.0 -148.65 -17.25 -149.0 -15.65 -148.9 -15.4 -149.15 -14.25 -151.75 -0.9 -214.0 -0.9 -213.65 -4.15 -212.9 -9.65 -212.9 -10.25 -212.75 -10.75 -212.4 -13.4 -213.0 -25.0 -210.9 -41.75 -210.75 -41.9 -210.65 -42.4 -210.65 -42.5 -205.5 -62.65 -205.5 -62.75 -205.25 -63.65 -204.65 -69.65 -206.0 -91.15 -206.0 -92.25 -206.25 -92.4 -205.9 -96.5 -205.75 -115.25 -201.4 -164.5 -201.4 -164.75 -201.25 -166.0 -201.25 -167.15 -201.15 -167.4 -196.4 -209.4 M-318.0 -42.5 L-318.15 -41.5 -319.75 -40.9 -319.65 -42.4 -319.25 -42.65 -319.15 -43.5 -318.0 -43.0 -318.0 -42.5" fill="#ab0000" fill-opacity="0.9098039" fill-rule="evenodd" stroke="none"/>
    <path d="M-196.5 -209.5 L-196.4 -209.4 -201.15 -167.4 -201.25 -167.15 -201.25 -166.0 -201.4 -164.75 -201.4 -164.5 -205.75 -115.25 -205.9 -96.5 -206.25 -92.4 -206.0 -92.25 -206.0 -91.15 -204.65 -69.65 -205.25 -63.65 -205.5 -62.75 -205.5 -62.65 -210.65 -42.5 -210.65 -42.4 -210.75 -41.9 -210.9 -41.75 -213.0 -25.0 -212.4 -13.4 -212.75 -10.75 -212.9 -10.25 -212.9 -9.65 -213.65 -4.15 -230.0 -0.9 -279.0 -0.9 -269.9 -26.9 -257.65 -69.0 -248.75 -117.75 -237.4 -167.5 -232.5 -214.25 -196.5 -209.5 M-236.25 -215.5 L-280.15 -198.25 -301.0 -167.0 -308.65 -131.15 -306.0 -184.4 -306.15 -185.5 -306.0 -185.75 -302.75 -187.15 -302.15 -187.65 -246.65 -224.0 -236.25 -215.5 M-314.9 -68.75 L-309.9 -41.9 -318.0 -42.5 -318.0 -43.0 -319.15 -43.5 -316.5 -55.5 -314.9 -68.75 M-135.75 -96.4 L-135.65 -96.0 -141.5 -58.65 -146.65 -31.25 -146.5 -30.9 -146.75 -30.75 -146.65 -31.25 -146.0 -37.75 -146.15 -38.15 -146.75 -52.9 -146.9 -53.15 -149.0 -66.9 -146.15 -72.75 -145.75 -72.9 -141.75 -81.0 -135.75 -96.4 M-149.15 -14.25 L-146.0 -0.9 -151.75 -0.9 -149.15 -14.25" fill="#bb0000" fill-rule="evenodd" stroke="none"/>
    <path d="M-246.65 -224.0 L-234.4 -232.15 -224.15 -232.75 -216.15 -229.4 -215.25 -229.15 -202.4 -227.4 -197.9 -220.4 -195.9 -213.75 -196.25 -210.4 -196.5 -209.5 -232.5 -214.25 -232.4 -217.0 -236.25 -215.5 -246.65 -224.0" fill="#ce0000" fill-rule="evenodd" stroke="none"/>
    <path d="M-236.25 -215.5 L-232.4 -217.0 -232.5 -214.25 -235.0 -214.5 -236.25 -215.5" fill="#d10000" fill-opacity="0.9098039" fill-rule="evenodd" stroke="none"/>
    <path d="M-236.25 -215.5 L-235.0 -214.5 -232.5 -214.25 -237.4 -167.5 -248.75 -117.75 -257.65 -69.0 -269.9 -26.9 -279.0 -0.9 -283.25 -0.9 -279.5 -25.0 -279.5 -25.5 -279.9 -25.4 -284.0 -0.9 -329.75 -0.9 -327.15 -5.5 -319.65 -40.75 -319.75 -40.9 -318.15 -41.5 -318.0 -42.5 -309.9 -41.9 -314.9 -68.75 -314.9 -70.65 -309.75 -112.15 -309.0 -125.4 -309.15 -127.15 -308.65 -131.15 -301.0 -167.0 -280.15 -198.25 -236.25 -215.5 M-121.4 -174.25 L-120.4 -159.9 -120.4 -155.0 -127.9 -99.9 -130.0 -49.4 -130.25 -2.15 -130.0 -0.9 -146.0 -0.9 -149.15 -14.25 -148.9 -15.4 -149.0 -15.65 -148.65 -17.25 -148.65 -18.0 -146.75 -30.75 -146.5 -30.9 -146.65 -31.25 -141.5 -58.65 -135.65 -96.0 -135.75 -96.4 -132.65 -105.4 -125.4 -139.15 -121.4 -170.0 -121.4 -174.25 M-279.75 -26.15 L-279.5 -25.65 -279.4 -26.25 -279.75 -26.15 M-279.4 -26.5 L-279.25 -27.0 -279.65 -26.9 -279.4 -26.5 M-279.25 -27.25 L-279.15 -27.75 -279.5 -27.65 -279.25 -27.25 M-214.0 -0.9 L-230.0 -0.9 -213.65 -4.15 -214.0 -0.9" fill="#bc0000" fill-opacity="0.9098039" fill-rule="evenodd" stroke="none"/>
    <path d="M-120.4 -199.65 L-120.0 -199.65 -119.65 -199.5 -119.0 -199.5 -120.4 -159.9 -121.4 -174.25 -121.25 -199.65 -120.4 -199.65" fill="#bf0000" fill-rule="evenodd" stroke="none"/>
    <path d="M-121.25 -199.75 L-120.4 -199.65 -121.25 -199.65 -121.25 -199.75" fill="#b80000" fill-rule="evenodd" stroke="none"/>
  </g>
  <defs>
    <radialGradient cx="0" cy="0" gradientTransform="matrix(0.0428, 0.0, 0.0, 0.0428, -263.4, -266.6)" gradientUnits="userSpaceOnUse" id="gradient0" r="819.2" spreadMethod="pad">
      <stop offset="0.0" stop-color="#464646"/>
      <stop offset="1.0" stop-color="#3c3c3c"/>
    </radialGradient>
    <radialGradient cx="0" cy="0" gradientTransform="matrix(0.1151, 0.0, 0.0, 0.1151, -219.0, -300.0)" gradientUnits="userSpaceOnUse" id="gradient1" r="819.2" spreadMethod="pad">
      <stop offset="0.0" stop-color="#727272"/>
      <stop offset="1.0" stop-color="#000000"/>
    </radialGradient>
    <radialGradient cx="0" cy="0" gradientTransform="matrix(0.0622, 0.0, 0.0, 0.0622, -287.95, -242.55)" gradientUnits="userSpaceOnUse" id="gradient2" r="819.2" spreadMethod="pad">
      <stop offset="0.0" stop-color="#737373"/>
      <stop offset="1.0" stop-color="#1a1a1a"/>
    </radialGradient>
    <radialGradient cx="0" cy="0" gradientTransform="matrix(0.0322, 0.0, 0.0, 0.0322, -243.95, -268.75)" gradientUnits="userSpaceOnUse" id="gradient3" r="819.2" spreadMethod="pad">
      <stop offset="0.0" stop-color="#000000"/>
      <stop offset="1.0" stop-color="#000000"/>
    </radialGradient>
    <radialGradient cx="0" cy="0" gradientTransform="matrix(0.0634, 0.0, 0.0, 0.0634, -263.4, -266.6)" gradientUnits="userSpaceOnUse" id="gradient4" r="819.2" spreadMethod="pad">
      <stop offset="0.0" stop-color="#464646"/>
      <stop offset="1.0" stop-color="#141414"/>
    </radialGradient>
    <radialGradient cx="0" cy="0" gradientTransform="matrix(0.022, 0.0, 0.0, 0.022, -309.35, -259.75)" gradientUnits="userSpaceOnUse" id="gradient5" r="819.2" spreadMethod="pad">
      <stop offset="0.0" stop-color="#0e0e0e"/>
      <stop offset="1.0" stop-color="#010101"/>
    </radialGradient>
    <radialGradient cx="0" cy="0" gradientTransform="matrix(0.0448, 0.0, 0.0, 0.0448, -336.65, -250.95)" gradientUnits="userSpaceOnUse" id="gradient6" r="819.2" spreadMethod="pad">
      <stop offset="0.0" stop-color="#010101"/>
      <stop offset="1.0" stop-color="#000000"/>
    </radialGradient>
    <radialGradient cx="0" cy="0" gradientTransform="matrix(0.125, 0.0, 0.0, 0.125, -286.4, -235.7)" gradientUnits="userSpaceOnUse" id="gradient7" r="819.2" spreadMethod="pad">
      <stop offset="0.0" stop-color="#7f7f7f"/>
      <stop offset="1.0" stop-color="#2d2d2d"/>
    </radialGradient>
    <radialGradient cx="0" cy="0" gradientTransform="matrix(0.0736, 0.0, 0.0, 0.0736, -124.2, -294.45)" gradientUnits="userSpaceOnUse" id="gradient8" r="819.2" spreadMethod="pad">
      <stop offset="0.0" stop-color="#131313"/>
      <stop offset="1.0" stop-color="#000000"/>
    </radialGradient>
    <radialGradient cx="0" cy="0" gradientTransform="matrix(0.0916, 0.0, 0.0, 0.0916, -120.2, -223.15)" gradientUnits="userSpaceOnUse" id="gradient9" r="819.2" spreadMethod="pad">
      <stop offset="0.0" stop-color="#0f0f0f"/>
      <stop offset="1.0" stop-color="#000000"/>
    </radialGradient>
    <radialGradient cx="0" cy="0" gradientTransform="matrix(0.0261, 0.0, 0.0, 0.0261, -124.2, -294.45)" gradientUnits="userSpaceOnUse" id="gradient10" r="819.2" spreadMethod="pad">
      <stop offset="0.0" stop-color="#131313"/>
      <stop offset="1.0" stop-color="#0b0b0b"/>
    </radialGradient>
    <radialGradient cx="0" cy="0" gradientTransform="matrix(0.0792, 0.0, 0.0, 0.0792, -286.4, -235.7)" gradientUnits="userSpaceOnUse" id="gradient11" r="819.2" spreadMethod="pad">
      <stop offset="0.0" stop-color="#7f7f7f"/>
      <stop offset="1.0" stop-color="#000000"/>
    </radialGradient>
    <radialGradient cx="0" cy="0" gradientTransform="matrix(0.1692, 0.0, 0.0, 0.1692, -358.65, -178.95)" gradientUnits="userSpaceOnUse" id="gradient12" r="819.2" spreadMethod="pad">
      <stop offset="0.0" stop-color="#565656"/>
      <stop offset="1.0" stop-color="#000000"/>
    </radialGradient>
    <radialGradient cx="0" cy="0" gradientTransform="matrix(0.1448, 0.0, 0.0, 0.1448, -354.5, -188.5)" gradientUnits="userSpaceOnUse" id="gradient13" r="819.2" spreadMethod="pad">
      <stop offset="0.0" stop-color="#292929"/>
      <stop offset="1.0" stop-color="#000000"/>
    </radialGradient>
    <radialGradient cx="0" cy="0" gradientTransform="matrix(0.1912, 0.0, 0.0, 0.1912, -324.7, -206.9)" gradientUnits="userSpaceOnUse" id="gradient14" r="819.2" spreadMethod="pad">
      <stop offset="0.0" stop-color="#363636"/>
      <stop offset="1.0" stop-color="#000000"/>
    </radialGradient>
    <radialGradient cx="0" cy="0" gradientTransform="matrix(0.1171, 0.0, 0.0, 0.1171, -382.55, -130.3)" gradientUnits="userSpaceOnUse" id="gradient15" r="819.2" spreadMethod="pad">
      <stop offset="0.0" stop-color="#5e5e5e"/>
      <stop offset="1.0" stop-color="#060606"/>
    </radialGradient>
    <radialGradient cx="0" cy="0" gradientTransform="matrix(0.0885, 0.0, 0.0, 0.0885, -202.35, -227.45)" gradientUnits="userSpaceOnUse" id="gradient16" r="819.2" spreadMethod="pad">
      <stop offset="0.0" stop-color="#494949"/>
      <stop offset="1.0" stop-color="#171717"/>
    </radialGradient>
    <radialGradient cx="0" cy="0" gradientTransform="matrix(0.0446, 0.0, 0.0, 0.0446, -263.4, -266.6)" gradientUnits="userSpaceOnUse" id="gradient17" r="819.2" spreadMethod="pad">
      <stop offset="0.0" stop-color="#464646"/>
      <stop offset="1.0" stop-color="#000000"/>
    </radialGradient>
    <radialGradient cx="0" cy="0" gradientTransform="matrix(0.2192, 0.0, 0.0, 0.2192, -153.7, -251.85)" gradientUnits="userSpaceOnUse" id="gradient18" r="819.2" spreadMethod="pad">
      <stop offset="0.0" stop-color="#666666"/>
      <stop offset="1.0" stop-color="#000000"/>
    </radialGradient>
    <radialGradient cx="0" cy="0" gradientTransform="matrix(0.0125, 0.0, 0.0, 0.0125, -215.3, -229.15)" gradientUnits="userSpaceOnUse" id="gradient19" r="819.2" spreadMethod="pad">
      <stop offset="0.0" stop-color="#000000"/>
      <stop offset="1.0" stop-color="#000000"/>
    </radialGradient>
    <radialGradient cx="0" cy="0" gradientTransform="matrix(0.0249, 0.0, 0.0, 0.0249, -204.75, -233.8)" gradientUnits="userSpaceOnUse" id="gradient20" r="819.2" spreadMethod="pad">
      <stop offset="0.0" stop-color="#000000"/>
      <stop offset="1.0" stop-color="#000000"/>
    </radialGradient>
    <radialGradient cx="0" cy="0" gradientTransform="matrix(0.1607, 0.0, 0.0, 0.1607, -193.2, -213.85)" gradientUnits="userSpaceOnUse" id="gradient21" r="819.2" spreadMethod="pad">
      <stop offset="0.0" stop-color="#575757"/>
      <stop offset="1.0" stop-color="#3d3d3d"/>
    </radialGradient>
    <radialGradient cx="0" cy="0" gradientTransform="matrix(0.1297, 0.0, 0.0, 0.1297, -155.15, -183.65)" gradientUnits="userSpaceOnUse" id="gradient22" r="819.2" spreadMethod="pad">
      <stop offset="0.0" stop-color="#494949"/>
      <stop offset="1.0" stop-color="#131313"/>
    </radialGradient>
    <radialGradient cx="0" cy="0" gradientTransform="matrix(0.0626, 0.0, 0.0, 0.0626, -374.75, -223.25)" gradientUnits="userSpaceOnUse" id="gradient23" r="819.2" spreadMethod="pad">
      <stop offset="0.0" stop-color="#0f0f0f"/>
      <stop offset="1.0" stop-color="#090909"/>
    </radialGradient>
    <radialGradient cx="0" cy="0" gradientTransform="matrix(0.0736, 0.0, 0.0, 0.0736, -389.2, -76.35)" gradientUnits="userSpaceOnUse" id="gradient24" r="819.2" spreadMethod="pad">
      <stop offset="0.0" stop-color="#212121"/>
      <stop offset="1.0" stop-color="#212121"/>
    </radialGradient>
    <radialGradient cx="0" cy="0" gradientTransform="matrix(0.0553, 0.0, 0.0, 0.0553, -373.25, -70.7)" gradientUnits="userSpaceOnUse" id="gradient25" r="819.2" spreadMethod="pad">
      <stop offset="0.0" stop-color="#b5b5b5"/>
      <stop offset="1.0" stop-color="#6d6d6d"/>
    </radialGradient>
    <radialGradient cx="0" cy="0" gradientTransform="matrix(0.0502, 0.0, 0.0, 0.0502, -384.95, -52.1)" gradientUnits="userSpaceOnUse" id="gradient26" r="819.2" spreadMethod="pad">
      <stop offset="0.0" stop-color="#787878"/>
      <stop offset="1.0" stop-color="#040404"/>
    </radialGradient>
    <radialGradient cx="0" cy="0" gradientTransform="matrix(0.0326, 0.0, 0.0, 0.0326, -385.45, -43.9)" gradientUnits="userSpaceOnUse" id="gradient27" r="819.2" spreadMethod="pad">
      <stop offset="0.0" stop-color="#565656"/>
      <stop offset="1.0" stop-color="#020202"/>
    </radialGradient>
    <radialGradient cx="0" cy="0" gradientTransform="matrix(0.0623, 0.0, 0.0, 0.0623, -372.7, -39.5)" gradientUnits="userSpaceOnUse" id="gradient28" r="819.2" spreadMethod="pad">
      <stop offset="0.0" stop-color="#b6b6b6"/>
      <stop offset="1.0" stop-color="#2a2a2a"/>
    </radialGradient>
    <radialGradient cx="0" cy="0" gradientTransform="matrix(0.1388, 0.0, 0.0, 0.1388, -329.4, -184.3)" gradientUnits="userSpaceOnUse" id="gradient29" r="819.2" spreadMethod="pad">
      <stop offset="0.0" stop-color="#808080"/>
      <stop offset="1.0" stop-color="#040404"/>
    </radialGradient>
    <radialGradient cx="0" cy="0" gradientTransform="matrix(0.1507, 0.0, 0.0, 0.1507, -121.3, -201.45)" gradientUnits="userSpaceOnUse" id="gradient30" r="819.2" spreadMethod="pad">
      <stop offset="0.0" stop-color="#040404"/>
      <stop offset="1.0" stop-color="#000000"/>
    </radialGradient>
    <radialGradient cx="0" cy="0" gradientTransform="matrix(0.0203, 0.0, 0.0, 0.0203, -141.4, -81.85)" gradientUnits="userSpaceOnUse" id="gradient31" r="819.2" spreadMethod="pad">
      <stop offset="0.0" stop-color="#000000"/>
      <stop offset="1.0" stop-color="#000000"/>
    </radialGradient>
    <radialGradient cx="0" cy="0" gradientTransform="matrix(0.1499, 0.0, 0.0, 0.1499, -195.85, -213.75)" gradientUnits="userSpaceOnUse" id="gradient32" r="819.2" spreadMethod="pad">
      <stop offset="0.0" stop-color="#030303"/>
      <stop offset="1.0" stop-color="#010101"/>
    </radialGradient>
    <radialGradient cx="0" cy="0" gradientTransform="matrix(0.0314, 0.0, 0.0, 0.0314, -205.9, -91.4)" gradientUnits="userSpaceOnUse" id="gradient33" r="819.2" spreadMethod="pad">
      <stop offset="0.0" stop-color="#030303"/>
      <stop offset="1.0" stop-color="#000000"/>
    </radialGradient>
    <radialGradient cx="0" cy="0" gradientTransform="matrix(0.0302, 0.0, 0.0, 0.0302, -204.0, -88.95)" gradientUnits="userSpaceOnUse" id="gradient34" r="819.2" spreadMethod="pad">
      <stop offset="0.0" stop-color="#4d4d4d"/>
      <stop offset="1.0" stop-color="#2e2e2e"/>
    </radialGradient>
    <radialGradient cx="0" cy="0" gradientTransform="matrix(0.0897, 0.0, 0.0, 0.0897, -204.7, -73.95)" gradientUnits="userSpaceOnUse" id="gradient35" r="819.2" spreadMethod="pad">
      <stop offset="0.0" stop-color="#383838"/>
      <stop offset="1.0" stop-color="#020202"/>
    </radialGradient>
    <radialGradient cx="0" cy="0" gradientTransform="matrix(0.0255, 0.0, 0.0, 0.0255, -204.7, -73.95)" gradientUnits="userSpaceOnUse" id="gradient36" r="819.2" spreadMethod="pad">
      <stop offset="0.0" stop-color="#383838"/>
      <stop offset="1.0" stop-color="#040404"/>
    </radialGradient>
    <radialGradient cx="0" cy="0" gradientTransform="matrix(0.0168, 0.0, 0.0, 0.0168, -204.85, -65.45)" gradientUnits="userSpaceOnUse" id="gradient37" r="819.2" spreadMethod="pad">
      <stop offset="0.0" stop-color="#000000"/>
      <stop offset="1.0" stop-color="#000000"/>
    </radialGradient>
    <radialGradient cx="0" cy="0" gradientTransform="matrix(0.0948, 0.0, 0.0, 0.0948, -189.05, -69.2)" gradientUnits="userSpaceOnUse" id="gradient38" r="819.2" spreadMethod="pad">
      <stop offset="0.0" stop-color="#1c1c1c"/>
      <stop offset="1.0" stop-color="#000000"/>
    </radialGradient>
    <radialGradient cx="0" cy="0" gradientTransform="matrix(0.0539, 0.0, 0.0, 0.0539, -187.15, -82.35)" gradientUnits="userSpaceOnUse" id="gradient39" r="819.2" spreadMethod="pad">
      <stop offset="0.0" stop-color="#393939"/>
      <stop offset="1.0" stop-color="#000000"/>
    </radialGradient>
    <radialGradient cx="0" cy="0" gradientTransform="matrix(0.0276, 0.0, 0.0, 0.0276, -381.65, -32.7)" gradientUnits="userSpaceOnUse" id="gradient40" r="819.2" spreadMethod="pad">
      <stop offset="0.0" stop-color="#424242"/>
      <stop offset="1.0" stop-color="#000000"/>
    </radialGradient>
    <radialGradient cx="0" cy="0" gradientTransform="matrix(0.0455, 0.0, 0.0, 0.0455, -396.95, -16.2)" gradientUnits="userSpaceOnUse" id="gradient41" r="819.2" spreadMethod="pad">
      <stop offset="0.0" stop-color="#d9d9d9"/>
      <stop offset="1.0" stop-color="#3a3a3a"/>
    </radialGradient>
    <radialGradient cx="0" cy="0" gradientTransform="matrix(0.0631, 0.0, 0.0, 0.0631, -327.4, -47.0)" gradientUnits="userSpaceOnUse" id="gradient42" r="819.2" spreadMethod="pad">
      <stop offset="0.0" stop-color="#121212"/>
      <stop offset="1.0" stop-color="#121212"/>
    </radialGradient>
    <radialGradient cx="0" cy="0" gradientTransform="matrix(0.0585, 0.0, 0.0, 0.0585, -327.4, -47.0)" gradientUnits="userSpaceOnUse" id="gradient43" r="819.2" spreadMethod="pad">
      <stop offset="0.0" stop-color="#717171"/>
      <stop offset="1.0" stop-color="#707070"/>
    </radialGradient>
    <radialGradient cx="0" cy="0" gradientTransform="matrix(0.0587, 0.0, 0.0, 0.0587, -318.2, -41.65)" gradientUnits="userSpaceOnUse" id="gradient44" r="819.2" spreadMethod="pad">
      <stop offset="0.0" stop-color="#121212"/>
      <stop offset="1.0" stop-color="#121212"/>
    </radialGradient>
    <radialGradient cx="0" cy="0" gradientTransform="matrix(0.028, 0.0, 0.0, 0.028, -366.05, -49.45)" gradientUnits="userSpaceOnUse" id="gradient45" r="819.2" spreadMethod="pad">
      <stop offset="0.0" stop-color="#000000"/>
      <stop offset="1.0" stop-color="#000000"/>
    </radialGradient>
    <radialGradient cx="0" cy="0" gradientTransform="matrix(0.0164, 0.0, 0.0, 0.0164, -350.05, -29.5)" gradientUnits="userSpaceOnUse" id="gradient46" r="819.2" spreadMethod="pad">
      <stop offset="0.0" stop-color="#dedede"/>
      <stop offset="1.0" stop-color="#313131"/>
    </radialGradient>
    <radialGradient cx="0" cy="0" gradientTransform="matrix(0.031, 0.0, 0.0, 0.031, -377.3, -26.3)" gradientUnits="userSpaceOnUse" id="gradient47" r="819.2" spreadMethod="pad">
      <stop offset="0.0" stop-color="#979797"/>
      <stop offset="1.0" stop-color="#949494"/>
    </radialGradient>
    <radialGradient cx="0" cy="0" gradientTransform="matrix(0.0195, 0.0, 0.0, 0.0195, -371.65, -30.05)" gradientUnits="userSpaceOnUse" id="gradient48" r="819.2" spreadMethod="pad">
      <stop offset="0.0" stop-color="#212121"/>
      <stop offset="1.0" stop-color="#212121"/>
    </radialGradient>
    <radialGradient cx="0" cy="0" gradientTransform="matrix(0.0298, 0.0, 0.0, 0.0298, -348.0, -25.05)" gradientUnits="userSpaceOnUse" id="gradient49" r="819.2" spreadMethod="pad">
      <stop offset="0.0" stop-color="#b3b3b3"/>
      <stop offset="1.0" stop-color="#5f5f5f"/>
    </radialGradient>
    <radialGradient cx="0" cy="0" gradientTransform="matrix(0.0585, 0.0, 0.0, 0.0585, -332.55, -43.4)" gradientUnits="userSpaceOnUse" id="gradient50" r="819.2" spreadMethod="pad">
      <stop offset="0.0" stop-color="#121212"/>
      <stop offset="1.0" stop-color="#121212"/>
    </radialGradient>
    <radialGradient cx="0" cy="0" gradientTransform="matrix(0.0897, 0.0, 0.0, 0.0897, -400.0, -14.2)" gradientUnits="userSpaceOnUse" id="gradient51" r="819.2" spreadMethod="pad">
      <stop offset="0.0" stop-color="#121212"/>
      <stop offset="1.0" stop-color="#121212"/>
    </radialGradient>
    <radialGradient cx="0" cy="0" gradientTransform="matrix(0.0585, 0.0, 0.0, 0.0585, -331.15, -44.4)" gradientUnits="userSpaceOnUse" id="gradient52" r="819.2" spreadMethod="pad">
      <stop offset="0.0" stop-color="#121212"/>
      <stop offset="1.0" stop-color="#121212"/>
    </radialGradient>
    <radialGradient cx="0" cy="0" gradientTransform="matrix(0.0065, 0.0, 0.0, 0.0065, -372.1, -27.15)" gradientUnits="userSpaceOnUse" id="gradient53" r="819.2" spreadMethod="pad">
      <stop offset="0.0" stop-color="#474747"/>
      <stop offset="1.0" stop-color="#3d3d3d"/>
    </radialGradient>
    <radialGradient cx="0" cy="0" gradientTransform="matrix(0.0449, 0.0, 0.0, 0.0449, -396.95, -16.2)" gradientUnits="userSpaceOnUse" id="gradient54" r="819.2" spreadMethod="pad">
      <stop offset="0.0" stop-color="#d9d9d9"/>
      <stop offset="1.0" stop-color="#212121"/>
    </radialGradient>
    <radialGradient cx="0" cy="0" gradientTransform="matrix(0.0186, 0.0, 0.0, 0.0186, -385.9, -22.65)" gradientUnits="userSpaceOnUse" id="gradient55" r="819.2" spreadMethod="pad">
      <stop offset="0.0" stop-color="#121212"/>
      <stop offset="1.0" stop-color="#121212"/>
    </radialGradient>
  </defs>
</svg>
