<?xml version="1.0" encoding="UTF-8" standalone="no"?>
<svg xmlns:xlink="http://www.w3.org/1999/xlink" height="299.1px" width="290.35px" xmlns="http://www.w3.org/2000/svg">
  <g transform="matrix(1.0, 0.0, 0.0, 1.0, 400.0, 300.0)">
    <path d="M-251.25 -300.0 L-261.9 -266.65 -262.75 -264.65 -262.75 -265.75 -262.65 -266.65 -256.65 -300.0 -251.25 -300.0" fill="url(#gradient0)" fill-rule="evenodd" stroke="none"/>
    <path d="M-144.75 -242.9 L-147.0 -235.25 -162.9 -238.4 -182.5 -240.65 -195.65 -247.0 -212.75 -246.0 -227.0 -248.0 -262.65 -263.0 -262.9 -263.15 -263.15 -263.25 -263.0 -263.65 -263.0 -264.0 -262.9 -264.4 -262.75 -264.65 -261.9 -266.65 -251.25 -300.0 -129.4 -300.0 -130.15 -295.9 -144.75 -242.9" fill="url(#gradient1)" fill-rule="evenodd" stroke="none"/>
    <path d="M-262.75 -264.65 L-262.9 -264.4 -263.0 -264.0 -270.5 -271.5 -264.0 -278.0 -263.75 -277.65 -264.5 -274.75 -262.75 -265.75 -262.75 -264.65 M-251.15 -245.75 L-251.9 -245.5 -265.0 -250.75 -261.65 -261.75 -261.25 -261.4 -258.0 -254.0 -251.15 -245.75" fill="url(#gradient2)" fill-rule="evenodd" stroke="none"/>
    <path d="M-260.4 -260.5 L-251.15 -245.75 -258.0 -254.0 -261.25 -261.4 -260.4 -260.5 M-262.75 -265.75 L-264.5 -274.75 -263.75 -277.65 -262.65 -266.65 -262.75 -265.75" fill="url(#gradient3)" fill-rule="evenodd" stroke="none"/>
    <path d="M-263.0 -264.0 L-263.0 -263.65 -263.15 -263.25 -310.0 -256.9 -310.25 -257.0 -316.25 -267.75 -289.15 -284.9 -276.5 -299.9 -256.65 -300.0 -262.65 -266.65 -263.75 -277.65 -264.0 -278.0 -270.5 -271.5 -263.0 -264.0" fill="url(#gradient4)" fill-rule="evenodd" stroke="none"/>
    <path d="M-327.0 -261.65 L-326.9 -261.65 -326.4 -262.15 -326.0 -262.4 -324.4 -263.75 -316.25 -267.75 -310.25 -257.0 -328.5 -260.0 -327.0 -261.65" fill="url(#gradient5)" fill-rule="evenodd" stroke="none"/>
    <path d="M-370.9 -231.9 L-367.9 -234.5 -335.15 -255.15 -327.0 -261.65 -328.5 -260.0 -337.9 -249.15 -338.25 -248.65 -338.4 -248.5 -370.9 -231.9" fill="url(#gradient6)" fill-rule="evenodd" stroke="none"/>
    <path d="M-377.4 -220.65 L-377.5 -221.0 -372.75 -229.5 -371.15 -231.75 -370.9 -231.9 -338.4 -248.5 -338.25 -248.65 -337.9 -249.15 -328.5 -260.0 -310.25 -257.0 -310.0 -256.9 -286.65 -232.5 -279.0 -229.5 -325.75 -190.5 -342.5 -182.15 -358.15 -177.25 -359.5 -178.0 -362.4 -181.65 -369.15 -186.9 -369.9 -191.15 -372.5 -200.75 -372.9 -200.75 -373.4 -198.5 -377.4 -220.65" fill="url(#gradient7)" fill-rule="evenodd" stroke="none"/>
    <path d="M-128.4 -293.9 L-144.75 -242.9 -130.15 -295.9 -129.4 -300.0 -123.4 -300.0 -124.5 -291.15 -128.25 -294.15 -128.4 -293.9" fill="url(#gradient8)" fill-rule="evenodd" stroke="none"/>
    <path d="M-128.4 -293.9 L-124.75 -281.75 -121.9 -270.9 -118.0 -234.0 -120.4 -221.65 -122.0 -198.5 -123.5 -200.65 -133.75 -207.75 Q-135.75 -209.65 -132.75 -224.25 L-136.0 -228.75 -145.4 -228.0 -146.25 -227.4 -146.75 -222.75 -150.0 -218.75 -154.9 -221.9 -153.25 -228.75 -147.0 -235.25 -144.75 -242.9 -128.4 -293.9 M-134.15 -244.4 L-133.4 -245.5 -140.25 -246.65 -140.4 -246.4 -140.4 -245.0 -134.15 -244.4" fill="url(#gradient9)" fill-rule="evenodd" stroke="none"/>
    <path d="M-124.75 -281.75 L-128.4 -293.9 -128.25 -294.15 -124.5 -291.15 -124.75 -281.75" fill="url(#gradient10)" fill-rule="evenodd" stroke="none"/>
    <path d="M-263.15 -263.25 L-262.9 -263.15 -262.65 -263.0 -261.65 -262.0 -261.65 -261.75 -265.0 -250.75 -251.9 -245.5 -251.15 -245.75 -260.4 -260.5 -239.9 -240.9 Q-239.65 -240.25 -235.4 -239.4 L-230.9 -233.5 -221.65 -229.65 -223.75 -229.5 -235.0 -229.0 -270.4 -227.25 -279.0 -229.5 -286.65 -232.5 -310.0 -256.9 -263.15 -263.25" fill="url(#gradient11)" fill-rule="evenodd" stroke="none"/>
    <path d="M-147.0 -235.25 L-153.25 -228.75 -154.9 -221.9 -170.75 -225.9 -187.4 -225.25 -202.5 -224.25 -216.25 -226.4 -216.4 -226.4 -221.65 -229.65 -230.9 -233.5 -235.4 -239.4 -261.25 -261.4 -261.65 -261.75 -261.65 -262.0 -262.65 -263.0 -227.0 -248.0 -212.75 -246.0 -195.65 -247.0 -182.5 -240.65 -162.9 -238.4 -147.0 -235.25 M-185.9 -226.4 L-184.4 -227.75 -202.5 -230.0 -185.9 -226.4" fill="url(#gradient12)" fill-rule="evenodd" stroke="none"/>
    <path d="M-235.4 -239.4 Q-239.65 -240.25 -239.9 -240.9 L-260.4 -260.5 -261.25 -261.4 -235.4 -239.4" fill="url(#gradient13)" fill-rule="evenodd" stroke="none"/>
    <path d="M-150.0 -218.75 L-146.75 -222.75 -146.25 -227.4 -145.4 -228.0 -136.0 -228.75 -132.75 -224.25 Q-135.75 -209.65 -133.75 -207.75 L-138.75 -207.4 Q-149.4 -215.25 -150.0 -218.75 M-134.15 -244.4 L-140.4 -245.0 -140.4 -246.4 -140.25 -246.65 -133.4 -245.5 -134.15 -244.4 M-148.25 -208.9 L-157.75 -214.25 -160.75 -219.25 -157.0 -218.9 -147.5 -211.25 -146.4 -209.4 -147.25 -208.75 -148.25 -208.9 M-155.4 -74.75 L-149.75 -70.75 -149.9 -70.4 -155.4 -69.5 -157.75 -69.5 -156.65 -74.75 -155.4 -74.75 M-167.0 -69.75 L-164.5 -74.75 -163.25 -69.5 -167.0 -69.75" fill="url(#gradient14)" fill-rule="evenodd" stroke="none"/>
    <path d="M-386.65 -82.25 L-386.5 -82.75 -386.5 -83.15 -386.4 -84.15 -386.4 -84.5 -386.25 -85.4 -386.25 -85.75 -386.15 -86.75 -386.15 -87.15 -386.0 -88.0 -386.0 -88.4 -385.9 -89.4 -385.9 -89.75 -385.75 -90.65 -385.75 -91.0 -385.65 -92.0 -385.65 -92.4 -385.5 -93.25 -385.5 -93.65 -385.4 -94.65 -385.4 -95.0 -385.25 -95.9 -385.25 -96.25 -385.15 -97.25 -385.15 -97.65 -385.0 -98.5 -385.0 -99.25 -384.9 -99.9 -385.15 -127.5 -386.9 -140.4 -387.0 -143.65 -385.65 -157.25 -382.75 -203.5 -377.9 -217.5 -377.75 -216.9 -377.75 -217.9 -377.75 -218.0 -377.65 -218.25 -377.4 -220.65 -373.4 -198.5 -373.65 -192.75 -372.25 -182.25 -373.65 -176.65 -374.15 -175.9 -376.65 -163.25 -381.9 -101.65 -381.75 -99.65 -384.5 -73.75 -387.0 -77.0 -386.65 -82.25" fill="url(#gradient15)" fill-rule="evenodd" stroke="none"/>
    <path d="M-377.9 -217.5 L-377.75 -217.9 -377.75 -216.9 -377.9 -217.5" fill="url(#gradient16)" fill-rule="evenodd" stroke="none"/>
    <path d="M-335.75 -82.25 L-333.65 -81.5 Q-331.0 -78.15 -331.15 -77.4 -333.15 -73.4 -333.9 -73.25 L-340.4 -70.15 -340.15 -70.65 -340.5 -71.4 -341.5 -72.65 -343.25 -69.4 -350.65 -67.65 -361.65 -66.75 -375.4 -67.4 -385.9 -69.9 -391.75 -73.15 -393.0 -76.4 -393.0 -76.5 -393.15 -76.75 -392.75 -77.65 -389.75 -81.0 -386.65 -82.25 -387.0 -77.0 -384.5 -73.75 -384.4 -73.25 -380.5 -72.5 -377.5 -71.5 -371.0 -70.5 -368.0 -70.4 -362.5 -70.25 -357.5 -70.9 -354.15 -71.0 -347.25 -73.0 -345.65 -73.5 -340.4 -74.9 -340.0 -75.4 -335.9 -81.0 -335.75 -82.25" fill="url(#gradient17)" fill-rule="evenodd" stroke="none"/>
    <path d="M-331.15 -77.4 L-331.0 -66.65 Q-333.0 -62.4 -333.75 -62.25 L-338.0 -59.9 -340.65 -58.9 -340.5 -64.25 -340.9 -68.4 -340.9 -69.9 -340.4 -70.15 -333.9 -73.25 Q-333.15 -73.4 -331.15 -77.4 M-388.25 -60.15 Q-394.15 -61.65 -393.0 -76.4 L-391.75 -73.15 -385.9 -69.9 -375.4 -67.4 -361.65 -66.75 -350.65 -67.65 -343.25 -69.4 -346.5 -63.15 -351.65 -61.9 -353.65 -56.0 Q-379.75 -54.15 -388.15 -60.15 L-388.25 -60.15" fill="url(#gradient18)" fill-rule="evenodd" stroke="none"/>
    <path d="M-388.4 -53.5 L-388.65 -58.0 -388.25 -60.15 -388.15 -60.15 Q-379.75 -54.15 -353.65 -56.0 -352.9 -52.65 -366.15 -45.15 L-369.0 -46.65 -372.25 -47.15 -374.75 -45.5 -376.4 -47.0 -381.65 -48.75 -382.5 -48.25 -386.5 -51.0 -387.0 -50.5 -387.4 -50.65 -387.9 -52.0 -387.65 -52.65 -387.9 -53.5 -388.4 -53.5" fill="url(#gradient19)" fill-rule="evenodd" stroke="none"/>
    <path d="M-388.9 -51.75 L-388.4 -53.5 -387.9 -53.5 -387.65 -52.65 -387.9 -52.0 -387.4 -50.65 -387.0 -50.5 -386.5 -51.0 -382.5 -48.25 -381.65 -48.75 -376.4 -47.0 -374.75 -45.5 -372.25 -47.15 -369.0 -46.65 -366.15 -45.15 -374.4 -40.0 -381.75 -36.0 -383.4 -33.65 -385.75 -36.5 Q-387.25 -40.4 -387.9 -40.5 L-388.9 -44.9 -388.9 -51.75" fill="url(#gradient20)" fill-rule="evenodd" stroke="none"/>
    <path d="M-333.75 -62.25 Q-334.65 -61.15 -331.65 -58.75 L-331.65 -44.25 -331.5 -43.5 Q-331.0 -40.15 -334.0 -35.75 L-339.65 -32.4 -340.25 -32.0 -339.4 -30.9 -336.5 -32.0 -340.4 -29.5 -342.9 -28.65 -349.25 -26.75 -343.5 -29.15 -342.25 -30.9 -342.5 -31.25 -343.15 -31.0 Q-357.0 -26.4 -371.65 -27.65 L-371.9 -27.65 -378.25 -27.0 -379.15 -26.25 -388.5 -20.5 -391.0 -19.75 -391.25 -19.9 -390.15 -23.25 -387.5 -24.9 -386.0 -29.25 -385.75 -29.4 -384.9 -31.0 -383.4 -33.65 -381.75 -36.0 -374.4 -40.0 -366.15 -45.15 Q-352.9 -52.65 -353.65 -56.0 L-351.65 -61.9 -346.5 -63.15 -343.25 -69.4 -341.5 -72.65 -340.5 -71.4 -340.15 -70.65 -340.4 -70.15 -340.9 -69.9 -340.9 -68.4 -340.5 -64.25 -340.65 -58.9 -338.0 -59.9 -333.75 -62.25" fill="url(#gradient21)" fill-rule="evenodd" stroke="none"/>
    <path d="M-330.0 -172.0 L-327.75 -160.65 -326.0 -127.25 -334.25 -96.75 -335.75 -82.25 -335.9 -81.0 -340.0 -75.4 -337.9 -95.25 -338.0 -97.5 -333.5 -139.25 -333.15 -161.15 -329.9 -169.9 -330.0 -172.0" fill="url(#gradient22)" fill-rule="evenodd" stroke="none"/>
    <path d="M-330.15 -172.5 L-330.0 -172.15 -330.0 -172.0 -329.9 -169.9 -333.15 -161.15 -333.5 -139.25 -338.0 -97.5 -337.9 -95.25 -340.0 -75.4 -340.4 -74.9 -345.65 -73.5 -345.75 -73.9 -346.15 -73.75 -347.25 -73.0 -354.15 -71.0 -357.5 -70.9 -357.4 -75.25 -355.0 -96.9 -360.15 -101.5 -365.9 -97.5 -368.0 -70.4 -371.0 -70.5 -371.25 -82.0 -376.9 -99.0 -377.25 -99.15 -377.75 -94.4 -378.75 -89.75 -380.5 -72.5 -384.4 -73.25 -384.5 -73.75 -381.75 -99.65 -381.9 -101.65 -376.65 -163.25 -374.15 -175.9 -373.65 -176.65 -372.25 -182.25 -370.0 -178.75 Q-360.75 -176.75 -359.5 -178.0 L-358.15 -177.25 -345.15 -174.25 -342.15 -173.0 -333.9 -173.25 -330.5 -174.25 -330.15 -172.5" fill="url(#gradient23)" fill-rule="evenodd" stroke="none"/>
    <path d="M-329.75 -174.5 L-330.15 -172.5 -330.5 -174.25 -329.75 -174.5 M-372.25 -182.25 L-373.65 -192.75 -373.4 -198.5 -372.9 -200.75 -372.5 -200.75 -369.9 -191.15 -369.15 -186.9 -362.4 -181.65 -359.5 -178.0 Q-360.75 -176.75 -370.0 -178.75 L-372.25 -182.25 M-380.5 -72.5 L-378.75 -89.75 -377.75 -94.4 -377.25 -99.15 -376.9 -99.0 -371.25 -82.0 -371.0 -70.5 -377.5 -71.5 -380.5 -72.5 M-368.0 -70.4 L-365.9 -97.5 -360.15 -101.5 -355.0 -96.9 -357.4 -75.25 -357.5 -70.9 -362.5 -70.25 -368.0 -70.4 M-347.25 -73.0 L-346.15 -73.75 -345.75 -73.9 -345.65 -73.5 -347.25 -73.0" fill="url(#gradient24)" fill-rule="evenodd" stroke="none"/>
    <path d="M-235.0 -229.0 L-303.25 -184.9 -319.65 -177.65 -329.75 -174.5 -330.5 -174.25 -333.9 -173.25 -342.15 -173.0 -345.15 -174.25 -358.15 -177.25 -342.5 -182.15 -325.75 -190.5 -279.0 -229.5 -270.4 -227.25 -235.0 -229.0" fill="url(#gradient25)" fill-rule="evenodd" stroke="none"/>
    <path d="M-216.4 -226.4 L-223.75 -229.5 -221.65 -229.65 -216.4 -226.4" fill="url(#gradient26)" fill-rule="evenodd" stroke="none"/>
    <path d="M-206.25 -95.5 L-206.15 -112.75 -201.4 -167.65 -196.25 -210.65 -198.5 -218.15 -202.5 -224.25 -187.4 -225.25 -185.9 -209.9 -191.15 -166.4 -196.25 -107.9 -187.15 -79.15 -204.25 -85.75 -206.4 -88.25 -206.4 -88.4 -206.25 -88.75 -206.25 -92.15 -206.25 -95.5" fill="url(#gradient27)" fill-rule="evenodd" stroke="none"/>
    <path d="M-154.9 -221.9 L-150.0 -218.75 Q-149.4 -215.25 -138.75 -207.4 L-133.75 -207.75 -123.5 -200.65 -124.4 -168.25 -128.15 -134.0 -135.0 -101.65 -142.75 -78.0 -143.15 -77.0 -157.65 -76.25 -170.9 -77.15 -187.15 -79.15 -196.25 -107.9 -191.15 -166.4 -185.9 -209.9 -187.4 -225.25 -170.75 -225.9 -154.9 -221.9 M-148.25 -208.9 L-147.25 -208.75 -146.4 -209.4 -147.5 -211.25 -157.0 -218.9 -160.75 -219.25 -157.75 -214.25 -148.25 -208.9" fill="url(#gradient28)" fill-rule="evenodd" stroke="none"/>
    <path d="M-185.9 -226.4 L-202.5 -230.0 -184.4 -227.75 -185.9 -226.4" fill="url(#gradient29)" fill-rule="evenodd" stroke="none"/>
    <path d="M-206.4 -94.4 L-206.25 -95.5 -206.25 -92.15 -206.4 -94.4" fill="url(#gradient30)" fill-rule="evenodd" stroke="none"/>
    <path d="M-206.5 -88.4 L-206.5 -88.5 -206.65 -88.75 -206.75 -89.25 -206.4 -94.4 -206.25 -92.15 -206.25 -88.75 -206.4 -88.4 -206.5 -88.4" fill="url(#gradient31)" fill-rule="evenodd" stroke="none"/>
    <path d="M-206.4 -87.75 L-206.5 -88.4 -206.4 -88.4 -206.4 -88.25 -206.4 -87.75" fill="url(#gradient32)" fill-rule="evenodd" stroke="none"/>
    <path d="M-206.25 -87.0 L-206.4 -87.75 -206.4 -88.25 -206.25 -87.0" fill="url(#gradient33)" fill-rule="evenodd" stroke="none"/>
    <path d="M-123.5 -200.65 L-122.0 -198.5 -122.0 -166.25 -125.75 -137.25 -133.0 -103.25 -142.25 -78.5 -142.4 -78.25 -142.4 -78.15 -142.75 -78.0 -135.0 -101.65 -128.15 -134.0 -124.4 -168.25 -123.5 -200.65" fill="url(#gradient34)" fill-rule="evenodd" stroke="none"/>
    <path d="M-142.75 -78.0 L-142.4 -78.15 -146.75 -69.4 -143.15 -77.0 -142.75 -78.0" fill="url(#gradient35)" fill-rule="evenodd" stroke="none"/>
    <path d="M-187.15 -79.15 L-189.15 -66.15 -204.9 -70.75 -206.15 -86.4 -206.25 -86.9 -206.25 -87.0 -206.4 -88.25 -204.25 -85.75 -187.15 -79.15" fill="url(#gradient36)" fill-rule="evenodd" stroke="none"/>
    <path d="M-198.15 -0.9 L-214.25 -0.9 -213.0 -10.9 -213.25 -23.0 -211.65 -37.0 -205.75 -61.15 -205.75 -59.65 -205.65 -61.65 -205.65 -62.0 -205.0 -68.15 -204.9 -65.15 -204.9 -69.75 -204.9 -70.75 -189.15 -66.15 -191.9 -53.25 -192.9 -36.65 -195.5 -15.0 -198.15 -0.9" fill="url(#gradient37)" fill-rule="evenodd" stroke="none"/>
    <path d="M-205.0 -68.15 L-204.9 -69.75 -204.9 -65.15 -205.0 -68.15" fill="url(#gradient38)" fill-rule="evenodd" stroke="none"/>
    <path d="M-205.75 -61.15 L-205.65 -61.65 -205.75 -59.65 -205.75 -61.15" fill="url(#gradient39)" fill-rule="evenodd" stroke="none"/>
    <path d="M-189.15 -66.15 L-172.0 -63.65 -161.4 -63.0 -149.25 -64.25 -147.0 -50.0 -146.15 -34.65 -148.65 -15.15 -151.5 -0.9 -198.15 -0.9 -195.5 -15.0 -192.9 -36.65 -191.9 -53.25 -189.15 -66.15" fill="url(#gradient40)" fill-rule="evenodd" stroke="none"/>
    <path d="M-143.15 -77.0 L-146.75 -69.4 -146.9 -69.15 -147.0 -68.9 -147.15 -68.65 -147.25 -68.4 -147.4 -68.15 -147.5 -67.9 -147.65 -67.65 -147.75 -67.4 -147.9 -67.15 -149.25 -64.25 -161.4 -63.0 -172.0 -63.65 -189.15 -66.15 -187.15 -79.15 -170.9 -77.15 -157.65 -76.25 -143.15 -77.0 M-155.4 -74.75 L-156.65 -74.75 -157.75 -69.5 -155.4 -69.5 -149.9 -70.4 -149.75 -70.75 -155.4 -74.75 M-167.0 -69.75 L-163.25 -69.5 -164.5 -74.75 -167.0 -69.75" fill="url(#gradient41)" fill-rule="evenodd" stroke="none"/>
    <path d="M-400.0 -19.65 L-400.0 -42.25 -395.15 -46.4 -394.9 -46.65 -391.75 -49.4 -388.9 -51.75 -388.9 -44.9 -387.9 -40.5 -387.65 -35.5 -384.9 -31.0 -385.75 -29.4 -386.0 -29.25 -387.5 -24.9 -390.15 -23.25 -391.25 -19.9 -391.0 -19.75 -393.5 -18.5 -398.25 -18.65 -400.0 -19.65" fill="url(#gradient42)" fill-rule="evenodd" stroke="none"/>
    <path d="M-376.4 -22.25 L-377.15 -21.75 -377.25 -22.0 -376.4 -22.25 M-393.25 -15.15 L-393.5 -15.0 -396.4 -12.4 -399.15 -12.75 -399.75 -13.0 -393.25 -15.75 -392.9 -15.75 -393.25 -15.15 M-400.0 -15.25 L-400.0 -19.65 -398.25 -18.65 -393.5 -18.5 -400.0 -15.25 M-400.0 -42.25 L-400.0 -48.65 Q-392.75 -50.25 -391.75 -49.4 L-394.9 -46.65 -395.15 -46.4 -400.0 -42.25" fill="url(#gradient43)" fill-rule="evenodd" stroke="none"/>
    <path d="M-331.65 -44.25 L-329.75 -44.25 -331.5 -43.5 -331.65 -44.25 M-371.9 -27.65 L-374.25 -26.65 -378.25 -27.0 -371.9 -27.65" fill="url(#gradient44)" fill-rule="evenodd" stroke="none"/>
    <path d="M-329.75 -44.25 L-320.15 -40.25 -339.65 -32.4 -334.0 -35.75 Q-331.0 -40.15 -331.5 -43.5 L-329.75 -44.25 M-371.9 -27.65 L-371.65 -27.65 Q-357.0 -26.4 -343.15 -31.0 L-364.5 -22.15 -374.25 -26.65 -371.9 -27.65" fill="url(#gradient45)" fill-rule="evenodd" stroke="none"/>
    <path d="M-364.75 -20.65 L-372.5 -23.9 -374.75 -24.65 -374.9 -24.65 -375.75 -24.9 -376.9 -25.0 -378.0 -24.0 -379.0 -23.15 -400.0 -13.15 -400.0 -15.25 -393.5 -18.5 -391.0 -19.75 -388.5 -20.5 -383.75 -22.75 Q-379.15 -25.4 -379.15 -26.25 L-378.25 -27.0 -374.25 -26.65 -364.5 -22.15 -364.75 -20.65" fill="url(#gradient46)" fill-rule="evenodd" stroke="none"/>
    <path d="M-379.15 -26.25 Q-379.15 -25.4 -383.75 -22.75 L-388.5 -20.5 -379.15 -26.25" fill="url(#gradient47)" fill-rule="evenodd" stroke="none"/>
    <path d="M-320.15 -40.25 L-320.15 -38.9 -336.5 -32.0 -339.4 -30.9 -340.25 -32.0 -339.65 -32.4 -320.15 -40.25 M-353.75 -24.9 L-364.4 -20.5 -364.75 -20.65 -364.5 -22.15 -343.15 -31.0 -342.5 -31.25 -342.25 -30.9 -343.5 -29.15 -349.25 -26.75 -353.75 -24.9" fill="url(#gradient48)" fill-rule="evenodd" stroke="none"/>
    <path d="M-384.9 -31.0 L-387.65 -35.5 -387.9 -40.5 Q-387.25 -40.4 -385.75 -36.5 L-383.4 -33.65 -384.9 -31.0" fill="url(#gradient49)" fill-rule="evenodd" stroke="none"/>
    <path d="M-342.9 -28.65 L-346.4 -22.0 -348.15 -20.65 -350.0 -20.5 -351.4 -21.0 -351.5 -21.0 -353.75 -24.9 -349.25 -26.75 -342.9 -28.65" fill="url(#gradient50)" fill-rule="evenodd" stroke="none"/>
    <path d="M-346.4 -22.0 L-346.15 -0.9 -351.25 -0.9 -351.5 -21.0 -351.4 -21.0 -350.0 -20.5 -348.15 -20.65 -346.4 -22.0" fill="url(#gradient51)" fill-rule="evenodd" stroke="none"/>
    <path d="M-378.0 -24.0 L-375.75 -24.9 -374.9 -24.65 -379.0 -23.15 -378.0 -24.0" fill="url(#gradient52)" fill-rule="evenodd" stroke="none"/>
    <path d="M-372.5 -23.9 L-376.4 -22.25 -377.25 -22.0 -377.15 -21.75 -380.15 -20.65 -382.0 -19.75 -388.15 -17.15 -387.75 -17.5 -388.25 -17.5 -391.25 -16.4 -392.4 -15.75 -391.5 -15.9 -393.25 -15.15 -392.9 -15.75 -393.25 -15.75 -399.75 -13.0 -399.15 -12.75 -400.0 -12.4 -400.0 -13.15 -379.0 -23.15 -374.9 -24.65 -374.75 -24.65 -372.5 -23.9" fill="url(#gradient53)" fill-rule="evenodd" stroke="none"/>
    <path d="M-378.0 -24.0 L-376.9 -25.0 -375.75 -24.9 -378.0 -24.0" fill="url(#gradient54)" fill-rule="evenodd" stroke="none"/>
    <path d="M-377.15 -21.75 L-377.5 -20.75 -377.75 -20.9 -377.15 -21.75" fill="url(#gradient55)" fill-rule="evenodd" stroke="none"/>
    <path d="M-380.15 -20.65 L-378.4 -19.9 -382.0 -19.75 -380.15 -20.65 M-388.15 -17.15 L-388.4 -17.0 -388.75 -16.9 -390.4 -16.25 -390.5 -16.25 -390.9 -16.15 -391.4 -15.9 -391.5 -15.9 -392.4 -15.75 -391.25 -16.4 -388.25 -17.5 -387.75 -17.5 -388.15 -17.15" fill="url(#gradient56)" fill-rule="evenodd" stroke="none"/>
    <path d="M-277.4 -300.0 L-277.0 -300.0 -277.5 -299.15 -277.4 -300.0" fill="#fe0000" fill-rule="evenodd" stroke="none"/>
    <path d="M-277.0 -300.0 L-276.4 -300.0 -277.4 -298.9 -277.5 -299.15 -277.0 -300.0" fill="#f80000" fill-rule="evenodd" stroke="none"/>
    <path d="M-313.4 -279.65 L-281.25 -299.75 -277.4 -300.0 -277.5 -299.15 -277.4 -298.9 -277.5 -298.65 -289.15 -284.9 -308.4 -272.75 -313.0 -279.25 -313.4 -279.65" fill="#e20000" fill-rule="evenodd" stroke="none"/>
    <path d="M-400.0 -73.75 L-399.9 -233.75 -396.5 -240.5 -396.5 -240.65 -396.4 -240.85 -396.4 -240.9 -396.15 -241.25 -396.15 -241.4 -395.65 -242.15 -313.4 -279.65 -313.0 -279.25 -308.4 -272.75 -316.25 -267.75 -317.65 -267.0 -317.75 -267.0 -324.4 -263.75 -326.0 -262.4 -326.4 -262.15 -326.9 -261.65 -327.0 -261.65 -335.15 -255.15 -342.5 -250.5 -342.65 -250.5 -343.75 -249.75 -344.4 -249.4 -344.75 -249.15 -345.0 -248.9 -345.15 -248.9 -367.9 -234.5 -370.0 -232.65 -370.0 -232.5 -370.4 -232.4 -370.9 -231.9 -371.15 -231.75 -371.65 -231.25 -377.5 -221.0 -377.4 -220.65 -377.65 -218.25 -377.75 -218.0 -377.75 -217.9 -382.75 -203.5 -382.75 -201.65 -385.75 -156.75 -385.75 -155.75 -387.0 -142.4 -387.0 -141.65 -386.9 -141.4 -386.9 -141.25 -385.15 -127.25 -384.9 -99.9 -385.0 -99.25 -385.0 -98.5 -385.15 -97.65 -385.15 -97.25 -385.25 -96.25 -385.25 -95.9 -385.4 -95.0 -385.4 -94.65 -385.5 -93.65 -385.5 -93.25 -385.65 -92.4 -385.65 -92.0 -385.75 -91.0 -385.75 -90.65 -385.9 -89.75 -385.9 -89.4 -386.0 -88.4 -386.0 -88.0 -386.15 -87.15 -386.15 -86.75 -386.25 -85.75 -386.25 -85.4 -386.4 -84.5 -386.4 -84.15 -386.5 -83.15 -386.5 -82.75 -386.65 -82.25 -389.5 -81.0 -393.0 -77.15 -393.15 -76.75 -393.0 -76.5 -393.0 -73.15 -400.0 -73.75" fill="#ed0000" fill-rule="evenodd" stroke="none"/>
    <path d="M-399.9 -233.75 L-400.0 -235.0 -400.0 -236.25 -396.9 -240.15 -396.4 -240.85 -396.5 -240.65 -396.5 -240.5 -399.9 -233.75" fill="#f00000" fill-rule="evenodd" stroke="none"/>
    <path d="M-276.4 -300.0 L-256.0 -300.0 -256.9 -297.65 -257.75 -294.25 -263.5 -277.5 -263.65 -276.75 -264.0 -276.5 -264.5 -274.9 -264.5 -274.5 -266.75 -267.75 -267.25 -266.75 -267.15 -266.5 -274.4 -245.5 -273.9 -248.5 -274.0 -248.9 -273.75 -249.65 -270.25 -269.0 -270.4 -269.25 -269.9 -270.9 -270.0 -271.15 -269.75 -271.4 -269.9 -272.0 -269.5 -272.75 -264.75 -298.5 -264.9 -299.15 -277.5 -298.65 -277.4 -298.9 -276.4 -300.0" fill="#e80000" fill-opacity="0.9098039" fill-rule="evenodd" stroke="none"/>
    <path d="M-123.4 -300.0 L-124.65 -291.25 -124.9 -282.15 -122.25 -272.9 -122.15 -271.9 -122.25 -271.5 -122.15 -271.15 -121.9 -270.9 -121.9 -269.65 -123.65 -264.0 -123.5 -263.75 -123.75 -263.65 -123.9 -263.4 -123.65 -263.25 -123.9 -263.15 -126.75 -251.0 -126.75 -250.9 -126.9 -250.5 -126.9 -250.4 -133.65 -225.65 -133.65 -225.15 -138.9 -204.65 -139.5 -203.0 -139.5 -202.25 -139.65 -201.5 -140.5 -198.4 -140.9 -198.4 -178.25 -202.75 -178.5 -202.9 -182.0 -203.15 -196.9 -206.15 -196.25 -210.75 -198.5 -218.15 -202.5 -224.25 -212.15 -225.65 -212.65 -225.65 -215.15 -226.0 -216.25 -226.4 -216.4 -226.4 -223.75 -229.5 -235.0 -229.0 -246.9 -221.25 -274.9 -244.15 -274.4 -245.5 -267.15 -266.5 -267.25 -266.75 -266.75 -267.75 -264.5 -274.5 -264.5 -274.9 -264.0 -276.5 -263.65 -276.75 -263.5 -277.5 -257.75 -294.25 -256.9 -297.65 -256.0 -300.0 -123.4 -300.0 M-121.0 -155.9 L-121.0 -151.65 -128.5 -94.9 -130.5 -48.25 -130.9 -0.9 -147.65 -0.9 -149.65 -9.5 -149.0 -13.15 -149.15 -13.5 -148.9 -14.5 -148.9 -15.15 -146.15 -35.0 -146.25 -35.25 -146.15 -37.9 -142.5 -57.25 -137.25 -90.25 -137.4 -91.0 -133.25 -102.4 -133.4 -102.65 -132.25 -107.65 -132.0 -107.75 -132.15 -108.0 -131.9 -108.4 -132.0 -108.75 -126.0 -136.4 -122.0 -166.25 -122.15 -167.0 -122.15 -174.4 -121.0 -155.9 M-214.25 -0.9 L-218.15 -0.9 -214.15 -1.75 -214.25 -0.9 M-279.0 -0.9 L-281.75 -0.9 -278.0 -24.5 -278.0 -25.0 -278.4 -24.9 -282.5 -0.9 -327.0 -0.9 -318.5 -40.0 -312.9 -39.75 -315.65 -54.0 -315.75 -55.75 -309.15 -108.65 -307.15 -146.25 -307.25 -148.25 -307.0 -148.5 -307.15 -148.9 -306.75 -152.15 -303.9 -165.4 -282.5 -196.25 -236.65 -213.0 -234.0 -210.9 -233.5 -210.9 -238.5 -163.75 -249.75 -114.75 -258.5 -66.65 -270.0 -26.75 -279.0 -0.9 M-277.9 -26.0 L-277.75 -26.5 -278.15 -26.4 -277.9 -26.0 M-278.0 -25.15 L-277.9 -25.75 -278.25 -25.65 -278.0 -25.15" fill="#be0000" fill-opacity="0.9098039" fill-rule="evenodd" stroke="none"/>
    <path d="M-274.4 -245.5 L-274.9 -244.15 -276.65 -245.5 -276.75 -245.5 -305.0 -268.25 -308.4 -272.75 -289.15 -284.9 -277.5 -298.65 -264.9 -299.15 -264.75 -298.5 -269.5 -272.75 -269.9 -272.0 -269.75 -271.4 -270.0 -271.15 -269.9 -270.9 -270.4 -269.25 -270.25 -269.0 -273.75 -249.65 -274.0 -248.9 -273.9 -248.5 -274.4 -245.5" fill="#d20000" fill-opacity="0.9098039" fill-rule="evenodd" stroke="none"/>
    <path d="M-116.75 -300.0 L-119.4 -279.5 -121.15 -273.0 -121.65 -272.9 -122.25 -272.9 -124.9 -282.15 -124.65 -291.25 -123.4 -300.0 -116.75 -300.0" fill="#d50000" fill-rule="evenodd" stroke="none"/>
    <path d="M-109.65 -273.75 L-113.4 -276.9 -113.65 -276.65 -113.75 -276.0 -113.9 -275.65 -114.9 -273.4 -115.15 -273.25 -121.15 -273.0 -119.4 -279.5 -116.75 -300.0 -110.75 -300.0 -109.65 -273.75" fill="#cb0000" fill-rule="evenodd" stroke="none"/>
    <path d="M-113.9 -275.65 L-113.75 -276.0 -113.65 -276.65 -113.4 -276.9 -109.65 -273.75 -109.65 -273.65 -114.0 -273.4 -113.9 -275.65" fill="#e50000" fill-rule="evenodd" stroke="none"/>
    <path d="M-113.9 -275.65 L-114.0 -273.4 -114.9 -273.4 -113.9 -275.65" fill="#ba0000" fill-rule="evenodd" stroke="none"/>
    <path d="M-121.15 -273.0 L-115.15 -273.25 -114.9 -273.4 -120.4 -257.65 -121.9 -269.65 -121.9 -270.9 -121.15 -273.0" fill="#c90000" fill-rule="evenodd" stroke="none"/>
    <path d="M-122.25 -272.9 L-121.65 -272.9 -121.15 -273.0 -121.9 -270.9 -122.15 -271.15 -122.25 -271.5 -122.15 -271.9 -122.25 -272.9" fill="#d30000" fill-rule="evenodd" stroke="none"/>
    <path d="M-114.0 -273.4 L-109.65 -273.65 -116.5 -234.65 -114.15 -268.65 -114.25 -269.75 -114.25 -270.15 -114.0 -270.25 -114.15 -270.75 -114.0 -273.4" fill="#e40000" fill-rule="evenodd" stroke="none"/>
    <path d="M-114.15 -270.75 L-114.25 -270.15 -114.25 -269.75 -118.25 -237.75 -120.5 -256.4 -120.4 -257.65 -114.9 -273.4 -114.0 -273.4 -114.15 -270.75 M-120.25 -221.25 L-120.65 -221.5 -120.15 -221.75 -120.0 -221.4 -120.25 -221.25" fill="#b90000" fill-rule="evenodd" stroke="none"/>
    <path d="M-114.25 -270.15 L-114.15 -270.75 -114.0 -270.25 -114.25 -270.15 M-118.25 -237.75 L-114.25 -269.75 -114.15 -268.65 -116.5 -234.65 -117.15 -229.25 -117.0 -229.0 -117.25 -228.9 -117.15 -227.25 -119.5 -196.4 -119.9 -196.4 -122.0 -196.65 -120.75 -217.9 -120.25 -220.9 -120.25 -221.25 -120.0 -221.4 -120.15 -221.75 -118.0 -232.9 -118.15 -233.4 -118.25 -237.75" fill="#b60000" fill-rule="evenodd" stroke="none"/>
    <path d="M-120.5 -256.4 L-118.25 -237.75 -118.15 -233.4 -118.0 -232.9 -120.15 -221.75 -120.65 -221.5 -120.25 -221.25 -120.25 -220.9 -120.75 -217.9 -122.0 -196.65 -140.5 -198.4 -139.65 -201.5 -139.25 -201.75 -139.5 -202.25 -138.5 -204.5 -133.75 -217.9 -133.25 -220.15 -120.5 -256.4" fill="#a30000" fill-opacity="0.9098039" fill-rule="evenodd" stroke="none"/>
    <path d="M-120.4 -257.65 L-120.5 -256.4 -133.25 -220.15 -133.75 -217.9 -138.5 -204.5 -139.5 -202.25 -139.25 -201.75 -139.65 -201.5 -139.5 -202.25 -139.5 -203.0 -138.9 -204.65 -133.65 -225.15 -133.65 -225.65 -126.9 -250.4 -126.9 -250.5 -126.75 -250.9 -126.75 -251.0 -123.9 -263.15 -123.65 -263.25 -123.9 -263.4 -123.75 -263.65 -123.5 -263.75 -123.65 -264.0 -121.9 -269.65 -120.4 -257.65" fill="#b40000" fill-opacity="0.9098039" fill-rule="evenodd" stroke="none"/>
    <path d="M-305.15 -267.9 L-310.15 -257.15 -310.25 -257.0 -310.25 -256.9 -310.65 -256.15 -322.25 -230.4 -322.15 -230.25 -326.9 -219.75 -327.15 -219.5 -331.65 -209.75 -331.65 -209.25 -340.9 -189.15 -341.9 -186.4 -343.15 -184.15 -343.25 -183.65 -344.0 -181.75 -344.25 -181.5 -345.9 -177.15 -347.15 -174.65 -347.4 -173.75 -350.25 -167.0 -350.15 -166.75 -360.0 -142.25 -360.9 -136.65 -360.75 -136.15 -363.65 -114.9 -363.5 -114.5 -364.4 -108.75 -364.9 -98.4 -365.0 -98.0 -364.9 -96.75 -365.75 -78.5 -366.15 -76.65 -366.0 -75.25 -366.4 -70.4 -366.0 -66.9 -365.75 -66.25 -365.25 -64.0 -365.25 -63.4 -364.65 -61.15 -364.65 -60.65 -362.65 -52.9 -362.75 -52.65 -362.4 -51.75 -361.65 -48.0 -361.25 -46.9 -361.0 -45.65 -360.75 -44.9 -360.9 -44.65 -360.4 -43.75 -360.4 -43.5 -360.25 -43.15 -360.25 -41.5 -360.0 -41.4 -359.75 -40.5 -370.4 -45.25 -370.4 -45.4 -370.9 -45.5 -371.4 -45.9 -373.0 -46.5 -376.0 -48.0 -376.75 -48.25 -387.9 -53.4 -388.25 -53.65 -388.4 -53.65 -388.5 -53.75 -388.65 -58.25 -388.5 -58.5 -388.25 -60.15 -391.25 -62.0 -391.5 -62.5 -391.5 -62.75 -392.65 -65.9 -392.75 -68.15 -392.65 -68.5 -393.0 -73.15 -393.0 -76.5 -393.15 -76.75 -393.0 -77.15 -389.5 -81.0 -386.65 -82.25 -386.5 -82.75 -386.5 -83.15 -386.4 -84.15 -386.4 -84.5 -386.25 -85.4 -386.25 -85.75 -386.15 -86.75 -386.15 -87.15 -386.0 -88.0 -386.0 -88.4 -385.9 -89.4 -385.9 -89.75 -385.75 -90.65 -385.75 -91.0 -385.65 -92.0 -385.65 -92.4 -385.5 -93.25 -385.5 -93.65 -385.4 -94.65 -385.4 -95.0 -385.25 -95.9 -385.25 -96.25 -385.15 -97.25 -385.15 -97.65 -385.0 -98.5 -385.0 -99.25 -384.9 -99.9 -385.15 -127.25 -386.9 -141.25 -386.9 -141.4 -387.0 -141.65 -387.0 -142.4 -385.75 -155.75 -385.75 -156.75 -382.75 -201.65 -382.75 -203.5 -377.75 -217.9 -377.75 -218.0 -377.65 -218.25 -377.4 -220.65 -377.5 -221.0 -371.65 -231.25 -371.15 -231.75 -370.9 -231.9 -370.4 -232.4 -370.0 -232.5 -370.0 -232.65 -367.9 -234.5 -345.15 -248.9 -345.0 -248.9 -344.75 -249.15 -344.4 -249.4 -343.75 -249.75 -342.65 -250.5 -342.5 -250.5 -335.15 -255.15 -327.0 -261.65 -326.9 -261.65 -326.4 -262.15 -326.0 -262.4 -324.4 -263.75 -317.75 -267.0 -317.65 -267.0 -316.25 -267.75 -308.4 -272.75 -305.0 -268.25 -305.15 -267.9" fill="#dd0000" fill-opacity="0.9098039" fill-rule="evenodd" stroke="none"/>
    <path d="M-388.5 -53.75 L-400.0 -59.0 -400.0 -73.75 -393.0 -73.15 -392.65 -68.5 -392.75 -68.15 -392.65 -65.9 -391.5 -62.75 -391.5 -62.5 -391.25 -62.0 -388.25 -60.15 -388.5 -58.5 -388.65 -58.25 -388.5 -53.75" fill="#f40000" fill-opacity="0.9098039" fill-rule="evenodd" stroke="none"/>
    <path d="M-151.5 -0.9 L-214.25 -0.9 -214.15 -1.75 -213.0 -10.9 -213.25 -22.0 -211.15 -39.15 -211.0 -39.4 -205.65 -61.65 -205.65 -62.0 -204.9 -69.75 -206.15 -86.4 -206.25 -86.9 -206.25 -87.0 -206.5 -88.25 -206.5 -88.5 -206.65 -88.75 -206.75 -89.25 -206.25 -95.5 -206.15 -112.25 -201.65 -163.4 -201.65 -164.5 -201.5 -164.75 -196.9 -206.15 -182.0 -203.15 -178.5 -202.9 -178.25 -202.75 -140.9 -198.4 -140.5 -198.4 -122.0 -196.65 -122.15 -174.4 -122.15 -167.0 -122.0 -166.25 -126.0 -136.4 -132.0 -108.75 -131.9 -108.4 -132.15 -108.0 -132.0 -107.75 -132.25 -107.65 -133.4 -102.65 -133.25 -102.4 -137.4 -91.0 -142.0 -78.75 -142.75 -78.0 -143.15 -77.0 -149.4 -64.15 -147.25 -50.5 -147.15 -50.15 -146.15 -37.9 -146.25 -35.25 -146.15 -35.0 -148.9 -15.15 -148.9 -14.5 -149.15 -13.5 -149.0 -13.15 -149.65 -9.5 -151.5 -0.9 M-305.5 -183.75 L-305.25 -190.15 -305.4 -192.15 -305.25 -192.5 -305.15 -194.15 -305.25 -194.9 -305.0 -195.5 -305.25 -207.65 -305.0 -208.0 -305.25 -212.5 -305.0 -213.0 -305.0 -251.4 -305.15 -251.9 -305.15 -263.4 -305.0 -264.0 -305.15 -267.9 -305.0 -268.25 -276.75 -245.5 -276.65 -245.5 -274.9 -244.15 -246.9 -221.25 -303.5 -184.9 -304.0 -184.5 -305.5 -183.75" fill="#ac0000" fill-opacity="0.9098039" fill-rule="evenodd" stroke="none"/>
    <path d="M-281.75 -0.9 L-282.5 -0.9 -278.4 -24.9 -278.0 -25.0 -278.0 -24.5 -281.75 -0.9 M-236.65 -213.0 L-282.5 -196.25 -303.9 -165.4 -306.75 -152.15 -305.5 -183.75 -304.0 -184.5 -303.5 -184.9 -246.9 -221.25 -236.65 -213.0 M-315.65 -54.0 L-312.9 -39.75 -318.5 -40.0 -315.65 -54.0 M-278.0 -25.15 L-278.25 -25.65 -277.9 -25.75 -278.0 -25.15 M-277.9 -26.0 L-278.15 -26.4 -277.75 -26.5 -277.9 -26.0" fill="#bc0000" fill-rule="evenodd" stroke="none"/>
    <path d="M-119.5 -196.4 L-121.0 -155.9 -122.15 -174.4 -122.0 -196.65 -119.9 -196.4 -119.5 -196.4" fill="#c10000" fill-rule="evenodd" stroke="none"/>
    <path d="M-246.9 -221.25 L-235.0 -229.0 -223.75 -229.5 -216.4 -226.4 -216.25 -226.4 -215.15 -226.0 -212.65 -225.65 -212.15 -225.65 -202.5 -224.25 -198.5 -218.15 -196.25 -210.75 -196.9 -206.15 -233.5 -210.9 -233.15 -214.25 -236.65 -213.0 -246.9 -221.25" fill="#ce0000" fill-rule="evenodd" stroke="none"/>
    <path d="M-236.65 -213.0 L-233.15 -214.25 -233.5 -210.9 -234.0 -210.9 -236.65 -213.0" fill="#d10000" fill-opacity="0.9098039" fill-rule="evenodd" stroke="none"/>
    <path d="M-318.5 -40.0 L-320.15 -40.25 -329.75 -44.15 -331.65 -44.25 -331.65 -50.75 -331.9 -51.15 -331.65 -51.65 -331.75 -57.5 -331.9 -58.15 -331.75 -58.5 -333.0 -60.15 -333.65 -60.75 -333.75 -62.25 -333.15 -63.0 -333.0 -63.15 -333.0 -63.4 -332.75 -63.75 -332.4 -63.9 -331.0 -66.65 -331.15 -77.4 -333.65 -81.4 -335.75 -82.25 -334.4 -96.0 -334.4 -96.75 -330.25 -111.9 -330.4 -112.15 -330.15 -112.5 -326.25 -127.65 -326.25 -127.9 -326.4 -128.0 -326.25 -129.0 -327.75 -160.5 -330.0 -172.0 -330.0 -172.15 -330.15 -172.5 -329.75 -174.5 -321.9 -176.9 -305.5 -183.75 -306.75 -152.15 -307.15 -148.9 -307.25 -148.25 -316.25 -105.75 -318.4 -69.65 -315.75 -55.75 -315.65 -54.0 -318.5 -40.0" fill="#b10000" fill-opacity="0.9098039" fill-rule="evenodd" stroke="none"/>
    <path d="M-147.65 -0.9 L-151.5 -0.9 -149.65 -9.5 -147.65 -0.9 M-218.15 -0.9 L-279.0 -0.9 -270.0 -26.75 -258.5 -66.65 -249.75 -114.75 -238.5 -163.75 -233.5 -210.9 -196.9 -206.15 -201.5 -164.75 -201.65 -164.5 -201.65 -163.4 -206.15 -112.25 -206.25 -95.5 -206.75 -89.25 -206.65 -88.75 -206.5 -88.5 -206.5 -88.25 -206.25 -87.0 -206.25 -86.9 -206.15 -86.4 -204.9 -69.75 -205.65 -62.0 -205.65 -61.65 -211.0 -39.4 -211.15 -39.15 -213.25 -22.0 -213.0 -10.9 -214.15 -1.75 -218.15 -0.9 M-137.4 -91.0 L-137.25 -90.25 -142.5 -57.25 -146.15 -37.9 -147.15 -50.15 -147.25 -50.5 -149.4 -64.15 -143.15 -77.0 -142.75 -78.0 -142.0 -78.75 -137.4 -91.0" fill="#bd0000" fill-rule="evenodd" stroke="none"/>
  </g>
  <defs>
    <radialGradient cx="0" cy="0" gradientTransform="matrix(0.0471, 0.0, 0.0, 0.0471, -263.0, -263.35)" gradientUnits="userSpaceOnUse" id="gradient0" r="819.2" spreadMethod="pad">
      <stop offset="0.0" stop-color="#464646"/>
      <stop offset="1.0" stop-color="#3b3b3b"/>
    </radialGradient>
    <radialGradient cx="0" cy="0" gradientTransform="matrix(0.1164, 0.0, 0.0, 0.1164, -217.2, -300.0)" gradientUnits="userSpaceOnUse" id="gradient1" r="819.2" spreadMethod="pad">
      <stop offset="0.0" stop-color="#747474"/>
      <stop offset="1.0" stop-color="#000000"/>
    </radialGradient>
    <radialGradient cx="0" cy="0" gradientTransform="matrix(0.0623, 0.0, 0.0, 0.0623, -288.25, -239.55)" gradientUnits="userSpaceOnUse" id="gradient2" r="819.2" spreadMethod="pad">
      <stop offset="0.0" stop-color="#737373"/>
      <stop offset="1.0" stop-color="#1a1a1a"/>
    </radialGradient>
    <radialGradient cx="0" cy="0" gradientTransform="matrix(0.032, 0.0, 0.0, 0.032, -243.95, -265.65)" gradientUnits="userSpaceOnUse" id="gradient3" r="819.2" spreadMethod="pad">
      <stop offset="0.0" stop-color="#000000"/>
      <stop offset="1.0" stop-color="#000000"/>
    </radialGradient>
    <radialGradient cx="0" cy="0" gradientTransform="matrix(0.0652, 0.0, 0.0, 0.0652, -263.0, -263.35)" gradientUnits="userSpaceOnUse" id="gradient4" r="819.2" spreadMethod="pad">
      <stop offset="0.0" stop-color="#464646"/>
      <stop offset="1.0" stop-color="#090909"/>
    </radialGradient>
    <radialGradient cx="0" cy="0" gradientTransform="matrix(0.0229, 0.0, 0.0, 0.0229, -310.05, -257.0)" gradientUnits="userSpaceOnUse" id="gradient5" r="819.2" spreadMethod="pad">
      <stop offset="0.0" stop-color="#0e0e0e"/>
      <stop offset="1.0" stop-color="#010101"/>
    </radialGradient>
    <radialGradient cx="0" cy="0" gradientTransform="matrix(0.0456, 0.0, 0.0, 0.0456, -338.3, -248.6)" gradientUnits="userSpaceOnUse" id="gradient6" r="819.2" spreadMethod="pad">
      <stop offset="0.0" stop-color="#010101"/>
      <stop offset="1.0" stop-color="#000000"/>
    </radialGradient>
    <radialGradient cx="0" cy="0" gradientTransform="matrix(0.127, 0.0, 0.0, 0.127, -286.6, -232.65)" gradientUnits="userSpaceOnUse" id="gradient7" r="819.2" spreadMethod="pad">
      <stop offset="0.0" stop-color="#7f7f7f"/>
      <stop offset="1.0" stop-color="#2d2d2d"/>
    </radialGradient>
    <radialGradient cx="0" cy="0" gradientTransform="matrix(0.0735, 0.0, 0.0, 0.0735, -124.55, -291.15)" gradientUnits="userSpaceOnUse" id="gradient8" r="819.2" spreadMethod="pad">
      <stop offset="0.0" stop-color="#131313"/>
      <stop offset="1.0" stop-color="#000000"/>
    </radialGradient>
    <radialGradient cx="0" cy="0" gradientTransform="matrix(0.1172, 0.0, 0.0, 0.1172, -122.05, -198.5)" gradientUnits="userSpaceOnUse" id="gradient9" r="819.2" spreadMethod="pad">
      <stop offset="0.0" stop-color="#040404"/>
      <stop offset="1.0" stop-color="#000000"/>
    </radialGradient>
    <radialGradient cx="0" cy="0" gradientTransform="matrix(0.0259, 0.0, 0.0, 0.0259, -124.55, -291.15)" gradientUnits="userSpaceOnUse" id="gradient10" r="819.2" spreadMethod="pad">
      <stop offset="0.0" stop-color="#131313"/>
      <stop offset="1.0" stop-color="#0b0b0b"/>
    </radialGradient>
    <radialGradient cx="0" cy="0" gradientTransform="matrix(0.0797, 0.0, 0.0, 0.0797, -286.6, -232.65)" gradientUnits="userSpaceOnUse" id="gradient11" r="819.2" spreadMethod="pad">
      <stop offset="0.0" stop-color="#7f7f7f"/>
      <stop offset="1.0" stop-color="#000000"/>
    </radialGradient>
    <radialGradient cx="0" cy="0" gradientTransform="matrix(0.0878, 0.0, 0.0, 0.0878, -202.5, -224.4)" gradientUnits="userSpaceOnUse" id="gradient12" r="819.2" spreadMethod="pad">
      <stop offset="0.0" stop-color="#494949"/>
      <stop offset="1.0" stop-color="#171717"/>
    </radialGradient>
    <radialGradient cx="0" cy="0" gradientTransform="matrix(0.0447, 0.0, 0.0, 0.0447, -263.0, -263.35)" gradientUnits="userSpaceOnUse" id="gradient13" r="819.2" spreadMethod="pad">
      <stop offset="0.0" stop-color="#464646"/>
      <stop offset="1.0" stop-color="#000000"/>
    </radialGradient>
    <radialGradient cx="0" cy="0" gradientTransform="matrix(0.2187, 0.0, 0.0, 0.2187, -153.55, -248.45)" gradientUnits="userSpaceOnUse" id="gradient14" r="819.2" spreadMethod="pad">
      <stop offset="0.0" stop-color="#666666"/>
      <stop offset="1.0" stop-color="#000000"/>
    </radialGradient>
    <radialGradient cx="0" cy="0" gradientTransform="matrix(0.1178, 0.0, 0.0, 0.1178, -385.15, -127.6)" gradientUnits="userSpaceOnUse" id="gradient15" r="819.2" spreadMethod="pad">
      <stop offset="0.0" stop-color="#5e5e5e"/>
      <stop offset="1.0" stop-color="#060606"/>
    </radialGradient>
    <radialGradient cx="0" cy="0" gradientTransform="matrix(0.063, 0.0, 0.0, 0.063, -377.45, -221.1)" gradientUnits="userSpaceOnUse" id="gradient16" r="819.2" spreadMethod="pad">
      <stop offset="0.0" stop-color="#0f0f0f"/>
      <stop offset="1.0" stop-color="#090909"/>
    </radialGradient>
    <radialGradient cx="0" cy="0" gradientTransform="matrix(0.074, 0.0, 0.0, 0.074, -391.6, -73.25)" gradientUnits="userSpaceOnUse" id="gradient17" r="819.2" spreadMethod="pad">
      <stop offset="0.0" stop-color="#212121"/>
      <stop offset="1.0" stop-color="#212121"/>
    </radialGradient>
    <radialGradient cx="0" cy="0" gradientTransform="matrix(0.0553, 0.0, 0.0, 0.0553, -375.25, -67.55)" gradientUnits="userSpaceOnUse" id="gradient18" r="819.2" spreadMethod="pad">
      <stop offset="0.0" stop-color="#b5b5b5"/>
      <stop offset="1.0" stop-color="#6d6d6d"/>
    </radialGradient>
    <radialGradient cx="0" cy="0" gradientTransform="matrix(0.0509, 0.0, 0.0, 0.0509, -387.5, -49.0)" gradientUnits="userSpaceOnUse" id="gradient19" r="819.2" spreadMethod="pad">
      <stop offset="0.0" stop-color="#787878"/>
      <stop offset="1.0" stop-color="#040404"/>
    </radialGradient>
    <radialGradient cx="0" cy="0" gradientTransform="matrix(0.0331, 0.0, 0.0, 0.0331, -387.85, -40.75)" gradientUnits="userSpaceOnUse" id="gradient20" r="819.2" spreadMethod="pad">
      <stop offset="0.0" stop-color="#565656"/>
      <stop offset="1.0" stop-color="#020202"/>
    </radialGradient>
    <radialGradient cx="0" cy="0" gradientTransform="matrix(0.0627, 0.0, 0.0, 0.0627, -374.7, -36.2)" gradientUnits="userSpaceOnUse" id="gradient21" r="819.2" spreadMethod="pad">
      <stop offset="0.0" stop-color="#b6b6b6"/>
      <stop offset="1.0" stop-color="#2a2a2a"/>
    </radialGradient>
    <radialGradient cx="0" cy="0" gradientTransform="matrix(0.1137, 0.0, 0.0, 0.1137, -327.8, -160.3)" gradientUnits="userSpaceOnUse" id="gradient22" r="819.2" spreadMethod="pad">
      <stop offset="0.0" stop-color="#656565"/>
      <stop offset="1.0" stop-color="#040404"/>
    </radialGradient>
    <radialGradient cx="0" cy="0" gradientTransform="matrix(0.1454, 0.0, 0.0, 0.1454, -356.75, -186.05)" gradientUnits="userSpaceOnUse" id="gradient23" r="819.2" spreadMethod="pad">
      <stop offset="0.0" stop-color="#292929"/>
      <stop offset="1.0" stop-color="#000000"/>
    </radialGradient>
    <radialGradient cx="0" cy="0" gradientTransform="matrix(0.1922, 0.0, 0.0, 0.1922, -327.05, -204.7)" gradientUnits="userSpaceOnUse" id="gradient24" r="819.2" spreadMethod="pad">
      <stop offset="0.0" stop-color="#363636"/>
      <stop offset="1.0" stop-color="#000000"/>
    </radialGradient>
    <radialGradient cx="0" cy="0" gradientTransform="matrix(0.1711, 0.0, 0.0, 0.1711, -360.85, -176.4)" gradientUnits="userSpaceOnUse" id="gradient25" r="819.2" spreadMethod="pad">
      <stop offset="0.0" stop-color="#565656"/>
      <stop offset="1.0" stop-color="#000000"/>
    </radialGradient>
    <radialGradient cx="0" cy="0" gradientTransform="matrix(0.0125, 0.0, 0.0, 0.0125, -215.45, -226.05)" gradientUnits="userSpaceOnUse" id="gradient26" r="819.2" spreadMethod="pad">
      <stop offset="0.0" stop-color="#000000"/>
      <stop offset="1.0" stop-color="#000000"/>
    </radialGradient>
    <radialGradient cx="0" cy="0" gradientTransform="matrix(0.1607, 0.0, 0.0, 0.1607, -193.4, -210.75)" gradientUnits="userSpaceOnUse" id="gradient27" r="819.2" spreadMethod="pad">
      <stop offset="0.0" stop-color="#575757"/>
      <stop offset="1.0" stop-color="#3d3d3d"/>
    </radialGradient>
    <radialGradient cx="0" cy="0" gradientTransform="matrix(0.1295, 0.0, 0.0, 0.1295, -154.95, -180.35)" gradientUnits="userSpaceOnUse" id="gradient28" r="819.2" spreadMethod="pad">
      <stop offset="0.0" stop-color="#494949"/>
      <stop offset="1.0" stop-color="#131313"/>
    </radialGradient>
    <radialGradient cx="0" cy="0" gradientTransform="matrix(0.0248, 0.0, 0.0, 0.0248, -204.45, -230.45)" gradientUnits="userSpaceOnUse" id="gradient29" r="819.2" spreadMethod="pad">
      <stop offset="0.0" stop-color="#000000"/>
      <stop offset="1.0" stop-color="#000000"/>
    </radialGradient>
    <radialGradient cx="0" cy="0" gradientTransform="matrix(0.1498, 0.0, 0.0, 0.1498, -196.25, -210.8)" gradientUnits="userSpaceOnUse" id="gradient30" r="819.2" spreadMethod="pad">
      <stop offset="0.0" stop-color="#030303"/>
      <stop offset="1.0" stop-color="#010101"/>
    </radialGradient>
    <radialGradient cx="0" cy="0" gradientTransform="matrix(0.0315, 0.0, 0.0, 0.0315, -206.25, -88.45)" gradientUnits="userSpaceOnUse" id="gradient31" r="819.2" spreadMethod="pad">
      <stop offset="0.0" stop-color="#030303"/>
      <stop offset="1.0" stop-color="#000000"/>
    </radialGradient>
    <radialGradient cx="0" cy="0" gradientTransform="matrix(0.021, 0.0, 0.0, 0.021, -202.1, -73.75)" gradientUnits="userSpaceOnUse" id="gradient32" r="819.2" spreadMethod="pad">
      <stop offset="0.0" stop-color="#040404"/>
      <stop offset="1.0" stop-color="#020202"/>
    </radialGradient>
    <radialGradient cx="0" cy="0" gradientTransform="matrix(0.0215, 0.0, 0.0, 0.0215, -204.9, -70.95)" gradientUnits="userSpaceOnUse" id="gradient33" r="819.2" spreadMethod="pad">
      <stop offset="0.0" stop-color="#383838"/>
      <stop offset="1.0" stop-color="#030303"/>
    </radialGradient>
    <radialGradient cx="0" cy="0" gradientTransform="matrix(0.1505, 0.0, 0.0, 0.1505, -122.05, -198.5)" gradientUnits="userSpaceOnUse" id="gradient34" r="819.2" spreadMethod="pad">
      <stop offset="0.0" stop-color="#040404"/>
      <stop offset="1.0" stop-color="#000000"/>
    </radialGradient>
    <radialGradient cx="0" cy="0" gradientTransform="matrix(0.0203, 0.0, 0.0, 0.0203, -142.0, -79.2)" gradientUnits="userSpaceOnUse" id="gradient35" r="819.2" spreadMethod="pad">
      <stop offset="0.0" stop-color="#000000"/>
      <stop offset="1.0" stop-color="#000000"/>
    </radialGradient>
    <radialGradient cx="0" cy="0" gradientTransform="matrix(0.0304, 0.0, 0.0, 0.0304, -204.15, -85.95)" gradientUnits="userSpaceOnUse" id="gradient36" r="819.2" spreadMethod="pad">
      <stop offset="0.0" stop-color="#4d4d4d"/>
      <stop offset="1.0" stop-color="#2e2e2e"/>
    </radialGradient>
    <radialGradient cx="0" cy="0" gradientTransform="matrix(0.0861, 0.0, 0.0, 0.0861, -204.9, -70.95)" gradientUnits="userSpaceOnUse" id="gradient37" r="819.2" spreadMethod="pad">
      <stop offset="0.0" stop-color="#383838"/>
      <stop offset="1.0" stop-color="#020202"/>
    </radialGradient>
    <radialGradient cx="0" cy="0" gradientTransform="matrix(0.0255, 0.0, 0.0, 0.0255, -204.9, -70.95)" gradientUnits="userSpaceOnUse" id="gradient38" r="819.2" spreadMethod="pad">
      <stop offset="0.0" stop-color="#383838"/>
      <stop offset="1.0" stop-color="#040404"/>
    </radialGradient>
    <radialGradient cx="0" cy="0" gradientTransform="matrix(0.0167, 0.0, 0.0, 0.0167, -205.4, -62.65)" gradientUnits="userSpaceOnUse" id="gradient39" r="819.2" spreadMethod="pad">
      <stop offset="0.0" stop-color="#000000"/>
      <stop offset="1.0" stop-color="#000000"/>
    </radialGradient>
    <radialGradient cx="0" cy="0" gradientTransform="matrix(0.0917, 0.0, 0.0, 0.0917, -189.0, -66.15)" gradientUnits="userSpaceOnUse" id="gradient40" r="819.2" spreadMethod="pad">
      <stop offset="0.0" stop-color="#1c1c1c"/>
      <stop offset="1.0" stop-color="#000000"/>
    </radialGradient>
    <radialGradient cx="0" cy="0" gradientTransform="matrix(0.0535, 0.0, 0.0, 0.0535, -187.05, -79.25)" gradientUnits="userSpaceOnUse" id="gradient41" r="819.2" spreadMethod="pad">
      <stop offset="0.0" stop-color="#393939"/>
      <stop offset="1.0" stop-color="#000000"/>
    </radialGradient>
    <radialGradient cx="0" cy="0" gradientTransform="matrix(0.0281, 0.0, 0.0, 0.0281, -384.0, -29.45)" gradientUnits="userSpaceOnUse" id="gradient42" r="819.2" spreadMethod="pad">
      <stop offset="0.0" stop-color="#424242"/>
      <stop offset="1.0" stop-color="#000000"/>
    </radialGradient>
    <radialGradient cx="0" cy="0" gradientTransform="matrix(0.0459, 0.0, 0.0, 0.0459, -400.0, -13.05)" gradientUnits="userSpaceOnUse" id="gradient43" r="819.2" spreadMethod="pad">
      <stop offset="0.0" stop-color="#d9d9d9"/>
      <stop offset="1.0" stop-color="#373737"/>
    </radialGradient>
    <radialGradient cx="0" cy="0" gradientTransform="matrix(0.0631, 0.0, 0.0, 0.0631, -329.65, -44.3)" gradientUnits="userSpaceOnUse" id="gradient44" r="819.2" spreadMethod="pad">
      <stop offset="0.0" stop-color="#121212"/>
      <stop offset="1.0" stop-color="#121212"/>
    </radialGradient>
    <radialGradient cx="0" cy="0" gradientTransform="matrix(0.0584, 0.0, 0.0, 0.0584, -329.65, -44.3)" gradientUnits="userSpaceOnUse" id="gradient45" r="819.2" spreadMethod="pad">
      <stop offset="0.0" stop-color="#717171"/>
      <stop offset="1.0" stop-color="#707070"/>
    </radialGradient>
    <radialGradient cx="0" cy="0" gradientTransform="matrix(0.0279, 0.0, 0.0, 0.0279, -379.4, -22.95)" gradientUnits="userSpaceOnUse" id="gradient46" r="819.2" spreadMethod="pad">
      <stop offset="0.0" stop-color="#979797"/>
      <stop offset="1.0" stop-color="#949494"/>
    </radialGradient>
    <radialGradient cx="0" cy="0" gradientTransform="matrix(0.0196, 0.0, 0.0, 0.0196, -374.0, -26.9)" gradientUnits="userSpaceOnUse" id="gradient47" r="819.2" spreadMethod="pad">
      <stop offset="0.0" stop-color="#212121"/>
      <stop offset="1.0" stop-color="#212121"/>
    </radialGradient>
    <radialGradient cx="0" cy="0" gradientTransform="matrix(0.0585, 0.0, 0.0, 0.0585, -320.3, -38.9)" gradientUnits="userSpaceOnUse" id="gradient48" r="819.2" spreadMethod="pad">
      <stop offset="0.0" stop-color="#121212"/>
      <stop offset="1.0" stop-color="#121212"/>
    </radialGradient>
    <radialGradient cx="0" cy="0" gradientTransform="matrix(0.0281, 0.0, 0.0, 0.0281, -368.55, -46.5)" gradientUnits="userSpaceOnUse" id="gradient49" r="819.2" spreadMethod="pad">
      <stop offset="0.0" stop-color="#000000"/>
      <stop offset="1.0" stop-color="#000000"/>
    </radialGradient>
    <radialGradient cx="0" cy="0" gradientTransform="matrix(0.0165, 0.0, 0.0, 0.0165, -352.05, -26.4)" gradientUnits="userSpaceOnUse" id="gradient50" r="819.2" spreadMethod="pad">
      <stop offset="0.0" stop-color="#dedede"/>
      <stop offset="1.0" stop-color="#313131"/>
    </radialGradient>
    <radialGradient cx="0" cy="0" gradientTransform="matrix(0.026, 0.0, 0.0, 0.026, -350.1, -22.0)" gradientUnits="userSpaceOnUse" id="gradient51" r="819.2" spreadMethod="pad">
      <stop offset="0.0" stop-color="#b3b3b3"/>
      <stop offset="1.0" stop-color="#4d4d4d"/>
    </radialGradient>
    <radialGradient cx="0" cy="0" gradientTransform="matrix(0.0584, 0.0, 0.0, 0.0584, -334.95, -40.7)" gradientUnits="userSpaceOnUse" id="gradient52" r="819.2" spreadMethod="pad">
      <stop offset="0.0" stop-color="#121212"/>
      <stop offset="1.0" stop-color="#121212"/>
    </radialGradient>
    <radialGradient cx="0" cy="0" gradientTransform="matrix(0.0866, 0.0, 0.0, 0.0866, -400.0, -12.45)" gradientUnits="userSpaceOnUse" id="gradient53" r="819.2" spreadMethod="pad">
      <stop offset="0.0" stop-color="#121212"/>
      <stop offset="1.0" stop-color="#121212"/>
    </radialGradient>
    <radialGradient cx="0" cy="0" gradientTransform="matrix(0.0584, 0.0, 0.0, 0.0584, -333.5, -41.7)" gradientUnits="userSpaceOnUse" id="gradient54" r="819.2" spreadMethod="pad">
      <stop offset="0.0" stop-color="#121212"/>
      <stop offset="1.0" stop-color="#121212"/>
    </radialGradient>
    <radialGradient cx="0" cy="0" gradientTransform="matrix(0.0066, 0.0, 0.0, 0.0066, -375.15, -24.3)" gradientUnits="userSpaceOnUse" id="gradient55" r="819.2" spreadMethod="pad">
      <stop offset="0.0" stop-color="#474747"/>
      <stop offset="1.0" stop-color="#3d3d3d"/>
    </radialGradient>
    <radialGradient cx="0" cy="0" gradientTransform="matrix(0.0453, 0.0, 0.0, 0.0453, -400.0, -13.05)" gradientUnits="userSpaceOnUse" id="gradient56" r="819.2" spreadMethod="pad">
      <stop offset="0.0" stop-color="#d9d9d9"/>
      <stop offset="1.0" stop-color="#212121"/>
    </radialGradient>
  </defs>
</svg>
