<?xml version="1.0" encoding="UTF-8" standalone="no"?>
<svg xmlns:xlink="http://www.w3.org/1999/xlink" height="299.1px" width="289.5px" xmlns="http://www.w3.org/2000/svg">
  <g transform="matrix(1.0, 0.0, 0.0, 1.0, 400.0, 300.0)">
    <path d="M-248.0 -300.0 L-261.5 -258.65 -261.9 -258.5 -262.0 -259.25 -262.0 -259.75 -261.75 -260.4 -254.75 -300.0 -248.0 -300.0" fill="url(#gradient0)" fill-rule="evenodd" stroke="none"/>
    <path d="M-143.75 -238.0 L-146.5 -228.65 -161.5 -231.5 -181.15 -233.75 -194.75 -240.25 -210.5 -239.0 -225.0 -241.0 -262.0 -256.75 -262.4 -256.9 -262.15 -257.9 -261.9 -258.5 -261.5 -258.65 -248.0 -300.0 -128.25 -300.0 -129.5 -290.0 -143.75 -238.0" fill="url(#gradient1)" fill-rule="evenodd" stroke="none"/>
    <path d="M-261.9 -258.5 L-262.15 -257.9 -262.5 -257.9 -270.25 -265.4 -263.25 -272.0 -263.15 -271.75 -263.75 -268.5 -262.0 -259.75 -262.0 -259.25 -261.9 -258.5 M-250.4 -239.4 L-250.25 -239.15 -251.5 -239.15 -264.4 -244.4 -260.9 -255.4 -260.65 -255.4 -260.5 -255.25 -260.4 -254.9 -256.9 -247.15 -250.4 -239.4" fill="url(#gradient2)" fill-rule="evenodd" stroke="none"/>
    <path d="M-259.75 -254.25 L-250.4 -239.4 -256.9 -247.15 -260.4 -254.9 -259.75 -254.25 M-262.0 -259.75 L-263.75 -268.5 -263.15 -271.75 -261.75 -260.4 -262.0 -259.75" fill="url(#gradient3)" fill-rule="evenodd" stroke="none"/>
    <path d="M-262.15 -257.9 L-262.4 -256.9 -311.4 -251.5 -318.5 -262.75 -290.65 -279.65 -286.65 -283.0 -285.65 -283.9 -271.5 -300.0 -254.75 -300.0 -261.75 -260.4 -263.15 -271.75 -263.25 -272.0 -270.25 -265.4 -262.5 -257.9 -262.15 -257.9" fill="url(#gradient4)" fill-rule="evenodd" stroke="none"/>
    <path d="M-286.65 -283.0 L-285.9 -283.75 -285.65 -283.9 -286.65 -283.0" fill="url(#gradient5)" fill-rule="evenodd" stroke="none"/>
    <path d="M-128.5 -287.4 L-143.75 -238.0 -129.5 -290.0 -128.25 -300.0 -123.15 -300.0 -125.15 -284.9 -127.9 -287.4 -128.5 -287.4" fill="url(#gradient6)" fill-rule="evenodd" stroke="none"/>
    <path d="M-128.5 -287.4 L-125.5 -277.0 -122.5 -265.4 -118.5 -227.9 -121.15 -213.5 -123.25 -192.75 -124.0 -194.15 -124.9 -195.4 -134.0 -201.4 Q-135.65 -203.25 -132.9 -217.9 L-135.9 -222.4 -145.15 -221.5 -146.0 -220.5 Q-145.4 -215.9 -149.75 -212.4 L-154.25 -215.4 -152.75 -222.4 -146.5 -228.65 -143.75 -238.0 -128.5 -287.4 M-134.0 -237.9 L-133.4 -239.0 -140.0 -240.15 -140.15 -238.5 -134.0 -237.9" fill="url(#gradient7)" fill-rule="evenodd" stroke="none"/>
    <path d="M-125.5 -277.0 L-128.5 -287.4 -127.9 -287.4 -125.15 -284.9 -125.5 -277.0" fill="url(#gradient8)" fill-rule="evenodd" stroke="none"/>
    <path d="M-328.4 -258.15 L-328.15 -258.25 -327.9 -258.5 -318.5 -262.75 -311.4 -251.5 -331.4 -255.15 -328.4 -258.15" fill="url(#gradient9)" fill-rule="evenodd" stroke="none"/>
    <path d="M-376.0 -227.5 L-372.9 -230.4 Q-355.75 -240.5 -338.65 -250.65 L-328.4 -258.15 -331.4 -255.15 -341.65 -244.0 -376.0 -227.5" fill="url(#gradient10)" fill-rule="evenodd" stroke="none"/>
    <path d="M-382.75 -216.15 L-382.65 -217.25 -382.5 -217.4 -381.9 -218.75 -381.25 -219.5 -380.65 -220.5 -380.65 -220.65 -380.4 -220.9 -376.25 -227.4 -376.0 -227.5 -341.65 -244.0 -331.4 -255.15 -311.4 -251.5 -287.15 -226.5 -279.4 -223.5 -328.0 -185.0 -345.9 -176.75 -362.25 -172.0 -363.9 -172.9 -366.9 -176.65 -373.75 -182.0 -374.65 -186.25 -375.65 -188.75 -377.5 -196.0 -377.9 -196.0 -378.15 -193.9 -378.5 -193.65 -382.75 -216.15" fill="url(#gradient11)" fill-rule="evenodd" stroke="none"/>
    <path d="M-262.4 -256.9 L-262.0 -256.75 -260.9 -255.4 -264.4 -244.4 -251.5 -239.15 -250.25 -239.15 -250.4 -239.4 -259.75 -254.25 -259.4 -254.25 -238.4 -233.9 -234.65 -232.9 -230.25 -227.15 -221.25 -223.4 -223.5 -223.25 -236.75 -222.65 -270.5 -221.15 -279.4 -223.5 -287.15 -226.5 -311.4 -251.5 -262.4 -256.9" fill="url(#gradient12)" fill-rule="evenodd" stroke="none"/>
    <path d="M-146.5 -228.65 L-152.75 -222.4 -154.25 -215.4 -170.15 -219.4 -187.25 -219.0 -202.75 -218.25 -215.75 -219.9 -216.4 -220.25 -221.25 -223.4 -230.25 -227.15 -234.65 -232.9 -259.25 -254.5 -260.5 -255.25 -260.65 -255.4 -260.9 -255.4 -262.0 -256.75 -225.0 -241.0 -210.5 -239.0 -194.75 -240.25 -181.15 -233.75 -161.5 -231.5 -146.5 -228.65 M-185.5 -220.0 L-183.75 -221.25 -202.4 -223.65 -185.5 -220.0" fill="url(#gradient13)" fill-rule="evenodd" stroke="none"/>
    <path d="M-234.65 -232.9 L-238.4 -233.9 -259.4 -254.25 -259.75 -254.25 -260.4 -254.9 -260.5 -255.25 -259.25 -254.5 -234.65 -232.9" fill="url(#gradient14)" fill-rule="evenodd" stroke="none"/>
    <path d="M-236.75 -222.65 L-306.9 -179.0 -324.75 -171.9 -334.75 -169.25 -338.4 -168.25 -346.5 -167.9 -349.25 -169.15 -362.25 -172.0 -345.9 -176.75 -328.0 -185.0 -279.4 -223.5 -270.5 -221.15 -236.75 -222.65" fill="url(#gradient15)" fill-rule="evenodd" stroke="none"/>
    <path d="M-334.75 -169.25 L-334.5 -168.65 -334.15 -164.5 -337.15 -155.75 -337.4 -133.9 -342.15 -91.5 -342.0 -89.25 -343.9 -69.9 -344.65 -69.0 -349.65 -67.5 -349.65 -67.9 -350.0 -67.9 -351.25 -67.0 -358.0 -64.9 -361.65 -64.65 -359.0 -90.9 -364.25 -95.65 -370.0 -91.4 -372.0 -64.15 -375.25 -64.15 -375.4 -75.5 -376.9 -79.0 -376.75 -79.5 -381.4 -92.9 -381.75 -93.0 -383.25 -83.65 -385.15 -66.25 -388.25 -66.75 -389.15 -67.25 -386.5 -93.65 -386.65 -95.25 -381.15 -158.0 -378.9 -170.0 -377.0 -177.15 -374.75 -173.65 Q-365.25 -171.65 -363.9 -172.9 L-362.25 -172.0 -349.25 -169.15 -346.5 -167.9 -338.4 -168.25 -334.75 -169.25" fill="url(#gradient16)" fill-rule="evenodd" stroke="none"/>
    <path d="M-363.9 -172.9 Q-365.25 -171.65 -374.75 -173.65 L-377.0 -177.15 -378.65 -187.9 -378.25 -192.9 -378.5 -193.65 -378.15 -193.9 -377.9 -196.0 -377.5 -196.0 -375.65 -188.75 -374.65 -186.25 -373.75 -182.0 -366.9 -176.65 -363.9 -172.9 M-385.15 -66.25 L-383.25 -83.65 -381.75 -93.0 -381.4 -92.9 -376.75 -79.5 -376.9 -79.0 -375.4 -75.5 -375.25 -64.15 -382.4 -65.25 -385.15 -66.25 M-372.0 -64.15 L-370.0 -91.4 -364.25 -95.65 -359.0 -90.9 -361.65 -64.65 -366.5 -64.0 -372.0 -64.15 M-351.25 -67.0 L-350.0 -67.9 -349.65 -67.9 -349.65 -67.5 -351.25 -67.0" fill="url(#gradient17)" fill-rule="evenodd" stroke="none"/>
    <path d="M-390.15 -98.5 L-390.4 -121.65 -392.4 -136.75 -391.0 -150.9 -388.65 -198.25 -388.5 -199.5 -383.15 -214.75 -383.15 -213.75 -383.0 -215.15 -382.75 -216.15 -378.5 -193.65 -378.25 -192.9 -378.65 -187.9 -377.0 -177.15 -378.9 -170.0 -381.15 -158.0 -386.65 -95.25 -386.5 -93.65 -389.15 -67.25 -392.15 -70.9 -391.75 -75.4 -391.75 -76.0 -391.65 -76.9 -391.5 -77.4 -391.5 -78.25 -390.15 -92.15 -390.15 -95.4 -390.15 -98.5" fill="url(#gradient18)" fill-rule="evenodd" stroke="none"/>
    <path d="M-381.9 -218.75 L-381.15 -219.9 -381.15 -220.0 -380.65 -220.5 -381.25 -219.5 -381.9 -218.75" fill="url(#gradient19)" fill-rule="evenodd" stroke="none"/>
    <path d="M-149.75 -212.4 Q-145.4 -215.9 -146.0 -220.5 L-145.15 -221.5 -135.9 -222.4 -132.9 -217.9 Q-135.65 -203.25 -134.0 -201.4 L-138.65 -201.0 Q-149.15 -208.65 -149.75 -212.4 M-134.0 -237.9 L-140.15 -238.5 -140.0 -240.15 -133.4 -239.0 -134.0 -237.9 M-156.9 -207.5 L-160.4 -212.75 -156.65 -212.4 -147.75 -205.25 Q-144.9 -203.15 -147.15 -202.25 L-148.15 -202.5 -156.9 -207.5 M-155.9 -63.65 L-157.75 -63.65 -156.65 -68.9 -155.25 -68.9 -150.15 -65.15 -150.15 -64.75 -155.9 -63.65 M-163.9 -67.75 L-163.15 -63.65 -166.9 -63.75 -164.4 -68.65 -163.9 -67.75" fill="url(#gradient20)" fill-rule="evenodd" stroke="none"/>
    <path d="M-223.5 -223.25 L-221.25 -223.4 -216.4 -220.25 -223.5 -223.25" fill="url(#gradient21)" fill-rule="evenodd" stroke="none"/>
    <path d="M-185.5 -220.0 L-202.4 -223.65 -183.75 -221.25 -185.5 -220.0" fill="url(#gradient22)" fill-rule="evenodd" stroke="none"/>
    <path d="M-202.75 -218.25 L-187.25 -219.0 -185.75 -203.25 -191.15 -160.0 -190.9 -159.5 -196.0 -102.15 -186.9 -73.0 -204.25 -79.65 -207.0 -82.4 -207.0 -82.65 -207.15 -83.0 -206.9 -90.4 -206.9 -93.65 -206.75 -106.15 -202.15 -161.65 -197.0 -204.15 -197.0 -205.15 -199.5 -213.25 -202.75 -218.25" fill="url(#gradient23)" fill-rule="evenodd" stroke="none"/>
    <path d="M-154.25 -215.4 L-149.75 -212.4 Q-149.15 -208.65 -138.65 -201.0 L-134.0 -201.4 -124.9 -195.4 -124.0 -194.15 -125.0 -161.5 -128.4 -130.4 -135.5 -96.65 -140.0 -82.15 -140.0 -82.0 -140.15 -81.65 -140.25 -81.25 -140.4 -81.0 -143.5 -71.25 -158.65 -70.4 -170.65 -71.0 -186.9 -73.0 -196.0 -102.15 -190.9 -159.5 -191.15 -160.0 -185.75 -203.25 -187.25 -219.0 -170.15 -219.4 -154.25 -215.4 M-156.9 -207.5 L-148.15 -202.5 -147.15 -202.25 Q-144.9 -203.15 -147.75 -205.25 L-156.65 -212.4 -160.4 -212.75 -156.9 -207.5" fill="url(#gradient24)" fill-rule="evenodd" stroke="none"/>
    <path d="M-383.15 -214.75 L-383.0 -215.15 -383.15 -213.75 -383.15 -214.75" fill="url(#gradient25)" fill-rule="evenodd" stroke="none"/>
    <path d="M-390.25 -97.25 L-390.15 -98.5 -390.15 -95.4 -390.25 -97.25" fill="url(#gradient26)" fill-rule="evenodd" stroke="none"/>
    <path d="M-392.25 -76.5 L-390.25 -97.25 -390.15 -95.4 -390.15 -92.15 -391.5 -78.25 -391.5 -77.4 -391.65 -76.9 -391.75 -76.0 -392.25 -76.5" fill="url(#gradient27)" fill-rule="evenodd" stroke="none"/>
    <path d="M-340.4 -76.9 L-338.15 -76.0 Q-335.15 -72.5 -335.4 -71.65 -336.9 -67.65 -337.65 -67.5 L-343.65 -64.25 -343.75 -64.65 -345.15 -66.65 -346.9 -63.25 -353.75 -61.4 -365.75 -60.25 -379.5 -60.9 -390.15 -63.25 -396.5 -66.65 -396.65 -67.15 -398.25 -70.4 Q-398.65 -71.25 -395.4 -75.0 L-392.25 -76.5 -391.75 -76.0 -391.75 -75.4 -392.15 -70.9 -389.15 -67.25 -388.25 -66.75 -385.15 -66.25 -382.4 -65.25 -375.25 -64.15 -372.0 -64.15 -366.5 -64.0 -361.65 -64.65 -358.0 -64.9 -351.25 -67.0 -349.65 -67.5 -344.65 -69.0 -343.9 -69.9 -340.65 -75.4 -340.4 -76.9" fill="url(#gradient28)" fill-rule="evenodd" stroke="none"/>
    <path d="M-335.4 -71.65 L-335.15 -61.15 Q-336.75 -56.5 -337.65 -56.4 L-341.9 -53.75 -344.25 -52.75 -344.15 -61.0 -344.5 -62.25 -344.15 -64.0 -343.65 -64.25 -337.65 -67.5 Q-336.9 -67.65 -335.4 -71.65 M-393.25 -53.75 Q-396.75 -54.65 -397.75 -59.15 L-398.25 -70.4 -396.65 -67.15 -396.5 -66.65 -390.15 -63.25 -379.5 -60.9 -365.75 -60.25 -353.75 -61.4 -346.9 -63.25 -350.15 -56.9 Q-355.15 -56.0 -355.4 -55.25 L-357.15 -49.65 -365.75 -48.75 -379.25 -49.4 -389.65 -51.75 -393.15 -53.75 -393.25 -53.75" fill="url(#gradient29)" fill-rule="evenodd" stroke="none"/>
    <path d="M-393.65 -46.65 L-393.75 -51.15 -393.25 -53.75 -393.15 -53.75 -389.65 -51.75 -379.25 -49.4 -365.75 -48.75 -357.15 -49.65 -358.15 -46.75 -366.25 -40.65 -369.9 -38.4 -373.4 -40.15 -376.4 -40.5 -378.9 -38.9 -380.25 -40.25 -386.0 -42.15 -387.0 -41.65 -391.0 -44.4 -392.15 -44.0 -392.4 -45.25 -392.75 -45.5 -392.9 -47.15 -393.5 -46.65 -393.65 -46.65" fill="url(#gradient30)" fill-rule="evenodd" stroke="none"/>
    <path d="M-393.75 -46.25 L-393.65 -46.65 -393.5 -46.65 -392.9 -47.15 -392.75 -45.5 -392.4 -45.25 -392.15 -44.0 -391.0 -44.4 -387.0 -41.65 -386.0 -42.15 -380.25 -40.25 -378.9 -38.9 -376.4 -40.5 -373.4 -40.15 -369.9 -38.4 -379.15 -32.75 -386.0 -29.15 -387.75 -26.65 -390.5 -29.9 -392.65 -33.9 -393.75 -38.25 -394.0 -42.9 -393.75 -46.25" fill="url(#gradient31)" fill-rule="evenodd" stroke="none"/>
    <path d="M-400.0 -12.15 L-400.0 -41.5 -397.25 -43.75 -393.75 -46.25 -394.0 -42.9 -393.75 -38.25 -392.65 -33.9 -392.5 -28.9 -389.5 -24.15 -390.15 -22.75 -390.4 -22.4 -392.15 -18.0 Q-395.9 -17.15 -396.25 -12.9 L-396.65 -12.75 -400.0 -12.15" fill="url(#gradient32)" fill-rule="evenodd" stroke="none"/>
    <path d="M-382.5 -16.4 L-382.9 -15.9 -383.4 -16.0 -383.15 -16.25 -382.5 -16.4 M-399.0 -9.25 L-399.5 -8.25 -399.9 -8.15 -400.0 -9.0 -399.0 -9.25 M-400.0 -11.25 L-400.0 -12.15 -396.65 -12.75 -400.0 -11.25 M-400.0 -41.5 L-400.0 -43.9 -397.25 -43.75 -400.0 -41.5" fill="url(#gradient33)" fill-rule="evenodd" stroke="none"/>
    <path d="M-207.0 -92.5 L-206.9 -93.65 -206.9 -90.4 -207.0 -92.5" fill="url(#gradient34)" fill-rule="evenodd" stroke="none"/>
    <path d="M-207.75 -83.75 L-207.9 -84.0 -207.0 -92.5 -206.9 -90.4 -207.15 -83.0 -207.75 -83.75" fill="url(#gradient35)" fill-rule="evenodd" stroke="none"/>
    <path d="M-206.65 -77.5 L-207.75 -83.75 -207.15 -83.0 -207.0 -82.65 -207.0 -82.4 -207.0 -82.15 -206.75 -79.65 -206.65 -77.5" fill="url(#gradient36)" fill-rule="evenodd" stroke="none"/>
    <path d="M-205.65 -67.9 L-205.65 -68.5 -205.5 -67.4 -205.65 -67.9 M-206.4 -76.0 L-206.5 -76.75 -206.65 -77.15 -206.65 -77.5 -206.75 -79.65 -206.4 -76.0" fill="url(#gradient37)" fill-rule="evenodd" stroke="none"/>
    <path d="M-205.65 -68.5 L-206.25 -75.25 -206.4 -75.9 -206.4 -76.0 -206.75 -79.65 -207.0 -82.15 -207.0 -82.4 -204.25 -79.65 -186.9 -73.0 -188.9 -59.9 -205.25 -64.75 -205.5 -67.4 -205.65 -68.5" fill="url(#gradient38)" fill-rule="evenodd" stroke="none"/>
    <path d="M-124.0 -194.15 L-123.25 -192.75 -123.15 -160.9 -126.9 -132.25 -134.25 -97.5 -140.0 -82.15 -135.5 -96.65 -128.4 -130.4 -125.0 -161.5 -124.0 -194.15" fill="url(#gradient39)" fill-rule="evenodd" stroke="none"/>
    <path d="M-334.15 -164.5 L-332.4 -155.5 -331.25 -139.15 -330.65 -122.25 -338.75 -91.75 -340.4 -76.9 -340.65 -75.4 -343.9 -69.9 -342.0 -89.25 -342.15 -91.5 -337.4 -133.9 -337.15 -155.75 -334.15 -164.5" fill="url(#gradient40)" fill-rule="evenodd" stroke="none"/>
    <path d="M-143.5 -71.25 L-149.9 -58.75 -160.65 -57.15 -172.15 -57.65 -188.9 -59.9 -186.9 -73.0 -170.65 -71.0 -158.65 -70.4 -143.5 -71.25 M-155.9 -63.65 L-150.15 -64.75 -150.15 -65.15 -155.25 -68.9 -156.65 -68.9 -157.75 -63.65 -155.9 -63.65 M-163.9 -67.75 L-164.4 -68.65 -166.9 -63.75 -163.15 -63.65 -163.9 -67.75" fill="url(#gradient41)" fill-rule="evenodd" stroke="none"/>
    <path d="M-196.65 -0.9 L-214.65 -0.9 -214.0 -5.9 -213.9 -16.9 -212.25 -30.65 -206.4 -56.75 -205.65 -67.9 -205.5 -67.4 -205.25 -64.75 -188.9 -59.9 -191.75 -47.25 -192.4 -30.5 -195.15 -9.25 -194.9 -9.0 -196.65 -0.9" fill="url(#gradient42)" fill-rule="evenodd" stroke="none"/>
    <path d="M-149.9 -58.75 L-147.65 -45.15 -146.4 -29.15 -148.9 -10.0 -150.75 -0.9 -196.65 -0.9 -194.9 -9.0 -195.15 -9.25 -192.4 -30.5 -191.75 -47.25 -188.9 -59.9 -172.15 -57.65 -160.65 -57.15 -149.9 -58.75" fill="url(#gradient43)" fill-rule="evenodd" stroke="none"/>
    <path d="M-337.65 -56.4 Q-338.25 -55.15 -335.9 -53.0 L-335.9 -38.75 -335.9 -38.0 Q-335.4 -34.15 -338.0 -29.75 L-343.25 -26.25 -343.9 -25.65 -343.25 -24.75 -340.65 -25.75 -344.65 -23.0 -347.0 -22.15 -352.65 -20.4 -347.0 -23.0 -345.9 -25.0 -346.75 -24.65 Q-358.75 -20.15 -375.9 -20.75 L-382.4 -20.15 -383.0 -19.65 -383.25 -19.4 -389.75 -15.25 -389.9 -15.25 -392.4 -14.15 -392.65 -14.0 -392.9 -13.9 -393.15 -13.75 -393.25 -13.65 -396.25 -12.9 Q-395.9 -17.15 -392.15 -18.0 L-390.4 -22.4 -390.15 -22.75 -389.5 -24.15 -387.75 -26.65 -386.0 -29.15 -379.15 -32.75 -369.9 -38.4 -366.25 -40.65 -358.15 -46.75 -357.15 -49.65 -355.4 -55.25 Q-355.15 -56.0 -350.15 -56.9 L-346.9 -63.25 -345.15 -66.65 -343.75 -64.65 -343.65 -64.25 -344.15 -64.0 -344.5 -62.25 -344.15 -61.0 -344.25 -52.75 -341.9 -53.75 -337.65 -56.4" fill="url(#gradient44)" fill-rule="evenodd" stroke="none"/>
    <path d="M-335.9 -38.75 L-334.4 -38.65 -335.9 -38.0 -335.9 -38.75 M-382.4 -20.15 L-375.9 -20.75 -378.0 -19.65 -382.4 -20.15" fill="url(#gradient45)" fill-rule="evenodd" stroke="none"/>
    <path d="M-334.4 -38.65 L-324.25 -34.65 -343.25 -26.25 -338.0 -29.75 Q-335.4 -34.15 -335.9 -38.0 L-334.4 -38.65 M-375.9 -20.75 Q-358.75 -20.15 -346.75 -24.65 L-367.9 -15.15 -378.0 -19.65 -375.9 -20.75" fill="url(#gradient46)" fill-rule="evenodd" stroke="none"/>
    <path d="M-387.75 -26.65 L-389.5 -24.15 -392.5 -28.9 -392.65 -33.9 -390.5 -29.9 -387.75 -26.65" fill="url(#gradient47)" fill-rule="evenodd" stroke="none"/>
    <path d="M-324.25 -34.65 L-324.25 -33.25 -340.65 -25.75 -343.25 -24.75 -343.9 -25.65 -343.25 -26.25 -324.25 -34.65 M-357.5 -18.15 Q-362.6 -15.8 -367.75 -13.5 L-368.15 -13.65 -367.9 -15.15 -346.75 -24.65 -345.9 -25.0 -347.0 -23.0 -352.65 -20.4 -357.5 -18.15" fill="url(#gradient48)" fill-rule="evenodd" stroke="none"/>
    <path d="M-368.15 -13.65 L-377.65 -17.65 -379.4 -17.9 -379.9 -18.0 -380.9 -18.15 -381.75 -17.25 -383.15 -16.25 -383.4 -16.0 -386.4 -14.75 -388.5 -13.75 -399.0 -9.25 -400.0 -9.0 -400.0 -11.25 -396.65 -12.75 -396.25 -12.9 -393.25 -13.65 -393.15 -13.75 -392.9 -13.9 -392.65 -14.0 -392.4 -14.15 -389.9 -15.25 -389.75 -15.25 -384.5 -18.0 -383.25 -19.4 -383.0 -19.65 -382.4 -20.15 -378.0 -19.65 -367.9 -15.15 -368.15 -13.65" fill="url(#gradient49)" fill-rule="evenodd" stroke="none"/>
    <path d="M-389.75 -15.25 L-383.25 -19.4 -384.5 -18.0 -389.75 -15.25" fill="url(#gradient50)" fill-rule="evenodd" stroke="none"/>
    <path d="M-347.0 -22.15 L-350.5 -15.65 Q-351.5 -13.65 -355.5 -14.65 L-355.65 -14.65 -355.65 -14.9 -355.75 -15.15 -357.5 -18.15 -352.65 -20.4 -347.0 -22.15" fill="url(#gradient51)" fill-rule="evenodd" stroke="none"/>
    <path d="M-350.5 -15.65 L-350.25 -0.9 -355.5 -0.9 -355.65 -14.65 -355.5 -14.65 Q-351.5 -13.65 -350.5 -15.65" fill="url(#gradient52)" fill-rule="evenodd" stroke="none"/>
    <path d="M-379.4 -17.9 L-382.5 -16.4 -383.15 -16.25 -381.75 -17.25 -379.9 -18.0 -379.4 -17.9" fill="url(#gradient53)" fill-rule="evenodd" stroke="none"/>
    <path d="M-381.75 -17.25 L-380.9 -18.15 -379.9 -18.0 -381.75 -17.25" fill="url(#gradient54)" fill-rule="evenodd" stroke="none"/>
    <path d="M-386.4 -14.75 L-384.65 -14.0 -388.5 -13.75 -386.4 -14.75" fill="url(#gradient55)" fill-rule="evenodd" stroke="none"/>
    <path d="M-382.9 -15.9 L-383.75 -14.75 -384.0 -14.9 -383.4 -16.0 -382.9 -15.9" fill="url(#gradient56)" fill-rule="evenodd" stroke="none"/>
    <path d="M-275.5 -300.0 L-271.5 -300.0 -275.25 -295.9 -276.15 -297.75 -276.15 -297.9 -276.25 -297.9 -275.5 -300.0" fill="#f90000" fill-rule="evenodd" stroke="none"/>
    <path d="M-271.5 -300.0 L-253.9 -300.0 -254.5 -293.65 -256.75 -287.65 -257.65 -284.25 -262.75 -270.25 -262.9 -269.0 -263.5 -268.0 -263.5 -267.25 -270.65 -246.9 -271.15 -245.9 -271.0 -245.65 -273.5 -239.0 -272.75 -243.4 -272.9 -243.75 -272.65 -244.4 -269.4 -262.5 -269.5 -262.75 -268.75 -266.15 -268.9 -266.5 -268.65 -267.0 -264.25 -290.5 -264.15 -292.5 -264.25 -293.0 -277.5 -293.0 -277.25 -293.4 -277.25 -293.65 -275.25 -295.75 -275.25 -295.9 -271.5 -300.0" fill="#e80000" fill-opacity="0.9098039" fill-rule="evenodd" stroke="none"/>
    <path d="M-122.0 -149.15 L-121.9 -146.65 -129.4 -90.25 -131.5 -41.4 -131.9 -0.9 -150.75 -0.9 -149.15 -8.5 -149.25 -8.9 -149.25 -9.0 -146.4 -29.15 -146.5 -29.5 -147.15 -40.15 -145.15 -49.75 -140.15 -80.65 -140.25 -80.9 -140.25 -81.5 -134.65 -96.75 -132.75 -105.4 -132.5 -105.5 -132.65 -105.75 -132.4 -106.15 -132.5 -106.4 -127.15 -130.5 -127.25 -130.75 -126.75 -134.9 -126.5 -135.0 -126.65 -135.25 -126.65 -135.9 -123.0 -162.5 -122.0 -149.15 M-279.4 -0.9 L-324.25 -0.9 -315.0 -43.15 -308.0 -100.0 -304.75 -161.4 -304.9 -167.9 -304.65 -168.65 -304.15 -168.9 -289.0 -190.0 -283.4 -193.5 -237.5 -208.0 -235.15 -206.25 -235.0 -205.9 -240.5 -157.75 -251.5 -109.65 -260.5 -60.25 -272.5 -18.65 -278.15 -3.0 -275.25 -20.9 -275.25 -21.4 -275.65 -21.15 -279.4 -0.9 M-253.9 -300.0 L-201.15 -299.75 -186.0 -300.0 -179.4 -299.75 -176.65 -300.0 -160.65 -299.75 -142.65 -300.0 -135.25 -299.75 -123.15 -300.0 -124.75 -289.0 -124.75 -288.4 -124.65 -288.15 -124.9 -288.0 -125.65 -277.65 -122.9 -267.0 -122.65 -265.4 -122.75 -264.5 -122.0 -262.0 -122.15 -260.5 -126.9 -243.4 -128.9 -234.5 -129.15 -234.25 -133.25 -218.5 -133.15 -218.0 -138.4 -198.15 -139.15 -196.0 -139.0 -195.15 -140.0 -191.75 -140.65 -191.9 -177.5 -195.9 -197.65 -199.65 -197.25 -202.15 -197.0 -204.9 -199.5 -213.25 -202.65 -218.0 -202.75 -218.25 -215.5 -219.9 -223.5 -223.25 -236.75 -222.65 -247.4 -216.0 -274.0 -237.5 -273.5 -239.0 -271.0 -245.65 -271.15 -245.9 -270.65 -246.9 -263.5 -267.25 -263.5 -268.0 -262.9 -269.0 -262.75 -270.25 -257.65 -284.25 -256.75 -287.65 -254.5 -293.65 -253.9 -300.0 M-275.25 -21.5 L-275.15 -22.0 -275.5 -21.9 -275.25 -21.5" fill="#bb0000" fill-opacity="0.9098039" fill-rule="evenodd" stroke="none"/>
    <path d="M-273.5 -239.0 L-274.0 -237.5 -305.75 -262.5 -309.9 -267.75 -310.0 -267.9 -290.65 -279.65 -286.65 -282.9 -286.15 -283.5 -285.9 -283.75 -285.65 -283.9 -277.5 -293.0 -264.25 -293.0 -264.15 -292.5 -264.25 -290.5 -268.65 -267.0 -268.9 -266.5 -268.75 -266.15 -269.5 -262.75 -269.4 -262.5 -272.65 -244.4 -272.9 -243.75 -272.75 -243.4 -273.5 -239.0" fill="#da0000" fill-opacity="0.9098039" fill-rule="evenodd" stroke="none"/>
    <path d="M-315.4 -274.65 L-276.9 -297.4 -277.25 -294.0 -277.25 -293.65 -277.25 -293.4 -277.5 -293.0 -285.65 -283.9 -285.9 -283.75 -286.15 -283.5 -286.65 -282.9 -290.65 -279.65 -310.0 -267.9 -314.75 -274.15 -315.4 -274.65" fill="#ea0000" fill-rule="evenodd" stroke="none"/>
    <path d="M-275.25 -295.9 L-275.25 -295.75 -277.25 -293.65 -277.25 -294.0 -276.15 -297.75 -275.25 -295.9" fill="#f70000" fill-rule="evenodd" stroke="none"/>
    <path d="M-115.65 -300.0 L-118.9 -274.15 -120.65 -267.0 -122.9 -267.0 -125.65 -277.65 -124.9 -288.0 -124.65 -288.15 -124.75 -288.4 -124.75 -289.0 -123.15 -300.0 -115.65 -300.0" fill="#d20000" fill-rule="evenodd" stroke="none"/>
    <path d="M-115.65 -300.0 L-112.0 -300.0 -110.65 -267.65 -113.9 -270.4 -114.0 -269.0 -114.15 -269.0 -114.9 -267.25 -120.65 -267.0 -118.9 -274.15 -115.65 -300.0" fill="#cd0000" fill-rule="evenodd" stroke="none"/>
    <path d="M-120.65 -267.0 L-114.9 -267.25 -120.75 -250.0 -122.15 -260.5 -122.0 -262.0 -120.65 -267.0 M-197.65 -199.65 L-232.25 -203.75 -235.0 -205.9 -235.15 -206.25 -234.75 -208.9 -214.75 -204.5 -197.25 -202.15 -197.65 -199.65" fill="#cc0000" fill-rule="evenodd" stroke="none"/>
    <path d="M-114.9 -267.25 L-114.15 -269.0 -114.0 -269.0 -114.15 -267.25 -114.9 -267.25 M-214.65 -0.9 L-278.65 -0.9 -278.15 -3.0 -272.5 -18.65 -260.5 -60.25 -251.5 -109.65 -240.5 -157.75 -235.0 -205.9 -232.25 -203.75 -197.65 -199.65 -202.0 -162.4 -206.75 -106.4 -206.9 -93.65 -207.9 -84.0 -207.75 -83.75 -207.75 -83.4 -207.65 -83.15 -207.65 -82.9 -206.65 -77.5 -206.65 -77.15 -206.5 -76.75 -206.4 -76.0 -206.4 -75.9 -206.25 -75.25 -205.65 -68.5 -205.65 -67.9 -206.15 -61.25 -206.25 -60.9 -206.25 -59.5 -206.4 -58.75 -206.4 -57.0 -206.5 -56.75 -211.75 -33.0 -211.9 -32.65 -213.9 -16.25 -214.65 -0.9 M-140.25 -80.9 L-140.15 -80.65 -145.15 -49.75 -147.15 -40.15 -147.65 -44.75 -147.75 -45.15 -149.9 -58.75 -143.5 -71.25 -143.4 -72.0 -140.25 -80.9" fill="#ba0000" fill-rule="evenodd" stroke="none"/>
    <path d="M-114.0 -269.0 L-113.9 -270.4 -110.65 -267.65 -110.5 -267.4 -114.15 -267.25 -114.0 -269.0" fill="#e50000" fill-rule="evenodd" stroke="none"/>
    <path d="M-276.9 -297.4 L-276.9 -297.5 -276.65 -300.0 -275.5 -300.0 -276.25 -297.9 -276.15 -297.9 -276.15 -297.75 -277.25 -294.0 -276.9 -297.4" fill="#fe0000" fill-rule="evenodd" stroke="none"/>
    <path d="M-400.0 -67.75 L-400.0 -238.75 -315.4 -274.65 -314.75 -274.15 -310.0 -267.9 -313.9 -265.5 -314.0 -265.5 -314.9 -265.0 -315.0 -264.9 -318.5 -262.75 -319.25 -262.5 -327.9 -258.5 -328.15 -258.25 -328.4 -258.15 -338.65 -250.65 -343.15 -248.0 -343.5 -247.75 -343.75 -247.65 -343.9 -247.65 -344.75 -247.0 -344.9 -247.0 -372.75 -230.5 -376.65 -227.0 -380.4 -220.9 -380.65 -220.65 -380.65 -220.4 -380.9 -220.25 -381.15 -220.0 -381.15 -219.9 -381.9 -218.75 -382.4 -217.65 -382.65 -217.25 -382.9 -216.5 -382.75 -216.15 -383.0 -215.75 -383.0 -215.15 -388.5 -199.4 -391.0 -151.0 -391.15 -150.75 -392.4 -137.0 -390.25 -121.65 -390.4 -120.75 -390.15 -98.5 -391.4 -85.25 -391.4 -85.0 -392.25 -76.5 -395.15 -75.0 -398.25 -70.9 -398.25 -67.65 -400.0 -67.75" fill="#ee0000" fill-rule="evenodd" stroke="none"/>
    <path d="M-393.65 -47.15 L-400.0 -50.0 -400.0 -67.75 -398.25 -67.65 -398.0 -65.15 -398.15 -64.9 -397.9 -59.65 -396.25 -55.9 -396.0 -55.5 -393.25 -53.75 -393.75 -51.5 -393.65 -47.15" fill="#f50000" fill-opacity="0.9098039" fill-rule="evenodd" stroke="none"/>
    <path d="M-305.9 -262.0 L-332.75 -201.0 -332.9 -200.4 -342.4 -178.5 -342.65 -178.15 -346.75 -168.0 -346.9 -168.0 -347.25 -167.25 -347.15 -167.0 -347.75 -166.0 -347.9 -165.0 -360.15 -134.65 -361.25 -126.5 -361.25 -126.15 -364.25 -104.9 -364.15 -104.5 -364.65 -101.5 -365.4 -86.65 -365.25 -86.0 -365.65 -84.0 -365.4 -83.25 -365.4 -82.15 -365.5 -81.75 -366.4 -67.9 -366.25 -66.9 -366.5 -66.75 -366.5 -60.25 -366.9 -60.25 -365.9 -57.5 -365.75 -57.4 -365.15 -54.9 -365.15 -54.65 -363.75 -49.5 -363.65 -49.0 -363.25 -47.9 -361.65 -41.25 -361.25 -40.9 -361.25 -40.75 -361.4 -40.4 -360.4 -37.0 -360.25 -36.75 -360.0 -35.4 -359.65 -34.4 -359.75 -34.15 -359.5 -33.65 -359.4 -32.9 -359.25 -32.65 -359.0 -31.9 -359.4 -31.75 -359.65 -31.75 -374.4 -38.5 -374.65 -38.5 -375.15 -38.9 -379.9 -40.9 -381.25 -41.65 -382.15 -41.9 -390.5 -45.65 -390.5 -45.75 -392.25 -46.4 -392.4 -46.65 -392.75 -46.65 -393.25 -46.9 -393.25 -47.0 -393.65 -46.75 -393.65 -47.15 -393.75 -51.5 -393.25 -53.75 -396.0 -55.5 -396.25 -55.9 -397.9 -59.65 -398.15 -64.9 -398.0 -65.15 -398.25 -67.65 -398.25 -70.9 -395.15 -75.0 -392.25 -76.5 -391.4 -85.0 -391.4 -85.25 -390.15 -98.5 -390.4 -120.75 -390.25 -121.65 -392.4 -137.0 -391.15 -150.75 -391.0 -151.0 -388.5 -199.4 -383.0 -215.15 -383.0 -215.75 -382.75 -216.15 -382.9 -216.5 -382.65 -217.25 -382.4 -217.65 -381.9 -218.75 -381.15 -219.9 -381.15 -220.0 -380.9 -220.25 -380.65 -220.4 -380.65 -220.65 -380.4 -220.9 -376.65 -227.0 -372.75 -230.5 -344.9 -247.0 -344.75 -247.0 -343.9 -247.65 -343.75 -247.65 -343.5 -247.75 -343.15 -248.0 -338.65 -250.65 -328.4 -258.15 -328.15 -258.25 -327.9 -258.5 -319.25 -262.5 -318.5 -262.75 -315.0 -264.9 -314.9 -265.0 -314.0 -265.5 -313.9 -265.5 -310.0 -267.9 -309.9 -267.75 -305.75 -262.5 -305.9 -262.0" fill="#de0000" fill-opacity="0.9098039" fill-rule="evenodd" stroke="none"/>
    <path d="M-122.9 -267.0 L-120.65 -267.0 -122.0 -262.0 -122.75 -264.5 -122.65 -265.4 -122.9 -267.0" fill="#d10000" fill-rule="evenodd" stroke="none"/>
    <path d="M-150.75 -0.9 L-214.65 -0.9 -213.9 -16.25 -211.9 -32.65 -211.75 -33.0 -206.5 -56.75 -206.4 -57.0 -206.4 -58.75 -206.25 -59.5 -206.25 -60.9 -206.15 -61.25 -205.65 -67.9 -205.65 -68.5 -206.25 -75.25 -206.4 -75.9 -206.4 -76.0 -206.5 -76.75 -206.65 -77.15 -206.65 -77.5 -207.65 -82.9 -207.65 -83.15 -207.75 -83.4 -207.75 -83.75 -207.9 -84.0 -206.9 -93.65 -206.75 -106.4 -202.0 -162.4 -197.65 -199.65 -177.5 -195.9 -140.65 -191.9 -140.0 -191.75 -124.15 -190.65 -123.25 -190.5 -123.4 -174.65 -123.0 -162.5 -126.65 -135.9 -126.65 -135.25 -126.5 -135.0 -126.75 -134.9 -127.25 -130.75 -127.15 -130.5 -132.5 -106.4 -132.4 -106.15 -132.65 -105.75 -132.5 -105.5 -132.75 -105.4 -134.65 -96.75 -140.25 -81.5 -140.25 -80.9 -143.4 -72.0 -143.5 -71.25 -149.9 -58.75 -147.75 -45.15 -147.65 -44.75 -147.15 -40.15 -146.5 -29.5 -146.4 -29.15 -149.25 -9.0 -149.25 -8.9 -149.15 -8.5 -150.75 -0.9 M-304.5 -180.5 L-304.65 -181.25 -304.5 -181.75 -304.5 -189.25 -304.4 -189.65 -304.5 -192.5 -304.4 -193.0 -304.9 -208.4 -304.65 -208.9 -305.4 -245.15 -305.5 -245.5 -305.75 -258.65 -305.65 -259.15 -305.9 -262.0 -305.75 -262.5 -274.0 -237.5 -247.4 -216.0 -283.4 -193.5 -289.0 -190.0 -304.5 -180.5" fill="#aa0000" fill-opacity="0.9098039" fill-rule="evenodd" stroke="none"/>
    <path d="M-110.5 -267.4 L-116.4 -236.0 -116.25 -235.65 -116.5 -235.5 -116.4 -236.0 -114.25 -263.9 -114.4 -264.75 -114.4 -265.25 -114.15 -265.4 -114.25 -265.75 -114.15 -267.25 -110.5 -267.4" fill="#e40000" fill-rule="evenodd" stroke="none"/>
    <path d="M-278.65 -0.9 L-279.4 -0.9 -275.65 -21.15 -275.25 -21.4 -275.25 -20.9 -278.15 -3.0 -278.65 -0.9 M-304.65 -180.25 L-304.5 -180.5 -289.0 -190.0 -304.15 -168.9 -304.65 -168.65 -304.65 -180.25 M-114.9 -267.25 L-114.15 -267.25 -114.25 -265.75 -114.4 -265.25 -114.4 -264.75 -119.0 -233.15 -120.9 -248.75 -120.75 -250.0 -114.9 -267.25 M-247.4 -216.0 L-237.5 -208.0 -283.4 -193.5 -247.4 -216.0 M-275.25 -21.5 L-275.5 -21.9 -275.15 -22.0 -275.25 -21.5" fill="#b90000" fill-rule="evenodd" stroke="none"/>
    <path d="M-116.5 -235.5 L-117.15 -230.4 -117.0 -229.65 -120.25 -190.4 -120.65 -190.4 -123.25 -191.15 -123.4 -193.25 -121.5 -208.4 -121.75 -208.65 -121.4 -209.0 -121.65 -209.4 -120.9 -215.25 -118.5 -227.0 -118.65 -227.25 -119.0 -233.15 -114.4 -264.75 -114.25 -263.9 -116.4 -236.0 -116.5 -235.5 M-114.4 -265.25 L-114.25 -265.75 -114.15 -265.4 -114.4 -265.25" fill="#b60000" fill-rule="evenodd" stroke="none"/>
    <path d="M-119.0 -233.15 L-118.65 -227.25 -118.5 -227.0 -120.9 -215.25 -121.65 -209.4 -121.4 -209.0 -121.75 -208.65 -121.5 -208.4 -123.4 -193.25 -123.25 -191.15 -123.25 -190.5 -124.15 -190.65 -140.0 -191.75 -139.0 -195.15 -134.25 -208.75 -133.65 -211.5 -120.9 -248.75 -119.0 -233.15" fill="#a30000" fill-opacity="0.9098039" fill-rule="evenodd" stroke="none"/>
    <path d="M-122.15 -260.5 L-120.75 -250.0 -120.9 -248.75 -133.65 -211.5 -134.25 -208.75 -139.0 -195.15 -139.15 -196.0 -138.4 -198.15 -133.15 -218.0 -133.25 -218.5 -129.15 -234.25 -128.9 -234.5 -126.9 -243.4 -122.15 -260.5" fill="#b60000" fill-opacity="0.9098039" fill-rule="evenodd" stroke="none"/>
    <path d="M-234.75 -208.9 L-237.5 -208.0 -247.4 -216.0 -236.75 -222.65 -223.5 -223.25 -215.5 -219.9 -202.75 -218.25 -202.65 -218.0 -199.5 -213.25 -197.0 -204.9 -197.25 -202.15 -214.75 -204.5 -234.75 -208.9" fill="#cb0000" fill-rule="evenodd" stroke="none"/>
    <path d="M-234.75 -208.9 L-235.15 -206.25 -237.5 -208.0 -234.75 -208.9" fill="#ce0000" fill-opacity="0.9098039" fill-rule="evenodd" stroke="none"/>
    <path d="M-123.25 -191.15 L-120.65 -190.4 -123.25 -190.5 -123.25 -191.15" fill="#b80000" fill-rule="evenodd" stroke="none"/>
    <path d="M-304.9 -167.9 L-309.75 -161.25 -322.0 -103.5 -324.5 -65.4 -318.9 -35.9 -318.9 -35.15 -325.9 -35.5 -334.4 -38.65 -335.9 -38.65 -335.9 -44.65 -336.0 -45.4 -335.9 -45.75 -335.9 -51.9 -336.15 -52.25 -335.9 -52.9 -336.4 -53.65 -337.65 -55.0 -337.65 -56.4 -337.0 -56.75 -337.0 -57.25 -336.9 -57.75 -335.15 -61.25 -335.4 -71.65 -335.25 -72.0 -338.25 -75.9 -340.4 -76.9 -338.9 -91.75 -334.9 -106.75 -335.0 -107.0 -334.75 -107.4 -330.75 -121.5 -330.75 -122.5 -330.9 -122.9 -331.9 -146.15 -332.0 -146.65 -332.5 -156.25 -333.4 -160.15 -333.4 -160.25 -334.5 -168.65 -334.75 -169.25 -325.5 -171.75 -306.75 -179.15 -306.25 -179.5 -304.65 -180.25 -304.65 -168.65 -304.9 -167.9" fill="#af0000" fill-opacity="0.9098039" fill-rule="evenodd" stroke="none"/>
    <path d="M-120.25 -190.4 L-122.0 -149.15 -123.0 -162.5 -123.4 -174.65 -123.25 -190.5 -120.65 -190.4 -120.25 -190.4" fill="#be0000" fill-rule="evenodd" stroke="none"/>
  </g>
  <defs>
    <radialGradient cx="0" cy="0" gradientTransform="matrix(0.0554, 0.0, 0.0, 0.0554, -262.2, -256.95)" gradientUnits="userSpaceOnUse" id="gradient0" r="819.2" spreadMethod="pad">
      <stop offset="0.0" stop-color="#464646"/>
      <stop offset="1.0" stop-color="#393939"/>
    </radialGradient>
    <radialGradient cx="0" cy="0" gradientTransform="matrix(0.1193, 0.0, 0.0, 0.1193, -213.4, -300.0)" gradientUnits="userSpaceOnUse" id="gradient1" r="819.2" spreadMethod="pad">
      <stop offset="0.0" stop-color="#787878"/>
      <stop offset="1.0" stop-color="#000000"/>
    </radialGradient>
    <radialGradient cx="0" cy="0" gradientTransform="matrix(0.0628, 0.0, 0.0, 0.0628, -288.85, -233.65)" gradientUnits="userSpaceOnUse" id="gradient2" r="819.2" spreadMethod="pad">
      <stop offset="0.0" stop-color="#737373"/>
      <stop offset="1.0" stop-color="#1a1a1a"/>
    </radialGradient>
    <radialGradient cx="0" cy="0" gradientTransform="matrix(0.0316, 0.0, 0.0, 0.0316, -243.75, -259.6)" gradientUnits="userSpaceOnUse" id="gradient3" r="819.2" spreadMethod="pad">
      <stop offset="0.0" stop-color="#000000"/>
      <stop offset="1.0" stop-color="#000000"/>
    </radialGradient>
    <radialGradient cx="0" cy="0" gradientTransform="matrix(0.069, 0.0, 0.0, 0.069, -262.2, -256.95)" gradientUnits="userSpaceOnUse" id="gradient4" r="819.2" spreadMethod="pad">
      <stop offset="0.0" stop-color="#464646"/>
      <stop offset="1.0" stop-color="#010101"/>
    </radialGradient>
    <radialGradient cx="0" cy="0" gradientTransform="matrix(0.034, 0.0, 0.0, 0.034, -271.4, -300.0)" gradientUnits="userSpaceOnUse" id="gradient5" r="819.2" spreadMethod="pad">
      <stop offset="0.0" stop-color="#343434"/>
      <stop offset="1.0" stop-color="#020202"/>
    </radialGradient>
    <radialGradient cx="0" cy="0" gradientTransform="matrix(0.0734, 0.0, 0.0, 0.0734, -125.2, -284.9)" gradientUnits="userSpaceOnUse" id="gradient6" r="819.2" spreadMethod="pad">
      <stop offset="0.0" stop-color="#131313"/>
      <stop offset="1.0" stop-color="#000000"/>
    </radialGradient>
    <radialGradient cx="0" cy="0" gradientTransform="matrix(0.1162, 0.0, 0.0, 0.1162, -123.35, -192.8)" gradientUnits="userSpaceOnUse" id="gradient7" r="819.2" spreadMethod="pad">
      <stop offset="0.0" stop-color="#040404"/>
      <stop offset="1.0" stop-color="#000000"/>
    </radialGradient>
    <radialGradient cx="0" cy="0" gradientTransform="matrix(0.0256, 0.0, 0.0, 0.0256, -125.2, -284.9)" gradientUnits="userSpaceOnUse" id="gradient8" r="819.2" spreadMethod="pad">
      <stop offset="0.0" stop-color="#131313"/>
      <stop offset="1.0" stop-color="#0b0b0b"/>
    </radialGradient>
    <radialGradient cx="0" cy="0" gradientTransform="matrix(0.0248, 0.0, 0.0, 0.0248, -311.35, -251.55)" gradientUnits="userSpaceOnUse" id="gradient9" r="819.2" spreadMethod="pad">
      <stop offset="0.0" stop-color="#0e0e0e"/>
      <stop offset="1.0" stop-color="#010101"/>
    </radialGradient>
    <radialGradient cx="0" cy="0" gradientTransform="matrix(0.0472, 0.0, 0.0, 0.0472, -341.7, -243.9)" gradientUnits="userSpaceOnUse" id="gradient10" r="819.2" spreadMethod="pad">
      <stop offset="0.0" stop-color="#010101"/>
      <stop offset="1.0" stop-color="#000000"/>
    </radialGradient>
    <radialGradient cx="0" cy="0" gradientTransform="matrix(0.1312, 0.0, 0.0, 0.1312, -287.0, -226.6)" gradientUnits="userSpaceOnUse" id="gradient11" r="819.2" spreadMethod="pad">
      <stop offset="0.0" stop-color="#7f7f7f"/>
      <stop offset="1.0" stop-color="#2d2d2d"/>
    </radialGradient>
    <radialGradient cx="0" cy="0" gradientTransform="matrix(0.0806, 0.0, 0.0, 0.0806, -287.0, -226.6)" gradientUnits="userSpaceOnUse" id="gradient12" r="819.2" spreadMethod="pad">
      <stop offset="0.0" stop-color="#7f7f7f"/>
      <stop offset="1.0" stop-color="#000000"/>
    </radialGradient>
    <radialGradient cx="0" cy="0" gradientTransform="matrix(0.0865, 0.0, 0.0, 0.0865, -202.75, -218.35)" gradientUnits="userSpaceOnUse" id="gradient13" r="819.2" spreadMethod="pad">
      <stop offset="0.0" stop-color="#494949"/>
      <stop offset="1.0" stop-color="#171717"/>
    </radialGradient>
    <radialGradient cx="0" cy="0" gradientTransform="matrix(0.0449, 0.0, 0.0, 0.0449, -262.2, -256.95)" gradientUnits="userSpaceOnUse" id="gradient14" r="819.2" spreadMethod="pad">
      <stop offset="0.0" stop-color="#464646"/>
      <stop offset="1.0" stop-color="#000000"/>
    </radialGradient>
    <radialGradient cx="0" cy="0" gradientTransform="matrix(0.175, 0.0, 0.0, 0.175, -365.25, -171.3)" gradientUnits="userSpaceOnUse" id="gradient15" r="819.2" spreadMethod="pad">
      <stop offset="0.0" stop-color="#565656"/>
      <stop offset="1.0" stop-color="#000000"/>
    </radialGradient>
    <radialGradient cx="0" cy="0" gradientTransform="matrix(0.1471, 0.0, 0.0, 0.1471, -361.3, -181.15)" gradientUnits="userSpaceOnUse" id="gradient16" r="819.2" spreadMethod="pad">
      <stop offset="0.0" stop-color="#292929"/>
      <stop offset="1.0" stop-color="#040404"/>
    </radialGradient>
    <radialGradient cx="0" cy="0" gradientTransform="matrix(0.1946, 0.0, 0.0, 0.1946, -331.65, -200.3)" gradientUnits="userSpaceOnUse" id="gradient17" r="819.2" spreadMethod="pad">
      <stop offset="0.0" stop-color="#363636"/>
      <stop offset="1.0" stop-color="#000000"/>
    </radialGradient>
    <radialGradient cx="0" cy="0" gradientTransform="matrix(0.1196, 0.0, 0.0, 0.1196, -390.3, -122.0)" gradientUnits="userSpaceOnUse" id="gradient18" r="819.2" spreadMethod="pad">
      <stop offset="0.0" stop-color="#5e5e5e"/>
      <stop offset="1.0" stop-color="#060606"/>
    </radialGradient>
    <radialGradient cx="0" cy="0" gradientTransform="matrix(0.0209, 0.0, 0.0, 0.0209, -382.85, -216.8)" gradientUnits="userSpaceOnUse" id="gradient19" r="819.2" spreadMethod="pad">
      <stop offset="0.0" stop-color="#0f0f0f"/>
      <stop offset="1.0" stop-color="#000000"/>
    </radialGradient>
    <radialGradient cx="0" cy="0" gradientTransform="matrix(0.2181, 0.0, 0.0, 0.2181, -153.1, -241.95)" gradientUnits="userSpaceOnUse" id="gradient20" r="819.2" spreadMethod="pad">
      <stop offset="0.0" stop-color="#666666"/>
      <stop offset="1.0" stop-color="#000000"/>
    </radialGradient>
    <radialGradient cx="0" cy="0" gradientTransform="matrix(0.0126, 0.0, 0.0, 0.0126, -215.6, -220.0)" gradientUnits="userSpaceOnUse" id="gradient21" r="819.2" spreadMethod="pad">
      <stop offset="0.0" stop-color="#000000"/>
      <stop offset="1.0" stop-color="#000000"/>
    </radialGradient>
    <radialGradient cx="0" cy="0" gradientTransform="matrix(0.0246, 0.0, 0.0, 0.0246, -203.75, -223.95)" gradientUnits="userSpaceOnUse" id="gradient22" r="819.2" spreadMethod="pad">
      <stop offset="0.0" stop-color="#000000"/>
      <stop offset="1.0" stop-color="#000000"/>
    </radialGradient>
    <radialGradient cx="0" cy="0" gradientTransform="matrix(0.1609, 0.0, 0.0, 0.1609, -193.7, -204.7)" gradientUnits="userSpaceOnUse" id="gradient23" r="819.2" spreadMethod="pad">
      <stop offset="0.0" stop-color="#575757"/>
      <stop offset="1.0" stop-color="#3d3d3d"/>
    </radialGradient>
    <radialGradient cx="0" cy="0" gradientTransform="matrix(0.1292, 0.0, 0.0, 0.1292, -154.35, -173.8)" gradientUnits="userSpaceOnUse" id="gradient24" r="819.2" spreadMethod="pad">
      <stop offset="0.0" stop-color="#494949"/>
      <stop offset="1.0" stop-color="#131313"/>
    </radialGradient>
    <radialGradient cx="0" cy="0" gradientTransform="matrix(0.0639, 0.0, 0.0, 0.0639, -382.85, -216.8)" gradientUnits="userSpaceOnUse" id="gradient25" r="819.2" spreadMethod="pad">
      <stop offset="0.0" stop-color="#0f0f0f"/>
      <stop offset="1.0" stop-color="#090909"/>
    </radialGradient>
    <radialGradient cx="0" cy="0" gradientTransform="matrix(0.1241, 0.0, 0.0, 0.1241, -390.3, -122.0)" gradientUnits="userSpaceOnUse" id="gradient26" r="819.2" spreadMethod="pad">
      <stop offset="0.0" stop-color="#5e5e5e"/>
      <stop offset="1.0" stop-color="#101010"/>
    </radialGradient>
    <radialGradient cx="0" cy="0" gradientTransform="matrix(0.0298, 0.0, 0.0, 0.0298, -389.65, -94.45)" gradientUnits="userSpaceOnUse" id="gradient27" r="819.2" spreadMethod="pad">
      <stop offset="0.0" stop-color="#1c1c1c"/>
      <stop offset="1.0" stop-color="#050505"/>
    </radialGradient>
    <radialGradient cx="0" cy="0" gradientTransform="matrix(0.0749, 0.0, 0.0, 0.0749, -396.45, -66.85)" gradientUnits="userSpaceOnUse" id="gradient28" r="819.2" spreadMethod="pad">
      <stop offset="0.0" stop-color="#212121"/>
      <stop offset="1.0" stop-color="#212121"/>
    </radialGradient>
    <radialGradient cx="0" cy="0" gradientTransform="matrix(0.0553, 0.0, 0.0, 0.0553, -379.25, -60.95)" gradientUnits="userSpaceOnUse" id="gradient29" r="819.2" spreadMethod="pad">
      <stop offset="0.0" stop-color="#b5b5b5"/>
      <stop offset="1.0" stop-color="#6d6d6d"/>
    </radialGradient>
    <radialGradient cx="0" cy="0" gradientTransform="matrix(0.0523, 0.0, 0.0, 0.0523, -392.5, -42.55)" gradientUnits="userSpaceOnUse" id="gradient30" r="819.2" spreadMethod="pad">
      <stop offset="0.0" stop-color="#787878"/>
      <stop offset="1.0" stop-color="#040404"/>
    </radialGradient>
    <radialGradient cx="0" cy="0" gradientTransform="matrix(0.0342, 0.0, 0.0, 0.0342, -392.7, -34.1)" gradientUnits="userSpaceOnUse" id="gradient31" r="819.2" spreadMethod="pad">
      <stop offset="0.0" stop-color="#565656"/>
      <stop offset="1.0" stop-color="#040404"/>
    </radialGradient>
    <radialGradient cx="0" cy="0" gradientTransform="matrix(0.037, 0.0, 0.0, 0.037, -388.6, -22.75)" gradientUnits="userSpaceOnUse" id="gradient32" r="819.2" spreadMethod="pad">
      <stop offset="0.0" stop-color="#424242"/>
      <stop offset="1.0" stop-color="#000000"/>
    </radialGradient>
    <radialGradient cx="0" cy="0" gradientTransform="matrix(0.038, 0.0, 0.0, 0.038, -396.55, -13.0)" gradientUnits="userSpaceOnUse" id="gradient33" r="819.2" spreadMethod="pad">
      <stop offset="0.0" stop-color="#b6b6b6"/>
      <stop offset="1.0" stop-color="#343434"/>
    </radialGradient>
    <radialGradient cx="0" cy="0" gradientTransform="matrix(0.1499, 0.0, 0.0, 0.1499, -196.95, -204.95)" gradientUnits="userSpaceOnUse" id="gradient34" r="819.2" spreadMethod="pad">
      <stop offset="0.0" stop-color="#030303"/>
      <stop offset="1.0" stop-color="#010101"/>
    </radialGradient>
    <radialGradient cx="0" cy="0" gradientTransform="matrix(0.0316, 0.0, 0.0, 0.0316, -206.95, -82.6)" gradientUnits="userSpaceOnUse" id="gradient35" r="819.2" spreadMethod="pad">
      <stop offset="0.0" stop-color="#030303"/>
      <stop offset="1.0" stop-color="#000000"/>
    </radialGradient>
    <radialGradient cx="0" cy="0" gradientTransform="matrix(0.0213, 0.0, 0.0, 0.0213, -202.85, -67.95)" gradientUnits="userSpaceOnUse" id="gradient36" r="819.2" spreadMethod="pad">
      <stop offset="0.0" stop-color="#040404"/>
      <stop offset="1.0" stop-color="#020202"/>
    </radialGradient>
    <radialGradient cx="0" cy="0" gradientTransform="matrix(0.0217, 0.0, 0.0, 0.0217, -205.15, -64.9)" gradientUnits="userSpaceOnUse" id="gradient37" r="819.2" spreadMethod="pad">
      <stop offset="0.0" stop-color="#383838"/>
      <stop offset="1.0" stop-color="#030303"/>
    </radialGradient>
    <radialGradient cx="0" cy="0" gradientTransform="matrix(0.0308, 0.0, 0.0, 0.0308, -204.4, -79.9)" gradientUnits="userSpaceOnUse" id="gradient38" r="819.2" spreadMethod="pad">
      <stop offset="0.0" stop-color="#4d4d4d"/>
      <stop offset="1.0" stop-color="#2e2e2e"/>
    </radialGradient>
    <radialGradient cx="0" cy="0" gradientTransform="matrix(0.1471, 0.0, 0.0, 0.1471, -123.35, -192.8)" gradientUnits="userSpaceOnUse" id="gradient39" r="819.2" spreadMethod="pad">
      <stop offset="0.0" stop-color="#040404"/>
      <stop offset="1.0" stop-color="#000000"/>
    </radialGradient>
    <radialGradient cx="0" cy="0" gradientTransform="matrix(0.115, 0.0, 0.0, 0.115, -332.5, -155.6)" gradientUnits="userSpaceOnUse" id="gradient40" r="819.2" spreadMethod="pad">
      <stop offset="0.0" stop-color="#656565"/>
      <stop offset="1.0" stop-color="#040404"/>
    </radialGradient>
    <radialGradient cx="0" cy="0" gradientTransform="matrix(0.0528, 0.0, 0.0, 0.0528, -186.75, -73.05)" gradientUnits="userSpaceOnUse" id="gradient41" r="819.2" spreadMethod="pad">
      <stop offset="0.0" stop-color="#393939"/>
      <stop offset="1.0" stop-color="#000000"/>
    </radialGradient>
    <radialGradient cx="0" cy="0" gradientTransform="matrix(0.0788, 0.0, 0.0, 0.0788, -205.15, -64.9)" gradientUnits="userSpaceOnUse" id="gradient42" r="819.2" spreadMethod="pad">
      <stop offset="0.0" stop-color="#383838"/>
      <stop offset="1.0" stop-color="#020202"/>
    </radialGradient>
    <radialGradient cx="0" cy="0" gradientTransform="matrix(0.0856, 0.0, 0.0, 0.0856, -188.8, -60.05)" gradientUnits="userSpaceOnUse" id="gradient43" r="819.2" spreadMethod="pad">
      <stop offset="0.0" stop-color="#1c1c1c"/>
      <stop offset="1.0" stop-color="#000000"/>
    </radialGradient>
    <radialGradient cx="0" cy="0" gradientTransform="matrix(0.0635, 0.0, 0.0, 0.0635, -378.65, -29.4)" gradientUnits="userSpaceOnUse" id="gradient44" r="819.2" spreadMethod="pad">
      <stop offset="0.0" stop-color="#b6b6b6"/>
      <stop offset="1.0" stop-color="#2a2a2a"/>
    </radialGradient>
    <radialGradient cx="0" cy="0" gradientTransform="matrix(0.0632, 0.0, 0.0, 0.0632, -334.15, -38.7)" gradientUnits="userSpaceOnUse" id="gradient45" r="819.2" spreadMethod="pad">
      <stop offset="0.0" stop-color="#121212"/>
      <stop offset="1.0" stop-color="#121212"/>
    </radialGradient>
    <radialGradient cx="0" cy="0" gradientTransform="matrix(0.0583, 0.0, 0.0, 0.0583, -334.15, -38.7)" gradientUnits="userSpaceOnUse" id="gradient46" r="819.2" spreadMethod="pad">
      <stop offset="0.0" stop-color="#717171"/>
      <stop offset="1.0" stop-color="#707070"/>
    </radialGradient>
    <radialGradient cx="0" cy="0" gradientTransform="matrix(0.0284, 0.0, 0.0, 0.0284, -373.55, -40.45)" gradientUnits="userSpaceOnUse" id="gradient47" r="819.2" spreadMethod="pad">
      <stop offset="0.0" stop-color="#000000"/>
      <stop offset="1.0" stop-color="#000000"/>
    </radialGradient>
    <radialGradient cx="0" cy="0" gradientTransform="matrix(0.0583, 0.0, 0.0, 0.0583, -324.4, -33.3)" gradientUnits="userSpaceOnUse" id="gradient48" r="819.2" spreadMethod="pad">
      <stop offset="0.0" stop-color="#121212"/>
      <stop offset="1.0" stop-color="#121212"/>
    </radialGradient>
    <radialGradient cx="0" cy="0" gradientTransform="matrix(0.0219, 0.0, 0.0, 0.0219, -383.55, -16.05)" gradientUnits="userSpaceOnUse" id="gradient49" r="819.2" spreadMethod="pad">
      <stop offset="0.0" stop-color="#979797"/>
      <stop offset="1.0" stop-color="#949494"/>
    </radialGradient>
    <radialGradient cx="0" cy="0" gradientTransform="matrix(0.0199, 0.0, 0.0, 0.0199, -378.55, -20.35)" gradientUnits="userSpaceOnUse" id="gradient50" r="819.2" spreadMethod="pad">
      <stop offset="0.0" stop-color="#212121"/>
      <stop offset="1.0" stop-color="#212121"/>
    </radialGradient>
    <radialGradient cx="0" cy="0" gradientTransform="matrix(0.015, 0.0, 0.0, 0.015, -356.0, -20.05)" gradientUnits="userSpaceOnUse" id="gradient51" r="819.2" spreadMethod="pad">
      <stop offset="0.0" stop-color="#dedede"/>
      <stop offset="1.0" stop-color="#222222"/>
    </radialGradient>
    <radialGradient cx="0" cy="0" gradientTransform="matrix(0.0185, 0.0, 0.0, 0.0185, -354.15, -15.7)" gradientUnits="userSpaceOnUse" id="gradient52" r="819.2" spreadMethod="pad">
      <stop offset="0.0" stop-color="#b3b3b3"/>
      <stop offset="1.0" stop-color="#5a5a5a"/>
    </radialGradient>
    <radialGradient cx="0" cy="0" gradientTransform="matrix(0.0584, 0.0, 0.0, 0.0584, -339.7, -35.15)" gradientUnits="userSpaceOnUse" id="gradient53" r="819.2" spreadMethod="pad">
      <stop offset="0.0" stop-color="#121212"/>
      <stop offset="1.0" stop-color="#121212"/>
    </radialGradient>
    <radialGradient cx="0" cy="0" gradientTransform="matrix(0.0584, 0.0, 0.0, 0.0584, -338.2, -36.15)" gradientUnits="userSpaceOnUse" id="gradient54" r="819.2" spreadMethod="pad">
      <stop offset="0.0" stop-color="#121212"/>
      <stop offset="1.0" stop-color="#121212"/>
    </radialGradient>
    <radialGradient cx="0" cy="0" gradientTransform="matrix(0.0197, 0.0, 0.0, 0.0197, -384.6, -14.15)" gradientUnits="userSpaceOnUse" id="gradient55" r="819.2" spreadMethod="pad">
      <stop offset="0.0" stop-color="#5e5e5e"/>
      <stop offset="1.0" stop-color="#212121"/>
    </radialGradient>
    <radialGradient cx="0" cy="0" gradientTransform="matrix(0.0067, 0.0, 0.0, 0.0067, -381.25, -18.5)" gradientUnits="userSpaceOnUse" id="gradient56" r="819.2" spreadMethod="pad">
      <stop offset="0.0" stop-color="#474747"/>
      <stop offset="1.0" stop-color="#3d3d3d"/>
    </radialGradient>
  </defs>
</svg>
