<?xml version="1.0" encoding="UTF-8" standalone="no"?>
<svg xmlns:xlink="http://www.w3.org/1999/xlink" height="299.1px" width="288.75px" xmlns="http://www.w3.org/2000/svg">
  <g transform="matrix(1.0, 0.0, 0.0, 1.0, 400.0, 300.0)">
    <path d="M-244.65 -300.0 L-258.25 -258.9 -260.9 -252.25 -261.0 -253.15 -260.9 -253.5 -252.75 -300.0 -244.65 -300.0" fill="url(#gradient0)" fill-rule="evenodd" stroke="none"/>
    <path d="M-126.9 -300.0 L-129.25 -283.25 -129.0 -283.15 -141.75 -236.5 -141.75 -236.4 -142.0 -235.5 -142.15 -235.15 -145.9 -222.25 -158.65 -224.65 -179.75 -227.0 -193.25 -233.65 -209.4 -232.25 -223.15 -234.15 -260.9 -250.25 -261.4 -250.5 -261.25 -251.15 -261.25 -251.5 -260.9 -252.25 -258.25 -258.9 -244.65 -300.0 -126.9 -300.0" fill="url(#gradient1)" fill-rule="evenodd" stroke="none"/>
    <path d="M-260.9 -252.25 L-261.25 -251.5 -269.5 -259.25 -262.5 -265.75 -262.25 -265.5 -262.75 -261.75 -261.15 -253.65 -261.0 -253.15 -260.9 -252.25 M-249.65 -233.15 L-249.5 -232.75 -250.75 -232.75 -263.9 -238.15 -259.75 -249.15 -259.5 -248.65 -256.15 -241.0 -249.65 -233.15" fill="url(#gradient2)" fill-rule="evenodd" stroke="none"/>
    <path d="M-258.65 -247.75 L-249.65 -233.15 -256.15 -241.0 -259.5 -248.65 -258.65 -247.75 M-262.25 -265.5 L-261.15 -253.65 -260.9 -253.5 -261.0 -253.15 -261.15 -253.65 -262.75 -261.75 -262.25 -265.5" fill="url(#gradient3)" fill-rule="evenodd" stroke="none"/>
    <path d="M-261.25 -251.5 L-261.25 -251.15 -261.4 -250.5 -312.65 -246.0 -320.5 -257.9 -292.25 -274.4 -282.0 -282.75 -282.65 -281.9 -281.5 -283.15 -266.25 -299.9 -252.75 -300.0 -260.9 -253.5 -261.15 -253.65 -262.25 -265.5 -262.5 -265.75 -269.5 -259.25 -261.25 -251.5" fill="url(#gradient4)" fill-rule="evenodd" stroke="none"/>
    <path d="M-282.0 -282.75 L-281.5 -283.15 -282.65 -281.9 -282.0 -282.75" fill="url(#gradient5)" fill-rule="evenodd" stroke="none"/>
    <path d="M-330.4 -254.0 L-320.5 -257.9 -312.65 -246.0 -334.0 -250.4 -330.4 -254.0" fill="url(#gradient6)" fill-rule="evenodd" stroke="none"/>
    <path d="M-381.25 -223.0 L-378.0 -226.15 -341.9 -246.25 -330.4 -254.0 -334.0 -250.4 -345.0 -239.25 -381.25 -223.0" fill="url(#gradient7)" fill-rule="evenodd" stroke="none"/>
    <path d="M-388.4 -212.25 L-387.9 -213.4 -384.25 -218.65 -384.25 -218.75 -384.0 -219.0 -381.25 -223.0 -345.0 -239.25 -334.0 -250.4 -312.65 -246.0 -287.25 -220.4 -279.5 -217.4 -330.5 -179.15 -349.9 -171.0 -366.5 -166.75 -368.15 -167.65 -370.9 -171.15 -378.25 -176.75 -378.75 -179.4 -382.5 -191.4 -382.9 -191.4 -383.15 -189.15 -383.5 -188.9 -387.75 -210.5 -388.4 -212.25" fill="url(#gradient8)" fill-rule="evenodd" stroke="none"/>
    <path d="M-141.75 -236.5 L-129.0 -283.15 -129.25 -283.25 -126.9 -300.0 -122.9 -299.75 -125.65 -279.0 -128.25 -281.4 -128.4 -281.0 -141.75 -236.5" fill="url(#gradient9)" fill-rule="evenodd" stroke="none"/>
    <path d="M-141.75 -236.5 L-128.4 -281.0 -126.0 -272.25 -122.9 -259.25 -118.75 -221.15 -121.5 -208.25 -124.5 -187.4 -124.65 -188.9 -134.0 -195.4 Q-135.65 -197.25 -132.9 -211.75 L-135.65 -216.15 -144.4 -215.25 -145.5 -214.5 -146.0 -209.9 -149.25 -206.0 -153.75 -209.0 -152.0 -215.9 -145.9 -222.25 -142.15 -235.15 -142.0 -235.5 -141.75 -236.4 -141.75 -236.5 M-133.15 -232.75 L-139.65 -233.65 -139.65 -232.15 -133.75 -231.65 -133.15 -232.75" fill="url(#gradient10)" fill-rule="evenodd" stroke="none"/>
    <path d="M-128.4 -281.0 L-128.25 -281.4 -125.65 -279.0 -126.0 -272.25 -128.4 -281.0" fill="url(#gradient11)" fill-rule="evenodd" stroke="none"/>
    <path d="M-261.4 -250.5 L-260.9 -250.25 -259.75 -249.15 -263.9 -238.15 -250.75 -232.75 -249.5 -232.75 -249.65 -233.15 -258.65 -247.75 -236.75 -227.0 -233.4 -226.25 -229.4 -220.65 -220.75 -217.15 -222.9 -217.0 -238.25 -216.4 -270.9 -215.15 -279.5 -217.4 -287.25 -220.4 -312.65 -246.0 -261.4 -250.5" fill="url(#gradient12)" fill-rule="evenodd" stroke="none"/>
    <path d="M-260.9 -250.25 L-223.15 -234.15 -209.4 -232.25 -193.25 -233.65 -179.75 -227.0 -158.65 -224.65 -145.9 -222.25 -152.0 -215.9 -153.75 -209.0 -169.5 -213.15 -186.9 -212.9 -202.9 -212.4 -215.75 -213.9 -216.4 -214.25 -220.75 -217.15 -229.4 -220.65 -233.4 -226.25 -259.5 -248.65 -259.75 -249.15 -260.9 -250.25 M-185.0 -213.75 L-183.15 -214.9 -184.25 -215.15 -201.15 -217.15 -185.0 -213.75" fill="url(#gradient13)" fill-rule="evenodd" stroke="none"/>
    <path d="M-233.4 -226.25 L-236.75 -227.0 -258.65 -247.75 -259.5 -248.65 -233.4 -226.25" fill="url(#gradient14)" fill-rule="evenodd" stroke="none"/>
    <path d="M-133.15 -232.75 L-133.75 -231.65 -139.65 -232.15 -139.65 -233.65 -133.15 -232.75 M-149.25 -206.0 L-146.0 -209.9 -145.5 -214.5 -144.4 -215.25 -135.65 -216.15 -132.9 -211.75 Q-135.65 -197.25 -134.0 -195.4 L-138.65 -194.9 Q-148.65 -202.4 -149.25 -206.0 M-147.0 -195.9 L-156.5 -201.25 -160.0 -206.5 -156.15 -206.15 -146.65 -198.4 Q-144.75 -195.9 -147.0 -195.9 M-156.0 -57.75 L-157.65 -57.75 -156.5 -63.0 -155.15 -63.0 -150.4 -59.5 -150.4 -59.15 -156.0 -57.75 M-162.9 -57.65 L-166.5 -57.75 -164.0 -62.65 -162.9 -57.65" fill="url(#gradient15)" fill-rule="evenodd" stroke="none"/>
    <path d="M-387.9 -213.4 L-387.4 -215.15 -384.25 -218.65 -387.9 -213.4" fill="url(#gradient16)" fill-rule="evenodd" stroke="none"/>
    <path d="M-216.4 -214.25 L-222.9 -217.0 -220.75 -217.15 -216.4 -214.25" fill="url(#gradient17)" fill-rule="evenodd" stroke="none"/>
    <path d="M-238.25 -216.4 L-309.0 -173.75 -328.25 -166.65 -339.0 -164.15 -341.75 -163.4 -350.0 -162.65 -352.75 -163.75 -366.5 -166.75 -349.9 -171.0 -330.5 -179.15 -279.5 -217.4 -270.9 -215.15 -238.25 -216.4" fill="url(#gradient18)" fill-rule="evenodd" stroke="none"/>
    <path d="M-339.0 -164.15 L-338.25 -159.5 -341.15 -150.75 -340.9 -148.9 -341.25 -128.0 -346.0 -86.0 -347.9 -64.0 -348.25 -63.15 -353.5 -61.4 -353.5 -61.75 -353.9 -61.75 -355.0 -60.9 -361.75 -58.5 -365.4 -58.25 -362.9 -84.75 -368.25 -89.4 -374.15 -85.0 -376.0 -57.5 -379.25 -57.5 -379.5 -69.15 -385.65 -85.4 -385.75 -86.5 -386.15 -86.65 -387.75 -77.15 -389.65 -59.65 -392.75 -60.15 -393.65 -60.4 -393.75 -60.75 -391.15 -87.4 -391.25 -88.9 -385.4 -151.9 -385.65 -152.4 -383.5 -165.5 -383.0 -166.25 -381.9 -172.15 -379.4 -168.9 -379.4 -168.4 -371.75 -167.15 -368.15 -167.65 -366.5 -166.75 -352.75 -163.75 -350.0 -162.65 -341.75 -163.4 -339.0 -164.15" fill="url(#gradient19)" fill-rule="evenodd" stroke="none"/>
    <path d="M-383.5 -188.9 L-383.15 -189.15 -382.9 -191.4 -382.5 -191.4 -378.75 -179.4 -378.25 -176.75 -370.9 -171.15 -368.15 -167.65 -371.75 -167.15 -379.4 -168.4 -379.4 -168.9 -381.9 -172.15 -383.4 -182.0 -383.5 -188.9 M-355.0 -60.9 L-353.9 -61.75 -353.5 -61.75 -353.5 -61.4 -355.0 -60.9 M-365.4 -58.25 L-370.25 -57.5 -376.0 -57.5 -374.15 -85.0 -368.25 -89.4 -362.9 -84.75 -365.4 -58.25 M-379.25 -57.5 L-388.25 -58.9 -389.65 -59.65 -387.75 -77.15 -386.15 -86.65 -385.75 -86.5 -385.65 -85.4 -379.5 -69.15 -379.25 -57.5" fill="url(#gradient20)" fill-rule="evenodd" stroke="none"/>
    <path d="M-395.25 -98.15 L-395.4 -115.9 -397.5 -130.5 -396.25 -145.4 -394.4 -194.75 -388.5 -211.5 -388.4 -210.9 -388.4 -211.9 -388.4 -212.25 -387.75 -210.5 -383.5 -188.9 -383.4 -182.0 -381.9 -172.15 -383.0 -166.25 -383.5 -165.5 -385.65 -152.4 -385.4 -151.9 -391.25 -88.9 -391.15 -87.4 -393.75 -60.75 -397.15 -64.4 -396.9 -68.5 -395.15 -87.25 -395.25 -94.0 -395.25 -98.15" fill="url(#gradient21)" fill-rule="evenodd" stroke="none"/>
    <path d="M-185.0 -213.75 L-201.15 -217.15 -184.25 -215.15 -183.15 -214.9 -185.0 -213.75" fill="url(#gradient22)" fill-rule="evenodd" stroke="none"/>
    <path d="M-207.25 -92.65 L-207.15 -101.4 -202.65 -156.9 -197.5 -199.15 -200.15 -207.75 -200.4 -208.4 -202.9 -212.4 -186.9 -212.9 -185.5 -197.25 -191.0 -152.4 -195.65 -95.25 -186.5 -66.9 -204.4 -73.5 -207.5 -76.4 -207.5 -76.65 -207.65 -77.0 -207.4 -88.25 -207.25 -92.65" fill="url(#gradient23)" fill-rule="evenodd" stroke="none"/>
    <path d="M-134.0 -195.4 L-124.65 -188.9 -124.5 -187.4 -124.5 -186.15 -125.5 -155.0 -128.75 -124.5 -129.15 -124.4 -129.0 -123.5 -136.4 -89.5 -136.4 -89.4 -136.5 -89.0 -136.65 -88.65 -136.75 -88.25 -136.9 -88.15 -143.65 -65.65 -157.65 -64.4 -170.0 -64.9 -186.25 -66.65 -186.5 -66.9 -195.65 -95.25 -191.0 -152.4 -185.5 -197.25 -186.9 -212.9 -169.5 -213.15 -153.75 -209.0 -149.25 -206.0 Q-148.65 -202.4 -138.65 -194.9 L-134.0 -195.4 M-147.0 -195.9 Q-144.75 -195.9 -146.65 -198.4 L-156.15 -206.15 -160.0 -206.5 -156.5 -201.25 -147.0 -195.9" fill="url(#gradient24)" fill-rule="evenodd" stroke="none"/>
    <path d="M-388.5 -211.5 L-388.4 -211.9 -388.4 -210.9 -388.5 -211.5" fill="url(#gradient25)" fill-rule="evenodd" stroke="none"/>
    <path d="M-395.4 -96.65 L-395.25 -98.15 -395.25 -94.0 -395.4 -96.65" fill="url(#gradient26)" fill-rule="evenodd" stroke="none"/>
    <path d="M-397.75 -70.5 L-395.4 -96.65 -395.25 -94.0 -395.15 -87.25 -396.9 -68.5 -397.75 -70.5" fill="url(#gradient27)" fill-rule="evenodd" stroke="none"/>
    <path d="M-344.9 -71.4 L-342.65 -70.5 Q-339.25 -66.75 -339.4 -65.65 L-339.4 -65.5 -340.9 -61.75 -346.9 -57.9 -347.4 -57.9 -347.9 -59.5 -348.65 -60.4 -350.4 -56.9 -357.25 -54.9 -369.65 -53.5 -383.25 -54.0 -394.15 -56.25 -400.0 -59.25 -400.0 -69.25 -397.75 -70.5 -396.9 -68.5 -397.15 -64.4 -393.75 -60.75 -393.65 -60.4 -392.75 -60.15 -389.65 -59.65 -388.25 -58.9 -379.25 -57.5 -376.0 -57.5 -370.25 -57.5 -365.4 -58.25 -361.75 -58.5 -355.0 -60.9 -353.5 -61.4 -348.25 -63.15 -347.9 -64.0 -344.9 -70.25 -344.9 -71.4" fill="url(#gradient28)" fill-rule="evenodd" stroke="none"/>
    <path d="M-339.4 -65.5 L-339.25 -55.25 Q-340.75 -50.4 -341.65 -50.15 L-345.65 -47.4 -347.75 -46.4 -348.0 -57.15 -347.4 -57.9 -346.9 -57.9 -340.9 -61.75 -339.4 -65.5 M-398.25 -47.15 L-400.0 -48.15 -400.0 -59.25 -394.15 -56.25 -383.25 -54.0 -369.65 -53.5 -357.25 -54.9 -350.4 -56.9 -353.5 -50.4 -356.25 -49.75 -358.9 -48.65 -358.65 -48.4 -360.65 -43.0 -372.65 -42.0 -382.5 -42.4 -394.65 -45.25 -398.15 -47.15 -398.25 -47.15" fill="url(#gradient29)" fill-rule="evenodd" stroke="none"/>
    <path d="M-398.75 -41.0 L-398.75 -44.9 -398.25 -47.15 -398.15 -47.15 -394.65 -45.25 -382.5 -42.4 -372.65 -42.0 -360.65 -43.0 -361.5 -40.0 -370.15 -33.5 -373.65 -31.5 -376.65 -33.15 -380.25 -33.65 Q-381.6 -32.75 -383.0 -31.9 L-384.5 -33.4 -390.25 -35.15 -391.25 -34.65 -395.65 -37.5 -396.75 -37.25 -397.75 -40.25 -398.5 -39.9 -398.65 -39.9 -398.65 -40.9 -398.75 -41.0" fill="url(#gradient30)" fill-rule="evenodd" stroke="none"/>
    <path d="M-399.9 -8.75 L-400.0 -40.0 -398.75 -41.0 -398.65 -40.9 -398.65 -39.9 -399.0 -38.4 -398.9 -32.9 -397.4 -27.0 -397.15 -21.9 -393.9 -16.75 -394.5 -15.5 -394.75 -15.25 -394.9 -15.15 -396.9 -10.65 -399.9 -8.75" fill="url(#gradient31)" fill-rule="evenodd" stroke="none"/>
    <path d="M-341.65 -50.15 L-341.4 -48.9 -339.9 -47.25 -339.9 -33.0 -340.0 -32.25 Q-338.9 -30.15 -341.75 -23.65 L-347.0 -19.75 -347.5 -19.25 -346.75 -18.25 -344.65 -19.25 -348.4 -16.4 -351.0 -15.5 -355.25 -14.0 -350.5 -16.5 -349.4 -18.4 -350.25 -18.15 -358.5 -15.25 -370.4 -13.5 -379.65 -13.65 -385.9 -13.25 -386.5 -12.9 -387.15 -12.25 -391.65 -9.65 -391.65 -9.5 -394.4 -8.0 -398.15 -6.25 -400.0 -5.9 -399.9 -8.75 -396.9 -10.65 -394.9 -15.15 -394.75 -15.25 -394.5 -15.5 -393.9 -16.75 -392.0 -19.25 -390.15 -22.0 -382.4 -26.0 -373.65 -31.5 -370.15 -33.5 -361.5 -40.0 -360.65 -43.0 -358.65 -48.4 -358.9 -48.65 -356.25 -49.75 -353.5 -50.4 -350.4 -56.9 -348.65 -60.4 -347.9 -59.5 -347.4 -57.9 -348.0 -57.15 -347.75 -46.4 -345.65 -47.4 -341.65 -50.15" fill="url(#gradient32)" fill-rule="evenodd" stroke="none"/>
    <path d="M-397.4 -27.0 L-395.15 -23.15 -392.0 -19.25 -393.9 -16.75 -397.15 -21.9 -397.4 -27.0" fill="url(#gradient33)" fill-rule="evenodd" stroke="none"/>
    <path d="M-398.65 -39.9 L-398.5 -39.9 -397.75 -40.25 -396.75 -37.25 -395.65 -37.5 -391.25 -34.65 -390.25 -35.15 -384.5 -33.4 -383.0 -31.9 Q-381.6 -32.75 -380.25 -33.65 L-376.65 -33.15 -373.65 -31.5 -382.4 -26.0 -390.15 -22.0 -392.0 -19.25 -395.15 -23.15 -397.4 -27.0 -398.9 -32.9 -399.0 -38.4 -398.65 -39.9" fill="url(#gradient34)" fill-rule="evenodd" stroke="none"/>
    <path d="M-338.25 -159.5 L-337.15 -151.9 -335.75 -133.25 -335.15 -117.25 -343.0 -86.9 -343.5 -86.0 -344.9 -71.4 -344.9 -70.25 -347.9 -64.0 -346.0 -86.0 -341.25 -128.0 -340.9 -148.9 -341.15 -150.75 -338.25 -159.5" fill="url(#gradient35)" fill-rule="evenodd" stroke="none"/>
    <path d="M-207.4 -91.5 L-207.25 -92.65 -207.4 -88.25 -207.4 -91.5" fill="url(#gradient36)" fill-rule="evenodd" stroke="none"/>
    <path d="M-208.65 -78.25 L-208.9 -78.65 -207.4 -91.5 -207.4 -88.25 -207.65 -77.0 -208.65 -78.25" fill="url(#gradient37)" fill-rule="evenodd" stroke="none"/>
    <path d="M-206.25 -64.9 L-208.65 -78.25 -207.65 -77.0 -207.5 -76.65 -207.5 -76.4 -206.25 -65.75 -206.25 -64.9" fill="url(#gradient38)" fill-rule="evenodd" stroke="none"/>
    <path d="M-206.4 -64.75 L-206.25 -64.9 -206.25 -65.75 -206.0 -64.65 -206.4 -64.75" fill="url(#gradient39)" fill-rule="evenodd" stroke="none"/>
    <path d="M-186.5 -66.9 L-186.25 -66.65 -188.5 -53.75 -205.4 -58.65 -206.0 -64.65 -206.25 -65.75 -207.5 -76.4 -204.4 -73.5 -186.5 -66.9" fill="url(#gradient40)" fill-rule="evenodd" stroke="none"/>
    <path d="M-124.5 -186.15 L-124.15 -155.5 -128.0 -126.0 -135.15 -92.75 -136.4 -89.5 -129.0 -123.5 -129.15 -124.4 -128.75 -124.5 -125.5 -155.0 -124.5 -186.15" fill="url(#gradient41)" fill-rule="evenodd" stroke="none"/>
    <path d="M-143.65 -65.65 L-150.4 -53.25 -159.25 -51.25 -170.75 -51.5 -188.5 -53.75 -186.25 -66.65 -170.0 -64.9 -157.65 -64.4 -143.65 -65.65 M-162.9 -57.65 L-164.0 -62.65 -166.5 -57.75 -162.9 -57.65 M-156.0 -57.75 L-150.4 -59.15 -150.4 -59.5 -155.15 -63.0 -156.5 -63.0 -157.65 -57.75 -156.0 -57.75" fill="url(#gradient42)" fill-rule="evenodd" stroke="none"/>
    <path d="M-194.9 -0.9 L-215.0 -0.9 -214.4 -9.9 -212.65 -25.15 -207.4 -51.5 -206.4 -64.75 -206.0 -64.65 -205.4 -58.65 -188.5 -53.75 -191.4 -40.75 -192.0 -24.5 -191.75 -24.15 -194.5 -3.25 -194.25 -3.15 -194.9 -0.9" fill="url(#gradient43)" fill-rule="evenodd" stroke="none"/>
    <path d="M-150.4 -53.25 L-148.0 -39.0 -146.5 -24.4 -149.75 -0.9 -194.9 -0.9 -194.25 -3.15 -194.5 -3.25 -191.75 -24.15 -192.0 -24.5 -191.4 -40.75 -188.5 -53.75 -170.75 -51.5 -159.25 -51.25 -150.4 -53.25" fill="url(#gradient44)" fill-rule="evenodd" stroke="none"/>
    <path d="M-339.9 -33.0 L-338.65 -32.9 -340.0 -32.25 -339.9 -33.0 M-386.5 -12.9 L-385.9 -13.25 -379.65 -13.65 -381.9 -12.5 -386.5 -12.9" fill="url(#gradient45)" fill-rule="evenodd" stroke="none"/>
    <path d="M-338.65 -32.9 L-328.15 -28.9 -347.0 -19.75 -341.75 -23.65 Q-338.9 -30.15 -340.0 -32.25 L-338.65 -32.9 M-379.65 -13.65 L-370.4 -13.5 -358.5 -15.25 -350.25 -18.15 -371.0 -7.9 -381.9 -12.5 -379.65 -13.65" fill="url(#gradient46)" fill-rule="evenodd" stroke="none"/>
    <path d="M-328.15 -28.9 L-328.5 -27.25 -344.65 -19.25 -346.75 -18.25 -347.5 -19.25 -347.0 -19.75 -328.15 -28.9 M-361.25 -11.15 L-371.0 -6.25 -371.4 -6.4 -371.0 -7.9 -350.25 -18.15 -349.4 -18.4 -350.5 -16.5 -355.25 -14.0 -361.25 -11.15" fill="url(#gradient47)" fill-rule="evenodd" stroke="none"/>
    <path d="M-351.0 -15.5 L-354.4 -9.25 -355.15 -8.25 -357.25 -7.65 -359.5 -8.15 -359.65 -8.15 -359.75 -8.5 -361.25 -11.15 -355.25 -14.0 -351.0 -15.5" fill="url(#gradient48)" fill-rule="evenodd" stroke="none"/>
    <path d="M-354.4 -9.25 L-354.4 -0.9 -359.65 -0.9 -359.65 -8.15 -359.5 -8.15 -357.25 -7.65 -355.15 -8.25 -354.4 -9.25" fill="url(#gradient49)" fill-rule="evenodd" stroke="none"/>
    <path d="M-371.4 -6.4 L-381.75 -10.5 -383.5 -10.75 -384.0 -10.75 -384.75 -10.9 -385.75 -10.0 -387.0 -9.15 -399.65 -4.0 -400.0 -4.15 -400.0 -5.9 -398.15 -6.25 -394.4 -8.0 -391.65 -9.5 -391.65 -9.65 -389.65 -10.4 -389.25 -10.5 -389.0 -10.65 -388.75 -10.75 -387.15 -12.25 -386.5 -12.9 -381.9 -12.5 -371.0 -7.9 -371.4 -6.4" fill="url(#gradient50)" fill-rule="evenodd" stroke="none"/>
    <path d="M-391.65 -9.65 L-387.15 -12.25 -388.75 -10.75 -389.0 -10.65 -389.25 -10.5 -389.65 -10.4 -391.65 -9.65" fill="url(#gradient51)" fill-rule="evenodd" stroke="none"/>
    <path d="M-383.5 -10.75 L-387.0 -9.15 -385.75 -10.0 -384.0 -10.75 -383.5 -10.75" fill="url(#gradient52)" fill-rule="evenodd" stroke="none"/>
    <path d="M-385.75 -10.0 L-384.75 -10.9 -384.0 -10.75 -385.75 -10.0" fill="url(#gradient53)" fill-rule="evenodd" stroke="none"/>
    <path d="M-276.4 -293.75 L-276.4 -293.9 -276.25 -293.9 -276.25 -294.65 -275.75 -299.75 -274.65 -300.0 -274.15 -300.0 -276.15 -291.4 -276.15 -290.65 -276.9 -288.5 -276.9 -289.15 -276.5 -291.5 -276.65 -292.15 -276.4 -292.65 -276.4 -293.75" fill="#fe0000" fill-rule="evenodd" stroke="none"/>
    <path d="M-274.15 -300.0 L-266.15 -300.0 -275.65 -289.65 -276.15 -290.65 -276.15 -291.4 -274.15 -300.0" fill="#f90000" fill-rule="evenodd" stroke="none"/>
    <path d="M-276.9 -288.5 L-276.15 -290.65 -275.65 -289.65 -276.9 -288.4 -276.9 -288.5" fill="#f70000" fill-rule="evenodd" stroke="none"/>
    <path d="M-317.0 -269.75 L-276.9 -292.75 -276.75 -292.65 -276.65 -292.5 -276.65 -292.15 -276.9 -289.15 -276.9 -288.5 -277.0 -288.25 -277.0 -288.0 -277.15 -287.9 -281.5 -283.15 -291.9 -274.65 -311.5 -263.15 -316.65 -269.25 -317.0 -269.75" fill="#ea0000" fill-rule="evenodd" stroke="none"/>
    <path d="M-276.5 -292.9 L-276.4 -293.75 -276.4 -292.65 -276.65 -292.15 -276.5 -291.5 -276.9 -289.15 -276.65 -292.15 -276.65 -292.5 -276.5 -292.9 M-277.0 -288.25 L-276.9 -288.5 -276.9 -288.4 -277.0 -288.25" fill="#fa0000" fill-rule="evenodd" stroke="none"/>
    <path d="M-266.15 -300.0 L-264.65 -299.9 -251.65 -300.0 -253.0 -287.25 -256.4 -278.25 -257.25 -274.9 -261.75 -262.9 -261.9 -262.15 -261.9 -261.75 -262.4 -261.0 -262.5 -260.0 -266.25 -250.0 -266.15 -249.9 -268.9 -242.0 -269.65 -240.75 -269.4 -240.65 -272.5 -232.25 -271.5 -238.25 -271.65 -238.5 -271.4 -239.15 -267.75 -260.15 -267.65 -260.4 -267.65 -261.0 -267.5 -261.4 -263.65 -283.0 -263.5 -285.0 -263.15 -285.9 -263.0 -287.0 -277.0 -287.15 -277.0 -287.75 -277.15 -287.9 -277.0 -288.0 -277.0 -288.25 -276.9 -288.4 -275.65 -289.65 -266.15 -300.0" fill="#e80000" fill-opacity="0.9098039" fill-rule="evenodd" stroke="none"/>
    <path d="M-251.65 -300.0 L-201.4 -299.75 -181.75 -300.0 -175.65 -299.75 -174.4 -300.0 -138.5 -300.0 -137.15 -299.75 -126.9 -300.0 -126.15 -299.9 -123.15 -300.0 -123.0 -299.65 -123.25 -298.0 -123.15 -297.65 -126.15 -273.15 -123.4 -261.4 -123.0 -259.5 -123.25 -259.0 -122.15 -253.4 -122.25 -251.65 -128.25 -229.4 -128.15 -229.15 -128.4 -229.0 -128.5 -228.0 -132.9 -211.65 -133.5 -207.9 -138.65 -189.15 -138.65 -188.4 -139.4 -185.4 -140.25 -185.4 -176.5 -189.0 -197.25 -192.9 -198.25 -193.0 -197.5 -199.15 -200.15 -207.75 -200.25 -208.0 -200.25 -208.15 -202.65 -211.9 -202.9 -212.4 -215.65 -213.9 -222.9 -217.0 -238.25 -216.4 -245.4 -212.0 -247.75 -210.65 -273.0 -231.0 -272.5 -232.25 -269.4 -240.65 -269.65 -240.75 -268.9 -242.0 -266.15 -249.9 -266.25 -250.0 -262.5 -260.0 -262.4 -261.0 -261.9 -261.75 -261.9 -262.15 -261.75 -262.9 -257.25 -274.9 -256.4 -278.25 -253.0 -287.25 -251.65 -300.0" fill="#bf0000" fill-opacity="0.9098039" fill-rule="evenodd" stroke="none"/>
    <path d="M-272.5 -232.25 L-273.0 -231.0 -306.4 -256.9 -311.25 -262.75 -311.5 -263.15 -291.9 -274.65 -281.5 -283.15 -277.15 -287.9 -277.0 -287.75 -277.0 -287.15 -263.0 -287.0 -263.15 -285.9 -263.5 -285.0 -263.65 -283.0 -267.5 -261.4 -267.65 -261.0 -267.65 -260.4 -267.75 -260.15 -271.4 -239.15 -271.65 -238.5 -271.5 -238.25 -272.5 -232.25" fill="#da0000" fill-opacity="0.9098039" fill-rule="evenodd" stroke="none"/>
    <path d="M-123.15 -300.0 L-114.25 -300.0 -114.25 -299.5 -114.4 -297.65 -114.5 -296.9 -114.5 -296.65 -118.5 -266.75 -119.9 -261.4 -123.4 -261.4 -126.15 -273.15 -123.15 -297.65 -123.25 -298.0 -123.0 -299.65 -123.15 -300.0" fill="#d60000" fill-rule="evenodd" stroke="none"/>
    <path d="M-123.4 -261.4 L-119.9 -261.4 -122.15 -253.4 -123.25 -259.0 -123.0 -259.5 -123.4 -261.4" fill="#d40000" fill-rule="evenodd" stroke="none"/>
    <path d="M-119.9 -261.4 L-114.75 -261.4 -121.0 -242.65 -122.25 -251.65 -122.15 -253.4 -119.9 -261.4 M-236.5 -201.75 L-236.25 -203.5 -245.4 -212.0 -238.25 -216.4 -222.9 -217.0 -215.65 -213.9 -202.9 -212.4 -202.65 -211.9 -200.25 -208.15 -200.25 -208.0 -200.15 -207.75 -197.5 -199.15 -198.25 -193.0 -230.0 -196.5 -236.4 -201.5 -236.5 -201.75" fill="#cf0000" fill-rule="evenodd" stroke="none"/>
    <path d="M-114.25 -300.0 L-113.4 -300.0 -114.5 -291.75 -114.5 -296.65 -114.5 -296.9 -114.4 -297.65 -114.15 -298.9 -114.25 -299.5 -114.25 -300.0" fill="#cd0000" fill-rule="evenodd" stroke="none"/>
    <path d="M-114.4 -297.65 L-114.25 -299.5 -114.15 -298.9 -114.4 -297.65" fill="#cc0000" fill-rule="evenodd" stroke="none"/>
    <path d="M-113.4 -300.0 L-113.0 -300.0 -112.0 -284.5 -111.4 -261.65 -113.65 -264.0 -114.15 -263.25 -114.15 -262.5 -114.25 -262.5 -114.75 -261.4 -119.9 -261.4 -118.5 -266.75 -114.5 -296.65 -114.5 -291.75 -113.4 -300.0" fill="#d00000" fill-rule="evenodd" stroke="none"/>
    <path d="M-111.4 -261.65 L-111.25 -261.4 -114.25 -261.4 -114.15 -262.5 -114.15 -263.25 -113.65 -264.0 -111.4 -261.65" fill="#e50000" fill-rule="evenodd" stroke="none"/>
    <path d="M-215.0 -0.9 L-275.0 -0.9 -272.65 -15.0 -272.65 -15.5 -273.0 -15.4 -275.9 -0.9 -278.25 -0.9 -272.4 -18.75 -271.9 -20.75 -271.75 -21.0 -262.15 -54.9 -253.4 -103.0 -241.9 -153.5 -236.4 -201.5 -230.0 -196.5 -198.25 -193.0 -200.15 -177.75 -200.15 -176.9 -202.65 -156.5 -202.75 -153.9 -202.9 -153.15 -202.9 -152.4 -207.15 -100.4 -207.25 -92.65 -208.9 -78.65 -208.65 -78.25 -208.65 -77.5 -206.25 -64.9 -206.4 -64.75 -206.9 -58.15 -206.9 -58.0 -207.5 -50.65 -212.15 -27.25 -212.15 -27.15 -212.25 -26.9 -214.25 -10.4 -214.4 -10.0 -214.4 -9.4 -215.0 -0.9 M-114.75 -261.4 L-114.25 -262.5 -114.15 -262.5 -114.25 -261.4 -114.75 -261.4 M-144.15 -64.5 L-144.0 -64.25 -148.15 -40.65 -150.4 -53.25 -144.15 -64.5 M-272.65 -15.65 L-272.5 -16.15 -272.9 -16.0 -272.65 -15.65" fill="#ba0000" fill-rule="evenodd" stroke="none"/>
    <path d="M-111.25 -261.4 L-116.15 -237.0 -114.25 -259.0 -114.4 -259.75 -114.25 -261.4 -111.25 -261.4 M-276.9 -292.75 L-276.5 -292.9 -276.65 -292.5 -276.75 -292.65 -276.9 -292.75" fill="#e40000" fill-rule="evenodd" stroke="none"/>
    <path d="M-400.0 -69.25 L-400.0 -237.25 -317.0 -269.75 -316.65 -269.25 -311.5 -263.15 -318.5 -259.0 -318.75 -258.9 -320.5 -257.9 -321.4 -257.5 -321.5 -257.5 -330.4 -254.0 -342.0 -246.15 -344.4 -244.9 -345.0 -244.5 -345.25 -244.4 -345.9 -244.0 -346.15 -243.9 -346.25 -243.9 -346.65 -243.65 -346.75 -243.5 -346.9 -243.5 -378.0 -226.15 -381.65 -222.65 -384.0 -219.0 -384.25 -218.75 -384.25 -218.65 -387.4 -215.15 -387.9 -213.4 -388.4 -212.25 -388.4 -211.9 -388.5 -211.5 -394.4 -194.9 -396.25 -145.65 -396.4 -145.25 -397.5 -131.4 -397.5 -130.75 -397.4 -130.5 -397.4 -130.4 -395.4 -115.9 -395.5 -115.0 -395.25 -98.15 -397.75 -70.5 -400.0 -69.25" fill="#ee0000" fill-rule="evenodd" stroke="none"/>
    <path d="M-306.4 -256.5 L-333.9 -191.65 -334.0 -191.0 -345.75 -163.0 -350.15 -152.25 -350.25 -151.25 -356.9 -135.25 -356.75 -135.0 -360.15 -126.5 -361.65 -116.4 -361.5 -116.0 -364.65 -94.25 -366.15 -60.4 -366.65 -58.0 -366.65 -51.75 -365.15 -46.4 -364.75 -45.4 -364.4 -43.75 -363.9 -42.65 -362.4 -36.9 -362.15 -36.65 -362.0 -36.0 -362.0 -35.9 -361.65 -34.4 -361.0 -32.9 -361.15 -32.65 -360.9 -32.4 -359.75 -28.25 -359.4 -27.4 -359.25 -26.75 -358.4 -24.4 -358.4 -23.65 -358.15 -22.5 -359.5 -22.9 -366.9 -26.25 -367.25 -26.25 -373.4 -28.9 -373.5 -29.15 -377.75 -30.75 -378.15 -31.15 -378.65 -31.15 -378.65 -31.25 -387.15 -35.0 -387.65 -35.15 -391.5 -36.75 -391.65 -37.0 -397.5 -39.4 -397.65 -39.65 -398.15 -39.65 -398.25 -39.9 -398.65 -39.9 -398.65 -40.0 -399.75 -40.25 -399.75 -40.4 -398.75 -41.0 -398.65 -45.25 -398.25 -47.15 -400.0 -48.15 -400.0 -53.65 -399.9 -54.15 -400.0 -69.25 -397.75 -70.5 -395.25 -98.15 -395.5 -115.0 -395.4 -115.9 -397.4 -130.4 -397.4 -130.5 -397.5 -130.75 -397.5 -131.4 -396.4 -145.25 -396.25 -145.65 -394.4 -194.9 -388.5 -211.5 -388.4 -211.9 -388.4 -212.25 -387.9 -213.4 -387.4 -215.15 -384.25 -218.65 -384.25 -218.75 -384.0 -219.0 -381.65 -222.65 -378.0 -226.15 -346.9 -243.5 -346.75 -243.5 -346.65 -243.65 -346.25 -243.9 -346.15 -243.9 -345.9 -244.0 -345.25 -244.4 -345.0 -244.5 -344.4 -244.9 -342.0 -246.15 -330.4 -254.0 -321.5 -257.5 -321.4 -257.5 -320.5 -257.9 -318.75 -258.9 -318.5 -259.0 -311.5 -263.15 -311.25 -262.75 -306.4 -256.9 -306.4 -256.5" fill="#de0000" fill-opacity="0.9098039" fill-rule="evenodd" stroke="none"/>
    <path d="M-149.75 -0.9 L-215.0 -0.9 -214.4 -9.4 -214.4 -10.0 -214.25 -10.4 -212.25 -26.9 -212.15 -27.15 -212.15 -27.25 -207.5 -50.65 -206.9 -58.0 -206.9 -58.15 -206.4 -64.75 -206.25 -64.9 -208.65 -77.5 -208.65 -78.25 -208.9 -78.65 -207.25 -92.65 -207.15 -100.4 -202.9 -152.4 -202.9 -153.15 -202.75 -153.9 -202.65 -156.5 -200.15 -176.9 -200.15 -177.75 -198.25 -193.0 -197.25 -192.9 -176.5 -189.0 -140.25 -185.4 -139.4 -185.4 -124.65 -184.65 -124.0 -156.4 -124.25 -155.75 -124.15 -155.5 -127.4 -132.5 -127.4 -132.15 -127.25 -131.75 -127.5 -131.65 -128.4 -124.9 -128.25 -124.65 -132.0 -107.25 -132.5 -106.9 -135.4 -91.9 -135.9 -91.25 -136.0 -90.9 -136.0 -90.75 -136.15 -90.5 -136.15 -90.4 -136.4 -89.9 -143.15 -67.0 -143.65 -66.25 -143.65 -65.65 -144.15 -64.5 -150.4 -53.25 -148.15 -40.65 -148.25 -39.65 -148.15 -39.4 -146.65 -24.4 -146.65 -24.0 -146.5 -23.65 -149.25 -4.4 -149.25 -3.75 -149.75 -0.9 M-303.5 -177.25 L-303.65 -179.5 -303.5 -180.0 -303.65 -185.9 -303.5 -186.25 -303.75 -189.5 -303.65 -190.0 -304.25 -198.75 -304.0 -199.15 -304.5 -204.0 -304.25 -204.5 -305.65 -238.75 -305.75 -239.15 -306.25 -253.75 -306.15 -254.15 -306.4 -256.5 -306.4 -256.9 -273.0 -231.0 -247.75 -210.65 -278.65 -192.0 -298.25 -180.15 -303.5 -177.25" fill="#aa0000" fill-opacity="0.9098039" fill-rule="evenodd" stroke="none"/>
    <path d="M-399.75 -40.4 L-400.0 -48.15 -398.25 -47.15 -398.65 -45.25 -398.75 -41.0 -399.75 -40.4" fill="#f50000" fill-opacity="0.9098039" fill-rule="evenodd" stroke="none"/>
    <path d="M-275.0 -0.9 L-275.9 -0.9 -273.0 -15.4 -272.65 -15.5 -272.65 -15.0 -275.0 -0.9 M-303.65 -177.0 L-303.5 -177.25 -298.25 -180.15 -303.5 -173.4 -303.65 -177.0 M-114.25 -261.4 L-114.4 -259.75 -119.5 -228.65 -121.15 -241.25 -121.0 -242.65 -114.75 -261.4 -114.25 -261.4 M-247.75 -210.65 L-238.15 -203.0 -278.65 -192.0 -247.75 -210.65 M-272.65 -15.65 L-272.9 -16.0 -272.5 -16.15 -272.65 -15.65" fill="#b90000" fill-rule="evenodd" stroke="none"/>
    <path d="M-116.15 -237.0 L-116.9 -231.5 -116.75 -230.65 -121.0 -184.5 -124.65 -184.65 -124.65 -188.75 -121.5 -209.25 -118.75 -220.9 -118.9 -221.0 -118.9 -222.9 -119.5 -228.65 -114.4 -259.75 -114.25 -259.0 -116.15 -237.0" fill="#b60000" fill-rule="evenodd" stroke="none"/>
    <path d="M-121.15 -241.25 L-119.5 -228.65 -118.9 -222.9 -118.9 -221.0 -118.75 -220.9 -121.5 -209.25 -124.65 -188.75 -124.65 -184.65 -139.4 -185.4 -138.65 -188.4 -134.65 -199.75 -134.0 -202.5 -121.15 -241.25" fill="#a30000" fill-opacity="0.9098039" fill-rule="evenodd" stroke="none"/>
    <path d="M-122.25 -251.65 L-121.0 -242.65 -121.15 -241.25 -134.0 -202.5 -134.65 -199.75 -138.65 -188.4 -138.65 -189.15 -133.5 -207.9 -132.9 -211.65 -128.5 -228.0 -128.4 -229.0 -128.15 -229.15 -128.25 -229.4 -122.25 -251.65" fill="#b90000" fill-opacity="0.9098039" fill-rule="evenodd" stroke="none"/>
    <path d="M-130.75 -67.25 L-130.75 -66.5 -130.9 -65.0 -130.9 -63.75 -131.0 -62.75 -131.0 -61.0 -131.15 -60.5 -132.4 -33.5 -132.75 -0.9 -149.75 -0.9 -149.25 -3.75 -149.25 -4.4 -146.5 -23.65 -146.65 -24.0 -146.65 -24.4 -148.15 -39.4 -148.25 -39.65 -148.15 -40.65 -144.0 -64.25 -144.15 -64.5 -143.65 -65.65 -143.65 -66.25 -143.15 -67.0 -136.4 -89.9 -136.15 -90.4 -136.15 -90.5 -136.0 -90.75 -136.0 -90.9 -135.9 -91.25 -135.4 -91.9 -132.5 -106.9 -132.0 -107.25 -128.25 -124.65 -128.4 -124.9 -127.5 -131.65 -127.25 -131.75 -127.4 -132.15 -127.4 -132.5 -124.15 -155.5 -124.25 -155.75 -124.0 -156.4 -122.75 -140.5 -130.15 -85.75 -130.65 -69.25 -130.75 -67.25 M-278.25 -0.9 L-321.25 -0.9 -313.65 -35.9 -306.65 -91.75 -303.5 -152.15 -303.65 -172.9 -303.5 -173.4 -298.25 -180.15 -278.65 -192.0 -238.15 -203.0 -236.5 -201.75 -236.4 -201.5 -241.9 -153.5 -253.4 -103.0 -262.15 -54.9 -271.75 -21.0 -271.9 -20.75 -272.4 -18.75 -278.25 -0.9" fill="#bb0000" fill-opacity="0.9098039" fill-rule="evenodd" stroke="none"/>
    <path d="M-236.25 -203.5 L-238.15 -203.0 -247.75 -210.65 -245.4 -212.0 -236.25 -203.5" fill="#ce0000" fill-rule="evenodd" stroke="none"/>
    <path d="M-236.25 -203.5 L-236.5 -201.75 -238.15 -203.0 -236.25 -203.5" fill="#d20000" fill-opacity="0.9098039" fill-rule="evenodd" stroke="none"/>
    <path d="M-121.0 -184.5 L-120.9 -182.4 -122.4 -138.5 -129.65 -84.25 -130.65 -69.25 -130.5 -67.4 -130.75 -67.25 -130.65 -69.25 -130.15 -85.75 -122.75 -140.5 -124.0 -156.4 -124.65 -184.65 -121.0 -184.5 M-130.75 -66.5 L-130.65 -65.15 -130.9 -65.0 -130.75 -66.5 M-130.9 -63.75 L-130.75 -62.9 -131.0 -62.75 -130.9 -63.75 M-131.0 -61.0 L-130.9 -60.65 -131.15 -60.5 -131.0 -61.0" fill="#bc0000" fill-rule="evenodd" stroke="none"/>
    <path d="M-303.65 -172.9 L-315.4 -157.65 -328.15 -98.15 -330.4 -60.25 -324.65 -30.5 -333.0 -30.9 -338.65 -32.9 -339.9 -33.0 -340.0 -33.4 -340.0 -38.25 -340.15 -39.15 -340.0 -39.65 -340.0 -45.4 -340.15 -46.25 -339.9 -47.0 -341.4 -48.9 -341.65 -50.15 -340.9 -50.65 -340.75 -51.4 -340.65 -51.65 -340.65 -52.0 -339.25 -55.25 -339.4 -57.25 -339.4 -66.25 -342.65 -70.4 -344.9 -71.4 -343.4 -86.25 -339.4 -101.5 -339.5 -101.65 -339.25 -102.15 -335.5 -115.5 -335.25 -117.5 -335.4 -117.9 -336.0 -135.0 -336.15 -135.25 -336.15 -135.4 -337.0 -148.9 -337.15 -149.25 -337.15 -150.25 -337.25 -150.9 -337.25 -151.65 -337.4 -152.0 -338.4 -159.4 -338.4 -160.25 -339.0 -164.15 -329.25 -166.5 -329.15 -166.5 -309.65 -173.65 -303.65 -177.0 -303.5 -173.4 -303.65 -172.9" fill="#ae0000" fill-opacity="0.9098039" fill-rule="evenodd" stroke="none"/>
  </g>
  <defs>
    <radialGradient cx="0" cy="0" gradientTransform="matrix(0.0637, 0.0, 0.0, 0.0637, -261.25, -250.6)" gradientUnits="userSpaceOnUse" id="gradient0" r="819.2" spreadMethod="pad">
      <stop offset="0.0" stop-color="#464646"/>
      <stop offset="1.0" stop-color="#373737"/>
    </radialGradient>
    <radialGradient cx="0" cy="0" gradientTransform="matrix(0.1225, 0.0, 0.0, 0.1225, -209.3, -300.0)" gradientUnits="userSpaceOnUse" id="gradient1" r="819.2" spreadMethod="pad">
      <stop offset="0.0" stop-color="#7c7c7c"/>
      <stop offset="1.0" stop-color="#000000"/>
    </radialGradient>
    <radialGradient cx="0" cy="0" gradientTransform="matrix(0.0634, 0.0, 0.0, 0.0634, -289.3, -227.75)" gradientUnits="userSpaceOnUse" id="gradient2" r="819.2" spreadMethod="pad">
      <stop offset="0.0" stop-color="#737373"/>
      <stop offset="1.0" stop-color="#1a1a1a"/>
    </radialGradient>
    <radialGradient cx="0" cy="0" gradientTransform="matrix(0.0313, 0.0, 0.0, 0.0313, -243.5, -253.6)" gradientUnits="userSpaceOnUse" id="gradient3" r="819.2" spreadMethod="pad">
      <stop offset="0.0" stop-color="#000000"/>
      <stop offset="1.0" stop-color="#000000"/>
    </radialGradient>
    <radialGradient cx="0" cy="0" gradientTransform="matrix(0.0729, 0.0, 0.0, 0.0729, -261.25, -250.6)" gradientUnits="userSpaceOnUse" id="gradient4" r="819.2" spreadMethod="pad">
      <stop offset="0.0" stop-color="#464646"/>
      <stop offset="1.0" stop-color="#010101"/>
    </radialGradient>
    <radialGradient cx="0" cy="0" gradientTransform="matrix(0.0436, 0.0, 0.0, 0.0436, -266.1, -300.0)" gradientUnits="userSpaceOnUse" id="gradient5" r="819.2" spreadMethod="pad">
      <stop offset="0.0" stop-color="#414141"/>
      <stop offset="1.0" stop-color="#1b1b1b"/>
    </radialGradient>
    <radialGradient cx="0" cy="0" gradientTransform="matrix(0.0267, 0.0, 0.0, 0.0267, -312.55, -246.05)" gradientUnits="userSpaceOnUse" id="gradient6" r="819.2" spreadMethod="pad">
      <stop offset="0.0" stop-color="#0e0e0e"/>
      <stop offset="1.0" stop-color="#010101"/>
    </radialGradient>
    <radialGradient cx="0" cy="0" gradientTransform="matrix(0.0489, 0.0, 0.0, 0.0489, -345.0, -239.25)" gradientUnits="userSpaceOnUse" id="gradient7" r="819.2" spreadMethod="pad">
      <stop offset="0.0" stop-color="#010101"/>
      <stop offset="1.0" stop-color="#000000"/>
    </radialGradient>
    <radialGradient cx="0" cy="0" gradientTransform="matrix(0.1358, 0.0, 0.0, 0.1358, -287.3, -220.55)" gradientUnits="userSpaceOnUse" id="gradient8" r="819.2" spreadMethod="pad">
      <stop offset="0.0" stop-color="#7f7f7f"/>
      <stop offset="1.0" stop-color="#2d2d2d"/>
    </radialGradient>
    <radialGradient cx="0" cy="0" gradientTransform="matrix(0.0734, 0.0, 0.0, 0.0734, -125.7, -278.95)" gradientUnits="userSpaceOnUse" id="gradient9" r="819.2" spreadMethod="pad">
      <stop offset="0.0" stop-color="#131313"/>
      <stop offset="1.0" stop-color="#000000"/>
    </radialGradient>
    <radialGradient cx="0" cy="0" gradientTransform="matrix(0.1153, 0.0, 0.0, 0.1153, -124.55, -187.25)" gradientUnits="userSpaceOnUse" id="gradient10" r="819.2" spreadMethod="pad">
      <stop offset="0.0" stop-color="#040404"/>
      <stop offset="1.0" stop-color="#000000"/>
    </radialGradient>
    <radialGradient cx="0" cy="0" gradientTransform="matrix(0.0253, 0.0, 0.0, 0.0253, -125.7, -278.95)" gradientUnits="userSpaceOnUse" id="gradient11" r="819.2" spreadMethod="pad">
      <stop offset="0.0" stop-color="#131313"/>
      <stop offset="1.0" stop-color="#0b0b0b"/>
    </radialGradient>
    <radialGradient cx="0" cy="0" gradientTransform="matrix(0.0815, 0.0, 0.0, 0.0815, -287.3, -220.55)" gradientUnits="userSpaceOnUse" id="gradient12" r="819.2" spreadMethod="pad">
      <stop offset="0.0" stop-color="#7f7f7f"/>
      <stop offset="1.0" stop-color="#000000"/>
    </radialGradient>
    <radialGradient cx="0" cy="0" gradientTransform="matrix(0.0851, 0.0, 0.0, 0.0851, -202.9, -212.4)" gradientUnits="userSpaceOnUse" id="gradient13" r="819.2" spreadMethod="pad">
      <stop offset="0.0" stop-color="#494949"/>
      <stop offset="1.0" stop-color="#171717"/>
    </radialGradient>
    <radialGradient cx="0" cy="0" gradientTransform="matrix(0.0451, 0.0, 0.0, 0.0451, -261.25, -250.6)" gradientUnits="userSpaceOnUse" id="gradient14" r="819.2" spreadMethod="pad">
      <stop offset="0.0" stop-color="#464646"/>
      <stop offset="1.0" stop-color="#000000"/>
    </radialGradient>
    <radialGradient cx="0" cy="0" gradientTransform="matrix(0.2178, 0.0, 0.0, 0.2178, -152.6, -235.6)" gradientUnits="userSpaceOnUse" id="gradient15" r="819.2" spreadMethod="pad">
      <stop offset="0.0" stop-color="#666666"/>
      <stop offset="1.0" stop-color="#0c0c0c"/>
    </radialGradient>
    <radialGradient cx="0" cy="0" gradientTransform="matrix(0.0213, 0.0, 0.0, 0.0213, -388.3, -212.45)" gradientUnits="userSpaceOnUse" id="gradient16" r="819.2" spreadMethod="pad">
      <stop offset="0.0" stop-color="#0f0f0f"/>
      <stop offset="1.0" stop-color="#000000"/>
    </radialGradient>
    <radialGradient cx="0" cy="0" gradientTransform="matrix(0.0126, 0.0, 0.0, 0.0126, -215.65, -214.0)" gradientUnits="userSpaceOnUse" id="gradient17" r="819.2" spreadMethod="pad">
      <stop offset="0.0" stop-color="#000000"/>
      <stop offset="1.0" stop-color="#000000"/>
    </radialGradient>
    <radialGradient cx="0" cy="0" gradientTransform="matrix(0.1791, 0.0, 0.0, 0.1791, -369.6, -166.05)" gradientUnits="userSpaceOnUse" id="gradient18" r="819.2" spreadMethod="pad">
      <stop offset="0.0" stop-color="#565656"/>
      <stop offset="1.0" stop-color="#000000"/>
    </radialGradient>
    <radialGradient cx="0" cy="0" gradientTransform="matrix(0.1491, 0.0, 0.0, 0.1491, -365.75, -176.15)" gradientUnits="userSpaceOnUse" id="gradient19" r="819.2" spreadMethod="pad">
      <stop offset="0.0" stop-color="#292929"/>
      <stop offset="1.0" stop-color="#040404"/>
    </radialGradient>
    <radialGradient cx="0" cy="0" gradientTransform="matrix(0.1973, 0.0, 0.0, 0.1973, -336.25, -195.9)" gradientUnits="userSpaceOnUse" id="gradient20" r="819.2" spreadMethod="pad">
      <stop offset="0.0" stop-color="#363636"/>
      <stop offset="1.0" stop-color="#000000"/>
    </radialGradient>
    <radialGradient cx="0" cy="0" gradientTransform="matrix(0.1215, 0.0, 0.0, 0.1215, -395.45, -116.2)" gradientUnits="userSpaceOnUse" id="gradient21" r="819.2" spreadMethod="pad">
      <stop offset="0.0" stop-color="#5e5e5e"/>
      <stop offset="1.0" stop-color="#060606"/>
    </radialGradient>
    <radialGradient cx="0" cy="0" gradientTransform="matrix(0.0244, 0.0, 0.0, 0.0244, -202.9, -217.55)" gradientUnits="userSpaceOnUse" id="gradient22" r="819.2" spreadMethod="pad">
      <stop offset="0.0" stop-color="#000000"/>
      <stop offset="1.0" stop-color="#000000"/>
    </radialGradient>
    <radialGradient cx="0" cy="0" gradientTransform="matrix(0.1613, 0.0, 0.0, 0.1613, -193.85, -198.75)" gradientUnits="userSpaceOnUse" id="gradient23" r="819.2" spreadMethod="pad">
      <stop offset="0.0" stop-color="#575757"/>
      <stop offset="1.0" stop-color="#3d3d3d"/>
    </radialGradient>
    <radialGradient cx="0" cy="0" gradientTransform="matrix(0.1291, 0.0, 0.0, 0.1291, -153.6, -167.35)" gradientUnits="userSpaceOnUse" id="gradient24" r="819.2" spreadMethod="pad">
      <stop offset="0.0" stop-color="#494949"/>
      <stop offset="1.0" stop-color="#131313"/>
    </radialGradient>
    <radialGradient cx="0" cy="0" gradientTransform="matrix(0.0649, 0.0, 0.0, 0.0649, -388.3, -212.45)" gradientUnits="userSpaceOnUse" id="gradient25" r="819.2" spreadMethod="pad">
      <stop offset="0.0" stop-color="#0f0f0f"/>
      <stop offset="1.0" stop-color="#090909"/>
    </radialGradient>
    <radialGradient cx="0" cy="0" gradientTransform="matrix(0.1262, 0.0, 0.0, 0.1262, -395.45, -116.2)" gradientUnits="userSpaceOnUse" id="gradient26" r="819.2" spreadMethod="pad">
      <stop offset="0.0" stop-color="#5e5e5e"/>
      <stop offset="1.0" stop-color="#101010"/>
    </radialGradient>
    <radialGradient cx="0" cy="0" gradientTransform="matrix(0.0302, 0.0, 0.0, 0.0302, -394.9, -88.45)" gradientUnits="userSpaceOnUse" id="gradient27" r="819.2" spreadMethod="pad">
      <stop offset="0.0" stop-color="#1c1c1c"/>
      <stop offset="1.0" stop-color="#050505"/>
    </radialGradient>
    <radialGradient cx="0" cy="0" gradientTransform="matrix(0.0713, 0.0, 0.0, 0.0713, -342.65, -70.5)" gradientUnits="userSpaceOnUse" id="gradient28" r="819.2" spreadMethod="pad">
      <stop offset="0.0" stop-color="#212121"/>
      <stop offset="1.0" stop-color="#212121"/>
    </radialGradient>
    <radialGradient cx="0" cy="0" gradientTransform="matrix(0.0554, 0.0, 0.0, 0.0554, -383.1, -54.1)" gradientUnits="userSpaceOnUse" id="gradient29" r="819.2" spreadMethod="pad">
      <stop offset="0.0" stop-color="#b5b5b5"/>
      <stop offset="1.0" stop-color="#545454"/>
    </radialGradient>
    <radialGradient cx="0" cy="0" gradientTransform="matrix(0.0537, 0.0, 0.0, 0.0537, -397.45, -35.85)" gradientUnits="userSpaceOnUse" id="gradient30" r="819.2" spreadMethod="pad">
      <stop offset="0.0" stop-color="#787878"/>
      <stop offset="1.0" stop-color="#040404"/>
    </radialGradient>
    <radialGradient cx="0" cy="0" gradientTransform="matrix(0.0377, 0.0, 0.0, 0.0377, -393.15, -15.7)" gradientUnits="userSpaceOnUse" id="gradient31" r="819.2" spreadMethod="pad">
      <stop offset="0.0" stop-color="#424242"/>
      <stop offset="1.0" stop-color="#000000"/>
    </radialGradient>
    <radialGradient cx="0" cy="0" gradientTransform="matrix(0.0645, 0.0, 0.0, 0.0645, -382.5, -22.3)" gradientUnits="userSpaceOnUse" id="gradient32" r="819.2" spreadMethod="pad">
      <stop offset="0.0" stop-color="#b6b6b6"/>
      <stop offset="1.0" stop-color="#2a2a2a"/>
    </radialGradient>
    <radialGradient cx="0" cy="0" gradientTransform="matrix(0.0288, 0.0, 0.0, 0.0288, -378.4, -34.1)" gradientUnits="userSpaceOnUse" id="gradient33" r="819.2" spreadMethod="pad">
      <stop offset="0.0" stop-color="#000000"/>
      <stop offset="1.0" stop-color="#000000"/>
    </radialGradient>
    <radialGradient cx="0" cy="0" gradientTransform="matrix(0.0379, 0.0, 0.0, 0.0379, -397.45, -27.2)" gradientUnits="userSpaceOnUse" id="gradient34" r="819.2" spreadMethod="pad">
      <stop offset="0.0" stop-color="#565656"/>
      <stop offset="1.0" stop-color="#020202"/>
    </radialGradient>
    <radialGradient cx="0" cy="0" gradientTransform="matrix(0.1164, 0.0, 0.0, 0.1164, -337.15, -150.8)" gradientUnits="userSpaceOnUse" id="gradient35" r="819.2" spreadMethod="pad">
      <stop offset="0.0" stop-color="#656565"/>
      <stop offset="1.0" stop-color="#040404"/>
    </radialGradient>
    <radialGradient cx="0" cy="0" gradientTransform="matrix(0.1501, 0.0, 0.0, 0.1501, -197.5, -199.2)" gradientUnits="userSpaceOnUse" id="gradient36" r="819.2" spreadMethod="pad">
      <stop offset="0.0" stop-color="#030303"/>
      <stop offset="1.0" stop-color="#010101"/>
    </radialGradient>
    <radialGradient cx="0" cy="0" gradientTransform="matrix(0.0318, 0.0, 0.0, 0.0318, -207.45, -76.65)" gradientUnits="userSpaceOnUse" id="gradient37" r="819.2" spreadMethod="pad">
      <stop offset="0.0" stop-color="#030303"/>
      <stop offset="1.0" stop-color="#000000"/>
    </radialGradient>
    <radialGradient cx="0" cy="0" gradientTransform="matrix(0.0215, 0.0, 0.0, 0.0215, -203.4, -62.15)" gradientUnits="userSpaceOnUse" id="gradient38" r="819.2" spreadMethod="pad">
      <stop offset="0.0" stop-color="#040404"/>
      <stop offset="1.0" stop-color="#020202"/>
    </radialGradient>
    <radialGradient cx="0" cy="0" gradientTransform="matrix(0.022, 0.0, 0.0, 0.022, -205.3, -58.8)" gradientUnits="userSpaceOnUse" id="gradient39" r="819.2" spreadMethod="pad">
      <stop offset="0.0" stop-color="#383838"/>
      <stop offset="1.0" stop-color="#030303"/>
    </radialGradient>
    <radialGradient cx="0" cy="0" gradientTransform="matrix(0.0313, 0.0, 0.0, 0.0313, -204.55, -73.8)" gradientUnits="userSpaceOnUse" id="gradient40" r="819.2" spreadMethod="pad">
      <stop offset="0.0" stop-color="#4d4d4d"/>
      <stop offset="1.0" stop-color="#2e2e2e"/>
    </radialGradient>
    <radialGradient cx="0" cy="0" gradientTransform="matrix(0.1093, 0.0, 0.0, 0.1093, -124.25, -155.95)" gradientUnits="userSpaceOnUse" id="gradient41" r="819.2" spreadMethod="pad">
      <stop offset="0.0" stop-color="#010101"/>
      <stop offset="1.0" stop-color="#000000"/>
    </radialGradient>
    <radialGradient cx="0" cy="0" gradientTransform="matrix(0.052, 0.0, 0.0, 0.052, -186.3, -66.8)" gradientUnits="userSpaceOnUse" id="gradient42" r="819.2" spreadMethod="pad">
      <stop offset="0.0" stop-color="#393939"/>
      <stop offset="1.0" stop-color="#000000"/>
    </radialGradient>
    <radialGradient cx="0" cy="0" gradientTransform="matrix(0.0716, 0.0, 0.0, 0.0716, -205.3, -58.8)" gradientUnits="userSpaceOnUse" id="gradient43" r="819.2" spreadMethod="pad">
      <stop offset="0.0" stop-color="#383838"/>
      <stop offset="1.0" stop-color="#020202"/>
    </radialGradient>
    <radialGradient cx="0" cy="0" gradientTransform="matrix(0.0798, 0.0, 0.0, 0.0798, -188.45, -53.85)" gradientUnits="userSpaceOnUse" id="gradient44" r="819.2" spreadMethod="pad">
      <stop offset="0.0" stop-color="#1c1c1c"/>
      <stop offset="1.0" stop-color="#000000"/>
    </radialGradient>
    <radialGradient cx="0" cy="0" gradientTransform="matrix(0.0634, 0.0, 0.0, 0.0634, -338.55, -32.95)" gradientUnits="userSpaceOnUse" id="gradient45" r="819.2" spreadMethod="pad">
      <stop offset="0.0" stop-color="#121212"/>
      <stop offset="1.0" stop-color="#121212"/>
    </radialGradient>
    <radialGradient cx="0" cy="0" gradientTransform="matrix(0.0583, 0.0, 0.0, 0.0583, -338.55, -32.95)" gradientUnits="userSpaceOnUse" id="gradient46" r="819.2" spreadMethod="pad">
      <stop offset="0.0" stop-color="#717171"/>
      <stop offset="1.0" stop-color="#707070"/>
    </radialGradient>
    <radialGradient cx="0" cy="0" gradientTransform="matrix(0.0583, 0.0, 0.0, 0.0583, -328.35, -27.5)" gradientUnits="userSpaceOnUse" id="gradient47" r="819.2" spreadMethod="pad">
      <stop offset="0.0" stop-color="#121212"/>
      <stop offset="1.0" stop-color="#121212"/>
    </radialGradient>
    <radialGradient cx="0" cy="0" gradientTransform="matrix(0.0152, 0.0, 0.0, 0.0152, -359.8, -13.4)" gradientUnits="userSpaceOnUse" id="gradient48" r="819.2" spreadMethod="pad">
      <stop offset="0.0" stop-color="#dedede"/>
      <stop offset="1.0" stop-color="#222222"/>
    </radialGradient>
    <radialGradient cx="0" cy="0" gradientTransform="matrix(0.0109, 0.0, 0.0, 0.0109, -358.05, -9.1)" gradientUnits="userSpaceOnUse" id="gradient49" r="819.2" spreadMethod="pad">
      <stop offset="0.0" stop-color="#b3b3b3"/>
      <stop offset="1.0" stop-color="#686868"/>
    </radialGradient>
    <radialGradient cx="0" cy="0" gradientTransform="matrix(0.0203, 0.0, 0.0, 0.0203, -387.6, -8.85)" gradientUnits="userSpaceOnUse" id="gradient50" r="819.2" spreadMethod="pad">
      <stop offset="0.0" stop-color="#979797"/>
      <stop offset="1.0" stop-color="#949494"/>
    </radialGradient>
    <radialGradient cx="0" cy="0" gradientTransform="matrix(0.0157, 0.0, 0.0, 0.0157, -383.05, -13.55)" gradientUnits="userSpaceOnUse" id="gradient51" r="819.2" spreadMethod="pad">
      <stop offset="0.0" stop-color="#212121"/>
      <stop offset="1.0" stop-color="#212121"/>
    </radialGradient>
    <radialGradient cx="0" cy="0" gradientTransform="matrix(0.0585, 0.0, 0.0, 0.0585, -344.3, -29.35)" gradientUnits="userSpaceOnUse" id="gradient52" r="819.2" spreadMethod="pad">
      <stop offset="0.0" stop-color="#121212"/>
      <stop offset="1.0" stop-color="#121212"/>
    </radialGradient>
    <radialGradient cx="0" cy="0" gradientTransform="matrix(0.0584, 0.0, 0.0, 0.0584, -342.75, -30.4)" gradientUnits="userSpaceOnUse" id="gradient53" r="819.2" spreadMethod="pad">
      <stop offset="0.0" stop-color="#121212"/>
      <stop offset="1.0" stop-color="#121212"/>
    </radialGradient>
  </defs>
</svg>
