<?xml version="1.0" encoding="UTF-8" standalone="no"?>
<svg xmlns:xlink="http://www.w3.org/1999/xlink" height="299.1px" width="288.1px" xmlns="http://www.w3.org/2000/svg">
  <g transform="matrix(1.0, 0.0, 0.0, 1.0, 400.0, 300.0)">
    <path d="M-125.65 -300.0 L-125.65 -297.65 -128.5 -276.65 -138.25 -240.4 -138.25 -240.25 -138.65 -239.0 -138.75 -238.5 -138.9 -238.15 -145.15 -215.9 -159.75 -218.25 -177.9 -220.15 -191.65 -226.9 -207.5 -225.4 -221.4 -227.25 -259.9 -243.9 -260.15 -244.0 -260.15 -244.65 -259.9 -245.15 -259.75 -245.65 -242.4 -295.75 -241.9 -300.0 -125.65 -300.0" fill="url(#gradient0)" fill-rule="evenodd" stroke="none"/>
    <path d="M-138.25 -240.4 L-128.5 -276.65 -125.65 -297.65 -125.65 -300.0 -123.65 -300.0 -123.25 -293.9 -126.0 -273.15 -127.9 -275.15 -128.25 -275.0 -138.25 -240.4" fill="url(#gradient1)" fill-rule="evenodd" stroke="none"/>
    <path d="M-138.25 -240.4 L-128.25 -275.0 -126.5 -268.25 -123.25 -254.0 -119.0 -215.15 -121.9 -202.0 -124.75 -182.9 -134.0 -189.25 -134.5 -193.4 -132.75 -205.75 -135.4 -209.9 -143.75 -209.0 Q-144.1 -208.8 -144.5 -208.65 -145.4 -208.4 -145.5 -203.65 L-148.75 -199.75 -153.0 -202.65 -151.25 -209.5 -145.15 -215.9 -138.9 -238.15 -138.75 -238.5 -138.65 -239.0 -138.25 -240.25 -138.25 -240.4 M-132.75 -226.5 L-133.25 -226.65 -139.15 -227.5 -139.25 -225.9 -133.5 -225.4 -132.75 -226.5" fill="url(#gradient2)" fill-rule="evenodd" stroke="none"/>
    <path d="M-128.25 -275.0 L-127.9 -275.15 -126.0 -273.15 -126.5 -268.25 -128.25 -275.0" fill="url(#gradient3)" fill-rule="evenodd" stroke="none"/>
    <path d="M-241.9 -300.0 L-242.4 -295.75 -259.75 -245.65 -259.9 -246.65 -259.9 -246.75 -259.75 -247.15 -251.4 -295.75 -264.15 -295.9 -263.65 -300.0 -241.9 -300.0 M-259.9 -245.15 L-260.15 -244.65 -260.15 -245.0 -259.9 -245.15" fill="url(#gradient4)" fill-rule="evenodd" stroke="none"/>
    <path d="M-259.75 -245.65 L-259.9 -245.15 -260.15 -245.0 -268.9 -253.15 -261.5 -259.65 -261.4 -259.4 -261.9 -256.0 -260.0 -247.25 -259.9 -246.75 -259.9 -246.65 -259.75 -245.65 M-248.5 -226.5 L-249.65 -226.25 -262.75 -231.65 -262.75 -232.4 -258.65 -242.65 -258.25 -242.0 -255.0 -234.5 -248.5 -226.5" fill="url(#gradient5)" fill-rule="evenodd" stroke="none"/>
    <path d="M-257.65 -241.5 L-248.5 -226.5 -255.0 -234.5 -258.25 -242.0 -258.15 -242.0 -257.65 -241.5 M-259.9 -246.75 L-260.0 -247.25 -261.9 -256.0 -261.4 -259.4 -260.0 -247.25 -259.75 -247.15 -259.9 -246.75" fill="url(#gradient6)" fill-rule="evenodd" stroke="none"/>
    <path d="M-260.15 -244.65 L-260.15 -244.0 -313.75 -240.4 -322.5 -252.75 -293.4 -269.25 -277.9 -281.4 -264.15 -295.9 -251.4 -295.75 -259.75 -247.15 -260.0 -247.25 -261.4 -259.4 -261.5 -259.65 -268.9 -253.15 -260.15 -245.0 -260.15 -244.65" fill="url(#gradient7)" fill-rule="evenodd" stroke="none"/>
    <path d="M-386.15 -218.4 L-382.75 -221.9 -345.25 -241.5 -333.0 -249.25 -322.5 -252.75 -313.75 -240.4 -336.65 -245.5 -348.4 -234.15 -386.15 -218.4" fill="url(#gradient8)" fill-rule="evenodd" stroke="none"/>
    <path d="M-387.65 -216.5 L-386.15 -218.4 -348.4 -234.15 -336.65 -245.5 -313.75 -240.4 -287.5 -214.25 -279.5 -211.15 -332.65 -173.25 -352.5 -165.4 -370.5 -161.25 -372.15 -162.15 -375.15 -165.75 -382.75 -171.5 -383.0 -173.4 -387.4 -186.25 -388.4 -183.9 -393.75 -207.9 -393.65 -208.15 -387.65 -216.5" fill="url(#gradient9)" fill-rule="evenodd" stroke="none"/>
    <path d="M-260.15 -244.0 L-259.9 -243.9 -258.75 -242.9 -258.65 -242.65 -262.75 -232.4 -262.75 -231.65 -249.65 -226.25 -248.5 -226.5 -257.65 -241.5 -235.25 -220.25 -232.15 -219.65 -228.5 -214.25 -220.0 -210.75 -222.25 -210.75 -239.75 -210.0 -270.65 -208.9 -279.5 -211.15 -287.5 -214.25 -313.75 -240.4 -260.15 -244.0" fill="url(#gradient10)" fill-rule="evenodd" stroke="none"/>
    <path d="M-239.75 -210.0 L-312.15 -167.9 -332.0 -161.15 -343.0 -158.75 -346.5 -158.0 -354.4 -157.25 -356.9 -158.4 -370.5 -161.25 -352.5 -165.4 -332.65 -173.25 -279.5 -211.15 -270.65 -208.9 -239.75 -210.0" fill="url(#gradient11)" fill-rule="evenodd" stroke="none"/>
    <path d="M-343.0 -158.75 L-342.15 -155.0 -342.25 -154.15 -345.0 -145.25 -344.65 -143.5 -344.9 -121.9 -349.9 -79.65 -351.65 -58.15 -352.15 -56.9 -357.25 -55.0 -357.4 -55.4 -357.75 -55.25 -358.9 -54.4 -365.75 -51.75 -369.0 -51.5 -368.9 -56.25 -366.65 -78.4 -372.0 -83.0 -378.0 -78.4 -379.9 -50.65 -382.4 -50.4 -383.15 -50.65 -383.5 -62.4 -390.0 -79.9 -390.4 -80.15 -391.0 -75.0 -392.0 -70.75 -393.75 -52.65 -398.15 -53.4 -398.25 -53.75 -389.75 -146.15 -390.0 -146.25 -388.0 -160.0 -387.5 -160.9 -386.5 -166.75 -383.75 -163.0 Q-373.9 -160.75 -372.15 -162.15 L-370.5 -161.25 -356.9 -158.4 -354.4 -157.25 -346.5 -158.0 -343.0 -158.75" fill="url(#gradient12)" fill-rule="evenodd" stroke="none"/>
    <path d="M-372.15 -162.15 Q-373.9 -160.75 -383.75 -163.0 L-386.5 -166.75 -388.25 -177.25 -388.4 -183.9 -387.4 -186.25 -383.0 -173.4 -382.75 -171.5 -375.15 -165.75 -372.15 -162.15 M-393.75 -52.65 L-392.0 -70.75 -391.0 -75.0 -390.4 -80.15 -390.0 -79.9 -383.5 -62.4 -383.15 -50.65 -392.65 -52.0 -393.75 -52.65 M-379.9 -50.65 L-378.0 -78.4 -372.0 -83.0 -366.65 -78.4 -368.9 -56.25 -369.0 -51.5 -374.4 -50.65 -379.9 -50.65 M-358.9 -54.4 L-357.75 -55.25 -357.4 -55.4 -357.25 -55.0 -358.9 -54.4" fill="url(#gradient13)" fill-rule="evenodd" stroke="none"/>
    <path d="M-400.0 -55.5 L-400.0 -190.4 -393.75 -207.9 -388.4 -183.9 -388.25 -177.25 -386.5 -166.75 -387.5 -160.9 -388.0 -160.0 -390.0 -146.25 -389.75 -146.15 -398.25 -53.75 -400.0 -55.5" fill="url(#gradient14)" fill-rule="evenodd" stroke="none"/>
    <path d="M-393.75 -207.9 L-393.75 -208.0 -393.65 -208.15 -392.75 -211.15 -388.4 -215.65 -388.15 -216.0 -387.65 -216.5 -393.65 -208.15 -393.75 -207.9" fill="url(#gradient15)" fill-rule="evenodd" stroke="none"/>
    <path d="M-259.9 -243.9 L-221.4 -227.25 -207.5 -225.4 -191.65 -226.9 -177.9 -220.15 -159.75 -218.25 -145.15 -215.9 -151.25 -209.5 -153.0 -202.65 -169.25 -206.9 -186.5 -206.75 -202.9 -206.4 -216.25 -208.25 -216.4 -208.25 -220.0 -210.75 -228.5 -214.25 -232.15 -219.65 -258.65 -242.65 -258.75 -242.9 -259.9 -243.9 M-184.4 -207.5 L-182.5 -208.65 -200.9 -210.75 -184.4 -207.5" fill="url(#gradient16)" fill-rule="evenodd" stroke="none"/>
    <path d="M-232.15 -219.65 L-235.25 -220.25 -257.65 -241.5 -258.15 -242.0 -258.25 -242.0 -258.65 -242.65 -232.15 -219.65" fill="url(#gradient17)" fill-rule="evenodd" stroke="none"/>
    <path d="M-132.75 -226.5 L-133.5 -225.4 -139.25 -225.9 -139.15 -227.5 -133.25 -226.65 -132.75 -226.5 M-148.75 -199.75 L-145.5 -203.65 Q-145.4 -208.4 -144.5 -208.65 -144.1 -208.8 -143.75 -209.0 L-135.4 -209.9 -132.75 -205.75 -134.5 -193.4 -134.0 -189.25 -138.15 -188.65 Q-147.65 -195.9 -148.75 -199.75 M-145.15 -190.25 L-146.5 -189.65 -156.0 -195.0 -159.4 -200.25 -155.25 -199.65 -146.15 -192.15 -145.15 -190.25 M-150.5 -53.5 L-156.9 -51.9 -157.5 -51.9 -156.25 -57.15 -154.9 -57.15 -150.5 -53.9 -150.5 -53.5 M-166.15 -51.75 L-163.65 -56.75 -162.5 -51.65 -166.15 -51.75" fill="url(#gradient18)" fill-rule="evenodd" stroke="none"/>
    <path d="M-349.15 -65.5 L-347.0 -64.75 Q-342.65 -60.75 -343.4 -59.4 L-344.4 -55.65 -350.0 -51.5 -350.9 -51.25 -350.5 -51.65 -351.9 -53.75 -353.65 -50.25 -360.9 -48.0 -373.0 -46.5 -387.15 -46.9 -398.25 -49.15 -400.0 -50.0 -400.0 -55.5 -398.25 -53.75 -398.15 -53.4 -393.75 -52.65 -392.65 -52.0 -383.15 -50.65 -382.4 -50.4 -379.9 -50.65 -374.4 -50.65 -369.0 -51.5 -365.75 -51.75 -358.9 -54.4 -357.25 -55.0 -352.15 -56.9 -351.65 -58.15 -349.4 -63.9 -349.15 -65.5" fill="url(#gradient19)" fill-rule="evenodd" stroke="none"/>
    <path d="M-343.4 -59.4 L-343.25 -48.9 Q-344.0 -43.9 -345.25 -43.75 L-349.0 -40.9 -351.15 -39.75 -351.25 -50.5 -350.9 -51.25 -350.0 -51.5 -344.4 -55.65 -343.4 -59.4 M-400.0 -38.65 L-400.0 -50.0 -398.25 -49.15 -387.15 -46.9 -373.0 -46.5 -360.9 -48.0 -353.65 -50.25 -356.75 -43.75 -361.9 -42.0 -363.75 -36.15 Q-388.9 -33.0 -400.0 -38.65" fill="url(#gradient20)" fill-rule="evenodd" stroke="none"/>
    <path d="M-400.0 -30.15 L-400.0 -38.65 Q-388.9 -33.0 -363.75 -36.15 L-364.9 -33.0 -374.0 -25.9 -376.9 -24.25 -381.15 -26.15 -384.0 -26.5 -386.75 -24.75 -388.75 -26.25 -394.4 -27.9 -395.4 -27.4 -399.0 -29.9 -400.0 -30.15" fill="url(#gradient21)" fill-rule="evenodd" stroke="none"/>
    <path d="M-399.9 -16.15 L-400.0 -30.15 -399.0 -29.9 -395.4 -27.4 -394.4 -27.9 -388.75 -26.25 -386.75 -24.75 -384.0 -26.5 -381.15 -26.15 -376.9 -24.25 -385.75 -18.75 -393.9 -14.65 -396.15 -11.65 -399.9 -16.15" fill="url(#gradient22)" fill-rule="evenodd" stroke="none"/>
    <path d="M-399.9 -11.9 L-399.9 -16.15 -396.15 -11.65 -398.0 -9.15 -399.9 -11.9" fill="url(#gradient23)" fill-rule="evenodd" stroke="none"/>
    <path d="M-400.0 -5.75 L-399.9 -11.9 -398.0 -9.15 -398.65 -8.0 -399.0 -7.65 -399.65 -5.9 -400.0 -5.75" fill="url(#gradient24)" fill-rule="evenodd" stroke="none"/>
    <path d="M-345.25 -43.75 L-345.0 -42.65 -343.75 -41.15 -343.75 -27.0 -343.9 -26.5 Q-343.15 -22.5 -345.4 -17.15 L-350.5 -13.0 -350.75 -12.75 -350.25 -11.65 -348.25 -12.65 -351.75 -9.65 -354.9 -8.4 -358.9 -6.9 -354.15 -9.5 -353.0 -11.65 -353.9 -11.25 -361.65 -8.25 -373.25 -6.25 -382.9 -6.25 -386.0 -5.75 -389.65 -5.75 -390.15 -5.4 -390.65 -5.0 -390.9 -4.75 -392.5 -4.15 -394.9 -2.5 -395.0 -2.4 -395.4 -2.25 -397.0 -1.25 -397.25 -1.15 -397.65 -0.9 -400.0 -0.9 -400.0 -5.75 -399.65 -5.9 -399.0 -7.65 -398.65 -8.0 -398.0 -9.15 -396.15 -11.65 -393.9 -14.65 -385.75 -18.75 -376.9 -24.25 -374.0 -25.9 -364.9 -33.0 -363.75 -36.15 -361.9 -42.0 -356.75 -43.75 -353.65 -50.25 -351.9 -53.75 -350.5 -51.65 -350.9 -51.25 -351.25 -50.5 -351.15 -39.75 -349.0 -40.9 -345.25 -43.75" fill="url(#gradient25)" fill-rule="evenodd" stroke="none"/>
    <path d="M-342.25 -154.15 L-340.9 -138.25 -339.5 -112.0 -347.9 -80.15 -349.15 -65.5 -349.4 -63.9 -351.65 -58.15 -349.9 -79.65 -344.9 -121.9 -344.65 -143.5 -345.0 -145.25 -342.25 -154.15" fill="url(#gradient26)" fill-rule="evenodd" stroke="none"/>
    <path d="M-216.4 -208.25 L-222.25 -210.75 -220.0 -210.75 -216.4 -208.25" fill="url(#gradient27)" fill-rule="evenodd" stroke="none"/>
    <path d="M-207.5 -91.25 L-203.25 -149.0 -198.0 -192.65 -198.0 -193.65 -201.0 -203.15 -201.15 -203.5 -202.9 -206.4 -186.5 -206.75 -185.15 -191.25 -190.65 -148.0 -195.15 -88.9 -185.9 -60.4 -204.65 -67.5 -207.9 -70.4 -207.9 -70.65 -208.0 -70.9 -207.65 -87.0 -207.5 -91.25" fill="url(#gradient28)" fill-rule="evenodd" stroke="none"/>
    <path d="M-124.75 -182.9 L-124.9 -178.5 -126.15 -147.65 -129.25 -119.5 -129.25 -119.15 -129.4 -118.9 -136.75 -84.0 -143.75 -60.0 -155.4 -58.65 -169.5 -58.75 -185.9 -60.4 -195.15 -88.9 -190.65 -148.0 -185.15 -191.25 -186.5 -206.75 -169.25 -206.9 -153.0 -202.65 -148.75 -199.75 Q-147.65 -195.9 -138.15 -188.65 L-134.0 -189.25 -124.75 -182.9 M-145.15 -190.25 L-146.15 -192.15 -155.25 -199.65 -159.4 -200.25 -156.0 -195.0 -146.5 -189.65 -145.15 -190.25" fill="url(#gradient29)" fill-rule="evenodd" stroke="none"/>
    <path d="M-184.4 -207.5 L-200.9 -210.75 -182.5 -208.65 -184.4 -207.5" fill="url(#gradient30)" fill-rule="evenodd" stroke="none"/>
    <path d="M-207.65 -90.15 L-207.5 -91.25 -207.65 -87.0 -207.65 -90.15" fill="url(#gradient31)" fill-rule="evenodd" stroke="none"/>
    <path d="M-209.4 -72.5 L-209.65 -72.75 -207.65 -90.15 -207.65 -87.0 -208.0 -70.9 -209.4 -72.5" fill="url(#gradient32)" fill-rule="evenodd" stroke="none"/>
    <path d="M-207.25 -59.15 L-209.4 -72.5 -208.0 -70.9 -207.9 -70.65 -207.9 -70.4 -207.4 -67.15 -207.4 -66.5 -207.25 -66.25 -206.25 -58.4 -207.25 -59.15" fill="url(#gradient33)" fill-rule="evenodd" stroke="none"/>
    <path d="M-193.25 -0.9 L-215.0 -0.9 -213.0 -18.25 -208.25 -44.9 -207.25 -59.15 -206.25 -58.4 -206.15 -58.25 -205.25 -52.5 -188.15 -47.5 -190.9 -34.75 -191.15 -18.5 -193.25 -0.9" fill="url(#gradient34)" fill-rule="evenodd" stroke="none"/>
    <path d="M-150.75 -47.9 L-148.65 -35.25 -146.65 -18.5 -148.9 -0.9 -193.25 -0.9 -191.15 -18.5 -190.9 -34.75 -188.15 -47.5 -171.15 -45.5 -159.5 -45.4 -150.75 -47.9" fill="url(#gradient35)" fill-rule="evenodd" stroke="none"/>
    <path d="M-143.75 -60.0 L-150.75 -47.9 -159.5 -45.4 -171.15 -45.5 -188.15 -47.5 -185.9 -60.4 -169.5 -58.75 -155.4 -58.65 -143.75 -60.0 M-150.5 -53.5 L-150.5 -53.9 -154.9 -57.15 -156.25 -57.15 -157.5 -51.9 -156.9 -51.9 -150.5 -53.5 M-166.15 -51.75 L-162.5 -51.65 -163.65 -56.75 -166.15 -51.75" fill="url(#gradient36)" fill-rule="evenodd" stroke="none"/>
    <path d="M-124.9 -178.5 L-125.0 -150.9 -129.25 -119.5 -126.15 -147.65 -124.9 -178.5" fill="url(#gradient37)" fill-rule="evenodd" stroke="none"/>
    <path d="M-206.25 -58.4 L-207.25 -66.25 -207.4 -66.5 -207.4 -67.15 -207.9 -70.4 -204.65 -67.5 -185.9 -60.4 -188.15 -47.5 -205.25 -52.5 -206.15 -58.25 -206.25 -58.4" fill="url(#gradient38)" fill-rule="evenodd" stroke="none"/>
    <path d="M-343.75 -27.0 L-342.9 -26.9 -343.9 -26.5 -343.75 -27.0 M-382.9 -6.25 L-385.25 -5.0 -390.15 -5.4 -389.65 -5.75 -386.0 -5.75 -382.9 -6.25" fill="url(#gradient39)" fill-rule="evenodd" stroke="none"/>
    <path d="M-342.9 -26.9 L-331.9 -22.9 -350.5 -13.0 -345.4 -17.15 Q-343.15 -22.5 -343.9 -26.5 L-342.9 -26.9 M-372.75 -0.9 L-375.5 -0.9 -385.25 -5.0 -382.9 -6.25 -373.25 -6.25 -361.65 -8.25 -353.9 -11.25 -372.75 -0.9" fill="url(#gradient40)" fill-rule="evenodd" stroke="none"/>
    <path d="M-331.9 -22.9 L-332.15 -21.4 -332.5 -21.15 -348.15 -12.75 -348.25 -12.65 -350.25 -11.65 -350.75 -12.75 -350.5 -13.0 -331.9 -22.9 M-364.75 -3.75 L-370.0 -0.9 -372.75 -0.9 -353.9 -11.25 -353.0 -11.65 -354.15 -9.5 -358.9 -6.9 -364.75 -3.75" fill="url(#gradient41)" fill-rule="evenodd" stroke="none"/>
    <path d="M-354.9 -8.4 L-358.15 -2.5 -359.0 -1.4 -360.65 -0.9 -362.25 -0.9 -363.25 -1.25 -363.5 -1.4 -364.75 -3.75 -358.9 -6.9 -354.9 -8.4" fill="url(#gradient42)" fill-rule="evenodd" stroke="none"/>
    <path d="M-375.5 -0.9 L-380.15 -0.9 -385.0 -2.9 -387.75 -3.25 -388.65 -3.25 -389.25 -2.65 -389.9 -2.25 -390.15 -2.0 -390.65 -1.65 -392.15 -0.9 -397.65 -0.9 -397.25 -1.15 -397.0 -1.25 -395.4 -2.25 -395.0 -2.4 -394.9 -2.5 -394.65 -2.5 -393.0 -3.0 -391.65 -4.0 -390.9 -4.75 -390.65 -5.0 -390.15 -5.4 -385.25 -5.0 -375.5 -0.9" fill="url(#gradient43)" fill-rule="evenodd" stroke="none"/>
    <path d="M-390.9 -4.75 L-391.65 -4.0 -394.65 -2.5 -394.9 -2.5 -392.5 -4.15 -390.9 -4.75" fill="url(#gradient44)" fill-rule="evenodd" stroke="none"/>
    <path d="M-387.75 -3.25 L-390.15 -2.0 -389.9 -2.25 -389.25 -2.65 -387.75 -3.25" fill="url(#gradient45)" fill-rule="evenodd" stroke="none"/>
    <path d="M-389.25 -2.65 L-388.65 -3.25 -387.75 -3.25 -389.25 -2.65" fill="url(#gradient46)" fill-rule="evenodd" stroke="none"/>
    <path d="M-391.65 -4.0 L-393.0 -3.0 -394.65 -2.5 -391.65 -4.0" fill="url(#gradient47)" fill-rule="evenodd" stroke="none"/>
    <path d="M-358.15 -2.5 L-358.15 -0.9 -360.65 -0.9 -359.0 -1.4 -358.15 -2.5 M-362.25 -0.9 L-363.5 -0.9 -363.5 -1.4 -363.25 -1.25 -362.25 -0.9" fill="url(#gradient48)" fill-rule="evenodd" stroke="none"/>
    <path d="M-275.4 -293.0 L-275.4 -293.75 -275.15 -294.25 -275.15 -293.75 -275.25 -292.75 -275.4 -293.0 M-273.5 -300.0 L-263.65 -300.0 -264.15 -295.9 -264.25 -295.65 -276.15 -283.25 -276.25 -283.65 -276.25 -284.9 -276.15 -284.5 -273.5 -300.0 M-276.4 -282.75 L-276.5 -282.25 -276.65 -282.65 -276.65 -282.75 -276.4 -282.75" fill="#fa0000" fill-rule="evenodd" stroke="none"/>
    <path d="M-263.65 -300.0 L-249.25 -300.0 -251.4 -280.65 -255.9 -268.65 -256.5 -266.15 -260.65 -255.4 -260.75 -254.15 -261.25 -253.65 -261.25 -252.75 -267.15 -236.65 -267.65 -235.75 -267.5 -235.5 -271.25 -225.65 -270.15 -232.5 -270.4 -232.75 -270.0 -233.5 -266.5 -254.15 -266.25 -255.0 -266.4 -255.25 -266.25 -255.5 -262.65 -275.25 -262.65 -277.25 -262.0 -279.5 -261.9 -280.9 -276.5 -281.25 -276.5 -282.25 -276.4 -282.75 -276.25 -283.0 -276.15 -283.25 -264.25 -295.65 -264.15 -295.9 -263.65 -300.0" fill="#e80000" fill-opacity="0.9098039" fill-rule="evenodd" stroke="none"/>
    <path d="M-276.15 -283.25 L-276.25 -283.0 -276.25 -283.65 -276.15 -283.25" fill="#f70000" fill-rule="evenodd" stroke="none"/>
    <path d="M-276.25 -283.0 L-276.4 -282.75 -276.65 -282.75 -276.9 -286.15 -276.25 -284.9 -276.25 -283.65 -276.25 -283.0" fill="#e30000" fill-rule="evenodd" stroke="none"/>
    <path d="M-277.25 -287.5 L-275.4 -293.0 -275.25 -292.75 -276.25 -284.9 -276.9 -286.15 -277.25 -287.5" fill="#e60000" fill-rule="evenodd" stroke="none"/>
    <path d="M-318.75 -264.65 L-277.25 -287.5 -276.9 -286.15 -276.65 -282.75 -276.65 -282.65 -276.75 -282.4 -277.65 -281.5 -277.9 -281.4 -293.15 -269.4 -313.0 -258.15 -318.0 -264.0 -318.75 -264.65" fill="#ea0000" fill-rule="evenodd" stroke="none"/>
    <path d="M-275.15 -294.25 L-275.15 -294.65 -275.0 -294.9 -275.0 -295.5 -274.65 -299.75 -273.5 -300.0 -276.15 -284.5 -276.25 -284.9 -275.25 -292.75 -275.15 -293.75 -275.15 -294.25" fill="#fe0000" fill-rule="evenodd" stroke="none"/>
    <path d="M-249.25 -300.0 L-243.4 -299.9 -241.9 -300.0 -204.9 -300.0 -201.25 -299.75 -160.5 -299.9 -160.15 -300.0 -125.65 -299.9 -125.0 -300.0 -123.65 -300.0 -123.5 -294.9 -123.65 -294.4 -123.5 -294.25 -123.75 -291.5 -123.65 -290.9 -126.5 -268.75 -123.65 -255.75 -123.4 -253.4 -123.5 -253.15 -122.15 -244.75 -122.25 -243.0 -133.25 -200.9 -133.15 -200.65 -133.4 -200.5 -137.5 -183.25 -138.0 -182.15 -137.9 -181.9 -138.0 -181.75 -138.0 -181.5 -138.65 -179.0 -175.4 -182.15 -194.75 -185.9 -198.9 -186.25 -198.25 -191.5 -198.0 -192.65 -198.0 -193.4 -201.0 -203.15 -201.15 -203.5 -202.9 -206.4 -215.4 -207.9 -216.25 -208.25 -216.4 -208.25 -222.25 -210.75 -239.75 -210.0 -246.25 -206.15 -248.0 -205.25 -271.75 -224.25 -271.25 -225.65 -267.5 -235.5 -267.65 -235.75 -267.15 -236.65 -261.25 -252.75 -261.25 -253.65 -260.75 -254.15 -260.65 -255.4 -256.5 -266.15 -255.9 -268.65 -251.4 -280.65 -249.25 -300.0" fill="#bf0000" fill-opacity="0.9098039" fill-rule="evenodd" stroke="none"/>
    <path d="M-271.25 -225.65 L-271.75 -224.25 -306.75 -251.15 -313.0 -258.15 -293.15 -269.4 -277.9 -281.4 -277.65 -281.5 -276.75 -282.4 -276.5 -282.25 -276.5 -281.25 -261.9 -280.9 -262.0 -279.5 -262.65 -277.25 -262.65 -275.25 -266.25 -255.5 -266.4 -255.25 -266.25 -255.0 -266.5 -254.15 -270.0 -233.5 -270.4 -232.75 -270.15 -232.5 -271.25 -225.65" fill="#da0000" fill-opacity="0.9098039" fill-rule="evenodd" stroke="none"/>
    <path d="M-123.65 -300.0 L-114.15 -300.0 -114.0 -299.9 -114.65 -287.65 -114.65 -287.15 -114.75 -286.75 -114.75 -284.9 -114.9 -284.25 -114.9 -283.9 -115.0 -282.5 -118.0 -260.15 -119.15 -255.75 -123.65 -255.75 -126.5 -268.75 -123.65 -290.9 -123.75 -291.5 -123.5 -294.25 -123.65 -294.4 -123.5 -294.9 -123.65 -300.0" fill="#d60000" fill-rule="evenodd" stroke="none"/>
    <path d="M-113.65 -291.75 L-113.65 -291.65 -113.75 -291.65 -113.9 -290.65 -114.0 -289.75 -114.15 -288.75 -114.65 -287.65 -114.0 -299.9 -114.15 -300.0 -112.9 -300.0 -112.75 -299.25 -112.9 -298.25 -113.0 -297.4 -113.15 -296.4 -113.5 -295.75 -113.65 -292.65 -113.75 -291.65 -113.65 -291.75 M-113.5 -291.15 L-112.9 -283.4 -112.0 -255.9 -113.65 -257.75 -114.0 -257.75 -114.0 -257.4 -114.15 -257.15 -114.15 -256.75 -114.25 -256.25 -114.65 -255.65 -119.15 -255.75 -118.0 -260.15 -115.0 -282.5 -114.9 -283.4 -114.0 -288.15 -114.15 -288.75 -113.9 -289.0 -114.0 -289.75 -113.75 -290.0 -113.9 -290.65 -113.5 -291.15" fill="#d40000" fill-rule="evenodd" stroke="none"/>
    <path d="M-112.9 -300.0 L-112.5 -300.0 -112.5 -299.5 -112.75 -299.25 -112.65 -298.65 -112.9 -298.25 -112.75 -297.65 -113.0 -297.4 -112.9 -296.65 -113.15 -296.4 -113.0 -295.75 -113.65 -292.65 -113.65 -291.75 -113.75 -291.65 -113.65 -292.65 -113.5 -295.75 -113.15 -296.4 -113.0 -297.4 -112.9 -298.25 -112.75 -299.25 -112.9 -300.0 M-113.65 -291.65 L-113.5 -291.15 -113.9 -290.65 -113.75 -290.0 -114.0 -289.75 -113.9 -289.0 -114.15 -288.75 -114.0 -288.15 -114.9 -283.4 -114.9 -283.9 -114.9 -284.25 -114.75 -284.9 -114.75 -286.75 -114.65 -287.15 -114.65 -287.65 -114.15 -288.75 -114.0 -289.75 -113.9 -290.65 -113.75 -291.65 -113.65 -291.65" fill="#d10000" fill-rule="evenodd" stroke="none"/>
    <path d="M-119.15 -255.75 L-122.15 -244.75 -123.5 -253.15 -123.4 -253.4 -123.65 -255.75 -119.15 -255.75" fill="#d50000" fill-rule="evenodd" stroke="none"/>
    <path d="M-115.0 -282.5 L-114.9 -283.9 -114.9 -283.4 -115.0 -282.5 M-246.25 -206.15 L-239.75 -210.0 -222.25 -210.75 -216.4 -208.25 -216.25 -208.25 -215.4 -207.9 -202.9 -206.4 -201.15 -203.5 -201.0 -203.15 -198.0 -193.4 -198.0 -192.65 -198.25 -191.5 -198.9 -186.25 -227.9 -189.25 -237.65 -197.0 -237.75 -197.25 -237.65 -198.15 -246.25 -206.15" fill="#d00000" fill-rule="evenodd" stroke="none"/>
    <path d="M-237.75 -197.25 L-238.75 -197.9 -237.65 -198.15 -237.75 -197.25 M-276.5 -282.25 L-276.75 -282.4 -276.65 -282.65 -276.5 -282.25" fill="#d30000" fill-opacity="0.9098039" fill-rule="evenodd" stroke="none"/>
    <path d="M-399.9 -191.15 L-400.0 -235.15 -318.75 -264.65 -318.0 -264.0 -313.0 -258.15 Q-317.05 -255.8 -321.15 -253.5 L-321.4 -253.4 -322.5 -252.75 -323.0 -252.65 -332.9 -249.25 -345.25 -241.5 -347.25 -240.5 -347.5 -240.4 -348.15 -240.0 -348.4 -239.9 -348.65 -239.75 -348.9 -239.65 -349.0 -239.65 -349.75 -239.15 -349.9 -239.15 -382.75 -221.9 -386.0 -218.65 -386.15 -218.4 -387.65 -216.5 -388.15 -216.0 -388.4 -215.65 -392.75 -211.15 -393.65 -208.15 -393.75 -208.0 -393.75 -207.9 -399.9 -191.15" fill="#ee0000" fill-rule="evenodd" stroke="none"/>
    <path d="M-306.75 -250.75 L-334.75 -181.9 -334.75 -181.15 -339.0 -170.9 -339.25 -170.65 -343.0 -160.9 -343.75 -159.4 -343.9 -159.15 -343.75 -159.0 -344.15 -158.5 -344.0 -158.4 -351.65 -139.65 -351.5 -139.15 -353.9 -133.9 -354.25 -132.15 -359.75 -118.4 -361.65 -105.9 -361.65 -105.5 -364.75 -84.0 -364.65 -83.5 -365.9 -51.9 -366.0 -51.75 -366.25 -46.0 -366.5 -44.4 -366.5 -43.0 -365.15 -38.75 -364.75 -37.9 -364.15 -36.0 -364.0 -35.9 -364.0 -35.15 -362.9 -32.15 -362.65 -30.9 -361.75 -29.15 -361.75 -28.0 -361.65 -28.0 -361.65 -27.75 -360.65 -25.4 -360.75 -25.15 -359.75 -22.65 -359.9 -22.4 -358.9 -19.75 -359.15 -19.65 -358.9 -19.5 -357.4 -15.4 -357.15 -14.25 -356.75 -13.15 -356.65 -12.75 -358.15 -13.25 -373.75 -19.75 -373.9 -20.0 -380.5 -22.65 -381.0 -23.0 -382.65 -23.5 -386.15 -25.0 -386.75 -25.0 -386.9 -25.5 -387.75 -25.65 -388.4 -26.0 -393.25 -28.15 -394.25 -28.4 -397.0 -29.5 -398.65 -30.4 -400.0 -30.75 -399.9 -118.25 -400.0 -119.25 -399.9 -141.9 -400.0 -190.75 -399.9 -191.15 -393.75 -207.9 -393.75 -208.0 -393.65 -208.15 -392.75 -211.15 -388.4 -215.65 -388.15 -216.0 -387.65 -216.5 -386.15 -218.4 -386.0 -218.65 -382.75 -221.9 -349.9 -239.15 -349.75 -239.15 -349.0 -239.65 -348.9 -239.65 -348.65 -239.75 -348.4 -239.9 -348.15 -240.0 -347.5 -240.4 -347.25 -240.5 -345.25 -241.5 -332.9 -249.25 -323.0 -252.65 -322.5 -252.75 -321.4 -253.4 -321.15 -253.5 Q-317.05 -255.8 -313.0 -258.15 L-306.75 -251.15 -306.75 -250.75" fill="#de0000" fill-opacity="0.9098039" fill-rule="evenodd" stroke="none"/>
    <path d="M-148.9 -0.9 L-215.0 -0.9 -214.65 -3.75 -214.65 -4.4 -212.65 -20.5 -212.5 -20.75 -212.5 -20.9 -208.25 -44.9 -207.25 -59.15 -209.4 -71.75 -209.4 -71.9 -209.5 -72.15 -209.4 -72.5 -209.65 -72.75 -207.5 -91.25 -207.5 -94.4 -203.15 -150.65 -198.9 -186.25 -194.75 -185.9 -175.4 -182.15 -138.65 -179.0 -124.9 -178.9 -124.9 -151.0 -125.25 -150.15 -125.15 -149.5 -127.9 -130.5 -127.9 -130.4 -128.0 -129.65 -128.0 -129.25 -128.4 -126.15 -128.5 -125.9 -128.75 -124.0 -128.75 -123.65 -128.9 -123.15 -128.9 -122.5 -129.0 -122.15 -129.5 -119.0 -129.5 -118.9 -129.65 -118.5 -129.5 -118.4 -137.25 -82.25 -143.65 -60.75 -143.75 -60.0 -147.0 -54.15 -150.9 -47.75 -149.4 -40.0 -148.65 -34.25 -148.5 -34.0 -146.75 -19.0 -146.65 -18.5 -147.4 -13.15 -147.25 -12.75 -147.5 -12.4 -147.4 -11.9 -148.9 -0.9 M-302.4 -173.65 L-302.5 -177.0 -302.4 -177.4 -302.75 -182.0 -302.65 -182.25 -303.0 -185.9 -302.9 -186.25 -303.9 -199.25 -303.65 -199.75 -305.65 -232.25 -305.75 -232.65 -306.65 -248.5 -306.5 -249.0 -306.75 -250.75 -306.75 -251.15 -271.75 -224.25 -248.0 -205.25 -275.0 -189.4 -302.4 -173.65" fill="#aa0000" fill-opacity="0.9098039" fill-rule="evenodd" stroke="none"/>
    <path d="M-112.0 -255.9 L-111.9 -255.65 -114.25 -255.65 -114.25 -256.25 -114.15 -256.75 -114.15 -257.15 -114.0 -257.4 -114.0 -257.75 -113.65 -257.75 -112.0 -255.9" fill="#e50000" fill-rule="evenodd" stroke="none"/>
    <path d="M-215.0 -0.9 L-271.25 -0.9 -269.65 -10.25 -269.75 -10.9 -271.75 -0.9 -277.65 -0.9 -264.0 -47.75 -254.5 -99.5 -243.5 -147.5 -237.65 -197.0 -227.9 -189.25 -198.9 -186.25 -203.15 -150.65 -207.5 -94.4 -207.5 -91.25 -209.65 -72.75 -209.4 -72.5 -209.5 -72.15 -209.4 -71.9 -209.4 -71.75 -207.25 -59.15 -208.25 -44.9 -212.5 -20.9 -212.5 -20.75 -212.65 -20.5 -214.65 -4.4 -214.65 -3.75 -215.0 -0.9 M-114.25 -255.65 L-114.65 -255.65 -114.25 -256.25 -114.25 -255.65 M-147.0 -54.15 L-146.9 -53.5 -149.4 -40.0 -150.9 -47.75 -147.0 -54.15" fill="#ba0000" fill-rule="evenodd" stroke="none"/>
    <path d="M-114.65 -255.65 L-121.15 -235.4 -122.25 -243.0 -122.15 -244.75 -119.15 -255.75 -114.65 -255.65" fill="#d20000" fill-rule="evenodd" stroke="none"/>
    <path d="M-271.25 -0.9 L-271.75 -0.9 -269.75 -10.9 -269.65 -10.25 -271.25 -0.9 M-114.4 -254.4 L-114.4 -254.0 -119.9 -224.15 -121.25 -234.0 -121.15 -235.4 -114.65 -255.65 -114.25 -255.65 -114.25 -254.75 -114.4 -254.4 M-238.75 -197.9 L-275.0 -189.4 -248.0 -205.25 -238.75 -197.9" fill="#b90000" fill-rule="evenodd" stroke="none"/>
    <path d="M-111.9 -255.65 L-115.65 -238.15 -114.25 -253.15 -114.4 -254.0 -114.4 -254.4 -114.15 -254.5 -114.25 -254.75 -114.25 -255.65 -111.9 -255.65" fill="#e40000" fill-rule="evenodd" stroke="none"/>
    <path d="M-115.65 -238.15 L-116.4 -232.9 -116.25 -232.25 -121.5 -178.75 -124.9 -178.9 -124.75 -182.15 -124.9 -182.9 -121.9 -203.4 -119.0 -214.9 -119.15 -215.0 -119.9 -224.15 -114.4 -254.0 -114.25 -253.15 -115.65 -238.15 M-114.4 -254.4 L-114.25 -254.75 -114.15 -254.5 -114.4 -254.4" fill="#b60000" fill-rule="evenodd" stroke="none"/>
    <path d="M-132.25 -44.5 L-132.25 -44.15 -132.4 -42.75 -132.4 -41.5 -132.5 -41.0 -133.15 -28.65 -133.5 -0.9 -148.9 -0.9 -147.4 -11.9 -147.5 -12.4 -147.25 -12.75 -147.4 -13.15 -146.65 -18.5 -146.75 -19.0 -148.5 -34.0 -148.65 -34.25 -149.4 -40.0 -146.9 -53.5 -147.0 -54.15 -143.75 -60.0 -143.65 -60.75 -137.25 -82.25 -129.5 -118.4 -129.65 -118.5 -129.5 -118.9 -129.5 -119.0 -129.0 -122.15 -128.9 -122.5 -128.9 -123.15 -128.75 -123.65 -128.75 -124.0 -128.5 -125.9 -128.4 -126.15 -128.0 -129.25 -128.0 -129.65 -127.9 -130.4 -127.9 -130.5 -125.15 -149.5 -125.25 -150.15 -124.9 -151.0 -123.5 -135.0 -130.75 -80.9 -132.25 -44.5 M-277.65 -0.9 L-317.9 -0.9 -312.25 -26.15 -305.0 -83.5 -301.9 -145.15 -302.5 -173.4 -302.4 -173.65 -275.0 -189.4 -238.75 -197.9 -237.75 -197.25 -237.65 -197.0 -243.5 -147.5 -254.5 -99.5 -264.0 -47.75 -277.65 -0.9" fill="#bb0000" fill-opacity="0.9098039" fill-rule="evenodd" stroke="none"/>
    <path d="M-237.65 -198.15 L-238.75 -197.9 -248.0 -205.25 -246.25 -206.15 -237.65 -198.15" fill="#cf0000" fill-rule="evenodd" stroke="none"/>
    <path d="M-121.15 -235.4 L-121.25 -234.0 -125.9 -220.25 -125.75 -220.0 -134.25 -193.65 -134.5 -192.5 -134.5 -191.9 -137.5 -183.25 -133.4 -200.5 -133.15 -200.65 -133.25 -200.9 -122.25 -243.0 -121.15 -235.4" fill="#bd0000" fill-opacity="0.9098039" fill-rule="evenodd" stroke="none"/>
    <path d="M-121.25 -234.0 L-119.9 -224.15 -119.15 -215.0 -119.0 -214.9 -121.9 -203.4 -124.9 -182.9 -124.75 -182.15 -124.9 -178.9 -138.65 -179.0 -138.0 -181.5 -138.0 -181.75 -137.9 -181.9 -138.0 -182.15 -137.5 -183.25 -134.5 -191.9 -134.5 -192.5 -134.25 -193.65 -125.75 -220.0 -125.9 -220.25 -121.25 -234.0" fill="#a30000" fill-opacity="0.9098039" fill-rule="evenodd" stroke="none"/>
    <path d="M-121.5 -178.75 L-121.4 -178.25 -122.25 -133.4 -129.75 -77.4 -132.25 -44.5 -130.75 -80.9 -123.5 -135.0 -124.9 -151.0 -124.9 -178.9 -121.5 -178.75 M-132.25 -44.15 L-132.15 -42.9 -132.4 -42.75 -132.25 -44.15 M-132.4 -41.5 L-132.25 -41.15 -132.5 -41.0 -132.4 -41.5" fill="#bc0000" fill-rule="evenodd" stroke="none"/>
    <path d="M-342.4 -155.25 L-343.0 -158.75 -332.65 -161.15 -332.4 -161.15 -332.0 -161.25 -311.9 -168.15 -307.9 -170.15 -321.15 -153.4 -334.0 -93.65 -336.25 -55.65 -330.4 -25.65 -339.75 -25.9 -343.75 -27.0 -343.9 -27.25 -343.9 -40.65 -343.75 -41.0 -344.65 -42.0 -344.9 -42.5 -345.25 -43.75 -344.4 -44.4 -344.4 -45.15 -344.25 -45.4 -344.25 -46.0 -343.75 -47.75 -343.5 -47.9 -343.65 -48.15 -343.25 -48.9 -343.5 -51.0 -343.4 -59.4 -343.25 -60.4 -347.15 -64.5 -349.15 -65.5 -347.75 -80.5 -344.25 -93.25 -343.75 -96.25 -339.65 -111.15 -339.65 -112.25 -339.75 -112.75 -340.5 -130.4 -342.4 -154.0 -342.25 -155.0 -342.4 -155.25" fill="#ae0000" fill-opacity="0.9098039" fill-rule="evenodd" stroke="none"/>
  </g>
  <defs>
    <radialGradient cx="0" cy="0" gradientTransform="matrix(0.126, 0.0, 0.0, 0.126, -204.85, -300.0)" gradientUnits="userSpaceOnUse" id="gradient0" r="819.2" spreadMethod="pad">
      <stop offset="0.0" stop-color="#7f7f7f"/>
      <stop offset="1.0" stop-color="#000000"/>
    </radialGradient>
    <radialGradient cx="0" cy="0" gradientTransform="matrix(0.0736, 0.0, 0.0, 0.0736, -126.1, -273.1)" gradientUnits="userSpaceOnUse" id="gradient1" r="819.2" spreadMethod="pad">
      <stop offset="0.0" stop-color="#131313"/>
      <stop offset="1.0" stop-color="#000000"/>
    </radialGradient>
    <radialGradient cx="0" cy="0" gradientTransform="matrix(0.0651, 0.0, 0.0, 0.0651, -128.5, -222.15)" gradientUnits="userSpaceOnUse" id="gradient2" r="819.2" spreadMethod="pad">
      <stop offset="0.0" stop-color="#000000"/>
      <stop offset="1.0" stop-color="#000000"/>
    </radialGradient>
    <radialGradient cx="0" cy="0" gradientTransform="matrix(0.0251, 0.0, 0.0, 0.0251, -126.1, -273.1)" gradientUnits="userSpaceOnUse" id="gradient3" r="819.2" spreadMethod="pad">
      <stop offset="0.0" stop-color="#131313"/>
      <stop offset="1.0" stop-color="#0b0b0b"/>
    </radialGradient>
    <radialGradient cx="0" cy="0" gradientTransform="matrix(0.0684, 0.0, 0.0, 0.0684, -263.65, -300.0)" gradientUnits="userSpaceOnUse" id="gradient4" r="819.2" spreadMethod="pad">
      <stop offset="0.0" stop-color="#4c4c4c"/>
      <stop offset="1.0" stop-color="#3e3e3e"/>
    </radialGradient>
    <radialGradient cx="0" cy="0" gradientTransform="matrix(0.0641, 0.0, 0.0, 0.0641, -289.6, -221.7)" gradientUnits="userSpaceOnUse" id="gradient5" r="819.2" spreadMethod="pad">
      <stop offset="0.0" stop-color="#737373"/>
      <stop offset="1.0" stop-color="#1a1a1a"/>
    </radialGradient>
    <radialGradient cx="0" cy="0" gradientTransform="matrix(0.0317, 0.0, 0.0, 0.0317, -243.05, -247.6)" gradientUnits="userSpaceOnUse" id="gradient6" r="819.2" spreadMethod="pad">
      <stop offset="0.0" stop-color="#000000"/>
      <stop offset="1.0" stop-color="#000000"/>
    </radialGradient>
    <radialGradient cx="0" cy="0" gradientTransform="matrix(0.0769, 0.0, 0.0, 0.0769, -260.1, -244.15)" gradientUnits="userSpaceOnUse" id="gradient7" r="819.2" spreadMethod="pad">
      <stop offset="0.0" stop-color="#464646"/>
      <stop offset="1.0" stop-color="#010101"/>
    </radialGradient>
    <radialGradient cx="0" cy="0" gradientTransform="matrix(0.0929, 0.0, 0.0, 0.0929, -313.6, -240.45)" gradientUnits="userSpaceOnUse" id="gradient8" r="819.2" spreadMethod="pad">
      <stop offset="0.0" stop-color="#0e0e0e"/>
      <stop offset="1.0" stop-color="#000000"/>
    </radialGradient>
    <radialGradient cx="0" cy="0" gradientTransform="matrix(0.1406, 0.0, 0.0, 0.1406, -287.35, -214.35)" gradientUnits="userSpaceOnUse" id="gradient9" r="819.2" spreadMethod="pad">
      <stop offset="0.0" stop-color="#7f7f7f"/>
      <stop offset="1.0" stop-color="#2d2d2d"/>
    </radialGradient>
    <radialGradient cx="0" cy="0" gradientTransform="matrix(0.0823, 0.0, 0.0, 0.0823, -287.35, -214.35)" gradientUnits="userSpaceOnUse" id="gradient10" r="819.2" spreadMethod="pad">
      <stop offset="0.0" stop-color="#7f7f7f"/>
      <stop offset="1.0" stop-color="#000000"/>
    </radialGradient>
    <radialGradient cx="0" cy="0" gradientTransform="matrix(0.1833, 0.0, 0.0, 0.1833, -373.8, -160.6)" gradientUnits="userSpaceOnUse" id="gradient11" r="819.2" spreadMethod="pad">
      <stop offset="0.0" stop-color="#565656"/>
      <stop offset="1.0" stop-color="#000000"/>
    </radialGradient>
    <radialGradient cx="0" cy="0" gradientTransform="matrix(0.1511, 0.0, 0.0, 0.1511, -370.1, -170.95)" gradientUnits="userSpaceOnUse" id="gradient12" r="819.2" spreadMethod="pad">
      <stop offset="0.0" stop-color="#292929"/>
      <stop offset="1.0" stop-color="#040404"/>
    </radialGradient>
    <radialGradient cx="0" cy="0" gradientTransform="matrix(0.1957, 0.0, 0.0, 0.1957, -372.65, -194.7)" gradientUnits="userSpaceOnUse" id="gradient13" r="819.2" spreadMethod="pad">
      <stop offset="0.0" stop-color="#2e2e2e"/>
      <stop offset="1.0" stop-color="#000000"/>
    </radialGradient>
    <radialGradient cx="0" cy="0" gradientTransform="matrix(0.124, 0.0, 0.0, 0.124, -400.0, -109.75)" gradientUnits="userSpaceOnUse" id="gradient14" r="819.2" spreadMethod="pad">
      <stop offset="0.0" stop-color="#585858"/>
      <stop offset="1.0" stop-color="#060606"/>
    </radialGradient>
    <radialGradient cx="0" cy="0" gradientTransform="matrix(0.0217, 0.0, 0.0, 0.0217, -393.6, -207.9)" gradientUnits="userSpaceOnUse" id="gradient15" r="819.2" spreadMethod="pad">
      <stop offset="0.0" stop-color="#0f0f0f"/>
      <stop offset="1.0" stop-color="#000000"/>
    </radialGradient>
    <radialGradient cx="0" cy="0" gradientTransform="matrix(0.0836, 0.0, 0.0, 0.0836, -202.9, -206.45)" gradientUnits="userSpaceOnUse" id="gradient16" r="819.2" spreadMethod="pad">
      <stop offset="0.0" stop-color="#494949"/>
      <stop offset="1.0" stop-color="#171717"/>
    </radialGradient>
    <radialGradient cx="0" cy="0" gradientTransform="matrix(0.0452, 0.0, 0.0, 0.0452, -260.1, -244.15)" gradientUnits="userSpaceOnUse" id="gradient17" r="819.2" spreadMethod="pad">
      <stop offset="0.0" stop-color="#464646"/>
      <stop offset="1.0" stop-color="#000000"/>
    </radialGradient>
    <radialGradient cx="0" cy="0" gradientTransform="matrix(0.2177, 0.0, 0.0, 0.2177, -151.95, -229.3)" gradientUnits="userSpaceOnUse" id="gradient18" r="819.2" spreadMethod="pad">
      <stop offset="0.0" stop-color="#666666"/>
      <stop offset="1.0" stop-color="#0c0c0c"/>
    </radialGradient>
    <radialGradient cx="0" cy="0" gradientTransform="matrix(0.0671, 0.0, 0.0, 0.0671, -346.95, -64.7)" gradientUnits="userSpaceOnUse" id="gradient19" r="819.2" spreadMethod="pad">
      <stop offset="0.0" stop-color="#212121"/>
      <stop offset="1.0" stop-color="#212121"/>
    </radialGradient>
    <radialGradient cx="0" cy="0" gradientTransform="matrix(0.0555, 0.0, 0.0, 0.0555, -386.75, -46.95)" gradientUnits="userSpaceOnUse" id="gradient20" r="819.2" spreadMethod="pad">
      <stop offset="0.0" stop-color="#b5b5b5"/>
      <stop offset="1.0" stop-color="#545454"/>
    </radialGradient>
    <radialGradient cx="0" cy="0" gradientTransform="matrix(0.0481, 0.0, 0.0, 0.0481, -394.85, -24.2)" gradientUnits="userSpaceOnUse" id="gradient21" r="819.2" spreadMethod="pad">
      <stop offset="0.0" stop-color="#272727"/>
      <stop offset="1.0" stop-color="#000000"/>
    </radialGradient>
    <radialGradient cx="0" cy="0" gradientTransform="matrix(0.0367, 0.0, 0.0, 0.0367, -393.3, -8.9)" gradientUnits="userSpaceOnUse" id="gradient22" r="819.2" spreadMethod="pad">
      <stop offset="0.0" stop-color="#777777"/>
      <stop offset="1.0" stop-color="#040404"/>
    </radialGradient>
    <radialGradient cx="0" cy="0" gradientTransform="matrix(0.0292, 0.0, 0.0, 0.0292, -383.1, -27.5)" gradientUnits="userSpaceOnUse" id="gradient23" r="819.2" spreadMethod="pad">
      <stop offset="0.0" stop-color="#000000"/>
      <stop offset="1.0" stop-color="#000000"/>
    </radialGradient>
    <radialGradient cx="0" cy="0" gradientTransform="matrix(0.0059, 0.0, 0.0, 0.0059, -397.45, -8.35)" gradientUnits="userSpaceOnUse" id="gradient24" r="819.2" spreadMethod="pad">
      <stop offset="0.0" stop-color="#424242"/>
      <stop offset="1.0" stop-color="#323232"/>
    </radialGradient>
    <radialGradient cx="0" cy="0" gradientTransform="matrix(0.0654, 0.0, 0.0, 0.0654, -386.1, -14.9)" gradientUnits="userSpaceOnUse" id="gradient25" r="819.2" spreadMethod="pad">
      <stop offset="0.0" stop-color="#b6b6b6"/>
      <stop offset="1.0" stop-color="#2a2a2a"/>
    </radialGradient>
    <radialGradient cx="0" cy="0" gradientTransform="matrix(0.0978, 0.0, 0.0, 0.0978, -340.35, -129.0)" gradientUnits="userSpaceOnUse" id="gradient26" r="819.2" spreadMethod="pad">
      <stop offset="0.0" stop-color="#424242"/>
      <stop offset="1.0" stop-color="#000000"/>
    </radialGradient>
    <radialGradient cx="0" cy="0" gradientTransform="matrix(0.0127, 0.0, 0.0, 0.0127, -215.55, -208.0)" gradientUnits="userSpaceOnUse" id="gradient27" r="819.2" spreadMethod="pad">
      <stop offset="0.0" stop-color="#000000"/>
      <stop offset="1.0" stop-color="#000000"/>
    </radialGradient>
    <radialGradient cx="0" cy="0" gradientTransform="matrix(0.1618, 0.0, 0.0, 0.1618, -193.85, -192.8)" gradientUnits="userSpaceOnUse" id="gradient28" r="819.2" spreadMethod="pad">
      <stop offset="0.0" stop-color="#575757"/>
      <stop offset="1.0" stop-color="#3d3d3d"/>
    </radialGradient>
    <radialGradient cx="0" cy="0" gradientTransform="matrix(0.1291, 0.0, 0.0, 0.1291, -152.8, -160.95)" gradientUnits="userSpaceOnUse" id="gradient29" r="819.2" spreadMethod="pad">
      <stop offset="0.0" stop-color="#494949"/>
      <stop offset="1.0" stop-color="#131313"/>
    </radialGradient>
    <radialGradient cx="0" cy="0" gradientTransform="matrix(0.0241, 0.0, 0.0, 0.0241, -201.95, -211.1)" gradientUnits="userSpaceOnUse" id="gradient30" r="819.2" spreadMethod="pad">
      <stop offset="0.0" stop-color="#000000"/>
      <stop offset="1.0" stop-color="#000000"/>
    </radialGradient>
    <radialGradient cx="0" cy="0" gradientTransform="matrix(0.1503, 0.0, 0.0, 0.1503, -197.95, -193.45)" gradientUnits="userSpaceOnUse" id="gradient31" r="819.2" spreadMethod="pad">
      <stop offset="0.0" stop-color="#030303"/>
      <stop offset="1.0" stop-color="#010101"/>
    </radialGradient>
    <radialGradient cx="0" cy="0" gradientTransform="matrix(0.0321, 0.0, 0.0, 0.0321, -207.85, -70.7)" gradientUnits="userSpaceOnUse" id="gradient32" r="819.2" spreadMethod="pad">
      <stop offset="0.0" stop-color="#030303"/>
      <stop offset="1.0" stop-color="#000000"/>
    </radialGradient>
    <radialGradient cx="0" cy="0" gradientTransform="matrix(0.0218, 0.0, 0.0, 0.0218, -203.9, -56.25)" gradientUnits="userSpaceOnUse" id="gradient33" r="819.2" spreadMethod="pad">
      <stop offset="0.0" stop-color="#040404"/>
      <stop offset="1.0" stop-color="#020202"/>
    </radialGradient>
    <radialGradient cx="0" cy="0" gradientTransform="matrix(0.0647, 0.0, 0.0, 0.0647, -205.25, -52.65)" gradientUnits="userSpaceOnUse" id="gradient34" r="819.2" spreadMethod="pad">
      <stop offset="0.0" stop-color="#383838"/>
      <stop offset="1.0" stop-color="#020202"/>
    </radialGradient>
    <radialGradient cx="0" cy="0" gradientTransform="matrix(0.0742, 0.0, 0.0, 0.0742, -188.05, -47.65)" gradientUnits="userSpaceOnUse" id="gradient35" r="819.2" spreadMethod="pad">
      <stop offset="0.0" stop-color="#1c1c1c"/>
      <stop offset="1.0" stop-color="#000000"/>
    </radialGradient>
    <radialGradient cx="0" cy="0" gradientTransform="matrix(0.0512, 0.0, 0.0, 0.0512, -185.75, -60.5)" gradientUnits="userSpaceOnUse" id="gradient36" r="819.2" spreadMethod="pad">
      <stop offset="0.0" stop-color="#393939"/>
      <stop offset="1.0" stop-color="#000000"/>
    </radialGradient>
    <radialGradient cx="0" cy="0" gradientTransform="matrix(0.0396, 0.0, 0.0, 0.0396, -125.15, -150.5)" gradientUnits="userSpaceOnUse" id="gradient37" r="819.2" spreadMethod="pad">
      <stop offset="0.0" stop-color="#010101"/>
      <stop offset="1.0" stop-color="#000000"/>
    </radialGradient>
    <radialGradient cx="0" cy="0" gradientTransform="matrix(0.0316, 0.0, 0.0, 0.0316, -204.55, -67.65)" gradientUnits="userSpaceOnUse" id="gradient38" r="819.2" spreadMethod="pad">
      <stop offset="0.0" stop-color="#4d4d4d"/>
      <stop offset="1.0" stop-color="#2e2e2e"/>
    </radialGradient>
    <radialGradient cx="0" cy="0" gradientTransform="matrix(0.0636, 0.0, 0.0, 0.0636, -342.75, -27.0)" gradientUnits="userSpaceOnUse" id="gradient39" r="819.2" spreadMethod="pad">
      <stop offset="0.0" stop-color="#121212"/>
      <stop offset="1.0" stop-color="#121212"/>
    </radialGradient>
    <radialGradient cx="0" cy="0" gradientTransform="matrix(0.0687, 0.0, 0.0, 0.0687, -331.95, -23.05)" gradientUnits="userSpaceOnUse" id="gradient40" r="819.2" spreadMethod="pad">
      <stop offset="0.0" stop-color="#717171"/>
      <stop offset="1.0" stop-color="#707070"/>
    </radialGradient>
    <radialGradient cx="0" cy="0" gradientTransform="matrix(0.0536, 0.0, 0.0, 0.0536, -370.0, -1.0)" gradientUnits="userSpaceOnUse" id="gradient41" r="819.2" spreadMethod="pad">
      <stop offset="0.0" stop-color="#121212"/>
      <stop offset="1.0" stop-color="#121212"/>
    </radialGradient>
    <radialGradient cx="0" cy="0" gradientTransform="matrix(0.0154, 0.0, 0.0, 0.0154, -363.4, -6.5)" gradientUnits="userSpaceOnUse" id="gradient42" r="819.2" spreadMethod="pad">
      <stop offset="0.0" stop-color="#dedede"/>
      <stop offset="1.0" stop-color="#222222"/>
    </radialGradient>
    <radialGradient cx="0" cy="0" gradientTransform="matrix(0.0195, 0.0, 0.0, 0.0195, -391.4, -1.3)" gradientUnits="userSpaceOnUse" id="gradient43" r="819.2" spreadMethod="pad">
      <stop offset="0.0" stop-color="#979797"/>
      <stop offset="1.0" stop-color="#949494"/>
    </radialGradient>
    <radialGradient cx="0" cy="0" gradientTransform="matrix(0.0141, 0.0, 0.0, 0.0141, -397.55, -1.0)" gradientUnits="userSpaceOnUse" id="gradient44" r="819.2" spreadMethod="pad">
      <stop offset="0.0" stop-color="#212121"/>
      <stop offset="1.0" stop-color="#212121"/>
    </radialGradient>
    <radialGradient cx="0" cy="0" gradientTransform="matrix(0.0586, 0.0, 0.0, 0.0586, -348.75, -23.4)" gradientUnits="userSpaceOnUse" id="gradient45" r="819.2" spreadMethod="pad">
      <stop offset="0.0" stop-color="#121212"/>
      <stop offset="1.0" stop-color="#121212"/>
    </radialGradient>
    <radialGradient cx="0" cy="0" gradientTransform="matrix(0.0585, 0.0, 0.0, 0.0585, -388.25, -3.5)" gradientUnits="userSpaceOnUse" id="gradient46" r="819.2" spreadMethod="pad">
      <stop offset="0.0" stop-color="#121212"/>
      <stop offset="1.0" stop-color="#121212"/>
    </radialGradient>
    <radialGradient cx="0" cy="0" gradientTransform="matrix(0.0586, 0.0, 0.0, 0.0586, -392.95, -3.15)" gradientUnits="userSpaceOnUse" id="gradient47" r="819.2" spreadMethod="pad">
      <stop offset="0.0" stop-color="#121212"/>
      <stop offset="1.0" stop-color="#121212"/>
    </radialGradient>
    <radialGradient cx="0" cy="0" gradientTransform="matrix(0.0057, 0.0, 0.0, 0.0057, -361.9, -1.0)" gradientUnits="userSpaceOnUse" id="gradient48" r="819.2" spreadMethod="pad">
      <stop offset="0.0" stop-color="#aeaeae"/>
      <stop offset="1.0" stop-color="#505050"/>
    </radialGradient>
  </defs>
</svg>
