<?xml version="1.0" encoding="UTF-8" standalone="no"?>
<svg xmlns:xlink="http://www.w3.org/1999/xlink" height="299.2px" width="289.35px" xmlns="http://www.w3.org/2000/svg">
  <g transform="matrix(1.0, 0.0, 0.0, 1.0, 400.0, 300.0)">
    <path d="M-236.65 -300.0 L-122.5 -300.0 -124.15 -286.75 -126.9 -265.75 -127.65 -262.5 -127.75 -262.0 -143.5 -202.9 -154.75 -204.5 -174.25 -206.25 -188.4 -213.25 -201.65 -211.15 -216.75 -212.75 -256.75 -230.15 -257.0 -230.25 -257.25 -230.4 -257.15 -230.9 -257.15 -231.4 -256.75 -231.9 -238.65 -282.5 -236.65 -300.0" fill="url(#gradient0)" fill-rule="evenodd" stroke="none"/>
    <path d="M-124.15 -286.75 L-124.0 -281.5 -126.75 -261.5 -127.65 -262.5 -126.9 -265.75 -124.15 -286.75" fill="url(#gradient1)" fill-rule="evenodd" stroke="none"/>
    <path d="M-126.75 -261.5 L-127.0 -259.25 -127.75 -262.0 -127.65 -262.5 -126.75 -261.5" fill="url(#gradient2)" fill-rule="evenodd" stroke="none"/>
    <path d="M-127.0 -259.25 L-123.75 -242.15 -119.5 -203.5 -122.25 -191.5 -125.4 -171.25 -133.9 -177.25 -134.25 -180.75 -132.5 -193.25 -134.65 -197.5 -143.25 -196.0 Q-144.0 -195.5 -144.25 -191.0 L-147.5 -187.15 -151.5 -189.9 -149.65 -196.75 -143.5 -202.9 -127.75 -262.0 -127.0 -259.25 M-132.65 -213.0 L-132.25 -214.15 -138.0 -214.75 -138.0 -213.25 -132.65 -213.0" fill="url(#gradient3)" fill-rule="evenodd" stroke="none"/>
    <path d="M-202.5 -194.15 L-215.5 -195.75 -215.65 -195.75 -218.4 -197.75 -226.15 -200.75 -229.25 -205.9 -254.0 -227.5 -254.15 -227.75 -255.0 -228.4 -255.15 -228.5 -255.4 -228.5 -255.5 -228.9 -255.75 -228.9 -256.75 -230.15 -216.75 -212.75 -201.65 -211.15 -188.4 -213.25 -174.25 -206.25 -154.75 -204.5 -143.5 -202.9 -149.65 -196.75 -151.5 -189.9 -167.65 -194.15 -185.4 -194.15 -202.5 -194.15 M-183.0 -194.65 L-180.4 -195.65 -198.0 -197.4 -183.0 -194.65" fill="url(#gradient4)" fill-rule="evenodd" stroke="none"/>
    <path d="M-220.15 -197.65 L-242.4 -196.9 -270.25 -195.9 -278.65 -197.9 -286.75 -201.0 -314.9 -228.25 -257.25 -230.4 -257.0 -230.25 -256.75 -230.15 -255.75 -228.9 -260.65 -218.15 -246.75 -212.5 -245.9 -212.75 -254.65 -227.75 -254.15 -227.75 -254.0 -227.5 -231.4 -206.0 -229.25 -205.9 -226.15 -200.75 -218.4 -197.75 -220.15 -197.65" fill="url(#gradient5)" fill-rule="evenodd" stroke="none"/>
    <path d="M-325.5 -241.75 L-295.0 -258.15 -268.65 -277.5 -269.15 -276.75 -268.15 -277.9 -263.5 -282.5 -263.5 -282.65 Q-262.0 -284.65 -248.5 -283.0 L-256.9 -233.0 -257.0 -233.75 -258.65 -245.5 -258.75 -246.4 -259.15 -246.25 -266.65 -239.9 -257.15 -231.4 -257.15 -230.9 -257.25 -230.4 -314.9 -228.25 -325.5 -241.75" fill="url(#gradient6)" fill-rule="evenodd" stroke="none"/>
    <path d="M-256.75 -231.9 L-257.15 -231.4 -266.65 -239.9 -259.15 -246.25 -258.75 -246.4 -258.65 -245.5 -258.9 -242.0 -257.0 -233.75 -256.9 -233.0 -256.75 -231.9 M-245.9 -212.75 L-246.75 -212.5 -260.65 -218.15 -255.75 -228.9 -255.5 -228.9 -255.4 -228.5 -252.15 -220.9 -245.9 -212.75" fill="url(#gradient7)" fill-rule="evenodd" stroke="none"/>
    <path d="M-263.5 -282.65 L-261.75 -299.9 -236.65 -300.0 -238.65 -282.5 -256.75 -231.9 -256.9 -233.0 -248.5 -283.0 Q-262.0 -284.65 -263.5 -282.65" fill="url(#gradient8)" fill-rule="evenodd" stroke="none"/>
    <path d="M-254.65 -227.75 L-245.9 -212.75 -252.15 -220.9 -255.4 -228.5 -255.15 -228.5 -255.0 -228.4 -254.65 -227.75 M-257.0 -233.75 L-258.9 -242.0 -258.65 -245.5 -257.0 -233.75" fill="url(#gradient9)" fill-rule="evenodd" stroke="none"/>
    <path d="M-268.65 -277.5 L-268.15 -277.9 -269.15 -276.75 -268.65 -277.5" fill="url(#gradient10)" fill-rule="evenodd" stroke="none"/>
    <path d="M-393.15 -211.0 L-392.0 -212.15 -351.0 -231.4 -337.25 -238.9 -325.5 -241.75 -314.9 -228.25 -341.0 -234.65 -354.0 -223.5 -395.15 -208.4 -393.15 -211.0" fill="url(#gradient11)" fill-rule="evenodd" stroke="none"/>
    <path d="M-400.0 -202.65 L-400.0 -204.5 -393.15 -211.0 -395.15 -208.4 -395.4 -208.25 -400.0 -202.65" fill="url(#gradient12)" fill-rule="evenodd" stroke="none"/>
    <path d="M-399.9 -181.75 L-400.0 -202.65 -395.4 -208.25 -395.15 -208.4 -354.0 -223.5 -341.0 -234.65 -314.9 -228.25 -286.75 -201.0 -278.65 -197.9 -335.9 -160.65 -358.4 -153.0 -378.0 -149.4 -379.65 -150.25 -382.65 -153.9 -391.0 -159.9 Q-391.0 -161.75 -392.15 -164.25 L-396.4 -175.5 -397.5 -172.75 -399.9 -181.75" fill="url(#gradient13)" fill-rule="evenodd" stroke="none"/>
    <path d="M-229.25 -205.9 L-231.4 -206.0 -254.0 -227.5 -229.25 -205.9 M-254.15 -227.75 L-254.65 -227.75 -255.0 -228.4 -254.15 -227.75" fill="url(#gradient14)" fill-rule="evenodd" stroke="none"/>
    <path d="M-132.65 -213.0 L-138.0 -213.25 -138.0 -214.75 -132.25 -214.15 -132.65 -213.0 M-147.5 -187.15 L-144.25 -191.0 Q-144.0 -195.5 -143.25 -196.0 L-134.65 -197.5 -132.5 -193.25 -134.25 -180.75 -133.9 -177.25 -137.65 -176.4 Q-146.25 -183.15 -147.5 -187.15 M-145.25 -177.0 L-154.75 -182.4 -158.0 -187.5 -154.25 -187.15 -145.25 -179.75 Q-142.9 -177.4 -145.25 -177.0 M-156.25 -40.25 L-156.9 -40.25 -155.5 -45.5 -154.65 -45.65 -150.65 -42.65 -150.75 -42.25 -156.25 -40.25 M-165.15 -39.65 L-162.65 -44.75 -161.65 -40.4 -161.65 -39.75 -162.25 -39.65 -165.15 -39.65" fill="url(#gradient15)" fill-rule="evenodd" stroke="none"/>
    <path d="M-399.9 -107.65 L-399.9 -181.75 -397.5 -172.75 -397.25 -166.5 -395.0 -155.15 -396.25 -147.4 -397.75 -133.65 -399.5 -107.9 -399.9 -107.65" fill="url(#gradient16)" fill-rule="evenodd" stroke="none"/>
    <path d="M-350.4 -147.4 L-349.4 -143.9 -349.5 -142.75 -351.75 -133.9 -351.25 -111.65 -354.0 -89.65 -354.75 -80.75 -356.75 -66.9 -358.25 -47.0 -358.75 -43.75 -363.9 -41.4 -364.0 -41.9 -365.4 -40.75 -371.65 -37.9 -375.65 -37.25 -373.25 -64.75 -378.15 -69.0 -378.75 -69.15 -384.9 -64.4 -386.5 -36.0 -390.0 -35.9 -390.5 -47.9 -397.75 -66.0 -398.15 -65.75 -398.4 -62.4 -399.25 -59.15 -399.9 -54.5 -399.9 -107.65 -399.5 -107.9 -397.75 -133.65 -396.25 -147.4 -395.0 -155.15 -391.9 -151.15 Q-381.0 -148.65 -379.65 -150.25 L-378.0 -149.4 -363.75 -146.65 -360.4 -145.5 -350.4 -147.4" fill="url(#gradient17)" fill-rule="evenodd" stroke="none"/>
    <path d="M-400.0 -37.15 L-399.9 -54.5 -399.25 -59.15 -398.4 -62.4 -398.15 -65.75 -397.75 -66.0 -390.5 -47.9 -390.0 -35.9 -400.0 -37.15 M-397.5 -172.75 L-396.4 -175.5 -392.15 -164.25 Q-391.0 -161.75 -391.0 -159.9 L-382.65 -153.9 -379.65 -150.25 Q-381.0 -148.65 -391.9 -151.15 L-395.0 -155.15 -397.25 -166.5 -397.5 -172.75 M-386.5 -36.0 L-384.9 -64.4 -378.75 -69.15 -378.15 -69.0 -373.25 -64.75 -375.65 -37.25 -381.4 -36.15 -386.5 -36.0 M-365.4 -40.75 L-364.0 -41.9 -363.9 -41.4 -365.4 -40.75" fill="url(#gradient18)" fill-rule="evenodd" stroke="none"/>
    <path d="M-215.65 -195.75 L-220.15 -197.65 -218.4 -197.75 -215.65 -195.75" fill="url(#gradient19)" fill-rule="evenodd" stroke="none"/>
    <path d="M-242.4 -196.9 L-315.75 -156.25 -337.5 -149.75 -350.4 -147.4 -360.4 -145.5 -363.75 -146.65 -378.0 -149.4 -358.4 -153.0 -335.9 -160.65 -278.65 -197.9 -270.25 -195.9 -242.4 -196.9" fill="url(#gradient20)" fill-rule="evenodd" stroke="none"/>
    <path d="M-210.65 -61.0 L-210.75 -62.25 -207.75 -88.15 -204.15 -140.4 -198.9 -182.15 -199.15 -183.0 -199.25 -183.75 -202.25 -193.4 -202.4 -193.75 -202.5 -194.15 -185.4 -194.15 -184.15 -179.0 -189.65 -134.9 -193.9 -76.65 -184.5 -47.75 -204.15 -55.0 -208.25 -58.4 -210.65 -61.0" fill="url(#gradient21)" fill-rule="evenodd" stroke="none"/>
    <path d="M-208.5 -47.5 L-210.65 -61.0 -208.25 -58.4 -207.0 -51.15 -206.9 -51.0 -206.0 -45.75 -208.5 -47.5" fill="url(#gradient22)" fill-rule="evenodd" stroke="none"/>
    <path d="M-190.0 -0.9 L-214.75 -0.9 -209.4 -32.75 -208.5 -47.5 -206.0 -45.75 -205.9 -45.5 -205.0 -40.4 -204.9 -40.0 -187.0 -35.15 -189.75 -22.4 -189.4 -5.25 -190.0 -0.9" fill="url(#gradient23)" fill-rule="evenodd" stroke="none"/>
    <path d="M-151.5 -37.0 L-146.5 -8.25 -147.4 -0.9 -190.0 -0.9 -189.4 -5.25 -189.75 -22.4 -187.0 -35.15 -169.9 -33.4 -158.65 -33.65 Q-155.05 -35.3 -151.5 -37.0" fill="url(#gradient24)" fill-rule="evenodd" stroke="none"/>
    <path d="M-208.25 -58.4 L-204.15 -55.0 -184.5 -47.75 -187.0 -35.15 -204.9 -40.0 -205.0 -40.4 -205.9 -45.5 -206.0 -45.75 -206.9 -51.0 -207.0 -51.15 -208.25 -58.4" fill="url(#gradient25)" fill-rule="evenodd" stroke="none"/>
    <path d="M-183.0 -194.65 L-198.0 -197.4 -180.4 -195.65 -183.0 -194.65" fill="url(#gradient26)" fill-rule="evenodd" stroke="none"/>
    <path d="M-125.4 -171.25 L-126.65 -137.9 -130.15 -107.5 -137.4 -73.5 -143.9 -48.75 -157.15 -46.65 -167.15 -46.5 -184.5 -47.75 -193.9 -76.65 -189.65 -134.9 -184.15 -179.0 -185.4 -194.15 -167.65 -194.15 -151.5 -189.9 -147.5 -187.15 Q-146.25 -183.15 -137.65 -176.4 L-133.9 -177.25 -125.4 -171.25 M-145.25 -177.0 Q-142.9 -177.4 -145.25 -179.75 L-154.25 -187.15 -158.0 -187.5 -154.75 -182.4 -145.25 -177.0" fill="url(#gradient27)" fill-rule="evenodd" stroke="none"/>
    <path d="M-349.5 -142.75 L-348.65 -118.9 -347.5 -100.65 -355.65 -68.9 -357.15 -53.4 -358.25 -47.0 -356.75 -66.9 -354.75 -80.75 -354.0 -89.65 -351.25 -111.65 -351.75 -133.9 -349.5 -142.75" fill="url(#gradient28)" fill-rule="evenodd" stroke="none"/>
    <path d="M-357.15 -53.4 Q-355.65 -54.0 -350.25 -47.75 L-350.4 -45.65 -350.75 -42.25 -356.0 -37.65 -356.65 -37.5 -356.4 -38.0 -356.65 -38.5 -357.65 -40.0 -359.4 -36.25 Q-377.9 -28.75 -400.0 -32.9 L-400.0 -37.15 -390.0 -35.9 -386.5 -36.0 -381.4 -36.15 -375.65 -37.25 -371.65 -37.9 -365.4 -40.75 -363.9 -41.4 -358.75 -43.75 -358.25 -47.0 -357.15 -53.4" fill="url(#gradient29)" fill-rule="evenodd" stroke="none"/>
    <path d="M-350.4 -45.65 L-350.75 -31.25 -351.65 -30.25 -355.15 -27.0 -356.9 -25.9 -357.0 -37.15 -356.65 -37.5 -356.0 -37.65 -350.75 -42.25 -350.4 -45.65 M-400.0 -21.15 L-400.0 -32.9 Q-377.9 -28.75 -359.4 -36.25 L-362.4 -29.5 -367.5 -27.4 -369.4 -21.5 -378.5 -19.9 -393.5 -19.9 -400.0 -21.15" fill="url(#gradient30)" fill-rule="evenodd" stroke="none"/>
    <path d="M-351.65 -30.25 L-350.9 -28.15 -351.0 -14.15 -351.0 -9.0 -351.9 -3.65 -354.65 -0.9 -396.25 -0.9 -392.4 -2.75 -379.75 -10.75 -370.4 -18.25 -369.4 -21.5 -367.5 -27.4 -362.4 -29.5 -359.4 -36.25 -357.65 -40.0 -356.65 -38.5 -356.4 -38.0 -356.65 -37.5 -357.0 -37.15 -356.9 -25.9 -355.15 -27.0 -351.65 -30.25" fill="url(#gradient31)" fill-rule="evenodd" stroke="none"/>
    <path d="M-143.9 -48.75 L-151.5 -37.0 Q-155.05 -35.3 -158.65 -33.65 L-169.9 -33.4 -187.0 -35.15 -184.5 -47.75 -167.15 -46.5 -157.15 -46.65 -143.9 -48.75 M-156.25 -40.25 L-150.75 -42.25 -150.65 -42.65 -154.65 -45.65 -155.5 -45.5 -156.9 -40.25 -156.25 -40.25 M-165.15 -39.65 L-162.25 -39.65 -161.65 -39.75 -161.65 -40.4 -162.65 -44.75 -165.15 -39.65" fill="url(#gradient32)" fill-rule="evenodd" stroke="none"/>
    <path d="M-400.0 -12.0 L-400.0 -21.15 -393.5 -19.9 -378.5 -19.9 -369.4 -21.5 -370.4 -18.25 -379.75 -10.75 -382.9 -9.25 -383.65 -9.25 -386.9 -10.9 -390.5 -11.25 -393.5 -9.4 -395.5 -10.9 -400.0 -12.0" fill="url(#gradient33)" fill-rule="evenodd" stroke="none"/>
    <path d="M-396.25 -0.9 L-400.0 -0.9 -400.0 -12.0 -395.5 -10.9 -393.5 -9.4 -390.5 -11.25 -386.9 -10.9 -383.65 -9.25 -382.9 -9.25 -379.75 -10.75 -392.4 -2.75 -396.25 -0.9" fill="url(#gradient34)" fill-rule="evenodd" stroke="none"/>
    <path d="M-351.0 -14.15 L-350.5 -14.4 -338.9 -10.25 -353.25 -0.9 -354.65 -0.9 -351.9 -3.65 -351.0 -9.0 -351.0 -14.15" fill="url(#gradient35)" fill-rule="evenodd" stroke="none"/>
    <path d="M-338.9 -10.25 L-339.0 -8.75 Q-350.9 0.1 -353.25 -0.9 L-338.9 -10.25" fill="url(#gradient36)" fill-rule="evenodd" stroke="none"/>
    <path d="M-261.65 -300.0 L-256.65 -299.75 -243.9 -300.0 -243.9 -299.5 -243.75 -298.75 -247.25 -267.0 -253.9 -249.65 -254.5 -247.15 -257.5 -239.75 -257.65 -238.75 -258.0 -238.5 -258.15 -237.75 -259.75 -233.4 -260.15 -232.75 -260.0 -232.5 -262.75 -225.0 -263.25 -224.25 -263.15 -224.0 -268.15 -211.0 -266.65 -220.25 -266.9 -220.65 -266.5 -221.25 -264.15 -235.65 -264.25 -235.9 -263.0 -242.25 -263.0 -242.75 -262.9 -243.15 -260.15 -259.4 -260.0 -261.4 -258.75 -267.75 -274.75 -268.75 -275.4 -270.5 -275.4 -270.75 -276.0 -272.0 -275.9 -272.25 -269.5 -276.9 -269.4 -277.15 -268.15 -277.75 -263.5 -282.5 -263.5 -282.65 -262.4 -294.75 -262.15 -295.65 -262.15 -296.0 -262.0 -296.25 -262.0 -297.15 -261.9 -297.5 -261.9 -298.15 -261.75 -298.4 -261.75 -299.25 -261.65 -299.9 -261.65 -300.0" fill="#e40000" fill-opacity="0.9098039" fill-rule="evenodd" stroke="none"/>
    <path d="M-134.0 -26.9 L-134.0 -26.25 -134.15 -25.65 -134.9 -0.9 -147.4 -0.9 -146.65 -7.65 -146.65 -8.25 -149.25 -23.25 -149.25 -23.65 -151.5 -37.0 -143.9 -48.75 -137.5 -73.5 -130.25 -107.25 -130.4 -107.4 -130.25 -108.0 -126.5 -137.75 -126.9 -138.15 -126.75 -138.25 -126.5 -137.75 -125.0 -123.65 -132.15 -69.0 -134.0 -26.9 M-276.25 -0.9 L-309.9 -0.9 -307.9 -10.5 -300.65 -66.9 -297.75 -128.15 -299.25 -162.75 -299.65 -165.15 Q-284.3 -173.55 -269.0 -182.0 L-239.75 -187.0 -246.0 -136.5 -257.5 -85.0 -266.25 -36.25 -276.25 -0.9 M-243.9 -300.0 L-122.5 -300.0 -124.4 -286.15 -124.25 -286.15 -124.15 -282.75 -124.65 -278.15 -124.5 -277.65 -127.0 -259.9 -123.9 -241.25 -123.9 -240.5 -122.0 -227.5 -122.15 -225.9 -133.9 -180.15 -133.75 -179.75 -134.0 -179.5 -134.15 -178.25 -135.5 -173.0 -135.4 -172.65 -135.5 -172.25 -136.75 -168.4 -136.65 -168.15 -136.65 -167.5 -137.15 -166.25 -172.5 -168.0 -191.15 -171.75 -200.25 -172.25 -200.0 -173.75 -200.0 -173.9 -199.9 -174.9 -199.9 -175.25 -199.75 -175.9 -199.75 -176.65 -199.65 -176.9 -199.25 -180.75 -198.9 -182.15 -198.9 -182.25 -199.15 -183.0 -199.25 -183.75 -202.25 -193.4 -202.4 -193.75 -202.5 -194.15 -211.4 -195.15 -212.0 -195.15 -214.75 -195.5 -215.5 -195.75 -215.65 -195.75 -220.15 -197.65 -242.4 -196.9 -247.5 -193.9 -248.0 -193.75 -268.5 -210.0 -268.15 -211.0 -263.15 -224.0 -263.25 -224.25 -262.75 -225.0 -260.0 -232.5 -260.15 -232.75 -259.75 -233.4 -258.15 -237.75 -258.0 -238.5 -257.65 -238.75 -257.5 -239.75 -254.5 -247.15 -253.9 -249.65 -247.25 -267.0 -243.75 -298.75 -243.9 -299.5 -243.9 -300.0" fill="#bc0000" fill-opacity="0.9098039" fill-rule="evenodd" stroke="none"/>
    <path d="M-268.15 -211.0 L-268.5 -210.0 -306.65 -238.65 -315.15 -247.4 -313.5 -248.4 -294.65 -258.4 -276.65 -271.65 -276.65 -271.75 -276.0 -272.0 -275.4 -270.75 -275.4 -270.5 -274.75 -268.75 -258.75 -267.75 -260.0 -261.4 -260.15 -259.4 -262.9 -243.15 -263.0 -242.75 -263.0 -242.25 -264.25 -235.9 -264.15 -235.65 -266.5 -221.25 -266.9 -220.65 -266.65 -220.25 -268.15 -211.0" fill="#da0000" fill-opacity="0.9098039" fill-rule="evenodd" stroke="none"/>
    <path d="M-276.0 -272.0 L-276.65 -271.75 -277.0 -274.9 -275.9 -272.25 -276.0 -272.0" fill="#ec0000" fill-rule="evenodd" stroke="none"/>
    <path d="M-277.5 -276.25 L-273.15 -290.25 -272.15 -300.0 -261.65 -300.0 -261.65 -299.9 -261.75 -299.25 -261.75 -298.4 -261.9 -298.15 -261.9 -297.5 -262.0 -297.15 -262.0 -296.25 -262.15 -296.0 -262.15 -295.65 -262.4 -294.75 -269.4 -277.15 -269.5 -276.9 -275.9 -272.25 -277.0 -274.9 -277.5 -276.25" fill="#f60000" fill-rule="evenodd" stroke="none"/>
    <path d="M-269.4 -277.15 L-262.4 -294.75 -263.5 -282.65 -263.5 -282.5 -268.15 -277.75 -269.4 -277.15" fill="#f40000" fill-rule="evenodd" stroke="none"/>
    <path d="M-321.25 -253.75 L-277.5 -276.25 -277.0 -274.9 -276.65 -271.75 -276.65 -271.65 -294.65 -258.4 -313.5 -248.4 -320.65 -253.15 -321.25 -253.75" fill="#ea0000" fill-rule="evenodd" stroke="none"/>
    <path d="M-400.0 -204.65 L-400.0 -228.75 -321.25 -253.75 -320.65 -253.15 -315.15 -247.4 -324.65 -242.25 -324.9 -242.15 -325.5 -241.75 -326.0 -241.65 -326.25 -241.65 -337.15 -238.9 -351.0 -231.4 -392.0 -212.15 -400.0 -204.65 M-348.65 -125.25 L-349.65 -142.65 -349.4 -143.75 -349.65 -144.0 -349.65 -144.15 -350.4 -147.4 -346.5 -148.15 -346.4 -148.15 -339.4 -149.4 -348.65 -125.25" fill="#ef0000" fill-rule="evenodd" stroke="none"/>
    <path d="M-306.75 -238.25 L-307.25 -236.9 -307.75 -236.0 -307.65 -235.75 -334.75 -161.65 -335.25 -161.15 -335.25 -160.4 -338.9 -150.5 -339.15 -150.25 -339.4 -149.4 -346.4 -148.15 -346.5 -148.15 -350.4 -147.4 -349.65 -144.15 -349.65 -144.0 -349.4 -143.75 -349.65 -142.65 -348.65 -125.25 -348.75 -124.25 -349.4 -123.25 -349.5 -122.4 -350.0 -121.65 -350.15 -120.65 -351.25 -118.4 -351.5 -117.0 -352.5 -115.15 -352.5 -114.5 -357.75 -101.5 -357.75 -100.65 -361.15 -80.4 -361.0 -79.5 -363.15 -65.25 -363.65 -54.75 -363.5 -53.0 -364.0 -41.9 -364.15 -41.65 -364.0 -41.65 -364.0 -41.4 -364.15 -41.15 -364.0 -39.9 -364.25 -32.15 -364.4 -31.9 -364.5 -31.4 -364.4 -29.25 -364.5 -28.9 -364.65 -23.9 -364.15 -23.0 -364.15 -22.25 -363.0 -19.5 -362.75 -19.25 -362.65 -18.9 -362.75 -18.65 -361.5 -15.75 -361.4 -15.25 -361.15 -15.0 -360.9 -14.25 -360.0 -12.4 -359.9 -11.15 -359.9 -11.0 -359.5 -10.9 -359.15 -9.4 -357.9 -6.65 -357.75 -6.15 -357.5 -5.9 -357.25 -4.5 -357.0 -4.25 -357.0 -3.9 -356.75 -3.5 -356.4 -2.5 -356.25 -2.25 -356.25 -1.9 -355.9 -0.9 -374.25 -0.9 -376.5 -1.75 -376.5 -1.9 -378.9 -2.65 -379.75 -3.0 -380.0 -3.15 -398.4 -10.25 -398.9 -10.4 -400.0 -10.9 -399.9 -57.9 -400.0 -58.75 -399.9 -86.0 -400.0 -86.65 -400.0 -136.0 -399.9 -137.15 -400.0 -204.65 -392.0 -212.15 -351.0 -231.4 -337.15 -238.9 -326.25 -241.65 -326.0 -241.65 -325.5 -241.75 -324.9 -242.15 -324.65 -242.25 -315.15 -247.4 -306.65 -238.65 -306.75 -238.25" fill="#df0000" fill-opacity="0.9098039" fill-rule="evenodd" stroke="none"/>
    <path d="M-313.5 -248.4 L-315.15 -247.4 -320.65 -253.15 -313.5 -248.4" fill="#e90000" fill-rule="evenodd" stroke="none"/>
    <path d="M-122.5 -300.0 L-111.65 -300.0 -110.65 -294.25 -113.9 -271.65 -114.5 -282.0 -114.9 -282.15 -114.9 -268.0 -115.9 -256.5 -116.0 -255.75 -116.0 -255.25 -116.15 -254.75 -116.9 -247.4 -122.0 -227.5 -123.9 -240.5 -123.9 -241.25 -127.0 -259.9 -124.5 -277.65 -124.65 -278.15 -124.15 -282.75 -124.25 -286.15 -124.4 -286.15 -122.5 -300.0" fill="#d20000" fill-rule="evenodd" stroke="none"/>
    <path d="M-113.9 -271.65 L-114.0 -268.15 -115.9 -256.5 -115.75 -255.9 -116.0 -255.75 -115.9 -256.5 -114.9 -268.0 -114.9 -282.15 -114.5 -282.0 -113.9 -271.65 M-116.15 -254.75 L-116.0 -255.25 -115.9 -254.9 -116.15 -254.75" fill="#d10000" fill-rule="evenodd" stroke="none"/>
    <path d="M-114.0 -268.15 L-113.4 -245.0 -114.0 -245.25 -114.0 -244.9 -114.15 -244.5 -114.15 -244.15 -114.25 -244.15 -114.65 -242.4 -121.25 -220.65 -122.15 -225.9 -122.0 -227.5 -116.9 -247.4 -116.15 -254.75 -115.9 -254.9 -116.0 -255.25 -116.0 -255.75 -115.75 -255.9 -115.9 -256.5 -114.0 -268.15 M-199.25 -180.75 L-199.65 -176.9 -199.75 -176.65 -199.75 -175.9 -199.9 -175.25 -199.9 -174.9 -200.0 -173.9 -200.0 -173.75 -200.25 -172.25 -222.9 -174.15 -239.0 -186.9 -219.0 -182.9 -199.25 -180.75" fill="#cd0000" fill-rule="evenodd" stroke="none"/>
    <path d="M-147.4 -0.9 L-214.75 -0.9 -214.65 -2.0 -214.5 -2.25 -214.5 -2.65 -214.4 -2.9 -214.4 -3.15 -210.65 -25.9 -210.65 -26.0 -210.4 -27.5 -210.4 -27.9 -210.25 -28.25 -210.25 -28.75 -210.15 -29.0 -209.4 -32.75 -208.5 -47.5 -210.65 -60.4 -210.75 -62.25 -208.15 -83.65 -208.15 -84.5 -205.9 -114.15 -205.9 -114.25 -205.75 -115.9 -205.5 -119.4 -205.4 -122.25 -205.25 -122.9 -205.25 -124.25 -205.15 -124.65 -205.15 -126.25 -202.5 -152.9 -202.5 -153.15 -202.4 -154.0 -202.4 -154.5 -202.25 -155.0 -202.25 -155.9 -202.15 -156.15 -200.25 -172.25 -191.15 -171.75 -172.5 -168.0 -137.15 -166.25 -135.5 -166.25 -125.5 -167.15 -126.75 -138.25 -126.9 -138.15 -126.5 -137.75 -130.25 -108.0 -130.4 -107.4 -130.25 -107.25 -137.5 -73.5 -143.9 -48.75 -151.5 -37.0 -149.25 -23.65 -149.25 -23.25 -146.65 -8.25 -146.65 -7.65 -147.4 -0.9 M-299.65 -165.15 L-300.15 -169.65 -300.0 -169.9 -300.4 -172.75 -300.25 -173.0 -300.75 -176.9 -300.65 -177.15 -301.5 -183.0 -301.25 -183.4 -304.65 -218.15 -304.75 -218.5 -306.65 -237.25 -306.5 -237.75 -306.75 -238.25 -306.65 -238.65 -268.5 -210.0 -248.0 -193.75 -269.0 -182.0 Q-284.3 -173.55 -299.65 -165.15 M-339.4 -149.4 L-324.5 -153.65 -331.9 -145.0 -345.15 -83.65 -347.4 -45.5 -341.25 -15.4 -351.0 -15.5 -351.0 -16.15 -351.15 -17.75 -351.0 -21.25 -350.9 -21.5 -351.0 -27.25 -350.75 -28.15 -351.15 -28.5 -351.65 -29.5 -351.65 -30.15 -350.75 -31.25 -350.4 -39.25 -350.5 -39.4 -350.4 -41.9 -350.5 -42.0 -350.5 -44.65 -350.25 -47.25 -350.4 -47.75 -355.0 -52.25 -357.15 -53.4 -357.15 -54.75 -355.9 -66.15 -356.0 -67.25 -351.75 -84.65 -351.75 -84.75 -351.5 -85.5 -347.75 -101.15 -347.75 -101.75 -347.9 -102.0 -348.75 -124.25 -348.65 -125.25 -339.4 -149.4" fill="#ab0000" fill-opacity="0.9098039" fill-rule="evenodd" stroke="none"/>
    <path d="M-113.4 -245.0 L-113.25 -244.0 -114.4 -239.4 -114.15 -244.15 -114.15 -244.5 -114.0 -244.9 -114.0 -245.25 -113.4 -245.0" fill="#e40000" fill-rule="evenodd" stroke="none"/>
    <path d="M-114.4 -239.4 L-115.15 -234.65 -115.0 -234.4 -115.25 -234.15 -115.15 -233.25 -122.65 -167.4 -124.9 -167.15 -125.5 -167.15 -125.65 -171.25 -122.25 -191.5 -119.5 -202.9 -119.65 -203.15 -120.4 -212.65 -120.65 -214.25 -114.5 -242.15 -114.65 -242.4 -114.25 -244.15 -114.15 -244.15 -114.4 -239.4" fill="#b60000" fill-rule="evenodd" stroke="none"/>
    <path d="M-121.4 -219.4 L-121.25 -220.65 -114.65 -242.4 -114.5 -242.15 -120.65 -214.25 -121.4 -219.4" fill="#b90000" fill-rule="evenodd" stroke="none"/>
    <path d="M-121.25 -220.65 L-121.4 -219.4 -125.15 -207.65 -125.0 -207.4 -133.25 -179.4 -133.9 -178.0 -134.0 -177.15 -135.25 -173.0 -135.4 -172.65 -135.5 -173.0 -134.15 -178.25 -134.0 -179.5 -133.75 -179.75 -133.9 -180.15 -122.15 -225.9 -121.25 -220.65 M-135.5 -172.25 L-135.4 -172.65 -135.25 -172.4 -135.5 -172.25" fill="#b70000" fill-opacity="0.9098039" fill-rule="evenodd" stroke="none"/>
    <path d="M-240.15 -187.5 L-239.75 -187.0 -269.0 -182.0 -248.0 -193.75 -245.4 -192.0 -245.15 -191.65 -244.75 -191.5 -240.65 -187.9 -240.25 -187.75 -240.15 -187.5" fill="#ba0000" fill-rule="evenodd" stroke="none"/>
    <path d="M-214.75 -0.9 L-276.25 -0.9 -266.25 -36.25 -257.5 -85.0 -246.0 -136.5 -239.75 -187.0 -240.15 -187.5 -239.4 -187.0 -239.0 -186.9 -222.9 -174.15 -200.25 -172.25 -202.15 -156.15 -202.25 -155.9 -202.25 -155.0 -202.4 -154.5 -202.4 -154.0 -202.5 -153.15 -202.5 -152.9 -205.15 -126.25 -205.15 -124.65 -205.25 -124.25 -205.25 -122.9 -205.4 -122.25 -205.5 -119.4 -205.75 -115.9 -205.9 -114.25 -205.9 -114.15 -208.15 -84.5 -208.15 -83.65 -210.75 -62.25 -210.65 -60.4 -208.5 -47.5 -209.4 -32.75 -210.15 -29.0 -210.25 -28.75 -210.25 -28.25 -210.4 -27.9 -210.4 -27.5 -210.65 -26.0 -210.65 -25.9 -214.4 -3.15 -214.4 -2.9 -214.5 -2.65 -214.5 -2.25 -214.65 -2.0 -214.75 -0.9" fill="#bb0000" fill-rule="evenodd" stroke="none"/>
    <path d="M-247.5 -193.9 L-242.4 -196.9 -220.15 -197.65 -215.65 -195.75 -215.5 -195.75 -214.75 -195.5 -212.0 -195.15 -211.4 -195.15 -202.5 -194.15 -202.4 -193.75 -202.25 -193.4 -199.25 -183.75 -199.15 -183.0 -198.9 -182.25 -198.9 -182.15 -199.25 -180.75 -219.0 -182.9 -239.0 -186.9 -239.4 -187.0 -240.15 -187.5 -240.25 -187.75 -240.65 -187.9 -244.75 -191.5 -245.15 -191.65 -245.4 -192.0 -247.5 -193.9" fill="#cc0000" fill-rule="evenodd" stroke="none"/>
    <path d="M-248.0 -193.75 L-247.5 -193.9 -245.4 -192.0 -248.0 -193.75" fill="#cb0000" fill-rule="evenodd" stroke="none"/>
    <path d="M-122.65 -167.4 L-122.25 -120.5 -129.75 -65.9 -134.0 -26.9 -132.15 -69.0 -125.0 -123.65 -126.5 -137.75 -126.75 -138.25 -125.5 -167.15 -124.9 -167.15 -122.65 -167.4 M-134.0 -26.25 L-133.9 -25.75 -134.15 -25.65 -134.0 -26.25" fill="#bd0000" fill-rule="evenodd" stroke="none"/>
    <path d="M-135.4 -172.65 L-135.25 -173.0 -134.0 -177.15 -133.9 -178.0 -133.25 -179.4 -125.0 -207.4 -125.15 -207.65 -121.4 -219.4 -120.65 -214.25 -120.4 -212.65 -119.65 -203.15 -119.5 -202.9 -122.25 -191.5 -125.65 -171.25 -125.5 -167.15 -135.5 -166.25 -137.15 -166.25 -136.65 -167.5 -136.65 -168.15 -136.75 -168.4 -135.5 -172.25 -135.25 -172.4 -135.4 -172.65" fill="#a30000" fill-opacity="0.9098039" fill-rule="evenodd" stroke="none"/>
  </g>
  <defs>
    <radialGradient cx="0" cy="0" gradientTransform="matrix(0.1254, 0.0, 0.0, 0.1254, -196.6, -290.95)" gradientUnits="userSpaceOnUse" id="gradient0" r="819.2" spreadMethod="pad">
      <stop offset="0.0" stop-color="#838383"/>
      <stop offset="1.0" stop-color="#000000"/>
    </radialGradient>
    <radialGradient cx="0" cy="0" gradientTransform="matrix(0.0472, 0.0, 0.0, 0.0472, -126.8, -261.4)" gradientUnits="userSpaceOnUse" id="gradient1" r="819.2" spreadMethod="pad">
      <stop offset="0.0" stop-color="#131313"/>
      <stop offset="1.0" stop-color="#030303"/>
    </radialGradient>
    <radialGradient cx="0" cy="0" gradientTransform="matrix(0.0246, 0.0, 0.0, 0.0246, -126.8, -261.4)" gradientUnits="userSpaceOnUse" id="gradient2" r="819.2" spreadMethod="pad">
      <stop offset="0.0" stop-color="#131313"/>
      <stop offset="1.0" stop-color="#0b0b0b"/>
    </radialGradient>
    <radialGradient cx="0" cy="0" gradientTransform="matrix(0.0652, 0.0, 0.0, 0.0652, -128.0, -209.8)" gradientUnits="userSpaceOnUse" id="gradient3" r="819.2" spreadMethod="pad">
      <stop offset="0.0" stop-color="#000000"/>
      <stop offset="1.0" stop-color="#000000"/>
    </radialGradient>
    <radialGradient cx="0" cy="0" gradientTransform="matrix(0.08, 0.0, 0.0, 0.08, -202.5, -194.2)" gradientUnits="userSpaceOnUse" id="gradient4" r="819.2" spreadMethod="pad">
      <stop offset="0.0" stop-color="#494949"/>
      <stop offset="1.0" stop-color="#171717"/>
    </radialGradient>
    <radialGradient cx="0" cy="0" gradientTransform="matrix(0.0836, 0.0, 0.0, 0.0836, -286.75, -201.15)" gradientUnits="userSpaceOnUse" id="gradient5" r="819.2" spreadMethod="pad">
      <stop offset="0.0" stop-color="#7f7f7f"/>
      <stop offset="1.0" stop-color="#000000"/>
    </radialGradient>
    <radialGradient cx="0" cy="0" gradientTransform="matrix(0.0847, 0.0, 0.0, 0.0847, -257.1, -230.45)" gradientUnits="userSpaceOnUse" id="gradient6" r="819.2" spreadMethod="pad">
      <stop offset="0.0" stop-color="#464646"/>
      <stop offset="1.0" stop-color="#010101"/>
    </radialGradient>
    <radialGradient cx="0" cy="0" gradientTransform="matrix(0.0654, 0.0, 0.0, 0.0654, -289.35, -208.8)" gradientUnits="userSpaceOnUse" id="gradient7" r="819.2" spreadMethod="pad">
      <stop offset="0.0" stop-color="#737373"/>
      <stop offset="1.0" stop-color="#1a1a1a"/>
    </radialGradient>
    <radialGradient cx="0" cy="0" gradientTransform="matrix(0.0851, 0.0, 0.0, 0.0851, -260.55, -300.0)" gradientUnits="userSpaceOnUse" id="gradient8" r="819.2" spreadMethod="pad">
      <stop offset="0.0" stop-color="#616161"/>
      <stop offset="1.0" stop-color="#454545"/>
    </radialGradient>
    <radialGradient cx="0" cy="0" gradientTransform="matrix(0.0326, 0.0, 0.0, 0.0326, -241.55, -234.9)" gradientUnits="userSpaceOnUse" id="gradient9" r="819.2" spreadMethod="pad">
      <stop offset="0.0" stop-color="#000000"/>
      <stop offset="1.0" stop-color="#000000"/>
    </radialGradient>
    <radialGradient cx="0" cy="0" gradientTransform="matrix(0.048, 0.0, 0.0, 0.048, -262.25, -283.75)" gradientUnits="userSpaceOnUse" id="gradient10" r="819.2" spreadMethod="pad">
      <stop offset="0.0" stop-color="#454545"/>
      <stop offset="1.0" stop-color="#020202"/>
    </radialGradient>
    <radialGradient cx="0" cy="0" gradientTransform="matrix(0.1015, 0.0, 0.0, 0.1015, -314.8, -228.3)" gradientUnits="userSpaceOnUse" id="gradient11" r="819.2" spreadMethod="pad">
      <stop offset="0.0" stop-color="#0e0e0e"/>
      <stop offset="1.0" stop-color="#000000"/>
    </radialGradient>
    <radialGradient cx="0" cy="0" gradientTransform="matrix(0.0158, 0.0, 0.0, 0.0158, -400.0, -202.15)" gradientUnits="userSpaceOnUse" id="gradient12" r="819.2" spreadMethod="pad">
      <stop offset="0.0" stop-color="#0a0a0a"/>
      <stop offset="1.0" stop-color="#000000"/>
    </radialGradient>
    <radialGradient cx="0" cy="0" gradientTransform="matrix(0.1506, 0.0, 0.0, 0.1506, -286.75, -201.15)" gradientUnits="userSpaceOnUse" id="gradient13" r="819.2" spreadMethod="pad">
      <stop offset="0.0" stop-color="#7f7f7f"/>
      <stop offset="1.0" stop-color="#2d2d2d"/>
    </radialGradient>
    <radialGradient cx="0" cy="0" gradientTransform="matrix(0.0452, 0.0, 0.0, 0.0452, -257.1, -230.45)" gradientUnits="userSpaceOnUse" id="gradient14" r="819.2" spreadMethod="pad">
      <stop offset="0.0" stop-color="#464646"/>
      <stop offset="1.0" stop-color="#000000"/>
    </radialGradient>
    <radialGradient cx="0" cy="0" gradientTransform="matrix(0.2171, 0.0, 0.0, 0.2171, -150.5, -216.6)" gradientUnits="userSpaceOnUse" id="gradient15" r="819.2" spreadMethod="pad">
      <stop offset="0.0" stop-color="#666666"/>
      <stop offset="1.0" stop-color="#0c0c0c"/>
    </radialGradient>
    <radialGradient cx="0" cy="0" gradientTransform="matrix(0.0972, 0.0, 0.0, 0.0972, -400.0, -183.65)" gradientUnits="userSpaceOnUse" id="gradient16" r="819.2" spreadMethod="pad">
      <stop offset="0.0" stop-color="#090909"/>
      <stop offset="1.0" stop-color="#010101"/>
    </radialGradient>
    <radialGradient cx="0" cy="0" gradientTransform="matrix(0.1552, 0.0, 0.0, 0.1552, -378.0, -159.6)" gradientUnits="userSpaceOnUse" id="gradient17" r="819.2" spreadMethod="pad">
      <stop offset="0.0" stop-color="#292929"/>
      <stop offset="1.0" stop-color="#040404"/>
    </radialGradient>
    <radialGradient cx="0" cy="0" gradientTransform="matrix(0.2007, 0.0, 0.0, 0.2007, -380.35, -183.75)" gradientUnits="userSpaceOnUse" id="gradient18" r="819.2" spreadMethod="pad">
      <stop offset="0.0" stop-color="#2e2e2e"/>
      <stop offset="1.0" stop-color="#020202"/>
    </radialGradient>
    <radialGradient cx="0" cy="0" gradientTransform="matrix(0.0127, 0.0, 0.0, 0.0127, -214.9, -195.55)" gradientUnits="userSpaceOnUse" id="gradient19" r="819.2" spreadMethod="pad">
      <stop offset="0.0" stop-color="#000000"/>
      <stop offset="1.0" stop-color="#000000"/>
    </radialGradient>
    <radialGradient cx="0" cy="0" gradientTransform="matrix(0.1917, 0.0, 0.0, 0.1917, -381.45, -148.75)" gradientUnits="userSpaceOnUse" id="gradient20" r="819.2" spreadMethod="pad">
      <stop offset="0.0" stop-color="#565656"/>
      <stop offset="1.0" stop-color="#000000"/>
    </radialGradient>
    <radialGradient cx="0" cy="0" gradientTransform="matrix(0.1624, 0.0, 0.0, 0.1624, -193.55, -180.55)" gradientUnits="userSpaceOnUse" id="gradient21" r="819.2" spreadMethod="pad">
      <stop offset="0.0" stop-color="#575757"/>
      <stop offset="1.0" stop-color="#151515"/>
    </radialGradient>
    <radialGradient cx="0" cy="0" gradientTransform="matrix(0.0222, 0.0, 0.0, 0.0222, -204.45, -44.4)" gradientUnits="userSpaceOnUse" id="gradient22" r="819.2" spreadMethod="pad">
      <stop offset="0.0" stop-color="#040404"/>
      <stop offset="1.0" stop-color="#020202"/>
    </radialGradient>
    <radialGradient cx="0" cy="0" gradientTransform="matrix(0.0511, 0.0, 0.0, 0.0511, -204.85, -40.2)" gradientUnits="userSpaceOnUse" id="gradient23" r="819.2" spreadMethod="pad">
      <stop offset="0.0" stop-color="#383838"/>
      <stop offset="1.0" stop-color="#000000"/>
    </radialGradient>
    <radialGradient cx="0" cy="0" gradientTransform="matrix(0.0636, 0.0, 0.0, 0.0636, -186.85, -35.15)" gradientUnits="userSpaceOnUse" id="gradient24" r="819.2" spreadMethod="pad">
      <stop offset="0.0" stop-color="#1c1c1c"/>
      <stop offset="1.0" stop-color="#000000"/>
    </radialGradient>
    <radialGradient cx="0" cy="0" gradientTransform="matrix(0.0323, 0.0, 0.0, 0.0323, -204.15, -55.15)" gradientUnits="userSpaceOnUse" id="gradient25" r="819.2" spreadMethod="pad">
      <stop offset="0.0" stop-color="#4d4d4d"/>
      <stop offset="1.0" stop-color="#2e2e2e"/>
    </radialGradient>
    <radialGradient cx="0" cy="0" gradientTransform="matrix(0.0235, 0.0, 0.0, 0.0235, -199.6, -197.8)" gradientUnits="userSpaceOnUse" id="gradient26" r="819.2" spreadMethod="pad">
      <stop offset="0.0" stop-color="#000000"/>
      <stop offset="1.0" stop-color="#000000"/>
    </radialGradient>
    <radialGradient cx="0" cy="0" gradientTransform="matrix(0.1289, 0.0, 0.0, 0.1289, -151.0, -148.05)" gradientUnits="userSpaceOnUse" id="gradient27" r="819.2" spreadMethod="pad">
      <stop offset="0.0" stop-color="#494949"/>
      <stop offset="1.0" stop-color="#131313"/>
    </radialGradient>
    <radialGradient cx="0" cy="0" gradientTransform="matrix(0.1004, 0.0, 0.0, 0.1004, -348.55, -118.1)" gradientUnits="userSpaceOnUse" id="gradient28" r="819.2" spreadMethod="pad">
      <stop offset="0.0" stop-color="#424242"/>
      <stop offset="1.0" stop-color="#000000"/>
    </radialGradient>
    <radialGradient cx="0" cy="0" gradientTransform="matrix(0.0601, 0.0, 0.0, 0.0601, -354.85, -52.45)" gradientUnits="userSpaceOnUse" id="gradient29" r="819.2" spreadMethod="pad">
      <stop offset="0.0" stop-color="#212121"/>
      <stop offset="1.0" stop-color="#212121"/>
    </radialGradient>
    <radialGradient cx="0" cy="0" gradientTransform="matrix(0.0557, 0.0, 0.0, 0.0557, -393.1, -31.7)" gradientUnits="userSpaceOnUse" id="gradient30" r="819.2" spreadMethod="pad">
      <stop offset="0.0" stop-color="#b5b5b5"/>
      <stop offset="1.0" stop-color="#545454"/>
    </radialGradient>
    <radialGradient cx="0" cy="0" gradientTransform="matrix(0.0679, 0.0, 0.0, 0.0679, -394.55, -1.0)" gradientUnits="userSpaceOnUse" id="gradient31" r="819.2" spreadMethod="pad">
      <stop offset="0.0" stop-color="#ababab"/>
      <stop offset="1.0" stop-color="#2a2a2a"/>
    </radialGradient>
    <radialGradient cx="0" cy="0" gradientTransform="matrix(0.0495, 0.0, 0.0, 0.0495, -184.4, -47.9)" gradientUnits="userSpaceOnUse" id="gradient32" r="819.2" spreadMethod="pad">
      <stop offset="0.0" stop-color="#393939"/>
      <stop offset="1.0" stop-color="#000000"/>
    </radialGradient>
    <radialGradient cx="0" cy="0" gradientTransform="matrix(0.047, 0.0, 0.0, 0.047, -400.0, -9.5)" gradientUnits="userSpaceOnUse" id="gradient33" r="819.2" spreadMethod="pad">
      <stop offset="0.0" stop-color="#1f1f1f"/>
      <stop offset="1.0" stop-color="#000000"/>
    </radialGradient>
    <radialGradient cx="0" cy="0" gradientTransform="matrix(0.0315, 0.0, 0.0, 0.0315, -400.0, -1.0)" gradientUnits="userSpaceOnUse" id="gradient34" r="819.2" spreadMethod="pad">
      <stop offset="0.0" stop-color="#1e1e1e"/>
      <stop offset="1.0" stop-color="#070707"/>
    </radialGradient>
    <radialGradient cx="0" cy="0" gradientTransform="matrix(0.0422, 0.0, 0.0, 0.0422, -338.8, -10.45)" gradientUnits="userSpaceOnUse" id="gradient35" r="819.2" spreadMethod="pad">
      <stop offset="0.0" stop-color="#717171"/>
      <stop offset="1.0" stop-color="#707070"/>
    </radialGradient>
    <radialGradient cx="0" cy="0" gradientTransform="matrix(0.019, 0.0, 0.0, 0.019, -351.15, -1.0)" gradientUnits="userSpaceOnUse" id="gradient36" r="819.2" spreadMethod="pad">
      <stop offset="0.0" stop-color="#121212"/>
      <stop offset="1.0" stop-color="#121212"/>
    </radialGradient>
  </defs>
</svg>
