<?xml version="1.0" encoding="UTF-8" standalone="no"?>
<svg xmlns:xlink="http://www.w3.org/1999/xlink" height="299.1px" width="290.25px" xmlns="http://www.w3.org/2000/svg">
  <g transform="matrix(1.0, 0.0, 0.0, 1.0, 400.0, 300.0)">
    <path d="M-262.5 -268.25 L-259.15 -300.0 -230.4 -300.0 -233.9 -267.65 -252.65 -216.65 -252.75 -217.5 -252.75 -218.15 -252.0 -221.4 -244.75 -268.65 -259.4 -269.75 -262.5 -268.25" fill="url(#gradient0)" fill-rule="evenodd" stroke="none"/>
    <path d="M-230.4 -300.0 L-121.0 -300.0 -120.25 -294.0 -125.9 -251.65 -127.15 -246.5 -141.9 -189.4 -170.5 -191.5 -183.9 -198.25 -185.0 -198.5 -197.4 -195.75 -211.65 -197.15 -252.65 -214.9 -252.9 -215.0 -253.15 -215.15 -253.15 -215.4 -253.0 -216.15 -252.65 -216.65 -233.9 -267.65 -230.4 -300.0" fill="url(#gradient1)" fill-rule="evenodd" stroke="none"/>
    <path d="M-252.65 -216.65 L-253.0 -216.15 -263.15 -225.0 -255.15 -231.5 -254.9 -230.65 -255.15 -227.65 -253.15 -219.4 -253.15 -219.25 -253.0 -218.75 -253.0 -218.5 -252.9 -218.15 -252.75 -217.5 -252.65 -216.65 M-242.25 -197.75 L-243.5 -197.65 -257.25 -203.15 -251.65 -213.65 -251.15 -213.15 -248.15 -205.65 -242.25 -197.75" fill="url(#gradient2)" fill-rule="evenodd" stroke="none"/>
    <path d="M-327.4 -229.65 L-294.4 -246.0 -262.5 -268.25 -259.4 -269.75 -244.75 -268.65 -252.0 -221.4 -252.75 -218.15 -253.0 -218.5 -253.0 -218.75 -253.15 -219.25 -253.15 -219.4 -254.9 -230.65 -255.15 -231.5 -263.15 -225.0 -253.0 -216.15 -253.15 -215.4 -253.15 -215.15 -314.5 -214.4 -314.75 -214.5 -326.25 -227.9 -327.4 -229.65 M-252.75 -218.15 L-252.75 -217.5 -252.9 -218.15 -252.75 -218.15" fill="url(#gradient3)" fill-rule="evenodd" stroke="none"/>
    <path d="M-400.0 -197.4 L-399.75 -200.65 -354.9 -219.75 -340.0 -226.75 -327.4 -229.65 -326.25 -227.9 -314.75 -214.5 -343.75 -222.15 -358.15 -211.25 -400.0 -197.4" fill="url(#gradient4)" fill-rule="evenodd" stroke="none"/>
    <path d="M-399.9 -153.0 L-400.0 -197.4 -358.15 -211.25 -343.75 -222.15 -314.75 -214.5 -314.5 -214.4 -285.4 -186.75 -276.75 -183.4 -338.0 -146.5 -361.9 -139.25 -383.4 -135.9 -385.4 -136.75 -389.0 -140.75 -397.5 -146.65 -398.15 -149.25 -399.9 -153.0" fill="url(#gradient5)" fill-rule="evenodd" stroke="none"/>
    <path d="M-127.15 -246.5 L-124.65 -230.75 -120.25 -191.4 -123.15 -178.75 -126.15 -159.25 -133.9 -164.75 -134.15 -168.15 -132.4 -180.4 -134.15 -184.65 -141.75 -183.15 -142.65 -182.4 -143.25 -177.65 -146.25 -173.9 -150.0 -176.5 -148.0 -183.0 -141.9 -189.4 -127.15 -246.5 M-131.5 -201.15 L-137.15 -201.75 -137.15 -200.15 -132.15 -200.0 -131.5 -201.15" fill="url(#gradient6)" fill-rule="evenodd" stroke="none"/>
    <path d="M-202.5 -181.15 L-214.25 -182.4 -214.4 -182.4 -216.15 -183.75 -222.9 -186.15 -225.5 -191.0 -249.75 -212.15 -250.25 -212.75 -251.65 -213.65 -251.75 -214.0 -252.65 -214.9 -211.65 -197.15 -197.4 -195.75 -185.0 -198.5 -183.9 -198.25 -170.5 -191.5 -141.9 -189.4 -148.0 -183.0 -150.0 -176.5 -166.15 -180.75 -183.9 -180.75 -202.5 -181.15 M-178.4 -181.75 L-179.5 -182.0 -194.75 -183.25 -180.9 -181.15 -178.4 -181.75" fill="url(#gradient7)" fill-rule="evenodd" stroke="none"/>
    <path d="M-217.4 -183.65 L-244.65 -182.5 -268.4 -181.5 -276.75 -183.4 -285.4 -186.75 -314.5 -214.4 -253.15 -215.15 -252.9 -215.0 -252.65 -214.9 -251.75 -214.0 -251.65 -213.65 -257.25 -203.15 -243.5 -197.65 -242.25 -197.75 -250.75 -212.75 -250.25 -212.75 -249.75 -212.15 -226.9 -190.65 -225.5 -191.0 -222.9 -186.15 -216.15 -183.75 -217.4 -183.65" fill="url(#gradient8)" fill-rule="evenodd" stroke="none"/>
    <path d="M-250.75 -212.75 L-242.25 -197.75 -248.15 -205.65 -251.15 -213.15 -250.75 -212.75 M-253.15 -219.4 L-255.15 -227.65 -254.9 -230.65 -253.15 -219.4 M-253.0 -218.5 L-252.75 -218.15 -252.9 -218.15 -253.0 -218.5" fill="url(#gradient9)" fill-rule="evenodd" stroke="none"/>
    <path d="M-225.5 -191.0 L-226.9 -190.65 -249.75 -212.15 -225.5 -191.0 M-250.25 -212.75 L-250.75 -212.75 -251.15 -213.15 -251.65 -213.65 -250.25 -212.75" fill="url(#gradient10)" fill-rule="evenodd" stroke="none"/>
    <path d="M-131.5 -201.15 L-132.15 -200.0 -137.15 -200.15 -137.15 -201.75 -131.5 -201.15 M-146.25 -173.9 L-143.25 -177.65 -142.65 -182.4 -141.75 -183.15 -134.15 -184.65 -132.4 -180.4 -134.15 -168.15 -133.9 -164.75 -137.0 -163.65 Q-144.9 -169.9 -146.25 -173.9 M-144.15 -164.0 L-153.15 -169.0 -156.65 -174.25 -152.65 -173.75 -144.4 -166.9 Q-141.9 -164.5 -144.15 -164.0 M-155.15 -33.9 L-154.15 -34.15 Q-150.9 -32.25 -150.9 -31.4 L-155.4 -28.9 -156.25 -28.9 -155.15 -33.9 M-161.5 -32.75 L-161.25 -32.15 -160.65 -28.25 -162.15 -27.75 -164.0 -27.9 -161.65 -32.4 -161.5 -32.75" fill="url(#gradient11)" fill-rule="evenodd" stroke="none"/>
    <path d="M-214.4 -182.4 L-217.4 -183.65 -216.15 -183.75 -214.4 -182.4" fill="url(#gradient12)" fill-rule="evenodd" stroke="none"/>
    <path d="M-244.65 -182.5 L-318.4 -143.25 -349.9 -134.9 -356.15 -133.9 -365.9 -132.4 -369.5 -133.5 -383.4 -135.9 -361.9 -139.25 -338.0 -146.5 -276.75 -183.4 -268.4 -181.5 -244.65 -182.5" fill="url(#gradient13)" fill-rule="evenodd" stroke="none"/>
    <path d="M-211.5 -49.25 L-208.5 -74.65 -205.15 -128.4 -200.15 -169.75 -200.5 -174.25 -200.5 -174.75 -200.65 -175.0 -202.5 -181.15 -183.9 -180.75 -182.9 -165.0 -188.4 -121.9 -192.25 -63.0 -183.0 -35.4 -203.4 -42.4 -208.25 -46.15 -211.5 -49.25" fill="url(#gradient14)" fill-rule="evenodd" stroke="none"/>
    <path d="M-209.25 -35.9 L-211.5 -49.25 -208.25 -46.15 -205.4 -33.15 -209.25 -35.9" fill="url(#gradient15)" fill-rule="evenodd" stroke="none"/>
    <path d="M-187.75 -0.9 L-213.65 -0.9 -210.15 -21.75 -209.25 -35.9 -205.4 -33.15 -205.25 -32.9 -204.9 -30.9 -204.65 -30.15 -204.25 -28.25 -203.9 -27.5 -185.5 -22.65 -188.25 -9.75 -187.75 -0.9" fill="url(#gradient16)" fill-rule="evenodd" stroke="none"/>
    <path d="M-152.15 -26.5 L-147.25 -0.9 -187.75 -0.9 -188.25 -9.75 -185.5 -22.65 -169.5 -21.5 -158.5 -22.15 -157.65 -22.4 -152.15 -26.5" fill="url(#gradient17)" fill-rule="evenodd" stroke="none"/>
    <path d="M-183.0 -35.4 L-182.9 -35.15 -185.5 -22.65 -203.9 -27.5 -204.25 -28.25 -204.65 -30.15 -204.9 -30.9 -205.25 -32.9 -205.4 -33.15 -208.25 -46.15 -203.4 -42.4 -183.0 -35.4" fill="url(#gradient18)" fill-rule="evenodd" stroke="none"/>
    <path d="M-178.4 -181.75 L-180.9 -181.15 -194.75 -183.25 -179.5 -182.0 -178.4 -181.75" fill="url(#gradient19)" fill-rule="evenodd" stroke="none"/>
    <path d="M-126.15 -159.25 L-127.5 -127.4 -131.0 -96.75 -137.25 -67.25 -144.0 -37.9 -155.5 -35.0 -167.25 -34.4 -182.9 -35.15 -183.0 -35.4 -192.25 -63.0 -188.4 -121.9 -182.9 -165.0 -183.9 -180.75 -166.15 -180.75 -150.0 -176.5 -146.25 -173.9 Q-144.9 -169.9 -137.0 -163.65 L-133.9 -164.75 -126.15 -159.25 M-144.15 -164.0 Q-141.9 -164.5 -144.4 -166.9 L-152.65 -173.75 -156.65 -174.25 -153.15 -169.0 -144.15 -164.0" fill="url(#gradient20)" fill-rule="evenodd" stroke="none"/>
    <path d="M-400.0 -20.4 L-399.9 -41.4 -395.75 -32.25 -395.4 -29.9 -395.15 -20.0 -400.0 -20.4 M-400.0 -139.4 L-399.9 -153.0 -398.15 -149.25 -397.5 -146.65 -389.0 -140.75 -385.4 -136.75 -389.0 -136.15 -396.4 -137.25 -398.5 -137.9 -400.0 -139.4 M-391.5 -20.25 L-390.15 -49.25 -383.9 -54.15 -383.4 -54.15 -378.25 -49.9 -380.25 -26.4 -380.25 -22.0 -386.0 -20.5 -391.5 -20.25 M-370.4 -26.15 L-369.4 -27.15 -368.9 -27.25 -369.0 -26.9 -370.4 -26.15" fill="url(#gradient21)" fill-rule="evenodd" stroke="none"/>
    <path d="M-356.15 -133.9 L-355.4 -131.25 -355.5 -129.5 -357.15 -120.65 -356.4 -98.0 -360.75 -62.25 -362.25 -52.75 -363.15 -39.75 -364.0 -29.65 -369.0 -26.9 -368.9 -27.25 -369.4 -27.15 -370.4 -26.15 Q-373.75 -24.25 -377.15 -22.4 L-380.25 -22.0 -380.25 -26.4 -378.25 -49.9 -383.4 -54.15 -383.9 -54.15 -390.15 -49.25 -391.5 -20.25 -394.15 -19.75 -395.15 -20.0 -395.4 -29.9 -395.75 -32.25 -399.9 -41.4 -400.0 -139.4 -398.5 -137.9 -396.4 -137.25 -389.0 -136.15 -385.4 -136.75 -383.4 -135.9 -369.5 -133.5 -365.9 -132.4 -356.15 -133.9" fill="url(#gradient22)" fill-rule="evenodd" stroke="none"/>
    <path d="M-363.15 -39.75 L-361.4 -39.25 -356.25 -34.5 -355.9 -33.4 -355.75 -28.25 -359.75 -23.65 -361.0 -22.75 -360.75 -23.4 -361.25 -24.5 -361.9 -25.0 -363.5 -21.4 -370.25 -18.25 -383.4 -15.5 -397.75 -15.25 -400.0 -15.5 -400.0 -20.4 -395.15 -20.0 -394.15 -19.75 -391.5 -20.25 -386.0 -20.5 -380.25 -22.0 -377.15 -22.4 Q-373.75 -24.25 -370.4 -26.15 L-369.0 -26.9 -364.0 -29.65 -363.15 -39.75" fill="url(#gradient23)" fill-rule="evenodd" stroke="none"/>
    <path d="M-355.75 -28.25 L-355.65 -17.25 -356.75 -15.9 -360.15 -12.15 -360.4 -11.4 -361.25 -11.15 -361.4 -22.25 -361.0 -22.75 -359.75 -23.65 -355.75 -28.25 M-400.0 -3.65 L-400.0 -15.5 -397.75 -15.25 -383.4 -15.5 -370.25 -18.25 -363.5 -21.4 -366.75 -14.25 Q-371.5 -12.5 -371.5 -11.5 L-373.25 -5.9 -383.25 -3.75 -397.5 -3.25 -399.9 -3.65 -400.0 -3.65" fill="url(#gradient24)" fill-rule="evenodd" stroke="none"/>
    <path d="M-376.25 -0.9 L-399.75 -0.9 -400.0 -3.65 -399.9 -3.65 -397.5 -3.25 -383.25 -3.75 -373.25 -5.9 -374.5 -2.4 -376.25 -0.9" fill="url(#gradient25)" fill-rule="evenodd" stroke="none"/>
    <path d="M-356.75 -15.9 L-356.65 -0.9 -376.25 -0.9 -374.5 -2.4 -373.25 -5.9 -371.5 -11.5 Q-371.5 -12.5 -366.75 -14.25 L-363.5 -21.4 -361.9 -25.0 -361.25 -24.5 -360.75 -23.4 -361.0 -22.75 -361.4 -22.25 -361.25 -11.15 -360.4 -11.4 -360.15 -12.15 -356.75 -15.9" fill="url(#gradient26)" fill-rule="evenodd" stroke="none"/>
    <path d="M-355.5 -129.5 L-355.5 -106.5 -354.4 -87.9 -360.75 -62.25 -356.4 -98.0 -357.15 -120.65 -355.5 -129.5" fill="url(#gradient27)" fill-rule="evenodd" stroke="none"/>
    <path d="M-144.0 -37.9 L-152.15 -26.5 -157.65 -22.4 -158.5 -22.15 -169.5 -21.5 -185.5 -22.65 -182.9 -35.15 -167.25 -34.4 -155.5 -35.0 -144.0 -37.9 M-155.15 -33.9 L-156.25 -28.9 -155.4 -28.9 -150.9 -31.4 Q-150.9 -32.25 -154.15 -34.15 L-155.15 -33.9 M-161.5 -32.75 L-161.65 -32.4 -164.0 -27.9 -162.15 -27.75 -160.65 -28.25 -161.25 -32.15 -161.5 -32.75" fill="url(#gradient28)" fill-rule="evenodd" stroke="none"/>
    <path d="M-259.15 -300.0 L-236.9 -300.0 -237.15 -297.15 -237.5 -296.5 -237.25 -295.75 -238.9 -283.15 -238.75 -282.0 -242.15 -251.65 -250.65 -229.75 -251.25 -227.4 -253.4 -222.5 -253.65 -221.75 -253.75 -220.75 -255.15 -217.65 -257.5 -211.25 -257.75 -210.75 -263.75 -195.15 -262.0 -206.25 -262.25 -206.75 -261.9 -207.4 -258.9 -226.5 -258.65 -227.5 -258.5 -228.75 -258.4 -229.15 -256.25 -241.65 -256.25 -243.75 -254.65 -252.5 -254.75 -252.9 -271.5 -254.4 -274.5 -259.75 -271.75 -261.75 -271.65 -262.0 -263.25 -267.65 -262.5 -268.25 -260.25 -288.9 -260.4 -289.5 -260.25 -289.9 -260.0 -291.65 -259.15 -300.0" fill="#e30000" fill-opacity="0.9098039" fill-rule="evenodd" stroke="none"/>
    <path d="M-276.65 -263.25 L-272.0 -277.75 -269.75 -300.0 -259.15 -300.0 -260.0 -291.65 -260.25 -289.9 -260.4 -289.5 -263.5 -283.5 -271.65 -262.0 -271.75 -261.75 -274.5 -259.75 -276.4 -263.0 -276.5 -263.15 -276.65 -263.25" fill="#f50000" fill-rule="evenodd" stroke="none"/>
    <path d="M-322.25 -241.0 L-276.65 -263.25 -276.5 -263.15 -276.4 -263.0 -276.25 -258.75 -276.25 -258.65 -295.0 -245.65 -299.75 -243.25 -300.0 -243.15 -300.25 -243.0 -300.5 -242.9 -300.75 -242.75 -301.0 -242.65 -301.25 -242.5 -301.5 -242.4 -301.75 -242.25 -302.0 -242.15 -302.25 -242.0 -302.5 -241.9 -302.75 -241.75 -303.0 -241.65 -303.25 -241.5 -303.5 -241.4 -303.65 -241.4 -315.0 -235.75 -321.4 -240.15 -322.25 -241.0" fill="#ea0000" fill-rule="evenodd" stroke="none"/>
    <path d="M-352.5 -85.5 L-353.5 -82.4 -355.0 -74.9 -355.65 -68.9 -359.4 -47.65 -359.75 -37.75 -361.4 -39.15 -363.15 -39.75 -362.15 -51.75 -362.25 -52.75 -360.75 -62.25 -358.5 -70.75 -358.5 -72.25 -358.15 -73.25 -354.5 -87.25 -354.5 -89.4 -354.65 -89.9 -354.65 -90.5 -354.75 -91.0 -355.0 -98.15 -355.15 -98.5 -355.25 -100.65 -355.4 -131.5 -355.5 -131.75 -356.15 -133.9 -350.9 -134.75 -339.9 -137.5 Q-342.5 -135.4 -342.15 -133.75 L-352.5 -85.5 M-400.0 -200.5 L-400.0 -219.25 -322.25 -241.0 -321.4 -240.15 -316.25 -235.15 -327.4 -229.65 -337.5 -227.25 -337.75 -227.25 -338.0 -227.15 -338.4 -227.15 -338.65 -227.0 -340.15 -226.65 -340.4 -226.4 -357.5 -218.65 -357.75 -218.5 -358.0 -218.4 -358.15 -218.4 -373.4 -212.0 -373.4 -211.9 -373.65 -211.9 -400.0 -200.5" fill="#ef0000" fill-rule="evenodd" stroke="none"/>
    <path d="M-305.15 -223.75 L-328.25 -153.9 -328.5 -153.5 -328.75 -152.15 -329.0 -151.75 -333.0 -139.4 -339.9 -137.5 -350.9 -134.75 -356.15 -133.9 -355.5 -131.75 -355.4 -131.5 -355.25 -100.65 -355.15 -98.5 -355.0 -98.15 -354.75 -91.0 -354.65 -90.5 -354.65 -89.9 -354.5 -89.4 -354.5 -87.25 -358.15 -73.25 -358.5 -72.25 -358.5 -70.75 -360.75 -62.25 -362.25 -52.75 -362.15 -51.75 -363.15 -39.75 -361.4 -39.15 -359.75 -37.75 -359.65 -37.4 -360.0 -23.65 -360.25 -23.15 -360.0 -22.9 -360.15 -21.0 -360.15 -20.65 -360.4 -20.4 -360.4 -17.5 -360.5 -17.4 -360.4 -17.25 -360.4 -14.65 -360.5 -14.5 -360.4 -14.4 -360.65 -14.25 -360.4 -14.15 -360.5 -9.75 -360.65 -9.0 -360.4 -6.65 -360.5 -6.15 -360.5 -6.0 -360.65 -5.25 -360.5 -5.0 -360.65 -4.0 -360.25 -3.4 -360.25 -2.75 -359.75 -2.15 -359.5 -1.65 -359.75 -1.15 -359.25 -0.9 -400.0 -0.9 -399.9 -88.0 -400.0 -88.75 -399.9 -113.4 -400.0 -113.9 -399.9 -180.25 -400.0 -180.5 -399.9 -192.0 -400.0 -192.5 -399.9 -200.4 -400.0 -200.5 -373.65 -211.9 -373.4 -211.9 -373.4 -212.0 -358.15 -218.4 -358.0 -218.4 -357.75 -218.5 -357.5 -218.65 -340.4 -226.4 -340.15 -226.65 -338.65 -227.0 -338.4 -227.15 -338.0 -227.15 -337.75 -227.25 -337.5 -227.25 -327.4 -229.65 -316.25 -235.15 -305.15 -224.4 -305.15 -223.75" fill="#df0000" fill-opacity="0.9098039" fill-rule="evenodd" stroke="none"/>
    <path d="M-315.0 -235.75 L-316.25 -235.15 -321.4 -240.15 -315.0 -235.75" fill="#e90000" fill-rule="evenodd" stroke="none"/>
    <path d="M-236.9 -300.0 L-179.25 -299.75 -167.5 -300.0 -141.25 -299.75 -138.15 -300.0 -124.65 -299.9 -121.0 -300.0 -120.4 -294.9 -123.5 -271.0 -123.4 -270.5 -125.75 -254.4 -125.75 -254.0 -125.65 -253.5 -125.9 -253.4 -126.0 -250.9 -126.5 -249.65 -126.4 -249.4 -127.15 -246.15 -124.65 -229.0 -124.75 -228.65 -124.5 -228.0 -122.25 -209.5 -122.25 -208.15 -133.15 -164.15 -133.15 -163.25 -133.25 -162.75 -133.4 -162.4 -135.65 -154.25 -135.65 -153.15 -149.15 -152.75 -169.4 -153.25 -169.75 -153.5 -185.75 -156.9 -201.65 -157.0 -200.4 -167.15 -200.4 -167.9 -200.25 -168.25 -200.15 -170.15 -200.5 -174.25 -200.5 -174.75 -200.65 -175.0 -202.5 -181.15 -209.4 -181.75 -210.25 -181.75 -210.75 -181.9 -213.4 -182.15 -214.25 -182.4 -214.4 -182.4 -217.4 -183.65 -244.65 -182.5 Q-245.95 -181.8 -247.25 -181.15 L-264.15 -194.25 -263.75 -195.15 -257.75 -210.75 -257.5 -211.25 -255.15 -217.65 -253.75 -220.75 -253.65 -221.75 -253.4 -222.5 -251.25 -227.4 -250.65 -229.75 -242.15 -251.65 -238.75 -282.0 -238.9 -283.15 -237.25 -295.75 -237.5 -296.5 -237.15 -297.15 -236.9 -300.0" fill="#be0000" fill-opacity="0.9098039" fill-rule="evenodd" stroke="none"/>
    <path d="M-263.75 -195.15 L-264.15 -194.25 -270.75 -199.15 -270.9 -199.0 -305.15 -224.4 -316.25 -235.15 -315.0 -235.75 -303.65 -241.4 -303.5 -241.4 -303.25 -241.5 -303.0 -241.65 -302.75 -241.75 -302.5 -241.9 -302.25 -242.0 -302.0 -242.15 -301.75 -242.25 -301.5 -242.4 -301.25 -242.5 -301.0 -242.65 -300.75 -242.75 -300.5 -242.9 -300.25 -243.0 -300.0 -243.15 -299.75 -243.25 -295.0 -245.65 -276.25 -258.65 -276.25 -258.75 -274.5 -259.75 -271.5 -254.4 -254.75 -252.9 -254.65 -252.5 -256.25 -243.75 -256.25 -241.65 -258.4 -229.15 -258.5 -228.75 -258.65 -227.5 -258.9 -226.5 -261.9 -207.4 -262.25 -206.75 -262.0 -206.25 -263.75 -195.15" fill="#da0000" fill-opacity="0.9098039" fill-rule="evenodd" stroke="none"/>
    <path d="M-271.65 -262.0 L-263.5 -283.5 -260.4 -289.5 -260.25 -288.9 -262.5 -268.25 -263.25 -267.65 -271.65 -262.0" fill="#f30000" fill-rule="evenodd" stroke="none"/>
    <path d="M-121.0 -300.0 L-112.75 -300.0 -109.75 -280.75 -114.5 -247.4 -114.65 -243.9 -115.9 -237.25 -116.15 -233.75 -116.65 -232.15 -122.25 -209.5 -124.5 -228.0 -124.75 -228.65 -124.65 -229.0 -127.15 -246.15 -126.4 -249.4 -126.5 -249.65 -126.0 -250.9 -125.9 -253.4 -125.65 -253.5 -125.75 -254.0 -125.75 -254.4 -123.4 -270.5 -123.5 -271.0 -120.4 -294.9 -121.0 -300.0" fill="#d30000" fill-rule="evenodd" stroke="none"/>
    <path d="M-114.65 -243.9 L-114.15 -232.75 -114.4 -232.4 -114.65 -232.0 -116.65 -232.15 -116.15 -233.75 -115.9 -237.25 -114.65 -243.9" fill="#b40000" fill-rule="evenodd" stroke="none"/>
    <path d="M-114.4 -232.4 L-114.25 -232.4 -114.5 -230.75 -121.75 -205.15 -122.25 -208.15 -122.25 -209.5 -116.65 -232.15 -114.65 -232.0 -114.4 -232.4" fill="#b30000" fill-rule="evenodd" stroke="none"/>
    <path d="M-276.4 -263.0 L-274.5 -259.75 -276.25 -258.75 -276.4 -263.0" fill="#ec0000" fill-rule="evenodd" stroke="none"/>
    <path d="M-147.25 -0.9 L-213.65 -0.9 -210.5 -19.5 -210.5 -20.0 -210.4 -20.25 -210.15 -21.75 -209.25 -33.4 -209.25 -34.75 -209.4 -35.15 -209.25 -35.9 -211.5 -49.25 -208.65 -72.9 -205.65 -119.15 -205.65 -119.65 -205.5 -121.0 -205.5 -122.75 -205.4 -123.0 -205.15 -128.15 -202.9 -146.25 -202.9 -147.25 -201.65 -157.0 -185.75 -156.9 -169.75 -153.5 -169.4 -153.25 -149.15 -152.75 -135.65 -153.15 -126.25 -155.15 -127.9 -122.5 -131.25 -96.65 -131.4 -96.25 -131.25 -96.15 -138.25 -63.65 -138.5 -63.15 -138.4 -62.75 -144.15 -37.75 -152.25 -26.4 -149.9 -13.4 -150.0 -12.75 -147.25 -0.9 M-296.0 -155.15 L-296.65 -159.75 -296.5 -160.0 -296.9 -161.5 -296.75 -161.75 -302.15 -202.5 -302.4 -202.9 -305.15 -223.75 -305.15 -224.4 -270.9 -199.0 -270.75 -199.15 -264.15 -194.25 -247.25 -181.15 -247.75 -180.75 -263.75 -172.25 -296.0 -155.15" fill="#aa0000" fill-opacity="0.9098039" fill-rule="evenodd" stroke="none"/>
    <path d="M-333.0 -139.4 L-338.15 -123.65 -352.5 -85.5 -342.15 -133.75 Q-342.5 -135.4 -339.9 -137.5 L-333.0 -139.4" fill="#f60000" fill-opacity="0.9098039" fill-rule="evenodd" stroke="none"/>
    <path d="M-355.65 -68.9 L-355.5 -67.5 -357.65 -35.75 -359.65 -37.4 -359.75 -37.75 -359.4 -47.65 -355.65 -68.9 M-355.75 -22.65 L-355.5 -24.9 -351.0 -4.5 -356.65 -4.4 -356.75 -6.15 -356.65 -7.5 -356.65 -7.65 -356.75 -8.75 -356.75 -15.9 -355.65 -17.25 -355.75 -22.65 M-355.65 -25.65 L-355.75 -25.25 -355.75 -25.4 -355.65 -25.65" fill="#ab0000" fill-opacity="0.9098039" fill-rule="evenodd" stroke="none"/>
    <path d="M-114.5 -230.75 L-114.4 -230.0 -123.9 -155.75 -126.25 -156.75 -126.15 -157.75 -126.25 -159.25 -123.25 -179.5 -120.25 -190.65 -120.4 -190.9 -120.4 -191.0 -121.9 -204.0 -121.75 -205.15 -114.5 -230.75" fill="#b80000" fill-rule="evenodd" stroke="none"/>
    <path d="M-121.75 -205.15 L-121.9 -204.0 -124.65 -194.5 -124.5 -194.25 -132.4 -166.15 -132.25 -165.9 -132.75 -164.0 -133.15 -163.25 -133.15 -164.15 -122.25 -208.15 -121.75 -205.15 M-133.4 -162.4 L-133.25 -162.75 -133.15 -163.25 -133.0 -163.0 -133.25 -162.75 -133.15 -162.5 -133.4 -162.4" fill="#9e0000" fill-opacity="0.9098039" fill-rule="evenodd" stroke="none"/>
    <path d="M-126.25 -156.75 L-123.9 -155.75 -126.25 -155.15 -126.25 -156.75" fill="#b50000" fill-rule="evenodd" stroke="none"/>
    <path d="M-133.15 -163.25 L-132.75 -164.0 -132.25 -165.9 -132.4 -166.15 -124.5 -194.25 -124.65 -194.5 -121.9 -204.0 -120.4 -191.0 -120.4 -190.9 -120.25 -190.65 -123.25 -179.5 -126.25 -159.25 -126.15 -157.75 -126.25 -156.75 -126.25 -155.15 -135.65 -153.15 -135.65 -154.25 -133.4 -162.4 -133.15 -162.5 -133.25 -162.75 -133.0 -163.0 -133.15 -163.25" fill="#a30000" fill-opacity="0.9098039" fill-rule="evenodd" stroke="none"/>
    <path d="M-136.25 -0.9 L-147.25 -0.9 -150.0 -12.75 -149.9 -13.4 -152.25 -26.4 -144.15 -37.75 -138.4 -62.75 -138.5 -63.15 -138.25 -63.65 -131.25 -96.15 -131.4 -96.25 -131.25 -96.65 -127.9 -122.5 -126.65 -112.9 -133.65 -58.65 -136.25 -0.9 M-274.15 -0.9 L-301.15 -0.9 -294.75 -49.65 -292.0 -111.4 -294.75 -146.9 -296.0 -155.15 -263.75 -172.25 -241.4 -175.0 -247.75 -124.9 -258.75 -74.9 -267.65 -24.9 -274.15 -0.9" fill="#bb0000" fill-opacity="0.9098039" fill-rule="evenodd" stroke="none"/>
    <path d="M-241.4 -175.0 L-263.75 -172.25 -247.75 -180.75 -241.4 -175.0" fill="#b90000" fill-rule="evenodd" stroke="none"/>
    <path d="M-213.65 -0.9 L-274.15 -0.9 -267.65 -24.9 -258.75 -74.9 -247.75 -124.9 -241.4 -175.0 -247.75 -180.75 -247.25 -181.15 -238.75 -174.65 -238.5 -174.5 -217.0 -158.0 -201.65 -157.0 -202.9 -147.25 -202.9 -146.25 -205.15 -128.15 -205.4 -123.0 -205.5 -122.75 -205.5 -121.0 -205.65 -119.65 -205.65 -119.15 -208.65 -72.9 -211.5 -49.25 -209.25 -35.9 -209.4 -35.15 -209.25 -34.75 -209.25 -33.4 -210.15 -21.75 -210.4 -20.25 -210.5 -20.0 -210.5 -19.5 -213.65 -0.9" fill="#ba0000" fill-rule="evenodd" stroke="none"/>
    <path d="M-247.25 -181.15 Q-245.95 -181.8 -244.65 -182.5 L-217.4 -183.65 -214.4 -182.4 -214.25 -182.4 -213.4 -182.15 -210.75 -181.9 -210.25 -181.75 -209.4 -181.75 -202.5 -181.15 -200.65 -175.0 -200.5 -174.75 -200.5 -174.25 -200.15 -170.15 -200.25 -168.25 -200.4 -167.9 -200.4 -167.15 -201.65 -157.0 -217.0 -158.0 -238.5 -174.5 -238.75 -174.65 -247.25 -181.15" fill="#ce0000" fill-rule="evenodd" stroke="none"/>
    <path d="M-123.9 -155.75 L-122.4 -109.15 -129.9 -55.5 -135.5 -4.5 -135.65 -0.9 -136.25 -0.9 -133.65 -58.65 -126.65 -112.9 -127.9 -122.5 -126.25 -155.15 -123.9 -155.75" fill="#bb0000" fill-rule="evenodd" stroke="none"/>
  </g>
  <defs>
    <radialGradient cx="0" cy="0" gradientTransform="matrix(0.0954, 0.0, 0.0, 0.0954, -256.85, -293.25)" gradientUnits="userSpaceOnUse" id="gradient0" r="819.2" spreadMethod="pad">
      <stop offset="0.0" stop-color="#6e6e6e"/>
      <stop offset="1.0" stop-color="#4e4e4e"/>
    </radialGradient>
    <radialGradient cx="0" cy="0" gradientTransform="matrix(0.1182, 0.0, 0.0, 0.1182, -188.85, -274.25)" gradientUnits="userSpaceOnUse" id="gradient1" r="819.2" spreadMethod="pad">
      <stop offset="0.0" stop-color="#838383"/>
      <stop offset="1.0" stop-color="#000000"/>
    </radialGradient>
    <radialGradient cx="0" cy="0" gradientTransform="matrix(0.0666, 0.0, 0.0, 0.0666, -287.85, -194.45)" gradientUnits="userSpaceOnUse" id="gradient2" r="819.2" spreadMethod="pad">
      <stop offset="0.0" stop-color="#737373"/>
      <stop offset="1.0" stop-color="#1a1a1a"/>
    </radialGradient>
    <radialGradient cx="0" cy="0" gradientTransform="matrix(0.0925, 0.0, 0.0, 0.0925, -253.0, -215.2)" gradientUnits="userSpaceOnUse" id="gradient3" r="819.2" spreadMethod="pad">
      <stop offset="0.0" stop-color="#464646"/>
      <stop offset="1.0" stop-color="#010101"/>
    </radialGradient>
    <radialGradient cx="0" cy="0" gradientTransform="matrix(0.1064, 0.0, 0.0, 0.1064, -314.55, -214.45)" gradientUnits="userSpaceOnUse" id="gradient4" r="819.2" spreadMethod="pad">
      <stop offset="0.0" stop-color="#0e0e0e"/>
      <stop offset="1.0" stop-color="#000000"/>
    </radialGradient>
    <radialGradient cx="0" cy="0" gradientTransform="matrix(0.1498, 0.0, 0.0, 0.1498, -284.85, -186.5)" gradientUnits="userSpaceOnUse" id="gradient5" r="819.2" spreadMethod="pad">
      <stop offset="0.0" stop-color="#7f7f7f"/>
      <stop offset="1.0" stop-color="#232323"/>
    </radialGradient>
    <radialGradient cx="0" cy="0" gradientTransform="matrix(0.0651, 0.0, 0.0, 0.0651, -127.7, -196.95)" gradientUnits="userSpaceOnUse" id="gradient6" r="819.2" spreadMethod="pad">
      <stop offset="0.0" stop-color="#000000"/>
      <stop offset="1.0" stop-color="#000000"/>
    </radialGradient>
    <radialGradient cx="0" cy="0" gradientTransform="matrix(0.0752, 0.0, 0.0, 0.0752, -201.65, -181.15)" gradientUnits="userSpaceOnUse" id="gradient7" r="819.2" spreadMethod="pad">
      <stop offset="0.0" stop-color="#494949"/>
      <stop offset="1.0" stop-color="#171717"/>
    </radialGradient>
    <radialGradient cx="0" cy="0" gradientTransform="matrix(0.0841, 0.0, 0.0, 0.0841, -284.85, -186.5)" gradientUnits="userSpaceOnUse" id="gradient8" r="819.2" spreadMethod="pad">
      <stop offset="0.0" stop-color="#7f7f7f"/>
      <stop offset="1.0" stop-color="#000000"/>
    </radialGradient>
    <radialGradient cx="0" cy="0" gradientTransform="matrix(0.0335, 0.0, 0.0, 0.0335, -239.2, -220.9)" gradientUnits="userSpaceOnUse" id="gradient9" r="819.2" spreadMethod="pad">
      <stop offset="0.0" stop-color="#000000"/>
      <stop offset="1.0" stop-color="#000000"/>
    </radialGradient>
    <radialGradient cx="0" cy="0" gradientTransform="matrix(0.0446, 0.0, 0.0, 0.0446, -253.0, -215.2)" gradientUnits="userSpaceOnUse" id="gradient10" r="819.2" spreadMethod="pad">
      <stop offset="0.0" stop-color="#464646"/>
      <stop offset="1.0" stop-color="#000000"/>
    </radialGradient>
    <radialGradient cx="0" cy="0" gradientTransform="matrix(0.2156, 0.0, 0.0, 0.2156, -149.1, -203.2)" gradientUnits="userSpaceOnUse" id="gradient11" r="819.2" spreadMethod="pad">
      <stop offset="0.0" stop-color="#666666"/>
      <stop offset="1.0" stop-color="#0c0c0c"/>
    </radialGradient>
    <radialGradient cx="0" cy="0" gradientTransform="matrix(0.0126, 0.0, 0.0, 0.0126, -213.7, -182.2)" gradientUnits="userSpaceOnUse" id="gradient12" r="819.2" spreadMethod="pad">
      <stop offset="0.0" stop-color="#000000"/>
      <stop offset="1.0" stop-color="#000000"/>
    </radialGradient>
    <radialGradient cx="0" cy="0" gradientTransform="matrix(0.1994, 0.0, 0.0, 0.1994, -387.5, -135.35)" gradientUnits="userSpaceOnUse" id="gradient13" r="819.2" spreadMethod="pad">
      <stop offset="0.0" stop-color="#565656"/>
      <stop offset="1.0" stop-color="#000000"/>
    </radialGradient>
    <radialGradient cx="0" cy="0" gradientTransform="matrix(0.162, 0.0, 0.0, 0.162, -192.9, -167.65)" gradientUnits="userSpaceOnUse" id="gradient14" r="819.2" spreadMethod="pad">
      <stop offset="0.0" stop-color="#575757"/>
      <stop offset="1.0" stop-color="#151515"/>
    </radialGradient>
    <radialGradient cx="0" cy="0" gradientTransform="matrix(0.0226, 0.0, 0.0, 0.0226, -204.6, -32.45)" gradientUnits="userSpaceOnUse" id="gradient15" r="819.2" spreadMethod="pad">
      <stop offset="0.0" stop-color="#040404"/>
      <stop offset="1.0" stop-color="#020202"/>
    </radialGradient>
    <radialGradient cx="0" cy="0" gradientTransform="matrix(0.0382, 0.0, 0.0, 0.0382, -204.05, -27.7)" gradientUnits="userSpaceOnUse" id="gradient16" r="819.2" spreadMethod="pad">
      <stop offset="0.0" stop-color="#383838"/>
      <stop offset="1.0" stop-color="#000000"/>
    </radialGradient>
    <radialGradient cx="0" cy="0" gradientTransform="matrix(0.0535, 0.0, 0.0, 0.0535, -185.4, -22.75)" gradientUnits="userSpaceOnUse" id="gradient17" r="819.2" spreadMethod="pad">
      <stop offset="0.0" stop-color="#1c1c1c"/>
      <stop offset="1.0" stop-color="#000000"/>
    </radialGradient>
    <radialGradient cx="0" cy="0" gradientTransform="matrix(0.0326, 0.0, 0.0, 0.0326, -203.35, -42.55)" gradientUnits="userSpaceOnUse" id="gradient18" r="819.2" spreadMethod="pad">
      <stop offset="0.0" stop-color="#4d4d4d"/>
      <stop offset="1.0" stop-color="#2e2e2e"/>
    </radialGradient>
    <radialGradient cx="0" cy="0" gradientTransform="matrix(0.0226, 0.0, 0.0, 0.0226, -196.8, -183.6)" gradientUnits="userSpaceOnUse" id="gradient19" r="819.2" spreadMethod="pad">
      <stop offset="0.0" stop-color="#000000"/>
      <stop offset="1.0" stop-color="#000000"/>
    </radialGradient>
    <radialGradient cx="0" cy="0" gradientTransform="matrix(0.1282, 0.0, 0.0, 0.1282, -149.3, -134.8)" gradientUnits="userSpaceOnUse" id="gradient20" r="819.2" spreadMethod="pad">
      <stop offset="0.0" stop-color="#494949"/>
      <stop offset="1.0" stop-color="#131313"/>
    </radialGradient>
    <radialGradient cx="0" cy="0" gradientTransform="matrix(0.205, 0.0, 0.0, 0.205, -386.55, -171.1)" gradientUnits="userSpaceOnUse" id="gradient21" r="819.2" spreadMethod="pad">
      <stop offset="0.0" stop-color="#2e2e2e"/>
      <stop offset="1.0" stop-color="#020202"/>
    </radialGradient>
    <radialGradient cx="0" cy="0" gradientTransform="matrix(0.1587, 0.0, 0.0, 0.1587, -384.4, -146.7)" gradientUnits="userSpaceOnUse" id="gradient22" r="819.2" spreadMethod="pad">
      <stop offset="0.0" stop-color="#292929"/>
      <stop offset="1.0" stop-color="#040404"/>
    </radialGradient>
    <radialGradient cx="0" cy="0" gradientTransform="matrix(0.0553, 0.0, 0.0, 0.0553, -361.4, -39.25)" gradientUnits="userSpaceOnUse" id="gradient23" r="819.2" spreadMethod="pad">
      <stop offset="0.0" stop-color="#212121"/>
      <stop offset="1.0" stop-color="#212121"/>
    </radialGradient>
    <radialGradient cx="0" cy="0" gradientTransform="matrix(0.0537, 0.0, 0.0, 0.0537, -397.65, -15.25)" gradientUnits="userSpaceOnUse" id="gradient24" r="819.2" spreadMethod="pad">
      <stop offset="0.0" stop-color="#b5b5b5"/>
      <stop offset="1.0" stop-color="#2e2e2e"/>
    </radialGradient>
    <radialGradient cx="0" cy="0" gradientTransform="matrix(0.0351, 0.0, 0.0, 0.0351, -396.85, -1.0)" gradientUnits="userSpaceOnUse" id="gradient25" r="819.2" spreadMethod="pad">
      <stop offset="0.0" stop-color="#060606"/>
      <stop offset="1.0" stop-color="#000000"/>
    </radialGradient>
    <radialGradient cx="0" cy="0" gradientTransform="matrix(0.0268, 0.0, 0.0, 0.0268, -356.65, -3.95)" gradientUnits="userSpaceOnUse" id="gradient26" r="819.2" spreadMethod="pad">
      <stop offset="0.0" stop-color="#696969"/>
      <stop offset="1.0" stop-color="#2a2a2a"/>
    </radialGradient>
    <radialGradient cx="0" cy="0" gradientTransform="matrix(0.0635, 0.0, 0.0, 0.0635, -355.45, -106.0)" gradientUnits="userSpaceOnUse" id="gradient27" r="819.2" spreadMethod="pad">
      <stop offset="0.0" stop-color="#424242"/>
      <stop offset="1.0" stop-color="#080808"/>
    </radialGradient>
    <radialGradient cx="0" cy="0" gradientTransform="matrix(0.0474, 0.0, 0.0, 0.0474, -182.8, -35.25)" gradientUnits="userSpaceOnUse" id="gradient28" r="819.2" spreadMethod="pad">
      <stop offset="0.0" stop-color="#393939"/>
      <stop offset="1.0" stop-color="#000000"/>
    </radialGradient>
  </defs>
</svg>
