<?xml version="1.0" encoding="UTF-8" standalone="no"?>
<svg xmlns:xlink="http://www.w3.org/1999/xlink" height="299.1px" width="289.6px" xmlns="http://www.w3.org/2000/svg">
  <g transform="matrix(1.0, 0.0, 0.0, 1.0, 400.0, 300.0)">
    <path d="M-263.25 -265.0 L-262.4 -269.75 -259.25 -299.9 -229.0 -300.0 -233.0 -263.9 -251.9 -212.9 -252.15 -213.75 -251.75 -214.5 -244.0 -265.15 -259.25 -266.4 -263.25 -265.0 M-252.0 -212.5 L-252.4 -211.4 -252.25 -212.4 -252.0 -212.5" fill="url(#gradient0)" fill-rule="evenodd" stroke="none"/>
    <path d="M-229.0 -300.0 L-121.9 -300.0 -120.75 -291.4 -126.5 -248.25 -127.9 -242.65 -142.25 -186.5 -169.9 -188.0 -183.9 -195.0 -196.5 -192.0 -210.65 -193.25 -252.15 -211.25 -252.4 -211.4 -252.0 -212.5 -251.9 -212.9 -233.0 -263.9 -229.0 -300.0" fill="url(#gradient1)" fill-rule="evenodd" stroke="none"/>
    <path d="M-251.9 -212.9 L-252.0 -212.5 -252.25 -212.4 -262.65 -221.4 -254.5 -227.9 -254.25 -227.0 -254.5 -223.9 -252.4 -215.5 -252.4 -215.4 -252.25 -214.9 -252.15 -213.75 -251.9 -212.9 M-241.65 -194.15 L-242.75 -193.9 -256.4 -199.4 -256.5 -199.75 -250.9 -209.9 -250.5 -209.4 -246.9 -201.15 -241.65 -194.15" fill="url(#gradient2)" fill-rule="evenodd" stroke="none"/>
    <path d="M-329.0 -226.75 L-295.65 -242.75 -263.25 -264.9 -263.25 -265.0 -259.25 -266.4 -244.0 -265.15 -251.75 -214.5 -252.15 -213.75 -252.25 -214.9 -252.4 -215.4 -252.4 -215.5 -254.25 -227.0 -254.5 -227.9 -262.65 -221.4 -252.25 -212.4 -252.4 -211.4 -315.15 -211.0 -315.4 -211.15 -329.0 -226.75" fill="url(#gradient3)" fill-rule="evenodd" stroke="none"/>
    <path d="M-400.0 -195.65 L-400.0 -199.4 -356.25 -217.4 -342.75 -223.5 -329.0 -226.75 -315.4 -211.15 -345.4 -219.25 -359.9 -208.5 -400.0 -195.65" fill="url(#gradient4)" fill-rule="evenodd" stroke="none"/>
    <path d="M-399.9 -143.0 L-400.0 -195.65 -359.9 -208.5 -345.4 -219.25 -315.4 -211.15 -315.15 -211.0 -284.75 -182.75 -276.4 -179.75 -339.0 -143.15 -363.25 -136.0 -386.0 -132.65 -388.0 -133.5 -392.0 -137.75 -399.9 -143.0" fill="url(#gradient5)" fill-rule="evenodd" stroke="none"/>
    <path d="M-127.9 -242.65 L-126.0 -229.75 -121.5 -189.4 -121.5 -188.15 -124.5 -175.5 -127.4 -156.9 -134.75 -162.25 -135.0 -165.9 -133.4 -178.65 -134.9 -181.9 -142.0 -180.4 -143.15 -179.5 -143.65 -175.0 -146.75 -171.0 -150.25 -173.5 -148.25 -180.25 -142.25 -186.5 -127.9 -242.65 M-132.9 -197.15 L-132.4 -198.4 -137.65 -198.9 -137.75 -198.65 -137.65 -197.25 -132.9 -197.15" fill="url(#gradient6)" fill-rule="evenodd" stroke="none"/>
    <path d="M-203.25 -178.25 L-214.65 -179.4 -214.75 -179.4 -216.15 -180.5 -222.5 -182.9 -225.0 -187.4 -248.75 -208.15 -249.25 -208.75 -250.9 -210.0 -251.0 -210.25 -252.15 -211.25 -210.65 -193.25 -196.5 -192.0 -183.9 -195.0 -169.9 -188.0 -142.25 -186.5 -148.25 -180.25 -150.25 -173.5 -166.5 -177.75 -184.25 -177.75 -203.25 -178.25 M-181.0 -178.15 L-178.65 -178.65 -179.4 -178.9 -194.65 -180.0 -181.0 -178.15" fill="url(#gradient7)" fill-rule="evenodd" stroke="none"/>
    <path d="M-217.15 -180.4 L-246.4 -179.0 -268.25 -178.0 -276.4 -179.75 -284.75 -182.75 -315.15 -211.0 -252.4 -211.4 -252.15 -211.25 -251.0 -210.25 -250.9 -210.0 -250.9 -209.9 -256.5 -199.75 -256.4 -199.4 -242.75 -193.9 -241.65 -194.15 -250.0 -209.0 -249.25 -208.75 -248.75 -208.15 -226.0 -186.75 -225.0 -187.4 -222.5 -182.9 -216.15 -180.5 -217.15 -180.4" fill="url(#gradient8)" fill-rule="evenodd" stroke="none"/>
    <path d="M-250.0 -209.0 L-241.65 -194.15 -246.9 -201.15 -250.5 -209.4 -250.4 -209.4 -250.0 -209.0 M-252.4 -215.5 L-254.5 -223.9 -254.25 -227.0 -252.4 -215.5" fill="url(#gradient9)" fill-rule="evenodd" stroke="none"/>
    <path d="M-225.0 -187.4 L-226.0 -186.75 -248.75 -208.15 -225.0 -187.4 M-249.25 -208.75 L-250.0 -209.0 -250.4 -209.4 -250.5 -209.4 -250.9 -209.9 -250.9 -210.0 -249.25 -208.75" fill="url(#gradient10)" fill-rule="evenodd" stroke="none"/>
    <path d="M-146.75 -171.0 L-143.65 -175.0 -143.15 -179.5 -142.0 -180.4 -134.9 -181.9 -133.4 -178.65 -135.0 -165.9 -134.75 -162.25 -137.9 -161.0 Q-145.75 -167.4 -146.75 -171.0 M-132.9 -197.15 L-137.65 -197.25 -137.75 -198.65 -137.65 -198.9 -132.4 -198.4 -132.9 -197.15 M-144.5 -161.25 L-153.75 -166.25 -157.15 -171.4 -153.4 -171.0 -152.75 -170.65 -144.5 -163.75 -143.65 -162.0 -144.5 -161.25 M-156.9 -27.5 L-155.9 -31.9 -154.65 -32.15 -152.0 -30.15 Q-151.9 -29.0 -156.5 -26.9 L-156.9 -26.9 -156.9 -27.5 M-161.25 -26.0 L-162.25 -25.75 -164.5 -25.75 -162.15 -30.75 -161.25 -26.65 -161.25 -26.0" fill="url(#gradient11)" fill-rule="evenodd" stroke="none"/>
    <path d="M-214.75 -179.4 L-217.15 -180.4 -216.15 -180.5 -214.75 -179.4" fill="url(#gradient12)" fill-rule="evenodd" stroke="none"/>
    <path d="M-246.4 -179.0 L-319.9 -140.25 -352.75 -131.5 -358.65 -130.75 -368.4 -129.25 -370.5 -130.15 -386.0 -132.65 -363.25 -136.0 -339.0 -143.15 -276.4 -179.75 -268.25 -178.0 -246.4 -179.0" fill="url(#gradient13)" fill-rule="evenodd" stroke="none"/>
    <path d="M-212.25 -46.75 L-212.5 -47.0 -209.5 -72.4 -206.4 -124.25 -201.25 -167.0 -201.75 -172.9 -201.9 -173.65 -203.25 -178.25 -184.25 -177.75 -183.25 -162.65 -188.75 -118.75 -192.5 -60.4 -183.15 -32.75 -203.75 -39.9 -209.0 -43.75 -212.25 -46.75" fill="url(#gradient14)" fill-rule="evenodd" stroke="none"/>
    <path d="M-210.4 -33.75 L-210.4 -34.15 -212.25 -46.75 -209.0 -43.75 -206.25 -32.15 -206.15 -32.0 -205.9 -30.65 -210.4 -33.75" fill="url(#gradient15)" fill-rule="evenodd" stroke="none"/>
    <path d="M-188.15 -0.9 L-214.25 -0.9 -211.0 -20.9 -210.65 -30.75 -210.5 -31.0 -210.5 -32.75 -210.4 -33.5 -210.4 -33.75 -205.9 -30.65 -205.75 -30.4 -204.4 -25.15 -185.9 -20.4 -188.5 -7.75 -188.15 -0.9" fill="url(#gradient16)" fill-rule="evenodd" stroke="none"/>
    <path d="M-153.25 -24.9 L-150.75 -10.5 -148.65 -0.9 -188.15 -0.9 -188.5 -7.75 -185.9 -20.4 -170.0 -19.4 -158.65 -20.25 -153.25 -24.9" fill="url(#gradient17)" fill-rule="evenodd" stroke="none"/>
    <path d="M-145.0 -36.0 L-153.25 -24.9 -158.65 -20.25 -170.0 -19.4 -185.9 -20.4 -183.15 -32.75 -165.75 -32.25 -157.4 -32.9 -145.0 -36.0 M-156.9 -27.5 L-156.9 -26.9 -156.5 -26.9 Q-151.9 -29.0 -152.0 -30.15 L-154.65 -32.15 -155.9 -31.9 -156.9 -27.5 M-161.25 -26.0 L-161.25 -26.65 -162.15 -30.75 -164.5 -25.75 -162.25 -25.75 -161.25 -26.0" fill="url(#gradient18)" fill-rule="evenodd" stroke="none"/>
    <path d="M-127.4 -156.9 L-128.75 -125.5 -132.65 -93.0 -145.0 -36.0 -157.4 -32.9 -165.75 -32.25 -183.15 -32.75 -192.5 -60.4 -188.75 -118.75 -183.25 -162.65 -184.25 -177.75 -166.5 -177.75 -150.25 -173.5 -146.75 -171.0 Q-145.75 -167.4 -137.9 -161.0 L-134.75 -162.25 -127.4 -156.9 M-144.5 -161.25 L-143.65 -162.0 -144.5 -163.75 -152.75 -170.65 -153.4 -171.0 -157.15 -171.4 -153.75 -166.25 -144.5 -161.25" fill="url(#gradient19)" fill-rule="evenodd" stroke="none"/>
    <path d="M-181.0 -178.15 L-194.65 -180.0 -179.4 -178.9 -178.65 -178.65 -181.0 -178.15" fill="url(#gradient20)" fill-rule="evenodd" stroke="none"/>
    <path d="M-399.9 -16.15 L-399.9 -32.25 -397.75 -27.9 -397.25 -16.0 -399.9 -16.15 M-400.0 -134.15 L-399.9 -143.0 -392.0 -137.75 -388.0 -133.5 -391.9 -132.9 -400.0 -134.15 M-393.65 -16.25 L-392.25 -45.5 -385.9 -50.5 -380.4 -46.25 -382.5 -18.25 -387.75 -16.75 -393.65 -16.25 M-372.4 -22.75 L-371.4 -23.75 -371.15 -23.5 -372.4 -22.75" fill="url(#gradient21)" fill-rule="evenodd" stroke="none"/>
    <path d="M-358.65 -130.75 L-358.0 -128.4 -358.15 -126.65 -359.5 -117.9 -358.65 -94.25 -362.25 -65.0 -362.25 -64.9 -362.4 -64.5 -364.5 -50.4 -365.5 -36.65 -366.25 -26.4 -368.5 -24.75 -371.15 -23.5 -371.4 -23.75 -372.4 -22.75 -379.25 -18.75 -382.5 -18.25 -380.4 -46.25 -385.9 -50.5 -392.25 -45.5 -393.65 -16.25 -397.25 -16.0 -397.75 -27.9 -399.9 -32.25 -400.0 -134.15 -391.9 -132.9 -388.0 -133.5 -386.0 -132.65 -370.5 -130.15 -368.4 -129.25 -358.65 -130.75" fill="url(#gradient22)" fill-rule="evenodd" stroke="none"/>
    <path d="M-365.5 -36.65 Q-364.15 -37.15 -358.65 -31.4 L-357.9 -25.0 -362.25 -19.5 -362.75 -19.4 -362.65 -19.9 -363.25 -21.15 -363.75 -21.5 -365.4 -17.9 Q-369.5 -14.25 -384.15 -11.75 L-399.9 -11.0 -399.9 -16.15 -397.25 -16.0 -393.65 -16.25 -387.75 -16.75 -382.5 -18.25 -379.25 -18.75 -372.4 -22.75 -371.15 -23.5 -368.5 -24.75 -366.25 -26.4 -365.5 -36.65" fill="url(#gradient23)" fill-rule="evenodd" stroke="none"/>
    <path d="M-357.9 -25.0 L-357.9 -13.9 -358.9 -12.5 -362.4 -8.0 -363.15 -7.75 -363.25 -18.75 -362.75 -19.4 -362.25 -19.5 -357.9 -25.0 M-380.15 -0.9 L-400.0 -0.9 -399.9 -11.0 -384.15 -11.75 Q-369.5 -14.25 -365.4 -17.9 L-368.15 -11.0 -373.15 -8.25 -373.0 -7.75 -374.15 -5.4 -375.0 -2.15 -380.15 -0.9" fill="url(#gradient24)" fill-rule="evenodd" stroke="none"/>
    <path d="M-358.9 -12.5 L-359.0 -0.9 -375.4 -0.9 -375.0 -2.15 -374.15 -5.4 -373.0 -7.75 -373.15 -8.25 -368.15 -11.0 -365.4 -17.9 -363.75 -21.5 -363.25 -21.15 -362.65 -19.9 -362.75 -19.4 -363.25 -18.75 -363.15 -7.75 -362.4 -8.0 -358.9 -12.5" fill="url(#gradient25)" fill-rule="evenodd" stroke="none"/>
    <path d="M-358.15 -126.65 L-358.5 -102.5 -357.25 -85.9 -362.25 -65.0 -358.65 -94.25 -359.5 -117.9 -358.15 -126.65" fill="url(#gradient26)" fill-rule="evenodd" stroke="none"/>
    <path d="M-209.0 -43.75 L-203.75 -39.9 -183.15 -32.75 -185.9 -20.4 -204.4 -25.15 -205.75 -30.4 -205.9 -30.65 -206.15 -32.0 -206.25 -32.15 -209.0 -43.75" fill="url(#gradient27)" fill-rule="evenodd" stroke="none"/>
    <path d="M-375.4 -0.9 L-380.15 -0.9 -375.0 -2.15 -375.4 -0.9" fill="url(#gradient28)" fill-rule="evenodd" stroke="none"/>
    <path d="M-259.15 -300.0 L-235.4 -300.0 -235.4 -298.5 -235.75 -297.5 -235.65 -297.0 -237.9 -278.5 -237.75 -277.65 -241.0 -247.9 -250.15 -224.5 -250.75 -222.15 -252.9 -217.25 -252.9 -216.65 -256.25 -208.0 -256.75 -207.4 -256.5 -207.25 -262.75 -191.4 -261.0 -203.15 -261.15 -203.5 -260.9 -204.0 -258.75 -217.75 -258.9 -218.15 -257.65 -224.75 -257.75 -225.25 -257.5 -225.65 -255.65 -237.0 -255.65 -239.0 -253.9 -248.65 -253.9 -249.25 -271.25 -250.9 -274.9 -256.9 -273.0 -258.25 -273.0 -258.4 -263.25 -264.9 -263.25 -265.0 -262.75 -267.75 -262.75 -268.25 -262.4 -269.9 -262.4 -271.0 -262.25 -271.4 -262.25 -272.25 -260.5 -286.0 -260.4 -288.75 -260.25 -289.0 -260.4 -289.25 -260.25 -289.65 -259.15 -300.0" fill="#e10000" fill-opacity="0.9098039" fill-rule="evenodd" stroke="none"/>
    <path d="M-235.4 -300.0 L-121.9 -300.0 -121.0 -292.25 -120.75 -291.25 -125.0 -261.4 -124.9 -260.9 -124.9 -260.65 -125.25 -258.65 -125.15 -258.15 -126.5 -248.4 -127.25 -245.9 -127.15 -245.65 -127.9 -242.25 -126.15 -230.5 -125.75 -226.65 -125.9 -226.15 -125.75 -225.4 -123.15 -205.15 -123.25 -203.65 -126.25 -192.4 -126.15 -192.15 -133.15 -163.4 -133.0 -163.0 -133.15 -162.5 -133.25 -162.0 -133.4 -161.4 -133.5 -161.25 -136.25 -150.9 -136.25 -150.25 -149.5 -149.65 -169.25 -150.0 -169.5 -150.15 -184.4 -153.25 -201.75 -153.25 -203.0 -153.4 -201.5 -164.9 -201.5 -165.0 -201.25 -167.25 -201.25 -167.65 -201.75 -172.9 -201.9 -173.65 -203.25 -178.25 -209.4 -178.75 -210.25 -178.75 -211.0 -178.9 -213.75 -179.15 -214.65 -179.4 -214.75 -179.4 -217.15 -180.4 -246.4 -179.0 -247.65 -178.25 -263.25 -190.25 -262.75 -191.4 -256.5 -207.25 -256.75 -207.4 -256.25 -208.0 -252.9 -216.65 -252.9 -217.25 -250.75 -222.15 -250.15 -224.5 -241.0 -247.9 -237.75 -277.65 -237.9 -278.5 -235.65 -297.0 -235.75 -297.5 -235.4 -298.5 -235.4 -300.0" fill="#c00000" fill-opacity="0.9098039" fill-rule="evenodd" stroke="none"/>
    <path d="M-262.75 -191.4 L-263.25 -190.25 -305.15 -220.75 -317.4 -232.4 -316.25 -233.0 -300.65 -240.4 -300.5 -240.4 -300.25 -240.5 -300.0 -240.65 -299.75 -240.75 -299.5 -240.9 -299.25 -241.0 -299.0 -241.15 -298.75 -241.25 -298.5 -241.4 -295.65 -242.75 -276.9 -255.65 -276.9 -255.75 -274.9 -256.9 -271.25 -250.9 -253.9 -249.25 -253.9 -248.65 -255.65 -239.0 -255.65 -237.0 -257.5 -225.65 -257.75 -225.25 -257.65 -224.75 -258.9 -218.15 -258.75 -217.75 -260.9 -204.0 -261.15 -203.5 -261.0 -203.15 -262.75 -191.4" fill="#da0000" fill-opacity="0.9098039" fill-rule="evenodd" stroke="none"/>
    <path d="M-277.0 -260.25 L-272.5 -274.4 -269.9 -299.75 -259.15 -300.0 -260.25 -289.65 -260.4 -289.25 -265.0 -280.0 -273.0 -258.4 -273.0 -258.25 -274.9 -256.9 -276.75 -260.0 -277.0 -260.25" fill="#f30000" fill-rule="evenodd" stroke="none"/>
    <path d="M-260.4 -289.25 L-260.25 -289.0 -260.4 -288.75 -260.5 -286.0 -262.25 -272.25 -262.25 -271.4 -262.4 -271.0 -262.4 -269.9 -262.75 -268.25 -262.75 -267.75 -263.25 -265.0 -263.25 -264.9 -273.0 -258.4 -265.0 -280.0 -260.4 -289.25" fill="#f10000" fill-rule="evenodd" stroke="none"/>
    <path d="M-323.25 -238.0 L-277.0 -260.25 -276.75 -260.0 -276.9 -255.75 -276.9 -255.65 -295.65 -242.75 -298.5 -241.4 -298.75 -241.25 -299.0 -241.15 -299.25 -241.0 -299.5 -240.9 -299.75 -240.75 -300.0 -240.65 -300.25 -240.5 -300.5 -240.4 -300.65 -240.4 -316.25 -233.0 -322.4 -237.15 -323.25 -238.0" fill="#ea0000" fill-rule="evenodd" stroke="none"/>
    <path d="M-400.0 -199.4 L-400.0 -217.4 -323.25 -238.0 -322.4 -237.15 -317.4 -232.4 -329.0 -226.75 -340.0 -224.25 -340.15 -224.25 -341.75 -223.9 -342.0 -223.65 -359.25 -216.15 -359.5 -216.0 -359.65 -216.0 -373.0 -210.65 -373.0 -210.5 -374.5 -209.9 -374.65 -209.9 -400.0 -199.4 M-361.65 -34.0 L-364.15 -36.15 -365.5 -36.65 -364.5 -49.65 -364.5 -50.4 -362.4 -64.5 -362.15 -64.65 -362.25 -64.9 -361.25 -69.5 -360.75 -70.5 -360.9 -70.75 -357.25 -85.25 -357.5 -88.15 -357.65 -88.4 -357.65 -89.25 -357.75 -90.0 -358.5 -104.0 -358.0 -124.15 -358.15 -128.75 -358.25 -129.0 -358.65 -130.75 -352.75 -131.65 -345.9 -133.25 -359.4 -71.25 -361.65 -34.0" fill="#ef0000" fill-rule="evenodd" stroke="none"/>
    <path d="M-305.25 -220.5 L-326.65 -152.4 -326.9 -151.9 -327.4 -150.0 -327.65 -149.75 -327.5 -149.5 -331.65 -136.9 -345.9 -133.25 -352.75 -131.65 -358.65 -130.75 -358.25 -129.0 -358.15 -128.75 -358.0 -124.15 -358.5 -104.0 -357.75 -90.0 -357.65 -89.25 -357.65 -88.4 -357.5 -88.15 -357.25 -85.25 -360.9 -70.75 -360.75 -70.5 -361.25 -69.5 -362.25 -64.9 -362.15 -64.65 -362.4 -64.5 -364.5 -50.4 -364.5 -49.65 -365.5 -36.65 -364.15 -36.15 -361.65 -34.0 -358.75 -31.5 -358.65 -31.15 -358.5 -30.15 -358.75 -24.25 -358.9 -23.65 -359.0 -22.75 -358.75 -21.4 -359.0 -20.75 -358.9 -18.5 -359.15 -17.75 -359.15 -16.9 -359.0 -15.5 -359.15 -15.0 -359.15 -14.15 -359.0 -13.4 -359.15 -12.65 -359.25 -12.0 -359.25 -9.25 -359.0 -9.0 -359.4 -7.0 -359.4 -5.65 -359.25 -5.5 -359.25 -5.15 -359.15 -4.9 -359.4 -4.65 -359.25 -4.65 -359.4 -3.5 -359.25 -3.15 -359.4 -1.9 -359.4 -1.5 -359.5 -1.25 -359.4 -0.9 -400.0 -0.9 -399.9 -1.5 -400.0 -2.15 -400.0 -8.0 -399.9 -9.0 -399.9 -143.0 -400.0 -143.4 -400.0 -199.4 -374.65 -209.9 -374.5 -209.9 -373.0 -210.5 -373.0 -210.65 -359.65 -216.0 -359.5 -216.0 -359.25 -216.15 -342.0 -223.65 -341.75 -223.9 -340.15 -224.25 -340.0 -224.25 -329.0 -226.75 -317.4 -232.4 -305.15 -220.75 -305.25 -220.5" fill="#df0000" fill-opacity="0.9098039" fill-rule="evenodd" stroke="none"/>
    <path d="M-316.25 -233.0 L-317.4 -232.4 -322.4 -237.15 -316.25 -233.0" fill="#e90000" fill-rule="evenodd" stroke="none"/>
    <path d="M-121.9 -300.0 L-113.75 -300.0 -110.4 -277.9 -114.0 -250.5 -114.15 -249.65 -115.5 -242.0 -115.65 -238.65 -116.15 -235.25 -116.65 -233.4 -117.15 -229.65 -126.15 -230.5 -127.9 -242.25 -127.15 -245.65 -127.25 -245.9 -126.5 -248.4 -125.15 -258.15 -125.25 -258.65 -124.9 -260.65 -124.9 -260.9 -125.0 -261.4 -120.75 -291.25 -121.0 -292.25 -121.9 -300.0" fill="#d60000" fill-rule="evenodd" stroke="none"/>
    <path d="M-114.0 -250.5 L-113.9 -250.0 -114.15 -249.65 -114.0 -248.15 -114.4 -243.0 -115.65 -238.65 -115.5 -236.75 -116.15 -235.25 -115.65 -238.65 -115.5 -242.0 -114.15 -249.65 -114.0 -250.5" fill="#d00000" fill-rule="evenodd" stroke="none"/>
    <path d="M-115.5 -236.75 L-115.25 -230.0 -116.25 -229.5 -117.15 -229.65 -116.65 -233.4 -116.15 -235.25 -115.5 -236.75" fill="#b40000" fill-rule="evenodd" stroke="none"/>
    <path d="M-126.15 -230.5 L-117.15 -229.65 -123.15 -205.15 -125.75 -225.4 -125.9 -226.15 -125.75 -226.65 -126.15 -230.5" fill="#d50000" fill-rule="evenodd" stroke="none"/>
    <path d="M-115.25 -230.0 L-115.15 -229.9 -115.5 -228.15 -122.75 -201.75 -123.25 -203.65 -123.15 -205.15 -117.15 -229.65 -116.25 -229.5 -115.25 -230.0" fill="#b30000" fill-rule="evenodd" stroke="none"/>
    <path d="M-276.75 -260.0 L-274.9 -256.9 -276.9 -255.75 -276.75 -260.0" fill="#ec0000" fill-rule="evenodd" stroke="none"/>
    <path d="M-148.65 -0.9 L-214.25 -0.9 -211.15 -19.65 -210.65 -30.75 -210.5 -31.0 -210.5 -32.75 -210.4 -33.5 -210.4 -34.15 -212.4 -46.5 -212.25 -46.75 -212.5 -47.0 -209.65 -70.4 -206.25 -125.75 -204.0 -144.0 -204.0 -144.4 -203.0 -153.4 -201.75 -153.25 -184.4 -153.25 -169.5 -150.15 -169.25 -150.0 -149.5 -149.65 -136.25 -150.25 -127.65 -152.75 -127.5 -152.15 -129.4 -119.5 -132.5 -95.0 -132.65 -94.25 -132.5 -94.15 -139.5 -61.9 -139.75 -61.4 -139.65 -61.0 -145.0 -36.0 -153.4 -24.75 -151.15 -11.9 -151.15 -11.25 -150.9 -10.4 -150.5 -10.0 -148.65 -0.9 M-295.4 -153.15 L-296.25 -159.0 -296.15 -159.25 -296.9 -163.15 -296.75 -163.5 -297.5 -167.4 -297.4 -167.65 -301.9 -198.5 -302.15 -199.0 -305.25 -220.5 -305.15 -220.75 -263.25 -190.25 -247.65 -178.25 -248.65 -177.75 -262.75 -170.25 -295.4 -153.15" fill="#aa0000" fill-opacity="0.9098039" fill-rule="evenodd" stroke="none"/>
    <path d="M-331.65 -136.9 L-331.5 -136.75 -337.4 -118.15 -352.65 -76.5 -358.4 -42.25 -358.75 -31.5 -361.65 -34.0 -359.4 -71.25 -345.9 -133.25 -331.65 -136.9" fill="#f60000" fill-opacity="0.9098039" fill-rule="evenodd" stroke="none"/>
    <path d="M-115.5 -228.15 L-115.4 -227.75 -125.25 -153.5 -127.5 -154.4 -127.4 -154.75 -127.5 -156.9 -124.4 -177.0 -121.5 -188.4 -121.65 -188.65 -122.9 -200.25 -122.75 -201.75 -115.5 -228.15" fill="#b80000" fill-rule="evenodd" stroke="none"/>
    <path d="M-123.25 -203.65 L-122.75 -201.75 -122.9 -200.25 -126.4 -187.9 -126.25 -187.75 -133.0 -163.0 -133.15 -163.4 -126.15 -192.15 -126.25 -192.4 -123.25 -203.65 M-133.5 -161.25 L-133.4 -161.4 -133.25 -162.0 -133.15 -162.5 -133.0 -163.0 -132.9 -162.9 -133.15 -162.5 -133.0 -162.25 -133.25 -162.0 -133.15 -161.75 -133.4 -161.4 -133.4 -161.25 -133.5 -161.25" fill="#9e0000" fill-opacity="0.9098039" fill-rule="evenodd" stroke="none"/>
    <path d="M-127.65 -152.75 L-127.5 -154.4 -125.25 -153.5 -127.65 -152.75" fill="#b50000" fill-rule="evenodd" stroke="none"/>
    <path d="M-133.0 -163.0 L-126.25 -187.75 -126.4 -187.9 -122.9 -200.25 -121.65 -188.65 -121.5 -188.4 -124.4 -177.0 -127.5 -156.9 -127.4 -154.75 -127.5 -154.4 -127.65 -152.75 -136.25 -150.25 -136.25 -150.9 -133.5 -161.25 -133.4 -161.25 -133.4 -161.4 -133.15 -161.75 -133.25 -162.0 -133.0 -162.25 -133.15 -162.5 -132.9 -162.9 -133.0 -163.0" fill="#a30000" fill-opacity="0.9098039" fill-rule="evenodd" stroke="none"/>
    <path d="M-359.15 -12.65 L-358.15 -13.5 -357.75 -14.75 -355.0 -2.5 -358.9 -2.4 -359.15 -4.9 -359.25 -5.15 -359.25 -5.5 -359.0 -9.0 -359.15 -12.65" fill="#ab0000" fill-opacity="0.9098039" fill-rule="evenodd" stroke="none"/>
    <path d="M-247.65 -178.25 L-246.4 -179.0 -217.15 -180.4 -214.75 -179.4 -214.65 -179.4 -213.75 -179.15 -211.0 -178.9 -210.25 -178.75 -209.4 -178.75 -203.25 -178.25 -201.9 -173.65 -201.75 -172.9 -201.25 -167.65 -201.25 -167.25 -201.5 -165.0 -201.5 -164.9 -203.0 -153.4 -215.9 -154.0 -239.0 -171.75 -239.25 -171.9 -247.65 -178.25" fill="#d10000" fill-rule="evenodd" stroke="none"/>
    <path d="M-214.25 -0.9 L-274.5 -0.9 -269.25 -20.15 -259.9 -73.0 -249.15 -122.0 -242.5 -172.4 -248.65 -177.75 -247.65 -178.25 -239.25 -171.9 -239.0 -171.75 -215.9 -154.0 -203.0 -153.4 -204.0 -144.4 -204.0 -144.0 -206.25 -125.75 -209.65 -70.4 -212.5 -47.0 -212.25 -46.75 -212.4 -46.5 -210.4 -34.15 -210.4 -33.5 -210.5 -32.75 -210.5 -31.0 -210.65 -30.75 -211.15 -19.65 -214.25 -0.9" fill="#ba0000" fill-rule="evenodd" stroke="none"/>
    <path d="M-248.65 -177.75 L-242.5 -172.4 -262.75 -170.25 -248.65 -177.75" fill="#b90000" fill-rule="evenodd" stroke="none"/>
    <path d="M-137.75 -0.9 L-148.65 -0.9 -150.5 -10.0 -150.9 -10.4 -151.15 -11.25 -151.15 -11.9 -153.4 -24.75 -145.0 -36.0 -139.65 -61.0 -139.75 -61.4 -139.5 -61.9 -132.5 -94.15 -132.65 -94.25 -132.5 -95.0 -129.4 -119.5 -128.15 -111.15 -135.15 -56.25 -137.75 -0.9 M-274.5 -0.9 L-298.9 -0.9 -293.25 -43.4 -290.5 -107.0 -293.5 -141.25 -295.4 -153.15 -262.75 -170.25 -242.5 -172.4 -249.15 -122.0 -259.9 -73.0 -269.25 -20.15 -274.5 -0.9" fill="#bb0000" fill-opacity="0.9098039" fill-rule="evenodd" stroke="none"/>
    <path d="M-125.25 -153.5 L-123.4 -107.25 -129.9 -61.15 -136.5 -4.25 -136.65 -0.9 -137.75 -0.9 -135.15 -56.25 -128.15 -111.15 -129.4 -119.5 -127.5 -152.15 -127.65 -152.75 -125.25 -153.5" fill="#bb0000" fill-rule="evenodd" stroke="none"/>
  </g>
  <defs>
    <radialGradient cx="0" cy="0" gradientTransform="matrix(0.0961, 0.0, 0.0, 0.0961, -256.55, -290.0)" gradientUnits="userSpaceOnUse" id="gradient0" r="819.2" spreadMethod="pad">
      <stop offset="0.0" stop-color="#6e6e6e"/>
      <stop offset="1.0" stop-color="#454545"/>
    </radialGradient>
    <radialGradient cx="0" cy="0" gradientTransform="matrix(0.1154, 0.0, 0.0, 0.1154, -186.95, -269.95)" gradientUnits="userSpaceOnUse" id="gradient1" r="819.2" spreadMethod="pad">
      <stop offset="0.0" stop-color="#838383"/>
      <stop offset="1.0" stop-color="#000000"/>
    </radialGradient>
    <radialGradient cx="0" cy="0" gradientTransform="matrix(0.067, 0.0, 0.0, 0.067, -287.95, -190.95)" gradientUnits="userSpaceOnUse" id="gradient2" r="819.2" spreadMethod="pad">
      <stop offset="0.0" stop-color="#737373"/>
      <stop offset="1.0" stop-color="#1a1a1a"/>
    </radialGradient>
    <radialGradient cx="0" cy="0" gradientTransform="matrix(0.0954, 0.0, 0.0, 0.0954, -252.25, -211.45)" gradientUnits="userSpaceOnUse" id="gradient3" r="819.2" spreadMethod="pad">
      <stop offset="0.0" stop-color="#464646"/>
      <stop offset="1.0" stop-color="#010101"/>
    </radialGradient>
    <radialGradient cx="0" cy="0" gradientTransform="matrix(0.1054, 0.0, 0.0, 0.1054, -315.1, -211.1)" gradientUnits="userSpaceOnUse" id="gradient4" r="819.2" spreadMethod="pad">
      <stop offset="0.0" stop-color="#0e0e0e"/>
      <stop offset="1.0" stop-color="#000000"/>
    </radialGradient>
    <radialGradient cx="0" cy="0" gradientTransform="matrix(0.1533, 0.0, 0.0, 0.1533, -284.8, -182.9)" gradientUnits="userSpaceOnUse" id="gradient5" r="819.2" spreadMethod="pad">
      <stop offset="0.0" stop-color="#7f7f7f"/>
      <stop offset="1.0" stop-color="#292929"/>
    </radialGradient>
    <radialGradient cx="0" cy="0" gradientTransform="matrix(0.065, 0.0, 0.0, 0.065, -128.55, -194.25)" gradientUnits="userSpaceOnUse" id="gradient6" r="819.2" spreadMethod="pad">
      <stop offset="0.0" stop-color="#000000"/>
      <stop offset="1.0" stop-color="#000000"/>
    </radialGradient>
    <radialGradient cx="0" cy="0" gradientTransform="matrix(0.0738, 0.0, 0.0, 0.0738, -202.15, -178.25)" gradientUnits="userSpaceOnUse" id="gradient7" r="819.2" spreadMethod="pad">
      <stop offset="0.0" stop-color="#494949"/>
      <stop offset="1.0" stop-color="#000000"/>
    </radialGradient>
    <radialGradient cx="0" cy="0" gradientTransform="matrix(0.0841, 0.0, 0.0, 0.0841, -284.8, -182.9)" gradientUnits="userSpaceOnUse" id="gradient8" r="819.2" spreadMethod="pad">
      <stop offset="0.0" stop-color="#7f7f7f"/>
      <stop offset="1.0" stop-color="#000000"/>
    </radialGradient>
    <radialGradient cx="0" cy="0" gradientTransform="matrix(0.0337, 0.0, 0.0, 0.0337, -239.1, -217.55)" gradientUnits="userSpaceOnUse" id="gradient9" r="819.2" spreadMethod="pad">
      <stop offset="0.0" stop-color="#000000"/>
      <stop offset="1.0" stop-color="#000000"/>
    </radialGradient>
    <radialGradient cx="0" cy="0" gradientTransform="matrix(0.0443, 0.0, 0.0, 0.0443, -252.25, -211.45)" gradientUnits="userSpaceOnUse" id="gradient10" r="819.2" spreadMethod="pad">
      <stop offset="0.0" stop-color="#464646"/>
      <stop offset="1.0" stop-color="#000000"/>
    </radialGradient>
    <radialGradient cx="0" cy="0" gradientTransform="matrix(0.2147, 0.0, 0.0, 0.2147, -149.5, -200.25)" gradientUnits="userSpaceOnUse" id="gradient11" r="819.2" spreadMethod="pad">
      <stop offset="0.0" stop-color="#666666"/>
      <stop offset="1.0" stop-color="#0c0c0c"/>
    </radialGradient>
    <radialGradient cx="0" cy="0" gradientTransform="matrix(0.0125, 0.0, 0.0, 0.0125, -214.05, -179.2)" gradientUnits="userSpaceOnUse" id="gradient12" r="819.2" spreadMethod="pad">
      <stop offset="0.0" stop-color="#000000"/>
      <stop offset="1.0" stop-color="#000000"/>
    </radialGradient>
    <radialGradient cx="0" cy="0" gradientTransform="matrix(0.2019, 0.0, 0.0, 0.2019, -390.15, -132.1)" gradientUnits="userSpaceOnUse" id="gradient13" r="819.2" spreadMethod="pad">
      <stop offset="0.0" stop-color="#565656"/>
      <stop offset="1.0" stop-color="#000000"/>
    </radialGradient>
    <radialGradient cx="0" cy="0" gradientTransform="matrix(0.1616, 0.0, 0.0, 0.1616, -193.5, -164.85)" gradientUnits="userSpaceOnUse" id="gradient14" r="819.2" spreadMethod="pad">
      <stop offset="0.0" stop-color="#575757"/>
      <stop offset="1.0" stop-color="#151515"/>
    </radialGradient>
    <radialGradient cx="0" cy="0" gradientTransform="matrix(0.0226, 0.0, 0.0, 0.0226, -205.4, -30.2)" gradientUnits="userSpaceOnUse" id="gradient15" r="819.2" spreadMethod="pad">
      <stop offset="0.0" stop-color="#040404"/>
      <stop offset="1.0" stop-color="#020202"/>
    </radialGradient>
    <radialGradient cx="0" cy="0" gradientTransform="matrix(0.0358, 0.0, 0.0, 0.0358, -204.5, -25.35)" gradientUnits="userSpaceOnUse" id="gradient16" r="819.2" spreadMethod="pad">
      <stop offset="0.0" stop-color="#383838"/>
      <stop offset="1.0" stop-color="#000000"/>
    </radialGradient>
    <radialGradient cx="0" cy="0" gradientTransform="matrix(0.051, 0.0, 0.0, 0.051, -185.7, -20.45)" gradientUnits="userSpaceOnUse" id="gradient17" r="819.2" spreadMethod="pad">
      <stop offset="0.0" stop-color="#1c1c1c"/>
      <stop offset="1.0" stop-color="#000000"/>
    </radialGradient>
    <radialGradient cx="0" cy="0" gradientTransform="matrix(0.0466, 0.0, 0.0, 0.0466, -183.05, -32.85)" gradientUnits="userSpaceOnUse" id="gradient18" r="819.2" spreadMethod="pad">
      <stop offset="0.0" stop-color="#393939"/>
      <stop offset="1.0" stop-color="#000000"/>
    </radialGradient>
    <radialGradient cx="0" cy="0" gradientTransform="matrix(0.1277, 0.0, 0.0, 0.1277, -149.6, -132.0)" gradientUnits="userSpaceOnUse" id="gradient19" r="819.2" spreadMethod="pad">
      <stop offset="0.0" stop-color="#494949"/>
      <stop offset="1.0" stop-color="#131313"/>
    </radialGradient>
    <radialGradient cx="0" cy="0" gradientTransform="matrix(0.0222, 0.0, 0.0, 0.0222, -196.65, -180.3)" gradientUnits="userSpaceOnUse" id="gradient20" r="819.2" spreadMethod="pad">
      <stop offset="0.0" stop-color="#000000"/>
      <stop offset="1.0" stop-color="#000000"/>
    </radialGradient>
    <radialGradient cx="0" cy="0" gradientTransform="matrix(0.2043, 0.0, 0.0, 0.2043, -389.3, -168.1)" gradientUnits="userSpaceOnUse" id="gradient21" r="819.2" spreadMethod="pad">
      <stop offset="0.0" stop-color="#2e2e2e"/>
      <stop offset="1.0" stop-color="#020202"/>
    </radialGradient>
    <radialGradient cx="0" cy="0" gradientTransform="matrix(0.1598, 0.0, 0.0, 0.1598, -387.2, -143.65)" gradientUnits="userSpaceOnUse" id="gradient22" r="819.2" spreadMethod="pad">
      <stop offset="0.0" stop-color="#292929"/>
      <stop offset="1.0" stop-color="#040404"/>
    </radialGradient>
    <radialGradient cx="0" cy="0" gradientTransform="matrix(0.0534, 0.0, 0.0, 0.0534, -364.15, -36.25)" gradientUnits="userSpaceOnUse" id="gradient23" r="819.2" spreadMethod="pad">
      <stop offset="0.0" stop-color="#212121"/>
      <stop offset="1.0" stop-color="#212121"/>
    </radialGradient>
    <radialGradient cx="0" cy="0" gradientTransform="matrix(0.0538, 0.0, 0.0, 0.0538, -399.55, -11.15)" gradientUnits="userSpaceOnUse" id="gradient24" r="819.2" spreadMethod="pad">
      <stop offset="0.0" stop-color="#b5b5b5"/>
      <stop offset="1.0" stop-color="#2e2e2e"/>
    </radialGradient>
    <radialGradient cx="0" cy="0" gradientTransform="matrix(0.0208, 0.0, 0.0, 0.0208, -358.9, -5.5)" gradientUnits="userSpaceOnUse" id="gradient25" r="819.2" spreadMethod="pad">
      <stop offset="0.0" stop-color="#444444"/>
      <stop offset="1.0" stop-color="#2a2a2a"/>
    </radialGradient>
    <radialGradient cx="0" cy="0" gradientTransform="matrix(0.0638, 0.0, 0.0, 0.0638, -358.45, -103.3)" gradientUnits="userSpaceOnUse" id="gradient26" r="819.2" spreadMethod="pad">
      <stop offset="0.0" stop-color="#424242"/>
      <stop offset="1.0" stop-color="#080808"/>
    </radialGradient>
    <radialGradient cx="0" cy="0" gradientTransform="matrix(0.0326, 0.0, 0.0, 0.0326, -203.8, -40.1)" gradientUnits="userSpaceOnUse" id="gradient27" r="819.2" spreadMethod="pad">
      <stop offset="0.0" stop-color="#4d4d4d"/>
      <stop offset="1.0" stop-color="#2e2e2e"/>
    </radialGradient>
    <radialGradient cx="0" cy="0" gradientTransform="matrix(0.0133, 0.0, 0.0, 0.0133, -371.75, -1.0)" gradientUnits="userSpaceOnUse" id="gradient28" r="819.2" spreadMethod="pad">
      <stop offset="0.0" stop-color="#000000"/>
      <stop offset="1.0" stop-color="#000000"/>
    </radialGradient>
  </defs>
</svg>
