<?xml version="1.0" encoding="UTF-8" standalone="no"?>
<svg xmlns:xlink="http://www.w3.org/1999/xlink" height="299.1px" width="288.5px" xmlns="http://www.w3.org/2000/svg">
  <g transform="matrix(1.0, 0.0, 0.0, 1.0, 400.0, 300.0)">
    <path d="M-122.65 -289.9 L-121.75 -287.4 -122.15 -249.25 -129.25 -226.75 -134.15 -212.0 -134.4 -210.0 -142.75 -178.15 -149.25 -177.75 -167.9 -178.0 -180.9 -184.5 -182.25 -184.9 -193.4 -181.0 -206.65 -181.75 -248.65 -199.65 -248.9 -199.75 -248.9 -200.9 -248.5 -201.4 -229.25 -252.75 -224.15 -300.0 -126.5 -300.0 -123.0 -290.9 -123.0 -290.15 -122.65 -289.9" fill="url(#gradient0)" fill-rule="evenodd" stroke="none"/>
    <path d="M-122.65 -289.9 L-123.0 -290.15 -123.0 -290.9 -126.5 -300.0 -123.9 -300.0 -122.65 -289.9" fill="url(#gradient1)" fill-rule="evenodd" stroke="none"/>
    <path d="M-142.75 -178.15 L-134.4 -210.0 -134.15 -212.0 -129.25 -226.75 -124.5 -181.4 -127.5 -169.75 -130.4 -150.4 -137.0 -155.15 -137.15 -158.25 -135.4 -171.25 -136.5 -174.15 -143.25 -172.25 -144.0 -171.65 -144.75 -166.75 -147.65 -163.0 -150.75 -165.25 -148.65 -171.9 -142.75 -178.15 M-135.0 -190.65 L-136.65 -190.65 -137.4 -190.75 -138.9 -190.75 -139.0 -189.25 -134.5 -189.4 -134.15 -190.4 -134.4 -190.5 -135.0 -190.65" fill="url(#gradient2)" fill-rule="evenodd" stroke="none"/>
    <path d="M-248.65 -199.65 L-206.65 -181.75 -193.4 -181.0 -182.25 -184.9 -180.9 -184.5 -167.9 -178.0 -149.25 -177.75 -142.75 -178.15 -148.65 -171.9 -150.75 -165.25 -166.25 -169.25 -184.4 -169.15 -204.75 -169.75 -214.65 -170.4 -214.9 -170.75 -220.25 -172.25 -220.5 -172.65 -222.15 -176.15 -222.15 -176.65 -244.25 -195.65 -244.4 -195.9 -245.25 -196.5 -245.9 -197.25 -246.25 -197.4 -246.5 -197.65 -247.5 -198.5 -248.65 -199.65 M-178.5 -169.65 L-179.15 -169.9 -192.65 -170.25 -181.0 -169.25 -178.5 -169.65" fill="url(#gradient3)" fill-rule="evenodd" stroke="none"/>
    <path d="M-248.9 -199.75 L-248.65 -199.65 -247.5 -198.5 -253.75 -188.15 -240.15 -182.9 -238.9 -183.0 -238.9 -183.25 -246.9 -197.5 -247.15 -198.0 -246.5 -197.65 -246.25 -197.4 -245.9 -197.25 -245.25 -196.5 -244.4 -195.9 -244.25 -195.65 -222.5 -175.5 -222.15 -176.15 -220.5 -172.65 -220.25 -172.25 -214.9 -170.75 -215.5 -170.75 -250.65 -168.5 -267.4 -167.5 -275.15 -168.9 -283.5 -171.75 -315.15 -200.4 -248.9 -199.75" fill="url(#gradient4)" fill-rule="evenodd" stroke="none"/>
    <path d="M-248.9 -200.9 L-248.9 -199.75 -315.15 -200.4 -315.4 -200.5 -331.9 -217.9 -296.5 -233.65 -265.25 -254.15 -265.25 -254.25 Q-261.25 -257.75 -241.0 -254.25 L-248.65 -202.25 -249.15 -204.4 -249.15 -204.5 -251.15 -215.4 -251.25 -216.5 -251.65 -216.65 -259.9 -210.15 -249.65 -201.15 -248.9 -200.9" fill="url(#gradient5)" fill-rule="evenodd" stroke="none"/>
    <path d="M-248.5 -201.4 L-248.9 -200.9 -249.65 -201.15 -259.9 -210.15 -251.65 -216.65 -251.25 -216.5 -251.15 -215.4 -251.0 -211.65 -249.15 -204.5 -249.15 -204.4 -248.65 -202.25 -248.5 -201.4 M-247.15 -198.0 L-246.9 -197.5 -243.75 -189.9 -238.9 -183.25 -238.9 -183.0 -240.15 -182.9 -253.75 -188.15 -247.5 -198.5 -247.15 -198.0" fill="url(#gradient6)" fill-rule="evenodd" stroke="none"/>
    <path d="M-224.15 -300.0 L-229.25 -252.75 -248.5 -201.4 -248.65 -202.25 -241.0 -254.25 Q-261.25 -257.75 -265.25 -254.25 L-264.15 -262.75 -260.25 -278.0 -258.15 -300.0 -224.15 -300.0" fill="url(#gradient7)" fill-rule="evenodd" stroke="none"/>
    <path d="M-246.9 -197.5 L-238.9 -183.25 -243.75 -189.9 -246.9 -197.5 M-249.15 -204.5 L-251.0 -211.65 -251.15 -215.4 -249.15 -204.5" fill="url(#gradient8)" fill-rule="evenodd" stroke="none"/>
    <path d="M-400.0 -188.9 L-400.0 -193.9 -346.5 -214.5 -331.9 -217.9 -315.4 -200.5 -348.65 -209.9 -364.9 -199.25 -400.0 -188.9" fill="url(#gradient9)" fill-rule="evenodd" stroke="none"/>
    <path d="M-400.0 -128.25 L-400.0 -188.9 -364.9 -199.25 -348.65 -209.9 -315.4 -200.5 -315.15 -200.4 -283.5 -171.75 -275.15 -168.9 -341.15 -132.4 -367.9 -125.4 -391.9 -122.25 -394.0 -123.15 -397.75 -127.0 -400.0 -128.25" fill="url(#gradient10)" fill-rule="evenodd" stroke="none"/>
    <path d="M-250.65 -168.5 Q-281.9 -152.3 -313.15 -136.15 L-330.75 -127.75 -353.9 -122.4 -364.75 -120.75 -374.0 -119.5 -376.15 -120.25 -391.9 -122.25 -367.9 -125.4 -341.15 -132.4 -275.15 -168.9 -267.4 -167.5 -250.65 -168.5" fill="url(#gradient11)" fill-rule="evenodd" stroke="none"/>
    <path d="M-364.75 -120.75 L-364.5 -118.65 -365.15 -109.75 -365.25 -109.25 -364.0 -86.5 -364.5 -80.5 -364.5 -80.25 -365.25 -74.5 -370.0 -40.4 -370.75 -27.0 -371.5 -16.4 -373.9 -14.25 -376.0 -13.0 -376.25 -13.25 -377.25 -12.15 -383.5 -7.5 -386.9 -6.9 -385.15 -35.0 -390.25 -39.0 -390.75 -39.0 -397.15 -33.65 -398.15 -4.25 -399.9 -3.9 -400.0 -122.65 -397.5 -122.4 -394.0 -123.15 -391.9 -122.25 -376.15 -120.25 -374.0 -119.5 -364.75 -120.75" fill="url(#gradient12)" fill-rule="evenodd" stroke="none"/>
    <path d="M-400.0 -122.65 L-400.0 -128.25 -397.75 -127.0 -394.0 -123.15 -397.5 -122.4 -400.0 -122.65 M-398.15 -4.25 L-397.15 -33.65 -390.75 -39.0 -390.25 -39.0 -385.15 -35.0 -386.9 -6.9 -391.75 -5.15 -398.15 -4.25 M-377.25 -12.15 L-376.25 -13.25 -376.0 -13.0 -377.25 -12.15" fill="url(#gradient13)" fill-rule="evenodd" stroke="none"/>
    <path d="M-222.15 -176.15 L-222.5 -175.5 -244.25 -195.65 -222.15 -176.65 -222.15 -176.15 M-246.5 -197.65 L-247.15 -198.0 -247.5 -198.5 -246.5 -197.65" fill="url(#gradient14)" fill-rule="evenodd" stroke="none"/>
    <path d="M-135.0 -190.65 L-134.4 -190.5 -134.15 -190.4 -134.5 -189.4 -139.0 -189.25 -138.9 -190.75 -137.4 -190.75 -136.65 -190.65 -135.0 -190.65 M-147.65 -163.0 L-144.75 -166.75 -144.0 -171.65 -143.25 -172.25 -136.5 -174.15 -135.4 -171.25 -137.15 -158.25 -137.0 -155.15 -139.4 -153.5 Q-146.75 -159.65 -147.65 -163.0 M-145.75 -153.4 L-154.4 -158.15 -157.65 -163.15 -153.75 -162.75 -145.75 -156.15 Q-143.9 -154.0 -145.75 -153.4 M-154.15 -25.15 Q-157.15 -21.65 -157.9 -21.75 L-158.4 -21.75 -157.4 -26.5 -156.5 -27.0 -154.15 -25.15 M-163.65 -20.15 L-165.25 -20.15 -163.15 -24.5 Q-161.15 -20.4 -163.65 -20.15" fill="url(#gradient15)" fill-rule="evenodd" stroke="none"/>
    <path d="M-214.65 -170.4 L-215.5 -170.75 -214.9 -170.75 -214.65 -170.4" fill="url(#gradient16)" fill-rule="evenodd" stroke="none"/>
    <path d="M-214.4 -40.65 L-214.5 -41.75 -211.5 -66.15 -208.75 -118.75 -203.75 -160.65 -204.75 -169.4 -204.75 -169.75 -184.4 -169.15 -183.65 -153.65 -189.15 -110.65 -188.9 -110.5 -192.4 -53.4 -183.25 -26.25 -204.4 -33.0 -210.4 -37.25 -214.4 -40.65" fill="url(#gradient17)" fill-rule="evenodd" stroke="none"/>
    <path d="M-212.9 -30.5 L-214.4 -40.65 -210.4 -37.25 -204.4 -33.0 -183.25 -26.25 -186.0 -14.0 -205.0 -18.5 -207.15 -24.25 -212.4 -27.75 -212.4 -28.15 -212.9 -30.5" fill="url(#gradient18)" fill-rule="evenodd" stroke="none"/>
    <path d="M-212.9 -29.65 L-212.9 -30.5 -212.4 -28.15 -212.75 -29.0 -212.75 -29.65 -212.9 -29.65" fill="url(#gradient19)" fill-rule="evenodd" stroke="none"/>
    <path d="M-213.0 -20.15 L-212.9 -29.65 -212.75 -29.65 -212.75 -29.0 -212.4 -28.15 -212.4 -27.75 -213.0 -20.15" fill="url(#gradient20)" fill-rule="evenodd" stroke="none"/>
    <path d="M-188.4 -0.9 L-215.25 -0.9 -213.4 -12.9 -213.15 -17.9 -213.0 -18.5 -213.0 -20.15 -212.4 -27.75 -207.15 -24.25 -205.0 -18.5 -186.0 -14.0 -188.5 -1.65 -188.4 -0.9" fill="url(#gradient21)" fill-rule="evenodd" stroke="none"/>
    <path d="M-178.5 -169.65 L-181.0 -169.25 -192.65 -170.25 -179.15 -169.9 -178.5 -169.65" fill="url(#gradient22)" fill-rule="evenodd" stroke="none"/>
    <path d="M-130.4 -150.4 L-132.0 -119.25 -135.65 -89.0 -143.15 -53.9 -147.4 -31.4 -157.0 -27.75 -167.15 -26.25 -183.25 -26.25 -192.4 -53.4 -188.9 -110.5 -189.15 -110.65 -183.65 -153.65 -184.4 -169.15 -166.25 -169.25 -150.75 -165.25 -147.65 -163.0 Q-146.75 -159.65 -139.4 -153.5 L-137.0 -155.15 -130.4 -150.4 M-145.75 -153.4 Q-143.9 -154.0 -145.75 -156.15 L-153.75 -162.75 -157.65 -163.15 -154.4 -158.15 -145.75 -153.4" fill="url(#gradient23)" fill-rule="evenodd" stroke="none"/>
    <path d="M-147.4 -31.4 L-156.15 -20.5 -160.15 -15.15 -169.0 -13.75 -186.0 -14.0 -183.25 -26.25 -167.15 -26.25 -157.0 -27.75 -147.4 -31.4 M-154.15 -25.15 L-156.5 -27.0 -157.4 -26.5 -158.4 -21.75 -157.9 -21.75 Q-157.15 -21.65 -154.15 -25.15 M-163.65 -20.15 Q-161.15 -20.4 -163.15 -24.5 L-165.25 -20.15 -163.65 -20.15" fill="url(#gradient24)" fill-rule="evenodd" stroke="none"/>
    <path d="M-364.5 -80.25 L-364.5 -77.25 -365.25 -74.5 -364.5 -80.25" fill="url(#gradient25)" fill-rule="evenodd" stroke="none"/>
    <path d="M-156.15 -20.5 L-153.4 -6.25 -151.9 -0.9 -188.4 -0.9 -188.5 -1.65 -186.0 -14.0 -169.0 -13.75 -160.15 -15.15 -156.15 -20.5" fill="url(#gradient26)" fill-rule="evenodd" stroke="none"/>
    <path d="M-370.75 -27.0 L-364.25 -21.9 -362.65 -15.75 -362.75 -15.0 -362.75 -14.9 -366.25 -9.15 -367.15 -8.65 -366.75 -9.15 -366.9 -9.75 -367.65 -11.0 -369.25 -7.15 -375.75 -3.15 -383.65 -0.9 -399.75 -0.9 -399.9 -3.9 -398.15 -4.25 -391.75 -5.15 -386.9 -6.9 -383.5 -7.5 -377.25 -12.15 -376.0 -13.0 -373.9 -14.25 -371.5 -16.4 -370.75 -27.0" fill="url(#gradient27)" fill-rule="evenodd" stroke="none"/>
    <path d="M-362.75 -14.9 L-362.75 -4.15 -363.65 -2.5 -364.5 -0.9 -367.15 -0.9 -367.15 -8.65 -366.25 -9.15 -362.75 -14.9 M-371.5 -0.9 L-383.65 -0.9 -375.75 -3.15 -369.25 -7.15 -371.5 -0.9" fill="url(#gradient28)" fill-rule="evenodd" stroke="none"/>
    <path d="M-363.65 -2.5 L-363.5 -0.9 -364.5 -0.9 -363.65 -2.5 M-367.15 -0.9 L-371.5 -0.9 -369.25 -7.15 -367.65 -11.0 -366.9 -9.75 -366.75 -9.15 -367.15 -8.65 -367.15 -0.9" fill="url(#gradient29)" fill-rule="evenodd" stroke="none"/>
    <path d="M-258.15 -300.0 L-226.75 -300.0 -231.0 -290.0 -230.9 -288.9 -233.65 -265.5 -233.5 -264.4 -236.75 -235.75 -247.5 -208.5 -248.15 -206.15 -249.15 -204.5 -249.15 -204.25 -249.0 -204.0 -249.0 -203.75 -249.25 -203.65 -250.15 -201.75 -250.0 -201.5 -250.4 -200.75 -251.5 -197.9 -251.75 -197.4 -258.9 -179.15 -257.0 -192.25 -257.15 -193.0 -256.9 -193.5 -255.25 -204.4 -255.4 -204.65 -255.0 -205.9 -255.15 -206.15 -253.75 -214.4 -253.9 -214.75 -253.75 -215.0 -252.4 -223.0 -252.4 -225.4 -250.4 -237.4 -250.5 -237.9 -268.25 -239.9 Q-269.15 -239.75 -271.0 -243.0 L-274.75 -247.9 -265.25 -254.15 -265.25 -254.25 -264.15 -262.15 -260.5 -277.5 -260.25 -278.0 -260.25 -278.9 -259.65 -285.15 -259.5 -285.5 -259.5 -286.15 -259.4 -286.75 -259.4 -287.15 -259.25 -288.0 -259.25 -288.15 -259.4 -288.75 -259.25 -289.15 -259.25 -289.25 -258.15 -300.0" fill="#e30000" fill-opacity="0.9098039" fill-rule="evenodd" stroke="none"/>
    <path d="M-276.9 -250.9 L-272.15 -265.65 -269.75 -290.9 -264.25 -299.75 -258.15 -300.0 -259.25 -289.25 -259.25 -289.15 -259.4 -288.75 -266.9 -273.25 -275.15 -250.0 -275.65 -249.4 -276.75 -250.65 -276.75 -250.75 -276.9 -250.9" fill="#f50000" fill-rule="evenodd" stroke="none"/>
    <path d="M-324.9 -228.4 L-276.9 -250.9 -276.75 -250.75 -276.75 -250.65 -277.5 -246.25 -277.5 -246.15 -296.75 -233.5 -298.15 -232.9 -298.4 -232.75 -298.65 -232.65 -298.9 -232.5 -299.0 -232.5 -318.5 -223.9 -323.5 -227.25 -324.9 -228.4 M-276.0 -247.25 L-275.5 -249.15 -274.75 -247.9 -276.0 -247.25" fill="#ea0000" fill-rule="evenodd" stroke="none"/>
    <path d="M-400.0 -193.9 L-400.0 -210.25 -324.9 -228.4 -323.5 -227.25 -319.5 -223.5 -331.9 -217.9 -345.5 -214.75 -345.5 -214.65 -363.9 -207.65 -364.15 -207.5 -364.25 -207.5 -364.5 -207.4 -364.65 -207.4 -400.0 -193.9 M-276.75 -250.65 L-275.65 -249.4 -275.5 -249.15 -276.0 -247.25 -276.15 -247.0 -277.5 -246.25 -276.75 -250.65 M-364.4 -94.0 L-365.5 -108.4 -365.25 -108.5 -365.25 -109.25 -365.0 -109.4 -365.15 -109.75 -364.5 -118.65 -364.75 -120.75 -358.4 -121.5 -364.4 -94.0" fill="#ec0000" fill-rule="evenodd" stroke="none"/>
    <path d="M-304.0 -209.25 L-321.0 -146.25 -321.25 -145.9 -321.9 -143.15 -322.0 -142.9 -325.0 -131.9 -325.0 -131.4 -325.25 -131.0 -325.5 -130.0 -330.15 -128.15 -330.65 -127.9 -358.4 -121.5 -364.75 -120.75 -364.5 -118.65 -365.15 -109.75 -365.0 -109.4 -365.25 -109.25 -365.25 -108.5 -365.5 -108.4 -364.4 -94.0 -364.15 -85.65 -364.0 -85.25 -364.4 -81.25 -364.25 -80.65 -364.5 -80.25 -364.4 -78.5 -366.9 -63.15 -366.9 -62.25 -370.0 -40.5 -370.75 -27.0 -364.25 -21.75 -362.65 -15.5 -362.75 -15.0 -362.75 -4.15 -363.65 -2.5 -363.5 -0.9 -371.65 -1.0 -371.9 -0.9 -400.0 -0.9 -400.0 -107.75 -399.9 -108.15 -400.0 -163.0 -399.9 -163.25 -400.0 -193.9 -364.65 -207.4 -364.5 -207.4 -364.25 -207.5 -364.15 -207.5 -363.9 -207.65 -345.5 -214.65 -345.5 -214.75 -331.9 -217.9 -319.5 -223.5 -304.0 -209.75 -304.0 -209.25" fill="#dd0000" fill-opacity="0.9098039" fill-rule="evenodd" stroke="none"/>
    <path d="M-318.5 -223.9 L-319.5 -223.5 -323.5 -227.25 -318.5 -223.9" fill="#e90000" fill-rule="evenodd" stroke="none"/>
    <path d="M-226.75 -300.0 L-180.4 -300.0 -179.4 -299.75 -163.75 -299.9 -163.25 -300.0 -155.9 -299.9 -155.0 -300.0 -127.9 -299.75 -126.5 -300.0 -123.9 -300.0 -122.9 -290.75 -123.0 -290.25 -122.75 -289.9 -121.9 -287.5 -121.75 -285.25 -122.25 -249.65 -129.4 -226.15 -129.0 -223.75 -128.75 -219.0 -128.9 -218.65 -128.65 -217.9 -125.65 -192.25 -125.65 -191.75 -125.75 -191.15 -127.5 -184.15 -127.4 -184.0 -127.4 -183.75 -128.15 -180.9 -128.25 -180.75 -130.0 -172.4 -130.25 -171.65 -130.5 -170.5 -130.5 -170.25 -130.75 -169.25 -130.9 -168.9 -130.9 -168.4 -131.0 -168.25 -131.0 -167.9 -131.15 -167.75 -131.15 -167.4 -131.25 -167.25 -131.25 -166.9 -131.4 -166.75 -131.4 -166.4 -131.5 -166.25 -131.5 -165.9 -131.65 -165.75 -131.65 -165.4 -131.75 -165.25 -131.75 -164.9 -131.9 -164.65 -131.9 -164.25 -132.0 -164.15 -132.0 -163.75 -132.15 -163.65 -132.15 -163.25 -132.25 -163.15 -132.25 -162.75 -132.4 -162.65 -132.4 -162.25 -132.5 -162.15 -132.5 -161.75 -132.65 -161.65 -132.65 -161.25 -132.75 -161.0 -132.75 -160.65 -132.9 -160.5 -132.9 -160.25 -133.0 -160.0 -133.0 -159.75 -133.0 -159.5 -133.4 -158.0 -133.5 -157.4 -133.75 -156.4 -133.9 -156.15 -134.15 -155.15 -134.25 -155.0 -134.15 -154.9 -134.65 -153.5 -134.5 -153.4 -134.5 -153.25 -137.0 -142.65 -137.9 -142.25 -146.0 -140.75 -164.65 -139.9 -167.9 -140.25 -168.25 -140.5 -182.9 -143.4 -196.25 -142.0 -206.0 -142.15 -203.75 -160.4 -203.9 -160.9 -204.75 -169.4 -204.75 -169.75 -206.15 -169.9 -209.0 -169.9 -209.5 -170.0 -214.65 -170.4 -215.5 -170.75 -246.9 -168.75 -259.25 -178.15 -258.9 -179.15 -251.75 -197.4 -251.5 -197.9 -250.4 -200.75 -250.0 -201.5 -250.15 -201.75 -249.25 -203.65 -249.0 -203.75 -249.0 -204.0 -249.15 -204.25 -249.15 -204.5 -248.15 -206.15 -247.5 -208.5 -236.75 -235.75 -233.5 -264.4 -233.65 -265.5 -230.9 -288.9 -231.0 -290.0 -226.75 -300.0" fill="#c30000" fill-opacity="0.9098039" fill-rule="evenodd" stroke="none"/>
    <path d="M-258.9 -179.15 L-259.25 -178.15 -304.0 -209.75 -319.5 -223.5 -318.5 -223.9 -299.0 -232.5 -298.9 -232.5 -298.65 -232.65 -298.4 -232.75 -298.15 -232.9 -296.75 -233.5 -277.5 -246.15 -277.5 -246.25 -276.15 -247.0 -276.0 -247.25 -274.75 -247.9 -271.0 -243.0 Q-269.15 -239.75 -268.25 -239.9 L-250.5 -237.9 -250.4 -237.4 -252.4 -225.4 -252.4 -223.0 -253.75 -215.0 -253.9 -214.75 -253.75 -214.4 -255.15 -206.15 -255.0 -205.9 -255.4 -204.65 -255.25 -204.4 -256.9 -193.5 -257.15 -193.0 -257.0 -192.25 -258.9 -179.15" fill="#da0000" fill-opacity="0.9098039" fill-rule="evenodd" stroke="none"/>
    <path d="M-259.4 -288.75 L-259.25 -288.15 -259.25 -288.0 -259.4 -287.15 -259.4 -286.75 -259.5 -286.15 -259.5 -285.5 -259.65 -285.15 -260.25 -278.9 -260.25 -278.0 -260.5 -277.5 -264.15 -262.15 -265.25 -254.25 -265.25 -254.15 -274.75 -247.9 -275.5 -249.15 -275.65 -249.4 -275.15 -250.0 -266.9 -273.25 -259.4 -288.75" fill="#f30000" fill-rule="evenodd" stroke="none"/>
    <path d="M-123.9 -300.0 L-123.25 -300.0 -112.15 -270.5 -112.0 -269.9 -117.75 -228.25 -118.0 -232.75 -118.4 -232.65 -118.25 -224.65 -118.4 -222.65 -129.0 -223.75 -129.4 -226.15 -122.25 -249.65 -121.75 -285.25 -121.9 -287.5 -122.75 -289.9 -123.0 -290.25 -122.9 -290.75 -123.9 -300.0" fill="#d90000" fill-rule="evenodd" stroke="none"/>
    <path d="M-113.15 -278.0 L-112.65 -276.15 -111.5 -273.9 -111.5 -272.9 -111.65 -271.9 -111.5 -231.75 -119.75 -207.9 -120.5 -204.75 -125.65 -190.65 -125.75 -191.15 -125.65 -191.75 -125.65 -192.25 -118.4 -222.65 -118.25 -224.65 -117.9 -224.9 -117.75 -228.25 -112.0 -269.9 -112.15 -270.5 -123.25 -300.0 -122.25 -300.0 -113.15 -278.0 M-246.9 -168.75 L-215.5 -170.75 -214.65 -170.4 -209.5 -170.0 -209.0 -169.9 -206.15 -169.9 -204.75 -169.75 -204.75 -169.4 -203.9 -160.9 -224.65 -161.9 -240.25 -164.0 -240.65 -164.15 -246.9 -168.75" fill="#d30000" fill-rule="evenodd" stroke="none"/>
    <path d="M-117.75 -228.25 L-117.9 -224.9 -118.25 -224.65 -118.4 -232.65 -118.0 -232.75 -117.75 -228.25 M-118.4 -222.65 L-125.65 -192.25 -128.65 -217.9 -128.9 -218.65 -128.75 -219.0 -129.0 -223.75 -118.4 -222.65" fill="#d80000" fill-rule="evenodd" stroke="none"/>
    <path d="M-122.25 -300.0 L-115.9 -300.0 -113.15 -278.0 -122.25 -300.0" fill="#b70000" fill-rule="evenodd" stroke="none"/>
    <path d="M-120.5 -204.75 L-120.4 -204.15 -128.9 -147.4 -130.5 -148.15 -130.4 -149.75 -130.5 -150.4 -127.4 -170.25 -124.5 -181.4 -124.65 -181.5 -125.5 -189.75 -125.5 -190.25 -125.65 -190.65 -120.5 -204.75" fill="#b80000" fill-rule="evenodd" stroke="none"/>
    <path d="M-125.75 -191.15 L-125.65 -190.65 -125.5 -190.25 -125.5 -189.75 -127.15 -183.75 -127.15 -183.65 -130.0 -171.9 -130.15 -171.65 -130.15 -171.4 -130.25 -170.5 -130.9 -168.4 -130.9 -168.9 -130.75 -169.25 -130.5 -170.25 -130.5 -170.5 -130.25 -171.65 -130.0 -172.4 -128.25 -180.75 -128.15 -180.9 -127.4 -183.75 -127.4 -184.0 -127.5 -184.15 -125.75 -191.15 M-133.0 -159.75 L-133.0 -160.0 -132.9 -160.0 -133.0 -159.75 M-132.75 -160.65 L-132.75 -161.0 -132.65 -161.0 -132.75 -160.65" fill="#d20000" fill-rule="evenodd" stroke="none"/>
    <path d="M-151.9 -0.9 L-215.25 -0.9 -213.4 -12.65 -213.4 -12.9 -213.25 -13.4 -213.15 -14.15 -213.15 -17.9 -213.0 -18.5 -212.9 -30.5 -214.4 -40.15 -214.5 -40.4 -214.4 -40.65 -214.5 -41.75 -211.75 -63.0 -208.65 -118.75 -206.0 -142.15 -196.25 -142.0 -182.9 -143.4 -168.25 -140.5 -167.9 -140.25 -164.65 -139.9 -146.0 -140.75 -137.9 -142.25 -137.0 -142.65 -130.65 -146.25 -132.25 -118.65 -132.9 -110.65 -135.75 -89.65 -135.9 -89.0 -135.75 -88.75 -142.75 -56.5 -147.5 -31.25 -156.15 -20.9 -156.25 -20.25 -153.9 -8.0 -151.9 -0.9 M-292.4 -147.0 L-293.15 -150.4 -293.0 -150.65 -293.25 -151.0 -293.15 -151.25 -299.5 -186.0 -299.75 -186.5 -304.0 -209.25 -304.0 -209.75 -259.25 -178.15 -246.9 -168.75 -249.65 -168.5 -250.65 -168.5 -259.9 -163.65 -292.4 -147.0" fill="#ab0000" fill-opacity="0.9098039" fill-rule="evenodd" stroke="none"/>
    <path d="M-325.5 -130.0 L-332.65 -103.25 -347.4 -60.75 -353.4 -26.4 -353.75 -0.9 -363.5 -0.9 -363.65 -2.5 -362.75 -4.15 -362.75 -15.0 -362.65 -15.5 -364.25 -21.75 -370.75 -27.0 -370.0 -40.5 -366.9 -62.25 -366.9 -63.15 -364.4 -78.5 -364.5 -80.25 -364.25 -80.65 -364.4 -81.25 -364.0 -85.25 -364.15 -85.65 -364.4 -94.0 -358.4 -121.5 -330.65 -127.9 -330.15 -128.15 -325.5 -130.0" fill="#f30000" fill-opacity="0.9098039" fill-rule="evenodd" stroke="none"/>
    <path d="M-137.0 -142.65 L-134.5 -153.25 -134.5 -153.4 -134.65 -153.5 -134.15 -154.9 -134.25 -155.0 -134.15 -155.15 -133.9 -156.15 -133.75 -156.4 -133.5 -157.4 -133.4 -158.0 -133.0 -159.5 -133.0 -159.75 -132.9 -160.0 -133.0 -160.0 -132.9 -160.25 -132.9 -160.5 -132.75 -160.65 -132.65 -161.0 -132.75 -161.0 -132.65 -161.25 -132.65 -161.65 -132.5 -161.75 -132.5 -162.15 -132.4 -162.25 -132.4 -162.65 -132.25 -162.75 -132.25 -163.15 -132.15 -163.25 -132.15 -163.65 -132.0 -163.75 -132.0 -164.15 -131.9 -164.25 -131.9 -164.65 -131.75 -164.9 -131.75 -165.25 -131.65 -165.4 -131.65 -165.75 -131.5 -165.9 -131.5 -166.25 -131.4 -166.4 -131.4 -166.75 -131.25 -166.9 -131.25 -167.25 -131.15 -167.4 -131.15 -167.75 -131.0 -167.9 -131.0 -168.25 -130.9 -168.4 -130.25 -170.5 -130.15 -171.4 -130.15 -171.65 -130.0 -171.9 -127.15 -183.65 -127.15 -183.75 -125.5 -189.75 -124.65 -181.5 -124.5 -181.4 -127.4 -170.25 -130.5 -150.4 -130.4 -149.75 -130.5 -148.15 -130.65 -146.25 -137.0 -142.65" fill="#a30000" fill-opacity="0.9098039" fill-rule="evenodd" stroke="none"/>
    <path d="M-130.5 -148.15 L-128.9 -147.4 -130.65 -146.25 -130.5 -148.15" fill="#b40000" fill-rule="evenodd" stroke="none"/>
    <path d="M-128.9 -147.4 L-126.0 -100.75 -133.65 -47.25 -138.9 -1.25 -139.25 -0.9 -141.5 -0.9 -138.9 -52.15 -132.15 -105.75 -132.9 -110.65 -132.25 -118.65 -130.65 -146.25 -128.9 -147.4" fill="#bc0000" fill-rule="evenodd" stroke="none"/>
    <path d="M-203.9 -160.9 L-203.75 -160.4 -206.0 -142.15 -211.15 -142.15 -240.25 -164.0 -224.65 -161.9 -203.9 -160.9" fill="#d40000" fill-rule="evenodd" stroke="none"/>
    <path d="M-215.25 -0.9 L-274.65 -0.9 -271.25 -13.65 -262.15 -67.0 -252.15 -114.0 -245.25 -164.75 -249.65 -168.5 -246.9 -168.75 -240.65 -164.15 -240.25 -164.0 -211.15 -142.15 -206.0 -142.15 -208.65 -118.75 -211.75 -63.0 -214.5 -41.75 -214.4 -40.65 -214.5 -40.4 -214.4 -40.15 -212.9 -30.5 -213.0 -18.5 -213.15 -17.9 -213.15 -14.15 -213.25 -13.4 -213.4 -12.9 -213.4 -12.65 -215.25 -0.9" fill="#bb0000" fill-rule="evenodd" stroke="none"/>
    <path d="M-259.9 -163.65 L-250.65 -168.5 -249.65 -168.5 -245.25 -164.75 -259.9 -163.65" fill="#ba0000" fill-rule="evenodd" stroke="none"/>
    <path d="M-141.5 -0.9 L-151.9 -0.9 -153.9 -8.0 -156.25 -20.25 -156.15 -20.9 -147.5 -31.25 -142.75 -56.5 -135.75 -88.75 -135.9 -89.0 -135.75 -89.65 -132.9 -110.65 -132.15 -105.75 -138.9 -52.15 -141.5 -0.9 M-274.65 -0.9 L-290.9 -0.9 -287.0 -30.4 -284.65 -92.5 -289.0 -129.0 -292.5 -146.75 -292.4 -147.0 -259.9 -163.65 -245.25 -164.75 -252.15 -114.0 -262.15 -67.0 -271.25 -13.65 -274.65 -0.9" fill="#bc0000" fill-opacity="0.9098039" fill-rule="evenodd" stroke="none"/>
  </g>
  <defs>
    <radialGradient cx="0" cy="0" gradientTransform="matrix(0.1089, 0.0, 0.0, 0.1089, -180.4, -257.05)" gradientUnits="userSpaceOnUse" id="gradient0" r="819.2" spreadMethod="pad">
      <stop offset="0.0" stop-color="#838383"/>
      <stop offset="1.0" stop-color="#2c2c2c"/>
    </radialGradient>
    <radialGradient cx="0" cy="0" gradientTransform="matrix(0.022, 0.0, 0.0, 0.022, -121.9, -283.0)" gradientUnits="userSpaceOnUse" id="gradient1" r="819.2" spreadMethod="pad">
      <stop offset="0.0" stop-color="#000000"/>
      <stop offset="1.0" stop-color="#000000"/>
    </radialGradient>
    <radialGradient cx="0" cy="0" gradientTransform="matrix(0.0646, 0.0, 0.0, 0.0646, -130.5, -186.65)" gradientUnits="userSpaceOnUse" id="gradient2" r="819.2" spreadMethod="pad">
      <stop offset="0.0" stop-color="#000000"/>
      <stop offset="1.0" stop-color="#000000"/>
    </radialGradient>
    <radialGradient cx="0" cy="0" gradientTransform="matrix(0.0739, 0.0, 0.0, 0.0739, -202.8, -169.8)" gradientUnits="userSpaceOnUse" id="gradient3" r="819.2" spreadMethod="pad">
      <stop offset="0.0" stop-color="#494949"/>
      <stop offset="1.0" stop-color="#000000"/>
    </radialGradient>
    <radialGradient cx="0" cy="0" gradientTransform="matrix(0.0837, 0.0, 0.0, 0.0837, -283.4, -171.85)" gradientUnits="userSpaceOnUse" id="gradient4" r="819.2" spreadMethod="pad">
      <stop offset="0.0" stop-color="#7f7f7f"/>
      <stop offset="1.0" stop-color="#000000"/>
    </radialGradient>
    <radialGradient cx="0" cy="0" gradientTransform="matrix(0.1037, 0.0, 0.0, 0.1037, -248.85, -199.9)" gradientUnits="userSpaceOnUse" id="gradient5" r="819.2" spreadMethod="pad">
      <stop offset="0.0" stop-color="#464646"/>
      <stop offset="1.0" stop-color="#010101"/>
    </radialGradient>
    <radialGradient cx="0" cy="0" gradientTransform="matrix(0.0681, 0.0, 0.0, 0.0681, -286.95, -180.1)" gradientUnits="userSpaceOnUse" id="gradient6" r="819.2" spreadMethod="pad">
      <stop offset="0.0" stop-color="#737373"/>
      <stop offset="1.0" stop-color="#1a1a1a"/>
    </radialGradient>
    <radialGradient cx="0" cy="0" gradientTransform="matrix(0.098, 0.0, 0.0, 0.098, -254.45, -279.95)" gradientUnits="userSpaceOnUse" id="gradient7" r="819.2" spreadMethod="pad">
      <stop offset="0.0" stop-color="#6e6e6e"/>
      <stop offset="1.0" stop-color="#454545"/>
    </radialGradient>
    <radialGradient cx="0" cy="0" gradientTransform="matrix(0.0345, 0.0, 0.0, 0.0345, -237.75, -207.5)" gradientUnits="userSpaceOnUse" id="gradient8" r="819.2" spreadMethod="pad">
      <stop offset="0.0" stop-color="#000000"/>
      <stop offset="1.0" stop-color="#000000"/>
    </radialGradient>
    <radialGradient cx="0" cy="0" gradientTransform="matrix(0.1044, 0.0, 0.0, 0.1044, -315.25, -200.5)" gradientUnits="userSpaceOnUse" id="gradient9" r="819.2" spreadMethod="pad">
      <stop offset="0.0" stop-color="#0e0e0e"/>
      <stop offset="1.0" stop-color="#000000"/>
    </radialGradient>
    <radialGradient cx="0" cy="0" gradientTransform="matrix(0.1548, 0.0, 0.0, 0.1548, -283.4, -171.85)" gradientUnits="userSpaceOnUse" id="gradient10" r="819.2" spreadMethod="pad">
      <stop offset="0.0" stop-color="#7f7f7f"/>
      <stop offset="1.0" stop-color="#272727"/>
    </radialGradient>
    <radialGradient cx="0" cy="0" gradientTransform="matrix(0.209, 0.0, 0.0, 0.209, -396.45, -121.75)" gradientUnits="userSpaceOnUse" id="gradient11" r="819.2" spreadMethod="pad">
      <stop offset="0.0" stop-color="#565656"/>
      <stop offset="1.0" stop-color="#000000"/>
    </radialGradient>
    <radialGradient cx="0" cy="0" gradientTransform="matrix(0.1623, 0.0, 0.0, 0.1623, -393.95, -133.85)" gradientUnits="userSpaceOnUse" id="gradient12" r="819.2" spreadMethod="pad">
      <stop offset="0.0" stop-color="#292929"/>
      <stop offset="1.0" stop-color="#030303"/>
    </radialGradient>
    <radialGradient cx="0" cy="0" gradientTransform="matrix(0.1935, 0.0, 0.0, 0.1935, -395.9, -158.4)" gradientUnits="userSpaceOnUse" id="gradient13" r="819.2" spreadMethod="pad">
      <stop offset="0.0" stop-color="#2e2e2e"/>
      <stop offset="1.0" stop-color="#000000"/>
    </radialGradient>
    <radialGradient cx="0" cy="0" gradientTransform="matrix(0.044, 0.0, 0.0, 0.044, -248.85, -199.9)" gradientUnits="userSpaceOnUse" id="gradient14" r="819.2" spreadMethod="pad">
      <stop offset="0.0" stop-color="#464646"/>
      <stop offset="1.0" stop-color="#000000"/>
    </radialGradient>
    <radialGradient cx="0" cy="0" gradientTransform="matrix(0.2117, 0.0, 0.0, 0.2117, -150.1, -191.8)" gradientUnits="userSpaceOnUse" id="gradient15" r="819.2" spreadMethod="pad">
      <stop offset="0.0" stop-color="#666666"/>
      <stop offset="1.0" stop-color="#0c0c0c"/>
    </radialGradient>
    <radialGradient cx="0" cy="0" gradientTransform="matrix(0.0122, 0.0, 0.0, 0.0122, -214.2, -170.25)" gradientUnits="userSpaceOnUse" id="gradient16" r="819.2" spreadMethod="pad">
      <stop offset="0.0" stop-color="#000000"/>
      <stop offset="1.0" stop-color="#000000"/>
    </radialGradient>
    <radialGradient cx="0" cy="0" gradientTransform="matrix(0.1598, 0.0, 0.0, 0.1598, -194.4, -156.7)" gradientUnits="userSpaceOnUse" id="gradient17" r="819.2" spreadMethod="pad">
      <stop offset="0.0" stop-color="#575757"/>
      <stop offset="1.0" stop-color="#151515"/>
    </radialGradient>
    <radialGradient cx="0" cy="0" gradientTransform="matrix(0.0324, 0.0, 0.0, 0.0324, -204.35, -33.2)" gradientUnits="userSpaceOnUse" id="gradient18" r="819.2" spreadMethod="pad">
      <stop offset="0.0" stop-color="#4d4d4d"/>
      <stop offset="1.0" stop-color="#1c1c1c"/>
    </radialGradient>
    <radialGradient cx="0" cy="0" gradientTransform="matrix(0.0161, 0.0, 0.0, 0.0161, -214.5, -41.0)" gradientUnits="userSpaceOnUse" id="gradient19" r="819.2" spreadMethod="pad">
      <stop offset="0.0" stop-color="#000000"/>
      <stop offset="1.0" stop-color="#000000"/>
    </radialGradient>
    <radialGradient cx="0" cy="0" gradientTransform="matrix(0.0163, 0.0, 0.0, 0.0163, -212.35, -27.95)" gradientUnits="userSpaceOnUse" id="gradient20" r="819.2" spreadMethod="pad">
      <stop offset="0.0" stop-color="#000000"/>
      <stop offset="1.0" stop-color="#000000"/>
    </radialGradient>
    <radialGradient cx="0" cy="0" gradientTransform="matrix(0.0296, 0.0, 0.0, 0.0296, -205.05, -18.7)" gradientUnits="userSpaceOnUse" id="gradient21" r="819.2" spreadMethod="pad">
      <stop offset="0.0" stop-color="#383838"/>
      <stop offset="1.0" stop-color="#000000"/>
    </radialGradient>
    <radialGradient cx="0" cy="0" gradientTransform="matrix(0.0211, 0.0, 0.0, 0.0211, -195.25, -170.65)" gradientUnits="userSpaceOnUse" id="gradient22" r="819.2" spreadMethod="pad">
      <stop offset="0.0" stop-color="#000000"/>
      <stop offset="1.0" stop-color="#000000"/>
    </radialGradient>
    <radialGradient cx="0" cy="0" gradientTransform="matrix(0.1262, 0.0, 0.0, 0.1262, -149.9, -124.15)" gradientUnits="userSpaceOnUse" id="gradient23" r="819.2" spreadMethod="pad">
      <stop offset="0.0" stop-color="#494949"/>
      <stop offset="1.0" stop-color="#131313"/>
    </radialGradient>
    <radialGradient cx="0" cy="0" gradientTransform="matrix(0.0441, 0.0, 0.0, 0.0441, -183.05, -26.25)" gradientUnits="userSpaceOnUse" id="gradient24" r="819.2" spreadMethod="pad">
      <stop offset="0.0" stop-color="#393939"/>
      <stop offset="1.0" stop-color="#000000"/>
    </radialGradient>
    <radialGradient cx="0" cy="0" gradientTransform="matrix(0.0214, 0.0, 0.0, 0.0214, -364.6, -77.1)" gradientUnits="userSpaceOnUse" id="gradient25" r="819.2" spreadMethod="pad">
      <stop offset="0.0" stop-color="#242424"/>
      <stop offset="1.0" stop-color="#070707"/>
    </radialGradient>
    <radialGradient cx="0" cy="0" gradientTransform="matrix(0.0443, 0.0, 0.0, 0.0443, -185.9, -14.15)" gradientUnits="userSpaceOnUse" id="gradient26" r="819.2" spreadMethod="pad">
      <stop offset="0.0" stop-color="#1c1c1c"/>
      <stop offset="1.0" stop-color="#000000"/>
    </radialGradient>
    <radialGradient cx="0" cy="0" gradientTransform="matrix(0.0505, 0.0, 0.0, 0.0505, -364.3, -21.9)" gradientUnits="userSpaceOnUse" id="gradient27" r="819.2" spreadMethod="pad">
      <stop offset="0.0" stop-color="#212121"/>
      <stop offset="1.0" stop-color="#212121"/>
    </radialGradient>
    <radialGradient cx="0" cy="0" gradientTransform="matrix(0.0311, 0.0, 0.0, 0.0311, -362.7, -15.55)" gradientUnits="userSpaceOnUse" id="gradient28" r="819.2" spreadMethod="pad">
      <stop offset="0.0" stop-color="#484848"/>
      <stop offset="1.0" stop-color="#212121"/>
    </radialGradient>
    <radialGradient cx="0" cy="0" gradientTransform="matrix(0.0133, 0.0, 0.0, 0.0133, -363.6, -1.0)" gradientUnits="userSpaceOnUse" id="gradient29" r="819.2" spreadMethod="pad">
      <stop offset="0.0" stop-color="#424242"/>
      <stop offset="1.0" stop-color="#2a2a2a"/>
    </radialGradient>
  </defs>
</svg>
