<?xml version="1.0" encoding="UTF-8" standalone="no"?>
<svg xmlns:xlink="http://www.w3.org/1999/xlink" height="299.15px" width="291.25px" xmlns="http://www.w3.org/2000/svg">
  <g transform="matrix(1.0, 0.0, 0.0, 1.0, 400.0, 300.05)">
    <path d="M-124.25 -289.65 L-124.25 -289.4 -119.5 -276.9 -119.4 -238.75 -130.65 -205.4 -138.4 -183.4 -138.9 -181.9 -143.0 -170.4 -149.4 -169.15 -165.15 -168.4 -179.4 -175.15 -189.4 -170.25 -201.5 -170.4 -244.0 -187.9 -244.25 -188.0 -244.25 -188.25 -244.0 -188.75 -244.0 -189.0 -243.75 -189.5 -224.25 -241.15 -219.0 -290.5 -215.5 -300.0 -128.25 -300.0 -124.25 -289.65" fill="url(#gradient0)" fill-rule="evenodd" stroke="none"/>
    <path d="M-128.25 -300.0 L-125.25 -300.0 -124.25 -289.65 -128.25 -300.0" fill="url(#gradient1)" fill-rule="evenodd" stroke="none"/>
    <path d="M-130.65 -205.4 L-127.4 -176.15 -127.4 -175.0 -130.25 -164.5 -133.25 -144.9 -138.9 -148.9 -138.9 -152.15 -137.25 -163.9 -137.9 -167.25 -143.9 -165.0 -144.75 -164.15 Q-145.0 -159.75 -145.65 -159.25 L-148.15 -155.75 -150.75 -157.65 -148.75 -164.0 -143.0 -170.4 -138.9 -181.9 -136.15 -182.15 -135.65 -183.4 -138.4 -183.4 -130.65 -205.4" fill="url(#gradient2)" fill-rule="evenodd" stroke="none"/>
    <path d="M-138.4 -183.4 L-135.65 -183.4 -136.15 -182.15 -138.9 -181.9 -138.4 -183.4 M-148.15 -155.75 L-145.65 -159.25 Q-145.0 -159.75 -144.75 -164.15 L-143.9 -165.0 -137.9 -167.25 -137.25 -163.9 -138.9 -152.15 -138.9 -148.9 -140.4 -147.15 -140.9 -147.0 -145.5 -151.5 -148.15 -155.75 M-146.4 -146.4 L-154.25 -150.5 -157.75 -155.65 -154.0 -155.25 -146.25 -148.9 -145.5 -147.25 -146.4 -146.4 M-157.9 -23.0 L-157.15 -22.9 Q-154.5 -21.15 -159.4 -17.75 L-158.5 -22.65 -157.9 -23.0 M-163.5 -20.5 L-162.9 -16.4 -164.9 -15.75 -165.65 -16.0 -163.5 -20.5" fill="url(#gradient3)" fill-rule="evenodd" stroke="none"/>
    <path d="M-266.0 -242.9 L-264.5 -254.25 -258.5 -272.4 -258.5 -271.4 -258.4 -272.75 -258.4 -272.9 -258.25 -273.15 -256.5 -292.15 -252.5 -300.0 -215.5 -300.0 -219.0 -290.5 -224.25 -241.15 -243.75 -189.5 -244.0 -190.75 -243.5 -192.5 -236.75 -242.9 -261.0 -246.0 -266.0 -242.9" fill="url(#gradient4)" fill-rule="evenodd" stroke="none"/>
    <path d="M-258.5 -272.4 L-258.4 -272.75 -258.5 -271.4 -258.5 -272.4" fill="url(#gradient5)" fill-rule="evenodd" stroke="none"/>
    <path d="M-333.0 -208.0 L-296.15 -223.5 -266.0 -242.75 -266.0 -242.9 -261.0 -246.0 -236.75 -242.9 -243.5 -192.5 -244.0 -190.75 -244.5 -192.75 -244.5 -192.9 -246.75 -203.9 -246.9 -204.9 -247.25 -205.0 -255.9 -198.5 -244.5 -189.0 -244.0 -189.0 -244.0 -188.75 -244.25 -188.25 -244.25 -188.0 -313.4 -189.0 -313.65 -189.15 -330.75 -206.25 -333.0 -208.0" fill="url(#gradient6)" fill-rule="evenodd" stroke="none"/>
    <path d="M-235.15 -172.5 L-235.0 -172.0 -236.15 -171.75 -249.65 -176.65 -242.9 -186.65 -242.5 -186.25 -242.4 -185.9 -239.65 -178.9 -235.15 -172.5 M-244.0 -189.0 L-244.5 -189.0 -255.9 -198.5 -247.25 -205.0 -246.9 -204.9 -246.75 -203.9 -246.75 -200.75 -244.5 -192.9 -244.5 -192.75 -244.0 -190.75 -243.75 -189.5 -244.0 -189.0" fill="url(#gradient7)" fill-rule="evenodd" stroke="none"/>
    <path d="M-235.15 -172.5 L-239.65 -178.9 -242.4 -185.9 -242.0 -185.75 -235.15 -172.5 M-244.5 -192.9 L-246.75 -200.75 -246.75 -203.9 -244.5 -192.9" fill="url(#gradient8)" fill-rule="evenodd" stroke="none"/>
    <path d="M-400.0 -179.9 L-400.0 -186.0 -347.15 -204.9 -333.0 -208.0 -330.75 -206.25 -313.65 -189.15 -349.9 -199.5 -366.9 -189.15 -400.0 -179.9" fill="url(#gradient9)" fill-rule="evenodd" stroke="none"/>
    <path d="M-400.0 -113.9 L-400.0 -179.9 -366.9 -189.15 -349.9 -199.5 -313.65 -189.15 -313.4 -189.0 -280.5 -160.4 -272.25 -157.75 -341.0 -121.25 -369.4 -114.15 -395.15 -111.0 -397.75 -111.9 -400.0 -113.9" fill="url(#gradient10)" fill-rule="evenodd" stroke="none"/>
    <path d="M-212.75 -161.25 L-254.4 -157.65 -264.4 -156.75 -272.25 -157.75 -280.5 -160.4 -313.4 -189.0 -244.25 -188.0 -244.0 -187.9 -242.9 -186.75 -242.9 -186.65 -249.65 -176.65 -236.15 -171.75 -235.0 -172.0 -235.15 -172.5 -242.0 -185.75 -242.4 -185.9 -242.5 -186.25 -242.15 -186.15 -240.15 -184.4 -239.5 -184.0 -239.15 -183.5 -238.25 -182.9 -238.25 -182.75 -218.0 -164.25 -217.25 -162.15 -212.75 -161.25" fill="url(#gradient11)" fill-rule="evenodd" stroke="none"/>
    <path d="M-321.25 -123.25 L-331.4 -117.4 -357.4 -111.65 -369.0 -110.15 -377.75 -109.0 -379.65 -109.65 -395.15 -111.0 -369.4 -114.15 -341.0 -121.25 -272.25 -157.75 -264.4 -156.75 -321.25 -123.25" fill="url(#gradient12)" fill-rule="evenodd" stroke="none"/>
    <path d="M-369.0 -110.15 L-369.4 -98.75 -367.25 -75.15 -370.15 -51.65 -373.4 -30.15 -374.15 -16.75 -374.4 -13.0 -374.15 -11.0 -374.65 -6.15 -376.4 -4.15 -378.65 -2.4 -379.0 -2.5 -379.5 -1.65 -380.15 -0.9 -388.65 -0.9 -387.5 -23.65 -392.5 -27.15 -393.15 -27.25 -399.5 -21.75 -399.9 -8.4 -400.0 -111.5 -397.75 -111.9 -395.15 -111.0 -379.65 -109.65 -377.75 -109.0 -369.0 -110.15" fill="url(#gradient13)" fill-rule="evenodd" stroke="none"/>
    <path d="M-388.65 -0.9 L-400.0 -0.9 -399.9 -8.4 -399.5 -21.75 -393.15 -27.25 -392.5 -27.15 -387.5 -23.65 -388.65 -0.9 M-400.0 -111.5 L-400.0 -113.9 -397.75 -111.9 -400.0 -111.5 M-378.65 -2.4 L-379.5 -1.65 -379.0 -2.5 -378.65 -2.4" fill="url(#gradient14)" fill-rule="evenodd" stroke="none"/>
    <path d="M-206.4 -161.15 L-212.75 -161.25 -217.25 -162.15 -218.0 -164.25 -217.9 -164.9 -218.4 -165.75 -219.4 -166.75 -238.25 -182.75 -238.25 -182.9 -239.15 -183.5 -239.5 -184.0 -240.15 -184.4 -242.15 -186.15 -242.75 -186.75 -242.9 -186.75 -244.0 -187.9 -201.5 -170.4 -189.4 -170.25 -179.4 -175.15 -165.15 -168.4 -149.4 -169.15 -143.0 -170.4 -148.75 -164.0 -150.75 -157.65 -166.25 -161.4 -178.0 -161.15 -190.75 -161.25 -185.75 -161.0 -206.4 -161.15" fill="url(#gradient15)" fill-rule="evenodd" stroke="none"/>
    <path d="M-242.9 -186.75 L-242.75 -186.75 -242.15 -186.15 -242.5 -186.25 -242.9 -186.65 -242.9 -186.75 M-238.25 -182.75 L-219.4 -166.75 -218.4 -165.75 -217.9 -164.9 -218.0 -164.25 -238.25 -182.75" fill="url(#gradient16)" fill-rule="evenodd" stroke="none"/>
    <path d="M-133.25 -144.9 L-135.0 -113.4 -138.75 -83.9 -145.65 -51.4 -149.25 -28.0 -158.4 -23.4 -168.15 -21.4 -182.65 -20.75 -191.5 -46.4 -188.5 -103.15 -188.75 -103.65 -183.4 -145.65 -183.9 -161.0 -178.0 -161.15 -166.25 -161.4 -150.75 -157.65 -148.15 -155.75 -145.5 -151.5 -140.9 -147.0 -140.4 -147.15 -138.9 -148.9 -133.25 -144.9 M-146.4 -146.4 L-145.5 -147.25 -146.25 -148.9 -154.0 -155.25 -157.75 -155.65 -154.25 -150.5 -146.4 -146.4" fill="url(#gradient17)" fill-rule="evenodd" stroke="none"/>
    <path d="M-185.75 -161.0 L-190.75 -161.25 -178.0 -161.15 -183.9 -161.0 -185.75 -161.0" fill="url(#gradient18)" fill-rule="evenodd" stroke="none"/>
    <path d="M-215.5 -35.15 L-215.75 -39.65 -212.9 -60.0 -212.75 -62.4 -212.65 -64.5 -212.5 -64.9 -210.5 -110.75 -205.5 -153.5 -206.4 -161.15 -185.75 -161.0 -183.9 -161.0 -183.4 -145.65 -188.75 -103.65 -188.5 -103.15 -191.5 -46.4 -182.65 -20.75 -204.25 -27.15 -210.9 -31.5 -215.5 -35.15" fill="url(#gradient19)" fill-rule="evenodd" stroke="none"/>
    <path d="M-254.4 -157.65 L-321.25 -123.25 -264.4 -156.75 -254.4 -157.65" fill="url(#gradient20)" fill-rule="evenodd" stroke="none"/>
    <path d="M-212.9 -60.0 L-212.9 -61.75 -212.75 -62.4 -212.9 -60.0" fill="url(#gradient21)" fill-rule="evenodd" stroke="none"/>
    <path d="M-215.0 -30.75 L-215.0 -31.15 -215.15 -31.5 -215.5 -35.15 -210.9 -31.5 -204.25 -27.15 -182.65 -20.75 -185.5 -8.9 -204.9 -13.0 Q-207.0 -20.5 -213.65 -22.65 L-213.75 -23.0 -213.75 -23.25 -214.0 -24.25 -214.25 -26.25 -215.0 -30.75" fill="url(#gradient22)" fill-rule="evenodd" stroke="none"/>
    <path d="M-214.75 -28.4 L-214.75 -28.5 -215.0 -30.0 -215.0 -30.75 -214.25 -26.25 -214.75 -28.4" fill="url(#gradient23)" fill-rule="evenodd" stroke="none"/>
    <path d="M-214.5 -24.9 L-214.75 -28.4 -214.25 -26.25 -214.0 -24.25 -214.5 -24.9" fill="url(#gradient24)" fill-rule="evenodd" stroke="none"/>
    <path d="M-214.4 -12.15 L-214.5 -24.9 -214.0 -24.25 -213.75 -23.25 -213.75 -23.0 -213.65 -22.65 -214.4 -12.15" fill="url(#gradient25)" fill-rule="evenodd" stroke="none"/>
    <path d="M-187.15 -0.9 L-215.65 -0.9 -214.25 -9.65 -214.4 -12.15 -213.65 -22.65 Q-207.0 -20.5 -204.9 -13.0 L-185.5 -8.9 -187.15 -0.9" fill="url(#gradient26)" fill-rule="evenodd" stroke="none"/>
    <path d="M-149.25 -28.0 L-158.4 -17.5 -161.0 -11.25 -170.0 -9.25 -185.5 -8.9 -182.65 -20.75 -168.15 -21.4 -158.4 -23.4 -149.25 -28.0 M-163.5 -20.5 L-165.65 -16.0 -164.9 -15.75 -162.9 -16.4 -163.5 -20.5 M-157.9 -23.0 L-158.5 -22.65 -159.4 -17.75 Q-154.5 -21.15 -157.15 -22.9 L-157.9 -23.0" fill="url(#gradient27)" fill-rule="evenodd" stroke="none"/>
    <path d="M-158.4 -17.5 L-155.9 -4.5 -154.75 -0.9 -187.15 -0.9 -185.5 -8.9 -170.0 -9.25 -161.0 -11.25 -158.4 -17.5" fill="url(#gradient28)" fill-rule="evenodd" stroke="none"/>
    <path d="M-374.15 -16.75 L-368.0 -12.5 -365.65 -6.5 -365.5 -5.0 -365.5 -4.9 -367.25 -0.9 -380.15 -0.9 -379.5 -1.65 -378.65 -2.4 -376.4 -4.15 -374.65 -6.15 -374.15 -11.0 -374.4 -13.0 -374.15 -16.75" fill="url(#gradient29)" fill-rule="evenodd" stroke="none"/>
    <path d="M-365.5 -4.9 L-365.4 -0.9 -367.25 -0.9 -365.5 -4.9" fill="url(#gradient30)" fill-rule="evenodd" stroke="none"/>
    <path d="M-252.5 -300.0 L-216.5 -300.0 -218.5 -295.25 -218.9 -293.65 -225.25 -278.5 -225.65 -276.5 -225.5 -275.5 -228.25 -251.9 -228.15 -250.9 -230.9 -224.15 -231.0 -223.75 -243.9 -191.15 -244.15 -190.75 -244.0 -190.5 -244.0 -190.4 -244.15 -190.0 -244.65 -189.25 -244.65 -189.15 -244.9 -188.4 -245.15 -188.0 -245.4 -187.25 -245.65 -186.75 -253.5 -166.65 -251.5 -181.9 -251.75 -182.15 -251.5 -182.5 -250.15 -192.15 -250.25 -192.4 -249.15 -200.15 -249.0 -200.75 -248.65 -202.9 -248.75 -203.75 -248.5 -204.15 -247.75 -209.0 -247.75 -211.0 -245.5 -225.75 -250.4 -226.5 -250.5 -226.65 -264.9 -228.4 -273.15 -238.15 -273.15 -238.4 -266.0 -242.75 -266.0 -242.9 -264.5 -253.75 -263.65 -256.9 -263.5 -257.0 -263.4 -257.5 -263.4 -257.65 -258.4 -272.75 -258.4 -272.9 -258.25 -272.9 -256.9 -288.9 -256.75 -289.25 -256.4 -292.25 -256.4 -292.75 -252.5 -300.0" fill="#de0000" fill-opacity="0.9098039" fill-rule="evenodd" stroke="none"/>
    <path d="M-270.4 -257.4 L-270.25 -258.15 -268.15 -281.4 -257.5 -299.65 -252.5 -300.0 -256.4 -292.75 -256.4 -292.25 -256.75 -289.25 -256.9 -288.9 -267.5 -265.75 -268.75 -262.0 -268.9 -261.65 -269.0 -261.25 -269.0 -261.0 -269.15 -260.65 -269.25 -260.25 -269.5 -259.65 -269.5 -259.5 -270.4 -257.4" fill="#f00000" fill-rule="evenodd" stroke="none"/>
    <path d="M-270.4 -256.75 L-270.4 -257.4 -269.5 -259.5 -270.4 -256.75" fill="#f10000" fill-rule="evenodd" stroke="none"/>
    <path d="M-276.15 -240.4 L-270.65 -256.25 -270.4 -256.75 -269.5 -259.5 -269.5 -259.65 -269.25 -260.25 -269.15 -260.65 -269.0 -261.0 -269.0 -261.25 -268.9 -261.65 -268.75 -262.0 -267.5 -265.75 -256.9 -288.9 -258.25 -272.9 -258.4 -272.9 -258.4 -272.75 -263.4 -257.65 -263.4 -257.5 -263.5 -257.0 -263.65 -256.9 -264.5 -253.75 -266.0 -242.9 -266.0 -242.75 -273.15 -238.4 -275.25 -240.75 -276.15 -240.4" fill="#ef0000" fill-rule="evenodd" stroke="none"/>
    <path d="M-216.5 -300.0 L-143.5 -299.75 -125.75 -300.0 -125.25 -299.0 -124.75 -296.5 -124.4 -290.15 -119.65 -277.15 -119.5 -240.0 -119.4 -239.0 -126.75 -217.0 -130.65 -204.9 -127.75 -180.15 -127.75 -180.0 -127.9 -179.75 -127.9 -179.5 -128.0 -179.0 -128.15 -178.4 -128.25 -177.9 -128.4 -177.25 -128.5 -176.65 -128.65 -176.4 -128.65 -176.15 -128.75 -175.5 -128.9 -175.0 -128.9 -174.9 -129.0 -174.65 -129.0 -174.4 -129.15 -174.0 -131.25 -164.9 -131.25 -164.4 -135.15 -147.25 -135.15 -146.9 -135.4 -146.4 -135.25 -146.15 -135.75 -144.4 -136.9 -138.4 -137.15 -137.5 -137.4 -136.0 -137.65 -135.75 -137.9 -135.4 -145.0 -132.75 -162.65 -130.75 -166.0 -131.25 -166.4 -131.5 -179.5 -133.9 -191.25 -131.4 -205.25 -130.75 -206.4 -131.65 -206.75 -131.75 -206.75 -131.9 -208.0 -132.5 -208.15 -132.75 -205.65 -152.75 -205.5 -153.5 -205.75 -155.0 -206.4 -161.15 -212.75 -161.25 -244.0 -158.5 -253.9 -165.75 -253.5 -166.65 -245.65 -186.75 -245.4 -187.25 -245.15 -188.0 -244.9 -188.4 -244.65 -189.15 -244.65 -189.25 -244.15 -190.0 -244.0 -190.4 -244.0 -190.5 -244.15 -190.75 -243.9 -191.15 -231.0 -223.75 -230.9 -224.15 -228.15 -250.9 -228.25 -251.9 -225.5 -275.5 -225.65 -276.5 -225.25 -278.5 -218.9 -293.65 -218.5 -295.25 -216.5 -300.0" fill="#c30000" fill-opacity="0.9098039" fill-rule="evenodd" stroke="none"/>
    <path d="M-253.5 -166.65 L-253.9 -165.75 -300.75 -197.75 -319.65 -213.65 -319.0 -214.0 -298.5 -222.5 -298.4 -222.5 -298.15 -222.65 -296.15 -223.5 -277.75 -235.25 -277.65 -235.5 -277.0 -235.75 -277.0 -235.9 Q-275.05 -237.0 -273.15 -238.15 L-264.9 -228.4 -250.5 -226.65 -250.4 -226.5 -245.5 -225.75 -247.75 -211.0 -247.75 -209.0 -248.5 -204.15 -248.75 -203.75 -248.65 -202.9 -249.0 -200.75 -249.15 -200.15 -250.25 -192.4 -250.15 -192.15 -251.5 -182.5 -251.75 -182.15 -251.5 -181.9 -253.5 -166.65" fill="#da0000" fill-opacity="0.9098039" fill-rule="evenodd" stroke="none"/>
    <path d="M-324.5 -217.9 L-276.4 -240.15 -276.15 -240.4 -275.25 -240.75 -273.15 -238.4 -273.15 -238.15 Q-275.05 -237.0 -277.0 -235.9 L-277.0 -235.75 -277.65 -235.5 -277.75 -235.25 -296.15 -223.5 -298.15 -222.65 -298.4 -222.5 -298.5 -222.5 -319.0 -214.0 -323.0 -216.65 -324.5 -217.9" fill="#ea0000" fill-rule="evenodd" stroke="none"/>
    <path d="M-115.25 -278.15 L-114.75 -276.25 -109.25 -263.4 -108.75 -221.15 -123.4 -180.25 -129.15 -161.65 -131.5 -155.15 -132.25 -151.9 -134.25 -145.9 -134.5 -145.75 -134.4 -145.5 -136.9 -138.4 -135.75 -144.4 -135.25 -146.15 -135.4 -146.4 -135.15 -146.9 -135.15 -147.25 -131.25 -164.4 -131.25 -164.9 -129.15 -174.0 -128.9 -174.15 -129.0 -174.4 -129.0 -174.65 -128.9 -174.9 -128.9 -175.0 -128.65 -175.25 -128.75 -175.5 -128.5 -175.9 -128.65 -176.15 -128.65 -176.4 -128.5 -176.65 -128.25 -177.0 -128.4 -177.25 -128.15 -177.5 -128.25 -177.9 -128.0 -178.15 -128.15 -178.4 -127.9 -178.65 -127.9 -179.0 -128.0 -179.0 -127.9 -179.15 -127.9 -179.5 -127.9 -179.75 -127.75 -180.0 -127.75 -180.15 -122.5 -202.15 -120.75 -211.0 -119.65 -215.5 -113.4 -260.0 -113.5 -262.5 -124.75 -296.5 -125.25 -299.0 -125.75 -300.0 -124.4 -300.0 -115.25 -278.15 M-244.0 -158.5 L-212.75 -161.25 -206.4 -161.15 -205.75 -155.0 -226.65 -155.15 -241.0 -156.5 -241.4 -156.65 -244.0 -158.5" fill="#d30000" fill-rule="evenodd" stroke="none"/>
    <path d="M-124.75 -296.5 L-113.5 -262.5 -113.4 -260.0 -119.65 -215.5 -120.75 -211.0 -121.0 -211.15 -120.15 -215.5 -124.15 -216.75 -126.75 -217.0 -119.4 -239.0 -119.5 -240.0 -119.65 -277.15 -124.4 -290.15 -124.75 -296.5" fill="#d90000" fill-rule="evenodd" stroke="none"/>
    <path d="M-126.75 -217.0 L-124.15 -216.75 -120.15 -215.5 -121.0 -211.15 -120.75 -211.0 -122.5 -202.15 -127.75 -180.15 -130.65 -204.9 -126.75 -217.0 M-127.9 -179.5 L-127.9 -179.15 -128.0 -179.0 -127.9 -179.0 -127.9 -178.65 -128.15 -178.4 -128.0 -178.15 -128.25 -177.9 -128.15 -177.5 -128.4 -177.25 -128.25 -177.0 -128.5 -176.65 -128.4 -177.25 -128.25 -177.9 -128.15 -178.4 -128.0 -179.0 -127.9 -179.5 M-128.65 -176.15 L-128.5 -175.9 -128.75 -175.5 -128.65 -175.25 -128.9 -175.0 -128.75 -175.5 -128.65 -176.15 M-129.0 -174.4 L-128.9 -174.15 -129.15 -174.0 -129.0 -174.4" fill="#d80000" fill-rule="evenodd" stroke="none"/>
    <path d="M-124.4 -300.0 L-117.5 -300.0 -115.25 -278.15 -124.4 -300.0" fill="#b60000" fill-rule="evenodd" stroke="none"/>
    <path d="M-129.15 -161.65 L-129.0 -161.15 -132.15 -142.25 -133.4 -142.75 -133.25 -144.75 -132.15 -151.5 -132.25 -151.9 -131.5 -155.15 -129.15 -161.65" fill="#b80000" fill-rule="evenodd" stroke="none"/>
    <path d="M-136.9 -138.4 L-134.4 -145.5 -134.5 -145.75 -134.25 -145.9 -132.25 -151.9 -132.15 -151.5 -133.25 -144.75 -133.4 -142.75 -133.4 -141.0 -133.65 -140.4 -137.4 -136.0 -137.15 -137.5 -136.9 -138.4" fill="#a30000" fill-opacity="0.9098039" fill-rule="evenodd" stroke="none"/>
    <path d="M-270.65 -256.25 L-270.65 -256.4 -270.5 -256.65 -270.4 -256.75 -270.65 -256.25" fill="#ca0000" fill-rule="evenodd" stroke="none"/>
    <path d="M-400.0 -186.0 L-400.0 -200.9 -324.5 -217.9 -323.0 -216.65 -319.65 -213.65 -333.0 -208.0 -346.15 -205.0 -347.0 -204.9 -365.65 -198.4 -366.75 -197.9 -366.9 -197.9 -367.15 -197.75 -367.25 -197.75 -400.0 -186.0" fill="#ed0000" fill-rule="evenodd" stroke="none"/>
    <path d="M-300.9 -197.25 L-314.15 -138.65 -314.25 -138.4 -315.0 -135.15 -315.15 -134.9 -315.0 -134.65 -316.65 -127.5 -316.9 -127.15 -316.75 -126.9 -317.25 -125.15 -329.25 -118.75 -329.25 -118.65 -329.65 -118.5 -331.4 -117.4 -358.9 -111.4 -359.4 -111.25 -369.0 -110.15 -369.4 -98.4 -367.4 -75.5 -367.25 -75.15 -370.25 -52.0 -370.15 -51.4 -373.4 -30.25 -373.4 -29.5 -373.25 -29.15 -374.15 -16.75 -368.0 -12.4 -365.4 -5.65 -365.5 -5.0 -365.4 -0.9 -400.0 -0.9 -399.9 -1.5 -400.0 -92.9 -399.9 -93.75 -400.0 -186.0 -367.25 -197.75 -367.15 -197.75 -366.9 -197.9 -366.75 -197.9 -365.65 -198.4 -347.0 -204.9 -346.15 -205.0 -333.0 -208.0 -319.65 -213.65 -300.75 -197.75 -300.9 -197.25" fill="#dd0000" fill-opacity="0.9098039" fill-rule="evenodd" stroke="none"/>
    <path d="M-319.0 -214.0 L-319.65 -213.65 -323.0 -216.65 -319.0 -214.0" fill="#e90000" fill-rule="evenodd" stroke="none"/>
    <path d="M-154.75 -0.9 L-215.65 -0.9 -214.4 -8.9 -214.75 -28.4 -214.75 -28.5 -215.0 -30.0 -215.0 -31.15 -215.15 -31.5 -215.65 -34.9 -215.5 -35.15 -215.75 -36.5 -215.65 -37.5 -215.75 -39.65 -214.25 -50.4 -214.25 -50.65 -214.15 -51.4 -214.15 -51.75 -214.0 -52.4 -214.0 -52.9 -213.9 -53.25 -213.9 -54.15 -213.0 -59.0 -212.9 -60.0 -212.9 -61.75 -212.75 -62.4 -212.65 -64.5 -212.5 -64.9 -210.4 -112.25 -208.0 -132.5 -206.75 -131.9 -206.75 -131.75 -206.4 -131.65 -205.25 -130.75 -191.25 -131.4 -179.5 -133.9 -166.4 -131.5 -166.0 -131.25 -162.65 -130.75 -145.0 -132.75 -137.9 -135.4 -137.65 -135.75 -137.4 -136.0 -133.65 -140.4 -133.5 -138.75 -135.25 -113.65 -135.15 -113.5 -136.15 -103.5 -138.75 -84.75 -138.65 -84.15 -145.5 -52.75 -148.9 -31.25 -148.9 -30.9 -148.75 -30.5 -149.0 -30.4 -149.15 -28.4 -149.5 -27.75 -158.4 -17.9 -158.5 -17.25 -156.25 -5.65 -156.15 -4.65 -154.75 -0.9 M-288.15 -140.15 L-291.15 -153.25 -291.0 -153.5 -295.4 -173.15 -295.65 -173.65 -298.9 -188.75 -299.0 -188.9 -300.9 -197.25 -300.75 -197.75 -253.9 -165.75 -244.0 -158.5 -248.0 -158.15 -254.4 -157.65 -256.15 -156.65 -288.15 -140.15" fill="#ab0000" fill-opacity="0.9098039" fill-rule="evenodd" stroke="none"/>
    <path d="M-317.25 -125.15 L-325.25 -89.0 -339.5 -45.4 -345.75 -10.75 -345.75 -0.9 -365.4 -0.9 -365.5 -5.0 -365.4 -5.65 -368.0 -12.4 -374.15 -16.75 -373.25 -29.15 -373.4 -29.5 -373.4 -30.25 -370.15 -51.4 -370.25 -52.0 -367.25 -75.15 -367.4 -75.5 -369.4 -98.4 -369.0 -110.15 -359.4 -111.25 -358.9 -111.4 -331.4 -117.4 -329.65 -118.5 -329.25 -118.65 -329.25 -118.75 -317.25 -125.15" fill="#f40000" fill-opacity="0.9098039" fill-rule="evenodd" stroke="none"/>
    <path d="M-145.0 -0.9 L-154.75 -0.9 -156.15 -4.65 -156.25 -5.65 -158.5 -17.25 -158.4 -17.9 -149.5 -27.75 -149.15 -28.4 -149.0 -30.4 -148.75 -30.5 -148.9 -30.9 -148.9 -31.25 -145.5 -52.75 -138.65 -84.15 -138.75 -84.75 -136.15 -103.5 -135.75 -101.75 -142.15 -51.0 -145.0 -0.9 M-273.75 -0.9 L-281.25 -0.9 -279.15 -16.5 -277.0 -80.65 -282.4 -114.9 -288.15 -140.15 -256.15 -156.65 -246.9 -157.15 -253.75 -107.5 -264.4 -54.75 -271.5 -10.75 -273.75 -0.9" fill="#bc0000" fill-opacity="0.9098039" fill-rule="evenodd" stroke="none"/>
    <path d="M-256.15 -156.65 L-254.4 -157.65 -248.0 -158.15 -246.9 -157.15 -256.15 -156.65" fill="#ba0000" fill-rule="evenodd" stroke="none"/>
    <path d="M-215.65 -0.9 L-273.75 -0.9 -271.5 -10.75 -264.4 -54.75 -253.75 -107.5 -246.9 -157.15 -248.0 -158.15 -244.0 -158.5 -241.4 -156.65 -241.0 -156.5 -208.15 -132.75 -208.0 -132.5 -210.4 -112.25 -212.5 -64.9 -212.65 -64.5 -212.75 -62.4 -212.9 -61.75 -212.9 -60.0 -213.0 -59.0 -213.9 -54.15 -213.9 -53.25 -214.0 -52.9 -214.0 -52.4 -214.15 -51.75 -214.15 -51.4 -214.25 -50.65 -214.25 -50.4 -215.75 -39.65 -215.65 -37.5 -215.75 -36.5 -215.5 -35.15 -215.65 -34.9 -215.15 -31.5 -215.0 -31.15 -215.0 -30.0 -214.75 -28.5 -214.75 -28.4 -214.4 -8.9 -215.65 -0.9" fill="#bb0000" fill-rule="evenodd" stroke="none"/>
    <path d="M-205.75 -155.0 L-205.5 -153.5 -205.65 -152.75 -208.15 -132.75 -241.0 -156.5 -226.65 -155.15 -205.75 -155.0" fill="#d40000" fill-rule="evenodd" stroke="none"/>
    <path d="M-132.15 -142.25 L-132.25 -142.0 -133.4 -141.0 -133.4 -142.75 -132.15 -142.25" fill="#b50000" fill-rule="evenodd" stroke="none"/>
    <path d="M-132.25 -142.0 L-128.4 -95.75 -136.15 -41.75 -140.9 -1.15 -145.0 -0.9 -142.15 -51.0 -135.75 -101.75 -136.15 -103.5 -135.15 -113.5 -135.25 -113.65 -133.5 -138.75 -133.65 -140.4 -133.4 -141.0 -132.25 -142.0" fill="#bc0000" fill-rule="evenodd" stroke="none"/>
  </g>
  <defs>
    <radialGradient cx="0" cy="0" gradientTransform="matrix(0.1102, 0.0, 0.0, 0.1102, -173.3, -244.05)" gradientUnits="userSpaceOnUse" id="gradient0" r="819.2" spreadMethod="pad">
      <stop offset="0.0" stop-color="#838383"/>
      <stop offset="1.0" stop-color="#2d2d2d"/>
    </radialGradient>
    <radialGradient cx="0" cy="0" gradientTransform="matrix(0.0323, 0.0, 0.0, 0.0323, -122.8, -274.7)" gradientUnits="userSpaceOnUse" id="gradient1" r="819.2" spreadMethod="pad">
      <stop offset="0.0" stop-color="#000000"/>
      <stop offset="1.0" stop-color="#000000"/>
    </radialGradient>
    <radialGradient cx="0" cy="0" gradientTransform="matrix(0.0426, 0.0, 0.0, 0.0426, -132.2, -179.75)" gradientUnits="userSpaceOnUse" id="gradient2" r="819.2" spreadMethod="pad">
      <stop offset="0.0" stop-color="#000000"/>
      <stop offset="1.0" stop-color="#000000"/>
    </radialGradient>
    <radialGradient cx="0" cy="0" gradientTransform="matrix(0.2079, 0.0, 0.0, 0.2079, -150.3, -183.95)" gradientUnits="userSpaceOnUse" id="gradient3" r="819.2" spreadMethod="pad">
      <stop offset="0.0" stop-color="#666666"/>
      <stop offset="1.0" stop-color="#0c0c0c"/>
    </radialGradient>
    <radialGradient cx="0" cy="0" gradientTransform="matrix(0.0993, 0.0, 0.0, 0.0993, -250.95, -269.1)" gradientUnits="userSpaceOnUse" id="gradient4" r="819.2" spreadMethod="pad">
      <stop offset="0.0" stop-color="#6e6e6e"/>
      <stop offset="1.0" stop-color="#454545"/>
    </radialGradient>
    <radialGradient cx="0" cy="0" gradientTransform="matrix(0.0289, 0.0, 0.0, 0.0289, -256.35, -292.85)" gradientUnits="userSpaceOnUse" id="gradient5" r="819.2" spreadMethod="pad">
      <stop offset="0.0" stop-color="#000000"/>
      <stop offset="1.0" stop-color="#000000"/>
    </radialGradient>
    <radialGradient cx="0" cy="0" gradientTransform="matrix(0.1113, 0.0, 0.0, 0.1113, -244.15, -188.05)" gradientUnits="userSpaceOnUse" id="gradient6" r="819.2" spreadMethod="pad">
      <stop offset="0.0" stop-color="#464646"/>
      <stop offset="1.0" stop-color="#010101"/>
    </radialGradient>
    <radialGradient cx="0" cy="0" gradientTransform="matrix(0.069, 0.0, 0.0, 0.069, -284.3, -168.85)" gradientUnits="userSpaceOnUse" id="gradient7" r="819.2" spreadMethod="pad">
      <stop offset="0.0" stop-color="#737373"/>
      <stop offset="1.0" stop-color="#1a1a1a"/>
    </radialGradient>
    <radialGradient cx="0" cy="0" gradientTransform="matrix(0.035, 0.0, 0.0, 0.035, -235.25, -197.25)" gradientUnits="userSpaceOnUse" id="gradient8" r="819.2" spreadMethod="pad">
      <stop offset="0.0" stop-color="#000000"/>
      <stop offset="1.0" stop-color="#000000"/>
    </radialGradient>
    <radialGradient cx="0" cy="0" gradientTransform="matrix(0.1063, 0.0, 0.0, 0.1063, -313.45, -189.1)" gradientUnits="userSpaceOnUse" id="gradient9" r="819.2" spreadMethod="pad">
      <stop offset="0.0" stop-color="#0e0e0e"/>
      <stop offset="1.0" stop-color="#000000"/>
    </radialGradient>
    <radialGradient cx="0" cy="0" gradientTransform="matrix(0.1583, 0.0, 0.0, 0.1583, -280.35, -160.45)" gradientUnits="userSpaceOnUse" id="gradient10" r="819.2" spreadMethod="pad">
      <stop offset="0.0" stop-color="#7f7f7f"/>
      <stop offset="1.0" stop-color="#252525"/>
    </radialGradient>
    <radialGradient cx="0" cy="0" gradientTransform="matrix(0.0824, 0.0, 0.0, 0.0824, -280.35, -160.45)" gradientUnits="userSpaceOnUse" id="gradient11" r="819.2" spreadMethod="pad">
      <stop offset="0.0" stop-color="#7f7f7f"/>
      <stop offset="1.0" stop-color="#000000"/>
    </radialGradient>
    <radialGradient cx="0" cy="0" gradientTransform="matrix(0.175, 0.0, 0.0, 0.175, -400.0, -110.55)" gradientUnits="userSpaceOnUse" id="gradient12" r="819.2" spreadMethod="pad">
      <stop offset="0.0" stop-color="#555555"/>
      <stop offset="1.0" stop-color="#000000"/>
    </radialGradient>
    <radialGradient cx="0" cy="0" gradientTransform="matrix(0.1518, 0.0, 0.0, 0.1518, -398.5, -123.15)" gradientUnits="userSpaceOnUse" id="gradient13" r="819.2" spreadMethod="pad">
      <stop offset="0.0" stop-color="#292929"/>
      <stop offset="1.0" stop-color="#000000"/>
    </radialGradient>
    <radialGradient cx="0" cy="0" gradientTransform="matrix(0.1808, 0.0, 0.0, 0.1808, -400.0, -147.6)" gradientUnits="userSpaceOnUse" id="gradient14" r="819.2" spreadMethod="pad">
      <stop offset="0.0" stop-color="#2d2d2d"/>
      <stop offset="1.0" stop-color="#000000"/>
    </radialGradient>
    <radialGradient cx="0" cy="0" gradientTransform="matrix(0.1253, 0.0, 0.0, 0.1253, -244.15, -188.05)" gradientUnits="userSpaceOnUse" id="gradient15" r="819.2" spreadMethod="pad">
      <stop offset="0.0" stop-color="#464646"/>
      <stop offset="1.0" stop-color="#000000"/>
    </radialGradient>
    <radialGradient cx="0" cy="0" gradientTransform="matrix(0.0435, 0.0, 0.0, 0.0435, -244.15, -188.05)" gradientUnits="userSpaceOnUse" id="gradient16" r="819.2" spreadMethod="pad">
      <stop offset="0.0" stop-color="#464646"/>
      <stop offset="1.0" stop-color="#000000"/>
    </radialGradient>
    <radialGradient cx="0" cy="0" gradientTransform="matrix(0.1242, 0.0, 0.0, 0.1242, -149.85, -117.15)" gradientUnits="userSpaceOnUse" id="gradient17" r="819.2" spreadMethod="pad">
      <stop offset="0.0" stop-color="#494949"/>
      <stop offset="1.0" stop-color="#131313"/>
    </radialGradient>
    <radialGradient cx="0" cy="0" gradientTransform="matrix(0.0197, 0.0, 0.0, 0.0197, -193.2, -161.35)" gradientUnits="userSpaceOnUse" id="gradient18" r="819.2" spreadMethod="pad">
      <stop offset="0.0" stop-color="#000000"/>
      <stop offset="1.0" stop-color="#000000"/>
    </radialGradient>
    <radialGradient cx="0" cy="0" gradientTransform="matrix(0.1572, 0.0, 0.0, 0.1572, -194.6, -149.0)" gradientUnits="userSpaceOnUse" id="gradient19" r="819.2" spreadMethod="pad">
      <stop offset="0.0" stop-color="#575757"/>
      <stop offset="1.0" stop-color="#151515"/>
    </radialGradient>
    <radialGradient cx="0" cy="0" gradientTransform="matrix(0.1247, 0.0, 0.0, 0.1247, -234.0, -168.2)" gradientUnits="userSpaceOnUse" id="gradient20" r="819.2" spreadMethod="pad">
      <stop offset="0.0" stop-color="#000000"/>
      <stop offset="1.0" stop-color="#000000"/>
    </radialGradient>
    <radialGradient cx="0" cy="0" gradientTransform="matrix(0.1396, 0.0, 0.0, 0.1396, -207.45, -172.55)" gradientUnits="userSpaceOnUse" id="gradient21" r="819.2" spreadMethod="pad">
      <stop offset="0.0" stop-color="#000000"/>
      <stop offset="1.0" stop-color="#000000"/>
    </radialGradient>
    <radialGradient cx="0" cy="0" gradientTransform="matrix(0.0319, 0.0, 0.0, 0.0319, -204.15, -27.3)" gradientUnits="userSpaceOnUse" id="gradient22" r="819.2" spreadMethod="pad">
      <stop offset="0.0" stop-color="#4d4d4d"/>
      <stop offset="1.0" stop-color="#1c1c1c"/>
    </radialGradient>
    <radialGradient cx="0" cy="0" gradientTransform="matrix(0.0156, 0.0, 0.0, 0.0156, -215.65, -35.5)" gradientUnits="userSpaceOnUse" id="gradient23" r="819.2" spreadMethod="pad">
      <stop offset="0.0" stop-color="#000000"/>
      <stop offset="1.0" stop-color="#000000"/>
    </radialGradient>
    <radialGradient cx="0" cy="0" gradientTransform="matrix(0.0163, 0.0, 0.0, 0.0163, -214.5, -25.8)" gradientUnits="userSpaceOnUse" id="gradient24" r="819.2" spreadMethod="pad">
      <stop offset="0.0" stop-color="#000000"/>
      <stop offset="1.0" stop-color="#000000"/>
    </radialGradient>
    <radialGradient cx="0" cy="0" gradientTransform="matrix(0.016, 0.0, 0.0, 0.016, -213.6, -22.85)" gradientUnits="userSpaceOnUse" id="gradient25" r="819.2" spreadMethod="pad">
      <stop offset="0.0" stop-color="#000000"/>
      <stop offset="1.0" stop-color="#000000"/>
    </radialGradient>
    <radialGradient cx="0" cy="0" gradientTransform="matrix(0.0262, 0.0, 0.0, 0.0262, -204.8, -13.15)" gradientUnits="userSpaceOnUse" id="gradient26" r="819.2" spreadMethod="pad">
      <stop offset="0.0" stop-color="#383838"/>
      <stop offset="1.0" stop-color="#050505"/>
    </radialGradient>
    <radialGradient cx="0" cy="0" gradientTransform="matrix(0.0415, 0.0, 0.0, 0.0415, -182.5, -20.8)" gradientUnits="userSpaceOnUse" id="gradient27" r="819.2" spreadMethod="pad">
      <stop offset="0.0" stop-color="#393939"/>
      <stop offset="1.0" stop-color="#000000"/>
    </radialGradient>
    <radialGradient cx="0" cy="0" gradientTransform="matrix(0.0386, 0.0, 0.0, 0.0386, -185.45, -9.0)" gradientUnits="userSpaceOnUse" id="gradient28" r="819.2" spreadMethod="pad">
      <stop offset="0.0" stop-color="#1c1c1c"/>
      <stop offset="1.0" stop-color="#000000"/>
    </radialGradient>
    <radialGradient cx="0" cy="0" gradientTransform="matrix(0.0422, 0.0, 0.0, 0.0422, -400.0, -5.4)" gradientUnits="userSpaceOnUse" id="gradient29" r="819.2" spreadMethod="pad">
      <stop offset="0.0" stop-color="#212121"/>
      <stop offset="1.0" stop-color="#212121"/>
    </radialGradient>
    <radialGradient cx="0" cy="0" gradientTransform="matrix(0.0034, 0.0, 0.0, 0.0034, -365.45, -2.95)" gradientUnits="userSpaceOnUse" id="gradient30" r="819.2" spreadMethod="pad">
      <stop offset="0.0" stop-color="#484848"/>
      <stop offset="1.0" stop-color="#424242"/>
    </radialGradient>
  </defs>
</svg>
