<?xml version="1.0" encoding="UTF-8" standalone="no"?>
<svg xmlns:xlink="http://www.w3.org/1999/xlink" height="299.1px" width="288.35px" xmlns="http://www.w3.org/2000/svg">
  <g transform="matrix(1.0, 0.0, 0.0, 1.0, 400.0, 300.0)">
    <path d="M-183.9 -300.0 L-187.0 -280.9 -231.15 -286.5 -241.0 -286.4 -239.9 -300.0 -183.9 -300.0" fill="url(#gradient0)" fill-rule="evenodd" stroke="none"/>
    <path d="M-155.9 -282.65 L-163.9 -282.5 -187.0 -280.9 -183.9 -300.0 -153.75 -300.0 -155.9 -282.65" fill="url(#gradient1)" fill-rule="evenodd" stroke="none"/>
    <path d="M-140.15 -281.0 L-138.4 -276.65 -123.15 -236.65 -121.15 -201.0 -133.75 -169.25 -152.4 -142.65 -153.75 -140.9 -156.9 -139.0 -158.4 -138.15 -162.0 -136.15 -171.4 -139.5 -177.0 -132.65 -178.5 -131.65 -184.15 -129.4 -185.25 -129.25 -222.15 -139.9 -222.4 -140.0 -222.4 -140.65 -222.15 -141.15 -222.0 -141.5 -204.15 -190.75 -199.25 -237.75 -187.0 -280.9 -163.9 -282.5 -155.9 -282.65 -152.15 -269.0 -151.65 -269.0 -151.0 -269.4 -150.0 -271.9 -147.0 -282.15 -140.4 -281.65 -140.15 -281.0" fill="url(#gradient2)" fill-rule="evenodd" stroke="none"/>
    <path d="M-147.0 -282.15 L-150.0 -271.9 -151.0 -269.4 -151.65 -269.0 -152.15 -269.0 -155.9 -282.65 -153.75 -300.0 -144.75 -300.0 -147.0 -282.15" fill="url(#gradient3)" fill-rule="evenodd" stroke="none"/>
    <path d="M-134.75 -300.0 L-134.75 -298.0 -136.4 -290.25 -138.5 -279.15 -140.15 -281.0 -140.4 -281.65 -147.0 -282.15 -144.75 -300.0 -134.75 -300.0" fill="url(#gradient4)" fill-rule="evenodd" stroke="none"/>
    <path d="M-133.65 -300.0 L-133.65 -297.65 -134.4 -294.15 -135.65 -291.15 -136.4 -290.25 -134.75 -298.0 -134.75 -300.0 -133.65 -300.0" fill="url(#gradient5)" fill-rule="evenodd" stroke="none"/>
    <path d="M-134.4 -294.15 L-133.65 -297.65 -133.65 -300.0 -130.65 -300.0 -134.4 -294.15" fill="url(#gradient6)" fill-rule="evenodd" stroke="none"/>
    <path d="M-241.0 -286.4 L-244.9 -287.4 -244.0 -299.65 -243.9 -300.0 -239.9 -300.0 -241.0 -286.4" fill="url(#gradient7)" fill-rule="evenodd" stroke="none"/>
    <path d="M-187.0 -280.9 L-199.25 -237.75 -204.15 -190.75 -222.0 -141.5 -222.25 -142.4 -217.5 -192.5 -234.9 -194.0 -249.9 -198.9 -264.4 -189.0 -262.15 -210.65 -255.9 -237.65 -255.75 -237.75 -255.65 -238.25 -255.65 -238.5 -254.75 -240.5 -241.0 -286.4 -231.15 -286.5 -187.0 -280.9 M-222.15 -141.15 L-222.4 -140.65 -222.4 -141.0 -222.15 -141.15" fill="url(#gradient8)" fill-rule="evenodd" stroke="none"/>
    <path d="M-222.0 -141.5 L-222.15 -141.15 -222.4 -141.0 -222.9 -141.0 -234.4 -149.15 -226.25 -155.9 -222.25 -142.4 -222.0 -141.5 M-221.5 -139.25 L-221.15 -138.9 -219.65 -133.9 -217.65 -128.25 -219.0 -128.15 -229.5 -130.25 -221.5 -139.25 M-400.0 -136.65 L-400.0 -137.25 -388.9 -140.15 -388.9 -140.0 -400.0 -136.65 M-388.65 -140.15 L-388.5 -140.25 -388.5 -140.15 -388.65 -140.15 M-388.15 -140.25 L-388.0 -140.4 -388.0 -140.25 -388.15 -140.25" fill="url(#gradient9)" fill-rule="evenodd" stroke="none"/>
    <path d="M-222.4 -140.65 L-222.4 -140.0 -294.4 -136.25 -294.9 -136.4 -318.25 -153.75 -325.15 -157.5 -318.9 -160.25 -318.9 -160.4 -318.65 -160.4 -318.5 -160.4 -318.5 -160.5 Q-301.7 -167.6 -284.9 -174.75 L-264.4 -188.9 -264.4 -189.0 -249.9 -198.9 -234.9 -194.0 -217.5 -192.5 -222.25 -142.4 -226.25 -155.9 -234.4 -149.15 -222.9 -141.0 -222.4 -141.0 -222.4 -140.65" fill="url(#gradient10)" fill-rule="evenodd" stroke="none"/>
    <path d="M-241.0 -286.4 L-254.75 -240.5 -255.65 -238.5 -244.9 -287.4 -241.0 -286.4" fill="url(#gradient11)" fill-rule="evenodd" stroke="none"/>
    <path d="M-138.4 -276.65 L-140.15 -281.0 -138.5 -279.15 -138.4 -276.65" fill="url(#gradient12)" fill-rule="evenodd" stroke="none"/>
    <path d="M-400.0 -123.0 L-400.0 -136.65 -388.9 -140.0 -388.9 -140.15 -388.65 -140.15 -388.5 -140.15 -388.5 -140.25 -388.15 -140.25 -388.0 -140.25 -388.0 -140.4 -387.65 -140.4 -387.25 -140.5 -359.0 -149.5 -318.9 -160.4 -318.9 -160.25 -325.15 -157.5 -318.25 -153.75 -294.9 -136.4 -340.0 -146.15 -361.5 -135.0 -400.0 -123.0 M-318.65 -160.4 L-318.5 -160.5 -318.5 -160.4 -318.65 -160.4" fill="url(#gradient13)" fill-rule="evenodd" stroke="none"/>
    <path d="M-360.0 -61.75 L-360.25 -61.75 -363.65 -61.15 -364.15 -61.0 -364.5 -61.0 -366.15 -60.65 -366.5 -60.65 -367.5 -60.4 -367.9 -60.4 -368.15 -60.25 -368.5 -60.25 -369.5 -60.0 -369.9 -60.0 -370.15 -59.9 -370.5 -59.9 -370.75 -59.75 -371.25 -59.75 -371.5 -59.65 -371.9 -59.65 -372.15 -59.5 -372.5 -59.4 -373.25 -59.4 -373.5 -59.25 -373.9 -59.25 -374.15 -59.15 -374.5 -59.15 -374.75 -59.0 -375.25 -59.0 -375.5 -58.9 -375.9 -58.9 -376.15 -58.75 -380.65 -58.0 -381.0 -57.9 -391.9 -55.9 -394.25 -56.5 -397.75 -59.15 -400.0 -59.9 -400.0 -123.0 -361.5 -135.0 -340.0 -146.15 -294.9 -136.4 -294.4 -136.25 -261.0 -112.9 -254.25 -112.0 -327.5 -71.25 -360.0 -61.75" fill="url(#gradient14)" fill-rule="evenodd" stroke="none"/>
    <path d="M-158.4 -138.15 L-156.9 -139.0 -157.0 -137.0 -159.15 -133.0 -159.9 -133.65 -158.4 -138.15 M-153.75 -140.9 L-152.4 -142.65 -154.15 -129.15 -155.15 -129.75 -153.75 -140.9" fill="url(#gradient15)" fill-rule="evenodd" stroke="none"/>
    <path d="M-178.5 -131.65 L-177.0 -132.65 -168.65 -134.5 -159.9 -133.65 -159.15 -133.0 -157.5 -129.9 -155.65 -127.65 -155.25 -128.15 -155.15 -129.75 -154.15 -129.15 -154.15 -120.75 -152.9 -100.15 -158.65 -57.75 -165.15 -25.75 -169.25 -18.9 -174.4 -14.9 -175.75 -14.25 -185.9 -10.75 -193.0 -31.0 -192.25 -81.25 -187.5 -120.4 -187.4 -127.9 -184.5 -128.5 -178.5 -131.65 M-166.25 -131.25 L-163.75 -127.4 -158.15 -125.15 -157.65 -126.4 -158.25 -127.65 -163.15 -131.4 -166.25 -131.25" fill="url(#gradient16)" fill-rule="evenodd" stroke="none"/>
    <path d="M-156.9 -139.0 L-153.75 -140.9 -155.15 -129.75 -155.25 -128.15 -155.65 -127.65 -157.5 -129.9 -159.15 -133.0 -157.0 -137.0 -156.9 -139.0 M-166.25 -131.25 L-163.15 -131.4 -158.25 -127.65 -157.65 -126.4 -158.15 -125.15 -163.75 -127.4 -166.25 -131.25 M-172.4 -11.9 L-173.75 -10.65 -174.15 -10.65 -172.65 -14.9 -172.4 -11.9" fill="url(#gradient17)" fill-rule="evenodd" stroke="none"/>
    <path d="M-162.0 -136.15 L-158.4 -138.15 -159.9 -133.65 -168.65 -134.5 -162.0 -136.15" fill="url(#gradient18)" fill-rule="evenodd" stroke="none"/>
    <path d="M-177.0 -132.65 L-171.4 -139.5 -162.0 -136.15 -168.65 -134.5 -177.0 -132.65" fill="url(#gradient19)" fill-rule="evenodd" stroke="none"/>
    <path d="M-222.4 -140.0 L-222.15 -139.9 -221.5 -139.25 -229.5 -130.25 -219.0 -128.15 -217.65 -128.25 -219.65 -133.9 -221.15 -138.9 -207.65 -128.15 -207.25 -128.0 -207.0 -127.65 -206.65 -127.5 -206.4 -127.15 -206.0 -127.0 -205.75 -126.65 -205.4 -126.5 -205.15 -126.15 -204.75 -125.75 -206.4 -124.15 -216.9 -121.4 -249.4 -113.25 -254.25 -112.0 -261.0 -112.9 -294.4 -136.25 -222.4 -140.0" fill="url(#gradient20)" fill-rule="evenodd" stroke="none"/>
    <path d="M-222.15 -139.9 L-185.25 -129.25 -184.15 -129.4 -178.5 -131.65 -184.5 -128.5 -187.4 -127.9 -203.0 -124.75 -205.15 -126.15 -205.4 -126.5 -205.75 -126.65 -206.0 -127.0 -206.4 -127.15 -206.65 -127.5 -207.0 -127.65 -207.25 -128.0 -207.65 -128.15 -221.15 -138.9 -221.5 -139.25 -222.15 -139.9 M-204.75 -125.75 L-203.4 -124.65 -206.4 -124.15 -204.75 -125.75" fill="url(#gradient21)" fill-rule="evenodd" stroke="none"/>
    <path d="M-205.15 -126.15 L-203.0 -124.75 -202.9 -124.5 -203.4 -124.65 -204.75 -125.75 -205.15 -126.15" fill="url(#gradient22)" fill-rule="evenodd" stroke="none"/>
    <path d="M-203.0 -124.75 L-187.4 -127.9 -187.5 -120.4 -192.25 -81.25 -193.0 -31.0 -185.9 -10.75 -206.65 -13.5 -215.15 -17.25 -222.5 -21.15 -225.9 -25.4 -226.15 -25.65 -223.4 -51.9 -219.75 -95.4 -216.75 -121.4 -216.9 -121.4 -206.4 -124.15 -203.4 -124.65 -202.9 -124.5 -203.0 -124.75" fill="url(#gradient23)" fill-rule="evenodd" stroke="none"/>
    <path d="M-169.25 -18.9 L-171.5 -8.4 -177.25 -4.15 -187.65 -0.9 -188.65 -0.9 -185.9 -10.75 -175.75 -14.25 -174.4 -14.9 -169.25 -18.9 M-172.4 -11.9 L-172.65 -14.9 -174.15 -10.65 -173.75 -10.65 -172.4 -11.9" fill="url(#gradient24)" fill-rule="evenodd" stroke="none"/>
    <path d="M-249.4 -113.25 L-322.4 -71.4 -354.25 -62.75 -360.0 -61.75 -327.5 -71.25 -254.25 -112.0 -249.4 -113.25" fill="url(#gradient25)" fill-rule="evenodd" stroke="none"/>
    <path d="M-225.9 -25.4 L-222.5 -21.15 -215.15 -17.25 -206.65 -13.5 -185.9 -10.75 -188.65 -0.9 -197.25 -0.9 -207.15 -1.4 Q-213.5 -9.25 -221.0 -10.75 L-223.5 -13.75 -225.9 -25.4" fill="url(#gradient26)" fill-rule="evenodd" stroke="none"/>
    <path d="M-221.4 -1.15 L-223.5 -13.75 -221.0 -10.75 -221.4 -1.15" fill="url(#gradient27)" fill-rule="evenodd" stroke="none"/>
    <path d="M-197.25 -0.9 L-221.4 -0.9 -221.4 -1.15 -221.0 -10.75 Q-213.5 -9.25 -207.15 -1.4 L-197.25 -0.9" fill="url(#gradient28)" fill-rule="evenodd" stroke="none"/>
    <path d="M-372.5 -59.4 L-370.4 -51.65 -366.4 -30.15 -367.5 -19.4 -370.15 -0.9 -400.0 -0.9 -400.0 -54.5 -397.65 -54.65 -394.25 -56.5 -391.9 -55.9 -381.0 -57.9 -380.65 -58.0 -376.15 -58.75 -375.9 -58.9 -375.5 -58.9 -375.25 -59.0 -374.75 -59.0 -374.5 -59.15 -374.15 -59.15 -373.9 -59.25 -373.5 -59.25 -373.25 -59.4 -372.5 -59.4" fill="url(#gradient29)" fill-rule="evenodd" stroke="none"/>
    <path d="M-400.0 -54.5 L-400.0 -59.9 -397.75 -59.15 -394.25 -56.5 -397.65 -54.65 -400.0 -54.5" fill="url(#gradient30)" fill-rule="evenodd" stroke="none"/>
    <path d="M-171.5 -8.4 L-169.5 -0.9 -187.65 -0.9 -177.25 -4.15 -171.5 -8.4" fill="url(#gradient31)" fill-rule="evenodd" stroke="none"/>
    <path d="M-249.15 -300.0 L-243.9 -300.0 -244.75 -289.15 -244.75 -288.9 -244.9 -288.5 -244.9 -287.4 -246.9 -278.4 -249.15 -278.5 -249.15 -279.75 -249.15 -300.0" fill="#ee0000" fill-rule="evenodd" stroke="none"/>
    <path d="M-243.9 -300.0 L-197.15 -299.75 -185.4 -300.0 -186.75 -281.25 -187.0 -281.0 -187.0 -280.9 -187.15 -279.65 -187.0 -279.25 -187.75 -271.25 -239.15 -278.25 -242.0 -278.25 -243.4 -278.4 -246.9 -278.4 -244.9 -287.4 -244.9 -288.5 -244.75 -288.9 -244.75 -289.15 -243.9 -300.0" fill="#dd0000" fill-opacity="0.9098039" fill-rule="evenodd" stroke="none"/>
    <path d="M-185.4 -300.0 L-138.0 -300.0 -137.5 -299.9 -135.15 -300.0 -134.75 -299.75 -134.9 -299.0 -134.75 -298.15 -135.15 -297.0 -136.15 -291.25 -136.25 -290.9 -136.15 -290.75 -138.65 -279.25 -138.5 -279.15 -138.5 -277.15 -137.0 -272.9 -156.5 -273.4 -157.65 -273.25 -158.25 -273.25 -187.65 -271.15 -187.75 -271.25 -187.0 -279.25 -187.15 -279.65 -187.0 -280.9 -187.0 -281.0 -186.75 -281.25 -185.4 -300.0" fill="#a60000" fill-opacity="0.9098039" fill-rule="evenodd" stroke="none"/>
    <path d="M-187.75 -271.25 L-187.65 -271.15 -197.75 -237.5 -198.0 -236.4 -199.9 -230.65 -200.4 -228.0 -201.9 -223.65 -201.9 -222.65 -202.65 -216.5 -202.75 -216.5 -202.65 -215.4 -202.9 -214.15 -204.9 -193.65 -205.15 -193.4 -205.0 -192.4 -205.25 -191.15 -205.25 -190.0 -205.4 -188.75 -205.4 -187.9 -205.75 -186.25 -206.0 -185.5 -207.15 -172.4 -219.65 -139.15 -219.65 -139.0 -220.0 -138.25 -220.0 -138.0 -220.15 -137.75 -220.25 -137.4 -220.5 -137.0 -220.65 -137.0 -220.5 -136.5 -220.65 -136.5 -220.65 -136.4 -220.75 -136.0 -220.9 -135.75 -221.0 -135.4 -221.4 -134.4 -221.5 -134.0 -221.65 -133.75 -221.9 -133.0 -222.15 -132.75 -222.25 -132.25 -222.25 -132.0 -222.4 -131.75 -222.9 -130.4 -223.0 -130.0 -223.15 -129.75 -223.25 -129.4 -223.5 -129.0 -223.5 -128.75 -223.65 -128.4 -223.75 -128.0 -223.9 -127.75 -224.4 -126.4 -224.5 -126.0 -224.65 -125.75 -225.15 -124.4 -225.25 -124.0 -225.4 -123.75 -225.5 -123.4 -225.9 -122.4 -226.0 -122.0 -226.15 -121.75 -226.25 -121.4 -226.65 -120.75 -226.65 -120.4 -227.0 -119.65 -227.0 -119.4 -227.4 -118.75 -227.9 -118.65 -227.75 -119.4 -227.75 -120.5 -226.65 -132.4 -226.5 -132.75 -226.65 -133.5 -226.25 -134.0 -226.15 -136.75 -226.25 -137.15 -226.15 -137.4 -225.75 -141.9 -225.9 -142.15 -225.65 -142.9 -225.75 -143.15 -224.75 -150.65 -224.75 -151.0 -224.9 -151.25 -224.9 -151.75 -222.9 -174.4 -242.75 -176.0 -261.15 -191.0 -261.9 -191.9 -262.5 -191.9 -264.15 -191.0 -262.0 -211.15 -262.0 -211.5 -256.15 -236.15 -255.9 -237.65 -255.75 -237.75 -255.65 -238.25 -255.65 -238.5 -246.9 -278.4 -243.4 -278.4 -242.0 -278.25 -239.15 -278.25 -187.75 -271.25" fill="#d80000" fill-opacity="0.9098039" fill-rule="evenodd" stroke="none"/>
    <path d="M-134.75 -299.75 L-133.65 -300.0 -130.65 -300.0 -134.25 -294.5 -134.4 -294.0 -134.75 -293.4 -135.65 -291.25 -136.25 -290.9 -136.15 -291.25 -135.15 -297.0 -134.75 -298.15 -134.9 -299.0 -134.75 -299.75" fill="#ba0000" fill-rule="evenodd" stroke="none"/>
    <path d="M-130.65 -300.0 L-125.15 -300.0 -124.9 -299.4 -126.25 -291.15 -131.9 -270.4 -134.0 -272.65 -137.0 -272.9 -138.5 -277.15 -138.5 -279.15 -138.65 -279.25 -136.15 -290.75 -136.25 -290.9 -135.65 -291.25 -134.75 -293.4 -134.4 -294.0 -134.25 -294.5 -130.65 -300.0" fill="#bc0000" fill-rule="evenodd" stroke="none"/>
    <path d="M-134.0 -272.65 L-131.9 -270.4 -133.0 -270.5 -133.75 -272.0 -134.0 -272.65" fill="#b60000" fill-rule="evenodd" stroke="none"/>
    <path d="M-310.65 -165.0 L-280.9 -183.25 -299.25 -168.75 -299.4 -168.65 -299.5 -168.5 -309.65 -164.25 -310.65 -165.0 M-137.0 -272.9 L-134.0 -272.65 -133.75 -272.0 -133.9 -270.65 -136.25 -271.0 -137.0 -272.9" fill="#df0000" fill-rule="evenodd" stroke="none"/>
    <path d="M-253.0 -279.9 L-252.65 -299.65 -252.5 -300.0 -249.15 -300.0 -249.15 -279.75 -253.0 -279.9" fill="#ac0000" fill-rule="evenodd" stroke="none"/>
    <path d="M-400.0 -141.75 L-399.9 -155.0 -326.9 -160.9 -326.5 -161.0 -326.5 -160.9 -326.9 -160.9 -400.0 -141.75 M-265.9 -226.5 L-253.0 -279.9 -249.15 -279.75 -249.15 -278.5 -265.15 -228.0 -265.9 -226.5" fill="#ab0000" fill-rule="evenodd" stroke="none"/>
    <path d="M-279.4 -184.4 L-273.15 -197.0 -266.15 -225.75 -266.0 -225.9 -265.9 -226.4 -265.9 -226.5 -265.15 -228.0 -249.15 -278.5 -246.9 -278.4 -255.65 -238.5 -255.65 -238.25 -255.75 -237.75 -255.9 -237.65 -256.15 -236.15 -262.0 -211.5 -262.0 -211.15 -264.15 -191.0 -279.4 -184.4" fill="#e80000" fill-rule="evenodd" stroke="none"/>
    <path d="M-264.15 -191.0 L-262.5 -191.9 -261.9 -191.9 -261.15 -191.0 -242.75 -176.0 -222.9 -174.4 -224.9 -151.75 -224.9 -151.25 -224.75 -151.0 -224.75 -150.65 -225.75 -143.15 -225.65 -142.9 -225.9 -142.15 -225.75 -141.9 -226.15 -137.4 -226.25 -137.15 -226.15 -136.75 -226.25 -134.0 -226.65 -133.5 -226.5 -132.75 -226.65 -132.4 -227.75 -120.5 -227.75 -119.4 -227.9 -118.65 -230.25 -118.0 -277.9 -143.75 -309.65 -164.25 -299.5 -168.5 -299.4 -168.65 -299.25 -168.75 -285.75 -174.4 -285.65 -174.4 -284.9 -174.75 -264.4 -188.9 -264.4 -189.0 -264.15 -191.0" fill="#d00000" fill-opacity="0.9098039" fill-rule="evenodd" stroke="none"/>
    <path d="M-227.9 -118.65 L-227.4 -118.75 -227.4 -118.4 -227.65 -118.0 -227.75 -117.75 -227.9 -118.65" fill="#e90000" fill-rule="evenodd" stroke="none"/>
    <path d="M-187.65 -271.15 L-158.25 -273.25 -157.65 -273.25 -156.5 -273.4 -137.0 -272.9 -136.25 -271.0 -133.5 -264.15 -123.25 -236.75 -121.15 -201.25 -133.65 -169.65 -137.9 -163.65 -136.0 -168.65 -135.75 -168.9 -133.25 -174.75 -132.9 -176.25 -131.9 -178.25 -132.5 -181.5 -132.65 -184.25 -134.15 -191.5 -134.0 -192.25 -137.75 -214.5 -136.0 -198.15 -135.9 -198.15 -134.9 -189.9 -134.9 -188.9 -133.9 -180.4 -139.0 -167.5 -139.15 -167.25 -143.5 -155.75 -144.25 -154.25 -145.9 -151.9 -152.5 -142.5 -152.4 -142.15 -152.9 -137.5 -153.4 -136.25 -154.25 -135.25 -154.65 -134.25 -156.5 -131.75 -156.9 -130.65 -157.4 -130.25 -157.5 -130.15 -157.65 -129.9 -157.65 -129.5 -161.65 -123.25 -162.15 -122.25 -162.9 -121.25 -176.0 -99.25 -176.4 -98.4 -177.5 -96.5 -185.65 -92.4 -201.25 -101.25 -201.5 -101.5 -201.9 -101.5 -203.9 -102.9 -210.9 -106.9 -211.5 -107.15 -211.65 -107.4 -218.0 -110.9 -217.5 -114.25 -217.5 -114.65 -217.4 -115.5 -217.4 -116.0 -217.25 -116.65 -217.25 -117.25 -217.15 -117.65 -217.15 -118.65 -217.0 -119.15 -216.9 -119.75 -216.9 -120.4 -216.75 -120.9 -216.75 -121.4 -216.9 -121.4 -227.4 -118.75 -227.0 -119.4 -227.0 -119.65 -226.65 -120.4 -226.65 -120.75 -226.25 -121.4 -226.15 -121.75 -226.0 -122.0 -225.9 -122.4 -225.5 -123.4 -225.4 -123.75 -225.25 -124.0 -225.15 -124.4 -224.65 -125.75 -224.5 -126.0 -224.4 -126.4 -223.9 -127.75 -223.75 -128.0 -223.65 -128.4 -223.5 -128.75 -223.5 -129.0 -223.25 -129.4 -223.15 -129.75 -223.0 -130.0 -222.9 -130.4 -222.4 -131.75 -222.25 -132.0 -222.25 -132.25 -222.15 -132.75 -221.9 -133.0 -221.65 -133.75 -221.5 -134.0 -221.4 -134.4 -221.0 -135.4 -220.9 -135.75 -220.75 -136.0 -220.65 -136.4 -220.65 -136.5 -220.5 -136.5 -220.65 -137.0 -220.5 -137.0 -220.25 -137.4 -220.15 -137.75 -220.0 -138.0 -220.0 -138.25 -219.65 -139.0 -219.65 -139.15 -207.15 -172.4 -206.0 -185.5 -205.75 -186.25 -205.4 -187.9 -205.4 -188.75 -205.25 -190.0 -205.25 -191.15 -205.0 -192.4 -205.15 -193.4 -204.9 -193.65 -202.9 -214.15 -202.65 -215.4 -202.75 -216.5 -202.65 -216.5 -201.9 -222.65 -201.9 -223.65 -200.4 -228.0 -199.9 -230.65 -198.0 -236.4 -197.75 -237.5 -187.65 -271.15 M-172.9 -103.5 L-158.15 -125.75 -157.75 -126.25 -157.75 -126.4 -157.9 -126.5 -155.15 -130.25 -154.9 -130.9 -153.9 -132.25 -153.75 -131.75 -154.25 -129.75 -154.4 -129.4 -154.25 -129.25 -154.15 -125.4 -154.4 -124.25 -154.4 -124.15 -154.5 -123.9 -153.25 -107.65 -153.4 -107.4 -158.75 -103.65 -158.9 -103.4 -159.75 -103.0 -172.9 -103.5" fill="#c90000" fill-opacity="0.9098039" fill-rule="evenodd" stroke="none"/>
    <path d="M-136.25 -271.0 L-133.9 -270.65 -133.5 -264.15 -136.25 -271.0 M-144.25 -154.25 L-144.15 -154.0 -145.9 -150.15 -145.75 -151.65 -145.9 -151.9 -144.25 -154.25 M-147.0 -142.65 L-146.65 -143.65 -144.25 -148.4 -144.15 -148.0 -149.15 -120.9 -146.9 -141.65 -147.0 -142.65 M-149.15 -120.5 L-149.0 -120.25 -149.25 -120.15 -149.15 -120.5" fill="#de0000" fill-rule="evenodd" stroke="none"/>
    <path d="M-132.0 -268.4 L-131.65 -266.75 -114.25 -224.9 -111.65 -185.75 -126.0 -151.5 -148.9 -112.15 -149.0 -111.5 -150.15 -110.15 -149.75 -115.25 -149.9 -116.75 -149.25 -120.15 -149.0 -120.25 -149.15 -120.5 -149.15 -120.9 -144.15 -148.0 -144.25 -148.4 -146.65 -143.65 -147.0 -142.65 -153.5 -133.15 -153.9 -132.25 -154.9 -130.9 -155.15 -130.25 -157.9 -126.5 -157.75 -126.4 -157.75 -126.25 -158.15 -125.75 -172.9 -103.5 -175.65 -99.25 -176.4 -98.4 -176.0 -99.25 -162.9 -121.25 -162.15 -122.25 -161.65 -123.25 -157.65 -129.5 -157.65 -129.9 -157.5 -130.15 -157.4 -130.25 -156.9 -130.65 -156.5 -131.75 -154.65 -134.25 -154.25 -135.25 -153.4 -136.25 -152.9 -137.5 -146.4 -148.15 -145.9 -150.15 -144.15 -154.0 -144.25 -154.25 -143.5 -155.75 -139.15 -167.25 -139.0 -167.5 -133.9 -180.4 -134.9 -188.9 -134.9 -189.9 -135.9 -198.15 -136.0 -198.15 -137.75 -214.5 -134.0 -192.25 -134.15 -191.5 -132.65 -184.25 -132.5 -181.5 -131.9 -178.25 -132.9 -176.25 -133.25 -174.75 -135.75 -168.9 -136.0 -168.65 -137.9 -163.65 -133.65 -169.65 -121.15 -201.25 -123.25 -236.75 -133.5 -264.15 -133.9 -270.65 -133.75 -272.0 -133.0 -270.5 -132.0 -268.4" fill="#d80000" fill-rule="evenodd" stroke="none"/>
    <path d="M-131.9 -270.4 L-132.0 -268.4 -133.0 -270.5 -131.9 -270.4" fill="#b50000" fill-rule="evenodd" stroke="none"/>
    <path d="M-149.0 -111.5 L-142.0 -76.4 -148.5 -31.5 -152.4 -0.9 -167.15 -0.9 -165.65 -22.9 -165.75 -24.65 -165.15 -25.75 -159.4 -54.15 -159.5 -54.4 -158.65 -58.4 -158.75 -58.4 -158.5 -59.4 -155.75 -79.4 -155.75 -80.5 -152.9 -100.15 -153.0 -100.75 -153.4 -107.4 -153.25 -107.65 Q-151.8 -108.55 -150.4 -109.5 L-150.15 -110.15 -149.0 -111.5 M-221.5 -0.9 L-240.15 -0.9 -239.15 -31.75 -248.15 -64.15 -257.65 -89.15 -257.75 -89.9 -257.4 -90.65 -254.5 -110.15 -249.4 -113.25 -230.25 -118.0 -228.15 -117.0 -218.0 -110.9 -218.65 -105.0 -218.65 -104.75 -218.75 -104.25 -218.75 -103.75 -218.9 -103.4 -219.75 -94.75 -219.75 -93.9 -220.65 -83.75 -220.65 -83.65 -220.75 -82.65 -220.75 -82.15 -220.9 -81.5 -220.9 -80.65 -221.0 -80.4 -224.0 -45.0 -226.15 -25.65 -225.9 -25.4 -225.9 -24.65 -225.75 -24.4 -225.75 -24.25 -223.5 -13.75 -221.65 -1.9 -221.4 -1.15 -221.5 -0.9" fill="#bb0000" fill-rule="evenodd" stroke="none"/>
    <path d="M-149.9 -116.75 L-149.75 -115.25 -150.15 -110.15 -150.4 -109.5 Q-151.8 -108.55 -153.25 -107.65 L-154.5 -123.9 -154.4 -124.15 -154.4 -124.25 -154.15 -125.4 -149.9 -116.75 M-227.4 -118.75 L-216.9 -121.4 -216.75 -121.4 -216.75 -120.9 -216.9 -120.4 -216.9 -119.75 -217.0 -119.15 -217.15 -118.65 -217.15 -117.65 -217.25 -117.25 -217.25 -116.65 -217.4 -116.0 -217.4 -115.5 -217.5 -114.65 -217.5 -114.25 -218.0 -110.9 -228.15 -117.0 -227.75 -117.75 -227.65 -118.0 -227.4 -118.4 -227.4 -118.75" fill="#d90000" fill-rule="evenodd" stroke="none"/>
    <path d="M-145.9 -150.15 L-146.4 -148.15 -152.9 -137.5 -152.4 -142.15 -152.5 -142.5 -145.9 -151.9 -145.75 -151.65 -145.9 -150.15 M-153.9 -132.25 L-153.5 -133.15 -147.0 -142.65 -146.9 -141.65 -149.15 -120.9 -149.15 -120.5 -149.25 -120.15 -149.9 -116.75 -154.15 -125.4 -154.25 -129.25 -154.4 -129.4 -154.25 -129.75 -153.75 -131.75 -153.9 -132.25" fill="#dd0000" fill-rule="evenodd" stroke="none"/>
    <path d="M-169.5 -0.9 L-221.5 -0.9 -221.4 -1.15 -221.65 -1.9 -223.5 -13.75 -225.75 -24.25 -225.75 -24.4 -225.9 -24.65 -225.9 -25.4 -226.15 -25.65 -224.0 -45.0 -221.0 -80.4 -220.9 -80.65 -220.9 -81.5 -220.75 -82.15 -220.75 -82.65 -220.65 -83.65 -220.65 -83.75 -219.75 -93.9 -219.75 -94.75 -218.9 -103.4 -218.75 -103.75 -218.75 -104.25 -218.65 -104.75 -218.65 -105.0 -218.0 -110.9 -211.65 -107.4 -211.5 -107.15 -210.9 -106.9 -203.9 -102.9 -201.9 -101.5 -201.5 -101.5 -201.25 -101.25 -185.65 -92.4 -177.5 -96.5 -176.4 -98.4 -175.65 -99.25 -172.9 -103.5 -159.75 -103.0 -158.9 -103.4 -158.75 -103.65 -153.4 -107.4 -153.0 -100.75 -152.9 -100.15 -155.75 -80.5 -155.75 -79.4 -158.5 -59.4 -158.75 -58.4 -158.65 -58.4 -159.5 -54.4 -159.4 -54.15 -165.15 -25.75 -165.75 -24.65 -169.25 -19.25 -169.5 -18.65 -169.4 -18.15 -171.75 -8.15 -171.5 -7.75 -169.5 -0.9 M-263.5 -105.0 L-265.4 -109.9 -265.25 -110.15 -268.15 -117.75 -268.4 -118.25 -277.75 -143.25 -277.9 -143.75 -230.25 -118.0 -249.4 -113.25 -254.5 -110.15 -263.5 -105.0" fill="#ab0000" fill-opacity="0.9098039" fill-rule="evenodd" stroke="none"/>
    <path d="M-280.9 -183.25 L-280.9 -183.4 -280.5 -183.5 -279.4 -184.4 -264.15 -191.0 -264.4 -189.0 -264.4 -188.9 -284.9 -174.75 -285.65 -174.4 -285.75 -174.4 -299.25 -168.75 -280.9 -183.25" fill="#e00000" fill-rule="evenodd" stroke="none"/>
    <path d="M-400.0 -137.25 L-400.0 -141.75 -326.9 -160.9 -326.5 -160.9 -326.5 -161.0 -326.0 -161.0 -310.65 -165.0 -309.65 -164.25 -318.5 -160.5 -318.65 -160.4 -318.9 -160.4 -335.65 -155.9 -335.9 -155.9 -336.15 -155.75 -336.25 -155.75 -342.5 -154.0 -343.5 -153.75 -343.75 -153.75 -344.15 -153.65 -344.25 -153.65 -357.9 -149.75 -358.4 -149.65 -358.65 -149.5 -358.75 -149.5 -387.65 -140.4 -388.0 -140.4 -388.15 -140.25 -388.5 -140.25 -388.65 -140.15 -388.9 -140.15 -400.0 -137.25" fill="#eb0000" fill-rule="evenodd" stroke="none"/>
    <path d="M-277.75 -143.25 L-278.65 -125.25 -278.5 -125.0 -279.25 -101.4 -279.5 -101.15 -279.4 -98.15 -279.5 -97.9 -279.4 -97.65 -279.5 -96.9 -279.5 -96.0 -279.65 -95.75 -314.65 -76.0 -314.65 -75.9 -315.25 -75.65 -315.5 -75.4 -315.9 -75.25 -322.75 -71.4 -352.25 -63.4 -352.4 -63.4 -352.75 -63.25 -358.25 -62.15 -358.65 -62.0 -358.9 -62.0 -359.65 -61.9 -360.0 -61.75 -360.25 -61.75 -363.65 -61.15 -364.15 -61.0 -364.5 -61.0 -366.15 -60.65 -366.5 -60.65 -367.5 -60.4 -367.9 -60.4 -368.15 -60.25 -368.5 -60.25 -369.5 -60.0 -369.9 -60.0 -370.15 -59.9 -370.5 -59.9 -370.75 -59.75 -371.25 -59.75 -371.5 -59.65 -371.9 -59.65 -372.15 -59.5 -372.5 -59.4 -369.75 -47.15 -369.65 -46.5 -369.65 -46.4 -367.9 -37.15 -367.9 -37.0 -367.75 -36.65 -367.75 -36.4 -366.4 -30.0 -366.75 -27.15 -366.65 -26.5 -368.5 -13.0 -368.4 -12.25 -368.65 -12.15 -369.0 -7.25 -369.75 -3.65 -369.65 -3.25 -369.9 -3.0 -369.75 -2.5 -370.15 -0.9 -399.65 -0.9 -400.0 -1.15 -399.9 -67.0 -400.0 -68.5 -400.0 -137.25 -388.9 -140.15 -388.65 -140.15 -388.5 -140.25 -388.15 -140.25 -388.0 -140.4 -387.65 -140.4 -358.75 -149.5 -358.65 -149.5 -358.4 -149.65 -357.9 -149.75 -344.25 -153.65 -344.15 -153.65 -343.75 -153.75 -343.5 -153.75 -342.5 -154.0 -336.25 -155.75 -336.15 -155.75 -335.9 -155.9 -335.65 -155.9 -318.9 -160.4 -318.65 -160.4 -318.5 -160.5 -309.65 -164.25 -277.9 -143.75 -277.75 -143.25" fill="#dc0000" fill-opacity="0.9098039" fill-rule="evenodd" stroke="none"/>
    <path d="M-279.65 -95.75 L-279.5 -93.9 -281.65 -31.25 -288.15 -0.9 -370.15 -0.9 -369.75 -2.5 -369.9 -3.0 -369.65 -3.25 -369.75 -3.65 -369.0 -7.25 -368.65 -12.15 -368.4 -12.25 -368.5 -13.0 -366.65 -26.5 -366.75 -27.15 -366.4 -30.0 -367.75 -36.4 -367.75 -36.65 -367.9 -37.0 -367.9 -37.15 -369.65 -46.4 -369.65 -46.5 -369.75 -47.15 -372.5 -59.4 -372.15 -59.5 -371.9 -59.65 -371.5 -59.65 -371.25 -59.75 -370.75 -59.75 -370.5 -59.9 -370.15 -59.9 -369.9 -60.0 -369.5 -60.0 -368.5 -60.25 -368.15 -60.25 -367.9 -60.4 -367.5 -60.4 -366.5 -60.65 -366.15 -60.65 -364.5 -61.0 -364.15 -61.0 -363.65 -61.15 -360.25 -61.75 -360.0 -61.75 -359.65 -61.9 -358.9 -62.0 -358.65 -62.0 -358.25 -62.15 -352.75 -63.25 -352.4 -63.4 -352.25 -63.4 -322.75 -71.4 -315.9 -75.25 -315.5 -75.4 -315.25 -75.65 -314.65 -75.9 -314.65 -76.0 -279.65 -95.75" fill="#f20000" fill-opacity="0.9098039" fill-rule="evenodd" stroke="none"/>
    <path d="M-227.75 -117.75 L-228.15 -117.0 -230.25 -118.0 -227.9 -118.65 -227.75 -117.75" fill="#e10000" fill-rule="evenodd" stroke="none"/>
    <path d="M-167.15 -0.9 L-169.5 -0.9 -171.5 -7.75 -171.75 -8.15 -169.4 -18.15 -169.5 -18.65 -169.25 -19.25 -165.75 -24.65 -165.65 -22.9 -167.15 -0.9 M-257.75 -89.9 L-263.5 -105.0 -254.5 -110.15 -257.4 -90.65 -257.75 -89.9" fill="#bc0000" fill-opacity="0.9098039" fill-rule="evenodd" stroke="none"/>
    <path d="M-240.15 -0.9 L-270.4 -0.9 -266.65 -30.75 -257.65 -89.15 -248.15 -64.15 -239.15 -31.75 -240.15 -0.9" fill="#ba0000" fill-opacity="0.9098039" fill-rule="evenodd" stroke="none"/>
  </g>
  <defs>
    <radialGradient cx="0" cy="0" gradientTransform="matrix(0.0687, 0.0, 0.0, 0.0687, -186.9, -280.9)" gradientUnits="userSpaceOnUse" id="gradient0" r="819.2" spreadMethod="pad">
      <stop offset="0.0" stop-color="#666666"/>
      <stop offset="1.0" stop-color="#0a0a0a"/>
    </radialGradient>
    <radialGradient cx="0" cy="0" gradientTransform="matrix(0.0364, 0.0, 0.0, 0.0364, -159.45, -282.85)" gradientUnits="userSpaceOnUse" id="gradient1" r="819.2" spreadMethod="pad">
      <stop offset="0.0" stop-color="#696969"/>
      <stop offset="1.0" stop-color="#2f2f2f"/>
    </radialGradient>
    <radialGradient cx="0" cy="0" gradientTransform="matrix(0.1158, 0.0, 0.0, 0.1158, -151.4, -192.9)" gradientUnits="userSpaceOnUse" id="gradient2" r="819.2" spreadMethod="pad">
      <stop offset="0.0" stop-color="#838383"/>
      <stop offset="1.0" stop-color="#3f3f3f"/>
    </radialGradient>
    <radialGradient cx="0" cy="0" gradientTransform="matrix(0.0768, 0.0, 0.0, 0.0768, -165.45, -240.75)" gradientUnits="userSpaceOnUse" id="gradient3" r="819.2" spreadMethod="pad">
      <stop offset="0.0" stop-color="#656565"/>
      <stop offset="1.0" stop-color="#000000"/>
    </radialGradient>
    <radialGradient cx="0" cy="0" gradientTransform="matrix(0.0246, 0.0, 0.0, 0.0246, -143.65, -281.95)" gradientUnits="userSpaceOnUse" id="gradient4" r="819.2" spreadMethod="pad">
      <stop offset="0.0" stop-color="#575757"/>
      <stop offset="1.0" stop-color="#000000"/>
    </radialGradient>
    <radialGradient cx="0" cy="0" gradientTransform="matrix(0.0082, 0.0, 0.0, 0.0082, -134.5, -294.05)" gradientUnits="userSpaceOnUse" id="gradient5" r="819.2" spreadMethod="pad">
      <stop offset="0.0" stop-color="#000000"/>
      <stop offset="1.0" stop-color="#000000"/>
    </radialGradient>
    <radialGradient cx="0" cy="0" gradientTransform="matrix(0.0082, 0.0, 0.0, 0.0082, -133.75, -300.0)" gradientUnits="userSpaceOnUse" id="gradient6" r="819.2" spreadMethod="pad">
      <stop offset="0.0" stop-color="#0d0d0d"/>
      <stop offset="1.0" stop-color="#000000"/>
    </radialGradient>
    <radialGradient cx="0" cy="0" gradientTransform="matrix(0.017, 0.0, 0.0, 0.017, -243.9, -300.0)" gradientUnits="userSpaceOnUse" id="gradient7" r="819.2" spreadMethod="pad">
      <stop offset="0.0" stop-color="#000000"/>
      <stop offset="1.0" stop-color="#000000"/>
    </radialGradient>
    <radialGradient cx="0" cy="0" gradientTransform="matrix(0.0957, 0.0, 0.0, 0.0957, -232.75, -217.3)" gradientUnits="userSpaceOnUse" id="gradient8" r="819.2" spreadMethod="pad">
      <stop offset="0.0" stop-color="#6e6e6e"/>
      <stop offset="1.0" stop-color="#454545"/>
    </radialGradient>
    <radialGradient cx="0" cy="0" gradientTransform="matrix(0.1649, 0.0, 0.0, 0.1649, -265.95, -120.8)" gradientUnits="userSpaceOnUse" id="gradient9" r="819.2" spreadMethod="pad">
      <stop offset="0.0" stop-color="#737373"/>
      <stop offset="1.0" stop-color="#1a1a1a"/>
    </radialGradient>
    <radialGradient cx="0" cy="0" gradientTransform="matrix(0.1272, 0.0, 0.0, 0.1272, -222.4, -140.1)" gradientUnits="userSpaceOnUse" id="gradient10" r="819.2" spreadMethod="pad">
      <stop offset="0.0" stop-color="#464646"/>
      <stop offset="1.0" stop-color="#010101"/>
    </radialGradient>
    <radialGradient cx="0" cy="0" gradientTransform="matrix(0.0642, 0.0, 0.0, 0.0642, -241.0, -286.4)" gradientUnits="userSpaceOnUse" id="gradient11" r="819.2" spreadMethod="pad">
      <stop offset="0.0" stop-color="#000000"/>
      <stop offset="1.0" stop-color="#000000"/>
    </radialGradient>
    <radialGradient cx="0" cy="0" gradientTransform="matrix(0.045, 0.0, 0.0, 0.045, -138.55, -279.05)" gradientUnits="userSpaceOnUse" id="gradient12" r="819.2" spreadMethod="pad">
      <stop offset="0.0" stop-color="#000000"/>
      <stop offset="1.0" stop-color="#000000"/>
    </radialGradient>
    <radialGradient cx="0" cy="0" gradientTransform="matrix(0.1297, 0.0, 0.0, 0.1297, -294.65, -136.35)" gradientUnits="userSpaceOnUse" id="gradient13" r="819.2" spreadMethod="pad">
      <stop offset="0.0" stop-color="#0e0e0e"/>
      <stop offset="1.0" stop-color="#000000"/>
    </radialGradient>
    <radialGradient cx="0" cy="0" gradientTransform="matrix(0.184, 0.0, 0.0, 0.184, -260.9, -112.9)" gradientUnits="userSpaceOnUse" id="gradient14" r="819.2" spreadMethod="pad">
      <stop offset="0.0" stop-color="#7f7f7f"/>
      <stop offset="1.0" stop-color="#262626"/>
    </radialGradient>
    <radialGradient cx="0" cy="0" gradientTransform="matrix(0.0189, 0.0, 0.0, 0.0189, -160.05, -133.7)" gradientUnits="userSpaceOnUse" id="gradient15" r="819.2" spreadMethod="pad">
      <stop offset="0.0" stop-color="#000000"/>
      <stop offset="1.0" stop-color="#000000"/>
    </radialGradient>
    <radialGradient cx="0" cy="0" gradientTransform="matrix(0.1115, 0.0, 0.0, 0.1115, -158.55, -98.0)" gradientUnits="userSpaceOnUse" id="gradient16" r="819.2" spreadMethod="pad">
      <stop offset="0.0" stop-color="#494949"/>
      <stop offset="1.0" stop-color="#1d1d1d"/>
    </radialGradient>
    <radialGradient cx="0" cy="0" gradientTransform="matrix(0.1831, 0.0, 0.0, 0.1831, -159.95, -157.2)" gradientUnits="userSpaceOnUse" id="gradient17" r="819.2" spreadMethod="pad">
      <stop offset="0.0" stop-color="#666666"/>
      <stop offset="1.0" stop-color="#0c0c0c"/>
    </radialGradient>
    <radialGradient cx="0" cy="0" gradientTransform="matrix(0.0185, 0.0, 0.0, 0.0185, -172.3, -134.85)" gradientUnits="userSpaceOnUse" id="gradient18" r="819.2" spreadMethod="pad">
      <stop offset="0.0" stop-color="#000000"/>
      <stop offset="1.0" stop-color="#000000"/>
    </radialGradient>
    <radialGradient cx="0" cy="0" gradientTransform="matrix(0.0263, 0.0, 0.0, 0.0263, -183.2, -132.1)" gradientUnits="userSpaceOnUse" id="gradient19" r="819.2" spreadMethod="pad">
      <stop offset="0.0" stop-color="#000000"/>
      <stop offset="1.0" stop-color="#000000"/>
    </radialGradient>
    <radialGradient cx="0" cy="0" gradientTransform="matrix(0.0702, 0.0, 0.0, 0.0702, -260.9, -112.9)" gradientUnits="userSpaceOnUse" id="gradient20" r="819.2" spreadMethod="pad">
      <stop offset="0.0" stop-color="#7f7f7f"/>
      <stop offset="1.0" stop-color="#000000"/>
    </radialGradient>
    <radialGradient cx="0" cy="0" gradientTransform="matrix(0.0557, 0.0, 0.0, 0.0557, -222.4, -140.1)" gradientUnits="userSpaceOnUse" id="gradient21" r="819.2" spreadMethod="pad">
      <stop offset="0.0" stop-color="#464646"/>
      <stop offset="1.0" stop-color="#000000"/>
    </radialGradient>
    <radialGradient cx="0" cy="0" gradientTransform="matrix(0.0347, 0.0, 0.0, 0.0347, -222.4, -140.1)" gradientUnits="userSpaceOnUse" id="gradient22" r="819.2" spreadMethod="pad">
      <stop offset="0.0" stop-color="#464646"/>
      <stop offset="1.0" stop-color="#000000"/>
    </radialGradient>
    <radialGradient cx="0" cy="0" gradientTransform="matrix(0.1367, 0.0, 0.0, 0.1367, -199.55, -121.9)" gradientUnits="userSpaceOnUse" id="gradient23" r="819.2" spreadMethod="pad">
      <stop offset="0.0" stop-color="#575757"/>
      <stop offset="1.0" stop-color="#141414"/>
    </radialGradient>
    <radialGradient cx="0" cy="0" gradientTransform="matrix(0.0224, 0.0, 0.0, 0.0224, -185.8, -10.8)" gradientUnits="userSpaceOnUse" id="gradient24" r="819.2" spreadMethod="pad">
      <stop offset="0.0" stop-color="#393939"/>
      <stop offset="1.0" stop-color="#000000"/>
    </radialGradient>
    <radialGradient cx="0" cy="0" gradientTransform="matrix(0.1948, 0.0, 0.0, 0.1948, -397.7, -54.95)" gradientUnits="userSpaceOnUse" id="gradient25" r="819.2" spreadMethod="pad">
      <stop offset="0.0" stop-color="#565656"/>
      <stop offset="1.0" stop-color="#000000"/>
    </radialGradient>
    <radialGradient cx="0" cy="0" gradientTransform="matrix(0.0283, 0.0, 0.0, 0.0283, -206.55, -13.65)" gradientUnits="userSpaceOnUse" id="gradient26" r="819.2" spreadMethod="pad">
      <stop offset="0.0" stop-color="#4d4d4d"/>
      <stop offset="1.0" stop-color="#131313"/>
    </radialGradient>
    <radialGradient cx="0" cy="0" gradientTransform="matrix(0.0162, 0.0, 0.0, 0.0162, -221.25, -1.0)" gradientUnits="userSpaceOnUse" id="gradient27" r="819.2" spreadMethod="pad">
      <stop offset="0.0" stop-color="#000000"/>
      <stop offset="1.0" stop-color="#000000"/>
    </radialGradient>
    <radialGradient cx="0" cy="0" gradientTransform="matrix(0.0207, 0.0, 0.0, 0.0207, -207.0, -1.4)" gradientUnits="userSpaceOnUse" id="gradient28" r="819.2" spreadMethod="pad">
      <stop offset="0.0" stop-color="#383838"/>
      <stop offset="1.0" stop-color="#020202"/>
    </radialGradient>
    <radialGradient cx="0" cy="0" gradientTransform="matrix(0.0898, 0.0, 0.0, 0.0898, -398.85, -68.8)" gradientUnits="userSpaceOnUse" id="gradient29" r="819.2" spreadMethod="pad">
      <stop offset="0.0" stop-color="#292929"/>
      <stop offset="1.0" stop-color="#000000"/>
    </radialGradient>
    <radialGradient cx="0" cy="0" gradientTransform="matrix(0.0547, 0.0, 0.0, 0.0547, -398.85, -91.35)" gradientUnits="userSpaceOnUse" id="gradient30" r="819.2" spreadMethod="pad">
      <stop offset="0.0" stop-color="#2e2e2e"/>
      <stop offset="1.0" stop-color="#1e1e1e"/>
    </radialGradient>
    <radialGradient cx="0" cy="0" gradientTransform="matrix(0.0221, 0.0, 0.0, 0.0221, -187.7, -1.0)" gradientUnits="userSpaceOnUse" id="gradient31" r="819.2" spreadMethod="pad">
      <stop offset="0.0" stop-color="#191919"/>
      <stop offset="1.0" stop-color="#000000"/>
    </radialGradient>
  </defs>
</svg>
