<?xml version="1.0" encoding="UTF-8" standalone="no"?>
<svg xmlns:xlink="http://www.w3.org/1999/xlink" height="299.25px" width="284.85px" xmlns="http://www.w3.org/2000/svg">
  <g transform="matrix(1.0, 0.0, 0.0, 1.0, 400.0, 300.15)">
    <path d="M-182.15 -300.0 L-186.5 -272.4 -218.75 -276.5 -232.4 -278.65 -242.65 -279.0 -241.0 -300.0 -182.15 -300.0" fill="url(#gradient0)" fill-rule="evenodd" stroke="none"/>
    <path d="M-157.15 -274.9 L-161.0 -274.9 -186.5 -272.4 -182.15 -300.0 -154.15 -300.0 -157.15 -274.9" fill="url(#gradient1)" fill-rule="evenodd" stroke="none"/>
    <path d="M-149.65 -275.25 L-143.5 -275.0 -142.75 -273.5 -126.5 -231.25 -124.25 -196.4 -136.5 -165.5 -155.5 -139.0 Q-156.4 -137.4 -158.25 -136.4 L-158.5 -136.15 -161.15 -134.0 -162.75 -132.9 -163.9 -132.25 -171.75 -134.9 -175.75 -129.75 -178.15 -127.25 -184.5 -124.15 -220.0 -133.4 -220.4 -133.5 -220.4 -134.0 -220.25 -134.25 -220.15 -134.5 -220.0 -135.15 -219.5 -135.75 -202.65 -183.65 -197.9 -230.15 -186.5 -272.4 -161.0 -274.9 -157.15 -274.9 -154.65 -265.4 -153.4 -262.15 -152.9 -262.4 -152.75 -263.65 -152.15 -264.75 -149.65 -275.25" fill="url(#gradient2)" fill-rule="evenodd" stroke="none"/>
    <path d="M-146.4 -300.0 L-148.5 -281.75 -149.65 -275.25 -152.15 -264.75 -152.75 -263.65 -152.9 -262.4 -153.4 -262.15 -154.65 -265.4 -157.15 -274.9 -154.15 -300.0 -146.4 -300.0" fill="url(#gradient3)" fill-rule="evenodd" stroke="none"/>
    <path d="M-138.0 -300.0 L-139.15 -293.0 -142.75 -273.5 -143.5 -275.0 -149.65 -275.25 -148.5 -281.75 -146.4 -300.0 -138.0 -300.0" fill="url(#gradient4)" fill-rule="evenodd" stroke="none"/>
    <path d="M-139.15 -293.0 L-138.0 -300.0 -135.15 -300.0 -139.15 -293.0" fill="url(#gradient5)" fill-rule="evenodd" stroke="none"/>
    <path d="M-241.0 -300.0 L-242.65 -279.0 -247.5 -280.5 -246.15 -299.5 Q-245.75 -300.5 -241.0 -300.0" fill="url(#gradient6)" fill-rule="evenodd" stroke="none"/>
    <path d="M-242.65 -279.0 L-256.4 -230.65 -247.5 -280.5 -242.65 -279.0" fill="url(#gradient7)" fill-rule="evenodd" stroke="none"/>
    <path d="M-186.5 -272.4 L-197.9 -230.15 -202.65 -183.65 -219.5 -135.75 -220.0 -135.15 -220.15 -136.0 -215.9 -185.15 -233.15 -186.4 -248.9 -191.4 -264.4 -181.75 -262.25 -203.65 -256.4 -230.65 -242.65 -279.0 -232.4 -278.65 -218.75 -276.5 -186.5 -272.4" fill="url(#gradient8)" fill-rule="evenodd" stroke="none"/>
    <path d="M-220.0 -135.15 L-220.15 -134.5 -220.75 -134.4 -232.15 -142.15 -224.0 -149.15 -220.15 -136.0 -220.0 -135.15 M-219.5 -132.75 L-219.25 -132.5 -216.25 -122.5 -217.75 -122.25 -227.75 -123.9 -219.5 -132.75 M-384.15 -132.4 L-384.15 -132.25 -399.5 -127.15 -399.9 -127.15 -400.0 -128.0 -384.15 -132.4 -383.75 -132.5 -383.75 -132.4 -384.15 -132.4 M-383.0 -132.75 L-383.0 -132.65 -383.15 -132.65 -383.0 -132.75 M-383.4 -132.65 L-383.4 -132.5 -383.5 -132.5 -383.4 -132.65" fill="url(#gradient9)" fill-rule="evenodd" stroke="none"/>
    <path d="M-220.15 -134.5 L-220.25 -134.25 -220.4 -134.0 -220.4 -133.5 -291.65 -128.25 -315.0 -144.75 -323.15 -149.0 -308.9 -155.5 -308.9 -155.65 -308.65 -155.65 -308.25 -155.75 -283.65 -166.75 -280.65 -168.75 -264.4 -181.75 -248.9 -191.4 -233.15 -186.4 -215.9 -185.15 -220.15 -136.0 -224.0 -149.15 -232.15 -142.15 -220.75 -134.4 -220.15 -134.5" fill="url(#gradient10)" fill-rule="evenodd" stroke="none"/>
    <path d="M-399.9 -127.15 L-399.5 -127.15 -384.15 -132.25 -384.15 -132.4 -383.75 -132.4 -383.75 -132.5 -383.5 -132.5 -383.4 -132.5 -383.4 -132.65 -383.15 -132.65 -383.0 -132.65 -383.0 -132.75 -382.65 -132.75 -356.65 -141.5 -308.9 -155.65 -308.9 -155.5 -323.15 -149.0 -315.0 -144.75 -291.65 -128.25 -337.5 -137.25 -358.25 -126.15 -400.0 -112.15 -399.9 -127.15" fill="url(#gradient11)" fill-rule="evenodd" stroke="none"/>
    <path d="M-220.4 -133.5 L-220.0 -133.4 -219.5 -132.75 -227.75 -123.9 -217.75 -122.25 -216.25 -122.5 -219.25 -132.5 -212.5 -127.25 -212.15 -127.15 -211.9 -126.75 -211.5 -126.65 -211.4 -126.4 -210.9 -126.15 -210.75 -125.9 -210.25 -125.65 -210.25 -125.5 -204.4 -120.75 -204.5 -120.5 -206.15 -119.25 -220.4 -115.0 -248.5 -106.75 -248.65 -106.75 -252.15 -105.75 -258.4 -106.15 -291.65 -128.25 -220.4 -133.5" fill="url(#gradient12)" fill-rule="evenodd" stroke="none"/>
    <path d="M-162.75 -132.9 L-161.15 -134.0 -162.9 -130.25 -163.5 -130.75 -162.75 -132.9 M-158.5 -136.15 L-158.25 -136.4 -158.4 -135.9 -158.5 -136.15" fill="url(#gradient13)" fill-rule="evenodd" stroke="none"/>
    <path d="M-161.15 -134.0 L-158.5 -136.15 -158.4 -135.9 -158.4 -135.65 -159.4 -128.15 -159.4 -127.9 -159.5 -127.25 -160.0 -125.4 Q-161.9 -127.0 -162.9 -130.25 L-161.15 -134.0 M-166.65 -128.5 Q-160.5 -125.0 -162.0 -122.75 L-167.15 -124.5 -169.65 -128.25 -166.65 -128.5 M-175.75 -12.0 L-177.0 -10.75 -177.25 -10.9 -176.0 -14.65 -175.75 -12.0" fill="url(#gradient14)" fill-rule="evenodd" stroke="none"/>
    <path d="M-163.9 -132.25 L-162.75 -132.9 -163.5 -130.75 -169.25 -131.15 -163.9 -132.25" fill="url(#gradient15)" fill-rule="evenodd" stroke="none"/>
    <path d="M-175.75 -129.75 L-171.75 -134.9 -163.9 -132.25 -169.25 -131.15 -175.75 -129.75" fill="url(#gradient16)" fill-rule="evenodd" stroke="none"/>
    <path d="M-184.5 -124.15 L-178.15 -127.25 -175.75 -129.75 -169.25 -131.15 -163.5 -130.75 -162.9 -130.25 Q-161.9 -127.0 -160.0 -125.4 L-159.5 -127.25 -158.4 -120.9 -156.9 -99.25 -162.4 -57.9 -169.5 -26.0 -172.9 -19.0 -178.4 -14.25 -188.15 -10.25 -195.0 -30.0 -194.5 -78.9 -189.9 -116.65 -189.9 -122.9 -188.4 -123.4 -188.15 -123.4 -184.5 -124.15 M-166.65 -128.5 L-169.65 -128.25 -167.15 -124.5 -162.0 -122.75 Q-160.5 -125.0 -166.65 -128.5" fill="url(#gradient17)" fill-rule="evenodd" stroke="none"/>
    <path d="M-220.0 -133.4 L-184.5 -124.15 -188.15 -123.4 -188.4 -123.4 -203.9 -120.75 -210.25 -125.5 -210.25 -125.65 -210.75 -125.9 -210.9 -126.15 -211.4 -126.4 -211.5 -126.65 -211.9 -126.75 -212.15 -127.15 -212.5 -127.25 -219.25 -132.5 -219.5 -132.75 -220.0 -133.4" fill="url(#gradient18)" fill-rule="evenodd" stroke="none"/>
    <path d="M-210.25 -125.5 L-203.9 -120.75 -202.75 -119.9 -201.15 -118.5 -203.25 -119.75 -204.5 -120.5 -204.4 -120.75 -210.25 -125.5" fill="url(#gradient19)" fill-rule="evenodd" stroke="none"/>
    <path d="M-203.9 -120.75 L-188.4 -123.4 -189.9 -122.9 -202.75 -119.9 -203.9 -120.75 M-203.25 -119.75 L-206.15 -119.25 -204.5 -120.5 -203.25 -119.75" fill="url(#gradient20)" fill-rule="evenodd" stroke="none"/>
    <path d="M-206.15 -119.25 L-203.25 -119.75 -201.15 -118.5 -202.75 -119.9 -189.9 -122.9 -189.9 -116.65 -194.5 -78.9 -195.0 -30.0 -188.15 -10.25 -209.0 -12.5 -224.75 -19.5 -228.75 -24.0 -229.0 -24.4 -226.9 -43.4 -223.15 -89.65 -220.4 -115.0 -206.15 -119.25" fill="url(#gradient21)" fill-rule="evenodd" stroke="none"/>
    <path d="M-400.0 -112.15 L-358.25 -126.15 -337.5 -137.25 -291.65 -128.25 -258.4 -106.15 -252.15 -105.75 -324.4 -64.0 -347.0 -56.75 -347.5 -56.65 -357.4 -53.5 -371.5 -50.65 -389.4 -46.9 -391.9 -47.25 -395.65 -49.9 -400.0 -51.25 -400.0 -112.15" fill="url(#gradient22)" fill-rule="evenodd" stroke="none"/>
    <path d="M-252.15 -105.75 L-248.65 -106.75 -320.15 -64.65 -347.0 -56.75 -324.4 -64.0 -252.15 -105.75" fill="url(#gradient23)" fill-rule="evenodd" stroke="none"/>
    <path d="M-371.5 -50.65 L-367.75 -36.65 -365.15 -22.4 -367.65 -0.9 -400.0 -0.9 -400.0 -44.9 -395.15 -45.4 -391.9 -47.25 -389.4 -46.9 -371.5 -50.65" fill="url(#gradient24)" fill-rule="evenodd" stroke="none"/>
    <path d="M-400.0 -44.9 L-400.0 -51.25 -395.65 -49.9 -391.9 -47.25 -395.15 -45.4 -400.0 -44.9" fill="url(#gradient25)" fill-rule="evenodd" stroke="none"/>
    <path d="M-228.75 -24.0 L-224.75 -19.5 -209.0 -12.5 -188.15 -10.25 -190.9 -0.9 -209.25 -0.9 -215.9 -6.65 -223.4 -9.5 -226.15 -12.5 -228.75 -24.0" fill="url(#gradient26)" fill-rule="evenodd" stroke="none"/>
    <path d="M-223.65 -0.9 L-224.15 -0.9 -226.15 -12.5 -223.4 -9.5 -223.65 -0.9" fill="url(#gradient27)" fill-rule="evenodd" stroke="none"/>
    <path d="M-209.25 -0.9 L-223.65 -0.9 -223.4 -9.5 -215.9 -6.65 -209.25 -0.9" fill="url(#gradient28)" fill-rule="evenodd" stroke="none"/>
    <path d="M-172.9 -19.0 L-175.0 -8.9 -179.9 -4.4 -189.4 -0.9 -190.9 -0.9 -188.15 -10.25 -178.4 -14.25 -172.9 -19.0 M-175.75 -12.0 L-176.0 -14.65 -177.25 -10.9 -177.0 -10.75 -175.75 -12.0" fill="url(#gradient29)" fill-rule="evenodd" stroke="none"/>
    <path d="M-175.0 -8.9 L-172.9 -1.15 -173.15 -0.9 -189.4 -0.9 -179.9 -4.4 -175.0 -8.9" fill="url(#gradient30)" fill-rule="evenodd" stroke="none"/>
    <path d="M-250.25 -300.0 L-246.0 -300.0 -246.9 -288.4 -246.9 -288.15 -247.0 -286.4 -247.15 -286.0 -247.5 -280.5 -249.25 -271.0 -250.75 -271.15 -250.75 -273.4 -250.65 -293.4 -250.25 -300.0" fill="#ee0000" fill-rule="evenodd" stroke="none"/>
    <path d="M-246.0 -300.0 L-183.0 -300.0 -183.65 -296.65 -183.5 -295.9 -183.75 -294.9 -184.9 -284.25 -184.9 -282.9 -185.0 -282.75 -185.0 -282.25 -185.9 -274.9 -185.9 -272.4 -186.0 -272.0 -186.75 -262.65 -217.25 -266.75 -217.4 -266.9 -231.15 -268.9 -231.25 -269.0 -249.25 -271.0 -247.5 -280.5 -247.15 -286.0 -247.0 -286.4 -246.9 -288.15 -246.9 -288.4 -246.0 -300.0" fill="#dd0000" fill-opacity="0.9098039" fill-rule="evenodd" stroke="none"/>
    <path d="M-279.5 -177.4 L-273.15 -189.4 -266.65 -218.0 -266.5 -218.25 -266.5 -218.4 -250.75 -271.15 -249.25 -271.0 -256.4 -230.65 -256.5 -230.25 -256.75 -228.75 -256.75 -228.4 -262.15 -204.0 -264.4 -182.75 -279.5 -177.4" fill="#e80000" fill-rule="evenodd" stroke="none"/>
    <path d="M-400.0 -130.65 L-400.0 -146.65 -312.9 -155.15 -400.0 -130.65 M-266.5 -218.4 L-255.9 -273.25 -250.75 -273.4 -250.75 -271.15 -266.5 -218.4" fill="#ab0000" fill-rule="evenodd" stroke="none"/>
    <path d="M-255.9 -273.25 L-255.15 -297.4 -254.4 -299.9 -250.25 -300.0 -250.65 -293.4 -250.75 -273.4 -255.9 -273.25" fill="#ac0000" fill-rule="evenodd" stroke="none"/>
    <path d="M-139.25 -293.0 L-142.9 -273.9 -142.9 -273.65 -140.0 -266.25 -142.25 -266.25 -142.65 -266.15 -154.75 -265.75 -155.25 -265.65 -158.4 -265.4 -158.9 -265.4 -179.75 -263.25 -180.0 -263.25 -186.0 -262.65 -186.75 -262.65 -186.0 -272.0 -185.9 -272.4 -185.9 -274.9 -185.0 -282.25 -185.0 -282.75 -184.9 -282.9 -184.9 -284.25 -183.75 -294.9 -183.5 -295.9 -183.65 -296.65 -183.0 -300.0 -138.0 -300.0 -138.75 -296.15 -138.65 -295.75 -138.9 -295.65 -139.25 -294.0 -139.25 -293.0" fill="#a50000" fill-opacity="0.9098039" fill-rule="evenodd" stroke="none"/>
    <path d="M-249.25 -271.0 L-231.25 -269.0 -231.15 -268.9 -217.4 -266.9 -217.25 -266.75 -186.75 -262.65 -198.75 -220.0 -199.9 -215.0 -200.5 -208.9 -200.75 -207.65 -200.9 -207.65 -200.65 -206.75 -200.9 -206.4 -200.9 -205.25 -202.9 -185.75 -203.15 -185.0 -203.0 -184.25 -203.15 -183.75 -203.15 -182.75 -203.5 -181.0 -203.75 -180.4 -205.0 -165.5 -217.65 -131.25 -218.4 -129.65 -218.4 -128.9 -219.4 -126.65 -219.5 -126.25 -223.4 -115.5 -223.65 -115.4 -223.5 -115.15 -223.9 -114.5 -224.0 -113.9 -225.0 -113.65 -225.0 -114.15 -224.9 -114.65 -225.0 -115.0 -223.9 -127.9 -223.65 -128.5 -223.5 -130.75 -223.65 -131.0 -223.5 -131.25 -222.4 -142.75 -222.5 -144.25 -220.5 -166.9 -240.4 -168.25 -260.5 -184.15 -264.4 -182.75 -262.15 -204.0 -256.75 -228.4 -256.75 -228.75 -256.5 -230.25 -256.4 -230.65 -249.25 -271.0" fill="#d80000" fill-opacity="0.9098039" fill-rule="evenodd" stroke="none"/>
    <path d="M-264.4 -182.75 L-260.5 -184.15 -240.4 -168.25 -220.5 -166.9 -222.5 -144.25 -222.4 -142.75 -223.5 -131.25 -223.65 -131.0 -223.5 -130.75 -223.65 -128.5 -223.9 -127.9 -225.0 -115.0 -224.9 -114.65 -225.0 -114.15 -225.0 -113.65 -229.15 -112.4 -274.5 -135.75 -307.65 -156.15 -306.65 -156.5 -306.4 -156.75 -284.15 -166.5 -284.0 -166.5 -283.75 -166.65 -283.15 -166.9 -264.4 -181.75 -264.25 -182.75 -264.4 -182.75" fill="#d00000" fill-opacity="0.9098039" fill-rule="evenodd" stroke="none"/>
    <path d="M-225.0 -113.65 L-224.0 -113.9 -225.15 -111.25 -225.0 -113.65" fill="#e90000" fill-rule="evenodd" stroke="none"/>
    <path d="M-186.75 -262.65 L-186.0 -262.65 -180.0 -263.25 -179.75 -263.25 -158.9 -265.4 -158.4 -265.4 -155.25 -265.65 -154.75 -265.75 -142.65 -266.15 -142.25 -266.25 -140.0 -266.25 -139.65 -265.4 -137.15 -259.15 -126.65 -231.25 -124.4 -196.4 -132.9 -175.0 -134.4 -183.0 -134.5 -185.15 -135.25 -188.15 -135.15 -189.0 -138.5 -209.15 -138.75 -209.9 -136.25 -185.5 -136.25 -184.9 -135.25 -178.15 -135.25 -177.15 -135.65 -174.0 -139.75 -163.9 -140.0 -163.5 -141.75 -158.5 -142.75 -156.75 -148.15 -149.15 -150.5 -146.25 -151.0 -145.15 -155.9 -138.9 -156.75 -137.5 -158.5 -136.15 -158.4 -136.15 -159.5 -126.75 -159.0 -125.65 -159.15 -125.0 -159.9 -124.0 -160.5 -122.9 -162.75 -119.5 -163.15 -119.0 -163.5 -118.65 -163.5 -118.15 -174.9 -100.15 -176.9 -93.65 -177.65 -92.5 -184.9 -88.0 -192.75 -92.25 -192.9 -92.5 -205.25 -99.4 -206.15 -99.75 -213.4 -103.75 -214.0 -104.15 -214.25 -104.4 -220.5 -107.75 -221.15 -108.0 -220.4 -115.0 -224.0 -113.9 -223.9 -114.5 -223.5 -115.15 -223.65 -115.4 -223.4 -115.5 -219.5 -126.25 -219.4 -126.65 -218.4 -128.9 -218.4 -129.65 -217.65 -131.25 -205.0 -165.5 -203.75 -180.4 -203.5 -181.0 -203.15 -182.75 -203.15 -183.75 -203.0 -184.25 -203.15 -185.0 -202.9 -185.75 -200.9 -205.25 -200.9 -206.4 -200.65 -206.75 -200.9 -207.65 -200.75 -207.65 -200.5 -208.9 -199.9 -215.0 -198.75 -220.0 -186.75 -262.65 M-172.5 -100.15 L-163.4 -114.0 -163.15 -114.75 -162.5 -115.4 -162.5 -115.75 -158.65 -121.25 -157.25 -103.9 -157.4 -103.5 -158.15 -103.0 -158.25 -102.75 -161.15 -100.15 -162.25 -100.0 -172.5 -100.15" fill="#c90000" fill-opacity="0.9098039" fill-rule="evenodd" stroke="none"/>
    <path d="M-135.15 -300.0 L-128.9 -299.75 -131.25 -285.25 -136.65 -265.4 -137.0 -265.65 -137.4 -266.4 -140.0 -266.25 -142.9 -273.65 -142.9 -273.9 -139.25 -293.0 -135.15 -300.0 M-152.75 -108.0 L-146.15 -75.5 -152.9 -27.65 -156.25 -0.9 -172.4 -0.9 -170.9 -21.75 -171.0 -22.75 -169.5 -26.0 -163.9 -50.9 -164.0 -51.25 -163.75 -51.5 -163.9 -51.75 -163.65 -52.0 -163.75 -52.25 -162.5 -57.65 -162.4 -59.15 -157.0 -99.0 -157.4 -103.5 -157.25 -103.9 -153.5 -107.0 -153.15 -107.75 -152.75 -108.0 M-224.15 -0.9 L-235.25 -0.9 -234.5 -26.0 -234.75 -28.0 -244.0 -58.5 -257.9 -93.25 -258.0 -94.15 -256.65 -101.9 -248.65 -106.75 -248.5 -106.75 -246.65 -107.4 -246.15 -107.5 -229.15 -112.4 -225.25 -110.5 -221.15 -108.0 -222.25 -98.25 -222.25 -97.9 -222.4 -97.5 -224.15 -76.15 -224.15 -75.9 -224.4 -74.25 -227.0 -43.25 -227.0 -42.15 -229.0 -24.4 -228.75 -24.0 -228.75 -23.4 -228.65 -23.0 -228.5 -22.75 -228.5 -22.65 -226.15 -12.5 -224.15 -0.9" fill="#bb0000" fill-rule="evenodd" stroke="none"/>
    <path d="M-135.15 -300.0 L-139.25 -293.0 -139.25 -294.0 -138.9 -295.65 -138.65 -295.75 -138.75 -296.15 -138.0 -300.0 -135.15 -300.0" fill="#b90000" fill-rule="evenodd" stroke="none"/>
    <path d="M-140.0 -266.25 L-137.4 -266.4 -137.0 -265.65 -137.15 -265.0 -139.65 -265.4 -140.0 -266.25 M-308.0 -156.4 L-287.5 -171.25 -306.4 -156.75 -306.65 -156.5 -307.65 -156.15 -308.0 -156.4" fill="#df0000" fill-rule="evenodd" stroke="none"/>
    <path d="M-137.0 -265.65 L-136.65 -265.4 -136.75 -265.0 -117.9 -219.5 -115.15 -181.5 -128.9 -148.75 -152.4 -108.65 -152.75 -108.5 -152.75 -108.0 -153.15 -107.75 -154.0 -114.4 -154.0 -114.5 -153.4 -118.15 -153.15 -118.25 -153.25 -118.75 -150.75 -132.5 -150.9 -133.15 -152.15 -131.65 -152.4 -130.9 -158.4 -121.9 -158.65 -121.65 -158.5 -121.5 -158.65 -121.25 -162.5 -115.75 -162.5 -115.4 -163.15 -114.75 -163.4 -114.0 -172.5 -100.15 -176.9 -93.65 -174.9 -100.15 -163.5 -118.15 -163.5 -118.65 -163.15 -119.0 -162.75 -119.5 -160.5 -122.9 -159.9 -124.0 -159.15 -125.0 -159.0 -125.65 -151.9 -136.5 -151.65 -137.4 -149.75 -139.9 -149.25 -141.0 -148.15 -149.15 -142.75 -156.75 -141.75 -158.5 -140.0 -163.5 -139.75 -163.9 -135.65 -174.0 -135.25 -177.15 -135.25 -178.15 -136.25 -184.9 -136.25 -185.5 -138.75 -209.9 -138.5 -209.15 -135.15 -189.0 -135.25 -188.15 -134.5 -185.15 -134.4 -183.0 -132.9 -175.0 -124.4 -196.4 -126.65 -231.25 -137.15 -259.15 -137.15 -265.0 -137.0 -265.65" fill="#d80000" fill-rule="evenodd" stroke="none"/>
    <path d="M-139.65 -265.4 L-137.15 -265.0 -137.15 -259.15 -139.65 -265.4 M-148.15 -149.15 L-149.25 -141.0 -149.75 -139.9 -151.65 -137.4 -151.0 -145.15 -150.5 -146.25 -148.15 -149.15 M-152.4 -130.9 L-152.15 -131.65 -150.9 -133.15 -150.75 -132.5 -153.25 -118.75 -153.15 -118.25 -153.4 -118.15 -153.25 -118.75 -152.25 -130.5 -152.4 -130.9" fill="#de0000" fill-rule="evenodd" stroke="none"/>
    <path d="M-158.65 -121.25 L-158.5 -121.5 -158.65 -121.65 -158.4 -121.9 -154.0 -114.5 -154.0 -114.4 -153.15 -107.75 -153.5 -107.0 -157.25 -103.9 -158.65 -121.25 M-225.15 -111.25 L-224.0 -113.9 -220.4 -115.0 -221.15 -108.0 -225.25 -110.5 -225.15 -111.25" fill="#d90000" fill-rule="evenodd" stroke="none"/>
    <path d="M-151.65 -137.4 L-151.9 -136.5 -159.0 -125.65 -159.5 -126.75 -158.4 -136.15 -158.5 -136.15 -156.75 -137.5 -155.9 -138.9 -151.0 -145.15 -151.65 -137.4 M-158.4 -121.9 L-152.4 -130.9 -152.25 -130.5 -153.25 -118.75 -153.4 -118.15 -154.0 -114.5 -158.4 -121.9" fill="#dd0000" fill-rule="evenodd" stroke="none"/>
    <path d="M-172.9 -0.9 L-224.15 -0.9 -226.15 -12.5 -228.5 -22.65 -228.5 -22.75 -228.65 -23.0 -228.75 -23.4 -228.75 -24.0 -229.0 -24.4 -227.0 -42.15 -227.0 -43.25 -224.4 -74.25 -224.15 -75.9 -224.15 -76.15 -222.4 -97.5 -222.25 -97.9 -222.25 -98.25 -221.15 -108.0 -220.5 -107.75 -214.25 -104.4 -214.0 -104.15 -213.4 -103.75 -206.15 -99.75 -205.25 -99.4 -192.9 -92.5 -192.75 -92.25 -184.9 -88.0 -177.65 -92.5 -176.9 -93.65 -172.5 -100.15 -162.25 -100.0 -161.15 -100.15 -158.25 -102.75 -158.15 -103.0 -157.4 -103.5 -157.0 -99.0 -162.4 -59.15 -162.5 -57.65 -163.75 -52.25 -163.65 -52.0 -163.9 -51.75 -163.75 -51.5 -164.0 -51.25 -163.9 -50.9 -169.5 -26.0 -171.0 -22.75 -172.75 -19.75 -175.15 -9.25 -175.15 -8.75 -172.9 -0.9 M-260.25 -99.75 L-260.65 -100.5 -260.75 -100.65 -262.0 -103.75 -261.9 -104.0 -262.4 -104.75 -262.65 -105.65 -264.25 -110.0 -264.5 -110.4 -274.4 -135.25 -274.5 -135.75 -229.15 -112.4 -246.15 -107.5 -246.65 -107.4 -248.5 -106.75 -248.65 -106.75 -256.65 -101.9 -260.25 -99.75" fill="#ab0000" fill-opacity="0.9098039" fill-rule="evenodd" stroke="none"/>
    <path d="M-287.5 -171.25 L-287.4 -171.5 -287.0 -171.65 -286.9 -171.9 -286.5 -172.0 -286.4 -172.25 -286.0 -172.4 -279.5 -177.4 -264.4 -182.75 -264.25 -182.75 -264.4 -181.75 -283.15 -166.9 -283.75 -166.65 -284.0 -166.5 -284.15 -166.5 -306.4 -156.75 -287.5 -171.25" fill="#e00000" fill-rule="evenodd" stroke="none"/>
    <path d="M-400.0 -128.0 L-400.0 -130.65 -312.9 -155.15 -312.25 -155.15 -312.0 -155.25 -308.0 -156.4 -307.65 -156.15 -308.0 -156.0 -308.15 -155.9 -308.5 -155.75 -308.65 -155.65 -308.9 -155.65 -309.15 -155.5 -309.25 -155.5 -309.5 -155.4 -309.9 -155.4 -309.9 -155.25 -321.15 -151.9 -321.5 -151.75 -322.0 -151.65 -322.4 -151.5 -322.65 -151.5 -323.0 -151.4 -323.15 -151.4 -334.25 -147.9 -357.75 -141.0 -357.9 -141.0 -358.15 -140.9 -358.25 -140.9 -382.65 -132.75 -383.0 -132.75 -383.15 -132.65 -383.4 -132.65 -383.5 -132.5 -383.75 -132.5 -400.0 -128.0" fill="#e70000" fill-rule="evenodd" stroke="none"/>
    <path d="M-274.4 -135.25 L-274.75 -117.15 -274.65 -116.9 -274.75 -92.75 -274.9 -92.5 -274.75 -92.0 -274.75 -91.4 -274.9 -91.15 -307.5 -72.25 -307.5 -72.15 -308.75 -71.4 -309.4 -71.15 -309.65 -70.9 -310.0 -70.75 -310.25 -70.5 -310.65 -70.4 -321.0 -64.4 -347.0 -56.75 -347.5 -56.65 -357.0 -53.75 -357.25 -53.75 -357.25 -53.65 -371.5 -50.65 -367.75 -35.75 -367.65 -35.15 -367.5 -34.9 -365.15 -21.9 -366.0 -14.75 -366.15 -14.5 -367.65 -0.9 -400.0 -1.0 -399.9 -56.75 -400.0 -57.4 -399.9 -127.0 -400.0 -128.0 -383.75 -132.5 -383.5 -132.5 -383.4 -132.65 -383.15 -132.65 -383.0 -132.75 -382.65 -132.75 -358.25 -140.9 -358.15 -140.9 -357.9 -141.0 -357.75 -141.0 -334.25 -147.9 -323.15 -151.4 -323.0 -151.4 -322.65 -151.5 -322.4 -151.5 -322.0 -151.65 -321.5 -151.75 -321.15 -151.9 -309.9 -155.25 -309.9 -155.4 -309.5 -155.4 -309.25 -155.5 -309.15 -155.5 -308.9 -155.5 -308.9 -155.65 -308.65 -155.65 -308.5 -155.75 -308.15 -155.9 -308.0 -156.0 -307.65 -156.15 -274.5 -135.75 -274.4 -135.25" fill="#d70000" fill-opacity="0.9098039" fill-rule="evenodd" stroke="none"/>
    <path d="M-308.9 -155.65 L-308.9 -155.5 -309.15 -155.5 -308.9 -155.65" fill="#e50000" fill-rule="evenodd" stroke="none"/>
    <path d="M-274.9 -91.15 L-275.15 -23.4 -279.75 -0.9 -367.65 -0.9 -366.15 -14.5 -366.0 -14.75 -365.15 -21.9 -367.5 -34.9 -367.65 -35.15 -367.75 -35.75 -371.5 -50.65 -357.25 -53.65 -357.25 -53.75 -357.0 -53.75 -347.5 -56.65 -347.0 -56.75 -321.0 -64.4 -310.65 -70.4 -310.25 -70.5 -310.0 -70.75 -309.65 -70.9 -309.4 -71.15 -308.75 -71.4 -307.5 -72.15 -307.5 -72.25 -274.9 -91.15" fill="#ed0000" fill-opacity="0.9098039" fill-rule="evenodd" stroke="none"/>
    <path d="M-225.25 -110.5 L-229.15 -112.4 -225.0 -113.65 -225.15 -111.25 -225.25 -110.5" fill="#e10000" fill-rule="evenodd" stroke="none"/>
    <path d="M-172.4 -0.9 L-172.9 -0.9 -175.15 -8.75 -175.15 -9.25 -172.75 -19.75 -171.0 -22.75 -170.9 -21.75 -172.4 -0.9 M-258.0 -94.15 L-260.25 -99.75 -256.65 -101.9 -258.0 -94.15" fill="#bc0000" fill-opacity="0.9098039" fill-rule="evenodd" stroke="none"/>
    <path d="M-235.25 -0.9 L-270.75 -0.9 -267.5 -28.75 -257.9 -93.25 -244.0 -58.5 -234.75 -28.0 -234.5 -26.0 -235.25 -0.9" fill="#ba0000" fill-opacity="0.9098039" fill-rule="evenodd" stroke="none"/>
  </g>
  <defs>
    <radialGradient cx="0" cy="0" gradientTransform="matrix(0.0746, 0.0, 0.0, 0.0746, -186.4, -272.45)" gradientUnits="userSpaceOnUse" id="gradient0" r="819.2" spreadMethod="pad">
      <stop offset="0.0" stop-color="#666666"/>
      <stop offset="1.0" stop-color="#111111"/>
    </radialGradient>
    <radialGradient cx="0" cy="0" gradientTransform="matrix(0.0405, 0.0, 0.0, 0.0405, -160.3, -275.0)" gradientUnits="userSpaceOnUse" id="gradient1" r="819.2" spreadMethod="pad">
      <stop offset="0.0" stop-color="#696969"/>
      <stop offset="1.0" stop-color="#242424"/>
    </radialGradient>
    <radialGradient cx="0" cy="0" gradientTransform="matrix(0.1138, 0.0, 0.0, 0.1138, -150.8, -186.25)" gradientUnits="userSpaceOnUse" id="gradient2" r="819.2" spreadMethod="pad">
      <stop offset="0.0" stop-color="#838383"/>
      <stop offset="1.0" stop-color="#3f3f3f"/>
    </radialGradient>
    <radialGradient cx="0" cy="0" gradientTransform="matrix(0.0845, 0.0, 0.0, 0.0845, -166.4, -233.9)" gradientUnits="userSpaceOnUse" id="gradient3" r="819.2" spreadMethod="pad">
      <stop offset="0.0" stop-color="#656565"/>
      <stop offset="1.0" stop-color="#000000"/>
    </radialGradient>
    <radialGradient cx="0" cy="0" gradientTransform="matrix(0.032, 0.0, 0.0, 0.032, -146.3, -275.05)" gradientUnits="userSpaceOnUse" id="gradient4" r="819.2" spreadMethod="pad">
      <stop offset="0.0" stop-color="#575757"/>
      <stop offset="1.0" stop-color="#010101"/>
    </radialGradient>
    <radialGradient cx="0" cy="0" gradientTransform="matrix(0.0139, 0.0, 0.0, 0.0139, -139.75, -300.0)" gradientUnits="userSpaceOnUse" id="gradient5" r="819.2" spreadMethod="pad">
      <stop offset="0.0" stop-color="#171717"/>
      <stop offset="1.0" stop-color="#000000"/>
    </radialGradient>
    <radialGradient cx="0" cy="0" gradientTransform="matrix(0.0258, 0.0, 0.0, 0.0258, -246.0, -300.0)" gradientUnits="userSpaceOnUse" id="gradient6" r="819.2" spreadMethod="pad">
      <stop offset="0.0" stop-color="#000000"/>
      <stop offset="1.0" stop-color="#000000"/>
    </radialGradient>
    <radialGradient cx="0" cy="0" gradientTransform="matrix(0.0638, 0.0, 0.0, 0.0638, -242.6, -279.1)" gradientUnits="userSpaceOnUse" id="gradient7" r="819.2" spreadMethod="pad">
      <stop offset="0.0" stop-color="#000000"/>
      <stop offset="1.0" stop-color="#000000"/>
    </radialGradient>
    <radialGradient cx="0" cy="0" gradientTransform="matrix(0.0944, 0.0, 0.0, 0.0944, -230.95, -209.2)" gradientUnits="userSpaceOnUse" id="gradient8" r="819.2" spreadMethod="pad">
      <stop offset="0.0" stop-color="#6e6e6e"/>
      <stop offset="1.0" stop-color="#454545"/>
    </radialGradient>
    <radialGradient cx="0" cy="0" gradientTransform="matrix(0.1674, 0.0, 0.0, 0.1674, -263.6, -113.9)" gradientUnits="userSpaceOnUse" id="gradient9" r="819.2" spreadMethod="pad">
      <stop offset="0.0" stop-color="#737373"/>
      <stop offset="1.0" stop-color="#101010"/>
    </radialGradient>
    <radialGradient cx="0" cy="0" gradientTransform="matrix(0.127, 0.0, 0.0, 0.127, -220.35, -133.55)" gradientUnits="userSpaceOnUse" id="gradient10" r="819.2" spreadMethod="pad">
      <stop offset="0.0" stop-color="#464646"/>
      <stop offset="1.0" stop-color="#010101"/>
    </radialGradient>
    <radialGradient cx="0" cy="0" gradientTransform="matrix(0.1338, 0.0, 0.0, 0.1338, -291.6, -128.3)" gradientUnits="userSpaceOnUse" id="gradient11" r="819.2" spreadMethod="pad">
      <stop offset="0.0" stop-color="#0e0e0e"/>
      <stop offset="1.0" stop-color="#000000"/>
    </radialGradient>
    <radialGradient cx="0" cy="0" gradientTransform="matrix(0.0683, 0.0, 0.0, 0.0683, -258.45, -106.25)" gradientUnits="userSpaceOnUse" id="gradient12" r="819.2" spreadMethod="pad">
      <stop offset="0.0" stop-color="#7f7f7f"/>
      <stop offset="1.0" stop-color="#090909"/>
    </radialGradient>
    <radialGradient cx="0" cy="0" gradientTransform="matrix(0.0186, 0.0, 0.0, 0.0186, -163.6, -130.8)" gradientUnits="userSpaceOnUse" id="gradient13" r="819.2" spreadMethod="pad">
      <stop offset="0.0" stop-color="#000000"/>
      <stop offset="1.0" stop-color="#000000"/>
    </radialGradient>
    <radialGradient cx="0" cy="0" gradientTransform="matrix(0.1789, 0.0, 0.0, 0.1789, -163.6, -153.75)" gradientUnits="userSpaceOnUse" id="gradient14" r="819.2" spreadMethod="pad">
      <stop offset="0.0" stop-color="#666666"/>
      <stop offset="1.0" stop-color="#0c0c0c"/>
    </radialGradient>
    <radialGradient cx="0" cy="0" gradientTransform="matrix(0.0179, 0.0, 0.0, 0.0179, -175.25, -131.5)" gradientUnits="userSpaceOnUse" id="gradient15" r="819.2" spreadMethod="pad">
      <stop offset="0.0" stop-color="#000000"/>
      <stop offset="1.0" stop-color="#000000"/>
    </radialGradient>
    <radialGradient cx="0" cy="0" gradientTransform="matrix(0.0268, 0.0, 0.0, 0.0268, -185.45, -128.35)" gradientUnits="userSpaceOnUse" id="gradient16" r="819.2" spreadMethod="pad">
      <stop offset="0.0" stop-color="#000000"/>
      <stop offset="1.0" stop-color="#000000"/>
    </radialGradient>
    <radialGradient cx="0" cy="0" gradientTransform="matrix(0.1093, 0.0, 0.0, 0.1093, -162.0, -96.0)" gradientUnits="userSpaceOnUse" id="gradient17" r="819.2" spreadMethod="pad">
      <stop offset="0.0" stop-color="#494949"/>
      <stop offset="1.0" stop-color="#1d1d1d"/>
    </radialGradient>
    <radialGradient cx="0" cy="0" gradientTransform="matrix(0.0455, 0.0, 0.0, 0.0455, -220.35, -133.55)" gradientUnits="userSpaceOnUse" id="gradient18" r="819.2" spreadMethod="pad">
      <stop offset="0.0" stop-color="#464646"/>
      <stop offset="1.0" stop-color="#2c2c2c"/>
    </radialGradient>
    <radialGradient cx="0" cy="0" gradientTransform="matrix(0.0327, 0.0, 0.0, 0.0327, -220.35, -133.55)" gradientUnits="userSpaceOnUse" id="gradient19" r="819.2" spreadMethod="pad">
      <stop offset="0.0" stop-color="#464646"/>
      <stop offset="1.0" stop-color="#000000"/>
    </radialGradient>
    <radialGradient cx="0" cy="0" gradientTransform="matrix(0.0263, 0.0, 0.0, 0.0263, -185.5, -124.1)" gradientUnits="userSpaceOnUse" id="gradient20" r="819.2" spreadMethod="pad">
      <stop offset="0.0" stop-color="#000000"/>
      <stop offset="1.0" stop-color="#000000"/>
    </radialGradient>
    <radialGradient cx="0" cy="0" gradientTransform="matrix(0.1329, 0.0, 0.0, 0.1329, -201.9, -118.3)" gradientUnits="userSpaceOnUse" id="gradient21" r="819.2" spreadMethod="pad">
      <stop offset="0.0" stop-color="#575757"/>
      <stop offset="1.0" stop-color="#141414"/>
    </radialGradient>
    <radialGradient cx="0" cy="0" gradientTransform="matrix(0.188, 0.0, 0.0, 0.188, -258.45, -106.25)" gradientUnits="userSpaceOnUse" id="gradient22" r="819.2" spreadMethod="pad">
      <stop offset="0.0" stop-color="#7f7f7f"/>
      <stop offset="1.0" stop-color="#272727"/>
    </radialGradient>
    <radialGradient cx="0" cy="0" gradientTransform="matrix(0.1077, 0.0, 0.0, 0.1077, -324.55, -64.0)" gradientUnits="userSpaceOnUse" id="gradient23" r="819.2" spreadMethod="pad">
      <stop offset="0.0" stop-color="#000000"/>
      <stop offset="1.0" stop-color="#000000"/>
    </radialGradient>
    <radialGradient cx="0" cy="0" gradientTransform="matrix(0.08, 0.0, 0.0, 0.08, -397.15, -59.55)" gradientUnits="userSpaceOnUse" id="gradient24" r="819.2" spreadMethod="pad">
      <stop offset="0.0" stop-color="#292929"/>
      <stop offset="1.0" stop-color="#000000"/>
    </radialGradient>
    <radialGradient cx="0" cy="0" gradientTransform="matrix(0.0549, 0.0, 0.0, 0.0549, -396.75, -81.7)" gradientUnits="userSpaceOnUse" id="gradient25" r="819.2" spreadMethod="pad">
      <stop offset="0.0" stop-color="#2e2e2e"/>
      <stop offset="1.0" stop-color="#1b1b1b"/>
    </radialGradient>
    <radialGradient cx="0" cy="0" gradientTransform="matrix(0.0289, 0.0, 0.0, 0.0289, -208.45, -12.45)" gradientUnits="userSpaceOnUse" id="gradient26" r="819.2" spreadMethod="pad">
      <stop offset="0.0" stop-color="#4d4d4d"/>
      <stop offset="1.0" stop-color="#131313"/>
    </radialGradient>
    <radialGradient cx="0" cy="0" gradientTransform="matrix(0.0148, 0.0, 0.0, 0.0148, -223.6, -1.0)" gradientUnits="userSpaceOnUse" id="gradient27" r="819.2" spreadMethod="pad">
      <stop offset="0.0" stop-color="#000000"/>
      <stop offset="1.0" stop-color="#000000"/>
    </radialGradient>
    <radialGradient cx="0" cy="0" gradientTransform="matrix(0.0202, 0.0, 0.0, 0.0202, -209.4, -1.0)" gradientUnits="userSpaceOnUse" id="gradient28" r="819.2" spreadMethod="pad">
      <stop offset="0.0" stop-color="#343434"/>
      <stop offset="1.0" stop-color="#010101"/>
    </radialGradient>
    <radialGradient cx="0" cy="0" gradientTransform="matrix(0.0213, 0.0, 0.0, 0.0213, -188.1, -10.3)" gradientUnits="userSpaceOnUse" id="gradient29" r="819.2" spreadMethod="pad">
      <stop offset="0.0" stop-color="#393939"/>
      <stop offset="1.0" stop-color="#000000"/>
    </radialGradient>
    <radialGradient cx="0" cy="0" gradientTransform="matrix(0.0202, 0.0, 0.0, 0.0202, -189.5, -1.0)" gradientUnits="userSpaceOnUse" id="gradient30" r="819.2" spreadMethod="pad">
      <stop offset="0.0" stop-color="#181818"/>
      <stop offset="1.0" stop-color="#000000"/>
    </radialGradient>
  </defs>
</svg>
