<?xml version="1.0" encoding="UTF-8" standalone="no"?>
<svg xmlns:xlink="http://www.w3.org/1999/xlink" height="299.1px" width="270.25px" xmlns="http://www.w3.org/2000/svg">
  <g transform="matrix(1.0, 0.0, 0.0, 1.0, 400.0, 300.0)">
    <path d="M-246.5 -300.0 L-181.65 -300.0 -182.15 -290.5 -184.9 -269.25 -188.5 -246.75 -220.9 -250.9 -249.5 -255.25 -246.5 -300.0" fill="url(#gradient0)" fill-rule="evenodd" stroke="none"/>
    <path d="M-181.65 -300.0 L-159.25 -300.0 -164.75 -251.75 -188.5 -246.75 -184.9 -269.25 -182.15 -290.5 -181.65 -300.0" fill="url(#gradient1)" fill-rule="evenodd" stroke="none"/>
    <path d="M-162.4 -243.9 L-153.4 -211.5 -152.0 -207.65 -147.15 -172.75 -158.75 -143.75 -176.25 -121.15 -177.5 -119.5 -179.15 -117.5 -181.0 -115.15 -182.15 -113.5 -186.5 -109.25 -217.25 -114.25 -217.4 -114.65 -217.15 -115.4 -217.0 -115.65 -201.4 -162.25 -201.65 -162.65 -197.4 -203.25 -197.4 -205.9 -188.5 -246.75 -164.75 -251.75 -162.4 -243.9" fill="url(#gradient2)" fill-rule="evenodd" stroke="none"/>
    <path d="M-159.25 -300.0 L-155.4 -300.0 -160.75 -253.9 -162.4 -243.9 -164.75 -251.75 -159.25 -300.0" fill="url(#gradient3)" fill-rule="evenodd" stroke="none"/>
    <path d="M-155.4 -300.0 L-150.9 -300.0 -156.25 -254.5 -158.15 -253.9 -160.75 -253.9 -155.4 -300.0" fill="url(#gradient4)" fill-rule="evenodd" stroke="none"/>
    <path d="M-156.25 -254.5 L-140.9 -214.65 -137.9 -182.0 -149.4 -153.15 -173.0 -120.25 -176.25 -121.15 -158.75 -143.75 -147.15 -172.75 -152.0 -207.65 -153.4 -211.5 -162.4 -243.9 -160.75 -253.9 -158.15 -253.9 -156.25 -254.5" fill="url(#gradient5)" fill-rule="evenodd" stroke="none"/>
    <path d="M-257.0 -257.9 L-255.65 -279.5 -249.4 -300.0 -246.5 -300.0 -249.5 -255.25 -257.0 -257.9" fill="url(#gradient6)" fill-rule="evenodd" stroke="none"/>
    <path d="M-260.0 -208.75 L-257.0 -257.9 -249.5 -255.25 -259.75 -207.15 -260.15 -206.65 -260.0 -208.75" fill="url(#gradient7)" fill-rule="evenodd" stroke="none"/>
    <path d="M-260.25 -207.15 L-260.25 -207.75 -260.0 -208.75 -260.15 -206.65 -260.25 -206.0 -260.25 -207.15" fill="url(#gradient8)" fill-rule="evenodd" stroke="none"/>
    <path d="M-261.3 -200.4 L-260.25 -207.15 -260.25 -206.0 -260.25 -205.65 -260.4 -205.4 -261.3 -200.4" fill="url(#gradient9)" fill-rule="evenodd" stroke="none"/>
    <path d="M-265.65 -166.5 L-265.5 -167.0 -264.5 -180.15 -262.75 -191.75 -262.65 -192.0 -262.65 -192.4 -262.5 -192.75 -262.5 -193.15 -262.4 -193.5 -262.4 -193.9 -262.25 -194.4 -262.15 -195.15 -262.15 -195.4 -261.3 -200.4 -260.4 -205.4 -260.25 -205.65 -260.25 -206.0 -260.15 -206.65 -259.75 -207.15 -249.5 -255.25 -220.9 -250.9 -188.5 -246.75 -197.4 -205.9 -197.4 -203.25 -201.65 -162.65 -201.4 -162.25 -217.0 -115.65 -217.25 -116.9 -214.15 -163.15 -230.25 -163.25 -248.25 -168.25 -266.15 -159.75 -265.65 -166.5 M-217.15 -115.4 L-217.4 -114.65 -217.4 -115.25 -217.15 -115.4" fill="url(#gradient10)" fill-rule="evenodd" stroke="none"/>
    <path d="M-400.0 -95.4 L-400.0 -97.15 -388.4 -101.15 -388.25 -101.25 -387.9 -101.4 -387.5 -101.5 -386.9 -101.75 -386.75 -101.75 -378.9 -104.5 -377.65 -104.65 -400.0 -95.4 M-217.0 -115.65 L-217.15 -115.4 -217.4 -115.25 -217.75 -115.15 -228.4 -121.5 -221.0 -128.75 -217.25 -116.9 -217.0 -115.65 M-216.75 -113.75 L-215.65 -109.15 -215.65 -105.25 -216.65 -104.9 -225.0 -105.15 -216.75 -113.75" fill="url(#gradient11)" fill-rule="evenodd" stroke="none"/>
    <path d="M-291.75 -139.75 L-290.65 -140.5 -266.15 -159.75 -248.25 -168.25 -230.25 -163.25 -214.15 -163.15 -217.25 -116.9 -221.0 -128.75 -228.4 -121.5 -217.75 -115.15 -217.4 -115.25 -217.4 -114.65 -217.25 -114.25 -283.9 -103.75 -308.9 -118.75 -317.9 -122.5 -291.75 -139.75" fill="url(#gradient12)" fill-rule="evenodd" stroke="none"/>
    <path d="M-290.65 -140.5 L-265.65 -166.5 -266.15 -159.75 -290.65 -140.5" fill="url(#gradient13)" fill-rule="evenodd" stroke="none"/>
    <path d="M-400.0 -76.75 L-400.0 -95.4 -377.65 -104.65 -378.9 -104.5 -386.75 -101.75 -354.65 -115.15 -330.75 -123.5 -291.75 -139.75 -317.9 -122.5 -308.9 -118.75 -283.9 -103.75 -329.9 -109.5 -351.4 -97.15 -400.0 -76.75" fill="url(#gradient14)" fill-rule="evenodd" stroke="none"/>
    <path d="M-173.0 -120.25 L-175.75 -119.75 -176.9 -119.5 -177.5 -119.5 -176.25 -121.15 -173.0 -120.25" fill="url(#gradient15)" fill-rule="evenodd" stroke="none"/>
    <path d="M-176.0 -117.75 L-174.25 -112.9 -172.4 -92.25 -177.0 -54.25 -186.75 -17.25 -190.25 -12.15 -198.15 -7.0 -203.75 -24.0 -204.15 -69.75 -200.5 -101.9 -200.65 -102.15 -200.4 -106.15 -186.5 -109.25 -182.15 -113.5 -181.0 -115.15 -176.9 -114.0 Q-175.5 -116.15 -179.15 -117.5 L-177.5 -119.5 -176.9 -119.5 -176.0 -117.75" fill="url(#gradient16)" fill-rule="evenodd" stroke="none"/>
    <path d="M-175.75 -119.75 L-176.0 -117.75 -176.9 -119.5 -175.75 -119.75 M-181.0 -115.15 L-179.15 -117.5 Q-175.5 -116.15 -176.9 -114.0 L-181.0 -115.15 M-189.5 -9.25 L-189.9 -9.25 -189.0 -11.75 -189.0 -10.0 -189.5 -9.25" fill="url(#gradient17)" fill-rule="evenodd" stroke="none"/>
    <path d="M-217.25 -114.25 L-186.5 -109.25 -200.4 -106.15 -204.9 -105.25 -214.75 -112.25 -214.9 -112.5 -215.25 -112.65 -216.75 -113.75 -217.25 -114.25" fill="url(#gradient18)" fill-rule="evenodd" stroke="none"/>
    <path d="M-236.25 -91.75 L-248.5 -86.5 -253.65 -86.15 -283.9 -103.75 -217.25 -114.25 -216.75 -113.75 -215.25 -112.65 -214.9 -112.5 -214.75 -112.25 -206.25 -105.0 -233.65 -92.9 -236.25 -91.75 M-216.75 -113.75 L-225.0 -105.15 -216.65 -104.9 -215.65 -105.25 -215.65 -109.15 -216.75 -113.75" fill="url(#gradient19)" fill-rule="evenodd" stroke="none"/>
    <path d="M-214.75 -112.25 L-204.9 -105.25 -200.65 -102.15 -200.5 -101.9 -206.25 -105.0 -214.75 -112.25" fill="url(#gradient20)" fill-rule="evenodd" stroke="none"/>
    <path d="M-239.75 -17.15 L-238.15 -38.25 -236.15 -60.15 -236.25 -62.25 -234.5 -86.25 -233.65 -92.9 -206.25 -105.0 -200.5 -101.9 -204.15 -69.75 -203.75 -24.0 -198.15 -7.0 -217.4 -7.0 -234.25 -12.65 -239.75 -17.15 M-204.9 -105.25 L-200.4 -106.15 -200.65 -102.15 -204.9 -105.25" fill="url(#gradient21)" fill-rule="evenodd" stroke="none"/>
    <path d="M-238.15 -38.25 L-237.75 -69.15 -236.25 -91.75 -233.65 -92.9 -234.5 -86.25 -236.25 -62.25 -236.15 -60.15 -238.15 -38.25" fill="url(#gradient22)" fill-rule="evenodd" stroke="none"/>
    <path d="M-248.5 -86.5 L-317.4 -40.4 -349.65 -27.5 -368.15 -22.0 -382.0 -17.9 -384.4 -18.15 -387.9 -20.0 -398.4 -22.25 -399.0 -23.65 -400.0 -24.4 -400.0 -76.75 -351.4 -97.15 -329.9 -109.5 -283.9 -103.75 -253.65 -86.15 -248.5 -86.5" fill="url(#gradient23)" fill-rule="evenodd" stroke="none"/>
    <path d="M-400.0 -13.9 L-400.0 -24.4 -399.0 -23.65 -398.4 -22.25 -387.9 -20.0 -384.4 -18.15 -387.0 -15.75 -398.15 -13.15 -400.0 -13.9" fill="url(#gradient24)" fill-rule="evenodd" stroke="none"/>
    <path d="M-368.15 -22.0 L-366.65 -18.25 -361.65 -9.15 -360.75 -0.9 -398.0 -0.9 -399.9 -5.25 -400.0 -13.9 -398.15 -13.15 -387.0 -15.75 -384.4 -18.15 -382.0 -17.9 -368.15 -22.0" fill="url(#gradient25)" fill-rule="evenodd" stroke="none"/>
    <path d="M-398.0 -0.9 L-400.0 -0.9 -399.9 -5.25 -398.0 -0.9" fill="url(#gradient26)" fill-rule="evenodd" stroke="none"/>
    <path d="M-186.75 -17.25 L-188.65 -7.75 -191.75 -2.9 -195.25 -0.9 -199.9 -0.9 -198.15 -7.0 -190.25 -12.15 -186.75 -17.25 M-189.5 -9.25 L-189.0 -10.0 -189.0 -11.75 -189.9 -9.25 -189.5 -9.25" fill="url(#gradient27)" fill-rule="evenodd" stroke="none"/>
    <path d="M-199.9 -0.9 L-224.75 -0.9 -227.0 -1.9 -233.4 -3.65 -236.65 -6.4 -239.75 -17.15 -234.25 -12.65 -217.4 -7.0 -198.15 -7.0 -199.9 -0.9" fill="url(#gradient28)" fill-rule="evenodd" stroke="none"/>
    <path d="M-233.4 -0.9 L-235.25 -0.9 -236.65 -6.4 -233.4 -3.65 -233.4 -0.9" fill="url(#gradient29)" fill-rule="evenodd" stroke="none"/>
    <path d="M-224.75 -0.9 L-233.4 -0.9 -233.4 -3.65 -227.0 -1.9 -224.75 -0.9" fill="url(#gradient30)" fill-rule="evenodd" stroke="none"/>
    <path d="M-188.65 -7.75 L-186.65 -0.9 -195.25 -0.9 -191.75 -2.9 -188.65 -7.75" fill="url(#gradient31)" fill-rule="evenodd" stroke="none"/>
    <path d="M-255.15 -300.0 L-249.4 -300.0 -249.4 -299.65 -249.5 -299.25 -249.65 -299.15 -255.65 -279.15 -255.65 -278.75 -256.9 -263.25 -257.0 -270.15 -255.15 -300.0" fill="#ee0000" fill-rule="evenodd" stroke="none"/>
    <path d="M-180.9 -300.0 L-181.25 -291.9 -181.4 -291.75 -181.4 -291.15 -181.25 -290.9 -181.5 -285.65 -183.65 -269.5 -183.9 -268.4 -183.9 -267.65 -184.15 -267.15 -184.0 -266.65 -186.25 -247.9 -186.4 -247.15 -186.4 -246.75 -186.5 -245.65 -186.75 -244.65 -186.75 -243.4 -187.4 -237.75 -187.65 -237.15 -203.4 -239.0 -257.4 -247.5 -257.4 -251.4 -257.4 -252.5 -257.4 -253.0 -257.25 -253.4 -256.9 -263.25 -255.65 -278.75 -255.65 -279.15 -249.65 -299.15 -249.5 -299.25 -249.4 -299.65 -249.4 -300.0 -249.15 -299.9 -248.0 -300.0 -180.9 -300.0" fill="#dd0000" fill-opacity="0.9098039" fill-rule="evenodd" stroke="none"/>
    <path d="M-265.5 -250.9 L-264.9 -274.0 -257.75 -296.4 -257.5 -299.9 -255.15 -300.0 -257.0 -270.15 -256.9 -263.25 -257.25 -253.4 -257.4 -253.0 -257.4 -252.5 -265.5 -250.9" fill="#ac0000" fill-rule="evenodd" stroke="none"/>
    <path d="M-280.25 -156.9 L-273.9 -169.75 -274.0 -169.15 -274.0 -167.5 -274.65 -165.75 -280.25 -156.9 M-269.5 -194.0 L-265.5 -250.9 -257.4 -252.5 -257.4 -251.4 -257.75 -246.15 -258.0 -243.5 -269.5 -194.0" fill="#ab0000" fill-rule="evenodd" stroke="none"/>
    <path d="M-150.9 -300.0 L-153.15 -282.5 -153.15 -281.9 -153.0 -281.65 -153.25 -281.5 -156.4 -254.4 -154.15 -249.0 -153.5 -247.4 -153.0 -245.9 -154.4 -245.25 -160.25 -243.15 -161.65 -242.65 -162.15 -242.4 -163.65 -242.0 -164.75 -241.9 -187.5 -236.9 -187.65 -237.15 -187.4 -237.75 -186.75 -243.4 -186.75 -244.65 -186.5 -245.65 -186.4 -246.75 -186.4 -247.15 -186.25 -247.9 -184.0 -266.65 -184.15 -267.15 -183.9 -267.65 -183.9 -268.4 -183.65 -269.5 -181.5 -285.65 -181.25 -290.9 -181.4 -291.15 -181.4 -291.75 -181.25 -291.9 -180.9 -300.0 -150.9 -300.0" fill="#ab0000" fill-opacity="0.9098039" fill-rule="evenodd" stroke="none"/>
    <path d="M-187.65 -237.15 L-187.5 -236.9 -197.65 -190.4 -198.4 -183.25 -198.65 -182.75 -198.5 -182.25 -200.5 -161.75 -200.9 -160.4 -200.75 -159.25 -202.25 -144.5 -217.25 -100.65 -217.5 -100.4 -217.5 -100.15 -217.65 -99.9 -218.0 -99.0 -218.0 -98.5 -220.15 -92.75 -219.9 -97.4 -220.0 -98.9 -219.75 -99.5 -219.4 -107.15 -219.25 -107.4 -219.25 -107.9 -219.0 -111.0 -219.15 -111.25 -219.0 -111.65 -219.0 -112.9 -218.9 -113.25 -218.9 -114.0 -218.75 -115.0 -218.75 -115.65 -218.9 -115.9 -218.4 -119.75 -218.5 -121.25 -216.9 -145.15 -235.5 -145.15 -258.0 -160.25 -267.25 -158.15 -267.5 -158.0 -268.25 -157.9 -268.75 -157.65 -275.75 -156.15 -265.65 -166.5 -265.5 -166.9 -264.4 -181.15 -262.75 -191.75 -262.65 -192.0 -262.65 -192.4 -262.5 -192.75 -262.5 -193.15 -262.4 -193.5 -262.4 -193.9 -262.25 -194.4 -262.15 -195.15 -262.15 -195.4 -260.25 -207.15 -260.25 -207.75 -260.0 -208.75 -258.0 -243.5 -257.75 -246.15 -257.4 -247.5 -203.4 -239.0 -187.65 -237.15" fill="#d80000" fill-opacity="0.9098039" fill-rule="evenodd" stroke="none"/>
    <path d="M-257.4 -247.5 L-257.75 -246.15 -257.4 -251.4 -257.4 -247.5" fill="#9b0000" fill-opacity="0.9098039" fill-rule="evenodd" stroke="none"/>
    <path d="M-154.15 -249.0 L-156.4 -254.4 -153.25 -281.5 -153.0 -281.65 -153.15 -281.9 -153.15 -282.5 -150.9 -300.0 -145.9 -300.0 -146.5 -289.15 -150.0 -266.25 -154.15 -249.0" fill="#c10000" fill-rule="evenodd" stroke="none"/>
    <path d="M-153.5 -247.4 L-154.15 -249.0 -150.0 -266.25 -146.5 -289.15 -145.9 -300.0 -143.9 -300.0 -143.9 -299.25 -150.9 -246.75 -153.5 -247.4" fill="#bb0000" fill-rule="evenodd" stroke="none"/>
    <path d="M-153.0 -245.9 L-153.5 -247.4 -150.9 -246.75 -153.0 -245.9" fill="#bc0000" fill-rule="evenodd" stroke="none"/>
    <path d="M-150.9 -246.75 L-133.15 -203.9 -129.75 -168.75 -142.5 -138.4 -165.9 -98.65 -166.0 -98.0 -168.65 -94.15 -170.4 -90.65 -172.65 -90.4 -172.4 -92.15 -172.5 -92.4 -172.65 -94.0 -172.9 -94.65 -167.65 -102.75 -167.75 -103.0 -153.0 -126.25 -139.75 -157.25 -142.0 -171.4 -141.9 -172.4 -138.15 -181.75 -137.9 -182.25 -138.25 -184.4 -141.0 -214.4 -153.0 -245.9 -150.9 -246.75 M-400.0 -97.15 L-400.0 -118.4 -310.65 -132.9 -310.4 -132.75 -309.65 -132.4 -310.0 -132.15 -310.15 -132.15 -332.9 -122.75 -333.0 -122.75 -333.25 -122.65 -333.4 -122.65 -357.4 -113.9 -357.65 -113.75 -358.5 -113.4 -358.65 -113.4 -359.9 -112.9 -360.65 -112.5 -360.75 -112.5 -386.9 -101.75 -387.4 -101.5 -387.5 -101.5 -387.9 -101.4 -388.25 -101.25 -388.4 -101.15 -400.0 -97.15" fill="#d10000" fill-rule="evenodd" stroke="none"/>
    <path d="M-166.0 -98.0 L-161.75 -72.0 -170.75 -0.9 -186.65 -0.9 -187.25 -2.4 -187.4 -3.75 -184.9 -22.9 -185.0 -23.4 -184.4 -26.9 -184.15 -27.0 -184.25 -27.25 -177.25 -53.0 -177.4 -53.4 -177.0 -54.0 -177.0 -55.9 -174.75 -72.5 -174.9 -72.9 -172.65 -90.4 -170.4 -90.65 -168.65 -94.15 -166.0 -98.0" fill="#ae0000" fill-rule="evenodd" stroke="none"/>
    <path d="M-160.25 -243.15 L-154.4 -245.25 -153.0 -245.9 -141.0 -214.4 -138.25 -184.4 -137.9 -182.25 -138.15 -181.75 -141.9 -172.4 -143.25 -177.65 -142.9 -177.9 -143.15 -178.25 -143.65 -183.75 -145.4 -194.5 -156.5 -230.25 -156.5 -230.4 -156.9 -231.5 -157.0 -232.0 -157.4 -233.15 -157.5 -233.65 -157.65 -234.0 -158.25 -236.4 -158.65 -237.5 -158.9 -238.0 -160.25 -243.15 M-175.65 -90.15 L-173.0 -94.25 -172.9 -94.65 -172.65 -94.0 -172.5 -92.4 -172.4 -92.15 -172.65 -90.4 -175.65 -90.15" fill="#c00000" fill-opacity="0.9098039" fill-rule="evenodd" stroke="none"/>
    <path d="M-156.5 -230.25 L-145.4 -194.5 -143.65 -183.75 -143.15 -178.25 -142.9 -177.9 -143.25 -177.65 -141.9 -172.4 -142.0 -171.4 -139.75 -157.25 -153.0 -126.25 -167.75 -103.0 -167.65 -102.75 -172.9 -94.65 -173.0 -94.25 -175.65 -90.15 -175.75 -90.15 -182.0 -89.4 -176.65 -97.65 -176.4 -98.4 -174.9 -100.4 -174.9 -100.9 -173.5 -102.65 -173.25 -103.25 -174.25 -112.0 -170.4 -107.5 -169.5 -108.65 -169.25 -109.15 -169.15 -109.25 -169.15 -109.75 -168.9 -110.15 -166.5 -128.0 -166.65 -128.75 -149.4 -153.15 -144.25 -166.0 -144.0 -167.0 -144.75 -171.0 -144.65 -172.15 -144.9 -172.25 -144.75 -173.4 -145.9 -185.4 -146.4 -187.9 -147.25 -197.65 -150.9 -210.4 -151.0 -210.4 -156.5 -230.25" fill="#e50000" fill-rule="evenodd" stroke="none"/>
    <path d="M-187.5 -236.9 L-164.75 -241.9 -163.65 -242.0 -162.15 -242.4 -161.65 -242.65 -160.25 -243.15 -158.9 -238.0 -158.65 -237.5 -158.25 -236.4 -157.65 -234.0 -157.5 -233.65 -157.4 -233.15 -157.0 -232.0 -156.9 -231.5 -156.5 -230.4 -156.5 -230.25 -151.0 -210.4 -150.9 -210.4 -147.25 -197.65 -146.4 -187.9 -145.9 -185.4 -144.75 -173.4 -144.9 -172.25 -144.65 -172.15 -144.75 -171.0 -144.0 -167.0 -144.25 -166.0 -149.4 -153.15 -166.65 -128.75 -172.4 -121.15 -173.0 -120.25 -175.75 -119.75 -176.15 -117.9 -174.5 -113.75 -174.65 -113.25 -174.25 -112.0 -173.25 -103.25 -173.5 -102.65 -174.9 -100.9 -174.9 -100.4 -176.4 -98.4 -176.65 -97.65 -182.0 -89.4 -182.15 -88.4 -182.0 -87.4 -182.25 -80.15 -182.4 -79.65 -185.75 -75.5 -187.25 -76.0 -188.4 -76.75 -211.75 -87.9 -212.25 -88.0 -213.75 -88.65 -214.15 -89.0 -220.15 -91.75 -220.4 -92.0 -220.15 -92.75 -218.0 -98.5 -218.0 -99.0 -217.65 -99.9 -217.5 -100.15 -217.5 -100.4 -217.25 -100.65 -202.25 -144.5 -200.75 -159.25 -200.9 -160.4 -200.5 -161.75 -198.5 -182.25 -198.65 -182.75 -198.4 -183.25 -197.65 -190.4 -187.5 -236.9" fill="#d40000" fill-opacity="0.9098039" fill-rule="evenodd" stroke="none"/>
    <path d="M-281.25 -154.75 L-280.4 -156.65 -280.25 -156.9 -274.65 -165.75 -274.0 -167.5 -274.0 -169.15 -273.9 -169.75 -273.9 -169.9 -273.65 -170.5 -273.5 -170.65 -273.25 -171.4 -269.5 -194.0 -258.0 -243.5 -260.0 -208.75 -260.25 -207.75 -260.25 -207.15 -262.15 -195.4 -262.15 -195.15 -262.25 -194.4 -262.4 -193.9 -262.4 -193.5 -262.5 -193.15 -262.5 -192.75 -262.65 -192.4 -262.65 -192.0 -262.75 -191.75 -264.4 -181.15 -265.5 -166.9 -265.65 -166.5 -275.75 -156.15 -276.15 -155.9 -281.25 -154.75" fill="#e80000" fill-rule="evenodd" stroke="none"/>
    <path d="M-166.65 -128.75 L-166.5 -128.0 -168.9 -110.15 -169.15 -109.75 -169.15 -109.25 -169.25 -109.15 -169.5 -108.65 -170.4 -107.5 -174.25 -112.0 -174.65 -113.25 -174.5 -113.75 -176.15 -117.9 -175.75 -119.75 -173.0 -120.25 -172.4 -121.15 -166.65 -128.75" fill="#e90000" fill-rule="evenodd" stroke="none"/>
    <path d="M-182.0 -89.4 L-175.75 -90.15 -175.75 -89.65 -176.25 -89.15 -176.5 -88.65 -181.0 -81.65 -181.25 -81.0 -182.25 -80.15 -182.0 -87.4 -182.15 -88.4 -182.0 -89.4" fill="#e40000" fill-rule="evenodd" stroke="none"/>
    <path d="M-186.65 -0.9 L-187.5 -0.9 -187.25 -2.4 -186.65 -0.9 M-175.75 -90.15 L-175.65 -90.15 -172.65 -90.4 -174.9 -72.9 -174.75 -72.5 -177.0 -55.9 -177.0 -54.0 -177.4 -53.4 -177.25 -53.0 -184.25 -27.25 -184.15 -27.0 -184.4 -26.9 -184.25 -27.25 -184.5 -27.65 -183.5 -34.25 -183.4 -34.65 -183.25 -36.65 -183.4 -37.15 -182.75 -40.65 -182.65 -41.0 -182.5 -44.65 -182.65 -46.9 -182.5 -47.25 -182.25 -51.0 -182.4 -51.4 -182.4 -52.65 -182.4 -53.9 -181.5 -71.4 -181.65 -71.75 -181.15 -79.0 -181.25 -81.0 -181.0 -81.65 -176.5 -88.65 -176.25 -89.15 -175.75 -89.65 -175.75 -90.15" fill="#9e0000" fill-opacity="0.9098039" fill-rule="evenodd" stroke="none"/>
    <path d="M-187.5 -0.9 L-188.9 -0.9 -188.5 -4.4 -188.15 -5.5 -188.15 -6.5 -187.15 -13.25 -187.25 -14.0 -187.0 -14.25 -187.15 -14.65 -186.9 -16.9 -187.0 -16.9 -186.15 -20.75 -185.25 -29.15 -185.4 -29.5 -183.4 -45.15 -183.5 -45.9 -183.15 -46.5 -182.75 -51.4 -182.4 -52.65 -182.4 -51.4 -182.25 -51.0 -182.5 -47.25 -182.65 -46.9 -182.5 -44.65 -182.65 -41.0 -182.75 -40.65 -183.4 -37.15 -183.25 -36.65 -183.4 -34.65 -183.5 -34.25 -184.5 -27.65 -184.25 -27.25 -184.4 -26.9 -185.0 -23.4 -184.9 -22.9 -187.4 -3.75 -187.25 -2.4 -187.5 -0.9 M-182.25 -80.15 L-181.25 -81.0 -181.15 -79.0 -181.65 -71.75 -181.5 -71.4 -182.4 -53.9 -182.4 -79.65 -182.25 -80.15" fill="#b20000" fill-rule="evenodd" stroke="none"/>
    <path d="M-188.9 -0.9 L-196.25 -0.9 -196.15 -2.5 -196.5 -3.9 -196.4 -5.75 -196.65 -7.9 -196.5 -8.15 -196.75 -13.0 -197.75 -18.75 -198.0 -19.15 -199.65 -28.15 -199.5 -28.65 -203.75 -51.75 -204.0 -55.15 -205.65 -62.5 -205.65 -62.9 -205.75 -63.25 -206.15 -65.9 -204.0 -62.5 -203.75 -61.65 -197.5 -50.4 -197.15 -50.25 -203.75 -62.75 -204.15 -64.0 -206.25 -67.4 -207.5 -69.9 -214.4 -81.4 -214.4 -82.0 -215.25 -82.9 -215.4 -83.4 -215.75 -83.75 -218.65 -89.15 -219.0 -89.4 -220.15 -91.75 -214.15 -89.0 -213.75 -88.65 -212.25 -88.0 -211.75 -87.9 -188.4 -76.75 -187.25 -76.0 -185.75 -75.5 -182.4 -79.65 -182.4 -53.9 -182.4 -52.65 -182.75 -51.4 -183.15 -46.5 -183.5 -45.9 -183.4 -45.15 -185.4 -29.5 -185.25 -29.15 -186.15 -20.75 -187.0 -16.9 -186.9 -16.9 -187.15 -14.65 -187.25 -14.0 -188.75 -8.25 -188.75 -7.5 -188.5 -6.75 -188.15 -6.5 -188.15 -5.5 -188.5 -4.4 -188.9 -0.9" fill="#a20000" fill-opacity="0.9098039" fill-rule="evenodd" stroke="none"/>
    <path d="M-275.75 -156.15 L-268.75 -157.65 -268.25 -157.9 -267.5 -158.0 -267.25 -158.15 -258.0 -160.25 -235.5 -145.15 -216.9 -145.15 -218.5 -121.25 -218.4 -119.75 -218.9 -115.9 -218.75 -115.65 -218.75 -115.0 -218.9 -114.0 -218.9 -113.25 -219.0 -112.9 -219.0 -111.65 -219.15 -111.25 -219.0 -111.0 -219.25 -107.9 -219.25 -107.4 -219.4 -107.15 -219.75 -99.5 -220.0 -98.9 -219.9 -97.4 -220.15 -92.75 -220.4 -92.0 -224.5 -93.65 -224.65 -93.9 -266.15 -111.65 -301.0 -129.9 -308.15 -132.15 -308.25 -132.25 -309.0 -132.5 -295.9 -138.0 -295.75 -138.0 -295.25 -138.25 -295.15 -138.25 -294.9 -138.4 -291.15 -140.0 -276.15 -155.9 -275.75 -156.15" fill="#c70000" fill-opacity="0.9098039" fill-rule="evenodd" stroke="none"/>
    <path d="M-310.65 -132.9 L-281.25 -154.75 -276.15 -155.9 -291.15 -140.0 -294.9 -138.4 -295.15 -138.25 -295.25 -138.25 -295.75 -138.0 -295.9 -138.0 -309.0 -132.5 -309.4 -132.5 -310.4 -132.75 -310.65 -132.9" fill="#d70000" fill-rule="evenodd" stroke="none"/>
    <path d="M-258.65 -0.9 L-274.15 -0.9 -267.65 -59.9 -265.25 -74.75 -265.4 -75.15 -263.65 -76.25 -258.25 -3.25 -258.65 -0.9 M-309.4 -132.5 L-309.65 -132.4 -310.4 -132.75 -309.4 -132.5" fill="#d20000" fill-rule="evenodd" stroke="none"/>
    <path d="M-360.75 -0.9 L-400.0 -0.9 -399.9 -5.25 -400.0 -5.75 -400.0 -97.15 -388.4 -101.15 -388.25 -101.25 -387.9 -101.4 -387.5 -101.5 -387.4 -101.5 -386.9 -101.75 -360.75 -112.5 -360.65 -112.5 -359.9 -112.9 -358.65 -113.4 -358.5 -113.4 -357.65 -113.75 -357.4 -113.9 -333.4 -122.65 -333.25 -122.65 -333.0 -122.75 -332.9 -122.75 -310.15 -132.15 -311.0 -131.25 -311.5 -130.9 -310.5 -131.25 -310.25 -131.4 -308.15 -132.15 -301.0 -129.9 -266.15 -111.65 -266.0 -111.15 -264.25 -83.4 -263.9 -81.4 -263.65 -76.25 -265.4 -75.15 -312.25 -44.0 -312.25 -43.9 -312.65 -43.65 -313.0 -43.5 -318.65 -39.9 -349.5 -27.75 -368.15 -22.0 -367.15 -19.4 -364.0 -13.5 -364.0 -13.25 -363.65 -12.9 -361.75 -9.25 -360.75 -0.9" fill="#c10000" fill-opacity="0.9098039" fill-rule="evenodd" stroke="none"/>
    <path d="M-198.25 -0.9 L-224.5 -0.9 -224.5 -1.25 -224.15 -6.25 -224.4 -7.0 -224.25 -9.15 -224.15 -9.5 -224.15 -12.5 -225.5 -15.75 -225.65 -16.75 -232.0 -34.65 -232.4 -36.4 -232.65 -36.5 -233.25 -39.15 -237.15 -47.25 -237.4 -48.0 -238.0 -49.0 -238.0 -49.5 -238.15 -50.0 -237.65 -71.15 -236.25 -91.75 -248.5 -86.5 -253.4 -83.15 -254.4 -85.4 -254.4 -85.65 -254.5 -85.75 -254.9 -86.75 -255.15 -87.15 -266.0 -111.15 -266.15 -111.65 -224.65 -93.9 -224.5 -93.65 -220.4 -92.0 -220.15 -91.75 -219.0 -89.4 -218.65 -89.15 -215.75 -83.75 -215.4 -83.4 -215.25 -82.9 -214.4 -81.4 -214.25 -80.75 -206.5 -67.15 -206.4 -67.0 -206.4 -66.65 -206.15 -65.9 -205.75 -63.25 -205.65 -62.9 -205.65 -62.5 -204.0 -49.5 -203.65 -43.75 -200.75 -21.5 -200.65 -21.15 -199.75 -12.65 -199.25 -10.25 -199.25 -8.4 -199.0 -7.75 -199.0 -7.0 -198.9 -6.5 -199.0 -6.25 -198.65 -5.65 -198.75 -4.25 -198.25 -0.9" fill="#df0000" fill-opacity="0.9098039" fill-rule="evenodd" stroke="none"/>
    <path d="M-238.0 -49.0 L-238.15 -35.15 -238.25 -34.65 -239.75 -17.15 -239.5 -16.25 -239.4 -16.0 -235.25 -0.9 -241.5 -0.9 -239.9 -7.4 -242.15 -0.9 -258.65 -0.9 -258.25 -3.25 -263.65 -76.25 -253.4 -83.15 -238.15 -50.0 -238.0 -49.5 -238.0 -49.0" fill="#bc0000" fill-opacity="0.9098039" fill-rule="evenodd" stroke="none"/>
    <path d="M-274.15 -0.9 L-360.75 -0.9 -361.75 -9.25 -363.65 -12.9 -364.0 -13.25 -364.0 -13.5 -367.15 -19.4 -368.15 -22.0 -349.5 -27.75 -318.65 -39.9 -313.0 -43.5 -312.65 -43.65 -312.25 -43.9 -312.25 -44.0 -265.4 -75.15 -265.25 -74.75 -267.65 -59.9 -274.15 -0.9" fill="#d50000" fill-opacity="0.9098039" fill-rule="evenodd" stroke="none"/>
    <path d="M-196.25 -0.9 L-198.25 -0.9 -198.75 -4.25 -198.65 -5.65 -199.0 -6.25 -198.9 -6.5 -199.0 -7.0 -199.0 -7.75 -199.25 -8.4 -199.25 -10.25 -199.75 -12.65 -200.65 -21.15 -200.75 -21.5 -203.65 -43.75 -204.0 -49.5 -205.65 -62.5 -204.0 -55.15 -203.75 -51.75 -199.5 -28.65 -199.65 -28.15 -198.0 -19.15 -197.75 -18.75 -196.75 -13.0 -196.5 -8.15 -196.65 -7.9 -196.4 -5.75 -196.5 -3.9 -196.15 -2.5 -196.25 -0.9 M-215.25 -82.9 L-214.4 -82.0 -214.4 -81.4 -215.25 -82.9 M-214.4 -81.4 L-207.5 -69.9 -206.25 -67.4 -206.5 -67.15 -214.25 -80.75 -214.4 -81.4" fill="#f10000" fill-rule="evenodd" stroke="none"/>
    <path d="M-206.25 -67.4 L-204.15 -64.0 -203.75 -62.75 -197.15 -50.25 -197.5 -50.4 -203.75 -61.65 -204.0 -62.5 -206.15 -65.9 -206.4 -66.65 -206.4 -67.0 -206.5 -67.15 -206.25 -67.4" fill="#b40000" fill-rule="evenodd" stroke="none"/>
    <path d="M-253.4 -83.15 L-248.5 -86.5 -236.25 -91.75 -237.65 -71.15 -238.15 -50.0 -253.4 -83.15" fill="#f00000" fill-rule="evenodd" stroke="none"/>
    <path d="M-187.15 -14.65 L-187.0 -14.25 -187.25 -14.0 -187.15 -13.25 -188.15 -6.5 -188.5 -6.75 -188.75 -7.5 -188.75 -8.25 -187.25 -14.0 -187.15 -14.65" fill="#b30000" fill-rule="evenodd" stroke="none"/>
    <path d="M-241.5 -0.9 L-242.15 -0.9 -239.9 -7.4 -241.5 -0.9" fill="#ba0000" fill-rule="evenodd" stroke="none"/>
  </g>
  <defs>
    <radialGradient cx="0" cy="0" gradientTransform="matrix(0.0959, 0.0, 0.0, 0.0959, -188.5, -246.85)" gradientUnits="userSpaceOnUse" id="gradient0" r="819.2" spreadMethod="pad">
      <stop offset="0.0" stop-color="#666666"/>
      <stop offset="1.0" stop-color="#101010"/>
    </radialGradient>
    <radialGradient cx="0" cy="0" gradientTransform="matrix(0.0622, 0.0, 0.0, 0.0622, -166.7, -251.3)" gradientUnits="userSpaceOnUse" id="gradient1" r="819.2" spreadMethod="pad">
      <stop offset="0.0" stop-color="#696969"/>
      <stop offset="1.0" stop-color="#1e1e1e"/>
    </radialGradient>
    <radialGradient cx="0" cy="0" gradientTransform="matrix(0.1061, 0.0, 0.0, 0.1061, -153.4, -167.35)" gradientUnits="userSpaceOnUse" id="gradient2" r="819.2" spreadMethod="pad">
      <stop offset="0.0" stop-color="#838383"/>
      <stop offset="1.0" stop-color="#5e5e5e"/>
    </radialGradient>
    <radialGradient cx="0" cy="0" gradientTransform="matrix(0.1082, 0.0, 0.0, 0.1082, -173.1, -213.25)" gradientUnits="userSpaceOnUse" id="gradient3" r="819.2" spreadMethod="pad">
      <stop offset="0.0" stop-color="#656565"/>
      <stop offset="1.0" stop-color="#000000"/>
    </radialGradient>
    <radialGradient cx="0" cy="0" gradientTransform="matrix(0.0568, 0.0, 0.0, 0.0568, -158.1, -254.0)" gradientUnits="userSpaceOnUse" id="gradient4" r="819.2" spreadMethod="pad">
      <stop offset="0.0" stop-color="#575757"/>
      <stop offset="1.0" stop-color="#000000"/>
    </radialGradient>
    <radialGradient cx="0" cy="0" gradientTransform="matrix(0.1185, 0.0, 0.0, 0.1185, -144.8, -212.2)" gradientUnits="userSpaceOnUse" id="gradient5" r="819.2" spreadMethod="pad">
      <stop offset="0.0" stop-color="#6a6a6a"/>
      <stop offset="1.0" stop-color="#000000"/>
    </radialGradient>
    <radialGradient cx="0" cy="0" gradientTransform="matrix(0.0528, 0.0, 0.0, 0.0528, -257.0, -258.1)" gradientUnits="userSpaceOnUse" id="gradient6" r="819.2" spreadMethod="pad">
      <stop offset="0.0" stop-color="#000000"/>
      <stop offset="1.0" stop-color="#000000"/>
    </radialGradient>
    <radialGradient cx="0" cy="0" gradientTransform="matrix(0.0623, 0.0, 0.0, 0.0623, -249.45, -255.3)" gradientUnits="userSpaceOnUse" id="gradient7" r="819.2" spreadMethod="pad">
      <stop offset="0.0" stop-color="#000000"/>
      <stop offset="1.0" stop-color="#000000"/>
    </radialGradient>
    <radialGradient cx="0" cy="0" gradientTransform="matrix(0.098, 0.0, 0.0, 0.098, -259.3, -213.4)" gradientUnits="userSpaceOnUse" id="gradient8" r="819.2" spreadMethod="pad">
      <stop offset="0.0" stop-color="#000000"/>
      <stop offset="1.0" stop-color="#000000"/>
    </radialGradient>
    <radialGradient cx="0" cy="0" gradientTransform="matrix(0.0298, 0.0, 0.0, 0.0298, -260.15, -205.4)" gradientUnits="userSpaceOnUse" id="gradient9" r="819.2" spreadMethod="pad">
      <stop offset="0.0" stop-color="#000000"/>
      <stop offset="1.0" stop-color="#000000"/>
    </radialGradient>
    <radialGradient cx="0" cy="0" gradientTransform="matrix(0.09, 0.0, 0.0, 0.09, -228.25, -184.85)" gradientUnits="userSpaceOnUse" id="gradient10" r="819.2" spreadMethod="pad">
      <stop offset="0.0" stop-color="#6e6e6e"/>
      <stop offset="1.0" stop-color="#454545"/>
    </radialGradient>
    <radialGradient cx="0" cy="0" gradientTransform="matrix(0.1726, 0.0, 0.0, 0.1726, -258.65, -93.05)" gradientUnits="userSpaceOnUse" id="gradient11" r="819.2" spreadMethod="pad">
      <stop offset="0.0" stop-color="#737373"/>
      <stop offset="1.0" stop-color="#000000"/>
    </radialGradient>
    <radialGradient cx="0" cy="0" gradientTransform="matrix(0.1231, 0.0, 0.0, 0.1231, -217.4, -114.4)" gradientUnits="userSpaceOnUse" id="gradient12" r="819.2" spreadMethod="pad">
      <stop offset="0.0" stop-color="#464646"/>
      <stop offset="1.0" stop-color="#000000"/>
    </radialGradient>
    <radialGradient cx="0" cy="0" gradientTransform="matrix(0.0388, 0.0, 0.0, 0.0388, -266.15, -159.65)" gradientUnits="userSpaceOnUse" id="gradient13" r="819.2" spreadMethod="pad">
      <stop offset="0.0" stop-color="#000000"/>
      <stop offset="1.0" stop-color="#000000"/>
    </radialGradient>
    <radialGradient cx="0" cy="0" gradientTransform="matrix(0.1456, 0.0, 0.0, 0.1456, -283.85, -103.85)" gradientUnits="userSpaceOnUse" id="gradient14" r="819.2" spreadMethod="pad">
      <stop offset="0.0" stop-color="#0e0e0e"/>
      <stop offset="1.0" stop-color="#000000"/>
    </radialGradient>
    <radialGradient cx="0" cy="0" gradientTransform="matrix(0.0125, 0.0, 0.0, 0.0125, -172.95, -120.3)" gradientUnits="userSpaceOnUse" id="gradient15" r="819.2" spreadMethod="pad">
      <stop offset="0.0" stop-color="#000000"/>
      <stop offset="1.0" stop-color="#000000"/>
    </radialGradient>
    <radialGradient cx="0" cy="0" gradientTransform="matrix(0.1035, 0.0, 0.0, 0.1035, -175.7, -88.85)" gradientUnits="userSpaceOnUse" id="gradient16" r="819.2" spreadMethod="pad">
      <stop offset="0.0" stop-color="#494949"/>
      <stop offset="1.0" stop-color="#222222"/>
    </radialGradient>
    <radialGradient cx="0" cy="0" gradientTransform="matrix(0.1672, 0.0, 0.0, 0.1672, -177.75, -142.35)" gradientUnits="userSpaceOnUse" id="gradient17" r="819.2" spreadMethod="pad">
      <stop offset="0.0" stop-color="#666666"/>
      <stop offset="1.0" stop-color="#0c0c0c"/>
    </radialGradient>
    <radialGradient cx="0" cy="0" gradientTransform="matrix(0.0383, 0.0, 0.0, 0.0383, -217.4, -114.4)" gradientUnits="userSpaceOnUse" id="gradient18" r="819.2" spreadMethod="pad">
      <stop offset="0.0" stop-color="#464646"/>
      <stop offset="1.0" stop-color="#2c2c2c"/>
    </radialGradient>
    <radialGradient cx="0" cy="0" gradientTransform="matrix(0.0622, 0.0, 0.0, 0.0622, -253.5, -86.15)" gradientUnits="userSpaceOnUse" id="gradient19" r="819.2" spreadMethod="pad">
      <stop offset="0.0" stop-color="#7f7f7f"/>
      <stop offset="1.0" stop-color="#2e2e2e"/>
    </radialGradient>
    <radialGradient cx="0" cy="0" gradientTransform="matrix(0.0266, 0.0, 0.0, 0.0266, -217.4, -114.4)" gradientUnits="userSpaceOnUse" id="gradient20" r="819.2" spreadMethod="pad">
      <stop offset="0.0" stop-color="#464646"/>
      <stop offset="1.0" stop-color="#000000"/>
    </radialGradient>
    <radialGradient cx="0" cy="0" gradientTransform="matrix(0.1222, 0.0, 0.0, 0.1222, -211.85, -106.2)" gradientUnits="userSpaceOnUse" id="gradient21" r="819.2" spreadMethod="pad">
      <stop offset="0.0" stop-color="#575757"/>
      <stop offset="1.0" stop-color="#141414"/>
    </radialGradient>
    <radialGradient cx="0" cy="0" gradientTransform="matrix(0.0727, 0.0, 0.0, 0.0727, -236.0, -94.85)" gradientUnits="userSpaceOnUse" id="gradient22" r="819.2" spreadMethod="pad">
      <stop offset="0.0" stop-color="#000000"/>
      <stop offset="1.0" stop-color="#000000"/>
    </radialGradient>
    <radialGradient cx="0" cy="0" gradientTransform="matrix(0.1954, 0.0, 0.0, 0.1954, -253.5, -86.15)" gradientUnits="userSpaceOnUse" id="gradient23" r="819.2" spreadMethod="pad">
      <stop offset="0.0" stop-color="#7f7f7f"/>
      <stop offset="1.0" stop-color="#202020"/>
    </radialGradient>
    <radialGradient cx="0" cy="0" gradientTransform="matrix(0.0577, 0.0, 0.0, 0.0577, -389.35, -50.9)" gradientUnits="userSpaceOnUse" id="gradient24" r="819.2" spreadMethod="pad">
      <stop offset="0.0" stop-color="#2e2e2e"/>
      <stop offset="1.0" stop-color="#010101"/>
    </radialGradient>
    <radialGradient cx="0" cy="0" gradientTransform="matrix(0.0511, 0.0, 0.0, 0.0511, -391.15, -29.85)" gradientUnits="userSpaceOnUse" id="gradient25" r="819.2" spreadMethod="pad">
      <stop offset="0.0" stop-color="#292929"/>
      <stop offset="1.0" stop-color="#000000"/>
    </radialGradient>
    <radialGradient cx="0" cy="0" gradientTransform="matrix(0.0063, 0.0, 0.0, 0.0063, -398.1, -1.0)" gradientUnits="userSpaceOnUse" id="gradient26" r="819.2" spreadMethod="pad">
      <stop offset="0.0" stop-color="#000000"/>
      <stop offset="1.0" stop-color="#000000"/>
    </radialGradient>
    <radialGradient cx="0" cy="0" gradientTransform="matrix(0.0188, 0.0, 0.0, 0.0188, -198.1, -7.05)" gradientUnits="userSpaceOnUse" id="gradient27" r="819.2" spreadMethod="pad">
      <stop offset="0.0" stop-color="#393939"/>
      <stop offset="1.0" stop-color="#000000"/>
    </radialGradient>
    <radialGradient cx="0" cy="0" gradientTransform="matrix(0.0305, 0.0, 0.0, 0.0305, -217.05, -7.05)" gradientUnits="userSpaceOnUse" id="gradient28" r="819.2" spreadMethod="pad">
      <stop offset="0.0" stop-color="#4d4d4d"/>
      <stop offset="1.0" stop-color="#040404"/>
    </radialGradient>
    <radialGradient cx="0" cy="0" gradientTransform="matrix(0.0079, 0.0, 0.0, 0.0079, -233.35, -1.0)" gradientUnits="userSpaceOnUse" id="gradient29" r="819.2" spreadMethod="pad">
      <stop offset="0.0" stop-color="#000000"/>
      <stop offset="1.0" stop-color="#000000"/>
    </radialGradient>
    <radialGradient cx="0" cy="0" gradientTransform="matrix(0.011, 0.0, 0.0, 0.011, -224.75, -1.0)" gradientUnits="userSpaceOnUse" id="gradient30" r="819.2" spreadMethod="pad">
      <stop offset="0.0" stop-color="#070707"/>
      <stop offset="1.0" stop-color="#020202"/>
    </radialGradient>
    <radialGradient cx="0" cy="0" gradientTransform="matrix(0.0116, 0.0, 0.0, 0.0116, -195.35, -1.0)" gradientUnits="userSpaceOnUse" id="gradient31" r="819.2" spreadMethod="pad">
      <stop offset="0.0" stop-color="#0a0a0a"/>
      <stop offset="1.0" stop-color="#000000"/>
    </radialGradient>
  </defs>
</svg>
