<?xml version="1.0" encoding="UTF-8" standalone="no"?>
<svg xmlns:xlink="http://www.w3.org/1999/xlink" height="299.1px" width="258.25px" xmlns="http://www.w3.org/2000/svg">
  <g transform="matrix(1.0, 0.0, 0.0, 1.0, 400.0, 300.0)">
    <path d="M-249.75 -300.0 L-178.0 -300.0 -183.15 -282.9 -183.9 -261.9 -186.75 -239.4 -190.15 -219.15 -222.25 -222.5 -253.9 -227.15 -249.65 -291.4 -249.75 -300.0" fill="url(#gradient0)" fill-rule="evenodd" stroke="none"/>
    <path d="M-178.0 -300.0 L-162.75 -300.0 -171.0 -225.65 -172.25 -224.65 -190.15 -219.15 -186.75 -239.4 -183.9 -261.9 -183.15 -282.9 -178.0 -300.0" fill="url(#gradient1)" fill-rule="evenodd" stroke="none"/>
    <path d="M-165.0 -121.75 L-165.15 -121.5 -167.4 -116.0 -186.5 -90.65 -188.65 -88.25 -215.0 -90.5 -215.0 -90.9 -214.75 -91.5 -214.65 -92.0 -200.9 -137.0 -196.75 -179.5 -190.15 -219.15 -172.25 -224.65 -171.0 -225.65 -170.0 -222.9 -160.5 -193.0 -160.65 -192.5 -157.65 -183.9 -153.25 -151.65 -165.0 -121.75" fill="url(#gradient2)" fill-rule="evenodd" stroke="none"/>
    <path d="M-162.75 -300.0 L-161.4 -300.0 -169.15 -228.9 -170.0 -222.9 -171.0 -225.65 -162.75 -300.0" fill="url(#gradient3)" fill-rule="evenodd" stroke="none"/>
    <path d="M-161.4 -300.0 L-158.9 -300.0 -166.75 -229.75 -167.65 -229.0 -169.15 -228.9 -161.4 -300.0" fill="url(#gradient4)" fill-rule="evenodd" stroke="none"/>
    <path d="M-166.75 -229.75 L-152.5 -192.5 -149.15 -162.75 -149.15 -161.75 -152.5 -153.4 -160.75 -127.4 -165.0 -121.75 -153.25 -151.65 -157.65 -183.9 -160.65 -192.5 -160.5 -193.0 -170.0 -222.9 -169.15 -228.9 -167.65 -229.0 -166.75 -229.75" fill="url(#gradient5)" fill-rule="evenodd" stroke="none"/>
    <path d="M-263.5 -230.4 L-262.25 -251.25 -255.75 -271.4 -254.4 -293.4 -255.75 -300.0 -249.75 -300.0 -249.65 -291.4 -253.9 -227.15 -263.5 -230.4" fill="url(#gradient6)" fill-rule="evenodd" stroke="none"/>
    <path d="M-292.15 -112.9 L-268.15 -145.5 -263.5 -230.4 -253.9 -227.15 -262.0 -178.25 -265.25 -154.25 -266.75 -132.75 -292.15 -112.9" fill="url(#gradient7)" fill-rule="evenodd" stroke="none"/>
    <path d="M-292.75 -112.25 L-292.15 -112.9 -266.75 -132.75 -246.9 -141.4 -227.5 -136.75 -212.5 -137.65 -214.9 -93.0 -217.0 -100.25 -218.5 -104.0 -219.65 -103.15 -225.15 -96.65 -215.0 -91.25 -215.0 -90.9 -215.0 -90.5 -276.75 -75.25 Q-289.45 -81.85 -302.15 -88.5 L-312.15 -91.9 -292.75 -112.25" fill="url(#gradient8)" fill-rule="evenodd" stroke="none"/>
    <path d="M-253.9 -227.15 L-222.25 -222.5 -190.15 -219.15 -196.75 -179.5 -200.9 -137.0 -214.65 -92.0 -214.9 -93.0 -212.5 -137.65 -227.5 -136.75 -246.9 -141.4 -266.75 -132.75 -265.25 -154.25 -262.0 -178.25 -253.9 -227.15 M-215.0 -91.25 L-214.75 -91.5 -215.0 -90.9 -215.0 -91.25" fill="url(#gradient9)" fill-rule="evenodd" stroke="none"/>
    <path d="M-400.0 -57.4 L-399.75 -61.15 -384.15 -67.65 -383.9 -67.75 -383.65 -67.9 -383.65 -67.75 -383.9 -67.75 -383.9 -67.65 -384.15 -67.65 -384.25 -67.5 -384.5 -67.4 -384.75 -67.25 -385.0 -67.15 -385.15 -67.0 -386.0 -66.65 -385.75 -66.5 -374.15 -70.65 -400.0 -57.4 M-214.9 -93.0 L-214.65 -92.0 -214.75 -91.5 -215.0 -91.25 -225.15 -96.65 -219.65 -103.15 -218.5 -104.0 -217.0 -100.25 -214.9 -93.0 M-214.5 -89.9 L-214.0 -86.0 -215.15 -82.4 -216.0 -82.0 -222.65 -81.4 -214.65 -90.0 -214.5 -89.9" fill="url(#gradient10)" fill-rule="evenodd" stroke="none"/>
    <path d="M-186.5 -90.65 L-184.9 -76.0 -189.0 -38.75 -198.25 -2.65 -198.25 -2.4 -198.65 -2.15 -198.9 -0.9 -209.4 -0.9 -211.25 -7.0 -212.15 -51.5 -209.15 -82.4 -207.75 -83.15 -200.9 -80.15 -205.65 -83.75 -188.65 -88.25 -186.5 -90.65" fill="url(#gradient11)" fill-rule="evenodd" stroke="none"/>
    <path d="M-214.0 -89.65 L-214.5 -89.9 -214.65 -90.0 -215.0 -90.5 -188.65 -88.25 -205.65 -83.75 -214.0 -89.65" fill="url(#gradient12)" fill-rule="evenodd" stroke="none"/>
    <path d="M-400.0 -35.25 L-400.0 -57.4 -374.15 -70.65 -385.75 -66.5 -386.0 -66.65 -385.15 -67.0 -385.0 -67.15 -384.75 -67.25 -384.5 -67.4 -384.25 -67.5 -384.15 -67.65 -383.9 -67.65 -383.9 -67.75 -383.65 -67.75 -383.65 -67.9 -383.4 -67.9 -383.15 -68.0 -382.9 -68.15 -351.0 -84.0 -329.5 -93.0 -292.75 -112.25 -312.15 -91.9 -302.15 -88.5 Q-289.45 -81.85 -276.75 -75.25 L-322.5 -77.65 -342.9 -64.65 -343.4 -64.0 -347.4 -62.25 -400.0 -35.25" fill="url(#gradient13)" fill-rule="evenodd" stroke="none"/>
    <path d="M-245.5 -61.65 L-249.5 -60.9 -276.75 -75.25 -215.0 -90.5 -214.65 -90.0 -222.65 -81.4 -216.0 -82.0 -215.15 -82.4 -214.0 -86.0 -214.5 -89.9 -214.0 -89.65 -207.75 -83.15 -209.15 -82.4 -244.25 -62.25 -245.5 -61.65" fill="url(#gradient14)" fill-rule="evenodd" stroke="none"/>
    <path d="M-207.75 -83.15 L-214.0 -89.65 -205.65 -83.75 -200.9 -80.15 -207.75 -83.15" fill="url(#gradient15)" fill-rule="evenodd" stroke="none"/>
    <path d="M-209.4 -0.9 L-248.75 -0.9 -248.75 -1.0 -248.65 -2.65 -247.4 -14.9 -247.5 -17.75 -244.25 -62.25 -209.15 -82.4 -212.15 -51.5 -211.25 -7.0 -209.4 -0.9" fill="url(#gradient16)" fill-rule="evenodd" stroke="none"/>
    <path d="M-248.4 -25.15 L-249.75 -49.4 -249.65 -58.25 -245.5 -61.65 -244.25 -62.25 -247.5 -17.75 -248.4 -25.15" fill="url(#gradient17)" fill-rule="evenodd" stroke="none"/>
    <path d="M-249.65 -58.25 L-310.65 -11.15 -331.25 -0.9 -400.0 -0.9 -400.0 -35.25 -347.4 -62.25 -343.4 -64.0 -342.9 -64.65 -322.5 -77.65 -276.75 -75.25 -249.5 -60.9 -245.5 -61.65 -249.65 -58.25" fill="url(#gradient18)" fill-rule="evenodd" stroke="none"/>
    <path d="M-248.65 -2.65 L-248.4 -25.15 -247.5 -17.75 -247.4 -14.9 -248.65 -2.65" fill="url(#gradient19)" fill-rule="evenodd" stroke="none"/>
    <path d="M-198.25 -2.4 L-198.5 -0.9 -198.9 -0.9 -198.65 -2.15 -198.25 -2.4" fill="url(#gradient20)" fill-rule="evenodd" stroke="none"/>
    <path d="M-197.15 -0.9 L-198.5 -0.9 -198.65 -1.15 -198.65 -1.4 -198.5 -1.65 -198.5 -1.75 -198.4 -2.4 -198.4 -2.65 -197.9 -4.65 -197.75 -4.65 -197.15 -0.9 M-260.0 -300.0 L-255.75 -300.0 -254.4 -293.5 -255.75 -271.65 -259.5 -260.25 -257.75 -290.15 -260.0 -300.0" fill="#ee0000" fill-rule="evenodd" stroke="none"/>
    <path d="M-198.5 -0.9 L-220.15 -0.9 -222.0 -5.75 -222.25 -6.25 -222.15 -6.5 -222.15 -6.9 -226.0 -16.9 -232.15 -29.0 -232.4 -30.0 -238.65 -42.4 -239.4 -44.4 -241.4 -48.0 -241.65 -49.0 -243.0 -51.4 -243.15 -51.9 -244.65 -54.65 -244.75 -55.5 -247.0 -59.5 -247.4 -60.0 -247.25 -60.15 -247.65 -61.15 -247.9 -61.4 -248.0 -61.75 -258.65 -83.4 -258.75 -83.9 -222.65 -70.75 -222.4 -70.5 -216.5 -68.5 -216.4 -68.25 -215.0 -65.9 -211.4 -59.15 -211.25 -58.25 -210.75 -57.9 -204.0 -44.75 -203.4 -43.9 -202.0 -41.4 -201.5 -39.9 -199.5 -22.65 -199.75 -22.0 -198.65 -15.0 -198.75 -14.0 -197.75 -7.4 -197.9 -5.65 -197.75 -5.4 -197.75 -4.65 -197.9 -4.65 -198.4 -2.65 -198.4 -2.4 -198.5 -1.75 -198.5 -1.65 -198.65 -1.4 -198.65 -1.15 -198.5 -0.9 M-255.75 -300.0 L-174.65 -300.0 -178.75 -286.9 -179.0 -286.4 -181.0 -279.25 -181.5 -263.65 -181.65 -263.15 -181.65 -260.5 -181.9 -260.0 -181.75 -259.65 -181.75 -257.4 -183.75 -241.0 -183.9 -240.65 -183.9 -240.0 -184.4 -237.15 -184.5 -237.15 -184.4 -236.75 -184.4 -236.25 -186.5 -220.75 -186.65 -220.15 -186.65 -219.75 -187.15 -216.25 -187.4 -215.75 -187.25 -215.4 -188.0 -210.0 -188.15 -209.5 -222.9 -213.25 -261.25 -219.4 -260.4 -245.4 -260.5 -246.65 -259.75 -258.75 -259.5 -260.25 -255.75 -271.65 -254.4 -293.5 -255.75 -300.0" fill="#dd0000" fill-opacity="0.9098039" fill-rule="evenodd" stroke="none"/>
    <path d="M-174.65 -300.0 L-163.75 -299.9 -162.75 -300.0 -161.4 -299.75 -160.0 -299.9 -159.65 -300.0 -158.9 -300.0 -159.0 -299.25 -159.0 -298.25 -160.0 -288.65 -160.75 -284.65 -160.65 -284.0 -160.9 -283.9 -161.25 -278.25 -161.4 -277.4 -161.4 -276.65 -161.75 -275.5 -161.65 -275.25 -163.4 -261.5 -163.4 -261.15 -163.25 -260.5 -163.5 -260.4 -165.15 -242.65 -165.25 -242.25 -165.9 -238.65 -165.75 -237.9 -166.0 -237.75 -166.9 -229.65 -164.25 -223.4 -163.4 -221.15 -163.4 -220.75 -163.9 -220.25 -164.0 -220.0 -164.4 -219.5 -166.4 -217.5 -167.9 -216.15 -168.9 -215.9 -169.5 -215.65 -188.15 -209.5 -188.0 -210.0 -187.25 -215.4 -187.4 -215.75 -187.15 -216.25 -186.65 -219.75 -186.65 -220.15 -186.5 -220.75 -184.4 -236.25 -184.4 -236.75 -184.5 -237.15 -184.4 -237.15 -183.9 -240.0 -183.9 -240.65 -183.75 -241.0 -181.75 -257.4 -181.75 -259.65 -181.9 -260.0 -181.65 -260.5 -181.65 -263.15 -181.5 -263.65 -181.0 -279.25 -179.0 -286.4 -178.75 -286.9 -174.65 -300.0" fill="#a80000" fill-opacity="0.9098039" fill-rule="evenodd" stroke="none"/>
    <path d="M-188.15 -209.5 L-169.5 -215.65 -168.9 -215.9 -167.9 -216.15 -166.4 -217.5 -165.65 -214.75 -165.4 -214.15 -165.4 -214.0 -163.5 -206.5 -163.25 -206.0 -163.25 -205.9 -154.9 -175.15 -152.65 -155.9 -152.25 -154.4 -152.25 -154.15 -152.4 -154.0 -152.4 -153.15 -153.15 -151.65 -153.75 -149.75 -154.0 -149.15 -154.0 -149.0 -153.9 -148.75 -160.65 -128.5 -161.0 -127.15 -165.15 -121.75 -167.4 -116.25 -181.25 -97.4 -182.15 -96.4 -185.25 -92.4 -186.65 -90.4 -184.9 -76.15 -185.15 -75.4 -186.25 -73.4 -186.9 -72.9 -186.9 -72.4 -187.15 -72.15 -187.9 -70.9 -187.9 -70.0 -188.25 -56.4 -201.9 -62.15 -202.65 -62.65 -215.9 -68.25 -216.4 -68.25 -216.5 -68.5 -216.25 -69.25 -214.15 -75.15 -214.25 -75.65 -212.75 -80.4 -212.4 -80.65 -200.15 -120.0 -199.0 -130.4 -199.15 -132.15 -196.65 -155.15 -196.75 -155.5 -193.4 -178.9 -188.15 -209.5" fill="#db0000" fill-opacity="0.9098039" fill-rule="evenodd" stroke="none"/>
    <path d="M-254.9 -54.4 L-249.65 -58.25 -249.75 -52.4 -248.5 -28.9 -248.4 -28.5 -248.25 -26.65 -248.9 -9.25 -255.0 -54.15 -254.9 -54.4 M-166.4 -217.5 L-164.4 -219.5 -164.0 -220.0 -163.9 -220.25 -163.4 -220.75 -152.75 -192.25 -149.15 -162.4 -149.4 -161.65 -150.0 -165.9 -150.0 -166.15 -150.15 -166.5 -150.15 -166.9 -150.25 -167.25 -151.4 -173.4 -153.15 -177.65 -153.65 -180.0 -160.65 -200.9 -161.75 -203.4 -165.4 -214.0 -165.4 -214.15 -165.65 -214.75 -166.4 -217.5" fill="#bf0000" fill-opacity="0.9098039" fill-rule="evenodd" stroke="none"/>
    <path d="M-161.9 -222.75 L-145.75 -183.25 -141.75 -149.75 -146.0 -137.9 -149.5 -160.65 -149.5 -161.4 -149.4 -161.65 -149.15 -162.4 -152.75 -192.25 -163.4 -220.75 -163.4 -221.15 -161.9 -222.75 M-151.4 -122.0 L-151.25 -121.75 -154.75 -111.65 -157.65 -107.15 -151.4 -122.0" fill="#d00000" fill-rule="evenodd" stroke="none"/>
    <path d="M-163.4 -221.15 L-164.25 -223.4 -161.9 -222.75 -163.4 -221.15" fill="#b90000" fill-rule="evenodd" stroke="none"/>
    <path d="M-155.15 -300.0 L-152.75 -300.0 -152.65 -299.25 -161.9 -222.75 -164.25 -223.4 -166.9 -229.65 -166.0 -237.75 -165.75 -237.9 -165.9 -238.65 -165.25 -242.25 -165.0 -242.4 -165.15 -242.65 -164.75 -243.65 -161.75 -265.5 -161.4 -276.65 -161.4 -277.4 -161.25 -278.25 -160.9 -283.9 -160.65 -284.0 -160.75 -284.65 -160.0 -288.65 -156.9 -300.0 -156.25 -300.0 -156.5 -296.25 -155.9 -296.25 -155.15 -300.0" fill="#b70000" fill-rule="evenodd" stroke="none"/>
    <path d="M-158.9 -300.0 L-156.9 -300.0 -160.0 -288.65 -159.0 -298.25 -159.0 -299.25 -158.9 -300.0 M-165.15 -242.65 L-163.5 -260.4 -163.25 -260.5 -163.4 -261.15 -163.4 -261.5 -161.65 -275.25 -161.75 -275.5 -161.4 -276.65 -161.75 -265.5 -164.75 -243.65 -165.15 -242.65 -165.0 -242.4 -165.25 -242.25 -165.15 -242.65" fill="#be0000" fill-rule="evenodd" stroke="none"/>
    <path d="M-156.25 -300.0 L-155.15 -300.0 -155.9 -296.25 -156.5 -296.25 -156.25 -300.0 M-216.4 -68.25 L-215.9 -68.25 -202.65 -62.65 -201.9 -62.15 -188.25 -56.4 -188.15 -56.25 -188.0 -55.15 -188.25 -53.75 -188.0 -49.75 -188.25 -44.4 -188.9 -41.9 -189.0 -38.75 -189.75 -36.5 -189.65 -36.25 -192.75 -24.5 -193.15 -24.75 -193.15 -25.5 -193.9 -26.5 -193.9 -26.9 -200.15 -41.25 -202.15 -45.4 -202.25 -45.65 -202.4 -45.9 -202.5 -46.65 -211.0 -59.75 -211.25 -60.5 -215.0 -65.9 -216.4 -68.25" fill="#ab0000" fill-opacity="0.9098039" fill-rule="evenodd" stroke="none"/>
    <path d="M-146.0 -137.9 L-146.0 -137.0 -145.9 -136.75 -146.5 -135.5 -146.65 -135.25 -146.5 -135.0 -151.4 -122.0 -157.65 -107.15 -159.25 -104.0 -159.15 -103.75 -161.75 -97.65 -175.75 -74.75 -176.0 -74.0 -184.25 -60.4 -184.65 -60.25 -184.75 -59.5 -186.5 -57.15 -184.65 -61.65 -184.5 -62.15 -186.0 -65.65 -186.15 -66.5 -186.75 -67.4 -186.9 -68.0 -187.0 -68.0 -187.25 -68.9 -187.9 -70.0 -187.9 -70.9 -187.15 -72.15 -186.9 -72.4 -186.9 -72.9 -186.25 -73.4 -185.15 -75.4 -178.75 -85.15 -182.15 -89.9 -181.9 -92.4 -181.25 -97.4 -167.4 -116.25 -165.15 -121.75 -161.0 -127.15 -160.65 -128.5 -153.9 -148.75 -154.0 -149.0 -154.0 -149.15 -153.75 -149.75 -153.15 -151.65 -152.4 -153.15 -152.4 -154.0 -152.25 -154.15 -152.25 -154.4 -152.65 -155.9 -154.9 -175.15 -163.25 -205.9 -163.25 -206.0 -163.5 -206.5 -165.4 -214.0 -161.75 -203.4 -160.65 -200.9 -153.65 -180.0 -153.15 -177.65 -151.4 -173.4 -150.25 -167.25 -150.15 -166.9 -150.15 -166.5 -150.0 -166.15 -150.0 -165.9 -149.4 -161.65 -149.5 -161.4 -149.5 -160.65 -146.0 -137.9" fill="#ec0000" fill-rule="evenodd" stroke="none"/>
    <path d="M-192.0 -0.9 L-192.65 -0.9 -195.15 -13.0 -195.5 -13.5 -195.65 -14.15 -192.9 -23.5 -192.25 -23.0 -190.75 -19.9 -190.75 -13.75 -190.75 -12.15 -190.75 -11.5 -192.0 -0.9 M-272.0 -223.25 L-271.25 -245.75 -264.25 -266.9 -263.9 -268.9 -262.65 -291.75 -264.5 -299.65 -264.5 -300.0 -260.0 -300.0 -257.75 -290.15 -259.5 -260.25 -259.75 -258.75 -262.25 -251.0 -263.5 -228.75 -263.75 -227.0 -272.0 -223.25" fill="#ac0000" fill-rule="evenodd" stroke="none"/>
    <path d="M-190.25 -0.9 L-192.0 -0.9 -190.75 -11.5 -190.75 -12.15 -190.25 -0.9 M-308.4 -107.0 L-281.25 -129.0 -281.15 -129.4 -281.15 -129.5 -275.4 -153.4 -272.0 -223.25 -263.75 -227.0 -263.65 -227.0 -264.15 -220.5 -264.0 -220.4 -265.15 -197.75 -265.5 -193.5 -270.9 -163.0 -274.15 -139.0 -279.0 -131.25 -279.0 -131.15 -279.75 -130.5 -280.15 -129.5 -280.25 -129.25 -280.25 -129.15 -281.5 -127.75 -281.65 -127.5 -281.65 -127.25 -281.9 -126.9 -308.4 -107.0" fill="#ab0000" fill-rule="evenodd" stroke="none"/>
    <path d="M-263.75 -227.0 L-263.5 -228.75 -262.25 -251.0 -259.75 -258.75 -260.5 -246.65 -260.4 -245.4 -261.25 -219.4 -262.75 -211.65 -263.0 -208.25 -265.15 -197.75 -264.0 -220.4 -264.15 -220.5 -263.65 -227.0 -263.75 -227.0 M-200.4 -37.75 L-195.25 -28.0 -194.15 -26.25 -194.15 -25.9 -193.4 -24.75 -193.25 -24.65 -193.25 -24.15 -192.9 -23.9 -192.9 -23.5 -195.65 -14.15 -195.65 -14.75 -195.5 -15.25 -195.65 -15.5 -196.75 -19.4 -196.65 -20.0 -197.75 -24.65 -197.75 -25.0 -200.4 -37.75" fill="#9b0000" fill-opacity="0.9098039" fill-rule="evenodd" stroke="none"/>
    <path d="M-261.25 -219.4 L-222.9 -213.25 -188.15 -209.5 -193.4 -178.9 -196.75 -155.5 -196.65 -155.15 -199.15 -132.15 -199.0 -130.4 -200.15 -120.0 -212.4 -80.65 -212.75 -80.4 -214.25 -75.65 -214.15 -75.15 -216.25 -69.25 -215.75 -78.15 -216.0 -78.4 -216.0 -78.65 -215.9 -78.9 -215.65 -84.5 -215.65 -84.75 -215.4 -87.4 -215.5 -89.0 -215.25 -89.5 -215.5 -89.9 -215.25 -90.4 -215.15 -90.5 -215.25 -90.65 -215.25 -91.25 -215.4 -91.4 -215.15 -92.65 -215.25 -94.4 -213.9 -119.9 -230.25 -118.65 -231.5 -118.9 -255.0 -132.75 -255.9 -132.65 -256.25 -132.4 -270.75 -129.5 -271.0 -129.4 -281.5 -127.25 -281.65 -127.25 -280.25 -129.15 -280.25 -129.25 -280.15 -129.5 -279.75 -129.65 -279.75 -129.75 -279.0 -130.65 -279.0 -130.9 -278.75 -131.15 -278.75 -131.25 -278.25 -131.65 -268.25 -145.15 -267.15 -162.75 -266.9 -164.25 -265.5 -193.5 -265.15 -197.75 -263.0 -208.25 -262.75 -211.65 -261.25 -219.4" fill="#d80000" fill-opacity="0.9098039" fill-rule="evenodd" stroke="none"/>
    <path d="M-276.25 -0.9 L-331.15 -0.9 -310.5 -11.25 -310.5 -11.4 -304.5 -16.0 -304.15 -16.15 -303.9 -16.5 -303.5 -16.65 -303.4 -16.9 -302.9 -17.15 -302.75 -17.4 -302.25 -17.65 -302.25 -17.75 -272.4 -40.65 -276.25 -0.9 M-216.25 -69.25 L-216.5 -68.5 -222.4 -70.5 -222.65 -70.75 -258.75 -83.9 -291.9 -98.75 -307.15 -103.15 -307.4 -103.5 -309.0 -103.75 -294.5 -111.4 -294.4 -111.4 -294.15 -111.5 -292.75 -112.25 -292.4 -112.5 -292.15 -112.9 -281.9 -126.9 -281.65 -127.25 -281.5 -127.25 -271.0 -129.4 -270.75 -129.5 -256.25 -132.4 -255.9 -132.65 -255.0 -132.75 -231.5 -118.9 -230.25 -118.65 -213.9 -119.9 -215.25 -94.4 -215.15 -92.65 -215.4 -91.4 -215.25 -91.25 -215.25 -90.65 -215.15 -90.5 -215.25 -90.4 -215.5 -89.9 -215.25 -89.5 -215.5 -89.0 -215.4 -87.4 -215.65 -84.75 -215.65 -84.5 -215.9 -78.9 -216.0 -78.65 -216.0 -78.4 -215.75 -78.15 -216.25 -69.25" fill="#c70000" fill-opacity="0.9098039" fill-rule="evenodd" stroke="none"/>
    <path d="M-265.5 -193.5 L-266.9 -164.25 -267.15 -162.75 -268.25 -145.15 -278.25 -131.65 -278.75 -131.25 -278.75 -131.15 -279.0 -130.9 -279.0 -130.65 -279.75 -129.75 -279.75 -129.65 -280.15 -129.5 -279.75 -130.5 -279.0 -131.15 -279.0 -131.25 -274.15 -139.0 -270.9 -163.0 -265.5 -193.5 M-280.25 -129.15 L-281.65 -127.25 -281.65 -127.5 -281.5 -127.75 -280.25 -129.15" fill="#e80000" fill-rule="evenodd" stroke="none"/>
    <path d="M-181.25 -97.4 L-181.9 -92.4 -182.15 -96.4 -181.25 -97.4" fill="#f00000" fill-rule="evenodd" stroke="none"/>
    <path d="M-192.65 -0.9 L-197.15 -0.9 -197.75 -4.65 -197.75 -5.4 -197.9 -5.65 -197.75 -7.4 -198.75 -14.0 -198.65 -15.0 -199.75 -22.0 -199.5 -22.65 -201.5 -39.9 -202.0 -41.4 -203.4 -43.9 -204.0 -44.75 -210.75 -57.9 -211.25 -58.25 -211.4 -59.15 -215.0 -65.9 -211.25 -60.5 -211.0 -59.75 -202.5 -46.65 -202.4 -45.9 -202.25 -45.65 -202.15 -45.4 -202.0 -43.75 -201.9 -43.4 -201.9 -43.25 -201.5 -42.4 -201.0 -39.4 -200.4 -37.75 -197.75 -25.0 -197.75 -24.65 -196.65 -20.0 -196.75 -19.4 -195.65 -15.5 -195.5 -15.25 -195.65 -14.75 -195.65 -14.15 -195.5 -13.5 -195.15 -13.0 -192.65 -0.9 M-181.9 -92.4 L-182.15 -89.9 -185.25 -92.4 -182.15 -96.4 -181.9 -92.4" fill="#ef0000" fill-rule="evenodd" stroke="none"/>
    <path d="M-182.15 -89.9 L-178.75 -85.15 -185.15 -75.4 -184.9 -76.15 -186.65 -90.4 -185.25 -92.4 -182.15 -89.9" fill="#eb0000" fill-rule="evenodd" stroke="none"/>
    <path d="M-311.65 -104.4 L-309.5 -106.15 -309.25 -106.4 -308.5 -107.0 -308.4 -107.0 -281.9 -126.9 -292.15 -112.9 -292.4 -112.5 -292.75 -112.25 -294.15 -111.5 -294.4 -111.4 -294.5 -111.4 -309.0 -103.75 -309.25 -103.75 -311.4 -104.25 -311.65 -104.4" fill="#d70000" fill-rule="evenodd" stroke="none"/>
    <path d="M-309.25 -103.75 L-309.25 -103.65 -309.9 -103.4 -311.4 -104.25 -309.25 -103.75" fill="#c50000" fill-rule="evenodd" stroke="none"/>
    <path d="M-399.9 -61.0 L-400.0 -84.0 -311.65 -104.4 -311.4 -104.25 -309.9 -103.4 -329.5 -93.0 -330.5 -92.65 -330.65 -92.65 -354.0 -82.4 -354.25 -82.25 -354.5 -82.15 -354.75 -82.0 -355.0 -81.9 -355.15 -81.9 -382.9 -68.15 -383.15 -68.0 -383.4 -67.9 -383.65 -67.9 -383.9 -67.75 -384.0 -67.65 -384.25 -67.65 -384.5 -67.5 -384.75 -67.4 -384.9 -67.25 -385.25 -67.15 -385.5 -67.0 -387.0 -66.4 -387.25 -66.25 -387.65 -66.15 -387.9 -66.0 -388.0 -66.0 -388.4 -65.9 -388.65 -65.75 -390.15 -65.15 -390.4 -65.0 -390.75 -64.9 -391.0 -64.75 -391.9 -64.4 -392.15 -64.25 -392.5 -64.15 -392.75 -64.0 -394.25 -63.4 -394.5 -63.25 -394.9 -63.15 -395.15 -63.0 -395.75 -62.75 -395.9 -62.65 -396.0 -62.65 -399.9 -61.0" fill="#c40000" fill-rule="evenodd" stroke="none"/>
    <path d="M-176.0 -74.0 L-174.65 -56.25 -181.15 -0.9 -188.5 -0.9 -185.75 -24.4 -184.65 -56.9 -184.75 -59.5 -184.65 -60.25 -184.25 -60.4 -176.0 -74.0" fill="#ae0000" fill-rule="evenodd" stroke="none"/>
    <path d="M-188.5 -0.9 L-190.25 -0.9 -190.75 -12.15 -190.75 -13.75 -188.15 -35.15 -188.25 -44.4 -188.0 -49.75 -188.25 -53.75 -188.0 -55.15 -188.15 -56.25 -187.5 -56.0 -187.15 -56.0 -186.5 -57.15 -184.75 -59.5 -184.65 -56.9 -185.75 -24.4 -188.5 -0.9" fill="#bb0000" fill-rule="evenodd" stroke="none"/>
    <path d="M-187.9 -70.0 L-187.25 -68.9 -187.0 -68.0 -186.9 -68.0 -186.75 -67.4 -186.15 -66.5 -186.0 -65.65 -184.5 -62.15 -184.65 -61.65 -186.5 -57.15 -187.15 -56.0 -187.5 -56.0 -188.15 -56.25 -188.25 -56.4 -187.9 -70.0" fill="#ea0000" fill-rule="evenodd" stroke="none"/>
    <path d="M-258.65 -83.4 L-256.4 -64.65 -256.25 -64.4 -255.15 -56.15 -255.25 -55.75 -254.9 -54.4 -255.0 -54.15 -272.4 -40.65 -302.25 -17.75 -302.25 -17.65 -302.75 -17.4 -302.9 -17.15 -303.4 -16.9 -303.5 -16.65 -303.9 -16.5 -304.15 -16.15 -304.5 -16.0 -310.5 -11.4 -310.5 -11.25 -331.15 -0.9 -400.0 -1.0 -400.0 -60.0 -399.9 -60.9 -399.9 -61.0 -396.0 -62.65 -395.9 -62.65 -395.75 -62.75 -395.15 -63.0 -394.9 -63.15 -394.5 -63.25 -394.25 -63.4 -392.75 -64.0 -392.5 -64.15 -392.15 -64.25 -391.9 -64.4 -391.0 -64.75 -390.75 -64.9 -390.4 -65.0 -390.15 -65.15 -388.65 -65.75 -388.4 -65.9 -388.0 -66.0 -387.9 -66.0 -387.65 -66.15 -387.25 -66.25 -387.0 -66.4 -385.5 -67.0 -385.25 -67.15 -384.9 -67.25 -384.75 -67.4 -384.5 -67.5 -384.25 -67.65 -384.0 -67.65 -383.9 -67.75 -383.65 -67.9 -383.4 -67.9 -383.15 -68.0 -382.9 -68.15 -355.15 -81.9 -355.0 -81.9 -354.75 -82.0 -354.5 -82.15 -354.25 -82.25 -354.0 -82.4 -330.65 -92.65 -330.5 -92.65 -329.5 -93.0 -309.9 -103.4 -310.25 -101.9 -309.75 -102.0 -307.15 -103.15 -291.9 -98.75 -258.75 -83.9 -258.65 -83.4 M-248.75 -6.4 L-248.5 -5.4 -248.5 -4.5 -247.9 -0.9 -248.9 -0.9 -248.75 -1.25 -248.65 -2.4 -248.75 -6.4" fill="#b50000" fill-opacity="0.9098039" fill-rule="evenodd" stroke="none"/>
    <path d="M-248.9 -9.25 L-248.75 -8.25 -248.75 -6.4 -248.65 -2.4 -248.75 -1.25 -248.9 -0.9 -276.25 -0.9 -272.4 -40.65 -255.0 -54.15 -248.9 -9.25" fill="#c60000" fill-rule="evenodd" stroke="none"/>
    <path d="M-202.15 -45.4 L-200.15 -41.25 -193.9 -26.9 -193.9 -26.5 -193.15 -25.5 -193.15 -24.75 -192.75 -24.5 -192.9 -23.9 -193.25 -24.15 -193.25 -24.65 -193.4 -24.75 -194.15 -25.9 -194.15 -26.25 -195.25 -28.0 -200.4 -37.75 -201.0 -39.4 -201.5 -42.4 -201.9 -43.25 -201.9 -43.4 -202.0 -43.75 -202.15 -45.4 M-192.9 -23.5 L-192.9 -23.9 -192.25 -23.0 -192.9 -23.5" fill="#ad0000" fill-rule="evenodd" stroke="none"/>
    <path d="M-188.25 -44.4 L-188.15 -35.15 -190.75 -13.75 -190.75 -19.9 -192.25 -23.0 -192.9 -23.9 -192.75 -24.5 -189.65 -36.25 -189.75 -36.5 -189.0 -38.75 -188.9 -41.9 -188.25 -44.4" fill="#bc0000" fill-rule="evenodd" stroke="none"/>
  </g>
  <defs>
    <radialGradient cx="0" cy="0" gradientTransform="matrix(0.1226, 0.0, 0.0, 0.1226, -190.05, -219.15)" gradientUnits="userSpaceOnUse" id="gradient0" r="819.2" spreadMethod="pad">
      <stop offset="0.0" stop-color="#666666"/>
      <stop offset="1.0" stop-color="#0e0e0e"/>
    </radialGradient>
    <radialGradient cx="0" cy="0" gradientTransform="matrix(0.0924, 0.0, 0.0, 0.0924, -171.95, -224.9)" gradientUnits="userSpaceOnUse" id="gradient1" r="819.2" spreadMethod="pad">
      <stop offset="0.0" stop-color="#696969"/>
      <stop offset="1.0" stop-color="#070707"/>
    </radialGradient>
    <radialGradient cx="0" cy="0" gradientTransform="matrix(0.1005, 0.0, 0.0, 0.1005, -156.05, -144.85)" gradientUnits="userSpaceOnUse" id="gradient2" r="819.2" spreadMethod="pad">
      <stop offset="0.0" stop-color="#838383"/>
      <stop offset="1.0" stop-color="#444444"/>
    </radialGradient>
    <radialGradient cx="0" cy="0" gradientTransform="matrix(0.1373, 0.0, 0.0, 0.1373, -178.55, -188.8)" gradientUnits="userSpaceOnUse" id="gradient3" r="819.2" spreadMethod="pad">
      <stop offset="0.0" stop-color="#656565"/>
      <stop offset="1.0" stop-color="#232323"/>
    </radialGradient>
    <radialGradient cx="0" cy="0" gradientTransform="matrix(0.0872, 0.0, 0.0, 0.0872, -167.65, -229.1)" gradientUnits="userSpaceOnUse" id="gradient4" r="819.2" spreadMethod="pad">
      <stop offset="0.0" stop-color="#575757"/>
      <stop offset="1.0" stop-color="#000000"/>
    </radialGradient>
    <radialGradient cx="0" cy="0" gradientTransform="matrix(0.1127, 0.0, 0.0, 0.1127, -154.4, -189.7)" gradientUnits="userSpaceOnUse" id="gradient5" r="819.2" spreadMethod="pad">
      <stop offset="0.0" stop-color="#6a6a6a"/>
      <stop offset="1.0" stop-color="#000000"/>
    </radialGradient>
    <radialGradient cx="0" cy="0" gradientTransform="matrix(0.0543, 0.0, 0.0, 0.0543, -255.7, -271.7)" gradientUnits="userSpaceOnUse" id="gradient6" r="819.2" spreadMethod="pad">
      <stop offset="0.0" stop-color="#000000"/>
      <stop offset="1.0" stop-color="#000000"/>
    </radialGradient>
    <radialGradient cx="0" cy="0" gradientTransform="matrix(0.0966, 0.0, 0.0, 0.0966, -265.65, -187.05)" gradientUnits="userSpaceOnUse" id="gradient7" r="819.2" spreadMethod="pad">
      <stop offset="0.0" stop-color="#000000"/>
      <stop offset="1.0" stop-color="#000000"/>
    </radialGradient>
    <radialGradient cx="0" cy="0" gradientTransform="matrix(0.1186, 0.0, 0.0, 0.1186, -215.0, -90.55)" gradientUnits="userSpaceOnUse" id="gradient8" r="819.2" spreadMethod="pad">
      <stop offset="0.0" stop-color="#464646"/>
      <stop offset="1.0" stop-color="#000000"/>
    </radialGradient>
    <radialGradient cx="0" cy="0" gradientTransform="matrix(0.0917, 0.0, 0.0, 0.0917, -225.6, -157.6)" gradientUnits="userSpaceOnUse" id="gradient9" r="819.2" spreadMethod="pad">
      <stop offset="0.0" stop-color="#6e6e6e"/>
      <stop offset="1.0" stop-color="#232323"/>
    </radialGradient>
    <radialGradient cx="0" cy="0" gradientTransform="matrix(0.1786, 0.0, 0.0, 0.1786, -254.3, -67.2)" gradientUnits="userSpaceOnUse" id="gradient10" r="819.2" spreadMethod="pad">
      <stop offset="0.0" stop-color="#737373"/>
      <stop offset="1.0" stop-color="#000000"/>
    </radialGradient>
    <radialGradient cx="0" cy="0" gradientTransform="matrix(0.0909, 0.0, 0.0, 0.0909, -186.8, -71.95)" gradientUnits="userSpaceOnUse" id="gradient11" r="819.2" spreadMethod="pad">
      <stop offset="0.0" stop-color="#494949"/>
      <stop offset="1.0" stop-color="#161616"/>
    </radialGradient>
    <radialGradient cx="0" cy="0" gradientTransform="matrix(0.0325, 0.0, 0.0, 0.0325, -215.0, -90.55)" gradientUnits="userSpaceOnUse" id="gradient12" r="819.2" spreadMethod="pad">
      <stop offset="0.0" stop-color="#464646"/>
      <stop offset="1.0" stop-color="#2c2c2c"/>
    </radialGradient>
    <radialGradient cx="0" cy="0" gradientTransform="matrix(0.1583, 0.0, 0.0, 0.1583, -276.7, -75.35)" gradientUnits="userSpaceOnUse" id="gradient13" r="819.2" spreadMethod="pad">
      <stop offset="0.0" stop-color="#0e0e0e"/>
      <stop offset="1.0" stop-color="#000000"/>
    </radialGradient>
    <radialGradient cx="0" cy="0" gradientTransform="matrix(0.0576, 0.0, 0.0, 0.0576, -249.25, -60.85)" gradientUnits="userSpaceOnUse" id="gradient14" r="819.2" spreadMethod="pad">
      <stop offset="0.0" stop-color="#7f7f7f"/>
      <stop offset="1.0" stop-color="#2e2e2e"/>
    </radialGradient>
    <radialGradient cx="0" cy="0" gradientTransform="matrix(0.0219, 0.0, 0.0, 0.0219, -215.0, -90.55)" gradientUnits="userSpaceOnUse" id="gradient15" r="819.2" spreadMethod="pad">
      <stop offset="0.0" stop-color="#464646"/>
      <stop offset="1.0" stop-color="#000000"/>
    </radialGradient>
    <radialGradient cx="0" cy="0" gradientTransform="matrix(0.1094, 0.0, 0.0, 0.1094, -219.8, -85.9)" gradientUnits="userSpaceOnUse" id="gradient16" r="819.2" spreadMethod="pad">
      <stop offset="0.0" stop-color="#575757"/>
      <stop offset="1.0" stop-color="#010101"/>
    </radialGradient>
    <radialGradient cx="0" cy="0" gradientTransform="matrix(0.0455, 0.0, 0.0, 0.0455, -249.85, -53.2)" gradientUnits="userSpaceOnUse" id="gradient17" r="819.2" spreadMethod="pad">
      <stop offset="0.0" stop-color="#000000"/>
      <stop offset="1.0" stop-color="#000000"/>
    </radialGradient>
    <radialGradient cx="0" cy="0" gradientTransform="matrix(0.198, 0.0, 0.0, 0.198, -249.25, -60.85)" gradientUnits="userSpaceOnUse" id="gradient18" r="819.2" spreadMethod="pad">
      <stop offset="0.0" stop-color="#7f7f7f"/>
      <stop offset="1.0" stop-color="#161616"/>
    </radialGradient>
    <radialGradient cx="0" cy="0" gradientTransform="matrix(0.0322, 0.0, 0.0, 0.0322, -248.65, -1.0)" gradientUnits="userSpaceOnUse" id="gradient19" r="819.2" spreadMethod="pad">
      <stop offset="0.0" stop-color="#000000"/>
      <stop offset="1.0" stop-color="#000000"/>
    </radialGradient>
    <radialGradient cx="0" cy="0" gradientTransform="matrix(0.0025, 0.0, 0.0, 0.0025, -198.25, -3.0)" gradientUnits="userSpaceOnUse" id="gradient20" r="819.2" spreadMethod="pad">
      <stop offset="0.0" stop-color="#000000"/>
      <stop offset="1.0" stop-color="#000000"/>
    </radialGradient>
  </defs>
</svg>
