<?xml version="1.0" encoding="UTF-8" standalone="no"?>
<svg xmlns:xlink="http://www.w3.org/1999/xlink" height="299.1px" width="256.85px" xmlns="http://www.w3.org/2000/svg">
  <g transform="matrix(1.0, 0.0, 0.0, 1.0, 400.0, 300.0)">
    <path d="M-249.9 -300.0 L-176.25 -300.0 -183.0 -278.0 -183.75 -256.9 -186.5 -235.15 -190.0 -214.0 -223.65 -217.5 -254.15 -221.9 -249.9 -285.25 -249.9 -300.0" fill="url(#gradient0)" fill-rule="evenodd" stroke="none"/>
    <path d="M-176.25 -300.0 L-163.0 -300.0 -165.15 -277.65 -165.5 -277.4 -168.0 -254.15 -167.75 -253.65 Q-168.5 -253.4 -168.65 -248.9 L-171.5 -220.65 -172.75 -219.65 -190.0 -214.0 -186.5 -235.15 -183.75 -256.9 -183.0 -278.0 -176.25 -300.0" fill="url(#gradient1)" fill-rule="evenodd" stroke="none"/>
    <path d="M-153.75 -147.4 L-156.75 -138.4 -156.75 -138.25 -156.9 -138.0 -156.9 -137.9 -164.15 -119.75 -167.4 -111.65 -187.9 -84.4 -188.5 -83.9 -214.15 -85.65 -214.25 -86.0 -214.15 -86.75 -214.0 -87.15 -200.25 -132.4 -196.4 -171.5 -196.4 -174.25 -190.0 -214.0 -172.75 -219.65 -171.5 -220.65 -170.75 -218.65 -158.0 -178.65 -154.15 -148.25 -153.75 -147.4" fill="url(#gradient2)" fill-rule="evenodd" stroke="none"/>
    <path d="M-163.0 -300.0 L-161.65 -300.0 -170.0 -224.0 -170.75 -218.65 -171.5 -220.65 -168.65 -248.9 Q-168.5 -253.4 -167.75 -253.65 L-168.0 -254.15 -165.5 -277.4 -165.15 -277.65 -163.0 -300.0" fill="url(#gradient3)" fill-rule="evenodd" stroke="none"/>
    <path d="M-161.65 -300.0 L-159.75 -300.0 -159.65 -299.15 -167.9 -225.0 -169.0 -224.15 -170.0 -224.0 -161.65 -300.0" fill="url(#gradient4)" fill-rule="evenodd" stroke="none"/>
    <path d="M-167.9 -225.0 L-153.9 -188.25 -150.4 -158.0 -153.75 -147.4 -154.15 -148.25 -158.0 -178.65 -170.75 -218.65 -170.0 -224.0 -169.0 -224.15 -167.9 -225.0 M-156.9 -137.9 L-161.65 -122.9 -164.15 -119.75 -156.9 -137.9" fill="url(#gradient5)" fill-rule="evenodd" stroke="none"/>
    <path d="M-264.0 -225.15 L-262.75 -246.0 -256.9 -264.0 -256.15 -267.25 -254.9 -287.75 -257.4 -299.75 -249.9 -300.0 -249.9 -285.25 -254.15 -221.9 -264.0 -225.15" fill="url(#gradient6)" fill-rule="evenodd" stroke="none"/>
    <path d="M-291.9 -107.5 L-268.75 -140.15 -266.15 -181.4 -264.0 -225.15 -254.15 -221.9 -261.9 -172.65 -265.0 -149.0 -266.5 -127.65 -291.9 -107.5" fill="url(#gradient7)" fill-rule="evenodd" stroke="none"/>
    <path d="M-292.75 -106.75 L-292.65 -106.9 -291.9 -107.5 -266.5 -127.65 -246.25 -136.25 -226.5 -131.75 -211.9 -132.65 -214.25 -88.5 -216.65 -96.4 -218.0 -99.25 -224.4 -91.75 -214.75 -86.5 -214.4 -86.65 -214.25 -86.0 -214.15 -85.65 -275.5 -69.9 -301.0 -82.9 -311.0 -86.15 -292.75 -106.75" fill="url(#gradient8)" fill-rule="evenodd" stroke="none"/>
    <path d="M-254.15 -221.9 L-223.65 -217.5 -190.0 -214.0 -196.4 -174.25 -196.4 -171.5 -200.25 -132.4 -214.0 -87.15 -214.25 -88.5 -211.9 -132.65 -226.5 -131.75 -246.25 -136.25 -266.5 -127.65 -265.0 -149.0 -261.9 -172.65 -254.15 -221.9 M-214.4 -86.65 L-214.15 -86.75 -214.25 -86.0 -214.4 -86.65" fill="url(#gradient9)" fill-rule="evenodd" stroke="none"/>
    <path d="M-400.0 -50.0 L-400.0 -54.15 -383.0 -61.4 -382.75 -61.5 -382.5 -61.65 -382.25 -61.75 -382.25 -61.65 -382.5 -61.65 -382.5 -61.5 -382.75 -61.5 -382.75 -61.4 -383.0 -61.4 -383.15 -61.25 -383.4 -61.15 -383.65 -61.0 -383.9 -60.9 -384.15 -60.75 -384.25 -60.65 -385.65 -60.0 -384.25 -60.25 -373.5 -64.4 -373.25 -64.15 -400.0 -50.0 M-214.25 -88.5 L-214.0 -87.15 -214.15 -86.75 -214.4 -86.65 -214.75 -86.5 -224.4 -91.75 -218.0 -99.25 -216.65 -96.4 -214.25 -88.5 M-214.0 -85.25 L-213.75 -85.0 -213.5 -80.65 -214.75 -77.75 -215.75 -77.25 -221.9 -76.65 -214.0 -85.25" fill="url(#gradient10)" fill-rule="evenodd" stroke="none"/>
    <path d="M-187.9 -84.4 L-186.5 -72.25 -190.4 -35.5 -199.0 -0.9 -211.5 -0.9 -212.15 -3.25 -213.0 -47.25 -210.15 -77.15 -207.65 -78.65 -200.4 -75.4 -205.5 -79.25 -188.5 -83.9 -187.9 -84.4" fill="url(#gradient11)" fill-rule="evenodd" stroke="none"/>
    <path d="M-188.5 -83.9 L-205.5 -79.25 -213.4 -84.9 -213.75 -85.0 -214.0 -85.25 -214.15 -85.65 -188.5 -83.9" fill="url(#gradient12)" fill-rule="evenodd" stroke="none"/>
    <path d="M-400.0 -27.4 L-400.0 -50.0 -373.25 -64.15 -373.5 -64.4 -384.25 -60.25 -385.65 -60.0 -384.25 -60.65 -384.15 -60.75 -383.9 -60.9 -383.65 -61.0 -383.4 -61.15 -383.15 -61.25 -383.0 -61.4 -382.75 -61.4 -382.75 -61.5 -382.5 -61.5 -382.5 -61.65 -382.25 -61.65 -382.25 -61.75 -382.0 -61.75 -381.75 -61.9 -381.5 -62.0 -353.0 -76.65 -328.15 -87.65 -292.75 -106.75 -311.0 -86.15 -301.0 -82.9 -275.5 -69.9 -320.9 -71.75 -342.15 -57.75 -400.0 -27.4" fill="url(#gradient13)" fill-rule="evenodd" stroke="none"/>
    <path d="M-244.75 -56.65 L-248.4 -55.75 -275.5 -69.9 -214.15 -85.65 -214.0 -85.25 -221.9 -76.65 -215.75 -77.25 -214.75 -77.75 -213.5 -80.65 -213.75 -85.0 -213.4 -84.9 -207.65 -78.65 -210.15 -77.15 -244.75 -56.65" fill="url(#gradient14)" fill-rule="evenodd" stroke="none"/>
    <path d="M-205.5 -79.25 L-200.4 -75.4 -207.65 -78.65 -213.4 -84.9 -205.5 -79.25" fill="url(#gradient15)" fill-rule="evenodd" stroke="none"/>
    <path d="M-211.5 -0.9 L-249.4 -0.9 -248.65 -12.25 -248.65 -13.25 -246.75 -36.25 -245.65 -55.75 -244.75 -56.65 -210.15 -77.15 -213.0 -47.25 -212.15 -3.25 -211.5 -0.9" fill="url(#gradient16)" fill-rule="evenodd" stroke="none"/>
    <path d="M-251.4 -51.25 L-309.25 -5.25 -318.0 -0.9 -400.0 -0.9 -400.0 -27.4 -342.15 -57.75 -320.9 -71.75 -275.5 -69.9 -248.4 -55.75 -244.75 -56.65 -245.65 -55.75 -251.4 -51.25" fill="url(#gradient17)" fill-rule="evenodd" stroke="none"/>
    <path d="M-249.9 -21.15 L-251.4 -46.25 -251.25 -51.25 -251.4 -51.25 -245.65 -55.75 -246.75 -36.25 -248.65 -13.25 -249.9 -21.15" fill="url(#gradient18)" fill-rule="evenodd" stroke="none"/>
    <path d="M-249.4 -0.9 L-250.0 -0.9 -249.9 -21.15 -248.65 -13.25 -248.65 -12.25 -249.4 -0.9" fill="url(#gradient19)" fill-rule="evenodd" stroke="none"/>
    <path d="M-196.9 -0.9 L-199.15 -0.9 -197.65 -6.25 -196.9 -0.9 M-261.25 -300.0 L-257.4 -300.0 -255.0 -288.65 -254.9 -286.9 -256.25 -266.25 -256.4 -265.9 -259.4 -256.9 -257.9 -284.5 -261.25 -300.0" fill="#ee0000" fill-rule="evenodd" stroke="none"/>
    <path d="M-199.15 -0.9 L-220.4 -0.9 -222.75 -6.75 -223.0 -8.25 -225.9 -14.75 -233.15 -29.15 -233.4 -30.15 -241.4 -45.9 -242.0 -47.65 -242.5 -48.15 -242.75 -49.25 -243.25 -49.75 -243.25 -50.25 -245.5 -54.25 -245.65 -55.0 -246.0 -55.5 -246.4 -56.25 -246.5 -56.65 -246.75 -57.0 -257.15 -78.0 -257.4 -78.65 -250.75 -76.25 -250.4 -76.25 -226.4 -67.5 -223.65 -66.65 -223.4 -66.4 -222.25 -66.15 -222.15 -66.0 -216.4 -63.9 -216.0 -63.9 -215.65 -63.75 -215.4 -63.5 -214.25 -61.4 -212.0 -57.15 -211.9 -56.5 -202.5 -38.5 -202.0 -37.9 -201.0 -36.0 -200.5 -34.65 -199.0 -20.75 -199.15 -20.25 -198.9 -19.25 -199.0 -18.65 -197.65 -8.9 -197.5 -8.25 -197.5 -8.0 -197.75 -7.25 -197.65 -7.15 -197.65 -6.25 -199.15 -0.9 M-257.4 -300.0 L-221.5 -299.75 -216.25 -300.0 -204.65 -299.75 -172.65 -300.0 -177.25 -285.0 -177.75 -283.9 -178.4 -281.65 -178.65 -281.25 -178.5 -281.0 -180.65 -274.4 -181.25 -256.15 -181.5 -254.4 -181.4 -254.0 -181.5 -250.25 -183.4 -235.9 -183.65 -235.5 -184.15 -231.65 -184.0 -231.15 -186.25 -215.25 -186.4 -215.0 -186.75 -211.5 -187.0 -210.5 -187.15 -210.5 -187.0 -209.75 -187.5 -206.4 -187.9 -204.5 -187.9 -204.4 -219.25 -207.65 -219.5 -207.75 -261.4 -214.15 -260.5 -239.25 -260.75 -240.4 -259.75 -255.0 -259.65 -255.9 -259.4 -256.9 -256.4 -265.9 -256.25 -266.25 -254.9 -286.9 -255.0 -288.65 -257.4 -300.0" fill="#dd0000" fill-opacity="0.9098039" fill-rule="evenodd" stroke="none"/>
    <path d="M-192.0 -0.9 L-192.5 -0.9 -195.65 -14.9 -195.65 -15.0 -193.75 -21.65 -191.9 -18.5 -190.5 -15.9 -190.65 -12.15 -192.0 -0.9 M-272.5 -218.0 L-271.75 -240.25 -264.4 -262.9 -263.15 -286.25 -266.25 -299.75 -261.25 -300.0 -257.9 -284.5 -259.4 -256.9 -259.65 -255.9 -259.75 -255.0 -262.75 -245.75 -264.15 -222.25 -272.5 -218.0" fill="#ac0000" fill-rule="evenodd" stroke="none"/>
    <path d="M-190.15 -0.9 L-192.0 -0.9 -190.65 -12.15 -190.15 -0.9 M-309.15 -100.75 L-280.75 -124.75 -280.75 -125.0 -280.65 -125.25 -275.9 -148.5 -272.5 -218.0 -264.15 -222.25 -265.9 -187.9 -265.9 -187.4 -266.0 -187.15 -266.0 -185.65 -266.15 -185.0 -266.15 -184.9 -266.25 -183.4 -270.65 -157.65 -274.0 -133.15 -276.25 -129.65 -276.5 -129.4 -279.15 -125.5 -279.4 -125.5 -279.65 -125.0 -280.9 -123.15 -280.9 -123.0 -281.0 -122.65 -281.4 -122.4 -282.0 -121.5 -282.4 -121.0 -282.75 -120.65 -309.15 -100.75" fill="#ab0000" fill-rule="evenodd" stroke="none"/>
    <path d="M-281.5 -121.9 L-282.0 -121.5 -281.4 -122.4 -281.0 -122.65 -280.9 -123.0 -280.9 -123.15 -279.65 -125.0 -279.4 -125.5 -279.15 -125.5 -279.4 -125.25 -279.4 -125.15 -279.65 -124.9 -279.65 -124.75 -281.0 -122.65 -281.4 -122.15 -281.5 -122.0 -281.5 -121.9 M-259.75 -255.0 L-260.75 -240.4 -260.5 -239.25 -261.4 -214.15 -263.0 -205.4 -263.15 -202.65 -265.9 -187.9 -264.15 -222.25 -262.75 -245.75 -259.75 -255.0 M-199.4 -32.25 L-199.0 -32.15 -195.65 -25.5 -195.5 -25.25 -195.4 -25.0 -194.0 -22.5 -194.15 -22.25 -193.9 -22.15 -193.75 -21.65 -195.65 -15.0 -195.65 -15.9 -195.75 -16.15 -197.15 -21.65 -197.0 -22.25 -197.4 -22.65 -197.25 -23.15 -199.4 -32.25" fill="#9b0000" fill-opacity="0.9098039" fill-rule="evenodd" stroke="none"/>
    <path d="M-172.65 -300.0 L-159.65 -300.0 -159.75 -299.25 -159.9 -298.9 -159.9 -298.5 -160.0 -297.75 -160.0 -297.25 -160.15 -296.75 -160.75 -288.0 -160.9 -287.65 -161.75 -282.0 -161.65 -281.15 -161.9 -281.0 -161.9 -280.5 -161.75 -280.0 -162.0 -279.9 -163.0 -270.4 -162.9 -270.0 -163.75 -261.0 -163.9 -260.4 -163.9 -259.9 -164.0 -258.75 -164.4 -258.5 -164.4 -258.15 -164.15 -258.0 -164.15 -257.65 -164.5 -257.4 -164.5 -256.65 -165.0 -251.75 -165.15 -251.15 -165.65 -247.0 -165.5 -246.15 -166.9 -235.75 -166.9 -235.25 -166.75 -234.65 -167.0 -234.5 -167.0 -233.75 -166.9 -233.5 -167.15 -233.4 -167.9 -225.0 -165.5 -218.75 -164.4 -216.25 -164.5 -215.75 -165.0 -215.4 -165.0 -215.0 -165.4 -214.75 -165.4 -214.4 -167.0 -212.5 -168.5 -211.15 -169.9 -210.75 -187.9 -204.5 -187.5 -206.4 -187.0 -209.75 -187.15 -210.5 -187.0 -210.5 -186.75 -211.5 -186.4 -215.0 -186.25 -215.25 -184.0 -231.15 -184.15 -231.65 -183.65 -235.5 -183.4 -235.9 -181.5 -250.25 -181.4 -254.0 -181.5 -254.4 -181.25 -256.15 -180.65 -274.4 -178.5 -281.0 -178.65 -281.25 -178.4 -281.65 -177.75 -283.9 -177.25 -285.0 -172.65 -300.0" fill="#a80000" fill-opacity="0.9098039" fill-rule="evenodd" stroke="none"/>
    <path d="M-187.9 -204.5 L-169.9 -210.75 -168.5 -211.15 -167.0 -212.5 -166.15 -209.9 -166.0 -209.65 -166.0 -209.5 -163.9 -200.9 -163.65 -200.4 -163.65 -200.25 -163.25 -199.15 -158.25 -179.9 -158.25 -179.75 -158.0 -179.0 -157.9 -178.65 -157.9 -178.5 -155.65 -170.9 -154.4 -159.25 -153.75 -156.25 -153.4 -151.5 -153.0 -150.4 -153.15 -149.0 -153.9 -147.65 -153.75 -146.75 -157.65 -135.9 -157.5 -135.65 -161.4 -124.25 -161.75 -122.9 -163.9 -120.15 -167.4 -111.9 -183.15 -90.65 -183.65 -90.0 -185.5 -87.5 -188.0 -84.15 -186.9 -74.5 -186.5 -72.65 -186.75 -71.0 -186.65 -70.0 -186.75 -69.75 -186.9 -69.15 -188.15 -67.65 -188.5 -66.15 -188.75 -59.9 -188.5 -59.4 -188.75 -52.25 -203.75 -58.65 -204.9 -59.25 -215.4 -63.5 -215.65 -63.75 -215.25 -64.9 -213.9 -68.65 -213.9 -69.15 -211.75 -76.25 -211.4 -76.5 -210.0 -81.15 -210.15 -81.4 -209.75 -82.25 -199.5 -115.15 -198.4 -124.9 -198.5 -126.5 -197.9 -131.25 -198.0 -131.5 -196.0 -150.0 -196.15 -150.5 -193.25 -171.25 -193.4 -171.5 -187.9 -204.4 -187.9 -204.5" fill="#db0000" fill-opacity="0.9098039" fill-rule="evenodd" stroke="none"/>
    <path d="M-167.0 -212.5 L-165.4 -214.4 -165.4 -214.75 -165.0 -215.0 -165.0 -215.4 -164.5 -215.75 -154.15 -187.75 -151.75 -168.5 -152.4 -169.5 -153.4 -173.4 -154.4 -175.4 -154.75 -177.4 -160.5 -194.25 -161.65 -196.75 -166.0 -209.5 -166.0 -209.65 -166.15 -209.9 -167.0 -212.5" fill="#bf0000" fill-opacity="0.9098039" fill-rule="evenodd" stroke="none"/>
    <path d="M-163.0 -218.0 L-147.4 -179.25 -143.15 -145.75 -144.75 -139.65 -146.65 -134.5 -150.25 -157.75 -150.25 -157.9 -151.15 -162.65 -151.15 -162.75 -151.75 -168.5 -154.15 -187.75 -164.5 -215.75 -164.4 -216.25 -163.0 -218.0" fill="#d00000" fill-rule="evenodd" stroke="none"/>
    <path d="M-164.4 -216.25 L-165.5 -218.75 -163.0 -218.0 -164.4 -216.25" fill="#b90000" fill-rule="evenodd" stroke="none"/>
    <path d="M-155.25 -300.0 L-153.25 -299.75 -155.75 -281.5 -163.0 -218.0 -165.5 -218.75 -167.9 -225.0 -167.15 -233.4 -166.9 -233.5 -167.0 -233.75 -167.0 -234.5 -166.75 -234.65 -166.9 -235.25 -166.9 -235.75 -165.5 -246.15 -165.65 -247.0 -165.15 -251.15 -165.0 -251.75 -164.5 -256.65 -164.0 -257.4 -164.15 -257.65 -164.15 -258.0 -163.9 -258.25 -164.0 -258.75 -163.75 -259.15 -163.9 -259.9 -163.9 -260.4 -163.65 -260.5 -163.75 -261.0 -162.9 -270.0 -163.0 -270.4 -162.0 -279.9 -161.75 -280.0 -161.9 -280.5 -161.9 -281.0 -161.65 -281.15 -161.75 -282.0 -160.9 -287.65 -160.65 -287.75 -160.75 -288.0 -157.5 -300.0 -156.65 -300.0 -157.4 -290.9 -156.75 -290.9 -155.25 -300.0" fill="#b70000" fill-rule="evenodd" stroke="none"/>
    <path d="M-159.65 -300.0 L-157.5 -300.0 -160.75 -288.0 -160.65 -287.75 -160.9 -287.65 -160.75 -288.0 -160.15 -296.75 -160.0 -297.25 -160.0 -297.75 -159.9 -298.5 -159.9 -298.9 -159.75 -299.25 -159.65 -300.0 M-164.5 -256.65 L-164.5 -257.4 -164.15 -257.65 -164.0 -257.4 -164.5 -256.65 M-164.15 -258.0 L-164.4 -258.15 -164.4 -258.5 -164.0 -258.75 -163.9 -259.9 -163.75 -259.15 -164.0 -258.75 -163.9 -258.25 -164.15 -258.0 M-163.9 -260.4 L-163.75 -261.0 -163.65 -260.5 -163.9 -260.4" fill="#be0000" fill-rule="evenodd" stroke="none"/>
    <path d="M-156.65 -300.0 L-155.25 -300.0 -156.75 -290.9 -157.4 -290.9 -156.65 -300.0 M-215.4 -63.5 L-204.9 -59.25 -203.75 -58.65 -188.75 -52.25 -188.65 -52.25 -188.75 -49.5 -190.5 -34.9 -191.5 -31.5 -191.4 -31.25 -193.65 -23.0 -193.9 -23.25 -193.75 -23.5 -193.9 -23.75 -194.75 -25.5 -194.75 -25.9 -195.0 -26.0 -195.0 -26.4 -198.65 -35.15 -199.0 -35.75 -201.25 -41.0 -201.65 -42.15 -211.75 -57.65 -211.9 -58.15 -214.25 -61.4 -215.4 -63.5" fill="#ab0000" fill-opacity="0.9098039" fill-rule="evenodd" stroke="none"/>
    <path d="M-146.65 -134.5 L-146.75 -133.5 -146.5 -132.25 -148.75 -123.9 -161.75 -93.25 -177.0 -68.25 -177.15 -67.65 -184.65 -55.65 -184.9 -54.75 -186.5 -52.65 -184.9 -57.15 -184.75 -57.75 -185.25 -59.5 -187.25 -63.4 -187.5 -64.25 -188.25 -65.4 -188.25 -66.0 -188.4 -66.15 -188.5 -66.15 -188.15 -67.65 -186.9 -69.15 -186.75 -69.75 -179.65 -80.5 -183.5 -85.75 -183.4 -88.9 -183.0 -90.25 -183.15 -90.65 -167.4 -111.9 -163.9 -120.15 -161.75 -122.9 -161.4 -124.25 -157.5 -135.65 -157.65 -135.9 -153.75 -146.75 -153.9 -147.65 -153.15 -149.0 -153.0 -150.4 -153.4 -151.5 -153.75 -156.25 -154.4 -159.25 -155.65 -170.9 -157.9 -178.5 -157.9 -178.65 -158.0 -179.0 -158.25 -179.9 -163.25 -199.15 -163.65 -200.25 -163.65 -200.4 -163.9 -200.9 -166.0 -209.5 -161.65 -196.75 -160.5 -194.25 -154.75 -177.4 -154.4 -175.4 -153.4 -173.4 -152.4 -169.5 -151.75 -168.5 -151.15 -162.75 -151.15 -162.65 -150.25 -157.9 -150.25 -157.75 -146.65 -134.5" fill="#ec0000" fill-rule="evenodd" stroke="none"/>
    <path d="M-261.4 -214.15 L-219.5 -207.75 -219.25 -207.65 -187.9 -204.4 -193.4 -171.5 -193.25 -171.25 -196.15 -150.5 -196.0 -150.0 -198.0 -131.5 -197.9 -131.25 -198.5 -126.5 -198.4 -124.9 -199.5 -115.15 -209.75 -82.25 -210.15 -81.4 -210.0 -81.15 -211.4 -76.5 -211.75 -76.25 -213.9 -69.15 -213.9 -68.65 -215.25 -64.9 -215.0 -70.75 -215.25 -71.65 -215.0 -72.4 -215.15 -74.15 -215.0 -74.65 -214.9 -77.65 -214.65 -78.4 -214.75 -80.15 -214.5 -83.0 -214.65 -84.5 -214.5 -84.9 -214.65 -85.25 -214.5 -85.65 -214.4 -85.75 -214.5 -85.9 -214.5 -86.65 -214.25 -86.75 -214.25 -88.25 -214.4 -88.9 -212.9 -114.9 -228.65 -113.65 -230.4 -113.75 -254.0 -127.5 -255.25 -127.4 -255.65 -127.15 -270.65 -124.15 -271.0 -124.0 -281.5 -121.9 -281.5 -122.0 -281.4 -122.15 -281.0 -122.65 -279.65 -124.75 -279.65 -124.9 -279.4 -125.15 -279.4 -125.25 -279.15 -125.5 -276.5 -129.4 -276.25 -129.65 -274.0 -133.15 -268.9 -140.0 -267.65 -159.0 -267.4 -159.75 -266.15 -181.4 -266.25 -183.4 -266.15 -184.9 -266.15 -185.0 -266.0 -185.65 -266.0 -187.15 -265.9 -187.4 -265.9 -187.9 -263.15 -202.65 -263.0 -205.4 -261.4 -214.15" fill="#d80000" fill-opacity="0.9098039" fill-rule="evenodd" stroke="none"/>
    <path d="M-158.25 -179.9 L-158.0 -179.0 -158.25 -179.75 -158.25 -179.9" fill="#ed0000" fill-rule="evenodd" stroke="none"/>
    <path d="M-266.25 -183.4 L-266.15 -181.4 -267.4 -159.75 -267.65 -159.0 -268.9 -140.0 -274.0 -133.15 -270.65 -157.65 -266.25 -183.4" fill="#e80000" fill-rule="evenodd" stroke="none"/>
    <path d="M-183.15 -90.65 L-183.0 -90.25 -183.4 -88.9 -183.65 -90.0 -183.15 -90.65" fill="#f00000" fill-rule="evenodd" stroke="none"/>
    <path d="M-192.5 -0.9 L-196.9 -0.9 -197.65 -6.25 -197.65 -7.15 -197.75 -7.25 -197.5 -8.0 -197.5 -8.25 -197.65 -8.9 -199.0 -18.65 -198.9 -19.25 -199.15 -20.25 -199.0 -20.75 -200.5 -34.65 -201.0 -36.0 -202.0 -37.9 -202.5 -38.5 -211.9 -56.5 -212.0 -57.15 -214.25 -61.4 -211.9 -58.15 -211.75 -57.65 -201.65 -42.15 -201.25 -41.0 -201.15 -39.4 -201.0 -39.0 -201.0 -38.9 -200.4 -36.75 -200.25 -36.4 -199.9 -33.9 -199.4 -32.25 -197.25 -23.15 -197.4 -22.65 -197.0 -22.25 -197.15 -21.65 -195.75 -16.15 -195.65 -15.9 -195.65 -15.0 -195.65 -14.9 -192.5 -0.9 M-183.4 -88.9 L-183.5 -85.75 -185.5 -87.5 -183.65 -90.0 -183.4 -88.9" fill="#ef0000" fill-rule="evenodd" stroke="none"/>
    <path d="M-183.5 -85.75 L-179.65 -80.5 -186.75 -69.75 -186.65 -70.0 -186.75 -71.0 -186.5 -72.65 -186.9 -74.5 -188.0 -84.15 -185.5 -87.5 -183.5 -85.75" fill="#eb0000" fill-rule="evenodd" stroke="none"/>
    <path d="M-215.25 -64.9 L-215.65 -63.75 -216.0 -63.9 -216.4 -63.9 -222.15 -66.0 -222.25 -66.15 -223.4 -66.4 -223.65 -66.65 -226.4 -67.5 -250.4 -76.25 -250.75 -76.25 -257.4 -78.65 -292.65 -94.15 -306.65 -97.65 -306.9 -98.0 -308.5 -98.25 -294.5 -105.9 -294.4 -105.9 -293.9 -106.25 -293.75 -106.25 -292.75 -106.75 -292.65 -106.9 -292.15 -107.15 -282.75 -120.65 -282.4 -121.0 -282.0 -121.5 -281.5 -121.9 -271.0 -124.0 -270.65 -124.15 -255.65 -127.15 -255.25 -127.4 -254.0 -127.5 -230.4 -113.75 -228.65 -113.65 -212.9 -114.9 -214.4 -88.9 -214.25 -88.25 -214.25 -86.75 -214.5 -86.65 -214.5 -85.9 -214.4 -85.75 -214.5 -85.65 -214.65 -85.25 -214.5 -84.9 -214.65 -84.5 -214.5 -83.0 -214.75 -80.15 -214.65 -78.4 -214.9 -77.65 -215.0 -74.65 -215.15 -74.15 -215.0 -72.4 -215.25 -71.65 -215.0 -70.75 -215.25 -64.9" fill="#c70000" fill-opacity="0.9098039" fill-rule="evenodd" stroke="none"/>
    <path d="M-177.15 -67.65 L-176.15 -53.0 -182.15 -0.9 -188.15 -0.9 -185.9 -21.0 -184.75 -54.4 -184.9 -54.75 -184.65 -55.65 -177.15 -67.65" fill="#ae0000" fill-rule="evenodd" stroke="none"/>
    <path d="M-188.15 -0.9 L-190.15 -0.9 -190.65 -12.15 -190.5 -15.9 -188.65 -31.25 -188.75 -49.5 -188.65 -52.25 -186.9 -51.65 -186.5 -52.65 -184.9 -54.75 -184.75 -54.4 -185.9 -21.0 -188.15 -0.9" fill="#bb0000" fill-rule="evenodd" stroke="none"/>
    <path d="M-188.5 -66.15 L-188.4 -66.15 -188.25 -66.0 -188.25 -65.4 -187.5 -64.25 -187.25 -63.4 -185.25 -59.5 -184.75 -57.75 -184.9 -57.15 -186.5 -52.65 -186.9 -51.65 -188.65 -52.25 -188.75 -52.25 -188.5 -59.4 -188.75 -59.9 -188.5 -66.15" fill="#ea0000" fill-rule="evenodd" stroke="none"/>
    <path d="M-311.4 -98.9 L-309.25 -100.75 -309.15 -100.75 -282.75 -120.65 -292.15 -107.15 -292.65 -106.9 -292.75 -106.75 -293.75 -106.25 -293.9 -106.25 -294.4 -105.9 -294.5 -105.9 -308.5 -98.25 -308.9 -98.15 -310.9 -98.65 -311.4 -98.9" fill="#d70000" fill-rule="evenodd" stroke="none"/>
    <path d="M-310.9 -98.65 L-308.9 -98.15 -309.5 -97.9 -310.9 -98.65" fill="#c00000" fill-rule="evenodd" stroke="none"/>
    <path d="M-400.0 -54.15 L-400.0 -77.5 -311.4 -98.9 -310.9 -98.65 -309.5 -97.9 -328.9 -87.25 Q-329.3 -87.05 -329.75 -86.9 L-330.0 -86.75 -330.15 -86.75 -352.75 -76.65 -353.0 -76.5 -353.25 -76.4 -353.5 -76.25 -353.65 -76.25 -381.5 -62.0 -381.75 -61.9 -382.0 -61.75 -382.25 -61.75 -382.5 -61.65 -382.9 -61.4 -383.15 -61.4 -383.4 -61.25 -383.65 -61.15 -383.75 -61.0 -384.15 -60.9 -384.4 -60.75 -385.25 -60.4 -385.5 -60.25 -386.4 -59.9 -386.65 -59.75 -387.0 -59.65 -387.25 -59.5 -387.5 -59.4 -387.65 -59.4 -388.25 -59.15 -388.5 -59.0 -388.9 -58.9 -389.15 -58.75 -389.4 -58.65 -389.65 -58.5 -390.0 -58.4 -390.25 -58.25 -391.15 -57.9 -391.4 -57.75 -392.9 -57.15 -393.15 -57.0 -394.0 -56.65 -394.25 -56.5 -395.75 -55.9 -395.9 -55.75 -396.0 -55.75 -399.65 -54.15 -400.0 -54.15" fill="#bf0000" fill-rule="evenodd" stroke="none"/>
    <path d="M-257.15 -78.0 L-253.75 -52.4 -253.5 -51.4 -253.65 -51.15 -253.4 -49.65 -273.25 -33.9 -300.0 -12.9 -300.0 -12.75 -300.65 -12.25 -301.25 -11.9 -301.4 -11.65 -301.9 -11.4 -309.15 -5.65 -309.5 -5.25 -317.9 -0.9 -400.0 -0.9 -400.0 -54.15 -399.65 -54.15 -396.0 -55.75 -395.9 -55.75 -395.75 -55.9 -394.25 -56.5 -394.0 -56.65 -393.15 -57.0 -392.9 -57.15 -391.4 -57.75 -391.15 -57.9 -390.25 -58.25 -390.0 -58.4 -389.65 -58.5 -389.4 -58.65 -389.15 -58.75 -388.9 -58.9 -388.5 -59.0 -388.25 -59.15 -387.65 -59.4 -387.5 -59.4 -387.25 -59.5 -387.0 -59.65 -386.65 -59.75 -386.4 -59.9 -385.5 -60.25 -385.25 -60.4 -384.4 -60.75 -384.15 -60.9 -383.75 -61.0 -383.65 -61.15 -383.4 -61.25 -383.15 -61.4 -382.9 -61.4 -382.5 -61.65 -382.25 -61.75 -382.0 -61.75 -381.75 -61.9 -381.5 -62.0 -353.65 -76.25 -353.5 -76.25 -353.25 -76.4 -353.0 -76.5 -352.75 -76.65 -330.15 -86.75 -330.0 -86.75 -329.75 -86.9 Q-329.3 -87.05 -328.9 -87.25 L-309.5 -97.9 -309.75 -96.25 -309.25 -96.4 -306.65 -97.65 -292.65 -94.15 -257.4 -78.65 -257.15 -78.0 M-250.0 -24.65 L-249.65 -23.0 -249.25 -18.75 -248.4 -15.65 -248.4 -13.15 -248.0 -11.15 -247.9 -10.9 -246.5 -0.9 -250.0 -0.9 -250.0 -24.65" fill="#b00000" fill-opacity="0.9098039" fill-rule="evenodd" stroke="none"/>
    <path d="M-253.4 -49.65 L-251.4 -51.25 -251.25 -51.25 -251.5 -48.5 -251.25 -47.75 -250.9 -38.65 -250.75 -38.15 -250.65 -35.4 -250.5 -34.0 -250.5 -30.75 -253.4 -49.65" fill="#bb0000" fill-opacity="0.9098039" fill-rule="evenodd" stroke="none"/>
    <path d="M-250.5 -30.75 L-250.25 -28.25 -250.25 -27.75 -250.15 -27.4 -250.0 -24.65 -250.0 -0.9 -276.25 -0.9 -273.15 -33.5 -273.25 -33.9 -253.4 -49.65 -250.5 -30.75" fill="#c10000" fill-rule="evenodd" stroke="none"/>
    <path d="M-276.25 -0.9 L-317.9 -0.9 -309.5 -5.25 -309.15 -5.65 -301.9 -11.4 -301.4 -11.65 -301.25 -11.9 -300.65 -12.25 -300.0 -12.75 -300.0 -12.9 -273.25 -33.9 -273.15 -33.5 -276.25 -0.9" fill="#c20000" fill-opacity="0.9098039" fill-rule="evenodd" stroke="none"/>
    <path d="M-193.65 -23.0 L-191.4 -31.25 -191.5 -31.5 -190.5 -34.9 -188.75 -49.5 -188.65 -31.25 -190.5 -15.9 -191.9 -18.5 -193.5 -22.4 -193.65 -23.0" fill="#bc0000" fill-rule="evenodd" stroke="none"/>
    <path d="M-201.25 -41.0 L-199.0 -35.75 -198.65 -35.15 -195.0 -26.4 -195.0 -26.0 -194.75 -25.9 -194.75 -25.5 -193.9 -23.75 -193.75 -23.5 -193.9 -23.25 -193.65 -23.0 -193.5 -22.4 -191.9 -18.5 -193.75 -21.65 -193.9 -22.15 -194.15 -22.25 -194.0 -22.5 -195.4 -25.0 -195.5 -25.25 -195.65 -25.5 -199.0 -32.15 -199.4 -32.25 -199.9 -33.9 -200.25 -36.4 -200.4 -36.75 -201.0 -38.9 -201.0 -39.0 -201.15 -39.4 -201.25 -41.0" fill="#ad0000" fill-rule="evenodd" stroke="none"/>
  </g>
  <defs>
    <radialGradient cx="0" cy="0" gradientTransform="matrix(0.128, 0.0, 0.0, 0.128, -189.9, -214.05)" gradientUnits="userSpaceOnUse" id="gradient0" r="819.2" spreadMethod="pad">
      <stop offset="0.0" stop-color="#666666"/>
      <stop offset="1.0" stop-color="#0e0e0e"/>
    </radialGradient>
    <radialGradient cx="0" cy="0" gradientTransform="matrix(0.0984, 0.0, 0.0, 0.0984, -172.35, -219.9)" gradientUnits="userSpaceOnUse" id="gradient1" r="819.2" spreadMethod="pad">
      <stop offset="0.0" stop-color="#696969"/>
      <stop offset="1.0" stop-color="#070707"/>
    </radialGradient>
    <radialGradient cx="0" cy="0" gradientTransform="matrix(0.1001, 0.0, 0.0, 0.1001, -156.1, -140.35)" gradientUnits="userSpaceOnUse" id="gradient2" r="819.2" spreadMethod="pad">
      <stop offset="0.0" stop-color="#838383"/>
      <stop offset="1.0" stop-color="#444444"/>
    </radialGradient>
    <radialGradient cx="0" cy="0" gradientTransform="matrix(0.1431, 0.0, 0.0, 0.1431, -179.0, -184.1)" gradientUnits="userSpaceOnUse" id="gradient3" r="819.2" spreadMethod="pad">
      <stop offset="0.0" stop-color="#656565"/>
      <stop offset="1.0" stop-color="#202020"/>
    </radialGradient>
    <radialGradient cx="0" cy="0" gradientTransform="matrix(0.0931, 0.0, 0.0, 0.0931, -168.7, -224.3)" gradientUnits="userSpaceOnUse" id="gradient4" r="819.2" spreadMethod="pad">
      <stop offset="0.0" stop-color="#575757"/>
      <stop offset="1.0" stop-color="#000000"/>
    </radialGradient>
    <radialGradient cx="0" cy="0" gradientTransform="matrix(0.1123, 0.0, 0.0, 0.1123, -155.45, -185.2)" gradientUnits="userSpaceOnUse" id="gradient5" r="819.2" spreadMethod="pad">
      <stop offset="0.0" stop-color="#6a6a6a"/>
      <stop offset="1.0" stop-color="#000000"/>
    </radialGradient>
    <radialGradient cx="0" cy="0" gradientTransform="matrix(0.0542, 0.0, 0.0, 0.0542, -256.2, -266.35)" gradientUnits="userSpaceOnUse" id="gradient6" r="819.2" spreadMethod="pad">
      <stop offset="0.0" stop-color="#000000"/>
      <stop offset="1.0" stop-color="#000000"/>
    </radialGradient>
    <radialGradient cx="0" cy="0" gradientTransform="matrix(0.0966, 0.0, 0.0, 0.0966, -266.2, -181.95)" gradientUnits="userSpaceOnUse" id="gradient7" r="819.2" spreadMethod="pad">
      <stop offset="0.0" stop-color="#000000"/>
      <stop offset="1.0" stop-color="#000000"/>
    </radialGradient>
    <radialGradient cx="0" cy="0" gradientTransform="matrix(0.1179, 0.0, 0.0, 0.1179, -214.3, -85.8)" gradientUnits="userSpaceOnUse" id="gradient8" r="819.2" spreadMethod="pad">
      <stop offset="0.0" stop-color="#464646"/>
      <stop offset="1.0" stop-color="#000000"/>
    </radialGradient>
    <radialGradient cx="0" cy="0" gradientTransform="matrix(0.092, 0.0, 0.0, 0.092, -224.85, -152.5)" gradientUnits="userSpaceOnUse" id="gradient9" r="819.2" spreadMethod="pad">
      <stop offset="0.0" stop-color="#6e6e6e"/>
      <stop offset="1.0" stop-color="#232323"/>
    </radialGradient>
    <radialGradient cx="0" cy="0" gradientTransform="matrix(0.18, 0.0, 0.0, 0.18, -253.35, -62.05)" gradientUnits="userSpaceOnUse" id="gradient10" r="819.2" spreadMethod="pad">
      <stop offset="0.0" stop-color="#737373"/>
      <stop offset="1.0" stop-color="#000000"/>
    </radialGradient>
    <radialGradient cx="0" cy="0" gradientTransform="matrix(0.0865, 0.0, 0.0, 0.0865, -188.15, -67.95)" gradientUnits="userSpaceOnUse" id="gradient11" r="819.2" spreadMethod="pad">
      <stop offset="0.0" stop-color="#494949"/>
      <stop offset="1.0" stop-color="#121212"/>
    </radialGradient>
    <radialGradient cx="0" cy="0" gradientTransform="matrix(0.0317, 0.0, 0.0, 0.0317, -214.3, -85.8)" gradientUnits="userSpaceOnUse" id="gradient12" r="819.2" spreadMethod="pad">
      <stop offset="0.0" stop-color="#464646"/>
      <stop offset="1.0" stop-color="#2c2c2c"/>
    </radialGradient>
    <radialGradient cx="0" cy="0" gradientTransform="matrix(0.1608, 0.0, 0.0, 0.1608, -275.3, -69.9)" gradientUnits="userSpaceOnUse" id="gradient13" r="819.2" spreadMethod="pad">
      <stop offset="0.0" stop-color="#0e0e0e"/>
      <stop offset="1.0" stop-color="#000000"/>
    </radialGradient>
    <radialGradient cx="0" cy="0" gradientTransform="matrix(0.057, 0.0, 0.0, 0.057, -248.3, -55.8)" gradientUnits="userSpaceOnUse" id="gradient14" r="819.2" spreadMethod="pad">
      <stop offset="0.0" stop-color="#7f7f7f"/>
      <stop offset="1.0" stop-color="#2e2e2e"/>
    </radialGradient>
    <radialGradient cx="0" cy="0" gradientTransform="matrix(0.0212, 0.0, 0.0, 0.0212, -214.3, -85.8)" gradientUnits="userSpaceOnUse" id="gradient15" r="819.2" spreadMethod="pad">
      <stop offset="0.0" stop-color="#464646"/>
      <stop offset="1.0" stop-color="#000000"/>
    </radialGradient>
    <radialGradient cx="0" cy="0" gradientTransform="matrix(0.1043, 0.0, 0.0, 0.1043, -220.7, -81.5)" gradientUnits="userSpaceOnUse" id="gradient16" r="819.2" spreadMethod="pad">
      <stop offset="0.0" stop-color="#575757"/>
      <stop offset="1.0" stop-color="#010101"/>
    </radialGradient>
    <radialGradient cx="0" cy="0" gradientTransform="matrix(0.1969, 0.0, 0.0, 0.1969, -248.3, -55.8)" gradientUnits="userSpaceOnUse" id="gradient17" r="819.2" spreadMethod="pad">
      <stop offset="0.0" stop-color="#7f7f7f"/>
      <stop offset="1.0" stop-color="#111111"/>
    </radialGradient>
    <radialGradient cx="0" cy="0" gradientTransform="matrix(0.0456, 0.0, 0.0, 0.0456, -251.4, -48.65)" gradientUnits="userSpaceOnUse" id="gradient18" r="819.2" spreadMethod="pad">
      <stop offset="0.0" stop-color="#000000"/>
      <stop offset="1.0" stop-color="#000000"/>
    </radialGradient>
    <radialGradient cx="0" cy="0" gradientTransform="matrix(0.0268, 0.0, 0.0, 0.0268, -249.4, -1.0)" gradientUnits="userSpaceOnUse" id="gradient19" r="819.2" spreadMethod="pad">
      <stop offset="0.0" stop-color="#000000"/>
      <stop offset="1.0" stop-color="#000000"/>
    </radialGradient>
  </defs>
</svg>
