<?xml version="1.0" encoding="UTF-8" standalone="no"?>
<svg xmlns:xlink="http://www.w3.org/1999/xlink" height="299.1px" width="255.5px" xmlns="http://www.w3.org/2000/svg">
  <g transform="matrix(1.0, 0.0, 0.0, 1.0, 400.0, 300.0)">
    <path d="M-250.0 -300.0 L-174.4 -300.0 -182.75 -272.4 -183.65 -250.5 -186.5 -228.15 -189.75 -208.75 -221.75 -211.9 -254.25 -216.5 -250.0 -280.25 -250.0 -300.0" fill="url(#gradient0)" fill-rule="evenodd" stroke="none"/>
    <path d="M-174.4 -300.0 L-163.0 -300.0 -165.75 -274.25 -165.65 -272.9 -166.0 -272.75 -167.75 -253.25 -168.75 -247.25 -172.0 -215.5 -172.9 -214.65 -189.75 -208.75 -186.5 -228.15 -183.65 -250.5 -182.75 -272.4 -174.4 -300.0" fill="url(#gradient1)" fill-rule="evenodd" stroke="none"/>
    <path d="M-154.4 -143.75 Q-153.75 -142.9 -155.9 -135.75 L-160.9 -123.4 -161.0 -123.0 -161.0 -122.9 -163.15 -117.65 -167.4 -107.0 -187.9 -79.65 -188.5 -79.25 -213.65 -80.75 -213.5 -81.0 -213.65 -81.65 -213.25 -82.15 -199.65 -127.9 -195.75 -169.15 -189.75 -208.75 -172.9 -214.65 -172.0 -215.5 -171.4 -214.5 -158.5 -174.25 -154.4 -143.75" fill="url(#gradient2)" fill-rule="evenodd" stroke="none"/>
    <path d="M-162.0 -300.0 L-170.75 -219.15 -171.4 -214.5 -172.0 -215.5 -168.75 -247.25 -167.75 -253.25 -166.0 -272.75 -165.65 -272.9 -165.75 -274.25 -163.0 -300.0 -162.0 -300.0" fill="url(#gradient3)" fill-rule="evenodd" stroke="none"/>
    <path d="M-162.0 -300.0 L-160.25 -300.0 -160.25 -299.25 -169.0 -220.15 -169.9 -219.25 -170.75 -219.15 -162.0 -300.0" fill="url(#gradient4)" fill-rule="evenodd" stroke="none"/>
    <path d="M-170.75 -219.15 L-169.9 -219.25 -169.0 -220.15 -155.4 -184.25 -151.65 -154.0 -151.65 -153.0 -154.4 -143.75 -158.5 -174.25 -171.4 -214.5 -170.75 -219.15 M-161.0 -122.9 L-162.65 -118.15 -163.15 -117.65 -161.0 -122.9" fill="url(#gradient5)" fill-rule="evenodd" stroke="none"/>
    <path d="M-264.5 -219.75 L-263.25 -240.25 -256.75 -260.25 -255.4 -282.65 -259.0 -299.9 -250.0 -300.0 -250.0 -280.25 -254.25 -216.5 -264.5 -219.75" fill="url(#gradient6)" fill-rule="evenodd" stroke="none"/>
    <path d="M-291.75 -101.9 L-269.25 -134.9 -266.5 -179.4 -264.5 -219.75 -254.25 -216.5 -261.65 -167.75 -264.65 -144.0 -266.15 -122.25 -291.75 -101.9" fill="url(#gradient7)" fill-rule="evenodd" stroke="none"/>
    <path d="M-292.4 -101.4 L-291.75 -101.9 -266.15 -122.25 -245.5 -131.0 -225.9 -126.5 -211.25 -127.65 -213.5 -83.5 -216.0 -91.75 -217.25 -94.25 -223.4 -86.65 -214.0 -81.5 -213.65 -81.65 -213.5 -81.0 -213.65 -80.75 -274.0 -64.25 -299.25 -76.9 -309.5 -80.15 -309.65 -80.4 -292.4 -101.4" fill="url(#gradient8)" fill-rule="evenodd" stroke="none"/>
    <path d="M-254.25 -216.5 L-221.75 -211.9 -189.75 -208.75 -195.75 -169.15 -199.65 -127.9 -213.25 -82.15 -213.5 -83.5 -211.25 -127.65 -225.9 -126.5 -245.5 -131.0 -266.15 -122.25 -264.65 -144.0 -261.65 -167.75 -254.25 -216.5" fill="url(#gradient9)" fill-rule="evenodd" stroke="none"/>
    <path d="M-400.0 -42.5 L-399.75 -47.0 -381.5 -55.15 -381.75 -54.9 -382.0 -54.75 -382.25 -54.65 -382.5 -54.5 -382.75 -54.4 -383.15 -54.15 -384.9 -53.25 -383.9 -53.4 -372.65 -57.75 -372.15 -57.65 -400.0 -42.5 M-213.5 -83.5 L-213.25 -82.15 -213.65 -81.65 -214.0 -81.5 -223.4 -86.65 -217.25 -94.25 -216.0 -91.75 -213.5 -83.5 M-213.25 -80.25 L-213.15 -80.15 -212.9 -76.0 -214.25 -72.9 -215.4 -72.4 -221.25 -71.65 -213.25 -80.25" fill="url(#gradient10)" fill-rule="evenodd" stroke="none"/>
    <path d="M-188.5 -79.25 L-189.25 -79.0 -205.15 -74.5 -212.75 -80.0 -213.15 -80.15 -213.25 -80.25 -213.65 -80.75 -188.5 -79.25" fill="url(#gradient11)" fill-rule="evenodd" stroke="none"/>
    <path d="M-243.9 -51.4 L-247.4 -50.5 -274.0 -64.25 -213.65 -80.75 -213.25 -80.25 -221.25 -71.65 -215.4 -72.4 -214.25 -72.9 -212.9 -76.0 -213.15 -80.15 -212.75 -80.0 -207.5 -73.9 -211.15 -71.65 -243.9 -51.4" fill="url(#gradient12)" fill-rule="evenodd" stroke="none"/>
    <path d="M-212.75 -80.0 L-205.15 -74.5 -200.4 -70.9 -207.5 -73.9 -212.75 -80.0" fill="url(#gradient13)" fill-rule="evenodd" stroke="none"/>
    <path d="M-189.25 -79.0 L-188.0 -68.0 -191.9 -30.75 -199.4 -0.9 -212.9 -0.9 -213.75 -42.65 -211.15 -71.65 -207.5 -73.9 -200.4 -70.9 -205.15 -74.5 -189.25 -79.0" fill="url(#gradient14)" fill-rule="evenodd" stroke="none"/>
    <path d="M-212.9 -0.9 L-250.15 -0.9 -249.75 -7.5 -247.75 -31.15 -248.0 -32.65 -246.75 -48.9 -243.9 -51.4 -211.15 -71.65 -213.75 -42.65 -212.9 -0.9" fill="url(#gradient15)" fill-rule="evenodd" stroke="none"/>
    <path d="M-253.15 -43.75 L-306.0 -0.9 -400.0 -0.9 -400.0 -19.15 -340.4 -51.5 -319.5 -65.5 -274.0 -64.25 -247.4 -50.5 -243.9 -51.4 -246.75 -48.9 -253.15 -43.75" fill="url(#gradient16)" fill-rule="evenodd" stroke="none"/>
    <path d="M-400.0 -19.15 L-400.0 -42.5 -372.15 -57.65 -372.65 -57.75 -383.9 -53.4 -384.9 -53.25 -383.15 -54.15 -382.75 -54.4 -382.5 -54.5 -382.25 -54.65 -382.0 -54.75 -381.75 -54.9 -381.5 -55.15 -381.25 -55.15 -381.0 -55.25 -380.75 -55.4 -380.5 -55.5 -351.15 -71.0 -328.0 -81.4 -292.4 -101.4 -309.65 -80.4 -309.5 -80.15 -299.25 -76.9 -274.0 -64.25 -319.5 -65.5 -340.4 -51.5 -400.0 -19.15" fill="url(#gradient17)" fill-rule="evenodd" stroke="none"/>
    <path d="M-251.4 -16.75 L-253.0 -43.75 -253.15 -43.75 -246.75 -48.9 -248.0 -32.65 -247.75 -31.15 -249.75 -7.5 -251.4 -16.75" fill="url(#gradient18)" fill-rule="evenodd" stroke="none"/>
    <path d="M-250.15 -0.9 L-251.25 -0.9 -251.4 -16.75 -249.75 -7.5 -250.15 -0.9" fill="url(#gradient19)" fill-rule="evenodd" stroke="none"/>
    <path d="M-192.4 -0.9 L-196.5 -0.9 -197.65 -8.75 -197.5 -8.9 -197.65 -8.9 -197.5 -9.25 -197.5 -9.4 -197.4 -9.9 -197.4 -10.15 -198.5 -18.4 -198.4 -18.9 -199.5 -29.15 -199.9 -30.4 -201.0 -32.15 -212.5 -54.5 -212.65 -55.25 -213.5 -56.75 -212.65 -55.75 -212.65 -55.25 -200.5 -37.15 -200.5 -36.5 -199.25 -30.65 -199.0 -30.15 -198.65 -27.9 -197.9 -26.0 -196.9 -21.0 -197.0 -20.65 -195.75 -16.65 -195.75 -16.0 -195.9 -15.75 -195.9 -15.65 -192.4 -0.9 M-262.5 -300.0 L-259.0 -300.0 -255.5 -283.4 -255.4 -281.4 -256.65 -260.75 -256.75 -260.25 -259.4 -252.75 -257.9 -278.9 -262.5 -300.0" fill="#ee0000" fill-rule="evenodd" stroke="none"/>
    <path d="M-192.0 -0.9 L-192.4 -0.9 -195.9 -15.65 -195.9 -15.75 -195.75 -16.0 -195.75 -16.65 -195.65 -16.75 -195.5 -17.0 -195.15 -18.5 -195.0 -18.9 -194.9 -19.4 -194.75 -19.75 -191.25 -13.5 -190.9 -12.75 -190.9 -12.5 -190.75 -11.9 -192.0 -0.9 M-272.9 -212.65 L-272.25 -234.0 -264.9 -256.75 -263.5 -279.0 -263.9 -282.5 -267.9 -299.5 -267.9 -300.0 -262.5 -300.0 -257.9 -278.9 -259.4 -252.75 -259.75 -251.0 -263.15 -240.4 -263.25 -240.0 -264.65 -217.4 -264.75 -217.25 -272.9 -212.65" fill="#ac0000" fill-rule="evenodd" stroke="none"/>
    <path d="M-189.9 -0.9 L-192.0 -0.9 -190.75 -11.9 -190.65 -11.9 -190.15 -11.15 -189.9 -0.9 M-309.9 -94.25 L-280.4 -120.15 -280.25 -120.5 -280.25 -120.75 -276.4 -143.25 -272.9 -212.65 -264.75 -217.25 -265.15 -210.0 -265.0 -209.9 -266.65 -176.9 -266.75 -176.4 -266.75 -174.75 -267.15 -171.5 -270.25 -152.65 -273.0 -129.65 -273.4 -128.9 -279.75 -119.9 -280.0 -119.25 -280.75 -117.65 -282.65 -115.25 -283.15 -114.75 -283.4 -114.4 -309.9 -94.25" fill="#ab0000" fill-rule="evenodd" stroke="none"/>
    <path d="M-281.0 -116.5 L-282.65 -115.25 -280.75 -117.65 -280.0 -119.25 -279.75 -119.9 -273.4 -128.9 -273.65 -127.5 -280.9 -116.9 -281.0 -116.5 M-264.75 -217.25 L-264.65 -217.4 -263.25 -240.0 -263.15 -240.4 -259.75 -251.0 -260.75 -234.25 -260.65 -233.15 -261.5 -208.65 -263.15 -199.15 -263.25 -196.4 -266.65 -176.9 -265.0 -209.9 -265.15 -210.0 -264.75 -217.25 M-197.9 -26.0 L-194.75 -20.25 -194.75 -19.75 -194.9 -19.4 -195.0 -18.9 -195.15 -18.5 -195.5 -17.0 -195.65 -16.75 -195.75 -16.65 -197.0 -20.65 -196.9 -21.0 -197.9 -26.0" fill="#9b0000" fill-opacity="0.9098039" fill-rule="evenodd" stroke="none"/>
    <path d="M-199.5 -0.9 L-220.9 -0.9 -222.9 -6.5 -223.65 -7.65 -223.9 -8.75 -224.25 -9.0 -224.5 -10.0 -227.9 -16.25 -228.65 -18.25 -234.25 -29.0 -234.4 -29.75 -234.4 -30.0 -242.65 -46.5 -243.5 -47.9 -243.75 -48.65 -244.75 -50.5 -245.0 -51.15 -245.25 -51.5 -245.4 -52.0 -255.65 -72.5 -255.9 -73.15 -226.25 -62.75 -225.75 -62.65 -222.9 -61.5 -214.5 -58.75 -214.4 -58.5 -213.5 -56.75 -212.65 -55.25 -212.5 -54.5 -201.0 -32.15 -199.9 -30.4 -199.5 -29.15 -198.4 -18.9 -198.5 -18.4 -197.4 -10.15 -197.4 -9.9 -197.5 -9.4 -197.5 -9.25 -197.65 -8.9 -197.5 -8.9 -197.65 -8.75 -197.75 -8.4 -197.65 -8.4 -197.75 -8.0 -197.9 -7.9 -197.9 -7.75 -198.0 -7.4 -197.9 -7.4 -198.0 -7.0 -198.15 -6.9 -198.15 -6.75 -198.25 -6.4 -198.15 -6.4 -198.25 -6.0 -198.4 -5.9 -198.4 -5.75 -198.5 -5.4 -198.4 -5.4 -198.5 -5.0 -198.65 -4.9 -198.65 -4.75 -198.75 -4.4 -198.65 -4.4 -198.75 -4.0 -198.9 -3.9 -198.9 -3.75 -199.5 -1.25 -199.5 -0.9 M-259.0 -300.0 L-170.5 -300.0 -175.4 -283.9 -176.25 -282.15 -176.15 -281.75 -177.75 -276.65 -178.0 -276.15 -180.25 -269.0 -180.75 -253.25 -180.9 -252.75 -180.9 -250.0 -181.15 -248.65 -181.0 -248.25 -181.15 -244.5 -183.0 -230.5 -183.0 -230.25 -183.5 -226.4 -183.75 -226.0 -183.65 -225.4 -185.75 -210.5 -185.9 -210.0 -185.9 -209.65 -186.5 -205.5 -186.75 -205.15 -186.65 -204.65 -187.4 -199.5 -187.5 -199.25 -222.15 -202.65 -261.5 -208.65 -260.65 -233.15 -260.75 -234.25 -259.75 -251.0 -259.4 -252.75 -256.75 -260.25 -256.65 -260.75 -255.4 -281.4 -255.5 -283.4 -259.0 -300.0" fill="#dd0000" fill-opacity="0.9098039" fill-rule="evenodd" stroke="none"/>
    <path d="M-170.5 -300.0 L-160.4 -300.0 -160.4 -299.25 -160.5 -298.5 -160.5 -298.0 -160.75 -297.5 -161.75 -287.5 -161.5 -287.25 -164.25 -265.15 -164.15 -264.15 -166.75 -241.9 -166.65 -241.0 -169.0 -220.0 -166.65 -213.9 -165.5 -211.0 -165.5 -210.65 -165.9 -210.25 -165.9 -209.75 -166.25 -209.65 -166.25 -209.25 -167.5 -207.5 -168.15 -206.4 -187.5 -199.25 -187.4 -199.5 -186.65 -204.65 -186.75 -205.15 -186.5 -205.5 -185.9 -209.65 -185.9 -210.0 -185.75 -210.5 -183.65 -225.4 -183.75 -226.0 -183.5 -226.4 -183.0 -230.25 -183.0 -230.5 -181.15 -244.5 -181.0 -248.25 -181.15 -248.65 -180.9 -250.0 -180.9 -252.75 -180.75 -253.25 -180.25 -269.0 -178.0 -276.15 -177.75 -276.65 -176.15 -281.75 -176.25 -282.15 -175.4 -283.9 -170.5 -300.0" fill="#a80000" fill-opacity="0.9098039" fill-rule="evenodd" stroke="none"/>
    <path d="M-187.5 -199.25 L-168.15 -206.4 -167.5 -207.5 -167.4 -207.5 -166.9 -205.75 -166.75 -205.4 -166.65 -205.0 -166.5 -204.75 -166.5 -204.65 -164.15 -195.0 -163.9 -194.4 -163.9 -194.25 -163.65 -193.5 -163.5 -193.25 -159.75 -178.75 -159.65 -177.75 -159.5 -177.4 -159.4 -177.0 -159.25 -176.65 -159.25 -176.4 -158.9 -175.5 -158.9 -175.4 -158.5 -174.25 -158.65 -173.9 -158.5 -173.9 -158.4 -173.5 -158.15 -172.25 -156.4 -166.25 -155.0 -154.25 -154.0 -147.15 -153.75 -146.0 -153.9 -145.15 -154.5 -143.75 -154.25 -142.15 -156.0 -136.25 -156.15 -135.9 -156.15 -135.75 -161.9 -120.5 -161.75 -120.25 -162.0 -120.0 -162.4 -119.25 -162.4 -118.5 -162.9 -118.15 -167.25 -107.4 -184.9 -83.5 -185.15 -83.25 -186.0 -82.25 -188.25 -79.5 -188.5 -79.25 -189.25 -79.0 -188.4 -70.4 -188.25 -70.0 -187.9 -68.0 -188.15 -67.0 -188.0 -66.75 -188.4 -63.65 -188.65 -62.75 -189.0 -62.25 -189.0 -61.75 -189.25 -54.15 -189.65 -53.9 -190.25 -48.65 -190.9 -48.75 -205.9 -55.0 -207.0 -55.65 -214.4 -58.5 -214.5 -58.75 -214.5 -59.4 -214.4 -59.4 -213.5 -61.75 -213.65 -62.25 -211.4 -68.5 -210.9 -71.15 -210.65 -72.0 -210.4 -72.25 -209.25 -75.9 -209.4 -76.15 -208.9 -77.15 -198.75 -110.4 -197.75 -119.15 -197.9 -121.0 -195.4 -144.75 -195.5 -145.25 -192.65 -165.75 -192.75 -166.4 -192.5 -166.65 -192.25 -168.25 -192.25 -168.9 -192.0 -169.9 -187.5 -198.75 -187.5 -199.25" fill="#db0000" fill-opacity="0.9098039" fill-rule="evenodd" stroke="none"/>
    <path d="M-167.5 -207.5 L-166.25 -209.25 -166.25 -209.65 -165.9 -209.75 -165.9 -210.25 -165.5 -210.65 -159.4 -194.25 -159.25 -194.0 -159.15 -193.65 -155.25 -183.9 -155.4 -183.15 -153.5 -167.75 -154.25 -169.15 -155.0 -172.15 -155.5 -172.75 -155.9 -174.75 -157.9 -179.65 -160.15 -187.15 -161.4 -189.9 -166.5 -204.65 -166.5 -204.75 -166.65 -205.0 -166.75 -205.4 -166.9 -205.75 -167.4 -207.5 -167.5 -207.5" fill="#bf0000" fill-opacity="0.9098039" fill-rule="evenodd" stroke="none"/>
    <path d="M-164.25 -213.15 L-148.75 -174.75 -144.5 -141.15 -145.75 -134.75 -147.25 -130.75 -151.9 -162.9 -152.9 -165.15 -153.5 -167.75 -155.4 -183.15 -155.25 -183.9 -159.15 -193.65 -159.25 -194.0 -159.4 -194.25 -165.5 -210.65 -165.5 -211.0 -164.75 -212.15 -164.25 -213.15" fill="#d00000" fill-rule="evenodd" stroke="none"/>
    <path d="M-165.5 -211.0 L-166.65 -213.9 -164.25 -213.15 -164.75 -212.15 -165.5 -211.0" fill="#b90000" fill-rule="evenodd" stroke="none"/>
    <path d="M-155.4 -300.0 L-154.0 -300.0 -154.0 -299.4 -156.0 -285.9 -164.25 -213.15 -166.65 -213.9 -169.0 -220.0 -166.65 -241.0 -166.75 -241.9 -164.15 -264.15 -164.25 -265.15 -161.5 -287.25 -158.0 -300.0 -157.0 -300.0 -158.4 -285.5 -157.75 -285.5 -155.4 -300.0" fill="#b70000" fill-rule="evenodd" stroke="none"/>
    <path d="M-160.4 -300.0 L-158.0 -300.0 -161.5 -287.25 -161.75 -287.5 -160.75 -297.5 -160.5 -298.0 -160.5 -298.5 -160.4 -299.25 -160.4 -300.0" fill="#be0000" fill-rule="evenodd" stroke="none"/>
    <path d="M-157.0 -300.0 L-155.4 -300.0 -157.75 -285.5 -158.4 -285.5 -157.0 -300.0 M-214.4 -58.5 L-207.0 -55.65 -205.9 -55.0 -190.9 -48.75 -190.25 -48.65 -190.15 -48.5 -190.25 -47.75 -190.15 -47.0 -191.9 -30.75 -193.15 -27.15 -193.25 -26.0 -193.4 -25.65 -193.65 -25.25 -194.0 -22.9 -194.25 -21.9 -194.4 -21.9 -194.5 -22.0 -195.15 -23.25 -195.0 -23.65 -197.15 -28.65 -197.5 -29.25 -200.5 -36.5 -200.5 -37.15 -212.65 -55.25 -212.65 -55.75 -213.5 -56.75 -214.4 -58.5" fill="#ab0000" fill-opacity="0.9098039" fill-rule="evenodd" stroke="none"/>
    <path d="M-147.25 -130.75 L-147.4 -129.9 -147.0 -127.75 -148.75 -119.25 -161.5 -89.0 -178.15 -61.65 -178.4 -60.75 -184.75 -50.65 -185.15 -49.65 -186.4 -47.9 -185.0 -52.5 -184.9 -53.25 -185.65 -55.4 -188.65 -61.0 -188.75 -61.65 -189.0 -61.75 -189.0 -62.25 -188.65 -62.75 -188.4 -63.65 -180.4 -75.75 -185.15 -81.65 -185.15 -83.25 -184.9 -83.5 -167.25 -107.4 -162.9 -118.15 -162.4 -118.5 -162.4 -119.25 -162.0 -120.0 -161.75 -120.25 -161.9 -120.5 -156.15 -135.75 -156.15 -135.9 -156.0 -136.25 -154.25 -142.15 -154.5 -143.75 -153.9 -145.15 -153.75 -146.0 -154.0 -147.15 -155.0 -154.25 -156.4 -166.25 -158.15 -172.25 -158.4 -173.5 -158.5 -174.25 -158.9 -175.4 -158.9 -175.5 -159.75 -178.75 -163.5 -193.25 -163.65 -193.5 -163.9 -194.25 -163.9 -194.4 -164.15 -195.0 -166.5 -204.65 -161.4 -189.9 -160.15 -187.15 -157.9 -179.65 -155.9 -174.75 -155.5 -172.75 -155.0 -172.15 -154.25 -169.15 -153.5 -167.75 -152.9 -165.15 -151.9 -162.9 -147.25 -130.75" fill="#ec0000" fill-rule="evenodd" stroke="none"/>
    <path d="M-187.5 -199.25 L-187.5 -198.75 -192.0 -169.9 -192.25 -168.9 -192.25 -168.25 -192.5 -166.65 -192.75 -166.4 -192.65 -165.75 -195.5 -145.25 -195.4 -144.75 -197.9 -121.0 -197.75 -119.15 -198.75 -110.4 -208.9 -77.15 -209.4 -76.15 -209.25 -75.9 -210.4 -72.25 -210.65 -72.0 -210.9 -71.15 -211.4 -68.5 -213.65 -62.25 -213.5 -61.75 -214.4 -59.4 -214.25 -63.15 -214.4 -63.9 -214.0 -69.75 -214.15 -69.9 -214.0 -70.15 -213.9 -71.65 -214.0 -73.25 -213.9 -74.15 -213.75 -74.4 -213.9 -75.15 -213.9 -75.25 -213.65 -77.15 -213.75 -79.75 -213.4 -80.4 -213.65 -80.75 -213.65 -81.65 -213.4 -81.75 -213.5 -81.75 -212.25 -109.9 -228.15 -108.4 -229.25 -108.5 -253.25 -122.15 -254.65 -121.9 -254.9 -121.75 -270.5 -118.65 -270.75 -118.5 -281.0 -116.5 -280.9 -116.9 -273.65 -127.5 -273.4 -128.9 -273.0 -129.65 -269.25 -134.9 -268.0 -154.15 -267.9 -154.9 -267.15 -171.5 -266.75 -174.75 -266.75 -176.4 -266.65 -176.9 -263.25 -196.4 -263.15 -199.15 -261.5 -208.65 -222.15 -202.65 -187.5 -199.25" fill="#d80000" fill-opacity="0.9098039" fill-rule="evenodd" stroke="none"/>
    <path d="M-214.4 -59.4 L-214.5 -59.4 -214.5 -58.75 -222.9 -61.5 -225.75 -62.65 -226.25 -62.75 -255.9 -73.15 -289.4 -87.5 -306.0 -91.9 -306.25 -92.15 -308.4 -92.5 -293.5 -100.75 -293.4 -100.75 -292.4 -101.4 -291.9 -101.65 -283.4 -114.4 -283.15 -114.75 -282.65 -115.25 -281.0 -116.5 -270.75 -118.5 -270.5 -118.65 -254.9 -121.75 -254.65 -121.9 -253.25 -122.15 -229.25 -108.5 -228.15 -108.4 -212.25 -109.9 -213.5 -81.75 -213.4 -81.75 -213.65 -81.65 -213.65 -80.75 -213.4 -80.4 -213.75 -79.75 -213.65 -77.15 -213.9 -75.25 -213.9 -75.15 -213.75 -74.4 -213.9 -74.15 -214.0 -73.25 -213.9 -71.65 -214.0 -70.15 -214.15 -69.9 -214.0 -69.75 -214.4 -63.9 -214.25 -63.15 -214.4 -59.4" fill="#c70000" fill-opacity="0.9098039" fill-rule="evenodd" stroke="none"/>
    <path d="M-267.15 -171.5 L-267.9 -154.9 -268.0 -154.15 -269.25 -134.9 -273.0 -129.65 -270.25 -152.65 -267.15 -171.5" fill="#e80000" fill-rule="evenodd" stroke="none"/>
    <path d="M-196.5 -0.9 L-199.5 -0.9 -199.5 -1.25 -198.9 -3.75 -198.9 -3.9 -198.75 -4.0 -198.65 -4.4 -198.75 -4.4 -198.65 -4.75 -198.65 -4.9 -198.5 -5.0 -198.4 -5.4 -198.5 -5.4 -198.4 -5.75 -198.4 -5.9 -198.25 -6.0 -198.15 -6.4 -198.25 -6.4 -198.15 -6.75 -198.15 -6.9 -198.0 -7.0 -197.9 -7.4 -198.0 -7.4 -197.9 -7.75 -197.9 -7.9 -197.75 -8.0 -197.65 -8.4 -197.75 -8.4 -197.65 -8.75 -196.5 -0.9 M-159.75 -178.75 L-158.9 -175.5 -159.25 -176.4 -159.25 -176.65 -159.4 -177.0 -159.5 -177.4 -159.65 -177.75 -159.75 -178.75 M-158.5 -174.25 L-158.4 -173.5 -158.5 -173.9 -158.65 -173.9 -158.5 -174.25" fill="#ed0000" fill-rule="evenodd" stroke="none"/>
    <path d="M-185.15 -83.25 L-185.15 -81.65 -186.0 -82.25 -185.15 -83.25" fill="#ef0000" fill-rule="evenodd" stroke="none"/>
    <path d="M-185.15 -81.65 L-180.4 -75.75 -188.4 -63.65 -188.0 -66.75 -188.15 -67.0 -187.9 -68.0 -188.25 -70.0 -188.4 -70.4 -189.25 -79.0 -188.5 -79.25 -188.25 -79.5 -186.0 -82.25 -185.15 -81.65 M-190.25 -48.65 L-189.65 -53.9 -189.25 -54.15 -189.25 -48.25 -190.15 -48.5 -190.25 -48.65" fill="#eb0000" fill-rule="evenodd" stroke="none"/>
    <path d="M-178.4 -60.75 L-177.65 -49.15 -183.15 -0.9 -187.75 -0.9 -186.0 -16.0 -185.0 -46.15 -185.15 -49.65 -184.75 -50.65 -178.4 -60.75" fill="#ae0000" fill-rule="evenodd" stroke="none"/>
    <path d="M-187.75 -0.9 L-189.9 -0.9 -190.15 -11.15 -190.65 -11.9 -190.75 -11.9 -190.9 -12.5 -190.9 -12.75 -189.15 -26.75 -189.15 -48.0 -186.75 -47.15 -186.4 -47.9 -185.15 -49.65 -185.0 -46.15 -186.0 -16.0 -187.75 -0.9" fill="#bb0000" fill-rule="evenodd" stroke="none"/>
    <path d="M-189.0 -61.75 L-188.75 -61.65 -188.65 -61.0 -185.65 -55.4 -184.9 -53.25 -185.0 -52.5 -186.4 -47.9 -186.75 -47.15 -189.15 -48.0 -189.25 -48.25 -189.25 -54.15 -189.0 -61.75" fill="#ea0000" fill-rule="evenodd" stroke="none"/>
    <path d="M-311.15 -93.15 L-309.9 -94.25 -283.4 -114.4 -291.9 -101.65 -292.4 -101.4 -293.4 -100.75 -293.5 -100.75 -308.4 -92.5 -310.9 -93.0 -311.15 -93.15" fill="#d70000" fill-rule="evenodd" stroke="none"/>
    <path d="M-308.9 -92.15 L-309.15 -92.0 -310.9 -93.0 -308.4 -92.5 -308.9 -92.15" fill="#c00000" fill-rule="evenodd" stroke="none"/>
    <path d="M-399.9 -46.9 L-399.9 -70.75 -311.15 -93.15 -310.9 -93.0 -309.15 -92.0 -328.25 -81.25 -350.0 -71.5 -352.25 -70.25 -352.5 -70.15 -352.65 -70.15 -357.4 -67.65 -357.5 -67.65 -380.5 -55.5 -380.75 -55.4 -381.0 -55.25 -381.25 -55.15 -381.4 -55.15 -381.65 -55.0 -381.9 -54.9 -382.15 -54.75 -383.0 -54.4 -383.25 -54.25 -384.15 -53.9 -384.4 -53.75 -385.25 -53.4 -385.5 -53.25 -385.75 -53.15 -386.0 -53.0 -386.4 -52.9 -386.65 -52.75 -386.9 -52.65 -387.15 -52.5 -387.5 -52.4 -387.75 -52.25 -388.0 -52.15 -388.25 -52.0 -388.4 -52.0 -388.75 -51.9 -389.0 -51.75 -389.25 -51.65 -389.5 -51.5 -389.9 -51.4 -390.15 -51.25 -390.4 -51.15 -390.65 -51.0 -391.5 -50.65 -391.75 -50.5 -392.65 -50.15 -392.9 -50.0 -393.75 -49.65 -394.0 -49.5 -394.9 -49.15 -395.15 -49.0 -396.0 -48.65 -396.15 -48.5 -396.25 -48.5 -397.25 -48.0 -397.5 -47.9 -397.65 -47.75 -398.5 -47.5 -399.9 -46.9" fill="#bf0000" fill-rule="evenodd" stroke="none"/>
    <path d="M-255.65 -72.5 L-253.0 -53.5 -252.9 -53.25 -251.15 -40.0 -250.65 -38.4 -248.5 -24.4 -248.5 -22.15 -245.9 -4.9 -245.75 -4.65 -245.25 -0.9 -251.25 -0.9 -251.4 -16.75 -252.5 -37.25 -252.65 -37.75 -252.75 -43.0 -253.0 -43.5 -253.0 -43.75 -253.15 -43.75 -274.0 -26.9 -296.75 -8.65 -296.9 -8.4 -297.5 -8.0 -297.65 -7.75 -298.15 -7.5 -298.25 -7.25 -298.4 -7.15 -298.75 -7.0 -298.9 -6.75 -299.4 -6.4 -299.65 -6.15 -300.0 -5.9 -300.25 -5.65 -300.65 -5.4 -300.9 -5.15 -301.25 -4.9 -301.65 -4.5 -302.0 -4.25 -302.25 -4.0 -302.65 -3.75 -303.0 -3.4 -305.9 -1.15 -306.0 -0.9 -400.0 -0.9 -400.0 -45.5 -399.9 -46.75 -399.9 -46.9 -398.5 -47.5 -397.65 -47.75 -397.5 -47.9 -397.25 -48.0 -396.25 -48.5 -396.15 -48.5 -396.0 -48.65 -395.15 -49.0 -394.9 -49.15 -394.0 -49.5 -393.75 -49.65 -392.9 -50.0 -392.65 -50.15 -391.75 -50.5 -391.5 -50.65 -390.65 -51.0 -390.4 -51.15 -390.15 -51.25 -389.9 -51.4 -389.5 -51.5 -389.25 -51.65 -389.0 -51.75 -388.75 -51.9 -388.4 -52.0 -388.25 -52.0 -388.0 -52.15 -387.75 -52.25 -387.5 -52.4 -387.15 -52.5 -386.9 -52.65 -386.65 -52.75 -386.4 -52.9 -386.0 -53.0 -385.75 -53.15 -385.5 -53.25 -385.25 -53.4 -384.4 -53.75 -384.15 -53.9 -383.25 -54.25 -383.0 -54.4 -382.15 -54.75 -381.9 -54.9 -381.65 -55.0 -381.4 -55.15 -381.25 -55.15 -381.0 -55.25 -380.75 -55.4 -380.5 -55.5 -357.5 -67.65 -357.4 -67.65 -352.65 -70.15 -352.5 -70.15 -352.25 -70.25 -350.0 -71.5 -328.25 -81.25 -309.15 -92.0 -308.9 -92.15 -309.15 -90.5 -308.65 -90.65 -306.0 -91.9 -289.4 -87.5 -255.9 -73.15 -255.65 -72.5" fill="#b00000" fill-opacity="0.9098039" fill-rule="evenodd" stroke="none"/>
    <path d="M-251.25 -0.9 L-276.25 -0.9 -273.9 -25.65 -274.0 -26.9 -253.15 -43.75 -253.0 -43.75 -253.0 -43.5 -252.75 -43.0 -252.65 -37.75 -252.5 -37.25 -251.4 -16.75 -251.25 -0.9" fill="#c10000" fill-rule="evenodd" stroke="none"/>
    <path d="M-276.25 -0.9 L-306.0 -0.9 -305.9 -1.15 -303.0 -3.4 -302.65 -3.75 -302.25 -4.0 -302.0 -4.25 -301.65 -4.5 -301.25 -4.9 -300.9 -5.15 -300.65 -5.4 -300.25 -5.65 -300.0 -5.9 -299.65 -6.15 -299.4 -6.4 -298.9 -6.75 -298.75 -7.0 -298.4 -7.15 -298.25 -7.25 -298.15 -7.5 -297.65 -7.75 -297.5 -8.0 -296.9 -8.4 -296.75 -8.65 -274.0 -26.9 -273.9 -25.65 -276.25 -0.9" fill="#c20000" fill-opacity="0.9098039" fill-rule="evenodd" stroke="none"/>
    <path d="M-200.5 -36.5 L-197.5 -29.25 -197.15 -28.65 -195.0 -23.65 -195.15 -23.25 -194.5 -22.0 -194.4 -21.9 -194.25 -21.9 -194.4 -21.4 -194.4 -21.25 -191.25 -13.5 -194.75 -19.75 -194.75 -20.25 -197.9 -26.0 -198.65 -27.9 -199.0 -30.15 -199.25 -30.65 -200.5 -36.5" fill="#ad0000" fill-rule="evenodd" stroke="none"/>
    <path d="M-194.25 -21.9 L-194.0 -22.9 -193.65 -25.25 -193.4 -25.65 -193.25 -26.0 -193.15 -27.15 -191.9 -30.75 -190.15 -47.0 -190.25 -47.75 -190.15 -48.5 -189.25 -48.25 -189.15 -48.0 -189.15 -26.75 -190.9 -12.75 -191.25 -13.5 -194.4 -21.25 -194.4 -21.4 -194.25 -21.9" fill="#bc0000" fill-rule="evenodd" stroke="none"/>
  </g>
  <defs>
    <radialGradient cx="0" cy="0" gradientTransform="matrix(0.1335, 0.0, 0.0, 0.1335, -189.65, -208.8)" gradientUnits="userSpaceOnUse" id="gradient0" r="819.2" spreadMethod="pad">
      <stop offset="0.0" stop-color="#666666"/>
      <stop offset="1.0" stop-color="#0e0e0e"/>
    </radialGradient>
    <radialGradient cx="0" cy="0" gradientTransform="matrix(0.1046, 0.0, 0.0, 0.1046, -172.7, -214.85)" gradientUnits="userSpaceOnUse" id="gradient1" r="819.2" spreadMethod="pad">
      <stop offset="0.0" stop-color="#696969"/>
      <stop offset="1.0" stop-color="#070707"/>
    </radialGradient>
    <radialGradient cx="0" cy="0" gradientTransform="matrix(0.0997, 0.0, 0.0, 0.0997, -156.05, -135.75)" gradientUnits="userSpaceOnUse" id="gradient2" r="819.2" spreadMethod="pad">
      <stop offset="0.0" stop-color="#838383"/>
      <stop offset="1.0" stop-color="#444444"/>
    </radialGradient>
    <radialGradient cx="0" cy="0" gradientTransform="matrix(0.149, 0.0, 0.0, 0.149, -179.4, -179.2)" gradientUnits="userSpaceOnUse" id="gradient3" r="819.2" spreadMethod="pad">
      <stop offset="0.0" stop-color="#656565"/>
      <stop offset="1.0" stop-color="#1d1d1d"/>
    </radialGradient>
    <radialGradient cx="0" cy="0" gradientTransform="matrix(0.0991, 0.0, 0.0, 0.0991, -169.65, -219.35)" gradientUnits="userSpaceOnUse" id="gradient4" r="819.2" spreadMethod="pad">
      <stop offset="0.0" stop-color="#575757"/>
      <stop offset="1.0" stop-color="#000000"/>
    </radialGradient>
    <radialGradient cx="0" cy="0" gradientTransform="matrix(0.1119, 0.0, 0.0, 0.1119, -156.45, -180.55)" gradientUnits="userSpaceOnUse" id="gradient5" r="819.2" spreadMethod="pad">
      <stop offset="0.0" stop-color="#6a6a6a"/>
      <stop offset="1.0" stop-color="#000000"/>
    </radialGradient>
    <radialGradient cx="0" cy="0" gradientTransform="matrix(0.0541, 0.0, 0.0, 0.0541, -256.65, -260.85)" gradientUnits="userSpaceOnUse" id="gradient6" r="819.2" spreadMethod="pad">
      <stop offset="0.0" stop-color="#000000"/>
      <stop offset="1.0" stop-color="#000000"/>
    </radialGradient>
    <radialGradient cx="0" cy="0" gradientTransform="matrix(0.0966, 0.0, 0.0, 0.0966, -266.65, -176.7)" gradientUnits="userSpaceOnUse" id="gradient7" r="819.2" spreadMethod="pad">
      <stop offset="0.0" stop-color="#000000"/>
      <stop offset="1.0" stop-color="#000000"/>
    </radialGradient>
    <radialGradient cx="0" cy="0" gradientTransform="matrix(0.1173, 0.0, 0.0, 0.1173, -213.6, -80.85)" gradientUnits="userSpaceOnUse" id="gradient8" r="819.2" spreadMethod="pad">
      <stop offset="0.0" stop-color="#464646"/>
      <stop offset="1.0" stop-color="#000000"/>
    </radialGradient>
    <radialGradient cx="0" cy="0" gradientTransform="matrix(0.0923, 0.0, 0.0, 0.0923, -224.0, -147.25)" gradientUnits="userSpaceOnUse" id="gradient9" r="819.2" spreadMethod="pad">
      <stop offset="0.0" stop-color="#6e6e6e"/>
      <stop offset="1.0" stop-color="#232323"/>
    </radialGradient>
    <radialGradient cx="0" cy="0" gradientTransform="matrix(0.1815, 0.0, 0.0, 0.1815, -252.3, -56.75)" gradientUnits="userSpaceOnUse" id="gradient10" r="819.2" spreadMethod="pad">
      <stop offset="0.0" stop-color="#737373"/>
      <stop offset="1.0" stop-color="#000000"/>
    </radialGradient>
    <radialGradient cx="0" cy="0" gradientTransform="matrix(0.0309, 0.0, 0.0, 0.0309, -213.6, -80.85)" gradientUnits="userSpaceOnUse" id="gradient11" r="819.2" spreadMethod="pad">
      <stop offset="0.0" stop-color="#464646"/>
      <stop offset="1.0" stop-color="#2c2c2c"/>
    </radialGradient>
    <radialGradient cx="0" cy="0" gradientTransform="matrix(0.0564, 0.0, 0.0, 0.0564, -247.3, -50.5)" gradientUnits="userSpaceOnUse" id="gradient12" r="819.2" spreadMethod="pad">
      <stop offset="0.0" stop-color="#7f7f7f"/>
      <stop offset="1.0" stop-color="#2e2e2e"/>
    </radialGradient>
    <radialGradient cx="0" cy="0" gradientTransform="matrix(0.0206, 0.0, 0.0, 0.0206, -213.6, -80.85)" gradientUnits="userSpaceOnUse" id="gradient13" r="819.2" spreadMethod="pad">
      <stop offset="0.0" stop-color="#464646"/>
      <stop offset="1.0" stop-color="#000000"/>
    </radialGradient>
    <radialGradient cx="0" cy="0" gradientTransform="matrix(0.0817, 0.0, 0.0, 0.0817, -189.4, -63.7)" gradientUnits="userSpaceOnUse" id="gradient14" r="819.2" spreadMethod="pad">
      <stop offset="0.0" stop-color="#494949"/>
      <stop offset="1.0" stop-color="#101010"/>
    </radialGradient>
    <radialGradient cx="0" cy="0" gradientTransform="matrix(0.0989, 0.0, 0.0, 0.0989, -221.5, -76.8)" gradientUnits="userSpaceOnUse" id="gradient15" r="819.2" spreadMethod="pad">
      <stop offset="0.0" stop-color="#575757"/>
      <stop offset="1.0" stop-color="#010101"/>
    </radialGradient>
    <radialGradient cx="0" cy="0" gradientTransform="matrix(0.196, 0.0, 0.0, 0.196, -247.3, -50.5)" gradientUnits="userSpaceOnUse" id="gradient16" r="819.2" spreadMethod="pad">
      <stop offset="0.0" stop-color="#7f7f7f"/>
      <stop offset="1.0" stop-color="#0e0e0e"/>
    </radialGradient>
    <radialGradient cx="0" cy="0" gradientTransform="matrix(0.1635, 0.0, 0.0, 0.1635, -273.85, -64.25)" gradientUnits="userSpaceOnUse" id="gradient17" r="819.2" spreadMethod="pad">
      <stop offset="0.0" stop-color="#0e0e0e"/>
      <stop offset="1.0" stop-color="#000000"/>
    </radialGradient>
    <radialGradient cx="0" cy="0" gradientTransform="matrix(0.0457, 0.0, 0.0, 0.0457, -252.95, -43.9)" gradientUnits="userSpaceOnUse" id="gradient18" r="819.2" spreadMethod="pad">
      <stop offset="0.0" stop-color="#000000"/>
      <stop offset="1.0" stop-color="#000000"/>
    </radialGradient>
    <radialGradient cx="0" cy="0" gradientTransform="matrix(0.021, 0.0, 0.0, 0.021, -250.1, -1.0)" gradientUnits="userSpaceOnUse" id="gradient19" r="819.2" spreadMethod="pad">
      <stop offset="0.0" stop-color="#000000"/>
      <stop offset="1.0" stop-color="#000000"/>
    </radialGradient>
  </defs>
</svg>
