<?xml version="1.0" encoding="UTF-8" standalone="no"?>
<svg xmlns:xlink="http://www.w3.org/1999/xlink" height="299.1px" width="252.1px" xmlns="http://www.w3.org/2000/svg">
  <g transform="matrix(1.0, 0.0, 0.0, 1.0, 400.0, 300.0)">
    <path d="M-249.4 -300.0 L-168.5 -300.0 -180.75 -258.75 -180.65 -258.25 -181.75 -255.5 -182.5 -233.75 -184.9 -215.0 -188.5 -192.5 -218.9 -195.15 -254.15 -199.65 -249.75 -263.4 -250.0 -263.75 -249.4 -300.0" fill="url(#gradient0)" fill-rule="evenodd" stroke="none"/>
    <path d="M-168.5 -300.0 L-162.5 -300.0 -162.5 -299.4 -162.65 -299.15 -162.65 -298.25 -162.75 -297.9 -162.75 -297.15 -162.9 -296.75 -162.9 -295.9 -163.0 -295.5 -163.0 -294.75 -163.15 -294.4 -163.15 -293.5 -163.25 -293.15 -163.25 -292.4 -163.4 -292.0 -163.4 -291.15 -163.5 -290.75 -163.5 -290.0 -163.65 -289.65 -163.65 -288.75 -163.75 -288.4 -163.75 -287.65 -163.9 -287.25 -163.9 -286.4 -164.0 -286.0 -164.0 -285.25 -164.15 -284.9 -164.15 -284.0 -164.25 -283.65 -164.25 -282.9 -164.4 -282.4 -164.4 -281.75 -164.5 -281.25 -164.5 -280.5 -164.65 -280.0 -164.65 -279.4 -164.75 -278.9 -164.75 -278.15 -164.9 -277.65 -164.9 -277.0 -165.0 -276.5 -165.0 -275.75 -165.15 -275.25 -165.15 -274.65 -165.25 -274.15 -165.25 -273.4 -165.4 -272.9 -165.4 -272.25 -165.5 -271.75 -165.5 -271.0 -165.65 -270.5 -165.65 -269.9 -165.75 -269.4 -165.75 -268.75 -165.9 -268.15 -165.9 -267.5 -166.0 -267.0 -166.0 -266.4 -166.15 -265.75 -166.15 -265.15 -166.25 -264.65 -166.25 -264.0 -166.4 -263.4 -166.4 -262.75 -166.5 -262.25 -166.5 -261.65 -166.65 -261.0 -166.65 -260.4 -166.75 -259.9 -166.75 -259.25 -166.9 -258.65 -166.9 -258.0 -167.0 -257.4 -167.0 -256.9 -167.15 -256.25 -167.15 -255.65 -167.25 -255.0 -167.25 -254.5 -167.4 -253.9 -167.4 -253.4 -167.5 -252.65 -167.5 -252.15 -167.65 -251.5 -167.65 -251.0 -167.75 -250.25 -167.75 -249.75 -167.9 -249.15 -167.9 -248.65 -168.0 -247.9 -168.0 -247.4 -168.15 -246.75 -168.15 -246.25 -168.25 -245.5 -168.25 -245.0 -168.4 -244.4 -168.4 -243.9 -168.5 -243.15 -168.5 -242.65 -168.65 -242.0 -168.65 -241.5 -168.75 -240.75 -168.75 -240.25 -168.9 -239.65 -168.9 -239.15 -169.0 -238.4 -169.0 -237.9 -169.15 -237.25 -169.15 -236.65 -169.25 -236.0 -169.25 -235.5 -169.4 -234.9 -169.4 -234.25 -169.5 -233.65 -169.5 -233.15 -169.65 -232.5 -169.65 -231.9 -169.75 -231.25 -169.75 -230.75 -169.9 -230.0 -169.9 -229.5 -170.0 -228.9 -170.0 -228.4 -170.15 -227.65 -170.15 -227.15 -170.25 -226.5 -170.25 -226.0 -170.4 -225.25 -170.4 -224.75 -170.5 -224.15 -170.5 -223.65 -170.65 -222.9 -170.65 -222.4 -170.75 -221.75 -170.75 -221.25 -170.9 -220.5 -170.9 -220.0 -171.0 -219.4 -171.0 -218.9 -171.15 -218.15 -171.15 -217.65 -171.25 -217.0 -171.25 -216.5 -171.4 -215.75 -171.4 -215.25 -171.5 -214.65 -171.5 -214.0 -171.65 -213.4 -171.65 -212.9 -171.75 -212.25 -171.75 -211.65 -171.9 -211.0 -171.9 -210.5 -172.0 -209.9 -172.0 -209.25 -172.15 -208.65 -172.15 -208.15 -172.25 -207.5 -172.25 -206.9 -172.4 -206.25 -172.4 -205.75 -172.5 -205.0 -172.5 -204.5 -172.65 -203.9 -172.65 -203.75 -172.65 -203.4 -172.75 -202.65 -172.75 -202.15 -172.9 -201.5 -172.9 -201.0 -173.0 -200.25 -173.0 -199.9 -173.25 -198.9 -173.75 -198.65 -188.5 -192.5 -184.9 -215.0 -182.5 -233.75 -181.75 -255.5 -180.65 -258.25 -180.75 -258.75 -168.5 -300.0" fill="url(#gradient1)" fill-rule="evenodd" stroke="none"/>
    <path d="M-155.75 -131.25 L-155.25 -128.0 -155.5 -120.9 -166.65 -92.75 -187.75 -64.5 -210.9 -65.0 -211.0 -65.0 -210.75 -66.0 -210.65 -66.5 -197.9 -111.5 -193.75 -153.4 -188.5 -192.5 -173.75 -198.65 -173.25 -198.9 -173.0 -199.9 -159.4 -159.75 -155.75 -131.25" fill="url(#gradient2)" fill-rule="evenodd" stroke="none"/>
    <path d="M-171.75 -204.5 L-158.75 -169.5 -155.0 -140.9 Q-154.5 -132.15 -155.75 -131.25 L-159.4 -159.75 -173.0 -199.9 -173.0 -200.25 -172.9 -201.0 -172.9 -201.5 -172.75 -202.15 -172.75 -202.65 -172.65 -203.4 -172.65 -203.75 -172.0 -203.75 -171.75 -204.5" fill="url(#gradient3)" fill-rule="evenodd" stroke="none"/>
    <path d="M-162.5 -300.0 L-161.75 -300.0 -161.75 -299.25 -171.75 -204.5 -172.0 -203.75 -172.65 -203.75 -172.65 -203.9 -172.5 -204.5 -172.5 -205.0 -172.4 -205.75 -172.4 -206.25 -172.25 -206.9 -172.25 -207.5 -172.15 -208.15 -172.15 -208.65 -172.0 -209.25 -172.0 -209.9 -171.9 -210.5 -171.9 -211.0 -171.75 -211.65 -171.75 -212.25 -171.65 -212.9 -171.65 -213.4 -171.5 -214.0 -171.5 -214.65 -171.4 -215.25 -171.4 -215.75 -171.25 -216.5 -171.25 -217.0 -171.15 -217.65 -171.15 -218.15 -171.0 -218.9 -171.0 -219.4 -170.9 -220.0 -170.9 -220.5 -170.75 -221.25 -170.75 -221.75 -170.65 -222.4 -170.65 -222.9 -170.5 -223.65 -170.5 -224.15 -170.4 -224.75 -170.4 -225.25 -170.25 -226.0 -170.25 -226.5 -170.15 -227.15 -170.15 -227.65 -170.0 -228.4 -170.0 -228.9 -169.9 -229.5 -169.9 -230.0 -169.75 -230.75 -169.75 -231.25 -169.65 -231.9 -169.65 -232.5 -169.5 -233.15 -169.5 -233.65 -169.4 -234.25 -169.4 -234.9 -169.25 -235.5 -169.25 -236.0 -169.15 -236.65 -169.15 -237.25 -169.0 -237.9 -169.0 -238.4 -168.9 -239.15 -168.9 -239.65 -168.75 -240.25 -168.75 -240.75 -168.65 -241.5 -168.65 -242.0 -168.5 -242.65 -168.5 -243.15 -168.4 -243.9 -168.4 -244.4 -168.25 -245.0 -168.25 -245.5 -168.15 -246.25 -168.15 -246.75 -168.0 -247.4 -168.0 -247.9 -167.9 -248.65 -167.9 -249.15 -167.75 -249.75 -167.75 -250.25 -167.65 -251.0 -167.65 -251.5 -167.5 -252.15 -167.5 -252.65 -167.4 -253.4 -167.4 -253.9 -167.25 -254.5 -167.25 -255.0 -167.15 -255.65 -167.15 -256.25 -167.0 -256.9 -167.0 -257.4 -166.9 -258.0 -166.9 -258.65 -166.75 -259.25 -166.75 -259.9 -166.65 -260.4 -166.65 -261.0 -166.5 -261.65 -166.5 -262.25 -166.4 -262.75 -166.4 -263.4 -166.25 -264.0 -166.25 -264.65 -166.15 -265.15 -166.15 -265.75 -166.0 -266.4 -166.0 -267.0 -165.9 -267.5 -165.9 -268.15 -165.75 -268.75 -165.75 -269.4 -165.65 -269.9 -165.65 -270.5 -165.5 -271.0 -165.5 -271.75 -165.4 -272.25 -165.4 -272.9 -165.25 -273.4 -165.25 -274.15 -165.15 -274.65 -165.15 -275.25 -165.0 -275.75 -165.0 -276.5 -164.9 -277.0 -164.9 -277.65 -164.75 -278.15 -164.75 -278.9 -164.65 -279.4 -164.65 -280.0 -164.5 -280.5 -164.5 -281.25 -164.4 -281.75 -164.4 -282.4 -164.25 -282.9 -164.25 -283.65 -164.15 -284.0 -164.15 -284.9 -164.0 -285.25 -164.0 -286.0 -163.9 -286.4 -163.9 -287.25 -163.75 -287.65 -163.75 -288.4 -163.65 -288.75 -163.65 -289.65 -163.5 -290.0 -163.5 -290.75 -163.4 -291.15 -163.4 -292.0 -163.25 -292.4 -163.25 -293.15 -163.15 -293.5 -163.15 -294.4 -163.0 -294.75 -163.0 -295.5 -162.9 -295.9 -162.9 -296.75 -162.75 -297.15 -162.75 -297.9 -162.65 -298.25 -162.65 -299.15 -162.5 -299.4 -162.5 -300.0" fill="url(#gradient4)" fill-rule="evenodd" stroke="none"/>
    <path d="M-265.25 -203.0 L-264.15 -222.65 -257.4 -243.75 -256.0 -264.75 -263.5 -299.75 -249.4 -300.0 -250.0 -263.75 -249.75 -263.4 -254.15 -199.65 -265.25 -203.0" fill="url(#gradient5)" fill-rule="evenodd" stroke="none"/>
    <path d="M-290.65 -84.4 L-270.25 -118.25 -265.25 -203.0 -254.15 -199.65 -260.5 -151.15 -263.15 -127.4 -264.65 -105.25 -290.65 -84.4" fill="url(#gradient6)" fill-rule="evenodd" stroke="none"/>
    <path d="M-188.5 -192.5 L-193.75 -153.4 -197.9 -111.5 -210.65 -66.5 -210.9 -67.65 -208.9 -111.65 -223.25 -110.25 -243.25 -114.25 -264.65 -105.25 -263.15 -127.4 -260.5 -151.15 -254.15 -199.65 -218.9 -195.15 -188.5 -192.5 M-210.75 -66.0 L-211.0 -65.0 -211.0 -65.9 -210.75 -66.0" fill="url(#gradient7)" fill-rule="evenodd" stroke="none"/>
    <path d="M-400.0 -18.15 L-400.0 -23.75 -377.9 -34.5 -378.0 -34.25 -378.25 -34.15 -382.15 -32.0 -382.25 -31.75 -381.5 -31.9 Q-379.6 -32.75 -377.75 -33.65 L-369.0 -36.75 -400.0 -18.15 M-210.65 -66.5 L-210.75 -66.0 -211.0 -65.9 -211.4 -65.75 -220.4 -70.5 -214.4 -78.25 -212.9 -74.9 -210.9 -67.65 -210.65 -66.5 M-210.65 -64.25 L-210.65 -60.0 -212.5 -57.25 -213.9 -56.65 -218.75 -55.65 -210.75 -64.5 -210.65 -64.25" fill="url(#gradient8)" fill-rule="evenodd" stroke="none"/>
    <path d="M-291.25 -83.75 L-290.65 -84.4 -264.65 -105.25 -243.25 -114.25 -223.25 -110.25 -208.9 -111.65 -210.9 -67.65 -212.9 -74.9 -214.4 -78.25 -220.4 -70.5 -211.4 -65.75 -211.0 -65.9 -211.0 -65.0 -269.15 -46.4 -294.65 -58.4 -305.4 -61.5 -291.5 -82.9 -291.25 -83.75" fill="url(#gradient9)" fill-rule="evenodd" stroke="none"/>
    <path d="M-187.75 -64.5 L-193.15 -62.75 -203.9 -59.5 -210.75 -64.5 -210.9 -65.0 -187.75 -64.5" fill="url(#gradient10)" fill-rule="evenodd" stroke="none"/>
    <path d="M-211.0 -65.0 L-210.9 -65.0 -210.75 -64.5 -218.75 -55.65 -213.9 -56.65 -212.5 -57.25 -210.65 -60.0 -210.65 -64.25 -206.65 -58.5 -213.65 -53.75 -241.15 -34.65 -244.0 -33.65 -269.15 -46.4 -211.0 -65.0" fill="url(#gradient11)" fill-rule="evenodd" stroke="none"/>
    <path d="M-386.25 -0.9 L-400.0 -0.9 -400.0 -18.15 -369.0 -36.75 -377.75 -33.65 Q-379.6 -32.75 -381.5 -31.9 L-382.25 -31.75 -382.15 -32.0 -378.25 -34.15 -378.0 -34.25 -377.75 -34.5 -377.65 -34.5 -377.5 -34.65 -377.4 -34.65 -377.25 -34.75 -377.15 -34.75 -376.9 -35.0 -376.75 -35.0 -376.5 -35.15 -376.25 -35.25 Q-362.1 -43.35 -348.0 -51.5 L-325.65 -62.4 -291.25 -83.75 -291.5 -82.9 -305.4 -61.5 -294.65 -58.4 -269.15 -46.4 -314.25 -46.25 -335.5 -31.15 Q-360.85 -16.0 -386.25 -0.9" fill="url(#gradient12)" fill-rule="evenodd" stroke="none"/>
    <path d="M-377.9 -34.5 L-377.75 -34.5 -377.5 -34.65 -377.25 -34.75 -376.9 -35.0 -377.15 -34.75 -377.25 -34.75 -377.4 -34.65 -377.5 -34.65 -377.65 -34.5 -377.75 -34.5 -378.0 -34.25 -377.9 -34.5" fill="url(#gradient13)" fill-rule="evenodd" stroke="none"/>
    <path d="M-206.65 -58.5 L-210.65 -64.25 -210.75 -64.5 -203.9 -59.5 -199.15 -55.65 -206.65 -58.5" fill="url(#gradient14)" fill-rule="evenodd" stroke="none"/>
    <path d="M-193.15 -62.75 L-192.0 -53.75 -195.9 -16.25 -199.25 -1.0 -215.25 -0.9 -216.0 -27.75 -213.65 -53.75 -206.65 -58.5 -199.15 -55.65 -203.9 -59.5 -193.15 -62.75" fill="url(#gradient15)" fill-rule="evenodd" stroke="none"/>
    <path d="M-215.25 -0.9 L-251.9 -0.9 -250.25 -26.65 -241.15 -34.65 -213.65 -53.75 -216.0 -27.75 -215.25 -0.9" fill="url(#gradient16)" fill-rule="evenodd" stroke="none"/>
    <path d="M-256.9 -20.9 L-279.5 -0.9 -386.25 -0.9 Q-360.85 -16.0 -335.5 -31.15 L-314.25 -46.25 -269.15 -46.4 -244.0 -33.65 -241.15 -34.65 -250.25 -26.65 -256.9 -20.9" fill="url(#gradient17)" fill-rule="evenodd" stroke="none"/>
    <path d="M-251.9 -0.9 L-255.4 -0.9 -255.5 -1.15 -256.75 -20.75 -256.9 -20.9 -250.25 -26.65 -251.9 -0.9" fill="url(#gradient18)" fill-rule="evenodd" stroke="none"/>
    <path d="M-265.0 -300.0 L-263.5 -300.0 -257.4 -271.5 -257.4 -271.4 -257.15 -270.0 -257.0 -269.75 -257.0 -269.25 -256.0 -264.9 -256.15 -264.4 -257.4 -243.65 -257.5 -243.25 -258.65 -240.5 -257.4 -261.5 -265.0 -300.0" fill="#ef0000" fill-rule="evenodd" stroke="none"/>
    <path d="M-263.5 -300.0 L-225.25 -299.75 -213.15 -300.0 -207.75 -299.75 -163.75 -300.0 -164.65 -297.75 -165.0 -295.5 -175.75 -260.75 -176.15 -260.25 -176.0 -259.9 -178.25 -252.9 -179.15 -237.15 -179.25 -236.75 -179.15 -235.65 -179.5 -231.0 -179.4 -230.65 -181.15 -215.15 -181.4 -214.75 -181.25 -214.0 -182.15 -208.75 -182.0 -208.4 -184.15 -194.4 -184.25 -194.25 -185.25 -188.4 -185.25 -188.0 -186.0 -183.15 -220.65 -186.0 -261.25 -191.75 -260.25 -214.15 -260.5 -215.25 -259.0 -238.65 -259.0 -238.9 -258.65 -240.5 -257.5 -243.25 -257.4 -243.65 -256.15 -264.4 -256.0 -264.9 -257.0 -269.25 -257.0 -269.75 -257.15 -270.0 -257.4 -271.4 -257.4 -271.5 -263.5 -300.0" fill="#dd0000" fill-opacity="0.9098039" fill-rule="evenodd" stroke="none"/>
    <path d="M-190.25 -0.9 L-191.0 -0.9 -191.4 -1.5 -191.65 -0.9 -192.25 -0.9 -193.25 -5.4 -194.0 -7.4 -196.15 -16.0 -196.15 -16.25 -196.0 -16.65 -196.0 -17.15 -196.25 -17.75 -196.5 -18.9 -196.15 -18.25 -195.9 -17.9 -196.25 -17.75 -196.0 -17.25 -196.0 -17.15 -191.4 -4.25 -191.4 -4.0 -191.25 -3.25 -190.25 -0.9 M-273.75 -196.15 L-272.9 -218.0 -265.5 -239.65 -264.15 -261.15 -264.4 -264.75 -272.5 -299.5 -272.5 -300.0 -265.0 -300.0 -257.4 -261.5 -258.65 -240.5 -259.0 -238.9 -259.0 -238.65 -264.0 -223.4 -265.25 -203.0 -265.5 -202.4 -273.75 -196.15" fill="#ac0000" fill-rule="evenodd" stroke="none"/>
    <path d="M-191.0 -0.9 L-191.65 -0.9 -191.4 -1.5 -191.0 -0.9 M-309.15 -75.75 L-280.4 -104.75 -277.65 -125.75 -273.75 -196.15 -265.5 -202.4 -265.4 -202.4 -265.4 -202.0 -266.0 -193.4 -265.9 -193.25 -267.65 -159.75 -267.75 -159.25 -269.4 -131.65 -269.4 -131.5 -269.75 -126.15 -269.9 -125.4 -269.9 -125.0 -270.25 -121.25 -270.25 -120.75 -270.65 -118.0 -271.0 -117.0 -283.75 -95.75 -284.25 -95.15 -309.15 -75.75" fill="#ab0000" fill-rule="evenodd" stroke="none"/>
    <path d="M-261.25 -191.75 L-263.0 -180.0 -263.15 -177.5 -266.0 -157.75 -265.75 -157.25 -266.65 -153.0 -266.65 -151.15 -268.5 -138.15 -268.4 -137.5 -268.75 -136.9 -268.65 -135.0 -269.4 -131.65 -267.75 -159.25 -267.65 -159.75 -265.9 -193.25 -266.0 -193.4 -265.4 -202.0 -265.4 -202.4 -265.5 -202.4 -265.25 -203.0 -264.0 -223.4 -259.0 -238.65 -260.5 -215.25 -260.25 -214.15 -261.25 -191.75 M-271.0 -117.0 L-271.65 -110.65 -279.4 -99.15 -283.75 -95.75 -271.0 -117.0" fill="#9b0000" fill-opacity="0.9098039" fill-rule="evenodd" stroke="none"/>
    <path d="M-156.75 -300.0 L-156.25 -300.0 -156.25 -299.15 -159.0 -278.15 -159.15 -278.5 -159.15 -279.15 -158.9 -279.25 -159.0 -279.5 -156.75 -300.0 M-163.75 -300.0 L-162.5 -299.75 -161.9 -300.0 -162.25 -295.5 -162.4 -295.25 -163.65 -283.5 -163.65 -282.5 -163.75 -282.4 -163.75 -282.25 -164.25 -276.65 -164.4 -276.4 -164.75 -272.9 -165.0 -271.75 -164.9 -271.0 -164.9 -270.75 -167.25 -249.25 -167.25 -248.65 -169.75 -226.4 -169.75 -225.65 -171.65 -207.75 -171.75 -204.4 -169.5 -198.65 -167.9 -194.5 -168.0 -193.75 -168.25 -193.0 -168.15 -192.15 -168.4 -191.65 -168.5 -190.75 -170.15 -190.0 -170.5 -189.9 -186.0 -183.15 -185.25 -188.0 -185.25 -188.4 -184.25 -194.25 -184.15 -194.4 -182.0 -208.4 -182.15 -208.75 -181.25 -214.0 -181.4 -214.75 -181.15 -215.15 -179.4 -230.65 -179.5 -231.0 -179.15 -235.65 -179.25 -236.75 -179.15 -237.15 -178.25 -252.9 -176.0 -259.9 -176.15 -260.25 -175.75 -260.75 -165.0 -295.5 -164.65 -297.75 -163.75 -300.0" fill="#ab0000" fill-opacity="0.9098039" fill-rule="evenodd" stroke="none"/>
    <path d="M-186.0 -183.15 L-170.5 -189.9 -170.15 -190.0 -168.5 -190.75 -168.4 -191.65 -168.25 -191.65 -167.9 -190.4 -167.75 -190.15 -167.75 -190.0 -164.5 -176.5 -164.25 -175.9 -164.25 -175.75 -163.9 -174.75 -163.15 -171.4 -162.75 -169.5 -162.75 -169.4 -162.65 -168.9 -162.5 -168.75 -162.25 -168.0 -162.25 -167.9 -162.15 -167.4 -162.0 -167.25 -159.4 -159.5 -159.4 -157.75 -157.9 -148.9 -157.75 -148.5 -157.75 -147.9 -157.65 -147.5 -157.65 -147.0 -157.5 -146.5 -157.5 -146.0 -157.4 -145.5 -157.4 -145.15 -157.25 -144.65 -157.25 -144.15 -157.15 -143.65 -157.15 -143.25 -157.0 -142.65 -157.0 -142.4 -156.9 -141.65 -156.9 -141.4 -156.75 -140.65 -156.75 -140.5 -156.65 -139.65 -156.65 -139.5 -156.5 -138.75 -156.5 -138.65 -156.25 -137.9 -156.4 -137.25 -155.75 -135.25 -155.65 -133.0 -155.4 -132.75 -155.5 -131.4 -155.9 -131.25 -155.25 -127.9 -155.65 -121.15 -166.75 -92.9 -187.0 -65.25 -187.75 -64.5 -193.15 -62.75 -192.0 -54.25 -192.65 -50.25 -192.4 -49.9 -192.75 -48.65 -192.75 -48.25 -192.9 -47.4 -192.9 -47.0 -193.0 -46.25 -193.0 -45.75 -193.15 -44.75 -193.15 -44.65 -193.75 -39.0 -193.75 -38.5 -193.9 -37.75 -193.9 -36.75 -194.0 -36.5 -194.0 -35.9 -194.25 -35.9 -211.25 -42.75 -211.15 -43.9 -207.0 -58.25 -206.75 -58.5 -206.75 -59.0 -206.0 -61.0 -196.4 -94.15 -195.5 -101.25 -195.65 -102.75 -192.9 -128.25 -193.0 -128.75 -190.4 -149.9 -190.5 -150.15 -186.0 -183.15" fill="#db0000" fill-opacity="0.9098039" fill-rule="evenodd" stroke="none"/>
    <path d="M-168.4 -191.65 L-168.15 -192.15 -168.25 -193.0 -168.0 -193.75 -158.75 -169.5 -158.15 -163.75 -158.5 -164.0 -158.5 -164.15 -159.15 -165.5 -159.0 -166.0 -159.4 -166.75 -159.65 -167.4 -159.65 -167.5 -159.9 -167.9 -165.15 -183.5 -165.25 -183.9 -167.75 -190.0 -167.75 -190.15 -167.9 -190.4 -168.25 -191.65 -168.4 -191.65" fill="#bf0000" fill-opacity="0.9098039" fill-rule="evenodd" stroke="none"/>
    <path d="M-167.25 -197.75 L-152.5 -160.4 -148.4 -131.0 -147.9 -120.65 -148.65 -119.0 -152.65 -148.15 -157.5 -161.25 -158.15 -163.75 -158.75 -169.5 -168.0 -193.75 -167.9 -194.5 -167.25 -197.75" fill="#d00000" fill-rule="evenodd" stroke="none"/>
    <path d="M-167.25 -198.15 L-167.25 -197.75 -167.9 -194.5 -169.5 -198.65 -167.25 -198.15" fill="#bb0000" fill-rule="evenodd" stroke="none"/>
    <path d="M-156.75 -300.0 L-159.0 -279.5 -158.9 -279.25 -159.15 -279.15 -159.15 -278.5 -159.0 -278.15 -167.25 -198.15 -169.5 -198.65 -171.75 -204.4 -171.65 -207.75 -169.75 -225.65 -169.75 -226.4 -167.25 -248.65 -167.25 -249.25 -164.9 -270.75 -164.9 -271.0 -165.0 -271.75 -164.75 -272.9 -164.4 -276.4 -164.25 -276.65 -163.75 -282.25 -163.75 -282.4 -163.65 -282.5 -159.0 -300.0 -156.75 -300.0" fill="#ba0000" fill-rule="evenodd" stroke="none"/>
    <path d="M-161.9 -300.0 L-159.0 -300.0 -163.65 -282.5 -163.65 -283.5 -162.4 -295.25 -162.25 -295.5 -161.9 -300.0" fill="#c00000" fill-rule="evenodd" stroke="none"/>
    <path d="M-186.0 -183.15 L-190.5 -150.15 -190.4 -149.9 -193.0 -128.75 -192.9 -128.25 -195.65 -102.75 -195.5 -101.25 -196.4 -94.15 -206.0 -61.0 -206.75 -59.0 -206.75 -58.5 -207.0 -58.25 -211.15 -43.9 -211.4 -45.15 -210.9 -55.75 -210.75 -55.9 -210.75 -59.75 -210.9 -59.9 -210.5 -64.15 -210.5 -64.25 -210.65 -64.65 -210.4 -65.0 -210.75 -66.0 -210.5 -66.25 -210.65 -66.5 -210.15 -68.25 -209.25 -94.0 -209.65 -93.9 -224.25 -92.0 -225.9 -92.25 -250.0 -105.15 -252.0 -104.9 -252.4 -104.65 -265.5 -102.0 -265.75 -101.9 -269.65 -101.15 -269.9 -101.0 -279.4 -99.15 -271.65 -110.65 -271.0 -117.0 -270.65 -118.0 -270.25 -118.25 -270.25 -120.75 -270.25 -121.25 -269.9 -125.0 -269.9 -125.4 -269.75 -126.15 -269.4 -131.5 -269.4 -131.65 -268.65 -135.0 -268.75 -136.9 -268.4 -137.5 -268.5 -138.15 -266.65 -151.15 -266.65 -153.0 -265.75 -157.25 -266.0 -157.75 -263.15 -177.5 -263.0 -180.0 -261.25 -191.75 -220.65 -186.0 -186.0 -183.15" fill="#d80000" fill-opacity="0.9098039" fill-rule="evenodd" stroke="none"/>
    <path d="M-148.65 -119.0 L-148.75 -118.15 -148.15 -115.4 -147.9 -105.25 -160.65 -74.75 -182.0 -39.15 -182.0 -38.25 -182.4 -38.4 -182.65 -37.65 -185.0 -34.15 -185.15 -33.4 -185.75 -32.9 -185.0 -36.9 -184.9 -39.4 -190.15 -47.4 -190.15 -47.9 -182.25 -60.4 -187.0 -65.25 -166.75 -92.9 -155.65 -121.15 -155.25 -127.9 -155.9 -131.25 -155.5 -131.4 -155.4 -132.75 -155.65 -133.0 -155.75 -135.25 -156.4 -137.25 -156.25 -137.9 -156.5 -138.65 -156.5 -138.75 -156.65 -139.5 -156.65 -139.65 -156.75 -140.5 -156.75 -140.65 -156.9 -141.4 -156.9 -141.65 -157.0 -142.4 -157.0 -142.65 -157.15 -143.25 -157.15 -143.65 -157.25 -144.15 -157.25 -144.65 -157.4 -145.15 -157.4 -145.5 -157.5 -146.0 -157.5 -146.5 -157.65 -147.0 -157.65 -147.5 -157.75 -147.9 -157.75 -148.5 -157.9 -148.9 -159.4 -157.75 -159.4 -159.5 -162.0 -167.25 -162.15 -167.4 -162.25 -167.9 -162.25 -168.0 -163.15 -171.4 -163.9 -174.75 -164.25 -175.75 -164.25 -175.9 -164.5 -176.5 -167.75 -190.0 -165.25 -183.9 -165.15 -183.5 -159.9 -167.9 -159.65 -167.5 -159.65 -167.4 -159.4 -166.75 -159.0 -166.0 -159.15 -165.5 -158.5 -164.15 -158.5 -164.0 -158.15 -163.75 -157.5 -161.25 -152.65 -148.15 -148.65 -119.0" fill="#ec0000" fill-rule="evenodd" stroke="none"/>
    <path d="M-163.15 -171.4 L-162.25 -168.0 -162.5 -168.75 -162.65 -168.9 -162.75 -169.4 -162.75 -169.5 -163.15 -171.4" fill="#ed0000" fill-rule="evenodd" stroke="none"/>
    <path d="M-279.4 -99.15 L-269.9 -101.0 -269.65 -101.15 -265.75 -101.9 -265.5 -102.0 -252.4 -104.65 -252.0 -104.9 -250.0 -105.15 -225.9 -92.25 -224.25 -92.0 -209.65 -93.9 -209.25 -94.0 -210.15 -68.25 -210.65 -66.5 -210.5 -66.25 -210.75 -66.0 -210.4 -65.0 -210.65 -64.65 -210.5 -64.25 -210.5 -64.15 -210.9 -59.9 -210.75 -59.75 -210.75 -55.9 -210.9 -55.75 -211.4 -45.15 -211.15 -43.9 -211.25 -42.75 -212.15 -43.0 -213.0 -43.5 -214.4 -43.75 -215.75 -44.4 -216.15 -44.4 -245.0 -54.0 -245.4 -54.0 -251.0 -55.9 -285.0 -69.5 -303.9 -73.65 -304.25 -74.0 -306.75 -74.25 -292.25 -83.15 -292.0 -83.25 -290.9 -84.0 -284.25 -95.15 -283.75 -95.75 -279.4 -99.15" fill="#c70000" fill-opacity="0.9098039" fill-rule="evenodd" stroke="none"/>
    <path d="M-270.25 -120.75 L-270.25 -118.25 -270.65 -118.0 -270.25 -120.75" fill="#e80000" fill-rule="evenodd" stroke="none"/>
    <path d="M-187.0 -65.25 L-182.25 -60.4 -190.15 -47.9 -190.15 -47.4 -190.25 -34.25 -193.9 -35.75 -194.0 -35.9 -194.0 -36.5 -193.9 -36.75 -193.9 -37.75 -193.75 -38.5 -193.75 -39.0 -193.15 -44.65 -193.15 -44.75 -193.0 -45.75 -193.0 -46.25 -192.9 -47.0 -192.9 -47.4 -192.75 -48.25 -192.75 -48.65 -192.4 -49.9 -192.65 -50.25 -192.0 -54.25 -193.15 -62.75 -187.75 -64.5 -187.0 -65.25" fill="#eb0000" fill-rule="evenodd" stroke="none"/>
    <path d="M-211.25 -42.75 L-194.25 -35.9 -194.0 -35.9 -193.9 -35.75 -194.15 -35.0 -194.15 -34.5 -194.25 -34.15 -194.25 -33.9 -194.5 -31.65 -194.5 -31.25 -194.65 -30.4 -194.65 -30.0 -194.5 -29.25 -194.75 -29.15 -194.75 -28.75 -194.9 -28.0 -194.9 -27.65 -195.0 -26.75 -195.0 -26.4 -195.65 -20.75 -195.65 -20.4 -195.75 -19.65 -195.75 -18.75 -195.9 -18.25 -195.9 -17.9 -196.0 -17.25 -196.25 -17.75 -195.9 -17.9 -196.15 -18.25 -196.5 -18.9 -197.0 -19.75 -197.15 -20.65 -197.15 -20.75 -197.25 -21.0 -197.25 -21.75 -210.4 -41.15 -210.65 -41.75 -211.15 -42.25 -211.15 -42.4 -211.25 -42.75" fill="#b50000" fill-opacity="0.9098039" fill-rule="evenodd" stroke="none"/>
    <path d="M-182.0 -38.25 L-182.0 -37.5 -182.5 -37.25 -182.65 -37.65 -182.4 -38.4 -182.0 -38.25 M-182.65 -37.0 L-182.25 -37.15 -182.4 -35.4 -182.65 -37.0" fill="#af0000" fill-rule="evenodd" stroke="none"/>
    <path d="M-182.0 -37.5 L-181.9 -34.9 -185.5 -1.65 -185.65 -0.9 -186.15 -0.9 -185.0 -32.15 -185.15 -33.4 -185.0 -34.15 -182.65 -37.65 -182.5 -37.25 -182.0 -37.5 M-182.65 -37.0 L-182.4 -35.4 -182.25 -37.15 -182.65 -37.0" fill="#ae0000" fill-rule="evenodd" stroke="none"/>
    <path d="M-186.15 -0.9 L-190.25 -0.9 -191.25 -3.25 -191.4 -4.0 -191.4 -4.25 -190.25 -11.9 -190.25 -34.25 -185.75 -32.5 -185.75 -32.9 -185.15 -33.4 -185.0 -32.15 -186.15 -0.9" fill="#c50000" fill-rule="evenodd" stroke="none"/>
    <path d="M-190.15 -47.4 L-184.9 -39.4 -185.0 -36.9 -185.75 -32.9 -185.75 -32.5 -190.25 -34.25 -190.15 -47.4" fill="#ea0000" fill-rule="evenodd" stroke="none"/>
    <path d="M-310.0 -74.9 L-309.15 -75.75 -284.25 -95.15 -290.9 -84.0 -292.0 -83.25 -292.25 -83.15 -306.75 -74.25 -309.5 -74.75 -310.0 -74.9" fill="#d70000" fill-rule="evenodd" stroke="none"/>
    <path d="M-255.5 -0.9 L-275.75 -0.9 -275.4 -4.0 -275.5 -4.4 -263.15 -15.4 -263.15 -15.5 -261.25 -17.0 -261.15 -17.25 -260.4 -17.75 -260.15 -18.15 Q-259.8 -18.3 -259.5 -18.5 L-259.15 -19.0 -258.5 -19.4 -258.0 -20.0 -257.65 -20.15 -256.9 -20.9 -256.75 -20.75 -255.65 -2.0 -255.5 -0.9 M-307.15 -73.9 L-307.5 -73.75 -309.5 -74.75 -306.75 -74.25 -307.15 -73.9" fill="#bf0000" fill-rule="evenodd" stroke="none"/>
    <path d="M-400.0 -23.9 L-399.9 -49.15 -310.0 -74.9 -309.5 -74.75 -307.5 -73.75 -325.9 -62.25 -326.65 -61.9 -326.75 -61.9 -348.9 -50.9 -349.5 -50.5 -349.65 -50.5 -349.9 -50.25 -350.0 -50.25 -376.25 -35.25 -376.5 -35.15 -376.75 -35.0 -376.9 -35.0 -377.25 -34.75 -377.5 -34.65 -377.75 -34.5 -377.9 -34.5 -378.65 -34.15 -383.0 -32.0 -383.25 -31.9 -383.5 -31.75 -383.75 -31.65 -384.0 -31.5 -384.25 -31.4 -384.5 -31.25 -387.4 -29.9 -387.65 -29.75 -387.9 -29.65 -388.15 -29.5 -388.4 -29.4 -388.65 -29.25 -388.9 -29.15 -389.15 -29.0 -389.4 -28.9 -389.65 -28.75 -389.9 -28.65 -390.15 -28.5 -392.0 -27.65 -392.25 -27.5 -392.5 -27.4 -392.75 -27.25 -393.0 -27.15 -393.25 -27.0 -393.5 -26.9 -393.75 -26.75 -394.0 -26.65 -394.25 -26.5 -394.5 -26.4 -394.75 -26.25 -395.0 -26.15 -395.25 -26.0 -395.5 -25.9 -395.75 -25.75 -396.0 -25.65 -396.15 -25.65 -396.75 -25.4 -397.0 -25.25 -397.25 -25.15 -397.5 -25.0 -397.75 -24.9 -398.4 -24.5 -398.65 -24.4 -398.9 -24.25 -399.15 -24.15 -399.4 -24.0 -399.65 -23.9 -400.0 -23.9" fill="#be0000" fill-rule="evenodd" stroke="none"/>
    <path d="M-250.75 -55.25 L-246.9 -31.65 -247.0 -31.4 -246.75 -31.15 -246.9 -30.75 -246.65 -30.0 -246.65 -29.4 -246.25 -29.15 -246.25 -26.9 -241.65 -0.9 -255.5 -0.9 -255.65 -2.0 -256.75 -20.75 -256.9 -20.9 -257.65 -20.15 -258.0 -20.0 -258.5 -19.4 -259.15 -19.0 -259.5 -18.5 Q-259.8 -18.3 -260.15 -18.15 L-260.4 -17.75 -261.15 -17.25 -261.25 -17.0 -263.15 -15.5 -263.15 -15.4 -275.5 -4.4 -279.5 -0.9 -400.0 -0.9 -400.0 -17.65 -399.9 -18.0 -400.0 -23.9 -399.65 -23.9 -399.4 -24.0 -399.15 -24.15 -398.9 -24.25 -398.65 -24.4 -398.4 -24.5 -397.75 -24.9 -397.5 -25.0 -397.25 -25.15 -397.0 -25.25 -396.75 -25.4 -396.15 -25.65 -396.0 -25.65 -395.75 -25.75 -395.5 -25.9 -395.25 -26.0 -395.0 -26.15 -394.75 -26.25 -394.5 -26.4 -394.25 -26.5 -394.0 -26.65 -393.75 -26.75 -393.5 -26.9 -393.25 -27.0 -393.0 -27.15 -392.75 -27.25 -392.5 -27.4 -392.25 -27.5 -392.0 -27.65 -390.15 -28.5 -389.9 -28.65 -389.65 -28.75 -389.4 -28.9 -389.15 -29.0 -388.9 -29.15 -388.65 -29.25 -388.4 -29.4 -388.15 -29.5 -387.9 -29.65 -387.65 -29.75 -387.4 -29.9 -384.5 -31.25 -384.25 -31.4 -384.0 -31.5 -383.75 -31.65 -383.5 -31.75 -383.25 -31.9 -383.0 -32.0 -378.65 -34.15 -377.9 -34.5 -377.75 -34.5 -377.5 -34.65 -377.25 -34.75 -376.9 -35.0 -376.75 -35.0 -376.5 -35.15 -376.25 -35.25 -350.0 -50.25 -349.9 -50.25 -349.65 -50.5 -349.5 -50.5 -348.9 -50.9 -326.75 -61.9 -326.65 -61.9 -325.9 -62.25 -307.5 -73.75 -307.15 -73.9 -306.9 -72.0 -306.5 -72.25 -306.15 -72.4 -306.15 -72.5 Q-305.0 -73.05 -303.9 -73.65 L-285.0 -69.5 -251.0 -55.9 -250.75 -55.25" fill="#ae0000" fill-opacity="0.9098039" fill-rule="evenodd" stroke="none"/>
    <path d="M-199.4 -0.9 L-223.5 -0.9 -226.0 -5.75 -226.25 -6.75 -228.65 -11.0 -228.75 -11.75 -236.65 -26.9 -236.75 -27.4 -236.9 -27.4 -236.9 -28.0 -237.25 -28.25 -240.5 -35.0 -240.9 -35.5 -241.15 -36.15 -250.75 -55.25 -251.0 -55.9 -245.4 -54.0 -245.0 -54.0 -216.15 -44.4 -215.75 -44.4 -214.4 -43.75 -213.0 -43.5 -212.15 -43.0 -211.25 -42.75 -211.15 -42.4 -211.15 -42.25 -210.65 -41.75 -210.4 -41.15 -196.65 -12.75 -196.5 -12.15 -196.75 -11.75 -197.0 -11.0 -196.9 -10.65 -199.4 -0.9" fill="#d50000" fill-opacity="0.9098039" fill-rule="evenodd" stroke="none"/>
    <path d="M-275.75 -0.9 L-279.5 -0.9 -275.5 -4.4 -275.4 -4.0 -275.75 -0.9" fill="#c00000" fill-opacity="0.9098039" fill-rule="evenodd" stroke="none"/>
    <path d="M-192.25 -0.9 L-199.4 -0.9 -196.9 -10.65 -197.0 -11.0 -196.75 -11.75 -196.5 -12.15 -196.65 -12.9 -196.65 -12.75 -210.4 -41.15 -197.25 -21.75 -197.25 -21.0 -197.15 -20.75 -197.15 -20.65 -197.0 -19.75 -196.5 -18.9 -196.25 -17.75 -196.0 -17.15 -196.0 -16.65 -196.15 -16.25 -196.15 -16.0 -194.0 -7.4 -193.25 -5.4 -192.25 -0.9" fill="#e60000" fill-rule="evenodd" stroke="none"/>
    <path d="M-196.65 -12.75 L-196.65 -12.9 -196.5 -12.15 -196.65 -12.75" fill="#e70000" fill-rule="evenodd" stroke="none"/>
    <path d="M-195.9 -17.9 L-195.9 -18.25 -195.75 -18.75 -195.75 -19.65 -195.65 -20.4 -195.65 -20.75 -195.0 -26.4 -195.0 -26.75 -194.9 -27.65 -194.9 -28.0 -194.75 -28.75 -194.75 -29.15 -194.5 -29.25 -194.65 -30.0 -194.65 -30.4 -194.5 -31.25 -194.5 -31.65 -194.25 -33.9 -194.25 -34.15 -194.15 -34.5 -194.15 -35.0 -193.9 -35.75 -190.25 -34.25 -190.25 -11.9 -191.4 -4.25 -196.0 -17.15 -196.0 -17.25 -195.9 -17.9" fill="#c60000" fill-rule="evenodd" stroke="none"/>
  </g>
  <defs>
    <radialGradient cx="0" cy="0" gradientTransform="matrix(0.1507, 0.0, 0.0, 0.1507, -188.55, -192.6)" gradientUnits="userSpaceOnUse" id="gradient0" r="819.2" spreadMethod="pad">
      <stop offset="0.0" stop-color="#666666"/>
      <stop offset="1.0" stop-color="#0e0e0e"/>
    </radialGradient>
    <radialGradient cx="0" cy="0" gradientTransform="matrix(0.124, 0.0, 0.0, 0.124, -173.25, -199.05)" gradientUnits="userSpaceOnUse" id="gradient1" r="819.2" spreadMethod="pad">
      <stop offset="0.0" stop-color="#696969"/>
      <stop offset="1.0" stop-color="#070707"/>
    </radialGradient>
    <radialGradient cx="0" cy="0" gradientTransform="matrix(0.0987, 0.0, 0.0, 0.0987, -155.6, -121.1)" gradientUnits="userSpaceOnUse" id="gradient2" r="819.2" spreadMethod="pad">
      <stop offset="0.0" stop-color="#838383"/>
      <stop offset="1.0" stop-color="#444444"/>
    </radialGradient>
    <radialGradient cx="0" cy="0" gradientTransform="matrix(0.0752, 0.0, 0.0, 0.0752, -158.95, -165.85)" gradientUnits="userSpaceOnUse" id="gradient3" r="819.2" spreadMethod="pad">
      <stop offset="0.0" stop-color="#6a6a6a"/>
      <stop offset="1.0" stop-color="#1a1a1a"/>
    </radialGradient>
    <radialGradient cx="0" cy="0" gradientTransform="matrix(0.118, 0.0, 0.0, 0.118, -172.1, -203.85)" gradientUnits="userSpaceOnUse" id="gradient4" r="819.2" spreadMethod="pad">
      <stop offset="0.0" stop-color="#575757"/>
      <stop offset="1.0" stop-color="#000000"/>
    </radialGradient>
    <radialGradient cx="0" cy="0" gradientTransform="matrix(0.0693, 0.0, 0.0, 0.0693, -257.35, -243.8)" gradientUnits="userSpaceOnUse" id="gradient5" r="819.2" spreadMethod="pad">
      <stop offset="0.0" stop-color="#000000"/>
      <stop offset="1.0" stop-color="#000000"/>
    </radialGradient>
    <radialGradient cx="0" cy="0" gradientTransform="matrix(0.097, 0.0, 0.0, 0.097, -267.65, -160.1)" gradientUnits="userSpaceOnUse" id="gradient6" r="819.2" spreadMethod="pad">
      <stop offset="0.0" stop-color="#000000"/>
      <stop offset="1.0" stop-color="#000000"/>
    </radialGradient>
    <radialGradient cx="0" cy="0" gradientTransform="matrix(0.0933, 0.0, 0.0, 0.0933, -221.1, -130.85)" gradientUnits="userSpaceOnUse" id="gradient7" r="819.2" spreadMethod="pad">
      <stop offset="0.0" stop-color="#6e6e6e"/>
      <stop offset="1.0" stop-color="#232323"/>
    </radialGradient>
    <radialGradient cx="0" cy="0" gradientTransform="matrix(0.187, 0.0, 0.0, 0.187, -248.85, -39.75)" gradientUnits="userSpaceOnUse" id="gradient8" r="819.2" spreadMethod="pad">
      <stop offset="0.0" stop-color="#737373"/>
      <stop offset="1.0" stop-color="#000000"/>
    </radialGradient>
    <radialGradient cx="0" cy="0" gradientTransform="matrix(0.1153, 0.0, 0.0, 0.1153, -211.0, -65.05)" gradientUnits="userSpaceOnUse" id="gradient9" r="819.2" spreadMethod="pad">
      <stop offset="0.0" stop-color="#464646"/>
      <stop offset="1.0" stop-color="#000000"/>
    </radialGradient>
    <radialGradient cx="0" cy="0" gradientTransform="matrix(0.0285, 0.0, 0.0, 0.0285, -211.0, -65.05)" gradientUnits="userSpaceOnUse" id="gradient10" r="819.2" spreadMethod="pad">
      <stop offset="0.0" stop-color="#464646"/>
      <stop offset="1.0" stop-color="#2c2c2c"/>
    </radialGradient>
    <radialGradient cx="0" cy="0" gradientTransform="matrix(0.0555, 0.0, 0.0, 0.0555, -243.95, -33.65)" gradientUnits="userSpaceOnUse" id="gradient11" r="819.2" spreadMethod="pad">
      <stop offset="0.0" stop-color="#7f7f7f"/>
      <stop offset="1.0" stop-color="#464646"/>
    </radialGradient>
    <radialGradient cx="0" cy="0" gradientTransform="matrix(0.1692, 0.0, 0.0, 0.1692, -269.05, -46.45)" gradientUnits="userSpaceOnUse" id="gradient12" r="819.2" spreadMethod="pad">
      <stop offset="0.0" stop-color="#0e0e0e"/>
      <stop offset="1.0" stop-color="#000000"/>
    </radialGradient>
    <radialGradient cx="0" cy="0" gradientTransform="matrix(0.0809, 0.0, 0.0, 0.0809, -341.1, -51.6)" gradientUnits="userSpaceOnUse" id="gradient13" r="819.2" spreadMethod="pad">
      <stop offset="0.0" stop-color="#535353"/>
      <stop offset="1.0" stop-color="#000000"/>
    </radialGradient>
    <radialGradient cx="0" cy="0" gradientTransform="matrix(0.0188, 0.0, 0.0, 0.0188, -211.0, -65.05)" gradientUnits="userSpaceOnUse" id="gradient14" r="819.2" spreadMethod="pad">
      <stop offset="0.0" stop-color="#464646"/>
      <stop offset="1.0" stop-color="#000000"/>
    </radialGradient>
    <radialGradient cx="0" cy="0" gradientTransform="matrix(0.0654, 0.0, 0.0, 0.0654, -192.9, -49.65)" gradientUnits="userSpaceOnUse" id="gradient15" r="819.2" spreadMethod="pad">
      <stop offset="0.0" stop-color="#494949"/>
      <stop offset="1.0" stop-color="#1b1b1b"/>
    </radialGradient>
    <radialGradient cx="0" cy="0" gradientTransform="matrix(0.0816, 0.0, 0.0, 0.0816, -223.6, -61.65)" gradientUnits="userSpaceOnUse" id="gradient16" r="819.2" spreadMethod="pad">
      <stop offset="0.0" stop-color="#575757"/>
      <stop offset="1.0" stop-color="#020202"/>
    </radialGradient>
    <radialGradient cx="0" cy="0" gradientTransform="matrix(0.1783, 0.0, 0.0, 0.1783, -243.95, -33.65)" gradientUnits="userSpaceOnUse" id="gradient17" r="819.2" spreadMethod="pad">
      <stop offset="0.0" stop-color="#7f7f7f"/>
      <stop offset="1.0" stop-color="#060606"/>
    </radialGradient>
    <radialGradient cx="0" cy="0" gradientTransform="matrix(0.0336, 0.0, 0.0, 0.0336, -257.15, -28.05)" gradientUnits="userSpaceOnUse" id="gradient18" r="819.2" spreadMethod="pad">
      <stop offset="0.0" stop-color="#000000"/>
      <stop offset="1.0" stop-color="#000000"/>
    </radialGradient>
  </defs>
</svg>
