<?xml version="1.0" encoding="UTF-8" standalone="no"?>
<svg xmlns:xlink="http://www.w3.org/1999/xlink" height="299.1px" width="253.35px" xmlns="http://www.w3.org/2000/svg">
  <g transform="matrix(1.0, 0.0, 0.0, 1.0, 400.0, 300.0)">
    <path d="M-233.15 -300.0 L-247.5 -292.65 -248.75 -294.4 -249.25 -295.4 Q-245.65 -295.4 -244.0 -300.0 L-233.15 -300.0" fill="url(#gradient0)" fill-rule="evenodd" stroke="none"/>
    <path d="M-163.15 -296.15 L-180.0 -238.15 -181.0 -215.0 -183.4 -195.9 -186.75 -175.75 -217.5 -178.0 -253.25 -182.25 -251.75 -202.75 -252.0 -203.0 -248.75 -245.4 -249.0 -245.9 -247.5 -292.65 -233.15 -300.0 -197.4 -300.0 -163.15 -296.15" fill="url(#gradient1)" fill-rule="evenodd" stroke="none"/>
    <path d="M-258.75 -292.25 L-265.4 -292.15 -267.15 -297.0 -260.65 -292.9 -258.75 -292.25 M-248.75 -294.4 L-247.5 -292.65 -251.4 -292.5 -249.0 -293.9 -248.75 -294.4" fill="url(#gradient2)" fill-rule="evenodd" stroke="none"/>
    <path d="M-251.4 -292.5 Q-251.75 -292.0 -255.9 -291.75 L-258.75 -292.25 -260.65 -292.9 -267.15 -297.0 -270.0 -300.0 -244.0 -300.0 Q-245.65 -295.4 -249.25 -295.4 L-248.75 -294.4 -249.0 -293.9 -251.4 -292.5" fill="url(#gradient3)" fill-rule="evenodd" stroke="none"/>
    <path d="M-247.5 -292.65 L-249.0 -245.9 -248.75 -245.4 -252.0 -203.0 -251.75 -202.75 -253.25 -182.25 -265.4 -185.5 -264.15 -205.4 -257.5 -225.75 -255.9 -247.15 -265.4 -292.15 -258.75 -292.25 -255.9 -291.75 Q-251.75 -292.0 -251.4 -292.5 L-247.5 -292.65" fill="url(#gradient4)" fill-rule="evenodd" stroke="none"/>
    <path d="M-162.75 -300.0 L-163.15 -296.15 -197.4 -300.0 -162.75 -300.0" fill="url(#gradient5)" fill-rule="evenodd" stroke="none"/>
    <path d="M-161.4 -296.0 L-163.15 -296.15 -162.75 -300.0 -161.0 -300.0 -161.4 -296.0" fill="url(#gradient6)" fill-rule="evenodd" stroke="none"/>
    <path d="M-163.15 -296.15 L-161.4 -296.0 -172.75 -185.4 -173.0 -182.65 -172.9 -182.5 -186.75 -175.75 -183.4 -195.9 -181.0 -215.0 -180.0 -238.15 -163.15 -296.15" fill="url(#gradient7)" fill-rule="evenodd" stroke="none"/>
    <path d="M-186.75 -175.75 L-172.9 -182.5 -160.15 -145.9 -159.4 -143.5 -154.4 -105.4 -165.5 -77.0 -186.4 -48.4 -186.65 -48.4 -207.65 -48.0 -207.75 -48.4 -207.5 -49.15 -207.4 -49.65 -195.15 -95.15 -192.9 -115.65 -193.15 -115.75 -186.75 -175.75" fill="url(#gradient8)" fill-rule="evenodd" stroke="none"/>
    <path d="M-172.9 -182.5 L-173.0 -182.65 -172.75 -185.4 -161.25 -153.4 -160.15 -145.9 -172.9 -182.5" fill="url(#gradient9)" fill-rule="evenodd" stroke="none"/>
    <path d="M-265.4 -185.5 L-253.25 -182.25 -261.0 -109.4 -262.5 -87.25 -289.0 -65.4 -270.5 -101.0 -267.75 -142.15 -265.4 -185.5" fill="url(#gradient10)" fill-rule="evenodd" stroke="none"/>
    <path d="M-207.75 -48.4 L-207.65 -48.0 -263.65 -27.4 -289.0 -38.75 -300.25 -41.65 -289.25 -65.0 -289.0 -65.4 -262.5 -87.25 -240.25 -96.75 -219.4 -93.0 -205.9 -94.9 -207.65 -50.75 -209.75 -58.5 -211.0 -61.15 -212.65 -59.4 -216.75 -53.4 -207.75 -48.9 -207.75 -48.4" fill="url(#gradient11)" fill-rule="evenodd" stroke="none"/>
    <path d="M-253.25 -182.25 L-217.5 -178.0 -186.75 -175.75 -193.15 -115.75 -192.9 -115.65 -195.15 -95.15 -207.4 -49.65 -207.65 -50.75 -205.9 -94.9 -219.4 -93.0 -240.25 -96.75 -262.5 -87.25 -261.0 -109.4 -253.25 -182.25 M-207.5 -49.15 L-207.75 -48.4 -207.75 -48.9 -207.5 -49.15" fill="url(#gradient12)" fill-rule="evenodd" stroke="none"/>
    <path d="M-207.4 -49.65 L-207.5 -49.15 -207.75 -48.9 -216.75 -53.4 -212.65 -59.4 -211.0 -61.15 -209.75 -58.5 -207.65 -50.75 -207.4 -49.65 M-372.75 -12.9 L-373.0 -12.9 -373.25 -12.65 -373.9 -12.25 -374.0 -12.15 -378.9 -9.0 -364.9 -14.9 -364.65 -14.65 -370.9 -10.75 -378.25 -5.5 -382.65 -3.0 -385.4 -0.9 -395.5 -1.0 -373.0 -12.9 -372.65 -13.15 -372.75 -12.9 M-207.4 -47.15 Q-205.9 -41.15 -215.4 -38.65 L-207.65 -47.65 -207.4 -47.15" fill="url(#gradient13)" fill-rule="evenodd" stroke="none"/>
    <path d="M-289.25 -65.0 L-300.25 -41.65 -289.0 -38.75 -263.65 -27.4 -308.0 -26.0 -329.5 -9.75 -343.0 -0.9 -385.4 -0.9 -382.65 -3.0 -378.25 -5.5 -370.9 -10.75 -364.65 -14.65 -364.9 -14.9 -378.9 -9.0 -374.0 -12.15 -373.9 -12.25 -373.25 -12.65 -373.0 -12.9 -372.75 -12.9 -372.5 -13.15 -372.4 -13.15 -372.25 -13.25 -372.15 -13.25 -371.9 -13.5 -371.75 -13.5 -345.0 -30.25 -322.25 -42.4 -289.25 -65.0" fill="url(#gradient14)" fill-rule="evenodd" stroke="none"/>
    <path d="M-371.9 -13.5 L-372.15 -13.25 -372.25 -13.25 -372.4 -13.15 -372.5 -13.15 -372.75 -12.9 -372.65 -13.15 -372.5 -13.15 -372.25 -13.25 -371.9 -13.5" fill="url(#gradient15)" fill-rule="evenodd" stroke="none"/>
    <path d="M-207.65 -48.0 L-186.65 -48.4 -196.25 -45.0 -201.75 -43.15 -207.65 -47.65 -207.65 -48.0" fill="url(#gradient16)" fill-rule="evenodd" stroke="none"/>
    <path d="M-201.75 -43.15 L-196.25 -45.0 -195.5 -39.0 -195.65 -33.65 -198.9 -1.0 -217.25 -0.9 -217.65 -10.5 -215.5 -34.0 -205.15 -42.0 -197.25 -39.25 -201.75 -43.15" fill="url(#gradient17)" fill-rule="evenodd" stroke="none"/>
    <path d="M-207.65 -47.65 L-201.75 -43.15 -197.25 -39.25 -205.15 -42.0 -207.4 -47.15 -207.65 -47.65" fill="url(#gradient18)" fill-rule="evenodd" stroke="none"/>
    <path d="M-263.65 -27.4 L-207.65 -48.0 -207.65 -47.65 -215.4 -38.65 Q-205.9 -41.15 -207.4 -47.15 L-205.15 -42.0 -215.5 -34.0 -237.9 -16.4 -239.9 -15.5 -263.65 -27.4" fill="url(#gradient19)" fill-rule="evenodd" stroke="none"/>
    <path d="M-253.15 -0.9 L-253.15 -1.75 -237.9 -16.4 -215.5 -34.0 -217.65 -10.5 -217.25 -0.9 -253.15 -0.9" fill="url(#gradient20)" fill-rule="evenodd" stroke="none"/>
    <path d="M-343.0 -0.9 L-329.5 -9.75 -308.0 -26.0 -263.65 -27.4 -239.9 -15.5 -237.9 -16.4 -253.15 -1.75 -254.0 -0.9 -343.0 -0.9" fill="url(#gradient21)" fill-rule="evenodd" stroke="none"/>
    <path d="M-253.15 -1.75 L-253.15 -0.9 -254.0 -0.9 -253.15 -1.75" fill="url(#gradient22)" fill-rule="evenodd" stroke="none"/>
    <path d="M-270.0 -300.0 L-269.65 -300.0 -267.25 -299.75 -266.9 -299.75 -266.5 -299.25 -265.75 -297.15 -265.65 -296.25 -265.5 -296.15 -265.25 -295.75 -264.9 -294.65 -266.4 -294.65 -267.15 -297.0 -267.25 -297.15 -270.0 -300.0" fill="#a40000" fill-opacity="0.9098039" fill-rule="evenodd" stroke="none"/>
    <path d="M-275.15 -294.65 L-277.0 -300.0 -270.0 -300.0 -267.25 -297.15 -267.15 -297.0 -266.4 -294.65 -275.15 -294.65" fill="#b60000" fill-rule="evenodd" stroke="none"/>
    <path d="M-273.9 -178.25 L-272.9 -199.75 -265.25 -222.15 -263.9 -245.15 -275.15 -294.65 -269.9 -293.0 -265.9 -293.25 -265.4 -292.15 -265.25 -291.0 -265.15 -290.75 -261.15 -272.0 -261.15 -271.9 -261.0 -271.5 -261.0 -271.15 -260.9 -270.9 -260.9 -270.5 -260.75 -270.25 -259.9 -265.5 -259.75 -265.0 -259.65 -264.4 -259.5 -263.9 -259.5 -263.75 -258.65 -259.25 -258.5 -258.75 -258.5 -258.65 -256.25 -245.15 -256.15 -244.4 -256.15 -243.4 -256.25 -243.0 -256.25 -241.5 -256.4 -241.15 -256.4 -239.5 -256.5 -239.25 -256.5 -237.65 -256.65 -237.4 -256.65 -235.75 -256.75 -235.5 -256.75 -233.9 -256.9 -233.65 -256.9 -232.0 -257.0 -231.75 -257.0 -230.15 -257.15 -229.9 -257.15 -228.25 -257.25 -227.9 -257.25 -226.15 -257.4 -226.15 -257.4 -225.9 -264.0 -205.9 -264.0 -205.5 -265.25 -186.25 -267.4 -186.0 -273.9 -178.25" fill="#ac0000" fill-rule="evenodd" stroke="none"/>
    <path d="M-307.75 -56.0 L-280.9 -86.5 -277.75 -109.5 -273.9 -178.25 -267.4 -186.0 -265.25 -186.25 -265.4 -185.5 -265.4 -184.5 -266.0 -176.0 -265.9 -175.9 -269.25 -120.5 -270.65 -100.5 -283.65 -75.65 -284.0 -75.0 -307.75 -56.0" fill="#ab0000" fill-rule="evenodd" stroke="none"/>
    <path d="M-260.25 -174.25 L-262.0 -160.25 -262.0 -158.0 -264.4 -138.9 -264.25 -138.4 -265.25 -130.5 -265.25 -128.9 -266.65 -117.5 -266.5 -117.0 -267.25 -112.15 -267.15 -110.0 -268.65 -97.65 -268.65 -97.15 -269.0 -92.65 -277.0 -80.75 -283.65 -75.65 -270.65 -100.5 -269.25 -120.5 -265.9 -175.9 -266.0 -176.0 -265.4 -184.5 -265.4 -185.5 -265.25 -186.25 -264.0 -205.5 -264.0 -205.9 -257.4 -225.9 -257.4 -226.15 -257.25 -226.15 -257.4 -225.9 -257.4 -225.65 -257.25 -225.25 -257.15 -224.65 -259.25 -195.75 -259.15 -194.9 -260.25 -174.25 M-266.4 -294.65 L-264.9 -294.65 -264.5 -292.9 -264.65 -292.65 -264.4 -292.15 -263.9 -288.15 -263.15 -285.25 -261.15 -272.0 -265.15 -290.75 -265.25 -291.0 -265.4 -292.15 -265.9 -293.25 -266.4 -294.65" fill="#9b0000" fill-opacity="0.9098039" fill-rule="evenodd" stroke="none"/>
    <path d="M-250.75 -299.9 L-209.0 -299.75 -208.65 -299.9 -166.0 -299.9 -161.65 -299.4 -161.25 -299.4 -161.4 -296.4 -161.4 -296.0 -161.9 -290.25 -163.0 -278.9 -163.65 -275.75 -164.4 -274.25 -164.75 -272.0 -172.9 -245.25 -173.25 -244.65 -173.15 -244.4 -176.0 -234.9 -176.75 -221.0 -176.9 -220.65 -176.75 -218.65 -177.15 -212.75 -177.0 -212.25 -178.65 -199.15 -178.75 -198.75 -179.9 -190.9 -179.75 -190.4 -181.75 -178.25 -181.75 -178.15 -183.15 -171.15 -183.0 -170.75 -183.75 -166.4 -170.0 -173.5 -170.0 -173.75 -169.15 -174.0 -169.0 -174.25 -167.65 -170.5 -167.4 -170.4 -167.4 -169.75 -167.15 -169.25 -167.15 -169.15 -167.0 -169.15 -166.9 -168.4 -166.9 -168.25 -166.75 -168.0 -166.75 -167.9 -166.4 -166.75 -166.4 -166.5 -165.9 -164.5 -165.75 -164.15 -164.75 -159.4 -164.75 -159.25 -164.5 -158.15 -164.4 -158.0 -164.25 -157.65 -164.25 -157.5 -164.15 -157.0 -164.0 -156.9 -163.15 -154.5 -163.0 -154.25 -159.4 -143.65 -159.0 -140.15 -159.0 -139.25 -158.9 -139.15 -158.75 -138.75 -154.5 -105.65 -154.5 -105.5 -154.4 -105.4 -154.75 -104.25 -165.5 -77.25 -185.9 -48.9 -186.4 -48.65 -186.65 -48.4 -196.25 -45.0 -196.4 -44.5 -196.4 -44.15 -196.25 -43.75 -195.5 -38.9 -195.75 -33.9 -195.65 -33.65 -196.9 -21.5 -207.4 -25.65 -207.5 -25.9 -207.25 -26.9 -206.15 -30.75 -206.0 -31.0 -203.75 -38.9 -203.9 -39.15 -202.5 -43.65 -202.65 -43.9 -193.15 -77.75 -192.65 -81.9 -192.65 -83.75 -189.75 -111.0 -189.9 -111.5 -187.5 -133.0 -187.65 -133.4 -183.75 -166.4 -215.25 -168.65 -260.25 -174.25 -259.15 -194.9 -259.25 -195.75 -257.15 -224.65 -257.25 -225.25 -257.4 -225.65 -257.4 -225.9 -257.25 -226.15 -257.25 -227.9 -257.15 -228.25 -257.15 -229.9 -257.0 -230.15 -257.0 -231.75 -256.9 -232.0 -256.9 -233.65 -256.75 -233.9 -256.75 -235.5 -256.65 -235.75 -256.65 -237.4 -256.5 -237.65 -256.5 -239.25 -256.4 -239.5 -256.4 -241.15 -256.25 -241.5 -256.25 -243.0 -256.15 -243.4 -256.15 -244.4 -256.25 -245.15 -255.9 -247.25 -258.5 -258.65 -258.5 -258.75 -258.65 -259.25 -259.5 -263.75 -259.5 -263.9 -259.65 -264.4 -259.75 -265.0 -259.9 -265.5 -260.75 -270.25 -260.9 -270.5 -260.9 -270.9 -261.0 -271.15 -261.0 -271.5 -261.15 -271.9 -261.15 -272.0 -263.15 -285.25 -263.9 -288.15 -264.4 -292.15 -264.65 -292.65 -264.5 -292.9 -264.9 -294.65 -262.15 -295.65 -262.0 -295.75 -259.5 -296.65 -259.15 -296.75 -250.75 -299.9" fill="#df0000" fill-opacity="0.9098039" fill-rule="evenodd" stroke="none"/>
    <path d="M-184.15 -16.75 L-184.25 -16.5 -184.9 -16.65 -196.9 -21.5 -195.65 -33.65 -195.75 -33.9 -195.5 -38.9 -196.25 -43.75 -196.4 -44.15 -196.4 -44.5 -196.25 -45.0 -186.65 -48.4 -186.4 -48.65 -185.9 -48.9 -165.5 -77.25 -154.75 -104.25 -154.25 -101.75 -166.0 -72.4 -184.0 -43.15 -184.15 -42.5 -190.65 -32.0 -190.75 -31.5 -190.15 -31.15 -184.25 -23.25 -184.4 -19.4 -184.15 -16.75 M-167.65 -171.75 L-167.4 -170.4 -167.65 -170.5 -169.0 -174.25 -168.4 -174.5 -168.25 -174.5 -168.15 -174.25 -167.65 -171.75 M-258.5 -258.65 L-255.9 -247.25 -256.25 -245.15 -258.5 -258.65" fill="#f00000" fill-rule="evenodd" stroke="none"/>
    <path d="M-266.9 -299.75 L-265.15 -300.0 -250.75 -299.9 -259.15 -296.75 -259.5 -296.65 -262.0 -295.75 -262.15 -295.65 -264.9 -294.65 -265.25 -295.75 -265.5 -296.15 -265.65 -296.25 -265.75 -297.15 -266.5 -299.25 -266.9 -299.75" fill="#ba0000" fill-opacity="0.9098039" fill-rule="evenodd" stroke="none"/>
    <path d="M-166.0 -299.9 L-161.15 -299.9 -161.25 -299.4 -161.65 -299.4 -166.0 -299.9" fill="#e80000" fill-opacity="0.9098039" fill-rule="evenodd" stroke="none"/>
    <path d="M-161.15 -299.9 L-159.9 -300.0 -157.15 -298.9 -161.25 -299.4 -161.15 -299.9" fill="#ff0000" fill-opacity="0.9098039" fill-rule="evenodd" stroke="none"/>
    <path d="M-157.15 -298.9 L-156.9 -298.65 -157.0 -298.15 -159.65 -290.15 -160.25 -295.4 -160.4 -296.4 -161.4 -296.4 -161.25 -299.4 -157.15 -298.9" fill="#f60000" fill-opacity="0.9098039" fill-rule="evenodd" stroke="none"/>
    <path d="M-161.4 -296.4 L-160.4 -296.4 -160.25 -295.4 -161.9 -290.25 -161.4 -296.0 -161.4 -296.4" fill="#f50000" fill-rule="evenodd" stroke="none"/>
    <path d="M-159.9 -288.75 L-163.0 -278.9 -161.9 -290.25 -160.25 -295.4 -159.65 -290.15 -159.9 -288.75" fill="#ef0000" fill-rule="evenodd" stroke="none"/>
    <path d="M-157.0 -298.15 L-156.0 -288.15 -156.5 -284.9 -156.65 -284.15 -160.25 -262.9 -160.5 -263.0 -159.4 -277.25 -159.5 -287.0 -159.9 -288.75 -159.65 -290.15 -157.0 -298.15" fill="#e60000" fill-opacity="0.9098039" fill-rule="evenodd" stroke="none"/>
    <path d="M-266.4 -294.65 L-265.9 -293.25 -269.9 -293.0 -275.15 -294.65 -266.4 -294.65" fill="#ad0000" fill-rule="evenodd" stroke="none"/>
    <path d="M-156.5 -284.9 L-156.4 -284.5 -156.65 -284.15 -156.5 -283.5 -168.0 -178.25 -169.25 -180.75 -169.65 -182.15 -171.75 -182.4 -171.9 -182.75 -172.0 -183.15 -172.15 -183.25 -172.25 -183.65 -172.4 -184.0 -172.65 -184.9 -170.75 -205.15 -170.75 -205.5 -168.25 -228.25 -168.4 -229.0 -168.25 -229.25 -165.9 -251.5 -166.0 -252.0 -165.4 -258.75 -165.15 -258.9 -165.25 -259.25 -165.25 -260.0 -163.5 -274.9 -163.65 -275.75 -163.0 -278.9 -159.9 -288.75 -159.5 -287.0 -159.4 -277.25 -160.5 -263.0 -160.25 -262.9 -156.65 -284.15 -156.5 -284.9" fill="#e00000" fill-rule="evenodd" stroke="none"/>
    <path d="M-168.0 -178.25 L-167.9 -177.15 -168.5 -175.25 -169.25 -180.75 -168.0 -178.25" fill="#e10000" fill-rule="evenodd" stroke="none"/>
    <path d="M-171.75 -182.4 L-169.65 -182.15 -169.25 -180.75 -168.5 -175.25 -168.4 -175.15 -168.4 -174.9 -168.4 -174.5 -169.0 -174.25 -171.15 -180.65 -171.15 -180.75 -171.65 -181.9 -171.75 -182.4" fill="#e20000" fill-rule="evenodd" stroke="none"/>
    <path d="M-163.65 -275.75 L-163.5 -274.9 -165.25 -260.0 -165.25 -259.25 -165.15 -258.9 -165.4 -258.75 -166.0 -252.0 -165.9 -251.5 -168.25 -229.25 -168.4 -229.0 -168.25 -228.25 -170.75 -205.5 -170.75 -205.15 -172.65 -184.9 -172.4 -184.0 -172.25 -183.65 -172.15 -183.25 -172.0 -183.15 -171.9 -182.75 -171.75 -182.4 -171.65 -181.9 -171.15 -180.75 -171.15 -180.65 -169.0 -174.25 -169.15 -174.0 -170.0 -173.75 -170.0 -173.5 -183.75 -166.4 -183.0 -170.75 -183.15 -171.15 -181.75 -178.15 -181.75 -178.25 -179.75 -190.4 -179.9 -190.9 -178.75 -198.75 -178.65 -199.15 -177.0 -212.25 -177.15 -212.75 -176.75 -218.65 -176.9 -220.65 -176.75 -221.0 -176.0 -234.9 -173.15 -244.4 -173.25 -244.65 -172.9 -245.25 -164.75 -272.0 -164.4 -274.25 -163.65 -275.75" fill="#d10000" fill-opacity="0.9098039" fill-rule="evenodd" stroke="none"/>
    <path d="M-260.25 -174.25 L-215.25 -168.65 -183.75 -166.4 -187.65 -133.4 -187.5 -133.0 -189.9 -111.5 -189.75 -111.0 -192.65 -83.75 -192.65 -81.9 -193.15 -77.75 -202.65 -43.9 -202.5 -43.65 -203.9 -39.15 -203.75 -38.9 -206.0 -31.0 -206.15 -30.75 -207.25 -26.9 -207.0 -40.65 -206.9 -40.75 -206.65 -45.25 -206.9 -46.25 -206.65 -47.0 -206.75 -47.4 -206.5 -49.9 -206.65 -51.4 -206.25 -53.9 -205.65 -77.15 -206.65 -76.9 -220.4 -74.65 -221.75 -74.9 -240.0 -84.0 -240.15 -84.25 -246.4 -87.4 -248.5 -87.0 -248.9 -86.75 -277.0 -80.75 -269.0 -92.65 -268.65 -97.15 -268.65 -97.65 -267.15 -110.0 -267.25 -112.15 -266.5 -117.0 -266.65 -117.5 -265.25 -128.9 -265.25 -130.5 -264.25 -138.4 -264.4 -138.9 -262.0 -158.0 -262.0 -160.25 -260.25 -174.25" fill="#d80000" fill-opacity="0.9098039" fill-rule="evenodd" stroke="none"/>
    <path d="M-277.0 -80.75 L-248.9 -86.75 -248.5 -87.0 -246.4 -87.4 -240.15 -84.25 -240.0 -84.0 -221.75 -74.9 -220.4 -74.65 -206.65 -76.9 -205.65 -77.15 -206.25 -53.9 -206.65 -51.4 -206.5 -49.9 -206.75 -47.4 -206.65 -47.0 -206.9 -46.25 -206.65 -45.25 -206.9 -40.75 -207.0 -40.65 -207.25 -26.9 -207.5 -25.9 -215.4 -28.25 -216.0 -28.15 -216.4 -28.65 -220.75 -29.9 -220.75 -30.0 -245.4 -37.5 -279.9 -50.5 -301.15 -54.25 -301.5 -54.65 -304.25 -54.9 -290.15 -64.5 -289.25 -65.0 -289.0 -65.25 -284.0 -75.0 -283.65 -75.65 -277.0 -80.75" fill="#c70000" fill-opacity="0.9098039" fill-rule="evenodd" stroke="none"/>
    <path d="M-167.9 -177.15 L-155.25 -143.9 -154.15 -136.65 -168.15 -174.25 -168.25 -174.5 -168.4 -174.9 -168.4 -175.15 -168.5 -175.25 -167.9 -177.15" fill="#d10000" fill-rule="evenodd" stroke="none"/>
    <path d="M-154.15 -136.65 L-153.5 -134.15 -152.75 -132.65 -151.65 -126.75 -146.65 -89.75 -159.25 -59.25 -184.15 -16.75 -184.4 -19.4 -184.25 -23.25 -190.15 -31.15 -190.75 -31.5 -190.65 -32.0 -184.15 -42.5 -184.0 -43.15 -166.0 -72.4 -154.25 -101.75 -154.75 -104.25 -154.4 -105.4 -154.5 -105.5 -154.5 -105.65 -158.75 -138.75 -158.9 -139.15 -159.0 -139.25 -159.0 -140.15 -159.4 -143.65 -163.0 -154.25 -163.15 -154.5 -164.0 -156.9 -164.15 -157.0 -164.25 -157.5 -164.25 -157.65 -164.75 -159.4 -165.75 -164.15 -165.9 -164.5 -166.4 -166.5 -166.4 -166.75 -166.4 -167.0 -166.5 -167.25 -166.5 -167.5 -166.65 -167.65 -166.65 -167.9 -166.75 -168.0 -166.9 -168.25 -166.9 -168.4 -167.0 -169.15 -167.0 -169.25 -167.65 -171.75 -168.15 -174.25 -154.15 -136.65" fill="#f10000" fill-rule="evenodd" stroke="none"/>
    <path d="M-167.65 -171.75 L-167.0 -169.25 -167.0 -169.15 -167.15 -169.15 -167.15 -169.25 -167.4 -169.75 -167.4 -170.4 -167.65 -171.75 M-166.75 -168.0 L-166.65 -167.9 -166.65 -167.65 -166.5 -167.5 -166.5 -167.25 -166.4 -167.0 -166.4 -166.75 -166.75 -167.9 -166.75 -168.0 M-164.75 -159.4 L-164.25 -157.65 -164.4 -158.0 -164.5 -158.15 -164.75 -159.25 -164.75 -159.4 M-168.25 -174.5 L-168.4 -174.5 -168.4 -174.9 -168.25 -174.5" fill="#f20000" fill-rule="evenodd" stroke="none"/>
    <path d="M-207.4 -25.65 L-196.9 -21.5 -197.65 -14.75 -197.75 -14.5 -197.75 -14.15 -197.65 -13.65 -198.0 -11.9 -198.75 -12.75 -201.9 -17.65 -202.65 -18.5 -206.75 -24.5 -207.4 -25.65" fill="#cb0000" fill-opacity="0.9098039" fill-rule="evenodd" stroke="none"/>
    <path d="M-199.0 -0.9 L-227.0 -0.9 -227.75 -2.25 -228.15 -3.5 -235.65 -18.15 -235.9 -18.4 -236.15 -19.15 -245.15 -36.75 -245.4 -37.5 -220.75 -30.0 -220.75 -29.9 -216.4 -28.65 -216.0 -28.15 -215.4 -28.25 -207.5 -25.9 -207.4 -25.65 -206.75 -24.5 -205.0 -20.15 -204.5 -19.5 -198.5 -6.25 -198.4 -5.4 -199.0 -0.9" fill="#d30000" fill-opacity="0.9098039" fill-rule="evenodd" stroke="none"/>
    <path d="M-308.15 -55.5 L-307.75 -56.0 -284.0 -75.0 -289.0 -65.25 -289.25 -65.0 -290.15 -64.5 -304.25 -54.9 -308.15 -55.5" fill="#d70000" fill-rule="evenodd" stroke="none"/>
    <path d="M-304.65 -54.5 L-305.4 -54.15 -308.15 -55.5 -304.25 -54.9 -304.65 -54.5" fill="#bc0000" fill-rule="evenodd" stroke="none"/>
    <path d="M-245.15 -36.75 L-241.5 -16.4 -241.25 -16.15 -241.15 -15.0 -241.0 -14.75 -240.9 -14.65 -241.15 -14.4 -241.15 -14.25 -240.9 -13.75 -240.9 -13.5 -239.9 -8.9 -240.0 -8.4 -238.4 -0.9 -395.5 -0.9 -381.25 -8.5 -381.15 -8.5 -379.65 -9.4 -379.4 -9.5 -377.75 -10.4 -377.5 -10.5 -376.4 -11.15 -376.15 -11.25 -375.9 -11.4 -375.65 -11.5 -375.4 -11.65 -375.15 -11.75 -374.75 -12.0 -374.65 -12.0 -374.4 -12.15 -374.15 -12.25 -373.9 -12.4 -373.65 -12.5 -373.4 -12.65 -373.15 -12.75 -372.5 -13.15 -372.25 -13.25 -371.9 -13.5 -371.75 -13.5 -350.0 -27.15 -349.9 -27.15 -346.25 -29.4 -346.15 -29.4 -345.9 -29.65 -345.75 -29.65 -344.25 -30.65 -323.65 -41.65 -323.5 -41.65 -322.9 -42.0 -305.4 -54.15 -304.65 -54.5 -304.0 -52.5 -303.65 -52.75 -303.25 -52.9 -303.25 -53.0 -301.15 -54.25 -279.9 -50.5 -245.4 -37.5 -245.15 -36.75" fill="#ab0000" fill-opacity="0.9098039" fill-rule="evenodd" stroke="none"/>
    <path d="M-395.5 -0.9 L-400.0 -0.9 -399.9 -25.75 -308.15 -55.5 -305.4 -54.15 -322.9 -42.0 -323.5 -41.65 -323.65 -41.65 -344.25 -30.65 -345.75 -29.65 -345.9 -29.65 -346.15 -29.4 -346.25 -29.4 -349.9 -27.15 -350.0 -27.15 -371.75 -13.5 -371.9 -13.5 -372.25 -13.25 -372.5 -13.15 -373.15 -12.75 -373.4 -12.65 -373.65 -12.5 -373.9 -12.4 -374.15 -12.25 -374.4 -12.15 -374.65 -12.0 -374.75 -12.0 -375.15 -11.75 -375.4 -11.65 -375.65 -11.5 -375.9 -11.4 -376.15 -11.25 -376.4 -11.15 -377.5 -10.5 -377.75 -10.4 -379.4 -9.5 -379.65 -9.4 -381.15 -8.5 -381.25 -8.5 -395.5 -0.9" fill="#bb0000" fill-rule="evenodd" stroke="none"/>
    <path d="M-206.75 -24.5 L-202.65 -18.5 -201.9 -17.65 -198.75 -12.75 -198.0 -11.9 -197.9 -11.25 -198.5 -6.25 -204.5 -19.5 -205.0 -20.15 -206.75 -24.5" fill="#e40000" fill-rule="evenodd" stroke="none"/>
    <path d="M-184.25 -16.5 L-184.75 -0.9 -190.75 -0.9 -190.75 -1.4 -191.15 -0.9 -192.4 -0.9 -193.15 -3.15 -193.65 -5.4 -197.9 -11.25 -198.0 -11.9 -197.65 -13.65 -197.75 -14.15 -197.75 -14.5 -197.65 -14.75 -196.9 -21.5 -184.9 -16.65 -184.25 -16.5" fill="#dc0000" fill-rule="evenodd" stroke="none"/>
    <path d="M-193.0 -0.9 L-196.25 -0.9 -198.4 -5.4 -198.5 -6.25 -197.9 -11.25 -193.65 -5.4 -193.15 -3.15 -193.0 -0.9" fill="#e50000" fill-rule="evenodd" stroke="none"/>
    <path d="M-192.4 -0.9 L-193.0 -0.9 -193.15 -3.15 -192.4 -0.9 M-196.25 -0.9 L-199.0 -0.9 -198.4 -5.4 -196.25 -0.9" fill="#e30000" fill-rule="evenodd" stroke="none"/>
    <path d="M-190.75 -0.9 L-191.15 -0.9 -190.75 -1.4 -190.75 -0.9" fill="#db0000" fill-rule="evenodd" stroke="none"/>
  </g>
  <defs>
    <radialGradient cx="0" cy="0" gradientTransform="matrix(0.0197, 0.0, 0.0, 0.0197, -247.45, -292.7)" gradientUnits="userSpaceOnUse" id="gradient0" r="819.2" spreadMethod="pad">
      <stop offset="0.0" stop-color="#000000"/>
      <stop offset="1.0" stop-color="#000000"/>
    </radialGradient>
    <radialGradient cx="0" cy="0" gradientTransform="matrix(0.1618, 0.0, 0.0, 0.1618, -186.75, -175.85)" gradientUnits="userSpaceOnUse" id="gradient1" r="819.2" spreadMethod="pad">
      <stop offset="0.0" stop-color="#666666"/>
      <stop offset="1.0" stop-color="#0e0e0e"/>
    </radialGradient>
    <radialGradient cx="0" cy="0" gradientTransform="matrix(0.0269, 0.0, 0.0, 0.0269, -268.2, -300.0)" gradientUnits="userSpaceOnUse" id="gradient2" r="819.2" spreadMethod="pad">
      <stop offset="0.0" stop-color="#000000"/>
      <stop offset="1.0" stop-color="#000000"/>
    </radialGradient>
    <radialGradient cx="0" cy="0" gradientTransform="matrix(0.0391, 0.0, 0.0, 0.0391, -266.8, -297.3)" gradientUnits="userSpaceOnUse" id="gradient3" r="819.2" spreadMethod="pad">
      <stop offset="0.0" stop-color="#747474"/>
      <stop offset="1.0" stop-color="#3a3a3a"/>
    </radialGradient>
    <radialGradient cx="0" cy="0" gradientTransform="matrix(0.0794, 0.0, 0.0, 0.0794, -255.9, -247.35)" gradientUnits="userSpaceOnUse" id="gradient4" r="819.2" spreadMethod="pad">
      <stop offset="0.0" stop-color="#000000"/>
      <stop offset="1.0" stop-color="#000000"/>
    </radialGradient>
    <radialGradient cx="0" cy="0" gradientTransform="matrix(0.0421, 0.0, 0.0, 0.0421, -163.2, -296.25)" gradientUnits="userSpaceOnUse" id="gradient5" r="819.2" spreadMethod="pad">
      <stop offset="0.0" stop-color="#3e3e3e"/>
      <stop offset="1.0" stop-color="#343434"/>
    </radialGradient>
    <radialGradient cx="0" cy="0" gradientTransform="matrix(0.0053, 0.0, 0.0, 0.0053, -163.2, -296.25)" gradientUnits="userSpaceOnUse" id="gradient6" r="819.2" spreadMethod="pad">
      <stop offset="0.0" stop-color="#3e3e3e"/>
      <stop offset="1.0" stop-color="#060606"/>
    </radialGradient>
    <radialGradient cx="0" cy="0" gradientTransform="matrix(0.1392, 0.0, 0.0, 0.1392, -173.1, -182.6)" gradientUnits="userSpaceOnUse" id="gradient7" r="819.2" spreadMethod="pad">
      <stop offset="0.0" stop-color="#696969"/>
      <stop offset="1.0" stop-color="#2a2a2a"/>
    </radialGradient>
    <radialGradient cx="0" cy="0" gradientTransform="matrix(0.0981, 0.0, 0.0, 0.0981, -154.5, -105.6)" gradientUnits="userSpaceOnUse" id="gradient8" r="819.2" spreadMethod="pad">
      <stop offset="0.0" stop-color="#838383"/>
      <stop offset="1.0" stop-color="#444444"/>
    </radialGradient>
    <radialGradient cx="0" cy="0" gradientTransform="matrix(0.0495, 0.0, 0.0, 0.0495, -160.8, -150.25)" gradientUnits="userSpaceOnUse" id="gradient9" r="819.2" spreadMethod="pad">
      <stop offset="0.0" stop-color="#6a6a6a"/>
      <stop offset="1.0" stop-color="#222222"/>
    </radialGradient>
    <radialGradient cx="0" cy="0" gradientTransform="matrix(0.0978, 0.0, 0.0, 0.0978, -267.85, -142.6)" gradientUnits="userSpaceOnUse" id="gradient10" r="819.2" spreadMethod="pad">
      <stop offset="0.0" stop-color="#000000"/>
      <stop offset="1.0" stop-color="#000000"/>
    </radialGradient>
    <radialGradient cx="0" cy="0" gradientTransform="matrix(0.1132, 0.0, 0.0, 0.1132, -207.75, -48.15)" gradientUnits="userSpaceOnUse" id="gradient11" r="819.2" spreadMethod="pad">
      <stop offset="0.0" stop-color="#464646"/>
      <stop offset="1.0" stop-color="#000000"/>
    </radialGradient>
    <radialGradient cx="0" cy="0" gradientTransform="matrix(0.0945, 0.0, 0.0, 0.0945, -217.45, -113.65)" gradientUnits="userSpaceOnUse" id="gradient12" r="819.2" spreadMethod="pad">
      <stop offset="0.0" stop-color="#6e6e6e"/>
      <stop offset="1.0" stop-color="#232323"/>
    </radialGradient>
    <radialGradient cx="0" cy="0" gradientTransform="matrix(0.1857, 0.0, 0.0, 0.1857, -244.7, -21.5)" gradientUnits="userSpaceOnUse" id="gradient13" r="819.2" spreadMethod="pad">
      <stop offset="0.0" stop-color="#737373"/>
      <stop offset="1.0" stop-color="#000000"/>
    </radialGradient>
    <radialGradient cx="0" cy="0" gradientTransform="matrix(0.1599, 0.0, 0.0, 0.1599, -263.55, -27.45)" gradientUnits="userSpaceOnUse" id="gradient14" r="819.2" spreadMethod="pad">
      <stop offset="0.0" stop-color="#0e0e0e"/>
      <stop offset="1.0" stop-color="#000000"/>
    </radialGradient>
    <radialGradient cx="0" cy="0" gradientTransform="matrix(0.0747, 0.0, 0.0, 0.0747, -338.35, -30.8)" gradientUnits="userSpaceOnUse" id="gradient15" r="819.2" spreadMethod="pad">
      <stop offset="0.0" stop-color="#535353"/>
      <stop offset="1.0" stop-color="#000000"/>
    </radialGradient>
    <radialGradient cx="0" cy="0" gradientTransform="matrix(0.0261, 0.0, 0.0, 0.0261, -207.75, -48.15)" gradientUnits="userSpaceOnUse" id="gradient16" r="819.2" spreadMethod="pad">
      <stop offset="0.0" stop-color="#464646"/>
      <stop offset="1.0" stop-color="#2c2c2c"/>
    </radialGradient>
    <radialGradient cx="0" cy="0" gradientTransform="matrix(0.0481, 0.0, 0.0, 0.0481, -195.75, -34.0)" gradientUnits="userSpaceOnUse" id="gradient17" r="819.2" spreadMethod="pad">
      <stop offset="0.0" stop-color="#494949"/>
      <stop offset="1.0" stop-color="#212121"/>
    </radialGradient>
    <radialGradient cx="0" cy="0" gradientTransform="matrix(0.017, 0.0, 0.0, 0.017, -207.75, -48.15)" gradientUnits="userSpaceOnUse" id="gradient18" r="819.2" spreadMethod="pad">
      <stop offset="0.0" stop-color="#464646"/>
      <stop offset="1.0" stop-color="#000000"/>
    </radialGradient>
    <radialGradient cx="0" cy="0" gradientTransform="matrix(0.0559, 0.0, 0.0, 0.0559, -239.85, -15.55)" gradientUnits="userSpaceOnUse" id="gradient19" r="819.2" spreadMethod="pad">
      <stop offset="0.0" stop-color="#7f7f7f"/>
      <stop offset="1.0" stop-color="#464646"/>
    </radialGradient>
    <radialGradient cx="0" cy="0" gradientTransform="matrix(0.0636, 0.0, 0.0, 0.0636, -225.05, -44.95)" gradientUnits="userSpaceOnUse" id="gradient20" r="819.2" spreadMethod="pad">
      <stop offset="0.0" stop-color="#575757"/>
      <stop offset="1.0" stop-color="#080808"/>
    </radialGradient>
    <radialGradient cx="0" cy="0" gradientTransform="matrix(0.1272, 0.0, 0.0, 0.1272, -239.85, -15.55)" gradientUnits="userSpaceOnUse" id="gradient21" r="819.2" spreadMethod="pad">
      <stop offset="0.0" stop-color="#7f7f7f"/>
      <stop offset="1.0" stop-color="#040404"/>
    </radialGradient>
    <radialGradient cx="0" cy="0" gradientTransform="matrix(0.0391, 0.0, 0.0, 0.0391, -259.45, -32.4)" gradientUnits="userSpaceOnUse" id="gradient22" r="819.2" spreadMethod="pad">
      <stop offset="0.0" stop-color="#000000"/>
      <stop offset="1.0" stop-color="#000000"/>
    </radialGradient>
  </defs>
</svg>
