<?xml version="1.0" encoding="UTF-8" standalone="no"?>
<svg xmlns:xlink="http://www.w3.org/1999/xlink" height="299.1px" width="254.85px" xmlns="http://www.w3.org/2000/svg">
  <g transform="matrix(1.0, 0.0, 0.0, 1.0, 399.5, 300.0)">
    <path d="M-159.15 -300.0 L-161.4 -277.9 -207.75 -283.0 -223.65 -284.4 -244.9 -274.4 -245.75 -276.15 -246.25 -276.4 -246.65 -277.15 -244.65 -277.5 -243.25 -278.4 -240.15 -282.65 -239.15 -289.9 -239.65 -291.75 -230.5 -297.65 -228.4 -300.0 -159.15 -300.0" fill="url(#gradient0)" fill-rule="evenodd" stroke="none"/>
    <path d="M-159.15 -300.0 L-158.9 -299.9 -161.15 -277.9 -161.4 -277.9 -159.15 -300.0" fill="url(#gradient1)" fill-rule="evenodd" stroke="none"/>
    <path d="M-244.9 -274.4 L-223.65 -284.4 -207.75 -283.0 -161.4 -277.9 -177.65 -220.65 -178.65 -197.4 -181.0 -177.9 -184.25 -158.75 -214.75 -160.65 -251.75 -164.65 -247.15 -226.9 -244.9 -274.4" fill="url(#gradient2)" fill-rule="evenodd" stroke="none"/>
    <path d="M-264.4 -274.15 L-266.15 -279.0 -259.0 -274.75 -257.4 -274.25 -264.4 -274.15 M-246.25 -276.4 L-245.75 -276.15 -244.9 -274.4 -249.0 -274.4 -246.4 -275.75 -246.25 -276.4" fill="url(#gradient3)" fill-rule="evenodd" stroke="none"/>
    <path d="M-266.15 -279.0 L-272.25 -284.9 Q-278.75 -292.9 -280.75 -300.0 L-228.4 -300.0 -230.5 -297.65 -239.65 -291.75 -239.15 -289.9 -240.15 -282.65 -243.25 -278.4 -244.65 -277.5 -246.65 -277.15 -246.25 -276.4 -246.4 -275.75 -249.0 -274.4 -250.75 -273.9 -254.4 -273.65 -257.4 -274.25 -259.0 -274.75 -266.15 -279.0" fill="url(#gradient4)" fill-rule="evenodd" stroke="none"/>
    <path d="M-264.65 -167.75 L-263.25 -188.25 -256.4 -208.5 -255.0 -228.5 -255.65 -232.9 -264.4 -274.15 -257.4 -274.25 -254.4 -273.65 -250.75 -273.9 -249.0 -274.4 -244.9 -274.4 -247.15 -226.9 -251.75 -164.65 -264.65 -167.75" fill="url(#gradient5)" fill-rule="evenodd" stroke="none"/>
    <path d="M-161.4 -277.9 L-161.15 -277.9 -172.15 -165.9 -184.25 -158.75 -181.0 -177.9 -178.65 -197.4 -177.65 -220.65 -161.4 -277.9" fill="url(#gradient6)" fill-rule="evenodd" stroke="none"/>
    <path d="M-172.15 -165.9 L-157.15 -122.75 -152.65 -89.4 -163.75 -60.65 -184.5 -31.5 -184.75 -31.5 -203.75 -30.5 -203.65 -31.5 -203.5 -32.0 -191.5 -79.9 -184.25 -158.75 -172.15 -165.9" fill="url(#gradient7)" fill-rule="evenodd" stroke="none"/>
    <path d="M-286.4 -46.0 L-270.25 -82.15 -264.65 -167.75 -251.75 -164.65 -258.15 -90.4 -259.5 -68.75 -286.4 -46.0" fill="url(#gradient8)" fill-rule="evenodd" stroke="none"/>
    <path d="M-286.65 -45.65 L-286.4 -46.0 -259.5 -68.75 -236.4 -78.75 -215.15 -75.4 -202.15 -77.5 -203.75 -33.5 Q-205.15 -41.0 -207.15 -43.65 L-212.4 -35.5 -203.9 -31.25 -203.75 -30.5 -203.9 -30.4 -257.15 -7.65 -283.0 -18.65 -294.4 -21.15 -286.65 -45.65" fill="url(#gradient9)" fill-rule="evenodd" stroke="none"/>
    <path d="M-251.75 -164.65 L-214.75 -160.65 -184.25 -158.75 -191.5 -79.9 -203.5 -32.0 -203.75 -33.5 -202.15 -77.5 -215.15 -75.4 -236.4 -78.75 -259.5 -68.75 -258.15 -90.4 -251.75 -164.65 M-203.75 -30.5 L-203.9 -31.25 -203.65 -31.5 -203.75 -30.5" fill="url(#gradient10)" fill-rule="evenodd" stroke="none"/>
    <path d="M-203.9 -31.25 L-212.4 -35.5 -207.15 -43.65 Q-205.15 -41.0 -203.75 -33.5 L-203.5 -32.0 -203.65 -31.5 -203.9 -31.25 M-203.75 -30.0 L-203.65 -28.75 -204.15 -25.5 Q-207.4 -21.75 -211.65 -20.65 L-203.75 -30.0" fill="url(#gradient11)" fill-rule="evenodd" stroke="none"/>
    <path d="M-305.75 -0.9 L-351.5 -0.9 -341.25 -8.0 -319.25 -20.75 -286.65 -45.65 -294.4 -21.15 -283.0 -18.65 -257.15 -7.65 -301.0 -4.9 -305.75 -0.9" fill="url(#gradient12)" fill-rule="evenodd" stroke="none"/>
    <path d="M-243.9 -0.9 L-305.75 -0.9 -301.0 -4.9 -257.15 -7.65 -243.9 -0.9" fill="url(#gradient13)" fill-rule="evenodd" stroke="none"/>
    <path d="M-229.9 -0.9 L-243.9 -0.9 -257.15 -7.65 -203.9 -30.4 -203.75 -30.25 -203.75 -30.0 -211.65 -20.65 Q-207.4 -21.75 -204.15 -25.5 L-203.65 -28.75 -203.15 -24.5 -216.9 -12.4 -229.9 -0.9" fill="url(#gradient14)" fill-rule="evenodd" stroke="none"/>
    <path d="M-184.75 -31.5 L-199.0 -26.15 -203.75 -30.0 -203.75 -30.25 -203.9 -30.4 -203.75 -30.5 -184.75 -31.5" fill="url(#gradient15)" fill-rule="evenodd" stroke="none"/>
    <path d="M-199.0 -26.15 L-194.65 -21.9 -198.65 -23.0 -203.15 -24.5 -203.65 -28.75 -203.75 -30.0 -199.0 -26.15" fill="url(#gradient16)" fill-rule="evenodd" stroke="none"/>
    <path d="M-198.65 -23.0 L-198.0 -16.0 -199.5 -0.9 -217.9 -0.9 -216.9 -12.4 -203.15 -24.5 -198.65 -23.0" fill="url(#gradient17)" fill-rule="evenodd" stroke="none"/>
    <path d="M-217.9 -0.9 L-229.9 -0.9 -216.9 -12.4 -217.9 -0.9" fill="url(#gradient18)" fill-rule="evenodd" stroke="none"/>
    <path d="M-281.25 -300.0 L-280.75 -300.0 -276.5 -290.75 -276.15 -289.25 -276.5 -289.4 -281.25 -300.0" fill="#b30000" fill-opacity="0.9098039" fill-rule="evenodd" stroke="none"/>
    <path d="M-280.75 -300.0 L-279.5 -300.0 -279.4 -299.9 -278.75 -298.65 -278.9 -300.0 -272.9 -299.75 -271.65 -300.0 -269.75 -300.0 -264.65 -285.9 -264.9 -285.5 -264.5 -285.15 -264.4 -285.0 -261.4 -276.4 -265.15 -276.4 -265.65 -277.5 -265.75 -277.9 -265.9 -278.25 -265.9 -278.5 -266.15 -279.0 -267.25 -280.25 -272.5 -285.25 -273.25 -286.65 -276.5 -290.75 -280.75 -300.0 M-278.75 -298.65 L-278.9 -298.4 -278.65 -298.4 -278.75 -298.65" fill="#a20000" fill-opacity="0.9098039" fill-rule="evenodd" stroke="none"/>
    <path d="M-269.75 -300.0 L-192.5 -300.0 -173.75 -288.4 -167.5 -285.9 -167.0 -285.5 -160.75 -283.15 -160.75 -283.0 -160.75 -282.5 -160.9 -282.0 -160.9 -281.25 -160.9 -281.15 -161.0 -280.75 -161.0 -279.65 -161.15 -279.5 -161.15 -278.75 -161.0 -278.4 -161.25 -277.75 -161.4 -276.15 -161.25 -275.75 -161.5 -275.65 -161.5 -274.75 -161.4 -274.5 -161.65 -274.4 -162.4 -266.65 -164.0 -249.15 -164.15 -247.75 -164.25 -247.5 -164.25 -247.15 -164.4 -246.65 -169.25 -230.4 -169.65 -229.65 -169.5 -229.4 -173.25 -216.65 -173.5 -205.4 -173.75 -204.9 -173.65 -203.9 -174.15 -194.15 -174.0 -193.75 -175.4 -183.65 -175.5 -183.25 -175.4 -183.0 -176.9 -172.5 -176.75 -172.0 -178.5 -162.25 -178.65 -162.0 -180.25 -153.65 -180.25 -153.25 -181.0 -149.5 -212.25 -151.25 -258.5 -156.4 -257.15 -175.5 -257.4 -176.5 -255.25 -203.65 -255.4 -205.15 -253.75 -224.65 -254.4 -229.4 -258.5 -258.0 -259.0 -260.15 -261.15 -276.15 -261.4 -276.4 -264.4 -285.0 -264.5 -285.15 -264.9 -285.5 -264.65 -285.9 -269.75 -300.0" fill="#dd0000" fill-opacity="0.9098039" fill-rule="evenodd" stroke="none"/>
    <path d="M-258.5 -156.4 L-260.0 -140.4 -260.0 -138.4 -261.9 -119.75 -261.75 -119.4 -262.9 -108.65 -262.75 -107.15 -263.9 -97.5 -263.75 -97.0 -264.65 -88.25 -264.5 -86.65 -265.65 -76.65 -265.4 -76.0 -265.75 -73.9 -274.0 -61.75 -282.5 -54.75 -270.25 -82.15 -267.4 -123.9 -267.25 -124.25 -264.5 -169.0 -263.25 -187.9 -256.4 -208.5 -255.0 -228.9 -255.0 -229.5 -264.4 -274.15 -264.9 -275.4 -265.15 -276.4 -261.4 -276.4 -261.15 -276.15 -259.0 -260.15 -258.5 -258.0 -254.4 -229.4 -253.75 -224.65 -255.4 -205.15 -255.25 -203.65 -257.4 -176.5 -257.15 -175.5 -258.5 -156.4" fill="#9b0000" fill-opacity="0.9098039" fill-rule="evenodd" stroke="none"/>
    <path d="M-273.9 -276.5 L-281.9 -298.65 -282.25 -300.0 -281.25 -300.0 -276.5 -289.4 -276.15 -289.25 -276.5 -290.75 -273.25 -286.65 -272.5 -285.25 -267.25 -280.25 -266.15 -279.0 -265.9 -278.5 -265.9 -278.25 -265.75 -277.9 -265.65 -277.5 -265.15 -276.4 -273.9 -276.5" fill="#b50000" fill-rule="evenodd" stroke="none"/>
    <path d="M-160.75 -283.0 L-154.9 -280.5 -160.9 -281.25 -160.9 -282.0 -160.75 -282.5 -160.75 -283.0" fill="#f30000" fill-opacity="0.9098039" fill-rule="evenodd" stroke="none"/>
    <path d="M-154.9 -279.25 L-161.15 -258.9 -161.9 -265.15 -162.4 -266.65 -161.65 -274.4 -161.4 -274.5 -161.5 -274.75 -161.5 -275.65 -161.25 -275.75 -161.4 -276.15 -161.25 -277.75 -161.0 -278.4 -161.15 -278.75 -161.15 -279.5 -161.0 -279.65 -161.0 -280.75 -160.9 -281.15 -160.9 -281.25 -154.9 -280.5 -154.75 -280.0 -154.9 -279.25" fill="#f40000" fill-opacity="0.9098039" fill-rule="evenodd" stroke="none"/>
    <path d="M-161.15 -258.9 L-161.5 -256.5 -164.0 -249.15 -162.4 -266.65 -161.9 -265.15 -161.15 -258.9 M-198.15 -0.9 L-200.0 -0.9 -202.25 -6.0 -202.25 -6.5 -199.4 -2.9 -199.25 -2.4 -198.15 -0.9" fill="#ed0000" fill-rule="evenodd" stroke="none"/>
    <path d="M-155.5 -268.65 L-155.4 -269.15 -155.25 -268.9 -155.5 -268.65 -155.4 -267.9 -159.9 -230.75 -164.65 -182.65 -167.5 -158.4 -167.9 -158.65 -168.5 -159.65 -168.75 -160.4 -168.75 -160.5 -168.9 -160.75 -169.0 -161.0 -169.25 -162.15 -171.25 -165.75 -172.25 -165.9 -170.0 -188.15 -170.0 -188.65 -167.5 -211.65 -167.65 -211.9 -167.65 -212.25 -165.4 -233.4 -165.5 -234.5 -164.4 -246.65 -164.25 -247.15 -164.25 -247.5 -164.15 -247.75 -164.0 -249.15 -161.5 -256.5 -161.9 -240.25 -161.65 -240.15 -158.15 -259.65 -155.5 -268.65" fill="#e00000" fill-rule="evenodd" stroke="none"/>
    <path d="M-155.4 -269.15 L-155.5 -268.65 -158.15 -259.65 -161.65 -240.15 -161.9 -240.25 -161.5 -256.5 -161.15 -258.9 -154.9 -279.25 -154.75 -277.5 -155.4 -269.15" fill="#e60000" fill-opacity="0.9098039" fill-rule="evenodd" stroke="none"/>
    <path d="M-273.0 -161.0 L-272.0 -182.15 -264.25 -204.25 -262.75 -227.9 -273.9 -276.5 -270.65 -275.15 Q-270.15 -276.4 -264.9 -275.4 L-264.4 -274.15 -255.0 -229.5 -255.0 -228.9 -256.4 -208.5 -263.25 -187.9 -264.5 -169.0 -269.25 -168.5 -273.0 -161.0" fill="#ac0000" fill-rule="evenodd" stroke="none"/>
    <path d="M-305.15 -35.75 L-280.65 -67.9 -277.4 -91.4 -273.15 -160.4 -273.0 -161.0 -269.25 -168.5 -264.5 -169.0 -267.25 -124.25 -267.4 -123.9 -270.25 -82.15 -282.5 -54.75 -282.5 -54.65 -282.75 -54.25 -305.15 -35.75" fill="#ab0000" fill-rule="evenodd" stroke="none"/>
    <path d="M-265.15 -276.4 L-264.9 -275.4 Q-270.15 -276.4 -270.65 -275.15 L-273.9 -276.5 -265.15 -276.4" fill="#ad0000" fill-rule="evenodd" stroke="none"/>
    <path d="M-181.0 -149.5 L-184.0 -116.15 -183.9 -115.75 -186.15 -93.75 -185.9 -93.0 -189.15 -63.4 -189.15 -61.15 -198.15 -26.4 -199.0 -26.15 -198.4 -25.25 -198.9 -23.15 -198.9 -22.9 -200.25 -18.65 -200.15 -18.4 -202.75 -9.0 -202.5 -19.9 -202.65 -20.15 -202.25 -28.9 -202.4 -29.25 -202.15 -30.5 -202.0 -34.5 -202.15 -36.25 -201.75 -39.0 -201.25 -59.65 -215.5 -56.75 -216.75 -57.0 -235.65 -65.9 -235.75 -66.15 -241.75 -69.0 -265.25 -63.75 -265.5 -63.65 -274.0 -61.75 -265.75 -73.9 -265.4 -76.0 -265.65 -76.65 -264.5 -86.65 -264.65 -88.25 -263.75 -97.0 -263.9 -97.5 -262.75 -107.15 -262.9 -108.65 -261.75 -119.4 -261.9 -119.75 -260.0 -138.4 -260.0 -140.4 -258.5 -156.4 -212.25 -151.25 -181.0 -149.5 M-202.9 -7.9 L-199.0 -6.25 -199.4 -2.9 -202.25 -6.5 -202.4 -6.9 -202.9 -7.9" fill="#d80000" fill-opacity="0.9098039" fill-rule="evenodd" stroke="none"/>
    <path d="M-274.0 -61.75 L-265.5 -63.65 -265.25 -63.75 -241.75 -69.0 -235.75 -66.15 -235.65 -65.9 -216.75 -57.0 -215.5 -56.75 -201.25 -59.65 -201.75 -39.0 -202.15 -36.25 -202.0 -34.5 -202.15 -30.5 -202.4 -29.25 -202.25 -28.9 -202.65 -20.15 -202.5 -19.9 -202.75 -9.0 -202.9 -7.9 -216.9 -12.0 -217.25 -12.15 -239.0 -18.5 -274.0 -30.9 -297.4 -34.15 -297.75 -34.65 -298.0 -34.5 -301.0 -34.75 -287.4 -44.9 -286.65 -45.65 -286.4 -46.0 -282.75 -54.25 -282.5 -54.65 -282.5 -54.75 -274.0 -61.75" fill="#c70000" fill-opacity="0.9098039" fill-rule="evenodd" stroke="none"/>
    <path d="M-181.0 -149.5 L-169.15 -156.9 -166.5 -149.9 -157.15 -122.5 -152.9 -89.5 -152.75 -89.15 -163.75 -61.0 -165.65 -58.0 -184.4 -31.75 -184.75 -31.5 -188.5 -30.0 -198.15 -26.4 -189.15 -61.15 -189.15 -63.4 -185.9 -93.0 -186.15 -93.75 -183.9 -115.75 -184.0 -116.15 -181.0 -149.5 M-202.75 -9.0 L-200.15 -18.4 -200.25 -18.65 -198.9 -22.9 -198.9 -23.15 -198.4 -25.25 -194.65 -21.9 -198.75 -23.15 -198.9 -22.9 -198.15 -17.25 -198.0 -17.0 -198.15 -16.25 -198.0 -16.0 -199.0 -6.25 -202.9 -7.9 -202.75 -9.0" fill="#e80000" fill-opacity="0.9098039" fill-rule="evenodd" stroke="none"/>
    <path d="M-191.15 -0.9 L-198.15 -0.9 -199.25 -2.4 -199.4 -2.9 -199.0 -6.25 -191.15 -3.0 -191.15 -0.9 M-198.4 -25.25 L-199.0 -26.15 -198.15 -26.4 -198.4 -25.25" fill="#e90000" fill-rule="evenodd" stroke="none"/>
    <path d="M-164.4 -246.65 L-165.5 -234.5 -165.4 -233.4 -167.65 -212.25 -167.65 -211.9 -167.5 -211.65 -170.0 -188.65 -170.0 -188.15 -172.25 -165.9 -172.25 -165.75 -169.15 -156.9 -181.0 -149.5 -180.25 -153.25 -180.25 -153.65 -178.65 -162.0 -178.5 -162.25 -176.75 -172.0 -176.9 -172.5 -175.4 -183.0 -175.5 -183.25 -175.4 -183.65 -174.0 -193.75 -174.15 -194.15 -173.65 -203.9 -173.75 -204.9 -173.5 -205.4 -173.25 -216.65 -169.5 -229.4 -169.65 -229.65 -169.25 -230.4 -164.4 -246.65" fill="#d10000" fill-opacity="0.9098039" fill-rule="evenodd" stroke="none"/>
    <path d="M-172.25 -165.9 L-171.25 -165.75 -169.25 -162.15 -169.0 -161.0 -168.9 -160.75 -168.75 -160.5 -168.75 -160.4 -168.5 -159.65 -168.25 -157.4 -169.15 -156.9 -172.25 -165.75 -172.25 -165.9" fill="#e20000" fill-rule="evenodd" stroke="none"/>
    <path d="M-167.5 -158.4 L-167.4 -157.9 -167.75 -157.65 -168.25 -157.4 -168.5 -159.65 -167.9 -158.65 -167.5 -158.4" fill="#e30000" fill-rule="evenodd" stroke="none"/>
    <path d="M-167.4 -157.9 L-149.75 -110.25 -144.65 -74.0 -157.15 -43.25 -181.15 -0.9 -182.25 -0.9 -183.0 -6.4 -185.0 -8.5 -185.15 -8.75 -190.75 -14.75 -185.15 -24.15 -185.15 -24.5 -166.4 -55.75 -165.5 -57.75 -165.65 -58.0 -163.75 -61.0 -152.75 -89.15 -152.9 -89.5 -157.15 -122.5 -166.5 -149.9 -168.25 -157.4 -167.75 -157.65 -167.4 -157.9" fill="#fa0000" fill-rule="evenodd" stroke="none"/>
    <path d="M-169.15 -156.9 L-168.25 -157.4 -166.5 -149.9 -169.15 -156.9 M-188.5 -30.0 L-184.75 -31.5 -184.4 -31.75 -165.65 -58.0 -165.5 -57.75 -166.4 -55.75 -185.15 -24.5 -186.25 -28.0 -188.5 -30.0" fill="#f90000" fill-rule="evenodd" stroke="none"/>
    <path d="M-198.15 -26.4 L-188.5 -30.0 -186.25 -28.0 -185.15 -24.5 -185.15 -24.15 -190.75 -14.75 -185.15 -8.75 -185.0 -8.5 -186.5 -1.15 -191.15 -3.0 -199.0 -6.25 -198.0 -16.0 -198.15 -16.25 -198.0 -17.0 -198.15 -17.25 -198.9 -22.9 -198.75 -23.15 -194.65 -21.9 -198.4 -25.25 -198.15 -26.4" fill="#f80000" fill-rule="evenodd" stroke="none"/>
    <path d="M-305.4 -35.4 L-305.15 -35.75 -282.75 -54.25 -286.4 -46.0 -286.65 -45.65 -287.4 -44.9 -301.0 -34.75 -305.15 -35.25 -305.4 -35.4" fill="#d70000" fill-rule="evenodd" stroke="none"/>
    <path d="M-305.15 -35.25 L-301.0 -34.75 -301.4 -34.4 -302.4 -33.75 -305.15 -35.25" fill="#bc0000" fill-rule="evenodd" stroke="none"/>
    <path d="M-351.5 -0.9 L-399.5 -1.0 -305.4 -35.4 -305.15 -35.25 -302.4 -33.75 -318.75 -21.15 -340.15 -8.65 -341.5 -7.75 -341.75 -7.5 -341.9 -7.5 -342.4 -7.25 -342.4 -7.15 -351.5 -0.9" fill="#bb0000" fill-rule="evenodd" stroke="none"/>
    <path d="M-238.75 -17.75 L-235.4 -0.9 -351.5 -0.9 -342.4 -7.15 -342.4 -7.25 -341.9 -7.5 -341.75 -7.5 -341.5 -7.75 -340.15 -8.65 -318.75 -21.15 -302.4 -33.75 -301.4 -34.4 -300.25 -32.25 -299.75 -32.65 -297.4 -34.15 -274.0 -30.9 -239.0 -18.5 -238.75 -17.75" fill="#ab0000" fill-opacity="0.9098039" fill-rule="evenodd" stroke="none"/>
    <path d="M-200.0 -0.9 L-230.25 -0.9 -230.5 -1.25 -230.5 -1.5 -238.75 -17.75 -239.0 -18.5 -217.25 -12.15 -216.9 -12.0 -202.9 -7.9 -202.4 -6.9 -202.25 -6.5 -202.25 -6.0 -200.0 -0.9" fill="#d90000" fill-opacity="0.9098039" fill-rule="evenodd" stroke="none"/>
    <path d="M-182.25 -0.9 L-185.9 -0.9 -186.5 -1.15 -185.0 -8.5 -183.0 -6.4 -182.25 -0.9" fill="#f70000" fill-rule="evenodd" stroke="none"/>
    <path d="M-185.9 -0.9 L-191.15 -0.9 -191.15 -3.0 -186.5 -1.15 -185.9 -0.9" fill="#e80000" fill-rule="evenodd" stroke="none"/>
  </g>
  <defs>
    <radialGradient cx="0" cy="0" gradientTransform="matrix(0.1249, 0.0, 0.0, 0.1249, -161.45, -278.0)" gradientUnits="userSpaceOnUse" id="gradient0" r="819.2" spreadMethod="pad">
      <stop offset="0.0" stop-color="#3e3e3e"/>
      <stop offset="1.0" stop-color="#171717"/>
    </radialGradient>
    <radialGradient cx="0" cy="0" gradientTransform="matrix(0.027, 0.0, 0.0, 0.027, -161.45, -278.0)" gradientUnits="userSpaceOnUse" id="gradient1" r="819.2" spreadMethod="pad">
      <stop offset="0.0" stop-color="#3e3e3e"/>
      <stop offset="1.0" stop-color="#212121"/>
    </radialGradient>
    <radialGradient cx="0" cy="0" gradientTransform="matrix(0.1606, 0.0, 0.0, 0.1606, -184.25, -158.9)" gradientUnits="userSpaceOnUse" id="gradient2" r="819.2" spreadMethod="pad">
      <stop offset="0.0" stop-color="#666666"/>
      <stop offset="1.0" stop-color="#111111"/>
    </radialGradient>
    <radialGradient cx="0" cy="0" gradientTransform="matrix(0.047, 0.0, 0.0, 0.047, -273.65, -300.0)" gradientUnits="userSpaceOnUse" id="gradient3" r="819.2" spreadMethod="pad">
      <stop offset="0.0" stop-color="#000000"/>
      <stop offset="1.0" stop-color="#000000"/>
    </radialGradient>
    <radialGradient cx="0" cy="0" gradientTransform="matrix(0.0603, 0.0, 0.0, 0.0603, -272.45, -285.3)" gradientUnits="userSpaceOnUse" id="gradient4" r="819.2" spreadMethod="pad">
      <stop offset="0.0" stop-color="#878787"/>
      <stop offset="1.0" stop-color="#000000"/>
    </radialGradient>
    <radialGradient cx="0" cy="0" gradientTransform="matrix(0.0794, 0.0, 0.0, 0.0794, -254.95, -229.6)" gradientUnits="userSpaceOnUse" id="gradient5" r="819.2" spreadMethod="pad">
      <stop offset="0.0" stop-color="#000000"/>
      <stop offset="1.0" stop-color="#000000"/>
    </radialGradient>
    <radialGradient cx="0" cy="0" gradientTransform="matrix(0.1375, 0.0, 0.0, 0.1375, -172.3, -165.95)" gradientUnits="userSpaceOnUse" id="gradient6" r="819.2" spreadMethod="pad">
      <stop offset="0.0" stop-color="#696969"/>
      <stop offset="1.0" stop-color="#161616"/>
    </radialGradient>
    <radialGradient cx="0" cy="0" gradientTransform="matrix(0.0963, 0.0, 0.0, 0.0963, -152.75, -89.5)" gradientUnits="userSpaceOnUse" id="gradient7" r="819.2" spreadMethod="pad">
      <stop offset="0.0" stop-color="#838383"/>
      <stop offset="1.0" stop-color="#676767"/>
    </radialGradient>
    <radialGradient cx="0" cy="0" gradientTransform="matrix(0.099, 0.0, 0.0, 0.099, -267.35, -124.65)" gradientUnits="userSpaceOnUse" id="gradient8" r="819.2" spreadMethod="pad">
      <stop offset="0.0" stop-color="#000000"/>
      <stop offset="1.0" stop-color="#000000"/>
    </radialGradient>
    <radialGradient cx="0" cy="0" gradientTransform="matrix(0.1111, 0.0, 0.0, 0.1111, -203.8, -30.55)" gradientUnits="userSpaceOnUse" id="gradient9" r="819.2" spreadMethod="pad">
      <stop offset="0.0" stop-color="#464646"/>
      <stop offset="1.0" stop-color="#000000"/>
    </radialGradient>
    <radialGradient cx="0" cy="0" gradientTransform="matrix(0.0959, 0.0, 0.0, 0.0959, -213.15, -96.15)" gradientUnits="userSpaceOnUse" id="gradient10" r="819.2" spreadMethod="pad">
      <stop offset="0.0" stop-color="#6e6e6e"/>
      <stop offset="1.0" stop-color="#232323"/>
    </radialGradient>
    <radialGradient cx="0" cy="0" gradientTransform="matrix(0.0683, 0.0, 0.0, 0.0683, -239.85, -2.4)" gradientUnits="userSpaceOnUse" id="gradient11" r="819.2" spreadMethod="pad">
      <stop offset="0.0" stop-color="#737373"/>
      <stop offset="1.0" stop-color="#292929"/>
    </radialGradient>
    <radialGradient cx="0" cy="0" gradientTransform="matrix(0.1153, 0.0, 0.0, 0.1153, -257.25, -7.75)" gradientUnits="userSpaceOnUse" id="gradient12" r="819.2" spreadMethod="pad">
      <stop offset="0.0" stop-color="#0e0e0e"/>
      <stop offset="1.0" stop-color="#000000"/>
    </radialGradient>
    <radialGradient cx="0" cy="0" gradientTransform="matrix(0.0756, 0.0, 0.0, 0.0756, -243.95, -1.0)" gradientUnits="userSpaceOnUse" id="gradient13" r="819.2" spreadMethod="pad">
      <stop offset="0.0" stop-color="#505050"/>
      <stop offset="1.0" stop-color="#010101"/>
    </radialGradient>
    <radialGradient cx="0" cy="0" gradientTransform="matrix(0.049, 0.0, 0.0, 0.049, -231.0, -1.0)" gradientUnits="userSpaceOnUse" id="gradient14" r="819.2" spreadMethod="pad">
      <stop offset="0.0" stop-color="#777777"/>
      <stop offset="1.0" stop-color="#464646"/>
    </radialGradient>
    <radialGradient cx="0" cy="0" gradientTransform="matrix(0.0236, 0.0, 0.0, 0.0236, -203.8, -30.55)" gradientUnits="userSpaceOnUse" id="gradient15" r="819.2" spreadMethod="pad">
      <stop offset="0.0" stop-color="#464646"/>
      <stop offset="1.0" stop-color="#2c2c2c"/>
    </radialGradient>
    <radialGradient cx="0" cy="0" gradientTransform="matrix(0.0154, 0.0, 0.0, 0.0154, -203.8, -30.55)" gradientUnits="userSpaceOnUse" id="gradient16" r="819.2" spreadMethod="pad">
      <stop offset="0.0" stop-color="#464646"/>
      <stop offset="1.0" stop-color="#000000"/>
    </radialGradient>
    <radialGradient cx="0" cy="0" gradientTransform="matrix(0.0312, 0.0, 0.0, 0.0312, -198.05, -17.15)" gradientUnits="userSpaceOnUse" id="gradient17" r="819.2" spreadMethod="pad">
      <stop offset="0.0" stop-color="#494949"/>
      <stop offset="1.0" stop-color="#303030"/>
    </radialGradient>
    <radialGradient cx="0" cy="0" gradientTransform="matrix(0.0335, 0.0, 0.0, 0.0335, -225.95, -27.3)" gradientUnits="userSpaceOnUse" id="gradient18" r="819.2" spreadMethod="pad">
      <stop offset="0.0" stop-color="#575757"/>
      <stop offset="1.0" stop-color="#303030"/>
    </radialGradient>
  </defs>
</svg>
