<?xml version="1.0" encoding="UTF-8" standalone="no"?>
<svg xmlns:xlink="http://www.w3.org/1999/xlink" height="299.1px" width="169.75px" xmlns="http://www.w3.org/2000/svg">
  <g transform="matrix(1.0, 0.0, 0.0, 1.0, 289.75, 300.0)">
    <path d="M-153.0 -267.75 L-155.75 -238.25 -196.15 -242.9 -212.4 -244.4 -236.5 -234.65 -238.0 -236.9 -238.0 -237.4 Q-236.4 -237.25 -233.9 -238.75 L-230.15 -243.0 -228.5 -249.9 -228.75 -251.65 -219.25 -257.5 -213.5 -263.9 -212.15 -266.25 -210.25 -275.0 -210.75 -285.15 Q-216.65 -296.4 -218.75 -296.5 L-219.25 -300.0 -207.9 -300.0 -208.0 -299.0 -207.15 -298.65 -200.75 -298.0 -176.5 -268.9 -171.75 -267.9 -153.0 -267.75" fill="url(#gradient0)" fill-rule="evenodd" stroke="none"/>
    <path d="M-207.9 -300.0 L-202.4 -300.0 -200.75 -298.0 -207.15 -298.65 -208.0 -299.0 -207.9 -300.0" fill="url(#gradient1)" fill-rule="evenodd" stroke="none"/>
    <path d="M-202.4 -300.0 L-185.15 -300.0 Q-187.4 -292.4 -186.5 -291.25 L-171.75 -267.9 -176.5 -268.9 -200.75 -298.0 -202.4 -300.0" fill="url(#gradient2)" fill-rule="evenodd" stroke="none"/>
    <path d="M-142.25 -267.65 L-153.0 -267.75 -171.75 -267.9 -186.5 -291.25 Q-187.4 -292.4 -185.15 -300.0 L-151.0 -300.0 -135.75 -284.4 -141.75 -268.15 -142.25 -267.65" fill="url(#gradient3)" fill-rule="evenodd" stroke="none"/>
    <path d="M-151.0 -300.0 L-125.25 -300.0 -135.75 -284.4 -151.0 -300.0" fill="url(#gradient4)" fill-rule="evenodd" stroke="none"/>
    <path d="M-132.25 -280.4 L-141.9 -267.65 -142.25 -267.65 -141.75 -268.15 -135.75 -284.4 -125.25 -300.0 -120.0 -300.0 -123.25 -292.4 -123.25 -292.25 -132.25 -280.4" fill="url(#gradient5)" fill-rule="evenodd" stroke="none"/>
    <path d="M-271.75 -299.5 L-271.5 -300.0 -219.25 -300.0 -218.75 -296.5 Q-216.65 -296.4 -210.75 -285.15 L-210.25 -275.0 -212.15 -266.25 -213.5 -263.9 -219.25 -257.5 -228.75 -251.65 -228.5 -249.9 -230.15 -243.0 -233.9 -238.75 Q-236.4 -237.25 -238.0 -237.4 L-238.0 -236.9 -238.25 -236.0 -241.5 -234.65 -247.4 -234.0 -251.15 -234.65 -253.15 -235.25 -261.5 -239.5 -261.65 -240.0 -265.75 -243.65 -268.5 -246.65 -271.15 -250.9 -272.75 -252.75 -275.9 -259.9 -278.15 -269.0 Q-279.9 -287.75 -271.75 -299.5" fill="url(#gradient6)" fill-rule="evenodd" stroke="none"/>
    <path d="M-262.5 -234.4 L-264.5 -239.9 -264.65 -240.0 -265.75 -243.25 -265.75 -243.65 -261.65 -240.0 -261.5 -239.5 -253.15 -235.25 -251.15 -234.65 -262.5 -234.4 M-238.0 -236.9 L-236.5 -234.65 -241.5 -234.65 -238.25 -236.0 -238.0 -236.9" fill="url(#gradient7)" fill-rule="evenodd" stroke="none"/>
    <path d="M-263.25 -134.15 L-262.0 -153.75 -255.4 -173.25 -254.0 -191.65 -254.25 -194.75 -262.5 -234.4 -251.15 -234.65 -247.4 -234.0 -241.5 -234.65 -236.5 -234.65 -240.9 -188.75 -245.65 -124.5 -260.65 -127.5 -263.25 -134.15" fill="url(#gradient8)" fill-rule="evenodd" stroke="none"/>
    <path d="M-264.65 -240.0 Q-278.4 -250.4 -281.15 -268.0 -283.9 -284.25 -271.75 -299.5 -279.9 -287.75 -278.15 -269.0 L-275.9 -259.9 -272.75 -252.75 -271.15 -250.9 -268.5 -246.65 -265.75 -243.65 -265.75 -243.25 -264.65 -240.0" fill="url(#gradient9)" fill-rule="evenodd" stroke="none"/>
    <path d="M-123.25 -292.25 L-127.5 -281.9 -132.25 -280.4 -123.25 -292.25" fill="url(#gradient10)" fill-rule="evenodd" stroke="none"/>
    <path d="M-155.75 -238.25 L-155.9 -237.9 -155.9 -237.65 -170.4 -182.15 -171.25 -161.5 -171.0 -160.9 -173.65 -139.5 -176.75 -120.65 -206.5 -121.5 -245.65 -124.5 -240.9 -188.75 -236.5 -234.65 -212.4 -244.4 -196.15 -242.9 -155.75 -238.25" fill="url(#gradient11)" fill-rule="evenodd" stroke="none"/>
    <path d="M-155.9 -237.65 L-162.5 -195.25 -168.65 -128.15 -176.75 -120.65 -173.65 -139.5 -171.0 -160.9 -171.25 -161.5 -170.4 -182.15 -155.9 -237.65" fill="url(#gradient12)" fill-rule="evenodd" stroke="none"/>
    <path d="M-168.65 -128.15 L-151.9 -85.4 -147.25 -52.25 -157.9 -23.0 -172.25 -1.0 -190.25 -0.9 -183.25 -33.9 -183.15 -35.75 -182.15 -39.25 -178.25 -80.5 -176.75 -120.65 -168.65 -128.15" fill="url(#gradient13)" fill-rule="evenodd" stroke="none"/>
    <path d="M-276.9 -0.9 L-277.5 -0.9 -277.65 -1.25 -267.25 -39.0 -269.4 -51.75 -263.25 -134.15 -260.65 -127.5 -245.65 -124.5 -248.5 -52.5 -250.5 -25.5 -276.9 -0.9" fill="url(#gradient14)" fill-rule="evenodd" stroke="none"/>
    <path d="M-190.25 -0.9 L-192.5 -0.9 -191.75 -37.65 -203.0 -34.65 -224.4 -37.0 -225.75 -36.9 -250.5 -25.5 -248.5 -52.5 -245.65 -124.5 -206.5 -121.5 -176.75 -120.65 -178.25 -80.5 -182.15 -39.25 -183.15 -35.75 -183.25 -33.9 -190.25 -0.9" fill="url(#gradient15)" fill-rule="evenodd" stroke="none"/>
    <path d="M-192.5 -0.9 L-195.0 -0.9 -195.5 -2.25 -195.9 -2.4 -196.65 -0.9 -276.9 -0.9 -250.5 -25.5 -225.75 -36.9 -224.4 -37.0 -203.0 -34.65 -191.75 -37.65 -192.5 -0.9" fill="url(#gradient16)" fill-rule="evenodd" stroke="none"/>
    <path d="M-195.0 -0.9 L-196.65 -0.9 -195.9 -2.4 -195.5 -2.25 -195.0 -0.9" fill="url(#gradient17)" fill-rule="evenodd" stroke="none"/>
    <path d="M-276.15 -296.0 L-275.9 -296.4 -275.75 -296.75 -275.75 -296.9 -275.5 -297.4 -275.5 -297.65 -275.4 -297.75 -273.0 -300.0 -271.5 -300.0 -271.75 -299.5 -272.65 -298.75 -275.25 -295.0 -276.15 -295.75 -276.15 -296.0 M-274.5 -300.0 L-273.9 -300.0 -274.75 -299.25 -274.5 -300.0" fill="#ab0000" fill-opacity="0.9098039" fill-rule="evenodd" stroke="none"/>
    <path d="M-275.75 -296.9 L-275.75 -297.15 -275.5 -297.4 -275.75 -296.9 M-275.4 -298.4 L-275.15 -298.65 -274.5 -300.0 -274.75 -299.25 -273.9 -300.0 -273.0 -300.0 -275.4 -297.75 -275.4 -298.4 M-278.15 -289.25 L-278.25 -289.0 -278.65 -289.0 -276.5 -294.9 -276.4 -295.0 -276.15 -295.75 -275.25 -295.0 -278.15 -289.25 M-277.25 -34.5 L-277.0 -35.25 -277.15 -34.25 -277.25 -34.5" fill="#ab0000" fill-rule="evenodd" stroke="none"/>
    <path d="M-285.65 -272.15 L-276.75 -296.4 -276.15 -296.0 -276.15 -295.75 -276.4 -295.0 -276.5 -294.9 -278.65 -289.0 -278.5 -288.65 -278.9 -286.9 -280.0 -284.25 -281.15 -276.9 -281.4 -276.25 -281.4 -275.0 -285.65 -272.15 M-275.75 -297.15 L-276.25 -296.75 -276.25 -297.65 -275.4 -298.4 -275.4 -297.75 -275.5 -297.65 -275.5 -297.4 -275.75 -297.15" fill="#af0000" fill-opacity="0.9098039" fill-rule="evenodd" stroke="none"/>
    <path d="M-257.5 -299.9 L-257.5 -299.75 -257.75 -299.65 -258.0 -299.5 -259.5 -298.9 -259.65 -298.65 -259.9 -298.5 -260.15 -298.4 -260.4 -298.25 -260.75 -298.15 -260.9 -298.0 -261.4 -297.9 -261.4 -297.75 -261.65 -297.65 -261.9 -297.5 -262.15 -297.4 -263.25 -296.75 -263.5 -296.65 -263.75 -296.5 -264.0 -296.4 -264.25 -296.25 -264.5 -296.15 -264.75 -296.0 -265.0 -295.9 -265.25 -295.75 -265.5 -295.65 -267.15 -294.75 -267.4 -294.65 -267.65 -294.5 -267.9 -294.4 -268.15 -294.25 -268.4 -294.15 -268.65 -294.0 -268.9 -293.9 -269.15 -293.75 -269.4 -293.65 -270.5 -293.0 -270.75 -292.9 -271.0 -292.75 -271.75 -292.5 -271.75 -292.4 -272.0 -292.25 -272.25 -292.15 -272.5 -292.0 -272.75 -291.9 -273.0 -291.75 -273.25 -291.65 -273.5 -291.5 -274.5 -291.15 -274.65 -290.9 -274.9 -290.75 -275.15 -290.65 -275.4 -290.5 -276.0 -290.4 -276.15 -290.15 -276.4 -290.0 -276.65 -289.9 -276.9 -289.75 -277.15 -289.65 -277.4 -289.5 -278.15 -289.25 -275.25 -295.0 -272.65 -298.75 -271.75 -299.5 -271.5 -300.0 -257.5 -299.9 M-264.5 -118.65 L-264.0 -118.5 -263.0 -118.4 -262.65 -118.25 -252.0 -116.0 -252.9 -95.9 -252.75 -94.0 -254.25 -60.9 -254.0 -59.75 -254.65 -52.65 -254.5 -52.25 -255.4 -37.5 -255.15 -36.25 -255.5 -30.65 -256.0 -30.0 -264.4 -17.4 -276.0 -6.9 -267.25 -39.25 -267.25 -40.0 -269.4 -51.75 -268.15 -68.15 -268.15 -69.15 -268.0 -69.9 -266.65 -88.9 -266.65 -90.15 -266.5 -90.65 -264.5 -118.65" fill="#9b0000" fill-opacity="0.9098039" fill-rule="evenodd" stroke="none"/>
    <path d="M-155.25 -244.15 L-155.5 -241.65 -212.0 -247.9 -212.15 -248.0 -214.5 -247.75 -230.4 -242.75 -230.5 -242.65 -230.75 -242.5 -243.75 -238.5 -244.25 -238.5 -244.15 -238.4 -244.4 -238.4 -244.4 -238.15 -250.4 -236.4 -250.75 -237.0 -251.15 -238.9 -251.4 -239.0 -261.0 -270.5 -260.75 -271.75 -260.9 -272.15 -260.75 -272.4 -257.65 -297.9 -257.5 -298.15 -257.65 -298.9 -257.4 -299.15 -257.5 -299.75 -257.5 -299.9 -252.9 -297.75 -252.4 -297.65 -245.75 -294.65 -245.65 -294.4 -230.25 -287.4 -229.75 -287.25 -229.25 -286.9 -228.65 -286.75 -228.5 -286.5 -211.5 -278.9 -211.4 -278.65 -210.5 -278.4 -210.4 -278.15 -209.65 -277.75 -209.65 -277.65 -197.4 -270.15 -196.9 -270.0 -192.25 -267.15 -192.15 -266.9 -190.15 -265.9 -189.75 -265.4 -176.0 -257.0 -175.9 -256.75 -162.25 -247.9 -161.9 -247.5 -155.25 -244.15" fill="#da0000" fill-opacity="0.9098039" fill-rule="evenodd" stroke="none"/>
    <path d="M-257.5 -299.75 L-257.4 -299.15 -257.65 -298.9 -257.5 -298.15 -257.65 -297.9 -260.75 -272.4 -260.9 -272.15 -260.75 -271.75 -261.0 -270.5 -251.4 -239.0 -251.15 -238.9 -250.75 -237.0 -250.4 -236.4 -254.75 -236.5 -255.0 -236.65 -262.0 -236.75 -263.4 -236.9 -264.5 -239.9 -265.65 -240.65 -266.0 -241.15 -271.25 -246.15 -275.4 -251.75 -275.9 -252.75 -276.15 -253.4 -276.15 -255.0 -278.5 -264.0 -278.5 -265.0 -279.5 -268.4 -279.9 -271.0 -279.5 -272.9 -279.4 -276.75 -279.25 -277.9 -279.4 -279.75 -279.0 -280.9 -278.9 -284.5 -279.0 -285.5 -278.65 -286.4 -278.9 -286.9 -278.5 -288.65 -278.25 -289.0 -278.15 -289.25 -277.4 -289.5 -277.15 -289.65 -276.9 -289.75 -276.65 -289.9 -276.4 -290.0 -276.15 -290.15 -276.0 -290.4 -275.4 -290.5 -275.15 -290.65 -274.9 -290.75 -274.65 -290.9 -274.5 -291.15 -273.5 -291.5 -273.25 -291.65 -273.0 -291.75 -272.75 -291.9 -272.5 -292.0 -272.25 -292.15 -272.0 -292.25 -271.75 -292.4 -271.75 -292.5 -271.0 -292.75 -270.75 -292.9 -270.5 -293.0 -269.4 -293.65 -269.15 -293.75 -268.9 -293.9 -268.65 -294.0 -268.4 -294.15 -268.15 -294.25 -267.9 -294.4 -267.65 -294.5 -267.4 -294.65 -267.15 -294.75 -265.5 -295.65 -265.25 -295.75 -265.0 -295.9 -264.75 -296.0 -264.5 -296.15 -264.25 -296.25 -264.0 -296.4 -263.75 -296.5 -263.5 -296.65 -263.25 -296.75 -262.15 -297.4 -261.9 -297.5 -261.65 -297.65 -261.4 -297.75 -261.4 -297.9 -260.9 -298.0 -260.75 -298.15 -260.4 -298.25 -260.15 -298.4 -259.9 -298.5 -259.65 -298.65 -259.5 -298.9 -258.0 -299.5 -257.75 -299.65 -257.5 -299.75 M-272.65 -261.5 L-272.4 -260.9 -271.5 -259.4 -271.75 -261.65 -272.65 -262.5 -272.65 -261.5" fill="#a10000" fill-opacity="0.9098039" fill-rule="evenodd" stroke="none"/>
    <path d="M-250.4 -236.4 L-244.4 -238.15 -244.4 -238.4 -244.15 -238.4 -244.25 -238.5 -243.75 -238.5 -230.75 -242.5 -230.5 -242.65 -230.4 -242.75 -214.5 -247.75 -212.15 -248.0 -212.0 -247.9 -155.5 -241.65 -155.9 -238.65 -155.75 -238.25 -156.25 -235.75 -156.15 -235.5 -156.4 -235.25 -156.25 -234.75 -161.4 -201.75 -162.25 -196.75 -162.5 -195.9 -162.25 -195.75 -163.4 -183.5 -163.9 -180.5 -164.65 -178.5 -164.9 -174.9 -164.75 -174.4 -164.65 -173.75 -164.9 -172.75 -164.75 -172.5 -164.75 -171.25 -165.25 -162.25 -165.4 -160.9 -166.75 -150.15 -166.65 -149.0 -167.15 -142.9 -167.15 -142.5 -167.25 -141.9 -167.25 -141.25 -167.4 -140.9 -168.65 -129.65 -169.0 -129.25 -169.0 -128.5 -172.15 -114.25 -172.15 -113.75 -172.5 -111.65 -172.65 -111.4 -206.15 -112.25 -252.0 -116.0 -250.5 -132.9 -250.65 -133.5 -248.5 -158.15 -248.65 -159.4 -246.9 -179.25 -247.0 -180.5 -246.5 -184.9 -247.9 -205.75 -248.25 -207.4 -250.4 -236.4" fill="#dd0000" fill-opacity="0.9098039" fill-rule="evenodd" stroke="none"/>
    <path d="M-155.5 -241.65 L-155.25 -244.15 -148.15 -240.65 -155.5 -241.65" fill="#f00000" fill-opacity="0.9098039" fill-rule="evenodd" stroke="none"/>
    <path d="M-283.15 -266.0 L-283.15 -266.15 -283.65 -267.25 -283.9 -267.65 -284.0 -268.0 -284.4 -268.75 -285.65 -272.15 -281.4 -275.0 -281.0 -268.75 -281.15 -268.15 -279.25 -260.75 -279.25 -260.25 -276.15 -253.4 -275.9 -252.75 -275.4 -251.75 -275.0 -249.5 -275.5 -250.0 -282.25 -264.75 -283.15 -266.0" fill="#ec0000" fill-opacity="0.9098039" fill-rule="evenodd" stroke="none"/>
    <path d="M-278.25 -289.0 L-278.5 -288.65 -278.65 -289.0 -278.25 -289.0" fill="#b10000" fill-rule="evenodd" stroke="none"/>
    <path d="M-271.4 -236.5 L-283.15 -266.0 -282.25 -264.75 -275.5 -250.0 -275.0 -249.5 -275.4 -251.75 -271.25 -246.15 -266.0 -241.15 -265.65 -240.65 -264.5 -239.9 -263.4 -236.9 -268.65 -237.0 -269.75 -236.4 -271.4 -236.5" fill="#b70000" fill-rule="evenodd" stroke="none"/>
    <path d="M-271.65 -128.65 L-270.4 -149.25 -263.0 -170.25 -261.5 -190.25 -261.75 -193.5 -271.4 -236.5 -270.5 -235.9 -270.25 -236.0 -270.0 -236.15 -269.75 -236.25 -269.75 -236.4 -263.0 -235.75 -262.5 -234.4 -261.65 -230.0 -261.4 -229.25 -261.4 -228.9 -261.15 -227.9 -261.0 -227.5 -261.0 -227.4 -254.0 -192.9 -255.5 -173.15 -256.0 -171.65 -256.0 -171.4 -256.15 -171.15 -256.15 -171.0 -261.9 -153.75 -263.65 -130.0 -263.9 -129.65 -271.65 -128.65" fill="#b00000" fill-rule="evenodd" stroke="none"/>
    <path d="M-271.65 -127.9 L-271.75 -128.25 -271.65 -128.65 -263.9 -129.65 -263.75 -129.65 -263.75 -128.4 -264.5 -118.65 -269.25 -119.75 -271.65 -127.9" fill="#ad0000" fill-rule="evenodd" stroke="none"/>
    <path d="M-263.4 -236.9 L-262.0 -236.75 -255.0 -236.65 -254.75 -236.5 -250.4 -236.4 -248.25 -207.4 -247.9 -205.75 -246.5 -184.9 -247.0 -180.5 -246.9 -179.25 -248.65 -159.4 -248.5 -158.15 -250.65 -133.5 -250.5 -132.9 -252.0 -116.0 -262.65 -118.25 -263.0 -118.4 -264.0 -118.5 -264.5 -118.65 -263.75 -128.4 -263.75 -129.65 -263.9 -129.65 -263.65 -130.0 -261.9 -153.75 -256.15 -171.0 -256.15 -171.15 -256.0 -171.4 -256.0 -171.65 -255.5 -173.15 -254.0 -192.9 -261.0 -227.4 -261.0 -227.5 -261.15 -227.9 -261.4 -228.9 -261.4 -229.25 -261.65 -230.0 -262.5 -234.4 -263.0 -235.75 -263.4 -236.9" fill="#9d0000" fill-opacity="0.9098039" fill-rule="evenodd" stroke="none"/>
    <path d="M-269.75 -236.4 L-268.65 -237.0 -263.4 -236.9 -263.0 -235.75 -269.75 -236.4" fill="#b20000" fill-rule="evenodd" stroke="none"/>
    <path d="M-269.75 -236.4 L-269.75 -236.25 -270.0 -236.15 -270.25 -236.0 -270.5 -235.9 -271.4 -236.5 -269.75 -236.4" fill="#b50000" fill-rule="evenodd" stroke="none"/>
    <path d="M-155.5 -241.65 L-148.15 -240.65 -148.4 -239.65 -148.5 -239.4 -148.5 -239.25 -148.9 -238.15 -151.65 -230.9 -156.4 -221.75 -161.4 -201.75 -156.25 -234.75 -156.4 -235.25 -156.15 -235.5 -156.25 -235.75 -155.75 -238.25 -155.9 -238.65 -155.5 -241.65" fill="#f40000" fill-opacity="0.9098039" fill-rule="evenodd" stroke="none"/>
    <path d="M-148.9 -238.15 L-148.75 -237.5 -148.9 -237.0 -163.4 -183.5 -162.25 -195.75 -162.5 -195.9 -162.25 -196.75 -161.4 -201.75 -156.4 -221.75 -151.65 -230.9 -148.9 -238.15 M-165.25 -162.25 L-165.15 -161.15 -165.4 -160.9 -165.25 -157.4 -167.15 -142.9 -166.65 -149.0 -166.75 -150.15 -165.4 -160.9 -165.25 -162.25 M-167.15 -142.5 L-167.0 -142.0 -167.25 -141.9 -167.15 -142.5 M-167.25 -141.25 L-167.15 -141.0 -167.4 -140.9 -167.25 -141.25" fill="#ed0000" fill-rule="evenodd" stroke="none"/>
    <path d="M-148.75 -237.5 L-148.65 -237.25 -148.9 -237.0 -148.75 -236.65 -156.5 -194.0 -161.15 -143.65 -163.9 -120.25 -166.4 -122.4 -168.9 -127.9 -169.0 -128.5 -168.5 -129.25 -168.65 -129.65 -167.4 -140.9 -167.15 -141.0 -167.25 -141.25 -167.25 -141.9 -167.0 -142.0 -167.15 -142.5 -167.15 -142.9 -165.25 -157.4 -165.4 -160.9 -165.15 -161.15 -165.25 -162.25 -164.75 -171.25 -164.65 -173.75 -164.4 -174.25 -163.75 -179.65 -163.9 -180.5 -163.4 -183.5 -148.9 -237.0 -148.75 -237.5" fill="#e50000" fill-rule="evenodd" stroke="none"/>
    <path d="M-166.4 -122.4 L-163.9 -120.25 -165.15 -119.0 -166.4 -122.4" fill="#e70000" fill-rule="evenodd" stroke="none"/>
    <path d="M-163.9 -180.5 L-163.75 -179.65 -164.4 -174.25 -164.65 -173.75 -164.75 -171.25 -164.75 -172.5 -164.9 -172.75 -164.65 -173.75 -164.75 -174.4 -164.9 -174.9 -164.65 -178.5 -163.9 -180.5 M-168.65 -129.65 L-168.5 -129.25 -169.0 -128.5 -168.9 -127.9 -166.4 -122.4 -165.15 -119.0 -171.25 -112.65 -172.5 -111.65 -172.15 -113.75 -172.15 -114.25 -169.0 -128.5 -169.0 -129.25 -168.65 -129.65" fill="#d50000" fill-opacity="0.9098039" fill-rule="evenodd" stroke="none"/>
    <path d="M-172.4 -0.9 L-182.9 -0.9 -180.25 -13.15 -180.15 -14.65 -178.4 -22.0 -177.15 -35.9 -177.25 -36.15 -175.65 -51.9 -175.65 -52.4 -174.15 -66.9 -172.65 -111.4 -172.5 -111.65 -171.25 -112.65 -165.15 -119.0 -152.4 -86.15 -151.9 -85.25 -147.4 -52.4 -158.0 -23.0 -172.4 -0.9" fill="#e80000" fill-opacity="0.9098039" fill-rule="evenodd" stroke="none"/>
    <path d="M-282.25 -0.9 L-289.75 -0.9 -278.15 -23.25 -277.25 -32.5 -277.25 -33.65 -277.15 -34.25 -277.0 -35.25 -277.25 -34.5 -278.0 -39.0 -271.65 -127.9 -269.25 -119.75 -264.5 -118.65 -266.5 -90.65 -266.65 -90.15 -266.65 -88.9 -268.0 -69.9 -268.15 -69.15 -268.15 -68.15 -269.4 -51.75 -267.25 -40.0 -267.25 -39.25 -276.0 -6.9 -276.15 -6.5 -276.4 -6.25 -282.25 -0.9" fill="#ac0000" fill-rule="evenodd" stroke="none"/>
    <path d="M-277.25 -33.65 L-277.25 -34.5 -277.15 -34.25 -277.25 -33.65" fill="#b60000" fill-rule="evenodd" stroke="none"/>
    <path d="M-163.9 -120.25 L-144.25 -73.4 -138.75 -37.25 -150.25 -7.0 -153.25 -0.9 -172.4 -0.9 -158.0 -23.0 -147.4 -52.4 -151.9 -85.25 -152.4 -86.15 -165.15 -119.0 -163.9 -120.25" fill="#f90000" fill-rule="evenodd" stroke="none"/>
    <path d="M-182.9 -0.9 L-189.75 -0.9 -189.9 -2.0 -189.5 -5.25 -189.5 -9.75 -189.65 -11.0 -189.4 -13.15 -189.4 -19.25 -202.0 -15.4 -210.4 -18.5 -210.5 -18.9 -210.9 -19.0 -229.25 -26.65 -254.65 -20.0 -255.0 -19.75 -257.0 -19.4 -257.25 -19.25 -257.5 -19.15 -264.4 -17.4 -256.0 -30.0 -255.5 -30.65 -255.15 -36.25 -255.4 -37.5 -254.5 -52.25 -254.65 -52.65 -254.0 -59.75 -254.25 -60.9 -252.75 -94.0 -252.9 -95.9 -252.0 -116.0 -206.15 -112.25 -172.65 -111.4 -174.15 -66.9 -175.65 -52.4 -175.65 -51.9 -177.25 -36.15 -177.15 -35.9 -178.4 -22.0 -180.15 -14.65 -180.25 -13.15 -182.9 -0.9" fill="#d90000" fill-opacity="0.9098039" fill-rule="evenodd" stroke="none"/>
    <path d="M-189.75 -0.9 L-218.9 -0.9 -220.0 -1.0 -277.65 -0.9 -276.4 -6.25 -276.15 -6.5 -276.0 -6.9 -264.4 -17.4 -257.5 -19.15 -257.25 -19.25 -257.0 -19.4 -255.0 -19.75 -254.65 -20.0 -229.25 -26.65 -210.9 -19.0 -210.5 -18.9 -210.4 -18.5 -202.0 -15.4 -189.4 -19.25 -189.4 -13.15 -189.65 -11.0 -189.5 -9.75 -189.5 -5.25 -189.9 -2.0 -189.75 -0.9" fill="#c80000" fill-opacity="0.9098039" fill-rule="evenodd" stroke="none"/>
    <path d="M-277.65 -0.9 L-282.25 -0.9 -276.4 -6.25 -277.65 -0.9" fill="#d80000" fill-rule="evenodd" stroke="none"/>
  </g>
  <defs>
    <radialGradient cx="0" cy="0" gradientTransform="matrix(0.0748, 0.0, 0.0, 0.0748, -192.0, -269.6)" gradientUnits="userSpaceOnUse" id="gradient0" r="819.2" spreadMethod="pad">
      <stop offset="0.0" stop-color="#3f3f3f"/>
      <stop offset="1.0" stop-color="#060606"/>
    </radialGradient>
    <radialGradient cx="0" cy="0" gradientTransform="matrix(0.0182, 0.0, 0.0, 0.0182, -192.9, -300.0)" gradientUnits="userSpaceOnUse" id="gradient1" r="819.2" spreadMethod="pad">
      <stop offset="0.0" stop-color="#111111"/>
      <stop offset="1.0" stop-color="#040404"/>
    </radialGradient>
    <radialGradient cx="0" cy="0" gradientTransform="matrix(0.0542, 0.0, 0.0, 0.0542, -202.3, -300.0)" gradientUnits="userSpaceOnUse" id="gradient2" r="819.2" spreadMethod="pad">
      <stop offset="0.0" stop-color="#212121"/>
      <stop offset="1.0" stop-color="#000000"/>
    </radialGradient>
    <radialGradient cx="0" cy="0" gradientTransform="matrix(0.0633, 0.0, 0.0, 0.0633, -135.65, -284.4)" gradientUnits="userSpaceOnUse" id="gradient3" r="819.2" spreadMethod="pad">
      <stop offset="0.0" stop-color="#161616"/>
      <stop offset="1.0" stop-color="#000000"/>
    </radialGradient>
    <radialGradient cx="0" cy="0" gradientTransform="matrix(0.0267, 0.0, 0.0, 0.0267, -135.65, -284.4)" gradientUnits="userSpaceOnUse" id="gradient4" r="819.2" spreadMethod="pad">
      <stop offset="0.0" stop-color="#161616"/>
      <stop offset="1.0" stop-color="#0a0a0a"/>
    </radialGradient>
    <radialGradient cx="0" cy="0" gradientTransform="matrix(0.0269, 0.0, 0.0, 0.0269, -135.65, -284.4)" gradientUnits="userSpaceOnUse" id="gradient5" r="819.2" spreadMethod="pad">
      <stop offset="0.0" stop-color="#161616"/>
      <stop offset="1.0" stop-color="#000000"/>
    </radialGradient>
    <radialGradient cx="0" cy="0" gradientTransform="matrix(0.1, 0.0, 0.0, 0.1, -267.55, -245.7)" gradientUnits="userSpaceOnUse" id="gradient6" r="819.2" spreadMethod="pad">
      <stop offset="0.0" stop-color="#878787"/>
      <stop offset="1.0" stop-color="#080808"/>
    </radialGradient>
    <radialGradient cx="0" cy="0" gradientTransform="matrix(0.0359, 0.0, 0.0, 0.0359, -262.45, -234.5)" gradientUnits="userSpaceOnUse" id="gradient7" r="819.2" spreadMethod="pad">
      <stop offset="0.0" stop-color="#6a6a6a"/>
      <stop offset="1.0" stop-color="#000000"/>
    </radialGradient>
    <radialGradient cx="0" cy="0" gradientTransform="matrix(0.1357, 0.0, 0.0, 0.1357, -262.45, -234.5)" gradientUnits="userSpaceOnUse" id="gradient8" r="819.2" spreadMethod="pad">
      <stop offset="0.0" stop-color="#6a6a6a"/>
      <stop offset="1.0" stop-color="#000000"/>
    </radialGradient>
    <radialGradient cx="0" cy="0" gradientTransform="matrix(0.0656, 0.0, 0.0, 0.0656, -271.35, -246.25)" gradientUnits="userSpaceOnUse" id="gradient9" r="819.2" spreadMethod="pad">
      <stop offset="0.0" stop-color="#858585"/>
      <stop offset="1.0" stop-color="#000000"/>
    </radialGradient>
    <radialGradient cx="0" cy="0" gradientTransform="matrix(0.0563, 0.0, 0.0, 0.0563, -127.65, -282.0)" gradientUnits="userSpaceOnUse" id="gradient10" r="819.2" spreadMethod="pad">
      <stop offset="0.0" stop-color="#000000"/>
      <stop offset="1.0" stop-color="#000000"/>
    </radialGradient>
    <radialGradient cx="0" cy="0" gradientTransform="matrix(0.1572, 0.0, 0.0, 0.1572, -176.8, -120.65)" gradientUnits="userSpaceOnUse" id="gradient11" r="819.2" spreadMethod="pad">
      <stop offset="0.0" stop-color="#666666"/>
      <stop offset="1.0" stop-color="#101010"/>
    </radialGradient>
    <radialGradient cx="0" cy="0" gradientTransform="matrix(0.1353, 0.0, 0.0, 0.1353, -168.75, -128.25)" gradientUnits="userSpaceOnUse" id="gradient12" r="819.2" spreadMethod="pad">
      <stop offset="0.0" stop-color="#696969"/>
      <stop offset="1.0" stop-color="#2a2a2a"/>
    </radialGradient>
    <radialGradient cx="0" cy="0" gradientTransform="matrix(0.0962, 0.0, 0.0, 0.0962, -147.35, -52.35)" gradientUnits="userSpaceOnUse" id="gradient13" r="819.2" spreadMethod="pad">
      <stop offset="0.0" stop-color="#838383"/>
      <stop offset="1.0" stop-color="#5f5f5f"/>
    </radialGradient>
    <radialGradient cx="0" cy="0" gradientTransform="matrix(0.1132, 0.0, 0.0, 0.1132, -266.35, -93.1)" gradientUnits="userSpaceOnUse" id="gradient14" r="819.2" spreadMethod="pad">
      <stop offset="0.0" stop-color="#000000"/>
      <stop offset="1.0" stop-color="#000000"/>
    </radialGradient>
    <radialGradient cx="0" cy="0" gradientTransform="matrix(0.0999, 0.0, 0.0, 0.0999, -201.05, -56.0)" gradientUnits="userSpaceOnUse" id="gradient15" r="819.2" spreadMethod="pad">
      <stop offset="0.0" stop-color="#6e6e6e"/>
      <stop offset="1.0" stop-color="#232323"/>
    </radialGradient>
    <radialGradient cx="0" cy="0" gradientTransform="matrix(0.0991, 0.0, 0.0, 0.0991, -202.95, -34.75)" gradientUnits="userSpaceOnUse" id="gradient16" r="819.2" spreadMethod="pad">
      <stop offset="0.0" stop-color="#454545"/>
      <stop offset="1.0" stop-color="#000000"/>
    </radialGradient>
    <radialGradient cx="0" cy="0" gradientTransform="matrix(0.0156, 0.0, 0.0, 0.0156, -195.05, -1.0)" gradientUnits="userSpaceOnUse" id="gradient17" r="819.2" spreadMethod="pad">
      <stop offset="0.0" stop-color="#1e1e1e"/>
      <stop offset="1.0" stop-color="#010101"/>
    </radialGradient>
  </defs>
</svg>
