<?xml version="1.0" encoding="UTF-8" standalone="no"?>
<svg xmlns:xlink="http://www.w3.org/1999/xlink" height="299.1px" width="237.1px" xmlns="http://www.w3.org/2000/svg">
  <g transform="matrix(1.0, 0.0, 0.0, 1.0, 288.5, 300.0)">
    <path d="M-181.25 -267.4 L-180.9 -266.9 -180.5 -266.5 -180.15 -266.0 -178.25 -264.0 -177.65 -263.25 -177.25 -262.9 -176.9 -262.4 -166.75 -251.0 -166.65 -250.75 -156.4 -239.25 -155.65 -238.9 -149.25 -238.15 -151.9 -209.9 -186.15 -214.15 -203.15 -215.65 -229.15 -206.15 -230.5 -208.5 -230.5 -208.9 Q-228.15 -208.9 -226.25 -210.0 L-221.75 -214.25 -219.15 -221.5 -219.25 -223.0 -209.5 -229.0 -204.15 -235.0 -202.75 -237.25 -200.75 -246.4 -201.25 -255.75 -201.9 -257.75 Q-207.4 -267.15 -209.15 -267.25 L-210.5 -273.5 -215.9 -280.9 Q-218.15 -283.75 -226.5 -285.25 L-221.0 -294.5 -220.4 -296.0 -219.75 -300.0 -203.65 -300.0 -202.75 -297.25 -198.5 -270.25 -198.5 -269.9 -198.4 -269.5 -181.25 -267.4" fill="url(#gradient0)" fill-rule="evenodd" stroke="none"/>
    <path d="M-203.65 -300.0 L-195.65 -300.0 -196.15 -284.25 -198.5 -270.25 -202.75 -297.25 -203.65 -300.0" fill="url(#gradient1)" fill-rule="evenodd" stroke="none"/>
    <path d="M-196.15 -284.25 L-196.0 -284.25 -181.25 -267.4 -198.4 -269.5 -198.5 -269.9 -198.5 -270.25 -196.15 -284.25" fill="url(#gradient2)" fill-rule="evenodd" stroke="none"/>
    <path d="M-151.75 -290.15 L-160.5 -261.5 -149.25 -238.15 -155.65 -238.9 -156.4 -239.25 -166.65 -250.75 -166.75 -251.0 -176.9 -262.4 -177.25 -262.9 -177.65 -263.25 -178.25 -264.0 -180.15 -266.0 -180.5 -266.5 -180.9 -266.9 -181.25 -267.4 -196.0 -284.25 -196.15 -284.25 -195.65 -300.0 -162.15 -300.0 -151.75 -290.15" fill="url(#gradient3)" fill-rule="evenodd" stroke="none"/>
    <path d="M-129.4 -297.75 L-151.75 -290.15 -162.15 -300.0 -127.9 -300.0 -128.0 -299.75 -129.4 -297.75" fill="url(#gradient4)" fill-rule="evenodd" stroke="none"/>
    <path d="M-102.9 -295.15 L-119.5 -275.65 -101.0 -253.25 -111.5 -237.25 -149.25 -238.15 -160.5 -261.5 -151.75 -290.15 -129.4 -297.75 -102.9 -295.15" fill="url(#gradient5)" fill-rule="evenodd" stroke="none"/>
    <path d="M-105.4 -300.0 L-102.9 -295.15 -129.4 -297.75 -128.0 -299.75 -127.9 -300.0 -105.4 -300.0" fill="url(#gradient6)" fill-rule="evenodd" stroke="none"/>
    <path d="M-78.9 -277.75 L-102.9 -295.15 -105.4 -300.0 -51.4 -300.0 -78.9 -277.75" fill="url(#gradient7)" fill-rule="evenodd" stroke="none"/>
    <path d="M-78.9 -277.75 L-101.0 -253.25 -119.5 -275.65 -102.9 -295.15 -78.9 -277.75" fill="url(#gradient8)" fill-rule="evenodd" stroke="none"/>
    <path d="M-101.0 -253.25 L-78.9 -277.75 -111.5 -237.25 -101.0 -253.25" fill="url(#gradient9)" fill-rule="evenodd" stroke="none"/>
    <path d="M-263.5 -206.25 L-265.15 -210.75 -265.25 -210.75 -266.5 -214.65 -266.75 -215.15 -266.9 -218.25 -268.5 -225.65 -263.25 -217.4 -256.9 -211.25 -247.4 -206.5 -245.5 -206.15 -263.5 -206.25 M-251.9 -285.65 L-250.4 -287.9 -246.25 -300.0 -219.75 -300.0 -220.4 -296.0 -221.0 -294.5 -226.5 -285.25 Q-227.25 -290.25 -236.65 -290.5 L-241.0 -290.0 -243.75 -289.15 -251.9 -285.65 M-230.5 -208.5 L-229.15 -206.15 -234.65 -206.15 -231.25 -207.4 -230.5 -208.5" fill="url(#gradient10)" fill-rule="evenodd" stroke="none"/>
    <path d="M-254.4 -284.0 L-251.9 -285.65 -243.75 -289.15 -241.0 -290.0 -236.65 -290.5 Q-227.25 -290.25 -226.5 -285.25 -218.15 -283.75 -215.9 -280.9 L-210.5 -273.5 -209.15 -267.25 Q-207.4 -267.15 -201.9 -257.75 L-201.25 -255.75 -200.75 -246.4 -202.75 -237.25 -204.15 -235.0 -209.5 -229.0 -219.25 -223.0 -219.15 -221.5 -221.75 -214.25 -226.25 -210.0 Q-228.15 -208.9 -230.5 -208.9 L-230.5 -208.5 -231.25 -207.4 -234.65 -206.15 -241.15 -205.5 -245.5 -206.15 -247.4 -206.5 -256.9 -211.25 -263.25 -217.4 -268.5 -225.65 Q-283.4 -262.0 -254.4 -284.0" fill="url(#gradient11)" fill-rule="evenodd" stroke="none"/>
    <path d="M-265.25 -210.75 Q-282.15 -220.0 -283.5 -248.5 -281.4 -274.75 -254.4 -284.0 -283.4 -262.0 -268.5 -225.65 L-266.9 -218.25 -266.75 -215.15 -266.5 -214.65 -265.25 -210.75" fill="url(#gradient12)" fill-rule="evenodd" stroke="none"/>
    <path d="M-264.5 -104.75 L-263.15 -124.65 -256.4 -144.65 -255.0 -162.9 -255.0 -165.15 -263.5 -206.25 -245.5 -206.15 -241.15 -205.5 -234.65 -206.15 -229.15 -206.15 -235.15 -159.9 -234.9 -159.65 -240.15 -94.65 -256.75 -97.4 -264.5 -104.75" fill="url(#gradient13)" fill-rule="evenodd" stroke="none"/>
    <path d="M-151.9 -209.9 L-152.25 -208.15 -152.25 -207.75 -152.4 -207.5 -152.4 -207.15 -152.75 -205.5 -152.9 -205.15 -152.9 -205.0 -163.75 -158.0 -164.9 -154.4 -165.5 -132.25 -167.75 -113.0 -168.15 -112.15 -168.0 -110.9 -170.65 -93.15 -171.0 -92.5 -200.75 -92.65 -240.15 -94.65 -234.9 -159.65 -235.15 -159.9 -229.15 -206.15 -203.15 -215.65 -186.15 -214.15 -151.9 -209.9" fill="url(#gradient14)" fill-rule="evenodd" stroke="none"/>
    <path d="M-152.9 -205.0 L-160.65 -168.25 -166.4 -100.4 -170.65 -93.15 -168.0 -110.9 -168.15 -112.15 -167.75 -113.0 -165.5 -132.25 -164.9 -154.4 -163.75 -158.0 -152.9 -205.0" fill="url(#gradient15)" fill-rule="evenodd" stroke="none"/>
    <path d="M-166.4 -100.4 L-148.4 -57.9 -143.65 -24.9 -151.65 -1.0 -176.0 -0.9 -174.25 -11.25 -170.75 -51.0 -171.0 -92.5 -170.65 -93.15 -166.4 -100.4" fill="url(#gradient16)" fill-rule="evenodd" stroke="none"/>
    <path d="M-241.15 -0.9 L-265.5 -0.9 -270.4 -17.0 -270.5 -18.4 -271.0 -19.15 -264.5 -104.75 -256.75 -97.4 -240.15 -94.65 -239.75 -36.75 -240.15 -16.5 -241.15 -0.9" fill="url(#gradient17)" fill-rule="evenodd" stroke="none"/>
    <path d="M-176.0 -0.9 L-183.0 -0.9 -183.15 -7.65 -192.5 -4.0 -215.4 -5.5 -224.25 -0.9 -241.15 -0.9 -240.15 -16.5 -239.75 -36.75 -240.15 -94.65 -200.75 -92.65 -171.0 -92.5 -170.75 -51.0 -174.25 -11.25 -176.0 -0.9" fill="url(#gradient18)" fill-rule="evenodd" stroke="none"/>
    <path d="M-183.0 -0.9 L-224.25 -0.9 -215.4 -5.5 -192.5 -4.0 -183.15 -7.65 -183.0 -0.9" fill="url(#gradient19)" fill-rule="evenodd" stroke="none"/>
    <path d="M-264.65 -278.4 L-264.25 -279.0 -264.4 -279.0 -264.0 -279.4 -263.5 -280.25 -263.15 -280.65 -262.5 -280.15 -264.15 -278.9 -264.65 -278.4 M-248.25 -294.5 L-248.0 -294.9 -247.9 -295.15 -245.0 -297.65 -244.5 -298.25 -244.0 -298.15 -243.9 -299.15 -243.4 -299.15 -243.0 -299.75 -242.65 -300.0 -242.25 -300.0 -243.4 -299.15 -243.5 -298.5 -244.0 -298.15 -245.15 -297.4 -245.4 -297.0 -248.25 -294.15 -248.4 -293.9 -248.25 -294.5" fill="#a90000" fill-rule="evenodd" stroke="none"/>
    <path d="M-250.15 -292.65 L-248.25 -294.5 -248.4 -293.9 -250.15 -292.65" fill="#ab0000" fill-rule="evenodd" stroke="none"/>
    <path d="M-280.25 -268.5 L-279.25 -269.75 -279.0 -269.4 -279.65 -267.75 -280.25 -268.5 M-262.9 -280.9 L-250.5 -292.65 -250.15 -292.65 -261.25 -281.5 -261.25 -281.4 -261.9 -281.15 -262.15 -281.0 -262.9 -280.9 M-251.15 -299.9 L-249.9 -299.75 -250.75 -296.9 -252.0 -295.65 Q-252.65 -296.25 -251.15 -299.9" fill="#ab0000" fill-opacity="0.9098039" fill-rule="evenodd" stroke="none"/>
    <path d="M-245.9 -0.9 L-265.5 -0.9 -265.9 -2.4 -266.0 -3.15 -270.5 -18.25 -271.0 -19.15 -270.9 -21.75 -271.0 -21.75 -269.5 -39.0 -269.5 -40.5 -268.25 -57.9 -267.9 -60.75 -267.9 -61.75 -265.75 -89.65 -265.25 -89.15 -261.9 -88.5 -260.75 -88.4 -246.0 -85.75 -245.9 -62.25 -245.65 -60.5 -245.75 -44.65 -245.65 -44.4 -245.65 -25.5 -245.4 -24.65 -245.65 -3.4 -245.9 -2.25 -245.75 -2.0 -245.9 -0.9 M-271.9 -260.75 L-270.5 -264.0 -270.15 -265.15 -267.5 -271.65 -267.65 -271.9 -267.4 -272.0 -267.0 -273.25 -266.75 -273.5 -265.4 -277.4 -265.15 -277.5 -265.15 -277.65 -264.65 -278.4 -264.15 -278.9 -262.5 -280.15 -263.15 -280.65 -262.9 -280.75 -262.9 -280.9 -262.15 -281.0 -262.5 -280.15 -262.25 -280.15 -261.9 -279.9 -260.65 -279.25 -260.4 -279.15 -257.75 -277.65 -257.15 -277.25 -246.25 -271.25 -246.15 -271.0 -250.5 -269.4 -251.25 -269.0 -251.9 -268.9 -253.25 -268.15 -264.9 -263.65 -265.0 -263.4 -270.15 -261.4 -270.5 -261.15 -271.65 -260.75 -271.9 -260.75" fill="#9b0000" fill-opacity="0.9098039" fill-rule="evenodd" stroke="none"/>
    <path d="M-281.5 -232.4 L-281.15 -232.4 -277.75 -227.15 -277.75 -226.65 -273.75 -220.75 -273.5 -224.65 -273.65 -225.0 -273.75 -225.75 -273.9 -240.75 -273.5 -247.5 -273.0 -250.65 -273.15 -251.15 -272.75 -251.9 -272.5 -254.9 -272.65 -255.5 -272.15 -259.4 -272.0 -259.75 -272.15 -260.15 -272.0 -260.4 -271.9 -260.75 -271.65 -260.75 -270.5 -261.15 -270.15 -261.4 -265.0 -263.4 -264.9 -263.65 -253.25 -268.15 -251.9 -268.9 -251.25 -269.0 -250.5 -269.4 -246.15 -271.0 -246.0 -270.15 -246.25 -269.15 -249.25 -244.9 -249.4 -244.65 -249.25 -244.15 -249.65 -241.75 -243.9 -220.0 -244.0 -219.75 -240.75 -207.75 -249.25 -208.0 -250.25 -208.15 -260.15 -208.4 -260.65 -208.5 -264.25 -208.4 -265.15 -210.75 -265.25 -210.75 -267.75 -212.5 -273.5 -218.15 -278.25 -224.9 -278.25 -225.25 -281.5 -232.4 M-265.0 -233.65 L-265.15 -233.5 -265.75 -234.25 -265.75 -232.65 -264.75 -231.15 -264.5 -231.25 -264.75 -233.15 -265.0 -233.65" fill="#a10000" fill-opacity="0.9098039" fill-rule="evenodd" stroke="none"/>
    <path d="M-246.15 -271.0 L-241.4 -269.0 -240.9 -268.9 -218.0 -258.15 -217.9 -258.0 -201.9 -250.75 -201.75 -250.5 -201.0 -250.25 -199.9 -249.75 -185.9 -240.9 -185.5 -240.75 -183.25 -239.15 -182.5 -238.9 -182.15 -238.5 -168.65 -229.75 -159.4 -223.15 -158.9 -222.5 -151.15 -217.0 -151.5 -213.4 -171.9 -216.15 -201.0 -219.25 -207.4 -217.65 -207.4 -217.5 -223.15 -212.9 -223.5 -212.75 -225.5 -212.15 -225.65 -212.15 -238.4 -208.4 -239.0 -208.0 -240.75 -207.75 -244.0 -219.75 -243.9 -220.0 -249.65 -241.75 -249.25 -244.15 -249.4 -244.65 -249.25 -244.9 -246.25 -269.15 -246.0 -270.15 -246.15 -271.0" fill="#da0000" fill-opacity="0.9098039" fill-rule="evenodd" stroke="none"/>
    <path d="M-143.65 -212.25 L-151.5 -213.4 -151.15 -217.0 -143.65 -212.25" fill="#f00000" fill-opacity="0.9098039" fill-rule="evenodd" stroke="none"/>
    <path d="M-151.5 -213.4 L-151.9 -209.9 -154.65 -197.15 -154.5 -196.9 -154.75 -196.65 -154.65 -196.25 -154.9 -196.0 -154.75 -195.75 -155.0 -195.5 -154.9 -195.4 -160.75 -167.5 -160.65 -167.15 -162.5 -144.9 -162.4 -144.65 -162.65 -144.4 -162.5 -143.25 -164.65 -121.75 -164.5 -120.65 -166.4 -101.75 -166.4 -100.25 -163.75 -94.65 -163.75 -93.75 -165.9 -84.9 -165.75 -84.25 -166.15 -83.25 -198.4 -83.15 -233.9 -84.9 -234.15 -85.0 -246.0 -85.75 -244.25 -101.15 -244.4 -101.65 -242.15 -125.0 -242.25 -126.0 -240.5 -146.75 -240.65 -147.75 -239.75 -156.4 -239.9 -170.9 -240.15 -172.0 -240.65 -205.75 -240.75 -206.65 -240.65 -207.0 -240.75 -207.75 -239.0 -208.0 -238.4 -208.4 -225.65 -212.15 -225.5 -212.15 -223.5 -212.75 -223.15 -212.9 -207.4 -217.5 -207.4 -217.65 -201.0 -219.25 -171.9 -216.15 -151.5 -213.4" fill="#dd0000" fill-opacity="0.9098039" fill-rule="evenodd" stroke="none"/>
    <path d="M-286.15 -251.15 L-286.0 -251.5 -285.9 -251.25 -286.15 -251.15 M-285.75 -252.15 L-280.25 -268.5 -279.65 -267.75 -285.75 -252.15" fill="#ad0000" fill-rule="evenodd" stroke="none"/>
    <path d="M-288.5 -244.5 L-286.15 -251.15 -285.9 -251.25 -286.0 -251.5 -285.75 -252.15 -279.65 -267.75 -278.15 -265.75 -279.15 -264.0 -281.9 -256.9 -282.15 -256.5 -283.4 -248.9 -283.65 -248.4 -288.5 -244.5" fill="#c70000" fill-opacity="0.9098039" fill-rule="evenodd" stroke="none"/>
    <path d="M-288.15 -243.15 L-288.25 -243.4 -288.5 -244.5 -283.65 -248.4 -283.15 -240.75 -283.25 -240.25 -281.9 -233.9 -288.15 -243.15" fill="#ec0000" fill-opacity="0.9098039" fill-rule="evenodd" stroke="none"/>
    <path d="M-273.15 -208.4 L-288.15 -243.15 -281.9 -233.9 -281.5 -232.65 -281.5 -232.4 -278.25 -225.25 -278.25 -224.9 -273.5 -218.15 -267.75 -212.5 -265.25 -210.75 -265.15 -210.75 -264.25 -208.4 -268.0 -207.9 -268.4 -207.9 -272.65 -208.4 -273.15 -208.4" fill="#b70000" fill-rule="evenodd" stroke="none"/>
    <path d="M-265.5 -0.9 L-274.25 -0.9 -271.5 -41.15 -268.25 -57.9 -269.5 -40.5 -269.5 -39.0 -271.0 -21.75 -270.9 -21.75 -271.0 -19.15 -270.5 -18.25 -266.0 -3.15 -265.9 -2.4 -265.5 -0.9 M-273.65 -98.4 L-272.4 -119.75 -264.9 -141.4 -263.25 -162.25 -263.25 -163.5 -273.15 -208.4 -272.65 -208.4 -269.9 -207.65 -268.4 -207.9 -268.0 -207.9 -264.0 -207.5 -263.5 -206.25 -263.15 -204.4 -263.0 -204.0 -257.0 -174.25 -256.9 -173.15 -259.25 -136.65 -263.0 -124.75 -265.0 -100.15 -264.9 -100.15 -265.9 -90.0 -273.65 -98.4" fill="#b00000" fill-rule="evenodd" stroke="none"/>
    <path d="M-274.25 -0.9 L-279.75 -0.9 -280.5 -5.65 -273.65 -98.4 -265.9 -90.0 -265.75 -89.9 -265.75 -89.65 -267.9 -61.75 -267.9 -60.75 -268.25 -57.9 -271.5 -41.15 -274.25 -0.9" fill="#ae0000" fill-rule="evenodd" stroke="none"/>
    <path d="M-240.75 -207.75 L-240.65 -207.0 -240.75 -206.65 -240.65 -205.75 -240.15 -172.0 -239.9 -170.9 -239.75 -156.4 -240.65 -147.75 -240.5 -146.75 -242.25 -126.0 -242.15 -125.0 -244.4 -101.65 -244.25 -101.15 -246.0 -85.75 -260.75 -88.4 -261.9 -88.5 -265.25 -89.15 -265.75 -89.65 -265.75 -89.9 -265.9 -90.0 -264.9 -100.15 -265.0 -100.15 -263.0 -124.75 -259.25 -136.65 -256.75 -143.4 -256.75 -143.5 -256.65 -143.75 -256.5 -144.4 -255.0 -163.4 -255.0 -164.4 -256.9 -173.15 -257.0 -174.25 -263.0 -204.0 -263.15 -204.4 -263.5 -206.25 -264.0 -207.5 -264.25 -208.4 -260.65 -208.5 -260.15 -208.4 -250.25 -208.15 -249.25 -208.0 -240.75 -207.75" fill="#9d0000" fill-opacity="0.9098039" fill-rule="evenodd" stroke="none"/>
    <path d="M-256.9 -173.15 L-255.0 -164.4 -255.0 -163.4 -256.5 -144.4 -256.65 -143.75 -256.75 -143.5 -256.75 -143.4 -259.25 -136.65 -256.9 -173.15" fill="#b30000" fill-rule="evenodd" stroke="none"/>
    <path d="M-268.0 -207.9 L-264.25 -208.4 -264.0 -207.5 -268.0 -207.9" fill="#b20000" fill-rule="evenodd" stroke="none"/>
    <path d="M-268.4 -207.9 L-269.9 -207.65 -272.65 -208.4 -268.4 -207.9" fill="#b50000" fill-rule="evenodd" stroke="none"/>
    <path d="M-143.65 -212.25 L-143.5 -211.9 -143.65 -211.5 -154.9 -195.4 -155.0 -195.5 -154.75 -195.75 -154.9 -196.0 -154.65 -196.25 -154.75 -196.65 -154.5 -196.9 -154.65 -197.15 -151.9 -209.9 -151.5 -213.4 -143.65 -212.25" fill="#f40000" fill-opacity="0.9098039" fill-rule="evenodd" stroke="none"/>
    <path d="M-154.9 -195.4 L-143.65 -211.5 -154.65 -165.0 -155.0 -164.9 -155.25 -163.75 -155.4 -162.15 -155.5 -161.5 -155.65 -161.15 -158.0 -150.4 -158.65 -128.25 -161.4 -104.65 -163.75 -94.65 -166.4 -100.25 -166.4 -101.75 -164.5 -120.65 -164.65 -121.75 -162.5 -143.25 -162.65 -144.4 -162.4 -144.65 -162.5 -144.9 -160.65 -167.15 -160.75 -167.5 -154.9 -195.4" fill="#ed0000" fill-rule="evenodd" stroke="none"/>
    <path d="M-155.0 -162.5 L-154.9 -161.25 -158.65 -116.65 -161.5 -92.65 -163.75 -93.75 -163.75 -94.65 -161.4 -104.65 -158.65 -128.25 -158.0 -150.4 -155.65 -161.15 -155.4 -161.25 -155.5 -161.5 -155.25 -161.75 -155.4 -162.15 -155.0 -162.5" fill="#e60000" fill-rule="evenodd" stroke="none"/>
    <path d="M-154.65 -165.0 L-155.0 -162.5 -155.4 -162.15 -155.25 -161.75 -155.5 -161.5 -155.4 -162.15 -155.25 -163.75 -155.0 -164.9 -154.65 -165.0 M-155.65 -161.15 L-155.5 -161.5 -155.4 -161.25 -155.65 -161.15" fill="#ee0000" fill-rule="evenodd" stroke="none"/>
    <path d="M-165.75 -84.25 L-165.9 -84.9 -163.75 -93.75 -162.4 -91.15 -162.4 -90.65 -165.75 -84.25" fill="#d60000" fill-opacity="0.9098039" fill-rule="evenodd" stroke="none"/>
    <path d="M-151.75 -0.9 L-168.9 -0.9 -168.4 -6.65 -168.5 -6.9 -167.15 -20.0 -167.25 -20.65 -165.65 -36.75 -165.65 -46.65 -165.75 -47.0 -166.15 -83.25 -165.75 -84.25 -162.4 -90.65 -148.5 -57.75 -143.9 -25.0 -143.75 -24.75 -144.25 -23.4 -144.15 -23.15 -151.75 -0.9" fill="#e80000" fill-opacity="0.9098039" fill-rule="evenodd" stroke="none"/>
    <path d="M-161.5 -92.65 L-140.5 -46.0 -135.0 -9.65 -138.15 -0.9 -151.75 -0.9 -144.15 -23.15 -144.25 -23.4 -143.75 -24.75 -143.9 -25.0 -148.5 -57.75 -162.4 -90.65 -162.4 -91.15 -161.5 -92.65" fill="#f90000" fill-rule="evenodd" stroke="none"/>
    <path d="M-162.4 -91.15 L-163.75 -93.75 -161.5 -92.65 -162.4 -91.15" fill="#e80000" fill-rule="evenodd" stroke="none"/>
    <path d="M-168.9 -0.9 L-245.9 -0.9 -245.75 -2.0 -245.9 -2.25 -245.65 -3.4 -245.4 -24.65 -245.65 -25.5 -245.65 -44.4 -245.75 -44.65 -245.65 -60.5 -245.9 -62.25 -246.0 -85.75 -234.15 -85.0 -233.9 -84.9 -198.4 -83.15 -166.15 -83.25 -165.75 -47.0 -165.65 -46.65 -165.65 -36.75 -167.25 -20.65 -167.15 -20.0 -168.5 -6.9 -168.4 -6.65 -168.9 -0.9" fill="#d90000" fill-opacity="0.9098039" fill-rule="evenodd" stroke="none"/>
  </g>
  <defs>
    <radialGradient cx="0" cy="0" gradientTransform="matrix(0.0851, 0.0, 0.0, 0.0851, -183.25, -240.65)" gradientUnits="userSpaceOnUse" id="gradient0" r="819.2" spreadMethod="pad">
      <stop offset="0.0" stop-color="#3f3f3f"/>
      <stop offset="1.0" stop-color="#060606"/>
    </radialGradient>
    <radialGradient cx="0" cy="0" gradientTransform="matrix(0.0211, 0.0, 0.0, 0.0211, -196.0, -284.5)" gradientUnits="userSpaceOnUse" id="gradient1" r="819.2" spreadMethod="pad">
      <stop offset="0.0" stop-color="#595959"/>
      <stop offset="1.0" stop-color="#000000"/>
    </radialGradient>
    <radialGradient cx="0" cy="0" gradientTransform="matrix(0.0278, 0.0, 0.0, 0.0278, -196.0, -284.5)" gradientUnits="userSpaceOnUse" id="gradient2" r="819.2" spreadMethod="pad">
      <stop offset="0.0" stop-color="#595959"/>
      <stop offset="1.0" stop-color="#000000"/>
    </radialGradient>
    <radialGradient cx="0" cy="0" gradientTransform="matrix(0.0755, 0.0, 0.0, 0.0755, -193.1, -281.45)" gradientUnits="userSpaceOnUse" id="gradient3" r="819.2" spreadMethod="pad">
      <stop offset="0.0" stop-color="#616161"/>
      <stop offset="1.0" stop-color="#000000"/>
    </radialGradient>
    <radialGradient cx="0" cy="0" gradientTransform="matrix(0.0518, 0.0, 0.0, 0.0518, -119.8, -296.7)" gradientUnits="userSpaceOnUse" id="gradient4" r="819.2" spreadMethod="pad">
      <stop offset="0.0" stop-color="#5e5e5e"/>
      <stop offset="1.0" stop-color="#000000"/>
    </radialGradient>
    <radialGradient cx="0" cy="0" gradientTransform="matrix(0.0766, 0.0, 0.0, 0.0766, -100.95, -253.3)" gradientUnits="userSpaceOnUse" id="gradient5" r="819.2" spreadMethod="pad">
      <stop offset="0.0" stop-color="#161616"/>
      <stop offset="1.0" stop-color="#000000"/>
    </radialGradient>
    <radialGradient cx="0" cy="0" gradientTransform="matrix(0.0294, 0.0, 0.0, 0.0294, -105.3, -300.0)" gradientUnits="userSpaceOnUse" id="gradient6" r="819.2" spreadMethod="pad">
      <stop offset="0.0" stop-color="#000000"/>
      <stop offset="1.0" stop-color="#000000"/>
    </radialGradient>
    <radialGradient cx="0" cy="0" gradientTransform="matrix(0.043, 0.0, 0.0, 0.043, -78.8, -277.8)" gradientUnits="userSpaceOnUse" id="gradient7" r="819.2" spreadMethod="pad">
      <stop offset="0.0" stop-color="#000000"/>
      <stop offset="1.0" stop-color="#000000"/>
    </radialGradient>
    <radialGradient cx="0" cy="0" gradientTransform="matrix(0.0513, 0.0, 0.0, 0.0513, -100.95, -253.3)" gradientUnits="userSpaceOnUse" id="gradient8" r="819.2" spreadMethod="pad">
      <stop offset="0.0" stop-color="#161616"/>
      <stop offset="1.0" stop-color="#000000"/>
    </radialGradient>
    <radialGradient cx="0" cy="0" gradientTransform="matrix(0.0403, 0.0, 0.0, 0.0403, -100.95, -253.3)" gradientUnits="userSpaceOnUse" id="gradient9" r="819.2" spreadMethod="pad">
      <stop offset="0.0" stop-color="#161616"/>
      <stop offset="1.0" stop-color="#000000"/>
    </radialGradient>
    <radialGradient cx="0" cy="0" gradientTransform="matrix(0.1263, 0.0, 0.0, 0.1263, -263.4, -206.3)" gradientUnits="userSpaceOnUse" id="gradient10" r="819.2" spreadMethod="pad">
      <stop offset="0.0" stop-color="#6a6a6a"/>
      <stop offset="1.0" stop-color="#000000"/>
    </radialGradient>
    <radialGradient cx="0" cy="0" gradientTransform="matrix(0.1035, 0.0, 0.0, 0.1035, -262.85, -217.35)" gradientUnits="userSpaceOnUse" id="gradient11" r="819.2" spreadMethod="pad">
      <stop offset="0.0" stop-color="#878787"/>
      <stop offset="1.0" stop-color="#000000"/>
    </radialGradient>
    <radialGradient cx="0" cy="0" gradientTransform="matrix(0.0865, 0.0, 0.0, 0.0865, -273.55, -218.25)" gradientUnits="userSpaceOnUse" id="gradient12" r="819.2" spreadMethod="pad">
      <stop offset="0.0" stop-color="#858585"/>
      <stop offset="1.0" stop-color="#000000"/>
    </radialGradient>
    <radialGradient cx="0" cy="0" gradientTransform="matrix(0.1391, 0.0, 0.0, 0.1391, -263.4, -206.3)" gradientUnits="userSpaceOnUse" id="gradient13" r="819.2" spreadMethod="pad">
      <stop offset="0.0" stop-color="#6a6a6a"/>
      <stop offset="1.0" stop-color="#000000"/>
    </radialGradient>
    <radialGradient cx="0" cy="0" gradientTransform="matrix(0.1558, 0.0, 0.0, 0.1558, -170.95, -92.55)" gradientUnits="userSpaceOnUse" id="gradient14" r="819.2" spreadMethod="pad">
      <stop offset="0.0" stop-color="#666666"/>
      <stop offset="1.0" stop-color="#101010"/>
    </radialGradient>
    <radialGradient cx="0" cy="0" gradientTransform="matrix(0.1347, 0.0, 0.0, 0.1347, -166.45, -100.55)" gradientUnits="userSpaceOnUse" id="gradient15" r="819.2" spreadMethod="pad">
      <stop offset="0.0" stop-color="#696969"/>
      <stop offset="1.0" stop-color="#2a2a2a"/>
    </radialGradient>
    <radialGradient cx="0" cy="0" gradientTransform="matrix(0.0966, 0.0, 0.0, 0.0966, -143.75, -24.75)" gradientUnits="userSpaceOnUse" id="gradient16" r="819.2" spreadMethod="pad">
      <stop offset="0.0" stop-color="#838383"/>
      <stop offset="1.0" stop-color="#676767"/>
    </radialGradient>
    <radialGradient cx="0" cy="0" gradientTransform="matrix(0.0813, 0.0, 0.0, 0.0813, -267.8, -62.1)" gradientUnits="userSpaceOnUse" id="gradient17" r="819.2" spreadMethod="pad">
      <stop offset="0.0" stop-color="#000000"/>
      <stop offset="1.0" stop-color="#000000"/>
    </radialGradient>
    <radialGradient cx="0" cy="0" gradientTransform="matrix(0.1034, 0.0, 0.0, 0.1034, -190.7, -25.9)" gradientUnits="userSpaceOnUse" id="gradient18" r="819.2" spreadMethod="pad">
      <stop offset="0.0" stop-color="#6e6e6e"/>
      <stop offset="1.0" stop-color="#232323"/>
    </radialGradient>
    <radialGradient cx="0" cy="0" gradientTransform="matrix(0.039, 0.0, 0.0, 0.039, -192.55, -4.1)" gradientUnits="userSpaceOnUse" id="gradient19" r="819.2" spreadMethod="pad">
      <stop offset="0.0" stop-color="#454545"/>
      <stop offset="1.0" stop-color="#262626"/>
    </radialGradient>
  </defs>
</svg>
