<?xml version="1.0" encoding="UTF-8" standalone="no"?>
<svg xmlns:xlink="http://www.w3.org/1999/xlink" height="299.1px" width="278.65px" xmlns="http://www.w3.org/2000/svg">
  <g transform="matrix(1.0, 0.0, 0.0, 1.0, 291.65, 300.0)">
    <path d="M-149.15 -228.25 L-151.75 -198.5 -183.5 -202.65 -199.65 -204.15 -226.75 -194.65 -228.15 -197.0 Q-223.75 -197.15 -218.9 -202.75 L-216.15 -209.4 -215.9 -211.5 Q-203.9 -217.65 -200.5 -223.9 L-199.25 -226.5 -197.5 -234.65 -197.9 -243.0 -198.5 -246.0 Q-204.15 -255.65 -205.9 -255.75 L-207.4 -262.15 -213.0 -269.4 -216.9 -272.0 -223.75 -273.5 -223.75 -273.9 -218.25 -283.65 -216.0 -300.0 -205.15 -300.0 -199.5 -285.65 -195.25 -258.5 -195.25 -258.15 Q-195.0 -257.65 -191.0 -257.25 L-178.15 -255.65 -177.9 -255.0 -174.25 -251.9 Q-173.5 -250.65 -171.25 -249.15 L-165.15 -245.15 -154.65 -233.5 -149.15 -228.25" fill="url(#gradient0)" fill-rule="evenodd" stroke="none"/>
    <path d="M-205.15 -300.0 L-191.5 -300.0 -192.0 -272.5 -194.9 -259.0 -195.25 -258.5 -199.5 -285.65 -205.15 -300.0" fill="url(#gradient1)" fill-rule="evenodd" stroke="none"/>
    <path d="M-192.0 -272.5 L-190.4 -271.0 -174.25 -251.9 -177.9 -255.0 -178.15 -255.65 -191.0 -257.25 Q-195.0 -257.65 -195.25 -258.15 L-195.25 -258.5 -194.9 -259.0 -192.0 -272.5" fill="url(#gradient2)" fill-rule="evenodd" stroke="none"/>
    <path d="M-139.25 -225.9 L-147.65 -226.9 -149.15 -228.25 -154.65 -233.5 -165.15 -245.15 -171.25 -249.15 Q-173.5 -250.65 -174.25 -251.9 L-190.4 -271.0 -192.0 -272.5 -191.5 -300.0 -170.65 -300.0 -156.5 -291.15 -138.5 -277.25 -148.75 -249.25 -139.25 -225.9" fill="url(#gradient3)" fill-rule="evenodd" stroke="none"/>
    <path d="M-170.65 -300.0 L-137.4 -300.0 -128.9 -295.15 -114.25 -285.15 -117.9 -283.25 -118.0 -283.15 -138.5 -277.25 -156.5 -291.15 -170.65 -300.0" fill="url(#gradient4)" fill-rule="evenodd" stroke="none"/>
    <path d="M-97.9 -224.65 L-139.25 -225.9 -148.75 -249.25 -138.5 -277.25 -118.0 -283.15 -117.9 -283.15 -117.9 -283.25 -117.5 -283.25 -113.65 -284.4 -83.25 -281.25 -101.75 -262.4 -85.65 -240.25 -97.9 -224.65" fill="url(#gradient5)" fill-rule="evenodd" stroke="none"/>
    <path d="M-114.25 -285.15 L-112.5 -286.0 -112.65 -285.75 -113.65 -284.4 -117.5 -283.25 -117.9 -283.25 -117.9 -283.15 -118.0 -283.15 -117.9 -283.25 -114.25 -285.15" fill="url(#gradient6)" fill-rule="evenodd" stroke="none"/>
    <path d="M-112.15 -286.25 L-100.25 -300.0 -94.4 -300.0 -83.25 -281.25 -113.65 -284.4 -112.65 -285.75 -112.15 -286.25" fill="url(#gradient7)" fill-rule="evenodd" stroke="none"/>
    <path d="M-112.5 -286.0 L-112.15 -286.25 -112.65 -285.75 -112.5 -286.0" fill="url(#gradient8)" fill-rule="evenodd" stroke="none"/>
    <path d="M-94.4 -300.0 L-13.0 -300.0 -14.75 -297.9 -61.25 -263.9 -83.25 -281.25 -94.4 -300.0" fill="url(#gradient9)" fill-rule="evenodd" stroke="none"/>
    <path d="M-83.25 -281.25 L-61.25 -263.9 -85.65 -240.25 -101.75 -262.4 -83.25 -281.25" fill="url(#gradient10)" fill-rule="evenodd" stroke="none"/>
    <path d="M-265.5 -195.0 L-266.75 -198.65 -267.0 -198.9 -268.5 -203.4 -268.65 -203.75 -268.65 -206.9 -269.65 -213.15 -271.9 -220.75 -271.5 -222.65 -267.5 -212.75 -262.5 -205.5 Q-258.75 -199.75 -243.65 -194.65 L-265.5 -195.0 M-254.75 -273.65 L-252.25 -277.4 -244.25 -300.0 -216.0 -300.0 -218.25 -283.65 -223.75 -273.9 Q-224.65 -277.15 -231.15 -279.15 L-238.75 -279.0 -243.0 -277.9 -250.15 -275.0 -255.25 -271.65 -255.4 -272.65 -254.75 -273.65 M-228.15 -197.0 L-226.75 -194.65 -232.65 -194.65 -228.75 -196.0 -228.15 -197.0" fill="url(#gradient11)" fill-rule="evenodd" stroke="none"/>
    <path d="M-267.0 -198.9 Q-285.5 -207.75 -286.15 -237.75 L-284.75 -245.75 -282.25 -252.4 -277.65 -260.0 Q-266.65 -272.25 -254.75 -273.65 L-255.4 -272.65 -255.25 -271.65 Q-278.65 -249.65 -271.5 -222.65 L-271.9 -220.75 -269.65 -213.15 -268.65 -206.9 -268.65 -203.75 -268.5 -203.4 -267.0 -198.9" fill="url(#gradient12)" fill-rule="evenodd" stroke="none"/>
    <path d="M-223.75 -273.9 L-223.75 -273.5 -216.9 -272.0 -213.0 -269.4 -207.4 -262.15 -205.9 -255.75 Q-204.15 -255.65 -198.5 -246.0 L-197.9 -243.0 -197.5 -234.65 -199.25 -226.5 -200.5 -223.9 Q-203.9 -217.65 -215.9 -211.5 L-216.15 -209.4 -218.9 -202.75 Q-223.75 -197.15 -228.15 -197.0 L-228.75 -196.0 -232.65 -194.65 -236.5 -194.15 -240.4 -194.15 -243.65 -194.65 Q-258.75 -199.75 -262.5 -205.5 L-267.5 -212.75 -271.5 -222.65 Q-278.65 -249.65 -255.25 -271.65 L-250.15 -275.0 -243.0 -277.9 -238.75 -279.0 -231.15 -279.15 Q-224.65 -277.15 -223.75 -273.9" fill="url(#gradient13)" fill-rule="evenodd" stroke="none"/>
    <path d="M-266.65 -92.5 L-265.25 -111.9 -258.75 -132.0 -257.0 -152.4 -261.75 -176.65 -261.9 -176.75 -262.15 -178.0 -262.15 -178.4 -262.25 -178.65 -265.5 -195.0 -243.65 -194.65 -240.4 -194.15 -236.5 -194.15 -232.65 -194.65 -226.75 -194.65 -233.65 -148.0 -238.65 -82.25 -255.75 -84.9 -256.5 -85.25 -266.65 -92.5" fill="url(#gradient14)" fill-rule="evenodd" stroke="none"/>
    <path d="M-151.75 -198.5 L-162.15 -150.9 -164.0 -143.4 -164.4 -124.9 -166.25 -105.75 -167.15 -100.9 -167.15 -98.65 -169.4 -82.9 -169.9 -81.4 -169.75 -81.15 -202.15 -80.9 -238.65 -82.25 -233.65 -148.0 -226.75 -194.65 -199.65 -204.15 -183.5 -202.65 -151.75 -198.5" fill="url(#gradient15)" fill-rule="evenodd" stroke="none"/>
    <path d="M-61.25 -263.9 L-97.9 -224.65 -85.65 -240.25 -61.25 -263.9" fill="url(#gradient16)" fill-rule="evenodd" stroke="none"/>
    <path d="M-237.0 -0.9 L-272.0 -1.0 -273.25 -5.25 -273.25 -6.4 -266.65 -92.5 -256.5 -85.25 -255.75 -84.9 -238.65 -82.25 -237.15 -36.15 -237.0 -0.9" fill="url(#gradient17)" fill-rule="evenodd" stroke="none"/>
    <path d="M-172.0 -0.9 L-237.0 -0.9 -237.15 -36.15 -238.65 -82.25 -202.15 -80.9 -169.75 -81.15 -168.65 -40.25 -172.0 -0.9" fill="url(#gradient18)" fill-rule="evenodd" stroke="none"/>
    <path d="M-167.15 -89.25 L-148.75 -46.9 -144.0 -13.65 -148.15 -0.9 -172.0 -0.9 -168.65 -40.25 -169.75 -81.15 -169.9 -81.4 -169.4 -82.9 -167.15 -89.25" fill="url(#gradient19)" fill-rule="evenodd" stroke="none"/>
    <path d="M-162.15 -150.9 L-167.15 -89.25 -169.4 -82.9 -167.15 -98.65 -167.15 -100.9 -166.25 -105.75 -164.4 -124.9 -164.0 -143.4 -162.15 -150.9" fill="url(#gradient20)" fill-rule="evenodd" stroke="none"/>
    <path d="M-245.65 -283.4 L-245.75 -283.15 -249.5 -279.9 -245.65 -283.75 -245.4 -284.25 -244.9 -284.75 -244.15 -285.25 -243.5 -286.15 -238.9 -290.5 -238.65 -291.0 -237.25 -292.0 -237.0 -292.65 -232.4 -297.0 -231.5 -300.0 -229.15 -300.0 -229.75 -298.25 -237.4 -291.25 -237.65 -290.9 -238.75 -290.0 -239.0 -289.5 -244.0 -285.0 -244.25 -284.65 -244.5 -284.4 -245.15 -284.0 -245.15 -283.9 -245.4 -283.5 -245.65 -283.75 -245.65 -283.4 M-242.15 -0.9 L-271.9 -0.9 -273.15 -5.15 -273.25 -5.4 -273.0 -10.4 -273.15 -10.4 -271.75 -26.15 -271.75 -27.15 -270.15 -48.0 -270.0 -48.9 -268.75 -67.5 -268.5 -69.4 -268.5 -69.75 -268.4 -70.0 -267.75 -79.15 -266.4 -78.15 -266.25 -77.9 -264.4 -76.4 -261.25 -76.0 -261.15 -75.9 -244.15 -73.15 -243.5 -48.4 -243.15 -46.4 -242.25 -10.65 -242.15 -10.0 -242.25 -5.0 -242.15 -4.75 -242.15 -0.9 M-269.65 -249.75 L-266.9 -256.75 -266.75 -257.25 -266.0 -258.75 -266.15 -259.0 -265.0 -261.25 -263.9 -264.5 -263.65 -264.75 -262.9 -266.75 -261.25 -268.4 -260.5 -269.15 -260.25 -269.4 -260.0 -269.25 -242.4 -260.25 -241.5 -259.65 -246.0 -258.0 -246.4 -258.0 -248.15 -257.25 -250.65 -256.5 -251.9 -255.9 -262.5 -252.25 -262.75 -252.0 -269.4 -249.75 -269.65 -249.75 M-251.75 -277.5 L-252.15 -277.25 -252.25 -277.25 -251.0 -278.65 -250.5 -278.65 -251.75 -277.5 M-256.75 -273.0 L-256.5 -273.15 -256.4 -273.4 -256.25 -273.25 -256.5 -273.15 -256.65 -273.0 -256.75 -273.0" fill="#9b0000" fill-opacity="0.9098039" fill-rule="evenodd" stroke="none"/>
    <path d="M-245.4 -283.5 L-245.65 -283.4 -245.65 -283.75 -245.4 -283.5 M-251.75 -277.5 L-252.75 -276.5 -252.75 -276.75 -252.65 -276.9 -252.4 -277.15 -252.25 -277.25 -252.15 -277.25 -251.75 -277.5 M-256.25 -273.25 L-256.75 -272.9 -256.75 -273.0 -256.65 -273.0 -256.5 -273.15 -256.25 -273.25" fill="#a90000" fill-rule="evenodd" stroke="none"/>
    <path d="M-256.25 -273.25 L-253.0 -276.4 -253.25 -276.0 -256.0 -273.4 -256.25 -273.25" fill="#ab0000" fill-rule="evenodd" stroke="none"/>
    <path d="M-261.25 -268.4 L-260.9 -268.9 -260.5 -269.15 -261.25 -268.4" fill="#aa0000" fill-rule="evenodd" stroke="none"/>
    <path d="M-241.5 -259.65 L-241.4 -258.75 -241.65 -257.75 -242.15 -252.9 -242.25 -252.65 -243.25 -243.75 -243.5 -243.5 -243.4 -242.65 -244.5 -234.0 -244.65 -233.75 -244.5 -233.5 -245.0 -230.4 -237.0 -196.4 -237.0 -196.15 -247.5 -196.5 -247.75 -196.65 -261.25 -197.15 -266.15 -196.75 -266.75 -198.65 -267.0 -198.9 -267.4 -199.15 -267.75 -199.25 -270.75 -201.25 -276.5 -206.75 -281.15 -213.5 -282.25 -215.9 -282.4 -216.4 -282.5 -216.5 -282.75 -217.15 -282.75 -217.25 -284.4 -221.15 -284.4 -221.9 -284.5 -222.15 -284.65 -222.75 -284.65 -222.9 -285.0 -223.75 -284.75 -223.5 -279.9 -217.0 -279.9 -216.65 -275.9 -211.4 -275.75 -210.9 -274.65 -209.65 -274.4 -209.5 -274.0 -211.15 -274.25 -212.0 -273.75 -214.5 -274.0 -215.0 -273.75 -215.5 -272.75 -225.5 -272.4 -226.9 -272.5 -228.75 -272.25 -229.25 -272.25 -229.65 -272.4 -229.75 -272.4 -230.0 -272.25 -230.5 -272.15 -232.25 -270.9 -240.4 -271.0 -241.0 -270.65 -241.65 -269.9 -248.5 -270.0 -249.15 -269.65 -249.65 -269.65 -249.75 -269.4 -249.75 -262.75 -252.0 -262.5 -252.25 -251.9 -255.9 -250.65 -256.5 -248.15 -257.25 -246.4 -258.0 -246.0 -258.0 -241.5 -259.65 M-263.5 -223.0 L-263.5 -221.4 -262.5 -219.65 -262.25 -219.75 -262.15 -220.9 -262.4 -221.9 -263.5 -223.0" fill="#a10000" fill-opacity="0.9098039" fill-rule="evenodd" stroke="none"/>
    <path d="M-151.0 -206.75 L-151.4 -202.15 -167.9 -204.4 -197.4 -207.65 -221.25 -200.65 -221.5 -200.5 -230.25 -198.0 -230.75 -197.9 -237.0 -196.15 -237.0 -196.4 -245.0 -230.4 -244.5 -233.5 -244.65 -233.75 -244.5 -234.0 -243.4 -242.65 -243.5 -243.5 -243.25 -243.75 -242.25 -252.65 -242.15 -252.9 -241.65 -257.75 -241.4 -258.75 -241.5 -259.65 -213.9 -246.9 -213.9 -246.75 -213.4 -246.65 -198.5 -239.65 -198.4 -239.4 -194.4 -237.65 -181.65 -229.15 -181.25 -229.0 -180.4 -228.4 -180.4 -228.25 -166.75 -219.5 -166.65 -219.25 -159.75 -214.15 -159.15 -213.25 -151.15 -207.15 -151.0 -206.75" fill="#da0000" fill-opacity="0.9098039" fill-rule="evenodd" stroke="none"/>
    <path d="M-151.4 -202.15 L-151.0 -206.75 -143.25 -200.9 -151.4 -202.15" fill="#f00000" fill-opacity="0.9098039" fill-rule="evenodd" stroke="none"/>
    <path d="M-237.0 -196.15 L-230.75 -197.9 -230.25 -198.0 -221.5 -200.5 -221.25 -200.65 -197.4 -207.65 -167.9 -204.4 -151.4 -202.15 -151.9 -199.0 -151.9 -198.65 -154.25 -187.0 -162.25 -149.9 -162.15 -149.65 -162.4 -149.25 -162.25 -147.9 -164.4 -125.25 -164.5 -121.4 -164.65 -120.65 -164.65 -120.25 -165.0 -117.0 -165.15 -116.4 -165.65 -108.25 -165.5 -107.9 -165.75 -107.5 -165.65 -106.4 -167.15 -89.0 -164.15 -82.5 -163.0 -79.9 -162.9 -79.65 -163.0 -79.5 -163.0 -79.4 -164.65 -72.9 -164.65 -72.4 -164.75 -71.9 -180.4 -71.5 -196.15 -71.25 -244.15 -73.15 -242.5 -88.0 -242.5 -88.5 -241.4 -96.75 -240.25 -111.4 -240.4 -112.4 -238.5 -133.25 -238.65 -134.15 -237.4 -156.75 -237.65 -157.9 -236.9 -196.0 -237.0 -196.15" fill="#dd0000" fill-opacity="0.9098039" fill-rule="evenodd" stroke="none"/>
    <path d="M-283.75 -257.9 L-256.15 -284.25 -251.4 -299.65 -251.25 -300.0 -249.75 -300.0 -249.65 -299.65 -253.65 -286.15 -281.9 -259.25 -282.9 -256.9 -283.75 -257.9" fill="#ab0000" fill-opacity="0.9098039" fill-rule="evenodd" stroke="none"/>
    <path d="M-289.9 -238.5 L-283.75 -257.9 -282.9 -256.9 -282.9 -256.4 -289.9 -238.5" fill="#ad0000" fill-rule="evenodd" stroke="none"/>
    <path d="M-291.65 -233.65 L-289.9 -238.5 -282.9 -256.4 -281.4 -254.15 -281.5 -253.65 -281.75 -253.25 -284.65 -245.75 -286.0 -238.9 -291.65 -233.65" fill="#c70000" fill-opacity="0.9098039" fill-rule="evenodd" stroke="none"/>
    <path d="M-291.0 -232.25 L-291.15 -232.4 -291.4 -232.75 -291.65 -233.65 -286.0 -238.9 -285.9 -238.65 -286.0 -238.0 -286.15 -237.65 -286.15 -230.65 -286.0 -229.4 -286.0 -229.0 -285.9 -228.4 -285.75 -227.9 -285.75 -227.65 -285.65 -227.25 -285.5 -226.9 -285.4 -224.75 -291.0 -232.25" fill="#ec0000" fill-opacity="0.9098039" fill-rule="evenodd" stroke="none"/>
    <path d="M-275.65 -197.25 L-291.0 -232.25 -285.4 -224.75 -285.15 -224.4 -285.15 -224.15 -285.0 -223.75 -284.65 -222.9 -284.65 -222.75 -284.5 -222.15 -284.4 -221.9 -284.4 -221.15 -282.75 -217.25 -282.75 -217.15 -282.5 -216.5 -282.4 -216.4 -282.25 -215.9 -281.15 -213.5 -276.5 -206.75 -270.75 -201.25 -267.75 -199.25 -267.4 -199.15 -267.0 -198.9 -266.75 -198.65 -266.15 -196.75 -269.25 -196.5 -274.5 -197.15 -274.65 -197.15 -275.15 -197.25 -275.65 -197.25" fill="#b70000" fill-rule="evenodd" stroke="none"/>
    <path d="M-271.9 -0.9 L-278.9 -0.9 -276.75 -28.15 -268.75 -67.5 -270.0 -48.9 -270.15 -48.0 -271.75 -27.15 -271.75 -26.15 -273.15 -10.4 -273.0 -10.4 -273.25 -5.4 -273.15 -5.15 -271.9 -0.9 M-276.0 -85.9 L-274.9 -108.0 -267.4 -129.5 -265.75 -150.4 -266.25 -154.4 -275.65 -197.25 -275.15 -197.25 -274.65 -197.15 -274.5 -197.15 -271.0 -196.4 -269.25 -196.5 -266.0 -196.25 -265.5 -195.0 -262.25 -178.65 -262.15 -178.4 -262.15 -178.0 -261.9 -176.75 -261.75 -176.65 -260.5 -169.5 -260.9 -151.4 -263.25 -119.0 -263.4 -118.15 -263.5 -118.0 -265.15 -112.65 -265.15 -112.25 -267.9 -79.4 -276.0 -85.9" fill="#b00000" fill-rule="evenodd" stroke="none"/>
    <path d="M-278.9 -0.9 L-282.5 -0.9 -276.0 -85.9 -267.9 -79.4 -267.75 -79.25 -267.75 -79.15 -268.4 -70.0 -268.5 -69.75 -268.5 -69.4 -268.75 -67.5 -276.75 -28.15 -278.9 -0.9" fill="#ae0000" fill-rule="evenodd" stroke="none"/>
    <path d="M-237.0 -196.15 L-236.9 -196.0 -237.65 -157.9 -237.4 -156.75 -238.65 -134.15 -238.5 -133.25 -240.4 -112.4 -240.25 -111.4 -241.4 -96.75 -242.5 -88.5 -242.5 -88.0 -244.15 -73.15 -261.15 -75.9 -261.25 -76.0 -264.4 -76.4 -266.25 -77.9 -266.4 -78.15 -267.75 -79.15 -267.75 -79.25 -267.9 -79.4 -265.15 -112.25 -265.15 -112.65 -263.5 -118.0 -263.4 -118.15 -263.25 -119.0 -258.75 -131.9 -258.75 -132.15 -258.5 -132.65 -257.0 -152.15 -257.0 -152.9 -260.5 -169.5 -261.75 -176.65 -261.9 -176.75 -262.15 -178.0 -262.15 -178.4 -262.25 -178.65 -265.5 -195.0 -266.0 -196.25 -266.15 -196.75 -261.25 -197.15 -247.75 -196.65 -247.5 -196.5 -237.0 -196.15" fill="#9d0000" fill-opacity="0.9098039" fill-rule="evenodd" stroke="none"/>
    <path d="M-260.5 -169.5 L-257.0 -152.9 -257.0 -152.15 -258.5 -132.65 -258.75 -132.15 -258.75 -131.9 -263.25 -119.0 -260.9 -151.4 -260.5 -169.5" fill="#b30000" fill-rule="evenodd" stroke="none"/>
    <path d="M-266.0 -196.25 L-269.25 -196.5 -266.15 -196.75 -266.0 -196.25" fill="#b20000" fill-rule="evenodd" stroke="none"/>
    <path d="M-269.25 -196.5 L-271.0 -196.4 -274.5 -197.15 -269.25 -196.5" fill="#b50000" fill-rule="evenodd" stroke="none"/>
    <path d="M-151.4 -202.15 L-143.25 -200.9 -143.15 -200.65 -143.25 -200.4 -154.25 -187.0 -151.9 -198.65 -151.9 -199.0 -151.4 -202.15" fill="#f40000" fill-opacity="0.9098039" fill-rule="evenodd" stroke="none"/>
    <path d="M-154.25 -187.0 L-143.25 -200.4 -143.15 -200.0 -156.65 -139.15 -157.5 -114.0 -159.9 -92.75 -162.4 -81.65 -164.15 -82.5 -167.15 -89.0 -165.65 -106.4 -165.75 -107.5 -165.5 -107.9 -165.65 -108.25 -165.15 -116.4 -165.0 -117.0 -164.65 -120.25 -164.65 -120.65 -164.5 -121.4 -164.4 -125.25 -162.25 -147.9 -162.4 -149.25 -162.15 -149.65 -162.25 -149.9 -154.25 -187.0" fill="#ee0000" fill-rule="evenodd" stroke="none"/>
    <path d="M-163.0 -79.9 L-164.15 -82.5 -162.4 -81.65 -163.0 -79.9" fill="#ef0000" fill-rule="evenodd" stroke="none"/>
    <path d="M-163.0 -79.4 L-163.0 -79.5 -162.9 -79.65 -163.0 -79.9 -162.4 -81.65 -141.0 -35.65 -135.65 -0.9 -148.15 -0.9 -144.15 -13.15 -144.25 -13.5 -144.15 -13.9 -148.9 -46.75 -163.0 -79.4" fill="#f90000" fill-rule="evenodd" stroke="none"/>
    <path d="M-164.75 -71.9 L-164.65 -72.4 -164.65 -72.9 -163.0 -79.4 -148.9 -46.75 -144.15 -13.9 -144.25 -13.5 -144.15 -13.15 -148.15 -0.9 -165.25 -0.9 -164.75 -6.25 -164.9 -7.15 -163.0 -26.65 -163.4 -34.5 -163.5 -34.9 -164.75 -71.9" fill="#e80000" fill-opacity="0.9098039" fill-rule="evenodd" stroke="none"/>
    <path d="M-244.15 -73.15 L-196.15 -71.25 -180.4 -71.5 -164.75 -71.9 -163.5 -34.9 -163.4 -34.5 -163.0 -26.65 -164.9 -7.15 -164.75 -6.25 -165.25 -0.9 -242.15 -0.9 -242.15 -4.75 -242.25 -5.0 -242.15 -10.0 -242.25 -10.65 -243.15 -46.4 -243.5 -48.4 -244.15 -73.15" fill="#d90000" fill-opacity="0.9098039" fill-rule="evenodd" stroke="none"/>
  </g>
  <defs>
    <radialGradient cx="0" cy="0" gradientTransform="matrix(0.0969, 0.0, 0.0, 0.0969, -180.4, -229.05)" gradientUnits="userSpaceOnUse" id="gradient0" r="819.2" spreadMethod="pad">
      <stop offset="0.0" stop-color="#3f3f3f"/>
      <stop offset="1.0" stop-color="#060606"/>
    </radialGradient>
    <radialGradient cx="0" cy="0" gradientTransform="matrix(0.037, 0.0, 0.0, 0.037, -191.95, -272.75)" gradientUnits="userSpaceOnUse" id="gradient1" r="819.2" spreadMethod="pad">
      <stop offset="0.0" stop-color="#595959"/>
      <stop offset="1.0" stop-color="#000000"/>
    </radialGradient>
    <radialGradient cx="0" cy="0" gradientTransform="matrix(0.036, 0.0, 0.0, 0.036, -191.95, -272.75)" gradientUnits="userSpaceOnUse" id="gradient2" r="819.2" spreadMethod="pad">
      <stop offset="0.0" stop-color="#595959"/>
      <stop offset="1.0" stop-color="#000000"/>
    </radialGradient>
    <radialGradient cx="0" cy="0" gradientTransform="matrix(0.0791, 0.0, 0.0, 0.0791, -187.0, -269.5)" gradientUnits="userSpaceOnUse" id="gradient3" r="819.2" spreadMethod="pad">
      <stop offset="0.0" stop-color="#616161"/>
      <stop offset="1.0" stop-color="#000000"/>
    </radialGradient>
    <radialGradient cx="0" cy="0" gradientTransform="matrix(0.0509, 0.0, 0.0, 0.0509, -129.1, -295.2)" gradientUnits="userSpaceOnUse" id="gradient4" r="819.2" spreadMethod="pad">
      <stop offset="0.0" stop-color="#686868"/>
      <stop offset="1.0" stop-color="#000000"/>
    </radialGradient>
    <radialGradient cx="0" cy="0" gradientTransform="matrix(0.0789, 0.0, 0.0, 0.0789, -85.45, -240.2)" gradientUnits="userSpaceOnUse" id="gradient5" r="819.2" spreadMethod="pad">
      <stop offset="0.0" stop-color="#161616"/>
      <stop offset="1.0" stop-color="#000000"/>
    </radialGradient>
    <radialGradient cx="0" cy="0" gradientTransform="matrix(0.0166, 0.0, 0.0, 0.0166, -107.3, -288.75)" gradientUnits="userSpaceOnUse" id="gradient6" r="819.2" spreadMethod="pad">
      <stop offset="0.0" stop-color="#000000"/>
      <stop offset="1.0" stop-color="#000000"/>
    </radialGradient>
    <radialGradient cx="0" cy="0" gradientTransform="matrix(0.0303, 0.0, 0.0, 0.0303, -94.35, -300.0)" gradientUnits="userSpaceOnUse" id="gradient7" r="819.2" spreadMethod="pad">
      <stop offset="0.0" stop-color="#000000"/>
      <stop offset="1.0" stop-color="#000000"/>
    </radialGradient>
    <radialGradient cx="0" cy="0" gradientTransform="matrix(0.0259, 0.0, 0.0, 0.0259, -113.7, -284.45)" gradientUnits="userSpaceOnUse" id="gradient8" r="819.2" spreadMethod="pad">
      <stop offset="0.0" stop-color="#000000"/>
      <stop offset="1.0" stop-color="#000000"/>
    </radialGradient>
    <radialGradient cx="0" cy="0" gradientTransform="matrix(0.0733, 0.0, 0.0, 0.0733, -61.15, -263.95)" gradientUnits="userSpaceOnUse" id="gradient9" r="819.2" spreadMethod="pad">
      <stop offset="0.0" stop-color="#000000"/>
      <stop offset="1.0" stop-color="#000000"/>
    </radialGradient>
    <radialGradient cx="0" cy="0" gradientTransform="matrix(0.0502, 0.0, 0.0, 0.0502, -85.45, -240.2)" gradientUnits="userSpaceOnUse" id="gradient10" r="819.2" spreadMethod="pad">
      <stop offset="0.0" stop-color="#161616"/>
      <stop offset="1.0" stop-color="#000000"/>
    </radialGradient>
    <radialGradient cx="0" cy="0" gradientTransform="matrix(0.1416, 0.0, 0.0, 0.1416, -265.45, -195.1)" gradientUnits="userSpaceOnUse" id="gradient11" r="819.2" spreadMethod="pad">
      <stop offset="0.0" stop-color="#6a6a6a"/>
      <stop offset="1.0" stop-color="#000000"/>
    </radialGradient>
    <radialGradient cx="0" cy="0" gradientTransform="matrix(0.0899, 0.0, 0.0, 0.0899, -276.25, -207.15)" gradientUnits="userSpaceOnUse" id="gradient12" r="819.2" spreadMethod="pad">
      <stop offset="0.0" stop-color="#858585"/>
      <stop offset="1.0" stop-color="#000000"/>
    </radialGradient>
    <radialGradient cx="0" cy="0" gradientTransform="matrix(0.1042, 0.0, 0.0, 0.1042, -261.8, -206.0)" gradientUnits="userSpaceOnUse" id="gradient13" r="819.2" spreadMethod="pad">
      <stop offset="0.0" stop-color="#878787"/>
      <stop offset="1.0" stop-color="#000000"/>
    </radialGradient>
    <radialGradient cx="0" cy="0" gradientTransform="matrix(0.1414, 0.0, 0.0, 0.1414, -265.45, -195.1)" gradientUnits="userSpaceOnUse" id="gradient14" r="819.2" spreadMethod="pad">
      <stop offset="0.0" stop-color="#6a6a6a"/>
      <stop offset="1.0" stop-color="#000000"/>
    </radialGradient>
    <radialGradient cx="0" cy="0" gradientTransform="matrix(0.155, 0.0, 0.0, 0.155, -169.85, -81.25)" gradientUnits="userSpaceOnUse" id="gradient15" r="819.2" spreadMethod="pad">
      <stop offset="0.0" stop-color="#666666"/>
      <stop offset="1.0" stop-color="#101010"/>
    </radialGradient>
    <radialGradient cx="0" cy="0" gradientTransform="matrix(0.0415, 0.0, 0.0, 0.0415, -85.45, -240.2)" gradientUnits="userSpaceOnUse" id="gradient16" r="819.2" spreadMethod="pad">
      <stop offset="0.0" stop-color="#161616"/>
      <stop offset="1.0" stop-color="#000000"/>
    </radialGradient>
    <radialGradient cx="0" cy="0" gradientTransform="matrix(0.0712, 0.0, 0.0, 0.0712, -270.0, -49.1)" gradientUnits="userSpaceOnUse" id="gradient17" r="819.2" spreadMethod="pad">
      <stop offset="0.0" stop-color="#000000"/>
      <stop offset="1.0" stop-color="#000000"/>
    </radialGradient>
    <radialGradient cx="0" cy="0" gradientTransform="matrix(0.1049, 0.0, 0.0, 0.1049, -187.0, -13.65)" gradientUnits="userSpaceOnUse" id="gradient18" r="819.2" spreadMethod="pad">
      <stop offset="0.0" stop-color="#6e6e6e"/>
      <stop offset="1.0" stop-color="#262626"/>
    </radialGradient>
    <radialGradient cx="0" cy="0" gradientTransform="matrix(0.0965, 0.0, 0.0, 0.0965, -144.1, -13.85)" gradientUnits="userSpaceOnUse" id="gradient19" r="819.2" spreadMethod="pad">
      <stop offset="0.0" stop-color="#838383"/>
      <stop offset="1.0" stop-color="#676767"/>
    </radialGradient>
    <radialGradient cx="0" cy="0" gradientTransform="matrix(0.0835, 0.0, 0.0, 0.0835, -167.25, -89.45)" gradientUnits="userSpaceOnUse" id="gradient20" r="819.2" spreadMethod="pad">
      <stop offset="0.0" stop-color="#696969"/>
      <stop offset="1.0" stop-color="#181818"/>
    </radialGradient>
  </defs>
</svg>
