<?xml version="1.0" encoding="UTF-8" standalone="no"?>
<svg xmlns:xlink="http://www.w3.org/1999/xlink" height="299.1px" width="301.1px" xmlns="http://www.w3.org/2000/svg">
  <g transform="matrix(1.0, 0.0, 0.0, 1.0, 302.0, 300.0)">
    <path d="M-215.65 -300.0 L-213.9 -300.0 -214.15 -299.65 -215.15 -299.65 -215.65 -300.0" fill="url(#gradient0)" fill-rule="evenodd" stroke="none"/>
    <path d="M-213.9 -300.0 L-182.0 -300.0 -186.9 -284.4 -186.9 -253.0 -191.9 -238.75 -195.65 -264.65 -195.65 -266.5 -214.15 -299.65 -213.9 -300.0" fill="url(#gradient1)" fill-rule="evenodd" stroke="none"/>
    <path d="M-152.75 -221.4 L-156.25 -179.25 -169.0 -181.5 -196.25 -184.65 -225.25 -175.25 -226.15 -177.75 -221.4 -179.15 -215.9 -183.5 -212.65 -189.9 -212.15 -190.65 -212.15 -192.0 -202.5 -198.15 -198.25 -203.0 -196.0 -206.4 -194.15 -215.25 -194.5 -224.15 -195.15 -226.75 -199.9 -234.5 -202.4 -236.9 -204.25 -243.15 -210.5 -250.65 Q-212.65 -253.5 -221.25 -255.15 L-216.4 -265.15 -215.15 -299.65 -214.15 -299.65 -195.65 -266.5 -195.65 -264.65 -191.9 -238.75 -191.65 -238.4 -176.25 -236.0 -169.0 -231.0 -168.0 -230.15 -155.65 -223.9 -152.75 -221.4" fill="url(#gradient2)" fill-rule="evenodd" stroke="none"/>
    <path d="M-262.65 -256.5 L-260.4 -259.65 -246.4 -297.4 -240.0 -300.0 -215.65 -300.0 -215.15 -299.65 -216.4 -265.15 -221.25 -255.15 Q-225.0 -260.5 -232.75 -261.0 -245.65 -261.4 -253.15 -255.75 L-260.5 -250.75 -263.5 -247.75 -262.4 -252.4 -262.4 -253.75 -263.15 -254.9 -263.4 -255.0 -262.65 -256.4 -262.65 -256.5 M-226.15 -177.75 L-225.25 -175.25 -231.5 -175.25 -227.5 -176.5 -226.15 -177.75 M-244.15 -175.4 L-254.5 -175.4 -273.65 -176.15 -274.4 -178.15 -276.4 -184.25 -276.5 -184.4 -276.65 -184.9 Q-275.4 -196.65 -278.15 -202.5 L-276.0 -210.0 Q-272.15 -193.25 -265.4 -186.65 -259.0 -180.4 -244.15 -175.4" fill="url(#gradient3)" fill-rule="evenodd" stroke="none"/>
    <path d="M-289.15 -190.0 Q-302.0 -209.5 -296.4 -227.25 -287.0 -252.65 -262.65 -256.5 L-262.65 -256.4 -263.4 -255.0 -263.15 -254.9 -262.4 -253.75 -262.4 -252.4 -263.5 -247.75 Q-279.5 -229.15 -276.0 -210.0 L-278.15 -202.5 Q-275.4 -196.65 -276.65 -184.9 L-276.5 -184.4 -276.4 -184.25 -274.4 -178.15 -282.0 -182.75 -289.15 -190.0" fill="url(#gradient4)" fill-rule="evenodd" stroke="none"/>
    <path d="M-289.75 -185.9 L-289.15 -190.0 -282.0 -182.75 -274.4 -178.15 -273.65 -176.15 -273.0 -172.5 -272.9 -171.4 -273.15 -169.65 -272.9 -169.4 -271.65 -160.0 -285.65 -158.75 -285.5 -157.25 -286.15 -159.25 -288.75 -172.75 -288.9 -173.25 -288.9 -173.5 -289.0 -174.75 -289.15 -175.25 -289.15 -175.5 -289.75 -185.9" fill="url(#gradient5)" fill-rule="evenodd" stroke="none"/>
    <path d="M-290.0 -178.5 L-290.0 -179.0 -290.15 -179.25 -290.25 -181.5 -289.75 -185.9 -289.15 -175.5 -290.0 -178.5" fill="url(#gradient6)" fill-rule="evenodd" stroke="none"/>
    <path d="M-286.15 -159.25 L-289.0 -169.0 -290.0 -178.5 -289.15 -175.5 -289.15 -175.25 -289.0 -174.75 -288.9 -173.5 -288.9 -173.25 -288.75 -172.75 -286.15 -159.25" fill="url(#gradient7)" fill-rule="evenodd" stroke="none"/>
    <path d="M-182.0 -300.0 L-180.65 -300.0 -175.75 -287.65 -186.9 -284.4 -182.0 -300.0" fill="url(#gradient8)" fill-rule="evenodd" stroke="none"/>
    <path d="M-122.65 -205.15 L-133.65 -206.4 -144.0 -213.75 -152.75 -221.4 -155.65 -223.9 -168.0 -230.15 -169.0 -231.0 -186.9 -253.0 -186.9 -284.4 -175.75 -287.65 -155.0 -277.0 -139.5 -269.75 -114.25 -255.25 -127.4 -227.9 -122.65 -205.15" fill="url(#gradient9)" fill-rule="evenodd" stroke="none"/>
    <path d="M-180.65 -300.0 L-164.15 -300.0 -161.4 -298.4 -157.65 -296.0 -140.65 -283.25 Q-157.25 -292.25 -161.9 -291.4 L-175.75 -287.65 -180.65 -300.0" fill="url(#gradient10)" fill-rule="evenodd" stroke="none"/>
    <path d="M-164.15 -300.0 L-156.5 -300.0 -161.4 -298.4 -164.15 -300.0" fill="url(#gradient11)" fill-rule="evenodd" stroke="none"/>
    <path d="M-140.65 -283.25 L-94.4 -260.9 -113.0 -255.5 -114.25 -255.25 -139.5 -269.75 -155.0 -277.0 -175.75 -287.65 -161.9 -291.4 Q-157.25 -292.25 -140.65 -283.25" fill="url(#gradient12)" fill-rule="evenodd" stroke="none"/>
    <path d="M-94.4 -260.9 L-81.65 -265.4 -84.5 -261.9 -85.0 -261.25 -113.0 -255.5 -94.4 -260.9" fill="url(#gradient13)" fill-rule="evenodd" stroke="none"/>
    <path d="M-81.65 -265.4 L-45.5 -299.4 -44.75 -300.0 -41.65 -300.0 -63.75 -279.4 -84.5 -261.9 -81.65 -265.4" fill="url(#gradient14)" fill-rule="evenodd" stroke="none"/>
    <path d="M-41.65 -300.0 L-0.9 -300.0 -0.9 -257.9 -30.0 -239.9 -46.9 -257.0 -63.75 -279.4 -41.65 -300.0" fill="url(#gradient15)" fill-rule="evenodd" stroke="none"/>
    <path d="M-30.0 -239.9 L-30.5 -239.5 -30.75 -239.25 -31.15 -239.0 -31.5 -238.65 -31.75 -238.5 -32.25 -238.0 -32.4 -238.0 -58.25 -217.75 -68.75 -239.4 -46.9 -257.0 -30.0 -239.9" fill="url(#gradient16)" fill-rule="evenodd" stroke="none"/>
    <path d="M-63.75 -279.4 L-46.9 -257.0 -85.0 -261.25 -84.5 -261.9 -63.75 -279.4" fill="url(#gradient17)" fill-rule="evenodd" stroke="none"/>
    <path d="M-74.4 -203.0 L-122.65 -205.15 -127.4 -227.9 -114.25 -255.25 -113.0 -255.5 -85.0 -261.25 -46.9 -257.0 -68.75 -239.4 -58.25 -217.75 -74.4 -203.0" fill="url(#gradient18)" fill-rule="evenodd" stroke="none"/>
    <path d="M-32.4 -238.0 L-74.4 -203.0 -58.25 -217.75 -32.4 -238.0" fill="url(#gradient19)" fill-rule="evenodd" stroke="none"/>
    <path d="M-221.25 -255.15 Q-212.65 -253.5 -210.5 -250.65 L-204.25 -243.15 -202.4 -236.9 -199.9 -234.5 -195.15 -226.75 -194.5 -224.15 -194.15 -215.25 -196.0 -206.4 -198.25 -203.0 -202.5 -198.15 -212.15 -192.0 -212.15 -190.65 -212.65 -189.9 -215.9 -183.5 -221.4 -179.15 -226.15 -177.75 -227.5 -176.5 -231.5 -175.25 -235.25 -174.75 -240.0 -174.75 -244.15 -175.4 Q-259.0 -180.4 -265.4 -186.65 -272.15 -193.25 -276.0 -210.0 -279.5 -229.15 -263.5 -247.75 L-260.5 -250.75 -253.15 -255.75 Q-245.65 -261.4 -232.75 -261.0 -225.0 -260.5 -221.25 -255.15" fill="url(#gradient20)" fill-rule="evenodd" stroke="none"/>
    <path d="M-186.9 -253.0 L-169.0 -231.0 -176.25 -236.0 -191.65 -238.4 -191.9 -238.75 -186.9 -253.0" fill="url(#gradient21)" fill-rule="evenodd" stroke="none"/>
    <path d="M-275.25 -70.4 L-273.65 -91.25 -272.4 -95.4 -272.4 -95.75 -271.9 -96.65 -268.65 -106.9 -268.75 -106.9 -266.9 -112.0 -266.75 -115.65 -265.4 -133.4 -270.25 -158.65 -270.4 -159.0 -270.4 -159.4 -270.65 -159.65 -272.25 -168.9 -272.4 -169.25 -272.9 -171.4 -273.0 -172.5 -273.65 -176.15 -254.5 -175.4 -244.15 -175.4 -240.0 -174.75 -235.25 -174.75 -231.5 -175.25 -225.25 -175.25 -233.9 -127.75 -239.15 -60.25 -258.25 -62.5 -275.25 -70.4" fill="url(#gradient22)" fill-rule="evenodd" stroke="none"/>
    <path d="M-156.25 -179.25 L-166.65 -123.4 -167.25 -101.9 -169.25 -82.75 -171.65 -65.25 -172.15 -61.4 -197.25 -60.0 -239.15 -60.25 -233.9 -127.75 -225.25 -175.25 -196.25 -184.65 -169.0 -181.5 -156.25 -179.25" fill="url(#gradient23)" fill-rule="evenodd" stroke="none"/>
    <path d="M-171.65 -65.25 L-154.9 -28.25 -151.0 -1.15 -170.65 -0.9 -169.5 -17.0 -169.0 -19.9 -172.15 -61.4 -171.65 -65.25" fill="url(#gradient24)" fill-rule="evenodd" stroke="none"/>
    <path d="M-170.65 -0.9 L-234.4 -0.9 -239.15 -60.25 -197.25 -60.0 -172.15 -61.4 -169.0 -19.9 -169.5 -17.0 -170.65 -0.9" fill="url(#gradient25)" fill-rule="evenodd" stroke="none"/>
    <path d="M-272.9 -171.4 L-272.4 -169.25 -272.9 -169.4 -273.15 -169.65 -272.9 -171.4" fill="url(#gradient26)" fill-rule="evenodd" stroke="none"/>
    <path d="M-272.4 -169.25 L-272.25 -168.9 -270.65 -159.65 -271.65 -160.0 -272.9 -169.4 -272.4 -169.25" fill="url(#gradient27)" fill-rule="evenodd" stroke="none"/>
    <path d="M-271.0 -106.0 L-273.15 -112.0 -285.25 -155.75 -285.4 -156.0 -285.4 -156.25 -285.4 -156.65 -285.5 -157.0 -285.5 -157.25 -285.65 -158.75 -271.65 -160.0 -272.75 -137.5 -268.9 -125.9 Q-268.15 -116.5 -266.75 -115.65 L-266.9 -112.0 -268.75 -106.9 -269.15 -107.5 -269.9 -107.65 -271.0 -106.0" fill="url(#gradient28)" fill-rule="evenodd" stroke="none"/>
    <path d="M-285.4 -156.25 L-286.15 -159.25 -285.5 -157.25 -285.5 -157.0 -285.4 -156.65 -285.4 -156.25" fill="url(#gradient29)" fill-rule="evenodd" stroke="none"/>
    <path d="M-270.65 -159.65 L-270.4 -159.4 -270.4 -159.0 -270.25 -158.65 -265.4 -133.4 -266.75 -115.65 Q-268.15 -116.5 -268.9 -125.9 L-272.75 -137.5 -271.65 -160.0 -270.65 -159.65" fill="url(#gradient30)" fill-rule="evenodd" stroke="none"/>
    <path d="M-272.4 -95.75 L-272.9 -99.75 Q-272.9 -102.65 -271.0 -106.0 L-269.9 -107.65 -269.15 -107.5 -268.75 -106.9 -268.65 -106.9 -271.9 -96.65 -272.4 -95.75" fill="url(#gradient31)" fill-rule="evenodd" stroke="none"/>
    <path d="M-234.4 -0.9 L-283.65 -0.9 -282.5 -13.0 -278.9 -27.0 -278.65 -28.4 -275.25 -70.4 -258.25 -62.5 -239.15 -60.25 -234.4 -0.9" fill="url(#gradient32)" fill-rule="evenodd" stroke="none"/>
    <path d="M-267.9 -231.65 L-264.0 -241.4 -263.75 -241.75 -261.65 -247.25 -261.4 -247.65 -261.0 -248.75 -259.65 -250.5 -258.25 -251.9 -257.75 -252.5 -257.5 -252.5 -257.5 -252.65 -257.25 -252.75 -257.25 -252.9 -256.9 -253.15 -256.65 -253.4 -256.5 -253.4 -256.4 -253.75 -256.0 -253.9 -252.75 -257.15 -252.4 -257.9 -246.75 -263.5 -246.4 -263.75 -239.65 -270.75 -239.25 -271.4 -231.9 -278.75 -227.5 -293.5 -227.5 -294.25 -225.75 -300.0 -222.25 -300.0 -225.4 -288.75 -225.4 -288.0 -227.75 -280.0 -240.15 -268.0 -240.25 -267.75 -240.25 -267.65 -240.5 -267.4 -240.9 -267.25 -241.0 -266.9 -243.4 -264.65 -243.75 -264.4 -250.65 -257.4 -250.65 -257.25 -251.65 -256.65 -251.75 -256.5 -253.9 -254.25 -254.5 -253.75 -255.25 -252.9 -255.5 -252.75 -256.5 -251.5 -234.25 -241.0 -249.65 -236.75 -267.9 -231.65 M-239.4 -0.9 L-283.65 -0.9 -282.5 -10.5 -282.4 -13.0 -278.65 -28.4 -276.15 -58.5 -268.15 -54.5 -268.0 -54.25 -265.9 -53.25 -243.9 -50.65 -241.4 -21.75 -241.0 -20.25 -239.4 -0.9" fill="#9b0000" fill-opacity="0.9098039" fill-rule="evenodd" stroke="none"/>
    <path d="M-291.9 -193.9 L-296.0 -202.65 -296.0 -202.75 -296.15 -202.9 -297.65 -210.75 -295.65 -208.9 -295.5 -208.4 -294.5 -207.65 -294.25 -207.0 -283.4 -194.9 -283.25 -194.65 -282.0 -193.5 -281.25 -192.25 -279.4 -190.65 -277.0 -197.0 -276.9 -197.75 -274.75 -203.0 -274.5 -203.4 -274.5 -204.25 -273.75 -205.4 -273.25 -207.4 -272.4 -209.4 -272.25 -210.15 -271.4 -212.15 -271.0 -213.65 -268.15 -230.65 -267.9 -231.65 -249.65 -236.75 -234.25 -241.0 -235.0 -235.0 -234.9 -234.75 -236.0 -226.0 -236.15 -225.75 -236.0 -225.25 -237.15 -216.15 -237.25 -215.9 -237.75 -211.25 -233.25 -184.15 -233.4 -183.9 -232.4 -179.0 -232.25 -178.9 -232.25 -178.65 -232.4 -177.0 -232.0 -176.65 -249.15 -177.25 -249.65 -177.4 -266.0 -177.75 -274.15 -177.5 -274.25 -177.9 -274.4 -178.15 -274.75 -178.25 -281.65 -182.65 -288.15 -188.75 -288.15 -189.15 -288.65 -189.25 -289.15 -190.0 -291.9 -193.9 M-261.65 -203.4 L-261.75 -203.15 -261.65 -202.9 -261.65 -202.65 -261.25 -202.4 -260.65 -200.75 -260.25 -201.25 -260.15 -201.75 -260.25 -203.15 -261.5 -204.25 -261.65 -203.4" fill="#a70000" fill-opacity="0.9098039" fill-rule="evenodd" stroke="none"/>
    <path d="M-295.0 -240.9 L-295.0 -241.25 -267.15 -267.5 -260.4 -289.9 -249.0 -299.9 -247.5 -299.9 -257.25 -291.15 -257.4 -290.5 -263.9 -268.9 -292.0 -242.15 -293.9 -237.4 -295.0 -240.9" fill="#ab0000" fill-opacity="0.9098039" fill-rule="evenodd" stroke="none"/>
    <path d="M-289.9 -0.9 L-290.4 -0.9 -289.25 -14.9 -289.25 -15.15 -289.15 -16.75 -289.0 -17.75 -289.0 -18.25 -285.4 -63.25 -278.25 -59.65 -282.9 -40.9 -282.75 -40.65 -283.0 -40.4 -282.9 -40.15 -283.15 -39.9 -283.0 -39.65 -283.25 -39.4 -283.15 -39.15 -283.4 -38.9 -283.25 -38.65 -287.4 -22.15 -287.9 -19.15 -287.75 -18.65 -289.9 -0.9 M-301.15 -218.5 L-295.0 -240.9 -293.9 -237.4 -294.0 -236.75 -301.15 -218.5" fill="#ad0000" fill-rule="evenodd" stroke="none"/>
    <path d="M-234.25 -241.0 L-209.0 -228.5 -208.9 -228.25 -208.0 -227.9 -206.75 -227.25 -206.0 -227.0 -188.65 -218.25 -179.4 -211.65 -179.0 -211.0 -176.25 -209.15 -175.75 -208.9 -164.0 -200.4 -163.75 -200.0 -162.25 -199.15 -155.25 -192.15 -155.15 -191.9 -155.9 -183.25 -157.75 -183.65 -158.0 -183.75 -169.9 -185.5 -170.0 -185.65 -191.25 -188.0 -221.0 -179.75 -221.25 -179.5 -225.4 -178.4 -225.75 -178.4 -232.0 -176.65 -232.4 -177.0 -232.25 -178.65 -232.25 -178.9 -232.4 -179.0 -233.4 -183.9 -233.25 -184.15 -237.75 -211.25 -237.25 -215.9 -237.15 -216.15 -236.0 -225.25 -236.15 -225.75 -236.0 -226.0 -234.9 -234.75 -235.0 -235.0 -234.25 -241.0" fill="#da0000" fill-opacity="0.9098039" fill-rule="evenodd" stroke="none"/>
    <path d="M-155.15 -191.9 L-151.25 -188.0 -147.0 -181.5 -155.9 -183.25 -155.15 -191.9" fill="#f00000" fill-opacity="0.9098039" fill-rule="evenodd" stroke="none"/>
    <path d="M-232.0 -176.65 L-225.75 -178.4 -225.4 -178.4 -221.25 -179.5 -221.0 -179.75 -191.25 -188.0 -170.0 -185.65 -169.9 -185.5 -158.0 -183.75 -157.75 -183.65 -155.9 -183.25 -156.25 -179.75 -156.25 -179.25 -157.5 -172.15 -166.5 -124.75 -166.65 -123.4 -167.4 -103.4 -167.25 -102.9 -169.5 -81.65 -169.5 -81.25 -171.5 -64.75 -170.5 -62.9 -166.9 -54.5 -166.5 -52.75 -166.65 -52.15 -167.4 -52.15 -179.75 -51.15 -181.15 -51.15 -181.5 -51.0 -195.25 -50.25 -243.9 -50.65 -242.0 -64.15 -242.0 -64.65 -240.5 -74.5 -239.5 -86.9 -239.65 -87.75 -237.75 -109.4 -237.9 -110.15 -235.9 -132.25 -236.0 -133.15 -232.0 -176.65" fill="#dd0000" fill-opacity="0.9098039" fill-rule="evenodd" stroke="none"/>
    <path d="M-301.75 -216.4 L-301.15 -218.5 -294.0 -236.75 -293.25 -235.0 -293.4 -234.75 -293.4 -234.65 -295.75 -228.25 -296.4 -227.0 -297.4 -222.4 -301.75 -216.4" fill="#c70000" fill-opacity="0.9098039" fill-rule="evenodd" stroke="none"/>
    <path d="M-301.65 -215.25 L-302.0 -215.9 -301.75 -216.4 -297.4 -222.4 -297.25 -221.9 -297.5 -220.0 -297.9 -218.9 -297.65 -211.25 -297.75 -211.15 -301.65 -215.25" fill="#e30000" fill-opacity="0.9098039" fill-rule="evenodd" stroke="none"/>
    <path d="M-296.15 -202.9 L-301.65 -215.25 -297.75 -211.15 -297.65 -210.75 -296.15 -202.9" fill="#bb0000" fill-rule="evenodd" stroke="none"/>
    <path d="M-289.5 -188.9 L-291.9 -193.9 -289.15 -190.0 -289.5 -188.9" fill="#be0000" fill-rule="evenodd" stroke="none"/>
    <path d="M-284.75 -178.5 L-285.65 -180.5 -286.15 -181.25 -288.75 -186.75 -288.9 -186.9 -289.0 -187.9 -289.5 -188.25 -289.5 -188.9 -289.15 -190.0 -288.65 -189.25 -288.15 -189.15 -288.15 -188.75 -281.65 -182.65 -274.75 -178.25 -274.4 -178.15 -274.25 -177.9 -274.15 -177.5 -277.25 -177.5 -278.15 -177.5 -278.65 -177.65 -279.0 -177.65 -279.4 -177.75 -279.9 -177.75 -280.25 -177.9 -282.75 -178.25 -282.9 -178.25 -284.75 -178.5" fill="#bc0000" fill-rule="evenodd" stroke="none"/>
    <path d="M-232.0 -176.65 L-236.0 -133.15 -235.9 -132.25 -237.9 -110.15 -237.75 -109.4 -239.65 -87.75 -239.5 -86.9 -240.5 -74.5 -242.0 -64.65 -242.0 -64.15 -243.9 -50.65 -265.9 -53.25 -268.0 -54.25 -268.15 -54.5 -276.15 -58.5 -275.5 -66.75 -275.25 -69.0 -275.25 -70.4 -273.65 -90.9 -273.65 -91.25 -272.4 -95.4 -272.4 -95.75 -271.9 -96.65 -272.0 -96.75 -271.65 -97.65 -271.5 -98.4 -271.0 -99.5 -271.15 -99.5 -270.0 -102.5 -270.15 -102.5 -269.25 -105.0 -269.4 -105.0 -268.65 -106.9 -268.75 -106.9 -267.25 -111.25 -266.9 -112.0 -266.75 -115.65 -266.0 -124.75 -266.15 -124.9 -265.9 -125.65 -266.0 -125.75 -265.4 -132.5 -265.4 -133.25 -270.25 -158.65 -270.5 -159.0 -270.4 -159.4 -270.65 -159.65 -272.25 -168.9 -272.4 -169.25 -272.75 -171.4 -273.15 -172.0 -273.0 -172.5 -273.25 -173.4 -273.4 -174.5 -273.4 -175.0 -273.5 -175.25 -273.65 -176.15 -274.0 -177.0 -274.15 -177.5 -266.0 -177.75 -249.65 -177.4 -249.15 -177.25 -232.0 -176.65" fill="#9d0000" fill-opacity="0.9098039" fill-rule="evenodd" stroke="none"/>
    <path d="M-273.25 -173.4 L-273.0 -172.5 -273.15 -172.0 -272.75 -171.4 -272.4 -169.25 -272.25 -168.9 -270.65 -159.65 -270.4 -159.4 -270.5 -159.0 -270.25 -158.65 -265.4 -133.25 -265.4 -132.5 -266.0 -125.75 -265.9 -125.65 -266.15 -124.9 -266.0 -124.75 -266.75 -115.65 -266.9 -112.0 -267.25 -111.25 -268.75 -106.9 -268.65 -106.9 -269.4 -105.0 -269.25 -105.0 -270.15 -102.5 -270.0 -102.5 -271.15 -99.5 -271.0 -99.5 -271.5 -98.4 -271.65 -97.65 -272.0 -96.75 -271.9 -96.65 -272.4 -95.75 -272.75 -97.15 -272.65 -97.75 -272.9 -99.9 -272.75 -100.4 -272.4 -102.65 -271.25 -105.25 -271.15 -105.65 -271.0 -106.0 -273.9 -114.25 -273.9 -114.75 -274.0 -115.4 -273.5 -118.65 -273.75 -119.65 -273.0 -125.0 -273.25 -125.75 -272.5 -132.25 -272.75 -133.15 -272.5 -136.4 -272.75 -137.5 -273.15 -161.9 -273.25 -162.4 -273.15 -169.65 -273.25 -169.75 -273.25 -169.9 -273.15 -170.25 -273.4 -170.4 -273.15 -172.0 -273.25 -173.4 M-275.5 -66.75 L-276.15 -58.5 -278.25 -59.65 -276.65 -66.4 -275.5 -66.75" fill="#b10000" fill-rule="evenodd" stroke="none"/>
    <path d="M-272.4 -95.75 L-272.4 -95.4 -273.65 -91.25 -273.65 -90.9 -275.25 -70.4 -275.25 -69.0 -275.5 -66.75 -276.65 -66.4 -275.9 -88.75 -273.9 -114.25 -271.0 -106.0 -271.15 -105.65 -271.25 -105.25 -272.4 -102.65 -272.75 -100.4 -272.9 -99.9 -272.65 -97.75 -272.75 -97.15 -272.4 -95.75" fill="#b30000" fill-rule="evenodd" stroke="none"/>
    <path d="M-275.75 -120.65 L-275.75 -121.5 -275.9 -122.0 -275.65 -123.5 -275.65 -124.25 -275.4 -125.65 -275.4 -126.4 -275.5 -127.0 -275.25 -128.25 -275.25 -128.65 -275.4 -128.75 -275.15 -129.75 -275.15 -129.9 -275.25 -130.0 -275.0 -131.9 -276.65 -139.4 -276.75 -140.15 -276.9 -140.65 -276.9 -140.9 -277.15 -141.0 -278.15 -146.65 -278.4 -147.15 -280.75 -159.15 -280.9 -159.15 -282.5 -167.9 -282.65 -168.15 -284.5 -177.15 -284.75 -177.9 -284.75 -178.5 -282.9 -178.25 -282.75 -178.25 -280.25 -177.9 -279.9 -177.75 -279.4 -177.75 -279.0 -177.65 -278.65 -177.65 -278.15 -177.5 -277.25 -177.5 -277.0 -177.4 -274.0 -177.0 -273.65 -176.15 -273.5 -175.25 -273.4 -175.0 -273.4 -174.5 -273.25 -173.4 -273.15 -172.0 -273.4 -170.4 -273.15 -170.25 -273.25 -169.9 -273.25 -169.75 -273.15 -169.65 -273.25 -162.4 -273.15 -161.9 -272.75 -137.5 -272.5 -136.4 -272.75 -133.15 -272.5 -132.25 -273.25 -125.75 -273.0 -125.0 -273.75 -119.65 -273.5 -118.65 -274.0 -115.4 -275.5 -120.4 -275.75 -120.65 M-276.65 -66.4 L-278.25 -59.65 -285.4 -63.25 -276.65 -66.4" fill="#af0000" fill-rule="evenodd" stroke="none"/>
    <path d="M-274.15 -177.5 L-274.0 -177.0 -277.0 -177.4 -277.25 -177.5 -274.15 -177.5" fill="#b20000" fill-rule="evenodd" stroke="none"/>
    <path d="M-147.0 -181.5 L-147.0 -181.15 -157.5 -172.15 -156.25 -179.25 -156.25 -179.75 -155.9 -183.25 -147.0 -181.5" fill="#f40000" fill-opacity="0.9098039" fill-rule="evenodd" stroke="none"/>
    <path d="M-147.0 -181.15 L-158.15 -120.15 -158.75 -97.0 -161.25 -73.4 -165.75 -55.75 -168.65 -61.5 -169.0 -62.5 -170.5 -62.9 -171.5 -64.75 -169.5 -81.25 -169.5 -81.65 -167.25 -102.9 -167.4 -103.4 -166.65 -123.4 -166.5 -124.75 -157.5 -172.15 -147.0 -181.15 M-166.5 -52.75 L-166.9 -54.5 -166.25 -53.65 -166.25 -53.0 -166.5 -52.75" fill="#ee0000" fill-rule="evenodd" stroke="none"/>
    <path d="M-283.65 -0.9 L-289.9 -0.9 -287.75 -18.65 -287.9 -19.15 -287.4 -22.15 -283.25 -38.65 -283.4 -38.9 -283.15 -39.15 -283.25 -39.4 -283.0 -39.65 -283.15 -39.9 -282.9 -40.15 -283.0 -40.4 -282.75 -40.65 -282.9 -40.9 -278.25 -59.65 -276.15 -58.5 -278.65 -28.4 -282.4 -13.0 -282.5 -10.5 -283.65 -0.9 M-285.4 -63.25 L-284.25 -86.25 -276.75 -108.65 -275.75 -120.65 -275.5 -120.4 -274.0 -115.4 -273.9 -114.75 -273.9 -114.25 -275.9 -88.75 -276.65 -66.4 -285.4 -63.25" fill="#b00000" fill-rule="evenodd" stroke="none"/>
    <path d="M-276.75 -140.15 L-277.0 -140.65 -276.9 -140.65 -276.75 -140.15" fill="#d20000" fill-rule="evenodd" stroke="none"/>
    <path d="M-165.75 -55.75 L-165.65 -55.15 -166.25 -53.65 -166.9 -54.5 -170.5 -62.9 -169.0 -62.5 -168.65 -61.5 -165.75 -55.75" fill="#ef0000" fill-rule="evenodd" stroke="none"/>
    <path d="M-151.0 -0.9 L-163.0 -0.9 -162.5 -5.9 -162.9 -11.65 -163.15 -12.25 -166.15 -49.65 -166.5 -50.75 -166.65 -52.15 -166.5 -52.75 -166.25 -53.0 -154.75 -27.65 -154.65 -26.0 -151.0 -0.9" fill="#e80000" fill-opacity="0.9098039" fill-rule="evenodd" stroke="none"/>
    <path d="M-165.65 -55.15 L-147.15 -16.9 -144.65 -0.9 -151.0 -0.9 -154.65 -26.0 -154.75 -27.65 -166.25 -53.0 -166.25 -53.65 -165.65 -55.15" fill="#f90000" fill-rule="evenodd" stroke="none"/>
    <path d="M-163.0 -0.9 L-239.4 -0.9 -241.0 -20.25 -241.4 -21.75 -243.9 -50.65 -195.25 -50.25 -181.5 -51.0 -181.15 -51.15 -179.75 -51.15 -167.4 -52.15 -166.65 -52.15 -166.5 -50.75 -166.15 -49.65 -163.15 -12.25 -162.9 -11.65 -162.5 -5.9 -163.0 -0.9" fill="#db0000" fill-opacity="0.9098039" fill-rule="evenodd" stroke="none"/>
    <path d="M-290.4 -0.9 L-292.75 -0.9 -292.9 -1.75 -289.25 -16.25 -289.25 -15.15 -289.25 -14.9 -290.4 -0.9" fill="#e60000" fill-rule="evenodd" stroke="none"/>
    <path d="M-289.25 -16.25 L-289.15 -16.75 -289.25 -15.15 -289.25 -16.25" fill="#c40000" fill-rule="evenodd" stroke="none"/>
  </g>
  <defs>
    <radialGradient cx="0" cy="0" gradientTransform="matrix(0.1103, 0.0, 0.0, 0.1103, -227.15, -300.0)" gradientUnits="userSpaceOnUse" id="gradient0" r="819.2" spreadMethod="pad">
      <stop offset="0.0" stop-color="#000000"/>
      <stop offset="1.0" stop-color="#000000"/>
    </radialGradient>
    <radialGradient cx="0" cy="0" gradientTransform="matrix(0.0663, 0.0, 0.0, 0.0663, -186.8, -253.15)" gradientUnits="userSpaceOnUse" id="gradient1" r="819.2" spreadMethod="pad">
      <stop offset="0.0" stop-color="#595959"/>
      <stop offset="1.0" stop-color="#000000"/>
    </radialGradient>
    <radialGradient cx="0" cy="0" gradientTransform="matrix(0.1193, 0.0, 0.0, 0.1193, -178.35, -209.5)" gradientUnits="userSpaceOnUse" id="gradient2" r="819.2" spreadMethod="pad">
      <stop offset="0.0" stop-color="#3f3f3f"/>
      <stop offset="1.0" stop-color="#060606"/>
    </radialGradient>
    <radialGradient cx="0" cy="0" gradientTransform="matrix(0.1671, 0.0, 0.0, 0.1671, -273.6, -176.2)" gradientUnits="userSpaceOnUse" id="gradient3" r="819.2" spreadMethod="pad">
      <stop offset="0.0" stop-color="#6a6a6a"/>
      <stop offset="1.0" stop-color="#000000"/>
    </radialGradient>
    <radialGradient cx="0" cy="0" gradientTransform="matrix(0.0914, 0.0, 0.0, 0.0914, -285.8, -188.7)" gradientUnits="userSpaceOnUse" id="gradient4" r="819.2" spreadMethod="pad">
      <stop offset="0.0" stop-color="#858585"/>
      <stop offset="1.0" stop-color="#000000"/>
    </radialGradient>
    <radialGradient cx="0" cy="0" gradientTransform="matrix(0.0604, 0.0, 0.0, 0.0604, -285.0, -154.9)" gradientUnits="userSpaceOnUse" id="gradient5" r="819.2" spreadMethod="pad">
      <stop offset="0.0" stop-color="#393939"/>
      <stop offset="1.0" stop-color="#000000"/>
    </radialGradient>
    <radialGradient cx="0" cy="0" gradientTransform="matrix(0.0106, 0.0, 0.0, 0.0106, -290.2, -181.15)" gradientUnits="userSpaceOnUse" id="gradient6" r="819.2" spreadMethod="pad">
      <stop offset="0.0" stop-color="#191919"/>
      <stop offset="1.0" stop-color="#000000"/>
    </radialGradient>
    <radialGradient cx="0" cy="0" gradientTransform="matrix(0.0327, 0.0, 0.0, 0.0327, -285.0, -154.9)" gradientUnits="userSpaceOnUse" id="gradient7" r="819.2" spreadMethod="pad">
      <stop offset="0.0" stop-color="#393939"/>
      <stop offset="1.0" stop-color="#1e1e1e"/>
    </radialGradient>
    <radialGradient cx="0" cy="0" gradientTransform="matrix(0.02, 0.0, 0.0, 0.02, -181.95, -300.0)" gradientUnits="userSpaceOnUse" id="gradient8" r="819.2" spreadMethod="pad">
      <stop offset="0.0" stop-color="#000000"/>
      <stop offset="1.0" stop-color="#000000"/>
    </radialGradient>
    <radialGradient cx="0" cy="0" gradientTransform="matrix(0.0863, 0.0, 0.0, 0.0863, -177.45, -249.6)" gradientUnits="userSpaceOnUse" id="gradient9" r="819.2" spreadMethod="pad">
      <stop offset="0.0" stop-color="#616161"/>
      <stop offset="1.0" stop-color="#000000"/>
    </radialGradient>
    <radialGradient cx="0" cy="0" gradientTransform="matrix(0.0602, 0.0, 0.0, 0.0602, -135.65, -279.8)" gradientUnits="userSpaceOnUse" id="gradient10" r="819.2" spreadMethod="pad">
      <stop offset="0.0" stop-color="#585858"/>
      <stop offset="1.0" stop-color="#000000"/>
    </radialGradient>
    <radialGradient cx="0" cy="0" gradientTransform="matrix(0.0183, 0.0, 0.0, 0.0183, -170.8, -295.4)" gradientUnits="userSpaceOnUse" id="gradient11" r="819.2" spreadMethod="pad">
      <stop offset="0.0" stop-color="#080808"/>
      <stop offset="1.0" stop-color="#080808"/>
    </radialGradient>
    <radialGradient cx="0" cy="0" gradientTransform="matrix(0.0841, 0.0, 0.0, 0.0841, -155.05, -277.2)" gradientUnits="userSpaceOnUse" id="gradient12" r="819.2" spreadMethod="pad">
      <stop offset="0.0" stop-color="#000000"/>
      <stop offset="1.0" stop-color="#000000"/>
    </radialGradient>
    <radialGradient cx="0" cy="0" gradientTransform="matrix(0.0419, 0.0, 0.0, 0.0419, -114.15, -255.3)" gradientUnits="userSpaceOnUse" id="gradient13" r="819.2" spreadMethod="pad">
      <stop offset="0.0" stop-color="#000000"/>
      <stop offset="1.0" stop-color="#000000"/>
    </radialGradient>
    <radialGradient cx="0" cy="0" gradientTransform="matrix(0.0367, 0.0, 0.0, 0.0367, -63.65, -279.55)" gradientUnits="userSpaceOnUse" id="gradient14" r="819.2" spreadMethod="pad">
      <stop offset="0.0" stop-color="#000000"/>
      <stop offset="1.0" stop-color="#000000"/>
    </radialGradient>
    <radialGradient cx="0" cy="0" gradientTransform="matrix(0.0766, 0.0, 0.0, 0.0766, -46.75, -257.0)" gradientUnits="userSpaceOnUse" id="gradient15" r="819.2" spreadMethod="pad">
      <stop offset="0.0" stop-color="#000000"/>
      <stop offset="1.0" stop-color="#000000"/>
    </radialGradient>
    <radialGradient cx="0" cy="0" gradientTransform="matrix(0.0499, 0.0, 0.0, 0.0499, -58.15, -217.8)" gradientUnits="userSpaceOnUse" id="gradient16" r="819.2" spreadMethod="pad">
      <stop offset="0.0" stop-color="#161616"/>
      <stop offset="1.0" stop-color="#000000"/>
    </radialGradient>
    <radialGradient cx="0" cy="0" gradientTransform="matrix(0.0344, 0.0, 0.0, 0.0344, -63.65, -279.55)" gradientUnits="userSpaceOnUse" id="gradient17" r="819.2" spreadMethod="pad">
      <stop offset="0.0" stop-color="#000000"/>
      <stop offset="1.0" stop-color="#000000"/>
    </radialGradient>
    <radialGradient cx="0" cy="0" gradientTransform="matrix(0.0853, 0.0, 0.0, 0.0853, -58.15, -217.8)" gradientUnits="userSpaceOnUse" id="gradient18" r="819.2" spreadMethod="pad">
      <stop offset="0.0" stop-color="#161616"/>
      <stop offset="1.0" stop-color="#000000"/>
    </radialGradient>
    <radialGradient cx="0" cy="0" gradientTransform="matrix(0.0438, 0.0, 0.0, 0.0438, -58.15, -217.8)" gradientUnits="userSpaceOnUse" id="gradient19" r="819.2" spreadMethod="pad">
      <stop offset="0.0" stop-color="#161616"/>
      <stop offset="1.0" stop-color="#000000"/>
    </radialGradient>
    <radialGradient cx="0" cy="0" gradientTransform="matrix(0.1058, 0.0, 0.0, 0.1058, -262.65, -186.95)" gradientUnits="userSpaceOnUse" id="gradient20" r="819.2" spreadMethod="pad">
      <stop offset="0.0" stop-color="#878787"/>
      <stop offset="1.0" stop-color="#000000"/>
    </radialGradient>
    <radialGradient cx="0" cy="0" gradientTransform="matrix(0.0356, 0.0, 0.0, 0.0356, -186.8, -253.15)" gradientUnits="userSpaceOnUse" id="gradient21" r="819.2" spreadMethod="pad">
      <stop offset="0.0" stop-color="#595959"/>
      <stop offset="1.0" stop-color="#000000"/>
    </radialGradient>
    <radialGradient cx="0" cy="0" gradientTransform="matrix(0.1476, 0.0, 0.0, 0.1476, -273.6, -176.2)" gradientUnits="userSpaceOnUse" id="gradient22" r="819.2" spreadMethod="pad">
      <stop offset="0.0" stop-color="#6a6a6a"/>
      <stop offset="1.0" stop-color="#000000"/>
    </radialGradient>
    <radialGradient cx="0" cy="0" gradientTransform="matrix(0.1533, 0.0, 0.0, 0.1533, -172.2, -61.45)" gradientUnits="userSpaceOnUse" id="gradient23" r="819.2" spreadMethod="pad">
      <stop offset="0.0" stop-color="#666666"/>
      <stop offset="1.0" stop-color="#111111"/>
    </radialGradient>
    <radialGradient cx="0" cy="0" gradientTransform="matrix(0.0887, 0.0, 0.0, 0.0887, -151.1, -1.0)" gradientUnits="userSpaceOnUse" id="gradient24" r="819.2" spreadMethod="pad">
      <stop offset="0.0" stop-color="#818181"/>
      <stop offset="1.0" stop-color="#737373"/>
    </radialGradient>
    <radialGradient cx="0" cy="0" gradientTransform="matrix(0.1059, 0.0, 0.0, 0.1059, -172.2, -61.45)" gradientUnits="userSpaceOnUse" id="gradient25" r="819.2" spreadMethod="pad">
      <stop offset="0.0" stop-color="#666666"/>
      <stop offset="1.0" stop-color="#111111"/>
    </radialGradient>
    <radialGradient cx="0" cy="0" gradientTransform="matrix(0.0436, 0.0, 0.0, 0.0436, -257.65, -151.75)" gradientUnits="userSpaceOnUse" id="gradient26" r="819.2" spreadMethod="pad">
      <stop offset="0.0" stop-color="#292929"/>
      <stop offset="1.0" stop-color="#010101"/>
    </radialGradient>
    <radialGradient cx="0" cy="0" gradientTransform="matrix(0.0287, 0.0, 0.0, 0.0287, -257.65, -151.75)" gradientUnits="userSpaceOnUse" id="gradient27" r="819.2" spreadMethod="pad">
      <stop offset="0.0" stop-color="#292929"/>
      <stop offset="1.0" stop-color="#000000"/>
    </radialGradient>
    <radialGradient cx="0" cy="0" gradientTransform="matrix(0.0589, 0.0, 0.0, 0.0589, -273.1, -112.25)" gradientUnits="userSpaceOnUse" id="gradient28" r="819.2" spreadMethod="pad">
      <stop offset="0.0" stop-color="#505050"/>
      <stop offset="1.0" stop-color="#000000"/>
    </radialGradient>
    <radialGradient cx="0" cy="0" gradientTransform="matrix(0.0327, 0.0, 0.0, 0.0327, -285.0, -154.9)" gradientUnits="userSpaceOnUse" id="gradient29" r="819.2" spreadMethod="pad">
      <stop offset="0.0" stop-color="#393939"/>
      <stop offset="1.0" stop-color="#191919"/>
    </radialGradient>
    <radialGradient cx="0" cy="0" gradientTransform="matrix(0.055, 0.0, 0.0, 0.055, -247.05, -122.3)" gradientUnits="userSpaceOnUse" id="gradient30" r="819.2" spreadMethod="pad">
      <stop offset="0.0" stop-color="#3a3a3a"/>
      <stop offset="1.0" stop-color="#0c0c0c"/>
    </radialGradient>
    <radialGradient cx="0" cy="0" gradientTransform="matrix(0.019, 0.0, 0.0, 0.019, -272.1, -94.65)" gradientUnits="userSpaceOnUse" id="gradient31" r="819.2" spreadMethod="pad">
      <stop offset="0.0" stop-color="#737373"/>
      <stop offset="1.0" stop-color="#000000"/>
    </radialGradient>
    <radialGradient cx="0" cy="0" gradientTransform="matrix(0.0661, 0.0, 0.0, 0.0661, -277.25, -34.1)" gradientUnits="userSpaceOnUse" id="gradient32" r="819.2" spreadMethod="pad">
      <stop offset="0.0" stop-color="#6f6f6f"/>
      <stop offset="1.0" stop-color="#000000"/>
    </radialGradient>
  </defs>
</svg>
