<?xml version="1.0" encoding="UTF-8" standalone="no"?>
<svg xmlns:xlink="http://www.w3.org/1999/xlink" height="299.1px" width="319.85px" xmlns="http://www.w3.org/2000/svg">
  <g transform="matrix(1.0, 0.0, 0.0, 1.0, 320.75, 300.0)">
    <path d="M-248.15 -300.0 L-162.25 -300.0 -166.4 -297.5 -186.25 -289.65 -191.4 -289.0 Q-194.0 -292.75 -193.25 -295.15 L-194.0 -295.25 -201.65 -297.4 -206.25 -298.0 -213.75 -299.4 -212.65 -298.0 -219.15 -299.15 -221.5 -298.4 -228.0 -297.65 Q-230.9 -295.75 -232.9 -295.5 L-233.0 -294.75 -233.65 -292.75 -240.0 -295.15 -248.15 -300.0" fill="url(#gradient0)" fill-rule="evenodd" stroke="none"/>
    <path d="M-245.0 -286.5 L-253.4 -289.15 -258.25 -299.75 -248.15 -300.0 -240.0 -295.15 -233.65 -292.75 -233.65 -292.65 -234.15 -290.15 -234.9 -289.9 -241.65 -288.25 -245.0 -286.5 M-162.25 -300.0 L-147.15 -300.0 Q-147.15 -297.9 -141.15 -297.9 L-133.15 -298.5 -150.75 -287.4 -157.4 -285.0 -170.65 -283.5 -174.65 -284.65 -185.15 -284.9 -185.0 -285.25 -185.65 -285.25 -187.0 -284.9 -189.25 -284.9 -191.4 -289.0 -186.25 -289.65 -166.4 -297.5 -162.25 -300.0" fill="url(#gradient1)" fill-rule="evenodd" stroke="none"/>
    <path d="M-191.4 -289.0 L-189.25 -284.9 -199.65 -285.15 -211.25 -288.5 -208.4 -292.15 -206.0 -287.65 Q-198.75 -285.25 -196.65 -286.15 L-196.15 -286.25 -195.9 -287.4 -198.9 -293.65 -194.5 -292.4 -194.15 -292.65 -194.0 -295.25 -193.25 -295.15 Q-194.0 -292.75 -191.4 -289.0" fill="url(#gradient2)" fill-rule="evenodd" stroke="none"/>
    <path d="M-194.0 -295.25 L-194.15 -292.65 -194.5 -292.4 -198.9 -293.65 -195.9 -287.4 -196.15 -286.25 -196.65 -286.15 Q-198.75 -285.25 -206.0 -287.65 L-208.4 -292.15 -208.25 -293.75 -206.25 -298.0 -201.65 -297.4 -194.0 -295.25" fill="url(#gradient3)" fill-rule="evenodd" stroke="none"/>
    <path d="M-206.25 -298.0 L-208.25 -293.75 -212.65 -298.0 -213.75 -299.4 -206.25 -298.0" fill="url(#gradient4)" fill-rule="evenodd" stroke="none"/>
    <path d="M-253.5 -283.4 L-246.65 -285.65 -245.0 -286.5 -241.65 -288.25 -234.9 -289.9 -234.15 -290.15 -233.65 -292.65 -233.65 -292.75 -233.0 -294.75 -232.9 -295.5 Q-230.9 -295.75 -228.0 -297.65 L-221.5 -298.4 -219.15 -299.15 -212.65 -298.0 -208.25 -293.75 -208.4 -292.15 -211.25 -288.5 -219.65 -285.5 -236.25 -288.0 -253.5 -283.4" fill="url(#gradient5)" fill-rule="evenodd" stroke="none"/>
    <path d="M-147.15 -300.0 L-132.4 -300.0 -131.75 -299.75 -132.75 -298.65 -133.15 -298.5 -141.15 -297.9 Q-147.15 -297.9 -147.15 -300.0" fill="url(#gradient6)" fill-rule="evenodd" stroke="none"/>
    <path d="M-132.75 -298.65 L-143.9 -290.0 -150.75 -287.4 -133.15 -298.5 -132.75 -298.65" fill="url(#gradient7)" fill-rule="evenodd" stroke="none"/>
    <path d="M-211.25 -288.5 L-199.65 -285.15 -210.05 -285.3 -219.65 -285.5 -211.25 -288.5" fill="url(#gradient8)" fill-rule="evenodd" stroke="none"/>
    <path d="M-263.65 -262.25 L-263.4 -262.75 -255.75 -282.75 -254.65 -283.0 -254.5 -283.15 -253.65 -283.4 -253.5 -283.4 -236.25 -288.0 -219.65 -285.5 -219.5 -285.0 -221.15 -284.9 -219.5 -283.5 -217.0 -249.25 -221.0 -239.15 Q-231.25 -248.75 -247.15 -244.65 -267.9 -237.45 -273.55 -225.7 L-272.15 -228.9 -270.75 -234.4 -271.15 -239.0 -273.0 -240.65 -272.0 -242.4 -270.15 -245.15 -268.4 -250.0 -268.25 -250.25 -263.65 -262.25 M-226.65 -161.4 L-226.0 -158.9 -232.65 -158.9 -228.0 -160.25 -226.65 -161.4 M-245.75 -159.0 L-259.15 -159.15 -283.4 -160.15 -284.0 -161.0 -283.9 -161.4 -285.9 -165.0 -285.75 -167.5 -286.4 -169.5 Q-284.65 -170.4 -284.4 -179.9 L-285.65 -187.0 -282.15 -197.0 -280.75 -205.0 -280.9 -214.15 -276.65 -219.75 Q-285.15 -194.5 -274.65 -178.0 L-269.5 -170.5 -266.4 -167.5 -248.25 -159.5 -245.75 -159.0" fill="url(#gradient9)" fill-rule="evenodd" stroke="none"/>
    <path d="M-210.05 -285.3 L-184.5 -284.4 -182.15 -284.0 -185.65 -267.15 -185.9 -266.5 -185.25 -236.0 -191.9 -222.0 -195.4 -250.5 -218.4 -283.5 -217.75 -284.65 -216.5 -285.0 -219.5 -285.0 -219.65 -285.5 -210.05 -285.3" fill="url(#gradient10)" fill-rule="evenodd" stroke="none"/>
    <path d="M-170.65 -283.5 L-167.4 -282.25 -149.0 -269.15 -155.75 -271.75 -161.0 -273.0 -172.5 -269.75 -182.15 -284.0 -184.5 -284.4 -210.05 -285.3 -199.65 -285.15 -189.25 -284.9 -187.0 -284.9 -185.15 -284.9 -174.65 -284.65 -170.65 -283.5" fill="url(#gradient11)" fill-rule="evenodd" stroke="none"/>
    <path d="M-182.15 -284.0 L-172.5 -269.75 -185.65 -267.15 -182.15 -284.0" fill="url(#gradient12)" fill-rule="evenodd" stroke="none"/>
    <path d="M-112.25 -187.25 L-124.9 -188.65 -137.15 -195.5 -152.0 -206.25 -161.65 -210.4 -168.65 -213.65 -185.25 -236.0 -185.9 -266.5 -185.65 -267.15 -172.5 -269.75 -145.9 -257.9 -128.75 -251.0 -97.15 -235.65 -112.4 -209.5 -112.25 -187.25" fill="url(#gradient13)" fill-rule="evenodd" stroke="none"/>
    <path d="M-219.5 -285.0 L-216.5 -285.0 -217.75 -284.65 -218.4 -283.5 -219.5 -283.5 -221.15 -284.9 -219.5 -285.0" fill="url(#gradient14)" fill-rule="evenodd" stroke="none"/>
    <path d="M-161.65 -210.4 L-165.25 -162.9 -173.25 -165.0 -182.15 -166.5 -196.0 -168.15 -226.0 -158.9 -226.65 -161.4 Q-222.0 -161.4 -216.0 -166.9 L-211.0 -174.9 -210.9 -175.75 -202.15 -181.5 -196.65 -188.15 -195.4 -192.0 -194.0 -198.9 -194.9 -210.15 Q-199.75 -219.9 -201.5 -220.15 L-203.9 -226.75 -210.5 -234.4 Q-212.75 -237.4 -221.0 -239.15 L-217.0 -249.25 -219.5 -283.5 -218.4 -283.5 -195.4 -250.5 -191.9 -222.0 -178.15 -219.0 -168.65 -213.65 -161.65 -210.4" fill="url(#gradient15)" fill-rule="evenodd" stroke="none"/>
    <path d="M-149.0 -269.15 L-81.25 -240.15 -96.25 -235.75 -97.15 -235.65 -128.75 -251.0 -145.9 -257.9 -172.5 -269.75 -161.0 -273.0 -155.75 -271.75 -149.0 -269.15" fill="url(#gradient16)" fill-rule="evenodd" stroke="none"/>
    <path d="M-59.75 -184.75 L-59.9 -184.75 -60.15 -184.5 -112.25 -187.25 -112.4 -209.5 -97.15 -235.65 -96.25 -235.75 -65.5 -240.5 -22.9 -235.0 -46.5 -218.9 -41.65 -198.25 -59.75 -184.75" fill="url(#gradient17)" fill-rule="evenodd" stroke="none"/>
    <path d="M-81.25 -240.15 L-64.75 -244.4 -65.5 -240.5 -96.25 -235.75 -81.25 -240.15" fill="url(#gradient18)" fill-rule="evenodd" stroke="none"/>
    <path d="M-64.75 -244.4 L-24.4 -275.65 -0.9 -291.65 -0.9 -286.65 -14.9 -277.25 -41.5 -257.0 -65.5 -240.5 -64.75 -244.4" fill="url(#gradient19)" fill-rule="evenodd" stroke="none"/>
    <path d="M-0.9 -286.65 L-0.9 -224.65 -11.65 -218.75 -22.4 -234.9 -22.9 -235.0 -41.5 -257.0 -14.9 -277.25 -0.9 -286.65" fill="url(#gradient20)" fill-rule="evenodd" stroke="none"/>
    <path d="M-65.5 -240.5 L-41.5 -257.0 -22.9 -235.0 -65.5 -240.5" fill="url(#gradient21)" fill-rule="evenodd" stroke="none"/>
    <path d="M-271.15 -254.65 L-271.15 -254.9 -270.65 -256.15 -263.65 -262.25 -268.25 -250.25 -268.4 -250.0 -270.15 -245.15 -272.0 -242.4 -274.65 -242.0 -271.15 -254.65" fill="url(#gradient22)" fill-rule="evenodd" stroke="none"/>
    <path d="M-314.65 -189.0 L-314.65 -189.9 -310.5 -194.4 Q-307.75 -179.15 -297.15 -169.5 L-299.15 -168.65 -313.65 -180.25 -314.65 -189.0 M-276.65 -241.75 L-271.15 -254.65 -274.65 -242.0 -276.65 -241.75" fill="url(#gradient23)" fill-rule="evenodd" stroke="none"/>
    <path d="M-310.5 -194.4 Q-312.65 -213.75 -302.4 -226.25 L-295.65 -233.25 -288.9 -237.65 -279.25 -241.4 -276.65 -241.75 -274.65 -242.0 -272.0 -242.4 -273.0 -240.65 -271.15 -239.0 -270.75 -234.4 -272.15 -228.9 -273.55 -225.7 -276.65 -219.75 -280.9 -214.15 -280.75 -205.0 -282.15 -197.0 -285.65 -187.0 -284.4 -179.9 Q-284.65 -170.4 -286.4 -169.5 L-285.75 -167.5 -285.9 -165.0 -283.9 -161.4 -284.0 -161.0 Q-296.75 -167.25 -297.15 -169.5 -307.75 -179.15 -310.5 -194.4" fill="url(#gradient24)" fill-rule="evenodd" stroke="none"/>
    <path d="M-221.0 -239.15 Q-212.75 -237.4 -210.5 -234.4 L-203.9 -226.75 -201.5 -220.15 Q-199.75 -219.9 -194.9 -210.15 L-194.0 -198.9 -195.4 -192.0 -196.65 -188.15 -202.15 -181.5 -210.9 -175.75 -211.0 -174.9 -216.0 -166.9 Q-222.0 -161.4 -226.65 -161.4 L-228.0 -160.25 -232.65 -158.9 -236.9 -158.4 -241.4 -158.4 -245.75 -159.0 -248.25 -159.5 -266.4 -167.5 -269.5 -170.5 -274.65 -178.0 Q-285.15 -194.5 -276.65 -219.75 L-273.55 -225.7 Q-267.9 -237.45 -247.15 -244.65 -231.25 -248.75 -221.0 -239.15" fill="url(#gradient25)" fill-rule="evenodd" stroke="none"/>
    <path d="M-185.25 -236.0 L-168.65 -213.65 -178.15 -219.0 -191.9 -222.0 -185.25 -236.0" fill="url(#gradient26)" fill-rule="evenodd" stroke="none"/>
    <path d="M-11.65 -218.75 L-12.75 -217.9 -13.15 -217.65 -14.0 -217.0 -14.4 -216.75 -14.65 -216.65 -15.4 -216.15 -15.65 -215.9 -16.65 -215.25 -17.75 -214.4 -17.9 -214.4 -41.65 -198.25 -46.5 -218.9 -22.9 -235.0 -22.4 -234.9 -11.65 -218.75" fill="url(#gradient27)" fill-rule="evenodd" stroke="none"/>
    <path d="M-17.9 -214.4 L-59.75 -184.75 -41.65 -198.25 -17.9 -214.4" fill="url(#gradient28)" fill-rule="evenodd" stroke="none"/>
    <path d="M-165.25 -162.9 L-173.65 -107.0 -174.25 -86.15 -178.75 -44.75 -203.15 -42.65 -241.75 -41.65 -236.4 -110.75 -226.0 -158.9 -196.0 -168.15 -182.15 -166.5 -173.25 -165.0 -165.25 -162.9" fill="url(#gradient29)" fill-rule="evenodd" stroke="none"/>
    <path d="M-285.65 -51.15 L-284.25 -67.75 -284.25 -68.9 -283.9 -73.15 -282.75 -76.9 -282.65 -77.65 -282.4 -78.4 -282.4 -78.5 -279.4 -88.5 -277.15 -97.0 -275.65 -115.4 -276.5 -120.9 -276.65 -121.25 -277.4 -125.65 -277.65 -126.15 -280.9 -144.75 -280.9 -145.4 -283.4 -160.15 -259.15 -159.15 -245.75 -159.0 -241.4 -158.4 -236.9 -158.4 -232.65 -158.9 -226.0 -158.9 -236.4 -110.75 -241.75 -41.65 -262.65 -43.5 -285.65 -51.15" fill="url(#gradient30)" fill-rule="evenodd" stroke="none"/>
    <path d="M-283.4 -160.15 L-280.9 -145.4 -280.9 -144.75 -282.9 -135.65 -283.15 -135.9 -283.25 -136.4 -299.0 -168.15 -299.15 -168.65 -297.15 -169.5 Q-296.75 -167.25 -284.0 -161.0 L-283.4 -160.15" fill="url(#gradient31)" fill-rule="evenodd" stroke="none"/>
    <path d="M-313.25 -139.0 L-319.25 -154.5 -320.75 -165.15 -320.15 -172.65 -314.65 -189.0 -313.65 -180.25 -299.15 -168.65 -299.0 -168.15 -298.4 -153.65 -296.4 -144.15 -312.15 -142.75 -313.25 -139.0" fill="url(#gradient32)" fill-rule="evenodd" stroke="none"/>
    <path d="M-292.75 -86.75 L-296.25 -94.15 -303.4 -112.4 -308.4 -127.15 -313.25 -139.0 -312.15 -142.75 -296.4 -144.15 -294.9 -121.0 -289.75 -109.15 -287.4 -99.65 -281.4 -88.9 -285.75 -86.65 Q-285.5 -88.15 -290.75 -90.15 L-292.75 -86.75" fill="url(#gradient33)" fill-rule="evenodd" stroke="none"/>
    <path d="M-283.25 -136.4 L-283.15 -135.9 -296.4 -144.15 -298.4 -153.65 -283.25 -136.4" fill="url(#gradient34)" fill-rule="evenodd" stroke="none"/>
    <path d="M-298.4 -153.65 L-299.0 -168.15 -283.25 -136.4 -298.4 -153.65" fill="url(#gradient35)" fill-rule="evenodd" stroke="none"/>
    <path d="M-277.65 -126.15 L-277.4 -125.65 -276.65 -121.25 -276.5 -120.9 -275.65 -115.4 -277.15 -97.0 -279.4 -88.5 -281.4 -88.9 -287.4 -99.65 -289.75 -109.15 -294.9 -121.0 -296.4 -144.15 -283.15 -135.9 -282.9 -135.65 -277.65 -126.15" fill="url(#gradient36)" fill-rule="evenodd" stroke="none"/>
    <path d="M-174.25 -0.9 L-236.5 -0.9 -241.75 -41.65 -203.15 -42.65 -178.75 -44.75 -174.0 -3.15 -174.25 -0.9" fill="url(#gradient37)" fill-rule="evenodd" stroke="none"/>
    <path d="M-284.25 -67.75 L-288.25 -69.65 -292.15 -73.9 Q-295.4 -77.75 -292.75 -86.75 L-290.75 -90.15 Q-285.5 -88.15 -285.75 -86.65 L-281.4 -88.9 -279.4 -88.5 -282.4 -78.5 -282.4 -78.4 -282.65 -77.65 -282.75 -76.9 -283.9 -73.15 -284.25 -68.9 -284.25 -67.75" fill="url(#gradient38)" fill-rule="evenodd" stroke="none"/>
    <path d="M-236.5 -0.9 L-296.65 -0.9 -287.25 -32.0 -285.65 -51.15 -262.65 -43.5 -241.75 -41.65 -236.5 -0.9" fill="url(#gradient39)" fill-rule="evenodd" stroke="none"/>
    <path d="M-178.75 -44.75 L-165.5 -11.65 -164.25 -1.5 -164.25 -0.9 -174.25 -0.9 -174.0 -3.15 -178.75 -44.75" fill="url(#gradient40)" fill-rule="evenodd" stroke="none"/>
    <path d="M-187.0 -284.9 L-188.0 -284.9 -189.65 -286.75 -190.0 -287.0 -190.25 -287.0 -190.65 -287.4 -192.9 -288.15 -193.4 -288.5 -196.65 -289.75 -197.15 -290.0 -197.25 -290.25 -206.9 -294.4 -207.65 -294.5 -207.65 -294.65 -209.25 -294.75 -209.5 -294.9 -210.5 -295.0 -210.9 -294.9 -216.9 -295.75 -215.0 -298.25 -215.0 -298.4 -214.4 -298.4 -213.25 -298.15 -212.75 -298.15 -212.5 -298.0 -206.0 -296.75 -199.4 -294.9 -194.25 -292.5 -193.5 -292.25 -193.5 -292.15 -193.15 -292.15 -192.75 -291.75 -192.4 -291.75 -187.9 -289.5 -187.5 -289.5 -184.75 -288.15 -183.4 -286.75 -183.25 -286.5 -182.65 -286.0 -182.4 -285.0 -182.25 -284.75 -185.15 -284.9 -185.0 -285.25 -187.0 -284.9 M-221.5 -296.65 L-219.75 -296.15 -219.15 -296.15 -216.9 -295.75 -219.0 -293.0 -219.4 -292.75 -221.5 -290.0 -222.4 -286.25 -222.4 -286.0 -226.65 -269.25 -226.65 -268.65 -227.9 -264.25 -246.0 -244.9 -246.25 -244.75 -246.9 -243.9 -247.25 -243.65 -248.4 -242.5 -249.0 -241.65 -249.5 -241.25 -253.9 -236.5 -252.15 -235.5 -228.75 -225.15 -249.0 -220.5 -250.15 -220.15 -266.75 -216.4 -265.65 -219.15 -265.75 -219.4 -265.4 -219.9 -263.9 -224.15 -263.65 -224.25 -262.4 -227.65 -262.25 -227.9 -260.15 -233.65 -259.75 -234.0 -255.25 -239.15 -254.9 -239.4 -252.5 -242.15 -252.4 -242.4 -251.5 -243.0 -243.65 -251.75 -243.4 -252.4 -233.25 -263.25 -229.9 -275.5 -230.0 -276.15 -226.9 -287.65 -224.9 -291.4 -224.65 -291.65 -224.5 -292.0 -223.0 -294.65 -221.5 -296.65 M-241.25 -0.9 L-278.4 -0.9 -279.0 -1.0 -296.65 -0.9 -293.15 -12.5 -293.15 -13.0 -287.25 -32.0 -286.65 -39.9 -269.4 -33.65 -263.5 -33.15 -263.0 -33.0 -245.5 -31.5 -242.15 -8.65 -241.9 -4.5 -241.25 -0.9 M-308.75 -214.5 L-308.9 -213.4 -309.15 -213.0 -309.15 -212.75 -309.5 -212.25 -309.4 -212.65 -308.75 -214.5" fill="#9b0000" fill-opacity="0.9098039" fill-rule="evenodd" stroke="none"/>
    <path d="M-215.0 -298.4 L-215.0 -298.25 -216.9 -295.75 -219.15 -296.15 -219.75 -296.15 -221.5 -296.65 -220.75 -296.75 -219.65 -297.15 -219.5 -297.15 -219.5 -297.25 -218.65 -297.4 -218.5 -297.5 -215.4 -298.4 -215.0 -298.4" fill="#a90000" fill-rule="evenodd" stroke="none"/>
    <path d="M-266.75 -216.4 L-250.15 -220.15 -249.0 -220.5 -228.75 -225.15 -229.25 -220.25 -229.4 -220.0 -229.25 -219.5 -230.25 -210.9 -230.4 -210.65 -232.0 -195.0 -231.0 -183.0 -231.15 -182.75 -229.75 -169.4 -229.9 -168.75 -229.9 -168.0 -229.25 -163.5 -229.25 -162.25 -229.0 -160.15 -259.4 -161.4 -259.65 -161.5 -284.75 -161.4 -285.15 -161.4 -287.5 -162.4 -287.9 -162.9 -292.9 -165.75 -294.65 -167.0 -300.0 -172.15 -305.15 -179.25 -305.25 -179.9 -305.5 -179.9 -305.5 -180.25 -308.9 -187.5 -309.0 -187.5 -308.9 -188.0 -310.5 -194.4 -310.65 -196.0 -310.75 -198.65 -306.5 -194.65 -305.25 -193.75 -305.15 -193.25 -301.9 -190.4 -301.9 -190.25 -296.5 -185.25 -296.65 -185.0 -292.0 -181.0 -291.65 -180.25 -291.25 -180.0 -285.65 -174.9 -284.9 -176.0 -284.5 -176.9 -284.25 -177.15 -278.9 -185.0 -278.9 -185.5 -278.4 -186.0 -278.4 -186.25 -277.9 -186.75 -273.65 -193.15 -273.5 -193.65 -271.4 -196.65 -271.15 -196.75 -270.65 -198.9 -270.75 -199.15 -270.5 -199.5 -268.25 -210.0 -268.15 -210.25 -266.75 -216.4 M-259.15 -187.25 L-260.5 -188.5 -260.9 -187.25 -260.75 -187.0 -260.9 -186.75 -260.25 -186.25 -259.75 -184.9 -259.65 -184.9 -259.4 -185.4 -259.0 -186.5 -259.15 -187.25" fill="#a70000" fill-opacity="0.9098039" fill-rule="evenodd" stroke="none"/>
    <path d="M-187.0 -284.9 L-185.0 -285.25 -185.15 -284.9 -187.0 -284.9 M-307.75 -225.4 L-307.5 -227.4 -280.0 -253.65 -273.25 -276.15 -261.4 -286.15 -259.4 -285.9 -257.75 -287.5 -245.4 -286.65 -245.0 -286.65 -245.0 -286.5 -246.65 -285.65 -246.9 -285.65 -247.15 -285.5 -248.15 -285.25 -259.4 -285.9 -269.15 -277.15 -269.25 -276.65 -275.9 -254.65 -303.15 -228.4 -305.5 -221.65 -306.15 -220.5 -308.15 -215.65 -308.4 -215.75 -307.65 -224.75 -307.75 -225.4" fill="#ab0000" fill-opacity="0.9098039" fill-rule="evenodd" stroke="none"/>
    <path d="M-261.4 -286.15 L-257.75 -287.5 -259.4 -285.9 -261.4 -286.15" fill="#ab0000" fill-rule="evenodd" stroke="none"/>
    <path d="M-299.0 -0.9 L-300.0 -0.9 -298.25 -21.0 -298.25 -22.0 -298.25 -22.25 -298.15 -22.5 -298.15 -23.25 -297.75 -23.9 -292.0 -41.75 -291.5 -41.75 -291.4 -41.5 -299.0 -0.9 M-312.65 -203.9 L-307.75 -225.4 -307.65 -224.75 -308.4 -215.75 -308.75 -214.5 -309.4 -212.65 -309.5 -212.25 -310.9 -208.15 -312.65 -203.9" fill="#ad0000" fill-rule="evenodd" stroke="none"/>
    <path d="M-313.15 -201.0 L-313.4 -201.25 -313.15 -202.4 -313.0 -202.5 -312.9 -202.9 -312.75 -203.25 -312.65 -203.9 -310.9 -208.15 -309.9 -210.15 -309.75 -209.9 -310.65 -204.9 -310.9 -204.4 -310.9 -199.0 -313.15 -201.0" fill="#e30000" fill-opacity="0.9098039" fill-rule="evenodd" stroke="none"/>
    <path d="M-296.65 -0.9 L-299.0 -0.9 -291.4 -41.5 -286.75 -40.0 -286.65 -39.9 -287.25 -32.0 -293.15 -13.0 -293.15 -12.5 -296.65 -0.9 M-309.5 -212.25 L-309.9 -210.15 -310.9 -208.15 -309.5 -212.25" fill="#b00000" fill-rule="evenodd" stroke="none"/>
    <path d="M-308.15 -215.65 L-308.75 -214.5 -308.4 -215.75 -308.15 -215.65" fill="#b10000" fill-rule="evenodd" stroke="none"/>
    <path d="M-229.0 -160.15 L-229.25 -162.25 -229.25 -163.5 -229.9 -168.0 -229.9 -168.75 -229.75 -169.4 -231.15 -182.75 -231.0 -183.0 -232.0 -195.0 -230.4 -210.65 -230.25 -210.9 -229.25 -219.5 -229.4 -220.0 -229.25 -220.25 -228.75 -225.15 -224.25 -222.65 -223.75 -222.5 -223.65 -222.25 -201.9 -210.15 -201.15 -209.9 -194.5 -206.0 -193.15 -205.4 -193.0 -205.15 -187.0 -202.0 -182.5 -198.5 -182.15 -197.9 -179.9 -196.25 -179.75 -196.0 -174.0 -191.25 -173.65 -191.0 -171.0 -188.65 -170.65 -188.5 -170.4 -188.15 -163.75 -182.5 -164.9 -167.75 -166.25 -168.15 -183.75 -170.75 -184.0 -170.9 -188.75 -171.4 -226.4 -160.75 -227.65 -160.5 -228.15 -160.25 -229.0 -160.15" fill="#da0000" fill-opacity="0.9098039" fill-rule="evenodd" stroke="none"/>
    <path d="M-163.75 -182.5 L-162.65 -181.75 -155.65 -171.75 -155.5 -165.25 -155.65 -165.0 -162.75 -167.5 -164.9 -167.75 -163.75 -182.5" fill="#f00000" fill-opacity="0.9098039" fill-rule="evenodd" stroke="none"/>
    <path d="M-229.0 -160.15 L-228.15 -160.25 -227.65 -160.5 -226.4 -160.75 -188.75 -171.4 -184.0 -170.9 -183.75 -170.75 -166.25 -168.15 -164.9 -167.75 -165.25 -163.9 -165.25 -162.9 -165.9 -157.9 -173.5 -109.15 -174.4 -87.25 -174.25 -86.75 -176.5 -65.4 -176.4 -65.0 -178.9 -45.5 -178.9 -45.0 -178.5 -43.9 -177.75 -42.75 -175.15 -35.65 -176.9 -35.4 -177.75 -35.4 -185.4 -34.25 -186.0 -34.25 -186.5 -34.15 -187.15 -34.15 -196.0 -33.15 -196.5 -33.15 -197.15 -33.0 -198.25 -33.0 -198.4 -32.9 -214.15 -32.25 -214.4 -32.15 -245.5 -31.5 -243.65 -43.9 -243.65 -44.25 -241.65 -56.4 -241.0 -64.75 -240.75 -66.0 -241.0 -66.9 -239.25 -87.9 -239.0 -89.15 -239.15 -89.75 -237.15 -110.75 -236.9 -111.65 -237.0 -112.5 -229.0 -160.0 -229.0 -160.15" fill="#dd0000" fill-opacity="0.9098039" fill-rule="evenodd" stroke="none"/>
    <path d="M-311.0 -198.9 L-310.75 -198.65 -310.65 -196.0 -310.5 -194.4 -311.9 -193.15 -311.0 -198.9" fill="#bd0000" fill-rule="evenodd" stroke="none"/>
    <path d="M-311.65 -186.15 L-312.75 -187.5 -312.75 -188.4 -312.4 -189.9 -312.5 -190.65 -312.25 -190.9 -312.15 -192.5 -313.0 -191.9 -313.15 -201.0 -310.9 -199.0 -311.0 -198.9 -311.9 -193.15 -310.5 -194.4 -308.9 -188.0 -309.0 -187.5 -308.9 -187.5 -305.5 -180.25 -305.5 -179.9 -311.65 -186.15 M-292.9 -165.75 L-287.9 -162.9 -287.5 -162.4 -285.15 -161.4 -288.15 -161.65 -289.4 -161.9 -289.65 -162.0 -292.9 -165.75" fill="#bb0000" fill-rule="evenodd" stroke="none"/>
    <path d="M-312.75 -188.4 L-312.9 -191.4 -313.0 -191.5 -313.0 -191.9 -312.15 -192.5 -312.25 -190.9 -312.5 -190.65 -312.4 -189.9 -312.75 -188.4" fill="#b90000" fill-rule="evenodd" stroke="none"/>
    <path d="M-295.25 -162.65 L-299.0 -167.65 -299.0 -168.0 -299.15 -168.25 -299.25 -168.65 -299.65 -168.9 -306.75 -179.15 -307.0 -179.25 -311.65 -186.15 -305.5 -179.9 -305.15 -179.25 -300.0 -172.15 -294.65 -167.0 -292.9 -165.75 -289.65 -162.0 -290.25 -162.0 -290.5 -162.15 -294.4 -162.5 -295.25 -162.65" fill="#bc0000" fill-rule="evenodd" stroke="none"/>
    <path d="M-286.75 -118.4 L-287.0 -119.0 -290.5 -137.5 -290.65 -137.65 -291.15 -140.75 -291.15 -140.9 -291.25 -141.15 -292.25 -146.5 -292.25 -146.75 -292.4 -147.15 -294.9 -160.15 -294.9 -160.25 -295.15 -160.9 -295.25 -162.65 -294.4 -162.5 -289.5 -161.4 -288.9 -161.15 -288.75 -160.75 -288.15 -146.65 -288.0 -146.25 -287.9 -141.65 -287.75 -141.5 -287.25 -133.75 -286.65 -121.15 -286.5 -120.65 -286.75 -119.0 -286.75 -118.4" fill="#b50000" fill-rule="evenodd" stroke="none"/>
    <path d="M-296.4 -43.4 L-295.5 -65.9 -295.25 -68.15 -293.0 -75.65 -292.15 -74.15 -290.15 -71.5 -289.75 -72.0 -290.0 -72.65 -289.75 -73.5 -289.65 -75.25 -289.5 -76.15 -289.65 -76.65 -289.5 -76.9 -289.25 -79.25 -289.5 -79.65 -289.25 -80.0 -289.25 -80.75 -289.0 -82.4 -289.15 -82.65 -289.0 -82.9 -288.9 -85.25 -288.75 -85.5 -288.5 -91.65 -288.5 -91.75 -288.4 -92.15 -288.15 -94.25 -288.25 -94.5 -287.75 -99.5 -287.65 -99.75 -287.5 -100.0 -287.65 -101.75 -287.0 -107.75 -287.0 -108.65 -286.4 -115.15 -286.25 -115.65 -286.4 -115.75 -286.5 -116.4 -286.75 -118.25 -286.75 -118.4 -286.75 -119.0 -286.5 -120.65 -286.65 -121.15 -287.25 -133.75 -287.75 -141.5 -287.9 -141.65 -288.0 -146.25 -288.15 -146.65 -288.75 -160.75 -288.9 -161.15 -289.4 -161.9 -288.15 -161.65 -285.15 -161.4 -284.75 -161.4 -284.0 -161.0 -283.75 -160.9 -283.4 -160.15 -282.9 -156.5 -282.75 -156.4 -280.9 -145.4 -280.9 -144.75 -282.9 -135.65 -277.65 -126.15 -277.4 -125.65 -276.75 -121.25 -276.5 -120.9 -275.65 -115.9 -275.75 -115.65 -275.65 -115.4 -277.5 -95.15 -277.5 -94.9 -277.75 -94.25 -279.25 -88.75 -279.4 -88.5 -279.5 -88.0 -279.5 -87.9 -279.65 -87.5 -279.75 -87.0 -280.0 -86.4 -280.15 -86.25 -280.0 -86.15 -280.15 -85.9 -280.25 -85.65 -280.25 -85.25 -280.4 -84.9 -280.5 -84.4 -280.65 -84.0 -280.75 -83.9 -281.0 -83.15 -281.0 -82.75 -282.0 -80.0 -281.9 -80.0 -281.9 -79.9 -282.4 -78.65 -282.4 -78.4 -282.9 -77.0 -282.9 -76.9 -283.9 -72.75 -284.0 -72.15 -284.0 -71.25 -284.4 -68.9 -284.25 -68.9 -284.25 -67.75 -285.9 -68.4 -286.25 -68.65 -286.5 -68.75 -287.15 -69.15 -287.4 -69.25 -290.0 -71.15 -290.4 -47.15 -290.5 -46.9 -296.4 -43.4" fill="#b60000" fill-rule="evenodd" stroke="none"/>
    <path d="M-286.0 -48.65 L-285.9 -48.65 -286.75 -40.0 -291.4 -41.5 -291.5 -41.75 -290.9 -45.25 -290.9 -45.4 -290.75 -45.65 -290.75 -46.0 -290.5 -46.9 -290.4 -47.15 -286.0 -48.65 M-289.4 -161.9 L-288.9 -161.15 -289.5 -161.4 -294.4 -162.5 -290.5 -162.15 -290.25 -162.0 -289.65 -162.0 -289.4 -161.9" fill="#b70000" fill-rule="evenodd" stroke="none"/>
    <path d="M-155.65 -165.0 L-155.75 -164.75 -165.9 -157.9 -165.25 -162.9 -165.25 -163.9 -164.9 -167.75 -162.75 -167.5 -155.65 -165.0" fill="#f40000" fill-opacity="0.9098039" fill-rule="evenodd" stroke="none"/>
    <path d="M-155.75 -164.75 L-155.65 -164.15 -164.25 -105.25 -165.0 -81.75 -167.65 -56.15 -172.9 -36.0 -177.75 -42.75 -178.5 -43.9 -178.9 -45.0 -178.9 -45.5 -176.4 -65.0 -176.5 -65.4 -174.25 -86.75 -174.4 -87.25 -173.5 -109.15 -165.9 -157.9 -155.75 -164.75" fill="#ee0000" fill-rule="evenodd" stroke="none"/>
    <path d="M-229.0 -160.15 L-229.0 -160.0 -237.0 -112.5 -236.9 -111.65 -237.15 -110.75 -239.15 -89.75 -239.0 -89.15 -239.25 -87.9 -241.0 -66.9 -240.75 -66.0 -241.0 -64.75 -241.65 -56.4 -243.65 -44.25 -243.65 -43.9 -245.5 -31.5 -263.0 -33.0 -263.5 -33.15 -269.4 -33.65 -286.65 -39.9 -286.75 -40.0 -285.9 -48.65 -286.0 -48.65 -285.65 -50.5 -285.65 -51.15 -284.25 -67.75 -284.25 -68.9 -284.4 -68.9 -284.0 -71.25 -284.0 -72.15 -283.9 -72.75 -282.9 -76.9 -282.9 -77.0 -282.4 -78.4 -282.4 -78.65 -281.9 -79.9 -281.9 -80.0 -282.0 -80.0 -281.0 -82.75 -281.0 -83.15 -280.75 -83.9 -280.65 -84.0 -280.5 -84.4 -280.4 -84.9 -280.25 -85.25 -280.25 -85.65 -280.15 -85.9 -280.0 -86.15 -280.15 -86.25 -280.0 -86.4 -279.75 -87.0 -279.65 -87.5 -279.5 -87.9 -279.5 -88.0 -279.4 -88.5 -279.25 -88.75 -277.75 -94.25 -277.5 -94.9 -277.5 -95.15 -275.65 -115.4 -275.75 -115.65 -275.65 -115.9 -276.5 -120.9 -276.75 -121.25 -277.4 -125.65 -277.65 -126.15 -280.9 -144.75 -280.9 -145.4 -282.75 -156.4 -282.9 -156.5 -283.4 -160.15 -283.75 -160.9 -284.0 -161.0 -284.75 -161.4 -259.65 -161.5 -259.4 -161.4 -229.0 -160.15" fill="#a20000" fill-opacity="0.9098039" fill-rule="evenodd" stroke="none"/>
    <path d="M-168.25 -0.9 L-241.25 -0.9 -241.9 -4.5 -242.15 -8.65 -245.5 -31.5 -214.4 -32.15 -214.15 -32.25 -198.4 -32.9 -198.25 -33.0 -197.15 -33.0 -196.5 -33.15 -196.0 -33.15 -187.15 -34.15 -186.5 -34.15 -186.0 -34.25 -185.4 -34.25 -177.75 -35.4 -176.9 -35.4 -175.15 -35.65 -171.9 -28.0 -171.4 -26.0 -169.25 -8.25 -169.0 -7.0 -169.15 -6.4 -168.25 -0.9" fill="#d80000" fill-opacity="0.9098039" fill-rule="evenodd" stroke="none"/>
    <path d="M-175.15 -35.65 L-177.75 -42.75 -172.9 -36.0 -175.15 -35.65" fill="#f00000" fill-rule="evenodd" stroke="none"/>
    <path d="M-280.9 -144.75 L-277.65 -126.15 -282.9 -135.65 -280.9 -144.75 M-284.25 -67.75 L-285.65 -51.15 -285.65 -50.5 -286.0 -48.65 -290.4 -47.15 -290.0 -71.15 -287.4 -69.25 -287.15 -69.15 -286.5 -68.75 -286.25 -68.65 -285.9 -68.4 -284.25 -67.75" fill="#b80000" fill-rule="evenodd" stroke="none"/>
    <path d="M-286.4 -115.15 L-286.4 -115.75 -286.5 -115.9 -286.65 -116.0 -286.5 -116.4 -286.4 -115.75 -286.25 -115.65 -286.4 -115.15" fill="#de0000" fill-rule="evenodd" stroke="none"/>
    <path d="M-293.0 -75.65 L-293.0 -76.15 -292.9 -76.25 -293.0 -76.25 -292.9 -76.75 -292.65 -77.25 -292.65 -77.4 -292.25 -78.5 -292.25 -78.65 -292.0 -79.65 -291.9 -80.4 -291.5 -81.15 -291.5 -81.4 -291.4 -81.65 -290.65 -84.5 -290.5 -84.75 -289.9 -86.75 -289.9 -86.9 -289.75 -87.4 -289.65 -88.15 -289.4 -88.9 -289.25 -89.15 -289.4 -89.25 -289.4 -89.4 -289.25 -89.75 -288.5 -91.65 -288.75 -85.5 -288.9 -85.25 -289.0 -82.9 -289.15 -82.65 -289.0 -82.4 -289.25 -80.75 -289.25 -80.0 -289.5 -79.65 -289.25 -79.25 -289.5 -76.9 -289.65 -76.65 -289.5 -76.15 -289.65 -75.25 -289.75 -73.5 -290.0 -72.65 -289.75 -72.0 -290.15 -71.5 -292.15 -74.15 -293.0 -75.65 M-291.5 -41.75 L-292.0 -41.75 -296.4 -43.4 -290.5 -46.9 -290.75 -46.0 -290.75 -45.65 -290.9 -45.4 -290.9 -45.25 -291.5 -41.75" fill="#b40000" fill-rule="evenodd" stroke="none"/>
    <path d="M-293.0 -76.15 L-293.0 -76.25 -292.9 -76.25 -293.0 -76.15 M-289.4 -89.4 L-289.4 -89.5 -289.25 -89.75 -289.4 -89.4" fill="#d40000" fill-rule="evenodd" stroke="none"/>
    <path d="M-298.15 -23.25 L-296.4 -43.4 -292.0 -41.75 -297.75 -23.9 -298.15 -23.25" fill="#ac0000" fill-rule="evenodd" stroke="none"/>
    <path d="M-172.9 -36.0 L-172.5 -35.0 -171.9 -28.0 -175.15 -35.65 -172.9 -36.0" fill="#eb0000" fill-rule="evenodd" stroke="none"/>
    <path d="M-172.5 -35.0 L-158.15 -0.9 -164.25 -0.9 -165.75 -11.75 -171.4 -26.0 -171.9 -28.0 -172.5 -35.0" fill="#fa0000" fill-rule="evenodd" stroke="none"/>
    <path d="M-164.25 -0.9 L-168.25 -0.9 -169.15 -6.4 -169.0 -7.0 -169.25 -8.25 -171.4 -26.0 -165.75 -11.75 -164.25 -0.9" fill="#e80000" fill-opacity="0.9098039" fill-rule="evenodd" stroke="none"/>
    <path d="M-298.4 -21.65 L-298.25 -22.0 -298.25 -21.0 -298.4 -21.65" fill="#be0000" fill-rule="evenodd" stroke="none"/>
    <path d="M-300.0 -0.9 L-305.0 -0.9 -298.4 -21.65 -298.25 -21.0 -300.0 -0.9" fill="#e50000" fill-rule="evenodd" stroke="none"/>
  </g>
  <defs>
    <radialGradient cx="0" cy="0" gradientTransform="matrix(0.0786, 0.0, 0.0, 0.0786, -226.75, -300.0)" gradientUnits="userSpaceOnUse" id="gradient0" r="819.2" spreadMethod="pad">
      <stop offset="0.0" stop-color="#0f0f0f"/>
      <stop offset="1.0" stop-color="#000000"/>
    </radialGradient>
    <radialGradient cx="0" cy="0" gradientTransform="matrix(0.1531, 0.0, 0.0, 0.1531, -258.25, -300.0)" gradientUnits="userSpaceOnUse" id="gradient1" r="819.2" spreadMethod="pad">
      <stop offset="0.0" stop-color="#171717"/>
      <stop offset="1.0" stop-color="#080808"/>
    </radialGradient>
    <radialGradient cx="0" cy="0" gradientTransform="matrix(0.3199, 0.0, 0.0, 0.3199, -193.15, -292.35)" gradientUnits="userSpaceOnUse" id="gradient2" r="819.2" spreadMethod="pad">
      <stop offset="0.0" stop-color="#7b7b7b"/>
      <stop offset="1.0" stop-color="#060606"/>
    </radialGradient>
    <radialGradient cx="0" cy="0" gradientTransform="matrix(0.3252, 0.0, 0.0, 0.3252, -193.2, -296.75)" gradientUnits="userSpaceOnUse" id="gradient3" r="819.2" spreadMethod="pad">
      <stop offset="0.0" stop-color="#101010"/>
      <stop offset="1.0" stop-color="#000000"/>
    </radialGradient>
    <radialGradient cx="0" cy="0" gradientTransform="matrix(0.0109, 0.0, 0.0, 0.0109, -214.35, -300.0)" gradientUnits="userSpaceOnUse" id="gradient4" r="819.2" spreadMethod="pad">
      <stop offset="0.0" stop-color="#373737"/>
      <stop offset="1.0" stop-color="#000000"/>
    </radialGradient>
    <radialGradient cx="0" cy="0" gradientTransform="matrix(0.0335, 0.0, 0.0, 0.0335, -232.65, -296.4)" gradientUnits="userSpaceOnUse" id="gradient5" r="819.2" spreadMethod="pad">
      <stop offset="0.0" stop-color="#181818"/>
      <stop offset="1.0" stop-color="#000000"/>
    </radialGradient>
    <radialGradient cx="0" cy="0" gradientTransform="matrix(0.0187, 0.0, 0.0, 0.0187, -147.15, -300.0)" gradientUnits="userSpaceOnUse" id="gradient6" r="819.2" spreadMethod="pad">
      <stop offset="0.0" stop-color="#090909"/>
      <stop offset="1.0" stop-color="#080808"/>
    </radialGradient>
    <radialGradient cx="0" cy="0" gradientTransform="matrix(0.0172, 0.0, 0.0, 0.0172, -144.0, -290.15)" gradientUnits="userSpaceOnUse" id="gradient7" r="819.2" spreadMethod="pad">
      <stop offset="0.0" stop-color="#080808"/>
      <stop offset="1.0" stop-color="#080808"/>
    </radialGradient>
    <radialGradient cx="0" cy="0" gradientTransform="matrix(0.0504, 0.0, 0.0, 0.0504, -211.25, -288.55)" gradientUnits="userSpaceOnUse" id="gradient8" r="819.2" spreadMethod="pad">
      <stop offset="0.0" stop-color="#000000"/>
      <stop offset="1.0" stop-color="#000000"/>
    </radialGradient>
    <radialGradient cx="0" cy="0" gradientTransform="matrix(0.1717, 0.0, 0.0, 0.1717, -283.35, -160.2)" gradientUnits="userSpaceOnUse" id="gradient9" r="819.2" spreadMethod="pad">
      <stop offset="0.0" stop-color="#6a6a6a"/>
      <stop offset="1.0" stop-color="#000000"/>
    </radialGradient>
    <radialGradient cx="0" cy="0" gradientTransform="matrix(0.0736, 0.0, 0.0, 0.0736, -185.15, -236.2)" gradientUnits="userSpaceOnUse" id="gradient10" r="819.2" spreadMethod="pad">
      <stop offset="0.0" stop-color="#595959"/>
      <stop offset="1.0" stop-color="#000000"/>
    </radialGradient>
    <radialGradient cx="0" cy="0" gradientTransform="matrix(0.105, 0.0, 0.0, 0.105, -137.3, -260.95)" gradientUnits="userSpaceOnUse" id="gradient11" r="819.2" spreadMethod="pad">
      <stop offset="0.0" stop-color="#585858"/>
      <stop offset="1.0" stop-color="#000000"/>
    </radialGradient>
    <radialGradient cx="0" cy="0" gradientTransform="matrix(0.0215, 0.0, 0.0, 0.0215, -185.7, -267.1)" gradientUnits="userSpaceOnUse" id="gradient12" r="819.2" spreadMethod="pad">
      <stop offset="0.0" stop-color="#000000"/>
      <stop offset="1.0" stop-color="#000000"/>
    </radialGradient>
    <radialGradient cx="0" cy="0" gradientTransform="matrix(0.0911, 0.0, 0.0, 0.0911, -171.65, -232.25)" gradientUnits="userSpaceOnUse" id="gradient13" r="819.2" spreadMethod="pad">
      <stop offset="0.0" stop-color="#616161"/>
      <stop offset="1.0" stop-color="#000000"/>
    </radialGradient>
    <radialGradient cx="0" cy="0" gradientTransform="matrix(0.1114, 0.0, 0.0, 0.1114, -232.3, -285.1)" gradientUnits="userSpaceOnUse" id="gradient14" r="819.2" spreadMethod="pad">
      <stop offset="0.0" stop-color="#000000"/>
      <stop offset="1.0" stop-color="#000000"/>
    </radialGradient>
    <radialGradient cx="0" cy="0" gradientTransform="matrix(0.1231, 0.0, 0.0, 0.1231, -180.15, -192.85)" gradientUnits="userSpaceOnUse" id="gradient15" r="819.2" spreadMethod="pad">
      <stop offset="0.0" stop-color="#3f3f3f"/>
      <stop offset="1.0" stop-color="#060606"/>
    </radialGradient>
    <radialGradient cx="0" cy="0" gradientTransform="matrix(0.0906, 0.0, 0.0, 0.0906, -147.4, -258.7)" gradientUnits="userSpaceOnUse" id="gradient16" r="819.2" spreadMethod="pad">
      <stop offset="0.0" stop-color="#000000"/>
      <stop offset="1.0" stop-color="#000000"/>
    </radialGradient>
    <radialGradient cx="0" cy="0" gradientTransform="matrix(0.0875, 0.0, 0.0, 0.0875, -41.45, -198.35)" gradientUnits="userSpaceOnUse" id="gradient17" r="819.2" spreadMethod="pad">
      <stop offset="0.0" stop-color="#161616"/>
      <stop offset="1.0" stop-color="#000000"/>
    </radialGradient>
    <radialGradient cx="0" cy="0" gradientTransform="matrix(0.0412, 0.0, 0.0, 0.0412, -97.1, -235.7)" gradientUnits="userSpaceOnUse" id="gradient18" r="819.2" spreadMethod="pad">
      <stop offset="0.0" stop-color="#000000"/>
      <stop offset="1.0" stop-color="#000000"/>
    </radialGradient>
    <radialGradient cx="0" cy="0" gradientTransform="matrix(0.0649, 0.0, 0.0, 0.0649, -41.45, -257.15)" gradientUnits="userSpaceOnUse" id="gradient19" r="819.2" spreadMethod="pad">
      <stop offset="0.0" stop-color="#000000"/>
      <stop offset="1.0" stop-color="#000000"/>
    </radialGradient>
    <radialGradient cx="0" cy="0" gradientTransform="matrix(0.0632, 0.0, 0.0, 0.0632, -41.45, -257.15)" gradientUnits="userSpaceOnUse" id="gradient20" r="819.2" spreadMethod="pad">
      <stop offset="0.0" stop-color="#000000"/>
      <stop offset="1.0" stop-color="#000000"/>
    </radialGradient>
    <radialGradient cx="0" cy="0" gradientTransform="matrix(0.0356, 0.0, 0.0, 0.0356, -41.45, -257.15)" gradientUnits="userSpaceOnUse" id="gradient21" r="819.2" spreadMethod="pad">
      <stop offset="0.0" stop-color="#000000"/>
      <stop offset="1.0" stop-color="#000000"/>
    </radialGradient>
    <radialGradient cx="0" cy="0" gradientTransform="matrix(0.0577, 0.0, 0.0, 0.0577, -259.7, -217.35)" gradientUnits="userSpaceOnUse" id="gradient22" r="819.2" spreadMethod="pad">
      <stop offset="0.0" stop-color="#171717"/>
      <stop offset="1.0" stop-color="#000000"/>
    </radialGradient>
    <radialGradient cx="0" cy="0" gradientTransform="matrix(0.1024, 0.0, 0.0, 0.1024, -301.35, -178.3)" gradientUnits="userSpaceOnUse" id="gradient23" r="819.2" spreadMethod="pad">
      <stop offset="0.0" stop-color="#414141"/>
      <stop offset="1.0" stop-color="#000000"/>
    </radialGradient>
    <radialGradient cx="0" cy="0" gradientTransform="matrix(0.0925, 0.0, 0.0, 0.0925, -296.85, -173.15)" gradientUnits="userSpaceOnUse" id="gradient24" r="819.2" spreadMethod="pad">
      <stop offset="0.0" stop-color="#858585"/>
      <stop offset="1.0" stop-color="#000000"/>
    </radialGradient>
    <radialGradient cx="0" cy="0" gradientTransform="matrix(0.1059, 0.0, 0.0, 0.1059, -264.8, -170.95)" gradientUnits="userSpaceOnUse" id="gradient25" r="819.2" spreadMethod="pad">
      <stop offset="0.0" stop-color="#878787"/>
      <stop offset="1.0" stop-color="#000000"/>
    </radialGradient>
    <radialGradient cx="0" cy="0" gradientTransform="matrix(0.0346, 0.0, 0.0, 0.0346, -185.15, -236.2)" gradientUnits="userSpaceOnUse" id="gradient26" r="819.2" spreadMethod="pad">
      <stop offset="0.0" stop-color="#595959"/>
      <stop offset="1.0" stop-color="#000000"/>
    </radialGradient>
    <radialGradient cx="0" cy="0" gradientTransform="matrix(0.0504, 0.0, 0.0, 0.0504, -41.45, -198.35)" gradientUnits="userSpaceOnUse" id="gradient27" r="819.2" spreadMethod="pad">
      <stop offset="0.0" stop-color="#161616"/>
      <stop offset="1.0" stop-color="#000000"/>
    </radialGradient>
    <radialGradient cx="0" cy="0" gradientTransform="matrix(0.0441, 0.0, 0.0, 0.0441, -41.45, -198.35)" gradientUnits="userSpaceOnUse" id="gradient28" r="819.2" spreadMethod="pad">
      <stop offset="0.0" stop-color="#161616"/>
      <stop offset="1.0" stop-color="#000000"/>
    </radialGradient>
    <radialGradient cx="0" cy="0" gradientTransform="matrix(0.1517, 0.0, 0.0, 0.1517, -178.9, -45.1)" gradientUnits="userSpaceOnUse" id="gradient29" r="819.2" spreadMethod="pad">
      <stop offset="0.0" stop-color="#666666"/>
      <stop offset="1.0" stop-color="#111111"/>
    </radialGradient>
    <radialGradient cx="0" cy="0" gradientTransform="matrix(0.1533, 0.0, 0.0, 0.1533, -283.35, -160.2)" gradientUnits="userSpaceOnUse" id="gradient30" r="819.2" spreadMethod="pad">
      <stop offset="0.0" stop-color="#6a6a6a"/>
      <stop offset="1.0" stop-color="#000000"/>
    </radialGradient>
    <radialGradient cx="0" cy="0" gradientTransform="matrix(0.0483, 0.0, 0.0, 0.0483, -282.9, -135.65)" gradientUnits="userSpaceOnUse" id="gradient31" r="819.2" spreadMethod="pad">
      <stop offset="0.0" stop-color="#292929"/>
      <stop offset="1.0" stop-color="#000000"/>
    </radialGradient>
    <radialGradient cx="0" cy="0" gradientTransform="matrix(0.0624, 0.0, 0.0, 0.0624, -313.15, -138.8)" gradientUnits="userSpaceOnUse" id="gradient32" r="819.2" spreadMethod="pad">
      <stop offset="0.0" stop-color="#393939"/>
      <stop offset="1.0" stop-color="#000000"/>
    </radialGradient>
    <radialGradient cx="0" cy="0" gradientTransform="matrix(0.0618, 0.0, 0.0, 0.0618, -296.35, -94.75)" gradientUnits="userSpaceOnUse" id="gradient33" r="819.2" spreadMethod="pad">
      <stop offset="0.0" stop-color="#505050"/>
      <stop offset="1.0" stop-color="#000000"/>
    </radialGradient>
    <radialGradient cx="0" cy="0" gradientTransform="matrix(0.0293, 0.0, 0.0, 0.0293, -282.9, -135.65)" gradientUnits="userSpaceOnUse" id="gradient34" r="819.2" spreadMethod="pad">
      <stop offset="0.0" stop-color="#292929"/>
      <stop offset="1.0" stop-color="#000000"/>
    </radialGradient>
    <radialGradient cx="0" cy="0" gradientTransform="matrix(0.045, 0.0, 0.0, 0.045, -282.9, -135.65)" gradientUnits="userSpaceOnUse" id="gradient35" r="819.2" spreadMethod="pad">
      <stop offset="0.0" stop-color="#292929"/>
      <stop offset="1.0" stop-color="#010101"/>
    </radialGradient>
    <radialGradient cx="0" cy="0" gradientTransform="matrix(0.0577, 0.0, 0.0, 0.0577, -269.1, -105.45)" gradientUnits="userSpaceOnUse" id="gradient36" r="819.2" spreadMethod="pad">
      <stop offset="0.0" stop-color="#3a3a3a"/>
      <stop offset="1.0" stop-color="#0c0c0c"/>
    </radialGradient>
    <radialGradient cx="0" cy="0" gradientTransform="matrix(0.0885, 0.0, 0.0, 0.0885, -178.9, -45.1)" gradientUnits="userSpaceOnUse" id="gradient37" r="819.2" spreadMethod="pad">
      <stop offset="0.0" stop-color="#666666"/>
      <stop offset="1.0" stop-color="#101010"/>
    </radialGradient>
    <radialGradient cx="0" cy="0" gradientTransform="matrix(0.0284, 0.0, 0.0, 0.0284, -288.85, -71.05)" gradientUnits="userSpaceOnUse" id="gradient38" r="819.2" spreadMethod="pad">
      <stop offset="0.0" stop-color="#858585"/>
      <stop offset="1.0" stop-color="#000000"/>
    </radialGradient>
    <radialGradient cx="0" cy="0" gradientTransform="matrix(0.0715, 0.0, 0.0, 0.0715, -293.0, -13.4)" gradientUnits="userSpaceOnUse" id="gradient39" r="819.2" spreadMethod="pad">
      <stop offset="0.0" stop-color="#6f6f6f"/>
      <stop offset="1.0" stop-color="#000000"/>
    </radialGradient>
    <radialGradient cx="0" cy="0" gradientTransform="matrix(0.0567, 0.0, 0.0, 0.0567, -164.35, -1.0)" gradientUnits="userSpaceOnUse" id="gradient40" r="819.2" spreadMethod="pad">
      <stop offset="0.0" stop-color="#7c7c7c"/>
      <stop offset="1.0" stop-color="#606060"/>
    </radialGradient>
  </defs>
</svg>
