<?xml version="1.0" encoding="UTF-8" standalone="no"?>
<svg xmlns:xlink="http://www.w3.org/1999/xlink" height="299.1px" width="357.0px" xmlns="http://www.w3.org/2000/svg">
  <g transform="matrix(1.0, 0.0, 0.0, 1.0, 357.9, 300.0)">
    <path d="M-282.65 -300.0 L-166.5 -300.0 -165.4 -292.5 -173.9 -285.75 -184.5 -278.9 -197.5 -274.25 -206.0 -272.15 -207.15 -275.4 -207.15 -277.4 -207.75 -277.5 -214.15 -280.0 -218.25 -280.75 -225.25 -282.5 -224.15 -281.15 -230.75 -282.65 -233.75 -282.0 -241.5 -281.5 Q-244.5 -280.0 -247.5 -280.0 L-248.5 -276.15 Q-273.5 -286.25 -282.65 -300.0" fill="url(#gradient0)" fill-rule="evenodd" stroke="none"/>
    <path d="M-166.5 -300.0 L-135.25 -300.0 -142.25 -288.75 -153.75 -277.9 -157.9 -277.4 -159.75 -278.0 -164.4 -287.65 -165.4 -292.5 -166.5 -300.0" fill="url(#gradient1)" fill-rule="evenodd" stroke="none"/>
    <path d="M-262.65 -269.9 L-277.15 -275.25 -277.9 -276.0 -284.4 -288.0 -288.75 -286.75 -299.15 -297.4 -299.65 -297.65 -299.5 -296.9 -297.4 -289.25 -297.5 -288.4 -304.15 -300.0 -282.65 -300.0 Q-273.5 -286.25 -248.5 -276.15 L-248.4 -276.0 -248.75 -273.9 -262.65 -269.9 M-153.75 -277.9 L-170.15 -267.9 -167.25 -270.15 -167.75 -270.25 -180.9 -266.5 -186.1 -266.3 -187.15 -266.25 -204.0 -267.4 -206.0 -272.15 -197.5 -274.25 -184.5 -278.9 -173.9 -285.75 -165.4 -292.5 -164.4 -287.65 -159.75 -278.0 -157.9 -277.4 -153.75 -277.9" fill="url(#gradient2)" fill-rule="evenodd" stroke="none"/>
    <path d="M-206.0 -272.15 L-204.0 -267.4 -211.25 -267.9 -222.4 -271.65 -220.0 -275.0 -218.15 -270.9 Q-211.5 -267.75 -209.9 -268.9 L-209.4 -269.5 -211.5 -276.15 -208.0 -274.75 -207.4 -274.4 -207.15 -275.4 -206.0 -272.15" fill="url(#gradient3)" fill-rule="evenodd" stroke="none"/>
    <path d="M-207.75 -277.5 L-207.15 -277.4 -207.15 -275.4 -207.4 -274.4 -208.0 -274.75 -207.75 -277.5" fill="url(#gradient4)" fill-rule="evenodd" stroke="none"/>
    <path d="M-207.75 -277.5 L-208.0 -274.75 -211.5 -276.15 -209.4 -269.5 -209.9 -268.9 Q-211.5 -267.75 -218.15 -270.9 L-220.0 -275.0 -220.0 -276.65 -218.25 -280.75 -214.15 -280.0 -207.75 -277.5" fill="url(#gradient5)" fill-rule="evenodd" stroke="none"/>
    <path d="M-218.25 -280.75 L-220.0 -276.65 -224.15 -281.15 -225.25 -282.5 -218.25 -280.75" fill="url(#gradient6)" fill-rule="evenodd" stroke="none"/>
    <path d="M-267.0 -268.4 L-262.65 -269.9 -248.75 -273.9 -248.4 -276.0 -248.5 -276.15 -247.5 -280.0 Q-244.5 -280.0 -241.5 -281.5 L-233.75 -282.0 -230.75 -282.65 -224.15 -281.15 -220.0 -276.65 -220.0 -275.0 -222.4 -271.65 -227.25 -269.0 -243.25 -272.25 -267.0 -268.4" fill="url(#gradient7)" fill-rule="evenodd" stroke="none"/>
    <path d="M-219.15 -268.4 L-219.25 -268.4 -222.25 -268.65 -222.9 -268.65 -224.65 -268.75 -225.25 -268.9 -227.25 -269.0 -222.4 -271.65 -211.25 -267.9 -219.15 -268.4" fill="url(#gradient8)" fill-rule="evenodd" stroke="none"/>
    <path d="M-271.5 -258.15 L-267.75 -267.9 -267.0 -268.4 -243.25 -272.25 -227.25 -269.0 -227.15 -268.5 -228.65 -268.5 -226.9 -267.0 -220.65 -233.65 -220.75 -232.0 -223.15 -223.0 Q-229.9 -229.15 -238.15 -229.9 -252.25 -231.25 -262.4 -226.15 -281.15 -214.75 -284.9 -198.4 L-285.4 -194.65 -286.75 -189.25 -286.4 -180.25 -285.65 -177.15 -285.25 -177.0 -283.75 -170.4 -282.75 -168.65 -280.75 -163.15 -275.25 -155.9 -271.75 -152.75 -263.4 -149.65 -251.9 -144.5 -249.65 -144.0 -294.9 -145.5 -298.4 -150.75 -297.25 -153.9 -297.5 -155.4 -295.25 -158.25 -293.5 -165.15 -294.0 -173.25 -289.75 -182.4 -288.0 -191.15 -288.4 -200.15 Q-281.4 -207.65 -280.4 -216.25 L-280.15 -221.0 -281.65 -225.15 -284.5 -226.75 -284.0 -228.25 -284.25 -228.75 -285.75 -228.65 -278.15 -241.0 -274.25 -251.4 -273.9 -251.9 -271.5 -258.15 M-229.65 -146.15 L-229.15 -143.65 -236.0 -143.75 -231.65 -145.0 -229.65 -146.15" fill="url(#gradient9)" fill-rule="evenodd" stroke="none"/>
    <path d="M-188.65 -249.0 L-187.75 -218.75 -195.9 -205.4 -198.4 -233.15 -225.75 -267.0 -225.0 -268.0 -223.65 -268.4 -227.15 -268.5 -227.25 -269.0 -225.25 -268.9 -224.65 -268.75 -222.9 -268.65 -222.25 -268.65 -219.25 -268.4 -219.15 -268.4 -187.4 -265.5 -188.65 -249.0" fill="url(#gradient10)" fill-rule="evenodd" stroke="none"/>
    <path d="M-186.1 -266.3 Q-179.9 -266.45 -175.9 -263.65 L-160.0 -251.9 -164.9 -253.75 -174.0 -251.0 -187.4 -265.5 -219.15 -268.4 -211.25 -267.9 -204.0 -267.4 -187.15 -266.25 -186.1 -266.3" fill="url(#gradient11)" fill-rule="evenodd" stroke="none"/>
    <path d="M-174.0 -251.0 L-188.65 -249.0 -187.4 -265.5 -174.0 -251.0" fill="url(#gradient12)" fill-rule="evenodd" stroke="none"/>
    <path d="M-110.0 -169.9 L-124.0 -171.5 -137.15 -178.0 -154.25 -188.9 -173.5 -196.5 -187.75 -218.75 -188.65 -249.0 -174.0 -251.0 -144.9 -238.65 -124.15 -230.75 -88.9 -214.9 -105.25 -190.75 -110.0 -169.9" fill="url(#gradient13)" fill-rule="evenodd" stroke="none"/>
    <path d="M-227.15 -268.5 L-223.65 -268.4 -225.0 -268.0 -225.75 -267.0 -226.9 -267.0 -228.65 -268.5 -227.15 -268.5" fill="url(#gradient14)" fill-rule="evenodd" stroke="none"/>
    <path d="M-176.4 -197.65 Q-177.65 -194.75 -177.5 -192.0 L-180.65 -147.65 Q-182.0 -150.65 -200.0 -152.65 L-229.15 -143.65 -229.65 -146.15 Q-216.5 -149.9 -212.4 -160.65 L-205.15 -165.9 -200.4 -172.15 -199.5 -174.25 -198.0 -183.25 -198.5 -193.65 -202.15 -201.15 -204.25 -203.9 -206.65 -210.0 -213.65 -218.25 Q-215.4 -221.0 -223.15 -223.0 L-220.75 -232.0 -220.65 -233.65 -226.9 -267.0 -225.75 -267.0 -198.4 -233.15 -195.9 -205.4 -184.9 -202.25 -179.4 -199.0 -176.4 -197.65" fill="url(#gradient15)" fill-rule="evenodd" stroke="none"/>
    <path d="M-223.15 -223.0 Q-215.4 -221.0 -213.65 -218.25 L-206.65 -210.0 -204.25 -203.9 -202.15 -201.15 -198.5 -193.65 -198.0 -183.25 -199.5 -174.25 -200.4 -172.15 -205.15 -165.9 -212.4 -160.65 Q-216.5 -149.9 -229.65 -146.15 L-231.65 -145.0 -236.0 -143.75 -244.15 -143.25 -249.65 -144.0 -251.9 -144.5 -263.4 -149.65 -271.75 -152.75 -275.25 -155.9 -280.75 -163.15 -282.75 -168.65 -283.75 -170.4 -285.25 -177.0 -285.65 -177.15 -286.4 -180.25 -286.75 -189.25 -285.4 -194.65 -284.9 -198.4 Q-281.15 -214.75 -262.4 -226.15 -252.25 -231.25 -238.15 -229.9 -229.9 -229.15 -223.15 -223.0" fill="url(#gradient16)" fill-rule="evenodd" stroke="none"/>
    <path d="M-298.15 -34.0 L-296.65 -52.4 -296.4 -55.25 -296.4 -55.75 -294.5 -69.15 -294.5 -69.4 -293.5 -75.9 -293.65 -76.0 -292.65 -84.5 -291.15 -101.9 -293.0 -131.5 -294.75 -144.65 -294.75 -144.9 -294.9 -145.15 -294.9 -145.5 -249.65 -144.0 -244.15 -143.25 -236.0 -143.75 -229.15 -143.65 -241.4 -95.75 -246.75 -26.0 -267.5 -26.9 -298.15 -34.0" fill="url(#gradient17)" fill-rule="evenodd" stroke="none"/>
    <path d="M-321.15 -206.0 L-315.9 -214.15 -309.65 -220.25 -305.9 -222.65 -303.0 -224.4 -297.75 -226.4 -294.9 -227.25 -286.65 -228.65 -285.75 -228.65 -284.25 -228.75 -284.0 -228.25 -284.5 -226.75 -281.65 -225.15 -280.15 -221.0 -280.4 -216.25 Q-281.4 -207.65 -288.4 -200.15 L-288.0 -191.15 -289.75 -182.4 -294.0 -173.25 -293.5 -165.15 -295.25 -158.25 -297.5 -155.4 -297.25 -153.9 -298.4 -150.75 -294.9 -145.5 -294.9 -145.15 -294.75 -144.9 -294.75 -144.65 -303.65 -148.15 -310.0 -152.15 -313.15 -155.0 -315.5 -157.25 -317.75 -160.15 Q-332.4 -180.4 -322.65 -202.9 L-321.65 -205.25 -321.15 -206.0" fill="url(#gradient18)" fill-rule="evenodd" stroke="none"/>
    <path d="M-286.65 -228.65 L-287.9 -234.75 -287.5 -235.5 -274.25 -251.4 -278.15 -241.0 -285.75 -228.65 -286.65 -228.65" fill="url(#gradient19)" fill-rule="evenodd" stroke="none"/>
    <path d="M-281.9 -250.5 L-271.5 -258.15 -273.9 -251.9 -274.25 -251.4 -287.5 -235.5 -281.9 -250.5" fill="url(#gradient20)" fill-rule="evenodd" stroke="none"/>
    <path d="M-160.0 -251.9 L-134.65 -241.25 -78.0 -218.5 -88.5 -214.9 -88.9 -214.9 -124.15 -230.75 -144.9 -238.65 -174.0 -251.0 -164.9 -253.75 -160.0 -251.9" fill="url(#gradient21)" fill-rule="evenodd" stroke="none"/>
    <path d="M-78.0 -218.5 L-59.0 -222.15 -57.15 -218.25 -88.5 -214.9 -78.0 -218.5" fill="url(#gradient22)" fill-rule="evenodd" stroke="none"/>
    <path d="M-59.0 -222.15 L-18.65 -248.65 -1.5 -258.65 -0.9 -258.75 -0.9 -252.5 -8.25 -248.25 -32.5 -232.65 -57.15 -218.25 -59.0 -222.15" fill="url(#gradient23)" fill-rule="evenodd" stroke="none"/>
    <path d="M-0.9 -252.5 L-0.9 -200.9 -8.75 -196.75 -13.75 -211.75 -32.5 -232.65 -8.25 -248.25 -0.9 -252.5" fill="url(#gradient24)" fill-rule="evenodd" stroke="none"/>
    <path d="M-57.15 -218.25 L-32.5 -232.65 -13.75 -211.75 -57.15 -218.25" fill="url(#gradient25)" fill-rule="evenodd" stroke="none"/>
    <path d="M-293.4 -242.15 L-293.4 -242.25 -293.15 -242.9 -281.9 -250.5 -287.5 -235.5 -287.9 -234.75 -286.65 -228.65 -294.9 -227.25 -297.75 -226.4 -293.4 -242.15" fill="url(#gradient26)" fill-rule="evenodd" stroke="none"/>
    <path d="M-349.15 -176.75 L-347.9 -178.15 -335.9 -188.65 -334.5 -190.5 -322.65 -202.9 Q-332.4 -180.4 -317.75 -160.15 L-330.75 -154.9 -346.5 -167.0 -349.15 -176.75 M-301.75 -226.9 L-293.4 -242.15 -297.75 -226.4 -303.0 -224.4 -302.5 -225.65 -301.75 -226.9" fill="url(#gradient27)" fill-rule="evenodd" stroke="none"/>
    <path d="M-302.0 -226.65 L-301.75 -226.9 -302.5 -225.65 -302.0 -226.65" fill="url(#gradient28)" fill-rule="evenodd" stroke="none"/>
    <path d="M-347.9 -178.15 L-329.25 -196.5 -321.65 -205.25 -322.65 -202.9 -334.5 -190.5 -335.9 -188.65 -347.9 -178.15 M-305.9 -222.65 L-302.0 -226.65 -302.5 -225.65 -303.0 -224.4 -305.9 -222.65" fill="url(#gradient29)" fill-rule="evenodd" stroke="none"/>
    <path d="M-37.9 -178.65 L-57.5 -166.4 -110.0 -169.9 -105.25 -190.75 -88.9 -214.9 -88.5 -214.9 -57.15 -218.25 -13.75 -211.75 -37.0 -197.75 -37.9 -178.65" fill="url(#gradient30)" fill-rule="evenodd" stroke="none"/>
    <path d="M-321.65 -205.25 L-321.65 -205.5 -321.15 -206.0 -321.65 -205.25" fill="url(#gradient31)" fill-rule="evenodd" stroke="none"/>
    <path d="M-173.5 -196.5 L-176.4 -197.65 -179.4 -199.0 -184.9 -202.25 -195.9 -205.4 -187.75 -218.75 -173.5 -196.5" fill="url(#gradient32)" fill-rule="evenodd" stroke="none"/>
    <path d="M-8.75 -196.75 L-36.65 -179.4 -37.4 -179.0 -37.5 -178.9 -37.9 -178.65 -37.0 -197.75 -13.75 -211.75 -8.75 -196.75" fill="url(#gradient33)" fill-rule="evenodd" stroke="none"/>
    <path d="M-317.75 -160.15 L-315.5 -157.25 -313.15 -155.0 -316.5 -148.25 -312.0 -139.25 -314.15 -121.0 -314.25 -121.0 -314.4 -121.25 -314.4 -121.5 -330.5 -154.15 -330.75 -154.9 -317.75 -160.15" fill="url(#gradient34)" fill-rule="evenodd" stroke="none"/>
    <path d="M-292.65 -84.5 L-293.65 -76.0 Q-297.75 -79.9 -301.4 -78.5 L-302.0 -78.0 -302.25 -76.65 Q-302.0 -74.25 -300.75 -72.15 L-301.5 -72.15 -304.5 -72.9 -311.5 -83.75 -315.0 -93.25 -321.65 -105.5 -326.5 -129.5 -314.4 -121.25 -314.25 -121.0 -314.15 -121.0 -300.65 -100.25 Q-296.4 -87.0 -292.65 -84.5" fill="url(#gradient35)" fill-rule="evenodd" stroke="none"/>
    <path d="M-329.4 -139.25 L-328.65 -138.75 -314.4 -121.5 -314.4 -121.25 -326.5 -129.5 -329.4 -139.25" fill="url(#gradient36)" fill-rule="evenodd" stroke="none"/>
    <path d="M-314.4 -121.5 L-328.65 -138.75 -329.4 -139.25 -330.5 -154.15 -314.4 -121.5" fill="url(#gradient37)" fill-rule="evenodd" stroke="none"/>
    <path d="M-347.5 -124.15 L-355.5 -140.0 -357.9 -151.65 -357.15 -159.25 -349.15 -176.75 -346.5 -167.0 -330.75 -154.9 -330.5 -154.15 -329.4 -139.25 -326.5 -129.5 -344.25 -128.15 -347.5 -124.15" fill="url(#gradient38)" fill-rule="evenodd" stroke="none"/>
    <path d="M-319.65 -69.65 L-325.0 -78.5 -334.75 -97.9 -341.0 -112.0 -347.5 -124.15 -344.25 -128.15 -326.5 -129.5 -321.65 -105.5 -315.0 -93.25 -311.5 -83.75 -304.5 -72.9 -309.75 -70.4 Q-309.75 -72.25 -316.5 -73.9 L-318.65 -71.9 -319.25 -69.75 -319.65 -69.65" fill="url(#gradient39)" fill-rule="evenodd" stroke="none"/>
    <path d="M-180.65 -147.65 L-186.75 -92.9 -187.5 -71.75 -189.5 -49.75 -191.65 -31.5 -209.25 -28.5 -246.75 -26.0 -241.4 -95.75 -229.15 -143.65 -200.0 -152.65 Q-182.0 -150.65 -180.65 -147.65" fill="url(#gradient40)" fill-rule="evenodd" stroke="none"/>
    <path d="M-191.65 -31.5 L-191.5 -30.9 -191.4 -30.65 -191.4 -30.4 -186.75 -0.9 -242.25 -0.9 -246.75 -26.0 -209.25 -28.5 -191.65 -31.5" fill="url(#gradient41)" fill-rule="evenodd" stroke="none"/>
    <path d="M-296.65 -52.4 L-296.75 -52.4 Q-307.65 -47.75 -314.0 -52.75 -322.25 -58.9 -319.65 -69.65 L-319.25 -69.75 -318.65 -71.9 -316.5 -73.9 Q-309.75 -72.25 -309.75 -70.4 L-304.5 -72.9 -301.5 -72.15 -300.75 -72.15 Q-302.0 -74.25 -302.25 -76.65 L-302.0 -78.0 -301.4 -78.5 Q-297.75 -79.9 -293.65 -76.0 L-293.5 -75.9 -294.5 -69.4 -294.5 -69.15 -296.4 -55.75 -296.4 -55.25 -296.65 -52.4" fill="url(#gradient42)" fill-rule="evenodd" stroke="none"/>
    <path d="M-242.25 -0.9 L-301.15 -0.9 -298.5 -31.25 -298.15 -34.0 -267.5 -26.9 -246.75 -26.0 -242.25 -0.9" fill="url(#gradient43)" fill-rule="evenodd" stroke="none"/>
    <path d="M-301.15 -0.9 L-309.9 -0.9 -298.5 -31.25 -301.15 -0.9" fill="url(#gradient44)" fill-rule="evenodd" stroke="none"/>
    <path d="M-191.4 -30.4 L-184.4 -1.9 -184.25 -0.9 -186.75 -0.9 -191.4 -30.4" fill="url(#gradient45)" fill-rule="evenodd" stroke="none"/>
    <path d="M-220.65 -281.25 L-220.15 -281.25 -219.75 -281.15 -219.65 -281.15 -210.65 -278.25 -207.9 -276.5 -207.9 -276.4 -207.15 -276.15 -207.15 -275.9 -198.4 -270.25 -197.9 -268.0 -198.15 -267.0 -204.0 -267.4 -204.5 -269.0 -205.0 -269.75 -206.75 -270.5 -207.4 -271.15 -210.15 -272.75 -210.25 -272.75 -210.4 -273.0 -210.65 -273.25 -212.25 -274.25 -212.4 -274.5 -216.9 -277.25 -221.25 -278.15 -221.5 -278.25 -222.15 -278.25 -222.25 -278.15 -224.9 -272.75 -225.0 -271.9 -225.4 -270.15 -225.5 -269.9 -226.0 -267.0 -226.5 -265.5 -226.5 -264.15 -229.75 -249.25 -229.75 -248.75 -230.5 -247.4 -244.4 -230.15 -244.65 -230.15 -244.9 -230.0 -244.5 -230.0 -246.0 -228.0 -246.4 -227.75 -249.4 -223.75 -249.75 -223.5 -251.5 -221.15 -240.75 -216.4 -240.25 -216.25 -239.65 -215.9 -224.4 -209.15 -231.75 -207.75 -232.4 -207.75 -249.0 -204.65 -249.9 -204.4 -265.4 -201.65 -259.4 -218.4 -258.15 -220.25 -257.75 -220.65 -254.15 -225.4 -253.75 -225.65 -251.9 -228.25 -251.5 -228.5 -250.75 -229.65 -250.5 -229.75 -246.9 -234.65 -236.75 -247.25 -234.4 -257.15 -234.5 -257.75 -231.65 -269.9 -231.5 -270.25 -229.25 -279.65 -228.9 -279.9 -222.15 -278.25 -221.9 -278.65 -220.65 -281.25 M-246.4 -0.9 L-309.9 -0.9 -301.5 -23.65 -273.75 -16.75 -261.9 -16.25 -261.65 -16.15 -249.5 -15.5 -249.15 -15.65 -246.4 -0.9 M-271.4 -273.25 L-259.65 -271.75 -259.75 -271.5 -257.9 -271.4 -259.15 -270.9 -260.4 -270.65 -260.4 -270.5 -261.9 -270.15 -265.0 -270.75 -271.4 -273.25" fill="#9b0000" fill-opacity="0.9098039" fill-rule="evenodd" stroke="none"/>
    <path d="M-325.25 -188.65 L-325.4 -187.9 -325.0 -187.5 -318.0 -181.75 -316.75 -180.9 -316.65 -180.4 -302.0 -168.25 -301.9 -167.9 -294.5 -161.9 -294.4 -161.65 -292.75 -160.25 -283.4 -169.5 -283.25 -169.75 -282.9 -170.0 -280.75 -172.25 -280.5 -172.4 -271.0 -182.0 -270.0 -184.75 -270.15 -185.15 -269.9 -185.5 -267.0 -196.15 -266.9 -196.4 -265.75 -200.9 -265.4 -201.65 -249.9 -204.4 -249.0 -204.65 -232.4 -207.75 -231.75 -207.75 -224.4 -209.15 -224.65 -205.5 -224.75 -205.4 -225.75 -196.0 -225.65 -195.5 -227.5 -176.9 -227.4 -169.75 -227.5 -168.5 -227.4 -161.5 -227.65 -161.0 -227.65 -145.5 -227.75 -144.9 -230.75 -145.0 -231.0 -145.15 -231.5 -145.0 -263.75 -146.5 -279.25 -146.65 -280.4 -146.75 -295.75 -146.9 -296.0 -147.0 -297.5 -147.15 -298.0 -147.15 -301.15 -147.5 -301.5 -147.5 -302.5 -147.65 -303.15 -147.75 -304.15 -148.65 -305.65 -149.4 -310.0 -152.25 -311.0 -153.4 -313.15 -155.0 -315.5 -157.25 -316.9 -159.4 -317.75 -160.15 -321.15 -165.15 -321.5 -166.4 -323.65 -170.15 -324.5 -172.9 -324.65 -174.4 -324.9 -174.75 -326.25 -181.15 -326.15 -183.15 -326.4 -184.15 -326.15 -189.75 -325.9 -191.15 -325.65 -190.65 -325.75 -190.15 -325.4 -188.9 -325.25 -188.65 M-319.75 -166.15 L-320.65 -168.0 -319.9 -165.9 -320.15 -165.65 -319.65 -165.65 -319.5 -165.9 -319.75 -166.15 M-258.75 -172.75 L-259.65 -173.5 -259.9 -173.15 -260.0 -172.9 -260.15 -172.65 -260.25 -172.4 -260.15 -171.9 -259.65 -171.15 -259.25 -169.75 -259.15 -169.75 -258.75 -170.4 -258.65 -170.75 -258.5 -171.0 -258.4 -171.25 -258.25 -171.5 -258.4 -172.25 -258.75 -172.75" fill="#b00000" fill-opacity="0.9098039" fill-rule="evenodd" stroke="none"/>
    <path d="M-228.9 -279.9 L-220.65 -281.25 -221.9 -278.65 -222.15 -278.25 -228.9 -279.9" fill="#a90000" fill-rule="evenodd" stroke="none"/>
    <path d="M-272.75 -273.4 L-272.0 -273.4 -271.4 -273.25 -265.0 -270.75 -274.5 -271.75 -272.75 -273.4" fill="#ab0000" fill-opacity="0.9098039" fill-rule="evenodd" stroke="none"/>
    <path d="M-310.65 -0.9 L-311.5 -0.9 -309.65 -22.5 -309.5 -22.9 -309.4 -24.0 -309.25 -24.25 -309.15 -24.65 -309.15 -25.65 -307.65 -25.15 -310.65 -0.9 M-277.75 -272.15 L-272.75 -273.4 -274.5 -271.75 -277.75 -272.15" fill="#ad0000" fill-rule="evenodd" stroke="none"/>
    <path d="M-326.9 -202.75 L-321.4 -214.4 -295.5 -240.25 -288.9 -262.65 -277.75 -272.15 -274.5 -271.75 -283.65 -263.25 -288.4 -246.25 -288.4 -246.15 -288.65 -245.9 -293.0 -242.9 -293.4 -242.25 -293.4 -242.15 -298.65 -232.65 -298.9 -232.15 -299.25 -231.65 -315.5 -215.25 -315.75 -214.4 -316.4 -213.15 -321.0 -206.25 -321.0 -206.15 -321.65 -205.5 -321.65 -205.25 -325.15 -201.5 -326.9 -202.75" fill="#ae0000" fill-opacity="0.9098039" fill-rule="evenodd" stroke="none"/>
    <path d="M-327.0 -201.75 L-326.9 -202.75 -325.15 -201.5 -326.65 -199.9 -327.0 -201.75" fill="#b30000" fill-rule="evenodd" stroke="none"/>
    <path d="M-307.15 -146.9 L-313.65 -153.9 -313.15 -155.0 -311.0 -153.4 -310.0 -152.25 -305.65 -149.4 -304.15 -148.65 -303.15 -147.75 -306.4 -148.0 -307.15 -148.15 -307.15 -146.9 M-327.65 -198.75 L-327.0 -201.75 -326.65 -199.9 -326.75 -199.5 -327.65 -198.75" fill="#c60000" fill-rule="evenodd" stroke="none"/>
    <path d="M-313.65 -153.9 L-315.65 -155.9 -315.75 -156.4 -321.65 -162.75 -321.9 -162.9 -331.9 -174.0 -330.5 -182.9 -330.4 -183.15 -328.0 -196.65 -328.15 -197.15 -327.9 -197.65 -327.9 -198.15 -327.65 -198.75 -326.75 -199.5 -326.5 -199.15 -326.65 -198.75 -325.75 -193.15 -325.65 -192.25 -325.9 -191.5 -325.9 -191.15 -326.15 -189.75 -326.4 -184.15 -326.15 -183.15 -326.25 -181.15 -324.9 -174.75 -324.65 -174.4 -324.5 -172.9 -323.65 -170.15 -321.5 -166.4 -321.15 -165.15 -317.75 -160.15 -316.9 -159.4 -315.5 -157.25 -313.15 -155.0 -313.65 -153.9" fill="#c40000" fill-rule="evenodd" stroke="none"/>
    <path d="M-309.9 -0.9 L-310.65 -0.9 -307.65 -25.15 -301.5 -23.65 -309.9 -0.9 M-325.15 -201.5 L-324.5 -201.15 -323.65 -200.5 -323.65 -200.4 -324.15 -198.75 -324.25 -198.5 -325.75 -193.15 -326.65 -198.75 -326.5 -199.15 -326.75 -199.5 -326.65 -199.9 -325.15 -201.5" fill="#b10000" fill-rule="evenodd" stroke="none"/>
    <path d="M-288.65 -245.9 L-289.9 -241.25 -294.75 -236.65 -295.15 -235.75 -298.65 -232.65 -293.4 -242.15 -293.4 -242.25 -293.0 -242.9 -288.65 -245.9 M-316.4 -213.15 L-316.25 -212.9 -317.5 -209.5 -317.75 -209.15 -320.0 -202.65 -320.25 -202.15 -323.5 -192.9 -323.9 -192.15 -325.15 -189.0 -325.15 -188.65 -325.25 -188.65 -325.4 -188.9 -325.75 -190.15 -325.65 -190.65 -325.9 -191.15 -325.9 -191.5 -325.65 -192.25 -325.75 -193.15 -324.25 -198.5 -324.15 -198.75 -323.65 -200.4 -323.65 -200.5 -324.5 -201.15 -325.15 -201.5 -321.65 -205.25 -321.65 -205.5 -321.0 -206.15 -321.0 -206.25 -316.4 -213.15" fill="#9e0000" fill-opacity="0.9098039" fill-rule="evenodd" stroke="none"/>
    <path d="M-224.4 -209.15 L-222.25 -208.0 -222.15 -207.65 -219.75 -206.15 -219.15 -205.9 -207.4 -198.15 -207.25 -197.9 -199.0 -192.5 -198.4 -192.25 -198.4 -192.0 -198.25 -192.0 -198.25 -191.9 -197.0 -191.25 -196.9 -191.0 -190.0 -186.75 -189.75 -186.4 -187.65 -185.15 -186.4 -183.75 -186.25 -183.4 -181.9 -179.0 -181.65 -178.5 -181.0 -178.15 -180.9 -177.65 -179.15 -176.15 -178.65 -175.25 -178.9 -174.5 -179.15 -171.5 -179.0 -171.25 -180.15 -154.15 -180.75 -154.15 -190.15 -155.65 -199.65 -153.0 -200.0 -152.75 -227.75 -144.9 -227.65 -145.5 -227.65 -161.0 -227.4 -161.5 -227.5 -168.5 -227.4 -169.75 -227.5 -176.9 -225.65 -195.5 -225.75 -196.0 -224.75 -205.4 -224.65 -205.5 -224.4 -209.15" fill="#da0000" fill-opacity="0.9098039" fill-rule="evenodd" stroke="none"/>
    <path d="M-227.75 -144.9 L-200.0 -152.75 -199.65 -153.0 -190.15 -155.65 -180.75 -154.15 -180.15 -154.15 -181.0 -144.0 -186.15 -100.0 -186.15 -99.4 -186.0 -99.0 -186.25 -98.9 -187.65 -73.5 -187.5 -72.9 -189.5 -52.15 -189.4 -51.4 -191.65 -32.15 -191.65 -31.5 -191.4 -29.9 -191.25 -29.75 -190.4 -26.5 -189.25 -21.9 -190.4 -21.65 -190.75 -21.65 -197.15 -20.25 -198.0 -20.15 -204.15 -19.0 -204.4 -19.0 -205.5 -18.75 -207.25 -18.65 -207.9 -18.5 -215.25 -17.9 -215.75 -17.75 -222.75 -17.25 -223.25 -17.15 -249.15 -15.65 -249.0 -16.25 -249.25 -16.4 -247.9 -22.15 -247.9 -22.25 -247.4 -26.0 -247.25 -26.5 -247.4 -27.0 -246.5 -30.15 -245.75 -36.5 -244.9 -40.25 -242.4 -71.65 -242.5 -72.0 -242.4 -72.5 -240.65 -92.9 -240.25 -94.4 -240.25 -94.75 -240.0 -95.4 -228.5 -141.4 -228.5 -142.15 -228.25 -142.4 -228.0 -143.4 -228.0 -143.9 -227.9 -144.15 -227.75 -144.4 -227.75 -144.9" fill="#dd0000" fill-opacity="0.9098039" fill-rule="evenodd" stroke="none"/>
    <path d="M-178.65 -175.25 L-169.65 -166.0 -166.0 -155.65 -171.0 -149.75 -171.75 -151.9 -177.5 -153.75 -180.15 -154.15 -179.0 -171.25 -179.15 -171.5 -178.9 -174.5 -178.65 -175.25" fill="#f00000" fill-opacity="0.9098039" fill-rule="evenodd" stroke="none"/>
    <path d="M-171.0 -149.75 L-171.15 -149.4 -181.0 -144.0 -180.15 -154.15 -177.5 -153.75 -171.75 -151.9 -171.0 -149.75" fill="#f40000" fill-opacity="0.9098039" fill-rule="evenodd" stroke="none"/>
    <path d="M-171.15 -149.4 L-177.15 -89.75 -177.75 -69.0 -179.9 -44.0 -185.5 -22.75 -190.4 -26.5 -191.25 -29.75 -191.4 -29.9 -191.65 -31.5 -191.65 -32.15 -189.4 -51.4 -189.5 -52.15 -187.5 -72.9 -187.65 -73.5 -186.25 -98.9 -186.0 -99.0 -186.15 -99.4 -186.15 -100.0 -181.0 -144.0 -171.15 -149.4" fill="#ee0000" fill-rule="evenodd" stroke="none"/>
    <path d="M-303.4 -104.15 L-303.65 -105.0 -307.15 -146.9 -307.15 -148.15 -306.4 -148.0 -303.15 -147.75 -302.5 -147.65 -294.75 -144.65 -293.15 -132.4 -293.0 -131.65 -291.15 -99.4 -292.65 -84.5 -296.75 -90.0 -300.9 -100.5 -303.4 -104.15 M-297.0 -52.4 L-296.65 -52.4 -298.25 -34.4 -298.15 -34.4 -298.15 -34.0 -298.25 -33.5 -298.5 -31.25 -301.5 -23.65 -307.65 -25.15 -307.25 -29.15 -307.0 -29.75 -307.15 -50.25 -306.15 -50.15 -303.65 -50.15 -303.0 -50.25 -302.75 -50.4 -302.5 -50.4 -302.15 -50.5 -302.0 -50.5 -301.65 -50.65 -301.15 -50.65 -300.75 -50.75 -298.75 -51.5 Q-298.05 -51.8 -297.4 -52.15 L-297.0 -52.4" fill="#b90000" fill-rule="evenodd" stroke="none"/>
    <path d="M-227.75 -144.9 L-227.75 -144.4 -227.9 -144.15 -228.0 -143.9 -228.0 -143.4 -228.25 -142.4 -228.5 -142.15 -228.5 -141.4 -240.0 -95.4 -240.25 -94.75 -240.25 -94.4 -240.65 -92.9 -242.4 -72.5 -242.5 -72.0 -242.4 -71.65 -244.9 -40.25 -245.75 -36.5 -246.5 -30.15 -247.4 -27.0 -247.25 -26.5 -247.4 -26.0 -247.9 -22.25 -247.9 -22.15 -249.25 -16.4 -249.0 -16.25 -249.15 -15.65 -249.5 -15.5 -261.65 -16.15 -261.9 -16.25 -273.75 -16.75 -301.5 -23.65 -298.5 -31.25 -298.25 -33.5 -298.15 -34.0 -298.15 -34.4 -298.25 -34.4 -296.65 -52.4 -297.0 -52.4 -296.75 -52.5 -296.65 -53.0 -296.5 -53.4 -296.4 -55.25 -296.65 -55.25 -296.25 -56.0 -296.15 -57.65 -296.0 -57.9 -296.0 -58.0 -295.75 -59.75 -295.9 -59.75 -295.4 -62.65 -295.5 -62.65 -295.25 -63.4 -294.65 -69.15 -294.65 -69.25 -294.5 -69.4 -294.5 -69.9 -294.0 -72.15 -293.9 -74.25 -293.5 -75.9 -293.65 -76.0 -292.9 -79.9 -292.9 -80.9 -292.75 -82.0 -292.65 -84.5 -291.15 -99.4 -293.0 -131.65 -293.15 -132.4 -294.75 -144.65 -302.5 -147.65 -301.5 -147.5 -301.15 -147.5 -298.0 -147.15 -297.5 -147.15 -296.0 -147.0 -295.75 -146.9 -280.4 -146.75 -279.25 -146.65 -263.75 -146.5 -231.5 -145.0 -231.0 -145.15 -230.75 -145.0 -227.75 -144.9" fill="#a30000" fill-opacity="0.9098039" fill-rule="evenodd" stroke="none"/>
    <path d="M-309.0 -26.25 L-308.4 -50.4 -307.75 -50.4 -307.15 -50.25 -307.0 -50.5 -306.9 -55.25 -306.5 -57.5 -306.65 -57.9 -306.4 -59.0 -306.4 -59.75 -306.25 -60.4 -306.4 -60.5 -306.4 -60.65 -306.15 -61.9 -306.25 -63.4 -306.0 -63.5 -306.0 -64.5 -305.9 -64.9 -305.9 -65.9 -305.75 -66.25 -306.0 -66.4 -306.0 -69.25 -306.0 -69.4 -305.75 -69.5 -305.65 -71.65 -305.65 -72.15 -305.5 -72.25 -305.65 -72.4 -305.5 -72.5 -305.5 -73.5 -305.4 -73.9 -305.4 -74.25 -305.5 -74.5 -304.15 -87.75 -304.25 -88.0 -303.15 -100.9 -303.4 -103.15 -303.5 -103.65 -303.4 -104.15 -300.9 -100.5 -296.75 -90.0 -292.65 -84.5 -292.75 -82.0 -292.9 -80.9 -292.9 -79.9 -293.65 -76.0 -293.5 -75.9 -293.9 -74.25 -294.0 -72.15 -294.5 -69.9 -294.5 -69.4 -294.65 -69.25 -294.65 -69.15 -295.25 -63.4 -295.5 -62.65 -295.4 -62.65 -295.9 -59.75 -295.75 -59.75 -296.0 -58.0 -296.0 -57.9 -296.15 -57.65 -296.25 -56.0 -296.65 -55.25 -296.4 -55.25 -296.5 -53.4 -296.65 -53.0 -296.75 -52.5 -297.0 -52.4 -297.4 -52.15 Q-298.05 -51.8 -298.75 -51.5 L-300.75 -50.75 -301.15 -50.65 -301.65 -50.65 -302.0 -50.5 -302.15 -50.5 -302.5 -50.4 -302.75 -50.4 -303.0 -50.25 -303.65 -50.15 -306.15 -50.15 -307.15 -50.25 -307.0 -29.75 -307.25 -29.15 -307.75 -27.9 -309.0 -26.25" fill="#b70000" fill-rule="evenodd" stroke="none"/>
    <path d="M-184.25 -0.9 L-246.4 -0.9 -249.15 -15.65 -223.25 -17.15 -222.75 -17.25 -215.75 -17.75 -215.25 -17.9 -207.9 -18.5 -207.25 -18.65 -205.5 -18.75 -204.4 -19.0 -204.15 -19.0 -198.0 -20.15 -197.15 -20.25 -190.75 -21.65 -190.4 -21.65 -189.25 -21.9 -184.25 -0.9" fill="#d70000" fill-opacity="0.9098039" fill-rule="evenodd" stroke="none"/>
    <path d="M-189.25 -21.9 L-190.4 -26.5 -185.5 -22.75 -189.25 -21.9" fill="#f00000" fill-rule="evenodd" stroke="none"/>
    <path d="M-309.15 -25.65 L-309.0 -26.25 -307.75 -27.9 -307.25 -29.15 -307.65 -25.15 -309.15 -25.65 M-308.4 -50.4 L-308.4 -50.9 -308.15 -51.9 -308.25 -52.5 -308.15 -52.65 -307.75 -54.75 -307.75 -55.5 -307.5 -57.25 -307.65 -57.25 -307.4 -57.9 -307.5 -58.0 -307.15 -60.15 -307.25 -60.15 -307.0 -60.65 -306.75 -63.15 -306.9 -63.15 -306.75 -63.65 -306.4 -66.25 -306.4 -66.65 -306.0 -69.25 -306.0 -66.4 -305.75 -66.25 -305.9 -65.9 -305.9 -64.9 -306.0 -64.5 -306.0 -63.5 -306.25 -63.4 -306.15 -61.9 -306.4 -60.65 -306.4 -60.5 -306.25 -60.4 -306.4 -59.75 -306.4 -59.0 -306.65 -57.9 -306.5 -57.5 -306.9 -55.25 -307.0 -50.5 -307.15 -50.25 -307.75 -50.4 -308.4 -50.4 M-306.0 -69.4 L-306.0 -69.65 -305.65 -71.65 -305.75 -69.5 -306.0 -69.4 M-305.65 -72.15 L-305.65 -72.4 -305.5 -72.25 -305.65 -72.15" fill="#b50000" fill-rule="evenodd" stroke="none"/>
    <path d="M-185.5 -22.75 L-184.65 -18.75 -181.65 -0.9 -184.25 -0.9 -189.25 -21.9 -185.5 -22.75 M-311.5 -0.9 L-318.15 -0.9 -309.65 -22.5 -311.5 -0.9" fill="#e90000" fill-rule="evenodd" stroke="none"/>
    <path d="M-184.65 -18.75 L-180.15 -0.9 -181.65 -0.9 -184.65 -18.75" fill="#fa0000" fill-rule="evenodd" stroke="none"/>
  </g>
  <defs>
    <radialGradient cx="0" cy="0" gradientTransform="matrix(0.0938, 0.0, 0.0, 0.0938, -241.7, -300.0)" gradientUnits="userSpaceOnUse" id="gradient0" r="819.2" spreadMethod="pad">
      <stop offset="0.0" stop-color="#606060"/>
      <stop offset="1.0" stop-color="#000000"/>
    </radialGradient>
    <radialGradient cx="0" cy="0" gradientTransform="matrix(0.0399, 0.0, 0.0, 0.0399, -135.4, -300.0)" gradientUnits="userSpaceOnUse" id="gradient1" r="819.2" spreadMethod="pad">
      <stop offset="0.0" stop-color="#353535"/>
      <stop offset="1.0" stop-color="#0d0d0d"/>
    </radialGradient>
    <radialGradient cx="0" cy="0" gradientTransform="matrix(0.1855, 0.0, 0.0, 0.1855, -304.05, -300.0)" gradientUnits="userSpaceOnUse" id="gradient2" r="819.2" spreadMethod="pad">
      <stop offset="0.0" stop-color="#292929"/>
      <stop offset="1.0" stop-color="#0b0b0b"/>
    </radialGradient>
    <radialGradient cx="0" cy="0" gradientTransform="matrix(0.0408, 0.0, 0.0, 0.0408, -207.15, -274.7)" gradientUnits="userSpaceOnUse" id="gradient3" r="819.2" spreadMethod="pad">
      <stop offset="0.0" stop-color="#7b7b7b"/>
      <stop offset="1.0" stop-color="#090909"/>
    </radialGradient>
    <radialGradient cx="0" cy="0" gradientTransform="matrix(0.3298, 0.0, 0.0, 0.3298, -207.25, -285.8)" gradientUnits="userSpaceOnUse" id="gradient4" r="819.2" spreadMethod="pad">
      <stop offset="0.0" stop-color="#1a1a1a"/>
      <stop offset="1.0" stop-color="#0b0b0b"/>
    </radialGradient>
    <radialGradient cx="0" cy="0" gradientTransform="matrix(0.3215, 0.0, 0.0, 0.3215, -207.15, -279.0)" gradientUnits="userSpaceOnUse" id="gradient5" r="819.2" spreadMethod="pad">
      <stop offset="0.0" stop-color="#101010"/>
      <stop offset="1.0" stop-color="#000000"/>
    </radialGradient>
    <radialGradient cx="0" cy="0" gradientTransform="matrix(0.0231, 0.0, 0.0, 0.0231, -232.65, -290.75)" gradientUnits="userSpaceOnUse" id="gradient6" r="819.2" spreadMethod="pad">
      <stop offset="0.0" stop-color="#797979"/>
      <stop offset="1.0" stop-color="#000000"/>
    </radialGradient>
    <radialGradient cx="0" cy="0" gradientTransform="matrix(0.0365, 0.0, 0.0, 0.0365, -247.25, -280.85)" gradientUnits="userSpaceOnUse" id="gradient7" r="819.2" spreadMethod="pad">
      <stop offset="0.0" stop-color="#181818"/>
      <stop offset="1.0" stop-color="#000000"/>
    </radialGradient>
    <radialGradient cx="0" cy="0" gradientTransform="matrix(0.0491, 0.0, 0.0, 0.0491, -222.5, -271.8)" gradientUnits="userSpaceOnUse" id="gradient8" r="819.2" spreadMethod="pad">
      <stop offset="0.0" stop-color="#000000"/>
      <stop offset="1.0" stop-color="#000000"/>
    </radialGradient>
    <radialGradient cx="0" cy="0" gradientTransform="matrix(0.1718, 0.0, 0.0, 0.1718, -294.8, -145.55)" gradientUnits="userSpaceOnUse" id="gradient9" r="819.2" spreadMethod="pad">
      <stop offset="0.0" stop-color="#6a6a6a"/>
      <stop offset="1.0" stop-color="#000000"/>
    </radialGradient>
    <radialGradient cx="0" cy="0" gradientTransform="matrix(0.078, 0.0, 0.0, 0.078, -187.6, -218.95)" gradientUnits="userSpaceOnUse" id="gradient10" r="819.2" spreadMethod="pad">
      <stop offset="0.0" stop-color="#595959"/>
      <stop offset="1.0" stop-color="#000000"/>
    </radialGradient>
    <radialGradient cx="0" cy="0" gradientTransform="matrix(0.049, 0.0, 0.0, 0.049, -187.3, -265.75)" gradientUnits="userSpaceOnUse" id="gradient11" r="819.2" spreadMethod="pad">
      <stop offset="0.0" stop-color="#000000"/>
      <stop offset="1.0" stop-color="#000000"/>
    </radialGradient>
    <radialGradient cx="0" cy="0" gradientTransform="matrix(0.0204, 0.0, 0.0, 0.0204, -188.6, -249.05)" gradientUnits="userSpaceOnUse" id="gradient12" r="819.2" spreadMethod="pad">
      <stop offset="0.0" stop-color="#000000"/>
      <stop offset="1.0" stop-color="#000000"/>
    </radialGradient>
    <radialGradient cx="0" cy="0" gradientTransform="matrix(0.0995, 0.0, 0.0, 0.0995, -170.35, -214.5)" gradientUnits="userSpaceOnUse" id="gradient13" r="819.2" spreadMethod="pad">
      <stop offset="0.0" stop-color="#616161"/>
      <stop offset="1.0" stop-color="#000000"/>
    </radialGradient>
    <radialGradient cx="0" cy="0" gradientTransform="matrix(0.1127, 0.0, 0.0, 0.1127, -223.65, -268.45)" gradientUnits="userSpaceOnUse" id="gradient14" r="819.2" spreadMethod="pad">
      <stop offset="0.0" stop-color="#000000"/>
      <stop offset="1.0" stop-color="#000000"/>
    </radialGradient>
    <radialGradient cx="0" cy="0" gradientTransform="matrix(0.1231, 0.0, 0.0, 0.1231, -186.85, -176.75)" gradientUnits="userSpaceOnUse" id="gradient15" r="819.2" spreadMethod="pad">
      <stop offset="0.0" stop-color="#3f3f3f"/>
      <stop offset="1.0" stop-color="#0f0f0f"/>
    </radialGradient>
    <radialGradient cx="0" cy="0" gradientTransform="matrix(0.103, 0.0, 0.0, 0.103, -267.7, -156.1)" gradientUnits="userSpaceOnUse" id="gradient16" r="819.2" spreadMethod="pad">
      <stop offset="0.0" stop-color="#878787"/>
      <stop offset="1.0" stop-color="#000000"/>
    </radialGradient>
    <radialGradient cx="0" cy="0" gradientTransform="matrix(0.1572, 0.0, 0.0, 0.1572, -294.8, -145.55)" gradientUnits="userSpaceOnUse" id="gradient17" r="819.2" spreadMethod="pad">
      <stop offset="0.0" stop-color="#6a6a6a"/>
      <stop offset="1.0" stop-color="#000000"/>
    </radialGradient>
    <radialGradient cx="0" cy="0" gradientTransform="matrix(0.0924, 0.0, 0.0, 0.0924, -309.25, -158.85)" gradientUnits="userSpaceOnUse" id="gradient18" r="819.2" spreadMethod="pad">
      <stop offset="0.0" stop-color="#858585"/>
      <stop offset="1.0" stop-color="#000000"/>
    </radialGradient>
    <radialGradient cx="0" cy="0" gradientTransform="matrix(0.052, 0.0, 0.0, 0.052, -286.45, -227.6)" gradientUnits="userSpaceOnUse" id="gradient19" r="819.2" spreadMethod="pad">
      <stop offset="0.0" stop-color="#000000"/>
      <stop offset="1.0" stop-color="#000000"/>
    </radialGradient>
    <radialGradient cx="0" cy="0" gradientTransform="matrix(0.0455, 0.0, 0.0, 0.0455, -264.15, -263.85)" gradientUnits="userSpaceOnUse" id="gradient20" r="819.2" spreadMethod="pad">
      <stop offset="0.0" stop-color="#000000"/>
      <stop offset="1.0" stop-color="#000000"/>
    </radialGradient>
    <radialGradient cx="0" cy="0" gradientTransform="matrix(0.0859, 0.0, 0.0, 0.0859, -145.4, -239.0)" gradientUnits="userSpaceOnUse" id="gradient21" r="819.2" spreadMethod="pad">
      <stop offset="0.0" stop-color="#000000"/>
      <stop offset="1.0" stop-color="#000000"/>
    </radialGradient>
    <radialGradient cx="0" cy="0" gradientTransform="matrix(0.0389, 0.0, 0.0, 0.0389, -88.8, -214.95)" gradientUnits="userSpaceOnUse" id="gradient22" r="819.2" spreadMethod="pad">
      <stop offset="0.0" stop-color="#000000"/>
      <stop offset="1.0" stop-color="#000000"/>
    </radialGradient>
    <radialGradient cx="0" cy="0" gradientTransform="matrix(0.05, 0.0, 0.0, 0.05, -32.5, -232.7)" gradientUnits="userSpaceOnUse" id="gradient23" r="819.2" spreadMethod="pad">
      <stop offset="0.0" stop-color="#000000"/>
      <stop offset="1.0" stop-color="#000000"/>
    </radialGradient>
    <radialGradient cx="0" cy="0" gradientTransform="matrix(0.0546, 0.0, 0.0, 0.0546, -32.5, -232.7)" gradientUnits="userSpaceOnUse" id="gradient24" r="819.2" spreadMethod="pad">
      <stop offset="0.0" stop-color="#000000"/>
      <stop offset="1.0" stop-color="#000000"/>
    </radialGradient>
    <radialGradient cx="0" cy="0" gradientTransform="matrix(0.0347, 0.0, 0.0, 0.0347, -32.5, -232.7)" gradientUnits="userSpaceOnUse" id="gradient25" r="819.2" spreadMethod="pad">
      <stop offset="0.0" stop-color="#000000"/>
      <stop offset="1.0" stop-color="#000000"/>
    </radialGradient>
    <radialGradient cx="0" cy="0" gradientTransform="matrix(0.058, 0.0, 0.0, 0.058, -281.0, -203.35)" gradientUnits="userSpaceOnUse" id="gradient26" r="819.2" spreadMethod="pad">
      <stop offset="0.0" stop-color="#171717"/>
      <stop offset="1.0" stop-color="#000000"/>
    </radialGradient>
    <radialGradient cx="0" cy="0" gradientTransform="matrix(0.0926, 0.0, 0.0, 0.0926, -320.8, -172.45)" gradientUnits="userSpaceOnUse" id="gradient27" r="819.2" spreadMethod="pad">
      <stop offset="0.0" stop-color="#6a6a6a"/>
      <stop offset="1.0" stop-color="#000000"/>
    </radialGradient>
    <radialGradient cx="0" cy="0" gradientTransform="matrix(0.0338, 0.0, 0.0, 0.0338, -283.45, -243.2)" gradientUnits="userSpaceOnUse" id="gradient28" r="819.2" spreadMethod="pad">
      <stop offset="0.0" stop-color="#0d0d0d"/>
      <stop offset="1.0" stop-color="#000000"/>
    </radialGradient>
    <radialGradient cx="0" cy="0" gradientTransform="matrix(0.0537, 0.0, 0.0, 0.0537, -329.2, -196.7)" gradientUnits="userSpaceOnUse" id="gradient29" r="819.2" spreadMethod="pad">
      <stop offset="0.0" stop-color="#0f0f0f"/>
      <stop offset="1.0" stop-color="#000000"/>
    </radialGradient>
    <radialGradient cx="0" cy="0" gradientTransform="matrix(0.0886, 0.0, 0.0, 0.0886, -37.85, -178.8)" gradientUnits="userSpaceOnUse" id="gradient30" r="819.2" spreadMethod="pad">
      <stop offset="0.0" stop-color="#161616"/>
      <stop offset="1.0" stop-color="#000000"/>
    </radialGradient>
    <radialGradient cx="0" cy="0" gradientTransform="matrix(0.0549, 0.0, 0.0, 0.0549, -283.1, -228.85)" gradientUnits="userSpaceOnUse" id="gradient31" r="819.2" spreadMethod="pad">
      <stop offset="0.0" stop-color="#000000"/>
      <stop offset="1.0" stop-color="#000000"/>
    </radialGradient>
    <radialGradient cx="0" cy="0" gradientTransform="matrix(0.0325, 0.0, 0.0, 0.0325, -187.6, -218.95)" gradientUnits="userSpaceOnUse" id="gradient32" r="819.2" spreadMethod="pad">
      <stop offset="0.0" stop-color="#595959"/>
      <stop offset="1.0" stop-color="#000000"/>
    </radialGradient>
    <radialGradient cx="0" cy="0" gradientTransform="matrix(0.05, 0.0, 0.0, 0.05, -37.85, -178.8)" gradientUnits="userSpaceOnUse" id="gradient33" r="819.2" spreadMethod="pad">
      <stop offset="0.0" stop-color="#161616"/>
      <stop offset="1.0" stop-color="#000000"/>
    </radialGradient>
    <radialGradient cx="0" cy="0" gradientTransform="matrix(0.0608, 0.0, 0.0, 0.0608, -314.1, -120.9)" gradientUnits="userSpaceOnUse" id="gradient34" r="819.2" spreadMethod="pad">
      <stop offset="0.0" stop-color="#292929"/>
      <stop offset="1.0" stop-color="#000000"/>
    </radialGradient>
    <radialGradient cx="0" cy="0" gradientTransform="matrix(0.0603, 0.0, 0.0, 0.0603, -296.75, -90.05)" gradientUnits="userSpaceOnUse" id="gradient35" r="819.2" spreadMethod="pad">
      <stop offset="0.0" stop-color="#3a3a3a"/>
      <stop offset="1.0" stop-color="#0c0c0c"/>
    </radialGradient>
    <radialGradient cx="0" cy="0" gradientTransform="matrix(0.0296, 0.0, 0.0, 0.0296, -314.1, -120.9)" gradientUnits="userSpaceOnUse" id="gradient36" r="819.2" spreadMethod="pad">
      <stop offset="0.0" stop-color="#292929"/>
      <stop offset="1.0" stop-color="#000000"/>
    </radialGradient>
    <radialGradient cx="0" cy="0" gradientTransform="matrix(0.0463, 0.0, 0.0, 0.0463, -314.1, -120.9)" gradientUnits="userSpaceOnUse" id="gradient37" r="819.2" spreadMethod="pad">
      <stop offset="0.0" stop-color="#292929"/>
      <stop offset="1.0" stop-color="#010101"/>
    </radialGradient>
    <radialGradient cx="0" cy="0" gradientTransform="matrix(0.0646, 0.0, 0.0, 0.0646, -347.45, -124.1)" gradientUnits="userSpaceOnUse" id="gradient38" r="819.2" spreadMethod="pad">
      <stop offset="0.0" stop-color="#393939"/>
      <stop offset="1.0" stop-color="#000000"/>
    </radialGradient>
    <radialGradient cx="0" cy="0" gradientTransform="matrix(0.065, 0.0, 0.0, 0.065, -324.85, -78.55)" gradientUnits="userSpaceOnUse" id="gradient39" r="819.2" spreadMethod="pad">
      <stop offset="0.0" stop-color="#505050"/>
      <stop offset="1.0" stop-color="#000000"/>
    </radialGradient>
    <radialGradient cx="0" cy="0" gradientTransform="matrix(0.1482, 0.0, 0.0, 0.1482, -191.65, -31.6)" gradientUnits="userSpaceOnUse" id="gradient40" r="819.2" spreadMethod="pad">
      <stop offset="0.0" stop-color="#666666"/>
      <stop offset="1.0" stop-color="#111111"/>
    </radialGradient>
    <radialGradient cx="0" cy="0" gradientTransform="matrix(0.0722, 0.0, 0.0, 0.0722, -191.65, -31.6)" gradientUnits="userSpaceOnUse" id="gradient41" r="819.2" spreadMethod="pad">
      <stop offset="0.0" stop-color="#666666"/>
      <stop offset="1.0" stop-color="#0a0a0a"/>
    </radialGradient>
    <radialGradient cx="0" cy="0" gradientTransform="matrix(0.0364, 0.0, 0.0, 0.0364, -314.05, -54.25)" gradientUnits="userSpaceOnUse" id="gradient42" r="819.2" spreadMethod="pad">
      <stop offset="0.0" stop-color="#858585"/>
      <stop offset="1.0" stop-color="#000000"/>
    </radialGradient>
    <radialGradient cx="0" cy="0" gradientTransform="matrix(0.0792, 0.0, 0.0, 0.0792, -298.1, -34.1)" gradientUnits="userSpaceOnUse" id="gradient43" r="819.2" spreadMethod="pad">
      <stop offset="0.0" stop-color="#000000"/>
      <stop offset="1.0" stop-color="#000000"/>
    </radialGradient>
    <radialGradient cx="0" cy="0" gradientTransform="matrix(0.047, 0.0, 0.0, 0.047, -309.8, -1.0)" gradientUnits="userSpaceOnUse" id="gradient44" r="819.2" spreadMethod="pad">
      <stop offset="0.0" stop-color="#5e5e5e"/>
      <stop offset="1.0" stop-color="#010101"/>
    </radialGradient>
    <radialGradient cx="0" cy="0" gradientTransform="matrix(0.0383, 0.0, 0.0, 0.0383, -184.3, -1.0)" gradientUnits="userSpaceOnUse" id="gradient45" r="819.2" spreadMethod="pad">
      <stop offset="0.0" stop-color="#777777"/>
      <stop offset="1.0" stop-color="#666666"/>
    </radialGradient>
  </defs>
</svg>
