<?xml version="1.0" encoding="UTF-8" standalone="no"?>
<svg xmlns:xlink="http://www.w3.org/1999/xlink" height="299.1px" width="389.85px" xmlns="http://www.w3.org/2000/svg">
  <g transform="matrix(1.0, 0.0, 0.0, 1.0, 390.75, 300.0)">
    <path d="M-175.25 -283.4 Q-193.4 -264.0 -220.5 -258.65 L-221.15 -260.0 -221.0 -262.75 -221.4 -262.9 -225.0 -265.0 -229.75 -266.4 -236.0 -268.4 -235.0 -267.0 -242.0 -268.75 -244.4 -268.4 -252.4 -268.5 -256.15 -267.65 -260.25 -267.4 -261.5 -262.4 -267.5 -264.65 -278.4 -270.9 -285.65 -276.15 -297.4 -287.0 -306.4 -300.0 -190.5 -300.0 -188.25 -294.75 -188.0 -294.5 -174.75 -295.5 -175.25 -283.4 M-182.25 -300.0 L-188.25 -294.75 -187.4 -300.0 -182.25 -300.0" fill="url(#gradient0)" fill-rule="evenodd" stroke="none"/>
    <path d="M-188.25 -294.75 L-190.5 -300.0 -187.4 -300.0 -188.25 -294.75" fill="url(#gradient1)" fill-rule="evenodd" stroke="none"/>
    <path d="M-182.25 -300.0 L-143.65 -300.0 -152.0 -283.25 Q-162.25 -268.75 -175.5 -260.9 L-176.5 -270.9 -175.15 -279.75 -175.25 -283.4 -174.75 -295.5 -188.0 -294.5 -188.25 -294.75 -182.25 -300.0" fill="url(#gradient2)" fill-rule="evenodd" stroke="none"/>
    <path d="M-175.5 -260.9 L-190.65 -252.15 -190.25 -254.75 -190.9 -254.75 -204.5 -252.0 -207.25 -251.9 -218.9 -253.25 -220.5 -258.65 Q-193.4 -264.0 -175.25 -283.4 L-175.15 -279.75 -176.5 -270.9 -175.5 -260.9 M-306.4 -300.0 L-297.4 -287.0 -285.65 -276.15 -278.4 -270.9 -267.5 -264.65 -261.5 -262.4 -261.5 -261.15 -270.75 -258.65 -276.4 -256.65 -276.75 -256.65 -277.15 -255.9 -298.5 -265.25 -306.4 -277.9 -306.75 -278.15 -309.15 -277.0 -319.0 -288.15 -319.15 -287.5 -315.65 -280.15 -315.9 -279.9 -322.65 -292.25 -328.25 -299.9 -306.4 -300.0" fill="url(#gradient3)" fill-rule="evenodd" stroke="none"/>
    <path d="M-261.5 -262.4 L-260.25 -267.4 -256.15 -267.65 -252.4 -268.5 -244.4 -268.4 -242.0 -268.75 -235.0 -267.0 -231.25 -262.5 -231.25 -260.9 -233.15 -257.75 -234.4 -255.0 -248.0 -258.9 -249.5 -258.9 -276.4 -256.65 -270.75 -258.65 -261.5 -261.15 -261.5 -262.4" fill="url(#gradient4)" fill-rule="evenodd" stroke="none"/>
    <path d="M-235.0 -267.0 L-236.0 -268.4 -229.75 -266.4 -231.25 -262.5 -235.0 -267.0" fill="url(#gradient5)" fill-rule="evenodd" stroke="none"/>
    <path d="M-229.75 -266.4 L-225.0 -265.0 -221.4 -262.9 -221.65 -260.25 -223.9 -261.65 -224.25 -261.4 -222.75 -255.15 -223.0 -254.65 -225.25 -254.65 -226.75 -255.25 -229.75 -256.65 -231.25 -260.9 -231.25 -262.5 -229.75 -266.4" fill="url(#gradient6)" fill-rule="evenodd" stroke="none"/>
    <path d="M-0.9 -271.9 L-0.9 -269.65 -2.4 -269.15 -2.75 -270.5 -2.0 -271.4 -0.9 -271.9" fill="url(#gradient7)" fill-rule="evenodd" stroke="none"/>
    <path d="M-0.9 -271.9 L-2.0 -271.4 -2.75 -270.5 -2.4 -269.15 -2.9 -269.0 -3.15 -270.75 -1.25 -273.15 -0.9 -273.25 -0.9 -271.9" fill="url(#gradient8)" fill-rule="evenodd" stroke="none"/>
    <path d="M-0.9 -268.4 L-1.15 -267.9 -2.9 -269.0 -2.4 -269.15 -0.9 -268.4" fill="url(#gradient9)" fill-rule="evenodd" stroke="none"/>
    <path d="M-2.4 -269.15 L-0.9 -269.65 -0.9 -268.4 -2.4 -269.15" fill="url(#gradient10)" fill-rule="evenodd" stroke="none"/>
    <path d="M-221.4 -262.9 L-221.0 -262.75 -221.15 -260.0 -221.5 -259.9 -221.65 -260.25 -221.4 -262.9" fill="url(#gradient11)" fill-rule="evenodd" stroke="none"/>
    <path d="M-220.5 -258.65 L-218.9 -253.25 -223.4 -253.75 -225.25 -254.65 -223.0 -254.65 -222.75 -255.15 -224.25 -261.4 -223.9 -261.65 -221.65 -260.25 -221.5 -259.9 -221.15 -260.0 -220.5 -258.65 M-226.75 -255.25 L-233.15 -257.75 -231.25 -260.9 -229.75 -256.65 -226.75 -255.25" fill="url(#gradient12)" fill-rule="evenodd" stroke="none"/>
    <path d="M-226.9 -254.15 L-227.15 -254.15 -229.75 -254.5 -230.25 -254.5 -230.75 -254.65 -231.25 -254.65 -231.65 -254.75 -234.4 -255.0 -233.15 -257.75 -226.75 -255.25 -225.25 -254.65 -223.4 -253.75 -226.9 -254.15" fill="url(#gradient13)" fill-rule="evenodd" stroke="none"/>
    <path d="M-234.4 -255.0 L-234.15 -254.65 -235.4 -254.5 -233.75 -253.15 -224.25 -219.0 -225.4 -209.9 Q-238.9 -221.5 -260.9 -216.25 -278.4 -211.0 -285.9 -195.4 L-287.0 -189.75 -288.4 -186.75 -290.15 -178.75 -289.65 -169.9 -287.15 -162.9 -286.75 -160.15 -283.65 -152.5 -278.0 -145.25 -274.5 -142.5 -264.9 -139.25 -254.15 -134.15 -251.9 -133.65 -264.65 -133.9 -302.65 -135.65 -305.4 -135.0 -305.9 -138.5 -307.0 -140.9 -305.4 -142.65 -304.65 -145.5 -301.5 -148.75 -298.9 -155.0 -298.65 -163.15 -293.65 -172.4 -291.75 -180.9 -292.25 -189.65 -287.25 -197.0 -285.75 -204.0 -286.25 -209.9 -289.0 -214.5 -292.75 -216.25 -292.5 -216.75 -292.9 -217.5 -294.4 -218.25 -299.15 -218.0 -281.25 -244.75 -279.75 -248.75 -279.0 -250.65 -277.0 -255.75 -277.15 -255.9 -276.75 -256.65 -276.4 -256.65 -249.5 -258.9 -248.0 -258.9 -234.4 -255.0 M-232.5 -135.65 L-232.5 -133.25 -238.9 -133.4 -234.25 -134.65 -232.5 -135.65 M-307.65 -135.0 L-306.65 -134.65 -307.4 -134.5 -307.65 -135.0" fill="url(#gradient14)" fill-rule="evenodd" stroke="none"/>
    <path d="M-279.0 -250.65 L-279.75 -248.75 -304.25 -225.4 -298.65 -240.5 -279.0 -250.65" fill="url(#gradient15)" fill-rule="evenodd" stroke="none"/>
    <path d="M-312.25 -232.75 L-312.25 -232.9 -312.0 -233.4 -298.65 -240.5 -304.25 -225.4 -304.5 -224.9 -303.25 -217.5 -307.5 -216.65 -313.0 -214.65 -316.5 -212.75 -317.25 -213.9 -312.25 -232.75" fill="url(#gradient16)" fill-rule="evenodd" stroke="none"/>
    <path d="M-312.25 -232.75 L-317.25 -213.9 -316.5 -212.75 Q-330.9 -205.65 -336.9 -188.0 -340.65 -169.4 -334.9 -159.5 L-340.15 -154.9 -340.15 -154.75 -340.75 -154.4 -342.5 -152.75 -341.9 -152.4 -358.25 -145.9 -374.65 -158.4 -379.15 -168.5 -378.5 -169.4 -378.15 -169.75 -378.0 -169.75 -363.15 -180.4 -324.15 -215.0 -319.65 -221.75 -319.5 -222.15 -312.25 -232.75" fill="url(#gradient17)" fill-rule="evenodd" stroke="none"/>
    <path d="M-319.5 -222.15 L-319.65 -221.75 -324.15 -215.0 -363.15 -180.4 -378.0 -169.75 -357.5 -188.4 -340.15 -205.25 -319.5 -222.15" fill="url(#gradient18)" fill-rule="evenodd" stroke="none"/>
    <path d="M-193.65 -233.75 L-192.4 -204.75 -201.4 -192.65 -202.9 -219.15 -232.5 -253.0 -232.15 -253.9 -230.65 -254.25 -234.15 -254.65 -234.4 -255.0 -231.65 -254.75 -231.25 -254.65 -230.75 -254.65 -230.25 -254.5 -229.75 -254.5 -227.15 -254.15 -226.9 -254.15 -194.25 -249.65 -193.65 -233.75" fill="url(#gradient19)" fill-rule="evenodd" stroke="none"/>
    <path d="M-207.25 -251.9 L-189.15 -249.5 -185.4 -247.25 -171.25 -237.15 -172.25 -237.4 -178.4 -235.0 -193.9 -249.65 -194.25 -249.65 -226.9 -254.15 -223.4 -253.75 -218.9 -253.25 -207.25 -251.9" fill="url(#gradient20)" fill-rule="evenodd" stroke="none"/>
    <path d="M-178.4 -235.0 L-193.65 -233.75 -194.25 -249.65 -193.9 -249.65 -178.4 -235.0" fill="url(#gradient21)" fill-rule="evenodd" stroke="none"/>
    <path d="M-90.9 -197.5 L-107.0 -175.9 -115.5 -156.75 -129.75 -158.5 -143.75 -165.15 -161.15 -175.65 -181.4 -183.25 -192.4 -204.75 -193.65 -233.75 -178.4 -235.0 -146.75 -221.4 -125.75 -213.25 -90.9 -197.5" fill="url(#gradient22)" fill-rule="evenodd" stroke="none"/>
    <path d="M-234.15 -254.65 L-230.65 -254.25 -232.15 -253.9 -232.5 -253.0 -233.75 -253.15 -235.4 -254.5 -234.15 -254.65" fill="url(#gradient23)" fill-rule="evenodd" stroke="none"/>
    <path d="M-232.5 -253.0 L-202.9 -219.15 -201.4 -192.65 Q-201.0 -191.5 -193.65 -189.0 L-191.5 -186.0 -194.9 -138.65 Q-195.65 -140.4 -205.65 -141.65 L-232.5 -133.25 -232.5 -135.65 -228.25 -136.75 -221.9 -140.9 -216.25 -147.5 -215.5 -149.25 -209.25 -154.5 -204.9 -161.75 -203.15 -170.9 -203.65 -180.65 -206.65 -188.65 -208.25 -191.0 -210.75 -197.0 -216.65 -204.65 Q-218.75 -207.65 -225.4 -209.9 L-224.25 -219.0 -233.75 -253.15 -232.5 -253.0" fill="url(#gradient24)" fill-rule="evenodd" stroke="none"/>
    <path d="M-251.9 -133.65 L-254.15 -134.15 -264.9 -139.25 -274.5 -142.5 -278.0 -145.25 -283.65 -152.5 -286.75 -160.15 -287.15 -162.9 -289.65 -169.9 -290.15 -178.75 -288.4 -186.75 -287.0 -189.75 -285.9 -195.4 Q-278.4 -211.0 -260.9 -216.25 -238.9 -221.5 -225.4 -209.9 -218.75 -207.65 -216.65 -204.65 L-210.75 -197.0 -208.25 -191.0 -206.65 -188.65 -203.65 -180.65 -203.15 -170.9 -204.9 -161.75 -209.25 -154.5 -215.5 -149.25 -216.25 -147.5 -221.9 -140.9 -228.25 -136.75 -232.5 -135.65 -234.25 -134.65 -238.9 -133.4 -245.25 -132.9 -251.9 -133.65" fill="url(#gradient25)" fill-rule="evenodd" stroke="none"/>
    <path d="M-305.4 -135.0 L-302.65 -135.65 -264.65 -133.9 -251.9 -133.65 -245.25 -132.9 -238.9 -133.4 -232.5 -133.25 -245.75 -86.4 -251.0 -17.75 -272.5 -18.25 -307.0 -23.9 -309.0 -26.75 -303.25 -90.15 -307.4 -134.5 -306.65 -134.65 -305.4 -135.0" fill="url(#gradient26)" fill-rule="evenodd" stroke="none"/>
    <path d="M-299.15 -218.0 L-294.4 -218.25 -292.9 -217.5 -292.5 -216.75 -292.75 -216.25 -289.0 -214.5 -286.25 -209.9 -285.75 -204.0 -287.25 -197.0 -292.25 -189.65 -291.75 -180.9 -293.65 -172.4 -298.65 -163.15 -298.9 -155.0 -301.5 -148.75 -304.65 -145.5 -305.4 -142.65 -307.0 -140.9 -305.9 -138.5 -305.4 -135.0 -306.65 -134.65 -307.65 -135.0 Q-323.9 -139.25 -334.65 -158.75 L-334.9 -159.5 Q-340.65 -169.4 -336.9 -188.0 -330.9 -205.65 -316.5 -212.75 L-313.0 -214.65 -307.5 -216.65 -303.25 -217.5 -299.15 -218.0" fill="url(#gradient27)" fill-rule="evenodd" stroke="none"/>
    <path d="M-279.75 -248.75 L-281.25 -244.75 -299.15 -218.0 -303.25 -217.5 -304.5 -224.9 -304.25 -225.4 -279.75 -248.75" fill="url(#gradient28)" fill-rule="evenodd" stroke="none"/>
    <path d="M-90.4 -197.65 L-90.9 -197.5 -125.75 -213.25 -146.75 -221.4 -178.4 -235.0 -172.25 -237.4 -171.25 -237.15 -133.5 -221.15 -83.65 -200.65 -90.4 -197.65" fill="url(#gradient29)" fill-rule="evenodd" stroke="none"/>
    <path d="M-65.15 -203.25 L-61.4 -199.65 -90.4 -197.65 -83.65 -200.65 -65.15 -203.25" fill="url(#gradient30)" fill-rule="evenodd" stroke="none"/>
    <path d="M-0.9 -232.25 L-13.4 -226.0 -38.15 -211.65 -61.4 -199.65 -65.15 -203.25 -28.25 -225.0 -2.25 -238.4 -0.9 -238.9 -0.9 -232.25" fill="url(#gradient31)" fill-rule="evenodd" stroke="none"/>
    <path d="M-38.15 -211.65 L-13.4 -226.0 -0.9 -232.25 -0.9 -189.0 -20.65 -179.15 -20.9 -192.4 -38.15 -211.65" fill="url(#gradient32)" fill-rule="evenodd" stroke="none"/>
    <path d="M-38.15 -211.65 L-20.9 -192.4 -61.4 -199.65 -38.15 -211.65" fill="url(#gradient33)" fill-rule="evenodd" stroke="none"/>
    <path d="M-20.9 -192.4 L-41.9 -180.5 -47.0 -163.5 -66.0 -152.65 -115.5 -156.75 -107.0 -175.9 -90.9 -197.5 -90.4 -197.65 -61.4 -199.65 -20.9 -192.4" fill="url(#gradient34)" fill-rule="evenodd" stroke="none"/>
    <path d="M-192.4 -204.75 L-181.4 -183.25 -191.4 -186.0 -191.5 -186.0 -193.65 -189.0 Q-201.0 -191.5 -201.4 -192.65 L-192.4 -204.75" fill="url(#gradient35)" fill-rule="evenodd" stroke="none"/>
    <path d="M-20.9 -192.4 L-20.65 -179.15 -47.0 -163.5 -41.9 -180.5 -20.9 -192.4" fill="url(#gradient36)" fill-rule="evenodd" stroke="none"/>
    <path d="M-379.15 -168.5 L-374.65 -158.4 -358.25 -145.9 -358.0 -145.0 -356.5 -130.25 -356.15 -129.65 -352.4 -119.9 -372.0 -118.65 -377.4 -114.5 -387.65 -131.0 -390.75 -143.5 -389.75 -150.9 -379.5 -168.4 -379.15 -168.5" fill="url(#gradient37)" fill-rule="evenodd" stroke="none"/>
    <path d="M-349.65 -68.0 L-349.65 -68.15 -350.0 -68.65 -350.0 -68.75 -360.9 -86.9 -361.4 -87.15 -369.25 -101.9 -372.15 -106.0 -374.15 -109.15 -374.15 -109.25 -374.4 -109.5 -374.5 -109.75 -377.4 -114.5 -372.0 -118.65 -352.4 -119.9 -344.25 -95.5 -337.0 -83.65 -336.5 -83.4 -331.5 -73.15 -324.25 -62.65 -330.15 -60.0 Q-330.4 -62.0 -338.4 -63.4 L-341.4 -61.4 -342.65 -58.5 -349.65 -68.0" fill="url(#gradient38)" fill-rule="evenodd" stroke="none"/>
    <path d="M-352.4 -119.9 L-356.15 -129.65 -342.15 -112.0 -342.15 -111.65 -352.4 -119.9" fill="url(#gradient39)" fill-rule="evenodd" stroke="none"/>
    <path d="M-356.15 -129.65 L-356.5 -130.25 -358.0 -145.0 -342.15 -112.0 -356.15 -129.65" fill="url(#gradient40)" fill-rule="evenodd" stroke="none"/>
    <path d="M-358.25 -145.9 L-341.9 -152.4 -337.25 -156.25 -347.0 -139.4 -341.4 -130.15 -341.75 -111.25 -342.15 -111.65 -342.15 -112.0 -358.0 -145.0 -358.25 -145.9" fill="url(#gradient41)" fill-rule="evenodd" stroke="none"/>
    <path d="M-341.9 -152.4 L-342.5 -152.75 -340.75 -154.4 -340.15 -154.75 -340.15 -154.9 -335.5 -158.0 -337.25 -156.25 -341.9 -152.4" fill="url(#gradient42)" fill-rule="evenodd" stroke="none"/>
    <path d="M-340.15 -154.9 L-334.9 -159.5 -334.65 -158.75 -335.0 -158.4 -335.5 -158.15 -335.5 -158.0 -340.15 -154.9" fill="url(#gradient43)" fill-rule="evenodd" stroke="none"/>
    <path d="M-232.5 -133.25 L-205.65 -141.65 Q-195.65 -140.4 -194.9 -138.65 L-201.5 -83.65 -202.25 -64.4 -206.0 -24.5 -218.5 -21.25 -251.0 -17.75 -245.75 -86.4 -232.5 -133.25" fill="url(#gradient44)" fill-rule="evenodd" stroke="none"/>
    <path d="M-247.25 -0.9 L-251.0 -17.75 -218.5 -21.25 -206.0 -24.5 -201.65 -0.9 -247.25 -0.9" fill="url(#gradient45)" fill-rule="evenodd" stroke="none"/>
    <path d="M-341.75 -111.25 L-325.9 -89.9 -321.4 -80.0 -313.25 -70.4 -309.75 -59.0 -311.9 -59.5 Q-313.65 -66.25 -320.5 -68.65 -326.0 -68.5 -321.15 -62.0 L-324.25 -62.65 -331.5 -73.15 -336.5 -83.4 -337.0 -83.65 -344.25 -95.5 -352.4 -119.9 -342.15 -111.65 -341.75 -111.25" fill="url(#gradient46)" fill-rule="evenodd" stroke="none"/>
    <path d="M-311.5 -58.15 Q-310.65 -43.15 -325.75 -39.65 -344.15 -40.65 -343.0 -56.9 L-342.65 -58.5 -341.4 -61.4 -338.4 -63.4 Q-330.4 -62.0 -330.15 -60.0 L-324.25 -62.65 -321.15 -62.0 Q-326.0 -68.5 -320.5 -68.65 -313.65 -66.25 -311.9 -59.5 L-311.5 -58.15" fill="url(#gradient47)" fill-rule="evenodd" stroke="none"/>
    <path d="M-343.0 -56.9 L-349.65 -68.0 -342.65 -58.5 -343.0 -56.9 M-350.0 -68.75 L-361.65 -86.5 -373.4 -107.75 -372.15 -106.0 -369.25 -101.9 -361.4 -87.15 -360.9 -86.9 -350.0 -68.75" fill="url(#gradient48)" fill-rule="evenodd" stroke="none"/>
    <path d="M-373.4 -107.75 L-373.4 -107.9 -373.75 -108.4 -374.15 -109.15 -372.15 -106.0 -373.4 -107.75" fill="url(#gradient49)" fill-rule="evenodd" stroke="none"/>
    <path d="M-309.75 -59.0 L-311.5 -58.15 -311.9 -59.5 -309.75 -59.0" fill="url(#gradient50)" fill-rule="evenodd" stroke="none"/>
    <path d="M-309.0 -26.75 L-307.0 -23.9 -272.5 -18.25 -251.0 -17.75 -247.25 -0.9 -319.75 -0.9 -319.9 -1.25 -309.0 -26.75" fill="url(#gradient51)" fill-rule="evenodd" stroke="none"/>
    <path d="M-235.5 -265.65 L-229.9 -266.0 -229.25 -266.25 -228.9 -266.25 -227.65 -266.4 -227.15 -266.4 -226.75 -266.5 -226.5 -266.5 -226.25 -266.4 -226.5 -265.4 -226.5 -265.25 -227.15 -262.75 -229.5 -263.5 -230.65 -263.75 -230.65 -264.0 -233.0 -264.65 -233.25 -264.9 -235.5 -265.65" fill="#a90000" fill-rule="evenodd" stroke="none"/>
    <path d="M-235.5 -265.65 L-233.25 -264.9 -233.0 -264.65 -230.65 -264.0 -230.65 -263.75 -229.5 -263.5 -227.15 -262.75 -226.5 -265.25 -226.5 -265.4 -226.25 -266.4 -219.75 -263.0 -216.65 -259.65 -216.5 -259.4 -216.25 -259.4 -215.0 -257.65 -212.75 -255.65 -212.65 -255.15 -214.0 -252.65 -219.15 -253.25 -219.15 -254.4 -219.65 -255.4 -220.75 -256.15 -221.65 -257.4 -223.65 -259.25 -223.9 -259.9 -224.0 -260.0 -224.75 -260.5 -224.9 -260.9 -227.15 -262.75 -228.4 -256.0 -228.5 -255.75 -228.9 -254.4 -228.75 -254.25 -229.0 -252.15 -229.65 -249.65 -229.5 -249.25 -230.75 -242.5 -230.65 -241.4 -231.9 -234.5 -242.5 -217.25 -242.65 -217.25 -245.5 -212.5 -245.9 -212.25 -247.9 -208.75 -237.25 -204.0 -237.25 -203.75 -236.9 -203.75 -236.15 -203.5 -222.25 -197.15 -222.15 -196.9 -220.65 -196.15 -228.9 -195.0 -229.25 -195.0 -247.0 -192.4 -247.65 -192.15 -262.0 -190.15 -260.5 -194.9 -260.4 -195.15 -257.9 -202.9 -257.75 -203.15 -256.5 -207.15 -255.15 -209.4 -254.9 -209.65 -254.0 -210.9 -250.4 -216.9 -250.15 -217.15 -249.9 -217.65 -249.4 -218.25 -239.65 -233.9 -238.0 -241.9 -238.15 -242.4 -235.65 -255.4 -235.9 -255.5 -235.15 -258.0 -235.25 -258.75 -235.4 -259.0 -235.65 -263.75 -235.5 -265.65 M-285.15 -262.15 L-280.5 -261.4 -280.0 -261.15 -272.4 -259.75 -270.0 -258.9 -273.9 -257.5 -276.75 -258.5 -277.15 -258.75 -286.75 -260.5 -285.15 -262.15" fill="#9b0000" fill-opacity="0.9098039" fill-rule="evenodd" stroke="none"/>
    <path d="M-332.0 -178.75 L-324.25 -172.5 -323.15 -171.75 -323.0 -171.4 -307.4 -159.4 -307.25 -159.0 -299.0 -152.5 -295.9 -150.25 -287.9 -156.15 -287.75 -156.4 -285.65 -157.75 -285.4 -158.25 -283.75 -159.25 -273.65 -166.9 -273.5 -167.25 -268.25 -171.15 -266.9 -174.5 -267.0 -174.75 -266.75 -175.0 -263.65 -185.4 -263.4 -185.65 -262.25 -189.5 -262.0 -190.15 -247.65 -192.15 -247.0 -192.4 -229.25 -195.0 -228.9 -195.0 -220.65 -196.15 -220.75 -194.4 -221.0 -194.0 -220.9 -193.65 -221.15 -192.5 -221.15 -190.0 -221.65 -185.5 -221.65 -184.75 -223.25 -167.25 -223.25 -166.25 -223.9 -160.4 -223.9 -159.4 -224.25 -158.15 -224.25 -157.5 -224.5 -156.65 -225.15 -150.75 -225.25 -147.75 -225.5 -145.4 -225.65 -144.9 -225.75 -143.15 -226.0 -141.9 -226.0 -140.75 -226.15 -140.15 -226.25 -138.5 -226.4 -137.9 -226.5 -136.15 -226.75 -134.9 -226.75 -134.15 -266.0 -136.4 -299.4 -136.75 -308.15 -137.5 -308.4 -137.75 -308.5 -137.75 -312.0 -138.15 -315.15 -138.25 -315.25 -138.25 -321.15 -141.9 -328.0 -148.5 -328.4 -149.0 -333.0 -155.65 -333.15 -156.0 -334.65 -158.75 -336.4 -163.15 -336.5 -163.5 -336.5 -163.9 -338.15 -170.4 -338.25 -171.75 -338.15 -172.25 -338.4 -177.5 -338.25 -180.25 -336.75 -187.25 -334.0 -182.5 -333.9 -181.9 -333.75 -181.9 -332.0 -178.75 M-257.4 -162.15 L-257.65 -161.9 -257.75 -161.65 -257.9 -161.4 -257.75 -161.0 -257.25 -160.0 -257.0 -159.0 -256.0 -160.4 -255.9 -161.25 -256.25 -161.75 -257.15 -162.5 -257.4 -162.15 M-329.4 -156.4 L-329.4 -156.25 -329.15 -155.75 -328.9 -156.25 -329.4 -156.4 -329.0 -156.75 -329.15 -156.9 -330.25 -159.15 -329.4 -156.4" fill="#b00000" fill-opacity="0.9098039" fill-rule="evenodd" stroke="none"/>
    <path d="M-290.15 -261.5 L-285.15 -262.15 -286.75 -260.5 -288.15 -260.75 -288.75 -260.9 -290.15 -261.5" fill="#ac0000" fill-rule="evenodd" stroke="none"/>
    <path d="M-290.9 -261.25 L-290.15 -261.5 -288.75 -260.9 -290.9 -261.25" fill="#ad0000" fill-rule="evenodd" stroke="none"/>
    <path d="M-305.0 -237.25 L-300.9 -252.0 -294.65 -258.15 -290.9 -261.25 -288.75 -260.9 -288.15 -260.75 -287.0 -260.15 -294.5 -252.9 -297.65 -241.15 -297.65 -241.0 -297.9 -240.9 -305.0 -237.25" fill="#ae0000" fill-opacity="0.9098039" fill-rule="evenodd" stroke="none"/>
    <path d="M-340.25 -193.65 L-340.4 -193.9 -328.75 -206.15 -328.0 -207.4 -315.4 -220.9 -315.0 -221.75 -307.0 -230.25 -305.25 -236.9 -305.0 -237.25 -297.9 -240.9 -300.4 -231.0 -303.15 -228.25 -303.65 -227.25 -316.25 -212.9 -316.4 -212.9 -316.9 -212.4 -317.0 -212.25 -317.25 -212.15 -317.5 -211.9 -317.9 -211.75 -317.65 -211.65 -318.15 -211.15 -318.4 -210.65 -318.65 -210.5 -322.25 -206.25 -322.75 -205.9 -324.5 -200.75 -326.65 -194.15 -326.9 -193.75 -329.65 -185.25 -329.9 -184.75 -332.0 -178.75 -333.75 -181.9 -333.9 -181.9 -334.0 -182.5 -336.75 -187.25 -337.15 -187.75 -336.9 -187.9 -336.25 -189.25 -336.15 -190.0 -340.0 -193.5 -340.25 -193.65 M-286.75 -260.5 L-287.0 -260.15 -288.15 -260.75 -286.75 -260.5" fill="#9e0000" fill-opacity="0.9098039" fill-rule="evenodd" stroke="none"/>
    <path d="M-337.65 -155.4 L-337.9 -155.9 -338.5 -156.5 -344.4 -163.4 -344.5 -163.25 -344.65 -163.65 -345.0 -163.9 -345.9 -164.9 -345.75 -165.75 -345.9 -166.25 -342.75 -181.15 -342.9 -181.65 -342.65 -182.0 -341.5 -187.5 -341.5 -188.75 -340.25 -193.65 -340.0 -193.5 -337.5 -189.0 -337.65 -188.75 -336.9 -187.9 -337.15 -187.75 -336.75 -187.25 -338.25 -180.25 -338.4 -177.5 -338.15 -172.25 -338.25 -171.75 -338.15 -170.4 -336.5 -163.9 -336.5 -163.5 -336.4 -163.15 -334.65 -158.75 -335.0 -158.4 -335.5 -158.15 -335.5 -158.0 -337.25 -156.25 -337.65 -155.4" fill="#c40000" fill-rule="evenodd" stroke="none"/>
    <path d="M-321.25 -137.0 L-321.4 -137.25 -337.65 -155.4 -337.25 -156.25 -335.5 -158.0 -335.5 -158.15 -335.0 -158.4 -334.65 -158.75 -333.15 -156.0 -333.0 -155.65 -328.4 -149.0 -328.0 -148.5 -321.15 -141.9 -315.25 -138.25 -315.4 -138.15 -321.25 -137.0" fill="#c60000" fill-rule="evenodd" stroke="none"/>
    <path d="M-336.9 -187.9 L-337.65 -188.75 -337.5 -189.0 -340.0 -193.5 -336.15 -190.0 -336.25 -189.25 -336.9 -187.9" fill="#b10000" fill-rule="evenodd" stroke="none"/>
    <path d="M-220.65 -196.15 L-209.75 -187.5 -209.65 -187.15 -204.75 -183.5 -204.4 -182.9 -198.5 -178.25 -198.25 -177.9 -194.75 -175.25 -194.65 -174.9 -193.4 -173.9 -192.5 -173.4 -192.4 -173.0 -194.5 -144.15 -203.4 -141.4 -203.75 -141.4 -205.4 -140.75 -226.75 -134.15 -226.75 -134.9 -226.5 -136.15 -226.4 -137.9 -226.25 -138.5 -226.15 -140.15 -226.0 -140.75 -226.0 -141.9 -225.75 -143.15 -225.65 -144.9 -225.5 -145.4 -225.25 -147.75 -225.15 -150.75 -224.5 -156.65 -224.25 -157.5 -224.25 -158.15 -223.9 -159.4 -223.9 -160.4 -223.25 -166.25 -223.25 -167.25 -221.65 -184.75 -221.65 -185.5 -221.15 -190.0 -221.15 -192.5 -220.9 -193.65 -221.0 -194.0 -220.75 -194.4 -220.65 -196.15" fill="#d80000" fill-opacity="0.9098039" fill-rule="evenodd" stroke="none"/>
    <path d="M-226.75 -134.15 L-205.4 -140.75 -203.75 -141.4 -203.4 -141.4 -194.5 -144.15 -195.25 -136.15 -195.15 -135.9 -195.4 -135.5 -195.25 -135.4 -201.4 -84.25 -202.4 -65.75 -202.25 -64.75 -204.15 -44.9 -204.0 -43.9 -206.0 -25.65 -206.0 -24.5 -204.9 -18.9 -204.15 -15.0 -204.25 -14.75 -215.0 -11.75 -222.15 -10.75 -222.4 -10.65 -232.0 -9.65 -232.0 -9.4 -248.9 -7.9 -249.15 -7.75 -252.0 -7.5 -250.5 -14.75 -250.5 -16.15 -250.25 -16.75 -250.15 -17.9 -247.25 -32.75 -246.9 -37.65 -246.9 -38.25 -247.0 -38.65 -246.75 -39.15 -246.75 -40.75 -246.5 -42.4 -245.15 -60.9 -245.25 -61.4 -245.0 -61.65 -244.9 -63.65 -243.25 -83.5 -243.25 -83.75 -243.0 -84.25 -242.9 -84.65 -242.75 -85.0 -242.65 -85.4 -242.5 -85.75 -242.5 -86.0 -240.5 -91.9 -240.4 -92.4 -240.25 -92.75 -240.15 -93.15 -240.0 -93.5 -239.9 -93.9 -239.75 -94.25 -239.65 -94.65 -239.5 -95.0 -239.4 -95.4 -239.25 -95.75 -239.15 -96.15 -239.0 -96.5 -238.9 -96.9 -238.75 -97.25 -236.75 -103.4 -236.65 -103.9 -236.5 -104.25 -236.4 -104.65 -236.25 -105.0 -236.15 -105.4 -236.0 -105.75 -235.9 -106.15 -235.75 -106.5 -235.65 -106.9 -235.5 -107.25 -235.4 -107.65 -235.25 -108.0 -235.15 -108.4 -235.0 -108.75 -234.65 -110.0 -233.0 -114.9 -232.9 -115.4 -232.75 -115.75 -232.65 -116.15 -232.5 -116.5 -232.4 -116.9 -232.25 -117.25 -232.15 -117.65 -232.0 -118.0 -231.9 -118.4 -231.75 -118.75 -231.65 -119.15 -231.5 -119.5 -231.4 -119.9 -231.25 -120.25 -230.9 -121.5 -230.65 -122.25 -230.5 -123.4 -230.15 -123.75 -229.25 -126.4 -229.15 -126.9 -229.0 -127.25 -228.9 -127.65 -228.75 -128.0 -228.65 -128.4 -228.5 -128.75 -228.4 -129.15 -228.25 -129.5 -228.15 -129.9 -228.0 -130.25 -227.9 -130.65 -227.75 -131.0 -227.65 -131.4 -227.5 -131.75 -226.75 -134.15" fill="#dd0000" fill-opacity="0.9098039" fill-rule="evenodd" stroke="none"/>
    <path d="M-192.4 -173.0 L-191.65 -172.65 -179.25 -154.4 -179.15 -144.4 -180.0 -143.75 -183.9 -141.5 -184.75 -142.5 -193.65 -144.4 -194.5 -144.15 -192.4 -173.0" fill="#ee0000" fill-opacity="0.9098039" fill-rule="evenodd" stroke="none"/>
    <path d="M-319.9 -18.9 L-319.75 -19.25 -320.0 -41.4 -318.0 -42.75 -317.65 -43.15 -317.5 -43.15 -315.5 -45.0 -313.75 -47.5 -313.75 -47.65 -313.5 -47.9 -313.4 -48.15 -313.15 -48.4 -313.15 -48.5 -313.0 -48.65 -312.4 -50.4 -312.25 -50.65 -312.25 -50.75 -312.15 -50.9 -312.0 -52.4 -311.4 -53.9 -311.25 -54.15 -311.5 -55.15 -311.4 -56.9 -311.5 -58.15 -309.75 -59.0 -313.25 -70.4 -313.65 -70.5 -317.15 -74.9 -317.25 -75.25 -315.9 -90.9 -321.25 -137.0 -315.4 -138.15 -315.25 -138.25 -315.15 -138.25 -314.25 -137.75 -307.65 -135.15 -307.65 -135.0 -307.4 -134.5 -307.0 -132.4 -303.25 -90.15 -307.15 -48.5 -307.15 -45.9 -309.15 -26.75 -309.25 -26.65 -309.15 -26.25 -314.25 -14.5 -317.9 -15.25 -319.9 -18.9" fill="#bd0000" fill-rule="evenodd" stroke="none"/>
    <path d="M-226.75 -134.15 L-227.5 -131.75 -227.65 -131.4 -227.75 -131.0 -227.9 -130.65 -228.0 -130.25 -228.15 -129.9 -228.25 -129.5 -228.4 -129.15 -228.5 -128.75 -228.65 -128.4 -228.75 -128.0 -228.9 -127.65 -229.0 -127.25 -229.15 -126.9 -229.25 -126.4 -230.15 -123.75 -230.5 -123.4 -230.65 -122.25 -230.9 -121.5 -231.25 -120.25 -231.4 -119.9 -231.5 -119.5 -231.65 -119.15 -231.75 -118.75 -231.9 -118.4 -232.0 -118.0 -232.15 -117.65 -232.25 -117.25 -232.4 -116.9 -232.5 -116.5 -232.65 -116.15 -232.75 -115.75 -232.9 -115.4 -233.0 -114.9 -234.65 -110.0 -235.0 -108.75 -235.15 -108.4 -235.25 -108.0 -235.4 -107.65 -235.5 -107.25 -235.65 -106.9 -235.75 -106.5 -235.9 -106.15 -236.0 -105.75 -236.15 -105.4 -236.25 -105.0 -236.4 -104.65 -236.5 -104.25 -236.65 -103.9 -236.75 -103.4 -238.75 -97.25 -238.9 -96.9 -239.0 -96.5 -239.15 -96.15 -239.25 -95.75 -239.4 -95.4 -239.5 -95.0 -239.65 -94.65 -239.75 -94.25 -239.9 -93.9 -240.0 -93.5 -240.15 -93.15 -240.25 -92.75 -240.4 -92.4 -240.5 -91.9 -242.5 -86.0 -242.5 -85.75 -242.65 -85.4 -242.75 -85.0 -242.9 -84.65 -243.0 -84.25 -243.25 -83.75 -243.25 -83.5 -244.9 -63.65 -245.0 -61.65 -245.25 -61.4 -245.15 -60.9 -246.5 -42.4 -246.75 -40.75 -246.75 -39.15 -247.0 -38.65 -246.9 -38.25 -246.9 -37.65 -247.25 -32.75 -250.15 -17.9 -250.25 -16.75 -250.5 -16.15 -250.5 -14.75 -252.0 -7.5 -275.15 -7.75 -314.25 -14.5 -309.15 -26.25 -309.25 -26.65 -309.15 -26.75 -307.15 -45.9 -307.15 -48.5 -303.25 -90.15 -307.0 -132.4 -307.4 -134.5 -307.65 -135.0 -307.65 -135.15 -314.25 -137.75 -315.15 -138.25 -312.0 -138.15 -308.5 -137.75 -308.4 -137.75 -308.15 -137.5 -299.4 -136.75 -266.0 -136.4 -226.75 -134.15" fill="#a70000" fill-opacity="0.9098039" fill-rule="evenodd" stroke="none"/>
    <path d="M-319.9 -0.9 L-327.9 -0.9 -319.9 -18.9 -317.9 -15.25 -314.25 -14.5 -319.9 -0.9 M-320.0 -41.4 L-320.0 -43.9 -319.9 -44.15 -319.9 -45.65 -319.75 -45.9 -319.65 -47.4 -319.75 -47.75 -319.65 -48.0 -319.4 -50.15 -319.5 -50.4 -319.4 -50.65 -319.25 -53.25 -319.15 -53.5 -318.9 -56.15 -318.9 -56.5 -318.75 -56.75 -318.65 -59.15 -318.5 -59.5 -318.75 -59.75 -318.5 -60.25 -318.4 -62.0 -318.25 -62.4 -318.5 -63.4 -318.15 -64.0 -318.15 -64.5 -318.0 -65.25 -318.15 -65.5 -317.9 -66.75 -317.9 -66.9 -318.0 -67.15 -317.9 -67.4 -318.0 -67.65 -317.15 -74.9 -313.65 -70.5 -313.25 -70.4 -309.75 -59.0 -311.5 -58.15 -311.4 -56.9 -311.5 -55.15 -311.25 -54.15 -311.4 -53.9 -312.0 -52.4 -312.15 -50.9 -312.25 -50.75 -312.25 -50.65 -312.4 -50.4 -313.0 -48.65 -313.15 -48.5 -313.15 -48.4 -313.4 -48.15 -313.5 -47.9 -313.75 -47.65 -313.75 -47.5 -315.5 -45.0 -317.5 -43.15 -317.65 -43.15 -318.0 -42.75 -320.0 -41.4" fill="#bb0000" fill-rule="evenodd" stroke="none"/>
    <path d="M-180.0 -143.75 L-183.25 -140.65 -183.9 -141.5 -180.0 -143.75 M-204.15 -15.0 L-204.9 -18.9 -200.0 -16.25 -204.15 -15.0" fill="#ef0000" fill-rule="evenodd" stroke="none"/>
    <path d="M-195.25 -135.4 L-195.4 -135.5 -195.15 -135.9 -195.25 -136.15 -194.5 -144.15 -193.65 -144.4 -184.75 -142.5 -183.9 -141.5 -187.75 -139.0 -188.4 -138.65 -195.25 -135.4" fill="#f30000" fill-opacity="0.9098039" fill-rule="evenodd" stroke="none"/>
    <path d="M-191.5 -84.65 L-192.65 -60.65 -194.75 -36.75 -200.0 -16.25 -204.9 -18.9 -206.0 -24.5 -206.0 -25.65 -204.0 -43.9 -204.15 -44.9 -202.25 -64.75 -202.4 -65.75 -201.4 -84.25 -195.25 -135.4 -188.4 -138.65 -191.5 -84.65" fill="#ed0000" fill-rule="evenodd" stroke="none"/>
    <path d="M-183.25 -140.65 L-183.15 -140.5 -191.5 -84.65 -188.4 -138.65 -187.75 -139.0 -183.9 -141.5 -183.25 -140.65" fill="#f40000" fill-rule="evenodd" stroke="none"/>
    <path d="M-201.5 -0.9 L-250.4 -0.9 -252.0 -7.5 -249.15 -7.75 -248.9 -7.9 -232.0 -9.4 -232.0 -9.65 -222.4 -10.65 -222.15 -10.75 -215.0 -11.75 -204.25 -14.75 -201.5 -0.9" fill="#d60000" fill-opacity="0.9098039" fill-rule="evenodd" stroke="none"/>
    <path d="M-200.0 -16.25 L-196.9 -0.9 -201.5 -0.9 -204.25 -14.75 -204.15 -15.0 -200.0 -16.25" fill="#e90000" fill-rule="evenodd" stroke="none"/>
    <path d="M-250.4 -0.9 L-319.9 -0.9 -314.25 -14.5 -275.15 -7.75 -252.0 -7.5 -250.4 -0.9" fill="#a50000" fill-opacity="0.9098039" fill-rule="evenodd" stroke="none"/>
  </g>
  <defs>
    <radialGradient cx="0" cy="0" gradientTransform="matrix(0.0978, 0.0, 0.0, 0.0978, -248.95, -290.85)" gradientUnits="userSpaceOnUse" id="gradient0" r="819.2" spreadMethod="pad">
      <stop offset="0.0" stop-color="#7d7d7d"/>
      <stop offset="1.0" stop-color="#0a0a0a"/>
    </radialGradient>
    <radialGradient cx="0" cy="0" gradientTransform="matrix(0.0071, 0.0, 0.0, 0.0071, -188.25, -294.6)" gradientUnits="userSpaceOnUse" id="gradient1" r="819.2" spreadMethod="pad">
      <stop offset="0.0" stop-color="#1e1e1e"/>
      <stop offset="1.0" stop-color="#1d1d1d"/>
    </radialGradient>
    <radialGradient cx="0" cy="0" gradientTransform="matrix(0.0461, 0.0, 0.0, 0.0461, -152.2, -283.3)" gradientUnits="userSpaceOnUse" id="gradient2" r="819.2" spreadMethod="pad">
      <stop offset="0.0" stop-color="#414141"/>
      <stop offset="1.0" stop-color="#2f2f2f"/>
    </radialGradient>
    <radialGradient cx="0" cy="0" gradientTransform="matrix(0.1857, 0.0, 0.0, 0.1857, -176.05, -300.0)" gradientUnits="userSpaceOnUse" id="gradient3" r="819.2" spreadMethod="pad">
      <stop offset="0.0" stop-color="#494949"/>
      <stop offset="1.0" stop-color="#1a1a1a"/>
    </radialGradient>
    <radialGradient cx="0" cy="0" gradientTransform="matrix(0.0389, 0.0, 0.0, 0.0389, -261.0, -265.45)" gradientUnits="userSpaceOnUse" id="gradient4" r="819.2" spreadMethod="pad">
      <stop offset="0.0" stop-color="#1a1a1a"/>
      <stop offset="1.0" stop-color="#000000"/>
    </radialGradient>
    <radialGradient cx="0" cy="0" gradientTransform="matrix(0.0224, 0.0, 0.0, 0.0224, -242.85, -276.75)" gradientUnits="userSpaceOnUse" id="gradient5" r="819.2" spreadMethod="pad">
      <stop offset="0.0" stop-color="#797979"/>
      <stop offset="1.0" stop-color="#000000"/>
    </radialGradient>
    <radialGradient cx="0" cy="0" gradientTransform="matrix(0.3129, 0.0, 0.0, 0.3129, -221.0, -264.3)" gradientUnits="userSpaceOnUse" id="gradient6" r="819.2" spreadMethod="pad">
      <stop offset="0.0" stop-color="#101010"/>
      <stop offset="1.0" stop-color="#000000"/>
    </radialGradient>
    <radialGradient cx="0" cy="0" gradientTransform="matrix(0.0024, 0.0, 0.0, 0.0024, -2.55, -270.65)" gradientUnits="userSpaceOnUse" id="gradient7" r="819.2" spreadMethod="pad">
      <stop offset="0.0" stop-color="#030303"/>
      <stop offset="1.0" stop-color="#030303"/>
    </radialGradient>
    <radialGradient cx="0" cy="0" gradientTransform="matrix(0.0057, 0.0, 0.0, 0.0057, -2.95, -269.05)" gradientUnits="userSpaceOnUse" id="gradient8" r="819.2" spreadMethod="pad">
      <stop offset="0.0" stop-color="#040404"/>
      <stop offset="1.0" stop-color="#040404"/>
    </radialGradient>
    <radialGradient cx="0" cy="0" gradientTransform="matrix(0.0026, 0.0, 0.0, 0.0026, -2.95, -269.05)" gradientUnits="userSpaceOnUse" id="gradient9" r="819.2" spreadMethod="pad">
      <stop offset="0.0" stop-color="#040404"/>
      <stop offset="1.0" stop-color="#040404"/>
    </radialGradient>
    <radialGradient cx="0" cy="0" gradientTransform="matrix(0.0019, 0.0, 0.0, 0.0019, -2.4, -269.2)" gradientUnits="userSpaceOnUse" id="gradient10" r="819.2" spreadMethod="pad">
      <stop offset="0.0" stop-color="#030303"/>
      <stop offset="1.0" stop-color="#030303"/>
    </radialGradient>
    <radialGradient cx="0" cy="0" gradientTransform="matrix(0.3209, 0.0, 0.0, 0.3209, -220.95, -270.85)" gradientUnits="userSpaceOnUse" id="gradient11" r="819.2" spreadMethod="pad">
      <stop offset="0.0" stop-color="#1a1a1a"/>
      <stop offset="1.0" stop-color="#0b0b0b"/>
    </radialGradient>
    <radialGradient cx="0" cy="0" gradientTransform="matrix(0.0382, 0.0, 0.0, 0.0382, -221.05, -260.15)" gradientUnits="userSpaceOnUse" id="gradient12" r="819.2" spreadMethod="pad">
      <stop offset="0.0" stop-color="#7b7b7b"/>
      <stop offset="1.0" stop-color="#090909"/>
    </radialGradient>
    <radialGradient cx="0" cy="0" gradientTransform="matrix(0.0459, 0.0, 0.0, 0.0459, -233.25, -257.85)" gradientUnits="userSpaceOnUse" id="gradient13" r="819.2" spreadMethod="pad">
      <stop offset="0.0" stop-color="#000000"/>
      <stop offset="1.0" stop-color="#000000"/>
    </radialGradient>
    <radialGradient cx="0" cy="0" gradientTransform="matrix(0.1679, 0.0, 0.0, 0.1679, -302.55, -135.65)" gradientUnits="userSpaceOnUse" id="gradient14" r="819.2" spreadMethod="pad">
      <stop offset="0.0" stop-color="#6a6a6a"/>
      <stop offset="1.0" stop-color="#000000"/>
    </radialGradient>
    <radialGradient cx="0" cy="0" gradientTransform="matrix(0.0478, 0.0, 0.0, 0.0478, -276.25, -252.35)" gradientUnits="userSpaceOnUse" id="gradient15" r="819.2" spreadMethod="pad">
      <stop offset="0.0" stop-color="#000000"/>
      <stop offset="1.0" stop-color="#000000"/>
    </radialGradient>
    <radialGradient cx="0" cy="0" gradientTransform="matrix(0.0576, 0.0, 0.0, 0.0576, -299.25, -193.5)" gradientUnits="userSpaceOnUse" id="gradient16" r="819.2" spreadMethod="pad">
      <stop offset="0.0" stop-color="#171717"/>
      <stop offset="1.0" stop-color="#000000"/>
    </radialGradient>
    <radialGradient cx="0" cy="0" gradientTransform="matrix(0.0942, 0.0, 0.0, 0.0942, -344.3, -163.5)" gradientUnits="userSpaceOnUse" id="gradient17" r="819.2" spreadMethod="pad">
      <stop offset="0.0" stop-color="#6a6a6a"/>
      <stop offset="1.0" stop-color="#000000"/>
    </radialGradient>
    <radialGradient cx="0" cy="0" gradientTransform="matrix(0.0855, 0.0, 0.0, 0.0855, -357.5, -188.55)" gradientUnits="userSpaceOnUse" id="gradient18" r="819.2" spreadMethod="pad">
      <stop offset="0.0" stop-color="#0f0f0f"/>
      <stop offset="1.0" stop-color="#040404"/>
    </radialGradient>
    <radialGradient cx="0" cy="0" gradientTransform="matrix(0.0799, 0.0, 0.0, 0.0799, -192.3, -205.0)" gradientUnits="userSpaceOnUse" id="gradient19" r="819.2" spreadMethod="pad">
      <stop offset="0.0" stop-color="#595959"/>
      <stop offset="1.0" stop-color="#000000"/>
    </radialGradient>
    <radialGradient cx="0" cy="0" gradientTransform="matrix(0.0495, 0.0, 0.0, 0.0495, -194.25, -249.9)" gradientUnits="userSpaceOnUse" id="gradient20" r="819.2" spreadMethod="pad">
      <stop offset="0.0" stop-color="#000000"/>
      <stop offset="1.0" stop-color="#000000"/>
    </radialGradient>
    <radialGradient cx="0" cy="0" gradientTransform="matrix(0.0196, 0.0, 0.0, 0.0196, -193.55, -233.85)" gradientUnits="userSpaceOnUse" id="gradient21" r="819.2" spreadMethod="pad">
      <stop offset="0.0" stop-color="#000000"/>
      <stop offset="1.0" stop-color="#000000"/>
    </radialGradient>
    <radialGradient cx="0" cy="0" gradientTransform="matrix(0.1, 0.0, 0.0, 0.1, -172.7, -200.05)" gradientUnits="userSpaceOnUse" id="gradient22" r="819.2" spreadMethod="pad">
      <stop offset="0.0" stop-color="#616161"/>
      <stop offset="1.0" stop-color="#000000"/>
    </radialGradient>
    <radialGradient cx="0" cy="0" gradientTransform="matrix(0.1089, 0.0, 0.0, 0.1089, -230.65, -254.3)" gradientUnits="userSpaceOnUse" id="gradient23" r="819.2" spreadMethod="pad">
      <stop offset="0.0" stop-color="#000000"/>
      <stop offset="1.0" stop-color="#000000"/>
    </radialGradient>
    <radialGradient cx="0" cy="0" gradientTransform="matrix(0.1201, 0.0, 0.0, 0.1201, -195.45, -164.75)" gradientUnits="userSpaceOnUse" id="gradient24" r="819.2" spreadMethod="pad">
      <stop offset="0.0" stop-color="#3f3f3f"/>
      <stop offset="1.0" stop-color="#000000"/>
    </radialGradient>
    <radialGradient cx="0" cy="0" gradientTransform="matrix(0.0968, 0.0, 0.0, 0.0968, -268.3, -145.65)" gradientUnits="userSpaceOnUse" id="gradient25" r="819.2" spreadMethod="pad">
      <stop offset="0.0" stop-color="#878787"/>
      <stop offset="1.0" stop-color="#000000"/>
    </radialGradient>
    <radialGradient cx="0" cy="0" gradientTransform="matrix(0.157, 0.0, 0.0, 0.157, -302.55, -135.65)" gradientUnits="userSpaceOnUse" id="gradient26" r="819.2" spreadMethod="pad">
      <stop offset="0.0" stop-color="#6a6a6a"/>
      <stop offset="1.0" stop-color="#000000"/>
    </radialGradient>
    <radialGradient cx="0" cy="0" gradientTransform="matrix(0.0905, 0.0, 0.0, 0.0905, -317.15, -149.1)" gradientUnits="userSpaceOnUse" id="gradient27" r="819.2" spreadMethod="pad">
      <stop offset="0.0" stop-color="#858585"/>
      <stop offset="1.0" stop-color="#000000"/>
    </radialGradient>
    <radialGradient cx="0" cy="0" gradientTransform="matrix(0.0771, 0.0, 0.0, 0.0771, -299.25, -193.5)" gradientUnits="userSpaceOnUse" id="gradient28" r="819.2" spreadMethod="pad">
      <stop offset="0.0" stop-color="#171717"/>
      <stop offset="1.0" stop-color="#000000"/>
    </radialGradient>
    <radialGradient cx="0" cy="0" gradientTransform="matrix(0.0836, 0.0, 0.0, 0.0836, -148.6, -222.3)" gradientUnits="userSpaceOnUse" id="gradient29" r="819.2" spreadMethod="pad">
      <stop offset="0.0" stop-color="#000000"/>
      <stop offset="1.0" stop-color="#000000"/>
    </radialGradient>
    <radialGradient cx="0" cy="0" gradientTransform="matrix(0.036, 0.0, 0.0, 0.036, -90.8, -197.6)" gradientUnits="userSpaceOnUse" id="gradient30" r="819.2" spreadMethod="pad">
      <stop offset="0.0" stop-color="#000000"/>
      <stop offset="1.0" stop-color="#000000"/>
    </radialGradient>
    <radialGradient cx="0" cy="0" gradientTransform="matrix(0.0561, 0.0, 0.0, 0.0561, -38.1, -211.75)" gradientUnits="userSpaceOnUse" id="gradient31" r="819.2" spreadMethod="pad">
      <stop offset="0.0" stop-color="#000000"/>
      <stop offset="1.0" stop-color="#000000"/>
    </radialGradient>
    <radialGradient cx="0" cy="0" gradientTransform="matrix(0.053, 0.0, 0.0, 0.053, -38.1, -211.75)" gradientUnits="userSpaceOnUse" id="gradient32" r="819.2" spreadMethod="pad">
      <stop offset="0.0" stop-color="#000000"/>
      <stop offset="1.0" stop-color="#000000"/>
    </radialGradient>
    <radialGradient cx="0" cy="0" gradientTransform="matrix(0.032, 0.0, 0.0, 0.032, -38.1, -211.75)" gradientUnits="userSpaceOnUse" id="gradient33" r="819.2" spreadMethod="pad">
      <stop offset="0.0" stop-color="#000000"/>
      <stop offset="1.0" stop-color="#000000"/>
    </radialGradient>
    <radialGradient cx="0" cy="0" gradientTransform="matrix(0.0838, 0.0, 0.0, 0.0838, -47.05, -163.55)" gradientUnits="userSpaceOnUse" id="gradient34" r="819.2" spreadMethod="pad">
      <stop offset="0.0" stop-color="#161616"/>
      <stop offset="1.0" stop-color="#000000"/>
    </radialGradient>
    <radialGradient cx="0" cy="0" gradientTransform="matrix(0.0298, 0.0, 0.0, 0.0298, -192.3, -205.0)" gradientUnits="userSpaceOnUse" id="gradient35" r="819.2" spreadMethod="pad">
      <stop offset="0.0" stop-color="#595959"/>
      <stop offset="1.0" stop-color="#000000"/>
    </radialGradient>
    <radialGradient cx="0" cy="0" gradientTransform="matrix(0.0477, 0.0, 0.0, 0.0477, -47.05, -163.55)" gradientUnits="userSpaceOnUse" id="gradient36" r="819.2" spreadMethod="pad">
      <stop offset="0.0" stop-color="#161616"/>
      <stop offset="1.0" stop-color="#000000"/>
    </radialGradient>
    <radialGradient cx="0" cy="0" gradientTransform="matrix(0.0664, 0.0, 0.0, 0.0664, -377.4, -114.5)" gradientUnits="userSpaceOnUse" id="gradient37" r="819.2" spreadMethod="pad">
      <stop offset="0.0" stop-color="#393939"/>
      <stop offset="1.0" stop-color="#000000"/>
    </radialGradient>
    <radialGradient cx="0" cy="0" gradientTransform="matrix(0.0676, 0.0, 0.0, 0.0676, -349.35, -68.05)" gradientUnits="userSpaceOnUse" id="gradient38" r="819.2" spreadMethod="pad">
      <stop offset="0.0" stop-color="#505050"/>
      <stop offset="1.0" stop-color="#000000"/>
    </radialGradient>
    <radialGradient cx="0" cy="0" gradientTransform="matrix(0.0295, 0.0, 0.0, 0.0295, -341.75, -111.25)" gradientUnits="userSpaceOnUse" id="gradient39" r="819.2" spreadMethod="pad">
      <stop offset="0.0" stop-color="#292929"/>
      <stop offset="1.0" stop-color="#000000"/>
    </radialGradient>
    <radialGradient cx="0" cy="0" gradientTransform="matrix(0.0469, 0.0, 0.0, 0.0469, -341.75, -111.25)" gradientUnits="userSpaceOnUse" id="gradient40" r="819.2" spreadMethod="pad">
      <stop offset="0.0" stop-color="#292929"/>
      <stop offset="1.0" stop-color="#010101"/>
    </radialGradient>
    <radialGradient cx="0" cy="0" gradientTransform="matrix(0.0614, 0.0, 0.0, 0.0614, -341.75, -111.25)" gradientUnits="userSpaceOnUse" id="gradient41" r="819.2" spreadMethod="pad">
      <stop offset="0.0" stop-color="#292929"/>
      <stop offset="1.0" stop-color="#000000"/>
    </radialGradient>
    <radialGradient cx="0" cy="0" gradientTransform="matrix(0.0331, 0.0, 0.0, 0.0331, -342.65, -152.9)" gradientUnits="userSpaceOnUse" id="gradient42" r="819.2" spreadMethod="pad">
      <stop offset="0.0" stop-color="#000000"/>
      <stop offset="1.0" stop-color="#000000"/>
    </radialGradient>
    <radialGradient cx="0" cy="0" gradientTransform="matrix(0.0257, 0.0, 0.0, 0.0257, -326.85, -166.85)" gradientUnits="userSpaceOnUse" id="gradient43" r="819.2" spreadMethod="pad">
      <stop offset="0.0" stop-color="#000000"/>
      <stop offset="1.0" stop-color="#000000"/>
    </radialGradient>
    <radialGradient cx="0" cy="0" gradientTransform="matrix(0.143, 0.0, 0.0, 0.143, -206.05, -24.65)" gradientUnits="userSpaceOnUse" id="gradient44" r="819.2" spreadMethod="pad">
      <stop offset="0.0" stop-color="#666666"/>
      <stop offset="1.0" stop-color="#0e0e0e"/>
    </radialGradient>
    <radialGradient cx="0" cy="0" gradientTransform="matrix(0.0581, 0.0, 0.0, 0.0581, -206.05, -24.65)" gradientUnits="userSpaceOnUse" id="gradient45" r="819.2" spreadMethod="pad">
      <stop offset="0.0" stop-color="#666666"/>
      <stop offset="1.0" stop-color="#0a0a0a"/>
    </radialGradient>
    <radialGradient cx="0" cy="0" gradientTransform="matrix(0.0619, 0.0, 0.0, 0.0619, -321.3, -80.1)" gradientUnits="userSpaceOnUse" id="gradient46" r="819.2" spreadMethod="pad">
      <stop offset="0.0" stop-color="#3a3a3a"/>
      <stop offset="1.0" stop-color="#0c0c0c"/>
    </radialGradient>
    <radialGradient cx="0" cy="0" gradientTransform="matrix(0.0383, 0.0, 0.0, 0.0383, -311.9, -56.7)" gradientUnits="userSpaceOnUse" id="gradient47" r="819.2" spreadMethod="pad">
      <stop offset="0.0" stop-color="#858585"/>
      <stop offset="1.0" stop-color="#040404"/>
    </radialGradient>
    <radialGradient cx="0" cy="0" gradientTransform="matrix(0.0655, 0.0, 0.0, 0.0655, -349.35, -68.05)" gradientUnits="userSpaceOnUse" id="gradient48" r="819.2" spreadMethod="pad">
      <stop offset="0.0" stop-color="#505050"/>
      <stop offset="1.0" stop-color="#101010"/>
    </radialGradient>
    <radialGradient cx="0" cy="0" gradientTransform="matrix(0.0754, 0.0, 0.0, 0.0754, -369.5, -102.2)" gradientUnits="userSpaceOnUse" id="gradient49" r="819.2" spreadMethod="pad">
      <stop offset="0.0" stop-color="#3f3f3f"/>
      <stop offset="1.0" stop-color="#050505"/>
    </radialGradient>
    <radialGradient cx="0" cy="0" gradientTransform="matrix(0.021, 0.0, 0.0, 0.021, -313.4, -70.5)" gradientUnits="userSpaceOnUse" id="gradient50" r="819.2" spreadMethod="pad">
      <stop offset="0.0" stop-color="#373737"/>
      <stop offset="1.0" stop-color="#0c0c0c"/>
    </radialGradient>
    <radialGradient cx="0" cy="0" gradientTransform="matrix(0.0885, 0.0, 0.0, 0.0885, -319.9, -1.0)" gradientUnits="userSpaceOnUse" id="gradient51" r="819.2" spreadMethod="pad">
      <stop offset="0.0" stop-color="#424242"/>
      <stop offset="1.0" stop-color="#000000"/>
    </radialGradient>
  </defs>
</svg>
