<?xml version="1.0" encoding="UTF-8" standalone="no"?>
<svg xmlns:xlink="http://www.w3.org/1999/xlink" height="299.1px" width="393.75px" xmlns="http://www.w3.org/2000/svg">
  <g transform="matrix(1.0, 0.0, 0.0, 1.0, 394.65, 300.0)">
    <path d="M-188.75 -292.25 L-175.65 -293.0 -176.25 -282.65 Q-196.5 -261.25 -222.25 -257.0 L-222.9 -258.25 -222.75 -261.0 -223.15 -261.0 -227.0 -263.4 -231.25 -264.65 -237.25 -266.65 -236.15 -265.15 -242.4 -267.0 -253.65 -266.9 -258.0 -266.0 -261.65 -265.9 -262.15 -264.0 -262.9 -263.0 -263.0 -260.75 -269.9 -263.4 -279.75 -269.0 -284.25 -272.4 Q-301.75 -285.15 -308.75 -300.0 L-191.9 -300.0 -188.75 -292.25 M-188.5 -292.5 L-187.25 -300.0 -179.9 -300.0 -188.5 -292.5" fill="url(#gradient0)" fill-rule="evenodd" stroke="none"/>
    <path d="M-188.5 -292.5 L-188.75 -292.25 -191.9 -300.0 -187.25 -300.0 -188.5 -292.5" fill="url(#gradient1)" fill-rule="evenodd" stroke="none"/>
    <path d="M-179.9 -300.0 L-144.9 -300.0 -146.5 -295.75 -154.65 -280.75 -165.0 -268.9 -177.65 -258.75 -178.15 -267.75 -176.4 -276.65 -176.25 -282.65 -175.65 -293.0 -188.75 -292.25 -188.5 -292.5 -179.9 -300.0" fill="url(#gradient2)" fill-rule="evenodd" stroke="none"/>
    <path d="M-177.65 -258.75 L-178.75 -258.4 -178.9 -258.9 -179.4 -258.65 -193.25 -250.25 -193.4 -252.9 -194.0 -252.9 -209.4 -250.15 -220.65 -251.5 -222.25 -257.0 Q-196.5 -261.25 -176.25 -282.65 L-176.4 -276.65 -178.15 -267.75 -177.65 -258.75 M-277.4 -255.15 L-278.15 -253.75 -300.9 -264.0 -309.15 -277.15 -311.5 -275.9 -321.15 -286.9 -321.25 -286.25 -318.0 -279.75 -318.15 -279.25 -325.15 -292.0 -330.65 -299.9 -308.75 -300.0 Q-301.75 -285.15 -284.25 -272.4 L-279.75 -269.0 -269.9 -263.4 -263.0 -260.75 -262.9 -259.75 -277.4 -255.15" fill="url(#gradient3)" fill-rule="evenodd" stroke="none"/>
    <path d="M-222.25 -257.0 L-220.65 -251.5 -225.15 -252.0 -226.65 -252.9 -224.5 -252.9 -224.4 -253.65 -225.75 -259.9 -223.4 -258.5 -223.25 -258.15 -222.9 -258.25 -222.25 -257.0 M-234.4 -256.0 L-232.65 -259.0 -231.15 -254.9 -229.0 -253.9 -234.4 -256.0" fill="url(#gradient4)" fill-rule="evenodd" stroke="none"/>
    <path d="M-223.15 -261.0 L-222.75 -261.0 -222.9 -258.25 -223.25 -258.15 -223.4 -258.5 -223.15 -261.0" fill="url(#gradient5)" fill-rule="evenodd" stroke="none"/>
    <path d="M-232.65 -260.75 L-231.25 -264.65 -227.0 -263.4 -223.15 -261.0 -223.4 -258.5 -225.75 -259.9 -224.4 -253.65 -224.5 -252.9 -226.65 -252.9 -229.0 -253.9 -231.15 -254.9 -232.65 -259.0 -232.65 -260.75" fill="url(#gradient6)" fill-rule="evenodd" stroke="none"/>
    <path d="M-236.15 -265.15 L-237.25 -266.65 -231.25 -264.65 -232.65 -260.75 -236.15 -265.15" fill="url(#gradient7)" fill-rule="evenodd" stroke="none"/>
    <path d="M-236.15 -265.15 L-232.65 -260.75 -232.65 -259.0 -234.4 -256.0 -235.15 -253.25 -249.25 -257.25 -277.4 -255.15 -262.9 -259.75 -263.0 -260.75 -262.9 -263.0 -262.15 -264.0 -261.65 -265.9 -258.0 -266.0 -253.65 -266.9 -242.4 -267.0 -236.15 -265.15" fill="url(#gradient8)" fill-rule="evenodd" stroke="none"/>
    <path d="M-235.15 -253.25 L-234.9 -252.9 -236.15 -252.75 -234.5 -251.4 -224.65 -217.5 -225.65 -208.4 Q-237.9 -219.9 -261.65 -214.65 -278.25 -210.0 -286.0 -193.9 -286.4 -190.25 -287.0 -189.9 L-287.0 -188.5 -288.25 -186.15 -290.25 -177.65 -289.65 -168.65 -287.25 -162.25 -286.75 -159.0 -283.65 -151.4 -278.0 -144.15 -274.5 -141.4 -264.75 -138.15 -254.15 -133.0 -251.9 -132.5 -301.4 -134.5 -306.5 -134.0 -306.65 -137.4 -307.75 -139.9 -306.25 -141.15 Q-305.9 -144.9 -302.15 -147.15 L-301.25 -149.75 -299.15 -153.9 -298.75 -162.0 -293.75 -171.25 -291.9 -179.0 -292.5 -188.5 -288.15 -194.25 -287.4 -196.0 -286.0 -203.15 -286.75 -208.75 -289.65 -213.25 -293.4 -214.9 -293.65 -216.25 -295.65 -217.15 -300.5 -216.75 -281.5 -244.9 -281.5 -245.0 -280.4 -248.0 -280.15 -248.9 -279.9 -249.15 -279.75 -249.4 -279.75 -249.75 -278.15 -253.75 -277.4 -255.15 -249.25 -257.25 -235.15 -253.25 M-232.75 -134.5 L-232.75 -132.15 -239.15 -132.25 -234.5 -133.5 -232.75 -134.5 M-308.9 -134.0 L-307.9 -133.65 -308.65 -133.5 -308.9 -134.0" fill="url(#gradient9)" fill-rule="evenodd" stroke="none"/>
    <path d="M-225.15 -252.0 L-225.25 -252.0 -227.25 -252.25 -227.9 -252.4 -228.25 -252.4 -228.9 -252.5 -229.25 -252.5 -229.75 -252.65 -230.25 -252.65 -230.65 -252.75 -235.15 -253.25 -234.4 -256.0 -229.0 -253.9 -226.65 -252.9 -225.15 -252.0" fill="url(#gradient10)" fill-rule="evenodd" stroke="none"/>
    <path d="M-1.4 -288.0 L-1.5 -288.25 -1.65 -288.5 -1.65 -288.75 -1.25 -289.5 -0.9 -289.65 -0.9 -289.25 -1.25 -289.1 -1.15 -288.15 -1.4 -288.0 M-0.9 -287.9 L-0.9 -287.5 -1.25 -287.75 -0.9 -287.9" fill="url(#gradient11)" fill-rule="evenodd" stroke="none"/>
    <path d="M-0.9 -289.25 L-0.9 -287.9 -1.25 -287.75 -1.4 -288.0 -1.15 -288.15 -1.25 -289.1 -0.9 -289.25" fill="url(#gradient12)" fill-rule="evenodd" stroke="none"/>
    <path d="M-4.9 -265.4 L-4.9 -267.0 -0.9 -269.15 -0.9 -266.75 -4.9 -265.4" fill="url(#gradient13)" fill-rule="evenodd" stroke="none"/>
    <path d="M-5.25 -265.25 L-5.4 -267.0 -2.9 -269.9 -1.0 -271.4 -0.9 -269.15 -4.9 -267.0 -4.9 -265.4 -5.25 -265.25" fill="url(#gradient14)" fill-rule="evenodd" stroke="none"/>
    <path d="M-5.25 -265.25 L-4.9 -265.4 -0.9 -263.15 -1.5 -262.9 -5.25 -265.25" fill="url(#gradient15)" fill-rule="evenodd" stroke="none"/>
    <path d="M-0.9 -266.75 L-0.9 -263.15 -4.9 -265.4 -0.9 -266.75" fill="url(#gradient16)" fill-rule="evenodd" stroke="none"/>
    <path d="M-234.9 -252.9 L-235.15 -253.25 -230.65 -252.75 -230.25 -252.65 -229.75 -252.65 -229.25 -252.5 -228.9 -252.5 -228.25 -252.4 -227.9 -252.4 -227.25 -252.25 -225.25 -252.0 -225.15 -252.0 -195.25 -247.9 -195.0 -247.5 -194.15 -231.9 -193.0 -203.0 -202.25 -190.75 -203.4 -217.0 -233.25 -251.25 -232.9 -252.15 -231.4 -252.5 -234.9 -252.9" fill="url(#gradient17)" fill-rule="evenodd" stroke="none"/>
    <path d="M-234.9 -252.9 L-231.4 -252.5 -232.9 -252.15 -233.25 -251.25 -234.5 -251.4 -236.15 -252.75 -234.9 -252.9" fill="url(#gradient18)" fill-rule="evenodd" stroke="none"/>
    <path d="M-233.25 -251.25 L-203.4 -217.0 -202.25 -190.75 -194.65 -187.5 -193.15 -184.5 -196.5 -137.4 Q-197.0 -139.4 -206.0 -140.5 L-232.75 -132.15 -232.75 -134.5 -228.15 -135.75 -222.15 -139.75 -216.5 -146.4 -215.9 -148.0 -209.75 -153.25 -205.65 -160.15 -204.15 -168.25 Q-201.15 -177.9 -211.15 -195.25 L-217.0 -203.0 Q-219.5 -206.4 -225.65 -208.4 L-224.65 -217.5 -234.5 -251.4 -233.25 -251.25" fill="url(#gradient19)" fill-rule="evenodd" stroke="none"/>
    <path d="M-251.9 -132.5 L-254.15 -133.0 -264.75 -138.15 -274.5 -141.4 -278.0 -144.15 -283.65 -151.4 -286.75 -159.0 -287.25 -162.25 -289.65 -168.65 -290.25 -177.65 -288.25 -186.15 -287.0 -188.5 -287.0 -189.9 Q-286.4 -190.25 -286.0 -193.9 -278.25 -210.0 -261.65 -214.65 -237.9 -219.9 -225.65 -208.4 -219.5 -206.4 -217.0 -203.0 L-211.15 -195.25 Q-201.15 -177.9 -204.15 -168.25 L-205.65 -160.15 -209.75 -153.25 -215.9 -148.0 -216.5 -146.4 -222.15 -139.75 -228.15 -135.75 -232.75 -134.5 -234.5 -133.5 -239.15 -132.25 -241.65 -131.9 -247.9 -131.9 -251.9 -132.5" fill="url(#gradient20)" fill-rule="evenodd" stroke="none"/>
    <path d="M-306.5 -134.0 L-301.4 -134.5 -251.9 -132.5 -247.9 -131.9 -241.65 -131.9 -239.15 -132.25 -232.75 -132.15 -246.15 -85.65 -251.4 -17.15 -271.4 -17.4 -307.75 -23.0 -310.25 -25.9 -304.5 -89.5 -308.65 -133.5 -307.9 -133.65 -306.5 -134.0" fill="url(#gradient21)" fill-rule="evenodd" stroke="none"/>
    <path d="M-300.5 -216.75 L-295.65 -217.15 -293.65 -216.25 -293.4 -214.9 -289.65 -213.25 -286.75 -208.75 -286.0 -203.15 -287.4 -196.0 -288.15 -194.25 -292.5 -188.5 -291.9 -179.0 -293.75 -171.25 -298.75 -162.0 -299.15 -153.9 -301.25 -149.75 -302.15 -147.15 Q-305.9 -144.9 -306.25 -141.15 L-307.75 -139.9 -306.65 -137.4 -306.5 -134.0 -307.9 -133.65 -308.9 -134.0 Q-326.0 -138.75 -336.15 -159.15 L-336.5 -159.75 -337.5 -162.25 -339.4 -170.75 -339.4 -179.15 -337.75 -187.5 Q-331.5 -204.75 -318.25 -211.15 L-314.65 -213.15 -305.15 -216.25 -300.5 -216.75" fill="url(#gradient22)" fill-rule="evenodd" stroke="none"/>
    <path d="M-280.4 -248.0 L-281.5 -245.0 -281.5 -244.9 -300.5 -216.75 -305.15 -216.25 -306.4 -223.75 -306.15 -224.15 -280.4 -248.0" fill="url(#gradient23)" fill-rule="evenodd" stroke="none"/>
    <path d="M-279.75 -249.75 L-279.75 -249.4 -279.9 -249.15 -280.15 -248.9 -280.4 -248.0 -306.15 -224.15 -300.65 -238.5 -300.65 -239.25 -279.75 -249.75" fill="url(#gradient24)" fill-rule="evenodd" stroke="none"/>
    <path d="M-209.4 -250.15 L-190.65 -247.75 -173.0 -235.4 -179.0 -233.0 -194.65 -247.5 -195.0 -247.5 -195.25 -247.9 -225.15 -252.0 -220.65 -251.5 -209.4 -250.15" fill="url(#gradient25)" fill-rule="evenodd" stroke="none"/>
    <path d="M-300.65 -239.25 L-300.65 -238.5 -306.15 -224.15 -306.4 -223.75 -305.15 -216.25 -314.65 -213.15 -318.25 -211.15 -319.4 -212.9 -314.25 -231.9 -313.9 -232.5 -300.65 -239.25" fill="url(#gradient26)" fill-rule="evenodd" stroke="none"/>
    <path d="M-382.0 -168.65 L-366.5 -179.4 -326.5 -214.0 -321.5 -221.5 -314.25 -231.9 -319.4 -212.9 -318.25 -211.15 Q-331.5 -204.75 -337.75 -187.5 L-339.4 -179.15 -339.4 -170.75 -337.5 -162.25 -336.5 -159.75 -343.25 -153.9 -345.5 -152.0 -345.15 -151.4 -361.5 -145.0 -377.9 -157.5 -382.75 -167.9 -382.0 -168.65" fill="url(#gradient27)" fill-rule="evenodd" stroke="none"/>
    <path d="M-321.5 -221.5 L-326.5 -214.0 -366.5 -179.4 -382.0 -168.65 -360.15 -188.25 -343.15 -204.4 -327.4 -217.25 -321.5 -221.5" fill="url(#gradient28)" fill-rule="evenodd" stroke="none"/>
    <path d="M-91.15 -195.5 L-91.65 -195.4 -126.65 -211.25 -149.25 -220.0 -179.0 -233.0 -173.0 -235.4 -172.9 -235.4 -131.9 -217.9 -84.9 -198.5 -91.15 -195.5" fill="url(#gradient29)" fill-rule="evenodd" stroke="none"/>
    <path d="M-194.15 -231.9 L-195.0 -247.5 -194.65 -247.5 -179.0 -233.0 -194.15 -231.9" fill="url(#gradient30)" fill-rule="evenodd" stroke="none"/>
    <path d="M-91.65 -195.4 L-107.65 -174.15 -116.5 -155.15 -130.75 -157.0 -144.9 -163.65 -161.65 -173.75 -182.4 -181.75 -193.0 -203.0 -194.15 -231.9 -179.0 -233.0 -149.25 -220.0 -126.65 -211.25 -91.65 -195.4" fill="url(#gradient31)" fill-rule="evenodd" stroke="none"/>
    <path d="M-22.65 -190.0 L-43.4 -178.4 -48.75 -161.75 -68.0 -151.0 -116.5 -155.15 -107.65 -174.15 -91.65 -195.4 -91.15 -195.5 -62.65 -197.4 -22.65 -190.0" fill="url(#gradient32)" fill-rule="evenodd" stroke="none"/>
    <path d="M-66.4 -201.0 L-62.65 -197.4 -91.15 -195.5 -84.9 -198.5 -66.4 -201.0" fill="url(#gradient33)" fill-rule="evenodd" stroke="none"/>
    <path d="M-0.9 -230.15 L-15.25 -223.0 -39.65 -209.0 -62.65 -197.4 -66.4 -201.0 -29.5 -222.5 -2.0 -236.4 -0.9 -236.75 -0.9 -230.15" fill="url(#gradient34)" fill-rule="evenodd" stroke="none"/>
    <path d="M-39.65 -209.0 L-15.25 -223.0 -0.9 -230.15 -0.9 -188.0 -22.9 -177.0 -22.65 -190.0 -39.65 -209.0" fill="url(#gradient35)" fill-rule="evenodd" stroke="none"/>
    <path d="M-39.65 -209.0 L-22.65 -190.0 -62.65 -197.4 -39.65 -209.0" fill="url(#gradient36)" fill-rule="evenodd" stroke="none"/>
    <path d="M-202.25 -190.75 L-193.0 -203.0 -182.4 -181.75 -193.0 -184.5 -193.15 -184.5 -194.65 -187.5 -202.25 -190.75" fill="url(#gradient37)" fill-rule="evenodd" stroke="none"/>
    <path d="M-22.65 -190.0 L-22.9 -177.0 -48.75 -161.75 -43.4 -178.4 -22.65 -190.0" fill="url(#gradient38)" fill-rule="evenodd" stroke="none"/>
    <path d="M-343.25 -153.9 L-336.5 -159.75 -336.15 -159.15 -339.0 -156.75 -339.4 -156.65 -339.5 -156.4 -343.25 -153.9" fill="url(#gradient39)" fill-rule="evenodd" stroke="none"/>
    <path d="M-345.15 -151.4 L-345.5 -152.0 -343.25 -153.9 -339.5 -156.4 -341.15 -154.65 -345.15 -151.4" fill="url(#gradient40)" fill-rule="evenodd" stroke="none"/>
    <path d="M-361.5 -145.0 L-345.15 -151.4 -341.15 -154.65 -350.75 -138.15 -344.9 -129.0 -345.15 -110.4 -345.4 -110.65 -345.5 -111.15 -361.25 -144.15 -361.5 -145.0" fill="url(#gradient41)" fill-rule="evenodd" stroke="none"/>
    <path d="M-382.75 -167.9 L-377.9 -157.5 -361.5 -145.0 -361.25 -144.15 -359.75 -129.4 -359.25 -128.65 -355.5 -119.0 -375.15 -117.75 -381.0 -113.5 -391.65 -130.4 -394.65 -142.5 -393.75 -149.9 -382.75 -167.9" fill="url(#gradient42)" fill-rule="evenodd" stroke="none"/>
    <path d="M-379.15 -110.5 L-379.15 -110.65 -381.0 -113.5 -375.15 -117.75 -355.5 -119.0 -346.15 -93.4 -338.9 -82.15 -334.15 -72.5 -326.4 -61.65 -332.4 -59.0 Q-332.65 -61.15 -340.9 -62.4 L-343.9 -60.5 -345.25 -57.4 -352.65 -67.25 -365.15 -87.25 -372.9 -101.25 -377.4 -107.9 -379.15 -110.5" fill="url(#gradient43)" fill-rule="evenodd" stroke="none"/>
    <path d="M-355.5 -119.0 L-359.25 -128.65 -345.5 -111.15 -345.4 -110.65 -355.5 -119.0" fill="url(#gradient44)" fill-rule="evenodd" stroke="none"/>
    <path d="M-359.25 -128.65 L-359.75 -129.4 -361.25 -144.15 -345.5 -111.15 -359.25 -128.65" fill="url(#gradient45)" fill-rule="evenodd" stroke="none"/>
    <path d="M-232.75 -132.15 L-206.0 -140.5 Q-197.0 -139.4 -196.5 -137.4 L-203.4 -83.75 -204.25 -63.15 -207.9 -24.0 -220.15 -20.65 -251.4 -17.15 -246.15 -85.65 -232.75 -132.15" fill="url(#gradient46)" fill-rule="evenodd" stroke="none"/>
    <path d="M-247.75 -0.9 L-251.4 -17.15 -220.15 -20.65 -207.9 -24.0 -203.4 -0.9 -247.75 -0.9" fill="url(#gradient47)" fill-rule="evenodd" stroke="none"/>
    <path d="M-378.5 -109.4 L-378.9 -110.0 -379.15 -110.5 -377.4 -107.9 -378.5 -109.4" fill="url(#gradient48)" fill-rule="evenodd" stroke="none"/>
    <path d="M-345.65 -55.5 L-352.9 -67.4 -365.5 -86.25 -378.5 -109.4 -377.4 -107.9 -372.9 -101.25 -365.15 -87.25 -352.65 -67.25 -345.25 -57.4 -345.65 -55.5" fill="url(#gradient49)" fill-rule="evenodd" stroke="none"/>
    <path d="M-314.25 -57.25 Q-312.75 -42.65 -328.4 -38.65 -346.25 -39.25 -345.65 -55.5 L-345.25 -57.4 -343.9 -60.5 -340.9 -62.4 Q-332.65 -61.15 -332.4 -59.0 L-326.4 -61.65 -323.5 -61.0 -324.75 -63.25 -325.75 -66.65 -325.5 -67.4 -322.9 -67.65 Q-317.65 -66.5 -314.5 -58.5 L-314.25 -57.25" fill="url(#gradient50)" fill-rule="evenodd" stroke="none"/>
    <path d="M-345.15 -110.4 L-329.25 -89.65 -324.25 -79.0 -316.15 -69.5 -312.5 -58.15 -314.5 -58.5 Q-317.65 -66.5 -322.9 -67.65 L-325.5 -67.4 -325.75 -66.65 -324.75 -63.25 -323.5 -61.0 -326.4 -61.65 -334.15 -72.5 -338.9 -82.15 -346.15 -93.4 -355.5 -119.0 -345.4 -110.65 -345.15 -110.4" fill="url(#gradient51)" fill-rule="evenodd" stroke="none"/>
    <path d="M-312.5 -58.15 L-314.25 -57.25 -314.5 -58.5 -312.5 -58.15" fill="url(#gradient52)" fill-rule="evenodd" stroke="none"/>
    <path d="M-310.25 -25.9 L-307.75 -23.0 -271.4 -17.4 -251.4 -17.15 -247.75 -0.9 -320.9 -0.9 -314.0 -17.5 -314.0 -17.65 -313.65 -18.4 -313.5 -18.65 -313.25 -19.25 -313.25 -19.4 -313.15 -19.65 -313.0 -19.9 -310.25 -25.9" fill="url(#gradient53)" fill-rule="evenodd" stroke="none"/>
    <path d="M-320.9 -0.9 L-321.65 -1.15 -314.0 -17.5 -320.9 -0.9" fill="url(#gradient54)" fill-rule="evenodd" stroke="none"/>
    <path d="M-236.5 -263.75 L-230.4 -264.4 -226.9 -264.5 -227.65 -260.65 -234.4 -263.0 -234.65 -263.25 -236.5 -263.75" fill="#a90000" fill-rule="evenodd" stroke="none"/>
    <path d="M-226.9 -264.5 L-221.15 -261.4 -214.4 -253.5 -216.0 -250.9 -220.65 -251.5 -221.4 -253.65 -222.5 -254.4 -223.65 -256.15 -225.4 -257.9 -225.5 -258.25 -225.65 -258.4 -226.25 -258.75 -226.4 -259.25 -227.65 -260.25 -229.0 -253.9 -228.65 -253.65 -229.0 -252.5 -229.0 -252.4 -229.25 -250.15 -229.9 -247.4 -229.75 -247.0 -231.0 -239.9 -231.0 -238.75 -231.9 -233.0 -233.0 -231.5 -233.0 -231.15 -242.15 -215.65 -242.25 -215.65 -247.15 -207.25 -235.9 -202.0 -235.25 -201.9 -220.25 -194.65 -246.65 -190.9 -247.25 -190.65 -261.25 -188.75 -259.75 -193.25 -259.9 -193.5 -259.65 -193.75 -257.25 -201.5 -257.0 -201.75 -256.0 -205.25 -254.5 -208.0 -254.15 -208.25 -251.0 -213.65 -250.0 -215.5 -249.75 -215.65 -249.5 -216.15 -249.25 -216.4 -239.75 -232.25 -238.25 -239.9 -238.4 -240.5 -236.0 -252.65 -236.15 -252.9 -235.9 -253.5 -235.5 -256.15 -235.5 -256.25 -235.65 -256.75 -236.5 -263.75 -234.65 -263.25 -234.4 -263.0 -227.65 -260.65 -226.9 -264.5 M-286.4 -260.75 L-285.25 -260.5 -283.75 -260.4 -283.25 -260.15 -274.15 -258.4 -271.25 -257.4 -271.25 -257.25 -275.15 -256.0 -280.65 -257.9 -288.0 -259.15 -286.4 -260.75" fill="#9b0000" fill-opacity="0.9098039" fill-rule="evenodd" stroke="none"/>
    <path d="M-291.75 -259.9 L-286.4 -260.75 -288.0 -259.15 -291.0 -259.65 -291.75 -259.9" fill="#ac0000" fill-rule="evenodd" stroke="none"/>
    <path d="M-292.5 -260.0 L-292.15 -260.0 -291.75 -259.9 -292.5 -260.0" fill="#ad0000" fill-rule="evenodd" stroke="none"/>
    <path d="M-306.0 -236.65 L-302.0 -250.9 -292.5 -260.0 -291.75 -259.9 -291.0 -259.65 -288.65 -258.5 -295.65 -251.5 -298.65 -240.25 -298.75 -240.15 -306.0 -236.65" fill="#ae0000" fill-opacity="0.9098039" fill-rule="evenodd" stroke="none"/>
    <path d="M-341.5 -192.75 L-341.65 -193.0 -333.25 -201.15 -332.65 -202.15 -329.65 -204.9 -318.0 -217.9 -317.65 -218.75 -308.15 -229.15 -306.25 -236.4 -306.0 -236.5 -306.0 -236.65 -298.75 -240.15 -298.65 -239.9 -301.5 -229.75 -305.75 -225.0 -306.4 -223.9 -308.4 -221.9 -317.25 -211.5 -318.25 -210.4 -318.4 -210.15 -318.9 -209.5 -319.0 -209.5 -322.5 -205.4 -323.0 -204.9 -323.5 -204.0 -324.65 -200.15 -324.9 -199.75 -327.0 -193.15 -327.15 -192.9 -329.9 -184.4 -330.15 -183.9 -332.15 -177.65 -334.15 -180.75 -334.4 -181.0 -334.5 -181.65 -337.9 -186.65 -337.9 -187.15 -337.65 -187.5 -337.4 -188.15 -337.25 -188.75 -337.75 -189.15 -341.0 -192.25 -341.5 -192.75 M-288.0 -259.15 L-288.65 -258.5 -291.0 -259.65 -288.0 -259.15" fill="#9e0000" fill-opacity="0.9098039" fill-rule="evenodd" stroke="none"/>
    <path d="M-220.25 -194.65 L-220.0 -194.5 -220.0 -194.0 -220.15 -193.0 -220.4 -192.75 -220.25 -192.0 -220.25 -191.15 -220.4 -189.75 -220.65 -189.15 -220.65 -186.25 -221.0 -184.0 -221.0 -183.9 -221.15 -183.4 -221.75 -175.0 -221.9 -174.15 -222.5 -165.5 -222.75 -165.15 -223.0 -160.5 -223.15 -160.15 -223.65 -157.25 -223.9 -156.75 -223.65 -156.75 -223.65 -156.25 -224.4 -150.15 -224.5 -149.75 -224.5 -149.15 -224.65 -148.15 -224.65 -148.0 -225.15 -144.0 -225.4 -143.75 -225.65 -140.65 -225.65 -139.9 -225.9 -139.15 -225.9 -137.9 -226.15 -137.5 -226.15 -137.15 -226.4 -134.0 -226.4 -133.65 -226.5 -133.15 -234.9 -133.5 -257.65 -134.75 -258.15 -134.9 -296.75 -135.65 -309.0 -136.5 -309.4 -136.75 -311.5 -137.0 -311.9 -137.0 -312.75 -137.15 -314.0 -137.15 -314.15 -137.25 -316.15 -137.15 -316.25 -137.15 -322.9 -141.4 -323.0 -141.65 -329.15 -147.5 -334.15 -154.65 -336.15 -159.15 -336.5 -159.75 -337.5 -162.5 -337.5 -162.75 -339.4 -170.75 -339.25 -171.0 -339.4 -171.9 -339.4 -179.25 -339.15 -179.75 -337.9 -186.65 -334.5 -181.65 -334.4 -181.0 -334.15 -180.75 -332.15 -177.65 -323.4 -170.75 -323.25 -170.4 -307.65 -158.4 -307.5 -158.15 -302.75 -154.5 -302.5 -154.4 -299.9 -152.4 -300.0 -152.0 -299.75 -152.0 -295.9 -149.25 -295.25 -149.4 -287.9 -154.75 -287.75 -155.0 -285.75 -156.4 -285.4 -156.9 -283.5 -158.0 -280.15 -160.65 -279.75 -160.75 -273.15 -165.65 -273.0 -165.9 -267.5 -169.9 -266.15 -173.25 -266.25 -173.5 -266.0 -173.75 -262.75 -184.15 -262.65 -184.4 -261.5 -188.15 -261.25 -188.75 -247.25 -190.65 -246.65 -190.9 -220.25 -194.65 M-329.65 -155.4 L-331.0 -158.25 -330.15 -155.5 -330.0 -155.25 -330.0 -154.9 -329.75 -154.9 -329.65 -155.4 M-256.75 -160.9 L-257.0 -160.65 -257.25 -160.25 -257.25 -160.15 -257.15 -159.9 -257.15 -159.75 -256.65 -158.75 -256.5 -157.75 -255.25 -159.4 -255.4 -160.15 -255.65 -160.5 -256.5 -161.25 -256.75 -160.9" fill="#b00000" fill-opacity="0.9098039" fill-rule="evenodd" stroke="none"/>
    <path d="M-340.0 -155.75 L-340.25 -156.0 -340.5 -156.4 -346.0 -162.65 -346.15 -162.75 -346.4 -163.15 -347.25 -164.15 -343.75 -181.9 -343.65 -182.15 -343.25 -183.5 -343.4 -184.65 -341.5 -192.75 -341.0 -192.25 -338.65 -188.0 -337.9 -187.15 -337.9 -186.65 -339.15 -179.75 -339.4 -179.25 -339.4 -171.9 -339.25 -171.0 -339.4 -170.75 -337.5 -162.75 -337.5 -162.5 -336.5 -159.75 -336.15 -159.15 -339.0 -156.75 -339.4 -156.65 -339.5 -156.4 -340.0 -155.75" fill="#c40000" fill-rule="evenodd" stroke="none"/>
    <path d="M-341.0 -192.25 L-337.75 -189.15 -337.25 -188.75 -337.4 -188.15 -337.65 -187.5 -337.9 -187.15 -338.65 -188.0 -341.0 -192.25" fill="#b10000" fill-rule="evenodd" stroke="none"/>
    <path d="M-220.0 -194.5 L-218.9 -193.75 -215.5 -190.9 -215.15 -190.65 -210.15 -186.4 -209.9 -186.0 -207.4 -184.15 -207.4 -183.9 -205.65 -182.75 -205.25 -182.0 -203.0 -180.4 -202.9 -180.15 -199.65 -177.5 -199.4 -177.15 -195.9 -174.4 -195.75 -174.0 -194.9 -173.5 -194.75 -173.15 -194.0 -172.5 -196.0 -142.65 -196.5 -142.5 -196.65 -142.4 -203.75 -140.15 -204.25 -140.15 -226.5 -133.15 -226.4 -133.65 -226.4 -134.0 -226.15 -137.15 -226.15 -137.5 -225.9 -137.9 -225.9 -139.15 -225.65 -139.9 -225.65 -140.65 -225.4 -143.75 -225.15 -144.0 -224.65 -148.0 -224.65 -148.15 -224.5 -149.15 -224.5 -149.75 -224.4 -150.15 -223.65 -156.25 -223.65 -156.75 -223.9 -156.75 -223.65 -157.25 -223.15 -160.15 -223.0 -160.5 -222.75 -165.15 -222.5 -165.5 -221.9 -174.15 -221.75 -175.0 -221.15 -183.4 -221.0 -183.9 -221.0 -184.0 -220.65 -186.25 -220.65 -189.15 -220.4 -189.75 -220.25 -191.15 -220.25 -192.0 -220.4 -192.75 -220.15 -193.0 -220.0 -194.0 -220.0 -194.5" fill="#d80000" fill-opacity="0.9098039" fill-rule="evenodd" stroke="none"/>
    <path d="M-226.5 -133.15 L-204.25 -140.15 -203.75 -140.15 -196.65 -142.4 -196.5 -142.5 -196.15 -140.9 -196.4 -140.75 -196.9 -134.75 -197.0 -134.4 -197.0 -134.15 -196.9 -133.5 -203.4 -83.5 -204.4 -64.9 -204.25 -64.0 -206.0 -44.5 -206.0 -43.25 -207.9 -25.15 -207.9 -24.0 -206.75 -18.25 -206.0 -14.5 -206.15 -14.25 -211.25 -12.65 -211.5 -12.65 -215.0 -11.5 -215.5 -11.5 -215.75 -11.4 -224.25 -10.0 -225.5 -9.9 -225.9 -9.75 -242.65 -8.0 -243.15 -7.9 -252.15 -7.0 -250.75 -13.75 -250.75 -15.15 -250.4 -16.0 -250.5 -16.4 -250.25 -17.25 -247.4 -32.0 -247.0 -37.25 -247.15 -37.65 -246.75 -40.15 -245.25 -59.9 -245.4 -60.25 -245.0 -62.9 -243.5 -82.5 -243.5 -82.75 -243.25 -83.0 -243.15 -83.4 -243.0 -83.75 -242.9 -84.15 -242.75 -84.5 -242.65 -84.9 -242.65 -85.15 -242.25 -86.0 -242.15 -86.4 -242.0 -86.75 -241.9 -87.15 -241.75 -87.5 -241.65 -87.9 -241.5 -88.25 -241.4 -88.65 -241.25 -89.0 -241.15 -89.4 -241.0 -89.75 -240.9 -90.15 -240.75 -90.5 -240.65 -90.9 -240.5 -91.25 -240.4 -91.65 -240.25 -92.0 -240.15 -92.4 -240.0 -92.75 -239.9 -93.15 -239.75 -93.5 -239.65 -93.9 -239.5 -94.25 -239.4 -94.65 -239.25 -95.0 -239.15 -95.4 -239.0 -95.75 -238.9 -96.15 -232.75 -114.25 -232.65 -114.65 -232.5 -115.0 -232.4 -115.4 -232.25 -115.75 -232.15 -116.15 -232.0 -116.5 -231.9 -116.9 -231.75 -117.25 -231.65 -117.65 -231.5 -118.0 -231.4 -118.4 -231.25 -118.75 -231.15 -119.15 -231.0 -119.5 -230.9 -119.9 -230.75 -120.25 -230.65 -120.65 -230.65 -121.25 -230.5 -121.25 -230.25 -121.75 -230.15 -122.15 -230.0 -122.5 -229.9 -122.9 -229.75 -123.25 -229.65 -123.65 -229.5 -124.0 -229.4 -124.4 -229.25 -124.75 -229.15 -125.15 -229.0 -125.5 -228.9 -125.9 -228.75 -126.25 -228.65 -126.65 -228.5 -127.0 -228.4 -127.4 -228.25 -127.75 -228.15 -128.15 -228.0 -128.5 -227.9 -128.9 -227.75 -129.25 -227.65 -129.65 -227.5 -130.0 -227.4 -130.4 -227.25 -130.65 -227.0 -131.4 -226.5 -133.15" fill="#dd0000" fill-opacity="0.9098039" fill-rule="evenodd" stroke="none"/>
    <path d="M-196.5 -142.5 L-196.0 -142.65 -194.25 -143.25 -185.75 -141.25 -185.4 -140.65 -190.65 -137.5 -196.9 -134.75 -196.4 -140.75 -196.15 -140.9 -196.5 -142.5" fill="#f30000" fill-opacity="0.9098039" fill-rule="evenodd" stroke="none"/>
    <path d="M-194.0 -172.5 L-192.15 -171.15 -180.4 -152.65 -180.9 -143.25 -181.5 -142.75 -185.4 -140.65 -185.75 -141.25 -194.25 -143.25 -196.0 -142.65 -194.0 -172.5" fill="#ee0000" fill-opacity="0.9098039" fill-rule="evenodd" stroke="none"/>
    <path d="M-181.5 -142.75 L-184.75 -139.5 -185.4 -140.65 -181.5 -142.75 M-206.0 -14.5 L-206.75 -18.25 -202.0 -15.9 -206.0 -14.5" fill="#ef0000" fill-rule="evenodd" stroke="none"/>
    <path d="M-322.65 -136.0 L-322.9 -136.4 -340.0 -155.75 -339.5 -156.4 -339.4 -156.65 -339.0 -156.75 -336.15 -159.15 -334.15 -154.65 -329.15 -147.5 -323.0 -141.65 -322.9 -141.4 -316.25 -137.15 -322.65 -136.0" fill="#c60000" fill-rule="evenodd" stroke="none"/>
    <path d="M-321.0 -17.9 L-321.4 -41.15 -321.25 -41.4 -320.4 -41.9 -318.15 -44.0 -317.9 -44.4 -316.25 -46.65 -316.15 -46.9 -315.65 -47.9 -315.5 -48.0 -315.0 -49.25 -315.0 -49.4 -314.9 -49.5 -315.0 -49.5 -314.75 -49.75 -314.9 -49.75 -314.75 -50.0 -314.65 -50.25 -314.5 -50.5 -314.5 -50.75 -314.25 -52.0 -314.25 -52.4 -314.4 -52.65 -314.15 -52.75 -314.0 -53.0 -314.15 -55.4 -313.9 -55.75 -314.0 -56.0 -314.25 -57.15 -312.5 -58.15 -312.5 -58.25 -316.0 -69.25 -316.4 -69.5 -316.5 -69.75 -318.5 -72.15 -318.65 -72.5 -317.15 -89.75 -322.65 -136.0 -316.25 -137.15 -316.15 -137.15 -315.25 -136.65 -314.25 -136.25 -314.15 -136.25 -314.0 -136.15 -313.65 -136.0 -313.5 -136.0 -313.4 -135.9 -313.0 -135.75 -312.9 -135.75 -309.15 -134.25 -308.9 -134.0 -308.65 -133.5 -304.5 -90.5 -304.5 -89.5 -310.25 -25.9 -310.4 -25.25 -313.0 -19.9 -313.15 -19.65 -313.25 -19.4 -313.25 -19.25 -313.5 -18.65 -313.65 -18.4 -314.0 -17.65 -314.0 -17.5 -315.75 -13.75 -318.5 -14.4 -321.0 -17.9" fill="#bd0000" fill-rule="evenodd" stroke="none"/>
    <path d="M-184.75 -139.5 L-193.5 -83.5 -190.65 -137.5 -185.4 -140.65 -184.75 -139.5" fill="#f40000" fill-rule="evenodd" stroke="none"/>
    <path d="M-193.5 -83.5 L-194.65 -60.15 -196.5 -36.65 -202.0 -15.9 -206.75 -18.25 -207.9 -24.0 -207.9 -25.15 -206.0 -43.25 -206.0 -44.5 -204.25 -64.0 -204.4 -64.9 -203.4 -83.5 -196.9 -133.5 -197.0 -134.15 -197.0 -134.4 -196.9 -134.75 -190.65 -137.5 -193.5 -83.5" fill="#ed0000" fill-rule="evenodd" stroke="none"/>
    <path d="M-226.5 -133.15 L-227.0 -131.4 -227.25 -130.65 -227.4 -130.4 -227.5 -130.0 -227.65 -129.65 -227.75 -129.25 -227.9 -128.9 -228.0 -128.5 -228.15 -128.15 -228.25 -127.75 -228.4 -127.4 -228.5 -127.0 -228.65 -126.65 -228.75 -126.25 -228.9 -125.9 -229.0 -125.5 -229.15 -125.15 -229.25 -124.75 -229.4 -124.4 -229.5 -124.0 -229.65 -123.65 -229.75 -123.25 -229.9 -122.9 -230.0 -122.5 -230.15 -122.15 -230.25 -121.75 -230.5 -121.25 -230.65 -121.25 -230.65 -120.65 -230.75 -120.25 -230.9 -119.9 -231.0 -119.5 -231.15 -119.15 -231.25 -118.75 -231.4 -118.4 -231.5 -118.0 -231.65 -117.65 -231.75 -117.25 -231.9 -116.9 -232.0 -116.5 -232.15 -116.15 -232.25 -115.75 -232.4 -115.4 -232.5 -115.0 -232.65 -114.65 -232.75 -114.25 -238.9 -96.15 -239.0 -95.75 -239.15 -95.4 -239.25 -95.0 -239.4 -94.65 -239.5 -94.25 -239.65 -93.9 -239.75 -93.5 -239.9 -93.15 -240.0 -92.75 -240.15 -92.4 -240.25 -92.0 -240.4 -91.65 -240.5 -91.25 -240.65 -90.9 -240.75 -90.5 -240.9 -90.15 -241.0 -89.75 -241.15 -89.4 -241.25 -89.0 -241.4 -88.65 -241.5 -88.25 -241.65 -87.9 -241.75 -87.5 -241.9 -87.15 -242.0 -86.75 -242.15 -86.4 -242.25 -86.0 -242.65 -85.15 -242.65 -84.9 -242.75 -84.5 -242.9 -84.15 -243.0 -83.75 -243.15 -83.4 -243.25 -83.0 -243.5 -82.75 -243.5 -82.5 -245.0 -62.9 -245.4 -60.25 -245.25 -59.9 -246.75 -40.15 -247.15 -37.65 -247.0 -37.25 -247.4 -32.0 -250.25 -17.25 -250.5 -16.4 -250.4 -16.0 -250.75 -15.15 -250.75 -13.75 -252.15 -7.0 -275.5 -7.15 -315.65 -13.75 -315.75 -13.75 -314.0 -17.5 -314.0 -17.65 -313.65 -18.4 -313.5 -18.65 -313.25 -19.25 -313.25 -19.4 -313.15 -19.65 -313.0 -19.9 -310.4 -25.25 -310.25 -25.9 -304.5 -89.5 -304.5 -90.5 -308.65 -133.5 -308.9 -134.0 -309.15 -134.25 -312.9 -135.75 -313.0 -135.75 -313.4 -135.9 -313.5 -136.0 -313.65 -136.0 -314.0 -136.15 -314.15 -136.25 -314.25 -136.25 -315.25 -136.65 -316.15 -137.15 -314.15 -137.25 -314.0 -137.15 -312.75 -137.15 -311.9 -137.0 -311.5 -137.0 -309.4 -136.75 -309.0 -136.5 -296.75 -135.65 -258.15 -134.9 -257.65 -134.75 -234.9 -133.5 -226.5 -133.15" fill="#a70000" fill-opacity="0.9098039" fill-rule="evenodd" stroke="none"/>
    <path d="M-203.4 -0.9 L-250.65 -0.9 -252.15 -7.0 -243.15 -7.9 -242.65 -8.0 -225.9 -9.75 -225.5 -9.9 -224.25 -10.0 -215.75 -11.4 -215.5 -11.5 -215.0 -11.5 -211.5 -12.65 -211.25 -12.65 -206.15 -14.25 -203.4 -0.9" fill="#d60000" fill-opacity="0.9098039" fill-rule="evenodd" stroke="none"/>
    <path d="M-202.0 -15.9 L-198.75 -0.9 -203.4 -0.9 -206.15 -14.25 -206.0 -14.5 -202.0 -15.9" fill="#e90000" fill-rule="evenodd" stroke="none"/>
    <path d="M-321.65 -0.9 L-328.75 -0.9 -324.65 -10.5 -324.65 -10.65 -324.5 -10.75 -324.0 -11.9 -324.0 -12.0 -323.9 -12.25 -323.75 -12.5 -323.65 -12.75 -321.0 -17.9 -318.5 -14.4 -315.75 -13.75 -321.65 -0.9 M-321.25 -41.4 L-321.25 -42.0 -321.4 -42.0 -321.25 -42.75 -321.25 -43.4 -321.15 -43.65 -321.15 -44.0 -320.9 -46.5 -321.0 -47.4 -320.75 -47.75 -320.65 -49.25 -320.75 -50.0 -320.5 -50.4 -320.4 -52.25 -320.65 -52.9 -320.25 -53.4 -319.75 -59.9 -319.65 -60.25 -319.5 -63.25 -319.4 -63.65 -319.25 -65.0 -319.4 -65.25 -319.25 -65.25 -319.25 -65.65 -318.75 -69.9 -318.75 -70.9 -318.5 -72.15 -316.5 -69.75 -316.4 -69.5 -316.0 -69.25 -312.5 -58.25 -312.5 -58.15 -314.25 -57.15 -314.0 -56.0 -313.9 -55.75 -314.15 -55.4 -314.0 -53.0 -314.15 -52.75 -314.4 -52.65 -314.25 -52.4 -314.25 -52.0 -314.5 -50.75 -314.5 -50.5 -314.65 -50.25 -314.75 -50.0 -314.9 -49.75 -314.75 -49.75 -315.0 -49.5 -314.9 -49.5 -315.0 -49.4 -315.0 -49.25 -315.5 -48.0 -315.65 -47.9 -316.15 -46.9 -316.25 -46.65 -317.9 -44.4 -318.15 -44.0 -320.4 -41.9 -321.25 -41.4" fill="#bb0000" fill-rule="evenodd" stroke="none"/>
    <path d="M-250.65 -0.9 L-321.65 -0.9 -315.75 -13.75 -315.65 -13.75 -275.5 -7.15 -252.15 -7.0 -250.65 -0.9" fill="#a50000" fill-opacity="0.9098039" fill-rule="evenodd" stroke="none"/>
    <path d="M-328.75 -0.9 L-329.4 -0.9 -324.65 -10.5 -328.75 -0.9" fill="#fd0000" fill-rule="evenodd" stroke="none"/>
  </g>
  <defs>
    <radialGradient cx="0" cy="0" gradientTransform="matrix(0.0959, 0.0, 0.0, 0.0959, -249.45, -289.0)" gradientUnits="userSpaceOnUse" id="gradient0" r="819.2" spreadMethod="pad">
      <stop offset="0.0" stop-color="#7d7d7d"/>
      <stop offset="1.0" stop-color="#080808"/>
    </radialGradient>
    <radialGradient cx="0" cy="0" gradientTransform="matrix(0.0103, 0.0, 0.0, 0.0103, -188.7, -292.2)" gradientUnits="userSpaceOnUse" id="gradient1" r="819.2" spreadMethod="pad">
      <stop offset="0.0" stop-color="#1e1e1e"/>
      <stop offset="1.0" stop-color="#1d1d1d"/>
    </radialGradient>
    <radialGradient cx="0" cy="0" gradientTransform="matrix(0.0437, 0.0, 0.0, 0.0437, -154.75, -280.85)" gradientUnits="userSpaceOnUse" id="gradient2" r="819.2" spreadMethod="pad">
      <stop offset="0.0" stop-color="#414141"/>
      <stop offset="1.0" stop-color="#2f2f2f"/>
    </radialGradient>
    <radialGradient cx="0" cy="0" gradientTransform="matrix(0.1846, 0.0, 0.0, 0.1846, -179.3, -300.0)" gradientUnits="userSpaceOnUse" id="gradient3" r="819.2" spreadMethod="pad">
      <stop offset="0.0" stop-color="#505050"/>
      <stop offset="1.0" stop-color="#1a1a1a"/>
    </radialGradient>
    <radialGradient cx="0" cy="0" gradientTransform="matrix(0.0378, 0.0, 0.0, 0.0378, -222.8, -258.35)" gradientUnits="userSpaceOnUse" id="gradient4" r="819.2" spreadMethod="pad">
      <stop offset="0.0" stop-color="#7b7b7b"/>
      <stop offset="1.0" stop-color="#090909"/>
    </radialGradient>
    <radialGradient cx="0" cy="0" gradientTransform="matrix(0.3193, 0.0, 0.0, 0.3193, -222.65, -269.0)" gradientUnits="userSpaceOnUse" id="gradient5" r="819.2" spreadMethod="pad">
      <stop offset="0.0" stop-color="#1a1a1a"/>
      <stop offset="1.0" stop-color="#0b0b0b"/>
    </radialGradient>
    <radialGradient cx="0" cy="0" gradientTransform="matrix(0.3114, 0.0, 0.0, 0.3114, -222.7, -262.45)" gradientUnits="userSpaceOnUse" id="gradient6" r="819.2" spreadMethod="pad">
      <stop offset="0.0" stop-color="#101010"/>
      <stop offset="1.0" stop-color="#000000"/>
    </radialGradient>
    <radialGradient cx="0" cy="0" gradientTransform="matrix(0.0222, 0.0, 0.0, 0.0222, -244.0, -274.95)" gradientUnits="userSpaceOnUse" id="gradient7" r="819.2" spreadMethod="pad">
      <stop offset="0.0" stop-color="#797979"/>
      <stop offset="1.0" stop-color="#000000"/>
    </radialGradient>
    <radialGradient cx="0" cy="0" gradientTransform="matrix(0.0392, 0.0, 0.0, 0.0392, -262.75, -263.95)" gradientUnits="userSpaceOnUse" id="gradient8" r="819.2" spreadMethod="pad">
      <stop offset="0.0" stop-color="#1a1a1a"/>
      <stop offset="1.0" stop-color="#000000"/>
    </radialGradient>
    <radialGradient cx="0" cy="0" gradientTransform="matrix(0.167, 0.0, 0.0, 0.167, -303.1, -134.65)" gradientUnits="userSpaceOnUse" id="gradient9" r="819.2" spreadMethod="pad">
      <stop offset="0.0" stop-color="#6a6a6a"/>
      <stop offset="1.0" stop-color="#000000"/>
    </radialGradient>
    <radialGradient cx="0" cy="0" gradientTransform="matrix(0.0453, 0.0, 0.0, 0.0453, -234.5, -256.1)" gradientUnits="userSpaceOnUse" id="gradient10" r="819.2" spreadMethod="pad">
      <stop offset="0.0" stop-color="#000000"/>
      <stop offset="1.0" stop-color="#000000"/>
    </radialGradient>
    <radialGradient cx="0" cy="0" gradientTransform="matrix(0.0023, 0.0, 0.0, 0.0023, -1.3, -289.55)" gradientUnits="userSpaceOnUse" id="gradient11" r="819.2" spreadMethod="pad">
      <stop offset="0.0" stop-color="#040404"/>
      <stop offset="1.0" stop-color="#040404"/>
    </radialGradient>
    <radialGradient cx="0" cy="0" gradientTransform="matrix(0.0015, 0.0, 0.0, 0.0015, -1.45, -288.45)" gradientUnits="userSpaceOnUse" id="gradient12" r="819.2" spreadMethod="pad">
      <stop offset="0.0" stop-color="#171717"/>
      <stop offset="1.0" stop-color="#171717"/>
    </radialGradient>
    <radialGradient cx="0" cy="0" gradientTransform="matrix(0.0054, 0.0, 0.0, 0.0054, -4.8, -266.85)" gradientUnits="userSpaceOnUse" id="gradient13" r="819.2" spreadMethod="pad">
      <stop offset="0.0" stop-color="#030303"/>
      <stop offset="1.0" stop-color="#030303"/>
    </radialGradient>
    <radialGradient cx="0" cy="0" gradientTransform="matrix(0.0091, 0.0, 0.0, 0.0091, -5.2, -265.3)" gradientUnits="userSpaceOnUse" id="gradient14" r="819.2" spreadMethod="pad">
      <stop offset="0.0" stop-color="#040404"/>
      <stop offset="1.0" stop-color="#040404"/>
    </radialGradient>
    <radialGradient cx="0" cy="0" gradientTransform="matrix(0.0058, 0.0, 0.0, 0.0058, -5.2, -265.3)" gradientUnits="userSpaceOnUse" id="gradient15" r="819.2" spreadMethod="pad">
      <stop offset="0.0" stop-color="#040404"/>
      <stop offset="1.0" stop-color="#040404"/>
    </radialGradient>
    <radialGradient cx="0" cy="0" gradientTransform="matrix(0.0052, 0.0, 0.0, 0.0052, -4.65, -265.45)" gradientUnits="userSpaceOnUse" id="gradient16" r="819.2" spreadMethod="pad">
      <stop offset="0.0" stop-color="#030303"/>
      <stop offset="1.0" stop-color="#030303"/>
    </radialGradient>
    <radialGradient cx="0" cy="0" gradientTransform="matrix(0.08, 0.0, 0.0, 0.08, -192.9, -203.35)" gradientUnits="userSpaceOnUse" id="gradient17" r="819.2" spreadMethod="pad">
      <stop offset="0.0" stop-color="#595959"/>
      <stop offset="1.0" stop-color="#000000"/>
    </radialGradient>
    <radialGradient cx="0" cy="0" gradientTransform="matrix(0.1328, 0.0, 0.0, 0.1328, -287.3, -166.2)" gradientUnits="userSpaceOnUse" id="gradient18" r="819.2" spreadMethod="pad">
      <stop offset="0.0" stop-color="#010101"/>
      <stop offset="1.0" stop-color="#000000"/>
    </radialGradient>
    <radialGradient cx="0" cy="0" gradientTransform="matrix(0.1195, 0.0, 0.0, 0.1195, -196.6, -163.4)" gradientUnits="userSpaceOnUse" id="gradient19" r="819.2" spreadMethod="pad">
      <stop offset="0.0" stop-color="#3f3f3f"/>
      <stop offset="1.0" stop-color="#000000"/>
    </radialGradient>
    <radialGradient cx="0" cy="0" gradientTransform="matrix(0.0958, 0.0, 0.0, 0.0958, -268.05, -144.5)" gradientUnits="userSpaceOnUse" id="gradient20" r="819.2" spreadMethod="pad">
      <stop offset="0.0" stop-color="#878787"/>
      <stop offset="1.0" stop-color="#000000"/>
    </radialGradient>
    <radialGradient cx="0" cy="0" gradientTransform="matrix(0.1566, 0.0, 0.0, 0.1566, -303.1, -134.65)" gradientUnits="userSpaceOnUse" id="gradient21" r="819.2" spreadMethod="pad">
      <stop offset="0.0" stop-color="#6a6a6a"/>
      <stop offset="1.0" stop-color="#000000"/>
    </radialGradient>
    <radialGradient cx="0" cy="0" gradientTransform="matrix(0.0901, 0.0, 0.0, 0.0901, -317.65, -148.1)" gradientUnits="userSpaceOnUse" id="gradient22" r="819.2" spreadMethod="pad">
      <stop offset="0.0" stop-color="#858585"/>
      <stop offset="1.0" stop-color="#000000"/>
    </radialGradient>
    <radialGradient cx="0" cy="0" gradientTransform="matrix(0.0771, 0.0, 0.0, 0.0771, -301.35, -192.4)" gradientUnits="userSpaceOnUse" id="gradient23" r="819.2" spreadMethod="pad">
      <stop offset="0.0" stop-color="#171717"/>
      <stop offset="1.0" stop-color="#000000"/>
    </radialGradient>
    <radialGradient cx="0" cy="0" gradientTransform="matrix(0.0481, 0.0, 0.0, 0.0481, -277.5, -250.95)" gradientUnits="userSpaceOnUse" id="gradient24" r="819.2" spreadMethod="pad">
      <stop offset="0.0" stop-color="#000000"/>
      <stop offset="1.0" stop-color="#000000"/>
    </radialGradient>
    <radialGradient cx="0" cy="0" gradientTransform="matrix(0.0493, 0.0, 0.0, 0.0493, -195.15, -247.9)" gradientUnits="userSpaceOnUse" id="gradient25" r="819.2" spreadMethod="pad">
      <stop offset="0.0" stop-color="#000000"/>
      <stop offset="1.0" stop-color="#000000"/>
    </radialGradient>
    <radialGradient cx="0" cy="0" gradientTransform="matrix(0.0575, 0.0, 0.0, 0.0575, -301.35, -192.4)" gradientUnits="userSpaceOnUse" id="gradient26" r="819.2" spreadMethod="pad">
      <stop offset="0.0" stop-color="#171717"/>
      <stop offset="1.0" stop-color="#000000"/>
    </radialGradient>
    <radialGradient cx="0" cy="0" gradientTransform="matrix(0.0943, 0.0, 0.0, 0.0943, -347.0, -162.6)" gradientUnits="userSpaceOnUse" id="gradient27" r="819.2" spreadMethod="pad">
      <stop offset="0.0" stop-color="#6a6a6a"/>
      <stop offset="1.0" stop-color="#000000"/>
    </radialGradient>
    <radialGradient cx="0" cy="0" gradientTransform="matrix(0.0862, 0.0, 0.0, 0.0862, -360.9, -187.7)" gradientUnits="userSpaceOnUse" id="gradient28" r="819.2" spreadMethod="pad">
      <stop offset="0.0" stop-color="#0f0f0f"/>
      <stop offset="1.0" stop-color="#040404"/>
    </radialGradient>
    <radialGradient cx="0" cy="0" gradientTransform="matrix(0.0829, 0.0, 0.0, 0.0829, -149.25, -220.2)" gradientUnits="userSpaceOnUse" id="gradient29" r="819.2" spreadMethod="pad">
      <stop offset="0.0" stop-color="#000000"/>
      <stop offset="1.0" stop-color="#000000"/>
    </radialGradient>
    <radialGradient cx="0" cy="0" gradientTransform="matrix(0.0195, 0.0, 0.0, 0.0195, -194.2, -231.95)" gradientUnits="userSpaceOnUse" id="gradient30" r="819.2" spreadMethod="pad">
      <stop offset="0.0" stop-color="#000000"/>
      <stop offset="1.0" stop-color="#000000"/>
    </radialGradient>
    <radialGradient cx="0" cy="0" gradientTransform="matrix(0.0996, 0.0, 0.0, 0.0996, -173.1, -198.3)" gradientUnits="userSpaceOnUse" id="gradient31" r="819.2" spreadMethod="pad">
      <stop offset="0.0" stop-color="#616161"/>
      <stop offset="1.0" stop-color="#000000"/>
    </radialGradient>
    <radialGradient cx="0" cy="0" gradientTransform="matrix(0.0828, 0.0, 0.0, 0.0828, -48.95, -161.75)" gradientUnits="userSpaceOnUse" id="gradient32" r="819.2" spreadMethod="pad">
      <stop offset="0.0" stop-color="#161616"/>
      <stop offset="1.0" stop-color="#000000"/>
    </radialGradient>
    <radialGradient cx="0" cy="0" gradientTransform="matrix(0.0355, 0.0, 0.0, 0.0355, -91.55, -195.5)" gradientUnits="userSpaceOnUse" id="gradient33" r="819.2" spreadMethod="pad">
      <stop offset="0.0" stop-color="#000000"/>
      <stop offset="1.0" stop-color="#000000"/>
    </radialGradient>
    <radialGradient cx="0" cy="0" gradientTransform="matrix(0.0579, 0.0, 0.0, 0.0579, -39.55, -209.2)" gradientUnits="userSpaceOnUse" id="gradient34" r="819.2" spreadMethod="pad">
      <stop offset="0.0" stop-color="#000000"/>
      <stop offset="1.0" stop-color="#000000"/>
    </radialGradient>
    <radialGradient cx="0" cy="0" gradientTransform="matrix(0.0536, 0.0, 0.0, 0.0536, -39.55, -209.2)" gradientUnits="userSpaceOnUse" id="gradient35" r="819.2" spreadMethod="pad">
      <stop offset="0.0" stop-color="#000000"/>
      <stop offset="1.0" stop-color="#000000"/>
    </radialGradient>
    <radialGradient cx="0" cy="0" gradientTransform="matrix(0.0315, 0.0, 0.0, 0.0315, -39.55, -209.2)" gradientUnits="userSpaceOnUse" id="gradient36" r="819.2" spreadMethod="pad">
      <stop offset="0.0" stop-color="#000000"/>
      <stop offset="1.0" stop-color="#000000"/>
    </radialGradient>
    <radialGradient cx="0" cy="0" gradientTransform="matrix(0.0294, 0.0, 0.0, 0.0294, -192.9, -203.35)" gradientUnits="userSpaceOnUse" id="gradient37" r="819.2" spreadMethod="pad">
      <stop offset="0.0" stop-color="#595959"/>
      <stop offset="1.0" stop-color="#000000"/>
    </radialGradient>
    <radialGradient cx="0" cy="0" gradientTransform="matrix(0.0473, 0.0, 0.0, 0.0473, -48.95, -161.75)" gradientUnits="userSpaceOnUse" id="gradient38" r="819.2" spreadMethod="pad">
      <stop offset="0.0" stop-color="#161616"/>
      <stop offset="1.0" stop-color="#000000"/>
    </radialGradient>
    <radialGradient cx="0" cy="0" gradientTransform="matrix(0.026, 0.0, 0.0, 0.026, -329.6, -165.9)" gradientUnits="userSpaceOnUse" id="gradient39" r="819.2" spreadMethod="pad">
      <stop offset="0.0" stop-color="#000000"/>
      <stop offset="1.0" stop-color="#000000"/>
    </radialGradient>
    <radialGradient cx="0" cy="0" gradientTransform="matrix(0.0328, 0.0, 0.0, 0.0328, -345.7, -152.0)" gradientUnits="userSpaceOnUse" id="gradient40" r="819.2" spreadMethod="pad">
      <stop offset="0.0" stop-color="#000000"/>
      <stop offset="1.0" stop-color="#000000"/>
    </radialGradient>
    <radialGradient cx="0" cy="0" gradientTransform="matrix(0.0614, 0.0, 0.0, 0.0614, -345.1, -110.3)" gradientUnits="userSpaceOnUse" id="gradient41" r="819.2" spreadMethod="pad">
      <stop offset="0.0" stop-color="#292929"/>
      <stop offset="1.0" stop-color="#000000"/>
    </radialGradient>
    <radialGradient cx="0" cy="0" gradientTransform="matrix(0.0666, 0.0, 0.0, 0.0666, -380.95, -113.55)" gradientUnits="userSpaceOnUse" id="gradient42" r="819.2" spreadMethod="pad">
      <stop offset="0.0" stop-color="#393939"/>
      <stop offset="1.0" stop-color="#000000"/>
    </radialGradient>
    <radialGradient cx="0" cy="0" gradientTransform="matrix(0.0679, 0.0, 0.0, 0.0679, -352.2, -67.05)" gradientUnits="userSpaceOnUse" id="gradient43" r="819.2" spreadMethod="pad">
      <stop offset="0.0" stop-color="#505050"/>
      <stop offset="1.0" stop-color="#000000"/>
    </radialGradient>
    <radialGradient cx="0" cy="0" gradientTransform="matrix(0.0294, 0.0, 0.0, 0.0294, -345.1, -110.3)" gradientUnits="userSpaceOnUse" id="gradient44" r="819.2" spreadMethod="pad">
      <stop offset="0.0" stop-color="#292929"/>
      <stop offset="1.0" stop-color="#000000"/>
    </radialGradient>
    <radialGradient cx="0" cy="0" gradientTransform="matrix(0.047, 0.0, 0.0, 0.047, -345.1, -110.3)" gradientUnits="userSpaceOnUse" id="gradient45" r="819.2" spreadMethod="pad">
      <stop offset="0.0" stop-color="#292929"/>
      <stop offset="1.0" stop-color="#010101"/>
    </radialGradient>
    <radialGradient cx="0" cy="0" gradientTransform="matrix(0.1421, 0.0, 0.0, 0.1421, -207.95, -24.15)" gradientUnits="userSpaceOnUse" id="gradient46" r="819.2" spreadMethod="pad">
      <stop offset="0.0" stop-color="#666666"/>
      <stop offset="1.0" stop-color="#0e0e0e"/>
    </radialGradient>
    <radialGradient cx="0" cy="0" gradientTransform="matrix(0.0562, 0.0, 0.0, 0.0562, -207.95, -24.15)" gradientUnits="userSpaceOnUse" id="gradient47" r="819.2" spreadMethod="pad">
      <stop offset="0.0" stop-color="#666666"/>
      <stop offset="1.0" stop-color="#0a0a0a"/>
    </radialGradient>
    <radialGradient cx="0" cy="0" gradientTransform="matrix(0.0758, 0.0, 0.0, 0.0758, -372.85, -101.2)" gradientUnits="userSpaceOnUse" id="gradient48" r="819.2" spreadMethod="pad">
      <stop offset="0.0" stop-color="#3f3f3f"/>
      <stop offset="1.0" stop-color="#050505"/>
    </radialGradient>
    <radialGradient cx="0" cy="0" gradientTransform="matrix(0.0661, 0.0, 0.0, 0.0661, -352.2, -67.05)" gradientUnits="userSpaceOnUse" id="gradient49" r="819.2" spreadMethod="pad">
      <stop offset="0.0" stop-color="#505050"/>
      <stop offset="1.0" stop-color="#101010"/>
    </radialGradient>
    <radialGradient cx="0" cy="0" gradientTransform="matrix(0.0384, 0.0, 0.0, 0.0384, -314.4, -55.75)" gradientUnits="userSpaceOnUse" id="gradient50" r="819.2" spreadMethod="pad">
      <stop offset="0.0" stop-color="#858585"/>
      <stop offset="1.0" stop-color="#040404"/>
    </radialGradient>
    <radialGradient cx="0" cy="0" gradientTransform="matrix(0.062, 0.0, 0.0, 0.062, -324.2, -79.15)" gradientUnits="userSpaceOnUse" id="gradient51" r="819.2" spreadMethod="pad">
      <stop offset="0.0" stop-color="#3a3a3a"/>
      <stop offset="1.0" stop-color="#0c0c0c"/>
    </radialGradient>
    <radialGradient cx="0" cy="0" gradientTransform="matrix(0.021, 0.0, 0.0, 0.021, -316.25, -69.55)" gradientUnits="userSpaceOnUse" id="gradient52" r="819.2" spreadMethod="pad">
      <stop offset="0.0" stop-color="#373737"/>
      <stop offset="1.0" stop-color="#0c0c0c"/>
    </radialGradient>
    <radialGradient cx="0" cy="0" gradientTransform="matrix(0.0892, 0.0, 0.0, 0.0892, -320.9, -1.0)" gradientUnits="userSpaceOnUse" id="gradient53" r="819.2" spreadMethod="pad">
      <stop offset="0.0" stop-color="#3f3f3f"/>
      <stop offset="1.0" stop-color="#000000"/>
    </radialGradient>
    <radialGradient cx="0" cy="0" gradientTransform="matrix(0.0334, 0.0, 0.0, 0.0334, -320.9, -1.0)" gradientUnits="userSpaceOnUse" id="gradient54" r="819.2" spreadMethod="pad">
      <stop offset="0.0" stop-color="#3f3f3f"/>
      <stop offset="1.0" stop-color="#121212"/>
    </radialGradient>
  </defs>
</svg>
