<?xml version="1.0" encoding="UTF-8" standalone="no"?>
<svg xmlns:xlink="http://www.w3.org/1999/xlink" height="299.1px" width="399.1px" xmlns="http://www.w3.org/2000/svg">
  <g transform="matrix(1.0, 0.0, 0.0, 1.0, 400.0, 300.0)">
    <path d="M-279.5 -248.25 L-305.75 -260.9 -314.25 -274.0 -315.9 -272.75 -325.25 -283.5 -333.4 -298.15 -333.75 -300.0 -313.5 -300.0 -312.0 -296.15 -311.65 -296.0 -310.75 -294.0 -302.5 -282.75 -302.5 -282.25 -283.75 -265.25 -273.65 -259.5 -266.0 -256.25 -265.9 -255.75 -278.25 -251.15 -279.5 -248.25 M-181.9 -253.25 L-184.25 -253.0 -184.9 -253.65 -185.5 -253.65 -198.75 -245.4 -199.0 -245.75 -200.0 -248.0 -200.9 -248.0 -215.25 -245.65 -224.25 -247.0 -225.65 -252.65 -222.15 -253.0 -202.4 -260.25 -190.65 -267.75 -180.65 -277.75 -177.4 -282.15 -178.5 -271.0 -181.25 -261.75 -181.9 -253.25" fill="url(#gradient0)" fill-rule="evenodd" stroke="none"/>
    <path d="M-313.5 -300.0 L-193.75 -300.0 -189.15 -286.15 -188.75 -286.0 -186.0 -300.0 -173.5 -300.0 -172.75 -299.5 -188.9 -285.65 -176.9 -286.25 -177.4 -282.15 -180.65 -277.75 -190.65 -267.75 -202.4 -260.25 -222.15 -253.0 -225.65 -252.65 -226.0 -253.65 -225.9 -256.15 -226.25 -256.25 -228.9 -258.25 -233.5 -259.9 -239.25 -261.9 -238.25 -260.5 -240.4 -260.9 -244.25 -262.4 -245.25 -262.4 -246.9 -262.15 -256.15 -262.4 -260.65 -261.65 -264.0 -261.65 -264.5 -260.4 -265.75 -259.0 -266.0 -256.25 -273.65 -259.5 -283.75 -265.25 -302.5 -282.25 -302.5 -282.75 -310.75 -294.0 -311.65 -296.0 -312.0 -296.15 -313.5 -300.0" fill="url(#gradient1)" fill-rule="evenodd" stroke="none"/>
    <path d="M-234.75 -256.0 L-234.75 -254.4 -236.4 -251.4 -236.0 -248.65 -249.25 -252.65 -278.25 -251.15 -265.9 -255.75 -266.0 -256.25 -265.75 -259.0 -264.5 -260.4 -264.0 -261.65 -260.65 -261.65 -256.15 -262.4 -246.9 -262.15 -245.25 -262.4 -244.25 -262.4 -240.4 -260.9 -238.25 -260.5 -234.75 -256.0" fill="url(#gradient2)" fill-rule="evenodd" stroke="none"/>
    <path d="M-234.75 -256.0 L-238.25 -260.5 -239.25 -261.9 -233.5 -259.9 -234.75 -256.0" fill="url(#gradient3)" fill-rule="evenodd" stroke="none"/>
    <path d="M-234.75 -254.4 L-234.75 -256.0 -233.5 -259.9 -228.9 -258.25 -226.25 -256.25 -226.5 -253.75 -228.65 -255.25 -227.4 -248.65 -227.5 -248.15 -228.75 -248.15 -232.65 -249.9 -233.5 -250.5 -234.75 -254.4" fill="url(#gradient4)" fill-rule="evenodd" stroke="none"/>
    <path d="M-193.75 -300.0 L-186.0 -300.0 -188.75 -286.0 -189.15 -286.15 -193.75 -300.0" fill="url(#gradient5)" fill-rule="evenodd" stroke="none"/>
    <path d="M-173.5 -300.0 L-147.5 -300.0 -151.15 -289.4 -159.5 -275.4 -169.0 -265.15 -181.9 -253.25 -181.25 -261.75 -178.5 -271.0 -177.4 -282.15 -176.9 -286.25 -188.9 -285.65 -172.75 -299.5 -173.5 -300.0" fill="url(#gradient6)" fill-rule="evenodd" stroke="none"/>
    <path d="M-333.4 -298.15 L-334.5 -299.9 -333.75 -300.0 -333.4 -298.15" fill="url(#gradient7)" fill-rule="evenodd" stroke="none"/>
    <path d="M-310.5 -130.9 L-310.9 -131.65 -309.4 -131.0 -310.5 -130.9 M-280.15 -246.5 L-280.0 -246.75 -279.5 -248.25 -278.25 -251.15 -249.25 -252.65 -236.0 -248.65 -235.65 -248.15 -236.75 -248.15 -235.15 -246.65 -224.4 -213.65 -224.9 -204.15 Q-239.0 -215.9 -260.75 -210.75 -277.9 -205.9 -284.65 -191.0 L-285.5 -185.15 -286.9 -182.25 -288.65 -174.5 -288.15 -165.65 -285.5 -158.75 Q-286.25 -157.5 -282.5 -148.9 L-276.65 -141.25 -273.15 -138.5 -263.15 -135.15 -253.15 -130.25 -251.15 -129.75 -263.9 -130.0 -303.4 -131.9 -307.5 -131.25 -306.9 -134.25 -307.75 -137.15 Q-305.4 -138.4 -304.5 -141.75 L-301.4 -144.65 -298.15 -151.15 -297.65 -159.0 -296.75 -160.0 -292.4 -168.0 -290.4 -177.0 -291.0 -185.25 -287.0 -190.9 -286.25 -192.5 -285.25 -199.75 -286.5 -205.65 -289.65 -209.9 -293.25 -211.4 -293.9 -212.75 -296.4 -213.75 -302.5 -213.4 -281.4 -244.15 -281.15 -244.15 -280.4 -246.0 -280.15 -246.4 -280.15 -246.5 M-232.15 -131.5 L-232.25 -129.25 -238.4 -129.4 -233.9 -130.65 -232.15 -131.5" fill="url(#gradient8)" fill-rule="evenodd" stroke="none"/>
    <path d="M-236.0 -248.65 L-236.4 -251.4 -232.65 -249.9 -228.75 -248.15 -227.65 -247.5 -228.5 -247.5 -229.0 -247.65 -229.4 -247.65 -229.9 -247.75 -230.25 -247.75 -230.65 -247.9 -231.15 -247.9 -231.5 -248.0 -236.0 -248.65" fill="url(#gradient9)" fill-rule="evenodd" stroke="none"/>
    <path d="M-236.4 -251.4 L-234.75 -254.4 -233.5 -250.5 -232.65 -249.9 -236.4 -251.4 M-228.75 -248.15 L-227.5 -248.15 -227.4 -248.65 -228.65 -255.25 -226.5 -253.75 -226.0 -253.65 -225.65 -252.65 -224.25 -247.0 -225.75 -247.15 -225.9 -247.15 -226.75 -247.25 -227.4 -247.4 -227.65 -247.5 -228.75 -248.15" fill="url(#gradient10)" fill-rule="evenodd" stroke="none"/>
    <path d="M-6.9 -277.9 L-6.9 -278.25 -6.5 -278.9 -6.25 -279.15 -6.65 -278.15 -5.75 -279.0 -6.5 -277.65 -6.2 -277.8 -6.65 -277.25 -6.75 -277.4 -6.75 -277.65 -6.65 -278.0 -6.9 -277.9 M-3.9 -279.65 L-1.15 -280.65 -0.9 -279.65 -0.9 -278.0 -0.9 -274.25 -0.9 -271.75 -5.9 -276.25 -6.25 -276.9 -5.9 -276.65 -5.5 -277.0 -5.15 -276.75 -3.4 -277.0 -3.3 -276.8 -3.0 -277.0 -3.15 -277.4 -4.0 -277.4 -3.25 -277.65 -3.5 -278.25 -4.15 -278.4 -3.25 -278.4 -2.9 -278.25 -3.25 -278.0 -2.75 -278.0 -2.9 -278.25 -3.0 -278.75 -4.25 -278.5 -3.9 -279.15 -3.25 -279.15 -3.9 -279.65 M-3.75 -275.9 L-4.15 -276.25 -3.55 -276.65 -4.65 -276.25 -3.75 -275.9 M-0.9 -279.65 L-1.75 -280.0 -2.4 -279.65 -0.9 -279.65 M-2.4 -279.25 L-2.5 -278.9 -2.25 -279.15 -2.0 -278.75 -1.9 -279.25 -2.75 -279.5 -2.75 -279.15 -2.4 -279.25 M-1.4 -278.65 L-1.75 -278.65 -1.4 -278.25 -1.4 -278.65 M-5.9 -278.15 L-5.5 -279.15 -5.0 -279.25 -5.9 -278.15 M-1.5 -277.5 L-0.9 -278.0 -1.4 -278.15 -1.25 -277.75 -2.15 -277.75 -1.5 -277.5 M-2.4 -277.25 L-2.5 -277.9 -3.15 -277.65 -2.4 -277.25 M-1.9 -275.75 L-2.15 -276.15 -2.4 -275.9 -1.75 -274.65 -2.15 -274.75 -2.15 -274.4 -1.4 -274.0 -0.9 -274.25 -1.5 -274.4 -1.65 -274.75 -1.25 -274.9 -1.75 -275.0 -1.9 -275.65 -1.9 -275.75 M-2.4 -275.0 L-2.25 -275.25 -3.5 -275.25 -3.65 -275.0 -2.4 -275.0" fill="url(#gradient11)" fill-rule="evenodd" stroke="none"/>
    <path d="M-0.9 -271.75 L-1.15 -271.15 -5.9 -276.25 -0.9 -271.75" fill="url(#gradient12)" fill-rule="evenodd" stroke="none"/>
    <path d="M-6.25 -279.15 L-5.9 -279.5 -3.9 -279.65 -3.25 -279.15 -3.9 -279.15 -4.25 -278.5 -3.0 -278.75 -2.9 -278.25 -2.75 -278.0 -3.25 -278.0 -2.9 -278.25 -3.25 -278.4 -4.15 -278.4 -3.5 -278.25 -3.25 -277.65 -4.0 -277.4 -3.15 -277.4 -3.0 -277.0 -3.3 -276.8 -3.4 -277.0 -5.15 -276.75 -5.5 -277.0 -5.9 -276.65 -6.25 -276.9 -6.65 -277.25 -6.2 -277.8 -6.5 -277.65 -5.75 -279.0 -6.65 -278.15 -6.25 -279.15 M-6.75 -277.65 L-6.9 -277.9 -6.65 -278.0 -6.75 -277.65 M-5.9 -278.15 L-5.0 -279.25 -5.5 -279.15 -5.9 -278.15 M-1.4 -278.65 L-1.4 -278.25 -1.75 -278.65 -1.4 -278.65 M-2.4 -279.25 L-2.75 -279.15 -2.75 -279.5 -1.9 -279.25 -2.0 -278.75 -2.25 -279.15 -2.5 -278.9 -2.4 -279.25 M-0.9 -279.65 L-2.4 -279.65 -1.75 -280.0 -0.9 -279.65 M-3.75 -275.9 L-4.65 -276.25 -3.55 -276.65 -4.15 -276.25 -3.75 -275.9 M-1.5 -277.5 L-2.15 -277.75 -1.25 -277.75 -1.4 -278.15 -0.9 -278.0 -1.5 -277.5 M-2.4 -277.25 L-3.15 -277.65 -2.5 -277.9 -2.4 -277.25 M-1.9 -275.75 L-1.9 -275.65 -1.75 -275.0 -1.25 -274.9 -1.65 -274.75 -1.5 -274.4 -0.9 -274.25 -1.4 -274.0 -2.15 -274.4 -2.15 -274.75 -1.75 -274.65 -2.4 -275.9 -2.15 -276.15 -1.9 -275.75 M-2.4 -275.0 L-3.65 -275.0 -3.5 -275.25 -2.25 -275.25 -2.4 -275.0" fill="url(#gradient13)" fill-rule="evenodd" stroke="none"/>
    <path d="M-0.9 -261.25 L-0.9 -259.15 -1.15 -259.15 -2.15 -258.75 -6.15 -257.25 -10.15 -255.9 Q-10.75 -259.0 -0.9 -261.25" fill="url(#gradient14)" fill-rule="evenodd" stroke="none"/>
    <path d="M-7.75 -253.65 L-8.15 -253.5 -10.5 -255.75 -10.15 -255.9 -7.75 -253.65 M-0.9 -259.15 L-0.9 -256.0 -3.9 -255.0 -6.15 -257.25 -2.15 -258.75 -1.15 -259.15 -0.9 -259.15" fill="url(#gradient15)" fill-rule="evenodd" stroke="none"/>
    <path d="M-3.9 -255.0 L-7.75 -253.65 -10.15 -255.9 -6.15 -257.25 -3.9 -255.0" fill="url(#gradient16)" fill-rule="evenodd" stroke="none"/>
    <path d="M-10.5 -255.75 Q-11.9 -258.9 -1.15 -265.65 L-0.9 -261.25 Q-10.75 -259.0 -10.15 -255.9 L-10.5 -255.75" fill="url(#gradient17)" fill-rule="evenodd" stroke="none"/>
    <path d="M-226.5 -253.75 L-226.25 -256.25 -225.9 -256.15 -226.0 -253.65 -226.5 -253.75" fill="url(#gradient18)" fill-rule="evenodd" stroke="none"/>
    <path d="M-227.65 -247.5 L-227.4 -247.4 -226.75 -247.25 -225.9 -247.15 -225.75 -247.15 -196.5 -242.65 -196.15 -242.25 -194.75 -226.9 -193.5 -198.5 -202.9 -187.0 -203.75 -212.65 -234.0 -246.5 -233.65 -247.4 -232.15 -247.75 -235.65 -248.15 -236.0 -248.65 -231.5 -248.0 -231.15 -247.9 -230.65 -247.9 -230.25 -247.75 -229.9 -247.75 -229.4 -247.65 -229.0 -247.65 -228.5 -247.5 -227.65 -247.5" fill="url(#gradient19)" fill-rule="evenodd" stroke="none"/>
    <path d="M-235.65 -248.15 L-232.15 -247.75 -233.65 -247.4 -234.0 -246.5 -235.15 -246.65 -236.75 -248.15 -235.65 -248.15 M-282.15 -244.65 L-282.15 -245.5 -280.4 -246.0 -281.15 -244.15 -281.4 -244.15 -282.15 -244.65" fill="url(#gradient20)" fill-rule="evenodd" stroke="none"/>
    <path d="M-196.15 -180.65 L-199.4 -134.65 Q-199.65 -136.65 -206.75 -137.4 L-232.25 -129.25 -232.15 -131.5 -227.9 -132.75 -221.75 -136.75 Q-215.4 -143.4 -215.5 -144.75 L-209.9 -149.9 -206.5 -155.75 -205.65 -158.5 -204.4 -165.9 -204.9 -175.65 -207.5 -183.4 -208.75 -185.4 -211.25 -191.25 -217.0 -199.0 Q-219.4 -202.25 -224.9 -204.15 L-224.4 -213.65 -235.15 -246.65 -234.0 -246.5 -203.75 -212.65 -202.9 -187.0 Q-202.9 -185.75 -196.65 -183.65 L-196.15 -180.65" fill="url(#gradient21)" fill-rule="evenodd" stroke="none"/>
    <path d="M-224.9 -204.15 Q-219.4 -202.25 -217.0 -199.0 L-211.25 -191.25 -208.75 -185.4 -207.5 -183.4 -204.9 -175.65 -204.4 -165.9 -205.65 -158.5 -206.5 -155.75 -209.9 -149.9 -215.5 -144.75 Q-215.4 -143.4 -221.75 -136.75 L-227.9 -132.75 -232.15 -131.5 -233.9 -130.65 -238.4 -129.4 -241.0 -129.0 -246.65 -129.0 -251.15 -129.75 -253.15 -130.25 -263.15 -135.15 -273.15 -138.5 -276.65 -141.25 -282.5 -148.9 Q-286.25 -157.5 -285.5 -158.75 L-288.15 -165.65 -288.65 -174.5 -286.9 -182.25 -285.5 -185.15 -284.65 -191.0 Q-277.9 -205.9 -260.75 -210.75 -239.0 -215.9 -224.9 -204.15" fill="url(#gradient22)" fill-rule="evenodd" stroke="none"/>
    <path d="M-311.65 -23.9 L-306.0 -87.25 -310.5 -130.9 -309.4 -131.0 -307.5 -131.25 -303.4 -131.9 -263.9 -130.0 -251.15 -129.75 -246.65 -129.0 -241.0 -129.0 -238.4 -129.4 -232.25 -129.25 -245.75 -83.4 -251.0 -15.9 -270.4 -15.9 -307.9 -21.0 -311.65 -23.9" fill="url(#gradient23)" fill-rule="evenodd" stroke="none"/>
    <path d="M-310.9 -131.65 Q-317.4 -133.4 -323.0 -137.75 L-329.9 -144.15 -334.9 -151.5 -338.4 -159.65 -338.5 -160.25 -340.25 -169.4 -340.15 -176.5 -338.5 -185.0 Q-332.5 -201.0 -321.15 -207.0 L-317.75 -209.15 -308.25 -212.65 -302.5 -213.4 -296.4 -213.75 -293.9 -212.75 -293.25 -211.4 -289.65 -209.9 -286.5 -205.65 -285.25 -199.75 -286.25 -192.5 -287.0 -190.9 -291.0 -185.25 -290.4 -177.0 -292.4 -168.0 -296.75 -160.0 -297.65 -159.0 -298.15 -151.15 -301.4 -144.65 -304.5 -141.75 Q-305.4 -138.4 -307.75 -137.15 L-306.9 -134.25 -307.5 -131.25 -309.4 -131.0 -310.9 -131.65" fill="url(#gradient24)" fill-rule="evenodd" stroke="none"/>
    <path d="M-282.15 -244.65 L-281.4 -244.15 -302.5 -213.4 -308.25 -212.65 -309.5 -220.65 -309.25 -221.0 -282.15 -244.65" fill="url(#gradient25)" fill-rule="evenodd" stroke="none"/>
    <path d="M-303.75 -236.15 L-280.15 -246.5 -280.15 -246.4 -280.4 -246.0 -282.15 -245.5 -282.15 -244.65 -309.25 -221.0 -303.75 -236.15" fill="url(#gradient26)" fill-rule="evenodd" stroke="none"/>
    <path d="M-215.25 -245.65 L-192.75 -242.5 -174.75 -230.0 -179.65 -227.65 -196.15 -242.25 -196.5 -242.65 -225.75 -247.15 -224.25 -247.0 -215.25 -245.65" fill="url(#gradient27)" fill-rule="evenodd" stroke="none"/>
    <path d="M-194.75 -226.9 L-196.15 -242.25 -179.65 -227.65 -194.75 -226.9" fill="url(#gradient28)" fill-rule="evenodd" stroke="none"/>
    <path d="M-118.5 -151.25 L-130.9 -152.9 -133.25 -153.5 -147.15 -160.0 -163.9 -170.0 -184.15 -177.65 -193.5 -198.5 -194.75 -226.9 -179.65 -227.65 -150.15 -214.65 -126.25 -205.25 -93.0 -190.0 -108.75 -169.25 -118.5 -151.25" fill="url(#gradient29)" fill-rule="evenodd" stroke="none"/>
    <path d="M-174.75 -230.0 L-144.0 -216.65 -87.4 -192.9 -92.65 -190.0 -93.0 -190.0 -126.25 -205.25 -150.15 -214.65 -179.65 -227.65 -174.75 -230.0" fill="url(#gradient30)" fill-rule="evenodd" stroke="none"/>
    <path d="M-53.0 -157.25 L-71.75 -147.0 -118.5 -151.25 -108.75 -169.25 -93.0 -190.0 -92.65 -190.0 -65.25 -191.5 -26.75 -184.15 -26.65 -183.9 -46.5 -173.0 -53.0 -157.25" fill="url(#gradient31)" fill-rule="evenodd" stroke="none"/>
    <path d="M-184.15 -177.65 L-196.15 -180.65 -196.65 -183.65 Q-202.9 -185.75 -202.9 -187.0 L-193.5 -198.5 -184.15 -177.65" fill="url(#gradient32)" fill-rule="evenodd" stroke="none"/>
    <path d="M-318.15 -228.9 L-317.75 -229.5 -303.75 -236.15 -309.25 -221.0 -309.5 -220.65 -308.25 -212.65 -317.75 -209.15 -321.15 -207.0 -322.65 -209.9 -323.0 -210.0 -318.15 -228.9" fill="url(#gradient33)" fill-rule="evenodd" stroke="none"/>
    <path d="M-346.9 -153.25 L-347.4 -153.0 -347.65 -152.65 -348.0 -152.5 -351.65 -149.65 -351.5 -149.0 -368.0 -142.65 -384.4 -155.25 -390.0 -165.75 -389.25 -166.5 -372.75 -177.25 -331.0 -211.15 -324.9 -219.65 -318.15 -228.9 -323.0 -210.0 -322.65 -209.9 -321.15 -207.0 Q-332.5 -201.0 -338.5 -185.0 L-340.15 -176.5 -340.25 -169.4 -338.5 -160.25 -346.9 -153.25" fill="url(#gradient34)" fill-rule="evenodd" stroke="none"/>
    <path d="M-389.25 -166.5 L-350.4 -200.9 -332.5 -214.75 -324.9 -219.65 -331.0 -211.15 -372.75 -177.25 -389.25 -166.5" fill="url(#gradient35)" fill-rule="evenodd" stroke="none"/>
    <path d="M-69.4 -195.15 L-33.0 -215.75 -1.9 -230.9 -0.9 -231.25 -0.9 -224.5 Q-10.55 -219.8 -20.25 -215.15 L-42.9 -202.5 -65.25 -191.5 -69.4 -195.15" fill="url(#gradient36)" fill-rule="evenodd" stroke="none"/>
    <path d="M-42.9 -202.5 L-20.25 -215.15 Q-10.55 -219.8 -0.9 -224.5 L-0.9 -185.4 -28.25 -171.65 -26.65 -183.9 -26.75 -184.15 -42.9 -202.5" fill="url(#gradient37)" fill-rule="evenodd" stroke="none"/>
    <path d="M-69.4 -195.15 L-65.25 -191.5 -92.65 -190.0 -87.4 -192.9 -69.4 -195.15" fill="url(#gradient38)" fill-rule="evenodd" stroke="none"/>
    <path d="M-65.25 -191.5 L-42.9 -202.5 -26.75 -184.15 -65.25 -191.5" fill="url(#gradient39)" fill-rule="evenodd" stroke="none"/>
    <path d="M-28.25 -171.65 L-53.0 -157.25 -46.5 -173.0 -26.65 -183.9 -28.25 -171.65" fill="url(#gradient40)" fill-rule="evenodd" stroke="none"/>
    <path d="M-390.4 -114.0 L-390.4 -114.15 -390.65 -114.4 -390.75 -114.65 -399.65 -128.15 -400.0 -130.65 -400.0 -150.75 -390.0 -165.75 -384.4 -155.25 -368.0 -142.65 -367.75 -141.75 -366.0 -127.0 -365.5 -126.15 -361.65 -116.65 -381.65 -115.25 -388.25 -111.15 -390.4 -114.0" fill="url(#gradient41)" fill-rule="evenodd" stroke="none"/>
    <path d="M-350.75 -52.15 L-358.65 -63.9 -359.15 -65.15 -359.9 -65.75 -372.25 -83.65 -390.4 -114.0 -388.25 -111.15 -379.4 -98.5 -371.25 -84.5 -357.9 -64.5 -350.15 -54.75 -350.75 -52.15" fill="url(#gradient42)" fill-rule="evenodd" stroke="none"/>
    <path d="M-319.4 -55.15 Q-318.25 -38.9 -333.25 -36.25 -349.0 -35.4 -350.75 -52.15 L-350.15 -54.75 -348.75 -58.0 -345.4 -60.0 Q-336.9 -58.5 -336.5 -56.65 L-330.25 -59.25 -327.75 -58.65 Q-330.65 -63.5 -330.25 -64.25 L-330.0 -65.0 -327.75 -65.25 Q-322.4 -63.9 -319.65 -56.15 L-319.4 -55.15" fill="url(#gradient43)" fill-rule="evenodd" stroke="none"/>
    <path d="M-388.25 -111.15 L-381.65 -115.25 -361.65 -116.65 -361.4 -116.4 -351.4 -91.65 -344.0 -80.75 -338.15 -70.0 -330.25 -59.25 -336.5 -56.65 Q-336.9 -58.5 -345.4 -60.0 L-348.75 -58.0 -350.15 -54.75 -357.9 -64.5 -371.25 -84.5 -379.4 -98.5 -388.25 -111.15" fill="url(#gradient44)" fill-rule="evenodd" stroke="none"/>
    <path d="M-351.9 -107.9 L-335.25 -87.0 -330.15 -76.65 -321.65 -67.0 -317.9 -55.75 -319.65 -56.15 Q-322.4 -63.9 -327.75 -65.25 L-330.0 -65.0 -330.25 -64.25 Q-330.65 -63.5 -327.75 -58.65 L-330.25 -59.25 -338.15 -70.0 -344.0 -80.75 -351.4 -91.65 -361.4 -116.4 -352.65 -108.75 -352.15 -108.15 -351.9 -107.9" fill="url(#gradient45)" fill-rule="evenodd" stroke="none"/>
    <path d="M-361.65 -116.65 L-365.5 -126.15 -352.65 -108.75 -361.4 -116.4 -361.65 -116.65" fill="url(#gradient46)" fill-rule="evenodd" stroke="none"/>
    <path d="M-365.5 -126.15 L-366.0 -127.0 -367.75 -141.75 -352.15 -108.15 -352.65 -108.75 -365.5 -126.15" fill="url(#gradient47)" fill-rule="evenodd" stroke="none"/>
    <path d="M-349.75 -150.4 L-358.65 -135.9 -352.4 -126.75 -351.9 -107.9 -352.15 -108.15 -367.75 -141.75 -368.0 -142.65 -351.5 -149.0 -349.75 -150.4" fill="url(#gradient48)" fill-rule="evenodd" stroke="none"/>
    <path d="M-348.0 -152.5 L-349.75 -150.4 -351.5 -149.0 -351.65 -149.65 -348.0 -152.5" fill="url(#gradient49)" fill-rule="evenodd" stroke="none"/>
    <path d="M-338.4 -159.65 L-346.9 -153.25 -338.5 -160.25 -338.4 -159.65" fill="url(#gradient50)" fill-rule="evenodd" stroke="none"/>
    <path d="M-199.4 -134.65 L-207.25 -80.25 -208.0 -62.4 -211.5 -22.9 -215.75 -21.25 -221.25 -19.65 -229.75 -18.25 -251.0 -15.9 -245.75 -83.4 -232.25 -129.25 -206.75 -137.4 Q-199.65 -136.65 -199.4 -134.65" fill="url(#gradient51)" fill-rule="evenodd" stroke="none"/>
    <path d="M-211.5 -22.9 L-207.0 -0.9 -208.9 -0.9 -215.75 -21.25 -211.5 -22.9" fill="url(#gradient52)" fill-rule="evenodd" stroke="none"/>
    <path d="M-208.9 -0.9 L-247.4 -0.9 -251.0 -15.9 -229.75 -18.25 -221.25 -19.65 -215.75 -21.25 -208.9 -0.9" fill="url(#gradient53)" fill-rule="evenodd" stroke="none"/>
    <path d="M-317.9 -55.75 L-319.4 -55.15 -319.65 -56.15 -317.9 -55.75" fill="url(#gradient54)" fill-rule="evenodd" stroke="none"/>
    <path d="M-247.4 -0.9 L-321.9 -0.9 -312.65 -22.15 -311.65 -23.9 -307.9 -21.0 -270.4 -15.9 -251.0 -15.9 -247.4 -0.9" fill="url(#gradient55)" fill-rule="evenodd" stroke="none"/>
    <path d="M-321.9 -0.9 L-324.15 -1.15 -312.65 -22.15 -321.9 -0.9" fill="url(#gradient56)" fill-rule="evenodd" stroke="none"/>
    <path d="M-227.25 -259.4 L-227.25 -258.65 -227.4 -257.5 -227.5 -257.25 -227.4 -257.0 -227.65 -254.4 -227.75 -254.0 -227.75 -253.4 -228.25 -253.65 -228.4 -253.9 -228.5 -254.4 -228.9 -254.65 -229.0 -255.15 -229.65 -255.9 -234.15 -257.75 -234.15 -257.9 -237.0 -258.9 -227.25 -259.4" fill="#a90000" fill-rule="evenodd" stroke="none"/>
    <path d="M-237.0 -258.9 L-234.15 -257.9 -234.15 -257.75 -229.65 -255.9 -229.0 -255.15 -228.9 -254.65 -228.5 -254.4 -228.4 -253.9 -228.25 -253.65 -227.75 -253.4 -227.75 -254.0 -227.65 -254.4 -227.4 -257.0 -227.5 -257.25 -227.4 -257.5 -227.25 -258.65 -227.25 -259.4 -226.5 -259.0 -223.4 -256.75 -222.15 -255.4 -220.9 -253.5 -219.25 -250.5 -217.75 -248.75 -219.0 -246.9 -219.75 -246.4 -224.5 -247.0 -224.9 -249.15 -225.75 -249.75 -227.5 -252.9 -227.65 -252.9 -227.9 -252.25 -227.9 -251.75 -227.75 -251.5 -227.75 -251.25 -227.9 -250.75 -228.25 -247.9 -228.25 -247.75 -228.5 -247.5 -228.4 -247.4 -230.5 -232.75 -230.4 -231.5 -230.9 -228.4 -239.75 -211.4 -239.75 -211.25 -243.15 -204.9 -243.9 -203.15 -234.9 -199.0 -234.75 -198.75 -232.65 -197.75 -232.15 -197.65 -220.75 -192.25 -220.65 -192.0 -217.4 -190.4 -244.25 -186.9 -244.9 -186.65 -257.75 -185.15 -256.4 -189.75 -256.5 -190.0 -256.25 -190.25 -254.0 -197.9 -253.9 -198.15 -253.15 -201.0 -247.5 -211.75 -247.4 -211.9 -247.25 -212.0 -239.15 -227.4 -238.65 -228.65 -237.75 -234.65 -237.75 -235.15 -235.75 -247.0 -235.65 -248.15 -235.65 -248.25 -235.75 -248.4 -235.5 -248.5 -235.15 -250.75 -235.75 -252.5 -235.5 -253.4 -236.75 -257.65 -237.0 -258.9 M-288.25 -257.0 L-277.4 -254.5 -273.25 -253.0 -277.5 -251.5 -277.65 -252.0 -283.15 -254.15 -286.75 -254.75 -287.15 -254.9 -289.75 -255.4 -288.25 -257.0" fill="#9b0000" fill-opacity="0.9098039" fill-rule="evenodd" stroke="none"/>
    <path d="M-294.5 -256.4 L-288.25 -257.0 -289.75 -255.4 -291.25 -255.65 -291.4 -255.75 -294.5 -256.4" fill="#ac0000" fill-rule="evenodd" stroke="none"/>
    <path d="M-342.9 -190.15 L-341.65 -191.25 -341.15 -192.0 -331.25 -200.0 -324.15 -208.5 -323.75 -208.9 -323.5 -209.25 -323.0 -209.75 -322.9 -209.9 -322.9 -210.0 -322.75 -209.9 -322.9 -210.25 -321.4 -211.5 -309.4 -225.75 -307.15 -234.5 -306.9 -234.65 -306.9 -234.75 -299.5 -238.0 -302.0 -227.4 -302.65 -226.0 -308.15 -219.25 -309.0 -218.5 -309.15 -218.0 -316.75 -208.75 -317.25 -208.25 -317.75 -207.4 -318.25 -207.0 -321.65 -202.75 -322.0 -202.4 -322.9 -201.0 -322.75 -200.9 -323.9 -197.25 -324.15 -197.0 -326.0 -190.5 -326.25 -190.15 -328.75 -181.9 -329.0 -181.4 -331.15 -174.9 -333.65 -178.0 -333.9 -178.4 -334.15 -178.65 -334.25 -179.0 -338.5 -184.5 -338.65 -184.75 -338.25 -185.25 -340.65 -187.5 -341.15 -188.15 -342.4 -189.65 -342.5 -189.9 -342.9 -190.15 M-295.25 -255.75 L-294.5 -256.4 -291.4 -255.75 -291.25 -255.65 -289.75 -255.4 -291.15 -253.75 -291.4 -254.0 -295.25 -255.75" fill="#9e0000" fill-opacity="0.9098039" fill-rule="evenodd" stroke="none"/>
    <path d="M-257.75 -185.15 L-244.9 -186.65 -244.25 -186.9 -217.4 -190.4 -217.4 -189.0 -217.65 -187.75 -217.5 -187.5 -218.0 -181.4 -218.25 -180.4 -218.9 -171.0 -219.0 -170.75 -219.0 -168.15 -219.15 -167.5 -219.15 -167.25 -219.5 -162.9 -219.65 -162.15 -219.75 -162.0 -219.75 -161.65 -219.9 -161.15 -220.0 -160.4 -220.15 -159.9 -220.9 -154.15 -221.0 -153.9 -221.0 -153.15 -221.9 -147.5 -222.0 -147.15 -222.15 -146.9 -222.4 -144.75 -222.4 -144.25 -222.75 -141.9 -223.0 -141.15 -223.0 -140.25 -223.5 -137.25 -223.5 -137.15 -223.65 -136.65 -223.65 -136.25 -223.9 -135.9 -223.75 -135.65 -224.0 -135.25 -224.4 -131.75 -224.5 -131.5 -224.5 -130.65 -224.65 -130.15 -228.15 -130.4 -232.0 -130.4 -233.75 -130.65 -234.15 -130.65 -264.4 -132.4 -298.9 -133.0 -314.0 -134.5 -314.15 -134.5 -314.65 -134.65 -314.9 -134.65 -316.25 -134.4 -317.25 -134.4 -317.5 -134.25 -320.25 -136.25 -323.65 -138.15 -324.15 -138.9 -324.25 -138.9 -326.0 -140.4 -326.15 -140.4 -330.15 -144.65 -330.25 -144.9 -334.4 -150.75 -335.0 -152.0 -335.15 -152.25 -338.4 -159.65 -338.4 -160.15 -338.9 -161.9 -340.15 -168.15 -340.0 -168.5 -340.15 -168.75 -340.4 -170.65 -340.15 -176.65 -340.0 -177.0 -338.5 -184.5 -334.25 -179.0 -334.15 -178.65 -333.9 -178.4 -333.65 -178.0 -331.15 -174.9 -323.4 -168.9 -323.5 -168.65 -322.5 -168.15 -322.25 -167.75 -312.75 -160.5 -312.4 -160.4 -306.5 -155.9 -306.4 -155.5 -294.0 -146.25 -281.5 -154.65 -281.4 -154.9 -270.25 -162.25 -270.15 -162.65 -264.25 -166.5 -262.9 -170.25 -262.65 -170.5 -259.4 -180.65 -259.15 -181.0 -257.75 -185.15 M-331.15 -156.0 L-330.15 -152.75 -330.15 -152.65 -330.0 -152.25 Q-329.8 -152.3 -329.65 -152.4 L-329.75 -152.9 -331.15 -156.0 M-253.65 -154.5 L-252.75 -155.4 -252.25 -156.65 -252.4 -156.75 -252.65 -157.15 -253.4 -157.9 -253.75 -157.65 -254.0 -157.4 -254.25 -157.0 -254.4 -156.9 -254.25 -156.5 -253.75 -155.5 -253.65 -154.5" fill="#b00000" fill-opacity="0.9098039" fill-rule="evenodd" stroke="none"/>
    <path d="M-306.9 -234.75 L-303.4 -247.65 -295.25 -255.75 -291.4 -254.0 -291.15 -253.75 -296.75 -247.9 -299.25 -238.25 -299.25 -238.15 -299.5 -238.0 -306.9 -234.75" fill="#ae0000" fill-opacity="0.9098039" fill-rule="evenodd" stroke="none"/>
    <path d="M-343.65 -155.65 L-343.9 -155.9 -348.65 -161.4 -348.25 -163.75 -348.0 -164.4 -345.9 -174.75 -346.0 -175.65 -344.15 -183.75 -344.25 -184.0 -344.0 -184.65 -343.5 -186.9 -343.65 -187.25 -343.0 -188.9 -342.9 -190.15 -342.5 -189.9 -342.4 -189.65 -341.15 -188.15 -341.15 -187.9 -340.65 -187.5 -338.65 -184.75 -338.5 -184.5 -340.0 -177.0 -340.15 -176.65 -340.4 -170.65 -340.15 -168.75 -340.0 -168.5 -340.15 -168.15 -338.9 -161.9 -338.4 -160.15 -338.4 -159.65 -343.65 -155.65" fill="#c40000" fill-rule="evenodd" stroke="none"/>
    <path d="M-324.65 -133.5 L-324.9 -133.9 -343.65 -155.65 -338.4 -159.65 -335.15 -152.25 -335.0 -152.0 -334.4 -150.75 -330.25 -144.9 -330.15 -144.65 -326.15 -140.4 -326.0 -140.4 -324.25 -138.9 -324.15 -138.9 -323.65 -138.15 -320.25 -136.25 -317.5 -134.25 -324.65 -133.5" fill="#c60000" fill-rule="evenodd" stroke="none"/>
    <path d="M-340.65 -187.5 L-338.25 -185.25 -338.65 -184.75 -340.65 -187.5 -341.15 -187.9 -341.15 -188.15 -340.65 -187.5" fill="#b10000" fill-rule="evenodd" stroke="none"/>
    <path d="M-217.4 -190.4 L-216.9 -190.15 -212.9 -186.4 -212.4 -186.0 -209.75 -183.5 -209.5 -183.15 -207.15 -180.9 -206.75 -180.75 -206.4 -180.15 -201.15 -175.5 -200.9 -175.0 -197.5 -171.9 -197.25 -171.9 -197.15 -171.5 -196.75 -171.15 -197.15 -168.75 -197.15 -167.65 -197.0 -167.0 -197.25 -166.9 -197.9 -154.5 -198.75 -145.5 -198.75 -144.5 -198.65 -143.75 -198.9 -143.65 -199.15 -138.4 -224.65 -130.15 -224.5 -130.65 -224.5 -131.5 -224.4 -131.75 -224.0 -135.25 -223.75 -135.65 -223.9 -135.9 -223.65 -136.25 -223.65 -136.65 -223.5 -137.15 -223.5 -137.25 -223.0 -140.25 -223.0 -141.15 -222.75 -141.9 -222.4 -144.25 -222.4 -144.75 -222.15 -146.9 -222.0 -147.15 -221.9 -147.5 -221.0 -153.15 -221.0 -153.9 -220.9 -154.15 -220.15 -159.9 -220.0 -160.4 -219.9 -161.15 -219.75 -161.65 -219.75 -162.0 -219.65 -162.15 -219.5 -162.9 -219.15 -167.25 -219.15 -167.5 -219.0 -168.15 -219.0 -170.75 -218.9 -171.0 -218.25 -180.4 -218.0 -181.4 -217.5 -187.5 -217.65 -187.75 -217.4 -189.0 -217.4 -190.4" fill="#d80000" fill-opacity="0.9098039" fill-rule="evenodd" stroke="none"/>
    <path d="M-196.75 -171.15 L-192.5 -167.4 -182.75 -149.15 -184.4 -140.0 -184.75 -139.75 -188.15 -138.25 -194.65 -140.0 -199.15 -138.4 -198.9 -143.65 -198.65 -143.75 -198.75 -144.5 -198.75 -145.5 -197.9 -154.5 -197.25 -166.9 -197.0 -167.0 -197.15 -167.65 -197.15 -168.75 -196.75 -171.15" fill="#ee0000" fill-opacity="0.9098039" fill-rule="evenodd" stroke="none"/>
    <path d="M-199.15 -138.4 L-194.65 -140.0 -188.15 -138.25 -195.4 -134.5 -199.75 -132.65 -199.5 -134.9 -199.5 -135.0 -199.15 -138.4" fill="#f30000" fill-opacity="0.9098039" fill-rule="evenodd" stroke="none"/>
    <path d="M-184.75 -139.75 L-187.65 -136.75 -187.4 -137.9 -188.15 -138.25 -184.75 -139.75 M-209.65 -13.15 L-210.25 -17.0 -205.9 -14.9 Q-207.75 -14.0 -209.65 -13.15" fill="#ef0000" fill-rule="evenodd" stroke="none"/>
    <path d="M-224.65 -130.15 L-199.15 -138.4 -199.5 -135.0 -199.5 -134.9 -199.75 -132.65 -200.0 -130.75 -199.9 -130.4 -207.15 -81.4 -208.15 -63.75 -208.0 -62.25 -209.9 -41.75 -209.75 -40.75 -211.5 -24.25 -211.5 -22.9 -210.25 -17.0 -209.65 -13.15 -210.4 -12.75 -216.9 -10.5 -217.15 -10.5 -226.0 -8.9 -226.4 -8.75 -242.25 -6.9 -242.75 -6.75 -248.65 -6.15 -248.9 -6.0 -251.15 -5.75 -249.9 -11.25 -250.0 -12.4 -249.5 -14.25 -246.4 -30.4 -246.0 -35.0 -246.15 -35.4 -244.25 -57.25 -244.4 -57.65 -242.65 -79.65 -242.75 -80.0 -242.5 -80.25 -230.15 -114.9 -230.0 -115.65 -224.65 -130.15" fill="#dd0000" fill-opacity="0.9098039" fill-rule="evenodd" stroke="none"/>
    <path d="M-197.5 -80.75 L-198.65 -57.65 -200.4 -35.5 -205.9 -14.9 -210.25 -17.0 -211.5 -22.9 -211.5 -24.25 -209.75 -40.75 -209.9 -41.75 -208.0 -62.25 -208.15 -63.75 -207.15 -81.4 -199.9 -130.4 -200.0 -130.75 -199.75 -132.65 -195.4 -134.5 -197.5 -80.75" fill="#ed0000" fill-rule="evenodd" stroke="none"/>
    <path d="M-187.65 -136.75 L-187.75 -136.4 -197.5 -80.75 -195.4 -134.5 -188.15 -138.25 -187.4 -137.9 -187.65 -136.75" fill="#f40000" fill-rule="evenodd" stroke="none"/>
    <path d="M-317.5 -134.25 L-317.25 -134.4 -316.25 -134.4 -314.9 -134.65 -314.65 -134.65 -314.15 -134.5 -314.0 -134.5 -298.9 -133.0 -264.4 -132.4 -234.15 -130.65 -233.75 -130.65 -232.0 -130.4 -228.15 -130.4 -224.65 -130.15 -230.0 -115.65 -230.15 -114.9 -242.5 -80.25 -242.75 -80.0 -242.65 -79.65 -244.4 -57.65 -244.25 -57.25 -246.15 -35.4 -246.0 -35.0 -246.4 -30.4 -249.5 -14.25 -250.0 -12.4 -249.9 -11.25 -251.15 -5.75 -273.9 -5.75 -308.9 -10.9 -318.15 -12.15 -318.15 -12.25 -312.65 -22.15 -311.75 -23.5 -311.75 -23.65 -311.65 -23.9 -311.65 -24.5 -309.75 -43.5 -309.75 -45.4 -307.9 -64.9 -307.9 -66.9 -306.0 -87.4 -306.0 -88.15 -310.15 -128.9 -310.5 -130.9 -310.9 -131.65 -311.5 -132.0 -311.65 -132.0 -312.15 -132.25 -316.25 -133.65 -317.15 -134.25 -317.5 -134.25" fill="#a70000" fill-opacity="0.9098039" fill-rule="evenodd" stroke="none"/>
    <path d="M-207.0 -0.9 L-249.9 -0.9 -251.15 -5.75 -248.9 -6.0 -248.65 -6.15 -242.75 -6.75 -242.25 -6.9 -226.4 -8.75 -226.0 -8.9 -217.15 -10.5 -216.9 -10.5 -210.4 -12.75 -210.15 -11.4 -208.65 -8.0 -208.65 -7.9 -208.5 -7.4 -208.5 -7.25 -208.4 -7.0 -207.5 -4.0 -207.0 -0.9" fill="#d10000" fill-opacity="0.9098039" fill-rule="evenodd" stroke="none"/>
    <path d="M-210.4 -12.75 L-209.65 -13.15 -208.65 -8.0 -210.15 -11.4 -210.4 -12.75" fill="#e80000" fill-opacity="0.9098039" fill-rule="evenodd" stroke="none"/>
    <path d="M-322.5 -15.9 L-322.4 -16.25 -322.75 -42.0 -320.9 -44.65 -319.75 -47.15 -319.15 -49.5 -319.25 -50.0 -319.15 -50.4 -319.15 -54.0 -319.4 -54.75 -319.4 -55.15 -317.9 -55.75 -320.65 -63.4 -320.75 -64.5 -318.65 -87.5 -324.65 -133.5 -317.5 -134.25 -317.15 -134.25 -316.25 -133.65 -312.15 -132.25 -311.65 -132.0 -311.5 -132.0 -310.9 -131.65 -310.5 -130.9 -310.15 -128.9 -306.0 -88.15 -306.0 -87.4 -307.9 -66.9 -307.9 -64.9 -309.75 -45.4 -309.75 -43.5 -311.65 -24.5 -311.65 -23.9 -311.75 -23.65 -311.75 -23.5 -312.65 -22.15 -318.15 -12.25 -322.5 -15.9" fill="#bd0000" fill-rule="evenodd" stroke="none"/>
    <path d="M-324.15 -0.9 L-329.5 -0.9 -323.65 -13.75 -323.65 -13.9 -322.5 -15.9 -318.15 -12.25 -318.15 -12.15 -324.15 -0.9 M-322.75 -42.0 L-322.5 -42.5 -322.65 -43.15 -322.5 -43.4 -322.4 -44.4 -322.5 -44.65 -322.4 -45.0 -322.25 -45.25 -322.4 -45.65 -322.15 -46.9 -322.15 -47.0 -321.9 -48.65 -321.9 -49.4 -322.0 -49.65 -321.9 -49.9 -321.65 -50.9 -321.65 -52.75 -321.75 -52.75 -321.65 -53.0 -321.65 -54.75 -321.4 -56.0 -321.25 -56.25 -321.5 -57.0 -321.0 -58.9 -321.0 -59.25 -321.15 -59.4 -321.15 -59.65 -320.65 -63.4 -317.9 -55.75 -319.4 -55.15 -319.4 -54.75 -319.15 -54.0 -319.15 -50.4 -319.25 -50.0 -319.15 -49.5 -319.75 -47.15 -320.9 -44.65 -322.75 -42.0" fill="#bb0000" fill-rule="evenodd" stroke="none"/>
    <path d="M-329.5 -0.9 L-331.15 -0.9 -323.65 -13.75 -329.5 -0.9" fill="#fd0000" fill-rule="evenodd" stroke="none"/>
    <path d="M-249.9 -0.9 L-324.15 -0.9 -318.15 -12.15 -308.9 -10.9 -273.9 -5.75 -251.15 -5.75 -249.9 -0.9" fill="#a50000" fill-opacity="0.9098039" fill-rule="evenodd" stroke="none"/>
    <path d="M-205.9 -14.9 L-202.65 -0.9 -206.25 -0.9 -206.65 -1.75 -206.75 -2.15 -207.5 -4.0 -208.4 -7.0 -208.5 -7.25 -208.5 -7.4 -208.65 -7.9 -208.65 -8.0 -209.65 -13.15 Q-207.75 -14.0 -205.9 -14.9" fill="#fa0000" fill-rule="evenodd" stroke="none"/>
    <path d="M-206.25 -0.9 L-207.0 -0.9 -207.5 -4.0 -206.75 -2.15 -206.65 -1.75 -206.25 -0.9" fill="#e30000" fill-rule="evenodd" stroke="none"/>
  </g>
  <defs>
    <radialGradient cx="0" cy="0" gradientTransform="matrix(0.1964, 0.0, 0.0, 0.1964, -173.5, -300.0)" gradientUnits="userSpaceOnUse" id="gradient0" r="819.2" spreadMethod="pad">
      <stop offset="0.0" stop-color="#515151"/>
      <stop offset="1.0" stop-color="#1f1f1f"/>
    </radialGradient>
    <radialGradient cx="0" cy="0" gradientTransform="matrix(0.1028, 0.0, 0.0, 0.1028, -249.3, -283.95)" gradientUnits="userSpaceOnUse" id="gradient1" r="819.2" spreadMethod="pad">
      <stop offset="0.0" stop-color="#7d7d7d"/>
      <stop offset="1.0" stop-color="#0a0a0a"/>
    </radialGradient>
    <radialGradient cx="0" cy="0" gradientTransform="matrix(0.0401, 0.0, 0.0, 0.0401, -265.8, -259.85)" gradientUnits="userSpaceOnUse" id="gradient2" r="819.2" spreadMethod="pad">
      <stop offset="0.0" stop-color="#1a1a1a"/>
      <stop offset="1.0" stop-color="#000000"/>
    </radialGradient>
    <radialGradient cx="0" cy="0" gradientTransform="matrix(0.0218, 0.0, 0.0, 0.0218, -245.6, -270.2)" gradientUnits="userSpaceOnUse" id="gradient3" r="819.2" spreadMethod="pad">
      <stop offset="0.0" stop-color="#797979"/>
      <stop offset="1.0" stop-color="#000000"/>
    </radialGradient>
    <radialGradient cx="0" cy="0" gradientTransform="matrix(0.3069, 0.0, 0.0, 0.3069, -225.9, -257.65)" gradientUnits="userSpaceOnUse" id="gradient4" r="819.2" spreadMethod="pad">
      <stop offset="0.0" stop-color="#101010"/>
      <stop offset="1.0" stop-color="#000000"/>
    </radialGradient>
    <radialGradient cx="0" cy="0" gradientTransform="matrix(0.0184, 0.0, 0.0, 0.0184, -188.9, -285.7)" gradientUnits="userSpaceOnUse" id="gradient5" r="819.2" spreadMethod="pad">
      <stop offset="0.0" stop-color="#1e1e1e"/>
      <stop offset="1.0" stop-color="#1c1c1c"/>
    </radialGradient>
    <radialGradient cx="0" cy="0" gradientTransform="matrix(0.0375, 0.0, 0.0, 0.0375, -160.3, -274.5)" gradientUnits="userSpaceOnUse" id="gradient6" r="819.2" spreadMethod="pad">
      <stop offset="0.0" stop-color="#414141"/>
      <stop offset="1.0" stop-color="#2f2f2f"/>
    </radialGradient>
    <radialGradient cx="0" cy="0" gradientTransform="matrix(0.0033, 0.0, 0.0, 0.0033, -333.9, -300.0)" gradientUnits="userSpaceOnUse" id="gradient7" r="819.2" spreadMethod="pad">
      <stop offset="0.0" stop-color="#313131"/>
      <stop offset="1.0" stop-color="#303030"/>
    </radialGradient>
    <radialGradient cx="0" cy="0" gradientTransform="matrix(0.1644, 0.0, 0.0, 0.1644, -302.95, -131.95)" gradientUnits="userSpaceOnUse" id="gradient8" r="819.2" spreadMethod="pad">
      <stop offset="0.0" stop-color="#6a6a6a"/>
      <stop offset="1.0" stop-color="#000000"/>
    </radialGradient>
    <radialGradient cx="0" cy="0" gradientTransform="matrix(0.0437, 0.0, 0.0, 0.0437, -236.45, -251.5)" gradientUnits="userSpaceOnUse" id="gradient9" r="819.2" spreadMethod="pad">
      <stop offset="0.0" stop-color="#000000"/>
      <stop offset="1.0" stop-color="#000000"/>
    </radialGradient>
    <radialGradient cx="0" cy="0" gradientTransform="matrix(0.0366, 0.0, 0.0, 0.0366, -226.0, -253.6)" gradientUnits="userSpaceOnUse" id="gradient10" r="819.2" spreadMethod="pad">
      <stop offset="0.0" stop-color="#7b7b7b"/>
      <stop offset="1.0" stop-color="#090909"/>
    </radialGradient>
    <radialGradient cx="0" cy="0" gradientTransform="matrix(0.0096, 0.0, 0.0, 0.0096, -6.65, -277.3)" gradientUnits="userSpaceOnUse" id="gradient11" r="819.2" spreadMethod="pad">
      <stop offset="0.0" stop-color="#040404"/>
      <stop offset="1.0" stop-color="#040404"/>
    </radialGradient>
    <radialGradient cx="0" cy="0" gradientTransform="matrix(0.0101, 0.0, 0.0, 0.0101, -6.65, -277.3)" gradientUnits="userSpaceOnUse" id="gradient12" r="819.2" spreadMethod="pad">
      <stop offset="0.0" stop-color="#181818"/>
      <stop offset="1.0" stop-color="#141414"/>
    </radialGradient>
    <radialGradient cx="0" cy="0" gradientTransform="matrix(0.0058, 0.0, 0.0, 0.0058, -2.3, -276.7)" gradientUnits="userSpaceOnUse" id="gradient13" r="819.2" spreadMethod="pad">
      <stop offset="0.0" stop-color="#171717"/>
      <stop offset="1.0" stop-color="#171717"/>
    </radialGradient>
    <radialGradient cx="0" cy="0" gradientTransform="matrix(0.0122, 0.0, 0.0, 0.0122, -10.15, -257.35)" gradientUnits="userSpaceOnUse" id="gradient14" r="819.2" spreadMethod="pad">
      <stop offset="0.0" stop-color="#030303"/>
      <stop offset="1.0" stop-color="#030303"/>
    </radialGradient>
    <radialGradient cx="0" cy="0" gradientTransform="matrix(0.0123, 0.0, 0.0, 0.0123, -10.55, -255.85)" gradientUnits="userSpaceOnUse" id="gradient15" r="819.2" spreadMethod="pad">
      <stop offset="0.0" stop-color="#040404"/>
      <stop offset="1.0" stop-color="#040404"/>
    </radialGradient>
    <radialGradient cx="0" cy="0" gradientTransform="matrix(0.0117, 0.0, 0.0, 0.0117, -10.05, -255.95)" gradientUnits="userSpaceOnUse" id="gradient16" r="819.2" spreadMethod="pad">
      <stop offset="0.0" stop-color="#030303"/>
      <stop offset="1.0" stop-color="#030303"/>
    </radialGradient>
    <radialGradient cx="0" cy="0" gradientTransform="matrix(0.0167, 0.0, 0.0, 0.0167, -10.55, -255.85)" gradientUnits="userSpaceOnUse" id="gradient17" r="819.2" spreadMethod="pad">
      <stop offset="0.0" stop-color="#040404"/>
      <stop offset="1.0" stop-color="#040404"/>
    </radialGradient>
    <radialGradient cx="0" cy="0" gradientTransform="matrix(0.3148, 0.0, 0.0, 0.3148, -225.8, -264.1)" gradientUnits="userSpaceOnUse" id="gradient18" r="819.2" spreadMethod="pad">
      <stop offset="0.0" stop-color="#1a1a1a"/>
      <stop offset="1.0" stop-color="#0b0b0b"/>
    </radialGradient>
    <radialGradient cx="0" cy="0" gradientTransform="matrix(0.0799, 0.0, 0.0, 0.0799, -193.45, -198.9)" gradientUnits="userSpaceOnUse" id="gradient19" r="819.2" spreadMethod="pad">
      <stop offset="0.0" stop-color="#595959"/>
      <stop offset="1.0" stop-color="#000000"/>
    </radialGradient>
    <radialGradient cx="0" cy="0" gradientTransform="matrix(0.1313, 0.0, 0.0, 0.1313, -289.25, -163.25)" gradientUnits="userSpaceOnUse" id="gradient20" r="819.2" spreadMethod="pad">
      <stop offset="0.0" stop-color="#010101"/>
      <stop offset="1.0" stop-color="#000000"/>
    </radialGradient>
    <radialGradient cx="0" cy="0" gradientTransform="matrix(0.1177, 0.0, 0.0, 0.1177, -198.4, -159.9)" gradientUnits="userSpaceOnUse" id="gradient21" r="819.2" spreadMethod="pad">
      <stop offset="0.0" stop-color="#3f3f3f"/>
      <stop offset="1.0" stop-color="#000000"/>
    </radialGradient>
    <radialGradient cx="0" cy="0" gradientTransform="matrix(0.0932, 0.0, 0.0, 0.0932, -265.95, -141.55)" gradientUnits="userSpaceOnUse" id="gradient22" r="819.2" spreadMethod="pad">
      <stop offset="0.0" stop-color="#878787"/>
      <stop offset="1.0" stop-color="#000000"/>
    </radialGradient>
    <radialGradient cx="0" cy="0" gradientTransform="matrix(0.1552, 0.0, 0.0, 0.1552, -302.95, -131.95)" gradientUnits="userSpaceOnUse" id="gradient23" r="819.2" spreadMethod="pad">
      <stop offset="0.0" stop-color="#6a6a6a"/>
      <stop offset="1.0" stop-color="#000000"/>
    </radialGradient>
    <radialGradient cx="0" cy="0" gradientTransform="matrix(0.0889, 0.0, 0.0, 0.0889, -317.35, -145.35)" gradientUnits="userSpaceOnUse" id="gradient24" r="819.2" spreadMethod="pad">
      <stop offset="0.0" stop-color="#858585"/>
      <stop offset="1.0" stop-color="#000000"/>
    </radialGradient>
    <radialGradient cx="0" cy="0" gradientTransform="matrix(0.077, 0.0, 0.0, 0.077, -305.1, -189.5)" gradientUnits="userSpaceOnUse" id="gradient25" r="819.2" spreadMethod="pad">
      <stop offset="0.0" stop-color="#171717"/>
      <stop offset="1.0" stop-color="#000000"/>
    </radialGradient>
    <radialGradient cx="0" cy="0" gradientTransform="matrix(0.0486, 0.0, 0.0, 0.0486, -279.35, -247.1)" gradientUnits="userSpaceOnUse" id="gradient26" r="819.2" spreadMethod="pad">
      <stop offset="0.0" stop-color="#000000"/>
      <stop offset="1.0" stop-color="#000000"/>
    </radialGradient>
    <radialGradient cx="0" cy="0" gradientTransform="matrix(0.0488, 0.0, 0.0, 0.0488, -196.4, -242.6)" gradientUnits="userSpaceOnUse" id="gradient27" r="819.2" spreadMethod="pad">
      <stop offset="0.0" stop-color="#000000"/>
      <stop offset="1.0" stop-color="#000000"/>
    </radialGradient>
    <radialGradient cx="0" cy="0" gradientTransform="matrix(0.0192, 0.0, 0.0, 0.0192, -194.8, -226.95)" gradientUnits="userSpaceOnUse" id="gradient28" r="819.2" spreadMethod="pad">
      <stop offset="0.0" stop-color="#000000"/>
      <stop offset="1.0" stop-color="#000000"/>
    </radialGradient>
    <radialGradient cx="0" cy="0" gradientTransform="matrix(0.0981, 0.0, 0.0, 0.0981, -173.25, -193.7)" gradientUnits="userSpaceOnUse" id="gradient29" r="819.2" spreadMethod="pad">
      <stop offset="0.0" stop-color="#616161"/>
      <stop offset="1.0" stop-color="#000000"/>
    </radialGradient>
    <radialGradient cx="0" cy="0" gradientTransform="matrix(0.0809, 0.0, 0.0, 0.0809, -150.0, -214.75)" gradientUnits="userSpaceOnUse" id="gradient30" r="819.2" spreadMethod="pad">
      <stop offset="0.0" stop-color="#000000"/>
      <stop offset="1.0" stop-color="#000000"/>
    </radialGradient>
    <radialGradient cx="0" cy="0" gradientTransform="matrix(0.08, 0.0, 0.0, 0.08, -53.15, -157.2)" gradientUnits="userSpaceOnUse" id="gradient31" r="819.2" spreadMethod="pad">
      <stop offset="0.0" stop-color="#161616"/>
      <stop offset="1.0" stop-color="#000000"/>
    </radialGradient>
    <radialGradient cx="0" cy="0" gradientTransform="matrix(0.0283, 0.0, 0.0, 0.0283, -193.45, -198.9)" gradientUnits="userSpaceOnUse" id="gradient32" r="819.2" spreadMethod="pad">
      <stop offset="0.0" stop-color="#595959"/>
      <stop offset="1.0" stop-color="#000000"/>
    </radialGradient>
    <radialGradient cx="0" cy="0" gradientTransform="matrix(0.0571, 0.0, 0.0, 0.0571, -305.1, -189.5)" gradientUnits="userSpaceOnUse" id="gradient33" r="819.2" spreadMethod="pad">
      <stop offset="0.0" stop-color="#171717"/>
      <stop offset="1.0" stop-color="#000000"/>
    </radialGradient>
    <radialGradient cx="0" cy="0" gradientTransform="matrix(0.0944, 0.0, 0.0, 0.0944, -352.15, -160.2)" gradientUnits="userSpaceOnUse" id="gradient34" r="819.2" spreadMethod="pad">
      <stop offset="0.0" stop-color="#6a6a6a"/>
      <stop offset="1.0" stop-color="#000000"/>
    </radialGradient>
    <radialGradient cx="0" cy="0" gradientTransform="matrix(0.0879, 0.0, 0.0, 0.0879, -367.75, -185.55)" gradientUnits="userSpaceOnUse" id="gradient35" r="819.2" spreadMethod="pad">
      <stop offset="0.0" stop-color="#0f0f0f"/>
      <stop offset="1.0" stop-color="#040404"/>
    </radialGradient>
    <radialGradient cx="0" cy="0" gradientTransform="matrix(0.0619, 0.0, 0.0, 0.0619, -42.85, -202.6)" gradientUnits="userSpaceOnUse" id="gradient36" r="819.2" spreadMethod="pad">
      <stop offset="0.0" stop-color="#000000"/>
      <stop offset="1.0" stop-color="#000000"/>
    </radialGradient>
    <radialGradient cx="0" cy="0" gradientTransform="matrix(0.0577, 0.0, 0.0, 0.0577, -42.85, -202.6)" gradientUnits="userSpaceOnUse" id="gradient37" r="819.2" spreadMethod="pad">
      <stop offset="0.0" stop-color="#000000"/>
      <stop offset="1.0" stop-color="#000000"/>
    </radialGradient>
    <radialGradient cx="0" cy="0" gradientTransform="matrix(0.0341, 0.0, 0.0, 0.0341, -92.95, -190.05)" gradientUnits="userSpaceOnUse" id="gradient38" r="819.2" spreadMethod="pad">
      <stop offset="0.0" stop-color="#000000"/>
      <stop offset="1.0" stop-color="#000000"/>
    </radialGradient>
    <radialGradient cx="0" cy="0" gradientTransform="matrix(0.0302, 0.0, 0.0, 0.0302, -42.85, -202.6)" gradientUnits="userSpaceOnUse" id="gradient39" r="819.2" spreadMethod="pad">
      <stop offset="0.0" stop-color="#000000"/>
      <stop offset="1.0" stop-color="#000000"/>
    </radialGradient>
    <radialGradient cx="0" cy="0" gradientTransform="matrix(0.0461, 0.0, 0.0, 0.0461, -53.15, -157.2)" gradientUnits="userSpaceOnUse" id="gradient40" r="819.2" spreadMethod="pad">
      <stop offset="0.0" stop-color="#161616"/>
      <stop offset="1.0" stop-color="#000000"/>
    </radialGradient>
    <radialGradient cx="0" cy="0" gradientTransform="matrix(0.067, 0.0, 0.0, 0.067, -388.15, -111.15)" gradientUnits="userSpaceOnUse" id="gradient41" r="819.2" spreadMethod="pad">
      <stop offset="0.0" stop-color="#393939"/>
      <stop offset="1.0" stop-color="#000000"/>
    </radialGradient>
    <radialGradient cx="0" cy="0" gradientTransform="matrix(0.0914, 0.0, 0.0, 0.0914, -357.65, -64.5)" gradientUnits="userSpaceOnUse" id="gradient42" r="819.2" spreadMethod="pad">
      <stop offset="0.0" stop-color="#505050"/>
      <stop offset="1.0" stop-color="#2f2f2f"/>
    </radialGradient>
    <radialGradient cx="0" cy="0" gradientTransform="matrix(0.0387, 0.0, 0.0, 0.0387, -319.15, -53.45)" gradientUnits="userSpaceOnUse" id="gradient43" r="819.2" spreadMethod="pad">
      <stop offset="0.0" stop-color="#858585"/>
      <stop offset="1.0" stop-color="#040404"/>
    </radialGradient>
    <radialGradient cx="0" cy="0" gradientTransform="matrix(0.0686, 0.0, 0.0, 0.0686, -357.65, -64.5)" gradientUnits="userSpaceOnUse" id="gradient44" r="819.2" spreadMethod="pad">
      <stop offset="0.0" stop-color="#505050"/>
      <stop offset="1.0" stop-color="#000000"/>
    </radialGradient>
    <radialGradient cx="0" cy="0" gradientTransform="matrix(0.0621, 0.0, 0.0, 0.0621, -330.05, -76.7)" gradientUnits="userSpaceOnUse" id="gradient45" r="819.2" spreadMethod="pad">
      <stop offset="0.0" stop-color="#3a3a3a"/>
      <stop offset="1.0" stop-color="#0c0c0c"/>
    </radialGradient>
    <radialGradient cx="0" cy="0" gradientTransform="matrix(0.0291, 0.0, 0.0, 0.0291, -351.9, -107.85)" gradientUnits="userSpaceOnUse" id="gradient46" r="819.2" spreadMethod="pad">
      <stop offset="0.0" stop-color="#292929"/>
      <stop offset="1.0" stop-color="#000000"/>
    </radialGradient>
    <radialGradient cx="0" cy="0" gradientTransform="matrix(0.0469, 0.0, 0.0, 0.0469, -351.9, -107.85)" gradientUnits="userSpaceOnUse" id="gradient47" r="819.2" spreadMethod="pad">
      <stop offset="0.0" stop-color="#292929"/>
      <stop offset="1.0" stop-color="#010101"/>
    </radialGradient>
    <radialGradient cx="0" cy="0" gradientTransform="matrix(0.0614, 0.0, 0.0, 0.0614, -351.9, -107.85)" gradientUnits="userSpaceOnUse" id="gradient48" r="819.2" spreadMethod="pad">
      <stop offset="0.0" stop-color="#292929"/>
      <stop offset="1.0" stop-color="#000000"/>
    </radialGradient>
    <radialGradient cx="0" cy="0" gradientTransform="matrix(0.032, 0.0, 0.0, 0.032, -351.75, -149.6)" gradientUnits="userSpaceOnUse" id="gradient49" r="819.2" spreadMethod="pad">
      <stop offset="0.0" stop-color="#000000"/>
      <stop offset="1.0" stop-color="#000000"/>
    </radialGradient>
    <radialGradient cx="0" cy="0" gradientTransform="matrix(0.0265, 0.0, 0.0, 0.0265, -335.0, -163.4)" gradientUnits="userSpaceOnUse" id="gradient50" r="819.2" spreadMethod="pad">
      <stop offset="0.0" stop-color="#000000"/>
      <stop offset="1.0" stop-color="#000000"/>
    </radialGradient>
    <radialGradient cx="0" cy="0" gradientTransform="matrix(0.1398, 0.0, 0.0, 0.1398, -211.55, -23.05)" gradientUnits="userSpaceOnUse" id="gradient51" r="819.2" spreadMethod="pad">
      <stop offset="0.0" stop-color="#666666"/>
      <stop offset="1.0" stop-color="#0e0e0e"/>
    </radialGradient>
    <radialGradient cx="0" cy="0" gradientTransform="matrix(0.0274, 0.0, 0.0, 0.0274, -211.55, -23.05)" gradientUnits="userSpaceOnUse" id="gradient52" r="819.2" spreadMethod="pad">
      <stop offset="0.0" stop-color="#666666"/>
      <stop offset="1.0" stop-color="#5f5f5f"/>
    </radialGradient>
    <radialGradient cx="0" cy="0" gradientTransform="matrix(0.0543, 0.0, 0.0, 0.0543, -209.0, -1.0)" gradientUnits="userSpaceOnUse" id="gradient53" r="819.2" spreadMethod="pad">
      <stop offset="0.0" stop-color="#4b4b4b"/>
      <stop offset="1.0" stop-color="#070707"/>
    </radialGradient>
    <radialGradient cx="0" cy="0" gradientTransform="matrix(0.021, 0.0, 0.0, 0.021, -321.8, -67.2)" gradientUnits="userSpaceOnUse" id="gradient54" r="819.2" spreadMethod="pad">
      <stop offset="0.0" stop-color="#373737"/>
      <stop offset="1.0" stop-color="#0c0c0c"/>
    </radialGradient>
    <radialGradient cx="0" cy="0" gradientTransform="matrix(0.0908, 0.0, 0.0, 0.0908, -321.85, -1.0)" gradientUnits="userSpaceOnUse" id="gradient55" r="819.2" spreadMethod="pad">
      <stop offset="0.0" stop-color="#3a3a3a"/>
      <stop offset="1.0" stop-color="#000000"/>
    </radialGradient>
    <radialGradient cx="0" cy="0" gradientTransform="matrix(0.0308, 0.0, 0.0, 0.0308, -321.85, -1.0)" gradientUnits="userSpaceOnUse" id="gradient56" r="819.2" spreadMethod="pad">
      <stop offset="0.0" stop-color="#3a3a3a"/>
      <stop offset="1.0" stop-color="#111111"/>
    </radialGradient>
  </defs>
</svg>
