<?xml version="1.0" encoding="UTF-8" standalone="no"?>
<svg xmlns:xlink="http://www.w3.org/1999/xlink" height="299.1px" width="399.1px" xmlns="http://www.w3.org/2000/svg">
  <g transform="matrix(1.0, 0.0, 0.0, 1.0, 400.0, 300.0)">
    <path d="M-277.5 -244.9 L-279.25 -244.9 -305.9 -258.25 -314.75 -271.4 -315.65 -270.25 -316.0 -270.4 -323.65 -279.4 -328.5 -288.25 -328.5 -288.9 -331.5 -294.75 -333.0 -300.0 -314.0 -300.0 -310.65 -292.75 -310.5 -291.75 -301.4 -279.15 -294.15 -271.9 -283.9 -262.5 -272.65 -256.15 -266.25 -253.4 -265.5 -253.0 -265.4 -252.75 -271.0 -250.15 -271.25 -250.0 -276.15 -248.15 -277.5 -244.9 M-182.75 -249.5 L-185.75 -249.25 -187.0 -250.0 -187.75 -249.9 -200.25 -242.0 -200.65 -242.0 -202.25 -244.75 -202.65 -244.75 -216.75 -242.65 -224.0 -243.65 -224.25 -243.75 -225.5 -249.4 -221.15 -250.25 -204.15 -256.25 -192.5 -263.4 -179.25 -276.9 -177.0 -280.0 -176.0 -280.75 -178.25 -265.4 -181.25 -258.0 -182.75 -249.5" fill="url(#gradient0)" fill-rule="evenodd" stroke="none"/>
    <path d="M-314.0 -300.0 L-192.65 -300.0 -187.25 -281.5 -186.9 -281.25 -182.65 -300.0 -181.9 -300.0 -171.4 -294.4 -187.0 -281.0 -175.75 -281.5 -176.0 -280.75 -177.0 -280.0 -179.25 -276.9 -192.5 -263.4 -204.15 -256.25 -221.15 -250.25 -225.5 -249.4 -226.0 -250.5 -225.9 -252.65 -228.25 -254.75 -232.65 -256.4 -237.65 -258.4 -238.15 -258.25 -237.15 -257.0 -239.65 -257.5 -243.5 -259.0 -248.25 -258.75 -254.5 -259.15 -258.5 -258.5 -262.9 -258.5 -265.25 -255.4 -265.5 -253.0 -266.25 -253.4 -272.65 -256.15 -283.9 -262.5 -294.15 -271.9 -301.4 -279.15 -310.5 -291.75 -310.65 -292.75 -314.0 -300.0" fill="url(#gradient1)" fill-rule="evenodd" stroke="none"/>
    <path d="M-237.15 -257.0 L-233.75 -252.65 -233.9 -251.0 -235.4 -248.0 -235.15 -247.9 -234.0 -245.25 -246.25 -249.25 -276.15 -248.15 -271.25 -250.0 -271.0 -250.15 -265.4 -252.75 -265.5 -253.0 -265.25 -255.4 -262.9 -258.5 -258.5 -258.5 -254.5 -259.15 -248.25 -258.75 -243.5 -259.0 -239.65 -257.5 -237.15 -257.0" fill="url(#gradient2)" fill-rule="evenodd" stroke="none"/>
    <path d="M-233.75 -252.65 L-237.15 -257.0 -238.15 -258.25 -237.65 -258.4 -232.65 -256.4 -233.75 -252.65" fill="url(#gradient3)" fill-rule="evenodd" stroke="none"/>
    <path d="M-233.9 -251.0 L-233.75 -252.65 -232.65 -256.4 -228.25 -254.75 -225.9 -252.65 -226.0 -250.5 -226.4 -250.4 -227.65 -251.65 -228.15 -251.65 -227.0 -245.4 -227.4 -244.9 -228.15 -244.9 -232.25 -246.75 -232.75 -247.15 -233.9 -251.0" fill="url(#gradient4)" fill-rule="evenodd" stroke="none"/>
    <path d="M-192.65 -300.0 L-182.65 -300.0 -186.9 -281.25 -187.25 -281.5 -192.65 -300.0" fill="url(#gradient5)" fill-rule="evenodd" stroke="none"/>
    <path d="M-181.9 -300.0 L-146.9 -300.0 -152.65 -284.4 -161.9 -270.0 -182.75 -249.5 -181.25 -258.0 -178.25 -265.4 -176.0 -280.75 -175.75 -281.5 -187.0 -281.0 -171.4 -294.4 -181.9 -300.0" fill="url(#gradient6)" fill-rule="evenodd" stroke="none"/>
    <path d="M-323.65 -279.4 L-321.65 -275.4 -324.25 -279.4 -334.65 -299.4 -334.9 -300.0 -333.0 -300.0 -331.5 -294.75 -328.5 -288.9 -328.5 -288.25 -323.65 -279.4" fill="url(#gradient7)" fill-rule="evenodd" stroke="none"/>
    <path d="M-278.25 -243.9 L-278.0 -244.15 -277.5 -244.9 -276.15 -248.15 -246.25 -249.25 -234.0 -245.25 -233.65 -244.75 -234.9 -244.75 -233.25 -243.25 -221.9 -210.65 -222.15 -201.4 Q-234.65 -212.65 -257.25 -208.15 -274.65 -203.5 -281.0 -188.4 L-281.65 -182.75 -282.75 -180.9 -284.75 -172.25 -284.15 -163.5 -281.5 -157.0 Q-282.4 -155.75 -278.65 -147.0 L-273.15 -139.75 -269.15 -136.75 -258.9 -133.25 -249.5 -128.65 -247.5 -128.15 -300.15 -130.4 -305.15 -129.75 -304.5 -130.9 -304.15 -133.0 -304.75 -135.65 Q-302.65 -136.15 -301.0 -140.25 L-298.15 -142.65 -294.65 -149.15 -293.75 -157.15 -288.5 -166.0 -286.5 -174.75 -287.15 -183.15 -283.25 -188.75 -282.65 -190.25 -281.9 -197.25 -283.25 -203.0 -286.65 -207.4 -290.65 -209.0 Q-290.4 -210.75 -293.65 -211.25 L-297.4 -211.4 -300.75 -211.0 -279.9 -241.4 -278.65 -241.65 -278.25 -243.5 -278.4 -243.65 -278.25 -243.9 M-229.15 -129.9 L-229.4 -127.65 -235.5 -127.75 -230.9 -129.0 -229.15 -129.9 M-307.4 -129.65 L-308.65 -129.5 -309.0 -130.15 -307.4 -129.65" fill="url(#gradient8)" fill-rule="evenodd" stroke="none"/>
    <path d="M-234.0 -245.25 L-235.15 -247.9 -232.25 -246.75 -228.15 -244.9 -226.9 -244.15 -227.25 -244.15 -227.65 -244.25 -228.15 -244.25 -228.5 -244.4 -228.9 -244.4 -229.25 -244.5 -234.0 -245.25" fill="url(#gradient9)" fill-rule="evenodd" stroke="none"/>
    <path d="M-235.15 -247.9 L-235.4 -248.0 -233.9 -251.0 -232.75 -247.15 -232.25 -246.75 -235.15 -247.9 M-228.15 -244.9 L-227.4 -244.9 -227.0 -245.4 -228.15 -251.65 -227.65 -251.65 -226.4 -250.4 -226.0 -250.5 -225.5 -249.4 -224.25 -243.75 -225.4 -243.9 -225.65 -243.9 -226.4 -244.0 -226.9 -244.15 -228.15 -244.9" fill="url(#gradient10)" fill-rule="evenodd" stroke="none"/>
    <path d="M-1.9 -272.65 L-2.65 -272.65 -2.15 -272.9 -1.9 -272.65 M-1.25 -272.0 L-1.65 -272.25 -1.25 -272.75 -1.65 -272.9 -1.5 -273.25 -1.15 -273.25 -1.25 -272.9 -0.9 -273.0 -0.9 -272.15 -1.25 -272.0 M-0.9 -273.5 L-2.15 -273.65 -3.0 -273.25 -3.5 -273.5 -4.0 -273.0 -3.5 -273.0 -3.65 -272.65 -4.4 -272.9 -4.25 -272.65 -5.9 -272.5 -5.4 -272.25 -5.9 -271.9 -5.0 -272.15 -5.4 -271.75 -5.15 -271.5 -4.9 -272.0 -3.9 -271.25 -5.4 -270.75 -5.5 -271.4 -6.15 -271.4 -5.65 -271.15 -6.0 -271.0 -5.9 -270.65 -6.5 -270.5 -5.25 -270.4 -4.75 -270.75 -4.4 -270.5 -3.75 -270.75 -2.05 -271.2 -2.25 -271.5 -1.65 -271.65 -1.95 -271.2 -1.9 -271.25 -1.5 -271.0 -2.25 -264.9 -1.9 -264.65 -2.4 -263.25 -5.25 -266.5 -8.9 -269.75 -9.0 -270.15 -8.15 -270.5 -8.75 -271.0 -8.0 -271.9 -8.0 -271.65 -7.15 -272.5 -6.65 -272.5 -6.4 -271.9 -5.9 -272.25 -5.9 -272.5 -5.9 -272.6 -1.0 -274.5 -0.9 -273.5 M-4.5 -269.0 L-4.65 -269.4 -5.15 -269.4 -5.15 -269.0 -4.5 -269.0 M-4.4 -267.5 L-4.65 -267.9 -5.75 -267.75 -4.4 -267.5 M-4.4 -266.65 L-4.25 -266.9 -4.65 -266.9 -4.4 -266.65 M-8.75 -272.15 L-8.9 -271.5 -8.25 -272.25 -8.9 -270.65 -9.15 -271.0 -9.15 -270.4 -9.4 -270.75 -9.5 -271.15 -9.4 -271.4 -9.25 -271.65 -8.75 -272.15 M-5.25 -269.9 L-5.4 -269.65 -4.9 -269.65 -5.25 -269.9 M-7.4 -269.15 L-7.0 -269.5 -7.5 -269.5 -7.4 -269.15 M-6.45 -269.4 L-6.75 -269.25 -5.65 -269.15 -5.4 -269.5 -6.45 -269.4 M-8.4 -269.65 L-8.15 -270.0 -8.65 -270.0 -8.4 -269.65" fill="url(#gradient11)" fill-rule="evenodd" stroke="none"/>
    <path d="M-0.9 -273.0 L-1.25 -272.9 -1.15 -273.25 -1.5 -273.25 -1.65 -272.9 -1.25 -272.75 -1.65 -272.25 -1.25 -272.0 -1.4 -271.4 -1.4 -271.15 -1.5 -271.0 -1.9 -271.25 -1.95 -271.2 -1.65 -271.65 -2.25 -271.5 -2.05 -271.2 -3.75 -270.75 -4.4 -270.5 -4.75 -270.75 -5.25 -270.4 -6.5 -270.5 -5.9 -270.65 -6.0 -271.0 -5.65 -271.15 -6.15 -271.4 -5.5 -271.4 -5.4 -270.75 -3.9 -271.25 -4.9 -272.0 -5.15 -271.5 -5.4 -271.75 -5.0 -272.15 -5.9 -271.9 -5.4 -272.25 -5.9 -272.5 -4.25 -272.65 -4.4 -272.9 -3.65 -272.65 -3.5 -273.0 -4.0 -273.0 -3.5 -273.5 -3.0 -273.25 -2.15 -273.65 -0.9 -273.5 -0.9 -273.0 M-1.9 -272.65 L-2.15 -272.9 -2.65 -272.65 -1.9 -272.65 M-4.4 -266.65 L-4.65 -266.9 -4.25 -266.9 -4.4 -266.65 M-4.4 -267.5 L-5.75 -267.75 -4.65 -267.9 -4.4 -267.5 M-4.5 -269.0 L-5.15 -269.0 -5.15 -269.4 -4.65 -269.4 -4.5 -269.0 M-6.65 -272.5 L-6.25 -272.5 -5.9 -272.65 -5.9 -272.6 -5.9 -272.5 -5.9 -272.25 -6.4 -271.9 -6.65 -272.5 M-7.15 -272.5 L-8.0 -271.65 -8.0 -271.9 -8.75 -271.0 -8.15 -270.5 -9.0 -270.15 -9.15 -270.4 -9.15 -271.0 -8.9 -270.65 -8.25 -272.25 -8.9 -271.5 -8.75 -272.15 -8.5 -272.5 -7.15 -272.5 M-8.4 -269.65 L-8.65 -270.0 -8.15 -270.0 -8.4 -269.65 M-6.45 -269.4 L-5.4 -269.5 -5.65 -269.15 -6.75 -269.25 -6.45 -269.4 M-7.4 -269.15 L-7.5 -269.5 -7.0 -269.5 -7.4 -269.15 M-5.25 -269.9 L-4.9 -269.65 -5.4 -269.65 -5.25 -269.9" fill="url(#gradient12)" fill-rule="evenodd" stroke="none"/>
    <path d="M-1.5 -271.0 L-1.4 -271.15 -1.4 -271.4 -1.25 -272.0 -0.9 -272.15 -0.9 -259.5 -1.65 -259.65 -2.5 -260.0 -2.4 -262.4 -2.25 -262.9 -2.25 -263.15 -2.4 -263.25 -1.9 -264.65 -2.25 -264.9 -1.5 -271.0" fill="url(#gradient13)" fill-rule="evenodd" stroke="none"/>
    <path d="M-2.4 -263.25 L-2.25 -263.15 -2.25 -262.9 -2.4 -262.4 -7.15 -266.9 -8.9 -269.75 -5.25 -266.5 -2.4 -263.25" fill="url(#gradient14)" fill-rule="evenodd" stroke="none"/>
    <path d="M-2.5 -260.0 L-1.65 -259.65 -0.9 -259.5 -0.9 -256.65 -2.15 -255.4 -9.15 -253.25 -12.4 -251.65 -13.0 -250.65 -12.65 -249.75 -13.15 -249.75 Q-14.15 -253.0 -2.5 -260.0" fill="url(#gradient15)" fill-rule="evenodd" stroke="none"/>
    <path d="M-7.5 -248.9 L-8.65 -250.65 -8.65 -251.25 -8.4 -251.25 -8.25 -251.4 -7.5 -251.65 -7.4 -251.65 -7.0 -251.75 -5.75 -252.25 -5.15 -252.4 -5.0 -252.5 -4.65 -252.65 -4.25 -252.75 -3.9 -252.9 -3.5 -253.0 -3.15 -253.15 -2.75 -253.25 -2.4 -253.4 -2.0 -253.5 -1.9 -253.5 -0.9 -253.75 -1.0 -251.0 -7.5 -248.9 M-12.65 -249.75 L-11.0 -247.65 -11.65 -247.65 -13.15 -249.75 -12.65 -249.75" fill="url(#gradient16)" fill-rule="evenodd" stroke="none"/>
    <path d="M-12.65 -249.75 L-13.0 -250.65 -12.4 -251.65 -9.15 -253.25 -2.15 -255.4 -0.9 -256.65 -0.9 -253.75 -1.9 -253.5 -2.0 -253.5 -2.4 -253.4 -2.75 -253.25 -3.15 -253.15 -3.5 -253.0 -3.9 -252.9 -4.25 -252.75 -4.65 -252.65 -5.0 -252.5 -5.15 -252.4 -5.75 -252.25 -7.0 -251.75 -7.4 -251.65 -7.5 -251.65 -8.25 -251.4 -8.4 -251.25 -8.65 -251.25 -12.65 -249.75" fill="url(#gradient17)" fill-rule="evenodd" stroke="none"/>
    <path d="M-8.65 -251.25 L-8.65 -250.65 -7.5 -248.9 -11.0 -247.65 -12.65 -249.75 -8.65 -251.25" fill="url(#gradient18)" fill-rule="evenodd" stroke="none"/>
    <path d="M-226.9 -244.15 L-226.4 -244.0 -225.65 -243.9 -225.4 -243.9 -224.0 -243.65 -194.9 -238.75 -195.0 -238.5 -193.0 -223.4 -191.75 -199.25 -191.9 -195.65 -201.4 -184.15 -201.75 -209.5 -232.0 -243.15 -231.65 -244.0 -230.4 -244.15 -230.5 -244.4 -233.65 -244.75 -234.0 -245.25 -229.25 -244.5 -228.9 -244.4 -228.5 -244.4 -228.15 -244.25 -227.65 -244.25 -227.25 -244.15 -226.9 -244.15" fill="url(#gradient19)" fill-rule="evenodd" stroke="none"/>
    <path d="M-216.75 -242.65 L-191.5 -238.75 -174.0 -226.4 -178.0 -224.0 -195.0 -238.5 -194.9 -238.75 -224.0 -243.65 -225.4 -243.9 -224.25 -243.75 -224.0 -243.65 -216.75 -242.65" fill="url(#gradient20)" fill-rule="evenodd" stroke="none"/>
    <path d="M-195.0 -238.5 L-178.0 -224.0 -193.0 -223.4 -195.0 -238.5" fill="url(#gradient21)" fill-rule="evenodd" stroke="none"/>
    <path d="M-118.25 -149.0 L-132.0 -150.9 -145.75 -157.25 -162.75 -167.4 -183.25 -175.15 -191.4 -195.15 -191.9 -195.65 -191.75 -199.25 -193.0 -223.4 -178.0 -224.0 -147.25 -210.4 -126.75 -202.25 -92.5 -186.5 -107.9 -166.75 -118.25 -149.0" fill="url(#gradient22)" fill-rule="evenodd" stroke="none"/>
    <path d="M-303.15 -233.65 L-278.25 -243.9 -278.4 -243.65 -278.65 -243.5 -278.65 -243.4 -280.75 -242.65 -280.65 -241.9 -308.25 -218.9 -303.25 -232.5 -303.15 -233.65" fill="url(#gradient23)" fill-rule="evenodd" stroke="none"/>
    <path d="M-280.65 -241.9 L-279.9 -241.4 -300.75 -211.0 -305.65 -210.4 -307.4 -209.75 -308.5 -218.5 -308.25 -218.9 -280.65 -241.9 M-278.25 -243.5 L-278.65 -243.5 -278.4 -243.65 -278.25 -243.5" fill="url(#gradient24)" fill-rule="evenodd" stroke="none"/>
    <path d="M-233.25 -243.25 L-234.9 -244.75 -233.65 -244.75 -230.5 -244.4 -230.4 -244.15 -231.65 -244.0 -232.0 -243.15 -233.25 -243.25 M-279.9 -241.4 L-280.65 -241.9 -280.75 -242.65 -278.65 -243.4 -278.65 -243.5 -278.25 -243.5 -278.65 -241.65 -279.9 -241.4" fill="url(#gradient25)" fill-rule="evenodd" stroke="none"/>
    <path d="M-317.65 -226.75 L-317.15 -227.4 -303.15 -233.65 -303.25 -232.5 -308.25 -218.9 -308.5 -218.5 -307.4 -209.75 -315.65 -206.75 -320.0 -204.15 -322.25 -208.0 -317.65 -226.75" fill="url(#gradient26)" fill-rule="evenodd" stroke="none"/>
    <path d="M-195.9 -178.15 L-199.0 -134.15 -204.9 -135.65 -229.4 -127.65 -229.15 -129.9 -224.75 -131.25 -219.0 -135.15 -213.5 -141.4 -213.0 -142.75 -208.15 -147.5 -204.65 -153.65 -203.9 -155.75 -202.65 -163.0 -202.9 -172.5 -205.4 -180.75 -207.75 -185.15 -208.9 -188.15 -215.75 -197.4 Q-216.15 -198.75 -222.15 -201.4 L-221.9 -210.65 -233.25 -243.25 -232.0 -243.15 -201.75 -209.5 -201.4 -184.15 -195.75 -181.0 -195.9 -178.15" fill="url(#gradient27)" fill-rule="evenodd" stroke="none"/>
    <path d="M-222.15 -201.4 Q-216.15 -198.75 -215.75 -197.4 L-208.9 -188.15 -207.75 -185.15 -205.4 -180.75 -202.9 -172.5 -202.65 -163.0 -203.9 -155.75 -204.65 -153.65 -208.15 -147.5 -213.0 -142.75 -213.5 -141.4 -219.0 -135.15 -224.75 -131.25 -229.15 -129.9 -230.9 -129.0 -235.5 -127.75 -242.65 -127.4 -247.5 -128.15 -249.5 -128.65 -258.9 -133.25 -269.15 -136.75 -273.15 -139.75 -278.65 -147.0 Q-282.4 -155.75 -281.5 -157.0 L-284.15 -163.5 -284.75 -172.25 -282.75 -180.9 -281.65 -182.75 -281.0 -188.4 Q-274.65 -203.5 -257.25 -208.15 -234.65 -212.65 -222.15 -201.4" fill="url(#gradient28)" fill-rule="evenodd" stroke="none"/>
    <path d="M-309.5 -24.4 L-307.5 -43.5 -303.9 -86.25 -308.15 -124.25 -308.25 -124.75 -308.25 -125.0 -308.65 -129.5 -307.4 -129.65 -305.15 -129.75 -300.15 -130.4 -247.5 -128.15 -242.65 -127.4 -235.5 -127.75 -229.4 -127.65 -242.9 -82.5 -248.0 -16.0 -266.65 -15.9 -304.65 -20.65 -309.4 -23.5 -309.5 -24.4" fill="url(#gradient29)" fill-rule="evenodd" stroke="none"/>
    <path d="M-309.4 -130.4 Q-332.65 -139.75 -336.4 -160.4 L-336.4 -160.75 -337.15 -164.4 -337.4 -174.15 -335.75 -183.0 -332.75 -190.15 -328.0 -197.15 -322.5 -202.4 -320.0 -204.15 -315.65 -206.75 -307.4 -209.75 -305.65 -210.4 -300.75 -211.0 -297.4 -211.4 -293.65 -211.25 Q-290.4 -210.75 -290.65 -209.0 L-286.65 -207.4 -283.25 -203.0 -281.9 -197.25 -282.65 -190.25 -283.25 -188.75 -287.15 -183.15 -286.5 -174.75 -288.5 -166.0 -293.75 -157.15 -294.65 -149.15 -298.15 -142.65 -301.0 -140.25 Q-302.65 -136.15 -304.75 -135.65 L-304.15 -133.0 -304.5 -130.9 -305.15 -129.75 -307.4 -129.65 -309.0 -130.15 -309.4 -130.4" fill="url(#gradient30)" fill-rule="evenodd" stroke="none"/>
    <path d="M-174.0 -226.4 L-143.5 -213.0 -87.65 -189.4 -92.5 -186.5 -126.75 -202.25 -147.25 -210.4 -178.0 -224.0 -174.0 -226.4" fill="url(#gradient31)" fill-rule="evenodd" stroke="none"/>
    <path d="M-87.65 -189.4 L-70.25 -191.4 -65.65 -187.9 -92.5 -186.5 -87.65 -189.4" fill="url(#gradient32)" fill-rule="evenodd" stroke="none"/>
    <path d="M-70.25 -191.4 L-34.15 -211.5 -2.0 -226.9 -0.9 -227.25 -0.9 -220.5 -21.5 -210.75 -44.0 -198.4 -65.65 -187.9 -70.25 -191.4" fill="url(#gradient33)" fill-rule="evenodd" stroke="none"/>
    <path d="M-0.9 -220.5 L-1.15 -183.4 -30.65 -168.5 -28.25 -180.25 -44.0 -198.4 -21.5 -210.75 -0.9 -220.5" fill="url(#gradient34)" fill-rule="evenodd" stroke="none"/>
    <path d="M-65.65 -187.9 L-44.0 -198.4 -28.25 -180.25 -65.65 -187.9" fill="url(#gradient35)" fill-rule="evenodd" stroke="none"/>
    <path d="M-341.15 -157.0 L-341.15 -156.9 -341.75 -156.4 -342.25 -156.15 -342.4 -155.9 -342.9 -155.65 -343.0 -155.4 -343.4 -155.25 -343.65 -154.9 -344.0 -154.75 -350.9 -149.25 -352.4 -147.9 -352.4 -147.65 -352.5 -147.5 -368.9 -141.25 -385.4 -154.0 -391.25 -164.4 -390.5 -165.15 -374.0 -175.5 -330.75 -209.25 -330.5 -209.5 -324.0 -218.4 -323.65 -218.75 -317.65 -226.75 -322.25 -208.0 -320.0 -204.15 -322.5 -202.4 -328.0 -197.15 -332.75 -190.15 -335.75 -183.0 -337.4 -174.15 -337.15 -164.4 -336.4 -160.75 -341.15 -157.0" fill="url(#gradient36)" fill-rule="evenodd" stroke="none"/>
    <path d="M-323.9 -218.65 L-323.65 -218.75 -324.0 -218.4 -323.9 -218.65" fill="url(#gradient37)" fill-rule="evenodd" stroke="none"/>
    <path d="M-390.5 -165.15 L-350.9 -199.4 -333.15 -212.65 -323.9 -218.65 -324.0 -218.4 -330.5 -209.5 -330.75 -209.25 -374.0 -175.5 -390.5 -165.15" fill="url(#gradient38)" fill-rule="evenodd" stroke="none"/>
    <path d="M-54.5 -154.65 L-73.0 -144.75 -118.25 -149.0 -107.9 -166.75 -92.5 -186.5 -65.65 -187.9 -28.25 -180.25 -47.4 -169.9 -54.5 -154.65" fill="url(#gradient39)" fill-rule="evenodd" stroke="none"/>
    <path d="M-183.25 -175.15 L-195.9 -178.15 -195.75 -181.0 -201.4 -184.15 -191.9 -195.65 -191.4 -195.15 -183.25 -175.15" fill="url(#gradient40)" fill-rule="evenodd" stroke="none"/>
    <path d="M-30.65 -168.5 L-54.5 -154.65 -47.4 -169.9 -28.25 -180.25 -30.65 -168.5" fill="url(#gradient41)" fill-rule="evenodd" stroke="none"/>
    <path d="M-336.4 -160.4 L-341.15 -157.0 -336.4 -160.75 -336.4 -160.4" fill="url(#gradient42)" fill-rule="evenodd" stroke="none"/>
    <path d="M-352.5 -147.5 L-360.5 -134.5 -354.0 -125.0 -353.15 -106.75 -353.5 -107.25 -368.65 -140.4 -368.9 -141.25 -352.5 -147.5" fill="url(#gradient43)" fill-rule="evenodd" stroke="none"/>
    <path d="M-395.5 -118.4 L-400.0 -125.15 -400.0 -151.65 -391.25 -164.4 -385.4 -154.0 -368.9 -141.25 -368.65 -140.4 -366.9 -125.75 -366.25 -124.75 -362.25 -115.4 -382.25 -114.0 -389.4 -109.9 -395.5 -118.4" fill="url(#gradient44)" fill-rule="evenodd" stroke="none"/>
    <path d="M-350.5 -50.25 L-360.25 -64.65 -372.75 -81.75 -395.5 -118.4 -389.4 -109.9 -381.65 -98.75 -380.15 -97.15 -371.5 -82.9 -358.75 -64.4 -350.0 -53.75 -350.5 -50.25" fill="url(#gradient45)" fill-rule="evenodd" stroke="none"/>
    <path d="M-319.4 -54.4 Q-318.15 -38.4 -333.0 -35.5 -348.5 -34.5 -350.5 -50.25 L-350.0 -53.75 -348.65 -56.9 -345.0 -59.0 Q-336.4 -57.65 -335.9 -55.75 L-329.75 -58.4 -327.25 -57.75 Q-329.15 -60.15 -330.0 -63.15 L-330.0 -64.0 -327.75 -64.25 Q-321.75 -61.9 -319.75 -55.25 L-319.4 -54.4" fill="url(#gradient46)" fill-rule="evenodd" stroke="none"/>
    <path d="M-389.4 -109.9 L-382.25 -114.0 -362.25 -115.4 -361.9 -115.0 -351.75 -92.25 -351.4 -90.75 -343.15 -78.9 -337.5 -69.0 -329.75 -58.4 -335.9 -55.75 Q-336.4 -57.65 -345.0 -59.0 L-348.65 -56.9 -350.0 -53.75 -358.75 -64.4 -371.5 -82.9 -380.15 -97.15 -381.65 -98.75 -389.4 -109.9" fill="url(#gradient47)" fill-rule="evenodd" stroke="none"/>
    <path d="M-353.15 -106.75 L-336.15 -85.75 -330.9 -75.65 -322.25 -66.15 -318.4 -54.9 -319.75 -55.25 Q-321.75 -61.9 -327.75 -64.25 L-330.0 -64.0 -330.0 -63.15 Q-329.15 -60.15 -327.25 -57.75 L-329.75 -58.4 -337.5 -69.0 -343.15 -78.9 -351.4 -90.75 -351.75 -92.25 -361.9 -115.0 -353.65 -107.25 -353.15 -106.75" fill="url(#gradient48)" fill-rule="evenodd" stroke="none"/>
    <path d="M-362.25 -115.4 L-366.25 -124.75 -353.5 -107.25 -353.65 -107.25 -361.9 -115.0 -362.25 -115.4" fill="url(#gradient49)" fill-rule="evenodd" stroke="none"/>
    <path d="M-366.25 -124.75 L-366.9 -125.75 -368.65 -140.4 -353.5 -107.25 -353.15 -106.75 -353.65 -107.25 -353.5 -107.25 -366.25 -124.75" fill="url(#gradient50)" fill-rule="evenodd" stroke="none"/>
    <path d="M-308.25 -125.0 L-309.4 -130.4 -309.0 -130.15 -308.65 -129.5 -308.25 -125.0" fill="url(#gradient51)" fill-rule="evenodd" stroke="none"/>
    <path d="M-199.0 -134.15 L-207.4 -80.5 -208.15 -63.15 -211.5 -23.0 -215.15 -21.4 -220.0 -19.75 -228.0 -18.4 -248.0 -16.0 -242.9 -82.5 -229.4 -127.65 -204.9 -135.65 -199.0 -134.15" fill="url(#gradient52)" fill-rule="evenodd" stroke="none"/>
    <path d="M-211.5 -23.0 L-206.9 -0.9 -208.15 -0.9 -215.15 -21.4 -211.5 -23.0" fill="url(#gradient53)" fill-rule="evenodd" stroke="none"/>
    <path d="M-208.15 -0.9 L-244.15 -0.9 -248.0 -16.0 -228.0 -18.4 -220.0 -19.75 -215.15 -21.4 -208.15 -0.9" fill="url(#gradient54)" fill-rule="evenodd" stroke="none"/>
    <path d="M-319.65 -0.9 L-323.15 -0.9 -309.5 -24.4 -309.4 -23.5 -310.5 -21.65 -310.9 -20.15 -319.65 -0.9" fill="url(#gradient55)" fill-rule="evenodd" stroke="none"/>
    <path d="M-244.15 -0.9 L-319.65 -0.9 -310.9 -20.15 -310.5 -21.65 -309.4 -23.5 -304.65 -20.65 -266.65 -15.9 -248.0 -16.0 -244.15 -0.9" fill="url(#gradient56)" fill-rule="evenodd" stroke="none"/>
    <path d="M-318.4 -54.9 L-319.4 -54.4 -319.75 -55.25 -318.4 -54.9" fill="url(#gradient57)" fill-rule="evenodd" stroke="none"/>
    <path d="M-225.5 -246.4 L-227.75 -251.0 -228.0 -251.15 -228.0 -251.65 -228.4 -251.75 -228.5 -252.5 -233.15 -254.4 -233.15 -254.65 -234.9 -255.25 -230.65 -255.65 -225.25 -255.75 -225.25 -255.65 -225.15 -249.5 -225.25 -248.9 -225.15 -247.0 -225.5 -246.4" fill="#a90000" fill-rule="evenodd" stroke="none"/>
    <path d="M-234.9 -255.25 L-233.15 -254.65 -233.15 -254.4 -228.5 -252.5 -228.4 -251.75 -228.0 -251.65 -228.0 -251.15 -227.75 -251.0 -225.5 -246.4 -225.4 -245.5 -225.75 -244.0 -225.65 -243.9 -226.65 -237.15 -226.5 -236.75 -227.75 -227.75 -227.65 -226.65 -228.15 -224.5 -229.4 -222.4 -229.25 -222.0 -235.75 -208.25 -236.0 -207.5 -237.25 -204.9 -237.5 -204.65 -239.25 -200.25 -231.0 -196.4 -230.9 -196.15 -228.15 -194.9 -227.4 -194.65 -217.65 -190.0 -217.4 -189.65 -213.5 -187.9 -213.65 -187.75 -216.75 -187.4 -216.9 -187.25 -221.65 -186.65 -222.15 -186.65 -240.0 -184.25 -240.75 -184.0 -253.0 -182.65 -249.4 -195.4 -247.0 -201.75 -246.75 -202.0 -244.75 -206.4 -244.5 -206.65 -243.65 -208.4 -243.4 -209.15 -243.25 -209.25 -235.75 -224.9 -234.9 -230.9 -235.0 -231.5 -233.15 -242.5 -233.25 -243.25 -232.9 -244.65 -232.9 -245.0 -232.65 -246.75 -232.75 -247.0 -232.75 -247.15 -233.75 -251.0 -233.9 -251.0 -233.9 -252.4 -234.15 -252.75 -234.65 -253.9 -234.9 -255.25 M-225.5 -246.4 L-225.15 -247.0 -225.25 -248.9 -225.15 -249.5 -225.25 -255.65 -225.25 -255.75 -222.4 -253.4 -221.25 -252.0 -220.9 -251.4 -219.15 -247.25 -217.75 -245.25 -218.75 -244.5 -218.75 -244.15 -219.9 -243.15 -224.0 -243.65 -224.25 -243.75 -224.9 -245.9 -225.5 -246.4 M-286.65 -254.15 L-276.0 -251.65 -271.75 -249.9 -275.5 -248.4 -279.0 -249.75 -279.15 -250.0 -282.65 -251.4 -288.0 -252.4 -286.65 -254.15" fill="#9b0000" fill-opacity="0.9098039" fill-rule="evenodd" stroke="none"/>
    <path d="M-253.0 -182.65 L-240.75 -184.0 -240.0 -184.25 -222.15 -186.65 -221.65 -186.65 -216.9 -187.25 -216.75 -187.4 -213.65 -187.75 -213.25 -187.4 -213.5 -184.15 -214.0 -178.15 -214.25 -177.75 -214.25 -177.25 -214.15 -177.15 -214.5 -171.0 -214.75 -170.9 -215.0 -166.75 -215.15 -166.0 -215.4 -160.0 -215.5 -159.65 -215.5 -159.4 -216.75 -152.25 -217.0 -152.15 -217.0 -150.9 -218.0 -145.4 -218.15 -145.25 -218.15 -144.65 -218.4 -143.15 -218.65 -142.9 -218.5 -142.5 -219.0 -139.75 -219.0 -139.65 -219.75 -135.4 -219.9 -135.15 -219.9 -134.75 -220.15 -134.4 -220.75 -130.4 -220.75 -129.75 -220.9 -129.15 -221.15 -128.5 -260.65 -130.75 -294.4 -131.4 -304.15 -132.4 -304.25 -132.4 -307.0 -132.65 -307.25 -132.75 -308.5 -132.9 -312.15 -133.0 -314.0 -132.75 -314.65 -132.75 -314.75 -132.5 -315.4 -132.75 -316.65 -133.75 -317.0 -133.9 -317.0 -134.0 -321.75 -136.9 -323.75 -139.0 -325.4 -140.15 -327.75 -142.75 -332.4 -149.5 -332.4 -149.75 -333.9 -153.25 -334.75 -154.75 -335.75 -158.0 -335.75 -158.25 -335.9 -158.9 -336.0 -159.15 -336.0 -159.5 -336.15 -159.75 -336.15 -160.0 -336.4 -160.4 -336.25 -160.65 -336.4 -160.75 -336.4 -161.25 -336.5 -161.25 -336.5 -161.9 -336.65 -162.15 -336.65 -162.5 -336.75 -162.75 -336.9 -163.4 -336.9 -163.75 -337.0 -163.9 -337.15 -164.5 -337.25 -166.75 -337.4 -167.4 -337.4 -174.75 -337.15 -175.15 -336.0 -181.5 -335.9 -182.65 -337.5 -184.9 -335.65 -182.9 -335.65 -182.75 -330.75 -177.25 -330.65 -176.9 -327.0 -172.9 -319.5 -167.0 -318.5 -166.4 -318.4 -166.15 -302.65 -154.25 -302.5 -153.9 -296.9 -149.75 -296.65 -149.65 -295.15 -148.25 -290.0 -144.65 -259.4 -164.4 -257.9 -167.9 -258.0 -168.15 -257.75 -168.4 -253.15 -182.0 -253.0 -182.65 M-326.5 -151.4 L-327.75 -154.25 -326.9 -150.9 -326.75 -150.65 -326.5 -150.5 -326.25 -150.9 -326.5 -151.0 -326.5 -151.4 M-249.0 -156.0 L-249.15 -155.65 -249.75 -154.9 -249.65 -154.5 -249.25 -153.65 -249.15 -152.5 -247.9 -153.9 -247.9 -154.75 -248.15 -155.15 -249.0 -156.0" fill="#b00000" fill-opacity="0.9098039" fill-rule="evenodd" stroke="none"/>
    <path d="M-292.25 -253.4 L-290.25 -253.9 -286.65 -254.15 -288.0 -252.4 -288.5 -252.5 -288.75 -252.65 -292.25 -253.25 -292.25 -253.4" fill="#ac0000" fill-rule="evenodd" stroke="none"/>
    <path d="M-340.4 -188.4 L-336.5 -191.4 -335.25 -192.65 -326.75 -198.9 -307.4 -223.15 -304.75 -232.9 -304.5 -233.0 -304.5 -233.15 -297.0 -236.15 -299.4 -226.25 -299.65 -225.9 -299.5 -225.5 -300.25 -223.5 -307.9 -214.0 -308.0 -213.5 -312.25 -208.0 -312.4 -207.9 -312.65 -207.9 -312.65 -207.65 -313.0 -207.25 -314.4 -205.25 -314.65 -205.0 -317.9 -200.75 -318.25 -200.4 -319.15 -198.9 -320.15 -195.4 -322.15 -188.65 -322.4 -188.25 -324.75 -180.15 -325.0 -179.75 -324.9 -179.5 -327.0 -172.9 -330.65 -176.9 -330.75 -177.25 -335.65 -182.75 -335.65 -182.9 -337.5 -184.9 -340.4 -188.4 M-294.25 -252.4 L-292.75 -253.5 -292.25 -253.4 -292.25 -253.25 -288.75 -252.65 -288.5 -252.5 -288.0 -252.4 -288.25 -252.25 -290.0 -250.25 -294.25 -252.4" fill="#9e0000" fill-opacity="0.9098039" fill-rule="evenodd" stroke="none"/>
    <path d="M-304.5 -233.15 L-301.4 -244.9 -294.25 -252.4 -290.0 -250.25 -294.75 -245.0 -296.9 -236.4 -296.9 -236.25 -297.0 -236.15 -304.5 -233.15" fill="#ae0000" fill-opacity="0.9098039" fill-rule="evenodd" stroke="none"/>
    <path d="M-342.5 -155.65 L-342.75 -155.65 -346.15 -159.75 -346.0 -160.25 -346.15 -160.65 -345.9 -160.9 -345.15 -164.65 -345.4 -164.9 -345.0 -165.5 -344.25 -169.15 -344.25 -170.15 -341.0 -185.15 -341.15 -185.65 -340.65 -186.5 -340.4 -188.4 -337.5 -184.9 -335.9 -182.65 -336.0 -181.5 -337.15 -175.15 -337.4 -174.75 -337.4 -167.4 -337.25 -166.75 -337.15 -164.5 -337.0 -163.9 -336.9 -163.75 -336.9 -163.4 -336.75 -162.75 -336.65 -162.5 -336.65 -162.15 -336.5 -161.9 -336.5 -161.25 -336.4 -161.25 -336.4 -160.75 -336.25 -160.65 -336.4 -160.4 -341.15 -157.0 -341.15 -156.9 -341.75 -156.4 -342.25 -156.15 -342.4 -155.9 -342.5 -155.65" fill="#c40000" fill-rule="evenodd" stroke="none"/>
    <path d="M-324.4 -133.75 L-324.75 -134.5 -342.5 -155.65 -342.4 -155.9 -342.25 -156.15 -341.75 -156.4 -341.15 -156.9 -341.15 -157.0 -336.4 -160.4 -336.15 -160.0 -336.15 -159.75 -336.0 -159.5 -336.0 -159.15 -335.9 -158.9 -335.75 -158.25 -335.75 -158.0 -334.75 -154.75 -333.9 -153.25 -332.4 -149.75 -332.4 -149.5 -327.75 -142.75 -325.4 -140.15 -323.75 -139.0 -321.75 -136.9 -317.0 -134.0 -317.0 -133.9 -316.65 -133.75 -315.4 -132.75 -315.4 -132.65 -322.75 -132.0 -323.0 -132.5 -324.4 -133.75" fill="#c60000" fill-rule="evenodd" stroke="none"/>
    <path d="M-213.25 -187.4 L-209.0 -183.4 -208.5 -183.0 -208.0 -182.4 -207.25 -181.9 -207.0 -181.25 -205.25 -179.75 -204.9 -179.15 -201.9 -176.4 -201.75 -176.0 -200.0 -174.5 -199.75 -174.0 -196.5 -171.0 -196.4 -170.75 -198.75 -136.15 -199.25 -135.9 -199.4 -135.75 -205.0 -134.0 -205.15 -133.65 -221.15 -128.5 -220.9 -129.15 -220.75 -129.75 -220.75 -130.4 -220.15 -134.4 -219.9 -134.75 -219.9 -135.15 -219.75 -135.4 -219.0 -139.65 -219.0 -139.75 -218.5 -142.5 -218.65 -142.9 -218.4 -143.15 -218.15 -144.65 -218.15 -145.25 -218.0 -145.4 -217.0 -150.9 -217.0 -152.15 -216.75 -152.25 -215.5 -159.4 -215.5 -159.65 -215.4 -160.0 -215.15 -166.0 -215.0 -166.75 -214.75 -170.9 -214.5 -171.0 -214.15 -177.15 -214.25 -177.25 -214.25 -177.75 -214.0 -178.15 -213.5 -184.15 -213.25 -187.4" fill="#d30000" fill-opacity="0.9098039" fill-rule="evenodd" stroke="none"/>
    <path d="M-196.4 -170.75 L-190.65 -165.0 -182.25 -147.25 -182.75 -146.15 -182.75 -145.9 -182.9 -145.5 -182.9 -145.4 -183.65 -144.15 -183.75 -143.75 -183.75 -143.65 -183.9 -143.25 -184.0 -143.15 -184.0 -143.0 -186.5 -137.4 -188.0 -136.75 -192.75 -138.15 -198.75 -136.15 -196.4 -170.75 M-209.9 -13.15 L-209.5 -13.25 -209.4 -12.15 -209.9 -13.15" fill="#e80000" fill-opacity="0.9098039" fill-rule="evenodd" stroke="none"/>
    <path d="M-198.75 -136.15 L-192.75 -138.15 -188.0 -136.75 -196.0 -133.0 -196.4 -132.9 -199.4 -131.65 -199.4 -132.0 -199.25 -132.25 -199.15 -132.9 -199.15 -133.0 -199.0 -134.15 -199.0 -135.5 -199.25 -135.9 -198.75 -136.15" fill="#f30000" fill-opacity="0.9098039" fill-rule="evenodd" stroke="none"/>
    <path d="M-186.15 -136.65 L-186.4 -136.25 -186.9 -136.4 -186.9 -136.5 -188.0 -136.75 -186.5 -137.4 -184.0 -143.0 -185.65 -137.9 -185.9 -137.65 -186.15 -136.65" fill="#ea0000" fill-rule="evenodd" stroke="none"/>
    <path d="M-182.9 -145.4 L-184.75 -138.15 -185.65 -137.9 -184.0 -143.0 -184.0 -143.15 -183.9 -143.25 -183.75 -143.65 -183.75 -143.75 -183.65 -144.15 -182.9 -145.4" fill="#ff0000" fill-opacity="0.9098039" fill-rule="evenodd" stroke="none"/>
    <path d="M-199.25 -135.9 L-199.0 -135.5 -199.0 -134.15 -199.15 -133.0 -199.15 -132.9 -199.25 -132.25 -199.4 -132.0 -199.4 -131.65 -199.5 -131.25 -199.65 -131.0 -207.4 -80.65 -208.25 -61.75 -209.9 -43.5 -209.9 -41.65 -211.5 -24.5 -211.5 -23.0 -211.0 -19.75 -210.9 -19.4 -210.9 -19.15 -210.25 -17.0 -209.5 -13.25 -209.9 -13.15 -210.25 -12.9 -215.5 -10.9 -215.9 -10.9 -216.0 -10.75 -221.65 -9.65 -221.9 -9.65 -223.5 -9.25 -224.0 -9.25 -224.9 -9.0 -245.5 -6.4 -246.0 -6.25 -247.75 -6.15 -246.75 -10.9 -246.75 -12.0 -246.15 -14.15 -246.25 -14.4 -245.75 -16.0 -245.9 -16.15 -243.0 -30.5 -242.75 -34.4 -242.9 -34.75 -241.15 -56.25 -241.25 -56.75 -239.5 -78.25 -239.5 -78.65 -238.5 -82.0 -227.25 -111.5 -227.15 -112.65 -221.15 -128.5 -205.15 -133.65 -205.0 -134.0 -199.4 -135.75 -199.25 -135.9" fill="#dd0000" fill-opacity="0.9098039" fill-rule="evenodd" stroke="none"/>
    <path d="M-320.25 -16.25 L-320.0 -17.15 -320.5 -36.25 -320.0 -44.15 -320.15 -45.0 -319.9 -46.15 -320.0 -46.15 -319.9 -46.4 -319.9 -46.65 -319.5 -46.65 -319.65 -47.0 -319.15 -48.65 -319.25 -49.15 -319.15 -49.5 -319.25 -52.5 -319.25 -54.4 -318.5 -55.0 -318.5 -55.15 -318.9 -56.15 -319.0 -57.25 -316.4 -86.15 -319.9 -112.5 -319.9 -112.65 -321.15 -119.65 -322.75 -132.0 -315.4 -132.65 -315.4 -132.75 -314.75 -132.5 -309.5 -130.5 -308.15 -124.25 -303.9 -87.15 -303.9 -86.4 -305.75 -66.0 -305.75 -64.9 -307.5 -44.75 -307.5 -43.5 -309.65 -24.4 -309.75 -24.25 -316.25 -12.9 -320.15 -15.4 -320.0 -16.0 -320.25 -16.25" fill="#bd0000" fill-rule="evenodd" stroke="none"/>
    <path d="M-327.0 -0.9 L-329.75 -1.15 -320.25 -16.25 -320.0 -16.0 -320.15 -15.4 -327.0 -0.9 M-321.15 -119.65 L-324.4 -133.75 -323.0 -132.5 -322.75 -132.0 -321.15 -119.65" fill="#fd0000" fill-rule="evenodd" stroke="none"/>
    <path d="M-184.75 -138.15 L-186.15 -136.65 -185.9 -137.65 -185.65 -137.9 -184.75 -138.15" fill="#ff0000" fill-rule="evenodd" stroke="none"/>
    <path d="M-186.4 -136.25 L-186.5 -135.9 -186.4 -135.65 -188.65 -127.75 -188.5 -127.5 -188.75 -127.4 -188.65 -127.75 -188.5 -129.0 -188.65 -129.5 -196.5 -98.25 -196.25 -98.15 -190.4 -120.0 -190.25 -119.65 -197.9 -79.75 -197.75 -92.9 -197.5 -93.75 -197.25 -94.4 -197.5 -94.9 -196.4 -132.9 -196.0 -133.0 -188.0 -136.75 -186.9 -136.5 -186.9 -136.4 -186.4 -136.25 M-188.5 -130.0 L-188.65 -129.5 -188.4 -129.75 -188.5 -130.0" fill="#f40000" fill-rule="evenodd" stroke="none"/>
    <path d="M-197.9 -79.75 L-199.0 -57.0 -200.75 -34.9 -206.0 -15.15 -210.25 -17.0 -210.9 -19.15 -210.9 -19.4 -211.0 -19.75 -211.5 -23.0 -211.5 -24.5 -209.9 -41.65 -209.9 -43.5 -208.25 -61.75 -207.4 -80.65 -199.65 -131.0 -199.5 -131.25 -199.4 -131.65 -196.4 -132.9 -197.5 -94.9 -197.5 -93.75 -197.75 -92.9 -197.9 -79.75" fill="#ed0000" fill-rule="evenodd" stroke="none"/>
    <path d="M-188.75 -127.4 L-190.4 -120.0 -196.25 -98.15 -196.5 -98.25 -188.65 -129.5 -188.5 -129.0 -188.65 -127.75 -188.75 -127.4 M-188.5 -130.0 L-188.4 -129.75 -188.65 -129.5 -188.5 -130.0 M-197.5 -93.75 L-197.5 -94.9 -197.25 -94.4 -197.5 -93.75" fill="#f30000" fill-rule="evenodd" stroke="none"/>
    <path d="M-221.15 -128.5 L-227.15 -112.65 -227.25 -111.5 -238.5 -82.0 -239.5 -78.65 -239.5 -78.25 -241.25 -56.75 -241.15 -56.25 -242.9 -34.75 -242.75 -34.4 -243.0 -30.5 -245.9 -16.15 -245.75 -16.0 -246.25 -14.4 -246.15 -14.15 -246.75 -12.0 -246.75 -10.9 -247.75 -6.15 -267.25 -5.9 -275.5 -6.65 -314.75 -11.9 -316.0 -12.65 -316.25 -12.5 -316.25 -12.9 -309.75 -24.25 -309.65 -24.4 -307.5 -43.5 -307.5 -44.75 -305.75 -64.9 -305.75 -66.0 -303.9 -86.4 -303.9 -87.15 -308.15 -124.25 -309.5 -130.5 -314.75 -132.5 -314.65 -132.75 -314.0 -132.75 -312.15 -133.0 -308.5 -132.9 -307.25 -132.75 -307.0 -132.65 -304.25 -132.4 -304.15 -132.4 -294.4 -131.4 -260.65 -130.75 -221.15 -128.5" fill="#a70000" fill-opacity="0.9098039" fill-rule="evenodd" stroke="none"/>
    <path d="M-206.9 -0.9 L-246.4 -0.9 -247.75 -6.15 -246.0 -6.25 -245.5 -6.4 -224.9 -9.0 -224.0 -9.25 -223.5 -9.25 -221.9 -9.65 -221.65 -9.65 -216.0 -10.75 -215.9 -10.9 -215.5 -10.9 -210.25 -12.9 -209.9 -13.15 -209.4 -12.15 -209.4 -11.9 -209.25 -11.5 -209.25 -11.25 -208.75 -9.65 -208.65 -9.4 -208.65 -9.25 -208.25 -8.0 -206.9 -0.9" fill="#d10000" fill-opacity="0.9098039" fill-rule="evenodd" stroke="none"/>
    <path d="M-209.5 -13.25 L-210.25 -17.0 -206.0 -15.15 -209.5 -13.25" fill="#ef0000" fill-rule="evenodd" stroke="none"/>
    <path d="M-323.15 -0.9 L-327.0 -0.9 -320.15 -15.4 -316.25 -12.9 -316.25 -12.5 -316.25 -12.4 -317.4 -10.5 -317.5 -10.25 -317.75 -10.0 -317.9 -9.65 -318.15 -9.25 -318.25 -9.15 -318.4 -8.9 -318.5 -8.65 -318.65 -8.5 -319.4 -7.15 -319.65 -6.9 -319.65 -6.75 -320.9 -4.65 -321.0 -4.4 -321.4 -3.75 -321.5 -3.65 -322.15 -2.65 -322.25 -2.4 -323.15 -0.9 M-319.9 -46.4 L-320.0 -46.5 -319.9 -46.65 -319.65 -47.0 -319.65 -48.25 -319.75 -48.5 -319.65 -49.0 -319.75 -49.4 -319.4 -51.0 -319.65 -51.5 -319.5 -52.4 -319.25 -52.5 -319.15 -49.5 -319.25 -49.15 -319.15 -48.65 -319.65 -47.0 -319.5 -46.65 -319.9 -46.65 -319.9 -46.4 M-319.25 -54.4 L-319.15 -55.0 -319.0 -55.4 -318.9 -56.15 -318.5 -55.15 -318.5 -55.0 -319.25 -54.4" fill="#bb0000" fill-rule="evenodd" stroke="none"/>
    <path d="M-206.0 -15.15 L-202.65 -0.9 -205.4 -0.9 -207.15 -5.15 -207.15 -5.25 -207.65 -6.5 -207.75 -6.9 -208.25 -8.0 -208.25 -8.25 -208.65 -9.25 -208.65 -9.4 -208.75 -9.65 -209.25 -11.25 -209.25 -11.5 -209.4 -11.9 -209.4 -12.15 -209.5 -13.25 -206.0 -15.15" fill="#fa0000" fill-rule="evenodd" stroke="none"/>
    <path d="M-205.4 -0.9 L-205.75 -0.9 -207.15 -5.15 -205.4 -0.9" fill="#e80000" fill-rule="evenodd" stroke="none"/>
    <path d="M-205.75 -0.9 L-206.9 -0.9 -208.25 -8.0 -207.75 -6.9 -207.65 -6.5 -207.15 -5.25 -207.15 -5.15 -205.75 -0.9" fill="#e30000" fill-rule="evenodd" stroke="none"/>
    <path d="M-208.65 -9.25 L-208.25 -8.25 -208.25 -8.0 -208.65 -9.25" fill="#e70000" fill-rule="evenodd" stroke="none"/>
    <path d="M-246.4 -0.9 L-323.15 -0.9 -322.25 -2.4 -322.15 -2.65 -321.5 -3.65 -321.4 -3.75 -321.0 -4.4 -320.9 -4.65 -319.65 -6.75 -319.65 -6.9 -319.4 -7.15 -318.65 -8.5 -318.5 -8.65 -318.4 -8.9 -318.25 -9.15 -318.15 -9.25 -317.9 -9.65 -317.75 -10.0 -317.5 -10.25 -317.4 -10.5 -316.25 -12.4 -316.25 -12.5 -316.0 -12.65 -314.75 -11.9 -275.5 -6.65 -267.25 -5.9 -247.75 -6.15 -246.4 -0.9" fill="#a50000" fill-opacity="0.9098039" fill-rule="evenodd" stroke="none"/>
  </g>
  <defs>
    <radialGradient cx="0" cy="0" gradientTransform="matrix(0.1935, 0.0, 0.0, 0.1935, -176.3, -298.7)" gradientUnits="userSpaceOnUse" id="gradient0" r="819.2" spreadMethod="pad">
      <stop offset="0.0" stop-color="#5b5b5b"/>
      <stop offset="1.0" stop-color="#1d1d1d"/>
    </radialGradient>
    <radialGradient cx="0" cy="0" gradientTransform="matrix(0.0984, 0.0, 0.0, 0.0984, -246.75, -280.1)" gradientUnits="userSpaceOnUse" id="gradient1" r="819.2" spreadMethod="pad">
      <stop offset="0.0" stop-color="#7d7d7d"/>
      <stop offset="1.0" stop-color="#080808"/>
    </radialGradient>
    <radialGradient cx="0" cy="0" gradientTransform="matrix(0.0406, 0.0, 0.0, 0.0406, -265.2, -256.8)" gradientUnits="userSpaceOnUse" id="gradient2" r="819.2" spreadMethod="pad">
      <stop offset="0.0" stop-color="#1a1a1a"/>
      <stop offset="1.0" stop-color="#000000"/>
    </radialGradient>
    <radialGradient cx="0" cy="0" gradientTransform="matrix(0.0213, 0.0, 0.0, 0.0213, -244.25, -266.7)" gradientUnits="userSpaceOnUse" id="gradient3" r="819.2" spreadMethod="pad">
      <stop offset="0.0" stop-color="#797979"/>
      <stop offset="1.0" stop-color="#000000"/>
    </radialGradient>
    <radialGradient cx="0" cy="0" gradientTransform="matrix(0.3025, 0.0, 0.0, 0.3025, -225.65, -254.2)" gradientUnits="userSpaceOnUse" id="gradient4" r="819.2" spreadMethod="pad">
      <stop offset="0.0" stop-color="#101010"/>
      <stop offset="1.0" stop-color="#000000"/>
    </radialGradient>
    <radialGradient cx="0" cy="0" gradientTransform="matrix(0.0241, 0.0, 0.0, 0.0241, -187.0, -281.05)" gradientUnits="userSpaceOnUse" id="gradient5" r="819.2" spreadMethod="pad">
      <stop offset="0.0" stop-color="#1e1e1e"/>
      <stop offset="1.0" stop-color="#1c1c1c"/>
    </radialGradient>
    <radialGradient cx="0" cy="0" gradientTransform="matrix(0.0438, 0.0, 0.0, 0.0438, -162.05, -270.1)" gradientUnits="userSpaceOnUse" id="gradient6" r="819.2" spreadMethod="pad">
      <stop offset="0.0" stop-color="#414141"/>
      <stop offset="1.0" stop-color="#2b2b2b"/>
    </radialGradient>
    <radialGradient cx="0" cy="0" gradientTransform="matrix(0.0382, 0.0, 0.0, 0.0382, -333.1, -300.0)" gradientUnits="userSpaceOnUse" id="gradient7" r="819.2" spreadMethod="pad">
      <stop offset="0.0" stop-color="#323232"/>
      <stop offset="1.0" stop-color="#2d2d2d"/>
    </radialGradient>
    <radialGradient cx="0" cy="0" gradientTransform="matrix(0.1616, 0.0, 0.0, 0.1616, -299.8, -130.4)" gradientUnits="userSpaceOnUse" id="gradient8" r="819.2" spreadMethod="pad">
      <stop offset="0.0" stop-color="#6a6a6a"/>
      <stop offset="1.0" stop-color="#000000"/>
    </radialGradient>
    <radialGradient cx="0" cy="0" gradientTransform="matrix(0.0423, 0.0, 0.0, 0.0423, -235.35, -248.15)" gradientUnits="userSpaceOnUse" id="gradient9" r="819.2" spreadMethod="pad">
      <stop offset="0.0" stop-color="#000000"/>
      <stop offset="1.0" stop-color="#000000"/>
    </radialGradient>
    <radialGradient cx="0" cy="0" gradientTransform="matrix(0.0356, 0.0, 0.0, 0.0356, -225.8, -250.2)" gradientUnits="userSpaceOnUse" id="gradient10" r="819.2" spreadMethod="pad">
      <stop offset="0.0" stop-color="#7b7b7b"/>
      <stop offset="1.0" stop-color="#090909"/>
    </radialGradient>
    <radialGradient cx="0" cy="0" gradientTransform="matrix(0.0158, 0.0, 0.0, 0.0158, -9.2, -270.4)" gradientUnits="userSpaceOnUse" id="gradient11" r="819.2" spreadMethod="pad">
      <stop offset="0.0" stop-color="#040404"/>
      <stop offset="1.0" stop-color="#040404"/>
    </radialGradient>
    <radialGradient cx="0" cy="0" gradientTransform="matrix(0.0076, 0.0, 0.0, 0.0076, -5.0, -269.75)" gradientUnits="userSpaceOnUse" id="gradient12" r="819.2" spreadMethod="pad">
      <stop offset="0.0" stop-color="#171717"/>
      <stop offset="1.0" stop-color="#171717"/>
    </radialGradient>
    <radialGradient cx="0" cy="0" gradientTransform="matrix(0.0104, 0.0, 0.0, 0.0104, -1.95, -268.15)" gradientUnits="userSpaceOnUse" id="gradient13" r="819.2" spreadMethod="pad">
      <stop offset="0.0" stop-color="#020202"/>
      <stop offset="1.0" stop-color="#020202"/>
    </radialGradient>
    <radialGradient cx="0" cy="0" gradientTransform="matrix(0.0151, 0.0, 0.0, 0.0151, -9.2, -270.4)" gradientUnits="userSpaceOnUse" id="gradient14" r="819.2" spreadMethod="pad">
      <stop offset="0.0" stop-color="#181818"/>
      <stop offset="1.0" stop-color="#161616"/>
    </radialGradient>
    <radialGradient cx="0" cy="0" gradientTransform="matrix(0.0197, 0.0, 0.0, 0.0197, -13.1, -249.7)" gradientUnits="userSpaceOnUse" id="gradient15" r="819.2" spreadMethod="pad">
      <stop offset="0.0" stop-color="#040404"/>
      <stop offset="1.0" stop-color="#040404"/>
    </radialGradient>
    <radialGradient cx="0" cy="0" gradientTransform="matrix(0.0156, 0.0, 0.0, 0.0156, -13.1, -249.7)" gradientUnits="userSpaceOnUse" id="gradient16" r="819.2" spreadMethod="pad">
      <stop offset="0.0" stop-color="#040404"/>
      <stop offset="1.0" stop-color="#040404"/>
    </radialGradient>
    <radialGradient cx="0" cy="0" gradientTransform="matrix(0.0158, 0.0, 0.0, 0.0158, -12.7, -251.15)" gradientUnits="userSpaceOnUse" id="gradient17" r="819.2" spreadMethod="pad">
      <stop offset="0.0" stop-color="#030303"/>
      <stop offset="1.0" stop-color="#030303"/>
    </radialGradient>
    <radialGradient cx="0" cy="0" gradientTransform="matrix(0.015, 0.0, 0.0, 0.015, -12.6, -249.85)" gradientUnits="userSpaceOnUse" id="gradient18" r="819.2" spreadMethod="pad">
      <stop offset="0.0" stop-color="#030303"/>
      <stop offset="1.0" stop-color="#030303"/>
    </radialGradient>
    <radialGradient cx="0" cy="0" gradientTransform="matrix(0.0793, 0.0, 0.0, 0.0793, -191.75, -195.95)" gradientUnits="userSpaceOnUse" id="gradient19" r="819.2" spreadMethod="pad">
      <stop offset="0.0" stop-color="#595959"/>
      <stop offset="1.0" stop-color="#000000"/>
    </radialGradient>
    <radialGradient cx="0" cy="0" gradientTransform="matrix(0.0481, 0.0, 0.0, 0.0481, -195.15, -238.95)" gradientUnits="userSpaceOnUse" id="gradient20" r="819.2" spreadMethod="pad">
      <stop offset="0.0" stop-color="#000000"/>
      <stop offset="1.0" stop-color="#000000"/>
    </radialGradient>
    <radialGradient cx="0" cy="0" gradientTransform="matrix(0.019, 0.0, 0.0, 0.019, -193.1, -223.5)" gradientUnits="userSpaceOnUse" id="gradient21" r="819.2" spreadMethod="pad">
      <stop offset="0.0" stop-color="#000000"/>
      <stop offset="1.0" stop-color="#000000"/>
    </radialGradient>
    <radialGradient cx="0" cy="0" gradientTransform="matrix(0.0965, 0.0, 0.0, 0.0965, -171.35, -190.7)" gradientUnits="userSpaceOnUse" id="gradient22" r="819.2" spreadMethod="pad">
      <stop offset="0.0" stop-color="#616161"/>
      <stop offset="1.0" stop-color="#000000"/>
    </radialGradient>
    <radialGradient cx="0" cy="0" gradientTransform="matrix(0.0487, 0.0, 0.0, 0.0487, -277.85, -244.25)" gradientUnits="userSpaceOnUse" id="gradient23" r="819.2" spreadMethod="pad">
      <stop offset="0.0" stop-color="#000000"/>
      <stop offset="1.0" stop-color="#000000"/>
    </radialGradient>
    <radialGradient cx="0" cy="0" gradientTransform="matrix(0.0766, 0.0, 0.0, 0.0766, -304.65, -187.55)" gradientUnits="userSpaceOnUse" id="gradient24" r="819.2" spreadMethod="pad">
      <stop offset="0.0" stop-color="#171717"/>
      <stop offset="1.0" stop-color="#000000"/>
    </radialGradient>
    <radialGradient cx="0" cy="0" gradientTransform="matrix(0.1231, 0.0, 0.0, 0.1231, -287.65, -161.4)" gradientUnits="userSpaceOnUse" id="gradient25" r="819.2" spreadMethod="pad">
      <stop offset="0.0" stop-color="#010101"/>
      <stop offset="1.0" stop-color="#000000"/>
    </radialGradient>
    <radialGradient cx="0" cy="0" gradientTransform="matrix(0.0565, 0.0, 0.0, 0.0565, -304.65, -187.55)" gradientUnits="userSpaceOnUse" id="gradient26" r="819.2" spreadMethod="pad">
      <stop offset="0.0" stop-color="#171717"/>
      <stop offset="1.0" stop-color="#000000"/>
    </radialGradient>
    <radialGradient cx="0" cy="0" gradientTransform="matrix(0.1158, 0.0, 0.0, 0.1158, -197.4, -157.75)" gradientUnits="userSpaceOnUse" id="gradient27" r="819.2" spreadMethod="pad">
      <stop offset="0.0" stop-color="#3f3f3f"/>
      <stop offset="1.0" stop-color="#000000"/>
    </radialGradient>
    <radialGradient cx="0" cy="0" gradientTransform="matrix(0.091, 0.0, 0.0, 0.091, -261.8, -139.8)" gradientUnits="userSpaceOnUse" id="gradient28" r="819.2" spreadMethod="pad">
      <stop offset="0.0" stop-color="#878787"/>
      <stop offset="1.0" stop-color="#000000"/>
    </radialGradient>
    <radialGradient cx="0" cy="0" gradientTransform="matrix(0.1533, 0.0, 0.0, 0.1533, -299.8, -130.4)" gradientUnits="userSpaceOnUse" id="gradient29" r="819.2" spreadMethod="pad">
      <stop offset="0.0" stop-color="#6a6a6a"/>
      <stop offset="1.0" stop-color="#000000"/>
    </radialGradient>
    <radialGradient cx="0" cy="0" gradientTransform="matrix(0.0875, 0.0, 0.0, 0.0875, -313.9, -143.7)" gradientUnits="userSpaceOnUse" id="gradient30" r="819.2" spreadMethod="pad">
      <stop offset="0.0" stop-color="#858585"/>
      <stop offset="1.0" stop-color="#000000"/>
    </radialGradient>
    <radialGradient cx="0" cy="0" gradientTransform="matrix(0.0791, 0.0, 0.0, 0.0791, -148.75, -211.15)" gradientUnits="userSpaceOnUse" id="gradient31" r="819.2" spreadMethod="pad">
      <stop offset="0.0" stop-color="#000000"/>
      <stop offset="1.0" stop-color="#000000"/>
    </radialGradient>
    <radialGradient cx="0" cy="0" gradientTransform="matrix(0.0329, 0.0, 0.0, 0.0329, -92.45, -186.6)" gradientUnits="userSpaceOnUse" id="gradient32" r="819.2" spreadMethod="pad">
      <stop offset="0.0" stop-color="#000000"/>
      <stop offset="1.0" stop-color="#000000"/>
    </radialGradient>
    <radialGradient cx="0" cy="0" gradientTransform="matrix(0.0631, 0.0, 0.0, 0.0631, -43.95, -198.5)" gradientUnits="userSpaceOnUse" id="gradient33" r="819.2" spreadMethod="pad">
      <stop offset="0.0" stop-color="#000000"/>
      <stop offset="1.0" stop-color="#000000"/>
    </radialGradient>
    <radialGradient cx="0" cy="0" gradientTransform="matrix(0.0589, 0.0, 0.0, 0.0589, -43.95, -198.5)" gradientUnits="userSpaceOnUse" id="gradient34" r="819.2" spreadMethod="pad">
      <stop offset="0.0" stop-color="#000000"/>
      <stop offset="1.0" stop-color="#000000"/>
    </radialGradient>
    <radialGradient cx="0" cy="0" gradientTransform="matrix(0.0293, 0.0, 0.0, 0.0293, -43.95, -198.5)" gradientUnits="userSpaceOnUse" id="gradient35" r="819.2" spreadMethod="pad">
      <stop offset="0.0" stop-color="#000000"/>
      <stop offset="1.0" stop-color="#000000"/>
    </radialGradient>
    <radialGradient cx="0" cy="0" gradientTransform="matrix(0.0939, 0.0, 0.0, 0.0939, -352.25, -158.65)" gradientUnits="userSpaceOnUse" id="gradient36" r="819.2" spreadMethod="pad">
      <stop offset="0.0" stop-color="#6a6a6a"/>
      <stop offset="1.0" stop-color="#000000"/>
    </radialGradient>
    <radialGradient cx="0" cy="0" gradientTransform="matrix(0.0328, 0.0, 0.0, 0.0328, -310.6, -227.05)" gradientUnits="userSpaceOnUse" id="gradient37" r="819.2" spreadMethod="pad">
      <stop offset="0.0" stop-color="#0d0d0d"/>
      <stop offset="1.0" stop-color="#000000"/>
    </radialGradient>
    <radialGradient cx="0" cy="0" gradientTransform="matrix(0.0885, 0.0, 0.0, 0.0885, -368.9, -184.05)" gradientUnits="userSpaceOnUse" id="gradient38" r="819.2" spreadMethod="pad">
      <stop offset="0.0" stop-color="#0f0f0f"/>
      <stop offset="1.0" stop-color="#040404"/>
    </radialGradient>
    <radialGradient cx="0" cy="0" gradientTransform="matrix(0.0778, 0.0, 0.0, 0.0778, -54.65, -154.55)" gradientUnits="userSpaceOnUse" id="gradient39" r="819.2" spreadMethod="pad">
      <stop offset="0.0" stop-color="#161616"/>
      <stop offset="1.0" stop-color="#000000"/>
    </radialGradient>
    <radialGradient cx="0" cy="0" gradientTransform="matrix(0.0275, 0.0, 0.0, 0.0275, -191.75, -195.95)" gradientUnits="userSpaceOnUse" id="gradient40" r="819.2" spreadMethod="pad">
      <stop offset="0.0" stop-color="#595959"/>
      <stop offset="1.0" stop-color="#000000"/>
    </radialGradient>
    <radialGradient cx="0" cy="0" gradientTransform="matrix(0.0452, 0.0, 0.0, 0.0452, -54.65, -154.55)" gradientUnits="userSpaceOnUse" id="gradient41" r="819.2" spreadMethod="pad">
      <stop offset="0.0" stop-color="#161616"/>
      <stop offset="1.0" stop-color="#000000"/>
    </radialGradient>
    <radialGradient cx="0" cy="0" gradientTransform="matrix(0.0267, 0.0, 0.0, 0.0267, -335.35, -161.8)" gradientUnits="userSpaceOnUse" id="gradient42" r="819.2" spreadMethod="pad">
      <stop offset="0.0" stop-color="#000000"/>
      <stop offset="1.0" stop-color="#000000"/>
    </radialGradient>
    <radialGradient cx="0" cy="0" gradientTransform="matrix(0.0611, 0.0, 0.0, 0.0611, -353.1, -106.6)" gradientUnits="userSpaceOnUse" id="gradient43" r="819.2" spreadMethod="pad">
      <stop offset="0.0" stop-color="#292929"/>
      <stop offset="1.0" stop-color="#000000"/>
    </radialGradient>
    <radialGradient cx="0" cy="0" gradientTransform="matrix(0.0669, 0.0, 0.0, 0.0669, -389.35, -109.9)" gradientUnits="userSpaceOnUse" id="gradient44" r="819.2" spreadMethod="pad">
      <stop offset="0.0" stop-color="#393939"/>
      <stop offset="1.0" stop-color="#000000"/>
    </radialGradient>
    <radialGradient cx="0" cy="0" gradientTransform="matrix(0.0918, 0.0, 0.0, 0.0918, -357.8, -63.45)" gradientUnits="userSpaceOnUse" id="gradient45" r="819.2" spreadMethod="pad">
      <stop offset="0.0" stop-color="#505050"/>
      <stop offset="1.0" stop-color="#2f2f2f"/>
    </radialGradient>
    <radialGradient cx="0" cy="0" gradientTransform="matrix(0.0385, 0.0, 0.0, 0.0385, -319.1, -52.6)" gradientUnits="userSpaceOnUse" id="gradient46" r="819.2" spreadMethod="pad">
      <stop offset="0.0" stop-color="#858585"/>
      <stop offset="1.0" stop-color="#040404"/>
    </radialGradient>
    <radialGradient cx="0" cy="0" gradientTransform="matrix(0.0686, 0.0, 0.0, 0.0686, -357.8, -63.45)" gradientUnits="userSpaceOnUse" id="gradient47" r="819.2" spreadMethod="pad">
      <stop offset="0.0" stop-color="#505050"/>
      <stop offset="1.0" stop-color="#000000"/>
    </radialGradient>
    <radialGradient cx="0" cy="0" gradientTransform="matrix(0.0618, 0.0, 0.0, 0.0618, -330.75, -75.65)" gradientUnits="userSpaceOnUse" id="gradient48" r="819.2" spreadMethod="pad">
      <stop offset="0.0" stop-color="#3a3a3a"/>
      <stop offset="1.0" stop-color="#0c0c0c"/>
    </radialGradient>
    <radialGradient cx="0" cy="0" gradientTransform="matrix(0.0287, 0.0, 0.0, 0.0287, -353.1, -106.6)" gradientUnits="userSpaceOnUse" id="gradient49" r="819.2" spreadMethod="pad">
      <stop offset="0.0" stop-color="#292929"/>
      <stop offset="1.0" stop-color="#000000"/>
    </radialGradient>
    <radialGradient cx="0" cy="0" gradientTransform="matrix(0.0466, 0.0, 0.0, 0.0466, -353.1, -106.6)" gradientUnits="userSpaceOnUse" id="gradient50" r="819.2" spreadMethod="pad">
      <stop offset="0.0" stop-color="#292929"/>
      <stop offset="1.0" stop-color="#010101"/>
    </radialGradient>
    <radialGradient cx="0" cy="0" gradientTransform="matrix(0.0654, 0.0, 0.0, 0.0654, -301.35, -87.6)" gradientUnits="userSpaceOnUse" id="gradient51" r="819.2" spreadMethod="pad">
      <stop offset="0.0" stop-color="#838383"/>
      <stop offset="1.0" stop-color="#626262"/>
    </radialGradient>
    <radialGradient cx="0" cy="0" gradientTransform="matrix(0.1377, 0.0, 0.0, 0.1377, -211.6, -23.15)" gradientUnits="userSpaceOnUse" id="gradient52" r="819.2" spreadMethod="pad">
      <stop offset="0.0" stop-color="#666666"/>
      <stop offset="1.0" stop-color="#0e0e0e"/>
    </radialGradient>
    <radialGradient cx="0" cy="0" gradientTransform="matrix(0.0276, 0.0, 0.0, 0.0276, -211.6, -23.15)" gradientUnits="userSpaceOnUse" id="gradient53" r="819.2" spreadMethod="pad">
      <stop offset="0.0" stop-color="#666666"/>
      <stop offset="1.0" stop-color="#5e5e5e"/>
    </radialGradient>
    <radialGradient cx="0" cy="0" gradientTransform="matrix(0.0518, 0.0, 0.0, 0.0518, -208.25, -1.0)" gradientUnits="userSpaceOnUse" id="gradient54" r="819.2" spreadMethod="pad">
      <stop offset="0.0" stop-color="#4b4b4b"/>
      <stop offset="1.0" stop-color="#070707"/>
    </radialGradient>
    <radialGradient cx="0" cy="0" gradientTransform="matrix(0.0378, 0.0, 0.0, 0.0378, -319.6, -1.0)" gradientUnits="userSpaceOnUse" id="gradient55" r="819.2" spreadMethod="pad">
      <stop offset="0.0" stop-color="#393939"/>
      <stop offset="1.0" stop-color="#191919"/>
    </radialGradient>
    <radialGradient cx="0" cy="0" gradientTransform="matrix(0.092, 0.0, 0.0, 0.092, -319.6, -1.0)" gradientUnits="userSpaceOnUse" id="gradient56" r="819.2" spreadMethod="pad">
      <stop offset="0.0" stop-color="#393939"/>
      <stop offset="1.0" stop-color="#000000"/>
    </radialGradient>
    <radialGradient cx="0" cy="0" gradientTransform="matrix(0.0209, 0.0, 0.0, 0.0209, -322.4, -66.2)" gradientUnits="userSpaceOnUse" id="gradient57" r="819.2" spreadMethod="pad">
      <stop offset="0.0" stop-color="#373737"/>
      <stop offset="1.0" stop-color="#0c0c0c"/>
    </radialGradient>
  </defs>
</svg>
