<?xml version="1.0" encoding="UTF-8" standalone="no"?>
<svg xmlns:xlink="http://www.w3.org/1999/xlink" height="299.1px" width="399.1px" xmlns="http://www.w3.org/2000/svg">
  <g transform="matrix(1.0, 0.0, 0.0, 1.0, 400.0, 300.0)">
    <path d="M-276.0 -243.9 L-279.25 -243.65 -280.0 -243.9 -305.75 -257.25 -314.5 -270.15 -315.15 -269.0 -315.4 -269.15 -321.9 -276.9 -325.9 -283.9 -329.75 -293.25 -330.25 -295.75 -331.9 -300.0 -313.65 -300.0 -309.25 -290.0 -300.0 -277.25 -295.0 -271.9 -283.9 -261.4 -272.65 -255.0 -268.5 -253.15 -268.25 -253.0 -264.65 -251.5 -264.75 -251.15 -269.65 -248.5 -274.15 -246.75 -276.0 -243.9 M-183.15 -247.65 L-186.65 -247.5 -188.65 -248.4 -198.65 -241.9 -201.4 -240.5 Q-203.25 -243.75 -204.25 -243.15 L-217.75 -241.25 -220.9 -241.65 -221.0 -241.65 -223.9 -242.15 -224.15 -242.15 -225.25 -247.9 -222.75 -248.15 -202.75 -255.25 -192.4 -261.9 -177.65 -277.0 -176.25 -278.9 -175.0 -278.9 -177.65 -263.75 -181.0 -256.25 -183.15 -247.65" fill="url(#gradient0)" fill-rule="evenodd" stroke="none"/>
    <path d="M-313.65 -300.0 L-191.5 -300.0 -185.75 -278.4 -176.25 -278.9 -177.65 -277.0 -192.4 -261.9 -202.75 -255.25 -222.75 -248.15 -225.25 -247.9 -225.5 -248.75 -225.5 -249.65 -225.5 -250.65 -225.25 -251.0 -225.65 -251.15 -227.65 -253.0 -231.9 -254.65 -237.15 -256.65 -236.25 -255.25 -238.9 -255.9 -242.0 -257.25 -242.9 -257.25 -244.9 -257.0 -253.25 -257.5 -257.5 -256.9 -261.9 -256.9 -264.5 -253.9 -264.65 -251.5 -268.25 -253.0 -268.5 -253.15 -272.65 -255.0 -283.9 -261.4 -295.0 -271.9 -300.0 -277.25 -309.25 -290.0 -313.65 -300.0 M-172.15 -290.25 L-185.25 -278.75 -185.5 -279.25 -181.15 -297.4 -170.65 -291.75 -170.4 -291.4 -172.15 -290.25" fill="url(#gradient1)" fill-rule="evenodd" stroke="none"/>
    <path d="M-236.25 -255.25 L-232.9 -251.0 -233.0 -249.25 -234.4 -246.4 -234.15 -246.25 -232.65 -243.65 -244.4 -247.5 -274.15 -246.75 -269.65 -248.5 -264.75 -251.15 -264.65 -251.5 -264.5 -253.9 -261.9 -256.9 -257.5 -256.9 -253.25 -257.5 -244.9 -257.0 -242.9 -257.25 -242.0 -257.25 -238.9 -255.9 -236.25 -255.25" fill="url(#gradient2)" fill-rule="evenodd" stroke="none"/>
    <path d="M-232.9 -251.0 L-236.25 -255.25 -237.15 -256.65 -231.9 -254.65 -232.9 -251.0" fill="url(#gradient3)" fill-rule="evenodd" stroke="none"/>
    <path d="M-233.0 -249.25 L-232.9 -251.0 -231.9 -254.65 -227.65 -253.0 -225.65 -251.15 -225.5 -250.65 -225.5 -249.65 -225.9 -248.75 -226.9 -249.75 -227.5 -250.0 -227.65 -249.75 Q-225.5 -244.0 -227.5 -243.25 L-231.9 -245.4 -233.0 -249.25" fill="url(#gradient4)" fill-rule="evenodd" stroke="none"/>
    <path d="M-191.5 -300.0 L-146.5 -300.0 -153.15 -282.65 -161.5 -269.75 -167.65 -262.5 -183.15 -247.65 -181.0 -256.25 -177.65 -263.75 -175.0 -278.9 -176.25 -278.9 -185.75 -278.4 -191.5 -300.0 M-172.15 -290.25 L-170.4 -291.4 -170.65 -291.75 -181.15 -297.4 -185.5 -279.25 -185.25 -278.75 -172.15 -290.25" fill="url(#gradient5)" fill-rule="evenodd" stroke="none"/>
    <path d="M-321.9 -276.9 Q-319.65 -273.15 -319.9 -272.4 L-324.75 -280.4 -333.5 -298.25 -334.0 -300.0 -331.9 -300.0 -330.25 -295.75 -329.75 -293.25 -325.9 -283.9 -321.9 -276.9" fill="url(#gradient6)" fill-rule="evenodd" stroke="none"/>
    <path d="M-276.9 -242.65 L-276.0 -243.9 -274.15 -246.75 -244.4 -247.5 -232.65 -243.65 -232.4 -243.5 -232.25 -243.15 -233.25 -243.0 -231.75 -241.65 -220.0 -209.0 -220.0 -200.0 Q-232.9 -211.4 -254.75 -207.0 -272.15 -202.65 -278.15 -187.75 L-278.65 -182.25 Q-280.0 -181.75 -281.5 -173.25 L-281.75 -170.0 -281.15 -162.75 -278.5 -156.4 Q-279.5 -155.15 -275.5 -146.25 L-270.0 -139.15 -266.65 -136.5 -255.9 -132.9 -247.0 -128.4 -245.0 -127.9 -295.9 -130.15 -303.0 -129.65 -301.75 -132.65 -302.25 -135.4 Q-299.0 -137.5 -298.75 -139.75 L-295.15 -142.75 -291.65 -149.0 -290.9 -156.65 -285.65 -165.15 -283.65 -173.5 -284.25 -182.4 -280.5 -187.9 -279.9 -189.5 -279.25 -196.15 -280.75 -201.9 -284.5 -206.4 -288.4 -208.0 -288.9 -209.0 -289.75 -209.65 -292.15 -210.4 -299.25 -210.0 -278.4 -240.15 -277.65 -240.15 -277.0 -240.65 -276.5 -242.15 -276.9 -242.15 -276.9 -242.65 M-227.0 -129.75 L-227.4 -127.4 -233.4 -127.5 -229.0 -128.75 -227.0 -129.75 M-305.5 -129.4 L-306.9 -129.25 -307.25 -130.0 -305.5 -129.4" fill="url(#gradient7)" fill-rule="evenodd" stroke="none"/>
    <path d="M-232.65 -243.65 L-234.15 -246.25 -231.9 -245.4 -227.5 -243.25 -226.4 -242.65 -226.75 -242.65 -232.4 -243.5 -232.65 -243.65" fill="url(#gradient8)" fill-rule="evenodd" stroke="none"/>
    <path d="M-225.25 -247.9 L-224.15 -242.15 -224.65 -242.25 -224.9 -242.25 -226.15 -242.5 -226.4 -242.65 -227.5 -243.25 Q-225.5 -244.0 -227.65 -249.75 L-227.5 -250.0 -226.9 -249.75 -225.9 -248.75 -225.5 -248.75 -225.25 -247.9 M-234.15 -246.25 L-234.4 -246.4 -233.0 -249.25 -231.9 -245.4 -234.15 -246.25" fill="url(#gradient9)" fill-rule="evenodd" stroke="none"/>
    <path d="M-2.25 -271.15 L-2.15 -271.4 -0.9 -273.75 -0.9 -259.65 -1.15 -259.5 -1.25 -256.5 -1.4 -256.25 -2.25 -256.25 -2.25 -257.4 -2.0 -257.5 -2.25 -257.5 -2.4 -257.75 -2.25 -269.5 -2.4 -270.0 -2.4 -270.25 -2.25 -270.5 -2.4 -270.9 -2.25 -271.0 -2.0 -271.25 -2.25 -271.15 M-2.25 -269.5 L-2.15 -268.75 -2.15 -269.25 -2.25 -270.0 -2.25 -269.5" fill="url(#gradient10)" fill-rule="evenodd" stroke="none"/>
    <path d="M-3.65 -270.4 L-3.25 -270.0 -4.15 -270.15 -3.65 -270.4 M-4.9 -269.9 L-5.25 -269.65 -4.4 -269.65 -2.9 -270.0 -2.65 -269.9 -3.15 -269.75 -3.25 -269.25 -3.25 -268.9 -3.4 -268.4 -3.65 -267.9 -4.4 -261.15 -4.65 -259.65 -5.15 -260.5 -11.15 -266.15 -11.25 -266.5 -11.4 -266.9 -11.25 -267.25 -11.5 -267.15 -11.5 -267.4 -11.15 -268.0 -11.0 -267.4 -11.0 -268.15 -10.4 -268.4 -11.25 -266.5 -10.25 -266.5 -11.0 -266.65 -10.25 -267.9 -10.25 -267.5 -9.75 -268.25 -8.65 -268.0 -8.75 -268.5 -9.65 -268.4 -9.0 -268.65 -4.9 -269.9 M-0.9 -259.65 L-0.9 -256.5 -1.25 -256.5 -1.15 -259.5 -0.9 -259.65 M-2.9 -269.4 L-2.65 -269.65 -2.5 -269.4 -2.75 -269.15 -2.9 -269.4 M-2.25 -271.15 L-2.0 -271.25 -2.25 -271.0 -2.25 -271.15 M-2.25 -257.5 L-2.0 -257.5 -2.25 -257.4 -2.25 -257.5 M-6.4 -269.25 L-5.9 -269.15 -5.0 -269.5 -6.4 -269.25 M-3.9 -268.65 L-3.5 -268.75 -3.75 -268.9 -6.9 -269.0 -7.25 -268.9 -7.0 -268.75 -3.9 -268.65 M-10.75 -266.25 L-10.4 -265.75 -10.0 -266.5 -10.25 -266.15 -10.75 -266.25 M-6.9 -268.4 L-7.5 -268.65 -7.15 -267.75 -6.9 -268.4 M-6.5 -267.75 L-6.65 -268.15 -7.0 -268.0 -6.5 -267.75 M-7.4 -267.15 L-8.0 -266.9 -7.5 -266.75 -7.75 -266.15 -7.5 -266.15 -7.25 -266.5 -7.4 -267.15 M-6.4 -264.4 L-6.65 -264.75 -7.9 -264.4 -6.4 -264.4 M-6.75 -264.15 L-7.25 -263.5 -5.75 -263.9 -6.75 -264.15 M-6.5 -264.9 L-7.0 -265.15 -7.15 -264.9 -6.5 -264.9 M-7.65 -265.5 L-7.15 -265.5 -7.0 -265.75 -7.5 -266.0 -7.65 -265.5 M-8.65 -265.9 L-8.4 -265.75 -8.25 -266.0 -8.65 -265.9 M-9.25 -265.4 L-9.15 -265.65 -9.5 -265.5 -9.25 -265.4 M-8.15 -265.15 L-8.4 -264.9 -7.65 -264.9 -8.15 -265.15 M-8.15 -268.15 L-7.75 -267.4 -7.5 -268.15 -8.15 -268.15 M-10.0 -267.5 L-9.15 -267.5 -8.9 -267.9 -9.75 -267.9 -10.0 -267.5 M-10.0 -267.0 L-9.25 -267.4 -10.25 -267.4 -10.0 -267.0 M-4.5 -261.15 L-4.4 -261.15 -4.65 -261.4 -4.5 -261.15" fill="url(#gradient11)" fill-rule="evenodd" stroke="none"/>
    <path d="M-0.9 -256.5 L-0.9 -254.25 -2.75 -254.0 -4.0 -252.25 -4.9 -251.75 -11.25 -249.9 -14.5 -248.25 -15.0 -247.5 -14.9 -246.4 -15.25 -246.4 Q-16.25 -249.5 -4.65 -256.4 L-4.5 -256.25 -3.9 -256.0 -2.25 -256.15 -1.4 -256.25 -1.25 -256.5 -0.9 -256.5 M-0.9 -250.75 L-0.9 -250.4 -3.15 -250.4 -4.4 -250.0 -2.5 -250.75 -0.9 -250.75" fill="url(#gradient12)" fill-rule="evenodd" stroke="none"/>
    <path d="M-2.25 -256.25 L-1.4 -256.25 -2.25 -256.15 -2.25 -256.25" fill="url(#gradient13)" fill-rule="evenodd" stroke="none"/>
    <path d="M-2.9 -270.0 L-2.9 -270.65 -2.5 -270.9 -2.4 -270.9 -2.25 -270.5 -2.4 -270.25 -2.4 -270.0 -2.25 -269.5 -2.4 -257.75 -2.25 -257.5 -2.25 -257.4 -2.25 -256.25 -2.25 -256.15 -3.9 -256.0 -4.5 -256.25 -4.65 -256.4 -4.75 -258.4 -4.65 -259.65 -4.4 -261.15 -3.65 -267.9 -3.4 -268.4 -3.25 -268.9 -3.25 -269.25 -3.15 -269.75 -2.65 -269.9 -2.9 -270.0 M-2.9 -269.4 L-2.75 -269.15 -2.5 -269.4 -2.65 -269.65 -2.9 -269.4 M-3.15 -268.65 L-3.0 -268.65 -3.0 -268.75 -3.15 -268.65" fill="url(#gradient14)" fill-rule="evenodd" stroke="none"/>
    <path d="M-2.5 -270.9 L-2.25 -271.15 -2.25 -271.0 -2.4 -270.9 -2.5 -270.9" fill="url(#gradient15)" fill-rule="evenodd" stroke="none"/>
    <path d="M-3.65 -270.4 L-3.25 -270.5 -3.0 -270.65 -2.9 -270.65 -2.9 -270.0 -4.4 -269.65 -5.25 -269.65 -4.9 -269.9 -4.15 -270.15 -3.25 -270.0 -3.65 -270.4 M-11.4 -266.9 L-11.5 -267.15 -11.25 -267.25 -11.4 -266.9 M-11.15 -268.0 L-11.0 -268.15 -10.5 -268.65 -9.0 -268.65 -9.65 -268.4 -8.75 -268.5 -8.65 -268.0 -9.75 -268.25 -10.25 -267.5 -10.25 -267.9 -11.0 -266.65 -10.25 -266.5 -11.25 -266.5 -10.4 -268.4 -11.0 -268.15 -11.0 -267.4 -11.15 -268.0 M-3.15 -268.65 L-3.0 -268.75 -3.0 -268.65 -3.15 -268.65 M-3.9 -268.65 L-7.0 -268.75 -7.25 -268.9 -6.9 -269.0 -3.75 -268.9 -3.5 -268.75 -3.9 -268.65 M-6.4 -269.25 L-5.0 -269.5 -5.9 -269.15 -6.4 -269.25 M-10.75 -266.25 L-10.25 -266.15 -10.0 -266.5 -10.4 -265.75 -10.75 -266.25 M-6.5 -267.75 L-7.0 -268.0 -6.65 -268.15 -6.5 -267.75 M-6.9 -268.4 L-7.15 -267.75 -7.5 -268.65 -6.9 -268.4 M-7.4 -267.15 L-7.25 -266.5 -7.5 -266.15 -7.75 -266.15 -7.5 -266.75 -8.0 -266.9 -7.4 -267.15 M-10.0 -267.0 L-10.25 -267.4 -9.25 -267.4 -10.0 -267.0 M-10.0 -267.5 L-9.75 -267.9 -8.9 -267.9 -9.15 -267.5 -10.0 -267.5 M-8.15 -268.15 L-7.5 -268.15 -7.75 -267.4 -8.15 -268.15 M-8.15 -265.15 L-7.65 -264.9 -8.4 -264.9 -8.15 -265.15 M-9.25 -265.4 L-9.5 -265.5 -9.15 -265.65 -9.25 -265.4 M-8.65 -265.9 L-8.25 -266.0 -8.4 -265.75 -8.65 -265.9 M-7.65 -265.5 L-7.5 -266.0 -7.0 -265.75 -7.15 -265.5 -7.65 -265.5 M-6.5 -264.9 L-7.15 -264.9 -7.0 -265.15 -6.5 -264.9 M-6.75 -264.15 L-5.75 -263.9 -7.25 -263.5 -6.75 -264.15 M-6.4 -264.4 L-7.9 -264.4 -6.65 -264.75 -6.4 -264.4" fill="url(#gradient16)" fill-rule="evenodd" stroke="none"/>
    <path d="M-4.75 -258.4 L-10.0 -263.5 -11.15 -266.15 -5.15 -260.5 -4.65 -259.65 -4.75 -258.4" fill="url(#gradient17)" fill-rule="evenodd" stroke="none"/>
    <path d="M-2.25 -269.5 L-2.25 -270.0 -2.15 -269.25 -2.15 -268.75 -2.25 -269.5" fill="url(#gradient18)" fill-rule="evenodd" stroke="none"/>
    <path d="M-4.5 -261.15 L-4.65 -261.4 -4.4 -261.15 -4.5 -261.15" fill="url(#gradient19)" fill-rule="evenodd" stroke="none"/>
    <path d="M-2.25 -248.25 L-9.65 -245.75 -9.9 -245.75 -11.15 -247.65 -7.25 -249.0 -7.15 -249.15 -6.75 -249.25 -6.4 -249.4 -6.0 -249.5 -5.65 -249.65 -5.25 -249.75 -4.9 -249.9 -4.5 -250.0 -4.4 -250.0 -3.15 -250.4 -2.25 -248.25 M-13.65 -244.5 L-14.0 -244.4 -15.25 -246.4 -14.9 -246.4 -13.65 -244.5" fill="url(#gradient20)" fill-rule="evenodd" stroke="none"/>
    <path d="M-9.9 -245.75 L-13.65 -244.5 -14.9 -246.4 -11.15 -247.65 -9.9 -245.75" fill="url(#gradient21)" fill-rule="evenodd" stroke="none"/>
    <path d="M-0.9 -250.4 L-0.9 -248.4 -2.25 -248.25 -3.15 -250.4 -0.9 -250.4" fill="url(#gradient22)" fill-rule="evenodd" stroke="none"/>
    <path d="M-0.9 -254.25 L-0.9 -250.75 -2.5 -250.75 -4.4 -250.0 -4.5 -250.0 -4.9 -249.9 -5.25 -249.75 -5.65 -249.65 -6.0 -249.5 -6.4 -249.4 -6.75 -249.25 -7.15 -249.15 -7.25 -249.0 -11.15 -247.65 -14.9 -246.4 -15.0 -247.5 -14.5 -248.25 -11.25 -249.9 -4.9 -251.75 -4.0 -252.25 -2.75 -254.0 -0.9 -254.25" fill="url(#gradient23)" fill-rule="evenodd" stroke="none"/>
    <path d="M-225.5 -250.65 L-225.65 -251.15 -225.25 -251.0 -225.5 -250.65 M-225.5 -248.75 L-225.9 -248.75 -225.5 -249.65 -225.5 -248.75" fill="url(#gradient24)" fill-rule="evenodd" stroke="none"/>
    <path d="M-224.15 -242.15 L-223.9 -242.15 -221.0 -241.65 -220.9 -241.65 -194.4 -237.15 -194.0 -236.65 -191.9 -221.75 -190.65 -194.25 -200.0 -183.25 -200.4 -207.9 -230.65 -241.5 -230.15 -242.4 -228.75 -242.65 -232.25 -243.15 -232.4 -243.5 -226.75 -242.65 -226.4 -242.65 -226.15 -242.5 -224.9 -242.25 -224.65 -242.25 -224.15 -242.15" fill="url(#gradient25)" fill-rule="evenodd" stroke="none"/>
    <path d="M-230.65 -241.5 L-231.75 -241.65 -233.25 -243.0 -232.25 -243.15 -228.75 -242.65 -230.15 -242.4 -230.65 -241.5 M-279.25 -240.65 L-279.4 -241.25 -277.25 -242.0 -277.25 -242.15 -276.9 -242.15 -276.5 -242.15 -277.0 -240.65 -277.65 -240.15 -278.4 -240.15 -279.25 -240.65" fill="url(#gradient26)" fill-rule="evenodd" stroke="none"/>
    <path d="M-195.25 -177.15 L-198.15 -133.75 -203.65 -135.25 -227.4 -127.4 -227.0 -129.75 -222.9 -131.0 -217.15 -134.9 -211.9 -140.75 -211.25 -142.25 -206.5 -147.15 -202.9 -154.15 -201.25 -163.15 Q-199.4 -170.15 -207.65 -187.75 L-213.4 -195.65 Q-215.15 -198.0 -220.0 -200.0 L-220.0 -209.0 -231.75 -241.65 -230.65 -241.5 -200.4 -207.9 -200.0 -183.25 Q-200.0 -182.25 -195.0 -180.0 L-195.25 -177.15" fill="url(#gradient27)" fill-rule="evenodd" stroke="none"/>
    <path d="M-220.0 -200.0 Q-215.15 -198.0 -213.4 -195.65 L-207.65 -187.75 Q-199.4 -170.15 -201.25 -163.15 L-202.9 -154.15 -206.5 -147.15 -211.25 -142.25 -211.9 -140.75 -217.15 -134.9 -222.9 -131.0 -227.0 -129.75 -229.0 -128.75 -233.4 -127.5 -241.4 -127.25 -245.0 -127.9 -247.0 -128.4 -255.9 -132.9 -266.65 -136.5 -270.0 -139.15 -275.5 -146.25 Q-279.5 -155.15 -278.5 -156.4 L-281.15 -162.75 -281.75 -170.0 -281.5 -173.25 Q-280.0 -181.75 -278.65 -182.25 L-278.15 -187.75 Q-272.15 -202.65 -254.75 -207.0 -232.9 -211.4 -220.0 -200.0" fill="url(#gradient28)" fill-rule="evenodd" stroke="none"/>
    <path d="M-307.4 -26.65 L-301.9 -86.5 -305.25 -114.75 -305.4 -115.25 -305.4 -115.4 -306.9 -129.25 -305.5 -129.4 -303.0 -129.65 -295.9 -130.15 -245.0 -127.9 -241.4 -127.25 -233.4 -127.5 -227.4 -127.4 -240.75 -83.0 -245.65 -17.15 -264.9 -17.15 -302.5 -21.65 -307.4 -24.25 -307.4 -26.65" fill="url(#gradient29)" fill-rule="evenodd" stroke="none"/>
    <path d="M-308.4 -130.5 Q-330.25 -138.9 -334.65 -161.5 L-335.25 -163.9 -335.0 -165.4 -335.25 -171.15 -333.4 -182.15 -330.5 -189.15 -325.9 -196.15 -320.5 -201.4 -318.65 -202.65 -313.15 -206.15 -306.25 -208.65 -303.75 -209.4 -299.25 -210.0 -292.15 -210.4 -289.75 -209.65 -288.9 -209.0 -288.4 -208.0 -284.5 -206.4 -280.75 -201.9 -279.25 -196.15 -279.9 -189.5 -280.5 -187.9 -284.25 -182.4 -283.65 -173.5 -285.65 -165.15 -290.9 -156.65 -291.65 -149.0 -295.15 -142.75 -298.75 -139.75 Q-299.0 -137.5 -302.25 -135.4 L-301.75 -132.65 -303.0 -129.65 -305.5 -129.4 -307.25 -130.0 -308.4 -130.5" fill="url(#gradient30)" fill-rule="evenodd" stroke="none"/>
    <path d="M-277.25 -242.15 L-276.9 -242.65 -276.9 -242.15 -277.25 -242.15 M-278.4 -240.15 L-299.25 -210.0 -303.75 -209.4 -306.25 -208.65 -307.25 -216.65 -307.15 -218.0 -279.25 -240.65 -278.4 -240.15" fill="url(#gradient31)" fill-rule="evenodd" stroke="none"/>
    <path d="M-302.15 -232.5 L-276.9 -242.65 -277.25 -242.15 -277.25 -242.0 -279.4 -241.25 -279.25 -240.65 -307.15 -218.0 -302.15 -232.5" fill="url(#gradient32)" fill-rule="evenodd" stroke="none"/>
    <path d="M-217.75 -241.25 L-190.75 -236.9 -173.4 -224.65 -177.0 -222.25 -194.0 -236.65 -194.4 -237.15 -220.9 -241.65 -217.75 -241.25" fill="url(#gradient33)" fill-rule="evenodd" stroke="none"/>
    <path d="M-191.9 -221.75 L-194.0 -236.65 -177.0 -222.25 -191.9 -221.75" fill="url(#gradient34)" fill-rule="evenodd" stroke="none"/>
    <path d="M-118.25 -148.25 L-131.75 -150.15 -145.75 -156.65 -162.4 -166.5 -182.65 -174.15 -190.25 -194.0 -190.65 -194.25 -191.9 -221.75 -177.0 -222.25 -145.5 -208.25 -124.75 -200.0 -92.5 -185.0 -107.75 -165.25 -118.25 -148.25" fill="url(#gradient35)" fill-rule="evenodd" stroke="none"/>
    <path d="M-316.75 -225.9 L-316.65 -226.25 -302.15 -232.5 -307.15 -218.0 -307.25 -216.65 -306.25 -208.65 -313.15 -206.15 -318.65 -202.65 -321.25 -207.25 -316.75 -225.9" fill="url(#gradient36)" fill-rule="evenodd" stroke="none"/>
    <path d="M-173.4 -224.65 L-143.15 -211.25 -88.0 -187.9 -92.5 -185.0 -124.75 -200.0 -145.5 -208.25 -177.0 -222.25 -173.4 -224.65" fill="url(#gradient37)" fill-rule="evenodd" stroke="none"/>
    <path d="M-88.0 -187.9 L-70.75 -189.75 -66.25 -186.25 -92.5 -185.0 -88.0 -187.9" fill="url(#gradient38)" fill-rule="evenodd" stroke="none"/>
    <path d="M-70.75 -189.75 L-36.75 -208.65 -6.75 -222.65 -1.65 -225.4 -0.9 -225.65 -0.9 -218.9 -23.15 -208.4 -45.15 -196.4 -66.25 -186.25 -70.75 -189.75" fill="url(#gradient39)" fill-rule="evenodd" stroke="none"/>
    <path d="M-0.9 -218.9 L-0.9 -183.15 -32.5 -167.25 -29.75 -178.65 -45.15 -196.4 -23.15 -208.4 -0.9 -218.9" fill="url(#gradient40)" fill-rule="evenodd" stroke="none"/>
    <path d="M-66.25 -186.25 L-45.15 -196.4 -29.75 -178.65 -66.25 -186.25" fill="url(#gradient41)" fill-rule="evenodd" stroke="none"/>
    <path d="M-334.65 -161.5 L-335.15 -161.25 -352.15 -147.9 -352.4 -147.65 -352.5 -147.25 -368.75 -141.15 -385.15 -153.9 -391.15 -164.25 -390.65 -164.75 -373.0 -175.65 -330.0 -208.5 -329.9 -208.75 -322.9 -218.0 -322.65 -218.4 -316.75 -225.9 -321.25 -207.25 -318.65 -202.65 -320.5 -201.4 -325.9 -196.15 -330.5 -189.15 -333.4 -182.15 -335.25 -171.15 -335.0 -165.4 -335.25 -163.9 -334.65 -161.5" fill="url(#gradient42)" fill-rule="evenodd" stroke="none"/>
    <path d="M-390.65 -164.75 L-374.65 -178.75 -351.15 -198.5 -331.65 -212.75 -322.65 -218.4 -322.9 -218.0 -329.9 -208.75 -330.0 -208.5 -373.0 -175.65 -390.65 -164.75" fill="url(#gradient43)" fill-rule="evenodd" stroke="none"/>
    <path d="M-55.9 -153.65 L-73.9 -144.0 -118.25 -148.25 -107.75 -165.25 -92.5 -185.0 -66.25 -186.25 -29.75 -178.65 -48.5 -168.5 -55.9 -153.65" fill="url(#gradient44)" fill-rule="evenodd" stroke="none"/>
    <path d="M-182.65 -174.15 L-195.25 -177.15 -195.0 -180.0 Q-200.0 -182.25 -200.0 -183.25 L-190.65 -194.25 -190.25 -194.0 -182.65 -174.15" fill="url(#gradient45)" fill-rule="evenodd" stroke="none"/>
    <path d="M-32.5 -167.25 L-55.9 -153.65 -48.5 -168.5 -29.75 -178.65 -32.5 -167.25" fill="url(#gradient46)" fill-rule="evenodd" stroke="none"/>
    <path d="M-352.5 -147.25 L-361.0 -134.4 -354.4 -125.25 -353.15 -106.75 -353.4 -107.0 -368.5 -140.4 -368.75 -141.15 -352.5 -147.25" fill="url(#gradient47)" fill-rule="evenodd" stroke="none"/>
    <path d="M-397.75 -121.5 L-397.75 -121.65 -398.0 -121.9 -398.15 -122.15 -398.4 -122.4 -400.0 -124.75 -400.0 -151.75 -391.15 -164.25 -385.15 -153.9 -368.75 -141.15 -368.5 -140.4 -366.5 -125.65 -365.75 -124.4 -361.65 -115.25 -381.75 -114.0 -389.25 -109.9 -397.75 -121.5" fill="url(#gradient48)" fill-rule="evenodd" stroke="none"/>
    <path d="M-349.65 -50.15 L-359.4 -64.4 -373.0 -82.5 -397.75 -121.5 -389.25 -109.9 -381.15 -98.5 -379.9 -97.25 -371.15 -83.15 -357.4 -63.65 -356.9 -63.5 -349.15 -54.0 -349.65 -50.15" fill="url(#gradient49)" fill-rule="evenodd" stroke="none"/>
    <path d="M-318.75 -54.9 Q-317.75 -38.4 -332.4 -36.0 -348.75 -36.25 -349.65 -50.15 L-349.15 -54.0 -347.9 -57.15 -344.25 -59.25 Q-335.25 -58.25 -334.9 -56.15 L-328.65 -58.75 -326.4 -58.25 -327.75 -60.25 -329.25 -63.75 -329.15 -64.4 -327.15 -64.65 Q-321.25 -62.25 -319.0 -55.5 L-318.75 -54.9" fill="url(#gradient50)" fill-rule="evenodd" stroke="none"/>
    <path d="M-389.25 -109.9 L-381.75 -114.0 -361.65 -115.25 -361.5 -115.0 -350.5 -91.5 -350.5 -90.9 -343.0 -80.4 -342.65 -79.4 -342.15 -79.15 -336.4 -69.25 -328.65 -58.75 -334.9 -56.15 Q-335.25 -58.25 -344.25 -59.25 L-347.9 -57.15 -349.15 -54.0 -356.9 -63.5 -357.4 -63.65 -371.15 -83.15 -379.9 -97.25 -381.15 -98.5 -389.25 -109.9" fill="url(#gradient51)" fill-rule="evenodd" stroke="none"/>
    <path d="M-353.15 -106.75 L-339.75 -90.25 -336.0 -86.15 -330.5 -75.75 -321.9 -66.25 -318.15 -55.4 -319.0 -55.5 Q-321.25 -62.25 -327.15 -64.65 L-329.15 -64.4 -329.25 -63.75 -327.75 -60.25 -326.4 -58.25 -328.65 -58.75 -336.4 -69.25 -342.15 -79.15 -342.65 -79.4 -343.0 -80.4 -350.5 -90.9 -350.5 -91.5 -361.5 -115.0 -353.9 -107.65 -353.4 -107.0 -353.15 -106.75" fill="url(#gradient52)" fill-rule="evenodd" stroke="none"/>
    <path d="M-361.65 -115.25 L-365.75 -124.4 -353.9 -107.65 -361.5 -115.0 -361.65 -115.25" fill="url(#gradient53)" fill-rule="evenodd" stroke="none"/>
    <path d="M-365.75 -124.4 L-366.5 -125.65 -368.5 -140.4 -353.4 -107.0 -353.9 -107.65 -365.75 -124.4" fill="url(#gradient54)" fill-rule="evenodd" stroke="none"/>
    <path d="M-305.4 -115.4 L-308.4 -130.5 -307.25 -130.0 -306.9 -129.25 -305.4 -115.4" fill="url(#gradient55)" fill-rule="evenodd" stroke="none"/>
    <path d="M-198.15 -133.75 L-199.5 -128.15 -207.25 -81.4 -208.15 -62.15 -211.4 -24.15 Q-213.0 -23.3 -214.65 -22.5 L-218.9 -21.0 -226.4 -19.65 -245.65 -17.15 -240.75 -83.0 -227.4 -127.4 -203.65 -135.25 -198.15 -133.75" fill="url(#gradient56)" fill-rule="evenodd" stroke="none"/>
    <path d="M-211.4 -24.15 L-206.4 -1.15 -207.15 -0.9 -214.65 -22.5 Q-213.0 -23.3 -211.4 -24.15" fill="url(#gradient57)" fill-rule="evenodd" stroke="none"/>
    <path d="M-207.15 -0.9 L-241.5 -0.9 -245.65 -17.15 -226.4 -19.65 -218.9 -21.0 -214.65 -22.5 -207.15 -0.9" fill="url(#gradient58)" fill-rule="evenodd" stroke="none"/>
    <path d="M-318.15 -0.9 L-322.4 -0.9 -307.4 -26.65 -307.4 -24.25 -308.0 -23.5 -318.15 -0.9" fill="url(#gradient59)" fill-rule="evenodd" stroke="none"/>
    <path d="M-241.5 -0.9 L-318.15 -0.9 -308.0 -23.5 -307.4 -24.25 -302.5 -21.65 -264.9 -17.15 -245.65 -17.15 -241.5 -0.9" fill="url(#gradient60)" fill-rule="evenodd" stroke="none"/>
    <path d="M-318.15 -55.4 L-318.75 -54.9 -319.0 -55.5 -318.15 -55.4" fill="url(#gradient61)" fill-rule="evenodd" stroke="none"/>
    <path d="M-233.4 -253.5 L-232.15 -253.65 -224.65 -253.9 -223.65 -253.75 -223.5 -252.5 -223.65 -251.25 -223.4 -250.25 -223.4 -249.4 -223.65 -248.15 -223.25 -245.65 -223.75 -242.15 -224.15 -242.15 -224.25 -242.25 -224.65 -244.4 -225.25 -244.9 -227.25 -249.75 -227.5 -249.9 -227.75 -250.9 -230.75 -252.25 -232.25 -252.75 -232.4 -253.15 -233.4 -253.5" fill="#a90000" fill-rule="evenodd" stroke="none"/>
    <path d="M-233.4 -253.5 L-232.4 -253.15 -232.25 -252.75 -230.75 -252.25 -227.75 -250.9 -227.5 -249.9 -227.25 -249.75 -225.25 -244.9 -224.65 -244.4 -224.25 -242.25 -224.15 -242.15 -223.75 -242.0 -224.65 -234.9 -224.5 -234.65 -225.75 -225.25 -225.65 -224.15 -227.25 -220.5 -227.25 -220.15 -233.9 -204.65 -236.15 -199.0 -228.65 -195.5 -228.4 -195.25 -224.9 -193.5 -224.0 -193.25 -215.4 -189.0 -215.25 -188.75 -210.75 -186.65 -218.9 -185.5 -219.4 -185.5 -237.0 -183.25 -237.65 -183.0 -249.65 -181.65 -248.25 -186.25 -248.4 -186.65 -248.15 -186.9 -245.4 -197.25 -243.9 -200.4 -244.0 -200.65 -243.75 -200.9 -241.9 -205.25 -241.65 -205.5 -241.0 -207.25 -240.65 -207.9 -241.0 -207.9 -240.75 -208.0 -240.5 -208.0 -233.65 -223.4 -232.9 -229.0 -233.0 -229.5 -231.25 -239.75 -231.4 -240.9 -231.15 -241.5 -231.0 -242.9 -230.9 -243.25 -230.75 -244.65 -230.9 -244.9 -230.65 -246.0 -232.65 -251.15 -232.75 -251.75 -233.4 -253.5 M-223.75 -242.15 L-223.25 -245.65 -223.65 -248.15 -223.4 -249.4 -223.4 -250.25 -223.65 -251.25 -223.5 -252.5 -223.65 -253.75 -221.5 -251.75 -220.4 -250.25 -220.25 -249.75 -219.9 -249.15 -218.0 -244.4 -217.5 -243.65 -218.75 -242.65 -219.15 -241.9 -219.65 -241.75 -219.9 -241.5 -220.9 -241.65 -221.0 -241.65 -223.15 -242.0 -223.25 -242.0 -223.75 -242.15 M-285.15 -252.75 L-275.15 -250.25 -270.65 -248.25 -274.15 -246.75 -279.5 -249.0 -279.65 -249.25 -281.5 -250.0 -286.65 -251.0 -285.15 -252.75" fill="#9b0000" fill-opacity="0.9098039" fill-rule="evenodd" stroke="none"/>
    <path d="M-249.65 -181.65 L-237.65 -183.0 -237.0 -183.25 -219.4 -185.5 -218.9 -185.5 -210.75 -186.65 -210.65 -185.4 -210.9 -183.5 -211.25 -177.5 -211.5 -177.15 -211.25 -176.9 -211.4 -176.0 -211.9 -168.25 -212.15 -168.0 -212.0 -167.65 -212.5 -160.0 -212.65 -159.75 -214.0 -152.15 -214.25 -151.75 -214.15 -151.25 -215.25 -145.4 -215.4 -145.15 -216.4 -139.75 -216.5 -139.5 -217.0 -136.15 -217.4 -135.4 -217.4 -134.65 -218.15 -130.5 -218.25 -130.25 -218.65 -128.25 -242.75 -129.65 -278.25 -130.9 -278.5 -131.0 -289.5 -131.15 -298.9 -131.9 -299.15 -132.0 -301.9 -132.0 -304.25 -132.5 -304.75 -132.4 -305.4 -132.65 -309.9 -132.75 -311.9 -132.5 -312.5 -132.5 -312.75 -132.4 -313.4 -132.5 -314.4 -133.4 -319.75 -136.65 -321.15 -138.15 -324.65 -141.0 -325.25 -141.65 -326.65 -143.9 -330.4 -149.0 -333.5 -156.65 -333.5 -156.9 -334.25 -160.4 -334.65 -161.5 -335.25 -163.9 -335.0 -165.65 -335.15 -168.5 -335.15 -171.15 -335.25 -171.15 -335.15 -172.25 -335.0 -173.0 -334.9 -174.25 -333.65 -181.5 -337.0 -186.4 -333.25 -182.5 -333.15 -182.25 -327.9 -176.75 -327.75 -176.4 -323.75 -172.25 -316.4 -166.5 -315.4 -166.0 -315.25 -165.65 -299.75 -154.0 -299.65 -153.65 -286.9 -144.15 -256.0 -163.65 -254.5 -167.5 -254.25 -167.75 -249.65 -181.65 M-323.75 -151.0 L-325.0 -153.9 -324.15 -150.5 -324.0 -150.25 -323.75 -150.25 -323.75 -151.0 M-246.15 -154.9 L-246.5 -154.4 -246.65 -154.25 -246.5 -153.9 -245.9 -152.0 -244.9 -153.15 -244.65 -154.15 -245.0 -154.5 -245.9 -155.15 -246.15 -154.9" fill="#b00000" fill-opacity="0.9098039" fill-rule="evenodd" stroke="none"/>
    <path d="M-291.65 -252.15 L-290.25 -252.4 -285.15 -252.75 -286.65 -251.0 -289.0 -251.5 -289.4 -251.75 -291.65 -252.15" fill="#ac0000" fill-rule="evenodd" stroke="none"/>
    <path d="M-338.15 -187.75 L-337.15 -188.75 -324.25 -197.75 -311.4 -214.5 -310.5 -215.4 -306.25 -220.75 -305.65 -222.15 -305.25 -222.25 -304.75 -223.75 -304.9 -224.0 -303.15 -229.65 -302.65 -232.4 -302.15 -232.5 -295.0 -235.4 -298.0 -222.75 -306.65 -211.5 -306.65 -211.15 -309.4 -207.5 -309.65 -207.25 -309.75 -207.0 -310.0 -206.9 -310.0 -206.75 -310.25 -206.5 -310.65 -206.0 -311.65 -204.4 -312.0 -204.15 -314.9 -200.0 -315.25 -199.75 -316.25 -198.15 -317.15 -194.65 -317.4 -194.4 -319.15 -187.9 -319.4 -187.65 -319.25 -187.4 -321.5 -179.65 -321.75 -179.25 -323.75 -172.25 -327.75 -176.4 -327.9 -176.75 -333.15 -182.25 -333.25 -182.5 -337.0 -186.4 -338.15 -187.75 M-293.15 -250.65 L-292.4 -251.4 -292.25 -251.65 -291.65 -252.15 -289.4 -251.75 -289.0 -251.5 -286.65 -251.0 -288.75 -248.5 -292.25 -250.4 -293.15 -250.65" fill="#9e0000" fill-opacity="0.9098039" fill-rule="evenodd" stroke="none"/>
    <path d="M-302.65 -232.4 L-299.65 -243.65 -293.15 -250.65 -292.25 -250.4 -288.75 -248.5 -292.9 -243.9 -295.0 -235.4 -302.15 -232.5 -302.65 -232.4" fill="#ae0000" fill-opacity="0.9098039" fill-rule="evenodd" stroke="none"/>
    <path d="M-341.25 -156.5 L-343.15 -158.5 -343.9 -159.65 -343.5 -161.0 -342.5 -165.9 -342.65 -166.25 -342.5 -166.5 -342.5 -167.0 -339.75 -179.5 -339.9 -179.75 -338.25 -187.0 -338.4 -187.4 -338.15 -187.75 -337.0 -186.4 -333.65 -181.5 -334.9 -174.25 -335.0 -173.0 -335.15 -172.25 -335.25 -171.15 -335.15 -171.15 -335.15 -168.5 -335.0 -165.65 -335.25 -163.9 -334.65 -161.5 -335.15 -161.4 -335.15 -161.25 -341.25 -156.5" fill="#c40000" fill-rule="evenodd" stroke="none"/>
    <path d="M-323.65 -135.0 L-324.15 -135.9 -341.4 -156.25 -341.25 -156.5 -335.15 -161.25 -335.15 -161.4 -334.65 -161.5 -334.25 -160.4 -333.5 -156.9 -333.5 -156.65 -330.4 -149.0 -326.65 -143.9 -325.25 -141.65 -324.65 -141.0 -321.15 -138.15 -319.75 -136.65 -314.4 -133.4 -313.4 -132.5 -313.4 -132.4 -320.9 -131.75 -321.15 -132.4 -323.65 -135.0" fill="#c60000" fill-rule="evenodd" stroke="none"/>
    <path d="M-210.75 -186.65 L-206.25 -182.0 -205.75 -181.65 -205.75 -181.5 -205.4 -180.9 -205.0 -180.9 -204.15 -179.9 -203.9 -179.4 -200.65 -176.15 -200.5 -175.75 -199.0 -174.5 -198.9 -174.0 -195.75 -171.0 -195.65 -170.65 -198.15 -135.25 -203.75 -133.4 -204.0 -133.25 -218.65 -128.25 -218.25 -130.25 -218.15 -130.5 -217.4 -134.65 -217.4 -135.4 -217.0 -136.15 -216.5 -139.5 -216.4 -139.75 -215.4 -145.15 -215.25 -145.4 -214.15 -151.25 -214.25 -151.75 -214.0 -152.15 -212.65 -159.75 -212.5 -160.0 -212.0 -167.65 -212.15 -168.0 -211.9 -168.25 -211.4 -176.0 -211.25 -176.9 -211.5 -177.15 -211.25 -177.5 -210.9 -183.5 -210.65 -185.4 -210.75 -186.65" fill="#d30000" fill-opacity="0.9098039" fill-rule="evenodd" stroke="none"/>
    <path d="M-195.65 -170.65 L-189.4 -164.25 -181.9 -146.65 -182.4 -145.65 -182.5 -145.25 -182.65 -145.0 -182.65 -144.9 -185.9 -137.4 -186.15 -137.15 -187.65 -136.65 -191.25 -137.75 -198.15 -135.25 -195.65 -170.65" fill="#e80000" fill-opacity="0.9098039" fill-rule="evenodd" stroke="none"/>
    <path d="M-198.15 -135.25 L-191.25 -137.75 -187.65 -136.65 -196.9 -132.5 -198.65 -131.9 -198.15 -133.75 -198.25 -134.9 -198.0 -135.0 -198.15 -135.25" fill="#f30000" fill-opacity="0.9098039" fill-rule="evenodd" stroke="none"/>
    <path d="M-182.65 -144.9 L-182.75 -144.5 -182.9 -144.15 -183.0 -143.75 -183.0 -143.5 -183.15 -143.25 -183.15 -143.0 -184.75 -137.9 -185.0 -137.65 -185.4 -136.75 -185.25 -136.5 -185.65 -135.9 -186.15 -136.0 -187.65 -136.65 -186.15 -137.15 -185.9 -137.4 -182.65 -144.9" fill="#ea0000" fill-rule="evenodd" stroke="none"/>
    <path d="M-182.65 -145.0 L-182.5 -145.0 -182.65 -144.9 -182.65 -145.0" fill="#ff0000" fill-opacity="0.9098039" fill-rule="evenodd" stroke="none"/>
    <path d="M-218.65 -128.25 L-204.0 -133.25 -203.75 -133.4 -198.15 -135.25 -198.0 -135.0 -198.25 -134.9 -198.15 -133.75 -198.65 -131.9 -199.0 -130.5 -198.9 -130.25 -200.25 -123.9 -200.15 -123.65 -200.4 -123.4 -200.25 -122.9 -207.25 -81.0 -208.25 -64.4 -208.15 -62.4 -209.75 -44.25 -209.75 -42.5 -211.4 -25.75 -211.4 -24.15 -210.4 -19.0 -210.4 -18.9 -210.0 -18.15 -209.25 -14.4 -211.5 -13.4 -212.25 -13.15 -214.15 -12.25 -219.5 -11.15 -220.0 -11.0 -220.5 -11.0 -222.4 -10.5 -228.25 -9.75 -228.75 -9.65 -243.25 -7.75 -243.5 -7.65 -245.25 -7.5 -244.4 -11.65 -244.4 -12.9 -243.75 -15.15 -243.9 -15.4 -240.75 -30.75 -240.4 -35.0 -240.5 -35.5 -238.75 -56.65 -238.9 -57.0 -237.15 -78.4 -237.25 -78.65 -236.15 -82.4 -225.4 -110.4 -225.25 -111.15 -218.65 -128.25" fill="#dd0000" fill-opacity="0.9098039" fill-rule="evenodd" stroke="none"/>
    <path d="M-198.0 -79.75 L-199.0 -59.0 -200.65 -36.9 -205.9 -16.4 -210.0 -18.15 -210.4 -18.9 -210.4 -19.0 -211.4 -24.15 -211.4 -25.75 -209.75 -42.5 -209.75 -44.25 -208.15 -62.4 -208.25 -64.4 -207.25 -81.0 -200.25 -122.9 -200.4 -123.4 -200.15 -123.65 -200.25 -123.9 -198.9 -130.25 -199.0 -130.5 -198.65 -131.9 -196.9 -132.5 -196.75 -131.65 -197.65 -92.9 -197.65 -91.65 -197.65 -91.5 -197.75 -91.0 -198.0 -90.25 -198.0 -90.15 -198.25 -89.75 -198.0 -89.75 -198.0 -89.65 -198.5 -88.9 -198.25 -88.75 -198.0 -89.0 -198.0 -79.75" fill="#ed0000" fill-rule="evenodd" stroke="none"/>
    <path d="M-185.65 -135.9 L-185.75 -135.65 -185.65 -135.25 -189.9 -120.4 -188.4 -128.4 -188.5 -128.75 -188.25 -129.0 -188.4 -129.25 -188.5 -128.75 -197.65 -92.9 -196.75 -131.65 -196.9 -132.5 -187.65 -136.65 -186.15 -136.0 -185.65 -135.9 M-191.5 -113.15 L-191.4 -112.9 -198.0 -79.75 -198.0 -89.0 -198.0 -89.65 -198.0 -89.75 -198.0 -90.15 -198.0 -90.25 -197.75 -91.0 -197.65 -91.5 -197.65 -91.65 -191.5 -113.15" fill="#f40000" fill-rule="evenodd" stroke="none"/>
    <path d="M-318.0 -18.65 L-317.9 -19.25 -318.4 -40.0 -314.25 -85.75 -317.75 -109.25 -319.5 -123.4 -319.5 -123.5 -319.65 -124.0 -319.65 -124.4 -319.75 -124.75 -320.9 -131.75 -313.4 -132.4 -313.4 -132.5 -312.9 -132.25 -308.4 -130.5 -305.4 -115.25 -305.25 -114.75 -301.9 -86.5 -303.75 -66.5 -303.75 -65.25 -305.5 -45.4 -305.5 -44.4 -307.4 -26.65 -314.65 -14.25 -317.9 -16.4 -317.75 -17.15 -318.0 -18.65" fill="#bd0000" fill-rule="evenodd" stroke="none"/>
    <path d="M-325.4 -0.9 L-329.15 -1.15 -318.0 -18.65 -317.75 -17.15 -317.9 -16.4 -325.4 -0.9 M-317.75 -109.25 L-323.65 -135.0 -321.15 -132.4 -320.9 -131.75 -319.75 -124.75 -319.65 -124.4 -319.65 -124.0 -319.5 -123.5 -319.5 -123.4 -317.75 -109.25" fill="#fd0000" fill-rule="evenodd" stroke="none"/>
    <path d="M-189.9 -120.4 L-191.5 -113.15 -197.65 -91.65 -197.65 -92.9 -188.5 -128.75 -188.4 -129.25 -188.25 -129.0 -188.5 -128.75 -188.4 -128.4 -189.9 -120.4 M-198.0 -89.75 L-198.25 -89.75 -198.0 -90.15 -198.0 -89.75 M-198.0 -89.65 L-198.0 -89.0 -198.25 -88.75 -198.5 -88.9 -198.0 -89.65" fill="#f30000" fill-rule="evenodd" stroke="none"/>
    <path d="M-218.65 -128.25 L-225.25 -111.15 -225.4 -110.4 -236.15 -82.4 -237.25 -78.65 -237.15 -78.4 -238.9 -57.0 -238.75 -56.65 -240.5 -35.5 -240.4 -35.0 -240.75 -30.75 -243.9 -15.4 -243.75 -15.15 -244.4 -12.9 -244.4 -11.65 -245.25 -7.5 -245.5 -7.4 -264.5 -7.15 -299.4 -11.25 -299.65 -11.4 -312.5 -13.15 -314.0 -14.0 -314.65 -14.25 -307.4 -26.65 -305.5 -44.4 -305.5 -45.4 -303.75 -65.25 -303.75 -66.5 -301.9 -86.5 -305.25 -114.75 -305.4 -115.25 -308.4 -130.5 -312.9 -132.25 -313.4 -132.5 -312.75 -132.4 -312.5 -132.5 -311.9 -132.5 -309.9 -132.75 -305.4 -132.65 -304.75 -132.4 -304.25 -132.5 -301.9 -132.0 -299.15 -132.0 -298.9 -131.9 -289.5 -131.15 -278.5 -131.0 -278.25 -130.9 -242.75 -129.65 -218.65 -128.25" fill="#a70000" fill-opacity="0.9098039" fill-rule="evenodd" stroke="none"/>
    <path d="M-322.4 -0.9 L-325.4 -0.9 -317.9 -16.4 -314.65 -14.25 -321.4 -2.65 -321.4 -2.5 -321.65 -2.15 -321.75 -1.9 -321.9 -1.75 -322.15 -1.4 -322.4 -0.9" fill="#bb0000" fill-rule="evenodd" stroke="none"/>
    <path d="M-206.4 -0.9 L-243.5 -0.9 -245.25 -7.5 -243.5 -7.65 -243.25 -7.75 -228.75 -9.65 -228.25 -9.75 -222.4 -10.5 -220.5 -11.0 -220.0 -11.0 -219.5 -11.15 -214.15 -12.25 -212.25 -13.15 -211.5 -13.4 -209.25 -14.4 -208.9 -12.75 -208.75 -12.5 -208.65 -12.25 -208.65 -12.0 -206.4 -0.9" fill="#d10000" fill-opacity="0.9098039" fill-rule="evenodd" stroke="none"/>
    <path d="M-209.25 -14.4 L-210.0 -18.15 -205.9 -16.4 -209.25 -14.4" fill="#ef0000" fill-rule="evenodd" stroke="none"/>
    <path d="M-205.9 -16.4 L-202.25 -0.9 -204.25 -0.9 -207.25 -8.4 -207.25 -8.5 -207.4 -8.75 -207.5 -9.15 -207.65 -9.4 -208.5 -12.0 -208.65 -12.0 -208.65 -12.25 -208.75 -12.5 -208.9 -12.75 -209.25 -14.4 -205.9 -16.4" fill="#fa0000" fill-rule="evenodd" stroke="none"/>
    <path d="M-204.25 -0.9 L-204.75 -0.9 -207.25 -8.4 -204.25 -0.9" fill="#e80000" fill-rule="evenodd" stroke="none"/>
    <path d="M-204.75 -0.9 L-206.4 -0.9 -208.65 -12.0 -208.5 -12.0 -207.65 -9.4 -207.5 -9.15 -207.4 -8.75 -207.25 -8.5 -207.25 -8.4 -204.75 -0.9" fill="#e30000" fill-rule="evenodd" stroke="none"/>
    <path d="M-243.5 -0.9 L-322.4 -0.9 -322.15 -1.4 -321.9 -1.75 -321.75 -1.9 -321.65 -2.15 -321.4 -2.5 -321.4 -2.65 -314.65 -14.25 -314.0 -14.0 -312.5 -13.15 -299.65 -11.4 -299.4 -11.25 -264.5 -7.15 -245.5 -7.4 -245.25 -7.5 -243.5 -0.9" fill="#a50000" fill-opacity="0.9098039" fill-rule="evenodd" stroke="none"/>
  </g>
  <defs>
    <radialGradient cx="0" cy="0" gradientTransform="matrix(0.1902, 0.0, 0.0, 0.1902, -178.2, -296.35)" gradientUnits="userSpaceOnUse" id="gradient0" r="819.2" spreadMethod="pad">
      <stop offset="0.0" stop-color="#5b5b5b"/>
      <stop offset="1.0" stop-color="#1b1b1b"/>
    </radialGradient>
    <radialGradient cx="0" cy="0" gradientTransform="matrix(0.0954, 0.0, 0.0, 0.0954, -244.85, -278.05)" gradientUnits="userSpaceOnUse" id="gradient1" r="819.2" spreadMethod="pad">
      <stop offset="0.0" stop-color="#7d7d7d"/>
      <stop offset="1.0" stop-color="#080808"/>
    </radialGradient>
    <radialGradient cx="0" cy="0" gradientTransform="matrix(0.0415, 0.0, 0.0, 0.0415, -264.45, -255.3)" gradientUnits="userSpaceOnUse" id="gradient2" r="819.2" spreadMethod="pad">
      <stop offset="0.0" stop-color="#1a1a1a"/>
      <stop offset="1.0" stop-color="#000000"/>
    </radialGradient>
    <radialGradient cx="0" cy="0" gradientTransform="matrix(0.021, 0.0, 0.0, 0.021, -243.1, -264.85)" gradientUnits="userSpaceOnUse" id="gradient3" r="819.2" spreadMethod="pad">
      <stop offset="0.0" stop-color="#797979"/>
      <stop offset="1.0" stop-color="#000000"/>
    </radialGradient>
    <radialGradient cx="0" cy="0" gradientTransform="matrix(0.2988, 0.0, 0.0, 0.2988, -225.3, -252.45)" gradientUnits="userSpaceOnUse" id="gradient4" r="819.2" spreadMethod="pad">
      <stop offset="0.0" stop-color="#101010"/>
      <stop offset="1.0" stop-color="#000000"/>
    </radialGradient>
    <radialGradient cx="0" cy="0" gradientTransform="matrix(0.0525, 0.0, 0.0, 0.0525, -163.05, -267.85)" gradientUnits="userSpaceOnUse" id="gradient5" r="819.2" spreadMethod="pad">
      <stop offset="0.0" stop-color="#414141"/>
      <stop offset="1.0" stop-color="#282828"/>
    </radialGradient>
    <radialGradient cx="0" cy="0" gradientTransform="matrix(0.0395, 0.0, 0.0, 0.0395, -331.9, -300.0)" gradientUnits="userSpaceOnUse" id="gradient6" r="819.2" spreadMethod="pad">
      <stop offset="0.0" stop-color="#323232"/>
      <stop offset="1.0" stop-color="#2d2d2d"/>
    </radialGradient>
    <radialGradient cx="0" cy="0" gradientTransform="matrix(0.1594, 0.0, 0.0, 0.1594, -297.25, -130.2)" gradientUnits="userSpaceOnUse" id="gradient7" r="819.2" spreadMethod="pad">
      <stop offset="0.0" stop-color="#6a6a6a"/>
      <stop offset="1.0" stop-color="#000000"/>
    </radialGradient>
    <radialGradient cx="0" cy="0" gradientTransform="matrix(0.0413, 0.0, 0.0, 0.0413, -234.4, -246.5)" gradientUnits="userSpaceOnUse" id="gradient8" r="819.2" spreadMethod="pad">
      <stop offset="0.0" stop-color="#000000"/>
      <stop offset="1.0" stop-color="#000000"/>
    </radialGradient>
    <radialGradient cx="0" cy="0" gradientTransform="matrix(0.0349, 0.0, 0.0, 0.0349, -225.4, -248.55)" gradientUnits="userSpaceOnUse" id="gradient9" r="819.2" spreadMethod="pad">
      <stop offset="0.0" stop-color="#7b7b7b"/>
      <stop offset="1.0" stop-color="#090909"/>
    </radialGradient>
    <radialGradient cx="0" cy="0" gradientTransform="matrix(0.0215, 0.0, 0.0, 0.0215, -2.25, -256.25)" gradientUnits="userSpaceOnUse" id="gradient10" r="819.2" spreadMethod="pad">
      <stop offset="0.0" stop-color="#171717"/>
      <stop offset="1.0" stop-color="#171717"/>
    </radialGradient>
    <radialGradient cx="0" cy="0" gradientTransform="matrix(0.0176, 0.0, 0.0, 0.0176, -2.3, -271.0)" gradientUnits="userSpaceOnUse" id="gradient11" r="819.2" spreadMethod="pad">
      <stop offset="0.0" stop-color="#040404"/>
      <stop offset="1.0" stop-color="#040404"/>
    </radialGradient>
    <radialGradient cx="0" cy="0" gradientTransform="matrix(0.0165, 0.0, 0.0, 0.0165, -2.25, -250.5)" gradientUnits="userSpaceOnUse" id="gradient12" r="819.2" spreadMethod="pad">
      <stop offset="0.0" stop-color="#040404"/>
      <stop offset="1.0" stop-color="#040404"/>
    </radialGradient>
    <radialGradient cx="0" cy="0" gradientTransform="matrix(0.0021, 0.0, 0.0, 0.0021, -1.2, -256.4)" gradientUnits="userSpaceOnUse" id="gradient13" r="819.2" spreadMethod="pad">
      <stop offset="0.0" stop-color="#171717"/>
      <stop offset="1.0" stop-color="#171717"/>
    </radialGradient>
    <radialGradient cx="0" cy="0" gradientTransform="matrix(0.0184, 0.0, 0.0, 0.0184, -2.25, -256.25)" gradientUnits="userSpaceOnUse" id="gradient14" r="819.2" spreadMethod="pad">
      <stop offset="0.0" stop-color="#020202"/>
      <stop offset="1.0" stop-color="#020202"/>
    </radialGradient>
    <radialGradient cx="0" cy="0" gradientTransform="matrix(0.0023, 0.0, 0.0, 0.0023, -2.05, -270.15)" gradientUnits="userSpaceOnUse" id="gradient15" r="819.2" spreadMethod="pad">
      <stop offset="0.0" stop-color="#1c1c1c"/>
      <stop offset="1.0" stop-color="#1b1b1b"/>
    </radialGradient>
    <radialGradient cx="0" cy="0" gradientTransform="matrix(0.0096, 0.0, 0.0, 0.0096, -3.55, -267.0)" gradientUnits="userSpaceOnUse" id="gradient16" r="819.2" spreadMethod="pad">
      <stop offset="0.0" stop-color="#171717"/>
      <stop offset="1.0" stop-color="#171717"/>
    </radialGradient>
    <radialGradient cx="0" cy="0" gradientTransform="matrix(0.0149, 0.0, 0.0, 0.0149, -11.25, -266.6)" gradientUnits="userSpaceOnUse" id="gradient17" r="819.2" spreadMethod="pad">
      <stop offset="0.0" stop-color="#181818"/>
      <stop offset="1.0" stop-color="#171717"/>
    </radialGradient>
    <radialGradient cx="0" cy="0" gradientTransform="matrix(0.0169, 0.0, 0.0, 0.0169, -2.25, -256.25)" gradientUnits="userSpaceOnUse" id="gradient18" r="819.2" spreadMethod="pad">
      <stop offset="0.0" stop-color="#1f1f1f"/>
      <stop offset="1.0" stop-color="#1f1f1f"/>
    </radialGradient>
    <radialGradient cx="0" cy="0" gradientTransform="matrix(0.0026, 0.0, 0.0, 0.0026, -4.3, -261.15)" gradientUnits="userSpaceOnUse" id="gradient19" r="819.2" spreadMethod="pad">
      <stop offset="0.0" stop-color="#5f5f5f"/>
      <stop offset="1.0" stop-color="#5e5e5e"/>
    </radialGradient>
    <radialGradient cx="0" cy="0" gradientTransform="matrix(0.0151, 0.0, 0.0, 0.0151, -14.0, -244.5)" gradientUnits="userSpaceOnUse" id="gradient20" r="819.2" spreadMethod="pad">
      <stop offset="0.0" stop-color="#040404"/>
      <stop offset="1.0" stop-color="#040404"/>
    </radialGradient>
    <radialGradient cx="0" cy="0" gradientTransform="matrix(0.0154, 0.0, 0.0, 0.0154, -13.5, -244.55)" gradientUnits="userSpaceOnUse" id="gradient21" r="819.2" spreadMethod="pad">
      <stop offset="0.0" stop-color="#030303"/>
      <stop offset="1.0" stop-color="#030303"/>
    </radialGradient>
    <radialGradient cx="0" cy="0" gradientTransform="matrix(0.0031, 0.0, 0.0, 0.0031, -2.3, -248.3)" gradientUnits="userSpaceOnUse" id="gradient22" r="819.2" spreadMethod="pad">
      <stop offset="0.0" stop-color="#040404"/>
      <stop offset="1.0" stop-color="#040404"/>
    </radialGradient>
    <radialGradient cx="0" cy="0" gradientTransform="matrix(0.0157, 0.0, 0.0, 0.0157, -2.5, -250.8)" gradientUnits="userSpaceOnUse" id="gradient23" r="819.2" spreadMethod="pad">
      <stop offset="0.0" stop-color="#030303"/>
      <stop offset="1.0" stop-color="#030303"/>
    </radialGradient>
    <radialGradient cx="0" cy="0" gradientTransform="matrix(0.3065, 0.0, 0.0, 0.3065, -225.15, -258.7)" gradientUnits="userSpaceOnUse" id="gradient24" r="819.2" spreadMethod="pad">
      <stop offset="0.0" stop-color="#1a1a1a"/>
      <stop offset="1.0" stop-color="#0b0b0b"/>
    </radialGradient>
    <radialGradient cx="0" cy="0" gradientTransform="matrix(0.0787, 0.0, 0.0, 0.0787, -190.55, -194.7)" gradientUnits="userSpaceOnUse" id="gradient25" r="819.2" spreadMethod="pad">
      <stop offset="0.0" stop-color="#595959"/>
      <stop offset="1.0" stop-color="#000000"/>
    </radialGradient>
    <radialGradient cx="0" cy="0" gradientTransform="matrix(0.1218, 0.0, 0.0, 0.1218, -286.15, -160.9)" gradientUnits="userSpaceOnUse" id="gradient26" r="819.2" spreadMethod="pad">
      <stop offset="0.0" stop-color="#010101"/>
      <stop offset="1.0" stop-color="#000000"/>
    </radialGradient>
    <radialGradient cx="0" cy="0" gradientTransform="matrix(0.1143, 0.0, 0.0, 0.1143, -196.65, -157.05)" gradientUnits="userSpaceOnUse" id="gradient27" r="819.2" spreadMethod="pad">
      <stop offset="0.0" stop-color="#3f3f3f"/>
      <stop offset="1.0" stop-color="#000000"/>
    </radialGradient>
    <radialGradient cx="0" cy="0" gradientTransform="matrix(0.0894, 0.0, 0.0, 0.0894, -258.85, -139.45)" gradientUnits="userSpaceOnUse" id="gradient28" r="819.2" spreadMethod="pad">
      <stop offset="0.0" stop-color="#878787"/>
      <stop offset="1.0" stop-color="#000000"/>
    </radialGradient>
    <radialGradient cx="0" cy="0" gradientTransform="matrix(0.1516, 0.0, 0.0, 0.1516, -297.25, -130.2)" gradientUnits="userSpaceOnUse" id="gradient29" r="819.2" spreadMethod="pad">
      <stop offset="0.0" stop-color="#6a6a6a"/>
      <stop offset="1.0" stop-color="#000000"/>
    </radialGradient>
    <radialGradient cx="0" cy="0" gradientTransform="matrix(0.0864, 0.0, 0.0, 0.0864, -311.15, -143.4)" gradientUnits="userSpaceOnUse" id="gradient30" r="819.2" spreadMethod="pad">
      <stop offset="0.0" stop-color="#858585"/>
      <stop offset="1.0" stop-color="#000000"/>
    </radialGradient>
    <radialGradient cx="0" cy="0" gradientTransform="matrix(0.0761, 0.0, 0.0, 0.0761, -303.85, -186.9)" gradientUnits="userSpaceOnUse" id="gradient31" r="819.2" spreadMethod="pad">
      <stop offset="0.0" stop-color="#171717"/>
      <stop offset="1.0" stop-color="#000000"/>
    </radialGradient>
    <radialGradient cx="0" cy="0" gradientTransform="matrix(0.0486, 0.0, 0.0, 0.0486, -276.45, -242.9)" gradientUnits="userSpaceOnUse" id="gradient32" r="819.2" spreadMethod="pad">
      <stop offset="0.0" stop-color="#000000"/>
      <stop offset="1.0" stop-color="#000000"/>
    </radialGradient>
    <radialGradient cx="0" cy="0" gradientTransform="matrix(0.0475, 0.0, 0.0, 0.0475, -194.2, -237.1)" gradientUnits="userSpaceOnUse" id="gradient33" r="819.2" spreadMethod="pad">
      <stop offset="0.0" stop-color="#000000"/>
      <stop offset="1.0" stop-color="#000000"/>
    </radialGradient>
    <radialGradient cx="0" cy="0" gradientTransform="matrix(0.0188, 0.0, 0.0, 0.0188, -191.9, -221.8)" gradientUnits="userSpaceOnUse" id="gradient34" r="819.2" spreadMethod="pad">
      <stop offset="0.0" stop-color="#000000"/>
      <stop offset="1.0" stop-color="#000000"/>
    </radialGradient>
    <radialGradient cx="0" cy="0" gradientTransform="matrix(0.0951, 0.0, 0.0, 0.0951, -170.2, -189.4)" gradientUnits="userSpaceOnUse" id="gradient35" r="819.2" spreadMethod="pad">
      <stop offset="0.0" stop-color="#616161"/>
      <stop offset="1.0" stop-color="#000000"/>
    </radialGradient>
    <radialGradient cx="0" cy="0" gradientTransform="matrix(0.056, 0.0, 0.0, 0.056, -303.85, -186.9)" gradientUnits="userSpaceOnUse" id="gradient36" r="819.2" spreadMethod="pad">
      <stop offset="0.0" stop-color="#171717"/>
      <stop offset="1.0" stop-color="#000000"/>
    </radialGradient>
    <radialGradient cx="0" cy="0" gradientTransform="matrix(0.0777, 0.0, 0.0, 0.0777, -148.0, -209.45)" gradientUnits="userSpaceOnUse" id="gradient37" r="819.2" spreadMethod="pad">
      <stop offset="0.0" stop-color="#000000"/>
      <stop offset="1.0" stop-color="#000000"/>
    </radialGradient>
    <radialGradient cx="0" cy="0" gradientTransform="matrix(0.0321, 0.0, 0.0, 0.0321, -92.4, -185.05)" gradientUnits="userSpaceOnUse" id="gradient38" r="819.2" spreadMethod="pad">
      <stop offset="0.0" stop-color="#000000"/>
      <stop offset="1.0" stop-color="#000000"/>
    </radialGradient>
    <radialGradient cx="0" cy="0" gradientTransform="matrix(0.0645, 0.0, 0.0, 0.0645, -45.05, -196.5)" gradientUnits="userSpaceOnUse" id="gradient39" r="819.2" spreadMethod="pad">
      <stop offset="0.0" stop-color="#000000"/>
      <stop offset="1.0" stop-color="#000000"/>
    </radialGradient>
    <radialGradient cx="0" cy="0" gradientTransform="matrix(0.0603, 0.0, 0.0, 0.0603, -45.05, -196.5)" gradientUnits="userSpaceOnUse" id="gradient40" r="819.2" spreadMethod="pad">
      <stop offset="0.0" stop-color="#000000"/>
      <stop offset="1.0" stop-color="#000000"/>
    </radialGradient>
    <radialGradient cx="0" cy="0" gradientTransform="matrix(0.0286, 0.0, 0.0, 0.0286, -45.05, -196.5)" gradientUnits="userSpaceOnUse" id="gradient41" r="819.2" spreadMethod="pad">
      <stop offset="0.0" stop-color="#000000"/>
      <stop offset="1.0" stop-color="#000000"/>
    </radialGradient>
    <radialGradient cx="0" cy="0" gradientTransform="matrix(0.0934, 0.0, 0.0, 0.0934, -351.55, -158.4)" gradientUnits="userSpaceOnUse" id="gradient42" r="819.2" spreadMethod="pad">
      <stop offset="0.0" stop-color="#6a6a6a"/>
      <stop offset="1.0" stop-color="#000000"/>
    </radialGradient>
    <radialGradient cx="0" cy="0" gradientTransform="matrix(0.0886, 0.0, 0.0, 0.0886, -368.9, -183.7)" gradientUnits="userSpaceOnUse" id="gradient43" r="819.2" spreadMethod="pad">
      <stop offset="0.0" stop-color="#0f0f0f"/>
      <stop offset="1.0" stop-color="#040404"/>
    </radialGradient>
    <radialGradient cx="0" cy="0" gradientTransform="matrix(0.0761, 0.0, 0.0, 0.0761, -56.0, -153.65)" gradientUnits="userSpaceOnUse" id="gradient44" r="819.2" spreadMethod="pad">
      <stop offset="0.0" stop-color="#161616"/>
      <stop offset="1.0" stop-color="#000000"/>
    </radialGradient>
    <radialGradient cx="0" cy="0" gradientTransform="matrix(0.0269, 0.0, 0.0, 0.0269, -190.55, -194.7)" gradientUnits="userSpaceOnUse" id="gradient45" r="819.2" spreadMethod="pad">
      <stop offset="0.0" stop-color="#595959"/>
      <stop offset="1.0" stop-color="#000000"/>
    </radialGradient>
    <radialGradient cx="0" cy="0" gradientTransform="matrix(0.0444, 0.0, 0.0, 0.0444, -56.0, -153.65)" gradientUnits="userSpaceOnUse" id="gradient46" r="819.2" spreadMethod="pad">
      <stop offset="0.0" stop-color="#161616"/>
      <stop offset="1.0" stop-color="#000000"/>
    </radialGradient>
    <radialGradient cx="0" cy="0" gradientTransform="matrix(0.0498, 0.0, 0.0, 0.0498, -353.1, -106.6)" gradientUnits="userSpaceOnUse" id="gradient47" r="819.2" spreadMethod="pad">
      <stop offset="0.0" stop-color="#292929"/>
      <stop offset="1.0" stop-color="#000000"/>
    </radialGradient>
    <radialGradient cx="0" cy="0" gradientTransform="matrix(0.0667, 0.0, 0.0, 0.0667, -389.2, -109.9)" gradientUnits="userSpaceOnUse" id="gradient48" r="819.2" spreadMethod="pad">
      <stop offset="0.0" stop-color="#393939"/>
      <stop offset="1.0" stop-color="#000000"/>
    </radialGradient>
    <radialGradient cx="0" cy="0" gradientTransform="matrix(0.0915, 0.0, 0.0, 0.0915, -357.1, -63.7)" gradientUnits="userSpaceOnUse" id="gradient49" r="819.2" spreadMethod="pad">
      <stop offset="0.0" stop-color="#505050"/>
      <stop offset="1.0" stop-color="#2b2b2b"/>
    </radialGradient>
    <radialGradient cx="0" cy="0" gradientTransform="matrix(0.0382, 0.0, 0.0, 0.0382, -318.5, -53.05)" gradientUnits="userSpaceOnUse" id="gradient50" r="819.2" spreadMethod="pad">
      <stop offset="0.0" stop-color="#858585"/>
      <stop offset="1.0" stop-color="#040404"/>
    </radialGradient>
    <radialGradient cx="0" cy="0" gradientTransform="matrix(0.0686, 0.0, 0.0, 0.0686, -357.1, -63.7)" gradientUnits="userSpaceOnUse" id="gradient51" r="819.2" spreadMethod="pad">
      <stop offset="0.0" stop-color="#505050"/>
      <stop offset="1.0" stop-color="#131313"/>
    </radialGradient>
    <radialGradient cx="0" cy="0" gradientTransform="matrix(0.0614, 0.0, 0.0, 0.0614, -330.55, -75.9)" gradientUnits="userSpaceOnUse" id="gradient52" r="819.2" spreadMethod="pad">
      <stop offset="0.0" stop-color="#3a3a3a"/>
      <stop offset="1.0" stop-color="#0c0c0c"/>
    </radialGradient>
    <radialGradient cx="0" cy="0" gradientTransform="matrix(0.0284, 0.0, 0.0, 0.0284, -353.1, -106.6)" gradientUnits="userSpaceOnUse" id="gradient53" r="819.2" spreadMethod="pad">
      <stop offset="0.0" stop-color="#292929"/>
      <stop offset="1.0" stop-color="#000000"/>
    </radialGradient>
    <radialGradient cx="0" cy="0" gradientTransform="matrix(0.0463, 0.0, 0.0, 0.0463, -353.1, -106.6)" gradientUnits="userSpaceOnUse" id="gradient54" r="819.2" spreadMethod="pad">
      <stop offset="0.0" stop-color="#292929"/>
      <stop offset="1.0" stop-color="#010101"/>
    </radialGradient>
    <radialGradient cx="0" cy="0" gradientTransform="matrix(0.0649, 0.0, 0.0, 0.0649, -300.2, -87.85)" gradientUnits="userSpaceOnUse" id="gradient55" r="819.2" spreadMethod="pad">
      <stop offset="0.0" stop-color="#838383"/>
      <stop offset="1.0" stop-color="#626262"/>
    </radialGradient>
    <radialGradient cx="0" cy="0" gradientTransform="matrix(0.136, 0.0, 0.0, 0.136, -211.4, -24.3)" gradientUnits="userSpaceOnUse" id="gradient56" r="819.2" spreadMethod="pad">
      <stop offset="0.0" stop-color="#666666"/>
      <stop offset="1.0" stop-color="#0e0e0e"/>
    </radialGradient>
    <radialGradient cx="0" cy="0" gradientTransform="matrix(0.029, 0.0, 0.0, 0.029, -211.4, -24.3)" gradientUnits="userSpaceOnUse" id="gradient57" r="819.2" spreadMethod="pad">
      <stop offset="0.0" stop-color="#666666"/>
      <stop offset="1.0" stop-color="#5e5e5e"/>
    </radialGradient>
    <radialGradient cx="0" cy="0" gradientTransform="matrix(0.051, 0.0, 0.0, 0.051, -207.15, -1.0)" gradientUnits="userSpaceOnUse" id="gradient58" r="819.2" spreadMethod="pad">
      <stop offset="0.0" stop-color="#4c4c4c"/>
      <stop offset="1.0" stop-color="#080808"/>
    </radialGradient>
    <radialGradient cx="0" cy="0" gradientTransform="matrix(0.0385, 0.0, 0.0, 0.0385, -318.05, -1.0)" gradientUnits="userSpaceOnUse" id="gradient59" r="819.2" spreadMethod="pad">
      <stop offset="0.0" stop-color="#3c3c3c"/>
      <stop offset="1.0" stop-color="#191919"/>
    </radialGradient>
    <radialGradient cx="0" cy="0" gradientTransform="matrix(0.0933, 0.0, 0.0, 0.0933, -318.05, -1.0)" gradientUnits="userSpaceOnUse" id="gradient60" r="819.2" spreadMethod="pad">
      <stop offset="0.0" stop-color="#3c3c3c"/>
      <stop offset="1.0" stop-color="#000000"/>
    </radialGradient>
    <radialGradient cx="0" cy="0" gradientTransform="matrix(0.0207, 0.0, 0.0, 0.0207, -322.1, -66.55)" gradientUnits="userSpaceOnUse" id="gradient61" r="819.2" spreadMethod="pad">
      <stop offset="0.0" stop-color="#373737"/>
      <stop offset="1.0" stop-color="#0c0c0c"/>
    </radialGradient>
  </defs>
</svg>
