<?xml version="1.0" encoding="UTF-8" standalone="no"?>
<svg xmlns:xlink="http://www.w3.org/1999/xlink" height="299.1px" width="399.1px" xmlns="http://www.w3.org/2000/svg">
  <g transform="matrix(1.0, 0.0, 0.0, 1.0, 400.0, 300.0)">
    <path d="M-275.0 -243.5 L-280.4 -243.65 -305.4 -256.75 -314.25 -269.65 -314.75 -268.5 -315.15 -268.9 -320.9 -275.75 -325.25 -283.5 -325.9 -285.9 -328.9 -292.9 -330.25 -298.15 -331.15 -300.0 -313.25 -300.0 -307.75 -288.15 -307.25 -287.9 -300.9 -278.5 -296.75 -273.75 -296.5 -273.5 -293.0 -269.5 -283.75 -261.0 -270.65 -253.75 -270.4 -253.65 -270.15 -253.5 -264.15 -250.9 -268.25 -248.15 -273.25 -246.15 -275.0 -243.5 M-183.25 -246.9 Q-187.9 -246.4 -189.15 -247.65 L-201.4 -239.75 Q-203.9 -243.0 -204.75 -242.5 L-218.25 -240.65 -219.4 -240.8 -221.4 -241.15 -221.5 -241.15 -223.65 -241.5 -224.0 -241.65 -225.0 -247.25 -222.9 -247.5 -216.65 -249.4 -202.9 -254.5 -192.75 -261.0 -176.4 -277.65 -174.65 -277.75 -177.5 -263.5 -177.4 -262.75 -181.0 -255.15 -183.25 -246.9" fill="url(#gradient0)" fill-rule="evenodd" stroke="none"/>
    <path d="M-313.25 -300.0 L-190.9 -300.0 -185.15 -277.25 -176.4 -277.65 -192.75 -261.0 -202.9 -254.5 -216.65 -249.4 -222.9 -247.5 -225.0 -247.25 -225.25 -247.9 -225.25 -248.75 -225.25 -249.9 -225.0 -250.25 -225.4 -250.4 -227.75 -252.5 -231.4 -253.9 -236.5 -255.9 -235.65 -254.5 -241.9 -256.5 -253.25 -256.75 -256.75 -256.25 -261.25 -256.25 -264.15 -253.25 -264.15 -250.9 -270.15 -253.5 -270.4 -253.65 -270.65 -253.75 -283.75 -261.0 -293.0 -269.5 -296.5 -273.5 -296.75 -273.75 -300.9 -278.5 -307.25 -287.9 -307.75 -288.15 -313.25 -300.0 M-169.9 -290.15 L-171.0 -289.5 -184.65 -277.65 -184.9 -278.15 -180.5 -295.9 -180.15 -296.0 -170.0 -290.4 -169.9 -290.15" fill="url(#gradient1)" fill-rule="evenodd" stroke="none"/>
    <path d="M-232.5 -250.25 L-232.5 -248.5 -233.9 -245.75 -233.65 -245.65 -231.9 -243.0 -243.75 -246.9 -273.25 -246.15 -268.25 -248.15 -264.15 -250.9 -264.15 -253.25 -261.25 -256.25 -256.75 -256.25 -253.25 -256.75 -241.9 -256.5 -235.65 -254.5 -232.5 -250.25" fill="url(#gradient2)" fill-rule="evenodd" stroke="none"/>
    <path d="M-231.4 -253.9 L-232.5 -250.25 -235.65 -254.5 -236.5 -255.9 -231.4 -253.9" fill="url(#gradient3)" fill-rule="evenodd" stroke="none"/>
    <path d="M-231.4 -253.9 L-227.75 -252.5 -225.4 -250.4 -225.25 -249.9 -225.25 -248.75 -225.65 -248.15 -227.25 -249.4 -226.25 -244.4 -226.4 -242.65 -227.15 -242.65 -231.4 -244.65 -232.5 -248.5 -232.5 -250.25 -231.4 -253.9" fill="url(#gradient4)" fill-rule="evenodd" stroke="none"/>
    <path d="M-190.9 -300.0 L-146.5 -300.0 -147.25 -297.0 -153.75 -280.9 -161.9 -268.9 -169.75 -259.5 -183.25 -246.9 -181.0 -255.15 -177.4 -262.75 -177.5 -263.5 -174.65 -277.75 -176.4 -277.65 -185.15 -277.25 -190.9 -300.0 M-169.9 -290.15 L-170.0 -290.4 -180.15 -296.0 -180.5 -295.9 -184.9 -278.15 -184.65 -277.65 -171.0 -289.5 -169.9 -290.15" fill="url(#gradient5)" fill-rule="evenodd" stroke="none"/>
    <path d="M-320.9 -275.75 Q-318.65 -272.25 -319.0 -271.5 L-324.0 -279.5 -332.65 -297.4 -333.4 -300.0 -331.15 -300.0 -330.25 -298.15 -328.9 -292.9 -325.9 -285.9 -325.25 -283.5 -320.9 -275.75" fill="url(#gradient6)" fill-rule="evenodd" stroke="none"/>
    <path d="M-276.15 -242.0 L-275.9 -242.25 -275.0 -243.5 -273.25 -246.15 -243.75 -246.9 -231.9 -243.0 -231.65 -242.75 -231.5 -242.4 -232.5 -242.4 -230.9 -240.9 -219.15 -208.5 -219.15 -199.65 Q-231.4 -210.75 -253.65 -206.5 -270.9 -202.4 -276.75 -187.4 L-277.15 -181.9 Q-278.65 -181.25 -280.25 -171.75 L-279.4 -162.15 -277.0 -156.4 -276.65 -153.4 -274.15 -146.4 -268.5 -139.15 -265.0 -136.5 -254.75 -133.15 -245.5 -128.4 -243.9 -128.0 -296.4 -130.25 -301.9 -129.75 -300.5 -132.5 -300.9 -135.25 -300.65 -135.65 Q-298.25 -137.0 -297.0 -140.0 L-293.9 -142.5 -290.15 -149.15 -289.4 -156.4 -289.0 -156.9 -284.0 -165.5 -282.15 -173.65 -282.75 -182.15 -278.75 -188.25 -278.0 -194.65 -278.25 -197.15 -279.4 -201.4 -283.4 -206.15 -287.15 -207.65 Q-288.4 -209.65 -290.25 -209.9 L-293.5 -210.15 -298.4 -209.65 -277.65 -239.5 -276.5 -239.75 -276.15 -240.25 -275.65 -241.65 -276.0 -241.65 -276.15 -241.75 -276.15 -242.0 M-226.0 -129.75 L-226.4 -127.5 -232.15 -127.65 -228.0 -128.75 -226.0 -129.75 M-304.5 -129.5 L-305.9 -129.4 -306.25 -130.15 -304.5 -129.5" fill="url(#gradient7)" fill-rule="evenodd" stroke="none"/>
    <path d="M-231.4 -244.65 L-227.15 -242.65 -225.75 -241.9 -226.15 -241.9 -226.5 -242.0 -231.65 -242.75 -231.9 -243.0 -233.65 -245.65 -231.4 -244.65" fill="url(#gradient8)" fill-rule="evenodd" stroke="none"/>
    <path d="M-225.0 -247.25 L-224.0 -241.65 -224.65 -241.65 -225.25 -241.75 -225.75 -241.9 -227.15 -242.65 -226.4 -242.65 -226.25 -244.4 -227.25 -249.4 -225.65 -248.15 -225.25 -247.9 -225.0 -247.25 M-232.5 -248.5 L-231.4 -244.65 -233.65 -245.65 -233.9 -245.75 -232.5 -248.5" fill="url(#gradient9)" fill-rule="evenodd" stroke="none"/>
    <path d="M-3.65 -269.15 L-3.25 -269.65 -1.15 -274.15 -0.9 -270.9 -1.15 -270.9 -1.4 -270.65 -1.5 -270.5 -1.65 -269.65 -2.25 -258.25 -2.4 -257.5 -2.5 -254.9 -2.75 -254.65 -3.5 -254.65 -3.4 -266.15 -3.65 -268.15 -3.65 -268.5 -3.5 -268.5 -3.65 -268.75 -3.65 -269.15 M-3.25 -267.65 L-3.25 -268.25 -3.4 -268.25 -3.4 -267.5 -3.25 -267.65" fill="url(#gradient10)" fill-rule="evenodd" stroke="none"/>
    <path d="M-0.9 -270.9 L-0.9 -255.15 -1.25 -255.15 -2.0 -254.9 -2.5 -254.9 -2.4 -257.5 -2.25 -258.25 -1.65 -269.65 -1.5 -270.5 -1.4 -270.65 -1.15 -270.9 -0.9 -270.9 M-12.4 -264.65 L-12.5 -265.15 -12.65 -265.5 -12.65 -265.65 -12.25 -266.25 -12.4 -265.65 -12.0 -265.75 -12.15 -266.4 -11.75 -266.65 -12.0 -266.0 -11.65 -266.25 -12.4 -264.9 -11.65 -264.15 -11.0 -264.9 -9.0 -264.65 -9.0 -265.0 -10.75 -265.0 -10.5 -265.5 -8.65 -265.5 -8.9 -264.65 -8.75 -264.25 -8.65 -264.5 -8.5 -264.75 -8.5 -265.9 -8.75 -266.25 -9.15 -265.9 -8.9 -265.65 -10.4 -265.65 -9.65 -266.5 -9.75 -266.9 -6.4 -268.0 Q-7.55 -267.3 -8.75 -266.65 L-9.4 -266.9 -9.15 -266.4 -8.5 -266.5 -8.5 -265.9 -8.0 -266.0 -7.9 -265.5 -7.25 -265.9 -7.4 -265.5 -6.4 -265.5 -7.25 -265.65 -6.9 -265.9 -7.4 -266.15 -7.25 -266.65 -5.15 -266.4 -5.15 -266.75 -8.25 -266.9 -6.25 -267.5 -5.75 -268.0 -4.25 -268.25 -4.15 -268.0 -3.75 -267.9 -4.25 -267.75 -4.4 -267.5 -4.5 -267.25 -4.5 -267.15 -5.4 -266.9 -4.65 -266.75 -4.75 -266.4 -4.75 -266.15 -5.15 -265.9 -4.9 -265.75 -4.9 -265.4 -5.65 -259.9 -5.75 -257.75 -5.5 -257.75 -5.75 -257.65 -5.75 -257.75 -6.4 -258.9 -12.4 -264.65 M-5.25 -268.4 L-4.75 -268.65 -4.4 -268.25 -5.25 -268.4 M-3.65 -268.5 L-3.65 -268.15 -3.9 -268.25 -3.65 -268.5 M-10.25 -266.65 L-10.0 -266.25 -10.25 -265.9 -10.75 -265.9 -10.65 -266.65 -10.25 -266.65 M-6.9 -267.0 L-6.5 -266.9 -6.15 -267.15 -6.9 -267.0 M-11.4 -264.0 L-10.75 -264.25 -11.25 -264.4 -11.4 -264.0 M-9.4 -263.9 L-9.15 -264.4 -9.65 -264.5 -9.85 -264.05 -9.4 -264.25 -9.4 -263.9 M-5.75 -266.9 L-5.4 -267.15 -6.15 -267.0 -5.75 -266.9 M-7.65 -267.0 L-7.25 -266.9 -6.9 -267.15 -7.65 -267.0 M-9.65 -263.75 L-9.75 -263.5 -9.4 -263.5 -9.65 -263.75 M-6.0 -265.4 L-5.9 -265.65 -6.25 -265.5 -6.0 -265.4 M-8.4 -263.25 L-8.4 -263.75 -8.9 -263.75 -8.65 -263.25 -10.0 -263.4 -10.25 -263.9 -10.0 -264.0 -11.0 -263.9 -9.9 -262.9 -7.65 -263.25 -8.4 -263.25 M-7.0 -260.65 L-6.75 -260.25 -6.5 -260.65 -7.0 -260.65" fill="url(#gradient11)" fill-rule="evenodd" stroke="none"/>
    <path d="M-6.0 -254.75 L-5.9 -256.5 -5.75 -257.65 -5.5 -257.75 -5.75 -257.75 -5.65 -259.9 -4.9 -265.4 -4.9 -265.75 -4.75 -266.15 -4.75 -266.4 -4.65 -266.75 -4.5 -267.15 -4.5 -267.25 -4.4 -267.5 -4.25 -267.75 -3.75 -267.9 -4.15 -268.0 -4.25 -268.25 -4.25 -268.4 -4.15 -268.75 -4.15 -268.9 -3.9 -269.0 -3.65 -269.15 -3.65 -268.75 -3.5 -268.5 -3.65 -268.5 -3.9 -268.25 -3.65 -268.15 -3.4 -266.15 -3.5 -254.65 -3.5 -254.5 -3.65 -254.5 -4.25 -254.4 -4.9 -254.4 -6.0 -254.75" fill="url(#gradient12)" fill-rule="evenodd" stroke="none"/>
    <path d="M-12.25 -266.25 L-12.15 -266.4 -11.75 -266.9 -9.75 -266.9 -9.65 -266.5 -10.4 -265.65 -8.9 -265.65 -9.15 -265.9 -8.75 -266.25 -8.5 -265.9 -8.5 -264.75 -8.65 -264.5 -8.75 -264.25 -8.9 -264.65 -8.65 -265.5 -10.5 -265.5 -10.75 -265.0 -9.0 -265.0 -9.0 -264.65 -11.0 -264.9 -11.65 -264.15 -12.4 -264.9 -11.65 -266.25 -12.0 -266.0 -11.75 -266.65 -12.15 -266.4 -12.0 -265.75 -12.4 -265.65 -12.25 -266.25 M-6.4 -268.0 L-5.5 -268.4 -5.25 -268.4 -4.4 -268.25 -4.75 -268.65 -4.5 -268.75 -4.25 -268.9 -4.15 -268.9 -4.15 -268.75 -4.25 -268.4 -4.25 -268.25 -5.75 -268.0 -6.25 -267.5 -8.25 -266.9 -5.15 -266.75 -5.15 -266.4 -7.25 -266.65 -7.4 -266.15 -6.9 -265.9 -7.25 -265.65 -6.4 -265.5 -7.4 -265.5 -7.25 -265.9 -7.9 -265.5 -8.0 -266.0 -8.5 -265.9 -8.5 -266.5 -9.15 -266.4 -9.4 -266.9 -8.75 -266.65 Q-7.55 -267.3 -6.4 -268.0 M-4.5 -267.15 L-4.65 -266.75 -5.4 -266.9 -4.5 -267.15 M-4.75 -266.15 L-4.9 -265.75 -5.15 -265.9 -4.75 -266.15 M-10.25 -266.65 L-10.65 -266.65 -10.75 -265.9 -10.25 -265.9 -10.0 -266.25 -10.25 -266.65 M-11.4 -264.0 L-11.25 -264.4 -10.75 -264.25 -11.4 -264.0 M-6.9 -267.0 L-6.15 -267.15 -6.5 -266.9 -6.9 -267.0 M-7.65 -267.0 L-6.9 -267.15 -7.25 -266.9 -7.65 -267.0 M-5.75 -266.9 L-6.15 -267.0 -5.4 -267.15 -5.75 -266.9 M-9.4 -263.9 L-9.4 -264.25 -9.85 -264.05 -9.65 -264.5 -9.15 -264.4 -9.4 -263.9 M-9.65 -263.75 L-9.4 -263.5 -9.75 -263.5 -9.65 -263.75 M-8.4 -263.25 L-7.65 -263.25 -9.9 -262.9 -11.0 -263.9 -10.0 -264.0 -10.25 -263.9 -10.0 -263.4 -8.65 -263.25 -8.9 -263.75 -8.4 -263.75 -8.4 -263.25 M-6.0 -265.4 L-6.25 -265.5 -5.9 -265.65 -6.0 -265.4 M-7.0 -260.65 L-6.5 -260.65 -6.75 -260.25 -7.0 -260.65" fill="url(#gradient13)" fill-rule="evenodd" stroke="none"/>
    <path d="M-5.9 -256.5 L-11.0 -261.5 -11.65 -262.25 -12.4 -264.65 -6.4 -258.9 -5.75 -257.75 -5.75 -257.65 -5.9 -256.5" fill="url(#gradient14)" fill-rule="evenodd" stroke="none"/>
    <path d="M-0.9 -255.15 L-0.9 -252.65 -3.9 -252.5 -5.9 -250.25 -14.65 -247.4 -16.15 -246.25 -15.9 -245.0 -16.4 -245.0 Q-17.4 -246.0 -14.5 -248.65 L-6.0 -254.75 -4.9 -254.4 -4.25 -254.4 -3.65 -254.5 -3.5 -254.5 -2.75 -254.65 -2.5 -254.9 -2.0 -254.9 -1.25 -255.15 -0.9 -255.15 M-0.9 -248.75 L-4.75 -248.75 -4.15 -249.15 -0.9 -248.75" fill="url(#gradient15)" fill-rule="evenodd" stroke="none"/>
    <path d="M-3.5 -254.65 L-2.75 -254.65 -3.5 -254.5 -3.5 -254.65" fill="url(#gradient16)" fill-rule="evenodd" stroke="none"/>
    <path d="M-3.25 -267.65 L-3.4 -267.5 -3.4 -268.25 -3.25 -268.25 -3.25 -267.65" fill="url(#gradient17)" fill-rule="evenodd" stroke="none"/>
    <path d="M-0.9 -252.65 L-0.9 -248.75 -4.15 -249.15 -4.75 -248.75 -4.9 -248.75 -8.25 -247.65 -8.4 -247.5 -12.15 -246.25 -15.9 -245.0 -16.15 -246.25 -14.65 -247.4 -5.9 -250.25 -3.9 -252.5 -0.9 -252.65" fill="url(#gradient18)" fill-rule="evenodd" stroke="none"/>
    <path d="M-11.15 -244.4 L-14.9 -243.15 -15.9 -245.0 -12.15 -246.25 -11.5 -244.5 -11.15 -244.4" fill="url(#gradient19)" fill-rule="evenodd" stroke="none"/>
    <path d="M-3.65 -246.75 L-11.15 -244.4 -11.5 -244.5 -12.15 -246.25 -8.4 -247.5 -8.25 -247.65 -4.9 -248.75 -4.75 -248.75 -4.0 -248.5 -3.65 -246.75 M-14.9 -243.15 L-15.4 -243.0 -16.4 -245.0 -15.9 -245.0 -14.9 -243.15" fill="url(#gradient20)" fill-rule="evenodd" stroke="none"/>
    <path d="M-0.9 -248.75 L-0.9 -246.75 -3.65 -246.75 -4.0 -248.5 -4.75 -248.75 -0.9 -248.75" fill="url(#gradient21)" fill-rule="evenodd" stroke="none"/>
    <path d="M-225.65 -248.15 L-225.25 -248.75 -225.25 -247.9 -225.65 -248.15 M-225.25 -249.9 L-225.4 -250.4 -225.0 -250.25 -225.25 -249.9" fill="url(#gradient22)" fill-rule="evenodd" stroke="none"/>
    <path d="M-224.0 -241.65 L-223.65 -241.5 -221.5 -241.15 -221.4 -241.15 -219.4 -240.8 -193.9 -236.4 -193.5 -235.9 -191.25 -221.15 -190.0 -193.9 -199.25 -183.0 Q-199.75 -195.35 -199.75 -207.65 L-229.9 -240.75 -229.5 -241.65 -228.0 -241.9 -231.5 -242.4 -231.65 -242.75 -226.5 -242.0 -226.15 -241.9 -225.75 -241.9 -225.25 -241.75 -224.65 -241.65 -224.0 -241.65" fill="url(#gradient23)" fill-rule="evenodd" stroke="none"/>
    <path d="M-231.5 -242.4 L-228.0 -241.9 -229.5 -241.65 -229.9 -240.75 -230.9 -240.9 -232.5 -242.4 -231.5 -242.4 M-278.65 -240.15 L-278.65 -240.75 -276.75 -241.4 -276.0 -241.65 -275.65 -241.65 -276.15 -240.25 -276.5 -239.75 -277.65 -239.5 -278.65 -240.15" fill="url(#gradient24)" fill-rule="evenodd" stroke="none"/>
    <path d="M-194.9 -176.75 L-197.75 -133.75 -203.0 -135.25 -226.4 -127.5 -226.0 -129.75 -221.9 -131.0 -216.5 -134.65 -210.75 -141.0 -210.25 -142.4 -205.5 -147.25 -202.25 -153.75 -200.65 -162.65 Q-199.4 -172.0 -206.25 -186.15 L-212.15 -194.75 Q-213.9 -197.4 -219.15 -199.65 L-219.15 -208.5 -230.9 -240.9 -229.9 -240.75 -199.75 -207.65 Q-199.75 -195.35 -199.25 -183.0 -199.5 -181.75 -194.65 -179.75 L-194.9 -176.75" fill="url(#gradient25)" fill-rule="evenodd" stroke="none"/>
    <path d="M-219.15 -199.65 Q-213.9 -197.4 -212.15 -194.75 L-206.25 -186.15 Q-199.4 -172.0 -200.65 -162.65 L-202.25 -153.75 -205.5 -147.25 -210.25 -142.4 -210.75 -141.0 -216.5 -134.65 -221.9 -131.0 -226.0 -129.75 -228.0 -128.75 -232.15 -127.65 -239.5 -127.25 -243.9 -128.0 -245.5 -128.4 -254.75 -133.15 -265.0 -136.5 -268.5 -139.15 -274.15 -146.4 -276.65 -153.4 -277.0 -156.4 -279.4 -162.15 -280.25 -171.75 Q-278.65 -181.25 -277.15 -181.9 L-276.75 -187.4 Q-270.9 -202.4 -253.65 -206.5 -231.4 -210.75 -219.15 -199.65" fill="url(#gradient26)" fill-rule="evenodd" stroke="none"/>
    <path d="M-306.15 -27.9 L-300.9 -87.0 -303.65 -110.0 -303.75 -110.4 -303.75 -110.65 -305.9 -129.4 -304.5 -129.5 -301.9 -129.75 -296.4 -130.25 -243.9 -128.0 -239.5 -127.25 -232.15 -127.65 -226.4 -127.5 -239.65 -83.25 -244.5 -18.0 -262.15 -17.9 -300.65 -22.25 -306.25 -25.0 -306.15 -27.9" fill="url(#gradient27)" fill-rule="evenodd" stroke="none"/>
    <path d="M-307.75 -130.75 Q-328.65 -138.25 -333.65 -161.9 L-334.0 -163.75 -334.15 -171.5 -332.15 -181.75 -328.15 -190.75 Q-325.75 -196.0 -317.9 -202.25 L-317.4 -202.25 -312.15 -205.75 -305.65 -208.15 -302.4 -209.15 -298.4 -209.65 -293.5 -210.15 -290.25 -209.9 Q-288.4 -209.65 -287.15 -207.65 L-283.4 -206.15 -279.4 -201.4 -278.25 -197.15 -278.0 -194.65 -278.75 -188.25 -282.75 -182.15 -282.15 -173.65 -284.0 -165.5 -289.0 -156.9 -289.4 -156.4 -290.15 -149.15 -293.9 -142.5 -297.0 -140.0 Q-298.25 -137.0 -300.65 -135.65 L-300.9 -135.25 -300.5 -132.5 -301.9 -129.75 -304.5 -129.5 -306.25 -130.15 -307.75 -130.75" fill="url(#gradient28)" fill-rule="evenodd" stroke="none"/>
    <path d="M-276.75 -241.4 L-276.15 -241.75 -276.0 -241.65 -276.75 -241.4 M-298.4 -209.65 L-302.4 -209.15 -305.65 -208.15 -306.5 -217.65 -278.65 -240.15 -277.65 -239.5 -298.4 -209.65" fill="url(#gradient29)" fill-rule="evenodd" stroke="none"/>
    <path d="M-301.5 -232.15 L-276.15 -242.0 -276.15 -241.75 -276.75 -241.4 -278.65 -240.75 -278.65 -240.15 -306.5 -217.65 -301.5 -232.15" fill="url(#gradient30)" fill-rule="evenodd" stroke="none"/>
    <path d="M-218.25 -240.65 L-190.9 -236.25 -173.0 -223.9 -176.65 -221.65 -193.5 -235.9 -193.9 -236.4 -219.4 -240.8 -218.25 -240.65" fill="url(#gradient31)" fill-rule="evenodd" stroke="none"/>
    <path d="M-191.25 -221.15 L-193.5 -235.9 -176.65 -221.65 -191.25 -221.15" fill="url(#gradient32)" fill-rule="evenodd" stroke="none"/>
    <path d="M-118.25 -148.15 L-131.25 -149.9 -145.5 -156.4 -162.75 -166.5 -182.25 -173.9 -190.0 -193.9 -191.25 -221.15 -176.65 -221.65 -147.15 -208.4 -124.65 -199.4 -92.5 -184.4 -107.5 -165.25 -118.25 -148.15" fill="url(#gradient33)" fill-rule="evenodd" stroke="none"/>
    <path d="M-316.15 -225.65 L-316.0 -226.0 -301.5 -232.15 -306.5 -217.65 -305.65 -208.15 -312.15 -205.75 -317.4 -202.25 -317.9 -202.25 -320.65 -207.0 -316.15 -225.65" fill="url(#gradient34)" fill-rule="evenodd" stroke="none"/>
    <path d="M-173.0 -223.9 L-121.4 -201.25 -88.4 -187.25 -92.15 -184.5 -92.5 -184.4 -124.65 -199.4 -147.15 -208.4 -176.65 -221.65 -173.0 -223.9" fill="url(#gradient35)" fill-rule="evenodd" stroke="none"/>
    <path d="M-56.65 -153.25 L-74.4 -143.9 -118.25 -148.15 -107.5 -165.25 -92.5 -184.4 -92.15 -184.5 -66.65 -185.65 -30.65 -178.15 -48.9 -168.15 -56.65 -153.25" fill="url(#gradient36)" fill-rule="evenodd" stroke="none"/>
    <path d="M-88.4 -187.25 L-71.25 -189.15 -66.65 -185.65 -92.15 -184.5 -88.4 -187.25" fill="url(#gradient37)" fill-rule="evenodd" stroke="none"/>
    <path d="M-71.25 -189.15 L-37.0 -208.0 -8.25 -221.4 -2.0 -224.65 -0.9 -225.0 -0.9 -218.25 -25.0 -206.9 -45.65 -195.65 -66.65 -185.65 -71.25 -189.15" fill="url(#gradient38)" fill-rule="evenodd" stroke="none"/>
    <path d="M-0.9 -218.25 L-0.9 -183.25 -33.5 -166.75 -30.65 -178.15 -45.65 -195.65 -25.0 -206.9 -0.9 -218.25" fill="url(#gradient39)" fill-rule="evenodd" stroke="none"/>
    <path d="M-66.65 -185.65 L-45.65 -195.65 -30.65 -178.15 -66.65 -185.65" fill="url(#gradient40)" fill-rule="evenodd" stroke="none"/>
    <path d="M-333.65 -161.9 L-334.75 -161.4 -352.0 -147.75 -352.4 -147.25 -368.4 -141.25 -384.9 -154.15 -390.65 -164.15 -391.0 -164.25 -390.5 -164.75 -390.25 -164.9 -372.75 -175.5 -329.5 -208.25 -329.4 -208.5 -322.15 -218.0 -321.75 -218.4 -316.15 -225.65 -320.65 -207.0 -317.9 -202.25 Q-325.75 -196.0 -328.15 -190.75 L-332.15 -181.75 -334.15 -171.5 -334.0 -163.75 -333.65 -161.9" fill="url(#gradient41)" fill-rule="evenodd" stroke="none"/>
    <path d="M-322.0 -218.25 L-321.75 -218.4 -322.15 -218.0 -322.0 -218.25" fill="url(#gradient42)" fill-rule="evenodd" stroke="none"/>
    <path d="M-390.25 -164.9 L-368.65 -183.75 -349.5 -199.5 -330.15 -213.4 -322.0 -218.25 -322.15 -218.0 -329.4 -208.5 -329.5 -208.25 -372.75 -175.5 -390.25 -164.9" fill="url(#gradient43)" fill-rule="evenodd" stroke="none"/>
    <path d="M-182.25 -173.9 L-194.75 -176.75 -194.9 -176.75 -194.65 -179.75 Q-199.5 -181.75 -199.25 -183.0 L-190.0 -193.9 -182.25 -173.9" fill="url(#gradient44)" fill-rule="evenodd" stroke="none"/>
    <path d="M-33.5 -166.75 L-56.65 -153.25 -48.9 -168.15 -30.65 -178.15 -33.5 -166.75" fill="url(#gradient45)" fill-rule="evenodd" stroke="none"/>
    <path d="M-399.75 -124.9 L-400.0 -125.15 -400.0 -151.75 -391.0 -164.25 -390.65 -164.15 -384.9 -154.15 -368.4 -141.25 -368.15 -140.4 -366.25 -125.9 -365.5 -124.65 -361.4 -115.5 -381.25 -114.25 -388.9 -110.0 -399.75 -124.9" fill="url(#gradient46)" fill-rule="evenodd" stroke="none"/>
    <path d="M-349.15 -50.5 L-359.0 -64.75 -372.75 -82.9 -399.75 -124.9 -388.9 -110.0 -380.75 -98.75 -379.5 -97.5 -370.75 -83.5 -357.25 -64.65 -348.5 -54.4 -349.15 -50.5" fill="url(#gradient47)" fill-rule="evenodd" stroke="none"/>
    <path d="M-318.4 -55.5 Q-316.4 -40.0 -331.9 -36.5 -347.0 -35.9 -349.15 -50.5 L-348.5 -54.4 -347.15 -57.75 -343.4 -59.75 Q-334.5 -58.65 -334.15 -56.5 L-327.9 -59.25 -325.75 -58.65 Q-329.0 -63.4 -328.65 -64.25 L-328.65 -64.75 -326.75 -65.0 Q-321.15 -63.15 -318.65 -56.0 L-318.4 -55.5" fill="url(#gradient48)" fill-rule="evenodd" stroke="none"/>
    <path d="M-388.9 -110.0 L-381.25 -114.25 -361.4 -115.5 -360.9 -114.9 -349.0 -89.9 -341.9 -79.65 -341.4 -79.4 -335.9 -69.9 -327.9 -59.25 -334.15 -56.5 Q-334.5 -58.65 -343.4 -59.75 L-347.15 -57.75 -348.5 -54.4 -357.25 -64.65 -370.75 -83.5 -379.5 -97.5 -380.75 -98.75 -388.9 -110.0" fill="url(#gradient49)" fill-rule="evenodd" stroke="none"/>
    <path d="M-353.0 -107.0 L-335.75 -86.4 -330.25 -76.15 -321.65 -66.75 -317.75 -55.75 -318.65 -56.0 Q-321.15 -63.15 -326.75 -65.0 L-328.65 -64.75 -328.65 -64.25 Q-329.0 -63.4 -325.75 -58.65 L-327.9 -59.25 -335.9 -69.9 -341.4 -79.4 -341.9 -79.65 -349.0 -89.9 -360.9 -114.9 -353.5 -107.5 -353.0 -107.0" fill="url(#gradient50)" fill-rule="evenodd" stroke="none"/>
    <path d="M-353.5 -108.0 L-353.5 -107.5 -360.9 -114.9 -361.4 -115.5 -365.5 -124.65 -365.0 -124.4 -355.15 -109.9 -353.5 -108.0" fill="url(#gradient51)" fill-rule="evenodd" stroke="none"/>
    <path d="M-368.15 -140.4 L-353.5 -108.0 -355.15 -109.9 -365.0 -124.4 -365.5 -124.65 -366.25 -125.9 -368.15 -140.4" fill="url(#gradient52)" fill-rule="evenodd" stroke="none"/>
    <path d="M-352.4 -147.25 L-361.0 -134.5 -354.4 -125.5 -353.0 -107.0 -353.5 -107.5 -353.5 -108.0 -368.15 -140.4 -368.4 -141.25 -352.4 -147.25" fill="url(#gradient53)" fill-rule="evenodd" stroke="none"/>
    <path d="M-303.75 -110.65 L-307.75 -130.75 -306.25 -130.15 -305.9 -129.4 -303.75 -110.65" fill="url(#gradient54)" fill-rule="evenodd" stroke="none"/>
    <path d="M-197.75 -133.75 L-200.0 -124.15 -207.25 -80.65 -207.9 -65.65 -211.15 -25.0 -214.15 -23.4 -218.65 -21.75 -244.5 -18.0 -239.65 -83.25 -226.4 -127.5 -203.0 -135.25 -197.75 -133.75" fill="url(#gradient55)" fill-rule="evenodd" stroke="none"/>
    <path d="M-211.15 -25.0 L-206.0 -0.9 -206.4 -0.9 -214.15 -23.4 -211.15 -25.0" fill="url(#gradient56)" fill-rule="evenodd" stroke="none"/>
    <path d="M-206.4 -0.9 L-240.15 -0.9 -244.5 -18.0 -218.65 -21.75 -214.15 -23.4 -206.4 -0.9" fill="url(#gradient57)" fill-rule="evenodd" stroke="none"/>
    <path d="M-317.4 -0.9 L-322.0 -1.15 -306.15 -27.9 -306.25 -25.0 -317.4 -0.9" fill="url(#gradient58)" fill-rule="evenodd" stroke="none"/>
    <path d="M-240.15 -0.9 L-317.4 -0.9 -306.25 -25.0 -300.65 -22.25 -262.15 -17.9 -244.5 -18.0 -240.15 -0.9" fill="url(#gradient59)" fill-rule="evenodd" stroke="none"/>
    <path d="M-317.75 -55.75 L-318.4 -55.5 -318.65 -56.0 -317.75 -55.75" fill="url(#gradient60)" fill-rule="evenodd" stroke="none"/>
    <path d="M-222.9 -241.4 L-223.15 -241.4 -223.65 -241.5 -223.9 -241.5 -224.0 -241.65 -224.4 -243.75 -224.9 -244.15 -225.65 -246.0 -226.4 -248.65 -226.9 -249.25 -227.0 -250.0 -227.4 -250.15 -230.4 -251.65 -231.75 -252.15 -231.9 -252.5 -232.5 -252.65 -232.65 -252.9 -231.65 -252.65 -229.15 -253.0 -228.65 -252.9 -225.0 -253.0 -224.25 -253.15 -222.75 -252.9 -222.4 -247.65 -222.25 -247.0 -222.9 -241.4" fill="#a90000" fill-rule="evenodd" stroke="none"/>
    <path d="M-247.9 -181.4 L-246.5 -186.4 -246.4 -186.65 -244.15 -195.5 -242.4 -200.25 -242.15 -200.5 -242.0 -201.0 -240.25 -204.65 -240.4 -204.9 -240.4 -205.0 -239.25 -207.4 -239.25 -207.5 -232.5 -222.9 -231.75 -228.25 -231.9 -228.9 -230.4 -238.9 -230.5 -239.65 -230.15 -240.75 -230.0 -242.15 -230.0 -242.5 -229.65 -244.4 -230.5 -247.5 -231.9 -250.5 -232.15 -250.75 -232.15 -251.65 -232.5 -252.65 -231.9 -252.5 -231.75 -252.15 -230.4 -251.65 -227.4 -250.15 -227.0 -250.0 -226.9 -249.25 -226.4 -248.65 -225.65 -246.0 -224.9 -244.15 -224.4 -243.75 -224.0 -241.65 -223.9 -241.5 -223.65 -241.5 -223.15 -241.4 -222.9 -241.4 -222.75 -241.25 -223.65 -234.0 -223.5 -233.65 -224.75 -224.0 -224.65 -223.15 -226.15 -219.75 -226.15 -219.4 -234.65 -198.65 -227.25 -195.15 -227.15 -194.9 -223.5 -193.15 -222.75 -192.9 -214.25 -188.75 -214.15 -188.5 -209.4 -186.25 -209.65 -186.15 -210.5 -186.15 -210.75 -186.0 -213.25 -185.75 -213.5 -185.65 -217.4 -185.15 -218.15 -185.15 -218.4 -185.0 -235.5 -182.9 -236.25 -182.65 -247.9 -181.4 M-222.75 -252.9 L-221.75 -252.0 -221.0 -251.15 -219.9 -249.5 -218.25 -245.15 -218.25 -244.5 -217.4 -243.25 -219.65 -241.0 -219.9 -240.9 -220.15 -241.0 -221.4 -241.15 -221.5 -241.15 -222.15 -241.25 -222.4 -241.25 -222.9 -241.4 -222.25 -247.0 -222.4 -247.65 -222.75 -252.9 M-285.75 -250.5 L-284.25 -252.25 -274.65 -249.75 -269.9 -247.65 -273.4 -246.15 -279.75 -248.9 -285.75 -250.5" fill="#9b0000" fill-opacity="0.9098039" fill-rule="evenodd" stroke="none"/>
    <path d="M-285.75 -250.5 L-289.25 -251.25 -289.5 -251.4 -290.4 -251.65 -290.0 -251.75 -284.25 -252.25 -285.75 -250.5" fill="#ac0000" fill-rule="evenodd" stroke="none"/>
    <path d="M-290.4 -251.65 L-289.5 -251.4 -289.25 -251.25 -285.75 -250.5 -286.75 -249.15 -288.15 -247.75 -292.15 -250.0 -292.0 -250.5 -291.0 -251.5 -290.4 -251.65 M-301.4 -232.4 L-293.9 -235.15 -296.0 -226.0 -296.25 -225.65 -296.15 -225.25 -297.15 -222.15 -305.75 -210.5 -306.0 -209.9 -308.25 -207.0 -308.25 -206.9 -308.5 -206.65 -308.4 -206.65 -308.75 -206.4 -308.65 -206.4 -309.0 -206.0 -310.15 -204.25 -310.4 -204.0 -313.25 -199.9 -313.75 -199.5 -314.65 -197.9 -315.65 -194.4 -315.75 -194.15 -317.5 -187.75 -317.65 -187.5 -319.9 -179.5 -320.15 -179.15 -320.0 -178.9 -322.15 -172.25 -325.25 -175.4 -325.65 -175.75 -326.15 -176.4 -326.25 -176.65 -331.75 -182.15 -331.75 -182.25 -336.15 -186.75 -336.9 -187.5 -336.25 -188.25 -323.65 -196.75 -321.15 -199.4 -318.5 -203.0 -318.4 -203.25 -317.75 -203.9 -309.4 -215.15 -308.4 -216.25 -307.25 -217.9 -306.0 -219.25 -305.4 -220.65 -304.15 -221.9 -302.5 -227.9 -302.65 -228.15 -301.5 -232.15 -301.4 -232.25 -301.4 -232.4" fill="#9e0000" fill-opacity="0.9098039" fill-rule="evenodd" stroke="none"/>
    <path d="M-247.9 -181.4 L-236.25 -182.65 -235.5 -182.9 -218.4 -185.0 -218.15 -185.15 -217.4 -185.15 -213.5 -185.65 -213.25 -185.75 -210.75 -186.0 -210.5 -186.15 -209.65 -186.15 -209.4 -186.25 -209.25 -186.0 -209.9 -177.4 -210.15 -177.0 -209.9 -176.75 -210.5 -168.25 -210.65 -168.0 -211.15 -160.0 -211.25 -159.75 -211.15 -159.5 -211.4 -158.65 -212.65 -152.15 -212.75 -151.9 -214.0 -145.4 -214.15 -145.15 -214.0 -144.9 -215.0 -139.9 -215.25 -139.65 -215.15 -139.25 -215.65 -136.65 -216.0 -135.9 -216.0 -135.5 -216.15 -135.0 -216.0 -134.75 -217.5 -128.4 -241.65 -129.75 -289.15 -131.25 -297.65 -132.0 -297.9 -132.15 -300.65 -132.0 -300.65 -132.4 -303.0 -132.65 -303.65 -132.65 -304.25 -132.75 -308.4 -132.75 -308.5 -132.9 -308.65 -132.75 -311.4 -132.65 -311.65 -132.5 -312.15 -132.5 -313.0 -133.25 -313.4 -133.4 -313.4 -133.5 -318.65 -136.75 -324.25 -141.75 -324.5 -142.25 -324.75 -142.25 -325.4 -143.75 -326.15 -144.4 -329.15 -149.15 -332.4 -156.5 -332.9 -159.4 -333.65 -161.9 -334.0 -164.15 -333.9 -165.0 -334.15 -171.5 -333.65 -172.65 -333.75 -173.0 -333.75 -173.4 -333.65 -173.4 -333.65 -174.5 -332.65 -179.65 -332.25 -181.15 -332.65 -181.5 -336.15 -186.75 -331.75 -182.25 -331.75 -182.15 -326.25 -176.65 -326.15 -176.4 -325.65 -175.75 -325.25 -175.4 -322.15 -172.25 -314.65 -166.4 -313.75 -165.9 -313.65 -165.5 -298.15 -154.0 -298.0 -153.65 -285.4 -144.25 -284.65 -144.4 -260.65 -159.4 -260.5 -159.65 -254.25 -163.5 -252.75 -167.25 -252.5 -167.65 -247.9 -181.4 M-322.15 -150.4 L-322.25 -150.75 -322.25 -151.0 -323.5 -153.9 -322.75 -150.5 -322.65 -150.5 -322.5 -150.25 -322.15 -150.4 M-244.5 -152.9 L-244.4 -151.9 -243.25 -153.15 -243.0 -154.0 -244.15 -155.15 -244.25 -154.9 -245.0 -154.15 -244.9 -153.75 -244.5 -152.9" fill="#b00000" fill-opacity="0.9098039" fill-rule="evenodd" stroke="none"/>
    <path d="M-292.15 -250.0 L-288.15 -247.75 -292.0 -243.0 -293.9 -235.15 -301.4 -232.4 -298.75 -242.75 -292.5 -250.0 -292.15 -250.0" fill="#ae0000" fill-opacity="0.9098039" fill-rule="evenodd" stroke="none"/>
    <path d="M-336.9 -187.5 L-336.15 -186.75 -332.65 -181.5 -332.25 -181.15 -332.65 -179.65 -333.65 -174.5 -333.65 -173.4 -333.75 -173.4 -333.75 -173.0 -333.65 -172.65 -334.15 -171.5 -333.9 -165.0 -334.0 -164.15 -333.65 -161.9 -334.75 -161.4 -340.4 -156.75 -342.0 -158.75 -342.5 -159.9 -342.25 -161.25 -342.15 -161.5 -341.15 -166.5 -341.25 -166.5 -341.0 -167.15 -336.9 -187.5" fill="#c40000" fill-rule="evenodd" stroke="none"/>
    <path d="M-340.4 -156.75 L-334.75 -161.4 -333.65 -161.9 -332.9 -159.4 -332.4 -156.5 -329.15 -149.15 -326.15 -144.4 -325.4 -143.75 -324.75 -142.25 -324.5 -142.25 -324.25 -141.75 -318.65 -136.75 -313.4 -133.5 -313.4 -133.4 -313.0 -133.25 -312.15 -132.5 -319.75 -131.9 -320.15 -132.5 -323.25 -135.9 -323.65 -136.65 -340.4 -156.75" fill="#c60000" fill-rule="evenodd" stroke="none"/>
    <path d="M-195.25 -170.9 L-196.25 -158.4 -196.25 -157.0 -197.75 -135.25 -197.75 -135.0 -198.0 -135.0 -217.5 -128.4 -216.0 -134.75 -216.15 -135.0 -216.0 -135.5 -216.0 -135.9 -215.65 -136.65 -215.15 -139.25 -215.25 -139.65 -215.0 -139.9 -214.0 -144.9 -214.15 -145.15 -214.0 -145.4 -212.75 -151.9 -212.65 -152.15 -211.4 -158.65 -211.15 -159.5 -211.25 -159.75 -211.15 -160.0 -210.65 -168.0 -210.5 -168.25 -209.9 -176.75 -210.15 -177.0 -209.9 -177.4 -209.25 -186.0 -205.0 -181.9 -205.0 -181.75 -204.9 -181.5 -204.9 -181.15 -204.65 -181.0 -203.75 -180.25 -203.25 -179.5 -200.0 -176.25 -199.9 -175.9 -198.5 -174.65 -198.4 -174.25 -195.4 -171.25 -195.25 -170.9" fill="#d30000" fill-opacity="0.9098039" fill-rule="evenodd" stroke="none"/>
    <path d="M-217.5 -128.4 L-198.0 -135.0 -197.75 -135.0 -198.25 -132.15 -198.65 -130.4 -198.5 -130.15 -200.65 -120.65 -200.5 -120.4 -200.75 -120.15 -200.65 -119.65 -207.15 -81.4 -208.25 -62.9 -208.15 -61.4 -209.75 -43.15 -209.65 -42.15 -211.25 -24.9 -210.15 -19.4 -210.0 -18.9 -210.0 -18.75 -209.15 -15.25 -209.5 -15.0 -213.9 -13.15 -214.25 -13.15 -219.0 -12.0 -226.65 -10.75 -226.75 -10.75 -236.25 -9.5 -236.4 -9.4 -244.0 -8.4 -243.15 -12.15 -243.15 -13.4 -242.5 -15.9 -242.65 -16.15 -242.15 -17.9 -242.25 -18.25 -239.65 -31.25 -239.15 -35.75 -239.25 -36.0 -237.65 -57.0 -237.75 -57.5 -236.0 -78.5 -236.15 -79.0 -235.0 -82.75 -224.4 -109.9 -224.25 -110.75 -217.5 -128.4" fill="#dd0000" fill-opacity="0.9098039" fill-rule="evenodd" stroke="none"/>
    <path d="M-197.75 -135.0 L-197.75 -135.25 -190.5 -137.75 -187.4 -136.65 -197.15 -132.5 -198.25 -132.15 -197.75 -135.0" fill="#f30000" fill-opacity="0.9098039" fill-rule="evenodd" stroke="none"/>
    <path d="M-197.75 -135.25 L-196.25 -157.0 -196.25 -158.4 -195.25 -170.9 -188.65 -164.0 -181.65 -146.5 -182.25 -145.0 -182.4 -144.9 -185.75 -137.5 -185.9 -137.25 -187.4 -136.65 -190.5 -137.75 -197.75 -135.25" fill="#e80000" fill-opacity="0.9098039" fill-rule="evenodd" stroke="none"/>
    <path d="M-187.4 -136.65 L-185.9 -137.25 -185.75 -137.5 -182.4 -144.9 -182.5 -144.5 -182.65 -144.15 -182.75 -143.75 -182.9 -143.4 -182.9 -143.0 -184.65 -137.9 -184.9 -137.65 -184.75 -137.5 -184.65 -137.25 -185.25 -136.0 -186.4 -136.25 -186.4 -136.4 -187.4 -136.65" fill="#ea0000" fill-rule="evenodd" stroke="none"/>
    <path d="M-198.0 -80.0 L-198.0 -88.4 -197.9 -89.15 -198.0 -89.5 -192.0 -110.25 -191.9 -110.0 -198.0 -80.0 M-197.75 -91.75 L-197.15 -132.5 -187.4 -136.65 -186.4 -136.4 -186.4 -136.25 -185.25 -136.0 -185.4 -135.65 -185.25 -135.25 -190.4 -117.4 -188.4 -127.75 -188.5 -128.15 -188.25 -128.4 -188.4 -128.65 -188.5 -128.15 -197.75 -91.75" fill="#f40000" fill-rule="evenodd" stroke="none"/>
    <path d="M-210.0 -18.9 L-210.15 -19.4 -211.25 -24.9 -209.65 -42.15 -209.75 -43.15 -208.15 -61.4 -208.25 -62.9 -207.15 -81.4 -200.65 -119.65 -200.75 -120.15 -200.5 -120.4 -200.65 -120.65 -198.5 -130.15 -198.65 -130.4 -198.25 -132.15 -197.15 -132.5 -197.75 -91.75 -198.0 -89.5 -198.5 -88.25 -198.25 -88.15 -198.0 -88.4 -198.0 -80.0 -199.0 -59.15 -200.65 -36.9 -205.9 -17.25 -210.0 -18.9" fill="#ed0000" fill-rule="evenodd" stroke="none"/>
    <path d="M-316.0 -104.75 L-317.9 -119.75 -317.9 -119.9 -318.0 -120.5 -318.0 -120.65 -318.15 -121.25 -318.15 -121.5 -318.25 -122.0 -318.25 -122.4 -318.4 -122.75 -319.75 -131.9 -312.15 -132.5 -307.75 -130.75 -303.65 -110.0 -300.9 -87.65 -300.9 -87.15 -302.65 -66.9 -302.65 -65.65 -304.5 -46.0 -304.5 -45.15 -306.15 -27.9 -307.65 -25.75 -313.75 -15.25 -316.65 -17.0 -316.65 -17.65 -316.9 -19.9 -316.65 -20.65 -317.25 -39.75 -313.15 -85.9 -316.0 -104.75" fill="#bd0000" fill-rule="evenodd" stroke="none"/>
    <path d="M-323.25 -135.9 L-320.15 -132.5 -319.75 -131.9 -318.4 -122.75 -318.25 -122.4 -318.25 -122.0 -318.15 -121.5 -318.15 -121.25 -318.0 -120.65 -318.0 -120.5 -317.9 -119.9 -317.9 -119.75 -316.0 -104.75 -323.25 -135.9 M-316.9 -19.9 L-316.65 -17.65 -316.65 -17.0 -324.5 -0.9 -328.9 -0.9 -316.9 -19.9" fill="#fd0000" fill-rule="evenodd" stroke="none"/>
    <path d="M-198.0 -88.4 L-198.25 -88.15 -198.5 -88.25 -198.0 -89.5 -197.75 -91.75 -188.5 -128.15 -188.4 -128.65 -188.25 -128.4 -188.5 -128.15 -188.4 -127.75 -190.4 -117.4 -192.0 -110.25 -198.0 -89.5 -197.9 -89.15 -198.0 -88.4" fill="#f30000" fill-rule="evenodd" stroke="none"/>
    <path d="M-217.5 -128.4 L-224.25 -110.75 -224.4 -109.9 -235.0 -82.75 -236.15 -79.0 -236.0 -78.5 -237.75 -57.5 -237.65 -57.0 -239.25 -36.0 -239.15 -35.75 -239.65 -31.25 -242.25 -18.25 -242.15 -17.9 -242.65 -16.15 -242.5 -15.9 -243.15 -13.4 -243.15 -12.15 -244.0 -8.4 -248.75 -8.4 -249.0 -8.25 -263.15 -8.15 -301.9 -12.5 -303.15 -12.75 -310.15 -13.5 -311.4 -14.0 -312.9 -14.9 -313.75 -15.25 -307.65 -25.75 -306.15 -27.9 -304.5 -45.15 -304.5 -46.0 -302.65 -65.65 -302.65 -66.9 -300.9 -87.15 -300.9 -87.65 -303.65 -110.0 -307.75 -130.75 -312.15 -132.5 -311.65 -132.5 -311.4 -132.65 -308.65 -132.75 -308.5 -132.9 -308.4 -132.75 -304.25 -132.75 -303.65 -132.65 -303.0 -132.65 -300.65 -132.4 -300.65 -132.0 -297.9 -132.15 -297.65 -132.0 -289.15 -131.25 -241.65 -129.75 -217.5 -128.4" fill="#a70000" fill-opacity="0.9098039" fill-rule="evenodd" stroke="none"/>
    <path d="M-324.5 -0.9 L-316.65 -17.0 -313.75 -15.25 -321.15 -2.5 -321.15 -2.4 -321.4 -2.0 -321.5 -1.9 -321.75 -1.5 -322.0 -0.9 -324.5 -0.9" fill="#bb0000" fill-rule="evenodd" stroke="none"/>
    <path d="M-244.0 -8.4 L-236.4 -9.4 -236.25 -9.5 -226.75 -10.75 -226.65 -10.75 -219.0 -12.0 -214.25 -13.15 -213.9 -13.15 -209.5 -15.0 -209.15 -15.25 -209.0 -15.0 -208.75 -14.25 -206.0 -0.9 -241.9 -0.9 -244.0 -8.4" fill="#d20000" fill-opacity="0.9098039" fill-rule="evenodd" stroke="none"/>
    <path d="M-209.15 -15.25 L-210.0 -18.75 -210.0 -18.9 -205.9 -17.25 -209.15 -15.25" fill="#ef0000" fill-rule="evenodd" stroke="none"/>
    <path d="M-208.75 -14.25 L-209.0 -15.0 -209.15 -15.25 -205.9 -17.25 -201.9 -0.9 -203.65 -0.9 -207.15 -9.9 -207.15 -10.0 -207.65 -11.25 -207.75 -11.65 -208.75 -14.25" fill="#fa0000" fill-rule="evenodd" stroke="none"/>
    <path d="M-203.65 -0.9 L-204.15 -0.9 -207.15 -9.9 -203.65 -0.9" fill="#e90000" fill-rule="evenodd" stroke="none"/>
    <path d="M-206.0 -0.9 L-208.75 -14.25 -207.75 -11.65 -207.65 -11.25 -207.15 -10.0 -207.15 -9.9 -204.15 -0.9 -206.0 -0.9" fill="#e40000" fill-rule="evenodd" stroke="none"/>
    <path d="M-313.75 -15.25 L-312.9 -14.9 -311.4 -14.0 -310.15 -13.5 -303.15 -12.75 -301.9 -12.5 -263.15 -8.15 -249.0 -8.25 -248.75 -8.4 -244.0 -8.4 -241.9 -0.9 -322.0 -0.9 -321.75 -1.5 -321.5 -1.9 -321.4 -2.0 -321.15 -2.4 -321.15 -2.5 -313.75 -15.25" fill="#a50000" fill-opacity="0.9098039" fill-rule="evenodd" stroke="none"/>
  </g>
  <defs>
    <radialGradient cx="0" cy="0" gradientTransform="matrix(0.1884, 0.0, 0.0, 0.1884, -179.05, -295.3)" gradientUnits="userSpaceOnUse" id="gradient0" r="819.2" spreadMethod="pad">
      <stop offset="0.0" stop-color="#5b5b5b"/>
      <stop offset="1.0" stop-color="#1a1a1a"/>
    </radialGradient>
    <radialGradient cx="0" cy="0" gradientTransform="matrix(0.0938, 0.0, 0.0, 0.0938, -243.85, -277.15)" gradientUnits="userSpaceOnUse" id="gradient1" r="819.2" spreadMethod="pad">
      <stop offset="0.0" stop-color="#7d7d7d"/>
      <stop offset="1.0" stop-color="#080808"/>
    </radialGradient>
    <radialGradient cx="0" cy="0" gradientTransform="matrix(0.0419, 0.0, 0.0, 0.0419, -264.0, -254.7)" gradientUnits="userSpaceOnUse" id="gradient2" r="819.2" spreadMethod="pad">
      <stop offset="0.0" stop-color="#1a1a1a"/>
      <stop offset="1.0" stop-color="#000000"/>
    </radialGradient>
    <radialGradient cx="0" cy="0" gradientTransform="matrix(0.0208, 0.0, 0.0, 0.0208, -242.45, -264.1)" gradientUnits="userSpaceOnUse" id="gradient3" r="819.2" spreadMethod="pad">
      <stop offset="0.0" stop-color="#797979"/>
      <stop offset="1.0" stop-color="#000000"/>
    </radialGradient>
    <radialGradient cx="0" cy="0" gradientTransform="matrix(0.2969, 0.0, 0.0, 0.2969, -225.05, -251.75)" gradientUnits="userSpaceOnUse" id="gradient4" r="819.2" spreadMethod="pad">
      <stop offset="0.0" stop-color="#101010"/>
      <stop offset="1.0" stop-color="#000000"/>
    </radialGradient>
    <radialGradient cx="0" cy="0" gradientTransform="matrix(0.0525, 0.0, 0.0, 0.0525, -163.5, -266.85)" gradientUnits="userSpaceOnUse" id="gradient5" r="819.2" spreadMethod="pad">
      <stop offset="0.0" stop-color="#414141"/>
      <stop offset="1.0" stop-color="#282828"/>
    </radialGradient>
    <radialGradient cx="0" cy="0" gradientTransform="matrix(0.04, 0.0, 0.0, 0.04, -331.15, -300.0)" gradientUnits="userSpaceOnUse" id="gradient6" r="819.2" spreadMethod="pad">
      <stop offset="0.0" stop-color="#333333"/>
      <stop offset="1.0" stop-color="#2d2d2d"/>
    </radialGradient>
    <radialGradient cx="0" cy="0" gradientTransform="matrix(0.1582, 0.0, 0.0, 0.1582, -295.9, -130.3)" gradientUnits="userSpaceOnUse" id="gradient7" r="819.2" spreadMethod="pad">
      <stop offset="0.0" stop-color="#6a6a6a"/>
      <stop offset="1.0" stop-color="#000000"/>
    </radialGradient>
    <radialGradient cx="0" cy="0" gradientTransform="matrix(0.0408, 0.0, 0.0, 0.0408, -233.85, -245.8)" gradientUnits="userSpaceOnUse" id="gradient8" r="819.2" spreadMethod="pad">
      <stop offset="0.0" stop-color="#000000"/>
      <stop offset="1.0" stop-color="#000000"/>
    </radialGradient>
    <radialGradient cx="0" cy="0" gradientTransform="matrix(0.0345, 0.0, 0.0, 0.0345, -225.15, -247.85)" gradientUnits="userSpaceOnUse" id="gradient9" r="819.2" spreadMethod="pad">
      <stop offset="0.0" stop-color="#7b7b7b"/>
      <stop offset="1.0" stop-color="#090909"/>
    </radialGradient>
    <radialGradient cx="0" cy="0" gradientTransform="matrix(0.0188, 0.0, 0.0, 0.0188, -1.6, -269.95)" gradientUnits="userSpaceOnUse" id="gradient10" r="819.2" spreadMethod="pad">
      <stop offset="0.0" stop-color="#171717"/>
      <stop offset="1.0" stop-color="#171717"/>
    </radialGradient>
    <radialGradient cx="0" cy="0" gradientTransform="matrix(0.0175, 0.0, 0.0, 0.0175, -3.5, -269.25)" gradientUnits="userSpaceOnUse" id="gradient11" r="819.2" spreadMethod="pad">
      <stop offset="0.0" stop-color="#040404"/>
      <stop offset="1.0" stop-color="#040404"/>
    </radialGradient>
    <radialGradient cx="0" cy="0" gradientTransform="matrix(0.0182, 0.0, 0.0, 0.0182, -3.45, -254.65)" gradientUnits="userSpaceOnUse" id="gradient12" r="819.2" spreadMethod="pad">
      <stop offset="0.0" stop-color="#020202"/>
      <stop offset="1.0" stop-color="#020202"/>
    </radialGradient>
    <radialGradient cx="0" cy="0" gradientTransform="matrix(0.0079, 0.0, 0.0, 0.0079, -5.95, -265.5)" gradientUnits="userSpaceOnUse" id="gradient13" r="819.2" spreadMethod="pad">
      <stop offset="0.0" stop-color="#171717"/>
      <stop offset="1.0" stop-color="#171717"/>
    </radialGradient>
    <radialGradient cx="0" cy="0" gradientTransform="matrix(0.0151, 0.0, 0.0, 0.0151, -12.55, -265.35)" gradientUnits="userSpaceOnUse" id="gradient14" r="819.2" spreadMethod="pad">
      <stop offset="0.0" stop-color="#222222"/>
      <stop offset="1.0" stop-color="#171717"/>
    </radialGradient>
    <radialGradient cx="0" cy="0" gradientTransform="matrix(0.0163, 0.0, 0.0, 0.0163, -3.5, -249.0)" gradientUnits="userSpaceOnUse" id="gradient15" r="819.2" spreadMethod="pad">
      <stop offset="0.0" stop-color="#040404"/>
      <stop offset="1.0" stop-color="#040404"/>
    </radialGradient>
    <radialGradient cx="0" cy="0" gradientTransform="matrix(0.003, 0.0, 0.0, 0.003, -2.45, -254.8)" gradientUnits="userSpaceOnUse" id="gradient16" r="819.2" spreadMethod="pad">
      <stop offset="0.0" stop-color="#171717"/>
      <stop offset="1.0" stop-color="#171717"/>
    </radialGradient>
    <radialGradient cx="0" cy="0" gradientTransform="matrix(0.0167, 0.0, 0.0, 0.0167, -3.45, -254.65)" gradientUnits="userSpaceOnUse" id="gradient17" r="819.2" spreadMethod="pad">
      <stop offset="0.0" stop-color="#1f1f1f"/>
      <stop offset="1.0" stop-color="#1f1f1f"/>
    </radialGradient>
    <radialGradient cx="0" cy="0" gradientTransform="matrix(0.0155, 0.0, 0.0, 0.0155, -3.7, -249.25)" gradientUnits="userSpaceOnUse" id="gradient18" r="819.2" spreadMethod="pad">
      <stop offset="0.0" stop-color="#030303"/>
      <stop offset="1.0" stop-color="#030303"/>
    </radialGradient>
    <radialGradient cx="0" cy="0" gradientTransform="matrix(0.0154, 0.0, 0.0, 0.0154, -14.8, -243.2)" gradientUnits="userSpaceOnUse" id="gradient19" r="819.2" spreadMethod="pad">
      <stop offset="0.0" stop-color="#030303"/>
      <stop offset="1.0" stop-color="#030303"/>
    </radialGradient>
    <radialGradient cx="0" cy="0" gradientTransform="matrix(0.0151, 0.0, 0.0, 0.0151, -15.3, -243.1)" gradientUnits="userSpaceOnUse" id="gradient20" r="819.2" spreadMethod="pad">
      <stop offset="0.0" stop-color="#040404"/>
      <stop offset="1.0" stop-color="#040404"/>
    </radialGradient>
    <radialGradient cx="0" cy="0" gradientTransform="matrix(0.0041, 0.0, 0.0, 0.0041, -3.75, -246.85)" gradientUnits="userSpaceOnUse" id="gradient21" r="819.2" spreadMethod="pad">
      <stop offset="0.0" stop-color="#040404"/>
      <stop offset="1.0" stop-color="#040404"/>
    </radialGradient>
    <radialGradient cx="0" cy="0" gradientTransform="matrix(0.3045, 0.0, 0.0, 0.3045, -224.9, -258.0)" gradientUnits="userSpaceOnUse" id="gradient22" r="819.2" spreadMethod="pad">
      <stop offset="0.0" stop-color="#1a1a1a"/>
      <stop offset="1.0" stop-color="#0b0b0b"/>
    </radialGradient>
    <radialGradient cx="0" cy="0" gradientTransform="matrix(0.0784, 0.0, 0.0, 0.0784, -189.9, -194.25)" gradientUnits="userSpaceOnUse" id="gradient23" r="819.2" spreadMethod="pad">
      <stop offset="0.0" stop-color="#595959"/>
      <stop offset="1.0" stop-color="#000000"/>
    </radialGradient>
    <radialGradient cx="0" cy="0" gradientTransform="matrix(0.1212, 0.0, 0.0, 0.1212, -285.3, -160.85)" gradientUnits="userSpaceOnUse" id="gradient24" r="819.2" spreadMethod="pad">
      <stop offset="0.0" stop-color="#010101"/>
      <stop offset="1.0" stop-color="#000000"/>
    </radialGradient>
    <radialGradient cx="0" cy="0" gradientTransform="matrix(0.1136, 0.0, 0.0, 0.1136, -196.25, -156.9)" gradientUnits="userSpaceOnUse" id="gradient25" r="819.2" spreadMethod="pad">
      <stop offset="0.0" stop-color="#3f3f3f"/>
      <stop offset="1.0" stop-color="#000000"/>
    </radialGradient>
    <radialGradient cx="0" cy="0" gradientTransform="matrix(0.0885, 0.0, 0.0, 0.0885, -257.3, -139.45)" gradientUnits="userSpaceOnUse" id="gradient26" r="819.2" spreadMethod="pad">
      <stop offset="0.0" stop-color="#878787"/>
      <stop offset="1.0" stop-color="#000000"/>
    </radialGradient>
    <radialGradient cx="0" cy="0" gradientTransform="matrix(0.1506, 0.0, 0.0, 0.1506, -295.9, -130.3)" gradientUnits="userSpaceOnUse" id="gradient27" r="819.2" spreadMethod="pad">
      <stop offset="0.0" stop-color="#6a6a6a"/>
      <stop offset="1.0" stop-color="#000000"/>
    </radialGradient>
    <radialGradient cx="0" cy="0" gradientTransform="matrix(0.0858, 0.0, 0.0, 0.0858, -309.65, -143.45)" gradientUnits="userSpaceOnUse" id="gradient28" r="819.2" spreadMethod="pad">
      <stop offset="0.0" stop-color="#858585"/>
      <stop offset="1.0" stop-color="#000000"/>
    </radialGradient>
    <radialGradient cx="0" cy="0" gradientTransform="matrix(0.0758, 0.0, 0.0, 0.0758, -303.3, -186.75)" gradientUnits="userSpaceOnUse" id="gradient29" r="819.2" spreadMethod="pad">
      <stop offset="0.0" stop-color="#171717"/>
      <stop offset="1.0" stop-color="#000000"/>
    </radialGradient>
    <radialGradient cx="0" cy="0" gradientTransform="matrix(0.0485, 0.0, 0.0, 0.0485, -275.65, -242.35)" gradientUnits="userSpaceOnUse" id="gradient30" r="819.2" spreadMethod="pad">
      <stop offset="0.0" stop-color="#000000"/>
      <stop offset="1.0" stop-color="#000000"/>
    </radialGradient>
    <radialGradient cx="0" cy="0" gradientTransform="matrix(0.0471, 0.0, 0.0, 0.0471, -193.7, -236.35)" gradientUnits="userSpaceOnUse" id="gradient31" r="819.2" spreadMethod="pad">
      <stop offset="0.0" stop-color="#000000"/>
      <stop offset="1.0" stop-color="#000000"/>
    </radialGradient>
    <radialGradient cx="0" cy="0" gradientTransform="matrix(0.0188, 0.0, 0.0, 0.0188, -191.3, -221.15)" gradientUnits="userSpaceOnUse" id="gradient32" r="819.2" spreadMethod="pad">
      <stop offset="0.0" stop-color="#000000"/>
      <stop offset="1.0" stop-color="#000000"/>
    </radialGradient>
    <radialGradient cx="0" cy="0" gradientTransform="matrix(0.0943, 0.0, 0.0, 0.0943, -169.6, -188.95)" gradientUnits="userSpaceOnUse" id="gradient33" r="819.2" spreadMethod="pad">
      <stop offset="0.0" stop-color="#616161"/>
      <stop offset="1.0" stop-color="#000000"/>
    </radialGradient>
    <radialGradient cx="0" cy="0" gradientTransform="matrix(0.0558, 0.0, 0.0, 0.0558, -303.3, -186.75)" gradientUnits="userSpaceOnUse" id="gradient34" r="819.2" spreadMethod="pad">
      <stop offset="0.0" stop-color="#171717"/>
      <stop offset="1.0" stop-color="#000000"/>
    </radialGradient>
    <radialGradient cx="0" cy="0" gradientTransform="matrix(0.077, 0.0, 0.0, 0.077, -147.65, -208.8)" gradientUnits="userSpaceOnUse" id="gradient35" r="819.2" spreadMethod="pad">
      <stop offset="0.0" stop-color="#000000"/>
      <stop offset="1.0" stop-color="#000000"/>
    </radialGradient>
    <radialGradient cx="0" cy="0" gradientTransform="matrix(0.0753, 0.0, 0.0, 0.0753, -56.7, -153.35)" gradientUnits="userSpaceOnUse" id="gradient36" r="819.2" spreadMethod="pad">
      <stop offset="0.0" stop-color="#161616"/>
      <stop offset="1.0" stop-color="#000000"/>
    </radialGradient>
    <radialGradient cx="0" cy="0" gradientTransform="matrix(0.0317, 0.0, 0.0, 0.0317, -92.45, -184.5)" gradientUnits="userSpaceOnUse" id="gradient37" r="819.2" spreadMethod="pad">
      <stop offset="0.0" stop-color="#000000"/>
      <stop offset="1.0" stop-color="#000000"/>
    </radialGradient>
    <radialGradient cx="0" cy="0" gradientTransform="matrix(0.0652, 0.0, 0.0, 0.0652, -45.65, -195.75)" gradientUnits="userSpaceOnUse" id="gradient38" r="819.2" spreadMethod="pad">
      <stop offset="0.0" stop-color="#000000"/>
      <stop offset="1.0" stop-color="#000000"/>
    </radialGradient>
    <radialGradient cx="0" cy="0" gradientTransform="matrix(0.0611, 0.0, 0.0, 0.0611, -45.65, -195.75)" gradientUnits="userSpaceOnUse" id="gradient39" r="819.2" spreadMethod="pad">
      <stop offset="0.0" stop-color="#000000"/>
      <stop offset="1.0" stop-color="#000000"/>
    </radialGradient>
    <radialGradient cx="0" cy="0" gradientTransform="matrix(0.0283, 0.0, 0.0, 0.0283, -45.65, -195.75)" gradientUnits="userSpaceOnUse" id="gradient40" r="819.2" spreadMethod="pad">
      <stop offset="0.0" stop-color="#000000"/>
      <stop offset="1.0" stop-color="#000000"/>
    </radialGradient>
    <radialGradient cx="0" cy="0" gradientTransform="matrix(0.093, 0.0, 0.0, 0.093, -351.05, -158.4)" gradientUnits="userSpaceOnUse" id="gradient41" r="819.2" spreadMethod="pad">
      <stop offset="0.0" stop-color="#6a6a6a"/>
      <stop offset="1.0" stop-color="#000000"/>
    </radialGradient>
    <radialGradient cx="0" cy="0" gradientTransform="matrix(0.0322, 0.0, 0.0, 0.0322, -309.65, -225.85)" gradientUnits="userSpaceOnUse" id="gradient42" r="819.2" spreadMethod="pad">
      <stop offset="0.0" stop-color="#0d0d0d"/>
      <stop offset="1.0" stop-color="#000000"/>
    </radialGradient>
    <radialGradient cx="0" cy="0" gradientTransform="matrix(0.0885, 0.0, 0.0, 0.0885, -368.7, -183.65)" gradientUnits="userSpaceOnUse" id="gradient43" r="819.2" spreadMethod="pad">
      <stop offset="0.0" stop-color="#0f0f0f"/>
      <stop offset="1.0" stop-color="#040404"/>
    </radialGradient>
    <radialGradient cx="0" cy="0" gradientTransform="matrix(0.0266, 0.0, 0.0, 0.0266, -189.9, -194.25)" gradientUnits="userSpaceOnUse" id="gradient44" r="819.2" spreadMethod="pad">
      <stop offset="0.0" stop-color="#595959"/>
      <stop offset="1.0" stop-color="#000000"/>
    </radialGradient>
    <radialGradient cx="0" cy="0" gradientTransform="matrix(0.0441, 0.0, 0.0, 0.0441, -56.7, -153.35)" gradientUnits="userSpaceOnUse" id="gradient45" r="819.2" spreadMethod="pad">
      <stop offset="0.0" stop-color="#161616"/>
      <stop offset="1.0" stop-color="#000000"/>
    </radialGradient>
    <radialGradient cx="0" cy="0" gradientTransform="matrix(0.0665, 0.0, 0.0, 0.0665, -388.95, -110.1)" gradientUnits="userSpaceOnUse" id="gradient46" r="819.2" spreadMethod="pad">
      <stop offset="0.0" stop-color="#393939"/>
      <stop offset="1.0" stop-color="#000000"/>
    </radialGradient>
    <radialGradient cx="0" cy="0" gradientTransform="matrix(0.0919, 0.0, 0.0, 0.0919, -356.6, -64.1)" gradientUnits="userSpaceOnUse" id="gradient47" r="819.2" spreadMethod="pad">
      <stop offset="0.0" stop-color="#505050"/>
      <stop offset="1.0" stop-color="#2b2b2b"/>
    </radialGradient>
    <radialGradient cx="0" cy="0" gradientTransform="matrix(0.038, 0.0, 0.0, 0.038, -318.0, -53.5)" gradientUnits="userSpaceOnUse" id="gradient48" r="819.2" spreadMethod="pad">
      <stop offset="0.0" stop-color="#858585"/>
      <stop offset="1.0" stop-color="#2c2c2c"/>
    </radialGradient>
    <radialGradient cx="0" cy="0" gradientTransform="matrix(0.0686, 0.0, 0.0, 0.0686, -356.6, -64.1)" gradientUnits="userSpaceOnUse" id="gradient49" r="819.2" spreadMethod="pad">
      <stop offset="0.0" stop-color="#505050"/>
      <stop offset="1.0" stop-color="#131313"/>
    </radialGradient>
    <radialGradient cx="0" cy="0" gradientTransform="matrix(0.0612, 0.0, 0.0, 0.0612, -330.25, -76.25)" gradientUnits="userSpaceOnUse" id="gradient50" r="819.2" spreadMethod="pad">
      <stop offset="0.0" stop-color="#3a3a3a"/>
      <stop offset="1.0" stop-color="#0c0c0c"/>
    </radialGradient>
    <radialGradient cx="0" cy="0" gradientTransform="matrix(0.0282, 0.0, 0.0, 0.0282, -352.95, -106.85)" gradientUnits="userSpaceOnUse" id="gradient51" r="819.2" spreadMethod="pad">
      <stop offset="0.0" stop-color="#292929"/>
      <stop offset="1.0" stop-color="#000000"/>
    </radialGradient>
    <radialGradient cx="0" cy="0" gradientTransform="matrix(0.0461, 0.0, 0.0, 0.0461, -352.95, -106.85)" gradientUnits="userSpaceOnUse" id="gradient52" r="819.2" spreadMethod="pad">
      <stop offset="0.0" stop-color="#292929"/>
      <stop offset="1.0" stop-color="#010101"/>
    </radialGradient>
    <radialGradient cx="0" cy="0" gradientTransform="matrix(0.0496, 0.0, 0.0, 0.0496, -352.95, -106.85)" gradientUnits="userSpaceOnUse" id="gradient53" r="819.2" spreadMethod="pad">
      <stop offset="0.0" stop-color="#292929"/>
      <stop offset="1.0" stop-color="#000000"/>
    </radialGradient>
    <radialGradient cx="0" cy="0" gradientTransform="matrix(0.0646, 0.0, 0.0, 0.0646, -299.5, -88.15)" gradientUnits="userSpaceOnUse" id="gradient54" r="819.2" spreadMethod="pad">
      <stop offset="0.0" stop-color="#838383"/>
      <stop offset="1.0" stop-color="#626262"/>
    </radialGradient>
    <radialGradient cx="0" cy="0" gradientTransform="matrix(0.1351, 0.0, 0.0, 0.1351, -211.25, -25.1)" gradientUnits="userSpaceOnUse" id="gradient55" r="819.2" spreadMethod="pad">
      <stop offset="0.0" stop-color="#666666"/>
      <stop offset="1.0" stop-color="#0e0e0e"/>
    </radialGradient>
    <radialGradient cx="0" cy="0" gradientTransform="matrix(0.03, 0.0, 0.0, 0.03, -211.25, -25.1)" gradientUnits="userSpaceOnUse" id="gradient56" r="819.2" spreadMethod="pad">
      <stop offset="0.0" stop-color="#666666"/>
      <stop offset="1.0" stop-color="#5e5e5e"/>
    </radialGradient>
    <radialGradient cx="0" cy="0" gradientTransform="matrix(0.0509, 0.0, 0.0, 0.0509, -206.5, -1.0)" gradientUnits="userSpaceOnUse" id="gradient57" r="819.2" spreadMethod="pad">
      <stop offset="0.0" stop-color="#4c4c4c"/>
      <stop offset="1.0" stop-color="#080808"/>
    </radialGradient>
    <radialGradient cx="0" cy="0" gradientTransform="matrix(0.0392, 0.0, 0.0, 0.0392, -317.3, -1.0)" gradientUnits="userSpaceOnUse" id="gradient58" r="819.2" spreadMethod="pad">
      <stop offset="0.0" stop-color="#3e3e3e"/>
      <stop offset="1.0" stop-color="#1a1a1a"/>
    </radialGradient>
    <radialGradient cx="0" cy="0" gradientTransform="matrix(0.0941, 0.0, 0.0, 0.0941, -317.3, -1.0)" gradientUnits="userSpaceOnUse" id="gradient59" r="819.2" spreadMethod="pad">
      <stop offset="0.0" stop-color="#3e3e3e"/>
      <stop offset="1.0" stop-color="#000000"/>
    </radialGradient>
    <radialGradient cx="0" cy="0" gradientTransform="matrix(0.0206, 0.0, 0.0, 0.0206, -321.8, -66.9)" gradientUnits="userSpaceOnUse" id="gradient60" r="819.2" spreadMethod="pad">
      <stop offset="0.0" stop-color="#373737"/>
      <stop offset="1.0" stop-color="#0c0c0c"/>
    </radialGradient>
  </defs>
</svg>
