<?xml version="1.0" encoding="UTF-8" standalone="no"?>
<svg xmlns:xlink="http://www.w3.org/1999/xlink" height="299.1px" width="399.1px" xmlns="http://www.w3.org/2000/svg">
  <g transform="matrix(1.0, 0.0, 0.0, 1.0, 400.0, 300.0)">
    <path d="M-274.0 -243.25 Q-279.65 -242.5 -280.15 -243.25 L-304.9 -256.25 -313.9 -269.25 -314.25 -268.25 -314.65 -268.4 -319.75 -274.65 -324.65 -283.4 -330.25 -300.0 -312.75 -300.0 -308.0 -289.0 -299.15 -276.65 -296.0 -273.0 -295.75 -272.75 -294.4 -271.0 -282.4 -259.9 -271.75 -253.9 -263.75 -250.4 -267.4 -247.65 -272.25 -245.65 -274.0 -243.25 M-183.4 -246.25 Q-188.25 -245.75 -189.65 -247.0 L-201.65 -239.25 Q-204.4 -242.4 -205.15 -242.0 L-218.5 -240.25 -219.15 -240.25 -219.25 -240.25 -223.5 -241.0 -223.75 -241.0 -224.75 -246.75 -223.15 -246.9 -205.0 -252.9 -202.5 -254.15 -193.4 -260.15 -187.65 -265.65 -186.5 -266.25 -176.65 -276.65 -174.15 -276.75 -176.5 -265.0 -176.9 -264.5 -177.15 -262.0 -181.15 -254.0 -183.4 -246.25" fill="url(#gradient0)" fill-rule="evenodd" stroke="none"/>
    <path d="M-312.75 -300.0 L-190.25 -300.0 -184.5 -276.25 -176.65 -276.65 -186.5 -266.25 -187.65 -265.65 -193.4 -260.15 -202.5 -254.15 -205.0 -252.9 -223.15 -246.9 -224.75 -246.75 -225.0 -248.75 -224.9 -249.25 Q-224.75 -250.0 -227.5 -252.0 L-230.9 -253.25 -235.5 -255.25 -236.0 -255.15 -235.0 -253.9 -241.5 -255.9 -245.15 -255.75 -251.75 -256.25 -256.65 -255.65 -260.65 -255.75 Q-260.65 -255.0 -263.65 -252.9 L-263.75 -250.4 -271.75 -253.9 -282.4 -259.9 -294.4 -271.0 -295.75 -272.75 -296.0 -273.0 -299.15 -276.65 -308.0 -289.0 -312.75 -300.0 M-179.75 -294.75 L-169.5 -289.25 -184.0 -276.65 -184.25 -276.75 -179.75 -294.75" fill="url(#gradient1)" fill-rule="evenodd" stroke="none"/>
    <path d="M-231.9 -249.65 L-232.0 -248.0 -233.4 -245.15 -232.9 -244.9 -231.0 -242.4 -242.4 -246.25 -272.25 -245.65 -267.4 -247.65 -263.75 -250.4 -263.65 -252.9 Q-260.65 -255.0 -260.65 -255.75 L-256.65 -255.65 -251.75 -256.25 -245.15 -255.75 -241.5 -255.9 -235.0 -253.9 -231.9 -249.65" fill="url(#gradient2)" fill-rule="evenodd" stroke="none"/>
    <path d="M-235.0 -253.9 L-236.0 -255.15 -235.5 -255.25 -230.9 -253.25 -231.9 -249.65 -235.0 -253.9" fill="url(#gradient3)" fill-rule="evenodd" stroke="none"/>
    <path d="M-230.9 -253.25 L-227.5 -252.0 Q-224.75 -250.0 -224.9 -249.25 L-225.0 -248.75 -225.15 -247.25 -226.65 -248.75 -226.9 -248.65 Q-225.15 -242.75 -226.5 -242.0 L-231.0 -244.15 -232.0 -248.0 -231.9 -249.65 -230.9 -253.25" fill="url(#gradient4)" fill-rule="evenodd" stroke="none"/>
    <path d="M-190.25 -300.0 L-146.5 -300.0 -147.5 -295.9 -154.5 -279.15 -163.75 -266.0 -170.15 -258.4 -183.4 -246.25 -181.15 -254.0 -177.15 -262.0 -176.9 -264.5 -176.5 -265.0 -174.15 -276.75 -176.65 -276.65 -184.5 -276.25 -190.25 -300.0 M-179.75 -294.75 L-184.25 -276.75 -184.0 -276.65 -169.5 -289.25 -179.75 -294.75" fill="url(#gradient5)" fill-rule="evenodd" stroke="none"/>
    <path d="M-319.75 -274.65 Q-317.9 -271.65 -318.25 -271.0 L-323.65 -279.5 -331.65 -296.5 -332.65 -300.0 -330.25 -300.0 -324.65 -283.4 -319.75 -274.65" fill="url(#gradient6)" fill-rule="evenodd" stroke="none"/>
    <path d="M-275.25 -241.5 L-275.15 -241.75 -274.0 -243.25 -272.25 -245.65 -242.4 -246.25 -231.0 -242.4 -230.75 -241.9 -230.9 -241.9 -231.65 -241.75 -230.15 -240.4 -218.15 -208.0 -218.15 -199.25 Q-230.4 -210.4 -252.25 -206.25 -269.75 -201.75 -275.25 -187.4 L-275.65 -181.65 Q-277.15 -181.0 -278.75 -171.4 L-278.0 -162.65 -275.4 -156.4 -275.15 -153.5 -272.65 -146.5 -267.0 -139.25 -263.75 -136.75 -252.75 -133.0 -244.4 -128.65 -242.4 -128.15 -292.0 -130.4 -300.65 -130.0 -299.25 -132.5 -299.5 -135.65 -297.4 -137.0 Q-296.75 -140.15 -292.25 -142.9 L-288.65 -149.15 -287.75 -156.65 -282.5 -165.15 -280.5 -173.5 -281.25 -181.9 -277.65 -187.25 -277.0 -189.0 -276.5 -195.5 -278.25 -201.4 -282.15 -205.9 Q-287.0 -207.65 -286.75 -208.75 L-289.9 -209.75 -292.65 -209.9 -297.4 -209.4 -276.75 -239.25 -275.5 -239.4 Q-275.0 -240.2 -274.9 -241.15 L-275.25 -241.15 -275.4 -241.25 -275.25 -241.5 M-224.9 -130.0 L-225.25 -127.65 -230.9 -127.9 -226.75 -129.0 -224.9 -130.0 M-303.4 -129.75 L-304.75 -129.65 -305.25 -130.5 -303.4 -129.75" fill="url(#gradient7)" fill-rule="evenodd" stroke="none"/>
    <path d="M-226.5 -242.0 L-225.65 -241.4 -226.0 -241.4 -226.4 -241.5 -230.75 -241.9 -231.0 -242.4 -232.9 -244.9 -231.0 -244.15 -226.5 -242.0" fill="url(#gradient8)" fill-rule="evenodd" stroke="none"/>
    <path d="M-224.75 -246.75 L-223.75 -241.0 -224.15 -241.15 -224.5 -241.15 -224.9 -241.25 -225.25 -241.25 -225.65 -241.4 -226.5 -242.0 Q-225.15 -242.75 -226.9 -248.65 L-226.65 -248.75 -225.15 -247.25 -225.0 -248.75 -224.75 -246.75 M-232.9 -244.9 L-233.4 -245.15 -232.0 -248.0 -231.0 -244.15 -232.9 -244.9" fill="url(#gradient9)" fill-rule="evenodd" stroke="none"/>
    <path d="M-1.9 -272.75 L-1.25 -272.75 -0.9 -271.4 -0.9 -271.0 -1.15 -270.5 -2.65 -269.0 -2.65 -268.9 -2.9 -268.25 -3.5 -256.65 -3.65 -255.9 -3.75 -253.4 -3.75 -253.25 -4.15 -253.15 -4.75 -253.15 -4.65 -263.9 -4.9 -265.4 -4.65 -266.4 -4.9 -266.4 -4.9 -266.75 -4.9 -267.15 -4.75 -267.75 -4.65 -267.75 -4.5 -268.0 -4.4 -268.4 -4.15 -268.65 -4.0 -268.75 -4.15 -268.75 -4.0 -269.0 -3.25 -271.0 -1.9 -272.75 M-4.65 -266.4 L-4.65 -265.4 -4.5 -266.65 -4.65 -266.65 -4.65 -266.4" fill="url(#gradient10)" fill-rule="evenodd" stroke="none"/>
    <path d="M-0.9 -271.4 L-1.25 -272.75 -1.9 -272.75 -1.4 -273.75 -0.9 -273.75 -0.9 -271.4 M-4.15 -268.75 L-4.0 -268.75 -4.15 -268.65 -4.15 -268.75 M-4.9 -266.75 L-4.9 -266.4 -5.0 -266.4 -4.9 -266.75 M-3.75 -253.4 L-3.65 -255.9 -3.5 -256.65 -2.9 -268.25 -2.65 -268.9 -2.65 -269.0 -1.15 -270.5 -0.9 -271.0 -0.9 -254.15 -1.0 -254.15 -2.25 -253.75 -2.4 -253.65 -2.65 -253.65 -3.25 -253.4 -3.75 -253.4 M-13.4 -262.9 L-13.65 -263.4 -13.65 -263.65 -13.75 -263.9 -13.75 -264.25 -13.65 -264.5 -13.25 -264.75 -13.15 -265.0 -13.15 -264.5 -12.9 -264.65 -13.4 -263.65 -12.25 -265.15 -12.0 -265.0 -13.5 -263.4 -12.75 -262.5 -10.65 -263.0 -10.55 -262.75 -11.0 -262.75 -10.75 -262.4 -10.55 -262.65 -10.5 -262.4 -10.15 -262.4 -10.25 -262.75 -9.9 -263.0 -9.65 -263.25 -9.65 -263.9 -10.25 -263.5 -10.65 -264.65 -11.5 -264.65 -11.4 -265.25 -10.5 -265.15 -9.5 -264.9 -9.45 -264.7 -9.0 -264.4 -9.0 -265.0 -8.4 -265.25 -10.5 -265.15 -10.65 -265.4 -7.25 -266.5 -7.65 -266.25 -6.9 -266.25 -7.15 -266.0 -6.15 -266.0 -6.75 -266.25 -6.15 -266.5 -5.5 -266.4 -5.5 -266.25 -5.75 -265.65 -5.75 -265.15 -6.0 -264.65 -6.9 -258.0 -6.65 -257.9 -7.0 -256.5 -7.65 -257.5 -13.4 -262.9 M-12.25 -264.65 L-11.9 -264.65 -12.25 -264.25 -12.25 -264.65 M-7.25 -258.9 L-7.15 -259.15 -7.5 -259.15 -7.25 -258.9 M-8.65 -260.15 L-8.9 -260.0 -8.75 -259.5 -8.5 -259.75 -8.15 -259.25 -7.5 -259.65 -8.25 -259.85 -8.75 -259.75 -8.65 -260.15 M-6.25 -265.0 L-6.15 -265.25 -6.75 -265.15 -6.25 -265.0 M-8.65 -265.75 L-8.25 -265.75 -7.4 -266.15 -8.5 -266.0 -8.65 -265.75 M-6.9 -258.0 L-7.0 -258.4 -7.15 -258.0 -6.9 -258.0 M-12.15 -262.5 L-11.5 -262.15 -11.4 -262.5 -12.15 -262.5 M-10.4 -261.5 L-10.75 -261.5 -10.4 -260.9 -10.4 -261.5" fill="url(#gradient11)" fill-rule="evenodd" stroke="none"/>
    <path d="M-4.75 -253.15 L-4.15 -253.15 -3.75 -253.25 -3.75 -253.4 -3.25 -253.4 -2.65 -253.65 -2.4 -253.65 -2.25 -253.75 -1.0 -254.15 -0.9 -254.15 -0.9 -251.15 -5.15 -251.0 -6.75 -249.0 -7.25 -248.9 -14.5 -246.65 -16.5 -245.65 -17.25 -244.75 -17.0 -243.75 -17.4 -243.65 Q-18.5 -246.75 -7.25 -253.4 L-6.5 -253.0 -5.25 -253.0 -4.75 -253.15 M-5.65 -247.4 L-6.0 -247.4 -5.25 -247.75 -3.35 -247.5 -5.65 -247.4" fill="url(#gradient12)" fill-rule="evenodd" stroke="none"/>
    <path d="M-4.75 -267.75 L-4.9 -267.15 -4.9 -266.75 -5.0 -266.4 -4.9 -266.4 -4.65 -266.4 -4.9 -265.4 -4.65 -263.9 -4.75 -253.15 -5.25 -253.0 -6.5 -253.0 -7.25 -253.4 -7.15 -254.9 -7.0 -256.5 -6.65 -257.9 -6.9 -258.0 -6.0 -264.65 -5.75 -265.15 -5.75 -265.65 -5.5 -266.25 -5.5 -266.4 -5.25 -267.25 -5.15 -267.4 -4.75 -267.75" fill="url(#gradient13)" fill-rule="evenodd" stroke="none"/>
    <path d="M-13.15 -265.0 L-12.5 -265.4 -10.65 -265.4 -10.5 -265.15 -8.4 -265.25 -9.0 -265.0 -9.0 -264.4 -9.45 -264.7 -9.5 -264.9 -10.5 -265.15 -11.4 -265.25 -11.5 -264.65 -10.65 -264.65 -10.25 -263.5 -9.65 -263.9 -9.65 -263.25 -9.9 -263.0 -10.25 -262.75 -10.15 -262.4 -10.5 -262.4 -10.55 -262.65 -10.75 -262.4 -11.0 -262.75 -10.55 -262.75 -10.65 -263.0 -12.75 -262.5 -13.5 -263.4 -12.0 -265.0 -12.25 -265.15 -13.4 -263.65 -12.9 -264.65 -13.15 -264.5 -13.15 -265.0 M-7.25 -266.5 L-7.0 -266.65 -5.4 -267.25 -5.25 -267.25 -5.5 -266.4 -6.15 -266.5 -6.75 -266.25 -6.15 -266.0 -7.15 -266.0 -6.9 -266.25 -7.65 -266.25 -7.25 -266.5 M-12.25 -264.65 L-12.25 -264.25 -11.9 -264.65 -12.25 -264.65 M-8.65 -265.75 L-8.5 -266.0 -7.4 -266.15 -8.25 -265.75 -8.65 -265.75 M-6.25 -265.0 L-6.75 -265.15 -6.15 -265.25 -6.25 -265.0 M-8.65 -260.15 L-8.75 -259.75 -8.25 -259.85 -7.5 -259.65 -8.15 -259.25 -8.5 -259.75 -8.75 -259.5 -8.9 -260.0 -8.65 -260.15 M-7.25 -258.9 L-7.5 -259.15 -7.15 -259.15 -7.25 -258.9 M-6.9 -258.0 L-7.15 -258.0 -7.0 -258.4 -6.9 -258.0 M-10.4 -261.5 L-10.4 -260.9 -10.75 -261.5 -10.4 -261.5 M-12.15 -262.5 L-11.4 -262.5 -11.5 -262.15 -12.15 -262.5" fill="url(#gradient14)" fill-rule="evenodd" stroke="none"/>
    <path d="M-7.0 -256.5 L-7.15 -254.9 -12.9 -260.65 -13.4 -262.9 -7.65 -257.5 -7.0 -256.5" fill="url(#gradient15)" fill-rule="evenodd" stroke="none"/>
    <path d="M-4.65 -266.4 L-4.65 -266.65 -4.5 -266.65 -4.65 -265.4 -4.65 -266.4" fill="url(#gradient16)" fill-rule="evenodd" stroke="none"/>
    <path d="M-17.0 -243.75 L-17.25 -244.75 -16.5 -245.65 -14.5 -246.65 -7.25 -248.9 -6.75 -249.0 -5.15 -251.0 -0.9 -251.15 -0.9 -247.15 -3.15 -247.5 -3.35 -247.5 -5.25 -247.75 -6.0 -247.4 -6.15 -247.4 -6.5 -247.25 -6.9 -247.15 -7.25 -247.0 -7.65 -246.9 -8.0 -246.75 -8.4 -246.65 -8.75 -246.5 -9.25 -246.4 -9.4 -246.25 -13.4 -244.9 -17.0 -243.75" fill="url(#gradient17)" fill-rule="evenodd" stroke="none"/>
    <path d="M-5.15 -245.5 L-12.75 -243.0 -13.4 -244.9 -9.4 -246.25 -9.25 -246.4 -8.75 -246.5 -8.4 -246.65 -8.0 -246.75 -7.65 -246.9 -7.25 -247.0 -6.9 -247.15 -6.5 -247.25 -6.15 -247.4 -6.0 -247.4 -5.65 -247.4 -5.25 -247.0 -5.15 -245.5 M-16.25 -241.9 L-16.65 -241.75 -17.4 -243.65 -17.0 -243.75 -16.25 -241.9" fill="url(#gradient18)" fill-rule="evenodd" stroke="none"/>
    <path d="M-12.75 -243.0 L-16.25 -241.9 -17.0 -243.75 -13.4 -244.9 -12.75 -243.0" fill="url(#gradient19)" fill-rule="evenodd" stroke="none"/>
    <path d="M-0.9 -247.15 L-1.0 -245.25 -5.15 -245.5 -5.25 -247.0 -5.65 -247.4 -3.35 -247.5 -3.15 -247.5 -0.9 -247.15" fill="url(#gradient20)" fill-rule="evenodd" stroke="none"/>
    <path d="M-194.4 -176.65 L-197.25 -133.9 Q-202.15 -136.0 -202.75 -135.25 L-225.25 -127.65 -224.9 -130.0 -221.4 -131.0 -215.4 -134.9 -210.15 -140.75 -209.4 -142.4 -204.65 -147.4 -201.65 -153.5 -200.25 -160.75 Q-198.15 -170.75 -205.15 -185.0 -212.4 -198.5 -218.15 -199.25 L-218.15 -208.0 -230.15 -240.4 -229.0 -240.25 -199.0 -207.15 -198.65 -182.75 Q-198.9 -181.5 -194.25 -179.5 L-194.4 -176.65 M-230.9 -241.9 L-230.75 -241.9 -230.65 -241.75 -230.9 -241.9" fill="url(#gradient21)" fill-rule="evenodd" stroke="none"/>
    <path d="M-230.15 -240.4 L-231.65 -241.75 -230.9 -241.9 -230.65 -241.75 -227.4 -241.4 -228.65 -241.0 -229.0 -240.25 -230.15 -240.4 M-276.75 -239.25 L-277.75 -239.75 -277.75 -240.4 -275.9 -241.0 -275.25 -241.15 -274.9 -241.15 Q-275.0 -240.2 -275.5 -239.4 L-276.75 -239.25" fill="url(#gradient22)" fill-rule="evenodd" stroke="none"/>
    <path d="M-218.15 -199.25 Q-212.4 -198.5 -205.15 -185.0 -198.15 -170.75 -200.25 -160.75 L-201.65 -153.5 -204.65 -147.4 -209.4 -142.4 -210.15 -140.75 -215.4 -134.9 -221.4 -131.0 -224.9 -130.0 -226.75 -129.0 -230.9 -127.9 -233.25 -127.5 -238.5 -127.5 -242.4 -128.15 -244.4 -128.65 -252.75 -133.0 -263.75 -136.75 -267.0 -139.25 -272.65 -146.5 -275.15 -153.5 -275.4 -156.4 -278.0 -162.65 -278.75 -171.4 Q-277.15 -181.0 -275.65 -181.65 L-275.25 -187.4 Q-269.75 -201.75 -252.25 -206.25 -230.4 -210.4 -218.15 -199.25" fill="url(#gradient23)" fill-rule="evenodd" stroke="none"/>
    <path d="M-304.9 -29.4 L-299.75 -87.5 -302.0 -105.75 -302.15 -106.25 -302.15 -106.4 -304.75 -129.65 -303.4 -129.75 -300.65 -130.0 -292.0 -130.4 -242.4 -128.15 -238.5 -127.5 -233.25 -127.5 -230.9 -127.9 -225.25 -127.65 -238.5 -84.15 -243.25 -19.0 -261.4 -18.9 -299.5 -23.15 -305.15 -25.75 -304.9 -29.4" fill="url(#gradient24)" fill-rule="evenodd" stroke="none"/>
    <path d="M-307.15 -131.15 Q-327.0 -138.15 -332.5 -162.4 L-333.0 -164.4 -332.75 -165.9 -333.0 -171.75 -330.75 -181.9 -326.65 -190.9 Q-324.5 -195.75 -317.0 -201.75 L-311.65 -205.15 -304.9 -207.75 -301.25 -208.9 -297.4 -209.4 -292.65 -209.9 -289.9 -209.75 -286.75 -208.75 Q-287.0 -207.65 -282.15 -205.9 L-278.25 -201.4 -276.5 -195.5 -277.0 -189.0 -277.65 -187.25 -281.25 -181.9 -280.5 -173.5 -282.5 -165.15 -287.75 -156.65 -288.65 -149.15 -292.25 -142.9 Q-296.75 -140.15 -297.4 -137.0 L-299.5 -135.65 -299.25 -132.5 -300.65 -130.0 -303.4 -129.75 -305.25 -130.5 -307.15 -131.15" fill="url(#gradient25)" fill-rule="evenodd" stroke="none"/>
    <path d="M-304.9 -207.75 L-306.0 -217.0 -305.75 -217.4 -277.75 -239.75 -276.75 -239.25 -297.4 -209.4 -301.25 -208.9 -304.9 -207.75 M-275.25 -241.15 L-275.9 -241.0 -275.4 -241.25 -275.25 -241.15" fill="url(#gradient26)" fill-rule="evenodd" stroke="none"/>
    <path d="M-300.75 -231.9 L-275.25 -241.5 -275.4 -241.25 -275.9 -241.0 -277.75 -240.4 -277.75 -239.75 -305.75 -217.4 -300.75 -231.9" fill="url(#gradient27)" fill-rule="evenodd" stroke="none"/>
    <path d="M-223.75 -241.0 L-223.5 -241.0 -219.25 -240.25 -219.15 -240.25 -193.15 -235.65 -193.0 -235.25 -190.65 -220.5 -189.4 -193.5 -198.65 -182.75 -199.0 -207.15 -229.0 -240.25 -228.65 -241.0 -227.4 -241.4 -230.65 -241.75 -230.75 -241.9 -226.4 -241.5 -226.0 -241.4 -225.65 -241.4 -225.25 -241.25 -224.9 -241.25 -224.5 -241.15 -224.15 -241.15 -223.75 -241.0" fill="url(#gradient28)" fill-rule="evenodd" stroke="none"/>
    <path d="M-218.5 -240.25 L-190.0 -235.5 -172.65 -223.25 -176.15 -221.0 -193.0 -235.25 -193.15 -235.65 -219.15 -240.25 -218.5 -240.25" fill="url(#gradient29)" fill-rule="evenodd" stroke="none"/>
    <path d="M-315.5 -225.4 L-315.4 -225.75 -300.75 -231.9 -305.75 -217.4 -306.0 -217.0 -304.9 -207.75 -311.65 -205.15 -317.0 -201.75 -319.9 -206.9 -315.5 -225.4" fill="url(#gradient30)" fill-rule="evenodd" stroke="none"/>
    <path d="M-332.5 -162.4 L-334.25 -161.5 -351.75 -147.9 -352.0 -147.5 -368.0 -141.5 -384.25 -154.15 -390.25 -164.25 -390.65 -164.4 -390.0 -165.0 -372.25 -175.65 -328.9 -208.25 -321.4 -218.0 -320.9 -218.5 -315.5 -225.4 -319.9 -206.9 -317.0 -201.75 Q-324.5 -195.75 -326.65 -190.9 L-330.75 -181.9 -333.0 -171.75 -332.75 -165.9 -333.0 -164.4 -332.5 -162.4" fill="url(#gradient31)" fill-rule="evenodd" stroke="none"/>
    <path d="M-321.15 -218.4 L-320.9 -218.5 -321.4 -218.0 -321.15 -218.4" fill="url(#gradient32)" fill-rule="evenodd" stroke="none"/>
    <path d="M-390.0 -165.0 L-370.75 -181.75 -349.25 -199.4 -329.4 -213.5 -321.15 -218.4 -321.4 -218.0 -328.9 -208.25 -372.25 -175.65 -390.0 -165.0" fill="url(#gradient33)" fill-rule="evenodd" stroke="none"/>
    <path d="M-176.15 -221.0 L-190.65 -220.5 -193.0 -235.25 -176.15 -221.0" fill="url(#gradient34)" fill-rule="evenodd" stroke="none"/>
    <path d="M-118.25 -148.15 L-131.5 -149.9 -145.25 -156.25 -161.65 -166.0 -181.9 -173.65 -189.4 -193.5 -190.65 -220.5 -176.15 -221.0 -147.25 -208.0 -124.5 -198.9 -92.65 -184.0 -107.5 -165.0 -118.25 -148.15" fill="url(#gradient35)" fill-rule="evenodd" stroke="none"/>
    <path d="M-172.65 -223.25 L-88.65 -186.75 -92.65 -184.0 -124.5 -198.9 -147.25 -208.0 -176.15 -221.0 -172.65 -223.25" fill="url(#gradient36)" fill-rule="evenodd" stroke="none"/>
    <path d="M-88.65 -186.75 L-71.75 -188.65 -67.0 -185.15 -92.65 -184.0 -88.65 -186.75" fill="url(#gradient37)" fill-rule="evenodd" stroke="none"/>
    <path d="M-71.75 -188.65 L-37.75 -207.25 -8.4 -220.9 -1.4 -224.5 -0.9 -224.65 -0.9 -217.9 -24.9 -206.65 -46.25 -195.0 -67.0 -185.15 -71.75 -188.65" fill="url(#gradient38)" fill-rule="evenodd" stroke="none"/>
    <path d="M-0.9 -217.9 L-0.9 -183.5 -34.65 -166.4 -31.4 -177.15 -31.5 -177.65 -46.25 -195.0 -24.9 -206.65 -0.9 -217.9" fill="url(#gradient39)" fill-rule="evenodd" stroke="none"/>
    <path d="M-67.0 -185.15 L-46.25 -195.0 -31.5 -177.65 -67.0 -185.15" fill="url(#gradient40)" fill-rule="evenodd" stroke="none"/>
    <path d="M-352.0 -147.5 L-360.9 -134.65 -354.25 -125.5 -352.75 -107.4 -352.9 -107.5 -353.25 -107.9 -353.25 -108.25 -367.75 -140.65 -368.0 -141.5 -352.0 -147.5" fill="url(#gradient41)" fill-rule="evenodd" stroke="none"/>
    <path d="M-400.0 -125.9 L-400.0 -151.4 -390.65 -164.4 -390.25 -164.25 -384.25 -154.15 -368.0 -141.5 -367.75 -140.65 -365.75 -126.0 -364.9 -124.65 -360.9 -115.75 -380.75 -114.5 -388.65 -110.4 -400.0 -125.9" fill="url(#gradient42)" fill-rule="evenodd" stroke="none"/>
    <path d="M-57.25 -153.25 L-75.0 -143.75 -118.25 -148.15 -107.5 -165.0 -92.65 -184.0 -67.0 -185.15 -31.5 -177.65 -49.65 -167.75 -57.25 -153.25" fill="url(#gradient43)" fill-rule="evenodd" stroke="none"/>
    <path d="M-181.9 -173.65 L-194.4 -176.65 -194.25 -179.5 Q-198.9 -181.5 -198.65 -182.75 L-189.4 -193.5 -181.9 -173.65" fill="url(#gradient44)" fill-rule="evenodd" stroke="none"/>
    <path d="M-34.65 -166.4 L-57.25 -153.25 -49.65 -167.75 -31.5 -177.65 -31.4 -177.15 -34.65 -166.4" fill="url(#gradient45)" fill-rule="evenodd" stroke="none"/>
    <path d="M-367.75 -140.65 L-353.25 -108.25 -364.9 -124.65 -365.75 -126.0 -367.75 -140.65" fill="url(#gradient46)" fill-rule="evenodd" stroke="none"/>
    <path d="M-353.25 -108.25 L-353.25 -107.9 -360.4 -115.15 -360.4 -115.25 -360.9 -115.75 -364.9 -124.65 -353.25 -108.25" fill="url(#gradient47)" fill-rule="evenodd" stroke="none"/>
    <path d="M-388.65 -110.4 L-380.75 -114.5 -360.9 -115.75 -360.4 -115.25 -360.4 -115.15 -349.15 -91.5 -340.25 -79.15 -335.0 -70.25 -327.15 -59.75 -333.4 -57.15 Q-333.9 -59.15 -342.75 -60.25 L-346.5 -58.15 -347.75 -54.9 -356.75 -65.25 -369.25 -83.0 -370.15 -83.75 -379.25 -98.0 -388.65 -110.4" fill="url(#gradient48)" fill-rule="evenodd" stroke="none"/>
    <path d="M-348.5 -51.0 L-358.5 -65.25 -372.15 -83.0 -400.0 -125.9 -388.65 -110.4 -379.25 -98.0 -370.15 -83.75 -369.25 -83.0 -356.75 -65.25 -347.75 -54.9 -348.4 -53.0 -348.5 -51.0" fill="url(#gradient49)" fill-rule="evenodd" stroke="none"/>
    <path d="M-302.15 -106.4 L-307.15 -131.15 -305.25 -130.5 -304.75 -129.65 -302.15 -106.4" fill="url(#gradient50)" fill-rule="evenodd" stroke="none"/>
    <path d="M-197.25 -133.9 L-200.4 -120.9 -207.15 -81.4 -207.9 -63.65 -211.0 -25.9 -213.75 -24.4 -217.5 -22.9 -224.65 -21.5 -243.25 -19.0 -238.5 -84.15 -225.25 -127.65 -202.75 -135.25 Q-202.15 -136.0 -197.25 -133.9" fill="url(#gradient51)" fill-rule="evenodd" stroke="none"/>
    <path d="M-211.0 -25.9 L-205.65 -1.0 -213.75 -24.4 -211.0 -25.9" fill="url(#gradient52)" fill-rule="evenodd" stroke="none"/>
    <path d="M-205.65 -1.0 L-238.65 -0.9 -243.25 -19.0 -224.65 -21.5 -217.5 -22.9 -213.75 -24.4 -205.65 -1.0" fill="url(#gradient53)" fill-rule="evenodd" stroke="none"/>
    <path d="M-352.75 -107.4 L-335.4 -86.75 -330.0 -76.65 -321.25 -67.25 -317.4 -56.4 -317.9 -56.15 Q-320.25 -63.4 -326.15 -65.5 L-328.0 -65.25 -328.15 -64.9 -326.4 -61.15 -325.0 -59.15 -327.15 -59.75 -335.0 -70.25 -340.25 -79.15 -349.15 -91.5 -360.4 -115.15 -353.25 -107.9 -352.9 -107.5 -352.75 -107.4" fill="url(#gradient54)" fill-rule="evenodd" stroke="none"/>
    <path d="M-317.9 -56.15 Q-316.75 -39.4 -331.75 -37.15 -345.15 -35.75 -348.5 -51.0 L-348.4 -53.0 -347.75 -54.9 -346.5 -58.15 -342.75 -60.25 Q-333.9 -59.15 -333.4 -57.15 L-327.15 -59.75 -325.0 -59.15 -326.4 -61.15 -328.15 -64.9 -328.0 -65.25 -326.15 -65.5 Q-320.25 -63.4 -317.9 -56.15" fill="url(#gradient55)" fill-rule="evenodd" stroke="none"/>
    <path d="M-316.5 -0.9 L-321.75 -1.15 -304.9 -29.4 -305.15 -25.75 -316.5 -0.9" fill="url(#gradient56)" fill-rule="evenodd" stroke="none"/>
    <path d="M-238.65 -0.9 L-316.5 -0.9 -305.15 -25.75 -299.5 -23.15 -261.4 -18.9 -243.25 -19.0 -238.65 -0.9" fill="url(#gradient57)" fill-rule="evenodd" stroke="none"/>
    <path d="M-231.65 -252.0 L-231.25 -252.25 -224.25 -252.4 -222.0 -252.25 -221.65 -248.4 -221.25 -245.0 -221.5 -243.75 -221.4 -242.5 -221.9 -240.75 -222.25 -240.75 -223.5 -241.0 -223.75 -241.0 -223.75 -241.15 -224.15 -243.25 -224.65 -243.65 -225.15 -245.0 -225.75 -247.65 -226.4 -248.5 -226.5 -249.4 -229.75 -251.15 -231.25 -251.5 -231.25 -251.9 -231.65 -252.0" fill="#a90000" fill-rule="evenodd" stroke="none"/>
    <path d="M-246.15 -181.15 L-244.9 -185.75 -245.0 -186.15 -244.75 -186.4 -242.5 -195.15 -240.5 -200.65 -239.0 -203.75 -239.15 -204.65 -238.75 -204.65 -238.5 -205.65 -237.9 -207.0 -237.75 -207.15 -231.75 -221.5 -230.65 -227.5 -230.9 -228.15 -229.4 -237.9 -229.5 -238.75 -229.15 -240.15 -229.0 -240.5 -229.0 -241.9 -228.75 -242.9 -228.9 -243.15 -228.65 -243.75 -229.0 -245.5 -231.0 -250.15 -231.4 -250.9 -231.5 -251.5 -231.65 -252.0 -231.25 -251.9 -231.25 -251.5 -229.75 -251.15 -226.5 -249.4 -226.4 -248.5 -225.75 -247.65 -225.15 -245.0 -224.65 -243.65 -224.15 -243.25 -223.75 -241.15 -223.75 -241.0 -223.5 -241.0 -222.25 -240.75 -221.9 -240.75 -221.4 -242.5 -221.5 -243.75 -221.25 -245.0 -221.65 -248.4 -222.0 -252.25 -220.4 -250.5 -219.4 -249.0 -219.25 -248.65 -219.15 -248.15 -218.25 -246.15 -218.4 -245.0 -217.4 -243.0 -217.25 -242.25 -219.65 -240.4 -220.0 -240.4 -220.15 -240.5 -220.65 -240.65 -221.75 -240.65 -222.65 -233.25 -222.5 -232.75 -223.65 -223.15 -223.65 -222.4 -225.15 -219.0 -225.0 -218.65 -233.0 -198.25 -226.0 -194.9 -225.75 -194.65 -221.9 -192.75 -221.15 -192.5 -213.25 -188.65 -213.0 -188.4 -209.0 -186.4 -208.0 -185.75 -209.65 -185.75 -209.9 -185.5 -216.25 -184.9 -216.75 -184.75 -234.15 -182.65 -234.75 -182.4 -246.15 -181.15 M-283.4 -251.75 L-273.9 -249.25 -269.0 -247.0 -272.4 -245.65 -279.9 -248.9 -284.9 -250.0 -283.4 -251.75" fill="#9b0000" fill-opacity="0.9098039" fill-rule="evenodd" stroke="none"/>
    <path d="M-289.75 -251.25 L-283.4 -251.75 -284.9 -250.0 -289.4 -251.0 -289.75 -251.25" fill="#ac0000" fill-rule="evenodd" stroke="none"/>
    <path d="M-335.5 -187.5 L-323.0 -196.15 -320.4 -198.4 -307.5 -215.75 -306.65 -216.75 -306.25 -217.4 -305.75 -217.9 -305.15 -219.15 -303.15 -221.5 -300.4 -232.15 -300.25 -232.25 -292.75 -235.0 -294.75 -226.15 -295.0 -225.75 -294.9 -225.4 -295.75 -222.15 -305.0 -209.4 -305.15 -208.9 -306.4 -207.15 -306.65 -207.0 -306.75 -207.0 -306.9 -206.65 -307.0 -206.5 -307.4 -206.15 -307.4 -206.0 -308.65 -204.0 -308.9 -203.9 -311.75 -199.75 -312.0 -199.5 -313.0 -197.75 -314.0 -194.25 -314.15 -194.0 -315.75 -187.75 -316.0 -187.4 -318.15 -179.5 -318.4 -179.15 -320.25 -172.15 -330.0 -182.15 -330.5 -182.15 -330.4 -182.4 -334.75 -186.65 -335.5 -187.5 M-291.75 -249.25 L-289.75 -251.25 -289.4 -251.0 -284.9 -250.0 -287.4 -247.0 -291.75 -249.25" fill="#9e0000" fill-opacity="0.9098039" fill-rule="evenodd" stroke="none"/>
    <path d="M-300.25 -232.25 L-297.65 -242.65 -291.75 -249.25 -287.4 -247.0 -290.9 -242.9 -292.75 -235.0 -300.25 -232.25" fill="#ae0000" fill-opacity="0.9098039" fill-rule="evenodd" stroke="none"/>
    <path d="M-320.25 -172.15 L-313.75 -167.0 -312.9 -166.5 -312.9 -166.4 -290.5 -149.4 -290.15 -149.25 -283.5 -144.25 -258.9 -159.4 -258.75 -159.65 -252.65 -163.4 -246.15 -181.15 -234.75 -182.4 -234.15 -182.65 -216.75 -184.75 -216.25 -184.9 -209.9 -185.5 -209.65 -185.75 -208.0 -185.75 -208.5 -177.5 -208.65 -177.0 -209.15 -168.4 -209.25 -168.0 -209.75 -159.9 -211.25 -152.25 -211.4 -152.0 -212.65 -145.5 -212.75 -145.25 -213.9 -139.9 -213.75 -139.75 -214.4 -137.0 -214.65 -136.4 -214.75 -135.75 -214.9 -135.4 -214.75 -134.9 -215.75 -130.75 -215.65 -130.5 -216.15 -128.5 -221.4 -128.9 -247.65 -130.4 -248.15 -130.5 -289.15 -131.5 -299.25 -132.5 -299.4 -132.5 -300.75 -132.75 -302.15 -132.75 -302.4 -132.9 -304.25 -133.0 -307.25 -133.0 -308.0 -132.9 -309.25 -132.9 -309.75 -132.75 -310.25 -132.75 -310.65 -132.65 -311.0 -132.75 -311.9 -133.5 -317.4 -136.9 -324.15 -143.25 -324.0 -143.5 -328.0 -149.15 -331.15 -156.5 -331.5 -158.65 -332.5 -162.4 -332.9 -164.4 -333.0 -164.4 -332.75 -167.25 -333.0 -171.75 -332.75 -172.9 -332.4 -173.65 -332.4 -173.75 -331.4 -179.15 -331.25 -179.5 -331.25 -179.9 -331.0 -180.65 -331.0 -180.9 -331.15 -181.0 -331.65 -181.65 -334.75 -186.65 -330.4 -182.4 -330.5 -182.15 -330.0 -182.15 -320.25 -172.15 M-320.75 -150.25 L-320.5 -150.65 -320.75 -150.75 -320.65 -151.15 -322.0 -154.15 -321.15 -150.65 -320.75 -150.25 M-242.5 -155.15 L-243.4 -154.15 -242.9 -153.0 -242.65 -152.0 -241.65 -153.15 -241.4 -154.0 -242.5 -155.15" fill="#b00000" fill-opacity="0.9098039" fill-rule="evenodd" stroke="none"/>
    <path d="M-339.4 -157.4 L-340.9 -159.15 -341.15 -160.15 -339.75 -166.65 -339.75 -167.4 -339.5 -167.75 -335.5 -187.5 -334.75 -186.65 -331.65 -181.65 -331.15 -181.0 -331.0 -180.9 -331.0 -180.65 -331.25 -179.9 -331.25 -179.5 -331.4 -179.15 -332.4 -173.75 -332.4 -173.65 -332.75 -172.9 -333.0 -171.75 -332.75 -167.25 -333.0 -164.4 -332.9 -164.4 -332.5 -162.4 -334.25 -161.5 -339.4 -157.4" fill="#c40000" fill-rule="evenodd" stroke="none"/>
    <path d="M-322.75 -136.9 L-323.0 -137.65 -339.4 -157.4 -334.25 -161.5 -332.5 -162.4 -331.5 -158.65 -331.15 -156.5 -328.0 -149.15 -324.0 -143.5 -324.15 -143.25 -317.4 -136.9 -311.9 -133.5 -311.0 -132.75 -318.65 -132.15 -319.15 -132.9 -322.75 -136.9" fill="#c60000" fill-rule="evenodd" stroke="none"/>
    <path d="M-208.0 -185.75 L-204.4 -182.15 -204.15 -181.75 -203.9 -181.0 -203.5 -181.0 -203.5 -180.9 -203.65 -180.65 -203.25 -180.5 -199.25 -176.4 -199.15 -176.0 -198.0 -175.0 -197.9 -174.5 -194.9 -171.5 -194.75 -171.15 -197.15 -135.25 -197.4 -135.15 -202.5 -133.4 -202.75 -133.15 -216.15 -128.5 -215.65 -130.5 -215.75 -130.75 -214.75 -134.9 -214.9 -135.4 -214.75 -135.75 -214.65 -136.4 -214.4 -137.0 -213.75 -139.75 -213.9 -139.9 -212.75 -145.25 -212.65 -145.5 -211.4 -152.0 -211.25 -152.25 -209.75 -159.9 -209.25 -168.0 -209.15 -168.4 -208.65 -177.0 -208.5 -177.5 -208.0 -185.75" fill="#d30000" fill-opacity="0.9098039" fill-rule="evenodd" stroke="none"/>
    <path d="M-194.75 -171.15 L-188.15 -164.0 -181.4 -146.65 -182.0 -145.15 -182.0 -145.0 -182.15 -144.9 -182.15 -144.65 -182.25 -144.5 -182.4 -144.4 -185.65 -137.5 -187.25 -136.9 -189.65 -137.9 -197.15 -135.25 -194.75 -171.15" fill="#e80000" fill-opacity="0.9098039" fill-rule="evenodd" stroke="none"/>
    <path d="M-197.4 -135.15 L-197.15 -135.25 -189.65 -137.9 -187.25 -136.9 -197.15 -132.75 -197.65 -132.65 -197.4 -134.0 -197.4 -135.15" fill="#f30000" fill-opacity="0.9098039" fill-rule="evenodd" stroke="none"/>
    <path d="M-182.4 -144.4 L-182.75 -142.65 -183.25 -141.15 -183.15 -140.9 -184.9 -135.75 -186.15 -136.5 -187.25 -136.9 -185.65 -137.5 -182.4 -144.4" fill="#ea0000" fill-rule="evenodd" stroke="none"/>
    <path d="M-216.15 -128.5 L-202.75 -133.15 -202.5 -133.4 -197.4 -135.15 -197.4 -134.0 -197.65 -132.65 -198.4 -129.9 -198.25 -129.5 -201.0 -117.65 -200.9 -117.25 -207.0 -81.9 -208.0 -63.65 -211.0 -27.9 -211.0 -25.9 -209.9 -20.0 -209.65 -19.15 -209.65 -18.9 -209.5 -18.4 -209.5 -18.25 -208.9 -16.25 -208.9 -16.15 -210.75 -15.25 -211.25 -15.15 -211.25 -15.0 -214.15 -14.0 -214.9 -13.9 -215.25 -13.75 -218.65 -13.0 -219.0 -13.0 -219.75 -12.75 -220.25 -12.65 -220.75 -12.65 -220.9 -12.5 -240.9 -9.75 -241.25 -9.65 -242.65 -9.5 -241.9 -13.0 -242.0 -14.15 -241.25 -16.9 -241.4 -17.15 -238.15 -33.25 -238.0 -36.75 -236.4 -57.5 -236.5 -58.0 -234.75 -78.9 -234.9 -79.25 -234.75 -80.9 -223.4 -109.75 -223.25 -110.65 -216.15 -128.5" fill="#dd0000" fill-opacity="0.9098039" fill-rule="evenodd" stroke="none"/>
    <path d="M-184.9 -135.75 L-190.9 -114.5 -188.25 -127.75 -188.4 -128.15 -188.15 -128.4 -188.25 -128.65 -188.4 -128.15 -197.75 -91.25 -197.15 -132.75 -187.25 -136.9 -186.15 -136.5 -184.9 -135.75 M-192.5 -107.5 L-192.4 -107.25 -197.9 -80.9 -198.0 -87.75 -197.9 -88.5 -198.0 -88.9 -192.5 -107.5" fill="#f40000" fill-rule="evenodd" stroke="none"/>
    <path d="M-197.9 -80.9 L-199.0 -58.5 -200.5 -38.25 -205.75 -18.25 -209.9 -20.0 -211.0 -25.9 -211.0 -27.9 -208.0 -63.65 -207.0 -81.9 -200.9 -117.25 -201.0 -117.65 -198.25 -129.5 -198.4 -129.9 -197.65 -132.65 -197.15 -132.75 -197.75 -91.25 -198.0 -88.9 -198.5 -87.65 -198.25 -87.5 -198.0 -87.75 -197.9 -80.9" fill="#ed0000" fill-rule="evenodd" stroke="none"/>
    <path d="M-216.15 -128.5 L-223.25 -110.65 -223.4 -109.75 -234.75 -80.9 -234.9 -79.25 -234.75 -78.9 -236.5 -58.0 -236.4 -57.5 -238.0 -36.75 -238.15 -33.25 -241.4 -17.15 -241.25 -16.9 -242.0 -14.15 -241.9 -13.0 -242.65 -9.5 -261.75 -9.15 -309.15 -14.5 -312.75 -16.4 -304.9 -29.4 -303.25 -45.4 -303.25 -46.65 -301.5 -66.4 -301.5 -67.5 -299.75 -87.5 -299.75 -88.15 -302.0 -105.75 -302.15 -106.25 -307.15 -131.15 -310.65 -132.65 -310.25 -132.75 -309.75 -132.75 -309.25 -132.9 -308.0 -132.9 -307.25 -133.0 -304.25 -133.0 -302.4 -132.9 -302.15 -132.75 -300.75 -132.75 -299.4 -132.5 -299.25 -132.5 -289.15 -131.5 -248.15 -130.5 -247.65 -130.4 -221.4 -128.9 -216.15 -128.5" fill="#a70000" fill-opacity="0.9098039" fill-rule="evenodd" stroke="none"/>
    <path d="M-205.65 -0.9 L-240.25 -0.9 -242.65 -9.5 -241.25 -9.65 -240.9 -9.75 -220.9 -12.5 -220.75 -12.65 -220.25 -12.65 -219.75 -12.75 -219.0 -13.0 -218.65 -13.0 -215.25 -13.75 -214.9 -13.9 -214.15 -14.0 -211.25 -15.0 -211.25 -15.15 -210.75 -15.25 -208.9 -16.15 -205.65 -0.9" fill="#d20000" fill-opacity="0.9098039" fill-rule="evenodd" stroke="none"/>
    <path d="M-203.5 -0.9 L-205.65 -0.9 -208.9 -16.15 -208.9 -16.25 -207.5 -13.0 -206.9 -11.4 -206.9 -11.25 -203.5 -0.9" fill="#e40000" fill-rule="evenodd" stroke="none"/>
    <path d="M-208.9 -16.25 L-209.5 -18.25 -209.5 -18.4 -209.65 -18.9 -209.65 -19.15 -209.9 -20.0 -205.75 -18.25 -208.9 -16.25" fill="#ef0000" fill-rule="evenodd" stroke="none"/>
    <path d="M-323.65 -0.9 L-328.5 -1.15 -315.65 -21.25 -315.25 -19.15 -315.4 -17.9 -323.65 -0.9 M-314.15 -100.15 L-322.75 -136.9 -319.15 -132.9 -318.65 -132.15 -316.5 -118.0 -316.4 -117.65 -316.4 -117.25 -316.25 -116.9 -316.25 -116.5 -316.15 -116.0 -316.15 -115.75 -316.0 -115.15 -316.0 -115.0 -314.15 -100.15" fill="#fd0000" fill-rule="evenodd" stroke="none"/>
    <path d="M-315.65 -21.25 L-315.5 -22.0 -316.0 -40.5 -312.0 -85.5 -312.75 -93.0 -312.75 -93.15 -312.9 -93.65 -314.0 -99.75 -314.15 -100.15 -316.0 -115.0 -316.0 -115.15 -316.15 -115.75 -316.15 -116.0 -316.25 -116.5 -316.25 -116.9 -316.4 -117.25 -316.4 -117.65 -316.5 -118.0 -318.65 -132.15 -311.0 -132.75 -310.65 -132.65 -307.15 -131.15 -302.15 -106.25 -302.0 -105.75 -299.75 -88.15 -299.75 -87.5 -301.5 -67.5 -301.5 -66.4 -303.25 -46.65 -303.25 -45.4 -304.9 -29.4 -312.75 -16.4 -315.4 -17.9 -315.25 -19.15 -315.65 -21.25" fill="#bd0000" fill-rule="evenodd" stroke="none"/>
    <path d="M-321.75 -0.9 L-323.65 -0.9 -315.4 -17.9 -312.75 -16.4 -321.0 -2.25 -321.0 -2.15 -321.25 -1.75 -321.4 -1.65 -321.65 -1.25 -321.75 -0.9" fill="#bb0000" fill-rule="evenodd" stroke="none"/>
    <path d="M-190.9 -114.5 L-192.5 -107.5 -198.0 -88.9 -197.75 -91.25 -188.4 -128.15 -188.25 -128.65 -188.15 -128.4 -188.4 -128.15 -188.25 -127.75 -190.9 -114.5 M-198.0 -87.75 L-198.25 -87.5 -198.5 -87.65 -198.0 -88.9 -197.9 -88.5 -198.0 -87.75" fill="#f30000" fill-rule="evenodd" stroke="none"/>
    <path d="M-205.75 -18.25 L-201.5 -0.9 -202.9 -0.9 -206.9 -11.25 -206.9 -11.4 -207.5 -13.0 -208.9 -16.25 -205.75 -18.25" fill="#fa0000" fill-rule="evenodd" stroke="none"/>
    <path d="M-202.9 -0.9 L-203.5 -0.9 -206.9 -11.25 -202.9 -0.9" fill="#e90000" fill-rule="evenodd" stroke="none"/>
    <path d="M-240.25 -0.9 L-321.75 -0.9 -321.65 -1.25 -321.4 -1.65 -321.25 -1.75 -321.0 -2.15 -321.0 -2.25 -312.75 -16.4 -309.15 -14.5 -261.75 -9.15 -242.65 -9.5 -240.25 -0.9" fill="#a50000" fill-opacity="0.9098039" fill-rule="evenodd" stroke="none"/>
  </g>
  <defs>
    <radialGradient cx="0" cy="0" gradientTransform="matrix(0.1865, 0.0, 0.0, 0.1865, -179.85, -294.4)" gradientUnits="userSpaceOnUse" id="gradient0" r="819.2" spreadMethod="pad">
      <stop offset="0.0" stop-color="#5b5b5b"/>
      <stop offset="1.0" stop-color="#1a1a1a"/>
    </radialGradient>
    <radialGradient cx="0" cy="0" gradientTransform="matrix(0.0935, 0.0, 0.0, 0.0935, -242.85, -276.35)" gradientUnits="userSpaceOnUse" id="gradient1" r="819.2" spreadMethod="pad">
      <stop offset="0.0" stop-color="#7d7d7d"/>
      <stop offset="1.0" stop-color="#080808"/>
    </radialGradient>
    <radialGradient cx="0" cy="0" gradientTransform="matrix(0.0423, 0.0, 0.0, 0.0423, -263.5, -254.2)" gradientUnits="userSpaceOnUse" id="gradient2" r="819.2" spreadMethod="pad">
      <stop offset="0.0" stop-color="#1a1a1a"/>
      <stop offset="1.0" stop-color="#000000"/>
    </radialGradient>
    <radialGradient cx="0" cy="0" gradientTransform="matrix(0.0206, 0.0, 0.0, 0.0206, -241.75, -263.4)" gradientUnits="userSpaceOnUse" id="gradient3" r="819.2" spreadMethod="pad">
      <stop offset="0.0" stop-color="#797979"/>
      <stop offset="1.0" stop-color="#000000"/>
    </radialGradient>
    <radialGradient cx="0" cy="0" gradientTransform="matrix(0.2949, 0.0, 0.0, 0.2949, -224.75, -251.15)" gradientUnits="userSpaceOnUse" id="gradient4" r="819.2" spreadMethod="pad">
      <stop offset="0.0" stop-color="#101010"/>
      <stop offset="1.0" stop-color="#000000"/>
    </radialGradient>
    <radialGradient cx="0" cy="0" gradientTransform="matrix(0.0525, 0.0, 0.0, 0.0525, -163.95, -266.0)" gradientUnits="userSpaceOnUse" id="gradient5" r="819.2" spreadMethod="pad">
      <stop offset="0.0" stop-color="#414141"/>
      <stop offset="1.0" stop-color="#282828"/>
    </radialGradient>
    <radialGradient cx="0" cy="0" gradientTransform="matrix(0.0404, 0.0, 0.0, 0.0404, -330.3, -300.0)" gradientUnits="userSpaceOnUse" id="gradient6" r="819.2" spreadMethod="pad">
      <stop offset="0.0" stop-color="#333333"/>
      <stop offset="1.0" stop-color="#2d2d2d"/>
    </radialGradient>
    <radialGradient cx="0" cy="0" gradientTransform="matrix(0.157, 0.0, 0.0, 0.157, -294.5, -130.5)" gradientUnits="userSpaceOnUse" id="gradient7" r="819.2" spreadMethod="pad">
      <stop offset="0.0" stop-color="#6a6a6a"/>
      <stop offset="1.0" stop-color="#000000"/>
    </radialGradient>
    <radialGradient cx="0" cy="0" gradientTransform="matrix(0.0403, 0.0, 0.0, 0.0403, -233.3, -245.25)" gradientUnits="userSpaceOnUse" id="gradient8" r="819.2" spreadMethod="pad">
      <stop offset="0.0" stop-color="#000000"/>
      <stop offset="1.0" stop-color="#000000"/>
    </radialGradient>
    <radialGradient cx="0" cy="0" gradientTransform="matrix(0.0341, 0.0, 0.0, 0.0341, -224.9, -247.25)" gradientUnits="userSpaceOnUse" id="gradient9" r="819.2" spreadMethod="pad">
      <stop offset="0.0" stop-color="#7b7b7b"/>
      <stop offset="1.0" stop-color="#090909"/>
    </radialGradient>
    <radialGradient cx="0" cy="0" gradientTransform="matrix(0.0235, 0.0, 0.0, 0.0235, -2.45, -272.35)" gradientUnits="userSpaceOnUse" id="gradient10" r="819.2" spreadMethod="pad">
      <stop offset="0.0" stop-color="#171717"/>
      <stop offset="1.0" stop-color="#171717"/>
    </radialGradient>
    <radialGradient cx="0" cy="0" gradientTransform="matrix(0.0172, 0.0, 0.0, 0.0172, -4.7, -267.6)" gradientUnits="userSpaceOnUse" id="gradient11" r="819.2" spreadMethod="pad">
      <stop offset="0.0" stop-color="#040404"/>
      <stop offset="1.0" stop-color="#040404"/>
    </radialGradient>
    <radialGradient cx="0" cy="0" gradientTransform="matrix(0.0181, 0.0, 0.0, 0.0181, -3.1, -247.55)" gradientUnits="userSpaceOnUse" id="gradient12" r="819.2" spreadMethod="pad">
      <stop offset="0.0" stop-color="#040404"/>
      <stop offset="1.0" stop-color="#040404"/>
    </radialGradient>
    <radialGradient cx="0" cy="0" gradientTransform="matrix(0.0179, 0.0, 0.0, 0.0179, -4.7, -253.2)" gradientUnits="userSpaceOnUse" id="gradient13" r="819.2" spreadMethod="pad">
      <stop offset="0.0" stop-color="#020202"/>
      <stop offset="1.0" stop-color="#020202"/>
    </radialGradient>
    <radialGradient cx="0" cy="0" gradientTransform="matrix(0.0079, 0.0, 0.0, 0.0079, -7.15, -263.9)" gradientUnits="userSpaceOnUse" id="gradient14" r="819.2" spreadMethod="pad">
      <stop offset="0.0" stop-color="#171717"/>
      <stop offset="1.0" stop-color="#171717"/>
    </radialGradient>
    <radialGradient cx="0" cy="0" gradientTransform="matrix(0.0147, 0.0, 0.0, 0.0147, -13.7, -263.8)" gradientUnits="userSpaceOnUse" id="gradient15" r="819.2" spreadMethod="pad">
      <stop offset="0.0" stop-color="#222222"/>
      <stop offset="1.0" stop-color="#171717"/>
    </radialGradient>
    <radialGradient cx="0" cy="0" gradientTransform="matrix(0.0165, 0.0, 0.0, 0.0165, -4.7, -253.2)" gradientUnits="userSpaceOnUse" id="gradient16" r="819.2" spreadMethod="pad">
      <stop offset="0.0" stop-color="#1f1f1f"/>
      <stop offset="1.0" stop-color="#1f1f1f"/>
    </radialGradient>
    <radialGradient cx="0" cy="0" gradientTransform="matrix(0.0154, 0.0, 0.0, 0.0154, -5.0, -247.9)" gradientUnits="userSpaceOnUse" id="gradient17" r="819.2" spreadMethod="pad">
      <stop offset="0.0" stop-color="#030303"/>
      <stop offset="1.0" stop-color="#030303"/>
    </radialGradient>
    <radialGradient cx="0" cy="0" gradientTransform="matrix(0.0151, 0.0, 0.0, 0.0151, -16.65, -241.85)" gradientUnits="userSpaceOnUse" id="gradient18" r="819.2" spreadMethod="pad">
      <stop offset="0.0" stop-color="#040404"/>
      <stop offset="1.0" stop-color="#040404"/>
    </radialGradient>
    <radialGradient cx="0" cy="0" gradientTransform="matrix(0.0154, 0.0, 0.0, 0.0154, -16.15, -241.95)" gradientUnits="userSpaceOnUse" id="gradient19" r="819.2" spreadMethod="pad">
      <stop offset="0.0" stop-color="#030303"/>
      <stop offset="1.0" stop-color="#030303"/>
    </radialGradient>
    <radialGradient cx="0" cy="0" gradientTransform="matrix(0.0055, 0.0, 0.0, 0.0055, -5.2, -245.5)" gradientUnits="userSpaceOnUse" id="gradient20" r="819.2" spreadMethod="pad">
      <stop offset="0.0" stop-color="#040404"/>
      <stop offset="1.0" stop-color="#040404"/>
    </radialGradient>
    <radialGradient cx="0" cy="0" gradientTransform="matrix(0.1127, 0.0, 0.0, 0.1127, -195.85, -156.9)" gradientUnits="userSpaceOnUse" id="gradient21" r="819.2" spreadMethod="pad">
      <stop offset="0.0" stop-color="#3f3f3f"/>
      <stop offset="1.0" stop-color="#000000"/>
    </radialGradient>
    <radialGradient cx="0" cy="0" gradientTransform="matrix(0.1234, 0.0, 0.0, 0.1234, -286.45, -159.4)" gradientUnits="userSpaceOnUse" id="gradient22" r="819.2" spreadMethod="pad">
      <stop offset="0.0" stop-color="#323232"/>
      <stop offset="1.0" stop-color="#000000"/>
    </radialGradient>
    <radialGradient cx="0" cy="0" gradientTransform="matrix(0.0876, 0.0, 0.0, 0.0876, -255.8, -139.55)" gradientUnits="userSpaceOnUse" id="gradient23" r="819.2" spreadMethod="pad">
      <stop offset="0.0" stop-color="#878787"/>
      <stop offset="1.0" stop-color="#000000"/>
    </radialGradient>
    <radialGradient cx="0" cy="0" gradientTransform="matrix(0.1496, 0.0, 0.0, 0.1496, -294.5, -130.5)" gradientUnits="userSpaceOnUse" id="gradient24" r="819.2" spreadMethod="pad">
      <stop offset="0.0" stop-color="#6a6a6a"/>
      <stop offset="1.0" stop-color="#000000"/>
    </radialGradient>
    <radialGradient cx="0" cy="0" gradientTransform="matrix(0.0851, 0.0, 0.0, 0.0851, -308.1, -143.55)" gradientUnits="userSpaceOnUse" id="gradient25" r="819.2" spreadMethod="pad">
      <stop offset="0.0" stop-color="#858585"/>
      <stop offset="1.0" stop-color="#000000"/>
    </radialGradient>
    <radialGradient cx="0" cy="0" gradientTransform="matrix(0.0755, 0.0, 0.0, 0.0755, -302.7, -186.65)" gradientUnits="userSpaceOnUse" id="gradient26" r="819.2" spreadMethod="pad">
      <stop offset="0.0" stop-color="#171717"/>
      <stop offset="1.0" stop-color="#000000"/>
    </radialGradient>
    <radialGradient cx="0" cy="0" gradientTransform="matrix(0.0484, 0.0, 0.0, 0.0484, -274.85, -241.9)" gradientUnits="userSpaceOnUse" id="gradient27" r="819.2" spreadMethod="pad">
      <stop offset="0.0" stop-color="#000000"/>
      <stop offset="1.0" stop-color="#000000"/>
    </radialGradient>
    <radialGradient cx="0" cy="0" gradientTransform="matrix(0.078, 0.0, 0.0, 0.078, -189.3, -193.9)" gradientUnits="userSpaceOnUse" id="gradient28" r="819.2" spreadMethod="pad">
      <stop offset="0.0" stop-color="#595959"/>
      <stop offset="1.0" stop-color="#000000"/>
    </radialGradient>
    <radialGradient cx="0" cy="0" gradientTransform="matrix(0.0468, 0.0, 0.0, 0.0468, -193.2, -235.7)" gradientUnits="userSpaceOnUse" id="gradient29" r="819.2" spreadMethod="pad">
      <stop offset="0.0" stop-color="#000000"/>
      <stop offset="1.0" stop-color="#000000"/>
    </radialGradient>
    <radialGradient cx="0" cy="0" gradientTransform="matrix(0.0555, 0.0, 0.0, 0.0555, -302.7, -186.65)" gradientUnits="userSpaceOnUse" id="gradient30" r="819.2" spreadMethod="pad">
      <stop offset="0.0" stop-color="#171717"/>
      <stop offset="1.0" stop-color="#000000"/>
    </radialGradient>
    <radialGradient cx="0" cy="0" gradientTransform="matrix(0.0927, 0.0, 0.0, 0.0927, -350.45, -158.55)" gradientUnits="userSpaceOnUse" id="gradient31" r="819.2" spreadMethod="pad">
      <stop offset="0.0" stop-color="#6a6a6a"/>
      <stop offset="1.0" stop-color="#000000"/>
    </radialGradient>
    <radialGradient cx="0" cy="0" gradientTransform="matrix(0.032, 0.0, 0.0, 0.032, -309.2, -225.65)" gradientUnits="userSpaceOnUse" id="gradient32" r="819.2" spreadMethod="pad">
      <stop offset="0.0" stop-color="#0d0d0d"/>
      <stop offset="1.0" stop-color="#000000"/>
    </radialGradient>
    <radialGradient cx="0" cy="0" gradientTransform="matrix(0.0885, 0.0, 0.0, 0.0885, -368.35, -183.75)" gradientUnits="userSpaceOnUse" id="gradient33" r="819.2" spreadMethod="pad">
      <stop offset="0.0" stop-color="#0f0f0f"/>
      <stop offset="1.0" stop-color="#040404"/>
    </radialGradient>
    <radialGradient cx="0" cy="0" gradientTransform="matrix(0.0187, 0.0, 0.0, 0.0187, -190.7, -220.6)" gradientUnits="userSpaceOnUse" id="gradient34" r="819.2" spreadMethod="pad">
      <stop offset="0.0" stop-color="#000000"/>
      <stop offset="1.0" stop-color="#000000"/>
    </radialGradient>
    <radialGradient cx="0" cy="0" gradientTransform="matrix(0.0935, 0.0, 0.0, 0.0935, -169.0, -188.6)" gradientUnits="userSpaceOnUse" id="gradient35" r="819.2" spreadMethod="pad">
      <stop offset="0.0" stop-color="#616161"/>
      <stop offset="1.0" stop-color="#000000"/>
    </radialGradient>
    <radialGradient cx="0" cy="0" gradientTransform="matrix(0.0762, 0.0, 0.0, 0.0762, -147.3, -208.2)" gradientUnits="userSpaceOnUse" id="gradient36" r="819.2" spreadMethod="pad">
      <stop offset="0.0" stop-color="#000000"/>
      <stop offset="1.0" stop-color="#000000"/>
    </radialGradient>
    <radialGradient cx="0" cy="0" gradientTransform="matrix(0.0313, 0.0, 0.0, 0.0313, -92.55, -184.05)" gradientUnits="userSpaceOnUse" id="gradient37" r="819.2" spreadMethod="pad">
      <stop offset="0.0" stop-color="#000000"/>
      <stop offset="1.0" stop-color="#000000"/>
    </radialGradient>
    <radialGradient cx="0" cy="0" gradientTransform="matrix(0.066, 0.0, 0.0, 0.066, -46.3, -195.1)" gradientUnits="userSpaceOnUse" id="gradient38" r="819.2" spreadMethod="pad">
      <stop offset="0.0" stop-color="#000000"/>
      <stop offset="1.0" stop-color="#000000"/>
    </radialGradient>
    <radialGradient cx="0" cy="0" gradientTransform="matrix(0.0619, 0.0, 0.0, 0.0619, -46.3, -195.1)" gradientUnits="userSpaceOnUse" id="gradient39" r="819.2" spreadMethod="pad">
      <stop offset="0.0" stop-color="#000000"/>
      <stop offset="1.0" stop-color="#000000"/>
    </radialGradient>
    <radialGradient cx="0" cy="0" gradientTransform="matrix(0.028, 0.0, 0.0, 0.028, -46.3, -195.1)" gradientUnits="userSpaceOnUse" id="gradient40" r="819.2" spreadMethod="pad">
      <stop offset="0.0" stop-color="#000000"/>
      <stop offset="1.0" stop-color="#000000"/>
    </radialGradient>
    <radialGradient cx="0" cy="0" gradientTransform="matrix(0.0495, 0.0, 0.0, 0.0495, -352.65, -107.15)" gradientUnits="userSpaceOnUse" id="gradient41" r="819.2" spreadMethod="pad">
      <stop offset="0.0" stop-color="#292929"/>
      <stop offset="1.0" stop-color="#000000"/>
    </radialGradient>
    <radialGradient cx="0" cy="0" gradientTransform="matrix(0.0663, 0.0, 0.0, 0.0663, -388.5, -110.4)" gradientUnits="userSpaceOnUse" id="gradient42" r="819.2" spreadMethod="pad">
      <stop offset="0.0" stop-color="#393939"/>
      <stop offset="1.0" stop-color="#000000"/>
    </radialGradient>
    <radialGradient cx="0" cy="0" gradientTransform="matrix(0.0744, 0.0, 0.0, 0.0744, -57.45, -153.2)" gradientUnits="userSpaceOnUse" id="gradient43" r="819.2" spreadMethod="pad">
      <stop offset="0.0" stop-color="#161616"/>
      <stop offset="1.0" stop-color="#000000"/>
    </radialGradient>
    <radialGradient cx="0" cy="0" gradientTransform="matrix(0.0263, 0.0, 0.0, 0.0263, -189.3, -193.9)" gradientUnits="userSpaceOnUse" id="gradient44" r="819.2" spreadMethod="pad">
      <stop offset="0.0" stop-color="#595959"/>
      <stop offset="1.0" stop-color="#000000"/>
    </radialGradient>
    <radialGradient cx="0" cy="0" gradientTransform="matrix(0.0437, 0.0, 0.0, 0.0437, -57.45, -153.2)" gradientUnits="userSpaceOnUse" id="gradient45" r="819.2" spreadMethod="pad">
      <stop offset="0.0" stop-color="#161616"/>
      <stop offset="1.0" stop-color="#000000"/>
    </radialGradient>
    <radialGradient cx="0" cy="0" gradientTransform="matrix(0.0459, 0.0, 0.0, 0.0459, -352.65, -107.15)" gradientUnits="userSpaceOnUse" id="gradient46" r="819.2" spreadMethod="pad">
      <stop offset="0.0" stop-color="#292929"/>
      <stop offset="1.0" stop-color="#010101"/>
    </radialGradient>
    <radialGradient cx="0" cy="0" gradientTransform="matrix(0.028, 0.0, 0.0, 0.028, -352.65, -107.15)" gradientUnits="userSpaceOnUse" id="gradient47" r="819.2" spreadMethod="pad">
      <stop offset="0.0" stop-color="#292929"/>
      <stop offset="1.0" stop-color="#000000"/>
    </radialGradient>
    <radialGradient cx="0" cy="0" gradientTransform="matrix(0.0686, 0.0, 0.0, 0.0686, -355.95, -64.6)" gradientUnits="userSpaceOnUse" id="gradient48" r="819.2" spreadMethod="pad">
      <stop offset="0.0" stop-color="#505050"/>
      <stop offset="1.0" stop-color="#131313"/>
    </radialGradient>
    <radialGradient cx="0" cy="0" gradientTransform="matrix(0.0926, 0.0, 0.0, 0.0926, -355.95, -64.6)" gradientUnits="userSpaceOnUse" id="gradient49" r="819.2" spreadMethod="pad">
      <stop offset="0.0" stop-color="#505050"/>
      <stop offset="1.0" stop-color="#2a2a2a"/>
    </radialGradient>
    <radialGradient cx="0" cy="0" gradientTransform="matrix(0.0643, 0.0, 0.0, 0.0643, -298.75, -88.6)" gradientUnits="userSpaceOnUse" id="gradient50" r="819.2" spreadMethod="pad">
      <stop offset="0.0" stop-color="#838383"/>
      <stop offset="1.0" stop-color="#626262"/>
    </radialGradient>
    <radialGradient cx="0" cy="0" gradientTransform="matrix(0.1341, 0.0, 0.0, 0.1341, -211.1, -26.0)" gradientUnits="userSpaceOnUse" id="gradient51" r="819.2" spreadMethod="pad">
      <stop offset="0.0" stop-color="#666666"/>
      <stop offset="1.0" stop-color="#0e0e0e"/>
    </radialGradient>
    <radialGradient cx="0" cy="0" gradientTransform="matrix(0.0312, 0.0, 0.0, 0.0312, -211.1, -26.0)" gradientUnits="userSpaceOnUse" id="gradient52" r="819.2" spreadMethod="pad">
      <stop offset="0.0" stop-color="#666666"/>
      <stop offset="1.0" stop-color="#5d5d5d"/>
    </radialGradient>
    <radialGradient cx="0" cy="0" gradientTransform="matrix(0.051, 0.0, 0.0, 0.051, -205.75, -1.0)" gradientUnits="userSpaceOnUse" id="gradient53" r="819.2" spreadMethod="pad">
      <stop offset="0.0" stop-color="#4d4d4d"/>
      <stop offset="1.0" stop-color="#090909"/>
    </radialGradient>
    <radialGradient cx="0" cy="0" gradientTransform="matrix(0.0609, 0.0, 0.0, 0.0609, -329.9, -76.7)" gradientUnits="userSpaceOnUse" id="gradient54" r="819.2" spreadMethod="pad">
      <stop offset="0.0" stop-color="#3a3a3a"/>
      <stop offset="1.0" stop-color="#0c0c0c"/>
    </radialGradient>
    <radialGradient cx="0" cy="0" gradientTransform="matrix(0.0379, 0.0, 0.0, 0.0379, -317.45, -54.1)" gradientUnits="userSpaceOnUse" id="gradient55" r="819.2" spreadMethod="pad">
      <stop offset="0.0" stop-color="#858585"/>
      <stop offset="1.0" stop-color="#2c2c2c"/>
    </radialGradient>
    <radialGradient cx="0" cy="0" gradientTransform="matrix(0.0401, 0.0, 0.0, 0.0401, -316.5, -1.0)" gradientUnits="userSpaceOnUse" id="gradient56" r="819.2" spreadMethod="pad">
      <stop offset="0.0" stop-color="#404040"/>
      <stop offset="1.0" stop-color="#1b1b1b"/>
    </radialGradient>
    <radialGradient cx="0" cy="0" gradientTransform="matrix(0.095, 0.0, 0.0, 0.095, -316.5, -1.0)" gradientUnits="userSpaceOnUse" id="gradient57" r="819.2" spreadMethod="pad">
      <stop offset="0.0" stop-color="#404040"/>
      <stop offset="1.0" stop-color="#000000"/>
    </radialGradient>
  </defs>
</svg>
