<?xml version="1.0" encoding="UTF-8" standalone="no"?>
<svg xmlns:xlink="http://www.w3.org/1999/xlink" height="299.1px" width="399.1px" xmlns="http://www.w3.org/2000/svg">
  <g transform="matrix(1.0, 0.0, 0.0, 1.0, 400.0, 300.0)">
    <path d="M-268.4 -243.15 L-279.0 -242.4 -302.75 -255.9 -311.25 -267.9 Q-312.25 -267.4 -314.0 -270.4 L-320.4 -282.4 -322.0 -290.5 -325.4 -300.0 -309.5 -300.0 -304.9 -289.15 -297.4 -277.5 -295.0 -274.75 -294.9 -274.0 -289.9 -267.5 -280.25 -259.0 -263.4 -249.65 -261.0 -249.0 -262.75 -246.4 -266.65 -244.65 -267.0 -244.4 -268.4 -243.15 M-183.75 -244.25 L-188.25 -244.15 -191.75 -245.25 -202.65 -237.9 -203.15 -237.9 -206.65 -240.65 -219.15 -239.15 -219.5 -239.25 -219.75 -239.25 -220.15 -239.4 -220.5 -239.4 -220.9 -239.5 -222.4 -239.75 -223.15 -245.4 -214.4 -247.65 -204.25 -251.25 -189.65 -261.0 Q-189.0 -262.25 -186.5 -263.5 L-177.5 -272.75 -172.4 -273.0 -172.25 -272.65 -175.9 -258.9 -180.65 -251.4 -183.75 -244.25 M-172.0 -280.75 L-169.15 -285.15 -169.0 -285.9 -167.4 -285.0 -167.15 -284.5 -172.0 -280.75" fill="url(#gradient0)" fill-rule="evenodd" stroke="none"/>
    <path d="M-309.5 -300.0 L-269.75 -300.0 -268.25 -299.25 -262.4 -297.65 -258.9 -297.25 -252.75 -298.9 -250.25 -300.0 -188.25 -300.0 Q-185.4 -296.4 -185.5 -295.65 L-181.4 -273.0 -181.0 -273.15 -176.15 -290.25 -169.0 -285.9 -169.15 -285.15 -172.0 -280.75 -181.25 -272.9 -177.5 -272.75 -186.5 -263.5 Q-189.0 -262.25 -189.65 -261.0 L-204.25 -251.25 -214.4 -247.65 -223.15 -245.4 -223.25 -246.65 -223.4 -248.4 -224.75 -249.9 -228.25 -251.4 -232.9 -253.4 -232.0 -252.0 -237.9 -254.15 -242.25 -254.0 -249.25 -254.5 -252.25 -254.15 -257.25 -254.25 Q-257.5 -253.4 -260.75 -251.65 L-261.0 -249.0 -263.4 -249.65 -280.25 -259.0 -289.9 -267.5 -294.9 -274.0 -295.0 -274.75 -297.4 -277.5 -304.9 -289.15 -309.5 -300.0" fill="url(#gradient1)" fill-rule="evenodd" stroke="none"/>
    <path d="M-261.0 -249.0 L-260.75 -251.65 Q-257.5 -253.4 -257.25 -254.25 L-252.25 -254.15 -249.25 -254.5 -242.25 -254.0 -237.9 -254.15 -232.0 -252.0 -229.15 -248.0 -229.15 -246.15 -230.25 -243.5 -229.65 -243.15 -227.15 -240.75 -237.65 -244.5 -267.0 -244.4 -266.65 -244.65 -262.75 -246.4 -261.0 -249.0" fill="url(#gradient2)" fill-rule="evenodd" stroke="none"/>
    <path d="M-232.0 -252.0 L-232.9 -253.4 -228.25 -251.4 -229.15 -248.0 -232.0 -252.0" fill="url(#gradient3)" fill-rule="evenodd" stroke="none"/>
    <path d="M-228.25 -251.4 L-224.75 -249.9 -223.4 -248.4 -223.25 -246.65 -223.65 -245.9 -224.5 -247.0 -224.75 -246.9 -224.0 -242.4 -224.25 -240.65 -228.25 -242.65 -229.15 -246.15 -229.15 -248.0 -228.25 -251.4" fill="url(#gradient4)" fill-rule="evenodd" stroke="none"/>
    <path d="M-269.75 -300.0 L-269.0 -300.0 Q-259.0 -295.4 -251.65 -300.0 L-250.25 -300.0 -252.75 -298.9 -258.9 -297.25 -262.4 -297.65 -268.25 -299.25 -269.75 -300.0" fill="url(#gradient5)" fill-rule="evenodd" stroke="none"/>
    <path d="M-269.0 -300.0 L-251.65 -300.0 Q-259.0 -295.4 -269.0 -300.0" fill="url(#gradient6)" fill-rule="evenodd" stroke="none"/>
    <path d="M-188.25 -300.0 L-146.75 -300.0 -148.75 -291.15 -156.65 -274.65 -169.9 -256.5 -183.75 -244.25 -180.65 -251.4 -175.9 -258.9 -172.25 -272.65 -172.4 -273.0 -177.5 -272.75 -181.25 -272.9 -172.0 -280.75 -167.15 -284.5 -167.4 -285.0 -169.0 -285.9 -176.15 -290.25 -181.0 -273.15 -181.4 -273.0 -185.5 -295.65 Q-185.4 -296.4 -188.25 -300.0" fill="url(#gradient7)" fill-rule="evenodd" stroke="none"/>
    <path d="M-314.0 -270.4 L-313.75 -269.9 -314.0 -269.65 -320.4 -278.9 -327.0 -294.9 -328.4 -300.0 -325.4 -300.0 -322.0 -290.5 -320.4 -282.4 -314.0 -270.4" fill="url(#gradient8)" fill-rule="evenodd" stroke="none"/>
    <path d="M-270.75 -240.75 L-268.4 -243.15 -267.0 -244.4 -237.65 -244.5 -227.15 -240.75 -226.75 -240.5 -226.65 -240.15 -227.5 -240.15 -226.0 -238.65 -213.5 -207.4 -213.0 -198.75 Q-226.25 -209.75 -245.65 -205.9 -262.65 -202.25 -267.75 -187.75 L-267.9 -182.15 Q-269.5 -181.4 -270.9 -171.15 L-270.25 -164.0 -267.5 -157.75 Q-268.4 -156.65 -265.0 -148.15 L-259.65 -141.15 -256.4 -138.65 -246.25 -135.4 -238.15 -130.9 -236.25 -130.4 -286.4 -132.65 -294.5 -132.15 -292.4 -134.75 -292.5 -137.0 -292.15 -137.75 -289.9 -139.4 Q-289.5 -141.75 -284.65 -144.75 L-280.9 -150.75 -279.75 -158.0 -274.65 -166.25 -272.75 -174.0 -273.5 -182.5 -270.25 -187.5 -269.65 -189.4 -269.5 -195.75 -271.5 -201.4 -275.5 -205.75 -279.65 -207.4 -280.5 -208.65 -281.15 -208.9 -284.15 -209.75 -288.9 -209.75 -292.5 -209.25 -272.4 -238.25 -271.0 -238.4 -270.25 -240.25 -270.9 -240.25 -270.75 -240.75 M-219.5 -132.15 L-220.0 -129.9 -225.5 -130.0 -221.4 -131.15 -219.5 -132.15 M-297.65 -132.0 L-299.15 -131.9 -299.65 -132.75 -297.65 -132.0" fill="url(#gradient9)" fill-rule="evenodd" stroke="none"/>
    <path d="M-224.25 -240.65 L-223.25 -239.9 -226.75 -240.5 -227.15 -240.75 -229.65 -243.15 -228.25 -242.65 -224.25 -240.65" fill="url(#gradient10)" fill-rule="evenodd" stroke="none"/>
    <path d="M-223.25 -246.65 L-223.15 -245.4 -222.4 -239.75 -223.25 -239.9 -224.25 -240.65 -224.0 -242.4 -224.75 -246.9 -224.5 -247.0 -223.65 -245.9 -223.25 -246.65 M-228.25 -242.65 L-229.65 -243.15 -230.25 -243.5 -229.15 -246.15 -228.25 -242.65" fill="url(#gradient11)" fill-rule="evenodd" stroke="none"/>
    <path d="M-7.4 -267.0 L-7.5 -267.75 -6.9 -269.75 -6.25 -267.65 -6.4 -267.25 -7.4 -267.0" fill="url(#gradient12)" fill-rule="evenodd" stroke="none"/>
    <path d="M-19.15 -257.75 L-19.15 -258.15 -18.75 -258.75 -18.5 -259.0 -18.65 -258.4 -18.15 -258.75 -18.65 -258.0 -18.4 -257.9 -18.25 -258.15 -18.0 -257.9 -17.25 -258.9 -16.65 -258.65 -16.0 -259.0 -16.25 -259.25 -13.15 -260.25 -13.75 -260.0 -13.5 -259.75 -11.4 -260.0 -11.5 -259.9 -11.65 -259.4 -11.65 -259.0 -11.9 -258.4 -11.9 -258.15 -12.0 -257.9 -12.65 -252.4 -12.9 -252.5 -12.75 -252.15 -12.9 -251.0 -18.25 -256.7 -18.15 -256.65 -18.0 -257.15 -18.35 -256.8 -19.15 -257.65 -18.9 -258.0 -19.15 -257.75 M-7.9 -266.0 L-7.4 -267.0 -6.4 -267.25 -6.25 -267.65 -6.9 -269.75 Q-5.15 -272.15 -0.9 -270.0 L-0.9 -250.5 -1.0 -250.5 -1.75 -250.25 -2.15 -250.25 -2.15 -258.15 -2.9 -258.15 -3.0 -250.0 -4.15 -249.5 -4.4 -249.5 -4.65 -249.4 -4.75 -249.4 -4.15 -256.15 -4.25 -258.5 -5.15 -258.5 -5.4 -249.25 -6.5 -248.75 -8.25 -248.25 -8.4 -248.15 -8.9 -248.0 -9.15 -248.0 -9.4 -247.9 -9.9 -247.9 -8.9 -262.15 -8.75 -262.4 -8.65 -262.5 -8.4 -262.9 -8.0 -263.15 -7.4 -263.75 -7.0 -265.25 -7.4 -266.15 -7.9 -266.0 M-11.65 -259.0 L-11.85 -259.0 -12.25 -258.5 -12.0 -258.4 -11.65 -259.0 M-18.65 -257.65 L-19.0 -257.65 -18.75 -257.25 -18.65 -257.65 M-17.0 -256.25 L-16.9 -256.5 -17.25 -256.4 -17.0 -256.25 M-15.4 -259.15 L-15.5 -258.4 -15.25 -258.75 -15.0 -258.4 -14.65 -258.5 -14.75 -258.15 -14.5 -258.4 -14.25 -258.15 -15.15 -259.15 -14.5 -259.2 -15.4 -259.15 M-15.4 -257.9 L-15.9 -257.5 -15.4 -257.25 -15.4 -257.9 M-13.75 -253.0 L-13.5 -253.4 -14.0 -253.4 -13.75 -253.0 M-15.0 -255.5 L-15.0 -255.9 -15.5 -255.9 -15.0 -255.5 -14.75 -255.15 -14.4 -255.5 -15.0 -255.5 M-14.65 -254.75 L-14.0 -254.75 -14.4 -255.0 -14.65 -254.75 M-15.15 -256.4 L-15.0 -256.65 -15.4 -256.5 -15.15 -256.4 M-14.4 -259.65 L-13.9 -259.65 -14.15 -259.9 -14.4 -259.65" fill="url(#gradient13)" fill-rule="evenodd" stroke="none"/>
    <path d="M-0.9 -250.5 L-0.9 -242.4 Q-4.75 -245.9 -5.65 -245.5 L-11.0 -245.75 -12.75 -243.75 -19.5 -241.9 -21.65 -240.9 -22.65 -240.0 -22.4 -239.0 -22.9 -238.9 Q-23.75 -239.75 -21.15 -242.25 L-13.4 -247.75 -13.25 -247.9 -13.15 -247.9 -12.25 -247.5 -11.4 -247.5 -10.75 -247.65 -10.25 -247.65 -9.9 -247.75 -9.9 -247.9 -9.4 -247.9 -9.15 -248.0 -8.9 -248.0 -8.4 -248.15 -8.25 -248.25 -6.5 -248.75 -5.15 -249.25 -4.75 -249.4 -4.65 -249.4 -4.4 -249.5 -4.15 -249.5 -2.8 -250.0 -2.75 -250.0 -2.4 -250.15 -2.25 -250.15 -2.15 -250.25 -1.75 -250.25 -1.0 -250.5 -0.9 -250.5 M-1.0 -235.25 L-0.9 -235.15 -0.9 -223.9 -1.75 -223.65 -1.9 -230.5 -1.5 -234.5 -2.0 -236.15 Q-3.75 -243.15 -11.65 -242.25 L-12.0 -242.25 Q-2.0 -243.4 -1.0 -235.25" fill="url(#gradient14)" fill-rule="evenodd" stroke="none"/>
    <path d="M-3.0 -250.0 L-2.9 -258.15 -2.15 -258.15 -2.15 -250.25 -2.25 -250.15 -2.4 -250.15 -2.75 -250.0 -2.8 -250.0 -3.0 -250.0" fill="url(#gradient15)" fill-rule="evenodd" stroke="none"/>
    <path d="M-5.4 -249.25 L-5.15 -249.25 -6.5 -248.75 -5.4 -249.25 M-4.15 -249.5 L-3.0 -250.0 -2.8 -250.0 -4.15 -249.5" fill="url(#gradient16)" fill-rule="evenodd" stroke="none"/>
    <path d="M-10.75 -261.25 L-10.4 -261.65 -8.9 -265.15 -7.9 -266.0 -7.4 -266.15 -7.0 -265.25 -7.4 -263.75 -8.0 -263.15 -8.4 -262.9 -8.65 -262.75 -8.65 -262.5 -8.75 -262.4 -8.9 -262.15 -9.9 -247.9 -9.9 -247.75 -10.25 -247.65 -10.75 -247.65 -10.5 -258.4 -10.75 -260.25 -10.65 -261.25 -10.75 -261.25" fill="url(#gradient17)" fill-rule="evenodd" stroke="none"/>
    <path d="M-8.65 -262.5 L-8.65 -262.75 -8.4 -262.9 -8.65 -262.5" fill="url(#gradient18)" fill-rule="evenodd" stroke="none"/>
    <path d="M-11.25 -260.9 L-10.75 -261.25 -10.65 -261.25 -10.75 -260.25 -10.5 -258.4 -10.75 -247.65 -11.4 -247.5 -12.25 -247.5 -13.15 -247.9 -13.25 -247.9 -13.25 -248.75 -13.15 -249.0 -13.0 -249.65 -13.0 -250.0 -12.65 -250.5 -12.9 -251.0 -12.75 -252.15 -12.65 -252.15 -12.65 -252.4 -12.0 -257.9 -11.9 -258.15 -11.9 -258.4 -11.65 -259.0 -11.65 -259.4 -11.5 -259.9 -11.4 -260.0 -11.4 -260.25 -11.25 -260.75 -11.25 -260.9" fill="url(#gradient19)" fill-rule="evenodd" stroke="none"/>
    <path d="M-18.5 -259.0 L-16.5 -259.25 -16.25 -259.25 -16.0 -259.0 -16.65 -258.65 -17.25 -258.9 -18.0 -257.9 -18.25 -258.15 -18.4 -257.9 -18.65 -258.0 -18.15 -258.75 -18.65 -258.4 -18.5 -259.0 M-13.15 -260.25 L-11.5 -260.9 -11.25 -260.9 -11.25 -260.75 -11.4 -260.25 -11.4 -260.0 -13.5 -259.75 -13.75 -260.0 -13.15 -260.25 M-19.15 -257.75 L-18.9 -258.0 -19.15 -257.65 -19.15 -257.75 M-18.35 -256.8 L-18.0 -257.15 -18.15 -256.65 -18.25 -256.7 -18.4 -256.75 -18.35 -256.8 M-12.75 -252.15 L-12.9 -252.5 -12.65 -252.4 -12.65 -252.15 -12.75 -252.15 M-11.65 -259.0 L-12.0 -258.4 -12.25 -258.5 -11.85 -259.0 -11.65 -259.0 M-18.65 -257.65 L-18.75 -257.25 -19.0 -257.65 -18.65 -257.65 M-15.4 -257.9 L-15.4 -257.25 -15.9 -257.5 -15.4 -257.9 M-15.4 -259.15 L-14.5 -259.2 -15.15 -259.15 -14.25 -258.15 -14.5 -258.4 -14.75 -258.15 -14.65 -258.5 -15.0 -258.4 -15.25 -258.75 -15.5 -258.4 -15.4 -259.15 M-17.0 -256.25 L-17.25 -256.4 -16.9 -256.5 -17.0 -256.25 M-14.4 -259.65 L-14.15 -259.9 -13.9 -259.65 -14.4 -259.65 M-15.15 -256.4 L-15.4 -256.5 -15.0 -256.65 -15.15 -256.4 M-14.65 -254.75 L-14.4 -255.0 -14.0 -254.75 -14.65 -254.75 M-15.0 -255.5 L-14.4 -255.5 -14.75 -255.15 -15.0 -255.5 -15.5 -255.9 -15.0 -255.9 -15.0 -255.5 M-13.75 -253.0 L-14.0 -253.4 -13.5 -253.4 -13.75 -253.0" fill="url(#gradient20)" fill-rule="evenodd" stroke="none"/>
    <path d="M-13.25 -248.75 L-19.25 -255.0 -19.5 -255.65 -19.15 -257.75 -19.15 -257.65 -18.35 -256.8 -18.4 -256.75 -18.25 -256.7 -12.9 -251.0 -12.65 -250.5 -13.0 -250.0 -13.0 -249.65 -13.15 -249.0 -13.25 -248.75" fill="url(#gradient21)" fill-rule="evenodd" stroke="none"/>
    <path d="M-5.4 -249.25 L-5.15 -258.5 -4.25 -258.5 -4.15 -256.15 -4.75 -249.4 -5.15 -249.25 -5.4 -249.25" fill="url(#gradient22)" fill-rule="evenodd" stroke="none"/>
    <path d="M-13.4 -247.75 L-13.25 -248.75 -13.25 -247.9 -13.4 -247.75" fill="url(#gradient23)" fill-rule="evenodd" stroke="none"/>
    <path d="M-12.0 -240.65 L-19.15 -238.5 -18.9 -240.0 -16.25 -240.9 -16.15 -241.0 -15.0 -241.4 -14.5 -241.5 -14.15 -241.65 -13.75 -241.75 -13.4 -241.9 -12.9 -242.0 -12.15 -242.25 -12.0 -242.25 -11.65 -242.25 -12.0 -240.65 M-22.5 -237.4 L-23.0 -237.25 -22.9 -238.9 -22.4 -239.0 -22.5 -237.4" fill="url(#gradient24)" fill-rule="evenodd" stroke="none"/>
    <path d="M-0.9 -242.4 L-1.0 -235.25 Q-2.0 -243.4 -12.0 -242.25 L-12.15 -242.25 -12.9 -242.0 -13.4 -241.9 -13.75 -241.75 -14.15 -241.65 -14.5 -241.5 -15.0 -241.4 -16.15 -241.0 -16.25 -240.9 -18.9 -240.0 -22.4 -239.0 -22.65 -240.0 -21.65 -240.9 -19.5 -241.9 -12.75 -243.75 -11.0 -245.75 -5.65 -245.5 Q-4.75 -245.9 -0.9 -242.4" fill="url(#gradient25)" fill-rule="evenodd" stroke="none"/>
    <path d="M-19.15 -238.5 L-22.5 -237.4 -22.4 -239.0 -18.9 -240.0 -19.15 -238.5" fill="url(#gradient26)" fill-rule="evenodd" stroke="none"/>
    <path d="M-2.75 -235.4 L-4.0 -237.75 -5.25 -238.9 -8.5 -240.4 -12.0 -240.65 -11.65 -242.25 Q-3.75 -243.15 -2.0 -236.15 L-2.75 -235.4" fill="url(#gradient27)" fill-rule="evenodd" stroke="none"/>
    <path d="M-2.5 -223.25 L-2.65 -227.25 -2.25 -231.0 -2.75 -235.4 -2.0 -236.15 -1.5 -234.5 -1.9 -230.5 -1.75 -223.65 -2.5 -223.25" fill="url(#gradient28)" fill-rule="evenodd" stroke="none"/>
    <path d="M-271.15 -240.65 L-271.0 -240.65 -270.75 -240.75 -270.9 -240.25 -270.9 -240.15 -271.65 -240.0 -271.15 -240.65 M-301.0 -207.15 L-301.9 -217.15 -301.65 -217.5 -273.4 -238.75 -272.4 -238.25 -292.5 -209.25 -298.0 -208.25 -301.0 -207.15" fill="url(#gradient29)" fill-rule="evenodd" stroke="none"/>
    <path d="M-226.0 -238.65 L-227.5 -240.15 -226.65 -240.15 -223.25 -239.65 -224.65 -239.4 -225.0 -238.65 -226.0 -238.65 M-272.4 -238.25 L-273.4 -238.75 -273.5 -239.5 -271.65 -240.0 -270.9 -240.15 -270.9 -240.25 -270.25 -240.25 -271.0 -238.4 -272.4 -238.25" fill="url(#gradient30)" fill-rule="evenodd" stroke="none"/>
    <path d="M-297.15 -231.65 L-271.15 -240.65 -271.65 -240.0 -273.5 -239.5 -273.4 -238.75 -301.65 -217.5 -297.15 -231.65" fill="url(#gradient31)" fill-rule="evenodd" stroke="none"/>
    <path d="M-311.9 -225.5 L-311.75 -225.9 -297.15 -231.65 -301.65 -217.5 -301.9 -217.15 -301.0 -207.15 -304.4 -205.9 -311.0 -201.75 -312.0 -200.65 -315.9 -207.5 -311.9 -225.5" fill="url(#gradient32)" fill-rule="evenodd" stroke="none"/>
    <path d="M-326.5 -165.65 L-331.75 -163.0 -348.25 -150.4 -349.9 -149.5 -365.25 -143.65 -380.9 -156.0 -388.0 -166.4 -387.65 -166.75 -387.4 -166.9 -369.25 -177.25 -325.4 -208.9 -316.75 -219.5 -316.65 -219.75 -311.9 -225.5 -315.9 -207.5 -312.0 -200.65 -318.0 -194.4 -322.15 -188.25 -325.15 -181.0 -326.0 -175.15 -326.4 -174.9 -326.15 -174.75 -326.5 -173.9 -326.5 -165.65" fill="url(#gradient33)" fill-rule="evenodd" stroke="none"/>
    <path d="M-387.4 -166.9 L-367.5 -184.15 -346.4 -200.75 -326.4 -214.25 -316.75 -219.5 -325.4 -208.9 -369.25 -177.25 -387.4 -166.9" fill="url(#gradient34)" fill-rule="evenodd" stroke="none"/>
    <path d="M-219.15 -239.15 L-218.9 -239.15 -218.4 -239.0 -215.65 -238.5 -215.5 -238.5 -203.95 -236.4 -190.65 -233.75 -190.5 -233.4 -187.75 -219.15 -186.15 -193.4 -186.4 -193.0 -195.5 -182.75 -195.5 -206.0 -225.0 -238.65 -224.65 -239.4 -223.25 -239.65 -226.65 -240.15 -226.75 -240.5 -223.25 -239.9 -222.4 -239.75 -220.9 -239.5 -220.5 -239.4 -220.15 -239.4 -219.75 -239.25 -219.5 -239.25 -219.15 -239.15" fill="url(#gradient35)" fill-rule="evenodd" stroke="none"/>
    <path d="M-192.4 -176.75 L-195.0 -135.9 Q-198.65 -137.65 -199.15 -137.15 L-220.0 -129.9 -219.5 -132.15 Q-211.9 -132.65 -200.9 -148.65 L-197.75 -155.9 -196.5 -163.25 -196.75 -171.25 -199.15 -180.75 -202.25 -187.9 -207.0 -194.5 -209.4 -196.65 -213.0 -198.75 -213.5 -207.4 -226.0 -238.65 -225.0 -238.65 -195.5 -206.0 -195.5 -182.75 Q-195.9 -181.9 -192.15 -179.75 L-192.4 -176.75" fill="url(#gradient36)" fill-rule="evenodd" stroke="none"/>
    <path d="M-213.0 -198.75 L-209.4 -196.65 -207.0 -194.5 -202.25 -187.9 -199.15 -180.75 -196.75 -171.25 -196.5 -163.25 -197.75 -155.9 -200.9 -148.65 Q-211.9 -132.65 -219.5 -132.15 L-221.4 -131.15 -225.5 -130.0 -231.15 -129.65 -236.25 -130.4 -238.15 -130.9 -246.25 -135.4 -256.4 -138.65 -259.65 -141.15 -265.0 -148.15 Q-268.4 -156.65 -267.5 -157.75 L-270.25 -164.0 -270.9 -171.15 Q-269.5 -181.4 -267.9 -182.15 L-267.75 -187.75 Q-262.65 -202.25 -245.65 -205.9 -226.25 -209.75 -213.0 -198.75" fill="url(#gradient37)" fill-rule="evenodd" stroke="none"/>
    <path d="M-296.0 -67.75 L-296.0 -67.9 -295.75 -70.5 -295.75 -71.0 -295.65 -71.9 -295.65 -72.4 -295.5 -73.0 -295.4 -75.4 -294.0 -90.9 -293.75 -91.0 -299.15 -131.9 -297.65 -132.0 -294.5 -132.15 -286.4 -132.65 -236.25 -130.4 -231.15 -129.65 -225.5 -130.0 -220.0 -129.9 -233.0 -87.4 -237.4 -25.15 -255.0 -25.0 -292.25 -28.65 -298.9 -31.0 -298.9 -32.9 -297.65 -48.0 -297.15 -50.4 -297.25 -52.4 -296.0 -67.75" fill="url(#gradient38)" fill-rule="evenodd" stroke="none"/>
    <path d="M-303.25 -134.15 L-311.4 -138.9 -317.15 -144.4 -321.75 -150.9 -324.5 -157.15 -326.5 -165.65 -326.5 -173.9 -326.15 -174.75 -326.4 -174.9 -326.0 -175.15 -325.15 -181.0 -322.15 -188.25 -318.0 -194.4 -312.0 -200.65 -311.0 -201.75 -304.4 -205.9 -301.0 -207.15 -298.0 -208.25 -292.5 -209.25 -288.9 -209.75 -284.15 -209.75 -281.15 -208.9 -280.5 -208.65 -279.65 -207.4 -275.5 -205.75 -271.5 -201.4 -269.5 -195.75 -269.65 -189.4 -270.25 -187.5 -273.5 -182.5 -272.75 -174.0 -274.65 -166.25 -279.75 -158.0 -280.9 -150.75 -284.65 -144.75 Q-289.5 -141.75 -289.9 -139.4 L-292.15 -137.75 -292.5 -137.0 -292.4 -134.75 -294.5 -132.15 -297.65 -132.0 -299.65 -132.75 -303.25 -134.15" fill="url(#gradient39)" fill-rule="evenodd" stroke="none"/>
    <path d="M-203.95 -236.4 L-188.5 -233.75 -171.15 -221.65 -173.5 -219.4 -190.5 -233.4 -190.65 -233.75 -203.95 -236.4" fill="url(#gradient40)" fill-rule="evenodd" stroke="none"/>
    <path d="M-173.5 -219.4 L-187.75 -219.15 -190.5 -233.4 -173.5 -219.4" fill="url(#gradient41)" fill-rule="evenodd" stroke="none"/>
    <path d="M-118.4 -149.15 L-131.65 -151.15 -145.0 -157.4 -160.65 -166.65 -180.15 -174.0 -185.0 -189.65 -186.4 -193.0 -186.15 -193.4 -187.75 -219.15 -173.5 -219.4 -145.5 -206.5 -123.25 -197.4 -93.0 -183.15 -108.15 -163.75 -118.4 -149.15" fill="url(#gradient42)" fill-rule="evenodd" stroke="none"/>
    <path d="M-0.9 -223.9 L-0.9 -217.0 -4.25 -215.75 -29.5 -203.9 -49.5 -193.15 -69.0 -184.0 -73.9 -187.4 -43.5 -203.9 -14.15 -217.4 -2.5 -223.25 -1.75 -223.65 -0.9 -223.9" fill="url(#gradient43)" fill-rule="evenodd" stroke="none"/>
    <path d="M-90.0 -185.75 L-73.9 -187.4 -69.0 -184.0 -93.0 -183.15 -90.0 -185.75" fill="url(#gradient44)" fill-rule="evenodd" stroke="none"/>
    <path d="M-171.15 -221.65 L-142.15 -208.5 -90.0 -185.75 -93.0 -183.15 -123.25 -197.4 -145.5 -206.5 -173.5 -219.4 -171.15 -221.65" fill="url(#gradient45)" fill-rule="evenodd" stroke="none"/>
    <path d="M-0.9 -217.0 L-1.15 -186.0 -39.5 -166.15 -35.65 -176.65 -49.5 -193.15 -29.5 -203.9 -4.25 -215.75 -0.9 -217.0" fill="url(#gradient46)" fill-rule="evenodd" stroke="none"/>
    <path d="M-39.5 -166.15 L-60.9 -153.75 -52.65 -167.4 -35.65 -176.65 -39.5 -166.15" fill="url(#gradient47)" fill-rule="evenodd" stroke="none"/>
    <path d="M-49.5 -193.15 L-35.65 -176.65 -69.0 -184.0 -49.5 -193.15" fill="url(#gradient48)" fill-rule="evenodd" stroke="none"/>
    <path d="M-60.9 -153.75 L-77.65 -144.9 -118.4 -149.15 -108.15 -163.75 -93.0 -183.15 -69.0 -184.0 -35.65 -176.65 -52.65 -167.4 -60.9 -153.75" fill="url(#gradient49)" fill-rule="evenodd" stroke="none"/>
    <path d="M-180.15 -174.0 L-192.4 -176.75 -192.15 -179.75 Q-195.9 -181.9 -195.5 -182.75 L-186.4 -193.0 -185.0 -189.65 -180.15 -174.0" fill="url(#gradient50)" fill-rule="evenodd" stroke="none"/>
    <path d="M-399.9 -133.65 L-400.0 -150.65 -388.0 -166.4 -380.9 -156.0 -365.25 -143.65 -365.0 -142.75 -362.9 -128.5 -361.65 -126.5 -357.75 -118.4 -377.4 -117.15 -385.75 -113.15 -398.65 -129.75 -399.9 -133.65" fill="url(#gradient51)" fill-rule="evenodd" stroke="none"/>
    <path d="M-398.9 -129.4 L-400.0 -132.65 -399.9 -133.65 -398.65 -129.75 -398.9 -129.4" fill="url(#gradient52)" fill-rule="evenodd" stroke="none"/>
    <path d="M-344.65 -54.4 L-355.4 -68.9 -369.0 -85.75 -396.9 -126.0 -398.9 -129.4 -398.65 -129.75 -385.75 -113.15 -375.65 -100.25 -366.65 -86.9 -352.4 -68.15 -343.75 -58.75 -344.4 -58.15 -344.65 -54.4" fill="url(#gradient53)" fill-rule="evenodd" stroke="none"/>
    <path d="M-349.9 -149.5 L-360.0 -137.0 -353.0 -128.15 -350.75 -110.5 -351.15 -110.9 -365.0 -142.75 -365.25 -143.65 -349.9 -149.5" fill="url(#gradient54)" fill-rule="evenodd" stroke="none"/>
    <path d="M-365.0 -142.75 L-351.15 -110.9 -352.25 -112.4 -361.65 -126.5 -362.9 -128.5 -365.0 -142.75" fill="url(#gradient55)" fill-rule="evenodd" stroke="none"/>
    <path d="M-361.65 -126.5 L-352.25 -112.4 -357.15 -117.65 -357.75 -118.4 -361.65 -126.5" fill="url(#gradient56)" fill-rule="evenodd" stroke="none"/>
    <path d="M-385.75 -113.15 L-377.4 -117.15 -357.75 -118.4 -357.15 -117.65 -345.0 -94.65 -337.0 -83.65 -336.4 -83.25 -330.5 -73.9 -329.9 -73.5 -322.75 -63.75 -328.9 -61.15 Q-329.4 -63.0 -338.4 -64.15 L-342.4 -62.0 -343.75 -58.75 -352.4 -68.15 -366.65 -86.9 -375.65 -100.25 -385.75 -113.15" fill="url(#gradient57)" fill-rule="evenodd" stroke="none"/>
    <path d="M-299.5 -35.75 L-296.0 -67.75 -297.25 -52.4 -297.15 -50.4 -297.65 -48.0 -298.9 -32.9 -299.5 -35.75 M-295.4 -75.4 L-294.65 -92.4 -303.25 -134.15 -299.65 -132.75 -299.15 -131.9 -293.75 -91.0 -294.0 -90.9 -295.4 -75.4" fill="url(#gradient58)" fill-rule="evenodd" stroke="none"/>
    <path d="M-195.0 -135.9 L-201.65 -110.15 -206.15 -86.25 -206.9 -70.4 -209.9 -31.65 -211.75 -30.15 -214.5 -28.9 -221.75 -27.4 -237.4 -25.15 -233.0 -87.4 -220.0 -129.9 -199.15 -137.15 Q-198.65 -137.65 -195.0 -135.9" fill="url(#gradient59)" fill-rule="evenodd" stroke="none"/>
    <path d="M-209.9 -31.65 L-205.9 -14.0 -211.75 -30.15 -209.9 -31.65" fill="url(#gradient60)" fill-rule="evenodd" stroke="none"/>
    <path d="M-205.9 -14.0 L-205.9 -13.9 -205.75 -13.4 -205.65 -13.25 -201.4 -1.0 -201.65 -0.9 -214.5 -28.9 -211.75 -30.15 -205.9 -14.0" fill="url(#gradient61)" fill-rule="evenodd" stroke="none"/>
    <path d="M-201.65 -0.9 L-230.75 -0.9 -237.4 -25.15 -221.75 -27.4 -214.5 -28.9 -201.65 -0.9" fill="url(#gradient62)" fill-rule="evenodd" stroke="none"/>
    <path d="M-350.75 -110.5 L-333.15 -90.0 -327.65 -80.15 -318.75 -70.9 -316.4 -64.15 Q-320.5 -69.4 -323.65 -69.4 -325.25 -68.0 -321.0 -63.15 L-322.75 -63.75 -329.9 -73.5 -330.5 -73.9 -336.4 -83.25 -337.0 -83.65 -345.0 -94.65 -357.15 -117.65 -352.25 -112.4 -351.15 -110.9 -350.75 -110.5" fill="url(#gradient63)" fill-rule="evenodd" stroke="none"/>
    <path d="M-316.4 -64.15 Q-312.4 -59.15 -315.4 -50.4 -318.25 -44.5 -325.15 -42.15 -341.15 -39.4 -344.65 -54.4 L-344.4 -58.15 -343.75 -58.75 -342.4 -62.0 -338.4 -64.15 Q-329.4 -63.0 -328.9 -61.15 L-322.75 -63.75 -321.0 -63.15 Q-325.25 -68.0 -323.65 -69.4 -320.5 -69.4 -316.4 -64.15" fill="url(#gradient64)" fill-rule="evenodd" stroke="none"/>
    <path d="M-313.0 -0.9 L-319.4 -0.9 -319.15 -3.65 -299.5 -35.75 -298.9 -32.9 -298.9 -31.0 -313.0 -0.9" fill="url(#gradient65)" fill-rule="evenodd" stroke="none"/>
    <path d="M-230.75 -0.9 L-313.0 -0.9 -298.9 -31.0 -292.25 -28.65 -255.0 -25.0 -237.4 -25.15 -230.75 -0.9" fill="url(#gradient66)" fill-rule="evenodd" stroke="none"/>
    <path d="M-285.4 -250.15 L-278.75 -250.65 -280.15 -248.9 -285.4 -250.15" fill="#ac0000" fill-rule="evenodd" stroke="none"/>
    <path d="M-216.5 -244.15 L-216.9 -244.4 -216.75 -244.75 -217.25 -246.9 -217.25 -247.15 -217.65 -249.0 -217.5 -249.0 -216.65 -247.25 -216.65 -247.0 -216.4 -245.0 -216.5 -244.15 M-227.4 -250.0 L-224.9 -248.5 -224.75 -248.25 -223.5 -247.4 -223.25 -246.65 -223.65 -245.9 -223.4 -245.75 -223.4 -245.65 -223.15 -245.4 -222.9 -242.65 -222.75 -242.25 -222.4 -239.75 -222.0 -239.75 -220.5 -239.4 -220.15 -239.4 -219.75 -239.25 -219.5 -239.25 -219.15 -239.15 -218.9 -239.15 -218.4 -239.0 -218.15 -239.0 -217.0 -238.75 -216.9 -238.75 -216.75 -238.65 -218.15 -221.15 -218.65 -220.25 -218.65 -219.65 -219.65 -216.9 -219.65 -216.5 -223.75 -203.0 -223.75 -202.9 -225.25 -197.75 -219.65 -195.0 -219.4 -194.75 -214.25 -192.15 -213.5 -191.9 -207.75 -189.0 -207.65 -188.75 -201.5 -185.75 -204.65 -185.4 -204.75 -185.25 -209.75 -184.75 -210.25 -184.65 -226.75 -182.65 -227.25 -182.5 -237.75 -181.4 -236.65 -186.4 -236.5 -186.65 -233.15 -199.75 -233.0 -200.0 -232.25 -201.75 -232.0 -203.4 -231.65 -204.0 -231.65 -204.25 -226.0 -220.75 -225.4 -225.65 -225.5 -226.15 -224.4 -234.15 -224.5 -235.15 -224.15 -237.4 -224.25 -237.9 -224.0 -238.9 -224.0 -239.4 -223.9 -239.65 -224.0 -240.0 -223.9 -240.25 -224.0 -240.5 -223.9 -240.75 -223.65 -242.65 -224.15 -243.15 -224.25 -243.4 -224.25 -244.0 -224.5 -244.4 -224.9 -244.65 -225.0 -245.4 -227.15 -249.4 -227.4 -250.0 M-217.75 -239.5 L-216.65 -240.25 -216.4 -242.25 -215.75 -240.9 -216.65 -240.25 -216.75 -239.5 -217.75 -239.5 M-278.75 -250.65 L-267.65 -246.9 -267.4 -246.65 -264.9 -245.5 Q-265.75 -245.1 -266.65 -244.75 L-266.65 -244.65 -267.15 -244.25 -267.4 -244.0 -267.75 -243.75 -277.15 -248.15 -279.9 -248.75 -280.15 -248.75 -280.15 -248.9 -278.75 -250.65" fill="#9b0000" fill-opacity="0.9098039" fill-rule="evenodd" stroke="none"/>
    <path d="M-328.5 -188.25 L-317.15 -195.25 -316.9 -195.65 -316.75 -195.75 -316.65 -195.9 -315.25 -196.75 -314.65 -197.0 -312.5 -198.5 -312.0 -199.0 -310.0 -202.25 -309.75 -202.4 -301.65 -214.5 -301.65 -215.0 -300.65 -216.25 -298.4 -219.65 -297.75 -220.4 -297.0 -221.5 -294.4 -232.25 -294.5 -232.5 -286.9 -235.15 -288.5 -227.4 -288.75 -227.0 -288.65 -226.75 -289.9 -221.65 -298.5 -208.15 -298.9 -207.65 -299.0 -207.5 -299.25 -207.0 -299.5 -206.9 -299.4 -206.9 -300.9 -204.5 -301.15 -204.25 -303.5 -200.25 -303.9 -200.0 -304.9 -198.15 -305.65 -195.0 -305.75 -194.75 -307.25 -188.5 -307.4 -188.25 -309.4 -180.5 -309.5 -180.25 -311.4 -173.25 -315.15 -176.5 -315.5 -176.9 -316.25 -177.4 -316.4 -177.75 -322.5 -183.15 -322.9 -183.4 -322.9 -183.5 -323.5 -184.0 -323.75 -184.15 -328.25 -188.15 -328.4 -188.25 -328.5 -188.25 M-287.9 -247.4 L-285.4 -250.15 -280.15 -248.9 -280.15 -248.75 -283.25 -244.75 -287.9 -247.4" fill="#9e0000" fill-opacity="0.9098039" fill-rule="evenodd" stroke="none"/>
    <path d="M-217.5 -249.0 L-217.65 -249.0 -217.25 -247.15 -217.25 -246.9 -216.75 -244.75 -216.9 -244.4 -216.5 -244.15 -216.4 -242.25 -216.65 -240.25 -217.75 -239.5 -218.15 -239.4 -219.15 -239.15 -219.5 -239.25 -219.75 -239.25 -220.15 -239.4 -220.5 -239.4 -222.0 -239.75 -222.4 -239.75 -222.75 -242.25 -222.9 -242.65 -223.15 -245.4 -223.4 -245.65 -223.4 -245.75 -223.65 -245.9 -223.25 -246.65 -223.5 -247.4 -224.75 -248.25 -224.9 -248.5 -227.4 -250.0 -226.4 -250.0 -226.15 -250.15 -225.65 -250.25 -217.9 -250.25 -217.75 -249.65 -217.5 -249.0" fill="#a90000" fill-rule="evenodd" stroke="none"/>
    <path d="M-201.5 -185.75 L-201.5 -185.5 -201.9 -178.9 -202.25 -178.25 -202.0 -176.75 -202.5 -169.65 -202.75 -169.25 -202.5 -168.75 -203.0 -161.75 -203.15 -161.5 -203.0 -160.75 -204.5 -154.15 -204.65 -153.9 -206.0 -147.65 -206.25 -147.4 -206.15 -147.0 -207.25 -142.4 -207.5 -142.15 -207.4 -141.75 -207.65 -140.9 -207.9 -140.4 -208.15 -139.5 -208.0 -139.0 -210.0 -130.65 -248.0 -132.9 -287.5 -134.25 -295.5 -135.0 -295.5 -135.15 -300.5 -135.15 -301.0 -135.0 -304.9 -134.9 -305.4 -135.4 -305.75 -135.5 -305.75 -135.65 -311.4 -139.0 -311.9 -139.65 -317.4 -144.75 -317.5 -144.9 -317.5 -145.25 -321.65 -150.9 -321.9 -151.65 -324.75 -158.0 -324.9 -159.15 -326.5 -165.65 -326.4 -166.9 -326.65 -171.0 -326.5 -173.65 -326.0 -175.4 -324.9 -181.4 -324.9 -181.75 -328.25 -188.15 -323.75 -184.15 -323.5 -184.0 -322.9 -183.5 -322.9 -183.4 -322.5 -183.15 -316.4 -177.75 -316.25 -177.4 -315.5 -176.9 -315.15 -176.5 -311.4 -173.25 -303.4 -167.0 -293.4 -159.5 -293.0 -159.4 -288.25 -155.75 -288.15 -155.4 -281.9 -150.9 -281.65 -150.75 -281.25 -150.25 -275.5 -146.0 -268.9 -149.65 -268.75 -149.9 -250.5 -160.4 -250.4 -160.65 -244.0 -164.25 -242.5 -168.15 -242.25 -168.4 -239.15 -177.75 -238.9 -178.0 -237.75 -181.4 -227.25 -182.5 -226.75 -182.65 -210.25 -184.65 -209.75 -184.75 -204.75 -185.25 -204.65 -185.4 -201.5 -185.75 M-233.65 -155.25 L-233.9 -155.65 -234.65 -156.25 -235.15 -155.75 -235.4 -155.15 -235.4 -155.0 -235.0 -154.25 -235.0 -153.15 -234.15 -153.9 -233.65 -155.25 M-313.9 -155.5 L-313.15 -152.25 -312.9 -152.15 -312.65 -152.25 -312.75 -152.65 -313.9 -155.5" fill="#b00000" fill-opacity="0.9098039" fill-rule="evenodd" stroke="none"/>
    <path d="M-218.15 -239.4 L-217.75 -239.5 -216.75 -239.5 -216.9 -238.75 -217.0 -238.75 -218.15 -239.0 -218.4 -239.0 -218.15 -239.4" fill="#ab0000" fill-opacity="0.9098039" fill-rule="evenodd" stroke="none"/>
    <path d="M-219.15 -239.15 L-218.15 -239.4 -218.4 -239.0 -218.9 -239.15 -219.15 -239.15" fill="#ab0000" fill-rule="evenodd" stroke="none"/>
    <path d="M-294.5 -232.5 L-292.25 -241.65 -287.9 -247.4 -283.25 -244.75 -285.4 -241.9 -286.9 -235.15 -294.5 -232.5" fill="#ae0000" fill-opacity="0.9098039" fill-rule="evenodd" stroke="none"/>
    <path d="M-333.9 -161.4 L-333.75 -162.25 -333.75 -162.65 -332.5 -168.5 -332.4 -169.4 -332.0 -171.25 -331.9 -171.5 -328.5 -188.25 -328.4 -188.25 -328.25 -188.15 -324.9 -181.75 -324.9 -181.4 -326.0 -175.4 -326.5 -173.65 -326.65 -171.0 -326.4 -166.9 -326.5 -165.65 -331.65 -163.0 -331.75 -162.9 -333.9 -161.4" fill="#c40000" fill-rule="evenodd" stroke="none"/>
    <path d="M-319.5 -142.75 L-320.0 -143.65 -334.0 -161.15 -333.9 -161.4 -331.75 -162.9 -331.65 -163.0 -326.5 -165.65 -324.9 -159.15 -324.75 -158.0 -321.9 -151.65 -321.65 -150.9 -317.5 -145.25 -317.5 -144.9 -317.4 -144.75 -311.9 -139.65 -311.4 -139.0 -305.75 -135.65 -305.75 -135.5 -305.4 -135.4 -304.9 -134.9 -305.0 -134.75 -312.75 -134.4 -319.5 -142.75" fill="#c60000" fill-rule="evenodd" stroke="none"/>
    <path d="M-201.5 -185.5 L-201.4 -185.5 -200.9 -184.75 -195.9 -178.75 -195.9 -178.4 -195.4 -178.15 -195.15 -177.4 -192.65 -174.65 -192.4 -174.0 -193.65 -159.5 -195.0 -136.25 -195.65 -136.0 -199.15 -135.0 -199.4 -134.75 -199.5 -134.5 -210.0 -130.65 -208.0 -139.0 -208.15 -139.5 -207.9 -140.4 -207.65 -140.9 -207.4 -141.75 -207.5 -142.15 -207.25 -142.4 -206.15 -147.0 -206.25 -147.4 -206.0 -147.65 -204.65 -153.9 -204.5 -154.15 -203.0 -160.75 -203.15 -161.5 -203.0 -161.75 -202.5 -168.75 -202.75 -169.25 -202.5 -169.65 -202.0 -176.75 -202.25 -178.25 -201.9 -178.9 -201.5 -185.5" fill="#d30000" fill-opacity="0.9098039" fill-rule="evenodd" stroke="none"/>
    <path d="M-210.0 -130.65 L-199.5 -134.5 -199.4 -134.75 -199.15 -135.0 -195.65 -136.0 -195.0 -136.25 -195.0 -135.75 -196.4 -130.75 -196.25 -130.5 -197.5 -125.25 -202.4 -106.4 -202.25 -106.15 -202.5 -105.9 -202.4 -105.5 -206.15 -85.65 -207.25 -67.9 -207.15 -66.25 -210.0 -31.5 -208.5 -25.65 -207.75 -21.9 -208.65 -21.4 -208.75 -21.25 -209.5 -20.75 -209.75 -20.65 -210.75 -20.4 -211.0 -20.4 -216.4 -19.0 -235.0 -16.25 -235.25 -16.15 -236.25 -16.0 -235.75 -18.65 -235.75 -19.65 -235.0 -22.5 -235.15 -22.9 -231.9 -38.9 -231.75 -41.0 -231.9 -41.5 -230.4 -61.4 -230.5 -61.9 -228.9 -82.0 -229.0 -82.4 -228.75 -84.9 -218.4 -109.9 -218.25 -110.9 -210.0 -130.65" fill="#dd0000" fill-opacity="0.9098039" fill-rule="evenodd" stroke="none"/>
    <path d="M-192.4 -174.0 L-184.9 -164.75 -180.0 -148.0 -180.4 -147.15 -184.25 -139.75 -184.5 -139.5 -185.65 -139.15 -186.25 -139.5 -187.0 -139.4 -195.0 -136.25 -193.65 -159.5 -192.4 -174.0 M-209.75 -20.65 L-209.5 -20.75 -208.75 -21.25 -208.65 -21.4 -207.75 -21.9 -206.65 -16.4 -206.25 -15.15 -206.25 -15.0 -206.15 -14.75 -205.25 -11.65 -205.65 -12.15 -206.25 -13.65 -206.4 -13.75 -206.5 -14.15 -206.5 -14.25 -206.65 -14.5 -206.65 -14.75 -209.75 -20.65 M-319.25 -2.4 L-319.15 -3.5 -317.9 -5.65 -316.5 -7.5 -319.25 -2.4" fill="#e80000" fill-opacity="0.9098039" fill-rule="evenodd" stroke="none"/>
    <path d="M-319.75 -0.9 L-327.5 -0.9 -309.15 -29.15 -308.65 -23.25 -314.15 -12.25 -316.5 -7.5 -317.9 -5.65 -319.15 -3.5 -319.25 -2.4 -319.25 -1.65 -319.5 -1.25 -319.75 -0.9 M-309.25 -36.65 L-310.15 -49.9 -308.0 -70.65 -306.9 -90.65 -319.5 -142.75 -312.75 -134.4 -305.65 -90.15 -309.4 -46.65 -309.25 -36.65" fill="#fd0000" fill-rule="evenodd" stroke="none"/>
    <path d="M-309.0 -29.4 L-309.25 -36.65 -309.4 -46.65 -305.65 -90.15 -312.75 -134.4 -305.0 -134.75 -304.9 -134.9 -303.25 -134.15 -295.15 -95.15 -295.0 -94.75 -294.65 -91.75 -295.0 -81.4 -295.4 -74.9 -295.5 -73.0 -295.65 -72.4 -295.65 -71.9 -295.75 -71.0 -295.75 -70.5 -295.9 -69.9 -295.9 -69.15 -296.0 -68.75 -296.0 -67.75 -298.4 -44.25 -298.4 -43.9 -298.5 -43.4 -299.5 -35.75 -302.15 -31.65 -305.4 -31.15 -309.0 -29.4" fill="#bc0000" fill-rule="evenodd" stroke="none"/>
    <path d="M-180.4 -147.15 L-180.25 -146.9 -182.75 -137.65 -185.65 -139.15 -184.5 -139.5 -184.25 -139.75 -180.4 -147.15" fill="#ea0000" fill-rule="evenodd" stroke="none"/>
    <path d="M-182.75 -137.65 L-192.9 -104.0 -188.4 -125.0 -188.5 -125.4 -188.25 -125.65 -188.4 -125.9 -188.5 -125.4 -197.4 -90.4 -197.5 -125.25 -196.25 -130.5 -196.4 -130.75 -195.0 -135.75 -185.65 -139.15 -182.75 -137.65 M-194.5 -97.65 L-194.4 -97.4 -197.4 -84.65 -197.65 -88.25 -194.5 -97.65" fill="#f40000" fill-rule="evenodd" stroke="none"/>
    <path d="M-195.0 -136.25 L-187.0 -139.4 -186.25 -139.5 -185.65 -139.15 -195.0 -135.75 -195.0 -136.25" fill="#f30000" fill-opacity="0.9098039" fill-rule="evenodd" stroke="none"/>
    <path d="M-210.0 -130.65 L-218.25 -110.9 -218.4 -109.9 -228.75 -84.9 -229.0 -82.4 -228.9 -82.0 -230.5 -61.9 -230.4 -61.4 -231.9 -41.5 -231.75 -41.0 -231.9 -38.9 -235.15 -22.9 -235.0 -22.5 -235.75 -19.65 -235.75 -18.65 -236.25 -16.0 -254.5 -15.65 -300.5 -20.15 -307.5 -22.75 -302.15 -31.65 -299.5 -35.75 -298.5 -43.4 -298.4 -43.9 -298.4 -44.25 -296.0 -67.75 -296.0 -68.75 -295.9 -69.15 -295.9 -69.9 -295.75 -70.5 -295.75 -71.0 -295.65 -71.9 -295.65 -72.4 -295.5 -73.0 -295.4 -74.9 -295.0 -81.4 -294.65 -91.75 -295.0 -94.75 -295.15 -95.15 -303.25 -134.15 -304.9 -134.9 -301.0 -135.0 -300.5 -135.15 -295.5 -135.15 -295.5 -135.0 -287.5 -134.25 -248.0 -132.9 -210.0 -130.65" fill="#a70000" fill-opacity="0.9098039" fill-rule="evenodd" stroke="none"/>
    <path d="M-309.15 -29.15 L-309.0 -29.4 -305.4 -31.15 -302.15 -31.65 -307.5 -22.75 -308.65 -23.25 -309.15 -29.15" fill="#bd0000" fill-rule="evenodd" stroke="none"/>
    <path d="M-201.5 -0.9 L-231.9 -0.9 -236.25 -16.0 -235.25 -16.15 -235.0 -16.25 -216.4 -19.0 -211.0 -20.4 -210.75 -20.4 -209.75 -20.65 -206.65 -14.75 -206.65 -14.5 -206.5 -14.25 -206.5 -14.15 -206.4 -13.75 -206.25 -13.65 -205.65 -12.15 -205.15 -11.0 -204.75 -10.4 -204.65 -10.15 -204.5 -9.9 -204.4 -9.5 -204.25 -9.25 -203.65 -7.9 -201.65 -1.25 -201.5 -0.9" fill="#c80000" fill-opacity="0.9098039" fill-rule="evenodd" stroke="none"/>
    <path d="M-207.75 -21.9 L-208.5 -25.65 -204.75 -24.4 -206.65 -22.5 -207.75 -21.9" fill="#ef0000" fill-rule="evenodd" stroke="none"/>
    <path d="M-197.4 -84.65 L-199.9 -43.65 -204.75 -24.4 -208.5 -25.65 -210.0 -31.5 -207.15 -66.25 -207.25 -67.9 -206.15 -85.65 -202.4 -105.5 -202.5 -105.9 -202.25 -106.15 -202.4 -106.4 -197.5 -125.25 -197.4 -90.4 -197.65 -88.25 -197.4 -84.65" fill="#ed0000" fill-rule="evenodd" stroke="none"/>
    <path d="M-192.9 -104.0 L-194.5 -97.65 -197.65 -88.25 -197.4 -90.4 -188.5 -125.4 -188.4 -125.9 -188.25 -125.65 -188.5 -125.4 -188.4 -125.0 -192.9 -104.0" fill="#f30000" fill-rule="evenodd" stroke="none"/>
    <path d="M-204.75 -24.4 L-200.65 -7.15 -205.5 -19.15 -200.15 -1.5 -200.15 -1.15 -200.25 -1.25 -200.4 -1.5 -203.25 -7.4 -203.4 -7.65 -203.5 -7.9 -203.65 -8.15 -203.75 -8.4 -203.9 -8.65 -204.0 -8.9 -204.15 -9.15 -204.15 -9.25 -204.25 -9.25 -204.25 -9.5 -204.4 -9.5 -204.5 -9.9 -204.65 -10.15 -204.75 -10.4 -205.15 -11.0 -205.25 -11.5 -205.25 -11.65 -206.15 -14.75 -206.25 -15.0 -206.25 -15.15 -206.65 -16.4 -207.75 -21.9 -206.65 -22.5 -204.75 -24.4 M-200.15 -1.0 L-200.15 -1.15 -200.0 -1.15 -200.15 -1.0" fill="#fa0000" fill-rule="evenodd" stroke="none"/>
    <path d="M-205.25 -11.65 L-205.25 -11.5 -205.15 -11.0 -205.65 -12.15 -205.25 -11.65" fill="#dd0000" fill-rule="evenodd" stroke="none"/>
    <path d="M-319.4 -0.9 L-319.75 -0.9 -319.5 -1.25 -319.4 -0.9 M-314.15 -12.25 L-308.65 -23.25 -307.5 -22.75 -313.75 -12.4 -314.15 -12.25" fill="#ba0000" fill-rule="evenodd" stroke="none"/>
    <path d="M-231.9 -0.9 L-319.4 -0.9 -319.5 -1.25 -319.25 -1.65 -319.25 -2.4 -316.5 -7.5 -314.15 -12.25 -313.75 -12.4 -307.5 -22.75 -300.5 -20.15 -254.5 -15.65 -236.25 -16.0 -231.9 -0.9" fill="#a40000" fill-opacity="0.9098039" fill-rule="evenodd" stroke="none"/>
    <path d="M-204.4 -9.5 L-204.25 -9.5 -204.25 -9.25 -204.15 -9.25 -204.15 -9.15 -204.0 -8.9 -203.9 -8.65 -203.75 -8.4 -203.65 -8.15 -203.5 -7.9 -203.65 -7.9 -204.25 -9.25 -204.4 -9.5" fill="#de0000" fill-rule="evenodd" stroke="none"/>
    <path d="M-200.15 -0.9 L-201.5 -0.9 -201.65 -1.25 -203.65 -7.9 -203.5 -7.9 -203.4 -7.65 -203.25 -7.4 -200.4 -1.5 -200.25 -1.25 -200.15 -1.15 -200.15 -1.0 -200.15 -0.9" fill="#da0000" fill-rule="evenodd" stroke="none"/>
    <path d="M-200.65 -7.15 L-199.25 -2.75 -198.9 -0.9 -200.15 -0.9 -200.15 -1.0 -200.0 -1.15 -200.15 -1.15 -200.15 -1.5 -205.5 -19.15 -200.65 -7.15" fill="#fe0000" fill-rule="evenodd" stroke="none"/>
    <path d="M-199.25 -2.75 L-198.4 -0.9 -198.9 -0.9 -199.25 -2.75" fill="#ff0000" fill-rule="evenodd" stroke="none"/>
  </g>
  <defs>
    <radialGradient cx="0" cy="0" gradientTransform="matrix(0.1828, 0.0, 0.0, 0.1828, -178.7, -279.75)" gradientUnits="userSpaceOnUse" id="gradient0" r="819.2" spreadMethod="pad">
      <stop offset="0.0" stop-color="#5a5a5a"/>
      <stop offset="1.0" stop-color="#1b1b1b"/>
    </radialGradient>
    <radialGradient cx="0" cy="0" gradientTransform="matrix(0.095, 0.0, 0.0, 0.095, -237.7, -273.65)" gradientUnits="userSpaceOnUse" id="gradient1" r="819.2" spreadMethod="pad">
      <stop offset="0.0" stop-color="#7d7d7d"/>
      <stop offset="1.0" stop-color="#070707"/>
    </radialGradient>
    <radialGradient cx="0" cy="0" gradientTransform="matrix(0.0439, 0.0, 0.0, 0.0439, -260.7, -252.9)" gradientUnits="userSpaceOnUse" id="gradient2" r="819.2" spreadMethod="pad">
      <stop offset="0.0" stop-color="#1a1a1a"/>
      <stop offset="1.0" stop-color="#000000"/>
    </radialGradient>
    <radialGradient cx="0" cy="0" gradientTransform="matrix(0.0198, 0.0, 0.0, 0.0198, -238.25, -261.35)" gradientUnits="userSpaceOnUse" id="gradient3" r="819.2" spreadMethod="pad">
      <stop offset="0.0" stop-color="#797979"/>
      <stop offset="1.0" stop-color="#000000"/>
    </radialGradient>
    <radialGradient cx="0" cy="0" gradientTransform="matrix(0.2852, 0.0, 0.0, 0.2852, -223.1, -249.4)" gradientUnits="userSpaceOnUse" id="gradient4" r="819.2" spreadMethod="pad">
      <stop offset="0.0" stop-color="#101010"/>
      <stop offset="1.0" stop-color="#000000"/>
    </radialGradient>
    <radialGradient cx="0" cy="0" gradientTransform="matrix(0.0167, 0.0, 0.0, 0.0167, -256.1, -298.4)" gradientUnits="userSpaceOnUse" id="gradient5" r="819.2" spreadMethod="pad">
      <stop offset="0.0" stop-color="#ff3030"/>
      <stop offset="1.0" stop-color="#4b0000"/>
    </radialGradient>
    <radialGradient cx="0" cy="0" gradientTransform="matrix(0.0158, 0.0, 0.0, 0.0158, -256.1, -298.4)" gradientUnits="userSpaceOnUse" id="gradient6" r="819.2" spreadMethod="pad">
      <stop offset="0.0" stop-color="#ff3030"/>
      <stop offset="1.0" stop-color="#ff2e2e"/>
    </radialGradient>
    <radialGradient cx="0" cy="0" gradientTransform="matrix(0.0516, 0.0, 0.0, 0.0516, -156.05, -275.9)" gradientUnits="userSpaceOnUse" id="gradient7" r="819.2" spreadMethod="pad">
      <stop offset="0.0" stop-color="#3f3f3f"/>
      <stop offset="1.0" stop-color="#222222"/>
    </radialGradient>
    <radialGradient cx="0" cy="0" gradientTransform="matrix(0.041, 0.0, 0.0, 0.041, -325.35, -300.0)" gradientUnits="userSpaceOnUse" id="gradient8" r="819.2" spreadMethod="pad">
      <stop offset="0.0" stop-color="#343434"/>
      <stop offset="1.0" stop-color="#2d2d2d"/>
    </radialGradient>
    <radialGradient cx="0" cy="0" gradientTransform="matrix(0.151, 0.0, 0.0, 0.151, -287.3, -132.75)" gradientUnits="userSpaceOnUse" id="gradient9" r="819.2" spreadMethod="pad">
      <stop offset="0.0" stop-color="#6a6a6a"/>
      <stop offset="1.0" stop-color="#000000"/>
    </radialGradient>
    <radialGradient cx="0" cy="0" gradientTransform="matrix(0.0378, 0.0, 0.0, 0.0378, -230.3, -243.65)" gradientUnits="userSpaceOnUse" id="gradient10" r="819.2" spreadMethod="pad">
      <stop offset="0.0" stop-color="#000000"/>
      <stop offset="1.0" stop-color="#000000"/>
    </radialGradient>
    <radialGradient cx="0" cy="0" gradientTransform="matrix(0.0323, 0.0, 0.0, 0.0323, -223.25, -245.65)" gradientUnits="userSpaceOnUse" id="gradient11" r="819.2" spreadMethod="pad">
      <stop offset="0.0" stop-color="#7b7b7b"/>
      <stop offset="1.0" stop-color="#090909"/>
    </radialGradient>
    <radialGradient cx="0" cy="0" gradientTransform="matrix(0.0035, 0.0, 0.0, 0.0035, -7.5, -267.6)" gradientUnits="userSpaceOnUse" id="gradient12" r="819.2" spreadMethod="pad">
      <stop offset="0.0" stop-color="#262626"/>
      <stop offset="1.0" stop-color="#262626"/>
    </radialGradient>
    <radialGradient cx="0" cy="0" gradientTransform="matrix(0.0175, 0.0, 0.0, 0.0175, -10.6, -261.25)" gradientUnits="userSpaceOnUse" id="gradient13" r="819.2" spreadMethod="pad">
      <stop offset="0.0" stop-color="#040404"/>
      <stop offset="1.0" stop-color="#040404"/>
    </radialGradient>
    <radialGradient cx="0" cy="0" gradientTransform="matrix(0.0247, 0.0, 0.0, 0.0247, -5.05, -241.05)" gradientUnits="userSpaceOnUse" id="gradient14" r="819.2" spreadMethod="pad">
      <stop offset="0.0" stop-color="#040404"/>
      <stop offset="1.0" stop-color="#040404"/>
    </radialGradient>
    <radialGradient cx="0" cy="0" gradientTransform="matrix(0.01, 0.0, 0.0, 0.01, -2.25, -258.2)" gradientUnits="userSpaceOnUse" id="gradient15" r="819.2" spreadMethod="pad">
      <stop offset="0.0" stop-color="#020202"/>
      <stop offset="1.0" stop-color="#020202"/>
    </radialGradient>
    <radialGradient cx="0" cy="0" gradientTransform="matrix(0.0106, 0.0, 0.0, 0.0106, -9.3, -248.0)" gradientUnits="userSpaceOnUse" id="gradient16" r="819.2" spreadMethod="pad">
      <stop offset="0.0" stop-color="#040404"/>
      <stop offset="1.0" stop-color="#040404"/>
    </radialGradient>
    <radialGradient cx="0" cy="0" gradientTransform="matrix(0.0221, 0.0, 0.0, 0.0221, -8.45, -265.7)" gradientUnits="userSpaceOnUse" id="gradient17" r="819.2" spreadMethod="pad">
      <stop offset="0.0" stop-color="#171717"/>
      <stop offset="1.0" stop-color="#171717"/>
    </radialGradient>
    <radialGradient cx="0" cy="0" gradientTransform="matrix(0.0034, 0.0, 0.0, 0.0034, -8.6, -262.55)" gradientUnits="userSpaceOnUse" id="gradient18" r="819.2" spreadMethod="pad">
      <stop offset="0.0" stop-color="#828282"/>
      <stop offset="1.0" stop-color="#818181"/>
    </radialGradient>
    <radialGradient cx="0" cy="0" gradientTransform="matrix(0.0094, 0.0, 0.0, 0.0094, -12.45, -255.2)" gradientUnits="userSpaceOnUse" id="gradient19" r="819.2" spreadMethod="pad">
      <stop offset="0.0" stop-color="#020202"/>
      <stop offset="1.0" stop-color="#020202"/>
    </radialGradient>
    <radialGradient cx="0" cy="0" gradientTransform="matrix(0.0087, 0.0, 0.0, 0.0087, -11.85, -257.6)" gradientUnits="userSpaceOnUse" id="gradient20" r="819.2" spreadMethod="pad">
      <stop offset="0.0" stop-color="#171717"/>
      <stop offset="1.0" stop-color="#171717"/>
    </radialGradient>
    <radialGradient cx="0" cy="0" gradientTransform="matrix(0.0139, 0.0, 0.0, 0.0139, -19.1, -258.25)" gradientUnits="userSpaceOnUse" id="gradient21" r="819.2" spreadMethod="pad">
      <stop offset="0.0" stop-color="#2c2c2c"/>
      <stop offset="1.0" stop-color="#1e1e1e"/>
    </radialGradient>
    <radialGradient cx="0" cy="0" gradientTransform="matrix(0.0115, 0.0, 0.0, 0.0115, -4.3, -258.65)" gradientUnits="userSpaceOnUse" id="gradient22" r="819.2" spreadMethod="pad">
      <stop offset="0.0" stop-color="#020202"/>
      <stop offset="1.0" stop-color="#020202"/>
    </radialGradient>
    <radialGradient cx="0" cy="0" gradientTransform="matrix(0.0063, 0.0, 0.0, 0.0063, -12.65, -251.15)" gradientUnits="userSpaceOnUse" id="gradient23" r="819.2" spreadMethod="pad">
      <stop offset="0.0" stop-color="#202020"/>
      <stop offset="1.0" stop-color="#1f1f1f"/>
    </radialGradient>
    <radialGradient cx="0" cy="0" gradientTransform="matrix(0.0151, 0.0, 0.0, 0.0151, -22.95, -237.35)" gradientUnits="userSpaceOnUse" id="gradient24" r="819.2" spreadMethod="pad">
      <stop offset="0.0" stop-color="#040404"/>
      <stop offset="1.0" stop-color="#040404"/>
    </radialGradient>
    <radialGradient cx="0" cy="0" gradientTransform="matrix(0.0245, 0.0, 0.0, 0.0245, -2.8, -244.15)" gradientUnits="userSpaceOnUse" id="gradient25" r="819.2" spreadMethod="pad">
      <stop offset="0.0" stop-color="#030303"/>
      <stop offset="1.0" stop-color="#030303"/>
    </radialGradient>
    <radialGradient cx="0" cy="0" gradientTransform="matrix(0.0153, 0.0, 0.0, 0.0153, -22.45, -237.4)" gradientUnits="userSpaceOnUse" id="gradient26" r="819.2" spreadMethod="pad">
      <stop offset="0.0" stop-color="#030303"/>
      <stop offset="1.0" stop-color="#030303"/>
    </radialGradient>
    <radialGradient cx="0" cy="0" gradientTransform="matrix(0.014, 0.0, 0.0, 0.014, -2.65, -235.2)" gradientUnits="userSpaceOnUse" id="gradient27" r="819.2" spreadMethod="pad">
      <stop offset="0.0" stop-color="#1f1f1f"/>
      <stop offset="1.0" stop-color="#040404"/>
    </radialGradient>
    <radialGradient cx="0" cy="0" gradientTransform="matrix(0.0115, 0.0, 0.0, 0.0115, -2.45, -229.35)" gradientUnits="userSpaceOnUse" id="gradient28" r="819.2" spreadMethod="pad">
      <stop offset="0.0" stop-color="#2d2d2d"/>
      <stop offset="1.0" stop-color="#2b2b2b"/>
    </radialGradient>
    <radialGradient cx="0" cy="0" gradientTransform="matrix(0.0741, 0.0, 0.0, 0.0741, -299.3, -187.5)" gradientUnits="userSpaceOnUse" id="gradient29" r="819.2" spreadMethod="pad">
      <stop offset="0.0" stop-color="#171717"/>
      <stop offset="1.0" stop-color="#000000"/>
    </radialGradient>
    <radialGradient cx="0" cy="0" gradientTransform="matrix(0.1169, 0.0, 0.0, 0.1169, -279.65, -162.2)" gradientUnits="userSpaceOnUse" id="gradient30" r="819.2" spreadMethod="pad">
      <stop offset="0.0" stop-color="#010101"/>
      <stop offset="1.0" stop-color="#000000"/>
    </radialGradient>
    <radialGradient cx="0" cy="0" gradientTransform="matrix(0.0478, 0.0, 0.0, 0.0478, -270.5, -240.95)" gradientUnits="userSpaceOnUse" id="gradient31" r="819.2" spreadMethod="pad">
      <stop offset="0.0" stop-color="#000000"/>
      <stop offset="1.0" stop-color="#000000"/>
    </radialGradient>
    <radialGradient cx="0" cy="0" gradientTransform="matrix(0.0541, 0.0, 0.0, 0.0541, -299.3, -187.5)" gradientUnits="userSpaceOnUse" id="gradient32" r="819.2" spreadMethod="pad">
      <stop offset="0.0" stop-color="#171717"/>
      <stop offset="1.0" stop-color="#000000"/>
    </radialGradient>
    <radialGradient cx="0" cy="0" gradientTransform="matrix(0.0909, 0.0, 0.0, 0.0909, -346.85, -160.3)" gradientUnits="userSpaceOnUse" id="gradient33" r="819.2" spreadMethod="pad">
      <stop offset="0.0" stop-color="#6a6a6a"/>
      <stop offset="1.0" stop-color="#000000"/>
    </radialGradient>
    <radialGradient cx="0" cy="0" gradientTransform="matrix(0.0881, 0.0, 0.0, 0.0881, -366.15, -185.25)" gradientUnits="userSpaceOnUse" id="gradient34" r="819.2" spreadMethod="pad">
      <stop offset="0.0" stop-color="#0f0f0f"/>
      <stop offset="1.0" stop-color="#040404"/>
    </radialGradient>
    <radialGradient cx="0" cy="0" gradientTransform="matrix(0.076, 0.0, 0.0, 0.076, -186.25, -193.45)" gradientUnits="userSpaceOnUse" id="gradient35" r="819.2" spreadMethod="pad">
      <stop offset="0.0" stop-color="#595959"/>
      <stop offset="1.0" stop-color="#000000"/>
    </radialGradient>
    <radialGradient cx="0" cy="0" gradientTransform="matrix(0.1088, 0.0, 0.0, 0.1088, -193.65, -157.9)" gradientUnits="userSpaceOnUse" id="gradient36" r="819.2" spreadMethod="pad">
      <stop offset="0.0" stop-color="#3f3f3f"/>
      <stop offset="1.0" stop-color="#000000"/>
    </radialGradient>
    <radialGradient cx="0" cy="0" gradientTransform="matrix(0.0836, 0.0, 0.0, 0.0836, -248.15, -141.35)" gradientUnits="userSpaceOnUse" id="gradient37" r="819.2" spreadMethod="pad">
      <stop offset="0.0" stop-color="#878787"/>
      <stop offset="1.0" stop-color="#000000"/>
    </radialGradient>
    <radialGradient cx="0" cy="0" gradientTransform="matrix(0.1446, 0.0, 0.0, 0.1446, -287.3, -132.75)" gradientUnits="userSpaceOnUse" id="gradient38" r="819.2" spreadMethod="pad">
      <stop offset="0.0" stop-color="#6a6a6a"/>
      <stop offset="1.0" stop-color="#000000"/>
    </radialGradient>
    <radialGradient cx="0" cy="0" gradientTransform="matrix(0.0819, 0.0, 0.0, 0.0819, -300.25, -145.4)" gradientUnits="userSpaceOnUse" id="gradient39" r="819.2" spreadMethod="pad">
      <stop offset="0.0" stop-color="#858585"/>
      <stop offset="1.0" stop-color="#000000"/>
    </radialGradient>
    <radialGradient cx="0" cy="0" gradientTransform="matrix(0.045, 0.0, 0.0, 0.045, -190.7, -233.8)" gradientUnits="userSpaceOnUse" id="gradient40" r="819.2" spreadMethod="pad">
      <stop offset="0.0" stop-color="#000000"/>
      <stop offset="1.0" stop-color="#000000"/>
    </radialGradient>
    <radialGradient cx="0" cy="0" gradientTransform="matrix(0.0182, 0.0, 0.0, 0.0182, -187.7, -219.2)" gradientUnits="userSpaceOnUse" id="gradient41" r="819.2" spreadMethod="pad">
      <stop offset="0.0" stop-color="#000000"/>
      <stop offset="1.0" stop-color="#000000"/>
    </radialGradient>
    <radialGradient cx="0" cy="0" gradientTransform="matrix(0.0896, 0.0, 0.0, 0.0896, -166.2, -188.15)" gradientUnits="userSpaceOnUse" id="gradient42" r="819.2" spreadMethod="pad">
      <stop offset="0.0" stop-color="#616161"/>
      <stop offset="1.0" stop-color="#000000"/>
    </radialGradient>
    <radialGradient cx="0" cy="0" gradientTransform="matrix(0.07, 0.0, 0.0, 0.07, -49.5, -193.3)" gradientUnits="userSpaceOnUse" id="gradient43" r="819.2" spreadMethod="pad">
      <stop offset="0.0" stop-color="#000000"/>
      <stop offset="1.0" stop-color="#000000"/>
    </radialGradient>
    <radialGradient cx="0" cy="0" gradientTransform="matrix(0.0293, 0.0, 0.0, 0.0293, -92.95, -183.2)" gradientUnits="userSpaceOnUse" id="gradient44" r="819.2" spreadMethod="pad">
      <stop offset="0.0" stop-color="#000000"/>
      <stop offset="1.0" stop-color="#000000"/>
    </radialGradient>
    <radialGradient cx="0" cy="0" gradientTransform="matrix(0.0726, 0.0, 0.0, 0.0726, -145.65, -206.75)" gradientUnits="userSpaceOnUse" id="gradient45" r="819.2" spreadMethod="pad">
      <stop offset="0.0" stop-color="#000000"/>
      <stop offset="1.0" stop-color="#000000"/>
    </radialGradient>
    <radialGradient cx="0" cy="0" gradientTransform="matrix(0.0499, 0.0, 0.0, 0.0499, -10.4, -181.25)" gradientUnits="userSpaceOnUse" id="gradient46" r="819.2" spreadMethod="pad">
      <stop offset="0.0" stop-color="#000000"/>
      <stop offset="1.0" stop-color="#000000"/>
    </radialGradient>
    <radialGradient cx="0" cy="0" gradientTransform="matrix(0.0418, 0.0, 0.0, 0.0418, -60.95, -153.75)" gradientUnits="userSpaceOnUse" id="gradient47" r="819.2" spreadMethod="pad">
      <stop offset="0.0" stop-color="#161616"/>
      <stop offset="1.0" stop-color="#000000"/>
    </radialGradient>
    <radialGradient cx="0" cy="0" gradientTransform="matrix(0.0264, 0.0, 0.0, 0.0264, -49.5, -193.3)" gradientUnits="userSpaceOnUse" id="gradient48" r="819.2" spreadMethod="pad">
      <stop offset="0.0" stop-color="#000000"/>
      <stop offset="1.0" stop-color="#000000"/>
    </radialGradient>
    <radialGradient cx="0" cy="0" gradientTransform="matrix(0.0703, 0.0, 0.0, 0.0703, -60.95, -153.75)" gradientUnits="userSpaceOnUse" id="gradient49" r="819.2" spreadMethod="pad">
      <stop offset="0.0" stop-color="#161616"/>
      <stop offset="1.0" stop-color="#000000"/>
    </radialGradient>
    <radialGradient cx="0" cy="0" gradientTransform="matrix(0.0249, 0.0, 0.0, 0.0249, -186.25, -193.45)" gradientUnits="userSpaceOnUse" id="gradient50" r="819.2" spreadMethod="pad">
      <stop offset="0.0" stop-color="#595959"/>
      <stop offset="1.0" stop-color="#000000"/>
    </radialGradient>
    <radialGradient cx="0" cy="0" gradientTransform="matrix(0.0653, 0.0, 0.0, 0.0653, -385.75, -113.1)" gradientUnits="userSpaceOnUse" id="gradient51" r="819.2" spreadMethod="pad">
      <stop offset="0.0" stop-color="#393939"/>
      <stop offset="1.0" stop-color="#000000"/>
    </radialGradient>
    <radialGradient cx="0" cy="0" gradientTransform="matrix(0.0053, 0.0, 0.0, 0.0053, -400.0, -133.1)" gradientUnits="userSpaceOnUse" id="gradient52" r="819.2" spreadMethod="pad">
      <stop offset="0.0" stop-color="#3f3f3f"/>
      <stop offset="1.0" stop-color="#2f2f2f"/>
    </radialGradient>
    <radialGradient cx="0" cy="0" gradientTransform="matrix(0.0943, 0.0, 0.0, 0.0943, -352.2, -68.25)" gradientUnits="userSpaceOnUse" id="gradient53" r="819.2" spreadMethod="pad">
      <stop offset="0.0" stop-color="#505050"/>
      <stop offset="1.0" stop-color="#2a2a2a"/>
    </radialGradient>
    <radialGradient cx="0" cy="0" gradientTransform="matrix(0.0486, 0.0, 0.0, 0.0486, -350.6, -109.9)" gradientUnits="userSpaceOnUse" id="gradient54" r="819.2" spreadMethod="pad">
      <stop offset="0.0" stop-color="#292929"/>
      <stop offset="1.0" stop-color="#000000"/>
    </radialGradient>
    <radialGradient cx="0" cy="0" gradientTransform="matrix(0.045, 0.0, 0.0, 0.045, -350.6, -109.9)" gradientUnits="userSpaceOnUse" id="gradient55" r="819.2" spreadMethod="pad">
      <stop offset="0.0" stop-color="#292929"/>
      <stop offset="1.0" stop-color="#010101"/>
    </radialGradient>
    <radialGradient cx="0" cy="0" gradientTransform="matrix(0.0271, 0.0, 0.0, 0.0271, -350.6, -109.9)" gradientUnits="userSpaceOnUse" id="gradient56" r="819.2" spreadMethod="pad">
      <stop offset="0.0" stop-color="#292929"/>
      <stop offset="1.0" stop-color="#000000"/>
    </radialGradient>
    <radialGradient cx="0" cy="0" gradientTransform="matrix(0.0684, 0.0, 0.0, 0.0684, -352.2, -68.25)" gradientUnits="userSpaceOnUse" id="gradient57" r="819.2" spreadMethod="pad">
      <stop offset="0.0" stop-color="#505050"/>
      <stop offset="1.0" stop-color="#131313"/>
    </radialGradient>
    <radialGradient cx="0" cy="0" gradientTransform="matrix(0.0744, 0.0, 0.0, 0.0744, -294.55, -91.9)" gradientUnits="userSpaceOnUse" id="gradient58" r="819.2" spreadMethod="pad">
      <stop offset="0.0" stop-color="#838383"/>
      <stop offset="1.0" stop-color="#212121"/>
    </radialGradient>
    <radialGradient cx="0" cy="0" gradientTransform="matrix(0.1297, 0.0, 0.0, 0.1297, -209.9, -31.75)" gradientUnits="userSpaceOnUse" id="gradient59" r="819.2" spreadMethod="pad">
      <stop offset="0.0" stop-color="#666666"/>
      <stop offset="1.0" stop-color="#0e0e0e"/>
    </radialGradient>
    <radialGradient cx="0" cy="0" gradientTransform="matrix(0.0385, 0.0, 0.0, 0.0385, -209.9, -31.75)" gradientUnits="userSpaceOnUse" id="gradient60" r="819.2" spreadMethod="pad">
      <stop offset="0.0" stop-color="#666666"/>
      <stop offset="1.0" stop-color="#5b5b5b"/>
    </radialGradient>
    <radialGradient cx="0" cy="0" gradientTransform="matrix(0.0379, 0.0, 0.0, 0.0379, -201.45, -1.0)" gradientUnits="userSpaceOnUse" id="gradient61" r="819.2" spreadMethod="pad">
      <stop offset="0.0" stop-color="#515151"/>
      <stop offset="1.0" stop-color="#454545"/>
    </radialGradient>
    <radialGradient cx="0" cy="0" gradientTransform="matrix(0.0527, 0.0, 0.0, 0.0527, -201.7, -1.0)" gradientUnits="userSpaceOnUse" id="gradient62" r="819.2" spreadMethod="pad">
      <stop offset="0.0" stop-color="#171717"/>
      <stop offset="1.0" stop-color="#000000"/>
    </radialGradient>
    <radialGradient cx="0" cy="0" gradientTransform="matrix(0.0596, 0.0, 0.0, 0.0596, -327.45, -80.15)" gradientUnits="userSpaceOnUse" id="gradient63" r="819.2" spreadMethod="pad">
      <stop offset="0.0" stop-color="#3a3a3a"/>
      <stop offset="1.0" stop-color="#000000"/>
    </radialGradient>
    <radialGradient cx="0" cy="0" gradientTransform="matrix(0.0373, 0.0, 0.0, 0.0373, -314.2, -58.2)" gradientUnits="userSpaceOnUse" id="gradient64" r="819.2" spreadMethod="pad">
      <stop offset="0.0" stop-color="#858585"/>
      <stop offset="1.0" stop-color="#2c2c2c"/>
    </radialGradient>
    <radialGradient cx="0" cy="0" gradientTransform="matrix(0.046, 0.0, 0.0, 0.046, -312.9, -1.0)" gradientUnits="userSpaceOnUse" id="gradient65" r="819.2" spreadMethod="pad">
      <stop offset="0.0" stop-color="#4f4f4f"/>
      <stop offset="1.0" stop-color="#1d1d1d"/>
    </radialGradient>
    <radialGradient cx="0" cy="0" gradientTransform="matrix(0.1001, 0.0, 0.0, 0.1001, -312.9, -1.0)" gradientUnits="userSpaceOnUse" id="gradient66" r="819.2" spreadMethod="pad">
      <stop offset="0.0" stop-color="#4f4f4f"/>
      <stop offset="1.0" stop-color="#000000"/>
    </radialGradient>
  </defs>
</svg>
