<?xml version="1.0" encoding="UTF-8" standalone="no"?>
<svg xmlns:xlink="http://www.w3.org/1999/xlink" height="299.1px" width="399.1px" xmlns="http://www.w3.org/2000/svg">
  <g transform="matrix(1.0, 0.0, 0.0, 1.0, 400.0, 300.0)">
    <path d="M-267.25 -243.4 L-279.0 -242.5 -302.65 -256.25 -310.65 -267.65 -311.4 -267.9 -313.0 -269.9 -318.9 -281.5 -319.65 -282.4 -321.0 -290.65 -324.4 -300.0 -308.9 -300.0 -303.5 -287.75 -297.65 -278.4 -295.75 -276.4 -290.15 -268.15 -280.4 -259.4 -262.75 -249.5 -260.5 -248.9 -261.9 -246.4 -266.0 -244.4 -267.25 -243.4 M-183.75 -244.15 Q-189.15 -243.5 -192.15 -245.15 L-203.25 -237.75 Q-206.75 -240.9 -207.4 -240.65 L-219.5 -239.25 -222.15 -239.75 -222.9 -245.4 -216.0 -247.0 -203.9 -251.25 -191.4 -259.5 -186.5 -263.25 -177.75 -272.25 -172.15 -272.65 -171.75 -272.65 -171.75 -272.25 -175.65 -258.65 -180.5 -251.4 -183.75 -244.15 M-169.0 -285.65 L-166.65 -284.0 -172.9 -279.0 -169.5 -284.25 -169.0 -285.65" fill="url(#gradient0)" fill-rule="evenodd" stroke="none"/>
    <path d="M-308.9 -300.0 L-269.15 -300.0 -263.75 -298.0 -260.15 -297.15 -257.0 -297.0 -251.5 -298.5 -248.25 -300.0 -187.75 -300.0 -184.65 -295.5 -180.75 -272.15 -177.75 -272.25 -186.5 -263.25 -191.4 -259.5 -203.9 -251.25 -216.0 -247.0 -222.9 -245.4 -223.0 -245.65 -223.25 -245.75 -223.0 -246.75 -222.9 -247.65 -224.25 -249.75 -227.75 -251.25 -231.9 -253.25 -232.25 -253.0 -231.4 -251.9 -237.25 -254.0 -240.5 -253.9 -247.75 -254.5 -252.65 -254.0 -256.5 -254.25 Q-256.65 -253.5 -260.25 -251.65 L-260.5 -248.9 -262.75 -249.5 -280.4 -259.4 -290.15 -268.15 -295.75 -276.4 -297.65 -278.4 -303.5 -287.75 -308.9 -300.0 M-169.0 -285.65 L-169.5 -284.25 -172.9 -279.0 -180.4 -272.65 -175.5 -289.5 -175.0 -289.65 -169.0 -285.65" fill="url(#gradient1)" fill-rule="evenodd" stroke="none"/>
    <path d="M-260.5 -248.9 L-260.25 -251.65 Q-256.65 -253.5 -256.5 -254.25 L-252.65 -254.0 -247.75 -254.5 -240.5 -253.9 -237.25 -254.0 -231.4 -251.9 -228.65 -247.9 -228.65 -246.0 -229.75 -243.5 -229.15 -243.15 -226.4 -240.75 -236.9 -244.5 -266.0 -244.4 -261.9 -246.4 -260.5 -248.9" fill="url(#gradient2)" fill-rule="evenodd" stroke="none"/>
    <path d="M-231.4 -251.9 L-232.25 -253.0 -231.9 -253.25 -227.75 -251.25 -228.65 -247.9 -231.4 -251.9" fill="url(#gradient3)" fill-rule="evenodd" stroke="none"/>
    <path d="M-227.75 -251.25 L-224.25 -249.75 -222.9 -247.65 -223.0 -246.75 -223.25 -245.75 -224.25 -247.0 -224.4 -246.75 Q-223.9 -246.4 -223.65 -242.15 L-224.0 -240.65 -227.9 -242.65 -228.65 -246.0 -228.65 -247.9 -227.75 -251.25" fill="url(#gradient4)" fill-rule="evenodd" stroke="none"/>
    <path d="M-269.15 -300.0 L-268.4 -300.0 -266.0 -299.0 -260.25 -297.5 -257.5 -297.4 -251.25 -299.15 -249.4 -300.0 -248.25 -300.0 -251.5 -298.5 -257.0 -297.0 -260.15 -297.15 -263.75 -298.0 -269.15 -300.0" fill="url(#gradient5)" fill-rule="evenodd" stroke="none"/>
    <path d="M-268.4 -300.0 L-249.4 -300.0 -251.25 -299.15 -257.5 -297.4 -260.25 -297.5 -266.0 -299.0 -268.4 -300.0" fill="url(#gradient6)" fill-rule="evenodd" stroke="none"/>
    <path d="M-187.75 -300.0 L-146.75 -300.0 Q-152.75 -269.5 -183.75 -244.15 L-180.5 -251.4 -175.65 -258.65 -171.75 -272.25 -171.75 -272.65 -172.15 -272.65 -177.75 -272.25 -180.75 -272.15 -184.65 -295.5 -187.75 -300.0 M-172.9 -279.0 L-166.65 -284.0 -169.0 -285.65 -175.0 -289.65 -175.5 -289.5 -180.4 -272.65 -172.9 -279.0" fill="url(#gradient7)" fill-rule="evenodd" stroke="none"/>
    <path d="M-313.0 -269.9 L-313.25 -269.65 -319.9 -279.15 -326.15 -294.75 -327.65 -300.0 -324.4 -300.0 -321.0 -290.65 -319.65 -282.4 -318.9 -281.5 -313.0 -269.9" fill="url(#gradient8)" fill-rule="evenodd" stroke="none"/>
    <path d="M-270.15 -240.75 L-267.25 -243.4 -266.0 -244.4 -236.9 -244.5 -226.4 -240.75 -226.0 -240.5 -225.9 -240.15 -226.65 -240.0 -225.25 -238.65 -212.5 -207.15 -212.0 -199.0 Q-223.75 -209.65 -244.5 -206.0 -261.9 -202.0 -266.4 -188.0 L-266.65 -183.75 -266.4 -182.5 -267.65 -180.4 -269.5 -172.65 -268.65 -164.15 -266.0 -158.15 Q-266.9 -156.9 -263.4 -148.4 L-258.65 -141.9 -255.0 -139.15 -244.9 -135.9 -236.4 -131.25 -234.75 -130.9 -286.4 -133.25 -293.4 -132.75 -291.15 -135.4 -291.15 -138.25 -288.25 -140.15 Q-288.4 -142.0 -283.15 -145.4 L-279.4 -151.5 Q-279.65 -158.4 -273.0 -167.25 L-271.25 -174.5 -272.0 -182.75 Q-267.4 -189.25 -268.25 -190.9 -267.4 -196.25 -270.0 -201.25 L-274.15 -205.9 Q-279.65 -207.65 -279.75 -209.0 L-283.5 -210.0 -287.65 -210.0 -291.5 -209.5 -271.5 -238.4 -270.15 -238.65 -269.5 -240.4 -270.0 -240.25 -270.15 -240.5 -270.15 -240.75 M-218.5 -132.65 L-219.0 -130.4 -224.15 -130.65 -218.5 -132.65 M-298.65 -133.4 L-296.25 -132.5 -298.15 -132.4 -298.65 -133.4" fill="url(#gradient9)" fill-rule="evenodd" stroke="none"/>
    <path d="M-224.0 -240.65 L-222.9 -239.9 -226.0 -240.5 -226.4 -240.75 -229.15 -243.15 -227.9 -242.65 -224.0 -240.65" fill="url(#gradient10)" fill-rule="evenodd" stroke="none"/>
    <path d="M-223.25 -245.75 L-223.0 -245.65 -222.9 -245.4 -222.15 -239.75 -222.9 -239.9 -224.0 -240.65 -223.65 -242.15 Q-223.9 -246.4 -224.4 -246.75 L-224.25 -247.0 -223.25 -245.75 M-228.65 -246.0 L-227.9 -242.65 -229.15 -243.15 -229.75 -243.5 -228.65 -246.0" fill="url(#gradient11)" fill-rule="evenodd" stroke="none"/>
    <path d="M-8.65 -266.0 L-8.75 -266.65 -7.9 -268.9 -7.4 -266.25 -8.65 -266.0" fill="url(#gradient12)" fill-rule="evenodd" stroke="none"/>
    <path d="M-20.0 -257.25 L-20.0 -257.5 -19.5 -258.0 -19.4 -258.15 -19.5 -257.5 -18.9 -258.2 -19.4 -257.5 -19.5 -256.9 -18.9 -257.9 -18.5 -258.15 -18.0 -257.9 -17.65 -258.4 -17.4 -257.9 -17.0 -258.25 -17.25 -258.4 -14.4 -259.25 -15.0 -259.0 -15.0 -258.65 -13.15 -258.65 -14.65 -258.75 -12.9 -259.4 -12.4 -259.15 -12.5 -258.9 -12.5 -258.65 -12.9 -257.5 -12.9 -257.25 -13.9 -250.25 -20.15 -256.75 -19.65 -257.0 -19.65 -257.5 -20.0 -257.25 M-18.75 -257.75 L-19.15 -257.25 -18.75 -257.25 -18.75 -257.75 M-19.9 -256.5 L-19.65 -256.4 -19.65 -256.75 -19.9 -256.5 M-16.5 -254.0 L-16.15 -253.65 -15.25 -254.4 -16.5 -254.0 M-16.25 -258.25 L-16.15 -258.5 -16.5 -258.4 -16.25 -257.65 -17.15 -257.5 -16.65 -257.25 -17.0 -256.9 -16.4 -257.15 -16.75 -256.4 -16.5 -256.25 -17.0 -255.9 -16.4 -256.25 -16.25 -257.4 -15.75 -257.75 -15.9 -257.5 -15.5 -257.5 -15.5 -257.9 -16.25 -258.25 M-7.9 -268.9 Q-6.15 -271.15 -1.0 -268.65 L-0.9 -257.4 Q-1.65 -256.9 -1.5 -251.4 L-1.25 -250.0 -2.65 -249.5 -3.25 -249.4 -3.25 -257.25 -4.15 -257.15 -4.15 -249.25 -4.15 -249.15 -4.65 -248.9 -5.75 -248.65 -5.25 -257.65 -6.15 -257.65 -6.65 -248.25 -9.75 -247.25 -10.0 -247.25 -10.4 -247.15 -10.9 -247.15 -9.9 -261.15 -9.75 -261.4 -9.65 -261.65 -9.4 -261.9 -8.15 -263.15 -8.15 -264.25 -8.4 -265.15 -8.9 -265.15 -8.65 -266.0 -7.4 -266.25 -7.9 -268.9 M-12.4 -260.0 L-12.5 -259.65 -13.0 -259.75 -12.4 -260.0 M-13.9 -256.9 L-13.75 -257.25 -14.65 -257.15 -13.9 -256.9" fill="url(#gradient13)" fill-rule="evenodd" stroke="none"/>
    <path d="M-0.9 -257.4 L-0.9 -250.0 -1.25 -250.0 -1.5 -251.4 Q-1.65 -256.9 -0.9 -257.4" fill="url(#gradient14)" fill-rule="evenodd" stroke="none"/>
    <path d="M-0.9 -250.0 L-0.9 -239.75 Q-3.9 -246.0 -12.0 -245.0 L-13.75 -243.0 -20.25 -241.25 -23.0 -240.0 -23.5 -239.4 -23.4 -238.25 -23.9 -238.25 -23.9 -239.0 -23.9 -239.5 -22.25 -241.4 -14.65 -246.9 -14.15 -247.15 -13.4 -246.75 -12.0 -246.75 -10.9 -247.15 -10.4 -247.15 -10.0 -247.25 -9.75 -247.25 -6.65 -248.25 -5.75 -248.65 -4.65 -248.9 -3.65 -249.25 -3.25 -249.4 -2.65 -249.5 -1.25 -250.0 -0.9 -250.0 M-0.9 -233.5 L-0.9 -223.75 -3.0 -223.0 -2.75 -233.15 -3.15 -235.75 Q-4.35 -239.7 -7.45 -241.0 L-5.4 -240.25 -3.25 -238.15 -2.25 -234.9 -2.15 -233.25 -0.9 -233.5 M-10.65 -241.7 L-9.4 -241.75 -8.1 -241.25 -10.65 -241.7" fill="url(#gradient15)" fill-rule="evenodd" stroke="none"/>
    <path d="M-4.15 -249.25 L-4.15 -257.15 -3.25 -257.25 -3.25 -249.4 -3.65 -249.25 -4.15 -249.25" fill="url(#gradient16)" fill-rule="evenodd" stroke="none"/>
    <path d="M-4.65 -248.9 L-4.15 -249.15 -4.15 -249.25 -3.65 -249.25 -4.65 -248.9" fill="url(#gradient17)" fill-rule="evenodd" stroke="none"/>
    <path d="M-8.9 -265.15 L-8.4 -265.15 -8.15 -264.25 -8.15 -263.15 -9.4 -261.9 -9.65 -261.75 -9.65 -261.65 -9.75 -261.4 -9.9 -261.15 -10.9 -247.15 -12.0 -246.75 -11.75 -247.9 -11.5 -257.4 -11.75 -259.4 -11.75 -260.25 -11.4 -260.75 -9.25 -264.9 -8.9 -265.15" fill="url(#gradient18)" fill-rule="evenodd" stroke="none"/>
    <path d="M-13.9 -250.25 L-12.9 -257.25 -12.9 -257.5 -12.5 -258.65 -12.5 -258.9 -12.4 -259.15 -12.4 -259.4 -12.15 -260.0 -12.25 -260.0 -12.0 -260.15 -11.75 -260.25 -11.75 -259.4 -11.5 -257.4 -11.75 -247.9 -12.0 -246.75 -13.4 -246.75 -14.15 -247.15 -14.0 -249.15 -14.0 -249.25 -13.9 -249.5 -13.9 -250.25" fill="url(#gradient19)" fill-rule="evenodd" stroke="none"/>
    <path d="M-20.0 -257.25 L-19.65 -257.5 -19.65 -257.0 -20.15 -256.75 -20.0 -257.25 M-12.4 -259.15 L-12.9 -259.4 -14.65 -258.75 -13.15 -258.65 -15.0 -258.65 -15.0 -259.0 -14.4 -259.25 -14.15 -259.4 -13.0 -259.75 -12.5 -259.65 -12.4 -260.0 -12.25 -260.0 -12.15 -260.0 -12.4 -259.4 -12.4 -259.15 M-17.25 -258.4 L-17.0 -258.25 -17.4 -257.9 -17.65 -258.4 -18.0 -257.9 -18.5 -258.15 -18.9 -257.9 -19.5 -256.9 -19.4 -257.5 -18.9 -258.2 -19.5 -257.5 -19.4 -258.15 -18.9 -258.2 -17.65 -258.4 -17.25 -258.4 M-18.75 -257.75 L-18.75 -257.25 -19.15 -257.25 -18.75 -257.75 M-16.25 -258.25 L-15.5 -257.9 -15.5 -257.5 -15.9 -257.5 -15.75 -257.75 -16.25 -257.4 -16.4 -256.25 -17.0 -255.9 -16.5 -256.25 -16.75 -256.4 -16.4 -257.15 -17.0 -256.9 -16.65 -257.25 -17.15 -257.5 -16.25 -257.65 -16.5 -258.4 -16.15 -258.5 -16.25 -258.25 M-16.5 -254.0 L-15.25 -254.4 -16.15 -253.65 -16.5 -254.0 M-19.9 -256.5 L-19.65 -256.75 -19.65 -256.4 -19.9 -256.5 M-13.9 -256.9 L-14.65 -257.15 -13.75 -257.25 -13.9 -256.9" fill="url(#gradient20)" fill-rule="evenodd" stroke="none"/>
    <path d="M-9.65 -261.65 L-9.65 -261.75 -9.4 -261.9 -9.65 -261.65" fill="url(#gradient21)" fill-rule="evenodd" stroke="none"/>
    <path d="M-20.15 -256.75 L-13.9 -250.25 -13.9 -249.5 -14.0 -249.25 -14.0 -249.15 -14.5 -247.75 -15.4 -249.25 -20.25 -254.0 -20.65 -254.9 -20.15 -256.75" fill="url(#gradient22)" fill-rule="evenodd" stroke="none"/>
    <path d="M-14.5 -247.75 L-14.0 -249.15 -14.15 -247.15 -14.65 -246.9 -14.5 -247.75" fill="url(#gradient23)" fill-rule="evenodd" stroke="none"/>
    <path d="M-0.9 -239.75 L-0.9 -233.5 -2.15 -233.25 -2.25 -234.9 -3.25 -238.15 -5.4 -240.25 -7.45 -241.0 -8.1 -241.25 -9.4 -241.75 -10.65 -241.7 -12.75 -241.65 -12.9 -241.65 -13.25 -241.5 -14.5 -241.15 -14.9 -241.0 -15.4 -240.9 -15.75 -240.75 -16.15 -240.65 -16.5 -240.5 -16.65 -240.4 -19.9 -239.4 -23.4 -238.25 -23.5 -239.4 -23.0 -240.0 -20.25 -241.25 -13.75 -243.0 -12.0 -245.0 Q-3.9 -246.0 -0.9 -239.75" fill="url(#gradient24)" fill-rule="evenodd" stroke="none"/>
    <path d="M-20.25 -237.9 L-23.65 -236.75 -23.4 -238.25 -19.9 -239.4 -20.25 -237.9" fill="url(#gradient25)" fill-rule="evenodd" stroke="none"/>
    <path d="M-13.25 -239.9 L-20.25 -237.9 -19.9 -239.4 -16.65 -240.4 -16.5 -240.5 -16.15 -240.65 -15.75 -240.75 -15.4 -240.9 -14.9 -241.0 -14.5 -241.15 -13.25 -241.5 -12.9 -241.65 -12.75 -241.65 -12.65 -241.0 -13.25 -239.9 M-23.65 -236.75 L-24.15 -236.65 -24.15 -237.25 -23.9 -238.25 -23.4 -238.25 -23.65 -236.75" fill="url(#gradient26)" fill-rule="evenodd" stroke="none"/>
    <path d="M-6.65 -248.25 L-6.15 -257.65 -5.25 -257.65 -5.75 -248.65 -6.65 -248.25" fill="url(#gradient27)" fill-rule="evenodd" stroke="none"/>
    <path d="M-24.15 -237.25 L-23.9 -239.0 -23.9 -238.25 -24.15 -237.25" fill="url(#gradient28)" fill-rule="evenodd" stroke="none"/>
    <path d="M-296.4 -231.9 L-270.15 -240.75 -270.15 -240.5 -270.75 -240.15 -270.75 -240.0 -272.65 -239.5 -272.65 -238.75 -300.9 -217.75 -296.4 -231.9" fill="url(#gradient29)" fill-rule="evenodd" stroke="none"/>
    <path d="M-311.25 -225.75 L-311.0 -226.15 -296.4 -231.9 -300.9 -217.75 -301.15 -217.4 -300.25 -207.25 -303.5 -206.0 -309.4 -202.25 -311.15 -200.65 -314.4 -207.0 -315.15 -207.75 -311.25 -225.75" fill="url(#gradient30)" fill-rule="evenodd" stroke="none"/>
    <path d="M-325.25 -166.5 L-331.25 -163.5 -347.9 -150.9 -349.5 -150.15 -364.9 -144.25 -380.65 -156.9 -387.65 -166.9 -387.15 -167.4 -386.9 -167.5 -368.75 -177.75 -324.75 -209.15 -316.15 -219.9 -315.65 -220.4 -311.25 -225.75 -315.15 -207.75 -314.4 -207.0 -311.15 -200.65 -317.0 -194.5 -321.0 -188.5 -323.9 -181.65 -325.4 -173.9 -325.25 -166.5" fill="url(#gradient31)" fill-rule="evenodd" stroke="none"/>
    <path d="M-316.0 -220.15 L-315.65 -220.4 -316.15 -219.9 -316.0 -220.15" fill="url(#gradient32)" fill-rule="evenodd" stroke="none"/>
    <path d="M-386.9 -167.5 L-367.75 -184.15 -346.5 -200.75 -327.75 -213.4 -316.0 -220.15 -316.15 -219.9 -324.75 -209.15 -368.75 -177.75 -386.9 -167.5" fill="url(#gradient33)" fill-rule="evenodd" stroke="none"/>
    <path d="M-300.25 -207.25 L-301.15 -217.4 -300.9 -217.75 -272.65 -238.75 -271.5 -238.4 -291.5 -209.5 -296.9 -208.5 -300.25 -207.25 M-270.75 -240.15 L-270.15 -240.5 -270.0 -240.25 -270.25 -240.15 -270.75 -240.15" fill="url(#gradient34)" fill-rule="evenodd" stroke="none"/>
    <path d="M-225.9 -240.15 L-222.65 -239.5 -223.9 -239.25 -224.15 -238.5 -225.25 -238.65 -226.65 -240.0 -225.9 -240.15 M-271.5 -238.4 L-272.65 -238.75 -272.65 -239.5 -270.75 -240.0 -270.75 -240.15 -270.25 -240.15 -270.0 -240.25 -269.5 -240.4 -270.15 -238.65 -271.5 -238.4" fill="url(#gradient35)" fill-rule="evenodd" stroke="none"/>
    <path d="M-219.5 -239.25 L-219.25 -239.25 -218.9 -239.15 -214.15 -238.25 -214.0 -238.25 -208.45 -237.2 -190.15 -233.65 -190.0 -233.25 -187.0 -219.0 -185.75 -193.15 -195.0 -182.75 -194.9 -206.4 -224.15 -238.5 -223.9 -239.25 -222.65 -239.5 -225.9 -240.15 -226.0 -240.5 -222.9 -239.9 -222.15 -239.75 -219.5 -239.25" fill="url(#gradient36)" fill-rule="evenodd" stroke="none"/>
    <path d="M-192.0 -176.9 L-194.5 -136.4 -198.15 -137.75 -219.0 -130.4 -218.5 -132.65 Q-210.0 -134.0 -200.15 -149.0 L-197.15 -156.0 -195.9 -163.5 -196.15 -171.75 -198.5 -181.75 -201.65 -188.5 -206.0 -194.5 -208.5 -196.75 Q-212.0 -198.4 -212.0 -199.0 L-212.5 -207.15 -225.25 -238.65 -224.15 -238.5 -194.9 -206.4 -195.0 -182.75 Q-195.15 -182.15 -191.75 -180.0 L-192.0 -176.9" fill="url(#gradient37)" fill-rule="evenodd" stroke="none"/>
    <path d="M-212.0 -199.0 Q-212.0 -198.4 -208.5 -196.75 L-206.0 -194.5 -201.65 -188.5 -198.5 -181.75 -196.15 -171.75 -195.9 -163.5 -197.15 -156.0 -200.15 -149.0 Q-210.0 -134.0 -218.5 -132.65 L-224.15 -130.65 -226.4 -130.25 -231.25 -130.25 -234.75 -130.9 -236.4 -131.25 -244.9 -135.9 -255.0 -139.15 -258.65 -141.9 -263.4 -148.4 Q-266.9 -156.9 -266.0 -158.15 L-268.65 -164.15 -269.5 -172.65 -267.65 -180.4 -266.4 -182.5 -266.65 -183.75 -266.4 -188.0 Q-261.9 -202.0 -244.5 -206.0 -223.75 -209.65 -212.0 -199.0" fill="url(#gradient38)" fill-rule="evenodd" stroke="none"/>
    <path d="M-234.75 -130.9 L-231.25 -130.25 -226.4 -130.25 -224.15 -130.65 -219.0 -130.4 -232.0 -88.4 -236.25 -26.4 -252.25 -26.15 -290.9 -29.75 -297.75 -32.15 -297.75 -33.4 -292.75 -92.4 -298.15 -132.4 -296.25 -132.5 -293.4 -132.75 -286.4 -133.25 -234.75 -130.9" fill="url(#gradient39)" fill-rule="evenodd" stroke="none"/>
    <path d="M-302.65 -134.9 L-309.75 -139.15 -316.0 -144.9 Q-323.65 -154.15 -325.25 -166.5 L-325.4 -173.9 -323.9 -181.65 -321.0 -188.5 -317.0 -194.5 -311.15 -200.65 -309.4 -202.25 -303.5 -206.0 -300.25 -207.25 -296.9 -208.5 -291.5 -209.5 -287.65 -210.0 -283.5 -210.0 -279.75 -209.0 Q-279.65 -207.65 -274.15 -205.9 L-270.0 -201.25 Q-267.4 -196.25 -268.25 -190.9 -267.4 -189.25 -272.0 -182.75 L-271.25 -174.5 -273.0 -167.25 Q-279.65 -158.4 -279.4 -151.5 L-283.15 -145.4 Q-288.4 -142.0 -288.25 -140.15 L-291.15 -138.25 -291.15 -135.4 -293.4 -132.75 -296.25 -132.5 -298.65 -133.4 -302.65 -134.9" fill="url(#gradient40)" fill-rule="evenodd" stroke="none"/>
    <path d="M-4.15 -234.65 Q-6.15 -240.4 -13.25 -239.9 L-12.65 -241.0 -12.75 -241.65 -10.65 -241.7 -8.1 -241.25 -7.45 -241.0 Q-4.35 -239.7 -3.15 -235.75 L-4.15 -234.65" fill="url(#gradient41)" fill-rule="evenodd" stroke="none"/>
    <path d="M-3.9 -222.65 L-3.65 -231.65 -4.15 -234.65 -3.15 -235.75 -2.75 -233.15 -3.0 -223.0 -3.9 -222.65" fill="url(#gradient42)" fill-rule="evenodd" stroke="none"/>
    <path d="M-208.45 -237.2 L-188.15 -233.65 -170.75 -221.5 -173.0 -219.25 -190.0 -233.25 -190.15 -233.65 -208.45 -237.2" fill="url(#gradient43)" fill-rule="evenodd" stroke="none"/>
    <path d="M-187.0 -219.0 L-190.0 -233.25 -173.0 -219.25 -187.0 -219.0" fill="url(#gradient44)" fill-rule="evenodd" stroke="none"/>
    <path d="M-118.4 -149.5 L-131.0 -151.25 -144.25 -157.4 -160.5 -167.0 -179.75 -174.25 -185.75 -193.15 -187.0 -219.0 -173.0 -219.25 -145.4 -206.5 -123.25 -197.5 -93.15 -183.15 -107.15 -165.4 -118.4 -149.5" fill="url(#gradient45)" fill-rule="evenodd" stroke="none"/>
    <path d="M-0.9 -223.75 L-0.9 -216.9 -6.4 -214.75 -30.0 -203.75 -50.0 -193.0 -69.4 -184.0 -74.25 -187.4 -41.15 -205.25 -15.4 -216.75 -3.9 -222.65 -3.0 -223.0 -0.9 -223.75" fill="url(#gradient46)" fill-rule="evenodd" stroke="none"/>
    <path d="M-90.15 -185.9 L-74.25 -187.4 -69.4 -184.0 -93.15 -183.15 -90.15 -185.9" fill="url(#gradient47)" fill-rule="evenodd" stroke="none"/>
    <path d="M-170.75 -221.5 L-141.65 -208.25 -90.15 -185.9 -93.15 -183.15 -123.25 -197.5 -145.4 -206.5 -173.0 -219.25 -170.75 -221.5" fill="url(#gradient48)" fill-rule="evenodd" stroke="none"/>
    <path d="M-0.9 -216.9 L-1.15 -186.65 -40.4 -166.25 -36.4 -176.75 -50.0 -193.0 -30.0 -203.75 -6.4 -214.75 -0.9 -216.9" fill="url(#gradient49)" fill-rule="evenodd" stroke="none"/>
    <path d="M-40.4 -166.25 L-61.4 -154.0 -53.0 -167.5 -36.4 -176.75 -40.4 -166.25" fill="url(#gradient50)" fill-rule="evenodd" stroke="none"/>
    <path d="M-50.0 -193.0 L-36.4 -176.75 -69.4 -184.0 -50.0 -193.0" fill="url(#gradient51)" fill-rule="evenodd" stroke="none"/>
    <path d="M-61.4 -154.0 L-78.15 -145.25 -118.4 -149.5 -107.15 -165.4 -93.15 -183.15 -69.4 -184.0 -36.4 -176.75 -53.0 -167.5 -61.4 -154.0" fill="url(#gradient52)" fill-rule="evenodd" stroke="none"/>
    <path d="M-179.75 -174.25 L-191.9 -176.9 -192.0 -176.9 -191.75 -180.0 Q-195.15 -182.15 -195.0 -182.75 L-185.75 -193.15 -179.75 -174.25" fill="url(#gradient53)" fill-rule="evenodd" stroke="none"/>
    <path d="M-399.9 -135.0 L-399.9 -151.15 -399.65 -151.4 -387.65 -166.9 -380.65 -156.9 -364.9 -144.25 -364.5 -143.15 -362.4 -129.15 -361.25 -127.25 -357.15 -119.0 -376.9 -117.75 -385.25 -113.65 -398.4 -130.4 -399.9 -135.0" fill="url(#gradient54)" fill-rule="evenodd" stroke="none"/>
    <path d="M-398.65 -129.9 L-400.0 -133.9 -399.9 -135.0 -398.4 -130.4 -398.65 -129.9" fill="url(#gradient55)" fill-rule="evenodd" stroke="none"/>
    <path d="M-344.0 -55.15 L-356.9 -72.15 -368.75 -86.75 -398.65 -129.9 -398.4 -130.4 -385.25 -113.65 -375.65 -101.65 -365.9 -87.4 -352.25 -69.65 -343.15 -59.65 -343.75 -58.9 -344.0 -55.15" fill="url(#gradient56)" fill-rule="evenodd" stroke="none"/>
    <path d="M-298.65 -36.9 L-295.75 -63.15 -293.75 -92.5 -302.65 -134.9 -298.65 -133.4 -298.15 -132.4 -292.75 -92.4 -297.75 -33.4 -298.65 -36.9" fill="url(#gradient57)" fill-rule="evenodd" stroke="none"/>
    <path d="M-312.4 -0.9 L-318.65 -0.9 -318.4 -4.75 -298.65 -36.9 -297.75 -33.4 -297.75 -32.15 -312.4 -0.9" fill="url(#gradient58)" fill-rule="evenodd" stroke="none"/>
    <path d="M-229.25 -0.9 L-312.4 -0.9 -297.75 -32.15 -290.9 -29.75 -252.25 -26.15 -236.25 -26.4 -229.25 -0.9" fill="url(#gradient59)" fill-rule="evenodd" stroke="none"/>
    <path d="M-349.5 -150.15 L-359.75 -137.65 -352.75 -128.65 -350.5 -111.4 -351.0 -112.15 -364.5 -143.15 -364.9 -144.25 -349.5 -150.15" fill="url(#gradient60)" fill-rule="evenodd" stroke="none"/>
    <path d="M-350.5 -111.4 L-332.65 -90.5 -327.0 -80.75 -318.25 -71.4 -316.15 -65.4 -319.75 -68.9 -322.15 -70.15 -323.15 -70.15 Q-324.4 -68.9 -320.4 -64.15 L-321.9 -64.65 -329.75 -74.75 -335.65 -84.0 -336.25 -84.4 -344.4 -95.5 -356.65 -118.25 -352.5 -113.9 -351.0 -112.15 -350.5 -111.4" fill="url(#gradient61)" fill-rule="evenodd" stroke="none"/>
    <path d="M-361.25 -127.25 L-362.4 -129.15 -364.5 -143.15 -351.0 -112.15 -352.5 -113.9 -361.25 -127.25" fill="url(#gradient62)" fill-rule="evenodd" stroke="none"/>
    <path d="M-194.5 -136.4 L-201.9 -108.4 -206.0 -86.9 -207.0 -66.75 -209.65 -32.75 -211.25 -31.4 -213.9 -30.0 -219.15 -28.9 -236.25 -26.4 -232.0 -88.4 -219.0 -130.4 -198.15 -137.75 -194.5 -136.4" fill="url(#gradient63)" fill-rule="evenodd" stroke="none"/>
    <path d="M-209.65 -32.75 L-206.0 -16.75 -206.5 -17.4 -211.25 -31.4 -209.65 -32.75" fill="url(#gradient64)" fill-rule="evenodd" stroke="none"/>
    <path d="M-206.0 -16.75 L-206.0 -16.65 -205.9 -16.15 -205.75 -16.0 -201.15 -2.65 -213.9 -30.0 -211.25 -31.4 -206.5 -17.4 -206.0 -16.75" fill="url(#gradient65)" fill-rule="evenodd" stroke="none"/>
    <path d="M-201.15 -2.65 L-201.15 -2.5 -201.0 -2.15 -200.9 -2.0 -200.4 -1.0 -200.65 -0.9 -229.25 -0.9 -236.25 -26.4 -219.15 -28.9 -213.9 -30.0 -201.15 -2.65" fill="url(#gradient66)" fill-rule="evenodd" stroke="none"/>
    <path d="M-356.65 -118.25 L-357.15 -119.0 -361.25 -127.25 -352.5 -113.9 -356.65 -118.25" fill="url(#gradient67)" fill-rule="evenodd" stroke="none"/>
    <path d="M-385.25 -113.65 L-376.9 -117.75 -357.15 -119.0 -356.65 -118.25 -344.4 -95.5 -336.25 -84.4 -335.65 -84.0 -329.75 -74.75 -321.9 -64.65 -328.15 -62.0 Q-328.65 -64.0 -337.65 -65.0 L-341.75 -62.75 -343.15 -59.65 -352.25 -69.65 -365.9 -87.4 -375.65 -101.65 -385.25 -113.65" fill="url(#gradient68)" fill-rule="evenodd" stroke="none"/>
    <path d="M-316.15 -65.4 Q-309.15 -49.65 -323.75 -43.4 -341.15 -40.4 -344.0 -55.15 L-343.75 -58.9 -343.15 -59.65 -341.75 -62.75 -337.65 -65.0 Q-328.65 -64.0 -328.15 -62.0 L-321.9 -64.65 -320.4 -64.15 Q-324.4 -68.9 -323.15 -70.15 L-322.15 -70.15 -319.75 -68.9 -316.15 -65.4" fill="url(#gradient69)" fill-rule="evenodd" stroke="none"/>
    <path d="M-284.25 -250.25 L-277.9 -250.65 -279.25 -248.9 -279.9 -249.0 -284.25 -250.25" fill="#ac0000" fill-rule="evenodd" stroke="none"/>
    <path d="M-216.5 -248.0 L-216.15 -247.15 -216.5 -247.15 -216.5 -248.0 M-215.9 -243.75 L-215.5 -243.15 -215.5 -241.75 -215.75 -241.65 -216.15 -242.5 -215.9 -243.75 M-215.65 -240.75 L-215.9 -239.65 -217.65 -239.5 -215.65 -240.75 M-215.9 -238.65 L-215.75 -238.5 -217.15 -221.0 -217.65 -220.0 -217.65 -219.4 -218.5 -216.75 -218.5 -216.4 -222.25 -203.4 -222.5 -203.15 -222.4 -202.9 -223.75 -197.9 -218.4 -195.25 -218.15 -195.0 -212.5 -192.15 -211.75 -191.9 -208.9 -190.25 -206.9 -189.4 -206.65 -189.15 -202.65 -187.0 -202.5 -187.15 -200.75 -186.25 -200.4 -185.9 -208.4 -184.9 -208.9 -184.9 -225.4 -182.9 -226.0 -182.65 -236.15 -181.65 -235.0 -186.65 -234.9 -186.9 -233.4 -193.9 -233.25 -194.15 -231.75 -199.9 -231.5 -200.15 -230.9 -201.75 -230.75 -203.15 -230.25 -204.15 -230.25 -204.4 -229.65 -206.4 -229.5 -206.4 -225.0 -220.5 -224.4 -225.4 -224.5 -226.0 -223.5 -233.9 -223.65 -234.75 -223.0 -238.75 -223.0 -240.0 -222.65 -241.9 -222.15 -241.15 -222.15 -240.9 -222.25 -240.5 -222.15 -239.75 -219.5 -239.25 -219.25 -239.25 -218.9 -239.15 -218.65 -239.15 -218.25 -239.0 -218.0 -239.0 -216.9 -238.75 -216.15 -238.65 -215.9 -238.65 M-277.9 -250.65 L-268.0 -247.4 -267.75 -247.15 -264.25 -245.4 -266.4 -244.15 -266.5 -244.15 -267.0 -243.65 -276.25 -248.15 -279.25 -248.9 -277.9 -250.65 M-222.9 -242.65 L-223.5 -243.9 -224.0 -244.5 -224.15 -245.25 -224.4 -245.4 -224.65 -246.15 -226.65 -249.25 -226.4 -249.65 -224.4 -248.25 -223.0 -247.5 -223.0 -245.75 -222.9 -245.4 -222.65 -242.75 -222.9 -242.65" fill="#9b0000" fill-opacity="0.9098039" fill-rule="evenodd" stroke="none"/>
    <path d="M-327.25 -188.75 L-316.4 -195.25 -316.0 -195.65 -315.5 -196.0 -315.5 -196.15 -313.65 -197.15 -313.25 -197.25 -311.5 -198.25 -310.75 -199.15 -310.4 -199.5 -308.75 -202.25 -308.5 -202.4 -308.65 -202.5 -308.0 -203.15 -300.9 -214.0 -300.75 -214.5 -296.9 -220.5 -296.25 -221.25 -293.4 -232.9 -293.25 -233.0 -285.9 -235.4 -285.75 -235.15 -287.4 -227.9 -287.65 -227.5 -287.5 -227.15 -288.75 -221.9 -297.15 -208.4 -297.5 -208.15 -297.75 -207.5 -297.9 -207.25 -298.15 -207.15 -299.4 -204.75 -299.75 -204.5 -300.25 -203.5 -302.0 -200.65 -302.25 -200.4 -303.4 -198.4 -304.0 -195.4 -304.15 -195.15 -305.65 -188.9 -305.75 -188.65 -307.65 -181.0 -307.75 -180.75 -309.65 -173.65 -313.5 -176.9 -314.0 -177.4 -314.75 -177.9 -321.15 -183.5 -321.5 -183.75 -321.65 -184.15 -322.25 -184.5 -322.5 -184.75 -327.25 -188.75 M-287.15 -247.15 L-284.65 -250.25 -284.25 -250.25 -279.9 -249.0 -279.25 -248.9 -279.75 -248.25 -279.9 -247.9 -282.15 -245.15 -282.5 -244.5 -287.15 -247.15" fill="#9e0000" fill-opacity="0.9098039" fill-rule="evenodd" stroke="none"/>
    <path d="M-226.4 -249.65 L-226.65 -250.0 -225.9 -249.9 -225.75 -250.0 -217.0 -250.15 -217.0 -249.65 -216.9 -249.0 -216.5 -248.0 -216.5 -247.15 -216.5 -247.0 -216.25 -246.9 -216.15 -245.65 -216.25 -245.5 -215.9 -243.75 -216.15 -242.5 -215.75 -241.65 -215.65 -240.75 -217.65 -239.5 -219.5 -239.25 -222.15 -239.75 -222.25 -240.5 -222.15 -240.9 -222.15 -241.15 -222.65 -241.9 -222.65 -242.0 -222.75 -242.25 -222.9 -242.5 -222.9 -242.65 -222.65 -242.75 -222.9 -245.4 -223.0 -245.75 -223.0 -247.5 -224.4 -248.25 -226.4 -249.65" fill="#a90000" fill-rule="evenodd" stroke="none"/>
    <path d="M-293.25 -233.0 L-291.15 -242.0 -287.15 -247.15 -282.5 -244.5 -284.4 -242.15 -285.9 -235.4 -293.25 -233.0" fill="#ae0000" fill-opacity="0.9098039" fill-rule="evenodd" stroke="none"/>
    <path d="M-327.15 -188.5 L-327.25 -188.75 -322.5 -184.75 -322.25 -184.5 -321.65 -184.15 -321.5 -183.75 -321.15 -183.5 -314.75 -177.9 -314.0 -177.4 -313.5 -176.9 -309.65 -173.65 -302.5 -168.15 -301.9 -167.75 -301.75 -167.5 -280.4 -151.4 -280.0 -151.25 -279.75 -150.9 -273.9 -146.5 -248.9 -160.75 -248.75 -161.0 -242.5 -164.65 -240.75 -168.25 -240.9 -168.5 -240.65 -168.75 -237.5 -178.0 -237.25 -178.25 -236.15 -181.65 -226.0 -182.65 -225.4 -182.9 -208.9 -184.9 -208.4 -184.9 -200.4 -185.9 -200.25 -185.15 -200.65 -179.4 -200.75 -178.9 -201.75 -162.0 -203.25 -154.65 -203.4 -154.4 -204.75 -148.25 -204.9 -148.0 -205.9 -143.9 -206.0 -143.0 -206.25 -142.75 -206.15 -142.4 -206.25 -141.9 -206.65 -141.15 -206.75 -140.65 -206.65 -140.25 -208.9 -131.15 -215.25 -131.65 -222.9 -132.0 -224.75 -132.25 -246.75 -133.5 -266.9 -133.9 -267.15 -134.0 -278.15 -134.15 -287.75 -135.0 -288.0 -135.15 -293.0 -135.5 -293.65 -135.65 -302.75 -135.5 -303.0 -135.4 -303.75 -135.4 -304.4 -136.0 -310.15 -139.5 -310.9 -140.4 -311.25 -140.4 -316.25 -145.25 -316.25 -145.65 -320.5 -151.4 -320.75 -152.25 -323.65 -158.65 -323.75 -159.5 -325.25 -166.25 -325.15 -167.5 -325.25 -167.75 -325.4 -169.4 -325.4 -174.0 -325.0 -175.15 -325.0 -175.75 -323.75 -181.75 -323.75 -182.15 -324.75 -183.75 -327.15 -188.5 M-233.25 -156.5 L-233.9 -155.75 -233.9 -155.4 -233.5 -154.65 -233.25 -153.75 -232.4 -154.65 -232.15 -155.65 -232.4 -156.0 -233.15 -156.65 -233.25 -156.5 M-313.9 -160.4 L-313.9 -160.5 -314.0 -160.4 -313.9 -160.4 M-312.4 -156.0 L-311.75 -152.9 -311.65 -152.75 -311.4 -152.5 -311.15 -152.75 -311.25 -153.15 -312.4 -156.0" fill="#b00000" fill-opacity="0.9098039" fill-rule="evenodd" stroke="none"/>
    <path d="M-215.9 -239.65 L-215.9 -238.65 -216.15 -238.65 -216.9 -238.75 -218.0 -239.0 -218.25 -239.0 -217.65 -239.5 -215.9 -239.65" fill="#ab0000" fill-opacity="0.9098039" fill-rule="evenodd" stroke="none"/>
    <path d="M-218.25 -239.0 L-218.65 -239.15 -218.9 -239.15 -219.25 -239.25 -219.5 -239.25 -217.65 -239.5 -218.25 -239.0" fill="#ab0000" fill-rule="evenodd" stroke="none"/>
    <path d="M-332.4 -162.65 L-332.5 -163.0 -332.4 -163.25 -330.65 -172.15 -330.5 -172.4 -327.15 -188.5 -324.75 -183.75 -323.75 -182.15 -323.75 -181.75 -325.0 -175.75 -325.0 -175.15 -325.4 -174.0 -325.4 -169.4 -325.25 -167.75 -325.15 -167.5 -325.25 -166.25 -331.15 -163.5 -331.25 -163.4 -332.4 -162.65" fill="#c40000" fill-rule="evenodd" stroke="none"/>
    <path d="M-319.0 -144.15 L-319.5 -145.0 -332.65 -161.5 -332.5 -162.0 -332.65 -162.25 -332.4 -162.65 -331.25 -163.4 -331.15 -163.5 -325.25 -166.25 -323.75 -159.5 -323.65 -158.65 -320.75 -152.25 -320.5 -151.4 -316.25 -145.65 -316.25 -145.25 -311.25 -140.4 -310.9 -140.4 -310.15 -139.5 -304.4 -136.0 -303.75 -135.4 -311.65 -134.9 -314.4 -138.65 -314.75 -139.0 -314.75 -139.15 -319.0 -144.15" fill="#c60000" fill-rule="evenodd" stroke="none"/>
    <path d="M-200.4 -185.9 L-195.25 -179.5 -195.0 -178.9 -194.75 -178.75 -194.65 -178.25 -192.15 -175.4 -192.0 -175.0 -194.5 -138.5 -194.5 -136.75 -194.5 -136.4 -195.15 -136.5 -198.5 -135.4 -198.75 -135.15 -198.9 -134.9 -208.9 -131.15 -206.65 -140.25 -206.75 -140.65 -206.65 -141.15 -206.25 -141.9 -206.15 -142.4 -206.25 -142.75 -206.0 -143.0 -205.9 -143.9 -204.9 -148.0 -204.75 -148.25 -203.4 -154.4 -203.25 -154.65 -201.75 -162.0 -200.75 -178.9 -200.65 -179.4 -200.25 -185.15 -200.4 -185.9" fill="#d30000" fill-opacity="0.9098039" fill-rule="evenodd" stroke="none"/>
    <path d="M-192.0 -175.0 L-184.15 -164.9 -179.75 -148.4 -180.15 -147.65 -184.25 -140.0 -185.25 -139.75 -185.9 -140.0 -194.5 -136.75 -194.5 -138.5 -192.0 -175.0 M-209.25 -21.9 L-207.5 -23.0 -206.4 -17.75 -206.25 -17.4 -206.25 -16.9 -206.15 -16.75 -206.15 -16.4 -206.0 -16.4 -206.0 -16.15 -205.5 -14.4 -205.65 -14.65 -206.15 -15.75 -206.15 -15.9 -209.25 -21.9 M-318.4 -2.5 L-318.4 -4.65 -314.25 -11.65 -313.65 -12.15 -314.4 -10.25 -318.4 -2.5" fill="#e80000" fill-opacity="0.9098039" fill-rule="evenodd" stroke="none"/>
    <path d="M-194.5 -136.4 L-194.5 -136.75 -185.9 -140.0 -185.25 -139.75 -194.5 -136.4" fill="#f30000" fill-opacity="0.9098039" fill-rule="evenodd" stroke="none"/>
    <path d="M-180.15 -147.65 L-180.0 -147.25 -182.4 -138.15 -184.5 -139.4 -185.25 -139.75 -184.25 -140.0 -180.15 -147.65" fill="#ea0000" fill-rule="evenodd" stroke="none"/>
    <path d="M-208.9 -131.15 L-198.9 -134.9 -198.75 -135.15 -198.5 -135.4 -195.15 -136.5 -194.5 -136.4 -195.9 -131.5 -195.75 -131.25 -196.0 -131.15 -196.15 -130.65 -196.0 -130.4 -197.65 -123.75 -202.75 -104.15 -202.65 -103.9 -202.9 -103.65 -202.75 -103.25 -206.0 -86.5 -208.25 -50.15 -209.75 -32.65 -208.25 -26.9 -207.5 -23.0 -209.25 -21.9 -209.75 -21.75 -210.4 -21.75 -210.4 -21.65 -210.75 -21.5 -215.75 -20.25 -217.15 -20.15 -217.4 -20.0 -228.65 -18.4 -228.75 -18.25 -235.0 -17.4 -234.5 -19.5 -234.65 -20.65 -230.75 -39.75 -230.65 -42.0 -230.75 -42.5 -229.15 -62.15 -229.4 -62.65 -227.75 -82.65 -227.9 -83.15 -227.65 -85.65 -217.5 -109.9 -217.4 -111.0 -216.65 -112.15 -208.9 -131.15" fill="#dd0000" fill-opacity="0.9098039" fill-rule="evenodd" stroke="none"/>
    <path d="M-319.15 -0.9 L-327.4 -0.9 -308.25 -30.15 -309.25 -50.15 -307.25 -71.15 -306.15 -91.25 -319.0 -144.15 -314.75 -139.15 -314.75 -139.0 -314.4 -138.65 -311.65 -134.9 -304.5 -91.0 -308.15 -47.5 -307.65 -30.65 -307.4 -24.4 -311.0 -17.15 -313.65 -12.15 -314.25 -11.65 -318.4 -4.65 -318.4 -2.5 -318.75 -1.4 -319.15 -0.9" fill="#fd0000" fill-rule="evenodd" stroke="none"/>
    <path d="M-318.65 -0.9 L-319.15 -0.9 -318.75 -1.4 -318.65 -0.9 M-307.4 -24.4 L-306.65 -24.0 -311.0 -17.15 -307.4 -24.4" fill="#ba0000" fill-rule="evenodd" stroke="none"/>
    <path d="M-230.25 -0.9 L-318.65 -0.9 -318.75 -1.4 -318.4 -2.5 -314.4 -10.25 -313.65 -12.15 -311.0 -17.15 -306.65 -24.0 -299.65 -21.4 -292.4 -20.65 -291.65 -20.65 -253.15 -16.9 -236.5 -17.25 -235.0 -17.4 -230.25 -0.9" fill="#a40000" fill-opacity="0.9098039" fill-rule="evenodd" stroke="none"/>
    <path d="M-301.4 -32.65 L-306.65 -24.0 -307.4 -24.4 -307.65 -30.65 -304.4 -32.25 -301.4 -32.65" fill="#bd0000" fill-rule="evenodd" stroke="none"/>
    <path d="M-303.75 -135.4 L-302.65 -134.9 -293.75 -92.5 -295.75 -63.4 -295.75 -63.0 -295.9 -62.4 -297.9 -42.0 -298.65 -36.9 -301.4 -32.65 -304.4 -32.25 -307.65 -30.65 -308.15 -47.5 -304.5 -91.0 -311.65 -134.9 -303.75 -135.4" fill="#bc0000" fill-rule="evenodd" stroke="none"/>
    <path d="M-303.75 -135.4 L-303.0 -135.4 -302.75 -135.5 -293.65 -135.65 -293.0 -135.5 -288.0 -135.15 -287.75 -135.0 -278.15 -134.15 -267.15 -134.0 -266.9 -133.9 -246.75 -133.5 -224.75 -132.25 -222.9 -132.0 -215.25 -131.65 -208.9 -131.15 -216.65 -112.15 -217.4 -111.0 -217.5 -109.9 -227.65 -85.65 -227.9 -83.15 -227.75 -82.65 -229.4 -62.65 -229.15 -62.15 -230.75 -42.5 -230.65 -42.0 -230.75 -39.75 -234.65 -20.65 -234.5 -19.5 -235.0 -17.4 -236.5 -17.25 -253.15 -16.9 -291.65 -20.65 -292.4 -20.65 -299.65 -21.4 -306.65 -24.0 -301.4 -32.65 -298.65 -36.9 -297.9 -42.0 -295.9 -62.4 -295.75 -63.0 -295.75 -63.4 -293.75 -92.5 -302.65 -134.9 -303.75 -135.4" fill="#a70000" fill-opacity="0.9098039" fill-rule="evenodd" stroke="none"/>
    <path d="M-200.4 -0.9 L-230.25 -0.9 -235.0 -17.4 -228.75 -18.25 -228.65 -18.4 -217.4 -20.0 -217.15 -20.15 -215.75 -20.25 -210.75 -21.5 -210.4 -21.65 -210.4 -21.75 -209.75 -21.75 -209.25 -21.9 -206.15 -15.9 -206.15 -15.75 -205.65 -14.65 -205.5 -14.4 -205.4 -14.25 -205.4 -14.0 -205.25 -13.9 -205.25 -13.75 -205.0 -13.25 -205.0 -13.15 -204.9 -13.0 -204.75 -12.65 -204.65 -12.65 -204.5 -12.25 -204.4 -12.15 -204.4 -11.9 -204.25 -11.65 -203.75 -10.5 -201.9 -4.4 -200.4 -0.9" fill="#c80000" fill-opacity="0.9098039" fill-rule="evenodd" stroke="none"/>
    <path d="M-207.5 -23.0 L-208.25 -26.9 -204.65 -25.5 -206.25 -23.75 -207.5 -23.0" fill="#ef0000" fill-rule="evenodd" stroke="none"/>
    <path d="M-197.4 -85.0 L-199.75 -44.65 -204.65 -25.5 -208.25 -26.9 -209.75 -32.65 -208.25 -50.15 -206.0 -86.5 -202.75 -103.25 -202.9 -103.65 -202.65 -103.9 -202.75 -104.15 -197.65 -123.75 -197.4 -90.0 -197.4 -88.75 -197.4 -88.65 -197.65 -88.15 -197.4 -85.0" fill="#ed0000" fill-rule="evenodd" stroke="none"/>
    <path d="M-182.4 -138.15 L-193.25 -102.4 -188.5 -124.25 -188.65 -124.65 -188.4 -124.9 -188.5 -125.15 -188.25 -125.4 -188.4 -125.65 -188.5 -125.15 -188.65 -124.65 -197.4 -90.0 -197.65 -123.75 -196.0 -130.4 -196.15 -130.65 -196.0 -131.15 -195.75 -131.25 -195.9 -131.5 -194.5 -136.4 -185.25 -139.75 -184.5 -139.4 -182.4 -138.15 M-195.0 -95.65 L-194.9 -95.4 -197.4 -85.0 -197.65 -88.15 -197.4 -88.65 -197.4 -88.75 -195.0 -95.65" fill="#f40000" fill-rule="evenodd" stroke="none"/>
    <path d="M-193.25 -102.4 L-195.0 -95.65 -197.4 -88.75 -197.4 -90.0 -188.65 -124.65 -188.5 -125.15 -188.4 -125.65 -188.25 -125.4 -188.5 -125.15 -188.4 -124.9 -188.65 -124.65 -188.5 -124.25 -193.25 -102.4" fill="#f30000" fill-rule="evenodd" stroke="none"/>
    <path d="M-204.65 -25.5 L-200.75 -9.75 -205.4 -21.0 -200.5 -5.0 -200.4 -4.25 -204.4 -12.15 -204.4 -12.25 -204.5 -12.25 -204.65 -12.65 -204.75 -12.9 -204.75 -13.0 -205.0 -13.15 -204.9 -13.25 -205.0 -13.25 -205.15 -13.65 -205.25 -13.75 -205.25 -13.9 -205.4 -14.0 -205.4 -14.25 -205.5 -14.4 -206.0 -16.15 -206.0 -16.4 -206.15 -16.4 -206.15 -16.75 -206.25 -16.9 -206.25 -17.4 -206.4 -17.75 -207.5 -23.0 -206.25 -23.75 -204.65 -25.5" fill="#fa0000" fill-rule="evenodd" stroke="none"/>
    <path d="M-205.25 -13.75 L-205.15 -13.65 -205.0 -13.25 -205.25 -13.75" fill="#dd0000" fill-rule="evenodd" stroke="none"/>
    <path d="M-205.0 -13.25 L-204.9 -13.25 -205.0 -13.15 -205.0 -13.25 M-204.75 -13.0 L-204.75 -12.9 -204.65 -12.65 -204.75 -12.65 -204.9 -13.0 -204.75 -13.0 M-204.5 -12.25 L-204.4 -12.25 -204.4 -12.15 -204.5 -12.25" fill="#de0000" fill-rule="evenodd" stroke="none"/>
    <path d="M-198.5 -0.9 L-199.25 -0.9 -199.65 -2.25 -200.0 -2.9 -200.0 -3.0 -203.75 -10.5 -204.25 -11.65 -204.4 -11.9 -204.4 -12.15 -200.4 -4.25 -200.4 -4.15 -200.15 -3.5 -200.0 -3.4 -200.0 -3.25 -199.9 -3.0 -198.65 -1.15 -198.5 -0.9 M-205.0 -13.15 L-204.75 -13.0 -204.9 -13.0 -205.0 -13.15" fill="#df0000" fill-rule="evenodd" stroke="none"/>
    <path d="M-199.25 -0.9 L-200.4 -0.9 -201.9 -4.4 -203.75 -10.5 -200.0 -3.0 -200.0 -2.9 -199.65 -2.25 -199.25 -0.9" fill="#da0000" fill-rule="evenodd" stroke="none"/>
    <path d="M-200.75 -9.75 L-199.5 -5.75 -198.65 -1.15 -199.9 -3.0 -200.0 -3.25 -200.0 -3.4 -200.15 -3.5 -200.4 -4.15 -200.4 -4.25 -200.5 -5.0 -205.4 -21.0 -200.75 -9.75" fill="#fe0000" fill-rule="evenodd" stroke="none"/>
    <path d="M-199.5 -5.75 L-197.5 -0.9 -198.5 -0.9 -198.65 -1.15 -199.5 -5.75" fill="#ff0000" fill-rule="evenodd" stroke="none"/>
  </g>
  <defs>
    <radialGradient cx="0" cy="0" gradientTransform="matrix(0.1811, 0.0, 0.0, 0.1811, -179.35, -279.45)" gradientUnits="userSpaceOnUse" id="gradient0" r="819.2" spreadMethod="pad">
      <stop offset="0.0" stop-color="#5a5a5a"/>
      <stop offset="1.0" stop-color="#1d1d1d"/>
    </radialGradient>
    <radialGradient cx="0" cy="0" gradientTransform="matrix(0.0938, 0.0, 0.0, 0.0938, -236.7, -273.45)" gradientUnits="userSpaceOnUse" id="gradient1" r="819.2" spreadMethod="pad">
      <stop offset="0.0" stop-color="#7d7d7d"/>
      <stop offset="1.0" stop-color="#2f2f2f"/>
    </radialGradient>
    <radialGradient cx="0" cy="0" gradientTransform="matrix(0.0442, 0.0, 0.0, 0.0442, -260.2, -252.9)" gradientUnits="userSpaceOnUse" id="gradient2" r="819.2" spreadMethod="pad">
      <stop offset="0.0" stop-color="#1a1a1a"/>
      <stop offset="1.0" stop-color="#000000"/>
    </radialGradient>
    <radialGradient cx="0" cy="0" gradientTransform="matrix(0.0196, 0.0, 0.0, 0.0196, -237.6, -261.2)" gradientUnits="userSpaceOnUse" id="gradient3" r="819.2" spreadMethod="pad">
      <stop offset="0.0" stop-color="#797979"/>
      <stop offset="1.0" stop-color="#000000"/>
    </radialGradient>
    <radialGradient cx="0" cy="0" gradientTransform="matrix(0.2836, 0.0, 0.0, 0.2836, -222.8, -249.3)" gradientUnits="userSpaceOnUse" id="gradient4" r="819.2" spreadMethod="pad">
      <stop offset="0.0" stop-color="#101010"/>
      <stop offset="1.0" stop-color="#000000"/>
    </radialGradient>
    <radialGradient cx="0" cy="0" gradientTransform="matrix(0.025, 0.0, 0.0, 0.025, -248.55, -300.0)" gradientUnits="userSpaceOnUse" id="gradient5" r="819.2" spreadMethod="pad">
      <stop offset="0.0" stop-color="#d38080"/>
      <stop offset="1.0" stop-color="#4f1818"/>
    </radialGradient>
    <radialGradient cx="0" cy="0" gradientTransform="matrix(0.0166, 0.0, 0.0, 0.0166, -254.8, -298.1)" gradientUnits="userSpaceOnUse" id="gradient6" r="819.2" spreadMethod="pad">
      <stop offset="0.0" stop-color="#ff3030"/>
      <stop offset="1.0" stop-color="#ff2e2e"/>
    </radialGradient>
    <radialGradient cx="0" cy="0" gradientTransform="matrix(0.0511, 0.0, 0.0, 0.0511, -156.3, -275.45)" gradientUnits="userSpaceOnUse" id="gradient7" r="819.2" spreadMethod="pad">
      <stop offset="0.0" stop-color="#3f3f3f"/>
      <stop offset="1.0" stop-color="#222222"/>
    </radialGradient>
    <radialGradient cx="0" cy="0" gradientTransform="matrix(0.0408, 0.0, 0.0, 0.0408, -324.35, -300.0)" gradientUnits="userSpaceOnUse" id="gradient8" r="819.2" spreadMethod="pad">
      <stop offset="0.0" stop-color="#343434"/>
      <stop offset="1.0" stop-color="#2d2d2d"/>
    </radialGradient>
    <radialGradient cx="0" cy="0" gradientTransform="matrix(0.1499, 0.0, 0.0, 0.1499, -285.95, -133.3)" gradientUnits="userSpaceOnUse" id="gradient9" r="819.2" spreadMethod="pad">
      <stop offset="0.0" stop-color="#6a6a6a"/>
      <stop offset="1.0" stop-color="#000000"/>
    </radialGradient>
    <radialGradient cx="0" cy="0" gradientTransform="matrix(0.0374, 0.0, 0.0, 0.0374, -229.75, -243.6)" gradientUnits="userSpaceOnUse" id="gradient10" r="819.2" spreadMethod="pad">
      <stop offset="0.0" stop-color="#000000"/>
      <stop offset="1.0" stop-color="#000000"/>
    </radialGradient>
    <radialGradient cx="0" cy="0" gradientTransform="matrix(0.0089, 0.0, 0.0, 0.0089, -222.95, -245.55)" gradientUnits="userSpaceOnUse" id="gradient11" r="819.2" spreadMethod="pad">
      <stop offset="0.0" stop-color="#7b7b7b"/>
      <stop offset="1.0" stop-color="#1b1b1b"/>
    </radialGradient>
    <radialGradient cx="0" cy="0" gradientTransform="matrix(0.0034, 0.0, 0.0, 0.0034, -8.7, -266.6)" gradientUnits="userSpaceOnUse" id="gradient12" r="819.2" spreadMethod="pad">
      <stop offset="0.0" stop-color="#262626"/>
      <stop offset="1.0" stop-color="#262626"/>
    </radialGradient>
    <radialGradient cx="0" cy="0" gradientTransform="matrix(0.018, 0.0, 0.0, 0.018, -11.6, -260.35)" gradientUnits="userSpaceOnUse" id="gradient13" r="819.2" spreadMethod="pad">
      <stop offset="0.0" stop-color="#040404"/>
      <stop offset="1.0" stop-color="#040404"/>
    </radialGradient>
    <radialGradient cx="0" cy="0" gradientTransform="matrix(0.009, 0.0, 0.0, 0.009, -1.0, -257.45)" gradientUnits="userSpaceOnUse" id="gradient14" r="819.2" spreadMethod="pad">
      <stop offset="0.0" stop-color="#020202"/>
      <stop offset="1.0" stop-color="#020202"/>
    </radialGradient>
    <radialGradient cx="0" cy="0" gradientTransform="matrix(0.0244, 0.0, 0.0, 0.0244, -6.15, -240.3)" gradientUnits="userSpaceOnUse" id="gradient15" r="819.2" spreadMethod="pad">
      <stop offset="0.0" stop-color="#040404"/>
      <stop offset="1.0" stop-color="#040404"/>
    </radialGradient>
    <radialGradient cx="0" cy="0" gradientTransform="matrix(0.0099, 0.0, 0.0, 0.0099, -3.35, -257.3)" gradientUnits="userSpaceOnUse" id="gradient16" r="819.2" spreadMethod="pad">
      <stop offset="0.0" stop-color="#020202"/>
      <stop offset="1.0" stop-color="#020202"/>
    </radialGradient>
    <radialGradient cx="0" cy="0" gradientTransform="matrix(0.0119, 0.0, 0.0, 0.0119, -10.35, -247.2)" gradientUnits="userSpaceOnUse" id="gradient17" r="819.2" spreadMethod="pad">
      <stop offset="0.0" stop-color="#040404"/>
      <stop offset="1.0" stop-color="#040404"/>
    </radialGradient>
    <radialGradient cx="0" cy="0" gradientTransform="matrix(0.0219, 0.0, 0.0, 0.0219, -9.5, -264.7)" gradientUnits="userSpaceOnUse" id="gradient18" r="819.2" spreadMethod="pad">
      <stop offset="0.0" stop-color="#171717"/>
      <stop offset="1.0" stop-color="#171717"/>
    </radialGradient>
    <radialGradient cx="0" cy="0" gradientTransform="matrix(0.0092, 0.0, 0.0, 0.0092, -13.45, -254.35)" gradientUnits="userSpaceOnUse" id="gradient19" r="819.2" spreadMethod="pad">
      <stop offset="0.0" stop-color="#020202"/>
      <stop offset="1.0" stop-color="#020202"/>
    </radialGradient>
    <radialGradient cx="0" cy="0" gradientTransform="matrix(0.0087, 0.0, 0.0, 0.0087, -12.85, -256.75)" gradientUnits="userSpaceOnUse" id="gradient20" r="819.2" spreadMethod="pad">
      <stop offset="0.0" stop-color="#171717"/>
      <stop offset="1.0" stop-color="#171717"/>
    </radialGradient>
    <radialGradient cx="0" cy="0" gradientTransform="matrix(0.0035, 0.0, 0.0, 0.0035, -9.65, -261.6)" gradientUnits="userSpaceOnUse" id="gradient21" r="819.2" spreadMethod="pad">
      <stop offset="0.0" stop-color="#828282"/>
      <stop offset="1.0" stop-color="#818181"/>
    </radialGradient>
    <radialGradient cx="0" cy="0" gradientTransform="matrix(0.0122, 0.0, 0.0, 0.0122, -20.55, -255.15)" gradientUnits="userSpaceOnUse" id="gradient22" r="819.2" spreadMethod="pad">
      <stop offset="0.0" stop-color="#2c2c2c"/>
      <stop offset="1.0" stop-color="#202020"/>
    </radialGradient>
    <radialGradient cx="0" cy="0" gradientTransform="matrix(0.0036, 0.0, 0.0, 0.0036, -14.4, -248.2)" gradientUnits="userSpaceOnUse" id="gradient23" r="819.2" spreadMethod="pad">
      <stop offset="0.0" stop-color="#202020"/>
      <stop offset="1.0" stop-color="#1f1f1f"/>
    </radialGradient>
    <radialGradient cx="0" cy="0" gradientTransform="matrix(0.0253, 0.0, 0.0, 0.0253, -2.8, -242.4)" gradientUnits="userSpaceOnUse" id="gradient24" r="819.2" spreadMethod="pad">
      <stop offset="0.0" stop-color="#030303"/>
      <stop offset="1.0" stop-color="#030303"/>
    </radialGradient>
    <radialGradient cx="0" cy="0" gradientTransform="matrix(0.0154, 0.0, 0.0, 0.0154, -23.6, -236.8)" gradientUnits="userSpaceOnUse" id="gradient25" r="819.2" spreadMethod="pad">
      <stop offset="0.0" stop-color="#030303"/>
      <stop offset="1.0" stop-color="#030303"/>
    </radialGradient>
    <radialGradient cx="0" cy="0" gradientTransform="matrix(0.0151, 0.0, 0.0, 0.0151, -24.05, -236.75)" gradientUnits="userSpaceOnUse" id="gradient26" r="819.2" spreadMethod="pad">
      <stop offset="0.0" stop-color="#040404"/>
      <stop offset="1.0" stop-color="#040404"/>
    </radialGradient>
    <radialGradient cx="0" cy="0" gradientTransform="matrix(0.0114, 0.0, 0.0, 0.0114, -5.4, -257.7)" gradientUnits="userSpaceOnUse" id="gradient27" r="819.2" spreadMethod="pad">
      <stop offset="0.0" stop-color="#020202"/>
      <stop offset="1.0" stop-color="#020202"/>
    </radialGradient>
    <radialGradient cx="0" cy="0" gradientTransform="matrix(0.002, 0.0, 0.0, 0.002, -24.2, -237.9)" gradientUnits="userSpaceOnUse" id="gradient28" r="819.2" spreadMethod="pad">
      <stop offset="0.0" stop-color="#262626"/>
      <stop offset="1.0" stop-color="#262626"/>
    </radialGradient>
    <radialGradient cx="0" cy="0" gradientTransform="matrix(0.0477, 0.0, 0.0, 0.0477, -269.7, -241.0)" gradientUnits="userSpaceOnUse" id="gradient29" r="819.2" spreadMethod="pad">
      <stop offset="0.0" stop-color="#000000"/>
      <stop offset="1.0" stop-color="#000000"/>
    </radialGradient>
    <radialGradient cx="0" cy="0" gradientTransform="matrix(0.0539, 0.0, 0.0, 0.0539, -298.7, -187.9)" gradientUnits="userSpaceOnUse" id="gradient30" r="819.2" spreadMethod="pad">
      <stop offset="0.0" stop-color="#171717"/>
      <stop offset="1.0" stop-color="#000000"/>
    </radialGradient>
    <radialGradient cx="0" cy="0" gradientTransform="matrix(0.0906, 0.0, 0.0, 0.0906, -346.25, -160.8)" gradientUnits="userSpaceOnUse" id="gradient31" r="819.2" spreadMethod="pad">
      <stop offset="0.0" stop-color="#6a6a6a"/>
      <stop offset="1.0" stop-color="#000000"/>
    </radialGradient>
    <radialGradient cx="0" cy="0" gradientTransform="matrix(0.0307, 0.0, 0.0, 0.0307, -305.95, -225.95)" gradientUnits="userSpaceOnUse" id="gradient32" r="819.2" spreadMethod="pad">
      <stop offset="0.0" stop-color="#0d0d0d"/>
      <stop offset="1.0" stop-color="#000000"/>
    </radialGradient>
    <radialGradient cx="0" cy="0" gradientTransform="matrix(0.0881, 0.0, 0.0, 0.0881, -365.85, -185.7)" gradientUnits="userSpaceOnUse" id="gradient33" r="819.2" spreadMethod="pad">
      <stop offset="0.0" stop-color="#0f0f0f"/>
      <stop offset="1.0" stop-color="#040404"/>
    </radialGradient>
    <radialGradient cx="0" cy="0" gradientTransform="matrix(0.0739, 0.0, 0.0, 0.0739, -298.7, -187.9)" gradientUnits="userSpaceOnUse" id="gradient34" r="819.2" spreadMethod="pad">
      <stop offset="0.0" stop-color="#171717"/>
      <stop offset="1.0" stop-color="#000000"/>
    </radialGradient>
    <radialGradient cx="0" cy="0" gradientTransform="matrix(0.12, 0.0, 0.0, 0.12, -281.9, -161.25)" gradientUnits="userSpaceOnUse" id="gradient35" r="819.2" spreadMethod="pad">
      <stop offset="0.0" stop-color="#323232"/>
      <stop offset="1.0" stop-color="#000000"/>
    </radialGradient>
    <radialGradient cx="0" cy="0" gradientTransform="matrix(0.0757, 0.0, 0.0, 0.0757, -185.65, -193.55)" gradientUnits="userSpaceOnUse" id="gradient36" r="819.2" spreadMethod="pad">
      <stop offset="0.0" stop-color="#595959"/>
      <stop offset="1.0" stop-color="#000000"/>
    </radialGradient>
    <radialGradient cx="0" cy="0" gradientTransform="matrix(0.1082, 0.0, 0.0, 0.1082, -193.2, -158.3)" gradientUnits="userSpaceOnUse" id="gradient37" r="819.2" spreadMethod="pad">
      <stop offset="0.0" stop-color="#3f3f3f"/>
      <stop offset="1.0" stop-color="#000000"/>
    </radialGradient>
    <radialGradient cx="0" cy="0" gradientTransform="matrix(0.0829, 0.0, 0.0, 0.0829, -246.7, -141.9)" gradientUnits="userSpaceOnUse" id="gradient38" r="819.2" spreadMethod="pad">
      <stop offset="0.0" stop-color="#878787"/>
      <stop offset="1.0" stop-color="#000000"/>
    </radialGradient>
    <radialGradient cx="0" cy="0" gradientTransform="matrix(0.1438, 0.0, 0.0, 0.1438, -285.95, -133.3)" gradientUnits="userSpaceOnUse" id="gradient39" r="819.2" spreadMethod="pad">
      <stop offset="0.0" stop-color="#6a6a6a"/>
      <stop offset="1.0" stop-color="#000000"/>
    </radialGradient>
    <radialGradient cx="0" cy="0" gradientTransform="matrix(0.0813, 0.0, 0.0, 0.0813, -298.8, -145.95)" gradientUnits="userSpaceOnUse" id="gradient40" r="819.2" spreadMethod="pad">
      <stop offset="0.0" stop-color="#858585"/>
      <stop offset="1.0" stop-color="#000000"/>
    </radialGradient>
    <radialGradient cx="0" cy="0" gradientTransform="matrix(0.0137, 0.0, 0.0, 0.0137, -4.0, -234.55)" gradientUnits="userSpaceOnUse" id="gradient41" r="819.2" spreadMethod="pad">
      <stop offset="0.0" stop-color="#1f1f1f"/>
      <stop offset="1.0" stop-color="#040404"/>
    </radialGradient>
    <radialGradient cx="0" cy="0" gradientTransform="matrix(0.0114, 0.0, 0.0, 0.0114, -3.8, -228.8)" gradientUnits="userSpaceOnUse" id="gradient42" r="819.2" spreadMethod="pad">
      <stop offset="0.0" stop-color="#2d2d2d"/>
      <stop offset="1.0" stop-color="#2b2b2b"/>
    </radialGradient>
    <radialGradient cx="0" cy="0" gradientTransform="matrix(0.0446, 0.0, 0.0, 0.0446, -190.2, -233.7)" gradientUnits="userSpaceOnUse" id="gradient43" r="819.2" spreadMethod="pad">
      <stop offset="0.0" stop-color="#000000"/>
      <stop offset="1.0" stop-color="#000000"/>
    </radialGradient>
    <radialGradient cx="0" cy="0" gradientTransform="matrix(0.0182, 0.0, 0.0, 0.0182, -187.1, -219.1)" gradientUnits="userSpaceOnUse" id="gradient44" r="819.2" spreadMethod="pad">
      <stop offset="0.0" stop-color="#000000"/>
      <stop offset="1.0" stop-color="#000000"/>
    </radialGradient>
    <radialGradient cx="0" cy="0" gradientTransform="matrix(0.0889, 0.0, 0.0, 0.0889, -165.6, -188.25)" gradientUnits="userSpaceOnUse" id="gradient45" r="819.2" spreadMethod="pad">
      <stop offset="0.0" stop-color="#616161"/>
      <stop offset="1.0" stop-color="#000000"/>
    </radialGradient>
    <radialGradient cx="0" cy="0" gradientTransform="matrix(0.0706, 0.0, 0.0, 0.0706, -50.0, -193.15)" gradientUnits="userSpaceOnUse" id="gradient46" r="819.2" spreadMethod="pad">
      <stop offset="0.0" stop-color="#000000"/>
      <stop offset="1.0" stop-color="#000000"/>
    </radialGradient>
    <radialGradient cx="0" cy="0" gradientTransform="matrix(0.029, 0.0, 0.0, 0.029, -92.95, -183.2)" gradientUnits="userSpaceOnUse" id="gradient47" r="819.2" spreadMethod="pad">
      <stop offset="0.0" stop-color="#000000"/>
      <stop offset="1.0" stop-color="#000000"/>
    </radialGradient>
    <radialGradient cx="0" cy="0" gradientTransform="matrix(0.0719, 0.0, 0.0, 0.0719, -145.3, -206.7)" gradientUnits="userSpaceOnUse" id="gradient48" r="819.2" spreadMethod="pad">
      <stop offset="0.0" stop-color="#000000"/>
      <stop offset="1.0" stop-color="#000000"/>
    </radialGradient>
    <radialGradient cx="0" cy="0" gradientTransform="matrix(0.049, 0.0, 0.0, 0.049, -11.7, -181.15)" gradientUnits="userSpaceOnUse" id="gradient49" r="819.2" spreadMethod="pad">
      <stop offset="0.0" stop-color="#000000"/>
      <stop offset="1.0" stop-color="#000000"/>
    </radialGradient>
    <radialGradient cx="0" cy="0" gradientTransform="matrix(0.0415, 0.0, 0.0, 0.0415, -61.55, -154.05)" gradientUnits="userSpaceOnUse" id="gradient50" r="819.2" spreadMethod="pad">
      <stop offset="0.0" stop-color="#161616"/>
      <stop offset="1.0" stop-color="#000000"/>
    </radialGradient>
    <radialGradient cx="0" cy="0" gradientTransform="matrix(0.0261, 0.0, 0.0, 0.0261, -50.0, -193.15)" gradientUnits="userSpaceOnUse" id="gradient51" r="819.2" spreadMethod="pad">
      <stop offset="0.0" stop-color="#000000"/>
      <stop offset="1.0" stop-color="#000000"/>
    </radialGradient>
    <radialGradient cx="0" cy="0" gradientTransform="matrix(0.0695, 0.0, 0.0, 0.0695, -61.55, -154.05)" gradientUnits="userSpaceOnUse" id="gradient52" r="819.2" spreadMethod="pad">
      <stop offset="0.0" stop-color="#161616"/>
      <stop offset="1.0" stop-color="#000000"/>
    </radialGradient>
    <radialGradient cx="0" cy="0" gradientTransform="matrix(0.0247, 0.0, 0.0, 0.0247, -185.65, -193.55)" gradientUnits="userSpaceOnUse" id="gradient53" r="819.2" spreadMethod="pad">
      <stop offset="0.0" stop-color="#595959"/>
      <stop offset="1.0" stop-color="#000000"/>
    </radialGradient>
    <radialGradient cx="0" cy="0" gradientTransform="matrix(0.0652, 0.0, 0.0, 0.0652, -385.3, -113.75)" gradientUnits="userSpaceOnUse" id="gradient54" r="819.2" spreadMethod="pad">
      <stop offset="0.0" stop-color="#393939"/>
      <stop offset="1.0" stop-color="#000000"/>
    </radialGradient>
    <radialGradient cx="0" cy="0" gradientTransform="matrix(0.0061, 0.0, 0.0, 0.0061, -400.0, -134.4)" gradientUnits="userSpaceOnUse" id="gradient55" r="819.2" spreadMethod="pad">
      <stop offset="0.0" stop-color="#424242"/>
      <stop offset="1.0" stop-color="#2f2f2f"/>
    </radialGradient>
    <radialGradient cx="0" cy="0" gradientTransform="matrix(0.0944, 0.0, 0.0, 0.0944, -351.5, -69.05)" gradientUnits="userSpaceOnUse" id="gradient56" r="819.2" spreadMethod="pad">
      <stop offset="0.0" stop-color="#505050"/>
      <stop offset="1.0" stop-color="#2a2a2a"/>
    </radialGradient>
    <radialGradient cx="0" cy="0" gradientTransform="matrix(0.074, 0.0, 0.0, 0.074, -293.75, -92.7)" gradientUnits="userSpaceOnUse" id="gradient57" r="819.2" spreadMethod="pad">
      <stop offset="0.0" stop-color="#838383"/>
      <stop offset="1.0" stop-color="#212121"/>
    </radialGradient>
    <radialGradient cx="0" cy="0" gradientTransform="matrix(0.0473, 0.0, 0.0, 0.0473, -312.3, -1.0)" gradientUnits="userSpaceOnUse" id="gradient58" r="819.2" spreadMethod="pad">
      <stop offset="0.0" stop-color="#525252"/>
      <stop offset="1.0" stop-color="#1d1d1d"/>
    </radialGradient>
    <radialGradient cx="0" cy="0" gradientTransform="matrix(0.1012, 0.0, 0.0, 0.1012, -312.3, -1.0)" gradientUnits="userSpaceOnUse" id="gradient59" r="819.2" spreadMethod="pad">
      <stop offset="0.0" stop-color="#525252"/>
      <stop offset="1.0" stop-color="#000000"/>
    </radialGradient>
    <radialGradient cx="0" cy="0" gradientTransform="matrix(0.0484, 0.0, 0.0, 0.0484, -350.3, -110.6)" gradientUnits="userSpaceOnUse" id="gradient60" r="819.2" spreadMethod="pad">
      <stop offset="0.0" stop-color="#292929"/>
      <stop offset="1.0" stop-color="#000000"/>
    </radialGradient>
    <radialGradient cx="0" cy="0" gradientTransform="matrix(0.0594, 0.0, 0.0, 0.0594, -327.05, -80.9)" gradientUnits="userSpaceOnUse" id="gradient61" r="819.2" spreadMethod="pad">
      <stop offset="0.0" stop-color="#3a3a3a"/>
      <stop offset="1.0" stop-color="#000000"/>
    </radialGradient>
    <radialGradient cx="0" cy="0" gradientTransform="matrix(0.0448, 0.0, 0.0, 0.0448, -350.3, -110.6)" gradientUnits="userSpaceOnUse" id="gradient62" r="819.2" spreadMethod="pad">
      <stop offset="0.0" stop-color="#292929"/>
      <stop offset="1.0" stop-color="#010101"/>
    </radialGradient>
    <radialGradient cx="0" cy="0" gradientTransform="matrix(0.1289, 0.0, 0.0, 0.1289, -209.7, -32.9)" gradientUnits="userSpaceOnUse" id="gradient63" r="819.2" spreadMethod="pad">
      <stop offset="0.0" stop-color="#666666"/>
      <stop offset="1.0" stop-color="#0e0e0e"/>
    </radialGradient>
    <radialGradient cx="0" cy="0" gradientTransform="matrix(0.0399, 0.0, 0.0, 0.0399, -209.7, -32.9)" gradientUnits="userSpaceOnUse" id="gradient64" r="819.2" spreadMethod="pad">
      <stop offset="0.0" stop-color="#666666"/>
      <stop offset="1.0" stop-color="#5a5a5a"/>
    </radialGradient>
    <radialGradient cx="0" cy="0" gradientTransform="matrix(0.0394, 0.0, 0.0, 0.0394, -200.6, -1.0)" gradientUnits="userSpaceOnUse" id="gradient65" r="819.2" spreadMethod="pad">
      <stop offset="0.0" stop-color="#525252"/>
      <stop offset="1.0" stop-color="#474747"/>
    </radialGradient>
    <radialGradient cx="0" cy="0" gradientTransform="matrix(0.0536, 0.0, 0.0, 0.0536, -200.5, -1.0)" gradientUnits="userSpaceOnUse" id="gradient66" r="819.2" spreadMethod="pad">
      <stop offset="0.0" stop-color="#181818"/>
      <stop offset="1.0" stop-color="#000000"/>
    </radialGradient>
    <radialGradient cx="0" cy="0" gradientTransform="matrix(0.0269, 0.0, 0.0, 0.0269, -350.3, -110.6)" gradientUnits="userSpaceOnUse" id="gradient67" r="819.2" spreadMethod="pad">
      <stop offset="0.0" stop-color="#292929"/>
      <stop offset="1.0" stop-color="#000000"/>
    </radialGradient>
    <radialGradient cx="0" cy="0" gradientTransform="matrix(0.0684, 0.0, 0.0, 0.0684, -351.5, -69.05)" gradientUnits="userSpaceOnUse" id="gradient68" r="819.2" spreadMethod="pad">
      <stop offset="0.0" stop-color="#505050"/>
      <stop offset="1.0" stop-color="#131313"/>
    </radialGradient>
    <radialGradient cx="0" cy="0" gradientTransform="matrix(0.0372, 0.0, 0.0, 0.0372, -313.65, -59.05)" gradientUnits="userSpaceOnUse" id="gradient69" r="819.2" spreadMethod="pad">
      <stop offset="0.0" stop-color="#858585"/>
      <stop offset="1.0" stop-color="#2c2c2c"/>
    </radialGradient>
  </defs>
</svg>
