<?xml version="1.0" encoding="UTF-8" standalone="no"?>
<svg xmlns:xlink="http://www.w3.org/1999/xlink" height="299.1px" width="399.1px" xmlns="http://www.w3.org/2000/svg">
  <g transform="matrix(1.0, 0.0, 0.0, 1.0, 400.0, 300.0)">
    <path d="M-266.25 -243.65 L-278.5 -242.75 -280.4 -243.5 -301.9 -256.0 -310.25 -267.65 -312.25 -269.65 -317.5 -280.5 -319.0 -282.75 -319.9 -290.4 -323.5 -300.0 -308.25 -300.0 -302.75 -287.65 -298.25 -280.15 -289.5 -268.0 -280.0 -259.5 -262.75 -249.75 -260.15 -249.0 -260.0 -249.0 -261.4 -246.4 -265.15 -244.5 -266.25 -243.65 M-183.9 -244.0 L-184.4 -243.75 -189.0 -244.0 -192.5 -245.15 -203.15 -237.9 -203.65 -237.9 -207.5 -240.65 -219.5 -239.4 -222.0 -239.9 -222.65 -245.4 -214.4 -247.5 -203.9 -251.25 -186.75 -262.9 -177.75 -272.0 -171.4 -272.25 -171.4 -271.9 -175.4 -258.25 -179.9 -251.75 -183.9 -244.0 M-173.9 -277.4 L-169.75 -283.75 -169.0 -285.5 -166.15 -283.65 -173.9 -277.4" fill="url(#gradient0)" fill-rule="evenodd" stroke="none"/>
    <path d="M-308.25 -300.0 L-268.15 -300.0 Q-255.5 -293.65 -246.5 -300.0 L-187.15 -300.0 -183.75 -295.4 -180.15 -271.9 -177.75 -272.0 -186.75 -262.9 -203.9 -251.25 -214.4 -247.5 -222.65 -245.4 -222.75 -245.75 -222.65 -247.4 -222.75 -248.25 -224.15 -249.9 -227.25 -251.4 -231.75 -253.25 -230.9 -251.9 -236.75 -254.0 -240.25 -253.9 -247.65 -254.5 -251.15 -254.15 -256.0 -254.25 Q-256.65 -253.25 -259.9 -251.75 L-260.15 -249.0 -262.75 -249.75 -280.0 -259.5 -289.5 -268.0 -298.25 -280.15 -302.75 -287.65 -308.25 -300.0 M-169.0 -285.5 L-169.75 -283.75 -173.9 -277.4 -175.25 -275.9 -179.75 -272.4 -174.75 -289.25 -169.0 -285.5" fill="url(#gradient1)" fill-rule="evenodd" stroke="none"/>
    <path d="M-260.15 -249.0 L-259.9 -251.75 Q-256.65 -253.25 -256.0 -254.25 L-251.15 -254.15 -247.65 -254.5 -240.25 -253.9 -236.75 -254.0 -230.9 -251.9 -228.15 -247.9 -228.25 -246.15 -229.25 -243.5 -228.4 -243.0 -225.65 -240.75 -236.15 -244.5 -265.15 -244.5 -261.4 -246.4 -260.0 -249.0 -260.15 -249.0" fill="url(#gradient2)" fill-rule="evenodd" stroke="none"/>
    <path d="M-269.4 -240.9 L-266.25 -243.65 -265.15 -244.5 -236.15 -244.5 -225.65 -240.75 -225.25 -240.5 -225.15 -240.15 -225.9 -240.0 -224.5 -238.65 -211.65 -207.25 -211.15 -199.15 Q-223.9 -210.0 -243.75 -206.15 -260.4 -202.25 -265.0 -188.4 L-265.0 -182.75 Q-266.5 -182.25 -268.0 -173.25 L-267.25 -164.65 -264.5 -158.4 Q-265.5 -157.25 -262.15 -149.0 L-257.0 -142.25 -253.75 -139.75 -243.5 -136.4 -236.65 -132.5 -233.9 -131.5 -284.4 -133.75 -292.25 -133.4 Q-291.0 -134.0 -289.9 -136.25 L-289.65 -138.9 -287.65 -140.0 Q-285.9 -143.65 -282.15 -145.4 L-278.0 -151.9 -276.9 -158.9 -271.65 -167.5 -269.9 -174.75 -270.65 -183.15 Q-266.4 -189.25 -267.0 -190.5 -266.15 -197.0 -268.9 -201.65 L-273.0 -206.15 Q-278.5 -207.9 -278.65 -209.25 L-282.4 -210.25 -287.0 -210.25 -290.65 -209.75 -270.9 -238.5 -269.4 -238.75 -268.75 -240.0 -269.15 -240.4 -269.5 -240.4 -269.4 -240.75 -269.25 -240.9 -269.4 -240.9 M-217.65 -133.15 L-218.15 -131.0 -223.4 -131.15 -219.4 -132.25 -217.65 -133.15 M-295.4 -133.15 L-297.15 -133.0 -297.75 -134.0 -295.4 -133.15" fill="url(#gradient3)" fill-rule="evenodd" stroke="none"/>
    <path d="M-225.65 -240.75 L-228.4 -243.0 -227.25 -242.65 -223.5 -240.65 -222.5 -240.0 -225.25 -240.5 -225.65 -240.75" fill="url(#gradient4)" fill-rule="evenodd" stroke="none"/>
    <path d="M-228.4 -243.0 L-229.25 -243.5 -228.25 -246.15 -227.25 -242.65 -228.4 -243.0 M-222.75 -245.75 L-222.65 -245.4 -222.0 -239.9 -222.5 -240.0 -223.5 -240.65 Q-223.0 -241.25 -223.65 -245.65 L-224.0 -246.4 -223.9 -246.9 -222.75 -245.75" fill="url(#gradient5)" fill-rule="evenodd" stroke="none"/>
    <path d="M-228.25 -246.15 L-228.15 -247.9 -227.25 -251.4 -224.15 -249.9 -222.75 -248.25 -222.65 -247.4 -222.75 -245.75 -223.9 -246.9 -224.0 -246.4 -223.65 -245.65 Q-223.0 -241.25 -223.5 -240.65 L-227.25 -242.65 -228.25 -246.15" fill="url(#gradient6)" fill-rule="evenodd" stroke="none"/>
    <path d="M-228.15 -247.9 L-230.9 -251.9 -231.75 -253.25 -227.25 -251.4 -228.15 -247.9" fill="url(#gradient7)" fill-rule="evenodd" stroke="none"/>
    <path d="M-268.15 -300.0 L-267.5 -300.0 -260.9 -297.75 -255.9 -297.25 -250.4 -298.75 -247.5 -300.0 -246.5 -300.0 Q-255.5 -293.65 -268.15 -300.0" fill="url(#gradient8)" fill-rule="evenodd" stroke="none"/>
    <path d="M-267.5 -300.0 L-247.5 -300.0 -250.4 -298.75 -255.9 -297.25 -260.9 -297.75 -267.5 -300.0" fill="url(#gradient9)" fill-rule="evenodd" stroke="none"/>
    <path d="M-187.15 -300.0 L-146.75 -300.0 Q-152.75 -269.25 -183.9 -244.0 L-179.9 -251.75 -175.4 -258.25 -171.4 -271.9 -171.4 -272.25 -177.75 -272.0 -180.15 -271.9 -183.75 -295.4 -187.15 -300.0 M-169.0 -285.5 L-174.75 -289.25 -179.75 -272.4 -175.25 -275.9 -173.9 -277.4 -166.15 -283.65 -169.0 -285.5" fill="url(#gradient10)" fill-rule="evenodd" stroke="none"/>
    <path d="M-312.25 -269.65 L-319.5 -279.5 -327.0 -299.9 -323.5 -300.0 -319.9 -290.4 -319.0 -282.75 -317.5 -280.5 -312.25 -269.65" fill="url(#gradient11)" fill-rule="evenodd" stroke="none"/>
    <path d="M-9.65 -264.9 L-9.9 -265.75 -8.9 -267.9 -8.25 -265.75 -8.5 -265.25 -9.65 -264.9" fill="url(#gradient12)" fill-rule="evenodd" stroke="none"/>
    <path d="M-19.65 -254.75 L-18.0 -255.0 -19.5 -255.25 -17.65 -255.4 -17.75 -255.9 -17.25 -255.65 -16.5 -255.9 -17.15 -256.25 -17.65 -256.0 -17.9 -256.4 -18.4 -256.0 -19.5 -256.25 -17.5 -256.5 -18.25 -257.4 -19.15 -257.4 -18.4 -257.65 -15.15 -258.5 -15.65 -258.0 -14.0 -258.4 -14.75 -258.65 -14.5 -258.75 -13.25 -258.5 -13.4 -258.15 -13.4 -257.9 -13.75 -256.5 -14.75 -249.5 -19.65 -254.75 M-20.15 -257.4 L-20.4 -256.75 -19.9 -257.15 -20.25 -256.5 -20.15 -256.25 -20.0 -256.5 -19.65 -256.25 -20.5 -255.9 -19.9 -255.0 -21.0 -256.15 -20.9 -256.5 -20.5 -257.15 -20.15 -257.4 M-16.4 -257.15 L-17.9 -257.65 -17.5 -257.0 -16.9 -257.15 -16.75 -256.5 -16.65 -256.9 -16.25 -256.65 -16.4 -257.15 M-19.15 -257.0 L-19.5 -256.65 -19.5 -257.25 -19.15 -257.0 M-16.25 -253.9 L-16.65 -253.75 -16.5 -253.4 -15.9 -253.4 -16.25 -253.9 M-17.25 -254.15 L-16.9 -253.9 -16.25 -254.15 -17.25 -254.15 M-18.75 -255.65 L-19.15 -255.75 -18.65 -255.9 -18.75 -255.65 M-16.25 -252.15 L-15.65 -252.0 -15.15 -252.25 -16.25 -252.15 M-8.9 -267.9 L-8.75 -268.25 -6.65 -269.0 -1.9 -267.5 -0.9 -267.75 -0.9 -249.65 -1.65 -249.5 -1.4 -256.65 -2.25 -256.5 -2.5 -249.15 -4.25 -248.65 -4.25 -256.4 -5.15 -256.4 -5.0 -248.5 -5.75 -248.15 -6.4 -248.0 -6.75 -247.9 -6.25 -256.75 -7.15 -256.75 Q-6.9 -252.9 -7.5 -252.4 L-7.4 -247.75 -7.75 -247.5 -10.9 -246.5 -11.25 -246.5 -11.75 -246.5 -10.65 -260.5 -10.65 -260.75 -10.15 -261.25 -9.75 -261.5 -9.5 -261.75 -9.0 -262.4 -9.15 -264.25 -9.75 -264.25 -9.65 -264.9 -8.5 -265.25 -8.25 -265.75 -8.9 -267.9 M-13.15 -259.25 L-13.15 -259.15 -13.25 -258.5 -13.4 -259.15 -13.15 -259.25" fill="url(#gradient13)" fill-rule="evenodd" stroke="none"/>
    <path d="M-0.9 -249.65 L-0.9 -236.4 Q-4.0 -245.0 -9.65 -244.4 L-13.15 -244.25 Q-13.4 -242.15 -23.0 -239.9 L-24.4 -238.65 -24.15 -237.75 -24.5 -237.75 -24.75 -238.4 -24.65 -239.0 -22.9 -241.0 -15.75 -246.0 -15.0 -246.5 -14.25 -246.0 -13.4 -246.0 -12.9 -246.15 -12.75 -246.15 -11.9 -246.25 -11.75 -246.4 -11.25 -246.5 -10.9 -246.5 -7.75 -247.5 -6.4 -248.0 -5.75 -248.15 -5.0 -248.5 -4.65 -248.5 -4.4 -248.65 -4.25 -248.65 -2.5 -249.15 Q-2.05 -249.3 -1.65 -249.5 L-0.9 -249.65 M-0.9 -233.25 L-0.9 -223.65 -4.15 -222.5 -3.9 -233.4 -4.15 -235.25 Q-5.4 -239.35 -8.85 -240.55 L-7.25 -240.15 Q-3.5 -238.9 -3.4 -232.75 L-0.9 -233.25 M-14.15 -240.9 L-13.4 -241.25 -11.5 -241.25 -10.2 -240.9 -13.65 -241.0 -14.15 -240.9" fill="url(#gradient14)" fill-rule="evenodd" stroke="none"/>
    <path d="M-2.5 -249.15 L-2.25 -256.5 -1.4 -256.65 -1.65 -249.5 Q-2.05 -249.3 -2.5 -249.15" fill="url(#gradient15)" fill-rule="evenodd" stroke="none"/>
    <path d="M-12.75 -259.4 L-12.5 -259.65 -10.75 -263.4 -10.25 -263.75 -9.75 -264.25 -9.15 -264.25 -9.0 -262.4 -9.5 -261.75 -9.75 -261.5 -10.15 -261.25 -10.65 -260.75 -10.65 -260.5 -11.75 -246.5 -11.75 -246.4 -11.9 -246.25 -12.75 -246.15 -12.65 -247.25 -12.5 -258.25 -12.65 -258.75 -12.65 -259.25 -12.75 -259.4" fill="url(#gradient16)" fill-rule="evenodd" stroke="none"/>
    <path d="M-14.75 -249.5 L-13.75 -256.5 -13.4 -257.9 -13.4 -258.15 -13.25 -258.5 -13.15 -259.15 -13.15 -259.25 -12.75 -259.4 -12.65 -259.25 -12.65 -258.75 -12.5 -258.25 -12.65 -247.25 -12.75 -246.15 -12.9 -246.15 -13.4 -246.0 -14.25 -246.0 -15.0 -246.5 -14.9 -248.65 -14.9 -248.75 -14.75 -249.5" fill="url(#gradient17)" fill-rule="evenodd" stroke="none"/>
    <path d="M-18.4 -257.65 L-19.15 -257.4 -18.25 -257.4 -17.5 -256.5 -19.5 -256.25 -18.4 -256.0 -17.9 -256.4 -17.65 -256.0 -17.15 -256.25 -16.5 -255.9 -17.25 -255.65 -17.75 -255.9 -17.65 -255.4 -19.5 -255.25 -18.0 -255.0 -19.65 -254.75 -19.9 -255.0 -20.5 -255.9 -19.65 -256.25 -20.0 -256.5 -20.15 -256.25 -20.25 -256.5 -19.9 -257.15 -20.4 -256.75 -20.15 -257.4 -18.4 -257.65 M-13.25 -258.5 L-14.5 -258.75 -13.4 -259.15 -13.25 -258.5 M-14.75 -258.65 L-14.0 -258.4 -15.65 -258.0 -15.15 -258.5 -14.75 -258.65 M-16.4 -257.15 L-16.25 -256.65 -16.65 -256.9 -16.75 -256.5 -16.9 -257.15 -17.5 -257.0 -17.9 -257.65 -16.4 -257.15 M-19.15 -257.0 L-19.5 -257.25 -19.5 -256.65 -19.15 -257.0 M-17.25 -254.15 L-16.25 -254.15 -16.9 -253.9 -17.25 -254.15 M-16.25 -253.9 L-15.9 -253.4 -16.5 -253.4 -16.65 -253.75 -16.25 -253.9 M-18.75 -255.65 L-18.65 -255.9 -19.15 -255.75 -18.75 -255.65 M-16.25 -252.15 L-15.15 -252.25 -15.65 -252.0 -16.25 -252.15" fill="url(#gradient18)" fill-rule="evenodd" stroke="none"/>
    <path d="M-19.9 -255.0 L-19.65 -254.75 -14.75 -249.5 -14.9 -248.75 -14.9 -248.65 -15.5 -247.25 -21.25 -253.4 -21.65 -254.15 -21.0 -256.15 -19.9 -255.0" fill="url(#gradient19)" fill-rule="evenodd" stroke="none"/>
    <path d="M-15.5 -247.25 L-14.9 -248.65 -15.0 -246.5 -15.75 -246.0 -15.65 -247.0 -15.5 -247.25" fill="url(#gradient20)" fill-rule="evenodd" stroke="none"/>
    <path d="M-11.75 -246.4 L-11.75 -246.5 -11.25 -246.5 -11.75 -246.4 M-6.75 -247.9 L-6.4 -248.0 -7.75 -247.5 -7.4 -247.75 -6.75 -247.9" fill="url(#gradient21)" fill-rule="evenodd" stroke="none"/>
    <path d="M-5.0 -248.5 L-5.15 -256.4 -4.25 -256.4 -4.25 -248.65 -4.4 -248.65 -4.65 -248.5 -5.0 -248.5" fill="url(#gradient22)" fill-rule="evenodd" stroke="none"/>
    <path d="M-7.4 -247.75 L-7.5 -252.4 Q-6.9 -252.9 -7.15 -256.75 L-6.25 -256.75 -6.75 -247.9 -7.4 -247.75" fill="url(#gradient23)" fill-rule="evenodd" stroke="none"/>
    <path d="M-269.4 -240.75 L-269.4 -240.9 -269.25 -240.9 -269.4 -240.75 M-299.5 -207.5 L-300.25 -218.0 -271.9 -239.0 -270.9 -238.5 -290.65 -209.75 -296.0 -208.75 -299.5 -207.5" fill="url(#gradient24)" fill-rule="evenodd" stroke="none"/>
    <path d="M-0.9 -236.4 L-0.9 -233.25 -3.4 -232.75 Q-3.5 -238.9 -7.25 -240.15 L-8.85 -240.55 -10.2 -240.9 -11.5 -241.25 -13.4 -241.25 -14.15 -240.9 -14.25 -240.9 -15.9 -240.4 -16.25 -240.25 -16.75 -240.15 -17.5 -239.9 -17.65 -239.75 -20.75 -238.75 -24.15 -237.75 -24.4 -238.65 -23.0 -239.9 Q-13.4 -242.15 -13.15 -244.25 L-9.65 -244.4 Q-4.0 -245.0 -0.9 -236.4" fill="url(#gradient25)" fill-rule="evenodd" stroke="none"/>
    <path d="M-14.4 -239.4 L-21.4 -237.25 -20.75 -238.75 -17.65 -239.75 -17.5 -239.9 -16.75 -240.15 -16.25 -240.25 -15.9 -240.4 -14.25 -240.9 -14.15 -240.9 -13.65 -241.0 -13.65 -240.4 -14.4 -239.4 M-24.65 -236.25 L-25.0 -236.15 -25.15 -236.5 -24.5 -237.75 -24.15 -237.75 -24.65 -236.25" fill="url(#gradient26)" fill-rule="evenodd" stroke="none"/>
    <path d="M-5.25 -234.15 Q-7.25 -239.65 -14.4 -239.4 L-13.65 -240.4 -13.65 -241.0 -10.2 -240.9 -8.85 -240.55 Q-5.4 -239.35 -4.15 -235.25 L-5.25 -234.15" fill="url(#gradient27)" fill-rule="evenodd" stroke="none"/>
    <path d="M-5.25 -222.0 L-5.0 -228.65 -5.25 -234.15 -4.15 -235.25 -3.9 -233.4 -4.15 -222.5 -5.25 -222.0" fill="url(#gradient28)" fill-rule="evenodd" stroke="none"/>
    <path d="M-21.4 -237.25 L-24.65 -236.25 -24.15 -237.75 -20.75 -238.75 -21.4 -237.25" fill="url(#gradient29)" fill-rule="evenodd" stroke="none"/>
    <path d="M-295.75 -232.15 L-269.4 -240.75 -269.5 -240.4 -270.0 -240.25 -270.15 -240.15 -271.9 -239.75 -271.9 -239.0 -300.25 -218.0 -295.75 -232.15" fill="url(#gradient30)" fill-rule="evenodd" stroke="none"/>
    <path d="M-310.75 -226.0 L-310.4 -226.5 -295.75 -232.15 -300.25 -218.0 -299.5 -207.5 -303.15 -205.9 -308.4 -202.5 -310.25 -200.65 -314.5 -208.15 -310.75 -226.0" fill="url(#gradient31)" fill-rule="evenodd" stroke="none"/>
    <path d="M-324.4 -167.25 L-330.75 -164.15 -347.65 -151.4 -349.25 -150.75 -364.5 -144.9 -380.15 -157.25 -387.25 -167.4 -387.4 -167.65 -386.65 -168.15 -369.0 -178.0 -324.25 -209.5 -315.4 -220.5 -315.0 -220.9 -310.75 -226.0 -314.5 -208.15 -310.25 -200.65 Q-326.25 -185.65 -324.4 -167.25" fill="url(#gradient32)" fill-rule="evenodd" stroke="none"/>
    <path d="M-386.65 -168.15 L-367.9 -184.4 -346.5 -201.0 -328.0 -213.4 -315.4 -220.5 -324.25 -209.5 -369.0 -178.0 -386.65 -168.15" fill="url(#gradient33)" fill-rule="evenodd" stroke="none"/>
    <path d="M-223.5 -238.5 L-224.5 -238.65 -225.9 -240.0 -225.15 -240.15 -222.0 -239.65 -223.15 -239.25 -223.5 -238.5 M-270.9 -238.5 L-271.9 -239.0 -271.9 -239.75 -270.15 -240.15 -270.0 -240.25 -269.5 -240.4 -269.15 -240.4 -268.75 -240.0 -269.4 -238.75 -270.9 -238.5" fill="url(#gradient34)" fill-rule="evenodd" stroke="none"/>
    <path d="M-219.5 -239.4 L-219.25 -239.4 -218.9 -239.25 -217.9 -239.15 -217.5 -239.0 -212.9 -238.15 -212.75 -238.15 -201.2 -235.95 -189.75 -233.65 -189.5 -233.25 -186.4 -219.0 -185.15 -193.5 -194.5 -183.0 -194.15 -206.4 -223.5 -238.5 -223.15 -239.25 -222.0 -239.65 -225.15 -240.15 -225.25 -240.5 -222.5 -240.0 -222.0 -239.9 -219.5 -239.4" fill="url(#gradient35)" fill-rule="evenodd" stroke="none"/>
    <path d="M-191.5 -177.15 L-194.15 -136.9 -197.5 -138.25 -218.15 -131.0 -217.65 -133.15 Q-209.75 -134.0 -199.5 -149.4 L-196.65 -156.25 -196.5 -157.25 -196.15 -157.5 -195.75 -162.0 -195.25 -163.75 Q-194.4 -187.4 -211.15 -199.15 L-211.65 -207.25 -224.5 -238.65 -223.5 -238.5 -194.15 -206.4 -194.5 -183.0 -191.4 -180.25 -191.5 -177.15" fill="url(#gradient36)" fill-rule="evenodd" stroke="none"/>
    <path d="M-211.15 -199.15 Q-194.4 -187.4 -195.25 -163.75 L-195.75 -162.0 -196.15 -157.5 -196.5 -157.25 -196.65 -156.25 -199.5 -149.4 Q-209.75 -134.0 -217.65 -133.15 L-219.4 -132.25 -223.4 -131.15 -227.25 -130.75 -233.9 -131.5 -236.65 -132.5 -243.5 -136.4 -253.75 -139.75 -257.0 -142.25 -262.15 -149.0 Q-265.5 -157.25 -264.5 -158.4 L-267.25 -164.65 -268.0 -173.25 Q-266.5 -182.25 -265.0 -182.75 L-265.0 -188.4 Q-260.4 -202.25 -243.75 -206.15 -223.9 -210.0 -211.15 -199.15" fill="url(#gradient37)" fill-rule="evenodd" stroke="none"/>
    <path d="M-223.4 -131.15 L-218.15 -131.0 -230.9 -89.4 -235.15 -27.5 -251.25 -27.25 -289.5 -30.75 -296.65 -33.0 -296.75 -33.75 -291.75 -93.15 -296.65 -127.4 -297.15 -133.0 -295.4 -133.15 -292.25 -133.4 -284.4 -133.75 -233.9 -131.5 -227.25 -130.75 -223.4 -131.15" fill="url(#gradient38)" fill-rule="evenodd" stroke="none"/>
    <path d="M-302.0 -135.65 L-309.0 -139.9 -315.5 -146.25 Q-323.65 -157.4 -324.4 -167.25 -326.25 -185.65 -310.25 -200.65 L-308.4 -202.5 -303.15 -205.9 -299.5 -207.5 -296.0 -208.75 -290.65 -209.75 -287.0 -210.25 -282.4 -210.25 -278.65 -209.25 Q-278.5 -207.9 -273.0 -206.15 L-268.9 -201.65 Q-266.15 -197.0 -267.0 -190.5 -266.4 -189.25 -270.65 -183.15 L-269.9 -174.75 -271.65 -167.5 -276.9 -158.9 -278.0 -151.9 -282.15 -145.4 Q-285.9 -143.65 -287.65 -140.0 L-289.65 -138.9 -289.9 -136.25 Q-291.0 -134.0 -292.25 -133.4 L-295.4 -133.15 -297.75 -134.0 -302.0 -135.65" fill="url(#gradient39)" fill-rule="evenodd" stroke="none"/>
    <path d="M-201.2 -235.95 L-187.4 -233.5 -170.5 -221.5 -172.5 -219.25 -189.5 -233.25 -189.75 -233.65 -201.2 -235.95" fill="url(#gradient40)" fill-rule="evenodd" stroke="none"/>
    <path d="M-186.4 -219.0 L-189.5 -233.25 -172.5 -219.25 -186.4 -219.0" fill="url(#gradient41)" fill-rule="evenodd" stroke="none"/>
    <path d="M-118.25 -149.9 L-130.9 -151.65 -144.15 -157.75 -160.15 -167.25 -179.4 -174.5 -185.15 -193.5 -186.4 -219.0 -172.5 -219.25 -144.9 -206.5 -124.5 -198.15 -93.0 -183.25 -108.25 -163.75 -118.25 -149.9" fill="url(#gradient42)" fill-rule="evenodd" stroke="none"/>
    <path d="M-25.15 -236.5 L-25.25 -237.25 -24.75 -238.4 -24.5 -237.75 -25.15 -236.5" fill="url(#gradient43)" fill-rule="evenodd" stroke="none"/>
    <path d="M-0.9 -223.65 L-0.9 -217.0 -8.15 -214.0 -30.75 -203.5 -50.5 -193.0 -69.75 -184.0 -74.5 -187.4 -40.5 -205.65 -17.15 -216.0 -5.25 -222.0 -4.15 -222.5 -0.9 -223.65" fill="url(#gradient44)" fill-rule="evenodd" stroke="none"/>
    <path d="M-90.4 -185.9 L-74.5 -187.4 -69.75 -184.0 -93.0 -183.25 -90.4 -185.9" fill="url(#gradient45)" fill-rule="evenodd" stroke="none"/>
    <path d="M-170.5 -221.5 L-139.15 -207.25 -90.4 -185.9 -93.0 -183.25 -124.5 -198.15 -144.9 -206.5 -172.5 -219.25 -170.5 -221.5" fill="url(#gradient46)" fill-rule="evenodd" stroke="none"/>
    <path d="M-0.9 -217.0 L-1.15 -187.25 -41.25 -166.4 -36.9 -176.25 -37.0 -176.75 -50.5 -193.0 -30.75 -203.5 -8.15 -214.0 -0.9 -217.0" fill="url(#gradient47)" fill-rule="evenodd" stroke="none"/>
    <path d="M-41.25 -166.4 L-62.0 -154.25 -53.4 -167.75 -37.0 -176.75 -36.9 -176.25 -41.25 -166.4" fill="url(#gradient48)" fill-rule="evenodd" stroke="none"/>
    <path d="M-50.5 -193.0 L-37.0 -176.75 -69.75 -184.0 -50.5 -193.0" fill="url(#gradient49)" fill-rule="evenodd" stroke="none"/>
    <path d="M-62.0 -154.25 L-78.65 -145.65 -118.25 -149.9 -108.25 -163.75 -93.0 -183.25 -69.75 -184.0 -37.0 -176.75 -53.4 -167.75 -62.0 -154.25" fill="url(#gradient50)" fill-rule="evenodd" stroke="none"/>
    <path d="M-179.4 -174.5 L-191.5 -177.15 -191.4 -180.25 -194.5 -183.0 -185.15 -193.5 -179.4 -174.5" fill="url(#gradient51)" fill-rule="evenodd" stroke="none"/>
    <path d="M-399.9 -136.25 L-400.0 -151.4 -399.0 -152.65 -398.9 -152.9 -398.5 -153.25 -388.4 -166.4 -387.25 -167.4 -380.15 -157.25 -364.5 -144.9 -364.5 -144.5 -364.25 -143.9 -361.9 -129.65 -360.65 -127.4 -356.75 -119.65 -376.5 -118.4 -385.0 -114.4 -398.15 -131.0 -399.9 -136.25" fill="url(#gradient52)" fill-rule="evenodd" stroke="none"/>
    <path d="M-349.25 -150.75 L-359.75 -138.5 -364.5 -144.5 -364.5 -144.9 -349.25 -150.75" fill="url(#gradient53)" fill-rule="evenodd" stroke="none"/>
    <path d="M-297.9 -37.9 L-295.4 -60.25 -293.9 -78.25 -293.15 -93.4 -302.0 -135.65 -297.75 -134.0 -297.15 -133.0 -296.65 -127.4 -291.75 -93.15 -296.75 -33.75 -297.9 -37.9" fill="url(#gradient54)" fill-rule="evenodd" stroke="none"/>
    <path d="M-311.75 -0.9 L-318.15 -0.9 -317.75 -5.4 -297.9 -37.9 -296.75 -33.75 -296.65 -33.0 -311.75 -0.9" fill="url(#gradient55)" fill-rule="evenodd" stroke="none"/>
    <path d="M-227.9 -0.9 L-311.75 -0.9 -296.65 -33.0 -289.5 -30.75 -251.25 -27.25 -235.15 -27.5 -227.9 -0.9" fill="url(#gradient56)" fill-rule="evenodd" stroke="none"/>
    <path d="M-400.0 -151.4 L-399.65 -152.0 -399.0 -152.65 -400.0 -151.4" fill="url(#gradient57)" fill-rule="evenodd" stroke="none"/>
    <path d="M-359.75 -138.5 L-352.75 -129.4 -350.4 -112.4 -351.0 -113.25 -352.75 -115.25 -360.0 -126.9 -360.65 -127.4 -361.9 -129.65 -364.25 -143.9 -364.5 -144.5 -359.75 -138.5" fill="url(#gradient58)" fill-rule="evenodd" stroke="none"/>
    <path d="M-360.65 -127.4 L-360.0 -126.9 -352.75 -115.25 -356.15 -118.75 -356.75 -119.65 -360.65 -127.4" fill="url(#gradient59)" fill-rule="evenodd" stroke="none"/>
    <path d="M-342.5 -60.4 L-351.9 -70.5 -352.15 -71.25 -364.9 -87.75 -365.4 -87.9 -375.15 -102.15 -385.0 -114.4 -376.5 -118.4 -356.75 -119.65 -356.15 -118.75 -343.4 -95.65 -335.5 -85.0 -334.9 -84.65 -329.15 -75.5 -328.4 -75.0 -321.25 -65.4 -327.4 -62.75 Q-327.9 -64.75 -337.0 -65.75 L-341.15 -63.65 -342.5 -60.4" fill="url(#gradient60)" fill-rule="evenodd" stroke="none"/>
    <path d="M-343.5 -55.9 L-356.65 -73.0 -369.0 -88.15 -397.25 -128.25 -398.5 -130.5 -398.15 -131.0 -385.0 -114.4 -375.15 -102.15 -365.4 -87.9 -364.9 -87.75 -352.15 -71.25 -351.9 -70.5 -342.5 -60.4 -343.15 -59.75 -343.4 -58.75 -343.5 -55.9" fill="url(#gradient61)" fill-rule="evenodd" stroke="none"/>
    <path d="M-398.5 -130.5 L-399.9 -134.25 -399.9 -136.25 -398.15 -131.0 -398.5 -130.5" fill="url(#gradient62)" fill-rule="evenodd" stroke="none"/>
    <path d="M-194.15 -136.9 L-202.25 -106.25 -205.9 -87.4 -206.75 -69.4 -209.5 -33.9 -210.9 -32.5 -213.25 -31.15 -219.0 -29.9 -235.15 -27.5 -230.9 -89.4 -218.15 -131.0 -197.5 -138.25 -194.15 -136.9" fill="url(#gradient63)" fill-rule="evenodd" stroke="none"/>
    <path d="M-209.5 -33.9 L-206.0 -18.9 -210.9 -32.5 -209.5 -33.9" fill="url(#gradient64)" fill-rule="evenodd" stroke="none"/>
    <path d="M-206.0 -18.9 L-206.0 -18.65 -201.4 -5.5 -213.25 -31.15 -210.9 -32.5 -206.0 -18.9" fill="url(#gradient65)" fill-rule="evenodd" stroke="none"/>
    <path d="M-201.4 -5.5 L-201.4 -5.4 -201.25 -5.0 Q-199.15 -1.65 -199.75 -0.9 L-227.9 -0.9 -235.15 -27.5 -219.0 -29.9 -213.25 -31.15 -201.4 -5.5" fill="url(#gradient66)" fill-rule="evenodd" stroke="none"/>
    <path d="M-350.4 -112.4 L-332.5 -91.25 -326.75 -81.5 -318.0 -72.4 -316.0 -66.75 Q-318.75 -69.9 -321.15 -70.75 L-322.65 -70.9 -323.25 -70.5 -323.15 -70.25 -321.5 -67.25 -319.75 -65.0 -320.0 -64.75 -321.25 -65.4 -328.4 -75.0 -329.15 -75.5 -334.9 -84.65 -335.5 -85.0 -343.4 -95.65 -356.15 -118.75 -352.75 -115.25 -351.0 -113.25 -350.4 -112.4" fill="url(#gradient67)" fill-rule="evenodd" stroke="none"/>
    <path d="M-316.0 -66.75 Q-307.15 -52.9 -323.75 -44.0 -341.4 -42.15 -343.5 -55.9 L-343.4 -58.75 -343.15 -59.75 -342.5 -60.4 -341.15 -63.65 -337.0 -65.75 Q-327.9 -64.75 -327.4 -62.75 L-321.25 -65.4 -320.0 -64.75 -319.75 -65.0 -321.5 -67.25 -323.15 -70.25 -323.25 -70.5 -322.65 -70.9 -321.15 -70.75 Q-318.75 -69.9 -316.0 -66.75" fill="url(#gradient68)" fill-rule="evenodd" stroke="none"/>
    <path d="M-283.4 -250.4 L-277.15 -250.75 -278.4 -248.9 -283.4 -250.4" fill="#ac0000" fill-rule="evenodd" stroke="none"/>
    <path d="M-215.4 -245.4 L-214.65 -243.15 -214.75 -239.9 -217.0 -239.75 -215.4 -240.9 Q-216.15 -241.75 -215.4 -245.4 M-214.9 -238.5 L-214.9 -238.4 -215.25 -235.0 -215.15 -234.75 -215.65 -230.0 -215.5 -229.5 -216.0 -222.25 -216.75 -219.65 -216.65 -219.0 -217.5 -216.65 -217.5 -216.15 -220.65 -204.65 -220.75 -204.15 -221.15 -203.15 -221.0 -202.65 -222.4 -198.15 -217.15 -195.5 -217.0 -195.25 -205.75 -189.65 -205.65 -189.4 -201.65 -187.4 -200.0 -186.75 -199.75 -186.4 -199.15 -186.15 -199.65 -186.0 -202.75 -185.65 -202.9 -185.4 -204.15 -185.5 -207.15 -185.15 -207.75 -185.15 -208.0 -185.0 -224.15 -183.15 -224.75 -183.0 -229.65 -182.5 -229.9 -182.4 -234.65 -181.9 -233.5 -186.5 -233.65 -186.9 -233.4 -187.15 -231.9 -194.15 -231.75 -194.4 -231.65 -195.25 -230.25 -199.75 -230.4 -200.15 -230.15 -200.4 -229.65 -201.65 -229.5 -203.0 -229.0 -204.25 -223.75 -221.4 -223.4 -225.4 -223.5 -226.0 -222.5 -233.4 -222.65 -234.4 -222.25 -237.0 -222.4 -237.4 -222.15 -238.65 -222.25 -238.9 -222.0 -239.4 -222.0 -239.65 -219.5 -239.4 -219.25 -239.4 -218.9 -239.25 -218.15 -239.15 -217.9 -239.15 -217.5 -239.0 -215.5 -238.65 -215.4 -238.65 -214.9 -238.5 M-277.15 -250.75 L-268.4 -248.0 -268.25 -247.75 -263.65 -245.4 -265.25 -244.4 -265.4 -244.15 -266.5 -243.65 -266.65 -243.9 -276.0 -248.4 -278.4 -248.9 -277.15 -250.75 M-222.0 -241.4 L-222.4 -243.15 -221.75 -241.75 -222.0 -241.4 M-222.5 -243.9 L-223.0 -244.4 -223.65 -245.4 -223.9 -245.9 -223.9 -246.15 -224.0 -246.15 -224.0 -246.65 -224.25 -247.15 -225.75 -249.65 -224.15 -248.75 -224.0 -248.4 -222.65 -247.75 -222.65 -246.9 -222.25 -245.5 -222.4 -245.15 -222.5 -243.9" fill="#9b0000" fill-opacity="0.9098039" fill-rule="evenodd" stroke="none"/>
    <path d="M-326.0 -189.0 L-325.9 -189.5 -315.75 -195.25 -314.75 -196.15 -314.5 -196.15 -314.25 -196.4 -312.25 -197.5 -311.65 -197.75 -309.65 -198.9 -309.25 -199.65 -308.9 -200.0 -307.25 -202.75 -307.25 -203.15 -307.0 -203.25 -306.4 -203.9 -300.15 -213.65 -300.0 -214.4 -298.5 -216.25 -295.5 -221.25 -294.9 -222.0 -292.4 -233.25 -284.75 -235.75 -287.75 -222.0 -295.75 -208.9 -296.0 -208.65 -296.25 -208.25 -296.4 -207.9 -296.75 -207.5 -296.75 -207.4 -298.0 -205.15 -298.4 -204.9 -298.75 -203.9 -299.0 -203.75 -300.5 -201.0 -300.9 -200.75 -301.9 -198.75 -302.65 -195.65 -302.75 -195.4 -304.15 -189.25 -304.4 -189.0 -304.25 -188.75 -306.15 -181.4 -306.25 -181.15 -308.0 -174.0 -312.5 -177.75 -313.25 -178.25 -313.4 -178.65 -319.75 -184.0 -320.25 -184.25 -320.4 -184.65 -321.0 -185.0 -321.4 -185.4 -326.0 -189.0 M-286.5 -247.0 L-285.5 -248.15 -283.9 -250.4 -283.4 -250.4 -278.4 -248.9 -279.65 -247.5 -279.75 -247.0 -281.9 -244.4 -286.5 -247.0" fill="#9e0000" fill-opacity="0.9098039" fill-rule="evenodd" stroke="none"/>
    <path d="M-225.75 -249.65 L-225.75 -249.9 -225.5 -250.0 -216.4 -250.0 -216.25 -249.65 -215.9 -247.15 -215.5 -247.15 -215.75 -246.65 -215.65 -246.65 -215.4 -245.4 Q-216.15 -241.75 -215.4 -240.9 L-217.0 -239.75 -217.4 -239.65 -219.5 -239.4 -222.0 -239.65 -222.0 -240.15 -222.15 -240.5 -222.0 -241.4 -221.75 -241.75 -222.4 -243.15 -222.5 -243.75 -222.5 -243.9 -222.4 -245.15 -222.25 -245.5 -222.65 -246.9 -222.65 -247.75 -224.0 -248.4 -224.15 -248.75 -225.75 -249.65" fill="#a90000" fill-rule="evenodd" stroke="none"/>
    <path d="M-214.75 -239.9 L-214.9 -238.5 -215.4 -238.65 -215.5 -238.65 -217.5 -239.0 -217.9 -239.15 -218.15 -239.15 -217.4 -239.65 -217.0 -239.75 -214.75 -239.9" fill="#ab0000" fill-opacity="0.9098039" fill-rule="evenodd" stroke="none"/>
    <path d="M-292.4 -233.25 L-290.25 -242.15 -286.5 -247.0 -281.9 -244.4 -283.5 -242.0 -284.75 -235.75 -292.4 -233.25" fill="#ae0000" fill-opacity="0.9098039" fill-rule="evenodd" stroke="none"/>
    <path d="M-199.15 -186.15 L-198.9 -185.75 -199.25 -185.5 -199.0 -184.5 -199.4 -180.0 -199.5 -179.4 -200.0 -170.65 -200.25 -170.25 -200.0 -168.9 -200.15 -167.9 -200.4 -162.9 -200.5 -162.5 -201.9 -155.4 -202.15 -155.0 -202.0 -154.75 -203.5 -148.9 -203.65 -148.65 -204.75 -143.65 -205.0 -143.4 -204.9 -143.15 -205.0 -142.75 -205.5 -141.5 -205.4 -141.0 -206.9 -135.0 -207.15 -134.75 -207.0 -134.5 -207.75 -131.75 -223.9 -132.75 -224.25 -132.75 -230.9 -133.25 -238.5 -133.75 -277.9 -134.75 -286.5 -135.65 -286.75 -135.75 -292.75 -136.25 -298.4 -136.25 -298.75 -136.15 -302.75 -136.0 -303.4 -136.65 -309.15 -140.15 -309.65 -140.75 -310.0 -140.75 -314.9 -145.5 -315.25 -146.15 -319.4 -151.9 -319.65 -152.65 -322.5 -159.0 -322.65 -160.15 -324.4 -167.25 -324.15 -167.4 -324.4 -168.4 -324.25 -170.0 -324.4 -172.25 -324.25 -174.5 -323.9 -175.75 -323.9 -176.15 -324.15 -176.4 -322.75 -182.15 -326.0 -189.0 -321.4 -185.4 -321.0 -185.0 -320.4 -184.65 -320.25 -184.25 -319.75 -184.0 -313.4 -178.65 -313.25 -178.25 -312.5 -177.75 -308.0 -174.0 -300.15 -167.9 -285.25 -156.9 -285.15 -156.25 -278.9 -151.9 -278.5 -151.75 -278.25 -151.4 -272.4 -147.0 -266.0 -150.5 -265.9 -150.75 -240.75 -165.0 -239.25 -168.9 -239.0 -169.15 -235.9 -178.4 -235.75 -178.65 -234.75 -181.4 -234.65 -181.9 -229.9 -182.4 -229.65 -182.5 -224.75 -183.0 -224.15 -183.15 -208.0 -185.0 -207.75 -185.15 -207.15 -185.15 -204.15 -185.5 -202.9 -185.4 -202.75 -185.65 -199.65 -186.0 -199.15 -186.15 M-230.65 -156.15 L-230.9 -156.5 -231.5 -157.15 -231.75 -157.0 -232.4 -156.0 -232.5 -155.75 -232.0 -155.15 -232.0 -154.0 -230.9 -155.15 -230.65 -156.15 M-311.0 -156.5 L-310.25 -153.5 -310.25 -153.25 -310.0 -153.15 -309.75 -153.25 -311.0 -156.5" fill="#b00000" fill-opacity="0.9098039" fill-rule="evenodd" stroke="none"/>
    <path d="M-218.15 -239.15 L-218.9 -239.25 -219.25 -239.4 -219.5 -239.4 -217.4 -239.65 -218.15 -239.15" fill="#ab0000" fill-rule="evenodd" stroke="none"/>
    <path d="M-331.0 -163.9 L-331.15 -163.9 -330.9 -164.15 -329.25 -173.15 -329.15 -173.4 -326.0 -189.0 -322.75 -182.15 -324.15 -176.4 -323.9 -176.15 -323.9 -175.75 -324.25 -174.5 -324.4 -172.25 -324.25 -170.0 -324.4 -168.4 -324.15 -167.4 -324.4 -167.25 -330.9 -164.15 -331.0 -163.9" fill="#c40000" fill-rule="evenodd" stroke="none"/>
    <path d="M-318.75 -145.65 L-318.75 -146.0 -318.9 -146.15 -319.0 -146.4 -331.25 -161.9 -331.15 -163.25 -331.25 -163.5 -331.0 -163.9 -330.9 -164.15 -324.4 -167.25 -322.65 -160.15 -322.5 -159.0 -319.65 -152.65 -319.4 -151.9 -315.25 -146.15 -314.9 -145.5 -310.0 -140.75 -309.65 -140.75 -309.15 -140.15 -303.4 -136.65 -302.75 -136.0 -310.65 -135.5 -318.75 -145.65" fill="#c60000" fill-rule="evenodd" stroke="none"/>
    <path d="M-198.9 -185.75 L-194.65 -180.25 -194.5 -179.75 -194.15 -179.25 -191.75 -176.4 -191.5 -175.75 -194.15 -139.0 -194.15 -137.15 -194.4 -136.9 -197.9 -135.5 -198.25 -135.4 -207.75 -131.75 -207.0 -134.5 -207.15 -134.75 -206.9 -135.0 -205.4 -141.0 -205.5 -141.5 -205.0 -142.75 -204.9 -143.15 -205.0 -143.4 -204.75 -143.65 -203.65 -148.65 -203.5 -148.9 -202.0 -154.75 -202.15 -155.0 -201.9 -155.4 -200.5 -162.5 -200.4 -162.9 -200.15 -167.9 -200.0 -168.9 -200.25 -170.25 -200.0 -170.65 -199.5 -179.4 -199.4 -180.0 -199.0 -184.5 -199.25 -185.5 -198.9 -185.75" fill="#d30000" fill-opacity="0.9098039" fill-rule="evenodd" stroke="none"/>
    <path d="M-207.75 -131.75 L-198.25 -135.4 -197.9 -135.5 -194.4 -136.9 -194.15 -136.5 -194.25 -136.25 -195.75 -131.0 -195.65 -130.75 -197.65 -122.9 -203.15 -102.15 -203.0 -101.9 -203.25 -101.65 -203.15 -101.15 -205.9 -87.25 -206.75 -69.75 -208.25 -51.0 -208.15 -50.0 -209.65 -33.65 -208.0 -27.9 -207.25 -24.0 -207.9 -23.65 -208.5 -23.15 -209.65 -22.9 -209.9 -22.75 -213.25 -21.9 -213.65 -21.9 -214.9 -21.5 -216.0 -21.4 -216.25 -21.25 -232.75 -18.75 -233.0 -18.65 -233.9 -18.5 -233.4 -20.65 -233.5 -21.65 -232.65 -24.9 -232.75 -25.15 -229.5 -42.9 -229.65 -43.4 -228.15 -62.9 -228.25 -63.5 -226.75 -83.25 -226.9 -83.9 -226.5 -86.5 -216.65 -110.0 -216.4 -111.25 -207.75 -131.75" fill="#dd0000" fill-opacity="0.9098039" fill-rule="evenodd" stroke="none"/>
    <path d="M-182.0 -138.75 L-181.9 -138.5 -193.75 -100.5 -188.9 -122.5 -189.0 -122.9 -188.75 -123.15 -188.9 -123.4 -188.65 -123.65 -188.75 -123.9 -188.9 -123.4 -189.0 -122.9 -197.25 -90.25 -197.65 -122.9 -195.65 -130.75 -195.75 -131.0 -194.25 -136.25 -194.15 -136.5 -194.4 -136.9 -194.15 -137.15 -184.9 -140.4 -184.65 -140.4 -182.0 -138.75 M-195.5 -93.75 L-195.4 -93.5 -197.25 -86.15 -197.5 -88.4 -197.25 -88.9 -197.25 -89.15 -195.5 -93.75" fill="#f40000" fill-rule="evenodd" stroke="none"/>
    <path d="M-191.5 -175.75 L-183.65 -165.4 -179.5 -148.9 -179.9 -148.0 -183.5 -141.4 -184.65 -140.4 -184.9 -140.4 -194.15 -137.15 -194.15 -139.0 -191.5 -175.75 M-208.5 -23.15 L-207.9 -23.65 -207.25 -24.0 -206.4 -20.15 -206.4 -19.25 -206.25 -19.0 -206.15 -18.9 -206.15 -18.65 -205.75 -17.25 -205.9 -17.5 -206.0 -17.75 -206.0 -17.9 -206.15 -18.0 -206.15 -18.15 -208.5 -23.15 M-317.9 -2.4 L-317.65 -4.15 -317.65 -5.5 -311.0 -16.75 -310.65 -16.9 -312.5 -12.75 -316.5 -4.75 -317.4 -3.4 -317.5 -2.65 -317.9 -2.4" fill="#e80000" fill-opacity="0.9098039" fill-rule="evenodd" stroke="none"/>
    <path d="M-179.9 -148.0 L-179.75 -147.65 -182.0 -138.75 -184.65 -140.4 -183.5 -141.4 -179.9 -148.0" fill="#ea0000" fill-rule="evenodd" stroke="none"/>
    <path d="M-318.5 -0.9 L-327.4 -0.9 -307.5 -31.15 -307.4 -31.5 -308.65 -50.75 -306.5 -73.0 -305.5 -91.9 -318.75 -145.65 -310.65 -135.5 -303.4 -91.65 -307.0 -48.4 -306.5 -31.75 -306.5 -27.4 -306.25 -25.4 -308.15 -21.65 -310.65 -16.9 -311.0 -16.75 -317.65 -5.5 -317.65 -4.15 -317.9 -2.4 -318.15 -1.4 -318.5 -0.9" fill="#fd0000" fill-rule="evenodd" stroke="none"/>
    <path d="M-318.15 -0.9 L-318.5 -0.9 -318.15 -1.4 -318.0 -1.15 -318.15 -0.9 M-308.15 -21.65 L-306.25 -25.4 -305.75 -25.15 -308.15 -21.65" fill="#ba0000" fill-rule="evenodd" stroke="none"/>
    <path d="M-228.65 -0.9 L-318.15 -0.9 -318.0 -1.15 -318.15 -1.4 -317.9 -2.4 -317.5 -2.65 -317.4 -3.4 -316.5 -4.75 -312.5 -12.75 -310.65 -16.9 -308.15 -21.65 -305.75 -25.15 -298.0 -22.4 -291.15 -21.75 -290.4 -21.75 -254.65 -18.25 -233.9 -18.5 -228.65 -0.9" fill="#a40000" fill-opacity="0.9098039" fill-rule="evenodd" stroke="none"/>
    <path d="M-300.65 -33.65 L-305.75 -25.15 -306.25 -25.4 -306.5 -27.4 -306.5 -31.75 -304.0 -33.15 -300.65 -33.65" fill="#bd0000" fill-rule="evenodd" stroke="none"/>
    <path d="M-302.75 -136.0 L-302.0 -135.65 -293.5 -95.9 -293.15 -93.25 -295.25 -61.75 -295.4 -61.0 -297.25 -41.9 -297.4 -41.4 -297.9 -37.9 -300.65 -33.65 -304.0 -33.15 -306.5 -31.75 -307.0 -48.4 -303.4 -91.65 -310.65 -135.5 -302.75 -136.0" fill="#bc0000" fill-rule="evenodd" stroke="none"/>
    <path d="M-302.75 -136.0 L-298.75 -136.15 -298.4 -136.25 -292.75 -136.25 -286.75 -135.75 -286.5 -135.65 -277.9 -134.75 -238.5 -133.75 -230.9 -133.25 -224.25 -132.75 -223.9 -132.75 -207.75 -131.75 -216.4 -111.25 -216.65 -110.0 -226.5 -86.5 -226.9 -83.9 -226.75 -83.25 -228.25 -63.5 -228.15 -62.9 -229.65 -43.4 -229.5 -42.9 -232.75 -25.15 -232.65 -24.9 -233.5 -21.65 -233.4 -20.65 -233.9 -18.5 -254.65 -18.25 -290.4 -21.75 -291.15 -21.75 -298.0 -22.4 -305.75 -25.15 -300.65 -33.65 -297.9 -37.9 -297.4 -41.4 -297.25 -41.9 -295.4 -61.0 -295.25 -61.75 -293.15 -93.25 -293.5 -95.9 -302.0 -135.65 -302.75 -136.0" fill="#a70000" fill-opacity="0.9098039" fill-rule="evenodd" stroke="none"/>
    <path d="M-197.25 -86.15 L-199.75 -45.15 -204.5 -26.65 -208.0 -27.9 -209.65 -33.65 -208.15 -50.0 -208.25 -51.0 -206.75 -69.75 -205.9 -87.25 -203.15 -101.15 -203.25 -101.65 -203.0 -101.9 -203.15 -102.15 -197.65 -122.9 -197.25 -90.25 -197.25 -89.15 -197.25 -88.9 -197.5 -88.4 -197.25 -86.15" fill="#ed0000" fill-rule="evenodd" stroke="none"/>
    <path d="M-207.25 -24.0 L-208.0 -27.9 -204.5 -26.65 -206.0 -24.9 -207.25 -24.0" fill="#f00000" fill-rule="evenodd" stroke="none"/>
    <path d="M-204.5 -26.65 L-201.0 -12.5 -205.0 -22.15 -200.5 -7.15 -204.15 -13.9 -204.25 -14.15 -204.4 -14.4 -204.5 -14.65 -204.65 -14.9 -204.75 -15.15 -204.75 -15.25 -205.0 -15.4 -204.9 -15.5 -205.0 -15.5 -205.0 -15.75 -205.15 -15.75 -205.25 -16.15 -205.5 -16.75 -205.5 -16.9 -205.65 -17.0 -205.65 -17.15 -205.75 -17.25 -206.15 -18.65 -206.15 -18.9 -206.25 -19.0 -206.4 -19.25 -206.4 -20.15 -207.25 -24.0 -206.0 -24.9 -204.5 -26.65" fill="#fb0000" fill-rule="evenodd" stroke="none"/>
    <path d="M-199.4 -0.9 L-228.65 -0.9 -233.9 -18.5 -233.0 -18.65 -232.75 -18.75 -216.25 -21.25 -216.0 -21.4 -214.9 -21.5 -213.65 -21.9 -213.25 -21.9 -209.9 -22.75 -209.65 -22.9 -208.5 -23.15 -206.15 -18.15 -206.15 -18.0 -206.0 -17.9 -206.0 -17.75 -205.9 -17.5 -205.75 -17.25 -205.65 -17.15 -205.65 -17.0 -205.5 -16.9 -205.5 -16.75 -205.25 -16.15 -205.15 -15.75 -205.0 -15.5 -205.0 -15.4 -204.9 -15.25 -204.65 -14.5 -202.9 -8.9 -202.25 -7.65 -202.25 -7.5 -202.15 -7.15 -199.4 -0.9" fill="#c80000" fill-opacity="0.9098039" fill-rule="evenodd" stroke="none"/>
    <path d="M-193.75 -100.5 L-195.5 -93.75 -197.25 -89.15 -197.25 -90.25 -189.0 -122.9 -188.9 -123.4 -188.75 -123.9 -188.65 -123.65 -188.9 -123.4 -188.75 -123.15 -189.0 -122.9 -188.9 -122.5 -193.75 -100.5" fill="#f30000" fill-rule="evenodd" stroke="none"/>
    <path d="M-205.15 -15.75 L-205.0 -15.75 -205.0 -15.5 -204.9 -15.5 -205.0 -15.4 -205.0 -15.5 -205.15 -15.75 M-204.75 -15.25 L-204.75 -15.15 -204.65 -14.9 -204.5 -14.65 -204.4 -14.4 -204.25 -14.15 -204.15 -13.9 -203.65 -12.75 -204.65 -14.5 -204.9 -15.25 -204.75 -15.25" fill="#de0000" fill-rule="evenodd" stroke="none"/>
    <path d="M-197.5 -0.9 L-198.65 -0.9 -199.15 -2.75 -199.15 -2.9 -199.25 -3.15 -199.4 -3.4 -199.4 -3.65 -199.75 -4.5 -199.75 -4.65 -200.0 -5.0 -200.15 -5.4 -200.15 -5.5 -203.65 -12.75 -204.15 -13.9 -200.5 -7.15 -200.5 -7.0 -200.15 -5.9 -198.9 -4.0 -198.0 -1.75 -197.5 -0.9 M-205.0 -15.4 L-204.75 -15.25 -204.9 -15.25 -205.0 -15.4" fill="#df0000" fill-rule="evenodd" stroke="none"/>
    <path d="M-198.65 -0.9 L-199.4 -0.9 -202.15 -7.15 -202.25 -7.5 -202.25 -7.65 -202.9 -8.9 -204.65 -14.5 -203.65 -12.75 -200.15 -5.5 -200.15 -5.4 -200.0 -5.0 -199.75 -4.65 -199.75 -4.5 -199.4 -3.65 -199.4 -3.4 -199.25 -3.15 -199.15 -2.9 -199.15 -2.75 -198.65 -0.9" fill="#db0000" fill-rule="evenodd" stroke="none"/>
    <path d="M-201.0 -12.5 L-199.75 -8.5 -198.9 -4.0 -200.15 -5.9 -200.5 -7.0 -200.5 -7.15 -205.0 -22.15 -201.0 -12.5" fill="#fe0000" fill-rule="evenodd" stroke="none"/>
    <path d="M-199.75 -8.5 L-196.75 -0.9 -197.5 -0.9 -198.0 -1.75 -198.9 -4.0 -199.75 -8.5" fill="#ff0000" fill-rule="evenodd" stroke="none"/>
  </g>
  <defs>
    <radialGradient cx="0" cy="0" gradientTransform="matrix(0.1794, 0.0, 0.0, 0.1794, -180.05, -279.2)" gradientUnits="userSpaceOnUse" id="gradient0" r="819.2" spreadMethod="pad">
      <stop offset="0.0" stop-color="#5a5a5a"/>
      <stop offset="1.0" stop-color="#1d1d1d"/>
    </radialGradient>
    <radialGradient cx="0" cy="0" gradientTransform="matrix(0.0942, 0.0, 0.0, 0.0942, -235.8, -273.3)" gradientUnits="userSpaceOnUse" id="gradient1" r="819.2" spreadMethod="pad">
      <stop offset="0.0" stop-color="#7d7d7d"/>
      <stop offset="1.0" stop-color="#2f2f2f"/>
    </radialGradient>
    <radialGradient cx="0" cy="0" gradientTransform="matrix(0.0446, 0.0, 0.0, 0.0446, -259.75, -253.0)" gradientUnits="userSpaceOnUse" id="gradient2" r="819.2" spreadMethod="pad">
      <stop offset="0.0" stop-color="#1a1a1a"/>
      <stop offset="1.0" stop-color="#000000"/>
    </radialGradient>
    <radialGradient cx="0" cy="0" gradientTransform="matrix(0.149, 0.0, 0.0, 0.149, -284.7, -133.9)" gradientUnits="userSpaceOnUse" id="gradient3" r="819.2" spreadMethod="pad">
      <stop offset="0.0" stop-color="#6a6a6a"/>
      <stop offset="1.0" stop-color="#000000"/>
    </radialGradient>
    <radialGradient cx="0" cy="0" gradientTransform="matrix(0.0369, 0.0, 0.0, 0.0369, -229.2, -243.6)" gradientUnits="userSpaceOnUse" id="gradient4" r="819.2" spreadMethod="pad">
      <stop offset="0.0" stop-color="#000000"/>
      <stop offset="1.0" stop-color="#000000"/>
    </radialGradient>
    <radialGradient cx="0" cy="0" gradientTransform="matrix(0.0089, 0.0, 0.0, 0.0089, -222.7, -245.6)" gradientUnits="userSpaceOnUse" id="gradient5" r="819.2" spreadMethod="pad">
      <stop offset="0.0" stop-color="#7b7b7b"/>
      <stop offset="1.0" stop-color="#1b1b1b"/>
    </radialGradient>
    <radialGradient cx="0" cy="0" gradientTransform="matrix(0.2822, 0.0, 0.0, 0.2822, -222.55, -249.3)" gradientUnits="userSpaceOnUse" id="gradient6" r="819.2" spreadMethod="pad">
      <stop offset="0.0" stop-color="#101010"/>
      <stop offset="1.0" stop-color="#000000"/>
    </radialGradient>
    <radialGradient cx="0" cy="0" gradientTransform="matrix(0.0195, 0.0, 0.0, 0.0195, -236.95, -261.2)" gradientUnits="userSpaceOnUse" id="gradient7" r="819.2" spreadMethod="pad">
      <stop offset="0.0" stop-color="#797979"/>
      <stop offset="1.0" stop-color="#000000"/>
    </radialGradient>
    <radialGradient cx="0" cy="0" gradientTransform="matrix(0.0248, 0.0, 0.0, 0.0248, -247.75, -299.55)" gradientUnits="userSpaceOnUse" id="gradient8" r="819.2" spreadMethod="pad">
      <stop offset="0.0" stop-color="#d38080"/>
      <stop offset="1.0" stop-color="#4f1818"/>
    </radialGradient>
    <radialGradient cx="0" cy="0" gradientTransform="matrix(0.017, 0.0, 0.0, 0.017, -253.5, -297.9)" gradientUnits="userSpaceOnUse" id="gradient9" r="819.2" spreadMethod="pad">
      <stop offset="0.0" stop-color="#ff3030"/>
      <stop offset="1.0" stop-color="#ff2e2e"/>
    </radialGradient>
    <radialGradient cx="0" cy="0" gradientTransform="matrix(0.0507, 0.0, 0.0, 0.0507, -156.6, -275.15)" gradientUnits="userSpaceOnUse" id="gradient10" r="819.2" spreadMethod="pad">
      <stop offset="0.0" stop-color="#3f3f3f"/>
      <stop offset="1.0" stop-color="#222222"/>
    </radialGradient>
    <radialGradient cx="0" cy="0" gradientTransform="matrix(0.0404, 0.0, 0.0, 0.0404, -323.4, -300.0)" gradientUnits="userSpaceOnUse" id="gradient11" r="819.2" spreadMethod="pad">
      <stop offset="0.0" stop-color="#333333"/>
      <stop offset="1.0" stop-color="#2d2d2d"/>
    </radialGradient>
    <radialGradient cx="0" cy="0" gradientTransform="matrix(0.0034, 0.0, 0.0, 0.0034, -9.8, -265.75)" gradientUnits="userSpaceOnUse" id="gradient12" r="819.2" spreadMethod="pad">
      <stop offset="0.0" stop-color="#262626"/>
      <stop offset="1.0" stop-color="#262626"/>
    </radialGradient>
    <radialGradient cx="0" cy="0" gradientTransform="matrix(0.0184, 0.0, 0.0, 0.0184, -12.5, -259.55)" gradientUnits="userSpaceOnUse" id="gradient13" r="819.2" spreadMethod="pad">
      <stop offset="0.0" stop-color="#040404"/>
      <stop offset="1.0" stop-color="#040404"/>
    </radialGradient>
    <radialGradient cx="0" cy="0" gradientTransform="matrix(0.0242, 0.0, 0.0, 0.0242, -7.2, -239.7)" gradientUnits="userSpaceOnUse" id="gradient14" r="819.2" spreadMethod="pad">
      <stop offset="0.0" stop-color="#040404"/>
      <stop offset="1.0" stop-color="#040404"/>
    </radialGradient>
    <radialGradient cx="0" cy="0" gradientTransform="matrix(0.0091, 0.0, 0.0, 0.0091, -1.4, -256.65)" gradientUnits="userSpaceOnUse" id="gradient15" r="819.2" spreadMethod="pad">
      <stop offset="0.0" stop-color="#020202"/>
      <stop offset="1.0" stop-color="#020202"/>
    </radialGradient>
    <radialGradient cx="0" cy="0" gradientTransform="matrix(0.0217, 0.0, 0.0, 0.0217, -10.4, -263.85)" gradientUnits="userSpaceOnUse" id="gradient16" r="819.2" spreadMethod="pad">
      <stop offset="0.0" stop-color="#171717"/>
      <stop offset="1.0" stop-color="#171717"/>
    </radialGradient>
    <radialGradient cx="0" cy="0" gradientTransform="matrix(0.0166, 0.0, 0.0, 0.0166, -12.65, -246.25)" gradientUnits="userSpaceOnUse" id="gradient17" r="819.2" spreadMethod="pad">
      <stop offset="0.0" stop-color="#020202"/>
      <stop offset="1.0" stop-color="#020202"/>
    </radialGradient>
    <radialGradient cx="0" cy="0" gradientTransform="matrix(0.0086, 0.0, 0.0, 0.0086, -13.75, -255.95)" gradientUnits="userSpaceOnUse" id="gradient18" r="819.2" spreadMethod="pad">
      <stop offset="0.0" stop-color="#171717"/>
      <stop offset="1.0" stop-color="#171717"/>
    </radialGradient>
    <radialGradient cx="0" cy="0" gradientTransform="matrix(0.014, 0.0, 0.0, 0.014, -20.8, -256.85)" gradientUnits="userSpaceOnUse" id="gradient19" r="819.2" spreadMethod="pad">
      <stop offset="0.0" stop-color="#2f2f2f"/>
      <stop offset="1.0" stop-color="#212121"/>
    </radialGradient>
    <radialGradient cx="0" cy="0" gradientTransform="matrix(0.0036, 0.0, 0.0, 0.0036, -15.5, -247.55)" gradientUnits="userSpaceOnUse" id="gradient20" r="819.2" spreadMethod="pad">
      <stop offset="0.0" stop-color="#202020"/>
      <stop offset="1.0" stop-color="#1f1f1f"/>
    </radialGradient>
    <radialGradient cx="0" cy="0" gradientTransform="matrix(0.0131, 0.0, 0.0, 0.0131, -11.3, -246.55)" gradientUnits="userSpaceOnUse" id="gradient21" r="819.2" spreadMethod="pad">
      <stop offset="0.0" stop-color="#040404"/>
      <stop offset="1.0" stop-color="#040404"/>
    </radialGradient>
    <radialGradient cx="0" cy="0" gradientTransform="matrix(0.0098, 0.0, 0.0, 0.0098, -4.35, -256.5)" gradientUnits="userSpaceOnUse" id="gradient22" r="819.2" spreadMethod="pad">
      <stop offset="0.0" stop-color="#020202"/>
      <stop offset="1.0" stop-color="#020202"/>
    </radialGradient>
    <radialGradient cx="0" cy="0" gradientTransform="matrix(0.0112, 0.0, 0.0, 0.0112, -6.35, -256.9)" gradientUnits="userSpaceOnUse" id="gradient23" r="819.2" spreadMethod="pad">
      <stop offset="0.0" stop-color="#020202"/>
      <stop offset="1.0" stop-color="#020202"/>
    </radialGradient>
    <radialGradient cx="0" cy="0" gradientTransform="matrix(0.0737, 0.0, 0.0, 0.0737, -298.15, -188.3)" gradientUnits="userSpaceOnUse" id="gradient24" r="819.2" spreadMethod="pad">
      <stop offset="0.0" stop-color="#171717"/>
      <stop offset="1.0" stop-color="#000000"/>
    </radialGradient>
    <radialGradient cx="0" cy="0" gradientTransform="matrix(0.025, 0.0, 0.0, 0.025, -3.8, -236.55)" gradientUnits="userSpaceOnUse" id="gradient25" r="819.2" spreadMethod="pad">
      <stop offset="0.0" stop-color="#030303"/>
      <stop offset="1.0" stop-color="#030303"/>
    </radialGradient>
    <radialGradient cx="0" cy="0" gradientTransform="matrix(0.0151, 0.0, 0.0, 0.0151, -25.05, -236.2)" gradientUnits="userSpaceOnUse" id="gradient26" r="819.2" spreadMethod="pad">
      <stop offset="0.0" stop-color="#040404"/>
      <stop offset="1.0" stop-color="#040404"/>
    </radialGradient>
    <radialGradient cx="0" cy="0" gradientTransform="matrix(0.0134, 0.0, 0.0, 0.0134, -5.2, -234.0)" gradientUnits="userSpaceOnUse" id="gradient27" r="819.2" spreadMethod="pad">
      <stop offset="0.0" stop-color="#1f1f1f"/>
      <stop offset="1.0" stop-color="#040404"/>
    </radialGradient>
    <radialGradient cx="0" cy="0" gradientTransform="matrix(0.0112, 0.0, 0.0, 0.0112, -5.05, -228.3)" gradientUnits="userSpaceOnUse" id="gradient28" r="819.2" spreadMethod="pad">
      <stop offset="0.0" stop-color="#2d2d2d"/>
      <stop offset="1.0" stop-color="#2b2b2b"/>
    </radialGradient>
    <radialGradient cx="0" cy="0" gradientTransform="matrix(0.0154, 0.0, 0.0, 0.0154, -24.6, -236.3)" gradientUnits="userSpaceOnUse" id="gradient29" r="819.2" spreadMethod="pad">
      <stop offset="0.0" stop-color="#030303"/>
      <stop offset="1.0" stop-color="#030303"/>
    </radialGradient>
    <radialGradient cx="0" cy="0" gradientTransform="matrix(0.0477, 0.0, 0.0, 0.0477, -268.95, -241.15)" gradientUnits="userSpaceOnUse" id="gradient30" r="819.2" spreadMethod="pad">
      <stop offset="0.0" stop-color="#000000"/>
      <stop offset="1.0" stop-color="#000000"/>
    </radialGradient>
    <radialGradient cx="0" cy="0" gradientTransform="matrix(0.0538, 0.0, 0.0, 0.0538, -298.15, -188.3)" gradientUnits="userSpaceOnUse" id="gradient31" r="819.2" spreadMethod="pad">
      <stop offset="0.0" stop-color="#171717"/>
      <stop offset="1.0" stop-color="#000000"/>
    </radialGradient>
    <radialGradient cx="0" cy="0" gradientTransform="matrix(0.0904, 0.0, 0.0, 0.0904, -345.75, -161.35)" gradientUnits="userSpaceOnUse" id="gradient32" r="819.2" spreadMethod="pad">
      <stop offset="0.0" stop-color="#6a6a6a"/>
      <stop offset="1.0" stop-color="#000000"/>
    </radialGradient>
    <radialGradient cx="0" cy="0" gradientTransform="matrix(0.1158, 0.0, 0.0, 0.1158, -382.95, -171.45)" gradientUnits="userSpaceOnUse" id="gradient33" r="819.2" spreadMethod="pad">
      <stop offset="0.0" stop-color="#262626"/>
      <stop offset="1.0" stop-color="#040404"/>
    </radialGradient>
    <radialGradient cx="0" cy="0" gradientTransform="matrix(0.1158, 0.0, 0.0, 0.1158, -277.95, -163.1)" gradientUnits="userSpaceOnUse" id="gradient34" r="819.2" spreadMethod="pad">
      <stop offset="0.0" stop-color="#010101"/>
      <stop offset="1.0" stop-color="#000000"/>
    </radialGradient>
    <radialGradient cx="0" cy="0" gradientTransform="matrix(0.0754, 0.0, 0.0, 0.0754, -185.05, -193.7)" gradientUnits="userSpaceOnUse" id="gradient35" r="819.2" spreadMethod="pad">
      <stop offset="0.0" stop-color="#595959"/>
      <stop offset="1.0" stop-color="#000000"/>
    </radialGradient>
    <radialGradient cx="0" cy="0" gradientTransform="matrix(0.1076, 0.0, 0.0, 0.1076, -192.8, -158.7)" gradientUnits="userSpaceOnUse" id="gradient36" r="819.2" spreadMethod="pad">
      <stop offset="0.0" stop-color="#3f3f3f"/>
      <stop offset="1.0" stop-color="#000000"/>
    </radialGradient>
    <radialGradient cx="0" cy="0" gradientTransform="matrix(0.0823, 0.0, 0.0, 0.0823, -245.3, -142.4)" gradientUnits="userSpaceOnUse" id="gradient37" r="819.2" spreadMethod="pad">
      <stop offset="0.0" stop-color="#878787"/>
      <stop offset="1.0" stop-color="#000000"/>
    </radialGradient>
    <radialGradient cx="0" cy="0" gradientTransform="matrix(0.1431, 0.0, 0.0, 0.1431, -284.7, -133.9)" gradientUnits="userSpaceOnUse" id="gradient38" r="819.2" spreadMethod="pad">
      <stop offset="0.0" stop-color="#6a6a6a"/>
      <stop offset="1.0" stop-color="#000000"/>
    </radialGradient>
    <radialGradient cx="0" cy="0" gradientTransform="matrix(0.0809, 0.0, 0.0, 0.0809, -297.4, -146.5)" gradientUnits="userSpaceOnUse" id="gradient39" r="819.2" spreadMethod="pad">
      <stop offset="0.0" stop-color="#858585"/>
      <stop offset="1.0" stop-color="#000000"/>
    </radialGradient>
    <radialGradient cx="0" cy="0" gradientTransform="matrix(0.0443, 0.0, 0.0, 0.0443, -189.7, -233.65)" gradientUnits="userSpaceOnUse" id="gradient40" r="819.2" spreadMethod="pad">
      <stop offset="0.0" stop-color="#000000"/>
      <stop offset="1.0" stop-color="#000000"/>
    </radialGradient>
    <radialGradient cx="0" cy="0" gradientTransform="matrix(0.0181, 0.0, 0.0, 0.0181, -186.5, -219.15)" gradientUnits="userSpaceOnUse" id="gradient41" r="819.2" spreadMethod="pad">
      <stop offset="0.0" stop-color="#000000"/>
      <stop offset="1.0" stop-color="#000000"/>
    </radialGradient>
    <radialGradient cx="0" cy="0" gradientTransform="matrix(0.0883, 0.0, 0.0, 0.0883, -165.05, -188.4)" gradientUnits="userSpaceOnUse" id="gradient42" r="819.2" spreadMethod="pad">
      <stop offset="0.0" stop-color="#616161"/>
      <stop offset="1.0" stop-color="#000000"/>
    </radialGradient>
    <radialGradient cx="0" cy="0" gradientTransform="matrix(0.002, 0.0, 0.0, 0.002, -25.2, -237.35)" gradientUnits="userSpaceOnUse" id="gradient43" r="819.2" spreadMethod="pad">
      <stop offset="0.0" stop-color="#262626"/>
      <stop offset="1.0" stop-color="#262626"/>
    </radialGradient>
    <radialGradient cx="0" cy="0" gradientTransform="matrix(0.0712, 0.0, 0.0, 0.0712, -50.45, -193.05)" gradientUnits="userSpaceOnUse" id="gradient44" r="819.2" spreadMethod="pad">
      <stop offset="0.0" stop-color="#000000"/>
      <stop offset="1.0" stop-color="#000000"/>
    </radialGradient>
    <radialGradient cx="0" cy="0" gradientTransform="matrix(0.0286, 0.0, 0.0, 0.0286, -92.95, -183.3)" gradientUnits="userSpaceOnUse" id="gradient45" r="819.2" spreadMethod="pad">
      <stop offset="0.0" stop-color="#000000"/>
      <stop offset="1.0" stop-color="#000000"/>
    </radialGradient>
    <radialGradient cx="0" cy="0" gradientTransform="matrix(0.0713, 0.0, 0.0, 0.0713, -144.95, -206.7)" gradientUnits="userSpaceOnUse" id="gradient46" r="819.2" spreadMethod="pad">
      <stop offset="0.0" stop-color="#000000"/>
      <stop offset="1.0" stop-color="#000000"/>
    </radialGradient>
    <radialGradient cx="0" cy="0" gradientTransform="matrix(0.0481, 0.0, 0.0, 0.0481, -12.9, -181.15)" gradientUnits="userSpaceOnUse" id="gradient47" r="819.2" spreadMethod="pad">
      <stop offset="0.0" stop-color="#000000"/>
      <stop offset="1.0" stop-color="#000000"/>
    </radialGradient>
    <radialGradient cx="0" cy="0" gradientTransform="matrix(0.0413, 0.0, 0.0, 0.0413, -62.1, -154.35)" gradientUnits="userSpaceOnUse" id="gradient48" r="819.2" spreadMethod="pad">
      <stop offset="0.0" stop-color="#161616"/>
      <stop offset="1.0" stop-color="#000000"/>
    </radialGradient>
    <radialGradient cx="0" cy="0" gradientTransform="matrix(0.0259, 0.0, 0.0, 0.0259, -50.45, -193.05)" gradientUnits="userSpaceOnUse" id="gradient49" r="819.2" spreadMethod="pad">
      <stop offset="0.0" stop-color="#000000"/>
      <stop offset="1.0" stop-color="#000000"/>
    </radialGradient>
    <radialGradient cx="0" cy="0" gradientTransform="matrix(0.0688, 0.0, 0.0, 0.0688, -62.1, -154.35)" gradientUnits="userSpaceOnUse" id="gradient50" r="819.2" spreadMethod="pad">
      <stop offset="0.0" stop-color="#161616"/>
      <stop offset="1.0" stop-color="#000000"/>
    </radialGradient>
    <radialGradient cx="0" cy="0" gradientTransform="matrix(0.0245, 0.0, 0.0, 0.0245, -185.05, -193.7)" gradientUnits="userSpaceOnUse" id="gradient51" r="819.2" spreadMethod="pad">
      <stop offset="0.0" stop-color="#595959"/>
      <stop offset="1.0" stop-color="#000000"/>
    </radialGradient>
    <radialGradient cx="0" cy="0" gradientTransform="matrix(0.0651, 0.0, 0.0, 0.0651, -385.0, -114.4)" gradientUnits="userSpaceOnUse" id="gradient52" r="819.2" spreadMethod="pad">
      <stop offset="0.0" stop-color="#393939"/>
      <stop offset="1.0" stop-color="#000000"/>
    </radialGradient>
    <radialGradient cx="0" cy="0" gradientTransform="matrix(0.0201, 0.0, 0.0, 0.0201, -364.6, -144.85)" gradientUnits="userSpaceOnUse" id="gradient53" r="819.2" spreadMethod="pad">
      <stop offset="0.0" stop-color="#010101"/>
      <stop offset="1.0" stop-color="#000000"/>
    </radialGradient>
    <radialGradient cx="0" cy="0" gradientTransform="matrix(0.0736, 0.0, 0.0, 0.0736, -293.1, -93.4)" gradientUnits="userSpaceOnUse" id="gradient54" r="819.2" spreadMethod="pad">
      <stop offset="0.0" stop-color="#838383"/>
      <stop offset="1.0" stop-color="#212121"/>
    </radialGradient>
    <radialGradient cx="0" cy="0" gradientTransform="matrix(0.0484, 0.0, 0.0, 0.0484, -311.7, -1.0)" gradientUnits="userSpaceOnUse" id="gradient55" r="819.2" spreadMethod="pad">
      <stop offset="0.0" stop-color="#555555"/>
      <stop offset="1.0" stop-color="#1d1d1d"/>
    </radialGradient>
    <radialGradient cx="0" cy="0" gradientTransform="matrix(0.1023, 0.0, 0.0, 0.1023, -311.7, -1.0)" gradientUnits="userSpaceOnUse" id="gradient56" r="819.2" spreadMethod="pad">
      <stop offset="0.0" stop-color="#555555"/>
      <stop offset="1.0" stop-color="#000000"/>
    </radialGradient>
    <radialGradient cx="0" cy="0" gradientTransform="matrix(0.0254, 0.0, 0.0, 0.0254, -400.0, -151.25)" gradientUnits="userSpaceOnUse" id="gradient57" r="819.2" spreadMethod="pad">
      <stop offset="0.0" stop-color="#010101"/>
      <stop offset="1.0" stop-color="#000000"/>
    </radialGradient>
    <radialGradient cx="0" cy="0" gradientTransform="matrix(0.0447, 0.0, 0.0, 0.0447, -350.1, -111.25)" gradientUnits="userSpaceOnUse" id="gradient58" r="819.2" spreadMethod="pad">
      <stop offset="0.0" stop-color="#292929"/>
      <stop offset="1.0" stop-color="#010101"/>
    </radialGradient>
    <radialGradient cx="0" cy="0" gradientTransform="matrix(0.0268, 0.0, 0.0, 0.0268, -350.1, -111.25)" gradientUnits="userSpaceOnUse" id="gradient59" r="819.2" spreadMethod="pad">
      <stop offset="0.0" stop-color="#292929"/>
      <stop offset="1.0" stop-color="#000000"/>
    </radialGradient>
    <radialGradient cx="0" cy="0" gradientTransform="matrix(0.0685, 0.0, 0.0, 0.0685, -351.0, -69.8)" gradientUnits="userSpaceOnUse" id="gradient60" r="819.2" spreadMethod="pad">
      <stop offset="0.0" stop-color="#505050"/>
      <stop offset="1.0" stop-color="#131313"/>
    </radialGradient>
    <radialGradient cx="0" cy="0" gradientTransform="matrix(0.0945, 0.0, 0.0, 0.0945, -351.0, -69.8)" gradientUnits="userSpaceOnUse" id="gradient61" r="819.2" spreadMethod="pad">
      <stop offset="0.0" stop-color="#505050"/>
      <stop offset="1.0" stop-color="#2a2a2a"/>
    </radialGradient>
    <radialGradient cx="0" cy="0" gradientTransform="matrix(0.0063, 0.0, 0.0, 0.0063, -400.0, -135.15)" gradientUnits="userSpaceOnUse" id="gradient62" r="819.2" spreadMethod="pad">
      <stop offset="0.0" stop-color="#434343"/>
      <stop offset="1.0" stop-color="#2f2f2f"/>
    </radialGradient>
    <radialGradient cx="0" cy="0" gradientTransform="matrix(0.1283, 0.0, 0.0, 0.1283, -209.55, -34.0)" gradientUnits="userSpaceOnUse" id="gradient63" r="819.2" spreadMethod="pad">
      <stop offset="0.0" stop-color="#666666"/>
      <stop offset="1.0" stop-color="#0e0e0e"/>
    </radialGradient>
    <radialGradient cx="0" cy="0" gradientTransform="matrix(0.0413, 0.0, 0.0, 0.0413, -209.55, -34.0)" gradientUnits="userSpaceOnUse" id="gradient64" r="819.2" spreadMethod="pad">
      <stop offset="0.0" stop-color="#666666"/>
      <stop offset="1.0" stop-color="#5a5a5a"/>
    </radialGradient>
    <radialGradient cx="0" cy="0" gradientTransform="matrix(0.0409, 0.0, 0.0, 0.0409, -199.85, -1.0)" gradientUnits="userSpaceOnUse" id="gradient65" r="819.2" spreadMethod="pad">
      <stop offset="0.0" stop-color="#535353"/>
      <stop offset="1.0" stop-color="#494949"/>
    </radialGradient>
    <radialGradient cx="0" cy="0" gradientTransform="matrix(0.0544, 0.0, 0.0, 0.0544, -199.45, -1.0)" gradientUnits="userSpaceOnUse" id="gradient66" r="819.2" spreadMethod="pad">
      <stop offset="0.0" stop-color="#181818"/>
      <stop offset="1.0" stop-color="#000000"/>
    </radialGradient>
    <radialGradient cx="0" cy="0" gradientTransform="matrix(0.0592, 0.0, 0.0, 0.0592, -326.75, -81.65)" gradientUnits="userSpaceOnUse" id="gradient67" r="819.2" spreadMethod="pad">
      <stop offset="0.0" stop-color="#3a3a3a"/>
      <stop offset="1.0" stop-color="#000000"/>
    </radialGradient>
    <radialGradient cx="0" cy="0" gradientTransform="matrix(0.0371, 0.0, 0.0, 0.0371, -313.15, -59.85)" gradientUnits="userSpaceOnUse" id="gradient68" r="819.2" spreadMethod="pad">
      <stop offset="0.0" stop-color="#858585"/>
      <stop offset="1.0" stop-color="#2c2c2c"/>
    </radialGradient>
  </defs>
</svg>
