<?xml version="1.0" encoding="UTF-8" standalone="no"?>
<svg xmlns:xlink="http://www.w3.org/1999/xlink" height="299.1px" width="399.1px" xmlns="http://www.w3.org/2000/svg">
  <g transform="matrix(1.0, 0.0, 0.0, 1.0, 400.0, 300.0)">
    <path d="M-265.25 -244.0 L-279.25 -243.15 -301.5 -256.25 -309.9 -267.75 -311.65 -269.65 -312.15 -271.25 -318.4 -283.0 -319.4 -291.75 -322.5 -300.0 -307.5 -300.0 -302.25 -287.9 -298.9 -281.9 -298.5 -281.4 -289.9 -268.9 -279.75 -259.75 -262.4 -249.9 -259.75 -249.15 -259.65 -249.15 -260.65 -246.65 -264.15 -244.75 -265.25 -244.0 M-184.0 -244.0 Q-189.75 -243.5 -193.15 -245.15 L-203.75 -237.9 Q-207.65 -241.0 -208.25 -240.75 L-219.15 -239.65 -221.75 -240.15 -222.15 -244.75 -222.5 -245.65 -215.9 -247.15 -204.0 -251.25 Q-195.3 -257.05 -186.65 -262.9 L-178.0 -271.75 -171.0 -272.0 -171.0 -271.65 -175.15 -259.0 -175.15 -258.15 -179.75 -251.9 -184.0 -244.0 M-175.0 -275.65 L-169.5 -284.15 -168.9 -285.65 -165.65 -283.4 -175.0 -275.65" fill="url(#gradient0)" fill-rule="evenodd" stroke="none"/>
    <path d="M-307.5 -300.0 L-266.9 -300.0 -260.9 -297.75 -255.15 -296.75 -249.0 -298.25 -245.15 -300.0 -186.25 -300.0 -182.75 -294.75 -179.5 -272.15 -179.15 -272.25 -174.0 -289.0 -168.9 -285.65 -169.5 -284.15 -175.0 -275.65 Q-178.9 -271.9 -179.65 -272.0 L-178.0 -271.75 -186.65 -262.9 Q-195.3 -257.05 -204.0 -251.25 L-215.9 -247.15 -222.5 -245.65 -222.5 -248.0 -223.65 -249.9 -226.9 -251.4 -230.9 -253.4 -231.25 -253.15 -230.5 -252.0 -233.15 -252.75 -235.9 -254.15 -239.65 -254.0 -247.4 -254.65 -250.9 -254.25 -255.5 -254.5 Q-256.25 -253.4 -259.5 -251.9 L-259.75 -249.15 -262.4 -249.9 -279.75 -259.75 -289.9 -268.9 -298.5 -281.4 -298.9 -281.9 -302.25 -287.9 -307.5 -300.0" fill="url(#gradient1)" fill-rule="evenodd" stroke="none"/>
    <path d="M-259.75 -249.15 L-259.5 -251.9 Q-256.25 -253.4 -255.5 -254.5 L-250.9 -254.25 -247.4 -254.65 -239.65 -254.0 -235.9 -254.15 -233.15 -252.75 -230.5 -252.0 -227.75 -247.9 -227.75 -246.15 -228.75 -243.65 -227.9 -243.15 -225.0 -240.9 -234.75 -244.65 -264.15 -244.75 -260.65 -246.65 -259.65 -249.15 -259.75 -249.15" fill="url(#gradient2)" fill-rule="evenodd" stroke="none"/>
    <path d="M-268.65 -241.25 L-265.25 -244.0 -264.15 -244.75 -234.75 -244.65 -225.0 -240.9 -224.4 -240.25 -225.15 -240.15 -223.75 -238.75 -210.75 -207.25 -210.25 -199.4 Q-222.65 -210.25 -242.65 -206.4 -259.4 -202.75 -263.75 -188.65 L-263.65 -183.25 Q-267.0 -176.0 -266.5 -170.75 L-266.0 -165.4 -263.25 -159.15 Q-264.15 -157.9 -260.65 -149.25 L-255.4 -142.5 -252.4 -140.25 -242.65 -137.15 -234.4 -132.5 -233.0 -132.15 -282.4 -134.4 -291.4 -133.9 -288.9 -136.5 -288.75 -139.4 -286.4 -140.65 Q-285.25 -143.65 -280.75 -146.15 L-276.75 -152.25 -275.5 -159.4 -270.25 -168.0 -268.5 -175.15 -269.25 -183.65 Q-265.5 -189.15 -265.75 -190.15 -264.75 -197.25 -267.75 -202.0 L-271.75 -206.4 Q-277.4 -208.4 -277.4 -209.5 L-281.4 -210.65 -286.0 -210.65 -289.9 -210.15 -270.15 -238.75 -268.9 -238.9 -268.5 -239.4 -268.0 -240.75 -268.65 -240.65 -268.75 -240.9 -268.65 -241.15 -268.65 -241.25 M-216.65 -133.75 L-217.15 -131.5 -222.15 -131.75 -218.65 -132.75 -216.65 -133.75 M-294.65 -133.75 L-296.4 -133.65 -297.0 -134.65 -294.65 -133.75" fill="url(#gradient3)" fill-rule="evenodd" stroke="none"/>
    <path d="M-311.65 -269.65 L-319.0 -279.75 -323.65 -292.0 -326.0 -299.4 -326.4 -299.65 -326.4 -300.0 -322.5 -300.0 -319.4 -291.75 -318.4 -283.0 -312.15 -271.25 -311.65 -269.65" fill="url(#gradient4)" fill-rule="evenodd" stroke="none"/>
    <path d="M-266.9 -300.0 L-266.15 -300.0 -257.15 -297.25 -254.5 -297.25 -249.0 -298.75 -246.4 -300.0 -245.15 -300.0 -249.0 -298.25 -255.15 -296.75 -260.9 -297.75 -266.9 -300.0" fill="url(#gradient5)" fill-rule="evenodd" stroke="none"/>
    <path d="M-266.15 -300.0 L-246.4 -300.0 -249.0 -298.75 -254.5 -297.25 -257.15 -297.25 -266.15 -300.0" fill="url(#gradient6)" fill-rule="evenodd" stroke="none"/>
    <path d="M-186.25 -300.0 L-146.75 -300.0 Q-153.4 -267.75 -184.0 -244.0 L-179.75 -251.9 -175.15 -258.15 -175.15 -259.0 -171.0 -271.65 -171.0 -272.0 -178.0 -271.75 -179.65 -272.0 Q-178.9 -271.9 -175.0 -275.65 L-165.65 -283.4 -168.9 -285.65 -174.0 -289.0 -179.15 -272.25 -179.5 -272.15 -182.75 -294.75 -186.25 -300.0" fill="url(#gradient7)" fill-rule="evenodd" stroke="none"/>
    <path d="M-10.5 -263.9 L-10.9 -265.0 -9.65 -267.25 -9.15 -264.65 -10.15 -264.4 -10.5 -263.9" fill="url(#gradient8)" fill-rule="evenodd" stroke="none"/>
    <path d="M-19.75 -256.9 L-20.75 -255.75 -20.15 -256.9 -19.75 -256.9 M-15.5 -256.8 L-16.9 -256.9 -17.4 -256.5 -18.0 -257.0 -18.4 -256.5 -17.65 -256.5 -17.65 -256.0 -17.25 -256.0 -16.75 -256.5 -15.5 -256.8 M-15.75 -257.9 L-17.25 -257.0 -14.25 -256.9 -14.5 -256.65 -14.25 -256.75 -14.5 -256.15 -14.5 -256.0 -14.65 -255.75 -15.5 -248.9 -21.9 -255.25 -21.65 -255.5 -21.75 -255.5 -21.65 -255.75 -21.5 -256.0 -21.4 -256.25 -21.0 -256.5 -20.65 -256.4 -21.25 -255.4 -20.5 -255.9 -21.25 -255.25 -20.65 -254.4 -17.9 -255.0 -17.9 -255.65 -18.65 -255.9 -20.4 -255.5 -20.25 -256.25 -18.75 -256.0 -19.25 -256.15 -18.75 -257.0 -15.75 -257.9 M-14.0 -257.75 L-14.25 -257.5 -15.5 -258.0 -14.9 -258.15 -14.0 -257.75 M-10.65 -263.5 L-10.5 -263.9 -10.15 -264.4 -9.15 -264.65 -9.65 -267.25 -7.4 -268.25 Q-1.9 -265.9 -0.9 -267.15 L-0.9 -249.25 -1.0 -249.25 -1.75 -249.0 -2.5 -248.9 -2.25 -255.9 -3.0 -255.9 -3.4 -248.5 -4.65 -248.15 -5.15 -248.15 -5.15 -255.75 -6.0 -255.65 -6.0 -247.9 -6.25 -247.65 -7.15 -247.4 -7.5 -247.4 -7.0 -256.0 -8.0 -256.15 -8.4 -247.25 -8.15 -247.15 -9.15 -246.75 -10.4 -246.4 -11.5 -246.0 -11.75 -246.0 -12.15 -245.9 -12.65 -245.9 -11.5 -259.75 -11.15 -260.4 -10.75 -260.65 -9.75 -261.65 -9.75 -262.75 -10.15 -263.5 -10.65 -263.5 M-16.25 -256.15 L-16.0 -255.75 -15.15 -256.15 -16.25 -256.15 M-17.75 -254.4 L-17.65 -254.65 -18.0 -254.5 -17.75 -254.4 M-18.15 -255.25 L-18.4 -255.4 -18.0 -255.5 -18.15 -255.25 M-16.4 -251.75 L-16.15 -252.15 -17.0 -252.0 -16.4 -251.75 M-16.4 -251.25 L-15.9 -251.65 -16.65 -251.65 -16.4 -251.25 M-17.5 -252.15 L-17.0 -252.4 -17.15 -252.65 -17.5 -252.15 M-18.15 -253.25 L-17.9 -253.15 -17.75 -253.4 -18.15 -253.25 M-20.15 -254.5 L-19.75 -253.9 -18.5 -254.65 -20.15 -254.5 M-15.15 -257.5 L-15.5 -257.5 -15.15 -257.75 -15.15 -257.5" fill="url(#gradient9)" fill-rule="evenodd" stroke="none"/>
    <path d="M-0.9 -249.25 L-0.9 -223.65 -5.0 -222.15 -4.75 -232.9 -5.0 -234.75 Q-7.0 -241.25 -14.5 -240.4 L-14.9 -240.4 Q-5.5 -242.25 -4.15 -232.25 L-1.65 -232.75 -1.4 -233.15 -2.5 -238.25 Q-4.75 -241.75 -6.15 -242.4 L-9.25 -243.65 -13.9 -243.75 -15.4 -241.9 -21.15 -240.4 -24.4 -239.0 -25.0 -238.25 -24.9 -237.25 -25.25 -237.25 -25.4 -238.15 -23.9 -240.25 Q-20.25 -242.8 -16.65 -245.4 L-15.75 -245.9 -15.5 -245.75 -14.75 -245.5 -13.75 -245.5 -13.5 -245.65 -12.65 -245.9 -12.15 -245.9 -11.75 -246.0 -11.5 -246.0 -10.4 -246.4 -9.15 -246.75 -8.15 -247.15 -7.15 -247.4 -6.25 -247.65 -5.25 -248.0 -5.15 -248.0 -5.15 -248.15 -4.65 -248.15 -3.4 -248.5 -2.5 -248.9 -1.75 -249.0 -1.0 -249.25 -0.9 -249.25" fill="url(#gradient10)" fill-rule="evenodd" stroke="none"/>
    <path d="M-3.4 -248.5 L-3.0 -255.9 -2.25 -255.9 -2.5 -248.9 -3.4 -248.5" fill="url(#gradient11)" fill-rule="evenodd" stroke="none"/>
    <path d="M-13.5 -258.65 L-12.0 -261.75 -10.9 -263.25 -10.65 -263.5 -10.15 -263.5 -9.75 -262.75 -9.75 -261.65 -10.75 -260.65 -11.15 -260.4 -11.25 -260.25 -11.5 -259.75 -12.65 -245.9 -13.5 -245.65 -13.25 -257.5 -13.4 -258.15 -13.4 -258.65 -13.5 -258.65" fill="url(#gradient12)" fill-rule="evenodd" stroke="none"/>
    <path d="M-14.25 -256.9 L-14.0 -257.75 -13.9 -258.15 -13.9 -258.5 -13.5 -258.65 -13.4 -258.65 -13.4 -258.15 -13.25 -257.5 -13.5 -245.65 -13.75 -245.5 -14.75 -245.5 -15.5 -245.75 -15.75 -245.9 -15.5 -248.4 -15.5 -248.9 -14.65 -255.75 -14.5 -256.0 -14.5 -256.15 -14.25 -256.75 -14.25 -256.9" fill="url(#gradient13)" fill-rule="evenodd" stroke="none"/>
    <path d="M-19.75 -256.9 L-20.15 -256.9 -20.75 -255.75 -19.75 -256.9 M-15.5 -256.8 L-16.75 -256.5 -17.25 -256.0 -17.65 -256.0 -17.65 -256.5 -18.4 -256.5 -18.0 -257.0 -17.4 -256.5 -16.9 -256.9 -15.5 -256.8 M-15.75 -257.9 L-15.5 -258.0 -14.25 -257.5 -14.0 -257.75 -14.25 -256.9 -17.25 -257.0 -15.75 -257.9 M-14.9 -258.15 L-14.15 -258.5 -13.9 -258.5 -13.9 -258.15 -14.0 -257.75 -14.9 -258.15 M-21.4 -256.25 L-21.25 -256.4 -21.0 -256.5 -20.65 -257.0 -18.75 -257.0 -19.25 -256.15 -18.75 -256.0 -20.25 -256.25 -20.4 -255.5 -18.65 -255.9 -17.9 -255.65 -17.9 -255.0 -20.65 -254.4 -21.25 -255.25 -20.5 -255.9 -21.25 -255.4 -20.65 -256.4 -21.0 -256.5 -21.4 -256.25 M-14.25 -256.75 L-14.5 -256.65 -14.25 -256.9 -14.25 -256.75 M-17.75 -254.4 L-18.0 -254.5 -17.65 -254.65 -17.75 -254.4 M-16.25 -256.15 L-15.15 -256.15 -16.0 -255.75 -16.25 -256.15 M-18.15 -255.25 L-18.0 -255.5 -18.4 -255.4 -18.15 -255.25 M-20.15 -254.5 L-18.5 -254.65 -19.75 -253.9 -20.15 -254.5 M-18.15 -253.25 L-17.75 -253.4 -17.9 -253.15 -18.15 -253.25 M-17.5 -252.15 L-17.15 -252.65 -17.0 -252.4 -17.5 -252.15 M-16.4 -251.25 L-16.65 -251.65 -15.9 -251.65 -16.4 -251.25 M-16.4 -251.75 L-17.0 -252.0 -16.15 -252.15 -16.4 -251.75 M-15.15 -257.5 L-15.15 -257.75 -15.5 -257.5 -15.15 -257.5" fill="url(#gradient14)" fill-rule="evenodd" stroke="none"/>
    <path d="M-11.15 -260.4 L-11.5 -259.75 -11.25 -260.25 -11.15 -260.4" fill="url(#gradient15)" fill-rule="evenodd" stroke="none"/>
    <path d="M-21.9 -255.25 L-21.75 -255.5 -21.65 -255.5 -21.9 -255.25" fill="url(#gradient16)" fill-rule="evenodd" stroke="none"/>
    <path d="M-16.5 -246.75 L-20.9 -251.4 -22.5 -253.65 -21.9 -255.15 -21.9 -255.25 -15.5 -248.9 -15.5 -248.4 -16.5 -246.75" fill="url(#gradient17)" fill-rule="evenodd" stroke="none"/>
    <path d="M-16.65 -245.4 L-16.5 -246.75 -15.5 -248.4 -15.75 -245.9 -16.65 -245.4" fill="url(#gradient18)" fill-rule="evenodd" stroke="none"/>
    <path d="M-230.5 -252.0 L-231.25 -253.15 -230.9 -253.4 -226.9 -251.4 -227.75 -247.9 -230.5 -252.0" fill="url(#gradient19)" fill-rule="evenodd" stroke="none"/>
    <path d="M-226.9 -251.4 L-223.65 -249.9 -222.5 -248.0 -222.5 -245.65 -223.65 -247.25 -223.75 -247.0 -223.4 -245.9 Q-222.75 -241.5 -223.25 -240.9 L-227.0 -242.9 -227.75 -246.15 -227.75 -247.9 -226.9 -251.4" fill="url(#gradient20)" fill-rule="evenodd" stroke="none"/>
    <path d="M-6.0 -247.9 L-6.0 -255.65 -5.15 -255.75 -5.15 -248.15 -5.15 -248.0 -5.25 -248.0 -6.0 -247.9" fill="url(#gradient21)" fill-rule="evenodd" stroke="none"/>
    <path d="M-7.5 -247.4 L-7.15 -247.4 -8.15 -247.15 -7.5 -247.4 M-6.25 -247.65 L-6.0 -247.9 -5.25 -248.0 -6.25 -247.65" fill="url(#gradient22)" fill-rule="evenodd" stroke="none"/>
    <path d="M-8.15 -247.15 L-8.4 -247.25 -8.0 -256.15 -7.0 -256.0 -7.5 -247.4 -8.15 -247.15" fill="url(#gradient23)" fill-rule="evenodd" stroke="none"/>
    <path d="M-223.25 -240.9 Q-222.75 -241.5 -223.4 -245.9 L-223.75 -247.0 -223.65 -247.25 -222.5 -245.65 -222.15 -244.75 -221.75 -240.15 -222.4 -240.25 -223.25 -240.9 M-227.75 -246.15 L-227.0 -242.9 -227.9 -243.15 -228.75 -243.65 -227.75 -246.15" fill="url(#gradient24)" fill-rule="evenodd" stroke="none"/>
    <path d="M-223.25 -240.9 L-222.4 -240.25 -224.4 -240.25 -225.0 -240.9 -227.9 -243.15 -227.0 -242.9 -223.25 -240.9" fill="url(#gradient25)" fill-rule="evenodd" stroke="none"/>
    <path d="M-295.25 -232.5 L-268.65 -241.25 -268.65 -241.15 -268.75 -240.9 -269.4 -240.5 -269.4 -240.4 -271.25 -240.0 -271.25 -239.25 -299.75 -218.4 -295.25 -232.5" fill="url(#gradient26)" fill-rule="evenodd" stroke="none"/>
    <path d="M-299.0 -207.75 L-299.75 -218.4 -271.25 -239.25 -270.15 -238.75 -289.9 -210.15 -295.15 -209.15 -299.0 -207.75 M-269.4 -240.5 L-268.75 -240.9 -268.65 -240.65 -268.9 -240.5 -269.4 -240.5" fill="url(#gradient27)" fill-rule="evenodd" stroke="none"/>
    <path d="M-223.75 -238.75 L-225.15 -240.15 -224.4 -240.25 -221.15 -239.65 -222.15 -239.5 -222.75 -238.65 -223.75 -238.75 M-270.15 -238.75 L-271.25 -239.25 -271.25 -240.0 -269.4 -240.4 -269.4 -240.5 -268.9 -240.5 -268.65 -240.65 -268.0 -240.75 -268.5 -239.4 -268.9 -238.9 -270.15 -238.75" fill="url(#gradient28)" fill-rule="evenodd" stroke="none"/>
    <path d="M-219.15 -239.65 L-216.4 -239.0 -211.15 -238.0 -211.0 -238.0 -200.3 -235.9 -189.65 -233.75 -189.0 -233.25 -185.9 -219.15 -184.5 -196.65 -184.65 -193.5 -193.75 -183.5 -193.5 -206.65 -222.75 -238.65 -222.15 -239.5 -221.15 -239.65 -224.4 -240.25 -222.4 -240.25 -221.75 -240.15 -219.15 -239.65" fill="url(#gradient29)" fill-rule="evenodd" stroke="none"/>
    <path d="M-14.9 -240.4 L-15.0 -240.4 -16.65 -239.9 -17.0 -239.75 -17.5 -239.65 -18.25 -239.4 -18.4 -239.25 -21.5 -238.25 -24.9 -237.25 -25.0 -238.25 -24.4 -239.0 -21.15 -240.4 -15.4 -241.9 -13.9 -243.75 -9.25 -243.65 -6.15 -242.4 Q-4.75 -241.75 -2.5 -238.25 L-1.4 -233.15 -1.65 -232.75 -4.15 -232.25 Q-5.5 -242.25 -14.9 -240.4" fill="url(#gradient30)" fill-rule="evenodd" stroke="none"/>
    <path d="M-15.25 -238.9 L-22.25 -236.9 -21.5 -238.25 -18.4 -239.25 -18.25 -239.4 -17.5 -239.65 -17.0 -239.75 -16.65 -239.9 -15.0 -240.4 -14.9 -240.4 -14.5 -240.4 -15.25 -238.9 M-25.4 -235.9 L-26.0 -236.0 -25.25 -237.25 -24.9 -237.25 -25.4 -235.9" fill="url(#gradient31)" fill-rule="evenodd" stroke="none"/>
    <path d="M-22.25 -236.9 L-25.4 -235.9 -24.9 -237.25 -21.5 -238.25 -22.25 -236.9" fill="url(#gradient32)" fill-rule="evenodd" stroke="none"/>
    <path d="M-6.4 -233.65 Q-8.75 -239.4 -15.25 -238.9 L-14.5 -240.4 Q-7.0 -241.25 -5.0 -234.75 L-6.4 -233.65" fill="url(#gradient33)" fill-rule="evenodd" stroke="none"/>
    <path d="M-6.4 -221.5 L-6.0 -228.9 -6.4 -233.65 -5.0 -234.75 -4.75 -232.9 -5.0 -222.15 -6.4 -221.5" fill="url(#gradient34)" fill-rule="evenodd" stroke="none"/>
    <path d="M-200.3 -235.9 L-187.0 -233.5 -170.15 -221.5 -172.0 -219.4 -189.0 -233.25 -189.65 -233.75 -200.3 -235.9" fill="url(#gradient35)" fill-rule="evenodd" stroke="none"/>
    <path d="M-185.9 -219.15 L-189.0 -233.25 -172.0 -219.4 -185.9 -219.15" fill="url(#gradient36)" fill-rule="evenodd" stroke="none"/>
    <path d="M-118.25 -150.25 L-130.5 -152.0 -142.65 -157.5 -159.15 -167.15 -179.0 -174.9 -184.25 -193.15 -184.65 -193.5 -184.5 -196.65 -185.9 -219.15 -172.0 -219.4 -146.5 -207.5 -122.75 -197.65 -92.9 -183.4 -106.75 -165.9 -118.25 -150.25" fill="url(#gradient37)" fill-rule="evenodd" stroke="none"/>
    <path d="M-191.15 -177.5 L-193.65 -137.4 Q-196.65 -139.4 -197.25 -138.65 L-217.15 -131.5 -216.65 -133.75 Q-214.0 -133.65 -208.5 -138.0 L-203.15 -143.75 -198.75 -149.9 Q-195.15 -156.5 -194.65 -164.15 L-195.0 -174.65 -196.5 -181.15 -197.5 -183.75 Q-204.15 -197.5 -210.25 -199.4 L-210.75 -207.25 -223.75 -238.75 -222.75 -238.65 -193.5 -206.65 -193.75 -183.5 Q-194.0 -182.9 -191.0 -180.5 L-191.15 -177.5" fill="url(#gradient38)" fill-rule="evenodd" stroke="none"/>
    <path d="M-210.25 -199.4 Q-204.15 -197.5 -197.5 -183.75 L-196.5 -181.15 -195.0 -174.65 -194.65 -164.15 Q-195.15 -156.5 -198.75 -149.9 L-203.15 -143.75 -208.5 -138.0 Q-214.0 -133.65 -216.65 -133.75 L-218.65 -132.75 -222.15 -131.75 -229.15 -131.4 -232.5 -132.0 -232.9 -132.15 -233.0 -132.15 -234.4 -132.5 -242.65 -137.15 -252.4 -140.25 -255.4 -142.5 -260.65 -149.25 Q-264.15 -157.9 -263.25 -159.15 L-266.0 -165.4 -266.5 -170.75 Q-267.0 -176.0 -263.65 -183.25 L-263.75 -188.65 Q-259.4 -202.75 -242.65 -206.4 -222.65 -210.25 -210.25 -199.4" fill="url(#gradient39)" fill-rule="evenodd" stroke="none"/>
    <path d="M-233.0 -132.15 L-232.9 -132.15 -232.5 -132.0 -229.15 -131.4 -222.15 -131.75 -217.15 -131.5 -230.0 -89.9 -234.15 -28.5 -250.15 -28.25 -287.75 -31.65 -295.65 -33.9 -295.75 -34.75 -290.9 -94.0 -296.4 -133.65 -294.65 -133.75 -291.4 -133.9 -282.4 -134.4 -233.0 -132.15" fill="url(#gradient40)" fill-rule="evenodd" stroke="none"/>
    <path d="M-193.65 -137.4 L-202.75 -103.75 -205.9 -87.9 -206.65 -70.9 -209.25 -34.9 -210.5 -33.5 -212.75 -32.15 -218.5 -30.9 -234.15 -28.5 -230.0 -89.9 -217.15 -131.5 -197.25 -138.65 Q-196.65 -139.4 -193.65 -137.4" fill="url(#gradient41)" fill-rule="evenodd" stroke="none"/>
    <path d="M-179.0 -174.9 L-191.15 -177.5 -191.0 -180.5 Q-194.0 -182.9 -193.75 -183.5 L-184.65 -193.5 -184.25 -193.15 -179.0 -174.9" fill="url(#gradient42)" fill-rule="evenodd" stroke="none"/>
    <path d="M-26.0 -236.0 L-26.15 -236.9 -25.4 -238.15 -25.25 -237.25 -26.0 -236.0" fill="url(#gradient43)" fill-rule="evenodd" stroke="none"/>
    <path d="M-310.25 -226.5 L-310.0 -226.9 -295.25 -232.5 -299.75 -218.4 -299.0 -207.75 -301.4 -206.75 -309.75 -200.9 -314.0 -208.65 -310.25 -226.5" fill="url(#gradient44)" fill-rule="evenodd" stroke="none"/>
    <path d="M-0.9 -223.65 L-0.9 -217.0 -7.0 -214.65 -31.65 -203.15 -50.9 -192.9 -69.75 -184.15 -74.9 -187.4 -43.75 -204.15 Q-30.55 -210.05 -17.4 -216.0 L-6.4 -221.5 -5.0 -222.15 -0.9 -223.65" fill="url(#gradient45)" fill-rule="evenodd" stroke="none"/>
    <path d="M-0.9 -217.0 L-0.9 -187.9 -41.9 -166.65 -37.5 -176.9 -50.9 -192.9 -31.65 -203.15 -7.0 -214.65 -0.9 -217.0" fill="url(#gradient46)" fill-rule="evenodd" stroke="none"/>
    <path d="M-50.9 -192.9 L-37.5 -176.9 -69.75 -184.15 -50.9 -192.9" fill="url(#gradient47)" fill-rule="evenodd" stroke="none"/>
    <path d="M-90.4 -186.0 L-74.9 -187.4 -69.75 -184.15 -92.9 -183.4 -90.4 -186.0" fill="url(#gradient48)" fill-rule="evenodd" stroke="none"/>
    <path d="M-170.15 -221.5 L-90.4 -186.0 -92.9 -183.4 -122.75 -197.65 -146.5 -207.5 -172.0 -219.4 -170.15 -221.5" fill="url(#gradient49)" fill-rule="evenodd" stroke="none"/>
    <path d="M-323.25 -168.25 L-330.5 -164.65 -347.75 -151.75 -349.25 -151.15 -364.4 -145.4 -380.0 -157.9 -387.25 -168.15 -386.75 -168.65 -368.25 -178.9 -323.9 -210.0 -314.9 -221.0 -314.65 -221.4 -310.25 -226.5 -314.0 -208.65 -309.75 -200.9 Q-325.0 -186.5 -323.25 -168.25" fill="url(#gradient50)" fill-rule="evenodd" stroke="none"/>
    <path d="M-301.5 -136.4 Q-322.4 -149.25 -323.25 -168.25 -325.0 -186.5 -309.75 -200.9 L-301.4 -206.75 -299.0 -207.75 -295.15 -209.15 -289.9 -210.15 -286.0 -210.65 -281.4 -210.65 -277.4 -209.5 Q-277.4 -208.4 -271.75 -206.4 L-267.75 -202.0 Q-264.75 -197.25 -265.75 -190.15 -265.5 -189.15 -269.25 -183.65 L-268.5 -175.15 -270.25 -168.0 -275.5 -159.4 -276.75 -152.25 -280.75 -146.15 Q-285.25 -143.65 -286.4 -140.65 L-288.75 -139.4 -288.9 -136.5 -291.4 -133.9 -294.65 -133.75 -297.0 -134.65 -301.5 -136.4" fill="url(#gradient51)" fill-rule="evenodd" stroke="none"/>
    <path d="M-386.75 -168.65 L-368.25 -184.65 -347.9 -200.4 -327.75 -213.9 -314.65 -221.4 -314.9 -221.0 -323.9 -210.0 -368.25 -178.9 -386.75 -168.65" fill="url(#gradient52)" fill-rule="evenodd" stroke="none"/>
    <path d="M-62.4 -154.65 L-78.75 -146.0 -118.25 -150.25 -106.75 -165.9 -92.9 -183.4 -69.75 -184.15 -37.5 -176.9 -53.75 -167.9 -62.4 -154.65" fill="url(#gradient53)" fill-rule="evenodd" stroke="none"/>
    <path d="M-41.9 -166.65 L-62.4 -154.65 -53.75 -167.9 -37.5 -176.9 -41.9 -166.65" fill="url(#gradient54)" fill-rule="evenodd" stroke="none"/>
    <path d="M-399.9 -136.75 L-400.0 -152.15 -397.75 -154.9 -397.65 -155.15 -397.4 -155.4 -387.25 -168.15 -380.0 -157.9 -364.4 -145.4 -364.25 -145.0 -364.0 -144.25 -361.9 -130.4 -360.4 -127.9 -356.5 -120.25 -376.25 -119.0 -385.0 -115.0 -397.65 -131.25 -398.25 -131.65 -399.9 -136.75" fill="url(#gradient55)" fill-rule="evenodd" stroke="none"/>
    <path d="M-400.0 -152.15 L-399.9 -152.4 -399.4 -153.0 -399.25 -153.25 -398.5 -154.15 -397.75 -154.9 -400.0 -152.15" fill="url(#gradient56)" fill-rule="evenodd" stroke="none"/>
    <path d="M-297.25 -38.65 L-295.25 -56.25 -293.25 -79.25 -292.65 -94.4 -301.5 -136.4 -297.0 -134.65 -296.4 -133.65 -290.9 -94.0 -295.75 -34.75 -297.25 -38.65" fill="url(#gradient57)" fill-rule="evenodd" stroke="none"/>
    <path d="M-311.25 -0.9 L-317.65 -0.9 -317.15 -6.65 -297.25 -38.65 -295.75 -34.75 -295.65 -33.9 -311.25 -0.9" fill="url(#gradient58)" fill-rule="evenodd" stroke="none"/>
    <path d="M-226.5 -0.9 L-311.25 -0.9 -295.65 -33.9 -287.75 -31.65 -250.15 -28.25 -234.15 -28.5 -226.5 -0.9" fill="url(#gradient59)" fill-rule="evenodd" stroke="none"/>
    <path d="M-349.25 -151.15 L-359.75 -139.25 -364.25 -145.0 -364.4 -145.4 -349.25 -151.15" fill="url(#gradient60)" fill-rule="evenodd" stroke="none"/>
    <path d="M-359.75 -139.25 L-352.9 -129.9 -350.4 -113.25 -351.15 -114.25 -351.9 -114.75 -353.15 -116.65 -359.75 -127.4 -360.4 -127.9 -361.9 -130.4 -364.0 -144.25 -364.25 -145.0 -359.75 -139.25" fill="url(#gradient61)" fill-rule="evenodd" stroke="none"/>
    <path d="M-360.4 -127.9 L-359.75 -127.4 -353.15 -116.65 -355.9 -119.4 -356.5 -120.25 -360.4 -127.9" fill="url(#gradient62)" fill-rule="evenodd" stroke="none"/>
    <path d="M-356.5 -120.25 L-355.9 -119.4 -342.65 -95.9 -336.5 -88.0 -327.65 -75.15 -320.75 -66.15 -326.9 -63.5 Q-327.4 -65.4 -336.5 -66.5 L-340.65 -64.4 -342.15 -61.15 -350.9 -70.4 -352.5 -72.9 -365.5 -89.15 -375.0 -102.9 -385.0 -115.0 -376.25 -119.0 -356.5 -120.25" fill="url(#gradient63)" fill-rule="evenodd" stroke="none"/>
    <path d="M-343.15 -56.5 L-356.25 -73.5 -368.15 -87.9 -398.65 -130.9 -398.25 -131.65 -397.65 -131.25 -385.0 -115.0 -375.0 -102.9 -365.5 -89.15 -352.5 -72.9 -350.9 -70.4 -342.15 -61.15 -342.75 -60.5 -343.0 -59.5 -343.15 -56.5" fill="url(#gradient64)" fill-rule="evenodd" stroke="none"/>
    <path d="M-398.65 -130.9 L-399.75 -134.0 -399.9 -136.75 -398.25 -131.65 -398.65 -130.9" fill="url(#gradient65)" fill-rule="evenodd" stroke="none"/>
    <path d="M-201.65 -8.15 L-201.65 -8.0 -201.5 -7.75 -198.5 -0.9 -226.5 -0.9 -234.15 -28.5 -218.5 -30.9 -212.75 -32.15 -201.65 -8.15" fill="url(#gradient66)" fill-rule="evenodd" stroke="none"/>
    <path d="M-206.25 -21.5 L-206.25 -21.4 -201.65 -8.15 -212.75 -32.15 -210.5 -33.5 -206.25 -21.5" fill="url(#gradient67)" fill-rule="evenodd" stroke="none"/>
    <path d="M-209.25 -34.9 L-206.25 -21.5 -210.5 -33.5 -209.25 -34.9" fill="url(#gradient68)" fill-rule="evenodd" stroke="none"/>
    <path d="M-350.4 -113.25 L-332.65 -92.4 -326.75 -82.25 -318.0 -73.4 -315.9 -67.5 Q-320.15 -72.15 -322.5 -71.5 -323.25 -70.5 -319.4 -65.75 L-320.75 -66.15 -327.65 -75.15 -336.5 -88.0 -342.65 -95.9 -355.9 -119.4 -353.15 -116.65 -351.9 -114.75 -351.15 -114.25 -350.4 -113.25" fill="url(#gradient69)" fill-rule="evenodd" stroke="none"/>
    <path d="M-315.9 -67.5 Q-306.75 -54.15 -323.15 -44.9 L-327.4 -44.0 Q-332.15 -44.0 -334.4 -45.15 -340.25 -47.0 -343.15 -56.5 L-343.0 -59.5 -342.75 -60.5 -342.15 -61.15 -340.65 -64.4 -336.5 -66.5 Q-327.4 -65.4 -326.9 -63.5 L-320.75 -66.15 -319.4 -65.75 Q-323.25 -70.5 -322.5 -71.5 -320.15 -72.15 -315.9 -67.5" fill="url(#gradient70)" fill-rule="evenodd" stroke="none"/>
    <path d="M-282.9 -250.65 L-276.4 -251.0 -277.75 -249.15 -282.9 -250.65" fill="#ac0000" fill-rule="evenodd" stroke="none"/>
    <path d="M-217.15 -239.9 L-215.25 -240.9 -215.5 -242.15 -215.15 -244.65 -215.25 -247.25 -215.0 -247.4 -213.75 -243.15 -214.0 -240.15 -217.15 -239.9 M-224.9 -249.65 L-223.75 -249.0 -223.65 -248.65 -222.65 -248.15 -222.5 -248.0 -222.5 -247.75 -222.4 -247.75 -222.4 -247.4 -222.0 -247.4 -222.15 -246.5 -222.0 -245.65 -221.9 -245.65 -222.0 -244.75 -222.15 -244.4 -222.5 -245.5 -222.65 -245.65 -222.75 -245.9 -223.65 -246.9 -223.65 -247.15 -223.75 -247.15 -223.9 -247.9 -224.9 -249.65 M-222.15 -244.15 L-220.9 -242.25 -221.0 -241.75 -221.15 -239.9 -219.15 -239.65 -217.9 -239.4 -214.4 -238.65 -214.15 -238.65 -214.0 -238.5 -214.4 -235.0 -214.25 -234.75 -215.15 -221.25 -215.75 -219.65 -215.75 -218.9 -216.5 -216.5 -216.4 -216.0 -219.4 -204.75 -219.75 -204.0 -219.5 -203.9 -219.9 -203.15 -219.75 -202.65 -220.65 -199.75 -220.9 -198.25 -220.65 -198.15 -216.0 -195.9 -215.9 -195.65 -209.75 -192.5 -209.0 -192.25 -206.4 -190.75 -204.9 -190.15 -204.65 -189.9 -200.65 -187.75 -199.25 -187.25 -199.0 -186.9 -197.9 -186.4 -201.75 -185.9 -201.9 -185.65 -203.15 -185.75 -206.0 -185.4 -206.4 -185.4 -222.65 -183.5 -223.25 -183.25 -233.0 -182.25 -228.9 -200.5 -228.75 -200.65 -228.4 -201.5 -228.25 -203.0 -227.0 -206.65 -227.15 -206.75 -223.0 -220.9 -222.4 -225.4 -222.5 -225.9 -221.65 -233.15 -221.75 -234.15 -221.4 -236.9 -221.5 -237.4 -221.25 -238.65 -221.4 -238.9 -221.15 -239.5 -221.15 -239.9 -221.75 -240.15 -221.9 -240.9 -221.75 -241.25 -222.15 -244.15 M-276.4 -251.0 L-272.15 -249.5 -271.9 -249.65 -268.75 -248.5 -263.0 -245.5 -264.15 -244.75 -264.4 -244.4 -264.65 -244.4 -265.25 -244.0 -266.15 -243.9 -266.75 -243.9 -267.15 -244.5 -273.9 -247.9 -277.75 -249.15 -276.4 -251.0" fill="#9b0000" fill-opacity="0.9098039" fill-rule="evenodd" stroke="none"/>
    <path d="M-325.0 -189.75 L-315.0 -195.5 -314.25 -196.15 -313.75 -196.15 -313.25 -196.65 -310.9 -198.0 Q-310.55 -198.1 -310.25 -198.25 L-308.25 -199.4 -307.9 -200.25 -307.5 -200.65 -306.0 -203.15 -305.75 -203.5 -305.65 -203.9 -305.15 -204.4 -299.5 -213.4 -299.25 -214.15 -293.9 -222.75 -291.5 -233.75 -291.4 -233.9 -284.0 -236.15 -283.9 -235.75 -285.5 -228.65 -286.65 -222.65 -294.5 -209.4 -294.5 -209.25 -294.75 -209.15 -294.9 -208.9 -295.15 -208.65 -295.15 -208.4 -295.5 -207.9 -295.9 -207.9 -295.65 -207.75 -299.25 -201.4 -299.5 -201.15 -300.5 -199.15 -302.75 -189.75 -302.9 -189.5 -303.9 -185.65 -303.75 -185.5 -304.65 -182.0 -304.9 -181.65 -304.75 -181.4 -306.5 -174.5 -311.9 -178.9 -312.0 -179.15 -318.65 -184.5 -319.15 -185.0 -325.0 -189.75 M-286.0 -247.0 L-282.9 -250.65 -277.75 -249.15 -279.75 -246.65 -279.75 -246.25 -281.0 -244.65 -281.25 -244.4 -286.0 -247.0" fill="#9e0000" fill-opacity="0.9098039" fill-rule="evenodd" stroke="none"/>
    <path d="M-215.0 -247.4 L-215.25 -247.25 -215.15 -244.65 -215.5 -242.15 -215.25 -240.9 -217.15 -239.9 -219.15 -239.65 -221.15 -239.9 -221.0 -241.75 -220.9 -242.25 -222.15 -244.15 -222.15 -244.4 -222.0 -244.75 -221.9 -245.65 -222.0 -245.65 -222.15 -246.5 -222.0 -247.4 -222.4 -247.4 -222.4 -247.75 -222.5 -247.75 -222.5 -248.0 -222.65 -248.15 -223.65 -248.65 -223.75 -249.0 -224.9 -249.65 -225.25 -249.9 -225.0 -250.15 -215.65 -250.15 -215.5 -249.75 -215.5 -249.25 -215.0 -247.5 -215.0 -247.4" fill="#a90000" fill-rule="evenodd" stroke="none"/>
    <path d="M-217.15 -239.9 L-214.0 -240.15 -213.9 -239.25 -214.15 -238.65 -214.4 -238.65 -217.9 -239.4 -217.15 -239.9 M-265.25 -244.0 L-265.65 -243.65 -266.15 -243.9 -265.25 -244.0" fill="#ab0000" fill-opacity="0.9098039" fill-rule="evenodd" stroke="none"/>
    <path d="M-291.4 -233.9 L-289.4 -242.5 -286.0 -247.0 -281.25 -244.4 -282.65 -242.4 -283.75 -236.4 -283.75 -236.25 -284.0 -236.15 -291.4 -233.9" fill="#ae0000" fill-opacity="0.9098039" fill-rule="evenodd" stroke="none"/>
    <path d="M-197.9 -186.4 L-197.75 -186.15 -198.0 -185.0 -197.9 -184.15 -198.15 -180.65 -198.4 -180.15 -198.15 -180.0 -198.65 -171.4 -199.0 -170.75 -198.75 -169.25 -198.9 -168.15 -199.15 -163.5 -199.25 -163.15 -199.15 -162.75 -200.65 -155.9 -200.9 -155.65 -200.75 -155.25 -202.25 -149.5 -202.4 -149.25 -203.65 -144.15 -203.65 -143.9 -203.75 -143.25 -204.0 -143.15 -204.15 -142.65 -204.0 -142.4 -205.75 -135.65 -206.0 -135.4 -205.9 -135.0 -206.65 -132.25 -222.65 -133.4 -237.5 -134.25 -237.9 -134.4 -263.25 -135.0 -264.65 -135.15 -277.0 -135.4 -290.9 -136.75 -291.4 -136.75 -291.65 -136.9 -297.0 -136.9 -296.9 -136.75 -300.9 -136.65 -301.75 -136.5 -302.4 -137.15 -308.15 -140.65 -308.75 -141.4 -314.0 -146.0 -314.25 -146.65 -318.5 -152.5 -318.65 -153.15 -321.65 -159.65 -321.65 -160.4 -323.25 -167.25 -323.25 -168.25 -323.4 -169.15 -323.25 -170.5 -323.4 -174.9 -323.0 -176.0 -322.9 -177.0 -323.15 -177.25 -321.9 -182.5 -324.9 -189.4 -325.0 -189.75 -319.15 -185.0 -318.65 -184.5 -312.0 -179.15 -311.9 -178.9 -306.5 -174.5 -300.25 -169.65 -299.65 -169.0 -299.4 -169.15 -298.9 -168.75 -298.75 -168.5 -283.9 -157.4 -283.75 -157.15 -277.4 -152.4 -277.0 -152.25 -276.9 -152.0 -271.0 -147.5 -245.9 -161.65 -245.75 -161.9 -239.25 -165.5 -234.4 -178.75 -234.25 -179.0 -233.25 -181.75 -233.0 -182.25 -223.25 -183.25 -222.65 -183.5 -206.4 -185.4 -206.0 -185.4 -203.15 -185.75 -201.9 -185.65 -201.75 -185.9 -197.9 -186.4 M-231.0 -156.75 L-231.0 -156.25 -230.65 -155.4 -230.5 -154.65 -230.0 -154.9 -229.15 -156.5 -230.15 -157.75 -230.5 -157.25 -231.0 -156.75 M-309.0 -153.75 L-308.75 -153.65 -308.5 -153.75 -308.65 -154.0 -308.5 -154.4 -309.75 -157.25 -309.0 -153.75" fill="#b00000" fill-opacity="0.9098039" fill-rule="evenodd" stroke="none"/>
    <path d="M-219.15 -239.65 L-217.15 -239.9 -217.9 -239.4 -219.15 -239.65" fill="#ab0000" fill-rule="evenodd" stroke="none"/>
    <path d="M-329.9 -165.0 L-328.15 -173.5 -328.25 -174.0 -328.0 -174.4 -324.9 -189.4 -321.9 -182.5 -323.15 -177.25 -322.9 -177.0 -323.0 -176.0 -323.4 -174.9 -323.25 -170.5 -323.4 -169.15 -323.25 -168.25 -329.9 -165.0" fill="#c30000" fill-rule="evenodd" stroke="none"/>
    <path d="M-318.4 -147.0 L-318.5 -147.25 -318.9 -147.65 -319.4 -148.4 -319.65 -148.65 -319.75 -148.9 -320.0 -149.15 -320.15 -149.4 -320.4 -149.65 -320.65 -150.0 -320.9 -150.25 -321.0 -150.5 -321.25 -150.75 -330.25 -162.5 -330.0 -164.75 -329.9 -165.0 -323.25 -168.25 -323.25 -167.25 -321.65 -160.4 -321.65 -159.65 -318.65 -153.15 -318.5 -152.5 -314.25 -146.65 -314.0 -146.0 -318.4 -147.0" fill="#c50000" fill-rule="evenodd" stroke="none"/>
    <path d="M-197.75 -186.15 L-195.25 -182.65 -193.75 -181.0 -193.75 -180.5 -193.65 -180.25 -191.4 -177.4 -191.25 -176.9 -192.4 -161.25 -193.75 -137.5 -193.75 -137.25 -197.15 -136.15 -197.5 -136.0 -197.65 -135.75 -206.65 -132.25 -205.9 -135.0 -206.0 -135.4 -205.75 -135.65 -204.0 -142.4 -204.15 -142.65 -204.0 -143.15 -203.75 -143.25 -203.65 -143.9 -203.65 -144.15 -202.4 -149.25 -202.25 -149.5 -200.75 -155.25 -200.9 -155.65 -200.65 -155.9 -199.15 -162.75 -199.25 -163.15 -199.15 -163.5 -198.9 -168.15 -198.75 -169.25 -199.0 -170.75 -198.65 -171.4 -198.15 -180.0 -198.4 -180.15 -198.15 -180.65 -197.9 -184.15 -198.0 -185.0 -197.75 -186.15" fill="#d30000" fill-opacity="0.9098039" fill-rule="evenodd" stroke="none"/>
    <path d="M-191.25 -176.9 L-190.75 -176.65 -183.0 -165.75 -179.25 -149.4 -179.5 -148.75 -183.9 -141.15 -184.25 -141.0 -188.4 -139.5 -193.75 -137.5 -192.4 -161.25 -191.25 -176.9 M-208.15 -24.15 L-207.5 -24.5 -207.0 -24.9 -206.65 -22.75 -206.65 -22.65 -206.5 -22.25 -206.5 -22.15 -206.4 -21.75 -206.4 -21.15 -206.25 -21.15 -206.25 -20.9 -206.15 -20.65 -206.15 -20.4 -208.15 -24.15 M-317.4 -2.4 L-317.15 -6.5 -307.9 -21.75 -307.5 -21.9 -315.75 -5.25 -316.65 -3.9 -316.9 -3.15 -317.4 -2.4" fill="#e80000" fill-opacity="0.9098039" fill-rule="evenodd" stroke="none"/>
    <path d="M-179.5 -148.75 L-179.4 -148.5 -181.5 -139.25 -184.25 -141.0 -183.9 -141.15 -179.5 -148.75 M-193.75 -137.5 L-188.4 -139.5 -193.75 -137.25 -193.75 -137.5" fill="#ea0000" fill-rule="evenodd" stroke="none"/>
    <path d="M-181.5 -139.25 L-194.25 -98.65 -189.9 -118.15 -190.0 -118.5 -189.65 -119.25 -189.75 -119.65 -189.5 -119.9 -189.65 -120.15 -189.4 -120.4 -189.5 -120.65 -189.25 -120.9 -189.4 -121.15 -189.5 -120.65 -189.65 -120.15 -189.75 -119.65 -190.0 -118.5 -197.25 -90.0 -197.75 -121.65 -195.4 -130.75 -195.5 -131.0 -193.75 -136.9 -193.75 -137.25 -188.4 -139.5 -184.25 -141.0 -181.5 -139.25 M-196.0 -92.0 L-195.9 -91.75 -197.25 -86.75 -197.5 -88.4 -197.25 -89.0 -196.0 -92.0" fill="#f40000" fill-rule="evenodd" stroke="none"/>
    <path d="M-206.65 -132.25 L-197.65 -135.75 -197.5 -136.0 -197.15 -136.15 -193.75 -137.25 -193.75 -136.9 -195.5 -131.0 -195.4 -130.75 -197.75 -121.65 -203.5 -100.25 -203.4 -100.0 -203.65 -99.75 -203.5 -99.4 -205.75 -88.0 -206.9 -70.5 -206.75 -68.9 -208.15 -51.9 -208.0 -51.15 -209.5 -34.65 -207.9 -28.9 -207.0 -24.9 -207.5 -24.5 -208.15 -24.15 -212.9 -22.9 -213.25 -22.75 -213.75 -22.65 -214.15 -22.65 -214.4 -22.5 -226.65 -20.65 -226.9 -20.5 -232.75 -19.65 -232.25 -21.5 -232.4 -22.5 -228.25 -43.5 -228.5 -44.15 -227.0 -63.65 -227.15 -64.0 -225.65 -83.9 -225.75 -84.25 -225.5 -87.25 -215.75 -110.15 -215.65 -111.15 -206.65 -132.25" fill="#dd0000" fill-opacity="0.9098039" fill-rule="evenodd" stroke="none"/>
    <path d="M-318.4 -146.75 L-318.4 -147.0 -314.0 -146.0 -308.75 -141.4 -308.15 -140.65 -302.4 -137.15 -301.75 -136.5 -309.75 -136.15 -318.4 -146.75" fill="#c60000" fill-rule="evenodd" stroke="none"/>
    <path d="M-318.0 -0.9 L-327.4 -0.9 -306.9 -32.0 -306.75 -32.4 -308.0 -51.0 -305.9 -74.9 -304.9 -92.9 -318.4 -146.75 -309.75 -136.15 -302.5 -92.75 -306.0 -49.4 -305.5 -33.0 -305.65 -32.75 -305.4 -27.4 -305.15 -26.15 -307.5 -21.9 -307.9 -21.75 -317.15 -6.5 -317.4 -2.4 -317.75 -1.15 -318.0 -0.9" fill="#fd0000" fill-rule="evenodd" stroke="none"/>
    <path d="M-317.65 -0.9 L-318.0 -0.9 -317.75 -1.15 -317.65 -0.9" fill="#ba0000" fill-rule="evenodd" stroke="none"/>
    <path d="M-227.15 -0.9 L-317.65 -0.9 -317.75 -1.15 -317.4 -2.4 -316.9 -3.15 -316.65 -3.9 -315.75 -5.25 -307.5 -21.9 -305.15 -26.15 -297.0 -23.4 -266.4 -20.65 -266.15 -20.5 -250.5 -19.15 -232.75 -19.65 -227.15 -0.9" fill="#a40000" fill-opacity="0.9098039" fill-rule="evenodd" stroke="none"/>
    <path d="M-305.5 -33.0 L-304.75 -33.25 -303.75 -33.9 -300.0 -34.5 -305.15 -26.15 -305.4 -27.4 -305.65 -32.75 -305.5 -33.0" fill="#bd0000" fill-rule="evenodd" stroke="none"/>
    <path d="M-301.75 -136.5 L-301.5 -136.4 -292.9 -96.25 -292.65 -94.0 -293.25 -79.25 -293.4 -78.65 -294.9 -60.65 -294.9 -60.25 -295.0 -59.9 -296.75 -41.65 -296.9 -41.25 -297.25 -38.65 -300.0 -34.5 -303.75 -33.9 -304.75 -33.25 -305.5 -33.0 -306.0 -49.4 -302.5 -92.75 -309.75 -136.15 -301.75 -136.5" fill="#bc0000" fill-rule="evenodd" stroke="none"/>
    <path d="M-301.75 -136.5 L-300.9 -136.65 -296.9 -136.75 -297.0 -136.9 -291.65 -136.9 -291.4 -136.75 -290.9 -136.75 -277.0 -135.4 -264.65 -135.15 -263.25 -135.0 -237.9 -134.4 -237.5 -134.25 -222.65 -133.4 -206.65 -132.25 -215.65 -111.15 -215.75 -110.15 -225.5 -87.25 -225.75 -84.25 -225.65 -83.9 -227.15 -64.0 -227.0 -63.65 -228.5 -44.15 -228.25 -43.5 -232.4 -22.5 -232.25 -21.5 -232.75 -19.65 -250.5 -19.15 -266.15 -20.5 -266.4 -20.65 -297.0 -23.4 -305.15 -26.15 -300.0 -34.5 -297.25 -38.65 -296.9 -41.25 -296.75 -41.65 -295.0 -59.9 -294.9 -60.25 -294.9 -60.65 -293.4 -78.65 -293.25 -79.25 -292.65 -94.0 -292.9 -96.25 -301.5 -136.4 -301.75 -136.5" fill="#a70000" fill-opacity="0.9098039" fill-rule="evenodd" stroke="none"/>
    <path d="M-198.25 -0.9 L-227.15 -0.9 -232.75 -19.65 -226.9 -20.5 -226.65 -20.65 -214.4 -22.5 -214.15 -22.65 -213.75 -22.65 -213.25 -22.75 -212.9 -22.9 -208.15 -24.15 -206.15 -20.4 -206.15 -20.25 -206.0 -20.15 -205.9 -19.9 -205.9 -19.65 -205.75 -19.5 -205.75 -19.4 -205.65 -19.15 -205.5 -18.9 -205.25 -18.25 -205.15 -18.15 -205.15 -17.9 -205.0 -17.65 -204.9 -17.15 -204.75 -16.9 -204.4 -16.0 -204.15 -15.65 -204.15 -15.5 -202.9 -11.0 -202.15 -9.25 -202.15 -9.15 -198.25 -1.0 -198.25 -0.9" fill="#c80000" fill-opacity="0.9098039" fill-rule="evenodd" stroke="none"/>
    <path d="M-204.5 -27.9 L-204.4 -27.65 -205.65 -26.0 -207.0 -24.9 -207.9 -28.9 -204.5 -27.9" fill="#f00000" fill-rule="evenodd" stroke="none"/>
    <path d="M-197.25 -86.75 L-199.65 -46.65 -204.5 -27.9 -207.9 -28.9 -209.5 -34.65 -208.0 -51.15 -208.15 -51.9 -206.75 -68.9 -206.9 -70.5 -205.75 -88.0 -203.5 -99.4 -203.65 -99.75 -203.4 -100.0 -203.5 -100.25 -197.75 -121.65 -197.25 -90.0 -197.25 -89.0 -197.5 -88.4 -197.25 -86.75" fill="#ed0000" fill-rule="evenodd" stroke="none"/>
    <path d="M-194.25 -98.65 L-196.0 -92.0 -197.25 -89.0 -197.25 -90.0 -190.0 -118.5 -189.75 -119.65 -189.65 -120.15 -189.5 -120.65 -189.4 -121.15 -189.25 -120.9 -189.5 -120.65 -189.4 -120.4 -189.65 -120.15 -189.5 -119.9 -189.75 -119.65 -189.65 -119.25 -190.0 -118.5 -189.9 -118.15 -194.25 -98.65" fill="#f30000" fill-rule="evenodd" stroke="none"/>
    <path d="M-204.4 -27.65 L-201.25 -15.0 -204.9 -23.65 -201.0 -10.5 -201.5 -10.75 -205.15 -18.15 -205.15 -18.25 -205.25 -18.25 -205.5 -18.9 -205.65 -19.15 -205.75 -19.4 -205.75 -19.5 -205.75 -19.65 -205.9 -19.65 -205.9 -19.9 -206.0 -20.15 -206.15 -20.25 -206.15 -20.4 -206.15 -20.65 -206.25 -20.9 -206.25 -21.15 -206.4 -21.15 -206.4 -21.75 -206.5 -22.15 -206.5 -22.25 -206.65 -22.65 -206.65 -22.75 -207.0 -24.9 -205.65 -26.0 -204.4 -27.65" fill="#fb0000" fill-rule="evenodd" stroke="none"/>
    <path d="M-205.9 -19.65 L-205.75 -19.65 -205.75 -19.5 -205.9 -19.65 M-205.25 -18.25 L-205.15 -18.25 -205.15 -18.15 -205.25 -18.25 M-205.0 -17.65 L-203.9 -15.4 -204.15 -15.5 -204.15 -15.65 -204.4 -16.0 -204.75 -16.9 -204.9 -17.15 -205.0 -17.65" fill="#de0000" fill-rule="evenodd" stroke="none"/>
    <path d="M-196.4 -0.9 L-198.25 -0.9 -198.25 -1.0 -199.25 -5.0 -199.25 -5.15 -199.4 -5.4 -199.5 -5.65 -199.75 -6.65 -199.9 -6.75 -200.0 -7.15 -200.0 -7.25 -200.25 -7.65 -200.25 -7.75 -203.9 -15.4 -205.0 -17.65 -205.15 -17.9 -205.15 -18.15 -201.5 -10.75 -201.0 -10.5 -200.75 -9.65 -200.65 -9.5 -200.4 -8.5 -199.15 -6.65 -198.4 -4.65 -196.4 -0.9" fill="#df0000" fill-rule="evenodd" stroke="none"/>
    <path d="M-203.9 -15.4 L-200.25 -7.75 -200.25 -7.65 -200.0 -7.25 -200.0 -7.15 -199.9 -6.75 -199.75 -6.65 -199.5 -5.65 -199.4 -5.4 -199.25 -5.15 -199.25 -5.0 -198.25 -1.0 -202.15 -9.15 -202.15 -9.25 -202.9 -11.0 -204.15 -15.5 -203.9 -15.4" fill="#db0000" fill-rule="evenodd" stroke="none"/>
    <path d="M-201.25 -15.0 L-200.0 -11.0 -199.15 -6.65 -200.4 -8.5 -200.65 -9.5 -200.75 -9.65 -201.0 -10.5 -204.9 -23.65 -201.25 -15.0" fill="#fe0000" fill-rule="evenodd" stroke="none"/>
    <path d="M-200.0 -11.0 L-196.0 -0.9 -196.4 -0.9 -198.4 -4.65 -199.15 -6.65 -200.0 -11.0" fill="#ff0000" fill-rule="evenodd" stroke="none"/>
  </g>
  <defs>
    <radialGradient cx="0" cy="0" gradientTransform="matrix(0.1779, 0.0, 0.0, 0.1779, -180.75, -279.1)" gradientUnits="userSpaceOnUse" id="gradient0" r="819.2" spreadMethod="pad">
      <stop offset="0.0" stop-color="#5a5a5a"/>
      <stop offset="1.0" stop-color="#1b1b1b"/>
    </radialGradient>
    <radialGradient cx="0" cy="0" gradientTransform="matrix(0.0945, 0.0, 0.0, 0.0945, -234.9, -273.35)" gradientUnits="userSpaceOnUse" id="gradient1" r="819.2" spreadMethod="pad">
      <stop offset="0.0" stop-color="#7d7d7d"/>
      <stop offset="1.0" stop-color="#2c2c2c"/>
    </radialGradient>
    <radialGradient cx="0" cy="0" gradientTransform="matrix(0.045, 0.0, 0.0, 0.045, -259.35, -253.2)" gradientUnits="userSpaceOnUse" id="gradient2" r="819.2" spreadMethod="pad">
      <stop offset="0.0" stop-color="#1a1a1a"/>
      <stop offset="1.0" stop-color="#000000"/>
    </radialGradient>
    <radialGradient cx="0" cy="0" gradientTransform="matrix(0.1482, 0.0, 0.0, 0.1482, -283.5, -134.45)" gradientUnits="userSpaceOnUse" id="gradient3" r="819.2" spreadMethod="pad">
      <stop offset="0.0" stop-color="#6a6a6a"/>
      <stop offset="1.0" stop-color="#000000"/>
    </radialGradient>
    <radialGradient cx="0" cy="0" gradientTransform="matrix(0.0398, 0.0, 0.0, 0.0398, -322.5, -300.0)" gradientUnits="userSpaceOnUse" id="gradient4" r="819.2" spreadMethod="pad">
      <stop offset="0.0" stop-color="#333333"/>
      <stop offset="1.0" stop-color="#2d2d2d"/>
    </radialGradient>
    <radialGradient cx="0" cy="0" gradientTransform="matrix(0.0248, 0.0, 0.0, 0.0248, -246.5, -299.5)" gradientUnits="userSpaceOnUse" id="gradient5" r="819.2" spreadMethod="pad">
      <stop offset="0.0" stop-color="#d38080"/>
      <stop offset="1.0" stop-color="#4f1818"/>
    </radialGradient>
    <radialGradient cx="0" cy="0" gradientTransform="matrix(0.0169, 0.0, 0.0, 0.0169, -252.3, -297.85)" gradientUnits="userSpaceOnUse" id="gradient6" r="819.2" spreadMethod="pad">
      <stop offset="0.0" stop-color="#ff3030"/>
      <stop offset="1.0" stop-color="#ff2e2e"/>
    </radialGradient>
    <radialGradient cx="0" cy="0" gradientTransform="matrix(0.0504, 0.0, 0.0, 0.0504, -156.9, -274.95)" gradientUnits="userSpaceOnUse" id="gradient7" r="819.2" spreadMethod="pad">
      <stop offset="0.0" stop-color="#3f3f3f"/>
      <stop offset="1.0" stop-color="#222222"/>
    </radialGradient>
    <radialGradient cx="0" cy="0" gradientTransform="matrix(0.0035, 0.0, 0.0, 0.0035, -10.8, -265.05)" gradientUnits="userSpaceOnUse" id="gradient8" r="819.2" spreadMethod="pad">
      <stop offset="0.0" stop-color="#262626"/>
      <stop offset="1.0" stop-color="#262626"/>
    </radialGradient>
    <radialGradient cx="0" cy="0" gradientTransform="matrix(0.0189, 0.0, 0.0, 0.0189, -13.25, -258.85)" gradientUnits="userSpaceOnUse" id="gradient9" r="819.2" spreadMethod="pad">
      <stop offset="0.0" stop-color="#040404"/>
      <stop offset="1.0" stop-color="#040404"/>
    </radialGradient>
    <radialGradient cx="0" cy="0" gradientTransform="matrix(0.024, 0.0, 0.0, 0.024, -8.0, -239.15)" gradientUnits="userSpaceOnUse" id="gradient10" r="819.2" spreadMethod="pad">
      <stop offset="0.0" stop-color="#040404"/>
      <stop offset="1.0" stop-color="#040404"/>
    </radialGradient>
    <radialGradient cx="0" cy="0" gradientTransform="matrix(0.009, 0.0, 0.0, 0.009, -2.3, -256.0)" gradientUnits="userSpaceOnUse" id="gradient11" r="819.2" spreadMethod="pad">
      <stop offset="0.0" stop-color="#020202"/>
      <stop offset="1.0" stop-color="#020202"/>
    </radialGradient>
    <radialGradient cx="0" cy="0" gradientTransform="matrix(0.0215, 0.0, 0.0, 0.0215, -11.15, -263.15)" gradientUnits="userSpaceOnUse" id="gradient12" r="819.2" spreadMethod="pad">
      <stop offset="0.0" stop-color="#171717"/>
      <stop offset="1.0" stop-color="#171717"/>
    </radialGradient>
    <radialGradient cx="0" cy="0" gradientTransform="matrix(0.0164, 0.0, 0.0, 0.0164, -13.45, -245.7)" gradientUnits="userSpaceOnUse" id="gradient13" r="819.2" spreadMethod="pad">
      <stop offset="0.0" stop-color="#020202"/>
      <stop offset="1.0" stop-color="#020202"/>
    </radialGradient>
    <radialGradient cx="0" cy="0" gradientTransform="matrix(0.0085, 0.0, 0.0, 0.0085, -14.45, -255.3)" gradientUnits="userSpaceOnUse" id="gradient14" r="819.2" spreadMethod="pad">
      <stop offset="0.0" stop-color="#171717"/>
      <stop offset="1.0" stop-color="#171717"/>
    </radialGradient>
    <radialGradient cx="0" cy="0" gradientTransform="matrix(0.003, 0.0, 0.0, 0.003, -11.45, -259.9)" gradientUnits="userSpaceOnUse" id="gradient15" r="819.2" spreadMethod="pad">
      <stop offset="0.0" stop-color="#828282"/>
      <stop offset="1.0" stop-color="#818181"/>
    </radialGradient>
    <radialGradient cx="0" cy="0" gradientTransform="matrix(0.0031, 0.0, 0.0, 0.0031, -21.45, -255.85)" gradientUnits="userSpaceOnUse" id="gradient16" r="819.2" spreadMethod="pad">
      <stop offset="0.0" stop-color="#717171"/>
      <stop offset="1.0" stop-color="#616161"/>
    </radialGradient>
    <radialGradient cx="0" cy="0" gradientTransform="matrix(0.0137, 0.0, 0.0, 0.0137, -21.45, -256.2)" gradientUnits="userSpaceOnUse" id="gradient17" r="819.2" spreadMethod="pad">
      <stop offset="0.0" stop-color="#2f2f2f"/>
      <stop offset="1.0" stop-color="#212121"/>
    </radialGradient>
    <radialGradient cx="0" cy="0" gradientTransform="matrix(0.0035, 0.0, 0.0, 0.0035, -16.45, -247.0)" gradientUnits="userSpaceOnUse" id="gradient18" r="819.2" spreadMethod="pad">
      <stop offset="0.0" stop-color="#202020"/>
      <stop offset="1.0" stop-color="#1f1f1f"/>
    </radialGradient>
    <radialGradient cx="0" cy="0" gradientTransform="matrix(0.0194, 0.0, 0.0, 0.0194, -236.4, -261.3)" gradientUnits="userSpaceOnUse" id="gradient19" r="819.2" spreadMethod="pad">
      <stop offset="0.0" stop-color="#797979"/>
      <stop offset="1.0" stop-color="#000000"/>
    </radialGradient>
    <radialGradient cx="0" cy="0" gradientTransform="matrix(0.2811, 0.0, 0.0, 0.2811, -222.3, -249.4)" gradientUnits="userSpaceOnUse" id="gradient20" r="819.2" spreadMethod="pad">
      <stop offset="0.0" stop-color="#101010"/>
      <stop offset="1.0" stop-color="#000000"/>
    </radialGradient>
    <radialGradient cx="0" cy="0" gradientTransform="matrix(0.0097, 0.0, 0.0, 0.0097, -5.2, -255.8)" gradientUnits="userSpaceOnUse" id="gradient21" r="819.2" spreadMethod="pad">
      <stop offset="0.0" stop-color="#020202"/>
      <stop offset="1.0" stop-color="#020202"/>
    </radialGradient>
    <radialGradient cx="0" cy="0" gradientTransform="matrix(0.0141, 0.0, 0.0, 0.0141, -12.1, -245.95)" gradientUnits="userSpaceOnUse" id="gradient22" r="819.2" spreadMethod="pad">
      <stop offset="0.0" stop-color="#040404"/>
      <stop offset="1.0" stop-color="#040404"/>
    </radialGradient>
    <radialGradient cx="0" cy="0" gradientTransform="matrix(0.0111, 0.0, 0.0, 0.0111, -7.2, -256.25)" gradientUnits="userSpaceOnUse" id="gradient23" r="819.2" spreadMethod="pad">
      <stop offset="0.0" stop-color="#020202"/>
      <stop offset="1.0" stop-color="#020202"/>
    </radialGradient>
    <radialGradient cx="0" cy="0" gradientTransform="matrix(0.0088, 0.0, 0.0, 0.0088, -222.45, -245.7)" gradientUnits="userSpaceOnUse" id="gradient24" r="819.2" spreadMethod="pad">
      <stop offset="0.0" stop-color="#7b7b7b"/>
      <stop offset="1.0" stop-color="#1b1b1b"/>
    </radialGradient>
    <radialGradient cx="0" cy="0" gradientTransform="matrix(0.0365, 0.0, 0.0, 0.0365, -228.75, -243.75)" gradientUnits="userSpaceOnUse" id="gradient25" r="819.2" spreadMethod="pad">
      <stop offset="0.0" stop-color="#000000"/>
      <stop offset="1.0" stop-color="#000000"/>
    </radialGradient>
    <radialGradient cx="0" cy="0" gradientTransform="matrix(0.0477, 0.0, 0.0, 0.0477, -268.3, -241.4)" gradientUnits="userSpaceOnUse" id="gradient26" r="819.2" spreadMethod="pad">
      <stop offset="0.0" stop-color="#000000"/>
      <stop offset="1.0" stop-color="#000000"/>
    </radialGradient>
    <radialGradient cx="0" cy="0" gradientTransform="matrix(0.0736, 0.0, 0.0, 0.0736, -297.75, -188.75)" gradientUnits="userSpaceOnUse" id="gradient27" r="819.2" spreadMethod="pad">
      <stop offset="0.0" stop-color="#171717"/>
      <stop offset="1.0" stop-color="#000000"/>
    </radialGradient>
    <radialGradient cx="0" cy="0" gradientTransform="matrix(0.1193, 0.0, 0.0, 0.1193, -280.75, -162.2)" gradientUnits="userSpaceOnUse" id="gradient28" r="819.2" spreadMethod="pad">
      <stop offset="0.0" stop-color="#323232"/>
      <stop offset="1.0" stop-color="#000000"/>
    </radialGradient>
    <radialGradient cx="0" cy="0" gradientTransform="matrix(0.0753, 0.0, 0.0, 0.0753, -184.5, -193.95)" gradientUnits="userSpaceOnUse" id="gradient29" r="819.2" spreadMethod="pad">
      <stop offset="0.0" stop-color="#595959"/>
      <stop offset="1.0" stop-color="#000000"/>
    </radialGradient>
    <radialGradient cx="0" cy="0" gradientTransform="matrix(0.0293, 0.0, 0.0, 0.0293, -1.4, -233.0)" gradientUnits="userSpaceOnUse" id="gradient30" r="819.2" spreadMethod="pad">
      <stop offset="0.0" stop-color="#030303"/>
      <stop offset="1.0" stop-color="#030303"/>
    </radialGradient>
    <radialGradient cx="0" cy="0" gradientTransform="matrix(0.0152, 0.0, 0.0, 0.0152, -25.9, -235.8)" gradientUnits="userSpaceOnUse" id="gradient31" r="819.2" spreadMethod="pad">
      <stop offset="0.0" stop-color="#040404"/>
      <stop offset="1.0" stop-color="#040404"/>
    </radialGradient>
    <radialGradient cx="0" cy="0" gradientTransform="matrix(0.0155, 0.0, 0.0, 0.0155, -25.45, -235.85)" gradientUnits="userSpaceOnUse" id="gradient32" r="819.2" spreadMethod="pad">
      <stop offset="0.0" stop-color="#030303"/>
      <stop offset="1.0" stop-color="#030303"/>
    </radialGradient>
    <radialGradient cx="0" cy="0" gradientTransform="matrix(0.013, 0.0, 0.0, 0.013, -6.3, -233.55)" gradientUnits="userSpaceOnUse" id="gradient33" r="819.2" spreadMethod="pad">
      <stop offset="0.0" stop-color="#1f1f1f"/>
      <stop offset="1.0" stop-color="#040404"/>
    </radialGradient>
    <radialGradient cx="0" cy="0" gradientTransform="matrix(0.0111, 0.0, 0.0, 0.0111, -6.15, -227.85)" gradientUnits="userSpaceOnUse" id="gradient34" r="819.2" spreadMethod="pad">
      <stop offset="0.0" stop-color="#2d2d2d"/>
      <stop offset="1.0" stop-color="#2b2b2b"/>
    </radialGradient>
    <radialGradient cx="0" cy="0" gradientTransform="matrix(0.0441, 0.0, 0.0, 0.0441, -189.25, -233.7)" gradientUnits="userSpaceOnUse" id="gradient35" r="819.2" spreadMethod="pad">
      <stop offset="0.0" stop-color="#000000"/>
      <stop offset="1.0" stop-color="#000000"/>
    </radialGradient>
    <radialGradient cx="0" cy="0" gradientTransform="matrix(0.0181, 0.0, 0.0, 0.0181, -185.95, -219.25)" gradientUnits="userSpaceOnUse" id="gradient36" r="819.2" spreadMethod="pad">
      <stop offset="0.0" stop-color="#000000"/>
      <stop offset="1.0" stop-color="#000000"/>
    </radialGradient>
    <radialGradient cx="0" cy="0" gradientTransform="matrix(0.0877, 0.0, 0.0, 0.0877, -164.5, -188.65)" gradientUnits="userSpaceOnUse" id="gradient37" r="819.2" spreadMethod="pad">
      <stop offset="0.0" stop-color="#616161"/>
      <stop offset="1.0" stop-color="#000000"/>
    </radialGradient>
    <radialGradient cx="0" cy="0" gradientTransform="matrix(0.1071, 0.0, 0.0, 0.1071, -192.4, -159.1)" gradientUnits="userSpaceOnUse" id="gradient38" r="819.2" spreadMethod="pad">
      <stop offset="0.0" stop-color="#3f3f3f"/>
      <stop offset="1.0" stop-color="#000000"/>
    </radialGradient>
    <radialGradient cx="0" cy="0" gradientTransform="matrix(0.0818, 0.0, 0.0, 0.0818, -243.95, -142.95)" gradientUnits="userSpaceOnUse" id="gradient39" r="819.2" spreadMethod="pad">
      <stop offset="0.0" stop-color="#878787"/>
      <stop offset="1.0" stop-color="#000000"/>
    </radialGradient>
    <radialGradient cx="0" cy="0" gradientTransform="matrix(0.1425, 0.0, 0.0, 0.1425, -283.5, -134.45)" gradientUnits="userSpaceOnUse" id="gradient40" r="819.2" spreadMethod="pad">
      <stop offset="0.0" stop-color="#6a6a6a"/>
      <stop offset="1.0" stop-color="#000000"/>
    </radialGradient>
    <radialGradient cx="0" cy="0" gradientTransform="matrix(0.1278, 0.0, 0.0, 0.1278, -209.4, -35.0)" gradientUnits="userSpaceOnUse" id="gradient41" r="819.2" spreadMethod="pad">
      <stop offset="0.0" stop-color="#666666"/>
      <stop offset="1.0" stop-color="#0e0e0e"/>
    </radialGradient>
    <radialGradient cx="0" cy="0" gradientTransform="matrix(0.0243, 0.0, 0.0, 0.0243, -184.5, -193.95)" gradientUnits="userSpaceOnUse" id="gradient42" r="819.2" spreadMethod="pad">
      <stop offset="0.0" stop-color="#595959"/>
      <stop offset="1.0" stop-color="#000000"/>
    </radialGradient>
    <radialGradient cx="0" cy="0" gradientTransform="matrix(0.0021, 0.0, 0.0, 0.0021, -26.05, -236.9)" gradientUnits="userSpaceOnUse" id="gradient43" r="819.2" spreadMethod="pad">
      <stop offset="0.0" stop-color="#262626"/>
      <stop offset="1.0" stop-color="#262626"/>
    </radialGradient>
    <radialGradient cx="0" cy="0" gradientTransform="matrix(0.0536, 0.0, 0.0, 0.0536, -297.75, -188.75)" gradientUnits="userSpaceOnUse" id="gradient44" r="819.2" spreadMethod="pad">
      <stop offset="0.0" stop-color="#171717"/>
      <stop offset="1.0" stop-color="#000000"/>
    </radialGradient>
    <radialGradient cx="0" cy="0" gradientTransform="matrix(0.0716, 0.0, 0.0, 0.0716, -50.8, -193.05)" gradientUnits="userSpaceOnUse" id="gradient45" r="819.2" spreadMethod="pad">
      <stop offset="0.0" stop-color="#000000"/>
      <stop offset="1.0" stop-color="#000000"/>
    </radialGradient>
    <radialGradient cx="0" cy="0" gradientTransform="matrix(0.0472, 0.0, 0.0, 0.0472, -13.95, -181.15)" gradientUnits="userSpaceOnUse" id="gradient46" r="819.2" spreadMethod="pad">
      <stop offset="0.0" stop-color="#000000"/>
      <stop offset="1.0" stop-color="#000000"/>
    </radialGradient>
    <radialGradient cx="0" cy="0" gradientTransform="matrix(0.0256, 0.0, 0.0, 0.0256, -50.8, -193.05)" gradientUnits="userSpaceOnUse" id="gradient47" r="819.2" spreadMethod="pad">
      <stop offset="0.0" stop-color="#000000"/>
      <stop offset="1.0" stop-color="#000000"/>
    </radialGradient>
    <radialGradient cx="0" cy="0" gradientTransform="matrix(0.0283, 0.0, 0.0, 0.0283, -92.85, -183.45)" gradientUnits="userSpaceOnUse" id="gradient48" r="819.2" spreadMethod="pad">
      <stop offset="0.0" stop-color="#000000"/>
      <stop offset="1.0" stop-color="#000000"/>
    </radialGradient>
    <radialGradient cx="0" cy="0" gradientTransform="matrix(0.0707, 0.0, 0.0, 0.0707, -144.55, -206.8)" gradientUnits="userSpaceOnUse" id="gradient49" r="819.2" spreadMethod="pad">
      <stop offset="0.0" stop-color="#000000"/>
      <stop offset="1.0" stop-color="#000000"/>
    </radialGradient>
    <radialGradient cx="0" cy="0" gradientTransform="matrix(0.0902, 0.0, 0.0, 0.0902, -345.4, -161.95)" gradientUnits="userSpaceOnUse" id="gradient50" r="819.2" spreadMethod="pad">
      <stop offset="0.0" stop-color="#6a6a6a"/>
      <stop offset="1.0" stop-color="#000000"/>
    </radialGradient>
    <radialGradient cx="0" cy="0" gradientTransform="matrix(0.0805, 0.0, 0.0, 0.0805, -296.15, -147.05)" gradientUnits="userSpaceOnUse" id="gradient51" r="819.2" spreadMethod="pad">
      <stop offset="0.0" stop-color="#858585"/>
      <stop offset="1.0" stop-color="#000000"/>
    </radialGradient>
    <radialGradient cx="0" cy="0" gradientTransform="matrix(0.1159, 0.0, 0.0, 0.1159, -383.0, -172.05)" gradientUnits="userSpaceOnUse" id="gradient52" r="819.2" spreadMethod="pad">
      <stop offset="0.0" stop-color="#262626"/>
      <stop offset="1.0" stop-color="#040404"/>
    </radialGradient>
    <radialGradient cx="0" cy="0" gradientTransform="matrix(0.0682, 0.0, 0.0, 0.0682, -62.5, -154.65)" gradientUnits="userSpaceOnUse" id="gradient53" r="819.2" spreadMethod="pad">
      <stop offset="0.0" stop-color="#161616"/>
      <stop offset="1.0" stop-color="#000000"/>
    </radialGradient>
    <radialGradient cx="0" cy="0" gradientTransform="matrix(0.041, 0.0, 0.0, 0.041, -62.5, -154.65)" gradientUnits="userSpaceOnUse" id="gradient54" r="819.2" spreadMethod="pad">
      <stop offset="0.0" stop-color="#161616"/>
      <stop offset="1.0" stop-color="#000000"/>
    </radialGradient>
    <radialGradient cx="0" cy="0" gradientTransform="matrix(0.0651, 0.0, 0.0, 0.0651, -384.9, -115.05)" gradientUnits="userSpaceOnUse" id="gradient55" r="819.2" spreadMethod="pad">
      <stop offset="0.0" stop-color="#393939"/>
      <stop offset="1.0" stop-color="#000000"/>
    </radialGradient>
    <radialGradient cx="0" cy="0" gradientTransform="matrix(0.0254, 0.0, 0.0, 0.0254, -400.0, -151.95)" gradientUnits="userSpaceOnUse" id="gradient56" r="819.2" spreadMethod="pad">
      <stop offset="0.0" stop-color="#010101"/>
      <stop offset="1.0" stop-color="#000000"/>
    </radialGradient>
    <radialGradient cx="0" cy="0" gradientTransform="matrix(0.0734, 0.0, 0.0, 0.0734, -292.5, -94.1)" gradientUnits="userSpaceOnUse" id="gradient57" r="819.2" spreadMethod="pad">
      <stop offset="0.0" stop-color="#838383"/>
      <stop offset="1.0" stop-color="#212121"/>
    </radialGradient>
    <radialGradient cx="0" cy="0" gradientTransform="matrix(0.0494, 0.0, 0.0, 0.0494, -311.2, -1.0)" gradientUnits="userSpaceOnUse" id="gradient58" r="819.2" spreadMethod="pad">
      <stop offset="0.0" stop-color="#585858"/>
      <stop offset="1.0" stop-color="#1d1d1d"/>
    </radialGradient>
    <radialGradient cx="0" cy="0" gradientTransform="matrix(0.1034, 0.0, 0.0, 0.1034, -311.2, -1.0)" gradientUnits="userSpaceOnUse" id="gradient59" r="819.2" spreadMethod="pad">
      <stop offset="0.0" stop-color="#585858"/>
      <stop offset="1.0" stop-color="#000000"/>
    </radialGradient>
    <radialGradient cx="0" cy="0" gradientTransform="matrix(0.0201, 0.0, 0.0, 0.0201, -364.45, -145.45)" gradientUnits="userSpaceOnUse" id="gradient60" r="819.2" spreadMethod="pad">
      <stop offset="0.0" stop-color="#010101"/>
      <stop offset="1.0" stop-color="#000000"/>
    </radialGradient>
    <radialGradient cx="0" cy="0" gradientTransform="matrix(0.0446, 0.0, 0.0, 0.0446, -350.1, -111.85)" gradientUnits="userSpaceOnUse" id="gradient61" r="819.2" spreadMethod="pad">
      <stop offset="0.0" stop-color="#292929"/>
      <stop offset="1.0" stop-color="#010101"/>
    </radialGradient>
    <radialGradient cx="0" cy="0" gradientTransform="matrix(0.0267, 0.0, 0.0, 0.0267, -350.1, -111.85)" gradientUnits="userSpaceOnUse" id="gradient62" r="819.2" spreadMethod="pad">
      <stop offset="0.0" stop-color="#292929"/>
      <stop offset="1.0" stop-color="#000000"/>
    </radialGradient>
    <radialGradient cx="0" cy="0" gradientTransform="matrix(0.0686, 0.0, 0.0, 0.0686, -350.65, -70.5)" gradientUnits="userSpaceOnUse" id="gradient63" r="819.2" spreadMethod="pad">
      <stop offset="0.0" stop-color="#505050"/>
      <stop offset="1.0" stop-color="#131313"/>
    </radialGradient>
    <radialGradient cx="0" cy="0" gradientTransform="matrix(0.0947, 0.0, 0.0, 0.0947, -350.65, -70.5)" gradientUnits="userSpaceOnUse" id="gradient64" r="819.2" spreadMethod="pad">
      <stop offset="0.0" stop-color="#505050"/>
      <stop offset="1.0" stop-color="#2a2a2a"/>
    </radialGradient>
    <radialGradient cx="0" cy="0" gradientTransform="matrix(0.0057, 0.0, 0.0, 0.0057, -400.0, -135.3)" gradientUnits="userSpaceOnUse" id="gradient65" r="819.2" spreadMethod="pad">
      <stop offset="0.0" stop-color="#414141"/>
      <stop offset="1.0" stop-color="#2f2f2f"/>
    </radialGradient>
    <radialGradient cx="0" cy="0" gradientTransform="matrix(0.0551, 0.0, 0.0, 0.0551, -198.45, -1.0)" gradientUnits="userSpaceOnUse" id="gradient66" r="819.2" spreadMethod="pad">
      <stop offset="0.0" stop-color="#181818"/>
      <stop offset="1.0" stop-color="#000000"/>
    </radialGradient>
    <radialGradient cx="0" cy="0" gradientTransform="matrix(0.0422, 0.0, 0.0, 0.0422, -199.15, -1.0)" gradientUnits="userSpaceOnUse" id="gradient67" r="819.2" spreadMethod="pad">
      <stop offset="0.0" stop-color="#545454"/>
      <stop offset="1.0" stop-color="#4b4b4b"/>
    </radialGradient>
    <radialGradient cx="0" cy="0" gradientTransform="matrix(0.0425, 0.0, 0.0, 0.0425, -209.4, -35.0)" gradientUnits="userSpaceOnUse" id="gradient68" r="819.2" spreadMethod="pad">
      <stop offset="0.0" stop-color="#666666"/>
      <stop offset="1.0" stop-color="#5a5a5a"/>
    </radialGradient>
    <radialGradient cx="0" cy="0" gradientTransform="matrix(0.0591, 0.0, 0.0, 0.0591, -326.6, -82.3)" gradientUnits="userSpaceOnUse" id="gradient69" r="819.2" spreadMethod="pad">
      <stop offset="0.0" stop-color="#3a3a3a"/>
      <stop offset="1.0" stop-color="#000000"/>
    </radialGradient>
    <radialGradient cx="0" cy="0" gradientTransform="matrix(0.037, 0.0, 0.0, 0.037, -312.85, -60.6)" gradientUnits="userSpaceOnUse" id="gradient70" r="819.2" spreadMethod="pad">
      <stop offset="0.0" stop-color="#858585"/>
      <stop offset="1.0" stop-color="#2c2c2c"/>
    </radialGradient>
  </defs>
</svg>
