<?xml version="1.0" encoding="UTF-8" standalone="no"?>
<svg xmlns:xlink="http://www.w3.org/1999/xlink" height="299.1px" width="399.1px" xmlns="http://www.w3.org/2000/svg">
  <g transform="matrix(1.0, 0.0, 0.0, 1.0, 400.0, 300.0)">
    <path d="M-262.0 -246.5 L-280.4 -245.4 -302.15 -259.15 -311.15 -271.65 -310.75 -271.9 -312.75 -274.75 Q-311.4 -272.9 -310.75 -273.0 L-317.15 -285.75 -317.4 -294.4 -319.4 -300.0 -305.4 -300.0 -305.4 -299.65 -297.5 -281.9 -289.65 -271.15 -278.4 -261.4 -271.4 -256.9 -262.4 -252.0 -258.75 -250.9 -258.9 -248.4 -261.4 -246.9 -262.0 -246.5 M-184.25 -245.0 L-190.25 -245.25 Q-194.4 -246.75 -194.9 -246.25 L-205.0 -239.25 -209.75 -242.25 -218.15 -241.5 -221.5 -242.15 -221.75 -247.4 -215.15 -248.75 -204.25 -252.65 -186.9 -263.65 -176.75 -273.75 -176.5 -272.65 -168.9 -272.75 -173.65 -259.25 -179.75 -251.75 -184.25 -245.0 M-168.4 -288.0 L-163.15 -283.9 -176.0 -273.0 Q-176.65 -273.65 -174.75 -277.15 L-170.15 -284.15 -168.4 -288.0" fill="url(#gradient0)" fill-rule="evenodd" stroke="none"/>
    <path d="M-305.4 -300.0 L-256.5 -300.0 -252.65 -299.0 -249.0 -299.0 -245.5 -300.0 -181.25 -300.0 -178.65 -295.9 -178.5 -295.15 -176.75 -273.75 -186.9 -263.65 -204.25 -252.65 -215.15 -248.75 -221.75 -247.4 -221.9 -247.65 -221.65 -249.0 -221.75 -250.15 -222.5 -251.5 -225.4 -253.0 -229.5 -255.15 -228.75 -253.65 -234.15 -255.9 -237.15 -255.75 -245.9 -256.5 -249.15 -256.25 -253.9 -256.5 Q-254.15 -255.75 -258.5 -254.0 L-258.75 -250.9 -262.4 -252.0 -271.4 -256.9 -278.4 -261.4 -289.65 -271.15 -297.5 -281.9 -305.4 -299.65 -305.4 -300.0 M-168.4 -288.0 L-170.15 -284.15 -174.75 -277.15 -170.75 -289.4 -170.4 -289.65 -168.4 -288.0" fill="url(#gradient1)" fill-rule="evenodd" stroke="none"/>
    <path d="M-226.15 -249.75 L-226.15 -247.65 -226.9 -245.25 -225.5 -244.5 -223.25 -243.15 -222.9 -242.75 -231.5 -246.4 -261.4 -246.9 -258.9 -248.4 -258.75 -250.9 -258.5 -254.0 Q-254.15 -255.75 -253.9 -256.5 L-249.15 -256.25 -245.9 -256.5 -237.15 -255.75 -234.15 -255.9 -228.75 -253.65 -226.15 -249.75" fill="url(#gradient2)" fill-rule="evenodd" stroke="none"/>
    <path d="M-228.75 -253.65 L-229.5 -255.15 -225.4 -253.0 -226.15 -249.75 -228.75 -253.65" fill="url(#gradient3)" fill-rule="evenodd" stroke="none"/>
    <path d="M-225.4 -253.0 L-222.5 -251.5 -221.75 -250.15 -221.65 -249.0 -221.9 -247.65 -222.5 -248.75 -222.65 -248.5 -222.25 -242.75 -223.25 -243.15 -225.5 -244.5 -226.15 -247.65 -226.15 -249.75 -225.4 -253.0" fill="url(#gradient4)" fill-rule="evenodd" stroke="none"/>
    <path d="M-256.5 -300.0 L-255.4 -300.0 Q-254.0 -299.25 -250.15 -299.25 L-247.15 -300.0 -245.5 -300.0 -249.0 -299.0 -252.65 -299.0 -256.5 -300.0" fill="url(#gradient5)" fill-rule="evenodd" stroke="none"/>
    <path d="M-255.4 -300.0 L-247.15 -300.0 -250.15 -299.25 Q-254.0 -299.25 -255.4 -300.0" fill="url(#gradient6)" fill-rule="evenodd" stroke="none"/>
    <path d="M-181.25 -300.0 L-146.5 -300.0 Q-153.15 -268.0 -184.25 -245.0 L-179.75 -251.75 -173.65 -259.25 -168.9 -272.75 -176.5 -272.65 -176.75 -273.75 -178.5 -295.15 -178.65 -295.9 -181.25 -300.0 M-174.75 -277.15 Q-176.65 -273.65 -176.0 -273.0 L-163.15 -283.9 -168.4 -288.0 -170.4 -289.65 -170.75 -289.4 -174.75 -277.15" fill="url(#gradient7)" fill-rule="evenodd" stroke="none"/>
    <path d="M-316.15 -279.25 L-316.9 -280.4 -317.25 -280.75 -318.75 -282.9 -324.9 -299.15 -325.0 -300.0 -319.4 -300.0 -317.4 -294.4 -317.15 -285.75 -310.75 -273.0 Q-311.4 -272.9 -312.75 -274.75 L-312.8 -274.85 -313.25 -275.5 -313.4 -275.65 -313.9 -276.4 -316.15 -279.25" fill="url(#gradient8)" fill-rule="evenodd" stroke="none"/>
    <path d="M-311.15 -271.65 L-316.15 -279.25 -313.9 -276.4 -313.4 -275.65 -313.25 -275.5 -312.8 -274.85 -312.75 -274.75 -310.75 -271.9 -311.15 -271.65" fill="url(#gradient9)" fill-rule="evenodd" stroke="none"/>
    <path d="M-12.15 -261.65 L-12.4 -263.4 -10.25 -265.75 -9.75 -263.15 -10.75 -262.9 -11.15 -262.4 -11.25 -262.4 -11.5 -262.15 -11.9 -261.65 -12.15 -261.65" fill="url(#gradient10)" fill-rule="evenodd" stroke="none"/>
    <path d="M-21.25 -255.5 L-20.9 -255.65 -21.5 -254.25 -20.5 -255.65 -20.25 -255.5 -20.5 -255.1 -19.65 -254.9 -19.4 -255.25 -19.65 -255.75 -16.25 -256.65 -16.9 -256.4 -16.75 -256.15 -14.65 -256.25 -14.75 -256.0 -14.75 -255.65 -14.9 -255.4 -15.15 -254.65 -15.9 -249.4 -15.9 -249.0 -15.65 -248.75 -16.0 -247.9 -21.0 -253.25 -20.25 -254.4 -21.65 -254.15 -21.4 -253.65 -21.9 -254.25 -21.5 -254.65 -22.0 -254.65 -21.65 -255.25 -21.25 -255.5 M-10.25 -265.75 L-8.15 -266.65 Q-2.75 -264.15 -0.9 -265.75 L-0.9 -255.15 -1.65 -255.15 -1.65 -248.25 -1.65 -248.15 -2.75 -247.75 -3.5 -247.65 -3.15 -254.5 -3.9 -254.5 -4.25 -247.5 -4.25 -247.4 -4.5 -247.25 -6.0 -246.9 -5.9 -254.4 -6.75 -254.4 -6.65 -246.75 -7.0 -246.5 -8.25 -246.25 -7.9 -254.75 -8.65 -254.75 -9.15 -245.9 -12.0 -245.0 -12.75 -244.9 -13.25 -244.9 -12.0 -258.65 -10.9 -259.65 -10.4 -261.25 -10.65 -262.0 -11.25 -262.0 -11.15 -262.4 -10.75 -262.9 -9.75 -263.15 -10.25 -265.75 M-20.75 -253.9 L-21.0 -253.5 -21.25 -253.9 -20.75 -253.9 M-20.65 -254.9 L-21.0 -254.5 -20.75 -254.4 -20.65 -254.9 M-17.15 -250.75 L-16.75 -251.0 -17.5 -251.15 -17.15 -250.75 M-19.25 -253.0 L-18.4 -253.25 -19.4 -253.4 -19.25 -253.0 M-19.15 -251.9 L-18.0 -252.4 -19.4 -252.4 -19.15 -251.9 M-18.25 -253.75 L-18.5 -254.4 -18.65 -253.5 -18.25 -253.75 M-18.5 -255.65 L-18.15 -255.4 -18.25 -255.0 -17.9 -255.15 -18.15 -254.75 -17.75 -255.15 -17.9 -254.9 -17.4 -254.75 -17.9 -255.5 -17.15 -255.65 -18.15 -255.5 -18.25 -255.9 -18.5 -255.65 M-14.65 -257.25 L-14.25 -257.4 -14.5 -256.9 -14.75 -256.75 -14.65 -257.25 M-16.9 -249.75 L-16.65 -250.15 -17.15 -250.4 -16.9 -249.75" fill="url(#gradient11)" fill-rule="evenodd" stroke="none"/>
    <path d="M-0.9 -255.15 L-0.9 -248.25 -1.25 -248.25 -1.65 -248.25 -1.65 -255.15 -0.9 -255.15" fill="url(#gradient12)" fill-rule="evenodd" stroke="none"/>
    <path d="M-13.25 -244.9 L-12.75 -244.9 -13.25 -244.75 -13.25 -244.9 M-4.25 -247.4 L-4.25 -247.5 -3.9 -247.5 -4.25 -247.4 M-1.65 -248.15 L-1.65 -248.25 -1.25 -248.25 -1.65 -248.15" fill="url(#gradient13)" fill-rule="evenodd" stroke="none"/>
    <path d="M-0.9 -248.25 L-0.9 -223.4 -6.15 -221.5 -5.75 -232.0 -6.15 -233.9 Q-7.65 -240.15 -15.15 -239.5 L-15.5 -239.5 Q-12.4 -240.65 -7.9 -238.0 -4.75 -235.4 -5.15 -231.4 L-2.5 -232.0 -2.5 -233.25 -3.75 -237.5 Q-4.9 -239.9 -6.5 -241.0 L-9.5 -242.5 -14.65 -242.75 -16.4 -240.9 -22.5 -239.25 -24.9 -238.25 -25.5 -237.5 -25.0 -236.75 -25.65 -236.65 -25.9 -237.65 -25.5 -238.25 -22.75 -240.75 -18.25 -243.75 -16.4 -244.9 -16.25 -244.9 -16.0 -244.65 -15.4 -244.5 -14.4 -244.5 -14.0 -244.5 -13.65 -244.65 -13.25 -244.75 -12.75 -244.9 -12.0 -245.0 -9.15 -245.9 -8.5 -246.15 -8.4 -246.15 -8.25 -246.25 -7.0 -246.5 -6.65 -246.75 -6.25 -246.75 -6.0 -246.9 -4.5 -247.25 -4.25 -247.4 -3.9 -247.5 -3.65 -247.5 -3.5 -247.65 -2.75 -247.75 -1.65 -248.15 -1.25 -248.25 -0.9 -248.25" fill="url(#gradient14)" fill-rule="evenodd" stroke="none"/>
    <path d="M-11.9 -261.65 L-11.5 -262.15 -11.25 -262.4 -11.15 -262.4 -11.25 -262.0 -11.5 -261.9 -11.9 -261.65" fill="url(#gradient15)" fill-rule="evenodd" stroke="none"/>
    <path d="M-12.15 -261.25 L-12.0 -261.5 -11.9 -261.65 -11.5 -261.9 -11.25 -262.0 -10.65 -262.0 -10.4 -261.25 -10.9 -259.65 -12.0 -258.65 -13.25 -244.9 -13.25 -244.75 -13.65 -244.65 -14.15 -244.65 -13.75 -255.4 -14.0 -256.0 -13.65 -256.75 -13.9 -257.65 -13.65 -257.9 -12.15 -261.25" fill="url(#gradient16)" fill-rule="evenodd" stroke="none"/>
    <path d="M-12.0 -261.5 L-12.15 -261.65 -11.9 -261.65 -12.0 -261.5" fill="url(#gradient17)" fill-rule="evenodd" stroke="none"/>
    <path d="M-15.15 -257.15 L-14.4 -258.75 -12.15 -261.25 -13.65 -257.9 -13.9 -257.65 -14.25 -257.4 -14.65 -257.25 -15.15 -257.15" fill="url(#gradient18)" fill-rule="evenodd" stroke="none"/>
    <path d="M-21.25 -255.5 L-20.9 -255.9 -19.65 -255.75 -19.4 -255.25 -19.65 -254.9 -20.5 -255.1 -20.25 -255.5 -20.5 -255.65 -21.5 -254.25 -20.9 -255.65 -21.25 -255.5 M-16.25 -256.65 L-15.15 -257.15 -14.65 -257.25 -14.75 -256.75 -14.5 -256.9 -14.5 -256.65 -14.65 -256.4 -14.65 -256.25 -16.75 -256.15 -16.9 -256.4 -16.25 -256.65 M-21.9 -254.25 L-21.9 -254.4 -22.0 -254.4 -22.0 -254.65 -21.5 -254.65 -21.9 -254.25 M-20.65 -254.9 L-20.75 -254.4 -21.0 -254.5 -20.65 -254.9 M-20.75 -253.9 L-21.25 -253.9 -21.0 -253.5 -20.75 -253.9 M-21.4 -253.65 L-21.65 -254.15 -20.25 -254.4 -21.0 -253.25 -21.4 -253.65 M-18.5 -255.65 L-18.25 -255.9 -18.15 -255.5 -17.15 -255.65 -17.9 -255.5 -17.4 -254.75 -17.9 -254.9 -17.75 -255.15 -18.15 -254.75 -17.9 -255.15 -18.25 -255.0 -18.15 -255.4 -18.5 -255.65 M-18.25 -253.75 L-18.65 -253.5 -18.5 -254.4 -18.25 -253.75 M-19.15 -251.9 L-19.4 -252.4 -18.0 -252.4 -19.15 -251.9 M-19.25 -253.0 L-19.4 -253.4 -18.4 -253.25 -19.25 -253.0 M-17.15 -250.75 L-17.5 -251.15 -16.75 -251.0 -17.15 -250.75 M-16.9 -249.75 L-17.15 -250.4 -16.65 -250.15 -16.9 -249.75" fill="url(#gradient19)" fill-rule="evenodd" stroke="none"/>
    <path d="M-16.0 -247.9 L-15.65 -248.75 -15.9 -249.0 -15.9 -249.4 -15.15 -254.65 -14.9 -255.4 -14.75 -255.65 -14.75 -256.0 -14.65 -256.25 -14.65 -256.4 -14.5 -256.65 -14.5 -256.9 -14.25 -257.4 -13.9 -257.65 -13.65 -256.75 -14.0 -256.0 -13.75 -255.4 -14.15 -244.65 -14.4 -244.5 -15.4 -244.5 -16.0 -244.65 -16.25 -244.9 -16.4 -244.9 -16.15 -247.25 -16.0 -247.9" fill="url(#gradient20)" fill-rule="evenodd" stroke="none"/>
    <path d="M-9.15 -245.9 L-8.65 -254.75 -7.9 -254.75 -8.25 -246.25 -8.4 -246.15 -8.5 -246.15 -9.15 -245.9" fill="url(#gradient21)" fill-rule="evenodd" stroke="none"/>
    <path d="M-6.65 -246.75 L-6.75 -254.4 -5.9 -254.4 -6.0 -246.9 -6.25 -246.75 -6.65 -246.75" fill="url(#gradient22)" fill-rule="evenodd" stroke="none"/>
    <path d="M-4.25 -247.5 L-3.9 -254.5 -3.15 -254.5 -3.5 -247.65 -3.65 -247.5 -3.9 -247.5 -4.25 -247.5" fill="url(#gradient23)" fill-rule="evenodd" stroke="none"/>
    <path d="M-18.0 -245.5 L-18.0 -245.65 -23.75 -252.4 -23.75 -252.5 -22.0 -254.65 -22.0 -254.4 -21.9 -254.4 -21.9 -254.25 -21.4 -253.65 -21.0 -253.25 -16.0 -247.9 -16.15 -247.25 -16.4 -247.4 -18.0 -245.5" fill="url(#gradient24)" fill-rule="evenodd" stroke="none"/>
    <path d="M-18.25 -243.75 L-18.0 -245.5 -16.4 -247.4 -16.15 -247.25 -16.4 -244.9 -18.25 -243.75" fill="url(#gradient25)" fill-rule="evenodd" stroke="none"/>
    <path d="M-221.75 -247.4 L-221.5 -242.15 -222.25 -242.75 -222.65 -248.5 -222.5 -248.75 -221.9 -247.65 -221.75 -247.4 M-226.15 -247.65 L-225.5 -244.5 -226.9 -245.25 -226.15 -247.65" fill="url(#gradient26)" fill-rule="evenodd" stroke="none"/>
    <path d="M-223.25 -243.15 L-222.25 -242.75 -221.5 -242.15 -221.9 -242.25 -222.9 -242.75 -223.25 -243.15" fill="url(#gradient27)" fill-rule="evenodd" stroke="none"/>
    <path d="M-266.65 -243.4 L-262.0 -246.5 -261.4 -246.9 -231.5 -246.4 -222.9 -242.75 -221.9 -242.25 -221.75 -241.9 -222.4 -241.75 -221.0 -240.4 -207.4 -209.0 -206.5 -201.0 Q-219.4 -212.0 -238.9 -208.15 -255.0 -204.75 -259.15 -190.9 L-258.9 -185.25 Q-263.0 -174.9 -261.75 -173.25 L-261.25 -167.4 -258.25 -160.9 Q-259.25 -159.75 -256.25 -151.75 L-250.75 -144.5 -247.5 -142.15 -237.5 -138.9 -230.15 -134.5 -228.5 -134.0 -277.75 -136.4 -288.25 -136.0 -285.4 -138.5 -284.75 -141.5 -282.5 -142.65 Q-279.25 -147.0 -276.65 -148.0 L-272.25 -154.4 -270.9 -161.5 -265.75 -169.25 -263.75 -177.5 -264.65 -185.65 Q-260.65 -191.65 -261.25 -193.25 -260.5 -198.0 -263.75 -203.9 L-268.15 -208.5 Q-273.65 -210.4 -274.75 -211.9 L-278.75 -212.9 -284.4 -212.75 -287.9 -212.25 -268.0 -240.9 -266.5 -241.15 -265.75 -242.9 -266.9 -242.65 -266.65 -243.15 -266.65 -243.4 M-212.75 -135.65 L-213.5 -133.4 -218.4 -133.65 -212.75 -135.65 M-291.9 -135.75 L-294.0 -135.65 -294.4 -136.4 -291.9 -135.75" fill="url(#gradient28)" fill-rule="evenodd" stroke="none"/>
    <path d="M-14.0 -244.5 L-14.4 -244.5 -14.15 -244.65 -14.0 -244.5" fill="url(#gradient29)" fill-rule="evenodd" stroke="none"/>
    <path d="M-14.0 -244.5 L-14.15 -244.65 -13.65 -244.65 -14.0 -244.5" fill="url(#gradient30)" fill-rule="evenodd" stroke="none"/>
    <path d="M-294.25 -234.9 L-266.65 -243.4 -266.65 -243.15 -267.5 -242.5 -269.4 -242.15 -269.25 -241.4 -298.5 -220.9 -294.25 -234.9" fill="url(#gradient31)" fill-rule="evenodd" stroke="none"/>
    <path d="M-298.0 -209.4 L-298.5 -220.9 -269.25 -241.4 -268.0 -240.9 -287.9 -212.25 -291.9 -211.65 -298.0 -209.4 M-266.65 -243.15 L-266.9 -242.65 -267.5 -242.5 -266.65 -243.15" fill="url(#gradient32)" fill-rule="evenodd" stroke="none"/>
    <path d="M-221.75 -241.9 L-218.5 -241.25 -219.75 -241.0 -220.0 -240.25 -221.0 -240.4 -222.4 -241.75 -221.75 -241.9 M-268.0 -240.9 L-269.25 -241.4 -269.4 -242.15 -267.5 -242.5 -266.9 -242.65 -265.75 -242.9 -266.5 -241.15 -268.0 -240.9" fill="url(#gradient33)" fill-rule="evenodd" stroke="none"/>
    <path d="M-218.15 -241.5 L-212.9 -240.4 -212.5 -240.25 -205.25 -238.75 -205.15 -238.75 -193.75 -236.35 -186.9 -234.9 -186.9 -234.5 -183.25 -220.4 -181.9 -195.15 -191.15 -185.0 -190.65 -208.0 -220.0 -240.25 -219.75 -241.0 -218.5 -241.25 -221.75 -241.9 -221.9 -242.25 -221.5 -242.15 -218.15 -241.5" fill="url(#gradient34)" fill-rule="evenodd" stroke="none"/>
    <path d="M-189.5 -178.9 L-191.9 -139.25 -193.9 -140.65 -213.5 -133.4 -212.75 -135.65 Q-195.9 -141.65 -191.15 -167.65 L-191.65 -177.4 -193.25 -183.9 -196.0 -189.75 -200.65 -196.25 -203.15 -198.65 -206.5 -201.0 -207.4 -209.0 -221.0 -240.4 -220.0 -240.25 -190.65 -208.0 -191.15 -185.0 Q-191.65 -184.4 -189.25 -182.15 L-189.5 -178.9" fill="url(#gradient35)" fill-rule="evenodd" stroke="none"/>
    <path d="M-206.5 -201.0 L-203.15 -198.65 -200.65 -196.25 -196.0 -189.75 -193.25 -183.9 -191.65 -177.4 -191.15 -167.65 Q-195.9 -141.65 -212.75 -135.65 L-218.4 -133.65 -222.25 -133.25 -228.5 -134.0 -230.15 -134.5 -237.5 -138.9 -247.5 -142.15 -250.75 -144.5 -256.25 -151.75 Q-259.25 -159.75 -258.25 -160.9 L-261.25 -167.4 -261.75 -173.25 Q-263.0 -174.9 -258.9 -185.25 L-259.15 -190.9 Q-255.0 -204.75 -238.9 -208.15 -219.4 -212.0 -206.5 -201.0" fill="url(#gradient36)" fill-rule="evenodd" stroke="none"/>
    <path d="M-218.4 -133.65 L-213.5 -133.4 -226.25 -92.0 -230.25 -30.75 -244.75 -30.4 -285.25 -33.75 -292.9 -35.75 -293.0 -36.0 -288.15 -95.65 -294.0 -135.65 -291.9 -135.75 -288.25 -136.0 -277.75 -136.4 -228.5 -134.0 -222.25 -133.25 -218.4 -133.65" fill="url(#gradient37)" fill-rule="evenodd" stroke="none"/>
    <path d="M-300.75 -139.5 Q-321.15 -153.75 -321.0 -171.75 -323.4 -185.25 -308.4 -202.25 L-307.0 -203.5 -298.0 -209.4 -291.9 -211.65 -287.9 -212.25 -284.4 -212.75 -278.75 -212.9 -274.75 -211.9 Q-273.65 -210.4 -268.15 -208.5 L-263.75 -203.9 Q-260.5 -198.0 -261.25 -193.25 -260.65 -191.65 -264.65 -185.65 L-263.75 -177.5 -265.75 -169.25 -270.9 -161.5 -272.25 -154.4 -276.65 -148.0 Q-279.25 -147.0 -282.5 -142.65 L-284.75 -141.5 -285.4 -138.5 -288.25 -136.0 -291.9 -135.75 -294.4 -136.4 -294.75 -136.75 -298.4 -138.15 -300.75 -139.5" fill="url(#gradient38)" fill-rule="evenodd" stroke="none"/>
    <path d="M-193.75 -236.35 L-185.4 -234.75 -168.25 -222.65 -169.5 -220.5 -186.9 -234.5 -186.9 -234.9 -193.75 -236.35" fill="url(#gradient39)" fill-rule="evenodd" stroke="none"/>
    <path d="M-183.25 -220.4 L-186.9 -234.5 -169.5 -220.5 -183.25 -220.4" fill="url(#gradient40)" fill-rule="evenodd" stroke="none"/>
    <path d="M-116.65 -151.75 L-128.9 -153.5 -141.25 -159.15 -157.65 -168.75 -177.15 -176.4 -181.9 -195.15 -183.25 -220.4 -169.5 -220.5 Q-155.45 -213.85 -141.4 -207.25 L-121.4 -198.9 -91.0 -184.25 -116.65 -151.75" fill="url(#gradient41)" fill-rule="evenodd" stroke="none"/>
    <path d="M-25.0 -236.75 L-25.5 -237.5 -24.9 -238.25 -22.5 -239.25 -16.4 -240.9 -14.65 -242.75 -9.5 -242.5 -6.5 -241.0 Q-4.9 -239.9 -3.75 -237.5 L-2.5 -233.25 -2.5 -232.0 -5.15 -231.4 Q-4.75 -235.4 -7.9 -238.0 -12.4 -240.65 -15.5 -239.5 L-15.65 -239.5 -17.75 -238.9 -17.9 -238.75 -18.4 -238.65 -18.75 -238.5 -22.0 -237.5 -25.0 -236.75" fill="url(#gradient42)" fill-rule="evenodd" stroke="none"/>
    <path d="M-16.9 -238.0 L-23.5 -236.15 -22.0 -237.5 -18.75 -238.5 -18.4 -238.65 -17.9 -238.75 -17.75 -238.9 -15.65 -239.5 -15.5 -239.5 -15.15 -239.5 -16.9 -238.0 M-26.65 -235.25 L-27.25 -235.25 -25.65 -236.65 -26.65 -235.25" fill="url(#gradient43)" fill-rule="evenodd" stroke="none"/>
    <path d="M-23.5 -236.15 L-26.65 -235.25 -25.65 -236.65 -25.0 -236.75 -22.0 -237.5 -23.5 -236.15" fill="url(#gradient44)" fill-rule="evenodd" stroke="none"/>
    <path d="M-8.25 -232.75 Q-11.75 -239.25 -16.9 -238.0 L-15.15 -239.5 Q-7.65 -240.15 -6.15 -233.9 L-8.25 -232.75" fill="url(#gradient45)" fill-rule="evenodd" stroke="none"/>
    <path d="M-8.4 -220.5 L-7.9 -230.0 -8.25 -232.75 -6.15 -233.9 -5.75 -232.0 -6.15 -221.5 -8.4 -220.5" fill="url(#gradient46)" fill-rule="evenodd" stroke="none"/>
    <path d="M-27.0 -236.65 L-25.5 -238.25 -25.9 -237.65 -27.0 -236.65" fill="url(#gradient47)" fill-rule="evenodd" stroke="none"/>
    <path d="M-27.25 -235.25 L-27.4 -236.0 -27.0 -236.65 -25.9 -237.65 -25.65 -236.65 -27.25 -235.25" fill="url(#gradient48)" fill-rule="evenodd" stroke="none"/>
    <path d="M-309.65 -229.15 L-294.25 -234.9 -298.5 -220.9 -298.0 -209.4 -307.0 -203.5 -308.4 -202.25 -313.15 -211.15 -309.65 -229.15" fill="url(#gradient49)" fill-rule="evenodd" stroke="none"/>
    <path d="M-321.0 -171.75 L-331.0 -167.0 Q-339.1 -161.05 -347.25 -155.15 L-350.75 -153.25 -365.65 -147.75 -381.4 -160.5 -389.15 -170.75 -388.5 -171.4 -368.4 -182.25 -345.9 -197.75 -323.9 -212.25 -313.9 -224.25 -313.4 -224.75 -309.65 -229.15 -313.15 -211.15 -308.4 -202.25 Q-323.4 -185.25 -321.0 -171.75" fill="url(#gradient50)" fill-rule="evenodd" stroke="none"/>
    <path d="M-313.75 -224.5 L-313.4 -224.75 -313.9 -224.25 -313.75 -224.5" fill="url(#gradient51)" fill-rule="evenodd" stroke="none"/>
    <path d="M-388.5 -171.4 L-385.0 -175.0 -367.25 -189.65 -349.15 -203.0 -328.15 -216.65 -313.75 -224.5 -313.9 -224.25 -323.9 -212.25 -345.9 -197.75 -368.4 -182.25 -388.5 -171.4" fill="url(#gradient52)" fill-rule="evenodd" stroke="none"/>
    <path d="M-168.25 -222.65 L-140.15 -209.5 -89.25 -186.75 -91.0 -184.25 -121.4 -198.9 -141.4 -207.25 Q-155.45 -213.85 -169.5 -220.5 L-168.25 -222.65" fill="url(#gradient53)" fill-rule="evenodd" stroke="none"/>
    <path d="M-89.25 -186.75 L-73.9 -188.15 -68.75 -184.9 -91.0 -184.25 -89.25 -186.75" fill="url(#gradient54)" fill-rule="evenodd" stroke="none"/>
    <path d="M-0.9 -223.4 L-0.9 -216.75 -7.5 -214.25 -31.15 -203.4 -50.0 -193.4 -68.4 -184.9 -68.75 -184.9 -73.9 -188.15 -42.25 -205.0 -17.5 -215.9 -8.4 -220.5 -6.15 -221.5 -0.9 -223.4" fill="url(#gradient55)" fill-rule="evenodd" stroke="none"/>
    <path d="M-0.9 -216.75 L-1.15 -189.15 -42.5 -167.4 -37.15 -177.4 -50.0 -193.4 -31.15 -203.4 -7.5 -214.25 -0.9 -216.75" fill="url(#gradient56)" fill-rule="evenodd" stroke="none"/>
    <path d="M-50.0 -193.4 L-37.15 -177.4 -68.4 -184.9 -50.0 -193.4" fill="url(#gradient57)" fill-rule="evenodd" stroke="none"/>
    <path d="M-62.4 -155.75 L-78.4 -147.4 -116.65 -151.75 -91.0 -184.25 -68.75 -184.9 -68.4 -184.9 -37.15 -177.4 -53.0 -168.75 -62.4 -155.75" fill="url(#gradient58)" fill-rule="evenodd" stroke="none"/>
    <path d="M-177.15 -176.4 L-189.5 -178.9 -189.25 -182.15 Q-191.65 -184.4 -191.15 -185.0 L-181.9 -195.15 -177.15 -176.4" fill="url(#gradient59)" fill-rule="evenodd" stroke="none"/>
    <path d="M-191.9 -139.25 L-204.4 -95.25 -205.4 -90.4 -208.75 -37.0 -209.25 -35.75 -210.75 -34.5 -215.4 -33.25 -230.25 -30.75 -226.25 -92.0 -213.5 -133.4 -193.9 -140.65 -191.9 -139.25" fill="url(#gradient60)" fill-rule="evenodd" stroke="none"/>
    <path d="M-400.0 -133.15 L-400.0 -157.9 -396.95 -161.4 -394.65 -164.15 -394.5 -164.4 -394.15 -164.75 -389.15 -170.75 -381.4 -160.5 -365.65 -147.75 -365.5 -147.25 -365.25 -146.5 -362.9 -132.4 -360.25 -127.9 -359.9 -127.5 -359.9 -127.25 -357.5 -122.4 -377.15 -121.15 -386.65 -117.0 -400.0 -133.15" fill="url(#gradient61)" fill-rule="evenodd" stroke="none"/>
    <path d="M-396.5 -162.0 L-396.5 -162.15 -394.65 -164.15 -396.95 -161.4 -396.5 -162.0" fill="url(#gradient62)" fill-rule="evenodd" stroke="none"/>
    <path d="M-400.0 -157.9 L-399.65 -158.75 -396.5 -162.0 -396.95 -161.4 -400.0 -157.9" fill="url(#gradient63)" fill-rule="evenodd" stroke="none"/>
    <path d="M-42.5 -167.4 L-62.4 -155.75 -53.0 -168.75 -37.15 -177.4 -42.5 -167.4" fill="url(#gradient64)" fill-rule="evenodd" stroke="none"/>
    <path d="M-343.0 -57.5 L-356.4 -74.25 -370.25 -90.5 -392.0 -120.5 -399.9 -130.75 -400.0 -133.15 -386.65 -117.0 -377.0 -105.25 -376.15 -104.65 -366.25 -90.75 -351.25 -72.25 -342.0 -62.65 -342.9 -62.0 -343.0 -61.15 -343.0 -57.5" fill="url(#gradient65)" fill-rule="evenodd" stroke="none"/>
    <path d="M-316.9 -70.65 Q-306.5 -59.65 -320.15 -47.75 -338.0 -41.25 -343.0 -57.5 L-343.0 -61.15 -342.9 -62.0 -342.0 -62.65 -340.5 -65.9 -336.0 -68.15 Q-326.5 -67.15 -326.0 -65.15 L-319.75 -67.75 -319.0 -67.25 Q-318.75 -68.25 -322.15 -72.15 L-322.4 -73.15 -321.9 -73.4 -320.65 -73.15 -316.9 -70.65" fill="url(#gradient66)" fill-rule="evenodd" stroke="none"/>
    <path d="M-342.0 -62.65 L-351.25 -72.25 -366.25 -90.75 -376.15 -104.65 -377.0 -105.25 -386.65 -117.0 -377.15 -121.15 -357.5 -122.4 -356.5 -121.15 -342.5 -97.9 -335.25 -88.75 -327.65 -77.9 -319.75 -67.75 -326.0 -65.15 Q-326.5 -67.15 -336.0 -68.15 L-340.5 -65.9 -342.0 -62.65" fill="url(#gradient67)" fill-rule="evenodd" stroke="none"/>
    <path d="M-352.15 -116.25 L-333.5 -94.0 -327.5 -84.0 -318.65 -75.15 -316.9 -70.65 -320.65 -73.15 -321.9 -73.4 -322.4 -73.15 -322.15 -72.15 Q-318.75 -68.25 -319.0 -67.25 L-319.75 -67.75 -327.65 -77.9 -335.25 -88.75 -342.5 -97.9 -356.5 -121.15 -356.0 -121.0 -352.15 -116.25" fill="url(#gradient68)" fill-rule="evenodd" stroke="none"/>
    <path d="M-357.5 -122.4 L-359.9 -127.25 -359.5 -127.15 -356.0 -121.0 -356.5 -121.15 -357.5 -122.4" fill="url(#gradient69)" fill-rule="evenodd" stroke="none"/>
    <path d="M-361.65 -141.9 L-355.0 -131.75 -352.15 -116.25 -356.0 -121.0 -359.5 -127.15 -359.9 -127.25 -359.9 -127.5 -360.25 -127.9 -362.9 -132.4 -365.25 -146.5 -365.5 -147.25 -361.65 -141.9" fill="url(#gradient70)" fill-rule="evenodd" stroke="none"/>
    <path d="M-350.75 -153.25 L-361.65 -141.9 -365.5 -147.25 -365.65 -147.75 -350.75 -153.25" fill="url(#gradient71)" fill-rule="evenodd" stroke="none"/>
    <path d="M-295.75 -40.5 L-292.15 -78.9 -291.25 -96.15 -300.75 -139.5 -298.4 -138.15 -294.75 -136.75 -294.4 -136.4 -294.0 -135.65 -288.15 -95.65 -293.0 -36.0 -295.75 -40.5" fill="url(#gradient72)" fill-rule="evenodd" stroke="none"/>
    <path d="M-309.4 -0.9 L-316.75 -0.9 -316.25 -7.9 -295.75 -40.5 -293.0 -36.0 -292.9 -35.75 -309.4 -0.9" fill="url(#gradient73)" fill-rule="evenodd" stroke="none"/>
    <path d="M-221.75 -0.9 L-309.4 -0.9 -292.9 -35.75 -285.25 -33.75 -244.75 -30.4 -230.25 -30.75 -221.75 -0.9" fill="url(#gradient74)" fill-rule="evenodd" stroke="none"/>
    <path d="M-202.65 -17.15 L-202.65 -17.0 -195.25 -0.9 -221.75 -0.9 -230.25 -30.75 -215.4 -33.25 -210.75 -34.5 -202.65 -17.15" fill="url(#gradient75)" fill-rule="evenodd" stroke="none"/>
    <path d="M-207.0 -29.75 L-207.0 -29.65 -202.65 -17.15 -210.75 -34.5 -209.25 -35.75 -207.0 -29.75" fill="url(#gradient76)" fill-rule="evenodd" stroke="none"/>
    <path d="M-208.75 -37.0 L-207.0 -29.75 -209.25 -35.75 -208.75 -37.0" fill="url(#gradient77)" fill-rule="evenodd" stroke="none"/>
    <path d="M-280.75 -253.0 L-274.4 -253.25 -275.65 -251.25 -280.75 -253.0" fill="#ac0000" fill-rule="evenodd" stroke="none"/>
    <path d="M-212.65 -251.0 L-212.15 -249.9 -210.15 -244.4 -210.25 -243.15 -210.15 -242.5 -210.25 -242.25 -216.15 -241.75 -214.65 -242.5 Q-215.25 -243.25 -213.4 -248.15 L-213.5 -248.65 -213.15 -249.65 -213.0 -250.25 -212.65 -251.0 M-210.5 -239.9 L-210.4 -239.75 -210.9 -230.25 -210.75 -229.9 -211.15 -222.9 -211.9 -219.5 -211.9 -218.75 -212.4 -217.0 -212.4 -216.5 -214.4 -206.0 -214.25 -205.75 -214.75 -203.75 -214.65 -203.4 -215.15 -201.25 -215.25 -200.0 -211.5 -198.15 -211.25 -197.75 -203.65 -193.75 -202.65 -193.4 -201.5 -192.65 -200.75 -192.4 -200.5 -192.0 -196.65 -190.0 -196.25 -190.0 -196.0 -189.65 -194.0 -188.75 -193.5 -188.25 -192.9 -187.9 -193.4 -187.9 -201.25 -187.0 -201.75 -186.9 -217.4 -185.15 -217.75 -185.0 -227.15 -184.0 -226.15 -188.75 -226.25 -189.15 -226.0 -189.4 -224.75 -196.4 -223.4 -202.0 -223.4 -203.4 -222.15 -208.25 -222.15 -208.4 -219.15 -222.25 -218.65 -226.4 -218.75 -226.9 -218.15 -233.15 -218.25 -234.25 -217.65 -239.75 -217.75 -240.0 -217.65 -241.25 -217.5 -241.4 -217.5 -241.25 -216.9 -241.25 -212.9 -240.4 -212.5 -240.25 -210.75 -239.9 -210.5 -239.9 M-274.4 -253.25 L-272.0 -252.5 -271.75 -252.25 -267.65 -250.9 -261.15 -247.15 -261.65 -246.65 -262.0 -246.5 -266.0 -246.25 -269.65 -248.15 -269.9 -248.5 -273.75 -250.75 -274.9 -251.0 -275.65 -251.25 -274.4 -253.25 M-218.15 -241.5 L-221.5 -242.15 -221.5 -242.25 -221.4 -243.5 -221.5 -244.0 -221.5 -244.25 -220.5 -246.65 -220.4 -247.65 -220.25 -248.25 -217.65 -244.5 -217.4 -243.0 -217.5 -241.4 -218.15 -241.5 M-220.65 -248.9 L-221.15 -249.65 -221.65 -250.65 -220.75 -249.75 -220.25 -248.9 -220.65 -248.9" fill="#9b0000" fill-opacity="0.9098039" fill-rule="evenodd" stroke="none"/>
    <path d="M-322.0 -191.9 L-313.25 -196.9 -312.75 -197.4 -311.5 -197.75 -310.65 -198.5 -306.5 -200.65 -306.0 -200.75 -304.15 -201.75 -303.4 -203.25 -303.0 -203.65 -301.9 -205.75 -301.65 -206.4 -301.4 -206.65 -301.15 -207.25 -298.25 -212.0 -298.15 -212.9 -297.75 -213.0 -291.4 -224.4 -291.0 -225.65 -291.15 -225.9 -290.9 -226.25 -288.75 -236.65 -288.65 -236.75 -281.15 -238.9 -281.0 -238.75 -282.25 -232.4 -282.5 -232.0 -282.4 -231.75 -283.75 -224.9 -290.75 -211.9 -290.75 -211.75 -291.15 -211.0 -291.5 -210.65 -291.5 -210.4 -292.75 -208.0 -293.0 -207.75 -296.15 -201.5 -296.75 -198.65 -296.9 -198.4 -298.25 -192.15 -298.4 -191.9 -298.25 -191.65 -299.9 -184.4 -300.15 -184.15 -300.0 -183.75 -301.75 -176.9 -306.75 -180.65 -307.75 -181.25 -315.5 -187.25 -315.75 -187.5 -322.0 -191.9 M-284.75 -248.0 L-282.0 -251.65 -281.9 -252.15 -280.75 -253.0 -275.65 -251.25 -279.5 -245.5 -280.15 -245.4 -280.5 -245.5 -280.9 -245.9 -284.75 -248.0" fill="#9e0000" fill-opacity="0.9098039" fill-rule="evenodd" stroke="none"/>
    <path d="M-288.65 -236.75 L-286.9 -245.0 -284.75 -248.0 -280.9 -245.9 -280.5 -245.5 -280.15 -245.4 -279.5 -245.5 -280.0 -244.5 -281.15 -238.9 -288.65 -236.75" fill="#ae0000" fill-opacity="0.9098039" fill-rule="evenodd" stroke="none"/>
    <path d="M-210.25 -242.25 L-210.5 -239.9 -210.75 -239.9 -212.5 -240.25 -212.9 -240.4 -216.9 -241.25 -216.15 -241.75 -210.25 -242.25 M-262.0 -246.5 L-264.0 -245.15 -266.0 -246.25 -262.0 -246.5 M-217.65 -241.25 L-218.15 -241.5 -217.5 -241.4 -217.65 -241.25" fill="#ab0000" fill-opacity="0.9098039" fill-rule="evenodd" stroke="none"/>
    <path d="M-221.65 -250.65 L-221.9 -250.9 -222.5 -251.4 -221.75 -251.65 -212.75 -251.4 -212.9 -251.25 -212.65 -251.0 -213.0 -250.25 -213.15 -249.65 -213.5 -248.65 -213.4 -248.15 Q-215.25 -243.25 -214.65 -242.5 L-216.15 -241.75 -217.5 -241.4 -217.4 -243.0 -217.65 -244.5 -220.25 -248.25 -220.65 -248.9 -220.25 -248.9 -220.75 -249.75 -221.65 -250.65" fill="#a90000" fill-rule="evenodd" stroke="none"/>
    <path d="M-216.9 -241.25 L-217.5 -241.25 -217.5 -241.4 -216.15 -241.75 -216.9 -241.25" fill="#ab0000" fill-rule="evenodd" stroke="none"/>
    <path d="M-192.9 -187.9 L-192.75 -187.9 -192.65 -187.65 -192.9 -187.4 -192.65 -186.65 -193.0 -183.25 -192.9 -181.65 -193.4 -174.15 -193.65 -173.65 -193.4 -173.4 -193.75 -166.15 -194.0 -165.75 -193.9 -163.65 -195.25 -158.65 -195.4 -158.25 -197.0 -152.0 -197.25 -151.75 -197.15 -151.5 -198.0 -148.25 -198.15 -148.15 -198.5 -147.25 -198.65 -147.0 -198.65 -146.9 -198.5 -146.65 -200.9 -138.15 -201.15 -137.9 -201.0 -137.5 -202.0 -134.15 -209.65 -134.75 -229.65 -135.9 -229.65 -136.15 -233.0 -136.25 -233.4 -136.4 -258.9 -137.0 -260.25 -137.15 -271.0 -137.4 -279.75 -138.15 -279.9 -138.25 -288.0 -139.0 -300.65 -138.5 -300.75 -139.5 -305.5 -142.75 -310.5 -147.25 -311.4 -148.25 -315.9 -154.65 -316.0 -155.15 -319.15 -161.9 -319.15 -162.5 -320.75 -169.5 -320.75 -170.0 -321.0 -171.75 -320.9 -172.25 -320.9 -177.25 -320.65 -178.0 -319.65 -184.75 -322.0 -191.9 -315.75 -187.5 -315.5 -187.25 -307.75 -181.25 -306.75 -180.65 -301.75 -176.9 -300.75 -176.0 -295.4 -171.9 -294.65 -171.5 -294.65 -171.4 -294.15 -171.15 -294.0 -170.75 -279.0 -159.65 -278.9 -159.4 -265.9 -149.5 -260.0 -152.65 -259.9 -152.9 -240.25 -163.5 -240.15 -163.75 -233.4 -167.4 -231.75 -171.25 -231.5 -171.5 -227.4 -183.5 -227.15 -184.0 -217.75 -185.0 -217.4 -185.15 -201.75 -186.9 -201.25 -187.0 -193.4 -187.9 -192.9 -187.9 M-223.75 -158.5 L-223.9 -158.75 -224.65 -159.4 -225.4 -158.65 -225.4 -158.15 -225.0 -156.9 -224.9 -156.4 -223.9 -157.5 -223.65 -158.4 -223.75 -158.5 M-304.75 -155.75 L-304.5 -156.0 -304.5 -156.4 -305.75 -159.5 -305.15 -156.15 -304.75 -155.75" fill="#b00000" fill-opacity="0.9098039" fill-rule="evenodd" stroke="none"/>
    <path d="M-326.5 -169.25 L-324.9 -178.15 -324.75 -178.4 -323.0 -186.9 -323.15 -187.15 -322.0 -191.9 -319.65 -184.75 -320.65 -178.0 -320.9 -177.25 -320.9 -172.25 -321.0 -171.75 -326.5 -169.25" fill="#c30000" fill-rule="evenodd" stroke="none"/>
    <path d="M-326.25 -163.25 L-326.25 -163.4 -326.5 -163.65 -327.4 -165.0 -326.65 -169.0 -326.5 -169.25 -321.0 -171.75 -320.75 -170.0 -320.75 -169.5 -319.15 -162.5 -319.15 -161.9 -316.0 -155.15 -315.9 -154.65 -311.4 -148.25 -310.5 -147.25 -314.75 -148.25 -315.15 -148.5 -326.25 -163.25" fill="#c50000" fill-rule="evenodd" stroke="none"/>
    <path d="M-192.65 -187.65 L-191.25 -185.75 -191.0 -185.15 -191.15 -184.9 -189.75 -183.0 -189.25 -182.15 -189.15 -181.9 -188.9 -181.75 -187.0 -178.4 -189.5 -178.9 -191.9 -140.15 -192.0 -139.4 -191.9 -139.25 -191.9 -138.9 -192.0 -138.5 -192.15 -138.25 -194.9 -137.15 -195.15 -137.0 -202.0 -134.15 -201.0 -137.5 -201.15 -137.9 -200.9 -138.15 -198.5 -146.65 -198.65 -146.9 -198.65 -147.0 -198.5 -147.25 -198.15 -148.15 -198.0 -148.25 -197.15 -151.5 -197.25 -151.75 -197.0 -152.0 -195.4 -158.25 -195.25 -158.65 -193.9 -163.65 -194.0 -165.75 -193.75 -166.15 -193.4 -173.4 -193.65 -173.65 -193.4 -174.15 -192.9 -181.65 -193.0 -183.25 -192.65 -186.65 -192.9 -187.4 -192.65 -187.65" fill="#d30000" fill-opacity="0.9098039" fill-rule="evenodd" stroke="none"/>
    <path d="M-202.0 -134.15 L-195.15 -137.0 -194.9 -137.15 -192.15 -138.25 -194.65 -129.75 -194.5 -129.5 -194.75 -129.4 -194.9 -128.9 -194.75 -128.65 -197.9 -117.4 -205.25 -91.5 -205.15 -91.15 -205.4 -90.0 -206.4 -76.9 -206.4 -75.65 -206.75 -72.5 -206.4 -70.9 -207.5 -59.15 -207.5 -58.0 -208.75 -41.15 -208.9 -36.9 -207.5 -31.4 -207.5 -31.25 -206.0 -26.65 -210.75 -25.0 -211.25 -25.0 -211.5 -24.9 -211.75 -24.9 -228.5 -21.9 -228.15 -23.0 -228.25 -24.15 -227.4 -27.65 -227.5 -28.0 -224.25 -45.0 -224.4 -45.65 -223.0 -64.9 -223.0 -65.25 -221.65 -84.9 -221.75 -85.5 -221.4 -89.15 -212.4 -109.9 -212.25 -110.75 -202.0 -134.15" fill="#db0000" fill-opacity="0.9098039" fill-rule="evenodd" stroke="none"/>
    <path d="M-179.65 -141.0 L-197.0 -88.25 -197.9 -117.4 -194.75 -128.65 -194.9 -128.9 -194.75 -129.4 -194.5 -129.5 -194.65 -129.75 -192.15 -138.25 -192.0 -138.5 -190.9 -138.9 -190.4 -139.0 -181.75 -142.75 -179.65 -141.0" fill="#f20000" fill-rule="evenodd" stroke="none"/>
    <path d="M-178.15 -150.65 L-178.0 -150.0 -179.65 -141.0 -181.75 -142.75 -190.4 -139.0 -190.9 -138.9 -192.0 -138.5 -191.9 -138.9 -191.9 -139.25 -192.0 -139.4 -191.9 -140.15 -183.4 -142.9 -178.15 -150.65" fill="#ea0000" fill-rule="evenodd" stroke="none"/>
    <path d="M-187.0 -178.4 L-186.75 -178.25 -180.0 -167.15 -177.9 -151.65 -178.15 -150.65 -183.4 -142.9 -191.9 -140.15 -189.5 -178.9 -187.0 -178.4 M-316.0 -0.9 L-316.75 -0.9 -316.15 -7.15 -316.15 -7.9 -302.9 -29.15 -303.0 -29.4 -302.5 -29.75 -302.4 -28.4 -302.25 -27.9 -315.0 -3.15 -315.15 -2.65 -316.0 -0.9" fill="#e80000" fill-opacity="0.9098039" fill-rule="evenodd" stroke="none"/>
    <path d="M-310.5 -147.25 L-305.5 -142.75 -300.75 -139.5 -300.65 -138.5 -307.4 -138.15 -314.75 -148.25 -310.5 -147.25" fill="#c60000" fill-rule="evenodd" stroke="none"/>
    <path d="M-316.75 -0.9 L-327.4 -0.9 -305.4 -33.75 -306.75 -52.5 -304.75 -75.65 -303.75 -94.5 -317.75 -149.0 -326.25 -163.25 -315.15 -148.5 -314.75 -148.25 -307.4 -138.15 -299.65 -94.15 -303.15 -51.5 -302.25 -30.5 -302.5 -29.75 -303.0 -29.4 -302.9 -29.15 -316.15 -7.9 -316.15 -7.15 -316.75 -0.9" fill="#fd0000" fill-rule="evenodd" stroke="none"/>
    <path d="M-300.65 -138.5 L-288.0 -139.0 -279.9 -138.25 -279.75 -138.15 -271.0 -137.4 -260.25 -137.15 -258.9 -137.0 -233.4 -136.4 -233.0 -136.25 -229.65 -136.15 -229.65 -135.9 -209.65 -134.75 -202.0 -134.15 -212.25 -110.75 -212.4 -109.9 -221.4 -89.15 -221.75 -85.5 -221.65 -84.9 -223.0 -65.25 -223.0 -64.9 -224.4 -45.65 -224.25 -45.0 -227.5 -28.0 -227.4 -27.65 -228.25 -24.15 -228.15 -23.0 -228.5 -21.9 -246.0 -21.4 -285.25 -24.5 -285.9 -24.65 -291.9 -25.15 -302.25 -27.9 -302.4 -28.4 -302.5 -29.75 -302.25 -30.5 -295.75 -40.5 -295.5 -42.0 -292.25 -77.75 -291.25 -95.9 -291.5 -97.9 -300.65 -138.5" fill="#a70000" fill-opacity="0.9098039" fill-rule="evenodd" stroke="none"/>
    <path d="M-195.4 -0.9 L-221.9 -0.9 -222.0 -1.5 -228.5 -21.9 -211.75 -24.9 -211.5 -24.9 -211.25 -25.0 -210.75 -25.0 -206.0 -26.65 -205.75 -26.25 -205.65 -26.0 -205.5 -25.75 -203.4 -18.9 -203.4 -18.75 -202.75 -17.0 -202.65 -16.9 -198.9 -8.75 -198.9 -8.65 -198.65 -8.25 -198.65 -8.15 -198.5 -7.75 -198.4 -7.65 -198.0 -6.9 -196.25 -2.5 -195.4 -0.9" fill="#c90000" fill-opacity="0.9098039" fill-rule="evenodd" stroke="none"/>
    <path d="M-204.0 -30.25 L-204.0 -29.65 -204.4 -28.25 -206.0 -26.65 -207.5 -31.25 -204.0 -30.25" fill="#ee0000" fill-rule="evenodd" stroke="none"/>
    <path d="M-197.0 -88.25 L-199.4 -48.25 -204.0 -30.25 -207.5 -31.25 -207.5 -31.4 -208.9 -36.9 -208.75 -41.15 -207.5 -58.0 -207.5 -59.15 -206.4 -70.9 -206.75 -72.5 -206.4 -75.65 -206.4 -76.9 -205.4 -90.0 -205.15 -91.15 -205.25 -91.5 -197.9 -117.4 -197.0 -88.25" fill="#eb0000" fill-rule="evenodd" stroke="none"/>
    <path d="M-300.65 -138.5 L-291.5 -97.9 -291.25 -95.9 -292.25 -77.75 -295.5 -42.0 -295.75 -40.5 -302.25 -30.5 -303.15 -51.5 -299.65 -94.15 -307.4 -138.15 -300.65 -138.5" fill="#bc0000" fill-rule="evenodd" stroke="none"/>
    <path d="M-221.9 -0.9 L-316.0 -0.9 -315.15 -2.65 -315.0 -3.15 -302.25 -27.9 -291.9 -25.15 -285.9 -24.65 -285.25 -24.5 -246.0 -21.4 -228.5 -21.9 -222.0 -1.5 -221.9 -0.9" fill="#a40000" fill-opacity="0.9098039" fill-rule="evenodd" stroke="none"/>
    <path d="M-204.0 -29.65 L-202.5 -24.15 -203.0 -24.5 -203.65 -26.15 -201.65 -18.5 -203.9 -22.4 -204.0 -22.65 -204.15 -22.9 -204.25 -23.15 -204.4 -23.4 -205.5 -25.75 -205.65 -26.0 -205.75 -26.25 -206.0 -26.65 -204.4 -28.25 -204.0 -29.65" fill="#fb0000" fill-rule="evenodd" stroke="none"/>
    <path d="M-205.5 -25.75 L-204.4 -23.4 -204.25 -23.15 -204.15 -22.9 -204.0 -22.65 -203.9 -22.4 -200.75 -15.4 -200.75 -15.25 -200.5 -14.9 -200.5 -14.75 -200.4 -14.4 -200.25 -14.25 -200.25 -14.0 -200.15 -13.75 -200.0 -13.15 -199.9 -12.9 -198.9 -8.75 -202.65 -16.9 -202.75 -17.0 -203.4 -18.75 -203.4 -18.9 -205.5 -25.75" fill="#dc0000" fill-rule="evenodd" stroke="none"/>
    <path d="M-203.9 -22.4 L-201.65 -18.5 -201.25 -17.65 -201.0 -16.5 -200.9 -16.5 -200.9 -16.4 -200.25 -15.5 -199.65 -14.0 -199.5 -12.65 -199.5 -12.4 -199.4 -12.0 -198.5 -9.9 -198.65 -9.0 -198.0 -6.9 -198.4 -7.65 -198.5 -7.75 -198.65 -8.15 -198.65 -8.25 -198.9 -8.65 -198.9 -8.75 -199.9 -12.9 -200.0 -13.15 -200.15 -13.75 -200.25 -14.0 -200.25 -14.25 -200.4 -14.4 -200.5 -14.75 -200.5 -14.9 -200.75 -15.25 -200.75 -15.4 -203.9 -22.4" fill="#df0000" fill-rule="evenodd" stroke="none"/>
    <path d="M-202.5 -24.15 L-201.0 -19.4 -200.25 -15.5 -200.9 -16.4 -200.9 -16.5 -201.0 -16.5 -201.25 -17.65 -201.65 -18.5 -203.65 -26.15 -203.0 -24.5 -202.5 -24.15" fill="#fe0000" fill-rule="evenodd" stroke="none"/>
    <path d="M-201.0 -19.4 L-197.25 -9.65 -199.65 -14.0 -200.25 -15.5 -201.0 -19.4" fill="#ff0000" fill-rule="evenodd" stroke="none"/>
    <path d="M-197.25 -9.65 L-193.0 -0.9 -195.4 -0.9 -196.25 -2.5 -198.0 -6.9 -198.65 -9.0 -198.5 -9.9 -199.4 -12.0 -199.5 -12.4 -199.5 -12.65 -199.65 -14.0 -197.25 -9.65" fill="#e00000" fill-rule="evenodd" stroke="none"/>
  </g>
  <defs>
    <radialGradient cx="0" cy="0" gradientTransform="matrix(0.1747, 0.0, 0.0, 0.1747, -183.3, -280.05)" gradientUnits="userSpaceOnUse" id="gradient0" r="819.2" spreadMethod="pad">
      <stop offset="0.0" stop-color="#5a5a5a"/>
      <stop offset="1.0" stop-color="#161616"/>
    </radialGradient>
    <radialGradient cx="0" cy="0" gradientTransform="matrix(0.095, 0.0, 0.0, 0.095, -231.5, -275.05)" gradientUnits="userSpaceOnUse" id="gradient1" r="819.2" spreadMethod="pad">
      <stop offset="0.0" stop-color="#7d7d7d"/>
      <stop offset="1.0" stop-color="#282828"/>
    </radialGradient>
    <radialGradient cx="0" cy="0" gradientTransform="matrix(0.0472, 0.0, 0.0, 0.0472, -258.35, -255.25)" gradientUnits="userSpaceOnUse" id="gradient2" r="819.2" spreadMethod="pad">
      <stop offset="0.0" stop-color="#1a1a1a"/>
      <stop offset="1.0" stop-color="#000000"/>
    </radialGradient>
    <radialGradient cx="0" cy="0" gradientTransform="matrix(0.0192, 0.0, 0.0, 0.0192, -234.4, -263.05)" gradientUnits="userSpaceOnUse" id="gradient3" r="819.2" spreadMethod="pad">
      <stop offset="0.0" stop-color="#797979"/>
      <stop offset="1.0" stop-color="#000000"/>
    </radialGradient>
    <radialGradient cx="0" cy="0" gradientTransform="matrix(0.2803, 0.0, 0.0, 0.2803, -221.55, -251.0)" gradientUnits="userSpaceOnUse" id="gradient4" r="819.2" spreadMethod="pad">
      <stop offset="0.0" stop-color="#101010"/>
      <stop offset="1.0" stop-color="#000000"/>
    </radialGradient>
    <radialGradient cx="0" cy="0" gradientTransform="matrix(0.0114, 0.0, 0.0, 0.0114, -247.1, -300.0)" gradientUnits="userSpaceOnUse" id="gradient5" r="819.2" spreadMethod="pad">
      <stop offset="0.0" stop-color="#ff3030"/>
      <stop offset="1.0" stop-color="#501818"/>
    </radialGradient>
    <radialGradient cx="0" cy="0" gradientTransform="matrix(0.009, 0.0, 0.0, 0.009, -247.8, -299.85)" gradientUnits="userSpaceOnUse" id="gradient6" r="819.2" spreadMethod="pad">
      <stop offset="0.0" stop-color="#ff3030"/>
      <stop offset="1.0" stop-color="#ff2e2e"/>
    </radialGradient>
    <radialGradient cx="0" cy="0" gradientTransform="matrix(0.0693, 0.0, 0.0, 0.0693, -149.6, -290.0)" gradientUnits="userSpaceOnUse" id="gradient7" r="819.2" spreadMethod="pad">
      <stop offset="0.0" stop-color="#3b3b3b"/>
      <stop offset="1.0" stop-color="#202020"/>
    </radialGradient>
    <radialGradient cx="0" cy="0" gradientTransform="matrix(0.0357, 0.0, 0.0, 0.0357, -319.45, -300.0)" gradientUnits="userSpaceOnUse" id="gradient8" r="819.2" spreadMethod="pad">
      <stop offset="0.0" stop-color="#323232"/>
      <stop offset="1.0" stop-color="#2a2a2a"/>
    </radialGradient>
    <radialGradient cx="0" cy="0" gradientTransform="matrix(0.018, 0.0, 0.0, 0.018, -318.7, -283.1)" gradientUnits="userSpaceOnUse" id="gradient9" r="819.2" spreadMethod="pad">
      <stop offset="0.0" stop-color="#262626"/>
      <stop offset="1.0" stop-color="#1c1c1c"/>
    </radialGradient>
    <radialGradient cx="0" cy="0" gradientTransform="matrix(0.004, 0.0, 0.0, 0.004, -12.3, -263.55)" gradientUnits="userSpaceOnUse" id="gradient10" r="819.2" spreadMethod="pad">
      <stop offset="0.0" stop-color="#262626"/>
      <stop offset="1.0" stop-color="#262626"/>
    </radialGradient>
    <radialGradient cx="0" cy="0" gradientTransform="matrix(0.0192, 0.0, 0.0, 0.0192, -13.8, -257.55)" gradientUnits="userSpaceOnUse" id="gradient11" r="819.2" spreadMethod="pad">
      <stop offset="0.0" stop-color="#040404"/>
      <stop offset="1.0" stop-color="#040404"/>
    </radialGradient>
    <radialGradient cx="0" cy="0" gradientTransform="matrix(0.0086, 0.0, 0.0, 0.0086, -1.0, -255.25)" gradientUnits="userSpaceOnUse" id="gradient12" r="819.2" spreadMethod="pad">
      <stop offset="0.0" stop-color="#020202"/>
      <stop offset="1.0" stop-color="#020202"/>
    </radialGradient>
    <radialGradient cx="0" cy="0" gradientTransform="matrix(0.0149, 0.0, 0.0, 0.0149, -12.75, -244.95)" gradientUnits="userSpaceOnUse" id="gradient13" r="819.2" spreadMethod="pad">
      <stop offset="0.0" stop-color="#040404"/>
      <stop offset="1.0" stop-color="#040404"/>
    </radialGradient>
    <radialGradient cx="0" cy="0" gradientTransform="matrix(0.0235, 0.0, 0.0, 0.0235, -8.9, -238.25)" gradientUnits="userSpaceOnUse" id="gradient14" r="819.2" spreadMethod="pad">
      <stop offset="0.0" stop-color="#040404"/>
      <stop offset="1.0" stop-color="#040404"/>
    </radialGradient>
    <radialGradient cx="0" cy="0" gradientTransform="matrix(0.0072, 0.0, 0.0, 0.0072, -12.9, -260.6)" gradientUnits="userSpaceOnUse" id="gradient15" r="819.2" spreadMethod="pad">
      <stop offset="0.0" stop-color="#303030"/>
      <stop offset="1.0" stop-color="#303030"/>
    </radialGradient>
    <radialGradient cx="0" cy="0" gradientTransform="matrix(0.021, 0.0, 0.0, 0.021, -11.7, -261.7)" gradientUnits="userSpaceOnUse" id="gradient16" r="819.2" spreadMethod="pad">
      <stop offset="0.0" stop-color="#171717"/>
      <stop offset="1.0" stop-color="#171717"/>
    </radialGradient>
    <radialGradient cx="0" cy="0" gradientTransform="matrix(0.004, 0.0, 0.0, 0.004, -11.7, -261.7)" gradientUnits="userSpaceOnUse" id="gradient17" r="819.2" spreadMethod="pad">
      <stop offset="0.0" stop-color="#828282"/>
      <stop offset="1.0" stop-color="#818181"/>
    </radialGradient>
    <radialGradient cx="0" cy="0" gradientTransform="matrix(0.0083, 0.0, 0.0, 0.0083, -12.05, -261.2)" gradientUnits="userSpaceOnUse" id="gradient18" r="819.2" spreadMethod="pad">
      <stop offset="0.0" stop-color="#828282"/>
      <stop offset="1.0" stop-color="#808080"/>
    </radialGradient>
    <radialGradient cx="0" cy="0" gradientTransform="matrix(0.007, 0.0, 0.0, 0.007, -16.05, -254.35)" gradientUnits="userSpaceOnUse" id="gradient19" r="819.2" spreadMethod="pad">
      <stop offset="0.0" stop-color="#171717"/>
      <stop offset="1.0" stop-color="#171717"/>
    </radialGradient>
    <radialGradient cx="0" cy="0" gradientTransform="matrix(0.0161, 0.0, 0.0, 0.0161, -14.1, -244.7)" gradientUnits="userSpaceOnUse" id="gradient20" r="819.2" spreadMethod="pad">
      <stop offset="0.0" stop-color="#020202"/>
      <stop offset="1.0" stop-color="#020202"/>
    </radialGradient>
    <radialGradient cx="0" cy="0" gradientTransform="matrix(0.0109, 0.0, 0.0, 0.0109, -7.9, -254.9)" gradientUnits="userSpaceOnUse" id="gradient21" r="819.2" spreadMethod="pad">
      <stop offset="0.0" stop-color="#020202"/>
      <stop offset="1.0" stop-color="#020202"/>
    </radialGradient>
    <radialGradient cx="0" cy="0" gradientTransform="matrix(0.0094, 0.0, 0.0, 0.0094, -6.0, -254.45)" gradientUnits="userSpaceOnUse" id="gradient22" r="819.2" spreadMethod="pad">
      <stop offset="0.0" stop-color="#020202"/>
      <stop offset="1.0" stop-color="#020202"/>
    </radialGradient>
    <radialGradient cx="0" cy="0" gradientTransform="matrix(0.0088, 0.0, 0.0, 0.0088, -3.15, -254.6)" gradientUnits="userSpaceOnUse" id="gradient23" r="819.2" spreadMethod="pad">
      <stop offset="0.0" stop-color="#020202"/>
      <stop offset="1.0" stop-color="#020202"/>
    </radialGradient>
    <radialGradient cx="0" cy="0" gradientTransform="matrix(0.0131, 0.0, 0.0, 0.0131, -21.7, -255.2)" gradientUnits="userSpaceOnUse" id="gradient24" r="819.2" spreadMethod="pad">
      <stop offset="0.0" stop-color="#303030"/>
      <stop offset="1.0" stop-color="#232323"/>
    </radialGradient>
    <radialGradient cx="0" cy="0" gradientTransform="matrix(0.0035, 0.0, 0.0, 0.0035, -17.95, -246.0)" gradientUnits="userSpaceOnUse" id="gradient25" r="819.2" spreadMethod="pad">
      <stop offset="0.0" stop-color="#202020"/>
      <stop offset="1.0" stop-color="#202020"/>
    </radialGradient>
    <radialGradient cx="0" cy="0" gradientTransform="matrix(0.0088, 0.0, 0.0, 0.0088, -221.7, -247.3)" gradientUnits="userSpaceOnUse" id="gradient26" r="819.2" spreadMethod="pad">
      <stop offset="0.0" stop-color="#7b7b7b"/>
      <stop offset="1.0" stop-color="#1b1b1b"/>
    </radialGradient>
    <radialGradient cx="0" cy="0" gradientTransform="matrix(0.0354, 0.0, 0.0, 0.0354, -227.0, -245.4)" gradientUnits="userSpaceOnUse" id="gradient27" r="819.2" spreadMethod="pad">
      <stop offset="0.0" stop-color="#000000"/>
      <stop offset="1.0" stop-color="#000000"/>
    </radialGradient>
    <radialGradient cx="0" cy="0" gradientTransform="matrix(0.1471, 0.0, 0.0, 0.1471, -279.6, -136.5)" gradientUnits="userSpaceOnUse" id="gradient28" r="819.2" spreadMethod="pad">
      <stop offset="0.0" stop-color="#6a6a6a"/>
      <stop offset="1.0" stop-color="#000000"/>
    </radialGradient>
    <radialGradient cx="0" cy="0" gradientTransform="matrix(0.0033, 0.0, 0.0, 0.0033, -16.25, -245.05)" gradientUnits="userSpaceOnUse" id="gradient29" r="819.2" spreadMethod="pad">
      <stop offset="0.0" stop-color="#060606"/>
      <stop offset="1.0" stop-color="#020202"/>
    </radialGradient>
    <radialGradient cx="0" cy="0" gradientTransform="matrix(0.0035, 0.0, 0.0, 0.0035, -13.2, -244.75)" gradientUnits="userSpaceOnUse" id="gradient30" r="819.2" spreadMethod="pad">
      <stop offset="0.0" stop-color="#171717"/>
      <stop offset="1.0" stop-color="#171717"/>
    </radialGradient>
    <radialGradient cx="0" cy="0" gradientTransform="matrix(0.0483, 0.0, 0.0, 0.0483, -266.25, -243.55)" gradientUnits="userSpaceOnUse" id="gradient31" r="819.2" spreadMethod="pad">
      <stop offset="0.0" stop-color="#000000"/>
      <stop offset="1.0" stop-color="#000000"/>
    </radialGradient>
    <radialGradient cx="0" cy="0" gradientTransform="matrix(0.0743, 0.0, 0.0, 0.0743, -297.1, -191.0)" gradientUnits="userSpaceOnUse" id="gradient32" r="819.2" spreadMethod="pad">
      <stop offset="0.0" stop-color="#171717"/>
      <stop offset="1.0" stop-color="#000000"/>
    </radialGradient>
    <radialGradient cx="0" cy="0" gradientTransform="matrix(0.1198, 0.0, 0.0, 0.1198, -275.1, -165.65)" gradientUnits="userSpaceOnUse" id="gradient33" r="819.2" spreadMethod="pad">
      <stop offset="0.0" stop-color="#010101"/>
      <stop offset="1.0" stop-color="#000000"/>
    </radialGradient>
    <radialGradient cx="0" cy="0" gradientTransform="matrix(0.0754, 0.0, 0.0, 0.0754, -181.8, -195.35)" gradientUnits="userSpaceOnUse" id="gradient34" r="819.2" spreadMethod="pad">
      <stop offset="0.0" stop-color="#595959"/>
      <stop offset="1.0" stop-color="#000000"/>
    </radialGradient>
    <radialGradient cx="0" cy="0" gradientTransform="matrix(0.1067, 0.0, 0.0, 0.1067, -190.6, -160.75)" gradientUnits="userSpaceOnUse" id="gradient35" r="819.2" spreadMethod="pad">
      <stop offset="0.0" stop-color="#3f3f3f"/>
      <stop offset="1.0" stop-color="#000000"/>
    </radialGradient>
    <radialGradient cx="0" cy="0" gradientTransform="matrix(0.0808, 0.0, 0.0, 0.0808, -238.85, -144.9)" gradientUnits="userSpaceOnUse" id="gradient36" r="819.2" spreadMethod="pad">
      <stop offset="0.0" stop-color="#878787"/>
      <stop offset="1.0" stop-color="#000000"/>
    </radialGradient>
    <radialGradient cx="0" cy="0" gradientTransform="matrix(0.1423, 0.0, 0.0, 0.1423, -279.6, -136.5)" gradientUnits="userSpaceOnUse" id="gradient37" r="819.2" spreadMethod="pad">
      <stop offset="0.0" stop-color="#6a6a6a"/>
      <stop offset="1.0" stop-color="#000000"/>
    </radialGradient>
    <radialGradient cx="0" cy="0" gradientTransform="matrix(0.0801, 0.0, 0.0, 0.0801, -291.95, -149.15)" gradientUnits="userSpaceOnUse" id="gradient38" r="819.2" spreadMethod="pad">
      <stop offset="0.0" stop-color="#858585"/>
      <stop offset="1.0" stop-color="#000000"/>
    </radialGradient>
    <radialGradient cx="0" cy="0" gradientTransform="matrix(0.0435, 0.0, 0.0, 0.0435, -187.05, -234.9)" gradientUnits="userSpaceOnUse" id="gradient39" r="819.2" spreadMethod="pad">
      <stop offset="0.0" stop-color="#000000"/>
      <stop offset="1.0" stop-color="#000000"/>
    </radialGradient>
    <radialGradient cx="0" cy="0" gradientTransform="matrix(0.0182, 0.0, 0.0, 0.0182, -183.3, -220.5)" gradientUnits="userSpaceOnUse" id="gradient40" r="819.2" spreadMethod="pad">
      <stop offset="0.0" stop-color="#000000"/>
      <stop offset="1.0" stop-color="#000000"/>
    </radialGradient>
    <radialGradient cx="0" cy="0" gradientTransform="matrix(0.0865, 0.0, 0.0, 0.0865, -161.55, -189.95)" gradientUnits="userSpaceOnUse" id="gradient41" r="819.2" spreadMethod="pad">
      <stop offset="0.0" stop-color="#616161"/>
      <stop offset="1.0" stop-color="#000000"/>
    </radialGradient>
    <radialGradient cx="0" cy="0" gradientTransform="matrix(0.0286, 0.0, 0.0, 0.0286, -2.5, -232.1)" gradientUnits="userSpaceOnUse" id="gradient42" r="819.2" spreadMethod="pad">
      <stop offset="0.0" stop-color="#030303"/>
      <stop offset="1.0" stop-color="#030303"/>
    </radialGradient>
    <radialGradient cx="0" cy="0" gradientTransform="matrix(0.0158, 0.0, 0.0, 0.0158, -27.25, -235.15)" gradientUnits="userSpaceOnUse" id="gradient43" r="819.2" spreadMethod="pad">
      <stop offset="0.0" stop-color="#040404"/>
      <stop offset="1.0" stop-color="#040404"/>
    </radialGradient>
    <radialGradient cx="0" cy="0" gradientTransform="matrix(0.0161, 0.0, 0.0, 0.0161, -26.8, -235.2)" gradientUnits="userSpaceOnUse" id="gradient44" r="819.2" spreadMethod="pad">
      <stop offset="0.0" stop-color="#030303"/>
      <stop offset="1.0" stop-color="#030303"/>
    </radialGradient>
    <radialGradient cx="0" cy="0" gradientTransform="matrix(0.0126, 0.0, 0.0, 0.0126, -8.15, -232.7)" gradientUnits="userSpaceOnUse" id="gradient45" r="819.2" spreadMethod="pad">
      <stop offset="0.0" stop-color="#1f1f1f"/>
      <stop offset="1.0" stop-color="#040404"/>
    </radialGradient>
    <radialGradient cx="0" cy="0" gradientTransform="matrix(0.0109, 0.0, 0.0, 0.0109, -8.05, -227.15)" gradientUnits="userSpaceOnUse" id="gradient46" r="819.2" spreadMethod="pad">
      <stop offset="0.0" stop-color="#2d2d2d"/>
      <stop offset="1.0" stop-color="#2b2b2b"/>
    </radialGradient>
    <radialGradient cx="0" cy="0" gradientTransform="matrix(0.0031, 0.0, 0.0, 0.0031, -25.6, -238.0)" gradientUnits="userSpaceOnUse" id="gradient47" r="819.2" spreadMethod="pad">
      <stop offset="0.0" stop-color="#313131"/>
      <stop offset="1.0" stop-color="#303030"/>
    </radialGradient>
    <radialGradient cx="0" cy="0" gradientTransform="matrix(0.0027, 0.0, 0.0, 0.0027, -27.35, -236.25)" gradientUnits="userSpaceOnUse" id="gradient48" r="819.2" spreadMethod="pad">
      <stop offset="0.0" stop-color="#262626"/>
      <stop offset="1.0" stop-color="#262626"/>
    </radialGradient>
    <radialGradient cx="0" cy="0" gradientTransform="matrix(0.0539, 0.0, 0.0, 0.0539, -297.1, -191.0)" gradientUnits="userSpaceOnUse" id="gradient49" r="819.2" spreadMethod="pad">
      <stop offset="0.0" stop-color="#171717"/>
      <stop offset="1.0" stop-color="#000000"/>
    </radialGradient>
    <radialGradient cx="0" cy="0" gradientTransform="matrix(0.0909, 0.0, 0.0, 0.0909, -345.55, -164.3)" gradientUnits="userSpaceOnUse" id="gradient50" r="819.2" spreadMethod="pad">
      <stop offset="0.0" stop-color="#6a6a6a"/>
      <stop offset="1.0" stop-color="#000000"/>
    </radialGradient>
    <radialGradient cx="0" cy="0" gradientTransform="matrix(0.0301, 0.0, 0.0, 0.0301, -305.2, -229.2)" gradientUnits="userSpaceOnUse" id="gradient51" r="819.2" spreadMethod="pad">
      <stop offset="0.0" stop-color="#0d0d0d"/>
      <stop offset="1.0" stop-color="#000000"/>
    </radialGradient>
    <radialGradient cx="0" cy="0" gradientTransform="matrix(0.1182, 0.0, 0.0, 0.1182, -385.25, -174.75)" gradientUnits="userSpaceOnUse" id="gradient52" r="819.2" spreadMethod="pad">
      <stop offset="0.0" stop-color="#262626"/>
      <stop offset="1.0" stop-color="#040404"/>
    </radialGradient>
    <radialGradient cx="0" cy="0" gradientTransform="matrix(0.0694, 0.0, 0.0, 0.0694, -142.15, -207.75)" gradientUnits="userSpaceOnUse" id="gradient53" r="819.2" spreadMethod="pad">
      <stop offset="0.0" stop-color="#000000"/>
      <stop offset="1.0" stop-color="#000000"/>
    </radialGradient>
    <radialGradient cx="0" cy="0" gradientTransform="matrix(0.0274, 0.0, 0.0, 0.0274, -90.9, -184.3)" gradientUnits="userSpaceOnUse" id="gradient54" r="819.2" spreadMethod="pad">
      <stop offset="0.0" stop-color="#000000"/>
      <stop offset="1.0" stop-color="#000000"/>
    </radialGradient>
    <radialGradient cx="0" cy="0" gradientTransform="matrix(0.0705, 0.0, 0.0, 0.0705, -50.05, -193.45)" gradientUnits="userSpaceOnUse" id="gradient55" r="819.2" spreadMethod="pad">
      <stop offset="0.0" stop-color="#000000"/>
      <stop offset="1.0" stop-color="#000000"/>
    </radialGradient>
    <radialGradient cx="0" cy="0" gradientTransform="matrix(0.0601, 0.0, 0.0, 0.0601, -1.0, -189.3)" gradientUnits="userSpaceOnUse" id="gradient56" r="819.2" spreadMethod="pad">
      <stop offset="0.0" stop-color="#020202"/>
      <stop offset="1.0" stop-color="#000000"/>
    </radialGradient>
    <radialGradient cx="0" cy="0" gradientTransform="matrix(0.0251, 0.0, 0.0, 0.0251, -50.05, -193.45)" gradientUnits="userSpaceOnUse" id="gradient57" r="819.2" spreadMethod="pad">
      <stop offset="0.0" stop-color="#000000"/>
      <stop offset="1.0" stop-color="#000000"/>
    </radialGradient>
    <radialGradient cx="0" cy="0" gradientTransform="matrix(0.0664, 0.0, 0.0, 0.0664, -62.4, -155.8)" gradientUnits="userSpaceOnUse" id="gradient58" r="819.2" spreadMethod="pad">
      <stop offset="0.0" stop-color="#161616"/>
      <stop offset="1.0" stop-color="#000000"/>
    </radialGradient>
    <radialGradient cx="0" cy="0" gradientTransform="matrix(0.0239, 0.0, 0.0, 0.0239, -181.8, -195.35)" gradientUnits="userSpaceOnUse" id="gradient59" r="819.2" spreadMethod="pad">
      <stop offset="0.0" stop-color="#595959"/>
      <stop offset="1.0" stop-color="#000000"/>
    </radialGradient>
    <radialGradient cx="0" cy="0" gradientTransform="matrix(0.1275, 0.0, 0.0, 0.1275, -208.85, -37.3)" gradientUnits="userSpaceOnUse" id="gradient60" r="819.2" spreadMethod="pad">
      <stop offset="0.0" stop-color="#666666"/>
      <stop offset="1.0" stop-color="#0e0e0e"/>
    </radialGradient>
    <radialGradient cx="0" cy="0" gradientTransform="matrix(0.0659, 0.0, 0.0, 0.0659, -386.6, -117.0)" gradientUnits="userSpaceOnUse" id="gradient61" r="819.2" spreadMethod="pad">
      <stop offset="0.0" stop-color="#393939"/>
      <stop offset="1.0" stop-color="#000000"/>
    </radialGradient>
    <radialGradient cx="0" cy="0" gradientTransform="matrix(0.0213, 0.0, 0.0, 0.0213, -400.0, -157.45)" gradientUnits="userSpaceOnUse" id="gradient62" r="819.2" spreadMethod="pad">
      <stop offset="0.0" stop-color="#070707"/>
      <stop offset="1.0" stop-color="#000000"/>
    </radialGradient>
    <radialGradient cx="0" cy="0" gradientTransform="matrix(0.0278, 0.0, 0.0, 0.0278, -385.25, -174.75)" gradientUnits="userSpaceOnUse" id="gradient63" r="819.2" spreadMethod="pad">
      <stop offset="0.0" stop-color="#262626"/>
      <stop offset="1.0" stop-color="#080808"/>
    </radialGradient>
    <radialGradient cx="0" cy="0" gradientTransform="matrix(0.0408, 0.0, 0.0, 0.0408, -62.4, -155.8)" gradientUnits="userSpaceOnUse" id="gradient64" r="819.2" spreadMethod="pad">
      <stop offset="0.0" stop-color="#161616"/>
      <stop offset="1.0" stop-color="#000000"/>
    </radialGradient>
    <radialGradient cx="0" cy="0" gradientTransform="matrix(0.0961, 0.0, 0.0, 0.0961, -350.85, -72.1)" gradientUnits="userSpaceOnUse" id="gradient65" r="819.2" spreadMethod="pad">
      <stop offset="0.0" stop-color="#505050"/>
      <stop offset="1.0" stop-color="#2a2a2a"/>
    </radialGradient>
    <radialGradient cx="0" cy="0" gradientTransform="matrix(0.0373, 0.0, 0.0, 0.0373, -312.7, -62.3)" gradientUnits="userSpaceOnUse" id="gradient66" r="819.2" spreadMethod="pad">
      <stop offset="0.0" stop-color="#858585"/>
      <stop offset="1.0" stop-color="#2c2c2c"/>
    </radialGradient>
    <radialGradient cx="0" cy="0" gradientTransform="matrix(0.0701, 0.0, 0.0, 0.0701, -350.85, -72.1)" gradientUnits="userSpaceOnUse" id="gradient67" r="819.2" spreadMethod="pad">
      <stop offset="0.0" stop-color="#505050"/>
      <stop offset="1.0" stop-color="#131313"/>
    </radialGradient>
    <radialGradient cx="0" cy="0" gradientTransform="matrix(0.0594, 0.0, 0.0, 0.0594, -327.4, -84.05)" gradientUnits="userSpaceOnUse" id="gradient68" r="819.2" spreadMethod="pad">
      <stop offset="0.0" stop-color="#3a3a3a"/>
      <stop offset="1.0" stop-color="#000000"/>
    </radialGradient>
    <radialGradient cx="0" cy="0" gradientTransform="matrix(0.0266, 0.0, 0.0, 0.0266, -351.6, -113.8)" gradientUnits="userSpaceOnUse" id="gradient69" r="819.2" spreadMethod="pad">
      <stop offset="0.0" stop-color="#292929"/>
      <stop offset="1.0" stop-color="#000000"/>
    </radialGradient>
    <radialGradient cx="0" cy="0" gradientTransform="matrix(0.0449, 0.0, 0.0, 0.0449, -351.6, -113.8)" gradientUnits="userSpaceOnUse" id="gradient70" r="819.2" spreadMethod="pad">
      <stop offset="0.0" stop-color="#292929"/>
      <stop offset="1.0" stop-color="#010101"/>
    </radialGradient>
    <radialGradient cx="0" cy="0" gradientTransform="matrix(0.02, 0.0, 0.0, 0.02, -365.7, -147.75)" gradientUnits="userSpaceOnUse" id="gradient71" r="819.2" spreadMethod="pad">
      <stop offset="0.0" stop-color="#010101"/>
      <stop offset="1.0" stop-color="#000000"/>
    </radialGradient>
    <radialGradient cx="0" cy="0" gradientTransform="matrix(0.0735, 0.0, 0.0, 0.0735, -291.2, -96.0)" gradientUnits="userSpaceOnUse" id="gradient72" r="819.2" spreadMethod="pad">
      <stop offset="0.0" stop-color="#838383"/>
      <stop offset="1.0" stop-color="#212121"/>
    </radialGradient>
    <radialGradient cx="0" cy="0" gradientTransform="matrix(0.0513, 0.0, 0.0, 0.0513, -309.4, -1.0)" gradientUnits="userSpaceOnUse" id="gradient73" r="819.2" spreadMethod="pad">
      <stop offset="0.0" stop-color="#5c5c5c"/>
      <stop offset="1.0" stop-color="#1d1d1d"/>
    </radialGradient>
    <radialGradient cx="0" cy="0" gradientTransform="matrix(0.1069, 0.0, 0.0, 0.1069, -309.4, -1.0)" gradientUnits="userSpaceOnUse" id="gradient74" r="819.2" spreadMethod="pad">
      <stop offset="0.0" stop-color="#5c5c5c"/>
      <stop offset="1.0" stop-color="#000000"/>
    </radialGradient>
    <radialGradient cx="0" cy="0" gradientTransform="matrix(0.0562, 0.0, 0.0, 0.0562, -195.3, -1.0)" gradientUnits="userSpaceOnUse" id="gradient75" r="819.2" spreadMethod="pad">
      <stop offset="0.0" stop-color="#191919"/>
      <stop offset="1.0" stop-color="#000000"/>
    </radialGradient>
    <radialGradient cx="0" cy="0" gradientTransform="matrix(0.0447, 0.0, 0.0, 0.0447, -197.1, -1.45)" gradientUnits="userSpaceOnUse" id="gradient76" r="819.2" spreadMethod="pad">
      <stop offset="0.0" stop-color="#565656"/>
      <stop offset="1.0" stop-color="#3f3f3f"/>
    </radialGradient>
    <radialGradient cx="0" cy="0" gradientTransform="matrix(0.0427, 0.0, 0.0, 0.0427, -208.85, -37.3)" gradientUnits="userSpaceOnUse" id="gradient77" r="819.2" spreadMethod="pad">
      <stop offset="0.0" stop-color="#666666"/>
      <stop offset="1.0" stop-color="#5a5a5a"/>
    </radialGradient>
  </defs>
</svg>
