<?xml version="1.0" encoding="UTF-8" standalone="no"?>
<svg xmlns:xlink="http://www.w3.org/1999/xlink" height="299.1px" width="399.1px" xmlns="http://www.w3.org/2000/svg">
  <g transform="matrix(1.0, 0.0, 0.0, 1.0, 400.0, 300.0)">
    <path d="M-258.5 -250.15 L-258.9 -250.5 -280.9 -249.65 -301.0 -263.5 -302.4 -264.75 -311.9 -277.75 -310.4 -276.75 -310.0 -276.75 -310.15 -277.15 -316.0 -286.25 -309.15 -278.15 -315.9 -292.5 -314.9 -300.0 -302.9 -300.0 Q-299.0 -287.75 -289.25 -276.75 L-276.65 -265.75 -271.4 -261.75 -260.75 -256.15 -256.25 -254.5 -256.4 -251.4 -256.65 -251.15 -258.5 -250.15 M-181.15 -248.25 L-181.4 -248.0 -188.4 -248.15 -194.15 -249.4 -203.0 -242.75 -206.65 -243.5 -209.9 -245.25 -213.25 -245.15 -216.15 -245.75 -216.4 -245.75 -218.5 -246.9 -218.65 -250.65 -218.65 -251.15 -213.65 -252.0 -201.15 -256.4 -192.5 -261.15 -183.0 -267.4 -173.65 -277.0 -170.15 -282.4 -169.9 -276.15 -162.9 -276.15 -167.5 -265.15 -168.0 -264.65 -168.65 -262.4 -176.65 -253.9 -181.15 -248.25 M-169.5 -276.9 L-163.4 -293.15 -163.0 -293.4 -156.5 -287.65 -169.25 -276.5 -169.5 -276.9" fill="url(#gradient0)" fill-rule="evenodd" stroke="none"/>
    <path d="M-302.9 -300.0 L-170.4 -300.0 -170.15 -282.4 -173.65 -277.0 -183.0 -267.4 -192.5 -261.15 -201.15 -256.4 -213.65 -252.0 -218.65 -251.15 -218.75 -251.25 -218.5 -253.75 -219.0 -255.25 -221.5 -256.75 -224.9 -258.9 -225.25 -258.65 -224.65 -257.5 -227.0 -258.25 -230.0 -259.9 -233.75 -259.9 -241.15 -260.75 -244.5 -260.5 -250.5 -260.75 -252.0 -259.75 -255.9 -258.25 -256.15 -254.9 -256.25 -254.5 -260.75 -256.15 -271.4 -261.75 -276.65 -265.75 -289.25 -276.75 Q-299.0 -287.75 -302.9 -300.0" fill="url(#gradient1)" fill-rule="evenodd" stroke="none"/>
    <path d="M-256.25 -254.5 L-256.15 -254.9 -255.9 -258.25 -252.0 -259.75 -250.5 -260.75 -244.5 -260.5 -241.15 -260.75 -233.75 -259.9 -230.0 -259.9 -227.0 -258.25 -224.65 -257.5 -222.15 -253.5 -222.15 -251.15 -222.75 -249.0 Q-225.9 -250.75 -226.65 -250.25 L-256.65 -251.15 -256.4 -251.4 -256.25 -254.5" fill="url(#gradient2)" fill-rule="evenodd" stroke="none"/>
    <path d="M-224.65 -257.5 L-225.25 -258.65 -224.9 -258.9 -221.5 -256.75 -222.15 -253.5 -224.65 -257.5" fill="url(#gradient3)" fill-rule="evenodd" stroke="none"/>
    <path d="M-221.5 -256.75 L-219.0 -255.25 -218.5 -253.75 -218.75 -251.25 -219.0 -251.9 -219.15 -250.75 -219.15 -247.15 -221.65 -248.4 -222.15 -251.15 -222.15 -253.5 -221.5 -256.75" fill="url(#gradient4)" fill-rule="evenodd" stroke="none"/>
    <path d="M-170.4 -300.0 L-142.9 -300.0 -146.15 -290.0 -155.4 -273.25 -167.15 -259.4 -181.15 -248.25 -176.65 -253.9 -168.65 -262.4 -168.0 -264.65 -167.5 -265.15 -162.9 -276.15 -169.9 -276.15 -170.15 -282.4 -170.4 -300.0 M-169.5 -276.9 L-169.25 -276.5 -156.5 -287.65 -163.0 -293.4 -163.4 -293.15 -169.5 -276.9" fill="url(#gradient5)" fill-rule="evenodd" stroke="none"/>
    <path d="M-317.75 -288.4 L-317.9 -288.65 -322.9 -300.0 -314.9 -300.0 -315.9 -292.5 -309.15 -278.15 -316.0 -286.25 -316.15 -286.4 -317.25 -287.75 -317.5 -288.15 -317.75 -288.4" fill="url(#gradient6)" fill-rule="evenodd" stroke="none"/>
    <path d="M-311.9 -277.75 L-317.75 -288.4 -317.5 -288.15 -317.25 -287.75 -316.15 -286.4 -316.0 -286.25 -310.15 -277.15 -310.0 -276.75 -310.4 -276.75 -311.9 -277.75" fill="url(#gradient7)" fill-rule="evenodd" stroke="none"/>
    <path d="M-262.9 -247.5 L-258.5 -250.15 -256.65 -251.15 -226.65 -250.25 Q-225.9 -250.75 -222.75 -249.0 L-221.65 -248.4 -219.15 -247.15 -218.5 -246.9 -216.4 -245.75 -216.25 -245.4 -216.9 -245.5 -216.65 -245.0 -215.5 -243.9 -200.65 -211.5 -199.25 -203.25 Q-209.9 -214.25 -231.15 -211.4 -248.65 -208.25 -252.25 -193.75 L-251.75 -187.75 Q-253.25 -187.15 -254.75 -177.65 L-254.15 -169.5 -251.0 -162.75 Q-251.9 -161.65 -249.0 -153.25 L-243.65 -146.0 -240.25 -143.5 -229.9 -140.15 -222.65 -135.5 -221.25 -135.15 -272.75 -137.65 -283.9 -137.25 -281.9 -138.5 -280.4 -140.0 -279.65 -142.9 -276.9 -144.15 Q-275.15 -147.4 -270.5 -149.65 L-265.75 -156.25 -264.15 -163.4 -258.65 -172.0 -256.75 -180.0 -257.65 -188.4 Q-254.0 -194.4 -254.5 -195.4 -254.65 -202.75 -257.9 -207.25 L-262.65 -211.9 Q-267.15 -213.4 -269.15 -215.15 L-273.9 -216.4 -278.0 -216.5 -284.4 -215.75 -264.4 -245.15 -262.65 -245.4 -261.9 -247.0 -262.75 -246.9 -263.15 -246.9 -262.9 -247.4 -262.9 -247.5 M-211.5 -134.65 L-205.75 -136.65 -206.5 -134.5 -211.5 -134.65 M-290.5 -136.9 L-290.75 -137.4 -290.9 -138.0 -288.0 -137.0 -290.5 -136.9" fill="url(#gradient8)" fill-rule="evenodd" stroke="none"/>
    <path d="M-15.25 -255.15 L-15.15 -255.65 -15.5 -255.4 -15.4 -256.0 -14.75 -256.4 -14.9 -255.9 -14.25 -256.5 -15.15 -255.15 -14.0 -256.15 -15.2 -255.05 -15.25 -255.15 M-9.65 -248.65 L-14.25 -253.9 -14.4 -254.25 -14.0 -254.4 -13.15 -254.0 -13.25 -253.75 -12.0 -253.75 -12.4 -253.9 -12.25 -254.3 -12.5 -253.9 -13.0 -253.9 -12.65 -254.5 -12.25 -254.3 -12.15 -254.25 -11.9 -254.65 -10.65 -254.9 -11.75 -255.0 -11.0 -255.65 -11.75 -256.5 -11.5 -255.4 -12.0 -255.15 -11.9 -254.75 -13.9 -254.75 -12.4 -254.9 -12.25 -256.0 -12.75 -255.75 -12.65 -256.4 -13.0 -256.65 -10.15 -257.4 -11.0 -256.75 -8.0 -257.5 -8.9 -257.75 -8.0 -258.0 -7.9 -258.0 -8.0 -257.5 -8.15 -257.15 -8.25 -256.65 -8.4 -256.4 -8.4 -256.15 -8.65 -255.5 -9.65 -248.65 M-3.75 -266.5 L-2.25 -267.15 -0.9 -267.15 -0.9 -247.0 -1.15 -247.0 -1.9 -246.9 -2.15 -246.9 -1.4 -255.5 -2.25 -255.5 -2.65 -246.75 -2.65 -246.65 -6.0 -245.65 -6.4 -245.65 -6.9 -245.65 -5.65 -259.25 -4.25 -260.25 -3.9 -261.4 -4.15 -262.75 -4.75 -262.75 -4.4 -263.5 -3.25 -263.9 -3.15 -264.25 -3.75 -266.5 M-10.75 -252.65 L-11.25 -252.75 -11.15 -253.15 -13.0 -252.9 -10.75 -252.65 M-10.75 -255.4 L-10.4 -255.0 Q-9.8 -255.3 -9.25 -255.65 L-10.75 -255.4" fill="url(#gradient9)" fill-rule="evenodd" stroke="none"/>
    <path d="M-3.75 -266.5 L-3.15 -264.25 -3.25 -263.9 -4.4 -263.5 -6.0 -262.4 -6.75 -262.0 -7.15 -264.15 -3.75 -266.5" fill="url(#gradient10)" fill-rule="evenodd" stroke="none"/>
    <path d="M-4.4 -263.5 L-4.75 -262.75 -5.5 -262.25 -7.4 -260.75 -7.9 -260.75 -6.75 -261.9 -6.75 -262.0 -6.0 -262.4 -4.4 -263.5" fill="url(#gradient11)" fill-rule="evenodd" stroke="none"/>
    <path d="M-6.4 -245.65 L-6.0 -245.65 -2.65 -246.65 -2.65 -246.75 -2.25 -246.75 -1.9 -246.9 -1.15 -247.0 -0.9 -247.0 -0.9 -242.0 Q-3.25 -243.65 -4.75 -243.5 L-8.25 -243.5 -9.75 -241.75 -15.9 -240.25 -18.65 -239.0 -19.15 -238.15 -19.0 -237.5 -19.4 -237.4 -19.5 -238.5 -19.15 -238.75 -19.25 -239.15 -18.4 -239.65 -18.65 -239.9 -16.0 -242.0 -15.9 -242.15 -13.5 -243.65 -13.4 -243.65 -13.15 -243.9 -13.0 -243.9 -12.5 -244.25 -12.4 -244.25 -12.0 -244.5 -11.9 -244.65 -11.65 -244.75 -11.5 -244.9 -11.4 -244.9 -9.9 -245.65 -9.65 -245.4 -8.9 -245.25 -8.0 -245.25 -7.65 -245.25 -7.25 -245.4 -6.9 -245.5 -6.4 -245.65 M-0.9 -238.0 L-0.9 -237.25 Q-5.75 -241.4 -9.15 -240.15 L-9.65 -240.15 Q-7.5 -242.0 -0.9 -238.0" fill="url(#gradient12)" fill-rule="evenodd" stroke="none"/>
    <path d="M-6.9 -245.65 L-6.4 -245.65 -6.9 -245.5 -6.9 -245.65 M-2.15 -246.9 L-1.9 -246.9 -2.25 -246.75 -2.15 -246.9" fill="url(#gradient13)" fill-rule="evenodd" stroke="none"/>
    <path d="M-2.65 -246.75 L-2.25 -255.5 -1.4 -255.5 -2.15 -246.9 -2.25 -246.75 -2.65 -246.75" fill="url(#gradient14)" fill-rule="evenodd" stroke="none"/>
    <path d="M-4.75 -262.75 L-4.15 -262.75 -3.9 -261.4 -4.25 -260.25 -5.65 -259.25 -6.9 -245.65 -6.9 -245.5 -7.25 -245.4 -7.75 -245.4 -7.25 -255.25 -7.5 -256.9 -7.15 -257.65 -7.4 -258.4 -5.5 -262.25 -4.75 -262.75" fill="url(#gradient15)" fill-rule="evenodd" stroke="none"/>
    <path d="M-7.9 -260.75 L-7.4 -260.75 -5.5 -262.25 -7.4 -258.4 -8.0 -258.0 -8.9 -257.75 -9.5 -257.5 -10.15 -257.4 -9.15 -259.5 -7.9 -260.75" fill="url(#gradient16)" fill-rule="evenodd" stroke="none"/>
    <path d="M-15.5 -255.25 L-15.5 -255.4 -15.15 -255.65 -15.25 -255.15 -15.5 -255.25 M-14.25 -253.9 L-15.25 -255.0 -15.2 -255.05 -14.0 -256.15 -15.15 -255.15 -14.25 -256.5 -14.9 -255.9 -14.75 -256.4 -14.25 -256.75 -13.0 -256.65 -12.65 -256.4 -12.75 -255.75 -12.25 -256.0 -12.4 -254.9 -13.9 -254.75 -11.9 -254.75 -12.0 -255.15 -11.5 -255.4 -11.75 -256.5 -11.0 -255.65 -11.75 -255.0 -10.65 -254.9 -11.9 -254.65 -12.15 -254.25 -12.25 -254.3 -12.65 -254.5 -13.0 -253.9 -12.5 -253.9 -12.25 -254.3 -12.4 -253.9 -12.0 -253.75 -13.25 -253.75 -13.15 -254.0 -14.0 -254.4 -14.4 -254.25 -14.25 -253.9 M-10.15 -257.4 L-9.5 -257.5 -8.9 -257.75 -8.0 -257.5 -11.0 -256.75 -10.15 -257.4 M-10.75 -255.4 L-9.25 -255.65 Q-9.8 -255.3 -10.4 -255.0 L-10.75 -255.4 M-10.75 -252.65 L-13.0 -252.9 -11.15 -253.15 -11.25 -252.75 -10.75 -252.65" fill="url(#gradient17)" fill-rule="evenodd" stroke="none"/>
    <path d="M-9.65 -248.25 L-9.65 -248.65 -8.65 -255.5 -8.4 -256.15 -8.4 -256.4 -8.25 -256.65 -8.15 -257.15 -8.0 -257.5 -7.9 -258.0 -8.0 -258.0 -7.4 -258.4 -7.15 -257.65 -7.5 -256.9 -7.25 -255.25 -7.75 -245.4 -8.0 -245.25 -8.9 -245.25 -9.65 -245.4 -9.9 -245.65 -9.65 -248.25" fill="url(#gradient18)" fill-rule="evenodd" stroke="none"/>
    <path d="M-15.5 -255.4 L-16.75 -254.5 -15.5 -255.25 -15.25 -255.15 -15.2 -255.05 -15.25 -255.0 -14.25 -253.9 -9.65 -248.65 -9.65 -248.25 -12.9 -246.4 -18.4 -253.0 -18.5 -253.15 -18.5 -253.25 -17.9 -254.4 -15.4 -256.0 -15.5 -255.4" fill="url(#gradient19)" fill-rule="evenodd" stroke="none"/>
    <path d="M-12.9 -246.4 L-9.65 -248.25 -9.9 -245.65 -11.4 -244.9 -11.5 -244.9 -11.65 -244.75 -11.9 -244.65 -12.0 -244.5 -12.4 -244.25 -12.5 -244.25 -12.9 -244.15 -13.15 -243.9 -12.9 -246.4" fill="url(#gradient20)" fill-rule="evenodd" stroke="none"/>
    <path d="M-15.5 -255.4 L-15.5 -255.25 -16.75 -254.5 -15.5 -255.4" fill="url(#gradient21)" fill-rule="evenodd" stroke="none"/>
    <path d="M-218.65 -250.65 L-218.5 -246.9 -219.15 -247.15 -219.15 -250.75 -219.0 -251.9 -218.75 -251.25 -218.65 -250.65 M-221.65 -248.4 L-222.75 -249.0 -222.15 -251.15 -221.65 -248.4" fill="url(#gradient22)" fill-rule="evenodd" stroke="none"/>
    <path d="M-218.65 -251.15 L-218.65 -250.65 -218.75 -251.25 -218.65 -251.15" fill="url(#gradient23)" fill-rule="evenodd" stroke="none"/>
    <path d="M-292.4 -239.25 L-262.9 -247.5 -262.9 -247.4 -264.0 -246.65 -265.75 -246.4 -265.65 -245.65 -296.5 -224.75 -292.4 -239.25" fill="url(#gradient24)" fill-rule="evenodd" stroke="none"/>
    <path d="M-296.15 -211.9 L-296.5 -224.75 -265.65 -245.65 -264.4 -245.15 -284.4 -215.75 Q-287.65 -215.65 -289.9 -214.5 L-296.15 -211.9 M-262.9 -247.4 L-263.15 -246.9 -264.0 -246.65 -262.9 -247.4" fill="url(#gradient25)" fill-rule="evenodd" stroke="none"/>
    <path d="M-216.25 -245.4 L-212.9 -244.75 -214.15 -244.5 -214.5 -243.75 -215.5 -243.9 -216.65 -245.0 -216.9 -245.5 -216.25 -245.4 M-264.4 -245.15 L-265.65 -245.65 -265.75 -246.4 -264.0 -246.65 -263.15 -246.9 -262.75 -246.9 -261.9 -247.0 -262.65 -245.4 -264.4 -245.15" fill="url(#gradient26)" fill-rule="evenodd" stroke="none"/>
    <path d="M-203.0 -242.75 L-197.0 -241.4 -196.65 -241.25 -193.4 -240.5 -192.65 -240.4 -192.25 -240.25 -190.15 -239.75 -189.5 -239.65 -189.0 -239.5 -188.4 -239.4 -184.65 -238.5 -181.9 -237.9 -181.75 -237.9 -181.25 -237.75 -181.4 -237.5 -177.0 -223.0 -175.25 -197.25 -175.5 -197.15 -185.15 -186.75 -184.15 -210.0 -184.4 -210.65 -214.5 -243.75 -214.15 -244.5 -212.9 -244.75 -216.25 -245.4 -216.4 -245.75 -216.15 -245.75 -213.25 -245.15 -206.65 -243.5 -203.0 -242.75" fill="url(#gradient27)" fill-rule="evenodd" stroke="none"/>
    <path d="M-184.4 -180.5 L-184.65 -180.25 Q-186.9 -193.9 -199.25 -203.25 L-200.65 -211.5 -215.5 -243.9 -214.5 -243.75 -184.4 -210.65 -184.15 -210.0 -185.15 -186.75 -184.25 -184.0 -184.4 -180.5 M-185.75 -159.5 L-186.65 -140.25 -187.65 -141.65 -188.5 -141.5 -206.5 -134.5 -205.75 -136.65 Q-204.15 -136.5 -198.15 -141.0 L-192.4 -147.0 -187.65 -154.65 -185.75 -159.5" fill="url(#gradient28)" fill-rule="evenodd" stroke="none"/>
    <path d="M-184.65 -180.25 Q-182.4 -168.9 -185.75 -159.5 L-187.65 -154.65 -192.4 -147.0 -198.15 -141.0 Q-204.15 -136.5 -205.75 -136.65 L-211.5 -134.65 -217.75 -134.4 -221.25 -135.15 -222.65 -135.5 -229.9 -140.15 -240.25 -143.5 -243.65 -146.0 -249.0 -153.25 Q-251.9 -161.65 -251.0 -162.75 L-254.15 -169.5 -254.75 -177.65 Q-253.25 -187.15 -251.75 -187.75 L-252.25 -193.75 Q-248.65 -208.25 -231.15 -211.4 -209.9 -214.25 -199.25 -203.25 -186.9 -193.9 -184.65 -180.25" fill="url(#gradient29)" fill-rule="evenodd" stroke="none"/>
    <path d="M-221.25 -135.15 L-217.75 -134.4 -211.5 -134.65 -206.5 -134.5 -219.65 -92.15 -223.5 -29.4 -240.15 -28.9 -277.5 -31.5 -288.9 -33.9 -284.15 -95.75 -290.5 -136.9 -288.0 -137.0 -283.9 -137.25 -272.75 -137.65 -221.25 -135.15" fill="url(#gradient30)" fill-rule="evenodd" stroke="none"/>
    <path d="M-299.25 -142.0 Q-316.5 -153.5 -317.9 -175.75 -320.15 -187.75 -306.4 -204.4 L-303.5 -207.15 -296.15 -211.9 -289.9 -214.5 Q-287.65 -215.65 -284.4 -215.75 L-278.0 -216.5 -273.9 -216.4 -269.15 -215.15 Q-267.15 -213.4 -262.65 -211.9 L-257.9 -207.25 Q-254.65 -202.75 -254.5 -195.4 -254.0 -194.4 -257.65 -188.4 L-256.75 -180.0 -258.65 -172.0 -264.15 -163.4 -265.75 -156.25 -270.5 -149.65 Q-275.15 -147.4 -276.9 -144.15 L-279.65 -142.9 -280.4 -140.0 -281.9 -138.5 -283.9 -137.25 -288.0 -137.0 -290.9 -138.0 -291.15 -138.15 -291.5 -138.15 -295.15 -139.5 Q-298.65 -142.25 -299.25 -142.0" fill="url(#gradient31)" fill-rule="evenodd" stroke="none"/>
    <path d="M-22.15 -237.15 Q-22.25 -237.9 -19.0 -240.25 L-16.0 -242.0 -18.65 -239.9 -18.4 -239.65 -19.25 -239.15 -19.15 -238.75 -19.5 -238.5 Q-20.8 -237.8 -22.15 -237.15 M-12.5 -244.25 L-13.0 -243.9 -12.9 -244.15 -12.5 -244.25" fill="url(#gradient32)" fill-rule="evenodd" stroke="none"/>
    <path d="M-13.0 -243.9 L-13.15 -243.9 -12.9 -244.15 -13.0 -243.9 M-8.0 -245.25 L-7.75 -245.4 -7.65 -245.25 -8.0 -245.25" fill="url(#gradient33)" fill-rule="evenodd" stroke="none"/>
    <path d="M-7.75 -245.4 L-7.25 -245.4 -7.65 -245.25 -7.75 -245.4" fill="url(#gradient34)" fill-rule="evenodd" stroke="none"/>
    <path d="M-22.15 -236.0 L-22.25 -236.25 -22.15 -237.15 Q-20.8 -237.8 -19.5 -238.5 L-19.4 -237.4 -19.75 -237.15 -20.5 -236.65 -22.15 -236.0" fill="url(#gradient35)" fill-rule="evenodd" stroke="none"/>
    <path d="M-181.75 -237.9 L-180.25 -237.65 -162.75 -225.0 -162.75 -222.9 -180.15 -236.9 -181.4 -237.5 -181.25 -237.75 -181.75 -237.9" fill="url(#gradient36)" fill-rule="evenodd" stroke="none"/>
    <path d="M-177.0 -223.0 L-181.4 -237.5 -180.15 -236.9 -162.75 -222.9 -177.0 -223.0" fill="url(#gradient37)" fill-rule="evenodd" stroke="none"/>
    <path d="M-110.25 -152.75 L-123.0 -154.75 -135.9 -160.75 -152.25 -170.5 -171.75 -178.0 -175.5 -197.15 -175.25 -197.25 -177.0 -223.0 -162.75 -222.9 -135.15 -209.5 -114.0 -200.5 -83.4 -185.5 -97.25 -167.65 -110.25 -152.75" fill="url(#gradient38)" fill-rule="evenodd" stroke="none"/>
    <path d="M-171.75 -178.0 L-184.4 -180.5 -184.25 -184.0 -185.15 -186.75 -175.5 -197.15 -171.75 -178.0" fill="url(#gradient39)" fill-rule="evenodd" stroke="none"/>
    <path d="M-0.9 -242.0 L-0.9 -238.0 Q-7.5 -242.0 -9.65 -240.15 L-9.75 -240.15 -11.65 -239.65 -12.0 -239.5 -12.15 -239.4 -16.0 -238.25 -19.0 -237.5 -19.15 -238.15 -18.65 -239.0 -15.9 -240.25 -9.75 -241.75 -8.25 -243.5 -4.75 -243.5 Q-3.25 -243.65 -0.9 -242.0" fill="url(#gradient40)" fill-rule="evenodd" stroke="none"/>
    <path d="M-11.65 -238.75 L-18.15 -237.0 -16.0 -238.25 -12.15 -239.4 -12.0 -239.5 -11.65 -239.65 -9.75 -240.15 -9.65 -240.15 -9.15 -240.15 -11.65 -238.75 M-21.5 -236.0 L-22.15 -236.0 -20.5 -236.65 -21.5 -236.0 M-19.4 -237.4 L-19.0 -237.5 -19.75 -237.15 -19.4 -237.4" fill="url(#gradient41)" fill-rule="evenodd" stroke="none"/>
    <path d="M-18.15 -237.0 L-21.5 -236.0 -20.5 -236.65 -19.75 -237.15 -19.0 -237.5 -16.0 -238.25 -18.15 -237.0" fill="url(#gradient42)" fill-rule="evenodd" stroke="none"/>
    <path d="M-0.9 -237.25 L-0.9 -234.15 -3.25 -233.25 Q-5.4 -239.15 -11.65 -238.75 L-9.15 -240.15 Q-5.75 -241.4 -0.9 -237.25" fill="url(#gradient43)" fill-rule="evenodd" stroke="none"/>
    <path d="M-0.9 -234.15 L-0.9 -221.65 -3.5 -220.5 -3.0 -229.0 -3.25 -233.25 -0.9 -234.15" fill="url(#gradient44)" fill-rule="evenodd" stroke="none"/>
    <path d="M-308.5 -233.4 L-308.25 -233.75 -292.4 -239.25 -296.5 -224.75 -296.15 -211.9 -303.5 -207.15 -306.4 -204.4 -311.15 -214.0 -311.9 -214.9 -308.5 -233.4" fill="url(#gradient45)" fill-rule="evenodd" stroke="none"/>
    <path d="M-317.9 -175.75 L-331.75 -169.4 -348.0 -157.75 Q-350.65 -155.65 -353.25 -155.0 -360.6 -152.3 -368.0 -149.65 L-384.15 -163.0 -392.75 -173.75 -392.65 -173.9 -370.4 -185.65 -323.9 -216.0 -312.4 -229.15 -312.0 -229.5 -308.5 -233.4 -311.9 -214.9 -311.15 -214.0 -306.4 -204.4 Q-320.15 -187.75 -317.9 -175.75" fill="url(#gradient46)" fill-rule="evenodd" stroke="none"/>
    <path d="M-312.25 -229.4 L-312.0 -229.5 -312.4 -229.15 -312.25 -229.4" fill="url(#gradient47)" fill-rule="evenodd" stroke="none"/>
    <path d="M-392.65 -173.9 L-392.0 -174.75 -389.4 -177.65 -374.15 -189.9 -350.25 -207.25 -329.0 -220.5 -312.25 -229.4 -312.4 -229.15 -323.9 -216.0 -370.4 -185.65 -392.65 -173.9" fill="url(#gradient48)" fill-rule="evenodd" stroke="none"/>
    <path d="M-162.75 -225.0 L-134.4 -211.65 -82.5 -188.0 -83.4 -185.5 -114.0 -200.5 -135.15 -209.5 -162.75 -222.9 -162.75 -225.0" fill="url(#gradient49)" fill-rule="evenodd" stroke="none"/>
    <path d="M-82.5 -188.0 L-67.15 -189.25 -61.4 -185.9 -83.4 -185.5 -82.5 -188.0" fill="url(#gradient50)" fill-rule="evenodd" stroke="none"/>
    <path d="M-0.9 -221.65 L-0.9 -214.65 -24.15 -204.25 -42.9 -194.4 -61.4 -185.9 -67.15 -189.25 -35.65 -206.0 -12.15 -216.25 -3.5 -220.5 -0.9 -221.65" fill="url(#gradient51)" fill-rule="evenodd" stroke="none"/>
    <path d="M-0.9 -214.65 L-1.15 -187.25 -36.65 -168.25 -30.25 -178.15 -30.15 -178.4 -42.9 -194.4 -24.15 -204.25 -0.9 -214.65" fill="url(#gradient52)" fill-rule="evenodd" stroke="none"/>
    <path d="M-42.9 -194.4 L-30.15 -178.4 -61.4 -185.9 -42.9 -194.4" fill="url(#gradient53)" fill-rule="evenodd" stroke="none"/>
    <path d="M-56.15 -156.75 L-72.4 -148.25 -110.25 -152.75 -97.25 -167.65 -83.4 -185.5 -61.4 -185.9 -30.15 -178.4 -30.25 -178.15 -45.75 -169.65 -56.15 -156.75" fill="url(#gradient54)" fill-rule="evenodd" stroke="none"/>
    <path d="M-36.65 -168.25 L-56.15 -156.75 -45.75 -169.65 -30.25 -178.15 -36.65 -168.25" fill="url(#gradient55)" fill-rule="evenodd" stroke="none"/>
    <path d="M-400.0 -165.5 L-400.0 -166.15 -392.9 -173.65 -400.0 -165.5 M-392.85 -173.65 L-392.65 -173.9 -392.75 -173.75 -392.85 -173.65" fill="url(#gradient56)" fill-rule="evenodd" stroke="none"/>
    <path d="M-399.9 -129.25 L-400.0 -165.5 -392.9 -173.65 -392.85 -173.65 -392.75 -173.75 -384.15 -163.0 -368.0 -149.65 -367.9 -149.0 -367.65 -148.25 -365.0 -133.75 -359.25 -123.5 -359.15 -123.25 -379.75 -121.9 -389.9 -117.65 -399.9 -129.25" fill="url(#gradient57)" fill-rule="evenodd" stroke="none"/>
    <path d="M-343.4 -55.5 L-356.15 -71.15 -373.15 -90.5 -393.25 -117.5 -400.0 -126.0 -399.9 -129.25 -389.9 -117.65 -378.5 -104.4 -367.75 -90.0 -351.9 -71.0 -351.5 -71.0 -342.4 -61.4 -343.4 -60.65 -343.5 -59.75 -343.4 -55.5" fill="url(#gradient58)" fill-rule="evenodd" stroke="none"/>
    <path d="M-317.65 -70.5 Q-305.4 -57.65 -320.15 -45.9 -336.75 -39.15 -343.4 -55.5 L-343.5 -59.75 -343.4 -60.65 -342.4 -61.4 -340.25 -65.15 -335.75 -67.15 Q-325.75 -66.15 -325.15 -64.0 L-318.65 -66.9 -318.4 -66.65 -318.15 -66.9 -322.15 -72.0 -321.65 -72.65 -321.15 -72.65 -317.65 -70.5" fill="url(#gradient59)" fill-rule="evenodd" stroke="none"/>
    <path d="M-389.9 -117.65 L-379.75 -121.9 -359.15 -123.25 -357.75 -121.5 -342.0 -97.15 -334.4 -87.75 -334.15 -87.0 -333.15 -86.4 -326.75 -77.25 -318.65 -66.9 -325.15 -64.0 Q-325.75 -66.15 -335.75 -67.15 L-340.25 -65.15 -342.4 -61.4 -351.5 -71.0 -351.9 -71.0 -367.75 -90.0 -378.5 -104.4 -389.9 -117.65" fill="url(#gradient60)" fill-rule="evenodd" stroke="none"/>
    <path d="M-355.0 -118.5 L-335.65 -94.9 -328.15 -83.4 -319.0 -74.25 -317.65 -70.5 -321.15 -72.65 -321.65 -72.65 -322.15 -72.0 -318.15 -66.9 -318.4 -66.65 -318.65 -66.9 -326.75 -77.25 -333.15 -86.4 -334.15 -87.0 -334.4 -87.75 -342.0 -97.15 -357.75 -121.5 -355.0 -118.5" fill="url(#gradient61)" fill-rule="evenodd" stroke="none"/>
    <path d="M-364.75 -144.15 L-358.15 -132.9 -355.0 -118.5 -357.75 -121.5 -359.15 -123.25 -359.25 -123.5 -365.0 -133.75 -367.65 -148.25 -367.4 -148.15 -364.75 -144.15" fill="url(#gradient62)" fill-rule="evenodd" stroke="none"/>
    <path d="M-353.25 -155.0 L-364.75 -144.15 -367.4 -148.15 -367.65 -148.25 -367.9 -149.0 -368.0 -149.65 Q-360.6 -152.3 -353.25 -155.0" fill="url(#gradient63)" fill-rule="evenodd" stroke="none"/>
    <path d="M-293.4 -38.9 L-289.9 -78.15 -288.9 -96.0 -299.25 -142.0 Q-298.65 -142.25 -295.15 -139.5 L-291.5 -138.15 -290.75 -137.4 -290.5 -136.9 -284.15 -95.75 -288.9 -33.9 -293.4 -38.9" fill="url(#gradient64)" fill-rule="evenodd" stroke="none"/>
    <path d="M-290.75 -137.4 L-291.5 -138.15 -291.15 -138.15 -290.9 -138.0 -290.75 -137.4" fill="url(#gradient65)" fill-rule="evenodd" stroke="none"/>
    <path d="M-186.65 -140.25 L-201.9 -90.25 -205.15 -34.75 -205.65 -33.4 -209.5 -32.0 -223.5 -29.4 -219.65 -92.15 -206.5 -134.5 -188.5 -141.5 -187.65 -141.65 -186.65 -140.25" fill="url(#gradient66)" fill-rule="evenodd" stroke="none"/>
    <path d="M-205.15 -34.75 L-201.5 -24.65 -205.65 -33.4 -205.15 -34.75" fill="url(#gradient67)" fill-rule="evenodd" stroke="none"/>
    <path d="M-201.5 -24.65 L-201.5 -24.5 -201.4 -24.15 -201.25 -24.0 -190.75 -0.9 -215.15 -0.9 -223.5 -29.4 -209.5 -32.0 -205.65 -33.4 -201.5 -24.65" fill="url(#gradient68)" fill-rule="evenodd" stroke="none"/>
    <path d="M-304.65 -0.9 L-315.15 -0.9 -314.9 -5.15 -293.4 -38.9 -288.9 -33.9 -304.65 -0.9" fill="url(#gradient69)" fill-rule="evenodd" stroke="none"/>
    <path d="M-215.15 -0.9 L-304.65 -0.9 -288.9 -33.9 -277.5 -31.5 -240.15 -28.9 -223.5 -29.4 -215.15 -0.9" fill="url(#gradient70)" fill-rule="evenodd" stroke="none"/>
    <path d="M-277.9 -257.65 L-274.4 -257.9 -270.75 -257.9 -272.15 -255.5 -272.75 -255.65 -273.0 -255.9 -275.15 -256.65 -275.15 -256.75 -277.9 -257.65" fill="#ac0000" fill-rule="evenodd" stroke="none"/>
    <path d="M-216.4 -254.5 L-216.0 -254.5 -214.4 -252.25 -214.25 -252.0 -214.15 -252.0 -212.4 -249.4 -211.0 -247.9 -209.0 -251.25 -208.65 -252.75 -207.75 -253.9 -207.4 -254.15 -207.15 -255.0 -206.75 -255.0 -206.4 -254.5 -203.4 -248.0 -203.5 -246.9 -203.4 -243.75 -203.5 -242.9 -203.9 -232.15 -203.75 -231.65 -203.9 -225.5 -204.5 -220.15 -204.4 -219.4 -204.75 -218.25 -204.65 -217.5 -205.65 -207.9 -205.5 -207.65 -205.65 -207.0 -205.9 -205.15 -205.75 -204.75 -206.0 -203.0 -205.5 -202.4 -203.75 -201.65 -203.4 -201.15 -193.4 -195.75 -193.15 -195.25 -190.5 -194.15 -190.0 -193.65 -189.65 -193.65 -189.15 -193.15 -185.15 -191.15 -185.0 -190.9 -183.65 -190.15 -190.0 -189.4 -190.5 -189.4 -192.65 -189.15 -193.15 -189.15 -208.25 -187.5 -208.9 -187.25 -217.75 -186.5 -216.9 -191.4 -217.0 -191.75 -214.9 -203.15 -214.9 -205.25 -215.15 -205.4 -214.65 -205.5 -214.25 -208.9 -214.15 -209.25 -214.25 -210.0 -214.0 -210.25 -214.0 -210.9 -211.75 -228.65 -211.9 -229.4 -211.4 -234.5 -211.65 -235.4 -211.25 -239.9 -211.4 -240.25 -211.0 -242.65 -211.0 -244.5 -206.65 -243.5 -209.9 -245.25 -210.9 -245.25 -210.75 -246.5 -211.0 -247.15 -211.15 -247.15 -211.5 -245.75 -212.9 -245.15 -213.25 -245.15 -216.15 -245.75 -216.4 -245.75 -218.25 -246.75 -216.25 -251.5 -216.15 -251.9 -215.9 -252.4 -216.0 -253.5 -216.4 -254.5 M-270.75 -257.9 L-265.25 -255.5 -259.25 -251.65 -259.0 -251.25 -258.65 -250.9 -258.4 -250.9 -257.9 -250.5 -258.15 -250.4 -258.5 -250.15 -258.9 -250.5 -264.15 -250.4 -272.15 -255.5 -270.75 -257.9" fill="#9b0000" fill-opacity="0.9098039" fill-rule="evenodd" stroke="none"/>
    <path d="M-318.5 -195.5 L-310.75 -199.4 -310.4 -199.75 -308.15 -200.65 -307.65 -201.15 -306.65 -201.4 -306.25 -201.75 -301.15 -204.25 -300.65 -204.4 -298.75 -205.25 -297.9 -207.25 -297.65 -207.5 -296.9 -209.4 -296.65 -209.5 -296.4 -210.4 -296.15 -210.65 -295.65 -211.9 -295.65 -212.0 -295.25 -212.25 -295.25 -212.4 -287.4 -228.4 -286.75 -230.75 -286.9 -231.15 -286.65 -231.5 -284.75 -241.4 -284.65 -241.5 -276.9 -243.65 -277.9 -237.4 -278.0 -237.0 -279.4 -228.75 -285.0 -216.65 -285.65 -215.5 -285.75 -215.25 -285.75 -214.9 -286.0 -214.65 -287.25 -211.75 -287.5 -211.5 -290.25 -205.0 -291.0 -201.9 -290.9 -201.75 -292.15 -195.4 -292.4 -195.15 -292.25 -194.75 -293.75 -187.4 -294.0 -187.15 -293.9 -186.65 -295.4 -179.5 -302.4 -184.25 -302.5 -184.5 -311.15 -190.5 -311.65 -190.75 -318.5 -195.5 M-282.25 -250.65 L-281.65 -251.65 -281.5 -252.15 -277.9 -257.65 -275.15 -256.75 -275.15 -256.65 -273.0 -255.9 -272.75 -255.65 -272.15 -255.5 -272.5 -255.15 -272.4 -254.9 -275.5 -249.9 -280.75 -249.65 -281.0 -249.75 -281.65 -250.25 -282.15 -250.5 -282.25 -250.65" fill="#9e0000" fill-opacity="0.9098039" fill-rule="evenodd" stroke="none"/>
    <path d="M-206.75 -255.0 L-207.15 -255.0 -207.4 -254.15 -207.75 -253.9 -208.65 -252.75 -209.0 -251.25 -211.0 -247.9 -212.4 -249.4 -214.15 -252.0 -214.25 -252.0 -214.4 -252.25 -216.0 -254.5 -216.4 -254.5 -216.5 -254.9 -216.75 -255.5 -207.5 -255.25 -206.9 -255.15 -206.75 -255.0" fill="#a90000" fill-rule="evenodd" stroke="none"/>
    <path d="M-210.9 -245.25 L-209.9 -245.25 -206.65 -243.5 -211.0 -244.5 -210.9 -245.25 M-258.5 -250.15 L-261.4 -248.4 -264.15 -250.4 -258.9 -250.5 -258.5 -250.15" fill="#ab0000" fill-opacity="0.9098039" fill-rule="evenodd" stroke="none"/>
    <path d="M-217.75 -186.5 L-208.9 -187.25 -208.25 -187.5 -193.15 -189.15 -192.65 -189.15 -190.5 -189.4 -190.0 -189.4 -183.65 -190.15 -183.4 -189.5 -183.75 -188.15 -183.65 -185.0 -183.9 -184.25 -183.9 -183.75 -183.75 -183.5 -183.9 -180.4 -184.4 -180.5 -184.65 -180.25 -184.15 -178.75 -184.15 -177.75 -184.0 -177.4 -184.0 -174.65 -184.5 -170.5 -184.4 -170.25 -184.4 -169.5 -184.5 -169.15 -184.4 -168.65 -184.4 -166.9 -184.9 -163.4 -185.4 -162.15 -185.5 -161.75 -185.75 -161.25 -186.25 -158.9 -187.0 -156.75 -187.0 -156.65 -187.75 -154.65 -188.0 -154.25 -187.9 -154.25 -190.4 -146.4 -190.25 -145.9 -192.15 -140.15 -192.4 -139.9 -192.25 -139.65 -193.65 -135.25 -202.65 -135.9 -207.25 -136.15 -222.15 -137.25 -265.0 -138.65 -276.15 -139.75 -276.5 -139.9 -283.0 -140.4 -295.5 -140.0 -295.4 -139.9 -298.75 -139.75 -299.25 -142.0 -306.4 -148.15 -308.15 -150.0 -308.25 -150.4 -312.75 -156.65 -316.0 -164.0 -316.0 -164.5 -317.75 -172.0 -317.9 -175.75 -318.15 -179.25 -317.75 -180.5 -316.9 -186.75 -318.5 -195.0 -318.5 -195.5 -311.65 -190.75 -311.15 -190.5 -302.5 -184.5 -302.4 -184.25 -295.4 -179.5 -288.75 -174.25 -288.25 -174.0 -288.25 -173.9 -287.9 -173.75 -287.75 -173.5 -276.9 -165.15 -276.5 -165.0 -272.4 -161.9 -272.25 -161.5 -258.65 -151.15 -231.5 -165.4 -231.4 -165.65 -224.15 -169.4 -222.5 -173.4 -222.25 -173.65 -217.75 -186.5 M-216.15 -160.9 L-216.4 -160.0 -216.4 -159.9 -216.0 -158.75 -216.0 -158.15 -214.75 -159.25 -214.65 -160.15 -214.9 -160.5 -215.5 -161.15 -216.15 -160.9 M-299.4 -158.4 L-300.65 -161.9 -300.0 -158.15 -299.9 -158.0 -299.65 -157.75 -299.5 -157.9 -299.4 -158.15 -299.4 -158.4" fill="#b00000" fill-opacity="0.9098039" fill-rule="evenodd" stroke="none"/>
    <path d="M-284.65 -241.5 L-283.5 -247.5 -282.5 -250.65 -282.25 -250.65 -282.15 -250.5 -281.65 -250.25 -281.0 -249.75 -280.75 -249.65 -275.5 -249.9 -276.75 -243.75 -276.9 -243.65 -284.65 -241.5" fill="#ae0000" fill-opacity="0.9098039" fill-rule="evenodd" stroke="none"/>
    <path d="M-322.75 -173.65 L-321.0 -182.9 -320.9 -183.15 -319.4 -190.5 -319.5 -190.9 -318.5 -195.0 -316.9 -186.75 -317.75 -180.5 -318.15 -179.25 -317.9 -175.75 -318.25 -175.75 -318.65 -175.5 -322.75 -173.65" fill="#c30000" fill-rule="evenodd" stroke="none"/>
    <path d="M-323.65 -166.75 L-323.9 -168.15 -322.9 -173.4 -322.75 -173.65 -318.65 -175.5 -318.25 -175.75 -317.9 -175.75 -317.75 -172.0 -316.0 -164.5 -316.0 -164.0 -312.75 -156.65 -308.25 -150.4 -308.15 -150.0 -306.4 -148.15 -310.9 -149.0 -323.65 -166.75" fill="#c50000" fill-rule="evenodd" stroke="none"/>
    <path d="M-183.4 -189.5 L-183.0 -188.9 -179.65 -181.75 -179.4 -181.5 -178.5 -179.4 -183.9 -180.4 -183.75 -183.5 -183.9 -183.75 -183.9 -184.25 -183.65 -185.0 -183.75 -188.15 -183.4 -189.5 M-184.0 -174.65 L-183.9 -169.75 -183.75 -169.4 -184.4 -166.9 -184.4 -168.65 -184.5 -169.15 -184.4 -169.5 -184.4 -170.25 -184.5 -170.5 -184.0 -174.65 M-184.9 -163.4 L-184.75 -163.0 -185.75 -159.5 -185.65 -157.9 -186.65 -142.0 -186.75 -140.5 -186.65 -140.15 -187.25 -138.25 -187.5 -138.0 -188.9 -137.5 -189.0 -137.4 -189.4 -137.15 -193.65 -135.25 -192.25 -139.65 -192.4 -139.9 -192.15 -140.15 -190.25 -145.9 -190.4 -146.4 -187.9 -154.25 -188.0 -154.25 -187.75 -154.65 -187.0 -156.65 -187.0 -156.75 -186.25 -158.9 -185.75 -161.25 -185.5 -161.75 -185.4 -162.15 -184.9 -163.4" fill="#d30000" fill-opacity="0.9098039" fill-rule="evenodd" stroke="none"/>
    <path d="M-183.9 -180.4 L-184.15 -178.75 -184.65 -180.25 -184.4 -180.5 -183.9 -180.4" fill="#c20000" fill-opacity="0.9098039" fill-rule="evenodd" stroke="none"/>
    <path d="M-183.9 -180.4 L-178.5 -179.4 -178.4 -179.25 -173.4 -168.4 -173.15 -152.0 -179.65 -144.0 -186.65 -142.0 -185.65 -157.9 -185.75 -159.5 -184.75 -163.0 -184.9 -163.4 -184.4 -166.9 -183.75 -169.4 -183.9 -169.75 -184.0 -174.65 -184.0 -177.4 -184.15 -177.75 -184.15 -178.75 -183.9 -180.4 M-310.9 -0.9 L-315.25 -0.9 -314.9 -4.65 -314.15 -6.25 -298.65 -30.5 -298.4 -26.0 -298.25 -25.75 -300.4 -21.4 -301.15 -20.15 -310.9 -0.9" fill="#e80000" fill-opacity="0.9098039" fill-rule="evenodd" stroke="none"/>
    <path d="M-306.4 -148.15 L-299.25 -142.0 -298.75 -139.75 -304.15 -139.5 -310.9 -149.0 -306.4 -148.15" fill="#c60000" fill-rule="evenodd" stroke="none"/>
    <path d="M-315.25 -0.9 L-324.25 -1.15 -303.4 -31.75 -303.25 -32.15 -304.9 -53.5 -302.9 -76.15 -301.75 -94.5 -316.75 -150.75 -316.9 -151.0 -323.65 -166.75 -310.9 -149.0 -304.15 -139.5 -295.75 -94.0 -299.25 -49.5 -298.5 -31.25 -298.65 -30.5 -314.15 -6.25 -314.9 -4.65 -315.25 -0.9" fill="#fd0000" fill-rule="evenodd" stroke="none"/>
    <path d="M-193.65 -135.25 L-189.4 -137.15 -189.0 -137.4 -188.9 -137.5 -187.5 -138.0 -187.4 -137.75 -195.0 -112.9 -196.25 -109.0 -196.15 -108.75 -196.5 -108.25 -196.65 -107.75 -196.5 -107.5 -201.9 -90.25 -202.75 -78.25 -202.9 -71.9 -202.75 -71.4 -203.75 -59.9 -203.9 -59.0 -204.15 -52.15 -204.0 -51.0 -205.15 -38.75 -205.15 -34.5 -203.25 -29.75 -202.0 -25.75 -202.0 -25.5 -201.9 -25.5 -201.9 -25.25 -201.75 -24.9 -201.9 -24.75 -204.4 -23.65 -205.0 -23.5 -205.75 -23.4 -206.25 -23.25 -221.0 -20.4 -221.0 -21.5 -220.15 -25.65 -220.25 -25.9 -216.9 -42.9 -217.0 -43.4 -214.4 -83.5 -214.5 -84.15 -214.15 -89.25 -206.0 -107.25 -205.75 -108.4 -193.65 -135.25" fill="#d80000" fill-opacity="0.9098039" fill-rule="evenodd" stroke="none"/>
    <path d="M-174.15 -142.65 L-174.15 -142.0 -193.0 -87.65 -195.25 -46.15 -200.25 -27.25 -200.75 -29.15 -196.25 -47.5 -194.0 -86.75 -195.0 -112.9 -187.4 -137.75 -187.5 -138.0 -187.25 -138.25 -182.4 -140.5 -181.75 -140.65 -175.0 -143.9 -174.15 -142.65" fill="#ef0000" fill-rule="evenodd" stroke="none"/>
    <path d="M-173.15 -152.0 L-174.15 -142.65 -175.0 -143.9 -181.75 -140.65 -182.4 -140.5 -187.25 -138.25 -186.65 -140.15 -186.75 -140.5 -186.65 -142.0 -179.65 -144.0 -173.15 -152.0" fill="#ea0000" fill-rule="evenodd" stroke="none"/>
    <path d="M-193.65 -135.25 L-205.75 -108.4 -206.0 -107.25 -214.15 -89.25 -214.5 -84.15 -214.4 -83.5 -217.0 -43.4 -216.9 -42.9 -220.25 -25.9 -220.15 -25.65 -221.0 -21.5 -221.0 -20.4 -221.15 -20.25 -238.75 -19.4 -287.5 -23.0 -298.25 -25.75 -298.4 -26.0 -298.65 -30.5 -298.5 -31.25 -293.4 -38.9 -293.15 -39.9 -291.5 -58.4 -288.9 -96.0 -289.15 -97.65 -298.75 -139.75 -295.4 -139.9 -295.5 -140.0 -283.0 -140.4 -276.5 -139.9 -276.15 -139.75 -265.0 -138.65 -222.15 -137.25 -207.25 -136.15 -202.65 -135.9 -193.65 -135.25" fill="#a70000" fill-opacity="0.9098039" fill-rule="evenodd" stroke="none"/>
    <path d="M-298.75 -139.75 L-289.15 -97.65 -288.9 -96.0 -291.5 -58.4 -293.15 -39.9 -293.4 -38.9 -298.5 -31.25 -299.25 -49.5 -295.75 -94.0 -304.15 -139.5 -298.75 -139.75" fill="#bc0000" fill-rule="evenodd" stroke="none"/>
    <path d="M-190.75 -0.9 L-215.15 -0.9 -221.15 -20.25 -221.0 -20.4 -206.25 -23.25 -205.75 -23.4 -205.0 -23.5 -204.4 -23.65 -201.9 -24.75 -201.75 -24.9 -201.65 -24.65 -201.65 -24.5 -197.0 -14.5 -197.0 -14.4 -195.75 -11.65 -195.65 -11.25 -190.75 -0.9" fill="#c80000" fill-opacity="0.9098039" fill-rule="evenodd" stroke="none"/>
    <path d="M-200.25 -27.25 L-200.25 -27.15 -200.15 -26.9 -200.0 -26.75 -200.15 -26.25 -200.5 -25.4 -201.0 -25.15 -201.75 -24.9 -201.9 -25.25 -201.9 -25.5 -202.0 -25.5 -202.0 -25.75 -203.25 -29.75 -200.75 -29.15 -200.25 -27.25" fill="#eb0000" fill-rule="evenodd" stroke="none"/>
    <path d="M-203.25 -29.75 L-205.15 -34.5 -205.15 -38.75 -204.0 -51.0 -204.15 -52.15 -203.9 -59.0 -203.75 -59.9 -202.75 -71.4 -202.9 -71.9 -202.75 -78.25 -201.9 -90.25 -196.5 -107.5 -196.65 -107.75 -196.5 -108.25 -196.15 -108.75 -196.25 -109.0 -195.0 -112.9 -194.0 -86.75 -196.25 -47.5 -200.75 -29.15 -203.25 -29.75" fill="#e90000" fill-rule="evenodd" stroke="none"/>
    <path d="M-200.0 -26.75 L-196.65 -17.9 -199.0 -22.0 -199.25 -22.5 -199.25 -22.65 -199.3 -22.65 -200.15 -26.25 -200.0 -26.75" fill="#ff0000" fill-rule="evenodd" stroke="none"/>
    <path d="M-199.3 -22.65 L-199.4 -22.75 -199.5 -23.15 -199.65 -23.4 -200.5 -25.4 -200.15 -26.25 -199.3 -22.65" fill="#fb0000" fill-rule="evenodd" stroke="none"/>
    <path d="M-201.75 -24.9 L-201.0 -25.15 -200.5 -25.4 -199.65 -23.4 -199.5 -23.15 -199.4 -22.75 -199.3 -22.65 -199.25 -22.65 -199.25 -22.5 -199.0 -22.0 -197.9 -18.75 -197.0 -14.5 -201.65 -24.5 -201.65 -24.65 -201.75 -24.9" fill="#db0000" fill-rule="evenodd" stroke="none"/>
    <path d="M-196.65 -17.9 L-188.4 -0.9 -190.75 -0.9 -195.65 -11.25 -195.75 -11.65 -197.0 -14.4 -197.0 -14.5 -197.9 -18.75 -199.0 -22.0 -196.65 -17.9" fill="#df0000" fill-rule="evenodd" stroke="none"/>
    <path d="M-215.15 -0.9 L-310.9 -0.9 -301.15 -20.15 -300.4 -21.4 -298.25 -25.75 -287.5 -23.0 -238.75 -19.4 -221.15 -20.25 -215.15 -0.9" fill="#a40000" fill-opacity="0.9098039" fill-rule="evenodd" stroke="none"/>
  </g>
  <defs>
    <radialGradient cx="0" cy="0" gradientTransform="matrix(0.1762, 0.0, 0.0, 0.1762, -177.2, -273.9)" gradientUnits="userSpaceOnUse" id="gradient0" r="819.2" spreadMethod="pad">
      <stop offset="0.0" stop-color="#555555"/>
      <stop offset="1.0" stop-color="#101010"/>
    </radialGradient>
    <radialGradient cx="0" cy="0" gradientTransform="matrix(0.0977, 0.0, 0.0, 0.0977, -225.45, -279.6)" gradientUnits="userSpaceOnUse" id="gradient1" r="819.2" spreadMethod="pad">
      <stop offset="0.0" stop-color="#7d7d7d"/>
      <stop offset="1.0" stop-color="#0a0a0a"/>
    </radialGradient>
    <radialGradient cx="0" cy="0" gradientTransform="matrix(0.0508, 0.0, 0.0, 0.0508, -255.75, -259.55)" gradientUnits="userSpaceOnUse" id="gradient2" r="819.2" spreadMethod="pad">
      <stop offset="0.0" stop-color="#1a1a1a"/>
      <stop offset="1.0" stop-color="#000000"/>
    </radialGradient>
    <radialGradient cx="0" cy="0" gradientTransform="matrix(0.0195, 0.0, 0.0, 0.0195, -230.0, -267.2)" gradientUnits="userSpaceOnUse" id="gradient3" r="819.2" spreadMethod="pad">
      <stop offset="0.0" stop-color="#797979"/>
      <stop offset="1.0" stop-color="#000000"/>
    </radialGradient>
    <radialGradient cx="0" cy="0" gradientTransform="matrix(0.2866, 0.0, 0.0, 0.2866, -218.4, -254.6)" gradientUnits="userSpaceOnUse" id="gradient4" r="819.2" spreadMethod="pad">
      <stop offset="0.0" stop-color="#101010"/>
      <stop offset="1.0" stop-color="#000000"/>
    </radialGradient>
    <radialGradient cx="0" cy="0" gradientTransform="matrix(0.0444, 0.0, 0.0, 0.0444, -155.55, -273.35)" gradientUnits="userSpaceOnUse" id="gradient5" r="819.2" spreadMethod="pad">
      <stop offset="0.0" stop-color="#393939"/>
      <stop offset="1.0" stop-color="#202020"/>
    </radialGradient>
    <radialGradient cx="0" cy="0" gradientTransform="matrix(0.0279, 0.0, 0.0, 0.0279, -315.0, -300.0)" gradientUnits="userSpaceOnUse" id="gradient6" r="819.2" spreadMethod="pad">
      <stop offset="0.0" stop-color="#2f2f2f"/>
      <stop offset="1.0" stop-color="#292929"/>
    </radialGradient>
    <radialGradient cx="0" cy="0" gradientTransform="matrix(0.0185, 0.0, 0.0, 0.0185, -318.15, -289.3)" gradientUnits="userSpaceOnUse" id="gradient7" r="819.2" spreadMethod="pad">
      <stop offset="0.0" stop-color="#262626"/>
      <stop offset="1.0" stop-color="#1c1c1c"/>
    </radialGradient>
    <radialGradient cx="0" cy="0" gradientTransform="matrix(0.1495, 0.0, 0.0, 0.1495, -273.95, -137.75)" gradientUnits="userSpaceOnUse" id="gradient8" r="819.2" spreadMethod="pad">
      <stop offset="0.0" stop-color="#6a6a6a"/>
      <stop offset="1.0" stop-color="#000000"/>
    </radialGradient>
    <radialGradient cx="0" cy="0" gradientTransform="matrix(0.0156, 0.0, 0.0, 0.0156, -7.3, -258.35)" gradientUnits="userSpaceOnUse" id="gradient9" r="819.2" spreadMethod="pad">
      <stop offset="0.0" stop-color="#040404"/>
      <stop offset="1.0" stop-color="#040404"/>
    </radialGradient>
    <radialGradient cx="0" cy="0" gradientTransform="matrix(0.0052, 0.0, 0.0, 0.0052, -7.05, -264.25)" gradientUnits="userSpaceOnUse" id="gradient10" r="819.2" spreadMethod="pad">
      <stop offset="0.0" stop-color="#262626"/>
      <stop offset="1.0" stop-color="#262626"/>
    </radialGradient>
    <radialGradient cx="0" cy="0" gradientTransform="matrix(0.0072, 0.0, 0.0, 0.0072, -7.65, -261.3)" gradientUnits="userSpaceOnUse" id="gradient11" r="819.2" spreadMethod="pad">
      <stop offset="0.0" stop-color="#303030"/>
      <stop offset="1.0" stop-color="#303030"/>
    </radialGradient>
    <radialGradient cx="0" cy="0" gradientTransform="matrix(0.0204, 0.0, 0.0, 0.0204, -2.65, -238.9)" gradientUnits="userSpaceOnUse" id="gradient12" r="819.2" spreadMethod="pad">
      <stop offset="0.0" stop-color="#040404"/>
      <stop offset="1.0" stop-color="#040404"/>
    </radialGradient>
    <radialGradient cx="0" cy="0" gradientTransform="matrix(0.0068, 0.0, 0.0, 0.0068, -6.4, -245.65)" gradientUnits="userSpaceOnUse" id="gradient13" r="819.2" spreadMethod="pad">
      <stop offset="0.0" stop-color="#040404"/>
      <stop offset="1.0" stop-color="#040404"/>
    </radialGradient>
    <radialGradient cx="0" cy="0" gradientTransform="matrix(0.0109, 0.0, 0.0, 0.0109, -1.5, -255.6)" gradientUnits="userSpaceOnUse" id="gradient14" r="819.2" spreadMethod="pad">
      <stop offset="0.0" stop-color="#020202"/>
      <stop offset="1.0" stop-color="#020202"/>
    </radialGradient>
    <radialGradient cx="0" cy="0" gradientTransform="matrix(0.021, 0.0, 0.0, 0.021, -5.2, -262.45)" gradientUnits="userSpaceOnUse" id="gradient15" r="819.2" spreadMethod="pad">
      <stop offset="0.0" stop-color="#171717"/>
      <stop offset="1.0" stop-color="#171717"/>
    </radialGradient>
    <radialGradient cx="0" cy="0" gradientTransform="matrix(0.0101, 0.0, 0.0, 0.0101, -5.2, -262.45)" gradientUnits="userSpaceOnUse" id="gradient16" r="819.2" spreadMethod="pad">
      <stop offset="0.0" stop-color="#828282"/>
      <stop offset="1.0" stop-color="#808080"/>
    </radialGradient>
    <radialGradient cx="0" cy="0" gradientTransform="matrix(0.007, 0.0, 0.0, 0.007, -9.6, -255.15)" gradientUnits="userSpaceOnUse" id="gradient17" r="819.2" spreadMethod="pad">
      <stop offset="0.0" stop-color="#171717"/>
      <stop offset="1.0" stop-color="#171717"/>
    </radialGradient>
    <radialGradient cx="0" cy="0" gradientTransform="matrix(0.0161, 0.0, 0.0, 0.0161, -7.7, -245.45)" gradientUnits="userSpaceOnUse" id="gradient18" r="819.2" spreadMethod="pad">
      <stop offset="0.0" stop-color="#020202"/>
      <stop offset="1.0" stop-color="#020202"/>
    </radialGradient>
    <radialGradient cx="0" cy="0" gradientTransform="matrix(0.0128, 0.0, 0.0, 0.0128, -15.15, -256.15)" gradientUnits="userSpaceOnUse" id="gradient19" r="819.2" spreadMethod="pad">
      <stop offset="0.0" stop-color="#303030"/>
      <stop offset="1.0" stop-color="#232323"/>
    </radialGradient>
    <radialGradient cx="0" cy="0" gradientTransform="matrix(0.0048, 0.0, 0.0, 0.0048, -12.85, -246.75)" gradientUnits="userSpaceOnUse" id="gradient20" r="819.2" spreadMethod="pad">
      <stop offset="0.0" stop-color="#202020"/>
      <stop offset="1.0" stop-color="#202020"/>
    </radialGradient>
    <radialGradient cx="0" cy="0" gradientTransform="matrix(0.006, 0.0, 0.0, 0.006, -14.8, -256.45)" gradientUnits="userSpaceOnUse" id="gradient21" r="819.2" spreadMethod="pad">
      <stop offset="0.0" stop-color="#828282"/>
      <stop offset="1.0" stop-color="#5e5e5e"/>
    </radialGradient>
    <radialGradient cx="0" cy="0" gradientTransform="matrix(0.009, 0.0, 0.0, 0.009, -218.6, -250.85)" gradientUnits="userSpaceOnUse" id="gradient22" r="819.2" spreadMethod="pad">
      <stop offset="0.0" stop-color="#7b7b7b"/>
      <stop offset="1.0" stop-color="#1b1b1b"/>
    </radialGradient>
    <radialGradient cx="0" cy="0" gradientTransform="matrix(0.2939, 0.0, 0.0, 0.2939, -218.15, -260.6)" gradientUnits="userSpaceOnUse" id="gradient23" r="819.2" spreadMethod="pad">
      <stop offset="0.0" stop-color="#1a1a1a"/>
      <stop offset="1.0" stop-color="#0b0b0b"/>
    </radialGradient>
    <radialGradient cx="0" cy="0" gradientTransform="matrix(0.0502, 0.0, 0.0, 0.0502, -262.55, -247.75)" gradientUnits="userSpaceOnUse" id="gradient24" r="819.2" spreadMethod="pad">
      <stop offset="0.0" stop-color="#000000"/>
      <stop offset="1.0" stop-color="#000000"/>
    </radialGradient>
    <radialGradient cx="0" cy="0" gradientTransform="matrix(0.0771, 0.0, 0.0, 0.0771, -295.65, -193.95)" gradientUnits="userSpaceOnUse" id="gradient25" r="819.2" spreadMethod="pad">
      <stop offset="0.0" stop-color="#171717"/>
      <stop offset="1.0" stop-color="#000000"/>
    </radialGradient>
    <radialGradient cx="0" cy="0" gradientTransform="matrix(0.1234, 0.0, 0.0, 0.1234, -276.8, -166.3)" gradientUnits="userSpaceOnUse" id="gradient26" r="819.2" spreadMethod="pad">
      <stop offset="0.0" stop-color="#323232"/>
      <stop offset="1.0" stop-color="#000000"/>
    </radialGradient>
    <radialGradient cx="0" cy="0" gradientTransform="matrix(0.0775, 0.0, 0.0, 0.0775, -175.45, -197.5)" gradientUnits="userSpaceOnUse" id="gradient27" r="819.2" spreadMethod="pad">
      <stop offset="0.0" stop-color="#595959"/>
      <stop offset="1.0" stop-color="#000000"/>
    </radialGradient>
    <radialGradient cx="0" cy="0" gradientTransform="matrix(0.1088, 0.0, 0.0, 0.1088, -185.55, -162.25)" gradientUnits="userSpaceOnUse" id="gradient28" r="819.2" spreadMethod="pad">
      <stop offset="0.0" stop-color="#3f3f3f"/>
      <stop offset="1.0" stop-color="#000000"/>
    </radialGradient>
    <radialGradient cx="0" cy="0" gradientTransform="matrix(0.082, 0.0, 0.0, 0.082, -230.8, -146.25)" gradientUnits="userSpaceOnUse" id="gradient29" r="819.2" spreadMethod="pad">
      <stop offset="0.0" stop-color="#878787"/>
      <stop offset="1.0" stop-color="#000000"/>
    </radialGradient>
    <radialGradient cx="0" cy="0" gradientTransform="matrix(0.1459, 0.0, 0.0, 0.1459, -273.95, -137.75)" gradientUnits="userSpaceOnUse" id="gradient30" r="819.2" spreadMethod="pad">
      <stop offset="0.0" stop-color="#6a6a6a"/>
      <stop offset="1.0" stop-color="#000000"/>
    </radialGradient>
    <radialGradient cx="0" cy="0" gradientTransform="matrix(0.0818, 0.0, 0.0, 0.0818, -286.3, -150.85)" gradientUnits="userSpaceOnUse" id="gradient31" r="819.2" spreadMethod="pad">
      <stop offset="0.0" stop-color="#858585"/>
      <stop offset="1.0" stop-color="#000000"/>
    </radialGradient>
    <radialGradient cx="0" cy="0" gradientTransform="matrix(0.0143, 0.0, 0.0, 0.0143, -19.25, -238.9)" gradientUnits="userSpaceOnUse" id="gradient32" r="819.2" spreadMethod="pad">
      <stop offset="0.0" stop-color="#313131"/>
      <stop offset="1.0" stop-color="#222222"/>
    </radialGradient>
    <radialGradient cx="0" cy="0" gradientTransform="matrix(0.007, 0.0, 0.0, 0.007, -13.25, -243.95)" gradientUnits="userSpaceOnUse" id="gradient33" r="819.2" spreadMethod="pad">
      <stop offset="0.0" stop-color="#070707"/>
      <stop offset="1.0" stop-color="#020202"/>
    </radialGradient>
    <radialGradient cx="0" cy="0" gradientTransform="matrix(0.0048, 0.0, 0.0, 0.0048, -6.85, -245.5)" gradientUnits="userSpaceOnUse" id="gradient34" r="819.2" spreadMethod="pad">
      <stop offset="0.0" stop-color="#171717"/>
      <stop offset="1.0" stop-color="#171717"/>
    </radialGradient>
    <radialGradient cx="0" cy="0" gradientTransform="matrix(0.004, 0.0, 0.0, 0.004, -22.25, -237.05)" gradientUnits="userSpaceOnUse" id="gradient35" r="819.2" spreadMethod="pad">
      <stop offset="0.0" stop-color="#262626"/>
      <stop offset="1.0" stop-color="#262626"/>
    </radialGradient>
    <radialGradient cx="0" cy="0" gradientTransform="matrix(0.0438, 0.0, 0.0, 0.0438, -181.5, -237.8)" gradientUnits="userSpaceOnUse" id="gradient36" r="819.2" spreadMethod="pad">
      <stop offset="0.0" stop-color="#000000"/>
      <stop offset="1.0" stop-color="#000000"/>
    </radialGradient>
    <radialGradient cx="0" cy="0" gradientTransform="matrix(0.0187, 0.0, 0.0, 0.0187, -177.05, -223.15)" gradientUnits="userSpaceOnUse" id="gradient37" r="819.2" spreadMethod="pad">
      <stop offset="0.0" stop-color="#000000"/>
      <stop offset="1.0" stop-color="#000000"/>
    </radialGradient>
    <radialGradient cx="0" cy="0" gradientTransform="matrix(0.0872, 0.0, 0.0, 0.0872, -154.4, -191.8)" gradientUnits="userSpaceOnUse" id="gradient38" r="819.2" spreadMethod="pad">
      <stop offset="0.0" stop-color="#616161"/>
      <stop offset="1.0" stop-color="#000000"/>
    </radialGradient>
    <radialGradient cx="0" cy="0" gradientTransform="matrix(0.0255, 0.0, 0.0, 0.0255, -175.45, -197.5)" gradientUnits="userSpaceOnUse" id="gradient39" r="819.2" spreadMethod="pad">
      <stop offset="0.0" stop-color="#595959"/>
      <stop offset="1.0" stop-color="#070707"/>
    </radialGradient>
    <radialGradient cx="0" cy="0" gradientTransform="matrix(0.0217, 0.0, 0.0, 0.0217, -1.75, -242.6)" gradientUnits="userSpaceOnUse" id="gradient40" r="819.2" spreadMethod="pad">
      <stop offset="0.0" stop-color="#030303"/>
      <stop offset="1.0" stop-color="#030303"/>
    </radialGradient>
    <radialGradient cx="0" cy="0" gradientTransform="matrix(0.0171, 0.0, 0.0, 0.0171, -22.1, -235.95)" gradientUnits="userSpaceOnUse" id="gradient41" r="819.2" spreadMethod="pad">
      <stop offset="0.0" stop-color="#040404"/>
      <stop offset="1.0" stop-color="#040404"/>
    </radialGradient>
    <radialGradient cx="0" cy="0" gradientTransform="matrix(0.0174, 0.0, 0.0, 0.0174, -21.7, -236.0)" gradientUnits="userSpaceOnUse" id="gradient42" r="819.2" spreadMethod="pad">
      <stop offset="0.0" stop-color="#030303"/>
      <stop offset="1.0" stop-color="#030303"/>
    </radialGradient>
    <radialGradient cx="0" cy="0" gradientTransform="matrix(0.0125, 0.0, 0.0, 0.0125, -3.2, -233.3)" gradientUnits="userSpaceOnUse" id="gradient43" r="819.2" spreadMethod="pad">
      <stop offset="0.0" stop-color="#1f1f1f"/>
      <stop offset="1.0" stop-color="#080808"/>
    </radialGradient>
    <radialGradient cx="0" cy="0" gradientTransform="matrix(0.0109, 0.0, 0.0, 0.0109, -3.1, -227.75)" gradientUnits="userSpaceOnUse" id="gradient44" r="819.2" spreadMethod="pad">
      <stop offset="0.0" stop-color="#2d2d2d"/>
      <stop offset="1.0" stop-color="#2a2a2a"/>
    </radialGradient>
    <radialGradient cx="0" cy="0" gradientTransform="matrix(0.0555, 0.0, 0.0, 0.0555, -295.65, -193.95)" gradientUnits="userSpaceOnUse" id="gradient45" r="819.2" spreadMethod="pad">
      <stop offset="0.0" stop-color="#171717"/>
      <stop offset="1.0" stop-color="#000000"/>
    </radialGradient>
    <radialGradient cx="0" cy="0" gradientTransform="matrix(0.094, 0.0, 0.0, 0.094, -346.2, -166.7)" gradientUnits="userSpaceOnUse" id="gradient46" r="819.2" spreadMethod="pad">
      <stop offset="0.0" stop-color="#6a6a6a"/>
      <stop offset="1.0" stop-color="#000000"/>
    </radialGradient>
    <radialGradient cx="0" cy="0" gradientTransform="matrix(0.0305, 0.0, 0.0, 0.0305, -304.7, -233.4)" gradientUnits="userSpaceOnUse" id="gradient47" r="819.2" spreadMethod="pad">
      <stop offset="0.0" stop-color="#0d0d0d"/>
      <stop offset="1.0" stop-color="#000000"/>
    </radialGradient>
    <radialGradient cx="0" cy="0" gradientTransform="matrix(0.1235, 0.0, 0.0, 0.1235, -389.25, -177.8)" gradientUnits="userSpaceOnUse" id="gradient48" r="819.2" spreadMethod="pad">
      <stop offset="0.0" stop-color="#262626"/>
      <stop offset="1.0" stop-color="#040404"/>
    </radialGradient>
    <radialGradient cx="0" cy="0" gradientTransform="matrix(0.0699, 0.0, 0.0, 0.0699, -135.2, -209.75)" gradientUnits="userSpaceOnUse" id="gradient49" r="819.2" spreadMethod="pad">
      <stop offset="0.0" stop-color="#000000"/>
      <stop offset="1.0" stop-color="#000000"/>
    </radialGradient>
    <radialGradient cx="0" cy="0" gradientTransform="matrix(0.0269, 0.0, 0.0, 0.0269, -83.25, -185.55)" gradientUnits="userSpaceOnUse" id="gradient50" r="819.2" spreadMethod="pad">
      <stop offset="0.0" stop-color="#000000"/>
      <stop offset="1.0" stop-color="#000000"/>
    </radialGradient>
    <radialGradient cx="0" cy="0" gradientTransform="matrix(0.0609, 0.0, 0.0, 0.0609, -42.9, -194.45)" gradientUnits="userSpaceOnUse" id="gradient51" r="819.2" spreadMethod="pad">
      <stop offset="0.0" stop-color="#000000"/>
      <stop offset="1.0" stop-color="#000000"/>
    </radialGradient>
    <radialGradient cx="0" cy="0" gradientTransform="matrix(0.0417, 0.0, 0.0, 0.0417, -11.0, -182.2)" gradientUnits="userSpaceOnUse" id="gradient52" r="819.2" spreadMethod="pad">
      <stop offset="0.0" stop-color="#000000"/>
      <stop offset="1.0" stop-color="#000000"/>
    </radialGradient>
    <radialGradient cx="0" cy="0" gradientTransform="matrix(0.0251, 0.0, 0.0, 0.0251, -42.9, -194.45)" gradientUnits="userSpaceOnUse" id="gradient53" r="819.2" spreadMethod="pad">
      <stop offset="0.0" stop-color="#000000"/>
      <stop offset="1.0" stop-color="#000000"/>
    </radialGradient>
    <radialGradient cx="0" cy="0" gradientTransform="matrix(0.0659, 0.0, 0.0, 0.0659, -56.35, -156.65)" gradientUnits="userSpaceOnUse" id="gradient54" r="819.2" spreadMethod="pad">
      <stop offset="0.0" stop-color="#161616"/>
      <stop offset="1.0" stop-color="#000000"/>
    </radialGradient>
    <radialGradient cx="0" cy="0" gradientTransform="matrix(0.0416, 0.0, 0.0, 0.0416, -56.35, -156.65)" gradientUnits="userSpaceOnUse" id="gradient55" r="819.2" spreadMethod="pad">
      <stop offset="0.0" stop-color="#161616"/>
      <stop offset="1.0" stop-color="#000000"/>
    </radialGradient>
    <radialGradient cx="0" cy="0" gradientTransform="matrix(0.0202, 0.0, 0.0, 0.0202, -389.25, -177.8)" gradientUnits="userSpaceOnUse" id="gradient56" r="819.2" spreadMethod="pad">
      <stop offset="0.0" stop-color="#262626"/>
      <stop offset="1.0" stop-color="#111111"/>
    </radialGradient>
    <radialGradient cx="0" cy="0" gradientTransform="matrix(0.0686, 0.0, 0.0, 0.0686, -389.95, -117.75)" gradientUnits="userSpaceOnUse" id="gradient57" r="819.2" spreadMethod="pad">
      <stop offset="0.0" stop-color="#393939"/>
      <stop offset="1.0" stop-color="#000000"/>
    </radialGradient>
    <radialGradient cx="0" cy="0" gradientTransform="matrix(0.0927, 0.0, 0.0, 0.0927, -351.7, -71.15)" gradientUnits="userSpaceOnUse" id="gradient58" r="819.2" spreadMethod="pad">
      <stop offset="0.0" stop-color="#505050"/>
      <stop offset="1.0" stop-color="#2e2e2e"/>
    </radialGradient>
    <radialGradient cx="0" cy="0" gradientTransform="matrix(0.0385, 0.0, 0.0, 0.0385, -312.25, -61.25)" gradientUnits="userSpaceOnUse" id="gradient59" r="819.2" spreadMethod="pad">
      <stop offset="0.0" stop-color="#858585"/>
      <stop offset="1.0" stop-color="#2c2c2c"/>
    </radialGradient>
    <radialGradient cx="0" cy="0" gradientTransform="matrix(0.0736, 0.0, 0.0, 0.0736, -351.7, -71.15)" gradientUnits="userSpaceOnUse" id="gradient60" r="819.2" spreadMethod="pad">
      <stop offset="0.0" stop-color="#505050"/>
      <stop offset="1.0" stop-color="#131313"/>
    </radialGradient>
    <radialGradient cx="0" cy="0" gradientTransform="matrix(0.0612, 0.0, 0.0, 0.0612, -328.35, -83.65)" gradientUnits="userSpaceOnUse" id="gradient61" r="819.2" spreadMethod="pad">
      <stop offset="0.0" stop-color="#3a3a3a"/>
      <stop offset="1.0" stop-color="#000000"/>
    </radialGradient>
    <radialGradient cx="0" cy="0" gradientTransform="matrix(0.0463, 0.0, 0.0, 0.0463, -354.0, -114.35)" gradientUnits="userSpaceOnUse" id="gradient62" r="819.2" spreadMethod="pad">
      <stop offset="0.0" stop-color="#292929"/>
      <stop offset="1.0" stop-color="#010101"/>
    </radialGradient>
    <radialGradient cx="0" cy="0" gradientTransform="matrix(0.0204, 0.0, 0.0, 0.0204, -368.1, -149.6)" gradientUnits="userSpaceOnUse" id="gradient63" r="819.2" spreadMethod="pad">
      <stop offset="0.0" stop-color="#010101"/>
      <stop offset="1.0" stop-color="#000000"/>
    </radialGradient>
    <radialGradient cx="0" cy="0" gradientTransform="matrix(0.0758, 0.0, 0.0, 0.0758, -288.85, -96.05)" gradientUnits="userSpaceOnUse" id="gradient64" r="819.2" spreadMethod="pad">
      <stop offset="0.0" stop-color="#838383"/>
      <stop offset="1.0" stop-color="#212121"/>
    </radialGradient>
    <radialGradient cx="0" cy="0" gradientTransform="matrix(0.0209, 0.0, 0.0, 0.0209, -300.5, -147.65)" gradientUnits="userSpaceOnUse" id="gradient65" r="819.2" spreadMethod="pad">
      <stop offset="0.0" stop-color="#626262"/>
      <stop offset="1.0" stop-color="#373737"/>
    </radialGradient>
    <radialGradient cx="0" cy="0" gradientTransform="matrix(0.1322, 0.0, 0.0, 0.1322, -205.2, -34.95)" gradientUnits="userSpaceOnUse" id="gradient66" r="819.2" spreadMethod="pad">
      <stop offset="0.0" stop-color="#3f3f3f"/>
      <stop offset="1.0" stop-color="#010101"/>
    </radialGradient>
    <radialGradient cx="0" cy="0" gradientTransform="matrix(0.0439, 0.0, 0.0, 0.0439, -193.15, -1.0)" gradientUnits="userSpaceOnUse" id="gradient67" r="819.2" spreadMethod="pad">
      <stop offset="0.0" stop-color="#555555"/>
      <stop offset="1.0" stop-color="#4c4c4c"/>
    </radialGradient>
    <radialGradient cx="0" cy="0" gradientTransform="matrix(0.0529, 0.0, 0.0, 0.0529, -190.85, -1.0)" gradientUnits="userSpaceOnUse" id="gradient68" r="819.2" spreadMethod="pad">
      <stop offset="0.0" stop-color="#191919"/>
      <stop offset="1.0" stop-color="#000000"/>
    </radialGradient>
    <radialGradient cx="0" cy="0" gradientTransform="matrix(0.0484, 0.0, 0.0, 0.0484, -304.55, -1.0)" gradientUnits="userSpaceOnUse" id="gradient69" r="819.2" spreadMethod="pad">
      <stop offset="0.0" stop-color="#545454"/>
      <stop offset="1.0" stop-color="#1d1d1d"/>
    </radialGradient>
    <radialGradient cx="0" cy="0" gradientTransform="matrix(0.1091, 0.0, 0.0, 0.1091, -304.55, -1.0)" gradientUnits="userSpaceOnUse" id="gradient70" r="819.2" spreadMethod="pad">
      <stop offset="0.0" stop-color="#545454"/>
      <stop offset="1.0" stop-color="#000000"/>
    </radialGradient>
  </defs>
</svg>
