<?xml version="1.0" encoding="UTF-8" standalone="no"?>
<svg xmlns:xlink="http://www.w3.org/1999/xlink" height="299.1px" width="399.1px" xmlns="http://www.w3.org/2000/svg">
  <g transform="matrix(1.0, 0.0, 0.0, 1.0, 400.0, 300.0)">
    <path d="M-256.4 -250.9 L-257.4 -252.4 -279.5 -251.9 -299.4 -266.5 -310.25 -281.0 -308.15 -279.75 -307.75 -280.0 -314.5 -290.75 -309.75 -285.4 -308.15 -283.0 -306.4 -281.4 -312.75 -295.25 Q-313.5 -295.9 -312.4 -300.0 L-299.25 -300.0 -294.65 -290.25 -286.4 -279.25 -269.0 -264.15 -257.65 -258.15 -252.65 -256.25 -252.5 -256.15 -252.5 -255.9 -252.75 -252.9 -256.4 -250.9 M-177.4 -249.25 L-184.5 -249.5 -191.25 -250.75 -199.25 -244.9 -210.65 -247.5 -214.4 -249.5 -214.4 -252.4 -214.4 -252.75 Q-197.75 -255.4 -179.15 -268.75 L-169.5 -278.5 -163.15 -288.4 -163.25 -278.15 -158.9 -278.15 -156.9 -277.75 -162.25 -266.5 -163.0 -264.15 -168.4 -259.0 -177.4 -249.25 M-150.0 -289.5 L-162.65 -278.65 -162.9 -278.75 -156.15 -295.75 -150.0 -289.5" fill="url(#gradient0)" fill-rule="evenodd" stroke="none"/>
    <path d="M-299.25 -300.0 L-162.9 -300.0 -163.15 -288.4 -169.5 -278.5 -179.15 -268.75 Q-197.75 -255.4 -214.4 -252.75 L-214.4 -257.0 -216.9 -258.75 -220.5 -261.0 -219.75 -259.4 -225.4 -262.0 -228.75 -262.0 -235.65 -262.9 -242.65 -262.75 -246.25 -263.15 Q-246.65 -262.25 -252.15 -260.5 L-252.25 -258.9 -252.5 -258.0 -252.5 -256.75 -252.65 -256.25 -257.65 -258.15 -269.0 -264.15 -286.4 -279.25 -294.65 -290.25 -299.25 -300.0" fill="url(#gradient1)" fill-rule="evenodd" stroke="none"/>
    <path d="M-252.25 -258.9 L-252.15 -260.5 Q-246.65 -262.25 -246.25 -263.15 L-242.65 -262.75 -235.65 -262.9 -228.75 -262.0 -225.4 -262.0 -219.75 -259.4 -217.4 -255.4 -217.4 -252.9 -217.75 -251.4 -220.5 -252.25 -251.75 -253.4 -252.75 -252.9 -252.5 -255.9 -252.5 -256.15 -252.65 -256.25 -252.5 -256.75 -252.25 -258.9" fill="url(#gradient2)" fill-rule="evenodd" stroke="none"/>
    <path d="M-252.5 -256.75 L-252.5 -258.0 -252.25 -258.9 -252.5 -256.75" fill="url(#gradient3)" fill-rule="evenodd" stroke="none"/>
    <path d="M-219.75 -259.4 L-220.5 -261.0 -216.9 -258.75 -217.4 -255.4 -219.75 -259.4" fill="url(#gradient4)" fill-rule="evenodd" stroke="none"/>
    <path d="M-216.9 -258.75 L-214.4 -257.0 -214.4 -252.75 -214.5 -252.75 -214.75 -249.75 -217.15 -251.0 -217.4 -252.9 -217.4 -255.4 -216.9 -258.75" fill="url(#gradient5)" fill-rule="evenodd" stroke="none"/>
    <path d="M-162.9 -300.0 L-138.15 -299.75 -140.75 -292.15 -150.4 -275.0 -162.15 -261.25 -177.4 -249.25 -168.4 -259.0 -163.0 -264.15 -162.25 -266.5 -156.9 -277.75 -158.9 -278.15 -163.25 -278.15 -163.15 -288.4 -162.9 -300.0 M-150.0 -289.5 L-156.15 -295.75 -162.9 -278.75 -162.65 -278.65 -150.0 -289.5" fill="url(#gradient6)" fill-rule="evenodd" stroke="none"/>
    <path d="M-315.5 -291.9 L-315.65 -292.15 -319.25 -300.0 -312.4 -300.0 Q-313.5 -295.9 -312.75 -295.25 L-306.4 -281.4 -308.15 -283.0 -309.75 -285.4 -314.5 -290.75 -314.65 -290.9 -315.25 -291.65 -315.5 -291.9" fill="url(#gradient7)" fill-rule="evenodd" stroke="none"/>
    <path d="M-310.25 -281.0 L-315.5 -291.9 -315.25 -291.65 -314.65 -290.9 -314.5 -290.75 -307.75 -280.0 -308.15 -279.75 -310.25 -281.0" fill="url(#gradient8)" fill-rule="evenodd" stroke="none"/>
    <path d="M-258.5 -249.75 L-256.4 -250.9 -252.75 -252.9 -251.75 -253.4 -220.5 -252.25 -217.75 -251.4 -217.15 -251.0 -214.75 -249.75 -214.4 -249.5 -210.65 -247.5 -210.65 -247.25 -211.15 -247.15 -210.9 -246.75 -209.75 -245.65 -195.15 -214.75 -195.15 -214.15 -194.4 -213.15 -192.5 -204.4 Q-206.15 -216.25 -225.75 -212.4 -243.5 -208.25 -245.9 -194.75 L-245.15 -188.75 Q-246.65 -188.15 -248.4 -178.4 L-247.4 -169.65 -244.4 -163.25 Q-245.4 -162.0 -242.25 -153.0 L-237.25 -146.0 -233.65 -143.25 -222.65 -139.5 -215.75 -135.0 -214.4 -134.65 -267.4 -137.25 -279.15 -136.9 -276.25 -138.75 -275.15 -139.75 -274.25 -142.65 -271.25 -144.0 Q-268.9 -147.75 -264.65 -149.65 L-259.65 -156.4 -257.9 -163.65 -252.25 -172.5 -250.4 -180.5 -251.4 -189.0 -248.5 -194.75 -248.25 -196.25 Q-248.15 -203.25 -252.0 -208.5 L-256.9 -213.15 Q-263.65 -215.5 -263.75 -216.65 L-268.9 -217.9 -274.5 -218.0 -280.4 -217.25 -260.0 -247.25 -258.25 -247.4 -257.4 -249.15 -258.25 -249.0 -258.75 -249.0 -258.5 -249.5 -258.5 -249.75 M-199.0 -136.25 L-199.9 -134.0 -204.9 -134.15 -199.0 -136.25 M-283.65 -136.65 L-286.25 -136.5 -286.5 -136.9 -286.75 -137.65 -283.65 -136.65" fill="url(#gradient9)" fill-rule="evenodd" stroke="none"/>
    <path d="M-214.4 -252.4 L-214.4 -249.5 -214.75 -249.75 -214.5 -252.75 -214.4 -252.4 M-217.15 -251.0 L-217.75 -251.4 -217.4 -252.9 -217.15 -251.0" fill="url(#gradient10)" fill-rule="evenodd" stroke="none"/>
    <path d="M-1.25 -261.0 L-1.15 -261.25 -0.9 -261.0 -1.25 -261.0" fill="url(#gradient11)" fill-rule="evenodd" stroke="none"/>
    <path d="M-0.9 -261.0 L-1.0 -258.25 -3.5 -257.65 -2.5 -259.75 -1.25 -261.0 -0.9 -261.0" fill="url(#gradient12)" fill-rule="evenodd" stroke="none"/>
    <path d="M-7.65 -256.75 L-7.5 -256.75 -7.25 -256.5 -6.9 -256.75 -7.65 -255.4 -7.9 -255.75 -8.0 -256.5 -7.75 -256.75 -7.65 -256.75 M-6.9 -254.65 L-6.25 -255.5 -5.85 -256.0 -5.4 -256.65 -5.0 -256.0 -5.85 -256.0 -4.9 -255.65 -6.25 -255.5 -6.15 -255.25 -4.75 -255.25 -4.65 -254.75 -4.15 -255.25 -3.5 -255.25 -3.15 -255.4 Q-2.65 -256.75 -5.25 -257.15 L-3.5 -257.65 -1.0 -258.25 -0.9 -258.15 -0.9 -255.25 -1.5 -253.9 -1.9 -250.25 -2.15 -249.0 -6.9 -254.65 M-6.4 -254.4 L-5.9 -253.9 -4.25 -254.25 -6.4 -254.4 M-7.4 -256.15 L-7.4 -256.5 -7.75 -256.5 -7.4 -256.15 M-1.65 -256.0 L-2.15 -255.9 -2.0 -255.5 -1.65 -256.0 M-1.15 -257.5 L-1.75 -257.75 -2.0 -257.5 -1.15 -257.5 M-2.9 -257.5 L-3.15 -257.25 -1.25 -257.25 -2.9 -257.5 M-2.75 -255.5 L-2.5 -256.15 -3.0 -256.0 -2.75 -255.5 M-3.9 -253.4 L-3.5 -253.75 -5.4 -253.65 -3.9 -253.4 M-3.4 -252.5 L-3.0 -252.9 -3.75 -252.9 -3.4 -252.5 M-3.15 -251.75 L-2.9 -251.4 -2.4 -251.75 -3.15 -251.75" fill="url(#gradient13)" fill-rule="evenodd" stroke="none"/>
    <path d="M-2.15 -248.65 L-2.15 -249.0 -1.9 -250.25 -1.5 -253.9 -0.9 -255.25 -0.9 -245.65 -2.25 -246.0 -2.4 -246.0 -2.5 -246.15 -1.9 -248.5 -2.15 -248.65" fill="url(#gradient14)" fill-rule="evenodd" stroke="none"/>
    <path d="M-7.65 -255.4 L-6.9 -254.65 -2.15 -249.0 -2.15 -248.65 -6.15 -246.75 -6.25 -246.75 -10.75 -252.15 -11.75 -253.75 -11.25 -254.65 -10.9 -254.9 -10.65 -255.0 -10.25 -255.25 -10.15 -255.4 -10.0 -255.4 -9.75 -255.5 -9.15 -255.9 -8.9 -256.0 -8.25 -256.4 -8.0 -256.5 -7.9 -255.75 -7.65 -255.4 M-8.9 -255.25 L-8.25 -255.75 -8.75 -255.75 -8.9 -255.25" fill="url(#gradient15)" fill-rule="evenodd" stroke="none"/>
    <path d="M-7.65 -255.4 L-6.9 -256.75 -7.25 -256.5 -7.5 -256.75 -7.65 -256.75 -6.9 -257.25 -5.5 -257.15 -5.25 -257.15 Q-2.65 -256.75 -3.15 -255.4 L-3.5 -255.25 -4.15 -255.25 -4.65 -254.75 -4.75 -255.25 -6.15 -255.25 -6.25 -255.5 -4.9 -255.65 -5.85 -256.0 -5.0 -256.0 -5.4 -256.65 -5.85 -256.0 -6.25 -255.5 -6.9 -254.65 -7.65 -255.4 M-7.4 -256.15 L-7.75 -256.5 -7.4 -256.5 -7.4 -256.15 M-6.4 -254.4 L-4.25 -254.25 -5.9 -253.9 -6.4 -254.4 M-2.9 -257.5 L-1.25 -257.25 -3.15 -257.25 -2.9 -257.5 M-1.15 -257.5 L-2.0 -257.5 -1.75 -257.75 -1.15 -257.5 M-1.65 -256.0 L-2.0 -255.5 -2.15 -255.9 -1.65 -256.0 M-2.75 -255.5 L-3.0 -256.0 -2.5 -256.15 -2.75 -255.5 M-3.15 -251.75 L-2.4 -251.75 -2.9 -251.4 -3.15 -251.75 M-3.4 -252.5 L-3.75 -252.9 -3.0 -252.9 -3.4 -252.5 M-3.9 -253.4 L-5.4 -253.65 -3.5 -253.75 -3.9 -253.4" fill="url(#gradient16)" fill-rule="evenodd" stroke="none"/>
    <path d="M-6.25 -246.75 L-6.15 -246.75 -2.15 -248.65 -1.9 -248.5 -2.5 -246.15 -3.15 -245.75 -3.4 -245.65 -3.5 -245.65 -4.25 -245.25 -6.5 -244.4 -6.25 -246.75" fill="url(#gradient17)" fill-rule="evenodd" stroke="none"/>
    <path d="M-15.5 -237.5 L-12.75 -240.25 -6.5 -244.25 -6.5 -244.4 -4.25 -245.25 -3.5 -245.65 -8.9 -242.15 Q-12.25 -239.65 -12.15 -238.9 L-15.5 -237.5" fill="url(#gradient18)" fill-rule="evenodd" stroke="none"/>
    <path d="M-0.9 -245.65 L-0.9 -243.5 -2.75 -242.0 -8.75 -240.5 -11.25 -239.4 -11.75 -238.75 -11.4 -237.9 -11.9 -237.9 -12.15 -238.9 Q-12.25 -239.65 -8.9 -242.15 L-3.5 -245.65 -3.4 -245.65 -3.15 -245.75 -2.5 -246.15 -2.4 -246.0 -2.25 -246.0 -0.9 -245.65 M-3.15 -240.25 L-3.4 -240.15 -3.5 -240.15 -3.15 -240.25 M-1.75 -240.5 L-2.25 -240.5 -1.4 -240.75 -0.9 -240.65 -1.75 -240.5 M-2.25 -240.5 L-2.5 -240.4 -2.65 -240.4 -2.25 -240.5" fill="url(#gradient19)" fill-rule="evenodd" stroke="none"/>
    <path d="M-14.65 -236.4 L-14.75 -236.4 -14.85 -236.35 -15.4 -236.25 -15.5 -237.5 -12.15 -238.9 -11.9 -237.9 -11.9 -237.75 -12.0 -237.65 -13.5 -237.0 -13.9 -236.9 -14.0 -236.75 -14.65 -236.4" fill="url(#gradient20)" fill-rule="evenodd" stroke="none"/>
    <path d="M-8.9 -255.25 L-8.75 -255.75 -8.25 -255.75 -8.9 -255.25" fill="url(#gradient21)" fill-rule="evenodd" stroke="none"/>
    <path d="M-214.4 -252.75 L-214.4 -252.4 -214.5 -252.75 -214.4 -252.75" fill="url(#gradient22)" fill-rule="evenodd" stroke="none"/>
    <path d="M-289.15 -241.25 L-258.5 -249.75 -258.5 -249.5 -259.65 -248.75 -261.5 -248.5 -261.4 -247.75 -293.4 -226.5 -289.15 -241.25" fill="url(#gradient23)" fill-rule="evenodd" stroke="none"/>
    <path d="M-305.9 -235.5 L-289.15 -241.25 -293.4 -226.5 -293.0 -212.9 -299.4 -208.75 -303.25 -205.0 -309.15 -216.5 -305.9 -235.5" fill="url(#gradient24)" fill-rule="evenodd" stroke="none"/>
    <path d="M-314.25 -177.15 L-330.25 -169.9 -349.4 -156.4 -352.9 -155.0 -367.65 -149.65 -384.15 -163.5 -393.25 -174.5 -371.9 -185.5 -345.25 -202.9 -321.4 -217.9 -309.65 -231.4 -309.15 -231.9 -305.9 -235.5 -309.15 -216.5 -303.25 -205.0 -305.4 -202.9 -309.75 -196.4 -312.75 -188.9 -314.25 -180.65 -314.25 -177.15" fill="url(#gradient25)" fill-rule="evenodd" stroke="none"/>
    <path d="M-309.4 -231.75 L-309.15 -231.9 -309.65 -231.4 -309.4 -231.75" fill="url(#gradient26)" fill-rule="evenodd" stroke="none"/>
    <path d="M-391.25 -177.15 L-390.25 -178.4 -370.65 -193.9 -347.75 -210.0 -325.25 -223.65 -309.4 -231.75 -309.65 -231.4 -321.4 -217.9 -345.25 -202.9 -371.9 -185.5 -393.25 -174.5 -391.25 -177.15" fill="url(#gradient27)" fill-rule="evenodd" stroke="none"/>
    <path d="M-399.9 -167.0 L-400.0 -167.9 -391.25 -177.15 -393.25 -174.5 -399.9 -167.0" fill="url(#gradient28)" fill-rule="evenodd" stroke="none"/>
    <path d="M-400.0 -127.9 L-399.9 -167.0 -393.25 -174.5 -384.15 -163.5 -367.65 -149.65 -367.65 -149.25 -367.5 -149.0 -367.25 -148.25 -364.5 -133.4 -358.25 -122.5 -379.15 -121.25 -390.25 -116.75 -400.0 -127.9" fill="url(#gradient29)" fill-rule="evenodd" stroke="none"/>
    <path d="M-293.0 -212.9 L-293.4 -226.5 -261.4 -247.75 -260.0 -247.25 -280.4 -217.25 -283.25 -216.9 -293.0 -212.9 M-259.65 -248.75 L-258.5 -249.5 -258.75 -249.0 -259.65 -248.75" fill="url(#gradient30)" fill-rule="evenodd" stroke="none"/>
    <path d="M-210.65 -247.25 L-207.25 -246.5 -208.5 -246.25 -208.75 -245.5 -209.75 -245.65 -210.9 -246.75 -211.15 -247.15 -210.65 -247.25 M-261.4 -247.75 L-261.5 -248.5 -259.65 -248.75 -258.75 -249.0 -258.25 -249.0 -257.4 -249.15 -258.25 -247.4 -260.0 -247.25 -261.4 -247.75" fill="url(#gradient31)" fill-rule="evenodd" stroke="none"/>
    <path d="M-199.25 -244.9 L-175.4 -238.9 -170.65 -224.15 -168.9 -198.15 -169.15 -197.75 -179.0 -187.25 -177.9 -211.15 -208.75 -245.5 -208.5 -246.25 -207.25 -246.5 -210.65 -247.25 -210.65 -247.5 -199.25 -244.9" fill="url(#gradient32)" fill-rule="evenodd" stroke="none"/>
    <path d="M-180.25 -155.4 L-181.0 -140.15 -181.4 -141.25 -181.9 -141.25 -199.9 -134.0 -199.0 -136.25 Q-189.4 -139.0 -180.25 -155.4 M-208.75 -245.5 L-177.9 -211.15 -179.0 -187.25 -178.9 -185.65 Q-181.9 -195.4 -192.5 -204.4 L-194.4 -213.15 -195.15 -214.15 -195.15 -214.75 -209.75 -245.65 -208.75 -245.5" fill="url(#gradient33)" fill-rule="evenodd" stroke="none"/>
    <path d="M-177.65 -180.5 Q-174.65 -171.4 -180.25 -155.4 -189.4 -139.0 -199.0 -136.25 L-204.9 -134.15 -211.0 -133.9 -214.4 -134.65 -215.75 -135.0 -222.65 -139.5 -233.65 -143.25 -237.25 -146.0 -242.25 -153.0 Q-245.4 -162.0 -244.4 -163.25 L-247.4 -169.65 -248.4 -178.4 Q-246.65 -188.15 -245.15 -188.75 L-245.9 -194.75 Q-243.5 -208.25 -225.75 -212.4 -206.15 -216.25 -192.5 -204.4 -181.9 -195.4 -178.9 -185.65 L-177.65 -180.5" fill="url(#gradient34)" fill-rule="evenodd" stroke="none"/>
    <path d="M-204.9 -134.15 L-199.9 -134.0 -213.15 -90.65 -217.0 -26.5 -231.5 -25.75 -273.75 -28.5 -284.25 -30.75 -284.4 -31.0 -279.65 -94.5 -286.25 -136.5 -283.65 -136.65 -279.15 -136.9 -267.4 -137.25 -214.4 -134.65 -211.0 -133.9 -204.9 -134.15" fill="url(#gradient35)" fill-rule="evenodd" stroke="none"/>
    <path d="M-296.4 -142.4 Q-312.75 -154.15 -314.25 -177.15 L-314.25 -180.65 -312.75 -188.9 -309.75 -196.4 -305.4 -202.9 -303.25 -205.0 -299.4 -208.75 -293.0 -212.9 -283.25 -216.9 -280.4 -217.25 -274.5 -218.0 -268.9 -217.9 -263.75 -216.65 Q-263.65 -215.5 -256.9 -213.15 L-252.0 -208.5 Q-248.15 -203.25 -248.25 -196.25 L-248.5 -194.75 -251.4 -189.0 -250.4 -180.5 -252.25 -172.5 -257.9 -163.65 -259.65 -156.4 -264.65 -149.65 Q-268.9 -147.75 -271.25 -144.0 L-274.25 -142.65 -275.15 -139.75 -276.25 -138.75 -279.15 -136.9 -283.65 -136.65 -286.75 -137.65 -287.65 -137.9 -291.0 -139.15 -296.4 -142.4" fill="url(#gradient36)" fill-rule="evenodd" stroke="none"/>
    <path d="M-0.9 -243.5 L-0.9 -240.65 -1.4 -240.75 -2.25 -240.5 -2.65 -240.4 -2.9 -240.25 -3.15 -240.25 -3.5 -240.15 -3.75 -240.15 -3.9 -240.0 -4.25 -240.0 -4.4 -239.9 -4.65 -239.9 -4.75 -239.75 -5.15 -239.75 -5.25 -239.65 -5.65 -239.5 -6.0 -239.5 -6.15 -239.4 -6.5 -239.25 -8.25 -238.75 -8.5 -238.75 -11.4 -237.9 -11.75 -238.75 -11.25 -239.4 -8.75 -240.5 -2.75 -242.0 -0.9 -243.5" fill="url(#gradient37)" fill-rule="evenodd" stroke="none"/>
    <path d="M-5.0 -239.0 L-11.5 -237.25 -8.5 -238.75 -8.25 -238.75 -6.5 -239.25 -6.15 -239.4 -6.0 -239.4 -6.0 -239.5 -5.65 -239.5 -5.25 -239.65 -5.15 -239.65 -5.15 -239.75 -4.75 -239.75 -4.65 -239.75 -4.65 -239.9 -4.4 -239.9 -4.25 -239.9 -4.25 -240.0 -3.9 -240.0 -3.75 -240.0 -3.75 -240.15 -3.5 -240.15 -3.4 -240.15 -3.15 -240.25 -2.9 -240.25 -2.65 -240.4 -2.5 -240.4 -2.25 -240.5 -1.75 -240.5 -5.0 -239.0 M-14.85 -236.35 L-15.15 -236.25 -15.4 -236.25 -14.85 -236.35" fill="url(#gradient38)" fill-rule="evenodd" stroke="none"/>
    <path d="M-11.5 -237.25 L-14.65 -236.4 -14.0 -236.75 -13.9 -236.9 -13.5 -237.0 -12.0 -237.65 -11.9 -237.75 -11.9 -237.9 -11.4 -237.9 -8.5 -238.75 -11.5 -237.25 M-3.75 -240.15 L-3.75 -240.0 -3.9 -240.0 -3.75 -240.15 M-4.25 -240.0 L-4.25 -239.9 -4.4 -239.9 -4.25 -240.0 M-4.65 -239.9 L-4.65 -239.75 -4.75 -239.75 -4.65 -239.9 M-5.15 -239.75 L-5.15 -239.65 -5.25 -239.65 -5.15 -239.75 M-6.0 -239.5 L-6.0 -239.4 -6.15 -239.4 -6.0 -239.5" fill="url(#gradient39)" fill-rule="evenodd" stroke="none"/>
    <path d="M-0.9 -240.65 L-1.15 -238.4 -5.0 -239.0 -1.75 -240.5 -0.9 -240.65" fill="url(#gradient40)" fill-rule="evenodd" stroke="none"/>
    <path d="M-175.4 -238.9 L-174.25 -238.75 -156.75 -226.15 -156.4 -224.0 -175.4 -238.9" fill="url(#gradient41)" fill-rule="evenodd" stroke="none"/>
    <path d="M-170.65 -224.15 L-175.4 -238.9 -156.4 -224.0 -170.65 -224.15" fill="url(#gradient42)" fill-rule="evenodd" stroke="none"/>
    <path d="M-156.75 -226.15 L-128.9 -212.75 -75.25 -188.15 -75.5 -185.65 -106.4 -200.9 -128.0 -210.15 -156.4 -224.0 -156.75 -226.15" fill="url(#gradient43)" fill-rule="evenodd" stroke="none"/>
    <path d="M-103.4 -152.5 L-116.25 -154.5 -129.65 -160.75 -145.9 -170.5 -165.9 -178.25 -169.15 -197.75 -168.9 -198.15 -170.65 -224.15 -156.4 -224.0 -128.0 -210.15 -106.4 -200.9 -75.5 -185.65 -88.5 -168.9 -103.4 -152.5" fill="url(#gradient44)" fill-rule="evenodd" stroke="none"/>
    <path d="M-165.9 -178.25 L-177.65 -180.5 -178.9 -185.65 -179.0 -187.25 -169.15 -197.75 -165.9 -178.25" fill="url(#gradient45)" fill-rule="evenodd" stroke="none"/>
    <path d="M-59.9 -189.4 L-30.4 -205.0 -1.9 -217.9 -0.9 -218.15 -0.9 -211.25 -16.25 -204.4 -35.15 -194.4 -53.4 -186.0 -53.75 -186.0 -59.9 -189.4" fill="url(#gradient46)" fill-rule="evenodd" stroke="none"/>
    <path d="M-35.15 -194.4 L-16.25 -204.4 -0.9 -211.25 -0.9 -183.65 -29.65 -168.0 -22.4 -178.0 -22.25 -178.25 -35.15 -194.4" fill="url(#gradient47)" fill-rule="evenodd" stroke="none"/>
    <path d="M-59.9 -189.4 L-53.75 -186.0 -75.5 -185.65 -75.25 -188.15 -59.9 -189.4" fill="url(#gradient48)" fill-rule="evenodd" stroke="none"/>
    <path d="M-53.4 -186.0 L-35.15 -194.4 -22.25 -178.25 -53.4 -186.0" fill="url(#gradient49)" fill-rule="evenodd" stroke="none"/>
    <path d="M-53.75 -186.0 L-53.4 -186.0 -22.25 -178.25 -22.4 -178.0 -37.9 -169.4 -49.25 -156.25 -65.25 -147.9 -103.4 -152.5 -88.5 -168.9 -75.5 -185.65 -53.75 -186.0" fill="url(#gradient50)" fill-rule="evenodd" stroke="none"/>
    <path d="M-29.65 -168.0 L-49.25 -156.25 -37.9 -169.4 -22.4 -178.0 -29.65 -168.0" fill="url(#gradient51)" fill-rule="evenodd" stroke="none"/>
    <path d="M-290.0 -36.25 L-289.65 -36.75 -286.4 -76.15 -285.4 -94.65 -296.4 -142.4 -291.0 -139.15 -287.65 -137.9 -286.5 -136.9 -286.25 -136.5 -279.65 -94.5 -284.4 -31.0 -290.0 -36.25" fill="url(#gradient52)" fill-rule="evenodd" stroke="none"/>
    <path d="M-298.65 -0.9 L-311.9 -0.9 -312.15 -1.25 -290.0 -36.25 -284.4 -31.0 -284.25 -30.75 -298.65 -0.9" fill="url(#gradient53)" fill-rule="evenodd" stroke="none"/>
    <path d="M-209.25 -0.9 L-298.65 -0.9 -284.25 -30.75 -273.75 -28.5 -231.5 -25.75 -217.0 -26.5 -209.25 -0.9" fill="url(#gradient54)" fill-rule="evenodd" stroke="none"/>
    <path d="M-198.25 -27.15 L-198.25 -27.0 -186.4 -0.9 -209.25 -0.9 -217.0 -26.5 -203.75 -29.25 -200.15 -30.75 -198.25 -27.15" fill="url(#gradient55)" fill-rule="evenodd" stroke="none"/>
    <path d="M-181.0 -140.15 L-196.75 -89.0 -199.9 -32.0 -200.15 -30.75 -203.75 -29.25 -217.0 -26.5 -213.15 -90.65 -199.9 -134.0 -181.9 -141.25 -181.4 -141.25 -181.0 -140.15" fill="url(#gradient56)" fill-rule="evenodd" stroke="none"/>
    <path d="M-199.9 -32.0 L-198.25 -27.15 -200.15 -30.75 -199.9 -32.0" fill="url(#gradient57)" fill-rule="evenodd" stroke="none"/>
    <path d="M-352.9 -155.0 L-364.75 -144.4 -366.9 -148.0 -367.25 -148.25 -367.5 -149.0 -367.65 -149.25 -367.65 -149.65 -352.9 -155.0" fill="url(#gradient58)" fill-rule="evenodd" stroke="none"/>
    <path d="M-364.75 -144.4 L-358.25 -132.75 -354.9 -118.5 -356.4 -120.4 -356.75 -120.5 -358.25 -122.5 -364.5 -133.4 -367.25 -148.25 -366.9 -148.0 -364.75 -144.4" fill="url(#gradient59)" fill-rule="evenodd" stroke="none"/>
    <path d="M-286.5 -136.9 L-287.65 -137.9 -286.75 -137.65 -286.5 -136.9" fill="url(#gradient60)" fill-rule="evenodd" stroke="none"/>
    <path d="M-358.25 -122.5 L-356.75 -120.5 -341.25 -97.15 -331.9 -85.25 -330.9 -84.5 -323.5 -74.25 -319.9 -69.9 -316.15 -64.9 -322.65 -61.75 Q-323.4 -63.9 -333.9 -64.75 L-338.5 -62.75 -340.65 -59.0 -351.15 -69.5 -366.65 -88.15 -367.5 -88.75 -378.65 -103.65 -379.65 -104.4 -390.25 -116.75 -379.15 -121.25 -358.25 -122.5" fill="url(#gradient61)" fill-rule="evenodd" stroke="none"/>
    <path d="M-354.9 -118.5 L-334.15 -92.9 -327.0 -81.9 -317.4 -72.4 -316.15 -69.15 -318.9 -70.5 -319.65 -70.5 -319.9 -69.9 -323.5 -74.25 -330.9 -84.5 -331.9 -85.25 -341.25 -97.15 -356.75 -120.5 -356.4 -120.4 -354.9 -118.5" fill="url(#gradient62)" fill-rule="evenodd" stroke="none"/>
    <path d="M-316.15 -69.15 Q-302.75 -55.5 -317.5 -43.4 -335.4 -36.25 -341.75 -52.75 L-342.0 -57.0 -341.75 -58.4 -340.65 -59.0 -338.5 -62.75 -333.9 -64.75 Q-323.4 -63.9 -322.65 -61.75 L-316.15 -64.9 -319.9 -69.9 -319.65 -70.5 -318.9 -70.5 -316.15 -69.15" fill="url(#gradient63)" fill-rule="evenodd" stroke="none"/>
    <path d="M-341.75 -52.75 L-358.4 -72.5 -372.15 -87.9 -394.9 -117.9 -400.0 -124.0 -400.0 -127.9 -390.25 -116.75 -379.65 -104.4 -378.65 -103.65 -367.5 -88.75 -366.65 -88.15 -351.15 -69.5 -340.65 -59.0 -341.75 -58.4 -342.0 -57.0 -341.75 -52.75" fill="url(#gradient64)" fill-rule="evenodd" stroke="none"/>
    <path d="M-273.9 -260.15 L-273.5 -260.25 -273.15 -260.0 -273.0 -260.25 -266.4 -260.4 -268.0 -257.5 -272.5 -259.65 -272.75 -259.65 -273.0 -259.9 -273.15 -259.75 -273.15 -260.0 -273.9 -260.15" fill="#ac0000" fill-rule="evenodd" stroke="none"/>
    <path d="M-211.0 -257.25 L-208.25 -254.25 -208.25 -254.15 -206.75 -252.4 -206.65 -252.0 -205.5 -250.65 -207.0 -248.65 -207.4 -247.4 -207.9 -247.25 -208.15 -247.0 -210.65 -247.4 -213.75 -249.25 -211.25 -253.5 -211.15 -253.75 -210.65 -254.65 -211.0 -257.25 M-205.5 -250.65 L-203.9 -253.65 -201.4 -256.5 -200.75 -256.9 -200.65 -256.9 -197.0 -249.25 -196.9 -246.65 -197.0 -246.25 -199.25 -244.9 -196.9 -244.25 -197.15 -232.65 -197.0 -232.25 -197.5 -219.9 -197.25 -218.75 -197.5 -218.15 -197.4 -217.5 -198.0 -205.25 -197.9 -204.65 -197.9 -203.65 -196.75 -203.15 -196.25 -202.65 -186.9 -197.5 -186.5 -197.0 -186.25 -196.75 -184.9 -196.25 -184.4 -195.75 -184.25 -195.75 -184.0 -195.4 -175.5 -190.75 -175.65 -190.65 -181.0 -190.25 -181.0 -190.15 -183.25 -189.9 -185.15 -189.75 -185.5 -189.65 -200.5 -188.15 -201.15 -187.9 -209.75 -187.15 -209.0 -192.65 -208.9 -192.9 -207.75 -199.9 -207.9 -200.25 -207.65 -200.9 -207.25 -203.25 -207.4 -205.0 -207.15 -206.15 -207.25 -206.5 -207.0 -206.75 -206.65 -211.15 -206.75 -211.4 -206.65 -211.65 -206.65 -212.0 -205.15 -229.65 -205.4 -230.4 -204.9 -234.9 -205.15 -236.0 -204.75 -240.75 -204.9 -241.25 -204.65 -243.9 -204.75 -244.15 -204.5 -247.4 -204.5 -249.5 -204.9 -249.9 -205.5 -250.65 M-266.4 -260.4 L-259.0 -256.25 -258.75 -255.75 -257.0 -254.65 -256.9 -254.25 -253.75 -252.25 -256.4 -250.9 -257.5 -252.4 -260.5 -252.25 -266.4 -256.65 Q-267.2 -257.05 -268.0 -257.5 L-266.4 -260.4" fill="#9b0000" fill-opacity="0.9098039" fill-rule="evenodd" stroke="none"/>
    <path d="M-314.4 -196.75 L-307.15 -200.25 -306.75 -200.65 -304.25 -201.65 -303.65 -202.15 -302.25 -202.65 -302.0 -202.9 -293.5 -206.75 -292.65 -209.0 -292.25 -209.4 -291.65 -211.0 -291.15 -211.9 -291.25 -212.15 -291.0 -212.4 -290.4 -214.0 -290.0 -214.25 -290.0 -214.4 -282.75 -230.65 -282.25 -233.65 -282.15 -234.0 -280.4 -243.75 -272.25 -245.9 -272.15 -245.5 -274.75 -230.5 -279.75 -218.5 -280.15 -217.75 -280.15 -217.65 -280.4 -217.15 -280.65 -216.9 -280.75 -216.4 -282.15 -213.15 -282.0 -213.0 -283.65 -209.15 -283.9 -208.9 -284.75 -206.4 -285.25 -203.5 -285.5 -203.25 -285.4 -202.75 -286.5 -196.65 -286.75 -196.4 -286.65 -195.9 -288.0 -188.5 -288.25 -188.25 -288.15 -187.75 -289.5 -180.25 -314.4 -196.75 M-278.75 -251.75 L-278.9 -251.9 -273.9 -260.15 -273.15 -260.0 -273.15 -259.75 -273.0 -259.9 -272.75 -259.65 -272.5 -259.65 -268.0 -257.5 -271.0 -252.0 -278.75 -251.75" fill="#9e0000" fill-opacity="0.9098039" fill-rule="evenodd" stroke="none"/>
    <path d="M-205.5 -250.65 L-206.65 -252.0 -206.75 -252.4 -208.25 -254.15 -208.25 -254.25 -211.0 -257.25 -201.25 -257.15 -200.75 -256.9 -201.4 -256.5 -203.9 -253.65 -205.5 -250.65" fill="#a90000" fill-rule="evenodd" stroke="none"/>
    <path d="M-197.0 -246.25 L-196.9 -244.25 -199.25 -244.9 -197.0 -246.25 M-256.4 -250.9 L-257.9 -250.0 -260.5 -252.25 -257.5 -252.4 -256.4 -250.9" fill="#ab0000" fill-opacity="0.9098039" fill-rule="evenodd" stroke="none"/>
    <path d="M-280.4 -243.75 L-278.75 -251.75 -271.0 -252.0 -272.25 -245.9 -280.4 -243.75" fill="#ae0000" fill-opacity="0.9098039" fill-rule="evenodd" stroke="none"/>
    <path d="M-175.5 -190.65 L-175.4 -190.25 -175.5 -189.0 -175.65 -188.4 -175.5 -187.25 -175.9 -183.0 -175.75 -182.75 -175.9 -180.15 -177.65 -180.5 -177.25 -178.4 -177.4 -177.75 -176.75 -170.25 -176.9 -169.9 -176.75 -169.5 -178.0 -162.15 -180.25 -155.4 -180.15 -155.0 -180.4 -153.0 -180.5 -152.65 -180.5 -152.25 -180.75 -151.9 -180.75 -150.75 -183.0 -144.75 -183.0 -144.25 -186.15 -134.75 -204.0 -136.0 -204.4 -136.0 -210.65 -136.5 -211.0 -136.5 -218.4 -137.15 -258.25 -138.25 -278.0 -140.15 -283.25 -139.9 -284.15 -139.75 -284.4 -139.9 -295.75 -139.4 -296.4 -142.4 -302.25 -147.65 -303.65 -149.25 -303.75 -149.4 -304.0 -149.65 -304.15 -149.9 -308.0 -155.25 -308.9 -156.75 -309.0 -157.15 -312.25 -164.4 -312.25 -164.9 -314.15 -172.5 -314.0 -172.9 -314.25 -177.15 -314.25 -180.5 -313.25 -186.75 -313.5 -186.9 -314.5 -196.15 -314.4 -196.75 -289.5 -180.25 -288.9 -179.65 -282.75 -174.9 -282.5 -174.65 -282.0 -174.4 -281.9 -174.15 -270.65 -165.5 -270.4 -165.4 -266.25 -162.25 -266.15 -161.9 -259.65 -157.15 -259.5 -156.9 -252.0 -151.15 -246.5 -153.9 -246.4 -154.15 -223.9 -165.65 -223.75 -165.9 -216.4 -169.65 -214.5 -173.9 -211.0 -183.9 -210.75 -184.15 -209.75 -187.15 -201.15 -187.9 -200.5 -188.15 -185.5 -189.65 -185.15 -189.75 -183.25 -189.9 -181.0 -190.15 -181.0 -190.25 -175.65 -190.65 -175.5 -190.65 M-208.65 -160.4 L-208.5 -160.15 -208.65 -159.9 -208.25 -158.65 -208.25 -158.15 -207.0 -159.4 -206.9 -160.25 -207.15 -160.65 -207.75 -161.25 -208.65 -160.4 M-294.65 -158.0 L-294.4 -158.0 -294.4 -158.5 -294.25 -158.65 -295.5 -162.15 -294.9 -158.15 -294.65 -158.0" fill="#b00000" fill-opacity="0.9098039" fill-rule="evenodd" stroke="none"/>
    <path d="M-175.5 -190.75 L-175.5 -190.65 -175.65 -190.65 -175.5 -190.75 M-175.4 -190.25 L-175.0 -189.75 -175.0 -189.25 -171.5 -180.9 -171.0 -179.25 -175.75 -180.15 -175.9 -180.15 -175.75 -182.75 -175.9 -183.0 -175.5 -187.25 -175.65 -188.4 -175.5 -189.0 -175.4 -190.25 M-180.5 -152.25 L-180.9 -142.0 -181.15 -140.75 -181.0 -139.75 -181.9 -136.9 -182.15 -136.65 -182.0 -136.4 -190.75 -107.75 -191.4 -106.65 -191.25 -106.4 -191.75 -105.5 -196.75 -88.9 -200.0 -32.0 -199.0 -28.9 -199.0 -28.75 -198.9 -28.65 -198.9 -28.5 -198.75 -28.15 -198.65 -27.75 -198.5 -27.5 -198.5 -27.4 -198.4 -27.15 -198.4 -27.0 -198.25 -26.75 -196.15 -21.9 -198.15 -20.75 -198.9 -20.65 -199.25 -20.5 -200.0 -20.4 -200.4 -20.25 -209.15 -18.25 -209.5 -18.25 -209.65 -18.15 -214.25 -17.15 -214.25 -18.0 -213.25 -22.4 -213.4 -22.65 -210.15 -39.75 -210.25 -40.25 -209.9 -41.5 -208.9 -60.0 -209.0 -60.75 -207.5 -80.9 -207.75 -81.75 -207.4 -87.0 -206.4 -89.75 -199.75 -104.15 -199.5 -105.25 -186.15 -134.75 -183.0 -144.25 -183.0 -144.75 -180.75 -150.75 -180.75 -151.9 -180.5 -152.25" fill="#d30000" fill-opacity="0.9098039" fill-rule="evenodd" stroke="none"/>
    <path d="M-318.5 -175.25 L-318.5 -175.5 -316.75 -184.9 -316.65 -185.15 -314.5 -196.15 -313.5 -186.9 -313.25 -186.75 -314.25 -180.5 -314.25 -177.15 -316.15 -176.4 -318.5 -175.25" fill="#c30000" fill-rule="evenodd" stroke="none"/>
    <path d="M-319.75 -167.4 L-320.0 -167.9 -318.65 -174.65 -318.75 -175.0 -318.5 -175.25 -316.15 -176.4 -314.25 -177.15 -314.0 -172.9 -314.15 -172.5 -312.25 -164.9 -312.25 -164.4 -309.0 -157.15 -308.9 -156.75 -308.0 -155.25 -304.15 -149.9 -304.0 -149.65 -303.75 -149.4 -303.65 -149.25 -302.25 -147.65 -306.5 -148.4 -319.75 -167.4" fill="#c50000" fill-rule="evenodd" stroke="none"/>
    <path d="M-180.4 -153.0 L-180.15 -155.0 -180.25 -155.4 -178.0 -162.15 -176.75 -169.5 -176.9 -169.9 -176.75 -170.25 -177.4 -177.75 -177.25 -178.4 -177.65 -180.5 -175.9 -180.15 -176.4 -164.9 -180.4 -153.0" fill="#c20000" fill-opacity="0.9098039" fill-rule="evenodd" stroke="none"/>
    <path d="M-171.0 -179.25 L-166.9 -168.65 -167.65 -151.9 -174.9 -143.65 -180.9 -142.0 -180.5 -152.25 -180.5 -152.65 -180.4 -153.0 -176.4 -164.9 -175.9 -180.15 -175.75 -180.15 -171.0 -179.25 M-304.75 -0.9 L-312.15 -0.9 -312.15 -1.25 -294.25 -29.0 -293.9 -22.65 -293.75 -22.4 -296.0 -18.15 -304.65 -1.15 -304.75 -0.9" fill="#e80000" fill-opacity="0.9098039" fill-rule="evenodd" stroke="none"/>
    <path d="M-312.15 -0.9 L-316.75 -0.9 -305.15 -20.5 -301.5 -26.5 -301.4 -26.75 -300.75 -27.75 -300.75 -28.0 -300.15 -29.0 -300.0 -29.0 -299.9 -29.5 -301.75 -48.65 -298.65 -92.9 -314.25 -150.9 -319.75 -167.4 -306.5 -148.4 -300.65 -139.75 -300.25 -139.25 -291.5 -93.0 -294.9 -47.15 -294.15 -29.75 -294.25 -29.0 -312.15 -1.25 -312.15 -0.9" fill="#fd0000" fill-rule="evenodd" stroke="none"/>
    <path d="M-304.15 -22.65 L-304.15 -22.75 -303.9 -23.0 -303.9 -23.15 -302.4 -25.4 -302.25 -25.5 -302.0 -25.9 -302.0 -26.0 -300.75 -27.75 -301.4 -26.75 -301.5 -26.5 -305.15 -20.5 -305.25 -20.9 -304.15 -22.65" fill="#fe0000" fill-rule="evenodd" stroke="none"/>
    <path d="M-194.65 -23.4 L-192.9 -18.9 -193.9 -20.65 -194.75 -22.65 -194.75 -23.25 -194.65 -23.4 M-316.75 -0.9 L-319.0 -1.0 -304.15 -22.65 -305.25 -20.9 -305.15 -20.5 -316.75 -0.9" fill="#ff0000" fill-rule="evenodd" stroke="none"/>
    <path d="M-186.15 -134.75 L-199.5 -105.25 -199.75 -104.15 -206.4 -89.75 -207.4 -87.0 -207.75 -81.75 -207.5 -80.9 -209.0 -60.75 -208.9 -60.0 -209.9 -41.5 -210.25 -40.25 -210.15 -39.75 -213.4 -22.65 -213.25 -22.4 -214.25 -18.0 -214.25 -17.15 -232.0 -16.15 -282.75 -19.75 -293.75 -22.4 -293.9 -22.65 -294.25 -29.0 -294.15 -29.75 -290.0 -36.25 -289.75 -36.75 -288.15 -55.0 -288.0 -55.9 -285.4 -94.5 -285.5 -95.65 -295.75 -139.4 -284.4 -139.9 -284.15 -139.75 -283.25 -139.9 -278.0 -140.15 -258.25 -138.25 -218.4 -137.15 -211.0 -136.5 -210.65 -136.5 -204.4 -136.0 -204.0 -136.0 -186.15 -134.75" fill="#a70000" fill-opacity="0.9098039" fill-rule="evenodd" stroke="none"/>
    <path d="M-302.25 -147.65 L-296.4 -142.4 -295.75 -139.4 -300.25 -139.25 -300.65 -139.75 -306.5 -148.4 -302.25 -147.65" fill="#c60000" fill-rule="evenodd" stroke="none"/>
    <path d="M-167.65 -151.9 L-167.5 -150.4 -168.25 -141.65 -168.15 -141.4 -187.4 -86.15 -189.65 -42.9 -194.65 -23.4 -194.75 -23.25 -194.75 -22.65 -195.15 -22.4 -196.0 -26.0 -196.25 -26.65 -191.65 -46.9 -189.65 -84.0 -190.75 -107.75 -182.0 -136.4 -182.15 -136.65 -181.9 -136.9 -181.0 -139.75 -181.15 -140.75 -180.9 -142.0 -174.9 -143.65 -167.65 -151.9" fill="#ea0000" fill-rule="evenodd" stroke="none"/>
    <path d="M-295.75 -139.4 L-285.5 -95.65 -285.4 -94.5 -288.0 -55.9 -288.15 -55.0 -289.75 -36.75 -290.0 -36.25 -294.15 -29.75 -294.9 -47.15 -291.5 -93.0 -300.25 -139.25 -295.75 -139.4" fill="#bc0000" fill-rule="evenodd" stroke="none"/>
    <path d="M-192.9 -18.9 L-192.9 -18.75 -184.0 -0.9 -186.4 -0.9 -194.25 -18.5 -195.15 -22.4 -194.75 -22.65 -193.9 -20.65 -192.9 -18.9" fill="#df0000" fill-rule="evenodd" stroke="none"/>
    <path d="M-196.15 -21.9 L-198.25 -26.75 -198.4 -27.0 -198.4 -27.15 -196.25 -26.65 -196.0 -26.0 -195.15 -22.4 -196.15 -21.9" fill="#e60000" fill-rule="evenodd" stroke="none"/>
    <path d="M-198.4 -27.15 L-198.5 -27.4 -198.5 -27.5 -198.65 -27.75 -198.75 -28.15 -198.9 -28.5 -198.9 -28.65 -199.0 -28.75 -199.0 -28.9 -200.0 -32.0 -196.75 -88.9 -191.75 -105.5 -191.25 -106.4 -191.4 -106.65 -190.75 -107.75 -189.65 -84.0 -191.65 -46.9 -196.25 -26.65 -198.4 -27.15" fill="#e40000" fill-rule="evenodd" stroke="none"/>
    <path d="M-195.15 -22.4 L-194.25 -18.5 -194.65 -18.75 -196.15 -21.9 -195.15 -22.4" fill="#da0000" fill-rule="evenodd" stroke="none"/>
    <path d="M-186.4 -0.9 L-209.15 -0.9 -214.25 -17.15 -209.65 -18.15 -209.5 -18.25 -209.15 -18.25 -200.4 -20.25 -200.0 -20.4 -199.25 -20.5 -198.9 -20.65 -198.15 -20.75 -196.15 -21.9 -194.65 -18.75 -194.25 -18.5 -186.4 -0.9" fill="#c80000" fill-opacity="0.9098039" fill-rule="evenodd" stroke="none"/>
    <path d="M-209.15 -0.9 L-304.75 -0.9 -304.65 -1.15 -296.0 -18.15 -293.75 -22.4 -282.75 -19.75 -232.0 -16.15 -214.25 -17.15 -209.15 -0.9" fill="#a40000" fill-opacity="0.9098039" fill-rule="evenodd" stroke="none"/>
  </g>
  <defs>
    <radialGradient cx="0" cy="0" gradientTransform="matrix(0.1772, 0.0, 0.0, 0.1772, -174.45, -275.5)" gradientUnits="userSpaceOnUse" id="gradient0" r="819.2" spreadMethod="pad">
      <stop offset="0.0" stop-color="#555555"/>
      <stop offset="1.0" stop-color="#101010"/>
    </radialGradient>
    <radialGradient cx="0" cy="0" gradientTransform="matrix(0.0997, 0.0, 0.0, 0.0997, -219.5, -282.2)" gradientUnits="userSpaceOnUse" id="gradient1" r="819.2" spreadMethod="pad">
      <stop offset="0.0" stop-color="#7d7d7d"/>
      <stop offset="1.0" stop-color="#0a0a0a"/>
    </radialGradient>
    <radialGradient cx="0" cy="0" gradientTransform="matrix(0.0436, 0.0, 0.0, 0.0436, -252.0, -261.8)" gradientUnits="userSpaceOnUse" id="gradient2" r="819.2" spreadMethod="pad">
      <stop offset="0.0" stop-color="#1a1a1a"/>
      <stop offset="1.0" stop-color="#000000"/>
    </radialGradient>
    <radialGradient cx="0" cy="0" gradientTransform="matrix(0.0145, 0.0, 0.0, 0.0145, -252.0, -261.8)" gradientUnits="userSpaceOnUse" id="gradient3" r="819.2" spreadMethod="pad">
      <stop offset="0.0" stop-color="#1a1a1a"/>
      <stop offset="1.0" stop-color="#050505"/>
    </radialGradient>
    <radialGradient cx="0" cy="0" gradientTransform="matrix(0.0198, 0.0, 0.0, 0.0198, -225.1, -269.5)" gradientUnits="userSpaceOnUse" id="gradient4" r="819.2" spreadMethod="pad">
      <stop offset="0.0" stop-color="#797979"/>
      <stop offset="1.0" stop-color="#000000"/>
    </radialGradient>
    <radialGradient cx="0" cy="0" gradientTransform="matrix(0.2924, 0.0, 0.0, 0.2924, -214.2, -256.45)" gradientUnits="userSpaceOnUse" id="gradient5" r="819.2" spreadMethod="pad">
      <stop offset="0.0" stop-color="#101010"/>
      <stop offset="1.0" stop-color="#000000"/>
    </radialGradient>
    <radialGradient cx="0" cy="0" gradientTransform="matrix(0.0453, 0.0, 0.0, 0.0453, -150.6, -275.0)" gradientUnits="userSpaceOnUse" id="gradient6" r="819.2" spreadMethod="pad">
      <stop offset="0.0" stop-color="#393939"/>
      <stop offset="1.0" stop-color="#222222"/>
    </radialGradient>
    <radialGradient cx="0" cy="0" gradientTransform="matrix(0.0243, 0.0, 0.0, 0.0243, -312.4, -300.0)" gradientUnits="userSpaceOnUse" id="gradient7" r="819.2" spreadMethod="pad">
      <stop offset="0.0" stop-color="#2c2c2c"/>
      <stop offset="1.0" stop-color="#292929"/>
    </radialGradient>
    <radialGradient cx="0" cy="0" gradientTransform="matrix(0.0189, 0.0, 0.0, 0.0189, -315.9, -292.8)" gradientUnits="userSpaceOnUse" id="gradient8" r="819.2" spreadMethod="pad">
      <stop offset="0.0" stop-color="#262626"/>
      <stop offset="1.0" stop-color="#1c1c1c"/>
    </radialGradient>
    <radialGradient cx="0" cy="0" gradientTransform="matrix(0.1524, 0.0, 0.0, 0.1524, -268.4, -137.4)" gradientUnits="userSpaceOnUse" id="gradient9" r="819.2" spreadMethod="pad">
      <stop offset="0.0" stop-color="#6a6a6a"/>
      <stop offset="1.0" stop-color="#000000"/>
    </radialGradient>
    <radialGradient cx="0" cy="0" gradientTransform="matrix(0.0092, 0.0, 0.0, 0.0092, -214.35, -252.6)" gradientUnits="userSpaceOnUse" id="gradient10" r="819.2" spreadMethod="pad">
      <stop offset="0.0" stop-color="#7b7b7b"/>
      <stop offset="1.0" stop-color="#1b1b1b"/>
    </radialGradient>
    <radialGradient cx="0" cy="0" gradientTransform="matrix(0.0068, 0.0, 0.0, 0.0068, -1.0, -261.4)" gradientUnits="userSpaceOnUse" id="gradient11" r="819.2" spreadMethod="pad">
      <stop offset="0.0" stop-color="#303030"/>
      <stop offset="1.0" stop-color="#303030"/>
    </radialGradient>
    <radialGradient cx="0" cy="0" gradientTransform="matrix(0.0061, 0.0, 0.0, 0.0061, -1.0, -260.8)" gradientUnits="userSpaceOnUse" id="gradient12" r="819.2" spreadMethod="pad">
      <stop offset="0.0" stop-color="#818181"/>
      <stop offset="1.0" stop-color="#808080"/>
    </radialGradient>
    <radialGradient cx="0" cy="0" gradientTransform="matrix(0.0105, 0.0, 0.0, 0.0105, -7.65, -255.5)" gradientUnits="userSpaceOnUse" id="gradient13" r="819.2" spreadMethod="pad">
      <stop offset="0.0" stop-color="#040404"/>
      <stop offset="1.0" stop-color="#040404"/>
    </radialGradient>
    <radialGradient cx="0" cy="0" gradientTransform="matrix(0.0117, 0.0, 0.0, 0.0117, -1.7, -245.8)" gradientUnits="userSpaceOnUse" id="gradient14" r="819.2" spreadMethod="pad">
      <stop offset="0.0" stop-color="#020202"/>
      <stop offset="1.0" stop-color="#020202"/>
    </radialGradient>
    <radialGradient cx="0" cy="0" gradientTransform="matrix(0.0129, 0.0, 0.0, 0.0129, -7.6, -256.7)" gradientUnits="userSpaceOnUse" id="gradient15" r="819.2" spreadMethod="pad">
      <stop offset="0.0" stop-color="#303030"/>
      <stop offset="1.0" stop-color="#262626"/>
    </radialGradient>
    <radialGradient cx="0" cy="0" gradientTransform="matrix(0.0106, 0.0, 0.0, 0.0106, -1.8, -250.25)" gradientUnits="userSpaceOnUse" id="gradient16" r="819.2" spreadMethod="pad">
      <stop offset="0.0" stop-color="#171717"/>
      <stop offset="1.0" stop-color="#171717"/>
    </radialGradient>
    <radialGradient cx="0" cy="0" gradientTransform="matrix(0.0057, 0.0, 0.0, 0.0057, -6.15, -247.1)" gradientUnits="userSpaceOnUse" id="gradient17" r="819.2" spreadMethod="pad">
      <stop offset="0.0" stop-color="#202020"/>
      <stop offset="1.0" stop-color="#202020"/>
    </radialGradient>
    <radialGradient cx="0" cy="0" gradientTransform="matrix(0.0144, 0.0, 0.0, 0.0144, -11.85, -239.3)" gradientUnits="userSpaceOnUse" id="gradient18" r="819.2" spreadMethod="pad">
      <stop offset="0.0" stop-color="#313131"/>
      <stop offset="1.0" stop-color="#222222"/>
    </radialGradient>
    <radialGradient cx="0" cy="0" gradientTransform="matrix(0.0134, 0.0, 0.0, 0.0134, -1.25, -240.75)" gradientUnits="userSpaceOnUse" id="gradient19" r="819.2" spreadMethod="pad">
      <stop offset="0.0" stop-color="#040404"/>
      <stop offset="1.0" stop-color="#040404"/>
    </radialGradient>
    <radialGradient cx="0" cy="0" gradientTransform="matrix(0.0048, 0.0, 0.0, 0.0048, -15.6, -237.4)" gradientUnits="userSpaceOnUse" id="gradient20" r="819.2" spreadMethod="pad">
      <stop offset="0.0" stop-color="#262626"/>
      <stop offset="1.0" stop-color="#262626"/>
    </radialGradient>
    <radialGradient cx="0" cy="0" gradientTransform="matrix(0.0068, 0.0, 0.0, 0.0068, -7.25, -257.0)" gradientUnits="userSpaceOnUse" id="gradient21" r="819.2" spreadMethod="pad">
      <stop offset="0.0" stop-color="#828282"/>
      <stop offset="1.0" stop-color="#636363"/>
    </radialGradient>
    <radialGradient cx="0" cy="0" gradientTransform="matrix(0.2999, 0.0, 0.0, 0.2999, -213.9, -262.6)" gradientUnits="userSpaceOnUse" id="gradient22" r="819.2" spreadMethod="pad">
      <stop offset="0.0" stop-color="#1a1a1a"/>
      <stop offset="1.0" stop-color="#0b0b0b"/>
    </radialGradient>
    <radialGradient cx="0" cy="0" gradientTransform="matrix(0.0516, 0.0, 0.0, 0.0516, -258.2, -249.9)" gradientUnits="userSpaceOnUse" id="gradient23" r="819.2" spreadMethod="pad">
      <stop offset="0.0" stop-color="#000000"/>
      <stop offset="1.0" stop-color="#000000"/>
    </radialGradient>
    <radialGradient cx="0" cy="0" gradientTransform="matrix(0.0569, 0.0, 0.0, 0.0569, -292.75, -194.95)" gradientUnits="userSpaceOnUse" id="gradient24" r="819.2" spreadMethod="pad">
      <stop offset="0.0" stop-color="#171717"/>
      <stop offset="1.0" stop-color="#000000"/>
    </radialGradient>
    <radialGradient cx="0" cy="0" gradientTransform="matrix(0.0964, 0.0, 0.0, 0.0964, -344.75, -167.2)" gradientUnits="userSpaceOnUse" id="gradient25" r="819.2" spreadMethod="pad">
      <stop offset="0.0" stop-color="#6a6a6a"/>
      <stop offset="1.0" stop-color="#000000"/>
    </radialGradient>
    <radialGradient cx="0" cy="0" gradientTransform="matrix(0.0309, 0.0, 0.0, 0.0309, -302.4, -235.4)" gradientUnits="userSpaceOnUse" id="gradient26" r="819.2" spreadMethod="pad">
      <stop offset="0.0" stop-color="#0d0d0d"/>
      <stop offset="1.0" stop-color="#000000"/>
    </radialGradient>
    <radialGradient cx="0" cy="0" gradientTransform="matrix(0.1273, 0.0, 0.0, 0.1273, -389.95, -178.65)" gradientUnits="userSpaceOnUse" id="gradient27" r="819.2" spreadMethod="pad">
      <stop offset="0.0" stop-color="#262626"/>
      <stop offset="1.0" stop-color="#040404"/>
    </radialGradient>
    <radialGradient cx="0" cy="0" gradientTransform="matrix(0.019, 0.0, 0.0, 0.019, -389.95, -178.65)" gradientUnits="userSpaceOnUse" id="gradient28" r="819.2" spreadMethod="pad">
      <stop offset="0.0" stop-color="#262626"/>
      <stop offset="1.0" stop-color="#0c0c0c"/>
    </radialGradient>
    <radialGradient cx="0" cy="0" gradientTransform="matrix(0.0707, 0.0, 0.0, 0.0707, -390.3, -116.85)" gradientUnits="userSpaceOnUse" id="gradient29" r="819.2" spreadMethod="pad">
      <stop offset="0.0" stop-color="#393939"/>
      <stop offset="1.0" stop-color="#000000"/>
    </radialGradient>
    <radialGradient cx="0" cy="0" gradientTransform="matrix(0.0792, 0.0, 0.0, 0.0792, -292.75, -194.95)" gradientUnits="userSpaceOnUse" id="gradient30" r="819.2" spreadMethod="pad">
      <stop offset="0.0" stop-color="#171717"/>
      <stop offset="1.0" stop-color="#000000"/>
    </radialGradient>
    <radialGradient cx="0" cy="0" gradientTransform="matrix(0.1263, 0.0, 0.0, 0.1263, -273.1, -166.6)" gradientUnits="userSpaceOnUse" id="gradient31" r="819.2" spreadMethod="pad">
      <stop offset="0.0" stop-color="#323232"/>
      <stop offset="1.0" stop-color="#000000"/>
    </radialGradient>
    <radialGradient cx="0" cy="0" gradientTransform="matrix(0.0792, 0.0, 0.0, 0.0792, -169.0, -198.1)" gradientUnits="userSpaceOnUse" id="gradient32" r="819.2" spreadMethod="pad">
      <stop offset="0.0" stop-color="#595959"/>
      <stop offset="1.0" stop-color="#000000"/>
    </radialGradient>
    <radialGradient cx="0" cy="0" gradientTransform="matrix(0.1109, 0.0, 0.0, 0.1109, -179.9, -162.25)" gradientUnits="userSpaceOnUse" id="gradient33" r="819.2" spreadMethod="pad">
      <stop offset="0.0" stop-color="#3f3f3f"/>
      <stop offset="1.0" stop-color="#000000"/>
    </radialGradient>
    <radialGradient cx="0" cy="0" gradientTransform="matrix(0.0835, 0.0, 0.0, 0.0835, -223.65, -146.05)" gradientUnits="userSpaceOnUse" id="gradient34" r="819.2" spreadMethod="pad">
      <stop offset="0.0" stop-color="#878787"/>
      <stop offset="1.0" stop-color="#000000"/>
    </radialGradient>
    <radialGradient cx="0" cy="0" gradientTransform="matrix(0.1491, 0.0, 0.0, 0.1491, -268.4, -137.4)" gradientUnits="userSpaceOnUse" id="gradient35" r="819.2" spreadMethod="pad">
      <stop offset="0.0" stop-color="#6a6a6a"/>
      <stop offset="1.0" stop-color="#000000"/>
    </radialGradient>
    <radialGradient cx="0" cy="0" gradientTransform="matrix(0.0835, 0.0, 0.0, 0.0835, -280.8, -150.85)" gradientUnits="userSpaceOnUse" id="gradient36" r="819.2" spreadMethod="pad">
      <stop offset="0.0" stop-color="#858585"/>
      <stop offset="1.0" stop-color="#000000"/>
    </radialGradient>
    <radialGradient cx="0" cy="0" gradientTransform="matrix(0.0138, 0.0, 0.0, 0.0138, -11.45, -239.1)" gradientUnits="userSpaceOnUse" id="gradient37" r="819.2" spreadMethod="pad">
      <stop offset="0.0" stop-color="#030303"/>
      <stop offset="1.0" stop-color="#030303"/>
    </radialGradient>
    <radialGradient cx="0" cy="0" gradientTransform="matrix(0.0181, 0.0, 0.0, 0.0181, -15.45, -236.3)" gradientUnits="userSpaceOnUse" id="gradient38" r="819.2" spreadMethod="pad">
      <stop offset="0.0" stop-color="#040404"/>
      <stop offset="1.0" stop-color="#040404"/>
    </radialGradient>
    <radialGradient cx="0" cy="0" gradientTransform="matrix(0.018, 0.0, 0.0, 0.018, -15.05, -236.35)" gradientUnits="userSpaceOnUse" id="gradient39" r="819.2" spreadMethod="pad">
      <stop offset="0.0" stop-color="#030303"/>
      <stop offset="1.0" stop-color="#030303"/>
    </radialGradient>
    <radialGradient cx="0" cy="0" gradientTransform="matrix(0.0055, 0.0, 0.0, 0.0055, -5.25, -239.05)" gradientUnits="userSpaceOnUse" id="gradient40" r="819.2" spreadMethod="pad">
      <stop offset="0.0" stop-color="#040404"/>
      <stop offset="1.0" stop-color="#040404"/>
    </radialGradient>
    <radialGradient cx="0" cy="0" gradientTransform="matrix(0.0443, 0.0, 0.0, 0.0443, -175.6, -239.2)" gradientUnits="userSpaceOnUse" id="gradient41" r="819.2" spreadMethod="pad">
      <stop offset="0.0" stop-color="#000000"/>
      <stop offset="1.0" stop-color="#000000"/>
    </radialGradient>
    <radialGradient cx="0" cy="0" gradientTransform="matrix(0.0192, 0.0, 0.0, 0.0192, -170.7, -224.25)" gradientUnits="userSpaceOnUse" id="gradient42" r="819.2" spreadMethod="pad">
      <stop offset="0.0" stop-color="#000000"/>
      <stop offset="1.0" stop-color="#000000"/>
    </radialGradient>
    <radialGradient cx="0" cy="0" gradientTransform="matrix(0.0711, 0.0, 0.0, 0.0711, -128.2, -210.4)" gradientUnits="userSpaceOnUse" id="gradient43" r="819.2" spreadMethod="pad">
      <stop offset="0.0" stop-color="#000000"/>
      <stop offset="1.0" stop-color="#000000"/>
    </radialGradient>
    <radialGradient cx="0" cy="0" gradientTransform="matrix(0.0882, 0.0, 0.0, 0.0882, -147.4, -192.3)" gradientUnits="userSpaceOnUse" id="gradient44" r="819.2" spreadMethod="pad">
      <stop offset="0.0" stop-color="#616161"/>
      <stop offset="1.0" stop-color="#000000"/>
    </radialGradient>
    <radialGradient cx="0" cy="0" gradientTransform="matrix(0.027, 0.0, 0.0, 0.027, -169.0, -198.1)" gradientUnits="userSpaceOnUse" id="gradient45" r="819.2" spreadMethod="pad">
      <stop offset="0.0" stop-color="#595959"/>
      <stop offset="1.0" stop-color="#070707"/>
    </radialGradient>
    <radialGradient cx="0" cy="0" gradientTransform="matrix(0.0507, 0.0, 0.0, 0.0507, -35.1, -194.5)" gradientUnits="userSpaceOnUse" id="gradient46" r="819.2" spreadMethod="pad">
      <stop offset="0.0" stop-color="#000000"/>
      <stop offset="1.0" stop-color="#000000"/>
    </radialGradient>
    <radialGradient cx="0" cy="0" gradientTransform="matrix(0.0463, 0.0, 0.0, 0.0463, -35.1, -194.5)" gradientUnits="userSpaceOnUse" id="gradient47" r="819.2" spreadMethod="pad">
      <stop offset="0.0" stop-color="#000000"/>
      <stop offset="1.0" stop-color="#000000"/>
    </radialGradient>
    <radialGradient cx="0" cy="0" gradientTransform="matrix(0.0269, 0.0, 0.0, 0.0269, -75.45, -185.65)" gradientUnits="userSpaceOnUse" id="gradient48" r="819.2" spreadMethod="pad">
      <stop offset="0.0" stop-color="#000000"/>
      <stop offset="1.0" stop-color="#000000"/>
    </radialGradient>
    <radialGradient cx="0" cy="0" gradientTransform="matrix(0.0253, 0.0, 0.0, 0.0253, -35.1, -194.5)" gradientUnits="userSpaceOnUse" id="gradient49" r="819.2" spreadMethod="pad">
      <stop offset="0.0" stop-color="#000000"/>
      <stop offset="1.0" stop-color="#000000"/>
    </radialGradient>
    <radialGradient cx="0" cy="0" gradientTransform="matrix(0.0661, 0.0, 0.0, 0.0661, -49.3, -156.3)" gradientUnits="userSpaceOnUse" id="gradient50" r="819.2" spreadMethod="pad">
      <stop offset="0.0" stop-color="#161616"/>
      <stop offset="1.0" stop-color="#000000"/>
    </radialGradient>
    <radialGradient cx="0" cy="0" gradientTransform="matrix(0.0425, 0.0, 0.0, 0.0425, -49.3, -156.3)" gradientUnits="userSpaceOnUse" id="gradient51" r="819.2" spreadMethod="pad">
      <stop offset="0.0" stop-color="#161616"/>
      <stop offset="1.0" stop-color="#000000"/>
    </radialGradient>
    <radialGradient cx="0" cy="0" gradientTransform="matrix(0.0778, 0.0, 0.0, 0.0778, -285.35, -94.65)" gradientUnits="userSpaceOnUse" id="gradient52" r="819.2" spreadMethod="pad">
      <stop offset="0.0" stop-color="#838383"/>
      <stop offset="1.0" stop-color="#212121"/>
    </radialGradient>
    <radialGradient cx="0" cy="0" gradientTransform="matrix(0.0442, 0.0, 0.0, 0.0442, -298.55, -1.0)" gradientUnits="userSpaceOnUse" id="gradient53" r="819.2" spreadMethod="pad">
      <stop offset="0.0" stop-color="#4a4a4a"/>
      <stop offset="1.0" stop-color="#1d1d1d"/>
    </radialGradient>
    <radialGradient cx="0" cy="0" gradientTransform="matrix(0.1088, 0.0, 0.0, 0.1088, -298.55, -1.0)" gradientUnits="userSpaceOnUse" id="gradient54" r="819.2" spreadMethod="pad">
      <stop offset="0.0" stop-color="#4a4a4a"/>
      <stop offset="1.0" stop-color="#000000"/>
    </radialGradient>
    <radialGradient cx="0" cy="0" gradientTransform="matrix(0.0485, 0.0, 0.0, 0.0485, -186.5, -1.0)" gradientUnits="userSpaceOnUse" id="gradient55" r="819.2" spreadMethod="pad">
      <stop offset="0.0" stop-color="#181818"/>
      <stop offset="1.0" stop-color="#000000"/>
    </radialGradient>
    <radialGradient cx="0" cy="0" gradientTransform="matrix(0.1452, 0.0, 0.0, 0.1452, -181.1, -139.9)" gradientUnits="userSpaceOnUse" id="gradient56" r="819.2" spreadMethod="pad">
      <stop offset="0.0" stop-color="#232323"/>
      <stop offset="1.0" stop-color="#000000"/>
    </radialGradient>
    <radialGradient cx="0" cy="0" gradientTransform="matrix(0.0407, 0.0, 0.0, 0.0407, -189.0, -1.0)" gradientUnits="userSpaceOnUse" id="gradient57" r="819.2" spreadMethod="pad">
      <stop offset="0.0" stop-color="#535353"/>
      <stop offset="1.0" stop-color="#484848"/>
    </radialGradient>
    <radialGradient cx="0" cy="0" gradientTransform="matrix(0.0207, 0.0, 0.0, 0.0207, -367.75, -149.65)" gradientUnits="userSpaceOnUse" id="gradient58" r="819.2" spreadMethod="pad">
      <stop offset="0.0" stop-color="#010101"/>
      <stop offset="1.0" stop-color="#000000"/>
    </radialGradient>
    <radialGradient cx="0" cy="0" gradientTransform="matrix(0.0475, 0.0, 0.0, 0.0475, -353.55, -113.4)" gradientUnits="userSpaceOnUse" id="gradient59" r="819.2" spreadMethod="pad">
      <stop offset="0.0" stop-color="#292929"/>
      <stop offset="1.0" stop-color="#010101"/>
    </radialGradient>
    <radialGradient cx="0" cy="0" gradientTransform="matrix(0.0213, 0.0, 0.0, 0.0213, -297.5, -147.55)" gradientUnits="userSpaceOnUse" id="gradient60" r="819.2" spreadMethod="pad">
      <stop offset="0.0" stop-color="#626262"/>
      <stop offset="1.0" stop-color="#373737"/>
    </radialGradient>
    <radialGradient cx="0" cy="0" gradientTransform="matrix(0.0761, 0.0, 0.0, 0.0761, -350.4, -68.95)" gradientUnits="userSpaceOnUse" id="gradient61" r="819.2" spreadMethod="pad">
      <stop offset="0.0" stop-color="#505050"/>
      <stop offset="1.0" stop-color="#131313"/>
    </radialGradient>
    <radialGradient cx="0" cy="0" gradientTransform="matrix(0.0627, 0.0, 0.0, 0.0627, -326.95, -81.9)" gradientUnits="userSpaceOnUse" id="gradient62" r="819.2" spreadMethod="pad">
      <stop offset="0.0" stop-color="#3a3a3a"/>
      <stop offset="1.0" stop-color="#000000"/>
    </radialGradient>
    <radialGradient cx="0" cy="0" gradientTransform="matrix(0.0394, 0.0, 0.0, 0.0394, -309.95, -58.9)" gradientUnits="userSpaceOnUse" id="gradient63" r="819.2" spreadMethod="pad">
      <stop offset="0.0" stop-color="#858585"/>
      <stop offset="1.0" stop-color="#2c2c2c"/>
    </radialGradient>
    <radialGradient cx="0" cy="0" gradientTransform="matrix(0.0944, 0.0, 0.0, 0.0944, -350.4, -68.95)" gradientUnits="userSpaceOnUse" id="gradient64" r="819.2" spreadMethod="pad">
      <stop offset="0.0" stop-color="#505050"/>
      <stop offset="1.0" stop-color="#303030"/>
    </radialGradient>
  </defs>
</svg>
