<?xml version="1.0" encoding="UTF-8" standalone="no"?>
<svg xmlns:xlink="http://www.w3.org/1999/xlink" height="299.1px" width="399.1px" xmlns="http://www.w3.org/2000/svg">
  <g transform="matrix(1.0, 0.0, 0.0, 1.0, 400.0, 300.0)">
    <path d="M-255.15 -251.0 L-256.5 -252.75 -278.0 -252.15 -298.25 -267.25 -309.25 -281.9 -307.0 -280.65 -306.5 -280.75 -313.4 -291.9 -306.5 -283.65 -305.25 -282.4 -305.0 -282.5 -311.75 -297.15 -311.0 -300.0 -297.65 -300.0 -295.4 -295.25 -295.5 -294.9 -293.25 -290.75 -284.15 -279.15 -267.75 -264.75 -255.25 -258.4 -250.75 -256.65 -251.0 -253.15 -255.15 -251.0 M-175.5 -249.5 L-182.65 -249.75 -189.9 -251.0 -197.25 -245.25 -208.4 -248.0 -212.75 -250.4 -212.5 -250.75 -212.5 -253.4 Q-196.25 -255.9 -178.0 -268.5 L-167.5 -278.75 -161.15 -288.9 -161.15 -289.4 -160.25 -290.25 -160.5 -278.75 -154.15 -278.5 -159.0 -268.65 -160.65 -264.5 -166.15 -259.4 -175.5 -249.5 M-154.9 -292.5 Q-153.75 -296.15 -153.0 -296.25 L-147.25 -290.15 -159.75 -279.25 -159.9 -280.15 -154.9 -292.5" fill="url(#gradient0)" fill-rule="evenodd" stroke="none"/>
    <path d="M-297.65 -300.0 L-159.9 -300.0 -160.25 -290.25 -161.15 -289.4 -161.15 -288.9 -167.5 -278.75 -178.0 -268.5 Q-196.25 -255.9 -212.5 -253.4 L-212.5 -254.0 -212.4 -254.5 -212.5 -257.65 -214.75 -259.15 -218.15 -261.5 -218.25 -261.0 -217.65 -259.9 -219.75 -260.65 -223.0 -262.5 -226.4 -262.5 -234.4 -263.5 -239.9 -263.25 -244.25 -263.65 -245.9 -262.65 -250.4 -261.0 -250.5 -259.4 -250.75 -258.5 -250.9 -257.25 -250.75 -256.65 -255.25 -258.4 -267.75 -264.75 -284.15 -279.15 -293.25 -290.75 -295.5 -294.9 -295.4 -295.25 -297.65 -300.0" fill="url(#gradient1)" fill-rule="evenodd" stroke="none"/>
    <path d="M-250.75 -256.65 L-250.9 -257.25 -250.75 -258.5 -250.5 -259.4 -250.75 -256.65" fill="url(#gradient2)" fill-rule="evenodd" stroke="none"/>
    <path d="M-250.5 -259.4 L-250.4 -261.0 -245.9 -262.65 -244.25 -263.65 -239.9 -263.25 -234.4 -263.5 -226.4 -262.5 -223.0 -262.5 -219.75 -260.65 -217.65 -259.9 -215.25 -255.75 -215.25 -253.15 -215.65 -252.0 -217.0 -252.65 -249.65 -253.9 -251.0 -253.15 -250.75 -256.65 -250.5 -259.4" fill="url(#gradient3)" fill-rule="evenodd" stroke="none"/>
    <path d="M-217.65 -259.9 L-218.25 -261.0 -218.15 -261.5 -214.75 -259.15 -215.25 -255.75 -217.65 -259.9" fill="url(#gradient4)" fill-rule="evenodd" stroke="none"/>
    <path d="M-212.5 -253.4 L-212.5 -250.75 -212.75 -250.4 -214.9 -251.65 -215.25 -253.15 -215.25 -255.75 -214.75 -259.15 -212.5 -257.65 -212.4 -254.5 -212.5 -254.0 -212.5 -253.4" fill="url(#gradient5)" fill-rule="evenodd" stroke="none"/>
    <path d="M-159.9 -300.0 L-136.0 -299.75 -138.5 -292.4 -148.15 -275.5 -160.15 -261.5 -175.5 -249.5 -166.15 -259.4 -160.65 -264.5 -159.0 -268.65 -154.15 -278.5 -160.5 -278.75 -160.25 -290.25 -159.9 -300.0 M-154.9 -292.5 L-159.9 -280.15 -159.75 -279.25 -147.25 -290.15 -153.0 -296.25 Q-153.75 -296.15 -154.9 -292.5" fill="url(#gradient6)" fill-rule="evenodd" stroke="none"/>
    <path d="M-309.25 -281.9 L-317.75 -299.75 -311.0 -300.0 -311.75 -297.15 -305.0 -282.5 -305.25 -282.4 -306.5 -283.65 -313.4 -291.9 -306.5 -280.75 -307.0 -280.65 -309.25 -281.9" fill="url(#gradient7)" fill-rule="evenodd" stroke="none"/>
    <path d="M-256.5 -250.25 L-255.15 -251.0 -251.0 -253.15 -249.65 -253.9 -217.0 -252.65 -215.65 -252.0 -214.9 -251.65 -212.75 -250.4 -208.4 -248.0 -208.15 -247.65 -208.75 -247.5 -207.4 -246.0 -191.5 -212.75 -189.75 -204.5 Q-201.9 -216.0 -223.0 -212.65 -240.65 -208.9 -243.25 -194.65 L-242.5 -188.65 Q-244.25 -188.0 -245.65 -177.75 L-244.75 -169.75 -241.65 -163.15 Q-242.65 -161.9 -239.4 -152.5 L-234.75 -145.9 -231.15 -143.0 -220.15 -139.4 -213.0 -134.65 -211.4 -134.15 -264.9 -136.9 -277.0 -136.5 -273.15 -139.15 -272.0 -142.25 -268.9 -143.75 Q-267.0 -147.0 -262.15 -149.4 L-257.15 -156.0 -255.25 -163.5 -249.75 -171.9 -247.75 -180.15 -248.65 -189.25 Q-244.75 -195.9 -245.75 -197.15 -245.9 -203.65 -249.65 -208.75 L-254.75 -213.5 Q-268.0 -221.0 -278.5 -217.5 L-258.15 -247.65 -256.25 -247.9 -255.4 -249.65 -256.4 -249.5 -256.75 -249.5 -256.65 -249.9 -256.5 -250.25 M-281.65 -136.25 L-284.4 -136.15 -284.65 -136.5 -284.9 -137.25 -281.65 -136.25 M-197.15 -133.5 L-201.9 -133.75 -196.25 -135.75 -197.15 -133.5" fill="url(#gradient8)" fill-rule="evenodd" stroke="none"/>
    <path d="M-214.9 -251.65 L-215.65 -252.0 -215.25 -253.15 -214.9 -251.65" fill="url(#gradient9)" fill-rule="evenodd" stroke="none"/>
    <path d="M-3.5 -254.4 L-4.25 -255.15 -3.4 -255.5 -4.4 -255.4 -4.5 -255.4 -4.45 -255.45 -3.9 -256.75 -4.5 -256.15 -4.25 -256.5 -4.4 -256.75 -4.4 -256.9 -3.1 -257.1 -3.65 -256.75 -4.0 -255.75 -3.0 -257.1 -2.15 -257.25 -2.25 -256.4 -1.65 -255.15 -2.5 -254.9 -1.25 -254.9 -2.15 -254.4 -2.15 -254.75 -3.65 -254.75 -3.5 -254.4 M-1.15 -255.15 L-1.5 -255.15 -1.25 -255.4 -1.65 -256.25 -1.15 -255.9 -1.15 -255.15 M-0.9 -252.75 L-1.4 -252.65 -1.4 -253.25 -0.9 -253.15 -1.15 -253.0 -0.9 -252.75" fill="url(#gradient10)" fill-rule="evenodd" stroke="none"/>
    <path d="M-0.9 -251.5 L-3.5 -254.4 -3.65 -254.75 -2.15 -254.75 -2.15 -254.4 -1.25 -254.9 -2.5 -254.9 -1.65 -255.15 -2.25 -256.4 -2.15 -257.25 -0.9 -257.5 -0.9 -253.15 -0.9 -252.75 -0.9 -251.5 M-4.25 -255.15 L-4.4 -255.4 -3.4 -255.5 -4.25 -255.15 M-4.45 -255.45 L-4.65 -255.75 -4.9 -256.0 -4.75 -256.65 -4.5 -256.75 -4.4 -256.75 -4.25 -256.5 -4.5 -256.15 -3.9 -256.75 -4.45 -255.45 M-3.1 -257.1 L-3.0 -257.15 -3.0 -257.1 -4.0 -255.75 -3.65 -256.75 -3.1 -257.1 M-1.15 -255.15 L-1.15 -255.9 -1.65 -256.25 -1.25 -255.4 -1.5 -255.15 -1.15 -255.15 M-0.9 -252.75 L-1.15 -253.0 -0.9 -253.15 -1.4 -253.25 -1.4 -252.65 -0.9 -252.75" fill="url(#gradient11)" fill-rule="evenodd" stroke="none"/>
    <path d="M-5.5 -255.9 L-5.5 -255.5 -5.0 -255.9 -5.5 -255.9 M-5.75 -255.5 L-6.25 -255.4 -6.15 -255.15 -5.75 -255.5 M-3.4 -246.75 L-7.9 -252.15 -8.9 -253.75 -8.25 -254.75 -8.0 -254.9 -7.75 -255.0 -7.5 -255.15 -7.25 -255.25 -7.15 -255.4 -6.75 -255.65 -6.5 -255.75 -5.9 -256.15 -5.75 -256.15 -5.5 -256.25 -5.25 -256.4 -5.0 -256.5 -4.75 -256.65 -4.9 -256.0 -4.65 -255.75 -4.45 -255.45 -4.5 -255.4 -4.4 -255.4 -4.25 -255.15 -3.5 -254.4 -0.9 -251.5 -0.9 -247.75 -3.25 -246.75 -3.4 -246.75 M-4.5 -256.75 L-4.4 -256.9 -4.4 -256.75 -4.5 -256.75" fill="url(#gradient12)" fill-rule="evenodd" stroke="none"/>
    <path d="M-3.4 -246.75 L-3.25 -246.75 -0.9 -247.75 -0.9 -245.25 -1.15 -245.25 -3.75 -244.25 -3.4 -246.75" fill="url(#gradient13)" fill-rule="evenodd" stroke="none"/>
    <path d="M-5.75 -255.5 L-6.15 -255.15 -6.25 -255.4 -5.75 -255.5 M-5.5 -255.9 L-5.0 -255.9 -5.5 -255.5 -5.5 -255.9" fill="url(#gradient14)" fill-rule="evenodd" stroke="none"/>
    <path d="M-287.65 -241.75 L-256.5 -250.25 -256.65 -249.9 -257.5 -249.4 -257.75 -249.25 -259.65 -249.0 -259.5 -248.25 -291.75 -226.9 -287.65 -241.75" fill="url(#gradient15)" fill-rule="evenodd" stroke="none"/>
    <path d="M-304.5 -236.0 L-287.65 -241.75 -291.75 -226.9 -291.5 -212.9 -297.9 -208.75 -301.75 -205.0 -307.75 -216.75 -304.5 -236.0" fill="url(#gradient16)" fill-rule="evenodd" stroke="none"/>
    <path d="M-312.5 -177.4 L-329.25 -169.75 -349.0 -156.0 -352.25 -154.75 -367.0 -149.4 -383.5 -163.25 -392.9 -174.5 -392.5 -174.9 -371.0 -185.75 -344.9 -202.75 -320.15 -218.25 -308.15 -232.0 -307.75 -232.4 -304.5 -236.0 -307.75 -216.75 -301.75 -205.0 -303.75 -202.9 -308.0 -196.5 -311.0 -189.15 -312.5 -180.9 -312.5 -177.4" fill="url(#gradient17)" fill-rule="evenodd" stroke="none"/>
    <path d="M-308.0 -232.25 L-307.75 -232.4 -308.15 -232.0 -308.0 -232.25" fill="url(#gradient18)" fill-rule="evenodd" stroke="none"/>
    <path d="M-391.15 -177.0 L-391.0 -177.15 -390.65 -177.65 -389.65 -178.75 -372.25 -192.4 -346.5 -210.65 -324.25 -224.0 -308.0 -232.25 -308.15 -232.0 -320.15 -218.25 -344.9 -202.75 -371.0 -185.75 -392.5 -174.9 -391.15 -177.0" fill="url(#gradient19)" fill-rule="evenodd" stroke="none"/>
    <path d="M-399.9 -166.75 L-400.0 -167.75 -391.15 -177.0 -392.5 -174.9 -392.9 -174.5 -399.9 -166.75" fill="url(#gradient20)" fill-rule="evenodd" stroke="none"/>
    <path d="M-400.0 -127.65 L-399.9 -166.75 -392.9 -174.5 -383.5 -163.25 -367.0 -149.4 -367.0 -148.9 -366.65 -147.9 -363.9 -133.0 -357.75 -122.75 -357.65 -122.0 -378.75 -120.65 -390.0 -116.25 -400.0 -127.65" fill="url(#gradient21)" fill-rule="evenodd" stroke="none"/>
    <path d="M-291.5 -212.9 L-291.75 -226.9 -259.5 -248.25 -258.15 -247.65 -278.5 -217.5 Q-280.75 -217.75 -284.15 -216.15 L-291.5 -212.9 M-257.5 -249.4 L-256.65 -249.9 -256.75 -249.5 -257.5 -249.4" fill="url(#gradient22)" fill-rule="evenodd" stroke="none"/>
    <path d="M-206.4 -245.9 L-207.4 -246.0 -208.75 -247.5 -208.15 -247.65 -204.9 -246.9 -206.15 -246.65 -206.4 -245.9 M-259.5 -248.25 L-259.65 -249.0 -257.75 -249.25 -257.5 -249.4 -256.75 -249.5 -256.4 -249.5 -255.4 -249.65 -256.25 -247.9 -258.15 -247.65 -259.5 -248.25" fill="url(#gradient23)" fill-rule="evenodd" stroke="none"/>
    <path d="M-197.25 -245.25 L-173.0 -239.4 -172.9 -239.15 -168.0 -224.4 -166.15 -197.9 -166.4 -197.75 -176.5 -187.0 -175.15 -211.25 -206.4 -245.9 -206.15 -246.65 -204.9 -246.9 -208.15 -247.65 -208.4 -248.0 -197.25 -245.25" fill="url(#gradient24)" fill-rule="evenodd" stroke="none"/>
    <path d="M-177.9 -154.15 L-178.5 -139.5 -178.75 -140.9 -180.15 -140.5 -197.15 -133.5 -196.25 -135.75 Q-188.0 -137.4 -177.9 -154.15 M-207.4 -246.0 L-206.4 -245.9 -175.15 -211.25 -176.5 -187.0 Q-180.9 -197.65 -189.75 -204.5 L-191.5 -212.75 -207.4 -246.0" fill="url(#gradient25)" fill-rule="evenodd" stroke="none"/>
    <path d="M-174.75 -180.25 Q-171.5 -171.4 -177.9 -154.15 -188.0 -137.4 -196.25 -135.75 L-201.9 -133.75 -205.5 -133.4 -208.5 -133.5 -211.4 -134.15 -213.0 -134.65 -220.15 -139.4 -231.15 -143.0 -234.75 -145.9 -239.4 -152.5 Q-242.65 -161.9 -241.65 -163.15 L-244.75 -169.75 -245.65 -177.75 Q-244.25 -188.0 -242.5 -188.65 L-243.25 -194.65 Q-240.65 -208.9 -223.0 -212.65 -201.9 -216.0 -189.75 -204.5 -180.9 -197.65 -176.5 -187.0 L-174.75 -180.25" fill="url(#gradient26)" fill-rule="evenodd" stroke="none"/>
    <path d="M-211.4 -134.15 L-208.5 -133.5 -205.5 -133.4 -201.9 -133.75 -197.15 -133.5 -210.5 -89.9 -214.25 -25.15 -229.0 -24.4 -271.65 -27.15 -282.25 -29.4 -277.65 -93.9 -284.4 -136.15 -281.65 -136.25 -277.0 -136.5 -264.9 -136.9 -211.4 -134.15" fill="url(#gradient27)" fill-rule="evenodd" stroke="none"/>
    <path d="M-294.9 -142.25 L-302.0 -148.75 -302.4 -149.75 -306.5 -155.25 -310.75 -165.0 -312.4 -172.5 -312.5 -177.4 -312.5 -180.9 -311.0 -189.15 -308.0 -196.5 -303.75 -202.9 -301.75 -205.0 -297.9 -208.75 -291.5 -212.9 -284.15 -216.15 Q-280.75 -217.75 -278.5 -217.5 -268.0 -221.0 -254.75 -213.5 L-249.65 -208.75 Q-245.9 -203.65 -245.75 -197.15 -244.75 -195.9 -248.65 -189.25 L-247.75 -180.15 -249.75 -171.9 -255.25 -163.5 -257.15 -156.0 -262.15 -149.4 Q-267.0 -147.0 -268.9 -143.75 L-272.0 -142.25 -273.15 -139.15 -277.0 -136.5 -281.65 -136.25 -284.9 -137.25 -285.75 -137.5 -289.15 -138.75 -294.9 -142.25" fill="url(#gradient28)" fill-rule="evenodd" stroke="none"/>
    <path d="M-3.75 -244.25 L-1.15 -245.25 -0.9 -245.25 -0.9 -245.0 -6.0 -242.0 -9.0 -238.9 -12.65 -237.4 -11.4 -239.0 -3.75 -244.25" fill="url(#gradient29)" fill-rule="evenodd" stroke="none"/>
    <path d="M-9.0 -238.9 L-6.0 -242.0 -0.9 -245.0 -0.9 -241.65 Q-8.75 -240.5 -8.4 -237.9 L-8.9 -237.65 -9.0 -238.9" fill="url(#gradient30)" fill-rule="evenodd" stroke="none"/>
    <path d="M-12.65 -237.4 L-9.0 -238.9 -8.9 -237.65 -9.25 -237.5 -9.65 -237.4 -11.0 -236.75 -11.4 -236.65 -11.75 -236.5 -11.9 -236.5 -12.4 -236.25 -12.65 -236.25 -12.65 -237.4" fill="url(#gradient31)" fill-rule="evenodd" stroke="none"/>
    <path d="M-0.9 -239.9 L-1.25 -239.9 -1.75 -239.75 -1.9 -239.65 -5.75 -238.5 -8.4 -237.9 Q-8.75 -240.5 -0.9 -241.65 L-0.9 -239.9" fill="url(#gradient32)" fill-rule="evenodd" stroke="none"/>
    <path d="M-5.75 -238.5 L-8.5 -237.25 -12.4 -236.25 -11.9 -236.5 -11.75 -236.5 -11.4 -236.65 -11.0 -236.75 -9.65 -237.4 -9.25 -237.5 -8.9 -237.65 -8.4 -237.9 -5.75 -238.5" fill="url(#gradient33)" fill-rule="evenodd" stroke="none"/>
    <path d="M-0.9 -239.5 L-2.15 -239.0 -8.5 -237.25 -5.75 -238.5 -1.9 -239.65 -1.75 -239.75 -1.25 -239.9 -0.9 -239.9 -0.9 -239.5" fill="url(#gradient34)" fill-rule="evenodd" stroke="none"/>
    <path d="M-173.0 -239.4 L-172.25 -239.25 -154.15 -226.25 -153.75 -224.4 -172.9 -239.15 -173.0 -239.4" fill="url(#gradient35)" fill-rule="evenodd" stroke="none"/>
    <path d="M-153.65 -224.15 L-168.0 -224.4 -172.9 -239.15 -153.75 -224.4 -153.65 -224.15" fill="url(#gradient36)" fill-rule="evenodd" stroke="none"/>
    <path d="M-100.5 -152.15 L-113.5 -154.25 -126.9 -160.5 -143.4 -170.4 -163.4 -178.15 -166.4 -197.75 -166.15 -197.9 -168.0 -224.4 -153.65 -224.15 -125.25 -210.25 -103.75 -201.0 -72.4 -185.4 -86.25 -167.5 -100.5 -152.15" fill="url(#gradient37)" fill-rule="evenodd" stroke="none"/>
    <path d="M-163.4 -178.15 L-174.75 -180.25 -176.5 -187.0 -166.4 -197.75 -163.4 -178.15" fill="url(#gradient38)" fill-rule="evenodd" stroke="none"/>
    <path d="M-2.15 -239.0 L-0.9 -239.5 -0.9 -238.9 -2.15 -239.0" fill="url(#gradient39)" fill-rule="evenodd" stroke="none"/>
    <path d="M-154.15 -226.25 L-126.25 -212.75 -72.25 -188.0 -72.4 -185.4 -103.75 -201.0 -125.25 -210.25 -153.65 -224.15 -153.75 -224.4 -154.15 -226.25" fill="url(#gradient40)" fill-rule="evenodd" stroke="none"/>
    <path d="M-56.75 -189.15 L-25.15 -206.0 -1.15 -216.65 -0.9 -209.65 -13.9 -203.75 -31.9 -194.25 -50.5 -185.75 -56.75 -189.15" fill="url(#gradient41)" fill-rule="evenodd" stroke="none"/>
    <path d="M-31.9 -194.25 L-13.9 -203.75 -0.9 -209.65 -0.9 -181.9 -26.65 -167.75 -19.15 -177.75 -31.9 -194.25" fill="url(#gradient42)" fill-rule="evenodd" stroke="none"/>
    <path d="M-56.75 -189.15 L-50.5 -185.75 -72.4 -185.4 -72.25 -188.0 -56.75 -189.15" fill="url(#gradient43)" fill-rule="evenodd" stroke="none"/>
    <path d="M-50.5 -185.75 L-31.9 -194.25 -19.15 -177.75 -50.5 -185.75" fill="url(#gradient44)" fill-rule="evenodd" stroke="none"/>
    <path d="M-46.15 -156.0 L-62.4 -147.5 -100.5 -152.15 -86.25 -167.5 -72.4 -185.4 -50.5 -185.75 -19.15 -177.75 -34.65 -169.15 -46.15 -156.0" fill="url(#gradient45)" fill-rule="evenodd" stroke="none"/>
    <path d="M-26.65 -167.75 L-46.15 -156.0 -34.65 -169.15 -19.15 -177.75 -26.65 -167.75" fill="url(#gradient46)" fill-rule="evenodd" stroke="none"/>
    <path d="M-288.25 -35.4 L-284.75 -75.0 -283.75 -94.0 -294.9 -142.25 -289.15 -138.75 -285.75 -137.5 -284.65 -136.5 -284.4 -136.15 -277.65 -93.9 -282.25 -29.4 -288.15 -34.75 -288.25 -35.4" fill="url(#gradient47)" fill-rule="evenodd" stroke="none"/>
    <path d="M-290.65 -31.25 L-288.25 -35.4 -288.15 -34.75 -290.65 -31.25" fill="url(#gradient48)" fill-rule="evenodd" stroke="none"/>
    <path d="M-295.9 -0.9 L-309.9 -0.9 -290.65 -31.25 -288.15 -34.75 -282.25 -29.4 -295.9 -0.9" fill="url(#gradient49)" fill-rule="evenodd" stroke="none"/>
    <path d="M-352.25 -154.75 L-364.15 -144.15 -366.25 -147.65 -366.65 -147.9 -367.0 -148.9 -367.0 -149.4 -352.25 -154.75" fill="url(#gradient50)" fill-rule="evenodd" stroke="none"/>
    <path d="M-364.15 -144.15 L-357.9 -132.65 -354.4 -118.5 -355.9 -119.9 -357.65 -122.0 -357.75 -122.75 -363.9 -133.0 -366.65 -147.9 -366.25 -147.65 -364.15 -144.15" fill="url(#gradient51)" fill-rule="evenodd" stroke="none"/>
    <path d="M-284.9 -137.25 L-284.65 -136.5 -285.75 -137.5 -284.9 -137.25" fill="url(#gradient52)" fill-rule="evenodd" stroke="none"/>
    <path d="M-178.5 -139.5 L-194.4 -88.25 -197.5 -30.15 -197.5 -29.65 -200.65 -28.15 -214.25 -25.15 -210.5 -89.9 -197.15 -133.5 -180.15 -140.5 -178.75 -140.9 -178.5 -139.5" fill="url(#gradient53)" fill-rule="evenodd" stroke="none"/>
    <path d="M-197.5 -30.15 L-196.5 -27.4 -197.5 -29.65 -197.5 -30.15" fill="url(#gradient54)" fill-rule="evenodd" stroke="none"/>
    <path d="M-196.5 -27.4 L-196.5 -27.25 -184.65 -0.9 -206.9 -0.9 -214.25 -25.15 -200.65 -28.15 -197.5 -29.65 -196.5 -27.4" fill="url(#gradient55)" fill-rule="evenodd" stroke="none"/>
    <path d="M-357.65 -122.0 L-355.9 -119.9 -340.15 -96.25 -330.75 -84.4 -329.75 -83.75 -318.65 -68.9 -314.75 -63.75 -314.9 -63.4 -321.4 -60.65 Q-322.0 -62.75 -332.5 -63.75 L-337.5 -61.5 -339.5 -57.9 -350.15 -68.4 -365.9 -87.25 -366.4 -87.4 -378.25 -103.15 -379.4 -104.0 -390.0 -116.25 -378.75 -120.65 -357.65 -122.0" fill="url(#gradient56)" fill-rule="evenodd" stroke="none"/>
    <path d="M-354.4 -118.5 L-354.0 -117.65 -332.9 -91.5 -326.0 -81.0 -316.25 -71.4 -315.15 -68.15 -317.65 -69.5 -318.5 -69.4 -318.65 -68.9 -329.75 -83.75 -330.75 -84.4 -340.15 -96.25 -355.9 -119.9 -354.4 -118.5" fill="url(#gradient57)" fill-rule="evenodd" stroke="none"/>
    <path d="M-315.15 -68.15 Q-309.0 -64.75 -308.5 -54.65 -308.65 -48.75 -315.75 -42.5 -323.15 -38.15 -330.15 -40.4 -339.15 -43.65 -340.75 -51.5 L-341.0 -56.0 -340.75 -57.25 -339.5 -57.9 -337.5 -61.5 -332.5 -63.75 Q-322.0 -62.75 -321.4 -60.65 L-314.9 -63.4 -314.75 -63.75 -318.65 -68.9 -318.5 -69.4 -317.65 -69.5 -315.15 -68.15" fill="url(#gradient58)" fill-rule="evenodd" stroke="none"/>
    <path d="M-340.75 -51.5 L-354.9 -68.4 -372.0 -87.5 -399.75 -123.4 -400.0 -127.65 -390.0 -116.25 -379.4 -104.0 -378.25 -103.15 -366.4 -87.4 -365.9 -87.25 -350.15 -68.4 -339.5 -57.9 -340.75 -57.25 -341.0 -56.0 -340.75 -51.5" fill="url(#gradient59)" fill-rule="evenodd" stroke="none"/>
    <path d="M-206.9 -0.9 L-295.9 -0.9 -282.25 -29.4 -271.65 -27.15 -229.0 -24.4 -214.25 -25.15 -206.9 -0.9" fill="url(#gradient60)" fill-rule="evenodd" stroke="none"/>
    <path d="M-271.9 -260.9 L-264.5 -260.9 -266.0 -258.15 -271.9 -260.75 -271.9 -260.9" fill="#ac0000" fill-rule="evenodd" stroke="none"/>
    <path d="M-312.5 -197.0 L-305.5 -200.25 -305.0 -200.75 -302.65 -201.65 -302.0 -202.15 -300.4 -202.75 -300.15 -203.0 -293.65 -206.0 -293.15 -206.15 -291.25 -207.0 -289.0 -212.5 -288.75 -212.75 -288.25 -214.4 -287.9 -214.75 -280.75 -231.0 -278.25 -244.0 -278.4 -244.25 -270.15 -246.5 -271.0 -240.65 -271.25 -240.25 -271.15 -239.65 -272.75 -230.75 -278.0 -218.0 -278.15 -217.9 -278.25 -217.65 -278.25 -217.15 -278.4 -216.9 -278.65 -216.15 -278.9 -215.65 -282.4 -206.65 -282.9 -203.75 -283.15 -203.5 -283.0 -203.0 -285.65 -188.65 -285.75 -188.4 -287.25 -180.4 -305.15 -192.15 -312.5 -197.0 M-276.75 -252.25 L-272.15 -260.4 -272.25 -260.5 -271.9 -260.9 -271.9 -260.75 -266.0 -258.15 -269.15 -252.4 -276.75 -252.25" fill="#9e0000" fill-opacity="0.9098039" fill-rule="evenodd" stroke="none"/>
    <path d="M-278.4 -244.25 L-276.75 -252.25 -269.15 -252.4 -270.15 -246.5 -278.4 -244.25" fill="#ae0000" fill-opacity="0.9098039" fill-rule="evenodd" stroke="none"/>
    <path d="M-208.65 -257.75 L-207.75 -256.9 -206.0 -254.75 -205.9 -254.75 -205.4 -254.15 -205.25 -253.75 -203.15 -251.4 -204.75 -249.5 -204.9 -248.9 -206.0 -247.65 -206.0 -247.5 -208.15 -247.9 -208.4 -248.0 -211.75 -249.9 -209.9 -252.25 -210.0 -252.65 -209.15 -253.9 -209.0 -254.0 -208.9 -254.4 -208.5 -254.9 -208.65 -255.9 -208.5 -256.9 -208.65 -257.75 M-203.15 -251.4 L-201.4 -254.5 -198.65 -257.25 -198.25 -257.5 -198.15 -257.4 -198.15 -257.25 -194.15 -249.9 -194.15 -247.75 -194.25 -247.5 -197.25 -245.25 -194.25 -244.65 -194.15 -244.5 -194.4 -239.9 -194.25 -239.65 -194.4 -232.65 -194.25 -232.25 -194.5 -219.25 -194.4 -218.5 -194.65 -218.0 -194.5 -217.25 -194.75 -207.9 -194.65 -207.75 -194.9 -205.25 -194.75 -204.75 -194.9 -204.4 -194.75 -203.9 -193.75 -203.4 -193.5 -203.0 -184.15 -197.75 -183.5 -197.25 -182.5 -196.9 -182.15 -196.65 -181.9 -196.25 -172.25 -190.75 -173.0 -190.65 -173.15 -190.65 -176.15 -190.4 -176.4 -190.25 -179.65 -190.0 -180.15 -189.9 -182.25 -189.75 -182.25 -189.65 -197.4 -188.15 -198.0 -187.9 -206.5 -187.15 -205.75 -192.75 -205.65 -193.0 -204.65 -199.9 -204.75 -200.4 -204.5 -200.65 -204.5 -201.0 -204.15 -202.9 -204.25 -204.75 -204.0 -206.25 -204.0 -206.75 -203.65 -211.75 -203.65 -212.0 -202.5 -229.75 -202.65 -230.5 -202.25 -235.0 -202.4 -235.75 -202.15 -240.9 -202.25 -241.4 -201.9 -250.0 -203.0 -251.0 -203.15 -251.4 M-264.5 -260.9 L-258.65 -257.9 -258.25 -257.4 -255.9 -255.65 -255.9 -255.4 -252.0 -252.65 -255.15 -251.0 -256.5 -252.75 -258.9 -252.75 -266.0 -258.15 -264.5 -260.9" fill="#9b0000" fill-opacity="0.9098039" fill-rule="evenodd" stroke="none"/>
    <path d="M-194.25 -247.5 L-194.25 -244.65 -197.25 -245.25 -194.25 -247.5 M-255.15 -251.0 L-256.25 -250.4 -258.9 -252.75 -256.5 -252.75 -255.15 -251.0" fill="#ab0000" fill-opacity="0.9098039" fill-rule="evenodd" stroke="none"/>
    <path d="M-203.15 -251.4 L-205.25 -253.75 -205.4 -254.15 -205.9 -254.75 -206.0 -254.75 -207.75 -256.9 -208.65 -257.75 -198.75 -257.65 -198.25 -257.5 -198.65 -257.25 -201.4 -254.5 -203.15 -251.4" fill="#a90000" fill-rule="evenodd" stroke="none"/>
    <path d="M-172.25 -190.75 L-172.15 -190.15 -172.4 -189.4 -172.25 -187.15 -172.65 -179.9 -174.75 -180.25 -174.25 -178.25 -174.5 -177.5 -174.0 -170.15 -174.0 -169.65 -173.9 -169.25 -175.25 -161.5 -178.0 -154.15 -178.15 -149.9 -178.25 -149.4 -178.25 -148.65 -178.4 -148.25 -178.5 -147.65 -180.0 -143.9 -180.0 -143.4 -181.25 -139.9 -182.9 -134.5 -183.0 -134.25 -196.4 -135.25 -197.15 -135.4 -220.5 -136.9 -255.5 -137.9 -275.75 -139.75 -276.4 -139.5 -278.25 -139.65 -281.25 -139.5 -282.0 -139.4 -282.25 -139.5 -294.15 -139.0 -294.9 -142.25 -296.0 -143.15 -299.0 -146.15 -300.4 -147.15 -302.25 -149.25 -302.25 -149.4 -302.4 -149.5 -302.4 -149.75 -302.65 -149.9 -306.15 -154.9 -306.4 -155.15 -306.5 -155.4 -306.65 -155.65 -310.5 -164.25 -310.5 -164.65 -312.4 -172.5 -312.25 -172.9 -312.5 -177.4 -312.5 -180.65 -311.65 -186.5 -311.9 -187.15 -312.65 -195.9 -312.5 -197.0 -305.15 -192.15 -287.25 -180.4 -279.9 -174.65 -279.9 -174.5 -279.5 -174.4 -279.4 -174.15 -249.4 -150.9 -235.75 -157.75 -235.65 -158.0 -213.25 -169.5 -212.65 -169.75 -206.5 -187.15 -198.0 -187.9 -197.4 -188.15 -182.25 -189.65 -182.25 -189.75 -180.15 -189.9 -179.65 -190.0 -176.4 -190.25 -176.15 -190.4 -173.15 -190.65 -173.0 -190.65 -172.25 -190.75 M-205.4 -159.9 L-205.5 -159.65 -205.15 -158.4 -205.15 -157.9 -203.9 -159.15 -203.65 -160.0 -203.9 -160.4 -204.5 -161.0 -205.15 -160.75 -205.4 -159.9 M-292.65 -158.0 L-292.4 -157.75 -292.25 -157.75 -292.0 -158.0 -293.25 -161.9 -292.65 -158.15 -292.65 -158.0" fill="#b00000" fill-opacity="0.9098039" fill-rule="evenodd" stroke="none"/>
    <path d="M-316.75 -175.4 L-316.75 -175.65 -316.5 -176.25 -315.9 -179.4 -316.0 -179.65 -314.9 -185.25 -314.75 -185.5 -312.65 -195.9 -311.9 -187.15 -311.65 -186.5 -312.5 -180.65 -312.5 -177.4 -314.9 -176.4 -315.25 -176.15 -316.75 -175.4" fill="#c30000" fill-rule="evenodd" stroke="none"/>
    <path d="M-318.0 -167.4 L-318.15 -168.25 -316.75 -175.4 -315.25 -176.15 -314.9 -176.4 -312.5 -177.4 -312.25 -172.9 -312.4 -172.5 -310.5 -164.65 -310.5 -164.25 -306.65 -155.65 -306.5 -155.4 -306.4 -155.15 -306.15 -154.9 -302.65 -149.9 -302.4 -149.75 -302.4 -149.5 -302.25 -149.4 -302.25 -149.25 -300.4 -147.15 -304.65 -148.0 -318.0 -167.4" fill="#c50000" fill-rule="evenodd" stroke="none"/>
    <path d="M-172.15 -190.15 L-167.9 -179.0 -172.65 -179.9 -172.25 -187.15 -172.4 -189.4 -172.15 -190.15 M-182.9 -134.5 L-181.25 -139.9 -180.0 -143.4 -180.0 -143.9 -178.5 -147.65 -178.4 -148.25 -178.5 -142.4 -178.65 -141.75 -178.65 -141.65 -178.9 -141.25 -178.65 -141.15 -178.65 -140.75 -178.75 -140.4 -178.5 -139.4 -179.5 -136.15 -179.75 -135.9 -180.4 -135.9 -180.65 -135.65 -180.75 -135.4 -182.9 -134.5" fill="#c50000" fill-opacity="0.9098039" fill-rule="evenodd" stroke="none"/>
    <path d="M-178.15 -149.9 L-178.0 -154.15 -175.25 -161.5 -173.9 -169.25 -174.0 -169.65 -174.0 -170.15 -174.5 -177.5 -174.25 -178.25 -174.75 -180.25 -172.65 -179.9 -173.15 -164.65 -178.15 -149.9" fill="#c20000" fill-opacity="0.9098039" fill-rule="evenodd" stroke="none"/>
    <path d="M-167.9 -179.0 L-167.75 -178.9 -164.0 -168.5 -165.0 -151.9 -172.65 -143.4 -178.65 -141.65 -178.65 -141.75 -178.5 -142.4 -178.4 -148.25 -178.25 -148.65 -178.25 -149.4 -178.15 -149.9 -173.15 -164.65 -172.65 -179.9 -167.9 -179.0" fill="#d90000" fill-opacity="0.9098039" fill-rule="evenodd" stroke="none"/>
    <path d="M-165.0 -151.9 L-164.9 -150.5 -165.4 -143.15 -170.75 -140.4 -171.5 -140.15 -179.5 -136.15 -178.5 -139.4 -178.75 -140.4 -178.65 -140.75 -178.65 -141.15 -178.9 -141.25 -178.65 -141.65 -172.65 -143.4 -165.0 -151.9" fill="#dc0000" fill-rule="evenodd" stroke="none"/>
    <path d="M-300.4 -147.15 L-299.0 -146.15 -296.0 -143.15 -294.9 -142.25 -294.15 -139.0 -298.4 -138.9 -304.65 -148.0 -300.4 -147.15" fill="#c60000" fill-rule="evenodd" stroke="none"/>
    <path d="M-309.9 -0.9 L-314.65 -0.9 -310.15 -8.5 -309.75 -8.9 -309.4 -9.5 -309.4 -9.75 -307.4 -12.5 -300.4 -24.4 -301.0 -23.9 -298.65 -28.0 -298.5 -28.5 -300.25 -48.15 -297.15 -92.65 -312.9 -150.65 -318.0 -167.4 -304.65 -148.0 -298.4 -138.9 -289.5 -92.15 -292.9 -45.4 -292.4 -31.0 -292.0 -29.0 -292.15 -28.9 -292.15 -28.75 -292.25 -28.25 -292.25 -28.15 -302.65 -11.9 -303.5 -10.75 -303.5 -10.5 -309.9 -0.9" fill="#fd0000" fill-rule="evenodd" stroke="none"/>
    <path d="M-294.15 -139.0 L-282.25 -139.5 -282.0 -139.4 -281.25 -139.5 -278.25 -139.65 -276.4 -139.5 -275.75 -139.75 -255.5 -137.9 -220.5 -136.9 -197.15 -135.4 -196.4 -135.25 -183.0 -134.25 -196.9 -104.0 -197.15 -102.9 -204.5 -86.9 -204.9 -80.5 -204.75 -79.9 -206.15 -59.4 -205.9 -58.5 -207.4 -38.75 -207.25 -38.25 -211.5 -16.25 -211.4 -15.75 -229.25 -14.75 -273.9 -17.65 -280.75 -18.4 -291.75 -20.9 -291.9 -21.15 -292.25 -28.15 -292.25 -28.25 -292.15 -28.75 -292.15 -28.9 -292.0 -29.0 -291.75 -29.25 -291.75 -29.4 -291.15 -30.25 -291.15 -30.4 -290.9 -30.75 -288.25 -35.4 -284.9 -74.5 -284.75 -75.25 -283.75 -93.75 -283.9 -95.15 -294.15 -139.0" fill="#a70000" fill-opacity="0.9098039" fill-rule="evenodd" stroke="none"/>
    <path d="M-179.75 -135.9 L-187.25 -111.65 -187.15 -111.4 -187.65 -110.5 -187.75 -110.0 -187.65 -109.75 -188.0 -109.25 -188.75 -106.5 -194.4 -88.15 -196.65 -48.5 -196.5 -47.65 -197.65 -32.0 -197.5 -29.65 -197.4 -29.65 -197.4 -29.5 -197.0 -28.4 -197.0 -28.25 -196.0 -25.9 -193.75 -20.5 -195.25 -19.5 -195.65 -19.5 -195.75 -19.4 -196.25 -19.25 -197.65 -19.0 -198.4 -18.75 -206.75 -16.9 -206.9 -16.75 -211.4 -15.75 -211.5 -16.25 -207.25 -38.25 -207.4 -38.75 -205.9 -58.5 -206.15 -59.4 -204.75 -79.9 -204.9 -80.5 -204.5 -86.9 -197.15 -102.9 -196.9 -104.0 -183.0 -134.25 -182.9 -134.5 -180.75 -135.4 -180.65 -135.65 -180.4 -135.9 -179.75 -135.9" fill="#d30000" fill-opacity="0.9098039" fill-rule="evenodd" stroke="none"/>
    <path d="M-165.4 -143.15 L-165.65 -141.25 -184.9 -85.4 -187.15 -41.75 -192.4 -22.15 -192.25 -21.9 -192.25 -21.4 -193.0 -20.9 -194.15 -25.0 -194.4 -25.5 -189.65 -44.9 -187.5 -85.25 -188.75 -106.5 -188.0 -109.25 -187.65 -109.75 -187.75 -110.0 -187.65 -110.5 -187.15 -111.4 -187.25 -111.65 -179.75 -135.9 -179.5 -136.15 -171.5 -140.15 -170.75 -140.4 -165.4 -143.15" fill="#ea0000" fill-rule="evenodd" stroke="none"/>
    <path d="M-192.25 -21.9 L-192.0 -21.25 -192.25 -21.4 -192.25 -21.9 M-191.75 -20.65 L-191.5 -19.65 -191.65 -19.9 -191.75 -20.65 M-314.65 -0.9 L-316.5 -1.0 -304.4 -18.5 -309.4 -9.75 -309.4 -9.5 -309.75 -8.9 -310.15 -8.5 -314.65 -0.9" fill="#ff0000" fill-rule="evenodd" stroke="none"/>
    <path d="M-192.0 -21.25 L-192.0 -21.15 -191.9 -20.9 -191.75 -20.65 -191.65 -19.9 -191.5 -19.65 -191.4 -19.5 -191.4 -19.4 -191.25 -19.25 -190.9 -18.4 -190.75 -18.15 -190.65 -17.75 -190.5 -17.65 -190.5 -17.5 -182.15 -0.9 -184.65 -0.9 -192.65 -19.0 -193.0 -20.9 -192.25 -21.4 -192.0 -21.25" fill="#df0000" fill-rule="evenodd" stroke="none"/>
    <path d="M-194.4 -25.5 L-194.15 -25.0 -193.0 -20.9 -193.75 -20.5 -196.0 -25.9 -194.4 -25.5" fill="#e60000" fill-rule="evenodd" stroke="none"/>
    <path d="M-188.75 -106.5 L-187.5 -85.25 -189.65 -44.9 -194.4 -25.5 -196.0 -25.9 -197.0 -28.25 -197.0 -28.4 -197.4 -29.5 -197.4 -29.65 -197.5 -29.65 -197.65 -32.0 -196.5 -47.65 -196.65 -48.5 -194.4 -88.15 -188.75 -106.5" fill="#e40000" fill-rule="evenodd" stroke="none"/>
    <path d="M-294.15 -139.0 L-283.9 -95.15 -283.75 -93.75 -284.75 -75.25 -284.9 -74.5 -288.25 -35.4 -290.9 -30.75 -291.15 -30.4 -291.15 -30.25 -291.75 -29.4 -291.75 -29.25 -292.0 -29.0 -292.4 -31.0 -292.9 -45.4 -289.5 -92.15 -298.4 -138.9 -294.15 -139.0" fill="#bc0000" fill-rule="evenodd" stroke="none"/>
    <path d="M-184.65 -0.9 L-206.9 -0.9 -207.0 -1.65 -211.4 -15.75 -206.9 -16.75 -206.75 -16.9 -198.4 -18.75 -197.65 -19.0 -196.25 -19.25 -195.75 -19.4 -195.65 -19.5 -195.25 -19.5 -193.75 -20.5 -193.65 -20.5 -193.4 -20.15 -193.0 -19.25 -192.65 -19.0 -184.65 -0.9" fill="#c80000" fill-opacity="0.9098039" fill-rule="evenodd" stroke="none"/>
    <path d="M-302.0 -0.9 L-309.9 -0.9 -303.5 -10.5 -303.5 -10.75 -302.65 -11.9 -292.25 -28.15 -291.9 -21.15 -291.75 -20.9 -302.0 -0.9" fill="#e80000" fill-opacity="0.9098039" fill-rule="evenodd" stroke="none"/>
    <path d="M-206.9 -0.9 L-302.0 -0.9 -291.75 -20.9 -280.75 -18.4 -273.9 -17.65 -229.25 -14.75 -211.4 -15.75 -207.0 -1.65 -206.9 -0.9" fill="#a50000" fill-opacity="0.9098039" fill-rule="evenodd" stroke="none"/>
    <path d="M-304.4 -18.5 L-304.4 -18.65 -302.65 -21.25 -302.5 -21.4 -302.25 -21.75 -301.0 -23.9 -300.4 -24.4 -307.4 -12.5 -309.4 -9.75 -304.4 -18.5" fill="#fe0000" fill-rule="evenodd" stroke="none"/>
    <path d="M-193.0 -20.9 L-192.65 -19.0 -193.0 -19.25 -193.4 -20.15 -193.65 -20.5 -193.75 -20.5 -193.0 -20.9" fill="#da0000" fill-rule="evenodd" stroke="none"/>
  </g>
  <defs>
    <radialGradient cx="0" cy="0" gradientTransform="matrix(0.1791, 0.0, 0.0, 0.1791, -173.05, -275.85)" gradientUnits="userSpaceOnUse" id="gradient0" r="819.2" spreadMethod="pad">
      <stop offset="0.0" stop-color="#555555"/>
      <stop offset="1.0" stop-color="#101010"/>
    </radialGradient>
    <radialGradient cx="0" cy="0" gradientTransform="matrix(0.1005, 0.0, 0.0, 0.1005, -217.0, -282.9)" gradientUnits="userSpaceOnUse" id="gradient1" r="819.2" spreadMethod="pad">
      <stop offset="0.0" stop-color="#7d7d7d"/>
      <stop offset="1.0" stop-color="#0a0a0a"/>
    </radialGradient>
    <radialGradient cx="0" cy="0" gradientTransform="matrix(0.0146, 0.0, 0.0, 0.0146, -250.25, -262.4)" gradientUnits="userSpaceOnUse" id="gradient2" r="819.2" spreadMethod="pad">
      <stop offset="0.0" stop-color="#1a1a1a"/>
      <stop offset="1.0" stop-color="#050505"/>
    </radialGradient>
    <radialGradient cx="0" cy="0" gradientTransform="matrix(0.0441, 0.0, 0.0, 0.0441, -250.25, -262.4)" gradientUnits="userSpaceOnUse" id="gradient3" r="819.2" spreadMethod="pad">
      <stop offset="0.0" stop-color="#1a1a1a"/>
      <stop offset="1.0" stop-color="#000000"/>
    </radialGradient>
    <radialGradient cx="0" cy="0" gradientTransform="matrix(0.0199, 0.0, 0.0, 0.0199, -222.95, -270.1)" gradientUnits="userSpaceOnUse" id="gradient4" r="819.2" spreadMethod="pad">
      <stop offset="0.0" stop-color="#797979"/>
      <stop offset="1.0" stop-color="#000000"/>
    </radialGradient>
    <radialGradient cx="0" cy="0" gradientTransform="matrix(0.2945, 0.0, 0.0, 0.2945, -212.25, -256.9)" gradientUnits="userSpaceOnUse" id="gradient5" r="819.2" spreadMethod="pad">
      <stop offset="0.0" stop-color="#101010"/>
      <stop offset="1.0" stop-color="#000000"/>
    </radialGradient>
    <radialGradient cx="0" cy="0" gradientTransform="matrix(0.0456, 0.0, 0.0, 0.0456, -148.4, -275.4)" gradientUnits="userSpaceOnUse" id="gradient6" r="819.2" spreadMethod="pad">
      <stop offset="0.0" stop-color="#393939"/>
      <stop offset="1.0" stop-color="#222222"/>
    </radialGradient>
    <radialGradient cx="0" cy="0" gradientTransform="matrix(0.0245, 0.0, 0.0, 0.0245, -311.1, -300.0)" gradientUnits="userSpaceOnUse" id="gradient7" r="819.2" spreadMethod="pad">
      <stop offset="0.0" stop-color="#2b2b2b"/>
      <stop offset="1.0" stop-color="#222222"/>
    </radialGradient>
    <radialGradient cx="0" cy="0" gradientTransform="matrix(0.1534, 0.0, 0.0, 0.1534, -266.05, -137.0)" gradientUnits="userSpaceOnUse" id="gradient8" r="819.2" spreadMethod="pad">
      <stop offset="0.0" stop-color="#6a6a6a"/>
      <stop offset="1.0" stop-color="#000000"/>
    </radialGradient>
    <radialGradient cx="0" cy="0" gradientTransform="matrix(0.0092, 0.0, 0.0, 0.0092, -212.45, -253.0)" gradientUnits="userSpaceOnUse" id="gradient9" r="819.2" spreadMethod="pad">
      <stop offset="0.0" stop-color="#7b7b7b"/>
      <stop offset="1.0" stop-color="#1b1b1b"/>
    </radialGradient>
    <radialGradient cx="0" cy="0" gradientTransform="matrix(0.0045, 0.0, 0.0, 0.0045, -1.1, -255.2)" gradientUnits="userSpaceOnUse" id="gradient10" r="819.2" spreadMethod="pad">
      <stop offset="0.0" stop-color="#171717"/>
      <stop offset="1.0" stop-color="#171717"/>
    </radialGradient>
    <radialGradient cx="0" cy="0" gradientTransform="matrix(0.0064, 0.0, 0.0, 0.0064, -4.5, -255.55)" gradientUnits="userSpaceOnUse" id="gradient11" r="819.2" spreadMethod="pad">
      <stop offset="0.0" stop-color="#040404"/>
      <stop offset="1.0" stop-color="#040404"/>
    </radialGradient>
    <radialGradient cx="0" cy="0" gradientTransform="matrix(0.0124, 0.0, 0.0, 0.0124, -4.5, -256.75)" gradientUnits="userSpaceOnUse" id="gradient12" r="819.2" spreadMethod="pad">
      <stop offset="0.0" stop-color="#303030"/>
      <stop offset="1.0" stop-color="#212121"/>
    </radialGradient>
    <radialGradient cx="0" cy="0" gradientTransform="matrix(0.0035, 0.0, 0.0, 0.0035, -3.25, -247.1)" gradientUnits="userSpaceOnUse" id="gradient13" r="819.2" spreadMethod="pad">
      <stop offset="0.0" stop-color="#202020"/>
      <stop offset="1.0" stop-color="#1f1f1f"/>
    </radialGradient>
    <radialGradient cx="0" cy="0" gradientTransform="matrix(0.007, 0.0, 0.0, 0.007, -4.15, -257.05)" gradientUnits="userSpaceOnUse" id="gradient14" r="819.2" spreadMethod="pad">
      <stop offset="0.0" stop-color="#828282"/>
      <stop offset="1.0" stop-color="#636363"/>
    </radialGradient>
    <radialGradient cx="0" cy="0" gradientTransform="matrix(0.0521, 0.0, 0.0, 0.0521, -256.2, -250.4)" gradientUnits="userSpaceOnUse" id="gradient15" r="819.2" spreadMethod="pad">
      <stop offset="0.0" stop-color="#000000"/>
      <stop offset="1.0" stop-color="#000000"/>
    </radialGradient>
    <radialGradient cx="0" cy="0" gradientTransform="matrix(0.0574, 0.0, 0.0, 0.0574, -291.3, -195.05)" gradientUnits="userSpaceOnUse" id="gradient16" r="819.2" spreadMethod="pad">
      <stop offset="0.0" stop-color="#171717"/>
      <stop offset="1.0" stop-color="#000000"/>
    </radialGradient>
    <radialGradient cx="0" cy="0" gradientTransform="matrix(0.0972, 0.0, 0.0, 0.0972, -343.8, -167.1)" gradientUnits="userSpaceOnUse" id="gradient17" r="819.2" spreadMethod="pad">
      <stop offset="0.0" stop-color="#6a6a6a"/>
      <stop offset="1.0" stop-color="#000000"/>
    </radialGradient>
    <radialGradient cx="0" cy="0" gradientTransform="matrix(0.0311, 0.0, 0.0, 0.0311, -301.1, -235.8)" gradientUnits="userSpaceOnUse" id="gradient18" r="819.2" spreadMethod="pad">
      <stop offset="0.0" stop-color="#0d0d0d"/>
      <stop offset="1.0" stop-color="#000000"/>
    </radialGradient>
    <radialGradient cx="0" cy="0" gradientTransform="matrix(0.1286, 0.0, 0.0, 0.1286, -389.7, -178.7)" gradientUnits="userSpaceOnUse" id="gradient19" r="819.2" spreadMethod="pad">
      <stop offset="0.0" stop-color="#262626"/>
      <stop offset="1.0" stop-color="#040404"/>
    </radialGradient>
    <radialGradient cx="0" cy="0" gradientTransform="matrix(0.0196, 0.0, 0.0, 0.0196, -389.7, -178.7)" gradientUnits="userSpaceOnUse" id="gradient20" r="819.2" spreadMethod="pad">
      <stop offset="0.0" stop-color="#262626"/>
      <stop offset="1.0" stop-color="#0b0b0b"/>
    </radialGradient>
    <radialGradient cx="0" cy="0" gradientTransform="matrix(0.0714, 0.0, 0.0, 0.0714, -389.95, -116.25)" gradientUnits="userSpaceOnUse" id="gradient21" r="819.2" spreadMethod="pad">
      <stop offset="0.0" stop-color="#393939"/>
      <stop offset="1.0" stop-color="#000000"/>
    </radialGradient>
    <radialGradient cx="0" cy="0" gradientTransform="matrix(0.08, 0.0, 0.0, 0.08, -291.3, -195.05)" gradientUnits="userSpaceOnUse" id="gradient22" r="819.2" spreadMethod="pad">
      <stop offset="0.0" stop-color="#171717"/>
      <stop offset="1.0" stop-color="#000000"/>
    </radialGradient>
    <radialGradient cx="0" cy="0" gradientTransform="matrix(0.1312, 0.0, 0.0, 0.1312, -271.35, -166.45)" gradientUnits="userSpaceOnUse" id="gradient23" r="819.2" spreadMethod="pad">
      <stop offset="0.0" stop-color="#323232"/>
      <stop offset="1.0" stop-color="#000000"/>
    </radialGradient>
    <radialGradient cx="0" cy="0" gradientTransform="matrix(0.0798, 0.0, 0.0, 0.0798, -166.3, -198.1)" gradientUnits="userSpaceOnUse" id="gradient24" r="819.2" spreadMethod="pad">
      <stop offset="0.0" stop-color="#595959"/>
      <stop offset="1.0" stop-color="#000000"/>
    </radialGradient>
    <radialGradient cx="0" cy="0" gradientTransform="matrix(0.1117, 0.0, 0.0, 0.1117, -177.5, -162.0)" gradientUnits="userSpaceOnUse" id="gradient25" r="819.2" spreadMethod="pad">
      <stop offset="0.0" stop-color="#3f3f3f"/>
      <stop offset="1.0" stop-color="#000000"/>
    </radialGradient>
    <radialGradient cx="0" cy="0" gradientTransform="matrix(0.084, 0.0, 0.0, 0.084, -220.7, -145.75)" gradientUnits="userSpaceOnUse" id="gradient26" r="819.2" spreadMethod="pad">
      <stop offset="0.0" stop-color="#878787"/>
      <stop offset="1.0" stop-color="#000000"/>
    </radialGradient>
    <radialGradient cx="0" cy="0" gradientTransform="matrix(0.1504, 0.0, 0.0, 0.1504, -266.05, -137.0)" gradientUnits="userSpaceOnUse" id="gradient27" r="819.2" spreadMethod="pad">
      <stop offset="0.0" stop-color="#6a6a6a"/>
      <stop offset="1.0" stop-color="#000000"/>
    </radialGradient>
    <radialGradient cx="0" cy="0" gradientTransform="matrix(0.084, 0.0, 0.0, 0.084, -278.45, -150.55)" gradientUnits="userSpaceOnUse" id="gradient28" r="819.2" spreadMethod="pad">
      <stop offset="0.0" stop-color="#858585"/>
      <stop offset="1.0" stop-color="#000000"/>
    </radialGradient>
    <radialGradient cx="0" cy="0" gradientTransform="matrix(0.012, 0.0, 0.0, 0.012, -8.75, -239.25)" gradientUnits="userSpaceOnUse" id="gradient29" r="819.2" spreadMethod="pad">
      <stop offset="0.0" stop-color="#313131"/>
      <stop offset="1.0" stop-color="#212121"/>
    </radialGradient>
    <radialGradient cx="0" cy="0" gradientTransform="matrix(0.0129, 0.0, 0.0, 0.0129, -8.75, -237.85)" gradientUnits="userSpaceOnUse" id="gradient30" r="819.2" spreadMethod="pad">
      <stop offset="0.0" stop-color="#040404"/>
      <stop offset="1.0" stop-color="#040404"/>
    </radialGradient>
    <radialGradient cx="0" cy="0" gradientTransform="matrix(0.0051, 0.0, 0.0, 0.0051, -12.75, -237.35)" gradientUnits="userSpaceOnUse" id="gradient31" r="819.2" spreadMethod="pad">
      <stop offset="0.0" stop-color="#262626"/>
      <stop offset="1.0" stop-color="#262626"/>
    </radialGradient>
    <radialGradient cx="0" cy="0" gradientTransform="matrix(0.0095, 0.0, 0.0, 0.0095, -8.35, -239.05)" gradientUnits="userSpaceOnUse" id="gradient32" r="819.2" spreadMethod="pad">
      <stop offset="0.0" stop-color="#030303"/>
      <stop offset="1.0" stop-color="#030303"/>
    </radialGradient>
    <radialGradient cx="0" cy="0" gradientTransform="matrix(0.0144, 0.0, 0.0, 0.0144, -12.2, -236.3)" gradientUnits="userSpaceOnUse" id="gradient33" r="819.2" spreadMethod="pad">
      <stop offset="0.0" stop-color="#030303"/>
      <stop offset="1.0" stop-color="#030303"/>
    </radialGradient>
    <radialGradient cx="0" cy="0" gradientTransform="matrix(0.0148, 0.0, 0.0, 0.0148, -12.65, -236.25)" gradientUnits="userSpaceOnUse" id="gradient34" r="819.2" spreadMethod="pad">
      <stop offset="0.0" stop-color="#040404"/>
      <stop offset="1.0" stop-color="#040404"/>
    </radialGradient>
    <radialGradient cx="0" cy="0" gradientTransform="matrix(0.0302, 0.0, 0.0, 0.0302, -153.6, -224.2)" gradientUnits="userSpaceOnUse" id="gradient35" r="819.2" spreadMethod="pad">
      <stop offset="0.0" stop-color="#000000"/>
      <stop offset="1.0" stop-color="#000000"/>
    </radialGradient>
    <radialGradient cx="0" cy="0" gradientTransform="matrix(0.0193, 0.0, 0.0, 0.0193, -168.05, -224.45)" gradientUnits="userSpaceOnUse" id="gradient36" r="819.2" spreadMethod="pad">
      <stop offset="0.0" stop-color="#000000"/>
      <stop offset="1.0" stop-color="#000000"/>
    </radialGradient>
    <radialGradient cx="0" cy="0" gradientTransform="matrix(0.0885, 0.0, 0.0, 0.0885, -144.5, -192.2)" gradientUnits="userSpaceOnUse" id="gradient37" r="819.2" spreadMethod="pad">
      <stop offset="0.0" stop-color="#616161"/>
      <stop offset="1.0" stop-color="#000000"/>
    </radialGradient>
    <radialGradient cx="0" cy="0" gradientTransform="matrix(0.0276, 0.0, 0.0, 0.0276, -166.3, -198.1)" gradientUnits="userSpaceOnUse" id="gradient38" r="819.2" spreadMethod="pad">
      <stop offset="0.0" stop-color="#595959"/>
      <stop offset="1.0" stop-color="#070707"/>
    </radialGradient>
    <radialGradient cx="0" cy="0" gradientTransform="matrix(0.0018, 0.0, 0.0, 0.0018, -1.0, -239.55)" gradientUnits="userSpaceOnUse" id="gradient39" r="819.2" spreadMethod="pad">
      <stop offset="0.0" stop-color="#040404"/>
      <stop offset="1.0" stop-color="#040404"/>
    </radialGradient>
    <radialGradient cx="0" cy="0" gradientTransform="matrix(0.0715, 0.0, 0.0, 0.0715, -125.3, -210.45)" gradientUnits="userSpaceOnUse" id="gradient40" r="819.2" spreadMethod="pad">
      <stop offset="0.0" stop-color="#000000"/>
      <stop offset="1.0" stop-color="#000000"/>
    </radialGradient>
    <radialGradient cx="0" cy="0" gradientTransform="matrix(0.0464, 0.0, 0.0, 0.0464, -31.85, -194.35)" gradientUnits="userSpaceOnUse" id="gradient41" r="819.2" spreadMethod="pad">
      <stop offset="0.0" stop-color="#000000"/>
      <stop offset="1.0" stop-color="#000000"/>
    </radialGradient>
    <radialGradient cx="0" cy="0" gradientTransform="matrix(0.042, 0.0, 0.0, 0.042, -31.85, -194.35)" gradientUnits="userSpaceOnUse" id="gradient42" r="819.2" spreadMethod="pad">
      <stop offset="0.0" stop-color="#000000"/>
      <stop offset="1.0" stop-color="#000000"/>
    </radialGradient>
    <radialGradient cx="0" cy="0" gradientTransform="matrix(0.0269, 0.0, 0.0, 0.0269, -72.3, -185.5)" gradientUnits="userSpaceOnUse" id="gradient43" r="819.2" spreadMethod="pad">
      <stop offset="0.0" stop-color="#000000"/>
      <stop offset="1.0" stop-color="#000000"/>
    </radialGradient>
    <radialGradient cx="0" cy="0" gradientTransform="matrix(0.0254, 0.0, 0.0, 0.0254, -31.85, -194.35)" gradientUnits="userSpaceOnUse" id="gradient44" r="819.2" spreadMethod="pad">
      <stop offset="0.0" stop-color="#000000"/>
      <stop offset="1.0" stop-color="#000000"/>
    </radialGradient>
    <radialGradient cx="0" cy="0" gradientTransform="matrix(0.0662, 0.0, 0.0, 0.0662, -46.3, -155.95)" gradientUnits="userSpaceOnUse" id="gradient45" r="819.2" spreadMethod="pad">
      <stop offset="0.0" stop-color="#161616"/>
      <stop offset="1.0" stop-color="#000000"/>
    </radialGradient>
    <radialGradient cx="0" cy="0" gradientTransform="matrix(0.0428, 0.0, 0.0, 0.0428, -46.3, -155.95)" gradientUnits="userSpaceOnUse" id="gradient46" r="819.2" spreadMethod="pad">
      <stop offset="0.0" stop-color="#161616"/>
      <stop offset="1.0" stop-color="#000000"/>
    </radialGradient>
    <radialGradient cx="0" cy="0" gradientTransform="matrix(0.0786, 0.0, 0.0, 0.0786, -283.7, -93.9)" gradientUnits="userSpaceOnUse" id="gradient47" r="819.2" spreadMethod="pad">
      <stop offset="0.0" stop-color="#838383"/>
      <stop offset="1.0" stop-color="#212121"/>
    </radialGradient>
    <radialGradient cx="0" cy="0" gradientTransform="matrix(0.0453, 0.0, 0.0, 0.0453, -288.1, -34.9)" gradientUnits="userSpaceOnUse" id="gradient48" r="819.2" spreadMethod="pad">
      <stop offset="0.0" stop-color="#1b1b1b"/>
      <stop offset="1.0" stop-color="#0e0e0e"/>
    </radialGradient>
    <radialGradient cx="0" cy="0" gradientTransform="matrix(0.0424, 0.0, 0.0, 0.0424, -295.85, -1.0)" gradientUnits="userSpaceOnUse" id="gradient49" r="819.2" spreadMethod="pad">
      <stop offset="0.0" stop-color="#464646"/>
      <stop offset="1.0" stop-color="#1c1c1c"/>
    </radialGradient>
    <radialGradient cx="0" cy="0" gradientTransform="matrix(0.0208, 0.0, 0.0, 0.0208, -367.15, -149.4)" gradientUnits="userSpaceOnUse" id="gradient50" r="819.2" spreadMethod="pad">
      <stop offset="0.0" stop-color="#010101"/>
      <stop offset="1.0" stop-color="#000000"/>
    </radialGradient>
    <radialGradient cx="0" cy="0" gradientTransform="matrix(0.0479, 0.0, 0.0, 0.0479, -352.95, -112.8)" gradientUnits="userSpaceOnUse" id="gradient51" r="819.2" spreadMethod="pad">
      <stop offset="0.0" stop-color="#292929"/>
      <stop offset="1.0" stop-color="#010101"/>
    </radialGradient>
    <radialGradient cx="0" cy="0" gradientTransform="matrix(0.0215, 0.0, 0.0, 0.0215, -296.0, -147.25)" gradientUnits="userSpaceOnUse" id="gradient52" r="819.2" spreadMethod="pad">
      <stop offset="0.0" stop-color="#626262"/>
      <stop offset="1.0" stop-color="#373737"/>
    </radialGradient>
    <radialGradient cx="0" cy="0" gradientTransform="matrix(0.1461, 0.0, 0.0, 0.1461, -178.65, -139.5)" gradientUnits="userSpaceOnUse" id="gradient53" r="819.2" spreadMethod="pad">
      <stop offset="0.0" stop-color="#232323"/>
      <stop offset="1.0" stop-color="#000000"/>
    </radialGradient>
    <radialGradient cx="0" cy="0" gradientTransform="matrix(0.0392, 0.0, 0.0, 0.0392, -187.2, -1.0)" gradientUnits="userSpaceOnUse" id="gradient54" r="819.2" spreadMethod="pad">
      <stop offset="0.0" stop-color="#525252"/>
      <stop offset="1.0" stop-color="#464646"/>
    </radialGradient>
    <radialGradient cx="0" cy="0" gradientTransform="matrix(0.0467, 0.0, 0.0, 0.0467, -184.65, -1.0)" gradientUnits="userSpaceOnUse" id="gradient55" r="819.2" spreadMethod="pad">
      <stop offset="0.0" stop-color="#171717"/>
      <stop offset="1.0" stop-color="#000000"/>
    </radialGradient>
    <radialGradient cx="0" cy="0" gradientTransform="matrix(0.077, 0.0, 0.0, 0.077, -349.45, -67.9)" gradientUnits="userSpaceOnUse" id="gradient56" r="819.2" spreadMethod="pad">
      <stop offset="0.0" stop-color="#505050"/>
      <stop offset="1.0" stop-color="#131313"/>
    </radialGradient>
    <radialGradient cx="0" cy="0" gradientTransform="matrix(0.0632, 0.0, 0.0, 0.0632, -326.0, -81.0)" gradientUnits="userSpaceOnUse" id="gradient57" r="819.2" spreadMethod="pad">
      <stop offset="0.0" stop-color="#3a3a3a"/>
      <stop offset="1.0" stop-color="#000000"/>
    </radialGradient>
    <radialGradient cx="0" cy="0" gradientTransform="matrix(0.0397, 0.0, 0.0, 0.0397, -308.7, -57.8)" gradientUnits="userSpaceOnUse" id="gradient58" r="819.2" spreadMethod="pad">
      <stop offset="0.0" stop-color="#858585"/>
      <stop offset="1.0" stop-color="#2c2c2c"/>
    </radialGradient>
    <radialGradient cx="0" cy="0" gradientTransform="matrix(0.0959, 0.0, 0.0, 0.0959, -349.45, -67.9)" gradientUnits="userSpaceOnUse" id="gradient59" r="819.2" spreadMethod="pad">
      <stop offset="0.0" stop-color="#505050"/>
      <stop offset="1.0" stop-color="#2f2f2f"/>
    </radialGradient>
    <radialGradient cx="0" cy="0" gradientTransform="matrix(0.1084, 0.0, 0.0, 0.1084, -295.85, -1.0)" gradientUnits="userSpaceOnUse" id="gradient60" r="819.2" spreadMethod="pad">
      <stop offset="0.0" stop-color="#464646"/>
      <stop offset="1.0" stop-color="#000000"/>
    </radialGradient>
  </defs>
</svg>
