<?xml version="1.0" encoding="UTF-8" standalone="no"?>
<svg xmlns:xlink="http://www.w3.org/1999/xlink" height="299.1px" width="399.1px" xmlns="http://www.w3.org/2000/svg">
  <g transform="matrix(1.0, 0.0, 0.0, 1.0, 400.0, 300.0)">
    <path d="M-262.0 -253.9 L-264.5 -256.65 -285.4 -256.9 -304.65 -273.65 -316.75 -289.75 -312.9 -288.25 -319.25 -300.0 -318.5 -300.0 -314.4 -295.0 -309.75 -290.25 -313.75 -300.0 -300.15 -300.0 -290.5 -286.9 -288.4 -284.5 -288.0 -284.15 -281.65 -277.4 -273.0 -269.9 -254.0 -260.4 -253.5 -256.75 -257.65 -254.9 -262.0 -253.9 M-155.25 -300.0 L-154.0 -300.0 -156.15 -282.75 -155.9 -282.5 -156.15 -282.15 -155.4 -282.0 -150.75 -281.5 -151.25 -281.15 -159.15 -266.5 -164.65 -262.25 -175.65 -252.5 -176.9 -251.5 -184.75 -251.75 -194.25 -253.15 -199.0 -249.4 -206.15 -251.0 -213.4 -256.15 -213.15 -256.9 Q-209.0 -257.0 -205.5 -258.65 L-189.5 -264.75 -178.0 -272.0 -166.5 -283.75 -159.65 -292.65 -155.25 -300.0 M-148.0 -300.0 L-147.4 -300.0 -142.9 -293.65 -143.15 -293.4 -155.65 -282.75 -148.0 -300.0" fill="url(#gradient0)" fill-rule="evenodd" stroke="none"/>
    <path d="M-318.5 -300.0 L-313.75 -300.0 -309.75 -290.25 -314.4 -295.0 -318.5 -300.0" fill="url(#gradient1)" fill-rule="evenodd" stroke="none"/>
    <path d="M-300.15 -300.0 L-155.25 -300.0 -159.65 -292.65 -166.5 -283.75 -178.0 -272.0 -189.5 -264.75 -205.5 -258.65 Q-209.0 -257.0 -213.15 -256.9 L-213.0 -261.15 -214.9 -262.9 -217.75 -265.5 -218.15 -265.25 -217.4 -263.5 -220.15 -264.9 -222.9 -266.9 -226.0 -266.9 -234.4 -268.25 -240.9 -268.15 -245.5 -268.65 -247.4 -267.65 -252.75 -265.9 -252.9 -265.15 -253.75 -264.0 -253.75 -263.0 -254.0 -260.4 -273.0 -269.9 -281.65 -277.4 -288.0 -284.15 -288.4 -284.5 -290.5 -286.9 -300.15 -300.0" fill="url(#gradient2)" fill-rule="evenodd" stroke="none"/>
    <path d="M-254.0 -260.4 L-253.75 -263.0 -253.75 -264.0 -252.9 -265.15 -253.5 -256.75 -254.0 -260.4" fill="url(#gradient3)" fill-rule="evenodd" stroke="none"/>
    <path d="M-252.9 -265.15 L-252.75 -265.9 -247.4 -267.65 -245.5 -268.65 -240.9 -268.15 -234.4 -268.25 -226.0 -266.9 -222.9 -266.9 -220.15 -264.9 -217.4 -263.5 -215.25 -259.5 -215.4 -257.0 -214.75 -256.65 -248.75 -258.75 -253.5 -256.75 -252.9 -265.15" fill="url(#gradient4)" fill-rule="evenodd" stroke="none"/>
    <path d="M-217.4 -263.5 L-218.15 -265.25 -217.75 -265.5 -214.9 -262.9 -215.25 -259.5 -217.4 -263.5" fill="url(#gradient5)" fill-rule="evenodd" stroke="none"/>
    <path d="M-213.15 -256.9 L-213.4 -256.15 -214.75 -256.65 -215.4 -257.0 -215.25 -259.5 -214.9 -262.9 -213.0 -261.15 -213.15 -256.9" fill="url(#gradient6)" fill-rule="evenodd" stroke="none"/>
    <path d="M-154.0 -300.0 L-148.0 -300.0 -155.65 -282.75 -155.9 -282.5 -156.15 -282.75 -154.0 -300.0" fill="url(#gradient7)" fill-rule="evenodd" stroke="none"/>
    <path d="M-147.4 -300.0 L-134.75 -300.0 -135.5 -297.65 -147.75 -277.75 -160.9 -263.4 -175.65 -252.5 -164.65 -262.25 -159.15 -266.5 -151.25 -281.15 -150.75 -281.5 -155.4 -282.0 -156.15 -282.15 -155.9 -282.5 -155.65 -282.75 -143.15 -293.4 -142.9 -293.65 -147.4 -300.0" fill="url(#gradient8)" fill-rule="evenodd" stroke="none"/>
    <path d="M-316.75 -289.75 L-321.65 -299.9 -319.25 -300.0 -312.9 -288.25 -316.75 -289.75" fill="url(#gradient9)" fill-rule="evenodd" stroke="none"/>
    <path d="M-291.75 -246.65 L-262.0 -253.9 -257.65 -254.9 -258.75 -254.0 -261.0 -253.65 -260.65 -252.75 -295.9 -230.9 -291.75 -246.65" fill="url(#gradient10)" fill-rule="evenodd" stroke="none"/>
    <path d="M-213.4 -256.15 L-206.15 -251.0 -206.5 -250.9 -206.25 -250.5 -205.15 -249.25 -187.75 -214.25 -185.5 -205.9 -188.25 -208.25 -199.15 -213.65 -205.0 -214.9 -210.4 -215.25 -218.9 -214.75 -227.0 -212.25 -233.5 -208.4 -238.0 -202.75 -239.75 -195.75 -238.65 -189.65 Q-240.4 -188.9 -241.9 -177.5 L-240.9 -169.25 -237.65 -162.4 Q-238.65 -161.15 -235.9 -151.5 L-230.65 -143.75 -227.15 -140.9 -215.9 -137.15 -208.75 -131.9 -207.25 -131.4 -265.5 -134.75 -278.25 -134.25 -273.15 -137.15 -271.5 -140.5 -267.9 -142.0 Q-264.4 -146.15 -260.4 -147.9 L-254.65 -154.9 -252.4 -162.9 -246.25 -172.25 -244.15 -181.0 -245.25 -190.25 Q-241.75 -197.0 -242.5 -198.15 -243.65 -206.25 -247.4 -211.0 L-253.4 -216.25 Q-268.9 -224.4 -280.4 -220.75 L-259.15 -252.25 -257.0 -252.5 -256.15 -254.4 -257.25 -254.15 -257.75 -254.15 -257.65 -254.9 -253.5 -256.75 -248.75 -258.75 -214.75 -256.65 -213.4 -256.15 M-198.0 -130.9 L-192.15 -133.15 -193.25 -130.65 -198.0 -130.9 M-286.75 -134.0 L-286.9 -134.25 -287.15 -135.25 -283.5 -134.15 -286.75 -134.0" fill="url(#gradient11)" fill-rule="evenodd" stroke="none"/>
    <path d="M-260.65 -252.75 L-259.15 -252.25 -280.4 -220.75 Q-281.4 -221.15 -284.9 -219.65 L-293.15 -216.5 -296.0 -214.75 -295.9 -230.9 -260.65 -252.75 M-257.75 -254.15 L-258.75 -254.0 -257.65 -254.9 -257.75 -254.15 M-286.9 -134.25 L-288.65 -135.65 -287.15 -135.25 -286.9 -134.25" fill="url(#gradient12)" fill-rule="evenodd" stroke="none"/>
    <path d="M-205.15 -249.25 L-206.25 -250.5 -206.5 -250.9 -206.15 -251.0 -202.75 -250.15 -203.9 -249.9 -204.25 -249.15 -205.15 -249.25 M-259.15 -252.25 L-260.65 -252.75 -261.0 -253.65 -258.75 -254.0 -257.75 -254.15 -257.25 -254.15 -256.15 -254.4 -257.0 -252.5 -259.15 -252.25" fill="url(#gradient13)" fill-rule="evenodd" stroke="none"/>
    <path d="M-4.75 -253.15 L-1.9 -254.5 -1.15 -254.75 -0.9 -254.5 -4.75 -253.15 M-2.75 -253.5 L-2.4 -253.4 -2.75 -253.15 -2.75 -253.5 M-4.0 -252.9 L-3.5 -253.15 -3.9 -252.65 -4.0 -252.9 M-4.4 -252.5 L-4.65 -252.65 -4.25 -252.9 -4.4 -252.5 M-5.0 -252.25 L-5.25 -252.4 -4.75 -252.5 -5.0 -252.25" fill="url(#gradient14)" fill-rule="evenodd" stroke="none"/>
    <path d="M-4.75 -253.15 L-0.9 -254.5 -0.9 -245.75 Q-7.0 -251.0 -5.4 -252.9 L-4.9 -253.15 -4.75 -253.15 M-5.0 -252.25 L-4.75 -252.5 -5.25 -252.4 -5.0 -252.25 M-4.4 -252.5 L-4.25 -252.9 -4.65 -252.65 -4.4 -252.5 M-4.0 -252.9 L-3.9 -252.65 -3.5 -253.15 -4.0 -252.9 M-2.75 -253.5 L-2.75 -253.15 -2.4 -253.4 -2.75 -253.5" fill="url(#gradient15)" fill-rule="evenodd" stroke="none"/>
    <path d="M-199.0 -249.4 L-170.5 -241.4 -170.25 -241.0 -164.5 -225.5 -162.65 -198.65 -162.9 -197.65 -172.5 -187.65 -173.25 -189.5 -171.65 -212.25 -204.25 -249.15 -203.9 -249.9 -202.75 -250.15 -206.15 -251.0 -199.0 -249.4" fill="url(#gradient16)" fill-rule="evenodd" stroke="none"/>
    <path d="M-175.4 -148.4 L-175.75 -138.4 -193.25 -130.65 -192.15 -133.15 Q-183.0 -136.25 -175.4 -148.4 M-204.25 -249.15 L-171.65 -212.25 -173.25 -189.5 Q-174.5 -190.9 -175.25 -193.4 L-181.9 -202.9 -185.5 -205.9 -187.75 -214.25 -205.15 -249.25 -204.25 -249.15" fill="url(#gradient17)" fill-rule="evenodd" stroke="none"/>
    <path d="M-169.75 -178.65 Q-167.75 -158.75 -175.4 -148.4 -183.0 -136.25 -192.15 -133.15 L-198.0 -130.9 -201.9 -130.5 -207.25 -131.4 -208.75 -131.9 -215.9 -137.15 -227.15 -140.9 -230.65 -143.75 -235.9 -151.5 Q-238.65 -161.15 -237.65 -162.4 L-240.9 -169.25 -241.9 -177.5 Q-240.4 -188.9 -238.65 -189.65 L-239.75 -195.75 -238.0 -202.75 -233.5 -208.4 -227.0 -212.25 -218.9 -214.75 -210.4 -215.25 -205.0 -214.9 -199.15 -213.65 -188.25 -208.25 -185.5 -205.9 -181.9 -202.9 -175.25 -193.4 Q-174.5 -190.9 -173.25 -189.5 L-172.5 -187.65 -171.5 -185.65 -169.75 -178.65" fill="url(#gradient18)" fill-rule="evenodd" stroke="none"/>
    <path d="M-207.25 -131.4 L-201.9 -130.5 -198.0 -130.9 -193.25 -130.65 -207.4 -84.5 -211.25 -15.75 -225.0 -14.65 -271.5 -17.15 -284.4 -19.65 -279.4 -88.75 -286.75 -134.0 -283.5 -134.15 -278.25 -134.25 -265.5 -134.75 -207.25 -131.4" fill="url(#gradient19)" fill-rule="evenodd" stroke="none"/>
    <path d="M-300.5 -142.5 Q-318.0 -158.5 -316.15 -180.15 L-314.4 -191.15 -311.25 -198.65 -306.4 -206.15 -300.4 -211.9 -296.0 -214.75 -293.15 -216.5 -284.9 -219.65 Q-281.4 -221.15 -280.4 -220.75 -268.9 -224.4 -253.4 -216.25 L-247.4 -211.0 Q-243.65 -206.25 -242.5 -198.15 -241.75 -197.0 -245.25 -190.25 L-244.15 -181.0 -246.25 -172.25 -252.4 -162.9 -254.65 -154.9 -260.4 -147.9 Q-264.4 -146.15 -267.9 -142.0 L-271.5 -140.5 -273.15 -137.15 -278.25 -134.25 -283.5 -134.15 -287.15 -135.25 -288.65 -135.65 -293.5 -137.9 -298.9 -141.15 -300.5 -142.5" fill="url(#gradient20)" fill-rule="evenodd" stroke="none"/>
    <path d="M-310.15 -240.75 L-310.0 -241.15 -291.75 -246.65 -295.9 -230.9 -296.0 -214.75 -300.4 -211.9 -306.4 -206.15 -313.25 -220.5 -310.15 -240.75" fill="url(#gradient21)" fill-rule="evenodd" stroke="none"/>
    <path d="M-4.65 -236.9 L-3.25 -238.65 -0.9 -240.25 -0.9 -238.5 -2.9 -237.9 -4.15 -237.0 -3.9 -235.9 -4.4 -235.9 -4.65 -236.9" fill="url(#gradient22)" fill-rule="evenodd" stroke="none"/>
    <path d="M-9.9 -235.4 L-8.75 -236.9 -1.9 -241.5 -0.9 -241.9 -0.9 -240.25 -3.25 -238.65 -4.65 -236.9 -9.9 -235.4" fill="url(#gradient23)" fill-rule="evenodd" stroke="none"/>
    <path d="M-9.9 -235.4 L-4.65 -236.9 -4.4 -235.9 -4.4 -235.75 -6.4 -235.15 -6.75 -235.0 -8.9 -234.4 -9.25 -234.4 -9.5 -234.25 -9.9 -234.25 -9.9 -235.4" fill="url(#gradient24)" fill-rule="evenodd" stroke="none"/>
    <path d="M-316.15 -180.15 L-321.75 -177.4 -338.4 -170.4 -359.5 -156.15 -364.4 -154.25 -379.65 -148.9 -396.65 -163.9 -400.0 -167.5 -400.0 -180.4 -383.75 -188.0 -354.4 -206.15 -327.25 -222.25 -313.4 -237.4 -313.0 -237.75 -310.15 -240.75 -313.25 -220.5 -306.4 -206.15 -311.25 -198.65 -314.4 -191.15 -316.15 -180.15" fill="url(#gradient25)" fill-rule="evenodd" stroke="none"/>
    <path d="M-313.25 -237.65 L-313.0 -237.75 -313.4 -237.4 -313.25 -237.65" fill="url(#gradient26)" fill-rule="evenodd" stroke="none"/>
    <path d="M-400.0 -180.4 L-400.0 -184.5 -384.5 -196.15 -357.65 -214.15 -335.25 -226.9 -313.25 -237.65 -313.4 -237.4 -327.25 -222.25 -354.4 -206.15 -383.75 -188.0 -400.0 -180.4" fill="url(#gradient27)" fill-rule="evenodd" stroke="none"/>
    <path d="M-0.9 -238.5 L-0.9 -236.65 -2.9 -236.15 -3.15 -236.0 -3.4 -236.0 -3.9 -235.9 -4.15 -237.0 -2.9 -237.9 -0.9 -238.5" fill="url(#gradient28)" fill-rule="evenodd" stroke="none"/>
    <path d="M-0.9 -236.65 L-1.15 -236.25 -3.5 -235.75 -3.4 -236.0 -3.15 -236.0 -2.9 -236.15 -0.9 -236.65 M-9.5 -234.25 L-9.25 -234.4 -9.25 -234.25 -9.5 -234.25" fill="url(#gradient29)" fill-rule="evenodd" stroke="none"/>
    <path d="M-3.5 -235.75 L-3.65 -235.75 -5.15 -235.4 -5.25 -235.25 -8.9 -234.4 -9.25 -234.25 -9.5 -234.15 -9.5 -234.25 -9.25 -234.25 -9.25 -234.4 -8.9 -234.4 -6.75 -235.0 -6.4 -235.15 -4.4 -235.75 -4.4 -235.9 -3.9 -235.9 -3.4 -236.0 -3.5 -235.75" fill="url(#gradient30)" fill-rule="evenodd" stroke="none"/>
    <path d="M-170.25 -241.0 L-164.15 -236.4 -163.75 -236.25 -163.65 -236.0 -163.25 -235.9 -163.15 -235.65 -162.65 -235.25 -162.15 -235.0 -162.15 -234.9 -150.65 -226.0 -149.65 -225.0 -164.5 -225.5 -170.25 -241.0" fill="url(#gradient31)" fill-rule="evenodd" stroke="none"/>
    <path d="M-96.4 -149.25 L-109.15 -151.4 -123.25 -158.15 -140.5 -168.75 -161.25 -177.15 -162.9 -197.65 -162.65 -198.65 -164.5 -225.5 -149.65 -225.0 -120.5 -210.0 -98.25 -200.0 -66.4 -183.65 -66.25 -183.4 -79.65 -166.0 -96.4 -149.25" fill="url(#gradient32)" fill-rule="evenodd" stroke="none"/>
    <path d="M-161.25 -177.15 L-169.75 -178.65 -171.5 -185.65 -172.5 -187.65 -162.9 -197.65 -161.25 -177.15" fill="url(#gradient33)" fill-rule="evenodd" stroke="none"/>
    <path d="M-162.15 -234.9 L-151.5 -227.15 -150.65 -226.0 -162.15 -234.9" fill="url(#gradient34)" fill-rule="evenodd" stroke="none"/>
    <path d="M-151.5 -227.15 L-121.75 -212.0 -67.65 -186.0 -66.4 -183.65 -98.25 -200.0 -120.5 -210.0 -149.65 -225.0 -150.65 -226.0 -151.5 -227.15" fill="url(#gradient35)" fill-rule="evenodd" stroke="none"/>
    <path d="M-9.5 -234.15 L-9.65 -234.15 -9.9 -234.25 -9.5 -234.25 -9.5 -234.15" fill="url(#gradient36)" fill-rule="evenodd" stroke="none"/>
    <path d="M-52.5 -187.0 L-25.25 -201.5 -1.65 -212.0 -0.9 -212.15 -0.9 -204.65 -10.0 -200.5 -26.4 -191.9 -44.65 -183.4 -52.5 -187.0" fill="url(#gradient37)" fill-rule="evenodd" stroke="none"/>
    <path d="M-26.4 -191.9 L-10.0 -200.5 -0.9 -204.65 -1.15 -177.25 -23.0 -164.65 -14.0 -174.65 -13.75 -175.0 -26.4 -191.9" fill="url(#gradient38)" fill-rule="evenodd" stroke="none"/>
    <path d="M-52.5 -187.0 L-44.65 -183.4 -66.25 -183.4 -66.4 -183.65 -67.65 -186.0 -52.5 -187.0" fill="url(#gradient39)" fill-rule="evenodd" stroke="none"/>
    <path d="M-44.65 -183.4 L-26.4 -191.9 -13.75 -175.0 -44.65 -183.4" fill="url(#gradient40)" fill-rule="evenodd" stroke="none"/>
    <path d="M-42.4 -152.75 L-59.15 -144.15 -96.4 -149.25 -79.65 -166.0 -66.25 -183.4 -44.65 -183.4 -13.75 -175.0 -14.0 -174.65 -29.15 -166.15 -42.4 -152.75" fill="url(#gradient41)" fill-rule="evenodd" stroke="none"/>
    <path d="M-23.0 -164.65 L-42.4 -152.75 -29.15 -166.15 -14.0 -174.65 -23.0 -164.65" fill="url(#gradient42)" fill-rule="evenodd" stroke="none"/>
    <path d="M-293.75 -27.25 L-291.4 -53.9 -289.0 -88.65 -300.5 -142.5 -298.9 -141.15 -293.5 -137.9 -288.65 -135.65 -286.9 -134.25 -286.75 -134.0 -279.4 -88.75 -284.4 -19.65 -292.75 -25.5 -293.75 -27.25" fill="url(#gradient43)" fill-rule="evenodd" stroke="none"/>
    <path d="M-308.15 -2.4 L-293.75 -27.25 -292.75 -25.5 -308.15 -2.4" fill="url(#gradient44)" fill-rule="evenodd" stroke="none"/>
    <path d="M-293.4 -0.9 L-309.0 -0.9 -308.15 -2.4 -292.75 -25.5 -284.4 -19.65 -293.4 -0.9" fill="url(#gradient45)" fill-rule="evenodd" stroke="none"/>
    <path d="M-400.0 -115.0 L-400.0 -167.5 -396.65 -163.9 -379.65 -148.9 -379.4 -147.9 -379.25 -147.75 -379.25 -147.65 -379.15 -147.15 -376.0 -131.15 -369.4 -120.25 -369.15 -119.65 -369.0 -119.4 -369.0 -119.25 -391.5 -118.0 -400.0 -115.0" fill="url(#gradient46)" fill-rule="evenodd" stroke="none"/>
    <path d="M-367.9 -117.9 L-365.9 -115.15 -365.5 -114.75 -365.5 -114.65 -349.4 -91.75 -337.5 -77.4 -337.15 -76.9 -326.0 -62.65 -321.25 -56.25 -321.65 -56.15 -328.75 -53.15 Q-329.5 -55.4 -341.0 -56.4 L-346.5 -54.15 -349.0 -50.0 -361.0 -61.65 -379.0 -82.25 -391.75 -98.75 -400.0 -107.5 -400.0 -115.0 -391.5 -118.0 -369.0 -119.25 -367.9 -117.9" fill="url(#gradient47)" fill-rule="evenodd" stroke="none"/>
    <path d="M-377.4 -143.9 L-371.25 -130.4 -367.9 -117.9 -369.0 -119.25 -369.0 -119.4 -369.15 -119.65 -369.4 -120.25 -376.0 -131.15 -379.15 -147.15 -377.4 -143.9" fill="url(#gradient48)" fill-rule="evenodd" stroke="none"/>
    <path d="M-364.4 -154.25 L-377.4 -143.9 -379.15 -147.15 -379.25 -147.65 -379.25 -147.75 -379.4 -147.9 -379.65 -148.9 -364.4 -154.25" fill="url(#gradient49)" fill-rule="evenodd" stroke="none"/>
    <path d="M-175.75 -138.4 L-193.65 -82.75 -196.9 -21.0 -198.75 -19.25 -211.25 -15.75 -207.4 -84.5 -193.25 -130.65 -175.75 -138.4" fill="url(#gradient50)" fill-rule="evenodd" stroke="none"/>
    <path d="M-196.9 -21.0 L-188.0 -0.9 -206.75 -0.9 -211.25 -15.75 -198.75 -19.25 -196.9 -21.0" fill="url(#gradient51)" fill-rule="evenodd" stroke="none"/>
    <path d="M-365.5 -114.65 L-343.25 -86.25 -337.5 -77.4 -349.4 -91.75 -365.5 -114.65" fill="url(#gradient52)" fill-rule="evenodd" stroke="none"/>
    <path d="M-350.4 -42.5 L-366.25 -61.0 -384.15 -80.5 -400.0 -100.4 -400.0 -107.5 -391.75 -98.75 -379.0 -82.25 -361.0 -61.65 -349.0 -50.0 Q-352.0 -49.9 -350.4 -42.5" fill="url(#gradient53)" fill-rule="evenodd" stroke="none"/>
    <path d="M-324.4 -61.9 Q-309.15 -51.25 -322.0 -34.9 -333.15 -28.4 -338.25 -31.0 -349.25 -34.9 -350.4 -42.5 -352.0 -49.9 -349.0 -50.0 L-346.5 -54.15 -341.0 -56.4 Q-329.5 -55.4 -328.75 -53.15 L-321.65 -56.15 -321.15 -55.9 -321.25 -56.25 -326.0 -62.65 -324.4 -61.9" fill="url(#gradient54)" fill-rule="evenodd" stroke="none"/>
    <path d="M-321.65 -56.15 L-321.25 -56.25 -321.15 -55.9 -321.65 -56.15" fill="url(#gradient55)" fill-rule="evenodd" stroke="none"/>
    <path d="M-337.15 -76.9 L-326.4 -65.9 Q-325.4 -65.75 -324.4 -61.9 L-326.0 -62.65 -337.15 -76.9" fill="url(#gradient56)" fill-rule="evenodd" stroke="none"/>
    <path d="M-206.75 -0.9 L-293.4 -0.9 -284.4 -19.65 -271.5 -17.15 -225.0 -14.65 -211.25 -15.75 -206.75 -0.9" fill="url(#gradient57)" fill-rule="evenodd" stroke="none"/>
    <path d="M-273.75 -266.5 L-265.75 -266.5 -267.25 -263.25 -267.25 -262.65 -267.65 -262.15 -272.0 -265.65 -273.75 -266.5" fill="#ac0000" fill-rule="evenodd" stroke="none"/>
    <path d="M-315.0 -199.75 L-308.75 -202.4 -308.5 -202.65 -305.5 -203.75 -304.75 -204.25 -302.0 -205.25 -301.65 -205.65 -293.5 -209.0 -293.0 -209.15 -290.65 -210.15 -289.65 -213.0 -289.5 -213.25 -289.0 -214.5 -289.15 -214.65 -288.5 -216.0 -288.65 -216.25 -288.4 -216.5 -287.75 -218.25 -287.75 -218.4 -287.9 -218.4 -287.65 -218.5 -281.9 -235.0 -279.5 -249.65 -279.25 -249.65 -279.25 -249.75 -270.5 -251.75 -271.4 -246.25 -271.5 -246.0 -271.4 -245.5 -272.9 -235.4 -274.75 -229.5 -275.4 -228.15 -275.25 -227.75 -277.25 -221.5 -277.5 -221.15 -277.5 -221.0 -277.65 -220.75 -277.9 -219.65 -280.25 -212.4 -280.15 -212.25 -281.0 -209.5 -283.9 -190.5 -284.0 -190.25 -285.4 -181.5 -304.75 -193.4 -305.9 -194.0 -315.0 -199.75 M-278.15 -256.9 L-277.9 -258.0 -277.0 -259.75 -273.75 -266.5 -272.0 -265.65 -267.65 -262.15 -269.75 -256.75 -278.15 -256.9" fill="#9e0000" fill-opacity="0.9098039" fill-rule="evenodd" stroke="none"/>
    <path d="M-279.25 -249.75 L-278.15 -256.9 -269.75 -256.75 -270.5 -251.9 -270.5 -251.75 -279.25 -249.75" fill="#ae0000" fill-opacity="0.9098039" fill-rule="evenodd" stroke="none"/>
    <path d="M-195.4 -261.15 L-194.15 -259.65 -193.9 -258.9 -190.0 -253.25 -190.0 -252.5 -194.25 -253.15 -198.15 -249.9 -198.15 -253.4 -201.4 -256.65 -199.5 -258.5 -195.4 -261.15 M-189.9 -246.75 L-189.75 -232.75 -189.5 -232.25 -188.25 -215.25 -188.15 -214.65 -188.0 -214.4 -187.9 -213.9 -187.5 -207.65 -187.4 -207.25 -187.25 -205.15 -186.75 -204.75 -180.9 -201.15 -180.15 -200.4 -172.9 -196.0 -172.75 -195.75 -164.9 -190.65 -169.15 -190.25 -169.9 -190.25 -170.15 -190.15 -173.15 -189.9 -173.65 -189.9 -174.25 -189.75 -190.5 -188.25 -190.9 -188.15 -199.15 -187.5 -197.5 -201.75 -197.5 -201.9 -197.4 -202.4 -197.5 -203.4 -197.65 -212.75 -197.75 -213.0 -198.25 -230.75 -198.4 -231.5 -198.15 -234.75 -198.4 -235.75 -198.15 -242.15 -198.25 -242.4 -198.15 -246.25 -198.25 -246.5 -198.15 -249.0 -189.9 -246.75 M-265.75 -266.5 L-264.5 -265.65 -263.25 -264.5 -260.75 -262.9 -259.15 -260.9 -254.4 -256.25 -257.4 -254.75 -257.65 -254.9 -259.65 -254.4 -260.75 -255.4 -261.15 -255.65 -263.15 -257.9 -264.15 -258.75 -264.25 -259.0 -266.15 -260.5 -266.75 -261.5 -267.65 -262.15 -267.25 -262.65 -267.25 -263.25 -265.75 -266.5 M-201.4 -256.65 L-206.15 -251.25 -211.25 -254.75 -209.5 -256.4 -208.75 -257.65 -208.4 -257.75 -208.25 -257.9 -207.25 -259.65 -206.25 -261.75 -204.5 -260.0 -204.15 -259.5 -201.4 -256.65" fill="#9b0000" fill-opacity="0.9098039" fill-rule="evenodd" stroke="none"/>
    <path d="M-195.4 -261.15 L-199.5 -258.5 -201.4 -256.65 -204.15 -259.5 -204.5 -260.0 -206.25 -261.75 -195.4 -261.15" fill="#a90000" fill-rule="evenodd" stroke="none"/>
    <path d="M-198.15 -249.9 L-194.25 -253.15 -190.0 -252.5 -189.9 -246.75 -198.15 -249.0 -198.15 -249.9" fill="#ab0000" fill-opacity="0.9098039" fill-rule="evenodd" stroke="none"/>
    <path d="M-164.9 -190.65 L-164.5 -189.5 -165.15 -179.0 -165.0 -178.75 -165.15 -177.75 -169.75 -178.65 -169.15 -169.0 -169.25 -168.15 -169.15 -167.65 -170.4 -160.5 -170.65 -159.75 -170.5 -159.5 -173.25 -152.25 -173.65 -151.65 -175.4 -148.4 -175.25 -147.5 -175.65 -140.15 -175.9 -139.25 -175.9 -138.25 -176.25 -136.9 -178.15 -131.4 -196.15 -133.0 -196.5 -133.0 -202.9 -133.5 -203.25 -133.5 -210.9 -134.25 -241.9 -135.25 -242.15 -135.4 -251.9 -135.65 -265.0 -136.9 -265.15 -137.0 -267.65 -137.15 -268.0 -137.25 -275.5 -137.9 -276.5 -137.65 -292.65 -137.4 -292.65 -137.25 -299.4 -137.15 -300.5 -142.5 -300.4 -142.65 -305.65 -147.5 -306.4 -148.75 -310.65 -154.65 -311.15 -155.5 -311.5 -156.75 -314.15 -162.65 -314.15 -163.15 -314.65 -163.9 -314.65 -164.0 -314.75 -164.5 -314.75 -164.65 -314.65 -165.0 -314.9 -165.0 -314.75 -165.25 -315.0 -165.65 -316.15 -171.15 -316.15 -171.5 -315.9 -172.75 -316.15 -180.15 -317.0 -179.9 -315.5 -195.65 -315.5 -196.65 -315.0 -199.75 -305.9 -194.0 -304.75 -193.4 -285.4 -181.5 -284.9 -181.0 -278.0 -175.5 -277.75 -175.4 -277.75 -175.25 -277.4 -174.9 -245.65 -149.5 -240.15 -152.0 -240.0 -152.25 -214.65 -164.65 -214.5 -164.9 Q-210.0 -167.05 -205.5 -169.25 L-204.15 -173.65 -203.9 -173.9 -199.15 -187.5 -190.9 -188.15 -190.5 -188.25 -174.25 -189.75 -173.65 -189.9 -173.15 -189.9 -170.15 -190.15 -169.9 -190.25 -169.15 -190.25 -164.9 -190.65 M-197.4 -157.4 L-196.75 -158.65 -197.0 -159.15 -197.5 -159.75 -197.5 -159.9 -197.65 -159.9 -198.65 -158.9 -198.65 -158.4 -198.25 -157.15 -198.4 -156.5 -197.4 -157.4 M-292.0 -158.0 L-293.25 -161.9 -292.75 -157.75 -292.65 -157.5 -292.25 -157.4 -292.0 -157.65 -292.0 -158.0" fill="#b00000" fill-opacity="0.9098039" fill-rule="evenodd" stroke="none"/>
    <path d="M-319.15 -178.9 L-317.15 -189.4 -317.0 -189.75 -315.9 -195.5 -315.5 -196.65 -315.5 -195.65 -317.0 -179.9 -317.15 -179.65 -319.15 -178.9" fill="#c30000" fill-rule="evenodd" stroke="none"/>
    <path d="M-321.15 -168.15 L-319.25 -178.65 -319.15 -178.9 -317.15 -179.65 -317.0 -178.9 -317.25 -176.0 -316.15 -171.5 -316.15 -171.15 -315.0 -165.65 -314.9 -165.0 -314.75 -164.65 -314.75 -164.5 -314.65 -164.0 -314.65 -163.9 -313.65 -157.9 -311.15 -155.5 -310.65 -154.65 -306.4 -148.75 -305.65 -147.5 -300.4 -142.65 -300.5 -142.5 -299.4 -137.15 -301.4 -137.0 -301.75 -137.4 -306.75 -145.5 -321.15 -168.15" fill="#c50000" fill-rule="evenodd" stroke="none"/>
    <path d="M-165.15 -177.75 L-165.4 -163.15 -173.75 -140.5 -175.65 -140.15 -175.25 -147.5 -175.4 -148.4 -173.65 -151.65 -173.25 -152.25 -170.5 -159.5 -170.65 -159.75 -170.4 -160.5 -169.15 -167.65 -169.25 -168.15 -169.15 -169.0 -169.75 -178.65 -165.15 -177.75 M-317.0 -179.9 L-316.15 -180.15 -315.9 -172.75 -316.15 -171.5 -317.25 -176.0 -317.0 -178.9 -317.15 -179.65 -317.0 -179.9 M-315.0 -165.65 L-314.75 -165.25 -314.9 -165.0 -314.65 -165.0 -314.75 -164.65 -314.9 -165.0 -315.0 -165.65 M-314.65 -163.9 L-314.15 -163.15 -314.15 -162.65 -311.5 -156.75 -311.15 -155.5 -313.65 -157.9 -314.65 -163.9" fill="#c20000" fill-opacity="0.9098039" fill-rule="evenodd" stroke="none"/>
    <path d="M-164.5 -189.5 L-162.25 -177.65 -162.15 -177.4 -162.15 -177.25 -165.15 -177.75 -165.0 -178.75 -165.15 -179.0 -164.5 -189.5" fill="#c50000" fill-opacity="0.9098039" fill-rule="evenodd" stroke="none"/>
    <path d="M-162.15 -177.25 L-160.15 -167.15 -160.4 -165.4 -163.75 -149.65 -172.0 -141.75 -173.75 -140.5 -165.4 -163.15 -165.15 -177.75 -162.15 -177.25" fill="#d90000" fill-opacity="0.9098039" fill-rule="evenodd" stroke="none"/>
    <path d="M-309.0 -0.9 L-316.15 -0.9 -316.0 -1.25 -304.5 -19.9 -302.5 -20.75 -300.65 -21.75 -296.5 -22.65 -300.4 -15.5 -300.75 -15.15 -300.9 -14.65 -301.25 -14.25 -301.4 -13.75 -302.15 -13.0 -309.0 -0.9 M-319.4 -149.75 L-321.15 -168.15 -306.75 -145.5 -316.65 -148.0 -316.65 -148.15 -317.0 -148.25 -319.4 -149.75" fill="#fd0000" fill-rule="evenodd" stroke="none"/>
    <path d="M-304.5 -19.9 L-306.75 -41.0 -303.4 -87.5 -319.4 -149.75 -317.0 -148.25 -316.65 -148.15 -316.65 -148.0 -306.75 -145.5 -301.75 -137.4 -301.4 -137.0 -292.0 -89.0 -291.9 -85.15 -292.0 -84.65 -295.0 -44.9 -295.0 -41.25 -295.5 -35.5 -294.9 -25.5 -295.0 -24.9 -296.5 -22.65 -300.65 -21.75 -302.5 -20.75 -304.5 -19.9" fill="#fc0000" fill-rule="evenodd" stroke="none"/>
    <path d="M-299.0 -0.9 L-309.0 -0.9 -302.15 -13.0 -301.4 -13.75 -301.25 -14.25 -300.9 -14.65 -300.75 -15.15 -300.4 -15.5 -296.5 -22.65 -295.0 -24.9 -294.75 -22.9 -294.9 -22.25 -294.65 -21.75 -294.9 -20.75 -294.15 -10.25 -294.65 -9.5 -299.0 -0.9" fill="#e80000" fill-opacity="0.9098039" fill-rule="evenodd" stroke="none"/>
    <path d="M-299.4 -137.15 L-292.65 -137.25 -292.65 -137.4 -276.5 -137.65 -275.5 -137.9 -268.0 -137.25 -267.65 -137.15 -265.15 -137.0 -265.0 -136.9 -251.9 -135.65 -242.15 -135.4 -241.9 -135.25 -210.9 -134.25 -203.25 -133.5 -202.9 -133.5 -196.5 -133.0 -196.15 -133.0 -178.15 -131.4 -179.4 -127.5 -179.25 -127.25 -179.5 -126.25 -180.65 -123.9 -194.5 -94.25 -194.75 -93.25 -200.4 -81.65 -201.0 -72.0 -200.9 -71.25 -202.25 -49.75 -202.15 -49.0 -203.15 -31.5 -203.75 -28.65 -203.65 -28.15 -206.9 -10.9 -206.9 -10.5 -207.65 -5.75 -208.25 -5.75 -208.4 -5.65 -225.75 -4.0 -277.65 -7.0 -294.15 -10.25 -294.9 -20.75 -294.65 -21.75 -294.9 -22.25 -294.75 -22.9 -295.0 -24.9 -294.9 -25.5 -293.75 -27.25 -293.75 -28.4 -293.65 -29.0 -293.65 -29.5 -293.25 -31.9 -293.15 -32.25 -293.15 -32.75 -289.0 -88.75 -291.25 -98.75 -297.5 -129.15 -297.5 -129.25 -297.75 -130.25 -297.75 -130.4 -297.9 -130.75 -297.9 -131.0 -299.4 -137.15" fill="#a70000" fill-opacity="0.9098039" fill-rule="evenodd" stroke="none"/>
    <path d="M-299.4 -137.15 L-297.9 -131.0 -297.9 -130.75 -297.75 -130.4 -297.75 -130.25 -297.5 -129.25 -297.5 -129.15 -291.25 -98.75 -292.0 -89.0 -301.4 -137.0 -299.4 -137.15 M-293.65 -29.5 L-293.65 -29.0 -293.75 -28.4 -293.75 -27.25 -294.9 -25.5 -295.5 -35.5 -295.0 -41.25 -293.65 -29.5" fill="#bc0000" fill-rule="evenodd" stroke="none"/>
    <path d="M-291.25 -98.75 L-289.0 -88.75 -293.15 -32.75 -293.15 -32.25 -293.25 -31.9 -293.65 -29.5 -295.0 -41.25 -295.0 -44.9 -292.0 -84.65 -291.75 -84.75 -291.9 -85.15 -292.0 -89.0 -291.25 -98.75" fill="#b80000" fill-rule="evenodd" stroke="none"/>
    <path d="M-175.65 -140.15 L-173.75 -140.5 -173.65 -140.4 -177.0 -131.4 -178.15 -131.4 -176.25 -136.9 -175.9 -138.25 -175.9 -139.25 -175.65 -140.15" fill="#c70000" fill-rule="evenodd" stroke="none"/>
    <path d="M-160.4 -165.4 L-160.25 -164.15 -161.75 -140.25 -165.0 -138.4 -165.5 -138.25 -177.0 -131.4 -173.65 -140.4 -173.75 -140.5 -172.0 -141.75 -163.75 -149.65 -160.4 -165.4" fill="#dc0000" fill-rule="evenodd" stroke="none"/>
    <path d="M-161.75 -140.25 L-161.65 -140.25 -161.65 -140.15 -183.5 -80.15 -185.9 -34.4 -191.15 -12.4 -192.4 -11.0 -194.4 -15.65 -194.75 -16.0 -195.9 -18.75 -191.5 -37.5 -189.25 -79.0 -190.25 -92.75 -180.65 -123.9 -179.5 -126.25 -177.0 -131.4 -165.5 -138.25 -165.0 -138.4 -161.75 -140.25" fill="#ea0000" fill-rule="evenodd" stroke="none"/>
    <path d="M-191.15 -12.4 L-185.65 -0.9 -188.0 -0.9 -192.4 -10.65 -192.4 -11.0 -191.15 -12.4" fill="#dd0000" fill-rule="evenodd" stroke="none"/>
    <path d="M-207.65 -5.75 L-206.9 -10.5 -206.9 -10.9 -203.65 -28.15 -203.75 -28.65 -203.15 -31.5 -202.15 -49.0 -202.25 -49.75 -200.9 -71.25 -201.0 -72.0 -200.4 -81.65 -194.75 -93.25 -194.5 -94.25 -180.65 -123.9 -190.25 -92.75 -193.65 -82.75 -197.0 -20.9 -195.9 -18.75 -194.75 -16.0 -194.4 -15.65 -192.4 -11.0 -192.4 -10.65 -192.65 -10.5 -192.9 -10.15 -193.65 -10.0 -193.9 -9.9 -194.15 -9.75 -203.4 -7.0 -203.75 -7.0 -203.75 -6.9 -207.65 -5.75" fill="#d30000" fill-opacity="0.9098039" fill-rule="evenodd" stroke="none"/>
    <path d="M-190.25 -92.75 L-189.25 -79.0 -191.5 -37.5 -195.9 -18.75 -197.0 -20.9 -193.65 -82.75 -190.25 -92.75" fill="#e30000" fill-rule="evenodd" stroke="none"/>
    <path d="M-179.5 -126.25 L-179.25 -127.25 -179.4 -127.5 -178.15 -131.4 -177.0 -131.4 -179.5 -126.25" fill="#be0000" fill-rule="evenodd" stroke="none"/>
    <path d="M-188.0 -0.9 L-206.15 -0.9 -207.65 -5.75 -203.75 -6.9 -203.75 -7.0 -203.4 -7.0 -194.15 -9.75 -193.9 -9.9 -193.65 -10.0 -192.9 -10.15 -192.65 -10.5 -192.4 -10.65 -188.0 -0.9" fill="#c60000" fill-opacity="0.9098039" fill-rule="evenodd" stroke="none"/>
    <path d="M-292.0 -84.65 L-291.9 -85.15 -291.75 -84.75 -292.0 -84.65" fill="#f80000" fill-rule="evenodd" stroke="none"/>
    <path d="M-206.15 -0.9 L-299.0 -0.9 -294.65 -9.5 -294.15 -10.25 -277.65 -7.0 -225.75 -4.0 -208.4 -5.65 -208.25 -5.75 -207.65 -5.75 -206.15 -0.9" fill="#a50000" fill-opacity="0.9098039" fill-rule="evenodd" stroke="none"/>
  </g>
  <defs>
    <radialGradient cx="0" cy="0" gradientTransform="matrix(0.1753, 0.0, 0.0, 0.1753, -177.65, -278.35)" gradientUnits="userSpaceOnUse" id="gradient0" r="819.2" spreadMethod="pad">
      <stop offset="0.0" stop-color="#555555"/>
      <stop offset="1.0" stop-color="#0d0d0d"/>
    </radialGradient>
    <radialGradient cx="0" cy="0" gradientTransform="matrix(0.0163, 0.0, 0.0, 0.0163, -309.65, -290.0)" gradientUnits="userSpaceOnUse" id="gradient1" r="819.2" spreadMethod="pad">
      <stop offset="0.0" stop-color="#292929"/>
      <stop offset="1.0" stop-color="#282828"/>
    </radialGradient>
    <radialGradient cx="0" cy="0" gradientTransform="matrix(0.106, 0.0, 0.0, 0.106, -214.0, -288.5)" gradientUnits="userSpaceOnUse" id="gradient2" r="819.2" spreadMethod="pad">
      <stop offset="0.0" stop-color="#7d7d7d"/>
      <stop offset="1.0" stop-color="#020202"/>
    </radialGradient>
    <radialGradient cx="0" cy="0" gradientTransform="matrix(0.0154, 0.0, 0.0, 0.0154, -252.6, -267.35)" gradientUnits="userSpaceOnUse" id="gradient3" r="819.2" spreadMethod="pad">
      <stop offset="0.0" stop-color="#1a1a1a"/>
      <stop offset="1.0" stop-color="#050505"/>
    </radialGradient>
    <radialGradient cx="0" cy="0" gradientTransform="matrix(0.0486, 0.0, 0.0, 0.0486, -252.6, -267.35)" gradientUnits="userSpaceOnUse" id="gradient4" r="819.2" spreadMethod="pad">
      <stop offset="0.0" stop-color="#1a1a1a"/>
      <stop offset="1.0" stop-color="#000000"/>
    </radialGradient>
    <radialGradient cx="0" cy="0" gradientTransform="matrix(0.0208, 0.0, 0.0, 0.0208, -222.5, -274.85)" gradientUnits="userSpaceOnUse" id="gradient5" r="819.2" spreadMethod="pad">
      <stop offset="0.0" stop-color="#797979"/>
      <stop offset="1.0" stop-color="#000000"/>
    </radialGradient>
    <radialGradient cx="0" cy="0" gradientTransform="matrix(0.3163, 0.0, 0.0, 0.3163, -225.85, -6.35)" gradientUnits="userSpaceOnUse" id="gradient6" r="819.2" spreadMethod="pad">
      <stop offset="0.0" stop-color="#010101"/>
      <stop offset="1.0" stop-color="#000000"/>
    </radialGradient>
    <radialGradient cx="0" cy="0" gradientTransform="matrix(0.0238, 0.0, 0.0, 0.0238, -156.05, -282.2)" gradientUnits="userSpaceOnUse" id="gradient7" r="819.2" spreadMethod="pad">
      <stop offset="0.0" stop-color="#1e1e1e"/>
      <stop offset="1.0" stop-color="#1e1e1e"/>
    </radialGradient>
    <radialGradient cx="0" cy="0" gradientTransform="matrix(0.0476, 0.0, 0.0, 0.0476, -148.0, -277.75)" gradientUnits="userSpaceOnUse" id="gradient8" r="819.2" spreadMethod="pad">
      <stop offset="0.0" stop-color="#393939"/>
      <stop offset="1.0" stop-color="#202020"/>
    </radialGradient>
    <radialGradient cx="0" cy="0" gradientTransform="matrix(0.0164, 0.0, 0.0, 0.0164, -319.3, -300.0)" gradientUnits="userSpaceOnUse" id="gradient9" r="819.2" spreadMethod="pad">
      <stop offset="0.0" stop-color="#242424"/>
      <stop offset="1.0" stop-color="#1e1e1e"/>
    </radialGradient>
    <radialGradient cx="0" cy="0" gradientTransform="matrix(0.0557, 0.0, 0.0, 0.0557, -257.2, -255.05)" gradientUnits="userSpaceOnUse" id="gradient10" r="819.2" spreadMethod="pad">
      <stop offset="0.0" stop-color="#000000"/>
      <stop offset="1.0" stop-color="#000000"/>
    </radialGradient>
    <radialGradient cx="0" cy="0" gradientTransform="matrix(0.1611, 0.0, 0.0, 0.1611, -265.0, -134.8)" gradientUnits="userSpaceOnUse" id="gradient11" r="819.2" spreadMethod="pad">
      <stop offset="0.0" stop-color="#6a6a6a"/>
      <stop offset="1.0" stop-color="#000000"/>
    </radialGradient>
    <radialGradient cx="0" cy="0" gradientTransform="matrix(0.1436, 0.0, 0.0, 0.1436, -301.15, -145.95)" gradientUnits="userSpaceOnUse" id="gradient12" r="819.2" spreadMethod="pad">
      <stop offset="0.0" stop-color="#626262"/>
      <stop offset="1.0" stop-color="#000000"/>
    </radialGradient>
    <radialGradient cx="0" cy="0" gradientTransform="matrix(0.1275, 0.0, 0.0, 0.1275, -266.9, -167.7)" gradientUnits="userSpaceOnUse" id="gradient13" r="819.2" spreadMethod="pad">
      <stop offset="0.0" stop-color="#010101"/>
      <stop offset="1.0" stop-color="#000000"/>
    </radialGradient>
    <radialGradient cx="0" cy="0" gradientTransform="matrix(0.0058, 0.0, 0.0, 0.0058, -5.35, -252.95)" gradientUnits="userSpaceOnUse" id="gradient14" r="819.2" spreadMethod="pad">
      <stop offset="0.0" stop-color="#818181"/>
      <stop offset="1.0" stop-color="#515151"/>
    </radialGradient>
    <radialGradient cx="0" cy="0" gradientTransform="matrix(0.0101, 0.0, 0.0, 0.0101, -5.75, -252.6)" gradientUnits="userSpaceOnUse" id="gradient15" r="819.2" spreadMethod="pad">
      <stop offset="0.0" stop-color="#303030"/>
      <stop offset="1.0" stop-color="#232323"/>
    </radialGradient>
    <radialGradient cx="0" cy="0" gradientTransform="matrix(0.0841, 0.0, 0.0, 0.0841, -162.7, -198.1)" gradientUnits="userSpaceOnUse" id="gradient16" r="819.2" spreadMethod="pad">
      <stop offset="0.0" stop-color="#595959"/>
      <stop offset="1.0" stop-color="#000000"/>
    </radialGradient>
    <radialGradient cx="0" cy="0" gradientTransform="matrix(0.115, 0.0, 0.0, 0.115, -174.65, -162.7)" gradientUnits="userSpaceOnUse" id="gradient17" r="819.2" spreadMethod="pad">
      <stop offset="0.0" stop-color="#0a0a0a"/>
      <stop offset="1.0" stop-color="#000000"/>
    </radialGradient>
    <radialGradient cx="0" cy="0" gradientTransform="matrix(0.0883, 0.0, 0.0, 0.0883, -215.5, -143.75)" gradientUnits="userSpaceOnUse" id="gradient18" r="819.2" spreadMethod="pad">
      <stop offset="0.0" stop-color="#878787"/>
      <stop offset="1.0" stop-color="#000000"/>
    </radialGradient>
    <radialGradient cx="0" cy="0" gradientTransform="matrix(0.1592, 0.0, 0.0, 0.1592, -265.0, -134.8)" gradientUnits="userSpaceOnUse" id="gradient19" r="819.2" spreadMethod="pad">
      <stop offset="0.0" stop-color="#6a6a6a"/>
      <stop offset="1.0" stop-color="#000000"/>
    </radialGradient>
    <radialGradient cx="0" cy="0" gradientTransform="matrix(0.0888, 0.0, 0.0, 0.0888, -277.55, -149.4)" gradientUnits="userSpaceOnUse" id="gradient20" r="819.2" spreadMethod="pad">
      <stop offset="0.0" stop-color="#858585"/>
      <stop offset="1.0" stop-color="#000000"/>
    </radialGradient>
    <radialGradient cx="0" cy="0" gradientTransform="matrix(0.0611, 0.0, 0.0, 0.0611, -296.45, -196.9)" gradientUnits="userSpaceOnUse" id="gradient21" r="819.2" spreadMethod="pad">
      <stop offset="0.0" stop-color="#171717"/>
      <stop offset="1.0" stop-color="#000000"/>
    </radialGradient>
    <radialGradient cx="0" cy="0" gradientTransform="matrix(0.0067, 0.0, 0.0, 0.0067, -4.3, -235.9)" gradientUnits="userSpaceOnUse" id="gradient22" r="819.2" spreadMethod="pad">
      <stop offset="0.0" stop-color="#040404"/>
      <stop offset="1.0" stop-color="#040404"/>
    </radialGradient>
    <radialGradient cx="0" cy="0" gradientTransform="matrix(0.0073, 0.0, 0.0, 0.0073, -4.3, -237.35)" gradientUnits="userSpaceOnUse" id="gradient23" r="819.2" spreadMethod="pad">
      <stop offset="0.0" stop-color="#313131"/>
      <stop offset="1.0" stop-color="#2f2f2f"/>
    </radialGradient>
    <radialGradient cx="0" cy="0" gradientTransform="matrix(0.0071, 0.0, 0.0, 0.0071, -9.95, -235.35)" gradientUnits="userSpaceOnUse" id="gradient24" r="819.2" spreadMethod="pad">
      <stop offset="0.0" stop-color="#262626"/>
      <stop offset="1.0" stop-color="#262626"/>
    </radialGradient>
    <radialGradient cx="0" cy="0" gradientTransform="matrix(0.104, 0.0, 0.0, 0.104, -353.2, -167.8)" gradientUnits="userSpaceOnUse" id="gradient25" r="819.2" spreadMethod="pad">
      <stop offset="0.0" stop-color="#6a6a6a"/>
      <stop offset="1.0" stop-color="#000000"/>
    </radialGradient>
    <radialGradient cx="0" cy="0" gradientTransform="matrix(0.0322, 0.0, 0.0, 0.0322, -307.45, -240.5)" gradientUnits="userSpaceOnUse" id="gradient26" r="819.2" spreadMethod="pad">
      <stop offset="0.0" stop-color="#0d0d0d"/>
      <stop offset="1.0" stop-color="#000000"/>
    </radialGradient>
    <radialGradient cx="0" cy="0" gradientTransform="matrix(0.132, 0.0, 0.0, 0.132, -400.0, -184.55)" gradientUnits="userSpaceOnUse" id="gradient27" r="819.2" spreadMethod="pad">
      <stop offset="0.0" stop-color="#202020"/>
      <stop offset="1.0" stop-color="#040404"/>
    </radialGradient>
    <radialGradient cx="0" cy="0" gradientTransform="matrix(0.0039, 0.0, 0.0, 0.0039, -3.85, -237.15)" gradientUnits="userSpaceOnUse" id="gradient28" r="819.2" spreadMethod="pad">
      <stop offset="0.0" stop-color="#030303"/>
      <stop offset="1.0" stop-color="#030303"/>
    </radialGradient>
    <radialGradient cx="0" cy="0" gradientTransform="matrix(0.007, 0.0, 0.0, 0.007, -4.3, -235.9)" gradientUnits="userSpaceOnUse" id="gradient29" r="819.2" spreadMethod="pad">
      <stop offset="0.0" stop-color="#040404"/>
      <stop offset="1.0" stop-color="#040404"/>
    </radialGradient>
    <radialGradient cx="0" cy="0" gradientTransform="matrix(0.0072, 0.0, 0.0, 0.0072, -3.85, -235.95)" gradientUnits="userSpaceOnUse" id="gradient30" r="819.2" spreadMethod="pad">
      <stop offset="0.0" stop-color="#030303"/>
      <stop offset="1.0" stop-color="#030303"/>
    </radialGradient>
    <radialGradient cx="0" cy="0" gradientTransform="matrix(0.0206, 0.0, 0.0, 0.0206, -164.55, -225.65)" gradientUnits="userSpaceOnUse" id="gradient31" r="819.2" spreadMethod="pad">
      <stop offset="0.0" stop-color="#000000"/>
      <stop offset="1.0" stop-color="#000000"/>
    </radialGradient>
    <radialGradient cx="0" cy="0" gradientTransform="matrix(0.0901, 0.0, 0.0, 0.0901, -139.65, -191.6)" gradientUnits="userSpaceOnUse" id="gradient32" r="819.2" spreadMethod="pad">
      <stop offset="0.0" stop-color="#616161"/>
      <stop offset="1.0" stop-color="#000000"/>
    </radialGradient>
    <radialGradient cx="0" cy="0" gradientTransform="matrix(0.0314, 0.0, 0.0, 0.0314, -162.7, -198.1)" gradientUnits="userSpaceOnUse" id="gradient33" r="819.2" spreadMethod="pad">
      <stop offset="0.0" stop-color="#595959"/>
      <stop offset="1.0" stop-color="#070707"/>
    </radialGradient>
    <radialGradient cx="0" cy="0" gradientTransform="matrix(0.0323, 0.0, 0.0, 0.0323, -149.7, -225.1)" gradientUnits="userSpaceOnUse" id="gradient34" r="819.2" spreadMethod="pad">
      <stop offset="0.0" stop-color="#000000"/>
      <stop offset="1.0" stop-color="#000000"/>
    </radialGradient>
    <radialGradient cx="0" cy="0" gradientTransform="matrix(0.0738, 0.0, 0.0, 0.0738, -120.6, -210.2)" gradientUnits="userSpaceOnUse" id="gradient35" r="819.2" spreadMethod="pad">
      <stop offset="0.0" stop-color="#000000"/>
      <stop offset="1.0" stop-color="#000000"/>
    </radialGradient>
    <radialGradient cx="0" cy="0" gradientTransform="matrix(0.0075, 0.0, 0.0, 0.0075, -3.95, -236.95)" gradientUnits="userSpaceOnUse" id="gradient36" r="819.2" spreadMethod="pad">
      <stop offset="0.0" stop-color="#1e1e1e"/>
      <stop offset="1.0" stop-color="#1d1d1d"/>
    </radialGradient>
    <radialGradient cx="0" cy="0" gradientTransform="matrix(0.073, 0.0, 0.0, 0.073, -54.75, -185.95)" gradientUnits="userSpaceOnUse" id="gradient37" r="819.2" spreadMethod="pad">
      <stop offset="0.0" stop-color="#1d1d1d"/>
      <stop offset="1.0" stop-color="#070707"/>
    </radialGradient>
    <radialGradient cx="0" cy="0" gradientTransform="matrix(0.0356, 0.0, 0.0, 0.0356, -26.35, -191.95)" gradientUnits="userSpaceOnUse" id="gradient38" r="819.2" spreadMethod="pad">
      <stop offset="0.0" stop-color="#000000"/>
      <stop offset="1.0" stop-color="#000000"/>
    </radialGradient>
    <radialGradient cx="0" cy="0" gradientTransform="matrix(0.0263, 0.0, 0.0, 0.0263, -66.3, -183.5)" gradientUnits="userSpaceOnUse" id="gradient39" r="819.2" spreadMethod="pad">
      <stop offset="0.0" stop-color="#000000"/>
      <stop offset="1.0" stop-color="#000000"/>
    </radialGradient>
    <radialGradient cx="0" cy="0" gradientTransform="matrix(0.0258, 0.0, 0.0, 0.0258, -26.35, -191.95)" gradientUnits="userSpaceOnUse" id="gradient40" r="819.2" spreadMethod="pad">
      <stop offset="0.0" stop-color="#000000"/>
      <stop offset="1.0" stop-color="#000000"/>
    </radialGradient>
    <radialGradient cx="0" cy="0" gradientTransform="matrix(0.0659, 0.0, 0.0, 0.0659, -42.5, -152.75)" gradientUnits="userSpaceOnUse" id="gradient41" r="819.2" spreadMethod="pad">
      <stop offset="0.0" stop-color="#161616"/>
      <stop offset="1.0" stop-color="#000000"/>
    </radialGradient>
    <radialGradient cx="0" cy="0" gradientTransform="matrix(0.0444, 0.0, 0.0, 0.0444, -42.5, -152.75)" gradientUnits="userSpaceOnUse" id="gradient42" r="819.2" spreadMethod="pad">
      <stop offset="0.0" stop-color="#161616"/>
      <stop offset="1.0" stop-color="#000000"/>
    </radialGradient>
    <radialGradient cx="0" cy="0" gradientTransform="matrix(0.0845, 0.0, 0.0, 0.0845, -287.95, -88.85)" gradientUnits="userSpaceOnUse" id="gradient43" r="819.2" spreadMethod="pad">
      <stop offset="0.0" stop-color="#838383"/>
      <stop offset="1.0" stop-color="#222222"/>
    </radialGradient>
    <radialGradient cx="0" cy="0" gradientTransform="matrix(0.0361, 0.0, 0.0, 0.0361, -292.75, -25.7)" gradientUnits="userSpaceOnUse" id="gradient44" r="819.2" spreadMethod="pad">
      <stop offset="0.0" stop-color="#1b1b1b"/>
      <stop offset="1.0" stop-color="#0f0f0f"/>
    </radialGradient>
    <radialGradient cx="0" cy="0" gradientTransform="matrix(0.0301, 0.0, 0.0, 0.0301, -293.35, -1.0)" gradientUnits="userSpaceOnUse" id="gradient45" r="819.2" spreadMethod="pad">
      <stop offset="0.0" stop-color="#2b2b2b"/>
      <stop offset="1.0" stop-color="#151515"/>
    </radialGradient>
    <radialGradient cx="0" cy="0" gradientTransform="matrix(0.0646, 0.0, 0.0, 0.0646, -400.0, -114.95)" gradientUnits="userSpaceOnUse" id="gradient46" r="819.2" spreadMethod="pad">
      <stop offset="0.0" stop-color="#242424"/>
      <stop offset="1.0" stop-color="#000000"/>
    </radialGradient>
    <radialGradient cx="0" cy="0" gradientTransform="matrix(0.0822, 0.0, 0.0, 0.0822, -359.95, -60.8)" gradientUnits="userSpaceOnUse" id="gradient47" r="819.2" spreadMethod="pad">
      <stop offset="0.0" stop-color="#505050"/>
      <stop offset="1.0" stop-color="#0c0c0c"/>
    </radialGradient>
    <radialGradient cx="0" cy="0" gradientTransform="matrix(0.0514, 0.0, 0.0, 0.0514, -365.35, -109.4)" gradientUnits="userSpaceOnUse" id="gradient48" r="819.2" spreadMethod="pad">
      <stop offset="0.0" stop-color="#292929"/>
      <stop offset="1.0" stop-color="#010101"/>
    </radialGradient>
    <radialGradient cx="0" cy="0" gradientTransform="matrix(0.0219, 0.0, 0.0, 0.0219, -379.7, -148.95)" gradientUnits="userSpaceOnUse" id="gradient49" r="819.2" spreadMethod="pad">
      <stop offset="0.0" stop-color="#010101"/>
      <stop offset="1.0" stop-color="#000000"/>
    </radialGradient>
    <radialGradient cx="0" cy="0" gradientTransform="matrix(0.1212, 0.0, 0.0, 0.1212, -195.95, -41.2)" gradientUnits="userSpaceOnUse" id="gradient50" r="819.2" spreadMethod="pad">
      <stop offset="0.0" stop-color="#1a1a1a"/>
      <stop offset="1.0" stop-color="#000000"/>
    </radialGradient>
    <radialGradient cx="0" cy="0" gradientTransform="matrix(0.0337, 0.0, 0.0, 0.0337, -188.05, -1.0)" gradientUnits="userSpaceOnUse" id="gradient51" r="819.2" spreadMethod="pad">
      <stop offset="0.0" stop-color="#151515"/>
      <stop offset="1.0" stop-color="#000000"/>
    </radialGradient>
    <radialGradient cx="0" cy="0" gradientTransform="matrix(0.0674, 0.0, 0.0, 0.0674, -335.9, -75.15)" gradientUnits="userSpaceOnUse" id="gradient52" r="819.2" spreadMethod="pad">
      <stop offset="0.0" stop-color="#3a3a3a"/>
      <stop offset="1.0" stop-color="#242424"/>
    </radialGradient>
    <radialGradient cx="0" cy="0" gradientTransform="matrix(0.0755, 0.0, 0.0, 0.0755, -359.95, -60.8)" gradientUnits="userSpaceOnUse" id="gradient53" r="819.2" spreadMethod="pad">
      <stop offset="0.0" stop-color="#505050"/>
      <stop offset="1.0" stop-color="#2e2e2e"/>
    </radialGradient>
    <radialGradient cx="0" cy="0" gradientTransform="matrix(0.0369, 0.0, 0.0, 0.0369, -336.9, -34.6)" gradientUnits="userSpaceOnUse" id="gradient54" r="819.2" spreadMethod="pad">
      <stop offset="0.0" stop-color="#858585"/>
      <stop offset="1.0" stop-color="#000000"/>
    </radialGradient>
    <radialGradient cx="0" cy="0" gradientTransform="matrix(0.0219, 0.0, 0.0, 0.0219, -320.45, -52.8)" gradientUnits="userSpaceOnUse" id="gradient55" r="819.2" spreadMethod="pad">
      <stop offset="0.0" stop-color="#131313"/>
      <stop offset="1.0" stop-color="#000000"/>
    </radialGradient>
    <radialGradient cx="0" cy="0" gradientTransform="matrix(0.0231, 0.0, 0.0, 0.0231, -325.6, -65.0)" gradientUnits="userSpaceOnUse" id="gradient56" r="819.2" spreadMethod="pad">
      <stop offset="0.0" stop-color="#373737"/>
      <stop offset="1.0" stop-color="#0c0c0c"/>
    </radialGradient>
    <radialGradient cx="0" cy="0" gradientTransform="matrix(0.1056, 0.0, 0.0, 0.1056, -293.35, -1.0)" gradientUnits="userSpaceOnUse" id="gradient57" r="819.2" spreadMethod="pad">
      <stop offset="0.0" stop-color="#2b2b2b"/>
      <stop offset="1.0" stop-color="#000000"/>
    </radialGradient>
  </defs>
</svg>
