<?xml version="1.0" encoding="UTF-8" standalone="no"?>
<svg xmlns:xlink="http://www.w3.org/1999/xlink" height="299.1px" width="399.1px" xmlns="http://www.w3.org/2000/svg">
  <g transform="matrix(1.0, 0.0, 0.0, 1.0, 400.0, 300.0)">
    <path d="M-275.5 -259.75 L-279.75 -263.75 -298.4 -265.75 -298.9 -266.5 -315.5 -286.5 -325.15 -300.0 -301.75 -300.0 Q-283.5 -275.25 -257.75 -266.25 L-257.25 -264.15 -257.4 -263.65 -257.4 -263.15 -257.5 -262.9 -275.5 -259.75 M-155.65 -300.0 L-144.5 -300.0 -148.25 -286.75 -148.15 -286.25 -145.5 -285.25 -145.65 -285.0 -156.5 -269.65 -180.25 -253.75 -192.25 -254.4 -198.65 -255.25 -201.4 -255.9 -207.65 -262.65 -208.4 -262.75 -209.9 -263.25 Q-176.0 -271.15 -155.65 -300.0 M-141.15 -300.0 L-136.5 -300.0 -136.0 -297.4 -147.9 -287.0 -141.15 -300.0" fill="url(#gradient0)" fill-rule="evenodd" stroke="none"/>
    <path d="M-301.75 -300.0 L-155.65 -300.0 Q-176.0 -271.15 -209.9 -263.25 L-213.75 -264.25 -213.65 -266.75 -214.5 -268.65 -216.75 -272.0 -217.0 -271.75 -216.25 -269.4 -217.15 -269.75 -221.75 -273.9 -225.15 -274.15 -234.15 -276.15 -239.15 -276.25 -246.4 -277.15 -248.65 -276.15 -256.0 -274.4 -256.15 -274.0 -258.0 -272.4 -258.25 -268.5 -257.75 -266.25 Q-283.5 -275.25 -301.75 -300.0" fill="url(#gradient1)" fill-rule="evenodd" stroke="none"/>
    <path d="M-256.65 -263.4 L-257.15 -263.15 -257.25 -264.15 -257.75 -266.25 -258.25 -268.5 -258.0 -272.4 -256.15 -274.0 -256.65 -263.4" fill="url(#gradient2)" fill-rule="evenodd" stroke="none"/>
    <path d="M-256.15 -274.0 L-256.0 -274.4 -248.65 -276.15 -246.4 -277.15 -239.15 -276.25 -234.15 -276.15 -225.15 -274.15 -221.75 -273.9 -217.15 -269.75 -216.25 -269.4 -214.65 -265.25 -214.65 -264.4 -213.75 -264.25 -209.9 -263.25 -208.4 -262.75 -245.75 -267.0 -256.65 -263.4 -256.15 -274.0" fill="url(#gradient3)" fill-rule="evenodd" stroke="none"/>
    <path d="M-216.25 -269.4 L-217.0 -271.75 -216.75 -272.0 -214.5 -268.65 -214.65 -265.25 -216.25 -269.4" fill="url(#gradient4)" fill-rule="evenodd" stroke="none"/>
    <path d="M-214.5 -268.65 L-213.65 -266.75 -213.75 -264.25 -214.65 -264.4 -214.65 -265.25 -214.5 -268.65" fill="url(#gradient5)" fill-rule="evenodd" stroke="none"/>
    <path d="M-144.5 -300.0 L-141.15 -300.0 -147.9 -287.0 -148.25 -286.75 -144.5 -300.0" fill="url(#gradient6)" fill-rule="evenodd" stroke="none"/>
    <path d="M-136.5 -300.0 L-132.9 -300.0 -142.5 -284.15 -156.5 -269.65 -145.65 -285.0 -145.5 -285.25 -148.15 -286.25 -148.25 -286.75 -147.9 -287.0 -136.0 -297.4 -136.5 -300.0" fill="url(#gradient7)" fill-rule="evenodd" stroke="none"/>
    <path d="M-298.9 -266.5 L-299.4 -266.65 -313.25 -280.5 -314.15 -281.0 -325.5 -297.15 -325.9 -298.15 -327.25 -299.65 -327.4 -300.0 -325.15 -300.0 -315.5 -286.5 -298.9 -266.5" fill="url(#gradient8)" fill-rule="evenodd" stroke="none"/>
    <path d="M-257.15 -263.15 L-257.4 -263.15 -257.4 -263.65 -257.25 -264.15 -257.15 -263.15" fill="url(#gradient9)" fill-rule="evenodd" stroke="none"/>
    <path d="M-208.4 -262.75 L-207.65 -262.65 -201.4 -255.9 -200.15 -253.9 -183.5 -222.0 -182.5 -219.5 -180.15 -215.5 -177.15 -207.4 -182.9 -211.5 -188.9 -214.65 -194.9 -216.65 -201.75 -217.5 -210.4 -217.25 Q-218.0 -216.65 -225.25 -211.0 L-229.5 -204.75 -230.65 -197.4 -228.65 -190.5 Q-230.5 -189.65 -232.15 -176.75 L-231.25 -168.65 -227.4 -160.15 Q-228.75 -158.9 -226.5 -148.25 L-221.5 -139.65 -217.4 -136.0 -205.4 -131.65 -199.65 -125.9 -198.25 -125.25 -258.65 -129.75 -277.9 -129.5 -274.25 -130.75 -270.25 -132.9 -267.4 -136.5 -263.15 -138.15 Q-259.4 -142.25 -254.15 -144.5 L-247.0 -152.25 -243.75 -161.25 -242.4 -162.9 -237.0 -171.5 -234.75 -180.9 -235.9 -191.65 Q-233.0 -198.65 -233.75 -199.65 -235.0 -208.0 -240.75 -214.5 L-248.0 -220.5 Q-266.5 -230.15 -281.65 -226.5 L-259.15 -260.15 -256.65 -260.4 -255.4 -262.25 -257.75 -262.25 -257.5 -262.9 -257.4 -263.15 -257.15 -263.15 -256.65 -263.4 -245.75 -267.0 -208.4 -262.75 M-189.9 -124.5 L-184.15 -126.75 -185.5 -124.15 -189.9 -124.5 M-289.15 -130.75 L-284.65 -129.5 -288.9 -129.4 -289.15 -130.75" fill="url(#gradient10)" fill-rule="evenodd" stroke="none"/>
    <path d="M-297.4 -255.65 L-275.5 -259.75 -257.5 -262.9 -259.0 -262.0 -261.4 -261.75 -261.15 -260.9 -301.25 -238.4 -297.4 -255.65" fill="url(#gradient11)" fill-rule="evenodd" stroke="none"/>
    <path d="M-309.25 -143.0 L-309.15 -143.5 -307.4 -142.0 -309.25 -143.0 M-257.5 -262.9 L-257.75 -262.25 -257.75 -262.15 -259.0 -262.0 -257.5 -262.9 M-259.15 -260.15 L-281.65 -226.5 -294.4 -222.4 -302.9 -216.9 -301.25 -238.4 -261.15 -260.9 -259.15 -260.15 M-289.15 -130.75 L-288.9 -129.4 -291.9 -131.5 -289.15 -130.75" fill="url(#gradient12)" fill-rule="evenodd" stroke="none"/>
    <path d="M-201.4 -255.9 L-197.75 -254.65 -199.0 -254.5 -199.25 -253.65 -200.15 -253.9 -201.4 -255.9 M-257.75 -262.25 L-255.4 -262.25 -256.65 -260.4 -259.15 -260.15 -261.15 -260.9 -261.4 -261.75 -259.0 -262.0 -257.75 -262.15 -257.75 -262.25" fill="url(#gradient13)" fill-rule="evenodd" stroke="none"/>
    <path d="M-200.15 -253.9 L-199.25 -253.65 -165.25 -212.4 -166.9 -196.65 -171.4 -202.4 -177.15 -207.4 -180.15 -215.5 -182.5 -219.5 -183.5 -222.0 -200.15 -253.9" fill="url(#gradient14)" fill-rule="evenodd" stroke="none"/>
    <path d="M-159.4 -173.9 L-159.15 -168.0 -160.65 -158.4 -164.4 -147.4 -169.25 -139.25 -170.15 -138.4 -175.5 -132.4 -181.5 -128.0 -184.15 -126.75 -189.9 -124.5 -194.25 -124.25 -198.25 -125.25 -199.65 -125.9 -205.4 -131.65 -217.4 -136.0 -221.5 -139.65 -226.5 -148.25 Q-228.75 -158.9 -227.4 -160.15 L-231.25 -168.65 -232.15 -176.75 Q-230.5 -189.65 -228.65 -190.5 L-230.65 -197.4 -229.5 -204.75 -225.25 -211.0 Q-218.0 -216.65 -210.4 -217.25 L-201.75 -217.5 -194.9 -216.65 -188.9 -214.65 -182.9 -211.5 -177.15 -207.4 -171.4 -202.4 -166.9 -196.65 -163.25 -189.75 -161.9 -186.75 -159.75 -178.65 -159.4 -173.9" fill="url(#gradient15)" fill-rule="evenodd" stroke="none"/>
    <path d="M-204.65 -0.9 L-286.25 -0.9 -280.5 -77.4 -288.9 -129.4 -284.65 -129.5 -277.9 -129.5 -258.65 -129.75 -198.25 -125.25 -194.25 -124.25 -189.9 -124.5 -185.5 -124.15 -200.75 -73.65 -204.65 -0.9" fill="url(#gradient16)" fill-rule="evenodd" stroke="none"/>
    <path d="M-309.15 -143.5 Q-325.0 -160.4 -321.9 -184.9 -318.4 -200.15 -312.5 -206.4 L-310.15 -209.5 -302.9 -216.9 -294.4 -222.4 -281.65 -226.5 Q-266.5 -230.15 -248.0 -220.5 L-240.75 -214.5 Q-235.0 -208.0 -233.75 -199.65 -233.0 -198.65 -235.9 -191.65 L-234.75 -180.9 -237.0 -171.5 -242.4 -162.9 -243.75 -161.25 -247.0 -152.25 -254.15 -144.5 Q-259.4 -142.25 -263.15 -138.15 L-267.4 -136.5 -270.25 -132.9 -274.25 -130.75 -277.9 -129.5 -284.65 -129.5 -289.15 -130.75 -291.9 -131.5 -293.5 -132.0 -302.0 -137.25 -307.4 -142.0 -309.15 -143.5" fill="url(#gradient17)" fill-rule="evenodd" stroke="none"/>
    <path d="M-318.4 -250.25 L-297.4 -255.65 -301.25 -238.4 -302.9 -216.9 -310.15 -209.5 -312.5 -206.4 -321.4 -227.65 -318.4 -250.25" fill="url(#gradient18)" fill-rule="evenodd" stroke="none"/>
    <path d="M-321.9 -184.9 L-334.4 -179.0 -353.9 -171.65 -379.0 -155.9 -387.15 -153.15 -400.0 -148.9 -400.0 -196.65 -338.15 -230.4 -321.0 -247.75 -318.4 -250.25 -321.4 -227.65 -312.5 -206.4 Q-318.4 -200.15 -321.9 -184.9" fill="url(#gradient19)" fill-rule="evenodd" stroke="none"/>
    <path d="M-400.0 -196.65 L-399.75 -207.9 -374.9 -222.75 -345.9 -237.4 -321.0 -247.75 -338.15 -230.4 -400.0 -196.65" fill="url(#gradient20)" fill-rule="evenodd" stroke="none"/>
    <path d="M-198.65 -255.25 L-165.9 -243.0 -158.4 -226.15 -156.5 -197.65 -156.75 -196.15 -163.25 -189.75 -166.9 -196.65 -165.25 -212.4 -199.25 -253.65 -199.0 -254.5 -197.75 -254.65 -201.4 -255.9 -198.65 -255.25" fill="url(#gradient21)" fill-rule="evenodd" stroke="none"/>
    <path d="M-165.9 -243.0 L-143.25 -224.9 -158.4 -226.15 -165.9 -243.0" fill="url(#gradient22)" fill-rule="evenodd" stroke="none"/>
    <path d="M-91.65 -142.5 L-104.75 -145.15 -118.5 -152.25 -128.9 -159.0 -129.0 -159.0 -130.5 -160.0 -130.75 -160.25 -137.0 -164.4 -158.25 -173.75 -156.75 -196.15 -156.5 -197.65 -158.4 -226.15 -143.25 -224.9 -113.15 -207.5 -94.25 -197.9 -78.9 -189.25 -78.5 -189.15 -78.0 -188.75 -77.4 -188.5 -77.15 -188.25 -76.25 -187.9 -76.25 -187.75 -60.75 -179.0 -60.75 -178.9 -60.4 -178.75 -58.9 -177.75 -72.5 -159.4 -91.65 -142.5" fill="url(#gradient23)" fill-rule="evenodd" stroke="none"/>
    <path d="M-158.25 -173.75 L-159.25 -173.9 -159.4 -173.9 -159.75 -178.65 -161.9 -186.75 -163.25 -189.75 -156.75 -196.15 -158.25 -173.75" fill="url(#gradient24)" fill-rule="evenodd" stroke="none"/>
    <path d="M-0.9 -247.9 L-5.5 -246.75 -2.9 -247.75 -1.4 -248.15 -0.9 -247.9 M-3.75 -246.65 L-3.15 -246.9 -3.75 -246.25 -3.75 -246.65" fill="url(#gradient25)" fill-rule="evenodd" stroke="none"/>
    <path d="M-0.9 -238.4 L-1.25 -238.4 -6.0 -245.15 -6.15 -246.0 -5.5 -246.75 -0.9 -247.9 -0.9 -238.4 M-3.75 -246.65 L-3.75 -246.25 -3.15 -246.9 -3.75 -246.65" fill="url(#gradient26)" fill-rule="evenodd" stroke="none"/>
    <path d="M-1.25 -238.4 L-0.9 -238.4 -0.9 -235.65 -1.5 -235.65 -1.65 -235.5 -1.25 -238.4" fill="url(#gradient27)" fill-rule="evenodd" stroke="none"/>
    <path d="M-1.65 -235.5 L-1.5 -235.65 -1.5 -235.5 -1.65 -235.5" fill="url(#gradient28)" fill-rule="evenodd" stroke="none"/>
    <path d="M-1.5 -235.65 L-0.9 -235.65 -0.9 -232.0 -1.4 -231.9 -2.15 -230.65 -10.4 -229.0 -9.0 -230.75 -1.65 -235.5 -1.5 -235.5 -1.5 -235.65" fill="url(#gradient29)" fill-rule="evenodd" stroke="none"/>
    <path d="M-2.0 -229.5 L-2.15 -229.4 -2.5 -229.4 -2.75 -229.25 -3.15 -229.25 -3.4 -229.15 -3.75 -229.15 -4.0 -229.0 -4.4 -229.0 -4.65 -228.9 -5.0 -228.9 -5.25 -228.75 -5.65 -228.75 -5.9 -228.65 -6.25 -228.65 -6.5 -228.5 -6.9 -228.5 -7.15 -228.4 -7.5 -228.4 -7.75 -228.25 -8.15 -228.25 -8.4 -228.15 -8.75 -228.15 -9.0 -228.0 -9.4 -228.0 -9.65 -227.9 -10.4 -227.75 -10.4 -229.0 -2.15 -230.65 -2.0 -229.5" fill="url(#gradient30)" fill-rule="evenodd" stroke="none"/>
    <path d="M-2.15 -230.65 L-1.4 -231.9 -0.9 -232.0 -0.9 -231.15 -1.4 -231.0 -1.75 -230.25 -1.5 -229.5 -2.0 -229.5 -2.15 -230.65" fill="url(#gradient31)" fill-rule="evenodd" stroke="none"/>
    <path d="M-1.5 -229.5 L-1.75 -230.25 -1.4 -231.0 -0.9 -231.15 -0.9 -229.65 -1.5 -229.5" fill="url(#gradient32)" fill-rule="evenodd" stroke="none"/>
    <path d="M-76.25 -187.75 L-62.65 -180.4 -60.75 -179.0 -76.25 -187.75" fill="url(#gradient33)" fill-rule="evenodd" stroke="none"/>
    <path d="M-49.5 -180.9 L-47.5 -181.0 -39.0 -177.15 -58.9 -177.75 -60.4 -178.75 -60.75 -178.9 -60.75 -179.0 -62.65 -180.4 -49.5 -180.9" fill="url(#gradient34)" fill-rule="evenodd" stroke="none"/>
    <path d="M-49.5 -180.9 L-22.5 -195.4 -1.25 -204.75 -0.9 -204.75 -0.9 -195.9 Q-2.25 -195.3 -3.65 -194.75 L-21.4 -185.25 -39.0 -177.15 -47.5 -181.0 -49.5 -180.9" fill="url(#gradient35)" fill-rule="evenodd" stroke="none"/>
    <path d="M-39.0 -177.15 L-21.4 -185.25 -9.5 -167.5 -39.0 -177.15" fill="url(#gradient36)" fill-rule="evenodd" stroke="none"/>
    <path d="M-21.4 -185.25 L-3.65 -194.75 Q-2.25 -195.3 -0.9 -195.9 L-0.9 -168.65 -21.75 -157.0 -10.25 -166.9 -10.0 -167.0 -9.5 -167.5 -21.4 -185.25" fill="url(#gradient37)" fill-rule="evenodd" stroke="none"/>
    <path d="M-39.4 -145.4 L-39.5 -145.4 -39.9 -145.15 -56.25 -136.5 -91.65 -142.5 -72.5 -159.4 -58.9 -177.75 -39.0 -177.15 -9.5 -167.5 -10.0 -167.0 -10.25 -166.9 -23.75 -158.75 -39.4 -145.4" fill="url(#gradient38)" fill-rule="evenodd" stroke="none"/>
    <path d="M-118.5 -152.25 L-119.4 -152.4 -128.9 -159.0 -118.5 -152.25" fill="url(#gradient39)" fill-rule="evenodd" stroke="none"/>
    <path d="M-21.75 -157.0 L-39.4 -145.4 -23.75 -158.75 -10.25 -166.9 -21.75 -157.0" fill="url(#gradient40)" fill-rule="evenodd" stroke="none"/>
    <path d="M-286.25 -0.9 L-288.4 -0.9 -303.9 -9.15 -298.4 -78.9 -309.25 -143.0 -307.4 -142.0 -302.0 -137.25 -293.5 -132.0 -291.9 -131.5 -288.9 -129.4 -280.5 -77.4 -286.25 -0.9" fill="url(#gradient41)" fill-rule="evenodd" stroke="none"/>
    <path d="M-288.4 -0.9 L-308.75 -0.9 -303.9 -9.15 -288.4 -0.9" fill="url(#gradient42)" fill-rule="evenodd" stroke="none"/>
    <path d="M-387.15 -153.15 L-399.9 -144.5 -400.0 -148.9 -387.15 -153.15" fill="url(#gradient43)" fill-rule="evenodd" stroke="none"/>
    <path d="M-170.15 -138.4 L-170.5 -132.4 Q-178.0 -128.25 -185.5 -124.15 L-184.15 -126.75 -181.5 -128.0 -175.5 -132.4 -170.15 -138.4" fill="url(#gradient44)" fill-rule="evenodd" stroke="none"/>
    <path d="M-170.5 -132.4 L-191.25 -71.25 -192.9 -44.4 -194.65 -2.0 -197.0 -0.9 -204.65 -0.9 -200.75 -73.65 -185.5 -124.15 Q-178.0 -128.25 -170.5 -132.4" fill="url(#gradient45)" fill-rule="evenodd" stroke="none"/>
    <path d="M-399.9 -137.5 L-398.9 -134.25 -397.9 -128.15 -394.0 -121.75 -389.5 -113.9 -400.0 -113.25 -399.9 -137.5" fill="url(#gradient46)" fill-rule="evenodd" stroke="none"/>
    <path d="M-394.0 -121.75 L-397.9 -128.15 -398.9 -134.25 -399.9 -137.5 -399.75 -140.65 -394.0 -121.75" fill="url(#gradient47)" fill-rule="evenodd" stroke="none"/>
    <path d="M-400.0 -113.25 L-389.5 -113.9 -364.9 -82.0 -361.5 -78.25 -336.15 -46.65 -332.9 -42.25 -332.5 -41.4 -332.9 -41.15 -333.5 -40.9 -340.9 -37.65 Q-341.9 -40.25 -355.5 -41.25 L-362.4 -38.5 -365.65 -33.9 -379.4 -46.9 -398.75 -68.9 -400.0 -69.75 -400.0 -113.25" fill="url(#gradient48)" fill-rule="evenodd" stroke="none"/>
    <path d="M-400.0 -69.75 L-398.75 -68.9 -379.4 -46.9 -365.65 -33.9 Q-369.75 -34.0 -368.0 -24.5 L-389.0 -48.5 -399.75 -59.65 -400.0 -69.75" fill="url(#gradient49)" fill-rule="evenodd" stroke="none"/>
    <path d="M-368.0 -24.5 Q-369.75 -34.0 -365.65 -33.9 L-362.4 -38.5 -355.5 -41.25 Q-341.9 -40.25 -340.9 -37.65 L-333.5 -40.9 -333.15 -40.75 -332.9 -41.15 -332.5 -41.4 -332.9 -42.25 -336.15 -46.65 Q-320.25 -30.65 -337.5 -15.65 -347.4 -10.15 -354.25 -12.25 L-357.5 -13.25 -361.0 -15.15 -364.15 -18.0 Q-367.0 -21.15 -368.0 -24.5" fill="url(#gradient50)" fill-rule="evenodd" stroke="none"/>
    <path d="M-333.5 -40.9 L-332.9 -41.15 -333.15 -40.75 -333.5 -40.9" fill="url(#gradient51)" fill-rule="evenodd" stroke="none"/>
    <path d="M-194.65 -2.0 L-194.15 -0.9 -197.0 -0.9 -194.65 -2.0" fill="url(#gradient52)" fill-rule="evenodd" stroke="none"/>
    <path d="M-274.75 -276.9 L-273.9 -277.0 -269.4 -276.75 -269.0 -276.65 -268.65 -276.65 -265.75 -276.25 -267.0 -271.75 -267.0 -271.65 -267.15 -271.5 -267.0 -271.25 -267.25 -271.0 -267.15 -270.75 -267.9 -268.4 -267.9 -267.9 -268.4 -266.0 -271.15 -270.75 -271.75 -272.5 -272.15 -272.75 -272.65 -273.9 -274.75 -276.9" fill="#ac0000" fill-rule="evenodd" stroke="none"/>
    <path d="M-316.0 -204.75 L-312.9 -205.9 -312.5 -206.15 -312.4 -206.15 -312.0 -206.25 -312.0 -206.4 -308.0 -207.65 -307.25 -208.0 -301.25 -210.0 -301.0 -210.25 -289.0 -214.5 -288.4 -214.65 -285.5 -215.65 -284.0 -224.5 -284.0 -225.0 -283.9 -225.65 -283.9 -225.75 -283.75 -225.9 -279.9 -250.25 -279.75 -250.5 -278.65 -259.15 -278.5 -259.15 -278.5 -259.25 -275.5 -259.75 -278.15 -262.0 -278.25 -262.4 -278.0 -263.0 -277.75 -264.4 -277.9 -265.15 -277.65 -265.65 -277.4 -267.75 -275.4 -274.9 -275.15 -275.4 -275.25 -275.65 -275.15 -275.75 -274.75 -276.9 -272.65 -273.9 -272.15 -272.75 -271.75 -272.5 -271.15 -270.75 -268.4 -266.0 -268.25 -265.4 -269.4 -256.4 -269.5 -256.15 -269.4 -255.4 -270.75 -243.15 -271.0 -242.15 -272.9 -227.4 -272.9 -227.0 -273.15 -225.75 -274.0 -218.15 -274.25 -217.9 -274.15 -217.15 -275.75 -203.0 -275.65 -202.75 -277.5 -183.0 -289.9 -189.9 -290.0 -190.15 -313.75 -203.4 -313.75 -203.5 -314.25 -203.65 -314.25 -203.75 -316.0 -204.75" fill="#9e0000" fill-opacity="0.9098039" fill-rule="evenodd" stroke="none"/>
    <path d="M-278.5 -259.25 L-278.15 -262.0 -275.5 -259.75 -278.5 -259.25" fill="#ae0000" fill-opacity="0.9098039" fill-rule="evenodd" stroke="none"/>
    <path d="M-189.25 -266.4 L-186.9 -263.65 -186.0 -262.9 -185.75 -262.4 -185.65 -262.25 -185.0 -261.9 -183.9 -260.15 -181.5 -257.75 -181.5 -255.9 -181.15 -254.75 -181.25 -253.75 -190.0 -254.25 -190.25 -256.5 -190.15 -257.0 -190.4 -258.4 -196.25 -263.5 -189.25 -266.4 M-180.9 -248.65 L-179.9 -232.5 -178.9 -228.9 -178.4 -228.0 -171.5 -205.5 -157.9 -195.0 -156.9 -194.4 -156.75 -194.0 -154.15 -192.25 -153.4 -191.4 -150.15 -189.0 -183.0 -186.9 -182.4 -198.65 -182.65 -200.5 -182.4 -202.25 -182.5 -203.0 -182.4 -203.25 -182.25 -205.0 -183.0 -207.9 -183.15 -208.15 -183.9 -211.75 -184.15 -211.9 -184.0 -212.0 -187.75 -228.25 -188.5 -230.0 -188.5 -231.0 -189.25 -233.15 -189.5 -241.5 -189.65 -242.0 -189.75 -248.0 -189.9 -248.25 -189.9 -251.9 -180.9 -248.65 M-265.75 -276.25 L-265.0 -275.15 -264.75 -274.4 -264.4 -274.0 -262.75 -270.5 -262.75 -270.25 -262.5 -270.0 -261.65 -267.65 -261.15 -267.15 -260.9 -266.25 -259.75 -264.65 -259.15 -262.75 -264.25 -261.9 -264.25 -261.75 -265.9 -261.5 -267.0 -262.25 -267.9 -265.15 -268.25 -265.4 -268.4 -266.0 -267.9 -267.9 -267.9 -268.4 -267.15 -270.75 -267.25 -271.0 -267.0 -271.25 -267.15 -271.5 -267.0 -271.65 -267.0 -271.75 -265.75 -276.25 M-200.9 -267.75 L-196.25 -263.5 -197.65 -263.0 -200.5 -261.0 -201.0 -260.4 -203.65 -258.65 -207.15 -262.0 -207.5 -262.15 -207.65 -262.5 -205.0 -264.65 -205.0 -264.9 -204.4 -264.9 -200.9 -267.75" fill="#9b0000" fill-opacity="0.9098039" fill-rule="evenodd" stroke="none"/>
    <path d="M-189.25 -266.4 L-196.25 -263.5 -200.9 -267.75 -197.15 -267.25 -196.75 -267.25 -192.0 -266.75 -191.65 -266.65 -189.25 -266.4" fill="#a90000" fill-rule="evenodd" stroke="none"/>
    <path d="M-190.0 -254.25 L-181.25 -253.75 -180.9 -248.65 -189.9 -251.9 -190.0 -252.15 -190.0 -254.25" fill="#ab0000" fill-opacity="0.9098039" fill-rule="evenodd" stroke="none"/>
    <path d="M-150.15 -189.0 L-150.25 -186.9 -150.5 -186.75 -150.5 -186.4 -152.5 -171.15 -158.25 -173.75 -158.4 -173.75 -159.4 -173.9 -159.15 -168.65 -159.25 -168.4 -159.15 -168.0 -160.65 -159.15 -160.65 -158.75 -163.75 -149.75 -163.9 -149.5 -163.9 -149.4 -164.15 -148.9 -164.65 -147.0 -168.9 -140.15 -169.25 -139.4 -170.15 -138.4 -170.75 -132.15 -170.65 -131.9 -170.9 -131.25 -172.9 -125.5 -184.15 -126.75 -184.5 -126.75 -186.25 -127.0 -186.75 -127.0 -200.4 -128.5 -202.15 -128.5 -202.4 -128.65 -245.65 -130.75 -263.65 -132.9 -263.9 -133.0 -273.4 -133.5 -274.0 -133.25 -304.5 -133.15 -308.9 -141.25 -308.9 -141.4 -309.0 -141.4 -309.15 -141.9 -309.15 -142.25 -309.25 -142.5 -309.25 -142.65 -309.25 -143.0 -309.15 -143.5 -310.25 -144.9 -310.5 -144.9 -311.75 -147.15 -315.0 -153.65 -316.15 -155.5 -316.5 -156.75 -319.5 -162.4 -319.9 -162.9 -320.15 -163.75 -320.4 -163.9 -321.15 -165.75 -322.25 -171.75 -322.4 -172.15 -322.15 -175.0 -320.4 -182.75 -320.5 -183.25 -320.25 -183.75 -319.25 -188.4 -319.4 -188.9 -318.5 -191.9 -318.4 -192.9 -318.5 -193.15 -318.25 -193.75 -318.0 -194.75 -318.15 -195.15 -317.5 -196.75 -317.5 -197.25 -317.65 -197.65 -317.65 -197.9 -317.75 -197.9 -317.0 -199.9 -316.9 -200.9 -316.4 -203.0 -316.5 -203.5 -316.0 -204.75 -314.25 -203.75 -314.25 -203.65 -313.75 -203.5 -313.75 -203.4 -290.0 -190.15 -289.9 -189.9 -277.5 -183.0 -277.5 -182.9 -269.9 -176.15 -269.75 -176.15 -255.9 -163.9 -255.65 -163.75 -252.4 -161.0 -252.25 -160.75 -246.0 -155.15 -235.65 -146.25 Q-235.0 -145.75 -231.0 -147.9 L-200.5 -162.0 -200.4 -162.25 -190.0 -166.9 -184.25 -183.75 -184.0 -184.0 -183.4 -186.0 -183.0 -186.9 -150.15 -189.0 M-184.0 -155.4 L-183.9 -153.4 -184.0 -152.75 -182.5 -154.15 -182.25 -155.15 -182.5 -155.5 -182.75 -156.15 -182.9 -156.4 -183.0 -156.4 -184.0 -155.4 M-288.4 -156.65 L-289.5 -161.5 -289.25 -156.65 -289.4 -156.4 -289.15 -156.25 -289.15 -156.15 -288.65 -156.0 -288.4 -156.25 -288.4 -156.65" fill="#b00000" fill-opacity="0.9098039" fill-rule="evenodd" stroke="none"/>
    <path d="M-297.0 -0.9 L-308.9 -0.9 -306.15 -5.65 -304.0 -8.75 -303.9 -9.15 -303.65 -10.65 -300.15 -56.0 -299.9 -57.75 -298.4 -78.65 -305.65 -120.4 -305.65 -121.5 -308.75 -139.25 -308.9 -140.15 -309.0 -141.4 -308.9 -141.4 -308.9 -141.25 -304.5 -133.15 -294.4 -81.65 -294.25 -79.75 -293.4 -75.15 -294.75 -57.9 -295.0 -57.15 -294.9 -55.75 -296.75 -32.75 -296.9 -32.15 -296.75 -31.75 -297.9 -17.25 -297.5 -10.4 -297.65 -9.9 -297.0 -0.9 M-324.75 -183.65 L-319.4 -196.9 -319.15 -197.25 -316.5 -203.5 -316.4 -203.0 -316.9 -200.9 -317.0 -199.9 -317.75 -197.9 -317.65 -197.9 -317.65 -197.65 -317.5 -197.25 -317.5 -196.75 -318.15 -195.15 -318.0 -194.75 -318.25 -193.75 -318.5 -193.15 -318.4 -192.9 -318.5 -191.9 -319.4 -188.9 -319.25 -188.4 -320.25 -183.75 -320.5 -183.25 -320.4 -182.75 -322.15 -175.0 -322.4 -181.5 -322.0 -182.75 -321.75 -184.25 -321.9 -184.9 -324.75 -183.65 M-320.4 -163.9 L-320.15 -163.75 -319.9 -162.9 -319.5 -162.4 -316.5 -156.75 -316.15 -155.5 -315.0 -153.65 -311.75 -147.15 -316.15 -153.0 -316.25 -153.65 -320.15 -162.15 -320.15 -162.75 -320.4 -163.9" fill="#e80000" fill-opacity="0.9098039" fill-rule="evenodd" stroke="none"/>
    <path d="M-327.15 -175.5 L-327.15 -178.0 -325.0 -183.4 -324.75 -183.65 -321.9 -184.9 -321.75 -184.25 -322.0 -182.75 -322.4 -181.5 -322.15 -175.0 -322.4 -172.15 -323.15 -169.25 -321.15 -165.75 -320.4 -163.9 -320.15 -162.75 -320.15 -162.15 -316.25 -153.65 -316.15 -153.0 -311.75 -147.15 -310.5 -144.9 -309.25 -142.65 -309.25 -142.5 -309.15 -142.25 -309.15 -141.9 -309.0 -141.4 -308.9 -140.15 -318.75 -145.4 -326.65 -156.65 -327.15 -175.5" fill="#ff0000" fill-opacity="0.9098039" fill-rule="evenodd" stroke="none"/>
    <path d="M-150.25 -186.9 L-150.15 -186.4 -150.5 -186.4 -150.15 -185.75 -150.5 -170.4 -152.5 -171.15 -150.5 -186.4 -150.5 -186.75 -150.25 -186.9" fill="#c40000" fill-rule="evenodd" stroke="none"/>
    <path d="M-169.25 -139.4 L-168.9 -140.15 -164.65 -147.0 -164.15 -148.9 -163.9 -149.4 -163.9 -149.5 -163.75 -149.75 -160.65 -158.75 -160.65 -159.15 -159.15 -168.0 -159.25 -168.4 -159.15 -168.65 -159.4 -173.9 -158.4 -173.75 -158.25 -173.75 -152.5 -171.15 -153.65 -162.9 -162.5 -144.15 -169.25 -139.4 M-322.4 -172.15 L-322.25 -171.75 -321.15 -165.75 -323.15 -169.25 -322.4 -172.15 M-310.5 -144.9 L-310.25 -144.9 -309.15 -143.5 -309.25 -143.0 -309.25 -142.65 -310.5 -144.9" fill="#c20000" fill-opacity="0.9098039" fill-rule="evenodd" stroke="none"/>
    <path d="M-150.5 -170.4 L-150.4 -170.15 -150.4 -160.5 -150.75 -158.25 -162.15 -132.15 -170.9 -131.25 -170.65 -131.9 -170.75 -132.15 -170.15 -138.4 -169.25 -139.4 -162.5 -144.15 -153.65 -162.9 -152.5 -171.15 -150.5 -170.4" fill="#c60000" fill-rule="evenodd" stroke="none"/>
    <path d="M-310.9 -0.9 L-315.75 -0.9 -314.5 -3.0 -314.0 -3.15 -309.0 -5.15 -308.9 -4.9 -310.9 -0.9 M-329.25 -146.5 L-329.75 -148.0 -327.15 -175.5 -326.65 -156.65 -318.75 -145.4 -308.9 -140.15 -308.75 -139.25 -320.0 -142.4 -321.0 -142.9 -328.75 -145.4 -329.25 -146.5" fill="#fc0000" fill-rule="evenodd" stroke="none"/>
    <path d="M-315.75 -0.9 L-316.25 -0.9 -318.9 -24.5 -314.65 -77.15 -329.25 -146.5 -328.75 -145.4 -321.0 -142.9 -320.0 -142.4 -308.75 -139.25 -305.65 -121.5 -305.65 -120.4 -307.0 -75.5 -310.9 -27.9 -308.75 -5.4 -309.0 -5.15 -314.0 -3.15 -314.5 -3.0 -315.75 -0.9" fill="#fd0000" fill-rule="evenodd" stroke="none"/>
    <path d="M-308.9 -0.9 L-310.9 -0.9 -308.9 -4.9 -309.0 -5.15 -308.75 -5.4 -306.15 -5.65 -308.9 -0.9" fill="#f90000" fill-rule="evenodd" stroke="none"/>
    <path d="M-305.65 -120.4 L-298.4 -78.65 -299.9 -57.75 -300.15 -56.0 -303.65 -10.65 -303.9 -9.15 -304.0 -8.75 -306.15 -5.65 -308.75 -5.4 -310.9 -27.9 -307.0 -75.5 -305.65 -120.4" fill="#f80000" fill-rule="evenodd" stroke="none"/>
    <path d="M-150.75 -158.25 L-150.65 -157.9 -155.15 -134.25 -160.15 -132.4 -162.15 -132.15 -150.75 -158.25" fill="#d60000" fill-rule="evenodd" stroke="none"/>
    <path d="M-155.15 -134.25 L-155.0 -134.25 -155.0 -134.15 -179.9 -68.9 -181.5 -44.0 -182.65 -16.5 -186.0 -0.9 -194.15 -0.9 -194.75 -1.9 -193.75 -24.75 -193.9 -25.25 -192.65 -49.25 -192.9 -49.75 -191.25 -69.25 -191.4 -71.15 -191.15 -72.0 -191.15 -72.25 -191.0 -73.0 -190.5 -73.4 -165.25 -124.65 -165.0 -125.15 -162.15 -132.15 -160.15 -132.4 -155.15 -134.25" fill="#d70000" fill-rule="evenodd" stroke="none"/>
    <path d="M-197.15 -0.9 L-297.0 -0.9 -297.65 -9.9 -297.5 -10.4 -297.9 -17.25 -296.75 -31.75 -296.9 -32.15 -296.75 -32.75 -294.9 -55.75 -295.0 -57.15 -294.75 -57.9 -293.4 -75.15 -294.25 -79.75 -294.4 -81.65 -304.5 -133.15 -274.0 -133.25 -273.4 -133.5 -263.9 -133.0 -263.65 -132.9 -245.65 -130.75 -202.4 -128.65 -202.15 -128.5 -200.4 -128.5 -186.75 -127.0 -186.25 -127.0 -184.5 -126.75 -184.15 -126.75 -172.9 -125.5 -190.5 -73.4 -191.0 -73.0 -191.15 -72.25 -191.15 -72.0 -191.4 -71.15 -192.0 -70.25 -193.15 -51.25 -192.9 -49.75 -193.25 -49.15 -193.15 -47.15 -194.4 -27.0 -194.15 -25.5 -194.4 -24.65 -194.9 -14.4 -196.4 -6.5 -196.25 -5.5 -197.15 -2.0 -197.15 -0.9" fill="#a60000" fill-opacity="0.9098039" fill-rule="evenodd" stroke="none"/>
    <path d="M-170.9 -131.25 L-162.15 -132.15 -165.0 -125.15 -165.25 -124.65 -172.9 -125.5 -170.9 -131.25" fill="#c70000" fill-rule="evenodd" stroke="none"/>
    <path d="M-165.25 -124.65 L-190.5 -73.4 -172.9 -125.5 -165.25 -124.65" fill="#bd0000" fill-rule="evenodd" stroke="none"/>
    <path d="M-194.15 -0.9 L-197.15 -0.9 -197.15 -2.0 -196.25 -5.5 -196.4 -6.5 -194.9 -14.4 -194.4 -24.65 -194.15 -25.5 -194.4 -27.0 -193.15 -47.15 -193.25 -49.15 -192.9 -49.75 -193.15 -51.25 -192.0 -70.25 -191.4 -71.15 -191.25 -69.25 -192.9 -49.75 -192.65 -49.25 -193.9 -25.25 -193.75 -24.75 -194.75 -1.9 -194.15 -0.9" fill="#c00000" fill-opacity="0.9098039" fill-rule="evenodd" stroke="none"/>
  </g>
  <defs>
    <radialGradient cx="0" cy="0" gradientTransform="matrix(0.172, 0.0, 0.0, 0.172, -187.65, -281.75)" gradientUnits="userSpaceOnUse" id="gradient0" r="819.2" spreadMethod="pad">
      <stop offset="0.0" stop-color="#555555"/>
      <stop offset="1.0" stop-color="#101010"/>
    </radialGradient>
    <radialGradient cx="0" cy="0" gradientTransform="matrix(0.1159, 0.0, 0.0, 0.1159, -206.85, -297.45)" gradientUnits="userSpaceOnUse" id="gradient1" r="819.2" spreadMethod="pad">
      <stop offset="0.0" stop-color="#7d7d7d"/>
      <stop offset="1.0" stop-color="#000000"/>
    </radialGradient>
    <radialGradient cx="0" cy="0" gradientTransform="matrix(0.0168, 0.0, 0.0, 0.0168, -255.8, -275.95)" gradientUnits="userSpaceOnUse" id="gradient2" r="819.2" spreadMethod="pad">
      <stop offset="0.0" stop-color="#1a1a1a"/>
      <stop offset="1.0" stop-color="#050505"/>
    </radialGradient>
    <radialGradient cx="0" cy="0" gradientTransform="matrix(0.0609, 0.0, 0.0, 0.0609, -255.8, -275.95)" gradientUnits="userSpaceOnUse" id="gradient3" r="819.2" spreadMethod="pad">
      <stop offset="0.0" stop-color="#1a1a1a"/>
      <stop offset="1.0" stop-color="#000000"/>
    </radialGradient>
    <radialGradient cx="0" cy="0" gradientTransform="matrix(0.0225, 0.0, 0.0, 0.0225, -220.55, -282.6)" gradientUnits="userSpaceOnUse" id="gradient4" r="819.2" spreadMethod="pad">
      <stop offset="0.0" stop-color="#797979"/>
      <stop offset="1.0" stop-color="#000000"/>
    </radialGradient>
    <radialGradient cx="0" cy="0" gradientTransform="matrix(0.3305, 0.0, 0.0, 0.3305, -214.7, -271.4)" gradientUnits="userSpaceOnUse" id="gradient5" r="819.2" spreadMethod="pad">
      <stop offset="0.0" stop-color="#000000"/>
      <stop offset="1.0" stop-color="#000000"/>
    </radialGradient>
    <radialGradient cx="0" cy="0" gradientTransform="matrix(0.0187, 0.0, 0.0, 0.0187, -148.35, -286.5)" gradientUnits="userSpaceOnUse" id="gradient6" r="819.2" spreadMethod="pad">
      <stop offset="0.0" stop-color="#1e1e1e"/>
      <stop offset="1.0" stop-color="#1e1e1e"/>
    </radialGradient>
    <radialGradient cx="0" cy="0" gradientTransform="matrix(0.0468, 0.0, 0.0, 0.0468, -156.45, -269.75)" gradientUnits="userSpaceOnUse" id="gradient7" r="819.2" spreadMethod="pad">
      <stop offset="0.0" stop-color="#323232"/>
      <stop offset="1.0" stop-color="#2c2c2c"/>
    </radialGradient>
    <radialGradient cx="0" cy="0" gradientTransform="matrix(0.0536, 0.0, 0.0, 0.0536, -325.8, -300.0)" gradientUnits="userSpaceOnUse" id="gradient8" r="819.2" spreadMethod="pad">
      <stop offset="0.0" stop-color="#151515"/>
      <stop offset="1.0" stop-color="#0b0b0b"/>
    </radialGradient>
    <radialGradient cx="0" cy="0" gradientTransform="matrix(0.0202, 0.0, 0.0, 0.0202, -258.1, -257.25)" gradientUnits="userSpaceOnUse" id="gradient9" r="819.2" spreadMethod="pad">
      <stop offset="0.0" stop-color="#272727"/>
      <stop offset="1.0" stop-color="#020202"/>
    </radialGradient>
    <radialGradient cx="0" cy="0" gradientTransform="matrix(0.1744, 0.0, 0.0, 0.1744, -260.25, -129.9)" gradientUnits="userSpaceOnUse" id="gradient10" r="819.2" spreadMethod="pad">
      <stop offset="0.0" stop-color="#6a6a6a"/>
      <stop offset="1.0" stop-color="#000000"/>
    </radialGradient>
    <radialGradient cx="0" cy="0" gradientTransform="matrix(0.062, 0.0, 0.0, 0.062, -257.15, -263.2)" gradientUnits="userSpaceOnUse" id="gradient11" r="819.2" spreadMethod="pad">
      <stop offset="0.0" stop-color="#000000"/>
      <stop offset="1.0" stop-color="#000000"/>
    </radialGradient>
    <radialGradient cx="0" cy="0" gradientTransform="matrix(0.1597, 0.0, 0.0, 0.1597, -309.15, -143.15)" gradientUnits="userSpaceOnUse" id="gradient12" r="819.2" spreadMethod="pad">
      <stop offset="0.0" stop-color="#626262"/>
      <stop offset="1.0" stop-color="#0f0f0f"/>
    </radialGradient>
    <radialGradient cx="0" cy="0" gradientTransform="matrix(0.1476, 0.0, 0.0, 0.1476, -279.1, -165.15)" gradientUnits="userSpaceOnUse" id="gradient13" r="819.2" spreadMethod="pad">
      <stop offset="0.0" stop-color="#323232"/>
      <stop offset="1.0" stop-color="#000000"/>
    </radialGradient>
    <radialGradient cx="0" cy="0" gradientTransform="matrix(0.0561, 0.0, 0.0, 0.0561, -180.3, -215.6)" gradientUnits="userSpaceOnUse" id="gradient14" r="819.2" spreadMethod="pad">
      <stop offset="0.0" stop-color="#000000"/>
      <stop offset="1.0" stop-color="#000000"/>
    </radialGradient>
    <radialGradient cx="0" cy="0" gradientTransform="matrix(0.0968, 0.0, 0.0, 0.0968, -203.75, -138.95)" gradientUnits="userSpaceOnUse" id="gradient15" r="819.2" spreadMethod="pad">
      <stop offset="0.0" stop-color="#878787"/>
      <stop offset="1.0" stop-color="#000000"/>
    </radialGradient>
    <radialGradient cx="0" cy="0" gradientTransform="matrix(0.1713, 0.0, 0.0, 0.1713, -260.25, -129.9)" gradientUnits="userSpaceOnUse" id="gradient16" r="819.2" spreadMethod="pad">
      <stop offset="0.0" stop-color="#6a6a6a"/>
      <stop offset="1.0" stop-color="#000000"/>
    </radialGradient>
    <radialGradient cx="0" cy="0" gradientTransform="matrix(0.0984, 0.0, 0.0, 0.0984, -272.45, -146.6)" gradientUnits="userSpaceOnUse" id="gradient17" r="819.2" spreadMethod="pad">
      <stop offset="0.0" stop-color="#858585"/>
      <stop offset="1.0" stop-color="#000000"/>
    </radialGradient>
    <radialGradient cx="0" cy="0" gradientTransform="matrix(0.0684, 0.0, 0.0, 0.0684, -304.3, -200.2)" gradientUnits="userSpaceOnUse" id="gradient18" r="819.2" spreadMethod="pad">
      <stop offset="0.0" stop-color="#171717"/>
      <stop offset="1.0" stop-color="#000000"/>
    </radialGradient>
    <radialGradient cx="0" cy="0" gradientTransform="matrix(0.1169, 0.0, 0.0, 0.1169, -368.95, -169.25)" gradientUnits="userSpaceOnUse" id="gradient19" r="819.2" spreadMethod="pad">
      <stop offset="0.0" stop-color="#6a6a6a"/>
      <stop offset="1.0" stop-color="#000000"/>
    </radialGradient>
    <radialGradient cx="0" cy="0" gradientTransform="matrix(0.1195, 0.0, 0.0, 0.1195, -317.55, -249.4)" gradientUnits="userSpaceOnUse" id="gradient20" r="819.2" spreadMethod="pad">
      <stop offset="0.0" stop-color="#0d0d0d"/>
      <stop offset="1.0" stop-color="#000000"/>
    </radialGradient>
    <radialGradient cx="0" cy="0" gradientTransform="matrix(0.0913, 0.0, 0.0, 0.0913, -156.55, -196.55)" gradientUnits="userSpaceOnUse" id="gradient21" r="819.2" spreadMethod="pad">
      <stop offset="0.0" stop-color="#595959"/>
      <stop offset="1.0" stop-color="#000000"/>
    </radialGradient>
    <radialGradient cx="0" cy="0" gradientTransform="matrix(0.0229, 0.0, 0.0, 0.0229, -158.45, -226.25)" gradientUnits="userSpaceOnUse" id="gradient22" r="819.2" spreadMethod="pad">
      <stop offset="0.0" stop-color="#000000"/>
      <stop offset="1.0" stop-color="#000000"/>
    </radialGradient>
    <radialGradient cx="0" cy="0" gradientTransform="matrix(0.0899, 0.0, 0.0, 0.0899, -131.8, -188.8)" gradientUnits="userSpaceOnUse" id="gradient23" r="819.2" spreadMethod="pad">
      <stop offset="0.0" stop-color="#616161"/>
      <stop offset="1.0" stop-color="#000000"/>
    </radialGradient>
    <radialGradient cx="0" cy="0" gradientTransform="matrix(0.0389, 0.0, 0.0, 0.0389, -156.55, -196.55)" gradientUnits="userSpaceOnUse" id="gradient24" r="819.2" spreadMethod="pad">
      <stop offset="0.0" stop-color="#595959"/>
      <stop offset="1.0" stop-color="#070707"/>
    </radialGradient>
    <radialGradient cx="0" cy="0" gradientTransform="matrix(0.0058, 0.0, 0.0, 0.0058, -5.6, -246.85)" gradientUnits="userSpaceOnUse" id="gradient25" r="819.2" spreadMethod="pad">
      <stop offset="0.0" stop-color="#818181"/>
      <stop offset="1.0" stop-color="#4f4f4f"/>
    </radialGradient>
    <radialGradient cx="0" cy="0" gradientTransform="matrix(0.0115, 0.0, 0.0, 0.0115, -1.0, -247.9)" gradientUnits="userSpaceOnUse" id="gradient26" r="819.2" spreadMethod="pad">
      <stop offset="0.0" stop-color="#303030"/>
      <stop offset="1.0" stop-color="#232323"/>
    </radialGradient>
    <radialGradient cx="0" cy="0" gradientTransform="matrix(0.0036, 0.0, 0.0, 0.0036, -1.2, -238.55)" gradientUnits="userSpaceOnUse" id="gradient27" r="819.2" spreadMethod="pad">
      <stop offset="0.0" stop-color="#202020"/>
      <stop offset="1.0" stop-color="#1f1f1f"/>
    </radialGradient>
    <radialGradient cx="0" cy="0" gradientTransform="matrix(8.0E-4, 0.0, 0.0, 8.0E-4, -1.7, -235.6)" gradientUnits="userSpaceOnUse" id="gradient28" r="819.2" spreadMethod="pad">
      <stop offset="0.0" stop-color="#060606"/>
      <stop offset="1.0" stop-color="#050505"/>
    </radialGradient>
    <radialGradient cx="0" cy="0" gradientTransform="matrix(0.0107, 0.0, 0.0, 0.0107, -1.9, -231.05)" gradientUnits="userSpaceOnUse" id="gradient29" r="819.2" spreadMethod="pad">
      <stop offset="0.0" stop-color="#313131"/>
      <stop offset="1.0" stop-color="#2f2f2f"/>
    </radialGradient>
    <radialGradient cx="0" cy="0" gradientTransform="matrix(0.0105, 0.0, 0.0, 0.0105, -10.45, -229.05)" gradientUnits="userSpaceOnUse" id="gradient30" r="819.2" spreadMethod="pad">
      <stop offset="0.0" stop-color="#262626"/>
      <stop offset="1.0" stop-color="#262626"/>
    </radialGradient>
    <radialGradient cx="0" cy="0" gradientTransform="matrix(0.0032, 0.0, 0.0, 0.0032, -1.95, -229.6)" gradientUnits="userSpaceOnUse" id="gradient31" r="819.2" spreadMethod="pad">
      <stop offset="0.0" stop-color="#040404"/>
      <stop offset="1.0" stop-color="#040404"/>
    </radialGradient>
    <radialGradient cx="0" cy="0" gradientTransform="matrix(0.0015, 0.0, 0.0, 0.0015, -1.45, -230.85)" gradientUnits="userSpaceOnUse" id="gradient32" r="819.2" spreadMethod="pad">
      <stop offset="0.0" stop-color="#030303"/>
      <stop offset="1.0" stop-color="#030303"/>
    </radialGradient>
    <radialGradient cx="0" cy="0" gradientTransform="matrix(0.0447, 0.0, 0.0, 0.0447, -58.95, -177.85)" gradientUnits="userSpaceOnUse" id="gradient33" r="819.2" spreadMethod="pad">
      <stop offset="0.0" stop-color="#000000"/>
      <stop offset="1.0" stop-color="#000000"/>
    </radialGradient>
    <radialGradient cx="0" cy="0" gradientTransform="matrix(0.0244, 0.0, 0.0, 0.0244, -58.95, -177.85)" gradientUnits="userSpaceOnUse" id="gradient34" r="819.2" spreadMethod="pad">
      <stop offset="0.0" stop-color="#000000"/>
      <stop offset="1.0" stop-color="#000000"/>
    </radialGradient>
    <radialGradient cx="0" cy="0" gradientTransform="matrix(0.0688, 0.0, 0.0, 0.0688, -51.55, -179.9)" gradientUnits="userSpaceOnUse" id="gradient35" r="819.2" spreadMethod="pad">
      <stop offset="0.0" stop-color="#1d1d1d"/>
      <stop offset="1.0" stop-color="#070707"/>
    </radialGradient>
    <radialGradient cx="0" cy="0" gradientTransform="matrix(0.0261, 0.0, 0.0, 0.0261, -21.25, -185.35)" gradientUnits="userSpaceOnUse" id="gradient36" r="819.2" spreadMethod="pad">
      <stop offset="0.0" stop-color="#000000"/>
      <stop offset="1.0" stop-color="#000000"/>
    </radialGradient>
    <radialGradient cx="0" cy="0" gradientTransform="matrix(0.0347, 0.0, 0.0, 0.0347, -21.25, -185.35)" gradientUnits="userSpaceOnUse" id="gradient37" r="819.2" spreadMethod="pad">
      <stop offset="0.0" stop-color="#000000"/>
      <stop offset="1.0" stop-color="#000000"/>
    </radialGradient>
    <radialGradient cx="0" cy="0" gradientTransform="matrix(0.063, 0.0, 0.0, 0.063, -40.05, -145.05)" gradientUnits="userSpaceOnUse" id="gradient38" r="819.2" spreadMethod="pad">
      <stop offset="0.0" stop-color="#161616"/>
      <stop offset="1.0" stop-color="#000000"/>
    </radialGradient>
    <radialGradient cx="0" cy="0" gradientTransform="matrix(0.0252, 0.0, 0.0, 0.0252, -119.2, -152.45)" gradientUnits="userSpaceOnUse" id="gradient39" r="819.2" spreadMethod="pad">
      <stop offset="0.0" stop-color="#000000"/>
      <stop offset="1.0" stop-color="#000000"/>
    </radialGradient>
    <radialGradient cx="0" cy="0" gradientTransform="matrix(0.0463, 0.0, 0.0, 0.0463, -40.05, -145.05)" gradientUnits="userSpaceOnUse" id="gradient40" r="819.2" spreadMethod="pad">
      <stop offset="0.0" stop-color="#161616"/>
      <stop offset="1.0" stop-color="#000000"/>
    </radialGradient>
    <radialGradient cx="0" cy="0" gradientTransform="matrix(0.0952, 0.0, 0.0, 0.0952, -294.5, -78.6)" gradientUnits="userSpaceOnUse" id="gradient41" r="819.2" spreadMethod="pad">
      <stop offset="0.0" stop-color="#838383"/>
      <stop offset="1.0" stop-color="#212121"/>
    </radialGradient>
    <radialGradient cx="0" cy="0" gradientTransform="matrix(0.0192, 0.0, 0.0, 0.0192, -304.1, -1.0)" gradientUnits="userSpaceOnUse" id="gradient42" r="819.2" spreadMethod="pad">
      <stop offset="0.0" stop-color="#1b1b1b"/>
      <stop offset="1.0" stop-color="#101010"/>
    </radialGradient>
    <radialGradient cx="0" cy="0" gradientTransform="matrix(0.0238, 0.0, 0.0, 0.0238, -383.8, -155.4)" gradientUnits="userSpaceOnUse" id="gradient43" r="819.2" spreadMethod="pad">
      <stop offset="0.0" stop-color="#000000"/>
      <stop offset="1.0" stop-color="#000000"/>
    </radialGradient>
    <radialGradient cx="0" cy="0" gradientTransform="matrix(0.0248, 0.0, 0.0, 0.0248, -170.6, -132.4)" gradientUnits="userSpaceOnUse" id="gradient44" r="819.2" spreadMethod="pad">
      <stop offset="0.0" stop-color="#010101"/>
      <stop offset="1.0" stop-color="#000000"/>
    </radialGradient>
    <radialGradient cx="0" cy="0" gradientTransform="matrix(0.1657, 0.0, 0.0, 0.1657, -170.6, -132.4)" gradientUnits="userSpaceOnUse" id="gradient45" r="819.2" spreadMethod="pad">
      <stop offset="0.0" stop-color="#010101"/>
      <stop offset="1.0" stop-color="#000000"/>
    </radialGradient>
    <radialGradient cx="0" cy="0" gradientTransform="matrix(0.0225, 0.0, 0.0, 0.0225, -400.0, -129.0)" gradientUnits="userSpaceOnUse" id="gradient46" r="819.2" spreadMethod="pad">
      <stop offset="0.0" stop-color="#000000"/>
      <stop offset="1.0" stop-color="#000000"/>
    </radialGradient>
    <radialGradient cx="0" cy="0" gradientTransform="matrix(0.0499, 0.0, 0.0, 0.0499, -388.0, -102.45)" gradientUnits="userSpaceOnUse" id="gradient47" r="819.2" spreadMethod="pad">
      <stop offset="0.0" stop-color="#292929"/>
      <stop offset="1.0" stop-color="#060606"/>
    </radialGradient>
    <radialGradient cx="0" cy="0" gradientTransform="matrix(0.0861, 0.0, 0.0, 0.0861, -378.5, -46.25)" gradientUnits="userSpaceOnUse" id="gradient48" r="819.2" spreadMethod="pad">
      <stop offset="0.0" stop-color="#505050"/>
      <stop offset="1.0" stop-color="#000000"/>
    </radialGradient>
    <radialGradient cx="0" cy="0" gradientTransform="matrix(0.0393, 0.0, 0.0, 0.0393, -378.5, -46.25)" gradientUnits="userSpaceOnUse" id="gradient49" r="819.2" spreadMethod="pad">
      <stop offset="0.0" stop-color="#505050"/>
      <stop offset="1.0" stop-color="#2b2b2b"/>
    </radialGradient>
    <radialGradient cx="0" cy="0" gradientTransform="matrix(0.0419, 0.0, 0.0, 0.0419, -350.95, -16.25)" gradientUnits="userSpaceOnUse" id="gradient50" r="819.2" spreadMethod="pad">
      <stop offset="0.0" stop-color="#858585"/>
      <stop offset="1.0" stop-color="#000000"/>
    </radialGradient>
    <radialGradient cx="0" cy="0" gradientTransform="matrix(0.0217, 0.0, 0.0, 0.0217, -336.35, -37.8)" gradientUnits="userSpaceOnUse" id="gradient51" r="819.2" spreadMethod="pad">
      <stop offset="0.0" stop-color="#131313"/>
      <stop offset="1.0" stop-color="#000000"/>
    </radialGradient>
    <radialGradient cx="0" cy="0" gradientTransform="matrix(0.0031, 0.0, 0.0, 0.0031, -194.7, -2.1)" gradientUnits="userSpaceOnUse" id="gradient52" r="819.2" spreadMethod="pad">
      <stop offset="0.0" stop-color="#000000"/>
      <stop offset="1.0" stop-color="#000000"/>
    </radialGradient>
  </defs>
</svg>
