<?xml version="1.0" encoding="UTF-8" standalone="no"?>
<svg xmlns:xlink="http://www.w3.org/1999/xlink" height="299.1px" width="399.1px" xmlns="http://www.w3.org/2000/svg">
  <g transform="matrix(1.0, 0.0, 0.0, 1.0, 400.0, 300.0)">
    <path d="M-286.9 -266.75 L-295.25 -273.25 -305.0 -279.0 -309.9 -300.0 -293.65 -300.0 Q-278.4 -280.65 -251.65 -269.9 L-251.75 -269.5 -282.75 -267.4 -286.9 -266.75 M-142.15 -300.0 L-116.9 -300.0 -126.65 -283.75 -115.65 -299.4 -119.0 -292.0 -127.65 -282.0 -127.9 -281.75 -131.9 -279.15 -146.65 -264.5 -173.9 -253.15 -178.75 -263.75 -180.25 -264.15 -189.75 -267.4 -186.5 -268.25 -172.65 -274.15 -159.4 -282.15 -147.9 -293.65 -142.15 -300.0" fill="url(#gradient0)" fill-rule="evenodd" stroke="none"/>
    <path d="M-293.65 -300.0 L-142.15 -300.0 -147.9 -293.65 -159.4 -282.15 -172.65 -274.15 -186.5 -268.25 -189.75 -267.4 -199.75 -270.65 -199.9 -271.15 -200.15 -273.4 -200.65 -271.0 -201.75 -271.5 -203.9 -277.9 -206.9 -278.65 -214.65 -282.0 -222.15 -283.15 -229.4 -284.9 -232.4 -284.15 -243.4 -282.9 -248.0 -281.0 Q-247.75 -280.4 -250.0 -276.75 L-250.25 -273.75 -251.65 -269.9 Q-278.4 -280.65 -293.65 -300.0" fill="url(#gradient1)" fill-rule="evenodd" stroke="none"/>
    <path d="M-243.4 -282.9 L-243.9 -270.0 -251.75 -269.5 -251.65 -269.9 -250.25 -273.75 -250.0 -276.75 Q-247.75 -280.4 -248.0 -281.0 L-243.4 -282.9" fill="url(#gradient2)" fill-rule="evenodd" stroke="none"/>
    <path d="M-189.75 -267.4 L-180.25 -264.15 -217.15 -273.65 -235.25 -270.65 -243.9 -270.0 -243.4 -282.9 -232.4 -284.15 -229.4 -284.9 -222.15 -283.15 -214.65 -282.0 -206.9 -278.65 -203.9 -277.9 -201.75 -271.5 -200.65 -271.0 -200.15 -273.4 -199.9 -271.15 -199.75 -270.65 -189.75 -267.4" fill="url(#gradient3)" fill-rule="evenodd" stroke="none"/>
    <path d="M-116.9 -300.0 L-115.5 -300.0 -115.65 -299.4 -126.65 -283.75 -116.9 -300.0" fill="url(#gradient4)" fill-rule="evenodd" stroke="none"/>
    <path d="M-115.5 -300.0 L-114.0 -300.0 -119.0 -292.0 -115.65 -299.4 -115.5 -300.0" fill="url(#gradient5)" fill-rule="evenodd" stroke="none"/>
    <path d="M-173.9 -253.15 L-173.75 -252.65 -167.15 -238.0 -153.4 -207.25 Q-169.65 -215.5 -176.5 -213.0 L-181.75 -212.0 -182.75 -211.5 -187.0 -208.4 -188.15 -206.75 -190.15 -200.75 -189.15 -192.25 -185.4 -184.65 -186.75 -182.15 -189.0 -170.65 -187.9 -159.25 -184.0 -149.5 -184.9 -145.9 -185.0 -135.5 -181.5 -125.65 -177.75 -121.25 -166.75 -115.9 -166.75 -115.5 -164.9 -109.25 -164.4 -108.65 -168.4 -109.5 -223.15 -115.75 -248.9 -116.4 -243.75 -117.5 -236.9 -119.9 -232.0 -123.75 Q-224.65 -125.75 -223.4 -127.25 L-220.4 -129.65 -214.65 -132.65 -205.65 -141.5 -200.9 -151.25 -199.9 -152.4 -194.0 -162.4 -191.5 -174.75 -192.9 -186.0 -192.5 -194.25 -198.0 -205.75 -204.5 -213.9 -212.9 -220.75 -219.4 -224.5 Q-236.0 -233.65 -257.25 -230.5 L-257.15 -231.75 -236.9 -267.5 -233.9 -267.25 -232.15 -269.5 -235.65 -269.65 -235.4 -270.4 -235.25 -270.65 -217.15 -273.65 -180.25 -264.15 -178.75 -263.75 -173.9 -253.15 M-160.0 -107.65 L-156.5 -109.25 -158.0 -107.25 -160.0 -107.65 M-265.4 -118.4 L-258.75 -116.5 -265.25 -116.65 -265.4 -118.4" fill="url(#gradient6)" fill-rule="evenodd" stroke="none"/>
    <path d="M-305.0 -279.0 L-311.25 -286.15 -322.0 -299.9 -309.9 -300.0 -305.0 -279.0" fill="url(#gradient7)" fill-rule="evenodd" stroke="none"/>
    <path d="M-243.9 -270.0 L-235.25 -270.65 -235.4 -270.4 -237.0 -269.65 -239.9 -269.65 -239.5 -268.5 -285.15 -247.4 -282.75 -267.4 -251.75 -269.5 -243.9 -270.0" fill="url(#gradient8)" fill-rule="evenodd" stroke="none"/>
    <path d="M-305.5 -131.9 L-303.9 -157.75 -302.9 -153.75 -297.9 -142.65 -291.5 -133.9 -283.4 -126.4 -298.75 -134.25 -305.5 -131.9 M-235.65 -269.65 L-237.0 -269.65 -235.4 -270.4 -235.65 -269.65 M-239.5 -268.5 L-236.9 -267.5 -257.15 -231.75 -257.25 -230.5 -267.5 -227.5 -272.75 -225.4 -282.4 -219.75 -290.4 -212.25 -293.25 -208.25 -285.15 -247.4 -239.5 -268.5 M-270.25 -119.4 L-265.4 -118.4 -265.25 -116.65 -270.25 -119.4" fill="url(#gradient9)" fill-rule="evenodd" stroke="none"/>
    <path d="M-237.0 -269.65 L-235.65 -269.65 -232.15 -269.5 -233.9 -267.25 -236.9 -267.5 -239.5 -268.5 -239.9 -269.65 -237.0 -269.65" fill="url(#gradient10)" fill-rule="evenodd" stroke="none"/>
    <path d="M-306.65 -264.0 L-286.9 -266.75 -282.75 -267.4 -285.15 -247.4 -293.25 -208.25 -296.5 -203.4 -300.15 -205.15 -307.5 -235.15 -308.25 -237.0 -306.65 -264.0" fill="url(#gradient11)" fill-rule="evenodd" stroke="none"/>
    <path d="M-303.9 -157.75 Q-308.15 -177.25 -301.9 -191.25 L-301.25 -192.0 -300.9 -193.5 -296.5 -203.4 -293.25 -208.25 -290.4 -212.25 -282.4 -219.75 -272.75 -225.4 -267.5 -227.5 -257.25 -230.5 Q-236.0 -233.65 -219.4 -224.5 L-212.9 -220.75 -204.5 -213.9 -198.0 -205.75 -192.5 -194.25 -192.9 -186.0 -191.5 -174.75 -194.0 -162.4 -199.9 -152.4 -200.9 -151.25 -205.65 -141.5 -214.65 -132.65 -220.4 -129.65 -223.4 -127.25 Q-224.65 -125.75 -232.0 -123.75 L-236.9 -119.9 -243.75 -117.5 -248.9 -116.4 -258.75 -116.5 -265.4 -118.4 -270.25 -119.4 -272.25 -119.9 -276.0 -121.65 -283.4 -126.4 -291.5 -133.9 -297.9 -142.65 -302.9 -153.75 -303.9 -157.75" fill="url(#gradient12)" fill-rule="evenodd" stroke="none"/>
    <path d="M-173.65 -33.25 L-173.65 -32.0 -173.75 -31.5 -174.25 -17.65 -174.4 -17.0 -175.0 -0.9 -259.9 -0.9 -256.0 -54.75 -265.25 -116.65 -258.75 -116.5 -248.9 -116.4 -223.15 -115.75 -168.4 -109.5 -164.4 -108.65 -162.9 -107.5 -160.0 -107.65 -158.0 -107.25 -162.75 -88.15 -172.9 -50.65 -173.65 -33.25" fill="url(#gradient13)" fill-rule="evenodd" stroke="none"/>
    <path d="M-259.9 -0.9 L-305.65 -0.9 -303.4 -30.9 -300.65 -56.4 -303.0 -101.25 -305.5 -131.9 -298.75 -134.25 -283.4 -126.4 -276.0 -121.65 -272.25 -119.9 -270.25 -119.4 -265.25 -116.65 -256.0 -54.75 -259.9 -0.9" fill="url(#gradient14)" fill-rule="evenodd" stroke="none"/>
    <path d="M-301.9 -191.25 L-303.15 -192.65 -300.9 -193.5 -301.25 -192.0 -301.9 -191.25" fill="url(#gradient15)" fill-rule="evenodd" stroke="none"/>
    <path d="M-303.15 -192.65 L-310.75 -189.65 -300.15 -205.15 -296.5 -203.4 -300.9 -193.5 -303.15 -192.65" fill="url(#gradient16)" fill-rule="evenodd" stroke="none"/>
    <path d="M-310.75 -189.65 L-331.4 -179.5 -356.0 -172.15 -387.25 -154.15 -400.0 -150.25 -400.0 -210.65 -330.75 -242.25 -306.9 -263.9 -306.65 -264.0 -308.25 -237.0 -307.5 -235.15 -300.15 -205.15 -310.75 -189.65" fill="url(#gradient17)" fill-rule="evenodd" stroke="none"/>
    <path d="M-400.0 -210.65 L-400.0 -227.5 -380.4 -237.25 -345.25 -251.5 -306.9 -263.9 -330.75 -242.25 -400.0 -210.65" fill="url(#gradient18)" fill-rule="evenodd" stroke="none"/>
    <path d="M-173.75 -252.65 L-150.4 -237.25 -139.9 -218.0 -139.0 -195.75 -140.5 -197.65 -145.15 -201.4 -144.65 -203.5 -145.0 -204.15 -167.15 -238.0 -173.75 -252.65" fill="url(#gradient19)" fill-rule="evenodd" stroke="none"/>
    <path d="M-145.15 -201.4 L-149.25 -204.65 -153.4 -207.25 -167.15 -238.0 -145.0 -204.15 -144.65 -203.5 -145.15 -201.4" fill="url(#gradient20)" fill-rule="evenodd" stroke="none"/>
    <path d="M-128.25 -142.9 Q-131.5 -124.65 -153.9 -110.5 L-156.5 -109.25 -160.0 -107.65 -162.9 -107.5 -164.4 -108.65 -164.9 -109.25 -166.75 -115.5 -166.75 -115.9 -177.75 -121.25 -181.5 -125.65 -185.0 -135.5 -184.9 -145.9 -184.0 -149.5 -187.9 -159.25 -189.0 -170.65 -186.75 -182.15 -185.4 -184.65 -189.15 -192.25 -190.15 -200.75 -188.15 -206.75 -187.0 -208.4 -182.75 -211.5 -181.75 -212.0 -176.5 -213.0 Q-169.65 -215.5 -153.4 -207.25 L-149.25 -204.65 -145.15 -201.4 -140.5 -197.65 -139.0 -195.75 Q-127.25 -180.65 -126.65 -171.15 L-125.75 -158.4 -127.0 -149.4 -127.5 -144.65 -128.25 -142.9" fill="url(#gradient21)" fill-rule="evenodd" stroke="none"/>
    <path d="M-150.4 -237.25 L-126.9 -215.4 -139.9 -218.0 -150.4 -237.25" fill="url(#gradient22)" fill-rule="evenodd" stroke="none"/>
    <path d="M-87.0 -124.5 L-98.25 -127.75 -108.25 -134.4 -111.5 -136.5 -127.0 -149.4 -125.75 -158.4 -126.65 -171.15 Q-127.25 -180.65 -139.0 -195.75 L-139.9 -218.0 -126.9 -215.4 -100.5 -194.25 -79.9 -180.0 -57.0 -162.4 -53.4 -159.5 -64.9 -141.0 -87.0 -124.5" fill="url(#gradient23)" fill-rule="evenodd" stroke="none"/>
    <path d="M-13.15 -229.75 L-12.9 -230.5 -12.0 -230.65 -12.0 -230.75 -0.9 -232.15 -0.9 -231.25 -13.15 -229.75" fill="url(#gradient24)" fill-rule="evenodd" stroke="none"/>
    <path d="M-15.9 -226.0 L-14.25 -229.25 -13.15 -229.75 -0.9 -231.25 -0.9 -229.5 -1.65 -228.75 -2.15 -227.65 -6.75 -227.0 -7.5 -227.0 -7.9 -226.9 -15.0 -226.0 -15.9 -226.0" fill="url(#gradient25)" fill-rule="evenodd" stroke="none"/>
    <path d="M-12.0 -230.75 L-12.0 -233.5 -2.5 -234.9 -0.9 -235.0 -0.9 -232.15 -12.0 -230.75" fill="url(#gradient26)" fill-rule="evenodd" stroke="none"/>
    <path d="M-0.9 -229.5 L-0.9 -225.65 -2.65 -214.25 -3.4 -214.15 -2.75 -220.15 -2.4 -220.9 -2.15 -227.65 -1.65 -228.75 -0.9 -229.5" fill="url(#gradient27)" fill-rule="evenodd" stroke="none"/>
    <path d="M-0.9 -225.65 L-0.9 -214.5 -2.65 -214.25 -0.9 -225.65 M-8.0 -226.65 L-8.4 -225.9 -8.4 -226.5 -8.0 -226.65 M-8.4 -225.65 L-8.0 -226.0 -8.15 -225.5 -8.4 -225.65 M-8.4 -225.5 L-7.9 -225.15 -7.0 -225.25 -6.15 -226.5 -7.4 -226.25 -6.5 -226.65 -5.9 -226.75 -5.5 -226.75 -5.0 -226.9 -4.5 -226.9 -4.15 -227.0 -2.9 -227.15 -5.0 -226.65 -4.9 -226.4 -2.65 -226.65 -4.65 -217.5 -8.5 -225.15 -8.4 -225.5 M-6.25 -225.4 L-6.0 -225.15 -5.9 -225.4 -6.25 -225.4 M-7.5 -225.65 L-7.15 -225.65 -7.25 -225.4 -7.5 -225.65 M-5.65 -223.4 L-5.65 -223.9 -7.0 -223.5 -5.65 -223.4 M-5.75 -222.75 L-5.4 -223.15 -5.75 -223.25 -6.5 -222.9 -5.75 -222.75 M-7.5 -224.9 L-7.65 -225.15 -8.0 -224.9 -7.5 -224.9" fill="url(#gradient28)" fill-rule="evenodd" stroke="none"/>
    <path d="M-0.9 -214.5 L-0.9 -211.5 -4.4 -212.4 -5.5 -210.9 -6.0 -210.75 -10.15 -210.25 -12.5 -209.5 -13.15 -208.75 -13.15 -207.75 -13.5 -207.75 -13.65 -208.9 Q-13.75 -209.65 -10.4 -212.15 L-5.65 -214.9 -5.0 -214.25 -3.4 -214.15 -2.65 -214.25 -0.9 -214.5 M-0.9 -207.65 L-0.9 -207.15 -3.25 -208.75 -4.65 -209.15 -6.15 -209.0 -4.4 -209.4 -0.9 -207.65" fill="url(#gradient29)" fill-rule="evenodd" stroke="none"/>
    <path d="M-7.5 -227.0 L-6.75 -227.0 -2.15 -227.65 -2.5 -227.25 -2.9 -227.15 -3.5 -227.15 -6.65 -226.75 -7.5 -227.0" fill="url(#gradient30)" fill-rule="evenodd" stroke="none"/>
    <path d="M-7.9 -226.9 L-7.5 -227.0 -6.65 -226.75 -6.5 -226.75 -6.5 -226.65 -7.4 -226.25 -6.15 -226.5 -7.0 -225.25 -7.9 -225.15 -8.4 -225.5 -8.4 -225.65 -8.4 -225.9 -8.0 -226.65 -7.9 -226.9 M-8.4 -225.65 L-8.15 -225.5 -8.0 -226.0 -8.4 -225.65 M-2.65 -226.65 L-4.9 -226.4 -5.0 -226.65 -2.9 -227.15 -2.5 -227.25 -2.5 -226.9 -2.65 -226.65 M-6.25 -225.4 L-5.9 -225.4 -6.0 -225.15 -6.25 -225.4 M-7.5 -225.65 L-7.25 -225.4 -7.15 -225.65 -7.5 -225.65 M-7.5 -224.9 L-8.0 -224.9 -7.65 -225.15 -7.5 -224.9 M-5.75 -222.75 L-6.5 -222.9 -5.75 -223.25 -5.4 -223.15 -5.75 -222.75 M-5.65 -223.4 L-7.0 -223.5 -5.65 -223.9 -5.65 -223.4" fill="url(#gradient31)" fill-rule="evenodd" stroke="none"/>
    <path d="M-21.4 -225.0 L-21.0 -225.4 -15.9 -226.0 -15.0 -226.0 -7.9 -226.9 -8.0 -226.65 -8.4 -226.5 -21.4 -225.0" fill="url(#gradient32)" fill-rule="evenodd" stroke="none"/>
    <path d="M-2.5 -227.25 L-2.15 -227.65 -2.4 -220.9 -2.75 -220.15 -3.4 -214.15 -4.4 -214.25 -5.15 -215.0 -4.65 -217.5 -2.65 -226.65 -2.5 -226.9 -2.5 -227.25" fill="url(#gradient33)" fill-rule="evenodd" stroke="none"/>
    <path d="M-6.5 -226.75 L-6.65 -226.75 -3.5 -227.15 -2.9 -227.15 -4.15 -227.0 -4.5 -226.9 -5.0 -226.9 -5.5 -226.75 -5.9 -226.75 -6.5 -226.75" fill="url(#gradient34)" fill-rule="evenodd" stroke="none"/>
    <path d="M-6.5 -226.65 L-6.5 -226.75 -5.9 -226.75 -6.5 -226.65" fill="url(#gradient35)" fill-rule="evenodd" stroke="none"/>
    <path d="M-18.25 -216.5 L-21.0 -222.15 -21.75 -224.4 -21.4 -225.0 -8.4 -226.5 -8.4 -225.9 -8.4 -225.65 -8.4 -225.5 -8.5 -225.15 -4.65 -217.5 -17.0 -216.25 -18.15 -216.5 -18.25 -216.5" fill="url(#gradient36)" fill-rule="evenodd" stroke="none"/>
    <path d="M-18.75 -213.65 L-18.25 -216.5 -18.15 -216.5 -17.0 -216.25 -4.65 -217.5 -5.15 -215.0 -5.65 -214.9 -6.4 -214.75 -7.5 -214.75 -7.9 -214.65 -8.75 -214.65 -9.25 -214.5 -10.15 -214.5 -10.5 -214.4 -11.5 -214.4 -11.9 -214.25 -12.9 -214.25 -13.25 -214.15 -14.15 -214.15 -14.65 -214.0 -15.5 -214.0 -15.9 -213.9 -16.9 -213.9 -17.25 -213.75 -18.5 -213.75 -18.75 -213.65" fill="url(#gradient37)" fill-rule="evenodd" stroke="none"/>
    <path d="M-26.0 -208.0 L-24.9 -209.5 -18.75 -213.65 -18.5 -213.75 -17.25 -213.75 -16.9 -213.9 -15.9 -213.9 -15.5 -214.0 -14.65 -214.0 -14.15 -214.15 -13.25 -214.15 -12.9 -214.25 -11.9 -214.25 -11.5 -214.4 -10.5 -214.4 -10.15 -214.5 -9.25 -214.5 -8.75 -214.65 -7.9 -214.65 -7.5 -214.75 -6.4 -214.75 -5.65 -214.9 -10.4 -212.15 Q-13.75 -209.65 -13.65 -208.9 L-26.0 -208.0" fill="url(#gradient38)" fill-rule="evenodd" stroke="none"/>
    <path d="M-5.15 -215.0 L-4.4 -214.25 -3.4 -214.15 -5.0 -214.25 -5.65 -214.9 -5.15 -215.0" fill="url(#gradient39)" fill-rule="evenodd" stroke="none"/>
    <path d="M-15.65 -207.5 L-16.9 -207.5 -17.25 -207.4 -18.5 -207.4 -18.9 -207.25 -20.15 -207.25 -20.5 -207.15 -21.65 -207.15 -22.0 -207.0 -23.25 -207.0 -23.65 -206.9 -24.9 -206.9 -25.25 -206.75 -26.15 -206.75 -26.0 -208.0 -13.65 -208.9 -13.5 -207.75 -13.75 -207.75 -14.15 -207.65 -15.25 -207.65 -15.65 -207.5" fill="url(#gradient40)" fill-rule="evenodd" stroke="none"/>
    <path d="M-0.9 -211.5 L-0.9 -207.65 -4.4 -209.4 -6.15 -209.0 -6.25 -209.0 -7.0 -208.9 -7.4 -208.75 -7.75 -208.75 -8.15 -208.65 -13.15 -207.75 -13.15 -208.75 -12.5 -209.5 -10.15 -210.25 -6.0 -210.75 -5.5 -210.9 -4.4 -212.4 -0.9 -211.5" fill="url(#gradient41)" fill-rule="evenodd" stroke="none"/>
    <path d="M-0.9 -207.15 L-0.9 -201.9 -11.65 -201.25 Q-11.75 -203.4 -12.9 -205.15 L-15.65 -207.5 -15.25 -207.65 -14.15 -207.65 -13.75 -207.75 -13.5 -207.75 -13.15 -207.75 -8.15 -208.65 -7.75 -208.75 -7.4 -208.75 -7.0 -208.9 -6.25 -209.0 -6.15 -209.0 -4.65 -209.15 -3.25 -208.75 -0.9 -207.15" fill="url(#gradient42)" fill-rule="evenodd" stroke="none"/>
    <path d="M-0.9 -201.9 L-0.9 -189.0 -5.75 -188.4 -9.4 -186.5 -13.15 -186.5 -13.0 -187.75 -13.0 -188.0 -12.9 -188.25 -12.0 -197.25 -11.65 -201.25 -0.9 -201.9" fill="url(#gradient43)" fill-rule="evenodd" stroke="none"/>
    <path d="M-0.9 -189.0 L-0.9 -178.9 -11.65 -173.5 -25.4 -165.0 -39.5 -157.75 -49.15 -162.25 -53.65 -162.4 -32.9 -174.9 -14.5 -183.9 -13.65 -184.25 -9.4 -186.5 -5.75 -188.4 -0.9 -189.0" fill="url(#gradient44)" fill-rule="evenodd" stroke="none"/>
    <path d="M-9.4 -186.5 L-13.65 -184.25 -13.15 -186.5 -9.4 -186.5" fill="url(#gradient45)" fill-rule="evenodd" stroke="none"/>
    <path d="M-14.5 -183.9 L-13.5 -187.75 -13.0 -187.75 -13.15 -186.5 -13.65 -184.25 -14.5 -183.9" fill="url(#gradient46)" fill-rule="evenodd" stroke="none"/>
    <path d="M-13.5 -187.75 L-12.4 -196.9 -12.0 -197.25 -12.9 -188.25 -13.0 -188.0 -13.0 -187.75 -13.5 -187.75" fill="url(#gradient47)" fill-rule="evenodd" stroke="none"/>
    <path d="M-0.9 -178.9 L-0.9 -153.9 -20.5 -143.5 -17.0 -146.25 -17.0 -146.65 -25.4 -165.0 -11.65 -173.5 -0.9 -178.9" fill="url(#gradient48)" fill-rule="evenodd" stroke="none"/>
    <path d="M-20.5 -143.5 L-20.75 -143.4 -27.25 -138.25 -46.65 -125.4 -60.9 -117.15 -87.0 -124.5 -64.9 -141.0 -53.4 -159.5 -39.5 -157.75 -17.0 -146.65 -17.0 -146.25 -20.5 -143.5" fill="url(#gradient49)" fill-rule="evenodd" stroke="none"/>
    <path d="M-17.0 -146.65 L-39.5 -157.75 -25.4 -165.0 -17.0 -146.65" fill="url(#gradient50)" fill-rule="evenodd" stroke="none"/>
    <path d="M-57.0 -162.4 L-53.65 -162.4 -49.15 -162.25 -39.5 -157.75 -53.4 -159.5 -57.0 -162.4" fill="url(#gradient51)" fill-rule="evenodd" stroke="none"/>
    <path d="M-108.25 -134.4 L-121.5 -136.25 -128.25 -142.9 -127.5 -144.65 -127.0 -149.4 -111.5 -136.5 -108.25 -134.4" fill="url(#gradient52)" fill-rule="evenodd" stroke="none"/>
    <path d="M-153.9 -110.5 L-172.4 -49.0 -173.65 -33.25 -172.9 -50.65 -162.75 -88.15 -158.0 -107.25 -156.5 -109.25 -153.9 -110.5" fill="url(#gradient53)" fill-rule="evenodd" stroke="none"/>
    <path d="M-398.0 -101.15 L-400.0 -101.15 -400.0 -104.25 Q-399.4 -104.25 -398.0 -101.15" fill="url(#gradient54)" fill-rule="evenodd" stroke="none"/>
    <path d="M-398.0 -101.15 L-363.4 -60.5 -348.65 -41.0 -335.75 -25.5 -325.75 -9.9 -328.65 -8.15 -335.25 -4.65 Q-336.5 -7.9 -353.15 -8.75 L-362.75 -5.0 -366.25 -0.9 -369.65 -0.9 -384.25 -14.65 -400.0 -32.25 -400.0 -101.15 -398.0 -101.15" fill="url(#gradient55)" fill-rule="evenodd" stroke="none"/>
    <path d="M-400.0 -32.25 L-384.25 -14.65 -369.65 -0.9 -387.75 -0.9 -400.0 -14.75 -400.0 -32.25" fill="url(#gradient56)" fill-rule="evenodd" stroke="none"/>
    <path d="M-366.25 -0.9 L-362.75 -5.0 -353.15 -8.75 Q-336.5 -7.9 -335.25 -4.65 L-328.65 -8.15 Q-327.0 -6.15 -326.5 -0.9 L-366.25 -0.9" fill="url(#gradient57)" fill-rule="evenodd" stroke="none"/>
    <path d="M-251.65 -289.15 L-246.9 -288.25 -246.65 -288.15 -242.25 -287.0 -246.65 -281.5 -247.0 -281.25 -248.75 -277.65 -248.75 -277.5 -249.15 -277.0 -249.5 -277.5 -249.25 -278.0 -249.25 -278.65 -249.0 -278.9 -249.75 -281.65 -249.9 -281.9 -251.65 -289.15" fill="#ac0000" fill-rule="evenodd" stroke="none"/>
    <path d="M-150.25 -237.4 L-150.25 -237.15 -150.0 -236.75 -148.65 -227.0 -140.65 -216.0 -140.65 -215.75 -139.9 -215.0 -139.75 -214.4 -127.65 -197.9 -123.65 -191.65 -115.65 -180.65 -114.9 -179.25 -113.25 -177.0 -135.0 -176.9 -135.15 -177.9 -135.25 -178.25 -135.75 -184.4 -136.25 -186.5 -136.0 -187.15 -136.5 -191.25 -136.65 -191.5 -136.5 -192.5 -136.9 -193.25 -137.15 -197.0 -139.0 -199.5 -139.15 -200.25 -143.5 -206.75 -143.65 -207.15 -157.5 -229.0 -158.5 -236.15 -158.65 -236.5 -159.4 -243.15 -150.25 -237.4 M-249.5 -275.4 L-250.25 -274.25 -250.25 -274.15 -250.4 -273.5 -251.25 -271.0 -252.0 -270.0 -252.0 -269.9 -252.25 -269.4 -260.75 -268.9 -261.75 -270.5 -260.75 -272.0 -260.75 -272.5 -259.75 -274.15 -259.5 -274.9 -259.5 -275.0 -259.4 -275.25 -258.25 -279.15 -256.0 -284.0 -251.65 -289.15 -249.9 -281.9 -249.75 -281.65 -249.0 -278.9 -249.25 -278.65 -249.25 -278.0 -249.5 -277.5 -249.15 -277.0 -249.5 -275.4 M-171.25 -264.25 L-178.5 -263.0 -178.75 -263.75 -180.25 -264.15 -185.15 -265.9 -176.75 -268.25 -176.25 -268.25 -175.9 -268.0 -175.9 -267.9 -171.25 -264.25 -165.4 -265.4 -161.65 -262.25 -161.15 -261.9 -158.4 -259.5 -162.9 -257.65 -163.15 -258.0 -171.25 -264.25" fill="#9b0000" fill-opacity="0.9098039" fill-rule="evenodd" stroke="none"/>
    <path d="M-282.0 -208.9 L-281.4 -209.25 -265.65 -213.0 -265.4 -213.15 -246.15 -217.9 -245.65 -217.9 -241.0 -219.0 -242.9 -224.65 -242.9 -225.65 -244.65 -230.75 -244.65 -230.9 -245.15 -231.25 -244.75 -231.25 -249.25 -245.4 -249.0 -246.15 -250.65 -250.75 -249.5 -275.4 -249.15 -277.0 -248.75 -277.5 -248.75 -277.65 -247.0 -281.25 -246.65 -281.5 -242.25 -287.0 -240.15 -279.0 -239.9 -278.9 -239.4 -277.0 -239.65 -270.4 -239.5 -270.25 -239.65 -269.65 -239.65 -268.75 -239.5 -268.5 -239.5 -263.0 -239.75 -262.15 -239.75 -248.25 -233.65 -229.9 -233.5 -229.9 -229.25 -217.0 -227.9 -179.65 -229.0 -180.15 -282.0 -208.9" fill="#9e0000" fill-opacity="0.9098039" fill-rule="evenodd" stroke="none"/>
    <path d="M-135.0 -176.9 L-113.25 -177.0 -113.25 -176.75 -114.0 -176.0 -125.75 -161.15 -125.75 -159.65 -125.9 -159.25 -125.75 -158.4 -126.9 -149.65 -127.0 -149.4 -127.15 -148.5 -127.25 -148.4 -127.25 -147.65 -127.4 -147.4 -127.4 -147.25 -127.25 -146.65 -127.5 -144.65 -128.25 -142.9 -128.5 -142.4 -128.4 -142.15 -130.75 -135.75 -130.9 -134.75 -137.15 -124.75 -144.65 -116.75 -151.9 -111.5 -152.9 -111.15 -155.0 -111.5 -155.75 -111.75 -156.15 -111.75 -163.25 -112.5 -163.65 -112.5 -203.4 -116.15 -228.5 -120.4 -249.9 -120.75 -250.25 -120.9 -266.4 -121.25 -266.65 -121.4 -267.4 -121.25 -272.65 -121.5 -279.75 -121.65 -280.4 -124.25 -280.65 -124.65 -281.15 -127.4 -281.15 -127.65 -281.25 -127.75 -281.15 -128.5 -285.15 -146.9 -285.65 -148.15 -285.75 -148.15 -285.75 -148.4 -286.0 -149.75 -286.15 -150.15 -288.15 -160.4 -288.4 -160.9 -289.5 -166.25 -288.15 -174.65 -288.0 -175.0 -285.65 -188.4 -285.5 -188.65 -283.65 -199.75 -283.5 -200.0 -282.0 -208.9 -229.0 -180.15 -227.9 -179.65 -222.0 -172.5 -221.9 -172.15 -220.4 -170.4 -220.15 -170.25 -207.9 -155.0 -207.5 -154.75 -206.65 -153.4 -202.25 -148.4 -202.4 -148.15 -190.4 -133.75 -190.25 -133.5 -185.0 -135.65 -185.0 -135.75 -153.15 -149.65 -153.0 -149.9 Q-147.85 -152.05 -142.75 -154.25 L-141.4 -155.15 -139.65 -161.5 -139.4 -161.75 -135.65 -174.65 -135.0 -176.15 -135.0 -176.9 M-138.25 -142.75 L-139.4 -141.65 -139.4 -141.25 -139.65 -141.0 -139.5 -140.65 -139.65 -139.5 -139.9 -138.9 -139.25 -139.25 -138.0 -141.25 -138.15 -141.75 -138.0 -142.0 -138.25 -142.4 -138.25 -142.75 M-247.65 -155.15 L-247.9 -154.15 -248.25 -151.4 -248.25 -151.0 -248.4 -150.5 -248.65 -148.65 -248.4 -148.4 -248.25 -148.15 -247.5 -148.5 -247.5 -148.75 -247.4 -149.0 -247.65 -155.15" fill="#b00000" fill-opacity="0.9098039" fill-rule="evenodd" stroke="none"/>
    <path d="M-150.25 -237.4 L-159.4 -243.15 -159.65 -243.5 -161.15 -256.0 -162.9 -257.65 -158.4 -259.5 -152.9 -254.75 -150.25 -237.4" fill="#ab0000" fill-opacity="0.9098039" fill-rule="evenodd" stroke="none"/>
    <path d="M-171.25 -264.25 L-175.9 -267.9 -175.9 -268.0 -176.25 -268.25 -175.9 -268.25 -175.9 -268.0 -174.75 -268.0 -174.25 -267.75 -165.4 -265.4 -171.25 -264.25" fill="#a90000" fill-rule="evenodd" stroke="none"/>
    <path d="M-302.0 -191.4 L-301.75 -191.4 -301.4 -192.15 -301.15 -192.25 -301.15 -192.4 -301.0 -192.5 -300.9 -192.75 -300.0 -193.15 -299.65 -193.65 -286.15 -205.25 -285.9 -205.75 -282.5 -208.65 -282.0 -208.9 -283.5 -200.0 -283.65 -199.75 -285.5 -188.65 -285.65 -188.4 -288.0 -175.0 -288.15 -174.65 -289.5 -166.25 -288.4 -160.9 -288.15 -160.4 -286.15 -150.15 -286.0 -149.75 -285.75 -148.4 -285.75 -148.15 -285.65 -148.15 -285.15 -146.9 -281.15 -128.5 -281.25 -127.75 -281.15 -127.65 -281.15 -127.4 -280.65 -124.65 -280.4 -124.25 -279.75 -121.65 -297.75 -130.15 -297.9 -130.4 -298.4 -130.5 -305.0 -133.65 -305.4 -133.9 -303.9 -157.75 -305.4 -165.25 -305.25 -166.75 -305.4 -176.9 -305.25 -177.15 -305.15 -177.25 -303.4 -187.5 -302.15 -190.4 -301.75 -191.0 -302.0 -191.4" fill="#e80000" fill-opacity="0.9098039" fill-rule="evenodd" stroke="none"/>
    <path d="M-271.0 -0.9 L-305.65 -0.9 -305.25 -3.0 -305.4 -3.4 -305.15 -7.5 -305.0 -8.0 -305.0 -8.5 -303.0 -34.4 -302.9 -34.65 -302.9 -35.25 -302.75 -35.9 -302.75 -36.15 -300.65 -56.75 -302.25 -90.4 -302.4 -90.75 -304.5 -117.9 -305.0 -127.65 -305.15 -128.15 -305.5 -131.9 -305.4 -133.9 -305.0 -133.65 -298.4 -130.5 -297.9 -130.4 -297.75 -130.15 -279.75 -121.65 -273.75 -88.15 -273.75 -87.15 -267.25 -51.4 -267.9 -44.25 -268.0 -43.9 -267.9 -43.0 -270.15 -13.4 -270.25 -13.0 -270.15 -12.5 -271.0 -0.9" fill="#dd0000" fill-opacity="0.9098039" fill-rule="evenodd" stroke="none"/>
    <path d="M-328.0 -150.5 L-328.15 -151.4 -328.15 -152.15 -317.9 -177.4 -302.0 -191.4 -301.75 -191.0 -302.15 -190.4 -303.4 -187.5 -305.15 -177.25 -305.25 -177.15 -305.4 -176.9 -305.25 -166.75 -305.4 -165.25 -303.9 -157.75 -305.4 -133.9 -320.5 -141.25 -321.4 -141.25 -325.9 -139.25 -326.25 -140.4 -326.25 -140.5 -326.4 -141.15 -326.4 -141.4 -326.5 -141.9 -326.5 -142.25 -326.65 -142.65 -327.9 -150.5 -328.0 -150.5" fill="#ff0000" fill-opacity="0.9098039" fill-rule="evenodd" stroke="none"/>
    <path d="M-113.25 -176.75 L-112.4 -144.4 -117.0 -135.65 -120.75 -136.25 -121.5 -136.25 -121.75 -136.65 -128.25 -142.9 -127.5 -144.65 -127.25 -146.65 -127.4 -147.25 -127.4 -147.4 -127.25 -147.65 -127.25 -148.4 -127.15 -148.5 -127.0 -149.4 -126.9 -149.65 -125.75 -158.4 -125.9 -159.25 -125.75 -159.65 -125.75 -161.15 -114.0 -176.0 -113.25 -176.75" fill="#c40000" fill-rule="evenodd" stroke="none"/>
    <path d="M-117.0 -135.65 L-131.9 -107.0 -135.9 -117.9 -144.65 -116.75 -137.15 -124.75 -130.9 -134.75 -130.75 -135.75 -128.4 -142.15 -128.5 -142.4 -128.25 -142.9 -121.75 -136.65 -121.5 -136.25 -120.75 -136.25 -117.0 -135.65" fill="#c60000" fill-rule="evenodd" stroke="none"/>
    <path d="M-328.25 -138.4 L-328.0 -150.5 -327.9 -150.5 -326.65 -142.65 -326.5 -142.25 -326.5 -141.9 -326.4 -141.4 -326.4 -141.15 -326.25 -140.5 -326.25 -140.4 -325.9 -139.25 -326.25 -139.15 -328.25 -138.4" fill="#fd0000" fill-rule="evenodd" stroke="none"/>
    <path d="M-319.25 -65.9 L-328.15 -137.9 -328.25 -138.4 -326.25 -139.15 -325.9 -139.25 -325.75 -137.4 -325.65 -136.9 -325.25 -134.5 -325.25 -134.4 -325.0 -133.9 -319.25 -65.9" fill="#f30000" fill-rule="evenodd" stroke="none"/>
    <path d="M-152.9 -111.15 L-151.9 -111.5 -144.65 -116.75 -135.9 -117.9 -131.9 -107.0 -152.9 -111.15" fill="#c70000" fill-rule="evenodd" stroke="none"/>
    <path d="M-325.9 -139.25 L-321.4 -141.25 -320.5 -141.25 -305.4 -133.9 -305.5 -131.9 -305.15 -128.15 -305.0 -127.65 -304.5 -117.9 -318.4 -128.65 -319.0 -129.5 -325.65 -136.9 -325.75 -137.4 -325.9 -139.25" fill="#f40000" fill-opacity="0.9098039" fill-rule="evenodd" stroke="none"/>
    <path d="M-305.65 -0.9 L-323.25 -0.9 -321.25 -26.5 -318.15 -54.25 -318.25 -57.65 -318.65 -58.9 -318.65 -59.75 -318.75 -60.4 -318.75 -61.15 -318.9 -61.75 -318.9 -62.5 -319.0 -63.15 -319.0 -63.75 -319.15 -64.15 -319.15 -64.75 -319.25 -65.5 -319.25 -65.9 -325.0 -133.9 -319.0 -129.5 -318.4 -128.65 -304.5 -117.9 -302.4 -90.75 -302.25 -90.4 -300.65 -56.75 -302.75 -36.15 -302.75 -35.9 -302.9 -35.25 -302.9 -34.65 -303.0 -34.4 -305.0 -8.5 -305.0 -8.0 -305.15 -7.5 -305.4 -3.4 -305.25 -3.0 -305.65 -0.9" fill="#ee0000" fill-rule="evenodd" stroke="none"/>
    <path d="M-325.0 -133.9 L-325.25 -134.4 -325.25 -134.5 -325.65 -136.9 -319.0 -129.5 -325.0 -133.9" fill="#ef0000" fill-rule="evenodd" stroke="none"/>
    <path d="M-175.0 -0.9 L-271.0 -0.9 -270.15 -12.5 -270.25 -13.0 -270.15 -13.4 -267.9 -43.0 -268.0 -43.9 -267.9 -44.25 -267.25 -51.4 -273.75 -87.15 -273.75 -88.15 -279.75 -121.65 -272.65 -121.5 -267.4 -121.25 -266.65 -121.4 -266.4 -121.25 -250.25 -120.9 -249.9 -120.75 -228.5 -120.4 -203.4 -116.15 -163.65 -112.5 -163.25 -112.5 -156.15 -111.75 -155.75 -111.75 -155.0 -111.5 -152.9 -111.15 -154.0 -110.4 -153.9 -110.15 -171.0 -54.0 -170.9 -53.75 -171.15 -53.65 -172.5 -49.15 -173.15 -41.5 -173.15 -40.75 -173.0 -40.0 -173.25 -39.9 -174.25 -22.25 -174.15 -21.25 -174.5 -19.0 -174.25 -17.65 -175.0 -0.9" fill="#a70000" fill-opacity="0.9098039" fill-rule="evenodd" stroke="none"/>
    <path d="M-131.9 -107.0 L-136.4 -97.4 -161.4 -46.4 -163.25 -0.9 -175.0 -0.9 -174.25 -17.65 -174.5 -19.0 -174.15 -21.25 -174.25 -22.25 -173.25 -39.9 -173.0 -40.0 -173.15 -40.75 -173.15 -41.5 -172.5 -49.15 -171.15 -53.65 -170.9 -53.75 -171.0 -54.0 -153.9 -110.15 -154.0 -110.4 -152.9 -111.15 -131.9 -107.0" fill="#be0000" fill-rule="evenodd" stroke="none"/>
    <path d="M-136.4 -97.4 L-136.25 -97.15 -160.15 -45.0 -162.15 -17.4 -162.5 -0.9 -163.25 -0.9 -161.4 -46.4 -136.4 -97.4" fill="#d60000" fill-rule="evenodd" stroke="none"/>
  </g>
  <defs>
    <radialGradient cx="0" cy="0" gradientTransform="matrix(0.1524, 0.0, 0.0, 0.1524, -188.85, -273.45)" gradientUnits="userSpaceOnUse" id="gradient0" r="819.2" spreadMethod="pad">
      <stop offset="0.0" stop-color="#4d4d4d"/>
      <stop offset="1.0" stop-color="#222222"/>
    </radialGradient>
    <radialGradient cx="0" cy="0" gradientTransform="matrix(0.1456, 0.0, 0.0, 0.1456, -174.3, -300.0)" gradientUnits="userSpaceOnUse" id="gradient1" r="819.2" spreadMethod="pad">
      <stop offset="0.0" stop-color="#767676"/>
      <stop offset="1.0" stop-color="#000000"/>
    </radialGradient>
    <radialGradient cx="0" cy="0" gradientTransform="matrix(0.0291, 0.0, 0.0, 0.0291, -253.85, -263.6)" gradientUnits="userSpaceOnUse" id="gradient2" r="819.2" spreadMethod="pad">
      <stop offset="0.0" stop-color="#272727"/>
      <stop offset="1.0" stop-color="#0a0a0a"/>
    </radialGradient>
    <radialGradient cx="0" cy="0" gradientTransform="matrix(0.0566, 0.0, 0.0, 0.0566, -201.05, -287.4)" gradientUnits="userSpaceOnUse" id="gradient3" r="819.2" spreadMethod="pad">
      <stop offset="0.0" stop-color="#797979"/>
      <stop offset="1.0" stop-color="#000000"/>
    </radialGradient>
    <radialGradient cx="0" cy="0" gradientTransform="matrix(0.0267, 0.0, 0.0, 0.0267, -127.85, -281.9)" gradientUnits="userSpaceOnUse" id="gradient4" r="819.2" spreadMethod="pad">
      <stop offset="0.0" stop-color="#1e1e1e"/>
      <stop offset="1.0" stop-color="#1e1e1e"/>
    </radialGradient>
    <radialGradient cx="0" cy="0" gradientTransform="matrix(0.0114, 0.0, 0.0, 0.0114, -119.0, -292.05)" gradientUnits="userSpaceOnUse" id="gradient5" r="819.2" spreadMethod="pad">
      <stop offset="0.0" stop-color="#272727"/>
      <stop offset="1.0" stop-color="#232323"/>
    </radialGradient>
    <radialGradient cx="0" cy="0" gradientTransform="matrix(0.1928, 0.0, 0.0, 0.1928, -223.75, -115.85)" gradientUnits="userSpaceOnUse" id="gradient6" r="819.2" spreadMethod="pad">
      <stop offset="0.0" stop-color="#6a6a6a"/>
      <stop offset="1.0" stop-color="#000000"/>
    </radialGradient>
    <radialGradient cx="0" cy="0" gradientTransform="matrix(0.0266, 0.0, 0.0, 0.0266, -309.9, -300.0)" gradientUnits="userSpaceOnUse" id="gradient7" r="819.2" spreadMethod="pad">
      <stop offset="0.0" stop-color="#0a0a0a"/>
      <stop offset="1.0" stop-color="#080808"/>
    </radialGradient>
    <radialGradient cx="0" cy="0" gradientTransform="matrix(0.0674, 0.0, 0.0, 0.0674, -235.25, -270.65)" gradientUnits="userSpaceOnUse" id="gradient8" r="819.2" spreadMethod="pad">
      <stop offset="0.0" stop-color="#000000"/>
      <stop offset="1.0" stop-color="#000000"/>
    </radialGradient>
    <radialGradient cx="0" cy="0" gradientTransform="matrix(0.1835, 0.0, 0.0, 0.1835, -298.55, -134.35)" gradientUnits="userSpaceOnUse" id="gradient9" r="819.2" spreadMethod="pad">
      <stop offset="0.0" stop-color="#626262"/>
      <stop offset="1.0" stop-color="#0f0f0f"/>
    </radialGradient>
    <radialGradient cx="0" cy="0" gradientTransform="matrix(0.1461, 0.0, 0.0, 0.1461, -265.15, -158.9)" gradientUnits="userSpaceOnUse" id="gradient10" r="819.2" spreadMethod="pad">
      <stop offset="0.0" stop-color="#323232"/>
      <stop offset="1.0" stop-color="#000000"/>
    </radialGradient>
    <radialGradient cx="0" cy="0" gradientTransform="matrix(0.0807, 0.0, 0.0, 0.0807, -294.6, -202.45)" gradientUnits="userSpaceOnUse" id="gradient11" r="819.2" spreadMethod="pad">
      <stop offset="0.0" stop-color="#171717"/>
      <stop offset="1.0" stop-color="#000000"/>
    </radialGradient>
    <radialGradient cx="0" cy="0" gradientTransform="matrix(0.1201, 0.0, 0.0, 0.1201, -231.6, -136.05)" gradientUnits="userSpaceOnUse" id="gradient12" r="819.2" spreadMethod="pad">
      <stop offset="0.0" stop-color="#858585"/>
      <stop offset="1.0" stop-color="#141414"/>
    </radialGradient>
    <radialGradient cx="0" cy="0" gradientTransform="matrix(0.1522, 0.0, 0.0, 0.1522, -223.75, -115.85)" gradientUnits="userSpaceOnUse" id="gradient13" r="819.2" spreadMethod="pad">
      <stop offset="0.0" stop-color="#6a6a6a"/>
      <stop offset="1.0" stop-color="#000000"/>
    </radialGradient>
    <radialGradient cx="0" cy="0" gradientTransform="matrix(0.0973, 0.0, 0.0, 0.0973, -282.95, -56.15)" gradientUnits="userSpaceOnUse" id="gradient14" r="819.2" spreadMethod="pad">
      <stop offset="0.0" stop-color="#838383"/>
      <stop offset="1.0" stop-color="#383838"/>
    </radialGradient>
    <radialGradient cx="0" cy="0" gradientTransform="matrix(0.0294, 0.0, 0.0, 0.0294, -299.15, -188.4)" gradientUnits="userSpaceOnUse" id="gradient15" r="819.2" spreadMethod="pad">
      <stop offset="0.0" stop-color="#000000"/>
      <stop offset="1.0" stop-color="#000000"/>
    </radialGradient>
    <radialGradient cx="0" cy="0" gradientTransform="matrix(0.0253, 0.0, 0.0, 0.0253, -310.9, -189.65)" gradientUnits="userSpaceOnUse" id="gradient16" r="819.2" spreadMethod="pad">
      <stop offset="0.0" stop-color="#2f2f2f"/>
      <stop offset="1.0" stop-color="#171717"/>
    </radialGradient>
    <radialGradient cx="0" cy="0" gradientTransform="matrix(0.1368, 0.0, 0.0, 0.1368, -367.7, -170.15)" gradientUnits="userSpaceOnUse" id="gradient17" r="819.2" spreadMethod="pad">
      <stop offset="0.0" stop-color="#6a6a6a"/>
      <stop offset="1.0" stop-color="#000000"/>
    </radialGradient>
    <radialGradient cx="0" cy="0" gradientTransform="matrix(0.125, 0.0, 0.0, 0.125, -311.65, -262.5)" gradientUnits="userSpaceOnUse" id="gradient18" r="819.2" spreadMethod="pad">
      <stop offset="0.0" stop-color="#0d0d0d"/>
      <stop offset="1.0" stop-color="#000000"/>
    </radialGradient>
    <radialGradient cx="0" cy="0" gradientTransform="matrix(0.0985, 0.0, 0.0, 0.0985, -138.4, -185.75)" gradientUnits="userSpaceOnUse" id="gradient19" r="819.2" spreadMethod="pad">
      <stop offset="0.0" stop-color="#595959"/>
      <stop offset="1.0" stop-color="#000000"/>
    </radialGradient>
    <radialGradient cx="0" cy="0" gradientTransform="matrix(0.065, 0.0, 0.0, 0.065, -154.0, -208.55)" gradientUnits="userSpaceOnUse" id="gradient20" r="819.2" spreadMethod="pad">
      <stop offset="0.0" stop-color="#000000"/>
      <stop offset="1.0" stop-color="#000000"/>
    </radialGradient>
    <radialGradient cx="0" cy="0" gradientTransform="matrix(0.1117, 0.0, 0.0, 0.1117, -161.75, -124.1)" gradientUnits="userSpaceOnUse" id="gradient21" r="819.2" spreadMethod="pad">
      <stop offset="0.0" stop-color="#878787"/>
      <stop offset="1.0" stop-color="#000000"/>
    </radialGradient>
    <radialGradient cx="0" cy="0" gradientTransform="matrix(0.0268, 0.0, 0.0, 0.0268, -140.0, -218.15)" gradientUnits="userSpaceOnUse" id="gradient22" r="819.2" spreadMethod="pad">
      <stop offset="0.0" stop-color="#000000"/>
      <stop offset="1.0" stop-color="#000000"/>
    </radialGradient>
    <radialGradient cx="0" cy="0" gradientTransform="matrix(0.0763, 0.0, 0.0, 0.0763, -113.9, -175.6)" gradientUnits="userSpaceOnUse" id="gradient23" r="819.2" spreadMethod="pad">
      <stop offset="0.0" stop-color="#616161"/>
      <stop offset="1.0" stop-color="#000000"/>
    </radialGradient>
    <radialGradient cx="0" cy="0" gradientTransform="matrix(0.0192, 0.0, 0.0, 0.0192, -1.0, -232.15)" gradientUnits="userSpaceOnUse" id="gradient24" r="819.2" spreadMethod="pad">
      <stop offset="0.0" stop-color="#303030"/>
      <stop offset="1.0" stop-color="#303030"/>
    </radialGradient>
    <radialGradient cx="0" cy="0" gradientTransform="matrix(0.0171, 0.0, 0.0, 0.0171, -1.95, -227.7)" gradientUnits="userSpaceOnUse" id="gradient25" r="819.2" spreadMethod="pad">
      <stop offset="0.0" stop-color="#818181"/>
      <stop offset="1.0" stop-color="#808080"/>
    </radialGradient>
    <radialGradient cx="0" cy="0" gradientTransform="matrix(0.0144, 0.0, 0.0, 0.0144, -1.0, -235.1)" gradientUnits="userSpaceOnUse" id="gradient26" r="819.2" spreadMethod="pad">
      <stop offset="0.0" stop-color="#262626"/>
      <stop offset="1.0" stop-color="#262626"/>
    </radialGradient>
    <radialGradient cx="0" cy="0" gradientTransform="matrix(0.0189, 0.0, 0.0, 0.0189, -3.45, -214.25)" gradientUnits="userSpaceOnUse" id="gradient27" r="819.2" spreadMethod="pad">
      <stop offset="0.0" stop-color="#171717"/>
      <stop offset="1.0" stop-color="#171717"/>
    </radialGradient>
    <radialGradient cx="0" cy="0" gradientTransform="matrix(0.016, 0.0, 0.0, 0.016, -2.05, -227.45)" gradientUnits="userSpaceOnUse" id="gradient28" r="819.2" spreadMethod="pad">
      <stop offset="0.0" stop-color="#040404"/>
      <stop offset="1.0" stop-color="#040404"/>
    </radialGradient>
    <radialGradient cx="0" cy="0" gradientTransform="matrix(0.0123, 0.0, 0.0, 0.0123, -3.4, -208.85)" gradientUnits="userSpaceOnUse" id="gradient29" r="819.2" spreadMethod="pad">
      <stop offset="0.0" stop-color="#040404"/>
      <stop offset="1.0" stop-color="#040404"/>
    </radialGradient>
    <radialGradient cx="0" cy="0" gradientTransform="matrix(0.0171, 0.0, 0.0, 0.0171, -15.85, -226.05)" gradientUnits="userSpaceOnUse" id="gradient30" r="819.2" spreadMethod="pad">
      <stop offset="0.0" stop-color="#222222"/>
      <stop offset="1.0" stop-color="#222222"/>
    </radialGradient>
    <radialGradient cx="0" cy="0" gradientTransform="matrix(0.0067, 0.0, 0.0, 0.0067, -4.05, -224.55)" gradientUnits="userSpaceOnUse" id="gradient31" r="819.2" spreadMethod="pad">
      <stop offset="0.0" stop-color="#171717"/>
      <stop offset="1.0" stop-color="#171717"/>
    </radialGradient>
    <radialGradient cx="0" cy="0" gradientTransform="matrix(0.0171, 0.0, 0.0, 0.0171, -7.9, -226.8)" gradientUnits="userSpaceOnUse" id="gradient32" r="819.2" spreadMethod="pad">
      <stop offset="0.0" stop-color="#828282"/>
      <stop offset="1.0" stop-color="#676767"/>
    </radialGradient>
    <radialGradient cx="0" cy="0" gradientTransform="matrix(0.0093, 0.0, 0.0, 0.0093, -3.9, -221.85)" gradientUnits="userSpaceOnUse" id="gradient33" r="819.2" spreadMethod="pad">
      <stop offset="0.0" stop-color="#020202"/>
      <stop offset="1.0" stop-color="#020202"/>
    </radialGradient>
    <radialGradient cx="0" cy="0" gradientTransform="matrix(0.0165, 0.0, 0.0, 0.0165, -15.4, -225.9)" gradientUnits="userSpaceOnUse" id="gradient34" r="819.2" spreadMethod="pad">
      <stop offset="0.0" stop-color="#171717"/>
      <stop offset="1.0" stop-color="#171717"/>
    </radialGradient>
    <radialGradient cx="0" cy="0" gradientTransform="matrix(0.0164, 0.0, 0.0, 0.0164, -6.5, -226.65)" gradientUnits="userSpaceOnUse" id="gradient35" r="819.2" spreadMethod="pad">
      <stop offset="0.0" stop-color="#040404"/>
      <stop offset="1.0" stop-color="#040404"/>
    </radialGradient>
    <radialGradient cx="0" cy="0" gradientTransform="matrix(0.0174, 0.0, 0.0, 0.0174, -8.2, -226.55)" gradientUnits="userSpaceOnUse" id="gradient36" r="819.2" spreadMethod="pad">
      <stop offset="0.0" stop-color="#303030"/>
      <stop offset="1.0" stop-color="#212121"/>
    </radialGradient>
    <radialGradient cx="0" cy="0" gradientTransform="matrix(0.0262, 0.0, 0.0, 0.0262, -2.3, -227.4)" gradientUnits="userSpaceOnUse" id="gradient37" r="819.2" spreadMethod="pad">
      <stop offset="0.0" stop-color="#212121"/>
      <stop offset="1.0" stop-color="#1f1f1f"/>
    </radialGradient>
    <radialGradient cx="0" cy="0" gradientTransform="matrix(0.0156, 0.0, 0.0, 0.0156, -13.3, -209.3)" gradientUnits="userSpaceOnUse" id="gradient38" r="819.2" spreadMethod="pad">
      <stop offset="0.0" stop-color="#313131"/>
      <stop offset="1.0" stop-color="#303030"/>
    </radialGradient>
    <radialGradient cx="0" cy="0" gradientTransform="matrix(0.0169, 0.0, 0.0, 0.0169, -5.0, -215.05)" gradientUnits="userSpaceOnUse" id="gradient39" r="819.2" spreadMethod="pad">
      <stop offset="0.0" stop-color="#070707"/>
      <stop offset="1.0" stop-color="#030303"/>
    </radialGradient>
    <radialGradient cx="0" cy="0" gradientTransform="matrix(0.0155, 0.0, 0.0, 0.0155, -26.05, -208.0)" gradientUnits="userSpaceOnUse" id="gradient40" r="819.2" spreadMethod="pad">
      <stop offset="0.0" stop-color="#262626"/>
      <stop offset="1.0" stop-color="#262626"/>
    </radialGradient>
    <radialGradient cx="0" cy="0" gradientTransform="matrix(0.0105, 0.0, 0.0, 0.0105, -4.55, -209.45)" gradientUnits="userSpaceOnUse" id="gradient41" r="819.2" spreadMethod="pad">
      <stop offset="0.0" stop-color="#030303"/>
      <stop offset="1.0" stop-color="#030303"/>
    </radialGradient>
    <radialGradient cx="0" cy="0" gradientTransform="matrix(0.0148, 0.0, 0.0, 0.0148, -11.6, -201.35)" gradientUnits="userSpaceOnUse" id="gradient42" r="819.2" spreadMethod="pad">
      <stop offset="0.0" stop-color="#1f1f1f"/>
      <stop offset="1.0" stop-color="#080808"/>
    </radialGradient>
    <radialGradient cx="0" cy="0" gradientTransform="matrix(0.0172, 0.0, 0.0, 0.0172, -12.05, -195.65)" gradientUnits="userSpaceOnUse" id="gradient43" r="819.2" spreadMethod="pad">
      <stop offset="0.0" stop-color="#2d2d2d"/>
      <stop offset="1.0" stop-color="#2a2a2a"/>
    </radialGradient>
    <radialGradient cx="0" cy="0" gradientTransform="matrix(0.0755, 0.0, 0.0, 0.0755, -55.4, -161.4)" gradientUnits="userSpaceOnUse" id="gradient44" r="819.2" spreadMethod="pad">
      <stop offset="0.0" stop-color="#1d1d1d"/>
      <stop offset="1.0" stop-color="#060606"/>
    </radialGradient>
    <radialGradient cx="0" cy="0" gradientTransform="matrix(0.0206, 0.0, 0.0, 0.0206, -1.0, -186.9)" gradientUnits="userSpaceOnUse" id="gradient45" r="819.2" spreadMethod="pad">
      <stop offset="0.0" stop-color="#2d2d2d"/>
      <stop offset="1.0" stop-color="#2d2d2d"/>
    </radialGradient>
    <radialGradient cx="0" cy="0" gradientTransform="matrix(0.0153, 0.0, 0.0, 0.0153, -13.55, -187.85)" gradientUnits="userSpaceOnUse" id="gradient46" r="819.2" spreadMethod="pad">
      <stop offset="0.0" stop-color="#111111"/>
      <stop offset="1.0" stop-color="#101010"/>
    </radialGradient>
    <radialGradient cx="0" cy="0" gradientTransform="matrix(0.0176, 0.0, 0.0, 0.0176, -12.25, -197.3)" gradientUnits="userSpaceOnUse" id="gradient47" r="819.2" spreadMethod="pad">
      <stop offset="0.0" stop-color="#101010"/>
      <stop offset="1.0" stop-color="#101010"/>
    </radialGradient>
    <radialGradient cx="0" cy="0" gradientTransform="matrix(0.0361, 0.0, 0.0, 0.0361, -25.45, -165.1)" gradientUnits="userSpaceOnUse" id="gradient48" r="819.2" spreadMethod="pad">
      <stop offset="0.0" stop-color="#000000"/>
      <stop offset="1.0" stop-color="#000000"/>
    </radialGradient>
    <radialGradient cx="0" cy="0" gradientTransform="matrix(0.0489, 0.0, 0.0, 0.0489, -47.0, -125.35)" gradientUnits="userSpaceOnUse" id="gradient49" r="819.2" spreadMethod="pad">
      <stop offset="0.0" stop-color="#161616"/>
      <stop offset="1.0" stop-color="#000000"/>
    </radialGradient>
    <radialGradient cx="0" cy="0" gradientTransform="matrix(0.0249, 0.0, 0.0, 0.0249, -25.45, -165.1)" gradientUnits="userSpaceOnUse" id="gradient50" r="819.2" spreadMethod="pad">
      <stop offset="0.0" stop-color="#000000"/>
      <stop offset="1.0" stop-color="#000000"/>
    </radialGradient>
    <radialGradient cx="0" cy="0" gradientTransform="matrix(0.0173, 0.0, 0.0, 0.0173, -53.45, -159.6)" gradientUnits="userSpaceOnUse" id="gradient51" r="819.2" spreadMethod="pad">
      <stop offset="0.0" stop-color="#000000"/>
      <stop offset="1.0" stop-color="#000000"/>
    </radialGradient>
    <radialGradient cx="0" cy="0" gradientTransform="matrix(0.0289, 0.0, 0.0, 0.0289, -121.45, -136.4)" gradientUnits="userSpaceOnUse" id="gradient52" r="819.2" spreadMethod="pad">
      <stop offset="0.0" stop-color="#000000"/>
      <stop offset="1.0" stop-color="#000000"/>
    </radialGradient>
    <radialGradient cx="0" cy="0" gradientTransform="matrix(0.1166, 0.0, 0.0, 0.1166, -152.2, -116.25)" gradientUnits="userSpaceOnUse" id="gradient53" r="819.2" spreadMethod="pad">
      <stop offset="0.0" stop-color="#010101"/>
      <stop offset="1.0" stop-color="#000000"/>
    </radialGradient>
    <radialGradient cx="0" cy="0" gradientTransform="matrix(0.0028, 0.0, 0.0, 0.0028, -400.0, -102.4)" gradientUnits="userSpaceOnUse" id="gradient54" r="819.2" spreadMethod="pad">
      <stop offset="0.0" stop-color="#000000"/>
      <stop offset="1.0" stop-color="#000000"/>
    </radialGradient>
    <radialGradient cx="0" cy="0" gradientTransform="matrix(0.1079, 0.0, 0.0, 0.1079, -383.65, -14.35)" gradientUnits="userSpaceOnUse" id="gradient55" r="819.2" spreadMethod="pad">
      <stop offset="0.0" stop-color="#505050"/>
      <stop offset="1.0" stop-color="#000000"/>
    </radialGradient>
    <radialGradient cx="0" cy="0" gradientTransform="matrix(0.03, 0.0, 0.0, 0.03, -383.65, -14.35)" gradientUnits="userSpaceOnUse" id="gradient56" r="819.2" spreadMethod="pad">
      <stop offset="0.0" stop-color="#505050"/>
      <stop offset="1.0" stop-color="#1a1a1a"/>
    </radialGradient>
    <radialGradient cx="0" cy="0" gradientTransform="matrix(0.0456, 0.0, 0.0, 0.0456, -363.8, -1.0)" gradientUnits="userSpaceOnUse" id="gradient57" r="819.2" spreadMethod="pad">
      <stop offset="0.0" stop-color="#313131"/>
      <stop offset="1.0" stop-color="#000000"/>
    </radialGradient>
  </defs>
</svg>
