<?xml version="1.0" encoding="UTF-8" standalone="no"?>
<svg xmlns:xlink="http://www.w3.org/1999/xlink" height="299.1px" width="399.1px" xmlns="http://www.w3.org/2000/svg">
  <g transform="matrix(1.0, 0.0, 0.0, 1.0, 400.0, 300.0)">
    <path d="M-286.65 -266.4 L-299.4 -275.9 -300.0 -278.25 -301.65 -281.65 -301.25 -282.9 -300.75 -300.0 -290.4 -300.0 -287.15 -295.75 -274.25 -284.15 -263.0 -275.0 -248.15 -268.25 -267.5 -268.0 -268.65 -268.0 -269.25 -267.9 -270.0 -267.9 -278.0 -267.5 -286.65 -266.4 M-129.65 -300.0 L-102.4 -299.9 -122.15 -274.0 -122.5 -273.65 -128.4 -272.25 -145.4 -257.65 -162.4 -251.75 -164.75 -258.25 -167.5 -259.25 -181.4 -265.0 Q-157.75 -270.0 -129.65 -300.0 M-118.9 -278.65 L-112.9 -287.0 Q-116.9 -283.5 -118.9 -278.65" fill="url(#gradient0)" fill-rule="evenodd" stroke="none"/>
    <path d="M-290.4 -300.0 L-129.65 -300.0 Q-157.75 -270.0 -181.4 -265.0 L-191.65 -269.15 -191.4 -270.75 -192.25 -269.4 -193.4 -269.65 -193.9 -274.25 -195.5 -274.75 -203.9 -279.25 -210.5 -280.75 -217.15 -283.0 -220.75 -282.5 -233.25 -282.0 -239.15 -280.15 -242.75 -276.4 -243.25 -272.75 -245.4 -268.25 -248.15 -268.25 -263.0 -275.0 -274.25 -284.15 -287.15 -295.75 -290.4 -300.0" fill="url(#gradient1)" fill-rule="evenodd" stroke="none"/>
    <path d="M-233.5 -268.4 L-220.25 -268.4 -222.0 -267.75 -224.75 -267.9 -224.4 -266.75 -268.9 -247.15 -267.5 -268.0 -248.15 -268.25 -245.4 -268.25 -233.5 -268.4" fill="url(#gradient2)" fill-rule="evenodd" stroke="none"/>
    <path d="M-290.9 -265.9 L-289.5 -266.0 -289.15 -266.15 -288.5 -266.15 -287.75 -266.25 -287.5 -266.25 -270.0 -267.9 -269.25 -267.9 -268.65 -268.0 -267.5 -268.0 -268.9 -247.15 -281.5 -200.65 -285.9 -203.65 -290.75 -235.25 -291.4 -237.5 -290.9 -265.9" fill="url(#gradient3)" fill-rule="evenodd" stroke="none"/>
    <path d="M-287.5 -266.25 L-286.65 -266.4 -278.0 -267.5 -270.0 -267.9 -287.5 -266.25" fill="url(#gradient4)" fill-rule="evenodd" stroke="none"/>
    <path d="M-299.4 -275.9 L-314.0 -291.15 -319.65 -299.9 -300.75 -300.0 -301.25 -282.9 -301.65 -281.65 -300.0 -278.25 -299.4 -275.9" fill="url(#gradient5)" fill-rule="evenodd" stroke="none"/>
    <path d="M-191.65 -269.15 L-181.4 -265.0 -167.5 -259.25 -199.65 -270.5 -204.75 -272.15 -204.25 -272.25 -193.4 -269.65 -192.25 -269.4 -191.65 -269.15" fill="url(#gradient6)" fill-rule="evenodd" stroke="none"/>
    <path d="M-191.65 -269.15 L-192.25 -269.4 -191.4 -270.75 -191.65 -269.15 M-193.4 -269.65 L-204.25 -272.25 -204.75 -272.15 -199.65 -270.5 -220.25 -268.4 -233.5 -268.4 -233.75 -278.5 -233.25 -282.0 -220.75 -282.5 -217.15 -283.0 -210.5 -280.75 -203.9 -279.25 -195.5 -274.75 -193.9 -274.25 -193.4 -269.65" fill="url(#gradient7)" fill-rule="evenodd" stroke="none"/>
    <path d="M-233.25 -282.0 L-233.75 -278.5 -233.5 -268.4 -245.4 -268.25 -243.25 -272.75 -242.75 -276.4 -239.15 -280.15 -233.25 -282.0" fill="url(#gradient8)" fill-rule="evenodd" stroke="none"/>
    <path d="M-146.0 -99.5 L-146.9 -98.5 -147.4 -98.75 -146.0 -99.5 M-162.4 -251.75 L-158.75 -241.9 -148.4 -214.25 -144.5 -203.0 Q-151.0 -206.75 -158.15 -206.65 L-164.0 -205.5 Q-165.9 -204.9 -168.25 -201.25 L-169.25 -194.4 -167.15 -185.65 -162.65 -177.65 -163.9 -174.9 -165.9 -163.65 -164.75 -151.4 -161.25 -141.25 -162.4 -138.4 -163.4 -127.15 -160.75 -116.65 -157.9 -112.5 -148.65 -107.15 -149.25 -99.9 Q-149.75 -100.75 -155.4 -101.25 L-200.75 -107.65 -228.15 -108.75 -220.9 -110.25 -214.9 -112.0 -208.25 -116.25 -201.65 -118.4 -196.75 -121.75 -190.9 -124.9 -181.75 -133.9 -176.75 -143.4 -175.25 -145.5 -170.15 -155.65 -168.15 -166.4 -170.15 -187.5 -175.9 -199.25 -183.65 -208.9 -195.4 -219.15 Q-222.4 -232.4 -238.4 -227.75 L-238.5 -229.4 -237.65 -230.65 -221.65 -265.4 -218.5 -265.0 -216.65 -267.4 -220.5 -267.65 -220.25 -268.4 -199.65 -270.5 -167.5 -259.25 -164.75 -258.25 -162.4 -251.75 M-246.0 -111.15 L-239.0 -109.15 -246.15 -109.4 -246.0 -111.15" fill="url(#gradient9)" fill-rule="evenodd" stroke="none"/>
    <path d="M-299.6 -120.5 L-294.5 -179.65 -294.65 -187.9 -293.15 -186.25 -292.75 -186.5 -290.0 -191.9 -281.5 -200.65 -268.9 -247.15 -224.4 -266.75 -221.65 -265.4 -237.65 -230.65 -238.5 -229.4 -238.4 -227.75 -253.65 -223.25 -262.4 -218.0 -269.65 -211.75 -276.25 -205.4 -283.0 -195.25 -287.25 -184.9 -289.4 -173.4 -289.25 -161.4 -286.75 -149.4 Q-280.9 -132.75 -265.65 -119.4 L-284.75 -128.75 -295.65 -126.4 Q-299.25 -123.85 -299.6 -120.5 M-220.5 -267.65 L-222.0 -267.75 -220.25 -268.4 -220.5 -267.65 M-251.9 -112.4 L-246.0 -111.15 -246.15 -109.4 -251.9 -112.4" fill="url(#gradient10)" fill-rule="evenodd" stroke="none"/>
    <path d="M-220.5 -267.65 L-216.65 -267.4 -218.5 -265.0 -221.65 -265.4 -224.4 -266.75 -224.75 -267.9 -222.0 -267.75 -220.5 -267.65" fill="url(#gradient11)" fill-rule="evenodd" stroke="none"/>
    <path d="M-300.4 -187.9 L-319.15 -177.65 -344.25 -170.75 -375.65 -152.5 -400.0 -144.65 -400.0 -207.5 -314.9 -244.4 -291.25 -265.9 -290.9 -265.9 -291.4 -237.5 -290.75 -235.25 -285.9 -203.65 -300.4 -187.9" fill="url(#gradient12)" fill-rule="evenodd" stroke="none"/>
    <path d="M-400.0 -207.5 L-400.0 -226.75 -368.65 -241.5 -334.25 -254.4 -300.65 -264.4 -291.25 -265.9 -314.9 -244.4 -400.0 -207.5" fill="url(#gradient13)" fill-rule="evenodd" stroke="none"/>
    <path d="M-238.4 -227.75 Q-222.4 -232.4 -195.4 -219.15 L-183.65 -208.9 -175.9 -199.25 -170.15 -187.5 -168.15 -166.4 -170.15 -155.65 -175.25 -145.5 -176.75 -143.4 -181.75 -133.9 -190.9 -124.9 -196.75 -121.75 -201.65 -118.4 -208.25 -116.25 -214.9 -112.0 -220.9 -110.25 -228.15 -108.75 -239.0 -109.15 -246.0 -111.15 -251.9 -112.4 -254.4 -113.0 -257.65 -114.5 -265.65 -119.4 Q-280.9 -132.75 -286.75 -149.4 L-289.25 -161.4 -289.4 -173.4 -287.25 -184.9 -283.0 -195.25 -276.25 -205.4 -269.65 -211.75 -262.4 -218.0 -253.65 -223.25 -238.4 -227.75" fill="url(#gradient14)" fill-rule="evenodd" stroke="none"/>
    <path d="M-146.9 -98.5 L-160.4 -40.15 -161.9 -0.9 -240.15 -0.9 -237.15 -44.15 -246.15 -109.4 -239.0 -109.15 -228.15 -108.75 -200.75 -107.65 -155.4 -101.25 Q-149.75 -100.75 -149.25 -99.9 L-148.65 -98.65 -147.4 -98.75 -146.9 -98.5" fill="url(#gradient15)" fill-rule="evenodd" stroke="none"/>
    <path d="M-240.15 -0.9 L-302.9 -0.9 -301.65 -19.15 -298.4 -47.25 -299.9 -116.65 -299.65 -120.25 -299.6 -120.4 -299.6 -120.5 Q-299.25 -123.85 -295.65 -126.4 L-284.75 -128.75 -265.65 -119.4 -257.65 -114.5 -254.4 -113.0 -251.9 -112.4 -246.15 -109.4 -237.15 -44.15 -240.15 -0.9" fill="url(#gradient16)" fill-rule="evenodd" stroke="none"/>
    <path d="M-158.75 -241.9 L-145.9 -230.15 -134.9 -210.25 -134.4 -197.4 -137.65 -199.9 -141.5 -201.65 -148.4 -214.25 -158.75 -241.9" fill="url(#gradient17)" fill-rule="evenodd" stroke="none"/>
    <path d="M-148.4 -214.25 L-141.5 -201.65 -144.5 -203.0 -148.4 -214.25" fill="url(#gradient18)" fill-rule="evenodd" stroke="none"/>
    <path d="M-117.15 -126.0 Q-126.5 -108.0 -146.0 -99.5 L-147.4 -98.75 -148.65 -98.65 -149.25 -99.9 -148.65 -107.15 -157.9 -112.5 -160.75 -116.65 -163.4 -127.15 -162.4 -138.4 -161.25 -141.25 -164.75 -151.4 -165.9 -163.65 -163.9 -174.9 -162.65 -177.65 -167.15 -185.65 -169.25 -194.4 -168.25 -201.25 Q-165.9 -204.9 -164.0 -205.5 L-158.15 -206.65 Q-151.0 -206.75 -144.5 -203.0 L-141.5 -201.65 -137.65 -199.9 -134.4 -197.4 Q-116.15 -183.0 -111.5 -161.9 L-110.65 -150.0 Q-110.75 -139.65 -115.4 -129.25 L-117.15 -126.0" fill="url(#gradient19)" fill-rule="evenodd" stroke="none"/>
    <path d="M-145.9 -230.15 L-123.75 -207.15 -134.9 -210.25 -145.9 -230.15" fill="url(#gradient20)" fill-rule="evenodd" stroke="none"/>
    <path d="M-92.65 -115.5 L-100.75 -118.25 -103.15 -119.5 -113.15 -127.15 -115.4 -129.25 Q-110.75 -139.65 -110.65 -150.0 L-111.5 -161.9 Q-116.15 -183.0 -134.4 -197.4 L-134.9 -210.25 -123.75 -207.15 -101.0 -185.0 -83.9 -170.9 -64.25 -152.9 -63.65 -152.25 -60.5 -149.25 -70.5 -131.25 -92.65 -115.5" fill="url(#gradient21)" fill-rule="evenodd" stroke="none"/>
    <path d="M-6.0 -221.65 L-5.9 -221.75 -5.9 -221.65 -6.0 -221.65 M-5.15 -221.75 L-1.4 -222.4 -0.9 -222.4 -0.9 -221.9 -5.15 -221.75" fill="url(#gradient22)" fill-rule="evenodd" stroke="none"/>
    <path d="M-7.4 -221.5 L-6.0 -221.65 -5.9 -221.65 -5.9 -221.75 -5.15 -221.75 -0.9 -221.9 -7.4 -221.5" fill="url(#gradient23)" fill-rule="evenodd" stroke="none"/>
    <path d="M-13.65 -220.9 L-10.75 -221.25 -7.5 -221.5 -7.4 -221.5 -0.9 -221.9 -0.9 -221.5 -4.5 -220.9 -10.5 -220.4 -12.75 -220.15 -13.65 -220.9" fill="url(#gradient24)" fill-rule="evenodd" stroke="none"/>
    <path d="M-0.9 -221.5 L-1.15 -213.0 -2.25 -212.9 -2.75 -212.75 -3.75 -212.65 -4.25 -212.65 -5.25 -212.5 -4.5 -220.9 -0.9 -221.5" fill="url(#gradient25)" fill-rule="evenodd" stroke="none"/>
    <path d="M-4.75 -220.65 L-8.0 -220.5 -10.5 -220.4 -4.5 -220.9 -4.75 -220.65 M-12.75 -220.15 L-10.5 -220.4 -10.5 -220.25 -12.75 -220.15" fill="url(#gradient26)" fill-rule="evenodd" stroke="none"/>
    <path d="M-8.0 -220.5 L-8.75 -219.75 -9.5 -219.65 -10.25 -219.65 -11.0 -219.5 -12.25 -219.5 -12.75 -220.15 -10.5 -220.25 -10.5 -220.4 -8.0 -220.5" fill="url(#gradient27)" fill-rule="evenodd" stroke="none"/>
    <path d="M-16.5 -221.65 L-16.0 -221.75 -14.75 -221.75 -13.65 -220.9 -12.75 -220.15 -12.25 -219.5 -11.0 -219.5 -10.25 -219.65 -9.5 -219.65 -8.75 -219.75 -8.0 -220.5 -4.75 -220.65 -6.75 -203.4 -7.9 -203.25 -5.9 -220.0 -6.4 -220.15 -8.65 -203.15 -9.4 -203.0 Q-8.25 -208.4 -9.15 -209.0 L-10.0 -202.9 -10.9 -202.75 Q-10.0 -208.4 -10.65 -209.0 L-11.4 -202.75 -12.25 -202.65 Q-11.15 -208.65 -12.15 -209.25 L-12.9 -202.5 -14.0 -202.4 Q-12.65 -208.5 -13.65 -209.15 L-14.5 -202.25 -15.65 -202.15 Q-14.4 -208.75 -15.4 -209.5 L-16.15 -202.0 -17.25 -201.9 -20.4 -201.4 -18.4 -214.65 -17.15 -215.9 -16.9 -216.75 -17.0 -218.0 -17.4 -218.0 -17.15 -218.75 -16.25 -218.9 -16.5 -221.65 M-0.9 -211.0 L-0.9 -204.25 -1.75 -204.25 -0.9 -211.0 M-21.9 -204.75 L-24.9 -212.25 -25.15 -212.75 -24.65 -213.65 -24.9 -212.9 -24.25 -212.9 -24.9 -212.25 -24.5 -212.0 -24.15 -212.4 -22.9 -212.25 -24.25 -212.5 -23.5 -212.65 -23.0 -213.5 -21.9 -213.75 -21.25 -213.75 -22.4 -213.4 -22.25 -213.0 -20.15 -213.0 -21.9 -204.75 M-17.25 -201.9 L-16.0 -210.25 -16.5 -210.4 Q-18.4 -202.9 -17.25 -201.9 M-22.5 -210.25 L-23.0 -210.5 -23.75 -210.25 -22.5 -210.25 M-22.5 -209.4 L-22.5 -209.75 -23.0 -209.75 -22.5 -209.4 M-5.25 -212.5 L-4.25 -212.65 -5.4 -203.65 -5.75 -203.5 -6.25 -203.5 -5.25 -212.5 M-3.75 -212.65 L-2.75 -212.75 -2.9 -210.0 -4.0 -203.75 -4.9 -203.75 -3.75 -212.65 M-2.25 -212.9 L-1.15 -213.0 -2.4 -204.0 -3.25 -204.0 -2.25 -212.9 M-9.15 -210.4 L-8.65 -210.0 -8.25 -210.75 -9.15 -210.4" fill="url(#gradient28)" fill-rule="evenodd" stroke="none"/>
    <path d="M-6.75 -203.4 L-4.75 -220.65 -4.5 -220.9 -5.25 -212.5 -6.25 -203.5 -6.75 -203.4" fill="url(#gradient29)" fill-rule="evenodd" stroke="none"/>
    <path d="M-4.25 -212.65 L-3.75 -212.65 -4.9 -203.75 -5.4 -203.65 -4.25 -212.65" fill="url(#gradient30)" fill-rule="evenodd" stroke="none"/>
    <path d="M-0.9 -204.25 L-0.9 -201.75 -1.25 -201.65 -1.25 -201.0 -2.0 -200.75 -2.0 -200.15 -2.75 -199.4 -7.5 -198.75 -8.0 -199.9 -8.4 -199.9 -8.4 -200.5 -8.9 -200.75 -8.65 -203.15 -7.9 -203.25 -6.75 -203.4 -6.25 -203.5 -5.75 -203.5 -5.4 -203.65 -4.9 -203.75 -4.0 -203.75 -3.25 -204.0 -2.4 -204.0 -1.75 -204.25 -0.9 -204.25" fill="url(#gradient31)" fill-rule="evenodd" stroke="none"/>
    <path d="M-2.75 -212.75 L-2.25 -212.9 -3.25 -204.0 -4.0 -203.75 -2.9 -210.0 -2.75 -212.75" fill="url(#gradient32)" fill-rule="evenodd" stroke="none"/>
    <path d="M-30.9 -217.75 L-30.75 -220.4 -28.9 -220.75 -27.75 -220.75 -27.25 -220.9 -26.15 -220.9 -25.65 -221.0 -24.65 -221.0 -24.0 -221.15 -23.0 -221.15 -22.25 -221.25 -21.4 -221.25 -20.65 -221.4 -19.75 -221.4 -19.0 -221.5 -18.15 -221.5 -17.4 -221.65 -16.5 -221.65 -16.25 -218.9 -17.15 -218.75 -18.0 -218.75 -18.5 -218.65 -19.75 -218.65 -20.15 -218.5 -21.65 -218.5 -21.9 -218.4 -23.4 -218.4 -23.65 -218.25 -28.5 -218.0 -28.9 -217.9 -30.25 -217.9 -30.75 -217.75 -30.9 -217.75" fill="url(#gradient33)" fill-rule="evenodd" stroke="none"/>
    <path d="M-31.9 -216.9 L-31.5 -217.75 -30.9 -217.75 -30.75 -217.75 -30.25 -217.9 -28.9 -217.9 -28.5 -218.0 -23.65 -218.25 -23.4 -218.4 -21.9 -218.4 -21.65 -218.5 -20.15 -218.5 -19.75 -218.65 -18.5 -218.65 -18.0 -218.75 -17.15 -218.75 -17.4 -218.0 -17.65 -217.9 -31.9 -216.9" fill="url(#gradient34)" fill-rule="evenodd" stroke="none"/>
    <path d="M-17.4 -218.0 L-17.0 -218.0 -16.9 -216.75 -17.15 -215.9 -18.4 -214.65 -20.4 -201.4 -20.65 -201.25 -21.0 -201.4 -19.9 -208.65 -19.65 -213.6 -19.65 -213.65 -19.65 -213.75 -19.65 -214.4 -17.65 -217.9 -17.4 -218.0" fill="url(#gradient35)" fill-rule="evenodd" stroke="none"/>
    <path d="M-34.4 -213.25 L-33.0 -216.25 -32.65 -216.75 -31.9 -216.9 -17.65 -217.9 -19.65 -214.4 -20.0 -214.25 -33.65 -213.4 -34.4 -213.25" fill="url(#gradient36)" fill-rule="evenodd" stroke="none"/>
    <path d="M-23.65 -213.75 L-23.9 -213.9 -24.4 -213.9 -34.4 -213.25 -33.65 -213.4 -20.0 -214.25 -19.65 -214.4 -19.75 -214.0 -20.15 -214.0 -23.65 -213.75" fill="url(#gradient37)" fill-rule="evenodd" stroke="none"/>
    <path d="M-38.9 -212.75 L-34.4 -213.25 -24.4 -213.9 -24.65 -213.65 -38.9 -212.75" fill="url(#gradient38)" fill-rule="evenodd" stroke="none"/>
    <path d="M-23.65 -213.75 L-23.0 -213.5 -23.5 -212.65 -24.25 -212.5 -22.9 -212.25 -24.15 -212.4 -24.5 -212.0 -24.9 -212.25 -24.25 -212.9 -24.9 -212.9 -24.65 -213.65 -24.4 -213.9 -23.9 -213.9 -23.65 -213.75 M-21.25 -213.75 L-20.9 -213.75 -20.15 -214.0 -19.75 -214.0 -19.65 -213.75 -19.65 -213.65 -19.65 -213.6 -20.0 -213.4 -20.15 -213.0 -22.25 -213.0 -22.4 -213.4 -21.25 -213.75 M-22.5 -209.4 L-23.0 -209.75 -22.5 -209.75 -22.5 -209.4 M-22.5 -210.25 L-23.75 -210.25 -23.0 -210.5 -22.5 -210.25" fill="url(#gradient39)" fill-rule="evenodd" stroke="none"/>
    <path d="M-36.65 -204.4 L-36.65 -204.75 -39.25 -211.0 -39.4 -212.4 -38.9 -212.75 -24.65 -213.65 -25.15 -212.75 -24.9 -212.25 -21.9 -204.75 -36.0 -204.0 -36.65 -204.4" fill="url(#gradient40)" fill-rule="evenodd" stroke="none"/>
    <path d="M-19.65 -214.4 L-19.65 -213.75 -19.75 -214.0 -19.65 -214.4 M-19.65 -213.6 L-19.9 -208.65 -21.0 -201.4 -21.5 -201.4 -22.4 -202.15 -21.9 -204.75 -20.15 -213.0 -20.0 -213.4 -19.65 -213.6" fill="url(#gradient41)" fill-rule="evenodd" stroke="none"/>
    <path d="M-23.0 -213.5 L-23.65 -213.75 -20.15 -214.0 -20.9 -213.75 -21.25 -213.75 -21.9 -213.75 -23.0 -213.5" fill="url(#gradient42)" fill-rule="evenodd" stroke="none"/>
    <path d="M-1.15 -213.0 L-0.9 -211.0 -1.75 -204.25 -2.4 -204.0 -1.15 -213.0" fill="url(#gradient43)" fill-rule="evenodd" stroke="none"/>
    <path d="M-9.15 -210.4 L-8.25 -210.75 -8.65 -210.0 -9.15 -210.4" fill="url(#gradient44)" fill-rule="evenodd" stroke="none"/>
    <path d="M-37.25 -201.65 L-36.65 -204.4 -36.0 -204.0 -21.9 -204.75 -22.4 -202.15 -23.0 -202.15 -24.5 -202.15 -25.25 -202.0 -27.5 -202.0 -28.25 -201.9 -30.5 -201.9 -31.25 -201.75 -33.5 -201.75 -34.25 -201.65 -36.75 -201.65 -37.25 -201.65" fill="url(#gradient45)" fill-rule="evenodd" stroke="none"/>
    <path d="M-37.15 -201.4 L-37.25 -201.65 -36.75 -201.65 -37.15 -201.4 M-23.0 -202.15 L-22.4 -202.15 -21.5 -201.4 -22.15 -201.4 -23.0 -202.15" fill="url(#gradient46)" fill-rule="evenodd" stroke="none"/>
    <path d="M-43.5 -196.25 L-42.15 -198.0 -37.15 -201.4 -36.75 -201.65 -34.25 -201.65 -33.5 -201.75 -31.25 -201.75 -30.5 -201.9 -28.25 -201.9 -27.5 -202.0 -25.25 -202.0 -24.5 -202.15 -23.0 -202.15 -28.4 -198.5 -29.75 -196.65 -43.5 -196.25" fill="url(#gradient47)" fill-rule="evenodd" stroke="none"/>
    <path d="M-8.65 -203.15 L-6.4 -220.15 -5.9 -220.0 -7.9 -203.25 -8.65 -203.15" fill="url(#gradient48)" fill-rule="evenodd" stroke="none"/>
    <path d="M-0.9 -201.75 L-0.9 -177.5 Q-4.65 -182.0 -9.4 -179.25 -10.0 -179.9 -14.15 -178.65 L-19.0 -177.15 -17.65 -187.65 -17.75 -189.5 Q-18.0 -196.15 -23.4 -196.5 L-22.15 -196.75 -21.25 -196.4 -19.15 -194.9 Q-16.65 -192.4 -17.25 -186.65 L-16.0 -186.75 Q-14.65 -196.0 -19.4 -198.9 L-22.0 -199.65 -23.4 -198.15 Q-29.0 -197.9 -29.4 -196.9 L-29.9 -195.5 -29.75 -196.65 -28.4 -198.5 -23.0 -202.15 -22.15 -201.4 -21.5 -201.4 -20.65 -201.25 -20.4 -201.4 -17.25 -201.9 -16.15 -202.0 -15.65 -202.15 -14.5 -202.25 -14.0 -202.4 -12.9 -202.5 -12.25 -202.65 -11.4 -202.75 -10.9 -202.75 -10.0 -202.9 -9.4 -203.0 -8.65 -203.15 -8.9 -200.75 -8.4 -200.5 -8.4 -199.9 -8.0 -199.9 -7.5 -198.75 -2.75 -199.4 -2.0 -200.15 -2.0 -200.75 -1.25 -201.0 -1.25 -201.65 -0.9 -201.75" fill="url(#gradient49)" fill-rule="evenodd" stroke="none"/>
    <path d="M-10.0 -202.9 L-9.15 -209.0 Q-8.25 -208.4 -9.4 -203.0 L-10.0 -202.9" fill="url(#gradient50)" fill-rule="evenodd" stroke="none"/>
    <path d="M-11.4 -202.75 L-10.65 -209.0 Q-10.0 -208.4 -10.9 -202.75 L-11.4 -202.75" fill="url(#gradient51)" fill-rule="evenodd" stroke="none"/>
    <path d="M-12.9 -202.5 L-12.15 -209.25 Q-11.15 -208.65 -12.25 -202.65 L-12.9 -202.5" fill="url(#gradient52)" fill-rule="evenodd" stroke="none"/>
    <path d="M-14.5 -202.25 L-13.65 -209.15 Q-12.65 -208.5 -14.0 -202.4 L-14.5 -202.25" fill="url(#gradient53)" fill-rule="evenodd" stroke="none"/>
    <path d="M-16.15 -202.0 L-15.4 -209.5 Q-14.4 -208.75 -15.65 -202.15 L-16.15 -202.0" fill="url(#gradient54)" fill-rule="evenodd" stroke="none"/>
    <path d="M-17.25 -201.9 Q-18.4 -202.9 -16.5 -210.4 L-16.0 -210.25 -17.25 -201.9" fill="url(#gradient55)" fill-rule="evenodd" stroke="none"/>
    <path d="M-34.4 -195.4 L-35.5 -195.4 -36.4 -195.25 -39.75 -195.25 -40.65 -195.15 -43.65 -195.15 -43.5 -196.25 -29.75 -196.65 -29.9 -195.5 -31.25 -195.5 -32.0 -195.4 -34.4 -195.4" fill="url(#gradient56)" fill-rule="evenodd" stroke="none"/>
    <path d="M-21.0 -201.4 L-20.65 -201.25 -21.5 -201.4 -21.0 -201.4" fill="url(#gradient57)" fill-rule="evenodd" stroke="none"/>
    <path d="M-296.0 -189.5 L-300.4 -187.9 -285.9 -203.65 -281.5 -200.65 -290.0 -191.9 -296.0 -189.5" fill="url(#gradient58)" fill-rule="evenodd" stroke="none"/>
    <path d="M-294.65 -187.9 L-294.75 -188.15 -296.0 -189.5 -290.0 -191.9 -292.75 -186.5 -293.15 -186.25 -294.65 -187.9" fill="url(#gradient59)" fill-rule="evenodd" stroke="none"/>
    <path d="M-29.9 -195.5 L-29.4 -196.9 Q-29.0 -197.9 -23.4 -198.15 L-22.0 -199.65 -19.4 -198.9 Q-14.65 -196.0 -16.0 -186.75 L-17.25 -186.65 Q-16.65 -192.4 -19.15 -194.9 L-21.25 -196.4 -22.15 -196.75 -23.4 -196.5 -23.5 -196.5 -24.0 -196.4 -24.4 -196.4 -24.75 -196.25 -29.9 -195.5" fill="url(#gradient60)" fill-rule="evenodd" stroke="none"/>
    <path d="M-31.4 -189.25 L-32.25 -193.0 -34.4 -195.4 -32.0 -195.4 -31.25 -195.5 -29.9 -195.5 -24.75 -196.25 -24.4 -196.4 -24.0 -196.4 -23.5 -196.5 -23.4 -196.5 Q-18.0 -196.15 -17.75 -189.5 L-31.4 -189.25" fill="url(#gradient61)" fill-rule="evenodd" stroke="none"/>
    <path d="M-31.65 -185.4 L-31.4 -189.25 -17.75 -189.5 -17.65 -187.65 -19.0 -177.15 -25.4 -176.4 -27.9 -174.9 -33.0 -174.9 -32.9 -176.25 -32.9 -176.5 -31.65 -185.4" fill="url(#gradient62)" fill-rule="evenodd" stroke="none"/>
    <path d="M-33.65 -176.25 L-32.25 -185.4 -31.65 -185.4 -32.9 -176.5 -32.9 -176.25 -33.65 -176.25" fill="url(#gradient63)" fill-rule="evenodd" stroke="none"/>
    <path d="M-34.9 -171.0 L-33.65 -176.25 -32.9 -176.25 -33.0 -174.9 -33.9 -171.5 -34.9 -171.0" fill="url(#gradient64)" fill-rule="evenodd" stroke="none"/>
    <path d="M-64.25 -152.9 L-46.25 -165.0 -34.9 -171.0 -33.9 -171.5 -27.9 -174.9 -25.4 -176.4 -19.0 -177.15 -14.15 -178.65 Q-10.0 -179.9 -9.4 -179.25 L-6.75 -177.75 -5.4 -176.5 -4.15 -176.25 -2.4 -175.15 -14.4 -169.4 -27.15 -162.0 -38.4 -154.15 -50.15 -147.4 -59.4 -152.0 -63.65 -152.25 -64.25 -152.9" fill="url(#gradient65)" fill-rule="evenodd" stroke="none"/>
    <path d="M-33.0 -174.9 L-27.9 -174.9 -33.9 -171.5 -33.0 -174.9" fill="url(#gradient66)" fill-rule="evenodd" stroke="none"/>
    <path d="M-0.9 -177.5 L-0.9 -165.65 -1.25 -166.4 -2.4 -175.15 -4.15 -176.25 -5.4 -176.5 -6.75 -177.75 -9.4 -179.25 Q-4.65 -182.0 -0.9 -177.5" fill="url(#gradient67)" fill-rule="evenodd" stroke="none"/>
    <path d="M-0.9 -165.65 L-1.0 -154.4 -8.25 -151.0 Q-9.0 -146.9 -31.75 -135.9 L-38.4 -154.15 -27.15 -162.0 -14.4 -169.4 -2.4 -175.15 -1.25 -166.4 -0.9 -165.65" fill="url(#gradient68)" fill-rule="evenodd" stroke="none"/>
    <path d="M-38.4 -154.15 L-31.75 -135.9 -50.15 -147.4 -38.4 -154.15" fill="url(#gradient69)" fill-rule="evenodd" stroke="none"/>
    <path d="M-50.15 -147.4 L-60.5 -149.25 -63.65 -152.25 -59.4 -152.0 -50.15 -147.4" fill="url(#gradient70)" fill-rule="evenodd" stroke="none"/>
    <path d="M-31.75 -135.9 L-40.0 -128.0 -63.15 -113.9 -72.25 -107.9 -92.65 -115.5 -70.5 -131.25 -60.5 -149.25 -50.15 -147.4 -31.75 -135.9" fill="url(#gradient71)" fill-rule="evenodd" stroke="none"/>
    <path d="M-103.15 -119.5 L-114.5 -125.5 -117.15 -126.0 -115.4 -129.25 -113.15 -127.15 -103.15 -119.5" fill="url(#gradient72)" fill-rule="evenodd" stroke="none"/>
    <path d="M-400.0 -94.15 L-400.0 -127.65 -399.65 -127.5 -397.25 -114.75 -385.9 -94.75 -400.0 -94.15" fill="url(#gradient73)" fill-rule="evenodd" stroke="none"/>
    <path d="M-385.9 -94.75 L-347.5 -49.75 -333.5 -29.65 -321.25 -14.4 -313.65 -1.0 -371.4 -0.9 -398.25 -32.65 -399.9 -34.15 -400.0 -94.15 -385.9 -94.75" fill="url(#gradient74)" fill-rule="evenodd" stroke="none"/>
    <path d="M-371.4 -0.9 L-392.4 -0.9 -393.4 -2.4 -400.0 -9.4 -399.9 -34.15 -398.25 -32.65 -371.4 -0.9" fill="url(#gradient75)" fill-rule="evenodd" stroke="none"/>
    <path d="M-155.25 -259.25 L-151.0 -255.75 -154.65 -254.5 -160.15 -258.75 -156.9 -259.0 -156.4 -259.15 -155.25 -259.25 M-136.4 -220.4 L-136.15 -219.9 -126.4 -207.9 -126.0 -207.65 -122.75 -203.75 -122.4 -203.0 -120.75 -201.5 -119.75 -199.9 -109.5 -188.0 -100.9 -167.75 -114.65 -168.0 -115.15 -169.15 -115.0 -170.5 -115.4 -172.5 -115.75 -173.25 -115.5 -173.4 -116.0 -174.75 -115.75 -175.0 -116.25 -176.4 -118.25 -188.5 -133.75 -208.4 -134.75 -209.9 -135.0 -210.0 -135.0 -210.25 -135.25 -210.65 -135.25 -210.75 -141.15 -218.15 -141.5 -218.5 -141.5 -218.65 -144.0 -221.9 -145.0 -228.25 -145.5 -229.65 -136.4 -220.4 M-231.25 -282.15 L-231.65 -282.15 -233.25 -281.15 -233.5 -280.75 -235.15 -279.4 -236.9 -277.5 -237.25 -277.25 -239.0 -275.5 -239.0 -275.25 -241.9 -271.9 -242.65 -270.75 -245.25 -268.65 -245.65 -268.25 -254.25 -268.15 -254.5 -270.25 -254.0 -271.0 -254.0 -271.15 -252.65 -272.15 -251.15 -273.65 -248.65 -277.15 -243.5 -282.9 -234.4 -288.75 -231.15 -282.4 -231.25 -282.15 M-165.0 -262.75 L-164.9 -262.5 -160.15 -258.75 -164.75 -258.25 -165.65 -258.5 -172.75 -261.5 -165.4 -263.0 -165.0 -262.75" fill="#9b0000" fill-opacity="0.9098039" fill-rule="evenodd" stroke="none"/>
    <path d="M-234.4 -288.75 L-225.5 -286.0 -226.5 -285.65 -226.65 -285.25 -231.15 -282.4 -234.4 -288.75" fill="#ac0000" fill-rule="evenodd" stroke="none"/>
    <path d="M-253.75 -206.25 L-216.4 -214.0 -216.0 -214.0 -215.4 -214.15 -213.0 -214.5 -212.9 -214.65 -212.5 -214.65 -211.25 -215.15 -216.65 -225.5 -216.75 -225.75 -217.65 -227.4 -217.75 -227.5 -229.0 -249.25 -228.65 -250.5 -228.9 -264.65 -228.75 -264.9 -229.0 -277.5 -228.9 -278.4 -230.9 -282.15 -231.25 -282.15 -231.15 -282.4 -226.65 -285.25 -226.5 -285.65 -225.5 -286.0 -221.0 -277.4 -220.65 -277.0 -220.15 -275.65 -219.9 -275.5 -219.5 -268.65 -219.65 -267.5 -219.5 -267.5 -218.75 -246.0 -206.5 -223.5 -206.25 -223.15 -206.25 -223.0 -200.4 -212.5 -196.15 -173.5 -206.75 -179.65 -207.15 -179.75 -214.9 -184.15 -215.0 -184.4 -232.9 -194.65 -233.4 -194.75 -251.9 -205.4 -253.75 -206.25" fill="#9e0000" fill-opacity="0.9098039" fill-rule="evenodd" stroke="none"/>
    <path d="M-294.75 -180.0 L-294.65 -180.25 -294.25 -180.25 -293.75 -180.65 -293.65 -180.75 -287.25 -184.75 -287.0 -185.15 -287.0 -185.25 -286.15 -185.65 -286.15 -185.75 -281.25 -188.65 -280.9 -189.15 -280.5 -189.15 -280.5 -189.5 -278.4 -190.65 Q-278.05 -190.75 -277.75 -190.9 L-262.0 -201.0 -261.65 -201.5 -253.75 -206.25 -254.9 -198.5 -255.0 -198.25 -258.9 -172.75 -259.0 -172.5 -260.65 -161.5 -259.5 -137.9 -259.15 -136.25 -258.75 -127.9 -259.0 -126.65 -258.5 -121.25 -258.5 -119.0 -258.4 -118.65 -258.5 -117.5 -258.25 -116.75 -258.4 -114.9 -258.75 -115.15 -284.0 -126.65 -284.4 -126.75 -284.4 -126.9 -297.65 -132.9 -297.65 -133.0 -297.75 -133.15 -298.25 -133.25 -298.65 -133.4 -298.75 -133.65 -297.0 -150.4 -297.0 -150.75 -296.9 -151.15 -296.25 -159.0 -296.15 -159.4 -296.15 -160.15 -296.0 -160.75 -296.0 -161.25 -294.5 -179.9 -294.75 -180.0" fill="#da0000" fill-opacity="0.9098039" fill-rule="evenodd" stroke="none"/>
    <path d="M-319.5 -128.15 L-321.4 -133.4 -319.15 -148.4 -302.5 -174.9 -294.75 -180.0 -294.5 -179.9 -296.0 -161.25 -296.0 -160.75 -296.15 -160.15 -296.15 -159.4 -296.25 -159.0 -296.9 -151.15 -297.0 -150.75 -297.0 -150.4 -298.75 -133.65 -306.15 -136.75 -317.9 -133.9 -319.5 -129.5 -319.5 -128.15" fill="#f00000" fill-opacity="0.9098039" fill-rule="evenodd" stroke="none"/>
    <path d="M-319.5 -128.15 L-319.5 -129.5 -317.9 -133.9 -306.15 -136.75 -298.75 -133.65 -298.65 -133.4 -298.65 -131.0 -298.75 -130.25 -298.75 -129.65 -298.9 -129.15 -299.65 -120.25 -299.75 -108.0 -318.4 -124.0 -319.5 -128.15" fill="#f50000" fill-opacity="0.9098039" fill-rule="evenodd" stroke="none"/>
    <path d="M-100.9 -167.75 L-101.0 -167.5 -111.25 -158.4 -110.75 -150.15 -110.65 -149.65 -112.0 -139.65 -115.4 -129.25 -115.5 -129.0 -115.75 -128.65 -117.15 -126.0 -121.25 -119.25 -121.5 -118.9 -129.0 -110.5 -138.0 -103.75 -138.25 -103.65 -138.25 -103.5 -139.0 -103.0 -139.65 -103.0 -140.0 -103.15 -140.4 -103.15 -148.9 -104.15 -149.5 -104.15 -180.15 -107.75 -199.65 -111.75 -205.25 -112.4 -217.4 -112.9 -217.75 -113.0 -220.25 -113.0 -221.15 -113.15 -222.25 -113.15 -223.0 -113.25 -227.25 -113.15 -227.65 -113.25 -245.5 -114.15 -245.9 -114.25 -246.9 -114.15 -257.9 -114.75 -258.4 -114.9 -258.25 -116.75 -258.5 -117.5 -258.4 -118.65 -258.5 -119.0 -258.5 -121.25 -259.0 -126.65 -258.75 -127.9 -259.15 -136.25 -259.5 -137.9 -260.65 -161.5 -259.0 -172.5 -258.9 -172.75 -255.0 -198.25 -254.9 -198.5 -253.75 -206.25 -251.9 -205.4 -233.4 -194.75 -232.9 -194.65 -215.0 -184.4 -214.9 -184.15 -207.15 -179.75 -206.75 -179.65 -196.15 -173.5 -192.25 -167.65 -192.15 -167.0 -189.9 -163.5 -189.65 -163.25 -179.75 -147.5 -179.75 -147.15 -179.15 -146.65 -177.0 -143.15 -177.0 -142.75 -176.4 -142.25 -167.65 -128.4 -167.65 -128.0 -165.75 -125.15 -153.5 -130.65 -153.25 -130.9 -131.5 -140.75 -131.4 -141.0 -120.25 -146.0 -118.5 -152.9 -118.65 -153.25 -118.4 -153.5 -115.9 -163.15 -115.75 -164.5 -115.25 -165.5 -115.4 -165.75 -114.65 -168.0 -100.9 -167.75 M-218.5 -149.25 L-220.25 -142.0 -220.15 -141.9 -220.15 -141.75 -219.9 -141.4 -219.0 -141.9 -219.0 -142.15 -218.5 -149.25 M-119.5 -133.5 L-119.65 -133.75 -120.5 -132.65 -120.65 -132.25 -120.9 -132.0 -120.75 -131.75 -121.15 -130.5 -120.65 -130.9 -120.15 -131.0 -119.65 -132.15 -119.65 -132.75 -119.5 -133.5" fill="#b00000" fill-opacity="0.9098039" fill-rule="evenodd" stroke="none"/>
    <path d="M-248.9 -0.9 L-302.9 -0.9 -301.5 -17.5 -301.5 -20.5 -301.4 -21.4 -301.25 -21.75 -301.25 -21.9 -298.4 -47.4 -299.75 -108.0 -299.65 -120.25 -298.9 -129.15 -298.75 -129.65 -298.75 -130.25 -298.65 -131.0 -298.65 -133.4 -298.25 -133.25 -297.75 -133.15 -297.65 -133.0 -297.65 -132.9 -284.4 -126.9 -284.4 -126.75 -284.0 -126.65 -258.75 -115.15 -258.4 -114.9 -253.9 -89.0 -254.0 -88.15 -246.15 -41.4 -248.65 -4.9 -248.75 -4.5 -248.65 -3.5 -248.9 -0.9" fill="#de0000" fill-opacity="0.9098039" fill-rule="evenodd" stroke="none"/>
    <path d="M-155.25 -259.25 L-156.4 -259.15 -156.9 -259.0 -160.15 -258.75 -164.9 -262.5 -165.0 -262.75 -155.75 -259.5 -155.25 -259.25" fill="#a90000" fill-rule="evenodd" stroke="none"/>
    <path d="M-154.65 -254.5 L-151.0 -255.75 -141.5 -248.0 -136.4 -220.4 -145.5 -229.65 -148.9 -249.75 -154.65 -254.5" fill="#ab0000" fill-opacity="0.9098039" fill-rule="evenodd" stroke="none"/>
    <path d="M-101.0 -167.5 L-100.9 -164.25 -100.5 -163.15 -100.65 -157.65 -100.5 -157.4 -100.0 -145.75 -100.15 -145.25 -99.65 -135.0 -107.0 -121.4 -114.5 -125.5 -117.15 -126.0 -115.75 -128.65 -115.5 -129.0 -115.4 -129.25 -112.0 -139.65 -110.65 -149.65 -110.75 -150.15 -111.25 -158.4 -101.0 -167.5" fill="#c40000" fill-rule="evenodd" stroke="none"/>
    <path d="M-107.0 -121.4 L-120.0 -97.9 -139.0 -103.0 -138.25 -103.5 -138.25 -103.65 -138.0 -103.75 -129.0 -110.5 -121.5 -118.9 -121.25 -119.25 -117.15 -126.0 -114.5 -125.5 -107.0 -121.4" fill="#c60000" fill-rule="evenodd" stroke="none"/>
    <path d="M-161.9 -0.9 L-248.9 -0.9 -248.65 -3.5 -248.75 -4.5 -248.65 -4.9 -246.15 -41.4 -254.0 -88.15 -253.9 -89.0 -258.4 -114.9 -257.9 -114.75 -246.9 -114.15 -245.9 -114.25 -245.5 -114.15 -227.65 -113.25 -227.25 -113.15 -223.0 -113.25 -222.25 -113.15 -221.15 -113.15 -220.25 -113.0 -217.75 -113.0 -217.4 -112.9 -205.25 -112.4 -199.65 -111.75 -180.15 -107.75 -149.5 -104.15 -148.9 -104.15 -140.4 -103.15 -140.0 -103.15 -139.65 -103.0 -139.0 -103.0 -142.65 -101.15 -143.25 -100.9 -146.25 -99.25 -146.65 -98.9 -146.9 -98.5 -160.4 -40.0 -161.65 -12.25 -161.5 -10.65 -161.75 -9.9 -161.5 -9.0 -161.9 -0.9" fill="#a70000" fill-opacity="0.9098039" fill-rule="evenodd" stroke="none"/>
    <path d="M-302.9 -0.9 L-313.65 -0.9 -320.65 -13.4 -316.75 -45.0 -319.25 -126.4 -319.5 -128.15 -318.4 -124.0 -299.75 -108.0 -298.4 -47.4 -301.25 -21.9 -301.25 -21.75 -301.4 -21.4 -301.5 -20.5 -301.5 -17.5 -302.9 -0.9" fill="#ef0000" fill-rule="evenodd" stroke="none"/>
    <path d="M-120.0 -97.9 L-148.0 -37.15 -148.5 -34.5 -149.65 -0.9 -161.9 -0.9 -161.5 -9.0 -161.75 -9.9 -161.5 -10.65 -161.65 -12.25 -160.4 -40.0 -146.9 -98.5 -146.65 -98.9 -146.25 -99.25 -143.25 -100.9 -142.65 -101.15 -139.0 -103.0 -120.0 -97.9" fill="#bd0000" fill-rule="evenodd" stroke="none"/>
  </g>
  <defs>
    <radialGradient cx="0" cy="0" gradientTransform="matrix(0.1521, 0.0, 0.0, 0.1521, -190.65, -281.95)" gradientUnits="userSpaceOnUse" id="gradient0" r="819.2" spreadMethod="pad">
      <stop offset="0.0" stop-color="#484848"/>
      <stop offset="1.0" stop-color="#1e1e1e"/>
    </radialGradient>
    <radialGradient cx="0" cy="0" gradientTransform="matrix(0.1565, 0.0, 0.0, 0.1565, -162.2, -297.3)" gradientUnits="userSpaceOnUse" id="gradient1" r="819.2" spreadMethod="pad">
      <stop offset="0.0" stop-color="#7d7d7d"/>
      <stop offset="1.0" stop-color="#000000"/>
    </radialGradient>
    <radialGradient cx="0" cy="0" gradientTransform="matrix(0.065, 0.0, 0.0, 0.065, -220.2, -268.65)" gradientUnits="userSpaceOnUse" id="gradient2" r="819.2" spreadMethod="pad">
      <stop offset="0.0" stop-color="#000000"/>
      <stop offset="1.0" stop-color="#000000"/>
    </radialGradient>
    <radialGradient cx="0" cy="0" gradientTransform="matrix(0.0842, 0.0, 0.0, 0.0842, -281.55, -200.6)" gradientUnits="userSpaceOnUse" id="gradient3" r="819.2" spreadMethod="pad">
      <stop offset="0.0" stop-color="#171717"/>
      <stop offset="1.0" stop-color="#000000"/>
    </radialGradient>
    <radialGradient cx="0" cy="0" gradientTransform="matrix(0.0287, 0.0, 0.0, 0.0287, -267.6, -268.1)" gradientUnits="userSpaceOnUse" id="gradient4" r="819.2" spreadMethod="pad">
      <stop offset="0.0" stop-color="#000000"/>
      <stop offset="1.0" stop-color="#000000"/>
    </radialGradient>
    <radialGradient cx="0" cy="0" gradientTransform="matrix(0.0295, 0.0, 0.0, 0.0295, -300.9, -300.0)" gradientUnits="userSpaceOnUse" id="gradient5" r="819.2" spreadMethod="pad">
      <stop offset="0.0" stop-color="#090909"/>
      <stop offset="1.0" stop-color="#080808"/>
    </radialGradient>
    <radialGradient cx="0" cy="0" gradientTransform="matrix(0.0363, 0.0, 0.0, 0.0363, -192.45, -269.5)" gradientUnits="userSpaceOnUse" id="gradient6" r="819.2" spreadMethod="pad">
      <stop offset="0.0" stop-color="#000000"/>
      <stop offset="1.0" stop-color="#000000"/>
    </radialGradient>
    <radialGradient cx="0" cy="0" gradientTransform="matrix(0.0559, 0.0, 0.0, 0.0559, -190.55, -283.85)" gradientUnits="userSpaceOnUse" id="gradient7" r="819.2" spreadMethod="pad">
      <stop offset="0.0" stop-color="#797979"/>
      <stop offset="1.0" stop-color="#000000"/>
    </radialGradient>
    <radialGradient cx="0" cy="0" gradientTransform="matrix(0.059, 0.0, 0.0, 0.059, -272.2, -255.8)" gradientUnits="userSpaceOnUse" id="gradient8" r="819.2" spreadMethod="pad">
      <stop offset="0.0" stop-color="#3c3c3c"/>
      <stop offset="1.0" stop-color="#0a0a0a"/>
    </radialGradient>
    <radialGradient cx="0" cy="0" gradientTransform="matrix(0.1988, 0.0, 0.0, 0.1988, -200.95, -107.7)" gradientUnits="userSpaceOnUse" id="gradient9" r="819.2" spreadMethod="pad">
      <stop offset="0.0" stop-color="#6a6a6a"/>
      <stop offset="1.0" stop-color="#000000"/>
    </radialGradient>
    <radialGradient cx="0" cy="0" gradientTransform="matrix(0.1877, 0.0, 0.0, 0.1877, -284.35, -128.85)" gradientUnits="userSpaceOnUse" id="gradient10" r="819.2" spreadMethod="pad">
      <stop offset="0.0" stop-color="#626262"/>
      <stop offset="1.0" stop-color="#000000"/>
    </radialGradient>
    <radialGradient cx="0" cy="0" gradientTransform="matrix(0.1498, 0.0, 0.0, 0.1498, -252.25, -153.95)" gradientUnits="userSpaceOnUse" id="gradient11" r="819.2" spreadMethod="pad">
      <stop offset="0.0" stop-color="#323232"/>
      <stop offset="1.0" stop-color="#000000"/>
    </radialGradient>
    <radialGradient cx="0" cy="0" gradientTransform="matrix(0.1403, 0.0, 0.0, 0.1403, -352.15, -168.7)" gradientUnits="userSpaceOnUse" id="gradient12" r="819.2" spreadMethod="pad">
      <stop offset="0.0" stop-color="#6a6a6a"/>
      <stop offset="1.0" stop-color="#000000"/>
    </radialGradient>
    <radialGradient cx="0" cy="0" gradientTransform="matrix(0.1413, 0.0, 0.0, 0.1413, -299.35, -264.75)" gradientUnits="userSpaceOnUse" id="gradient13" r="819.2" spreadMethod="pad">
      <stop offset="0.0" stop-color="#0d0d0d"/>
      <stop offset="1.0" stop-color="#000000"/>
    </radialGradient>
    <radialGradient cx="0" cy="0" gradientTransform="matrix(0.1298, 0.0, 0.0, 0.1298, -205.15, -128.6)" gradientUnits="userSpaceOnUse" id="gradient14" r="819.2" spreadMethod="pad">
      <stop offset="0.0" stop-color="#858585"/>
      <stop offset="1.0" stop-color="#141414"/>
    </radialGradient>
    <radialGradient cx="0" cy="0" gradientTransform="matrix(0.1387, 0.0, 0.0, 0.1387, -200.95, -107.7)" gradientUnits="userSpaceOnUse" id="gradient15" r="819.2" spreadMethod="pad">
      <stop offset="0.0" stop-color="#6a6a6a"/>
      <stop offset="1.0" stop-color="#030303"/>
    </radialGradient>
    <radialGradient cx="0" cy="0" gradientTransform="matrix(0.103, 0.0, 0.0, 0.103, -269.75, -46.2)" gradientUnits="userSpaceOnUse" id="gradient16" r="819.2" spreadMethod="pad">
      <stop offset="0.0" stop-color="#838383"/>
      <stop offset="1.0" stop-color="#0f0f0f"/>
    </radialGradient>
    <radialGradient cx="0" cy="0" gradientTransform="matrix(0.0978, 0.0, 0.0, 0.0978, -133.75, -177.8)" gradientUnits="userSpaceOnUse" id="gradient17" r="819.2" spreadMethod="pad">
      <stop offset="0.0" stop-color="#595959"/>
      <stop offset="1.0" stop-color="#000000"/>
    </radialGradient>
    <radialGradient cx="0" cy="0" gradientTransform="matrix(0.0668, 0.0, 0.0, 0.0668, -143.7, -201.2)" gradientUnits="userSpaceOnUse" id="gradient18" r="819.2" spreadMethod="pad">
      <stop offset="0.0" stop-color="#000000"/>
      <stop offset="1.0" stop-color="#000000"/>
    </radialGradient>
    <radialGradient cx="0" cy="0" gradientTransform="matrix(0.1153, 0.0, 0.0, 0.1153, -142.2, -115.25)" gradientUnits="userSpaceOnUse" id="gradient19" r="819.2" spreadMethod="pad">
      <stop offset="0.0" stop-color="#878787"/>
      <stop offset="1.0" stop-color="#000000"/>
    </radialGradient>
    <radialGradient cx="0" cy="0" gradientTransform="matrix(0.0279, 0.0, 0.0, 0.0279, -135.0, -210.45)" gradientUnits="userSpaceOnUse" id="gradient20" r="819.2" spreadMethod="pad">
      <stop offset="0.0" stop-color="#000000"/>
      <stop offset="1.0" stop-color="#000000"/>
    </radialGradient>
    <radialGradient cx="0" cy="0" gradientTransform="matrix(0.0664, 0.0, 0.0, 0.0664, -111.15, -166.8)" gradientUnits="userSpaceOnUse" id="gradient21" r="819.2" spreadMethod="pad">
      <stop offset="0.0" stop-color="#616161"/>
      <stop offset="1.0" stop-color="#000000"/>
    </radialGradient>
    <radialGradient cx="0" cy="0" gradientTransform="matrix(0.0112, 0.0, 0.0, 0.0112, -1.0, -222.45)" gradientUnits="userSpaceOnUse" id="gradient22" r="819.2" spreadMethod="pad">
      <stop offset="0.0" stop-color="#111111"/>
      <stop offset="1.0" stop-color="#111111"/>
    </radialGradient>
    <radialGradient cx="0" cy="0" gradientTransform="matrix(0.0222, 0.0, 0.0, 0.0222, -1.0, -222.15)" gradientUnits="userSpaceOnUse" id="gradient23" r="819.2" spreadMethod="pad">
      <stop offset="0.0" stop-color="#040404"/>
      <stop offset="1.0" stop-color="#040404"/>
    </radialGradient>
    <radialGradient cx="0" cy="0" gradientTransform="matrix(0.0225, 0.0, 0.0, 0.0225, -1.0, -222.0)" gradientUnits="userSpaceOnUse" id="gradient24" r="819.2" spreadMethod="pad">
      <stop offset="0.0" stop-color="#060606"/>
      <stop offset="1.0" stop-color="#060606"/>
    </radialGradient>
    <radialGradient cx="0" cy="0" gradientTransform="matrix(0.0104, 0.0, 0.0, 0.0104, -4.3, -220.95)" gradientUnits="userSpaceOnUse" id="gradient25" r="819.2" spreadMethod="pad">
      <stop offset="0.0" stop-color="#060606"/>
      <stop offset="1.0" stop-color="#060606"/>
    </radialGradient>
    <radialGradient cx="0" cy="0" gradientTransform="matrix(0.0184, 0.0, 0.0, 0.0184, -19.35, -219.85)" gradientUnits="userSpaceOnUse" id="gradient26" r="819.2" spreadMethod="pad">
      <stop offset="0.0" stop-color="#202020"/>
      <stop offset="1.0" stop-color="#202020"/>
    </radialGradient>
    <radialGradient cx="0" cy="0" gradientTransform="matrix(0.0178, 0.0, 0.0, 0.0178, -22.4, -219.5)" gradientUnits="userSpaceOnUse" id="gradient27" r="819.2" spreadMethod="pad">
      <stop offset="0.0" stop-color="#0a0a0a"/>
      <stop offset="1.0" stop-color="#0a0a0a"/>
    </radialGradient>
    <radialGradient cx="0" cy="0" gradientTransform="matrix(0.0255, 0.0, 0.0, 0.0255, -19.5, -214.15)" gradientUnits="userSpaceOnUse" id="gradient28" r="819.2" spreadMethod="pad">
      <stop offset="0.0" stop-color="#040404"/>
      <stop offset="1.0" stop-color="#040404"/>
    </radialGradient>
    <radialGradient cx="0" cy="0" gradientTransform="matrix(0.0216, 0.0, 0.0, 0.0216, -4.3, -220.95)" gradientUnits="userSpaceOnUse" id="gradient29" r="819.2" spreadMethod="pad">
      <stop offset="0.0" stop-color="#020202"/>
      <stop offset="1.0" stop-color="#020202"/>
    </radialGradient>
    <radialGradient cx="0" cy="0" gradientTransform="matrix(0.0113, 0.0, 0.0, 0.0113, -3.85, -212.8)" gradientUnits="userSpaceOnUse" id="gradient30" r="819.2" spreadMethod="pad">
      <stop offset="0.0" stop-color="#020202"/>
      <stop offset="1.0" stop-color="#020202"/>
    </radialGradient>
    <radialGradient cx="0" cy="0" gradientTransform="matrix(0.0091, 0.0, 0.0, 0.0091, -2.05, -200.2)" gradientUnits="userSpaceOnUse" id="gradient31" r="819.2" spreadMethod="pad">
      <stop offset="0.0" stop-color="#050505"/>
      <stop offset="1.0" stop-color="#050505"/>
    </radialGradient>
    <radialGradient cx="0" cy="0" gradientTransform="matrix(0.0113, 0.0, 0.0, 0.0113, -2.25, -213.0)" gradientUnits="userSpaceOnUse" id="gradient32" r="819.2" spreadMethod="pad">
      <stop offset="0.0" stop-color="#020202"/>
      <stop offset="1.0" stop-color="#020202"/>
    </radialGradient>
    <radialGradient cx="0" cy="0" gradientTransform="matrix(0.0177, 0.0, 0.0, 0.0177, -30.75, -220.6)" gradientUnits="userSpaceOnUse" id="gradient33" r="819.2" spreadMethod="pad">
      <stop offset="0.0" stop-color="#262626"/>
      <stop offset="1.0" stop-color="#262626"/>
    </radialGradient>
    <radialGradient cx="0" cy="0" gradientTransform="matrix(0.0177, 0.0, 0.0, 0.0177, -31.4, -217.8)" gradientUnits="userSpaceOnUse" id="gradient34" r="819.2" spreadMethod="pad">
      <stop offset="0.0" stop-color="#303030"/>
      <stop offset="1.0" stop-color="#303030"/>
    </radialGradient>
    <radialGradient cx="0" cy="0" gradientTransform="matrix(0.0204, 0.0, 0.0, 0.0204, -17.7, -217.85)" gradientUnits="userSpaceOnUse" id="gradient35" r="819.2" spreadMethod="pad">
      <stop offset="0.0" stop-color="#171717"/>
      <stop offset="1.0" stop-color="#171717"/>
    </radialGradient>
    <radialGradient cx="0" cy="0" gradientTransform="matrix(0.0209, 0.0, 0.0, 0.0209, -17.7, -217.85)" gradientUnits="userSpaceOnUse" id="gradient36" r="819.2" spreadMethod="pad">
      <stop offset="0.0" stop-color="#828282"/>
      <stop offset="1.0" stop-color="#808080"/>
    </radialGradient>
    <radialGradient cx="0" cy="0" gradientTransform="matrix(0.0182, 0.0, 0.0, 0.0182, -34.3, -213.45)" gradientUnits="userSpaceOnUse" id="gradient37" r="819.2" spreadMethod="pad">
      <stop offset="0.0" stop-color="#222222"/>
      <stop offset="1.0" stop-color="#222222"/>
    </radialGradient>
    <radialGradient cx="0" cy="0" gradientTransform="matrix(0.0182, 0.0, 0.0, 0.0182, -24.5, -213.75)" gradientUnits="userSpaceOnUse" id="gradient38" r="819.2" spreadMethod="pad">
      <stop offset="0.0" stop-color="#828282"/>
      <stop offset="1.0" stop-color="#676767"/>
    </radialGradient>
    <radialGradient cx="0" cy="0" gradientTransform="matrix(0.0065, 0.0, 0.0, 0.0065, -21.25, -211.45)" gradientUnits="userSpaceOnUse" id="gradient39" r="819.2" spreadMethod="pad">
      <stop offset="0.0" stop-color="#171717"/>
      <stop offset="1.0" stop-color="#171717"/>
    </radialGradient>
    <radialGradient cx="0" cy="0" gradientTransform="matrix(0.0183, 0.0, 0.0, 0.0183, -24.75, -213.55)" gradientUnits="userSpaceOnUse" id="gradient40" r="819.2" spreadMethod="pad">
      <stop offset="0.0" stop-color="#303030"/>
      <stop offset="1.0" stop-color="#212121"/>
    </radialGradient>
    <radialGradient cx="0" cy="0" gradientTransform="matrix(0.009, 0.0, 0.0, 0.009, -21.25, -208.85)" gradientUnits="userSpaceOnUse" id="gradient41" r="819.2" spreadMethod="pad">
      <stop offset="0.0" stop-color="#020202"/>
      <stop offset="1.0" stop-color="#020202"/>
    </radialGradient>
    <radialGradient cx="0" cy="0" gradientTransform="matrix(0.0177, 0.0, 0.0, 0.0177, -33.85, -213.3)" gradientUnits="userSpaceOnUse" id="gradient42" r="819.2" spreadMethod="pad">
      <stop offset="0.0" stop-color="#171717"/>
      <stop offset="1.0" stop-color="#171717"/>
    </radialGradient>
    <radialGradient cx="0" cy="0" gradientTransform="matrix(0.0112, 0.0, 0.0, 0.0112, -2.4, -204.1)" gradientUnits="userSpaceOnUse" id="gradient43" r="819.2" spreadMethod="pad">
      <stop offset="0.0" stop-color="#020202"/>
      <stop offset="1.0" stop-color="#020202"/>
    </radialGradient>
    <radialGradient cx="0" cy="0" gradientTransform="matrix(0.0011, 0.0, 0.0, 0.0011, -8.2, -210.55)" gradientUnits="userSpaceOnUse" id="gradient44" r="819.2" spreadMethod="pad">
      <stop offset="0.0" stop-color="#020202"/>
      <stop offset="1.0" stop-color="#020202"/>
    </radialGradient>
    <radialGradient cx="0" cy="0" gradientTransform="matrix(0.02, 0.0, 0.0, 0.02, -34.6, -213.2)" gradientUnits="userSpaceOnUse" id="gradient45" r="819.2" spreadMethod="pad">
      <stop offset="0.0" stop-color="#212121"/>
      <stop offset="1.0" stop-color="#202020"/>
    </radialGradient>
    <radialGradient cx="0" cy="0" gradientTransform="matrix(0.0193, 0.0, 0.0, 0.0193, -37.25, -201.65)" gradientUnits="userSpaceOnUse" id="gradient46" r="819.2" spreadMethod="pad">
      <stop offset="0.0" stop-color="#060606"/>
      <stop offset="1.0" stop-color="#020202"/>
    </radialGradient>
    <radialGradient cx="0" cy="0" gradientTransform="matrix(0.0169, 0.0, 0.0, 0.0169, -29.7, -197.0)" gradientUnits="userSpaceOnUse" id="gradient47" r="819.2" spreadMethod="pad">
      <stop offset="0.0" stop-color="#313131"/>
      <stop offset="1.0" stop-color="#303030"/>
    </radialGradient>
    <radialGradient cx="0" cy="0" gradientTransform="matrix(0.0209, 0.0, 0.0, 0.0209, -5.95, -220.1)" gradientUnits="userSpaceOnUse" id="gradient48" r="819.2" spreadMethod="pad">
      <stop offset="0.0" stop-color="#020202"/>
      <stop offset="1.0" stop-color="#020202"/>
    </radialGradient>
    <radialGradient cx="0" cy="0" gradientTransform="matrix(0.0395, 0.0, 0.0, 0.0395, -18.95, -194.15)" gradientUnits="userSpaceOnUse" id="gradient49" r="819.2" spreadMethod="pad">
      <stop offset="0.0" stop-color="#040404"/>
      <stop offset="1.0" stop-color="#040404"/>
    </radialGradient>
    <radialGradient cx="0" cy="0" gradientTransform="matrix(0.0075, 0.0, 0.0, 0.0075, -8.75, -209.05)" gradientUnits="userSpaceOnUse" id="gradient50" r="819.2" spreadMethod="pad">
      <stop offset="0.0" stop-color="#020202"/>
      <stop offset="1.0" stop-color="#020202"/>
    </radialGradient>
    <radialGradient cx="0" cy="0" gradientTransform="matrix(0.0077, 0.0, 0.0, 0.0077, -10.25, -209.0)" gradientUnits="userSpaceOnUse" id="gradient51" r="819.2" spreadMethod="pad">
      <stop offset="0.0" stop-color="#020202"/>
      <stop offset="1.0" stop-color="#020202"/>
    </radialGradient>
    <radialGradient cx="0" cy="0" gradientTransform="matrix(0.0083, 0.0, 0.0, 0.0083, -11.65, -209.3)" gradientUnits="userSpaceOnUse" id="gradient52" r="819.2" spreadMethod="pad">
      <stop offset="0.0" stop-color="#020202"/>
      <stop offset="1.0" stop-color="#020202"/>
    </radialGradient>
    <radialGradient cx="0" cy="0" gradientTransform="matrix(0.0084, 0.0, 0.0, 0.0084, -13.15, -209.1)" gradientUnits="userSpaceOnUse" id="gradient53" r="819.2" spreadMethod="pad">
      <stop offset="0.0" stop-color="#020202"/>
      <stop offset="1.0" stop-color="#020202"/>
    </radialGradient>
    <radialGradient cx="0" cy="0" gradientTransform="matrix(0.0092, 0.0, 0.0, 0.0092, -14.95, -209.5)" gradientUnits="userSpaceOnUse" id="gradient54" r="819.2" spreadMethod="pad">
      <stop offset="0.0" stop-color="#020202"/>
      <stop offset="1.0" stop-color="#020202"/>
    </radialGradient>
    <radialGradient cx="0" cy="0" gradientTransform="matrix(0.0105, 0.0, 0.0, 0.0105, -16.05, -210.35)" gradientUnits="userSpaceOnUse" id="gradient55" r="819.2" spreadMethod="pad">
      <stop offset="0.0" stop-color="#020202"/>
      <stop offset="1.0" stop-color="#020202"/>
    </radialGradient>
    <radialGradient cx="0" cy="0" gradientTransform="matrix(0.0167, 0.0, 0.0, 0.0167, -43.5, -196.35)" gradientUnits="userSpaceOnUse" id="gradient56" r="819.2" spreadMethod="pad">
      <stop offset="0.0" stop-color="#262626"/>
      <stop offset="1.0" stop-color="#262626"/>
    </radialGradient>
    <radialGradient cx="0" cy="0" gradientTransform="matrix(0.0182, 0.0, 0.0, 0.0182, -20.5, -201.4)" gradientUnits="userSpaceOnUse" id="gradient57" r="819.2" spreadMethod="pad">
      <stop offset="0.0" stop-color="#171717"/>
      <stop offset="1.0" stop-color="#171717"/>
    </radialGradient>
    <radialGradient cx="0" cy="0" gradientTransform="matrix(0.028, 0.0, 0.0, 0.028, -300.6, -187.8)" gradientUnits="userSpaceOnUse" id="gradient58" r="819.2" spreadMethod="pad">
      <stop offset="0.0" stop-color="#2f2f2f"/>
      <stop offset="1.0" stop-color="#171717"/>
    </radialGradient>
    <radialGradient cx="0" cy="0" gradientTransform="matrix(0.0315, 0.0, 0.0, 0.0315, -292.95, -186.25)" gradientUnits="userSpaceOnUse" id="gradient59" r="819.2" spreadMethod="pad">
      <stop offset="0.0" stop-color="#000000"/>
      <stop offset="1.0" stop-color="#000000"/>
    </radialGradient>
    <radialGradient cx="0" cy="0" gradientTransform="matrix(0.0206, 0.0, 0.0, 0.0206, -15.55, -187.0)" gradientUnits="userSpaceOnUse" id="gradient60" r="819.2" spreadMethod="pad">
      <stop offset="0.0" stop-color="#030303"/>
      <stop offset="1.0" stop-color="#030303"/>
    </radialGradient>
    <radialGradient cx="0" cy="0" gradientTransform="matrix(0.0168, 0.0, 0.0, 0.0168, -31.3, -189.3)" gradientUnits="userSpaceOnUse" id="gradient61" r="819.2" spreadMethod="pad">
      <stop offset="0.0" stop-color="#1f1f1f"/>
      <stop offset="1.0" stop-color="#0d0d0d"/>
    </radialGradient>
    <radialGradient cx="0" cy="0" gradientTransform="matrix(0.0188, 0.0, 0.0, 0.0188, -31.85, -183.8)" gradientUnits="userSpaceOnUse" id="gradient62" r="819.2" spreadMethod="pad">
      <stop offset="0.0" stop-color="#2d2d2d"/>
      <stop offset="1.0" stop-color="#2a2a2a"/>
    </radialGradient>
    <radialGradient cx="0" cy="0" gradientTransform="matrix(0.0194, 0.0, 0.0, 0.0194, -19.2, -176.2)" gradientUnits="userSpaceOnUse" id="gradient63" r="819.2" spreadMethod="pad">
      <stop offset="0.0" stop-color="#111111"/>
      <stop offset="1.0" stop-color="#101010"/>
    </radialGradient>
    <radialGradient cx="0" cy="0" gradientTransform="matrix(0.0175, 0.0, 0.0, 0.0175, -33.55, -176.3)" gradientUnits="userSpaceOnUse" id="gradient64" r="819.2" spreadMethod="pad">
      <stop offset="0.0" stop-color="#111111"/>
      <stop offset="1.0" stop-color="#111111"/>
    </radialGradient>
    <radialGradient cx="0" cy="0" gradientTransform="matrix(0.0834, 0.0, 0.0, 0.0834, -66.5, -151.45)" gradientUnits="userSpaceOnUse" id="gradient65" r="819.2" spreadMethod="pad">
      <stop offset="0.0" stop-color="#1d1d1d"/>
      <stop offset="1.0" stop-color="#000000"/>
    </radialGradient>
    <radialGradient cx="0" cy="0" gradientTransform="matrix(0.0218, 0.0, 0.0, 0.0218, -19.3, -174.85)" gradientUnits="userSpaceOnUse" id="gradient66" r="819.2" spreadMethod="pad">
      <stop offset="0.0" stop-color="#2e2e2e"/>
      <stop offset="1.0" stop-color="#2d2d2d"/>
    </radialGradient>
    <radialGradient cx="0" cy="0" gradientTransform="matrix(0.0193, 0.0, 0.0, 0.0193, -5.1, -165.5)" gradientUnits="userSpaceOnUse" id="gradient67" r="819.2" spreadMethod="pad">
      <stop offset="0.0" stop-color="#868686"/>
      <stop offset="1.0" stop-color="#000000"/>
    </radialGradient>
    <radialGradient cx="0" cy="0" gradientTransform="matrix(0.0389, 0.0, 0.0, 0.0389, -13.9, -145.55)" gradientUnits="userSpaceOnUse" id="gradient68" r="819.2" spreadMethod="pad">
      <stop offset="0.0" stop-color="#000000"/>
      <stop offset="1.0" stop-color="#000000"/>
    </radialGradient>
    <radialGradient cx="0" cy="0" gradientTransform="matrix(0.0237, 0.0, 0.0, 0.0237, -38.4, -154.25)" gradientUnits="userSpaceOnUse" id="gradient69" r="819.2" spreadMethod="pad">
      <stop offset="0.0" stop-color="#000000"/>
      <stop offset="1.0" stop-color="#000000"/>
    </radialGradient>
    <radialGradient cx="0" cy="0" gradientTransform="matrix(0.0132, 0.0, 0.0, 0.0132, -60.6, -149.45)" gradientUnits="userSpaceOnUse" id="gradient70" r="819.2" spreadMethod="pad">
      <stop offset="0.0" stop-color="#000000"/>
      <stop offset="1.0" stop-color="#000000"/>
    </radialGradient>
    <radialGradient cx="0" cy="0" gradientTransform="matrix(0.0424, 0.0, 0.0, 0.0424, -60.1, -115.85)" gradientUnits="userSpaceOnUse" id="gradient71" r="819.2" spreadMethod="pad">
      <stop offset="0.0" stop-color="#161616"/>
      <stop offset="1.0" stop-color="#000000"/>
    </radialGradient>
    <radialGradient cx="0" cy="0" gradientTransform="matrix(0.041, 0.0, 0.0, 0.041, -102.1, -118.9)" gradientUnits="userSpaceOnUse" id="gradient72" r="819.2" spreadMethod="pad">
      <stop offset="0.0" stop-color="#000000"/>
      <stop offset="1.0" stop-color="#000000"/>
    </radialGradient>
    <radialGradient cx="0" cy="0" gradientTransform="matrix(0.0317, 0.0, 0.0, 0.0317, -400.0, -116.65)" gradientUnits="userSpaceOnUse" id="gradient73" r="819.2" spreadMethod="pad">
      <stop offset="0.0" stop-color="#000000"/>
      <stop offset="1.0" stop-color="#000000"/>
    </radialGradient>
    <radialGradient cx="0" cy="0" gradientTransform="matrix(0.119, 0.0, 0.0, 0.119, -371.3, -1.0)" gradientUnits="userSpaceOnUse" id="gradient74" r="819.2" spreadMethod="pad">
      <stop offset="0.0" stop-color="#4f4f4f"/>
      <stop offset="1.0" stop-color="#000000"/>
    </radialGradient>
    <radialGradient cx="0" cy="0" gradientTransform="matrix(0.054, 0.0, 0.0, 0.054, -371.3, -1.0)" gradientUnits="userSpaceOnUse" id="gradient75" r="819.2" spreadMethod="pad">
      <stop offset="0.0" stop-color="#4f4f4f"/>
      <stop offset="1.0" stop-color="#191919"/>
    </radialGradient>
  </defs>
</svg>
