<?xml version="1.0" encoding="UTF-8" standalone="no"?>
<svg xmlns:xlink="http://www.w3.org/1999/xlink" height="299.1px" width="399.1px" xmlns="http://www.w3.org/2000/svg">
  <g transform="matrix(1.0, 0.0, 0.0, 1.0, 400.0, 300.0)">
    <path d="M-299.75 -274.75 L-301.9 -276.65 -296.0 -282.0 -289.9 -300.0 -288.25 -300.0 -275.65 -283.25 -263.0 -273.25 -250.4 -265.9 -250.15 -265.65 -248.5 -264.75 -250.4 -264.9 -250.9 -264.9 -265.0 -265.15 -281.9 -263.5 -284.25 -263.25 -299.4 -274.9 -299.75 -274.75 M-121.0 -300.0 L-94.0 -300.0 -99.25 -288.5 -123.15 -262.75 -131.9 -261.75 Q-150.5 -246.15 -154.4 -247.25 L-155.15 -249.4 -162.9 -253.15 -175.15 -259.4 -169.25 -260.9 -155.75 -267.75 -141.5 -276.4 -129.75 -288.15 -121.0 -300.0 M-119.5 -272.15 L-122.65 -264.25 -122.4 -263.9 -110.65 -279.0 -119.5 -272.15" fill="url(#gradient0)" fill-rule="evenodd" stroke="none"/>
    <path d="M-288.25 -300.0 L-121.0 -300.0 -129.75 -288.15 -141.5 -276.4 -155.75 -267.75 -169.25 -260.9 -175.15 -259.4 -180.4 -262.0 -182.75 -262.65 -184.15 -263.15 -185.25 -263.65 -185.5 -264.15 -185.75 -263.75 -186.15 -263.9 -186.5 -267.25 -188.9 -268.5 -193.9 -272.5 -200.75 -274.75 -206.65 -277.4 -211.4 -277.15 -223.75 -277.5 -230.5 -276.15 -234.25 -273.75 -236.0 -272.25 -236.5 -268.75 -239.25 -264.25 -248.5 -264.75 -250.15 -265.65 -250.4 -265.9 -263.0 -273.25 -275.65 -283.25 -288.25 -300.0" fill="url(#gradient1)" fill-rule="evenodd" stroke="none"/>
    <path d="M-223.75 -263.5 L-206.0 -262.5 -207.5 -261.9 -210.15 -262.15 -209.65 -261.0 -250.15 -243.4 -250.4 -264.9 -248.5 -264.75 -239.25 -264.25 -223.75 -263.5" fill="url(#gradient2)" fill-rule="evenodd" stroke="none"/>
    <path d="M-250.15 -243.4 L-265.9 -196.5 -268.5 -199.65 -270.5 -232.75 -271.75 -263.75 -250.9 -264.9 -250.4 -264.9 -250.15 -243.4" fill="url(#gradient3)" fill-rule="evenodd" stroke="none"/>
    <path d="M-250.9 -264.9 L-271.75 -263.75 -281.9 -263.5 -265.0 -265.15 -250.9 -264.9" fill="url(#gradient4)" fill-rule="evenodd" stroke="none"/>
    <path d="M-400.0 -199.75 L-399.75 -218.9 -360.9 -237.25 -349.65 -242.15 -314.9 -254.75 -285.75 -262.9 -284.25 -263.25 -281.9 -263.5 -271.75 -263.75 -293.75 -242.9 -330.25 -227.15 -372.15 -208.4 -400.0 -199.75" fill="url(#gradient5)" fill-rule="evenodd" stroke="none"/>
    <path d="M-175.15 -259.4 L-162.9 -253.15 -182.75 -262.65 -180.4 -262.0 -175.15 -259.4" fill="url(#gradient6)" fill-rule="evenodd" stroke="none"/>
    <path d="M-154.4 -247.25 L-147.25 -222.0 -141.15 -199.9 -138.9 -195.75 -145.65 -197.25 -149.9 -196.4 -151.4 -195.0 -152.5 -192.0 -152.0 -185.25 -148.9 -176.5 -144.0 -168.25 -145.0 -165.25 -146.5 -155.15 -145.65 -141.9 -142.9 -131.75 -144.0 -129.15 -146.0 -118.65 -144.9 -107.65 -143.15 -103.65 -135.75 -98.15 -138.0 -91.65 -179.9 -99.0 -207.9 -100.5 -201.65 -101.5 -193.25 -103.65 -186.25 -107.65 -180.5 -109.25 -178.65 -110.25 -175.25 -112.75 -169.15 -116.4 -160.9 -124.75 -154.5 -135.75 -150.0 -146.9 -148.4 -157.5 -149.4 -169.9 Q-156.9 -201.4 -175.4 -211.5 -198.65 -225.4 -218.9 -221.4 L-219.15 -223.75 -207.0 -259.5 Q-203.75 -257.75 -202.15 -261.0 L-206.15 -261.75 -206.0 -262.5 -184.15 -263.15 -182.75 -262.65 -162.9 -253.15 -155.15 -249.4 -154.4 -247.25 M-225.5 -103.4 L-218.5 -101.15 -226.0 -101.65 -225.5 -103.4" fill="url(#gradient7)" fill-rule="evenodd" stroke="none"/>
    <path d="M-186.15 -263.9 L-185.75 -263.75 -185.25 -263.65 -184.15 -263.15 -206.0 -262.5 -223.75 -263.5 -224.15 -274.0 -200.4 -268.0 -186.15 -263.9" fill="url(#gradient8)" fill-rule="evenodd" stroke="none"/>
    <path d="M-185.25 -263.65 L-185.75 -263.75 -185.5 -264.15 -185.25 -263.65" fill="url(#gradient9)" fill-rule="evenodd" stroke="none"/>
    <path d="M-186.15 -263.9 L-200.4 -268.0 -224.15 -274.0 -223.75 -277.5 -211.4 -277.15 -206.65 -277.4 -200.75 -274.75 -193.9 -272.5 -188.9 -268.5 -186.5 -267.25 -186.15 -263.9" fill="url(#gradient10)" fill-rule="evenodd" stroke="none"/>
    <path d="M-224.15 -274.0 L-223.75 -263.5 -239.25 -264.25 -236.5 -268.75 -236.0 -272.25 -234.25 -273.75 -230.5 -276.15 -223.75 -277.5 -224.15 -274.0" fill="url(#gradient11)" fill-rule="evenodd" stroke="none"/>
    <path d="M-94.0 -300.0 L-93.4 -300.0 -99.25 -288.5 -94.0 -300.0" fill="url(#gradient12)" fill-rule="evenodd" stroke="none"/>
    <path d="M-301.9 -276.65 L-314.65 -293.65 -317.5 -299.9 -289.9 -300.0 -296.0 -282.0 -301.9 -276.65" fill="url(#gradient13)" fill-rule="evenodd" stroke="none"/>
    <path d="M-285.75 -262.9 L-299.75 -274.75 -299.4 -274.9 -284.25 -263.25 -285.75 -262.9" fill="url(#gradient14)" fill-rule="evenodd" stroke="none"/>
    <path d="M-400.0 -180.15 L-400.0 -199.75 -372.15 -208.4 -330.25 -227.15 -293.75 -242.9 -271.75 -263.75 -270.5 -232.75 -268.5 -199.65 -286.65 -184.25 -291.5 -180.75 -301.4 -174.0 -328.5 -165.15 -335.15 -162.0 -356.5 -148.75 -380.25 -140.25 -390.25 -170.15 -400.0 -180.15" fill="url(#gradient15)" fill-rule="evenodd" stroke="none"/>
    <path d="M-265.9 -196.5 L-267.65 -194.9 -277.65 -187.75 -286.25 -184.4 -286.65 -184.25 -268.5 -199.65 -265.9 -196.5" fill="url(#gradient16)" fill-rule="evenodd" stroke="none"/>
    <path d="M-207.0 -259.5 L-219.15 -223.75 -218.9 -221.4 Q-234.5 -219.4 -250.65 -206.9 L-257.0 -200.65 -263.25 -191.25 -269.5 -174.65 -271.65 -163.15 -271.15 -152.0 -271.4 -151.4 -269.0 -144.0 -268.25 -140.4 -262.65 -130.15 -258.9 -126.0 -255.5 -120.5 -246.9 -112.25 -267.25 -122.4 -268.15 -122.4 -283.15 -120.5 -290.5 -117.65 -297.25 -113.9 -291.5 -180.75 -286.65 -184.25 -286.25 -184.4 -286.15 -184.4 -285.0 -182.9 -284.4 -182.75 -277.65 -187.75 -267.65 -194.9 -265.9 -196.5 -250.15 -243.4 -209.65 -261.0 -207.0 -259.5 M-206.15 -261.75 L-207.5 -261.9 -206.0 -262.5 -206.15 -261.75 M-232.15 -104.75 L-225.5 -103.4 -226.0 -101.65 -232.15 -104.75" fill="url(#gradient17)" fill-rule="evenodd" stroke="none"/>
    <path d="M-277.65 -187.75 L-284.4 -182.75 -285.0 -182.9 -286.15 -184.4 -286.25 -184.4 -277.65 -187.75" fill="url(#gradient18)" fill-rule="evenodd" stroke="none"/>
    <path d="M-206.15 -261.75 L-202.15 -261.0 Q-203.75 -257.75 -207.0 -259.5 L-209.65 -261.0 -210.15 -262.15 -207.5 -261.9 -206.15 -261.75" fill="url(#gradient19)" fill-rule="evenodd" stroke="none"/>
    <path d="M-218.9 -221.4 Q-198.65 -225.4 -175.4 -211.5 -156.9 -201.4 -149.4 -169.9 L-148.4 -157.5 -150.0 -146.9 -154.5 -135.75 -160.9 -124.75 -169.15 -116.4 -175.25 -112.75 -178.65 -110.25 -180.5 -109.25 -186.25 -107.65 -193.25 -103.65 -201.65 -101.5 -207.9 -100.5 -218.5 -101.15 -225.5 -103.4 -232.15 -104.75 -234.5 -105.4 -239.0 -107.4 -246.9 -112.25 -255.5 -120.5 -258.9 -126.0 -262.65 -130.15 -268.25 -140.4 -269.0 -144.0 -271.4 -151.4 -271.15 -152.0 -271.65 -163.15 -269.5 -174.65 -263.25 -191.25 -257.0 -200.65 -250.65 -206.9 Q-234.5 -219.4 -218.9 -221.4" fill="url(#gradient20)" fill-rule="evenodd" stroke="none"/>
    <path d="M-138.25 -90.65 L-152.75 -31.65 -153.75 -0.9 -220.25 -0.9 -218.25 -35.65 -226.0 -101.65 -218.5 -101.15 -207.9 -100.5 -179.9 -99.0 -138.0 -91.65 -138.25 -90.65" fill="url(#gradient21)" fill-rule="evenodd" stroke="none"/>
    <path d="M-220.25 -0.9 L-298.5 -0.9 -298.75 -2.0 -298.0 -11.5 -294.5 -39.4 -297.25 -113.9 -290.5 -117.65 -283.15 -120.5 -268.15 -122.4 -267.25 -122.4 -246.9 -112.25 -239.0 -107.4 -234.5 -105.4 -232.15 -104.75 -226.0 -101.65 -218.25 -35.65 -220.25 -0.9" fill="url(#gradient22)" fill-rule="evenodd" stroke="none"/>
    <path d="M-147.25 -222.0 L-146.65 -221.15 -135.65 -201.0 -135.5 -194.25 -138.9 -195.75 -141.15 -199.9 -147.25 -222.0" fill="url(#gradient23)" fill-rule="evenodd" stroke="none"/>
    <path d="M-112.65 -110.15 L-121.15 -100.75 Q-127.65 -94.65 -138.25 -90.65 L-138.0 -91.65 -135.75 -98.15 -143.15 -103.65 -144.9 -107.65 -146.0 -118.65 -144.0 -129.15 -142.9 -131.75 -145.65 -141.9 -146.5 -155.15 -145.0 -165.25 -144.0 -168.25 -148.9 -176.5 -152.0 -185.25 -152.5 -192.0 -151.4 -195.0 -149.9 -196.4 -145.65 -197.25 -138.9 -195.75 -135.5 -194.25 Q-109.15 -181.0 -104.4 -156.4 L-102.75 -140.65 -104.0 -129.5 -107.5 -119.15 -112.65 -110.15" fill="url(#gradient24)" fill-rule="evenodd" stroke="none"/>
    <path d="M-8.25 -211.15 L-6.5 -213.25 -1.0 -213.4 -0.9 -211.25 -8.25 -211.15" fill="url(#gradient25)" fill-rule="evenodd" stroke="none"/>
    <path d="M-38.25 -207.75 L-38.0 -207.9 -38.0 -207.75 -38.25 -207.75 M-37.15 -207.9 L-8.25 -211.15 -0.9 -211.25 -0.9 -210.65 -25.25 -207.9 -26.5 -207.9 -27.15 -207.9 -37.15 -207.9" fill="url(#gradient26)" fill-rule="evenodd" stroke="none"/>
    <path d="M-40.5 -207.65 L-38.25 -207.75 -38.0 -207.75 -38.0 -207.9 -37.15 -207.9 -27.15 -207.9 -40.5 -207.65" fill="url(#gradient27)" fill-rule="evenodd" stroke="none"/>
    <path d="M-39.65 -206.65 L-40.5 -207.65 -27.15 -207.9 -32.75 -206.75 -37.9 -206.65 -38.65 -206.65 -39.65 -206.65" fill="url(#gradient28)" fill-rule="evenodd" stroke="none"/>
    <path d="M-32.75 -206.75 L-27.15 -207.9 -26.5 -207.9 -25.15 -207.15 -25.15 -205.9 -25.15 -200.9 -25.4 -199.75 -28.0 -199.5 -28.75 -199.4 -29.15 -199.4 -30.0 -199.25 -30.4 -199.25 -31.65 -199.15 -32.5 -199.0 -32.9 -199.0 -33.75 -198.9 -32.75 -206.75" fill="url(#gradient29)" fill-rule="evenodd" stroke="none"/>
    <path d="M-33.0 -206.65 L-35.65 -206.65 -37.9 -206.65 -32.75 -206.75 -33.0 -206.65" fill="url(#gradient30)" fill-rule="evenodd" stroke="none"/>
    <path d="M-43.65 -204.5 L-43.15 -205.25 -42.4 -205.4 -42.4 -208.0 -42.15 -208.15 -40.5 -207.65 -39.65 -206.65 -39.15 -205.9 -36.4 -205.9 -35.65 -206.65 -33.0 -206.65 -35.25 -190.25 -36.15 -190.25 -33.9 -206.15 -34.4 -206.15 -36.65 -190.15 -37.0 -190.0 -37.4 -190.0 Q-36.25 -195.15 -37.0 -195.75 L-37.75 -190.0 -38.65 -189.9 Q-37.5 -195.15 -38.15 -195.75 L-39.0 -189.75 -39.75 -189.75 Q-38.5 -195.4 -39.4 -196.0 L-40.15 -189.65 -41.15 -189.5 Q-39.9 -195.25 -40.5 -195.9 L-41.5 -189.5 -43.65 -189.15 Q-42.15 -196.4 -42.9 -197.25 L-44.15 -189.15 -46.4 -188.75 -44.25 -201.5 -43.25 -202.5 -43.0 -203.4 -43.0 -204.5 -43.65 -204.5 M-26.5 -207.9 L-25.25 -207.9 -25.15 -207.15 -26.5 -207.9 M-33.75 -198.9 L-32.9 -199.0 -34.25 -190.4 -34.75 -190.4 -33.75 -198.9 M-32.5 -199.0 L-31.65 -199.15 -30.4 -199.25 -31.65 -190.75 -32.4 -190.75 -32.15 -193.9 -31.15 -198.5 -31.65 -199.15 -32.9 -190.65 -33.65 -190.5 -32.5 -199.0 M-30.0 -199.25 L-29.15 -199.4 -29.75 -194.15 -30.65 -190.9 -31.15 -190.9 -30.0 -199.25 M-28.75 -199.4 L-28.0 -199.5 -25.4 -199.75 -25.15 -200.9 -25.15 -199.25 -25.0 -198.0 -25.5 -196.65 Q-25.0 -196.15 -26.15 -191.65 L-27.65 -191.4 -26.75 -198.15 -27.0 -198.25 -28.0 -191.25 -28.75 -191.25 -28.0 -199.5 -29.25 -191.0 -29.9 -191.0 -28.75 -199.4 M-36.25 -197.4 L-36.75 -197.4 -36.9 -196.75 -36.4 -196.75 -36.25 -197.4 M-45.5 -200.75 L-45.5 -200.65 -47.15 -200.4 -46.15 -200.15 -45.65 -200.4 -45.75 -199.75 -46.65 -199.75 -46.25 -199.4 -45.9 -199.5 -47.4 -193.15 -47.15 -192.65 -47.5 -192.4 -49.65 -199.4 -48.9 -199.15 -48.5 -199.75 -49.15 -199.9 -48.25 -199.9 -48.0 -200.5 -46.75 -200.75 -45.75 -200.75 -45.5 -200.75 M-42.4 -189.4 L-41.65 -196.4 Q-43.5 -190.25 -42.4 -189.4 M-49.5 -200.65 L-49.65 -199.4 -49.65 -200.15 -49.5 -200.65 M-47.75 -196.4 L-47.65 -196.65 -48.15 -196.5 -47.75 -196.4 M-48.65 -198.75 L-48.5 -199.0 -48.9 -199.0 -48.65 -198.75" fill="url(#gradient31)" fill-rule="evenodd" stroke="none"/>
    <path d="M-46.0 -208.0 L-42.15 -208.15 -42.4 -208.0 -46.0 -208.0" fill="url(#gradient32)" fill-rule="evenodd" stroke="none"/>
    <path d="M-43.15 -205.25 L-57.4 -205.15 -57.25 -207.5 -56.75 -207.75 -46.0 -208.0 -42.4 -208.0 -42.4 -205.4 -43.15 -205.25" fill="url(#gradient33)" fill-rule="evenodd" stroke="none"/>
    <path d="M-58.25 -204.4 L-58.0 -205.0 -57.4 -205.15 -43.15 -205.25 -43.65 -204.5 -58.25 -204.4" fill="url(#gradient34)" fill-rule="evenodd" stroke="none"/>
    <path d="M-58.25 -204.4 L-43.65 -204.5 -45.25 -201.15 -57.75 -200.9 -60.65 -200.9 -59.4 -203.65 -59.0 -204.25 -58.25 -204.4" fill="url(#gradient35)" fill-rule="evenodd" stroke="none"/>
    <path d="M-0.9 -210.65 L-0.9 -204.0 -14.25 -202.75 Q-17.75 -203.9 -17.9 -206.75 L-25.15 -205.9 -25.15 -207.15 -25.25 -207.9 -0.9 -210.65" fill="url(#gradient36)" fill-rule="evenodd" stroke="none"/>
    <path d="M-35.65 -206.65 L-36.4 -205.9 -39.15 -205.9 -39.65 -206.65 -38.65 -206.65 -37.9 -206.65 -35.65 -206.65" fill="url(#gradient37)" fill-rule="evenodd" stroke="none"/>
    <path d="M-35.25 -190.25 L-33.0 -206.65 -32.75 -206.75 -33.75 -198.9 -34.75 -190.4 -35.25 -190.25" fill="url(#gradient38)" fill-rule="evenodd" stroke="none"/>
    <path d="M-32.9 -199.0 L-32.5 -199.0 -33.65 -190.5 -34.25 -190.4 -32.9 -199.0" fill="url(#gradient39)" fill-rule="evenodd" stroke="none"/>
    <path d="M-3.15 -194.15 L-10.4 -192.75 -10.9 -192.75 -11.15 -192.65 -11.5 -192.65 -11.9 -192.5 -12.25 -192.5 -12.9 -192.4 -13.4 -192.25 -13.65 -192.25 Q-17.4 -192.65 -19.15 -185.0 L-20.0 -184.75 -21.25 -186.5 -21.25 -187.4 -22.4 -188.15 -23.75 -188.4 -25.5 -188.0 -26.9 -186.75 -27.5 -186.5 -29.15 -186.75 -30.4 -186.5 -30.4 -188.65 -30.75 -188.65 -30.9 -187.9 -31.65 -187.65 -31.5 -187.0 -31.9 -187.0 -32.0 -186.4 -36.15 -185.9 -37.15 -187.9 -37.4 -190.0 -37.0 -190.0 -36.65 -190.15 -36.15 -190.15 -36.15 -190.25 -35.25 -190.25 -34.75 -190.4 -34.25 -190.4 -33.65 -190.5 -32.9 -190.65 -32.4 -190.75 -31.65 -190.75 -31.15 -190.9 -30.65 -190.9 -29.9 -191.0 -29.25 -191.0 -28.75 -191.25 -28.0 -191.25 -27.65 -191.4 -26.15 -191.65 -3.15 -195.15 -3.15 -194.15" fill="url(#gradient40)" fill-rule="evenodd" stroke="none"/>
    <path d="M-32.4 -190.75 L-32.9 -190.65 -31.65 -199.15 -31.15 -198.5 -32.15 -193.9 -32.4 -190.75" fill="url(#gradient41)" fill-rule="evenodd" stroke="none"/>
    <path d="M-25.15 -200.9 L-25.15 -205.9 -17.9 -206.75 Q-17.75 -203.9 -14.25 -202.75 L-0.9 -204.0 -4.25 -203.5 -4.4 -203.5 -8.75 -202.9 -9.25 -202.75 -9.75 -202.75 -10.15 -202.65 -10.65 -202.65 -11.0 -202.5 -12.5 -202.25 -14.4 -202.15 -14.5 -202.0 -22.9 -200.9 -23.15 -200.9 -25.0 -200.9 -25.15 -200.9" fill="url(#gradient42)" fill-rule="evenodd" stroke="none"/>
    <path d="M-0.9 -204.0 L-0.9 -203.9 -4.25 -203.5 -0.9 -204.0 M-0.9 -201.9 L-0.9 -201.4 -1.9 -201.4 -2.25 -201.25 -2.9 -201.25 -3.25 -201.15 -3.75 -201.15 -4.15 -201.0 -4.65 -201.0 -5.0 -200.9 -5.5 -200.9 -6.0 -200.75 -6.5 -200.75 -6.9 -200.65 -7.4 -200.65 -7.75 -200.5 -8.25 -200.5 -8.75 -200.4 -9.25 -200.4 -9.65 -200.25 -10.15 -200.25 -10.5 -200.15 -11.0 -200.15 -11.5 -200.0 -12.0 -200.0 -12.4 -199.9 -12.9 -199.9 -13.25 -199.75 -13.75 -199.75 -14.25 -199.65 -14.75 -199.65 -15.15 -199.5 -15.65 -199.5 -16.0 -199.4 -16.5 -199.4 -17.0 -199.25 -17.65 -199.25 -17.9 -199.15 -18.5 -199.15 -18.75 -199.0 -19.4 -199.0 -19.65 -198.9 -20.25 -198.9 -20.65 -198.75 -21.15 -198.75 -21.5 -198.65 -21.75 -198.65 -22.5 -198.4 -23.0 -198.4 -23.4 -198.25 -24.5 -198.65 -0.9 -201.9 M-0.9 -195.5 L-0.9 -194.5 -3.15 -194.15 -3.15 -195.15 -0.9 -195.5 M-13.65 -192.25 Q-17.75 -191.75 -19.4 -181.75 L-19.15 -185.0 Q-17.4 -192.65 -13.65 -192.25 M-19.25 -179.15 L-18.9 -177.4 -18.9 -176.9 -19.4 -176.65 -19.25 -179.15 M-27.4 -174.9 L-27.75 -174.9 -28.75 -175.25 -28.9 -174.9 -29.15 -174.5 -29.9 -173.4 -30.4 -172.15 -31.0 -165.15 -34.4 -168.0 Q-37.0 -168.9 -38.25 -167.4 L-42.25 -166.9 -46.25 -165.5 -45.5 -171.75 -45.0 -173.25 -44.75 -177.4 Q-45.15 -181.75 -46.55 -183.35 L-45.65 -182.5 Q-43.5 -178.0 -44.5 -174.65 L-43.0 -174.75 Q-42.5 -184.65 -45.5 -186.25 L-47.9 -187.25 -48.9 -185.9 Q-53.4 -185.65 -53.75 -185.0 L-54.25 -184.4 -54.5 -183.5 -54.4 -184.65 -53.5 -186.0 -48.65 -189.65 -48.4 -189.15 -47.9 -189.0 -46.9 -188.75 -46.4 -188.75 -44.15 -189.15 -43.65 -189.15 -41.5 -189.5 -41.15 -189.5 -40.15 -189.65 -39.75 -189.75 -39.0 -189.75 -38.65 -189.9 -37.75 -190.0 -37.4 -190.0 -37.15 -187.9 -36.15 -185.9 -32.0 -186.4 -31.9 -187.0 -31.5 -187.0 -31.65 -187.65 -30.9 -187.9 -30.75 -188.65 -30.4 -188.65 -30.4 -186.5 -29.15 -186.75 -27.5 -186.5 -28.4 -185.65 -28.4 -185.15 -28.75 -184.65 -28.75 -183.4 Q-29.9 -183.15 -29.4 -179.0 L-28.0 -176.75 -27.4 -176.0 -26.0 -176.0 -21.5 -176.9 -20.9 -177.15 -20.15 -179.65 -20.4 -176.75 -25.75 -175.5 -28.65 -176.25 -28.75 -175.65 -27.4 -174.9 M-14.4 -202.15 L-14.4 -202.0 -14.5 -202.0 -14.4 -202.15 M-23.15 -200.9 L-24.0 -200.65 -25.0 -200.9 -23.15 -200.9 M-26.9 -186.75 L-25.5 -188.0 -23.75 -188.4 -22.4 -188.15 -21.25 -187.4 -21.25 -186.5 -20.0 -184.75 -20.15 -182.75 -20.5 -184.4 -21.25 -185.25 -21.15 -186.0 -21.5 -186.5 -21.25 -186.5 -22.15 -187.5 -23.65 -187.65 -26.65 -186.75 -27.15 -185.5 -26.9 -186.75 M-47.8 -184.15 L-47.4 -184.15 -46.95 -183.75 -47.8 -184.15" fill="url(#gradient43)" fill-rule="evenodd" stroke="none"/>
    <path d="M-0.9 -203.9 L-0.9 -201.9 -24.5 -198.65 -25.15 -199.25 -25.15 -200.9 -25.0 -200.9 -24.0 -200.65 -23.15 -200.9 -22.9 -200.9 -14.5 -202.0 -14.4 -202.0 -14.4 -202.15 -12.5 -202.25 -11.0 -202.5 -10.65 -202.65 -10.15 -202.65 -9.75 -202.75 -9.25 -202.75 -8.75 -202.9 -4.4 -203.5 -4.25 -203.5 -0.9 -203.9" fill="url(#gradient44)" fill-rule="evenodd" stroke="none"/>
    <path d="M-0.9 -201.4 L-0.9 -195.5 -3.15 -195.15 -26.15 -191.65 Q-25.0 -196.15 -25.5 -196.65 L-25.0 -198.0 -25.15 -199.25 -24.5 -198.65 -23.4 -198.25 -23.0 -198.4 -22.5 -198.4 -21.75 -198.65 -21.5 -198.65 -21.15 -198.75 -20.65 -198.75 -20.25 -198.9 -19.65 -198.9 -19.4 -199.0 -18.75 -199.0 -18.5 -199.15 -17.9 -199.15 -17.65 -199.25 -17.0 -199.25 -16.5 -199.4 -16.0 -199.4 -15.65 -199.5 -15.15 -199.5 -14.75 -199.65 -14.25 -199.65 -13.75 -199.75 -13.25 -199.75 -12.9 -199.9 -12.4 -199.9 -12.0 -200.0 -11.5 -200.0 -11.0 -200.15 -10.5 -200.15 -10.15 -200.25 -9.65 -200.25 -9.25 -200.4 -8.75 -200.4 -8.25 -200.5 -7.75 -200.5 -7.4 -200.65 -6.9 -200.65 -6.5 -200.75 -6.0 -200.75 -5.5 -200.9 -5.0 -200.9 -4.65 -201.0 -4.15 -201.0 -3.75 -201.15 -3.25 -201.15 -2.9 -201.25 -2.25 -201.25 -1.9 -201.4 -0.9 -201.4" fill="url(#gradient45)" fill-rule="evenodd" stroke="none"/>
    <path d="M-43.65 -204.5 L-43.0 -204.5 -43.0 -203.4 -43.25 -202.5 -44.25 -201.5 -46.4 -188.75 -46.9 -188.75 -45.25 -201.15 -43.65 -204.5" fill="url(#gradient46)" fill-rule="evenodd" stroke="none"/>
    <path d="M-44.15 -189.15 L-42.9 -197.25 Q-42.15 -196.4 -43.65 -189.15 L-44.15 -189.15" fill="url(#gradient47)" fill-rule="evenodd" stroke="none"/>
    <path d="M-146.65 -221.15 L-126.9 -197.5 -135.65 -201.0 -146.65 -221.15" fill="url(#gradient48)" fill-rule="evenodd" stroke="none"/>
    <path d="M-105.65 -107.15 L-112.65 -110.15 -107.5 -119.15 -104.0 -129.5 -102.75 -140.65 -104.4 -156.4 Q-109.15 -181.0 -135.5 -194.25 L-135.65 -201.0 -126.9 -197.5 -108.5 -174.9 -93.65 -159.5 -81.15 -145.25 -78.5 -142.25 -75.9 -139.25 -84.0 -122.0 -105.65 -107.15" fill="url(#gradient49)" fill-rule="evenodd" stroke="none"/>
    <path d="M-45.5 -200.75 L-45.75 -200.75 -48.75 -200.9 -49.15 -200.9 -57.75 -200.9 -45.25 -201.15 -45.5 -200.75" fill="url(#gradient50)" fill-rule="evenodd" stroke="none"/>
    <path d="M-45.25 -201.15 L-46.9 -188.75 -47.9 -189.0 -48.0 -189.65 -47.5 -192.0 -47.5 -192.4 -47.15 -192.65 -47.4 -193.15 -45.9 -199.5 -45.75 -199.75 -45.65 -200.4 -45.5 -200.65 -45.5 -200.75 -45.25 -201.15" fill="url(#gradient51)" fill-rule="evenodd" stroke="none"/>
    <path d="M-45.75 -200.75 L-46.75 -200.75 -48.4 -200.75 -48.75 -200.9 -45.75 -200.75" fill="url(#gradient52)" fill-rule="evenodd" stroke="none"/>
    <path d="M-48.0 -200.5 L-48.25 -199.9 -49.15 -199.9 -48.5 -199.75 -48.9 -199.15 -49.65 -199.4 -49.5 -200.65 -49.15 -200.9 -48.75 -200.9 -48.4 -200.75 -48.0 -200.5 M-45.9 -199.5 L-46.25 -199.4 -46.65 -199.75 -45.75 -199.75 -45.9 -199.5 M-45.65 -200.4 L-46.15 -200.15 -47.15 -200.4 -45.5 -200.65 -45.65 -200.4 M-48.65 -198.75 L-48.9 -199.0 -48.5 -199.0 -48.65 -198.75 M-47.75 -196.4 L-48.15 -196.5 -47.65 -196.65 -47.75 -196.4" fill="url(#gradient53)" fill-rule="evenodd" stroke="none"/>
    <path d="M-64.25 -200.5 L-64.0 -200.9 -60.65 -200.9 -57.75 -200.9 -49.15 -200.9 -49.5 -200.65 -64.25 -200.5" fill="url(#gradient54)" fill-rule="evenodd" stroke="none"/>
    <path d="M-62.65 -192.75 L-64.65 -199.25 -64.65 -200.15 -64.25 -200.5 -49.5 -200.65 -49.65 -200.15 -49.65 -199.4 -47.5 -192.4 -47.5 -192.0 -62.5 -192.4 -62.65 -192.65 -62.65 -192.75" fill="url(#gradient55)" fill-rule="evenodd" stroke="none"/>
    <path d="M-46.75 -200.75 L-48.0 -200.5 -48.4 -200.75 -46.75 -200.75" fill="url(#gradient56)" fill-rule="evenodd" stroke="none"/>
    <path d="M-29.15 -199.4 L-28.75 -199.4 -29.9 -191.0 -30.65 -190.9 -29.75 -194.15 -29.15 -199.4" fill="url(#gradient57)" fill-rule="evenodd" stroke="none"/>
    <path d="M-30.4 -199.25 L-30.0 -199.25 -31.15 -190.9 -31.65 -190.75 -30.4 -199.25" fill="url(#gradient58)" fill-rule="evenodd" stroke="none"/>
    <path d="M-36.25 -197.4 L-36.4 -196.75 -36.9 -196.75 -36.75 -197.4 -36.25 -197.4" fill="url(#gradient59)" fill-rule="evenodd" stroke="none"/>
    <path d="M-19.4 -181.75 L-19.25 -179.15 -19.4 -176.65 -19.75 -176.25 -22.9 -175.65 -23.25 -175.65 -27.15 -174.9 -27.4 -174.9 -28.75 -175.65 -28.65 -176.25 -25.75 -175.5 -20.4 -176.75 -20.15 -179.65 -20.15 -180.65 -20.0 -180.9 -20.0 -181.65 -20.15 -182.5 -20.15 -182.75 -20.0 -184.75 -19.15 -185.0 -19.4 -181.75" fill="url(#gradient60)" fill-rule="evenodd" stroke="none"/>
    <path d="M-27.5 -186.5 L-26.9 -186.75 -27.15 -185.5 -27.25 -184.5 -27.25 -184.4 -27.4 -183.5 -27.25 -180.75 -26.9 -178.65 -26.75 -178.4 -26.75 -177.9 Q-28.5 -179.65 -28.4 -185.15 L-28.4 -185.65 -27.5 -186.5" fill="url(#gradient61)" fill-rule="evenodd" stroke="none"/>
    <path d="M-37.75 -190.0 L-37.0 -195.75 Q-36.25 -195.15 -37.4 -190.0 L-37.75 -190.0" fill="url(#gradient62)" fill-rule="evenodd" stroke="none"/>
    <path d="M-36.65 -190.15 L-34.4 -206.15 -33.9 -206.15 -36.15 -190.25 -36.15 -190.15 -36.65 -190.15" fill="url(#gradient63)" fill-rule="evenodd" stroke="none"/>
    <path d="M-63.25 -189.75 L-62.65 -192.75 -62.65 -192.65 -62.5 -192.4 -47.5 -192.0 -48.0 -189.65 -48.65 -189.65 -62.9 -189.75 -63.25 -189.75" fill="url(#gradient64)" fill-rule="evenodd" stroke="none"/>
    <path d="M-27.65 -191.4 L-28.0 -191.25 -27.0 -198.25 -26.75 -198.15 -27.65 -191.4" fill="url(#gradient65)" fill-rule="evenodd" stroke="none"/>
    <path d="M-28.75 -191.25 L-29.25 -191.0 -28.0 -199.5 -28.75 -191.25" fill="url(#gradient66)" fill-rule="evenodd" stroke="none"/>
    <path d="M-39.0 -189.75 L-38.15 -195.75 Q-37.5 -195.15 -38.65 -189.9 L-39.0 -189.75" fill="url(#gradient67)" fill-rule="evenodd" stroke="none"/>
    <path d="M-63.25 -189.5 L-63.25 -189.75 -62.9 -189.75 -63.25 -189.5" fill="url(#gradient68)" fill-rule="evenodd" stroke="none"/>
    <path d="M-68.5 -184.9 L-67.4 -186.5 -63.25 -189.5 -62.9 -189.75 -48.65 -189.65 -53.5 -186.0 -54.4 -184.65 -68.5 -184.9" fill="url(#gradient69)" fill-rule="evenodd" stroke="none"/>
    <path d="M-48.0 -189.65 L-47.9 -189.0 -48.4 -189.15 -48.65 -189.65 -48.0 -189.65" fill="url(#gradient70)" fill-rule="evenodd" stroke="none"/>
    <path d="M-40.15 -189.65 L-39.4 -196.0 Q-38.5 -195.4 -39.75 -189.75 L-40.15 -189.65" fill="url(#gradient71)" fill-rule="evenodd" stroke="none"/>
    <path d="M-41.5 -189.5 L-40.5 -195.9 Q-39.9 -195.25 -41.15 -189.5 L-41.5 -189.5" fill="url(#gradient72)" fill-rule="evenodd" stroke="none"/>
    <path d="M-42.4 -189.4 Q-43.5 -190.25 -41.65 -196.4 L-42.4 -189.4" fill="url(#gradient73)" fill-rule="evenodd" stroke="none"/>
    <path d="M-60.9 -183.65 L-64.0 -183.65 -64.9 -183.75 -68.5 -183.75 -68.5 -184.9 -54.4 -184.65 -54.5 -183.5 -57.9 -183.5 -58.75 -183.65 -60.9 -183.65" fill="url(#gradient74)" fill-rule="evenodd" stroke="none"/>
    <path d="M-27.25 -184.5 L-27.15 -185.5 -26.65 -186.75 -23.65 -187.65 -22.15 -187.5 -21.25 -186.5 -21.5 -186.5 -21.15 -186.0 -21.25 -185.25 -20.5 -184.4 -27.25 -184.5" fill="url(#gradient75)" fill-rule="evenodd" stroke="none"/>
    <path d="M-26.9 -176.75 L-26.5 -176.75 -26.4 -177.15 -26.65 -177.9 -26.75 -177.9 -26.75 -178.4 -26.9 -178.65 -27.25 -180.75 -27.4 -183.5 -27.25 -184.4 -27.25 -184.5 -20.5 -184.4 -20.15 -182.75 -20.15 -182.5 -20.0 -181.65 -20.0 -180.9 -20.15 -180.65 -20.15 -179.65 -20.9 -177.15 -21.5 -176.9 -26.0 -176.0 -27.4 -176.0 -28.0 -176.75 -26.9 -176.75" fill="url(#gradient76)" fill-rule="evenodd" stroke="none"/>
    <path d="M-28.75 -183.4 L-28.75 -184.65 -28.4 -185.15 Q-28.5 -179.65 -26.75 -177.9 L-26.65 -177.9 -26.4 -177.15 -26.5 -176.75 -26.9 -176.75 -27.65 -177.5 -27.9 -177.9 -27.9 -178.15 -28.25 -178.9 -28.25 -179.15 -28.5 -180.0 -28.5 -180.4 -28.65 -180.9 -28.65 -181.5 -28.75 -182.15 -28.75 -183.4" fill="url(#gradient77)" fill-rule="evenodd" stroke="none"/>
    <path d="M-28.75 -183.4 L-28.75 -182.15 -28.65 -181.5 -28.65 -180.9 -28.5 -180.4 -28.5 -180.0 -28.25 -179.15 -28.25 -178.9 -27.9 -178.15 -27.9 -177.9 -27.65 -177.5 -26.9 -176.75 -28.0 -176.75 -29.4 -179.0 Q-29.9 -183.15 -28.75 -183.4" fill="url(#gradient78)" fill-rule="evenodd" stroke="none"/>
    <path d="M-54.5 -183.5 L-54.25 -184.4 -53.75 -185.0 Q-53.4 -185.65 -48.9 -185.9 L-47.9 -187.25 -45.5 -186.25 Q-42.5 -184.65 -43.0 -174.75 L-44.5 -174.65 Q-43.5 -178.0 -45.65 -182.5 L-46.55 -183.35 -46.95 -183.75 -47.4 -184.15 -47.8 -184.15 -49.0 -184.25 -49.25 -184.25 -49.75 -184.15 -50.15 -184.15 -50.5 -184.0 -54.5 -183.5" fill="url(#gradient79)" fill-rule="evenodd" stroke="none"/>
    <path d="M-58.75 -177.75 L-59.25 -181.0 -60.9 -183.65 -58.75 -183.65 -57.9 -183.5 -54.5 -183.5 -50.5 -184.0 -50.15 -184.15 -49.75 -184.15 -49.25 -184.25 -49.0 -184.25 -47.8 -184.15 -46.95 -183.75 -46.55 -183.35 Q-45.15 -181.75 -44.75 -177.4 L-58.75 -177.75" fill="url(#gradient80)" fill-rule="evenodd" stroke="none"/>
    <path d="M-59.25 -174.15 L-58.75 -177.75 -44.75 -177.4 -45.0 -173.25 -45.5 -171.75 -46.25 -165.5 -52.5 -165.25 -54.65 -163.75 -60.75 -164.0 -60.5 -165.25 -60.65 -165.4 -60.5 -165.65 -59.15 -174.0 -59.25 -174.15" fill="url(#gradient81)" fill-rule="evenodd" stroke="none"/>
    <path d="M-27.75 -174.9 L-28.9 -174.9 -28.75 -175.25 -27.75 -174.9" fill="url(#gradient82)" fill-rule="evenodd" stroke="none"/>
    <path d="M-29.15 -174.5 L-29.0 -174.15 -29.9 -173.4 -29.15 -174.5" fill="url(#gradient83)" fill-rule="evenodd" stroke="none"/>
    <path d="M-61.25 -165.4 L-59.9 -174.15 -59.25 -174.15 -59.15 -174.0 -60.5 -165.65 -60.65 -165.4 -61.25 -165.4" fill="url(#gradient84)" fill-rule="evenodd" stroke="none"/>
    <path d="M-63.0 -158.5 L-61.25 -165.4 -60.65 -165.4 -60.5 -165.25 -60.75 -164.0 -62.0 -159.0 -63.0 -158.5" fill="url(#gradient85)" fill-rule="evenodd" stroke="none"/>
    <path d="M-81.15 -145.25 L-70.0 -154.0 -63.0 -158.5 -62.0 -159.0 -58.4 -161.0 -54.65 -163.75 -52.5 -165.25 -46.25 -165.5 -42.25 -166.9 -38.25 -167.4 -34.5 -164.5 -33.75 -164.5 -31.9 -163.15 -42.25 -157.15 -51.0 -151.15 -59.9 -143.65 -68.9 -137.4 -69.5 -137.65 -78.5 -142.25 -81.15 -145.25" fill="url(#gradient86)" fill-rule="evenodd" stroke="none"/>
    <path d="M-31.0 -165.15 Q-26.9 -160.65 -28.9 -152.9 L-29.0 -152.5 -30.75 -153.25 -31.9 -163.15 -33.75 -164.5 -34.5 -164.5 -38.25 -167.4 Q-37.0 -168.9 -34.4 -168.0 L-31.0 -165.15" fill="url(#gradient87)" fill-rule="evenodd" stroke="none"/>
    <path d="M-54.65 -163.75 L-58.4 -161.0 -62.0 -159.0 -60.75 -164.0 -54.65 -163.75" fill="url(#gradient88)" fill-rule="evenodd" stroke="none"/>
    <path d="M-28.9 -152.9 L-28.65 -151.75 -29.75 -143.75 -36.4 -140.4 -40.9 -134.9 -55.15 -126.15 -59.9 -143.65 -51.0 -151.15 -42.25 -157.15 -31.9 -163.15 -30.75 -153.25 -29.0 -152.5 -28.9 -152.9" fill="url(#gradient89)" fill-rule="evenodd" stroke="none"/>
    <path d="M-68.9 -137.4 L-59.9 -143.65 -55.15 -126.15 -68.9 -137.4" fill="url(#gradient90)" fill-rule="evenodd" stroke="none"/>
    <path d="M-400.0 -83.4 L-400.0 -180.15 -390.25 -170.15 -380.25 -140.25 -374.75 -108.9 -363.65 -87.9 -385.4 -86.5 -400.0 -83.4" fill="url(#gradient91)" fill-rule="evenodd" stroke="none"/>
    <path d="M-298.5 -0.9 L-358.65 -0.9 -376.15 -23.5 -396.75 -53.0 Q-397.5 -53.0 -399.9 -56.5 L-400.0 -83.4 -385.4 -86.5 -363.65 -87.9 -324.75 -41.0 -311.75 -19.65 -298.75 -2.0 -298.5 -0.9" fill="url(#gradient92)" fill-rule="evenodd" stroke="none"/>
    <path d="M-69.5 -137.65 L-75.9 -139.25 -78.5 -142.25 -69.5 -137.65" fill="url(#gradient93)" fill-rule="evenodd" stroke="none"/>
    <path d="M-55.15 -126.15 L-61.65 -118.25 -91.4 -99.65 -105.65 -107.15 -84.0 -122.0 -75.9 -139.25 -69.5 -137.65 -68.9 -137.4 -55.15 -126.15" fill="url(#gradient94)" fill-rule="evenodd" stroke="none"/>
    <path d="M-358.65 -0.9 L-385.4 -0.9 -400.0 -18.25 -399.9 -56.5 Q-397.5 -53.0 -396.75 -53.0 L-376.15 -23.5 -358.65 -0.9" fill="url(#gradient95)" fill-rule="evenodd" stroke="none"/>
    <path d="M-216.75 -283.65 L-214.5 -282.9 -214.5 -282.65 -209.15 -280.5 -210.9 -280.0 -211.0 -279.75 -213.25 -278.9 -215.15 -281.4 -215.25 -281.65 -216.75 -283.65" fill="#ac0000" fill-rule="evenodd" stroke="none"/>
    <path d="M-213.25 -278.9 L-211.0 -279.75 -210.9 -280.0 -209.15 -280.5 -206.9 -277.4 -206.75 -277.0 -200.5 -268.9 -200.0 -263.15 -200.0 -262.75 -198.15 -239.65 -197.75 -238.9 -182.9 -218.25 -181.5 -216.65 -180.75 -215.0 -179.5 -213.65 -178.9 -212.5 -177.9 -211.4 -176.5 -209.25 -172.75 -204.25 -172.25 -202.15 -172.15 -200.9 -170.75 -193.0 -170.65 -192.9 -165.65 -164.4 -175.65 -170.65 -176.25 -170.9 -201.75 -187.0 -202.15 -187.15 -221.25 -199.15 -222.65 -199.9 -189.75 -205.25 -188.65 -205.65 -187.4 -205.75 -187.25 -205.9 -186.65 -205.9 -181.75 -206.75 -181.5 -206.9 -182.15 -207.65 -185.15 -212.0 -185.5 -212.25 -188.65 -217.0 -188.9 -217.15 -189.75 -218.5 -190.15 -218.75 -190.4 -219.4 -206.65 -242.65 -207.65 -257.25 -207.4 -258.65 -207.65 -259.9 -208.15 -269.9 -208.25 -270.4 -208.4 -270.65 -208.4 -272.65 -213.25 -278.9" fill="#9e0000" fill-opacity="0.9098039" fill-rule="evenodd" stroke="none"/>
    <path d="M-148.65 -249.15 L-149.0 -249.0 -149.4 -248.75 -151.0 -248.15 -153.0 -249.9 -149.65 -250.0 -148.9 -249.4 -148.65 -249.15 M-104.65 -170.9 L-97.25 -163.4 -97.15 -163.0 -96.25 -157.0 -101.5 -157.25 -104.65 -170.9 M-157.75 -253.9 L-157.0 -253.15 -153.0 -249.9 -156.15 -249.9 -162.9 -253.15 -163.65 -253.65 -159.25 -254.15 -157.75 -253.9 M-216.75 -283.65 L-215.25 -281.65 -215.15 -281.4 -213.25 -278.9 -217.25 -277.5 -217.4 -277.4 -222.25 -275.5 -224.0 -274.4 -224.25 -274.0 -224.65 -273.9 -229.65 -270.65 -230.0 -270.25 -233.65 -267.5 -239.25 -264.25 -247.9 -264.75 -247.5 -266.15 -247.5 -266.25 -247.25 -267.15 -242.75 -269.75 -238.25 -273.4 -230.15 -279.0 -227.15 -280.0 -227.0 -280.25 -216.75 -283.65" fill="#9b0000" fill-opacity="0.9098039" fill-rule="evenodd" stroke="none"/>
    <path d="M-103.65 -148.0 L-103.65 -149.0 -103.75 -149.4 -103.75 -150.75 -103.9 -150.9 -103.9 -151.9 -102.5 -152.65 -103.25 -149.65 -103.25 -148.5 -103.65 -148.0 M-222.65 -199.9 L-222.65 -199.0 -223.5 -193.0 -223.4 -192.75 -224.9 -181.15 -225.0 -180.9 -224.9 -180.65 -228.4 -152.75 -228.5 -152.65 -228.5 -151.75 -229.0 -148.4 -229.0 -147.9 -230.4 -138.15 -230.65 -137.75 -230.65 -135.4 -231.75 -126.75 -232.0 -126.65 -232.0 -124.9 -232.25 -123.0 -232.65 -122.4 -233.5 -113.9 -233.5 -113.4 -234.0 -109.5 -234.25 -109.15 -234.15 -108.65 -234.25 -107.65 -234.4 -107.0 -237.0 -108.15 -237.25 -108.4 -246.15 -112.4 -246.25 -112.4 -246.75 -112.9 -247.4 -112.9 -248.4 -113.65 -267.4 -122.25 -267.4 -122.4 -267.65 -122.4 -282.5 -129.4 -282.65 -129.5 -285.9 -131.0 -288.65 -130.5 -289.15 -130.5 -292.9 -130.0 -293.15 -129.9 -295.9 -129.5 -294.5 -145.15 -294.25 -146.5 -293.4 -156.9 -293.5 -158.0 -293.25 -158.65 -290.25 -161.75 -290.0 -162.25 -286.25 -166.25 -286.0 -166.9 -282.5 -170.75 -280.0 -171.75 -279.9 -172.0 -275.65 -173.9 -275.4 -174.25 -268.65 -177.4 -268.5 -177.65 -258.15 -182.5 -257.5 -183.0 -256.15 -183.5 -252.25 -185.5 -251.75 -185.65 -234.25 -194.15 -234.15 -194.4 -222.65 -199.9" fill="#da0000" fill-opacity="0.9098039" fill-rule="evenodd" stroke="none"/>
    <path d="M-293.5 -158.0 L-293.4 -156.9 -294.25 -146.5 -294.5 -145.15 -295.9 -129.5 -303.15 -128.5 -303.4 -128.4 -304.0 -128.0 -304.25 -127.9 -304.9 -127.5 -305.15 -127.4 -305.4 -127.25 -305.65 -127.15 -306.25 -126.75 -306.5 -126.65 -307.15 -126.25 -307.4 -126.15 -307.65 -126.0 -307.9 -125.9 -308.5 -125.5 -308.75 -125.4 -309.4 -125.0 -309.65 -124.9 -309.9 -124.75 -310.15 -124.65 -312.4 -122.65 -312.65 -122.4 -312.75 -122.25 -315.5 -119.75 -315.9 -119.65 -313.5 -128.5 -305.9 -144.0 -293.5 -158.0" fill="#f00000" fill-opacity="0.9098039" fill-rule="evenodd" stroke="none"/>
    <path d="M-315.9 -119.65 L-315.5 -119.75 -312.75 -122.25 -312.65 -122.4 -312.4 -122.65 -310.15 -124.65 -309.9 -124.75 -309.65 -124.9 -309.4 -125.0 -308.75 -125.4 -308.5 -125.5 -307.9 -125.9 -307.65 -126.0 -307.4 -126.15 -307.15 -126.25 -306.5 -126.65 -306.25 -126.75 -305.65 -127.15 -305.4 -127.25 -305.15 -127.4 -304.9 -127.5 -304.25 -127.9 -304.0 -128.0 -303.4 -128.4 -303.15 -128.5 -295.9 -129.5 -297.0 -115.4 -297.25 -113.9 -296.9 -100.75 -297.65 -101.15 -316.0 -119.25 -315.9 -119.65" fill="#f30000" fill-opacity="0.9098039" fill-rule="evenodd" stroke="none"/>
    <path d="M-165.65 -164.4 L-164.0 -161.0 -163.9 -160.15 -161.15 -153.65 -160.9 -153.4 -155.5 -140.4 -155.5 -139.9 -155.0 -139.25 -155.15 -139.0 -154.15 -137.15 -154.15 -136.75 -153.25 -134.65 -153.0 -134.5 -148.15 -123.0 -148.15 -122.4 -146.15 -118.15 -145.75 -116.65 -145.25 -115.75 -136.5 -120.15 -136.25 -120.4 -116.15 -130.4 -116.0 -130.65 -106.0 -135.65 -104.4 -143.9 -104.25 -144.15 -104.15 -145.0 -103.65 -146.4 -103.65 -146.65 -103.5 -146.4 -103.4 -146.0 -103.4 -145.75 -103.25 -144.65 -103.25 -144.15 -103.4 -143.65 -102.75 -140.9 -103.15 -138.5 -103.0 -138.0 -104.15 -130.4 -104.0 -129.5 -104.5 -128.4 -107.4 -119.75 -108.0 -118.4 -112.65 -110.15 -112.9 -110.0 -113.5 -109.15 -120.15 -101.75 -126.5 -96.75 -130.15 -94.4 -130.4 -94.4 -130.5 -94.4 -138.65 -95.65 -138.9 -95.75 -158.65 -98.65 -158.9 -98.75 -177.0 -103.4 -204.4 -105.0 -204.65 -105.15 -214.15 -105.65 -214.25 -105.4 -223.25 -106.25 -224.15 -106.4 -225.65 -106.25 -230.9 -106.75 -231.75 -106.75 -232.0 -106.9 -234.4 -107.0 -234.25 -107.65 -234.15 -108.65 -234.25 -109.15 -234.0 -109.5 -233.5 -113.4 -233.5 -113.9 -232.65 -122.4 -232.25 -123.0 -232.0 -124.9 -232.0 -126.65 -231.75 -126.75 -230.65 -135.4 -230.65 -137.75 -230.4 -138.15 -229.0 -147.9 -229.0 -148.4 -228.5 -151.75 -228.5 -152.65 -228.4 -152.75 -224.9 -180.65 -225.0 -180.9 -224.9 -181.15 -223.4 -192.75 -223.5 -193.0 -222.65 -199.0 -222.65 -199.9 -221.25 -199.15 -202.15 -187.15 -201.75 -187.0 -176.25 -170.9 -175.65 -170.65 -165.65 -164.4 M-102.4 -152.9 L-101.9 -154.75 -102.0 -155.65 -101.5 -157.25 -96.25 -157.0 -102.4 -152.9 M-191.4 -133.15 L-191.15 -132.9 -190.4 -133.25 -190.25 -133.65 -189.4 -138.0 -189.5 -138.4 -189.75 -138.5 -191.5 -133.5 -191.25 -133.4 -191.4 -133.15 M-108.75 -122.4 L-108.9 -122.15 -109.25 -120.9 -108.25 -122.4 -108.15 -122.5 -107.75 -123.4 -108.4 -123.4 -108.75 -122.4" fill="#b00000" fill-opacity="0.9098039" fill-rule="evenodd" stroke="none"/>
    <path d="M-295.9 -129.5 L-293.15 -129.9 -292.9 -130.0 -289.15 -130.5 -288.65 -130.5 -285.9 -131.0 -282.65 -129.5 -282.5 -129.4 -267.65 -122.4 -267.4 -122.4 -267.4 -122.25 -248.4 -113.65 -247.4 -112.9 -246.75 -112.9 -246.25 -112.4 -246.15 -112.4 -237.25 -108.4 -237.0 -108.15 -234.4 -107.0 -234.25 -105.65 -234.15 -105.25 -231.75 -89.0 -231.9 -88.15 -223.9 -31.4 -224.0 -31.15 -223.9 -30.0 -225.65 -1.5 -225.65 -0.9 -298.5 -0.9 -298.75 -2.0 -297.9 -11.0 -298.0 -11.4 -294.5 -39.4 -296.9 -100.75 -297.25 -113.9 -297.0 -115.4 -295.9 -129.5" fill="#dd0000" fill-opacity="0.9098039" fill-rule="evenodd" stroke="none"/>
    <path d="M-316.0 -119.25 L-297.65 -101.15 -296.9 -100.75 -294.5 -39.4 -298.0 -11.4 -297.9 -11.0 -298.75 -2.0 -299.15 -2.25 -299.4 -2.65 -311.65 -19.4 -311.75 -19.75 -314.65 -24.75 -313.0 -36.4 -316.0 -119.25" fill="#ed0000" fill-rule="evenodd" stroke="none"/>
    <path d="M-149.65 -250.0 L-153.0 -249.9 -157.0 -253.15 -157.75 -253.9 -151.25 -250.9 -150.65 -250.4 -149.65 -250.0" fill="#a90000" fill-rule="evenodd" stroke="none"/>
    <path d="M-151.0 -248.15 L-149.4 -248.75 -149.0 -249.0 -148.65 -249.15 -135.4 -238.0 -129.15 -209.25 -99.15 -176.75 -97.25 -163.4 -104.65 -170.9 -104.9 -171.4 -106.15 -177.5 -135.75 -212.15 -141.5 -240.4 -151.0 -248.15" fill="#ab0000" fill-opacity="0.9098039" fill-rule="evenodd" stroke="none"/>
    <path d="M-103.65 -146.65 L-103.5 -147.4 -103.5 -147.5 -103.65 -147.9 -103.65 -148.0 -103.25 -148.5 -103.25 -149.65 -102.5 -152.65 -102.4 -152.9 -96.25 -157.0 -95.4 -136.15 -95.15 -134.65 -95.4 -133.75 -95.15 -133.0 -95.15 -130.4 -94.9 -130.15 -95.15 -129.15 -94.9 -124.9 -104.0 -108.4 -104.4 -107.9 -105.0 -106.65 -105.65 -107.15 -112.65 -110.15 -108.0 -118.4 -107.4 -119.75 -104.5 -128.4 -104.0 -129.5 -104.15 -130.4 -103.0 -138.0 -103.15 -138.5 -102.75 -140.9 -103.4 -143.65 -103.25 -144.15 -103.25 -144.65 -103.4 -145.75 -103.4 -146.0 -103.5 -146.4 -103.65 -146.65" fill="#c40000" fill-rule="evenodd" stroke="none"/>
    <path d="M-130.15 -94.4 L-126.5 -96.75 -120.15 -101.75 -113.5 -109.15 -112.9 -110.0 -112.65 -110.15 -105.65 -107.15 -105.0 -106.65 -114.75 -88.9 -115.65 -89.4 -124.75 -93.65 -130.15 -94.4" fill="#c60000" fill-rule="evenodd" stroke="none"/>
    <path d="M-130.4 -94.4 L-130.15 -94.4 -124.75 -93.65 -115.65 -89.4 -114.75 -88.9 -140.9 -28.25 -141.75 -0.9 -153.75 -0.9 -153.9 -2.4 -152.75 -31.75 -140.25 -82.25 -140.4 -82.5 -140.15 -82.75 -140.25 -83.0 -138.25 -90.65 -130.4 -94.4" fill="#bc0000" fill-rule="evenodd" stroke="none"/>
    <path d="M-234.4 -107.0 L-232.0 -106.9 -231.75 -106.75 -230.9 -106.75 -225.65 -106.25 -224.15 -106.4 -223.25 -106.25 -214.25 -105.4 -214.15 -105.65 -204.65 -105.15 -204.4 -105.0 -177.0 -103.4 -158.9 -98.75 -158.65 -98.65 -138.9 -95.75 -138.65 -95.65 -130.5 -94.4 -130.4 -94.4 -138.25 -90.65 -140.25 -83.0 -140.15 -82.75 -140.4 -82.5 -140.25 -82.25 -152.75 -31.75 -153.9 -2.4 -153.75 -0.9 -225.65 -0.9 -225.65 -1.5 -223.9 -30.0 -224.0 -31.15 -223.9 -31.4 -231.9 -88.15 -231.75 -89.0 -234.15 -105.25 -234.25 -105.65 -234.4 -107.0" fill="#a60000" fill-opacity="0.9098039" fill-rule="evenodd" stroke="none"/>
  </g>
  <defs>
    <radialGradient cx="0" cy="0" gradientTransform="matrix(0.1584, 0.0, 0.0, 0.1584, -191.2, -257.45)" gradientUnits="userSpaceOnUse" id="gradient0" r="819.2" spreadMethod="pad">
      <stop offset="0.0" stop-color="#414141"/>
      <stop offset="1.0" stop-color="#1a1a1a"/>
    </radialGradient>
    <radialGradient cx="0" cy="0" gradientTransform="matrix(0.1672, 0.0, 0.0, 0.1672, -151.75, -287.85)" gradientUnits="userSpaceOnUse" id="gradient1" r="819.2" spreadMethod="pad">
      <stop offset="0.0" stop-color="#7d7d7d"/>
      <stop offset="1.0" stop-color="#000000"/>
    </radialGradient>
    <radialGradient cx="0" cy="0" gradientTransform="matrix(0.059, 0.0, 0.0, 0.059, -206.0, -262.7)" gradientUnits="userSpaceOnUse" id="gradient2" r="819.2" spreadMethod="pad">
      <stop offset="0.0" stop-color="#000000"/>
      <stop offset="1.0" stop-color="#000000"/>
    </radialGradient>
    <radialGradient cx="0" cy="0" gradientTransform="matrix(0.0857, 0.0, 0.0, 0.0857, -265.85, -196.4)" gradientUnits="userSpaceOnUse" id="gradient3" r="819.2" spreadMethod="pad">
      <stop offset="0.0" stop-color="#171717"/>
      <stop offset="1.0" stop-color="#000000"/>
    </radialGradient>
    <radialGradient cx="0" cy="0" gradientTransform="matrix(0.0404, 0.0, 0.0, 0.0404, -283.45, -263.5)" gradientUnits="userSpaceOnUse" id="gradient4" r="819.2" spreadMethod="pad">
      <stop offset="0.0" stop-color="#0d0d0d"/>
      <stop offset="1.0" stop-color="#000000"/>
    </radialGradient>
    <radialGradient cx="0" cy="0" gradientTransform="matrix(0.1084, 0.0, 0.0, 0.1084, -356.95, -239.05)" gradientUnits="userSpaceOnUse" id="gradient5" r="819.2" spreadMethod="pad">
      <stop offset="0.0" stop-color="#525252"/>
      <stop offset="1.0" stop-color="#040404"/>
    </radialGradient>
    <radialGradient cx="0" cy="0" gradientTransform="matrix(0.0347, 0.0, 0.0, 0.0347, -180.45, -262.0)" gradientUnits="userSpaceOnUse" id="gradient6" r="819.2" spreadMethod="pad">
      <stop offset="0.0" stop-color="#000000"/>
      <stop offset="1.0" stop-color="#000000"/>
    </radialGradient>
    <radialGradient cx="0" cy="0" gradientTransform="matrix(0.2024, 0.0, 0.0, 0.2024, -179.8, -99.0)" gradientUnits="userSpaceOnUse" id="gradient7" r="819.2" spreadMethod="pad">
      <stop offset="0.0" stop-color="#6a6a6a"/>
      <stop offset="1.0" stop-color="#000000"/>
    </radialGradient>
    <radialGradient cx="0" cy="0" gradientTransform="matrix(0.0505, 0.0, 0.0, 0.0505, -224.1, -274.1)" gradientUnits="userSpaceOnUse" id="gradient8" r="819.2" spreadMethod="pad">
      <stop offset="0.0" stop-color="#030303"/>
      <stop offset="1.0" stop-color="#000000"/>
    </radialGradient>
    <radialGradient cx="0" cy="0" gradientTransform="matrix(0.0256, 0.0, 0.0, 0.0256, -182.75, -276.65)" gradientUnits="userSpaceOnUse" id="gradient9" r="819.2" spreadMethod="pad">
      <stop offset="0.0" stop-color="#797979"/>
      <stop offset="1.0" stop-color="#000000"/>
    </radialGradient>
    <radialGradient cx="0" cy="0" gradientTransform="matrix(0.0517, 0.0, 0.0, 0.0517, -223.3, -279.4)" gradientUnits="userSpaceOnUse" id="gradient10" r="819.2" spreadMethod="pad">
      <stop offset="0.0" stop-color="#1a1a1a"/>
      <stop offset="1.0" stop-color="#000000"/>
    </radialGradient>
    <radialGradient cx="0" cy="0" gradientTransform="matrix(0.0611, 0.0, 0.0, 0.0611, -266.1, -253.5)" gradientUnits="userSpaceOnUse" id="gradient11" r="819.2" spreadMethod="pad">
      <stop offset="0.0" stop-color="#3c3c3c"/>
      <stop offset="1.0" stop-color="#0a0a0a"/>
    </radialGradient>
    <radialGradient cx="0" cy="0" gradientTransform="matrix(0.0157, 0.0, 0.0, 0.0157, -99.3, -288.55)" gradientUnits="userSpaceOnUse" id="gradient12" r="819.2" spreadMethod="pad">
      <stop offset="0.0" stop-color="#161616"/>
      <stop offset="1.0" stop-color="#111111"/>
    </radialGradient>
    <radialGradient cx="0" cy="0" gradientTransform="matrix(0.0336, 0.0, 0.0, 0.0336, -289.95, -300.0)" gradientUnits="userSpaceOnUse" id="gradient13" r="819.2" spreadMethod="pad">
      <stop offset="0.0" stop-color="#090909"/>
      <stop offset="1.0" stop-color="#080808"/>
    </radialGradient>
    <radialGradient cx="0" cy="0" gradientTransform="matrix(0.0282, 0.0, 0.0, 0.0282, -301.85, -276.65)" gradientUnits="userSpaceOnUse" id="gradient14" r="819.2" spreadMethod="pad">
      <stop offset="0.0" stop-color="#080808"/>
      <stop offset="1.0" stop-color="#080808"/>
    </radialGradient>
    <radialGradient cx="0" cy="0" gradientTransform="matrix(0.139, 0.0, 0.0, 0.139, -328.45, -165.2)" gradientUnits="userSpaceOnUse" id="gradient15" r="819.2" spreadMethod="pad">
      <stop offset="0.0" stop-color="#6a6a6a"/>
      <stop offset="1.0" stop-color="#000000"/>
    </radialGradient>
    <radialGradient cx="0" cy="0" gradientTransform="matrix(0.0298, 0.0, 0.0, 0.0298, -287.0, -184.2)" gradientUnits="userSpaceOnUse" id="gradient16" r="819.2" spreadMethod="pad">
      <stop offset="0.0" stop-color="#2f2f2f"/>
      <stop offset="1.0" stop-color="#171717"/>
    </radialGradient>
    <radialGradient cx="0" cy="0" gradientTransform="matrix(0.1868, 0.0, 0.0, 0.1868, -267.3, -122.5)" gradientUnits="userSpaceOnUse" id="gradient17" r="819.2" spreadMethod="pad">
      <stop offset="0.0" stop-color="#626262"/>
      <stop offset="1.0" stop-color="#000000"/>
    </radialGradient>
    <radialGradient cx="0" cy="0" gradientTransform="matrix(0.0327, 0.0, 0.0, 0.0327, -284.65, -182.7)" gradientUnits="userSpaceOnUse" id="gradient18" r="819.2" spreadMethod="pad">
      <stop offset="0.0" stop-color="#000000"/>
      <stop offset="1.0" stop-color="#000000"/>
    </radialGradient>
    <radialGradient cx="0" cy="0" gradientTransform="matrix(0.1493, 0.0, 0.0, 0.1493, -238.65, -147.7)" gradientUnits="userSpaceOnUse" id="gradient19" r="819.2" spreadMethod="pad">
      <stop offset="0.0" stop-color="#323232"/>
      <stop offset="1.0" stop-color="#000000"/>
    </radialGradient>
    <radialGradient cx="0" cy="0" gradientTransform="matrix(0.1373, 0.0, 0.0, 0.1373, -179.75, -119.8)" gradientUnits="userSpaceOnUse" id="gradient20" r="819.2" spreadMethod="pad">
      <stop offset="0.0" stop-color="#858585"/>
      <stop offset="1.0" stop-color="#0d0d0d"/>
    </radialGradient>
    <radialGradient cx="0" cy="0" gradientTransform="matrix(0.1294, 0.0, 0.0, 0.1294, -179.8, -99.0)" gradientUnits="userSpaceOnUse" id="gradient21" r="819.2" spreadMethod="pad">
      <stop offset="0.0" stop-color="#6a6a6a"/>
      <stop offset="1.0" stop-color="#020202"/>
    </radialGradient>
    <radialGradient cx="0" cy="0" gradientTransform="matrix(0.1071, 0.0, 0.0, 0.1071, -254.9, -37.45)" gradientUnits="userSpaceOnUse" id="gradient22" r="819.2" spreadMethod="pad">
      <stop offset="0.0" stop-color="#838383"/>
      <stop offset="1.0" stop-color="#080808"/>
    </radialGradient>
    <radialGradient cx="0" cy="0" gradientTransform="matrix(0.0947, 0.0, 0.0, 0.0947, -134.85, -168.75)" gradientUnits="userSpaceOnUse" id="gradient23" r="819.2" spreadMethod="pad">
      <stop offset="0.0" stop-color="#595959"/>
      <stop offset="1.0" stop-color="#000000"/>
    </radialGradient>
    <radialGradient cx="0" cy="0" gradientTransform="matrix(0.1157, 0.0, 0.0, 0.1157, -128.3, -105.95)" gradientUnits="userSpaceOnUse" id="gradient24" r="819.2" spreadMethod="pad">
      <stop offset="0.0" stop-color="#878787"/>
      <stop offset="1.0" stop-color="#000000"/>
    </radialGradient>
    <radialGradient cx="0" cy="0" gradientTransform="matrix(0.0077, 0.0, 0.0, 0.0077, -7.25, -212.5)" gradientUnits="userSpaceOnUse" id="gradient25" r="819.2" spreadMethod="pad">
      <stop offset="0.0" stop-color="#303030"/>
      <stop offset="1.0" stop-color="#212121"/>
    </radialGradient>
    <radialGradient cx="0" cy="0" gradientTransform="matrix(0.0482, 0.0, 0.0, 0.0482, -1.0, -211.6)" gradientUnits="userSpaceOnUse" id="gradient26" r="819.2" spreadMethod="pad">
      <stop offset="0.0" stop-color="#111111"/>
      <stop offset="1.0" stop-color="#111111"/>
    </radialGradient>
    <radialGradient cx="0" cy="0" gradientTransform="matrix(0.018, 0.0, 0.0, 0.018, -40.75, -207.85)" gradientUnits="userSpaceOnUse" id="gradient27" r="819.2" spreadMethod="pad">
      <stop offset="0.0" stop-color="#040404"/>
      <stop offset="1.0" stop-color="#040404"/>
    </radialGradient>
    <radialGradient cx="0" cy="0" gradientTransform="matrix(0.0186, 0.0, 0.0, 0.0186, -41.9, -207.7)" gradientUnits="userSpaceOnUse" id="gradient28" r="819.2" spreadMethod="pad">
      <stop offset="0.0" stop-color="#060606"/>
      <stop offset="1.0" stop-color="#060606"/>
    </radialGradient>
    <radialGradient cx="0" cy="0" gradientTransform="matrix(0.0124, 0.0, 0.0, 0.0124, -25.35, -199.9)" gradientUnits="userSpaceOnUse" id="gradient29" r="819.2" spreadMethod="pad">
      <stop offset="0.0" stop-color="#060606"/>
      <stop offset="1.0" stop-color="#060606"/>
    </radialGradient>
    <radialGradient cx="0" cy="0" gradientTransform="matrix(0.0186, 0.0, 0.0, 0.0186, -47.9, -206.7)" gradientUnits="userSpaceOnUse" id="gradient30" r="819.2" spreadMethod="pad">
      <stop offset="0.0" stop-color="#202020"/>
      <stop offset="1.0" stop-color="#202020"/>
    </radialGradient>
    <radialGradient cx="0" cy="0" gradientTransform="matrix(0.03, 0.0, 0.0, 0.03, -25.2, -198.15)" gradientUnits="userSpaceOnUse" id="gradient31" r="819.2" spreadMethod="pad">
      <stop offset="0.0" stop-color="#040404"/>
      <stop offset="1.0" stop-color="#040404"/>
    </radialGradient>
    <radialGradient cx="0" cy="0" gradientTransform="matrix(0.0181, 0.0, 0.0, 0.0181, -56.0, -207.95)" gradientUnits="userSpaceOnUse" id="gradient32" r="819.2" spreadMethod="pad">
      <stop offset="0.0" stop-color="#040404"/>
      <stop offset="1.0" stop-color="#040404"/>
    </radialGradient>
    <radialGradient cx="0" cy="0" gradientTransform="matrix(0.0182, 0.0, 0.0, 0.0182, -57.15, -207.85)" gradientUnits="userSpaceOnUse" id="gradient33" r="819.2" spreadMethod="pad">
      <stop offset="0.0" stop-color="#262626"/>
      <stop offset="1.0" stop-color="#262626"/>
    </radialGradient>
    <radialGradient cx="0" cy="0" gradientTransform="matrix(0.0182, 0.0, 0.0, 0.0182, -57.85, -205.2)" gradientUnits="userSpaceOnUse" id="gradient34" r="819.2" spreadMethod="pad">
      <stop offset="0.0" stop-color="#303030"/>
      <stop offset="1.0" stop-color="#303030"/>
    </radialGradient>
    <radialGradient cx="0" cy="0" gradientTransform="matrix(0.021, 0.0, 0.0, 0.021, -43.6, -204.45)" gradientUnits="userSpaceOnUse" id="gradient35" r="819.2" spreadMethod="pad">
      <stop offset="0.0" stop-color="#828282"/>
      <stop offset="1.0" stop-color="#808080"/>
    </radialGradient>
    <radialGradient cx="0" cy="0" gradientTransform="matrix(0.0184, 0.0, 0.0, 0.0184, -13.85, -202.8)" gradientUnits="userSpaceOnUse" id="gradient36" r="819.2" spreadMethod="pad">
      <stop offset="0.0" stop-color="#111111"/>
      <stop offset="1.0" stop-color="#111111"/>
    </radialGradient>
    <radialGradient cx="0" cy="0" gradientTransform="matrix(0.0181, 0.0, 0.0, 0.0181, -50.35, -206.5)" gradientUnits="userSpaceOnUse" id="gradient37" r="819.2" spreadMethod="pad">
      <stop offset="0.0" stop-color="#0a0a0a"/>
      <stop offset="1.0" stop-color="#0a0a0a"/>
    </radialGradient>
    <radialGradient cx="0" cy="0" gradientTransform="matrix(0.0205, 0.0, 0.0, 0.0205, -32.65, -206.95)" gradientUnits="userSpaceOnUse" id="gradient38" r="819.2" spreadMethod="pad">
      <stop offset="0.0" stop-color="#020202"/>
      <stop offset="1.0" stop-color="#020202"/>
    </radialGradient>
    <radialGradient cx="0" cy="0" gradientTransform="matrix(0.0107, 0.0, 0.0, 0.0107, -32.55, -199.15)" gradientUnits="userSpaceOnUse" id="gradient39" r="819.2" spreadMethod="pad">
      <stop offset="0.0" stop-color="#020202"/>
      <stop offset="1.0" stop-color="#020202"/>
    </radialGradient>
    <radialGradient cx="0" cy="0" gradientTransform="matrix(0.0233, 0.0, 0.0, 0.0233, -19.25, -185.15)" gradientUnits="userSpaceOnUse" id="gradient40" r="819.2" spreadMethod="pad">
      <stop offset="0.0" stop-color="#050505"/>
      <stop offset="1.0" stop-color="#050505"/>
    </radialGradient>
    <radialGradient cx="0" cy="0" gradientTransform="matrix(0.0107, 0.0, 0.0, 0.0107, -31.25, -199.3)" gradientUnits="userSpaceOnUse" id="gradient41" r="819.2" spreadMethod="pad">
      <stop offset="0.0" stop-color="#020202"/>
      <stop offset="1.0" stop-color="#020202"/>
    </radialGradient>
    <radialGradient cx="0" cy="0" gradientTransform="matrix(0.0159, 0.0, 0.0, 0.0159, -14.0, -202.9)" gradientUnits="userSpaceOnUse" id="gradient42" r="819.2" spreadMethod="pad">
      <stop offset="0.0" stop-color="#050505"/>
      <stop offset="1.0" stop-color="#050505"/>
    </radialGradient>
    <radialGradient cx="0" cy="0" gradientTransform="matrix(0.0469, 0.0, 0.0, 0.0469, -19.6, -176.5)" gradientUnits="userSpaceOnUse" id="gradient43" r="819.2" spreadMethod="pad">
      <stop offset="0.0" stop-color="#040404"/>
      <stop offset="1.0" stop-color="#040404"/>
    </radialGradient>
    <radialGradient cx="0" cy="0" gradientTransform="matrix(0.0274, 0.0, 0.0, 0.0274, -22.85, -198.75)" gradientUnits="userSpaceOnUse" id="gradient44" r="819.2" spreadMethod="pad">
      <stop offset="0.0" stop-color="#171717"/>
      <stop offset="1.0" stop-color="#171717"/>
    </radialGradient>
    <radialGradient cx="0" cy="0" gradientTransform="matrix(0.0333, 0.0, 0.0, 0.0333, -26.5, -191.65)" gradientUnits="userSpaceOnUse" id="gradient45" r="819.2" spreadMethod="pad">
      <stop offset="0.0" stop-color="#040404"/>
      <stop offset="1.0" stop-color="#040404"/>
    </radialGradient>
    <radialGradient cx="0" cy="0" gradientTransform="matrix(0.0194, 0.0, 0.0, 0.0194, -43.6, -204.45)" gradientUnits="userSpaceOnUse" id="gradient46" r="819.2" spreadMethod="pad">
      <stop offset="0.0" stop-color="#171717"/>
      <stop offset="1.0" stop-color="#171717"/>
    </radialGradient>
    <radialGradient cx="0" cy="0" gradientTransform="matrix(0.01, 0.0, 0.0, 0.01, -42.55, -197.25)" gradientUnits="userSpaceOnUse" id="gradient47" r="819.2" spreadMethod="pad">
      <stop offset="0.0" stop-color="#020202"/>
      <stop offset="1.0" stop-color="#020202"/>
    </radialGradient>
    <radialGradient cx="0" cy="0" gradientTransform="matrix(0.0283, 0.0, 0.0, 0.0283, -135.65, -201.1)" gradientUnits="userSpaceOnUse" id="gradient48" r="819.2" spreadMethod="pad">
      <stop offset="0.0" stop-color="#000000"/>
      <stop offset="1.0" stop-color="#000000"/>
    </radialGradient>
    <radialGradient cx="0" cy="0" gradientTransform="matrix(0.0623, 0.0, 0.0, 0.0623, -115.25, -157.3)" gradientUnits="userSpaceOnUse" id="gradient49" r="819.2" spreadMethod="pad">
      <stop offset="0.0" stop-color="#616161"/>
      <stop offset="1.0" stop-color="#000000"/>
    </radialGradient>
    <radialGradient cx="0" cy="0" gradientTransform="matrix(0.0187, 0.0, 0.0, 0.0187, -60.45, -201.15)" gradientUnits="userSpaceOnUse" id="gradient50" r="819.2" spreadMethod="pad">
      <stop offset="0.0" stop-color="#222222"/>
      <stop offset="1.0" stop-color="#222222"/>
    </radialGradient>
    <radialGradient cx="0" cy="0" gradientTransform="matrix(0.0086, 0.0, 0.0, 0.0086, -46.8, -196.0)" gradientUnits="userSpaceOnUse" id="gradient51" r="819.2" spreadMethod="pad">
      <stop offset="0.0" stop-color="#020202"/>
      <stop offset="1.0" stop-color="#020202"/>
    </radialGradient>
    <radialGradient cx="0" cy="0" gradientTransform="matrix(0.0182, 0.0, 0.0, 0.0182, -47.7, -200.4)" gradientUnits="userSpaceOnUse" id="gradient52" r="819.2" spreadMethod="pad">
      <stop offset="0.0" stop-color="#171717"/>
      <stop offset="1.0" stop-color="#171717"/>
    </radialGradient>
    <radialGradient cx="0" cy="0" gradientTransform="matrix(0.0061, 0.0, 0.0, 0.0061, -46.5, -198.35)" gradientUnits="userSpaceOnUse" id="gradient53" r="819.2" spreadMethod="pad">
      <stop offset="0.0" stop-color="#171717"/>
      <stop offset="1.0" stop-color="#171717"/>
    </radialGradient>
    <radialGradient cx="0" cy="0" gradientTransform="matrix(0.0186, 0.0, 0.0, 0.0186, -49.3, -200.8)" gradientUnits="userSpaceOnUse" id="gradient54" r="819.2" spreadMethod="pad">
      <stop offset="0.0" stop-color="#828282"/>
      <stop offset="1.0" stop-color="#6c6c6c"/>
    </radialGradient>
    <radialGradient cx="0" cy="0" gradientTransform="matrix(0.0187, 0.0, 0.0, 0.0187, -49.5, -200.6)" gradientUnits="userSpaceOnUse" id="gradient55" r="819.2" spreadMethod="pad">
      <stop offset="0.0" stop-color="#303030"/>
      <stop offset="1.0" stop-color="#242424"/>
    </radialGradient>
    <radialGradient cx="0" cy="0" gradientTransform="matrix(0.0182, 0.0, 0.0, 0.0182, -48.3, -200.6)" gradientUnits="userSpaceOnUse" id="gradient56" r="819.2" spreadMethod="pad">
      <stop offset="0.0" stop-color="#040404"/>
      <stop offset="1.0" stop-color="#040404"/>
    </radialGradient>
    <radialGradient cx="0" cy="0" gradientTransform="matrix(0.0107, 0.0, 0.0, 0.0107, -28.8, -199.55)" gradientUnits="userSpaceOnUse" id="gradient57" r="819.2" spreadMethod="pad">
      <stop offset="0.0" stop-color="#020202"/>
      <stop offset="1.0" stop-color="#020202"/>
    </radialGradient>
    <radialGradient cx="0" cy="0" gradientTransform="matrix(0.0107, 0.0, 0.0, 0.0107, -30.05, -199.45)" gradientUnits="userSpaceOnUse" id="gradient58" r="819.2" spreadMethod="pad">
      <stop offset="0.0" stop-color="#020202"/>
      <stop offset="1.0" stop-color="#020202"/>
    </radialGradient>
    <radialGradient cx="0" cy="0" gradientTransform="matrix(9.0E-4, 0.0, 0.0, 9.0E-4, -36.15, -197.2)" gradientUnits="userSpaceOnUse" id="gradient59" r="819.2" spreadMethod="pad">
      <stop offset="0.0" stop-color="#020202"/>
      <stop offset="1.0" stop-color="#020202"/>
    </radialGradient>
    <radialGradient cx="0" cy="0" gradientTransform="matrix(0.0113, 0.0, 0.0, 0.0113, -19.35, -176.75)" gradientUnits="userSpaceOnUse" id="gradient60" r="819.2" spreadMethod="pad">
      <stop offset="0.0" stop-color="#0b0b0b"/>
      <stop offset="1.0" stop-color="#0b0b0b"/>
    </radialGradient>
    <radialGradient cx="0" cy="0" gradientTransform="matrix(0.0109, 0.0, 0.0, 0.0109, -27.0, -177.95)" gradientUnits="userSpaceOnUse" id="gradient61" r="819.2" spreadMethod="pad">
      <stop offset="0.0" stop-color="#060606"/>
      <stop offset="1.0" stop-color="#060606"/>
    </radialGradient>
    <radialGradient cx="0" cy="0" gradientTransform="matrix(0.0071, 0.0, 0.0, 0.0071, -36.65, -195.75)" gradientUnits="userSpaceOnUse" id="gradient62" r="819.2" spreadMethod="pad">
      <stop offset="0.0" stop-color="#020202"/>
      <stop offset="1.0" stop-color="#020202"/>
    </radialGradient>
    <radialGradient cx="0" cy="0" gradientTransform="matrix(0.0198, 0.0, 0.0, 0.0198, -34.0, -206.2)" gradientUnits="userSpaceOnUse" id="gradient63" r="819.2" spreadMethod="pad">
      <stop offset="0.0" stop-color="#020202"/>
      <stop offset="1.0" stop-color="#020202"/>
    </radialGradient>
    <radialGradient cx="0" cy="0" gradientTransform="matrix(0.0197, 0.0, 0.0, 0.0197, -47.4, -192.45)" gradientUnits="userSpaceOnUse" id="gradient64" r="819.2" spreadMethod="pad">
      <stop offset="0.0" stop-color="#212121"/>
      <stop offset="1.0" stop-color="#1f1f1f"/>
    </radialGradient>
    <radialGradient cx="0" cy="0" gradientTransform="matrix(0.0105, 0.0, 0.0, 0.0105, -26.5, -199.7)" gradientUnits="userSpaceOnUse" id="gradient65" r="819.2" spreadMethod="pad">
      <stop offset="0.0" stop-color="#020202"/>
      <stop offset="1.0" stop-color="#020202"/>
    </radialGradient>
    <radialGradient cx="0" cy="0" gradientTransform="matrix(0.0106, 0.0, 0.0, 0.0106, -27.65, -199.65)" gradientUnits="userSpaceOnUse" id="gradient66" r="819.2" spreadMethod="pad">
      <stop offset="0.0" stop-color="#020202"/>
      <stop offset="1.0" stop-color="#020202"/>
    </radialGradient>
    <radialGradient cx="0" cy="0" gradientTransform="matrix(0.0073, 0.0, 0.0, 0.0073, -37.85, -195.75)" gradientUnits="userSpaceOnUse" id="gradient67" r="819.2" spreadMethod="pad">
      <stop offset="0.0" stop-color="#020202"/>
      <stop offset="1.0" stop-color="#020202"/>
    </radialGradient>
    <radialGradient cx="0" cy="0" gradientTransform="matrix(0.1026, 0.0, 0.0, 0.1026, -7.95, -211.55)" gradientUnits="userSpaceOnUse" id="gradient68" r="819.2" spreadMethod="pad">
      <stop offset="0.0" stop-color="#555555"/>
      <stop offset="1.0" stop-color="#545454"/>
    </radialGradient>
    <radialGradient cx="0" cy="0" gradientTransform="matrix(0.0175, 0.0, 0.0, 0.0175, -54.25, -184.95)" gradientUnits="userSpaceOnUse" id="gradient69" r="819.2" spreadMethod="pad">
      <stop offset="0.0" stop-color="#313131"/>
      <stop offset="1.0" stop-color="#303030"/>
    </radialGradient>
    <radialGradient cx="0" cy="0" gradientTransform="matrix(0.0187, 0.0, 0.0, 0.0187, -47.95, -189.75)" gradientUnits="userSpaceOnUse" id="gradient70" r="819.2" spreadMethod="pad">
      <stop offset="0.0" stop-color="#070707"/>
      <stop offset="1.0" stop-color="#030303"/>
    </radialGradient>
    <radialGradient cx="0" cy="0" gradientTransform="matrix(0.0079, 0.0, 0.0, 0.0079, -39.0, -196.1)" gradientUnits="userSpaceOnUse" id="gradient71" r="819.2" spreadMethod="pad">
      <stop offset="0.0" stop-color="#020202"/>
      <stop offset="1.0" stop-color="#020202"/>
    </radialGradient>
    <radialGradient cx="0" cy="0" gradientTransform="matrix(0.008, 0.0, 0.0, 0.008, -40.25, -195.95)" gradientUnits="userSpaceOnUse" id="gradient72" r="819.2" spreadMethod="pad">
      <stop offset="0.0" stop-color="#020202"/>
      <stop offset="1.0" stop-color="#020202"/>
    </radialGradient>
    <radialGradient cx="0" cy="0" gradientTransform="matrix(0.0087, 0.0, 0.0, 0.0087, -41.65, -196.4)" gradientUnits="userSpaceOnUse" id="gradient73" r="819.2" spreadMethod="pad">
      <stop offset="0.0" stop-color="#020202"/>
      <stop offset="1.0" stop-color="#020202"/>
    </radialGradient>
    <radialGradient cx="0" cy="0" gradientTransform="matrix(0.0173, 0.0, 0.0, 0.0173, -68.55, -184.95)" gradientUnits="userSpaceOnUse" id="gradient74" r="819.2" spreadMethod="pad">
      <stop offset="0.0" stop-color="#262626"/>
      <stop offset="1.0" stop-color="#262626"/>
    </radialGradient>
    <radialGradient cx="0" cy="0" gradientTransform="matrix(0.0181, 0.0, 0.0, 0.0181, -35.2, -185.9)" gradientUnits="userSpaceOnUse" id="gradient75" r="819.2" spreadMethod="pad">
      <stop offset="0.0" stop-color="#1c1c1c"/>
      <stop offset="1.0" stop-color="#050505"/>
    </radialGradient>
    <radialGradient cx="0" cy="0" gradientTransform="matrix(0.024, 0.0, 0.0, 0.024, -20.7, -177.45)" gradientUnits="userSpaceOnUse" id="gradient76" r="819.2" spreadMethod="pad">
      <stop offset="0.0" stop-color="#313131"/>
      <stop offset="1.0" stop-color="#1e1e1e"/>
    </radialGradient>
    <radialGradient cx="0" cy="0" gradientTransform="matrix(0.0107, 0.0, 0.0, 0.0107, -26.3, -176.9)" gradientUnits="userSpaceOnUse" id="gradient77" r="819.2" spreadMethod="pad">
      <stop offset="0.0" stop-color="#171717"/>
      <stop offset="1.0" stop-color="#171717"/>
    </radialGradient>
    <radialGradient cx="0" cy="0" gradientTransform="matrix(0.0177, 0.0, 0.0, 0.0177, -28.8, -184.65)" gradientUnits="userSpaceOnUse" id="gradient78" r="819.2" spreadMethod="pad">
      <stop offset="0.0" stop-color="#262626"/>
      <stop offset="1.0" stop-color="#0b0b0b"/>
    </radialGradient>
    <radialGradient cx="0" cy="0" gradientTransform="matrix(0.0179, 0.0, 0.0, 0.0179, -43.05, -174.95)" gradientUnits="userSpaceOnUse" id="gradient79" r="819.2" spreadMethod="pad">
      <stop offset="0.0" stop-color="#030303"/>
      <stop offset="1.0" stop-color="#030303"/>
    </radialGradient>
    <radialGradient cx="0" cy="0" gradientTransform="matrix(0.0172, 0.0, 0.0, 0.0172, -58.7, -177.85)" gradientUnits="userSpaceOnUse" id="gradient80" r="819.2" spreadMethod="pad">
      <stop offset="0.0" stop-color="#1f1f1f"/>
      <stop offset="1.0" stop-color="#111111"/>
    </radialGradient>
    <radialGradient cx="0" cy="0" gradientTransform="matrix(0.0192, 0.0, 0.0, 0.0192, -59.35, -172.55)" gradientUnits="userSpaceOnUse" id="gradient81" r="819.2" spreadMethod="pad">
      <stop offset="0.0" stop-color="#2d2d2d"/>
      <stop offset="1.0" stop-color="#2a2a2a"/>
    </radialGradient>
    <radialGradient cx="0" cy="0" gradientTransform="matrix(0.0171, 0.0, 0.0, 0.0171, -28.15, -175.2)" gradientUnits="userSpaceOnUse" id="gradient82" r="819.2" spreadMethod="pad">
      <stop offset="0.0" stop-color="#040404"/>
      <stop offset="1.0" stop-color="#040404"/>
    </radialGradient>
    <radialGradient cx="0" cy="0" gradientTransform="matrix(0.0014, 0.0, 0.0, 0.0014, -29.7, -173.65)" gradientUnits="userSpaceOnUse" id="gradient83" r="819.2" spreadMethod="pad">
      <stop offset="0.0" stop-color="#010101"/>
      <stop offset="1.0" stop-color="#010101"/>
    </radialGradient>
    <radialGradient cx="0" cy="0" gradientTransform="matrix(0.0199, 0.0, 0.0, 0.0199, -46.55, -164.7)" gradientUnits="userSpaceOnUse" id="gradient84" r="819.2" spreadMethod="pad">
      <stop offset="0.0" stop-color="#111111"/>
      <stop offset="1.0" stop-color="#101010"/>
    </radialGradient>
    <radialGradient cx="0" cy="0" gradientTransform="matrix(0.018, 0.0, 0.0, 0.018, -61.25, -165.45)" gradientUnits="userSpaceOnUse" id="gradient85" r="819.2" spreadMethod="pad">
      <stop offset="0.0" stop-color="#111111"/>
      <stop offset="1.0" stop-color="#111111"/>
    </radialGradient>
    <radialGradient cx="0" cy="0" gradientTransform="matrix(0.0703, 0.0, 0.0, 0.0703, -85.4, -141.9)" gradientUnits="userSpaceOnUse" id="gradient86" r="819.2" spreadMethod="pad">
      <stop offset="0.0" stop-color="#1d1d1d"/>
      <stop offset="1.0" stop-color="#000000"/>
    </radialGradient>
    <radialGradient cx="0" cy="0" gradientTransform="matrix(0.0186, 0.0, 0.0, 0.0186, -34.35, -154.0)" gradientUnits="userSpaceOnUse" id="gradient87" r="819.2" spreadMethod="pad">
      <stop offset="0.0" stop-color="#868686"/>
      <stop offset="1.0" stop-color="#000000"/>
    </radialGradient>
    <radialGradient cx="0" cy="0" gradientTransform="matrix(0.0216, 0.0, 0.0, 0.0216, -46.55, -163.4)" gradientUnits="userSpaceOnUse" id="gradient88" r="819.2" spreadMethod="pad">
      <stop offset="0.0" stop-color="#2e2e2e"/>
      <stop offset="1.0" stop-color="#2d2d2d"/>
    </radialGradient>
    <radialGradient cx="0" cy="0" gradientTransform="matrix(0.0362, 0.0, 0.0, 0.0362, -40.9, -135.05)" gradientUnits="userSpaceOnUse" id="gradient89" r="819.2" spreadMethod="pad">
      <stop offset="0.0" stop-color="#000000"/>
      <stop offset="1.0" stop-color="#000000"/>
    </radialGradient>
    <radialGradient cx="0" cy="0" gradientTransform="matrix(0.0223, 0.0, 0.0, 0.0223, -59.85, -143.85)" gradientUnits="userSpaceOnUse" id="gradient90" r="819.2" spreadMethod="pad">
      <stop offset="0.0" stop-color="#000000"/>
      <stop offset="1.0" stop-color="#000000"/>
    </radialGradient>
    <radialGradient cx="0" cy="0" gradientTransform="matrix(0.1183, 0.0, 0.0, 0.1183, -400.0, -83.35)" gradientUnits="userSpaceOnUse" id="gradient91" r="819.2" spreadMethod="pad">
      <stop offset="0.0" stop-color="#191919"/>
      <stop offset="1.0" stop-color="#000000"/>
    </radialGradient>
    <radialGradient cx="0" cy="0" gradientTransform="matrix(0.1125, 0.0, 0.0, 0.1125, -358.65, -1.0)" gradientUnits="userSpaceOnUse" id="gradient92" r="819.2" spreadMethod="pad">
      <stop offset="0.0" stop-color="#4b4b4b"/>
      <stop offset="1.0" stop-color="#080808"/>
    </radialGradient>
    <radialGradient cx="0" cy="0" gradientTransform="matrix(0.0141, 0.0, 0.0, 0.0141, -76.05, -139.45)" gradientUnits="userSpaceOnUse" id="gradient93" r="819.2" spreadMethod="pad">
      <stop offset="0.0" stop-color="#000000"/>
      <stop offset="1.0" stop-color="#000000"/>
    </radialGradient>
    <radialGradient cx="0" cy="0" gradientTransform="matrix(0.0356, 0.0, 0.0, 0.0356, -84.1, -122.2)" gradientUnits="userSpaceOnUse" id="gradient94" r="819.2" spreadMethod="pad">
      <stop offset="0.0" stop-color="#000000"/>
      <stop offset="1.0" stop-color="#000000"/>
    </radialGradient>
    <radialGradient cx="0" cy="0" gradientTransform="matrix(0.0849, 0.0, 0.0, 0.0849, -358.65, -1.0)" gradientUnits="userSpaceOnUse" id="gradient95" r="819.2" spreadMethod="pad">
      <stop offset="0.0" stop-color="#4b4b4b"/>
      <stop offset="1.0" stop-color="#1a1a1a"/>
    </radialGradient>
  </defs>
</svg>
