<?xml version="1.0" encoding="UTF-8" standalone="no"?>
<svg xmlns:xlink="http://www.w3.org/1999/xlink" height="299.1px" width="274.6px" xmlns="http://www.w3.org/2000/svg">
  <g transform="matrix(1.0, 0.0, 0.0, 1.0, 375.75, 300.0)">
    <path d="M-254.4 -300.0 L-138.0 -300.0 -138.15 -291.75 -137.15 -285.65 -136.65 -284.5 Q-135.65 -283.15 -132.65 -282.0 L-129.75 -281.9 -132.0 -278.5 -153.4 -255.75 -167.75 -247.0 -179.25 -242.25 -187.65 -239.75 -194.75 -242.75 -196.25 -248.0 -199.65 -250.15 -203.5 -253.4 -206.9 -253.65 -218.5 -256.25 -226.25 -256.4 -234.75 -254.65 -237.0 -251.65 -240.0 -248.9 -240.5 -246.15 -250.75 -245.4 -258.15 -249.15 -258.4 -249.25 -266.65 -254.0 -279.5 -264.4 -283.9 -270.4 -285.4 -271.9 -285.5 -272.5 -284.75 -272.4 -253.65 -293.65 -253.15 -293.9 -253.15 -294.5 -254.4 -300.0 M-136.4 -300.0 L-134.0 -300.0 -127.25 -285.9 -128.4 -284.25 -128.5 -284.25 -128.65 -284.5 -128.75 -284.75 -128.9 -285.0 -129.0 -285.25 -129.15 -285.5 -129.25 -285.75 -129.4 -286.0 -129.5 -286.25 -129.65 -286.5 -129.75 -286.75 -136.4 -300.0 M-128.4 -300.0 L-119.9 -300.0 -121.9 -294.4 -125.65 -288.75 -125.5 -290.15 -125.4 -293.25 -125.65 -295.15 -126.65 -296.9 -127.9 -297.65 -128.0 -298.5 -128.4 -300.0" fill="url(#gradient0)" fill-rule="evenodd" stroke="none"/>
    <path d="M-138.0 -300.0 L-137.15 -300.0 -137.25 -292.5 -136.9 -291.9 -136.75 -288.5 -135.9 -284.9 Q-132.9 -281.75 -129.4 -282.25 L-129.75 -281.9 -132.65 -282.0 Q-135.65 -283.15 -136.65 -284.5 L-137.15 -285.65 -138.15 -291.75 -138.0 -300.0" fill="url(#gradient1)" fill-rule="evenodd" stroke="none"/>
    <path d="M-119.9 -300.0 L-101.15 -300.0 -107.4 -281.5 -134.9 -252.4 -159.9 -234.65 -172.15 -236.25 -175.4 -234.5 -187.65 -239.75 -179.25 -242.25 -167.75 -247.0 -153.4 -255.75 -132.0 -278.5 -129.75 -281.9 -129.4 -282.25 -127.9 -283.15 -128.15 -283.5 -128.25 -283.75 -128.4 -284.0 -128.4 -284.25 -127.25 -285.9 -127.15 -285.9 -126.25 -284.4 -125.9 -284.5 -125.9 -285.75 -125.75 -287.25 -125.75 -288.15 -125.65 -288.75 -121.9 -294.4 -119.9 -300.0 M-275.0 -238.5 L-294.15 -248.4 -304.4 -258.9 -292.65 -255.75 Q-292.4 -256.5 -294.9 -258.4 L-311.65 -273.4 -285.5 -272.5 -285.4 -271.9 -283.9 -270.4 -279.5 -264.4 -266.65 -254.0 -258.4 -249.25 -258.15 -249.15 -250.75 -245.4 -256.0 -244.75 -256.25 -244.75 -257.9 -244.65 -258.65 -244.5 -259.5 -244.5 -259.9 -244.4 -262.4 -244.0 -275.0 -238.5 M-162.0 -244.0 L-160.15 -235.25 -159.75 -234.9 -148.9 -248.0 -162.0 -244.0" fill="url(#gradient2)" fill-rule="evenodd" stroke="none"/>
    <path d="M-137.15 -300.0 L-136.4 -300.0 -129.75 -286.75 -129.65 -286.5 -129.5 -286.25 -129.4 -286.0 -129.25 -285.75 -129.15 -285.5 -129.0 -285.25 -128.9 -285.0 -128.75 -284.75 -128.65 -284.5 -128.5 -284.25 -128.4 -284.25 -128.4 -284.0 -128.25 -283.75 -128.15 -283.5 -127.9 -283.15 -129.4 -282.25 Q-132.9 -281.75 -135.9 -284.9 L-136.75 -288.5 -136.9 -291.9 -137.25 -292.5 -137.15 -300.0" fill="url(#gradient3)" fill-rule="evenodd" stroke="none"/>
    <path d="M-134.0 -300.0 L-133.0 -300.0 -125.9 -285.75 -125.9 -284.5 -126.25 -284.4 -127.15 -285.9 -127.25 -285.9 -134.0 -300.0 M-127.9 -297.65 L-126.65 -296.9 -125.65 -295.15 -125.4 -293.25 -126.0 -295.5 -127.0 -296.65 -127.75 -296.9 -127.9 -297.65" fill="url(#gradient4)" fill-rule="evenodd" stroke="none"/>
    <path d="M-133.0 -300.0 L-128.4 -300.0 -128.0 -298.5 -127.9 -297.65 -127.75 -296.9 -127.0 -296.65 -126.0 -295.5 -125.4 -293.25 -125.5 -290.15 -125.65 -288.75 -125.75 -288.15 -125.75 -287.25 -125.9 -285.75 -133.0 -300.0" fill="url(#gradient5)" fill-rule="evenodd" stroke="none"/>
    <path d="M-175.4 -234.5 L-175.15 -234.25 -194.5 -237.0 -197.0 -237.65 -199.15 -238.0 -199.4 -238.15 -199.75 -238.15 -202.4 -238.75 -202.5 -238.75 -206.45 -239.6 -218.4 -242.25 -219.0 -252.75 -194.75 -242.75 -187.65 -239.75 -175.4 -234.5" fill="url(#gradient6)" fill-rule="evenodd" stroke="none"/>
    <path d="M-304.4 -258.9 L-323.65 -292.4 -327.25 -300.0 -254.4 -300.0 -253.15 -294.5 -253.15 -293.9 -253.65 -293.65 -284.75 -272.4 -285.5 -272.5 -311.65 -273.4 -294.9 -258.4 Q-292.4 -256.5 -292.65 -255.75 L-304.4 -258.9" fill="url(#gradient7)" fill-rule="evenodd" stroke="none"/>
    <path d="M-341.0 -188.75 L-319.9 -208.15 -296.4 -226.4 -275.0 -238.5 -262.4 -244.0 -259.9 -244.4 -259.5 -244.5 -258.65 -244.5 -257.9 -244.65 -256.25 -244.75 -256.0 -244.75 -248.5 -245.4 -231.25 -242.25 -242.9 -223.4 -242.75 -223.0 -281.9 -190.65 -303.25 -178.25 -322.5 -189.5 -341.0 -188.75" fill="url(#gradient8)" fill-rule="evenodd" stroke="none"/>
    <path d="M-240.5 -246.15 L-238.9 -246.25 -219.0 -242.15 -218.65 -242.0 -220.9 -242.4 -231.25 -242.25 -248.5 -245.4 -256.0 -244.75 -250.75 -245.4 -240.5 -246.15" fill="url(#gradient9)" fill-rule="evenodd" stroke="none"/>
    <path d="M-220.9 -242.4 L-217.4 -221.0 -233.0 -187.25 -227.15 -213.65 -231.25 -242.25 -220.9 -242.4" fill="url(#gradient10)" fill-rule="evenodd" stroke="none"/>
    <path d="M-206.45 -239.6 L-202.5 -238.75 -202.4 -238.75 -199.75 -238.15 -199.4 -238.15 -199.15 -238.0 -197.0 -237.65 -194.5 -237.0 -195.15 -236.5 -196.75 -236.9 -196.25 -235.65 -217.4 -221.0 -220.9 -242.4 -218.65 -242.0 -218.5 -242.0 -206.45 -239.6" fill="url(#gradient11)" fill-rule="evenodd" stroke="none"/>
    <path d="M-217.4 -221.0 L-196.25 -235.65 -194.25 -234.0 -193.5 -199.4 -192.15 -196.25 -201.65 -195.4 Q-212.9 -192.65 -220.65 -186.5 L-228.0 -178.75 -229.25 -176.0 -234.9 -169.15 -240.15 -159.4 -240.75 -158.9 -243.0 -147.0 -242.65 -138.65 -242.15 -136.65 -242.4 -136.25 -237.4 -125.15 -233.9 -120.9 -230.15 -114.9 -225.4 -110.5 -223.15 -105.0 -216.75 -97.25 -235.4 -107.75 -257.0 -108.0 -291.65 -105.75 -288.9 -128.0 -268.4 -137.9 -260.5 -147.15 -259.25 -148.15 -242.65 -156.5 -236.5 -174.75 -233.0 -187.25 -217.4 -221.0 M-195.15 -236.5 L-194.5 -237.0 -194.4 -236.25 -195.15 -236.5 M-203.4 -89.65 L-197.25 -88.0 -198.25 -86.5 -203.4 -89.65" fill="url(#gradient12)" fill-rule="evenodd" stroke="none"/>
    <path d="M-196.25 -235.65 L-196.75 -236.9 -195.15 -236.5 -194.4 -236.25 -190.65 -234.9 Q-191.9 -231.9 -194.25 -234.0 L-196.25 -235.65" fill="url(#gradient13)" fill-rule="evenodd" stroke="none"/>
    <path d="M-219.0 -242.15 L-218.4 -242.25 -206.45 -239.6 -218.5 -242.0 -218.65 -242.0 -219.0 -242.15" fill="url(#gradient14)" fill-rule="evenodd" stroke="none"/>
    <path d="M-240.5 -246.15 L-240.0 -248.9 -237.0 -251.65 -234.75 -254.65 -226.25 -256.4 -218.5 -256.25 -219.0 -252.75 -218.4 -242.25 -219.0 -242.15 -238.9 -246.25 -240.5 -246.15" fill="url(#gradient15)" fill-rule="evenodd" stroke="none"/>
    <path d="M-218.5 -256.25 L-206.9 -253.65 -203.5 -253.4 -199.65 -250.15 -196.25 -248.0 -194.75 -242.75 -219.0 -252.75 -218.5 -256.25" fill="url(#gradient16)" fill-rule="evenodd" stroke="none"/>
    <path d="M-175.15 -234.25 L-164.25 -221.15 -155.5 -185.5 -155.4 -184.25 Q-170.5 -197.15 -192.15 -196.25 L-193.5 -199.4 -194.25 -234.0 Q-191.9 -231.9 -190.65 -234.9 L-194.4 -236.25 -194.5 -237.0 -175.15 -234.25 M-146.5 -82.0 L-148.4 -78.0 -163.0 -83.15 -183.65 -85.15 Q-154.5 -87.75 -140.0 -114.5 L-139.65 -111.65 -140.75 -109.9 -144.4 -100.5 -146.75 -91.65 Q-148.0 -88.25 -145.9 -83.5 L-146.5 -82.0 M-197.25 -88.0 L-192.5 -86.0 -198.25 -86.5 -197.25 -88.0" fill="url(#gradient17)" fill-rule="evenodd" stroke="none"/>
    <path d="M-216.75 -97.25 L-223.15 -105.0 -225.4 -110.5 -230.15 -114.9 -233.9 -120.9 -237.4 -125.15 -242.4 -136.25 -242.15 -136.65 -242.65 -138.65 -243.0 -147.0 -240.75 -158.9 -240.15 -159.4 -234.9 -169.15 -229.25 -176.0 -228.0 -178.75 -220.65 -186.5 Q-212.9 -192.65 -201.65 -195.4 L-192.15 -196.25 Q-170.5 -197.15 -155.4 -184.25 L-152.9 -182.25 -152.65 -182.0 -152.4 -181.9 -152.0 -181.5 -150.15 -180.0 -144.5 -173.0 -144.15 -172.65 -143.75 -172.15 -143.5 -171.75 -142.75 -170.25 -139.5 -164.0 Q-129.25 -134.25 -140.0 -114.5 -154.5 -87.75 -183.65 -85.15 L-192.5 -86.0 -197.25 -88.0 -203.4 -89.65 -206.25 -90.5 -209.5 -92.25 -216.75 -97.25" fill="url(#gradient18)" fill-rule="evenodd" stroke="none"/>
    <path d="M-155.5 -185.5 L-155.0 -185.5 -140.9 -183.65 -142.0 -180.75 -152.9 -182.25 -155.4 -184.25 -155.5 -185.5" fill="url(#gradient19)" fill-rule="evenodd" stroke="none"/>
    <path d="M-129.25 -189.5 L-128.4 -191.25 -116.15 -189.65 -117.25 -187.9 -129.25 -189.5" fill="url(#gradient20)" fill-rule="evenodd" stroke="none"/>
    <path d="M-116.15 -189.65 L-116.15 -188.0 -116.25 -188.0 -116.75 -187.9 -117.25 -187.9 -116.15 -189.65 M-118.15 -174.0 L-119.0 -173.9 -119.0 -174.25 -118.15 -174.0 M-120.65 -174.15 L-122.9 -173.65 -122.75 -174.4 -119.75 -175.0 -119.4 -176.15 -118.15 -176.25 -118.15 -176.15 -118.9 -175.9 -118.65 -174.9 -118.9 -174.65 -120.65 -174.15 M-128.65 -172.15 L-130.65 -168.4 -131.4 -165.9 -131.5 -166.15 -130.65 -168.4 -130.25 -170.0 -128.65 -172.15 M-119.4 -180.4 L-119.4 -180.0 -122.15 -179.5 -130.4 -178.15 -119.4 -180.4 M-132.15 -177.75 L-131.05 -178.15 -131.25 -177.9 -132.15 -177.75 M-121.5 -181.75 L-121.5 -181.65 -121.9 -181.65 -121.5 -181.75 -120.9 -181.9 -120.65 -182.0 -120.15 -181.9 -120.4 -181.9 -120.9 -181.9 -121.15 -181.75 -121.5 -181.75 M-142.75 -170.25 L-139.5 -170.9 -139.75 -169.15 -139.4 -167.5 -137.25 -167.75 -136.75 -169.25 -136.4 -169.15 -136.5 -167.9 -135.4 -167.75 -135.9 -166.25 -135.9 -166.15 -136.4 -164.0 -136.4 -161.65 -136.65 -162.0 -136.9 -162.15 -139.5 -164.0 -142.75 -170.25 M-134.5 -168.15 L-133.65 -169.15 -132.9 -169.15 -132.25 -168.0 -132.65 -168.0 -132.75 -168.5 -133.5 -168.5 -134.5 -168.15 M-132.25 -166.75 L-132.0 -166.0 -132.25 -165.75 -132.5 -166.5 -132.25 -166.75 M-134.0 -159.15 L-132.9 -159.75 -132.75 -160.25 -132.5 -160.15 -132.9 -159.75 -133.0 -159.15 -133.75 -158.75 -134.0 -159.15" fill="url(#gradient21)" fill-rule="evenodd" stroke="none"/>
    <path d="M-144.65 -187.75 L-129.25 -189.5 -117.25 -187.9 -131.75 -185.9 -132.25 -186.0 -137.65 -186.7 -144.65 -187.75" fill="url(#gradient22)" fill-rule="evenodd" stroke="none"/>
    <path d="M-145.9 -187.75 L-144.65 -187.75 -137.65 -186.7 -145.9 -187.75" fill="url(#gradient23)" fill-rule="evenodd" stroke="none"/>
    <path d="M-147.15 -187.75 L-145.9 -187.75 -137.65 -186.7 -132.25 -186.0 -132.15 -185.9 -135.4 -185.15 -138.75 -185.5 -139.15 -186.65 -139.5 -186.65 -147.15 -187.75" fill="url(#gradient24)" fill-rule="evenodd" stroke="none"/>
    <path d="M-154.15 -188.4 L-147.15 -187.75 -139.5 -186.65 -139.9 -186.65 -154.15 -188.4" fill="url(#gradient25)" fill-rule="evenodd" stroke="none"/>
    <path d="M-154.4 -186.15 L-154.15 -188.4 -139.9 -186.65 -140.25 -184.4 -140.75 -184.4 -141.15 -184.4 -141.75 -184.5 -142.15 -184.5 -142.65 -184.65 -143.15 -184.65 -143.65 -184.75 -144.15 -184.75 -144.65 -184.9 -145.15 -184.9 -145.5 -185.0 -146.0 -185.0 -146.5 -185.15 -147.0 -185.15 -147.4 -185.25 -147.9 -185.25 -148.4 -185.4 -148.9 -185.4 -149.15 -185.5 -149.65 -185.5 -150.15 -185.65 -150.65 -185.65 -151.15 -185.75 -151.65 -185.75 -152.15 -185.9 -152.5 -185.9 -153.0 -186.0 -153.5 -186.0 -154.0 -186.15 -154.4 -186.15" fill="url(#gradient26)" fill-rule="evenodd" stroke="none"/>
    <path d="M-155.0 -185.5 L-154.75 -186.15 -154.4 -186.15 -154.0 -186.15 -153.5 -186.0 -153.0 -186.0 -152.5 -185.9 -152.15 -185.9 -151.65 -185.75 -151.15 -185.75 -150.65 -185.65 -150.15 -185.65 -149.65 -185.5 -149.15 -185.5 -148.9 -185.4 -148.4 -185.4 -147.9 -185.25 -147.4 -185.25 -147.0 -185.15 -146.5 -185.15 -146.0 -185.0 -145.5 -185.0 -145.15 -184.9 -144.65 -184.9 -144.15 -184.75 -143.65 -184.75 -143.15 -184.65 -142.65 -184.65 -142.15 -184.5 -141.75 -184.5 -141.15 -184.4 -140.75 -184.4 -140.5 -184.25 -140.9 -183.65 -155.0 -185.5" fill="url(#gradient27)" fill-rule="evenodd" stroke="none"/>
    <path d="M-116.15 -188.0 L-115.5 -188.0 -116.4 -181.65 -117.4 -177.0 -118.15 -176.25 -119.4 -176.15 -118.9 -180.0 -119.4 -180.0 -119.4 -180.4 -118.9 -181.4 -119.0 -182.0 -119.4 -182.15 -119.5 -182.0 -119.75 -182.0 -120.0 -182.0 -120.65 -182.0 -127.0 -181.15 Q-129.15 -182.65 -128.4 -184.75 L-131.75 -184.25 -131.75 -185.4 -131.75 -185.9 -117.25 -187.9 -116.75 -187.9 -116.25 -188.0 -116.15 -188.0" fill="url(#gradient28)" fill-rule="evenodd" stroke="none"/>
    <path d="M-131.75 -185.9 L-131.75 -185.4 -132.15 -185.9 -132.25 -186.0 -131.75 -185.9 M-135.4 -185.15 L-135.75 -183.0 -135.9 -182.65 -136.5 -179.5 -136.65 -179.15 -136.65 -178.5 -134.5 -178.75 -133.9 -178.9 -132.5 -179.0 -132.5 -178.0 -133.75 -172.0 -137.25 -171.25 -139.5 -170.9 -142.75 -170.25 -143.5 -171.75 -143.4 -172.5 -143.4 -172.65 -142.65 -175.75 -142.65 -175.9 -142.5 -176.25 -142.5 -176.4 Q-141.65 -181.9 -140.75 -182.15 L-140.9 -183.65 -140.5 -184.25 -140.25 -184.4 -139.9 -186.65 -139.5 -186.65 -139.15 -186.65 -138.75 -185.5 -138.65 -185.4 -138.5 -184.75 -137.4 -184.65 -136.9 -185.15 -136.4 -185.15 -135.4 -185.15 M-132.5 -179.75 L-132.4 -180.5 -132.4 -179.75 -132.5 -179.75 M-144.0 -173.4 L-144.25 -178.5 -143.75 -178.65 -144.25 -178.75 -144.15 -179.4 -143.4 -179.4 -143.65 -179.65 -143.4 -180.25 -142.65 -180.4 -142.75 -180.15 -142.15 -180.0 -142.4 -179.65 -142.9 -179.4 -142.4 -179.4 -142.25 -179.15 -142.4 -178.9 -142.4 -178.75 -144.0 -173.4 M-144.25 -179.9 L-144.0 -180.4 -144.15 -180.0 -143.75 -180.25 -144.25 -179.9 M-138.25 -176.65 L-138.0 -177.15 -138.25 -177.25 -138.25 -176.65 M-141.65 -174.5 L-141.5 -175.9 -141.9 -174.65 -141.65 -174.5 M-142.25 -173.0 L-142.0 -172.65 -141.9 -174.4 -142.25 -173.0" fill="url(#gradient29)" fill-rule="evenodd" stroke="none"/>
    <path d="M-116.4 -181.65 L-116.65 -179.25 -118.15 -174.0 -119.0 -174.25 -118.9 -174.65 -118.65 -174.9 -118.9 -175.9 -118.15 -176.15 -118.15 -176.25 -117.4 -177.0 -116.4 -181.65" fill="url(#gradient30)" fill-rule="evenodd" stroke="none"/>
    <path d="M-119.4 -180.0 L-118.9 -180.0 -119.4 -176.15 -119.75 -175.0 -122.75 -174.4 Q-128.2 -172.95 -133.75 -172.0 L-132.5 -178.0 -132.15 -177.75 -130.9 -177.9 -122.15 -179.5 -119.4 -180.0" fill="url(#gradient31)" fill-rule="evenodd" stroke="none"/>
    <path d="M-119.75 -182.0 L-119.5 -182.0 -119.0 -182.0 -118.9 -181.4 -119.4 -180.4 -130.4 -178.15 -130.75 -178.15 -131.05 -178.15 -132.15 -177.75 -132.5 -178.0 -132.5 -179.0 -132.5 -179.75 -132.4 -179.75 -131.75 -179.75 -131.4 -179.9 -126.9 -180.65 -121.9 -181.65 -121.5 -181.65 -121.15 -181.75 -120.4 -181.9 -120.15 -181.9 -119.75 -182.0" fill="url(#gradient32)" fill-rule="evenodd" stroke="none"/>
    <path d="M-120.0 -182.0 L-119.75 -182.0 -120.15 -181.9 -120.0 -182.0 M-119.5 -182.0 L-119.4 -182.15 -119.0 -182.0 -119.5 -182.0 M-121.5 -181.65 L-121.5 -181.75 -121.15 -181.75 -121.5 -181.65 M-120.4 -181.9 L-121.15 -181.75 -120.9 -181.9 -120.4 -181.9" fill="url(#gradient33)" fill-rule="evenodd" stroke="none"/>
    <path d="M-131.75 -184.25 L-128.4 -184.75 Q-129.15 -182.65 -127.0 -181.15 L-120.65 -182.0 -120.0 -182.0 -120.15 -181.9 -120.65 -182.0 -120.9 -181.9 -121.5 -181.75 -121.9 -181.65 -126.9 -180.65 -131.4 -179.9 -131.75 -179.75 -132.4 -179.75 -132.4 -180.5 -132.4 -180.75 -132.25 -181.4 -132.25 -181.75 -131.75 -184.25" fill="url(#gradient34)" fill-rule="evenodd" stroke="none"/>
    <path d="M-131.75 -185.4 L-131.75 -184.25 -132.25 -181.75 -132.25 -181.4 -132.4 -180.75 -132.4 -180.5 -132.5 -179.75 -132.5 -179.0 -133.9 -178.9 -134.5 -178.75 -136.65 -178.5 -136.65 -179.15 -136.5 -179.5 -135.9 -182.65 -135.75 -183.0 -135.4 -185.15 -132.15 -185.9 -131.75 -185.4" fill="url(#gradient35)" fill-rule="evenodd" stroke="none"/>
    <path d="M-231.25 -242.25 L-227.15 -213.65 -233.0 -187.25 -236.5 -174.75 -242.65 -156.5 -259.25 -148.15 -260.5 -147.15 -268.4 -137.9 -288.9 -128.0 -286.0 -151.5 -303.25 -178.25 -281.9 -190.65 -242.75 -223.0 -242.9 -223.4 -231.25 -242.25" fill="url(#gradient36)" fill-rule="evenodd" stroke="none"/>
    <path d="M-370.9 -100.65 L-375.75 -130.0 -373.4 -143.9 -352.65 -171.5 -352.0 -172.9 -341.0 -188.75 -322.5 -189.5 -303.25 -178.25 -330.25 -147.4 -330.5 -146.65 -332.5 -131.15 -332.0 -129.5 -328.15 -101.65 -364.75 -101.9 -370.9 -100.65" fill="url(#gradient37)" fill-rule="evenodd" stroke="none"/>
    <path d="M-288.25 -0.9 L-323.0 -0.9 -327.0 -9.5 -339.0 -39.65 -351.65 -68.25 -370.9 -100.65 -364.75 -101.9 -328.15 -101.65 -311.65 -62.0 -300.9 -35.9 -291.25 -8.25 -288.25 -0.9" fill="url(#gradient38)" fill-rule="evenodd" stroke="none"/>
    <path d="M-303.25 -178.25 L-286.0 -151.5 -288.9 -128.0 -291.65 -105.75 -293.15 -95.4 -293.0 -94.25 -287.15 -72.25 -287.25 -71.25 -286.75 -69.4 -287.4 -69.15 -311.65 -62.0 -328.15 -101.65 -332.0 -129.5 -332.5 -131.15 -330.5 -146.65 -330.25 -147.4 -303.25 -178.25" fill="url(#gradient39)" fill-rule="evenodd" stroke="none"/>
    <path d="M-140.75 -184.4 L-140.25 -184.4 -140.5 -184.25 -140.75 -184.4" fill="url(#gradient40)" fill-rule="evenodd" stroke="none"/>
    <path d="M-135.4 -185.15 L-136.4 -185.15 -137.15 -185.25 -137.4 -185.25 -137.9 -185.4 -138.65 -185.4 -138.75 -185.5 -135.4 -185.15" fill="url(#gradient41)" fill-rule="evenodd" stroke="none"/>
    <path d="M-138.65 -185.4 L-137.9 -185.4 -137.4 -185.25 -137.15 -185.25 -136.9 -185.15 -137.4 -184.65 -138.5 -184.75 -138.65 -185.4" fill="url(#gradient42)" fill-rule="evenodd" stroke="none"/>
    <path d="M-137.15 -185.25 L-136.4 -185.15 -136.9 -185.15 -137.15 -185.25" fill="url(#gradient43)" fill-rule="evenodd" stroke="none"/>
    <path d="M-140.9 -183.65 L-140.75 -182.15 Q-141.65 -181.9 -142.5 -176.4 L-142.4 -178.75 -142.4 -178.9 -142.25 -179.15 -142.4 -179.4 -142.15 -179.5 -142.4 -179.65 -142.15 -180.0 -142.0 -180.5 -142.0 -180.75 -140.9 -183.65 M-143.4 -172.5 L-143.5 -171.75 -143.75 -172.15 -143.4 -172.5" fill="url(#gradient44)" fill-rule="evenodd" stroke="none"/>
    <path d="M-144.0 -173.0 L-144.0 -173.4 -142.4 -178.75 -142.5 -176.4 -142.5 -176.25 -142.65 -175.9 -142.65 -175.75 -143.4 -172.65 -143.4 -172.5 -143.75 -172.15 -144.15 -172.65 -144.0 -173.0 M-142.15 -180.5 L-142.0 -180.75 -142.0 -180.5 -142.15 -180.5" fill="url(#gradient45)" fill-rule="evenodd" stroke="none"/>
    <path d="M-144.0 -180.4 L-143.9 -180.65 -143.75 -180.65 -143.75 -180.6 -143.4 -180.25 -143.65 -179.65 -143.4 -179.4 -144.15 -179.4 -144.25 -178.75 -144.25 -179.9 -143.75 -180.25 -144.15 -180.0 -144.0 -180.4 M-144.25 -178.5 L-144.25 -178.75 -143.75 -178.65 -144.25 -178.5 M-142.65 -180.4 L-142.25 -180.5 -142.15 -180.5 -142.0 -180.5 -142.15 -180.0 -142.75 -180.15 -142.65 -180.4 M-142.4 -179.65 L-142.15 -179.5 -142.4 -179.4 -142.9 -179.4 -142.4 -179.65" fill="url(#gradient46)" fill-rule="evenodd" stroke="none"/>
    <path d="M-143.9 -180.65 L-144.15 -180.75 -147.65 -181.25 -147.75 -181.25 -149.75 -181.55 -152.65 -182.0 -152.9 -182.25 -142.0 -180.75 -142.15 -180.5 -142.55 -180.5 -142.6 -180.5 -143.75 -180.65 -143.9 -180.65" fill="url(#gradient47)" fill-rule="evenodd" stroke="none"/>
    <path d="M-149.75 -181.55 L-152.4 -181.9 -152.65 -182.0 -149.75 -181.55 M-142.25 -180.5 L-142.55 -180.5 -142.15 -180.5 -142.25 -180.5" fill="url(#gradient48)" fill-rule="evenodd" stroke="none"/>
    <path d="M-152.0 -181.5 L-152.4 -181.9 -149.75 -181.55 -147.75 -181.25 -147.65 -181.25 -144.15 -180.75 -143.9 -180.65 -144.0 -180.4 -152.0 -181.5" fill="url(#gradient49)" fill-rule="evenodd" stroke="none"/>
    <path d="M-152.0 -181.5 L-144.0 -180.4 -144.25 -179.9 -144.25 -178.75 -144.25 -178.5 -144.0 -173.4 -144.0 -173.0 -144.5 -173.0 -150.15 -180.0 -152.0 -181.5" fill="url(#gradient50)" fill-rule="evenodd" stroke="none"/>
    <path d="M-144.5 -173.0 L-144.0 -173.0 -144.15 -172.65 -144.5 -173.0" fill="url(#gradient51)" fill-rule="evenodd" stroke="none"/>
    <path d="M-143.4 -180.25 L-143.75 -180.6 -143.75 -180.65 -142.6 -180.5 -142.55 -180.5 -142.25 -180.5 -142.65 -180.4 -143.4 -180.25" fill="url(#gradient52)" fill-rule="evenodd" stroke="none"/>
    <path d="M-131.05 -178.15 L-130.75 -178.15 -130.4 -178.15 -122.15 -179.5 -130.9 -177.9 -131.25 -177.9 -131.05 -178.15" fill="url(#gradient53)" fill-rule="evenodd" stroke="none"/>
    <path d="M-131.25 -177.9 L-130.9 -177.9 -132.15 -177.75 -131.25 -177.9" fill="url(#gradient54)" fill-rule="evenodd" stroke="none"/>
    <path d="M-138.25 -176.65 L-138.25 -177.25 -138.0 -177.15 -138.25 -176.65" fill="url(#gradient55)" fill-rule="evenodd" stroke="none"/>
    <path d="M-141.65 -174.5 L-141.9 -174.65 -141.5 -175.9 -141.65 -174.5 M-142.25 -173.0 L-141.9 -174.4 -142.0 -172.65 -142.25 -173.0" fill="url(#gradient56)" fill-rule="evenodd" stroke="none"/>
    <path d="M-119.0 -173.9 L-120.65 -174.15 -118.9 -174.65 -119.0 -174.25 -119.0 -173.9" fill="url(#gradient57)" fill-rule="evenodd" stroke="none"/>
    <path d="M-122.9 -173.65 L-126.9 -172.5 -127.4 -172.4 -127.65 -172.4 -128.5 -172.15 -128.65 -172.15 -130.25 -170.0 -130.65 -168.4 -131.5 -166.15 -132.0 -166.0 -132.25 -166.75 -132.25 -168.0 -132.9 -169.15 -133.65 -169.15 -134.5 -168.15 -134.75 -168.0 -135.0 -167.9 -135.4 -167.75 -136.5 -167.9 -136.4 -169.15 -136.75 -169.25 -137.25 -167.75 -139.4 -167.5 -139.75 -169.15 -139.5 -170.9 -137.25 -171.25 -133.75 -172.0 Q-128.2 -172.95 -122.75 -174.4 L-122.9 -173.65" fill="url(#gradient58)" fill-rule="evenodd" stroke="none"/>
    <path d="M-131.4 -165.9 L-131.4 -165.75 -131.5 -165.15 -131.65 -164.75 -132.15 -161.15 -132.15 -159.5 -132.5 -158.75 -133.65 -158.5 -133.75 -158.75 -133.0 -159.15 -132.9 -159.75 -132.5 -160.15 -132.75 -160.25 -132.75 -160.5 -132.65 -160.9 -132.25 -163.4 -132.25 -165.75 -132.0 -166.0 -131.5 -166.15 -131.4 -165.9" fill="url(#gradient59)" fill-rule="evenodd" stroke="none"/>
    <path d="M-135.0 -167.9 L-134.75 -168.0 -134.5 -168.15 -133.5 -168.5 -132.75 -168.5 -132.65 -168.0 -132.25 -168.0 -132.25 -166.75 -132.5 -166.5 -132.25 -165.75 -135.25 -166.25 -135.0 -167.65 -134.9 -167.75 -135.0 -167.9" fill="url(#gradient60)" fill-rule="evenodd" stroke="none"/>
    <path d="M-135.9 -166.15 L-135.9 -166.25 -135.4 -167.75 -135.0 -167.9 -134.9 -167.75 -135.0 -167.65 -135.25 -166.25 -135.65 -164.9 -135.65 -164.5 -135.75 -163.65 -135.75 -163.5 -136.15 -163.65 -135.65 -164.5 -136.0 -164.9 -135.65 -166.0 -135.9 -166.15 M-135.75 -163.15 L-135.75 -161.0 -136.0 -161.25 -136.15 -162.25 -135.75 -163.15" fill="url(#gradient61)" fill-rule="evenodd" stroke="none"/>
    <path d="M-135.25 -166.25 L-132.25 -165.75 -132.25 -163.4 -132.65 -160.9 -132.75 -160.5 -132.75 -160.25 -132.9 -159.75 -134.0 -159.15 -135.75 -161.0 -135.75 -163.15 -135.75 -163.5 -135.75 -163.65 -135.65 -164.5 -135.65 -164.9 -135.25 -166.25" fill="url(#gradient62)" fill-rule="evenodd" stroke="none"/>
    <path d="M-136.4 -161.65 L-136.4 -164.0 -135.9 -166.15 -135.65 -166.0 -136.0 -164.9 -135.65 -164.5 -136.15 -163.65 -135.75 -163.5 -135.75 -163.15 -136.15 -162.25 -136.0 -161.25 -136.4 -161.65" fill="url(#gradient63)" fill-rule="evenodd" stroke="none"/>
    <path d="M-133.65 -158.5 L-129.75 -153.75 -125.4 -145.4 -122.75 -135.75 -122.0 -122.0 -123.0 -113.75 Q-127.25 -93.4 -146.5 -82.0 L-145.9 -83.5 Q-148.0 -88.25 -146.75 -91.65 L-144.4 -100.5 -140.75 -109.9 -139.65 -111.65 -140.0 -114.5 Q-129.25 -134.25 -139.5 -164.0 L-136.9 -162.15 -136.65 -162.0 -136.4 -161.65 -136.0 -161.25 -135.75 -161.0 -134.0 -159.15 -133.75 -158.75 -133.65 -158.5" fill="url(#gradient64)" fill-rule="evenodd" stroke="none"/>
    <path d="M-197.4 -0.9 L-251.75 -0.9 -255.0 -8.25 -255.15 -9.25 -259.4 -27.15 -287.15 -72.25 -293.0 -94.25 -293.15 -95.4 -291.65 -105.75 -257.0 -108.0 -235.4 -107.75 -216.75 -97.25 -209.5 -92.25 -206.25 -90.5 -203.4 -89.65 -198.25 -86.5 -196.15 -26.0 -197.4 -0.9" fill="url(#gradient65)" fill-rule="evenodd" stroke="none"/>
    <path d="M-148.4 -78.0 L-165.0 -25.9 -165.9 -0.9 -197.4 -0.9 -196.15 -26.0 -198.25 -86.5 -192.5 -86.0 -183.65 -85.15 -163.0 -83.15 -148.4 -78.0" fill="url(#gradient66)" fill-rule="evenodd" stroke="none"/>
    <path d="M-251.75 -0.9 L-288.25 -0.9 -291.25 -8.25 -300.9 -35.9 -311.65 -62.0 -287.4 -69.15 -286.75 -69.4 -287.25 -71.25 -287.15 -72.25 -259.4 -27.15 -255.15 -9.25 -255.0 -8.25 -251.75 -0.9" fill="url(#gradient67)" fill-rule="evenodd" stroke="none"/>
    <path d="M-195.0 -256.25 L-191.75 -252.9 -211.0 -252.15 -215.25 -251.4 -215.65 -251.4 -224.25 -249.65 -225.15 -249.4 -238.5 -247.0 -239.65 -246.5 -240.0 -246.15 -240.75 -246.15 -241.25 -246.0 -242.9 -245.9 -243.4 -245.9 -244.4 -245.75 -246.0 -245.75 -249.4 -245.4 -250.75 -245.4 -250.5 -245.65 -249.5 -246.4 -249.25 -246.5 -246.4 -248.4 -242.65 -250.25 -237.5 -251.15 -237.25 -251.4 -235.25 -251.4 -216.4 -255.65 -215.75 -255.65 -214.4 -256.0 -195.0 -256.25 M-186.4 -247.0 L-186.4 -247.15 -186.0 -247.15 -185.4 -246.0 -186.4 -247.0 M-182.15 -242.5 L-184.9 -245.65 -181.9 -242.5 -182.15 -242.5 M-153.4 -187.0 L-153.65 -188.4 -153.9 -188.5 -151.9 -188.25 -151.75 -188.15 -151.4 -186.25 -151.25 -185.75 -151.15 -185.65 -151.25 -185.0 -151.25 -184.9 -151.0 -184.9 -150.9 -184.75 -151.0 -184.5 -151.15 -184.5 -151.65 -184.5 -151.75 -184.65 -151.4 -184.65 -151.75 -184.9 -151.75 -185.0 -152.0 -185.0 -152.0 -185.15 -152.25 -185.75 -152.25 -185.9 -152.65 -186.0 -153.25 -186.4 -153.4 -187.0 M-141.0 -172.0 L-141.15 -172.25 -141.5 -172.5 -141.5 -172.65 -141.5 -173.0 -141.0 -173.0 -140.9 -172.75 -140.4 -172.15 -140.15 -171.75 -140.0 -171.65 -139.9 -171.5 -139.4 -171.0 -139.4 -170.9 -139.15 -170.75 -138.25 -169.65 -137.75 -169.4 -137.15 -168.4 -136.65 -168.15 -135.75 -167.15 -135.75 -167.0 -135.65 -166.5 -135.25 -166.65 -135.0 -166.4 -135.15 -166.4 -135.25 -166.25 -134.9 -166.15 -132.65 -163.5 -132.4 -163.4 -132.25 -163.15 -132.25 -163.0 -132.0 -162.75 -132.15 -161.65 -132.25 -161.75 -132.4 -162.15 -132.5 -162.15 -132.4 -162.4 -132.5 -162.5 -132.75 -162.5 -133.15 -162.9 -133.5 -163.5 -134.0 -163.65 -135.5 -165.65 -135.5 -165.75 -135.9 -166.15 -136.15 -166.0 -136.0 -166.25 -137.25 -167.75 -139.5 -170.25 -139.5 -170.5 -140.0 -170.75 -140.0 -170.9 -140.15 -171.0 -140.5 -171.5 -141.0 -172.0 M-142.9 -174.75 L-142.65 -174.5 -142.9 -174.65 -142.9 -174.75 M-142.0 -173.65 L-141.9 -173.75 -141.9 -173.5 -141.65 -173.5 -141.65 -173.4 -141.9 -173.5 -142.0 -173.65" fill="#9b0000" fill-opacity="0.9098039" fill-rule="evenodd" stroke="none"/>
    <path d="M-180.9 -241.4 L-181.4 -241.65 -181.75 -241.9 -181.9 -242.4 -182.25 -242.4 -182.15 -242.5 -181.9 -242.5 -181.75 -242.4 -181.5 -242.4 -181.0 -241.65 -180.9 -241.4 M-151.15 -184.5 L-150.9 -183.9 -150.4 -182.9 -150.15 -182.9 -149.9 -182.5 -150.4 -182.9 -151.65 -184.5 -151.15 -184.5 M-151.75 -184.65 L-152.0 -184.65 -152.0 -184.9 -152.25 -185.0 -152.25 -185.15 -152.4 -185.15 -152.9 -185.9 -153.0 -185.9 -153.15 -186.0 -153.25 -186.25 -153.25 -186.4 -152.65 -186.0 -152.25 -185.9 -152.25 -185.75 -152.0 -185.15 -152.0 -185.0 -151.75 -185.0 -151.75 -184.9 -151.4 -184.65 -151.75 -184.65 M-141.5 -172.65 L-141.65 -172.65 -141.65 -172.75 -141.75 -172.9 -142.0 -173.0 -142.15 -173.25 -142.15 -173.5 -142.25 -173.65 -142.4 -173.65 -142.9 -174.25 -143.15 -174.4 -143.0 -174.65 -143.15 -174.75 -143.5 -174.9 -143.75 -175.15 -143.9 -175.65 -144.15 -175.65 -144.25 -176.0 -146.75 -178.75 -147.5 -179.75 -147.9 -179.9 -147.9 -180.0 -148.0 -180.15 -148.15 -180.25 -147.9 -180.25 -147.65 -180.15 -147.5 -179.9 -147.25 -179.9 -147.5 -179.75 -147.15 -179.75 -146.9 -179.25 -144.25 -176.5 -144.15 -176.15 -143.75 -176.0 -143.75 -175.65 -143.5 -175.65 -143.4 -175.5 -143.5 -175.15 -143.0 -174.9 -142.9 -174.75 -142.9 -174.65 -142.65 -174.5 -142.25 -174.25 -142.15 -173.75 -142.0 -173.9 -142.0 -173.65 -141.9 -173.5 -141.65 -173.4 -141.5 -173.25 -141.5 -173.0 -141.5 -172.65 M-149.25 -181.75 L-149.5 -181.75 -149.65 -182.25 -149.25 -181.75 M-148.9 -181.4 L-148.75 -181.4 -148.9 -181.25 -149.15 -181.25 -149.15 -181.4 -148.9 -181.4 M-148.5 -181.15 L-148.5 -181.0 -148.5 -180.9 -148.75 -180.9 -148.75 -181.15 -149.0 -181.15 -148.9 -181.25 -148.65 -181.25 -148.75 -181.15 -148.5 -181.15 M-148.0 -180.5 L-148.0 -180.4 -148.15 -180.4 -148.25 -180.5 -148.0 -180.5 M-148.65 -180.75 L-148.5 -180.9 -148.25 -180.9 -148.4 -180.75 -148.65 -180.75" fill="#ad0000" fill-rule="evenodd" stroke="none"/>
    <path d="M-180.9 -241.4 L-180.5 -240.75 -179.15 -239.25 -178.75 -237.25 -178.65 -235.9 -178.4 -235.65 -178.4 -234.9 -178.25 -234.65 -174.5 -211.0 -170.15 -206.25 -169.75 -205.5 -165.15 -200.5 -164.9 -199.65 -169.65 -204.65 -169.9 -205.25 -177.5 -213.75 -180.75 -235.0 -180.9 -235.4 -181.0 -236.75 -181.15 -237.0 -181.15 -237.65 -181.65 -239.75 -181.5 -240.0 -181.9 -241.4 -181.75 -241.9 -181.4 -241.65 -180.9 -241.4 M-163.25 -197.4 L-163.5 -198.0 -159.15 -193.65 -158.75 -192.65 -163.25 -197.4 M-163.75 -198.9 L-163.5 -198.0 -164.5 -198.9 -164.9 -199.65 -163.75 -198.9 M-158.75 -192.65 L-157.15 -191.25 -156.65 -190.5 -156.9 -190.4 -158.4 -191.9 -158.75 -192.65 M-154.25 -187.65 L-153.4 -187.0 -153.25 -186.4 -154.25 -187.15 -154.25 -187.5 -154.25 -187.65 M-150.9 -183.9 L-150.15 -182.9 -149.75 -182.9 -149.9 -182.5 -150.15 -182.9 -150.4 -182.9 -150.9 -183.9 M-131.9 -137.15 L-134.9 -139.5 -135.25 -139.9 -135.15 -140.0 -144.9 -148.75 -145.15 -149.25 -155.65 -158.9 -156.0 -159.15 -163.4 -165.75 -163.5 -166.25 -167.65 -169.75 -169.5 -171.65 -170.0 -171.75 -170.0 -171.9 -170.15 -171.9 -158.0 -173.65 -157.5 -173.9 -146.65 -175.5 -144.15 -175.65 -143.9 -175.65 -143.75 -175.15 -143.5 -174.9 -143.15 -174.75 -143.0 -174.65 -143.15 -174.4 -142.9 -174.25 -142.4 -173.65 -142.25 -173.65 -142.15 -173.5 -142.15 -173.25 -142.0 -173.0 -141.75 -172.9 -141.65 -172.75 -141.65 -172.65 -141.5 -172.65 -141.5 -172.5 -141.15 -172.25 -141.0 -172.0 -141.0 -171.9 -141.15 -171.65 -140.75 -170.65 -140.4 -168.4 -140.0 -168.0 -139.25 -164.9 -139.25 -164.75 -139.15 -164.4 -139.15 -164.0 -138.75 -163.4 -138.75 -162.5 -138.9 -162.4 -137.75 -158.65 -137.65 -158.4 -137.4 -157.4 -137.25 -157.15 -136.0 -152.25 -136.0 -151.9 -135.9 -151.9 -135.75 -151.5 -135.65 -150.9 -135.65 -150.75 -135.25 -149.5 -135.15 -149.4 -132.65 -139.9 -132.25 -138.9 -132.4 -138.65 -131.9 -137.15 M-148.9 -181.4 L-149.0 -181.5 -149.25 -181.65 -149.25 -181.75 -149.65 -182.25 -149.0 -181.75 -148.9 -181.4 M-148.75 -181.4 L-148.65 -181.25 -148.5 -181.25 -148.5 -181.15 -148.75 -181.15 -148.65 -181.25 -148.9 -181.25 -149.0 -181.15 -149.15 -181.25 -148.9 -181.25 -148.75 -181.4 M-148.5 -181.0 L-148.25 -181.0 -148.25 -180.9 -148.15 -180.75 -148.15 -180.65 -148.0 -180.5 -148.25 -180.5 -148.15 -180.65 -148.4 -180.65 -148.4 -180.75 -148.25 -180.9 -148.5 -180.9 -148.65 -180.75 -148.75 -180.9 -148.5 -180.9 -148.5 -181.0 M-148.0 -180.4 L-147.75 -180.4 -147.65 -180.15 -147.9 -180.25 -148.0 -180.4" fill="#9f0000" fill-opacity="0.9098039" fill-rule="evenodd" stroke="none"/>
    <path d="M-156.65 -190.5 L-154.15 -187.9 -154.25 -187.65 -154.25 -187.5 -156.65 -189.9 -156.9 -190.4 -156.65 -190.5" fill="#af0000" fill-opacity="0.9098039" fill-rule="evenodd" stroke="none"/>
    <path d="M-153.9 -188.5 L-158.65 -212.15 -156.5 -210.25 -151.9 -188.25 -153.9 -188.5 M-196.0 -90.5 L-193.75 -90.25 -193.5 -90.25 -184.0 -89.15 -183.25 -89.15 -177.25 -88.4 -176.65 -88.4 -172.9 -88.0 -172.65 -88.0 -172.25 -87.9 -171.65 -87.9 -170.9 -87.75 -153.75 -85.9 -152.65 -85.5 -147.4 -82.4 -146.5 -82.15 -146.5 -82.0 -148.0 -79.15 -148.25 -78.5 -164.5 -28.0 -165.0 -26.0 -165.75 -11.15 -165.5 -10.5 -165.75 -10.4 -165.9 -8.9 -165.65 -7.15 -165.9 -6.75 -165.9 -0.9 -194.0 -0.9 -193.9 -1.15 -193.0 -19.9 -193.15 -20.9 -192.9 -22.5 -195.25 -76.5 -195.65 -78.75 -195.9 -87.4 -196.0 -87.65 -196.0 -90.5 M-132.0 -162.75 L-121.0 -150.75 -121.15 -150.4 -122.25 -148.9 -123.0 -151.4 -132.15 -161.65 -132.0 -162.75 M-118.4 -135.65 L-117.9 -133.15 -122.65 -134.15 -123.0 -135.65 -122.9 -136.0 -125.0 -144.0 -122.4 -148.4 -118.4 -135.65" fill="#ab0000" fill-opacity="0.9098039" fill-rule="evenodd" stroke="none"/>
    <path d="M-170.0 -171.75 L-170.15 -168.9 -170.25 -168.65 -170.15 -166.75 -171.75 -130.65 -172.15 -130.0 -172.25 -129.75 -172.9 -128.75 -173.0 -128.5 -173.65 -127.5 -173.75 -127.25 -174.65 -125.9 -174.75 -125.65 -175.4 -124.65 -175.5 -124.4 -176.15 -123.4 -176.25 -123.15 -176.9 -122.15 -177.0 -121.9 -177.65 -120.9 -177.75 -120.65 -179.4 -118.0 -179.5 -117.75 -180.15 -116.75 -180.25 -116.5 -180.9 -115.5 -181.0 -115.25 -181.25 -115.0 -181.25 -114.9 -181.65 -114.25 -181.75 -114.0 -182.4 -113.0 -182.5 -112.75 -183.4 -111.4 -183.5 -111.15 -184.15 -110.15 -184.25 -109.9 -184.9 -108.9 -185.0 -108.65 -185.65 -107.65 -185.75 -107.4 -187.15 -105.15 -187.25 -104.9 -188.15 -103.5 -188.25 -103.25 -188.9 -102.25 -189.0 -102.0 -189.65 -101.0 -189.9 -101.0 -189.9 -100.5 -190.25 -99.9 -190.4 -99.75 -190.5 -99.5 -191.15 -98.5 -191.25 -98.25 -192.15 -96.9 -192.25 -96.65 -192.9 -95.65 -193.0 -95.4 -193.15 -95.15 -193.65 -94.65 -196.0 -90.5 -201.5 -93.4 -201.75 -93.75 -212.25 -99.4 -212.4 -99.25 -218.0 -102.4 -218.5 -102.9 -220.65 -103.9 -220.65 -104.0 -222.9 -105.25 -223.25 -105.25 -223.4 -105.5 -241.25 -115.25 -266.9 -115.4 -289.15 -113.5 -289.5 -113.5 -290.75 -113.4 -289.9 -120.0 -281.65 -125.15 -281.15 -125.65 -272.9 -130.75 -272.65 -131.15 -261.65 -138.15 -261.4 -138.5 -242.4 -150.75 -242.25 -151.0 -239.0 -153.15 -236.65 -153.75 -236.25 -154.0 -215.15 -159.65 -214.65 -159.9 -202.25 -163.25 -201.75 -163.25 -170.15 -171.9 -170.0 -171.9 -170.0 -171.75" fill="#da0000" fill-opacity="0.9098039" fill-rule="evenodd" stroke="none"/>
    <path d="M-290.75 -113.4 L-289.5 -113.5 -289.15 -113.5 -266.9 -115.4 -241.25 -115.25 -223.4 -105.5 -223.25 -105.25 -222.9 -105.25 -220.65 -104.0 -220.65 -103.9 -218.5 -102.9 -218.0 -102.4 -212.4 -99.25 -212.25 -99.4 -201.75 -93.75 -201.5 -93.4 -196.0 -90.5 -196.0 -87.65 -195.9 -87.4 -195.65 -78.75 -195.25 -76.5 -192.9 -22.5 -193.15 -20.9 -193.0 -19.9 -193.9 -1.15 -194.0 -0.9 -251.75 -0.9 -251.9 -1.15 -253.75 -5.75 -254.75 -7.5 -254.9 -8.0 -255.0 -8.15 -256.4 -15.25 -259.75 -27.65 -263.9 -34.4 -264.25 -34.75 -264.5 -35.4 -287.15 -72.25 -293.15 -95.4 -290.75 -113.4" fill="#db0000" fill-opacity="0.9098039" fill-rule="evenodd" stroke="none"/>
    <path d="M-170.0 -171.75 L-169.5 -171.65 -167.65 -169.75 -163.5 -166.25 -163.4 -165.75 -156.0 -159.15 -155.65 -158.9 -145.15 -149.25 -144.9 -148.75 -135.15 -140.0 -135.25 -139.9 -134.9 -139.5 -131.9 -137.15 -136.15 -108.15 -136.25 -107.9 -136.75 -103.25 -137.25 -101.65 -137.15 -101.4 -137.4 -100.25 -137.5 -100.0 -137.4 -99.75 -137.5 -99.25 -137.5 -97.4 -131.0 -103.65 -129.75 -104.65 -125.9 -108.4 -125.5 -109.0 -124.9 -109.5 -124.5 -109.65 -124.4 -109.4 -125.75 -105.25 -126.15 -104.9 -126.15 -104.5 -126.25 -104.4 -126.25 -104.0 -126.5 -103.65 -126.75 -103.4 -127.15 -102.75 -127.15 -102.4 -131.0 -95.9 -137.5 -88.5 -138.5 -87.65 -138.9 -87.5 -138.9 -87.4 -140.15 -86.25 -145.25 -82.5 -146.25 -82.0 -146.5 -82.0 -146.5 -82.15 -147.4 -82.4 -152.65 -85.5 -153.75 -85.9 -170.9 -87.75 -171.65 -87.9 -172.25 -87.9 -172.65 -88.0 -172.9 -88.0 -176.65 -88.4 -177.25 -88.4 -183.25 -89.15 -184.0 -89.15 -193.5 -90.25 -193.75 -90.25 -196.0 -90.5 -193.65 -94.65 -193.15 -95.15 -193.0 -95.4 -192.9 -95.65 -192.25 -96.65 -192.15 -96.9 -191.25 -98.25 -191.15 -98.5 -190.5 -99.5 -190.4 -99.75 -190.25 -99.9 -189.9 -100.5 -189.9 -101.0 -189.65 -101.0 -189.0 -102.0 -188.9 -102.25 -188.25 -103.25 -188.15 -103.5 -187.25 -104.9 -187.15 -105.15 -185.75 -107.4 -185.65 -107.65 -185.0 -108.65 -184.9 -108.9 -184.25 -109.9 -184.15 -110.15 -183.5 -111.15 -183.4 -111.4 -182.5 -112.75 -182.4 -113.0 -181.75 -114.0 -181.65 -114.25 -181.25 -114.9 -181.25 -115.0 -181.0 -115.25 -180.9 -115.5 -180.25 -116.5 -180.15 -116.75 -179.5 -117.75 -179.4 -118.0 -177.75 -120.65 -177.65 -120.9 -177.0 -121.9 -176.9 -122.15 -176.25 -123.15 -176.15 -123.4 -175.5 -124.4 -175.4 -124.65 -174.75 -125.65 -174.65 -125.9 -173.75 -127.25 -173.65 -127.5 -173.0 -128.5 -172.9 -128.75 -172.25 -129.75 -172.15 -130.0 -171.75 -130.65 -170.15 -166.75 -170.25 -168.65 -170.15 -168.9 -170.0 -171.75 M-154.25 -111.4 L-154.4 -111.15 -153.75 -111.5 -153.9 -111.75 -153.5 -111.9 -153.0 -113.0 -153.15 -113.25 -153.0 -114.15 -154.25 -111.5 -154.25 -111.4" fill="#b80000" fill-opacity="0.9098039" fill-rule="evenodd" stroke="none"/>
    <path d="M-121.15 -150.4 L-118.4 -135.65 -122.4 -148.4 -122.25 -148.9 -121.15 -150.4" fill="#ab0000" fill-rule="evenodd" stroke="none"/>
    <path d="M-117.9 -133.15 L-119.5 -114.5 -119.9 -113.9 -124.15 -110.25 -123.9 -110.9 -124.0 -111.15 -123.15 -113.15 -123.15 -114.75 -122.65 -119.9 -122.5 -120.75 -122.5 -120.9 -122.0 -122.25 -122.65 -134.15 -117.9 -133.15" fill="#b30000" fill-opacity="0.9098039" fill-rule="evenodd" stroke="none"/>
    <path d="M-140.15 -86.25 L-138.9 -87.4 -138.9 -87.5 -138.5 -87.65 -137.5 -88.5 -131.0 -95.9 -127.15 -102.4 -127.15 -102.75 -126.75 -103.4 -126.5 -103.65 -126.25 -104.0 -126.25 -104.4 -126.15 -104.5 -126.15 -104.9 -125.75 -105.25 -124.4 -109.4 -124.5 -109.65 -124.15 -110.25 -119.9 -113.9 -136.75 -79.15 -142.9 -81.0 -140.15 -86.25" fill="#c80000" fill-rule="evenodd" stroke="none"/>
    <path d="M-146.5 -82.0 L-146.25 -82.0 -142.9 -81.0 -145.0 -77.0 -148.25 -78.5 -148.0 -79.15 -146.5 -82.0" fill="#c00000" fill-rule="evenodd" stroke="none"/>
    <path d="M-146.25 -82.0 L-145.25 -82.5 -140.15 -86.25 -142.9 -81.0 -146.25 -82.0" fill="#ce0000" fill-rule="evenodd" stroke="none"/>
    <path d="M-136.75 -79.15 L-145.0 -77.0 -142.9 -81.0 -136.75 -79.15" fill="#bb0000" fill-rule="evenodd" stroke="none"/>
    <path d="M-136.75 -79.15 L-155.5 -22.5 -156.15 -0.9 -162.9 -0.9 -162.15 -23.4 -145.0 -77.0 -136.75 -79.15" fill="#ba0000" fill-rule="evenodd" stroke="none"/>
    <path d="M-165.9 -0.9 L-165.9 -6.75 -165.65 -7.15 -165.9 -8.9 -165.75 -10.4 -165.5 -10.5 -165.75 -11.15 -165.0 -26.0 -164.5 -28.0 -148.25 -78.5 -145.0 -77.0 -162.15 -23.4 -162.9 -0.9 -165.9 -0.9" fill="#c10000" fill-rule="evenodd" stroke="none"/>
  </g>
  <defs>
    <radialGradient cx="0" cy="0" gradientTransform="matrix(0.1753, 0.0, 0.0, 0.1753, -159.9, -255.35)" gradientUnits="userSpaceOnUse" id="gradient0" r="819.2" spreadMethod="pad">
      <stop offset="0.0" stop-color="#7d7d7d"/>
      <stop offset="1.0" stop-color="#000000"/>
    </radialGradient>
    <radialGradient cx="0" cy="0" gradientTransform="matrix(0.0241, 0.0, 0.0, 0.0241, -130.2, -281.95)" gradientUnits="userSpaceOnUse" id="gradient1" r="819.2" spreadMethod="pad">
      <stop offset="0.0" stop-color="#f89797"/>
      <stop offset="1.0" stop-color="#470000"/>
    </radialGradient>
    <radialGradient cx="0" cy="0" gradientTransform="matrix(0.2272, 0.0, 0.0, 0.2272, -287.4, -300.0)" gradientUnits="userSpaceOnUse" id="gradient2" r="819.2" spreadMethod="pad">
      <stop offset="0.0" stop-color="#5a5a5a"/>
      <stop offset="1.0" stop-color="#090909"/>
    </radialGradient>
    <radialGradient cx="0" cy="0" gradientTransform="matrix(0.0202, 0.0, 0.0, 0.0202, -134.55, -283.7)" gradientUnits="userSpaceOnUse" id="gradient3" r="819.2" spreadMethod="pad">
      <stop offset="0.0" stop-color="#ff3030"/>
      <stop offset="1.0" stop-color="#ff2d2d"/>
    </radialGradient>
    <radialGradient cx="0" cy="0" gradientTransform="matrix(0.0181, 0.0, 0.0, 0.0181, -125.8, -287.6)" gradientUnits="userSpaceOnUse" id="gradient4" r="819.2" spreadMethod="pad">
      <stop offset="0.0" stop-color="#ff5151"/>
      <stop offset="1.0" stop-color="#330000"/>
    </radialGradient>
    <radialGradient cx="0" cy="0" gradientTransform="matrix(0.0181, 0.0, 0.0, 0.0181, -125.85, -287.1)" gradientUnits="userSpaceOnUse" id="gradient5" r="819.2" spreadMethod="pad">
      <stop offset="0.0" stop-color="#ff5151"/>
      <stop offset="1.0" stop-color="#ff4c4c"/>
    </radialGradient>
    <radialGradient cx="0" cy="0" gradientTransform="matrix(0.0583, 0.0, 0.0, 0.0583, -219.0, -252.9)" gradientUnits="userSpaceOnUse" id="gradient6" r="819.2" spreadMethod="pad">
      <stop offset="0.0" stop-color="#030303"/>
      <stop offset="1.0" stop-color="#000000"/>
    </radialGradient>
    <radialGradient cx="0" cy="0" gradientTransform="matrix(0.0889, 0.0, 0.0, 0.0889, -254.45, -300.0)" gradientUnits="userSpaceOnUse" id="gradient7" r="819.2" spreadMethod="pad">
      <stop offset="0.0" stop-color="#0f0f0f"/>
      <stop offset="1.0" stop-color="#080808"/>
    </radialGradient>
    <radialGradient cx="0" cy="0" gradientTransform="matrix(0.0975, 0.0, 0.0, 0.0975, -277.65, -237.35)" gradientUnits="userSpaceOnUse" id="gradient8" r="819.2" spreadMethod="pad">
      <stop offset="0.0" stop-color="#575757"/>
      <stop offset="1.0" stop-color="#151515"/>
    </radialGradient>
    <radialGradient cx="0" cy="0" gradientTransform="matrix(0.0825, 0.0, 0.0, 0.0825, -261.55, -244.35)" gradientUnits="userSpaceOnUse" id="gradient9" r="819.2" spreadMethod="pad">
      <stop offset="0.0" stop-color="#444444"/>
      <stop offset="1.0" stop-color="#000000"/>
    </radialGradient>
    <radialGradient cx="0" cy="0" gradientTransform="matrix(0.0799, 0.0, 0.0, 0.0799, -236.8, -179.0)" gradientUnits="userSpaceOnUse" id="gradient10" r="819.2" spreadMethod="pad">
      <stop offset="0.0" stop-color="#171717"/>
      <stop offset="1.0" stop-color="#000000"/>
    </radialGradient>
    <radialGradient cx="0" cy="0" gradientTransform="matrix(0.0343, 0.0, 0.0, 0.0343, -194.4, -237.1)" gradientUnits="userSpaceOnUse" id="gradient11" r="819.2" spreadMethod="pad">
      <stop offset="0.0" stop-color="#000000"/>
      <stop offset="1.0" stop-color="#000000"/>
    </radialGradient>
    <radialGradient cx="0" cy="0" gradientTransform="matrix(0.1655, 0.0, 0.0, 0.1655, -235.3, -107.9)" gradientUnits="userSpaceOnUse" id="gradient12" r="819.2" spreadMethod="pad">
      <stop offset="0.0" stop-color="#626262"/>
      <stop offset="1.0" stop-color="#000000"/>
    </radialGradient>
    <radialGradient cx="0" cy="0" gradientTransform="matrix(0.1319, 0.0, 0.0, 0.1319, -222.25, -132.1)" gradientUnits="userSpaceOnUse" id="gradient13" r="819.2" spreadMethod="pad">
      <stop offset="0.0" stop-color="#323232"/>
      <stop offset="1.0" stop-color="#000000"/>
    </radialGradient>
    <radialGradient cx="0" cy="0" gradientTransform="matrix(0.0807, 0.0, 0.0, 0.0807, -260.45, -240.05)" gradientUnits="userSpaceOnUse" id="gradient14" r="819.2" spreadMethod="pad">
      <stop offset="0.0" stop-color="#3c3c3c"/>
      <stop offset="1.0" stop-color="#000000"/>
    </radialGradient>
    <radialGradient cx="0" cy="0" gradientTransform="matrix(0.0735, 0.0, 0.0, 0.0735, -274.35, -236.2)" gradientUnits="userSpaceOnUse" id="gradient15" r="819.2" spreadMethod="pad">
      <stop offset="0.0" stop-color="#3d3d3d"/>
      <stop offset="1.0" stop-color="#080808"/>
    </radialGradient>
    <radialGradient cx="0" cy="0" gradientTransform="matrix(0.0402, 0.0, 0.0, 0.0402, -218.15, -257.85)" gradientUnits="userSpaceOnUse" id="gradient16" r="819.2" spreadMethod="pad">
      <stop offset="0.0" stop-color="#1a1a1a"/>
      <stop offset="1.0" stop-color="#000000"/>
    </radialGradient>
    <radialGradient cx="0" cy="0" gradientTransform="matrix(0.192, 0.0, 0.0, 0.192, -162.4, -83.1)" gradientUnits="userSpaceOnUse" id="gradient17" r="819.2" spreadMethod="pad">
      <stop offset="0.0" stop-color="#6a6a6a"/>
      <stop offset="1.0" stop-color="#000000"/>
    </radialGradient>
    <radialGradient cx="0" cy="0" gradientTransform="matrix(0.1352, 0.0, 0.0, 0.1352, -153.15, -100.25)" gradientUnits="userSpaceOnUse" id="gradient18" r="819.2" spreadMethod="pad">
      <stop offset="0.0" stop-color="#858585"/>
      <stop offset="1.0" stop-color="#121212"/>
    </radialGradient>
    <radialGradient cx="0" cy="0" gradientTransform="matrix(0.0193, 0.0, 0.0, 0.0193, -140.8, -183.55)" gradientUnits="userSpaceOnUse" id="gradient19" r="819.2" spreadMethod="pad">
      <stop offset="0.0" stop-color="#828282"/>
      <stop offset="1.0" stop-color="#808080"/>
    </radialGradient>
    <radialGradient cx="0" cy="0" gradientTransform="matrix(0.0156, 0.0, 0.0, 0.0156, -128.8, -190.6)" gradientUnits="userSpaceOnUse" id="gradient20" r="819.2" spreadMethod="pad">
      <stop offset="0.0" stop-color="#303030"/>
      <stop offset="1.0" stop-color="#202020"/>
    </radialGradient>
    <radialGradient cx="0" cy="0" gradientTransform="matrix(0.0426, 0.0, 0.0, 0.0426, -132.6, -159.0)" gradientUnits="userSpaceOnUse" id="gradient21" r="819.2" spreadMethod="pad">
      <stop offset="0.0" stop-color="#040404"/>
      <stop offset="1.0" stop-color="#040404"/>
    </radialGradient>
    <radialGradient cx="0" cy="0" gradientTransform="matrix(0.0215, 0.0, 0.0, 0.0215, -128.15, -189.75)" gradientUnits="userSpaceOnUse" id="gradient22" r="819.2" spreadMethod="pad">
      <stop offset="0.0" stop-color="#111111"/>
      <stop offset="1.0" stop-color="#111111"/>
    </radialGradient>
    <radialGradient cx="0" cy="0" gradientTransform="matrix(0.0169, 0.0, 0.0, 0.0169, -145.8, -187.9)" gradientUnits="userSpaceOnUse" id="gradient23" r="819.2" spreadMethod="pad">
      <stop offset="0.0" stop-color="#040404"/>
      <stop offset="1.0" stop-color="#040404"/>
    </radialGradient>
    <radialGradient cx="0" cy="0" gradientTransform="matrix(0.0175, 0.0, 0.0, 0.0175, -146.6, -187.85)" gradientUnits="userSpaceOnUse" id="gradient24" r="819.2" spreadMethod="pad">
      <stop offset="0.0" stop-color="#060606"/>
      <stop offset="1.0" stop-color="#060606"/>
    </radialGradient>
    <radialGradient cx="0" cy="0" gradientTransform="matrix(0.0175, 0.0, 0.0, 0.0175, -153.45, -188.6)" gradientUnits="userSpaceOnUse" id="gradient25" r="819.2" spreadMethod="pad">
      <stop offset="0.0" stop-color="#040404"/>
      <stop offset="1.0" stop-color="#040404"/>
    </radialGradient>
    <radialGradient cx="0" cy="0" gradientTransform="matrix(0.0177, 0.0, 0.0, 0.0177, -154.05, -188.55)" gradientUnits="userSpaceOnUse" id="gradient26" r="819.2" spreadMethod="pad">
      <stop offset="0.0" stop-color="#262626"/>
      <stop offset="1.0" stop-color="#262626"/>
    </radialGradient>
    <radialGradient cx="0" cy="0" gradientTransform="matrix(0.0175, 0.0, 0.0, 0.0175, -154.65, -186.25)" gradientUnits="userSpaceOnUse" id="gradient27" r="819.2" spreadMethod="pad">
      <stop offset="0.0" stop-color="#303030"/>
      <stop offset="1.0" stop-color="#303030"/>
    </radialGradient>
    <radialGradient cx="0" cy="0" gradientTransform="matrix(0.0196, 0.0, 0.0, 0.0196, -116.75, -180.9)" gradientUnits="userSpaceOnUse" id="gradient28" r="819.2" spreadMethod="pad">
      <stop offset="0.0" stop-color="#111111"/>
      <stop offset="1.0" stop-color="#111111"/>
    </radialGradient>
    <radialGradient cx="0" cy="0" gradientTransform="matrix(0.0162, 0.0, 0.0, 0.0162, -132.7, -177.6)" gradientUnits="userSpaceOnUse" id="gradient29" r="819.2" spreadMethod="pad">
      <stop offset="0.0" stop-color="#040404"/>
      <stop offset="1.0" stop-color="#040404"/>
    </radialGradient>
    <radialGradient cx="0" cy="0" gradientTransform="matrix(0.0111, 0.0, 0.0, 0.0111, -118.05, -174.1)" gradientUnits="userSpaceOnUse" id="gradient30" r="819.2" spreadMethod="pad">
      <stop offset="0.0" stop-color="#080808"/>
      <stop offset="1.0" stop-color="#080808"/>
    </radialGradient>
    <radialGradient cx="0" cy="0" gradientTransform="matrix(0.0208, 0.0, 0.0, 0.0208, -134.0, -172.05)" gradientUnits="userSpaceOnUse" id="gradient31" r="819.2" spreadMethod="pad">
      <stop offset="0.0" stop-color="#040404"/>
      <stop offset="1.0" stop-color="#040404"/>
    </radialGradient>
    <radialGradient cx="0" cy="0" gradientTransform="matrix(0.0162, 0.0, 0.0, 0.0162, -131.65, -178.05)" gradientUnits="userSpaceOnUse" id="gradient32" r="819.2" spreadMethod="pad">
      <stop offset="0.0" stop-color="#171717"/>
      <stop offset="1.0" stop-color="#171717"/>
    </radialGradient>
    <radialGradient cx="0" cy="0" gradientTransform="matrix(0.0168, 0.0, 0.0, 0.0168, -132.05, -179.8)" gradientUnits="userSpaceOnUse" id="gradient33" r="819.2" spreadMethod="pad">
      <stop offset="0.0" stop-color="#171717"/>
      <stop offset="1.0" stop-color="#171717"/>
    </radialGradient>
    <radialGradient cx="0" cy="0" gradientTransform="matrix(0.009, 0.0, 0.0, 0.009, -126.4, -181.4)" gradientUnits="userSpaceOnUse" id="gradient34" r="819.2" spreadMethod="pad">
      <stop offset="0.0" stop-color="#050505"/>
      <stop offset="1.0" stop-color="#050505"/>
    </radialGradient>
    <radialGradient cx="0" cy="0" gradientTransform="matrix(0.0101, 0.0, 0.0, 0.0101, -131.8, -185.3)" gradientUnits="userSpaceOnUse" id="gradient35" r="819.2" spreadMethod="pad">
      <stop offset="0.0" stop-color="#060606"/>
      <stop offset="1.0" stop-color="#060606"/>
    </radialGradient>
    <radialGradient cx="0" cy="0" gradientTransform="matrix(0.1208, 0.0, 0.0, 0.1208, -259.95, -147.8)" gradientUnits="userSpaceOnUse" id="gradient36" r="819.2" spreadMethod="pad">
      <stop offset="0.0" stop-color="#6a6a6a"/>
      <stop offset="1.0" stop-color="#000000"/>
    </radialGradient>
    <radialGradient cx="0" cy="0" gradientTransform="matrix(0.0834, 0.0, 0.0, 0.0834, -354.45, -133.25)" gradientUnits="userSpaceOnUse" id="gradient37" r="819.2" spreadMethod="pad">
      <stop offset="0.0" stop-color="#626262"/>
      <stop offset="1.0" stop-color="#000000"/>
    </radialGradient>
    <radialGradient cx="0" cy="0" gradientTransform="matrix(0.1579, 0.0, 0.0, 0.1579, -288.3, -1.0)" gradientUnits="userSpaceOnUse" id="gradient38" r="819.2" spreadMethod="pad">
      <stop offset="0.0" stop-color="#474747"/>
      <stop offset="1.0" stop-color="#000000"/>
    </radialGradient>
    <radialGradient cx="0" cy="0" gradientTransform="matrix(0.1424, 0.0, 0.0, 0.1424, -311.75, -62.1)" gradientUnits="userSpaceOnUse" id="gradient39" r="819.2" spreadMethod="pad">
      <stop offset="0.0" stop-color="#393939"/>
      <stop offset="1.0" stop-color="#000000"/>
    </radialGradient>
    <radialGradient cx="0" cy="0" gradientTransform="matrix(0.0175, 0.0, 0.0, 0.0175, -154.4, -186.25)" gradientUnits="userSpaceOnUse" id="gradient40" r="819.2" spreadMethod="pad">
      <stop offset="0.0" stop-color="#040404"/>
      <stop offset="1.0" stop-color="#040404"/>
    </radialGradient>
    <radialGradient cx="0" cy="0" gradientTransform="matrix(0.0177, 0.0, 0.0, 0.0177, -149.7, -187.25)" gradientUnits="userSpaceOnUse" id="gradient41" r="819.2" spreadMethod="pad">
      <stop offset="0.0" stop-color="#202020"/>
      <stop offset="1.0" stop-color="#202020"/>
    </radialGradient>
    <radialGradient cx="0" cy="0" gradientTransform="matrix(0.0173, 0.0, 0.0, 0.0173, -150.75, -187.1)" gradientUnits="userSpaceOnUse" id="gradient42" r="819.2" spreadMethod="pad">
      <stop offset="0.0" stop-color="#0a0a0a"/>
      <stop offset="1.0" stop-color="#0a0a0a"/>
    </radialGradient>
    <radialGradient cx="0" cy="0" gradientTransform="matrix(0.0172, 0.0, 0.0, 0.0172, -149.35, -186.95)" gradientUnits="userSpaceOnUse" id="gradient43" r="819.2" spreadMethod="pad">
      <stop offset="0.0" stop-color="#040404"/>
      <stop offset="1.0" stop-color="#040404"/>
    </radialGradient>
    <radialGradient cx="0" cy="0" gradientTransform="matrix(0.0168, 0.0, 0.0, 0.0168, -140.8, -183.55)" gradientUnits="userSpaceOnUse" id="gradient44" r="819.2" spreadMethod="pad">
      <stop offset="0.0" stop-color="#171717"/>
      <stop offset="1.0" stop-color="#171717"/>
    </radialGradient>
    <radialGradient cx="0" cy="0" gradientTransform="matrix(0.0075, 0.0, 0.0, 0.0075, -143.25, -176.35)" gradientUnits="userSpaceOnUse" id="gradient45" r="819.2" spreadMethod="pad">
      <stop offset="0.0" stop-color="#020202"/>
      <stop offset="1.0" stop-color="#020202"/>
    </radialGradient>
    <radialGradient cx="0" cy="0" gradientTransform="matrix(0.0054, 0.0, 0.0, 0.0054, -142.95, -178.5)" gradientUnits="userSpaceOnUse" id="gradient46" r="819.2" spreadMethod="pad">
      <stop offset="0.0" stop-color="#171717"/>
      <stop offset="1.0" stop-color="#171717"/>
    </radialGradient>
    <radialGradient cx="0" cy="0" gradientTransform="matrix(0.0182, 0.0, 0.0, 0.0182, -156.65, -182.85)" gradientUnits="userSpaceOnUse" id="gradient47" r="819.2" spreadMethod="pad">
      <stop offset="0.0" stop-color="#222222"/>
      <stop offset="1.0" stop-color="#222222"/>
    </radialGradient>
    <radialGradient cx="0" cy="0" gradientTransform="matrix(0.0176, 0.0, 0.0, 0.0176, -156.2, -182.6)" gradientUnits="userSpaceOnUse" id="gradient48" r="819.2" spreadMethod="pad">
      <stop offset="0.0" stop-color="#171717"/>
      <stop offset="1.0" stop-color="#171717"/>
    </radialGradient>
    <radialGradient cx="0" cy="0" gradientTransform="matrix(0.018, 0.0, 0.0, 0.018, -143.95, -180.6)" gradientUnits="userSpaceOnUse" id="gradient49" r="819.2" spreadMethod="pad">
      <stop offset="0.0" stop-color="#828282"/>
      <stop offset="1.0" stop-color="#7f7f7f"/>
    </radialGradient>
    <radialGradient cx="0" cy="0" gradientTransform="matrix(0.0186, 0.0, 0.0, 0.0186, -144.05, -180.4)" gradientUnits="userSpaceOnUse" id="gradient50" r="819.2" spreadMethod="pad">
      <stop offset="0.0" stop-color="#303030"/>
      <stop offset="1.0" stop-color="#252525"/>
    </radialGradient>
    <radialGradient cx="0" cy="0" gradientTransform="matrix(0.0207, 0.0, 0.0, 0.0207, -156.8, -182.65)" gradientUnits="userSpaceOnUse" id="gradient51" r="819.2" spreadMethod="pad">
      <stop offset="0.0" stop-color="#212121"/>
      <stop offset="1.0" stop-color="#202020"/>
    </radialGradient>
    <radialGradient cx="0" cy="0" gradientTransform="matrix(0.0177, 0.0, 0.0, 0.0177, -143.5, -180.4)" gradientUnits="userSpaceOnUse" id="gradient52" r="819.2" spreadMethod="pad">
      <stop offset="0.0" stop-color="#040404"/>
      <stop offset="1.0" stop-color="#040404"/>
    </radialGradient>
    <radialGradient cx="0" cy="0" gradientTransform="matrix(0.0167, 0.0, 0.0, 0.0167, -130.85, -177.95)" gradientUnits="userSpaceOnUse" id="gradient53" r="819.2" spreadMethod="pad">
      <stop offset="0.0" stop-color="#040404"/>
      <stop offset="1.0" stop-color="#040404"/>
    </radialGradient>
    <radialGradient cx="0" cy="0" gradientTransform="matrix(0.0167, 0.0, 0.0, 0.0167, -144.4, -179.8)" gradientUnits="userSpaceOnUse" id="gradient54" r="819.2" spreadMethod="pad">
      <stop offset="0.0" stop-color="#040404"/>
      <stop offset="1.0" stop-color="#040404"/>
    </radialGradient>
    <radialGradient cx="0" cy="0" gradientTransform="matrix(7.0E-4, 0.0, 0.0, 7.0E-4, -138.15, -176.75)" gradientUnits="userSpaceOnUse" id="gradient55" r="819.2" spreadMethod="pad">
      <stop offset="0.0" stop-color="#020202"/>
      <stop offset="1.0" stop-color="#020202"/>
    </radialGradient>
    <radialGradient cx="0" cy="0" gradientTransform="matrix(0.0086, 0.0, 0.0, 0.0086, -141.05, -177.3)" gradientUnits="userSpaceOnUse" id="gradient56" r="819.2" spreadMethod="pad">
      <stop offset="0.0" stop-color="#020202"/>
      <stop offset="1.0" stop-color="#020202"/>
    </radialGradient>
    <radialGradient cx="0" cy="0" gradientTransform="matrix(0.015, 0.0, 0.0, 0.015, -118.9, -174.75)" gradientUnits="userSpaceOnUse" id="gradient57" r="819.2" spreadMethod="pad">
      <stop offset="0.0" stop-color="#252525"/>
      <stop offset="1.0" stop-color="#242424"/>
    </radialGradient>
    <radialGradient cx="0" cy="0" gradientTransform="matrix(0.0146, 0.0, 0.0, 0.0146, -131.45, -166.35)" gradientUnits="userSpaceOnUse" id="gradient58" r="819.2" spreadMethod="pad">
      <stop offset="0.0" stop-color="#050505"/>
      <stop offset="1.0" stop-color="#050505"/>
    </radialGradient>
    <radialGradient cx="0" cy="0" gradientTransform="matrix(0.0089, 0.0, 0.0, 0.0089, -132.4, -159.2)" gradientUnits="userSpaceOnUse" id="gradient59" r="819.2" spreadMethod="pad">
      <stop offset="0.0" stop-color="#0b0b0b"/>
      <stop offset="1.0" stop-color="#0b0b0b"/>
    </radialGradient>
    <radialGradient cx="0" cy="0" gradientTransform="matrix(0.0164, 0.0, 0.0, 0.0164, -145.3, -168.75)" gradientUnits="userSpaceOnUse" id="gradient60" r="819.2" spreadMethod="pad">
      <stop offset="0.0" stop-color="#1c1c1c"/>
      <stop offset="1.0" stop-color="#050505"/>
    </radialGradient>
    <radialGradient cx="0" cy="0" gradientTransform="matrix(0.0094, 0.0, 0.0, 0.0094, -135.9, -160.35)" gradientUnits="userSpaceOnUse" id="gradient61" r="819.2" spreadMethod="pad">
      <stop offset="0.0" stop-color="#060606"/>
      <stop offset="1.0" stop-color="#060606"/>
    </radialGradient>
    <radialGradient cx="0" cy="0" gradientTransform="matrix(0.0193, 0.0, 0.0, 0.0193, -133.0, -159.85)" gradientUnits="userSpaceOnUse" id="gradient62" r="819.2" spreadMethod="pad">
      <stop offset="0.0" stop-color="#313131"/>
      <stop offset="1.0" stop-color="#1e1e1e"/>
    </radialGradient>
    <radialGradient cx="0" cy="0" gradientTransform="matrix(0.0053, 0.0, 0.0, 0.0053, -136.0, -162.55)" gradientUnits="userSpaceOnUse" id="gradient63" r="819.2" spreadMethod="pad">
      <stop offset="0.0" stop-color="#171717"/>
      <stop offset="1.0" stop-color="#171717"/>
    </radialGradient>
    <radialGradient cx="0" cy="0" gradientTransform="matrix(0.0946, 0.0, 0.0, 0.0946, -137.95, -89.85)" gradientUnits="userSpaceOnUse" id="gradient64" r="819.2" spreadMethod="pad">
      <stop offset="0.0" stop-color="#878787"/>
      <stop offset="1.0" stop-color="#000000"/>
    </radialGradient>
    <radialGradient cx="0" cy="0" gradientTransform="matrix(0.121, 0.0, 0.0, 0.121, -232.6, -28.45)" gradientUnits="userSpaceOnUse" id="gradient65" r="819.2" spreadMethod="pad">
      <stop offset="0.0" stop-color="#838383"/>
      <stop offset="1.0" stop-color="#171717"/>
    </radialGradient>
    <radialGradient cx="0" cy="0" gradientTransform="matrix(0.1089, 0.0, 0.0, 0.1089, -162.4, -83.1)" gradientUnits="userSpaceOnUse" id="gradient66" r="819.2" spreadMethod="pad">
      <stop offset="0.0" stop-color="#6a6a6a"/>
      <stop offset="1.0" stop-color="#020202"/>
    </radialGradient>
    <radialGradient cx="0" cy="0" gradientTransform="matrix(0.0878, 0.0, 0.0, 0.0878, -288.3, -1.0)" gradientUnits="userSpaceOnUse" id="gradient67" r="819.2" spreadMethod="pad">
      <stop offset="0.0" stop-color="#474747"/>
      <stop offset="1.0" stop-color="#000000"/>
    </radialGradient>
  </defs>
</svg>
