<?xml version="1.0" encoding="UTF-8" standalone="no"?>
<svg xmlns:xlink="http://www.w3.org/1999/xlink" height="299.1px" width="218.1px" xmlns="http://www.w3.org/2000/svg">
  <g transform="matrix(1.0, 0.0, 0.0, 1.0, 337.0, 300.0)">
    <path d="M-248.5 -300.0 L-233.9 -300.0 -233.25 -299.65 -233.0 -300.0 -212.9 -300.0 -209.5 -290.9 -209.15 -290.75 -205.65 -300.0 -134.25 -300.0 -140.65 -282.4 -141.65 -280.5 -142.25 -281.25 -142.0 -284.0 -142.25 -284.5 -142.25 -284.65 -142.65 -285.4 -146.0 -285.25 -145.4 -279.0 -145.4 -278.5 -145.0 -274.65 -146.15 -273.15 -147.25 -281.9 -147.4 -282.4 -147.4 -282.75 -147.5 -283.4 -147.5 -283.75 -147.75 -284.65 -148.25 -284.65 -148.9 -283.5 -150.25 -277.15 -150.75 -272.65 -150.65 -269.4 -149.25 -267.9 -150.25 -266.15 -162.0 -254.15 -176.75 -244.5 -186.15 -238.9 -189.15 -237.9 -199.0 -234.65 -203.65 -233.65 -207.15 -235.4 -207.65 -239.5 -212.65 -244.65 -215.65 -245.0 -225.65 -247.9 -233.4 -248.65 -242.15 -247.9 -249.75 -242.9 -250.4 -240.5 -254.15 -237.15 -258.4 -238.65 -269.5 -244.15 -276.0 -248.75 -293.15 -263.0 -297.15 -268.4 -284.15 -266.4 -247.0 -282.75 -248.5 -300.0" fill="url(#gradient0)" fill-rule="evenodd" stroke="none"/>
    <path d="M-233.9 -300.0 L-233.0 -300.0 -233.25 -299.65 -233.9 -300.0" fill="url(#gradient1)" fill-rule="evenodd" stroke="none"/>
    <path d="M-212.9 -300.0 L-205.65 -300.0 -209.15 -290.75 -209.5 -290.9 -212.9 -300.0" fill="url(#gradient2)" fill-rule="evenodd" stroke="none"/>
    <path d="M-127.65 -300.0 L-127.65 -299.15 -124.15 -299.25 -124.0 -299.65 -124.0 -300.0 -118.9 -299.75 -132.75 -268.0 -160.65 -244.15 -184.65 -229.0 -186.0 -228.5 -197.75 -231.25 -198.65 -231.15 -203.65 -233.65 -199.0 -234.65 -189.15 -237.9 -185.75 -228.9 -185.4 -228.75 -175.65 -240.9 -186.15 -238.9 -176.75 -244.5 -162.0 -254.15 -150.25 -266.15 -149.25 -267.9 -149.15 -267.9 -147.5 -267.65 -146.75 -268.0 -146.65 -268.0 -146.25 -268.4 -145.9 -268.65 -146.15 -273.15 -145.0 -274.65 -144.9 -274.65 -144.15 -269.9 -143.4 -270.5 -143.4 -271.4 -141.9 -275.9 -141.5 -279.0 -141.5 -279.75 -141.65 -280.5 -140.65 -282.4 -134.25 -300.0 -127.65 -300.0 M-279.65 -230.65 L-298.4 -241.4 -307.5 -247.5 -308.65 -248.4 -314.65 -258.0 -299.25 -253.0 -317.4 -271.5 -297.15 -268.4 -293.15 -263.0 -276.0 -248.75 -269.5 -244.15 -258.4 -238.65 -254.15 -237.15 -254.15 -237.0 -254.65 -236.4 -274.4 -232.75 -288.0 -239.15 -279.5 -231.25 -279.65 -230.65" fill="url(#gradient3)" fill-rule="evenodd" stroke="none"/>
    <path d="M-142.25 -284.65 L-145.0 -284.5 -143.4 -271.4 -143.4 -270.5 -144.15 -269.9 -144.9 -274.65 -145.0 -274.65 -145.4 -278.5 -145.4 -279.0 -146.0 -285.25 -142.65 -285.4 -142.25 -284.65 M-141.5 -279.75 L-141.75 -280.5 -142.4 -280.9 -142.25 -281.25 -141.65 -280.5 -141.5 -279.75" fill="url(#gradient4)" fill-rule="evenodd" stroke="none"/>
    <path d="M-142.25 -284.65 L-142.25 -284.5 -142.0 -284.0 -142.25 -281.25 -142.4 -280.9 -141.75 -280.5 -141.5 -279.75 -141.5 -279.0 -141.9 -275.9 -143.4 -271.4 -145.0 -284.5 -142.25 -284.65" fill="url(#gradient5)" fill-rule="evenodd" stroke="none"/>
    <path d="M-146.75 -268.0 L-147.65 -267.9 -149.0 -268.4 -150.0 -270.15 -149.4 -276.65 -148.15 -282.65 -147.5 -283.75 -147.5 -283.4 -147.4 -282.75 -147.4 -282.4 -147.25 -281.9 -146.15 -273.15 -145.9 -268.65 -146.25 -268.4 -146.65 -268.0 -146.75 -268.0" fill="url(#gradient6)" fill-rule="evenodd" stroke="none"/>
    <path d="M-147.5 -283.75 L-148.15 -282.65 -149.4 -276.65 -150.0 -270.15 -149.0 -268.4 -147.65 -267.9 -146.75 -268.0 -147.5 -267.65 -149.15 -267.9 -149.25 -267.9 -150.65 -269.4 -150.75 -272.65 -150.25 -277.15 -148.9 -283.5 -148.25 -284.65 -147.75 -284.65 -147.5 -283.75" fill="url(#gradient7)" fill-rule="evenodd" stroke="none"/>
    <path d="M-127.65 -300.0 L-124.0 -300.0 -124.0 -299.65 -124.15 -299.25 -127.65 -299.15 -127.65 -300.0" fill="url(#gradient8)" fill-rule="evenodd" stroke="none"/>
    <path d="M-314.65 -258.0 L-334.9 -292.75 -335.65 -293.5 -337.0 -300.0 -248.5 -300.0 -247.0 -282.75 -284.15 -266.4 -297.15 -268.4 -317.4 -271.5 -299.25 -253.0 -314.65 -258.0" fill="url(#gradient9)" fill-rule="evenodd" stroke="none"/>
    <path d="M-288.4 -199.75 L-279.65 -230.65 -279.5 -231.25 -279.4 -231.75 -277.4 -232.15 -277.25 -232.15 -277.25 -232.25 -276.75 -232.25 -276.25 -232.4 -275.5 -232.5 -275.4 -232.5 -267.25 -233.75 -266.75 -233.9 -266.75 -233.75 -267.25 -233.75 -270.9 -227.25 -271.65 -225.9 -271.75 -225.65 -271.75 -225.5 -283.75 -205.4 -288.4 -199.75 M-215.25 -211.15 L-202.65 -226.15 -201.0 -224.5 -196.4 -190.5 -194.75 -187.25 -204.5 -186.65 -212.9 -183.4 -220.15 -178.9 -221.65 -177.25 Q-227.5 -170.5 -227.0 -169.0 L-229.75 -166.15 -230.0 -168.9 -221.15 -199.25 -215.25 -211.15 M-201.9 -227.0 L-201.65 -227.4 -201.25 -226.75 -201.9 -227.0 M-266.25 -233.9 L-266.15 -234.0 -266.15 -233.9 -266.25 -233.9 M-240.25 -139.65 L-239.5 -132.0 -234.9 -121.75 -231.9 -118.15 -227.4 -111.25 -223.0 -107.15 -221.5 -102.15 -216.5 -94.9 -232.4 -104.75 -257.9 -105.5 -258.4 -110.0 -254.4 -123.15 -243.4 -129.25 -240.65 -139.25 -240.25 -139.65 M-205.0 -87.65 L-199.75 -86.25 -200.75 -84.9 -205.0 -87.65" fill="url(#gradient10)" fill-rule="evenodd" stroke="none"/>
    <path d="M-225.65 -247.9 L-226.25 -244.65 -225.5 -234.5 -227.4 -234.5 -237.0 -237.0 -250.4 -237.15 -265.5 -234.0 -266.15 -234.0 -266.25 -233.9 -266.75 -233.9 -267.25 -233.75 -275.4 -232.5 -274.4 -232.75 -254.65 -236.4 -254.15 -237.0 -254.15 -237.15 -250.4 -240.5 -249.75 -242.9 -242.15 -247.9 -233.4 -248.65 -225.65 -247.9 M-277.4 -232.15 L-277.25 -232.25 -277.25 -232.15 -277.4 -232.15" fill="url(#gradient11)" fill-rule="evenodd" stroke="none"/>
    <path d="M-227.4 -234.5 L-208.15 -229.25 -219.4 -232.0 -224.65 -231.25 -242.15 -235.4 -255.65 -235.4 Q-263.25 -231.3 -270.9 -227.25 L-267.25 -233.75 -266.75 -233.75 -266.75 -233.9 -266.25 -233.9 -266.15 -233.9 -266.15 -234.0 -265.5 -234.0 -250.4 -237.15 -237.0 -237.0 -227.4 -234.5" fill="url(#gradient12)" fill-rule="evenodd" stroke="none"/>
    <path d="M-207.0 -229.0 L-207.15 -229.0 -208.0 -229.25 -208.15 -229.25 -227.4 -234.5 -225.5 -234.5 -207.0 -229.0" fill="url(#gradient13)" fill-rule="evenodd" stroke="none"/>
    <path d="M-198.65 -231.15 L-184.75 -224.15 -201.65 -227.4 -203.4 -228.0 -203.75 -228.15 -204.25 -228.25 -204.9 -228.5 -205.15 -228.5 -207.0 -229.0 -225.5 -234.5 -226.25 -244.65 -207.15 -235.4 -203.65 -233.65 -198.65 -231.15" fill="url(#gradient14)" fill-rule="evenodd" stroke="none"/>
    <path d="M-225.65 -247.9 L-215.65 -245.0 -212.65 -244.65 -207.65 -239.5 -207.15 -235.4 -226.25 -244.65 -225.65 -247.9" fill="url(#gradient15)" fill-rule="evenodd" stroke="none"/>
    <path d="M-315.0 -162.9 L-288.4 -199.75 -283.75 -205.4 -277.9 -212.15 -271.75 -225.5 -271.75 -225.65 -271.65 -225.9 -270.9 -227.25 Q-263.25 -231.3 -255.65 -235.4 L-242.15 -235.4 -224.65 -231.25 -224.75 -230.65 -231.4 -211.9 -251.0 -177.65 -261.0 -164.65 -280.65 -176.4 -299.9 -176.75 -315.0 -162.9" fill="url(#gradient16)" fill-rule="evenodd" stroke="none"/>
    <path d="M-219.4 -232.0 L-215.25 -211.15 -221.15 -199.25 -220.25 -203.5 -224.4 -230.5 -224.75 -230.65 -224.65 -231.25 -219.4 -232.0" fill="url(#gradient17)" fill-rule="evenodd" stroke="none"/>
    <path d="M-208.15 -229.25 L-208.0 -229.25 -207.15 -229.0 -207.0 -229.0 -205.15 -228.5 -204.9 -228.5 -204.25 -228.25 -203.75 -228.15 -203.4 -228.0 -201.65 -227.4 -201.9 -227.0 -202.9 -227.25 -202.65 -226.15 -215.25 -211.15 -219.4 -232.0 -208.15 -229.25" fill="url(#gradient18)" fill-rule="evenodd" stroke="none"/>
    <path d="M-202.65 -226.15 L-202.9 -227.25 -201.9 -227.0 -201.25 -226.75 -198.25 -225.5 Q-198.9 -222.5 -201.0 -224.5 L-202.65 -226.15" fill="url(#gradient19)" fill-rule="evenodd" stroke="none"/>
    <path d="M-224.75 -230.65 L-224.4 -230.5 -220.25 -203.5 -221.15 -199.25 -230.0 -168.9 -229.75 -166.15 -228.4 -148.25 -240.25 -139.65 -240.65 -139.25 -243.4 -129.25 -254.4 -123.15 -249.5 -140.25 -261.0 -164.65 -251.0 -177.65 -231.4 -211.9 -224.75 -230.65" fill="url(#gradient20)" fill-rule="evenodd" stroke="none"/>
    <path d="M-323.5 -92.5 L-325.5 -120.5 -323.75 -133.9 -315.75 -162.0 -315.0 -162.9 -299.9 -176.75 -280.65 -176.4 -261.0 -164.65 -278.0 -134.25 -279.4 -118.65 -278.0 -92.15 -297.25 -92.15 -316.25 -92.75 -323.5 -92.5" fill="url(#gradient21)" fill-rule="evenodd" stroke="none"/>
    <path d="M-271.75 -225.5 L-277.9 -212.15 -283.75 -205.4 -271.75 -225.5" fill="url(#gradient22)" fill-rule="evenodd" stroke="none"/>
    <path d="M-184.75 -224.15 L-180.65 -212.65 -176.25 -192.25 -175.9 -190.25 -175.5 -188.4 -174.5 -183.65 -174.5 -183.5 -174.5 -183.0 Q-190.9 -188.75 -194.75 -187.25 L-196.4 -190.5 -201.0 -224.5 Q-198.9 -222.5 -198.25 -225.5 L-201.25 -226.75 -201.65 -227.4 -184.75 -224.15 M-165.0 -83.9 L-167.65 -78.75 -171.75 -82.0 -189.25 -83.65 -178.5 -85.75 -169.75 -89.9 -161.0 -96.4 -164.4 -87.75 -165.0 -83.9 M-199.75 -86.25 L-196.0 -84.4 -200.75 -84.9 -199.75 -86.25" fill="url(#gradient23)" fill-rule="evenodd" stroke="none"/>
    <path d="M-176.25 -192.25 L-170.4 -191.15 -171.5 -189.65 -171.9 -189.65 -175.0 -190.25 -175.9 -190.25 -176.25 -192.25" fill="url(#gradient24)" fill-rule="evenodd" stroke="none"/>
    <path d="M-170.5 -189.75 L-170.15 -189.65 -175.5 -188.4 -175.9 -190.25 -175.0 -190.25 -171.9 -189.65 -171.5 -189.65 -170.5 -189.75" fill="url(#gradient25)" fill-rule="evenodd" stroke="none"/>
    <path d="M-170.15 -189.65 L-171.5 -182.75 -171.5 -182.65 -171.9 -181.65 -173.4 -182.4 -172.9 -182.9 -172.9 -183.9 -173.5 -184.0 -173.75 -183.9 -174.15 -183.65 -174.25 -183.65 -174.5 -183.65 -175.5 -188.4 -170.15 -189.65" fill="url(#gradient26)" fill-rule="evenodd" stroke="none"/>
    <path d="M-170.4 -191.15 L-170.5 -189.75 -171.5 -189.65 -170.4 -191.15" fill="url(#gradient27)" fill-rule="evenodd" stroke="none"/>
    <path d="M-173.5 -184.0 L-173.5 -183.9 -173.75 -183.9 -173.5 -184.0" fill="url(#gradient28)" fill-rule="evenodd" stroke="none"/>
    <path d="M-174.25 -183.65 L-174.5 -183.5 -174.5 -183.65 -174.25 -183.65 M-172.9 -183.9 L-174.15 -183.65 -173.75 -183.9 -173.5 -183.9 -173.5 -184.0 -172.9 -183.9" fill="url(#gradient29)" fill-rule="evenodd" stroke="none"/>
    <path d="M-174.5 -183.5 L-174.25 -183.65 -174.15 -183.65 -172.9 -183.9 -172.9 -182.9 -173.4 -182.4 -174.5 -183.0 -174.5 -183.5" fill="url(#gradient30)" fill-rule="evenodd" stroke="none"/>
    <path d="M-171.65 -181.5 L-167.65 -179.25 -158.25 -171.4 -151.25 -162.75 Q-145.75 -153.9 -144.4 -145.25 L-143.5 -132.75 Q-144.0 -113.0 -161.0 -96.4 L-169.75 -89.9 -178.5 -85.75 -189.25 -83.65 -196.0 -84.4 -199.75 -86.25 -205.0 -87.65 -209.65 -89.75 -216.5 -94.9 -221.5 -102.15 -223.0 -107.15 -227.4 -111.25 -231.9 -118.15 -234.9 -121.75 -239.5 -132.0 -240.25 -139.65 -228.4 -148.25 -229.75 -166.15 -227.0 -169.0 Q-227.5 -170.5 -221.65 -177.25 L-220.15 -178.9 -212.9 -183.4 -204.5 -186.65 -194.75 -187.25 Q-190.9 -188.75 -174.5 -183.0 L-173.4 -182.4 -171.9 -181.65 -171.65 -181.5" fill="url(#gradient31)" fill-rule="evenodd" stroke="none"/>
    <path d="M-171.5 -182.65 L-171.65 -181.5 -171.9 -181.65 -171.5 -182.65" fill="url(#gradient32)" fill-rule="evenodd" stroke="none"/>
    <path d="M-143.5 -132.75 Q-138.75 -101.5 -165.0 -83.9 L-164.4 -87.75 -161.0 -96.4 Q-144.0 -113.0 -143.5 -132.75" fill="url(#gradient33)" fill-rule="evenodd" stroke="none"/>
    <path d="M-167.65 -78.75 L-183.25 -30.9 -184.25 -6.0 -183.15 -0.9 -202.5 -0.9 -201.0 -29.15 -201.25 -29.5 -200.5 -83.4 -200.75 -84.9 -196.0 -84.4 -189.25 -83.65 -171.75 -82.0 -167.65 -78.75" fill="url(#gradient34)" fill-rule="evenodd" stroke="none"/>
    <path d="M-202.5 -0.9 L-239.0 -0.9 -241.65 -10.4 -242.4 -27.65 -252.9 -64.15 -256.9 -93.4 -257.9 -105.5 -232.4 -104.75 -216.5 -94.9 -209.65 -89.75 -205.0 -87.65 -200.75 -84.9 -200.5 -83.4 -201.25 -29.5 -201.0 -29.15 -202.5 -0.9" fill="url(#gradient35)" fill-rule="evenodd" stroke="none"/>
    <path d="M-261.0 -164.65 L-249.5 -140.25 -254.4 -123.15 -258.4 -110.0 -257.9 -105.5 -256.9 -93.4 -252.9 -64.15 -270.9 -56.65 -278.0 -92.15 -279.4 -118.65 -278.0 -134.25 -261.0 -164.65" fill="url(#gradient36)" fill-rule="evenodd" stroke="none"/>
    <path d="M-261.0 -0.9 L-297.9 -0.9 -306.4 -39.65 -311.9 -62.15 -323.5 -92.5 -316.25 -92.75 -297.25 -92.15 -278.0 -92.15 -270.9 -56.65 -266.75 -35.75 -262.5 -8.4 -261.0 -0.9" fill="url(#gradient37)" fill-rule="evenodd" stroke="none"/>
    <path d="M-239.0 -0.9 L-261.0 -0.9 -262.5 -8.4 -266.75 -35.75 -270.9 -56.65 -252.9 -64.15 -242.4 -27.65 -241.65 -10.4 -239.0 -0.9" fill="url(#gradient38)" fill-rule="evenodd" stroke="none"/>
    <path d="M-186.25 -230.15 L-193.65 -238.0 -194.0 -238.5 -197.15 -241.9 -210.9 -242.65 -211.25 -242.65 -211.5 -242.75 -218.15 -242.9 -245.5 -240.65 -247.4 -240.15 -247.75 -239.9 -252.25 -238.75 -252.5 -238.5 -254.5 -237.75 -254.9 -237.75 -258.15 -236.15 -258.75 -235.65 -263.4 -234.9 -263.9 -235.65 -264.15 -235.9 Q-264.25 -237.15 -266.0 -239.15 L-263.15 -237.65 -260.0 -239.25 -260.0 -239.4 -256.4 -241.0 -249.9 -243.0 -249.75 -243.15 -249.5 -243.25 -247.75 -243.75 -244.25 -243.9 -243.75 -244.0 -243.4 -244.0 -231.9 -245.15 -230.65 -245.15 -227.25 -245.5 -226.0 -245.5 -219.5 -246.15 -208.5 -245.5 -208.15 -245.5 -198.25 -244.65 -197.9 -244.0 -192.75 -238.75 -192.75 -238.65 -192.65 -238.5 -187.5 -233.4 -187.0 -232.4 -186.25 -230.15 M-184.9 -229.15 L-184.9 -229.0 -185.0 -228.75 -185.4 -229.0 -185.15 -229.15 -184.9 -229.15 M-183.0 -220.15 L-183.0 -219.4 -182.65 -217.9 -182.4 -217.15 -181.9 -213.9 -181.75 -213.5 -181.75 -213.4 -181.65 -211.9 -180.5 -205.0 -180.5 -204.9 -180.4 -204.4 -180.4 -204.15 -180.25 -203.75 -180.0 -202.25 -180.25 -202.25 -180.4 -202.5 -180.9 -205.25 -180.9 -205.4 -182.0 -212.15 -182.15 -212.5 -182.5 -214.25 -182.5 -214.65 -182.65 -214.9 -182.75 -215.25 -183.25 -217.65 -183.25 -218.0 -183.4 -218.4 -183.65 -219.9 -183.65 -220.25 -183.75 -220.9 -183.75 -221.15 -183.0 -220.15 M-180.0 -202.15 L-179.65 -201.75 -179.65 -201.65 -179.25 -201.25 -179.0 -200.9 -177.9 -199.65 -178.15 -198.75 -178.65 -199.4 -178.9 -199.5 -178.9 -199.65 -179.4 -200.5 -179.75 -200.65 -179.75 -200.9 -179.9 -201.15 -179.9 -201.4 -180.0 -201.5 -180.0 -202.15 M-170.65 -191.25 L-170.65 -191.0 -170.65 -190.0 -170.9 -190.15 -170.9 -190.5 -171.15 -190.65 -171.25 -191.0 -171.65 -191.15 -171.65 -191.4 -171.25 -191.25 -170.65 -191.25 M-175.25 -192.0 L-175.15 -191.75 -175.15 -191.15 -175.0 -191.0 -175.25 -190.5 -174.9 -190.4 -175.0 -190.25 -174.9 -190.15 -174.75 -189.65 -174.75 -188.65 -173.65 -184.0 -173.75 -183.9 -173.9 -183.65 -174.25 -183.65 -174.0 -183.9 -174.9 -188.5 -174.75 -188.65 -175.15 -189.65 -175.25 -190.25 -175.25 -190.5 -175.4 -190.5 -175.75 -190.5 -175.75 -190.65 -175.4 -190.5 -175.4 -191.15 -175.5 -191.15 -175.65 -191.5 -175.65 -191.75 -175.75 -192.0 -175.75 -192.15 -175.5 -192.15 -175.5 -192.0 -175.25 -192.0 M-173.9 -183.4 L-173.65 -183.65 -173.25 -182.65 -173.4 -182.4 -173.75 -182.65 -173.9 -183.4" fill="#9b0000" fill-opacity="0.9098039" fill-rule="evenodd" stroke="none"/>
    <path d="M-187.0 -232.4 L-185.4 -231.0 -185.0 -229.65 -184.9 -229.15 -185.15 -229.15 -185.4 -229.0 -185.75 -229.15 -186.25 -230.15 -187.0 -232.4 M-184.75 -228.0 L-184.15 -227.4 -183.0 -220.15 -183.75 -221.15 -183.75 -221.4 -183.9 -221.4 -183.9 -221.75 -184.0 -221.9 -184.0 -222.15 -184.75 -228.0 M-177.9 -199.65 L-177.15 -199.15 -178.0 -203.75 -177.75 -203.75 -176.9 -198.4 -176.9 -197.65 -177.5 -198.0 -178.15 -198.75 -177.9 -199.65 M-176.4 -197.9 L-170.65 -191.25 -171.25 -191.25 -171.65 -191.4 -171.75 -191.4 -176.15 -196.4 -175.25 -192.0 -175.5 -192.15 -175.75 -192.15 -176.65 -197.0 -176.4 -197.9 M-170.65 -191.0 L-148.4 -165.4 -149.5 -165.25 -170.25 -189.5 -170.25 -189.65 -170.4 -189.65 -170.65 -189.75 -170.65 -190.0 -170.65 -191.0 M-179.0 -205.0 L-179.25 -206.25 -178.5 -205.65 -178.25 -204.4 -179.0 -205.0" fill="#ab0000" fill-opacity="0.9098039" fill-rule="evenodd" stroke="none"/>
    <path d="M-184.9 -229.0 L-184.75 -228.0 -185.0 -228.75 -184.9 -229.0 M-176.9 -198.4 L-176.4 -197.9 -176.65 -197.0 -176.9 -197.65 -176.9 -198.4" fill="#ab0000" fill-rule="evenodd" stroke="none"/>
    <path d="M-180.0 -202.25 L-180.0 -202.15 -180.0 -201.5 -180.25 -202.25 -180.0 -202.25" fill="#a90000" fill-rule="evenodd" stroke="none"/>
    <path d="M-148.4 -165.4 L-148.15 -163.9 -149.5 -165.25 -148.4 -165.4 M-143.4 -134.65 L-143.65 -135.15 -143.65 -139.25 -141.9 -133.15 -143.4 -134.65" fill="#c40000" fill-rule="evenodd" stroke="none"/>
    <path d="M-148.15 -163.9 L-139.0 -130.0 -141.4 -132.25 -141.75 -133.0 -141.9 -133.15 -143.65 -139.25 -143.75 -140.4 -144.4 -143.5 -144.25 -144.25 -146.9 -153.5 -147.0 -154.15 -151.25 -162.4 -152.75 -164.5 -149.5 -165.25 -148.15 -163.9" fill="#c70000" fill-opacity="0.9098039" fill-rule="evenodd" stroke="none"/>
    <path d="M-167.0 -161.5 L-166.5 -161.5 -161.75 -162.4 -161.25 -162.75 -154.75 -164.0 -153.4 -164.4 -152.75 -164.5 -151.25 -162.4 -147.0 -154.15 -146.9 -153.5 -144.25 -144.25 -144.4 -143.5 -143.75 -140.4 -143.65 -139.25 -143.65 -135.15 -148.65 -140.65 -148.9 -141.15 -163.15 -157.15 -163.4 -157.75 -166.75 -161.25 -167.0 -161.5" fill="#b50000" fill-opacity="0.9098039" fill-rule="evenodd" stroke="none"/>
    <path d="M-196.65 -0.9 L-239.0 -0.9 -239.15 -1.9 -241.65 -10.5 -242.65 -28.0 -252.9 -64.15 -257.0 -94.15 -256.9 -95.4 -258.25 -110.4 -257.75 -111.65 -254.4 -123.15 -243.9 -129.0 -243.4 -129.65 -240.5 -139.65 -240.25 -139.65 -230.65 -146.65 -211.15 -151.15 -210.4 -151.4 -196.0 -154.75 -195.5 -154.75 -167.0 -161.5 -166.75 -161.25 -166.9 -159.75 -167.0 -149.15 -167.15 -149.0 -167.5 -123.5 -173.5 -115.5 -173.9 -115.15 -183.15 -103.15 -183.5 -102.9 -190.15 -94.5 -190.75 -93.5 -191.0 -93.25 -195.15 -88.0 -195.25 -87.75 -195.25 -85.5 -195.5 -84.9 -195.4 -84.4 -195.25 -84.25 -195.4 -61.5 -195.15 -58.9 -195.4 -29.65 -196.0 -17.65 -195.75 -16.65 -196.5 -2.4 -196.65 -1.65 -196.65 -0.9" fill="#da0000" fill-opacity="0.9098039" fill-rule="evenodd" stroke="none"/>
    <path d="M-183.15 -0.9 L-196.65 -0.9 -196.65 -1.65 -196.5 -2.4 -195.75 -16.65 -196.0 -17.65 -195.4 -29.65 -195.15 -58.9 -195.4 -61.5 -195.25 -84.25 -195.4 -84.4 -195.5 -84.9 -195.25 -85.5 -195.25 -87.75 -193.5 -87.65 -187.5 -86.9 -186.75 -86.9 -182.15 -86.25 -181.65 -86.25 -178.75 -85.9 -178.25 -85.9 -167.75 -84.75 -167.4 -84.65 -165.25 -84.4 -164.4 -84.4 -165.0 -84.0 -167.4 -79.25 -167.65 -78.9 -183.25 -30.9 -184.4 -5.75 -183.15 -0.9" fill="#a90000" fill-opacity="0.9098039" fill-rule="evenodd" stroke="none"/>
    <path d="M-166.75 -161.25 L-163.4 -157.75 -163.15 -157.15 -148.9 -141.15 -148.65 -140.65 -143.65 -135.15 -143.4 -134.65 -143.5 -134.0 -143.65 -133.5 -143.5 -132.4 -143.15 -131.65 -143.4 -131.0 -143.0 -129.9 -142.5 -122.5 -142.65 -122.15 -142.5 -121.9 -142.65 -120.25 -143.25 -118.0 -146.0 -111.25 -146.4 -110.75 -146.25 -110.5 -149.4 -102.65 -149.75 -102.0 -151.9 -96.65 -151.9 -96.15 -152.0 -95.9 -152.25 -95.9 -152.15 -95.75 -157.65 -89.5 -164.4 -84.4 -165.25 -84.4 -167.4 -84.65 -167.75 -84.75 -178.25 -85.9 -178.75 -85.9 -181.65 -86.25 -182.15 -86.25 -186.75 -86.9 -187.5 -86.9 -193.5 -87.65 -195.25 -87.75 -195.15 -88.0 -191.0 -93.25 -190.75 -93.5 -190.15 -94.5 -183.5 -102.9 -183.15 -103.15 -173.9 -115.15 -173.5 -115.5 -167.5 -123.5 -167.15 -149.0 -167.0 -149.15 -166.9 -159.75 -166.75 -161.25 M-157.4 -108.0 L-158.4 -106.5 -158.0 -106.65 -158.0 -106.75 -157.9 -106.9 -157.4 -108.0" fill="#b80000" fill-opacity="0.9098039" fill-rule="evenodd" stroke="none"/>
    <path d="M-140.75 -125.0 L-141.15 -123.4 -142.65 -120.25 -142.5 -121.9 -142.65 -122.15 -142.5 -122.5 -143.0 -129.9 -143.4 -131.0 -143.15 -131.65 -143.5 -132.4 -143.65 -133.5 -143.5 -134.0 -143.4 -134.65 -141.9 -133.15 -141.75 -133.0 -141.4 -132.25 -140.65 -129.0 -140.75 -125.0 M-142.75 -109.9 L-157.4 -79.9 Q-160.5 -81.25 -161.15 -83.9 L-164.4 -84.4 -157.65 -89.5 -152.15 -95.75 -152.0 -95.9 -151.9 -96.15 -151.75 -96.25 -151.5 -96.5 -147.0 -103.9 -142.75 -109.9" fill="#c80000" fill-rule="evenodd" stroke="none"/>
    <path d="M-141.15 -123.4 L-141.0 -122.4 -141.65 -111.9 -142.75 -109.9 -147.0 -103.9 -146.75 -104.5 -143.75 -113.4 -143.15 -117.15 -143.25 -118.0 -142.65 -120.25 -141.15 -123.4 M-152.15 -95.75 L-152.25 -95.9 -152.0 -95.9 -152.15 -95.75" fill="#b30000" fill-opacity="0.9098039" fill-rule="evenodd" stroke="none"/>
    <path d="M-139.0 -130.0 L-139.0 -128.9 -140.75 -125.0 -140.65 -129.0 -141.4 -132.25 -139.0 -130.0" fill="#cb0000" fill-opacity="0.9098039" fill-rule="evenodd" stroke="none"/>
    <path d="M-164.4 -84.4 L-161.15 -83.9 Q-160.5 -81.25 -157.4 -79.9 L-167.4 -79.25 -165.0 -84.0 -164.4 -84.4" fill="#b90000" fill-rule="evenodd" stroke="none"/>
    <path d="M-157.4 -79.9 L-174.9 -27.75 -175.9 -0.9 -183.15 -0.9 -184.4 -5.75 -183.25 -30.9 -167.65 -78.9 -167.4 -79.25 -157.4 -79.9" fill="#b80000" fill-rule="evenodd" stroke="none"/>
    <path d="M-306.75 -7.9 L-304.5 -29.9 -304.25 -29.4 -303.75 -27.25 -303.75 -26.5 -306.75 -7.9" fill="#ac0000" fill-rule="evenodd" stroke="none"/>
    <path d="M-303.75 -26.5 L-300.15 -10.65 -299.75 -9.4 -297.9 -0.9 -307.5 -0.9 -307.0 -6.15 -306.9 -6.4 -306.9 -7.0 -306.75 -7.5 -306.75 -7.9 -303.75 -26.5" fill="#ea0000" fill-rule="evenodd" stroke="none"/>
  </g>
  <defs>
    <radialGradient cx="0" cy="0" gradientTransform="matrix(0.1692, 0.0, 0.0, 0.1692, -176.15, -245.1)" gradientUnits="userSpaceOnUse" id="gradient0" r="819.2" spreadMethod="pad">
      <stop offset="0.0" stop-color="#7d7d7d"/>
      <stop offset="1.0" stop-color="#000000"/>
    </radialGradient>
    <radialGradient cx="0" cy="0" gradientTransform="matrix(9.0E-4, 0.0, 0.0, 9.0E-4, -233.05, -300.0)" gradientUnits="userSpaceOnUse" id="gradient1" r="819.2" spreadMethod="pad">
      <stop offset="0.0" stop-color="#1c1c1c"/>
      <stop offset="1.0" stop-color="#1b1b1b"/>
    </radialGradient>
    <radialGradient cx="0" cy="0" gradientTransform="matrix(0.0123, 0.0, 0.0, 0.0123, -209.3, -290.6)" gradientUnits="userSpaceOnUse" id="gradient2" r="819.2" spreadMethod="pad">
      <stop offset="0.0" stop-color="#292929"/>
      <stop offset="1.0" stop-color="#282828"/>
    </radialGradient>
    <radialGradient cx="0" cy="0" gradientTransform="matrix(0.2233, 0.0, 0.0, 0.2233, -301.2, -284.05)" gradientUnits="userSpaceOnUse" id="gradient3" r="819.2" spreadMethod="pad">
      <stop offset="0.0" stop-color="#5a5a5a"/>
      <stop offset="1.0" stop-color="#080808"/>
    </radialGradient>
    <radialGradient cx="0" cy="0" gradientTransform="matrix(0.019, 0.0, 0.0, 0.019, -144.7, -285.5)" gradientUnits="userSpaceOnUse" id="gradient4" r="819.2" spreadMethod="pad">
      <stop offset="0.0" stop-color="#e88d8d"/>
      <stop offset="1.0" stop-color="#330000"/>
    </radialGradient>
    <radialGradient cx="0" cy="0" gradientTransform="matrix(0.0155, 0.0, 0.0, 0.0155, -143.1, -272.2)" gradientUnits="userSpaceOnUse" id="gradient5" r="819.2" spreadMethod="pad">
      <stop offset="0.0" stop-color="#ff5151"/>
      <stop offset="1.0" stop-color="#ff4c4c"/>
    </radialGradient>
    <radialGradient cx="0" cy="0" gradientTransform="matrix(0.019, 0.0, 0.0, 0.019, -148.9, -268.5)" gradientUnits="userSpaceOnUse" id="gradient6" r="819.2" spreadMethod="pad">
      <stop offset="0.0" stop-color="#ff3030"/>
      <stop offset="1.0" stop-color="#ff2d2d"/>
    </radialGradient>
    <radialGradient cx="0" cy="0" gradientTransform="matrix(0.0208, 0.0, 0.0, 0.0208, -147.2, -267.75)" gradientUnits="userSpaceOnUse" id="gradient7" r="819.2" spreadMethod="pad">
      <stop offset="0.0" stop-color="#f89797"/>
      <stop offset="1.0" stop-color="#3d0000"/>
    </radialGradient>
    <radialGradient cx="0" cy="0" gradientTransform="matrix(0.0045, 0.0, 0.0, 0.0045, -127.6, -299.25)" gradientUnits="userSpaceOnUse" id="gradient8" r="819.2" spreadMethod="pad">
      <stop offset="0.0" stop-color="#767676"/>
      <stop offset="1.0" stop-color="#767676"/>
    </radialGradient>
    <radialGradient cx="0" cy="0" gradientTransform="matrix(0.1079, 0.0, 0.0, 0.1079, -248.55, -300.0)" gradientUnits="userSpaceOnUse" id="gradient9" r="819.2" spreadMethod="pad">
      <stop offset="0.0" stop-color="#141414"/>
      <stop offset="1.0" stop-color="#080808"/>
    </radialGradient>
    <radialGradient cx="0" cy="0" gradientTransform="matrix(0.1654, 0.0, 0.0, 0.1654, -232.35, -104.8)" gradientUnits="userSpaceOnUse" id="gradient10" r="819.2" spreadMethod="pad">
      <stop offset="0.0" stop-color="#626262"/>
      <stop offset="1.0" stop-color="#232323"/>
    </radialGradient>
    <radialGradient cx="0" cy="0" gradientTransform="matrix(0.0439, 0.0, 0.0, 0.0439, -257.7, -233.55)" gradientUnits="userSpaceOnUse" id="gradient11" r="819.2" spreadMethod="pad">
      <stop offset="0.0" stop-color="#818181"/>
      <stop offset="1.0" stop-color="#080808"/>
    </radialGradient>
    <radialGradient cx="0" cy="0" gradientTransform="matrix(0.0664, 0.0, 0.0, 0.0664, -255.45, -235.5)" gradientUnits="userSpaceOnUse" id="gradient12" r="819.2" spreadMethod="pad">
      <stop offset="0.0" stop-color="#444444"/>
      <stop offset="1.0" stop-color="#080808"/>
    </radialGradient>
    <radialGradient cx="0" cy="0" gradientTransform="matrix(0.0769, 0.0, 0.0, 0.0769, -264.25, -234.35)" gradientUnits="userSpaceOnUse" id="gradient13" r="819.2" spreadMethod="pad">
      <stop offset="0.0" stop-color="#3c3c3c"/>
      <stop offset="1.0" stop-color="#000000"/>
    </radialGradient>
    <radialGradient cx="0" cy="0" gradientTransform="matrix(0.0567, 0.0, 0.0, 0.0567, -226.3, -244.85)" gradientUnits="userSpaceOnUse" id="gradient14" r="819.2" spreadMethod="pad">
      <stop offset="0.0" stop-color="#030303"/>
      <stop offset="1.0" stop-color="#000000"/>
    </radialGradient>
    <radialGradient cx="0" cy="0" gradientTransform="matrix(0.0308, 0.0, 0.0, 0.0308, -225.45, -249.55)" gradientUnits="userSpaceOnUse" id="gradient15" r="819.2" spreadMethod="pad">
      <stop offset="0.0" stop-color="#1a1a1a"/>
      <stop offset="1.0" stop-color="#020202"/>
    </radialGradient>
    <radialGradient cx="0" cy="0" gradientTransform="matrix(0.1016, 0.0, 0.0, 0.1016, -264.3, -227.6)" gradientUnits="userSpaceOnUse" id="gradient16" r="819.2" spreadMethod="pad">
      <stop offset="0.0" stop-color="#575757"/>
      <stop offset="1.0" stop-color="#0a0a0a"/>
    </radialGradient>
    <radialGradient cx="0" cy="0" gradientTransform="matrix(0.0753, 0.0, 0.0, 0.0753, -234.3, -172.25)" gradientUnits="userSpaceOnUse" id="gradient17" r="819.2" spreadMethod="pad">
      <stop offset="0.0" stop-color="#171717"/>
      <stop offset="1.0" stop-color="#000000"/>
    </radialGradient>
    <radialGradient cx="0" cy="0" gradientTransform="matrix(0.0262, 0.0, 0.0, 0.0262, -201.55, -227.65)" gradientUnits="userSpaceOnUse" id="gradient18" r="819.2" spreadMethod="pad">
      <stop offset="0.0" stop-color="#000000"/>
      <stop offset="1.0" stop-color="#000000"/>
    </radialGradient>
    <radialGradient cx="0" cy="0" gradientTransform="matrix(0.1249, 0.0, 0.0, 0.1249, -225.95, -128.65)" gradientUnits="userSpaceOnUse" id="gradient19" r="819.2" spreadMethod="pad">
      <stop offset="0.0" stop-color="#323232"/>
      <stop offset="1.0" stop-color="#090909"/>
    </radialGradient>
    <radialGradient cx="0" cy="0" gradientTransform="matrix(0.1136, 0.0, 0.0, 0.1136, -240.55, -139.6)" gradientUnits="userSpaceOnUse" id="gradient20" r="819.2" spreadMethod="pad">
      <stop offset="0.0" stop-color="#6a6a6a"/>
      <stop offset="1.0" stop-color="#000000"/>
    </radialGradient>
    <radialGradient cx="0" cy="0" gradientTransform="matrix(0.0709, 0.0, 0.0, 0.0709, -298.5, -121.25)" gradientUnits="userSpaceOnUse" id="gradient21" r="819.2" spreadMethod="pad">
      <stop offset="0.0" stop-color="#626262"/>
      <stop offset="1.0" stop-color="#0c0c0c"/>
    </radialGradient>
    <radialGradient cx="0" cy="0" gradientTransform="matrix(0.0384, 0.0, 0.0, 0.0384, -270.85, -227.2)" gradientUnits="userSpaceOnUse" id="gradient22" r="819.2" spreadMethod="pad">
      <stop offset="0.0" stop-color="#121212"/>
      <stop offset="1.0" stop-color="#080808"/>
    </radialGradient>
    <radialGradient cx="0" cy="0" gradientTransform="matrix(0.1814, 0.0, 0.0, 0.1814, -171.75, -82.0)" gradientUnits="userSpaceOnUse" id="gradient23" r="819.2" spreadMethod="pad">
      <stop offset="0.0" stop-color="#6a6a6a"/>
      <stop offset="1.0" stop-color="#000000"/>
    </radialGradient>
    <radialGradient cx="0" cy="0" gradientTransform="matrix(0.0148, 0.0, 0.0, 0.0148, -182.55, -192.75)" gradientUnits="userSpaceOnUse" id="gradient24" r="819.2" spreadMethod="pad">
      <stop offset="0.0" stop-color="#303030"/>
      <stop offset="1.0" stop-color="#202020"/>
    </radialGradient>
    <radialGradient cx="0" cy="0" gradientTransform="matrix(0.015, 0.0, 0.0, 0.015, -182.3, -192.0)" gradientUnits="userSpaceOnUse" id="gradient25" r="819.2" spreadMethod="pad">
      <stop offset="0.0" stop-color="#111111"/>
      <stop offset="1.0" stop-color="#111111"/>
    </radialGradient>
    <radialGradient cx="0" cy="0" gradientTransform="matrix(0.0125, 0.0, 0.0, 0.0125, -171.6, -182.95)" gradientUnits="userSpaceOnUse" id="gradient26" r="819.2" spreadMethod="pad">
      <stop offset="0.0" stop-color="#111111"/>
      <stop offset="1.0" stop-color="#111111"/>
    </radialGradient>
    <radialGradient cx="0" cy="0" gradientTransform="matrix(0.0219, 0.0, 0.0, 0.0219, -171.2, -189.9)" gradientUnits="userSpaceOnUse" id="gradient27" r="819.2" spreadMethod="pad">
      <stop offset="0.0" stop-color="#040404"/>
      <stop offset="1.0" stop-color="#040404"/>
    </radialGradient>
    <radialGradient cx="0" cy="0" gradientTransform="matrix(0.006, 0.0, 0.0, 0.006, -177.75, -183.05)" gradientUnits="userSpaceOnUse" id="gradient28" r="819.2" spreadMethod="pad">
      <stop offset="0.0" stop-color="#050505"/>
      <stop offset="1.0" stop-color="#050505"/>
    </radialGradient>
    <radialGradient cx="0" cy="0" gradientTransform="matrix(0.0164, 0.0, 0.0, 0.0164, -181.55, -181.3)" gradientUnits="userSpaceOnUse" id="gradient29" r="819.2" spreadMethod="pad">
      <stop offset="0.0" stop-color="#171717"/>
      <stop offset="1.0" stop-color="#171717"/>
    </radialGradient>
    <radialGradient cx="0" cy="0" gradientTransform="matrix(0.0116, 0.0, 0.0, 0.0116, -181.4, -179.7)" gradientUnits="userSpaceOnUse" id="gradient30" r="819.2" spreadMethod="pad">
      <stop offset="0.0" stop-color="#171717"/>
      <stop offset="1.0" stop-color="#171717"/>
    </radialGradient>
    <radialGradient cx="0" cy="0" gradientTransform="matrix(0.1258, 0.0, 0.0, 0.1258, -160.45, -97.05)" gradientUnits="userSpaceOnUse" id="gradient31" r="819.2" spreadMethod="pad">
      <stop offset="0.0" stop-color="#858585"/>
      <stop offset="1.0" stop-color="#121212"/>
    </radialGradient>
    <radialGradient cx="0" cy="0" gradientTransform="matrix(0.006, 0.0, 0.0, 0.006, -171.6, -183.4)" gradientUnits="userSpaceOnUse" id="gradient32" r="819.2" spreadMethod="pad">
      <stop offset="0.0" stop-color="#080808"/>
      <stop offset="1.0" stop-color="#080808"/>
    </radialGradient>
    <radialGradient cx="0" cy="0" gradientTransform="matrix(0.0638, 0.0, 0.0, 0.0638, -157.65, -89.55)" gradientUnits="userSpaceOnUse" id="gradient33" r="819.2" spreadMethod="pad">
      <stop offset="0.0" stop-color="#878787"/>
      <stop offset="1.0" stop-color="#000000"/>
    </radialGradient>
    <radialGradient cx="0" cy="0" gradientTransform="matrix(0.1058, 0.0, 0.0, 0.1058, -171.75, -82.0)" gradientUnits="userSpaceOnUse" id="gradient34" r="819.2" spreadMethod="pad">
      <stop offset="0.0" stop-color="#6a6a6a"/>
      <stop offset="1.0" stop-color="#020202"/>
    </radialGradient>
    <radialGradient cx="0" cy="0" gradientTransform="matrix(0.103, 0.0, 0.0, 0.103, -233.9, -31.15)" gradientUnits="userSpaceOnUse" id="gradient35" r="819.2" spreadMethod="pad">
      <stop offset="0.0" stop-color="#838383"/>
      <stop offset="1.0" stop-color="#1f1f1f"/>
    </radialGradient>
    <radialGradient cx="0" cy="0" gradientTransform="matrix(0.1327, 0.0, 0.0, 0.1327, -270.9, -56.65)" gradientUnits="userSpaceOnUse" id="gradient36" r="819.2" spreadMethod="pad">
      <stop offset="0.0" stop-color="#393939"/>
      <stop offset="1.0" stop-color="#000000"/>
    </radialGradient>
    <radialGradient cx="0" cy="0" gradientTransform="matrix(0.1352, 0.0, 0.0, 0.1352, -261.05, -1.0)" gradientUnits="userSpaceOnUse" id="gradient37" r="819.2" spreadMethod="pad">
      <stop offset="0.0" stop-color="#474747"/>
      <stop offset="1.0" stop-color="#000000"/>
    </radialGradient>
    <radialGradient cx="0" cy="0" gradientTransform="matrix(0.0778, 0.0, 0.0, 0.0778, -261.05, -1.0)" gradientUnits="userSpaceOnUse" id="gradient38" r="819.2" spreadMethod="pad">
      <stop offset="0.0" stop-color="#474747"/>
      <stop offset="1.0" stop-color="#000000"/>
    </radialGradient>
  </defs>
</svg>
