<?xml version="1.0" encoding="UTF-8" standalone="no"?>
<svg xmlns:xlink="http://www.w3.org/1999/xlink" height="299.1px" width="215.65px" xmlns="http://www.w3.org/2000/svg">
  <g transform="matrix(1.0, 0.0, 0.0, 1.0, 359.9, 300.0)">
    <path d="M-145.15 -300.0 L-144.5 -300.0 -144.25 -299.9 -152.5 -264.4 -145.15 -300.0" fill="url(#gradient0)" fill-rule="evenodd" stroke="none"/>
    <path d="M-177.4 -261.15 L-180.65 -255.5 -182.25 -253.65 -182.75 -253.0 -184.15 -251.5 -184.5 -251.0 -184.75 -250.9 -189.4 -245.75 -192.0 -242.9 -199.4 -237.0 -210.5 -229.0 -224.15 -223.0 -235.25 -220.75 -235.75 -223.0 -237.5 -223.25 -242.65 -225.4 -249.25 -226.5 -257.15 -227.15 -264.5 -226.15 -269.9 -226.0 -271.4 -225.4 -274.9 -224.9 -275.5 -223.0 -285.65 -226.25 -304.15 -237.15 -305.9 -238.5 -316.25 -253.9 -275.9 -239.65 -270.9 -238.25 -228.0 -243.65 -227.5 -244.4 -221.25 -265.0 -212.25 -255.25 -196.5 -266.5 -197.15 -246.25 -196.65 -246.5 -186.65 -261.75 -186.4 -262.0 -177.4 -261.15" fill="url(#gradient1)" fill-rule="evenodd" stroke="none"/>
    <path d="M-334.65 -239.0 L-355.0 -274.75 -356.4 -276.65 -359.9 -300.0 -146.75 -300.0 -149.4 -293.4 -154.25 -284.5 -166.5 -278.9 -171.4 -260.65 -177.4 -261.15 -186.4 -262.0 -186.65 -261.75 -196.65 -246.5 -197.15 -246.25 -196.5 -266.5 -212.25 -255.25 -221.25 -265.0 -227.5 -244.4 -228.0 -243.65 -270.9 -238.25 -275.9 -239.65 -316.25 -253.9 -305.9 -238.5 -304.25 -236.15 -304.65 -235.9 -305.0 -236.15 -326.25 -246.0 -334.65 -239.0" fill="url(#gradient2)" fill-rule="evenodd" stroke="none"/>
    <path d="M-275.4 -222.75 Q-276.25 -222.35 -277.15 -222.0 L-286.5 -221.15 -303.5 -221.4 -316.75 -229.0 -332.5 -238.75 -319.4 -227.65 -319.25 -227.4 -319.65 -227.4 -334.65 -239.0 -326.25 -246.0 -305.0 -236.15 -304.65 -235.9 -304.25 -236.15 -305.9 -238.5 -304.15 -237.15 -285.65 -226.25 -275.5 -223.0 -275.4 -222.9 -275.4 -222.75" fill="url(#gradient3)" fill-rule="evenodd" stroke="none"/>
    <path d="M-182.25 -253.65 L-181.0 -251.75 -182.25 -251.4 -183.25 -251.5 -184.25 -251.15 -184.5 -251.0 -184.15 -251.5 -182.15 -252.25 -182.75 -253.0 -182.25 -253.65" fill="url(#gradient4)" fill-rule="evenodd" stroke="none"/>
    <path d="M-184.15 -251.5 L-182.75 -253.0 -182.15 -252.25 -184.15 -251.5" fill="url(#gradient5)" fill-rule="evenodd" stroke="none"/>
    <path d="M-184.5 -251.0 L-184.25 -251.15 -183.25 -251.5 -186.0 -248.5 -189.4 -245.75 -184.75 -250.9 -184.5 -251.0" fill="url(#gradient6)" fill-rule="evenodd" stroke="none"/>
    <path d="M-182.25 -251.4 L-182.65 -250.5 -187.25 -246.15 -192.0 -242.9 -189.4 -245.75 -186.0 -248.5 -183.25 -251.5 -182.25 -251.4" fill="url(#gradient7)" fill-rule="evenodd" stroke="none"/>
    <path d="M-325.4 -224.4 L-325.25 -225.0 Q-323.9 -226.15 -313.65 -222.4 L-313.75 -220.5 -313.9 -220.5 -314.9 -220.75 -325.15 -223.75 -325.4 -224.4" fill="url(#gradient8)" fill-rule="evenodd" stroke="none"/>
    <path d="M-326.0 -224.25 L-325.4 -224.4 -325.15 -223.75 -314.9 -220.75 -313.9 -220.5 -313.75 -220.5 -309.0 -212.75 -321.65 -216.0 -321.9 -216.15 -326.0 -224.25" fill="url(#gradient9)" fill-rule="evenodd" stroke="none"/>
    <path d="M-328.65 -213.4 L-327.4 -219.65 -326.0 -224.25 -321.9 -216.15 -322.0 -216.0 -322.5 -215.15 -323.4 -216.5 -324.0 -215.0 -324.15 -214.75 -324.25 -214.5 -324.5 -214.25 -325.25 -215.45 -325.7 -216.3 -325.9 -216.65 -326.0 -216.75 -326.15 -216.75 -326.15 -217.0 -326.25 -217.15 -326.25 -217.25 -326.4 -217.4 -326.5 -217.75 -326.5 -217.8 -326.65 -218.15 -326.75 -217.9 -327.0 -217.5 -327.15 -216.75 -327.15 -216.4 -328.25 -212.75 -328.4 -213.0 -328.5 -213.0 -328.65 -213.4" fill="url(#gradient10)" fill-rule="evenodd" stroke="none"/>
    <path d="M-328.9 -211.65 L-329.0 -211.75 -328.9 -212.15 -328.9 -211.65 M-328.75 -212.4 L-328.65 -213.4 -328.5 -213.0 -328.5 -212.75 -328.75 -212.4" fill="url(#gradient11)" fill-rule="evenodd" stroke="none"/>
    <path d="M-328.25 -212.75 L-328.75 -212.4 -328.5 -212.75 -328.5 -213.0 -328.4 -213.0 -328.25 -212.75" fill="url(#gradient12)" fill-rule="evenodd" stroke="none"/>
    <path d="M-284.65 -213.75 L-284.5 -213.75 -281.75 -215.4 -280.25 -216.15 -279.4 -217.4 -278.5 -218.4 -275.5 -222.15 -275.4 -222.75 -275.4 -222.9 -275.5 -223.0 -274.9 -224.9 -271.4 -225.4 -269.9 -226.0 -264.5 -226.15 -257.15 -227.15 -249.25 -226.5 -242.65 -225.4 -243.0 -222.25 -242.4 -212.75 -266.0 -211.5 -266.5 -211.4 -281.9 -211.4 -293.5 -208.25 -284.65 -213.75" fill="url(#gradient13)" fill-rule="evenodd" stroke="none"/>
    <path d="M-235.25 -220.75 L-234.9 -216.9 -243.0 -222.25 -242.65 -225.4 -237.5 -223.25 -235.75 -223.0 -235.25 -220.75" fill="url(#gradient14)" fill-rule="evenodd" stroke="none"/>
    <path d="M-234.9 -216.9 L-212.75 -201.75 -221.25 -203.75 -222.15 -204.15 -242.4 -212.75 -243.0 -222.25 -234.9 -216.9" fill="url(#gradient15)" fill-rule="evenodd" stroke="none"/>
    <path d="M-222.15 -204.15 L-235.4 -206.75 Q-241.65 -209.9 -248.5 -208.75 L-266.0 -211.5 -242.4 -212.75 -222.15 -204.15" fill="url(#gradient16)" fill-rule="evenodd" stroke="none"/>
    <path d="M-211.15 -195.5 L-210.4 -194.75 -223.9 -199.65 -235.65 -200.9 -248.25 -194.5 -256.4 -205.0 -257.0 -205.4 -257.25 -205.9 -264.25 -210.25 -266.5 -211.4 -266.0 -211.5 -248.5 -208.75 -235.4 -206.75 -222.15 -204.15 -221.25 -203.75 -211.15 -195.5" fill="url(#gradient17)" fill-rule="evenodd" stroke="none"/>
    <path d="M-231.65 -108.75 L-231.5 -108.5 -228.15 -89.65 -243.5 -89.9 -290.75 -92.0 -286.5 -173.15 -281.9 -211.4 -266.5 -211.4 -268.9 -182.4 -269.15 -181.5 -268.65 -180.5 -260.5 -145.65 -260.25 -144.75 -254.0 -144.4 -252.9 -141.65 -240.15 -123.5 -231.65 -108.75" fill="url(#gradient18)" fill-rule="evenodd" stroke="none"/>
    <path d="M-281.9 -211.4 L-286.5 -173.15 -290.75 -92.0 -300.75 -94.65 -297.25 -157.9 -297.15 -158.4 -297.15 -160.15 -297.0 -161.0 -294.5 -207.5 -294.65 -207.5 -294.15 -207.9 -293.9 -208.0 -293.5 -208.25 -281.9 -211.4" fill="url(#gradient19)" fill-rule="evenodd" stroke="none"/>
    <path d="M-300.65 -205.15 Q-299.5 -205.75 -298.4 -206.4 L-298.4 -206.25 -298.25 -205.4 -300.65 -205.15 M-296.9 -207.15 L-284.65 -213.75 -293.5 -208.25 -293.9 -208.0 -294.15 -207.9 -294.65 -207.5 -296.65 -207.15 -296.9 -207.15 M-281.75 -215.4 L-279.15 -217.9 -279.4 -217.4 -280.25 -216.15 -281.75 -215.4" fill="url(#gradient20)" fill-rule="evenodd" stroke="none"/>
    <path d="M-306.4 -0.9 L-309.65 -0.9 -304.4 -96.4 -298.25 -205.4 -298.4 -206.25 -298.4 -206.4 -297.9 -207.0 -296.9 -207.15 -296.65 -207.15 -294.65 -207.5 -294.5 -207.5 -297.0 -161.0 -297.15 -160.15 -297.15 -158.4 -297.25 -157.9 -300.75 -94.65 -302.65 -63.75 -302.75 -63.4 -306.4 -0.9" fill="url(#gradient21)" fill-rule="evenodd" stroke="none"/>
    <path d="M-325.5 -215.9 L-325.65 -215.9 -325.65 -216.15 -325.7 -216.3 -325.25 -215.45 -325.5 -215.9 M-326.5 -217.8 L-326.65 -218.0 -326.65 -218.15 -326.5 -217.8" fill="url(#gradient22)" fill-rule="evenodd" stroke="none"/>
    <path d="M-326.4 -217.25 L-326.25 -217.25 -326.25 -217.15 -326.15 -217.0 -326.15 -216.75 -326.4 -217.25 M-326.4 -217.4 L-326.75 -217.9 -326.65 -218.15 -326.65 -218.0 -326.5 -217.8 -326.5 -217.75 -326.4 -217.4" fill="url(#gradient23)" fill-rule="evenodd" stroke="none"/>
    <path d="M-326.75 -217.9 L-327.15 -216.75 -327.0 -217.5 -326.75 -217.9 M-327.15 -216.4 L-326.9 -215.9 -326.9 -215.75 -328.0 -212.75 -328.25 -212.75 -327.15 -216.4" fill="url(#gradient24)" fill-rule="evenodd" stroke="none"/>
    <path d="M-326.4 -217.4 L-326.4 -217.25 -326.15 -216.75 -326.15 -216.65 -326.0 -216.4 -325.9 -216.15 -325.65 -215.9 -325.5 -215.9 -323.65 -211.25 -323.9 -210.0 -324.25 -209.5 -325.0 -212.0 -326.9 -215.75 -326.9 -215.9 -327.15 -216.4 -327.15 -216.75 -326.75 -217.9 -326.4 -217.4" fill="url(#gradient25)" fill-rule="evenodd" stroke="none"/>
    <path d="M-326.4 -217.25 L-326.4 -217.4 -326.25 -217.25 -326.4 -217.25 M-323.65 -211.25 L-325.5 -215.9 -325.25 -215.45 -324.5 -214.25 -324.25 -214.5 -324.15 -214.75 -324.0 -215.0 -323.4 -216.5 -322.5 -215.15 -323.65 -211.25 M-325.65 -215.9 L-325.9 -216.15 -326.0 -216.4 -326.15 -216.65 -326.15 -216.75 -326.0 -216.75 -325.9 -216.65 -325.7 -216.3 -325.65 -216.15 -325.65 -215.9" fill="url(#gradient26)" fill-rule="evenodd" stroke="none"/>
    <path d="M-279.15 -217.9 L-278.5 -218.4 -279.4 -217.4 -279.15 -217.9" fill="url(#gradient27)" fill-rule="evenodd" stroke="none"/>
    <path d="M-326.9 -215.75 L-325.0 -212.0 -324.25 -209.5 -324.0 -209.15 -324.15 -208.65 -324.15 -208.4 -324.5 -206.9 -324.65 -206.5 -324.75 -206.0 -324.75 -205.5 -324.75 -205.25 -324.9 -205.0 -324.9 -204.75 -325.15 -204.5 -325.25 -204.25 -325.4 -204.4 -325.75 -205.65 -327.75 -210.0 -328.25 -211.9 -328.0 -212.75 -326.9 -215.75" fill="url(#gradient28)" fill-rule="evenodd" stroke="none"/>
    <path d="M-328.75 -195.15 L-328.75 -195.4 -328.65 -195.4 -328.75 -195.15 M-326.9 -202.65 L-326.75 -202.9 -326.75 -202.25 -326.9 -202.65 M-327.75 -210.0 L-328.4 -211.15 -328.5 -211.5 -328.65 -211.5 -328.75 -212.0 -328.75 -212.4 -328.25 -212.75 -328.0 -212.75 -328.25 -211.9 -327.75 -210.0 M-326.65 -201.5 L-326.25 -201.9 -325.75 -201.4 -326.0 -201.0 -326.65 -201.5 M-326.0 -199.75 L-325.9 -199.75 -325.65 -199.65 -325.25 -199.4 -325.25 -198.5 -325.65 -198.15 -326.4 -198.25 -326.4 -198.4 -326.25 -198.75 -326.25 -199.0 -326.25 -199.4 -326.0 -199.75 M-324.0 -199.75 L-324.0 -200.15 -323.9 -200.15 -323.75 -199.9 -323.65 -199.9 -323.5 -199.75 -323.5 -199.5 -323.4 -199.5 -323.15 -199.15 -323.0 -199.0 -323.0 -198.5 -322.4 -198.4 -322.5 -194.75 -322.9 -195.65 -323.15 -195.9 -323.0 -197.0 -324.15 -195.5 -323.65 -198.75 -324.0 -199.75" fill="url(#gradient29)" fill-rule="evenodd" stroke="none"/>
    <path d="M-308.5 -212.25 L-307.65 -210.65 -319.4 -213.75 -321.25 -214.4 -322.0 -216.0 -321.9 -216.15 -321.65 -216.0 -308.5 -212.25" fill="url(#gradient30)" fill-rule="evenodd" stroke="none"/>
    <path d="M-323.9 -210.0 L-323.65 -211.25 -322.5 -215.15 -322.0 -216.0 -321.25 -214.4 -321.4 -214.15 -321.4 -213.65 -321.4 -213.25 -321.5 -213.0 -321.5 -212.65 -321.65 -212.4 -321.65 -212.25 -321.75 -212.15 -321.75 -211.65 -321.9 -211.4 -321.9 -211.15 -322.0 -210.9 -322.0 -210.65 -322.15 -210.4 -322.15 -210.15 -322.25 -209.9 -322.25 -209.65 -322.4 -209.4 -322.4 -209.15 -322.5 -208.9 -322.65 -208.65 -322.9 -208.5 -323.15 -208.5 -323.25 -208.65 -323.25 -208.75 -323.4 -209.0 -323.5 -209.25 -323.65 -209.5 -323.9 -209.65 -323.9 -210.0 M-323.0 -208.25 L-322.9 -208.4 -322.9 -208.25 -323.0 -208.25" fill="url(#gradient31)" fill-rule="evenodd" stroke="none"/>
    <path d="M-309.0 -212.75 L-308.4 -212.5 -308.5 -212.25 -321.65 -216.0 -309.0 -212.75" fill="url(#gradient32)" fill-rule="evenodd" stroke="none"/>
    <path d="M-320.9 -214.0 L-321.4 -214.15 -321.25 -214.4 -319.4 -213.75 -319.5 -213.75 -320.9 -214.0" fill="url(#gradient33)" fill-rule="evenodd" stroke="none"/>
    <path d="M-321.4 -213.65 L-321.4 -214.15 -320.9 -214.0 -320.65 -213.65 -321.4 -213.65 M-322.65 -208.65 L-322.65 -208.15 -322.9 -207.15 -323.0 -206.9 -323.0 -206.5 -323.15 -206.4 -323.15 -206.15 -324.0 -202.65 -324.25 -201.9 -324.25 -201.75 -324.5 -201.75 -324.5 -201.9 -324.4 -202.15 -322.9 -208.15 -322.9 -208.25 -322.9 -208.4 -322.9 -208.5 -322.65 -208.65" fill="url(#gradient34)" fill-rule="evenodd" stroke="none"/>
    <path d="M-321.4 -213.65 L-320.65 -213.65 -320.65 -212.9 -322.5 -206.65 -322.9 -206.5 -323.0 -206.5 -323.0 -206.9 -322.9 -207.15 -322.65 -208.15 -322.65 -208.65 -322.5 -208.9 -322.4 -209.15 -322.4 -209.4 -322.25 -209.65 -322.25 -209.9 -322.15 -210.15 -322.15 -210.4 -322.0 -210.65 -322.0 -210.9 -321.9 -211.15 -321.9 -211.4 -321.75 -211.65 -321.75 -212.15 -321.65 -212.25 -321.65 -212.4 -321.5 -212.65 -321.5 -213.0 -321.4 -213.25 -321.4 -213.65 M-322.5 -205.9 L-322.65 -205.25 -323.25 -205.0 -323.25 -204.75 -324.0 -201.9 -324.15 -201.5 -324.25 -201.4 -324.25 -201.75 -324.25 -201.9 -324.0 -202.65 -323.15 -206.15 -323.15 -206.4 -322.9 -206.15 -322.5 -205.9" fill="url(#gradient35)" fill-rule="evenodd" stroke="none"/>
    <path d="M-320.65 -213.65 L-320.9 -214.0 -319.5 -213.75 -319.65 -213.4 -320.65 -213.65" fill="url(#gradient36)" fill-rule="evenodd" stroke="none"/>
    <path d="M-319.5 -213.75 L-319.4 -213.75 -319.25 -213.65 -319.75 -211.5 -319.9 -210.9 -320.4 -210.9 -320.8 -207.95 -320.9 -207.9 -320.9 -207.5 -321.0 -207.25 -321.15 -207.0 -321.15 -206.65 -321.25 -206.4 -321.25 -206.3 -321.5 -205.5 -322.15 -205.0 -322.65 -205.25 -322.5 -205.9 -322.4 -206.5 -322.5 -206.65 -320.65 -212.9 -320.25 -212.5 -319.9 -212.9 -319.65 -213.4 -319.5 -213.75 M-319.9 -206.9 L-320.15 -205.75 -320.15 -206.65 -320.5 -206.25 -320.25 -206.9 -319.9 -206.9 M-320.5 -205.0 L-320.65 -204.65 -320.75 -204.25 -320.9 -204.15 -320.9 -204.5 -320.75 -204.9 -320.5 -205.0 M-320.75 -205.5 L-320.65 -205.5 -320.65 -205.4 -320.75 -205.5" fill="url(#gradient37)" fill-rule="evenodd" stroke="none"/>
    <path d="M-307.65 -210.65 L-305.75 -209.9 -319.25 -213.65 -319.4 -213.75 -307.65 -210.65" fill="url(#gradient38)" fill-rule="evenodd" stroke="none"/>
    <path d="M-319.65 -213.4 L-319.9 -212.9 -320.65 -212.9 -320.65 -213.65 -319.65 -213.4" fill="url(#gradient39)" fill-rule="evenodd" stroke="none"/>
    <path d="M-319.9 -212.9 L-320.25 -212.5 -320.65 -212.9 -319.9 -212.9" fill="url(#gradient40)" fill-rule="evenodd" stroke="none"/>
    <path d="M-328.9 -212.15 L-328.9 -212.25 -328.75 -212.4 -328.75 -212.0 -328.9 -211.65 -328.9 -212.15" fill="url(#gradient41)" fill-rule="evenodd" stroke="none"/>
    <path d="M-328.4 -211.15 L-328.9 -211.25 -328.9 -211.65 -328.75 -212.0 -328.65 -211.5 -328.5 -211.5 -328.4 -211.15" fill="url(#gradient42)" fill-rule="evenodd" stroke="none"/>
    <path d="M-322.5 -206.65 L-322.4 -206.5 -322.5 -205.9 -322.9 -206.15 -322.9 -206.5 -322.5 -206.65" fill="url(#gradient43)" fill-rule="evenodd" stroke="none"/>
    <path d="M-323.0 -206.5 L-322.9 -206.5 -322.9 -206.15 -323.15 -206.4 -323.0 -206.5" fill="url(#gradient44)" fill-rule="evenodd" stroke="none"/>
    <path d="M-305.75 -209.9 L-306.25 -207.75 -306.65 -207.9 -306.75 -207.9 -307.25 -208.0 -307.65 -208.15 -308.15 -208.25 -310.5 -209.0 -310.9 -209.0 -311.9 -209.4 -312.25 -209.4 -317.15 -210.75 -319.65 -211.5 -319.75 -211.5 -319.25 -213.65 -305.75 -209.9" fill="url(#gradient45)" fill-rule="evenodd" stroke="none"/>
    <path d="M-306.25 -207.75 L-306.25 -207.0 -319.9 -210.9 -319.75 -211.5 -319.65 -211.5 -317.15 -210.75 -312.25 -209.4 -311.9 -209.4 -310.9 -209.0 -310.5 -209.0 -308.15 -208.25 -307.65 -208.15 -307.25 -208.0 -306.75 -207.9 -306.65 -207.9 -306.25 -207.75" fill="url(#gradient46)" fill-rule="evenodd" stroke="none"/>
    <path d="M-306.25 -207.0 L-306.65 -204.0 -308.0 -204.35 -320.75 -208.0 -320.4 -210.9 -319.9 -210.9 -306.25 -207.0" fill="url(#gradient47)" fill-rule="evenodd" stroke="none"/>
    <path d="M-321.5 -205.5 L-321.25 -206.3 -321.25 -206.0 -321.4 -205.75 -321.4 -205.5 -321.5 -205.5 M-320.8 -207.95 L-320.4 -210.9 -320.75 -208.0 -320.8 -207.95" fill="url(#gradient48)" fill-rule="evenodd" stroke="none"/>
    <path d="M-308.25 -197.0 L-308.65 -195.15 -309.15 -195.25 -322.25 -198.75 -322.9 -198.9 -322.5 -201.15 -322.4 -201.25 -322.4 -201.65 -322.25 -201.75 -322.15 -202.0 -322.15 -202.4 -321.65 -204.25 -321.65 -204.4 -321.5 -204.9 -321.5 -205.15 -321.4 -205.5 -321.4 -205.75 -321.25 -206.0 -321.15 -206.4 -321.25 -206.4 -321.15 -206.65 -321.15 -207.0 -321.0 -207.25 -320.9 -207.5 -320.9 -207.9 -320.85 -207.85 -320.25 -207.5 -320.25 -207.25 -320.25 -206.9 -320.5 -206.25 -320.75 -205.5 -320.65 -205.4 -320.75 -204.9 -320.9 -204.5 -320.9 -204.15 -320.9 -204.0 -321.0 -203.9 -321.0 -203.65 -321.15 -203.5 -321.15 -203.25 -321.25 -203.15 -321.4 -202.9 -321.4 -202.65 -321.4 -202.5 -321.5 -202.25 -321.9 -200.75 -321.25 -200.5 -308.25 -197.0" fill="url(#gradient49)" fill-rule="evenodd" stroke="none"/>
    <path d="M-308.0 -204.35 L-314.35 -205.95 -320.25 -207.5 -320.85 -207.85 -320.9 -207.9 -320.8 -207.95 -320.75 -208.0 -308.0 -204.35" fill="url(#gradient50)" fill-rule="evenodd" stroke="none"/>
    <path d="M-324.25 -209.5 L-323.9 -210.0 -323.9 -209.65 -323.9 -209.25 -324.25 -209.5" fill="url(#gradient51)" fill-rule="evenodd" stroke="none"/>
    <path d="M-324.0 -209.15 L-323.9 -209.25 -323.9 -209.65 -323.65 -209.5 -324.5 -206.0 -324.65 -205.75 -324.75 -205.5 -324.75 -206.0 -324.65 -206.5 -324.5 -206.9 -324.15 -208.4 -324.15 -208.65 -324.0 -209.15 M-325.25 -204.25 L-325.15 -204.5 -324.9 -204.75 -324.9 -204.5 -325.0 -204.0 -325.15 -203.75 -325.25 -203.4 -325.4 -203.5 -325.25 -203.75 -325.25 -204.25" fill="url(#gradient52)" fill-rule="evenodd" stroke="none"/>
    <path d="M-324.75 -205.5 L-324.65 -205.75 -324.5 -206.0 -323.65 -209.5 -323.5 -209.25 -323.5 -209.15 -324.9 -203.65 -325.15 -203.0 -325.25 -203.25 -325.25 -203.4 -325.15 -203.75 -325.0 -204.0 -324.9 -204.5 -324.9 -204.75 -324.9 -205.0 -324.75 -205.25 -324.75 -205.5" fill="url(#gradient53)" fill-rule="evenodd" stroke="none"/>
    <path d="M-323.9 -209.25 L-324.0 -209.15 -324.25 -209.5 -323.9 -209.25" fill="url(#gradient54)" fill-rule="evenodd" stroke="none"/>
    <path d="M-325.15 -203.0 L-324.9 -203.65 -323.5 -209.15 -323.5 -209.25 -323.4 -209.0 -323.4 -208.75 -324.75 -203.25 -324.9 -203.0 -325.0 -202.75 -325.15 -202.9 -325.15 -203.0" fill="url(#gradient55)" fill-rule="evenodd" stroke="none"/>
    <path d="M-327.5 -200.0 L-327.0 -201.9 -326.9 -202.65 -326.75 -202.25 -326.75 -202.9 -326.75 -203.25 -326.4 -205.25 -327.75 -210.0 -325.75 -205.65 -325.4 -204.4 -325.25 -204.25 -325.25 -203.75 -325.4 -203.5 -325.25 -203.4 -325.25 -203.25 -325.15 -203.0 -325.15 -202.9 -325.0 -202.75 -325.0 -202.5 -324.9 -202.4 -324.65 -202.15 -324.5 -201.75 -324.4 -201.5 -324.25 -201.4 -324.15 -201.15 -324.15 -201.0 -324.15 -200.65 -324.0 -200.5 -324.0 -200.15 -324.0 -199.75 -324.25 -199.75 -325.0 -199.65 -325.25 -199.4 -325.4 -199.75 -325.4 -200.65 -325.65 -199.65 -325.9 -199.75 -326.0 -199.75 -326.15 -199.75 -326.0 -201.0 -325.75 -201.4 -326.25 -201.9 -326.65 -201.5 -326.75 -201.25 -327.5 -200.0" fill="url(#gradient56)" fill-rule="evenodd" stroke="none"/>
    <path d="M-323.4 -209.0 L-323.25 -208.75 -323.25 -208.65 -323.25 -208.4 -324.65 -202.9 -324.75 -202.65 -324.9 -202.4 -325.0 -202.5 -325.0 -202.75 -324.9 -203.0 -324.75 -203.25 -323.4 -208.75 -323.4 -209.0" fill="url(#gradient57)" fill-rule="evenodd" stroke="none"/>
    <path d="M-323.25 -208.65 L-323.15 -208.5 -323.15 -208.15 -323.15 -208.0 -324.5 -202.5 -324.65 -202.15 -324.9 -202.4 -324.75 -202.65 -324.65 -202.9 -323.25 -208.4 -323.25 -208.65" fill="url(#gradient58)" fill-rule="evenodd" stroke="none"/>
    <path d="M-323.15 -208.15 L-323.15 -208.5 -323.0 -208.25 -323.15 -208.15" fill="url(#gradient59)" fill-rule="evenodd" stroke="none"/>
    <path d="M-324.65 -202.15 L-324.5 -202.5 -323.15 -208.0 -323.15 -208.15 -323.0 -208.25 -322.9 -208.25 -322.9 -208.15 -324.4 -202.15 -324.5 -201.9 -324.5 -201.75 -324.65 -202.15" fill="url(#gradient60)" fill-rule="evenodd" stroke="none"/>
    <path d="M-323.15 -208.5 L-322.9 -208.5 -322.9 -208.4 -323.0 -208.25 -323.15 -208.5" fill="url(#gradient61)" fill-rule="evenodd" stroke="none"/>
    <path d="M-306.75 -203.9 L-306.4 -203.5 -320.15 -207.0 -320.25 -207.25 -320.25 -207.5 -314.35 -205.95 -306.75 -203.9" fill="url(#gradient62)" fill-rule="evenodd" stroke="none"/>
    <path d="M-306.65 -204.0 L-306.75 -203.9 -314.35 -205.95 -308.0 -204.35 -306.65 -204.0 M-320.25 -207.25 L-320.15 -207.0 -320.25 -206.9 -320.25 -207.25" fill="url(#gradient63)" fill-rule="evenodd" stroke="none"/>
    <path d="M-320.15 -205.75 L-320.25 -205.65 -320.4 -205.4 -320.4 -205.25 -320.5 -205.0 -320.75 -204.9 -320.65 -205.4 -320.65 -205.5 -320.75 -205.5 -320.5 -206.25 -320.15 -206.65 -320.15 -205.75 M-319.9 -206.9 L-320.25 -206.9 -320.15 -207.0 -319.9 -206.9" fill="url(#gradient64)" fill-rule="evenodd" stroke="none"/>
    <path d="M-288.75 -0.9 L-306.4 -0.9 -302.75 -63.4 -302.65 -63.75 -300.75 -94.65 -290.75 -92.0 -286.15 -30.65 -288.75 -8.15 -288.75 -0.9" fill="url(#gradient65)" fill-rule="evenodd" stroke="none"/>
    <path d="M-309.65 -0.9 L-314.5 -0.9 -311.4 -54.5 -311.25 -98.0 -307.5 -96.75 -304.4 -96.4 -309.65 -0.9" fill="url(#gradient66)" fill-rule="evenodd" stroke="none"/>
    <path d="M-311.25 -98.0 L-310.15 -118.15 -309.9 -123.5 -310.0 -123.5 -309.75 -124.9 -307.5 -165.25 -307.5 -165.9 -307.5 -167.65 -304.0 -182.65 -303.9 -181.65 -303.75 -183.75 -302.65 -204.4 -300.9 -205.0 -300.65 -205.15 -298.25 -205.4 -304.4 -96.4 -307.5 -96.75 -311.25 -98.0" fill="url(#gradient67)" fill-rule="evenodd" stroke="none"/>
    <path d="M-321.25 -206.3 L-321.25 -206.4 -321.15 -206.4 -321.25 -206.0 -321.25 -206.3 M-322.5 -201.15 L-322.9 -198.9 -323.0 -198.5 -323.0 -199.0 -323.15 -199.15 -322.75 -200.25 -322.65 -200.75 -322.5 -201.15" fill="url(#gradient68)" fill-rule="evenodd" stroke="none"/>
    <path d="M-306.4 -203.5 L-306.15 -203.15 -319.9 -206.9 -320.15 -207.0 -306.4 -203.5 M-321.25 -203.15 L-321.4 -202.65 -321.4 -202.9 -321.25 -203.15" fill="url(#gradient69)" fill-rule="evenodd" stroke="none"/>
    <path d="M-306.15 -203.15 L-306.15 -202.25 -308.25 -197.0 -321.25 -200.5 -321.9 -200.75 -321.5 -202.25 -321.4 -202.5 -321.4 -202.65 -321.25 -203.15 -321.15 -203.25 -321.15 -203.5 -321.0 -203.65 -321.0 -203.9 -320.9 -204.0 -320.9 -204.15 -320.75 -204.25 -320.65 -204.65 -320.5 -205.0 -320.4 -205.25 -320.4 -205.4 -320.25 -205.65 -320.15 -205.75 -319.9 -206.9 -306.15 -203.15" fill="url(#gradient70)" fill-rule="evenodd" stroke="none"/>
    <path d="M-235.4 -206.75 L-248.5 -208.75 Q-241.65 -209.9 -235.4 -206.75" fill="url(#gradient71)" fill-rule="evenodd" stroke="none"/>
    <path d="M-324.5 -201.75 L-324.25 -201.75 -324.25 -201.4 -324.4 -201.5 -324.5 -201.75" fill="url(#gradient72)" fill-rule="evenodd" stroke="none"/>
    <path d="M-321.4 -205.5 L-321.5 -205.15 -321.5 -205.5 -321.4 -205.5 M-321.65 -204.25 L-322.15 -202.4 -322.15 -202.0 -322.25 -201.75 -322.4 -201.65 -321.65 -204.25" fill="url(#gradient73)" fill-rule="evenodd" stroke="none"/>
    <path d="M-266.5 -211.4 L-264.25 -210.25 -257.25 -205.9 -257.0 -205.4 -268.9 -182.4 -266.5 -211.4" fill="url(#gradient74)" fill-rule="evenodd" stroke="none"/>
    <path d="M-257.0 -205.4 L-256.4 -205.0 -248.25 -194.5 -248.4 -194.25 -257.15 -182.9 -259.9 -159.75 -260.5 -145.65 -268.65 -180.5 -269.15 -181.5 -268.9 -182.4 -257.0 -205.4" fill="url(#gradient75)" fill-rule="evenodd" stroke="none"/>
    <path d="M-324.15 -201.0 L-324.15 -201.15 -324.25 -201.4 -324.15 -201.5 -324.0 -201.9 -323.25 -204.75 -323.25 -205.0 -322.65 -205.25 -322.9 -204.9 -323.15 -204.65 -323.15 -204.4 -323.75 -201.9 -324.0 -201.15 -324.15 -201.0" fill="url(#gradient76)" fill-rule="evenodd" stroke="none"/>
    <path d="M-324.0 -200.5 L-324.15 -200.65 -324.15 -201.0 -324.0 -201.15 -323.75 -201.9 -323.15 -204.4 -323.15 -204.65 -322.9 -204.9 -322.9 -204.5 -323.0 -204.0 -323.15 -203.65 -323.75 -201.15 -324.0 -200.5" fill="url(#gradient77)" fill-rule="evenodd" stroke="none"/>
    <path d="M-322.65 -205.25 L-322.15 -205.0 -322.5 -204.65 -322.75 -204.4 -322.75 -204.15 -323.75 -200.25 -323.9 -200.15 -324.0 -200.15 -324.0 -200.5 -323.75 -201.15 -323.15 -203.65 -323.0 -204.0 -322.9 -204.5 -322.9 -204.9 -322.65 -205.25" fill="url(#gradient78)" fill-rule="evenodd" stroke="none"/>
    <path d="M-322.15 -205.0 L-321.5 -205.5 -321.5 -205.15 -321.5 -204.9 -321.65 -204.4 -321.65 -204.25 -322.4 -201.65 -322.4 -201.25 -322.5 -201.15 -322.65 -200.75 -322.75 -200.25 -323.15 -199.15 -323.4 -199.5 -323.5 -199.75 -323.4 -200.0 -323.25 -200.25 -322.15 -204.75 -322.15 -205.0" fill="url(#gradient79)" fill-rule="evenodd" stroke="none"/>
    <path d="M-304.0 -182.65 L-304.0 -182.75 -303.75 -183.75 -303.9 -181.65 -304.0 -182.65" fill="url(#gradient80)" fill-rule="evenodd" stroke="none"/>
    <path d="M-314.25 -178.75 L-312.9 -177.0 -307.5 -167.65 -307.5 -165.9 -307.65 -165.65 -308.15 -164.9 -311.15 -159.25 -311.25 -159.0 -316.15 -150.65 -318.75 -156.0 -321.75 -164.0 -325.5 -172.5 -326.4 -173.65 -326.5 -174.0 Q-321.65 -176.5 -321.5 -177.5 L-320.4 -178.5 -315.0 -177.65 -314.65 -177.65 -314.25 -178.75" fill="url(#gradient81)" fill-rule="evenodd" stroke="none"/>
    <path d="M-312.4 -186.75 L-314.25 -178.75 -314.65 -177.65 -315.0 -177.65 -320.4 -178.5 -321.5 -177.5 -328.15 -179.25 -328.0 -180.4 -326.25 -187.4 -326.0 -188.25 -325.5 -190.15 -312.4 -186.75" fill="url(#gradient82)" fill-rule="evenodd" stroke="none"/>
    <path d="M-311.15 -190.0 L-312.4 -186.75 -325.5 -190.15 -324.75 -192.5 -324.2 -193.9 -324.15 -194.0 -323.75 -194.65 -323.5 -194.75 -322.9 -193.5 -322.75 -193.25 -319.25 -192.25 -318.75 -192.15 -311.15 -190.0" fill="url(#gradient83)" fill-rule="evenodd" stroke="none"/>
    <path d="M-309.15 -190.5 L-309.4 -189.65 -311.15 -190.0 -318.75 -192.15 -319.25 -192.25 -322.75 -193.25 -322.75 -193.9 -322.65 -194.0 -322.5 -194.0 -309.15 -190.5" fill="url(#gradient84)" fill-rule="evenodd" stroke="none"/>
    <path d="M-322.9 -193.5 L-322.75 -193.9 -322.75 -193.25 -322.9 -193.5" fill="url(#gradient85)" fill-rule="evenodd" stroke="none"/>
    <path d="M-322.75 -193.9 L-322.65 -194.25 -322.65 -194.0 -322.75 -193.9" fill="url(#gradient86)" fill-rule="evenodd" stroke="none"/>
    <path d="M-309.0 -194.65 L-309.15 -190.5 -322.5 -194.0 -322.65 -194.0 -322.65 -194.25 -322.65 -194.4 -322.5 -194.75 -322.4 -198.4 -322.25 -198.75 -309.15 -195.25 -309.0 -194.65" fill="url(#gradient87)" fill-rule="evenodd" stroke="none"/>
    <path d="M-324.15 -195.5 L-323.0 -197.0 -323.15 -195.9 -322.9 -195.65 -322.5 -194.75 -322.65 -194.4 -322.65 -194.25 -322.75 -193.9 -322.9 -193.5 -323.5 -194.75 -323.9 -194.65 -324.2 -193.9 -324.75 -192.5 -325.0 -192.4 -325.0 -192.75 -324.15 -195.5" fill="url(#gradient88)" fill-rule="evenodd" stroke="none"/>
    <path d="M-308.65 -195.15 L-309.0 -194.65 -309.15 -195.25 -308.65 -195.15 M-322.9 -198.9 L-322.25 -198.75 -322.4 -198.4 -323.0 -198.5 -322.9 -198.9" fill="url(#gradient89)" fill-rule="evenodd" stroke="none"/>
    <path d="M-323.65 -199.9 L-323.5 -200.15 -322.5 -204.15 -322.5 -204.65 -322.15 -205.0 -322.15 -204.75 -323.25 -200.25 -323.4 -200.0 -323.5 -199.75 -323.65 -199.9" fill="url(#gradient90)" fill-rule="evenodd" stroke="none"/>
    <path d="M-322.5 -204.65 L-322.5 -204.15 -323.5 -200.15 -323.65 -199.9 -323.75 -199.9 -323.9 -200.15 -323.75 -200.25 -322.75 -204.15 -322.75 -204.4 -322.5 -204.65" fill="url(#gradient91)" fill-rule="evenodd" stroke="none"/>
    <path d="M-327.25 -200.0 L-327.5 -200.0 -326.75 -201.25 -327.25 -200.0" fill="url(#gradient92)" fill-rule="evenodd" stroke="none"/>
    <path d="M-326.75 -201.25 L-326.65 -201.5 -326.0 -201.0 -326.15 -199.75 -326.25 -199.4 -326.25 -199.0 -327.5 -199.4 -327.4 -199.65 -327.25 -199.9 -327.25 -200.0 -326.75 -201.25" fill="url(#gradient93)" fill-rule="evenodd" stroke="none"/>
    <path d="M-212.75 -201.75 L-211.15 -195.5 -221.25 -203.75 -212.75 -201.75" fill="url(#gradient94)" fill-rule="evenodd" stroke="none"/>
    <path d="M-323.4 -199.5 L-323.5 -199.5 -323.5 -199.75 -323.4 -199.5" fill="url(#gradient95)" fill-rule="evenodd" stroke="none"/>
    <path d="M-327.5 -199.75 L-327.5 -200.0 -327.25 -200.0 -327.25 -199.9 -327.4 -199.65 -327.5 -199.75" fill="url(#gradient96)" fill-rule="evenodd" stroke="none"/>
    <path d="M-327.75 -198.4 L-327.65 -199.5 -327.5 -199.75 -327.4 -199.65 -327.5 -199.4 -327.75 -198.4" fill="url(#gradient97)" fill-rule="evenodd" stroke="none"/>
    <path d="M-328.65 -195.4 L-328.5 -195.75 -328.4 -196.5 -328.4 -196.65 -328.25 -196.75 -328.4 -196.75 -328.0 -197.75 -327.9 -198.25 -327.75 -198.4 -327.5 -199.4 -326.25 -199.0 -326.25 -198.75 -326.4 -198.65 -326.4 -198.4 -326.4 -198.25 -326.75 -198.0 -327.5 -195.4 -327.9 -194.15 -327.9 -194.0 -328.0 -193.65 -328.15 -192.75 -328.25 -192.5 -328.5 -192.15 -328.9 -193.25 -328.9 -193.4 -329.0 -193.75 -329.0 -194.0 -328.9 -194.25 -328.9 -194.65 -328.75 -195.15 -328.65 -195.4" fill="url(#gradient98)" fill-rule="evenodd" stroke="none"/>
    <path d="M-325.0 -199.65 L-324.25 -199.75 -324.0 -199.75 -323.65 -198.75 -324.65 -198.9 -325.0 -199.65" fill="url(#gradient99)" fill-rule="evenodd" stroke="none"/>
    <path d="M-330.75 -184.0 L-330.75 -184.25 -330.65 -184.5 -330.65 -184.75 -330.5 -184.9 -330.5 -185.15 -330.4 -185.25 -330.4 -185.65 -330.25 -185.75 -330.25 -186.15 -330.15 -186.25 -330.15 -186.65 -330.0 -186.75 -329.9 -187.15 -329.9 -187.5 -329.75 -187.65 -329.75 -188.15 -329.25 -188.9 -330.5 -183.9 -329.25 -188.5 -328.9 -189.15 -328.25 -189.15 -329.0 -189.25 -328.5 -191.15 -328.0 -191.25 -328.4 -191.4 -328.15 -192.65 -327.9 -192.15 -327.65 -193.0 -327.65 -194.4 -327.5 -194.9 -326.9 -194.9 -327.4 -195.0 -327.25 -195.4 -327.15 -195.5 -327.25 -195.5 -327.5 -195.4 -326.75 -198.0 -326.15 -197.15 -325.9 -196.9 -325.65 -198.15 -325.25 -198.5 -325.25 -199.4 -325.0 -199.65 -324.65 -198.9 -327.4 -188.75 -327.5 -187.9 -327.4 -187.5 -329.0 -180.5 -330.5 -173.4 -332.9 -165.65 -333.4 -165.65 -333.4 -165.9 -333.5 -166.15 -333.5 -166.75 -333.9 -167.9 -333.4 -168.5 -333.25 -168.75 -333.0 -169.15 -333.0 -169.5 -332.9 -169.65 -332.4 -169.65 -332.4 -169.15 -332.75 -168.9 -332.5 -168.75 -331.65 -171.5 -331.5 -172.25 -332.0 -172.25 -331.4 -172.4 -331.75 -172.65 -331.25 -173.0 -331.25 -173.65 -331.5 -173.65 -331.4 -174.0 -331.15 -174.25 -331.15 -174.4 -330.9 -174.75 -330.9 -175.25 -331.15 -175.25 -330.9 -175.5 -330.65 -175.65 -330.5 -176.25 -330.65 -176.5 -330.75 -176.75 -330.65 -177.15 -330.4 -177.15 -330.25 -177.4 -330.0 -178.9 -330.15 -178.9 -329.95 -179.2 -329.9 -179.25 -329.9 -179.4 -329.4 -181.15 -329.4 -181.25 -329.15 -182.25 -328.75 -183.5 -328.5 -184.9 -329.25 -183.5 -329.65 -183.5 -329.75 -183.75 -330.5 -183.9 -330.9 -183.65 -330.75 -183.9 -330.75 -184.0 M-328.5 -191.4 L-328.75 -192.0 -328.5 -192.15 -328.25 -192.5 -328.5 -191.4 M-326.65 -194.25 L-327.25 -194.65 -327.4 -194.15 -326.65 -194.25 M-326.65 -193.5 L-327.25 -193.75 -327.4 -193.5 -326.65 -193.5 M-327.4 -190.4 L-327.75 -190.65 -327.9 -190.4 -327.4 -190.4 M-326.75 -192.65 L-327.25 -193.0 -327.4 -192.65 -326.75 -192.65 M-332.25 -171.4 L-331.9 -171.25 -331.9 -171.15 -332.15 -170.15 -332.25 -169.9 -332.25 -169.75 -332.9 -169.65 -332.9 -170.0 -332.5 -170.65 -332.25 -171.4" fill="url(#gradient100)" fill-rule="evenodd" stroke="none"/>
    <path d="M-325.65 -199.65 L-325.4 -200.65 -325.4 -199.75 -325.25 -199.4 -325.65 -199.65" fill="url(#gradient101)" fill-rule="evenodd" stroke="none"/>
    <path d="M-326.15 -199.75 L-326.0 -199.75 -326.25 -199.4 -326.15 -199.75" fill="url(#gradient102)" fill-rule="evenodd" stroke="none"/>
    <path d="M-326.4 -198.25 L-325.65 -198.15 -325.9 -196.9 -326.15 -197.15 -326.75 -198.0 -326.4 -198.25" fill="url(#gradient103)" fill-rule="evenodd" stroke="none"/>
    <path d="M-326.25 -198.75 L-326.4 -198.4 -326.4 -198.65 -326.25 -198.75" fill="url(#gradient104)" fill-rule="evenodd" stroke="none"/>
    <path d="M-327.5 -187.9 L-327.4 -188.75 -324.65 -198.9 -323.65 -198.75 -324.15 -195.5 -325.0 -192.75 -325.0 -192.4 -325.0 -192.25 -325.4 -191.4 -325.75 -190.15 -325.75 -189.75 -325.9 -189.65 -326.15 -188.5 -326.0 -188.25 -326.25 -187.4 -327.5 -187.9" fill="url(#gradient105)" fill-rule="evenodd" stroke="none"/>
    <path d="M-328.75 -192.0 L-328.75 -192.15 -328.9 -192.4 -329.15 -193.15 -329.15 -194.25 -328.75 -195.15 -328.9 -194.65 -328.9 -194.25 -329.0 -194.0 -329.0 -193.75 -328.9 -193.4 -328.9 -193.25 -328.5 -192.15 -328.75 -192.0 M-328.4 -196.65 L-328.4 -196.75 -328.25 -196.75 -328.4 -196.65" fill="url(#gradient106)" fill-rule="evenodd" stroke="none"/>
    <path d="M-327.25 -195.4 L-327.25 -195.5 -327.15 -195.5 -327.25 -195.4" fill="url(#gradient107)" fill-rule="evenodd" stroke="none"/>
    <path d="M-328.65 -190.9 L-328.5 -191.4 -328.25 -192.5 -328.15 -192.75 -328.0 -193.65 -327.9 -194.0 -327.9 -194.15 -327.5 -195.4 -327.25 -195.5 -327.25 -195.4 -327.4 -195.0 -326.9 -194.9 -327.5 -194.9 -327.65 -194.4 -327.65 -193.0 -327.9 -192.15 -328.15 -192.65 -328.4 -191.4 -328.0 -191.25 -328.5 -191.15 -329.0 -189.25 -328.25 -189.15 -328.9 -189.15 -329.25 -188.5 -330.5 -183.9 -329.25 -188.9 -328.65 -190.9 M-329.65 -183.5 L-329.25 -183.5 -328.5 -184.9 -328.75 -183.5 -329.0 -183.25 -329.15 -182.25 -329.4 -181.25 -329.4 -181.15 -329.9 -179.65 -329.9 -179.4 -329.9 -179.25 -329.95 -179.2 -330.15 -178.9 -330.0 -178.9 -330.15 -178.65 -330.15 -178.4 -330.25 -178.15 -330.4 -178.5 -330.15 -178.9 -330.15 -179.75 -329.65 -180.9 -329.65 -182.75 -329.5 -183.4 -329.65 -183.5 M-330.25 -177.4 L-330.4 -177.15 -330.65 -177.15 -330.25 -177.4 M-330.75 -176.75 L-330.65 -176.5 -330.65 -176.4 -330.5 -176.25 -330.65 -175.65 -330.9 -175.5 -331.15 -175.25 -330.9 -175.25 -330.9 -174.75 -331.15 -174.4 -331.15 -175.25 -331.0 -175.65 -330.65 -175.65 -331.0 -175.75 -330.75 -176.75 M-331.5 -173.65 L-331.25 -173.65 -331.25 -173.0 -331.75 -172.65 -331.4 -172.4 -332.0 -172.25 -331.5 -172.25 -331.65 -171.5 -331.9 -171.25 -332.25 -171.4 -332.0 -172.25 -331.75 -172.65 -331.5 -173.65 M-332.5 -168.75 L-332.75 -168.9 -332.4 -169.15 -332.4 -169.65 -332.9 -169.65 -332.25 -169.75 -332.4 -169.15 -332.5 -168.75 M-333.0 -169.5 L-333.0 -169.15 -333.15 -169.4 -333.0 -169.5 M-326.65 -193.5 L-327.4 -193.5 -327.25 -193.75 -326.65 -193.5 M-326.65 -194.25 L-327.4 -194.15 -327.25 -194.65 -326.65 -194.25 M-326.75 -192.65 L-327.4 -192.65 -327.25 -193.0 -326.75 -192.65 M-327.4 -190.4 L-327.9 -190.4 -327.75 -190.65 -327.4 -190.4" fill="url(#gradient108)" fill-rule="evenodd" stroke="none"/>
    <path d="M-210.4 -194.75 L-205.15 -173.75 -213.75 -186.4 -223.9 -199.65 -210.4 -194.75" fill="url(#gradient109)" fill-rule="evenodd" stroke="none"/>
    <path d="M-205.15 -173.75 L-198.75 -162.15 -183.0 -133.4 -181.9 -131.9 -181.0 -129.75 -170.65 -115.0 -167.25 -110.0 -179.75 -118.65 -194.25 -119.25 -213.65 -109.75 -231.75 -152.5 -243.15 -176.4 -248.4 -194.25 -248.25 -194.5 -235.65 -200.9 -223.9 -199.65 -213.75 -186.4 -205.15 -173.75" fill="url(#gradient110)" fill-rule="evenodd" stroke="none"/>
    <path d="M-325.0 -192.4 L-324.75 -192.5 -325.5 -190.15 -326.0 -188.25 -326.15 -188.5 -325.9 -189.65 -325.75 -189.75 -325.75 -190.15 -325.4 -191.4 -325.0 -192.25 -325.0 -192.4 M-324.2 -193.9 L-323.9 -194.65 -323.5 -194.75 -323.75 -194.65 -324.15 -194.0 -324.2 -193.9" fill="url(#gradient111)" fill-rule="evenodd" stroke="none"/>
    <path d="M-330.0 -186.75 L-330.0 -187.15 -329.9 -187.15 -330.0 -186.75 M-329.75 -188.15 L-329.75 -188.25 -329.65 -188.5 -329.65 -188.9 -329.5 -189.15 -329.4 -190.75 -328.65 -190.9 -329.25 -188.9 -329.75 -188.15" fill="url(#gradient112)" fill-rule="evenodd" stroke="none"/>
    <path d="M-327.4 -187.5 L-327.5 -187.9 -326.25 -187.4 -327.4 -187.5" fill="url(#gradient113)" fill-rule="evenodd" stroke="none"/>
    <path d="M-329.0 -180.5 L-327.4 -187.5 -326.25 -187.4 -328.0 -180.4 -329.0 -180.5" fill="url(#gradient114)" fill-rule="evenodd" stroke="none"/>
    <path d="M-332.9 -165.65 L-330.5 -173.4 -329.0 -180.5 -328.0 -180.4 -328.15 -179.25 -331.4 -166.4 -330.5 -166.25 -331.25 -165.25 -332.9 -165.65" fill="url(#gradient115)" fill-rule="evenodd" stroke="none"/>
    <path d="M-333.4 -165.65 L-332.9 -165.65 -333.4 -163.9 -333.75 -163.4 -333.65 -164.25 -333.65 -164.65 -333.4 -165.65" fill="url(#gradient116)" fill-rule="evenodd" stroke="none"/>
    <path d="M-333.5 -166.15 L-333.4 -165.9 -333.4 -165.65 -333.65 -164.65 -333.65 -164.25 -334.0 -163.65 -334.15 -164.0 -334.0 -164.25 -333.9 -164.75 -333.75 -164.9 -333.5 -165.75 -333.5 -166.15" fill="url(#gradient117)" fill-rule="evenodd" stroke="none"/>
    <path d="M-334.15 -164.0 L-335.0 -168.0 -334.75 -168.4 -333.9 -167.9 -333.5 -166.75 -333.5 -166.15 -333.5 -165.75 -333.75 -164.9 -333.9 -164.75 -334.0 -164.25 -334.15 -164.0" fill="url(#gradient118)" fill-rule="evenodd" stroke="none"/>
    <path d="M-334.9 -168.65 Q-339.15 -177.15 -330.9 -183.65 L-330.5 -183.9 -329.75 -183.75 -329.65 -183.5 -329.5 -183.4 -329.65 -182.75 -329.65 -180.9 -330.15 -179.75 -330.15 -178.9 -330.4 -178.5 -330.25 -178.15 -330.25 -178.0 -330.4 -177.65 -330.25 -177.4 -330.65 -177.15 -330.75 -176.75 -331.0 -175.75 -331.0 -175.65 -331.15 -175.25 -331.15 -174.4 -331.15 -174.25 -331.4 -174.0 -331.5 -173.65 -331.75 -172.65 -332.0 -172.25 -332.25 -171.4 -332.5 -170.65 -332.9 -170.0 -332.9 -169.65 -333.0 -169.5 -333.15 -169.4 -333.65 -169.0 -333.25 -168.75 -333.4 -168.5 -333.9 -167.9 -334.75 -168.4 -334.9 -168.65" fill="url(#gradient119)" fill-rule="evenodd" stroke="none"/>
    <path d="M-323.9 -141.15 L-331.9 -150.75 Q-332.5 -157.25 -335.65 -160.9 L-334.25 -163.65 -334.0 -163.65 -333.75 -163.4 -332.4 -163.0 -332.0 -163.5 -331.25 -165.25 -330.5 -166.25 -327.9 -170.25 -326.4 -173.65 -325.5 -172.5 -321.75 -164.0 -318.75 -156.0 -316.15 -150.65 -316.9 -149.25 -317.15 -148.9 -324.15 -143.75 -323.9 -141.15 M-333.0 -169.15 L-333.25 -168.75 -333.65 -169.0 -333.15 -169.4 -333.0 -169.15" fill="url(#gradient120)" fill-rule="evenodd" stroke="none"/>
    <path d="M-328.75 -183.5 L-329.15 -182.25 -329.0 -183.25 -328.75 -183.5 M-329.4 -181.15 L-329.9 -179.4 -329.9 -179.65 -329.4 -181.15 M-330.0 -178.9 L-330.25 -177.4 -330.4 -177.65 -330.25 -178.0 -330.25 -178.15 -330.15 -178.4 -330.15 -178.65 -330.0 -178.9 M-330.65 -176.5 L-330.5 -176.25 -330.65 -176.4 -330.65 -176.5 M-331.65 -171.5 L-332.5 -168.75 -332.4 -169.15 -332.25 -169.75 -332.25 -169.9 -332.15 -170.15 -331.9 -171.15 -331.9 -171.25 -331.65 -171.5 M-331.0 -175.75 L-330.65 -175.65 -331.0 -175.65 -331.0 -175.75" fill="url(#gradient121)" fill-rule="evenodd" stroke="none"/>
    <path d="M-335.0 -168.0 L-335.0 -168.5 -334.9 -168.65 -334.75 -168.4 -335.0 -168.0 M-330.9 -183.65 L-330.9 -183.75 -330.75 -183.9 -330.9 -183.65" fill="url(#gradient122)" fill-rule="evenodd" stroke="none"/>
    <path d="M-330.9 -183.75 L-330.75 -184.0 -330.75 -183.9 -330.9 -183.75" fill="url(#gradient123)" fill-rule="evenodd" stroke="none"/>
    <path d="M-330.0 -187.15 L-329.9 -187.5 -329.9 -187.15 -330.0 -187.15" fill="url(#gradient124)" fill-rule="evenodd" stroke="none"/>
    <path d="M-328.15 -179.25 L-321.5 -177.5 Q-321.65 -176.5 -326.5 -174.0 L-326.4 -173.65 -327.9 -170.25 -330.5 -166.25 -331.4 -166.4 -328.15 -179.25" fill="url(#gradient125)" fill-rule="evenodd" stroke="none"/>
    <path d="M-307.5 -165.9 L-307.5 -165.25 -307.65 -165.65 -307.5 -165.9" fill="url(#gradient126)" fill-rule="evenodd" stroke="none"/>
    <path d="M-319.15 -127.4 L-322.15 -128.9 -322.0 -129.75 -319.25 -140.9 -319.25 -141.0 -319.15 -141.25 -319.15 -141.5 -317.15 -148.9 -316.9 -149.25 -316.15 -150.65 -311.25 -159.0 -311.15 -159.25 -308.15 -164.9 -307.65 -165.65 -307.5 -165.25 -309.75 -124.9 -310.0 -123.5 -319.0 -127.4 -319.15 -127.4" fill="url(#gradient127)" fill-rule="evenodd" stroke="none"/>
    <path d="M-333.4 -163.9 L-332.9 -165.65 -331.25 -165.25 -332.0 -163.5 -333.4 -163.9" fill="url(#gradient128)" fill-rule="evenodd" stroke="none"/>
    <path d="M-333.4 -163.9 L-332.0 -163.5 -332.4 -163.0 -333.75 -163.4 -333.4 -163.9" fill="url(#gradient129)" fill-rule="evenodd" stroke="none"/>
    <path d="M-334.0 -163.65 L-333.65 -164.25 -333.75 -163.4 -334.0 -163.65" fill="url(#gradient130)" fill-rule="evenodd" stroke="none"/>
    <path d="M-334.25 -163.65 L-334.15 -164.0 -334.0 -163.65 -334.25 -163.65" fill="url(#gradient131)" fill-rule="evenodd" stroke="none"/>
    <path d="M-322.0 -129.75 L-322.25 -133.4 -323.9 -141.15 -324.15 -143.75 -317.15 -148.9 -319.15 -141.5 -319.15 -141.25 -319.25 -141.0 -319.25 -140.9 -322.0 -129.75" fill="url(#gradient132)" fill-rule="evenodd" stroke="none"/>
    <path d="M-231.65 -108.75 L-240.15 -123.5 -252.9 -141.65 -254.0 -144.4 -259.9 -159.75 -257.15 -182.9 -248.4 -194.25 -243.15 -176.4 -231.75 -152.5 -213.65 -109.75 -230.9 -118.4 -231.65 -108.75" fill="url(#gradient133)" fill-rule="evenodd" stroke="none"/>
    <path d="M-167.25 -110.0 L-161.25 -79.5 -161.5 -66.9 -166.9 -48.65 -174.15 -46.0 -186.65 -45.9 -200.5 -47.0 -195.25 -67.15 -195.25 -78.0 -213.65 -109.75 -194.25 -119.25 -179.75 -118.65 -167.25 -110.0" fill="url(#gradient134)" fill-rule="evenodd" stroke="none"/>
    <path d="M-198.75 -162.15 Q-167.9 -149.5 -170.65 -115.0 L-181.0 -129.75 -181.9 -131.9 -183.0 -133.4 -198.75 -162.15" fill="url(#gradient135)" fill-rule="evenodd" stroke="none"/>
    <path d="M-310.15 -118.15 L-313.9 -118.25 -319.15 -127.4 -319.0 -127.4 -310.0 -123.5 -309.9 -123.5 -310.15 -118.15" fill="url(#gradient136)" fill-rule="evenodd" stroke="none"/>
    <path d="M-254.0 -144.4 L-260.25 -144.75 -260.5 -145.65 -259.9 -159.75 -254.0 -144.4" fill="url(#gradient137)" fill-rule="evenodd" stroke="none"/>
    <path d="M-231.5 -108.5 L-231.65 -108.75 -230.9 -118.4 -213.65 -109.75 -231.5 -108.5" fill="url(#gradient138)" fill-rule="evenodd" stroke="none"/>
    <path d="M-228.15 -89.65 L-231.5 -108.5 -213.65 -109.75 -195.25 -78.0 -195.25 -67.15 -200.5 -47.0 -208.9 -29.65 -208.75 -29.25 -209.15 -29.15 -218.0 -13.4 -224.75 -33.0 -229.75 -58.9 -229.75 -59.65 -224.9 -71.4 -226.5 -80.9 -226.65 -81.4 -228.15 -89.65" fill="url(#gradient139)" fill-rule="evenodd" stroke="none"/>
    <path d="M-243.0 -0.9 L-288.75 -0.9 -288.75 -8.15 -286.15 -30.65 -290.75 -92.0 -243.5 -89.9 -228.15 -89.65 -226.65 -81.4 -226.5 -80.9 -224.9 -71.4 -229.75 -59.65 -229.75 -58.9 -224.75 -33.0 -237.65 -13.75 -237.9 -13.5 -239.4 -11.25 -241.75 -4.65 -241.75 -4.5 -243.0 -0.9" fill="url(#gradient140)" fill-rule="evenodd" stroke="none"/>
    <path d="M-224.15 -0.9 L-243.0 -0.9 -241.75 -4.5 -241.75 -4.65 -239.4 -11.25 -237.9 -13.5 -237.65 -13.75 -224.75 -33.0 -218.0 -13.4 -224.15 -0.9" fill="url(#gradient141)" fill-rule="evenodd" stroke="none"/>
    <path d="M-166.9 -48.65 L-179.0 -28.25 -189.15 -12.65 -195.5 -0.9 -224.15 -0.9 -218.0 -13.4 -209.15 -29.15 -208.75 -29.25 -208.9 -29.65 -200.5 -47.0 -186.65 -45.9 -174.15 -46.0 -166.9 -48.65" fill="url(#gradient142)" fill-rule="evenodd" stroke="none"/>
    <path d="M-235.15 -219.65 L-235.0 -218.25 -236.5 -218.4 -236.75 -218.5 -237.5 -218.5 -251.65 -219.5 -251.9 -219.65 -273.4 -220.4 -277.15 -220.25 -276.4 -221.25 -253.65 -221.0 -247.75 -220.5 -247.0 -220.5 -239.65 -220.0 -239.25 -219.9 -235.15 -219.65 M-280.65 -221.75 L-287.65 -221.15 -288.4 -221.15 -288.5 -221.65 -288.75 -222.0 -289.0 -222.9 -285.25 -224.5 -280.65 -221.75" fill="#9b0000" fill-opacity="0.9098039" fill-rule="evenodd" stroke="none"/>
    <path d="M-235.0 -218.25 L-235.15 -219.65 -228.65 -219.15 -210.4 -214.75 -199.15 -200.9 -195.0 -175.9 -172.4 -145.25 Q-170.0 -142.9 -170.65 -141.25 L-171.25 -134.5 -172.15 -134.25 -172.5 -135.25 -172.65 -136.25 -173.75 -138.9 -174.9 -143.5 -198.65 -175.9 -202.5 -199.9 -213.4 -214.25 -231.0 -218.0 -235.0 -218.25 M-276.4 -221.25 L-277.15 -220.25 -281.75 -220.15 -284.75 -218.75 -280.4 -216.75 -281.75 -215.4 -284.75 -216.4 -287.0 -217.9 -288.4 -221.15 -287.65 -221.15 -280.65 -221.75 -279.65 -221.15 -276.4 -221.25" fill="#ab0000" fill-opacity="0.9098039" fill-rule="evenodd" stroke="none"/>
    <path d="M-171.25 -134.5 L-170.65 -141.25 -168.75 -119.9 -171.0 -132.25 -171.25 -134.5 M-169.0 -119.25 L-168.75 -119.5 -168.65 -119.0 -169.0 -119.25" fill="#c40000" fill-rule="evenodd" stroke="none"/>
    <path d="M-172.15 -134.25 L-171.25 -134.5 -171.0 -132.25 -171.25 -131.5 -172.15 -134.25" fill="#e90000" fill-rule="evenodd" stroke="none"/>
    <path d="M-291.25 -93.9 L-290.65 -94.15 -288.0 -94.25 -287.75 -94.5 -264.9 -96.4 -258.65 -98.0 -258.4 -98.5 -240.15 -104.65 -232.15 -109.5 -231.65 -108.75 -231.5 -108.25 -231.25 -105.65 -228.4 -91.15 -241.25 -91.4 -242.65 -91.65 -262.0 -92.5 -262.15 -92.25 -263.0 -92.5 -291.25 -93.9 M-170.9 -128.9 L-171.0 -127.9 -170.9 -126.75 -171.15 -124.15 -170.75 -119.4 -170.75 -118.0 -170.9 -116.75 -170.65 -116.5 -170.9 -115.4 -181.25 -130.25 -181.65 -130.9 -181.75 -131.15 -181.75 -131.25 -178.15 -132.25 -177.75 -132.5 -172.75 -134.0 -172.15 -134.25 -171.25 -131.5 -170.9 -128.9" fill="#da0000" fill-opacity="0.9098039" fill-rule="evenodd" stroke="none"/>
    <path d="M-170.65 -116.5 L-170.25 -117.5 -170.4 -118.15 -170.15 -119.4 -170.15 -122.9 -169.0 -119.25 -168.75 -118.25 -168.5 -116.75 -168.5 -116.5 -168.4 -116.25 -168.4 -115.0 -169.9 -113.9 -170.9 -115.4 -170.65 -116.5" fill="#e30000" fill-opacity="0.9098039" fill-rule="evenodd" stroke="none"/>
    <path d="M-170.9 -128.9 L-170.5 -127.9 -170.65 -126.9 -170.15 -122.9 -170.15 -119.4 -170.4 -118.15 -170.25 -117.5 -170.65 -116.5 -170.9 -116.75 -170.75 -118.0 -170.75 -119.4 -171.15 -124.15 -170.9 -126.75 -171.0 -127.9 -170.9 -128.9" fill="#ce0000" fill-opacity="0.9098039" fill-rule="evenodd" stroke="none"/>
    <path d="M-171.25 -131.5 L-171.0 -132.25 -168.75 -119.9 -168.75 -119.5 -169.0 -119.25 -170.15 -122.9 -170.65 -126.9 -170.5 -127.9 -170.9 -128.9 -171.25 -131.5 M-168.75 -118.25 L-169.0 -119.25 -168.65 -119.0 -168.75 -118.25" fill="#dd0000" fill-rule="evenodd" stroke="none"/>
    <path d="M-168.4 -115.0 L-168.25 -114.5 -168.9 -112.4 -169.9 -113.9 -168.4 -115.0" fill="#df0000" fill-rule="evenodd" stroke="none"/>
    <path d="M-228.4 -91.15 L-227.25 -84.5 -227.15 -84.5 -226.65 -81.4 -226.65 -80.9 -224.9 -71.65 -229.75 -59.4 -229.75 -59.0 -227.65 -47.15 -227.5 -47.15 -224.9 -33.5 -224.75 -33.0 -239.4 -10.9 -239.75 -10.15 -241.75 -4.65 -241.75 -4.25 -242.0 -3.9 -243.0 -0.9 -289.9 -0.9 -289.15 -6.9 -289.25 -7.5 -289.0 -8.15 -289.0 -8.65 -288.9 -8.9 -289.15 -9.0 -287.15 -24.5 -287.65 -32.25 -287.9 -32.9 -288.15 -39.9 -288.75 -44.65 -288.9 -45.15 -292.5 -92.4 -292.75 -93.75 -291.9 -94.0 -291.25 -93.9 -263.0 -92.5 -262.15 -92.25 -262.0 -92.5 -242.65 -91.65 -241.25 -91.4 -228.4 -91.15" fill="#dd0000" fill-opacity="0.9098039" fill-rule="evenodd" stroke="none"/>
    <path d="M-317.9 -101.25 L-310.9 -103.75 -311.0 -101.5 -317.9 -101.25" fill="#f00000" fill-opacity="0.9098039" fill-rule="evenodd" stroke="none"/>
    <path d="M-318.0 -100.0 L-317.9 -101.25 -311.0 -101.5 -311.4 -55.5 -311.5 -53.4 -311.9 -53.25 -312.15 -53.65 -312.15 -54.25 -314.0 -80.75 -316.25 -88.4 -316.25 -88.5 -316.4 -88.9 -317.5 -96.75 -317.65 -97.0 -317.65 -97.75 -317.75 -98.0 -317.75 -98.9 -317.9 -99.15 -317.9 -100.0 -318.0 -100.0" fill="#f30000" fill-opacity="0.9098039" fill-rule="evenodd" stroke="none"/>
    <path d="M-289.9 -0.9 L-314.5 -0.9 -313.5 -21.65 -313.25 -25.0 -313.0 -28.15 -313.0 -28.65 -312.9 -29.25 -312.0 -44.15 -311.75 -42.65 -311.25 -36.4 -311.15 -33.25 -311.0 -32.65 -311.0 -34.65 -311.4 -46.0 -311.75 -48.15 -311.75 -50.15 -311.4 -53.15 -311.5 -53.4 -311.4 -55.5 -309.4 -62.4 -309.4 -63.9 -306.4 -76.15 -305.65 -77.15 -305.4 -77.65 -301.75 -81.15 -301.5 -81.65 -301.15 -81.75 -301.0 -82.25 -299.75 -83.4 -299.4 -84.25 -297.5 -86.65 -297.5 -87.15 -292.75 -93.75 -292.5 -92.4 -288.9 -45.15 -288.75 -44.65 -288.15 -39.9 -287.9 -32.9 -287.65 -32.25 -287.15 -24.5 -289.15 -9.0 -288.9 -8.9 -289.0 -8.65 -289.0 -8.15 -289.25 -7.5 -289.15 -6.9 -289.9 -0.9 M-310.65 -30.25 L-310.65 -31.4 -310.75 -30.65 -310.65 -30.25" fill="#9e0000" fill-opacity="0.9098039" fill-rule="evenodd" stroke="none"/>
    <path d="M-314.5 -0.9 L-320.9 -0.9 -317.75 -53.0 -318.0 -100.0 -317.9 -100.0 -317.9 -99.15 -317.75 -98.9 -317.75 -98.0 -317.65 -97.75 -317.65 -97.0 -317.5 -96.75 -316.4 -88.9 -316.25 -88.5 -316.25 -88.4 -312.15 -54.25 -312.15 -53.65 -311.9 -51.75 -312.15 -51.25 -312.4 -50.5 -311.9 -45.65 -311.9 -45.0 -312.0 -44.15 -312.9 -29.25 -313.0 -28.65 -313.0 -28.15 -313.25 -25.0 -313.65 -23.4 -313.5 -21.65 -314.5 -0.9" fill="#b30000" fill-rule="evenodd" stroke="none"/>
    <path d="M-316.25 -88.4 L-314.0 -80.75 -312.15 -54.25 -316.25 -88.4 M-312.15 -53.65 L-311.9 -53.25 -311.5 -53.4 -311.4 -53.15 -311.75 -50.15 -311.9 -50.5 -312.15 -51.25 -311.9 -51.75 -312.15 -53.65 M-313.25 -25.0 L-313.5 -21.65 -313.65 -23.4 -313.25 -25.0" fill="#b40000" fill-rule="evenodd" stroke="none"/>
    <path d="M-311.75 -50.15 L-311.75 -48.15 -311.4 -46.0 -311.0 -34.65 -311.25 -36.4 -311.75 -42.65 -311.9 -45.0 -311.9 -45.65 -312.4 -50.5 -311.9 -50.5 -311.75 -50.15 M-310.65 -30.25 L-310.75 -30.65 -310.65 -31.4 -310.65 -30.25" fill="#ad0000" fill-rule="evenodd" stroke="none"/>
    <path d="M-312.4 -50.5 L-312.15 -51.25 -311.9 -50.5 -312.4 -50.5" fill="#ae0000" fill-rule="evenodd" stroke="none"/>
    <path d="M-311.0 -34.65 L-311.0 -32.65 -311.15 -33.25 -311.25 -36.4 -311.0 -34.65 M-311.75 -42.65 L-312.0 -44.15 -311.9 -45.0 -311.75 -42.65" fill="#ab0000" fill-rule="evenodd" stroke="none"/>
  </g>
  <defs>
    <radialGradient cx="0" cy="0" gradientTransform="matrix(0.0264, 0.0, 0.0, 0.0264, -148.15, -285.65)" gradientUnits="userSpaceOnUse" id="gradient0" r="819.2" spreadMethod="pad">
      <stop offset="0.0" stop-color="#494949"/>
      <stop offset="1.0" stop-color="#2b2b2b"/>
    </radialGradient>
    <radialGradient cx="0" cy="0" gradientTransform="matrix(0.1466, 0.0, 0.0, 0.1466, -197.95, -238.25)" gradientUnits="userSpaceOnUse" id="gradient1" r="819.2" spreadMethod="pad">
      <stop offset="0.0" stop-color="#787878"/>
      <stop offset="1.0" stop-color="#000000"/>
    </radialGradient>
    <radialGradient cx="0" cy="0" gradientTransform="matrix(0.2569, 0.0, 0.0, 0.2569, -149.4, -293.7)" gradientUnits="userSpaceOnUse" id="gradient2" r="819.2" spreadMethod="pad">
      <stop offset="0.0" stop-color="#404040"/>
      <stop offset="1.0" stop-color="#1b1b1b"/>
    </radialGradient>
    <radialGradient cx="0" cy="0" gradientTransform="matrix(0.1129, 0.0, 0.0, 0.1129, -347.05, -273.0)" gradientUnits="userSpaceOnUse" id="gradient3" r="819.2" spreadMethod="pad">
      <stop offset="0.0" stop-color="#555555"/>
      <stop offset="1.0" stop-color="#181818"/>
    </radialGradient>
    <radialGradient cx="0" cy="0" gradientTransform="matrix(0.0176, 0.0, 0.0, 0.0176, -182.2, -253.15)" gradientUnits="userSpaceOnUse" id="gradient4" r="819.2" spreadMethod="pad">
      <stop offset="0.0" stop-color="#e88d8d"/>
      <stop offset="1.0" stop-color="#8b4646"/>
    </radialGradient>
    <radialGradient cx="0" cy="0" gradientTransform="matrix(0.0163, 0.0, 0.0, 0.0163, -194.4, -247.25)" gradientUnits="userSpaceOnUse" id="gradient5" r="819.2" spreadMethod="pad">
      <stop offset="0.0" stop-color="#ff5252"/>
      <stop offset="1.0" stop-color="#ff4b4b"/>
    </radialGradient>
    <radialGradient cx="0" cy="0" gradientTransform="matrix(0.0172, 0.0, 0.0, 0.0172, -194.6, -243.5)" gradientUnits="userSpaceOnUse" id="gradient6" r="819.2" spreadMethod="pad">
      <stop offset="0.0" stop-color="#ff3030"/>
      <stop offset="1.0" stop-color="#ff2b2b"/>
    </radialGradient>
    <radialGradient cx="0" cy="0" gradientTransform="matrix(0.0182, 0.0, 0.0, 0.0182, -182.85, -251.75)" gradientUnits="userSpaceOnUse" id="gradient7" r="819.2" spreadMethod="pad">
      <stop offset="0.0" stop-color="#ef9595"/>
      <stop offset="1.0" stop-color="#771010"/>
    </radialGradient>
    <radialGradient cx="0" cy="0" gradientTransform="matrix(0.0148, 0.0, 0.0, 0.0148, -325.1, -224.95)" gradientUnits="userSpaceOnUse" id="gradient8" r="819.2" spreadMethod="pad">
      <stop offset="0.0" stop-color="#303030"/>
      <stop offset="1.0" stop-color="#212121"/>
    </radialGradient>
    <radialGradient cx="0" cy="0" gradientTransform="matrix(0.0254, 0.0, 0.0, 0.0254, -325.9, -224.6)" gradientUnits="userSpaceOnUse" id="gradient9" r="819.2" spreadMethod="pad">
      <stop offset="0.0" stop-color="#111111"/>
      <stop offset="1.0" stop-color="#111111"/>
    </radialGradient>
    <radialGradient cx="0" cy="0" gradientTransform="matrix(0.009, 0.0, 0.0, 0.009, -327.15, -220.25)" gradientUnits="userSpaceOnUse" id="gradient10" r="819.2" spreadMethod="pad">
      <stop offset="0.0" stop-color="#b9b9b9"/>
      <stop offset="1.0" stop-color="#b8b8b8"/>
    </radialGradient>
    <radialGradient cx="0" cy="0" gradientTransform="matrix(0.0067, 0.0, 0.0, 0.0067, -327.8, -217.1)" gradientUnits="userSpaceOnUse" id="gradient11" r="819.2" spreadMethod="pad">
      <stop offset="0.0" stop-color="#808080"/>
      <stop offset="1.0" stop-color="#7f7f7f"/>
    </radialGradient>
    <radialGradient cx="0" cy="0" gradientTransform="matrix(0.0147, 0.0, 0.0, 0.0147, -316.65, -209.85)" gradientUnits="userSpaceOnUse" id="gradient12" r="819.2" spreadMethod="pad">
      <stop offset="0.0" stop-color="#393939"/>
      <stop offset="1.0" stop-color="#383838"/>
    </radialGradient>
    <radialGradient cx="0" cy="0" gradientTransform="matrix(0.0429, 0.0, 0.0, 0.0429, -276.35, -217.6)" gradientUnits="userSpaceOnUse" id="gradient13" r="819.2" spreadMethod="pad">
      <stop offset="0.0" stop-color="#818181"/>
      <stop offset="1.0" stop-color="#0e0e0e"/>
    </radialGradient>
    <radialGradient cx="0" cy="0" gradientTransform="matrix(0.0165, 0.0, 0.0, 0.0165, -242.45, -226.85)" gradientUnits="userSpaceOnUse" id="gradient14" r="819.2" spreadMethod="pad">
      <stop offset="0.0" stop-color="#1a1a1a"/>
      <stop offset="1.0" stop-color="#101010"/>
    </radialGradient>
    <radialGradient cx="0" cy="0" gradientTransform="matrix(0.045, 0.0, 0.0, 0.045, -243.15, -222.5)" gradientUnits="userSpaceOnUse" id="gradient15" r="819.2" spreadMethod="pad">
      <stop offset="0.0" stop-color="#030303"/>
      <stop offset="1.0" stop-color="#000000"/>
    </radialGradient>
    <radialGradient cx="0" cy="0" gradientTransform="matrix(0.0555, 0.0, 0.0, 0.0555, -266.45, -211.6)" gradientUnits="userSpaceOnUse" id="gradient16" r="819.2" spreadMethod="pad">
      <stop offset="0.0" stop-color="#3c3c3c"/>
      <stop offset="1.0" stop-color="#000000"/>
    </radialGradient>
    <radialGradient cx="0" cy="0" gradientTransform="matrix(0.04, 0.0, 0.0, 0.04, -235.4, -201.0)" gradientUnits="userSpaceOnUse" id="gradient17" r="819.2" spreadMethod="pad">
      <stop offset="0.0" stop-color="#444444"/>
      <stop offset="1.0" stop-color="#202020"/>
    </radialGradient>
    <radialGradient cx="0" cy="0" gradientTransform="matrix(0.164, 0.0, 0.0, 0.164, -225.25, -89.7)" gradientUnits="userSpaceOnUse" id="gradient18" r="819.2" spreadMethod="pad">
      <stop offset="0.0" stop-color="#626262"/>
      <stop offset="1.0" stop-color="#141414"/>
    </radialGradient>
    <radialGradient cx="0" cy="0" gradientTransform="matrix(0.1413, 0.0, 0.0, 0.1413, -294.35, -207.8)" gradientUnits="userSpaceOnUse" id="gradient19" r="819.2" spreadMethod="pad">
      <stop offset="0.0" stop-color="#5c5c5c"/>
      <stop offset="1.0" stop-color="#000000"/>
    </radialGradient>
    <radialGradient cx="0" cy="0" gradientTransform="matrix(0.0288, 0.0, 0.0, 0.0288, -280.15, -216.35)" gradientUnits="userSpaceOnUse" id="gradient20" r="819.2" spreadMethod="pad">
      <stop offset="0.0" stop-color="#6e6e6e"/>
      <stop offset="1.0" stop-color="#444444"/>
    </radialGradient>
    <radialGradient cx="0" cy="0" gradientTransform="matrix(0.2543, 0.0, 0.0, 0.2543, -310.0, -1.0)" gradientUnits="userSpaceOnUse" id="gradient21" r="819.2" spreadMethod="pad">
      <stop offset="0.0" stop-color="#535353"/>
      <stop offset="1.0" stop-color="#000000"/>
    </radialGradient>
    <radialGradient cx="0" cy="0" gradientTransform="matrix(0.0153, 0.0, 0.0, 0.0153, -326.55, -218.4)" gradientUnits="userSpaceOnUse" id="gradient22" r="819.2" spreadMethod="pad">
      <stop offset="0.0" stop-color="#050505"/>
      <stop offset="1.0" stop-color="#050505"/>
    </radialGradient>
    <radialGradient cx="0" cy="0" gradientTransform="matrix(0.0153, 0.0, 0.0, 0.0153, -326.6, -218.25)" gradientUnits="userSpaceOnUse" id="gradient23" r="819.2" spreadMethod="pad">
      <stop offset="0.0" stop-color="#171717"/>
      <stop offset="1.0" stop-color="#171717"/>
    </radialGradient>
    <radialGradient cx="0" cy="0" gradientTransform="matrix(0.0167, 0.0, 0.0, 0.0167, -316.05, -209.55)" gradientUnits="userSpaceOnUse" id="gradient24" r="819.2" spreadMethod="pad">
      <stop offset="0.0" stop-color="#525252"/>
      <stop offset="1.0" stop-color="#515151"/>
    </radialGradient>
    <radialGradient cx="0" cy="0" gradientTransform="matrix(0.0111, 0.0, 0.0, 0.0111, -326.6, -218.25)" gradientUnits="userSpaceOnUse" id="gradient25" r="819.2" spreadMethod="pad">
      <stop offset="0.0" stop-color="#dadada"/>
      <stop offset="1.0" stop-color="#d9d9d9"/>
    </radialGradient>
    <radialGradient cx="0" cy="0" gradientTransform="matrix(0.005, 0.0, 0.0, 0.005, -324.75, -214.7)" gradientUnits="userSpaceOnUse" id="gradient26" r="819.2" spreadMethod="pad">
      <stop offset="0.0" stop-color="#5d5d5d"/>
      <stop offset="1.0" stop-color="#5d5d5d"/>
    </radialGradient>
    <radialGradient cx="0" cy="0" gradientTransform="matrix(0.0099, 0.0, 0.0, 0.0099, -280.15, -216.35)" gradientUnits="userSpaceOnUse" id="gradient27" r="819.2" spreadMethod="pad">
      <stop offset="0.0" stop-color="#6e6e6e"/>
      <stop offset="1.0" stop-color="#323232"/>
    </radialGradient>
    <radialGradient cx="0" cy="0" gradientTransform="matrix(0.0155, 0.0, 0.0, 0.0155, -326.95, -216.4)" gradientUnits="userSpaceOnUse" id="gradient28" r="819.2" spreadMethod="pad">
      <stop offset="0.0" stop-color="#515151"/>
      <stop offset="1.0" stop-color="#505050"/>
    </radialGradient>
    <radialGradient cx="0" cy="0" gradientTransform="matrix(0.0413, 0.0, 0.0, 0.0413, -327.2, -199.6)" gradientUnits="userSpaceOnUse" id="gradient29" r="819.2" spreadMethod="pad">
      <stop offset="0.0" stop-color="#555555"/>
      <stop offset="1.0" stop-color="#545454"/>
    </radialGradient>
    <radialGradient cx="0" cy="0" gradientTransform="matrix(0.0187, 0.0, 0.0, 0.0187, -321.85, -216.2)" gradientUnits="userSpaceOnUse" id="gradient30" r="819.2" spreadMethod="pad">
      <stop offset="0.0" stop-color="#060606"/>
      <stop offset="1.0" stop-color="#060606"/>
    </radialGradient>
    <radialGradient cx="0" cy="0" gradientTransform="matrix(0.0075, 0.0, 0.0, 0.0075, -323.75, -210.35)" gradientUnits="userSpaceOnUse" id="gradient31" r="819.2" spreadMethod="pad">
      <stop offset="0.0" stop-color="#676767"/>
      <stop offset="1.0" stop-color="#676767"/>
    </radialGradient>
    <radialGradient cx="0" cy="0" gradientTransform="matrix(0.0183, 0.0, 0.0, 0.0183, -321.5, -216.25)" gradientUnits="userSpaceOnUse" id="gradient32" r="819.2" spreadMethod="pad">
      <stop offset="0.0" stop-color="#040404"/>
      <stop offset="1.0" stop-color="#040404"/>
    </radialGradient>
    <radialGradient cx="0" cy="0" gradientTransform="matrix(0.0172, 0.0, 0.0, 0.0172, -321.2, -214.45)" gradientUnits="userSpaceOnUse" id="gradient33" r="819.2" spreadMethod="pad">
      <stop offset="0.0" stop-color="#202020"/>
      <stop offset="1.0" stop-color="#202020"/>
    </radialGradient>
    <radialGradient cx="0" cy="0" gradientTransform="matrix(0.0237, 0.0, 0.0, 0.0237, -321.2, -214.15)" gradientUnits="userSpaceOnUse" id="gradient34" r="819.2" spreadMethod="pad">
      <stop offset="0.0" stop-color="#1e1e1e"/>
      <stop offset="1.0" stop-color="#1e1e1e"/>
    </radialGradient>
    <radialGradient cx="0" cy="0" gradientTransform="matrix(0.0173, 0.0, 0.0, 0.0173, -321.1, -213.7)" gradientUnits="userSpaceOnUse" id="gradient35" r="819.2" spreadMethod="pad">
      <stop offset="0.0" stop-color="#1e1e1e"/>
      <stop offset="1.0" stop-color="#1e1e1e"/>
    </radialGradient>
    <radialGradient cx="0" cy="0" gradientTransform="matrix(0.0174, 0.0, 0.0, 0.0174, -320.8, -214.15)" gradientUnits="userSpaceOnUse" id="gradient36" r="819.2" spreadMethod="pad">
      <stop offset="0.0" stop-color="#040404"/>
      <stop offset="1.0" stop-color="#040404"/>
    </radialGradient>
    <radialGradient cx="0" cy="0" gradientTransform="matrix(0.0116, 0.0, 0.0, 0.0116, -320.2, -207.7)" gradientUnits="userSpaceOnUse" id="gradient37" r="819.2" spreadMethod="pad">
      <stop offset="0.0" stop-color="#555555"/>
      <stop offset="1.0" stop-color="#555555"/>
    </radialGradient>
    <radialGradient cx="0" cy="0" gradientTransform="matrix(0.0173, 0.0, 0.0, 0.0173, -319.3, -213.95)" gradientUnits="userSpaceOnUse" id="gradient38" r="819.2" spreadMethod="pad">
      <stop offset="0.0" stop-color="#040404"/>
      <stop offset="1.0" stop-color="#040404"/>
    </radialGradient>
    <radialGradient cx="0" cy="0" gradientTransform="matrix(0.0168, 0.0, 0.0, 0.0168, -320.4, -213.7)" gradientUnits="userSpaceOnUse" id="gradient39" r="819.2" spreadMethod="pad">
      <stop offset="0.0" stop-color="#0a0a0a"/>
      <stop offset="1.0" stop-color="#0a0a0a"/>
    </radialGradient>
    <radialGradient cx="0" cy="0" gradientTransform="matrix(0.0168, 0.0, 0.0, 0.0168, -320.45, -213.05)" gradientUnits="userSpaceOnUse" id="gradient40" r="819.2" spreadMethod="pad">
      <stop offset="0.0" stop-color="#040404"/>
      <stop offset="1.0" stop-color="#040404"/>
    </radialGradient>
    <radialGradient cx="0" cy="0" gradientTransform="matrix(0.0147, 0.0, 0.0, 0.0147, -317.05, -209.0)" gradientUnits="userSpaceOnUse" id="gradient41" r="819.2" spreadMethod="pad">
      <stop offset="0.0" stop-color="#4c4c4c"/>
      <stop offset="1.0" stop-color="#3e3e3e"/>
    </radialGradient>
    <radialGradient cx="0" cy="0" gradientTransform="matrix(0.0146, 0.0, 0.0, 0.0146, -317.1, -208.85)" gradientUnits="userSpaceOnUse" id="gradient42" r="819.2" spreadMethod="pad">
      <stop offset="0.0" stop-color="#252525"/>
      <stop offset="1.0" stop-color="#242424"/>
    </radialGradient>
    <radialGradient cx="0" cy="0" gradientTransform="matrix(0.0174, 0.0, 0.0, 0.0174, -322.65, -206.6)" gradientUnits="userSpaceOnUse" id="gradient43" r="819.2" spreadMethod="pad">
      <stop offset="0.0" stop-color="#212121"/>
      <stop offset="1.0" stop-color="#1b1b1b"/>
    </radialGradient>
    <radialGradient cx="0" cy="0" gradientTransform="matrix(5.0E-4, 0.0, 0.0, 5.0E-4, -322.8, -206.55)" gradientUnits="userSpaceOnUse" id="gradient44" r="819.2" spreadMethod="pad">
      <stop offset="0.0" stop-color="#3b3b3b"/>
      <stop offset="1.0" stop-color="#3b3b3b"/>
    </radialGradient>
    <radialGradient cx="0" cy="0" gradientTransform="matrix(0.0173, 0.0, 0.0, 0.0173, -319.15, -213.7)" gradientUnits="userSpaceOnUse" id="gradient45" r="819.2" spreadMethod="pad">
      <stop offset="0.0" stop-color="#262626"/>
      <stop offset="1.0" stop-color="#262626"/>
    </radialGradient>
    <radialGradient cx="0" cy="0" gradientTransform="matrix(0.0181, 0.0, 0.0, 0.0181, -319.65, -211.55)" gradientUnits="userSpaceOnUse" id="gradient46" r="819.2" spreadMethod="pad">
      <stop offset="0.0" stop-color="#303030"/>
      <stop offset="1.0" stop-color="#303030"/>
    </radialGradient>
    <radialGradient cx="0" cy="0" gradientTransform="matrix(0.0177, 0.0, 0.0, 0.0177, -306.25, -206.9)" gradientUnits="userSpaceOnUse" id="gradient47" r="819.2" spreadMethod="pad">
      <stop offset="0.0" stop-color="#828282"/>
      <stop offset="1.0" stop-color="#5d5d5d"/>
    </radialGradient>
    <radialGradient cx="0" cy="0" gradientTransform="matrix(0.0154, 0.0, 0.0, 0.0154, -320.15, -210.8)" gradientUnits="userSpaceOnUse" id="gradient48" r="819.2" spreadMethod="pad">
      <stop offset="0.0" stop-color="#d9d9d9"/>
      <stop offset="1.0" stop-color="#d8d8d8"/>
    </radialGradient>
    <radialGradient cx="0" cy="0" gradientTransform="matrix(0.0214, 0.0, 0.0, 0.0214, -320.65, -207.95)" gradientUnits="userSpaceOnUse" id="gradient49" r="819.2" spreadMethod="pad">
      <stop offset="0.0" stop-color="#212121"/>
      <stop offset="1.0" stop-color="#202020"/>
    </radialGradient>
    <radialGradient cx="0" cy="0" gradientTransform="matrix(0.0177, 0.0, 0.0, 0.0177, -320.65, -208.15)" gradientUnits="userSpaceOnUse" id="gradient50" r="819.2" spreadMethod="pad">
      <stop offset="0.0" stop-color="#222222"/>
      <stop offset="1.0" stop-color="#222222"/>
    </radialGradient>
    <radialGradient cx="0" cy="0" gradientTransform="matrix(0.0164, 0.0, 0.0, 0.0164, -323.65, -210.1)" gradientUnits="userSpaceOnUse" id="gradient51" r="819.2" spreadMethod="pad">
      <stop offset="0.0" stop-color="#2a2a2a"/>
      <stop offset="1.0" stop-color="#1d1d1d"/>
    </radialGradient>
    <radialGradient cx="0" cy="0" gradientTransform="matrix(0.0191, 0.0, 0.0, 0.0191, -323.6, -209.95)" gradientUnits="userSpaceOnUse" id="gradient52" r="819.2" spreadMethod="pad">
      <stop offset="0.0" stop-color="#1f1f1f"/>
      <stop offset="1.0" stop-color="#1f1f1f"/>
    </radialGradient>
    <radialGradient cx="0" cy="0" gradientTransform="matrix(0.0187, 0.0, 0.0, 0.0187, -310.0, -205.85)" gradientUnits="userSpaceOnUse" id="gradient53" r="819.2" spreadMethod="pad">
      <stop offset="0.0" stop-color="#1f1f1f"/>
      <stop offset="1.0" stop-color="#1e1e1e"/>
    </radialGradient>
    <radialGradient cx="0" cy="0" gradientTransform="matrix(0.0163, 0.0, 0.0, 0.0163, -324.1, -209.7)" gradientUnits="userSpaceOnUse" id="gradient54" r="819.2" spreadMethod="pad">
      <stop offset="0.0" stop-color="#040404"/>
      <stop offset="1.0" stop-color="#040404"/>
    </radialGradient>
    <radialGradient cx="0" cy="0" gradientTransform="matrix(0.0188, 0.0, 0.0, 0.0188, -309.8, -205.65)" gradientUnits="userSpaceOnUse" id="gradient55" r="819.2" spreadMethod="pad">
      <stop offset="0.0" stop-color="#1f1f1f"/>
      <stop offset="1.0" stop-color="#1e1e1e"/>
    </radialGradient>
    <radialGradient cx="0" cy="0" gradientTransform="matrix(0.0125, 0.0, 0.0, 0.0125, -327.4, -200.2)" gradientUnits="userSpaceOnUse" id="gradient56" r="819.2" spreadMethod="pad">
      <stop offset="0.0" stop-color="#606060"/>
      <stop offset="1.0" stop-color="#606060"/>
    </radialGradient>
    <radialGradient cx="0" cy="0" gradientTransform="matrix(0.0188, 0.0, 0.0, 0.0188, -309.65, -205.35)" gradientUnits="userSpaceOnUse" id="gradient57" r="819.2" spreadMethod="pad">
      <stop offset="0.0" stop-color="#1f1f1f"/>
      <stop offset="1.0" stop-color="#1e1e1e"/>
    </radialGradient>
    <radialGradient cx="0" cy="0" gradientTransform="matrix(0.0193, 0.0, 0.0, 0.0193, -311.1, -198.45)" gradientUnits="userSpaceOnUse" id="gradient58" r="819.2" spreadMethod="pad">
      <stop offset="0.0" stop-color="#1f1f1f"/>
      <stop offset="1.0" stop-color="#1e1e1e"/>
    </radialGradient>
    <radialGradient cx="0" cy="0" gradientTransform="matrix(0.0085, 0.0, 0.0, 0.0085, -322.9, -208.6)" gradientUnits="userSpaceOnUse" id="gradient59" r="819.2" spreadMethod="pad">
      <stop offset="0.0" stop-color="#3c3c3c"/>
      <stop offset="1.0" stop-color="#3c3c3c"/>
    </radialGradient>
    <radialGradient cx="0" cy="0" gradientTransform="matrix(0.0189, 0.0, 0.0, 0.0189, -309.25, -204.7)" gradientUnits="userSpaceOnUse" id="gradient60" r="819.2" spreadMethod="pad">
      <stop offset="0.0" stop-color="#1f1f1f"/>
      <stop offset="1.0" stop-color="#1e1e1e"/>
    </radialGradient>
    <radialGradient cx="0" cy="0" gradientTransform="matrix(0.0172, 0.0, 0.0, 0.0172, -322.9, -208.6)" gradientUnits="userSpaceOnUse" id="gradient61" r="819.2" spreadMethod="pad">
      <stop offset="0.0" stop-color="#020202"/>
      <stop offset="1.0" stop-color="#020202"/>
    </radialGradient>
    <radialGradient cx="0" cy="0" gradientTransform="matrix(0.0179, 0.0, 0.0, 0.0179, -320.2, -207.7)" gradientUnits="userSpaceOnUse" id="gradient62" r="819.2" spreadMethod="pad">
      <stop offset="0.0" stop-color="#040404"/>
      <stop offset="1.0" stop-color="#040404"/>
    </radialGradient>
    <radialGradient cx="0" cy="0" gradientTransform="matrix(0.0178, 0.0, 0.0, 0.0178, -320.25, -207.9)" gradientUnits="userSpaceOnUse" id="gradient63" r="819.2" spreadMethod="pad">
      <stop offset="0.0" stop-color="#171717"/>
      <stop offset="1.0" stop-color="#171717"/>
    </radialGradient>
    <radialGradient cx="0" cy="0" gradientTransform="matrix(0.0076, 0.0, 0.0, 0.0076, -320.25, -207.9)" gradientUnits="userSpaceOnUse" id="gradient64" r="819.2" spreadMethod="pad">
      <stop offset="0.0" stop-color="#d9d9d9"/>
      <stop offset="1.0" stop-color="#d8d8d8"/>
    </radialGradient>
    <radialGradient cx="0" cy="0" gradientTransform="matrix(0.0626, 0.0, 0.0, 0.0626, -303.5, -50.1)" gradientUnits="userSpaceOnUse" id="gradient65" r="819.2" spreadMethod="pad">
      <stop offset="0.0" stop-color="#000000"/>
      <stop offset="1.0" stop-color="#000000"/>
    </radialGradient>
    <radialGradient cx="0" cy="0" gradientTransform="matrix(0.1189, 0.0, 0.0, 0.1189, -311.2, -98.15)" gradientUnits="userSpaceOnUse" id="gradient66" r="819.2" spreadMethod="pad">
      <stop offset="0.0" stop-color="#3e3e3e"/>
      <stop offset="1.0" stop-color="#000000"/>
    </radialGradient>
    <radialGradient cx="0" cy="0" gradientTransform="matrix(0.1346, 0.0, 0.0, 0.1346, -294.85, -205.95)" gradientUnits="userSpaceOnUse" id="gradient67" r="819.2" spreadMethod="pad">
      <stop offset="0.0" stop-color="#535353"/>
      <stop offset="1.0" stop-color="#000000"/>
    </radialGradient>
    <radialGradient cx="0" cy="0" gradientTransform="matrix(0.0118, 0.0, 0.0, 0.0118, -323.05, -198.55)" gradientUnits="userSpaceOnUse" id="gradient68" r="819.2" spreadMethod="pad">
      <stop offset="0.0" stop-color="#3d3d3d"/>
      <stop offset="1.0" stop-color="#3d3d3d"/>
    </radialGradient>
    <radialGradient cx="0" cy="0" gradientTransform="matrix(0.019, 0.0, 0.0, 0.019, -306.05, -203.25)" gradientUnits="userSpaceOnUse" id="gradient69" r="819.2" spreadMethod="pad">
      <stop offset="0.0" stop-color="#828282"/>
      <stop offset="1.0" stop-color="#282828"/>
    </radialGradient>
    <radialGradient cx="0" cy="0" gradientTransform="matrix(0.0195, 0.0, 0.0, 0.0195, -306.05, -203.05)" gradientUnits="userSpaceOnUse" id="gradient70" r="819.2" spreadMethod="pad">
      <stop offset="0.0" stop-color="#303030"/>
      <stop offset="1.0" stop-color="#242424"/>
    </radialGradient>
    <radialGradient cx="0" cy="0" gradientTransform="matrix(0.0157, 0.0, 0.0, 0.0157, -248.15, -206.85)" gradientUnits="userSpaceOnUse" id="gradient71" r="819.2" spreadMethod="pad">
      <stop offset="0.0" stop-color="#5b5b5b"/>
      <stop offset="1.0" stop-color="#090909"/>
    </radialGradient>
    <radialGradient cx="0" cy="0" gradientTransform="matrix(0.0157, 0.0, 0.0, 0.0157, -321.15, -213.7)" gradientUnits="userSpaceOnUse" id="gradient72" r="819.2" spreadMethod="pad">
      <stop offset="0.0" stop-color="#3d3d3d"/>
      <stop offset="1.0" stop-color="#3c3c3c"/>
    </radialGradient>
    <radialGradient cx="0" cy="0" gradientTransform="matrix(0.0211, 0.0, 0.0, 0.0211, -306.65, -204.3)" gradientUnits="userSpaceOnUse" id="gradient73" r="819.2" spreadMethod="pad">
      <stop offset="0.0" stop-color="#737373"/>
      <stop offset="1.0" stop-color="#727272"/>
    </radialGradient>
    <radialGradient cx="0" cy="0" gradientTransform="matrix(0.0326, 0.0, 0.0, 0.0326, -256.9, -205.7)" gradientUnits="userSpaceOnUse" id="gradient74" r="819.2" spreadMethod="pad">
      <stop offset="0.0" stop-color="#3f3f3f"/>
      <stop offset="1.0" stop-color="#282828"/>
    </radialGradient>
    <radialGradient cx="0" cy="0" gradientTransform="matrix(0.0744, 0.0, 0.0, 0.0744, -256.9, -205.7)" gradientUnits="userSpaceOnUse" id="gradient75" r="819.2" spreadMethod="pad">
      <stop offset="0.0" stop-color="#3f3f3f"/>
      <stop offset="1.0" stop-color="#000000"/>
    </radialGradient>
    <radialGradient cx="0" cy="0" gradientTransform="matrix(0.0181, 0.0, 0.0, 0.0181, -309.25, -201.6)" gradientUnits="userSpaceOnUse" id="gradient76" r="819.2" spreadMethod="pad">
      <stop offset="0.0" stop-color="#1f1f1f"/>
      <stop offset="1.0" stop-color="#1e1e1e"/>
    </radialGradient>
    <radialGradient cx="0" cy="0" gradientTransform="matrix(0.0174, 0.0, 0.0, 0.0174, -322.8, -205.2)" gradientUnits="userSpaceOnUse" id="gradient77" r="819.2" spreadMethod="pad">
      <stop offset="0.0" stop-color="#1e1e1e"/>
      <stop offset="1.0" stop-color="#1e1e1e"/>
    </radialGradient>
    <radialGradient cx="0" cy="0" gradientTransform="matrix(0.0174, 0.0, 0.0, 0.0174, -322.55, -205.3)" gradientUnits="userSpaceOnUse" id="gradient78" r="819.2" spreadMethod="pad">
      <stop offset="0.0" stop-color="#1e1e1e"/>
      <stop offset="1.0" stop-color="#1e1e1e"/>
    </radialGradient>
    <radialGradient cx="0" cy="0" gradientTransform="matrix(0.0195, 0.0, 0.0, 0.0195, -309.45, -195.45)" gradientUnits="userSpaceOnUse" id="gradient79" r="819.2" spreadMethod="pad">
      <stop offset="0.0" stop-color="#1f1f1f"/>
      <stop offset="1.0" stop-color="#1e1e1e"/>
    </radialGradient>
    <radialGradient cx="0" cy="0" gradientTransform="matrix(0.0451, 0.0, 0.0, 0.0451, -302.6, -204.4)" gradientUnits="userSpaceOnUse" id="gradient80" r="819.2" spreadMethod="pad">
      <stop offset="0.0" stop-color="#4a4a4a"/>
      <stop offset="1.0" stop-color="#060606"/>
    </radialGradient>
    <radialGradient cx="0" cy="0" gradientTransform="matrix(0.0402, 0.0, 0.0, 0.0402, -315.85, -150.1)" gradientUnits="userSpaceOnUse" id="gradient81" r="819.2" spreadMethod="pad">
      <stop offset="0.0" stop-color="#323232"/>
      <stop offset="1.0" stop-color="#060606"/>
    </radialGradient>
    <radialGradient cx="0" cy="0" gradientTransform="matrix(0.0184, 0.0, 0.0, 0.0184, -326.45, -186.05)" gradientUnits="userSpaceOnUse" id="gradient82" r="819.2" spreadMethod="pad">
      <stop offset="0.0" stop-color="#2d2d2d"/>
      <stop offset="1.0" stop-color="#2a2a2a"/>
    </radialGradient>
    <radialGradient cx="0" cy="0" gradientTransform="matrix(0.0183, 0.0, 0.0, 0.0183, -325.35, -190.25)" gradientUnits="userSpaceOnUse" id="gradient83" r="819.2" spreadMethod="pad">
      <stop offset="0.0" stop-color="#1f1f1f"/>
      <stop offset="1.0" stop-color="#080808"/>
    </radialGradient>
    <radialGradient cx="0" cy="0" gradientTransform="matrix(0.0166, 0.0, 0.0, 0.0166, -322.4, -194.1)" gradientUnits="userSpaceOnUse" id="gradient84" r="819.2" spreadMethod="pad">
      <stop offset="0.0" stop-color="#262626"/>
      <stop offset="1.0" stop-color="#262626"/>
    </radialGradient>
    <radialGradient cx="0" cy="0" gradientTransform="matrix(0.0168, 0.0, 0.0, 0.0168, -309.45, -189.7)" gradientUnits="userSpaceOnUse" id="gradient85" r="819.2" spreadMethod="pad">
      <stop offset="0.0" stop-color="#1e1e1e"/>
      <stop offset="1.0" stop-color="#1d1d1d"/>
    </radialGradient>
    <radialGradient cx="0" cy="0" gradientTransform="matrix(0.018, 0.0, 0.0, 0.018, -309.2, -190.65)" gradientUnits="userSpaceOnUse" id="gradient86" r="819.2" spreadMethod="pad">
      <stop offset="0.0" stop-color="#272727"/>
      <stop offset="1.0" stop-color="#191919"/>
    </radialGradient>
    <radialGradient cx="0" cy="0" gradientTransform="matrix(0.0186, 0.0, 0.0, 0.0186, -309.2, -190.75)" gradientUnits="userSpaceOnUse" id="gradient87" r="819.2" spreadMethod="pad">
      <stop offset="0.0" stop-color="#313131"/>
      <stop offset="1.0" stop-color="#222222"/>
    </radialGradient>
    <radialGradient cx="0" cy="0" gradientTransform="matrix(0.0112, 0.0, 0.0, 0.0112, -326.2, -188.6)" gradientUnits="userSpaceOnUse" id="gradient88" r="819.2" spreadMethod="pad">
      <stop offset="0.0" stop-color="#454545"/>
      <stop offset="1.0" stop-color="#454545"/>
    </radialGradient>
    <radialGradient cx="0" cy="0" gradientTransform="matrix(0.0177, 0.0, 0.0, 0.0177, -322.7, -199.0)" gradientUnits="userSpaceOnUse" id="gradient89" r="819.2" spreadMethod="pad">
      <stop offset="0.0" stop-color="#060606"/>
      <stop offset="1.0" stop-color="#030303"/>
    </radialGradient>
    <radialGradient cx="0" cy="0" gradientTransform="matrix(0.0187, 0.0, 0.0, 0.0187, -308.25, -201.25)" gradientUnits="userSpaceOnUse" id="gradient90" r="819.2" spreadMethod="pad">
      <stop offset="0.0" stop-color="#1e1e1e"/>
      <stop offset="1.0" stop-color="#1d1d1d"/>
    </radialGradient>
    <radialGradient cx="0" cy="0" gradientTransform="matrix(0.0188, 0.0, 0.0, 0.0188, -309.8, -196.1)" gradientUnits="userSpaceOnUse" id="gradient91" r="819.2" spreadMethod="pad">
      <stop offset="0.0" stop-color="#1f1f1f"/>
      <stop offset="1.0" stop-color="#1e1e1e"/>
    </radialGradient>
    <radialGradient cx="0" cy="0" gradientTransform="matrix(0.016, 0.0, 0.0, 0.016, -314.3, -198.1)" gradientUnits="userSpaceOnUse" id="gradient92" r="819.2" spreadMethod="pad">
      <stop offset="0.0" stop-color="#212121"/>
      <stop offset="1.0" stop-color="#0b0b0b"/>
    </radialGradient>
    <radialGradient cx="0" cy="0" gradientTransform="matrix(0.0158, 0.0, 0.0, 0.0158, -326.95, -200.25)" gradientUnits="userSpaceOnUse" id="gradient93" r="819.2" spreadMethod="pad">
      <stop offset="0.0" stop-color="#1c1c1c"/>
      <stop offset="1.0" stop-color="#050505"/>
    </radialGradient>
    <radialGradient cx="0" cy="0" gradientTransform="matrix(0.0479, 0.0, 0.0, 0.0479, -212.65, -201.75)" gradientUnits="userSpaceOnUse" id="gradient94" r="819.2" spreadMethod="pad">
      <stop offset="0.0" stop-color="#000000"/>
      <stop offset="1.0" stop-color="#000000"/>
    </radialGradient>
    <radialGradient cx="0" cy="0" gradientTransform="matrix(0.0079, 0.0, 0.0, 0.0079, -321.85, -205.55)" gradientUnits="userSpaceOnUse" id="gradient95" r="819.2" spreadMethod="pad">
      <stop offset="0.0" stop-color="#3c3c3c"/>
      <stop offset="1.0" stop-color="#3c3c3c"/>
    </radialGradient>
    <radialGradient cx="0" cy="0" gradientTransform="matrix(0.0156, 0.0, 0.0, 0.0156, -327.25, -200.15)" gradientUnits="userSpaceOnUse" id="gradient96" r="819.2" spreadMethod="pad">
      <stop offset="0.0" stop-color="#1c1c1c"/>
      <stop offset="1.0" stop-color="#1c1c1c"/>
    </radialGradient>
    <radialGradient cx="0" cy="0" gradientTransform="matrix(0.0162, 0.0, 0.0, 0.0162, -328.2, -196.9)" gradientUnits="userSpaceOnUse" id="gradient97" r="819.2" spreadMethod="pad">
      <stop offset="0.0" stop-color="#404040"/>
      <stop offset="1.0" stop-color="#383838"/>
    </radialGradient>
    <radialGradient cx="0" cy="0" gradientTransform="matrix(0.0167, 0.0, 0.0, 0.0167, -316.6, -190.9)" gradientUnits="userSpaceOnUse" id="gradient98" r="819.2" spreadMethod="pad">
      <stop offset="0.0" stop-color="#313131"/>
      <stop offset="1.0" stop-color="#262626"/>
    </radialGradient>
    <radialGradient cx="0" cy="0" gradientTransform="matrix(0.0176, 0.0, 0.0, 0.0176, -324.85, -199.95)" gradientUnits="userSpaceOnUse" id="gradient99" r="819.2" spreadMethod="pad">
      <stop offset="0.0" stop-color="#010101"/>
      <stop offset="1.0" stop-color="#010101"/>
    </radialGradient>
    <radialGradient cx="0" cy="0" gradientTransform="matrix(0.0391, 0.0, 0.0, 0.0391, -326.05, -196.9)" gradientUnits="userSpaceOnUse" id="gradient100" r="819.2" spreadMethod="pad">
      <stop offset="0.0" stop-color="#212121"/>
      <stop offset="1.0" stop-color="#202020"/>
    </radialGradient>
    <radialGradient cx="0" cy="0" gradientTransform="matrix(0.0161, 0.0, 0.0, 0.0161, -312.4, -197.65)" gradientUnits="userSpaceOnUse" id="gradient101" r="819.2" spreadMethod="pad">
      <stop offset="0.0" stop-color="#272727"/>
      <stop offset="1.0" stop-color="#262626"/>
    </radialGradient>
    <radialGradient cx="0" cy="0" gradientTransform="matrix(0.0159, 0.0, 0.0, 0.0159, -325.9, -200.25)" gradientUnits="userSpaceOnUse" id="gradient102" r="819.2" spreadMethod="pad">
      <stop offset="0.0" stop-color="#3b3b3b"/>
      <stop offset="1.0" stop-color="#3b3b3b"/>
    </radialGradient>
    <radialGradient cx="0" cy="0" gradientTransform="matrix(0.0165, 0.0, 0.0, 0.0165, -326.65, -198.4)" gradientUnits="userSpaceOnUse" id="gradient103" r="819.2" spreadMethod="pad">
      <stop offset="0.0" stop-color="#010101"/>
      <stop offset="1.0" stop-color="#010101"/>
    </radialGradient>
    <radialGradient cx="0" cy="0" gradientTransform="matrix(0.0159, 0.0, 0.0, 0.0159, -326.1, -199.05)" gradientUnits="userSpaceOnUse" id="gradient104" r="819.2" spreadMethod="pad">
      <stop offset="0.0" stop-color="#7e7e7e"/>
      <stop offset="1.0" stop-color="#7e7e7e"/>
    </radialGradient>
    <radialGradient cx="0" cy="0" gradientTransform="matrix(0.022, 0.0, 0.0, 0.022, -324.6, -199.0)" gradientUnits="userSpaceOnUse" id="gradient105" r="819.2" spreadMethod="pad">
      <stop offset="0.0" stop-color="#101010"/>
      <stop offset="1.0" stop-color="#101010"/>
    </radialGradient>
    <radialGradient cx="0" cy="0" gradientTransform="matrix(0.0161, 0.0, 0.0, 0.0161, -316.65, -190.55)" gradientUnits="userSpaceOnUse" id="gradient106" r="819.2" spreadMethod="pad">
      <stop offset="0.0" stop-color="#585858"/>
      <stop offset="1.0" stop-color="#4c4c4c"/>
    </radialGradient>
    <radialGradient cx="0" cy="0" gradientTransform="matrix(0.0171, 0.0, 0.0, 0.0171, -326.5, -192.9)" gradientUnits="userSpaceOnUse" id="gradient107" r="819.2" spreadMethod="pad">
      <stop offset="0.0" stop-color="#272727"/>
      <stop offset="1.0" stop-color="#272727"/>
    </radialGradient>
    <radialGradient cx="0" cy="0" gradientTransform="matrix(0.0174, 0.0, 0.0, 0.0174, -329.2, -181.65)" gradientUnits="userSpaceOnUse" id="gradient108" r="819.2" spreadMethod="pad">
      <stop offset="0.0" stop-color="#454545"/>
      <stop offset="1.0" stop-color="#454545"/>
    </radialGradient>
    <radialGradient cx="0" cy="0" gradientTransform="matrix(0.0394, 0.0, 0.0, 0.0394, -224.15, -199.85)" gradientUnits="userSpaceOnUse" id="gradient109" r="819.2" spreadMethod="pad">
      <stop offset="0.0" stop-color="#0d0d0d"/>
      <stop offset="1.0" stop-color="#000000"/>
    </radialGradient>
    <radialGradient cx="0" cy="0" gradientTransform="matrix(0.1182, 0.0, 0.0, 0.1182, -226.05, -186.85)" gradientUnits="userSpaceOnUse" id="gradient110" r="819.2" spreadMethod="pad">
      <stop offset="0.0" stop-color="#575757"/>
      <stop offset="1.0" stop-color="#0a0a0a"/>
    </radialGradient>
    <radialGradient cx="0" cy="0" gradientTransform="matrix(0.0197, 0.0, 0.0, 0.0197, -326.05, -188.2)" gradientUnits="userSpaceOnUse" id="gradient111" r="819.2" spreadMethod="pad">
      <stop offset="0.0" stop-color="#222222"/>
      <stop offset="1.0" stop-color="#0d0d0d"/>
    </radialGradient>
    <radialGradient cx="0" cy="0" gradientTransform="matrix(0.0265, 0.0, 0.0, 0.0265, -316.2, -186.5)" gradientUnits="userSpaceOnUse" id="gradient112" r="819.2" spreadMethod="pad">
      <stop offset="0.0" stop-color="#131313"/>
      <stop offset="1.0" stop-color="#111111"/>
    </radialGradient>
    <radialGradient cx="0" cy="0" gradientTransform="matrix(0.0173, 0.0, 0.0, 0.0173, -327.4, -187.95)" gradientUnits="userSpaceOnUse" id="gradient113" r="819.2" spreadMethod="pad">
      <stop offset="0.0" stop-color="#010101"/>
      <stop offset="1.0" stop-color="#010101"/>
    </radialGradient>
    <radialGradient cx="0" cy="0" gradientTransform="matrix(0.0193, 0.0, 0.0, 0.0193, -315.45, -177.15)" gradientUnits="userSpaceOnUse" id="gradient114" r="819.2" spreadMethod="pad">
      <stop offset="0.0" stop-color="#111111"/>
      <stop offset="1.0" stop-color="#101010"/>
    </radialGradient>
    <radialGradient cx="0" cy="0" gradientTransform="matrix(0.0253, 0.0, 0.0, 0.0253, -328.95, -180.65)" gradientUnits="userSpaceOnUse" id="gradient115" r="819.2" spreadMethod="pad">
      <stop offset="0.0" stop-color="#111111"/>
      <stop offset="1.0" stop-color="#070707"/>
    </radialGradient>
    <radialGradient cx="0" cy="0" gradientTransform="matrix(0.0029, 0.0, 0.0, 0.0029, -333.75, -163.55)" gradientUnits="userSpaceOnUse" id="gradient116" r="819.2" spreadMethod="pad">
      <stop offset="0.0" stop-color="#2f2f2f"/>
      <stop offset="1.0" stop-color="#2f2f2f"/>
    </radialGradient>
    <radialGradient cx="0" cy="0" gradientTransform="matrix(0.0017, 0.0, 0.0, 0.0017, -333.6, -165.15)" gradientUnits="userSpaceOnUse" id="gradient117" r="819.2" spreadMethod="pad">
      <stop offset="0.0" stop-color="#d6d6d6"/>
      <stop offset="1.0" stop-color="#d6d6d6"/>
    </radialGradient>
    <radialGradient cx="0" cy="0" gradientTransform="matrix(0.0048, 0.0, 0.0, 0.0048, -334.95, -167.6)" gradientUnits="userSpaceOnUse" id="gradient118" r="819.2" spreadMethod="pad">
      <stop offset="0.0" stop-color="#686868"/>
      <stop offset="1.0" stop-color="#686868"/>
    </radialGradient>
    <radialGradient cx="0" cy="0" gradientTransform="matrix(0.0235, 0.0, 0.0, 0.0235, -332.3, -182.65)" gradientUnits="userSpaceOnUse" id="gradient119" r="819.2" spreadMethod="pad">
      <stop offset="0.0" stop-color="#555555"/>
      <stop offset="1.0" stop-color="#000000"/>
    </radialGradient>
    <radialGradient cx="0" cy="0" gradientTransform="matrix(0.0388, 0.0, 0.0, 0.0388, -315.85, -150.1)" gradientUnits="userSpaceOnUse" id="gradient120" r="819.2" spreadMethod="pad">
      <stop offset="0.0" stop-color="#323232"/>
      <stop offset="1.0" stop-color="#000000"/>
    </radialGradient>
    <radialGradient cx="0" cy="0" gradientTransform="matrix(0.0286, 0.0, 0.0, 0.0286, -318.1, -168.25)" gradientUnits="userSpaceOnUse" id="gradient121" r="819.2" spreadMethod="pad">
      <stop offset="0.0" stop-color="#242424"/>
      <stop offset="1.0" stop-color="#1c1c1c"/>
    </radialGradient>
    <radialGradient cx="0" cy="0" gradientTransform="matrix(0.0261, 0.0, 0.0, 0.0261, -329.5, -188.25)" gradientUnits="userSpaceOnUse" id="gradient122" r="819.2" spreadMethod="pad">
      <stop offset="0.0" stop-color="#d8d8d8"/>
      <stop offset="1.0" stop-color="#d6d6d6"/>
    </radialGradient>
    <radialGradient cx="0" cy="0" gradientTransform="matrix(0.0251, 0.0, 0.0, 0.0251, -329.85, -187.8)" gradientUnits="userSpaceOnUse" id="gradient123" r="819.2" spreadMethod="pad">
      <stop offset="0.0" stop-color="#212121"/>
      <stop offset="1.0" stop-color="#212121"/>
    </radialGradient>
    <radialGradient cx="0" cy="0" gradientTransform="matrix(0.0267, 0.0, 0.0, 0.0267, -316.45, -184.8)" gradientUnits="userSpaceOnUse" id="gradient124" r="819.2" spreadMethod="pad">
      <stop offset="0.0" stop-color="#838383"/>
      <stop offset="1.0" stop-color="#767676"/>
    </radialGradient>
    <radialGradient cx="0" cy="0" gradientTransform="matrix(0.0229, 0.0, 0.0, 0.0229, -315.2, -176.0)" gradientUnits="userSpaceOnUse" id="gradient125" r="819.2" spreadMethod="pad">
      <stop offset="0.0" stop-color="#2e2e2e"/>
      <stop offset="1.0" stop-color="#1e1e1e"/>
    </radialGradient>
    <radialGradient cx="0" cy="0" gradientTransform="matrix(0.0855, 0.0, 0.0, 0.0855, -307.35, -168.05)" gradientUnits="userSpaceOnUse" id="gradient126" r="819.2" spreadMethod="pad">
      <stop offset="0.0" stop-color="#414141"/>
      <stop offset="1.0" stop-color="#3a3a3a"/>
    </radialGradient>
    <radialGradient cx="0" cy="0" gradientTransform="matrix(0.0658, 0.0, 0.0, 0.0658, -304.7, -171.2)" gradientUnits="userSpaceOnUse" id="gradient127" r="819.2" spreadMethod="pad">
      <stop offset="0.0" stop-color="#686868"/>
      <stop offset="1.0" stop-color="#000000"/>
    </radialGradient>
    <radialGradient cx="0" cy="0" gradientTransform="matrix(0.0171, 0.0, 0.0, 0.0171, -332.7, -165.7)" gradientUnits="userSpaceOnUse" id="gradient128" r="819.2" spreadMethod="pad">
      <stop offset="0.0" stop-color="#131313"/>
      <stop offset="1.0" stop-color="#131313"/>
    </radialGradient>
    <radialGradient cx="0" cy="0" gradientTransform="matrix(0.017, 0.0, 0.0, 0.017, -333.25, -163.9)" gradientUnits="userSpaceOnUse" id="gradient129" r="819.2" spreadMethod="pad">
      <stop offset="0.0" stop-color="#010101"/>
      <stop offset="1.0" stop-color="#010101"/>
    </radialGradient>
    <radialGradient cx="0" cy="0" gradientTransform="matrix(0.0172, 0.0, 0.0, 0.0172, -319.65, -162.3)" gradientUnits="userSpaceOnUse" id="gradient130" r="819.2" spreadMethod="pad">
      <stop offset="0.0" stop-color="#616161"/>
      <stop offset="1.0" stop-color="#606060"/>
    </radialGradient>
    <radialGradient cx="0" cy="0" gradientTransform="matrix(0.0173, 0.0, 0.0, 0.0173, -333.35, -166.55)" gradientUnits="userSpaceOnUse" id="gradient131" r="819.2" spreadMethod="pad">
      <stop offset="0.0" stop-color="#3d3d3d"/>
      <stop offset="1.0" stop-color="#202020"/>
    </radialGradient>
    <radialGradient cx="0" cy="0" gradientTransform="matrix(0.0271, 0.0, 0.0, 0.0271, -315.85, -150.1)" gradientUnits="userSpaceOnUse" id="gradient132" r="819.2" spreadMethod="pad">
      <stop offset="0.0" stop-color="#323232"/>
      <stop offset="1.0" stop-color="#000000"/>
    </radialGradient>
    <radialGradient cx="0" cy="0" gradientTransform="matrix(0.1117, 0.0, 0.0, 0.1117, -248.25, -194.55)" gradientUnits="userSpaceOnUse" id="gradient133" r="819.2" spreadMethod="pad">
      <stop offset="0.0" stop-color="#121212"/>
      <stop offset="1.0" stop-color="#000000"/>
    </radialGradient>
    <radialGradient cx="0" cy="0" gradientTransform="matrix(0.0767, 0.0, 0.0, 0.0767, -168.35, -66.15)" gradientUnits="userSpaceOnUse" id="gradient134" r="819.2" spreadMethod="pad">
      <stop offset="0.0" stop-color="#626262"/>
      <stop offset="1.0" stop-color="#000000"/>
    </radialGradient>
    <radialGradient cx="0" cy="0" gradientTransform="matrix(0.0703, 0.0, 0.0, 0.0703, -182.1, -110.55)" gradientUnits="userSpaceOnUse" id="gradient135" r="819.2" spreadMethod="pad">
      <stop offset="0.0" stop-color="#777777"/>
      <stop offset="1.0" stop-color="#000000"/>
    </radialGradient>
    <radialGradient cx="0" cy="0" gradientTransform="matrix(0.0209, 0.0, 0.0, 0.0209, -313.8, -118.3)" gradientUnits="userSpaceOnUse" id="gradient136" r="819.2" spreadMethod="pad">
      <stop offset="0.0" stop-color="#000000"/>
      <stop offset="1.0" stop-color="#000000"/>
    </radialGradient>
    <radialGradient cx="0" cy="0" gradientTransform="matrix(0.0252, 0.0, 0.0, 0.0252, -260.4, -144.8)" gradientUnits="userSpaceOnUse" id="gradient137" r="819.2" spreadMethod="pad">
      <stop offset="0.0" stop-color="#000000"/>
      <stop offset="1.0" stop-color="#000000"/>
    </radialGradient>
    <radialGradient cx="0" cy="0" gradientTransform="matrix(0.022, 0.0, 0.0, 0.022, -231.5, -108.55)" gradientUnits="userSpaceOnUse" id="gradient138" r="819.2" spreadMethod="pad">
      <stop offset="0.0" stop-color="#000000"/>
      <stop offset="1.0" stop-color="#000000"/>
    </radialGradient>
    <radialGradient cx="0" cy="0" gradientTransform="matrix(0.0946, 0.0, 0.0, 0.0946, -224.7, -33.2)" gradientUnits="userSpaceOnUse" id="gradient139" r="819.2" spreadMethod="pad">
      <stop offset="0.0" stop-color="#292929"/>
      <stop offset="1.0" stop-color="#000000"/>
    </radialGradient>
    <radialGradient cx="0" cy="0" gradientTransform="matrix(0.0992, 0.0, 0.0, 0.0992, -236.05, -32.0)" gradientUnits="userSpaceOnUse" id="gradient140" r="819.2" spreadMethod="pad">
      <stop offset="0.0" stop-color="#838383"/>
      <stop offset="1.0" stop-color="#161616"/>
    </radialGradient>
    <radialGradient cx="0" cy="0" gradientTransform="matrix(0.0452, 0.0, 0.0, 0.0452, -242.95, -1.0)" gradientUnits="userSpaceOnUse" id="gradient141" r="819.2" spreadMethod="pad">
      <stop offset="0.0" stop-color="#393939"/>
      <stop offset="1.0" stop-color="#262626"/>
    </radialGradient>
    <radialGradient cx="0" cy="0" gradientTransform="matrix(0.068, 0.0, 0.0, 0.068, -195.6, -1.0)" gradientUnits="userSpaceOnUse" id="gradient142" r="819.2" spreadMethod="pad">
      <stop offset="0.0" stop-color="#434343"/>
      <stop offset="1.0" stop-color="#0d0d0d"/>
    </radialGradient>
  </defs>
</svg>
