<?xml version="1.0" encoding="UTF-8" standalone="no"?>
<svg xmlns:xlink="http://www.w3.org/1999/xlink" height="299.1px" width="343.85px" xmlns="http://www.w3.org/2000/svg">
  <g transform="matrix(1.0, 0.0, 0.0, 1.0, 400.0, 300.0)">
    <path d="M-322.9 -216.0 L-326.25 -221.25 -327.9 -223.15 -328.15 -224.0 -334.5 -232.65 -315.75 -216.4 -315.75 -217.25 -321.9 -229.5 -305.0 -228.4 -304.0 -227.4 -304.9 -227.25 -309.9 -218.4 -314.25 -216.15 Q-322.0 -214.5 -322.9 -216.0" fill="url(#gradient0)" fill-rule="evenodd" stroke="none"/>
    <path d="M-204.0 -216.5 L-215.15 -211.25 -227.9 -208.25 -227.9 -209.4 -230.4 -210.0 -237.4 -210.75 -247.25 -210.5 -250.9 -211.0 -254.75 -210.75 -262.65 -211.0 Q-269.9 -211.25 -270.5 -210.15 L-271.9 -210.4 -284.15 -214.5 -298.65 -223.15 -304.0 -227.4 -305.0 -228.4 -283.65 -230.25 -260.5 -217.4 -260.0 -218.9 -260.15 -235.25 -217.65 -215.75 -215.4 -215.4 -204.0 -216.5" fill="url(#gradient1)" fill-rule="evenodd" stroke="none"/>
    <path d="M-322.9 -216.0 L-344.5 -240.15 -345.65 -242.75 -348.5 -247.5 -361.5 -278.5 -363.75 -300.0 -129.9 -300.0 -129.75 -298.25 -131.9 -283.0 -134.5 -270.0 -141.65 -251.15 -149.9 -236.5 -152.4 -236.5 -162.9 -222.0 -152.4 -239.15 -152.75 -239.25 -165.0 -229.65 -165.4 -229.5 -164.4 -237.15 -164.4 -237.65 -164.75 -237.5 -178.65 -219.15 -179.5 -218.9 -204.0 -216.5 -215.4 -215.4 -217.65 -215.75 -260.15 -235.25 -260.0 -218.9 -260.5 -217.4 -283.65 -230.25 -305.0 -228.4 -321.9 -229.5 -315.75 -217.25 -315.75 -216.4 -334.5 -232.65 -328.15 -224.0 -327.9 -223.15 -326.25 -221.25 -322.9 -216.0" fill="url(#gradient2)" fill-rule="evenodd" stroke="none"/>
    <path d="M-227.9 -208.25 L-228.15 -205.9 -227.75 -196.0 -230.4 -191.0 -242.4 -190.75 -261.0 -189.75 -273.15 -189.9 -271.15 -190.75 -286.4 -191.0 -285.0 -190.15 -295.9 -190.4 -285.9 -195.9 -285.65 -196.15 -276.75 -200.9 Q-270.75 -208.4 -271.9 -210.4 L-270.5 -210.15 Q-269.9 -211.25 -262.65 -211.0 L-254.75 -210.75 -250.9 -211.0 -247.25 -210.5 -237.4 -210.75 -230.4 -210.0 -227.9 -209.4 -227.9 -208.25" fill="url(#gradient3)" fill-rule="evenodd" stroke="none"/>
    <path d="M-285.9 -195.9 L-295.9 -190.4 -302.65 -191.0 -285.9 -195.9" fill="url(#gradient4)" fill-rule="evenodd" stroke="none"/>
    <path d="M-242.4 -190.75 L-239.75 -147.5 -243.4 -63.0 -273.9 -67.65 -275.9 -68.4 -273.75 -122.15 -272.15 -146.65 -273.5 -165.9 -274.15 -169.9 -273.15 -189.9 -261.0 -189.75 -242.4 -190.75 M-315.15 -124.0 L-314.9 -126.25 -315.0 -127.9 -313.9 -152.4 -305.5 -182.15 -305.25 -182.65 -304.0 -187.4 -303.9 -187.65 -303.4 -189.4 -303.5 -189.5 -303.0 -190.9 -302.65 -191.0 -295.9 -190.4 -285.0 -190.15 -286.65 -179.65 -287.5 -149.9 -288.25 -142.25 -291.15 -70.9 -295.5 -71.15 -316.9 -74.5 -315.0 -124.0 -315.15 -124.0" fill="url(#gradient5)" fill-rule="evenodd" stroke="none"/>
    <path d="M-331.25 -169.4 L-336.0 -170.5 -310.65 -186.9 -303.5 -189.5 -303.4 -189.4 -303.9 -187.65 -304.0 -187.4 -331.25 -169.4" fill="url(#gradient6)" fill-rule="evenodd" stroke="none"/>
    <path d="M-336.0 -170.5 L-331.25 -169.4 -332.25 -141.4 -332.0 -140.65 -331.0 -140.0 -314.9 -126.25 -315.15 -124.0 -329.75 -118.9 -342.4 -111.4 -352.0 -107.0 -361.75 -106.9 -393.5 -117.9 -391.5 -141.25 -382.25 -146.0 -370.15 -152.15 -353.25 -161.75 -336.0 -170.5" fill="url(#gradient7)" fill-rule="evenodd" stroke="none"/>
    <path d="M-382.25 -146.0 L-391.5 -141.25 -400.0 -144.75 -400.0 -146.15 -392.0 -147.4 -386.5 -147.15 -382.25 -146.0" fill="url(#gradient8)" fill-rule="evenodd" stroke="none"/>
    <path d="M-386.5 -147.15 L-392.0 -147.4 -400.0 -146.15 -400.0 -159.9 -386.5 -147.15" fill="url(#gradient9)" fill-rule="evenodd" stroke="none"/>
    <path d="M-228.15 -205.9 L-220.65 -192.9 -217.25 -189.5 -227.75 -196.0 -228.15 -205.9" fill="url(#gradient10)" fill-rule="evenodd" stroke="none"/>
    <path d="M-217.25 -189.5 L-216.5 -189.0 -219.75 -189.0 -230.15 -191.0 -230.4 -191.0 -227.75 -196.0 -217.25 -189.5" fill="url(#gradient11)" fill-rule="evenodd" stroke="none"/>
    <path d="M-193.25 -114.65 L-193.15 -114.4 Q-196.9 -106.25 -196.25 -93.25 L-195.9 -89.75 -194.0 -82.4 -192.75 -79.9 -191.4 -74.5 -190.5 -72.5 -193.15 -68.9 -204.5 -66.4 -243.4 -63.0 -239.75 -147.5 -242.4 -190.75 -230.4 -191.0 -221.15 -157.75 -216.65 -120.4 -216.65 -120.0 -200.25 -120.4 -193.25 -114.65" fill="url(#gradient12)" fill-rule="evenodd" stroke="none"/>
    <path d="M-285.0 -190.15 L-286.4 -191.0 -271.15 -190.75 -273.15 -189.9 -274.15 -169.9 -273.5 -165.9 -272.15 -146.65 -273.75 -122.15 -275.9 -68.4 -280.0 -0.9 -295.0 -0.9 -294.4 -16.75 -291.15 -70.9 -288.25 -142.25 -287.5 -149.9 -286.65 -179.65 -285.0 -190.15" fill="url(#gradient13)" fill-rule="evenodd" stroke="none"/>
    <path d="M-230.15 -191.0 L-210.15 -182.0 -221.15 -157.75 -230.4 -191.0 -230.15 -191.0" fill="url(#gradient14)" fill-rule="evenodd" stroke="none"/>
    <path d="M-205.65 -186.15 L-205.5 -186.15 -195.65 -184.15 -179.0 -175.25 -184.9 -175.65 -191.65 -168.25 -210.15 -182.0 -230.15 -191.0 -219.75 -189.0 -205.65 -186.15" fill="url(#gradient15)" fill-rule="evenodd" stroke="none"/>
    <path d="M-210.15 -182.0 L-191.65 -168.25 -199.4 -156.5 -205.9 -134.0 -216.0 -120.75 -216.65 -120.4 -221.15 -157.75 -210.15 -182.0" fill="url(#gradient16)" fill-rule="evenodd" stroke="none"/>
    <path d="M-331.0 -140.0 L-332.0 -140.65 -332.25 -141.4 -331.25 -169.4 -304.0 -187.4 -305.25 -182.65 -305.5 -182.15 -318.75 -165.9 -318.65 -165.65 -315.5 -131.9 -331.0 -140.0" fill="url(#gradient17)" fill-rule="evenodd" stroke="none"/>
    <path d="M-216.5 -189.0 Q-210.75 -189.0 -205.65 -186.15 L-219.75 -189.0 -216.5 -189.0" fill="url(#gradient18)" fill-rule="evenodd" stroke="none"/>
    <path d="M-101.15 -76.25 L-101.5 -76.4 -148.9 -123.15 -176.75 -148.0 -177.9 -150.0 -191.65 -168.25 -184.9 -175.65 -179.0 -175.25 -178.25 -174.9 -171.0 -169.65 -154.9 -158.0 -130.5 -137.65 -107.25 -115.15 -81.75 -87.75 -86.65 -86.25 -101.15 -76.25" fill="url(#gradient19)" fill-rule="evenodd" stroke="none"/>
    <path d="M-305.5 -182.15 L-313.9 -152.4 -315.0 -127.9 -315.5 -131.9 -318.65 -165.65 -318.75 -165.9 -305.5 -182.15" fill="url(#gradient20)" fill-rule="evenodd" stroke="none"/>
    <path d="M-314.9 -126.25 L-331.0 -140.0 -315.5 -131.9 -315.0 -127.9 -314.9 -126.25" fill="url(#gradient21)" fill-rule="evenodd" stroke="none"/>
    <path d="M-178.25 -174.9 L-172.0 -171.25 -171.0 -169.65 -178.25 -174.9" fill="url(#gradient22)" fill-rule="evenodd" stroke="none"/>
    <path d="M-391.5 -141.25 L-393.5 -117.9 -399.9 -121.9 -400.0 -144.75 -391.5 -141.25" fill="url(#gradient23)" fill-rule="evenodd" stroke="none"/>
    <path d="M-136.5 -77.0 L-135.15 -66.0 -137.15 -67.5 -158.0 -89.0 -164.4 -93.65 -172.9 -100.25 -193.15 -114.4 -193.25 -114.65 -204.5 -132.25 -205.4 -133.15 -205.25 -133.5 -205.9 -134.0 -199.4 -156.5 -191.65 -168.25 -177.9 -150.0 -176.75 -148.0 -148.9 -123.15 -101.5 -76.4 -136.5 -86.5 -136.5 -77.0" fill="url(#gradient24)" fill-rule="evenodd" stroke="none"/>
    <path d="M-101.5 -76.4 L-136.5 -77.0 -136.5 -86.5 -101.5 -76.4" fill="url(#gradient25)" fill-rule="evenodd" stroke="none"/>
    <path d="M-101.15 -76.25 L-72.65 -47.4 -72.4 -46.75 -71.9 -37.15 -81.65 -19.75 -103.15 -4.5 -107.5 -0.9 -133.0 -0.9 -141.0 -8.5 -137.25 -18.4 -137.0 -18.9 Q-135.65 -28.0 -122.25 -45.65 L-135.15 -66.0 -136.5 -77.0 -101.5 -76.4 -101.15 -76.25" fill="url(#gradient26)" fill-rule="evenodd" stroke="none"/>
    <path d="M-193.15 -114.4 L-172.9 -100.25 -164.4 -93.65 Q-172.0 -69.15 -195.15 -62.75 L-193.15 -68.9 -190.5 -72.5 -191.4 -74.5 -192.75 -79.9 -194.0 -82.4 -195.9 -89.75 -196.25 -93.25 Q-196.9 -106.25 -193.15 -114.4" fill="url(#gradient27)" fill-rule="evenodd" stroke="none"/>
    <path d="M-205.9 -134.0 L-205.25 -133.5 -205.4 -133.15 -204.5 -132.25 -193.25 -114.65 -200.25 -120.4 -216.65 -120.0 -216.65 -120.4 -216.0 -120.75 -205.9 -134.0" fill="url(#gradient28)" fill-rule="evenodd" stroke="none"/>
    <path d="M-393.5 -117.9 L-361.75 -106.9 -396.25 -108.25 -400.0 -112.15 -399.9 -121.9 -393.5 -117.9" fill="url(#gradient29)" fill-rule="evenodd" stroke="none"/>
    <path d="M-291.15 -70.9 L-294.4 -16.75 -295.0 -0.9 -317.15 -0.9 -315.65 -18.25 -316.9 -74.5 -295.5 -71.15 -291.15 -70.9 M-280.0 -0.9 L-275.9 -68.4 -273.9 -67.65 -243.4 -63.0 -243.15 -0.9 -280.0 -0.9" fill="url(#gradient30)" fill-rule="evenodd" stroke="none"/>
    <path d="M-81.65 -19.75 L-71.9 -37.15 -72.4 -46.75 -72.65 -47.4 -101.15 -76.25 -86.65 -86.25 -81.75 -87.75 -56.15 -50.4 -56.65 -39.9 -66.65 -22.5 -66.9 -22.4 -69.65 -20.5 -81.65 -19.75" fill="url(#gradient31)" fill-rule="evenodd" stroke="none"/>
    <path d="M-107.5 -0.9 L-103.15 -4.5 -81.65 -19.75 -69.65 -20.5 -66.9 -22.4 -88.65 -4.4 -92.4 -0.9 -107.5 -0.9" fill="url(#gradient32)" fill-rule="evenodd" stroke="none"/>
    <path d="M-243.4 -63.0 L-204.5 -66.4 -193.15 -68.9 -195.15 -62.75 -206.4 -29.4 -208.75 -19.65 -209.4 -0.9 -243.15 -0.9 -243.4 -63.0" fill="url(#gradient33)" fill-rule="evenodd" stroke="none"/>
    <path d="M-137.25 -18.4 L-141.0 -8.5 -133.0 -0.9 -155.15 -0.9 -137.25 -18.4" fill="url(#gradient34)" fill-rule="evenodd" stroke="none"/>
    <path d="M-225.75 -201.9 L-229.5 -202.25 -230.25 -202.4 -240.0 -203.4 -259.15 -204.5 -259.4 -204.65 -272.25 -204.9 -272.25 -204.75 -273.15 -204.75 -273.25 -204.65 -274.15 -204.65 -274.15 -204.9 -272.5 -207.0 -272.25 -207.5 -272.15 -209.0 -263.4 -209.0 -262.65 -208.5 -262.4 -208.25 -256.5 -204.75 -230.4 -203.15 -229.75 -203.15 -229.65 -203.0 -226.15 -202.65 -225.75 -201.9 M-290.75 -20.15 L-287.5 -25.15 -287.25 -25.9 -287.0 -26.4 -280.75 -35.65 -280.25 -36.9 -277.75 -40.25 -277.5 -41.15 -275.4 -43.9 -275.0 -44.9 -273.75 -46.75 -253.75 -52.5 -243.5 -58.0 -243.4 -58.25 -233.9 -63.15 -233.65 -26.5 -233.75 -25.65 -233.9 -25.15 -233.75 -0.9 -283.5 -0.9 -283.5 -1.25 -283.65 -1.4 -283.75 -1.75 -283.9 -2.0 -284.0 -2.4 -284.15 -2.65 -284.25 -3.0 -284.4 -3.25 -284.5 -3.65 -284.5 -3.75 -286.25 -8.25 -286.25 -8.4 -286.4 -8.4 -286.4 -8.75 -287.0 -10.15 -287.0 -10.25 -287.4 -11.0 -287.5 -11.65 -287.65 -12.15 -288.0 -12.4 -288.0 -13.5 -290.75 -20.15" fill="#9b0000" fill-opacity="0.9098039" fill-rule="evenodd" stroke="none"/>
    <path d="M-274.15 -204.65 L-274.4 -204.5 -276.15 -204.15 -275.65 -203.5 -275.0 -203.5 -275.75 -202.5 -282.15 -203.5 -282.9 -204.15 -282.65 -204.5 -279.4 -204.9 -277.25 -208.9 -272.15 -209.0 -272.25 -207.5 -272.5 -207.0 -274.15 -204.9 -274.15 -204.65 M-226.15 -202.65 L-209.25 -200.9 -197.25 -196.75 -203.9 -197.25 -217.0 -201.0 -225.75 -201.9 -226.15 -202.65" fill="#ab0000" fill-opacity="0.9098039" fill-rule="evenodd" stroke="none"/>
    <path d="M-197.25 -196.75 L-196.9 -196.65 -189.9 -183.15 -189.65 -181.0 -195.25 -184.0 -197.5 -184.5 -203.9 -197.25 -197.25 -196.75 M-283.5 -0.9 L-317.15 -0.9 -315.65 -18.75 -316.75 -67.9 -314.9 -66.4 -314.65 -65.9 -314.25 -65.9 -302.5 -53.65 -302.4 -53.25 -301.5 -52.5 -299.9 -47.9 -299.5 -45.9 -297.5 -40.9 -297.4 -39.65 -293.65 -29.25 -293.5 -28.0 -290.75 -20.15 -291.0 -19.9 -288.0 -12.4 -288.0 -11.9 -287.9 -11.5 -287.75 -11.5 -287.65 -11.4 -287.4 -11.0 -287.5 -10.75 -287.4 -10.5 -287.4 -10.4 -287.0 -10.25 -287.0 -10.15 -286.4 -8.75 -286.4 -8.4 -286.25 -8.4 -286.25 -8.25 -286.4 -7.9 -286.25 -7.9 -284.5 -3.75 -284.5 -3.65 -284.4 -3.25 -284.25 -3.0 -284.15 -2.65 -284.0 -2.4 -283.9 -2.0 -283.75 -1.75 -283.65 -1.4 -283.5 -1.25 -283.5 -0.9" fill="#ae0000" fill-opacity="0.9098039" fill-rule="evenodd" stroke="none"/>
    <path d="M-327.4 -77.65 L-327.75 -87.25 -320.9 -97.5 -315.9 -101.25 -316.5 -85.4 -321.75 -83.5 -326.9 -78.25 -327.15 -77.9 -327.4 -77.65" fill="#f00000" fill-opacity="0.9098039" fill-rule="evenodd" stroke="none"/>
    <path d="M-316.5 -85.4 L-316.9 -68.25 -327.4 -77.65 -327.15 -77.9 -326.9 -78.25 -321.75 -83.5 -316.5 -85.4" fill="#f40000" fill-opacity="0.9098039" fill-rule="evenodd" stroke="none"/>
    <path d="M-233.4 -63.25 L-230.4 -64.0 -230.25 -64.0 -229.75 -64.15 -229.25 -64.15 -228.75 -64.25 -228.65 -64.25 -218.4 -66.4 -218.15 -66.5 -206.9 -68.75 -202.9 -71.0 -202.75 -71.25 -200.4 -72.4 -200.25 -72.65 -192.9 -76.65 -192.75 -76.9 -192.15 -77.0 -188.15 -79.25 -187.75 -79.9 -187.25 -80.4 -185.9 -82.4 -185.65 -82.5 -181.0 -88.65 -180.5 -89.65 -179.65 -90.75 -179.4 -90.9 -178.75 -91.9 -177.65 -93.15 -172.65 -99.9 -164.5 -93.65 -164.65 -93.15 -164.5 -92.9 -167.25 -85.65 -171.9 -78.25 -177.75 -72.0 -178.15 -71.75 -179.75 -70.5 -180.15 -70.4 -180.15 -70.25 -183.65 -67.65 -184.15 -67.4 -184.9 -67.25 -185.25 -67.25 -185.15 -67.15 -185.4 -67.15 -233.4 -63.25" fill="#d80000" fill-opacity="0.9098039" fill-rule="evenodd" stroke="none"/>
    <path d="M-233.9 -63.15 L-233.4 -63.25 -185.4 -67.15 -185.15 -67.15 -185.25 -67.25 -184.9 -67.25 -184.15 -67.4 -186.4 -66.4 -186.75 -66.15 -187.5 -65.9 -189.25 -64.9 -193.75 -62.9 -194.65 -62.75 -195.15 -62.75 -206.65 -28.15 -206.5 -27.9 -208.75 -19.0 -208.75 -18.0 -208.65 -17.5 -208.9 -17.25 -208.75 -14.75 -209.4 -0.9 -233.75 -0.9 -233.9 -25.15 -233.75 -25.65 -233.65 -26.5 -233.9 -63.15" fill="#db0000" fill-opacity="0.9098039" fill-rule="evenodd" stroke="none"/>
    <path d="M-183.65 -67.65 L-175.9 -69.5 -183.5 -61.9 -189.25 -64.9 -187.5 -65.9 -186.75 -66.15 -186.4 -66.4 -184.15 -67.4 -183.65 -67.65" fill="#ec0000" fill-rule="evenodd" stroke="none"/>
    <path d="M-164.5 -93.65 L-159.4 -90.15 -158.65 -89.5 -157.4 -88.15 -165.0 -80.25 -175.5 -69.75 -175.9 -69.5 -183.65 -67.65 -180.15 -70.25 -180.15 -70.4 -179.75 -70.5 -178.15 -71.75 -177.75 -72.0 -171.9 -78.25 -167.25 -85.65 -164.5 -92.9 -164.65 -93.15 -164.5 -93.65" fill="#ea0000" fill-rule="evenodd" stroke="none"/>
    <path d="M-175.0 -69.5 L-196.5 -13.9 -196.9 -12.25 -197.9 -10.0 -198.15 -10.15 -196.75 -15.4 -196.65 -16.75 -183.5 -61.9 -175.9 -69.5 -175.5 -69.75 -175.0 -69.5" fill="#f20000" fill-rule="evenodd" stroke="none"/>
    <path d="M-165.0 -80.25 L-175.0 -69.5 -175.5 -69.75 -165.0 -80.25" fill="#ef0000" fill-rule="evenodd" stroke="none"/>
    <path d="M-317.15 -0.9 L-327.25 -0.9 -325.9 -19.65 -327.4 -77.65 -316.9 -68.25 -316.75 -68.15 -316.75 -67.9 -315.65 -18.75 -317.15 -0.9" fill="#c40000" fill-rule="evenodd" stroke="none"/>
    <path d="M-196.9 -12.25 L-196.75 -10.65 -197.25 -0.9 -209.4 -0.9 -208.75 -14.75 -208.9 -17.25 -208.65 -17.5 -208.75 -18.0 -208.75 -19.0 -206.5 -27.9 -206.65 -28.15 -195.15 -62.75 -194.65 -62.75 -193.75 -62.9 -189.25 -64.9 -183.5 -61.9 -196.65 -16.75 -196.75 -15.4 -198.15 -10.15 -197.9 -10.0 -196.9 -12.25" fill="#eb0000" fill-rule="evenodd" stroke="none"/>
    <path d="M-290.75 -20.15 L-288.0 -13.5 -288.0 -12.4 -287.65 -12.15 -287.5 -11.65 -287.4 -11.0 -287.0 -10.25 -287.4 -10.4 -287.4 -10.5 -287.5 -10.75 -287.4 -11.0 -287.65 -11.4 -287.75 -11.5 -287.9 -11.5 -288.0 -11.9 -288.0 -12.4 -291.0 -19.9 -290.75 -20.15 M-286.25 -8.25 L-284.5 -3.75 -286.25 -7.9 -286.4 -7.9 -286.25 -8.25" fill="#ab0000" fill-rule="evenodd" stroke="none"/>
  </g>
  <defs>
    <radialGradient cx="0" cy="0" gradientTransform="matrix(0.0786, 0.0, 0.0, 0.0786, -348.95, -248.6)" gradientUnits="userSpaceOnUse" id="gradient0" r="819.2" spreadMethod="pad">
      <stop offset="0.0" stop-color="#414141"/>
      <stop offset="1.0" stop-color="#292929"/>
    </radialGradient>
    <radialGradient cx="0" cy="0" gradientTransform="matrix(0.1456, 0.0, 0.0, 0.1456, -198.95, -218.95)" gradientUnits="userSpaceOnUse" id="gradient1" r="819.2" spreadMethod="pad">
      <stop offset="0.0" stop-color="#010101"/>
      <stop offset="1.0" stop-color="#000000"/>
    </radialGradient>
    <radialGradient cx="0" cy="0" gradientTransform="matrix(0.2789, 0.0, 0.0, 0.2789, -358.3, -297.4)" gradientUnits="userSpaceOnUse" id="gradient2" r="819.2" spreadMethod="pad">
      <stop offset="0.0" stop-color="#5a5a5a"/>
      <stop offset="1.0" stop-color="#1e1e1e"/>
    </radialGradient>
    <radialGradient cx="0" cy="0" gradientTransform="matrix(0.0498, 0.0, 0.0, 0.0498, -256.65, -201.55)" gradientUnits="userSpaceOnUse" id="gradient3" r="819.2" spreadMethod="pad">
      <stop offset="0.0" stop-color="#818181"/>
      <stop offset="1.0" stop-color="#323232"/>
    </radialGradient>
    <radialGradient cx="0" cy="0" gradientTransform="matrix(0.0318, 0.0, 0.0, 0.0318, -295.85, -190.5)" gradientUnits="userSpaceOnUse" id="gradient4" r="819.2" spreadMethod="pad">
      <stop offset="0.0" stop-color="#4a4a4a"/>
      <stop offset="1.0" stop-color="#090909"/>
    </radialGradient>
    <radialGradient cx="0" cy="0" gradientTransform="matrix(0.1577, 0.0, 0.0, 0.1577, -267.95, -189.95)" gradientUnits="userSpaceOnUse" id="gradient5" r="819.2" spreadMethod="pad">
      <stop offset="0.0" stop-color="#5c5c5c"/>
      <stop offset="1.0" stop-color="#000000"/>
    </radialGradient>
    <radialGradient cx="0" cy="0" gradientTransform="matrix(0.0525, 0.0, 0.0, 0.0525, -335.95, -170.65)" gradientUnits="userSpaceOnUse" id="gradient6" r="819.2" spreadMethod="pad">
      <stop offset="0.0" stop-color="#585858"/>
      <stop offset="1.0" stop-color="#323232"/>
    </radialGradient>
    <radialGradient cx="0" cy="0" gradientTransform="matrix(0.0765, 0.0, 0.0, 0.0765, -350.25, -163.4)" gradientUnits="userSpaceOnUse" id="gradient7" r="819.2" spreadMethod="pad">
      <stop offset="0.0" stop-color="#686868"/>
      <stop offset="1.0" stop-color="#000000"/>
    </radialGradient>
    <radialGradient cx="0" cy="0" gradientTransform="matrix(0.0188, 0.0, 0.0, 0.0188, -391.4, -141.3)" gradientUnits="userSpaceOnUse" id="gradient8" r="819.2" spreadMethod="pad">
      <stop offset="0.0" stop-color="#484848"/>
      <stop offset="1.0" stop-color="#131313"/>
    </radialGradient>
    <radialGradient cx="0" cy="0" gradientTransform="matrix(0.017, 0.0, 0.0, 0.017, -400.0, -146.15)" gradientUnits="userSpaceOnUse" id="gradient9" r="819.2" spreadMethod="pad">
      <stop offset="0.0" stop-color="#2d2d2d"/>
      <stop offset="1.0" stop-color="#0b0b0b"/>
    </radialGradient>
    <radialGradient cx="0" cy="0" gradientTransform="matrix(0.0285, 0.0, 0.0, 0.0285, -228.15, -206.25)" gradientUnits="userSpaceOnUse" id="gradient10" r="819.2" spreadMethod="pad">
      <stop offset="0.0" stop-color="#030303"/>
      <stop offset="1.0" stop-color="#000000"/>
    </radialGradient>
    <radialGradient cx="0" cy="0" gradientTransform="matrix(0.0202, 0.0, 0.0, 0.0202, -230.5, -191.2)" gradientUnits="userSpaceOnUse" id="gradient11" r="819.2" spreadMethod="pad">
      <stop offset="0.0" stop-color="#3c3c3c"/>
      <stop offset="1.0" stop-color="#000000"/>
    </radialGradient>
    <radialGradient cx="0" cy="0" gradientTransform="matrix(0.1603, 0.0, 0.0, 0.1603, -193.2, -69.05)" gradientUnits="userSpaceOnUse" id="gradient12" r="819.2" spreadMethod="pad">
      <stop offset="0.0" stop-color="#626262"/>
      <stop offset="1.0" stop-color="#141414"/>
    </radialGradient>
    <radialGradient cx="0" cy="0" gradientTransform="matrix(0.2339, 0.0, 0.0, 0.2339, -299.5, -2.2)" gradientUnits="userSpaceOnUse" id="gradient13" r="819.2" spreadMethod="pad">
      <stop offset="0.0" stop-color="#4a4a4a"/>
      <stop offset="1.0" stop-color="#000000"/>
    </radialGradient>
    <radialGradient cx="0" cy="0" gradientTransform="matrix(0.0331, 0.0, 0.0, 0.0331, -210.0, -182.2)" gradientUnits="userSpaceOnUse" id="gradient14" r="819.2" spreadMethod="pad">
      <stop offset="0.0" stop-color="#3f3f3f"/>
      <stop offset="1.0" stop-color="#282828"/>
    </radialGradient>
    <radialGradient cx="0" cy="0" gradientTransform="matrix(0.0588, 0.0, 0.0, 0.0588, -184.85, -175.8)" gradientUnits="userSpaceOnUse" id="gradient15" r="819.2" spreadMethod="pad">
      <stop offset="0.0" stop-color="#444444"/>
      <stop offset="1.0" stop-color="#222222"/>
    </radialGradient>
    <radialGradient cx="0" cy="0" gradientTransform="matrix(0.0762, 0.0, 0.0, 0.0762, -210.0, -182.2)" gradientUnits="userSpaceOnUse" id="gradient16" r="819.2" spreadMethod="pad">
      <stop offset="0.0" stop-color="#3f3f3f"/>
      <stop offset="1.0" stop-color="#000000"/>
    </radialGradient>
    <radialGradient cx="0" cy="0" gradientTransform="matrix(0.0565, 0.0, 0.0, 0.0565, -331.15, -169.5)" gradientUnits="userSpaceOnUse" id="gradient17" r="819.2" spreadMethod="pad">
      <stop offset="0.0" stop-color="#4c4c4c"/>
      <stop offset="1.0" stop-color="#1d1d1d"/>
    </radialGradient>
    <radialGradient cx="0" cy="0" gradientTransform="matrix(0.0119, 0.0, 0.0, 0.0119, -211.65, -185.4)" gradientUnits="userSpaceOnUse" id="gradient18" r="819.2" spreadMethod="pad">
      <stop offset="0.0" stop-color="#5b5b5b"/>
      <stop offset="1.0" stop-color="#000000"/>
    </radialGradient>
    <radialGradient cx="0" cy="0" gradientTransform="matrix(0.1297, 0.0, 0.0, 0.1297, -161.2, -158.3)" gradientUnits="userSpaceOnUse" id="gradient19" r="819.2" spreadMethod="pad">
      <stop offset="0.0" stop-color="#575757"/>
      <stop offset="1.0" stop-color="#262626"/>
    </radialGradient>
    <radialGradient cx="0" cy="0" gradientTransform="matrix(0.0512, 0.0, 0.0, 0.0512, -313.9, -152.45)" gradientUnits="userSpaceOnUse" id="gradient20" r="819.2" spreadMethod="pad">
      <stop offset="0.0" stop-color="#414141"/>
      <stop offset="1.0" stop-color="#1e1e1e"/>
    </radialGradient>
    <radialGradient cx="0" cy="0" gradientTransform="matrix(0.0313, 0.0, 0.0, 0.0313, -309.55, -128.6)" gradientUnits="userSpaceOnUse" id="gradient21" r="819.2" spreadMethod="pad">
      <stop offset="0.0" stop-color="#171717"/>
      <stop offset="1.0" stop-color="#000000"/>
    </radialGradient>
    <radialGradient cx="0" cy="0" gradientTransform="matrix(0.0414, 0.0, 0.0, 0.0414, -179.0, -175.35)" gradientUnits="userSpaceOnUse" id="gradient22" r="819.2" spreadMethod="pad">
      <stop offset="0.0" stop-color="#0d0d0d"/>
      <stop offset="1.0" stop-color="#000000"/>
    </radialGradient>
    <radialGradient cx="0" cy="0" gradientTransform="matrix(0.0286, 0.0, 0.0, 0.0286, -391.4, -141.3)" gradientUnits="userSpaceOnUse" id="gradient23" r="819.2" spreadMethod="pad">
      <stop offset="0.0" stop-color="#484848"/>
      <stop offset="1.0" stop-color="#181818"/>
    </radialGradient>
    <radialGradient cx="0" cy="0" gradientTransform="matrix(0.121, 0.0, 0.0, 0.121, -192.85, -114.3)" gradientUnits="userSpaceOnUse" id="gradient24" r="819.2" spreadMethod="pad">
      <stop offset="0.0" stop-color="#2f2f2f"/>
      <stop offset="1.0" stop-color="#000000"/>
    </radialGradient>
    <radialGradient cx="0" cy="0" gradientTransform="matrix(0.0429, 0.0, 0.0, 0.0429, -136.4, -77.05)" gradientUnits="userSpaceOnUse" id="gradient25" r="819.2" spreadMethod="pad">
      <stop offset="0.0" stop-color="#000000"/>
      <stop offset="1.0" stop-color="#000000"/>
    </radialGradient>
    <radialGradient cx="0" cy="0" gradientTransform="matrix(0.0959, 0.0, 0.0, 0.0959, -140.95, -8.75)" gradientUnits="userSpaceOnUse" id="gradient26" r="819.2" spreadMethod="pad">
      <stop offset="0.0" stop-color="#292929"/>
      <stop offset="1.0" stop-color="#000000"/>
    </radialGradient>
    <radialGradient cx="0" cy="0" gradientTransform="matrix(0.0622, 0.0, 0.0, 0.0622, -164.35, -93.85)" gradientUnits="userSpaceOnUse" id="gradient27" r="819.2" spreadMethod="pad">
      <stop offset="0.0" stop-color="#777777"/>
      <stop offset="1.0" stop-color="#000000"/>
    </radialGradient>
    <radialGradient cx="0" cy="0" gradientTransform="matrix(0.0298, 0.0, 0.0, 0.0298, -192.85, -114.3)" gradientUnits="userSpaceOnUse" id="gradient28" r="819.2" spreadMethod="pad">
      <stop offset="0.0" stop-color="#2f2f2f"/>
      <stop offset="1.0" stop-color="#000000"/>
    </radialGradient>
    <radialGradient cx="0" cy="0" gradientTransform="matrix(0.0423, 0.0, 0.0, 0.0423, -396.15, -108.3)" gradientUnits="userSpaceOnUse" id="gradient29" r="819.2" spreadMethod="pad">
      <stop offset="0.0" stop-color="#000000"/>
      <stop offset="1.0" stop-color="#000000"/>
    </radialGradient>
    <radialGradient cx="0" cy="0" gradientTransform="matrix(0.1272, 0.0, 0.0, 0.1272, -316.85, -74.65)" gradientUnits="userSpaceOnUse" id="gradient30" r="819.2" spreadMethod="pad">
      <stop offset="0.0" stop-color="#3e3e3e"/>
      <stop offset="1.0" stop-color="#000000"/>
    </radialGradient>
    <radialGradient cx="0" cy="0" gradientTransform="matrix(0.0702, 0.0, 0.0, 0.0702, -56.75, -40.0)" gradientUnits="userSpaceOnUse" id="gradient31" r="819.2" spreadMethod="pad">
      <stop offset="0.0" stop-color="#626262"/>
      <stop offset="1.0" stop-color="#000000"/>
    </radialGradient>
    <radialGradient cx="0" cy="0" gradientTransform="matrix(0.0568, 0.0, 0.0, 0.0568, -66.4, -22.85)" gradientUnits="userSpaceOnUse" id="gradient32" r="819.2" spreadMethod="pad">
      <stop offset="0.0" stop-color="#2f2f2f"/>
      <stop offset="1.0" stop-color="#000000"/>
    </radialGradient>
    <radialGradient cx="0" cy="0" gradientTransform="matrix(0.0724, 0.0, 0.0, 0.0724, -211.95, -12.85)" gradientUnits="userSpaceOnUse" id="gradient33" r="819.2" spreadMethod="pad">
      <stop offset="0.0" stop-color="#838383"/>
      <stop offset="1.0" stop-color="#313131"/>
    </radialGradient>
    <radialGradient cx="0" cy="0" gradientTransform="matrix(0.0369, 0.0, 0.0, 0.0369, -151.1, -1.0)" gradientUnits="userSpaceOnUse" id="gradient34" r="819.2" spreadMethod="pad">
      <stop offset="0.0" stop-color="#2d2d2d"/>
      <stop offset="1.0" stop-color="#1b1b1b"/>
    </radialGradient>
  </defs>
</svg>
