<?xml version="1.0" encoding="UTF-8" standalone="no"?>
<svg xmlns:xlink="http://www.w3.org/1999/xlink" height="299.1px" width="354.95px" xmlns="http://www.w3.org/2000/svg">
  <g transform="matrix(1.0, 0.0, 0.0, 1.0, 400.2, 300.0)">
    <path d="M-299.25 -226.0 L-295.0 -221.9 -303.25 -225.75 Q-306.9 -216.5 -308.4 -216.0 L-312.25 -227.0 -299.25 -226.0 M-309.25 -215.15 L-310.9 -214.0 Q-317.15 -212.65 -317.75 -213.65 L-320.9 -220.4 -326.75 -230.65 -309.25 -215.15" fill="url(#gradient0)" fill-rule="evenodd" stroke="none"/>
    <path d="M-201.75 -212.4 L-209.4 -208.65 -221.4 -205.75 -221.25 -206.65 -223.5 -207.25 -229.65 -208.0 -239.65 -207.75 -243.9 -208.25 -248.25 -208.0 -255.25 -208.4 -260.25 -208.0 -262.75 -208.25 -264.4 -207.65 -266.25 -207.9 -278.4 -212.0 -295.0 -221.9 -299.25 -226.0 -293.25 -225.5 -271.25 -227.25 -248.75 -214.25 -248.4 -215.15 -246.65 -232.0 -205.5 -212.15 -201.75 -212.4" fill="url(#gradient1)" fill-rule="evenodd" stroke="none"/>
    <path d="M-317.75 -213.65 L-337.25 -237.15 -344.0 -246.65 -354.25 -273.25 -354.25 -274.0 -355.65 -276.9 -357.9 -300.0 -123.5 -300.0 -123.4 -293.9 -125.5 -277.5 -135.65 -247.5 -143.75 -235.15 Q-144.25 -233.9 -146.75 -232.15 L-155.9 -219.15 -145.0 -235.65 -156.65 -226.25 -157.0 -226.25 -155.0 -233.5 -155.25 -233.9 -169.65 -215.75 -201.75 -212.4 -205.5 -212.15 -246.65 -232.0 -248.4 -215.15 -248.75 -214.25 -271.25 -227.25 -293.25 -225.5 -299.25 -226.0 -312.25 -227.0 -308.4 -216.0 -307.75 -214.0 -309.25 -215.15 -326.75 -230.65 -320.9 -220.4 -317.75 -213.65" fill="url(#gradient2)" fill-rule="evenodd" stroke="none"/>
    <path d="M-221.4 -205.75 L-221.65 -203.4 -221.4 -193.25 -221.15 -188.15 -232.15 -187.75 -252.15 -186.75 -264.25 -187.0 -262.15 -187.9 -278.4 -188.25 -276.9 -187.4 -288.0 -187.75 -277.9 -194.0 -277.65 -194.25 -270.5 -198.65 Q-265.15 -206.0 -266.25 -207.9 L-264.4 -207.65 -262.75 -208.25 -260.25 -208.0 -255.25 -208.4 -248.25 -208.0 -243.9 -208.25 -239.65 -207.75 -229.65 -208.0 -223.5 -207.25 -221.25 -206.65 -221.4 -205.75" fill="url(#gradient3)" fill-rule="evenodd" stroke="none"/>
    <path d="M-277.9 -194.0 L-288.0 -187.75 -296.4 -188.4 -277.9 -194.0" fill="url(#gradient4)" fill-rule="evenodd" stroke="none"/>
    <path d="M-288.0 -187.75 L-276.9 -187.4 -276.65 -187.25 -278.5 -176.9 -279.5 -146.15 -281.5 -113.5 -283.15 -67.5 -288.25 -67.75 -310.65 -71.0 -308.75 -122.9 -308.75 -124.15 -307.65 -149.5 -298.25 -182.75 -298.0 -183.15 -297.15 -186.4 -296.75 -187.75 -296.75 -187.9 -296.4 -188.4 -288.0 -187.75 M-264.25 -187.0 L-252.15 -186.75 -232.15 -187.75 -228.75 -145.4 -232.5 -60.0 -262.65 -64.0 -266.9 -65.15 -265.4 -99.25 -265.65 -100.65 -263.15 -143.65 -264.75 -164.4 -265.25 -167.0 -264.25 -187.0" fill="url(#gradient5)" fill-rule="evenodd" stroke="none"/>
    <path d="M-304.9 -185.4 L-302.5 -186.4 -296.75 -187.9 -296.75 -187.75 -304.9 -185.4" fill="url(#gradient6)" fill-rule="evenodd" stroke="none"/>
    <path d="M-328.0 -167.0 L-333.25 -168.15 -309.25 -183.25 Q-306.25 -185.5 -304.9 -185.4 L-296.75 -187.75 -297.15 -186.4 -328.0 -167.0" fill="url(#gradient7)" fill-rule="evenodd" stroke="none"/>
    <path d="M-221.65 -203.4 L-216.25 -190.65 -214.75 -188.9 -221.4 -193.25 -221.65 -203.4" fill="url(#gradient8)" fill-rule="evenodd" stroke="none"/>
    <path d="M-214.75 -188.9 L-211.0 -186.25 -211.75 -186.25 -220.75 -188.0 -221.0 -188.0 -221.15 -188.15 -221.4 -193.25 -214.75 -188.9" fill="url(#gradient9)" fill-rule="evenodd" stroke="none"/>
    <path d="M-232.15 -187.75 L-221.15 -188.15 -221.0 -188.0 -210.75 -154.75 -207.0 -117.5 -204.25 -117.25 -191.75 -117.75 -185.65 -112.65 -187.65 -105.5 -188.5 -97.15 -188.4 -88.65 -186.5 -79.75 -185.4 -77.4 -183.9 -70.25 -185.9 -66.75 -193.9 -64.25 -209.4 -62.25 -232.5 -60.0 -228.75 -145.4 -232.15 -187.75" fill="url(#gradient10)" fill-rule="evenodd" stroke="none"/>
    <path d="M-276.9 -187.4 L-278.4 -188.25 -262.15 -187.9 -264.25 -187.0 -265.25 -167.0 -264.75 -164.4 -263.15 -143.65 -265.65 -100.65 -265.4 -99.25 -266.9 -65.15 -271.0 -0.9 -287.0 -0.9 -283.15 -67.5 -281.5 -113.5 -279.5 -146.15 -278.5 -176.9 -276.65 -187.25 -276.9 -187.4" fill="url(#gradient11)" fill-rule="evenodd" stroke="none"/>
    <path d="M-221.0 -188.0 L-220.75 -188.0 -200.15 -179.0 -210.75 -154.75 -221.0 -188.0" fill="url(#gradient12)" fill-rule="evenodd" stroke="none"/>
    <path d="M-181.25 -165.15 L-188.5 -153.4 -195.4 -131.15 -207.0 -117.5 -210.75 -154.75 -200.15 -179.0 -181.25 -165.15" fill="url(#gradient13)" fill-rule="evenodd" stroke="none"/>
    <path d="M-170.65 -172.4 L-175.4 -172.75 -181.25 -165.15 -200.15 -179.0 -220.75 -188.0 -211.75 -186.25 -198.25 -183.4 -187.75 -181.25 -170.65 -172.4" fill="url(#gradient14)" fill-rule="evenodd" stroke="none"/>
    <path d="M-328.25 -137.4 L-329.15 -137.9 -329.25 -138.5 -328.0 -167.0 -297.15 -186.4 -298.0 -183.15 -298.25 -182.75 -314.5 -163.25 -309.4 -127.75 -328.25 -137.4" fill="url(#gradient15)" fill-rule="evenodd" stroke="none"/>
    <path d="M-383.65 -143.15 L-371.9 -148.65 Q-360.8 -154.5 -349.75 -160.4 L-333.25 -168.15 -328.0 -167.0 -329.25 -138.5 -329.15 -137.9 -328.25 -137.4 -311.15 -122.0 -329.0 -115.9 -340.9 -109.15 -352.15 -104.15 -363.15 -103.9 -394.9 -114.75 -393.25 -138.5 -383.65 -143.15" fill="url(#gradient16)" fill-rule="evenodd" stroke="none"/>
    <path d="M-211.0 -186.25 L-205.75 -186.0 Q-200.25 -185.15 -198.25 -183.4 L-211.75 -186.25 -211.0 -186.25" fill="url(#gradient17)" fill-rule="evenodd" stroke="none"/>
    <path d="M-298.25 -182.75 L-307.65 -149.5 -308.75 -124.15 -309.4 -127.75 -314.5 -163.25 -298.25 -182.75" fill="url(#gradient18)" fill-rule="evenodd" stroke="none"/>
    <path d="M-311.15 -122.0 L-328.25 -137.4 -309.4 -127.75 -308.75 -124.15 -308.75 -122.9 -311.15 -122.0" fill="url(#gradient19)" fill-rule="evenodd" stroke="none"/>
    <path d="M-71.15 -86.0 L-74.75 -84.5 -88.25 -74.4 -88.65 -74.4 -108.4 -93.65 -108.75 -93.65 -137.4 -120.75 -165.9 -145.4 -181.25 -165.15 -175.4 -172.75 -170.65 -172.4 -167.15 -170.15 -166.9 -169.9 -145.4 -154.9 -120.65 -134.9 -95.75 -111.65 -71.15 -86.0" fill="url(#gradient20)" fill-rule="evenodd" stroke="none"/>
    <path d="M-88.25 -74.4 L-74.75 -84.5 -71.15 -86.0 -45.25 -49.5 -45.75 -39.25 -54.9 -23.25 Q-54.9 -22.65 -58.0 -20.15 L-68.9 -19.15 -59.15 -36.25 -59.65 -46.0 -88.25 -74.4" fill="url(#gradient21)" fill-rule="evenodd" stroke="none"/>
    <path d="M-88.25 -74.4 L-59.65 -46.0 -59.15 -36.25 -68.9 -19.15 -91.25 -3.65 -94.5 -0.9 -122.65 -0.9 -129.75 -7.25 -123.25 -21.9 -123.0 -22.25 -120.25 -28.5 -110.75 -45.5 -124.4 -64.0 -123.75 -74.75 -88.65 -74.4 -88.25 -74.4" fill="url(#gradient22)" fill-rule="evenodd" stroke="none"/>
    <path d="M-181.25 -165.15 L-165.9 -145.4 -137.4 -120.75 -108.75 -93.65 -108.4 -93.65 -88.65 -74.4 -124.0 -84.25 -123.75 -74.75 -124.4 -64.0 -127.4 -65.9 -149.25 -87.4 -159.25 -94.15 -184.4 -112.0 -195.4 -131.15 -188.5 -153.4 -181.25 -165.15" fill="url(#gradient23)" fill-rule="evenodd" stroke="none"/>
    <path d="M-195.4 -131.15 L-184.4 -112.0 -185.65 -112.65 -191.75 -117.75 -204.25 -117.25 -207.0 -117.5 -195.4 -131.15" fill="url(#gradient24)" fill-rule="evenodd" stroke="none"/>
    <path d="M-390.15 -144.75 L-395.4 -144.9 -400.0 -144.15 -400.0 -153.5 -390.15 -144.75" fill="url(#gradient25)" fill-rule="evenodd" stroke="none"/>
    <path d="M-383.65 -143.15 L-393.25 -138.5 -400.0 -141.0 -400.0 -144.15 -395.4 -144.9 -390.15 -144.75 -383.65 -143.15" fill="url(#gradient26)" fill-rule="evenodd" stroke="none"/>
    <path d="M-393.25 -138.5 L-394.9 -114.75 -400.0 -117.5 -400.0 -141.0 -393.25 -138.5" fill="url(#gradient27)" fill-rule="evenodd" stroke="none"/>
    <path d="M-394.9 -114.75 L-363.15 -103.9 -399.25 -105.0 Q-400.6 -106.25 -400.0 -117.5 L-394.9 -114.75" fill="url(#gradient28)" fill-rule="evenodd" stroke="none"/>
    <path d="M-184.4 -112.0 L-159.25 -94.15 Q-163.0 -72.0 -187.75 -61.4 L-185.9 -66.75 -183.9 -70.25 -185.4 -77.4 -186.5 -79.75 -188.4 -88.65 -188.5 -97.15 -187.65 -105.5 -185.65 -112.65 -184.4 -112.0" fill="url(#gradient29)" fill-rule="evenodd" stroke="none"/>
    <path d="M-232.5 -60.0 L-209.4 -62.25 -193.9 -64.25 -185.9 -66.75 -187.75 -61.4 -204.15 -13.75 -204.65 -0.9 -232.9 -0.9 -232.5 -60.0" fill="url(#gradient30)" fill-rule="evenodd" stroke="none"/>
    <path d="M-123.75 -74.75 L-124.0 -84.25 -88.65 -74.4 -123.75 -74.75" fill="url(#gradient31)" fill-rule="evenodd" stroke="none"/>
    <path d="M-283.15 -67.5 L-287.0 -0.9 -311.4 -0.9 -310.25 -15.0 -310.65 -71.0 -288.25 -67.75 -283.15 -67.5 M-271.0 -0.9 L-266.9 -65.15 -262.65 -64.0 -232.5 -60.0 -232.9 -0.9 -271.0 -0.9" fill="url(#gradient32)" fill-rule="evenodd" stroke="none"/>
    <path d="M-123.25 -21.9 L-129.75 -7.25 -122.65 -0.9 -145.25 -0.9 -123.25 -21.9" fill="url(#gradient33)" fill-rule="evenodd" stroke="none"/>
    <path d="M-68.9 -19.15 L-58.0 -20.15 -81.4 -0.9 -94.5 -0.9 -91.25 -3.65 -68.9 -19.15" fill="url(#gradient34)" fill-rule="evenodd" stroke="none"/>
    <path d="M-219.9 -199.25 L-222.65 -199.5 -222.9 -199.65 -223.5 -199.65 -226.25 -199.9 -226.5 -200.0 -253.25 -202.0 -265.4 -202.15 -265.4 -202.0 -266.9 -202.0 -266.9 -201.9 -268.75 -201.65 -266.75 -204.65 -266.65 -205.0 -266.5 -206.25 -256.0 -206.25 -254.4 -205.9 -248.0 -202.0 -238.75 -201.5 -238.5 -201.4 -223.5 -200.4 -222.9 -200.4 -220.15 -200.0 -219.9 -199.25 M-281.75 -16.65 L-279.0 -20.4 -278.75 -21.15 -278.15 -21.75 -277.75 -22.65 -272.25 -30.25 -271.75 -31.5 -268.9 -35.4 -268.65 -36.15 -266.15 -39.5 -265.75 -40.4 -264.0 -42.9 -263.0 -43.65 -242.4 -49.4 -232.4 -54.5 -232.4 -54.65 -221.75 -60.15 -222.0 -28.25 -222.4 -26.5 -222.5 -0.9 -275.5 -0.9 -275.5 -1.15 -275.9 -1.9 -275.9 -2.0 -278.5 -8.0 -278.5 -8.4 -279.5 -10.25 -279.4 -10.9 -281.9 -16.25 -281.75 -16.65" fill="#9b0000" fill-opacity="0.9098039" fill-rule="evenodd" stroke="none"/>
    <path d="M-192.0 -194.15 L-198.9 -194.65 -210.25 -198.25 -219.9 -199.25 -220.15 -200.0 -203.75 -198.25 -192.0 -194.15 M-268.75 -201.65 L-269.65 -201.65 -269.65 -201.0 -269.15 -201.0 -269.9 -199.9 -276.65 -201.15 Q-276.65 -202.65 -272.15 -202.25 L-269.5 -206.15 -266.5 -206.25 -266.65 -205.0 -266.75 -204.65 -268.75 -201.65" fill="#ab0000" fill-opacity="0.9098039" fill-rule="evenodd" stroke="none"/>
    <path d="M-192.0 -194.15 L-191.65 -194.0 -185.4 -180.15 -188.25 -181.25 -193.25 -182.4 -198.9 -194.65 -192.0 -194.15" fill="#ae0000" fill-opacity="0.9098039" fill-rule="evenodd" stroke="none"/>
    <path d="M-321.25 -74.5 L-323.9 -84.0 -318.4 -94.15 -309.65 -101.65 -309.5 -101.65 -309.65 -97.15 -309.75 -96.9 -310.25 -83.5 -312.15 -83.25 -312.9 -82.75 -313.15 -82.65 -313.4 -82.5 -313.65 -82.4 -313.9 -82.25 -314.15 -82.15 -314.4 -82.0 -314.65 -81.9 -317.75 -80.4 -318.0 -80.25 -318.25 -80.15 -318.4 -79.9 -318.5 -79.65 -318.65 -79.4 -318.75 -79.15 -318.9 -78.9 -319.0 -78.65 -319.15 -78.4 -319.25 -78.15 -319.4 -77.9 -319.5 -77.65 -319.65 -77.4 -319.75 -77.15 -319.9 -76.9 -320.0 -76.65 -320.15 -76.4 -320.25 -76.15 -320.4 -75.9 -320.5 -75.65 -320.65 -75.4 -320.75 -75.15 -320.9 -74.9 -321.0 -74.65 -321.25 -74.5" fill="#f00000" fill-opacity="0.9098039" fill-rule="evenodd" stroke="none"/>
    <path d="M-310.25 -83.5 L-310.75 -65.4 -321.15 -73.9 -321.25 -74.5 -321.0 -74.65 -320.9 -74.9 -320.75 -75.15 -320.65 -75.4 -320.5 -75.65 -320.4 -75.9 -320.25 -76.15 -320.15 -76.4 -320.0 -76.65 -319.9 -76.9 -319.75 -77.15 -319.65 -77.4 -319.5 -77.65 -319.4 -77.9 -319.25 -78.15 -319.15 -78.4 -319.0 -78.65 -318.9 -78.9 -318.75 -79.15 -318.65 -79.4 -318.5 -79.65 -318.4 -79.9 -318.25 -80.15 -318.0 -80.25 -317.75 -80.4 -314.65 -81.9 -314.4 -82.0 -314.15 -82.15 -313.9 -82.25 -313.65 -82.4 -313.4 -82.5 -313.15 -82.65 -312.9 -82.75 -312.15 -83.25 -310.25 -83.5" fill="#f30000" fill-opacity="0.9098039" fill-rule="evenodd" stroke="none"/>
    <path d="M-221.75 -60.15 L-215.9 -61.65 -214.9 -61.75 -196.25 -66.15 -194.25 -67.25 -194.15 -67.5 -192.9 -68.15 -192.65 -68.4 -185.75 -72.5 -185.65 -72.75 -184.65 -73.15 -178.75 -76.75 -177.0 -79.5 -176.65 -79.9 -176.4 -80.4 -175.15 -82.0 -174.65 -83.4 -168.5 -92.65 -167.65 -93.75 -165.0 -98.15 -164.15 -97.75 -162.4 -96.25 -159.25 -94.15 -159.75 -91.65 -160.0 -90.9 -159.9 -90.65 -162.65 -83.65 -167.0 -76.5 -167.4 -76.15 -168.25 -75.0 -172.25 -70.5 -174.4 -69.15 -174.75 -69.15 -174.65 -69.0 -174.9 -68.75 -175.15 -68.65 -175.4 -68.4 -175.5 -68.4 -175.75 -68.15 -176.4 -67.75 -179.65 -65.4 -179.9 -65.25 -180.15 -65.0 -181.25 -64.25 -182.15 -63.9 -182.5 -63.65 -183.15 -63.4 -184.4 -62.75 -187.75 -61.4 -204.15 -13.25 -204.0 -12.65 -204.65 -0.9 -222.5 -0.9 -222.4 -26.5 -222.0 -28.25 -221.75 -60.15" fill="#d80000" fill-opacity="0.9098039" fill-rule="evenodd" stroke="none"/>
    <path d="M-159.25 -94.15 L-153.5 -90.0 -153.4 -86.25 -154.4 -85.15 -172.4 -66.25 -172.9 -65.9 -178.4 -60.0 -184.4 -62.75 -183.15 -63.4 -182.5 -63.65 -182.15 -63.9 -181.25 -64.25 -180.15 -65.0 -179.9 -65.25 -179.65 -65.4 -176.4 -67.75 -175.75 -68.15 -175.5 -68.4 -175.4 -68.4 -175.15 -68.65 -174.9 -68.75 -174.65 -69.0 -174.75 -69.15 -174.4 -69.15 -172.25 -70.5 -168.25 -75.0 -167.4 -76.15 -167.0 -76.5 -162.65 -83.65 -159.9 -90.65 -160.0 -90.9 -159.75 -91.65 -159.25 -94.15" fill="#ea0000" fill-rule="evenodd" stroke="none"/>
    <path d="M-192.5 -0.9 L-204.65 -0.9 -204.0 -12.65 -204.15 -13.25 -187.75 -61.4 -184.4 -62.75 -178.4 -60.0 -191.9 -15.4 -192.5 -0.9" fill="#e80000" fill-rule="evenodd" stroke="none"/>
    <path d="M-154.4 -85.15 L-167.4 -67.75 -191.5 -6.65 Q-191.25 -1.25 -192.5 -0.9 L-191.9 -15.4 -178.4 -60.0 -172.9 -65.9 -172.4 -66.25 -154.4 -85.15" fill="#ef0000" fill-rule="evenodd" stroke="none"/>
    <path d="M-310.65 -65.0 L-308.65 -63.65 -308.4 -63.15 -306.25 -61.65 -294.9 -50.5 -294.75 -50.15 -293.4 -49.15 -292.25 -46.25 -292.0 -44.75 -289.65 -38.65 -289.4 -37.4 -285.65 -27.4 -285.4 -26.25 -281.75 -16.65 -281.9 -16.25 -281.75 -15.25 -279.5 -10.25 -279.4 -9.75 -279.25 -9.5 -279.25 -9.25 -279.15 -9.25 -278.5 -8.4 -278.5 -8.0 -278.25 -7.0 -277.65 -5.9 -277.5 -5.25 -277.4 -5.25 -275.9 -2.0 -275.9 -1.9 -275.5 -1.15 -275.5 -0.9 -311.4 -0.9 -310.25 -15.0 -310.65 -65.0" fill="#ad0000" fill-opacity="0.9098039" fill-rule="evenodd" stroke="none"/>
    <path d="M-310.75 -65.4 L-310.65 -65.25 -310.65 -65.0 -310.25 -15.0 -311.4 -0.9 -321.9 -0.9 -320.9 -12.9 -321.15 -73.9 -310.75 -65.4" fill="#c30000" fill-rule="evenodd" stroke="none"/>
    <path d="M-281.9 -16.25 L-279.4 -10.9 -279.5 -10.25 -278.5 -8.4 -279.15 -9.25 -279.25 -9.25 -279.25 -9.5 -279.4 -9.75 -279.5 -10.25 -281.75 -15.25 -281.9 -16.25 M-278.5 -8.0 L-275.9 -2.0 -277.4 -5.25 -277.5 -5.25 -277.65 -5.9 -278.25 -7.0 -278.5 -8.0" fill="#ab0000" fill-rule="evenodd" stroke="none"/>
  </g>
  <defs>
    <radialGradient cx="0" cy="0" gradientTransform="matrix(0.0583, 0.0, 0.0, 0.0583, -332.45, -240.4)" gradientUnits="userSpaceOnUse" id="gradient0" r="819.2" spreadMethod="pad">
      <stop offset="0.0" stop-color="#393939"/>
      <stop offset="1.0" stop-color="#2a2a2a"/>
    </radialGradient>
    <radialGradient cx="0" cy="0" gradientTransform="matrix(0.1431, 0.0, 0.0, 0.1431, -307.75, -233.6)" gradientUnits="userSpaceOnUse" id="gradient1" r="819.2" spreadMethod="pad">
      <stop offset="0.0" stop-color="#0b0b0b"/>
      <stop offset="1.0" stop-color="#000000"/>
    </radialGradient>
    <radialGradient cx="0" cy="0" gradientTransform="matrix(0.276, 0.0, 0.0, 0.276, -349.6, -296.0)" gradientUnits="userSpaceOnUse" id="gradient2" r="819.2" spreadMethod="pad">
      <stop offset="0.0" stop-color="#5a5a5a"/>
      <stop offset="1.0" stop-color="#1e1e1e"/>
    </radialGradient>
    <radialGradient cx="0" cy="0" gradientTransform="matrix(0.0502, 0.0, 0.0, 0.0502, -248.55, -198.8)" gradientUnits="userSpaceOnUse" id="gradient3" r="819.2" spreadMethod="pad">
      <stop offset="0.0" stop-color="#818181"/>
      <stop offset="1.0" stop-color="#323232"/>
    </radialGradient>
    <radialGradient cx="0" cy="0" gradientTransform="matrix(0.0295, 0.0, 0.0, 0.0295, -288.2, -187.8)" gradientUnits="userSpaceOnUse" id="gradient4" r="819.2" spreadMethod="pad">
      <stop offset="0.0" stop-color="#4a4a4a"/>
      <stop offset="1.0" stop-color="#090909"/>
    </radialGradient>
    <radialGradient cx="0" cy="0" gradientTransform="matrix(0.1583, 0.0, 0.0, 0.1583, -258.55, -187.05)" gradientUnits="userSpaceOnUse" id="gradient5" r="819.2" spreadMethod="pad">
      <stop offset="0.0" stop-color="#5c5c5c"/>
      <stop offset="1.0" stop-color="#000000"/>
    </radialGradient>
    <radialGradient cx="0" cy="0" gradientTransform="matrix(0.0108, 0.0, 0.0, 0.0108, -301.8, -186.65)" gradientUnits="userSpaceOnUse" id="gradient6" r="819.2" spreadMethod="pad">
      <stop offset="0.0" stop-color="#000000"/>
      <stop offset="1.0" stop-color="#000000"/>
    </radialGradient>
    <radialGradient cx="0" cy="0" gradientTransform="matrix(0.0551, 0.0, 0.0, 0.0551, -333.35, -168.2)" gradientUnits="userSpaceOnUse" id="gradient7" r="819.2" spreadMethod="pad">
      <stop offset="0.0" stop-color="#585858"/>
      <stop offset="1.0" stop-color="#323232"/>
    </radialGradient>
    <radialGradient cx="0" cy="0" gradientTransform="matrix(0.0266, 0.0, 0.0, 0.0266, -221.7, -203.55)" gradientUnits="userSpaceOnUse" id="gradient8" r="819.2" spreadMethod="pad">
      <stop offset="0.0" stop-color="#030303"/>
      <stop offset="1.0" stop-color="#000000"/>
    </radialGradient>
    <radialGradient cx="0" cy="0" gradientTransform="matrix(0.015, 0.0, 0.0, 0.015, -221.2, -188.2)" gradientUnits="userSpaceOnUse" id="gradient9" r="819.2" spreadMethod="pad">
      <stop offset="0.0" stop-color="#3c3c3c"/>
      <stop offset="1.0" stop-color="#000000"/>
    </radialGradient>
    <radialGradient cx="0" cy="0" gradientTransform="matrix(0.158, 0.0, 0.0, 0.158, -185.95, -66.9)" gradientUnits="userSpaceOnUse" id="gradient10" r="819.2" spreadMethod="pad">
      <stop offset="0.0" stop-color="#626262"/>
      <stop offset="1.0" stop-color="#141414"/>
    </radialGradient>
    <radialGradient cx="0" cy="0" gradientTransform="matrix(0.2321, 0.0, 0.0, 0.2321, -291.55, -1.0)" gradientUnits="userSpaceOnUse" id="gradient11" r="819.2" spreadMethod="pad">
      <stop offset="0.0" stop-color="#474747"/>
      <stop offset="1.0" stop-color="#000000"/>
    </radialGradient>
    <radialGradient cx="0" cy="0" gradientTransform="matrix(0.0328, 0.0, 0.0, 0.0328, -200.1, -179.15)" gradientUnits="userSpaceOnUse" id="gradient12" r="819.2" spreadMethod="pad">
      <stop offset="0.0" stop-color="#3f3f3f"/>
      <stop offset="1.0" stop-color="#282828"/>
    </radialGradient>
    <radialGradient cx="0" cy="0" gradientTransform="matrix(0.076, 0.0, 0.0, 0.076, -200.1, -179.15)" gradientUnits="userSpaceOnUse" id="gradient13" r="819.2" spreadMethod="pad">
      <stop offset="0.0" stop-color="#3f3f3f"/>
      <stop offset="1.0" stop-color="#000000"/>
    </radialGradient>
    <radialGradient cx="0" cy="0" gradientTransform="matrix(0.059, 0.0, 0.0, 0.059, -175.45, -172.8)" gradientUnits="userSpaceOnUse" id="gradient14" r="819.2" spreadMethod="pad">
      <stop offset="0.0" stop-color="#444444"/>
      <stop offset="1.0" stop-color="#222222"/>
    </radialGradient>
    <radialGradient cx="0" cy="0" gradientTransform="matrix(0.0574, 0.0, 0.0, 0.0574, -328.0, -167.0)" gradientUnits="userSpaceOnUse" id="gradient15" r="819.2" spreadMethod="pad">
      <stop offset="0.0" stop-color="#4c4c4c"/>
      <stop offset="1.0" stop-color="#1d1d1d"/>
    </radialGradient>
    <radialGradient cx="0" cy="0" gradientTransform="matrix(0.0797, 0.0, 0.0, 0.0797, -348.65, -160.9)" gradientUnits="userSpaceOnUse" id="gradient16" r="819.2" spreadMethod="pad">
      <stop offset="0.0" stop-color="#686868"/>
      <stop offset="1.0" stop-color="#000000"/>
    </radialGradient>
    <radialGradient cx="0" cy="0" gradientTransform="matrix(0.0127, 0.0, 0.0, 0.0127, -203.0, -182.45)" gradientUnits="userSpaceOnUse" id="gradient17" r="819.2" spreadMethod="pad">
      <stop offset="0.0" stop-color="#5b5b5b"/>
      <stop offset="1.0" stop-color="#000000"/>
    </radialGradient>
    <radialGradient cx="0" cy="0" gradientTransform="matrix(0.0512, 0.0, 0.0, 0.0512, -307.65, -149.55)" gradientUnits="userSpaceOnUse" id="gradient18" r="819.2" spreadMethod="pad">
      <stop offset="0.0" stop-color="#414141"/>
      <stop offset="1.0" stop-color="#1e1e1e"/>
    </radialGradient>
    <radialGradient cx="0" cy="0" gradientTransform="matrix(0.0325, 0.0, 0.0, 0.0325, -305.5, -125.75)" gradientUnits="userSpaceOnUse" id="gradient19" r="819.2" spreadMethod="pad">
      <stop offset="0.0" stop-color="#171717"/>
      <stop offset="1.0" stop-color="#000000"/>
    </radialGradient>
    <radialGradient cx="0" cy="0" gradientTransform="matrix(0.1291, 0.0, 0.0, 0.1291, -151.05, -155.35)" gradientUnits="userSpaceOnUse" id="gradient20" r="819.2" spreadMethod="pad">
      <stop offset="0.0" stop-color="#575757"/>
      <stop offset="1.0" stop-color="#262626"/>
    </radialGradient>
    <radialGradient cx="0" cy="0" gradientTransform="matrix(0.0673, 0.0, 0.0, 0.0673, -45.85, -39.4)" gradientUnits="userSpaceOnUse" id="gradient21" r="819.2" spreadMethod="pad">
      <stop offset="0.0" stop-color="#626262"/>
      <stop offset="1.0" stop-color="#000000"/>
    </radialGradient>
    <radialGradient cx="0" cy="0" gradientTransform="matrix(0.0976, 0.0, 0.0, 0.0976, -129.7, -7.5)" gradientUnits="userSpaceOnUse" id="gradient22" r="819.2" spreadMethod="pad">
      <stop offset="0.0" stop-color="#292929"/>
      <stop offset="1.0" stop-color="#000000"/>
    </radialGradient>
    <radialGradient cx="0" cy="0" gradientTransform="matrix(0.1253, 0.0, 0.0, 0.1253, -184.05, -111.7)" gradientUnits="userSpaceOnUse" id="gradient23" r="819.2" spreadMethod="pad">
      <stop offset="0.0" stop-color="#2f2f2f"/>
      <stop offset="1.0" stop-color="#000000"/>
    </radialGradient>
    <radialGradient cx="0" cy="0" gradientTransform="matrix(0.0288, 0.0, 0.0, 0.0288, -184.05, -111.7)" gradientUnits="userSpaceOnUse" id="gradient24" r="819.2" spreadMethod="pad">
      <stop offset="0.0" stop-color="#2f2f2f"/>
      <stop offset="1.0" stop-color="#000000"/>
    </radialGradient>
    <radialGradient cx="0" cy="0" gradientTransform="matrix(0.0123, 0.0, 0.0, 0.0123, -400.0, -144.15)" gradientUnits="userSpaceOnUse" id="gradient25" r="819.2" spreadMethod="pad">
      <stop offset="0.0" stop-color="#262626"/>
      <stop offset="1.0" stop-color="#0e0e0e"/>
    </radialGradient>
    <radialGradient cx="0" cy="0" gradientTransform="matrix(0.0178, 0.0, 0.0, 0.0178, -393.2, -138.55)" gradientUnits="userSpaceOnUse" id="gradient26" r="819.2" spreadMethod="pad">
      <stop offset="0.0" stop-color="#484848"/>
      <stop offset="1.0" stop-color="#131313"/>
    </radialGradient>
    <radialGradient cx="0" cy="0" gradientTransform="matrix(0.0292, 0.0, 0.0, 0.0292, -393.2, -138.55)" gradientUnits="userSpaceOnUse" id="gradient27" r="819.2" spreadMethod="pad">
      <stop offset="0.0" stop-color="#484848"/>
      <stop offset="1.0" stop-color="#0f0f0f"/>
    </radialGradient>
    <radialGradient cx="0" cy="0" gradientTransform="matrix(0.0446, 0.0, 0.0, 0.0446, -399.25, -105.05)" gradientUnits="userSpaceOnUse" id="gradient28" r="819.2" spreadMethod="pad">
      <stop offset="0.0" stop-color="#000000"/>
      <stop offset="1.0" stop-color="#000000"/>
    </radialGradient>
    <radialGradient cx="0" cy="0" gradientTransform="matrix(0.0572, 0.0, 0.0, 0.0572, -159.6, -91.95)" gradientUnits="userSpaceOnUse" id="gradient29" r="819.2" spreadMethod="pad">
      <stop offset="0.0" stop-color="#777777"/>
      <stop offset="1.0" stop-color="#000000"/>
    </radialGradient>
    <radialGradient cx="0" cy="0" gradientTransform="matrix(0.0725, 0.0, 0.0, 0.0725, -205.25, -10.7)" gradientUnits="userSpaceOnUse" id="gradient30" r="819.2" spreadMethod="pad">
      <stop offset="0.0" stop-color="#838383"/>
      <stop offset="1.0" stop-color="#262626"/>
    </radialGradient>
    <radialGradient cx="0" cy="0" gradientTransform="matrix(0.0433, 0.0, 0.0, 0.0433, -123.9, -74.9)" gradientUnits="userSpaceOnUse" id="gradient31" r="819.2" spreadMethod="pad">
      <stop offset="0.0" stop-color="#000000"/>
      <stop offset="1.0" stop-color="#000000"/>
    </radialGradient>
    <radialGradient cx="0" cy="0" gradientTransform="matrix(0.1278, 0.0, 0.0, 0.1278, -310.65, -71.1)" gradientUnits="userSpaceOnUse" id="gradient32" r="819.2" spreadMethod="pad">
      <stop offset="0.0" stop-color="#3e3e3e"/>
      <stop offset="1.0" stop-color="#000000"/>
    </radialGradient>
    <radialGradient cx="0" cy="0" gradientTransform="matrix(0.0332, 0.0, 0.0, 0.0332, -138.25, -1.0)" gradientUnits="userSpaceOnUse" id="gradient33" r="819.2" spreadMethod="pad">
      <stop offset="0.0" stop-color="#2c2c2c"/>
      <stop offset="1.0" stop-color="#161616"/>
    </radialGradient>
    <radialGradient cx="0" cy="0" gradientTransform="matrix(0.0442, 0.0, 0.0, 0.0442, -90.45, -4.2)" gradientUnits="userSpaceOnUse" id="gradient34" r="819.2" spreadMethod="pad">
      <stop offset="0.0" stop-color="#000000"/>
      <stop offset="1.0" stop-color="#000000"/>
    </radialGradient>
  </defs>
</svg>
