<?xml version="1.0" encoding="UTF-8" standalone="no"?>
<svg xmlns:xlink="http://www.w3.org/1999/xlink" height="299.1px" width="359.6px" xmlns="http://www.w3.org/2000/svg">
  <g transform="matrix(1.0, 0.0, 0.0, 1.0, 400.0, 300.0)">
    <path d="M-142.25 -232.75 L-142.25 -233.15 -141.4 -233.75 -142.25 -232.75" fill="url(#gradient0)" fill-rule="evenodd" stroke="none"/>
    <path d="M-314.9 -212.4 L-341.25 -245.9 -352.4 -276.4 -354.5 -300.0 -120.65 -300.0 -120.4 -291.9 -122.4 -275.65 -125.25 -266.0 -132.75 -245.65 -147.55 -225.05 -142.25 -232.75 -141.4 -233.75 -142.25 -233.15 -152.75 -224.5 -150.5 -231.5 -150.75 -231.9 -165.25 -214.0 -200.15 -210.5 -239.75 -230.4 -242.4 -213.25 -242.75 -212.65 -264.5 -225.65 -287.4 -224.0 -296.65 -224.75 -307.0 -225.65 -304.9 -218.5 -303.4 -212.5 -306.5 -215.15 -322.15 -229.5 -322.5 -229.5 -317.65 -219.75 -314.9 -212.4" fill="url(#gradient1)" fill-rule="evenodd" stroke="none"/>
    <path d="M-200.15 -210.5 L-206.5 -207.4 -218.0 -204.5 -218.0 -205.25 -219.5 -205.75 -226.25 -206.5 -236.0 -206.4 -239.65 -206.9 -244.75 -206.65 -251.4 -207.0 -257.5 -206.65 -259.4 -206.9 -260.75 -206.4 -263.25 -206.65 -276.4 -211.15 -288.75 -218.4 -291.4 -220.0 -296.65 -224.75 -287.4 -224.0 -264.5 -225.65 -242.75 -212.65 -242.4 -213.25 -239.75 -230.4 -200.15 -210.5" fill="url(#gradient2)" fill-rule="evenodd" stroke="none"/>
    <path d="M-306.5 -215.15 L-308.9 -212.9 Q-314.25 -211.65 -314.9 -212.4 L-317.65 -219.75 -322.5 -229.5 -322.15 -229.5 -306.5 -215.15 M-304.9 -218.5 L-307.0 -225.65 -296.65 -224.75 -291.4 -220.0 -288.75 -218.4 -289.65 -218.5 -302.25 -224.75 -304.9 -218.5" fill="url(#gradient3)" fill-rule="evenodd" stroke="none"/>
    <path d="M-218.0 -204.5 L-218.25 -201.9 -218.0 -191.9 -216.5 -186.65 -226.9 -186.15 -246.5 -185.25 -259.65 -185.5 -257.65 -186.4 -274.15 -186.9 -272.4 -185.9 -284.15 -186.25 -273.75 -193.0 -273.5 -193.25 -267.5 -197.0 Q-262.0 -205.0 -263.25 -206.65 L-260.75 -206.4 -259.4 -206.9 -257.5 -206.65 -251.4 -207.0 -244.75 -206.65 -239.65 -206.9 -236.0 -206.4 -226.25 -206.5 -219.5 -205.75 -218.0 -205.25 -218.0 -204.5" fill="url(#gradient4)" fill-rule="evenodd" stroke="none"/>
    <path d="M-273.75 -193.0 L-284.15 -186.25 -293.15 -187.0 -273.75 -193.0" fill="url(#gradient5)" fill-rule="evenodd" stroke="none"/>
    <path d="M-303.75 -183.9 L-300.25 -185.4 -293.15 -187.0 -293.15 -186.75 -303.75 -183.9" fill="url(#gradient6)" fill-rule="evenodd" stroke="none"/>
    <path d="M-331.65 -166.9 L-308.75 -181.15 -303.75 -183.9 -293.15 -186.75 -293.4 -185.75 -326.15 -165.65 -331.65 -166.9" fill="url(#gradient7)" fill-rule="evenodd" stroke="none"/>
    <path d="M-226.9 -186.15 L-223.25 -142.5 -226.9 -58.5 -259.15 -62.65 -262.25 -63.65 -260.15 -117.4 -258.4 -143.0 -260.5 -165.4 -259.65 -185.5 -246.5 -185.25 -226.9 -186.15 M-284.15 -186.25 L-272.4 -185.9 -274.25 -175.15 -275.15 -144.9 -275.9 -137.65 -278.9 -65.9 -283.5 -66.0 -307.25 -69.25 -305.4 -122.4 -305.4 -122.75 -304.25 -148.15 -294.25 -182.9 -294.0 -183.4 -293.4 -185.75 -293.15 -186.75 -293.15 -187.0 -284.15 -186.25" fill="url(#gradient8)" fill-rule="evenodd" stroke="none"/>
    <path d="M-218.25 -201.9 L-214.25 -190.25 -213.4 -188.65 -218.0 -191.9 -218.25 -201.9" fill="url(#gradient9)" fill-rule="evenodd" stroke="none"/>
    <path d="M-213.4 -188.65 L-208.5 -185.0 -216.25 -186.5 -216.5 -186.65 -218.0 -191.9 -213.4 -188.65" fill="url(#gradient10)" fill-rule="evenodd" stroke="none"/>
    <path d="M-205.5 -153.25 L-202.0 -116.25 -202.15 -115.9 -187.65 -116.5 -181.75 -111.75 -183.75 -104.5 -184.65 -94.75 -184.5 -87.0 -180.5 -69.5 -182.4 -65.65 -191.15 -62.9 -226.9 -58.5 -223.25 -142.5 -226.9 -186.15 -216.5 -186.65 -216.25 -186.5 -216.4 -186.0 -205.5 -153.25" fill="url(#gradient11)" fill-rule="evenodd" stroke="none"/>
    <path d="M-272.4 -185.9 L-274.15 -186.9 -257.65 -186.4 -259.65 -185.5 -260.5 -165.4 -258.4 -143.0 -260.15 -117.4 -262.25 -63.65 -266.25 -0.9 -282.65 -0.9 -278.9 -65.9 -275.9 -137.65 -275.15 -144.9 -274.25 -175.15 -272.4 -185.9" fill="url(#gradient12)" fill-rule="evenodd" stroke="none"/>
    <path d="M-195.25 -177.5 L-205.5 -153.25 -216.4 -186.0 -216.25 -186.5 -195.25 -177.5" fill="url(#gradient13)" fill-rule="evenodd" stroke="none"/>
    <path d="M-176.15 -163.65 L-183.15 -152.15 -190.15 -129.75 -202.0 -116.25 -205.5 -153.25 -195.25 -177.5 -176.15 -163.65" fill="url(#gradient14)" fill-rule="evenodd" stroke="none"/>
    <path d="M-166.25 -170.9 L-170.9 -171.15 -176.15 -163.65 -195.25 -177.5 -216.25 -186.5 -208.5 -185.0 -208.4 -185.0 -207.65 -184.9 -194.5 -182.0 -183.5 -179.75 -166.25 -170.9" fill="url(#gradient15)" fill-rule="evenodd" stroke="none"/>
    <path d="M-207.65 -184.9 L-201.5 -184.5 -198.0 -183.65 -194.5 -182.0 -207.65 -184.9" fill="url(#gradient16)" fill-rule="evenodd" stroke="none"/>
    <path d="M-326.15 -165.65 L-293.4 -185.75 -294.0 -183.4 -294.25 -182.9 -297.9 -179.0 -312.0 -161.75 -306.0 -125.75 -326.5 -136.0 -327.4 -136.65 -326.15 -165.65" fill="url(#gradient17)" fill-rule="evenodd" stroke="none"/>
    <path d="M-294.25 -182.9 L-304.25 -148.15 -305.4 -122.75 -306.0 -125.75 -312.0 -161.75 -297.9 -179.0 -294.25 -182.9" fill="url(#gradient18)" fill-rule="evenodd" stroke="none"/>
    <path d="M-309.75 -120.65 L-326.5 -136.0 -306.0 -125.75 -305.4 -122.75 -305.4 -122.4 -309.75 -120.65" fill="url(#gradient19)" fill-rule="evenodd" stroke="none"/>
    <path d="M-384.0 -141.65 L-370.9 -147.65 -349.5 -158.65 Q-340.55 -162.75 -331.65 -166.9 L-326.15 -165.65 -327.4 -136.65 -326.5 -136.0 -309.75 -120.65 -327.5 -114.9 -342.0 -106.9 -352.25 -102.5 -363.25 -102.25 -395.25 -113.15 -393.75 -137.15 -384.0 -141.65" fill="url(#gradient20)" fill-rule="evenodd" stroke="none"/>
    <path d="M-66.15 -85.15 L-70.75 -82.5 -82.25 -73.5 -82.5 -73.65 -131.4 -119.15 -160.4 -143.65 -174.65 -162.15 -176.15 -163.65 -170.9 -171.15 -166.25 -170.9 -141.65 -154.0 -116.65 -134.15 -90.65 -110.25 -66.15 -85.15" fill="url(#gradient21)" fill-rule="evenodd" stroke="none"/>
    <path d="M-391.4 -143.4 L-397.15 -143.5 -400.0 -143.0 -400.0 -150.75 -391.4 -143.4" fill="url(#gradient22)" fill-rule="evenodd" stroke="none"/>
    <path d="M-384.0 -141.65 L-393.75 -137.15 -400.0 -139.25 -400.0 -143.0 -397.15 -143.5 -391.4 -143.4 -384.0 -141.65" fill="url(#gradient23)" fill-rule="evenodd" stroke="none"/>
    <path d="M-400.0 -139.25 L-393.75 -137.15 -395.25 -113.15 -400.0 -115.65 -400.0 -139.25" fill="url(#gradient24)" fill-rule="evenodd" stroke="none"/>
    <path d="M-395.25 -113.15 L-363.25 -102.25 -400.0 -103.25 -400.0 -115.65 -395.25 -113.15" fill="url(#gradient25)" fill-rule="evenodd" stroke="none"/>
    <path d="M-176.15 -163.65 L-174.65 -162.15 -160.4 -143.65 -131.4 -119.15 -82.5 -73.65 -82.9 -73.65 -118.0 -83.15 -117.9 -73.9 -119.4 -63.25 -122.9 -65.25 -144.75 -86.4 -156.75 -94.25 -180.0 -110.75 -190.15 -129.75 -183.15 -152.15 -176.15 -163.65" fill="url(#gradient26)" fill-rule="evenodd" stroke="none"/>
    <path d="M-82.25 -73.5 L-53.9 -45.65 -53.25 -36.0 -63.0 -19.0 -86.0 -3.15 -88.75 -0.9 -117.5 -0.9 -124.4 -6.9 -124.15 -7.5 -124.0 -7.65 -122.4 -11.25 -116.0 -24.4 -115.5 -25.25 -105.4 -45.5 -119.4 -63.25 -117.9 -73.9 -82.9 -73.65 -82.5 -73.65 -82.25 -73.5" fill="url(#gradient27)" fill-rule="evenodd" stroke="none"/>
    <path d="M-117.9 -73.9 L-118.0 -83.15 -82.9 -73.65 -117.9 -73.9" fill="url(#gradient28)" fill-rule="evenodd" stroke="none"/>
    <path d="M-180.0 -110.75 L-156.75 -94.25 Q-159.9 -72.5 -184.15 -60.9 L-182.4 -65.65 -180.5 -69.5 -184.5 -87.0 -184.65 -94.75 -183.75 -104.5 -181.75 -111.75 -180.0 -110.75" fill="url(#gradient29)" fill-rule="evenodd" stroke="none"/>
    <path d="M-202.0 -116.25 L-190.15 -129.75 -180.0 -110.75 -181.75 -111.75 -187.65 -116.5 -202.15 -115.9 -202.0 -116.25" fill="url(#gradient30)" fill-rule="evenodd" stroke="none"/>
    <path d="M-226.9 -58.5 L-191.15 -62.9 -182.4 -65.65 -184.15 -60.9 -201.9 -8.9 -202.0 -8.15 -202.15 -2.4 -202.5 -0.9 -227.65 -0.9 -226.9 -58.5" fill="url(#gradient31)" fill-rule="evenodd" stroke="none"/>
    <path d="M-82.25 -73.5 L-70.75 -82.5 -66.15 -85.15 -40.4 -49.25 -40.75 -39.75 -41.25 -38.5 -49.75 -23.5 -52.5 -20.15 -63.0 -19.0 -53.25 -36.0 -53.9 -45.65 -82.25 -73.5" fill="url(#gradient32)" fill-rule="evenodd" stroke="none"/>
    <path d="M-278.9 -65.9 L-282.65 -0.9 -308.25 -0.9 -307.4 -12.0 -307.25 -69.25 -283.5 -66.0 -278.9 -65.9 M-266.25 -0.9 L-262.25 -63.65 -259.15 -62.65 -226.9 -58.5 -227.65 -0.9 -266.25 -0.9" fill="url(#gradient33)" fill-rule="evenodd" stroke="none"/>
    <path d="M-116.0 -24.4 L-115.9 -24.75 -115.9 -24.9 -115.5 -25.25 -116.0 -24.4" fill="url(#gradient34)" fill-rule="evenodd" stroke="none"/>
    <path d="M-122.4 -11.25 L-118.15 -22.15 -115.9 -24.75 -116.0 -24.4 -122.4 -11.25" fill="url(#gradient35)" fill-rule="evenodd" stroke="none"/>
    <path d="M-118.15 -22.15 L-122.4 -11.25 -124.0 -7.65 -124.15 -7.5 -124.4 -6.9 -117.5 -0.9 -140.9 -0.9 -118.15 -22.15" fill="url(#gradient36)" fill-rule="evenodd" stroke="none"/>
    <path d="M-63.0 -19.0 L-52.5 -20.15 -76.0 -0.9 -88.75 -0.9 -86.0 -3.15 -63.0 -19.0" fill="url(#gradient37)" fill-rule="evenodd" stroke="none"/>
    <path d="M-217.0 -198.65 L-216.9 -197.9 -218.15 -198.0 -218.4 -198.15 -219.25 -198.15 -233.9 -199.5 -234.15 -199.65 -247.4 -200.4 -247.65 -200.5 -261.5 -200.75 -261.75 -200.65 -265.65 -200.25 -263.75 -203.4 -263.65 -203.75 -263.5 -204.9 -251.5 -204.75 -250.0 -204.5 -243.5 -200.5 -242.65 -200.5 -217.0 -198.65 M-277.15 -14.9 L-274.5 -18.25 -274.4 -18.9 -273.25 -20.0 -273.0 -20.75 -267.9 -27.9 -267.4 -28.9 -264.25 -33.15 -264.15 -33.75 -261.25 -37.5 -261.0 -38.15 -258.75 -41.4 -258.0 -41.9 -236.65 -47.9 -227.25 -52.75 -227.0 -53.0 -226.9 -53.0 -215.65 -58.75 -216.15 -29.4 -216.4 -27.9 -216.25 -25.9 -216.9 -0.9 -271.4 -0.9 -271.4 -1.15 -272.9 -4.65 -274.4 -8.15 -274.9 -9.0 -274.9 -9.4 -274.9 -10.0 -277.15 -14.5 -277.15 -14.9" fill="#9b0000" fill-opacity="0.9098039" fill-rule="evenodd" stroke="none"/>
    <path d="M-189.4 -192.75 L-196.25 -193.25 -207.4 -196.9 -216.9 -197.9 -217.0 -198.65 -199.65 -196.75 -189.4 -192.75 M-265.65 -200.25 L-266.5 -199.9 -266.0 -199.65 -266.75 -198.5 -273.65 -199.9 Q-273.4 -201.15 -268.4 -200.9 L-265.65 -204.65 -263.5 -204.9 -263.65 -203.75 -263.75 -203.4 -265.65 -200.25" fill="#ab0000" fill-opacity="0.9098039" fill-rule="evenodd" stroke="none"/>
    <path d="M-196.25 -193.25 L-189.4 -192.75 -189.0 -192.75 -183.25 -179.65 -184.0 -179.75 -184.5 -179.9 -184.65 -179.9 -191.15 -181.4 -196.25 -193.25" fill="#ae0000" fill-opacity="0.9098039" fill-rule="evenodd" stroke="none"/>
    <path d="M-318.0 -72.65 L-321.65 -82.25 -316.75 -92.65 -306.15 -102.15 -306.0 -102.15 -306.9 -82.4 -310.65 -81.75 -311.75 -81.0 -312.0 -80.9 -312.65 -80.5 -312.9 -80.4 -313.5 -80.0 -313.75 -79.9 -314.4 -79.5 -314.65 -79.4 -315.25 -79.0 -315.5 -78.9 -316.15 -78.5 -316.25 -78.4 -317.15 -75.15 -317.25 -74.65 -317.4 -74.25 -317.75 -72.75 -318.0 -72.65" fill="#f00000" fill-opacity="0.9098039" fill-rule="evenodd" stroke="none"/>
    <path d="M-306.9 -82.4 L-306.75 -82.4 -307.25 -63.65 -317.9 -72.15 -318.0 -72.65 -317.75 -72.75 -317.4 -74.25 -317.25 -74.65 -317.15 -75.15 -316.25 -78.4 -316.15 -78.5 -315.5 -78.9 -315.25 -79.0 -314.65 -79.4 -314.4 -79.5 -313.75 -79.9 -313.5 -80.0 -312.9 -80.4 -312.65 -80.5 -312.0 -80.9 -311.75 -81.0 -310.65 -81.75 -306.9 -82.4" fill="#f30000" fill-opacity="0.9098039" fill-rule="evenodd" stroke="none"/>
    <path d="M-215.0 -58.9 L-208.5 -60.65 -207.5 -60.75 -204.5 -61.5 -204.5 -61.65 -204.25 -61.65 -191.25 -64.75 -190.0 -65.4 -189.9 -65.65 -189.0 -66.0 -188.75 -66.4 -182.25 -70.4 -182.0 -70.75 -181.0 -71.15 -179.9 -72.0 -173.9 -75.75 -172.25 -79.15 -172.0 -79.25 -172.0 -79.4 -171.9 -79.5 -172.0 -79.65 -171.25 -80.15 -163.75 -93.0 -163.0 -94.0 -161.5 -97.15 -161.25 -97.5 -161.0 -97.25 -159.5 -96.25 -159.25 -96.0 -156.75 -94.25 -157.4 -90.75 -160.5 -82.5 -163.9 -76.5 -165.0 -75.25 -165.4 -74.9 -170.4 -69.25 -172.75 -67.65 -172.9 -67.65 -173.25 -67.25 -179.25 -62.9 -180.15 -62.75 -182.5 -62.4 -183.5 -62.4 -183.65 -62.15 -215.0 -58.9" fill="#d80000" fill-opacity="0.9098039" fill-rule="evenodd" stroke="none"/>
    <path d="M-215.65 -58.75 L-215.0 -58.9 -183.65 -62.15 -183.5 -62.4 -182.5 -62.4 -180.15 -62.75 -180.65 -62.4 -182.0 -61.65 -184.15 -60.9 -184.4 -60.15 -184.25 -59.9 -202.0 -9.4 -201.9 -9.4 -201.9 -8.9 -202.0 -8.15 -202.0 -7.9 -201.9 -7.15 -202.25 -0.9 -216.9 -0.9 -216.25 -25.9 -216.4 -27.9 -216.15 -29.4 -215.65 -58.75" fill="#d60000" fill-opacity="0.9098039" fill-rule="evenodd" stroke="none"/>
    <path d="M-180.15 -62.75 L-179.25 -62.9 -171.5 -63.9 -175.5 -59.5 -175.9 -59.15 -182.0 -61.65 -180.65 -62.4 -180.15 -62.75" fill="#e80000" fill-rule="evenodd" stroke="none"/>
    <path d="M-156.75 -94.25 L-151.75 -90.9 -151.4 -85.5 -152.25 -84.4 -153.9 -83.0 -171.15 -64.15 -171.5 -63.9 -179.25 -62.9 -173.25 -67.25 -172.9 -67.65 -172.75 -67.65 -170.4 -69.25 -165.4 -74.9 -165.0 -75.25 -163.9 -76.5 -160.5 -82.5 -157.4 -90.75 -156.75 -94.25" fill="#ea0000" fill-rule="evenodd" stroke="none"/>
    <path d="M-163.65 -66.9 L-188.0 -5.75 -188.4 -0.9 -190.15 -0.9 -189.5 -14.65 -175.9 -59.15 -175.5 -59.5 -171.5 -63.9 -171.15 -64.15 -164.0 -66.65 -163.65 -66.9" fill="#ed0000" fill-rule="evenodd" stroke="none"/>
    <path d="M-152.25 -84.4 L-163.65 -66.9 -164.0 -66.65 -171.15 -64.15 -153.9 -83.0 -152.25 -84.4" fill="#ef0000" fill-rule="evenodd" stroke="none"/>
    <path d="M-308.25 -0.9 L-318.9 -0.9 -318.15 -10.75 -317.9 -72.15 -307.25 -63.65 -307.4 -13.15 -308.25 -0.9" fill="#c30000" fill-rule="evenodd" stroke="none"/>
    <path d="M-190.15 -0.9 L-202.25 -0.9 -201.9 -7.15 -202.0 -7.9 -202.0 -8.15 -201.9 -8.9 -201.9 -9.4 -202.0 -9.4 -184.25 -59.9 -184.4 -60.15 -184.15 -60.9 -182.0 -61.65 -175.9 -59.15 -189.5 -14.65 -190.15 -0.9" fill="#e70000" fill-rule="evenodd" stroke="none"/>
    <path d="M-307.25 -63.65 L-305.25 -62.25 -305.0 -61.75 -302.65 -60.15 -290.9 -49.15 -290.75 -48.75 -289.25 -47.65 -288.25 -45.65 -287.9 -43.9 -285.25 -37.5 -285.15 -36.4 -281.25 -26.65 -281.15 -25.5 -277.15 -14.9 -277.15 -14.5 Q-277.5 -13.9 -275.4 -9.9 L-274.9 -9.4 -274.9 -9.0 -274.75 -8.4 -274.65 -8.4 -274.4 -8.15 -273.65 -6.25 -273.4 -5.25 -272.9 -4.65 -272.9 -4.15 -272.75 -4.15 -271.4 -1.15 -271.4 -0.9 -308.25 -0.9 -307.4 -13.15 -307.25 -63.65" fill="#ad0000" fill-opacity="0.9098039" fill-rule="evenodd" stroke="none"/>
    <path d="M-277.15 -14.5 L-274.9 -10.0 -274.9 -9.4 -275.4 -9.9 Q-277.5 -13.9 -277.15 -14.5 M-274.9 -9.0 L-274.4 -8.15 -272.9 -4.65 -271.4 -1.15 -272.75 -4.15 -272.9 -4.15 -272.9 -4.65 -273.4 -5.25 -273.65 -6.25 -274.4 -8.15 -274.65 -8.4 -274.75 -8.4 -274.9 -9.0" fill="#ab0000" fill-rule="evenodd" stroke="none"/>
  </g>
  <defs>
    <radialGradient cx="0" cy="0" gradientTransform="matrix(0.0218, 0.0, 0.0, 0.0218, -135.05, -247.9)" gradientUnits="userSpaceOnUse" id="gradient0" r="819.2" spreadMethod="pad">
      <stop offset="0.0" stop-color="#363636"/>
      <stop offset="1.0" stop-color="#303030"/>
    </radialGradient>
    <radialGradient cx="0" cy="0" gradientTransform="matrix(0.2738, 0.0, 0.0, 0.2738, -344.8, -295.2)" gradientUnits="userSpaceOnUse" id="gradient1" r="819.2" spreadMethod="pad">
      <stop offset="0.0" stop-color="#5a5a5a"/>
      <stop offset="1.0" stop-color="#1e1e1e"/>
    </radialGradient>
    <radialGradient cx="0" cy="0" gradientTransform="matrix(0.144, 0.0, 0.0, 0.144, -305.2, -232.5)" gradientUnits="userSpaceOnUse" id="gradient2" r="819.2" spreadMethod="pad">
      <stop offset="0.0" stop-color="#0b0b0b"/>
      <stop offset="1.0" stop-color="#000000"/>
    </radialGradient>
    <radialGradient cx="0" cy="0" gradientTransform="matrix(0.069, 0.0, 0.0, 0.069, -330.75, -239.5)" gradientUnits="userSpaceOnUse" id="gradient3" r="819.2" spreadMethod="pad">
      <stop offset="0.0" stop-color="#393939"/>
      <stop offset="1.0" stop-color="#222222"/>
    </radialGradient>
    <radialGradient cx="0" cy="0" gradientTransform="matrix(0.0504, 0.0, 0.0, 0.0504, -244.35, -197.35)" gradientUnits="userSpaceOnUse" id="gradient4" r="819.2" spreadMethod="pad">
      <stop offset="0.0" stop-color="#818181"/>
      <stop offset="1.0" stop-color="#323232"/>
    </radialGradient>
    <radialGradient cx="0" cy="0" gradientTransform="matrix(0.0283, 0.0, 0.0, 0.0283, -284.1, -186.4)" gradientUnits="userSpaceOnUse" id="gradient5" r="819.2" spreadMethod="pad">
      <stop offset="0.0" stop-color="#4a4a4a"/>
      <stop offset="1.0" stop-color="#090909"/>
    </radialGradient>
    <radialGradient cx="0" cy="0" gradientTransform="matrix(0.012, 0.0, 0.0, 0.012, -300.0, -185.45)" gradientUnits="userSpaceOnUse" id="gradient6" r="819.2" spreadMethod="pad">
      <stop offset="0.0" stop-color="#000000"/>
      <stop offset="1.0" stop-color="#000000"/>
    </radialGradient>
    <radialGradient cx="0" cy="0" gradientTransform="matrix(0.0564, 0.0, 0.0, 0.0564, -331.7, -166.95)" gradientUnits="userSpaceOnUse" id="gradient7" r="819.2" spreadMethod="pad">
      <stop offset="0.0" stop-color="#585858"/>
      <stop offset="1.0" stop-color="#323232"/>
    </radialGradient>
    <radialGradient cx="0" cy="0" gradientTransform="matrix(0.1584, 0.0, 0.0, 0.1584, -253.65, -185.55)" gradientUnits="userSpaceOnUse" id="gradient8" r="819.2" spreadMethod="pad">
      <stop offset="0.0" stop-color="#5c5c5c"/>
      <stop offset="1.0" stop-color="#000000"/>
    </radialGradient>
    <radialGradient cx="0" cy="0" gradientTransform="matrix(0.0256, 0.0, 0.0, 0.0256, -218.35, -202.15)" gradientUnits="userSpaceOnUse" id="gradient9" r="819.2" spreadMethod="pad">
      <stop offset="0.0" stop-color="#030303"/>
      <stop offset="1.0" stop-color="#000000"/>
    </radialGradient>
    <radialGradient cx="0" cy="0" gradientTransform="matrix(0.0125, 0.0, 0.0, 0.0125, -216.5, -186.7)" gradientUnits="userSpaceOnUse" id="gradient10" r="819.2" spreadMethod="pad">
      <stop offset="0.0" stop-color="#3c3c3c"/>
      <stop offset="1.0" stop-color="#000000"/>
    </radialGradient>
    <radialGradient cx="0" cy="0" gradientTransform="matrix(0.1567, 0.0, 0.0, 0.1567, -182.35, -65.85)" gradientUnits="userSpaceOnUse" id="gradient11" r="819.2" spreadMethod="pad">
      <stop offset="0.0" stop-color="#626262"/>
      <stop offset="1.0" stop-color="#141414"/>
    </radialGradient>
    <radialGradient cx="0" cy="0" gradientTransform="matrix(0.2305, 0.0, 0.0, 0.2305, -287.2, -1.0)" gradientUnits="userSpaceOnUse" id="gradient12" r="819.2" spreadMethod="pad">
      <stop offset="0.0" stop-color="#464646"/>
      <stop offset="1.0" stop-color="#000000"/>
    </radialGradient>
    <radialGradient cx="0" cy="0" gradientTransform="matrix(0.0327, 0.0, 0.0, 0.0327, -195.15, -177.65)" gradientUnits="userSpaceOnUse" id="gradient13" r="819.2" spreadMethod="pad">
      <stop offset="0.0" stop-color="#3f3f3f"/>
      <stop offset="1.0" stop-color="#282828"/>
    </radialGradient>
    <radialGradient cx="0" cy="0" gradientTransform="matrix(0.0758, 0.0, 0.0, 0.0758, -195.15, -177.65)" gradientUnits="userSpaceOnUse" id="gradient14" r="819.2" spreadMethod="pad">
      <stop offset="0.0" stop-color="#3f3f3f"/>
      <stop offset="1.0" stop-color="#000000"/>
    </radialGradient>
    <radialGradient cx="0" cy="0" gradientTransform="matrix(0.0589, 0.0, 0.0, 0.0589, -170.8, -171.3)" gradientUnits="userSpaceOnUse" id="gradient15" r="819.2" spreadMethod="pad">
      <stop offset="0.0" stop-color="#444444"/>
      <stop offset="1.0" stop-color="#222222"/>
    </radialGradient>
    <radialGradient cx="0" cy="0" gradientTransform="matrix(0.0132, 0.0, 0.0, 0.0132, -198.65, -180.95)" gradientUnits="userSpaceOnUse" id="gradient16" r="819.2" spreadMethod="pad">
      <stop offset="0.0" stop-color="#5b5b5b"/>
      <stop offset="1.0" stop-color="#000000"/>
    </radialGradient>
    <radialGradient cx="0" cy="0" gradientTransform="matrix(0.0577, 0.0, 0.0, 0.0577, -326.05, -165.75)" gradientUnits="userSpaceOnUse" id="gradient17" r="819.2" spreadMethod="pad">
      <stop offset="0.0" stop-color="#4c4c4c"/>
      <stop offset="1.0" stop-color="#1d1d1d"/>
    </radialGradient>
    <radialGradient cx="0" cy="0" gradientTransform="matrix(0.0512, 0.0, 0.0, 0.0512, -304.2, -148.1)" gradientUnits="userSpaceOnUse" id="gradient18" r="819.2" spreadMethod="pad">
      <stop offset="0.0" stop-color="#414141"/>
      <stop offset="1.0" stop-color="#1e1e1e"/>
    </radialGradient>
    <radialGradient cx="0" cy="0" gradientTransform="matrix(0.033, 0.0, 0.0, 0.033, -303.2, -124.3)" gradientUnits="userSpaceOnUse" id="gradient19" r="819.2" spreadMethod="pad">
      <stop offset="0.0" stop-color="#171717"/>
      <stop offset="1.0" stop-color="#000000"/>
    </radialGradient>
    <radialGradient cx="0" cy="0" gradientTransform="matrix(0.0812, 0.0, 0.0, 0.0812, -347.5, -159.65)" gradientUnits="userSpaceOnUse" id="gradient20" r="819.2" spreadMethod="pad">
      <stop offset="0.0" stop-color="#686868"/>
      <stop offset="1.0" stop-color="#000000"/>
    </radialGradient>
    <radialGradient cx="0" cy="0" gradientTransform="matrix(0.1285, 0.0, 0.0, 0.1285, -146.1, -153.9)" gradientUnits="userSpaceOnUse" id="gradient21" r="819.2" spreadMethod="pad">
      <stop offset="0.0" stop-color="#575757"/>
      <stop offset="1.0" stop-color="#262626"/>
    </radialGradient>
    <radialGradient cx="0" cy="0" gradientTransform="matrix(0.0106, 0.0, 0.0, 0.0106, -400.0, -143.05)" gradientUnits="userSpaceOnUse" id="gradient22" r="819.2" spreadMethod="pad">
      <stop offset="0.0" stop-color="#242424"/>
      <stop offset="1.0" stop-color="#101010"/>
    </radialGradient>
    <radialGradient cx="0" cy="0" gradientTransform="matrix(0.0173, 0.0, 0.0, 0.0173, -393.7, -137.15)" gradientUnits="userSpaceOnUse" id="gradient23" r="819.2" spreadMethod="pad">
      <stop offset="0.0" stop-color="#484848"/>
      <stop offset="1.0" stop-color="#131313"/>
    </radialGradient>
    <radialGradient cx="0" cy="0" gradientTransform="matrix(0.0294, 0.0, 0.0, 0.0294, -393.7, -137.15)" gradientUnits="userSpaceOnUse" id="gradient24" r="819.2" spreadMethod="pad">
      <stop offset="0.0" stop-color="#484848"/>
      <stop offset="1.0" stop-color="#0d0d0d"/>
    </radialGradient>
    <radialGradient cx="0" cy="0" gradientTransform="matrix(0.0453, 0.0, 0.0, 0.0453, -400.0, -103.4)" gradientUnits="userSpaceOnUse" id="gradient25" r="819.2" spreadMethod="pad">
      <stop offset="0.0" stop-color="#000000"/>
      <stop offset="1.0" stop-color="#000000"/>
    </radialGradient>
    <radialGradient cx="0" cy="0" gradientTransform="matrix(0.1271, 0.0, 0.0, 0.1271, -179.7, -110.45)" gradientUnits="userSpaceOnUse" id="gradient26" r="819.2" spreadMethod="pad">
      <stop offset="0.0" stop-color="#2f2f2f"/>
      <stop offset="1.0" stop-color="#000000"/>
    </radialGradient>
    <radialGradient cx="0" cy="0" gradientTransform="matrix(0.0981, 0.0, 0.0, 0.0981, -124.3, -7.05)" gradientUnits="userSpaceOnUse" id="gradient27" r="819.2" spreadMethod="pad">
      <stop offset="0.0" stop-color="#292929"/>
      <stop offset="1.0" stop-color="#000000"/>
    </radialGradient>
    <radialGradient cx="0" cy="0" gradientTransform="matrix(0.0434, 0.0, 0.0, 0.0434, -117.9, -73.9)" gradientUnits="userSpaceOnUse" id="gradient28" r="819.2" spreadMethod="pad">
      <stop offset="0.0" stop-color="#000000"/>
      <stop offset="1.0" stop-color="#000000"/>
    </radialGradient>
    <radialGradient cx="0" cy="0" gradientTransform="matrix(0.0563, 0.0, 0.0, 0.0563, -157.3, -91.05)" gradientUnits="userSpaceOnUse" id="gradient29" r="819.2" spreadMethod="pad">
      <stop offset="0.0" stop-color="#777777"/>
      <stop offset="1.0" stop-color="#000000"/>
    </radialGradient>
    <radialGradient cx="0" cy="0" gradientTransform="matrix(0.0283, 0.0, 0.0, 0.0283, -179.7, -110.45)" gradientUnits="userSpaceOnUse" id="gradient30" r="819.2" spreadMethod="pad">
      <stop offset="0.0" stop-color="#2f2f2f"/>
      <stop offset="1.0" stop-color="#000000"/>
    </radialGradient>
    <radialGradient cx="0" cy="0" gradientTransform="matrix(0.0725, 0.0, 0.0, 0.0725, -201.85, -9.75)" gradientUnits="userSpaceOnUse" id="gradient31" r="819.2" spreadMethod="pad">
      <stop offset="0.0" stop-color="#838383"/>
      <stop offset="1.0" stop-color="#242424"/>
    </radialGradient>
    <radialGradient cx="0" cy="0" gradientTransform="matrix(0.0657, 0.0, 0.0, 0.0657, -40.95, -39.2)" gradientUnits="userSpaceOnUse" id="gradient32" r="819.2" spreadMethod="pad">
      <stop offset="0.0" stop-color="#626262"/>
      <stop offset="1.0" stop-color="#000000"/>
    </radialGradient>
    <radialGradient cx="0" cy="0" gradientTransform="matrix(0.1281, 0.0, 0.0, 0.1281, -307.25, -69.35)" gradientUnits="userSpaceOnUse" id="gradient33" r="819.2" spreadMethod="pad">
      <stop offset="0.0" stop-color="#3e3e3e"/>
      <stop offset="1.0" stop-color="#000000"/>
    </radialGradient>
    <radialGradient cx="0" cy="0" gradientTransform="matrix(0.0628, 0.0, 0.0, 0.0628, -124.3, -7.05)" gradientUnits="userSpaceOnUse" id="gradient34" r="819.2" spreadMethod="pad">
      <stop offset="0.0" stop-color="#292929"/>
      <stop offset="1.0" stop-color="#010101"/>
    </radialGradient>
    <radialGradient cx="0" cy="0" gradientTransform="matrix(0.0381, 0.0, 0.0, 0.0381, -124.3, -7.05)" gradientUnits="userSpaceOnUse" id="gradient35" r="819.2" spreadMethod="pad">
      <stop offset="0.0" stop-color="#292929"/>
      <stop offset="1.0" stop-color="#000000"/>
    </radialGradient>
    <radialGradient cx="0" cy="0" gradientTransform="matrix(0.0317, 0.0, 0.0, 0.0317, -132.25, -1.0)" gradientUnits="userSpaceOnUse" id="gradient36" r="819.2" spreadMethod="pad">
      <stop offset="0.0" stop-color="#2c2c2c"/>
      <stop offset="1.0" stop-color="#161616"/>
    </radialGradient>
    <radialGradient cx="0" cy="0" gradientTransform="matrix(0.0439, 0.0, 0.0, 0.0439, -84.75, -4.05)" gradientUnits="userSpaceOnUse" id="gradient37" r="819.2" spreadMethod="pad">
      <stop offset="0.0" stop-color="#000000"/>
      <stop offset="1.0" stop-color="#000000"/>
    </radialGradient>
  </defs>
</svg>
