<?xml version="1.0" encoding="UTF-8" standalone="no"?>
<svg xmlns:xlink="http://www.w3.org/1999/xlink" height="299.1px" width="364.25px" xmlns="http://www.w3.org/2000/svg">
  <g transform="matrix(1.0, 0.0, 0.0, 1.0, 400.0, 300.0)">
    <path d="M-140.25 -230.0 L-148.9 -222.9 Q-146.0 -229.15 -146.4 -230.0 L-161.15 -212.4 -194.0 -208.75 -195.9 -209.65 -232.75 -228.65 -236.65 -211.0 -258.15 -224.0 -280.9 -222.5 -293.75 -223.5 -301.65 -224.25 -301.4 -223.4 -299.0 -211.25 -304.0 -215.5 -317.9 -228.25 -313.65 -217.75 -311.9 -210.9 -322.25 -223.5 -330.4 -234.4 -330.5 -235.0 -334.75 -240.25 -335.25 -241.4 -338.0 -244.65 -348.75 -275.4 -349.5 -278.9 -351.25 -300.0 -117.15 -300.0 Q-117.15 -260.65 -137.15 -232.75 L-140.25 -230.0" fill="url(#gradient0)" fill-rule="evenodd" stroke="none"/>
    <path d="M-137.15 -232.75 L-149.65 -215.65 -149.5 -216.25 -140.0 -229.65 -140.25 -230.0 -137.15 -232.75" fill="url(#gradient1)" fill-rule="evenodd" stroke="none"/>
    <path d="M-311.9 -210.9 L-313.65 -217.75 -317.9 -228.25 -304.0 -215.5 Q-304.0 -214.4 -306.65 -211.75 L-311.9 -210.9 M-301.4 -223.4 L-301.65 -224.25 -293.75 -223.5 -291.15 -221.0 -288.25 -217.65 -288.0 -218.5 -287.15 -218.0 -287.75 -217.25 -288.4 -217.4 -300.9 -223.75 -301.4 -223.4" fill="url(#gradient2)" fill-rule="evenodd" stroke="none"/>
    <path d="M-195.9 -209.65 L-203.65 -206.0 -214.65 -203.25 -214.75 -203.9 -216.25 -204.4 -222.0 -205.15 -231.5 -204.9 -236.4 -205.5 -241.75 -205.25 -247.4 -205.65 -253.9 -205.25 -255.9 -205.5 -257.5 -205.0 -260.25 -205.25 -273.4 -209.9 -287.15 -218.0 -288.0 -218.5 -291.15 -221.0 -293.75 -223.5 -280.9 -222.5 -258.15 -224.0 -236.65 -211.0 -232.75 -228.65 -195.9 -209.65" fill="url(#gradient3)" fill-rule="evenodd" stroke="none"/>
    <path d="M-214.65 -203.25 L-214.9 -200.25 -214.9 -190.75 -214.5 -190.25 -211.75 -185.15 -221.65 -184.65 -240.9 -183.75 -254.65 -184.15 -252.65 -184.9 -269.65 -185.4 -268.15 -184.5 -279.9 -184.9 -269.9 -191.9 -269.9 -192.0 -269.65 -192.0 -269.65 -192.15 -264.5 -195.5 Q-259.25 -203.65 -260.25 -205.25 L-257.5 -205.0 -255.9 -205.5 -253.9 -205.25 -247.4 -205.65 -241.75 -205.25 -236.4 -205.5 -231.5 -204.9 -222.0 -205.15 -216.25 -204.4 -214.75 -203.9 -214.65 -203.25" fill="url(#gradient4)" fill-rule="evenodd" stroke="none"/>
    <path d="M-269.65 -192.15 L-269.65 -192.0 -269.9 -192.0 -269.9 -191.9 -279.9 -184.9 -289.4 -185.65 -288.4 -186.0 -288.4 -186.15 -288.15 -186.15 -288.0 -186.15 -288.0 -186.25 -287.5 -186.25 -269.9 -192.0 -269.65 -192.15" fill="url(#gradient5)" fill-rule="evenodd" stroke="none"/>
    <path d="M-330.0 -165.5 L-302.75 -182.25 -301.65 -182.65 -289.15 -186.0 -288.75 -186.0 -288.4 -186.15 -288.4 -186.0 -289.4 -185.65 -289.65 -185.0 -324.0 -164.4 -330.0 -165.5 M-288.15 -186.15 L-288.0 -186.25 -288.0 -186.15 -288.15 -186.15" fill="url(#gradient6)" fill-rule="evenodd" stroke="none"/>
    <path d="M-301.65 -182.65 L-298.4 -184.15 -289.15 -186.0 -301.65 -182.65" fill="url(#gradient7)" fill-rule="evenodd" stroke="none"/>
    <path d="M-214.9 -200.25 L-211.65 -188.25 -214.5 -190.25 -214.9 -190.75 -214.9 -200.25" fill="url(#gradient8)" fill-rule="evenodd" stroke="none"/>
    <path d="M-211.65 -188.25 L-206.0 -183.9 -211.4 -185.0 -211.75 -185.15 -214.5 -190.25 -211.65 -188.25" fill="url(#gradient9)" fill-rule="evenodd" stroke="none"/>
    <path d="M-211.75 -185.15 L-200.25 -151.9 -197.4 -114.75 -183.25 -115.25 -178.0 -111.0 -180.0 -103.0 -180.75 -94.75 -180.75 -87.15 -179.25 -77.75 -178.25 -75.0 -178.25 -73.4 -177.25 -68.65 -178.9 -64.65 -185.9 -62.0 -199.4 -59.9 -221.4 -57.15 -217.65 -142.65 -221.65 -184.65 -211.75 -185.15" fill="url(#gradient10)" fill-rule="evenodd" stroke="none"/>
    <path d="M-221.65 -184.65 L-217.65 -142.65 -221.4 -57.15 -254.5 -61.15 -257.5 -62.0 -255.5 -111.5 -253.65 -141.0 -255.75 -163.9 -255.0 -183.25 -254.65 -184.15 -240.9 -183.75 -221.65 -184.65 M-279.9 -184.9 L-268.15 -184.5 -267.9 -184.4 -269.75 -174.0 -270.75 -143.25 -271.5 -136.25 -274.5 -64.25 -279.0 -64.4 -303.75 -67.5 -301.75 -120.9 -300.65 -146.5 -290.25 -183.15 -290.0 -183.4 -289.5 -185.0 -289.65 -185.0 -289.4 -185.65 -279.9 -184.9" fill="url(#gradient11)" fill-rule="evenodd" stroke="none"/>
    <path d="M-268.15 -184.5 L-269.65 -185.4 -252.65 -184.9 -254.65 -184.15 -255.0 -183.25 -255.75 -163.9 -253.65 -141.0 -255.5 -111.5 -257.5 -62.0 -261.4 -0.9 -278.25 -0.9 -274.5 -64.25 -271.5 -136.25 -270.75 -143.25 -269.75 -174.0 -267.9 -184.4 -268.15 -184.5" fill="url(#gradient12)" fill-rule="evenodd" stroke="none"/>
    <path d="M-162.4 -169.5 L-166.25 -169.75 -171.0 -162.4 -190.15 -175.9 -211.4 -185.0 -206.0 -183.9 -203.25 -183.4 -191.15 -180.75 -191.0 -180.75 -179.5 -178.25 -162.4 -169.5" fill="url(#gradient13)" fill-rule="evenodd" stroke="none"/>
    <path d="M-190.15 -175.9 L-190.9 -174.75 -200.25 -151.9 -211.75 -185.15 -211.4 -185.0 -190.15 -175.9" fill="url(#gradient14)" fill-rule="evenodd" stroke="none"/>
    <path d="M-171.0 -162.4 L-170.9 -162.0 -171.75 -161.0 -177.5 -150.65 -177.9 -150.5 -184.9 -128.4 -197.4 -114.75 -200.25 -151.9 -190.9 -174.75 -190.15 -175.9 -171.0 -162.4" fill="url(#gradient15)" fill-rule="evenodd" stroke="none"/>
    <path d="M-324.65 -134.65 L-325.4 -135.25 -324.0 -164.4 -289.65 -185.0 -289.5 -185.0 -290.0 -183.4 -290.25 -183.15 -309.5 -160.65 -302.4 -123.65 -324.65 -134.65" fill="url(#gradient16)" fill-rule="evenodd" stroke="none"/>
    <path d="M-384.25 -140.15 L-371.5 -145.75 -371.25 -145.9 -371.0 -146.0 -370.75 -146.15 -370.5 -146.25 -346.65 -158.15 -330.0 -165.5 -324.0 -164.4 -325.4 -135.25 -324.65 -134.65 -308.4 -119.15 -326.15 -113.5 -340.25 -105.9 -352.4 -100.9 -363.15 -100.65 -395.25 -111.4 -394.0 -135.65 -384.25 -140.15" fill="url(#gradient17)" fill-rule="evenodd" stroke="none"/>
    <path d="M-290.25 -183.15 L-300.65 -146.5 -301.75 -120.9 -302.0 -121.65 -302.15 -121.65 -302.4 -123.65 -309.5 -160.65 -290.25 -183.15" fill="url(#gradient18)" fill-rule="evenodd" stroke="none"/>
    <path d="M-308.4 -119.15 L-324.65 -134.65 -302.4 -123.65 -302.15 -121.65 -308.4 -119.15" fill="url(#gradient19)" fill-rule="evenodd" stroke="none"/>
    <path d="M-203.25 -183.4 L-198.0 -183.15 Q-192.5 -182.15 -191.15 -180.75 L-203.25 -183.4" fill="url(#gradient20)" fill-rule="evenodd" stroke="none"/>
    <path d="M-61.65 -84.4 L-65.5 -81.75 -76.5 -72.75 -76.75 -72.9 -125.9 -117.9 -155.25 -142.25 -170.9 -162.0 -171.0 -162.4 -166.25 -169.75 -162.4 -169.5 -137.4 -152.65 -112.5 -133.15 -87.65 -110.65 -61.65 -84.4" fill="url(#gradient21)" fill-rule="evenodd" stroke="none"/>
    <path d="M-170.9 -162.0 L-155.25 -142.25 -125.9 -117.9 -76.75 -72.9 -112.15 -82.15 -112.0 -72.9 -114.5 -62.25 -115.5 -62.9 -115.75 -63.0 -116.0 -63.15 -116.25 -63.25 -117.9 -64.15 -140.0 -85.15 -154.4 -94.4 -175.65 -109.4 -184.9 -128.4 -177.9 -150.5 -177.5 -150.65 -171.75 -161.0 -170.9 -162.0" fill="url(#gradient22)" fill-rule="evenodd" stroke="none"/>
    <path d="M-197.4 -114.75 L-184.9 -128.4 -175.65 -109.4 -178.0 -111.0 -183.25 -115.25 -197.4 -114.75" fill="url(#gradient23)" fill-rule="evenodd" stroke="none"/>
    <path d="M-400.0 -141.9 L-397.75 -142.25 -392.65 -142.15 -384.25 -140.15 -394.0 -135.65 -400.0 -137.65 -400.0 -141.9" fill="url(#gradient24)" fill-rule="evenodd" stroke="none"/>
    <path d="M-392.65 -142.15 L-397.75 -142.25 -400.0 -141.9 -400.0 -148.25 -392.65 -142.15" fill="url(#gradient25)" fill-rule="evenodd" stroke="none"/>
    <path d="M-400.0 -137.65 L-394.0 -135.65 -395.25 -111.4 -400.0 -113.75 -400.0 -137.65" fill="url(#gradient26)" fill-rule="evenodd" stroke="none"/>
    <path d="M-400.0 -113.75 L-395.25 -111.4 -363.15 -100.65 -399.5 -101.5 -400.0 -101.65 -400.0 -113.75" fill="url(#gradient27)" fill-rule="evenodd" stroke="none"/>
    <path d="M-178.9 -64.65 L-177.25 -68.65 -178.25 -73.4 -178.25 -75.0 -179.25 -77.75 -180.75 -87.15 -180.75 -94.75 -180.0 -103.0 -178.0 -111.0 -175.65 -109.4 -154.4 -94.4 Q-156.9 -72.4 -180.4 -60.5 L-178.9 -64.65" fill="url(#gradient28)" fill-rule="evenodd" stroke="none"/>
    <path d="M-221.4 -57.15 L-199.4 -59.9 -185.9 -62.0 -178.9 -64.65 -180.4 -60.5 -198.5 -8.75 -198.9 -0.9 -222.5 -0.9 -221.4 -57.15" fill="url(#gradient29)" fill-rule="evenodd" stroke="none"/>
    <path d="M-76.5 -72.75 L-65.5 -81.75 -61.65 -84.4 -35.75 -49.0 -36.25 -39.0 -47.5 -20.15 -57.5 -18.9 -47.75 -35.9 -48.4 -45.25 -76.5 -72.75" fill="url(#gradient30)" fill-rule="evenodd" stroke="none"/>
    <path d="M-76.5 -72.75 L-48.4 -45.25 -47.75 -35.9 -57.5 -18.9 -79.0 -4.25 -83.25 -0.9 -112.65 -0.9 -119.15 -6.4 -118.25 -8.65 -114.75 -15.25 -114.75 -15.9 -109.5 -26.9 -102.25 -41.25 Q-102.65 -42.0 -100.4 -45.75 L-114.5 -62.25 -112.0 -72.9 -76.75 -72.9 -76.5 -72.75" fill="url(#gradient31)" fill-rule="evenodd" stroke="none"/>
    <path d="M-112.0 -72.9 L-112.15 -82.15 -76.75 -72.9 -112.0 -72.9" fill="url(#gradient32)" fill-rule="evenodd" stroke="none"/>
    <path d="M-274.5 -64.25 L-278.25 -0.9 -305.0 -0.9 -304.15 -16.75 -303.75 -67.5 -279.0 -64.4 -274.5 -64.25 M-261.4 -0.9 L-257.5 -62.0 -254.5 -61.15 -221.4 -57.15 -222.5 -0.9 -261.4 -0.9" fill="url(#gradient33)" fill-rule="evenodd" stroke="none"/>
    <path d="M-118.25 -8.65 L-113.9 -21.75 -109.5 -26.9 -114.75 -15.9 -114.75 -15.25 -118.25 -8.65" fill="url(#gradient34)" fill-rule="evenodd" stroke="none"/>
    <path d="M-118.25 -8.65 L-119.15 -6.4 -112.65 -0.9 -136.65 -0.9 -113.9 -21.75 -118.25 -8.65" fill="url(#gradient35)" fill-rule="evenodd" stroke="none"/>
    <path d="M-57.5 -18.9 L-47.5 -20.15 -71.15 -0.9 -83.25 -0.9 -79.0 -4.25 -57.5 -18.9" fill="url(#gradient36)" fill-rule="evenodd" stroke="none"/>
    <path d="M-214.0 -197.25 L-213.9 -196.5 -215.75 -196.75 -216.5 -196.75 -224.25 -197.5 -224.25 -197.75 -244.65 -199.15 -246.25 -199.15 -246.75 -199.25 -257.0 -199.4 -257.9 -199.25 -262.4 -198.9 -262.15 -199.5 -260.65 -202.15 -260.5 -202.5 -260.4 -203.4 -256.4 -203.5 -256.0 -203.4 -245.5 -203.15 -239.25 -199.15 -238.5 -199.0 -230.75 -198.65 -230.4 -198.5 -216.5 -197.5 -215.9 -197.5 -214.0 -197.25 M-272.25 -13.15 L-270.0 -16.0 -269.75 -16.75 -268.4 -18.25 -268.25 -18.9 -263.4 -25.4 -263.0 -26.4 -259.65 -30.75 -259.25 -31.65 -256.4 -35.4 -256.25 -36.0 -253.15 -40.0 -253.0 -40.4 -231.4 -46.25 -221.75 -51.15 -221.5 -51.15 -221.25 -51.5 -209.5 -57.4 -210.15 -31.0 -210.25 -30.0 -210.5 -29.15 -211.15 -0.9 -267.15 -0.9 -267.35 -1.4 -268.15 -3.5 -268.65 -4.5 -268.65 -4.9 -270.0 -7.65 -270.5 -8.75 -270.65 -9.0 -270.65 -9.15 -272.25 -12.75 -272.25 -13.15" fill="#9b0000" fill-opacity="0.9098039" fill-rule="evenodd" stroke="none"/>
    <path d="M-186.65 -191.4 L-193.75 -191.9 -204.4 -195.5 -213.9 -196.5 -214.0 -197.25 -196.65 -195.4 -186.65 -191.4 M-260.4 -203.4 L-260.5 -202.5 -260.65 -202.15 -262.15 -199.5 -262.4 -198.9 -263.25 -198.4 -262.75 -198.4 -263.65 -197.0 -270.5 -198.5 Q-269.4 -199.75 -264.4 -199.5 L-261.4 -203.4 -260.4 -203.4" fill="#ab0000" fill-opacity="0.9098039" fill-rule="evenodd" stroke="none"/>
    <path d="M-193.75 -191.9 L-186.65 -191.4 -181.15 -178.65 -189.0 -180.25 -193.75 -191.9" fill="#ae0000" fill-opacity="0.9098039" fill-rule="evenodd" stroke="none"/>
    <path d="M-314.5 -71.15 L-319.25 -80.5 -314.75 -91.5 -302.5 -102.9 -302.4 -102.9 -303.25 -81.4 -308.5 -80.25 -309.15 -80.25 -310.0 -79.5 -313.75 -77.0 -314.0 -76.9 -314.25 -72.25 -314.5 -71.15" fill="#f00000" fill-opacity="0.9098039" fill-rule="evenodd" stroke="none"/>
    <path d="M-314.5 -71.15 L-314.25 -72.25 -314.0 -76.9 -313.75 -77.0 -310.0 -79.5 -309.15 -80.25 -308.5 -80.25 -303.25 -81.4 -303.15 -81.4 -303.9 -62.5 -314.4 -70.4 -314.5 -71.15" fill="#f30000" fill-opacity="0.9098039" fill-rule="evenodd" stroke="none"/>
    <path d="M-209.0 -57.5 L-201.5 -59.65 -200.0 -59.9 -185.75 -63.65 -185.15 -63.9 -185.0 -64.15 -178.75 -68.25 -178.65 -68.5 -177.4 -69.15 -171.25 -73.25 -170.9 -73.75 -169.15 -74.9 -166.4 -80.25 -165.75 -81.15 -159.25 -93.4 -158.5 -94.5 -157.75 -96.75 -156.75 -96.15 -156.4 -95.75 -155.75 -95.65 -155.4 -95.25 -154.4 -94.4 -154.9 -90.4 -155.25 -89.75 -155.75 -88.4 -155.65 -88.15 -157.75 -82.15 -158.25 -81.65 -162.0 -75.0 -163.5 -73.65 -164.15 -73.25 -164.25 -72.75 -170.5 -66.4 -176.0 -62.25 -176.75 -62.0 -176.9 -62.0 Q-177.55 -61.6 -178.25 -61.25 L-178.65 -61.25 -209.0 -57.5" fill="#d80000" fill-opacity="0.9098039" fill-rule="evenodd" stroke="none"/>
    <path d="M-209.5 -57.4 L-209.0 -57.5 -178.65 -61.25 -179.65 -60.65 -180.4 -60.5 -181.65 -57.0 -181.5 -56.75 -198.65 -8.4 -198.5 -8.4 -198.65 -6.9 -198.5 -6.4 -198.9 -0.9 -211.15 -0.9 -210.5 -29.15 -210.25 -30.0 -210.15 -31.0 -209.5 -57.4" fill="#d60000" fill-opacity="0.9098039" fill-rule="evenodd" stroke="none"/>
    <path d="M-179.65 -60.65 L-178.65 -61.25 -178.25 -61.25 -169.65 -62.5 -173.15 -58.5 -173.5 -58.25 -179.65 -60.65" fill="#e80000" fill-rule="evenodd" stroke="none"/>
    <path d="M-154.4 -94.4 L-150.0 -91.5 -149.5 -84.75 -150.0 -84.0 -169.65 -62.5 -178.25 -61.25 Q-177.55 -61.6 -176.9 -62.0 L-176.75 -62.0 -176.0 -62.25 -170.5 -66.4 -164.25 -72.75 -164.15 -73.25 -163.5 -73.65 -162.0 -75.0 -158.25 -81.65 -157.75 -82.15 -155.65 -88.15 -155.75 -88.4 -155.25 -89.75 -154.9 -90.4 -154.4 -94.4" fill="#ea0000" fill-rule="evenodd" stroke="none"/>
    <path d="M-150.0 -84.0 L-160.0 -65.9 -167.0 -62.9 -169.65 -62.5 -150.0 -84.0" fill="#ef0000" fill-rule="evenodd" stroke="none"/>
    <path d="M-303.9 -62.5 L-303.75 -62.4 -303.75 -62.25 -304.25 -11.25 -305.0 -0.9 -315.75 -0.9 -315.0 -14.4 -314.4 -70.4 -303.9 -62.5" fill="#c30000" fill-rule="evenodd" stroke="none"/>
    <path d="M-160.0 -65.9 L-184.65 -4.65 -184.9 -0.9 -187.75 -0.9 -187.25 -13.4 -173.5 -58.25 -173.15 -58.5 -169.65 -62.5 -167.0 -62.9 -160.0 -65.9" fill="#ed0000" fill-rule="evenodd" stroke="none"/>
    <path d="M-187.75 -0.9 L-198.9 -0.9 -198.5 -6.4 -198.65 -6.9 -198.5 -8.4 -198.65 -8.4 -181.5 -56.75 -181.65 -57.0 -180.4 -60.5 -179.65 -60.65 -173.5 -58.25 -187.25 -13.4 -187.75 -0.9" fill="#e70000" fill-rule="evenodd" stroke="none"/>
    <path d="M-303.75 -62.25 L-301.75 -60.9 -301.5 -60.5 -298.5 -58.4 -286.65 -47.65 -286.5 -47.25 -285.15 -46.25 -284.0 -44.75 -283.65 -43.0 -280.9 -36.4 -280.75 -35.4 -276.9 -25.75 -276.75 -24.75 -272.25 -13.15 -272.25 -12.75 -271.15 -9.65 -270.65 -9.15 -270.65 -9.0 -270.5 -8.75 -270.25 -8.0 -270.0 -7.65 -270.15 -7.4 -270.0 -7.15 -268.65 -4.5 -268.5 -3.75 -268.4 -3.75 -268.25 -3.5 -268.15 -3.0 -268.0 -3.0 -267.35 -1.4 -267.15 -0.9 -305.0 -0.9 -304.25 -11.25 -303.75 -62.25" fill="#ad0000" fill-opacity="0.9098039" fill-rule="evenodd" stroke="none"/>
    <path d="M-270.65 -9.15 L-271.15 -9.65 -272.25 -12.75 -270.65 -9.15 M-270.5 -8.75 L-270.0 -7.65 -270.25 -8.0 -270.5 -8.75 M-270.0 -7.65 L-268.65 -4.9 -268.65 -4.5 -268.15 -3.5 -267.35 -1.4 -268.0 -3.0 -268.15 -3.0 -268.25 -3.5 -268.4 -3.75 -268.5 -3.75 -268.65 -4.5 -270.0 -7.15 -270.15 -7.4 -270.0 -7.65" fill="#ab0000" fill-rule="evenodd" stroke="none"/>
  </g>
  <defs>
    <radialGradient cx="0" cy="0" gradientTransform="matrix(0.2717, 0.0, 0.0, 0.2717, -339.7, -294.25)" gradientUnits="userSpaceOnUse" id="gradient0" r="819.2" spreadMethod="pad">
      <stop offset="0.0" stop-color="#5a5a5a"/>
      <stop offset="1.0" stop-color="#1b1b1b"/>
    </radialGradient>
    <radialGradient cx="0" cy="0" gradientTransform="matrix(0.0421, 0.0, 0.0, 0.0421, -130.1, -244.0)" gradientUnits="userSpaceOnUse" id="gradient1" r="819.2" spreadMethod="pad">
      <stop offset="0.0" stop-color="#303030"/>
      <stop offset="1.0" stop-color="#292929"/>
    </radialGradient>
    <radialGradient cx="0" cy="0" gradientTransform="matrix(0.0671, 0.0, 0.0, 0.0671, -328.85, -238.6)" gradientUnits="userSpaceOnUse" id="gradient2" r="819.2" spreadMethod="pad">
      <stop offset="0.0" stop-color="#393939"/>
      <stop offset="1.0" stop-color="#232323"/>
    </radialGradient>
    <radialGradient cx="0" cy="0" gradientTransform="matrix(0.1447, 0.0, 0.0, 0.1447, -302.45, -231.4)" gradientUnits="userSpaceOnUse" id="gradient3" r="819.2" spreadMethod="pad">
      <stop offset="0.0" stop-color="#0b0b0b"/>
      <stop offset="1.0" stop-color="#000000"/>
    </radialGradient>
    <radialGradient cx="0" cy="0" gradientTransform="matrix(0.0504, 0.0, 0.0, 0.0504, -240.1, -195.9)" gradientUnits="userSpaceOnUse" id="gradient4" r="819.2" spreadMethod="pad">
      <stop offset="0.0" stop-color="#818181"/>
      <stop offset="1.0" stop-color="#323232"/>
    </radialGradient>
    <radialGradient cx="0" cy="0" gradientTransform="matrix(0.0271, 0.0, 0.0, 0.0271, -279.9, -184.95)" gradientUnits="userSpaceOnUse" id="gradient5" r="819.2" spreadMethod="pad">
      <stop offset="0.0" stop-color="#4a4a4a"/>
      <stop offset="1.0" stop-color="#090909"/>
    </radialGradient>
    <radialGradient cx="0" cy="0" gradientTransform="matrix(0.0576, 0.0, 0.0, 0.0576, -329.9, -165.65)" gradientUnits="userSpaceOnUse" id="gradient6" r="819.2" spreadMethod="pad">
      <stop offset="0.0" stop-color="#585858"/>
      <stop offset="1.0" stop-color="#323232"/>
    </radialGradient>
    <radialGradient cx="0" cy="0" gradientTransform="matrix(0.0131, 0.0, 0.0, 0.0131, -298.1, -184.25)" gradientUnits="userSpaceOnUse" id="gradient7" r="819.2" spreadMethod="pad">
      <stop offset="0.0" stop-color="#000000"/>
      <stop offset="1.0" stop-color="#000000"/>
    </radialGradient>
    <radialGradient cx="0" cy="0" gradientTransform="matrix(0.0162, 0.0, 0.0, 0.0162, -215.0, -200.75)" gradientUnits="userSpaceOnUse" id="gradient8" r="819.2" spreadMethod="pad">
      <stop offset="0.0" stop-color="#030303"/>
      <stop offset="1.0" stop-color="#000000"/>
    </radialGradient>
    <radialGradient cx="0" cy="0" gradientTransform="matrix(0.0099, 0.0, 0.0, 0.0099, -211.8, -185.2)" gradientUnits="userSpaceOnUse" id="gradient9" r="819.2" spreadMethod="pad">
      <stop offset="0.0" stop-color="#3c3c3c"/>
      <stop offset="1.0" stop-color="#000000"/>
    </radialGradient>
    <radialGradient cx="0" cy="0" gradientTransform="matrix(0.1553, 0.0, 0.0, 0.1553, -178.85, -64.85)" gradientUnits="userSpaceOnUse" id="gradient10" r="819.2" spreadMethod="pad">
      <stop offset="0.0" stop-color="#626262"/>
      <stop offset="1.0" stop-color="#141414"/>
    </radialGradient>
    <radialGradient cx="0" cy="0" gradientTransform="matrix(0.1584, 0.0, 0.0, 0.1584, -248.7, -184.05)" gradientUnits="userSpaceOnUse" id="gradient11" r="819.2" spreadMethod="pad">
      <stop offset="0.0" stop-color="#5c5c5c"/>
      <stop offset="1.0" stop-color="#000000"/>
    </radialGradient>
    <radialGradient cx="0" cy="0" gradientTransform="matrix(0.2287, 0.0, 0.0, 0.2287, -282.75, -1.0)" gradientUnits="userSpaceOnUse" id="gradient12" r="819.2" spreadMethod="pad">
      <stop offset="0.0" stop-color="#444444"/>
      <stop offset="1.0" stop-color="#000000"/>
    </radialGradient>
    <radialGradient cx="0" cy="0" gradientTransform="matrix(0.0587, 0.0, 0.0, 0.0587, -166.25, -169.8)" gradientUnits="userSpaceOnUse" id="gradient13" r="819.2" spreadMethod="pad">
      <stop offset="0.0" stop-color="#444444"/>
      <stop offset="1.0" stop-color="#222222"/>
    </radialGradient>
    <radialGradient cx="0" cy="0" gradientTransform="matrix(0.0325, 0.0, 0.0, 0.0325, -190.25, -176.1)" gradientUnits="userSpaceOnUse" id="gradient14" r="819.2" spreadMethod="pad">
      <stop offset="0.0" stop-color="#3f3f3f"/>
      <stop offset="1.0" stop-color="#282828"/>
    </radialGradient>
    <radialGradient cx="0" cy="0" gradientTransform="matrix(0.0756, 0.0, 0.0, 0.0756, -190.25, -176.1)" gradientUnits="userSpaceOnUse" id="gradient15" r="819.2" spreadMethod="pad">
      <stop offset="0.0" stop-color="#3f3f3f"/>
      <stop offset="1.0" stop-color="#000000"/>
    </radialGradient>
    <radialGradient cx="0" cy="0" gradientTransform="matrix(0.0581, 0.0, 0.0, 0.0581, -324.0, -164.45)" gradientUnits="userSpaceOnUse" id="gradient16" r="819.2" spreadMethod="pad">
      <stop offset="0.0" stop-color="#4c4c4c"/>
      <stop offset="1.0" stop-color="#1d1d1d"/>
    </radialGradient>
    <radialGradient cx="0" cy="0" gradientTransform="matrix(0.0828, 0.0, 0.0, 0.0828, -346.2, -158.35)" gradientUnits="userSpaceOnUse" id="gradient17" r="819.2" spreadMethod="pad">
      <stop offset="0.0" stop-color="#686868"/>
      <stop offset="1.0" stop-color="#000000"/>
    </radialGradient>
    <radialGradient cx="0" cy="0" gradientTransform="matrix(0.0511, 0.0, 0.0, 0.0511, -300.65, -146.6)" gradientUnits="userSpaceOnUse" id="gradient18" r="819.2" spreadMethod="pad">
      <stop offset="0.0" stop-color="#414141"/>
      <stop offset="1.0" stop-color="#1e1e1e"/>
    </radialGradient>
    <radialGradient cx="0" cy="0" gradientTransform="matrix(0.0335, 0.0, 0.0, 0.0335, -300.75, -122.85)" gradientUnits="userSpaceOnUse" id="gradient19" r="819.2" spreadMethod="pad">
      <stop offset="0.0" stop-color="#171717"/>
      <stop offset="1.0" stop-color="#000000"/>
    </radialGradient>
    <radialGradient cx="0" cy="0" gradientTransform="matrix(0.0136, 0.0, 0.0, 0.0136, -194.35, -179.5)" gradientUnits="userSpaceOnUse" id="gradient20" r="819.2" spreadMethod="pad">
      <stop offset="0.0" stop-color="#5b5b5b"/>
      <stop offset="1.0" stop-color="#000000"/>
    </radialGradient>
    <radialGradient cx="0" cy="0" gradientTransform="matrix(0.1277, 0.0, 0.0, 0.1277, -141.3, -152.45)" gradientUnits="userSpaceOnUse" id="gradient21" r="819.2" spreadMethod="pad">
      <stop offset="0.0" stop-color="#575757"/>
      <stop offset="1.0" stop-color="#262626"/>
    </radialGradient>
    <radialGradient cx="0" cy="0" gradientTransform="matrix(0.1285, 0.0, 0.0, 0.1285, -175.4, -109.2)" gradientUnits="userSpaceOnUse" id="gradient22" r="819.2" spreadMethod="pad">
      <stop offset="0.0" stop-color="#2f2f2f"/>
      <stop offset="1.0" stop-color="#000000"/>
    </radialGradient>
    <radialGradient cx="0" cy="0" gradientTransform="matrix(0.0276, 0.0, 0.0, 0.0276, -175.4, -109.2)" gradientUnits="userSpaceOnUse" id="gradient23" r="819.2" spreadMethod="pad">
      <stop offset="0.0" stop-color="#2f2f2f"/>
      <stop offset="1.0" stop-color="#000000"/>
    </radialGradient>
    <radialGradient cx="0" cy="0" gradientTransform="matrix(0.0167, 0.0, 0.0, 0.0167, -394.0, -135.7)" gradientUnits="userSpaceOnUse" id="gradient24" r="819.2" spreadMethod="pad">
      <stop offset="0.0" stop-color="#484848"/>
      <stop offset="1.0" stop-color="#131313"/>
    </radialGradient>
    <radialGradient cx="0" cy="0" gradientTransform="matrix(0.0091, 0.0, 0.0, 0.0091, -400.0, -141.9)" gradientUnits="userSpaceOnUse" id="gradient25" r="819.2" spreadMethod="pad">
      <stop offset="0.0" stop-color="#212121"/>
      <stop offset="1.0" stop-color="#101010"/>
    </radialGradient>
    <radialGradient cx="0" cy="0" gradientTransform="matrix(0.0297, 0.0, 0.0, 0.0297, -394.0, -135.7)" gradientUnits="userSpaceOnUse" id="gradient26" r="819.2" spreadMethod="pad">
      <stop offset="0.0" stop-color="#484848"/>
      <stop offset="1.0" stop-color="#0c0c0c"/>
    </radialGradient>
    <radialGradient cx="0" cy="0" gradientTransform="matrix(0.0452, 0.0, 0.0, 0.0452, -400.0, -101.65)" gradientUnits="userSpaceOnUse" id="gradient27" r="819.2" spreadMethod="pad">
      <stop offset="0.0" stop-color="#000000"/>
      <stop offset="1.0" stop-color="#000000"/>
    </radialGradient>
    <radialGradient cx="0" cy="0" gradientTransform="matrix(0.0555, 0.0, 0.0, 0.0555, -155.05, -90.15)" gradientUnits="userSpaceOnUse" id="gradient28" r="819.2" spreadMethod="pad">
      <stop offset="0.0" stop-color="#777777"/>
      <stop offset="1.0" stop-color="#000000"/>
    </radialGradient>
    <radialGradient cx="0" cy="0" gradientTransform="matrix(0.0725, 0.0, 0.0, 0.0725, -198.5, -8.85)" gradientUnits="userSpaceOnUse" id="gradient29" r="819.2" spreadMethod="pad">
      <stop offset="0.0" stop-color="#838383"/>
      <stop offset="1.0" stop-color="#353535"/>
    </radialGradient>
    <radialGradient cx="0" cy="0" gradientTransform="matrix(0.0641, 0.0, 0.0, 0.0641, -36.35, -39.1)" gradientUnits="userSpaceOnUse" id="gradient30" r="819.2" spreadMethod="pad">
      <stop offset="0.0" stop-color="#626262"/>
      <stop offset="1.0" stop-color="#000000"/>
    </radialGradient>
    <radialGradient cx="0" cy="0" gradientTransform="matrix(0.0984, 0.0, 0.0, 0.0984, -119.1, -6.65)" gradientUnits="userSpaceOnUse" id="gradient31" r="819.2" spreadMethod="pad">
      <stop offset="0.0" stop-color="#292929"/>
      <stop offset="1.0" stop-color="#000000"/>
    </radialGradient>
    <radialGradient cx="0" cy="0" gradientTransform="matrix(0.0434, 0.0, 0.0, 0.0434, -112.1, -73.0)" gradientUnits="userSpaceOnUse" id="gradient32" r="819.2" spreadMethod="pad">
      <stop offset="0.0" stop-color="#000000"/>
      <stop offset="1.0" stop-color="#000000"/>
    </radialGradient>
    <radialGradient cx="0" cy="0" gradientTransform="matrix(0.1282, 0.0, 0.0, 0.1282, -303.65, -67.65)" gradientUnits="userSpaceOnUse" id="gradient33" r="819.2" spreadMethod="pad">
      <stop offset="0.0" stop-color="#3e3e3e"/>
      <stop offset="1.0" stop-color="#000000"/>
    </radialGradient>
    <radialGradient cx="0" cy="0" gradientTransform="matrix(0.0376, 0.0, 0.0, 0.0376, -119.1, -6.65)" gradientUnits="userSpaceOnUse" id="gradient34" r="819.2" spreadMethod="pad">
      <stop offset="0.0" stop-color="#292929"/>
      <stop offset="1.0" stop-color="#000000"/>
    </radialGradient>
    <radialGradient cx="0" cy="0" gradientTransform="matrix(0.0303, 0.0, 0.0, 0.0303, -126.5, -1.0)" gradientUnits="userSpaceOnUse" id="gradient35" r="819.2" spreadMethod="pad">
      <stop offset="0.0" stop-color="#2c2c2c"/>
      <stop offset="1.0" stop-color="#161616"/>
    </radialGradient>
    <radialGradient cx="0" cy="0" gradientTransform="matrix(0.0436, 0.0, 0.0, 0.0436, -79.35, -3.95)" gradientUnits="userSpaceOnUse" id="gradient36" r="819.2" spreadMethod="pad">
      <stop offset="0.0" stop-color="#000000"/>
      <stop offset="1.0" stop-color="#000000"/>
    </radialGradient>
  </defs>
</svg>
