<?xml version="1.0" encoding="UTF-8" standalone="no"?>
<svg xmlns:xlink="http://www.w3.org/1999/xlink" height="299.1px" width="375.5px" xmlns="http://www.w3.org/2000/svg">
  <g transform="matrix(1.0, 0.0, 0.0, 1.0, 400.0, 300.0)">
    <path d="M-302.25 -207.15 L-314.25 -220.0 -327.15 -240.4 -333.25 -252.75 -338.65 -271.0 -338.75 -272.4 -340.15 -276.15 -341.75 -300.0 -107.15 -300.0 -107.15 -289.9 -107.9 -280.5 -109.0 -274.25 -113.65 -256.0 -116.9 -247.9 -127.65 -227.25 -135.15 -220.0 -137.5 -217.9 -137.75 -218.15 -134.25 -223.5 -134.5 -223.75 -134.9 -223.4 -149.0 -207.25 -177.5 -203.5 -183.4 -206.75 -212.15 -223.15 -218.65 -205.9 -238.15 -218.9 -263.65 -217.75 -284.5 -219.75 -284.65 -219.5 -284.9 -214.25 -285.0 -207.75 -285.4 -206.9 -297.65 -218.9 -303.0 -224.4 -303.25 -224.25 -301.9 -214.65 -302.25 -207.15" fill="url(#gradient0)" fill-rule="evenodd" stroke="none"/>
    <path d="M-135.15 -220.0 L-127.65 -227.25 -140.9 -210.9 -140.65 -211.75 -135.15 -220.0" fill="url(#gradient1)" fill-rule="evenodd" stroke="none"/>
    <path d="M-302.25 -207.15 L-301.9 -214.65 -303.25 -224.25 -303.0 -224.4 -297.65 -218.9 -299.15 -211.15 -299.25 -208.25 -302.25 -207.15 M-284.9 -214.25 L-284.65 -219.5 -282.0 -217.25 -284.9 -214.25" fill="url(#gradient2)" fill-rule="evenodd" stroke="none"/>
    <path d="M-284.65 -219.5 L-284.5 -219.75 -263.65 -217.75 -238.15 -218.9 -218.65 -205.9 -212.15 -223.15 -183.4 -206.75 -192.15 -202.5 -204.9 -199.4 -206.4 -200.15 -210.5 -200.65 -219.75 -200.5 -224.4 -201.15 -229.15 -200.9 -244.75 -201.4 -247.25 -200.9 -250.75 -201.25 -264.15 -206.0 -279.4 -215.0 -282.0 -217.25 -284.65 -219.5" fill="url(#gradient3)" fill-rule="evenodd" stroke="none"/>
    <path d="M-204.9 -199.4 L-205.15 -193.9 -205.25 -187.5 -204.9 -187.25 -197.9 -180.4 -206.25 -179.9 -225.0 -179.15 -240.5 -179.5 -238.15 -180.25 -238.5 -180.4 -256.25 -181.0 -254.25 -180.0 -266.75 -180.5 -257.4 -188.75 -257.4 -188.9 -254.0 -191.65 Q-249.9 -199.4 -250.75 -201.25 L-247.25 -200.9 -244.75 -201.4 -229.15 -200.9 -224.4 -201.15 -219.75 -200.5 -210.5 -200.65 -206.4 -200.15 -204.9 -199.4" fill="url(#gradient4)" fill-rule="evenodd" stroke="none"/>
    <path d="M-205.15 -193.9 L-204.9 -187.25 -205.25 -187.5 -205.15 -193.9" fill="url(#gradient5)" fill-rule="evenodd" stroke="none"/>
    <path d="M-257.4 -188.9 L-257.4 -188.75 -266.75 -180.5 -278.0 -181.5 -274.0 -183.0 -273.75 -183.0 -257.4 -188.9" fill="url(#gradient6)" fill-rule="evenodd" stroke="none"/>
    <path d="M-266.75 -180.5 L-254.25 -180.0 -256.25 -169.4 -257.4 -137.4 -259.4 -105.4 -261.15 -59.65 -265.5 -59.65 -292.4 -62.5 -292.5 -63.15 -289.4 -142.15 -278.0 -181.5 -266.75 -180.5 M-240.5 -179.5 L-225.0 -179.15 -206.25 -179.9 -201.25 -138.4 -204.9 -53.25 -239.65 -56.75 -243.0 -57.65 -241.5 -92.15 -241.75 -93.15 -239.25 -135.75 -241.0 -157.15 -241.5 -159.4 -240.5 -179.5" fill="url(#gradient7)" fill-rule="evenodd" stroke="none"/>
    <path d="M-278.65 -182.25 L-274.0 -183.0 -278.0 -181.5 -278.5 -182.25 -278.65 -182.25" fill="url(#gradient8)" fill-rule="evenodd" stroke="none"/>
    <path d="M-322.65 -162.4 L-322.5 -162.4 -322.25 -162.65 -294.9 -178.75 -279.65 -182.15 -279.5 -182.15 -279.25 -182.25 -278.65 -182.25 -278.75 -182.0 -317.0 -160.4 -323.65 -161.65 -323.65 -161.75 -323.4 -161.9 -323.15 -162.0 -322.9 -162.25 -322.75 -162.25 -322.65 -162.4" fill="url(#gradient9)" fill-rule="evenodd" stroke="none"/>
    <path d="M-294.9 -178.75 L-291.9 -180.5 -279.65 -182.15 -294.9 -178.75" fill="url(#gradient10)" fill-rule="evenodd" stroke="none"/>
    <path d="M-278.75 -182.0 L-278.65 -182.25 -278.5 -182.25 -278.0 -181.5 -289.4 -142.15 -292.5 -63.15 -294.9 -67.9 -293.0 -118.4 -293.15 -118.65 -299.9 -151.65 -301.25 -156.5 -278.75 -182.0" fill="url(#gradient11)" fill-rule="evenodd" stroke="none"/>
    <path d="M-292.5 -63.15 L-292.4 -62.5 -294.4 -10.65 -294.9 -67.9 -292.5 -63.15" fill="url(#gradient12)" fill-rule="evenodd" stroke="none"/>
    <path d="M-303.25 -115.0 L-318.0 -130.4 -293.15 -118.65 -293.0 -118.4 -303.25 -115.0" fill="url(#gradient13)" fill-rule="evenodd" stroke="none"/>
    <path d="M-317.0 -160.4 L-278.75 -182.0 -301.25 -156.5 -299.9 -151.65 -293.15 -118.65 -318.0 -130.4 -318.65 -130.75 -317.0 -160.4" fill="url(#gradient14)" fill-rule="evenodd" stroke="none"/>
    <path d="M-254.25 -180.0 L-256.25 -181.0 -238.5 -180.4 -238.15 -180.25 -240.5 -179.5 -241.5 -159.4 -241.0 -157.15 -239.25 -135.75 -241.75 -93.15 -241.5 -92.15 -243.0 -57.65 -246.75 -0.9 -264.65 -0.9 -261.15 -59.65 -259.4 -105.4 -257.4 -137.4 -256.25 -169.4 -254.25 -180.0" fill="url(#gradient15)" fill-rule="evenodd" stroke="none"/>
    <path d="M-292.4 -62.5 L-265.5 -59.65 -261.15 -59.65 -264.65 -0.9 -294.75 -0.9 -294.4 -10.65 -292.4 -62.5 M-243.0 -57.65 L-239.65 -56.75 -204.9 -53.25 -207.0 -0.9 -246.75 -0.9 -243.0 -57.65" fill="url(#gradient16)" fill-rule="evenodd" stroke="none"/>
    <path d="M-206.25 -179.9 L-197.9 -180.4 -185.25 -147.4 -183.5 -110.9 -181.25 -110.75 -171.5 -111.65 -167.75 -108.75 -169.5 -97.15 -170.0 -88.4 -169.5 -78.25 -168.4 -72.5 -168.15 -65.25 -169.0 -61.75 -174.4 -58.9 -186.5 -56.4 -204.9 -53.25 -201.25 -138.4 -206.25 -179.9" fill="url(#gradient17)" fill-rule="evenodd" stroke="none"/>
    <path d="M-150.75 -165.15 L-153.5 -165.15 -156.65 -157.65 -176.15 -171.4 -197.9 -180.4 -190.75 -179.0 -180.5 -176.65 -168.65 -174.0 -150.75 -165.15" fill="url(#gradient18)" fill-rule="evenodd" stroke="none"/>
    <path d="M-197.9 -180.4 L-176.15 -171.4 -185.25 -147.4 -197.9 -180.4" fill="url(#gradient19)" fill-rule="evenodd" stroke="none"/>
    <path d="M-176.15 -171.4 L-156.65 -157.65 -163.15 -145.15 -170.0 -124.25 -183.5 -110.9 -185.25 -147.4 -176.15 -171.4" fill="url(#gradient20)" fill-rule="evenodd" stroke="none"/>
    <path d="M-190.75 -179.0 L-187.25 -178.9 Q-181.65 -177.9 -180.5 -176.65 L-190.75 -179.0" fill="url(#gradient21)" fill-rule="evenodd" stroke="none"/>
    <path d="M-50.0 -82.65 L-50.9 -80.65 -61.4 -70.9 -61.75 -71.0 -90.4 -96.65 -113.0 -116.25 -140.4 -138.15 -156.65 -157.65 -153.5 -165.15 -150.75 -165.15 -125.9 -148.75 -99.9 -129.0 -73.75 -106.0 -50.0 -82.65" fill="url(#gradient22)" fill-rule="evenodd" stroke="none"/>
    <path d="M-322.65 -162.4 L-322.25 -162.65 -322.5 -162.4 -322.65 -162.4 -322.75 -162.25 -322.9 -162.25 -323.15 -162.0 -323.0 -162.25 -322.9 -162.25 -322.65 -162.4" fill="url(#gradient23)" fill-rule="evenodd" stroke="none"/>
    <path d="M-323.0 -162.25 L-323.15 -162.0 -323.4 -161.9 -323.65 -161.75 -323.65 -161.65 -341.4 -154.25 -369.5 -141.25 -392.25 -131.9 -387.15 -135.15 -385.25 -135.9 -323.0 -162.25" fill="url(#gradient24)" fill-rule="evenodd" stroke="none"/>
    <path d="M-392.25 -131.9 L-392.5 -131.75 -393.9 -131.25 -400.0 -133.0 -400.0 -138.15 -395.4 -138.15 -385.25 -135.9 -387.15 -135.15 -392.25 -131.9" fill="url(#gradient25)" fill-rule="evenodd" stroke="none"/>
    <path d="M-395.4 -138.15 L-400.0 -138.15 -400.0 -141.65 -395.4 -138.15" fill="url(#gradient26)" fill-rule="evenodd" stroke="none"/>
    <path d="M-393.9 -131.25 L-394.4 -106.4 -400.0 -108.9 -400.0 -133.0 -393.9 -131.25" fill="url(#gradient27)" fill-rule="evenodd" stroke="none"/>
    <path d="M-394.4 -106.4 L-362.75 -95.9 -399.9 -96.4 -400.0 -108.9 -394.4 -106.4" fill="url(#gradient28)" fill-rule="evenodd" stroke="none"/>
    <path d="M-323.65 -161.65 L-317.0 -160.4 -318.65 -130.75 -318.0 -130.4 -303.25 -115.0 -322.75 -109.0 -338.9 -100.75 -351.0 -96.15 -362.75 -95.9 -394.4 -106.4 -393.9 -131.25 -392.5 -131.75 -392.25 -131.9 -369.5 -141.25 -341.4 -154.25 -323.65 -161.65" fill="url(#gradient29)" fill-rule="evenodd" stroke="none"/>
    <path d="M-156.65 -157.65 L-140.4 -138.15 -113.0 -116.25 -90.4 -96.65 -61.75 -71.0 -96.65 -79.5 -96.5 -70.5 -101.4 -60.5 -104.75 -61.75 -106.4 -62.75 -128.15 -82.5 -142.65 -91.25 -148.15 -95.0 -163.5 -105.9 -170.0 -124.25 -163.15 -145.15 -156.65 -157.65" fill="url(#gradient30)" fill-rule="evenodd" stroke="none"/>
    <path d="M-96.5 -70.5 L-96.65 -79.5 -61.75 -71.0 -96.5 -70.5" fill="url(#gradient31)" fill-rule="evenodd" stroke="none"/>
    <path d="M-61.75 -71.0 L-61.4 -70.9 -34.4 -44.75 -33.75 -35.65 -43.4 -19.15 -65.5 -4.0 -69.25 -0.9 -99.0 -0.9 -105.0 -5.65 -104.75 -6.75 -104.15 -7.5 -104.25 -7.9 -94.9 -29.75 -87.65 -46.5 -100.5 -59.4 -101.4 -60.5 -96.5 -70.5 -61.75 -71.0" fill="url(#gradient32)" fill-rule="evenodd" stroke="none"/>
    <path d="M-61.4 -70.9 L-50.9 -80.65 -50.0 -82.65 -24.5 -48.75 -25.15 -37.15 -34.75 -20.65 -43.4 -19.15 -33.75 -35.65 -34.4 -44.75 -61.4 -70.9" fill="url(#gradient33)" fill-rule="evenodd" stroke="none"/>
    <path d="M-170.0 -124.25 L-163.5 -105.9 -167.75 -108.75 -171.5 -111.65 -181.25 -110.75 -183.5 -110.9 -170.0 -124.25" fill="url(#gradient34)" fill-rule="evenodd" stroke="none"/>
    <path d="M-163.5 -105.9 L-148.15 -95.0 Q-147.75 -88.75 -152.5 -77.5 L-157.0 -70.25 -162.25 -64.4 -169.75 -59.4 -169.0 -61.75 -168.15 -65.25 -168.4 -72.5 -169.5 -78.25 -170.0 -88.4 -169.5 -97.15 -167.75 -108.75 -163.5 -105.9" fill="url(#gradient35)" fill-rule="evenodd" stroke="none"/>
    <path d="M-204.9 -53.25 L-186.5 -56.4 -174.4 -58.9 -169.0 -61.75 -169.75 -59.4 -188.9 -6.5 -189.25 -0.9 -207.0 -0.9 -204.9 -53.25" fill="url(#gradient36)" fill-rule="evenodd" stroke="none"/>
    <path d="M-104.75 -61.75 L-101.4 -60.5 -100.5 -59.4 -104.75 -61.75" fill="url(#gradient37)" fill-rule="evenodd" stroke="none"/>
    <path d="M-94.9 -29.75 L-104.25 -7.9 -104.15 -7.5 -104.75 -6.75 -102.25 -21.15 -94.9 -29.75" fill="url(#gradient38)" fill-rule="evenodd" stroke="none"/>
    <path d="M-104.75 -6.75 L-105.0 -5.65 -99.0 -0.9 -125.5 -0.9 -102.25 -21.15 -104.75 -6.75" fill="url(#gradient39)" fill-rule="evenodd" stroke="none"/>
    <path d="M-43.4 -19.15 L-34.75 -20.65 -58.9 -0.9 -69.25 -0.9 -65.5 -4.0 -43.4 -19.15" fill="url(#gradient40)" fill-rule="evenodd" stroke="none"/>
    <path d="M-205.15 -193.15 L-205.15 -192.4 -205.65 -192.5 -206.15 -192.5 -217.65 -193.65 -218.0 -193.75 -246.5 -195.0 -246.65 -194.9 -249.4 -194.9 -252.75 -194.5 -252.4 -195.25 -252.25 -195.65 -250.5 -197.15 -249.25 -198.5 -248.9 -198.65 -248.65 -199.0 -235.9 -198.9 -235.75 -198.75 -231.9 -198.75 -226.0 -194.9 -226.15 -194.65 -205.75 -193.25 -205.65 -193.15 -205.15 -193.15 M-257.4 -8.25 L-255.9 -10.15 -255.65 -10.75 -253.5 -13.4 -253.25 -14.0 -249.65 -18.65 -249.15 -19.65 -245.4 -24.5 -245.15 -25.25 -241.65 -29.65 -241.4 -30.25 -238.0 -34.5 -237.9 -35.15 -237.0 -36.0 -214.25 -42.25 Q-209.7 -44.55 -205.15 -46.9 L-205.15 -47.0 -204.75 -47.25 -191.75 -53.65 -192.5 -37.0 -192.9 -35.0 -193.75 -14.15 -193.9 -13.0 -193.65 -12.9 -194.15 -8.25 -194.0 -5.5 -194.25 -4.25 -194.4 -3.75 -194.5 -1.0 -194.4 -0.9 -254.15 -0.9 -256.65 -6.15 -256.65 -6.25 -256.75 -6.4 -257.4 -7.9 -257.4 -8.25" fill="#9b0000" fill-opacity="0.9098039" fill-rule="evenodd" stroke="none"/>
    <path d="M-179.15 -187.25 L-186.65 -187.9 -195.0 -191.25 -205.15 -192.4 -205.15 -193.15 -187.65 -191.15 -179.15 -187.25 M-252.4 -195.25 L-252.75 -194.5 -252.9 -194.25 -254.15 -191.75 -255.4 -193.0 -260.9 -194.5 -259.25 -195.0 -252.4 -195.25" fill="#ab0000" fill-opacity="0.9098039" fill-rule="evenodd" stroke="none"/>
    <path d="M-186.65 -187.9 L-179.15 -187.25 -175.0 -175.4 -180.9 -176.75 -181.65 -177.15 -182.9 -177.65 -183.0 -177.65 -183.25 -177.75 -186.65 -187.9" fill="#ae0000" fill-opacity="0.9098039" fill-rule="evenodd" stroke="none"/>
    <path d="M-307.0 -70.4 L-311.25 -75.5 -308.9 -86.75 -296.0 -101.5 -293.65 -103.75 -293.5 -103.75 -293.75 -92.9 -294.0 -91.5 -294.65 -78.15 -295.15 -78.15 -303.9 -75.65 -306.9 -72.15 -306.75 -71.5 -307.0 -70.4" fill="#f00000" fill-opacity="0.9098039" fill-rule="evenodd" stroke="none"/>
    <path d="M-294.65 -78.15 L-294.5 -78.0 -294.9 -59.75 -303.15 -65.25 -303.9 -66.65 -306.75 -71.5 -306.9 -72.15 -303.9 -75.65 -295.15 -78.15 -294.65 -78.15" fill="#f50000" fill-opacity="0.9098039" fill-rule="evenodd" stroke="none"/>
    <path d="M-306.9 -69.9 L-306.9 -70.25 -307.0 -70.4 -306.75 -71.5 -303.9 -66.65 -306.9 -69.9" fill="#f10000" fill-rule="evenodd" stroke="none"/>
    <path d="M-148.75 -91.0 L-148.75 -91.75 -148.65 -92.5 -148.5 -93.25 -148.25 -94.15 -148.25 -94.65 -148.15 -94.9 -148.25 -95.0 -145.4 -93.0 -144.75 -83.75 -145.0 -82.15 -164.75 -58.25 -165.0 -58.15 -170.15 -57.15 -170.65 -57.15 -169.75 -59.4 -169.75 -59.5 -168.4 -60.0 -162.9 -64.15 -162.15 -64.5 -157.5 -69.75 -152.75 -77.4 -150.0 -85.0 -149.75 -86.15 -149.5 -86.65 -148.9 -88.5 -148.75 -91.0" fill="#ea0000" fill-rule="evenodd" stroke="none"/>
    <path d="M-191.4 -53.75 L-177.65 -58.25 -172.9 -59.65 -172.15 -60.0 -170.15 -60.5 -169.25 -61.25 -169.0 -61.65 -168.15 -62.25 -168.15 -62.4 -167.5 -62.75 -167.4 -62.9 -167.15 -63.0 -167.25 -63.25 -163.4 -66.0 -163.0 -66.15 -163.0 -66.25 -158.9 -69.75 -158.4 -70.0 -156.5 -71.5 -155.0 -75.25 -154.65 -75.9 -152.0 -83.0 -151.5 -83.9 -151.15 -85.0 -149.0 -90.4 -149.0 -91.0 -148.75 -91.0 -148.9 -88.5 -149.5 -86.65 -149.75 -86.15 -150.0 -85.0 -152.75 -77.4 -157.5 -69.75 -162.15 -64.5 -162.9 -64.15 -168.4 -60.0 -169.75 -59.5 -169.75 -59.4 -170.65 -57.15 -174.65 -56.5 -174.75 -56.4 -186.25 -54.65 -186.5 -54.65 -186.5 -54.5 -191.4 -53.75 M-148.65 -92.5 L-148.65 -92.75 -148.5 -93.25 -148.75 -93.5 -148.5 -93.65 -148.5 -94.5 -148.25 -94.65 -148.25 -94.15 -148.5 -93.25 -148.65 -92.5" fill="#d80000" fill-opacity="0.9098039" fill-rule="evenodd" stroke="none"/>
    <path d="M-191.75 -53.65 L-191.4 -53.75 -186.5 -54.5 -186.5 -54.65 -186.25 -54.65 -174.75 -56.4 -174.65 -56.5 -170.65 -57.15 -189.0 -5.75 -189.15 -2.0 -189.0 -1.65 -189.25 -1.5 -189.25 -0.9 -194.4 -0.9 -194.5 -1.0 -194.4 -3.75 -194.25 -4.25 -194.0 -5.5 -194.15 -8.25 -193.65 -12.9 -193.9 -13.0 -193.75 -14.15 -192.9 -35.0 -192.5 -37.0 -191.75 -53.65" fill="#ce0000" fill-opacity="0.9098039" fill-rule="evenodd" stroke="none"/>
    <path d="M-145.0 -82.15 L-144.9 -81.75 -150.0 -63.5 -154.9 -60.15 -159.0 -59.4 -159.75 -59.15 -164.75 -58.25 -145.0 -82.15" fill="#ef0000" fill-rule="evenodd" stroke="none"/>
    <path d="M-150.0 -63.5 L-174.65 -0.9 -181.25 -0.9 -180.75 -11.9 -166.75 -56.0 -166.5 -56.15 -165.0 -58.15 -164.75 -58.25 -159.75 -59.15 -159.0 -59.4 -154.9 -60.15 -150.0 -63.5" fill="#e50000" fill-rule="evenodd" stroke="none"/>
    <path d="M-294.9 -59.75 L-294.75 -59.65 -294.75 -59.5 -294.4 -10.65 -294.75 -0.9 -305.65 -0.9 -305.5 -8.15 -303.15 -65.25 -294.9 -59.75" fill="#c30000" fill-rule="evenodd" stroke="none"/>
    <path d="M-305.5 -8.15 L-306.9 -69.9 -303.9 -66.65 -303.15 -65.25 -305.5 -8.15" fill="#fe0000" fill-rule="evenodd" stroke="none"/>
    <path d="M-294.75 -59.5 L-292.65 -58.15 -292.5 -57.9 -290.4 -56.65 -290.25 -56.4 -285.5 -53.25 -273.65 -43.25 -273.5 -43.0 -271.0 -41.15 -270.9 -40.75 -270.4 -40.5 -267.5 -33.25 -267.25 -32.25 -263.4 -23.4 -263.25 -22.4 -257.4 -8.25 -257.4 -7.9 -256.75 -6.4 -256.65 -6.25 -256.65 -6.15 -256.15 -5.0 -255.9 -4.15 -254.15 -0.9 -294.75 -0.9 -294.4 -10.65 -294.75 -59.5" fill="#ad0000" fill-opacity="0.9098039" fill-rule="evenodd" stroke="none"/>
    <path d="M-254.15 -0.9 L-255.9 -4.15 -256.15 -5.0 -256.65 -6.15 -254.15 -0.9" fill="#ab0000" fill-rule="evenodd" stroke="none"/>
    <path d="M-170.15 -57.15 L-165.0 -58.15 -166.5 -56.15 -166.75 -56.0 -170.15 -57.15" fill="#e00000" fill-rule="evenodd" stroke="none"/>
    <path d="M-181.25 -0.9 L-189.25 -0.9 -189.25 -1.5 -189.0 -1.65 -189.15 -2.0 -189.0 -5.75 -170.65 -57.15 -170.15 -57.15 -166.75 -56.0 -180.75 -11.9 -181.25 -0.9" fill="#df0000" fill-rule="evenodd" stroke="none"/>
  </g>
  <defs>
    <radialGradient cx="0" cy="0" gradientTransform="matrix(0.264, 0.0, 0.0, 0.264, -323.25, -291.05)" gradientUnits="userSpaceOnUse" id="gradient0" r="819.2" spreadMethod="pad">
      <stop offset="0.0" stop-color="#5a5a5a"/>
      <stop offset="1.0" stop-color="#1a1a1a"/>
    </radialGradient>
    <radialGradient cx="0" cy="0" gradientTransform="matrix(0.0261, 0.0, 0.0, 0.0261, -141.1, -210.9)" gradientUnits="userSpaceOnUse" id="gradient1" r="819.2" spreadMethod="pad">
      <stop offset="0.0" stop-color="#292929"/>
      <stop offset="1.0" stop-color="#282828"/>
    </radialGradient>
    <radialGradient cx="0" cy="0" gradientTransform="matrix(0.0456, 0.0, 0.0, 0.0456, -310.6, -223.2)" gradientUnits="userSpaceOnUse" id="gradient2" r="819.2" spreadMethod="pad">
      <stop offset="0.0" stop-color="#343434"/>
      <stop offset="1.0" stop-color="#222222"/>
    </radialGradient>
    <radialGradient cx="0" cy="0" gradientTransform="matrix(0.1455, 0.0, 0.0, 0.1455, -293.75, -227.9)" gradientUnits="userSpaceOnUse" id="gradient3" r="819.2" spreadMethod="pad">
      <stop offset="0.0" stop-color="#0b0b0b"/>
      <stop offset="1.0" stop-color="#000000"/>
    </radialGradient>
    <radialGradient cx="0" cy="0" gradientTransform="matrix(0.05, 0.0, 0.0, 0.05, -227.35, -191.5)" gradientUnits="userSpaceOnUse" id="gradient4" r="819.2" spreadMethod="pad">
      <stop offset="0.0" stop-color="#818181"/>
      <stop offset="1.0" stop-color="#323232"/>
    </radialGradient>
    <radialGradient cx="0" cy="0" gradientTransform="matrix(0.0152, 0.0, 0.0, 0.0152, -205.25, -196.5)" gradientUnits="userSpaceOnUse" id="gradient5" r="819.2" spreadMethod="pad">
      <stop offset="0.0" stop-color="#030303"/>
      <stop offset="1.0" stop-color="#000000"/>
    </radialGradient>
    <radialGradient cx="0" cy="0" gradientTransform="matrix(0.0233, 0.0, 0.0, 0.0233, -266.8, -180.6)" gradientUnits="userSpaceOnUse" id="gradient6" r="819.2" spreadMethod="pad">
      <stop offset="0.0" stop-color="#4a4a4a"/>
      <stop offset="1.0" stop-color="#090909"/>
    </radialGradient>
    <radialGradient cx="0" cy="0" gradientTransform="matrix(0.1596, 0.0, 0.0, 0.1596, -233.7, -179.45)" gradientUnits="userSpaceOnUse" id="gradient7" r="819.2" spreadMethod="pad">
      <stop offset="0.0" stop-color="#5c5c5c"/>
      <stop offset="1.0" stop-color="#141414"/>
    </radialGradient>
    <radialGradient cx="0" cy="0" gradientTransform="matrix(0.0456, 0.0, 0.0, 0.0456, -277.9, -181.6)" gradientUnits="userSpaceOnUse" id="gradient8" r="819.2" spreadMethod="pad">
      <stop offset="0.0" stop-color="#0a0a0a"/>
      <stop offset="1.0" stop-color="#000000"/>
    </radialGradient>
    <radialGradient cx="0" cy="0" gradientTransform="matrix(0.0608, 0.0, 0.0, 0.0608, -323.7, -161.75)" gradientUnits="userSpaceOnUse" id="gradient9" r="819.2" spreadMethod="pad">
      <stop offset="0.0" stop-color="#585858"/>
      <stop offset="1.0" stop-color="#323232"/>
    </radialGradient>
    <radialGradient cx="0" cy="0" gradientTransform="matrix(0.0165, 0.0, 0.0, 0.0165, -291.8, -180.6)" gradientUnits="userSpaceOnUse" id="gradient10" r="819.2" spreadMethod="pad">
      <stop offset="0.0" stop-color="#000000"/>
      <stop offset="1.0" stop-color="#000000"/>
    </radialGradient>
    <radialGradient cx="0" cy="0" gradientTransform="matrix(0.0972, 0.0, 0.0, 0.0972, -289.25, -142.15)" gradientUnits="userSpaceOnUse" id="gradient11" r="819.2" spreadMethod="pad">
      <stop offset="0.0" stop-color="#414141"/>
      <stop offset="1.0" stop-color="#393939"/>
    </radialGradient>
    <radialGradient cx="0" cy="0" gradientTransform="matrix(0.0688, 0.0, 0.0, 0.0688, -292.35, -62.6)" gradientUnits="userSpaceOnUse" id="gradient12" r="819.2" spreadMethod="pad">
      <stop offset="0.0" stop-color="#3e3e3e"/>
      <stop offset="1.0" stop-color="#282828"/>
    </radialGradient>
    <radialGradient cx="0" cy="0" gradientTransform="matrix(0.0347, 0.0, 0.0, 0.0347, -292.9, -118.55)" gradientUnits="userSpaceOnUse" id="gradient13" r="819.2" spreadMethod="pad">
      <stop offset="0.0" stop-color="#171717"/>
      <stop offset="1.0" stop-color="#000000"/>
    </radialGradient>
    <radialGradient cx="0" cy="0" gradientTransform="matrix(0.0589, 0.0, 0.0, 0.0589, -316.95, -160.4)" gradientUnits="userSpaceOnUse" id="gradient14" r="819.2" spreadMethod="pad">
      <stop offset="0.0" stop-color="#4c4c4c"/>
      <stop offset="1.0" stop-color="#1d1d1d"/>
    </radialGradient>
    <radialGradient cx="0" cy="0" gradientTransform="matrix(0.2235, 0.0, 0.0, 0.2235, -268.95, -1.0)" gradientUnits="userSpaceOnUse" id="gradient15" r="819.2" spreadMethod="pad">
      <stop offset="0.0" stop-color="#404040"/>
      <stop offset="1.0" stop-color="#000000"/>
    </radialGradient>
    <radialGradient cx="0" cy="0" gradientTransform="matrix(0.1285, 0.0, 0.0, 0.1285, -292.35, -62.6)" gradientUnits="userSpaceOnUse" id="gradient16" r="819.2" spreadMethod="pad">
      <stop offset="0.0" stop-color="#3e3e3e"/>
      <stop offset="1.0" stop-color="#000000"/>
    </radialGradient>
    <radialGradient cx="0" cy="0" gradientTransform="matrix(0.1509, 0.0, 0.0, 0.1509, -168.9, -62.1)" gradientUnits="userSpaceOnUse" id="gradient17" r="819.2" spreadMethod="pad">
      <stop offset="0.0" stop-color="#626262"/>
      <stop offset="1.0" stop-color="#141414"/>
    </radialGradient>
    <radialGradient cx="0" cy="0" gradientTransform="matrix(0.0574, 0.0, 0.0, 0.0574, -153.45, -165.4)" gradientUnits="userSpaceOnUse" id="gradient18" r="819.2" spreadMethod="pad">
      <stop offset="0.0" stop-color="#444444"/>
      <stop offset="1.0" stop-color="#222222"/>
    </radialGradient>
    <radialGradient cx="0" cy="0" gradientTransform="matrix(0.0318, 0.0, 0.0, 0.0318, -176.1, -171.55)" gradientUnits="userSpaceOnUse" id="gradient19" r="819.2" spreadMethod="pad">
      <stop offset="0.0" stop-color="#3f3f3f"/>
      <stop offset="1.0" stop-color="#282828"/>
    </radialGradient>
    <radialGradient cx="0" cy="0" gradientTransform="matrix(0.0748, 0.0, 0.0, 0.0748, -176.1, -171.55)" gradientUnits="userSpaceOnUse" id="gradient20" r="819.2" spreadMethod="pad">
      <stop offset="0.0" stop-color="#3f3f3f"/>
      <stop offset="1.0" stop-color="#000000"/>
    </radialGradient>
    <radialGradient cx="0" cy="0" gradientTransform="matrix(0.0137, 0.0, 0.0, 0.0137, -181.95, -175.05)" gradientUnits="userSpaceOnUse" id="gradient21" r="819.2" spreadMethod="pad">
      <stop offset="0.0" stop-color="#5b5b5b"/>
      <stop offset="1.0" stop-color="#090909"/>
    </radialGradient>
    <radialGradient cx="0" cy="0" gradientTransform="matrix(0.1251, 0.0, 0.0, 0.1251, -128.05, -148.3)" gradientUnits="userSpaceOnUse" id="gradient22" r="819.2" spreadMethod="pad">
      <stop offset="0.0" stop-color="#575757"/>
      <stop offset="1.0" stop-color="#262626"/>
    </radialGradient>
    <radialGradient cx="0" cy="0" gradientTransform="matrix(0.1, 0.0, 0.0, 0.1, -323.7, -161.75)" gradientUnits="userSpaceOnUse" id="gradient23" r="819.2" spreadMethod="pad">
      <stop offset="0.0" stop-color="#585858"/>
      <stop offset="1.0" stop-color="#000000"/>
    </radialGradient>
    <radialGradient cx="0" cy="0" gradientTransform="matrix(0.07, 0.0, 0.0, 0.07, -341.25, -154.3)" gradientUnits="userSpaceOnUse" id="gradient24" r="819.2" spreadMethod="pad">
      <stop offset="0.0" stop-color="#686868"/>
      <stop offset="1.0" stop-color="#484848"/>
    </radialGradient>
    <radialGradient cx="0" cy="0" gradientTransform="matrix(0.0148, 0.0, 0.0, 0.0148, -393.75, -131.25)" gradientUnits="userSpaceOnUse" id="gradient25" r="819.2" spreadMethod="pad">
      <stop offset="0.0" stop-color="#484848"/>
      <stop offset="1.0" stop-color="#131313"/>
    </radialGradient>
    <radialGradient cx="0" cy="0" gradientTransform="matrix(0.0056, 0.0, 0.0, 0.0056, -399.95, -138.2)" gradientUnits="userSpaceOnUse" id="gradient26" r="819.2" spreadMethod="pad">
      <stop offset="0.0" stop-color="#1d1d1d"/>
      <stop offset="1.0" stop-color="#040404"/>
    </radialGradient>
    <radialGradient cx="0" cy="0" gradientTransform="matrix(0.0305, 0.0, 0.0, 0.0305, -393.75, -131.25)" gradientUnits="userSpaceOnUse" id="gradient27" r="819.2" spreadMethod="pad">
      <stop offset="0.0" stop-color="#484848"/>
      <stop offset="1.0" stop-color="#0b0b0b"/>
    </radialGradient>
    <radialGradient cx="0" cy="0" gradientTransform="matrix(0.0459, 0.0, 0.0, 0.0459, -400.0, -96.4)" gradientUnits="userSpaceOnUse" id="gradient28" r="819.2" spreadMethod="pad">
      <stop offset="0.0" stop-color="#000000"/>
      <stop offset="1.0" stop-color="#000000"/>
    </radialGradient>
    <radialGradient cx="0" cy="0" gradientTransform="matrix(0.0872, 0.0, 0.0, 0.0872, -341.25, -154.3)" gradientUnits="userSpaceOnUse" id="gradient29" r="819.2" spreadMethod="pad">
      <stop offset="0.0" stop-color="#686868"/>
      <stop offset="1.0" stop-color="#000000"/>
    </radialGradient>
    <radialGradient cx="0" cy="0" gradientTransform="matrix(0.1313, 0.0, 0.0, 0.1313, -163.25, -105.75)" gradientUnits="userSpaceOnUse" id="gradient30" r="819.2" spreadMethod="pad">
      <stop offset="0.0" stop-color="#2f2f2f"/>
      <stop offset="1.0" stop-color="#000000"/>
    </radialGradient>
    <radialGradient cx="0" cy="0" gradientTransform="matrix(0.0428, 0.0, 0.0, 0.0428, -96.45, -70.6)" gradientUnits="userSpaceOnUse" id="gradient31" r="819.2" spreadMethod="pad">
      <stop offset="0.0" stop-color="#000000"/>
      <stop offset="1.0" stop-color="#000000"/>
    </radialGradient>
    <radialGradient cx="0" cy="0" gradientTransform="matrix(0.0985, 0.0, 0.0, 0.0985, -105.0, -5.95)" gradientUnits="userSpaceOnUse" id="gradient32" r="819.2" spreadMethod="pad">
      <stop offset="0.0" stop-color="#292929"/>
      <stop offset="1.0" stop-color="#000000"/>
    </radialGradient>
    <radialGradient cx="0" cy="0" gradientTransform="matrix(0.0612, 0.0, 0.0, 0.0612, -25.05, -39.2)" gradientUnits="userSpaceOnUse" id="gradient33" r="819.2" spreadMethod="pad">
      <stop offset="0.0" stop-color="#626262"/>
      <stop offset="1.0" stop-color="#0c0c0c"/>
    </radialGradient>
    <radialGradient cx="0" cy="0" gradientTransform="matrix(0.0255, 0.0, 0.0, 0.0255, -163.25, -105.75)" gradientUnits="userSpaceOnUse" id="gradient34" r="819.2" spreadMethod="pad">
      <stop offset="0.0" stop-color="#2f2f2f"/>
      <stop offset="1.0" stop-color="#000000"/>
    </radialGradient>
    <radialGradient cx="0" cy="0" gradientTransform="matrix(0.0536, 0.0, 0.0, 0.0536, -149.15, -87.7)" gradientUnits="userSpaceOnUse" id="gradient35" r="819.2" spreadMethod="pad">
      <stop offset="0.0" stop-color="#777777"/>
      <stop offset="1.0" stop-color="#000000"/>
    </radialGradient>
    <radialGradient cx="0" cy="0" gradientTransform="matrix(0.0723, 0.0, 0.0, 0.0723, -188.85, -6.4)" gradientUnits="userSpaceOnUse" id="gradient36" r="819.2" spreadMethod="pad">
      <stop offset="0.0" stop-color="#838383"/>
      <stop offset="1.0" stop-color="#373737"/>
    </radialGradient>
    <radialGradient cx="0" cy="0" gradientTransform="matrix(0.0278, 0.0, 0.0, 0.0278, -85.45, -51.25)" gradientUnits="userSpaceOnUse" id="gradient37" r="819.2" spreadMethod="pad">
      <stop offset="0.0" stop-color="#010101"/>
      <stop offset="1.0" stop-color="#000000"/>
    </radialGradient>
    <radialGradient cx="0" cy="0" gradientTransform="matrix(0.0359, 0.0, 0.0, 0.0359, -105.0, -5.95)" gradientUnits="userSpaceOnUse" id="gradient38" r="819.2" spreadMethod="pad">
      <stop offset="0.0" stop-color="#292929"/>
      <stop offset="1.0" stop-color="#000000"/>
    </radialGradient>
    <radialGradient cx="0" cy="0" gradientTransform="matrix(0.0274, 0.0, 0.0, 0.0274, -111.4, -1.0)" gradientUnits="userSpaceOnUse" id="gradient39" r="819.2" spreadMethod="pad">
      <stop offset="0.0" stop-color="#2b2b2b"/>
      <stop offset="1.0" stop-color="#161616"/>
    </radialGradient>
    <radialGradient cx="0" cy="0" gradientTransform="matrix(0.0422, 0.0, 0.0, 0.0422, -65.15, -4.25)" gradientUnits="userSpaceOnUse" id="gradient40" r="819.2" spreadMethod="pad">
      <stop offset="0.0" stop-color="#000000"/>
      <stop offset="1.0" stop-color="#000000"/>
    </radialGradient>
  </defs>
</svg>
