<?xml version="1.0" encoding="UTF-8" standalone="no"?>
<svg xmlns:xlink="http://www.w3.org/1999/xlink" height="299.1px" width="384.25px" xmlns="http://www.w3.org/2000/svg">
  <g transform="matrix(1.0, 0.0, 0.0, 1.0, 400.0, 300.0)">
    <path d="M-288.75 -214.9 L-289.4 -210.25 -291.65 -204.25 -292.4 -203.15 -305.9 -216.65 -314.4 -230.5 -320.9 -243.4 -321.4 -243.75 -323.0 -247.5 -324.15 -249.15 -330.5 -276.25 -331.65 -296.15 -331.25 -300.0 -98.75 -300.0 -98.4 -286.75 -101.25 -263.4 -108.5 -241.65 -120.0 -221.9 -120.25 -221.65 -121.9 -219.9 -121.9 -219.75 -128.15 -213.15 -128.9 -212.9 -128.75 -212.65 -130.15 -211.5 -132.9 -208.15 -138.25 -202.4 -162.0 -198.5 -162.9 -198.5 -171.65 -204.15 -192.5 -217.65 -201.0 -200.9 -201.4 -200.9 -218.5 -213.65 -245.0 -212.75 -267.4 -215.0 -268.75 -210.25 -270.9 -202.5 -271.25 -202.5 -280.65 -212.5 -282.25 -214.0 -287.75 -220.15 -288.15 -219.75 -288.25 -218.25 -288.75 -214.9" fill="url(#gradient0)" fill-rule="evenodd" stroke="none"/>
    <path d="M-282.25 -214.0 L-280.65 -212.5 -281.75 -211.0 -282.25 -211.15 -288.75 -214.9 -288.25 -218.25 -282.25 -211.5 -281.9 -211.4 -282.25 -214.0" fill="url(#gradient1)" fill-rule="evenodd" stroke="none"/>
    <path d="M-121.9 -219.75 L-133.65 -206.4 -133.9 -206.25 -133.75 -206.75 -132.9 -208.15 -130.15 -211.5 -128.75 -212.65 -128.9 -212.9 -128.15 -213.15 -121.9 -219.75" fill="url(#gradient2)" fill-rule="evenodd" stroke="none"/>
    <path d="M-171.65 -204.15 L-183.9 -198.25 -196.0 -195.25 -196.15 -195.75 -199.9 -196.25 -208.65 -196.15 -212.9 -196.65 -234.75 -197.15 -237.15 -196.75 -241.65 -197.25 -254.65 -201.9 -268.75 -210.25 -267.4 -215.0 -245.0 -212.75 -218.5 -213.65 -201.4 -200.9 -201.0 -200.9 -192.5 -217.65 -171.65 -204.15" fill="url(#gradient3)" fill-rule="evenodd" stroke="none"/>
    <path d="M-196.0 -195.25 L-196.25 -183.75 -185.15 -176.0 -191.65 -175.25 -210.15 -174.5 -226.5 -175.0 -224.4 -175.65 -224.5 -175.9 -242.9 -176.5 -241.15 -175.65 -253.65 -176.15 -246.0 -185.4 -244.0 -187.5 Q-240.75 -196.0 -241.5 -197.15 L-241.65 -197.25 -237.15 -196.75 -234.75 -197.15 -212.9 -196.65 -208.65 -196.15 -199.9 -196.25 -196.15 -195.75 -196.0 -195.25" fill="url(#gradient4)" fill-rule="evenodd" stroke="none"/>
    <path d="M-246.0 -185.4 L-253.65 -176.15 -266.5 -177.25 -260.15 -179.9 -259.9 -179.9 -246.0 -185.4" fill="url(#gradient5)" fill-rule="evenodd" stroke="none"/>
    <path d="M-269.4 -178.25 L-260.15 -179.9 -266.5 -177.25 -269.4 -178.25" fill="url(#gradient6)" fill-rule="evenodd" stroke="none"/>
    <path d="M-310.5 -161.65 L-310.25 -161.65 -308.65 -162.65 -308.4 -162.75 -308.0 -163.0 -307.9 -163.15 -307.65 -163.25 -306.65 -163.9 -306.4 -164.0 -305.4 -164.65 -305.25 -164.65 -305.0 -164.75 -287.75 -174.9 -269.9 -178.25 -269.4 -178.25 -269.5 -178.0 -309.5 -156.25 -316.9 -157.65 -312.0 -160.65 -311.75 -160.75 -311.0 -161.25 -311.0 -161.4 -310.75 -161.4 -310.75 -161.5 -310.5 -161.5 -310.5 -161.65" fill="url(#gradient7)" fill-rule="evenodd" stroke="none"/>
    <path d="M-305.0 -164.75 L-285.9 -176.5 -284.9 -176.9 -269.9 -178.25 -287.75 -174.9 -305.0 -164.75" fill="url(#gradient8)" fill-rule="evenodd" stroke="none"/>
    <path d="M-269.4 -178.25 L-266.5 -177.25 -277.75 -137.4 -280.9 -57.9 -286.75 -63.5 -285.0 -114.0 -291.9 -150.5 -292.5 -152.25 -269.5 -178.0 -269.4 -178.25" fill="url(#gradient9)" fill-rule="evenodd" stroke="none"/>
    <path d="M-311.0 -126.15 L-311.4 -126.4 -309.5 -156.25 -269.5 -178.0 -292.5 -152.25 -291.9 -150.5 -285.0 -114.0 -311.0 -126.15" fill="url(#gradient10)" fill-rule="evenodd" stroke="none"/>
    <path d="M-392.65 -126.5 L-392.0 -126.75 -391.75 -126.9 -366.9 -136.65 -334.0 -150.9 -316.9 -157.65 -309.5 -156.25 -311.4 -126.4 -311.0 -126.15 -297.9 -110.75 -318.75 -104.65 -335.4 -96.25 -347.65 -91.65 -349.0 -91.25 -361.4 -90.9 -392.4 -100.9 -392.65 -126.5" fill="url(#gradient11)" fill-rule="evenodd" stroke="none"/>
    <path d="M-385.5 -131.5 L-311.0 -161.4 -310.75 -161.5 -310.5 -161.65 -310.5 -161.5 -310.75 -161.5 -310.75 -161.4 -311.0 -161.4 -311.0 -161.25 -311.75 -160.75 -312.0 -160.65 -316.9 -157.65 -334.0 -150.9 -366.9 -136.65 -391.75 -126.9 -387.4 -130.75 -385.5 -131.5" fill="url(#gradient12)" fill-rule="evenodd" stroke="none"/>
    <path d="M-226.5 -175.0 L-210.15 -174.5 -191.65 -175.25 -185.9 -133.65 -189.5 -49.75 -222.75 -52.4 -229.0 -53.5 -227.5 -87.9 -227.75 -88.75 -226.9 -108.0 -225.25 -131.5 -227.5 -154.9 -226.5 -175.0 M-253.65 -176.15 L-241.15 -175.65 -240.75 -175.65 -243.0 -165.0 -244.0 -133.5 -246.15 -101.4 -247.75 -55.15 -252.75 -55.15 -280.75 -57.5 -280.9 -57.9 -277.75 -137.4 -266.5 -177.25 -253.65 -176.15" fill="url(#gradient13)" fill-rule="evenodd" stroke="none"/>
    <path d="M-280.9 -57.9 L-280.75 -57.5 -284.25 -3.15 -286.75 -63.5 -280.9 -57.9" fill="url(#gradient14)" fill-rule="evenodd" stroke="none"/>
    <path d="M-171.25 -143.0 L-170.9 -107.25 -170.0 -107.0 -161.15 -108.25 -158.75 -106.5 -160.15 -93.4 -160.5 -86.0 -160.4 -74.65 -159.75 -69.75 -160.4 -59.25 -163.5 -56.25 -189.5 -49.75 -185.9 -133.65 -191.65 -175.25 -185.15 -176.0 -185.0 -175.9 -171.25 -143.0" fill="url(#gradient15)" fill-rule="evenodd" stroke="none"/>
    <path d="M-163.25 -166.9 L-171.25 -143.0 -185.0 -175.9 -184.65 -175.9 -163.25 -166.9" fill="url(#gradient16)" fill-rule="evenodd" stroke="none"/>
    <path d="M-141.0 -161.15 L-142.25 -161.15 -144.0 -153.4 -163.25 -166.9 -184.65 -175.9 -179.65 -174.75 -171.25 -172.75 -171.15 -172.75 -158.65 -169.75 -141.0 -161.15" fill="url(#gradient17)" fill-rule="evenodd" stroke="none"/>
    <path d="M-163.25 -166.9 L-144.0 -153.4 -149.25 -141.9 -156.65 -120.5 -170.9 -107.25 -171.25 -143.0 -163.25 -166.9" fill="url(#gradient18)" fill-rule="evenodd" stroke="none"/>
    <path d="M-241.15 -175.65 L-242.9 -176.5 -224.5 -175.9 -224.4 -175.65 -226.5 -175.0 -227.5 -154.9 -225.25 -131.5 -226.9 -108.0 -227.75 -88.75 -227.5 -87.9 -229.0 -53.5 -232.5 -0.9 -251.15 -0.9 -247.75 -55.15 -246.15 -101.4 -244.0 -133.5 -243.0 -165.0 -240.75 -175.65 -241.15 -175.65" fill="url(#gradient19)" fill-rule="evenodd" stroke="none"/>
    <path d="M-229.0 -53.5 L-222.75 -52.4 -189.5 -49.75 -192.4 -0.9 -232.5 -0.9 -229.0 -53.5 M-247.75 -55.15 L-251.15 -0.9 -284.25 -0.9 -284.25 -3.15 -280.75 -57.5 -252.75 -55.15 -247.75 -55.15" fill="url(#gradient20)" fill-rule="evenodd" stroke="none"/>
    <path d="M-179.65 -174.75 L-177.25 -174.65 -173.15 -173.65 -171.25 -172.75 -179.65 -174.75" fill="url(#gradient21)" fill-rule="evenodd" stroke="none"/>
    <path d="M-189.5 -49.75 L-163.5 -56.25 -160.4 -59.25 -179.75 -0.9 -192.4 -0.9 -189.5 -49.75" fill="url(#gradient22)" fill-rule="evenodd" stroke="none"/>
    <path d="M-160.4 -59.25 L-159.75 -69.75 -160.4 -74.65 -160.5 -86.0 -160.15 -93.4 -158.75 -106.5 -152.75 -102.65 -142.65 -95.25 Q-141.0 -73.5 -160.4 -59.25" fill="url(#gradient23)" fill-rule="evenodd" stroke="none"/>
    <path d="M-170.9 -107.25 L-156.65 -120.5 -152.75 -102.65 -158.75 -106.5 -161.15 -108.25 -170.0 -107.0 -170.9 -107.25" fill="url(#gradient24)" fill-rule="evenodd" stroke="none"/>
    <path d="M-144.0 -153.4 L-127.75 -134.25 -98.5 -111.5 -69.75 -87.0 -49.9 -69.4 -83.75 -77.25 -83.65 -68.5 -90.75 -58.9 -94.9 -60.15 -95.15 -60.25 -97.4 -61.9 -117.5 -79.75 -134.15 -89.25 -142.65 -95.25 -152.75 -102.65 -156.65 -120.5 -149.25 -141.9 -144.0 -153.4" fill="url(#gradient25)" fill-rule="evenodd" stroke="none"/>
    <path d="M-49.9 -69.4 L-69.75 -87.0 -98.5 -111.5 -127.75 -134.25 -144.0 -153.4 -142.25 -161.15 -141.0 -161.15 -140.9 -161.15 -116.0 -144.9 -91.5 -126.65 -65.75 -104.5 -41.4 -81.0 -41.25 -80.75 -40.75 -79.15 -49.65 -69.4 -49.9 -69.4" fill="url(#gradient26)" fill-rule="evenodd" stroke="none"/>
    <path d="M-83.65 -68.5 L-83.75 -77.25 -49.9 -69.4 -83.65 -68.5" fill="url(#gradient27)" fill-rule="evenodd" stroke="none"/>
    <path d="M-49.9 -69.4 L-49.65 -69.4 -24.0 -44.5 -23.5 -35.75 -32.65 -19.9 -54.65 -4.65 -59.15 -0.9 -87.4 -0.9 -93.5 -5.4 -93.4 -6.15 -93.0 -6.4 -83.9 -31.15 -83.9 -31.5 -77.75 -47.15 -88.25 -56.5 -90.75 -58.9 -83.65 -68.5 -49.9 -69.4" fill="url(#gradient28)" fill-rule="evenodd" stroke="none"/>
    <path d="M-49.65 -69.4 L-40.75 -79.15 -41.25 -80.75 -17.9 -50.4 -15.75 -46.9 -16.25 -37.5 -25.5 -21.5 -32.65 -19.9 -23.5 -35.75 -24.0 -44.5 -49.65 -69.4" fill="url(#gradient29)" fill-rule="evenodd" stroke="none"/>
    <path d="M-400.0 -128.4 L-400.0 -133.9 -397.25 -133.9 -385.5 -131.5 -387.4 -130.75 -391.75 -126.9 -392.0 -126.75 -392.65 -126.5 -400.0 -128.4" fill="url(#gradient30)" fill-rule="evenodd" stroke="none"/>
    <path d="M-400.0 -133.9 L-400.0 -135.9 -397.25 -133.9 -400.0 -133.9" fill="url(#gradient31)" fill-rule="evenodd" stroke="none"/>
    <path d="M-400.0 -128.4 L-392.65 -126.5 -392.4 -100.9 -400.0 -104.0 -400.0 -128.4" fill="url(#gradient32)" fill-rule="evenodd" stroke="none"/>
    <path d="M-392.4 -100.9 L-361.4 -90.9 -400.0 -90.9 -400.0 -104.0 -392.4 -100.9" fill="url(#gradient33)" fill-rule="evenodd" stroke="none"/>
    <path d="M-297.9 -110.75 L-311.0 -126.15 -285.0 -114.0 -297.9 -110.75" fill="url(#gradient34)" fill-rule="evenodd" stroke="none"/>
    <path d="M-94.9 -60.15 L-90.75 -58.9 -88.25 -56.5 -94.9 -60.15" fill="url(#gradient35)" fill-rule="evenodd" stroke="none"/>
    <path d="M-83.9 -31.5 L-83.9 -31.15 -93.0 -6.4 -93.4 -6.15 -93.15 -20.75 -83.9 -31.5" fill="url(#gradient36)" fill-rule="evenodd" stroke="none"/>
    <path d="M-93.15 -20.75 L-93.4 -6.15 -93.5 -5.4 -87.4 -0.9 -116.75 -0.9 -93.15 -20.75" fill="url(#gradient37)" fill-rule="evenodd" stroke="none"/>
    <path d="M-32.65 -19.9 L-25.5 -21.5 -47.5 -3.5 -50.25 -0.9 -59.15 -0.9 -54.65 -4.65 -32.65 -19.9" fill="url(#gradient38)" fill-rule="evenodd" stroke="none"/>
    <path d="M-196.25 -188.9 L-196.65 -188.4 -198.5 -188.65 -201.25 -188.65 -206.25 -189.25 -206.5 -189.4 -219.0 -190.15 -219.25 -190.25 -238.9 -190.65 -243.0 -190.4 -242.9 -191.0 -240.5 -191.0 -236.25 -194.65 -218.75 -194.25 -214.0 -191.0 -214.0 -190.75 -213.0 -190.15 -207.15 -189.75 -206.75 -189.65 -201.15 -189.15 -198.75 -189.15 -196.65 -188.9 -196.25 -188.9 M-242.9 -3.9 L-242.15 -4.5 -242.0 -5.0 -238.75 -9.0 -238.65 -9.5 -236.15 -12.5 -235.75 -13.4 -231.5 -18.65 -231.15 -19.15 -231.25 -19.4 -227.4 -24.15 -227.15 -24.9 -223.4 -29.5 -223.25 -29.9 -221.9 -31.75 -198.0 -38.65 -190.9 -42.25 -190.75 -42.5 -190.15 -42.65 -190.0 -42.9 -189.4 -43.0 -175.5 -50.15 -175.5 -46.65 -175.9 -44.5 -176.0 -38.4 -176.15 -38.0 -176.15 -37.75 -176.4 -36.75 -176.4 -36.5 -176.5 -36.0 -176.5 -34.4 -176.65 -33.25 -177.65 -15.4 -178.0 -13.4 -178.25 -6.5 -178.4 -6.15 -178.5 -5.25 -178.65 -4.9 -178.75 -4.5 -178.9 -4.15 -179.75 -0.9 -241.65 -0.9 -242.25 -2.25 -242.25 -2.5 -242.5 -2.65 -242.65 -2.9 -242.75 -3.15 -242.9 -3.9" fill="#9b0000" fill-opacity="0.9098039" fill-rule="evenodd" stroke="none"/>
    <path d="M-196.25 -188.9 L-179.4 -187.0 -172.9 -183.4 -180.4 -184.0 -187.25 -187.25 -196.25 -188.25 -196.65 -188.4 -196.25 -188.9 M-243.0 -190.4 L-243.15 -190.25 -244.0 -187.5 -245.9 -185.65 -246.0 -185.4 -247.15 -185.15 -247.15 -185.65 Q-248.5 -190.5 -251.5 -190.65 L-242.9 -191.0 -243.0 -190.4" fill="#ab0000" fill-opacity="0.9098039" fill-rule="evenodd" stroke="none"/>
    <path d="M-180.4 -184.0 L-172.9 -183.4 -170.0 -172.5 -172.4 -173.0 -172.65 -173.4 -177.0 -174.5 -177.5 -174.5 -178.0 -174.65 -180.4 -184.0" fill="#ae0000" fill-opacity="0.9098039" fill-rule="evenodd" stroke="none"/>
    <path d="M-299.5 -67.5 L-300.15 -68.0 -302.75 -70.5 -302.65 -82.0 -290.65 -99.4 -285.4 -103.25 -285.25 -103.25 -286.5 -72.25 -291.5 -73.9 -292.15 -73.65 -292.4 -73.5 -297.5 -71.5 -297.9 -71.4 -298.5 -71.15 -299.5 -67.5" fill="#ee0000" fill-opacity="0.9098039" fill-rule="evenodd" stroke="none"/>
    <path d="M-286.5 -72.25 L-286.75 -63.5 -286.5 -57.0 -291.4 -60.15 -299.0 -67.0 -299.25 -67.0 -299.25 -67.25 -299.5 -67.5 -298.5 -71.15 -297.9 -71.4 -297.5 -71.5 -292.4 -73.5 -292.15 -73.65 -291.5 -73.9 -286.5 -72.25" fill="#f50000" fill-opacity="0.9098039" fill-rule="evenodd" stroke="none"/>
    <path d="M-161.5 -55.65 L-160.4 -59.25 -156.75 -61.9 -151.5 -67.0 -159.0 -56.75 -159.25 -56.5 -161.5 -55.65 M-151.4 -67.5 L-151.15 -67.9 -150.75 -68.15 -151.4 -67.5 M-150.0 -69.15 L-146.65 -75.0 -143.75 -82.4 -143.9 -82.65 -143.75 -82.9 -142.5 -90.15 -142.65 -90.75 -142.5 -91.15 -142.65 -91.15 -142.65 -95.25 -142.15 -94.9 -141.4 -84.5 -141.65 -82.75 -142.4 -79.25 -142.9 -78.15 -150.0 -69.15" fill="#c20000" fill-opacity="0.9098039" fill-rule="evenodd" stroke="none"/>
    <path d="M-151.5 -67.0 L-151.4 -67.5 -150.75 -68.15 -150.0 -69.15 -142.9 -78.15 -144.9 -69.15 -145.25 -68.75 -156.4 -57.65 -159.0 -56.75 -151.5 -67.0 M-142.15 -94.9 L-141.0 -94.15 -140.25 -89.15 -140.5 -87.15 -141.4 -84.5 -142.15 -94.9" fill="#ff0000" fill-opacity="0.9098039" fill-rule="evenodd" stroke="none"/>
    <path d="M-140.5 -87.15 L-140.4 -84.75 -141.75 -60.75 -144.15 -57.75 -161.5 -53.25 -161.25 -53.9 -159.25 -56.5 -159.0 -56.75 -156.4 -57.65 -145.25 -68.75 -144.9 -69.15 -142.9 -78.15 -142.4 -79.25 -141.4 -80.4 -141.65 -82.75 -141.4 -84.5 -140.5 -87.15" fill="#e90000" fill-rule="evenodd" stroke="none"/>
    <path d="M-142.4 -79.25 L-141.65 -82.75 -141.4 -80.4 -142.4 -79.25 M-161.25 -53.9 L-162.0 -54.0 -161.5 -55.65 -159.25 -56.5 -161.25 -53.9" fill="#e30000" fill-rule="evenodd" stroke="none"/>
    <path d="M-295.25 -0.9 L-295.65 -0.9 -299.25 -67.0 -299.0 -67.0 -291.4 -60.15 -291.4 -58.75 -295.25 -0.9" fill="#fe0000" fill-rule="evenodd" stroke="none"/>
    <path d="M-284.25 -0.9 L-295.25 -0.9 -291.4 -58.75 -291.4 -60.15 -286.5 -57.0 -284.25 -0.9" fill="#bf0000" fill-rule="evenodd" stroke="none"/>
    <path d="M-174.65 -50.5 L-174.25 -50.65 -173.9 -50.9 -173.75 -50.65 -173.75 -51.0 -161.5 -55.65 -162.0 -54.0 -162.4 -53.15 -173.75 -50.65 -174.25 -50.65 -174.15 -50.5 -174.65 -50.5" fill="#d20000" fill-opacity="0.9098039" fill-rule="evenodd" stroke="none"/>
    <path d="M-175.5 -50.15 L-174.65 -50.5 -174.15 -50.5 -174.25 -50.65 -173.75 -50.65 -162.4 -53.15 -177.25 -9.0 -177.4 -8.65 -178.5 -5.25 -178.4 -6.15 -178.25 -6.5 -178.0 -13.4 -177.65 -15.4 -176.65 -33.25 -176.5 -34.4 -176.5 -36.0 -176.4 -36.5 -176.4 -36.75 -176.15 -37.75 -176.15 -38.0 -176.0 -38.4 -175.9 -44.5 -175.5 -46.65 -175.5 -50.15" fill="#ce0000" fill-opacity="0.9098039" fill-rule="evenodd" stroke="none"/>
    <path d="M-286.5 -57.0 L-281.0 -53.5 -279.0 -52.5 -278.65 -52.0 -272.9 -48.65 -260.65 -39.15 -260.5 -38.9 -257.9 -37.0 -257.75 -36.75 -256.4 -35.75 -254.0 -30.4 -253.9 -29.4 -250.0 -20.9 -249.9 -20.0 -242.9 -3.9 -242.75 -3.15 -242.65 -2.9 -242.5 -2.65 -242.25 -2.5 -242.25 -2.25 -242.15 -1.75 -242.0 -1.4 -241.65 -0.9 -284.25 -0.9 -286.5 -57.0" fill="#a90000" fill-opacity="0.9098039" fill-rule="evenodd" stroke="none"/>
    <path d="M-242.25 -2.25 L-241.65 -0.9 -242.0 -1.4 -242.15 -1.75 -242.25 -2.25" fill="#aa0000" fill-rule="evenodd" stroke="none"/>
    <path d="M-162.0 -54.0 L-161.25 -53.9 -161.5 -53.25 -162.4 -53.15 -162.0 -54.0" fill="#e20000" fill-rule="evenodd" stroke="none"/>
    <path d="M-175.75 -0.9 L-178.75 -0.9 -178.65 -4.5 -178.75 -4.5 -178.65 -4.9 -178.5 -5.25 -177.4 -8.65 -177.25 -9.0 -162.4 -53.15 -161.5 -53.25 -175.4 -10.15 -175.75 -0.9" fill="#df0000" fill-rule="evenodd" stroke="none"/>
    <path d="M-141.75 -60.75 L-163.5 -0.9 -175.75 -0.9 -175.4 -10.15 -161.5 -53.25 -144.15 -57.75 -141.75 -60.75" fill="#e50000" fill-rule="evenodd" stroke="none"/>
    <path d="M-178.75 -0.9 L-179.75 -0.9 -178.9 -4.15 -178.75 -4.5 -178.65 -4.5 -178.75 -0.9" fill="#ac0000" fill-rule="evenodd" stroke="none"/>
  </g>
  <defs>
    <radialGradient cx="0" cy="0" gradientTransform="matrix(0.2531, 0.0, 0.0, 0.2531, -305.8, -287.35)" gradientUnits="userSpaceOnUse" id="gradient0" r="819.2" spreadMethod="pad">
      <stop offset="0.0" stop-color="#5a5a5a"/>
      <stop offset="1.0" stop-color="#161616"/>
    </radialGradient>
    <radialGradient cx="0" cy="0" gradientTransform="matrix(0.0256, 0.0, 0.0, 0.0256, -281.8, -211.05)" gradientUnits="userSpaceOnUse" id="gradient1" r="819.2" spreadMethod="pad">
      <stop offset="0.0" stop-color="#2a2a2a"/>
      <stop offset="1.0" stop-color="#272727"/>
    </radialGradient>
    <radialGradient cx="0" cy="0" gradientTransform="matrix(0.0261, 0.0, 0.0, 0.0261, -133.95, -206.3)" gradientUnits="userSpaceOnUse" id="gradient2" r="819.2" spreadMethod="pad">
      <stop offset="0.0" stop-color="#292929"/>
      <stop offset="1.0" stop-color="#282828"/>
    </radialGradient>
    <radialGradient cx="0" cy="0" gradientTransform="matrix(0.1134, 0.0, 0.0, 0.1134, -252.65, -201.1)" gradientUnits="userSpaceOnUse" id="gradient3" r="819.2" spreadMethod="pad">
      <stop offset="0.0" stop-color="#101010"/>
      <stop offset="1.0" stop-color="#000000"/>
    </radialGradient>
    <radialGradient cx="0" cy="0" gradientTransform="matrix(0.0489, 0.0, 0.0, 0.0489, -215.15, -187.05)" gradientUnits="userSpaceOnUse" id="gradient4" r="819.2" spreadMethod="pad">
      <stop offset="0.0" stop-color="#818181"/>
      <stop offset="1.0" stop-color="#323232"/>
    </radialGradient>
    <radialGradient cx="0" cy="0" gradientTransform="matrix(0.0198, 0.0, 0.0, 0.0198, -253.75, -176.15)" gradientUnits="userSpaceOnUse" id="gradient5" r="819.2" spreadMethod="pad">
      <stop offset="0.0" stop-color="#4a4a4a"/>
      <stop offset="1.0" stop-color="#090909"/>
    </radialGradient>
    <radialGradient cx="0" cy="0" gradientTransform="matrix(0.0404, 0.0, 0.0, 0.0404, -266.4, -177.35)" gradientUnits="userSpaceOnUse" id="gradient6" r="819.2" spreadMethod="pad">
      <stop offset="0.0" stop-color="#0a0a0a"/>
      <stop offset="1.0" stop-color="#000000"/>
    </radialGradient>
    <radialGradient cx="0" cy="0" gradientTransform="matrix(0.0637, 0.0, 0.0, 0.0637, -316.95, -157.7)" gradientUnits="userSpaceOnUse" id="gradient7" r="819.2" spreadMethod="pad">
      <stop offset="0.0" stop-color="#585858"/>
      <stop offset="1.0" stop-color="#323232"/>
    </radialGradient>
    <radialGradient cx="0" cy="0" gradientTransform="matrix(0.0637, 0.0, 0.0, 0.0637, -316.95, -157.7)" gradientUnits="userSpaceOnUse" id="gradient8" r="819.2" spreadMethod="pad">
      <stop offset="0.0" stop-color="#585858"/>
      <stop offset="1.0" stop-color="#000000"/>
    </radialGradient>
    <radialGradient cx="0" cy="0" gradientTransform="matrix(0.0977, 0.0, 0.0, 0.0977, -277.65, -137.65)" gradientUnits="userSpaceOnUse" id="gradient9" r="819.2" spreadMethod="pad">
      <stop offset="0.0" stop-color="#414141"/>
      <stop offset="1.0" stop-color="#393939"/>
    </radialGradient>
    <radialGradient cx="0" cy="0" gradientTransform="matrix(0.0595, 0.0, 0.0, 0.0595, -309.45, -156.3)" gradientUnits="userSpaceOnUse" id="gradient10" r="819.2" spreadMethod="pad">
      <stop offset="0.0" stop-color="#4c4c4c"/>
      <stop offset="1.0" stop-color="#1d1d1d"/>
    </radialGradient>
    <radialGradient cx="0" cy="0" gradientTransform="matrix(0.0916, 0.0, 0.0, 0.0916, -335.65, -150.2)" gradientUnits="userSpaceOnUse" id="gradient11" r="819.2" spreadMethod="pad">
      <stop offset="0.0" stop-color="#686868"/>
      <stop offset="1.0" stop-color="#000000"/>
    </radialGradient>
    <radialGradient cx="0" cy="0" gradientTransform="matrix(0.0751, 0.0, 0.0, 0.0751, -335.65, -150.2)" gradientUnits="userSpaceOnUse" id="gradient12" r="819.2" spreadMethod="pad">
      <stop offset="0.0" stop-color="#686868"/>
      <stop offset="1.0" stop-color="#484848"/>
    </radialGradient>
    <radialGradient cx="0" cy="0" gradientTransform="matrix(0.1615, 0.0, 0.0, 0.1615, -219.25, -174.85)" gradientUnits="userSpaceOnUse" id="gradient13" r="819.2" spreadMethod="pad">
      <stop offset="0.0" stop-color="#5c5c5c"/>
      <stop offset="1.0" stop-color="#141414"/>
    </radialGradient>
    <radialGradient cx="0" cy="0" gradientTransform="matrix(0.0691, 0.0, 0.0, 0.0691, -280.7, -57.65)" gradientUnits="userSpaceOnUse" id="gradient14" r="819.2" spreadMethod="pad">
      <stop offset="0.0" stop-color="#3e3e3e"/>
      <stop offset="1.0" stop-color="#282828"/>
    </radialGradient>
    <radialGradient cx="0" cy="0" gradientTransform="matrix(0.1463, 0.0, 0.0, 0.1463, -160.3, -59.65)" gradientUnits="userSpaceOnUse" id="gradient15" r="819.2" spreadMethod="pad">
      <stop offset="0.0" stop-color="#626262"/>
      <stop offset="1.0" stop-color="#141414"/>
    </radialGradient>
    <radialGradient cx="0" cy="0" gradientTransform="matrix(0.0312, 0.0, 0.0, 0.0312, -163.3, -167.05)" gradientUnits="userSpaceOnUse" id="gradient16" r="819.2" spreadMethod="pad">
      <stop offset="0.0" stop-color="#3f3f3f"/>
      <stop offset="1.0" stop-color="#282828"/>
    </radialGradient>
    <radialGradient cx="0" cy="0" gradientTransform="matrix(0.0555, 0.0, 0.0, 0.0555, -142.3, -161.2)" gradientUnits="userSpaceOnUse" id="gradient17" r="819.2" spreadMethod="pad">
      <stop offset="0.0" stop-color="#444444"/>
      <stop offset="1.0" stop-color="#222222"/>
    </radialGradient>
    <radialGradient cx="0" cy="0" gradientTransform="matrix(0.0739, 0.0, 0.0, 0.0739, -163.3, -167.05)" gradientUnits="userSpaceOnUse" id="gradient18" r="819.2" spreadMethod="pad">
      <stop offset="0.0" stop-color="#3f3f3f"/>
      <stop offset="1.0" stop-color="#000000"/>
    </radialGradient>
    <radialGradient cx="0" cy="0" gradientTransform="matrix(0.2181, 0.0, 0.0, 0.2181, -255.1, -1.0)" gradientUnits="userSpaceOnUse" id="gradient19" r="819.2" spreadMethod="pad">
      <stop offset="0.0" stop-color="#3d3d3d"/>
      <stop offset="1.0" stop-color="#000000"/>
    </radialGradient>
    <radialGradient cx="0" cy="0" gradientTransform="matrix(0.1281, 0.0, 0.0, 0.1281, -280.7, -57.65)" gradientUnits="userSpaceOnUse" id="gradient20" r="819.2" spreadMethod="pad">
      <stop offset="0.0" stop-color="#3e3e3e"/>
      <stop offset="1.0" stop-color="#000000"/>
    </radialGradient>
    <radialGradient cx="0" cy="0" gradientTransform="matrix(0.0148, 0.0, 0.0, 0.0148, -170.7, -170.75)" gradientUnits="userSpaceOnUse" id="gradient21" r="819.2" spreadMethod="pad">
      <stop offset="0.0" stop-color="#5b5b5b"/>
      <stop offset="1.0" stop-color="#090909"/>
    </radialGradient>
    <radialGradient cx="0" cy="0" gradientTransform="matrix(0.0816, 0.0, 0.0, 0.0816, -160.3, -59.65)" gradientUnits="userSpaceOnUse" id="gradient22" r="819.2" spreadMethod="pad">
      <stop offset="0.0" stop-color="#626262"/>
      <stop offset="1.0" stop-color="#000000"/>
    </radialGradient>
    <radialGradient cx="0" cy="0" gradientTransform="matrix(0.0429, 0.0, 0.0, 0.0429, -143.7, -83.1)" gradientUnits="userSpaceOnUse" id="gradient23" r="819.2" spreadMethod="pad">
      <stop offset="0.0" stop-color="#1e1e1e"/>
      <stop offset="1.0" stop-color="#000000"/>
    </radialGradient>
    <radialGradient cx="0" cy="0" gradientTransform="matrix(0.0231, 0.0, 0.0, 0.0231, -152.6, -102.5)" gradientUnits="userSpaceOnUse" id="gradient24" r="819.2" spreadMethod="pad">
      <stop offset="0.0" stop-color="#2f2f2f"/>
      <stop offset="1.0" stop-color="#000000"/>
    </radialGradient>
    <radialGradient cx="0" cy="0" gradientTransform="matrix(0.1321, 0.0, 0.0, 0.1321, -152.6, -102.5)" gradientUnits="userSpaceOnUse" id="gradient25" r="819.2" spreadMethod="pad">
      <stop offset="0.0" stop-color="#2f2f2f"/>
      <stop offset="1.0" stop-color="#000000"/>
    </radialGradient>
    <radialGradient cx="0" cy="0" gradientTransform="matrix(0.1229, 0.0, 0.0, 0.1229, -116.8, -144.35)" gradientUnits="userSpaceOnUse" id="gradient26" r="819.2" spreadMethod="pad">
      <stop offset="0.0" stop-color="#575757"/>
      <stop offset="1.0" stop-color="#191919"/>
    </radialGradient>
    <radialGradient cx="0" cy="0" gradientTransform="matrix(0.0415, 0.0, 0.0, 0.0415, -83.55, -68.6)" gradientUnits="userSpaceOnUse" id="gradient27" r="819.2" spreadMethod="pad">
      <stop offset="0.0" stop-color="#000000"/>
      <stop offset="1.0" stop-color="#000000"/>
    </radialGradient>
    <radialGradient cx="0" cy="0" gradientTransform="matrix(0.0973, 0.0, 0.0, 0.0973, -93.45, -5.65)" gradientUnits="userSpaceOnUse" id="gradient28" r="819.2" spreadMethod="pad">
      <stop offset="0.0" stop-color="#292929"/>
      <stop offset="1.0" stop-color="#000000"/>
    </radialGradient>
    <radialGradient cx="0" cy="0" gradientTransform="matrix(0.0732, 0.0, 0.0, 0.0732, -40.8, -79.35)" gradientUnits="userSpaceOnUse" id="gradient29" r="819.2" spreadMethod="pad">
      <stop offset="0.0" stop-color="#262626"/>
      <stop offset="1.0" stop-color="#000000"/>
    </radialGradient>
    <radialGradient cx="0" cy="0" gradientTransform="matrix(0.0128, 0.0, 0.0, 0.0128, -392.5, -126.6)" gradientUnits="userSpaceOnUse" id="gradient30" r="819.2" spreadMethod="pad">
      <stop offset="0.0" stop-color="#484848"/>
      <stop offset="1.0" stop-color="#171717"/>
    </radialGradient>
    <radialGradient cx="0" cy="0" gradientTransform="matrix(0.0034, 0.0, 0.0, 0.0034, -400.0, -133.9)" gradientUnits="userSpaceOnUse" id="gradient31" r="819.2" spreadMethod="pad">
      <stop offset="0.0" stop-color="#131313"/>
      <stop offset="1.0" stop-color="#020202"/>
    </radialGradient>
    <radialGradient cx="0" cy="0" gradientTransform="matrix(0.0313, 0.0, 0.0, 0.0313, -392.5, -126.6)" gradientUnits="userSpaceOnUse" id="gradient32" r="819.2" spreadMethod="pad">
      <stop offset="0.0" stop-color="#484848"/>
      <stop offset="1.0" stop-color="#0c0c0c"/>
    </radialGradient>
    <radialGradient cx="0" cy="0" gradientTransform="matrix(0.0475, 0.0, 0.0, 0.0475, -400.0, -90.95)" gradientUnits="userSpaceOnUse" id="gradient33" r="819.2" spreadMethod="pad">
      <stop offset="0.0" stop-color="#000000"/>
      <stop offset="1.0" stop-color="#000000"/>
    </radialGradient>
    <radialGradient cx="0" cy="0" gradientTransform="matrix(0.0356, 0.0, 0.0, 0.0356, -284.8, -114.2)" gradientUnits="userSpaceOnUse" id="gradient34" r="819.2" spreadMethod="pad">
      <stop offset="0.0" stop-color="#171717"/>
      <stop offset="1.0" stop-color="#000000"/>
    </radialGradient>
    <radialGradient cx="0" cy="0" gradientTransform="matrix(0.0264, 0.0, 0.0, 0.0264, -76.5, -50.3)" gradientUnits="userSpaceOnUse" id="gradient35" r="819.2" spreadMethod="pad">
      <stop offset="0.0" stop-color="#010101"/>
      <stop offset="1.0" stop-color="#000000"/>
    </radialGradient>
    <radialGradient cx="0" cy="0" gradientTransform="matrix(0.0344, 0.0, 0.0, 0.0344, -93.45, -5.65)" gradientUnits="userSpaceOnUse" id="gradient36" r="819.2" spreadMethod="pad">
      <stop offset="0.0" stop-color="#292929"/>
      <stop offset="1.0" stop-color="#000000"/>
    </radialGradient>
    <radialGradient cx="0" cy="0" gradientTransform="matrix(0.0256, 0.0, 0.0, 0.0256, -99.35, -1.0)" gradientUnits="userSpaceOnUse" id="gradient37" r="819.2" spreadMethod="pad">
      <stop offset="0.0" stop-color="#2b2b2b"/>
      <stop offset="1.0" stop-color="#171717"/>
    </radialGradient>
    <radialGradient cx="0" cy="0" gradientTransform="matrix(0.0404, 0.0, 0.0, 0.0404, -54.15, -4.95)" gradientUnits="userSpaceOnUse" id="gradient38" r="819.2" spreadMethod="pad">
      <stop offset="0.0" stop-color="#000000"/>
      <stop offset="1.0" stop-color="#000000"/>
    </radialGradient>
  </defs>
</svg>
