<?xml version="1.0" encoding="UTF-8" standalone="no"?>
<svg xmlns:xlink="http://www.w3.org/1999/xlink" height="299.1px" width="395.25px" xmlns="http://www.w3.org/2000/svg">
  <g transform="matrix(1.0, 0.0, 0.0, 1.0, 400.0, 300.0)">
    <path d="M-259.0 -201.75 L-258.5 -200.5 -258.75 -200.25 -270.4 -217.0 -278.75 -236.9 -282.25 -247.4 Q-289.0 -274.15 -284.75 -300.0 L-36.9 -300.0 -36.75 -299.4 -35.4 -274.15 -40.65 -245.65 -57.25 -210.15 -74.0 -192.15 -88.75 -177.4 -89.0 -177.65 -83.9 -191.15 -92.9 -184.75 -104.65 -176.5 -103.25 -186.9 -120.65 -186.15 -126.5 -185.9 -152.0 -189.0 -175.15 -178.25 -178.5 -195.65 -179.15 -195.9 -200.0 -187.5 -206.4 -185.65 -218.75 -182.25 -236.25 -187.15 -249.65 -192.25 -259.4 -203.5 -260.4 -205.0 -260.65 -204.75 -259.0 -201.75" fill="url(#gradient0)" fill-rule="evenodd" stroke="none"/>
    <path d="M-259.4 -203.5 L-259.0 -201.75 -260.65 -204.75 -260.4 -205.0 -259.4 -203.5" fill="url(#gradient1)" fill-rule="evenodd" stroke="none"/>
    <path d="M-89.0 -177.65 L-92.9 -184.75 -83.9 -191.15 -89.0 -177.65" fill="url(#gradient2)" fill-rule="evenodd" stroke="none"/>
    <path d="M-120.65 -186.15 L-129.25 -181.9 -142.75 -178.4 -146.5 -177.5 -160.75 -177.5 -175.65 -178.15 -184.9 -179.25 -189.5 -179.5 -204.65 -184.65 -206.4 -185.65 -200.0 -187.5 -179.15 -195.9 -178.5 -195.65 -175.15 -178.25 -152.0 -189.0 -126.5 -185.9 -120.65 -186.15" fill="url(#gradient3)" fill-rule="evenodd" stroke="none"/>
    <path d="M-190.65 -172.15 L-189.5 -179.5 -184.9 -179.25 -185.0 -175.9 -188.15 -176.15 -186.25 -169.9 -186.4 -168.4 Q-189.5 -166.65 -190.0 -168.0 L-190.65 -172.15" fill="url(#gradient4)" fill-rule="evenodd" stroke="none"/>
    <path d="M-142.75 -178.4 Q-143.75 -176.15 -139.9 -167.15 L-119.15 -156.5 -118.9 -156.4 -118.5 -156.15 -118.4 -156.15 -118.25 -156.05 -118.15 -156.0 -117.9 -155.9 -117.65 -155.75 -113.9 -153.65 -127.4 -151.65 -143.5 -151.9 -141.75 -152.75 -154.0 -153.15 -159.15 -152.9 -159.9 -152.9 -159.65 -152.65 -157.5 -151.9 -169.9 -151.9 -189.0 -153.65 -205.9 -156.75 -192.5 -167.75 -192.0 -168.0 -190.65 -172.15 -190.0 -168.0 Q-189.5 -166.65 -186.4 -168.4 L-186.25 -169.9 -188.15 -176.15 -185.0 -175.9 -184.9 -179.25 -175.65 -178.15 -160.75 -177.5 -146.5 -177.5 -142.75 -178.4" fill="url(#gradient5)" fill-rule="evenodd" stroke="none"/>
    <path d="M-208.9 -160.4 L-208.65 -160.5 -208.5 -160.65 -208.25 -160.75 -208.0 -160.9 -207.15 -161.25 -207.0 -161.4 -204.75 -162.25 -204.75 -162.4 -204.5 -162.4 -204.5 -162.5 -204.25 -162.5 -192.5 -167.75 -205.9 -156.75 -208.9 -160.4" fill="url(#gradient6)" fill-rule="evenodd" stroke="none"/>
    <path d="M-207.0 -161.4 L-204.75 -162.4 -204.5 -162.5 -204.5 -162.4 -204.75 -162.4 -204.75 -162.25 -207.0 -161.4" fill="url(#gradient7)" fill-rule="evenodd" stroke="none"/>
    <path d="M-118.25 -156.05 L-110.0 -153.25 Q-102.0 -149.1 -94.0 -145.0 L-88.15 -137.25 -101.75 -148.25 -102.75 -149.0 -117.65 -155.75 -117.9 -155.9 -118.15 -156.0 -118.25 -156.05" fill="url(#gradient8)" fill-rule="evenodd" stroke="none"/>
    <path d="M-94.0 -145.0 L-74.25 -130.9 -54.5 -114.65 -36.25 -96.9 -19.25 -78.15 -18.25 -68.0 -18.4 -68.0 -52.5 -100.5 -74.65 -119.15 -87.5 -136.25 -88.15 -137.25 -94.0 -145.0" fill="url(#gradient9)" fill-rule="evenodd" stroke="none"/>
    <path d="M-87.5 -136.25 L-87.4 -124.0 -94.15 -103.4 -95.25 -102.4 -106.15 -93.15 -102.75 -123.75 -101.75 -148.25 -88.15 -137.25 -87.5 -136.25" fill="url(#gradient10)" fill-rule="evenodd" stroke="none"/>
    <path d="M-111.15 -140.4 L-113.9 -153.65 -117.65 -155.75 -102.75 -149.0 -101.75 -148.25 -102.75 -123.75 -111.15 -140.4" fill="url(#gradient11)" fill-rule="evenodd" stroke="none"/>
    <path d="M-263.15 -141.9 L-240.15 -157.4 -208.9 -160.4 -205.9 -156.75 -233.75 -153.15 -260.5 -130.75 -260.75 -141.0 -263.15 -141.9" fill="url(#gradient12)" fill-rule="evenodd" stroke="none"/>
    <path d="M-371.15 -95.15 L-302.0 -124.65 -263.15 -141.9 -260.75 -141.0 -260.5 -130.75 -285.25 -119.75 -320.75 -103.15 -362.0 -85.4 -370.4 -93.15 -371.15 -95.15" fill="url(#gradient13)" fill-rule="evenodd" stroke="none"/>
    <path d="M-392.5 -97.0 L-371.15 -95.15 -370.4 -93.15 -362.0 -85.4 -400.0 -90.4 -391.65 -95.4 -392.5 -97.0" fill="url(#gradient14)" fill-rule="evenodd" stroke="none"/>
    <path d="M-400.0 -90.4 L-400.0 -100.75 -392.5 -97.0 -391.65 -95.4 -400.0 -90.4" fill="url(#gradient15)" fill-rule="evenodd" stroke="none"/>
    <path d="M-247.15 -39.5 L-248.25 -48.75 -246.9 -56.4 -246.0 -82.5 -226.9 -85.0 -226.65 -87.25 -228.15 -126.15 -206.0 -156.5 -205.9 -156.75 -189.0 -153.65 -197.5 -108.9 -198.65 -79.65 -198.4 -79.4 -200.9 -21.75 -229.15 -29.4 -241.65 -34.4 -247.15 -39.5" fill="url(#gradient16)" fill-rule="evenodd" stroke="none"/>
    <path d="M-205.9 -156.75 L-206.0 -156.5 -249.15 -129.5 -260.5 -130.75 -233.75 -153.15 -205.9 -156.75" fill="url(#gradient17)" fill-rule="evenodd" stroke="none"/>
    <path d="M-206.0 -156.5 L-228.15 -126.15 -226.65 -87.25 -226.9 -85.0 -252.9 -95.0 -249.15 -129.5 -206.0 -156.5" fill="url(#gradient18)" fill-rule="evenodd" stroke="none"/>
    <path d="M-256.5 -81.15 L-281.65 -71.25 -306.65 -55.25 -311.9 -54.9 -320.0 -51.15 -336.4 -48.25 -355.4 -52.4 -362.0 -85.4 -320.75 -103.15 -285.25 -119.75 -260.5 -130.75 -249.15 -129.5 -252.9 -95.0 -256.0 -81.4 -256.5 -81.15" fill="url(#gradient19)" fill-rule="evenodd" stroke="none"/>
    <path d="M-106.75 -88.5 L-107.25 -84.25 -110.15 -29.75 -141.75 -26.5 -147.5 -26.9 -145.15 -78.5 -143.15 -107.9 -144.65 -132.4 -143.5 -151.9 -127.4 -151.65 -113.9 -153.65 -111.15 -140.4 -105.75 -111.65 -106.75 -89.15 -106.75 -88.5 M-189.0 -153.65 L-169.9 -151.9 -157.5 -151.9 -160.0 -140.0 -161.4 -105.65 -163.4 -78.75 -165.75 -25.15 -169.65 -24.15 -200.9 -21.75 -198.4 -79.4 -198.65 -79.65 -197.5 -108.9 -189.0 -153.65" fill="url(#gradient20)" fill-rule="evenodd" stroke="none"/>
    <path d="M-110.15 -29.75 L-115.15 -0.9 -149.25 -0.9 -147.5 -26.9 -141.75 -26.5 -110.15 -29.75 M-167.4 -0.9 L-205.25 -0.9 -200.9 -21.75 -169.65 -24.15 -165.75 -25.15 -167.4 -0.9" fill="url(#gradient21)" fill-rule="evenodd" stroke="none"/>
    <path d="M-149.25 -0.9 L-167.4 -0.9 -165.75 -25.15 -163.4 -78.75 -161.4 -105.65 -160.0 -140.0 -157.5 -151.9 -159.65 -152.65 -159.9 -152.9 -159.15 -152.9 -141.75 -152.75 -143.5 -151.9 -144.65 -132.4 -143.15 -107.9 -145.15 -78.5 -147.5 -26.9 -149.25 -0.9" fill="url(#gradient22)" fill-rule="evenodd" stroke="none"/>
    <path d="M-159.15 -152.9 L-154.0 -153.15 -141.75 -152.75 -159.15 -152.9" fill="url(#gradient23)" fill-rule="evenodd" stroke="none"/>
    <path d="M-65.0 -56.5 L-75.0 -65.4 -75.4 -65.65 -81.9 -71.65 -95.4 -77.9 -96.9 -78.65 -106.75 -88.5 -95.25 -102.4 -94.15 -103.4 -87.4 -124.0 -87.5 -136.25 -74.65 -119.15 -52.5 -100.5 -18.4 -68.0 -40.65 -71.15 -40.5 -63.25 -57.5 -55.25 -65.0 -56.5" fill="url(#gradient24)" fill-rule="evenodd" stroke="none"/>
    <path d="M-95.25 -102.4 L-106.75 -88.5 -106.75 -89.15 -106.15 -93.15 -95.25 -102.4" fill="url(#gradient25)" fill-rule="evenodd" stroke="none"/>
    <path d="M-106.75 -89.15 L-105.75 -111.65 -111.15 -140.4 -102.75 -123.75 -106.15 -93.15 -106.75 -89.15" fill="url(#gradient26)" fill-rule="evenodd" stroke="none"/>
    <path d="M-336.4 -48.25 L-389.15 -39.0 -399.9 -44.25 -400.0 -90.4 -362.0 -85.4 -355.4 -52.4 -336.4 -48.25" fill="url(#gradient27)" fill-rule="evenodd" stroke="none"/>
    <path d="M-248.25 -48.75 Q-258.4 -66.9 -256.5 -81.15 L-256.0 -81.4 -246.0 -82.5 -246.9 -56.4 -248.25 -48.75" fill="url(#gradient28)" fill-rule="evenodd" stroke="none"/>
    <path d="M-226.9 -85.0 L-246.0 -82.5 -256.0 -81.4 -252.9 -95.0 -226.9 -85.0" fill="url(#gradient29)" fill-rule="evenodd" stroke="none"/>
    <path d="M-19.25 -78.15 L-4.9 -54.0 -4.9 -50.65 -18.25 -68.0 -19.25 -78.15" fill="url(#gradient30)" fill-rule="evenodd" stroke="none"/>
    <path d="M-4.9 -50.65 L-4.75 -43.4 -11.25 -28.75 -28.5 -11.9 -30.0 -10.15 -30.25 -9.75 -30.65 -9.4 -30.9 -9.0 -31.4 -8.5 -31.5 -8.25 -37.75 -0.9 -46.25 -0.9 -56.65 -7.75 -56.5 -8.75 -54.65 -50.15 -54.9 -50.4 -54.9 -50.5 -57.5 -55.25 -40.5 -63.25 -18.4 -68.0 -18.25 -68.0 -4.9 -50.65" fill="url(#gradient31)" fill-rule="evenodd" stroke="none"/>
    <path d="M-75.4 -65.65 L-80.9 -69.65 -95.4 -77.9 -81.9 -71.65 -75.4 -65.65" fill="url(#gradient32)" fill-rule="evenodd" stroke="none"/>
    <path d="M-18.4 -68.0 L-40.5 -63.25 -40.65 -71.15 -18.4 -68.0" fill="url(#gradient33)" fill-rule="evenodd" stroke="none"/>
    <path d="M-54.9 -50.5 L-65.0 -56.5 -57.5 -55.25 -54.9 -50.5" fill="url(#gradient34)" fill-rule="evenodd" stroke="none"/>
    <path d="M-57.15 -43.15 L-54.9 -50.4 -54.65 -50.15 -57.15 -43.15" fill="url(#gradient35)" fill-rule="evenodd" stroke="none"/>
    <path d="M-60.4 -33.15 L-58.25 -39.9 -58.15 -40.0 -57.15 -43.0 -57.15 -43.15 -54.65 -50.15 -56.5 -8.75 -60.4 -33.15" fill="url(#gradient36)" fill-rule="evenodd" stroke="none"/>
    <path d="M-68.0 -22.15 L-60.4 -33.15 -56.5 -8.75 -56.65 -7.75 -68.0 -22.15" fill="url(#gradient37)" fill-rule="evenodd" stroke="none"/>
    <path d="M-46.25 -0.9 L-91.65 -0.9 -68.0 -22.15 -56.65 -7.75 -46.25 -0.9" fill="url(#gradient38)" fill-rule="evenodd" stroke="none"/>
    <path d="M-205.25 -0.9 L-237.0 -0.9 -247.15 -39.5 -241.65 -34.4 -229.15 -29.4 -200.9 -21.75 -205.25 -0.9" fill="url(#gradient39)" fill-rule="evenodd" stroke="none"/>
    <path d="M-190.75 -172.0 L-190.5 -171.9 -190.4 -171.9 -184.4 -171.4 -184.15 -171.25 -167.65 -169.9 -191.0 -171.25 -190.75 -172.0 M-166.9 -170.15 L-160.4 -173.4 -155.25 -173.4 -154.9 -173.25 -142.0 -173.0 -141.5 -171.9 -141.5 -171.65 -141.0 -170.25 -146.5 -169.5 -160.4 -169.75 -161.0 -169.9 -166.9 -170.15 -167.15 -169.9 -167.65 -169.9 -166.9 -170.15 M-115.15 -0.9 L-137.4 -0.9 -137.15 -1.25 -136.9 -2.15 -134.4 -5.9 -120.65 -12.75 -120.4 -13.15 -112.4 -17.0 -115.15 -0.9" fill="#9b0000" fill-opacity="0.9098039" fill-rule="evenodd" stroke="none"/>
    <path d="M-190.75 -172.0 L-191.0 -171.25 -202.15 -172.5 -200.75 -172.9 -190.75 -172.0 M-202.5 -172.5 L-209.25 -171.0 -221.75 -159.65 -221.9 -159.15 -229.9 -158.4 -229.65 -160.15 -220.65 -170.75 -219.65 -171.25 -208.15 -173.15 -202.5 -172.5 M-141.15 -171.65 L-133.25 -170.15 -139.75 -169.4 -141.15 -171.65 M-207.65 -22.15 L-201.25 -19.5 -199.65 -19.0 -199.4 -18.75 -183.65 -12.25 -174.65 -7.0 -174.5 -6.75 -168.25 -3.25 -167.5 -1.9 -167.4 -0.9 -212.5 -0.9 -209.75 -12.75 -209.9 -13.0 -209.65 -13.4 -207.65 -22.15" fill="#ab0000" fill-opacity="0.9098039" fill-rule="evenodd" stroke="none"/>
    <path d="M-202.15 -172.5 L-202.5 -172.5 -208.15 -173.15 -200.75 -172.9 -202.15 -172.5 M-141.0 -170.25 L-141.5 -171.65 -141.5 -171.9 -141.25 -171.9 -141.15 -171.65 -139.75 -169.4 -140.65 -169.4 -141.0 -170.25" fill="#ab0000" fill-rule="evenodd" stroke="none"/>
    <path d="M-166.9 -170.15 L-161.0 -169.9 -160.4 -169.75 -167.15 -169.9 -166.9 -170.15 M-146.5 -169.5 L-141.0 -170.25 -140.65 -169.4 -146.5 -169.5" fill="#a90000" fill-rule="evenodd" stroke="none"/>
    <path d="M-262.5 -78.75 L-256.5 -81.15 -256.65 -78.75 -256.9 -77.4 -256.65 -76.65 -256.0 -68.15 -255.4 -66.75 -255.15 -65.25 -252.9 -57.25 -252.75 -57.0 -249.15 -49.9 -248.9 -49.5 -248.25 -48.75 -247.65 -42.0 -253.5 -47.65 -261.9 -70.65 -262.5 -78.75" fill="#c20000" fill-opacity="0.9098039" fill-rule="evenodd" stroke="none"/>
    <path d="M-247.65 -42.0 L-247.25 -41.4 -247.4 -41.0 -254.5 -39.5 -254.65 -39.65 -265.0 -69.9 -264.75 -77.9 -262.5 -78.75 -261.9 -70.65 -253.5 -47.65 -247.65 -42.0" fill="#f00000" fill-rule="evenodd" stroke="none"/>
    <path d="M-262.75 -42.25 L-262.9 -42.65 -265.0 -69.9 -254.65 -39.65 -254.5 -39.5 -252.75 -35.15 -257.4 -36.9 -262.75 -42.25" fill="#f20000" fill-rule="evenodd" stroke="none"/>
    <path d="M-238.75 -0.9 L-249.9 -0.9 -262.75 -42.25 -257.4 -36.9 -252.75 -35.15 -252.65 -34.9 -238.75 -0.9" fill="#fb0000" fill-rule="evenodd" stroke="none"/>
    <path d="M-237.0 -0.9 L-238.75 -0.9 -252.65 -34.9 -245.25 -32.15 -245.15 -32.0 -245.15 -31.75 -245.0 -31.4 -244.9 -30.9 -244.65 -30.15 -244.65 -30.0 -237.0 -0.9" fill="#f80000" fill-rule="evenodd" stroke="none"/>
    <path d="M-252.75 -35.15 L-254.5 -39.5 -247.4 -41.0 -247.15 -39.5 -245.65 -33.5 -245.5 -33.15 -245.25 -32.15 -252.65 -34.9 -252.75 -35.15" fill="#ef0000" fill-rule="evenodd" stroke="none"/>
    <path d="M-247.25 -41.4 L-246.9 -41.4 -242.25 -36.9 -241.9 -36.25 -238.9 -33.5 -208.4 -22.4 -241.0 -30.5 -245.15 -32.0 -245.25 -32.15 -245.5 -33.15 -245.65 -33.5 -247.15 -39.5 -247.4 -41.0 -247.25 -41.4" fill="#de0000" fill-opacity="0.9098039" fill-rule="evenodd" stroke="none"/>
    <path d="M-208.4 -22.4 L-207.65 -22.15 -209.65 -13.4 -209.9 -13.0 -209.75 -12.75 -212.5 -0.9 -237.0 -0.9 -244.65 -30.0 -244.65 -30.15 -244.9 -30.9 -245.0 -31.4 -245.15 -31.75 -245.15 -32.0 -241.0 -30.5 -208.4 -22.4" fill="#e80000" fill-opacity="0.9098039" fill-rule="evenodd" stroke="none"/>
    <path d="M-108.9 -51.5 L-108.65 -56.75 -108.75 -57.0 -107.5 -75.4 -97.25 -57.5 -94.0 -44.15 -93.65 -33.15 Q-96.25 -42.65 -100.4 -47.4 L-108.9 -51.5" fill="#f00000" fill-opacity="0.9098039" fill-rule="evenodd" stroke="none"/>
    <path d="M-93.65 -33.15 L-93.5 -31.9 -112.25 -17.4 -110.15 -29.0 -110.25 -29.25 -110.15 -29.75 -108.9 -51.5 -100.4 -47.4 Q-96.25 -42.65 -93.65 -33.15" fill="#ec0000" fill-opacity="0.9098039" fill-rule="evenodd" stroke="none"/>
    <path d="M-93.5 -31.9 L-99.5 -0.9 -115.15 -0.9 -112.4 -17.0 -112.25 -17.4 -93.5 -31.9" fill="#b00000" fill-rule="evenodd" stroke="none"/>
  </g>
  <defs>
    <radialGradient cx="0" cy="0" gradientTransform="matrix(0.2003, 0.0, 0.0, 0.2003, -126.55, -296.2)" gradientUnits="userSpaceOnUse" id="gradient0" r="819.2" spreadMethod="pad">
      <stop offset="0.0" stop-color="#626262"/>
      <stop offset="1.0" stop-color="#292929"/>
    </radialGradient>
    <radialGradient cx="0" cy="0" gradientTransform="matrix(0.0544, 0.0, 0.0, 0.0544, -279.45, -238.9)" gradientUnits="userSpaceOnUse" id="gradient1" r="819.2" spreadMethod="pad">
      <stop offset="0.0" stop-color="#2a2a2a"/>
      <stop offset="1.0" stop-color="#222222"/>
    </radialGradient>
    <radialGradient cx="0" cy="0" gradientTransform="matrix(0.0274, 0.0, 0.0, 0.0274, -77.65, -196.9)" gradientUnits="userSpaceOnUse" id="gradient2" r="819.2" spreadMethod="pad">
      <stop offset="0.0" stop-color="#101010"/>
      <stop offset="1.0" stop-color="#080808"/>
    </radialGradient>
    <radialGradient cx="0" cy="0" gradientTransform="matrix(0.1343, 0.0, 0.0, 0.1343, -221.7, -194.75)" gradientUnits="userSpaceOnUse" id="gradient3" r="819.2" spreadMethod="pad">
      <stop offset="0.0" stop-color="#3c3c3c"/>
      <stop offset="1.0" stop-color="#000000"/>
    </radialGradient>
    <radialGradient cx="0" cy="0" gradientTransform="matrix(0.2204, 0.0, 0.0, 0.2204, -184.15, -181.2)" gradientUnits="userSpaceOnUse" id="gradient4" r="819.2" spreadMethod="pad">
      <stop offset="0.0" stop-color="#101010"/>
      <stop offset="1.0" stop-color="#000000"/>
    </radialGradient>
    <radialGradient cx="0" cy="0" gradientTransform="matrix(0.2108, 0.0, 0.0, 0.2108, -145.45, -166.75)" gradientUnits="userSpaceOnUse" id="gradient5" r="819.2" spreadMethod="pad">
      <stop offset="0.0" stop-color="#818181"/>
      <stop offset="1.0" stop-color="#1d1d1d"/>
    </radialGradient>
    <radialGradient cx="0" cy="0" gradientTransform="matrix(0.0225, 0.0, 0.0, 0.0225, -192.0, -168.05)" gradientUnits="userSpaceOnUse" id="gradient6" r="819.2" spreadMethod="pad">
      <stop offset="0.0" stop-color="#000000"/>
      <stop offset="1.0" stop-color="#000000"/>
    </radialGradient>
    <radialGradient cx="0" cy="0" gradientTransform="matrix(0.0175, 0.0, 0.0, 0.0175, -205.75, -162.15)" gradientUnits="userSpaceOnUse" id="gradient7" r="819.2" spreadMethod="pad">
      <stop offset="0.0" stop-color="#000000"/>
      <stop offset="1.0" stop-color="#000000"/>
    </radialGradient>
    <radialGradient cx="0" cy="0" gradientTransform="matrix(0.0332, 0.0, 0.0, 0.0332, -94.15, -145.15)" gradientUnits="userSpaceOnUse" id="gradient8" r="819.2" spreadMethod="pad">
      <stop offset="0.0" stop-color="#444444"/>
      <stop offset="1.0" stop-color="#3e3e3e"/>
    </radialGradient>
    <radialGradient cx="0" cy="0" gradientTransform="matrix(0.1018, 0.0, 0.0, 0.1018, -73.7, -130.4)" gradientUnits="userSpaceOnUse" id="gradient9" r="819.2" spreadMethod="pad">
      <stop offset="0.0" stop-color="#575757"/>
      <stop offset="1.0" stop-color="#191919"/>
    </radialGradient>
    <radialGradient cx="0" cy="0" gradientTransform="matrix(0.0727, 0.0, 0.0, 0.0727, -101.8, -148.5)" gradientUnits="userSpaceOnUse" id="gradient10" r="819.2" spreadMethod="pad">
      <stop offset="0.0" stop-color="#3f3f3f"/>
      <stop offset="1.0" stop-color="#000000"/>
    </radialGradient>
    <radialGradient cx="0" cy="0" gradientTransform="matrix(0.0307, 0.0, 0.0, 0.0307, -101.8, -148.5)" gradientUnits="userSpaceOnUse" id="gradient11" r="819.2" spreadMethod="pad">
      <stop offset="0.0" stop-color="#3f3f3f"/>
      <stop offset="1.0" stop-color="#282828"/>
    </radialGradient>
    <radialGradient cx="0" cy="0" gradientTransform="matrix(0.0739, 0.0, 0.0, 0.0739, -260.45, -130.9)" gradientUnits="userSpaceOnUse" id="gradient12" r="819.2" spreadMethod="pad">
      <stop offset="0.0" stop-color="#585858"/>
      <stop offset="1.0" stop-color="#000000"/>
    </radialGradient>
    <radialGradient cx="0" cy="0" gradientTransform="matrix(0.1117, 0.0, 0.0, 0.1117, -283.35, -120.6)" gradientUnits="userSpaceOnUse" id="gradient13" r="819.2" spreadMethod="pad">
      <stop offset="0.0" stop-color="#686868"/>
      <stop offset="1.0" stop-color="#000000"/>
    </radialGradient>
    <radialGradient cx="0" cy="0" gradientTransform="matrix(0.0469, 0.0, 0.0, 0.0469, -361.9, -85.5)" gradientUnits="userSpaceOnUse" id="gradient14" r="819.2" spreadMethod="pad">
      <stop offset="0.0" stop-color="#484848"/>
      <stop offset="1.0" stop-color="#232323"/>
    </radialGradient>
    <radialGradient cx="0" cy="0" gradientTransform="matrix(0.0127, 0.0, 0.0, 0.0127, -400.0, -90.55)" gradientUnits="userSpaceOnUse" id="gradient15" r="819.2" spreadMethod="pad">
      <stop offset="0.0" stop-color="#313131"/>
      <stop offset="1.0" stop-color="#0e0e0e"/>
    </radialGradient>
    <radialGradient cx="0" cy="0" gradientTransform="matrix(0.1064, 0.0, 0.0, 0.1064, -197.35, -108.95)" gradientUnits="userSpaceOnUse" id="gradient16" r="819.2" spreadMethod="pad">
      <stop offset="0.0" stop-color="#414141"/>
      <stop offset="1.0" stop-color="#2c2c2c"/>
    </radialGradient>
    <radialGradient cx="0" cy="0" gradientTransform="matrix(0.0739, 0.0, 0.0, 0.0739, -260.45, -130.9)" gradientUnits="userSpaceOnUse" id="gradient17" r="819.2" spreadMethod="pad">
      <stop offset="0.0" stop-color="#585858"/>
      <stop offset="1.0" stop-color="#323232"/>
    </radialGradient>
    <radialGradient cx="0" cy="0" gradientTransform="matrix(0.0627, 0.0, 0.0, 0.0627, -249.25, -129.55)" gradientUnits="userSpaceOnUse" id="gradient18" r="819.2" spreadMethod="pad">
      <stop offset="0.0" stop-color="#4c4c4c"/>
      <stop offset="1.0" stop-color="#151515"/>
    </radialGradient>
    <radialGradient cx="0" cy="0" gradientTransform="matrix(0.121, 0.0, 0.0, 0.121, -283.35, -120.6)" gradientUnits="userSpaceOnUse" id="gradient19" r="819.2" spreadMethod="pad">
      <stop offset="0.0" stop-color="#686868"/>
      <stop offset="1.0" stop-color="#000000"/>
    </radialGradient>
    <radialGradient cx="0" cy="0" gradientTransform="matrix(0.1776, 0.0, 0.0, 0.1776, -135.15, -151.7)" gradientUnits="userSpaceOnUse" id="gradient20" r="819.2" spreadMethod="pad">
      <stop offset="0.0" stop-color="#5c5c5c"/>
      <stop offset="1.0" stop-color="#141414"/>
    </radialGradient>
    <radialGradient cx="0" cy="0" gradientTransform="matrix(0.111, 0.0, 0.0, 0.111, -200.75, -21.85)" gradientUnits="userSpaceOnUse" id="gradient21" r="819.2" spreadMethod="pad">
      <stop offset="0.0" stop-color="#3e3e3e"/>
      <stop offset="1.0" stop-color="#000000"/>
    </radialGradient>
    <radialGradient cx="0" cy="0" gradientTransform="matrix(0.1919, 0.0, 0.0, 0.1919, -176.0, -1.0)" gradientUnits="userSpaceOnUse" id="gradient22" r="819.2" spreadMethod="pad">
      <stop offset="0.0" stop-color="#3b3b3b"/>
      <stop offset="1.0" stop-color="#000000"/>
    </radialGradient>
    <radialGradient cx="0" cy="0" gradientTransform="matrix(0.0252, 0.0, 0.0, 0.0252, -150.75, -152.75)" gradientUnits="userSpaceOnUse" id="gradient23" r="819.2" spreadMethod="pad">
      <stop offset="0.0" stop-color="#000000"/>
      <stop offset="1.0" stop-color="#000000"/>
    </radialGradient>
    <radialGradient cx="0" cy="0" gradientTransform="matrix(0.1105, 0.0, 0.0, 0.1105, -106.45, -88.55)" gradientUnits="userSpaceOnUse" id="gradient24" r="819.2" spreadMethod="pad">
      <stop offset="0.0" stop-color="#2f2f2f"/>
      <stop offset="1.0" stop-color="#000000"/>
    </radialGradient>
    <radialGradient cx="0" cy="0" gradientTransform="matrix(0.0236, 0.0, 0.0, 0.0236, -106.45, -88.55)" gradientUnits="userSpaceOnUse" id="gradient25" r="819.2" spreadMethod="pad">
      <stop offset="0.0" stop-color="#2f2f2f"/>
      <stop offset="1.0" stop-color="#000000"/>
    </radialGradient>
    <radialGradient cx="0" cy="0" gradientTransform="matrix(0.0894, 0.0, 0.0, 0.0894, -118.85, -156.45)" gradientUnits="userSpaceOnUse" id="gradient26" r="819.2" spreadMethod="pad">
      <stop offset="0.0" stop-color="#3c3c3c"/>
      <stop offset="1.0" stop-color="#000000"/>
    </radialGradient>
    <radialGradient cx="0" cy="0" gradientTransform="matrix(0.0683, 0.0, 0.0, 0.0683, -361.9, -85.5)" gradientUnits="userSpaceOnUse" id="gradient27" r="819.2" spreadMethod="pad">
      <stop offset="0.0" stop-color="#484848"/>
      <stop offset="1.0" stop-color="#030303"/>
    </radialGradient>
    <radialGradient cx="0" cy="0" gradientTransform="matrix(0.0441, 0.0, 0.0, 0.0441, -246.6, -79.45)" gradientUnits="userSpaceOnUse" id="gradient28" r="819.2" spreadMethod="pad">
      <stop offset="0.0" stop-color="#848484"/>
      <stop offset="1.0" stop-color="#070707"/>
    </radialGradient>
    <radialGradient cx="0" cy="0" gradientTransform="matrix(0.0361, 0.0, 0.0, 0.0361, -226.7, -85.1)" gradientUnits="userSpaceOnUse" id="gradient29" r="819.2" spreadMethod="pad">
      <stop offset="0.0" stop-color="#171717"/>
      <stop offset="1.0" stop-color="#000000"/>
    </radialGradient>
    <radialGradient cx="0" cy="0" gradientTransform="matrix(0.0381, 0.0, 0.0, 0.0381, -19.35, -78.35)" gradientUnits="userSpaceOnUse" id="gradient30" r="819.2" spreadMethod="pad">
      <stop offset="0.0" stop-color="#262626"/>
      <stop offset="1.0" stop-color="#000000"/>
    </radialGradient>
    <radialGradient cx="0" cy="0" gradientTransform="matrix(0.0874, 0.0, 0.0, 0.0874, -56.45, -7.55)" gradientUnits="userSpaceOnUse" id="gradient31" r="819.2" spreadMethod="pad">
      <stop offset="0.0" stop-color="#292929"/>
      <stop offset="1.0" stop-color="#000000"/>
    </radialGradient>
    <radialGradient cx="0" cy="0" gradientTransform="matrix(0.0227, 0.0, 0.0, 0.0227, -80.7, -69.55)" gradientUnits="userSpaceOnUse" id="gradient32" r="819.2" spreadMethod="pad">
      <stop offset="0.0" stop-color="#6a6a6a"/>
      <stop offset="1.0" stop-color="#2b2b2b"/>
    </radialGradient>
    <radialGradient cx="0" cy="0" gradientTransform="matrix(0.0277, 0.0, 0.0, 0.0277, -40.4, -63.4)" gradientUnits="userSpaceOnUse" id="gradient33" r="819.2" spreadMethod="pad">
      <stop offset="0.0" stop-color="#000000"/>
      <stop offset="1.0" stop-color="#000000"/>
    </radialGradient>
    <radialGradient cx="0" cy="0" gradientTransform="matrix(0.0152, 0.0, 0.0, 0.0152, -54.45, -50.4)" gradientUnits="userSpaceOnUse" id="gradient34" r="819.2" spreadMethod="pad">
      <stop offset="0.0" stop-color="#010101"/>
      <stop offset="1.0" stop-color="#000000"/>
    </radialGradient>
    <radialGradient cx="0" cy="0" gradientTransform="matrix(0.0219, 0.0, 0.0, 0.0219, -54.45, -50.4)" gradientUnits="userSpaceOnUse" id="gradient35" r="819.2" spreadMethod="pad">
      <stop offset="0.0" stop-color="#010101"/>
      <stop offset="1.0" stop-color="#000000"/>
    </radialGradient>
    <radialGradient cx="0" cy="0" gradientTransform="matrix(0.0523, 0.0, 0.0, 0.0523, -56.45, -7.55)" gradientUnits="userSpaceOnUse" id="gradient36" r="819.2" spreadMethod="pad">
      <stop offset="0.0" stop-color="#292929"/>
      <stop offset="1.0" stop-color="#010101"/>
    </radialGradient>
    <radialGradient cx="0" cy="0" gradientTransform="matrix(0.0319, 0.0, 0.0, 0.0319, -56.45, -7.55)" gradientUnits="userSpaceOnUse" id="gradient37" r="819.2" spreadMethod="pad">
      <stop offset="0.0" stop-color="#292929"/>
      <stop offset="1.0" stop-color="#000000"/>
    </radialGradient>
    <radialGradient cx="0" cy="0" gradientTransform="matrix(0.0363, 0.0, 0.0, 0.0363, -61.8, -1.0)" gradientUnits="userSpaceOnUse" id="gradient38" r="819.2" spreadMethod="pad">
      <stop offset="0.0" stop-color="#2c2c2c"/>
      <stop offset="1.0" stop-color="#141414"/>
    </radialGradient>
    <radialGradient cx="0" cy="0" gradientTransform="matrix(0.0608, 0.0, 0.0, 0.0608, -200.75, -21.85)" gradientUnits="userSpaceOnUse" id="gradient39" r="819.2" spreadMethod="pad">
      <stop offset="0.0" stop-color="#3e3e3e"/>
      <stop offset="1.0" stop-color="#181818"/>
    </radialGradient>
  </defs>
</svg>
