<?xml version="1.0" encoding="UTF-8" standalone="no"?>
<svg xmlns:xlink="http://www.w3.org/1999/xlink" height="299.1px" width="395.75px" xmlns="http://www.w3.org/2000/svg">
  <g transform="matrix(1.0, 0.0, 0.0, 1.0, 400.0, 300.0)">
    <path d="M-190.9 -181.4 L-181.25 -183.75 -158.15 -191.9 -157.75 -191.65 -156.9 -175.4 -162.25 -175.4 -172.4 -176.65 -176.75 -176.75 -178.5 -177.0 -190.9 -181.4 M-155.15 -175.25 L-132.4 -184.9 -131.15 -185.0 -111.5 -182.75 -118.9 -179.15 -132.25 -175.75 -134.75 -175.15 -136.65 -175.25 -138.4 -174.9 -155.15 -175.25" fill="url(#gradient0)" fill-rule="evenodd" stroke="none"/>
    <path d="M-190.9 -181.4 L-201.9 -178.75 -219.15 -183.25 -236.0 -189.25 -248.5 -202.75 -248.75 -202.25 -247.65 -197.75 -248.15 -197.75 -259.4 -215.4 -265.4 -228.75 -271.5 -246.15 -273.65 -258.25 -274.25 -264.0 -274.5 -283.0 -272.65 -299.9 -25.0 -300.0 -23.25 -273.65 -30.9 -236.65 -46.4 -206.9 -55.0 -196.4 -78.25 -175.25 -69.0 -187.75 -81.9 -179.15 -90.15 -173.65 -86.25 -183.4 -106.25 -182.25 -111.5 -182.75 -131.15 -185.0 -132.4 -184.9 -155.15 -175.25 -156.75 -174.75 -156.9 -175.4 -157.75 -191.65 -158.15 -191.9 -181.25 -183.75 -190.9 -181.4" fill="url(#gradient1)" fill-rule="evenodd" stroke="none"/>
    <path d="M-156.9 -175.4 L-156.75 -174.75 -155.15 -175.25 -138.4 -174.9 -136.65 -175.25 -134.75 -175.15 -132.25 -175.75 Q-133.5 -174.25 -128.65 -164.9 L-104.5 -152.9 -104.25 -152.75 -104.0 -152.65 -101.75 -151.4 -114.0 -149.0 -129.0 -149.15 -127.5 -150.0 -139.15 -150.25 -144.15 -149.9 -144.75 -149.75 -142.25 -148.9 -152.9 -148.65 -173.0 -150.25 -191.4 -153.65 -181.75 -165.5 -181.25 -166.4 -179.75 -170.0 -179.0 -165.65 -177.15 -164.65 -174.15 -165.75 -173.9 -167.15 -176.25 -173.65 -172.5 -173.25 -172.4 -176.65 -162.25 -175.4 -156.9 -175.4" fill="url(#gradient2)" fill-rule="evenodd" stroke="none"/>
    <path d="M-179.75 -170.0 L-179.65 -172.15 -178.5 -177.0 -176.75 -176.75 -172.4 -176.65 -172.5 -173.25 -176.25 -173.65 -173.9 -167.15 -174.15 -165.75 -177.15 -164.65 -179.0 -165.65 -179.75 -170.0" fill="url(#gradient3)" fill-rule="evenodd" stroke="none"/>
    <path d="M-183.15 -165.0 L-181.25 -166.4 -181.75 -165.5 -183.0 -165.0 -183.15 -165.0" fill="url(#gradient4)" fill-rule="evenodd" stroke="none"/>
    <path d="M-199.5 -158.15 L-199.4 -158.25 -199.4 -158.4 -186.15 -163.75 -186.15 -163.9 -185.75 -163.9 -185.75 -164.0 -185.5 -164.0 -183.15 -165.0 -183.0 -165.0 -181.75 -165.5 -191.4 -153.65 -199.5 -158.15" fill="url(#gradient5)" fill-rule="evenodd" stroke="none"/>
    <path d="M-81.9 -179.15 L-69.0 -187.75 -78.25 -175.25 -81.9 -179.15" fill="url(#gradient6)" fill-rule="evenodd" stroke="none"/>
    <path d="M-104.0 -152.65 L-101.4 -151.65 -93.9 -147.5 -101.65 -151.15 -101.75 -151.4 -104.0 -152.65 M-92.25 -146.5 L-86.5 -143.65 -80.25 -136.25 -92.25 -146.5" fill="url(#gradient7)" fill-rule="evenodd" stroke="none"/>
    <path d="M-95.25 -83.15 L-98.4 -28.9 -127.15 -24.9 -133.65 -25.0 -130.9 -80.25 -129.15 -104.25 -130.25 -130.15 -129.4 -147.25 -129.0 -149.15 -114.0 -149.0 -101.75 -151.4 -101.65 -151.15 -98.15 -133.65 -93.75 -110.4 -94.0 -101.4 -94.0 -101.0 -94.15 -99.75 -94.15 -98.9 -94.5 -94.15 -94.65 -92.65 -95.25 -83.15 M-184.4 -18.4 L-180.75 -105.25 -173.0 -150.25 -152.9 -148.65 -142.25 -148.9 -144.75 -137.4 -146.25 -102.75 -146.9 -97.75 -148.65 -70.25 -150.9 -22.75 -153.75 -21.65 -184.4 -18.4" fill="url(#gradient8)" fill-rule="evenodd" stroke="none"/>
    <path d="M-135.25 -0.9 L-152.4 -0.9 -150.9 -22.75 -148.65 -70.25 -146.9 -97.75 -146.25 -102.75 -144.75 -137.4 -142.25 -148.9 -144.75 -149.75 -144.15 -149.9 -127.5 -150.0 -129.0 -149.15 -129.4 -147.25 -130.25 -130.15 -129.15 -104.25 -130.9 -80.25 -133.65 -25.0 -135.25 -0.9" fill="url(#gradient9)" fill-rule="evenodd" stroke="none"/>
    <path d="M-127.5 -150.0 L-144.15 -149.9 -139.15 -150.25 -127.5 -150.0" fill="url(#gradient10)" fill-rule="evenodd" stroke="none"/>
    <path d="M-199.4 -158.4 L-197.9 -160.15 -186.15 -163.9 -185.75 -164.0 -185.75 -163.9 -186.15 -163.9 -186.15 -163.75 -199.4 -158.4" fill="url(#gradient11)" fill-rule="evenodd" stroke="none"/>
    <path d="M-249.9 -138.4 L-230.5 -152.75 -228.15 -154.0 -199.5 -158.15 -191.4 -153.65 -219.25 -149.75 -244.25 -126.65 -246.5 -137.25 -249.9 -138.4" fill="url(#gradient12)" fill-rule="evenodd" stroke="none"/>
    <path d="M-357.15 -88.75 L-287.4 -120.5 -249.9 -138.4 -246.5 -137.25 -244.25 -126.65 -305.65 -96.4 -344.5 -78.5 -354.9 -86.4 -357.15 -88.75" fill="url(#gradient13)" fill-rule="evenodd" stroke="none"/>
    <path d="M-378.5 -90.25 L-357.15 -88.75 -354.9 -86.4 -344.5 -78.5 -383.9 -82.9 -376.75 -88.25 -376.65 -88.65 -378.5 -90.25" fill="url(#gradient14)" fill-rule="evenodd" stroke="none"/>
    <path d="M-400.0 -89.65 L-400.0 -101.25 -378.5 -90.25 -376.65 -88.65 -376.75 -88.25 -383.9 -82.9 -400.0 -89.65" fill="url(#gradient15)" fill-rule="evenodd" stroke="none"/>
    <path d="M-400.0 -68.0 L-400.0 -89.65 -383.9 -82.9 -400.0 -68.0" fill="url(#gradient16)" fill-rule="evenodd" stroke="none"/>
    <path d="M-321.9 -42.0 L-373.65 -30.75 -399.9 -43.25 -400.0 -68.0 -383.9 -82.9 -344.5 -78.5 -337.15 -44.9 -321.9 -42.0" fill="url(#gradient17)" fill-rule="evenodd" stroke="none"/>
    <path d="M-236.0 -36.0 L-238.25 -44.75 -238.65 -46.65 -236.75 -50.9 -235.9 -56.4 -235.5 -56.9 -234.9 -75.75 -235.15 -78.4 -212.4 -81.4 -212.15 -121.75 -212.4 -122.25 -191.4 -153.4 -191.4 -153.65 -173.0 -150.25 -180.75 -105.25 -184.4 -18.4 -214.25 -25.5 -228.9 -30.75 -236.0 -36.0" fill="url(#gradient18)" fill-rule="evenodd" stroke="none"/>
    <path d="M-191.4 -153.65 L-191.4 -153.4 -232.9 -125.4 -244.25 -126.65 -219.25 -149.75 -191.4 -153.65" fill="url(#gradient19)" fill-rule="evenodd" stroke="none"/>
    <path d="M-191.4 -153.4 L-212.4 -122.25 -212.15 -121.75 -212.4 -81.4 -236.75 -90.75 -232.9 -125.4 -191.4 -153.4" fill="url(#gradient20)" fill-rule="evenodd" stroke="none"/>
    <path d="M-249.0 -74.5 L-263.0 -68.25 -289.0 -49.15 -300.15 -48.15 Q-301.75 -45.15 -321.9 -42.0 L-337.15 -44.9 -344.5 -78.5 -305.65 -96.4 -244.25 -126.65 -232.9 -125.4 -236.75 -90.75 -242.75 -77.4 -249.0 -74.5" fill="url(#gradient21)" fill-rule="evenodd" stroke="none"/>
    <path d="M-98.4 -28.9 L-103.65 -0.9 -135.25 -0.9 -133.65 -25.0 -127.15 -24.9 -98.4 -28.9 M-152.4 -0.9 L-188.4 -0.9 -184.4 -18.4 -153.75 -21.65 -150.9 -22.75 -152.4 -0.9" fill="url(#gradient22)" fill-rule="evenodd" stroke="none"/>
    <path d="M-93.9 -147.5 L-93.75 -147.5 -93.5 -147.4 -93.25 -147.25 -93.0 -147.15 -92.75 -147.0 -92.5 -146.9 -92.25 -146.5 -92.4 -122.15 -98.15 -133.65 -101.65 -151.15 -93.9 -147.5" fill="url(#gradient23)" fill-rule="evenodd" stroke="none"/>
    <path d="M-92.4 -122.15 L-94.0 -101.4 -93.75 -110.4 -98.15 -133.65 -92.4 -122.15" fill="url(#gradient24)" fill-rule="evenodd" stroke="none"/>
    <path d="M-79.25 -134.9 L-78.65 -122.75 -84.9 -102.75 -87.9 -99.65 -94.5 -94.15 -94.15 -98.9 -94.15 -99.75 -94.0 -101.0 -94.0 -101.4 -92.4 -122.15 -92.25 -146.5 -80.25 -136.25 -79.25 -134.9" fill="url(#gradient25)" fill-rule="evenodd" stroke="none"/>
    <path d="M-86.5 -143.65 L-69.15 -130.75 -49.65 -114.15 -31.9 -96.0 -17.75 -79.5 -15.9 -69.75 -47.15 -100.5 -67.5 -118.4 -79.25 -134.9 -80.25 -136.25 -86.5 -143.65" fill="url(#gradient26)" fill-rule="evenodd" stroke="none"/>
    <path d="M-61.15 -57.4 L-65.0 -60.9 -65.75 -61.4 -66.0 -61.75 -76.25 -71.65 -89.9 -77.9 -91.0 -78.5 -95.25 -83.15 -94.65 -92.65 -87.9 -99.65 -84.9 -102.75 -78.65 -122.75 -79.25 -134.9 -67.5 -118.4 -47.15 -100.5 -15.9 -69.75 -15.65 -69.4 -16.0 -69.4 -36.0 -71.75 -35.9 -64.25 -53.5 -56.25 -61.15 -57.4" fill="url(#gradient27)" fill-rule="evenodd" stroke="none"/>
    <path d="M-87.9 -99.65 L-94.65 -92.65 -94.5 -94.15 -87.9 -99.65" fill="url(#gradient28)" fill-rule="evenodd" stroke="none"/>
    <path d="M-212.4 -81.4 L-235.15 -78.4 -242.75 -77.4 -236.75 -90.75 -212.4 -81.4" fill="url(#gradient29)" fill-rule="evenodd" stroke="none"/>
    <path d="M-238.25 -44.75 Q-248.9 -58.5 -249.0 -74.5 L-242.75 -77.4 -235.15 -78.4 -234.9 -75.75 -235.5 -56.9 -235.9 -56.4 -236.75 -50.9 -238.65 -46.65 -238.25 -44.75" fill="url(#gradient30)" fill-rule="evenodd" stroke="none"/>
    <path d="M-17.75 -79.5 L-6.15 -58.5 Q-4.65 -56.65 -4.25 -53.0 L-15.65 -69.4 -15.9 -69.75 -17.75 -79.5" fill="url(#gradient31)" fill-rule="evenodd" stroke="none"/>
    <path d="M-66.0 -61.75 L-77.4 -70.25 -89.9 -77.9 -76.25 -71.65 -66.0 -61.75" fill="url(#gradient32)" fill-rule="evenodd" stroke="none"/>
    <path d="M-4.25 -53.0 L-4.4 -45.25 -10.15 -31.4 -25.4 -15.75 -36.9 -0.9 -39.0 -0.9 -52.4 -9.65 -52.4 -10.9 -52.0 -50.9 -51.75 -51.5 -52.15 -51.9 -53.5 -56.25 -35.9 -64.25 -16.0 -69.4 -15.65 -69.4 -4.25 -53.0" fill="url(#gradient33)" fill-rule="evenodd" stroke="none"/>
    <path d="M-16.0 -69.4 L-35.9 -64.25 -36.0 -71.75 -16.0 -69.4" fill="url(#gradient34)" fill-rule="evenodd" stroke="none"/>
    <path d="M-52.75 -52.15 L-61.15 -57.4 -53.5 -56.25 -52.15 -51.9 -52.65 -52.15 -52.75 -52.15" fill="url(#gradient35)" fill-rule="evenodd" stroke="none"/>
    <path d="M-56.4 -38.65 L-52.75 -52.15 -52.65 -52.15 -52.15 -51.9 -51.75 -51.5 -52.0 -50.9 -56.4 -38.65" fill="url(#gradient36)" fill-rule="evenodd" stroke="none"/>
    <path d="M-57.5 -34.75 L-56.75 -37.5 -56.65 -37.65 -56.4 -38.5 -56.4 -38.65 -52.0 -50.9 -52.4 -10.9 -57.5 -34.75" fill="url(#gradient37)" fill-rule="evenodd" stroke="none"/>
    <path d="M-39.0 -0.9 L-89.15 -0.9 -64.75 -23.65 -63.75 -22.9 -52.4 -9.65 -39.0 -0.9" fill="url(#gradient38)" fill-rule="evenodd" stroke="none"/>
    <path d="M-64.75 -23.65 L-57.5 -34.75 -52.4 -10.9 -52.4 -9.65 -63.75 -22.9 -64.75 -23.65" fill="url(#gradient39)" fill-rule="evenodd" stroke="none"/>
    <path d="M-188.4 -0.9 L-227.0 -0.9 -236.0 -36.0 -228.9 -30.75 -214.25 -25.5 -184.4 -18.4 -188.4 -0.9" fill="url(#gradient40)" fill-rule="evenodd" stroke="none"/>
    <path d="M-126.9 -166.75 L-129.5 -166.9 -130.0 -168.0 -130.65 -169.65 -127.9 -169.15 -126.9 -166.75 M-192.5 -170.15 L-197.0 -170.65 -190.0 -170.5 -192.5 -170.15" fill="#ab0000" fill-rule="evenodd" stroke="none"/>
    <path d="M-180.0 -169.5 L-180.25 -168.75 -192.5 -170.15 -200.25 -168.9 -213.5 -157.5 -213.65 -156.25 -221.65 -155.15 -221.15 -157.9 -210.9 -168.9 -197.0 -170.65 -192.5 -170.15 -190.0 -170.5 -180.0 -169.5 M-131.0 -170.4 L-128.5 -170.4 -127.9 -169.15 -123.0 -168.25 -122.75 -167.75 -126.9 -166.75 -127.9 -169.15 -130.65 -169.65 -131.0 -170.4" fill="#ab0000" fill-opacity="0.9098039" fill-rule="evenodd" stroke="none"/>
    <path d="M-180.0 -169.5 L-179.75 -169.5 -160.15 -167.75 -159.65 -167.65 -152.65 -167.25 -152.9 -167.0 -154.15 -167.0 -180.25 -168.75 -180.0 -169.5 M-152.65 -167.25 L-145.75 -170.65 -131.0 -170.4 -130.65 -169.65 -130.0 -168.0 -131.25 -167.4 -134.15 -166.9 -147.4 -167.0 -147.75 -167.15 -152.65 -167.25 M-103.65 -0.9 L-122.4 -0.9 -120.4 -4.5 -110.0 -10.4 -109.65 -10.75 -100.9 -15.5 -103.65 -0.9" fill="#9b0000" fill-opacity="0.9098039" fill-rule="evenodd" stroke="none"/>
    <path d="M-152.9 -167.0 L-152.65 -167.25 -147.75 -167.15 -147.4 -167.0 -152.9 -167.0 M-129.5 -166.9 L-134.15 -166.9 -131.25 -167.4 -130.0 -168.0 -129.5 -166.9" fill="#a90000" fill-rule="evenodd" stroke="none"/>
    <path d="M-252.0 -73.15 L-249.0 -74.5 -248.15 -66.9 -248.25 -66.15 -247.9 -65.5 -246.0 -58.75 -246.15 -58.15 -250.65 -67.0 -252.0 -73.15 M-246.15 -58.0 L-241.75 -49.75 -241.4 -49.65 -239.75 -46.5 -239.5 -46.25 -238.25 -44.75 -237.65 -42.15 -239.15 -43.25 -246.15 -58.0" fill="#c20000" fill-opacity="0.9098039" fill-rule="evenodd" stroke="none"/>
    <path d="M-246.15 -58.15 L-246.15 -58.0 -239.15 -43.25 -237.65 -42.15 -237.4 -41.65 -236.9 -38.9 -236.15 -37.15 -236.0 -36.0 -235.15 -32.5 -235.0 -32.15 -234.9 -31.75 -234.9 -31.65 -234.4 -29.25 -243.0 -32.15 -245.25 -33.4 -245.65 -34.0 -257.75 -66.4 -257.75 -66.5 -257.9 -66.75 -258.15 -68.0 -257.9 -70.4 -258.0 -70.4 -252.0 -73.15 -250.65 -67.0 -246.15 -58.15" fill="#f00000" fill-rule="evenodd" stroke="none"/>
    <path d="M-251.65 -38.5 L-257.75 -66.4 -245.65 -34.0 -251.25 -38.4 -251.5 -38.5 -251.65 -38.5" fill="#f20000" fill-rule="evenodd" stroke="none"/>
    <path d="M-231.75 -0.9 L-240.15 -0.9 -251.65 -38.5 -251.5 -38.5 -251.25 -38.4 -245.65 -34.0 -245.25 -33.4 -231.75 -0.9" fill="#fb0000" fill-rule="evenodd" stroke="none"/>
    <path d="M-227.0 -0.9 L-231.75 -0.9 -245.25 -33.4 -243.0 -32.15 -234.4 -29.25 -234.25 -29.15 -227.0 -0.9" fill="#f90000" fill-rule="evenodd" stroke="none"/>
    <path d="M-97.15 -48.9 L-96.75 -54.65 -96.9 -55.65 -96.15 -66.25 -90.15 -57.4 -85.4 -44.5 -82.4 -32.25 -88.25 -41.4 -93.65 -47.4 -97.15 -48.9" fill="#f00000" fill-opacity="0.9098039" fill-rule="evenodd" stroke="none"/>
    <path d="M-82.4 -32.25 L-82.25 -31.4 -99.0 -16.75 -100.75 -15.75 -98.4 -28.15 -98.5 -28.4 -98.4 -28.9 -97.15 -48.9 -93.65 -47.4 -88.25 -41.4 -82.4 -32.25" fill="#ec0000" fill-opacity="0.9098039" fill-rule="evenodd" stroke="none"/>
    <path d="M-237.4 -41.65 L-230.0 -35.5 -229.75 -35.0 -222.5 -28.9 -214.65 -26.4 -214.4 -26.25 -191.15 -18.65 -228.15 -27.0 -228.5 -27.15 -228.5 -27.25 -234.0 -29.0 -234.25 -29.15 -234.4 -29.25 -234.9 -31.65 -234.9 -31.75 -235.0 -32.15 -235.15 -32.5 -236.0 -36.0 -236.15 -37.15 -236.9 -38.9 -237.4 -41.65" fill="#de0000" fill-opacity="0.9098039" fill-rule="evenodd" stroke="none"/>
    <path d="M-191.15 -18.65 L-190.15 -18.4 -191.4 -13.4 -191.75 -12.9 -191.5 -12.75 -194.5 -0.9 -227.0 -0.9 -234.25 -29.15 -234.0 -29.0 -228.5 -27.25 -228.5 -27.15 -228.15 -27.0 -191.15 -18.65" fill="#e80000" fill-opacity="0.9098039" fill-rule="evenodd" stroke="none"/>
    <path d="M-82.25 -31.4 L-82.15 -30.9 -88.25 -1.9 -88.25 -1.75 -88.5 -1.4 -89.15 -0.9 -103.65 -0.9 -100.9 -15.5 -100.75 -15.75 -99.0 -16.75 -82.25 -31.4" fill="#b00000" fill-rule="evenodd" stroke="none"/>
    <path d="M-88.5 -1.4 L-88.5 -0.9 -89.15 -0.9 -88.5 -1.4" fill="#ae0000" fill-rule="evenodd" stroke="none"/>
    <path d="M-190.15 -18.4 L-183.15 -15.75 -182.9 -15.5 -167.4 -9.65 -159.15 -4.75 -159.0 -4.5 -158.0 -4.15 -157.9 -3.9 -152.75 -0.9 -194.5 -0.9 -191.5 -12.75 -191.75 -12.9 -191.4 -13.4 -190.15 -18.4" fill="#b10000" fill-opacity="0.9098039" fill-rule="evenodd" stroke="none"/>
  </g>
  <defs>
    <radialGradient cx="0" cy="0" gradientTransform="matrix(0.1137, 0.0, 0.0, 0.1137, -194.05, -182.55)" gradientUnits="userSpaceOnUse" id="gradient0" r="819.2" spreadMethod="pad">
      <stop offset="0.0" stop-color="#262626"/>
      <stop offset="1.0" stop-color="#000000"/>
    </radialGradient>
    <radialGradient cx="0" cy="0" gradientTransform="matrix(0.2141, 0.0, 0.0, 0.2141, -101.9, -291.2)" gradientUnits="userSpaceOnUse" id="gradient1" r="819.2" spreadMethod="pad">
      <stop offset="0.0" stop-color="#626262"/>
      <stop offset="1.0" stop-color="#292929"/>
    </radialGradient>
    <radialGradient cx="0" cy="0" gradientTransform="matrix(0.208, 0.0, 0.0, 0.208, -132.9, -164.25)" gradientUnits="userSpaceOnUse" id="gradient2" r="819.2" spreadMethod="pad">
      <stop offset="0.0" stop-color="#818181"/>
      <stop offset="1.0" stop-color="#1a1a1a"/>
    </radialGradient>
    <radialGradient cx="0" cy="0" gradientTransform="matrix(0.2173, 0.0, 0.0, 0.2173, -171.6, -178.55)" gradientUnits="userSpaceOnUse" id="gradient3" r="819.2" spreadMethod="pad">
      <stop offset="0.0" stop-color="#101010"/>
      <stop offset="1.0" stop-color="#000000"/>
    </radialGradient>
    <radialGradient cx="0" cy="0" gradientTransform="matrix(0.0113, 0.0, 0.0, 0.0113, -183.65, -164.75)" gradientUnits="userSpaceOnUse" id="gradient4" r="819.2" spreadMethod="pad">
      <stop offset="0.0" stop-color="#000000"/>
      <stop offset="1.0" stop-color="#000000"/>
    </radialGradient>
    <radialGradient cx="0" cy="0" gradientTransform="matrix(0.0238, 0.0, 0.0, 0.0238, -181.45, -165.75)" gradientUnits="userSpaceOnUse" id="gradient5" r="819.2" spreadMethod="pad">
      <stop offset="0.0" stop-color="#000000"/>
      <stop offset="1.0" stop-color="#000000"/>
    </radialGradient>
    <radialGradient cx="0" cy="0" gradientTransform="matrix(0.0251, 0.0, 0.0, 0.0251, -86.1, -184.0)" gradientUnits="userSpaceOnUse" id="gradient6" r="819.2" spreadMethod="pad">
      <stop offset="0.0" stop-color="#0d0d0d"/>
      <stop offset="1.0" stop-color="#080808"/>
    </radialGradient>
    <radialGradient cx="0" cy="0" gradientTransform="matrix(0.0289, 0.0, 0.0, 0.0289, -86.8, -143.85)" gradientUnits="userSpaceOnUse" id="gradient7" r="819.2" spreadMethod="pad">
      <stop offset="0.0" stop-color="#444444"/>
      <stop offset="1.0" stop-color="#3e3e3e"/>
    </radialGradient>
    <radialGradient cx="0" cy="0" gradientTransform="matrix(0.1771, 0.0, 0.0, 0.1771, -121.0, -149.0)" gradientUnits="userSpaceOnUse" id="gradient8" r="819.2" spreadMethod="pad">
      <stop offset="0.0" stop-color="#5c5c5c"/>
      <stop offset="1.0" stop-color="#141414"/>
    </radialGradient>
    <radialGradient cx="0" cy="0" gradientTransform="matrix(0.1883, 0.0, 0.0, 0.1883, -160.75, -1.0)" gradientUnits="userSpaceOnUse" id="gradient9" r="819.2" spreadMethod="pad">
      <stop offset="0.0" stop-color="#3a3a3a"/>
      <stop offset="1.0" stop-color="#000000"/>
    </radialGradient>
    <radialGradient cx="0" cy="0" gradientTransform="matrix(0.03, 0.0, 0.0, 0.03, -135.75, -149.85)" gradientUnits="userSpaceOnUse" id="gradient10" r="819.2" spreadMethod="pad">
      <stop offset="0.0" stop-color="#000000"/>
      <stop offset="1.0" stop-color="#000000"/>
    </radialGradient>
    <radialGradient cx="0" cy="0" gradientTransform="matrix(0.0182, 0.0, 0.0, 0.0182, -197.8, -160.15)" gradientUnits="userSpaceOnUse" id="gradient11" r="819.2" spreadMethod="pad">
      <stop offset="0.0" stop-color="#000000"/>
      <stop offset="1.0" stop-color="#000000"/>
    </radialGradient>
    <radialGradient cx="0" cy="0" gradientTransform="matrix(0.0725, 0.0, 0.0, 0.0725, -244.15, -126.75)" gradientUnits="userSpaceOnUse" id="gradient12" r="819.2" spreadMethod="pad">
      <stop offset="0.0" stop-color="#585858"/>
      <stop offset="1.0" stop-color="#000000"/>
    </radialGradient>
    <radialGradient cx="0" cy="0" gradientTransform="matrix(0.1154, 0.0, 0.0, 0.1154, -266.5, -115.9)" gradientUnits="userSpaceOnUse" id="gradient13" r="819.2" spreadMethod="pad">
      <stop offset="0.0" stop-color="#686868"/>
      <stop offset="1.0" stop-color="#000000"/>
    </radialGradient>
    <radialGradient cx="0" cy="0" gradientTransform="matrix(0.0486, 0.0, 0.0, 0.0486, -344.4, -78.55)" gradientUnits="userSpaceOnUse" id="gradient14" r="819.2" spreadMethod="pad">
      <stop offset="0.0" stop-color="#484848"/>
      <stop offset="1.0" stop-color="#242424"/>
    </radialGradient>
    <radialGradient cx="0" cy="0" gradientTransform="matrix(0.0298, 0.0, 0.0, 0.0298, -383.95, -83.0)" gradientUnits="userSpaceOnUse" id="gradient15" r="819.2" spreadMethod="pad">
      <stop offset="0.0" stop-color="#323232"/>
      <stop offset="1.0" stop-color="#0e0e0e"/>
    </radialGradient>
    <radialGradient cx="0" cy="0" gradientTransform="matrix(0.0268, 0.0, 0.0, 0.0268, -383.95, -83.0)" gradientUnits="userSpaceOnUse" id="gradient16" r="819.2" spreadMethod="pad">
      <stop offset="0.0" stop-color="#323232"/>
      <stop offset="1.0" stop-color="#181818"/>
    </radialGradient>
    <radialGradient cx="0" cy="0" gradientTransform="matrix(0.0803, 0.0, 0.0, 0.0803, -344.4, -78.55)" gradientUnits="userSpaceOnUse" id="gradient17" r="819.2" spreadMethod="pad">
      <stop offset="0.0" stop-color="#484848"/>
      <stop offset="1.0" stop-color="#060606"/>
    </radialGradient>
    <radialGradient cx="0" cy="0" gradientTransform="matrix(0.1083, 0.0, 0.0, 0.1083, -180.65, -105.4)" gradientUnits="userSpaceOnUse" id="gradient18" r="819.2" spreadMethod="pad">
      <stop offset="0.0" stop-color="#414141"/>
      <stop offset="1.0" stop-color="#232323"/>
    </radialGradient>
    <radialGradient cx="0" cy="0" gradientTransform="matrix(0.0725, 0.0, 0.0, 0.0725, -244.15, -126.75)" gradientUnits="userSpaceOnUse" id="gradient19" r="819.2" spreadMethod="pad">
      <stop offset="0.0" stop-color="#585858"/>
      <stop offset="1.0" stop-color="#323232"/>
    </radialGradient>
    <radialGradient cx="0" cy="0" gradientTransform="matrix(0.0615, 0.0, 0.0, 0.0615, -232.95, -125.5)" gradientUnits="userSpaceOnUse" id="gradient20" r="819.2" spreadMethod="pad">
      <stop offset="0.0" stop-color="#4c4c4c"/>
      <stop offset="1.0" stop-color="#151515"/>
    </radialGradient>
    <radialGradient cx="0" cy="0" gradientTransform="matrix(0.1221, 0.0, 0.0, 0.1221, -266.5, -115.9)" gradientUnits="userSpaceOnUse" id="gradient21" r="819.2" spreadMethod="pad">
      <stop offset="0.0" stop-color="#686868"/>
      <stop offset="1.0" stop-color="#000000"/>
    </radialGradient>
    <radialGradient cx="0" cy="0" gradientTransform="matrix(0.1057, 0.0, 0.0, 0.1057, -184.25, -18.45)" gradientUnits="userSpaceOnUse" id="gradient22" r="819.2" spreadMethod="pad">
      <stop offset="0.0" stop-color="#3e3e3e"/>
      <stop offset="1.0" stop-color="#000000"/>
    </radialGradient>
    <radialGradient cx="0" cy="0" gradientTransform="matrix(0.0305, 0.0, 0.0, 0.0305, -92.4, -146.8)" gradientUnits="userSpaceOnUse" id="gradient23" r="819.2" spreadMethod="pad">
      <stop offset="0.0" stop-color="#3f3f3f"/>
      <stop offset="1.0" stop-color="#282828"/>
    </radialGradient>
    <radialGradient cx="0" cy="0" gradientTransform="matrix(0.0889, 0.0, 0.0, 0.0889, -108.0, -154.35)" gradientUnits="userSpaceOnUse" id="gradient24" r="819.2" spreadMethod="pad">
      <stop offset="0.0" stop-color="#3c3c3c"/>
      <stop offset="1.0" stop-color="#000000"/>
    </radialGradient>
    <radialGradient cx="0" cy="0" gradientTransform="matrix(0.072, 0.0, 0.0, 0.072, -92.4, -146.8)" gradientUnits="userSpaceOnUse" id="gradient25" r="819.2" spreadMethod="pad">
      <stop offset="0.0" stop-color="#3f3f3f"/>
      <stop offset="1.0" stop-color="#000000"/>
    </radialGradient>
    <radialGradient cx="0" cy="0" gradientTransform="matrix(0.0971, 0.0, 0.0, 0.0971, -67.75, -129.65)" gradientUnits="userSpaceOnUse" id="gradient26" r="819.2" spreadMethod="pad">
      <stop offset="0.0" stop-color="#575757"/>
      <stop offset="1.0" stop-color="#191919"/>
    </radialGradient>
    <radialGradient cx="0" cy="0" gradientTransform="matrix(0.1041, 0.0, 0.0, 0.1041, -99.0, -87.8)" gradientUnits="userSpaceOnUse" id="gradient27" r="819.2" spreadMethod="pad">
      <stop offset="0.0" stop-color="#2f2f2f"/>
      <stop offset="1.0" stop-color="#000000"/>
    </radialGradient>
    <radialGradient cx="0" cy="0" gradientTransform="matrix(0.0246, 0.0, 0.0, 0.0246, -99.0, -87.8)" gradientUnits="userSpaceOnUse" id="gradient28" r="819.2" spreadMethod="pad">
      <stop offset="0.0" stop-color="#2f2f2f"/>
      <stop offset="1.0" stop-color="#000000"/>
    </radialGradient>
    <radialGradient cx="0" cy="0" gradientTransform="matrix(0.0377, 0.0, 0.0, 0.0377, -212.15, -81.45)" gradientUnits="userSpaceOnUse" id="gradient29" r="819.2" spreadMethod="pad">
      <stop offset="0.0" stop-color="#171717"/>
      <stop offset="1.0" stop-color="#000000"/>
    </radialGradient>
    <radialGradient cx="0" cy="0" gradientTransform="matrix(0.0437, 0.0, 0.0, 0.0437, -235.6, -76.1)" gradientUnits="userSpaceOnUse" id="gradient30" r="819.2" spreadMethod="pad">
      <stop offset="0.0" stop-color="#848484"/>
      <stop offset="1.0" stop-color="#070707"/>
    </radialGradient>
    <radialGradient cx="0" cy="0" gradientTransform="matrix(0.0367, 0.0, 0.0, 0.0367, -17.85, -79.65)" gradientUnits="userSpaceOnUse" id="gradient31" r="819.2" spreadMethod="pad">
      <stop offset="0.0" stop-color="#262626"/>
      <stop offset="1.0" stop-color="#000000"/>
    </radialGradient>
    <radialGradient cx="0" cy="0" gradientTransform="matrix(0.0245, 0.0, 0.0, 0.0245, -77.0, -70.05)" gradientUnits="userSpaceOnUse" id="gradient32" r="819.2" spreadMethod="pad">
      <stop offset="0.0" stop-color="#6a6a6a"/>
      <stop offset="1.0" stop-color="#000000"/>
    </radialGradient>
    <radialGradient cx="0" cy="0" gradientTransform="matrix(0.0857, 0.0, 0.0, 0.0857, -52.2, -9.45)" gradientUnits="userSpaceOnUse" id="gradient33" r="819.2" spreadMethod="pad">
      <stop offset="0.0" stop-color="#292929"/>
      <stop offset="1.0" stop-color="#000000"/>
    </radialGradient>
    <radialGradient cx="0" cy="0" gradientTransform="matrix(0.0254, 0.0, 0.0, 0.0254, -35.85, -64.3)" gradientUnits="userSpaceOnUse" id="gradient34" r="819.2" spreadMethod="pad">
      <stop offset="0.0" stop-color="#000000"/>
      <stop offset="1.0" stop-color="#000000"/>
    </radialGradient>
    <radialGradient cx="0" cy="0" gradientTransform="matrix(0.0135, 0.0, 0.0, 0.0135, -51.85, -51.75)" gradientUnits="userSpaceOnUse" id="gradient35" r="819.2" spreadMethod="pad">
      <stop offset="0.0" stop-color="#010101"/>
      <stop offset="1.0" stop-color="#000000"/>
    </radialGradient>
    <radialGradient cx="0" cy="0" gradientTransform="matrix(0.0215, 0.0, 0.0, 0.0215, -51.85, -51.75)" gradientUnits="userSpaceOnUse" id="gradient36" r="819.2" spreadMethod="pad">
      <stop offset="0.0" stop-color="#010101"/>
      <stop offset="1.0" stop-color="#000000"/>
    </radialGradient>
    <radialGradient cx="0" cy="0" gradientTransform="matrix(0.0516, 0.0, 0.0, 0.0516, -52.2, -9.45)" gradientUnits="userSpaceOnUse" id="gradient37" r="819.2" spreadMethod="pad">
      <stop offset="0.0" stop-color="#292929"/>
      <stop offset="1.0" stop-color="#010101"/>
    </radialGradient>
    <radialGradient cx="0" cy="0" gradientTransform="matrix(0.0373, 0.0, 0.0, 0.0373, -58.5, -1.0)" gradientUnits="userSpaceOnUse" id="gradient38" r="819.2" spreadMethod="pad">
      <stop offset="0.0" stop-color="#2d2d2d"/>
      <stop offset="1.0" stop-color="#151515"/>
    </radialGradient>
    <radialGradient cx="0" cy="0" gradientTransform="matrix(0.0318, 0.0, 0.0, 0.0318, -52.2, -9.45)" gradientUnits="userSpaceOnUse" id="gradient39" r="819.2" spreadMethod="pad">
      <stop offset="0.0" stop-color="#292929"/>
      <stop offset="1.0" stop-color="#000000"/>
    </radialGradient>
    <radialGradient cx="0" cy="0" gradientTransform="matrix(0.0669, 0.0, 0.0, 0.0669, -184.25, -18.45)" gradientUnits="userSpaceOnUse" id="gradient40" r="819.2" spreadMethod="pad">
      <stop offset="0.0" stop-color="#3e3e3e"/>
      <stop offset="1.0" stop-color="#191919"/>
    </radialGradient>
  </defs>
</svg>
