<?xml version="1.0" encoding="UTF-8" standalone="no"?>
<svg xmlns:xlink="http://www.w3.org/1999/xlink" height="299.1px" width="394.1px" xmlns="http://www.w3.org/2000/svg">
  <g transform="matrix(1.0, 0.0, 0.0, 1.0, 400.0, 300.0)">
    <path d="M-166.75 -175.25 L-175.4 -173.4 -195.25 -178.25 -214.0 -184.5 -228.65 -198.65 -229.9 -193.65 -230.25 -193.25 -232.65 -197.5 -233.25 -198.0 -233.15 -198.4 -233.65 -198.65 -240.9 -210.4 -249.15 -225.5 -254.5 -245.75 Q-260.9 -278.4 -254.25 -300.0 L-10.15 -300.0 -7.5 -266.25 -15.5 -232.25 -17.65 -227.15 -38.5 -192.4 -48.75 -184.0 -49.15 -183.75 -49.25 -183.65 -49.5 -183.5 -49.75 -183.25 -49.9 -183.25 -65.65 -173.15 -70.75 -169.9 -67.15 -174.25 -63.25 -178.75 -72.25 -178.0 -82.0 -177.15 -96.4 -178.75 -103.5 -179.4 -124.75 -171.4 -130.0 -169.5 -129.75 -171.25 -127.4 -185.25 -127.65 -185.9 -151.65 -178.65 -166.75 -175.25 M-237.0 -204.9 L-236.65 -204.75 -240.0 -211.15 -240.65 -211.4 -237.0 -204.9" fill="url(#gradient0)" fill-rule="evenodd" stroke="none"/>
    <path d="M-166.75 -175.25 L-151.65 -178.65 -127.65 -185.9 -127.4 -185.25 -129.75 -171.25 -143.75 -171.65 -153.9 -172.9 -159.15 -173.15 -162.0 -173.65 -163.15 -173.9 -166.75 -175.25 M-124.75 -171.4 L-103.5 -179.4 -96.4 -178.75 -103.0 -175.65 -117.4 -172.15 -121.5 -171.4 -124.75 -171.4" fill="url(#gradient1)" fill-rule="evenodd" stroke="none"/>
    <path d="M-129.75 -171.25 L-130.0 -169.5 -124.75 -171.4 -121.5 -171.4 -117.4 -172.15 Q-118.4 -170.65 -113.0 -162.0 L-85.4 -148.65 -95.65 -145.75 -109.0 -145.5 -107.5 -146.5 -116.9 -146.65 -122.0 -146.0 -123.0 -145.9 -120.65 -145.0 -132.0 -144.5 -149.4 -145.75 -169.25 -149.25 -165.75 -162.25 -164.0 -165.9 -164.0 -166.0 -163.65 -166.4 -163.5 -166.0 -163.4 -166.65 -162.25 -162.15 -159.65 -161.15 -155.9 -162.15 -155.65 -163.5 -158.65 -170.15 -154.0 -169.5 -153.9 -172.9 -143.75 -171.65 -129.75 -171.25" fill="url(#gradient2)" fill-rule="evenodd" stroke="none"/>
    <path d="M-163.65 -166.4 L-163.25 -169.5 -162.0 -173.65 -159.15 -173.15 -153.9 -172.9 -154.0 -169.5 -158.65 -170.15 -155.65 -163.5 -155.9 -162.15 -159.65 -161.15 -162.25 -162.15 -163.4 -166.65 -163.5 -166.0 -163.65 -166.4" fill="url(#gradient3)" fill-rule="evenodd" stroke="none"/>
    <path d="M-163.25 -169.5 L-163.15 -173.9 -162.0 -173.65 -163.25 -169.5" fill="url(#gradient4)" fill-rule="evenodd" stroke="none"/>
    <path d="M-72.25 -178.0 L-63.25 -178.75 -67.15 -174.25 -72.25 -178.0 M-65.65 -173.15 L-49.9 -183.25 -64.65 -172.4 -65.65 -173.15" fill="url(#gradient5)" fill-rule="evenodd" stroke="none"/>
    <path d="M-185.65 -157.0 L-185.4 -157.4 -171.0 -161.75 -164.0 -166.0 -164.0 -165.9 -165.75 -162.25 -185.15 -155.0 -185.65 -157.0" fill="url(#gradient6)" fill-rule="evenodd" stroke="none"/>
    <path d="M-187.0 -154.65 L-185.65 -157.0 -185.15 -155.0 -187.0 -154.65" fill="url(#gradient7)" fill-rule="evenodd" stroke="none"/>
    <path d="M-236.4 -129.15 L-211.75 -148.25 -207.75 -149.65 -187.0 -154.5 -187.0 -154.65 -185.15 -155.0 -169.25 -149.25 -169.25 -149.15 -196.4 -145.0 -218.0 -120.9 -223.75 -132.0 -228.5 -133.25 -236.4 -129.15" fill="url(#gradient8)" fill-rule="evenodd" stroke="none"/>
    <path d="M-185.15 -155.0 L-165.75 -162.25 -169.25 -149.25 -185.15 -155.0" fill="url(#gradient9)" fill-rule="evenodd" stroke="none"/>
    <path d="M-330.75 -79.65 L-303.65 -93.9 -288.0 -101.65 -287.75 -101.75 -287.5 -101.9 -287.25 -102.0 -287.0 -102.15 -286.75 -102.25 -286.5 -102.4 -286.25 -102.5 -286.0 -102.65 -285.75 -102.75 -285.5 -102.9 -285.25 -103.0 -285.0 -103.15 -284.75 -103.25 -284.5 -103.4 -284.25 -103.5 -263.15 -114.4 -236.4 -129.15 -228.5 -133.25 -223.75 -132.0 -218.0 -120.9 -276.0 -88.25 -313.25 -68.75 -330.75 -79.65" fill="url(#gradient10)" fill-rule="evenodd" stroke="none"/>
    <path d="M-207.0 -119.9 L-218.0 -120.9 -196.4 -145.0 -169.25 -149.15 -169.4 -148.9 -207.0 -119.9" fill="url(#gradient11)" fill-rule="evenodd" stroke="none"/>
    <path d="M-218.15 -32.0 L-220.9 -38.0 -222.9 -42.65 -219.9 -47.0 -218.0 -52.5 -217.15 -62.25 -217.4 -73.0 -189.75 -77.15 -187.75 -117.5 -169.4 -148.9 -169.25 -149.15 -169.25 -149.25 -149.4 -145.75 -155.9 -101.0 -159.9 -15.15 -192.0 -21.5 -208.65 -26.5 -218.15 -32.0" fill="url(#gradient12)" fill-rule="evenodd" stroke="none"/>
    <path d="M-78.5 -97.25 L-79.75 -77.15 -79.9 -75.65 -82.9 -29.4 -108.4 -24.15 -114.15 -24.15 -111.9 -66.5 -109.4 -102.5 -110.15 -122.9 -109.0 -145.5 -95.65 -145.75 -85.4 -148.65 -85.0 -147.4 -80.65 -123.75 -78.25 -111.15 -78.0 -109.0 -78.5 -97.25 M-149.4 -145.75 L-132.0 -144.5 -120.65 -145.0 -123.0 -133.9 -124.65 -99.65 -126.75 -75.15 -129.5 -21.0 -131.4 -19.9 -159.9 -15.15 -155.9 -101.0 -149.4 -145.75" fill="url(#gradient13)" fill-rule="evenodd" stroke="none"/>
    <path d="M-82.9 -29.4 L-88.75 -0.9 -115.9 -0.9 -114.15 -24.15 -108.4 -24.15 -82.9 -29.4 M-131.0 -0.9 L-163.4 -0.9 -159.9 -15.15 -131.4 -19.9 -129.5 -21.0 -131.0 -0.9" fill="url(#gradient14)" fill-rule="evenodd" stroke="none"/>
    <path d="M-115.9 -0.9 L-131.0 -0.9 -129.5 -21.0 -126.75 -75.15 -124.65 -99.65 -123.0 -133.9 -120.65 -145.0 -123.0 -145.9 -122.0 -146.0 -113.75 -146.0 -107.5 -146.5 -109.0 -145.5 -110.15 -122.9 -109.4 -102.5 -111.9 -66.5 -114.15 -24.15 -115.9 -0.9" fill="url(#gradient15)" fill-rule="evenodd" stroke="none"/>
    <path d="M-122.0 -146.0 L-116.9 -146.65 -107.5 -146.5 -113.75 -146.0 -122.0 -146.0" fill="url(#gradient16)" fill-rule="evenodd" stroke="none"/>
    <path d="M-169.4 -148.9 L-187.75 -117.5 -189.75 -77.15 -211.15 -85.25 -207.0 -119.9 -169.4 -148.9" fill="url(#gradient17)" fill-rule="evenodd" stroke="none"/>
    <path d="M-234.75 -61.9 L-259.25 -41.15 -279.75 -38.4 -281.15 -37.5 -296.25 -33.5 -305.0 -34.75 -313.25 -68.75 -276.0 -88.25 -218.0 -120.9 -207.0 -119.9 -211.15 -85.25 -221.25 -72.5 -234.75 -61.9" fill="url(#gradient18)" fill-rule="evenodd" stroke="none"/>
    <path d="M-351.75 -80.25 L-330.75 -79.65 -313.25 -68.75 -353.4 -72.0 -348.15 -78.15 Q-348.25 -78.9 -351.75 -80.25" fill="url(#gradient19)" fill-rule="evenodd" stroke="none"/>
    <path d="M-80.15 -144.75 L-79.0 -120.75 -80.65 -123.75 -85.0 -147.4 -80.15 -144.75" fill="url(#gradient20)" fill-rule="evenodd" stroke="none"/>
    <path d="M-79.0 -120.75 L-78.25 -111.15 -80.65 -123.75 -79.0 -120.75" fill="url(#gradient21)" fill-rule="evenodd" stroke="none"/>
    <path d="M-69.15 -133.5 L-67.75 -121.65 -73.65 -101.65 -78.5 -97.25 -78.0 -109.0 -78.25 -111.15 -79.0 -120.75 -80.15 -144.75 -79.5 -144.25 -77.4 -142.25 -69.25 -134.15 -69.25 -133.75 -69.15 -133.5" fill="url(#gradient22)" fill-rule="evenodd" stroke="none"/>
    <path d="M-15.0 -73.0 L-39.25 -99.0 -41.25 -100.75 -41.25 -101.15 -59.0 -118.0 -69.15 -133.5 -69.25 -133.75 -69.25 -134.15 -77.4 -142.25 -61.25 -129.5 -45.9 -115.25 -31.15 -99.0 -18.0 -82.15 -17.9 -81.9 -15.0 -73.0" fill="url(#gradient23)" fill-rule="evenodd" stroke="none"/>
    <path d="M-78.5 -97.25 L-73.65 -101.65 -67.75 -121.65 -69.15 -133.5 -59.0 -118.0 -41.25 -101.15 -41.25 -100.75 -39.25 -99.0 -15.0 -73.0 -14.9 -72.5 -31.9 -74.0 -31.75 -66.75 Q-40.8 -62.8 -49.9 -58.9 L-57.4 -59.75 -57.65 -59.9 -58.5 -60.65 -70.5 -73.0 -79.75 -77.15 -78.5 -97.25" fill="url(#gradient24)" fill-rule="evenodd" stroke="none"/>
    <path d="M-14.9 -72.5 L-15.0 -73.0 -17.9 -81.9 -7.65 -60.5 -14.5 -72.4 -14.9 -72.5" fill="url(#gradient25)" fill-rule="evenodd" stroke="none"/>
    <path d="M-400.0 -92.5 L-400.0 -103.9 -399.65 -104.0 -351.75 -80.25 Q-348.25 -78.9 -348.15 -78.15 L-353.4 -72.0 -377.15 -81.5 -400.0 -92.5" fill="url(#gradient26)" fill-rule="evenodd" stroke="none"/>
    <path d="M-396.65 -43.9 L-400.0 -45.15 -400.0 -92.5 -377.15 -81.5 -353.4 -72.0 -367.75 -55.25 -396.65 -43.9" fill="url(#gradient27)" fill-rule="evenodd" stroke="none"/>
    <path d="M-189.75 -77.15 L-217.4 -73.0 -221.25 -72.5 -211.15 -85.25 -189.75 -77.15" fill="url(#gradient28)" fill-rule="evenodd" stroke="none"/>
    <path d="M-220.9 -38.0 Q-229.75 -43.9 -234.75 -61.9 L-221.25 -72.5 -217.4 -73.0 -217.15 -62.25 -218.0 -52.5 -219.9 -47.0 -222.9 -42.65 -220.9 -38.0" fill="url(#gradient29)" fill-rule="evenodd" stroke="none"/>
    <path d="M-79.75 -77.15 L-70.5 -73.0 -58.5 -60.65 -64.0 -64.25 -74.15 -72.25 -79.9 -75.65 -79.75 -77.15" fill="url(#gradient30)" fill-rule="evenodd" stroke="none"/>
    <path d="M-31.75 -66.75 L-31.9 -74.0 -14.9 -72.5 -31.75 -66.75" fill="url(#gradient31)" fill-rule="evenodd" stroke="none"/>
    <path d="M-49.9 -58.9 Q-40.8 -62.8 -31.75 -66.75 L-14.9 -72.5 -14.5 -72.4 -7.65 -60.5 -7.65 -60.4 -7.0 -59.25 -6.9 -59.15 -6.75 -58.9 -6.65 -58.65 -6.0 -57.5 -5.9 -50.4 -11.15 -36.65 -24.65 -21.15 -35.5 -5.4 -48.4 -14.0 -48.4 -14.75 -50.25 -54.0 -50.25 -54.9 -49.9 -58.9" fill="url(#gradient32)" fill-rule="evenodd" stroke="none"/>
    <path d="M-296.25 -33.5 L-344.15 -19.25 -365.0 -28.4 -396.65 -43.9 -367.75 -55.25 -353.4 -72.0 -313.25 -68.75 -305.0 -34.75 -296.25 -33.5" fill="url(#gradient33)" fill-rule="evenodd" stroke="none"/>
    <path d="M-35.5 -5.4 L-38.4 -0.9 -87.25 -0.9 -85.9 -3.25 -61.75 -27.4 -48.4 -14.0 -35.5 -5.4" fill="url(#gradient34)" fill-rule="evenodd" stroke="none"/>
    <path d="M-61.75 -27.4 L-55.25 -38.25 -48.4 -14.75 -48.4 -14.0 -61.75 -27.4" fill="url(#gradient35)" fill-rule="evenodd" stroke="none"/>
    <path d="M-55.25 -38.25 L-54.9 -40.15 -50.25 -54.0 -48.4 -14.75 -55.25 -38.25" fill="url(#gradient36)" fill-rule="evenodd" stroke="none"/>
    <path d="M-54.9 -40.15 L-51.75 -55.75 -51.5 -55.65 -50.25 -54.9 -50.25 -54.0 -54.9 -40.15" fill="url(#gradient37)" fill-rule="evenodd" stroke="none"/>
    <path d="M-57.4 -59.75 L-49.9 -58.9 -50.25 -54.9 -51.5 -55.65 -51.75 -55.75 -57.4 -59.75" fill="url(#gradient38)" fill-rule="evenodd" stroke="none"/>
    <path d="M-163.4 -0.9 L-210.5 -0.9 -218.15 -32.0 -208.65 -26.5 -192.0 -21.5 -159.9 -15.15 -163.4 -0.9" fill="url(#gradient39)" fill-rule="evenodd" stroke="none"/>
    <path d="M-177.75 -166.65 L-180.4 -167.0 -174.0 -167.0 -177.0 -166.65 -177.75 -166.65 M-115.5 -166.65 L-115.15 -166.65 -109.4 -165.5 -109.0 -163.5 -113.75 -163.25 -114.25 -164.15 -115.5 -166.65" fill="#ab0000" fill-rule="evenodd" stroke="none"/>
    <path d="M-177.75 -166.65 L-186.15 -165.75 -200.25 -154.4 -200.9 -151.25 -207.4 -149.65 -207.65 -149.65 -208.5 -149.4 -207.4 -154.65 -196.15 -165.5 -180.4 -167.0 -177.75 -166.65 M-174.0 -167.0 L-164.15 -166.0 -165.4 -165.25 -177.0 -166.65 -174.0 -167.0 M-115.15 -166.65 L-109.75 -166.75 -109.4 -165.5 -108.5 -165.4 -107.4 -164.5 -107.9 -163.9 -109.0 -163.5 -109.4 -165.5 -115.15 -166.65" fill="#ab0000" fill-opacity="0.9098039" fill-rule="evenodd" stroke="none"/>
    <path d="M-88.75 -0.9 L-103.0 -0.9 -101.15 -4.65 -94.4 -9.0 -93.9 -9.65 -86.0 -14.75 -85.9 -14.25 -88.75 -0.9 M-164.15 -166.0 L-163.65 -166.0 -163.25 -165.9 -159.65 -165.65 -159.5 -165.5 -159.4 -165.5 -152.9 -164.9 -152.65 -164.75 -140.75 -163.9 -140.15 -163.75 -131.75 -163.4 -125.75 -166.25 -123.5 -166.65 -118.15 -166.5 -117.25 -166.65 -115.5 -166.65 -114.25 -164.15 -114.9 -163.9 -115.9 -163.25 -126.25 -163.15 -131.75 -163.4 -132.25 -163.0 -156.0 -164.25 -165.4 -165.25 -164.15 -166.0" fill="#9b0000" fill-opacity="0.9098039" fill-rule="evenodd" stroke="none"/>
    <path d="M-113.75 -163.25 L-115.9 -163.25 -114.9 -163.9 -114.25 -164.15 -113.75 -163.25 M-126.25 -163.15 L-132.25 -163.0 -131.75 -163.4 -126.25 -163.15" fill="#a90000" fill-rule="evenodd" stroke="none"/>
    <path d="M-216.65 -25.75 L-217.5 -29.5 -217.5 -29.65 -217.65 -29.9 -218.25 -32.65 -220.65 -37.25 -221.0 -38.15 -223.5 -40.4 -223.75 -41.0 -228.75 -47.25 -232.25 -53.9 -232.65 -54.5 -234.75 -61.9 -233.9 -62.75 -232.75 -63.4 -230.15 -59.5 -229.9 -58.75 -229.0 -57.65 -228.75 -57.4 -222.65 -47.9 -222.4 -47.65 -221.0 -45.5 -221.15 -45.15 -218.0 -41.0 -217.9 -40.4 -215.9 -37.9 -210.75 -34.25 -210.65 -33.9 -197.5 -24.15 -192.65 -22.9 -192.4 -22.65 -180.75 -19.4 -180.65 -19.4 -180.25 -19.25 -178.5 -18.9 -178.15 -18.75 -178.0 -18.75 -164.75 -14.9 -191.5 -19.75 -191.75 -19.75 -192.65 -20.0 -203.15 -21.9 -207.5 -23.15 -208.0 -23.25 -208.15 -23.5 -208.65 -23.5 -216.0 -25.65 -216.65 -25.75" fill="#da0000" fill-opacity="0.9098039" fill-rule="evenodd" stroke="none"/>
    <path d="M-233.4 -33.15 L-242.4 -55.25 -242.5 -55.25 -235.15 -61.75 -234.75 -61.9 -232.65 -54.5 -232.25 -53.9 -228.75 -47.25 -223.75 -41.0 -223.5 -40.4 -221.0 -38.15 -220.65 -37.25 -218.25 -32.65 -217.65 -29.9 -217.5 -29.65 -217.5 -29.5 -216.65 -25.75 -222.5 -27.5 -232.0 -33.15 -233.0 -33.9 -233.4 -33.75 -233.4 -33.15" fill="#eb0000" fill-rule="evenodd" stroke="none"/>
    <path d="M-233.4 -33.15 L-233.4 -33.75 -233.0 -33.9 -232.0 -33.15 -222.5 -27.5 -216.65 -25.75 -210.65 -0.9 -219.75 -0.9 -232.4 -30.25 -233.4 -33.15" fill="#f50000" fill-rule="evenodd" stroke="none"/>
    <path d="M-164.75 -14.9 L-163.9 -14.65 -164.5 -12.75 -164.65 -12.5 -167.65 -0.9 -210.65 -0.9 -216.65 -25.75 -216.0 -25.65 -208.65 -23.5 -208.15 -23.5 -208.0 -23.25 -207.5 -23.15 -203.15 -21.9 -192.65 -20.0 -191.75 -19.75 -191.5 -19.75 -164.75 -14.9" fill="#e40000" fill-opacity="0.9098039" fill-rule="evenodd" stroke="none"/>
    <path d="M-219.75 -0.9 L-223.9 -0.9 -232.4 -30.25 -219.75 -0.9" fill="#f60000" fill-rule="evenodd" stroke="none"/>
    <path d="M-81.75 -45.65 L-81.15 -55.4 -81.25 -55.65 -81.0 -57.4 -80.65 -57.25 -67.9 -33.25 -77.15 -42.25 -81.75 -45.65" fill="#f00000" fill-opacity="0.9098039" fill-rule="evenodd" stroke="none"/>
    <path d="M-85.75 -15.15 L-82.9 -28.5 -83.0 -28.9 -82.9 -29.4 -82.9 -29.75 -81.75 -45.65 -77.15 -42.25 -67.9 -33.25 -67.65 -32.4 -82.9 -16.9 -85.75 -15.15" fill="#ec0000" fill-opacity="0.9098039" fill-rule="evenodd" stroke="none"/>
    <path d="M-67.65 -32.4 L-70.65 -18.75 -70.75 -18.5 -70.9 -18.25 -85.65 -3.4 -87.25 -0.9 -88.75 -0.9 -85.9 -14.25 -86.0 -14.75 -85.75 -15.15 -82.9 -16.9 -67.65 -32.4" fill="#b00000" fill-rule="evenodd" stroke="none"/>
    <path d="M-70.9 -18.25 L-74.75 -0.9 -87.25 -0.9 -85.65 -3.4 -70.9 -18.25" fill="#ae0000" fill-rule="evenodd" stroke="none"/>
    <path d="M-163.9 -14.65 L-160.25 -13.25 -158.75 -12.9 -158.5 -12.65 -143.5 -7.4 -138.65 -4.65 -138.5 -4.4 -136.75 -3.5 -136.65 -3.25 -136.0 -3.15 -135.9 -2.9 -132.65 -0.9 -167.65 -0.9 -164.65 -12.5 -164.5 -12.75 -163.9 -14.65" fill="#b20000" fill-opacity="0.9098039" fill-rule="evenodd" stroke="none"/>
  </g>
  <defs>
    <radialGradient cx="0" cy="0" gradientTransform="matrix(0.2329, 0.0, 0.0, 0.2329, -67.4, -282.6)" gradientUnits="userSpaceOnUse" id="gradient0" r="819.2" spreadMethod="pad">
      <stop offset="0.0" stop-color="#626262"/>
      <stop offset="1.0" stop-color="#262626"/>
    </radialGradient>
    <radialGradient cx="0" cy="0" gradientTransform="matrix(0.1134, 0.0, 0.0, 0.1134, -177.3, -178.9)" gradientUnits="userSpaceOnUse" id="gradient1" r="819.2" spreadMethod="pad">
      <stop offset="0.0" stop-color="#262626"/>
      <stop offset="1.0" stop-color="#000000"/>
    </radialGradient>
    <radialGradient cx="0" cy="0" gradientTransform="matrix(0.2039, 0.0, 0.0, 0.2039, -115.2, -160.85)" gradientUnits="userSpaceOnUse" id="gradient2" r="819.2" spreadMethod="pad">
      <stop offset="0.0" stop-color="#818181"/>
      <stop offset="1.0" stop-color="#1d1d1d"/>
    </radialGradient>
    <radialGradient cx="0" cy="0" gradientTransform="matrix(0.2127, 0.0, 0.0, 0.2127, -152.95, -174.7)" gradientUnits="userSpaceOnUse" id="gradient3" r="819.2" spreadMethod="pad">
      <stop offset="0.0" stop-color="#101010"/>
      <stop offset="1.0" stop-color="#000000"/>
    </radialGradient>
    <radialGradient cx="0" cy="0" gradientTransform="matrix(0.0414, 0.0, 0.0, 0.0414, -162.75, -182.45)" gradientUnits="userSpaceOnUse" id="gradient4" r="819.2" spreadMethod="pad">
      <stop offset="0.0" stop-color="#797979"/>
      <stop offset="1.0" stop-color="#000000"/>
    </radialGradient>
    <radialGradient cx="0" cy="0" gradientTransform="matrix(0.049, 0.0, 0.0, 0.049, -77.4, -181.9)" gradientUnits="userSpaceOnUse" id="gradient5" r="819.2" spreadMethod="pad">
      <stop offset="0.0" stop-color="#0d0d0d"/>
      <stop offset="1.0" stop-color="#080808"/>
    </radialGradient>
    <radialGradient cx="0" cy="0" gradientTransform="matrix(0.0194, 0.0, 0.0, 0.0194, -170.8, -161.95)" gradientUnits="userSpaceOnUse" id="gradient6" r="819.2" spreadMethod="pad">
      <stop offset="0.0" stop-color="#000000"/>
      <stop offset="1.0" stop-color="#000000"/>
    </radialGradient>
    <radialGradient cx="0" cy="0" gradientTransform="matrix(0.0575, 0.0, 0.0, 0.0575, -185.1, -155.05)" gradientUnits="userSpaceOnUse" id="gradient7" r="819.2" spreadMethod="pad">
      <stop offset="0.0" stop-color="#000000"/>
      <stop offset="1.0" stop-color="#000000"/>
    </radialGradient>
    <radialGradient cx="0" cy="0" gradientTransform="matrix(0.0689, 0.0, 0.0, 0.0689, -217.95, -120.95)" gradientUnits="userSpaceOnUse" id="gradient8" r="819.2" spreadMethod="pad">
      <stop offset="0.0" stop-color="#585858"/>
      <stop offset="1.0" stop-color="#000000"/>
    </radialGradient>
    <radialGradient cx="0" cy="0" gradientTransform="matrix(0.0254, 0.0, 0.0, 0.0254, -165.65, -162.4)" gradientUnits="userSpaceOnUse" id="gradient9" r="819.2" spreadMethod="pad">
      <stop offset="0.0" stop-color="#000000"/>
      <stop offset="1.0" stop-color="#000000"/>
    </radialGradient>
    <radialGradient cx="0" cy="0" gradientTransform="matrix(0.118, 0.0, 0.0, 0.118, -238.8, -109.4)" gradientUnits="userSpaceOnUse" id="gradient10" r="819.2" spreadMethod="pad">
      <stop offset="0.0" stop-color="#686868"/>
      <stop offset="1.0" stop-color="#000000"/>
    </radialGradient>
    <radialGradient cx="0" cy="0" gradientTransform="matrix(0.0689, 0.0, 0.0, 0.0689, -217.95, -120.95)" gradientUnits="userSpaceOnUse" id="gradient11" r="819.2" spreadMethod="pad">
      <stop offset="0.0" stop-color="#585858"/>
      <stop offset="1.0" stop-color="#323232"/>
    </radialGradient>
    <radialGradient cx="0" cy="0" gradientTransform="matrix(0.1134, 0.0, 0.0, 0.1134, -155.7, -101.05)" gradientUnits="userSpaceOnUse" id="gradient12" r="819.2" spreadMethod="pad">
      <stop offset="0.0" stop-color="#414141"/>
      <stop offset="1.0" stop-color="#171717"/>
    </radialGradient>
    <radialGradient cx="0" cy="0" gradientTransform="matrix(0.1744, 0.0, 0.0, 0.1744, -101.35, -145.65)" gradientUnits="userSpaceOnUse" id="gradient13" r="819.2" spreadMethod="pad">
      <stop offset="0.0" stop-color="#5c5c5c"/>
      <stop offset="1.0" stop-color="#141414"/>
    </radialGradient>
    <radialGradient cx="0" cy="0" gradientTransform="matrix(0.0955, 0.0, 0.0, 0.0955, -159.7, -15.2)" gradientUnits="userSpaceOnUse" id="gradient14" r="819.2" spreadMethod="pad">
      <stop offset="0.0" stop-color="#3e3e3e"/>
      <stop offset="1.0" stop-color="#000000"/>
    </radialGradient>
    <radialGradient cx="0" cy="0" gradientTransform="matrix(0.1835, 0.0, 0.0, 0.1835, -138.75, -1.0)" gradientUnits="userSpaceOnUse" id="gradient15" r="819.2" spreadMethod="pad">
      <stop offset="0.0" stop-color="#3a3a3a"/>
      <stop offset="1.0" stop-color="#000000"/>
    </radialGradient>
    <radialGradient cx="0" cy="0" gradientTransform="matrix(0.0364, 0.0, 0.0, 0.0364, -114.5, -146.1)" gradientUnits="userSpaceOnUse" id="gradient16" r="819.2" spreadMethod="pad">
      <stop offset="0.0" stop-color="#000000"/>
      <stop offset="1.0" stop-color="#000000"/>
    </radialGradient>
    <radialGradient cx="0" cy="0" gradientTransform="matrix(0.0586, 0.0, 0.0, 0.0586, -207.1, -119.95)" gradientUnits="userSpaceOnUse" id="gradient17" r="819.2" spreadMethod="pad">
      <stop offset="0.0" stop-color="#4c4c4c"/>
      <stop offset="1.0" stop-color="#151515"/>
    </radialGradient>
    <radialGradient cx="0" cy="0" gradientTransform="matrix(0.1216, 0.0, 0.0, 0.1216, -238.8, -109.4)" gradientUnits="userSpaceOnUse" id="gradient18" r="819.2" spreadMethod="pad">
      <stop offset="0.0" stop-color="#686868"/>
      <stop offset="1.0" stop-color="#000000"/>
    </radialGradient>
    <radialGradient cx="0" cy="0" gradientTransform="matrix(0.0495, 0.0, 0.0, 0.0495, -313.1, -68.85)" gradientUnits="userSpaceOnUse" id="gradient19" r="819.2" spreadMethod="pad">
      <stop offset="0.0" stop-color="#484848"/>
      <stop offset="1.0" stop-color="#131313"/>
    </radialGradient>
    <radialGradient cx="0" cy="0" gradientTransform="matrix(0.0301, 0.0, 0.0, 0.0301, -80.2, -144.9)" gradientUnits="userSpaceOnUse" id="gradient20" r="819.2" spreadMethod="pad">
      <stop offset="0.0" stop-color="#3f3f3f"/>
      <stop offset="1.0" stop-color="#282828"/>
    </radialGradient>
    <radialGradient cx="0" cy="0" gradientTransform="matrix(0.0565, 0.0, 0.0, 0.0565, -93.45, -151.8)" gradientUnits="userSpaceOnUse" id="gradient21" r="819.2" spreadMethod="pad">
      <stop offset="0.0" stop-color="#3c3c3c"/>
      <stop offset="1.0" stop-color="#000000"/>
    </radialGradient>
    <radialGradient cx="0" cy="0" gradientTransform="matrix(0.0704, 0.0, 0.0, 0.0704, -80.2, -144.9)" gradientUnits="userSpaceOnUse" id="gradient22" r="819.2" spreadMethod="pad">
      <stop offset="0.0" stop-color="#3f3f3f"/>
      <stop offset="1.0" stop-color="#000000"/>
    </radialGradient>
    <radialGradient cx="0" cy="0" gradientTransform="matrix(0.0893, 0.0, 0.0, 0.0893, -61.05, -129.25)" gradientUnits="userSpaceOnUse" id="gradient23" r="819.2" spreadMethod="pad">
      <stop offset="0.0" stop-color="#575757"/>
      <stop offset="1.0" stop-color="#191919"/>
    </radialGradient>
    <radialGradient cx="0" cy="0" gradientTransform="matrix(0.0932, 0.0, 0.0, 0.0932, -89.65, -87.75)" gradientUnits="userSpaceOnUse" id="gradient24" r="819.2" spreadMethod="pad">
      <stop offset="0.0" stop-color="#2f2f2f"/>
      <stop offset="1.0" stop-color="#000000"/>
    </radialGradient>
    <radialGradient cx="0" cy="0" gradientTransform="matrix(0.0343, 0.0, 0.0, 0.0343, -18.2, -82.6)" gradientUnits="userSpaceOnUse" id="gradient25" r="819.2" spreadMethod="pad">
      <stop offset="0.0" stop-color="#262626"/>
      <stop offset="1.0" stop-color="#000000"/>
    </radialGradient>
    <radialGradient cx="0" cy="0" gradientTransform="matrix(0.069, 0.0, 0.0, 0.069, -353.45, -72.1)" gradientUnits="userSpaceOnUse" id="gradient26" r="819.2" spreadMethod="pad">
      <stop offset="0.0" stop-color="#323232"/>
      <stop offset="1.0" stop-color="#060606"/>
    </radialGradient>
    <radialGradient cx="0" cy="0" gradientTransform="matrix(0.0656, 0.0, 0.0, 0.0656, -353.45, -72.1)" gradientUnits="userSpaceOnUse" id="gradient27" r="819.2" spreadMethod="pad">
      <stop offset="0.0" stop-color="#323232"/>
      <stop offset="1.0" stop-color="#000000"/>
    </radialGradient>
    <radialGradient cx="0" cy="0" gradientTransform="matrix(0.0392, 0.0, 0.0, 0.0392, -189.65, -77.05)" gradientUnits="userSpaceOnUse" id="gradient28" r="819.2" spreadMethod="pad">
      <stop offset="0.0" stop-color="#171717"/>
      <stop offset="1.0" stop-color="#000000"/>
    </radialGradient>
    <radialGradient cx="0" cy="0" gradientTransform="matrix(0.043, 0.0, 0.0, 0.043, -217.9, -71.9)" gradientUnits="userSpaceOnUse" id="gradient29" r="819.2" spreadMethod="pad">
      <stop offset="0.0" stop-color="#848484"/>
      <stop offset="1.0" stop-color="#070707"/>
    </radialGradient>
    <radialGradient cx="0" cy="0" gradientTransform="matrix(0.024, 0.0, 0.0, 0.024, -73.3, -71.8)" gradientUnits="userSpaceOnUse" id="gradient30" r="819.2" spreadMethod="pad">
      <stop offset="0.0" stop-color="#6a6a6a"/>
      <stop offset="1.0" stop-color="#000000"/>
    </radialGradient>
    <radialGradient cx="0" cy="0" gradientTransform="matrix(0.0219, 0.0, 0.0, 0.0219, -31.75, -66.85)" gradientUnits="userSpaceOnUse" id="gradient31" r="819.2" spreadMethod="pad">
      <stop offset="0.0" stop-color="#000000"/>
      <stop offset="1.0" stop-color="#000000"/>
    </radialGradient>
    <radialGradient cx="0" cy="0" gradientTransform="matrix(0.0826, 0.0, 0.0, 0.0826, -48.2, -13.75)" gradientUnits="userSpaceOnUse" id="gradient32" r="819.2" spreadMethod="pad">
      <stop offset="0.0" stop-color="#292929"/>
      <stop offset="1.0" stop-color="#000000"/>
    </radialGradient>
    <radialGradient cx="0" cy="0" gradientTransform="matrix(0.1065, 0.0, 0.0, 0.1065, -313.1, -68.85)" gradientUnits="userSpaceOnUse" id="gradient33" r="819.2" spreadMethod="pad">
      <stop offset="0.0" stop-color="#484848"/>
      <stop offset="1.0" stop-color="#000000"/>
    </radialGradient>
    <radialGradient cx="0" cy="0" gradientTransform="matrix(0.0375, 0.0, 0.0, 0.0375, -56.45, -1.0)" gradientUnits="userSpaceOnUse" id="gradient34" r="819.2" spreadMethod="pad">
      <stop offset="0.0" stop-color="#2f2f2f"/>
      <stop offset="1.0" stop-color="#060606"/>
    </radialGradient>
    <radialGradient cx="0" cy="0" gradientTransform="matrix(0.0314, 0.0, 0.0, 0.0314, -48.2, -13.75)" gradientUnits="userSpaceOnUse" id="gradient35" r="819.2" spreadMethod="pad">
      <stop offset="0.0" stop-color="#292929"/>
      <stop offset="1.0" stop-color="#000000"/>
    </radialGradient>
    <radialGradient cx="0" cy="0" gradientTransform="matrix(0.0502, 0.0, 0.0, 0.0502, -48.2, -13.75)" gradientUnits="userSpaceOnUse" id="gradient36" r="819.2" spreadMethod="pad">
      <stop offset="0.0" stop-color="#292929"/>
      <stop offset="1.0" stop-color="#010101"/>
    </radialGradient>
    <radialGradient cx="0" cy="0" gradientTransform="matrix(0.0209, 0.0, 0.0, 0.0209, -50.1, -54.85)" gradientUnits="userSpaceOnUse" id="gradient37" r="819.2" spreadMethod="pad">
      <stop offset="0.0" stop-color="#010101"/>
      <stop offset="1.0" stop-color="#000000"/>
    </radialGradient>
    <radialGradient cx="0" cy="0" gradientTransform="matrix(0.011, 0.0, 0.0, 0.011, -50.1, -54.85)" gradientUnits="userSpaceOnUse" id="gradient38" r="819.2" spreadMethod="pad">
      <stop offset="0.0" stop-color="#010101"/>
      <stop offset="1.0" stop-color="#000000"/>
    </radialGradient>
    <radialGradient cx="0" cy="0" gradientTransform="matrix(0.0743, 0.0, 0.0, 0.0743, -159.7, -15.2)" gradientUnits="userSpaceOnUse" id="gradient39" r="819.2" spreadMethod="pad">
      <stop offset="0.0" stop-color="#3e3e3e"/>
      <stop offset="1.0" stop-color="#1b1b1b"/>
    </radialGradient>
  </defs>
</svg>
