<?xml version="1.0" encoding="UTF-8" standalone="no"?>
<svg xmlns:xlink="http://www.w3.org/1999/xlink" height="299.1px" width="385.1px" xmlns="http://www.w3.org/2000/svg">
  <g transform="matrix(1.0, 0.0, 0.0, 1.0, 386.0, 300.0)">
    <path d="M-347.9 -197.65 L-348.0 -199.15 -347.65 -199.0 -347.25 -197.65 -347.9 -197.65 M-356.9 -216.15 L-364.4 -220.5 -370.75 -230.25 -379.5 -247.15 -380.15 -247.65 -376.15 -208.75 -376.5 -208.75 -386.0 -247.75 -380.25 -292.0 -379.9 -292.9 -379.65 -293.25 -379.4 -293.5 -379.15 -293.9 -374.65 -300.0 -364.65 -300.0 -367.15 -293.75 -370.9 -270.4 -376.65 -270.75 -377.25 -268.75 -376.15 -242.15 -375.4 -240.25 -365.9 -238.0 -362.65 -238.0 -361.65 -230.0 -356.9 -216.15 M-362.4 -268.9 L-363.5 -269.65 -360.25 -276.0 -362.4 -268.9" fill="url(#gradient0)" fill-rule="evenodd" stroke="none"/>
    <path d="M-364.65 -300.0 L-174.15 -300.0 -164.25 -279.65 -159.75 -242.5 -166.75 -207.25 -184.25 -176.5 -210.5 -154.25 -224.9 -153.9 -234.25 -155.0 -240.65 -160.65 -245.4 -164.75 -264.15 -158.9 -250.5 -174.25 -270.5 -175.15 -264.15 -159.25 -264.4 -159.0 -292.15 -176.65 -332.15 -200.15 -355.4 -235.5 -360.75 -243.75 -356.75 -268.65 -353.25 -290.0 -353.75 -289.65 -360.25 -276.0 -363.5 -269.65 -363.9 -268.9 -365.25 -265.65 -374.25 -245.9 -374.75 -245.5 -370.9 -270.4 -367.15 -293.75 -364.65 -300.0" fill="url(#gradient1)" fill-rule="evenodd" stroke="none"/>
    <path d="M-291.5 -158.4 Q-320.65 -165.25 -336.25 -184.9 -333.65 -186.9 -334.65 -189.0 L-336.75 -189.9 -338.65 -192.15 -342.9 -196.0 -344.25 -196.65 -345.4 -196.4 -345.75 -196.75 -347.25 -197.65 -347.65 -199.0 -348.0 -199.15 -355.0 -211.25 -356.9 -216.15 -361.65 -230.0 -362.65 -238.0 -361.75 -238.0 -361.4 -239.4 -360.15 -236.4 -355.4 -235.5 -332.15 -200.15 -292.15 -176.65 -264.4 -159.0 -264.15 -159.25 -270.5 -175.15 -250.5 -174.25 -264.15 -158.9 -245.4 -164.75 -240.65 -160.65 -244.5 -159.25 -250.5 -158.0 -255.15 -157.15 -261.4 -156.15 -269.15 -155.75 -276.65 -156.15 -276.75 -155.9 -284.4 -156.9 -291.5 -158.4 M-360.25 -276.0 L-353.75 -289.65 -353.25 -290.0 -356.75 -268.65 -362.25 -268.75 -362.4 -268.9 -360.25 -276.0" fill="url(#gradient2)" fill-rule="evenodd" stroke="none"/>
    <path d="M-356.75 -268.65 L-360.75 -243.75 -355.4 -235.5 -360.15 -236.4 -361.4 -239.4 -363.15 -244.5 -363.65 -245.65 -364.0 -244.5 -365.9 -238.0 -375.4 -240.25 -376.15 -242.15 -377.25 -268.75 -376.65 -270.75 -370.9 -270.4 -374.75 -245.5 -374.25 -245.9 -365.25 -265.65 -364.4 -263.75 -364.0 -263.65 -362.65 -268.65 -362.25 -268.75 -356.75 -268.65" fill="url(#gradient3)" fill-rule="evenodd" stroke="none"/>
    <path d="M-362.4 -268.9 L-363.9 -268.9 -363.5 -269.65 -362.4 -268.9" fill="url(#gradient4)" fill-rule="evenodd" stroke="none"/>
    <path d="M-362.25 -268.75 L-362.65 -268.65 -364.0 -263.65 -364.4 -263.75 -365.25 -265.65 -363.9 -268.9 -362.4 -268.9 -362.25 -268.75" fill="url(#gradient5)" fill-rule="evenodd" stroke="none"/>
    <path d="M-379.15 -293.9 L-375.4 -300.0 -374.65 -300.0 -379.15 -293.9" fill="url(#gradient6)" fill-rule="evenodd" stroke="none"/>
    <path d="M-365.9 -238.0 L-364.0 -244.5 -363.15 -244.5 -361.4 -239.4 -361.75 -238.0 -362.65 -238.0 -365.9 -238.0" fill="url(#gradient7)" fill-rule="evenodd" stroke="none"/>
    <path d="M-364.0 -244.5 L-363.65 -245.65 -363.15 -244.5 -364.0 -244.5" fill="url(#gradient8)" fill-rule="evenodd" stroke="none"/>
    <path d="M-348.65 -196.75 L-348.5 -197.4 -347.9 -197.65 -347.25 -197.65 -345.75 -196.75 -345.4 -196.4 -344.25 -196.65 -342.9 -196.0 -338.65 -192.15 -336.75 -189.9 -338.65 -190.25 -338.75 -190.4 Q-338.65 -191.0 -340.9 -193.0 L-343.9 -195.4 -345.25 -195.9 -345.5 -195.5 -346.0 -195.65 -347.65 -196.9 -348.65 -196.75" fill="url(#gradient9)" fill-rule="evenodd" stroke="none"/>
    <path d="M-347.25 -193.9 L-348.9 -194.65 -348.65 -196.75 -347.65 -196.9 -346.0 -195.65 -345.5 -195.5 -345.25 -195.9 -343.9 -195.4 -340.9 -193.0 Q-338.65 -191.0 -338.75 -190.4 L-339.4 -190.65 -339.9 -190.75 -340.15 -190.9 -340.4 -191.0 -340.65 -191.15 -340.9 -191.25 -341.15 -191.4 -341.5 -191.5 -341.75 -191.65 -342.15 -191.75 -342.4 -191.75 -342.5 -191.9 -342.75 -192.0 -343.0 -192.15 -345.15 -193.0 -345.4 -193.15 -345.75 -193.25 -346.0 -193.4 -346.4 -193.5 -346.65 -193.65 -347.0 -193.75 -347.25 -193.9" fill="url(#gradient10)" fill-rule="evenodd" stroke="none"/>
    <path d="M-336.25 -184.9 L-336.75 -184.65 -338.4 -184.9 -336.65 -185.15 -335.5 -186.4 -335.65 -188.65 -347.15 -193.4 -347.25 -193.9 -347.0 -193.75 -346.65 -193.65 -346.4 -193.5 -346.0 -193.4 -345.75 -193.25 -345.4 -193.15 -345.15 -193.0 -343.0 -192.15 -342.75 -192.0 -342.5 -191.9 -342.4 -191.75 -342.15 -191.75 -341.75 -191.65 -341.5 -191.5 -341.15 -191.4 -340.9 -191.25 -340.65 -191.15 -340.4 -191.0 -340.15 -190.9 -339.9 -190.75 -339.4 -190.65 -338.75 -190.4 -338.65 -190.25 -336.75 -189.9 -334.65 -189.0 Q-333.65 -186.9 -336.25 -184.9" fill="url(#gradient11)" fill-rule="evenodd" stroke="none"/>
    <path d="M-338.4 -184.9 L-342.9 -188.5 -347.15 -193.4 -335.65 -188.65 -335.5 -186.4 -336.65 -185.15 -338.4 -184.9" fill="url(#gradient12)" fill-rule="evenodd" stroke="none"/>
    <path d="M-250.5 -158.0 L-250.65 -157.25 -244.75 -151.15 -228.15 -141.15 -225.25 -140.0 -224.15 -137.0 -234.4 -134.65 -273.9 -144.65 -271.0 -149.4 -268.25 -145.65 Q-260.4 -144.65 -257.5 -147.15 L-257.0 -147.4 -256.65 -148.5 -260.75 -153.4 -255.15 -154.15 -255.15 -157.15 -250.5 -158.0" fill="url(#gradient13)" fill-rule="evenodd" stroke="none"/>
    <path d="M-269.15 -155.75 L-261.4 -156.15 -255.15 -157.15 -255.15 -154.15 -260.75 -153.4 -256.65 -148.5 -257.0 -147.4 -257.5 -147.15 Q-260.4 -144.65 -268.25 -145.65 L-271.0 -149.4 -271.0 -150.9 -269.15 -155.75" fill="url(#gradient14)" fill-rule="evenodd" stroke="none"/>
    <path d="M-276.75 -155.9 L-276.65 -156.15 -269.15 -155.75 -271.0 -150.9 -276.75 -155.9" fill="url(#gradient15)" fill-rule="evenodd" stroke="none"/>
    <path d="M-309.75 -144.0 L-309.5 -144.15 -309.25 -144.4 -302.9 -148.25 -292.15 -155.65 -291.9 -155.75 -291.5 -158.4 -284.4 -156.9 -276.75 -155.9 -271.0 -150.9 -271.0 -149.4 -273.9 -144.65 -286.15 -132.4 -302.15 -133.4 -315.25 -140.65 -310.0 -143.9 -309.75 -144.0" fill="url(#gradient16)" fill-rule="evenodd" stroke="none"/>
    <path d="M-309.9 -144.15 L-309.75 -144.0 -310.0 -143.9 -309.9 -144.15" fill="url(#gradient17)" fill-rule="evenodd" stroke="none"/>
    <path d="M-315.9 -138.65 L-315.9 -138.9 -315.75 -138.9 -315.75 -139.5 -315.5 -140.0 -315.75 -138.9 -315.9 -138.65 M-315.25 -140.65 L-315.15 -141.65 -309.9 -144.15 -310.0 -143.9 -315.25 -140.65" fill="url(#gradient18)" fill-rule="evenodd" stroke="none"/>
    <path d="M-273.9 -144.65 L-234.4 -134.65 -286.15 -132.4 -273.9 -144.65" fill="url(#gradient19)" fill-rule="evenodd" stroke="none"/>
    <path d="M-216.15 -109.4 L-208.4 -100.65 -227.4 -106.0 -235.75 -104.5 -249.4 -95.9 -254.25 -120.75 -254.25 -121.4 -254.75 -121.65 -286.0 -132.25 -286.15 -132.4 -234.4 -134.65 -234.15 -134.4 -233.9 -134.0 -229.75 -123.9 -216.15 -109.4" fill="url(#gradient20)" fill-rule="evenodd" stroke="none"/>
    <path d="M-315.25 -140.4 L-315.25 -140.65 -302.15 -133.4 -286.15 -132.4 -286.0 -132.25 -285.9 -131.5 -287.4 -131.4 -286.0 -129.75 -285.65 -87.0 -290.0 -74.4 Q-294.15 -82.4 -300.9 -84.5 L-311.65 -86.15 -314.9 -87.15 -318.4 -86.4 Q-330.75 -78.4 -337.15 -62.5 L-337.5 -64.25 -333.0 -71.5 -329.65 -80.5 Q-325.65 -96.75 -328.15 -99.0 L-325.65 -104.15 -325.5 -104.4 -324.9 -106.65 -324.75 -106.9 -324.75 -107.25 -324.65 -107.5 -324.5 -108.15 -324.4 -108.4 -324.4 -108.5 -324.15 -109.25 -317.5 -132.65 -315.25 -140.4 M-288.5 -6.65 L-287.15 -5.25 -292.75 -5.9 -288.5 -6.65 M-318.5 -11.9 L-312.25 -8.5 -307.65 -7.25 -314.9 -7.9 -318.5 -11.9" fill="url(#gradient21)" fill-rule="evenodd" stroke="none"/>
    <path d="M-315.5 -140.0 L-315.25 -140.4 -317.5 -132.65 -315.9 -138.65 -315.75 -138.9 -315.5 -140.0" fill="url(#gradient22)" fill-rule="evenodd" stroke="none"/>
    <path d="M-224.15 -137.0 L-220.0 -115.0 -233.9 -134.0 -234.15 -134.4 -234.4 -134.65 -224.15 -137.0 M-253.75 -62.0 L-249.65 -53.4 -238.25 -34.75 -229.75 -24.75 -232.15 -22.75 -245.15 -16.25 -287.15 -5.25 -288.5 -6.65 -284.15 -7.65 -279.25 -10.5 Q-276.0 -14.75 -276.65 -15.65 L-267.75 -22.75 -262.75 -29.65 -261.9 -31.9 -260.75 -40.0 -261.75 -47.25 -262.65 -49.65 -267.75 -55.25 -269.9 -56.4 -270.5 -57.15 -272.5 -63.65 -278.0 -69.9 -279.75 -71.4 -283.0 -73.25 -289.5 -73.9 -289.9 -73.9 -290.0 -74.4 -285.65 -87.0 -286.0 -129.75 -285.0 -129.75 -266.15 -83.75 -260.25 -61.0 -259.75 -60.75 -253.75 -62.0" fill="url(#gradient23)" fill-rule="evenodd" stroke="none"/>
    <path d="M-220.0 -115.0 L-216.15 -109.4 -229.75 -123.9 -233.9 -134.0 -220.0 -115.0" fill="url(#gradient24)" fill-rule="evenodd" stroke="none"/>
    <path d="M-286.0 -132.25 L-254.75 -121.65 -254.25 -121.4 -254.25 -120.75 -259.15 -99.15 -257.15 -68.75 -260.25 -61.0 -266.15 -83.75 -285.0 -129.75 -284.65 -130.65 -283.4 -130.75 -284.15 -131.0 -285.9 -131.5 -286.0 -132.25" fill="url(#gradient25)" fill-rule="evenodd" stroke="none"/>
    <path d="M-285.9 -131.5 L-284.15 -131.0 -287.4 -131.4 -285.9 -131.5" fill="url(#gradient26)" fill-rule="evenodd" stroke="none"/>
    <path d="M-287.4 -131.4 L-284.15 -131.0 -283.4 -130.75 -284.65 -130.65 -285.0 -129.75 -286.0 -129.75 -287.4 -131.4" fill="url(#gradient27)" fill-rule="evenodd" stroke="none"/>
    <path d="M-318.65 -129.65 L-318.5 -129.9 -315.9 -138.65 -317.5 -132.65 -324.15 -109.25 -328.9 -108.15 -337.15 -104.5 -333.65 -107.75 -331.25 -111.4 -331.0 -111.65 -330.4 -112.5 -330.4 -112.65 -319.15 -127.75 -318.9 -128.25 -318.65 -129.25 -318.65 -129.65" fill="url(#gradient28)" fill-rule="evenodd" stroke="none"/>
    <path d="M-328.5 -115.4 L-318.65 -129.65 -318.65 -129.25 -318.9 -128.25 -319.15 -127.75 -330.4 -112.65 -330.15 -113.15 -328.5 -115.4" fill="url(#gradient29)" fill-rule="evenodd" stroke="none"/>
    <path d="M-329.5 -114.15 L-329.5 -114.25 -329.25 -114.5 -328.5 -115.4 -330.15 -113.15 -329.5 -114.15" fill="url(#gradient30)" fill-rule="evenodd" stroke="none"/>
    <path d="M-338.25 -103.75 L-329.5 -114.15 -330.15 -113.15 -330.4 -112.65 -330.4 -112.5 -331.0 -111.65 -331.25 -111.4 -333.65 -107.75 -337.15 -104.5 -338.25 -103.75" fill="url(#gradient31)" fill-rule="evenodd" stroke="none"/>
    <path d="M-335.75 -33.15 L-343.65 -37.9 Q-349.9 -42.9 -352.75 -48.65 L-355.4 -55.75 -356.65 -60.4 -357.9 -68.5 Q-357.0 -91.15 -338.25 -103.75 L-337.15 -104.5 -328.9 -108.15 -324.15 -109.25 -324.4 -108.5 -324.4 -108.4 -324.5 -108.15 -324.65 -107.5 -324.75 -107.25 -324.75 -106.9 -324.9 -106.65 -325.5 -104.4 -325.65 -104.15 -328.15 -99.0 Q-325.65 -96.75 -329.65 -80.5 L-333.0 -71.5 -337.5 -64.25 -337.15 -62.5 Q-342.15 -49.25 -335.75 -33.15" fill="url(#gradient32)" fill-rule="evenodd" stroke="none"/>
    <path d="M-254.25 -120.75 L-249.4 -95.9 -259.15 -99.15 -254.25 -120.75" fill="url(#gradient33)" fill-rule="evenodd" stroke="none"/>
    <path d="M-205.5 -4.0 L-221.15 -16.25 -226.0 -20.4 -229.75 -24.75 -238.25 -34.75 -249.65 -53.4 -253.75 -62.0 -257.15 -68.75 -259.15 -99.15 -249.4 -95.9 -229.5 -69.65 -218.25 -53.65 -195.9 -19.4 -205.5 -4.0" fill="url(#gradient34)" fill-rule="evenodd" stroke="none"/>
    <path d="M-257.15 -68.75 L-253.75 -62.0 -259.75 -60.75 -260.25 -61.0 -257.15 -68.75" fill="url(#gradient35)" fill-rule="evenodd" stroke="none"/>
    <path d="M-64.0 -116.9 L-62.0 -117.65 -47.65 -119.15 -48.65 -118.9 -74.0 -109.15 -87.4 -108.0 -84.5 -109.15 -84.15 -109.25 -64.0 -116.9" fill="url(#gradient36)" fill-rule="evenodd" stroke="none"/>
    <path d="M-47.65 -119.15 L-72.75 -109.4 -74.0 -109.15 -48.65 -118.9 -47.65 -119.15" fill="url(#gradient37)" fill-rule="evenodd" stroke="none"/>
    <path d="M-64.0 -116.9 L-84.15 -109.25 -84.5 -109.15 -87.4 -108.0 -87.75 -107.9 -87.9 -107.75 -88.4 -107.5 -93.75 -107.75 -72.5 -115.75 -69.15 -117.0 -64.0 -116.9" fill="url(#gradient38)" fill-rule="evenodd" stroke="none"/>
    <path d="M-72.5 -115.75 L-93.75 -107.75 -95.25 -106.65 -100.4 -106.5 -76.0 -115.65 -72.5 -115.75" fill="url(#gradient39)" fill-rule="evenodd" stroke="none"/>
    <path d="M-77.65 -117.15 L-76.0 -115.65 -100.4 -106.5 -102.25 -108.15 -77.65 -117.15" fill="url(#gradient40)" fill-rule="evenodd" stroke="none"/>
    <path d="M-81.65 -119.9 L-81.0 -119.9 -77.65 -117.15 -102.25 -108.15 -105.9 -111.0 -81.65 -119.9" fill="url(#gradient41)" fill-rule="evenodd" stroke="none"/>
    <path d="M-107.65 -111.0 L-84.65 -119.5 -81.65 -119.9 -105.9 -111.0 -107.65 -111.0" fill="url(#gradient42)" fill-rule="evenodd" stroke="none"/>
    <path d="M-72.75 -109.4 L-71.25 -109.15 -70.0 -107.65 -66.5 -92.9 -66.5 -92.5 -66.4 -92.25 -65.9 -78.25 -65.5 -77.9 -65.65 -77.25 -65.0 -77.65 -64.9 -77.15 -68.25 -77.15 -68.5 -77.0 -68.65 -78.15 -68.65 -79.15 -69.0 -82.75 -69.0 -83.5 -69.15 -83.9 -69.75 -93.0 -70.25 -93.15 -67.25 -93.15 -67.15 -93.4 -67.25 -93.5 -68.25 -97.75 -68.25 -97.9 -68.4 -98.25 -68.4 -98.4 -68.65 -99.15 -70.75 -107.65 -72.75 -108.9 -73.5 -109.15 -74.0 -109.15 -72.75 -109.4 M-93.75 -107.75 L-88.4 -107.5 -85.65 -77.9 -87.65 -78.0 -87.65 -78.4 -87.75 -79.4 -87.75 -79.75 -87.9 -80.4 -87.9 -81.4 -88.5 -87.4 -88.5 -87.75 -88.65 -88.4 -88.65 -89.0 -88.75 -89.4 -90.5 -106.75 -91.25 -106.9 -88.5 -78.0 -90.15 -78.0 -90.15 -78.4 -90.5 -82.0 Q-90.15 -87.9 -91.9 -88.15 L-91.0 -78.15 -92.65 -78.15 -92.65 -79.0 -92.75 -79.4 -93.65 -88.4 -94.4 -88.5 -93.4 -78.15 -94.9 -78.25 -94.9 -78.65 -96.15 -89.25 -96.9 -89.4 -95.75 -78.25 -97.65 -78.4 -97.65 -78.9 -98.0 -82.9 Q-97.75 -89.0 -99.25 -89.25 L-98.5 -78.4 -100.15 -78.5 -100.15 -78.65 -100.25 -79.4 -100.25 -79.9 -100.4 -80.15 -100.65 -82.75 -100.65 -83.15 -100.75 -83.5 -101.65 -90.5 -102.25 -90.65 -102.4 -89.5 -101.65 -86.0 -101.0 -78.5 -102.75 -78.65 -102.5 -79.15 -102.65 -80.0 -102.9 -83.4 -102.9 -83.75 -103.0 -84.25 -103.25 -86.9 -103.25 -87.15 -103.65 -92.15 -104.4 -92.15 -104.4 -89.5 -104.0 -88.75 -103.4 -78.65 -107.25 -78.75 -107.5 -79.25 -107.65 -83.65 -107.75 -84.4 -107.75 -86.0 -107.9 -86.4 -108.65 -98.5 -108.75 -99.25 -108.65 -99.9 -108.4 -100.4 -107.75 -101.0 -107.4 -102.0 -107.65 -103.65 -108.0 -104.9 -108.4 -105.0 -107.9 -106.25 -107.15 -106.5 -107.25 -106.5 -107.9 -110.0 -108.0 -111.0 -107.65 -111.0 -105.9 -111.0 -102.25 -108.15 -100.4 -106.5 -95.25 -106.65 -93.75 -107.75 M-110.75 -85.15 L-116.25 -94.9 -116.65 -95.75 -116.75 -95.9 -116.4 -96.75 -114.65 -96.9 -115.9 -97.0 -116.15 -97.15 -115.75 -97.75 -116.65 -97.75 -115.65 -97.9 -115.65 -98.4 -115.0 -98.15 -115.25 -98.65 -112.15 -98.9 -111.4 -98.9 -111.0 -99.0 -110.75 -99.0 -110.65 -98.65 -110.75 -98.4 -110.9 -98.15 -110.9 -97.4 -110.75 -97.0 -110.9 -96.9 -111.0 -96.25 -111.0 -95.9 -111.0 -95.75 -111.0 -95.4 -111.25 -95.25 -111.15 -94.9 -111.15 -94.5 -111.0 -94.25 -110.9 -88.9 -110.9 -87.25 -111.0 -86.9 -110.9 -86.75 -110.75 -85.9 -110.75 -85.15 M-117.65 -97.25 L-117.75 -97.5 -117.75 -97.9 -117.4 -98.75 -117.0 -98.75 -117.4 -97.9 -116.75 -98.65 -117.0 -98.0 -117.1 -97.85 -116.75 -97.65 -117.65 -97.25 M-117.9 -98.15 L-118.0 -98.5 -117.9 -98.75 -117.75 -98.9 -117.5 -99.25 -117.5 -99.15 -117.9 -98.15 M-71.25 -77.25 L-71.4 -78.15 -71.4 -78.65 -71.5 -79.0 -71.75 -83.15 -71.9 -83.5 -71.9 -83.9 -72.65 -92.15 -72.9 -93.15 -73.5 -92.9 Q-72.75 -88.65 -73.25 -88.0 L-72.9 -87.5 -73.0 -84.9 -72.25 -77.4 -74.0 -77.4 -74.0 -77.5 -74.15 -78.5 -74.15 -79.25 -75.4 -93.15 -72.9 -93.15 -70.65 -93.15 -69.5 -77.25 -71.25 -77.25 M-65.9 -89.15 L-66.15 -87.75 -66.0 -90.5 -65.9 -89.15 M-65.75 -86.9 L-65.65 -85.0 -65.9 -84.0 -65.75 -86.9 -65.9 -88.25 -65.75 -88.0 -65.75 -86.9 M-65.5 -82.65 L-65.4 -82.25 -65.4 -81.9 -65.5 -82.65 M-83.75 -93.25 L-81.75 -93.25 -80.5 -77.65 -82.25 -77.75 -82.4 -78.4 -82.4 -78.75 -82.5 -79.15 -82.75 -82.4 -82.75 -82.9 -82.9 -83.25 -83.75 -93.25 M-81.0 -93.25 L-79.15 -93.25 -77.9 -77.65 -79.4 -77.65 -79.65 -78.5 -79.65 -79.4 -80.0 -82.9 -80.0 -83.4 -80.15 -83.75 -80.9 -92.65 -81.0 -93.25 M-78.4 -93.25 L-76.25 -93.15 -75.0 -77.4 -76.9 -77.5 -76.9 -77.75 -77.25 -82.15 -77.25 -82.5 -77.4 -83.0 -78.4 -93.25 M-84.65 -93.25 L-83.25 -77.75 -84.75 -77.9 -84.75 -78.4 -84.9 -79.4 -84.9 -79.75 -85.0 -80.4 -85.0 -81.0 -85.15 -81.4 -85.15 -82.4 -85.9 -89.25 -85.9 -89.75 -86.0 -90.25 -86.0 -91.0 -86.15 -91.25 -86.25 -93.25 -84.65 -93.25 M-91.15 -91.0 L-91.65 -91.15 -92.0 -91.15 -92.15 -90.0 -91.15 -89.9 -90.9 -90.4 -90.9 -90.45 -90.75 -90.9 -91.15 -91.0 M-112.15 -98.9 L-114.65 -98.4 -115.15 -97.9 -114.5 -98.0 -114.25 -96.9 -114.0 -97.15 -114.15 -96.75 -113.65 -96.75 -113.75 -96.4 -113.65 -96.15 -113.25 -96.4 -113.5 -96.15 -113.25 -96.0 -112.9 -96.25 -113.15 -96.15 -113.15 -96.65 -113.4 -96.5 -114.5 -98.25 -113.7 -98.2 -113.9 -98.15 -113.65 -98.0 -113.4 -97.9 -113.45 -98.15 -111.25 -98.0 -110.9 -98.75 -112.15 -98.9 M-110.5 -98.0 L-110.4 -98.4 -110.25 -98.0 -110.25 -97.9 -110.25 -96.9 -110.65 -95.75 -110.65 -96.25 -110.65 -96.5 -110.65 -96.65 -110.65 -97.0 -110.5 -97.15 -110.5 -97.25 -110.4 -97.75 -110.5 -98.0 M-114.75 -94.0 L-115.0 -93.75 -114.5 -93.65 -114.25 -93.9 -114.75 -94.0 M-114.5 -95.65 L-115.15 -95.5 -114.4 -95.65 -114.25 -95.15 -113.5 -95.4 -114.15 -95.4 -114.4 -96.65 -114.5 -95.65 M-111.5 -94.75 L-111.5 -95.15 -111.9 -95.15 -111.5 -94.75 M-112.65 -95.9 L-112.9 -96.15 -113.25 -95.65 -112.9 -95.5 -112.65 -95.9 M-114.5 -96.5 L-114.4 -96.75 -114.75 -96.65 -114.5 -96.5 M-114.15 -94.5 L-115.75 -94.4 -114.0 -94.15 -114.15 -94.5 M-113.65 -91.25 L-113.15 -91.65 -113.9 -91.65 -113.65 -91.25 M-110.75 -87.4 L-110.75 -86.75 -110.9 -87.15 -110.75 -87.4 M-111.0 -96.25 L-111.65 -95.75 -111.15 -95.75 -111.0 -96.25 M-108.4 -80.5 L-108.5 -81.0 -107.75 -80.15 -108.25 -80.0 -108.4 -80.5 M-110.15 -83.0 L-110.0 -83.5 -109.75 -83.0 -110.15 -83.0 M-117.3 -97.75 L-117.65 -98.0 -117.65 -97.5 -117.3 -97.75" fill="url(#gradient43)" fill-rule="evenodd" stroke="none"/>
    <path d="M-107.9 -106.25 L-107.25 -106.5 -107.15 -106.5 -107.9 -106.25" fill="url(#gradient44)" fill-rule="evenodd" stroke="none"/>
    <path d="M-46.15 -118.5 L-46.4 -118.4 -46.5 -118.4 -47.25 -118.15 -47.4 -118.0 -47.5 -118.0 -47.9 -117.9 -48.0 -117.75 -48.15 -117.75 -48.9 -117.5 -49.0 -117.4 -49.15 -117.4 -49.9 -117.15 -50.0 -117.0 -50.15 -117.0 -50.9 -116.75 -51.0 -116.65 -51.15 -116.65 -51.9 -116.4 -52.0 -116.25 -52.15 -116.25 -52.5 -116.15 -52.65 -116.0 -52.75 -116.0 -53.5 -115.75 -53.65 -115.65 -53.75 -115.65 -54.5 -115.4 -54.65 -115.25 -54.75 -115.25 -55.5 -115.0 -55.65 -114.9 -55.75 -114.9 -56.15 -114.75 -56.25 -114.65 -56.4 -114.65 -57.15 -114.4 -57.25 -114.25 -57.4 -114.25 -58.15 -114.0 -58.25 -113.9 -58.4 -113.9 -59.15 -113.65 -59.25 -113.5 -59.4 -113.5 -59.75 -113.4 -59.9 -113.25 -60.0 -113.25 -60.75 -113.0 -60.9 -112.9 -61.0 -112.9 -61.75 -112.65 -61.9 -112.5 -62.0 -112.5 -62.75 -112.25 -62.9 -112.15 -63.0 -112.15 -64.4 -111.65 -64.5 -111.5 -64.65 -111.5 -65.4 -111.25 -65.5 -111.15 -65.65 -111.15 -66.4 -110.9 -66.5 -110.75 -66.65 -110.75 -67.5 -110.5 -67.5 -110.4 -67.65 -110.4 -68.15 -110.25 -68.15 -110.15 -68.25 -110.15 -71.25 -109.15 -72.75 -109.4 -47.65 -119.15 -45.65 -118.75 -45.75 -118.65 -46.0 -118.65 -46.15 -118.5" fill="url(#gradient45)" fill-rule="evenodd" stroke="none"/>
    <path d="M-68.25 -110.15 L-68.15 -110.15 -68.15 -110.25 -67.65 -110.4 -67.5 -110.4 -67.5 -110.5 -66.65 -110.75 -66.5 -110.75 -66.4 -110.9 -65.65 -111.15 -65.5 -111.15 -65.4 -111.25 -64.65 -111.5 -64.5 -111.5 -64.4 -111.65 -63.0 -112.15 -62.9 -112.15 -62.75 -112.25 -62.0 -112.5 -61.9 -112.5 -61.75 -112.65 -61.0 -112.9 -60.9 -112.9 -60.75 -113.0 -60.0 -113.25 -59.9 -113.25 -59.75 -113.4 -59.4 -113.5 -59.25 -113.5 -59.15 -113.65 -58.4 -113.9 -58.25 -113.9 -58.15 -114.0 -57.4 -114.25 -57.25 -114.25 -57.15 -114.4 -56.4 -114.65 -56.25 -114.65 -56.15 -114.75 -55.75 -114.9 -55.65 -114.9 -55.5 -115.0 -54.75 -115.25 -54.65 -115.25 -54.5 -115.4 -53.75 -115.65 -53.65 -115.65 -53.5 -115.75 -52.75 -116.0 -52.65 -116.0 -52.5 -116.15 -52.15 -116.25 -52.0 -116.25 -51.9 -116.4 -51.15 -116.65 -51.0 -116.65 -50.9 -116.75 -50.15 -117.0 -50.0 -117.0 -49.9 -117.15 -49.15 -117.4 -49.0 -117.4 -48.9 -117.5 -48.15 -117.75 -48.0 -117.75 -47.9 -117.9 -47.5 -118.0 -47.4 -118.0 -47.25 -118.15 -46.5 -118.4 -46.4 -118.4 -46.15 -118.5 -46.0 -118.5 -46.0 -118.65 -45.75 -118.65 -45.65 -118.65 -45.65 -118.75 -1.25 -121.9 -0.9 -121.9 -0.9 -112.5 -70.5 -109.15 -70.15 -109.4 -68.25 -110.15" fill="url(#gradient46)" fill-rule="evenodd" stroke="none"/>
    <path d="M-70.5 -109.15 L-0.9 -112.5 -0.9 -96.9 -32.5 -96.5 -36.65 -96.75 -38.9 -97.25 -39.25 -97.4 -39.4 -97.4 -43.75 -99.5 -47.25 -102.4 -47.4 -102.65 -47.65 -102.9 -47.75 -103.15 -48.5 -103.9 -48.5 -104.0 -48.65 -104.0 -49.15 -104.9 -49.25 -105.15 -49.75 -105.9 -68.9 -105.25 -69.65 -107.75 -70.5 -109.15" fill="url(#gradient47)" fill-rule="evenodd" stroke="none"/>
    <path d="M-46.15 -118.5 L-46.0 -118.65 -46.0 -118.5 -46.15 -118.5 M-45.75 -118.65 L-45.65 -118.75 -45.65 -118.65 -45.75 -118.65 M-71.25 -109.15 L-68.25 -110.15 -70.15 -109.4 -70.5 -109.15 -69.65 -107.75 -70.0 -107.65 -71.25 -109.15" fill="url(#gradient48)" fill-rule="evenodd" stroke="none"/>
    <path d="M-87.4 -108.0 L-74.0 -109.15 -73.5 -109.15 -72.75 -108.9 -70.75 -107.65 -68.65 -99.15 -68.4 -98.4 -68.4 -98.25 -68.25 -97.9 -68.25 -97.75 -67.25 -93.5 -67.15 -93.4 -67.25 -93.15 -70.25 -93.15 -70.65 -93.15 -72.9 -93.15 -75.4 -93.15 -76.25 -93.15 -78.4 -93.25 -79.15 -93.25 -81.0 -93.25 -81.75 -93.25 -83.75 -93.25 -84.65 -93.25 -86.25 -93.25 -87.75 -107.0 -87.9 -107.75 -87.75 -107.9 -87.4 -108.0" fill="url(#gradient49)" fill-rule="evenodd" stroke="none"/>
    <path d="M-70.25 -93.15 L-69.75 -93.0 -69.15 -83.9 -69.0 -83.5 -69.0 -82.75 -69.15 -82.5 -68.65 -79.15 -68.65 -78.15 -68.5 -77.0 -69.5 -77.25 -70.65 -93.15 -70.25 -93.15" fill="url(#gradient50)" fill-rule="evenodd" stroke="none"/>
    <path d="M-75.4 -93.15 L-74.15 -79.25 -74.15 -78.5 -74.0 -77.5 -74.0 -77.4 -74.0 -77.25 -75.0 -77.4 -76.25 -93.15 -75.4 -93.15" fill="url(#gradient51)" fill-rule="evenodd" stroke="none"/>
    <path d="M-79.15 -93.25 L-78.4 -93.25 -77.4 -83.0 -77.25 -82.5 -77.25 -82.15 -76.9 -77.75 -76.9 -77.5 -76.9 -77.4 -77.9 -77.65 -79.15 -93.25" fill="url(#gradient52)" fill-rule="evenodd" stroke="none"/>
    <path d="M-80.5 -77.65 L-81.75 -93.25 -81.0 -93.25 -80.9 -92.65 -80.15 -83.75 -80.0 -83.4 -80.0 -82.9 -80.0 -80.5 -79.65 -79.4 -79.65 -78.5 -79.4 -77.65 -79.5 -77.5 -80.5 -77.65" fill="url(#gradient53)" fill-rule="evenodd" stroke="none"/>
    <path d="M-83.75 -93.25 L-82.9 -83.25 -82.75 -82.9 -82.75 -82.4 -82.5 -79.15 -82.4 -78.75 -82.4 -78.4 -82.25 -77.75 -83.25 -77.75 -84.65 -93.25 -83.75 -93.25" fill="url(#gradient54)" fill-rule="evenodd" stroke="none"/>
    <path d="M-88.4 -107.5 L-87.9 -107.75 -87.75 -107.0 -86.25 -93.25 -86.15 -91.25 -86.0 -91.0 -86.0 -90.25 -85.9 -89.75 -85.9 -89.25 -85.5 -83.5 -85.15 -82.4 -85.15 -81.4 -85.0 -81.0 -85.0 -80.4 -84.9 -79.75 -84.9 -79.4 -84.75 -78.4 -84.75 -77.9 -84.75 -77.75 -85.65 -77.9 -88.4 -107.5" fill="url(#gradient55)" fill-rule="evenodd" stroke="none"/>
    <path d="M-329.0 -20.25 L-333.5 -27.15 -335.75 -33.15 Q-342.15 -49.25 -337.15 -62.5 -330.75 -78.4 -318.4 -86.4 L-314.9 -87.15 -311.65 -86.15 -300.9 -84.5 Q-294.15 -82.4 -290.0 -74.4 L-289.9 -73.9 -289.5 -73.9 -283.0 -73.25 -279.75 -71.4 -278.0 -69.9 -272.5 -63.65 -270.5 -57.15 -269.9 -56.4 -267.75 -55.25 -262.65 -49.65 -261.75 -47.25 -260.75 -40.0 -261.9 -31.9 -262.75 -29.65 -267.75 -22.75 -276.65 -15.65 Q-276.0 -14.75 -279.25 -10.5 L-284.15 -7.65 -288.5 -6.65 -292.75 -5.9 -301.15 -6.0 -307.65 -7.25 -312.25 -8.5 -318.5 -11.9 -323.75 -15.5 -328.65 -20.0 -329.0 -20.25" fill="url(#gradient56)" fill-rule="evenodd" stroke="none"/>
    <path d="M-66.5 -92.9 L-70.0 -107.65 -69.65 -107.75 -68.9 -105.25 -66.5 -95.75 -66.4 -95.5 -66.0 -93.65 -66.25 -93.4 -66.5 -92.9" fill="url(#gradient57)" fill-rule="evenodd" stroke="none"/>
    <path d="M-87.65 -77.9 L-88.5 -78.0 -91.25 -106.9 -90.5 -106.75 -88.75 -89.4 -88.65 -89.0 -88.65 -88.4 -88.5 -87.75 -88.5 -87.4 -88.25 -82.4 -87.9 -81.4 -87.9 -80.4 -87.75 -79.75 -87.75 -79.4 -87.65 -78.4 -87.65 -78.0 -87.65 -77.9" fill="url(#gradient58)" fill-rule="evenodd" stroke="none"/>
    <path d="M-88.5 -87.4 L-87.9 -81.4 -88.25 -82.4 -88.5 -87.4" fill="url(#gradient59)" fill-rule="evenodd" stroke="none"/>
    <path d="M-68.9 -105.25 L-49.75 -105.9 -49.25 -105.15 -49.15 -104.9 -48.65 -104.0 -48.5 -103.9 -47.75 -103.15 -47.65 -102.9 -47.4 -102.65 -47.25 -102.4 -44.15 -99.4 -39.4 -97.4 -39.25 -97.4 -38.9 -97.25 -36.65 -96.75 -32.5 -96.5 -0.9 -96.9 -0.9 -96.15 -12.95 -95.75 -25.0 -95.45 -58.25 -94.75 -61.5 -94.9 -63.75 -95.0 -65.65 -95.25 -65.75 -95.25 -66.0 -95.5 -66.4 -95.5 -66.5 -95.75 -68.9 -105.25" fill="url(#gradient60)" fill-rule="evenodd" stroke="none"/>
    <path d="M-0.9 -95.9 L-0.9 -90.9 -57.4 -90.25 -62.5 -90.5 -64.75 -91.4 -66.0 -92.9 -66.25 -93.4 -66.0 -93.65 -66.4 -95.5 -66.0 -95.5 -65.75 -95.25 -65.65 -95.25 -64.25 -94.65 -63.15 -94.65 -58.25 -94.75 -25.0 -95.45 -12.95 -95.75 -0.9 -95.9" fill="url(#gradient61)" fill-rule="evenodd" stroke="none"/>
    <path d="M-66.25 -93.4 L-66.0 -92.9 -66.5 -92.9 -66.25 -93.4" fill="url(#gradient62)" fill-rule="evenodd" stroke="none"/>
    <path d="M-48.65 -104.0 L-48.5 -104.0 -48.5 -103.9 -48.65 -104.0 M-47.25 -102.4 L-43.75 -99.5 -39.4 -97.4 -44.15 -99.4 -47.25 -102.4" fill="url(#gradient63)" fill-rule="evenodd" stroke="none"/>
    <path d="M-109.75 -102.4 L-109.25 -104.15 -109.0 -104.75 -108.4 -105.0 -108.0 -104.9 -107.65 -103.65 -107.4 -102.0 -107.75 -101.0 -108.4 -100.4 -108.65 -99.9 -108.75 -99.25 -108.65 -98.5 -107.9 -86.4 -107.75 -86.0 -107.75 -84.4 -107.65 -83.65 -107.5 -79.25 -107.25 -78.75 -108.4 -79.0 -108.4 -79.65 -108.5 -79.75 -108.4 -80.15 -108.4 -80.5 -108.25 -80.0 -107.75 -80.15 -108.5 -81.0 -108.65 -81.5 -108.5 -82.15 -108.65 -82.4 -108.65 -83.4 -108.75 -83.75 -108.75 -84.65 -108.9 -85.15 -108.9 -85.75 -109.0 -86.4 -109.0 -87.0 -109.15 -87.75 -109.15 -88.25 -109.25 -89.15 -109.25 -89.5 -109.75 -94.15 -109.75 -94.5 -109.9 -95.0 -110.25 -96.9 -110.25 -97.9 -110.15 -97.75 -110.25 -98.0 -110.4 -98.4 -110.4 -98.75 -110.25 -98.75 -110.25 -99.25 -110.4 -99.25 -110.0 -100.9 -109.75 -102.0 -109.75 -102.4 M-109.9 -96.5 L-110.0 -96.9 -109.9 -96.0 -109.9 -96.5" fill="url(#gradient64)" fill-rule="evenodd" stroke="none"/>
    <path d="M-0.9 -90.9 L-0.9 -90.25 -55.65 -90.0 -60.0 -89.9 -62.5 -90.5 -57.4 -90.25 -0.9 -90.9 M-35.4 -43.5 L-35.65 -43.4 -35.9 -43.25 -36.15 -43.15 -36.65 -43.15 -36.5 -43.4 -36.15 -44.15 -36.4 -44.25 -36.5 -45.5 -36.9 -45.65 -38.0 -49.75 -35.4 -43.5 M-94.9 -40.65 Q-95.65 -53.5 -97.05 -59.75 L-96.4 -58.0 -95.75 -54.0 -93.15 -53.65 -92.75 -53.75 -93.0 -54.25 -93.0 -54.4 -93.15 -54.9 -93.25 -55.65 -93.25 -55.75 Q-93.9 -58.75 -94.8 -61.4 -98.6 -73.2 -105.15 -75.65 L-105.15 -75.75 -107.5 -76.65 -108.75 -74.9 -114.65 -75.25 -116.9 -74.75 -117.5 -73.9 Q-118.65 -76.5 -110.5 -80.4 L-110.4 -80.4 -109.5 -79.4 -108.4 -79.0 -107.25 -78.75 -103.4 -78.65 -102.75 -78.65 -101.0 -78.5 -100.15 -78.5 -98.5 -78.4 -97.65 -78.4 -95.75 -78.25 -94.9 -78.25 -93.4 -78.15 -92.65 -78.15 -91.0 -78.15 -90.15 -78.0 -88.5 -78.0 -87.65 -77.9 -86.75 -74.25 -85.75 -73.65 -85.65 -72.65 -84.9 -72.5 -84.75 -71.65 -84.65 -71.65 -83.75 -71.25 -83.5 -70.25 -74.65 -69.65 -74.65 -70.4 -73.9 -70.75 -74.0 -71.4 -74.0 -71.9 -72.75 -72.15 -72.9 -72.65 -72.9 -72.9 -72.75 -73.15 -71.75 -73.15 -70.65 -69.15 -67.15 -69.0 -65.9 -68.15 -63.25 -68.0 -65.25 -66.4 -65.25 -66.25 -65.0 -65.75 -65.0 -65.4 -65.75 -64.65 Q-67.15 -53.4 -58.15 -47.4 L-55.4 -46.5 -44.15 -45.25 -40.75 -45.25 -40.4 -46.25 -40.5 -51.65 -40.0 -49.9 -39.5 -47.5 -39.5 -45.65 -39.65 -45.15 -39.65 -45.0 -40.0 -44.15 -40.5 -44.15 -53.9 -45.4 -54.15 -45.4 -60.0 -47.9 -61.0 -48.5 -61.15 -48.25 -61.15 -47.25 -60.25 -46.75 -60.15 -46.5 Q-65.25 -43.0 -63.0 -39.0 L-61.5 -27.65 Q-70.4 -40.15 -80.25 -37.75 L-80.15 -38.4 -81.25 -38.65 -93.25 -39.75 -94.75 -39.4 -94.9 -40.65 M-106.65 -71.9 L-108.9 -72.25 -107.15 -72.25 -106.65 -71.9 M-40.0 -64.25 L-40.0 -64.4 -39.15 -67.25 -37.9 -69.75 -36.65 -71.4 -34.9 -72.75 -32.0 -73.75 -20.15 -73.4 -31.15 -73.5 Q-34.25 -72.15 -36.0 -69.9 -40.15 -65.5 -39.25 -54.65 L-39.65 -54.9 -40.25 -57.9 -40.25 -58.15 -40.4 -58.9 -40.4 -59.25 -40.5 -59.9 -40.5 -60.25 -40.75 -61.0 -40.5 -61.75 -40.5 -62.0 -40.15 -63.75 -40.15 -64.0 -40.0 -64.25 M-63.75 -95.0 L-61.5 -94.9 -63.15 -94.65 -63.75 -95.0 M-58.0 -51.9 L-58.15 -52.25 -58.0 -52.5 -59.75 -55.75 -61.9 -61.75 -61.9 -62.0 -62.15 -63.4 -62.15 -63.75 -62.25 -64.75 -62.25 -65.25 -62.15 -67.0 -62.15 -68.0 -62.65 -68.25 Q-60.75 -69.1 -58.9 -70.0 L-52.65 -69.4 -52.4 -69.25 -52.15 -69.0 -50.65 -68.25 -50.4 -68.15 -50.15 -67.9 -47.9 -66.75 -47.25 -65.75 -46.9 -64.85 Q-48.95 -69.45 -61.25 -68.0 -63.4 -63.5 -58.0 -52.5 L-57.5 -51.75 -58.0 -51.9 M-63.25 -57.0 L-62.9 -56.15 -63.0 -56.15 -63.4 -56.9 -63.25 -57.0 M-62.15 -54.75 L-61.9 -54.15 -62.0 -54.35 -62.15 -54.75 M-41.15 -53.9 L-41.25 -54.0 -41.25 -54.25 -41.5 -55.0 -43.15 -59.0 -43.5 -60.25 -45.4 -61.4 -46.65 -63.75 -46.75 -64.5 -46.15 -63.75 -46.0 -63.5 -45.4 -62.9 -45.25 -62.65 -43.65 -61.65 -43.65 -61.5 -43.5 -61.25 -43.15 -60.65 -41.25 -55.25 -41.15 -53.9 M-57.4 -51.5 L-56.9 -50.65 -57.65 -51.25 -57.4 -51.5 M-59.75 -46.4 L-59.65 -46.4 -59.4 -46.25 -59.15 -46.0 -58.9 -45.9 -58.65 -45.75 -58.5 -45.75 -58.4 -45.5 -58.15 -45.4 -58.4 -45.4 -58.4 -45.5 -59.65 -46.15 -59.75 -46.4 M-56.4 -44.9 L-49.0 -44.0 -54.9 -44.4 -56.4 -44.9" fill="url(#gradient65)" fill-rule="evenodd" stroke="none"/>
    <path d="M-110.5 -80.4 L-110.5 -83.5 -110.65 -84.0 -110.75 -85.15 -110.75 -85.9 -110.75 -86.75 -110.75 -87.4 -110.9 -88.9 -111.0 -94.25 -110.9 -94.65 -111.0 -94.65 -110.9 -95.0 -110.75 -95.4 -110.9 -95.4 -111.0 -95.75 -111.0 -95.9 -110.9 -96.0 -110.65 -95.75 -110.25 -96.9 -109.9 -95.0 -109.75 -94.5 -109.75 -94.15 -109.25 -89.5 -109.25 -89.15 -109.15 -88.25 -109.15 -87.75 -109.0 -87.0 -109.0 -86.4 -108.9 -85.75 -108.9 -85.15 -108.75 -84.65 -108.75 -83.75 -108.65 -83.4 -108.65 -82.4 -108.5 -82.15 -108.65 -81.5 -108.65 -81.0 -108.5 -81.0 -108.4 -80.5 -108.4 -80.15 -108.5 -79.75 -108.4 -79.65 -108.4 -79.0 -109.5 -79.4 -110.4 -80.4 -110.5 -80.4 M-110.75 -99.0 L-110.4 -99.25 -110.25 -99.25 -110.25 -98.75 -110.4 -98.75 -110.4 -98.4 -110.5 -98.0 -110.9 -97.4 -110.75 -98.4 -110.65 -98.65 -110.75 -99.0 M-110.65 -97.0 L-110.65 -96.65 -110.75 -97.0 -110.65 -97.0 M-110.65 -96.5 L-110.65 -96.25 -110.9 -96.4 -110.65 -96.5 M-110.9 -87.15 L-110.9 -87.25 -110.75 -87.4 -110.9 -87.15 M-110.15 -83.0 L-109.75 -83.0 -110.0 -83.5 -110.15 -83.0" fill="url(#gradient66)" fill-rule="evenodd" stroke="none"/>
    <path d="M-109.9 -96.5 L-109.9 -96.0 -110.0 -96.9 -109.9 -96.5 M-108.65 -81.5 L-108.5 -81.0 -108.65 -81.0 -108.65 -81.5" fill="url(#gradient67)" fill-rule="evenodd" stroke="none"/>
    <path d="M-110.25 -97.9 L-110.25 -98.0 -110.15 -97.75 -110.25 -97.9" fill="url(#gradient68)" fill-rule="evenodd" stroke="none"/>
    <path d="M-110.75 -99.0 L-111.0 -99.0 -111.4 -98.9 -112.15 -98.9 -115.25 -98.65 -110.0 -100.9 -110.4 -99.25 -110.75 -99.0" fill="url(#gradient69)" fill-rule="evenodd" stroke="none"/>
    <path d="M-117.15 -99.65 L-109.75 -102.4 -109.75 -102.0 -110.0 -100.9 -115.25 -98.65 -117.15 -99.65" fill="url(#gradient70)" fill-rule="evenodd" stroke="none"/>
    <path d="M-117.75 -97.9 L-117.9 -98.15 -117.5 -99.15 -117.15 -99.65 -115.25 -98.65 -115.0 -98.15 -115.65 -98.4 -115.65 -97.9 -116.65 -97.75 -115.75 -97.75 -116.15 -97.15 -115.9 -97.0 -114.65 -96.9 -116.4 -96.75 -116.75 -95.9 -117.15 -96.65 -117.25 -96.9 -117.4 -97.0 -117.65 -97.25 -116.75 -97.65 -117.1 -97.85 -117.0 -98.0 -116.75 -98.65 -117.4 -97.9 -117.0 -98.75 -117.4 -98.75 -117.75 -97.9 M-112.15 -98.9 L-110.9 -98.75 -111.25 -98.0 -113.45 -98.15 -113.4 -97.9 -113.65 -98.0 -113.9 -98.15 -113.7 -98.2 -114.5 -98.25 -113.4 -96.5 -113.15 -96.65 -113.15 -96.15 -112.9 -96.25 -113.25 -96.0 -113.5 -96.15 -113.25 -96.4 -113.65 -96.15 -113.75 -96.4 -113.65 -96.75 -114.15 -96.75 -114.0 -97.15 -114.25 -96.9 -114.5 -98.0 -115.15 -97.9 -114.65 -98.4 -112.15 -98.9 M-110.9 -97.4 L-110.5 -98.0 -110.4 -97.75 -110.5 -97.25 -110.5 -97.15 -110.65 -97.0 -110.75 -97.0 -110.65 -96.65 -110.65 -96.5 -110.9 -96.9 -110.75 -97.0 -110.9 -97.4 M-114.5 -96.5 L-114.75 -96.65 -114.4 -96.75 -114.5 -96.5 M-112.65 -95.9 L-112.9 -95.5 -113.25 -95.65 -112.9 -96.15 -112.65 -95.9 M-111.5 -94.75 L-111.9 -95.15 -111.5 -95.15 -111.5 -94.75 M-114.5 -95.65 L-114.4 -96.65 -114.15 -95.4 -113.5 -95.4 -114.25 -95.15 -114.4 -95.65 -115.15 -95.5 -114.5 -95.65 M-114.75 -94.0 L-114.25 -93.9 -114.5 -93.65 -115.0 -93.75 -114.75 -94.0 M-114.15 -94.5 L-114.0 -94.15 -115.75 -94.4 -114.15 -94.5 M-113.65 -91.25 L-113.9 -91.65 -113.15 -91.65 -113.65 -91.25 M-111.0 -95.4 L-111.15 -94.9 -111.25 -95.25 -111.0 -95.4 M-111.0 -96.25 L-111.15 -95.75 -111.65 -95.75 -111.0 -96.25 M-117.3 -97.75 L-117.65 -97.5 -117.65 -98.0 -117.3 -97.75" fill="url(#gradient71)" fill-rule="evenodd" stroke="none"/>
    <path d="M-116.25 -94.9 L-116.75 -95.9 -117.65 -97.25 -117.4 -97.0 -117.25 -96.9 -117.15 -96.65 -116.75 -95.9 -116.65 -95.75 -116.25 -94.9 M-117.9 -98.75 L-117.9 -98.9 -117.75 -98.9 -117.9 -98.75" fill="url(#gradient72)" fill-rule="evenodd" stroke="none"/>
    <path d="M-110.75 -98.4 L-110.9 -97.4 -110.9 -98.15 -110.75 -98.4 M-110.9 -96.4 L-110.9 -96.0 -111.0 -95.9 -111.0 -96.25 -110.9 -96.9 -110.65 -96.5 -110.9 -96.4 M-111.0 -95.4 L-111.0 -95.75 -110.9 -95.4 -110.9 -95.0 -111.0 -94.65 -111.0 -94.25 -111.15 -94.5 -111.15 -94.9 -111.0 -95.4 M-110.9 -88.9 L-110.75 -87.4 -110.9 -87.25 -110.9 -88.9 M-110.75 -86.75 L-110.75 -85.9 -110.9 -86.75 -111.0 -86.9 -110.9 -87.15 -110.75 -86.75" fill="url(#gradient73)" fill-rule="evenodd" stroke="none"/>
    <path d="M-110.65 -96.25 L-110.65 -95.75 -110.9 -96.0 -110.9 -96.4 -110.65 -96.25 M-111.0 -94.25 L-111.0 -94.65 -110.9 -94.65 -111.0 -94.25 M-110.9 -95.0 L-110.9 -95.4 -110.75 -95.4 -110.9 -95.0" fill="url(#gradient74)" fill-rule="evenodd" stroke="none"/>
    <path d="M-12.95 -95.75 L-0.9 -96.15 -0.9 -95.9 -12.95 -95.75 M-58.25 -94.75 L-63.15 -94.65 -61.5 -94.9 -58.25 -94.75" fill="url(#gradient75)" fill-rule="evenodd" stroke="none"/>
    <path d="M-208.4 -100.65 L-196.4 -86.15 -177.65 -60.25 -157.25 -33.9 -179.15 -28.75 -195.9 -19.4 -218.25 -53.65 -229.5 -69.65 -249.4 -95.9 -235.75 -104.5 -227.4 -106.0 -208.4 -100.65" fill="url(#gradient76)" fill-rule="evenodd" stroke="none"/>
    <path d="M-157.25 -33.9 L-150.65 -28.25 -166.5 -23.0 -170.9 -12.15 -195.9 -19.4 -179.15 -28.75 -157.25 -33.9" fill="url(#gradient77)" fill-rule="evenodd" stroke="none"/>
    <path d="M-63.15 -94.65 L-64.25 -94.65 -65.65 -95.25 -63.75 -95.0 -63.15 -94.65" fill="url(#gradient78)" fill-rule="evenodd" stroke="none"/>
    <path d="M-66.4 -92.25 L-66.5 -92.5 -66.5 -92.9 -66.0 -92.9 -64.75 -91.4 -62.5 -90.5 -60.0 -89.9 -55.65 -90.0 -55.9 -89.75 Q-64.65 -88.65 -66.4 -92.25" fill="url(#gradient79)" fill-rule="evenodd" stroke="none"/>
    <path d="M-0.9 -90.25 L-0.9 -89.75 -55.9 -89.75 -55.65 -90.0 -0.9 -90.25" fill="url(#gradient80)" fill-rule="evenodd" stroke="none"/>
    <path d="M-64.9 -77.15 L-65.0 -77.65 -65.65 -77.25 -65.5 -77.9 -65.9 -78.25 -66.4 -92.25 Q-64.65 -88.65 -55.9 -89.75 L-0.9 -89.75 -0.9 -75.5 -64.9 -77.15 M-65.9 -89.15 L-66.0 -90.5 -66.15 -87.75 -65.9 -89.15 M-65.75 -86.9 L-65.9 -84.0 -65.65 -85.0 -65.75 -86.9 -65.75 -88.0 -65.9 -88.25 -65.75 -86.9 M-65.5 -82.65 L-65.4 -81.9 -65.4 -82.25 -65.5 -82.65" fill="url(#gradient81)" fill-rule="evenodd" stroke="none"/>
    <path d="M-68.5 -77.0 L-68.25 -77.15 -64.9 -77.15 -0.9 -75.5 -0.9 -73.0 -14.15 -73.25 -15.15 -73.25 -16.5 -73.4 -20.15 -73.4 -32.0 -73.75 -34.9 -72.75 -36.65 -71.4 -37.9 -69.75 -39.15 -67.25 -40.0 -64.4 -40.0 -64.25 -40.4 -64.15 -40.15 -64.0 -40.15 -63.75 -40.5 -62.0 -40.5 -61.75 -40.9 -61.5 -40.75 -61.0 -40.9 -60.9 -43.15 -60.65 -43.25 -60.9 -41.9 -61.25 -43.4 -61.25 -43.65 -61.65 -45.25 -62.65 -45.4 -62.9 -46.0 -63.5 -46.15 -63.75 -47.25 -65.75 -47.9 -66.75 -50.15 -67.9 -50.4 -68.15 -50.65 -68.25 -52.15 -69.0 -52.4 -69.25 -52.65 -69.4 -58.9 -70.0 Q-60.75 -69.1 -62.65 -68.25 L-62.9 -68.25 -63.25 -68.0 -65.9 -68.15 -67.15 -69.0 -70.65 -69.15 -71.75 -73.15 -72.75 -73.15 -73.15 -73.0 -72.9 -72.9 -72.9 -72.65 -72.75 -72.15 -74.0 -71.9 -74.0 -71.4 -73.9 -70.75 -74.65 -70.4 -74.65 -69.65 -83.5 -70.25 -83.75 -71.25 -84.65 -71.65 -84.75 -71.65 -84.9 -72.5 -85.65 -72.65 -85.75 -73.65 -86.75 -74.25 -87.65 -77.9 -87.65 -78.0 -85.65 -77.9 -84.75 -77.75 -84.75 -77.9 -83.25 -77.75 -82.25 -77.75 -80.5 -77.65 -79.5 -77.5 -79.4 -77.65 -77.9 -77.65 -76.9 -77.4 -76.9 -77.5 -75.0 -77.4 -74.0 -77.25 -74.0 -77.4 -72.25 -77.4 -71.4 -77.15 -71.25 -77.25 -69.5 -77.25 -68.5 -77.0" fill="url(#gradient82)" fill-rule="evenodd" stroke="none"/>
    <path d="M-69.0 -82.75 L-68.65 -79.15 -69.15 -82.5 -69.0 -82.75" fill="url(#gradient83)" fill-rule="evenodd" stroke="none"/>
    <path d="M-72.25 -77.4 L-73.0 -84.9 -72.9 -87.5 -73.25 -88.0 Q-72.75 -88.65 -73.5 -92.9 L-72.9 -93.15 -72.65 -92.15 -71.9 -83.9 -71.9 -83.5 -71.75 -83.15 -71.5 -79.0 -71.4 -78.65 -71.4 -78.15 -71.25 -77.25 -71.4 -77.15 -72.25 -77.4" fill="url(#gradient84)" fill-rule="evenodd" stroke="none"/>
    <path d="M-90.9 -90.45 L-90.9 -90.4 -91.15 -89.9 -92.15 -90.0 -92.0 -91.15 -91.65 -91.15 -91.15 -91.0 -90.9 -90.45" fill="url(#gradient85)" fill-rule="evenodd" stroke="none"/>
    <path d="M-91.15 -91.0 L-90.75 -90.9 -90.9 -90.45 -91.15 -91.0" fill="url(#gradient86)" fill-rule="evenodd" stroke="none"/>
    <path d="M-85.9 -89.25 L-85.15 -82.4 -85.5 -83.5 -85.9 -89.25" fill="url(#gradient87)" fill-rule="evenodd" stroke="none"/>
    <path d="M-110.9 -87.15 L-111.0 -86.9 -110.9 -87.25 -110.9 -87.15" fill="url(#gradient88)" fill-rule="evenodd" stroke="none"/>
    <path d="M-102.75 -78.65 L-103.4 -78.65 -104.0 -88.75 -104.4 -89.5 -104.4 -92.15 -103.65 -92.15 -103.25 -87.15 -103.25 -86.9 -103.0 -84.25 -102.9 -83.75 -102.9 -83.4 -102.65 -80.0 -102.5 -79.15 -102.75 -78.65" fill="url(#gradient89)" fill-rule="evenodd" stroke="none"/>
    <path d="M-98.75 -64.0 L-98.75 -64.15 -99.75 -65.5 -99.9 -65.65 -100.45 -66.45 -101.5 -68.0 -103.4 -69.75 -103.5 -69.75 -104.0 -70.25 -104.4 -70.4 -104.5 -70.65 -104.65 -70.65 -105.15 -71.0 -105.25 -71.15 -105.65 -71.25 -105.65 -71.4 -106.5 -71.75 -106.65 -71.9 -107.15 -72.25 -108.9 -72.25 -109.9 -72.25 -110.75 -72.4 -116.65 -72.5 -117.25 -72.9 -117.4 -73.15 -117.4 -73.25 -117.5 -73.75 -117.5 -73.9 -116.9 -74.75 -114.65 -75.25 -108.75 -74.9 -107.5 -76.65 -105.15 -75.75 -105.15 -75.65 Q-98.1 -70.95 -94.8 -61.4 -93.9 -58.75 -93.25 -55.75 L-93.25 -55.65 -93.15 -54.9 -93.0 -54.4 -93.0 -54.25 -93.15 -53.65 -95.75 -54.0 -96.4 -58.0 -97.75 -62.4 -98.75 -64.0" fill="url(#gradient90)" fill-rule="evenodd" stroke="none"/>
    <path d="M-105.15 -75.65 Q-98.6 -73.2 -94.8 -61.4 -98.1 -70.95 -105.15 -75.65 M-93.0 -54.25 L-92.75 -53.75 -93.15 -53.65 -93.0 -54.25" fill="url(#gradient91)" fill-rule="evenodd" stroke="none"/>
    <path d="M-100.15 -78.5 L-101.0 -78.5 -101.65 -86.0 -102.4 -89.5 -102.25 -90.65 -101.65 -90.5 -100.75 -83.5 -100.65 -83.15 -100.65 -82.75 -100.4 -80.15 -100.25 -79.9 -100.25 -79.4 -100.15 -78.65 -100.15 -78.5" fill="url(#gradient92)" fill-rule="evenodd" stroke="none"/>
    <path d="M-80.0 -82.9 L-79.65 -79.4 -80.0 -80.5 -80.0 -82.9" fill="url(#gradient93)" fill-rule="evenodd" stroke="none"/>
    <path d="M-94.9 -78.25 L-95.75 -78.25 -96.9 -89.4 -96.15 -89.25 -94.9 -78.65 -94.9 -78.25" fill="url(#gradient94)" fill-rule="evenodd" stroke="none"/>
    <path d="M-92.65 -78.15 L-93.4 -78.15 -94.4 -88.5 -93.65 -88.4 -92.75 -79.4 -92.65 -79.0 -92.65 -78.15" fill="url(#gradient95)" fill-rule="evenodd" stroke="none"/>
    <path d="M-97.65 -78.4 L-98.5 -78.4 -99.25 -89.25 Q-97.75 -89.0 -98.0 -82.9 L-97.65 -78.9 -97.65 -78.4" fill="url(#gradient96)" fill-rule="evenodd" stroke="none"/>
    <path d="M-90.15 -78.0 L-91.0 -78.15 -91.9 -88.15 Q-90.15 -87.9 -90.5 -82.0 L-90.15 -78.4 -90.15 -78.0" fill="url(#gradient97)" fill-rule="evenodd" stroke="none"/>
    <path d="M-14.15 -73.25 Q-16.25 -65.15 -10.5 -55.15 L-12.75 -54.0 -14.65 -53.15 -14.9 -53.0 -16.25 -52.4 -16.5 -52.25 -17.9 -51.65 -18.15 -51.5 -21.65 -49.9 -21.9 -49.75 -23.25 -49.15 -23.5 -49.0 -27.0 -47.4 -27.25 -47.25 -28.65 -46.65 -28.9 -46.5 -30.25 -45.9 -30.5 -45.75 -32.4 -44.9 -32.65 -44.75 -35.4 -43.5 -38.0 -49.75 -39.25 -54.65 Q-40.15 -65.5 -36.0 -69.9 -34.25 -72.15 -31.15 -73.5 L-20.15 -73.4 -16.5 -73.4 -15.15 -73.25 -14.15 -73.25" fill="url(#gradient98)" fill-rule="evenodd" stroke="none"/>
    <path d="M-40.75 -61.0 L-40.5 -60.25 -40.9 -60.9 -40.75 -61.0 M-40.25 -57.9 L-39.65 -54.9 -39.25 -54.65 -38.0 -49.75 -36.9 -45.65 -36.5 -45.5 -36.4 -44.25 -36.15 -44.15 -36.5 -43.4 -36.75 -43.5 -36.4 -44.25 -36.75 -44.65 -36.9 -45.65 -38.4 -48.75 -39.65 -54.9 -40.15 -55.5 -40.25 -57.9" fill="url(#gradient99)" fill-rule="evenodd" stroke="none"/>
    <path d="M-40.0 -64.25 L-40.15 -64.0 -40.4 -64.15 -40.0 -64.25 M-40.5 -61.75 L-40.75 -61.0 -40.9 -61.5 -40.5 -61.75" fill="url(#gradient100)" fill-rule="evenodd" stroke="none"/>
    <path d="M-72.9 -72.9 L-73.15 -73.0 -72.75 -73.15 -72.9 -72.9" fill="url(#gradient101)" fill-rule="evenodd" stroke="none"/>
    <path d="M-62.9 -68.25 L-62.75 -68.15 -62.65 -68.15 -62.15 -68.0 -62.15 -67.0 -62.5 -66.5 -62.25 -65.25 -62.25 -64.75 -62.15 -63.75 -62.15 -63.4 -61.9 -62.0 -61.9 -61.75 Q-60.75 -55.4 -58.15 -52.25 L-58.0 -51.9 -57.65 -51.25 -57.0 -49.65 -57.5 -50.25 -57.65 -50.5 -58.0 -50.75 -58.15 -50.9 -58.25 -51.4 -58.4 -51.15 -58.75 -51.25 -59.0 -51.65 -58.75 -51.75 -59.4 -52.0 -58.9 -52.15 -59.15 -52.4 -59.25 -52.4 -59.5 -52.15 -59.65 -52.5 -59.4 -52.75 -59.9 -52.9 -59.9 -53.25 -60.25 -53.4 -60.75 -54.0 -60.5 -54.25 -61.25 -54.9 -61.25 -55.0 -61.4 -55.15 -61.0 -55.4 -61.15 -55.4 -61.4 -56.15 -62.0 -56.25 -62.15 -56.75 -62.4 -57.15 -61.9 -57.25 -62.15 -57.5 -62.4 -57.4 -62.4 -57.9 -62.65 -57.75 -62.4 -58.0 -62.5 -58.5 -63.0 -58.5 -62.65 -58.75 -63.15 -59.0 -63.4 -59.65 -62.9 -59.75 -63.5 -59.9 -63.25 -60.25 -63.15 -60.5 -63.25 -60.65 -63.65 -61.5 -64.0 -61.25 -63.75 -61.65 -64.0 -61.5 -64.25 -62.15 -64.25 -63.15 -64.65 -63.5 -64.25 -63.75 -64.75 -64.25 -65.0 -65.4 -65.0 -65.75 -65.25 -66.25 -65.25 -66.4 -63.25 -68.0 -62.9 -68.25" fill="url(#gradient102)" fill-rule="evenodd" stroke="none"/>
    <path d="M-62.65 -68.15 L-62.75 -68.15 -62.9 -68.25 -62.65 -68.25 -62.65 -68.15" fill="url(#gradient103)" fill-rule="evenodd" stroke="none"/>
    <path d="M-46.75 -64.5 L-46.9 -64.85 -47.25 -65.75 -46.15 -63.75 -46.75 -64.5" fill="url(#gradient104)" fill-rule="evenodd" stroke="none"/>
    <path d="M-97.05 -59.75 L-98.75 -64.0 -97.75 -62.4 -96.4 -58.0 -97.05 -59.75 M-100.45 -66.45 L-103.4 -69.75 -101.5 -68.0 -100.45 -66.45" fill="url(#gradient105)" fill-rule="evenodd" stroke="none"/>
    <path d="M-62.15 -68.0 L-62.65 -68.15 -62.65 -68.25 -62.15 -68.0" fill="url(#gradient106)" fill-rule="evenodd" stroke="none"/>
    <path d="M-57.0 -49.65 L-57.65 -51.25 -58.0 -51.9 -57.5 -51.75 -57.4 -51.5 -57.65 -51.25 -56.9 -50.65 -56.15 -49.25 -56.35 -49.0 -56.75 -49.5 -57.0 -49.65 M-58.15 -52.25 Q-60.75 -55.4 -61.9 -61.75 L-59.75 -55.75 -58.0 -52.5 -58.15 -52.25 M-62.25 -65.25 L-62.5 -66.5 -62.15 -67.0 -62.25 -65.25" fill="url(#gradient107)" fill-rule="evenodd" stroke="none"/>
    <path d="M-65.0 -65.4 L-64.75 -64.25 -64.25 -63.75 -64.65 -63.5 -64.25 -63.15 -64.25 -62.15 -64.0 -61.5 -63.75 -61.65 -64.0 -61.25 -63.65 -61.5 -63.4 -60.65 -63.25 -60.65 -63.15 -60.5 -63.25 -60.25 -63.5 -59.9 -62.9 -59.75 -63.4 -59.65 -63.15 -59.0 -62.65 -58.75 -63.0 -58.5 -62.5 -58.5 -62.4 -58.0 -62.65 -57.75 -62.4 -57.9 -62.4 -57.4 -62.15 -57.5 -61.9 -57.25 -62.4 -57.15 -62.15 -56.75 -62.0 -56.25 -61.4 -56.15 -61.15 -55.4 -61.0 -55.4 -61.4 -55.15 -61.25 -54.9 -60.5 -54.25 -60.75 -54.0 -60.25 -53.4 -59.9 -53.25 -59.9 -52.9 -59.4 -52.75 -59.65 -52.5 -59.5 -52.15 -59.25 -52.4 -59.15 -52.4 -58.9 -52.15 -59.4 -52.0 -58.75 -51.75 -59.0 -51.65 -58.75 -51.25 -58.4 -51.15 -58.15 -50.9 -58.0 -50.75 -57.65 -50.5 -57.65 -50.25 -57.5 -50.25 -57.0 -49.65 -56.75 -49.5 -56.35 -49.0 -56.4 -49.0 -55.5 -48.0 -55.75 -48.15 -56.75 -48.5 -58.65 -49.75 -59.9 -51.15 -60.65 -52.15 -61.65 -53.65 -61.75 -53.75 -61.9 -54.1 -61.9 -54.15 -62.15 -54.75 -62.5 -55.5 -62.75 -55.75 -62.9 -56.1 -62.9 -56.15 -63.25 -57.0 -63.25 -57.15 -63.5 -57.7 -64.0 -58.9 -64.15 -59.15 -64.15 -59.25 -64.25 -59.5 -64.25 -59.65 -64.3 -59.8 -65.4 -63.5 -65.4 -63.65 -65.5 -64.0 -65.5 -64.15 -65.75 -64.65 -65.0 -65.4" fill="url(#gradient108)" fill-rule="evenodd" stroke="none"/>
    <path d="M-65.5 -64.15 L-65.5 -64.0 -65.4 -63.65 -65.4 -63.5 -65.4 -63.15 -65.25 -62.75 -64.9 -61.5 -64.75 -61.15 -64.4 -59.9 -64.3 -59.8 -64.25 -59.65 -64.25 -59.5 -64.25 -59.25 -64.0 -58.9 -64.0 -58.75 -63.5 -57.7 -63.25 -57.15 -63.25 -57.0 -63.4 -56.9 -63.0 -56.15 -62.9 -56.15 -62.9 -56.1 -62.9 -56.0 -62.75 -55.75 -62.0 -54.35 -61.9 -54.15 -61.9 -54.1 -61.9 -54.0 -61.75 -53.75 -61.65 -53.65 -61.65 -53.4 -61.25 -53.0 -61.25 -52.9 -61.0 -52.65 -60.65 -52.15 -60.65 -52.0 -59.9 -51.15 -58.65 -49.75 -56.75 -48.5 -55.75 -48.15 -55.65 -48.0 -55.5 -48.0 -55.4 -47.9 -52.25 -49.25 -52.15 -49.25 -52.0 -49.4 -51.15 -49.75 -51.0 -49.75 -50.75 -49.9 -50.5 -50.0 -41.25 -54.0 -41.15 -53.9 -41.0 -53.75 -40.9 -53.25 -40.75 -53.15 -40.75 -52.9 -40.5 -52.15 -40.5 -51.65 -40.4 -46.25 -40.75 -45.25 -44.15 -45.25 -55.4 -46.5 -58.15 -47.4 Q-67.15 -53.4 -65.75 -64.65 L-65.75 -64.5 -65.5 -64.15" fill="url(#gradient109)" fill-rule="evenodd" stroke="none"/>
    <path d="M-40.5 -51.65 L-40.5 -52.15 -40.0 -49.9 -40.5 -51.65" fill="url(#gradient110)" fill-rule="evenodd" stroke="none"/>
    <path d="M-40.5 -52.15 L-40.75 -52.9 -40.75 -53.15 -40.9 -53.25 -41.0 -53.75 -41.15 -53.9 -41.25 -55.25 -40.5 -52.15 M-43.5 -61.25 L-43.4 -61.15 -43.25 -60.9 -43.15 -60.65 -43.5 -61.25" fill="url(#gradient111)" fill-rule="evenodd" stroke="none"/>
    <path d="M-40.5 -60.25 L-40.5 -59.9 -40.4 -59.25 -40.4 -58.9 -40.25 -58.15 -40.25 -57.9 -40.15 -55.5 -39.65 -54.9 -38.4 -48.75 -36.9 -45.65 -36.75 -44.65 -36.4 -44.25 -36.75 -43.5 -36.5 -43.4 -36.65 -43.15 -36.65 -43.0 -37.15 -42.75 -46.65 -43.75 -47.15 -43.9 -47.65 -43.9 -47.75 -43.9 -48.65 -44.0 -49.0 -44.0 -56.4 -44.9 -57.5 -45.15 -57.65 -45.15 -57.9 -45.25 -58.0 -45.4 -58.15 -45.4 -58.4 -45.5 -58.5 -45.75 -58.65 -45.75 -58.9 -45.9 -59.15 -46.0 -59.4 -46.25 -59.65 -46.4 -59.75 -46.4 -59.9 -46.4 -60.15 -46.5 -60.25 -46.75 -61.15 -47.25 -61.15 -48.25 -60.0 -47.9 -56.15 -45.9 -54.15 -45.4 -53.9 -45.4 -40.5 -44.15 -40.0 -44.15 -39.65 -45.0 -39.65 -45.15 -39.5 -45.65 -39.5 -47.5 -40.0 -49.9 -40.5 -52.15 -41.25 -55.25 -43.15 -60.65 -40.9 -60.9 -40.5 -60.25 M-43.65 -61.65 L-43.4 -61.25 -41.9 -61.25 -43.25 -60.9 -43.4 -61.15 -43.5 -61.25 -43.65 -61.5 -43.65 -61.65" fill="url(#gradient112)" fill-rule="evenodd" stroke="none"/>
    <path d="M-65.4 -63.5 L-64.3 -59.8 -64.4 -59.9 -64.75 -61.15 -64.9 -61.5 -65.25 -62.75 -65.4 -63.15 -65.4 -63.5 M-64.25 -59.5 L-64.15 -59.25 -64.25 -59.25 -64.25 -59.5 M-64.0 -58.9 L-63.5 -57.7 -64.0 -58.75 -64.0 -58.9 M-62.9 -56.1 L-62.75 -55.75 -62.9 -56.0 -62.9 -56.1 M-61.9 -54.1 L-61.75 -53.75 -61.9 -54.0 -61.9 -54.1 M-61.65 -53.65 L-60.65 -52.15 -59.9 -51.15 -60.65 -52.0 -60.65 -52.15 -61.0 -52.65 -61.25 -52.9 -61.25 -53.0 -61.65 -53.4 -61.65 -53.65 M-55.75 -48.15 L-55.5 -48.0 -55.65 -48.0 -55.75 -48.15 M-65.75 -64.65 L-65.5 -64.15 -65.75 -64.5 -65.75 -64.65" fill="url(#gradient113)" fill-rule="evenodd" stroke="none"/>
    <path d="M-64.15 -59.25 L-64.15 -59.15 -64.0 -58.9 -64.25 -59.25 -64.15 -59.25" fill="url(#gradient114)" fill-rule="evenodd" stroke="none"/>
    <path d="M-63.65 -61.5 L-63.25 -60.65 -63.4 -60.65 -63.65 -61.5 M-58.4 -51.15 L-58.25 -51.4 -58.15 -50.9 -58.4 -51.15 M-57.65 -50.5 L-57.5 -50.25 -57.65 -50.25 -57.65 -50.5 M-55.5 -48.0 L-56.4 -49.0 -56.35 -49.0 -56.15 -49.25 -55.9 -48.75 -55.4 -48.75 -41.5 -55.0 -41.25 -54.25 -50.5 -50.0 -50.75 -49.9 -51.0 -49.75 -51.15 -49.75 -52.0 -49.4 -52.15 -49.25 -52.25 -49.25 -55.5 -48.0" fill="url(#gradient115)" fill-rule="evenodd" stroke="none"/>
    <path d="M-41.25 -54.0 L-50.5 -50.0 -41.25 -54.25 -41.25 -54.0 M-52.25 -49.25 L-55.4 -47.9 -55.5 -48.0 -52.25 -49.25 M-46.9 -64.85 L-46.75 -64.5 -46.65 -63.75 -45.4 -61.4 -43.5 -60.25 -43.15 -59.0 -41.5 -55.0 -55.4 -48.75 -55.9 -48.75 -56.15 -49.25 -56.9 -50.65 -57.4 -51.5 -57.5 -51.75 -58.0 -52.5 Q-63.4 -63.5 -61.25 -68.0 -48.95 -69.45 -46.9 -64.85" fill="url(#gradient116)" fill-rule="evenodd" stroke="none"/>
    <path d="M-221.15 -16.25 L-223.4 -0.9 -287.5 -0.9 -287.15 -5.25 -245.15 -16.25 -232.15 -22.75 -229.75 -24.75 -226.0 -20.4 -221.15 -16.25" fill="url(#gradient117)" fill-rule="evenodd" stroke="none"/>
    <path d="M-61.4 -55.15 L-61.25 -55.0 -61.25 -54.9 -61.4 -55.15" fill="url(#gradient118)" fill-rule="evenodd" stroke="none"/>
    <path d="M-54.15 -45.4 L-56.15 -45.9 -60.0 -47.9 -61.15 -48.25 -61.0 -48.5 -60.0 -47.9 -54.15 -45.4" fill="url(#gradient119)" fill-rule="evenodd" stroke="none"/>
    <path d="M-60.15 -46.5 L-59.9 -46.4 -59.75 -46.4 -59.65 -46.15 -60.25 -45.75 Q-63.65 -44.25 -62.15 -40.25 L-62.15 -39.25 -63.0 -39.0 Q-65.25 -43.0 -60.15 -46.5" fill="url(#gradient120)" fill-rule="evenodd" stroke="none"/>
    <path d="M-62.15 -39.25 L-61.75 -37.5 -60.65 -28.0 -61.15 -27.25 -61.5 -27.65 -63.0 -39.0 -62.15 -39.25 M-31.9 -10.9 Q-30.65 -9.5 -30.4 -6.75 L-34.9 -4.5 -32.75 -8.25 -31.9 -10.9" fill="url(#gradient121)" fill-rule="evenodd" stroke="none"/>
    <path d="M-58.15 -45.4 L-58.0 -45.4 -57.9 -45.25 -57.65 -45.15 -57.5 -45.15 -56.4 -44.9 -54.9 -44.4 -49.0 -44.0 -48.65 -44.0 -47.75 -43.9 -47.65 -43.9 -61.75 -37.5 -62.15 -39.25 -62.15 -40.25 -61.25 -43.4 -59.15 -45.15 Q-58.7 -45.05 -58.4 -45.4 L-58.15 -45.4" fill="url(#gradient122)" fill-rule="evenodd" stroke="none"/>
    <path d="M-59.15 -45.15 L-61.25 -43.4 -62.15 -40.25 Q-63.65 -44.25 -60.25 -45.75 L-59.15 -45.15" fill="url(#gradient123)" fill-rule="evenodd" stroke="none"/>
    <path d="M-59.15 -45.15 L-60.25 -45.75 -59.65 -46.15 -58.4 -45.5 -58.4 -45.4 Q-58.7 -45.05 -59.15 -45.15" fill="url(#gradient124)" fill-rule="evenodd" stroke="none"/>
    <path d="M-36.15 -43.15 L-35.25 -35.9 -35.4 -35.25 Q-35.65 -36.65 -42.25 -38.75 L-46.15 -38.65 -50.4 -37.25 -56.15 -33.15 -58.0 -31.0 -60.0 -27.75 -60.4 -28.0 -60.65 -28.0 -61.75 -37.5 -47.65 -43.9 -47.15 -43.9 -46.65 -43.75 -37.15 -42.75 -36.65 -43.0 -36.65 -43.15 -36.15 -43.15" fill="url(#gradient125)" fill-rule="evenodd" stroke="none"/>
    <path d="M-150.65 -28.25 L-127.75 -34.75 -101.75 -39.15 -94.9 -40.65 -94.75 -39.4 -93.25 -39.75 -81.25 -38.65 -80.15 -38.4 -80.25 -37.75 -80.65 -33.75 -82.0 -30.15 -81.0 -30.15 -81.5 -26.0 -110.5 -23.4 -133.5 -19.75 -154.0 -14.75 -170.9 -12.15 -166.5 -23.0 -150.65 -28.25" fill="url(#gradient126)" fill-rule="evenodd" stroke="none"/>
    <path d="M-35.25 -35.9 Q-26.65 -23.15 -31.0 -13.15 L-31.9 -10.9 -32.75 -8.25 -34.9 -4.5 -36.5 -2.65 -38.75 -0.9 -67.5 -0.9 -65.65 -2.9 -66.5 -2.75 -66.65 -3.15 -67.65 -4.65 Q-69.25 -2.9 -78.0 -7.25 L-80.4 -12.5 -80.65 -13.9 Q-81.9 -20.4 -79.75 -23.9 L-81.5 -26.0 -81.0 -30.15 -82.0 -30.15 -80.65 -33.75 -80.25 -37.75 Q-70.4 -40.15 -61.5 -27.65 L-61.15 -27.25 -60.65 -28.0 -60.4 -28.0 -60.0 -27.75 -58.0 -31.0 -56.15 -33.15 -50.4 -37.25 -46.15 -38.65 -42.25 -38.75 Q-35.65 -36.65 -35.4 -35.25 L-35.25 -35.9" fill="url(#gradient127)" fill-rule="evenodd" stroke="none"/>
    <path d="M-31.0 -13.15 L-28.15 -6.65 -28.0 -5.15 -28.75 -4.65 -30.15 -5.4 -38.75 -0.9 -36.5 -2.65 -34.9 -4.5 -30.4 -6.75 Q-30.65 -9.5 -31.9 -10.9 L-31.0 -13.15" fill="url(#gradient128)" fill-rule="evenodd" stroke="none"/>
    <path d="M-287.5 -0.9 L-322.4 -0.9 -329.0 -20.25 -328.65 -20.0 -323.75 -15.5 -318.5 -11.9 -314.9 -7.9 -307.65 -7.25 -301.15 -6.0 -292.75 -5.9 -287.15 -5.25 -287.5 -0.9" fill="url(#gradient129)" fill-rule="evenodd" stroke="none"/>
    <path d="M-67.5 -0.9 L-146.75 -0.9 -153.5 -14.5 -154.0 -14.75 -133.5 -19.75 -110.5 -23.4 -81.5 -26.0 -79.75 -23.9 Q-81.9 -20.4 -80.65 -13.9 L-80.4 -12.5 -78.0 -7.25 Q-69.25 -2.9 -67.65 -4.65 L-66.65 -3.15 -66.5 -2.75 -65.65 -2.9 -67.5 -0.9" fill="url(#gradient130)" fill-rule="evenodd" stroke="none"/>
    <path d="M-146.75 -0.9 L-157.25 -0.9 -170.9 -12.15 -154.0 -14.75 -153.5 -14.5 -146.75 -0.9" fill="url(#gradient131)" fill-rule="evenodd" stroke="none"/>
    <path d="M-157.25 -0.9 L-200.75 -0.9 -204.25 -3.0 -204.4 -3.15 -204.65 -3.25 -205.5 -4.0 -195.9 -19.4 -170.9 -12.15 -157.25 -0.9" fill="url(#gradient132)" fill-rule="evenodd" stroke="none"/>
    <path d="M-200.75 -0.9 L-201.75 -0.9 -204.25 -3.0 -200.75 -0.9" fill="url(#gradient133)" fill-rule="evenodd" stroke="none"/>
    <path d="M-28.75 -4.65 L-28.5 -4.4 -35.15 -0.9 -38.75 -0.9 -30.15 -5.4 -28.75 -4.65" fill="url(#gradient134)" fill-rule="evenodd" stroke="none"/>
    <path d="M-28.5 -4.4 L-28.15 -4.15 -27.9 -2.9 -31.4 -0.9 -35.15 -0.9 -28.5 -4.4" fill="url(#gradient135)" fill-rule="evenodd" stroke="none"/>
    <path d="M-357.25 -89.15 L-331.75 -120.5 -327.25 -142.9 -316.0 -155.4 -300.5 -158.5 -293.75 -158.9 -291.5 -158.4 -291.65 -157.5 -298.4 -157.0 -313.25 -154.5 -324.5 -141.5 -329.15 -118.9 -352.65 -89.65 -352.9 -89.5 -357.25 -89.15 M-246.0 -152.4 L-244.65 -153.65 -244.0 -155.15 -248.65 -157.0 -250.25 -157.15 -250.65 -157.25 -250.5 -157.75 -250.5 -158.0 -250.4 -158.15 -246.4 -159.0 -246.15 -159.0 -245.75 -159.15 -245.25 -159.15 -244.0 -159.5 -243.9 -159.65 -243.5 -159.75 -243.4 -159.75 -240.25 -159.0 -239.65 -158.25 -239.65 -157.0 -240.25 -152.0 -243.5 -150.4 -245.0 -151.15 -245.15 -151.5 -246.0 -152.4" fill="#ab0000" fill-opacity="0.9098039" fill-rule="evenodd" stroke="none"/>
    <path d="M-333.9 -45.65 L-328.75 -62.65 -324.0 -69.5 -323.65 -69.75 -318.9 -76.75 -318.5 -77.0 -313.15 -84.75 -312.5 -85.5 -312.15 -86.15 -312.15 -86.25 -311.0 -87.4 -310.15 -89.15 -308.9 -90.5 -308.75 -91.0 -301.75 -100.5 -297.75 -120.5 -297.75 -121.25 -296.65 -126.65 -289.25 -142.15 -285.75 -143.25 -284.9 -143.4 -269.75 -147.65 -257.75 -149.75 -257.25 -149.75 -250.4 -150.9 -246.0 -152.4 -245.15 -151.5 -245.0 -151.15 -243.5 -150.4 -247.25 -149.25 -247.5 -149.0 -249.25 -149.0 -255.65 -147.9 -257.0 -147.5 -261.4 -146.75 -261.65 -146.65 -267.4 -145.65 -268.25 -145.65 -271.5 -144.25 -272.0 -144.15 -275.25 -143.15 -275.75 -142.65 -284.75 -139.75 -293.25 -125.0 -295.4 -114.4 -295.25 -113.25 -298.25 -98.15 -307.4 -85.5 -307.75 -85.5 -307.9 -85.0 -308.15 -84.5 -308.4 -84.4 -309.75 -82.25 -311.4 -80.25 -312.0 -79.25 -312.65 -79.0 -312.5 -78.65 -317.4 -71.9 -318.0 -71.65 -317.75 -71.4 -318.5 -70.65 -319.9 -68.15 -323.4 -63.75 -324.0 -62.75 -324.25 -62.5 -325.15 -61.0 -323.65 -59.75 -303.5 -45.4 -327.4 -45.5 -327.75 -45.65 -333.9 -45.65" fill="#9b0000" fill-opacity="0.9098039" fill-rule="evenodd" stroke="none"/>
    <path d="M-335.15 -32.15 L-334.9 -33.4 -335.0 -33.65 -334.75 -34.0 -334.9 -34.5 -333.9 -45.65 -327.75 -45.65 -327.4 -45.5 -303.5 -45.4 -304.0 -28.5 -304.15 -28.25 -304.0 -26.75 -304.4 -20.4 -304.25 -19.75 -304.4 -17.65 -302.15 -12.15 -301.9 -12.0 -299.5 -6.0 -299.4 -5.9 -297.4 -0.9 -309.75 -0.9 -310.75 -1.25 -311.0 -1.5 -313.15 -2.15 -313.25 -2.4 -317.25 -3.65 -317.5 -3.9 -318.9 -4.25 -319.15 -4.5 -322.0 -5.5 -324.75 -8.0 -324.9 -8.4 -325.4 -8.65 -325.0 -8.65 -325.4 -9.4 -325.65 -10.4 -329.0 -20.25 -329.0 -20.4 -333.25 -26.9 -334.9 -30.9 -335.15 -32.15 M-325.25 -21.65 L-325.0 -21.65 -325.0 -21.4 -323.9 -19.75 -323.65 -20.75 -324.0 -21.25 -325.0 -22.15 -325.25 -21.65" fill="#a20000" fill-opacity="0.9098039" fill-rule="evenodd" stroke="none"/>
    <path d="M-336.4 -33.25 L-335.75 -33.15 -335.15 -32.15 -334.9 -30.9 -339.0 -27.5 -340.25 -29.15 -339.0 -30.4 -338.65 -30.9 -338.5 -31.0 -337.5 -32.0 -337.25 -32.4 -336.4 -33.25" fill="#e20000" fill-opacity="0.9098039" fill-rule="evenodd" stroke="none"/>
    <path d="M-357.65 -73.4 L-357.5 -72.5 -357.9 -68.9 -356.75 -62.15 -356.65 -60.4 -355.75 -57.9 -355.25 -55.65 -352.75 -48.75 -352.5 -48.5 -348.65 -42.75 -343.4 -37.9 -338.5 -34.9 -337.75 -34.25 -337.5 -34.15 -336.4 -33.25 -337.25 -32.4 -337.5 -32.0 -338.5 -31.0 -338.65 -30.9 -339.0 -30.4 -340.25 -29.15 -360.4 -57.75 -360.4 -57.9 -360.65 -58.15 -361.9 -60.0 -362.0 -61.5 -361.9 -61.75 -361.9 -61.9 -361.75 -62.15 -361.4 -63.25 -360.9 -64.65 -357.65 -73.4" fill="#ec0000" fill-opacity="0.9098039" fill-rule="evenodd" stroke="none"/>
    <path d="M-352.9 -89.5 L-352.65 -89.65 -352.5 -88.75 -355.0 -83.75 -357.25 -76.5 -357.25 -75.65 -357.65 -73.4 -360.9 -64.65 -355.0 -86.65 -352.9 -89.5 M-361.75 -62.15 L-361.75 -62.5 -361.4 -63.25 -361.75 -62.15" fill="#c70000" fill-opacity="0.9098039" fill-rule="evenodd" stroke="none"/>
    <path d="M-352.65 -89.65 L-351.9 -89.65 -352.5 -88.75 -352.65 -89.65" fill="#f00000" fill-opacity="0.9098039" fill-rule="evenodd" stroke="none"/>
    <path d="M-357.25 -89.15 L-352.9 -89.5 -355.0 -86.65 -360.9 -64.65 -361.4 -63.25 -361.75 -62.5 -361.75 -62.15 -361.9 -61.9 -361.75 -62.5 -357.25 -89.15" fill="#ad0000" fill-rule="evenodd" stroke="none"/>
    <path d="M-341.65 -27.75 L-360.4 -57.75 -340.25 -29.15 -340.4 -28.9 -341.4 -27.9 -341.65 -27.75 M-325.4 -9.4 L-325.0 -8.65 -325.4 -8.65 -325.65 -9.25 -325.4 -9.4" fill="#b80000" fill-rule="evenodd" stroke="none"/>
    <path d="M-341.25 -27.0 L-341.5 -27.25 -341.65 -27.75 -341.4 -27.9 -340.4 -28.9 -340.25 -29.15 -339.0 -27.5 -334.9 -30.9 -333.25 -26.9 -329.0 -20.4 -329.0 -20.25 -325.65 -10.4 -325.4 -9.4 -325.65 -9.25 -335.4 -19.65 -341.25 -27.0" fill="#b70000" fill-rule="evenodd" stroke="none"/>
    <path d="M-303.5 -45.4 L-288.5 -42.0 -287.9 -42.0 -261.4 -36.15 -261.0 -36.0 -260.25 -35.9 -237.65 -30.15 -237.4 -30.0 -233.4 -29.0 -226.0 -20.5 -226.0 -20.4 -225.9 -20.15 -231.5 -17.0 -233.15 -16.25 -233.25 -16.0 -236.0 -14.65 -236.4 -14.25 -239.0 -12.9 -250.0 -10.25 -250.4 -10.0 -261.4 -7.0 -261.4 -6.9 -279.0 -0.9 -297.4 -0.9 -299.4 -5.9 -299.5 -6.0 -301.9 -12.0 -302.15 -12.15 -304.4 -17.65 -304.25 -19.75 -304.4 -20.4 -304.0 -26.75 -304.15 -28.25 -304.0 -28.5 -303.5 -45.4" fill="#d30000" fill-opacity="0.9098039" fill-rule="evenodd" stroke="none"/>
    <path d="M-309.75 -0.9 L-322.4 -0.9 -324.75 -8.0 -322.0 -5.5 -319.15 -4.5 -318.9 -4.25 -317.5 -3.9 -317.25 -3.65 -313.25 -2.4 -313.15 -2.15 -311.0 -1.5 -310.75 -1.25 -309.75 -0.9" fill="#a50000" fill-opacity="0.9098039" fill-rule="evenodd" stroke="none"/>
    <path d="M-322.4 -0.9 L-324.65 -0.9 -325.4 -8.65 -324.9 -8.4 -324.75 -8.0 -322.4 -0.9" fill="#bb0000" fill-rule="evenodd" stroke="none"/>
    <path d="M-324.65 -0.9 L-331.75 -0.9 -341.25 -27.0 -335.4 -19.65 -325.65 -9.25 -325.4 -8.65 -324.65 -0.9" fill="#b90000" fill-rule="evenodd" stroke="none"/>
    <path d="M-225.9 -20.15 L-221.15 -16.25 -223.25 -0.9 -279.0 -0.9 -261.4 -6.9 -261.4 -7.0 -250.4 -10.0 -250.0 -10.25 -239.0 -12.9 -236.4 -14.25 -236.0 -14.65 -233.25 -16.0 -233.15 -16.25 -231.5 -17.0 -225.9 -20.15" fill="#e50000" fill-opacity="0.9098039" fill-rule="evenodd" stroke="none"/>
    <path d="M-221.15 -16.25 L-213.65 -10.25 -214.9 -0.9 -223.25 -0.9 -221.15 -16.25" fill="#f50000" fill-rule="evenodd" stroke="none"/>
  </g>
  <defs>
    <radialGradient cx="0" cy="0" gradientTransform="matrix(0.0902, 0.0, 0.0, 0.0902, -378.2, -228.3)" gradientUnits="userSpaceOnUse" id="gradient0" r="819.2" spreadMethod="pad">
      <stop offset="0.0" stop-color="#494949"/>
      <stop offset="1.0" stop-color="#080808"/>
    </radialGradient>
    <radialGradient cx="0" cy="0" gradientTransform="matrix(0.2665, 0.0, 0.0, 0.2665, -166.9, -207.3)" gradientUnits="userSpaceOnUse" id="gradient1" r="819.2" spreadMethod="pad">
      <stop offset="0.0" stop-color="#555555"/>
      <stop offset="1.0" stop-color="#1e1e1e"/>
    </radialGradient>
    <radialGradient cx="0" cy="0" gradientTransform="matrix(0.1718, 0.0, 0.0, 0.1718, -306.3, -165.45)" gradientUnits="userSpaceOnUse" id="gradient2" r="819.2" spreadMethod="pad">
      <stop offset="0.0" stop-color="#7d7d7d"/>
      <stop offset="1.0" stop-color="#0d0d0d"/>
    </radialGradient>
    <radialGradient cx="0" cy="0" gradientTransform="matrix(0.045, 0.0, 0.0, 0.045, -376.2, -242.65)" gradientUnits="userSpaceOnUse" id="gradient3" r="819.2" spreadMethod="pad">
      <stop offset="0.0" stop-color="#767676"/>
      <stop offset="1.0" stop-color="#767676"/>
    </radialGradient>
    <radialGradient cx="0" cy="0" gradientTransform="matrix(0.0049, 0.0, 0.0, 0.0049, -362.45, -269.0)" gradientUnits="userSpaceOnUse" id="gradient4" r="819.2" spreadMethod="pad">
      <stop offset="0.0" stop-color="#767676"/>
      <stop offset="1.0" stop-color="#767676"/>
    </radialGradient>
    <radialGradient cx="0" cy="0" gradientTransform="matrix(0.0075, 0.0, 0.0, 0.0075, -366.45, -269.05)" gradientUnits="userSpaceOnUse" id="gradient5" r="819.2" spreadMethod="pad">
      <stop offset="0.0" stop-color="#8a8a8a"/>
      <stop offset="1.0" stop-color="#8a8a8a"/>
    </radialGradient>
    <radialGradient cx="0" cy="0" gradientTransform="matrix(0.0108, 0.0, 0.0, 0.0108, -375.35, -300.0)" gradientUnits="userSpaceOnUse" id="gradient6" r="819.2" spreadMethod="pad">
      <stop offset="0.0" stop-color="#080808"/>
      <stop offset="1.0" stop-color="#080808"/>
    </radialGradient>
    <radialGradient cx="0" cy="0" gradientTransform="matrix(0.0107, 0.0, 0.0, 0.0107, -365.8, -238.05)" gradientUnits="userSpaceOnUse" id="gradient7" r="819.2" spreadMethod="pad">
      <stop offset="0.0" stop-color="#e1e1e1"/>
      <stop offset="1.0" stop-color="#dedede"/>
    </radialGradient>
    <radialGradient cx="0" cy="0" gradientTransform="matrix(0.0056, 0.0, 0.0, 0.0056, -363.95, -244.6)" gradientUnits="userSpaceOnUse" id="gradient8" r="819.2" spreadMethod="pad">
      <stop offset="0.0" stop-color="#e2e2e2"/>
      <stop offset="1.0" stop-color="#e0e0e0"/>
    </radialGradient>
    <radialGradient cx="0" cy="0" gradientTransform="matrix(0.0157, 0.0, 0.0, 0.0157, -337.3, -190.85)" gradientUnits="userSpaceOnUse" id="gradient9" r="819.2" spreadMethod="pad">
      <stop offset="0.0" stop-color="#ff5252"/>
      <stop offset="1.0" stop-color="#330000"/>
    </radialGradient>
    <radialGradient cx="0" cy="0" gradientTransform="matrix(0.0132, 0.0, 0.0, 0.0132, -339.15, -191.2)" gradientUnits="userSpaceOnUse" id="gradient10" r="819.2" spreadMethod="pad">
      <stop offset="0.0" stop-color="#ff5151"/>
      <stop offset="1.0" stop-color="#ff4c4c"/>
    </radialGradient>
    <radialGradient cx="0" cy="0" gradientTransform="matrix(0.0172, 0.0, 0.0, 0.0172, -335.1, -186.65)" gradientUnits="userSpaceOnUse" id="gradient11" r="819.2" spreadMethod="pad">
      <stop offset="0.0" stop-color="#f89797"/>
      <stop offset="1.0" stop-color="#763636"/>
    </radialGradient>
    <radialGradient cx="0" cy="0" gradientTransform="matrix(0.0162, 0.0, 0.0, 0.0162, -336.75, -185.2)" gradientUnits="userSpaceOnUse" id="gradient12" r="819.2" spreadMethod="pad">
      <stop offset="0.0" stop-color="#ff3030"/>
      <stop offset="1.0" stop-color="#ff2d2d"/>
    </radialGradient>
    <radialGradient cx="0" cy="0" gradientTransform="matrix(0.1877, 0.0, 0.0, 0.1877, -253.9, -154.75)" gradientUnits="userSpaceOnUse" id="gradient13" r="819.2" spreadMethod="pad">
      <stop offset="0.0" stop-color="#7b7b7b"/>
      <stop offset="1.0" stop-color="#0c0c0c"/>
    </radialGradient>
    <radialGradient cx="0" cy="0" gradientTransform="matrix(0.193, 0.0, 0.0, 0.193, -254.3, -158.95)" gradientUnits="userSpaceOnUse" id="gradient14" r="819.2" spreadMethod="pad">
      <stop offset="0.0" stop-color="#101010"/>
      <stop offset="1.0" stop-color="#000000"/>
    </radialGradient>
    <radialGradient cx="0" cy="0" gradientTransform="matrix(0.0231, 0.0, 0.0, 0.0231, -285.15, -163.45)" gradientUnits="userSpaceOnUse" id="gradient15" r="819.2" spreadMethod="pad">
      <stop offset="0.0" stop-color="#797979"/>
      <stop offset="1.0" stop-color="#000000"/>
    </radialGradient>
    <radialGradient cx="0" cy="0" gradientTransform="matrix(0.0393, 0.0, 0.0, 0.0393, -290.85, -162.05)" gradientUnits="userSpaceOnUse" id="gradient16" r="819.2" spreadMethod="pad">
      <stop offset="0.0" stop-color="#181818"/>
      <stop offset="1.0" stop-color="#000000"/>
    </radialGradient>
    <radialGradient cx="0" cy="0" gradientTransform="matrix(0.022, 0.0, 0.0, 0.022, -305.65, -144.05)" gradientUnits="userSpaceOnUse" id="gradient17" r="819.2" spreadMethod="pad">
      <stop offset="0.0" stop-color="#000000"/>
      <stop offset="1.0" stop-color="#000000"/>
    </radialGradient>
    <radialGradient cx="0" cy="0" gradientTransform="matrix(0.0296, 0.0, 0.0, 0.0296, -319.15, -121.95)" gradientUnits="userSpaceOnUse" id="gradient18" r="819.2" spreadMethod="pad">
      <stop offset="0.0" stop-color="#000000"/>
      <stop offset="1.0" stop-color="#000000"/>
    </radialGradient>
    <radialGradient cx="0" cy="0" gradientTransform="matrix(0.05, 0.0, 0.0, 0.05, -273.95, -144.75)" gradientUnits="userSpaceOnUse" id="gradient19" r="819.2" spreadMethod="pad">
      <stop offset="0.0" stop-color="#000000"/>
      <stop offset="1.0" stop-color="#000000"/>
    </radialGradient>
    <radialGradient cx="0" cy="0" gradientTransform="matrix(0.1025, 0.0, 0.0, 0.1025, -208.3, -100.7)" gradientUnits="userSpaceOnUse" id="gradient20" r="819.2" spreadMethod="pad">
      <stop offset="0.0" stop-color="#585858"/>
      <stop offset="1.0" stop-color="#000000"/>
    </radialGradient>
    <radialGradient cx="0" cy="0" gradientTransform="matrix(0.1295, 0.0, 0.0, 0.1295, -325.5, -104.25)" gradientUnits="userSpaceOnUse" id="gradient21" r="819.2" spreadMethod="pad">
      <stop offset="0.0" stop-color="#000000"/>
      <stop offset="1.0" stop-color="#000000"/>
    </radialGradient>
    <radialGradient cx="0" cy="0" gradientTransform="matrix(0.0935, 0.0, 0.0, 0.0935, -315.05, -140.85)" gradientUnits="userSpaceOnUse" id="gradient22" r="819.2" spreadMethod="pad">
      <stop offset="0.0" stop-color="#000000"/>
      <stop offset="1.0" stop-color="#000000"/>
    </radialGradient>
    <radialGradient cx="0" cy="0" gradientTransform="matrix(0.1445, 0.0, 0.0, 0.1445, -217.25, -101.0)" gradientUnits="userSpaceOnUse" id="gradient23" r="819.2" spreadMethod="pad">
      <stop offset="0.0" stop-color="#414141"/>
      <stop offset="1.0" stop-color="#060606"/>
    </radialGradient>
    <radialGradient cx="0" cy="0" gradientTransform="matrix(0.0482, 0.0, 0.0, 0.0482, -211.2, -102.65)" gradientUnits="userSpaceOnUse" id="gradient24" r="819.2" spreadMethod="pad">
      <stop offset="0.0" stop-color="#4c4c4c"/>
      <stop offset="1.0" stop-color="#000000"/>
    </radialGradient>
    <radialGradient cx="0" cy="0" gradientTransform="matrix(0.0851, 0.0, 0.0, 0.0851, -257.1, -69.05)" gradientUnits="userSpaceOnUse" id="gradient25" r="819.2" spreadMethod="pad">
      <stop offset="0.0" stop-color="#595959"/>
      <stop offset="1.0" stop-color="#000000"/>
    </radialGradient>
    <radialGradient cx="0" cy="0" gradientTransform="matrix(0.0362, 0.0, 0.0, 0.0362, -297.55, -133.05)" gradientUnits="userSpaceOnUse" id="gradient26" r="819.2" spreadMethod="pad">
      <stop offset="0.0" stop-color="#000000"/>
      <stop offset="1.0" stop-color="#000000"/>
    </radialGradient>
    <radialGradient cx="0" cy="0" gradientTransform="matrix(0.1045, 0.0, 0.0, 0.1045, -283.3, -130.95)" gradientUnits="userSpaceOnUse" id="gradient27" r="819.2" spreadMethod="pad">
      <stop offset="0.0" stop-color="#000000"/>
      <stop offset="1.0" stop-color="#000000"/>
    </radialGradient>
    <radialGradient cx="0" cy="0" gradientTransform="matrix(0.0471, 0.0, 0.0, 0.0471, -333.7, -107.8)" gradientUnits="userSpaceOnUse" id="gradient28" r="819.2" spreadMethod="pad">
      <stop offset="0.0" stop-color="#000000"/>
      <stop offset="1.0" stop-color="#000000"/>
    </radialGradient>
    <radialGradient cx="0" cy="0" gradientTransform="matrix(0.0311, 0.0, 0.0, 0.0311, -319.3, -128.9)" gradientUnits="userSpaceOnUse" id="gradient29" r="819.2" spreadMethod="pad">
      <stop offset="0.0" stop-color="#000000"/>
      <stop offset="1.0" stop-color="#000000"/>
    </radialGradient>
    <radialGradient cx="0" cy="0" gradientTransform="matrix(0.0631, 0.0, 0.0, 0.0631, -302.85, -138.8)" gradientUnits="userSpaceOnUse" id="gradient30" r="819.2" spreadMethod="pad">
      <stop offset="0.0" stop-color="#575757"/>
      <stop offset="1.0" stop-color="#000000"/>
    </radialGradient>
    <radialGradient cx="0" cy="0" gradientTransform="matrix(0.0257, 0.0, 0.0, 0.0257, -326.0, -118.45)" gradientUnits="userSpaceOnUse" id="gradient31" r="819.2" spreadMethod="pad">
      <stop offset="0.0" stop-color="#0f0f0f"/>
      <stop offset="1.0" stop-color="#000000"/>
    </radialGradient>
    <radialGradient cx="0" cy="0" gradientTransform="matrix(0.0923, 0.0, 0.0, 0.0923, -343.5, -37.95)" gradientUnits="userSpaceOnUse" id="gradient32" r="819.2" spreadMethod="pad">
      <stop offset="0.0" stop-color="#858585"/>
      <stop offset="1.0" stop-color="#000000"/>
    </radialGradient>
    <radialGradient cx="0" cy="0" gradientTransform="matrix(0.0277, 0.0, 0.0, 0.0277, -259.1, -99.3)" gradientUnits="userSpaceOnUse" id="gradient33" r="819.2" spreadMethod="pad">
      <stop offset="0.0" stop-color="#000000"/>
      <stop offset="1.0" stop-color="#000000"/>
    </radialGradient>
    <radialGradient cx="0" cy="0" gradientTransform="matrix(0.0867, 0.0, 0.0, 0.0867, -249.55, -53.5)" gradientUnits="userSpaceOnUse" id="gradient34" r="819.2" spreadMethod="pad">
      <stop offset="0.0" stop-color="#616161"/>
      <stop offset="1.0" stop-color="#000000"/>
    </radialGradient>
    <radialGradient cx="0" cy="0" gradientTransform="matrix(0.0168, 0.0, 0.0, 0.0168, -257.1, -69.05)" gradientUnits="userSpaceOnUse" id="gradient35" r="819.2" spreadMethod="pad">
      <stop offset="0.0" stop-color="#595959"/>
      <stop offset="1.0" stop-color="#000000"/>
    </radialGradient>
    <radialGradient cx="0" cy="0" gradientTransform="matrix(0.0347, 0.0, 0.0, 0.0347, -70.95, -107.9)" gradientUnits="userSpaceOnUse" id="gradient36" r="819.2" spreadMethod="pad">
      <stop offset="0.0" stop-color="#060606"/>
      <stop offset="1.0" stop-color="#060606"/>
    </radialGradient>
    <radialGradient cx="0" cy="0" gradientTransform="matrix(0.0518, 0.0, 0.0, 0.0518, -47.05, -119.2)" gradientUnits="userSpaceOnUse" id="gradient37" r="819.2" spreadMethod="pad">
      <stop offset="0.0" stop-color="#040404"/>
      <stop offset="1.0" stop-color="#040404"/>
    </radialGradient>
    <radialGradient cx="0" cy="0" gradientTransform="matrix(0.0394, 0.0, 0.0, 0.0394, -62.75, -116.95)" gradientUnits="userSpaceOnUse" id="gradient38" r="819.2" spreadMethod="pad">
      <stop offset="0.0" stop-color="#040404"/>
      <stop offset="1.0" stop-color="#040404"/>
    </radialGradient>
    <radialGradient cx="0" cy="0" gradientTransform="matrix(0.0386, 0.0, 0.0, 0.0386, -70.4, -115.95)" gradientUnits="userSpaceOnUse" id="gradient39" r="819.2" spreadMethod="pad">
      <stop offset="0.0" stop-color="#040404"/>
      <stop offset="1.0" stop-color="#040404"/>
    </radialGradient>
    <radialGradient cx="0" cy="0" gradientTransform="matrix(0.0333, 0.0, 0.0, 0.0333, -76.0, -115.65)" gradientUnits="userSpaceOnUse" id="gradient40" r="819.2" spreadMethod="pad">
      <stop offset="0.0" stop-color="#040404"/>
      <stop offset="1.0" stop-color="#040404"/>
    </radialGradient>
    <radialGradient cx="0" cy="0" gradientTransform="matrix(0.0351, 0.0, 0.0, 0.0351, -77.7, -117.2)" gradientUnits="userSpaceOnUse" id="gradient41" r="819.2" spreadMethod="pad">
      <stop offset="0.0" stop-color="#040404"/>
      <stop offset="1.0" stop-color="#040404"/>
    </radialGradient>
    <radialGradient cx="0" cy="0" gradientTransform="matrix(0.0343, 0.0, 0.0, 0.0343, -81.3, -120.0)" gradientUnits="userSpaceOnUse" id="gradient42" r="819.2" spreadMethod="pad">
      <stop offset="0.0" stop-color="#040404"/>
      <stop offset="1.0" stop-color="#040404"/>
    </radialGradient>
    <radialGradient cx="0" cy="0" gradientTransform="matrix(0.0645, 0.0, 0.0, 0.0645, -65.75, -90.25)" gradientUnits="userSpaceOnUse" id="gradient43" r="819.2" spreadMethod="pad">
      <stop offset="0.0" stop-color="#040404"/>
      <stop offset="1.0" stop-color="#040404"/>
    </radialGradient>
    <radialGradient cx="0" cy="0" gradientTransform="matrix(0.0316, 0.0, 0.0, 0.0316, -108.0, -106.35)" gradientUnits="userSpaceOnUse" id="gradient44" r="819.2" spreadMethod="pad">
      <stop offset="0.0" stop-color="#040404"/>
      <stop offset="1.0" stop-color="#040404"/>
    </radialGradient>
    <radialGradient cx="0" cy="0" gradientTransform="matrix(0.0353, 0.0, 0.0, 0.0353, -45.45, -118.9)" gradientUnits="userSpaceOnUse" id="gradient45" r="819.2" spreadMethod="pad">
      <stop offset="0.0" stop-color="#040404"/>
      <stop offset="1.0" stop-color="#040404"/>
    </radialGradient>
    <radialGradient cx="0" cy="0" gradientTransform="matrix(0.0864, 0.0, 0.0, 0.0864, -1.0, -122.0)" gradientUnits="userSpaceOnUse" id="gradient46" r="819.2" spreadMethod="pad">
      <stop offset="0.0" stop-color="#111111"/>
      <stop offset="1.0" stop-color="#111111"/>
    </radialGradient>
    <radialGradient cx="0" cy="0" gradientTransform="matrix(0.0465, 0.0, 0.0, 0.0465, -35.6, -96.65)" gradientUnits="userSpaceOnUse" id="gradient47" r="819.2" spreadMethod="pad">
      <stop offset="0.0" stop-color="#111111"/>
      <stop offset="1.0" stop-color="#111111"/>
    </radialGradient>
    <radialGradient cx="0" cy="0" gradientTransform="matrix(0.0345, 0.0, 0.0, 0.0345, -44.2, -117.5)" gradientUnits="userSpaceOnUse" id="gradient48" r="819.2" spreadMethod="pad">
      <stop offset="0.0" stop-color="#080808"/>
      <stop offset="1.0" stop-color="#080808"/>
    </radialGradient>
    <radialGradient cx="0" cy="0" gradientTransform="matrix(0.0258, 0.0, 0.0, 0.0258, -70.6, -107.6)" gradientUnits="userSpaceOnUse" id="gradient49" r="819.2" spreadMethod="pad">
      <stop offset="0.0" stop-color="#060606"/>
      <stop offset="1.0" stop-color="#060606"/>
    </radialGradient>
    <radialGradient cx="0" cy="0" gradientTransform="matrix(0.0196, 0.0, 0.0, 0.0196, -69.8, -93.1)" gradientUnits="userSpaceOnUse" id="gradient50" r="819.2" spreadMethod="pad">
      <stop offset="0.0" stop-color="#020202"/>
      <stop offset="1.0" stop-color="#020202"/>
    </radialGradient>
    <radialGradient cx="0" cy="0" gradientTransform="matrix(0.0196, 0.0, 0.0, 0.0196, -75.35, -93.3)" gradientUnits="userSpaceOnUse" id="gradient51" r="819.2" spreadMethod="pad">
      <stop offset="0.0" stop-color="#020202"/>
      <stop offset="1.0" stop-color="#020202"/>
    </radialGradient>
    <radialGradient cx="0" cy="0" gradientTransform="matrix(0.0195, 0.0, 0.0, 0.0195, -78.2, -93.4)" gradientUnits="userSpaceOnUse" id="gradient52" r="819.2" spreadMethod="pad">
      <stop offset="0.0" stop-color="#020202"/>
      <stop offset="1.0" stop-color="#020202"/>
    </radialGradient>
    <radialGradient cx="0" cy="0" gradientTransform="matrix(0.0193, 0.0, 0.0, 0.0193, -80.95, -93.35)" gradientUnits="userSpaceOnUse" id="gradient53" r="819.2" spreadMethod="pad">
      <stop offset="0.0" stop-color="#020202"/>
      <stop offset="1.0" stop-color="#020202"/>
    </radialGradient>
    <radialGradient cx="0" cy="0" gradientTransform="matrix(0.0192, 0.0, 0.0, 0.0192, -83.75, -93.35)" gradientUnits="userSpaceOnUse" id="gradient54" r="819.2" spreadMethod="pad">
      <stop offset="0.0" stop-color="#020202"/>
      <stop offset="1.0" stop-color="#020202"/>
    </radialGradient>
    <radialGradient cx="0" cy="0" gradientTransform="matrix(0.037, 0.0, 0.0, 0.037, -87.75, -108.0)" gradientUnits="userSpaceOnUse" id="gradient55" r="819.2" spreadMethod="pad">
      <stop offset="0.0" stop-color="#020202"/>
      <stop offset="1.0" stop-color="#020202"/>
    </radialGradient>
    <radialGradient cx="0" cy="0" gradientTransform="matrix(0.1002, 0.0, 0.0, 0.1002, -323.6, -15.55)" gradientUnits="userSpaceOnUse" id="gradient56" r="819.2" spreadMethod="pad">
      <stop offset="0.0" stop-color="#878787"/>
      <stop offset="1.0" stop-color="#080808"/>
    </radialGradient>
    <radialGradient cx="0" cy="0" gradientTransform="matrix(0.0359, 0.0, 0.0, 0.0359, -70.0, -107.65)" gradientUnits="userSpaceOnUse" id="gradient57" r="819.2" spreadMethod="pad">
      <stop offset="0.0" stop-color="#252525"/>
      <stop offset="1.0" stop-color="#242424"/>
    </radialGradient>
    <radialGradient cx="0" cy="0" gradientTransform="matrix(0.0353, 0.0, 0.0, 0.0353, -90.35, -106.75)" gradientUnits="userSpaceOnUse" id="gradient58" r="819.2" spreadMethod="pad">
      <stop offset="0.0" stop-color="#020202"/>
      <stop offset="1.0" stop-color="#020202"/>
    </radialGradient>
    <radialGradient cx="0" cy="0" gradientTransform="matrix(0.0411, 0.0, 0.0, 0.0411, -62.25, -88.25)" gradientUnits="userSpaceOnUse" id="gradient59" r="819.2" spreadMethod="pad">
      <stop offset="0.0" stop-color="#1e1e1e"/>
      <stop offset="1.0" stop-color="#1e1e1e"/>
    </radialGradient>
    <radialGradient cx="0" cy="0" gradientTransform="matrix(0.0428, 0.0, 0.0, 0.0428, -36.05, -96.85)" gradientUnits="userSpaceOnUse" id="gradient60" r="819.2" spreadMethod="pad">
      <stop offset="0.0" stop-color="#050505"/>
      <stop offset="1.0" stop-color="#050505"/>
    </radialGradient>
    <radialGradient cx="0" cy="0" gradientTransform="matrix(0.071, 0.0, 0.0, 0.071, -58.9, -90.4)" gradientUnits="userSpaceOnUse" id="gradient61" r="819.2" spreadMethod="pad">
      <stop offset="0.0" stop-color="#171717"/>
      <stop offset="1.0" stop-color="#171717"/>
    </radialGradient>
    <radialGradient cx="0" cy="0" gradientTransform="matrix(0.0346, 0.0, 0.0, 0.0346, -65.7, -89.8)" gradientUnits="userSpaceOnUse" id="gradient62" r="819.2" spreadMethod="pad">
      <stop offset="0.0" stop-color="#2e2e2e"/>
      <stop offset="1.0" stop-color="#282828"/>
    </radialGradient>
    <radialGradient cx="0" cy="0" gradientTransform="matrix(0.0448, 0.0, 0.0, 0.0448, -49.6, -106.05)" gradientUnits="userSpaceOnUse" id="gradient63" r="819.2" spreadMethod="pad">
      <stop offset="0.0" stop-color="#1e1e1e"/>
      <stop offset="1.0" stop-color="#050505"/>
    </radialGradient>
    <radialGradient cx="0" cy="0" gradientTransform="matrix(0.0318, 0.0, 0.0, 0.0318, -108.9, -104.8)" gradientUnits="userSpaceOnUse" id="gradient64" r="819.2" spreadMethod="pad">
      <stop offset="0.0" stop-color="#171717"/>
      <stop offset="1.0" stop-color="#171717"/>
    </radialGradient>
    <radialGradient cx="0" cy="0" gradientTransform="matrix(0.1061, 0.0, 0.0, 0.1061, -36.7, -43.05)" gradientUnits="userSpaceOnUse" id="gradient65" r="819.2" spreadMethod="pad">
      <stop offset="0.0" stop-color="#040404"/>
      <stop offset="1.0" stop-color="#040404"/>
    </radialGradient>
    <radialGradient cx="0" cy="0" gradientTransform="matrix(0.0251, 0.0, 0.0, 0.0251, -108.2, -79.1)" gradientUnits="userSpaceOnUse" id="gradient66" r="819.2" spreadMethod="pad">
      <stop offset="0.0" stop-color="#020202"/>
      <stop offset="1.0" stop-color="#020202"/>
    </radialGradient>
    <radialGradient cx="0" cy="0" gradientTransform="matrix(0.0443, 0.0, 0.0, 0.0443, -108.2, -79.1)" gradientUnits="userSpaceOnUse" id="gradient67" r="819.2" spreadMethod="pad">
      <stop offset="0.0" stop-color="#1f1f1f"/>
      <stop offset="1.0" stop-color="#1e1e1e"/>
    </radialGradient>
    <radialGradient cx="0" cy="0" gradientTransform="matrix(0.0328, 0.0, 0.0, 0.0328, -109.95, -97.8)" gradientUnits="userSpaceOnUse" id="gradient68" r="819.2" spreadMethod="pad">
      <stop offset="0.0" stop-color="#1c1c1c"/>
      <stop offset="1.0" stop-color="#1b1b1b"/>
    </radialGradient>
    <radialGradient cx="0" cy="0" gradientTransform="matrix(0.0311, 0.0, 0.0, 0.0311, -115.7, -98.95)" gradientUnits="userSpaceOnUse" id="gradient69" r="819.2" spreadMethod="pad">
      <stop offset="0.0" stop-color="#040404"/>
      <stop offset="1.0" stop-color="#040404"/>
    </radialGradient>
    <radialGradient cx="0" cy="0" gradientTransform="matrix(0.0337, 0.0, 0.0, 0.0337, -90.7, -107.4)" gradientUnits="userSpaceOnUse" id="gradient70" r="819.2" spreadMethod="pad">
      <stop offset="0.0" stop-color="#171717"/>
      <stop offset="1.0" stop-color="#171717"/>
    </radialGradient>
    <radialGradient cx="0" cy="0" gradientTransform="matrix(0.0103, 0.0, 0.0, 0.0103, -110.85, -94.25)" gradientUnits="userSpaceOnUse" id="gradient71" r="819.2" spreadMethod="pad">
      <stop offset="0.0" stop-color="#171717"/>
      <stop offset="1.0" stop-color="#171717"/>
    </radialGradient>
    <radialGradient cx="0" cy="0" gradientTransform="matrix(0.0378, 0.0, 0.0, 0.0378, -117.8, -98.5)" gradientUnits="userSpaceOnUse" id="gradient72" r="819.2" spreadMethod="pad">
      <stop offset="0.0" stop-color="#828282"/>
      <stop offset="1.0" stop-color="#3e3e3e"/>
    </radialGradient>
    <radialGradient cx="0" cy="0" gradientTransform="matrix(0.0304, 0.0, 0.0, 0.0304, -110.6, -99.15)" gradientUnits="userSpaceOnUse" id="gradient73" r="819.2" spreadMethod="pad">
      <stop offset="0.0" stop-color="#212121"/>
      <stop offset="1.0" stop-color="#1f1f1f"/>
    </radialGradient>
    <radialGradient cx="0" cy="0" gradientTransform="matrix(0.034, 0.0, 0.0, 0.034, -110.85, -94.25)" gradientUnits="userSpaceOnUse" id="gradient74" r="819.2" spreadMethod="pad">
      <stop offset="0.0" stop-color="#808080"/>
      <stop offset="1.0" stop-color="#7f7f7f"/>
    </radialGradient>
    <radialGradient cx="0" cy="0" gradientTransform="matrix(0.046, 0.0, 0.0, 0.046, -37.65, -104.9)" gradientUnits="userSpaceOnUse" id="gradient75" r="819.2" spreadMethod="pad">
      <stop offset="0.0" stop-color="#171717"/>
      <stop offset="1.0" stop-color="#171717"/>
    </radialGradient>
    <radialGradient cx="0" cy="0" gradientTransform="matrix(0.0817, 0.0, 0.0, 0.0817, -196.75, -86.45)" gradientUnits="userSpaceOnUse" id="gradient76" r="819.2" spreadMethod="pad">
      <stop offset="0.0" stop-color="#686868"/>
      <stop offset="1.0" stop-color="#000000"/>
    </radialGradient>
    <radialGradient cx="0" cy="0" gradientTransform="matrix(0.0502, 0.0, 0.0, 0.0502, -157.3, -34.0)" gradientUnits="userSpaceOnUse" id="gradient77" r="819.2" spreadMethod="pad">
      <stop offset="0.0" stop-color="#484848"/>
      <stop offset="1.0" stop-color="#000000"/>
    </radialGradient>
    <radialGradient cx="0" cy="0" gradientTransform="matrix(0.0338, 0.0, 0.0, 0.0338, -64.2, -94.75)" gradientUnits="userSpaceOnUse" id="gradient78" r="819.2" spreadMethod="pad">
      <stop offset="0.0" stop-color="#171717"/>
      <stop offset="1.0" stop-color="#171717"/>
    </radialGradient>
    <radialGradient cx="0" cy="0" gradientTransform="matrix(0.0453, 0.0, 0.0, 0.0453, -66.45, -93.05)" gradientUnits="userSpaceOnUse" id="gradient79" r="819.2" spreadMethod="pad">
      <stop offset="0.0" stop-color="#202020"/>
      <stop offset="1.0" stop-color="#040404"/>
    </radialGradient>
    <radialGradient cx="0" cy="0" gradientTransform="matrix(0.0377, 0.0, 0.0, 0.0377, -30.1, -100.35)" gradientUnits="userSpaceOnUse" id="gradient80" r="819.2" spreadMethod="pad">
      <stop offset="0.0" stop-color="#040404"/>
      <stop offset="1.0" stop-color="#040404"/>
    </radialGradient>
    <radialGradient cx="0" cy="0" gradientTransform="matrix(0.0803, 0.0, 0.0, 0.0803, -65.6, -77.25)" gradientUnits="userSpaceOnUse" id="gradient81" r="819.2" spreadMethod="pad">
      <stop offset="0.0" stop-color="#040404"/>
      <stop offset="1.0" stop-color="#040404"/>
    </radialGradient>
    <radialGradient cx="0" cy="0" gradientTransform="matrix(0.0608, 0.0, 0.0, 0.0608, -40.8, -60.95)" gradientUnits="userSpaceOnUse" id="gradient82" r="819.2" spreadMethod="pad">
      <stop offset="0.0" stop-color="#050505"/>
      <stop offset="1.0" stop-color="#050505"/>
    </radialGradient>
    <radialGradient cx="0" cy="0" gradientTransform="matrix(0.0346, 0.0, 0.0, 0.0346, -69.8, -93.1)" gradientUnits="userSpaceOnUse" id="gradient83" r="819.2" spreadMethod="pad">
      <stop offset="0.0" stop-color="#1f1f1f"/>
      <stop offset="1.0" stop-color="#1e1e1e"/>
    </radialGradient>
    <radialGradient cx="0" cy="0" gradientTransform="matrix(0.0196, 0.0, 0.0, 0.0196, -72.65, -93.2)" gradientUnits="userSpaceOnUse" id="gradient84" r="819.2" spreadMethod="pad">
      <stop offset="0.0" stop-color="#020202"/>
      <stop offset="1.0" stop-color="#020202"/>
    </radialGradient>
    <radialGradient cx="0" cy="0" gradientTransform="matrix(0.0017, 0.0, 0.0, 0.0017, -90.85, -90.95)" gradientUnits="userSpaceOnUse" id="gradient85" r="819.2" spreadMethod="pad">
      <stop offset="0.0" stop-color="#020202"/>
      <stop offset="1.0" stop-color="#020202"/>
    </radialGradient>
    <radialGradient cx="0" cy="0" gradientTransform="matrix(0.0337, 0.0, 0.0, 0.0337, -65.45, -100.1)" gradientUnits="userSpaceOnUse" id="gradient86" r="819.2" spreadMethod="pad">
      <stop offset="0.0" stop-color="#212121"/>
      <stop offset="1.0" stop-color="#0f0f0f"/>
    </radialGradient>
    <radialGradient cx="0" cy="0" gradientTransform="matrix(0.0424, 0.0, 0.0, 0.0424, -59.25, -88.2)" gradientUnits="userSpaceOnUse" id="gradient87" r="819.2" spreadMethod="pad">
      <stop offset="0.0" stop-color="#1e1e1e"/>
      <stop offset="1.0" stop-color="#1e1e1e"/>
    </radialGradient>
    <radialGradient cx="0" cy="0" gradientTransform="matrix(0.0313, 0.0, 0.0, 0.0313, -110.7, -86.65)" gradientUnits="userSpaceOnUse" id="gradient88" r="819.2" spreadMethod="pad">
      <stop offset="0.0" stop-color="#5f5f5f"/>
      <stop offset="1.0" stop-color="#5e5e5e"/>
    </radialGradient>
    <radialGradient cx="0" cy="0" gradientTransform="matrix(0.0165, 0.0, 0.0, 0.0165, -103.65, -92.15)" gradientUnits="userSpaceOnUse" id="gradient89" r="819.2" spreadMethod="pad">
      <stop offset="0.0" stop-color="#020202"/>
      <stop offset="1.0" stop-color="#020202"/>
    </radialGradient>
    <radialGradient cx="0" cy="0" gradientTransform="matrix(0.039, 0.0, 0.0, 0.039, -93.0, -53.75)" gradientUnits="userSpaceOnUse" id="gradient90" r="819.2" spreadMethod="pad">
      <stop offset="0.0" stop-color="#030303"/>
      <stop offset="1.0" stop-color="#030303"/>
    </radialGradient>
    <radialGradient cx="0" cy="0" gradientTransform="matrix(0.0406, 0.0, 0.0, 0.0406, -93.0, -53.7)" gradientUnits="userSpaceOnUse" id="gradient91" r="819.2" spreadMethod="pad">
      <stop offset="0.0" stop-color="#222222"/>
      <stop offset="1.0" stop-color="#090909"/>
    </radialGradient>
    <radialGradient cx="0" cy="0" gradientTransform="matrix(0.0146, 0.0, 0.0, 0.0146, -101.5, -90.5)" gradientUnits="userSpaceOnUse" id="gradient92" r="819.2" spreadMethod="pad">
      <stop offset="0.0" stop-color="#020202"/>
      <stop offset="1.0" stop-color="#020202"/>
    </radialGradient>
    <radialGradient cx="0" cy="0" gradientTransform="matrix(0.034, 0.0, 0.0, 0.034, -80.95, -93.35)" gradientUnits="userSpaceOnUse" id="gradient93" r="819.2" spreadMethod="pad">
      <stop offset="0.0" stop-color="#1f1f1f"/>
      <stop offset="1.0" stop-color="#1e1e1e"/>
    </radialGradient>
    <radialGradient cx="0" cy="0" gradientTransform="matrix(0.0135, 0.0, 0.0, 0.0135, -96.1, -89.3)" gradientUnits="userSpaceOnUse" id="gradient94" r="819.2" spreadMethod="pad">
      <stop offset="0.0" stop-color="#020202"/>
      <stop offset="1.0" stop-color="#020202"/>
    </radialGradient>
    <radialGradient cx="0" cy="0" gradientTransform="matrix(0.0125, 0.0, 0.0, 0.0125, -93.6, -88.4)" gradientUnits="userSpaceOnUse" id="gradient95" r="819.2" spreadMethod="pad">
      <stop offset="0.0" stop-color="#020202"/>
      <stop offset="1.0" stop-color="#020202"/>
    </radialGradient>
    <radialGradient cx="0" cy="0" gradientTransform="matrix(0.0133, 0.0, 0.0, 0.0133, -98.5, -89.35)" gradientUnits="userSpaceOnUse" id="gradient96" r="819.2" spreadMethod="pad">
      <stop offset="0.0" stop-color="#020202"/>
      <stop offset="1.0" stop-color="#020202"/>
    </radialGradient>
    <radialGradient cx="0" cy="0" gradientTransform="matrix(0.0123, 0.0, 0.0, 0.0123, -91.05, -88.1)" gradientUnits="userSpaceOnUse" id="gradient97" r="819.2" spreadMethod="pad">
      <stop offset="0.0" stop-color="#020202"/>
      <stop offset="1.0" stop-color="#020202"/>
    </radialGradient>
    <radialGradient cx="0" cy="0" gradientTransform="matrix(0.0487, 0.0, 0.0, 0.0487, -13.2, -77.1)" gradientUnits="userSpaceOnUse" id="gradient98" r="819.2" spreadMethod="pad">
      <stop offset="0.0" stop-color="#313131"/>
      <stop offset="1.0" stop-color="#262626"/>
    </radialGradient>
    <radialGradient cx="0" cy="0" gradientTransform="matrix(0.044, 0.0, 0.0, 0.044, -36.6, -43.45)" gradientUnits="userSpaceOnUse" id="gradient99" r="819.2" spreadMethod="pad">
      <stop offset="0.0" stop-color="#595959"/>
      <stop offset="1.0" stop-color="#3d3d3d"/>
    </radialGradient>
    <radialGradient cx="0" cy="0" gradientTransform="matrix(0.0434, 0.0, 0.0, 0.0434, -39.15, -67.35)" gradientUnits="userSpaceOnUse" id="gradient100" r="819.2" spreadMethod="pad">
      <stop offset="0.0" stop-color="#383838"/>
      <stop offset="1.0" stop-color="#262626"/>
    </radialGradient>
    <radialGradient cx="0" cy="0" gradientTransform="matrix(0.0323, 0.0, 0.0, 0.0323, -72.85, -72.1)" gradientUnits="userSpaceOnUse" id="gradient101" r="819.2" spreadMethod="pad">
      <stop offset="0.0" stop-color="#2e2e2e"/>
      <stop offset="1.0" stop-color="#2d2d2d"/>
    </radialGradient>
    <radialGradient cx="0" cy="0" gradientTransform="matrix(0.0223, 0.0, 0.0, 0.0223, -58.1, -50.7)" gradientUnits="userSpaceOnUse" id="gradient102" r="819.2" spreadMethod="pad">
      <stop offset="0.0" stop-color="#060606"/>
      <stop offset="1.0" stop-color="#060606"/>
    </radialGradient>
    <radialGradient cx="0" cy="0" gradientTransform="matrix(0.0379, 0.0, 0.0, 0.0379, -63.0, -68.1)" gradientUnits="userSpaceOnUse" id="gradient103" r="819.2" spreadMethod="pad">
      <stop offset="0.0" stop-color="#070707"/>
      <stop offset="1.0" stop-color="#050505"/>
    </radialGradient>
    <radialGradient cx="0" cy="0" gradientTransform="matrix(0.0352, 0.0, 0.0, 0.0352, -47.45, -66.4)" gradientUnits="userSpaceOnUse" id="gradient104" r="819.2" spreadMethod="pad">
      <stop offset="0.0" stop-color="#212121"/>
      <stop offset="1.0" stop-color="#050505"/>
    </radialGradient>
    <radialGradient cx="0" cy="0" gradientTransform="matrix(0.0362, 0.0, 0.0, 0.0362, -95.65, -54.1)" gradientUnits="userSpaceOnUse" id="gradient105" r="819.2" spreadMethod="pad">
      <stop offset="0.0" stop-color="#222222"/>
      <stop offset="1.0" stop-color="#090909"/>
    </radialGradient>
    <radialGradient cx="0" cy="0" gradientTransform="matrix(0.0324, 0.0, 0.0, 0.0324, -62.85, -68.35)" gradientUnits="userSpaceOnUse" id="gradient106" r="819.2" spreadMethod="pad">
      <stop offset="0.0" stop-color="#060606"/>
      <stop offset="1.0" stop-color="#060606"/>
    </radialGradient>
    <radialGradient cx="0" cy="0" gradientTransform="matrix(0.0386, 0.0, 0.0, 0.0386, -62.15, -68.05)" gradientUnits="userSpaceOnUse" id="gradient107" r="819.2" spreadMethod="pad">
      <stop offset="0.0" stop-color="#3c3c3c"/>
      <stop offset="1.0" stop-color="#202020"/>
    </radialGradient>
    <radialGradient cx="0" cy="0" gradientTransform="matrix(0.0242, 0.0, 0.0, 0.0242, -55.7, -48.15)" gradientUnits="userSpaceOnUse" id="gradient108" r="819.2" spreadMethod="pad">
      <stop offset="0.0" stop-color="#171717"/>
      <stop offset="1.0" stop-color="#171717"/>
    </radialGradient>
    <radialGradient cx="0" cy="0" gradientTransform="matrix(0.0574, 0.0, 0.0, 0.0574, -65.9, -64.45)" gradientUnits="userSpaceOnUse" id="gradient109" r="819.2" spreadMethod="pad">
      <stop offset="0.0" stop-color="#313131"/>
      <stop offset="1.0" stop-color="#0b0b0b"/>
    </radialGradient>
    <radialGradient cx="0" cy="0" gradientTransform="matrix(0.0355, 0.0, 0.0, 0.0355, -39.9, -44.3)" gradientUnits="userSpaceOnUse" id="gradient110" r="819.2" spreadMethod="pad">
      <stop offset="0.0" stop-color="#595959"/>
      <stop offset="1.0" stop-color="#525252"/>
    </radialGradient>
    <radialGradient cx="0" cy="0" gradientTransform="matrix(0.0343, 0.0, 0.0, 0.0343, -40.4, -52.4)" gradientUnits="userSpaceOnUse" id="gradient111" r="819.2" spreadMethod="pad">
      <stop offset="0.0" stop-color="#414141"/>
      <stop offset="1.0" stop-color="#3b3b3b"/>
    </radialGradient>
    <radialGradient cx="0" cy="0" gradientTransform="matrix(0.0301, 0.0, 0.0, 0.0301, -37.05, -42.9)" gradientUnits="userSpaceOnUse" id="gradient112" r="819.2" spreadMethod="pad">
      <stop offset="0.0" stop-color="#0b0b0b"/>
      <stop offset="1.0" stop-color="#0b0b0b"/>
    </radialGradient>
    <radialGradient cx="0" cy="0" gradientTransform="matrix(0.043, 0.0, 0.0, 0.043, -65.65, -65.05)" gradientUnits="userSpaceOnUse" id="gradient113" r="819.2" spreadMethod="pad">
      <stop offset="0.0" stop-color="#616161"/>
      <stop offset="1.0" stop-color="#181818"/>
    </radialGradient>
    <radialGradient cx="0" cy="0" gradientTransform="matrix(0.0427, 0.0, 0.0, 0.0427, -65.6, -64.75)" gradientUnits="userSpaceOnUse" id="gradient114" r="819.2" spreadMethod="pad">
      <stop offset="0.0" stop-color="#262626"/>
      <stop offset="1.0" stop-color="#0a0a0a"/>
    </radialGradient>
    <radialGradient cx="0" cy="0" gradientTransform="matrix(0.0418, 0.0, 0.0, 0.0418, -64.4, -65.95)" gradientUnits="userSpaceOnUse" id="gradient115" r="819.2" spreadMethod="pad">
      <stop offset="0.0" stop-color="#6f6f6f"/>
      <stop offset="1.0" stop-color="#313131"/>
    </radialGradient>
    <radialGradient cx="0" cy="0" gradientTransform="matrix(0.0434, 0.0, 0.0, 0.0434, -36.85, -78.45)" gradientUnits="userSpaceOnUse" id="gradient116" r="819.2" spreadMethod="pad">
      <stop offset="0.0" stop-color="#313131"/>
      <stop offset="1.0" stop-color="#1d1d1d"/>
    </radialGradient>
    <radialGradient cx="0" cy="0" gradientTransform="matrix(0.0928, 0.0, 0.0, 0.0928, -218.8, -33.8)" gradientUnits="userSpaceOnUse" id="gradient117" r="819.2" spreadMethod="pad">
      <stop offset="0.0" stop-color="#3e3e3e"/>
      <stop offset="1.0" stop-color="#151515"/>
    </radialGradient>
    <radialGradient cx="0" cy="0" gradientTransform="matrix(0.0406, 0.0, 0.0, 0.0406, -65.1, -66.4)" gradientUnits="userSpaceOnUse" id="gradient118" r="819.2" spreadMethod="pad">
      <stop offset="0.0" stop-color="#333333"/>
      <stop offset="1.0" stop-color="#141414"/>
    </radialGradient>
    <radialGradient cx="0" cy="0" gradientTransform="matrix(0.0332, 0.0, 0.0, 0.0332, -43.15, -44.3)" gradientUnits="userSpaceOnUse" id="gradient119" r="819.2" spreadMethod="pad">
      <stop offset="0.0" stop-color="#0b0b0b"/>
      <stop offset="1.0" stop-color="#0b0b0b"/>
    </radialGradient>
    <radialGradient cx="0" cy="0" gradientTransform="matrix(0.0342, 0.0, 0.0, 0.0342, -39.3, -54.25)" gradientUnits="userSpaceOnUse" id="gradient120" r="819.2" spreadMethod="pad">
      <stop offset="0.0" stop-color="#313131"/>
      <stop offset="1.0" stop-color="#2a2a2a"/>
    </radialGradient>
    <radialGradient cx="0" cy="0" gradientTransform="matrix(0.0562, 0.0, 0.0, 0.0562, -30.4, -6.5)" gradientUnits="userSpaceOnUse" id="gradient121" r="819.2" spreadMethod="pad">
      <stop offset="0.0" stop-color="#2d2d2d"/>
      <stop offset="1.0" stop-color="#252525"/>
    </radialGradient>
    <radialGradient cx="0" cy="0" gradientTransform="matrix(0.0374, 0.0, 0.0, 0.0374, -61.45, -42.5)" gradientUnits="userSpaceOnUse" id="gradient122" r="819.2" spreadMethod="pad">
      <stop offset="0.0" stop-color="#131313"/>
      <stop offset="1.0" stop-color="#121212"/>
    </radialGradient>
    <radialGradient cx="0" cy="0" gradientTransform="matrix(0.0358, 0.0, 0.0, 0.0358, -61.9, -39.2)" gradientUnits="userSpaceOnUse" id="gradient123" r="819.2" spreadMethod="pad">
      <stop offset="0.0" stop-color="#010101"/>
      <stop offset="1.0" stop-color="#010101"/>
    </radialGradient>
    <radialGradient cx="0" cy="0" gradientTransform="matrix(0.0342, 0.0, 0.0, 0.0342, -34.15, -56.4)" gradientUnits="userSpaceOnUse" id="gradient124" r="819.2" spreadMethod="pad">
      <stop offset="0.0" stop-color="#010101"/>
      <stop offset="1.0" stop-color="#010101"/>
    </radialGradient>
    <radialGradient cx="0" cy="0" gradientTransform="matrix(0.0391, 0.0, 0.0, 0.0391, -33.55, -22.0)" gradientUnits="userSpaceOnUse" id="gradient125" r="819.2" spreadMethod="pad">
      <stop offset="0.0" stop-color="#101010"/>
      <stop offset="1.0" stop-color="#101010"/>
    </radialGradient>
    <radialGradient cx="0" cy="0" gradientTransform="matrix(0.109, 0.0, 0.0, 0.109, -158.0, -26.1)" gradientUnits="userSpaceOnUse" id="gradient126" r="819.2" spreadMethod="pad">
      <stop offset="0.0" stop-color="#1d1d1d"/>
      <stop offset="1.0" stop-color="#060606"/>
    </radialGradient>
    <radialGradient cx="0" cy="0" gradientTransform="matrix(0.0672, 0.0, 0.0, 0.0672, -83.45, -11.3)" gradientUnits="userSpaceOnUse" id="gradient127" r="819.2" spreadMethod="pad">
      <stop offset="0.0" stop-color="#868686"/>
      <stop offset="1.0" stop-color="#060606"/>
    </radialGradient>
    <radialGradient cx="0" cy="0" gradientTransform="matrix(0.0289, 0.0, 0.0, 0.0289, -28.15, -5.1)" gradientUnits="userSpaceOnUse" id="gradient128" r="819.2" spreadMethod="pad">
      <stop offset="0.0" stop-color="#131313"/>
      <stop offset="1.0" stop-color="#0b0b0b"/>
    </radialGradient>
    <radialGradient cx="0" cy="0" gradientTransform="matrix(0.0606, 0.0, 0.0, 0.0606, -330.7, -25.45)" gradientUnits="userSpaceOnUse" id="gradient129" r="819.2" spreadMethod="pad">
      <stop offset="0.0" stop-color="#6a6a6a"/>
      <stop offset="1.0" stop-color="#000000"/>
    </radialGradient>
    <radialGradient cx="0" cy="0" gradientTransform="matrix(0.138, 0.0, 0.0, 0.138, -41.1, -5.65)" gradientUnits="userSpaceOnUse" id="gradient130" r="819.2" spreadMethod="pad">
      <stop offset="0.0" stop-color="#131313"/>
      <stop offset="1.0" stop-color="#000000"/>
    </radialGradient>
    <radialGradient cx="0" cy="0" gradientTransform="matrix(0.0324, 0.0, 0.0, 0.0324, -146.7, -1.0)" gradientUnits="userSpaceOnUse" id="gradient131" r="819.2" spreadMethod="pad">
      <stop offset="0.0" stop-color="#000000"/>
      <stop offset="1.0" stop-color="#000000"/>
    </radialGradient>
    <radialGradient cx="0" cy="0" gradientTransform="matrix(0.0523, 0.0, 0.0, 0.0523, -195.8, -19.55)" gradientUnits="userSpaceOnUse" id="gradient132" r="819.2" spreadMethod="pad">
      <stop offset="0.0" stop-color="#000000"/>
      <stop offset="1.0" stop-color="#000000"/>
    </radialGradient>
    <radialGradient cx="0" cy="0" gradientTransform="matrix(0.0075, 0.0, 0.0, 0.0075, -205.4, -4.0)" gradientUnits="userSpaceOnUse" id="gradient133" r="819.2" spreadMethod="pad">
      <stop offset="0.0" stop-color="#000000"/>
      <stop offset="1.0" stop-color="#000000"/>
    </radialGradient>
    <radialGradient cx="0" cy="0" gradientTransform="matrix(0.0091, 0.0, 0.0, 0.0091, -35.1, -1.0)" gradientUnits="userSpaceOnUse" id="gradient134" r="819.2" spreadMethod="pad">
      <stop offset="0.0" stop-color="#040404"/>
      <stop offset="1.0" stop-color="#040404"/>
    </radialGradient>
    <radialGradient cx="0" cy="0" gradientTransform="matrix(0.0058, 0.0, 0.0, 0.0058, -31.75, -1.0)" gradientUnits="userSpaceOnUse" id="gradient135" r="819.2" spreadMethod="pad">
      <stop offset="0.0" stop-color="#313131"/>
      <stop offset="1.0" stop-color="#1f1f1f"/>
    </radialGradient>
  </defs>
</svg>
