<?xml version="1.0" encoding="UTF-8" standalone="no"?>
<svg xmlns:xlink="http://www.w3.org/1999/xlink" height="299.1px" width="399.1px" xmlns="http://www.w3.org/2000/svg">
  <g transform="matrix(1.0, 0.0, 0.0, 1.0, 400.0, 300.0)">
    <path d="M-367.75 -183.15 L-377.75 -183.5 -381.9 -199.25 -394.25 -207.15 -399.9 -218.0 -399.9 -230.25 -398.5 -228.15 -385.0 -226.4 -383.65 -216.75 -377.4 -199.15 -367.75 -183.15 M-399.9 -259.65 L-400.0 -282.5 -398.4 -284.15 -386.0 -300.0 -373.25 -300.0 -377.9 -283.4 -377.65 -283.15 -379.15 -274.9 -380.4 -272.5 -383.9 -259.25 -385.65 -259.25 -386.15 -259.25 -387.0 -259.4 -392.65 -259.5 -393.5 -259.65 -395.65 -259.65 -396.65 -259.75 -399.9 -259.65" fill="url(#gradient0)" fill-rule="evenodd" stroke="none"/>
    <path d="M-373.25 -300.0 L-199.9 -300.0 -195.5 -291.4 -183.4 -263.15 -180.0 -232.9 -184.9 -202.0 -197.9 -175.0 -202.65 -167.9 -224.75 -145.75 -225.75 -145.4 -234.75 -144.75 -241.65 -145.65 -242.15 -145.75 -249.65 -154.5 -250.15 -155.15 -251.75 -154.75 -268.5 -148.65 -293.9 -165.9 -334.4 -188.4 -359.9 -223.4 -366.5 -232.65 -362.65 -257.75 -359.25 -279.65 -359.5 -280.25 -372.25 -258.0 -385.0 -233.75 -385.25 -234.0 -381.9 -257.0 -381.5 -258.15 -381.4 -259.15 -379.15 -274.9 -377.65 -283.15 -377.9 -283.4 -373.25 -300.0 M-253.0 -164.75 L-272.5 -164.9 -268.5 -149.0 -268.15 -148.9 -253.0 -164.75" fill="url(#gradient1)" fill-rule="evenodd" stroke="none"/>
    <path d="M-312.25 -147.0 Q-345.65 -156.4 -360.65 -175.4 L-360.5 -175.4 -354.5 -172.0 Q-352.75 -170.65 -347.65 -173.75 L-347.15 -174.4 -346.75 -176.5 -349.4 -177.25 -348.75 -177.4 -349.0 -177.9 -356.0 -182.9 -358.15 -183.75 -359.65 -183.9 -361.0 -183.5 -363.0 -184.75 -365.15 -184.75 -367.0 -182.25 -367.75 -183.15 -377.4 -199.15 -383.65 -216.75 -385.0 -226.4 -382.5 -226.15 -378.5 -226.15 -376.4 -230.5 -372.9 -224.75 -359.9 -223.4 -334.4 -188.4 -293.9 -165.9 -268.5 -148.65 -251.75 -154.75 -250.15 -155.15 -249.65 -154.5 -261.0 -148.9 -270.65 -146.75 -272.75 -146.25 -279.25 -145.0 -285.9 -144.5 -293.65 -144.5 -293.5 -144.25 -302.65 -145.15 -312.25 -147.0 M-372.25 -258.0 L-359.5 -280.25 -359.25 -279.65 -362.65 -257.75 -372.25 -258.0 M-383.9 -259.25 L-380.4 -272.5 -379.15 -274.9 -381.4 -259.15 -383.0 -259.15 -383.4 -259.25 -383.9 -259.25 M-359.0 -179.4 L-358.65 -179.4 -358.25 -179.25 -357.9 -179.25 -356.9 -178.9 -358.4 -178.9 -359.0 -179.4 M-253.0 -164.75 L-268.15 -148.9 -268.5 -149.0 -272.5 -164.9 -253.0 -164.75" fill="url(#gradient2)" fill-rule="evenodd" stroke="none"/>
    <path d="M-399.9 -230.25 L-399.9 -259.65 -396.65 -259.75 -395.65 -259.65 -393.5 -259.65 -392.65 -259.5 -387.0 -259.4 -386.15 -259.25 -385.65 -259.25 -382.75 -258.15 -381.9 -257.0 -385.25 -234.0 -385.0 -233.75 -372.25 -258.0 -362.65 -257.75 -366.5 -232.65 -359.9 -223.4 -372.9 -224.75 -376.4 -230.5 -377.65 -232.9 -378.5 -234.15 -379.15 -232.9 -382.5 -226.15 -385.0 -226.4 -398.5 -228.15 -399.9 -230.25" fill="url(#gradient3)" fill-rule="evenodd" stroke="none"/>
    <path d="M-381.5 -258.15 L-381.9 -257.0 -382.75 -258.15 -381.5 -258.15" fill="url(#gradient4)" fill-rule="evenodd" stroke="none"/>
    <path d="M-385.65 -259.25 L-383.9 -259.25 -383.4 -259.25 -383.0 -259.15 -381.4 -259.15 -381.5 -258.15 -382.75 -258.15 -385.65 -259.25" fill="url(#gradient5)" fill-rule="evenodd" stroke="none"/>
    <path d="M-400.0 -282.5 L-400.0 -284.4 -390.5 -299.9 -386.0 -300.0 -398.4 -284.15 -400.0 -282.5" fill="url(#gradient6)" fill-rule="evenodd" stroke="none"/>
    <path d="M-379.15 -232.9 L-378.5 -234.15 -377.65 -232.9 -379.15 -232.9" fill="url(#gradient7)" fill-rule="evenodd" stroke="none"/>
    <path d="M-377.65 -232.9 L-376.4 -230.5 -378.5 -226.15 -382.5 -226.15 -379.15 -232.9 -377.65 -232.9" fill="url(#gradient8)" fill-rule="evenodd" stroke="none"/>
    <path d="M-367.4 -181.4 L-367.65 -181.5 -367.0 -182.25 -365.15 -184.75 -363.0 -184.75 -361.0 -183.5 -359.65 -183.9 -358.15 -183.75 -356.0 -182.9 -349.0 -177.9 -348.75 -177.4 -349.4 -177.25 -355.5 -178.65 -356.5 -178.75 -356.65 -178.85 -355.5 -178.65 -351.0 -177.9 -355.15 -181.15 -358.4 -182.9 -359.9 -183.15 -361.25 -182.65 -364.0 -184.0 -365.4 -184.0 -367.4 -181.4 M-359.0 -179.4 L-359.4 -179.5 -359.75 -179.65 -359.0 -179.4" fill="url(#gradient9)" fill-rule="evenodd" stroke="none"/>
    <path d="M-366.0 -180.25 L-366.25 -180.65 -365.75 -180.9 -364.75 -180.75 -364.65 -180.75 -359.9 -179.65 -359.75 -179.65 -359.4 -179.5 -359.0 -179.4 -358.4 -178.9 -356.9 -178.9 -356.75 -178.9 -356.65 -178.85 -356.5 -178.75 -355.5 -178.65 -349.4 -177.25 -346.75 -176.5 -347.15 -174.4 -347.65 -173.75 Q-352.75 -170.65 -354.5 -172.0 -348.5 -171.75 -347.65 -176.0 L-366.0 -180.25" fill="url(#gradient10)" fill-rule="evenodd" stroke="none"/>
    <path d="M-365.75 -180.9 L-365.9 -181.0 -366.25 -181.15 -367.0 -181.25 -367.25 -181.4 -367.4 -181.4 -365.4 -184.0 -364.0 -184.0 -361.25 -182.65 -359.9 -183.15 -358.4 -182.9 -355.15 -181.15 -351.0 -177.9 -355.5 -178.65 -356.65 -178.85 -356.75 -178.9 -356.9 -178.9 -357.9 -179.25 -358.25 -179.25 -358.65 -179.4 -359.0 -179.4 -359.75 -179.65 -359.9 -179.65 -364.65 -180.75 -364.75 -180.75 -365.75 -180.9" fill="url(#gradient11)" fill-rule="evenodd" stroke="none"/>
    <path d="M-360.65 -175.4 L-361.25 -176.0 -363.9 -178.0 -366.0 -180.25 -347.65 -176.0 Q-348.5 -171.75 -354.5 -172.0 L-360.5 -175.4 -360.65 -175.4" fill="url(#gradient12)" fill-rule="evenodd" stroke="none"/>
    <path d="M-270.65 -146.75 L-265.4 -140.5 -251.5 -132.25 Q-244.15 -130.0 -242.25 -127.5 L-249.65 -124.9 -290.15 -133.0 -287.5 -137.75 -284.9 -134.25 Q-277.0 -133.5 -274.75 -136.25 L-274.15 -137.65 -277.9 -142.4 -272.75 -143.25 -272.75 -146.25 -270.65 -146.75" fill="url(#gradient13)" fill-rule="evenodd" stroke="none"/>
    <path d="M-287.5 -137.75 L-287.5 -139.4 -285.9 -144.5 -279.25 -145.0 -272.75 -146.25 -272.75 -143.25 -277.9 -142.4 -274.15 -137.65 -274.75 -136.25 Q-277.0 -133.5 -284.9 -134.25 L-287.5 -137.75" fill="url(#gradient14)" fill-rule="evenodd" stroke="none"/>
    <path d="M-287.5 -139.4 L-293.5 -144.25 -293.65 -144.5 -285.9 -144.5 -287.5 -139.4" fill="url(#gradient15)" fill-rule="evenodd" stroke="none"/>
    <path d="M-322.4 -136.0 L-312.9 -143.75 -312.65 -144.0 -312.25 -147.0 -302.65 -145.15 -293.5 -144.25 -287.5 -139.4 -287.5 -137.75 -290.15 -133.0 -299.25 -120.25 -299.4 -120.25 -316.15 -120.65 -334.75 -127.0 -330.0 -130.4 -322.4 -136.0" fill="url(#gradient16)" fill-rule="evenodd" stroke="none"/>
    <path d="M-342.25 -128.25 L-326.25 -135.4 -322.4 -136.0 -330.0 -130.4 -337.4 -130.0 -342.25 -128.25" fill="url(#gradient17)" fill-rule="evenodd" stroke="none"/>
    <path d="M-345.5 -126.15 L-345.25 -127.0 -343.15 -127.9 -343.0 -128.0 -342.65 -128.15 -342.5 -128.15 -342.25 -128.25 -337.4 -130.0 -342.0 -113.75 -344.15 -99.15 -349.25 -106.65 -345.5 -126.15" fill="url(#gradient18)" fill-rule="evenodd" stroke="none"/>
    <path d="M-330.0 -130.4 L-334.75 -127.0 -337.0 -119.25 -337.15 -119.0 -342.0 -113.75 -337.4 -130.0 -330.0 -130.4" fill="url(#gradient19)" fill-rule="evenodd" stroke="none"/>
    <path d="M-299.25 -120.25 L-290.15 -133.0 -249.65 -124.9 -299.25 -120.25" fill="url(#gradient20)" fill-rule="evenodd" stroke="none"/>
    <path d="M-237.75 -112.4 L-216.75 -93.25 -233.9 -97.5 -241.25 -95.65 -253.15 -86.4 -262.4 -110.65 Q-262.65 -112.0 -267.9 -112.65 L-299.25 -120.25 -249.65 -124.9 -246.5 -121.65 -240.9 -114.9 -237.75 -112.4" fill="url(#gradient21)" fill-rule="evenodd" stroke="none"/>
    <path d="M-381.25 -83.4 L-380.65 -84.5 -372.75 -90.0 -351.25 -112.25 -348.0 -120.4 -347.9 -120.75 -345.5 -126.15 -349.25 -106.65 -344.15 -99.15 -344.15 -97.65 -344.9 -95.75 -346.15 -94.25 Q-370.0 -88.25 -377.5 -69.75 L-379.4 -70.9 -381.25 -83.4" fill="url(#gradient22)" fill-rule="evenodd" stroke="none"/>
    <path d="M-380.65 -84.5 L-356.5 -112.15 -356.65 -112.4 -347.9 -120.75 -348.0 -120.4 -351.25 -112.25 -372.75 -90.0 -380.65 -84.5" fill="url(#gradient23)" fill-rule="evenodd" stroke="none"/>
    <path d="M-242.25 -127.5 L-239.5 -114.5 -246.5 -121.65 -249.65 -124.9 -242.25 -127.5" fill="url(#gradient24)" fill-rule="evenodd" stroke="none"/>
    <path d="M-239.5 -114.5 L-237.75 -112.4 -240.9 -114.9 -246.5 -121.65 -239.5 -114.5" fill="url(#gradient25)" fill-rule="evenodd" stroke="none"/>
    <path d="M-338.5 -0.9 L-342.25 -0.9 -348.75 -5.4 -350.4 -6.15 -354.4 -13.25 -354.5 -13.5 Q-353.25 -14.15 -354.0 -18.75 L-356.15 -23.75 Q-354.55 -27.05 -353.85 -30.8 -353.7 -28.4 -353.0 -26.65 -353.0 -16.15 -338.5 -0.9 M-334.75 -127.0 L-316.15 -120.65 -299.4 -120.25 -299.25 -119.4 -300.25 -119.4 -300.9 -119.25 -299.0 -117.75 -294.75 -75.15 -298.15 -61.4 Q-298.75 -64.15 -303.9 -67.65 L-309.4 -70.4 -316.4 -71.5 -323.9 -71.75 -328.15 -72.5 -333.0 -71.25 -339.5 -67.0 -339.65 -66.4 -343.15 -62.75 -343.75 -61.65 -344.9 -60.75 Q-351.5 -46.6 -353.25 -37.6 L-353.25 -37.75 -354.25 -47.15 -350.4 -53.65 -350.0 -53.65 -346.75 -64.5 Q-344.75 -81.9 -348.25 -83.4 L-346.65 -87.15 -345.25 -92.0 -345.0 -94.0 -346.15 -94.25 -344.9 -95.75 -344.15 -97.65 -342.65 -100.15 -342.25 -101.0 -337.15 -119.0 -337.0 -119.25 -334.75 -127.0" fill="url(#gradient26)" fill-rule="evenodd" stroke="none"/>
    <path d="M-337.15 -119.0 L-342.25 -101.0 -342.65 -100.15 -344.15 -97.65 -344.15 -99.15 -342.0 -113.75 -337.15 -119.0" fill="url(#gradient27)" fill-rule="evenodd" stroke="none"/>
    <path d="M-21.75 -123.65 L-21.4 -123.65 -38.75 -113.9 -40.4 -113.75 -23.5 -123.15 -21.75 -123.5 -21.75 -123.65" fill="url(#gradient28)" fill-rule="evenodd" stroke="none"/>
    <path d="M-21.4 -123.65 L-19.4 -123.5 -19.4 -123.4 -36.0 -114.25 -36.15 -114.15 -36.75 -113.75 -38.75 -113.9 -21.4 -123.65" fill="url(#gradient29)" fill-rule="evenodd" stroke="none"/>
    <path d="M-80.75 -112.65 L-78.4 -112.75 -74.25 -110.4 -72.4 -108.9 -72.0 -109.0 -66.65 -109.4 -65.25 -109.9 -65.15 -110.0 -64.0 -110.75 -63.75 -110.75 -57.5 -110.9 -57.5 -110.75 -55.75 -83.4 -58.4 -83.25 -58.25 -84.4 -58.25 -85.0 -58.4 -85.65 -59.9 -110.0 -60.9 -109.9 -59.25 -83.25 -61.25 -83.15 -61.75 -92.4 -62.75 -92.5 -62.25 -83.15 -64.15 -83.0 -64.75 -92.25 -65.75 -92.5 -65.25 -82.9 -66.9 -82.9 -67.75 -93.0 -68.75 -93.25 -68.75 -92.9 -68.15 -83.75 -67.75 -82.9 -70.25 -82.75 -70.25 -83.25 -70.4 -83.9 -70.4 -86.0 -70.5 -86.5 -70.9 -93.0 -71.65 -93.0 -71.4 -82.65 -82.15 -82.25 -82.25 -82.5 -82.25 -82.75 -82.25 -84.9 -82.25 -87.5 -82.25 -88.0 -82.25 -88.4 -82.4 -88.9 -82.65 -101.75 -82.15 -102.5 -81.75 -102.9 -81.25 -103.25 -81.0 -103.5 -80.9 -103.75 -81.0 -105.65 -81.4 -106.9 -82.0 -106.9 -81.25 -108.15 -80.65 -108.15 -80.25 -108.65 -80.9 -111.4 -80.75 -112.65 M-86.0 -87.75 L-92.75 -97.4 -92.4 -98.25 -89.9 -98.15 -90.0 -98.65 -92.0 -98.4 -91.15 -99.65 -91.25 -100.25 -90.75 -100.4 -90.9 -100.4 -87.0 -100.75 -89.0 -100.4 -88.9 -100.15 -86.75 -100.25 -86.5 -99.9 -86.0 -100.25 -85.25 -100.15 -85.15 -100.0 -85.4 -99.75 -85.4 -99.65 -85.65 -99.25 -86.4 -99.25 -85.65 -99.0 -87.25 -98.9 -85.5 -98.5 -85.75 -97.5 -85.75 -96.5 -85.75 -96.4 -86.0 -92.15 -85.9 -91.5 -86.0 -89.75 -86.15 -89.4 -85.9 -89.5 -86.0 -87.75 M-93.65 -98.65 L-93.9 -99.0 -93.9 -99.25 -93.4 -100.0 -94.0 -99.5 -94.0 -99.65 -94.15 -99.9 -93.75 -100.5 -93.65 -100.25 -93.5 -100.7 -93.5 -100.75 -93.45 -100.7 -93.25 -100.25 -93.0 -100.4 -93.65 -98.65 M-54.65 -83.5 L-54.75 -84.4 -54.75 -84.75 -54.9 -85.65 -54.9 -86.9 -55.25 -91.65 -55.25 -92.15 -55.4 -92.9 -55.4 -93.9 -55.5 -94.15 -55.65 -97.75 -53.75 -97.9 -53.0 -83.5 -54.65 -83.5 M-40.5 -113.65 L-40.4 -113.75 -38.75 -113.9 -36.75 -113.75 -35.5 -112.5 -32.15 -99.15 -32.15 -98.75 -32.0 -98.25 -32.15 -85.25 -31.9 -85.4 -31.9 -84.65 -31.25 -85.4 -31.15 -84.65 -31.0 -84.65 -35.25 -84.4 -35.4 -84.4 -35.4 -84.75 -35.5 -85.65 -35.65 -89.5 -36.15 -99.0 -32.9 -99.4 -33.9 -103.15 -33.9 -103.4 -34.0 -103.65 -34.0 -103.9 -34.15 -104.15 -36.25 -112.4 -36.5 -112.5 -37.65 -113.15 -37.9 -113.25 -39.15 -113.65 -40.5 -113.65 M-31.65 -97.0 L-31.5 -96.75 -31.9 -95.4 -31.9 -98.0 -31.75 -97.75 -31.75 -97.4 -31.65 -97.0 M-31.75 -93.65 L-31.75 -95.15 -31.5 -95.25 -31.5 -94.5 -31.75 -93.65 M-31.4 -87.15 L-31.4 -86.75 -31.65 -86.5 -31.4 -87.15 M-36.65 -84.25 L-38.65 -84.25 -38.9 -89.0 -39.0 -89.4 -39.4 -98.75 -40.0 -98.75 -40.4 -98.4 -40.15 -95.25 -40.4 -94.0 -39.9 -84.15 -41.9 -84.0 -41.9 -84.15 -42.65 -98.65 -40.0 -98.75 -37.0 -99.0 -36.65 -84.25 M-43.15 -84.0 L-45.25 -83.9 -45.4 -84.65 -46.0 -98.4 -43.65 -98.5 -43.15 -84.0 M-46.5 -83.9 L-48.5 -83.75 -48.5 -84.75 -48.65 -85.25 -49.25 -98.15 -47.0 -98.4 -46.5 -83.9 M-49.65 -83.65 L-51.75 -83.65 -51.9 -84.25 -52.0 -87.4 -52.15 -87.9 -52.65 -98.0 -50.25 -98.15 -49.65 -83.65 M-61.4 -94.75 L-61.25 -95.15 -61.75 -95.25 -62.65 -95.4 -63.0 -95.0 -63.0 -94.25 -61.65 -94.25 -61.4 -94.75 M-74.9 -90.65 L-74.5 -83.15 -74.4 -82.65 -73.4 -82.65 -73.4 -83.0 -73.65 -85.75 -73.65 -86.15 -73.75 -86.5 -74.4 -93.75 -75.25 -93.9 -75.4 -93.15 -74.9 -90.65 M-84.65 -101.25 L-84.5 -101.4 -84.4 -101.4 -84.65 -101.15 -84.65 -101.25 M-84.65 -100.15 L-84.65 -99.4 -85.0 -99.15 -85.0 -99.5 -84.9 -99.5 -84.9 -99.75 -84.9 -100.5 -84.65 -100.4 -84.65 -100.15 M-85.25 -100.4 L-85.5 -100.75 -85.15 -100.75 -85.15 -100.5 -85.25 -100.4 M-85.15 -98.65 L-84.75 -98.65 -85.15 -98.25 -85.15 -98.65 M-77.75 -95.25 L-77.25 -82.5 -76.25 -82.5 -76.4 -86.65 -76.5 -87.15 -76.9 -95.15 -77.75 -95.25 M-90.15 -97.4 L-90.4 -97.9 -90.75 -97.9 -90.75 -97.5 -91.9 -97.75 -90.9 -97.25 -90.15 -97.4 M-89.5 -98.75 L-89.0 -98.5 -88.75 -98.75 -89.0 -98.4 -88.65 -98.25 -88.4 -98.65 -88.65 -98.5 -88.65 -98.9 -89.9 -100.0 -89.5 -98.75 M-89.75 -97.0 L-89.75 -96.75 -89.65 -96.5 -89.5 -96.25 -89.4 -96.0 -89.75 -97.0 -89.9 -98.0 -90.0 -96.9 -89.75 -97.0 M-90.15 -98.75 L-90.4 -99.4 -91.25 -98.75 -90.15 -98.75 M-91.65 -100.15 L-92.4 -100.15 -92.5 -100.5 -92.15 -100.65 -92.4 -100.25 -91.65 -100.15 M-92.0 -99.15 L-92.4 -98.75 -93.5 -99.0 -92.0 -99.15 M-88.4 -94.0 L-88.75 -94.25 -88.65 -93.75 -89.0 -93.75 -89.15 -93.25 -87.75 -93.15 -88.4 -94.0 M-83.9 -84.5 L-83.9 -84.75 -83.5 -84.4 -83.9 -84.5 M-82.9 -83.5 L-83.15 -83.65 -83.0 -83.9 -82.9 -83.5" fill="url(#gradient30)" fill-rule="evenodd" stroke="none"/>
    <path d="M-40.0 -120.4 L-38.5 -121.15 -21.75 -123.65 -21.75 -123.5 -23.5 -123.15 -40.4 -113.75 -40.5 -113.65 -56.5 -111.4 -55.9 -111.75 -55.75 -111.9 -55.5 -112.0 -55.15 -112.25 -40.0 -120.4" fill="url(#gradient31)" fill-rule="evenodd" stroke="none"/>
    <path d="M-48.9 -118.9 L-46.4 -120.15 -40.0 -120.4 -55.15 -112.25 -55.5 -112.0 -55.75 -111.9 -55.9 -111.75 -56.5 -111.4 -56.75 -111.25 -57.5 -110.9 -63.75 -110.75 -48.9 -118.9" fill="url(#gradient32)" fill-rule="evenodd" stroke="none"/>
    <path d="M-54.65 -118.25 L-48.9 -118.9 -63.75 -110.75 -64.0 -110.75 -65.15 -110.0 -65.25 -109.9 -66.65 -109.4 -72.0 -109.0 -54.65 -118.25" fill="url(#gradient33)" fill-rule="evenodd" stroke="none"/>
    <path d="M-56.5 -119.5 L-54.65 -118.25 -72.0 -109.0 -72.4 -108.9 -74.25 -110.4 -56.5 -119.5" fill="url(#gradient34)" fill-rule="evenodd" stroke="none"/>
    <path d="M-78.4 -112.75 L-60.75 -121.9 -56.5 -119.5 -74.25 -110.4 -78.4 -112.75" fill="url(#gradient35)" fill-rule="evenodd" stroke="none"/>
    <path d="M-80.75 -112.65 Q-72.3 -117.0 -63.9 -121.4 L-60.75 -121.9 -78.4 -112.75 -80.75 -112.65" fill="url(#gradient36)" fill-rule="evenodd" stroke="none"/>
    <path d="M-19.4 -123.5 L-0.9 -125.65 -0.9 -117.65 -36.4 -113.9 -36.15 -114.15 -36.0 -114.25 -19.4 -123.4 -19.4 -123.5" fill="url(#gradient37)" fill-rule="evenodd" stroke="none"/>
    <path d="M-0.9 -117.65 L-0.9 -105.65 -5.4 -107.15 -9.75 -109.9 -11.0 -111.25 -11.25 -111.65 -11.5 -111.9 -12.0 -112.65 -34.5 -110.4 -35.15 -112.65 -36.4 -113.9 -0.9 -117.65" fill="url(#gradient38)" fill-rule="evenodd" stroke="none"/>
    <path d="M-35.5 -112.5 L-36.75 -113.75 -36.15 -114.15 -36.4 -113.9 -35.15 -112.65 -35.5 -112.5" fill="url(#gradient39)" fill-rule="evenodd" stroke="none"/>
    <path d="M-299.4 -120.25 L-299.25 -120.25 -267.9 -112.65 Q-262.65 -112.0 -262.4 -110.65 L-265.4 -88.75 -262.9 -58.5 -268.0 -50.0 -273.5 -74.0 -297.9 -117.65 -297.5 -118.65 -296.0 -118.9 -297.25 -119.15 -297.65 -119.15 -298.9 -119.4 -299.25 -119.4 -299.4 -120.25" fill="url(#gradient40)" fill-rule="evenodd" stroke="none"/>
    <path d="M-262.4 -110.65 L-253.15 -86.4 -265.4 -88.75 -262.4 -110.65" fill="url(#gradient41)" fill-rule="evenodd" stroke="none"/>
    <path d="M-194.75 -0.9 L-205.5 -0.9 -235.65 -26.9 -257.9 -52.65 -262.9 -58.5 -265.4 -88.75 -253.15 -86.4 -232.15 -66.65 -209.9 -44.75 -183.25 -16.25 -194.75 -0.9" fill="url(#gradient42)" fill-rule="evenodd" stroke="none"/>
    <path d="M-262.9 -58.5 L-257.9 -52.65 -267.75 -49.75 -268.0 -50.0 -262.9 -58.5" fill="url(#gradient43)" fill-rule="evenodd" stroke="none"/>
    <path d="M-235.65 -26.9 L-235.9 -24.25 -245.0 -12.5 -254.0 -6.0 -267.75 -0.9 -284.25 -0.9 Q-284.5 -2.9 -275.5 -10.25 L-270.25 -18.15 -269.25 -22.25 -268.5 -27.9 -269.65 -36.9 Q-269.5 -38.25 -275.25 -43.9 L-277.5 -45.0 -280.15 -51.9 -287.0 -58.75 -291.15 -60.75 -297.5 -61.0 -298.15 -61.4 -294.75 -75.15 -299.0 -117.75 -297.9 -117.65 -273.5 -74.0 -268.0 -50.0 -267.75 -49.75 -257.9 -52.65 -235.65 -26.9" fill="url(#gradient44)" fill-rule="evenodd" stroke="none"/>
    <path d="M-299.0 -117.75 L-300.9 -119.25 -300.25 -119.4 -297.65 -119.15 -297.25 -119.15 -296.0 -118.9 -297.5 -118.65 -297.9 -117.65 -299.0 -117.75" fill="url(#gradient45)" fill-rule="evenodd" stroke="none"/>
    <path d="M-300.25 -119.4 L-299.25 -119.4 -298.9 -119.4 -297.65 -119.15 -300.25 -119.4" fill="url(#gradient46)" fill-rule="evenodd" stroke="none"/>
    <path d="M-284.25 -0.9 L-338.5 -0.9 Q-353.0 -16.15 -353.0 -26.65 -353.7 -28.4 -353.85 -30.8 -354.0 -33.75 -353.25 -37.6 -351.5 -46.6 -344.9 -60.75 L-343.75 -61.65 -343.15 -62.75 -339.65 -66.4 -339.5 -67.0 -333.0 -71.25 -328.15 -72.5 -323.9 -71.75 -316.4 -71.5 -309.4 -70.4 -303.9 -67.65 Q-298.75 -64.15 -298.15 -61.4 L-297.5 -61.0 -291.15 -60.75 -287.0 -58.75 -280.15 -51.9 -277.5 -45.0 -275.25 -43.9 Q-269.5 -38.25 -269.65 -36.9 L-268.5 -27.9 -269.25 -22.25 -270.25 -18.15 -275.5 -10.25 Q-284.5 -2.9 -284.25 -0.9" fill="url(#gradient47)" fill-rule="evenodd" stroke="none"/>
    <path d="M-235.9 -24.25 L-238.0 -0.9 -267.75 -0.9 -254.0 -6.0 -245.0 -12.5 -235.9 -24.25" fill="url(#gradient48)" fill-rule="evenodd" stroke="none"/>
    <path d="M-55.65 -97.75 L-56.75 -111.25 -56.5 -111.4 -40.5 -113.65 -39.15 -113.65 -37.9 -113.25 -37.65 -113.15 -36.5 -112.5 -36.25 -112.4 -34.15 -104.15 -34.0 -103.9 -34.0 -103.65 -33.9 -103.4 -33.9 -103.15 -32.9 -99.4 -36.15 -99.0 -37.0 -99.0 -40.0 -98.75 -42.65 -98.65 -43.65 -98.5 -46.0 -98.4 -47.0 -98.4 -49.25 -98.15 -50.25 -98.15 -52.65 -98.0 -53.75 -97.9 -55.65 -97.75" fill="url(#gradient49)" fill-rule="evenodd" stroke="none"/>
    <path d="M-36.15 -99.0 L-35.65 -89.5 -35.75 -89.25 -35.5 -85.65 -35.4 -84.75 -35.4 -84.4 -35.25 -84.4 -35.25 -84.25 -36.65 -84.25 -37.0 -99.0 -36.15 -99.0" fill="url(#gradient50)" fill-rule="evenodd" stroke="none"/>
    <path d="M-41.9 -84.0 L-43.15 -84.0 -43.65 -98.5 -42.65 -98.65 -41.9 -84.15 -41.9 -84.0" fill="url(#gradient51)" fill-rule="evenodd" stroke="none"/>
    <path d="M-45.25 -83.9 L-46.5 -83.9 -47.0 -98.4 -46.0 -98.4 -45.4 -84.65 -45.25 -83.9" fill="url(#gradient52)" fill-rule="evenodd" stroke="none"/>
    <path d="M-48.5 -83.75 L-48.5 -83.65 -49.65 -83.65 -50.25 -98.15 -49.25 -98.15 -48.65 -85.25 -48.5 -84.75 -48.5 -83.75" fill="url(#gradient53)" fill-rule="evenodd" stroke="none"/>
    <path d="M-51.75 -83.65 L-53.0 -83.5 -53.75 -97.9 -52.65 -98.0 -52.15 -87.9 -52.0 -87.4 -51.9 -84.25 -51.75 -83.65" fill="url(#gradient54)" fill-rule="evenodd" stroke="none"/>
    <path d="M-55.75 -83.4 L-57.5 -110.75 -57.5 -110.9 -56.75 -111.25 -55.65 -97.75 -55.5 -94.15 -55.4 -93.9 -55.4 -92.9 -55.25 -92.15 -55.25 -91.65 -55.25 -88.4 -54.9 -86.9 -54.9 -85.65 -54.75 -84.75 -54.75 -84.4 -54.65 -83.5 -55.75 -83.4" fill="url(#gradient55)" fill-rule="evenodd" stroke="none"/>
    <path d="M-32.15 -99.15 L-35.5 -112.5 -35.15 -112.65 -34.5 -110.4 -32.4 -101.9 -32.15 -101.65 -31.9 -99.5 -32.15 -99.15" fill="url(#gradient56)" fill-rule="evenodd" stroke="none"/>
    <path d="M-31.9 -99.5 L-31.75 -99.15 -32.15 -99.15 -31.9 -99.5 M-31.5 -96.75 L-31.65 -97.0 -31.5 -97.4 -31.5 -96.75" fill="url(#gradient57)" fill-rule="evenodd" stroke="none"/>
    <path d="M-0.9 -103.4 L-0.9 -99.25 -21.25 -97.5 -28.15 -97.25 -28.5 -97.25 -28.75 -97.4 -31.15 -98.4 -31.75 -99.15 -31.9 -99.5 -32.15 -101.65 -32.0 -101.65 -31.9 -101.65 -31.5 -101.5 -31.4 -101.5 -30.0 -101.0 -28.5 -101.0 -21.75 -101.65 -8.15 -102.75 -7.65 -102.9 -6.75 -102.9 -6.25 -103.0 -5.4 -103.0 -4.9 -103.15 -4.15 -103.15 -3.5 -103.25 -2.75 -103.25 -2.0 -103.4 -0.9 -103.4" fill="url(#gradient58)" fill-rule="evenodd" stroke="none"/>
    <path d="M-28.5 -101.0 L-30.0 -101.0 -31.4 -101.5 -29.4 -101.25 -28.5 -101.0 M-32.0 -101.65 L-32.15 -101.65 -32.4 -101.9 -32.25 -101.9 -32.0 -101.65" fill="url(#gradient59)" fill-rule="evenodd" stroke="none"/>
    <path d="M-0.9 -105.65 L-0.9 -103.4 -2.0 -103.4 -2.75 -103.25 -3.5 -103.25 -4.15 -103.15 -4.9 -103.15 -5.4 -103.0 -6.25 -103.0 -6.75 -102.9 -7.65 -102.9 -8.15 -102.75 -21.75 -101.65 -25.0 -101.5 -29.4 -101.25 -31.4 -101.5 -31.5 -101.5 -31.9 -101.65 -32.0 -101.65 -32.25 -101.9 -32.4 -101.9 -34.5 -110.4 -12.0 -112.65 -11.5 -111.9 -11.25 -111.65 -11.0 -111.25 -9.75 -109.9 Q-9.25 -108.75 -5.25 -106.75 L-0.9 -105.65" fill="url(#gradient60)" fill-rule="evenodd" stroke="none"/>
    <path d="M-9.75 -109.9 L-5.4 -107.15 -0.9 -105.65 -5.25 -106.75 Q-9.25 -108.75 -9.75 -109.9" fill="url(#gradient61)" fill-rule="evenodd" stroke="none"/>
    <path d="M-0.9 -86.5 L-0.9 -79.25 -1.4 -79.25 -1.75 -78.25 -3.25 -75.0 -3.4 -74.75 -4.0 -72.4 -4.25 -72.25 -4.25 -72.15 -4.4 -71.9 -7.0 -71.4 -7.15 -71.75 -7.4 -72.15 -9.5 -73.25 -10.9 -74.75 -12.15 -76.65 -17.65 -78.65 -25.15 -78.5 -29.15 -76.5 -30.15 -76.25 -33.15 -76.15 Q-33.65 -77.25 -38.75 -76.65 L-39.9 -80.25 -40.65 -80.25 -41.4 -80.0 -41.25 -79.0 -42.75 -78.9 -42.65 -77.65 -43.5 -77.4 -43.5 -76.65 -54.0 -76.4 -54.25 -77.4 -54.9 -77.5 -55.5 -77.5 -55.65 -78.15 -56.4 -78.4 -56.65 -79.4 -57.5 -79.5 -58.4 -83.25 -55.75 -83.4 -54.65 -83.5 -53.0 -83.5 -51.75 -83.65 -49.65 -83.65 -48.5 -83.65 -48.5 -83.75 -46.5 -83.9 -45.25 -83.9 -43.15 -84.0 -41.9 -84.0 -39.9 -84.15 -38.65 -84.15 -38.65 -84.25 -36.65 -84.25 -35.25 -84.25 -35.25 -84.4 -31.0 -84.65 -0.9 -86.5 M-6.65 -72.0 L-6.25 -71.9 -6.15 -72.15 -6.65 -72.0" fill="url(#gradient62)" fill-rule="evenodd" stroke="none"/>
    <path d="M-54.9 -86.9 L-55.25 -88.4 -55.25 -91.65 -54.9 -86.9" fill="url(#gradient63)" fill-rule="evenodd" stroke="none"/>
    <path d="M-81.25 -108.15 L-80.25 -108.65 -80.65 -108.15 -81.25 -108.15" fill="url(#gradient64)" fill-rule="evenodd" stroke="none"/>
    <path d="M-82.75 -106.5 L-82.0 -106.9 -81.4 -106.9 -81.0 -105.65 -80.9 -103.75 -81.0 -103.5 -81.25 -103.25 -81.75 -102.9 -82.15 -102.5 -82.65 -101.75 -82.4 -88.9 -82.25 -88.4 -82.25 -88.0 -82.5 -87.65 -82.25 -87.5 -82.25 -84.9 -82.4 -82.9 -82.25 -82.75 -82.25 -82.5 -82.15 -82.25 -82.15 -82.15 -82.4 -82.15 -83.4 -82.25 -83.4 -82.9 -83.5 -83.0 -83.4 -83.4 -83.4 -84.25 -83.5 -85.15 -83.5 -86.5 -83.65 -87.4 -83.75 -90.15 -84.25 -98.25 -84.65 -99.4 -84.65 -100.15 -84.5 -100.0 -84.4 -99.65 -84.4 -99.5 -84.25 -99.9 -84.4 -100.65 -84.5 -100.65 -84.5 -100.9 -84.65 -101.15 -84.4 -101.4 -84.5 -101.4 -84.65 -101.25 -84.75 -101.25 -84.65 -101.5 -83.65 -104.25 -82.75 -106.5 M-84.25 -98.25 L-84.25 -99.0 -84.4 -99.4 -84.25 -98.25 M-82.9 -83.5 L-83.0 -83.9 -83.15 -83.65 -82.9 -83.5" fill="url(#gradient65)" fill-rule="evenodd" stroke="none"/>
    <path d="M-93.15 -101.0 L-82.75 -106.5 -83.65 -104.25 -90.9 -100.4 -91.15 -100.4 -91.4 -100.5 -93.15 -101.0" fill="url(#gradient66)" fill-rule="evenodd" stroke="none"/>
    <path d="M-93.9 -99.25 L-94.0 -99.5 -93.4 -100.0 -93.9 -99.25 M-93.75 -100.5 L-93.5 -100.7 -93.65 -100.25 -93.75 -100.5 M-93.45 -100.7 L-93.15 -101.0 -91.4 -100.5 -91.15 -100.4 -90.9 -100.4 -90.75 -100.4 -91.25 -100.25 -91.15 -99.65 -92.0 -98.4 -90.0 -98.65 -89.9 -98.15 -92.4 -98.25 -92.75 -97.4 -93.0 -97.9 -93.65 -98.65 -93.0 -100.4 -93.25 -100.25 -93.45 -100.7 M-85.15 -100.75 L-85.5 -100.75 -85.25 -100.4 -85.25 -100.15 -86.0 -100.25 -86.5 -99.9 -86.75 -100.25 -88.9 -100.15 -89.0 -100.4 -87.0 -100.75 -85.65 -101.0 -85.15 -101.0 -85.15 -100.75 M-85.25 -99.5 L-84.9 -99.75 -84.9 -99.5 -85.0 -99.5 -85.25 -99.5 M-85.4 -99.65 L-85.5 -98.9 -85.5 -98.5 -87.25 -98.9 -85.65 -99.0 -86.4 -99.25 -85.65 -99.25 -85.4 -99.65 M-89.5 -98.75 L-89.9 -100.0 -88.65 -98.9 -88.65 -98.5 -88.4 -98.65 -88.65 -98.25 -89.0 -98.4 -88.75 -98.75 -89.0 -98.5 -89.5 -98.75 M-90.15 -97.4 L-90.9 -97.25 -91.9 -97.75 -90.75 -97.5 -90.75 -97.9 -90.4 -97.9 -90.15 -97.4 M-89.75 -97.0 L-90.0 -96.9 -89.9 -98.0 -89.75 -97.0 M-90.15 -98.75 L-91.25 -98.75 -90.4 -99.4 -90.15 -98.75 M-92.0 -99.15 L-93.5 -99.0 -92.4 -98.75 -92.0 -99.15 M-91.65 -100.15 L-92.4 -100.25 -92.15 -100.65 -92.5 -100.5 -92.4 -100.15 -91.65 -100.15 M-88.4 -94.0 L-87.75 -93.15 -89.15 -93.25 -89.0 -93.75 -88.65 -93.75 -88.75 -94.25 -88.4 -94.0" fill="url(#gradient67)" fill-rule="evenodd" stroke="none"/>
    <path d="M-82.25 -88.0 L-82.25 -87.5 -82.5 -87.65 -82.25 -88.0 M-82.25 -84.9 L-82.25 -82.75 -82.4 -82.9 -82.25 -84.9" fill="url(#gradient68)" fill-rule="evenodd" stroke="none"/>
    <path d="M-83.65 -104.25 L-84.65 -101.5 -85.65 -101.0 -87.0 -100.75 -90.9 -100.4 -83.65 -104.25" fill="url(#gradient69)" fill-rule="evenodd" stroke="none"/>
    <path d="M-84.65 -101.5 L-84.75 -101.25 -85.15 -101.0 -85.65 -101.0 -84.65 -101.5" fill="url(#gradient70)" fill-rule="evenodd" stroke="none"/>
    <path d="M-0.9 -99.25 L-0.9 -98.9 -19.75 -97.4 -23.65 -96.9 -26.75 -96.9 -28.15 -97.25 -21.25 -97.5 -0.9 -99.25 M-0.9 -79.25 L-0.9 -76.75 Q-3.25 -72.15 -2.75 -64.65 L-3.25 -66.5 -3.5 -67.15 -3.65 -67.75 -3.75 -68.15 -3.75 -68.25 -4.0 -71.9 -4.25 -72.15 -4.0 -72.4 -3.4 -74.75 -3.25 -75.0 -1.75 -78.25 -0.9 -79.25 M-0.9 -61.0 L-0.9 -59.65 -1.15 -59.75 -1.5 -60.5 -1.65 -60.9 -1.75 -61.15 -1.9 -61.4 -2.4 -63.4 -0.9 -61.0 M-20.25 -5.65 Q-24.65 -3.65 -28.5 -4.25 L-41.15 -5.75 -41.4 -5.9 -38.25 -8.75 Q-29.65 -5.75 -24.15 -12.75 L-23.25 -11.25 -23.0 -8.4 -20.65 -7.15 -20.25 -5.65 M-69.75 -47.75 Q-69.2 -63.35 -73.85 -70.25 L-73.0 -69.4 -72.0 -67.65 -70.5 -64.0 -69.75 -59.75 -66.65 -59.75 -66.9 -62.15 -66.9 -62.4 -67.25 -63.75 -68.75 -68.15 -70.25 -71.0 -70.4 -71.4 -71.4 -73.15 -71.9 -73.4 -72.0 -73.65 -72.5 -74.15 -72.5 -74.25 -73.0 -74.75 -73.0 -74.9 -75.75 -77.15 -76.65 -77.75 -76.65 -77.9 -78.9 -79.15 -80.75 -79.65 -81.0 -79.75 -82.75 -80.15 -83.9 -79.0 -84.5 -78.25 -92.0 -78.15 -94.75 -77.4 -95.25 -76.65 -95.4 -76.65 -95.4 -76.25 -95.25 -76.25 -95.25 -76.0 -95.0 -75.4 -95.4 -75.4 -95.4 -76.25 -95.65 -77.4 -94.15 -79.15 -89.25 -82.15 -86.0 -83.65 -85.0 -82.65 -83.4 -82.25 -82.4 -82.15 -82.15 -82.15 -82.15 -82.25 -71.4 -82.65 -71.15 -82.65 -70.4 -82.75 -70.25 -82.75 -67.75 -82.9 -66.9 -82.9 -65.25 -82.9 -64.15 -83.0 -62.25 -83.15 -61.25 -83.15 -59.25 -83.25 -58.4 -83.25 -57.5 -79.5 -56.65 -79.4 -56.4 -78.4 -55.65 -78.15 -55.5 -77.5 -54.9 -77.5 -54.25 -77.4 -54.0 -76.4 -43.5 -76.65 -43.5 -77.4 -42.65 -77.65 -42.75 -78.9 -41.25 -79.0 -41.4 -80.0 -40.65 -80.25 -39.9 -80.25 -38.75 -76.65 Q-33.65 -77.25 -33.15 -76.15 L-30.15 -76.25 -32.4 -74.65 -32.5 -74.5 -32.4 -74.15 -32.25 -73.9 -32.4 -73.65 -33.25 -73.15 -33.25 -72.9 Q-35.0 -71.75 -32.25 -63.65 L-29.5 -60.65 -25.15 -57.65 -22.0 -57.15 -5.5 -57.4 -4.9 -57.65 -4.65 -58.4 -4.5 -60.0 -4.5 -64.25 -4.4 -64.25 -4.4 -63.9 -4.15 -63.15 -3.4 -58.9 -3.75 -57.25 -4.25 -56.5 -8.65 -56.25 -21.15 -56.25 -22.0 -56.4 -26.9 -57.75 -27.0 -57.75 -28.15 -58.25 -28.75 -58.15 -28.5 -57.0 -27.9 -56.9 -27.65 -56.75 -27.25 -56.65 -24.9 -55.65 -25.9 -55.9 -26.15 -55.9 -27.5 -56.5 Q-33.9 -52.9 -31.4 -49.25 L-30.25 -38.75 Q-41.0 -49.65 -51.9 -46.15 L-52.25 -46.75 -60.15 -46.9 -69.65 -46.15 -69.75 -47.75 M-81.2 -75.4 L-84.25 -75.75 -82.15 -75.75 -81.2 -75.4 M-25.0 -101.5 L-28.5 -101.0 -29.4 -101.25 -25.0 -101.5 M-29.15 -76.5 L-25.15 -78.5 -17.65 -78.65 -12.15 -76.65 -10.9 -74.75 -9.5 -73.25 -7.4 -72.15 -7.4 -72.0 -7.0 -71.4 -4.9 -66.0 -4.5 -64.25 -5.9 -67.25 -6.25 -68.25 -6.5 -68.65 -6.65 -68.65 -6.9 -69.4 Q-6.75 -71.4 -9.75 -72.0 L-11.65 -75.25 Q-14.4 -79.0 -27.75 -76.4 -31.4 -73.15 -23.0 -60.0 L-24.0 -60.75 -24.0 -60.9 -24.65 -61.65 -24.75 -62.0 -26.15 -63.9 -26.25 -64.4 -26.75 -65.0 -26.9 -65.5 -27.4 -66.4 -27.9 -67.5 -28.0 -67.9 -28.15 -68.15 -28.25 -68.5 -28.5 -69.4 -29.15 -74.0 -29.0 -74.4 -28.75 -76.4 -29.15 -76.5 M-33.0 -72.15 L-32.75 -71.65 -31.4 -67.5 -30.75 -66.65 -30.65 -66.25 -30.15 -65.25 -29.15 -63.25 -27.0 -60.75 -28.25 -61.9 -30.0 -64.25 -30.75 -65.65 -32.9 -71.5 -33.0 -72.15 M-23.65 -55.5 L-13.15 -55.5 -19.65 -55.25 -23.65 -55.5" fill="url(#gradient71)" fill-rule="evenodd" stroke="none"/>
    <path d="M-32.15 -98.75 L-32.15 -99.15 -31.75 -99.15 -31.15 -98.4 -28.75 -97.4 -28.5 -97.25 -28.15 -97.25 -26.75 -96.9 -23.65 -96.9 -19.75 -97.4 -20.0 -97.15 Q-29.0 -95.25 -32.15 -98.75" fill="url(#gradient72)" fill-rule="evenodd" stroke="none"/>
    <path d="M-21.75 -101.65 L-28.5 -101.0 -25.0 -101.5 -21.75 -101.65" fill="url(#gradient73)" fill-rule="evenodd" stroke="none"/>
    <path d="M-86.15 -83.9 L-85.75 -86.25 -85.9 -86.75 -85.75 -86.9 -85.9 -86.9 -86.0 -87.75 -85.9 -89.5 -86.0 -89.75 -85.9 -91.5 -86.0 -92.15 -85.75 -96.4 -85.75 -96.5 -85.5 -97.5 -85.5 -98.15 -85.4 -98.5 -85.4 -99.0 -85.25 -99.25 -85.25 -99.5 -85.0 -99.5 -85.0 -99.15 -84.65 -99.4 -84.25 -98.25 -83.75 -90.15 -83.65 -87.4 -83.5 -86.5 -83.5 -85.15 -83.5 -84.4 -83.4 -84.25 -83.4 -83.4 -83.5 -83.0 -83.4 -82.9 -83.4 -82.25 -85.0 -82.65 -86.0 -83.65 -86.15 -83.9 M-84.75 -101.25 L-84.65 -101.25 -84.65 -101.15 -84.5 -100.9 -84.5 -100.65 -84.65 -100.4 -84.9 -100.5 -84.9 -99.75 -85.25 -99.5 -85.15 -100.0 -85.25 -100.15 -85.25 -100.4 -85.15 -100.5 -85.15 -100.75 -85.15 -101.0 -84.75 -101.25 M-85.15 -98.65 L-85.15 -98.25 -84.75 -98.65 -85.15 -98.65 M-83.9 -84.5 L-83.5 -84.4 -83.9 -84.75 -83.9 -84.5" fill="url(#gradient74)" fill-rule="evenodd" stroke="none"/>
    <path d="M-84.5 -100.65 L-84.4 -100.65 -84.25 -99.9 -84.5 -100.0 -84.65 -100.15 -84.65 -100.4 -84.5 -100.65" fill="url(#gradient75)" fill-rule="evenodd" stroke="none"/>
    <path d="M-84.25 -99.9 L-84.4 -99.5 -84.4 -99.65 -84.5 -100.0 -84.25 -99.9 M-84.25 -98.25 L-84.4 -99.4 -84.25 -99.0 -84.25 -98.25 M-83.5 -85.15 L-83.4 -84.25 -83.5 -84.4 -83.5 -85.15" fill="url(#gradient76)" fill-rule="evenodd" stroke="none"/>
    <path d="M-92.75 -97.4 L-93.65 -98.65 -93.0 -97.9 -92.75 -97.4" fill="url(#gradient77)" fill-rule="evenodd" stroke="none"/>
    <path d="M-85.15 -100.0 L-85.25 -99.5 -85.25 -99.25 -85.4 -99.0 -85.4 -98.5 -85.5 -98.15 -85.5 -97.5 -85.75 -96.5 -85.75 -97.5 -85.5 -98.5 -85.5 -98.9 -85.4 -99.65 -85.4 -99.75 -85.15 -100.0" fill="url(#gradient78)" fill-rule="evenodd" stroke="none"/>
    <path d="M-0.9 -98.5 L-0.9 -86.5 -31.0 -84.65 -31.15 -84.65 -31.25 -85.4 -31.9 -84.65 -31.9 -85.4 -32.15 -85.25 -32.0 -98.25 -32.15 -98.75 Q-29.0 -95.25 -20.0 -97.15 L-0.9 -98.5 M-31.65 -97.0 L-31.75 -97.4 -31.75 -97.75 -31.9 -98.0 -31.9 -95.4 -31.5 -96.75 -31.5 -97.4 -31.65 -97.0 M-31.75 -93.65 L-31.5 -94.5 -31.5 -95.25 -31.75 -95.15 -31.75 -93.65 M-31.4 -87.15 L-31.65 -86.5 -31.4 -86.75 -31.4 -87.15" fill="url(#gradient79)" fill-rule="evenodd" stroke="none"/>
    <path d="M-0.9 -98.9 L-0.9 -98.5 -20.0 -97.15 -19.75 -97.4 -0.9 -98.9" fill="url(#gradient80)" fill-rule="evenodd" stroke="none"/>
    <path d="M-85.9 -89.5 L-86.15 -89.4 -86.0 -89.75 -85.9 -89.5" fill="url(#gradient81)" fill-rule="evenodd" stroke="none"/>
    <path d="M-89.75 -97.0 L-89.4 -96.0 -89.5 -96.25 -89.65 -96.5 -89.75 -96.75 -89.75 -97.0" fill="url(#gradient82)" fill-rule="evenodd" stroke="none"/>
    <path d="M-61.75 -95.25 L-61.4 -94.75 -61.65 -94.25 -63.0 -94.25 -63.0 -95.0 -62.65 -95.4 -61.75 -95.25" fill="url(#gradient83)" fill-rule="evenodd" stroke="none"/>
    <path d="M-61.75 -95.25 L-61.25 -95.15 -61.4 -94.75 -61.75 -95.25" fill="url(#gradient84)" fill-rule="evenodd" stroke="none"/>
    <path d="M-71.4 -82.65 L-71.65 -93.0 -70.9 -93.0 -70.5 -86.5 -70.4 -86.0 -70.4 -83.9 -70.25 -83.25 -70.25 -82.75 -70.4 -82.75 -71.15 -82.65 -71.4 -82.65" fill="url(#gradient85)" fill-rule="evenodd" stroke="none"/>
    <path d="M-67.75 -82.9 L-68.15 -83.75 -68.75 -92.9 -68.75 -93.25 -67.75 -93.0 -66.9 -82.9 -67.75 -82.9" fill="url(#gradient86)" fill-rule="evenodd" stroke="none"/>
    <path d="M-59.25 -83.25 L-60.9 -109.9 -59.9 -110.0 -58.4 -85.65 -58.25 -85.0 -58.25 -84.4 -58.4 -83.25 -59.25 -83.25" fill="url(#gradient87)" fill-rule="evenodd" stroke="none"/>
    <path d="M-62.25 -83.15 L-62.75 -92.5 -61.75 -92.4 -61.25 -83.15 -62.25 -83.15" fill="url(#gradient88)" fill-rule="evenodd" stroke="none"/>
    <path d="M-65.25 -82.9 L-65.75 -92.5 -64.75 -92.25 -64.15 -83.0 -65.25 -82.9" fill="url(#gradient89)" fill-rule="evenodd" stroke="none"/>
    <path d="M-77.75 -95.25 L-76.9 -95.15 -76.5 -87.15 -76.4 -86.65 -76.25 -82.5 -77.25 -82.5 -77.75 -95.25" fill="url(#gradient90)" fill-rule="evenodd" stroke="none"/>
    <path d="M-38.65 -84.25 L-38.65 -84.15 -39.9 -84.15 -40.4 -94.0 -40.15 -95.25 -40.4 -98.4 -40.0 -98.75 -39.4 -98.75 -39.0 -89.4 -38.9 -89.0 -38.65 -84.25" fill="url(#gradient91)" fill-rule="evenodd" stroke="none"/>
    <path d="M-35.65 -89.5 L-35.5 -85.65 -35.75 -89.25 -35.65 -89.5" fill="url(#gradient92)" fill-rule="evenodd" stroke="none"/>
    <path d="M-85.9 -86.75 L-85.9 -86.9 -85.75 -86.9 -85.9 -86.75" fill="url(#gradient93)" fill-rule="evenodd" stroke="none"/>
    <path d="M-89.25 -82.15 L-86.15 -83.9 -86.0 -83.65 -89.25 -82.15" fill="url(#gradient94)" fill-rule="evenodd" stroke="none"/>
    <path d="M-216.75 -93.25 L-202.65 -80.65 -178.15 -56.15 -153.15 -32.75 -169.0 -26.5 -183.25 -16.25 -209.9 -44.75 -232.15 -66.65 -253.15 -86.4 -241.25 -95.65 -233.9 -97.5 -216.75 -93.25" fill="url(#gradient95)" fill-rule="evenodd" stroke="none"/>
    <path d="M-153.15 -32.75 L-142.0 -27.65 -147.4 -25.75 -153.25 -22.75 -154.9 -11.9 -183.25 -16.25 -169.0 -26.5 -153.15 -32.75" fill="url(#gradient96)" fill-rule="evenodd" stroke="none"/>
    <path d="M-74.9 -90.65 L-75.4 -93.15 -75.25 -93.9 -74.4 -93.75 -73.75 -86.5 -73.65 -86.15 -73.65 -85.75 -73.4 -83.0 -73.4 -82.65 -74.4 -82.65 -74.5 -83.15 -74.9 -90.65" fill="url(#gradient97)" fill-rule="evenodd" stroke="none"/>
    <path d="M-29.15 -76.5 L-28.75 -76.4 -29.0 -74.4 -29.15 -74.0 -28.5 -69.4 -28.25 -68.5 -28.5 -68.25 -28.15 -68.15 -28.0 -67.9 -27.9 -67.5 -27.4 -66.4 -27.4 -65.65 -26.9 -65.5 -26.75 -65.0 -26.25 -64.4 -26.15 -63.9 -25.65 -62.65 -24.75 -62.0 -24.65 -61.65 -24.0 -60.9 -24.0 -60.75 -23.75 -60.15 -24.25 -60.4 -25.0 -60.65 -25.15 -61.0 -25.25 -60.75 -25.65 -61.25 -25.25 -61.25 -25.4 -61.5 -26.0 -61.5 -26.9 -62.4 -26.9 -63.0 -27.5 -63.15 -28.0 -63.75 -27.5 -63.9 -28.25 -64.15 -28.5 -65.0 -28.9 -65.0 -28.5 -65.25 -29.0 -66.25 -29.65 -66.4 -29.65 -66.9 -29.25 -66.65 -29.5 -67.0 -30.4 -67.65 -30.65 -68.4 -30.4 -68.5 -30.9 -68.9 -30.65 -69.5 -30.75 -70.0 -31.25 -69.75 -31.0 -70.25 -31.4 -70.25 -31.65 -71.0 -31.4 -71.5 -31.75 -71.5 -31.5 -71.75 -31.9 -72.0 -31.4 -72.4 -32.15 -72.75 -31.9 -73.25 -32.25 -73.9 -32.4 -74.15 -32.5 -74.5 -32.4 -74.65 -30.15 -76.25 -29.15 -76.5" fill="url(#gradient98)" fill-rule="evenodd" stroke="none"/>
    <path d="M-7.4 -72.15 L-7.15 -71.75 -7.0 -71.4 -7.4 -72.0 -7.4 -72.15 M-4.5 -64.25 L-4.9 -66.0 -4.4 -64.25 -4.5 -64.25" fill="url(#gradient99)" fill-rule="evenodd" stroke="none"/>
    <path d="M-73.85 -70.25 L-75.0 -71.5 -75.4 -71.75 -75.65 -72.0 -76.65 -72.75 -77.15 -73.25 -78.25 -73.9 -78.5 -74.15 -81.2 -75.4 -82.15 -75.75 -84.25 -75.75 -95.0 -75.4 -95.25 -76.0 -95.25 -76.25 -95.25 -76.65 -94.75 -77.4 -92.0 -78.15 -84.5 -78.25 -83.9 -79.0 -82.75 -80.15 -81.0 -79.75 -80.75 -79.65 -76.65 -77.9 -76.65 -77.75 -75.75 -77.15 -73.0 -74.9 -73.0 -74.75 -73.15 -74.5 -72.5 -74.25 -72.5 -74.15 -72.0 -73.65 -71.9 -73.4 -70.4 -71.4 -70.25 -71.0 -68.75 -68.15 -67.25 -63.75 -66.9 -62.4 -66.9 -62.15 -66.65 -59.75 -69.75 -59.75 -70.5 -64.0 -72.0 -67.65 -73.0 -69.4 -73.85 -70.25" fill="url(#gradient100)" fill-rule="evenodd" stroke="none"/>
    <path d="M-72.5 -74.25 L-73.15 -74.5 -73.0 -74.75 -72.5 -74.25 M-76.65 -77.9 L-80.75 -79.65 -78.9 -79.15 -76.65 -77.9 M-71.9 -73.4 L-71.4 -73.15 -70.4 -71.4 -71.9 -73.4" fill="url(#gradient101)" fill-rule="evenodd" stroke="none"/>
    <path d="M-95.25 -76.65 L-95.25 -76.25 -95.4 -76.25 -95.4 -76.65 -95.25 -76.65" fill="url(#gradient102)" fill-rule="evenodd" stroke="none"/>
    <path d="M-1.75 -78.25 L-1.4 -79.25 -0.9 -79.25 -1.75 -78.25 M-4.0 -72.4 L-4.25 -72.15 -4.25 -72.25 -4.0 -72.4" fill="url(#gradient103)" fill-rule="evenodd" stroke="none"/>
    <path d="M-0.9 -76.75 L-0.9 -61.0 -2.4 -63.4 -2.75 -64.65 Q-3.25 -72.15 -0.9 -76.75" fill="url(#gradient104)" fill-rule="evenodd" stroke="none"/>
    <path d="M-0.9 -59.25 L-0.9 -55.65 -13.15 -55.5 -23.65 -55.5 -24.65 -55.65 -24.9 -55.65 -27.25 -56.65 -27.65 -56.75 -27.9 -56.9 -28.5 -57.0 -28.75 -58.15 -27.0 -57.75 -26.9 -57.75 -22.0 -56.4 -21.15 -56.25 -8.65 -56.25 -4.25 -56.5 -3.75 -57.25 -3.4 -58.9 -4.15 -63.15 -4.4 -63.9 -4.4 -64.25 -4.9 -66.0 -7.0 -71.4 -4.4 -71.9 -4.0 -71.9 -3.75 -68.25 -3.75 -68.15 -3.65 -67.75 -3.9 -67.5 -3.5 -67.15 -3.25 -66.5 -2.75 -64.65 -2.4 -63.4 -1.9 -61.4 -1.75 -61.15 -1.65 -60.9 -1.9 -60.75 -1.5 -60.5 -1.15 -59.75 -0.9 -59.25 M-6.65 -72.0 L-6.15 -72.15 -6.25 -71.9 -6.65 -72.0" fill="url(#gradient105)" fill-rule="evenodd" stroke="none"/>
    <path d="M-0.9 -59.65 L-0.9 -59.25 -1.15 -59.75 -0.9 -59.65 M-4.25 -72.15 L-4.0 -71.9 -4.4 -71.9 -4.25 -72.15 M-3.65 -67.75 L-3.5 -67.15 -3.9 -67.5 -3.65 -67.75 M-1.65 -60.9 L-1.5 -60.5 -1.9 -60.75 -1.65 -60.9" fill="url(#gradient106)" fill-rule="evenodd" stroke="none"/>
    <path d="M-28.25 -68.5 L-28.15 -68.15 -28.5 -68.25 -28.25 -68.5 M-27.4 -66.4 L-26.9 -65.5 -27.4 -65.65 -27.4 -66.4 M-26.15 -63.9 L-24.75 -62.0 -25.65 -62.65 -26.15 -63.9 M-24.0 -60.75 L-23.0 -60.0 -22.75 -59.5 -23.15 -59.5 -23.4 -59.65 -23.65 -59.75 -23.75 -60.15 -24.0 -60.75" fill="url(#gradient107)" fill-rule="evenodd" stroke="none"/>
    <path d="M-142.0 -27.65 L-111.9 -37.5 -69.75 -47.75 -69.65 -46.15 -60.15 -46.9 -52.25 -46.75 -51.9 -46.15 -51.4 -42.0 -51.9 -39.15 -50.75 -39.25 -50.15 -35.5 -83.5 -29.75 -112.15 -23.25 -134.4 -16.5 -154.9 -11.9 -153.25 -22.75 -147.4 -25.75 -142.0 -27.65" fill="url(#gradient108)" fill-rule="evenodd" stroke="none"/>
    <path d="M-32.25 -73.9 L-31.9 -73.25 -32.15 -72.75 -31.4 -72.4 -31.9 -72.0 -31.5 -71.75 -31.75 -71.5 -31.4 -71.5 -31.65 -71.0 -31.4 -70.25 -31.0 -70.25 -31.25 -69.75 -30.75 -70.0 -30.65 -69.5 -30.9 -68.9 -30.4 -68.5 -30.65 -68.4 -30.4 -67.65 -29.5 -67.0 -29.25 -66.65 -29.65 -66.9 -29.65 -66.4 -29.0 -66.25 -28.5 -65.25 -28.9 -65.0 -28.5 -65.0 -28.25 -64.15 -27.5 -63.9 -28.0 -63.75 -27.5 -63.15 -26.9 -63.0 -26.9 -62.4 -26.0 -61.5 -25.4 -61.5 -25.25 -61.25 -25.65 -61.25 -25.25 -60.75 -25.15 -61.0 -25.0 -60.65 -24.25 -60.4 -23.75 -60.15 -23.65 -59.75 -23.4 -59.65 -23.15 -59.5 -22.9 -59.25 -21.9 -58.5 -22.15 -58.5 -23.4 -58.75 -24.65 -59.25 -24.9 -59.4 -25.25 -59.5 -25.5 -59.75 -25.65 -59.75 -26.0 -60.0 -26.5 -60.4 -26.65 -60.5 -26.9 -60.75 -27.0 -60.75 -30.15 -65.25 -30.65 -66.25 -30.75 -66.65 -32.75 -71.65 -33.0 -72.4 -33.25 -73.15 -32.4 -73.65 -32.25 -73.9" fill="url(#gradient109)" fill-rule="evenodd" stroke="none"/>
    <path d="M-33.25 -72.9 L-33.25 -73.15 -33.0 -72.4 -33.15 -72.65 -33.25 -72.9 M-33.0 -72.15 L-33.0 -72.4 -32.75 -71.65 -33.0 -72.15 M-27.0 -60.75 L-29.15 -63.25 -30.15 -65.25 -27.0 -60.75 M-30.75 -66.65 L-31.4 -67.5 -32.75 -71.65 -30.75 -66.65 M-26.0 -60.0 L-26.4 -60.25 -26.5 -60.4 -26.0 -60.0 -25.65 -59.75 -25.9 -59.9 -26.0 -60.0" fill="url(#gradient110)" fill-rule="evenodd" stroke="none"/>
    <path d="M-6.25 -68.25 L-5.9 -67.25 -4.5 -64.25 -4.5 -60.0 -4.65 -58.4 -4.9 -57.65 -5.5 -57.4 -22.0 -57.15 -25.15 -57.65 -29.5 -60.65 -32.25 -63.65 Q-35.0 -71.75 -33.25 -72.9 L-33.15 -72.65 -33.0 -72.4 -33.0 -72.15 -32.9 -71.5 -30.75 -65.65 -30.0 -64.25 -28.25 -61.9 -27.0 -60.75 -26.9 -60.75 -26.65 -60.5 -26.5 -60.4 -26.4 -60.25 -26.0 -60.0 -25.9 -59.9 -25.65 -59.75 -25.5 -59.75 -25.25 -59.5 -24.9 -59.4 -24.65 -59.25 -23.4 -58.75 -22.15 -58.5 -22.0 -58.4 -21.5 -58.5 -21.15 -58.9 -19.25 -60.15 -19.0 -60.25 -18.25 -60.75 -18.0 -61.0 -7.15 -68.25 -6.25 -68.25" fill="url(#gradient111)" fill-rule="evenodd" stroke="none"/>
    <path d="M-6.9 -69.4 L-6.65 -68.65 -7.15 -68.25 -18.0 -61.0 -18.25 -60.75 -19.0 -60.25 -19.25 -60.15 -21.15 -58.9 -21.5 -58.5 -21.9 -58.5 -22.9 -59.25 -23.15 -59.5 -22.75 -59.5 -22.0 -59.15 -6.9 -69.4" fill="url(#gradient112)" fill-rule="evenodd" stroke="none"/>
    <path d="M-23.0 -60.0 Q-31.4 -73.15 -27.75 -76.4 -14.4 -79.0 -11.65 -75.25 L-9.75 -72.0 Q-6.75 -71.4 -6.9 -69.4 L-22.0 -59.15 -22.75 -59.5 -23.0 -60.0 M-22.15 -58.5 L-21.9 -58.5 -21.5 -58.5 -22.0 -58.4 -22.15 -58.5" fill="url(#gradient113)" fill-rule="evenodd" stroke="none"/>
    <path d="M-383.65 -62.5 L-383.65 -62.65 -383.9 -63.25 -384.4 -65.25 -384.5 -71.75 -381.25 -83.4 -379.4 -70.9 -377.5 -69.75 -379.75 -64.0 -381.75 -57.4 -383.65 -62.5" fill="url(#gradient114)" fill-rule="evenodd" stroke="none"/>
    <path d="M-381.9 -55.0 L-383.65 -62.5 -381.75 -57.4 -381.9 -55.0" fill="url(#gradient115)" fill-rule="evenodd" stroke="none"/>
    <path d="M-368.4 -21.15 L-373.25 -26.75 -378.4 -34.25 -381.15 -41.5 Q-383.0 -50.15 -381.9 -55.0 L-381.75 -57.4 -379.75 -64.0 -377.5 -69.75 Q-370.0 -88.25 -346.15 -94.25 L-345.0 -94.0 -345.25 -92.0 -346.65 -87.15 -348.25 -83.4 Q-344.75 -81.9 -346.75 -64.5 L-350.0 -53.65 -350.4 -53.65 -354.25 -47.15 -353.25 -37.75 -353.25 -37.6 Q-354.0 -33.75 -353.85 -30.8 -354.55 -27.05 -356.15 -23.75 L-354.0 -18.75 Q-353.25 -14.15 -354.5 -13.5 L-354.4 -13.25 -356.15 -13.9 -365.25 -18.25 -368.4 -21.15" fill="url(#gradient116)" fill-rule="evenodd" stroke="none"/>
    <path d="M-348.75 -0.9 L-353.4 -0.9 -355.15 -4.4 -356.15 -13.9 -354.4 -13.25 -350.4 -6.15 -348.75 -0.9" fill="url(#gradient117)" fill-rule="evenodd" stroke="none"/>
    <path d="M-353.4 -0.9 L-360.5 -0.9 -368.4 -21.15 -365.25 -18.25 -356.15 -13.9 -355.15 -4.4 -353.4 -0.9" fill="url(#gradient118)" fill-rule="evenodd" stroke="none"/>
    <path d="M-27.0 -57.75 L-28.75 -58.15 -28.15 -58.25 -27.0 -57.75" fill="url(#gradient119)" fill-rule="evenodd" stroke="none"/>
    <path d="M-24.9 -55.65 L-24.65 -55.65 -23.65 -55.5 -19.65 -55.25 -30.4 -48.0 -30.9 -49.5 -30.75 -49.75 -29.9 -52.75 -29.25 -53.75 -28.4 -54.15 -27.0 -55.15 -26.75 -55.4 -26.65 -55.4 -26.15 -55.9 -25.9 -55.9 -24.9 -55.65" fill="url(#gradient120)" fill-rule="evenodd" stroke="none"/>
    <path d="M-27.5 -56.5 L-26.15 -55.9 -26.65 -55.4 -26.75 -55.4 -28.25 -55.9 -28.25 -56.0 -27.9 -56.15 -27.5 -56.4 -27.5 -56.5" fill="url(#gradient121)" fill-rule="evenodd" stroke="none"/>
    <path d="M-27.5 -56.5 L-27.5 -56.4 -27.9 -56.15 -28.25 -56.0 -28.25 -55.9 -28.65 -55.75 Q-32.4 -53.5 -30.75 -49.75 L-30.9 -49.5 -31.4 -49.25 Q-33.9 -52.9 -27.5 -56.5" fill="url(#gradient122)" fill-rule="evenodd" stroke="none"/>
    <path d="M-30.4 -48.0 L-30.4 -47.5 -30.25 -47.0 -30.25 -46.4 -30.15 -45.9 -30.15 -45.25 -30.0 -44.75 -30.0 -44.25 -29.9 -43.75 -29.9 -43.15 -29.75 -42.65 -29.75 -42.0 -29.65 -41.5 -29.65 -40.9 -29.5 -40.4 -29.5 -39.75 -29.65 -39.25 -30.0 -38.4 -30.25 -38.75 -31.4 -49.25 -30.9 -49.5 -30.4 -48.0 M-24.15 -12.75 Q-23.65 -13.25 -20.4 -11.65 L-19.5 -11.75 -22.15 -9.75 -22.25 -9.15 -22.4 -8.75 -23.0 -8.4 -23.25 -11.25 -24.15 -12.75 M-9.15 -19.9 L-7.65 -23.25 -7.0 -21.5 -9.15 -19.9" fill="url(#gradient123)" fill-rule="evenodd" stroke="none"/>
    <path d="M-28.25 -55.9 L-26.75 -55.4 -27.0 -55.15 -28.4 -54.15 -29.25 -53.75 -29.9 -52.75 -30.75 -49.75 Q-32.4 -53.5 -28.65 -55.75 L-28.25 -55.9 M-22.25 -9.15 L-22.0 -8.65 -22.4 -8.75 -22.25 -9.15" fill="url(#gradient124)" fill-rule="evenodd" stroke="none"/>
    <path d="M-13.15 -55.5 L-12.0 -47.15 Q-21.15 -55.15 -29.65 -39.25 L-29.5 -39.75 -29.5 -40.4 -29.65 -40.9 -29.65 -41.5 -29.75 -42.0 -29.75 -42.65 -29.9 -43.15 -29.9 -43.75 -30.0 -44.25 -30.0 -44.75 -30.15 -45.25 -30.15 -45.9 -30.25 -46.4 -30.25 -47.0 -30.4 -47.5 -30.4 -48.0 -19.65 -55.25 -13.15 -55.5" fill="url(#gradient125)" fill-rule="evenodd" stroke="none"/>
    <path d="M-12.0 -47.15 Q-8.65 -43.9 -6.25 -33.25 L-6.25 -27.9 -7.0 -24.75 -7.65 -23.25 -9.15 -19.9 -13.0 -15.25 -14.5 -13.4 -16.5 -12.5 -19.5 -11.75 -20.4 -11.65 Q-23.65 -13.25 -24.15 -12.75 -29.65 -5.75 -38.25 -8.75 -39.5 -10.65 -33.75 -15.4 L-35.25 -17.0 Q-36.65 -15.15 -46.15 -18.25 L-48.15 -21.9 Q-50.9 -27.5 -48.65 -33.4 L-48.65 -33.9 -50.15 -35.5 -50.75 -39.25 -51.9 -39.15 -51.4 -42.0 -51.9 -46.15 Q-41.0 -49.65 -30.25 -38.75 L-30.0 -38.4 -29.65 -39.25 Q-21.15 -55.15 -12.0 -47.15" fill="url(#gradient126)" fill-rule="evenodd" stroke="none"/>
    <path d="M-7.0 -24.75 L-5.65 -22.15 -5.25 -21.0 -5.5 -19.75 -6.9 -20.0 -13.0 -15.25 -9.15 -19.9 -7.0 -21.5 -7.65 -23.25 -7.0 -24.75 M-19.5 -11.75 L-16.5 -12.5 -21.65 -8.4 -22.0 -8.65 -22.25 -9.15 -22.15 -9.75 -19.5 -11.75" fill="url(#gradient127)" fill-rule="evenodd" stroke="none"/>
    <path d="M-5.5 -19.75 L-5.0 -19.4 -20.65 -7.15 -23.0 -8.4 -22.4 -8.75 -22.0 -8.65 -21.65 -8.4 -16.5 -12.5 -14.5 -13.4 -13.0 -15.25 -6.9 -20.0 -5.5 -19.75" fill="url(#gradient128)" fill-rule="evenodd" stroke="none"/>
    <path d="M-5.0 -19.4 L-4.4 -18.9 -4.4 -18.0 -20.25 -5.65 -20.65 -7.15 -5.0 -19.4" fill="url(#gradient129)" fill-rule="evenodd" stroke="none"/>
    <path d="M-41.15 -5.75 L-49.9 -1.65 -58.5 -0.9 -124.25 -0.9 -134.4 -16.5 -112.15 -23.25 -83.5 -29.75 -50.15 -35.5 -48.65 -33.9 -48.65 -33.4 Q-50.9 -27.5 -48.15 -21.9 L-46.15 -18.25 Q-36.65 -15.15 -35.25 -17.0 L-33.75 -15.4 Q-39.5 -10.65 -38.25 -8.75 L-41.4 -5.9 -41.15 -5.75" fill="url(#gradient130)" fill-rule="evenodd" stroke="none"/>
    <path d="M-124.25 -0.9 L-135.75 -0.9 -154.9 -11.9 -134.4 -16.5 -124.25 -0.9" fill="url(#gradient131)" fill-rule="evenodd" stroke="none"/>
    <path d="M-135.75 -0.9 L-194.75 -0.9 -183.25 -16.25 -154.9 -11.9 -135.75 -0.9" fill="url(#gradient132)" fill-rule="evenodd" stroke="none"/>
    <path d="M-342.25 -0.9 L-348.75 -0.9 -350.4 -6.15 -348.75 -5.4 -342.25 -0.9" fill="url(#gradient133)" fill-rule="evenodd" stroke="none"/>
    <path d="M-354.0 -115.15 L-351.4 -128.5 -340.4 -141.75 -340.0 -141.75 -324.75 -145.5 -312.25 -146.5 -312.5 -145.0 -320.9 -144.25 -336.4 -140.9 -347.4 -127.15 -348.65 -120.25 -348.75 -120.0 -348.9 -119.9 -354.0 -115.15 M-266.15 -141.4 L-265.4 -141.75 -265.15 -142.4 -265.65 -144.5 -269.65 -145.5 -270.5 -146.25 -270.65 -146.75 -266.15 -147.9 -266.0 -147.9 -264.4 -148.25 -264.0 -148.25 -263.0 -148.5 -261.15 -147.65 -260.65 -143.25 -259.5 -141.65 Q-260.15 -140.4 -262.9 -139.0 L-265.5 -140.4 -265.75 -140.9 -266.15 -141.4" fill="#ab0000" fill-opacity="0.9098039" fill-rule="evenodd" stroke="none"/>
    <path d="M-354.0 -115.15 L-348.9 -119.9 -348.9 -119.0 -349.25 -118.15 -349.0 -118.0 -349.65 -116.15 -350.65 -111.0 -350.5 -110.0 -351.9 -103.65 -356.0 -98.4 -356.65 -97.15 -361.5 -90.75 -361.65 -90.25 -364.75 -86.0 -365.75 -85.15 -365.75 -84.9 -366.4 -83.9 -366.75 -83.5 -368.75 -80.65 -369.9 -79.65 -369.9 -79.15 -374.15 -73.25 -374.5 -72.9 -375.0 -72.15 -377.9 -68.4 -378.15 -65.9 -378.25 -65.65 -381.9 -52.25 -381.9 -55.0 -381.75 -57.25 -381.5 -57.5 -381.5 -58.4 -380.75 -61.0 -380.75 -61.75 -379.4 -65.15 -379.25 -65.4 -377.9 -68.4 -377.9 -68.9 -377.5 -69.75 -376.65 -71.15 -379.4 -71.25 -380.5 -71.15 -381.25 -71.0 -379.75 -73.0 -379.75 -73.4 -372.5 -82.75 -372.4 -83.25 -363.75 -94.4 -363.5 -95.25 -362.0 -96.9 -361.9 -97.25 -356.15 -104.75 -355.5 -107.25 -355.65 -107.75 -355.4 -108.25 -355.0 -109.75 -355.15 -110.25 -354.65 -111.25 -354.25 -114.65 -354.0 -115.0 -354.0 -115.15 M-342.15 -28.75 L-340.0 -35.75 -340.15 -36.15 -339.9 -36.4 -337.25 -45.25 -337.4 -45.4 -337.0 -46.65 -332.25 -54.65 -331.9 -54.9 -327.25 -62.65 -327.0 -62.9 -323.65 -68.65 -323.25 -69.0 -312.0 -87.25 -308.9 -104.75 -309.0 -105.65 -307.5 -113.75 -302.65 -130.0 -298.15 -131.75 -297.4 -131.9 -291.9 -133.9 -289.25 -134.5 -289.0 -135.0 -286.15 -136.0 -278.5 -137.75 -278.4 -137.9 -268.5 -140.25 -266.5 -141.15 -266.15 -141.4 -265.75 -140.9 -265.5 -140.4 -262.9 -139.0 -266.25 -138.4 -266.75 -138.25 -266.75 -138.15 -267.15 -138.15 -269.75 -137.4 -269.9 -137.4 -270.25 -137.25 -275.0 -136.15 -275.65 -135.75 -278.15 -135.4 -278.4 -135.15 -278.65 -135.15 -282.15 -134.25 -285.75 -132.5 -292.5 -129.65 -293.0 -129.25 -295.9 -128.0 -299.25 -120.25 -299.4 -120.15 -299.4 -119.9 -300.15 -118.5 -302.65 -112.65 -305.15 -97.15 -305.0 -96.25 -306.9 -85.15 -318.4 -66.75 -318.75 -66.4 -323.5 -58.5 -323.9 -58.15 -329.65 -48.5 -330.0 -48.15 -331.0 -46.65 -331.5 -45.65 -317.4 -37.9 -317.25 -37.65 -316.4 -37.25 -315.65 -36.75 -306.15 -31.5 -334.25 -29.4 -335.0 -29.4 -335.15 -29.15 -335.5 -29.25 -342.15 -28.75" fill="#9b0000" fill-opacity="0.9098039" fill-rule="evenodd" stroke="none"/>
    <path d="M-376.0 -30.9 L-374.5 -29.65 -374.0 -28.75 -367.9 -22.15 -367.4 -21.75 -364.5 -18.5 -363.9 -17.65 -364.15 -17.9 -365.15 -18.25 -367.65 -20.4 -368.0 -20.5 -368.4 -21.15 -370.15 -23.0 -376.0 -30.9 M-352.4 -9.65 L-347.25 -11.65 -344.25 -12.9 -342.15 -28.75 -335.5 -29.25 -335.15 -29.15 -335.0 -29.4 -334.25 -29.4 -306.15 -31.5 -306.75 -2.65 -306.25 -0.9 -348.75 -0.9 -350.25 -5.4 -350.4 -5.65 -350.4 -6.15 -350.65 -6.4 -352.4 -9.65 M-331.75 -4.15 L-333.15 -5.25 -333.25 -4.75 -333.5 -4.65 -333.25 -4.25 -333.0 -4.25 -332.0 -2.75 -331.9 -2.75 -331.65 -3.15 -331.5 -3.5 -331.75 -4.15" fill="#a20000" fill-opacity="0.9098039" fill-rule="evenodd" stroke="none"/>
    <path d="M-381.9 -52.25 L-382.4 -49.4 -382.4 -49.25 -384.4 -42.65 -384.4 -44.5 -384.25 -45.4 -384.15 -45.75 -384.15 -46.25 -384.0 -47.0 -384.0 -47.15 -382.4 -56.25 -381.9 -55.0 -381.9 -52.25" fill="#b00000" fill-rule="evenodd" stroke="none"/>
    <path d="M-382.5 -57.4 L-382.15 -57.75 -382.25 -58.75 -381.9 -59.5 -382.0 -60.25 -382.0 -60.9 -381.65 -62.15 -381.75 -62.65 -381.15 -65.5 -381.25 -66.0 -380.75 -67.9 -380.9 -62.0 -380.75 -61.75 -380.9 -61.5 -380.75 -61.0 -381.5 -58.4 -381.5 -57.5 -381.75 -57.25 -381.9 -55.0 -382.4 -56.25 -382.4 -56.75 -382.5 -57.4" fill="#ae0000" fill-rule="evenodd" stroke="none"/>
    <path d="M-380.75 -67.9 L-380.65 -68.25 -380.4 -70.75 -380.5 -71.15 -379.4 -71.25 -376.65 -71.15 -377.5 -69.75 -377.9 -68.9 -377.9 -68.4 -379.25 -65.4 -379.4 -65.15 -380.75 -61.75 -380.9 -62.0 -380.75 -67.9 M-380.75 -61.0 L-380.9 -61.5 -380.75 -61.75 -380.75 -61.0" fill="#af0000" fill-rule="evenodd" stroke="none"/>
    <path d="M-382.9 -58.25 L-382.75 -58.75 -382.9 -59.4 -382.65 -60.0 -382.65 -60.4 -382.4 -61.9 -382.4 -62.5 -382.5 -62.75 -382.5 -63.0 -382.25 -63.0 -382.25 -63.15 -382.4 -64.0 -382.25 -64.15 -382.15 -64.4 -382.25 -65.25 -382.15 -65.65 -382.15 -66.4 -381.25 -71.0 -380.5 -71.15 -380.4 -70.75 -380.65 -68.25 -380.75 -67.9 -381.25 -66.0 -381.15 -65.5 -381.75 -62.65 -381.65 -62.15 -382.0 -60.9 -382.0 -60.25 -381.9 -59.5 -382.25 -58.75 -382.15 -57.75 -382.5 -57.4 -382.9 -58.25" fill="#ab0000" fill-rule="evenodd" stroke="none"/>
    <path d="M-382.5 -63.0 L-382.4 -63.15 -382.4 -63.75 -382.5 -63.75 -382.4 -64.0 -382.25 -63.15 -382.25 -63.0 -382.5 -63.0 M-382.25 -64.15 L-382.25 -65.25 -382.15 -64.4 -382.25 -64.15" fill="#c30000" fill-rule="evenodd" stroke="none"/>
    <path d="M-384.0 -47.15 L-382.9 -58.25 -382.5 -57.4 -382.4 -56.75 -382.4 -56.25 -384.0 -47.15" fill="#ad0000" fill-rule="evenodd" stroke="none"/>
    <path d="M-382.4 -49.25 L-382.15 -49.0 -381.15 -41.75 -380.75 -40.9 -378.4 -34.5 -377.65 -33.15 -384.15 -39.75 -384.75 -40.5 -384.5 -42.0 -384.5 -42.4 -384.4 -42.65 -382.4 -49.25" fill="#ec0000" fill-opacity="0.9098039" fill-rule="evenodd" stroke="none"/>
    <path d="M-376.75 -32.0 L-376.0 -30.9 -370.15 -23.0 -368.4 -21.15 -368.15 -20.65 -368.0 -20.5 -367.4 -18.5 -367.15 -17.9 -366.75 -17.15 -366.75 -17.0 -364.75 -11.5 -364.65 -11.0 -384.15 -39.75 -377.65 -33.15 -377.15 -32.4 -376.75 -32.0" fill="#b80000" fill-rule="evenodd" stroke="none"/>
    <path d="M-377.65 -33.15 L-377.15 -32.65 -377.15 -32.4 -376.75 -32.15 -376.75 -32.0 -377.15 -32.4 -377.65 -33.15 M-363.15 -17.15 L-362.9 -17.15 -358.9 -15.0 -358.9 -14.75 -359.0 -14.5 -359.4 -13.9 -359.5 -13.65 -359.75 -13.25 -361.9 -15.5 -363.15 -17.15 M-306.15 -31.5 L-292.0 -29.15 -291.5 -29.25 -269.25 -25.65 -268.9 -25.65 -267.4 -25.4 -267.0 -25.4 -249.5 -21.75 -249.25 -21.65 -237.5 -19.0 -236.25 -19.0 -237.0 -10.75 -237.25 -10.4 -241.4 -7.15 -241.75 -6.65 -245.9 -3.5 -246.0 -3.25 -252.4 -0.9 -306.25 -0.9 -306.75 -2.65 -306.15 -31.5" fill="#d60000" fill-opacity="0.9098039" fill-rule="evenodd" stroke="none"/>
    <path d="M-238.0 -0.9 L-252.4 -0.9 -246.0 -3.25 -245.9 -3.5 -241.75 -6.65 -241.4 -7.15 -237.25 -10.4 -237.15 -9.25 -238.0 -0.9" fill="#e80000" fill-opacity="0.9098039" fill-rule="evenodd" stroke="none"/>
    <path d="M-228.15 -20.4 L-227.4 -19.75 -229.15 -0.9 -238.0 -0.9 -237.15 -9.25 -237.25 -10.4 -237.0 -10.75 -235.65 -11.65 -234.9 -12.65 -228.5 -18.9 -228.15 -20.4" fill="#f80000" fill-rule="evenodd" stroke="none"/>
    <path d="M-360.15 -0.9 L-360.25 -0.9 -360.65 -2.25 -360.5 -2.15 -360.15 -0.9 M-360.9 -3.25 L-361.15 -3.4 -361.25 -3.5 -361.25 -4.0 -360.9 -3.25 M-237.0 -10.75 L-236.25 -19.0 -231.15 -18.9 -234.9 -12.65 -235.65 -11.65 -237.0 -10.75" fill="#e70000" fill-rule="evenodd" stroke="none"/>
    <path d="M-231.15 -18.9 L-228.5 -18.9 -234.9 -12.65 -231.15 -18.9" fill="#ed0000" fill-rule="evenodd" stroke="none"/>
    <path d="M-229.4 -21.5 L-228.15 -20.4 -228.5 -18.9 -231.15 -18.9 -229.4 -21.5" fill="#fe0000" fill-rule="evenodd" stroke="none"/>
    <path d="M-236.25 -19.0 L-235.75 -23.25 -235.9 -23.65 -235.9 -24.15 -236.0 -24.15 -235.75 -24.9 -233.5 -25.15 -229.4 -21.5 -231.15 -18.9 -236.25 -19.0" fill="#b50000" fill-opacity="0.9098039" fill-rule="evenodd" stroke="none"/>
    <path d="M-363.9 -17.65 L-363.4 -17.4 -363.15 -17.15 -361.9 -15.5 -359.75 -13.25 -355.75 -9.15 -355.5 -8.5 -352.9 -9.4 -352.4 -9.65 -350.65 -6.4 -350.4 -6.15 -350.4 -5.65 -350.25 -5.4 -348.75 -0.9 -353.65 -0.9 -354.9 -1.75 -355.0 -2.15 -355.9 -2.5 -356.4 -3.25 -360.4 -6.0 -360.65 -6.4 -360.75 -6.5 -362.25 -7.4 -362.5 -7.65 -362.9 -8.25 -362.9 -8.4 -363.4 -8.9 -364.15 -10.0 -364.25 -10.4 -364.65 -10.9 -364.65 -11.0 -364.75 -11.5 -366.75 -17.0 -366.75 -17.15 -367.15 -17.9 -367.4 -18.5 -368.0 -20.5 -368.15 -20.65 -368.4 -21.15 -368.0 -20.5 -367.65 -20.4 -365.15 -18.25 -364.15 -17.9 -363.9 -17.65" fill="#b60000" fill-rule="evenodd" stroke="none"/>
    <path d="M-358.9 -15.0 L-354.4 -13.25 -353.0 -10.75 -352.9 -10.4 -352.9 -9.4 -355.5 -8.5 -355.75 -9.15 -359.75 -13.25 -359.5 -13.65 -359.4 -13.9 -359.0 -14.5 -358.9 -14.75 -358.9 -15.0" fill="#d50000" fill-opacity="0.9098039" fill-rule="evenodd" stroke="none"/>
    <path d="M-352.9 -10.4 L-352.4 -9.65 -352.9 -9.4 -352.9 -10.4" fill="#d80000" fill-opacity="0.9098039" fill-rule="evenodd" stroke="none"/>
    <path d="M-363.4 -8.9 L-363.9 -9.5 -364.15 -10.0 -363.4 -8.9" fill="#e50000" fill-rule="evenodd" stroke="none"/>
    <path d="M-353.65 -0.9 L-360.15 -0.9 -360.5 -2.15 -360.65 -2.25 -360.65 -2.4 -360.9 -3.25 -361.25 -4.0 -361.75 -5.65 -361.9 -5.9 -362.0 -6.25 -362.15 -6.5 -362.25 -7.4 -360.75 -6.5 -360.65 -6.4 -360.4 -6.0 -356.4 -3.25 -355.9 -2.5 -355.0 -2.15 -354.9 -1.75 -353.65 -0.9" fill="#d80000" fill-rule="evenodd" stroke="none"/>
  </g>
  <defs>
    <radialGradient cx="0" cy="0" gradientTransform="matrix(0.0885, 0.0, 0.0, 0.0885, -394.35, -249.0)" gradientUnits="userSpaceOnUse" id="gradient0" r="819.2" spreadMethod="pad">
      <stop offset="0.0" stop-color="#434343"/>
      <stop offset="1.0" stop-color="#1f1f1f"/>
    </radialGradient>
    <radialGradient cx="0" cy="0" gradientTransform="matrix(0.2592, 0.0, 0.0, 0.2592, -185.1, -201.6)" gradientUnits="userSpaceOnUse" id="gradient1" r="819.2" spreadMethod="pad">
      <stop offset="0.0" stop-color="#484848"/>
      <stop offset="1.0" stop-color="#1c1c1c"/>
    </radialGradient>
    <radialGradient cx="0" cy="0" gradientTransform="matrix(0.1792, 0.0, 0.0, 0.1792, -320.15, -153.1)" gradientUnits="userSpaceOnUse" id="gradient2" r="819.2" spreadMethod="pad">
      <stop offset="0.0" stop-color="#7d7d7d"/>
      <stop offset="1.0" stop-color="#0e0e0e"/>
    </radialGradient>
    <radialGradient cx="0" cy="0" gradientTransform="matrix(0.0511, 0.0, 0.0, 0.0511, -382.4, -226.2)" gradientUnits="userSpaceOnUse" id="gradient3" r="819.2" spreadMethod="pad">
      <stop offset="0.0" stop-color="#767676"/>
      <stop offset="1.0" stop-color="#767676"/>
    </radialGradient>
    <radialGradient cx="0" cy="0" gradientTransform="matrix(0.0084, 0.0, 0.0, 0.0084, -382.7, -258.2)" gradientUnits="userSpaceOnUse" id="gradient4" r="819.2" spreadMethod="pad">
      <stop offset="0.0" stop-color="#8a8a8a"/>
      <stop offset="1.0" stop-color="#8a8a8a"/>
    </radialGradient>
    <radialGradient cx="0" cy="0" gradientTransform="matrix(0.0084, 0.0, 0.0, 0.0084, -385.6, -259.35)" gradientUnits="userSpaceOnUse" id="gradient5" r="819.2" spreadMethod="pad">
      <stop offset="0.0" stop-color="#767676"/>
      <stop offset="1.0" stop-color="#767676"/>
    </radialGradient>
    <radialGradient cx="0" cy="0" gradientTransform="matrix(0.0232, 0.0, 0.0, 0.0232, -390.65, -298.55)" gradientUnits="userSpaceOnUse" id="gradient6" r="819.2" spreadMethod="pad">
      <stop offset="0.0" stop-color="#080808"/>
      <stop offset="1.0" stop-color="#080808"/>
    </radialGradient>
    <radialGradient cx="0" cy="0" gradientTransform="matrix(0.0058, 0.0, 0.0, 0.0058, -379.1, -233.0)" gradientUnits="userSpaceOnUse" id="gradient7" r="819.2" spreadMethod="pad">
      <stop offset="0.0" stop-color="#e2e2e2"/>
      <stop offset="1.0" stop-color="#e0e0e0"/>
    </radialGradient>
    <radialGradient cx="0" cy="0" gradientTransform="matrix(0.0121, 0.0, 0.0, 0.0121, -382.4, -226.2)" gradientUnits="userSpaceOnUse" id="gradient8" r="819.2" spreadMethod="pad">
      <stop offset="0.0" stop-color="#e1e1e1"/>
      <stop offset="1.0" stop-color="#dedede"/>
    </radialGradient>
    <radialGradient cx="0" cy="0" gradientTransform="matrix(0.019, 0.0, 0.0, 0.019, -352.25, -178.9)" gradientUnits="userSpaceOnUse" id="gradient9" r="819.2" spreadMethod="pad">
      <stop offset="0.0" stop-color="#ff5151"/>
      <stop offset="1.0" stop-color="#330000"/>
    </radialGradient>
    <radialGradient cx="0" cy="0" gradientTransform="matrix(0.0237, 0.0, 0.0, 0.0237, -347.95, -173.95)" gradientUnits="userSpaceOnUse" id="gradient10" r="819.2" spreadMethod="pad">
      <stop offset="0.0" stop-color="#f89797"/>
      <stop offset="1.0" stop-color="#864242"/>
    </radialGradient>
    <radialGradient cx="0" cy="0" gradientTransform="matrix(0.0191, 0.0, 0.0, 0.0191, -351.8, -178.6)" gradientUnits="userSpaceOnUse" id="gradient11" r="819.2" spreadMethod="pad">
      <stop offset="0.0" stop-color="#ff5151"/>
      <stop offset="1.0" stop-color="#ff4c4c"/>
    </radialGradient>
    <radialGradient cx="0" cy="0" gradientTransform="matrix(0.0206, 0.0, 0.0, 0.0206, -351.25, -172.35)" gradientUnits="userSpaceOnUse" id="gradient12" r="819.2" spreadMethod="pad">
      <stop offset="0.0" stop-color="#ff3030"/>
      <stop offset="1.0" stop-color="#ff2d2d"/>
    </radialGradient>
    <radialGradient cx="0" cy="0" gradientTransform="matrix(0.1744, 0.0, 0.0, 0.1744, -271.7, -143.95)" gradientUnits="userSpaceOnUse" id="gradient13" r="819.2" spreadMethod="pad">
      <stop offset="0.0" stop-color="#7b7b7b"/>
      <stop offset="1.0" stop-color="#0d0d0d"/>
    </radialGradient>
    <radialGradient cx="0" cy="0" gradientTransform="matrix(0.1798, 0.0, 0.0, 0.1798, -272.05, -148.15)" gradientUnits="userSpaceOnUse" id="gradient14" r="819.2" spreadMethod="pad">
      <stop offset="0.0" stop-color="#101010"/>
      <stop offset="1.0" stop-color="#000000"/>
    </radialGradient>
    <radialGradient cx="0" cy="0" gradientTransform="matrix(0.0232, 0.0, 0.0, 0.0232, -302.15, -151.6)" gradientUnits="userSpaceOnUse" id="gradient15" r="819.2" spreadMethod="pad">
      <stop offset="0.0" stop-color="#797979"/>
      <stop offset="1.0" stop-color="#000000"/>
    </radialGradient>
    <radialGradient cx="0" cy="0" gradientTransform="matrix(0.0392, 0.0, 0.0, 0.0392, -311.8, -149.65)" gradientUnits="userSpaceOnUse" id="gradient16" r="819.2" spreadMethod="pad">
      <stop offset="0.0" stop-color="#181818"/>
      <stop offset="1.0" stop-color="#000000"/>
    </radialGradient>
    <radialGradient cx="0" cy="0" gradientTransform="matrix(0.0645, 0.0, 0.0, 0.0645, -293.8, -139.7)" gradientUnits="userSpaceOnUse" id="gradient17" r="819.2" spreadMethod="pad">
      <stop offset="0.0" stop-color="#3c3c3c"/>
      <stop offset="1.0" stop-color="#000000"/>
    </radialGradient>
    <radialGradient cx="0" cy="0" gradientTransform="matrix(0.053, 0.0, 0.0, 0.053, -330.65, -87.35)" gradientUnits="userSpaceOnUse" id="gradient18" r="819.2" spreadMethod="pad">
      <stop offset="0.0" stop-color="#171717"/>
      <stop offset="1.0" stop-color="#000000"/>
    </radialGradient>
    <radialGradient cx="0" cy="0" gradientTransform="matrix(0.0273, 0.0, 0.0, 0.0273, -327.5, -130.6)" gradientUnits="userSpaceOnUse" id="gradient19" r="819.2" spreadMethod="pad">
      <stop offset="0.0" stop-color="#000000"/>
      <stop offset="1.0" stop-color="#000000"/>
    </radialGradient>
    <radialGradient cx="0" cy="0" gradientTransform="matrix(0.0508, 0.0, 0.0, 0.0508, -290.2, -133.15)" gradientUnits="userSpaceOnUse" id="gradient20" r="819.2" spreadMethod="pad">
      <stop offset="0.0" stop-color="#000000"/>
      <stop offset="1.0" stop-color="#000000"/>
    </radialGradient>
    <radialGradient cx="0" cy="0" gradientTransform="matrix(0.1064, 0.0, 0.0, 0.1064, -216.55, -93.2)" gradientUnits="userSpaceOnUse" id="gradient21" r="819.2" spreadMethod="pad">
      <stop offset="0.0" stop-color="#585858"/>
      <stop offset="1.0" stop-color="#000000"/>
    </radialGradient>
    <radialGradient cx="0" cy="0" gradientTransform="matrix(0.0744, 0.0, 0.0, 0.0744, -360.1, -68.0)" gradientUnits="userSpaceOnUse" id="gradient22" r="819.2" spreadMethod="pad">
      <stop offset="0.0" stop-color="#6a6a6a"/>
      <stop offset="1.0" stop-color="#000000"/>
    </radialGradient>
    <radialGradient cx="0" cy="0" gradientTransform="matrix(0.0353, 0.0, 0.0, 0.0353, -365.4, -101.8)" gradientUnits="userSpaceOnUse" id="gradient23" r="819.2" spreadMethod="pad">
      <stop offset="0.0" stop-color="#0f0f0f"/>
      <stop offset="1.0" stop-color="#000000"/>
    </radialGradient>
    <radialGradient cx="0" cy="0" gradientTransform="matrix(0.0444, 0.0, 0.0, 0.0444, -234.55, -92.05)" gradientUnits="userSpaceOnUse" id="gradient24" r="819.2" spreadMethod="pad">
      <stop offset="0.0" stop-color="#414141"/>
      <stop offset="1.0" stop-color="#0a0a0a"/>
    </radialGradient>
    <radialGradient cx="0" cy="0" gradientTransform="matrix(0.0505, 0.0, 0.0, 0.0505, -221.1, -94.75)" gradientUnits="userSpaceOnUse" id="gradient25" r="819.2" spreadMethod="pad">
      <stop offset="0.0" stop-color="#4c4c4c"/>
      <stop offset="1.0" stop-color="#000000"/>
    </radialGradient>
    <radialGradient cx="0" cy="0" gradientTransform="matrix(0.1541, 0.0, 0.0, 0.1541, -350.55, -6.5)" gradientUnits="userSpaceOnUse" id="gradient26" r="819.2" spreadMethod="pad">
      <stop offset="0.0" stop-color="#6a6a6a"/>
      <stop offset="1.0" stop-color="#000000"/>
    </radialGradient>
    <radialGradient cx="0" cy="0" gradientTransform="matrix(0.0459, 0.0, 0.0, 0.0459, -344.3, -96.95)" gradientUnits="userSpaceOnUse" id="gradient27" r="819.2" spreadMethod="pad">
      <stop offset="0.0" stop-color="#000000"/>
      <stop offset="1.0" stop-color="#000000"/>
    </radialGradient>
    <radialGradient cx="0" cy="0" gradientTransform="matrix(0.0463, 0.0, 0.0, 0.0463, -21.05, -123.75)" gradientUnits="userSpaceOnUse" id="gradient28" r="819.2" spreadMethod="pad">
      <stop offset="0.0" stop-color="#040404"/>
      <stop offset="1.0" stop-color="#040404"/>
    </radialGradient>
    <radialGradient cx="0" cy="0" gradientTransform="matrix(0.0264, 0.0, 0.0, 0.0264, -19.25, -123.6)" gradientUnits="userSpaceOnUse" id="gradient29" r="819.2" spreadMethod="pad">
      <stop offset="0.0" stop-color="#040404"/>
      <stop offset="1.0" stop-color="#040404"/>
    </radialGradient>
    <radialGradient cx="0" cy="0" gradientTransform="matrix(0.0766, 0.0, 0.0, 0.0766, -31.4, -96.75)" gradientUnits="userSpaceOnUse" id="gradient30" r="819.2" spreadMethod="pad">
      <stop offset="0.0" stop-color="#040404"/>
      <stop offset="1.0" stop-color="#040404"/>
    </radialGradient>
    <radialGradient cx="0" cy="0" gradientTransform="matrix(0.0253, 0.0, 0.0, 0.0253, -36.55, -112.7)" gradientUnits="userSpaceOnUse" id="gradient31" r="819.2" spreadMethod="pad">
      <stop offset="0.0" stop-color="#060606"/>
      <stop offset="1.0" stop-color="#060606"/>
    </radialGradient>
    <radialGradient cx="0" cy="0" gradientTransform="matrix(0.0324, 0.0, 0.0, 0.0324, -39.15, -120.5)" gradientUnits="userSpaceOnUse" id="gradient32" r="819.2" spreadMethod="pad">
      <stop offset="0.0" stop-color="#040404"/>
      <stop offset="1.0" stop-color="#040404"/>
    </radialGradient>
    <radialGradient cx="0" cy="0" gradientTransform="matrix(0.032, 0.0, 0.0, 0.032, -48.1, -119.0)" gradientUnits="userSpaceOnUse" id="gradient33" r="819.2" spreadMethod="pad">
      <stop offset="0.0" stop-color="#040404"/>
      <stop offset="1.0" stop-color="#040404"/>
    </radialGradient>
    <radialGradient cx="0" cy="0" gradientTransform="matrix(0.0258, 0.0, 0.0, 0.0258, -54.65, -118.3)" gradientUnits="userSpaceOnUse" id="gradient34" r="819.2" spreadMethod="pad">
      <stop offset="0.0" stop-color="#040404"/>
      <stop offset="1.0" stop-color="#040404"/>
    </radialGradient>
    <radialGradient cx="0" cy="0" gradientTransform="matrix(0.0279, 0.0, 0.0, 0.0279, -56.55, -119.65)" gradientUnits="userSpaceOnUse" id="gradient35" r="819.2" spreadMethod="pad">
      <stop offset="0.0" stop-color="#040404"/>
      <stop offset="1.0" stop-color="#040404"/>
    </radialGradient>
    <radialGradient cx="0" cy="0" gradientTransform="matrix(0.0273, 0.0, 0.0, 0.0273, -60.65, -122.0)" gradientUnits="userSpaceOnUse" id="gradient36" r="819.2" spreadMethod="pad">
      <stop offset="0.0" stop-color="#040404"/>
      <stop offset="1.0" stop-color="#040404"/>
    </radialGradient>
    <radialGradient cx="0" cy="0" gradientTransform="matrix(0.0455, 0.0, 0.0, 0.0455, -1.0, -125.75)" gradientUnits="userSpaceOnUse" id="gradient37" r="819.2" spreadMethod="pad">
      <stop offset="0.0" stop-color="#111111"/>
      <stop offset="1.0" stop-color="#111111"/>
    </radialGradient>
    <radialGradient cx="0" cy="0" gradientTransform="matrix(0.0427, 0.0, 0.0, 0.0427, -2.3, -106.15)" gradientUnits="userSpaceOnUse" id="gradient38" r="819.2" spreadMethod="pad">
      <stop offset="0.0" stop-color="#111111"/>
      <stop offset="1.0" stop-color="#111111"/>
    </radialGradient>
    <radialGradient cx="0" cy="0" gradientTransform="matrix(0.0253, 0.0, 0.0, 0.0253, -17.9, -122.35)" gradientUnits="userSpaceOnUse" id="gradient39" r="819.2" spreadMethod="pad">
      <stop offset="0.0" stop-color="#080808"/>
      <stop offset="1.0" stop-color="#080808"/>
    </radialGradient>
    <radialGradient cx="0" cy="0" gradientTransform="matrix(0.0876, 0.0, 0.0, 0.0876, -262.8, -58.65)" gradientUnits="userSpaceOnUse" id="gradient40" r="819.2" spreadMethod="pad">
      <stop offset="0.0" stop-color="#595959"/>
      <stop offset="1.0" stop-color="#000000"/>
    </radialGradient>
    <radialGradient cx="0" cy="0" gradientTransform="matrix(0.0275, 0.0, 0.0, 0.0275, -265.35, -88.95)" gradientUnits="userSpaceOnUse" id="gradient41" r="819.2" spreadMethod="pad">
      <stop offset="0.0" stop-color="#000000"/>
      <stop offset="1.0" stop-color="#000000"/>
    </radialGradient>
    <radialGradient cx="0" cy="0" gradientTransform="matrix(0.0889, 0.0, 0.0, 0.0889, -250.55, -44.1)" gradientUnits="userSpaceOnUse" id="gradient42" r="819.2" spreadMethod="pad">
      <stop offset="0.0" stop-color="#616161"/>
      <stop offset="1.0" stop-color="#000000"/>
    </radialGradient>
    <radialGradient cx="0" cy="0" gradientTransform="matrix(0.0124, 0.0, 0.0, 0.0124, -262.8, -58.65)" gradientUnits="userSpaceOnUse" id="gradient43" r="819.2" spreadMethod="pad">
      <stop offset="0.0" stop-color="#595959"/>
      <stop offset="1.0" stop-color="#000000"/>
    </radialGradient>
    <radialGradient cx="0" cy="0" gradientTransform="matrix(0.1236, 0.0, 0.0, 0.1236, -254.05, -29.8)" gradientUnits="userSpaceOnUse" id="gradient44" r="819.2" spreadMethod="pad">
      <stop offset="0.0" stop-color="#3f3f3f"/>
      <stop offset="1.0" stop-color="#060606"/>
    </radialGradient>
    <radialGradient cx="0" cy="0" gradientTransform="matrix(0.1065, 0.0, 0.0, 0.1065, -296.05, -119.05)" gradientUnits="userSpaceOnUse" id="gradient45" r="819.2" spreadMethod="pad">
      <stop offset="0.0" stop-color="#000000"/>
      <stop offset="1.0" stop-color="#000000"/>
    </radialGradient>
    <radialGradient cx="0" cy="0" gradientTransform="matrix(0.0304, 0.0, 0.0, 0.0304, -312.0, -120.35)" gradientUnits="userSpaceOnUse" id="gradient46" r="819.2" spreadMethod="pad">
      <stop offset="0.0" stop-color="#000000"/>
      <stop offset="1.0" stop-color="#000000"/>
    </radialGradient>
    <radialGradient cx="0" cy="0" gradientTransform="matrix(0.1022, 0.0, 0.0, 0.1022, -269.8, -36.65)" gradientUnits="userSpaceOnUse" id="gradient47" r="819.2" spreadMethod="pad">
      <stop offset="0.0" stop-color="#848484"/>
      <stop offset="1.0" stop-color="#000000"/>
    </radialGradient>
    <radialGradient cx="0" cy="0" gradientTransform="matrix(0.0488, 0.0, 0.0, 0.0488, -235.75, -24.75)" gradientUnits="userSpaceOnUse" id="gradient48" r="819.2" spreadMethod="pad">
      <stop offset="0.0" stop-color="#3e3e3e"/>
      <stop offset="1.0" stop-color="#1c1c1c"/>
    </radialGradient>
    <radialGradient cx="0" cy="0" gradientTransform="matrix(0.0296, 0.0, 0.0, 0.0296, -36.15, -112.45)" gradientUnits="userSpaceOnUse" id="gradient49" r="819.2" spreadMethod="pad">
      <stop offset="0.0" stop-color="#060606"/>
      <stop offset="1.0" stop-color="#060606"/>
    </radialGradient>
    <radialGradient cx="0" cy="0" gradientTransform="matrix(0.0181, 0.0, 0.0, 0.0181, -36.05, -99.05)" gradientUnits="userSpaceOnUse" id="gradient50" r="819.2" spreadMethod="pad">
      <stop offset="0.0" stop-color="#020202"/>
      <stop offset="1.0" stop-color="#020202"/>
    </radialGradient>
    <radialGradient cx="0" cy="0" gradientTransform="matrix(0.0181, 0.0, 0.0, 0.0181, -42.6, -98.75)" gradientUnits="userSpaceOnUse" id="gradient51" r="819.2" spreadMethod="pad">
      <stop offset="0.0" stop-color="#020202"/>
      <stop offset="1.0" stop-color="#020202"/>
    </radialGradient>
    <radialGradient cx="0" cy="0" gradientTransform="matrix(0.0181, 0.0, 0.0, 0.0181, -46.0, -98.6)" gradientUnits="userSpaceOnUse" id="gradient52" r="819.2" spreadMethod="pad">
      <stop offset="0.0" stop-color="#020202"/>
      <stop offset="1.0" stop-color="#020202"/>
    </radialGradient>
    <radialGradient cx="0" cy="0" gradientTransform="matrix(0.0179, 0.0, 0.0, 0.0179, -49.3, -98.3)" gradientUnits="userSpaceOnUse" id="gradient53" r="819.2" spreadMethod="pad">
      <stop offset="0.0" stop-color="#020202"/>
      <stop offset="1.0" stop-color="#020202"/>
    </radialGradient>
    <radialGradient cx="0" cy="0" gradientTransform="matrix(0.0178, 0.0, 0.0, 0.0178, -52.65, -98.1)" gradientUnits="userSpaceOnUse" id="gradient54" r="819.2" spreadMethod="pad">
      <stop offset="0.0" stop-color="#020202"/>
      <stop offset="1.0" stop-color="#020202"/>
    </radialGradient>
    <radialGradient cx="0" cy="0" gradientTransform="matrix(0.0342, 0.0, 0.0, 0.0342, -56.6, -111.4)" gradientUnits="userSpaceOnUse" id="gradient55" r="819.2" spreadMethod="pad">
      <stop offset="0.0" stop-color="#020202"/>
      <stop offset="1.0" stop-color="#020202"/>
    </radialGradient>
    <radialGradient cx="0" cy="0" gradientTransform="matrix(0.0256, 0.0, 0.0, 0.0256, -35.5, -112.55)" gradientUnits="userSpaceOnUse" id="gradient56" r="819.2" spreadMethod="pad">
      <stop offset="0.0" stop-color="#252525"/>
      <stop offset="1.0" stop-color="#242424"/>
    </radialGradient>
    <radialGradient cx="0" cy="0" gradientTransform="matrix(0.0261, 0.0, 0.0, 0.0261, -31.4, -96.3)" gradientUnits="userSpaceOnUse" id="gradient57" r="819.2" spreadMethod="pad">
      <stop offset="0.0" stop-color="#2e2e2e"/>
      <stop offset="1.0" stop-color="#282828"/>
    </radialGradient>
    <radialGradient cx="0" cy="0" gradientTransform="matrix(0.0285, 0.0, 0.0, 0.0285, -23.55, -97.45)" gradientUnits="userSpaceOnUse" id="gradient58" r="819.2" spreadMethod="pad">
      <stop offset="0.0" stop-color="#171717"/>
      <stop offset="1.0" stop-color="#171717"/>
    </radialGradient>
    <radialGradient cx="0" cy="0" gradientTransform="matrix(0.0246, 0.0, 0.0, 0.0246, -28.6, -101.05)" gradientUnits="userSpaceOnUse" id="gradient59" r="819.2" spreadMethod="pad">
      <stop offset="0.0" stop-color="#171717"/>
      <stop offset="1.0" stop-color="#171717"/>
    </radialGradient>
    <radialGradient cx="0" cy="0" gradientTransform="matrix(0.0392, 0.0, 0.0, 0.0392, -3.95, -106.4)" gradientUnits="userSpaceOnUse" id="gradient60" r="819.2" spreadMethod="pad">
      <stop offset="0.0" stop-color="#050505"/>
      <stop offset="1.0" stop-color="#050505"/>
    </radialGradient>
    <radialGradient cx="0" cy="0" gradientTransform="matrix(0.0157, 0.0, 0.0, 0.0157, -11.85, -112.65)" gradientUnits="userSpaceOnUse" id="gradient61" r="819.2" spreadMethod="pad">
      <stop offset="0.0" stop-color="#1e1e1e"/>
      <stop offset="1.0" stop-color="#050505"/>
    </radialGradient>
    <radialGradient cx="0" cy="0" gradientTransform="matrix(0.0677, 0.0, 0.0, 0.0677, -4.2, -71.95)" gradientUnits="userSpaceOnUse" id="gradient62" r="819.2" spreadMethod="pad">
      <stop offset="0.0" stop-color="#050505"/>
      <stop offset="1.0" stop-color="#050505"/>
    </radialGradient>
    <radialGradient cx="0" cy="0" gradientTransform="matrix(0.0342, 0.0, 0.0, 0.0342, -56.6, -111.4)" gradientUnits="userSpaceOnUse" id="gradient63" r="819.2" spreadMethod="pad">
      <stop offset="0.0" stop-color="#1e1e1e"/>
      <stop offset="1.0" stop-color="#1e1e1e"/>
    </radialGradient>
    <radialGradient cx="0" cy="0" gradientTransform="matrix(0.0243, 0.0, 0.0, 0.0243, -81.35, -108.2)" gradientUnits="userSpaceOnUse" id="gradient64" r="819.2" spreadMethod="pad">
      <stop offset="0.0" stop-color="#040404"/>
      <stop offset="1.0" stop-color="#040404"/>
    </radialGradient>
    <radialGradient cx="0" cy="0" gradientTransform="matrix(0.0299, 0.0, 0.0, 0.0299, -82.55, -106.65)" gradientUnits="userSpaceOnUse" id="gradient65" r="819.2" spreadMethod="pad">
      <stop offset="0.0" stop-color="#171717"/>
      <stop offset="1.0" stop-color="#171717"/>
    </radialGradient>
    <radialGradient cx="0" cy="0" gradientTransform="matrix(0.0242, 0.0, 0.0, 0.0242, -75.7, -110.25)" gradientUnits="userSpaceOnUse" id="gradient66" r="819.2" spreadMethod="pad">
      <stop offset="0.0" stop-color="#1d1d1d"/>
      <stop offset="1.0" stop-color="#191919"/>
    </radialGradient>
    <radialGradient cx="0" cy="0" gradientTransform="matrix(0.0097, 0.0, 0.0, 0.0097, -86.9, -97.25)" gradientUnits="userSpaceOnUse" id="gradient67" r="819.2" spreadMethod="pad">
      <stop offset="0.0" stop-color="#171717"/>
      <stop offset="1.0" stop-color="#171717"/>
    </radialGradient>
    <radialGradient cx="0" cy="0" gradientTransform="matrix(0.0293, 0.0, 0.0, 0.0293, -82.35, -102.25)" gradientUnits="userSpaceOnUse" id="gradient68" r="819.2" spreadMethod="pad">
      <stop offset="0.0" stop-color="#828282"/>
      <stop offset="1.0" stop-color="#727272"/>
    </radialGradient>
    <radialGradient cx="0" cy="0" gradientTransform="matrix(0.0242, 0.0, 0.0, 0.0242, -91.25, -100.55)" gradientUnits="userSpaceOnUse" id="gradient69" r="819.2" spreadMethod="pad">
      <stop offset="0.0" stop-color="#040404"/>
      <stop offset="1.0" stop-color="#040404"/>
    </radialGradient>
    <radialGradient cx="0" cy="0" gradientTransform="matrix(0.0242, 0.0, 0.0, 0.0242, -89.9, -100.2)" gradientUnits="userSpaceOnUse" id="gradient70" r="819.2" spreadMethod="pad">
      <stop offset="0.0" stop-color="#171717"/>
      <stop offset="1.0" stop-color="#171717"/>
    </radialGradient>
    <radialGradient cx="0" cy="0" gradientTransform="matrix(0.093, 0.0, 0.0, 0.093, -21.75, -58.45)" gradientUnits="userSpaceOnUse" id="gradient71" r="819.2" spreadMethod="pad">
      <stop offset="0.0" stop-color="#040404"/>
      <stop offset="1.0" stop-color="#040404"/>
    </radialGradient>
    <radialGradient cx="0" cy="0" gradientTransform="matrix(0.0373, 0.0, 0.0, 0.0373, -32.1, -99.25)" gradientUnits="userSpaceOnUse" id="gradient72" r="819.2" spreadMethod="pad">
      <stop offset="0.0" stop-color="#202020"/>
      <stop offset="1.0" stop-color="#040404"/>
    </radialGradient>
    <radialGradient cx="0" cy="0" gradientTransform="matrix(0.0358, 0.0, 0.0, 0.0358, -28.6, -101.05)" gradientUnits="userSpaceOnUse" id="gradient73" r="819.2" spreadMethod="pad">
      <stop offset="0.0" stop-color="#171717"/>
      <stop offset="1.0" stop-color="#171717"/>
    </radialGradient>
    <radialGradient cx="0" cy="0" gradientTransform="matrix(0.0138, 0.0, 0.0, 0.0138, -86.05, -93.35)" gradientUnits="userSpaceOnUse" id="gradient74" r="819.2" spreadMethod="pad">
      <stop offset="0.0" stop-color="#020202"/>
      <stop offset="1.0" stop-color="#020202"/>
    </radialGradient>
    <radialGradient cx="0" cy="0" gradientTransform="matrix(0.0257, 0.0, 0.0, 0.0257, -84.25, -99.95)" gradientUnits="userSpaceOnUse" id="gradient75" r="819.2" spreadMethod="pad">
      <stop offset="0.0" stop-color="#1c1c1c"/>
      <stop offset="1.0" stop-color="#1b1b1b"/>
    </radialGradient>
    <radialGradient cx="0" cy="0" gradientTransform="matrix(0.0392, 0.0, 0.0, 0.0392, -83.25, -82.35)" gradientUnits="userSpaceOnUse" id="gradient76" r="819.2" spreadMethod="pad">
      <stop offset="0.0" stop-color="#1f1f1f"/>
      <stop offset="1.0" stop-color="#1e1e1e"/>
    </radialGradient>
    <radialGradient cx="0" cy="0" gradientTransform="matrix(0.0311, 0.0, 0.0, 0.0311, -93.9, -99.9)" gradientUnits="userSpaceOnUse" id="gradient77" r="819.2" spreadMethod="pad">
      <stop offset="0.0" stop-color="#828282"/>
      <stop offset="1.0" stop-color="#3e3e3e"/>
    </radialGradient>
    <radialGradient cx="0" cy="0" gradientTransform="matrix(0.0213, 0.0, 0.0, 0.0213, -84.95, -101.15)" gradientUnits="userSpaceOnUse" id="gradient78" r="819.2" spreadMethod="pad">
      <stop offset="0.0" stop-color="#212121"/>
      <stop offset="1.0" stop-color="#1f1f1f"/>
    </radialGradient>
    <radialGradient cx="0" cy="0" gradientTransform="matrix(0.0414, 0.0, 0.0, 0.0414, -31.95, -84.7)" gradientUnits="userSpaceOnUse" id="gradient79" r="819.2" spreadMethod="pad">
      <stop offset="0.0" stop-color="#040404"/>
      <stop offset="1.0" stop-color="#040404"/>
    </radialGradient>
    <radialGradient cx="0" cy="0" gradientTransform="matrix(0.0247, 0.0, 0.0, 0.0247, -2.7, -107.65)" gradientUnits="userSpaceOnUse" id="gradient80" r="819.2" spreadMethod="pad">
      <stop offset="0.0" stop-color="#040404"/>
      <stop offset="1.0" stop-color="#040404"/>
    </radialGradient>
    <radialGradient cx="0" cy="0" gradientTransform="matrix(0.0245, 0.0, 0.0, 0.0245, -85.85, -89.3)" gradientUnits="userSpaceOnUse" id="gradient81" r="819.2" spreadMethod="pad">
      <stop offset="0.0" stop-color="#5f5f5f"/>
      <stop offset="1.0" stop-color="#5e5e5e"/>
    </radialGradient>
    <radialGradient cx="0" cy="0" gradientTransform="matrix(0.0242, 0.0, 0.0, 0.0242, -89.6, -97.2)" gradientUnits="userSpaceOnUse" id="gradient82" r="819.2" spreadMethod="pad">
      <stop offset="0.0" stop-color="#818181"/>
      <stop offset="1.0" stop-color="#666666"/>
    </radialGradient>
    <radialGradient cx="0" cy="0" gradientTransform="matrix(0.0022, 0.0, 0.0, 0.0022, -61.2, -94.85)" gradientUnits="userSpaceOnUse" id="gradient83" r="819.2" spreadMethod="pad">
      <stop offset="0.0" stop-color="#020202"/>
      <stop offset="1.0" stop-color="#020202"/>
    </radialGradient>
    <radialGradient cx="0" cy="0" gradientTransform="matrix(0.0259, 0.0, 0.0, 0.0259, -61.45, -94.45)" gradientUnits="userSpaceOnUse" id="gradient84" r="819.2" spreadMethod="pad">
      <stop offset="0.0" stop-color="#212121"/>
      <stop offset="1.0" stop-color="#161616"/>
    </radialGradient>
    <radialGradient cx="0" cy="0" gradientTransform="matrix(0.0125, 0.0, 0.0, 0.0125, -70.75, -93.0)" gradientUnits="userSpaceOnUse" id="gradient85" r="819.2" spreadMethod="pad">
      <stop offset="0.0" stop-color="#020202"/>
      <stop offset="1.0" stop-color="#020202"/>
    </radialGradient>
    <radialGradient cx="0" cy="0" gradientTransform="matrix(0.0125, 0.0, 0.0, 0.0125, -67.8, -93.15)" gradientUnits="userSpaceOnUse" id="gradient86" r="819.2" spreadMethod="pad">
      <stop offset="0.0" stop-color="#020202"/>
      <stop offset="1.0" stop-color="#020202"/>
    </radialGradient>
    <radialGradient cx="0" cy="0" gradientTransform="matrix(0.0327, 0.0, 0.0, 0.0327, -59.85, -110.05)" gradientUnits="userSpaceOnUse" id="gradient87" r="819.2" spreadMethod="pad">
      <stop offset="0.0" stop-color="#020202"/>
      <stop offset="1.0" stop-color="#020202"/>
    </radialGradient>
    <radialGradient cx="0" cy="0" gradientTransform="matrix(0.0114, 0.0, 0.0, 0.0114, -61.75, -92.5)" gradientUnits="userSpaceOnUse" id="gradient88" r="819.2" spreadMethod="pad">
      <stop offset="0.0" stop-color="#020202"/>
      <stop offset="1.0" stop-color="#020202"/>
    </radialGradient>
    <radialGradient cx="0" cy="0" gradientTransform="matrix(0.0116, 0.0, 0.0, 0.0116, -64.8, -92.55)" gradientUnits="userSpaceOnUse" id="gradient89" r="819.2" spreadMethod="pad">
      <stop offset="0.0" stop-color="#020202"/>
      <stop offset="1.0" stop-color="#020202"/>
    </radialGradient>
    <radialGradient cx="0" cy="0" gradientTransform="matrix(0.0154, 0.0, 0.0, 0.0154, -76.85, -95.15)" gradientUnits="userSpaceOnUse" id="gradient90" r="819.2" spreadMethod="pad">
      <stop offset="0.0" stop-color="#020202"/>
      <stop offset="1.0" stop-color="#020202"/>
    </radialGradient>
    <radialGradient cx="0" cy="0" gradientTransform="matrix(0.0181, 0.0, 0.0, 0.0181, -39.4, -98.9)" gradientUnits="userSpaceOnUse" id="gradient91" r="819.2" spreadMethod="pad">
      <stop offset="0.0" stop-color="#020202"/>
      <stop offset="1.0" stop-color="#020202"/>
    </radialGradient>
    <radialGradient cx="0" cy="0" gradientTransform="matrix(0.0254, 0.0, 0.0, 0.0254, -36.05, -99.05)" gradientUnits="userSpaceOnUse" id="gradient92" r="819.2" spreadMethod="pad">
      <stop offset="0.0" stop-color="#1f1f1f"/>
      <stop offset="1.0" stop-color="#1e1e1e"/>
    </radialGradient>
    <radialGradient cx="0" cy="0" gradientTransform="matrix(0.0328, 0.0, 0.0, 0.0328, -94.05, -100.25)" gradientUnits="userSpaceOnUse" id="gradient93" r="819.2" spreadMethod="pad">
      <stop offset="0.0" stop-color="#2f2f2f"/>
      <stop offset="1.0" stop-color="#292929"/>
    </radialGradient>
    <radialGradient cx="0" cy="0" gradientTransform="matrix(0.0231, 0.0, 0.0, 0.0231, -91.6, -80.95)" gradientUnits="userSpaceOnUse" id="gradient94" r="819.2" spreadMethod="pad">
      <stop offset="0.0" stop-color="#090909"/>
      <stop offset="1.0" stop-color="#090909"/>
    </radialGradient>
    <radialGradient cx="0" cy="0" gradientTransform="matrix(0.0831, 0.0, 0.0, 0.0831, -202.15, -80.1)" gradientUnits="userSpaceOnUse" id="gradient95" r="819.2" spreadMethod="pad">
      <stop offset="0.0" stop-color="#686868"/>
      <stop offset="1.0" stop-color="#181818"/>
    </radialGradient>
    <radialGradient cx="0" cy="0" gradientTransform="matrix(0.0417, 0.0, 0.0, 0.0417, -153.2, -32.85)" gradientUnits="userSpaceOnUse" id="gradient96" r="819.2" spreadMethod="pad">
      <stop offset="0.0" stop-color="#484848"/>
      <stop offset="1.0" stop-color="#000000"/>
    </radialGradient>
    <radialGradient cx="0" cy="0" gradientTransform="matrix(0.0136, 0.0, 0.0, 0.0136, -74.35, -93.8)" gradientUnits="userSpaceOnUse" id="gradient97" r="819.2" spreadMethod="pad">
      <stop offset="0.0" stop-color="#020202"/>
      <stop offset="1.0" stop-color="#020202"/>
    </radialGradient>
    <radialGradient cx="0" cy="0" gradientTransform="matrix(0.0202, 0.0, 0.0, 0.0202, -24.95, -60.7)" gradientUnits="userSpaceOnUse" id="gradient98" r="819.2" spreadMethod="pad">
      <stop offset="0.0" stop-color="#060606"/>
      <stop offset="1.0" stop-color="#060606"/>
    </radialGradient>
    <radialGradient cx="0" cy="0" gradientTransform="matrix(0.0131, 0.0, 0.0, 0.0131, -4.2, -64.1)" gradientUnits="userSpaceOnUse" id="gradient99" r="819.2" spreadMethod="pad">
      <stop offset="0.0" stop-color="#414141"/>
      <stop offset="1.0" stop-color="#383838"/>
    </radialGradient>
    <radialGradient cx="0" cy="0" gradientTransform="matrix(0.0407, 0.0, 0.0, 0.0407, -66.5, -59.9)" gradientUnits="userSpaceOnUse" id="gradient100" r="819.2" spreadMethod="pad">
      <stop offset="0.0" stop-color="#030303"/>
      <stop offset="1.0" stop-color="#030303"/>
    </radialGradient>
    <radialGradient cx="0" cy="0" gradientTransform="matrix(0.0365, 0.0, 0.0, 0.0365, -66.5, -59.8)" gradientUnits="userSpaceOnUse" id="gradient101" r="819.2" spreadMethod="pad">
      <stop offset="0.0" stop-color="#222222"/>
      <stop offset="1.0" stop-color="#090909"/>
    </radialGradient>
    <radialGradient cx="0" cy="0" gradientTransform="matrix(0.0229, 0.0, 0.0, 0.0229, -95.25, -76.75)" gradientUnits="userSpaceOnUse" id="gradient102" r="819.2" spreadMethod="pad">
      <stop offset="0.0" stop-color="#1e1e1e"/>
      <stop offset="1.0" stop-color="#1d1d1d"/>
    </radialGradient>
    <radialGradient cx="0" cy="0" gradientTransform="matrix(0.0091, 0.0, 0.0, 0.0091, -1.0, -78.75)" gradientUnits="userSpaceOnUse" id="gradient103" r="819.2" spreadMethod="pad">
      <stop offset="0.0" stop-color="#383838"/>
      <stop offset="1.0" stop-color="#363636"/>
    </radialGradient>
    <radialGradient cx="0" cy="0" gradientTransform="matrix(0.0169, 0.0, 0.0, 0.0169, -1.75, -74.95)" gradientUnits="userSpaceOnUse" id="gradient104" r="819.2" spreadMethod="pad">
      <stop offset="0.0" stop-color="#303030"/>
      <stop offset="1.0" stop-color="#262626"/>
    </radialGradient>
    <radialGradient cx="0" cy="0" gradientTransform="matrix(0.0318, 0.0, 0.0, 0.0318, -7.3, -72.35)" gradientUnits="userSpaceOnUse" id="gradient105" r="819.2" spreadMethod="pad">
      <stop offset="0.0" stop-color="#0b0b0b"/>
      <stop offset="1.0" stop-color="#0b0b0b"/>
    </radialGradient>
    <radialGradient cx="0" cy="0" gradientTransform="matrix(0.0114, 0.0, 0.0, 0.0114, -3.8, -68.25)" gradientUnits="userSpaceOnUse" id="gradient106" r="819.2" spreadMethod="pad">
      <stop offset="0.0" stop-color="#494949"/>
      <stop offset="1.0" stop-color="#3b3b3b"/>
    </radialGradient>
    <radialGradient cx="0" cy="0" gradientTransform="matrix(0.0286, 0.0, 0.0, 0.0286, -28.75, -76.45)" gradientUnits="userSpaceOnUse" id="gradient107" r="819.2" spreadMethod="pad">
      <stop offset="0.0" stop-color="#3c3c3c"/>
      <stop offset="1.0" stop-color="#202020"/>
    </radialGradient>
    <radialGradient cx="0" cy="0" gradientTransform="matrix(0.1267, 0.0, 0.0, 0.1267, -146.85, -26.05)" gradientUnits="userSpaceOnUse" id="gradient108" r="819.2" spreadMethod="pad">
      <stop offset="0.0" stop-color="#1d1d1d"/>
      <stop offset="1.0" stop-color="#060606"/>
    </radialGradient>
    <radialGradient cx="0" cy="0" gradientTransform="matrix(0.0226, 0.0, 0.0, 0.0226, -21.7, -58.6)" gradientUnits="userSpaceOnUse" id="gradient109" r="819.2" spreadMethod="pad">
      <stop offset="0.0" stop-color="#171717"/>
      <stop offset="1.0" stop-color="#171717"/>
    </radialGradient>
    <radialGradient cx="0" cy="0" gradientTransform="matrix(0.0335, 0.0, 0.0, 0.0335, -33.05, -73.25)" gradientUnits="userSpaceOnUse" id="gradient110" r="819.2" spreadMethod="pad">
      <stop offset="0.0" stop-color="#616161"/>
      <stop offset="1.0" stop-color="#181818"/>
    </radialGradient>
    <radialGradient cx="0" cy="0" gradientTransform="matrix(0.0421, 0.0, 0.0, 0.0421, -33.5, -72.7)" gradientUnits="userSpaceOnUse" id="gradient111" r="819.2" spreadMethod="pad">
      <stop offset="0.0" stop-color="#313131"/>
      <stop offset="1.0" stop-color="#0b0b0b"/>
    </radialGradient>
    <radialGradient cx="0" cy="0" gradientTransform="matrix(0.0325, 0.0, 0.0, 0.0325, -31.55, -74.3)" gradientUnits="userSpaceOnUse" id="gradient112" r="819.2" spreadMethod="pad">
      <stop offset="0.0" stop-color="#727272"/>
      <stop offset="1.0" stop-color="#313131"/>
    </radialGradient>
    <radialGradient cx="0" cy="0" gradientTransform="matrix(0.0372, 0.0, 0.0, 0.0372, -11.15, -87.0)" gradientUnits="userSpaceOnUse" id="gradient113" r="819.2" spreadMethod="pad">
      <stop offset="0.0" stop-color="#313131"/>
      <stop offset="1.0" stop-color="#1d1d1d"/>
    </radialGradient>
    <radialGradient cx="0" cy="0" gradientTransform="matrix(0.05, 0.0, 0.0, 0.05, -384.35, -65.75)" gradientUnits="userSpaceOnUse" id="gradient114" r="819.2" spreadMethod="pad">
      <stop offset="0.0" stop-color="#191919"/>
      <stop offset="1.0" stop-color="#000000"/>
    </radialGradient>
    <radialGradient cx="0" cy="0" gradientTransform="matrix(0.0395, 0.0, 0.0, 0.0395, -374.15, -35.05)" gradientUnits="userSpaceOnUse" id="gradient115" r="819.2" spreadMethod="pad">
      <stop offset="0.0" stop-color="#393939"/>
      <stop offset="1.0" stop-color="#1e1e1e"/>
    </radialGradient>
    <radialGradient cx="0" cy="0" gradientTransform="matrix(0.0972, 0.0, 0.0, 0.0972, -365.1, -18.4)" gradientUnits="userSpaceOnUse" id="gradient116" r="819.2" spreadMethod="pad">
      <stop offset="0.0" stop-color="#858585"/>
      <stop offset="1.0" stop-color="#000000"/>
    </radialGradient>
    <radialGradient cx="0" cy="0" gradientTransform="matrix(0.0444, 0.0, 0.0, 0.0444, -332.2, -8.75)" gradientUnits="userSpaceOnUse" id="gradient117" r="819.2" spreadMethod="pad">
      <stop offset="0.0" stop-color="#363636"/>
      <stop offset="1.0" stop-color="#000000"/>
    </radialGradient>
    <radialGradient cx="0" cy="0" gradientTransform="matrix(0.0448, 0.0, 0.0, 0.0448, -360.45, -1.0)" gradientUnits="userSpaceOnUse" id="gradient118" r="819.2" spreadMethod="pad">
      <stop offset="0.0" stop-color="#474747"/>
      <stop offset="1.0" stop-color="#131313"/>
    </radialGradient>
    <radialGradient cx="0" cy="0" gradientTransform="matrix(0.0277, 0.0, 0.0, 0.0277, -20.7, -56.25)" gradientUnits="userSpaceOnUse" id="gradient119" r="819.2" spreadMethod="pad">
      <stop offset="0.0" stop-color="#0b0b0b"/>
      <stop offset="1.0" stop-color="#0b0b0b"/>
    </radialGradient>
    <radialGradient cx="0" cy="0" gradientTransform="matrix(0.0266, 0.0, 0.0, 0.0266, -29.85, -52.6)" gradientUnits="userSpaceOnUse" id="gradient120" r="819.2" spreadMethod="pad">
      <stop offset="0.0" stop-color="#131313"/>
      <stop offset="1.0" stop-color="#121212"/>
    </radialGradient>
    <radialGradient cx="0" cy="0" gradientTransform="matrix(0.0258, 0.0, 0.0, 0.0258, -10.0, -66.85)" gradientUnits="userSpaceOnUse" id="gradient121" r="819.2" spreadMethod="pad">
      <stop offset="0.0" stop-color="#010101"/>
      <stop offset="1.0" stop-color="#010101"/>
    </radialGradient>
    <radialGradient cx="0" cy="0" gradientTransform="matrix(0.0282, 0.0, 0.0, 0.0282, -31.15, -53.5)" gradientUnits="userSpaceOnUse" id="gradient122" r="819.2" spreadMethod="pad">
      <stop offset="0.0" stop-color="#313131"/>
      <stop offset="1.0" stop-color="#2f2f2f"/>
    </radialGradient>
    <radialGradient cx="0" cy="0" gradientTransform="matrix(0.064, 0.0, 0.0, 0.064, -22.9, -8.55)" gradientUnits="userSpaceOnUse" id="gradient123" r="819.2" spreadMethod="pad">
      <stop offset="0.0" stop-color="#323232"/>
      <stop offset="1.0" stop-color="#292929"/>
    </radialGradient>
    <radialGradient cx="0" cy="0" gradientTransform="matrix(0.0528, 0.0, 0.0, 0.0528, -30.55, -49.5)" gradientUnits="userSpaceOnUse" id="gradient124" r="819.2" spreadMethod="pad">
      <stop offset="0.0" stop-color="#010101"/>
      <stop offset="1.0" stop-color="#010101"/>
    </radialGradient>
    <radialGradient cx="0" cy="0" gradientTransform="matrix(0.0301, 0.0, 0.0, 0.0301, -10.8, -35.1)" gradientUnits="userSpaceOnUse" id="gradient125" r="819.2" spreadMethod="pad">
      <stop offset="0.0" stop-color="#101010"/>
      <stop offset="1.0" stop-color="#101010"/>
    </radialGradient>
    <radialGradient cx="0" cy="0" gradientTransform="matrix(0.0597, 0.0, 0.0, 0.0597, -53.25, -21.35)" gradientUnits="userSpaceOnUse" id="gradient126" r="819.2" spreadMethod="pad">
      <stop offset="0.0" stop-color="#868686"/>
      <stop offset="1.0" stop-color="#000000"/>
    </radialGradient>
    <radialGradient cx="0" cy="0" gradientTransform="matrix(0.0253, 0.0, 0.0, 0.0253, -5.35, -20.15)" gradientUnits="userSpaceOnUse" id="gradient127" r="819.2" spreadMethod="pad">
      <stop offset="0.0" stop-color="#121212"/>
      <stop offset="1.0" stop-color="#0f0f0f"/>
    </radialGradient>
    <radialGradient cx="0" cy="0" gradientTransform="matrix(0.0258, 0.0, 0.0, 0.0258, -4.95, -19.45)" gradientUnits="userSpaceOnUse" id="gradient128" r="819.2" spreadMethod="pad">
      <stop offset="0.0" stop-color="#040404"/>
      <stop offset="1.0" stop-color="#040404"/>
    </radialGradient>
    <radialGradient cx="0" cy="0" gradientTransform="matrix(0.0249, 0.0, 0.0, 0.0249, -20.15, -5.9)" gradientUnits="userSpaceOnUse" id="gradient129" r="819.2" spreadMethod="pad">
      <stop offset="0.0" stop-color="#323232"/>
      <stop offset="1.0" stop-color="#212121"/>
    </radialGradient>
    <radialGradient cx="0" cy="0" gradientTransform="matrix(0.1306, 0.0, 0.0, 0.1306, -27.35, -12.15)" gradientUnits="userSpaceOnUse" id="gradient130" r="819.2" spreadMethod="pad">
      <stop offset="0.0" stop-color="#151515"/>
      <stop offset="1.0" stop-color="#000000"/>
    </radialGradient>
    <radialGradient cx="0" cy="0" gradientTransform="matrix(0.0397, 0.0, 0.0, 0.0397, -124.25, -1.0)" gradientUnits="userSpaceOnUse" id="gradient131" r="819.2" spreadMethod="pad">
      <stop offset="0.0" stop-color="#000000"/>
      <stop offset="1.0" stop-color="#000000"/>
    </radialGradient>
    <radialGradient cx="0" cy="0" gradientTransform="matrix(0.0609, 0.0, 0.0, 0.0609, -183.2, -16.4)" gradientUnits="userSpaceOnUse" id="gradient132" r="819.2" spreadMethod="pad">
      <stop offset="0.0" stop-color="#000000"/>
      <stop offset="1.0" stop-color="#000000"/>
    </radialGradient>
    <radialGradient cx="0" cy="0" gradientTransform="matrix(0.0121, 0.0, 0.0, 0.0121, -350.55, -6.5)" gradientUnits="userSpaceOnUse" id="gradient133" r="819.2" spreadMethod="pad">
      <stop offset="0.0" stop-color="#6a6a6a"/>
      <stop offset="1.0" stop-color="#474747"/>
    </radialGradient>
  </defs>
</svg>
