<?xml version="1.0" encoding="UTF-8" standalone="no"?>
<svg xmlns:xlink="http://www.w3.org/1999/xlink" height="299.1px" width="399.1px" xmlns="http://www.w3.org/2000/svg">
  <g transform="matrix(1.0, 0.0, 0.0, 1.0, 400.0, 300.0)">
    <path d="M-370.65 -166.65 L-369.25 -157.0 -369.75 -157.25 -378.9 -170.25 -391.0 -171.0 -395.75 -186.65 -400.0 -190.0 -400.0 -217.0 -392.0 -216.5 Q-388.5 -185.75 -370.65 -166.65 M-400.0 -249.4 L-400.0 -277.4 -380.75 -300.0 -371.25 -300.0 -374.25 -283.4 -377.5 -279.65 -386.25 -263.4 -390.4 -249.4 -400.0 -249.4" fill="url(#gradient0)" fill-rule="evenodd" stroke="none"/>
    <path d="M-371.25 -300.0 L-220.25 -300.0 -202.9 -278.65 -192.75 -252.0 -191.65 -246.4 -189.15 -221.75 -192.5 -197.25 -193.75 -191.75 -204.9 -165.9 -231.0 -136.5 Q-240.65 -135.25 -243.4 -137.15 L-249.4 -146.9 -259.25 -143.0 -267.0 -140.15 -289.75 -157.5 -329.4 -179.75 -354.9 -214.0 -362.0 -223.5 -358.25 -248.5 -354.9 -270.5 -355.15 -271.15 -369.25 -248.5 -383.0 -224.5 Q-383.65 -225.0 -382.75 -229.0 L-380.65 -243.0 -380.0 -246.75 -374.25 -283.4 -371.25 -300.0 M-250.75 -156.5 L-269.15 -156.65 -266.65 -140.5 -250.75 -156.5" fill="url(#gradient1)" fill-rule="evenodd" stroke="none"/>
    <path d="M-320.65 -136.25 Q-351.65 -143.15 -370.65 -166.65 -388.5 -185.75 -392.0 -216.5 L-385.4 -216.0 -381.5 -216.0 -378.15 -221.5 -377.65 -221.25 -373.25 -215.0 -354.9 -214.0 -329.4 -179.75 -289.75 -157.5 -267.0 -140.15 -259.25 -143.0 -267.25 -139.0 -279.25 -135.9 -280.15 -135.9 -285.15 -134.65 -292.15 -134.0 -299.75 -133.9 -299.65 -133.65 -308.4 -134.0 -314.0 -134.75 -320.65 -136.25 M-369.25 -248.5 L-355.15 -271.15 -354.9 -270.5 -358.25 -248.5 -369.25 -248.5 M-390.4 -249.4 L-386.25 -263.4 -377.5 -279.65 -374.25 -283.4 -380.0 -246.75 -381.4 -248.15 -384.5 -249.15 -388.65 -249.4 -390.4 -249.4 M-353.95 -167.7 L-349.9 -167.15 Q-359.4 -174.15 -361.15 -173.4 L-364.0 -172.9 Q-367.0 -175.0 -369.5 -173.9 L-372.9 -170.4 -371.0 -170.15 -370.9 -170.0 -368.5 -169.75 -368.4 -169.75 -366.75 -169.5 -366.65 -169.5 -353.95 -167.7 M-371.65 -169.25 L-370.4 -167.9 -365.25 -164.5 -364.5 -164.15 -364.25 -164.0 -364.0 -163.9 -363.75 -163.75 -363.5 -163.65 -363.25 -163.5 -363.0 -163.4 -361.0 -162.4 -360.75 -162.25 -360.5 -162.15 -360.25 -162.0 -359.4 -161.65 -359.15 -161.5 -358.75 -161.4 -358.65 -161.4 Q-349.65 -160.4 -348.15 -166.5 L-358.75 -168.15 -362.0 -168.15 -364.5 -169.0 -370.25 -169.9 -371.5 -169.9 -371.65 -169.25 M-250.75 -156.5 L-266.65 -140.5 -269.15 -156.65 -250.75 -156.5" fill="url(#gradient2)" fill-rule="evenodd" stroke="none"/>
    <path d="M-400.0 -217.0 L-400.0 -249.4 -390.4 -249.4 -388.65 -249.4 -384.9 -248.25 -380.65 -243.0 -382.75 -229.0 Q-383.65 -225.0 -383.0 -224.5 L-369.25 -248.5 -358.25 -248.5 -362.0 -223.5 -354.9 -214.0 -373.25 -215.0 -377.65 -221.25 -378.15 -221.5 -379.0 -223.0 -380.15 -224.25 -381.0 -223.0 -385.4 -216.0 -392.0 -216.5 -400.0 -217.0" fill="url(#gradient3)" fill-rule="evenodd" stroke="none"/>
    <path d="M-384.9 -248.25 L-381.4 -248.15 -380.0 -246.75 -380.65 -243.0 -384.9 -248.25" fill="url(#gradient4)" fill-rule="evenodd" stroke="none"/>
    <path d="M-400.0 -277.4 L-400.0 -285.9 -391.65 -299.75 -380.75 -300.0 -400.0 -277.4" fill="url(#gradient5)" fill-rule="evenodd" stroke="none"/>
    <path d="M-384.9 -248.25 L-388.65 -249.4 -384.5 -249.15 -381.4 -248.15 -384.9 -248.25" fill="url(#gradient6)" fill-rule="evenodd" stroke="none"/>
    <path d="M-379.0 -223.0 L-381.0 -223.0 -380.15 -224.25 -379.0 -223.0" fill="url(#gradient7)" fill-rule="evenodd" stroke="none"/>
    <path d="M-378.15 -221.5 L-381.5 -216.0 -385.4 -216.0 -381.0 -223.0 -379.0 -223.0 -378.15 -221.5" fill="url(#gradient8)" fill-rule="evenodd" stroke="none"/>
    <path d="M-371.0 -170.15 L-372.9 -170.4 -369.5 -173.9 Q-367.0 -175.0 -364.0 -172.9 L-361.15 -173.4 Q-359.4 -174.15 -349.9 -167.15 L-353.95 -167.7 -352.15 -167.5 Q-359.15 -172.75 -362.25 -172.65 L-364.4 -172.0 Q-367.25 -174.0 -369.75 -173.15 L-372.25 -170.4 -371.0 -170.15 -368.5 -169.75 -370.9 -170.0 -371.0 -170.15" fill="url(#gradient9)" fill-rule="evenodd" stroke="none"/>
    <path d="M-371.0 -170.15 L-372.25 -170.4 -369.75 -173.15 Q-367.25 -174.0 -364.4 -172.0 L-362.25 -172.65 Q-359.15 -172.75 -352.15 -167.5 L-353.95 -167.7 -366.65 -169.5 -366.75 -169.5 -368.4 -169.75 -368.5 -169.75 -371.0 -170.15" fill="url(#gradient10)" fill-rule="evenodd" stroke="none"/>
    <path d="M-371.65 -169.25 L-349.25 -165.9 Q-350.9 -160.9 -358.65 -161.4 L-358.75 -161.4 -359.15 -161.5 -359.4 -161.65 -360.25 -162.0 -360.5 -162.15 -360.75 -162.25 -361.0 -162.4 -363.0 -163.4 -363.25 -163.5 -363.5 -163.65 -363.75 -163.75 -364.0 -163.9 -364.25 -164.0 -364.5 -164.15 -365.25 -164.5 -370.4 -167.9 -371.65 -169.25" fill="url(#gradient11)" fill-rule="evenodd" stroke="none"/>
    <path d="M-358.65 -161.4 Q-350.9 -160.9 -349.25 -165.9 L-371.65 -169.25 -371.5 -169.9 -370.25 -169.9 -364.5 -169.0 -362.0 -168.15 -358.75 -168.15 -348.15 -166.5 Q-349.65 -160.4 -358.65 -161.4" fill="url(#gradient12)" fill-rule="evenodd" stroke="none"/>
    <path d="M-280.15 -135.9 L-279.25 -135.9 -279.25 -133.0 -280.0 -132.9 -280.15 -135.9" fill="url(#gradient13)" fill-rule="evenodd" stroke="none"/>
    <path d="M-279.25 -135.9 Q-277.25 -130.0 -265.4 -123.75 L-250.4 -117.5 -255.65 -115.15 -296.0 -122.5 -293.65 -127.25 -291.25 -123.75 -284.5 -124.15 -281.4 -126.0 -281.25 -126.65 -281.4 -127.5 -284.25 -131.5 -284.5 -132.15 -280.0 -132.9 -279.25 -133.0 -279.25 -135.9" fill="url(#gradient14)" fill-rule="evenodd" stroke="none"/>
    <path d="M-293.65 -127.25 L-293.75 -128.9 -292.15 -134.0 -285.15 -134.65 -280.15 -135.9 -280.0 -132.9 -284.5 -132.15 -284.25 -131.5 -281.4 -127.5 -281.25 -126.65 -281.4 -126.0 -284.5 -124.15 -291.25 -123.75 -293.65 -127.25" fill="url(#gradient15)" fill-rule="evenodd" stroke="none"/>
    <path d="M-293.75 -128.9 L-299.65 -133.65 -299.75 -133.9 -292.15 -134.0 -293.75 -128.9" fill="url(#gradient16)" fill-rule="evenodd" stroke="none"/>
    <path d="M-331.0 -124.0 L-321.25 -133.0 -320.65 -136.25 -314.0 -134.75 -308.4 -134.0 -299.65 -133.65 -293.75 -128.9 -293.65 -127.25 -296.0 -122.5 -303.15 -109.9 -319.65 -109.9 -342.0 -115.25 -337.9 -118.4 -333.15 -121.75 -332.25 -122.75 -331.9 -123.15 -331.0 -123.9 -331.0 -124.0" fill="url(#gradient17)" fill-rule="evenodd" stroke="none"/>
    <path d="M-357.9 -114.25 L-339.25 -122.75 -331.0 -124.0 -331.0 -123.9 -331.9 -123.15 -332.4 -123.0 -332.25 -122.75 -333.15 -121.75 -337.9 -118.4 -350.25 -117.0 -357.9 -114.25" fill="url(#gradient18)" fill-rule="evenodd" stroke="none"/>
    <path d="M-360.0 -112.9 L-359.65 -113.65 -357.9 -114.25 -350.25 -117.0 -355.0 -100.15 -355.15 -83.9 -355.15 -83.15 -356.25 -81.75 -363.9 -92.4 -360.0 -112.9" fill="url(#gradient19)" fill-rule="evenodd" stroke="none"/>
    <path d="M-342.0 -115.25 L-343.0 -112.0 -343.25 -111.75 -355.0 -100.15 -350.25 -117.0 -337.9 -118.4 -342.0 -115.25" fill="url(#gradient20)" fill-rule="evenodd" stroke="none"/>
    <path d="M-332.25 -122.75 L-332.4 -123.0 -331.9 -123.15 -332.25 -122.75" fill="url(#gradient21)" fill-rule="evenodd" stroke="none"/>
    <path d="M-25.15 -117.5 L-12.9 -126.15 -11.75 -126.4 -11.75 -126.5 -11.15 -126.5 -23.25 -117.9 -24.65 -117.5 -25.15 -117.5" fill="url(#gradient22)" fill-rule="evenodd" stroke="none"/>
    <path d="M-9.15 -126.5 L-21.15 -118.0 -21.15 -117.9 -21.4 -117.75 -23.25 -117.9 -11.15 -126.5 -9.15 -126.5" fill="url(#gradient23)" fill-rule="evenodd" stroke="none"/>
    <path d="M-67.9 -109.75 L-66.65 -109.9 -66.75 -110.4 -66.75 -110.5 -66.9 -110.75 -67.4 -114.0 -64.65 -114.4 -60.25 -112.25 -58.15 -111.15 -52.0 -111.9 -49.5 -113.25 -42.9 -113.75 -41.65 -87.65 -44.15 -87.4 -45.25 -112.65 -46.4 -112.9 -45.25 -87.25 -47.25 -87.0 -47.25 -87.5 -47.4 -88.0 -47.65 -95.9 -48.65 -96.0 -48.4 -86.9 -50.4 -86.75 -50.4 -86.9 -50.5 -87.65 -50.5 -89.5 -50.65 -89.9 -50.9 -95.75 -51.9 -95.75 -51.5 -86.65 -53.25 -86.4 -53.25 -86.65 -53.4 -87.4 -54.0 -96.15 -55.0 -96.15 -54.4 -86.25 -56.75 -86.0 -56.75 -86.5 -56.9 -87.15 -57.0 -95.65 -58.0 -95.65 -57.9 -86.0 -57.4 -86.0 -60.15 -85.65 -60.25 -88.75 -60.4 -89.5 -60.75 -96.0 -60.9 -96.4 -61.75 -96.4 -61.15 -85.65 -60.75 -85.65 -63.0 -85.4 -63.0 -85.9 -63.15 -86.75 -63.4 -97.5 -64.4 -97.65 -64.15 -85.25 -69.25 -84.75 -69.4 -84.9 -69.4 -103.4 -69.15 -104.0 -68.5 -104.65 -68.25 -104.75 -67.65 -105.4 -67.5 -105.65 -67.5 -107.4 -67.9 -108.25 -67.9 -108.4 -68.65 -108.5 -68.4 -108.75 -68.25 -109.15 -68.15 -109.25 -68.0 -109.75 -67.9 -109.75 M-77.9 -101.9 L-74.15 -102.25 -72.7 -102.0 -76.0 -101.75 -74.4 -101.5 -72.65 -102.0 -72.15 -101.9 -72.0 -101.9 -72.25 -101.65 -72.5 -101.75 -72.25 -101.4 -72.15 -101.4 -71.75 -101.5 -71.75 -102.15 -71.5 -102.0 -71.5 -101.4 -71.9 -101.0 -71.9 -101.15 -72.15 -101.4 -72.4 -101.0 -75.9 -100.9 -76.15 -100.4 -77.25 -101.4 -77.0 -100.75 -78.15 -100.5 -77.5 -100.4 -76.75 -100.9 -76.5 -100.15 -76.15 -100.25 -75.9 -99.9 -75.75 -100.5 -75.4 -100.5 -75.75 -99.75 -75.25 -100.15 -72.9 -100.15 -72.4 -100.75 -72.5 -100.5 -72.5 -100.0 -72.5 -99.75 -72.75 -99.15 -72.75 -98.25 -72.75 -98.15 -72.9 -97.9 -73.15 -94.5 -73.15 -93.65 -73.0 -92.15 -73.15 -91.65 -73.25 -89.75 -80.15 -98.65 -80.25 -98.9 -78.9 -100.4 -79.0 -100.65 -80.0 -100.4 -79.9 -101.25 -80.65 -100.5 -79.9 -101.75 -79.0 -101.5 -79.9 -100.75 -78.65 -100.75 -78.25 -101.25 -79.0 -101.25 -78.5 -101.4 -78.65 -101.75 -78.5 -101.75 -78.25 -101.65 -77.9 -101.9 M-71.4 -102.9 L-71.4 -103.0 -71.25 -103.0 -71.4 -102.9 M-23.25 -117.9 L-21.4 -117.75 -20.15 -116.65 -17.0 -104.15 -16.9 -103.65 -17.15 -91.0 -16.9 -91.15 -16.9 -90.5 -16.5 -90.9 -16.15 -90.5 -20.4 -90.0 -20.5 -90.15 -20.5 -90.75 -20.65 -91.4 -20.9 -103.75 -21.4 -103.75 -17.75 -104.25 -17.65 -104.5 -17.75 -104.65 -18.5 -107.75 -18.65 -107.9 -18.65 -108.15 -18.75 -108.5 -18.75 -108.65 -21.0 -116.5 -21.75 -116.9 -22.0 -117.0 -22.25 -117.15 -22.65 -117.25 -24.15 -117.5 -24.65 -117.5 -23.25 -117.9 M-27.65 -103.0 L-24.75 -103.4 -25.4 -102.9 -25.15 -89.4 -27.15 -89.25 -27.25 -89.75 -27.65 -103.0 M-24.4 -103.4 L-21.9 -103.75 -21.75 -89.75 -23.9 -89.5 -23.9 -90.15 -24.0 -90.9 -24.0 -93.75 -24.15 -94.25 -24.4 -103.4 M-31.25 -102.65 L-28.75 -102.9 -28.5 -89.15 -30.75 -88.9 -31.25 -102.65 M-34.65 -102.25 L-32.25 -102.5 -32.0 -88.65 -34.15 -88.4 -34.65 -102.25 M-16.9 -103.65 L-16.75 -103.65 -16.75 -103.25 -16.65 -103.15 -16.4 -100.9 -16.65 -102.75 -16.9 -102.0 -16.9 -103.65 M-16.4 -99.4 L-16.65 -99.0 -16.4 -100.0 -16.4 -99.4 M-16.25 -92.5 L-16.65 -91.9 -16.25 -93.25 -16.25 -92.5 M-16.25 -92.15 L-16.25 -91.9 -16.65 -91.5 -16.25 -92.15 M-39.25 -101.65 L-38.75 -88.0 -40.5 -87.75 -40.5 -88.65 -40.65 -89.65 -41.25 -101.4 -39.25 -101.65 M-37.5 -88.15 L-37.5 -88.9 -37.65 -89.4 -37.65 -91.9 -37.75 -92.25 -38.25 -101.75 -35.5 -102.15 -35.25 -88.4 -37.5 -88.15 M-47.25 -98.5 L-47.5 -98.65 -48.65 -98.65 -49.0 -97.9 -48.4 -97.5 -47.5 -97.65 -47.0 -98.4 -47.25 -98.5 M-71.25 -101.15 L-71.25 -101.25 -71.15 -101.15 -71.25 -101.15 M-70.5 -86.65 L-70.0 -85.9 -70.5 -86.15 -70.65 -86.4 -70.65 -86.65 -70.5 -86.65 M-71.65 -100.65 L-72.0 -100.4 -72.0 -100.75 -71.9 -100.75 -71.65 -100.65 M-73.15 -89.0 L-72.75 -89.0 -73.15 -88.9 -73.15 -89.0 M-75.65 -94.15 L-75.15 -94.0 -74.9 -94.4 -75.65 -94.15 M-76.9 -98.65 L-76.9 -99.5 -77.25 -99.25 -77.0 -98.65 -77.5 -98.4 -77.0 -98.4 -77.0 -98.25 -76.9 -98.0 -76.9 -98.65 M-81.0 -101.75 L-80.9 -101.15 -81.1 -101.0 -81.0 -99.75 -81.4 -100.4 -81.5 -100.75 -81.5 -100.9 -81.4 -101.0 -81.5 -101.0 -81.15 -101.65 -81.1 -101.15 -81.0 -101.75 M-80.4 -101.65 L-80.25 -101.9 -80.0 -101.65 -80.4 -101.65 M-80.0 -100.0 L-79.65 -99.65 -80.15 -99.75 -80.0 -100.0 M-80.25 -100.0 L-81.0 -100.25 -80.4 -100.65 -80.5 -100.25 -79.9 -100.25 -80.25 -100.0 M-77.5 -97.65 L-77.4 -97.9 -78.5 -97.75 -77.5 -97.65" fill="url(#gradient24)" fill-rule="evenodd" stroke="none"/>
    <path d="M-42.15 -114.15 L-41.75 -114.4 -25.4 -117.4 -25.15 -117.5 -24.65 -117.5 -24.15 -117.5 -22.65 -117.25 -22.25 -117.15 -22.0 -117.0 -21.75 -116.9 -21.0 -116.5 -18.75 -108.65 -18.75 -108.5 -18.65 -108.15 -18.65 -107.9 -18.5 -107.75 -17.75 -104.65 -17.65 -104.5 -17.75 -104.25 -21.4 -103.75 -21.9 -103.75 -24.4 -103.4 -24.75 -103.4 -27.65 -103.0 -28.75 -102.9 -31.25 -102.65 -32.25 -102.5 -34.65 -102.25 -35.5 -102.15 -38.25 -101.75 -39.25 -101.65 -41.25 -101.4 -41.9 -113.4 -42.0 -113.75 -42.0 -113.9 -42.15 -114.15" fill="url(#gradient25)" fill-rule="evenodd" stroke="none"/>
    <path d="M-41.75 -114.4 L-41.75 -114.5 -29.9 -122.5 -28.75 -123.25 -11.75 -126.5 -11.75 -126.4 -12.9 -126.15 -25.15 -117.5 -25.4 -117.4 -41.75 -114.4" fill="url(#gradient26)" fill-rule="evenodd" stroke="none"/>
    <path d="M-42.9 -113.75 L-49.5 -113.25 -38.75 -120.65 -36.75 -121.9 -29.9 -122.5 -41.75 -114.5 -41.75 -114.4 -42.15 -114.15 -42.65 -113.9 -42.9 -113.75" fill="url(#gradient27)" fill-rule="evenodd" stroke="none"/>
    <path d="M-49.5 -113.25 L-52.0 -111.9 -58.15 -111.15 -45.25 -119.65 -38.75 -120.65 -49.5 -113.25" fill="url(#gradient28)" fill-rule="evenodd" stroke="none"/>
    <path d="M-58.15 -111.15 L-60.25 -112.25 -47.15 -120.75 -45.25 -119.65 -58.15 -111.15" fill="url(#gradient29)" fill-rule="evenodd" stroke="none"/>
    <path d="M-60.25 -112.25 L-64.65 -114.4 -51.5 -122.75 -47.15 -120.75 -60.25 -112.25" fill="url(#gradient30)" fill-rule="evenodd" stroke="none"/>
    <path d="M-64.65 -114.4 L-67.4 -114.0 -54.9 -122.0 -51.5 -122.75 -64.65 -114.4" fill="url(#gradient31)" fill-rule="evenodd" stroke="none"/>
    <path d="M-21.15 -117.9 L-21.15 -118.0 -9.15 -126.5 -0.9 -127.9 -0.9 -120.9 -21.15 -117.9" fill="url(#gradient32)" fill-rule="evenodd" stroke="none"/>
    <path d="M-21.15 -117.9 L-0.9 -120.9 -0.9 -117.4 -19.25 -114.75 -20.15 -116.65 -21.15 -117.9" fill="url(#gradient33)" fill-rule="evenodd" stroke="none"/>
    <path d="M-21.4 -117.75 L-21.15 -117.9 -20.15 -116.65 -21.4 -117.75" fill="url(#gradient34)" fill-rule="evenodd" stroke="none"/>
    <path d="M-250.4 -117.5 L-248.75 -109.75 -255.65 -115.15 -250.4 -117.5" fill="url(#gradient35)" fill-rule="evenodd" stroke="none"/>
    <path d="M-303.15 -109.9 L-296.0 -122.5 -255.65 -115.15 -303.15 -109.9" fill="url(#gradient36)" fill-rule="evenodd" stroke="none"/>
    <path d="M-248.75 -109.75 L-219.25 -85.65 -235.25 -89.5 -241.15 -87.9 -251.75 -78.25 -263.75 -102.0 Q-264.15 -102.9 -268.9 -103.4 L-303.15 -109.9 -255.65 -115.15 -248.75 -109.75" fill="url(#gradient37)" fill-rule="evenodd" stroke="none"/>
    <path d="M-21.4 -103.75 L-20.9 -103.75 -20.65 -91.4 -20.5 -90.75 -20.5 -90.15 -20.4 -90.0 -20.4 -89.9 -21.75 -89.75 -21.9 -103.75 -21.4 -103.75" fill="url(#gradient38)" fill-rule="evenodd" stroke="none"/>
    <path d="M-44.15 -87.4 L-41.65 -87.65 -40.5 -87.75 -38.75 -88.0 -37.5 -88.15 -35.25 -88.4 -34.15 -88.4 -32.0 -88.65 -30.75 -88.75 -30.75 -88.9 -28.5 -89.15 -27.15 -89.25 -25.15 -89.4 -23.9 -89.5 -21.75 -89.75 -20.4 -89.9 -20.4 -90.0 -16.15 -90.5 -0.9 -92.4 -0.9 -85.25 -2.5 -85.65 -10.25 -85.0 -14.25 -82.9 -14.5 -82.75 -14.9 -82.9 -15.5 -82.5 -20.25 -82.75 -24.25 -82.25 -25.4 -85.65 -26.9 -85.25 -26.9 -84.4 -28.4 -83.9 -28.25 -83.0 -29.25 -82.75 -29.25 -82.0 -29.75 -81.9 -40.0 -81.0 -40.15 -81.25 -40.4 -81.9 -41.65 -82.0 -41.9 -82.75 -42.5 -82.75 -42.9 -83.75 -43.9 -84.0 -44.65 -87.25 -44.15 -87.4" fill="url(#gradient39)" fill-rule="evenodd" stroke="none"/>
    <path d="M-16.15 -90.5 L-16.5 -90.9 -16.9 -90.5 -16.9 -91.15 -17.15 -91.0 -16.9 -103.65 -16.9 -102.0 -16.65 -102.75 -16.4 -100.9 -16.25 -102.4 -16.65 -103.15 -16.75 -103.25 -16.75 -103.65 Q-15.25 -100.75 -4.4 -103.15 L-0.9 -103.5 -0.9 -92.4 -16.15 -90.5 M-16.4 -99.4 L-16.4 -100.0 -16.65 -99.0 -16.4 -99.4 M-16.25 -92.15 L-16.65 -91.5 -16.25 -91.9 -16.25 -92.15 M-16.25 -92.5 L-16.25 -93.25 -16.65 -91.9 -16.25 -92.5" fill="url(#gradient40)" fill-rule="evenodd" stroke="none"/>
    <path d="M-0.9 -103.5 L-4.4 -103.15 -0.9 -103.75 -0.9 -103.5" fill="url(#gradient41)" fill-rule="evenodd" stroke="none"/>
    <path d="M-17.0 -106.5 L-16.5 -106.5 -15.5 -106.15 -13.25 -106.15 -7.5 -107.0 -7.15 -107.0 -6.65 -107.15 -0.9 -107.9 -0.9 -103.75 -10.65 -102.65 -13.9 -102.75 -14.25 -102.9 -16.15 -103.5 -16.65 -104.15 -16.75 -104.5 -17.0 -106.5" fill="url(#gradient42)" fill-rule="evenodd" stroke="none"/>
    <path d="M-19.25 -114.75 L-0.9 -117.4 -0.9 -107.9 -6.65 -107.15 -7.15 -107.0 -7.5 -107.0 -9.25 -106.9 -9.75 -106.75 -10.15 -106.75 -14.75 -106.4 -16.5 -106.5 -17.0 -106.5 -16.9 -106.65 -17.0 -106.65 -19.25 -114.75" fill="url(#gradient43)" fill-rule="evenodd" stroke="none"/>
    <path d="M-17.0 -104.15 L-20.15 -116.65 -19.25 -114.75 -17.0 -106.65 -17.0 -106.5 -16.75 -104.5 -17.0 -104.15" fill="url(#gradient44)" fill-rule="evenodd" stroke="none"/>
    <path d="M-41.65 -87.65 L-42.9 -113.75 -42.65 -113.75 -42.65 -113.9 -42.15 -114.15 -42.0 -113.9 -42.0 -113.75 -41.9 -113.4 -41.25 -101.4 -40.65 -89.65 -40.5 -88.65 -40.5 -87.75 -41.65 -87.65" fill="url(#gradient45)" fill-rule="evenodd" stroke="none"/>
    <path d="M-42.9 -113.75 L-42.65 -113.9 -42.65 -113.75 -42.9 -113.75" fill="url(#gradient46)" fill-rule="evenodd" stroke="none"/>
    <path d="M-39.25 -101.65 L-38.25 -101.75 -37.75 -92.25 -37.65 -91.9 -37.65 -89.4 -37.5 -88.9 -37.5 -88.15 -38.75 -88.0 -39.25 -101.65" fill="url(#gradient47)" fill-rule="evenodd" stroke="none"/>
    <path d="M-35.5 -102.15 L-34.65 -102.25 -34.15 -88.4 -35.25 -88.4 -35.5 -102.15" fill="url(#gradient48)" fill-rule="evenodd" stroke="none"/>
    <path d="M-32.25 -102.5 L-31.25 -102.65 -30.75 -88.9 -30.75 -88.75 -32.0 -88.65 -32.25 -102.5" fill="url(#gradient49)" fill-rule="evenodd" stroke="none"/>
    <path d="M-28.75 -102.9 L-27.65 -103.0 -27.25 -89.75 -27.15 -89.25 -28.5 -89.15 -28.75 -102.9" fill="url(#gradient50)" fill-rule="evenodd" stroke="none"/>
    <path d="M-24.75 -103.4 L-24.4 -103.4 -24.15 -94.25 -24.0 -93.75 -24.0 -90.9 -23.9 -90.15 -23.9 -89.5 -25.15 -89.4 -25.4 -102.9 -24.75 -103.4" fill="url(#gradient51)" fill-rule="evenodd" stroke="none"/>
    <path d="M-353.4 -0.9 L-361.0 -0.9 -360.75 -3.9 -362.4 -9.0 Q-358.5 -15.4 -358.65 -23.9 L-359.9 -33.25 -355.75 -39.75 -355.75 -40.25 -355.4 -40.4 -354.75 -42.0 -352.5 -51.75 -352.15 -58.75 -353.5 -66.9 -355.9 -70.15 -355.25 -72.15 -354.65 -77.0 -354.75 -79.4 -355.4 -80.9 -356.75 -80.9 -356.25 -81.75 -355.15 -83.15 -355.15 -83.9 -354.65 -84.25 -346.9 -98.9 -346.9 -99.0 -343.25 -111.75 -343.0 -112.0 -342.0 -115.25 -319.65 -109.9 -303.15 -109.9 -302.75 -109.0 -304.25 -109.0 -304.65 -108.9 -302.65 -107.4 -296.0 -64.65 -298.65 -51.15 Q-304.75 -59.9 -318.4 -60.4 L-326.5 -60.25 -331.5 -60.75 -337.15 -59.15 -344.25 -54.5 Q-364.5 -32.15 -353.4 -0.9" fill="url(#gradient52)" fill-rule="evenodd" stroke="none"/>
    <path d="M-302.75 -109.0 L-303.15 -109.9 -268.9 -103.4 Q-264.15 -102.9 -263.75 -102.0 L-265.4 -80.15 -262.75 -49.75 -269.0 -40.5 -273.9 -64.65 -301.5 -107.4 -301.0 -108.25 -299.5 -108.65 -301.65 -108.9 -302.0 -108.9 -302.75 -109.0" fill="url(#gradient53)" fill-rule="evenodd" stroke="none"/>
    <path d="M-302.75 -109.0 L-302.0 -108.9 -304.25 -109.0 -302.75 -109.0" fill="url(#gradient54)" fill-rule="evenodd" stroke="none"/>
    <path d="M-302.0 -108.9 L-301.65 -108.9 -299.5 -108.65 -301.0 -108.25 -301.5 -107.4 -302.65 -107.4 -304.65 -108.9 -304.25 -109.0 -302.0 -108.9" fill="url(#gradient55)" fill-rule="evenodd" stroke="none"/>
    <path d="M-243.4 -32.15 L-243.9 -13.75 -249.25 -3.25 -251.75 -0.9 -275.75 -0.9 -271.9 -7.4 -270.9 -9.9 -269.75 -17.65 -269.75 -20.0 -271.15 -28.5 Q-276.25 -35.65 -277.9 -35.25 L-280.9 -42.15 -287.15 -48.25 -291.65 -50.65 -298.5 -50.75 -298.65 -51.15 -296.0 -64.65 -302.65 -107.4 -301.5 -107.4 -273.9 -64.65 -269.0 -40.5 -256.9 -44.5 -243.4 -32.15" fill="url(#gradient56)" fill-rule="evenodd" stroke="none"/>
    <path d="M-275.75 -0.9 L-353.4 -0.9 Q-364.5 -32.15 -344.25 -54.5 L-337.15 -59.15 -331.5 -60.75 -326.5 -60.25 -318.4 -60.4 Q-304.75 -59.9 -298.65 -51.15 L-298.5 -50.75 -291.65 -50.65 -287.15 -48.25 -280.9 -42.15 -277.9 -35.25 Q-276.25 -35.65 -271.15 -28.5 L-269.75 -20.0 -269.75 -17.65 -270.9 -9.9 -271.9 -7.4 -275.75 -0.9" fill="url(#gradient57)" fill-rule="evenodd" stroke="none"/>
    <path d="M-361.0 -0.9 L-371.75 -0.9 -376.15 -3.75 -376.0 -4.0 -377.15 -4.65 -383.9 -10.9 -387.15 -15.5 -388.75 -17.9 -391.0 -24.15 -391.4 -24.4 -392.75 -34.15 -391.5 -47.15 Q-385.65 -72.75 -356.75 -80.9 L-355.4 -80.9 -354.75 -79.4 -354.65 -77.0 -355.25 -72.15 -355.9 -70.15 -353.5 -66.9 -352.15 -58.75 -352.5 -51.75 -354.75 -42.0 -355.4 -40.4 -355.75 -40.25 -355.75 -39.75 -359.9 -33.25 -358.65 -23.9 Q-358.5 -15.4 -362.4 -9.0 L-360.75 -3.9 -361.0 -0.9" fill="url(#gradient58)" fill-rule="evenodd" stroke="none"/>
    <path d="M-399.9 -52.4 L-400.0 -69.5 -394.0 -73.25 -367.4 -98.15 -367.25 -98.25 -367.15 -98.5 -367.0 -98.75 -366.75 -99.4 -362.0 -109.15 -362.0 -109.25 -360.0 -112.9 -363.9 -92.4 -356.25 -81.75 -356.75 -80.9 Q-385.65 -72.75 -391.5 -47.15 L-399.9 -52.4" fill="url(#gradient59)" fill-rule="evenodd" stroke="none"/>
    <path d="M-355.0 -100.15 L-343.25 -111.75 -346.9 -99.0 -346.9 -98.9 -354.65 -84.25 -355.15 -83.9 -355.0 -100.15" fill="url(#gradient60)" fill-rule="evenodd" stroke="none"/>
    <path d="M-66.75 -110.4 L-67.9 -109.75 -68.0 -109.75 -68.15 -109.25 -68.25 -109.15 -68.4 -108.75 -68.65 -108.5 -69.4 -108.0 -69.9 -107.0 -77.9 -101.9 -78.25 -101.65 -78.5 -101.75 -78.65 -101.75 -80.4 -102.25 -66.9 -110.75 -66.75 -110.5 -66.75 -110.4" fill="url(#gradient61)" fill-rule="evenodd" stroke="none"/>
    <path d="M-66.75 -110.4 L-66.65 -109.9 -67.9 -109.75 -66.75 -110.4" fill="url(#gradient62)" fill-rule="evenodd" stroke="none"/>
    <path d="M-68.65 -108.5 L-67.9 -108.4 -67.9 -108.25 -67.5 -107.4 -67.5 -105.65 -67.65 -105.4 -68.25 -104.75 -68.5 -104.65 -69.15 -104.0 -69.4 -103.4 -69.4 -84.9 -69.25 -84.75 -70.5 -84.75 -70.5 -86.15 -70.0 -85.9 -70.5 -86.65 -70.65 -87.0 -71.15 -99.65 -71.25 -99.9 -71.5 -101.4 -71.5 -102.0 -71.4 -102.25 -71.4 -102.9 -71.25 -103.0 -71.4 -103.0 -71.4 -103.5 -69.9 -107.0 -69.4 -108.0 -68.65 -108.5 M-71.25 -101.15 L-71.25 -99.9 -71.15 -100.25 -71.15 -101.15 -71.15 -101.65 -71.25 -101.65 -71.25 -101.25 -71.25 -101.15" fill="url(#gradient63)" fill-rule="evenodd" stroke="none"/>
    <path d="M-72.9 -102.5 L-73.65 -102.4 -74.0 -102.25 -74.15 -102.25 -77.9 -101.9 -69.9 -107.0 -71.4 -103.5 -72.9 -102.5" fill="url(#gradient64)" fill-rule="evenodd" stroke="none"/>
    <path d="M-74.15 -102.25 L-74.0 -102.25 -73.65 -102.4 -72.9 -102.5 -72.0 -102.5 -72.0 -101.9 -72.15 -101.9 -72.65 -102.0 -74.4 -101.5 -76.0 -101.75 -72.7 -102.0 -74.15 -102.25 M-72.15 -101.4 L-71.9 -101.15 -71.9 -101.0 -72.25 -100.9 -71.9 -101.15 -72.4 -101.0 -72.15 -101.4 M-72.4 -101.0 L-72.4 -100.75 -72.9 -100.15 -75.25 -100.15 -75.75 -99.75 -75.4 -100.5 -75.75 -100.5 -75.9 -99.9 -76.15 -100.25 -76.5 -100.15 -76.75 -100.9 -77.5 -100.4 -78.15 -100.5 -77.0 -100.75 -77.25 -101.4 -76.15 -100.4 -75.9 -100.9 -72.4 -101.0 M-72.25 -101.4 L-72.5 -101.75 -72.25 -101.65 -72.25 -101.4 M-75.65 -94.15 L-74.9 -94.4 -75.15 -94.0 -75.65 -94.15 M-77.0 -98.4 L-77.5 -98.4 -77.0 -98.65 -77.25 -99.25 -76.9 -99.5 -76.9 -98.65 -77.0 -98.4 M-81.0 -99.75 L-81.1 -101.0 -80.9 -101.15 -81.0 -101.75 -80.4 -102.25 -78.65 -101.75 -78.5 -101.4 -79.0 -101.25 -78.25 -101.25 -78.65 -100.75 -79.9 -100.75 -79.0 -101.5 -79.9 -101.75 -80.65 -100.5 -79.9 -101.25 -80.0 -100.4 -79.0 -100.65 -78.9 -100.4 -80.25 -98.9 -80.4 -99.0 -80.5 -99.25 -80.65 -99.4 -80.75 -99.65 -81.0 -99.75 M-81.0 -101.75 L-81.1 -101.15 -81.15 -101.65 -81.0 -101.75 M-81.5 -101.0 L-81.4 -101.0 -81.5 -100.9 -81.5 -101.0 M-80.25 -100.0 L-79.9 -100.25 -80.5 -100.25 -80.4 -100.65 -81.0 -100.25 -80.25 -100.0 M-80.0 -100.0 L-80.15 -99.75 -79.65 -99.65 -80.0 -100.0 M-80.4 -101.65 L-80.0 -101.65 -80.25 -101.9 -80.4 -101.65 M-77.5 -97.65 L-78.5 -97.75 -77.4 -97.9 -77.5 -97.65" fill="url(#gradient65)" fill-rule="evenodd" stroke="none"/>
    <path d="M-72.9 -102.5 L-71.4 -103.5 -71.4 -103.0 -71.5 -102.9 -72.0 -102.5 -72.9 -102.5" fill="url(#gradient66)" fill-rule="evenodd" stroke="none"/>
    <path d="M-72.0 -101.9 L-72.0 -102.5 -71.5 -102.9 -71.4 -102.25 -71.5 -102.0 -71.75 -102.15 -71.75 -101.5 -72.15 -101.4 -72.25 -101.65 -72.0 -101.9 M-71.9 -101.0 L-71.5 -101.4 -71.25 -99.9 -71.15 -99.65 -70.65 -87.0 -70.65 -86.65 -70.65 -86.4 -70.5 -86.15 -70.5 -84.75 -72.25 -84.9 -73.25 -85.9 -73.4 -86.9 -73.15 -88.9 -72.75 -89.0 -73.15 -89.0 -73.25 -89.75 -73.15 -91.65 -73.0 -92.15 -73.15 -93.65 -73.15 -94.5 -72.9 -97.9 -72.75 -98.15 -72.75 -98.25 -72.65 -98.5 -72.65 -98.65 -72.5 -99.15 -72.5 -99.75 -72.5 -100.0 -72.4 -100.15 -72.25 -100.9 -72.4 -101.0 -71.9 -101.15 -72.25 -100.9 -71.9 -101.0 M-71.65 -100.65 L-71.9 -100.75 -72.0 -100.75 -72.0 -100.4 -71.65 -100.65" fill="url(#gradient67)" fill-rule="evenodd" stroke="none"/>
    <path d="M-71.4 -102.25 L-71.5 -102.9 -71.4 -103.0 -71.4 -102.9 -71.4 -102.25" fill="url(#gradient68)" fill-rule="evenodd" stroke="none"/>
    <path d="M-400.0 -69.5 L-400.0 -71.25 -375.0 -98.25 -362.0 -109.25 -362.0 -109.15 -366.75 -99.4 -367.0 -98.75 -367.15 -98.5 -367.25 -98.25 -367.4 -98.15 -394.0 -73.25 -400.0 -69.5" fill="url(#gradient69)" fill-rule="evenodd" stroke="none"/>
    <path d="M-69.25 -84.75 L-64.15 -85.25 -63.9 -85.25 -63.15 -85.4 -63.0 -85.4 -60.75 -85.65 -60.15 -85.65 -57.4 -86.0 -56.75 -86.0 -54.4 -86.25 -53.25 -86.4 -51.5 -86.65 -50.4 -86.75 -48.4 -86.9 -47.25 -87.0 -45.25 -87.25 -44.65 -87.25 -43.9 -84.0 -42.9 -83.75 -42.5 -82.75 -41.9 -82.75 -41.65 -82.0 -40.4 -81.9 -40.15 -81.25 -40.0 -81.0 -29.75 -81.9 -29.25 -82.0 -29.25 -82.75 -28.25 -83.0 -28.4 -83.9 -26.9 -84.4 -26.9 -85.25 -25.4 -85.65 -24.25 -82.25 -20.25 -82.75 -15.5 -82.5 -17.9 -80.65 -17.75 -80.4 -17.65 -80.15 -17.75 -79.9 -18.65 -79.4 -18.5 -78.75 -18.75 -79.0 Q-20.5 -63.4 -0.9 -65.4 L-0.9 -64.5 -1.25 -64.5 -2.0 -64.4 -2.9 -64.4 -3.65 -64.25 -4.5 -64.25 -5.15 -64.15 -8.15 -64.25 -14.4 -65.4 -14.0 -64.4 -10.4 -63.25 -11.9 -63.5 -13.4 -63.9 -15.0 -62.75 -15.25 -62.75 -15.25 -62.65 -16.15 -61.75 -16.25 -61.5 -16.4 -61.25 -17.5 -60.0 -17.5 -57.4 -17.15 -56.9 -16.0 -46.75 Q-26.9 -56.15 -38.4 -52.15 L-38.75 -52.65 -46.65 -52.25 -55.65 -51.15 -57.0 -50.65 -57.15 -52.4 Q-56.3 -67.7 -61.3 -73.95 L-59.9 -72.65 Q-57.5 -69.25 -57.65 -68.0 L-57.0 -64.0 -53.65 -64.15 -53.9 -66.4 -55.75 -72.0 -57.5 -75.25 -57.9 -75.65 -59.25 -77.4 -60.4 -78.4 -60.65 -78.75 -61.15 -79.0 -61.4 -79.4 -61.75 -79.65 -62.15 -79.9 -62.5 -80.0 -64.5 -81.15 -66.15 -81.75 -66.4 -81.9 -67.0 -82.0 -70.0 -82.65 -70.5 -82.5 -72.15 -80.65 -72.75 -80.65 -73.4 -80.5 -74.4 -80.5 -75.0 -80.4 -76.0 -80.4 -76.65 -80.25 -77.65 -80.25 -78.25 -80.15 -79.25 -80.15 -79.75 -80.0 -82.15 -79.5 -83.5 -78.65 -83.5 -77.9 -83.25 -77.15 Q-85.65 -79.9 -78.5 -83.4 L-73.25 -85.9 -72.25 -84.9 -70.5 -84.75 -69.25 -84.75 M-13.9 -102.75 L-10.65 -102.65 -0.9 -103.75 -4.4 -103.15 -9.5 -102.4 -12.5 -102.4 -13.9 -102.75 M-14.75 -106.4 L-10.15 -106.75 -13.25 -106.15 -14.75 -106.4 M-9.25 -68.0 L-9.4 -68.15 -11.15 -70.4 -12.75 -73.0 -13.65 -75.0 -14.5 -78.75 -14.4 -81.25 -14.0 -82.75 -14.25 -82.9 -10.25 -85.0 -2.5 -85.65 -0.9 -85.25 -1.0 -84.4 -5.25 -84.25 -12.9 -83.0 -13.65 -81.4 Q-15.0 -76.0 -8.4 -67.4 L-9.25 -68.0 M-11.65 -67.4 L-13.9 -69.15 -15.65 -71.25 -15.75 -71.5 -16.4 -72.5 -16.65 -73.0 -18.5 -78.15 -18.5 -78.5 -18.25 -78.25 -18.15 -78.15 -17.0 -74.75 -14.5 -70.25 -12.4 -68.0 -11.9 -67.65 -11.75 -67.65 -11.65 -67.4 M-3.9 -63.4 L-7.75 -63.15 -9.15 -63.15 -0.9 -63.75 -3.9 -63.4 M-72.25 -78.25 L-69.65 -78.5 -68.4 -78.05 -72.25 -78.25 M-28.15 -14.15 L-25.15 -17.25 Q-16.5 -15.0 -10.5 -22.25 L-9.5 -20.9 -9.15 -19.15 -9.4 -18.15 -6.9 -17.25 -6.5 -15.75 -8.25 -14.9 -12.15 -13.9 -28.15 -14.15" fill="url(#gradient70)" fill-rule="evenodd" stroke="none"/>
    <path d="M-64.15 -85.25 L-64.4 -97.65 -63.4 -97.5 -63.15 -86.75 -63.0 -85.9 -63.0 -85.4 -63.15 -85.4 -63.9 -85.25 -64.15 -85.25" fill="url(#gradient71)" fill-rule="evenodd" stroke="none"/>
    <path d="M-60.75 -85.65 L-61.15 -85.65 -61.75 -96.4 -60.9 -96.4 -60.75 -96.0 -60.4 -89.5 -60.25 -88.75 -60.15 -85.65 -60.75 -85.65" fill="url(#gradient72)" fill-rule="evenodd" stroke="none"/>
    <path d="M-57.4 -86.0 L-57.9 -86.0 -58.0 -95.65 -57.0 -95.65 -56.9 -87.15 -56.75 -86.5 -56.75 -86.0 -57.4 -86.0" fill="url(#gradient73)" fill-rule="evenodd" stroke="none"/>
    <path d="M-54.4 -86.25 L-55.0 -96.15 -54.0 -96.15 -53.4 -87.4 -53.25 -86.65 -53.25 -86.4 -54.4 -86.25" fill="url(#gradient74)" fill-rule="evenodd" stroke="none"/>
    <path d="M-51.5 -86.65 L-51.9 -95.75 -50.9 -95.75 -50.65 -89.9 -50.5 -89.5 -50.5 -87.65 -50.4 -86.9 -50.4 -86.75 -51.5 -86.65" fill="url(#gradient75)" fill-rule="evenodd" stroke="none"/>
    <path d="M-48.4 -86.9 L-48.65 -96.0 -47.65 -95.9 -47.4 -88.0 -47.25 -87.5 -47.25 -87.0 -48.4 -86.9" fill="url(#gradient76)" fill-rule="evenodd" stroke="none"/>
    <path d="M-45.25 -87.25 L-46.4 -112.9 -45.25 -112.65 -44.15 -87.4 -44.65 -87.25 -45.25 -87.25" fill="url(#gradient77)" fill-rule="evenodd" stroke="none"/>
    <path d="M-7.5 -107.0 L-13.25 -106.15 -10.15 -106.75 -9.75 -106.75 -9.25 -106.9 -7.5 -107.0" fill="url(#gradient78)" fill-rule="evenodd" stroke="none"/>
    <path d="M-13.25 -106.15 L-15.5 -106.15 -16.5 -106.5 -14.75 -106.4 -13.25 -106.15 M-17.0 -106.65 L-16.9 -106.65 -17.0 -106.5 -17.0 -106.65" fill="url(#gradient79)" fill-rule="evenodd" stroke="none"/>
    <path d="M-16.75 -104.5 L-16.65 -104.15 -17.0 -104.15 -16.75 -104.5 M-16.65 -103.15 L-16.25 -102.4 -16.4 -100.9 -16.65 -103.15" fill="url(#gradient80)" fill-rule="evenodd" stroke="none"/>
    <path d="M-16.9 -103.65 L-17.0 -104.15 -16.65 -104.15 -16.15 -103.5 -14.25 -102.9 -13.9 -102.75 -12.5 -102.4 -9.5 -102.4 -4.4 -103.15 Q-15.25 -100.75 -16.75 -103.65 L-16.9 -103.65" fill="url(#gradient81)" fill-rule="evenodd" stroke="none"/>
    <path d="M-265.4 -80.15 L-263.75 -102.0 -251.75 -78.25 -265.4 -80.15" fill="url(#gradient82)" fill-rule="evenodd" stroke="none"/>
    <path d="M-183.75 -0.9 L-208.15 -1.15 -228.25 -18.4 -243.4 -32.15 -256.9 -44.5 -262.75 -49.75 -265.4 -80.15 -251.75 -78.25 -205.15 -41.4 -173.75 -13.9 -183.75 -0.9" fill="url(#gradient83)" fill-rule="evenodd" stroke="none"/>
    <path d="M-269.0 -40.5 L-262.75 -49.75 -256.9 -44.5 -269.0 -40.5" fill="url(#gradient84)" fill-rule="evenodd" stroke="none"/>
    <path d="M-72.4 -101.0 L-72.25 -100.9 -72.4 -100.15 -72.5 -100.0 -72.5 -100.5 -72.4 -100.75 -72.4 -101.0 M-72.5 -99.75 L-72.5 -99.15 -72.65 -98.65 -72.65 -98.5 -72.75 -98.25 -72.75 -99.15 -72.5 -99.75 M-72.25 -101.4 L-72.25 -101.65 -72.15 -101.4 -72.25 -101.4" fill="url(#gradient85)" fill-rule="evenodd" stroke="none"/>
    <path d="M-71.25 -99.9 L-71.25 -101.15 -71.15 -101.15 -71.25 -101.25 -71.25 -101.65 -71.15 -101.65 -71.15 -101.15 -71.15 -100.25 -71.25 -99.9 M-70.65 -87.0 L-70.5 -86.65 -70.65 -86.65 -70.65 -87.0" fill="url(#gradient86)" fill-rule="evenodd" stroke="none"/>
    <path d="M-81.0 -99.75 L-80.75 -99.65 -80.65 -99.4 -80.5 -99.25 -80.4 -99.0 -81.0 -99.75" fill="url(#gradient87)" fill-rule="evenodd" stroke="none"/>
    <path d="M-47.5 -97.65 L-48.4 -97.5 -49.0 -97.9 -48.65 -98.65 -47.5 -98.65 -47.25 -98.5 -47.5 -97.65" fill="url(#gradient88)" fill-rule="evenodd" stroke="none"/>
    <path d="M-47.25 -98.5 L-47.0 -98.4 -47.5 -97.65 -47.25 -98.5" fill="url(#gradient89)" fill-rule="evenodd" stroke="none"/>
    <path d="M-76.9 -98.65 L-76.9 -98.0 -77.0 -98.25 -77.0 -98.4 -76.9 -98.65" fill="url(#gradient90)" fill-rule="evenodd" stroke="none"/>
    <path d="M-73.4 -86.9 L-73.25 -85.9 -78.5 -83.4 -73.4 -86.9" fill="url(#gradient91)" fill-rule="evenodd" stroke="none"/>
    <path d="M-14.25 -82.9 L-14.0 -82.75 -14.5 -82.75 -14.25 -82.9" fill="url(#gradient92)" fill-rule="evenodd" stroke="none"/>
    <path d="M-14.0 -82.75 L-14.4 -81.25 -14.5 -78.75 -13.65 -75.0 -12.75 -73.0 -11.15 -70.4 -9.4 -68.15 -9.25 -68.0 -8.75 -67.25 -9.0 -67.25 -9.15 -67.4 -10.4 -68.25 -10.65 -68.5 -10.5 -68.15 -10.9 -68.25 -10.75 -68.65 -11.5 -68.75 -11.9 -69.5 -12.4 -69.65 -12.4 -70.15 -12.5 -70.4 -13.0 -70.25 -12.9 -70.75 -13.15 -70.4 -13.15 -70.9 -13.5 -71.0 -12.9 -71.15 -13.75 -71.15 -13.4 -71.5 -14.0 -71.5 -13.9 -71.9 -14.4 -71.9 -13.9 -72.0 -14.0 -72.25 -14.15 -72.4 -14.4 -73.15 -15.15 -73.25 -14.9 -73.9 -15.5 -73.9 -15.15 -74.15 -15.5 -74.0 -15.75 -74.5 -15.15 -74.65 -16.0 -74.75 -15.5 -75.0 -16.25 -75.4 -16.15 -76.5 -16.75 -76.4 -17.25 -78.4 -17.0 -78.9 -17.5 -79.0 -17.5 -79.4 -17.0 -79.5 -17.65 -79.5 -17.0 -79.9 -17.65 -80.15 -17.75 -80.4 -17.9 -80.65 -15.5 -82.5 -14.9 -82.9 -14.5 -82.75 -14.0 -82.75" fill="url(#gradient93)" fill-rule="evenodd" stroke="none"/>
    <path d="M-9.25 -68.0 L-8.4 -67.4 -8.25 -67.0 -8.25 -66.9 -8.75 -67.25 -9.25 -68.0" fill="url(#gradient94)" fill-rule="evenodd" stroke="none"/>
    <path d="M-17.65 -80.15 L-17.0 -79.9 -17.65 -79.5 -17.0 -79.5 -17.5 -79.4 -17.5 -79.0 -17.0 -78.9 -17.25 -78.4 -16.75 -76.4 -16.15 -76.5 -16.25 -75.4 -15.5 -75.0 -16.0 -74.75 -15.15 -74.65 -15.75 -74.5 -15.5 -74.0 -15.15 -74.15 -15.5 -73.9 -14.9 -73.9 -15.15 -73.25 -14.4 -73.15 -14.15 -72.4 -14.0 -72.25 -13.9 -72.0 -14.4 -71.9 -13.9 -71.9 -14.0 -71.5 -13.4 -71.5 -13.75 -71.15 -12.9 -71.15 -13.5 -71.0 -13.15 -70.9 -13.15 -70.4 -12.9 -70.75 -13.0 -70.25 -12.5 -70.4 -12.4 -70.15 -12.4 -69.65 -11.9 -69.5 -11.5 -68.75 -10.75 -68.65 -10.9 -68.25 -10.5 -68.15 -10.65 -68.5 -10.4 -68.25 -9.15 -67.4 -9.0 -67.25 -8.75 -67.25 -8.25 -66.9 -7.25 -66.25 -8.75 -66.25 -9.0 -66.4 -9.4 -66.5 -10.75 -67.0 -11.0 -67.15 -11.15 -67.15 -11.4 -67.25 -11.65 -67.4 -11.75 -67.65 -11.9 -67.65 -12.4 -68.0 -14.5 -70.25 -17.0 -74.75 -18.15 -78.15 -18.25 -78.25 -18.65 -79.4 -17.75 -79.9 -17.65 -80.15" fill="url(#gradient95)" fill-rule="evenodd" stroke="none"/>
    <path d="M-83.25 -77.15 L-83.5 -77.9 -83.5 -78.65 -82.15 -79.5 -79.75 -80.0 -79.25 -80.15 -78.25 -80.15 -77.65 -80.25 -76.65 -80.25 -76.0 -80.4 -75.0 -80.4 -74.4 -80.5 -73.4 -80.5 -72.75 -80.65 -72.15 -80.65 -70.5 -82.5 -70.0 -82.65 -67.0 -82.0 -66.4 -81.9 -66.15 -81.75 -64.5 -81.15 -62.5 -80.0 -62.15 -79.9 -61.75 -79.65 -61.9 -79.4 -61.4 -79.4 -61.15 -79.0 -60.65 -78.75 -60.4 -78.4 -59.25 -77.4 -57.9 -75.65 -57.5 -75.25 -55.75 -72.0 -53.9 -66.4 -53.65 -64.15 -57.0 -64.0 -57.65 -68.0 Q-57.5 -69.25 -59.9 -72.65 L-61.3 -73.95 -62.15 -74.75 -62.65 -75.15 -62.9 -75.4 -64.4 -76.4 -65.5 -76.9 -65.75 -77.15 -68.4 -78.05 -69.65 -78.5 -72.25 -78.25 -72.5 -78.25 -73.4 -78.15 -73.9 -78.15 -74.4 -78.0 -83.25 -77.15" fill="url(#gradient96)" fill-rule="evenodd" stroke="none"/>
    <path d="M-61.4 -79.4 L-61.9 -79.4 -61.75 -79.65 -61.4 -79.4" fill="url(#gradient97)" fill-rule="evenodd" stroke="none"/>
    <path d="M-57.15 -52.4 L-57.0 -50.65 -55.65 -51.15 -46.65 -52.25 -38.75 -52.65 -38.4 -52.15 -37.4 -49.25 -37.5 -45.65 -36.25 -45.9 -35.15 -42.5 -66.75 -35.25 -98.4 -26.25 -122.25 -17.75 -144.25 -11.5 -144.4 -21.75 -140.0 -24.65 -136.4 -26.15 -101.25 -39.4 -69.5 -48.4 -57.15 -52.4" fill="url(#gradient98)" fill-rule="evenodd" stroke="none"/>
    <path d="M-136.4 -26.15 L-140.0 -24.65 -144.4 -21.75 -144.25 -11.5 -173.75 -13.9 -161.25 -24.4 -156.4 -26.5 -149.65 -30.15 -136.4 -26.15" fill="url(#gradient99)" fill-rule="evenodd" stroke="none"/>
    <path d="M-219.25 -85.65 L-203.0 -73.4 -177.15 -51.65 -149.65 -30.15 -156.4 -26.5 -161.25 -24.4 -173.75 -13.9 -205.15 -41.4 -251.75 -78.25 -241.15 -87.9 -235.25 -89.5 -219.25 -85.65" fill="url(#gradient100)" fill-rule="evenodd" stroke="none"/>
    <path d="M-18.5 -78.5 L-18.5 -78.75 -18.65 -79.4 -18.25 -78.25 -18.5 -78.5 M-8.75 -66.25 L-8.9 -66.25 -9.0 -66.4 -8.75 -66.25" fill="url(#gradient101)" fill-rule="evenodd" stroke="none"/>
    <path d="M-18.5 -78.5 L-18.5 -78.15 -16.65 -73.0 -16.4 -72.5 -15.75 -71.5 -15.65 -71.25 -13.9 -69.15 -11.65 -67.4 -11.4 -67.25 -11.15 -67.15 -11.0 -67.15 -10.75 -67.0 -9.4 -66.5 -9.0 -66.4 -8.9 -66.25 -8.75 -66.25 -7.25 -66.25 -7.0 -66.25 -5.9 -67.4 -1.15 -71.5 -0.9 -71.5 -0.9 -65.4 Q-20.5 -63.4 -18.75 -79.0 L-18.5 -78.75 -18.5 -78.5" fill="url(#gradient102)" fill-rule="evenodd" stroke="none"/>
    <path d="M-0.9 -71.5 L-1.15 -71.5 -5.9 -67.4 -7.0 -66.25 -7.25 -66.25 -8.25 -66.9 -8.25 -67.0 -7.5 -66.75 -0.9 -72.65 -0.9 -71.5" fill="url(#gradient103)" fill-rule="evenodd" stroke="none"/>
    <path d="M-8.4 -67.4 Q-15.0 -76.0 -13.65 -81.4 L-12.9 -83.0 -5.25 -84.25 -1.0 -84.4 -0.9 -72.65 -7.5 -66.75 -8.25 -67.0 -8.4 -67.4" fill="url(#gradient104)" fill-rule="evenodd" stroke="none"/>
    <path d="M-10.4 -63.25 L-14.0 -64.4 -14.4 -65.4 -8.15 -64.25 -5.15 -64.15 -4.5 -64.25 -3.65 -64.25 -2.9 -64.4 -2.0 -64.4 -1.25 -64.5 -0.9 -64.5 -0.9 -63.75 -9.15 -63.15 -10.25 -63.25 -10.4 -63.25" fill="url(#gradient105)" fill-rule="evenodd" stroke="none"/>
    <path d="M-16.75 -57.5 L-15.65 -60.4 -12.65 -62.75 -11.9 -63.5 -10.4 -63.25 -10.25 -63.25 -9.15 -63.15 -7.75 -63.15 -16.4 -55.5 -16.75 -56.9 -16.75 -57.5" fill="url(#gradient106)" fill-rule="evenodd" stroke="none"/>
    <path d="M-12.65 -62.75 L-14.0 -63.15 -13.4 -63.9 -11.9 -63.5 -12.65 -62.75" fill="url(#gradient107)" fill-rule="evenodd" stroke="none"/>
    <path d="M-16.4 -61.25 L-16.25 -61.5 -16.15 -61.75 -15.25 -62.65 -15.25 -62.75 -15.0 -62.75 -14.0 -63.15 -12.65 -62.75 -15.65 -60.4 -16.75 -57.5 -17.15 -59.15 -17.0 -60.25 -16.4 -61.25 M-15.65 -47.75 L-15.25 -47.25 -15.75 -47.15 -15.65 -47.75 M-8.5 -18.4 L-8.9 -18.5 -8.65 -19.0 -8.5 -18.4" fill="url(#gradient108)" fill-rule="evenodd" stroke="none"/>
    <path d="M-14.0 -63.15 L-15.0 -62.75 -13.4 -63.9 -14.0 -63.15" fill="url(#gradient109)" fill-rule="evenodd" stroke="none"/>
    <path d="M-15.65 -47.75 L-15.65 -48.25 -15.75 -49.0 -15.75 -49.5 -15.9 -50.15 -15.9 -50.65 -16.0 -51.4 -16.0 -51.9 -16.15 -52.5 -16.15 -53.15 -16.25 -53.75 -16.25 -54.25 -16.4 -54.9 -16.4 -55.5 -7.75 -63.15 -3.9 -63.4 -3.0 -54.65 Q-9.4 -62.4 -15.25 -47.25 L-15.65 -47.75" fill="url(#gradient110)" fill-rule="evenodd" stroke="none"/>
    <path d="M-16.4 -61.25 L-17.0 -60.25 -17.15 -59.15 -16.75 -57.5 -16.75 -56.9 -17.15 -56.9 -17.5 -57.4 -17.5 -60.0 -16.4 -61.25" fill="url(#gradient111)" fill-rule="evenodd" stroke="none"/>
    <path d="M-17.15 -56.9 L-16.75 -56.9 -16.4 -55.5 -16.4 -54.9 -16.25 -54.25 -16.25 -53.75 -16.15 -53.15 -16.15 -52.5 -16.0 -51.9 -16.0 -51.4 -15.9 -50.65 -15.9 -50.15 -15.75 -49.5 -15.75 -49.0 -15.65 -48.25 -15.65 -47.75 -15.75 -47.15 -16.0 -46.75 -17.15 -56.9 M-9.4 -18.15 L-9.15 -19.15 -9.5 -20.9 -10.5 -22.25 -10.0 -22.5 -7.4 -21.25 -6.75 -21.4 -8.75 -19.4 -8.65 -19.0 -8.9 -18.5 -9.4 -18.15" fill="url(#gradient112)" fill-rule="evenodd" stroke="none"/>
    <path d="M-15.25 -47.25 Q-9.4 -62.4 -3.0 -54.65 L-0.9 -51.9 -0.9 -25.5 -2.9 -23.0 -4.65 -22.0 -6.75 -21.4 -7.4 -21.25 -10.0 -22.5 -10.5 -22.25 Q-16.5 -15.0 -25.15 -17.25 L-24.25 -18.9 -19.0 -24.5 -20.4 -25.9 Q-21.75 -23.9 -31.4 -26.9 L-33.5 -30.65 -34.25 -33.5 Q-35.4 -34.4 -33.5 -40.9 L-35.15 -42.5 -36.25 -45.9 -37.5 -45.65 -37.4 -49.25 -38.4 -52.15 Q-26.9 -56.15 -16.0 -46.75 L-15.75 -47.15 -15.25 -47.25" fill="url(#gradient113)" fill-rule="evenodd" stroke="none"/>
    <path d="M-396.75 -15.65 L-400.0 -22.15 -399.9 -52.4 -391.5 -47.15 -392.75 -34.15 -391.4 -24.4 -391.0 -24.15 -388.75 -17.9 -387.15 -15.5 -395.5 -15.15 -396.75 -15.65" fill="url(#gradient114)" fill-rule="evenodd" stroke="none"/>
    <path d="M-375.65 -0.9 L-389.5 -0.9 -396.75 -15.65 -395.5 -15.15 -387.15 -15.5 -383.9 -10.9 -377.15 -4.65 -376.0 -4.0 -376.15 -3.75 -375.65 -0.9" fill="url(#gradient115)" fill-rule="evenodd" stroke="none"/>
    <path d="M-371.75 -0.9 L-375.65 -0.9 -376.15 -3.75 -371.75 -0.9" fill="url(#gradient116)" fill-rule="evenodd" stroke="none"/>
    <path d="M-243.9 -13.75 L-244.65 -0.9 -251.75 -0.9 -249.25 -3.25 -243.9 -13.75" fill="url(#gradient117)" fill-rule="evenodd" stroke="none"/>
    <path d="M-6.9 -17.25 L-9.4 -18.15 -8.9 -18.5 -8.5 -18.4 -8.15 -18.25 -4.65 -22.0 -2.9 -23.0 -0.9 -25.5 -0.9 -23.25 -6.9 -17.25" fill="url(#gradient118)" fill-rule="evenodd" stroke="none"/>
    <path d="M-6.5 -15.75 L-6.9 -17.25 -0.9 -23.25 -1.15 -21.25 -6.5 -15.75" fill="url(#gradient119)" fill-rule="evenodd" stroke="none"/>
    <path d="M-6.75 -21.4 L-4.65 -22.0 -8.15 -18.25 -8.5 -18.4 -8.65 -19.0 -8.75 -19.4 -6.75 -21.4" fill="url(#gradient120)" fill-rule="evenodd" stroke="none"/>
    <path d="M-122.25 -17.75 L-98.4 -26.25 -66.75 -35.25 -35.15 -42.5 -33.5 -40.9 Q-35.4 -34.4 -34.25 -33.5 L-33.5 -30.65 -31.4 -26.9 Q-21.75 -23.9 -20.4 -25.9 L-19.0 -24.5 -24.25 -18.9 -25.15 -17.25 -28.15 -14.15 -34.4 -10.15 -52.9 -7.25 -68.25 -0.9 -110.25 -0.9 -122.25 -17.75" fill="url(#gradient121)" fill-rule="evenodd" stroke="none"/>
    <path d="M-144.25 -11.5 L-122.25 -17.75 -110.25 -0.9 -121.15 -0.9 -144.25 -11.5" fill="url(#gradient122)" fill-rule="evenodd" stroke="none"/>
    <path d="M-121.15 -0.9 L-183.75 -0.9 -173.75 -13.9 -144.25 -11.5 -121.15 -0.9" fill="url(#gradient123)" fill-rule="evenodd" stroke="none"/>
    <path d="M-345.9 -128.75 L-350.65 -129.4 -335.0 -133.5 -320.9 -134.75 -321.15 -133.15 -330.75 -132.4 -345.9 -128.75 M-275.15 -130.15 L-274.0 -131.25 -274.15 -132.0 -275.65 -133.65 -277.9 -134.0 -279.25 -135.4 -279.25 -136.0 -279.15 -136.15 -277.75 -136.5 -277.65 -136.5 -274.15 -137.4 -274.0 -137.4 -273.65 -137.5 -273.15 -137.5 -271.0 -136.65 -270.0 -132.65 -268.0 -131.4 -268.25 -130.5 -270.15 -128.75 -272.25 -128.25 -274.75 -129.75 -275.15 -130.15" fill="#ab0000" fill-opacity="0.9098039" fill-rule="evenodd" stroke="none"/>
    <path d="M-272.25 -128.25 L-274.4 -127.65 -274.5 -127.75 -274.5 -127.65 -282.25 -125.5 Q-282.55 -125.3 -282.9 -125.15 L-285.25 -124.65 -287.15 -123.9 -290.9 -121.9 -291.5 -121.65 -298.4 -118.15 -298.65 -117.75 -298.4 -117.65 -301.15 -110.15 -301.15 -109.75 -301.4 -109.65 -301.25 -109.5 -301.65 -108.9 -301.65 -108.75 -302.0 -107.4 -302.5 -106.5 -302.5 -105.65 Q-303.9 -103.15 -303.75 -101.75 L-306.25 -84.15 -306.15 -83.4 -307.4 -75.0 -317.4 -57.0 -317.75 -56.65 -322.25 -48.25 -322.65 -47.9 -328.15 -37.75 -328.4 -37.4 -330.0 -34.4 -302.9 -21.4 -303.0 -21.25 -308.4 -20.65 -308.9 -20.5 -333.5 -17.4 -334.0 -17.4 -334.5 -17.25 -335.25 -17.25 -335.25 -17.15 -341.75 -16.4 -339.65 -23.75 -339.75 -24.15 -339.5 -24.4 -337.0 -33.75 -332.15 -43.4 -331.9 -43.65 -327.5 -51.65 -327.25 -51.9 -324.0 -58.0 -323.75 -58.25 -322.75 -60.15 -322.9 -60.25 -321.9 -61.5 -321.9 -61.9 -313.5 -76.75 -310.9 -92.65 -311.0 -93.4 -307.65 -112.5 -306.0 -119.75 -302.5 -121.25 -301.65 -121.5 -297.65 -123.15 -295.4 -123.75 -295.15 -124.25 -285.25 -127.25 -285.15 -127.4 -282.0 -128.25 -281.65 -128.4 -276.15 -129.75 -275.15 -130.15 -274.75 -129.75 -272.25 -128.25" fill="#9b0000" fill-opacity="0.9098039" fill-rule="evenodd" stroke="none"/>
    <path d="M-356.65 -114.75 L-359.65 -113.65 -359.75 -113.15 -360.0 -112.9 -362.0 -109.25 -362.9 -108.9 -361.5 -115.75 -350.65 -129.4 -345.9 -128.75 -356.15 -115.25 -356.65 -114.75" fill="#ae0000" fill-opacity="0.9098039" fill-rule="evenodd" stroke="none"/>
    <path d="M-362.9 -108.9 L-362.0 -109.25 -360.0 -112.9 -359.75 -113.15 -359.65 -113.65 -356.65 -114.75 -356.75 -114.5 -358.0 -108.65 -357.9 -107.75 -360.4 -95.5 -360.65 -95.0 -360.5 -94.4 -361.25 -90.65 -361.65 -90.15 -361.9 -89.65 -372.65 -74.15 -372.75 -73.9 -372.9 -73.75 -373.25 -73.15 -375.25 -70.25 -375.65 -70.0 -376.9 -67.9 -377.9 -66.65 -378.5 -65.65 -378.75 -65.4 -379.25 -64.5 -383.0 -59.0 -383.4 -58.75 -386.4 -54.4 -387.15 -51.25 -387.4 -51.0 -387.25 -50.65 -389.15 -43.4 -389.25 -43.15 -391.5 -34.25 -391.65 -34.0 -392.25 -31.75 -392.65 -33.4 -392.75 -34.25 -392.5 -35.15 -392.15 -40.9 -392.0 -41.75 -391.9 -42.0 -391.4 -46.65 -391.5 -47.15 -391.0 -48.15 -389.25 -53.65 -389.25 -53.75 -389.5 -54.0 -388.65 -55.5 -392.65 -55.75 -391.4 -55.9 -386.25 -63.4 -386.25 -63.5 -385.65 -64.5 -379.4 -73.0 -379.25 -73.4 -374.65 -80.0 -374.15 -80.25 -373.25 -82.0 -366.4 -91.5 -365.65 -95.0 -365.65 -95.4 -363.75 -105.25 -363.5 -106.0 -363.4 -106.15 -363.15 -106.9 -363.15 -107.4 -363.25 -107.65 -363.25 -108.4 -362.9 -108.75 -362.9 -108.9" fill="#9e0000" fill-opacity="0.9098039" fill-rule="evenodd" stroke="none"/>
    <path d="M-303.4 -0.9 L-344.5 -0.9 -342.15 -13.9 -342.25 -14.15 -342.15 -14.25 -341.75 -16.4 -335.25 -17.15 -335.25 -17.25 -334.5 -17.25 -334.0 -17.4 -333.5 -17.4 -308.9 -20.5 -308.4 -20.65 -303.0 -21.25 -302.9 -21.4 -303.25 -7.5 -303.15 -5.65 -303.25 -4.9 -303.4 -4.65 -303.25 -1.75 -303.4 -0.9" fill="#a10000" fill-opacity="0.9098039" fill-rule="evenodd" stroke="none"/>
    <path d="M-392.65 -55.75 L-388.65 -55.5 -389.5 -54.0 -389.25 -53.75 -389.25 -53.65 -391.0 -48.15 -391.5 -47.15 -391.4 -46.65 -391.9 -42.0 -392.0 -41.75 -392.15 -40.9 -392.5 -35.15 -392.75 -34.25 -392.65 -33.4 -392.25 -31.75 -392.5 -31.15 -392.4 -31.0 -392.4 -30.25 -393.4 -27.25 -393.25 -27.0 -393.75 -25.9 -394.0 -26.25 -393.9 -27.4 -394.0 -27.75 -393.75 -32.15 -393.9 -32.65 -393.75 -34.75 -393.9 -35.0 -393.75 -35.9 -393.9 -36.15 -393.65 -42.5 -393.75 -43.0 -393.5 -47.65 -393.9 -47.9 -393.5 -48.25 -393.65 -48.4 -393.65 -48.9 -393.65 -49.5 -393.75 -49.65 -393.4 -55.75 -392.65 -55.75" fill="#b10000" fill-rule="evenodd" stroke="none"/>
    <path d="M-393.65 -48.9 L-393.65 -48.4 -393.5 -48.25 -393.9 -47.9 -393.5 -47.65 -393.75 -43.0 -393.65 -42.5 -393.9 -36.15 -393.75 -35.9 -393.9 -35.0 -393.75 -34.75 -393.9 -32.65 -393.75 -32.15 -394.0 -27.75 -393.9 -27.4 -394.0 -26.25 -393.75 -25.9 -394.0 -25.4 -394.4 -26.25 -394.65 -26.65 -395.0 -28.25 -394.75 -33.25 -394.9 -33.65 -394.65 -35.4 -394.75 -35.65 -394.15 -43.15 -394.25 -43.75 -393.9 -47.9 -394.0 -48.15 -393.9 -48.4 -393.9 -48.5 -393.65 -48.9" fill="#e20000" fill-rule="evenodd" stroke="none"/>
    <path d="M-393.75 -25.9 L-393.25 -27.0 -391.75 -25.9 -391.4 -25.15 -391.4 -24.5 -390.15 -21.4 -393.25 -24.0 -393.9 -25.0 -394.0 -25.4 -393.75 -25.9" fill="#d90000" fill-opacity="0.9098039" fill-rule="evenodd" stroke="none"/>
    <path d="M-393.25 -27.0 L-393.4 -27.25 -392.4 -30.25 -391.75 -25.9 -393.25 -27.0" fill="#da0000" fill-opacity="0.9098039" fill-rule="evenodd" stroke="none"/>
    <path d="M-389.75 -20.65 L-388.9 -18.15 -388.65 -17.75 -388.4 -17.5 -388.25 -17.4 -384.5 -11.65 -382.5 -9.65 -382.15 -9.5 -381.25 -8.4 -376.0 -4.0 -376.15 -3.75 -375.9 -3.75 -373.9 -2.15 -371.75 -0.9 -377.65 -0.9 -381.9 -6.9 -381.9 -7.0 -392.15 -22.4 -392.65 -22.9 -393.25 -24.0 -390.15 -21.4 -389.75 -20.65" fill="#b90000" fill-rule="evenodd" stroke="none"/>
    <path d="M-302.9 -21.4 L-277.15 -17.65 -277.0 -17.75 -256.75 -14.5 -256.75 -14.4 -255.0 -14.0 -253.9 -13.9 -253.65 -13.65 -245.15 -11.75 -245.15 -11.65 -244.9 -11.65 -243.9 -11.4 -244.65 -0.9 -303.4 -0.9 -303.25 -1.75 -303.4 -4.65 -303.25 -4.9 -303.15 -5.65 -303.25 -7.5 -302.9 -21.4" fill="#db0000" fill-opacity="0.9098039" fill-rule="evenodd" stroke="none"/>
    <path d="M-389.75 -20.65 L-387.65 -18.9 -387.65 -18.75 -383.65 -15.15 -383.25 -14.5 -382.0 -13.5 -381.25 -12.75 -380.9 -12.5 -373.4 -5.4 -373.0 -5.15 -369.25 -1.5 -369.0 -1.4 -368.65 -0.9 -371.75 -0.9 -373.9 -2.15 -375.9 -3.75 -376.15 -3.75 -376.0 -4.0 -381.25 -8.4 -382.15 -9.5 -382.5 -9.65 -384.5 -11.65 -388.25 -17.4 -388.4 -17.5 -388.65 -17.75 -388.9 -18.15 -389.75 -20.65" fill="#a50000" fill-opacity="0.9098039" fill-rule="evenodd" stroke="none"/>
    <path d="M-243.9 -11.4 L-243.75 -12.4 -243.9 -13.75 -243.9 -13.9 -243.65 -14.75 -234.9 -16.5 -234.5 -16.25 -234.75 -15.4 -234.75 -15.15 -236.65 -10.25 -239.75 -10.4 -243.9 -11.4" fill="#bc0000" fill-opacity="0.9098039" fill-rule="evenodd" stroke="none"/>
    <path d="M-234.5 -16.25 L-233.15 -10.15 -234.9 -10.15 -234.75 -15.15 -234.75 -15.4 -234.5 -16.25" fill="#ff0000" fill-opacity="0.9098039" fill-rule="evenodd" stroke="none"/>
    <path d="M-234.75 -15.15 L-234.9 -10.15 -236.65 -10.25 -234.75 -15.15" fill="#fe0000" fill-rule="evenodd" stroke="none"/>
    <path d="M-241.0 -0.9 L-244.65 -0.9 -243.9 -11.4 -239.75 -10.4 -236.65 -10.25 -238.9 -3.5 -239.0 -3.25 -241.0 -0.9" fill="#ec0000" fill-rule="evenodd" stroke="none"/>
    <path d="M-235.25 -7.4 L-235.15 -6.4 -235.5 -0.9 -241.0 -0.9 -239.0 -3.25 -238.9 -3.5 -235.25 -7.4" fill="#f80000" fill-rule="evenodd" stroke="none"/>
    <path d="M-233.15 -10.15 L-235.15 -7.9 -235.25 -7.4 -238.9 -3.5 -236.65 -10.25 -234.9 -10.15 -233.15 -10.15" fill="#f20000" fill-rule="evenodd" stroke="none"/>
  </g>
  <defs>
    <radialGradient cx="0" cy="0" gradientTransform="matrix(0.1191, 0.0, 0.0, 0.1191, -400.0, -249.35)" gradientUnits="userSpaceOnUse" id="gradient0" r="819.2" spreadMethod="pad">
      <stop offset="0.0" stop-color="#3f3f3f"/>
      <stop offset="1.0" stop-color="#292929"/>
    </radialGradient>
    <radialGradient cx="0" cy="0" gradientTransform="matrix(0.2536, 0.0, 0.0, 0.2536, -193.9, -191.75)" gradientUnits="userSpaceOnUse" id="gradient1" r="819.2" spreadMethod="pad">
      <stop offset="0.0" stop-color="#484848"/>
      <stop offset="1.0" stop-color="#1b1b1b"/>
    </radialGradient>
    <radialGradient cx="0" cy="0" gradientTransform="matrix(0.1921, 0.0, 0.0, 0.1921, -323.55, -142.65)" gradientUnits="userSpaceOnUse" id="gradient2" r="819.2" spreadMethod="pad">
      <stop offset="0.0" stop-color="#7d7d7d"/>
      <stop offset="1.0" stop-color="#0b0b0b"/>
    </radialGradient>
    <radialGradient cx="0" cy="0" gradientTransform="matrix(0.0647, 0.0, 0.0, 0.0647, -388.55, -249.4)" gradientUnits="userSpaceOnUse" id="gradient3" r="819.2" spreadMethod="pad">
      <stop offset="0.0" stop-color="#767676"/>
      <stop offset="1.0" stop-color="#767676"/>
    </radialGradient>
    <radialGradient cx="0" cy="0" gradientTransform="matrix(0.0124, 0.0, 0.0, 0.0124, -384.9, -248.4)" gradientUnits="userSpaceOnUse" id="gradient4" r="819.2" spreadMethod="pad">
      <stop offset="0.0" stop-color="#8a8a8a"/>
      <stop offset="1.0" stop-color="#898989"/>
    </radialGradient>
    <radialGradient cx="0" cy="0" gradientTransform="matrix(0.0238, 0.0, 0.0, 0.0238, -396.45, -288.4)" gradientUnits="userSpaceOnUse" id="gradient5" r="819.2" spreadMethod="pad">
      <stop offset="0.0" stop-color="#080808"/>
      <stop offset="1.0" stop-color="#080808"/>
    </radialGradient>
    <radialGradient cx="0" cy="0" gradientTransform="matrix(0.009, 0.0, 0.0, 0.009, -388.55, -249.4)" gradientUnits="userSpaceOnUse" id="gradient6" r="819.2" spreadMethod="pad">
      <stop offset="0.0" stop-color="#767676"/>
      <stop offset="1.0" stop-color="#767676"/>
    </radialGradient>
    <radialGradient cx="0" cy="0" gradientTransform="matrix(0.0058, 0.0, 0.0, 0.0058, -380.9, -223.1)" gradientUnits="userSpaceOnUse" id="gradient7" r="819.2" spreadMethod="pad">
      <stop offset="0.0" stop-color="#e2e2e2"/>
      <stop offset="1.0" stop-color="#e0e0e0"/>
    </radialGradient>
    <radialGradient cx="0" cy="0" gradientTransform="matrix(0.0129, 0.0, 0.0, 0.0129, -385.25, -216.05)" gradientUnits="userSpaceOnUse" id="gradient8" r="819.2" spreadMethod="pad">
      <stop offset="0.0" stop-color="#e1e1e1"/>
      <stop offset="1.0" stop-color="#dedede"/>
    </radialGradient>
    <radialGradient cx="0" cy="0" gradientTransform="matrix(0.0236, 0.0, 0.0, 0.0236, -353.65, -168.65)" gradientUnits="userSpaceOnUse" id="gradient9" r="819.2" spreadMethod="pad">
      <stop offset="0.0" stop-color="#ff5151"/>
      <stop offset="1.0" stop-color="#330000"/>
    </radialGradient>
    <radialGradient cx="0" cy="0" gradientTransform="matrix(0.0235, 0.0, 0.0, 0.0235, -353.15, -168.35)" gradientUnits="userSpaceOnUse" id="gradient10" r="819.2" spreadMethod="pad">
      <stop offset="0.0" stop-color="#ff5151"/>
      <stop offset="1.0" stop-color="#ff4c4c"/>
    </radialGradient>
    <radialGradient cx="0" cy="0" gradientTransform="matrix(0.0233, 0.0, 0.0, 0.0233, -354.0, -161.8)" gradientUnits="userSpaceOnUse" id="gradient11" r="819.2" spreadMethod="pad">
      <stop offset="0.0" stop-color="#ff3030"/>
      <stop offset="1.0" stop-color="#ff2d2d"/>
    </radialGradient>
    <radialGradient cx="0" cy="0" gradientTransform="matrix(0.028, 0.0, 0.0, 0.028, -349.65, -163.65)" gradientUnits="userSpaceOnUse" id="gradient12" r="819.2" spreadMethod="pad">
      <stop offset="0.0" stop-color="#f89797"/>
      <stop offset="1.0" stop-color="#864242"/>
    </radialGradient>
    <radialGradient cx="0" cy="0" gradientTransform="matrix(0.175, 0.0, 0.0, 0.175, -280.05, -144.4)" gradientUnits="userSpaceOnUse" id="gradient13" r="819.2" spreadMethod="pad">
      <stop offset="0.0" stop-color="#1a1a1a"/>
      <stop offset="1.0" stop-color="#0d0d0d"/>
    </radialGradient>
    <radialGradient cx="0" cy="0" gradientTransform="matrix(0.0398, 0.0, 0.0, 0.0398, -279.0, -133.5)" gradientUnits="userSpaceOnUse" id="gradient14" r="819.2" spreadMethod="pad">
      <stop offset="0.0" stop-color="#7b7b7b"/>
      <stop offset="1.0" stop-color="#0a0a0a"/>
    </radialGradient>
    <radialGradient cx="0" cy="0" gradientTransform="matrix(0.1671, 0.0, 0.0, 0.1671, -279.35, -137.7)" gradientUnits="userSpaceOnUse" id="gradient15" r="819.2" spreadMethod="pad">
      <stop offset="0.0" stop-color="#101010"/>
      <stop offset="1.0" stop-color="#000000"/>
    </radialGradient>
    <radialGradient cx="0" cy="0" gradientTransform="matrix(0.0229, 0.0, 0.0, 0.0229, -308.2, -140.85)" gradientUnits="userSpaceOnUse" id="gradient16" r="819.2" spreadMethod="pad">
      <stop offset="0.0" stop-color="#797979"/>
      <stop offset="1.0" stop-color="#000000"/>
    </radialGradient>
    <radialGradient cx="0" cy="0" gradientTransform="matrix(0.0404, 0.0, 0.0, 0.0404, -320.4, -138.25)" gradientUnits="userSpaceOnUse" id="gradient17" r="819.2" spreadMethod="pad">
      <stop offset="0.0" stop-color="#181818"/>
      <stop offset="1.0" stop-color="#000000"/>
    </radialGradient>
    <radialGradient cx="0" cy="0" gradientTransform="matrix(0.0668, 0.0, 0.0, 0.0668, -306.85, -127.6)" gradientUnits="userSpaceOnUse" id="gradient18" r="819.2" spreadMethod="pad">
      <stop offset="0.0" stop-color="#3c3c3c"/>
      <stop offset="1.0" stop-color="#000000"/>
    </radialGradient>
    <radialGradient cx="0" cy="0" gradientTransform="matrix(0.054, 0.0, 0.0, 0.054, -344.3, -73.4)" gradientUnits="userSpaceOnUse" id="gradient19" r="819.2" spreadMethod="pad">
      <stop offset="0.0" stop-color="#171717"/>
      <stop offset="1.0" stop-color="#000000"/>
    </radialGradient>
    <radialGradient cx="0" cy="0" gradientTransform="matrix(0.0319, 0.0, 0.0, 0.0319, -336.5, -118.65)" gradientUnits="userSpaceOnUse" id="gradient20" r="819.2" spreadMethod="pad">
      <stop offset="0.0" stop-color="#000000"/>
      <stop offset="1.0" stop-color="#000000"/>
    </radialGradient>
    <radialGradient cx="0" cy="0" gradientTransform="matrix(0.0045, 0.0, 0.0, 0.0045, -329.6, -124.1)" gradientUnits="userSpaceOnUse" id="gradient21" r="819.2" spreadMethod="pad">
      <stop offset="0.0" stop-color="#000000"/>
      <stop offset="1.0" stop-color="#000000"/>
    </radialGradient>
    <radialGradient cx="0" cy="0" gradientTransform="matrix(0.0413, 0.0, 0.0, 0.0413, -10.85, -126.7)" gradientUnits="userSpaceOnUse" id="gradient22" r="819.2" spreadMethod="pad">
      <stop offset="0.0" stop-color="#040404"/>
      <stop offset="1.0" stop-color="#040404"/>
    </radialGradient>
    <radialGradient cx="0" cy="0" gradientTransform="matrix(0.0205, 0.0, 0.0, 0.0205, -8.95, -126.65)" gradientUnits="userSpaceOnUse" id="gradient23" r="819.2" spreadMethod="pad">
      <stop offset="0.0" stop-color="#040404"/>
      <stop offset="1.0" stop-color="#040404"/>
    </radialGradient>
    <radialGradient cx="0" cy="0" gradientTransform="matrix(0.0797, 0.0, 0.0, 0.0797, -16.2, -101.95)" gradientUnits="userSpaceOnUse" id="gradient24" r="819.2" spreadMethod="pad">
      <stop offset="0.0" stop-color="#040404"/>
      <stop offset="1.0" stop-color="#040404"/>
    </radialGradient>
    <radialGradient cx="0" cy="0" gradientTransform="matrix(0.0309, 0.0, 0.0, 0.0309, -20.8, -116.55)" gradientUnits="userSpaceOnUse" id="gradient25" r="819.2" spreadMethod="pad">
      <stop offset="0.0" stop-color="#060606"/>
      <stop offset="1.0" stop-color="#060606"/>
    </radialGradient>
    <radialGradient cx="0" cy="0" gradientTransform="matrix(0.0255, 0.0, 0.0, 0.0255, -21.15, -116.8)" gradientUnits="userSpaceOnUse" id="gradient26" r="819.2" spreadMethod="pad">
      <stop offset="0.0" stop-color="#060606"/>
      <stop offset="1.0" stop-color="#060606"/>
    </radialGradient>
    <radialGradient cx="0" cy="0" gradientTransform="matrix(0.0271, 0.0, 0.0, 0.0271, -29.3, -122.65)" gradientUnits="userSpaceOnUse" id="gradient27" r="819.2" spreadMethod="pad">
      <stop offset="0.0" stop-color="#040404"/>
      <stop offset="1.0" stop-color="#040404"/>
    </radialGradient>
    <radialGradient cx="0" cy="0" gradientTransform="matrix(0.027, 0.0, 0.0, 0.027, -38.45, -120.75)" gradientUnits="userSpaceOnUse" id="gradient28" r="819.2" spreadMethod="pad">
      <stop offset="0.0" stop-color="#040404"/>
      <stop offset="1.0" stop-color="#040404"/>
    </radialGradient>
    <radialGradient cx="0" cy="0" gradientTransform="matrix(0.0205, 0.0, 0.0, 0.0205, -45.2, -119.7)" gradientUnits="userSpaceOnUse" id="gradient29" r="819.2" spreadMethod="pad">
      <stop offset="0.0" stop-color="#040404"/>
      <stop offset="1.0" stop-color="#040404"/>
    </radialGradient>
    <radialGradient cx="0" cy="0" gradientTransform="matrix(0.0227, 0.0, 0.0, 0.0227, -47.15, -120.85)" gradientUnits="userSpaceOnUse" id="gradient30" r="819.2" spreadMethod="pad">
      <stop offset="0.0" stop-color="#040404"/>
      <stop offset="1.0" stop-color="#040404"/>
    </radialGradient>
    <radialGradient cx="0" cy="0" gradientTransform="matrix(0.0224, 0.0, 0.0, 0.0224, -51.35, -122.9)" gradientUnits="userSpaceOnUse" id="gradient31" r="819.2" spreadMethod="pad">
      <stop offset="0.0" stop-color="#040404"/>
      <stop offset="1.0" stop-color="#040404"/>
    </radialGradient>
    <radialGradient cx="0" cy="0" gradientTransform="matrix(0.0274, 0.0, 0.0, 0.0274, -1.0, -127.95)" gradientUnits="userSpaceOnUse" id="gradient32" r="819.2" spreadMethod="pad">
      <stop offset="0.0" stop-color="#111111"/>
      <stop offset="1.0" stop-color="#111111"/>
    </radialGradient>
    <radialGradient cx="0" cy="0" gradientTransform="matrix(0.0248, 0.0, 0.0, 0.0248, -21.1, -117.95)" gradientUnits="userSpaceOnUse" id="gradient33" r="819.2" spreadMethod="pad">
      <stop offset="0.0" stop-color="#111111"/>
      <stop offset="1.0" stop-color="#111111"/>
    </radialGradient>
    <radialGradient cx="0" cy="0" gradientTransform="matrix(0.0186, 0.0, 0.0, 0.0186, -21.45, -117.85)" gradientUnits="userSpaceOnUse" id="gradient34" r="819.2" spreadMethod="pad">
      <stop offset="0.0" stop-color="#080808"/>
      <stop offset="1.0" stop-color="#080808"/>
    </radialGradient>
    <radialGradient cx="0" cy="0" gradientTransform="matrix(0.044, 0.0, 0.0, 0.044, -242.55, -82.45)" gradientUnits="userSpaceOnUse" id="gradient35" r="819.2" spreadMethod="pad">
      <stop offset="0.0" stop-color="#414141"/>
      <stop offset="1.0" stop-color="#0a0a0a"/>
    </radialGradient>
    <radialGradient cx="0" cy="0" gradientTransform="matrix(0.0503, 0.0, 0.0, 0.0503, -296.15, -122.6)" gradientUnits="userSpaceOnUse" id="gradient36" r="819.2" spreadMethod="pad">
      <stop offset="0.0" stop-color="#000000"/>
      <stop offset="1.0" stop-color="#000000"/>
    </radialGradient>
    <radialGradient cx="0" cy="0" gradientTransform="matrix(0.1069, 0.0, 0.0, 0.1069, -219.05, -85.55)" gradientUnits="userSpaceOnUse" id="gradient37" r="819.2" spreadMethod="pad">
      <stop offset="0.0" stop-color="#585858"/>
      <stop offset="1.0" stop-color="#000000"/>
    </radialGradient>
    <radialGradient cx="0" cy="0" gradientTransform="matrix(0.0173, 0.0, 0.0, 0.0173, -20.9, -103.85)" gradientUnits="userSpaceOnUse" id="gradient38" r="819.2" spreadMethod="pad">
      <stop offset="0.0" stop-color="#020202"/>
      <stop offset="1.0" stop-color="#020202"/>
    </radialGradient>
    <radialGradient cx="0" cy="0" gradientTransform="matrix(0.0347, 0.0, 0.0, 0.0347, -16.45, -90.95)" gradientUnits="userSpaceOnUse" id="gradient39" r="819.2" spreadMethod="pad">
      <stop offset="0.0" stop-color="#050505"/>
      <stop offset="1.0" stop-color="#050505"/>
    </radialGradient>
    <radialGradient cx="0" cy="0" gradientTransform="matrix(0.0252, 0.0, 0.0, 0.0252, -17.0, -90.5)" gradientUnits="userSpaceOnUse" id="gradient40" r="819.2" spreadMethod="pad">
      <stop offset="0.0" stop-color="#040404"/>
      <stop offset="1.0" stop-color="#040404"/>
    </radialGradient>
    <radialGradient cx="0" cy="0" gradientTransform="matrix(0.0055, 0.0, 0.0, 0.0055, -4.55, -103.1)" gradientUnits="userSpaceOnUse" id="gradient41" r="819.2" spreadMethod="pad">
      <stop offset="0.0" stop-color="#040404"/>
      <stop offset="1.0" stop-color="#040404"/>
    </radialGradient>
    <radialGradient cx="0" cy="0" gradientTransform="matrix(0.012, 0.0, 0.0, 0.012, -8.25, -103.1)" gradientUnits="userSpaceOnUse" id="gradient42" r="819.2" spreadMethod="pad">
      <stop offset="0.0" stop-color="#171717"/>
      <stop offset="1.0" stop-color="#171717"/>
    </radialGradient>
    <radialGradient cx="0" cy="0" gradientTransform="matrix(0.0213, 0.0, 0.0, 0.0213, -4.7, -107.4)" gradientUnits="userSpaceOnUse" id="gradient43" r="819.2" spreadMethod="pad">
      <stop offset="0.0" stop-color="#050505"/>
      <stop offset="1.0" stop-color="#050505"/>
    </radialGradient>
    <radialGradient cx="0" cy="0" gradientTransform="matrix(0.0192, 0.0, 0.0, 0.0192, -20.1, -116.7)" gradientUnits="userSpaceOnUse" id="gradient44" r="819.2" spreadMethod="pad">
      <stop offset="0.0" stop-color="#252525"/>
      <stop offset="1.0" stop-color="#242424"/>
    </radialGradient>
    <radialGradient cx="0" cy="0" gradientTransform="matrix(0.0326, 0.0, 0.0, 0.0326, -41.95, -114.4)" gradientUnits="userSpaceOnUse" id="gradient45" r="819.2" spreadMethod="pad">
      <stop offset="0.0" stop-color="#020202"/>
      <stop offset="1.0" stop-color="#020202"/>
    </radialGradient>
    <radialGradient cx="0" cy="0" gradientTransform="matrix(0.0195, 0.0, 0.0, 0.0195, -42.8, -113.8)" gradientUnits="userSpaceOnUse" id="gradient46" r="819.2" spreadMethod="pad">
      <stop offset="0.0" stop-color="#202020"/>
      <stop offset="1.0" stop-color="#202020"/>
    </radialGradient>
    <radialGradient cx="0" cy="0" gradientTransform="matrix(0.017, 0.0, 0.0, 0.017, -38.1, -101.9)" gradientUnits="userSpaceOnUse" id="gradient47" r="819.2" spreadMethod="pad">
      <stop offset="0.0" stop-color="#020202"/>
      <stop offset="1.0" stop-color="#020202"/>
    </radialGradient>
    <radialGradient cx="0" cy="0" gradientTransform="matrix(0.0171, 0.0, 0.0, 0.0171, -34.6, -102.35)" gradientUnits="userSpaceOnUse" id="gradient48" r="819.2" spreadMethod="pad">
      <stop offset="0.0" stop-color="#020202"/>
      <stop offset="1.0" stop-color="#020202"/>
    </radialGradient>
    <radialGradient cx="0" cy="0" gradientTransform="matrix(0.0173, 0.0, 0.0, 0.0173, -31.2, -102.8)" gradientUnits="userSpaceOnUse" id="gradient49" r="819.2" spreadMethod="pad">
      <stop offset="0.0" stop-color="#020202"/>
      <stop offset="1.0" stop-color="#020202"/>
    </radialGradient>
    <radialGradient cx="0" cy="0" gradientTransform="matrix(0.0173, 0.0, 0.0, 0.0173, -27.65, -103.2)" gradientUnits="userSpaceOnUse" id="gradient50" r="819.2" spreadMethod="pad">
      <stop offset="0.0" stop-color="#020202"/>
      <stop offset="1.0" stop-color="#020202"/>
    </radialGradient>
    <radialGradient cx="0" cy="0" gradientTransform="matrix(0.0173, 0.0, 0.0, 0.0173, -24.35, -103.5)" gradientUnits="userSpaceOnUse" id="gradient51" r="819.2" spreadMethod="pad">
      <stop offset="0.0" stop-color="#020202"/>
      <stop offset="1.0" stop-color="#020202"/>
    </radialGradient>
    <radialGradient cx="0" cy="0" gradientTransform="matrix(0.1523, 0.0, 0.0, 0.1523, -363.9, -1.0)" gradientUnits="userSpaceOnUse" id="gradient52" r="819.2" spreadMethod="pad">
      <stop offset="0.0" stop-color="#363636"/>
      <stop offset="1.0" stop-color="#000000"/>
    </radialGradient>
    <radialGradient cx="0" cy="0" gradientTransform="matrix(0.0885, 0.0, 0.0, 0.0885, -262.7, -49.85)" gradientUnits="userSpaceOnUse" id="gradient53" r="819.2" spreadMethod="pad">
      <stop offset="0.0" stop-color="#595959"/>
      <stop offset="1.0" stop-color="#000000"/>
    </radialGradient>
    <radialGradient cx="0" cy="0" gradientTransform="matrix(0.0257, 0.0, 0.0, 0.0257, -316.25, -109.6)" gradientUnits="userSpaceOnUse" id="gradient54" r="819.2" spreadMethod="pad">
      <stop offset="0.0" stop-color="#000000"/>
      <stop offset="1.0" stop-color="#000000"/>
    </radialGradient>
    <radialGradient cx="0" cy="0" gradientTransform="matrix(0.1088, 0.0, 0.0, 0.1088, -299.55, -108.8)" gradientUnits="userSpaceOnUse" id="gradient55" r="819.2" spreadMethod="pad">
      <stop offset="0.0" stop-color="#000000"/>
      <stop offset="1.0" stop-color="#000000"/>
    </radialGradient>
    <radialGradient cx="0" cy="0" gradientTransform="matrix(0.1232, 0.0, 0.0, 0.1232, -256.7, -20.4)" gradientUnits="userSpaceOnUse" id="gradient56" r="819.2" spreadMethod="pad">
      <stop offset="0.0" stop-color="#3f3f3f"/>
      <stop offset="1.0" stop-color="#0f0f0f"/>
    </radialGradient>
    <radialGradient cx="0" cy="0" gradientTransform="matrix(0.1064, 0.0, 0.0, 0.1064, -270.85, -27.05)" gradientUnits="userSpaceOnUse" id="gradient57" r="819.2" spreadMethod="pad">
      <stop offset="0.0" stop-color="#848484"/>
      <stop offset="1.0" stop-color="#1a1a1a"/>
    </radialGradient>
    <radialGradient cx="0" cy="0" gradientTransform="matrix(0.1004, 0.0, 0.0, 0.1004, -374.1, -2.35)" gradientUnits="userSpaceOnUse" id="gradient58" r="819.2" spreadMethod="pad">
      <stop offset="0.0" stop-color="#858585"/>
      <stop offset="1.0" stop-color="#000000"/>
    </radialGradient>
    <radialGradient cx="0" cy="0" gradientTransform="matrix(0.079, 0.0, 0.0, 0.079, -378.45, -51.65)" gradientUnits="userSpaceOnUse" id="gradient59" r="819.2" spreadMethod="pad">
      <stop offset="0.0" stop-color="#6a6a6a"/>
      <stop offset="1.0" stop-color="#000000"/>
    </radialGradient>
    <radialGradient cx="0" cy="0" gradientTransform="matrix(0.0484, 0.0, 0.0, 0.0484, -355.1, -83.6)" gradientUnits="userSpaceOnUse" id="gradient60" r="819.2" spreadMethod="pad">
      <stop offset="0.0" stop-color="#000000"/>
      <stop offset="1.0" stop-color="#000000"/>
    </radialGradient>
    <radialGradient cx="0" cy="0" gradientTransform="matrix(0.0194, 0.0, 0.0, 0.0194, -67.2, -110.8)" gradientUnits="userSpaceOnUse" id="gradient61" r="819.2" spreadMethod="pad">
      <stop offset="0.0" stop-color="#1d1d1d"/>
      <stop offset="1.0" stop-color="#191919"/>
    </radialGradient>
    <radialGradient cx="0" cy="0" gradientTransform="matrix(0.0192, 0.0, 0.0, 0.0192, -67.9, -109.8)" gradientUnits="userSpaceOnUse" id="gradient62" r="819.2" spreadMethod="pad">
      <stop offset="0.0" stop-color="#040404"/>
      <stop offset="1.0" stop-color="#040404"/>
    </radialGradient>
    <radialGradient cx="0" cy="0" gradientTransform="matrix(0.0287, 0.0, 0.0, 0.0287, -69.15, -108.25)" gradientUnits="userSpaceOnUse" id="gradient63" r="819.2" spreadMethod="pad">
      <stop offset="0.0" stop-color="#171717"/>
      <stop offset="1.0" stop-color="#171717"/>
    </radialGradient>
    <radialGradient cx="0" cy="0" gradientTransform="matrix(0.0265, 0.0, 0.0, 0.0265, -59.05, -111.3)" gradientUnits="userSpaceOnUse" id="gradient64" r="819.2" spreadMethod="pad">
      <stop offset="0.0" stop-color="#040404"/>
      <stop offset="1.0" stop-color="#040404"/>
    </radialGradient>
    <radialGradient cx="0" cy="0" gradientTransform="matrix(0.0094, 0.0, 0.0, 0.0094, -74.0, -98.9)" gradientUnits="userSpaceOnUse" id="gradient65" r="819.2" spreadMethod="pad">
      <stop offset="0.0" stop-color="#171717"/>
      <stop offset="1.0" stop-color="#171717"/>
    </radialGradient>
    <radialGradient cx="0" cy="0" gradientTransform="matrix(0.0194, 0.0, 0.0, 0.0194, -77.1, -101.55)" gradientUnits="userSpaceOnUse" id="gradient66" r="819.2" spreadMethod="pad">
      <stop offset="0.0" stop-color="#171717"/>
      <stop offset="1.0" stop-color="#171717"/>
    </radialGradient>
    <radialGradient cx="0" cy="0" gradientTransform="matrix(0.0131, 0.0, 0.0, 0.0131, -73.15, -95.2)" gradientUnits="userSpaceOnUse" id="gradient67" r="819.2" spreadMethod="pad">
      <stop offset="0.0" stop-color="#020202"/>
      <stop offset="1.0" stop-color="#020202"/>
    </radialGradient>
    <radialGradient cx="0" cy="0" gradientTransform="matrix(0.0208, 0.0, 0.0, 0.0208, -71.1, -101.7)" gradientUnits="userSpaceOnUse" id="gradient68" r="819.2" spreadMethod="pad">
      <stop offset="0.0" stop-color="#1c1c1c"/>
      <stop offset="1.0" stop-color="#1b1b1b"/>
    </radialGradient>
    <radialGradient cx="0" cy="0" gradientTransform="matrix(0.0608, 0.0, 0.0, 0.0608, -386.85, -85.65)" gradientUnits="userSpaceOnUse" id="gradient69" r="819.2" spreadMethod="pad">
      <stop offset="0.0" stop-color="#0f0f0f"/>
      <stop offset="1.0" stop-color="#040404"/>
    </radialGradient>
    <radialGradient cx="0" cy="0" gradientTransform="matrix(0.095, 0.0, 0.0, 0.095, -7.15, -66.15)" gradientUnits="userSpaceOnUse" id="gradient70" r="819.2" spreadMethod="pad">
      <stop offset="0.0" stop-color="#040404"/>
      <stop offset="1.0" stop-color="#040404"/>
    </radialGradient>
    <radialGradient cx="0" cy="0" gradientTransform="matrix(0.0149, 0.0, 0.0, 0.0149, -63.4, -97.55)" gradientUnits="userSpaceOnUse" id="gradient71" r="819.2" spreadMethod="pad">
      <stop offset="0.0" stop-color="#020202"/>
      <stop offset="1.0" stop-color="#020202"/>
    </radialGradient>
    <radialGradient cx="0" cy="0" gradientTransform="matrix(0.0131, 0.0, 0.0, 0.0131, -60.8, -96.4)" gradientUnits="userSpaceOnUse" id="gradient72" r="819.2" spreadMethod="pad">
      <stop offset="0.0" stop-color="#020202"/>
      <stop offset="1.0" stop-color="#020202"/>
    </radialGradient>
    <radialGradient cx="0" cy="0" gradientTransform="matrix(0.0121, 0.0, 0.0, 0.0121, -57.05, -95.85)" gradientUnits="userSpaceOnUse" id="gradient73" r="819.2" spreadMethod="pad">
      <stop offset="0.0" stop-color="#020202"/>
      <stop offset="1.0" stop-color="#020202"/>
    </radialGradient>
    <radialGradient cx="0" cy="0" gradientTransform="matrix(0.012, 0.0, 0.0, 0.012, -54.0, -96.25)" gradientUnits="userSpaceOnUse" id="gradient74" r="819.2" spreadMethod="pad">
      <stop offset="0.0" stop-color="#020202"/>
      <stop offset="1.0" stop-color="#020202"/>
    </radialGradient>
    <radialGradient cx="0" cy="0" gradientTransform="matrix(0.0112, 0.0, 0.0, 0.0112, -50.85, -95.85)" gradientUnits="userSpaceOnUse" id="gradient75" r="819.2" spreadMethod="pad">
      <stop offset="0.0" stop-color="#020202"/>
      <stop offset="1.0" stop-color="#020202"/>
    </radialGradient>
    <radialGradient cx="0" cy="0" gradientTransform="matrix(0.011, 0.0, 0.0, 0.011, -47.65, -96.0)" gradientUnits="userSpaceOnUse" id="gradient76" r="819.2" spreadMethod="pad">
      <stop offset="0.0" stop-color="#020202"/>
      <stop offset="1.0" stop-color="#020202"/>
    </radialGradient>
    <radialGradient cx="0" cy="0" gradientTransform="matrix(0.0312, 0.0, 0.0, 0.0312, -45.3, -112.9)" gradientUnits="userSpaceOnUse" id="gradient77" r="819.2" spreadMethod="pad">
      <stop offset="0.0" stop-color="#020202"/>
      <stop offset="1.0" stop-color="#020202"/>
    </radialGradient>
    <radialGradient cx="0" cy="0" gradientTransform="matrix(0.0188, 0.0, 0.0, 0.0188, -13.35, -106.2)" gradientUnits="userSpaceOnUse" id="gradient78" r="819.2" spreadMethod="pad">
      <stop offset="0.0" stop-color="#171717"/>
      <stop offset="1.0" stop-color="#171717"/>
    </radialGradient>
    <radialGradient cx="0" cy="0" gradientTransform="matrix(0.0187, 0.0, 0.0, 0.0187, -14.3, -106.15)" gradientUnits="userSpaceOnUse" id="gradient79" r="819.2" spreadMethod="pad">
      <stop offset="0.0" stop-color="#171717"/>
      <stop offset="1.0" stop-color="#171717"/>
    </radialGradient>
    <radialGradient cx="0" cy="0" gradientTransform="matrix(0.0206, 0.0, 0.0, 0.0206, -16.2, -101.55)" gradientUnits="userSpaceOnUse" id="gradient80" r="819.2" spreadMethod="pad">
      <stop offset="0.0" stop-color="#2e2e2e"/>
      <stop offset="1.0" stop-color="#282828"/>
    </radialGradient>
    <radialGradient cx="0" cy="0" gradientTransform="matrix(0.0213, 0.0, 0.0, 0.0213, -16.85, -104.3)" gradientUnits="userSpaceOnUse" id="gradient81" r="819.2" spreadMethod="pad">
      <stop offset="0.0" stop-color="#202020"/>
      <stop offset="1.0" stop-color="#040404"/>
    </radialGradient>
    <radialGradient cx="0" cy="0" gradientTransform="matrix(0.0272, 0.0, 0.0, 0.0272, -265.35, -80.2)" gradientUnits="userSpaceOnUse" id="gradient82" r="819.2" spreadMethod="pad">
      <stop offset="0.0" stop-color="#000000"/>
      <stop offset="1.0" stop-color="#000000"/>
    </radialGradient>
    <radialGradient cx="0" cy="0" gradientTransform="matrix(0.0944, 0.0, 0.0, 0.0944, -247.7, -36.4)" gradientUnits="userSpaceOnUse" id="gradient83" r="819.2" spreadMethod="pad">
      <stop offset="0.0" stop-color="#616161"/>
      <stop offset="1.0" stop-color="#000000"/>
    </radialGradient>
    <radialGradient cx="0" cy="0" gradientTransform="matrix(0.0138, 0.0, 0.0, 0.0138, -262.7, -49.85)" gradientUnits="userSpaceOnUse" id="gradient84" r="819.2" spreadMethod="pad">
      <stop offset="0.0" stop-color="#595959"/>
      <stop offset="1.0" stop-color="#000000"/>
    </radialGradient>
    <radialGradient cx="0" cy="0" gradientTransform="matrix(0.0157, 0.0, 0.0, 0.0157, -71.85, -102.8)" gradientUnits="userSpaceOnUse" id="gradient85" r="819.2" spreadMethod="pad">
      <stop offset="0.0" stop-color="#212121"/>
      <stop offset="1.0" stop-color="#202020"/>
    </radialGradient>
    <radialGradient cx="0" cy="0" gradientTransform="matrix(0.0354, 0.0, 0.0, 0.0354, -70.45, -84.8)" gradientUnits="userSpaceOnUse" id="gradient86" r="819.2" spreadMethod="pad">
      <stop offset="0.0" stop-color="#1f1f1f"/>
      <stop offset="1.0" stop-color="#1e1e1e"/>
    </radialGradient>
    <radialGradient cx="0" cy="0" gradientTransform="matrix(0.0262, 0.0, 0.0, 0.0262, -81.35, -101.05)" gradientUnits="userSpaceOnUse" id="gradient87" r="819.2" spreadMethod="pad">
      <stop offset="0.0" stop-color="#828282"/>
      <stop offset="1.0" stop-color="#3d3d3d"/>
    </radialGradient>
    <radialGradient cx="0" cy="0" gradientTransform="matrix(0.0023, 0.0, 0.0, 0.0023, -47.05, -98.3)" gradientUnits="userSpaceOnUse" id="gradient88" r="819.2" spreadMethod="pad">
      <stop offset="0.0" stop-color="#020202"/>
      <stop offset="1.0" stop-color="#020202"/>
    </radialGradient>
    <radialGradient cx="0" cy="0" gradientTransform="matrix(0.0205, 0.0, 0.0, 0.0205, -47.3, -97.85)" gradientUnits="userSpaceOnUse" id="gradient89" r="819.2" spreadMethod="pad">
      <stop offset="0.0" stop-color="#212121"/>
      <stop offset="1.0" stop-color="#141414"/>
    </radialGradient>
    <radialGradient cx="0" cy="0" gradientTransform="matrix(0.0195, 0.0, 0.0, 0.0195, -76.8, -98.7)" gradientUnits="userSpaceOnUse" id="gradient90" r="819.2" spreadMethod="pad">
      <stop offset="0.0" stop-color="#818181"/>
      <stop offset="1.0" stop-color="#666666"/>
    </radialGradient>
    <radialGradient cx="0" cy="0" gradientTransform="matrix(0.0188, 0.0, 0.0, 0.0188, -79.5, -82.8)" gradientUnits="userSpaceOnUse" id="gradient91" r="819.2" spreadMethod="pad">
      <stop offset="0.0" stop-color="#090909"/>
      <stop offset="1.0" stop-color="#090909"/>
    </radialGradient>
    <radialGradient cx="0" cy="0" gradientTransform="matrix(0.0185, 0.0, 0.0, 0.0185, -14.9, -82.9)" gradientUnits="userSpaceOnUse" id="gradient92" r="819.2" spreadMethod="pad">
      <stop offset="0.0" stop-color="#060606"/>
      <stop offset="1.0" stop-color="#060606"/>
    </radialGradient>
    <radialGradient cx="0" cy="0" gradientTransform="matrix(0.0189, 0.0, 0.0, 0.0189, -10.4, -68.1)" gradientUnits="userSpaceOnUse" id="gradient93" r="819.2" spreadMethod="pad">
      <stop offset="0.0" stop-color="#060606"/>
      <stop offset="1.0" stop-color="#060606"/>
    </radialGradient>
    <radialGradient cx="0" cy="0" gradientTransform="matrix(0.021, 0.0, 0.0, 0.021, -14.0, -82.8)" gradientUnits="userSpaceOnUse" id="gradient94" r="819.2" spreadMethod="pad">
      <stop offset="0.0" stop-color="#3c3c3c"/>
      <stop offset="1.0" stop-color="#242424"/>
    </radialGradient>
    <radialGradient cx="0" cy="0" gradientTransform="matrix(0.0212, 0.0, 0.0, 0.0212, -7.1, -66.35)" gradientUnits="userSpaceOnUse" id="gradient95" r="819.2" spreadMethod="pad">
      <stop offset="0.0" stop-color="#171717"/>
      <stop offset="1.0" stop-color="#171717"/>
    </radialGradient>
    <radialGradient cx="0" cy="0" gradientTransform="matrix(0.0405, 0.0, 0.0, 0.0405, -53.5, -64.25)" gradientUnits="userSpaceOnUse" id="gradient96" r="819.2" spreadMethod="pad">
      <stop offset="0.0" stop-color="#030303"/>
      <stop offset="1.0" stop-color="#030303"/>
    </radialGradient>
    <radialGradient cx="0" cy="0" gradientTransform="matrix(0.0338, 0.0, 0.0, 0.0338, -53.5, -64.25)" gradientUnits="userSpaceOnUse" id="gradient97" r="819.2" spreadMethod="pad">
      <stop offset="0.0" stop-color="#212121"/>
      <stop offset="1.0" stop-color="#090909"/>
    </radialGradient>
    <radialGradient cx="0" cy="0" gradientTransform="matrix(0.1329, 0.0, 0.0, 0.1329, -139.35, -25.05)" gradientUnits="userSpaceOnUse" id="gradient98" r="819.2" spreadMethod="pad">
      <stop offset="0.0" stop-color="#1d1d1d"/>
      <stop offset="1.0" stop-color="#060606"/>
    </radialGradient>
    <radialGradient cx="0" cy="0" gradientTransform="matrix(0.0354, 0.0, 0.0, 0.0354, -149.7, -30.3)" gradientUnits="userSpaceOnUse" id="gradient99" r="819.2" spreadMethod="pad">
      <stop offset="0.0" stop-color="#484848"/>
      <stop offset="1.0" stop-color="#000000"/>
    </radialGradient>
    <radialGradient cx="0" cy="0" gradientTransform="matrix(0.084, 0.0, 0.0, 0.084, -203.25, -73.5)" gradientUnits="userSpaceOnUse" id="gradient100" r="819.2" spreadMethod="pad">
      <stop offset="0.0" stop-color="#686868"/>
      <stop offset="1.0" stop-color="#181818"/>
    </radialGradient>
    <radialGradient cx="0" cy="0" gradientTransform="matrix(0.0226, 0.0, 0.0, 0.0226, -18.5, -79.5)" gradientUnits="userSpaceOnUse" id="gradient101" r="819.2" spreadMethod="pad">
      <stop offset="0.0" stop-color="#616161"/>
      <stop offset="1.0" stop-color="#232323"/>
    </radialGradient>
    <radialGradient cx="0" cy="0" gradientTransform="matrix(0.0274, 0.0, 0.0, 0.0274, -19.0, -78.9)" gradientUnits="userSpaceOnUse" id="gradient102" r="819.2" spreadMethod="pad">
      <stop offset="0.0" stop-color="#313131"/>
      <stop offset="1.0" stop-color="#0b0b0b"/>
    </radialGradient>
    <radialGradient cx="0" cy="0" gradientTransform="matrix(0.0222, 0.0, 0.0, 0.0222, -16.95, -80.55)" gradientUnits="userSpaceOnUse" id="gradient103" r="819.2" spreadMethod="pad">
      <stop offset="0.0" stop-color="#6f6f6f"/>
      <stop offset="1.0" stop-color="#313131"/>
    </radialGradient>
    <radialGradient cx="0" cy="0" gradientTransform="matrix(0.0331, 0.0, 0.0, 0.0331, -1.25, -92.6)" gradientUnits="userSpaceOnUse" id="gradient104" r="819.2" spreadMethod="pad">
      <stop offset="0.0" stop-color="#313131"/>
      <stop offset="1.0" stop-color="#1a1a1a"/>
    </radialGradient>
    <radialGradient cx="0" cy="0" gradientTransform="matrix(0.0085, 0.0, 0.0, 0.0085, -8.0, -64.25)" gradientUnits="userSpaceOnUse" id="gradient105" r="819.2" spreadMethod="pad">
      <stop offset="0.0" stop-color="#0b0b0b"/>
      <stop offset="1.0" stop-color="#0b0b0b"/>
    </radialGradient>
    <radialGradient cx="0" cy="0" gradientTransform="matrix(0.0211, 0.0, 0.0, 0.0211, -15.75, -59.95)" gradientUnits="userSpaceOnUse" id="gradient106" r="819.2" spreadMethod="pad">
      <stop offset="0.0" stop-color="#131313"/>
      <stop offset="1.0" stop-color="#121212"/>
    </radialGradient>
    <radialGradient cx="0" cy="0" gradientTransform="matrix(0.0201, 0.0, 0.0, 0.0201, -13.95, -63.3)" gradientUnits="userSpaceOnUse" id="gradient107" r="819.2" spreadMethod="pad">
      <stop offset="0.0" stop-color="#010101"/>
      <stop offset="1.0" stop-color="#010101"/>
    </radialGradient>
    <radialGradient cx="0" cy="0" gradientTransform="matrix(0.0498, 0.0, 0.0, 0.0498, -16.55, -56.95)" gradientUnits="userSpaceOnUse" id="gradient108" r="819.2" spreadMethod="pad">
      <stop offset="0.0" stop-color="#010101"/>
      <stop offset="1.0" stop-color="#010101"/>
    </radialGradient>
    <radialGradient cx="0" cy="0" gradientTransform="matrix(0.0195, 0.0, 0.0, 0.0195, -4.65, -72.45)" gradientUnits="userSpaceOnUse" id="gradient109" r="819.2" spreadMethod="pad">
      <stop offset="0.0" stop-color="#121212"/>
      <stop offset="1.0" stop-color="#121212"/>
    </radialGradient>
    <radialGradient cx="0" cy="0" gradientTransform="matrix(0.0284, 0.0, 0.0, 0.0284, -1.95, -43.1)" gradientUnits="userSpaceOnUse" id="gradient110" r="819.2" spreadMethod="pad">
      <stop offset="0.0" stop-color="#101010"/>
      <stop offset="1.0" stop-color="#101010"/>
    </radialGradient>
    <radialGradient cx="0" cy="0" gradientTransform="matrix(0.0219, 0.0, 0.0, 0.0219, -16.95, -60.75)" gradientUnits="userSpaceOnUse" id="gradient111" r="819.2" spreadMethod="pad">
      <stop offset="0.0" stop-color="#313131"/>
      <stop offset="1.0" stop-color="#2e2e2e"/>
    </radialGradient>
    <radialGradient cx="0" cy="0" gradientTransform="matrix(0.0596, 0.0, 0.0, 0.0596, -9.2, -18.35)" gradientUnits="userSpaceOnUse" id="gradient112" r="819.2" spreadMethod="pad">
      <stop offset="0.0" stop-color="#323232"/>
      <stop offset="1.0" stop-color="#292929"/>
    </radialGradient>
    <radialGradient cx="0" cy="0" gradientTransform="matrix(0.054, 0.0, 0.0, 0.054, -38.6, -28.65)" gradientUnits="userSpaceOnUse" id="gradient113" r="819.2" spreadMethod="pad">
      <stop offset="0.0" stop-color="#868686"/>
      <stop offset="1.0" stop-color="#010101"/>
    </radialGradient>
    <radialGradient cx="0" cy="0" gradientTransform="matrix(0.0449, 0.0, 0.0, 0.0449, -396.85, -15.85)" gradientUnits="userSpaceOnUse" id="gradient114" r="819.2" spreadMethod="pad">
      <stop offset="0.0" stop-color="#393939"/>
      <stop offset="1.0" stop-color="#000000"/>
    </radialGradient>
    <radialGradient cx="0" cy="0" gradientTransform="matrix(0.0221, 0.0, 0.0, 0.0221, -390.1, -2.25)" gradientUnits="userSpaceOnUse" id="gradient115" r="819.2" spreadMethod="pad">
      <stop offset="0.0" stop-color="#3f3f3f"/>
      <stop offset="1.0" stop-color="#0c0c0c"/>
    </radialGradient>
    <radialGradient cx="0" cy="0" gradientTransform="matrix(0.0274, 0.0, 0.0, 0.0274, -361.65, -1.0)" gradientUnits="userSpaceOnUse" id="gradient116" r="819.2" spreadMethod="pad">
      <stop offset="0.0" stop-color="#202020"/>
      <stop offset="1.0" stop-color="#000000"/>
    </radialGradient>
    <radialGradient cx="0" cy="0" gradientTransform="matrix(0.0195, 0.0, 0.0, 0.0195, -243.75, -14.75)" gradientUnits="userSpaceOnUse" id="gradient117" r="819.2" spreadMethod="pad">
      <stop offset="0.0" stop-color="#3e3e3e"/>
      <stop offset="1.0" stop-color="#343434"/>
    </radialGradient>
    <radialGradient cx="0" cy="0" gradientTransform="matrix(0.0125, 0.0, 0.0, 0.0125, -6.85, -17.25)" gradientUnits="userSpaceOnUse" id="gradient118" r="819.2" spreadMethod="pad">
      <stop offset="0.0" stop-color="#040404"/>
      <stop offset="1.0" stop-color="#040404"/>
    </radialGradient>
    <radialGradient cx="0" cy="0" gradientTransform="matrix(0.0111, 0.0, 0.0, 0.0111, -6.4, -16.05)" gradientUnits="userSpaceOnUse" id="gradient119" r="819.2" spreadMethod="pad">
      <stop offset="0.0" stop-color="#323232"/>
      <stop offset="1.0" stop-color="#1d1d1d"/>
    </radialGradient>
    <radialGradient cx="0" cy="0" gradientTransform="matrix(0.0146, 0.0, 0.0, 0.0146, -8.15, -18.1)" gradientUnits="userSpaceOnUse" id="gradient120" r="819.2" spreadMethod="pad">
      <stop offset="0.0" stop-color="#0e0e0e"/>
      <stop offset="1.0" stop-color="#0b0b0b"/>
    </radialGradient>
    <radialGradient cx="0" cy="0" gradientTransform="matrix(0.1258, 0.0, 0.0, 0.1258, -19.2, -19.8)" gradientUnits="userSpaceOnUse" id="gradient121" r="819.2" spreadMethod="pad">
      <stop offset="0.0" stop-color="#151515"/>
      <stop offset="1.0" stop-color="#000000"/>
    </radialGradient>
    <radialGradient cx="0" cy="0" gradientTransform="matrix(0.0435, 0.0, 0.0, 0.0435, -110.2, -1.0)" gradientUnits="userSpaceOnUse" id="gradient122" r="819.2" spreadMethod="pad">
      <stop offset="0.0" stop-color="#000000"/>
      <stop offset="1.0" stop-color="#000000"/>
    </radialGradient>
    <radialGradient cx="0" cy="0" gradientTransform="matrix(0.066, 0.0, 0.0, 0.066, -173.65, -13.95)" gradientUnits="userSpaceOnUse" id="gradient123" r="819.2" spreadMethod="pad">
      <stop offset="0.0" stop-color="#000000"/>
      <stop offset="1.0" stop-color="#000000"/>
    </radialGradient>
  </defs>
</svg>
