<?xml version="1.0" encoding="UTF-8" standalone="no"?>
<svg xmlns:xlink="http://www.w3.org/1999/xlink" height="299.1px" width="399.1px" xmlns="http://www.w3.org/2000/svg">
  <g transform="matrix(1.0, 0.0, 0.0, 1.0, 400.0, 300.0)">
    <path d="M-369.25 -300.0 L-372.0 -283.15 -377.0 -277.25 -385.75 -261.15 -389.9 -247.25 -400.0 -247.25 -399.9 -274.15 -377.65 -300.0 -369.25 -300.0 M-391.75 -214.25 L-390.75 -204.65 -384.5 -185.75 -375.4 -169.75 -372.75 -166.5 -370.5 -153.9 -371.0 -154.15 -380.15 -167.25 -392.15 -168.15 -396.9 -183.75 -400.0 -186.4 -400.0 -214.75 -391.75 -214.25" fill="url(#gradient0)" fill-rule="evenodd" stroke="none"/>
    <path d="M-369.25 -300.0 L-222.0 -300.0 -202.9 -275.9 -195.15 -255.0 -191.4 -243.15 -189.0 -219.0 -192.4 -194.5 -193.9 -189.65 -204.9 -163.4 -231.0 -134.0 Q-240.65 -133.15 -242.4 -135.0 L-247.75 -144.9 -260.65 -139.75 -264.9 -138.15 -265.4 -138.25 -287.0 -155.4 -327.0 -178.25 -352.15 -212.0 -359.4 -221.75 -355.65 -246.65 -352.15 -269.25 -352.4 -269.4 -366.9 -246.5 -380.9 -222.5 -380.9 -225.4 -378.5 -240.75 -378.0 -243.9 -372.0 -283.15 -369.25 -300.0 M-248.65 -154.65 L-266.9 -154.75 -265.15 -139.15 -264.75 -138.4 -248.65 -154.65" fill="url(#gradient1)" fill-rule="evenodd" stroke="none"/>
    <path d="M-372.0 -283.15 L-378.0 -243.9 -380.15 -246.0 -383.65 -247.0 -387.4 -247.25 -389.9 -247.25 -385.75 -261.15 -377.0 -277.25 -372.0 -283.15 M-366.9 -246.5 L-352.4 -269.4 -352.15 -269.25 -355.65 -246.65 -366.9 -246.5 M-352.15 -212.0 L-327.0 -178.25 -287.0 -155.4 -265.4 -138.25 -264.9 -138.15 -260.65 -139.75 -267.4 -136.4 -279.4 -133.5 -280.0 -133.25 -285.9 -132.0 -291.75 -131.4 -299.15 -131.4 -299.25 -131.0 -308.15 -131.4 -314.15 -132.15 -320.9 -133.75 Q-351.25 -139.75 -372.75 -166.5 L-375.4 -169.75 -384.5 -185.75 -390.75 -204.65 -391.75 -214.25 -384.25 -213.9 -380.4 -213.75 -376.65 -219.4 -371.5 -212.9 -352.15 -212.0 M-348.5 -164.9 L-348.65 -165.4 -356.65 -170.15 -358.5 -170.9 -363.25 -170.65 -366.25 -171.75 -368.9 -171.4 -372.25 -168.25 -372.4 -167.9 -369.9 -167.65 -369.75 -167.5 -349.75 -164.9 -348.5 -164.9 M-371.15 -166.75 L-369.65 -165.25 -365.15 -162.4 -363.15 -161.4 -362.9 -161.25 -362.65 -161.15 -362.4 -161.0 -360.0 -159.9 -359.75 -159.75 -358.0 -159.0 -357.65 -158.9 -357.4 -158.9 -353.9 -158.75 -349.15 -160.5 -347.4 -161.9 -346.75 -164.25 -357.75 -165.75 -361.15 -165.75 -363.0 -166.5 -370.75 -167.5 -371.25 -167.15 -371.15 -166.75 M-248.65 -154.65 L-264.75 -138.4 -265.15 -139.15 -266.9 -154.75 -248.65 -154.65" fill="url(#gradient2)" fill-rule="evenodd" stroke="none"/>
    <path d="M-378.5 -240.75 L-380.9 -225.4 -380.9 -222.5 -366.9 -246.5 -355.65 -246.65 -359.4 -221.75 -352.15 -212.0 -371.5 -212.9 -376.65 -219.4 -377.65 -220.9 -378.75 -222.25 -379.65 -220.9 -384.25 -213.9 -391.75 -214.25 -400.0 -214.75 -400.0 -247.25 -389.9 -247.25 -387.4 -247.25 -383.5 -246.15 -379.0 -240.65 -378.5 -240.75" fill="url(#gradient3)" fill-rule="evenodd" stroke="none"/>
    <path d="M-377.65 -300.0 L-399.9 -274.15 -400.0 -283.0 -389.75 -300.0 -377.65 -300.0" fill="url(#gradient4)" fill-rule="evenodd" stroke="none"/>
    <path d="M-387.4 -247.25 L-383.65 -247.0 -380.15 -246.0 -383.5 -246.15 -387.4 -247.25" fill="url(#gradient5)" fill-rule="evenodd" stroke="none"/>
    <path d="M-378.0 -243.9 L-378.5 -240.75 -379.0 -240.65 -383.5 -246.15 -380.15 -246.0 -378.0 -243.9" fill="url(#gradient6)" fill-rule="evenodd" stroke="none"/>
    <path d="M-379.65 -220.9 L-378.75 -222.25 -377.65 -220.9 -379.65 -220.9" fill="url(#gradient7)" fill-rule="evenodd" stroke="none"/>
    <path d="M-376.65 -219.4 L-380.4 -213.75 -384.25 -213.9 -379.65 -220.9 -377.65 -220.9 -376.65 -219.4" fill="url(#gradient8)" fill-rule="evenodd" stroke="none"/>
    <path d="M-348.5 -164.9 L-349.75 -164.9 -369.75 -167.5 -369.9 -167.65 -372.4 -167.9 -372.25 -168.25 -368.9 -171.4 -366.25 -171.75 -363.25 -170.65 -358.5 -170.9 -356.65 -170.15 -348.65 -165.4 -348.5 -164.9 M-359.4 -170.15 L-361.75 -170.25 -363.65 -169.75 -366.15 -170.9 -367.65 -171.0 Q-368.75 -171.65 -371.75 -168.0 L-369.9 -167.65 -350.75 -165.25 -356.75 -169.15 -359.4 -170.15" fill="url(#gradient9)" fill-rule="evenodd" stroke="none"/>
    <path d="M-359.4 -170.15 L-356.75 -169.15 -350.75 -165.25 -369.9 -167.65 -371.75 -168.0 Q-368.75 -171.65 -367.65 -171.0 L-366.15 -170.9 -363.65 -169.75 -361.75 -170.25 -359.4 -170.15" fill="url(#gradient10)" fill-rule="evenodd" stroke="none"/>
    <path d="M-357.4 -158.9 L-357.65 -158.9 -358.0 -159.0 -359.75 -159.75 -360.0 -159.9 -362.4 -161.0 -362.65 -161.15 -362.9 -161.25 -363.15 -161.4 -365.15 -162.4 -369.65 -165.25 -371.15 -166.75 -347.75 -163.5 Q-349.75 -158.9 -357.4 -158.9" fill="url(#gradient11)" fill-rule="evenodd" stroke="none"/>
    <path d="M-371.15 -166.75 L-371.25 -167.15 -370.75 -167.5 -363.0 -166.5 -361.15 -165.75 -357.75 -165.75 -346.75 -164.25 -347.4 -161.9 -349.15 -160.5 -353.9 -158.75 -357.4 -158.9 Q-349.75 -158.9 -347.75 -163.5 L-371.15 -166.75" fill="url(#gradient12)" fill-rule="evenodd" stroke="none"/>
    <path d="M-320.9 -133.75 L-314.15 -132.15 -308.15 -131.4 -299.25 -131.0 -293.5 -126.4 -293.4 -124.65 -295.75 -119.9 -302.4 -107.4 -319.15 -107.4 -342.0 -112.4 -338.15 -115.5 -338.0 -115.5 -332.9 -119.5 -331.75 -120.5 -331.25 -121.0 -331.25 -121.15 -321.5 -130.4 -320.9 -133.75" fill="url(#gradient13)" fill-rule="evenodd" stroke="none"/>
    <path d="M-359.4 -111.0 L-341.15 -119.4 -331.25 -121.15 -331.25 -121.0 -331.75 -120.5 -333.65 -120.0 -332.9 -119.5 -338.0 -115.5 -338.15 -115.5 -351.25 -114.0 -359.4 -111.0" fill="url(#gradient14)" fill-rule="evenodd" stroke="none"/>
    <path d="M-361.5 -109.65 L-361.4 -110.15 -359.4 -111.0 -351.25 -114.0 -356.15 -96.9 -355.75 -80.65 -357.4 -77.65 -365.4 -89.0 -361.5 -109.65" fill="url(#gradient15)" fill-rule="evenodd" stroke="none"/>
    <path d="M-342.0 -112.4 L-343.0 -109.65 -356.15 -96.9 -351.25 -114.0 -338.15 -115.5 -342.0 -112.4" fill="url(#gradient16)" fill-rule="evenodd" stroke="none"/>
    <path d="M-332.9 -119.5 L-333.65 -120.0 -331.75 -120.5 -332.9 -119.5" fill="url(#gradient17)" fill-rule="evenodd" stroke="none"/>
    <path d="M-279.4 -133.5 L-279.3 -132.65 -279.15 -130.75 -279.9 -130.25 -280.0 -133.25 -279.4 -133.5" fill="url(#gradient18)" fill-rule="evenodd" stroke="none"/>
    <path d="M-291.75 -131.4 L-285.9 -132.0 -280.0 -133.25 -279.9 -130.25 -284.15 -129.65 -284.25 -129.25 -281.15 -124.25 Q-280.9 -123.25 -284.25 -121.65 L-291.0 -121.15 -293.4 -124.65 -293.5 -126.4 -291.75 -131.4" fill="url(#gradient19)" fill-rule="evenodd" stroke="none"/>
    <path d="M-299.25 -131.0 L-299.15 -131.4 -291.75 -131.4 -293.5 -126.4 -299.25 -131.0" fill="url(#gradient20)" fill-rule="evenodd" stroke="none"/>
    <path d="M-279.3 -132.65 Q-278.7 -130.95 -275.0 -127.0 L-266.75 -121.65 -250.75 -115.0 -255.25 -112.75 -255.75 -112.75 -295.75 -119.9 -293.4 -124.65 -291.0 -121.15 -284.25 -121.65 Q-280.9 -123.25 -281.15 -124.25 L-284.25 -129.25 -284.15 -129.65 -279.9 -130.25 -279.15 -130.75 -279.3 -132.65" fill="url(#gradient21)" fill-rule="evenodd" stroke="none"/>
    <path d="M-250.75 -115.0 L-250.25 -114.0 -249.15 -108.15 -255.25 -112.75 -250.75 -115.0" fill="url(#gradient22)" fill-rule="evenodd" stroke="none"/>
    <path d="M-249.15 -108.15 L-218.25 -83.5 -234.0 -87.4 -239.75 -85.75 -250.15 -76.25 -262.5 -99.75 -263.15 -100.25 -302.4 -107.4 -255.75 -112.75 -255.25 -112.75 -249.15 -108.15" fill="url(#gradient23)" fill-rule="evenodd" stroke="none"/>
    <path d="M-302.4 -107.4 L-295.75 -119.9 -255.75 -112.75 -302.4 -107.4" fill="url(#gradient24)" fill-rule="evenodd" stroke="none"/>
    <path d="M-16.5 -118.5 L-17.0 -118.15 -18.75 -118.25 -7.5 -126.75 -5.5 -126.75 -14.9 -119.75 -15.15 -119.5 -15.4 -119.4 -16.4 -118.65 -16.5 -118.5" fill="url(#gradient25)" fill-rule="evenodd" stroke="none"/>
    <path d="M-16.65 -118.25 L-16.5 -118.5 -16.4 -118.65 -15.4 -119.4 -15.15 -119.5 -14.9 -119.75 -5.5 -126.75 -0.9 -127.5 -0.9 -120.75 -16.65 -118.25" fill="url(#gradient26)" fill-rule="evenodd" stroke="none"/>
    <path d="M-15.4 -117.15 L-16.65 -118.25 -0.9 -120.75 -0.9 -117.25 -14.75 -115.15 -15.4 -117.15" fill="url(#gradient27)" fill-rule="evenodd" stroke="none"/>
    <path d="M-17.0 -118.15 L-16.5 -118.5 -16.65 -118.25 -15.4 -117.15 -15.65 -117.0 -17.0 -118.15" fill="url(#gradient28)" fill-rule="evenodd" stroke="none"/>
    <path d="M-20.9 -117.75 L-10.0 -125.9 -8.25 -126.5 -8.25 -126.65 -7.5 -126.75 -18.75 -118.25 -20.25 -117.9 -20.9 -117.75" fill="url(#gradient29)" fill-rule="evenodd" stroke="none"/>
    <path d="M-37.5 -114.5 L-37.5 -114.65 -26.5 -122.4 -26.5 -122.5 -26.15 -122.65 -25.75 -122.9 -8.25 -126.65 -8.25 -126.5 -10.0 -125.9 -20.9 -117.75 -37.5 -114.5" fill="url(#gradient30)" fill-rule="evenodd" stroke="none"/>
    <path d="M-26.5 -122.5 L-26.5 -122.4 -37.5 -114.65 -37.5 -114.5 -37.75 -114.4 -38.4 -114.0 -45.4 -113.4 -35.4 -120.4 -35.4 -120.5 -33.4 -121.75 -26.5 -122.5" fill="url(#gradient31)" fill-rule="evenodd" stroke="none"/>
    <path d="M-35.4 -120.5 L-35.4 -120.4 -45.4 -113.4 -47.4 -112.0 -53.9 -111.15 -41.9 -119.5 -35.4 -120.5" fill="url(#gradient32)" fill-rule="evenodd" stroke="none"/>
    <path d="M-43.75 -120.5 L-41.9 -119.5 -53.9 -111.15 -54.25 -111.0 -56.15 -112.25 -43.75 -120.5" fill="url(#gradient33)" fill-rule="evenodd" stroke="none"/>
    <path d="M-56.15 -112.25 L-60.5 -114.25 -48.25 -122.25 -48.4 -122.5 -43.75 -120.5 -56.15 -112.25" fill="url(#gradient34)" fill-rule="evenodd" stroke="none"/>
    <path d="M-60.5 -114.25 L-63.25 -113.9 -51.5 -121.75 -48.4 -122.5 -48.25 -122.25 -60.5 -114.25" fill="url(#gradient35)" fill-rule="evenodd" stroke="none"/>
    <path d="M-67.4 -102.4 L-67.4 -102.9 -67.25 -102.4 -67.4 -102.4 M-68.0 -101.65 L-68.25 -101.4 -68.25 -101.25 -68.15 -101.15 -68.15 -100.9 -68.4 -100.75 -71.9 -100.4 -68.4 -100.5 -68.4 -100.4 -68.5 -100.0 -68.5 -99.75 -68.65 -99.65 -68.75 -99.0 -68.75 -98.25 -68.75 -98.0 -68.9 -97.75 -69.25 -94.4 -69.15 -92.15 -68.9 -91.65 -69.25 -91.75 -69.4 -91.4 -69.15 -91.25 -69.25 -89.65 -76.25 -98.5 -74.25 -101.0 -75.75 -101.15 -74.5 -101.15 -74.4 -101.65 -68.9 -102.4 -68.25 -102.5 -68.4 -102.0 -68.0 -101.9 -68.15 -101.75 -68.0 -101.65 M-67.65 -101.4 L-67.65 -101.75 -67.5 -101.5 -67.65 -100.75 -68.15 -100.9 -67.9 -101.15 -67.75 -101.15 -67.75 -101.25 -67.65 -101.4 M-67.15 -100.9 L-67.0 -100.4 -67.15 -100.4 -67.15 -100.9 M-66.75 -86.9 L-66.65 -86.65 -67.25 -86.75 -67.15 -87.15 -66.75 -86.9 M-65.4 -84.65 L-65.25 -103.5 -65.0 -104.0 -64.5 -104.5 -63.75 -105.0 -63.5 -105.25 -63.4 -105.65 -63.5 -107.25 -63.9 -108.4 -64.0 -108.5 -64.4 -108.4 -64.5 -108.4 -63.75 -109.65 -62.5 -109.75 -62.65 -110.25 -62.75 -110.25 -63.25 -113.9 -60.5 -114.25 -56.15 -112.25 -54.25 -111.0 -53.9 -111.15 -47.4 -112.0 -45.4 -113.4 -38.4 -114.0 -38.15 -108.25 -38.4 -106.75 -38.0 -106.25 -37.4 -88.0 -39.9 -87.75 -41.0 -113.0 -42.0 -112.9 -41.0 -87.5 -43.15 -87.4 -43.5 -96.15 -44.5 -96.15 -44.25 -87.15 -46.25 -87.0 -46.65 -96.0 -47.65 -95.9 -47.4 -86.75 -49.15 -86.65 -49.15 -87.4 -49.25 -87.75 -49.75 -96.25 -50.75 -96.4 -50.25 -86.5 -52.65 -86.15 -52.65 -86.65 -52.75 -87.25 -52.9 -95.9 -53.9 -95.9 -53.5 -86.15 -56.0 -85.75 -56.15 -89.15 -56.25 -89.5 -56.75 -96.4 -57.75 -96.4 -57.15 -86.15 -56.65 -85.75 -59.25 -85.4 -59.0 -86.25 -59.4 -97.5 -60.25 -97.5 -60.4 -95.4 -60.15 -85.4 -59.75 -85.4 -65.4 -84.65 M-17.0 -118.15 L-15.65 -117.0 -12.5 -104.5 -12.4 -104.4 -12.4 -104.15 -12.75 -91.65 -12.5 -91.15 -11.9 -91.75 -11.75 -91.5 -11.75 -91.15 -11.65 -91.15 -16.15 -90.5 -16.15 -90.9 -16.25 -94.9 -16.5 -104.15 -17.0 -104.25 -13.15 -104.9 -13.4 -105.5 -14.15 -108.5 -14.25 -108.75 -14.25 -109.0 -14.4 -109.25 -16.4 -116.9 -17.15 -117.25 -17.4 -117.4 -18.5 -117.75 -19.25 -117.75 -19.75 -117.9 -20.25 -117.9 -18.75 -118.25 -17.0 -118.15 M-30.25 -102.5 L-27.9 -102.9 -27.65 -89.15 -29.75 -88.9 -30.25 -102.5 M-26.9 -103.0 L-24.5 -103.25 -24.15 -100.65 -24.4 -98.65 -24.15 -89.65 -26.4 -89.4 -26.5 -90.4 -26.9 -103.0 M-23.25 -103.5 L-20.25 -103.9 -17.4 -104.25 -17.4 -90.4 -19.5 -90.15 -19.5 -90.9 -19.65 -91.5 -20.0 -103.0 -20.25 -103.9 -21.0 -103.65 -20.75 -90.0 -22.9 -89.75 -23.25 -103.5 M-12.15 -103.65 L-11.9 -102.15 -12.15 -101.0 -12.15 -103.65 M-12.0 -98.0 L-12.4 -98.15 -12.25 -98.9 -12.0 -98.0 M-11.9 -93.15 L-12.15 -92.75 -11.9 -93.4 -11.9 -93.15 M-12.15 -95.25 L-11.9 -96.15 -11.9 -95.4 -12.15 -95.25 M-30.9 -88.75 L-33.25 -88.5 -33.75 -102.0 -33.9 -102.0 -31.25 -102.4 -30.9 -88.75 M-34.4 -88.4 L-36.15 -88.15 -36.25 -88.75 -36.25 -89.25 -36.4 -90.25 -36.65 -96.5 -36.75 -97.25 -37.0 -101.75 -34.9 -101.9 -34.4 -88.4 M-43.0 -98.75 L-44.5 -98.75 -44.75 -98.15 -44.65 -97.75 -43.25 -97.9 -42.75 -98.65 -43.0 -98.75 M-68.0 -99.4 L-68.15 -99.75 -67.75 -99.65 -68.0 -99.4 M-69.0 -101.15 L-68.75 -101.4 -69.25 -101.4 -69.0 -101.15 M-69.65 -101.15 L-69.5 -101.4 -70.25 -101.25 -69.65 -101.15 M-70.5 -101.4 L-71.25 -101.25 -70.65 -101.15 -70.5 -101.4 M-69.25 -99.9 L-69.0 -99.25 -68.75 -99.75 -69.25 -99.9 M-71.5 -95.4 L-72.15 -95.75 -72.65 -95.4 -71.5 -95.4 M-71.5 -94.5 L-71.5 -94.25 -71.0 -93.25 -70.75 -93.75 -70.4 -93.65 -70.5 -94.0 -70.9 -94.25 -71.5 -94.5 M-74.25 -98.0 L-74.15 -98.25 -74.5 -98.15 -74.25 -98.0 M-73.75 -96.15 L-73.5 -96.5 -72.5 -96.65 -74.25 -96.65 -73.75 -96.15 M-71.65 -99.5 L-71.4 -99.9 -71.9 -99.75 -71.65 -99.5 M-73.15 -99.25 L-73.0 -100.4 -73.65 -100.5 -74.0 -100.0 -73.4 -100.0 -73.75 -99.4 -73.15 -99.25 -72.9 -98.5 -72.25 -98.5 -72.75 -98.9 -72.15 -99.0 -73.15 -99.25 M-72.9 -101.0 L-72.65 -101.15 -72.4 -101.4 -73.15 -101.25 -72.75 -100.15 -72.4 -100.15 -72.5 -99.65 -72.15 -99.65 -72.4 -99.25 -71.75 -99.25 -72.0 -99.75 -71.75 -100.0 -72.15 -99.9 -71.9 -100.25 -72.9 -101.0 M-69.9 -98.9 L-69.25 -98.9 -69.75 -99.15 -69.9 -98.9 M-70.5 -99.15 L-69.5 -99.4 -71.15 -99.5 -71.15 -99.15 -70.5 -99.15 M-72.25 -101.25 L-68.15 -101.75 Q-72.0 -102.15 -72.25 -101.25 M-66.65 -85.9 L-66.75 -86.0 -66.65 -86.0 -66.65 -85.9 M-77.2 -101.25 L-76.75 -101.5 -76.9 -101.0 -77.15 -101.15 -77.5 -100.4 -77.65 -100.5 -77.2 -101.25 M-77.4 -99.9 L-77.25 -100.65 -77.0 -100.5 -76.75 -100.85 -77.15 -100.25 -76.75 -100.0 -77.25 -99.75 -77.4 -99.9 M-76.15 -100.75 L-76.4 -100.5 -75.9 -100.9 -76.15 -100.4 -76.4 -100.5 -76.5 -100.4 -76.5 -100.75 -76.15 -100.75 M-76.5 -99.65 L-77.0 -99.65 -76.75 -99.9 -76.5 -99.65" fill="url(#gradient36)" fill-rule="evenodd" stroke="none"/>
    <path d="M-37.5 -114.5 L-20.9 -117.75 -20.25 -117.9 -19.75 -117.9 -19.25 -117.75 -18.5 -117.75 -17.4 -117.4 -17.15 -117.25 -16.4 -116.9 -14.4 -109.25 -14.25 -109.0 -14.25 -108.75 -14.15 -108.5 -13.4 -105.5 -13.15 -104.9 -17.0 -104.25 -17.4 -104.25 -20.25 -103.9 -23.25 -103.5 -24.5 -103.25 -26.9 -103.0 -27.9 -102.9 -30.25 -102.5 -31.25 -102.4 -33.9 -102.0 -34.9 -101.9 -37.0 -101.75 -37.65 -113.65 -37.75 -114.4 -37.5 -114.5" fill="url(#gradient37)" fill-rule="evenodd" stroke="none"/>
    <path d="M-38.4 -114.0 L-37.75 -114.4 -37.65 -113.65 -37.0 -101.75 -36.75 -97.25 -36.65 -96.5 -36.4 -90.25 -36.25 -89.25 -36.25 -88.75 -36.15 -88.15 -37.4 -88.0 -38.0 -106.25 -38.4 -106.75 -38.15 -108.25 -38.4 -114.0" fill="url(#gradient38)" fill-rule="evenodd" stroke="none"/>
    <path d="M-17.0 -104.25 L-16.5 -104.15 -16.25 -94.9 -16.4 -93.75 -16.15 -90.9 -16.15 -90.5 -16.15 -90.4 -17.4 -90.4 -17.4 -104.25 -17.0 -104.25" fill="url(#gradient39)" fill-rule="evenodd" stroke="none"/>
    <path d="M-24.5 -103.25 L-23.25 -103.5 -22.9 -89.75 -22.9 -89.65 -24.15 -89.65 -24.4 -98.65 -24.15 -100.65 -24.5 -103.25" fill="url(#gradient40)" fill-rule="evenodd" stroke="none"/>
    <path d="M-27.9 -102.9 L-26.9 -103.0 -26.5 -90.4 -26.4 -89.4 -26.5 -89.15 -27.65 -89.15 -27.9 -102.9" fill="url(#gradient41)" fill-rule="evenodd" stroke="none"/>
    <path d="M-31.25 -102.4 L-30.25 -102.5 -29.75 -88.9 -30.9 -88.75 -31.25 -102.4" fill="url(#gradient42)" fill-rule="evenodd" stroke="none"/>
    <path d="M-33.25 -88.5 L-34.4 -88.4 -34.9 -101.9 -33.9 -102.0 -33.75 -102.0 -33.25 -88.5" fill="url(#gradient43)" fill-rule="evenodd" stroke="none"/>
    <path d="M-15.65 -117.0 L-15.4 -117.15 -14.75 -115.15 -12.75 -107.25 -12.5 -107.0 -12.25 -105.15 -12.5 -104.5 -15.65 -117.0" fill="url(#gradient44)" fill-rule="evenodd" stroke="none"/>
    <path d="M-11.75 -91.5 L-11.9 -91.75 -11.9 -93.15 -11.75 -91.5 M-12.25 -105.15 L-12.15 -104.75 -12.5 -104.5 -12.25 -105.15 M-12.0 -98.0 L-12.0 -100.5 -11.75 -100.65 -12.0 -97.25 -12.0 -98.0" fill="url(#gradient45)" fill-rule="evenodd" stroke="none"/>
    <path d="M-12.5 -107.0 L-12.15 -107.0 -12.0 -107.0 -11.65 -106.9 -11.5 -106.9 -8.75 -106.75 -3.15 -107.65 -2.9 -107.65 -0.9 -107.9 -0.9 -104.15 -6.4 -103.25 -9.5 -103.4 -11.0 -103.75 -12.15 -104.75 -12.25 -105.15 -12.5 -107.0" fill="url(#gradient46)" fill-rule="evenodd" stroke="none"/>
    <path d="M-12.75 -107.25 L-12.5 -107.25 -12.15 -107.0 -12.5 -107.0 -12.75 -107.25 M-11.5 -106.9 L-9.75 -106.9 -8.75 -106.75 -11.5 -106.9" fill="url(#gradient47)" fill-rule="evenodd" stroke="none"/>
    <path d="M-12.15 -107.0 L-12.5 -107.25 -12.75 -107.25 -14.75 -115.15 -0.9 -117.25 -0.9 -107.9 -2.9 -107.65 -3.15 -107.65 -4.75 -107.5 -5.25 -107.4 -5.65 -107.4 -9.75 -106.9 -11.5 -106.9 -11.65 -106.9 -12.0 -107.0 -12.15 -107.0" fill="url(#gradient48)" fill-rule="evenodd" stroke="none"/>
    <path d="M-5.65 -107.4 L-5.25 -107.4 -4.75 -107.5 -3.15 -107.65 -8.75 -106.75 -5.65 -107.4" fill="url(#gradient49)" fill-rule="evenodd" stroke="none"/>
    <path d="M-66.5 -84.75 L-65.4 -84.65 -59.75 -85.4 -59.25 -85.4 -56.65 -85.75 -56.0 -85.75 -53.5 -86.15 -52.65 -86.15 -50.25 -86.5 -49.15 -86.65 -47.4 -86.75 -46.25 -87.0 -44.25 -87.15 -43.15 -87.25 -43.15 -87.4 -41.0 -87.5 -40.65 -87.5 -39.65 -84.15 -38.9 -84.15 -38.4 -83.15 -37.5 -83.15 -37.4 -82.4 -36.15 -82.15 -36.0 -81.5 -34.9 -81.5 -25.5 -82.4 -25.0 -82.5 -25.0 -83.25 -24.0 -83.5 -24.0 -84.4 -24.15 -84.65 -22.5 -85.0 -22.65 -85.9 -21.0 -86.25 -20.0 -82.9 -16.15 -83.4 -11.25 -83.15 -13.4 -81.5 -13.4 -80.65 -14.25 -79.9 -14.4 -79.75 Q-16.0 -74.15 -12.15 -69.65 L-6.4 -66.0 -2.9 -65.75 -0.9 -66.0 -0.9 -65.15 -3.65 -65.15 -9.5 -66.25 -10.0 -66.25 -9.75 -65.25 -9.25 -65.15 -5.75 -64.15 -7.65 -64.4 -9.15 -64.75 -10.15 -64.4 -10.9 -63.5 -12.0 -62.4 -12.4 -61.75 -13.15 -61.0 -13.4 -59.65 -12.9 -57.65 -11.75 -47.75 Q-12.75 -47.4 -16.15 -50.75 L-23.0 -53.5 -29.0 -54.25 -34.25 -52.75 -34.65 -53.25 -40.5 -53.0 -51.5 -51.5 -52.9 -51.0 -53.25 -52.65 -53.5 -64.15 -54.15 -68.5 -55.75 -71.9 Q-59.0 -75.9 -62.6 -77.45 L-61.75 -77.15 -60.4 -76.5 -60.15 -76.25 -58.9 -75.5 -58.65 -75.25 -58.15 -74.9 -55.9 -72.9 Q-54.25 -71.0 -53.65 -68.4 L-53.5 -68.15 -52.9 -64.25 -49.65 -64.4 -49.75 -66.65 -49.9 -66.9 -51.75 -72.65 -54.9 -77.15 -56.0 -78.25 -56.15 -78.5 -56.5 -78.65 -56.75 -79.0 -57.25 -79.25 -57.5 -79.5 -58.75 -80.25 -59.0 -80.5 -62.9 -82.0 -65.0 -82.5 -65.4 -82.5 -66.15 -82.65 -66.5 -82.65 -67.5 -81.4 -68.5 -80.65 -68.9 -80.5 -69.9 -80.5 -70.4 -80.4 -71.25 -80.4 -71.75 -80.25 -72.65 -80.25 -73.15 -80.15 -74.15 -80.15 -74.5 -80.0 -75.5 -80.0 -79.15 -79.0 -79.9 -78.25 -79.75 -78.0 -79.75 -77.9 -79.5 -77.0 Q-81.75 -79.4 -75.5 -82.75 L-75.15 -83.0 -69.4 -85.75 -68.4 -84.9 -66.5 -84.75 M-9.75 -106.9 L-5.65 -107.4 -8.75 -106.75 -9.75 -106.9 M-9.5 -103.4 L-6.4 -103.25 -0.9 -104.15 -0.9 -103.5 -5.15 -103.0 -8.15 -103.0 -9.5 -103.4 M-10.0 -83.5 L-5.9 -85.75 -0.9 -86.4 -0.9 -85.0 -8.65 -83.65 -9.5 -80.9 Q-9.5 -77.4 -7.65 -73.65 L-3.75 -67.9 -4.15 -68.0 -4.9 -68.9 -5.15 -69.15 -6.9 -71.4 -8.4 -73.75 -9.25 -75.75 -10.15 -79.5 -10.15 -81.25 -9.65 -83.5 -10.0 -83.5 M-14.25 -79.5 L-13.9 -78.75 -13.9 -78.65 -13.0 -76.65 -12.9 -76.15 -12.5 -75.15 -11.0 -72.25 -9.4 -70.15 -8.5 -69.25 -8.0 -68.9 -7.75 -68.65 -7.65 -68.5 -9.4 -69.75 -10.75 -71.25 -11.9 -73.0 -13.25 -75.9 -14.25 -79.5 M-6.9 -68.0 L-7.0 -68.0 -7.15 -68.15 -7.4 -68.25 -7.4 -68.4 -7.25 -68.4 -7.15 -68.15 -6.9 -68.0 M-3.9 -64.0 L-4.5 -64.15 -0.9 -64.25 -3.9 -64.0 M-67.0 -78.4 L-66.15 -78.65 -64.25 -78.0 -67.0 -78.4 M-24.25 -14.9 L-21.0 -18.15 Q-9.9 -16.75 -6.25 -23.4 L-5.25 -21.9 -5.0 -19.25 -2.65 -18.4 -2.15 -17.15 Q-2.9 -16.25 -7.75 -15.0 L-24.25 -14.9" fill="url(#gradient50)" fill-rule="evenodd" stroke="none"/>
    <path d="M-62.75 -110.25 L-62.65 -110.25 -62.5 -109.75 -63.75 -109.65 -63.0 -110.25 -62.75 -110.25" fill="url(#gradient51)" fill-rule="evenodd" stroke="none"/>
    <path d="M-64.5 -108.4 L-65.15 -108.15 -65.65 -107.25 -74.4 -101.65 -76.5 -102.0 -64.15 -110.4 -63.0 -110.25 -63.75 -109.65 -64.5 -108.4" fill="url(#gradient52)" fill-rule="evenodd" stroke="none"/>
    <path d="M-68.25 -102.5 L-68.0 -101.9 -68.4 -102.0 -68.25 -102.5 M-68.15 -101.15 L-67.65 -101.4 -67.75 -101.25 -67.75 -101.15 -67.9 -101.15 -68.15 -101.15 M-74.4 -101.65 L-74.5 -101.15 -75.75 -101.15 -74.25 -101.0 -76.25 -98.5 -76.4 -98.75 -76.4 -98.9 -77.25 -99.75 -76.75 -100.0 -77.15 -100.25 -76.75 -100.85 -77.0 -100.5 -77.25 -100.65 -77.4 -99.9 -77.5 -100.4 -77.15 -101.15 -76.9 -101.0 -76.75 -101.5 -77.2 -101.25 -77.25 -101.25 -77.0 -101.65 -76.5 -102.0 -74.4 -101.65 M-68.4 -100.5 L-71.9 -100.4 -68.4 -100.75 -68.4 -100.5 M-69.65 -101.15 L-70.25 -101.25 -69.5 -101.4 -69.65 -101.15 M-69.0 -101.15 L-69.25 -101.4 -68.75 -101.4 -69.0 -101.15 M-70.5 -101.4 L-70.65 -101.15 -71.25 -101.25 -70.5 -101.4 M-69.25 -99.9 L-68.75 -99.75 -69.0 -99.25 -69.25 -99.9 M-70.5 -99.15 L-71.15 -99.15 -71.15 -99.5 -69.5 -99.4 -70.5 -99.15 M-69.9 -98.9 L-69.75 -99.15 -69.25 -98.9 -69.9 -98.9 M-72.9 -101.0 L-71.9 -100.25 -72.15 -99.9 -71.75 -100.0 -72.0 -99.75 -71.75 -99.25 -72.4 -99.25 -72.15 -99.65 -72.5 -99.65 -72.4 -100.15 -72.75 -100.15 -73.15 -101.25 -72.4 -101.4 -72.65 -101.15 -72.9 -101.0 M-73.15 -99.25 L-72.15 -99.0 -72.75 -98.9 -72.25 -98.5 -72.9 -98.5 -73.15 -99.25 -73.75 -99.4 -73.4 -100.0 -74.0 -100.0 -73.65 -100.5 -73.0 -100.4 -73.15 -99.25 M-71.65 -99.5 L-71.9 -99.75 -71.4 -99.9 -71.65 -99.5 M-73.75 -96.15 L-74.25 -96.65 -72.5 -96.65 -73.5 -96.5 -73.75 -96.15 M-74.25 -98.0 L-74.5 -98.15 -74.15 -98.25 -74.25 -98.0 M-71.5 -94.5 L-70.9 -94.25 -70.5 -94.0 -70.4 -93.65 -70.75 -93.75 -71.0 -93.25 -71.5 -94.25 -71.5 -94.5 M-71.5 -95.4 L-72.65 -95.4 -72.15 -95.75 -71.5 -95.4 M-72.25 -101.25 Q-72.0 -102.15 -68.15 -101.75 L-72.25 -101.25 M-76.5 -99.65 L-76.75 -99.9 -77.0 -99.65 -76.5 -99.65 M-76.15 -100.75 L-76.5 -100.75 -76.5 -100.4 -76.4 -100.5 -76.15 -100.4 -75.9 -100.9 -76.4 -100.5 -76.15 -100.75" fill="url(#gradient53)" fill-rule="evenodd" stroke="none"/>
    <path d="M-355.75 -80.65 L-346.4 -97.75 -346.4 -97.9 -342.9 -109.65 -343.0 -109.65 -342.0 -112.4 -319.15 -107.4 -302.4 -107.4 -302.0 -106.5 -303.65 -106.4 -301.9 -104.9 -294.75 -62.0 -297.25 -48.65 Q-298.65 -51.5 -304.0 -54.5 L-309.15 -56.75 -313.65 -57.5 -318.4 -57.75 -325.65 -57.5 -330.75 -57.9 -336.4 -56.4 -343.65 -51.5 -349.5 -44.65 -353.65 -36.15 -355.25 -28.5 -356.15 -26.5 -356.0 -24.9 -357.0 -18.15 -355.4 -5.15 -353.9 -0.9 -360.9 -0.9 -362.25 -5.4 Q-358.0 -12.65 -358.25 -21.0 L-359.5 -30.0 -355.4 -37.0 -355.0 -37.15 -354.4 -38.9 -352.25 -48.25 -351.9 -55.25 -352.75 -61.4 -353.5 -63.9 -356.0 -67.15 Q-355.25 -68.4 -355.15 -71.15 L-355.0 -75.5 -355.9 -77.65 -357.4 -77.65 -355.75 -80.65" fill="url(#gradient54)" fill-rule="evenodd" stroke="none"/>
    <path d="M-343.0 -109.65 L-342.9 -109.65 -346.4 -97.9 -346.4 -97.75 -355.75 -80.65 -356.15 -96.9 -343.0 -109.65" fill="url(#gradient55)" fill-rule="evenodd" stroke="none"/>
    <path d="M-67.65 -101.75 L-67.5 -102.25 -67.4 -102.4 -67.25 -102.0 -67.25 -102.4 -67.4 -102.9 -67.5 -102.9 -67.4 -103.25 -67.0 -103.9 -65.65 -107.25 -65.15 -108.15 -64.5 -108.4 -64.4 -108.4 -64.0 -108.5 -63.9 -108.4 -63.5 -107.25 -63.4 -105.65 -63.5 -105.25 -63.75 -105.0 -64.5 -104.5 -65.0 -104.0 -65.25 -103.5 -65.4 -84.65 -66.5 -84.75 -66.5 -85.15 -66.65 -86.4 -66.65 -86.65 -66.75 -86.9 -66.65 -88.65 -67.15 -99.9 -67.0 -99.9 -67.0 -100.4 -67.15 -100.9 -67.25 -101.5 -67.25 -101.25 -67.5 -101.5 -67.65 -101.75 M-67.25 -100.9 L-67.15 -100.4 -67.15 -99.9 -67.25 -100.9" fill="url(#gradient56)" fill-rule="evenodd" stroke="none"/>
    <path d="M-65.65 -107.25 L-67.0 -103.9 -67.4 -103.25 -68.9 -102.4 -74.4 -101.65 -65.65 -107.25" fill="url(#gradient57)" fill-rule="evenodd" stroke="none"/>
    <path d="M-67.5 -102.9 L-68.25 -102.5 -68.9 -102.4 -67.4 -103.25 -67.5 -102.9" fill="url(#gradient58)" fill-rule="evenodd" stroke="none"/>
    <path d="M-67.4 -102.4 L-67.5 -102.25 -67.65 -101.75 -67.65 -101.4 -68.15 -101.15 -68.25 -101.4 -68.0 -101.65 -68.0 -101.9 -68.25 -102.5 -67.5 -102.9 -67.4 -102.9 -67.4 -102.4 M-67.5 -101.5 L-67.25 -101.25 -67.25 -100.9 -67.15 -99.9 -66.65 -88.65 -66.75 -86.9 -67.15 -87.15 -67.25 -86.75 -66.65 -86.65 -66.65 -86.4 -66.75 -86.0 -66.65 -85.9 -66.5 -84.75 -68.4 -84.9 -69.4 -85.75 -69.4 -87.15 -69.15 -88.75 -69.0 -89.0 -69.25 -89.65 -69.15 -91.25 -69.25 -91.75 -68.9 -91.65 -69.15 -92.15 -69.15 -94.15 -69.25 -94.4 -68.9 -97.75 -68.75 -98.0 -68.75 -98.25 -68.5 -99.0 -68.65 -99.65 -68.5 -99.75 -68.4 -99.9 -68.25 -100.25 -68.4 -100.75 -68.15 -100.9 -68.15 -101.15 -67.9 -101.15 -68.15 -100.9 -67.65 -100.75 -67.5 -101.5 M-68.0 -99.4 L-67.75 -99.65 -68.15 -99.75 -68.0 -99.4" fill="url(#gradient59)" fill-rule="evenodd" stroke="none"/>
    <path d="M-400.0 -67.5 L-397.0 -69.25 -383.0 -82.25 -369.4 -94.25 -369.0 -95.15 -368.9 -95.25 -363.4 -106.15 -363.15 -106.5 -361.5 -109.65 -365.4 -89.0 -357.4 -77.65 Q-386.9 -70.15 -392.5 -41.65 L-400.0 -46.15 -400.0 -67.5" fill="url(#gradient60)" fill-rule="evenodd" stroke="none"/>
    <path d="M-302.0 -106.5 L-302.4 -107.4 -263.15 -100.25 -262.5 -99.75 -264.0 -77.9 -261.25 -47.4 -267.75 -38.0 -272.5 -62.25 -300.75 -104.9 -300.15 -105.9 -298.75 -106.15 -300.5 -106.4 -301.15 -106.4 -302.0 -106.5" fill="url(#gradient61)" fill-rule="evenodd" stroke="none"/>
    <path d="M-264.0 -77.9 L-262.5 -99.75 -250.15 -76.25 -264.0 -77.9" fill="url(#gradient62)" fill-rule="evenodd" stroke="none"/>
    <path d="M-261.25 -47.4 L-264.0 -77.9 -250.15 -76.25 -250.0 -76.0 -203.15 -40.4 -170.4 -12.75 -179.65 -0.9 -207.75 -0.9 -242.15 -31.0 -242.65 -31.25 -242.65 -31.4 -252.5 -40.15 -253.65 -40.75 -254.9 -41.9 -255.4 -42.25 -261.25 -47.4" fill="url(#gradient63)" fill-rule="evenodd" stroke="none"/>
    <path d="M-267.75 -38.0 L-261.25 -47.4 -255.4 -42.25 -267.75 -38.0" fill="url(#gradient64)" fill-rule="evenodd" stroke="none"/>
    <path d="M-297.25 -48.65 L-294.75 -62.0 -301.9 -104.9 -300.75 -104.9 -272.5 -62.25 -267.75 -38.0 -255.4 -42.25 -255.4 -42.15 -255.15 -41.9 -254.9 -41.9 -253.65 -40.75 -243.5 -31.75 -244.0 -11.15 -248.75 -0.9 -272.9 -0.9 -269.9 -6.5 -268.5 -17.0 -269.4 -23.9 -270.0 -26.15 Q-275.0 -33.15 -276.65 -32.75 L-279.65 -39.65 -286.25 -46.15 -290.65 -48.25 -296.9 -48.25 -297.25 -48.65" fill="url(#gradient65)" fill-rule="evenodd" stroke="none"/>
    <path d="M-303.65 -106.4 L-302.0 -106.5 -301.15 -106.4 -303.65 -106.4" fill="url(#gradient66)" fill-rule="evenodd" stroke="none"/>
    <path d="M-301.9 -104.9 L-303.65 -106.4 -301.15 -106.4 -300.5 -106.4 -298.75 -106.15 -300.15 -105.9 -300.75 -104.9 -301.9 -104.9" fill="url(#gradient67)" fill-rule="evenodd" stroke="none"/>
    <path d="M-353.9 -0.9 L-355.4 -5.15 -357.0 -18.15 -356.0 -24.9 -356.15 -26.5 -355.25 -28.5 -353.65 -36.15 -349.5 -44.65 -343.65 -51.5 -336.4 -56.4 -330.75 -57.9 -325.65 -57.5 -318.4 -57.75 -313.65 -57.5 -309.15 -56.75 -304.0 -54.5 Q-298.65 -51.5 -297.25 -48.65 L-296.9 -48.25 -290.65 -48.25 -286.25 -46.15 -279.65 -39.65 -276.65 -32.75 Q-275.0 -33.15 -270.0 -26.15 L-269.4 -23.9 -268.5 -17.0 -269.9 -6.5 -272.9 -0.9 -353.9 -0.9" fill="url(#gradient68)" fill-rule="evenodd" stroke="none"/>
    <path d="M-248.75 -0.9 L-244.0 -11.15 -244.65 -1.0 -248.75 -0.9" fill="url(#gradient69)" fill-rule="evenodd" stroke="none"/>
    <path d="M-243.5 -31.75 L-253.65 -40.75 -252.5 -40.15 -242.65 -31.4 -243.5 -31.75 M-254.9 -41.9 L-255.15 -41.9 -255.4 -42.15 -255.4 -42.25 -254.9 -41.9" fill="url(#gradient70)" fill-rule="evenodd" stroke="none"/>
    <path d="M-59.75 -85.4 L-60.15 -85.4 -60.4 -95.4 -60.25 -97.5 -59.4 -97.5 -59.0 -86.25 -59.25 -85.4 -59.75 -85.4" fill="url(#gradient71)" fill-rule="evenodd" stroke="none"/>
    <path d="M-56.65 -85.75 L-57.15 -86.15 -57.75 -96.4 -56.75 -96.4 -56.25 -89.5 -56.15 -89.15 -56.0 -85.75 -56.65 -85.75" fill="url(#gradient72)" fill-rule="evenodd" stroke="none"/>
    <path d="M-53.5 -86.15 L-53.9 -95.9 -52.9 -95.9 -52.75 -87.25 -52.65 -86.65 -52.65 -86.15 -53.5 -86.15" fill="url(#gradient73)" fill-rule="evenodd" stroke="none"/>
    <path d="M-50.25 -86.5 L-50.75 -96.4 -49.75 -96.25 -49.25 -87.75 -49.15 -87.4 -49.15 -86.65 -50.25 -86.5" fill="url(#gradient74)" fill-rule="evenodd" stroke="none"/>
    <path d="M-47.4 -86.75 L-47.65 -95.9 -46.65 -96.0 -46.25 -87.0 -47.4 -86.75" fill="url(#gradient75)" fill-rule="evenodd" stroke="none"/>
    <path d="M-44.25 -87.15 L-44.5 -96.15 -43.5 -96.15 -43.15 -87.4 -43.15 -87.25 -44.25 -87.15" fill="url(#gradient76)" fill-rule="evenodd" stroke="none"/>
    <path d="M-41.0 -87.5 L-42.0 -112.9 -41.0 -113.0 -39.9 -87.75 -40.65 -87.5 -41.0 -87.5" fill="url(#gradient77)" fill-rule="evenodd" stroke="none"/>
    <path d="M-40.65 -87.5 L-39.9 -87.75 -37.4 -88.0 -36.15 -88.15 -34.4 -88.4 -33.25 -88.5 -30.9 -88.75 -29.75 -88.9 -27.65 -89.15 -26.5 -89.15 -26.4 -89.4 -24.15 -89.65 -22.9 -89.65 -22.9 -89.75 -20.75 -90.0 -19.5 -90.0 -19.5 -90.15 -17.4 -90.4 -16.15 -90.4 -16.15 -90.5 -11.65 -91.15 -0.9 -92.65 -0.9 -86.4 -5.9 -85.75 -10.0 -83.5 -10.9 -83.5 -11.25 -83.15 -16.15 -83.4 -20.0 -82.9 -21.0 -86.25 -22.65 -85.9 -22.5 -85.0 -24.15 -84.65 -24.0 -84.4 -24.0 -83.5 -25.0 -83.25 -25.0 -82.5 -25.5 -82.4 -34.9 -81.5 -36.0 -81.5 -36.15 -82.15 -37.4 -82.4 -37.5 -83.15 -38.4 -83.15 -38.9 -84.15 -39.65 -84.15 -40.65 -87.5" fill="url(#gradient78)" fill-rule="evenodd" stroke="none"/>
    <path d="M-12.4 -104.15 L-12.4 -104.4 -12.5 -104.5 -12.15 -104.75 -11.0 -103.75 -9.5 -103.4 -8.15 -103.0 -5.15 -103.0 -0.9 -103.5 Q-10.25 -101.5 -12.25 -104.15 L-12.4 -104.15" fill="url(#gradient79)" fill-rule="evenodd" stroke="none"/>
    <path d="M-11.65 -91.15 L-11.75 -91.15 -11.75 -91.5 -11.9 -93.15 -11.9 -93.4 -12.15 -92.75 -11.9 -93.15 -11.9 -91.75 -12.5 -91.15 -12.75 -91.65 -12.4 -104.15 -12.25 -104.15 Q-10.25 -101.5 -0.9 -103.5 L-0.9 -92.65 -11.65 -91.15 M-12.15 -103.65 L-12.15 -101.0 -11.9 -102.15 -12.15 -103.65 M-12.0 -98.0 L-12.0 -97.25 -11.75 -100.65 -12.0 -100.5 -12.0 -98.0 -12.25 -98.9 -12.4 -98.15 -12.0 -98.0 M-12.15 -95.25 L-11.9 -95.4 -11.9 -96.15 -12.15 -95.25" fill="url(#gradient80)" fill-rule="evenodd" stroke="none"/>
    <path d="M-20.75 -90.0 L-21.0 -103.65 -20.25 -103.9 -20.0 -103.0 -19.65 -91.5 -19.5 -90.9 -19.5 -90.15 -19.5 -90.0 -20.75 -90.0" fill="url(#gradient81)" fill-rule="evenodd" stroke="none"/>
    <path d="M-67.4 -102.4 L-67.25 -102.4 -67.25 -102.0 -67.4 -102.4" fill="url(#gradient82)" fill-rule="evenodd" stroke="none"/>
    <path d="M-68.0 -101.9 L-68.0 -101.65 -68.15 -101.75 -68.0 -101.9 M-68.25 -101.4 L-68.15 -101.15 -68.25 -101.25 -68.25 -101.4 M-69.15 -92.15 L-69.25 -94.4 -69.15 -94.15 -69.15 -92.15 M-68.75 -98.25 L-68.75 -99.0 -68.65 -99.65 -68.5 -99.0 -68.75 -98.25 M-68.5 -99.75 L-68.5 -100.0 -68.4 -100.4 -68.4 -100.5 -68.4 -100.75 -68.25 -100.25 -68.4 -99.9 -68.5 -99.75" fill="url(#gradient83)" fill-rule="evenodd" stroke="none"/>
    <path d="M-67.25 -101.25 L-67.25 -101.5 -67.15 -100.9 -67.15 -100.4 -67.0 -100.4 -67.0 -99.9 -67.15 -99.9 -67.15 -100.4 -67.25 -100.9 -67.25 -101.25 M-66.65 -86.4 L-66.5 -85.15 -66.5 -84.75 -66.65 -85.9 -66.65 -86.0 -66.75 -86.0 -66.65 -86.4" fill="url(#gradient84)" fill-rule="evenodd" stroke="none"/>
    <path d="M-16.25 -94.9 L-16.15 -90.9 -16.4 -93.75 -16.25 -94.9" fill="url(#gradient85)" fill-rule="evenodd" stroke="none"/>
    <path d="M-77.25 -99.75 L-76.4 -98.9 -76.4 -98.75 -77.25 -99.75" fill="url(#gradient86)" fill-rule="evenodd" stroke="none"/>
    <path d="M-69.15 -91.25 L-69.4 -91.4 -69.25 -91.75 -69.15 -91.25" fill="url(#gradient87)" fill-rule="evenodd" stroke="none"/>
    <path d="M-43.0 -98.75 L-43.25 -97.9 -44.65 -97.75 -44.75 -98.15 -44.5 -98.75 -43.0 -98.75" fill="url(#gradient88)" fill-rule="evenodd" stroke="none"/>
    <path d="M-43.25 -97.9 L-43.0 -98.75 -42.75 -98.65 -43.25 -97.9" fill="url(#gradient89)" fill-rule="evenodd" stroke="none"/>
    <path d="M-400.0 -67.5 L-400.0 -70.65 -378.5 -93.65 -368.15 -102.65 -363.4 -106.15 -368.9 -95.25 -369.0 -95.15 -369.4 -94.25 -383.0 -82.25 -397.0 -69.25 -400.0 -67.5" fill="url(#gradient90)" fill-rule="evenodd" stroke="none"/>
    <path d="M-69.4 -87.15 L-69.4 -85.75 -75.15 -83.0 -69.4 -87.15" fill="url(#gradient91)" fill-rule="evenodd" stroke="none"/>
    <path d="M-10.0 -83.5 L-9.65 -83.5 -10.15 -81.25 -10.15 -79.5 -9.25 -75.75 -8.4 -73.75 -6.9 -71.4 -5.15 -69.15 -4.9 -68.9 -4.5 -68.15 -4.75 -68.4 -5.65 -68.9 -6.0 -69.15 -6.25 -69.4 -6.65 -69.25 -6.5 -69.5 -7.9 -70.25 -7.25 -70.5 -8.0 -70.5 -7.9 -71.0 -8.65 -71.0 -8.75 -71.65 -9.65 -72.25 -9.65 -72.65 -10.0 -72.65 -9.5 -72.9 -9.9 -73.65 -10.15 -74.0 -10.25 -74.25 -10.65 -74.65 -10.75 -75.0 -11.25 -74.75 -11.5 -75.5 -10.9 -75.65 -11.75 -75.75 -11.15 -76.0 -12.0 -76.25 -11.65 -77.15 -11.9 -77.25 -12.25 -77.0 -12.4 -78.0 -12.75 -78.25 -12.25 -78.65 -12.9 -78.9 -12.5 -79.4 -13.15 -79.75 -12.5 -80.25 -13.15 -80.25 -13.25 -80.65 -13.4 -80.65 -13.4 -81.5 -11.25 -83.15 -10.9 -83.5 -10.0 -83.5 M-4.25 -68.0 L-4.15 -68.0 -4.15 -67.9 -4.4 -67.75 -4.25 -68.0" fill="url(#gradient92)" fill-rule="evenodd" stroke="none"/>
    <path d="M-4.9 -68.9 L-4.15 -68.0 -4.25 -68.0 -4.5 -68.15 -4.9 -68.9" fill="url(#gradient93)" fill-rule="evenodd" stroke="none"/>
    <path d="M-13.4 -80.65 L-13.25 -80.65 -13.15 -80.25 -12.5 -80.25 -13.15 -79.75 -12.5 -79.4 -12.9 -78.9 -12.25 -78.65 -12.75 -78.25 -12.4 -78.0 -12.25 -77.0 -11.9 -77.25 -11.65 -77.15 -12.0 -76.25 -11.15 -76.0 -11.75 -75.75 -10.9 -75.65 -11.5 -75.5 -11.25 -74.75 -10.75 -75.0 -10.65 -74.65 -10.25 -74.25 -10.15 -74.0 -9.9 -73.65 -9.5 -72.9 -10.0 -72.65 -9.65 -72.65 -9.65 -72.25 -8.75 -71.65 -8.65 -71.0 -7.9 -71.0 -8.0 -70.5 -7.25 -70.5 -7.9 -70.25 -6.5 -69.5 -6.65 -69.25 -6.25 -69.4 -6.0 -69.15 -5.65 -68.9 -4.75 -68.4 -4.5 -68.15 -4.25 -68.0 -4.4 -67.75 -4.15 -67.9 -3.9 -67.75 -3.5 -67.65 -2.9 -67.15 -4.4 -67.15 -4.75 -67.25 -5.0 -67.4 -5.75 -67.65 -6.15 -67.65 -6.25 -67.75 -6.4 -67.75 -6.5 -67.9 -6.65 -67.9 -6.75 -68.0 -6.9 -68.0 -7.15 -68.15 -7.25 -68.4 -7.4 -68.4 -7.65 -68.5 -7.75 -68.65 -8.0 -68.9 -8.5 -69.25 -9.4 -70.15 -11.0 -72.25 -12.5 -75.15 -12.9 -76.15 -13.0 -76.65 -13.9 -78.65 -13.9 -78.75 -14.25 -79.9 -13.4 -80.65" fill="url(#gradient94)" fill-rule="evenodd" stroke="none"/>
    <path d="M-64.25 -78.0 L-66.15 -78.65 -67.0 -78.4 -67.15 -78.4 -69.15 -78.15 -69.5 -78.15 -70.15 -78.0 -70.75 -78.0 -71.15 -77.9 -79.5 -77.0 -79.75 -77.9 -79.75 -78.0 -79.75 -78.25 -79.9 -78.25 -79.15 -79.0 -75.5 -80.0 -74.5 -80.0 -74.15 -80.15 -73.15 -80.15 -72.65 -80.25 -71.75 -80.25 -71.25 -80.4 -70.4 -80.4 -69.9 -80.5 -68.9 -80.5 -68.5 -80.65 -67.5 -81.4 -66.5 -82.65 -66.15 -82.65 -65.4 -82.5 -65.0 -82.5 -62.9 -82.0 -59.0 -80.5 -58.75 -80.25 -57.5 -79.5 -57.25 -79.25 -56.75 -79.0 -56.5 -78.65 -56.15 -78.5 -56.0 -78.25 -54.9 -77.15 -51.75 -72.65 -49.9 -66.9 -49.75 -66.65 -49.65 -64.4 -52.9 -64.25 -53.5 -68.15 -53.65 -68.4 Q-54.25 -71.0 -55.9 -72.9 L-58.15 -74.9 -58.65 -75.25 -58.9 -75.5 -60.15 -76.25 -60.4 -76.5 -61.75 -77.15 -62.6 -77.45 -64.25 -78.0" fill="url(#gradient95)" fill-rule="evenodd" stroke="none"/>
    <path d="M-79.9 -78.25 L-79.75 -78.25 -79.75 -78.0 -79.9 -78.25" fill="url(#gradient96)" fill-rule="evenodd" stroke="none"/>
    <path d="M-14.25 -79.9 L-14.25 -79.5 -14.4 -79.75 -14.25 -79.9" fill="url(#gradient97)" fill-rule="evenodd" stroke="none"/>
    <path d="M-14.25 -79.5 L-13.25 -75.9 -11.9 -73.0 -10.75 -71.25 -9.4 -69.75 -7.65 -68.5 -7.4 -68.4 -7.4 -68.25 -7.15 -68.15 -7.0 -68.0 -6.9 -68.0 -6.75 -68.0 -6.65 -67.9 -6.5 -67.9 -6.4 -67.75 -6.25 -67.75 -6.15 -67.65 -5.75 -67.65 -5.0 -67.4 -4.9 -67.25 -4.75 -67.25 -4.4 -67.15 -2.9 -67.15 -2.4 -67.5 -1.5 -68.4 -1.0 -68.65 -0.9 -68.65 -0.9 -66.0 -2.9 -65.75 -6.4 -66.0 -12.15 -69.65 Q-16.0 -74.15 -14.4 -79.75 L-14.25 -79.5" fill="url(#gradient98)" fill-rule="evenodd" stroke="none"/>
    <path d="M-4.15 -68.0 L-3.75 -67.9 -3.5 -67.65 -3.9 -67.75 -4.15 -67.9 -4.15 -68.0 M-1.0 -68.65 L-1.5 -68.4 -2.4 -67.5 -2.9 -67.15 -3.5 -67.65 -0.9 -69.9 -1.0 -68.65" fill="url(#gradient99)" fill-rule="evenodd" stroke="none"/>
    <path d="M-3.75 -67.9 L-7.65 -73.65 Q-9.5 -77.4 -9.5 -80.9 L-8.65 -83.65 -0.9 -85.0 -0.9 -69.9 -3.5 -67.65 -3.75 -67.9" fill="url(#gradient100)" fill-rule="evenodd" stroke="none"/>
    <path d="M-13.9 -78.75 L-14.25 -79.5 -14.25 -79.9 -13.9 -78.75 M-4.75 -67.25 L-4.9 -67.25 -5.0 -67.4 -4.75 -67.25" fill="url(#gradient101)" fill-rule="evenodd" stroke="none"/>
    <path d="M-218.25 -83.5 L-203.9 -73.0 -175.25 -49.9 -147.5 -28.9 -153.15 -25.65 -158.5 -23.15 -170.4 -12.75 -203.15 -40.4 -250.0 -76.0 -250.15 -76.25 -239.75 -85.75 -234.0 -87.4 -218.25 -83.5" fill="url(#gradient102)" fill-rule="evenodd" stroke="none"/>
    <path d="M-133.75 -25.15 Q-135.65 -25.25 -141.15 -20.9 L-140.75 -10.75 -170.4 -12.75 -158.5 -23.15 -153.15 -25.65 -147.5 -28.9 -133.75 -25.15" fill="url(#gradient103)" fill-rule="evenodd" stroke="none"/>
    <path d="M-5.75 -64.15 L-9.25 -65.15 -9.75 -65.25 -10.0 -66.25 -9.5 -66.25 -3.65 -65.15 -0.9 -65.15 -0.9 -64.25 -4.5 -64.15 -5.75 -64.15" fill="url(#gradient104)" fill-rule="evenodd" stroke="none"/>
    <path d="M-7.65 -64.4 L-5.75 -64.15 -4.5 -64.15 -3.9 -64.0 -12.15 -56.4 -12.25 -56.75 -12.65 -57.75 -12.5 -58.0 -11.25 -61.4 -8.25 -63.65 -7.65 -64.4" fill="url(#gradient105)" fill-rule="evenodd" stroke="none"/>
    <path d="M-9.15 -64.75 L-7.65 -64.4 -8.25 -63.65 -9.65 -64.0 -9.15 -64.75" fill="url(#gradient106)" fill-rule="evenodd" stroke="none"/>
    <path d="M-10.9 -63.5 L-10.15 -64.4 -9.15 -64.75 -9.65 -64.0 -10.9 -63.5" fill="url(#gradient107)" fill-rule="evenodd" stroke="none"/>
    <path d="M-12.4 -61.75 L-12.0 -62.4 -10.9 -63.5 -9.65 -64.0 -8.25 -63.65 -11.25 -61.4 -12.5 -58.0 -12.9 -59.15 -12.9 -60.5 -12.25 -61.4 -12.4 -61.75 M-11.4 -48.65 L-11.0 -48.25 -11.5 -48.0 -11.4 -48.65 M-4.4 -20.15 L-4.25 -19.5 -4.75 -19.65 -4.4 -20.15" fill="url(#gradient108)" fill-rule="evenodd" stroke="none"/>
    <path d="M-12.15 -56.4 L-3.9 -64.0 -0.9 -64.25 -0.9 -56.65 Q-3.4 -59.65 -7.0 -56.25 L-9.65 -52.15 -11.0 -48.25 -11.4 -48.65 -11.4 -49.15 -11.5 -49.75 -11.5 -50.25 -11.65 -51.0 -11.65 -51.5 -11.75 -52.25 -11.75 -52.75 -11.9 -53.4 -11.9 -54.0 -12.0 -54.65 -12.0 -55.15 -12.15 -55.9 -12.15 -56.4" fill="url(#gradient109)" fill-rule="evenodd" stroke="none"/>
    <path d="M-12.9 -57.65 L-13.4 -59.65 -13.15 -61.0 -12.4 -61.75 -12.25 -61.4 -12.9 -60.5 -12.9 -59.15 -12.5 -58.0 -12.65 -57.75 -12.9 -57.65" fill="url(#gradient110)" fill-rule="evenodd" stroke="none"/>
    <path d="M-11.75 -47.75 L-12.9 -57.65 -12.65 -57.75 -12.25 -56.75 -12.15 -56.4 -12.15 -55.9 -12.0 -55.15 -12.0 -54.65 -11.9 -54.0 -11.9 -53.4 -11.75 -52.75 -11.75 -52.25 -11.65 -51.5 -11.65 -51.0 -11.5 -50.25 -11.5 -49.75 -11.4 -49.15 -11.4 -48.65 -11.5 -48.0 -11.75 -47.75 M-6.25 -23.4 L-6.15 -23.65 -4.4 -23.15 -3.4 -22.4 -2.75 -22.5 -4.5 -20.5 -4.4 -20.15 -4.75 -19.65 -5.0 -19.25 -5.25 -21.9 -6.25 -23.4" fill="url(#gradient111)" fill-rule="evenodd" stroke="none"/>
    <path d="M-34.25 -52.75 L-29.0 -54.25 -23.0 -53.5 -16.15 -50.75 Q-12.75 -47.4 -11.75 -47.75 L-11.5 -48.0 -11.0 -48.25 -9.65 -52.15 -7.0 -56.25 Q-3.4 -59.65 -0.9 -56.65 L-0.9 -23.15 -2.75 -22.5 -3.4 -22.4 -4.4 -23.15 -6.15 -23.65 -6.25 -23.4 Q-9.9 -16.75 -21.0 -18.15 L-20.5 -19.15 -14.4 -25.5 -15.75 -26.9 Q-17.0 -25.15 -26.5 -27.25 L-28.4 -30.5 Q-31.25 -35.65 -29.15 -41.5 L-30.75 -43.25 -31.75 -46.15 -32.0 -46.65 -32.5 -46.25 -33.15 -46.4 -33.15 -49.75 -34.25 -52.75" fill="url(#gradient112)" fill-rule="evenodd" stroke="none"/>
    <path d="M-2.75 -22.5 L-0.9 -23.15 -0.9 -22.65 -3.9 -19.4 -4.25 -19.5 -4.4 -20.15 -4.5 -20.5 -2.75 -22.5" fill="url(#gradient113)" fill-rule="evenodd" stroke="none"/>
    <path d="M-118.5 -17.4 L-94.15 -26.25 -64.0 -35.15 -30.75 -43.25 -29.15 -41.5 Q-31.25 -35.65 -28.4 -30.5 L-26.5 -27.25 Q-17.0 -25.15 -15.75 -26.9 L-14.4 -25.5 -20.5 -19.15 -21.0 -18.15 -24.25 -14.9 -29.75 -11.15 -48.15 -8.0 -64.5 -0.9 -106.5 -0.9 -118.5 -17.4" fill="url(#gradient114)" fill-rule="evenodd" stroke="none"/>
    <path d="M-53.25 -52.65 L-52.9 -51.0 -51.5 -51.5 -40.5 -53.0 -34.65 -53.25 -34.25 -52.75 -33.15 -49.75 -33.15 -46.4 -32.5 -46.25 -32.0 -46.65 -31.75 -46.15 -30.75 -43.25 -64.0 -35.15 -94.15 -26.25 -118.5 -17.4 -140.75 -10.75 -141.15 -20.9 Q-135.65 -25.25 -133.75 -25.15 L-98.9 -38.65 -67.65 -47.9 -53.25 -52.65" fill="url(#gradient115)" fill-rule="evenodd" stroke="none"/>
    <path d="M-357.4 -77.65 L-355.9 -77.65 -355.0 -75.5 -355.15 -71.15 Q-355.25 -68.4 -356.0 -67.15 L-353.5 -63.9 -352.75 -61.4 -351.9 -55.25 -352.25 -48.25 -354.4 -38.9 -355.0 -37.15 -355.4 -37.0 -359.5 -30.0 -358.25 -21.0 Q-358.0 -12.65 -362.25 -5.4 L-360.9 -0.9 -377.9 -0.9 -379.15 -1.75 -385.4 -7.75 -387.5 -11.15 -389.5 -14.0 -392.4 -22.0 -393.25 -28.9 -393.25 -33.9 -392.5 -41.65 Q-386.9 -70.15 -357.4 -77.65" fill="url(#gradient116)" fill-rule="evenodd" stroke="none"/>
    <path d="M-379.15 -1.75 L-377.9 -0.9 -379.0 -0.9 -379.15 -1.75" fill="url(#gradient117)" fill-rule="evenodd" stroke="none"/>
    <path d="M-399.9 -10.9 L-397.0 -10.5 -387.5 -11.15 -385.4 -7.75 -379.15 -1.75 -379.0 -0.9 -394.9 -0.9 -399.25 -9.0 -399.9 -10.9" fill="url(#gradient118)" fill-rule="evenodd" stroke="none"/>
    <path d="M-392.5 -41.65 L-393.25 -33.9 -393.25 -28.9 -392.4 -22.0 -389.5 -14.0 -387.5 -11.15 -397.0 -10.5 -399.9 -10.9 -400.0 -46.15 -392.5 -41.65" fill="url(#gradient119)" fill-rule="evenodd" stroke="none"/>
    <path d="M-179.65 -0.9 L-170.4 -12.75 -140.75 -10.75 -118.25 -0.9 -179.65 -0.9" fill="url(#gradient120)" fill-rule="evenodd" stroke="none"/>
    <path d="M-2.65 -18.4 L-5.0 -19.25 -4.75 -19.65 -4.25 -19.5 -3.9 -19.4 -0.9 -22.65 -0.9 -20.15 -2.65 -18.4" fill="url(#gradient121)" fill-rule="evenodd" stroke="none"/>
    <path d="M-2.15 -17.15 L-2.65 -18.4 -0.9 -20.15 -0.9 -18.4 -2.15 -17.15" fill="url(#gradient122)" fill-rule="evenodd" stroke="none"/>
    <path d="M-140.75 -10.75 L-118.5 -17.4 -106.5 -0.9 -118.25 -0.9 -140.75 -10.75" fill="url(#gradient123)" fill-rule="evenodd" stroke="none"/>
    <path d="M-346.25 -126.0 L-351.15 -126.5 -335.65 -130.65 -321.15 -131.9 -321.5 -130.5 -331.4 -129.5 -346.25 -126.0 M-275.5 -127.5 L-274.15 -128.65 -274.5 -129.5 -276.15 -130.9 -278.15 -131.25 -279.15 -132.15 -279.25 -133.4 -279.4 -133.5 -273.9 -134.75 -271.65 -134.15 -270.5 -130.0 -268.25 -128.75 -268.4 -127.9 -269.9 -126.25 -272.75 -125.65 -275.0 -127.0 -275.5 -127.5" fill="#ab0000" fill-opacity="0.9098039" fill-rule="evenodd" stroke="none"/>
    <path d="M-275.5 -127.5 L-275.0 -127.0 -272.75 -125.65 -274.65 -125.15 -274.65 -125.0 -277.5 -124.25 -279.25 -123.65 -279.65 -123.65 -282.25 -122.9 -282.9 -122.5 -284.75 -122.15 -285.15 -122.0 -286.25 -121.4 -286.75 -121.25 -290.4 -119.4 -290.9 -119.0 -297.25 -115.75 -300.15 -107.25 -300.15 -107.0 -300.5 -106.4 -300.4 -106.25 -300.65 -105.15 -300.9 -104.75 -301.5 -103.4 -301.65 -102.25 -302.25 -100.75 -305.0 -81.15 -305.0 -80.5 -306.15 -72.4 -315.75 -54.65 -316.15 -54.15 -320.5 -45.75 -320.9 -45.4 -326.25 -35.25 -326.5 -34.9 -328.15 -31.65 -300.75 -18.75 -332.4 -14.5 -332.9 -14.4 -333.65 -14.4 -333.65 -14.25 -340.15 -13.5 -335.4 -31.0 -335.25 -31.25 -335.0 -32.5 -330.65 -40.65 -330.25 -41.0 -326.15 -49.0 -325.9 -49.25 -322.65 -55.4 -322.4 -55.65 -321.5 -57.4 -321.4 -57.5 -320.75 -58.5 -320.75 -59.0 -312.4 -74.15 -309.9 -90.0 -310.0 -90.5 -306.65 -109.75 -306.75 -110.0 -305.25 -117.25 -301.9 -118.75 -301.0 -119.0 -295.15 -121.15 -294.9 -121.65 -285.25 -124.65 -284.75 -124.75 -276.15 -127.15 -275.5 -127.5" fill="#9b0000" fill-opacity="0.9098039" fill-rule="evenodd" stroke="none"/>
    <path d="M-300.75 -18.75 L-300.5 -18.75 -300.75 -11.75 -300.9 -11.65 -300.75 -11.0 -301.15 -0.9 -342.65 -0.9 -342.5 -1.4 -340.65 -10.9 -340.75 -11.15 -340.65 -11.4 -340.15 -13.5 -333.65 -14.25 -333.65 -14.4 -332.9 -14.4 -332.4 -14.5 -300.75 -18.75" fill="#a00000" fill-opacity="0.9098039" fill-rule="evenodd" stroke="none"/>
    <path d="M-300.5 -18.75 L-257.25 -12.5 -244.0 -9.25 -244.65 -0.9 -301.15 -0.9 -300.75 -11.0 -300.9 -11.65 -300.75 -11.75 -300.5 -18.75" fill="#dc0000" fill-opacity="0.9098039" fill-rule="evenodd" stroke="none"/>
    <path d="M-356.75 -112.0 L-361.25 -110.15 -363.15 -106.75 -362.15 -112.65 -351.15 -126.5 -346.25 -126.0 -356.25 -112.65 -356.25 -112.5 -356.75 -112.0" fill="#ae0000" fill-opacity="0.9098039" fill-rule="evenodd" stroke="none"/>
    <path d="M-363.15 -106.75 L-361.25 -110.15 -356.75 -112.0 -357.0 -111.75 -358.75 -103.75 -358.65 -103.0 -360.65 -93.15 -360.9 -92.65 -360.75 -92.15 -361.65 -87.65 -362.5 -86.25 -363.0 -85.65 -373.25 -70.65 -373.65 -70.4 -373.5 -70.4 -374.0 -70.15 -374.0 -69.5 -375.65 -67.0 -376.0 -66.75 -378.75 -62.4 -379.15 -62.15 -379.65 -61.15 -383.4 -55.65 -383.75 -55.4 -386.9 -50.5 -387.5 -47.9 -387.65 -47.65 -389.5 -39.9 -389.65 -39.65 -390.4 -36.9 -390.25 -36.65 -391.75 -30.75 -391.9 -30.5 -392.9 -27.15 -393.0 -27.4 -393.25 -29.0 -393.15 -33.9 -393.25 -34.0 -392.9 -36.15 -392.9 -37.0 -392.75 -37.65 -392.75 -38.4 -392.65 -38.65 -392.65 -40.4 -392.4 -43.5 -392.15 -44.15 -391.25 -47.65 -390.15 -50.4 -389.75 -51.75 -392.9 -52.0 -393.0 -52.0 -392.0 -52.4 -386.75 -60.15 -386.15 -60.75 -381.4 -67.65 -381.25 -68.15 -377.5 -73.0 -376.65 -74.9 -367.4 -87.75 -366.4 -90.4 -366.65 -90.9 -363.65 -105.4 -363.4 -106.15 -363.5 -106.15 -363.15 -106.75" fill="#9e0000" fill-opacity="0.9098039" fill-rule="evenodd" stroke="none"/>
    <path d="M-393.0 -52.0 L-392.9 -52.0 -389.75 -51.75 -390.15 -50.4 -391.25 -47.65 -392.15 -44.15 -392.4 -43.5 -392.65 -40.4 -392.65 -38.65 -392.75 -38.4 -392.75 -37.65 -392.9 -37.0 -392.9 -36.15 -393.25 -34.0 -393.15 -33.9 -393.25 -29.0 -393.0 -27.4 -392.9 -27.15 -393.0 -26.0 -393.9 -22.5 -394.15 -22.25 -394.25 -22.65 -394.4 -23.0 -394.25 -25.0 -394.5 -25.65 -394.4 -29.65 -394.5 -29.9 -394.25 -35.15 -394.5 -35.75 -394.5 -44.4 -394.65 -44.65 -394.65 -48.4 -394.5 -52.0 -393.0 -52.0" fill="#b10000" fill-rule="evenodd" stroke="none"/>
    <path d="M-394.65 -48.4 L-394.65 -44.65 -394.5 -44.4 -394.5 -35.75 -394.25 -35.15 -394.5 -29.9 -394.4 -29.65 -394.5 -25.65 -394.25 -25.0 -394.4 -23.0 -394.25 -22.65 -394.15 -22.25 -394.4 -21.4 -396.15 -24.15 -396.25 -27.15 -396.4 -27.5 -396.0 -30.9 -396.15 -31.15 -395.65 -36.9 -395.65 -37.25 -395.15 -43.15 -395.25 -43.4 -395.25 -43.75 -395.0 -44.65 -394.65 -48.4" fill="#e20000" fill-rule="evenodd" stroke="none"/>
    <path d="M-394.15 -22.25 L-393.9 -22.5 -392.15 -21.25 -391.15 -18.4 -393.75 -20.4 -394.4 -21.4 -394.15 -22.25" fill="#d90000" fill-opacity="0.9098039" fill-rule="evenodd" stroke="none"/>
    <path d="M-393.9 -22.5 L-393.0 -26.0 -392.15 -21.25 -393.9 -22.5" fill="#da0000" fill-opacity="0.9098039" fill-rule="evenodd" stroke="none"/>
    <path d="M-393.75 -20.4 L-391.15 -18.4 -391.0 -17.9 -390.9 -17.75 -390.75 -17.65 -389.9 -14.75 -392.65 -18.75 -393.15 -19.25 -393.75 -20.4 M-377.9 -0.9 L-380.65 -0.9 -384.65 -6.9 -385.0 -7.15 -385.0 -7.25 -384.65 -6.9 -384.15 -6.65 -379.65 -2.4 -379.15 -1.75 -377.9 -0.9" fill="#b90000" fill-rule="evenodd" stroke="none"/>
    <path d="M-389.9 -14.75 L-390.75 -17.65 -384.0 -11.65 -383.65 -11.0 -381.15 -8.9 -380.75 -8.65 -373.65 -2.0 -373.4 -1.9 -373.25 -1.65 -372.9 -1.4 -372.5 -0.9 -377.9 -0.9 -379.15 -1.75 -379.65 -2.4 -384.15 -6.65 -384.65 -6.9 -385.0 -7.25 -385.25 -7.75 -387.65 -11.15 -387.75 -11.4 -388.65 -12.75 -388.75 -12.75 -389.9 -14.75" fill="#a50000" fill-opacity="0.9098039" fill-rule="evenodd" stroke="none"/>
    <path d="M-244.0 -9.25 L-243.9 -10.5 -244.0 -11.15 -243.9 -11.9 -234.75 -13.5 -234.9 -13.0 -234.9 -12.75 -236.4 -7.75 -238.65 -7.9 -244.0 -9.25" fill="#bd0000" fill-opacity="0.9098039" fill-rule="evenodd" stroke="none"/>
    <path d="M-234.75 -13.5 L-232.65 -7.65 -235.0 -7.65 -234.9 -12.75 -234.9 -13.0 -234.75 -13.5" fill="#ff0000" fill-opacity="0.9098039" fill-rule="evenodd" stroke="none"/>
    <path d="M-234.9 -12.75 L-235.0 -7.65 -236.4 -7.75 -234.9 -12.75" fill="#fe0000" fill-rule="evenodd" stroke="none"/>
    <path d="M-238.25 -0.9 L-244.65 -0.9 -244.0 -9.25 -238.65 -7.9 -236.4 -7.75 -238.25 -0.9" fill="#ed0000" fill-rule="evenodd" stroke="none"/>
    <path d="M-232.65 -7.65 L-235.25 -4.5 -235.4 -4.0 -238.25 -0.9 -236.4 -7.75 -235.0 -7.65 -232.65 -7.65" fill="#f30000" fill-rule="evenodd" stroke="none"/>
    <path d="M-235.4 -4.0 L-235.25 -3.4 -235.5 -0.9 -238.25 -0.9 -235.4 -4.0" fill="#f90000" fill-rule="evenodd" stroke="none"/>
  </g>
  <defs>
    <radialGradient cx="0" cy="0" gradientTransform="matrix(0.1194, 0.0, 0.0, 0.1194, -400.0, -247.05)" gradientUnits="userSpaceOnUse" id="gradient0" r="819.2" spreadMethod="pad">
      <stop offset="0.0" stop-color="#3f3f3f"/>
      <stop offset="1.0" stop-color="#2d2d2d"/>
    </radialGradient>
    <radialGradient cx="0" cy="0" gradientTransform="matrix(0.2528, 0.0, 0.0, 0.2528, -194.15, -189.3)" gradientUnits="userSpaceOnUse" id="gradient1" r="819.2" spreadMethod="pad">
      <stop offset="0.0" stop-color="#484848"/>
      <stop offset="1.0" stop-color="#1a1a1a"/>
    </radialGradient>
    <radialGradient cx="0" cy="0" gradientTransform="matrix(0.1923, 0.0, 0.0, 0.1923, -322.7, -140.2)" gradientUnits="userSpaceOnUse" id="gradient2" r="819.2" spreadMethod="pad">
      <stop offset="0.0" stop-color="#7d7d7d"/>
      <stop offset="1.0" stop-color="#0a0a0a"/>
    </radialGradient>
    <radialGradient cx="0" cy="0" gradientTransform="matrix(0.0658, 0.0, 0.0, 0.0658, -387.35, -247.3)" gradientUnits="userSpaceOnUse" id="gradient3" r="819.2" spreadMethod="pad">
      <stop offset="0.0" stop-color="#767676"/>
      <stop offset="1.0" stop-color="#767676"/>
    </radialGradient>
    <radialGradient cx="0" cy="0" gradientTransform="matrix(0.0278, 0.0, 0.0, 0.0278, -395.8, -286.2)" gradientUnits="userSpaceOnUse" id="gradient4" r="819.2" spreadMethod="pad">
      <stop offset="0.0" stop-color="#080808"/>
      <stop offset="1.0" stop-color="#080808"/>
    </radialGradient>
    <radialGradient cx="0" cy="0" gradientTransform="matrix(0.0091, 0.0, 0.0, 0.0091, -387.35, -247.3)" gradientUnits="userSpaceOnUse" id="gradient5" r="819.2" spreadMethod="pad">
      <stop offset="0.0" stop-color="#767676"/>
      <stop offset="1.0" stop-color="#767676"/>
    </radialGradient>
    <radialGradient cx="0" cy="0" gradientTransform="matrix(0.0125, 0.0, 0.0, 0.0125, -383.6, -246.3)" gradientUnits="userSpaceOnUse" id="gradient6" r="819.2" spreadMethod="pad">
      <stop offset="0.0" stop-color="#8a8a8a"/>
      <stop offset="1.0" stop-color="#898989"/>
    </radialGradient>
    <radialGradient cx="0" cy="0" gradientTransform="matrix(0.0058, 0.0, 0.0, 0.0058, -379.55, -220.95)" gradientUnits="userSpaceOnUse" id="gradient7" r="819.2" spreadMethod="pad">
      <stop offset="0.0" stop-color="#e2e2e2"/>
      <stop offset="1.0" stop-color="#e0e0e0"/>
    </radialGradient>
    <radialGradient cx="0" cy="0" gradientTransform="matrix(0.0131, 0.0, 0.0, 0.0131, -384.05, -213.9)" gradientUnits="userSpaceOnUse" id="gradient8" r="819.2" spreadMethod="pad">
      <stop offset="0.0" stop-color="#e1e1e1"/>
      <stop offset="1.0" stop-color="#dedede"/>
    </radialGradient>
    <radialGradient cx="0" cy="0" gradientTransform="matrix(0.0245, 0.0, 0.0, 0.0245, -352.3, -166.4)" gradientUnits="userSpaceOnUse" id="gradient9" r="819.2" spreadMethod="pad">
      <stop offset="0.0" stop-color="#ff5151"/>
      <stop offset="1.0" stop-color="#330000"/>
    </radialGradient>
    <radialGradient cx="0" cy="0" gradientTransform="matrix(0.0244, 0.0, 0.0, 0.0244, -351.8, -166.1)" gradientUnits="userSpaceOnUse" id="gradient10" r="819.2" spreadMethod="pad">
      <stop offset="0.0" stop-color="#ff5151"/>
      <stop offset="1.0" stop-color="#ff4c4c"/>
    </radialGradient>
    <radialGradient cx="0" cy="0" gradientTransform="matrix(0.0238, 0.0, 0.0, 0.0238, -352.95, -159.45)" gradientUnits="userSpaceOnUse" id="gradient11" r="819.2" spreadMethod="pad">
      <stop offset="0.0" stop-color="#ff3030"/>
      <stop offset="1.0" stop-color="#ff2d2d"/>
    </radialGradient>
    <radialGradient cx="0" cy="0" gradientTransform="matrix(0.0288, 0.0, 0.0, 0.0288, -348.35, -161.4)" gradientUnits="userSpaceOnUse" id="gradient12" r="819.2" spreadMethod="pad">
      <stop offset="0.0" stop-color="#f89797"/>
      <stop offset="1.0" stop-color="#864242"/>
    </radialGradient>
    <radialGradient cx="0" cy="0" gradientTransform="matrix(0.0408, 0.0, 0.0, 0.0408, -320.6, -135.55)" gradientUnits="userSpaceOnUse" id="gradient13" r="819.2" spreadMethod="pad">
      <stop offset="0.0" stop-color="#181818"/>
      <stop offset="1.0" stop-color="#000000"/>
    </radialGradient>
    <radialGradient cx="0" cy="0" gradientTransform="matrix(0.0672, 0.0, 0.0, 0.0672, -308.0, -124.6)" gradientUnits="userSpaceOnUse" id="gradient14" r="819.2" spreadMethod="pad">
      <stop offset="0.0" stop-color="#3c3c3c"/>
      <stop offset="1.0" stop-color="#000000"/>
    </radialGradient>
    <radialGradient cx="0" cy="0" gradientTransform="matrix(0.0543, 0.0, 0.0, 0.0543, -345.6, -70.0)" gradientUnits="userSpaceOnUse" id="gradient15" r="819.2" spreadMethod="pad">
      <stop offset="0.0" stop-color="#171717"/>
      <stop offset="1.0" stop-color="#000000"/>
    </radialGradient>
    <radialGradient cx="0" cy="0" gradientTransform="matrix(0.033, 0.0, 0.0, 0.033, -336.8, -115.8)" gradientUnits="userSpaceOnUse" id="gradient16" r="819.2" spreadMethod="pad">
      <stop offset="0.0" stop-color="#000000"/>
      <stop offset="1.0" stop-color="#000000"/>
    </radialGradient>
    <radialGradient cx="0" cy="0" gradientTransform="matrix(0.0076, 0.0, 0.0, 0.0076, -336.05, -118.1)" gradientUnits="userSpaceOnUse" id="gradient17" r="819.2" spreadMethod="pad">
      <stop offset="0.0" stop-color="#000000"/>
      <stop offset="1.0" stop-color="#000000"/>
    </radialGradient>
    <radialGradient cx="0" cy="0" gradientTransform="matrix(0.1719, 0.0, 0.0, 0.1719, -279.95, -141.85)" gradientUnits="userSpaceOnUse" id="gradient18" r="819.2" spreadMethod="pad">
      <stop offset="0.0" stop-color="#1a1a1a"/>
      <stop offset="1.0" stop-color="#0d0d0d"/>
    </radialGradient>
    <radialGradient cx="0" cy="0" gradientTransform="matrix(0.164, 0.0, 0.0, 0.164, -279.3, -135.15)" gradientUnits="userSpaceOnUse" id="gradient19" r="819.2" spreadMethod="pad">
      <stop offset="0.0" stop-color="#101010"/>
      <stop offset="1.0" stop-color="#000000"/>
    </radialGradient>
    <radialGradient cx="0" cy="0" gradientTransform="matrix(0.0229, 0.0, 0.0, 0.0229, -307.9, -138.3)" gradientUnits="userSpaceOnUse" id="gradient20" r="819.2" spreadMethod="pad">
      <stop offset="0.0" stop-color="#797979"/>
      <stop offset="1.0" stop-color="#000000"/>
    </radialGradient>
    <radialGradient cx="0" cy="0" gradientTransform="matrix(0.0396, 0.0, 0.0, 0.0396, -279.0, -130.9)" gradientUnits="userSpaceOnUse" id="gradient21" r="819.2" spreadMethod="pad">
      <stop offset="0.0" stop-color="#7b7b7b"/>
      <stop offset="1.0" stop-color="#0a0a0a"/>
    </radialGradient>
    <radialGradient cx="0" cy="0" gradientTransform="matrix(0.0441, 0.0, 0.0, 0.0441, -242.7, -79.9)" gradientUnits="userSpaceOnUse" id="gradient22" r="819.2" spreadMethod="pad">
      <stop offset="0.0" stop-color="#414141"/>
      <stop offset="1.0" stop-color="#0a0a0a"/>
    </radialGradient>
    <radialGradient cx="0" cy="0" gradientTransform="matrix(0.107, 0.0, 0.0, 0.107, -218.1, -83.45)" gradientUnits="userSpaceOnUse" id="gradient23" r="819.2" spreadMethod="pad">
      <stop offset="0.0" stop-color="#585858"/>
      <stop offset="1.0" stop-color="#000000"/>
    </radialGradient>
    <radialGradient cx="0" cy="0" gradientTransform="matrix(0.0502, 0.0, 0.0, 0.0502, -295.85, -120.0)" gradientUnits="userSpaceOnUse" id="gradient24" r="819.2" spreadMethod="pad">
      <stop offset="0.0" stop-color="#000000"/>
      <stop offset="1.0" stop-color="#000000"/>
    </radialGradient>
    <radialGradient cx="0" cy="0" gradientTransform="matrix(0.0194, 0.0, 0.0, 0.0194, -5.45, -126.8)" gradientUnits="userSpaceOnUse" id="gradient25" r="819.2" spreadMethod="pad">
      <stop offset="0.0" stop-color="#040404"/>
      <stop offset="1.0" stop-color="#040404"/>
    </radialGradient>
    <radialGradient cx="0" cy="0" gradientTransform="matrix(0.0222, 0.0, 0.0, 0.0222, -1.0, -127.6)" gradientUnits="userSpaceOnUse" id="gradient26" r="819.2" spreadMethod="pad">
      <stop offset="0.0" stop-color="#111111"/>
      <stop offset="1.0" stop-color="#111111"/>
    </radialGradient>
    <radialGradient cx="0" cy="0" gradientTransform="matrix(0.0193, 0.0, 0.0, 0.0193, -16.65, -118.3)" gradientUnits="userSpaceOnUse" id="gradient27" r="819.2" spreadMethod="pad">
      <stop offset="0.0" stop-color="#111111"/>
      <stop offset="1.0" stop-color="#111111"/>
    </radialGradient>
    <radialGradient cx="0" cy="0" gradientTransform="matrix(0.0175, 0.0, 0.0, 0.0175, -17.0, -118.25)" gradientUnits="userSpaceOnUse" id="gradient28" r="819.2" spreadMethod="pad">
      <stop offset="0.0" stop-color="#080808"/>
      <stop offset="1.0" stop-color="#080808"/>
    </radialGradient>
    <radialGradient cx="0" cy="0" gradientTransform="matrix(0.0403, 0.0, 0.0, 0.0403, -7.3, -126.85)" gradientUnits="userSpaceOnUse" id="gradient29" r="819.2" spreadMethod="pad">
      <stop offset="0.0" stop-color="#040404"/>
      <stop offset="1.0" stop-color="#040404"/>
    </radialGradient>
    <radialGradient cx="0" cy="0" gradientTransform="matrix(0.0257, 0.0, 0.0, 0.0257, -16.7, -117.2)" gradientUnits="userSpaceOnUse" id="gradient30" r="819.2" spreadMethod="pad">
      <stop offset="0.0" stop-color="#060606"/>
      <stop offset="1.0" stop-color="#060606"/>
    </radialGradient>
    <radialGradient cx="0" cy="0" gradientTransform="matrix(0.0262, 0.0, 0.0, 0.0262, -25.85, -122.6)" gradientUnits="userSpaceOnUse" id="gradient31" r="819.2" spreadMethod="pad">
      <stop offset="0.0" stop-color="#040404"/>
      <stop offset="1.0" stop-color="#040404"/>
    </radialGradient>
    <radialGradient cx="0" cy="0" gradientTransform="matrix(0.026, 0.0, 0.0, 0.026, -35.1, -120.6)" gradientUnits="userSpaceOnUse" id="gradient32" r="819.2" spreadMethod="pad">
      <stop offset="0.0" stop-color="#040404"/>
      <stop offset="1.0" stop-color="#040404"/>
    </radialGradient>
    <radialGradient cx="0" cy="0" gradientTransform="matrix(0.0195, 0.0, 0.0, 0.0195, -41.9, -119.55)" gradientUnits="userSpaceOnUse" id="gradient33" r="819.2" spreadMethod="pad">
      <stop offset="0.0" stop-color="#040404"/>
      <stop offset="1.0" stop-color="#040404"/>
    </radialGradient>
    <radialGradient cx="0" cy="0" gradientTransform="matrix(0.0217, 0.0, 0.0, 0.0217, -43.8, -120.65)" gradientUnits="userSpaceOnUse" id="gradient34" r="819.2" spreadMethod="pad">
      <stop offset="0.0" stop-color="#040404"/>
      <stop offset="1.0" stop-color="#040404"/>
    </radialGradient>
    <radialGradient cx="0" cy="0" gradientTransform="matrix(0.0214, 0.0, 0.0, 0.0214, -48.05, -122.6)" gradientUnits="userSpaceOnUse" id="gradient35" r="819.2" spreadMethod="pad">
      <stop offset="0.0" stop-color="#040404"/>
      <stop offset="1.0" stop-color="#040404"/>
    </radialGradient>
    <radialGradient cx="0" cy="0" gradientTransform="matrix(0.0804, 0.0, 0.0, 0.0804, -11.75, -102.55)" gradientUnits="userSpaceOnUse" id="gradient36" r="819.2" spreadMethod="pad">
      <stop offset="0.0" stop-color="#040404"/>
      <stop offset="1.0" stop-color="#040404"/>
    </radialGradient>
    <radialGradient cx="0" cy="0" gradientTransform="matrix(0.0311, 0.0, 0.0, 0.0311, -16.3, -116.95)" gradientUnits="userSpaceOnUse" id="gradient37" r="819.2" spreadMethod="pad">
      <stop offset="0.0" stop-color="#060606"/>
      <stop offset="1.0" stop-color="#060606"/>
    </radialGradient>
    <radialGradient cx="0" cy="0" gradientTransform="matrix(0.0324, 0.0, 0.0, 0.0324, -37.6, -114.55)" gradientUnits="userSpaceOnUse" id="gradient38" r="819.2" spreadMethod="pad">
      <stop offset="0.0" stop-color="#020202"/>
      <stop offset="1.0" stop-color="#020202"/>
    </radialGradient>
    <radialGradient cx="0" cy="0" gradientTransform="matrix(0.0172, 0.0, 0.0, 0.0172, -16.45, -104.35)" gradientUnits="userSpaceOnUse" id="gradient39" r="819.2" spreadMethod="pad">
      <stop offset="0.0" stop-color="#020202"/>
      <stop offset="1.0" stop-color="#020202"/>
    </radialGradient>
    <radialGradient cx="0" cy="0" gradientTransform="matrix(0.0172, 0.0, 0.0, 0.0172, -23.25, -103.6)" gradientUnits="userSpaceOnUse" id="gradient40" r="819.2" spreadMethod="pad">
      <stop offset="0.0" stop-color="#020202"/>
      <stop offset="1.0" stop-color="#020202"/>
    </radialGradient>
    <radialGradient cx="0" cy="0" gradientTransform="matrix(0.0172, 0.0, 0.0, 0.0172, -26.8, -103.2)" gradientUnits="userSpaceOnUse" id="gradient41" r="819.2" spreadMethod="pad">
      <stop offset="0.0" stop-color="#020202"/>
      <stop offset="1.0" stop-color="#020202"/>
    </radialGradient>
    <radialGradient cx="0" cy="0" gradientTransform="matrix(0.017, 0.0, 0.0, 0.017, -30.25, -102.7)" gradientUnits="userSpaceOnUse" id="gradient42" r="819.2" spreadMethod="pad">
      <stop offset="0.0" stop-color="#020202"/>
      <stop offset="1.0" stop-color="#020202"/>
    </radialGradient>
    <radialGradient cx="0" cy="0" gradientTransform="matrix(0.0169, 0.0, 0.0, 0.0169, -33.75, -102.2)" gradientUnits="userSpaceOnUse" id="gradient43" r="819.2" spreadMethod="pad">
      <stop offset="0.0" stop-color="#020202"/>
      <stop offset="1.0" stop-color="#020202"/>
    </radialGradient>
    <radialGradient cx="0" cy="0" gradientTransform="matrix(0.0181, 0.0, 0.0, 0.0181, -15.65, -117.15)" gradientUnits="userSpaceOnUse" id="gradient44" r="819.2" spreadMethod="pad">
      <stop offset="0.0" stop-color="#252525"/>
      <stop offset="1.0" stop-color="#242424"/>
    </radialGradient>
    <radialGradient cx="0" cy="0" gradientTransform="matrix(0.0195, 0.0, 0.0, 0.0195, -11.75, -102.15)" gradientUnits="userSpaceOnUse" id="gradient45" r="819.2" spreadMethod="pad">
      <stop offset="0.0" stop-color="#2e2e2e"/>
      <stop offset="1.0" stop-color="#272727"/>
    </radialGradient>
    <radialGradient cx="0" cy="0" gradientTransform="matrix(0.012, 0.0, 0.0, 0.012, -3.8, -103.75)" gradientUnits="userSpaceOnUse" id="gradient46" r="819.2" spreadMethod="pad">
      <stop offset="0.0" stop-color="#171717"/>
      <stop offset="1.0" stop-color="#171717"/>
    </radialGradient>
    <radialGradient cx="0" cy="0" gradientTransform="matrix(0.0179, 0.0, 0.0, 0.0179, -12.8, -107.4)" gradientUnits="userSpaceOnUse" id="gradient47" r="819.2" spreadMethod="pad">
      <stop offset="0.0" stop-color="#171717"/>
      <stop offset="1.0" stop-color="#171717"/>
    </radialGradient>
    <radialGradient cx="0" cy="0" gradientTransform="matrix(0.0162, 0.0, 0.0, 0.0162, -9.4, -107.1)" gradientUnits="userSpaceOnUse" id="gradient48" r="819.2" spreadMethod="pad">
      <stop offset="0.0" stop-color="#050505"/>
      <stop offset="1.0" stop-color="#050505"/>
    </radialGradient>
    <radialGradient cx="0" cy="0" gradientTransform="matrix(0.0123, 0.0, 0.0, 0.0123, -8.85, -106.75)" gradientUnits="userSpaceOnUse" id="gradient49" r="819.2" spreadMethod="pad">
      <stop offset="0.0" stop-color="#171717"/>
      <stop offset="1.0" stop-color="#171717"/>
    </radialGradient>
    <radialGradient cx="0" cy="0" gradientTransform="matrix(0.0955, 0.0, 0.0, 0.0955, -2.8, -67.1)" gradientUnits="userSpaceOnUse" id="gradient50" r="819.2" spreadMethod="pad">
      <stop offset="0.0" stop-color="#040404"/>
      <stop offset="1.0" stop-color="#040404"/>
    </radialGradient>
    <radialGradient cx="0" cy="0" gradientTransform="matrix(0.0183, 0.0, 0.0, 0.0183, -63.8, -109.7)" gradientUnits="userSpaceOnUse" id="gradient51" r="819.2" spreadMethod="pad">
      <stop offset="0.0" stop-color="#040404"/>
      <stop offset="1.0" stop-color="#040404"/>
    </radialGradient>
    <radialGradient cx="0" cy="0" gradientTransform="matrix(0.0185, 0.0, 0.0, 0.0185, -64.05, -110.4)" gradientUnits="userSpaceOnUse" id="gradient52" r="819.2" spreadMethod="pad">
      <stop offset="0.0" stop-color="#1d1d1d"/>
      <stop offset="1.0" stop-color="#191919"/>
    </radialGradient>
    <radialGradient cx="0" cy="0" gradientTransform="matrix(0.0094, 0.0, 0.0, 0.0094, -70.0, -98.8)" gradientUnits="userSpaceOnUse" id="gradient53" r="819.2" spreadMethod="pad">
      <stop offset="0.0" stop-color="#171717"/>
      <stop offset="1.0" stop-color="#171717"/>
    </radialGradient>
    <radialGradient cx="0" cy="0" gradientTransform="matrix(0.0998, 0.0, 0.0, 0.0998, -355.8, -80.4)" gradientUnits="userSpaceOnUse" id="gradient54" r="819.2" spreadMethod="pad">
      <stop offset="0.0" stop-color="#000000"/>
      <stop offset="1.0" stop-color="#000000"/>
    </radialGradient>
    <radialGradient cx="0" cy="0" gradientTransform="matrix(0.049, 0.0, 0.0, 0.049, -355.8, -80.4)" gradientUnits="userSpaceOnUse" id="gradient55" r="819.2" spreadMethod="pad">
      <stop offset="0.0" stop-color="#000000"/>
      <stop offset="1.0" stop-color="#000000"/>
    </radialGradient>
    <radialGradient cx="0" cy="0" gradientTransform="matrix(0.0286, 0.0, 0.0, 0.0286, -65.05, -108.15)" gradientUnits="userSpaceOnUse" id="gradient56" r="819.2" spreadMethod="pad">
      <stop offset="0.0" stop-color="#171717"/>
      <stop offset="1.0" stop-color="#171717"/>
    </radialGradient>
    <radialGradient cx="0" cy="0" gradientTransform="matrix(0.0256, 0.0, 0.0, 0.0256, -55.8, -111.0)" gradientUnits="userSpaceOnUse" id="gradient57" r="819.2" spreadMethod="pad">
      <stop offset="0.0" stop-color="#040404"/>
      <stop offset="1.0" stop-color="#040404"/>
    </radialGradient>
    <radialGradient cx="0" cy="0" gradientTransform="matrix(0.0185, 0.0, 0.0, 0.0185, -73.15, -101.4)" gradientUnits="userSpaceOnUse" id="gradient58" r="819.2" spreadMethod="pad">
      <stop offset="0.0" stop-color="#171717"/>
      <stop offset="1.0" stop-color="#171717"/>
    </radialGradient>
    <radialGradient cx="0" cy="0" gradientTransform="matrix(0.013, 0.0, 0.0, 0.013, -69.15, -95.1)" gradientUnits="userSpaceOnUse" id="gradient59" r="819.2" spreadMethod="pad">
      <stop offset="0.0" stop-color="#020202"/>
      <stop offset="1.0" stop-color="#020202"/>
    </radialGradient>
    <radialGradient cx="0" cy="0" gradientTransform="matrix(0.0801, 0.0, 0.0, 0.0801, -380.8, -47.65)" gradientUnits="userSpaceOnUse" id="gradient60" r="819.2" spreadMethod="pad">
      <stop offset="0.0" stop-color="#6a6a6a"/>
      <stop offset="1.0" stop-color="#000000"/>
    </radialGradient>
    <radialGradient cx="0" cy="0" gradientTransform="matrix(0.0888, 0.0, 0.0, 0.0888, -261.2, -47.55)" gradientUnits="userSpaceOnUse" id="gradient61" r="819.2" spreadMethod="pad">
      <stop offset="0.0" stop-color="#595959"/>
      <stop offset="1.0" stop-color="#000000"/>
    </radialGradient>
    <radialGradient cx="0" cy="0" gradientTransform="matrix(0.0272, 0.0, 0.0, 0.0272, -263.9, -77.95)" gradientUnits="userSpaceOnUse" id="gradient62" r="819.2" spreadMethod="pad">
      <stop offset="0.0" stop-color="#000000"/>
      <stop offset="1.0" stop-color="#000000"/>
    </radialGradient>
    <radialGradient cx="0" cy="0" gradientTransform="matrix(0.0956, 0.0, 0.0, 0.0956, -245.7, -34.3)" gradientUnits="userSpaceOnUse" id="gradient63" r="819.2" spreadMethod="pad">
      <stop offset="0.0" stop-color="#616161"/>
      <stop offset="1.0" stop-color="#000000"/>
    </radialGradient>
    <radialGradient cx="0" cy="0" gradientTransform="matrix(0.0142, 0.0, 0.0, 0.0142, -261.2, -47.55)" gradientUnits="userSpaceOnUse" id="gradient64" r="819.2" spreadMethod="pad">
      <stop offset="0.0" stop-color="#595959"/>
      <stop offset="1.0" stop-color="#000000"/>
    </radialGradient>
    <radialGradient cx="0" cy="0" gradientTransform="matrix(0.1234, 0.0, 0.0, 0.1234, -255.8, -17.8)" gradientUnits="userSpaceOnUse" id="gradient65" r="819.2" spreadMethod="pad">
      <stop offset="0.0" stop-color="#3f3f3f"/>
      <stop offset="1.0" stop-color="#101010"/>
    </radialGradient>
    <radialGradient cx="0" cy="0" gradientTransform="matrix(0.0246, 0.0, 0.0, 0.0246, -315.6, -107.0)" gradientUnits="userSpaceOnUse" id="gradient66" r="819.2" spreadMethod="pad">
      <stop offset="0.0" stop-color="#000000"/>
      <stop offset="1.0" stop-color="#000000"/>
    </radialGradient>
    <radialGradient cx="0" cy="0" gradientTransform="matrix(0.1097, 0.0, 0.0, 0.1097, -298.75, -106.35)" gradientUnits="userSpaceOnUse" id="gradient67" r="819.2" spreadMethod="pad">
      <stop offset="0.0" stop-color="#000000"/>
      <stop offset="1.0" stop-color="#000000"/>
    </radialGradient>
    <radialGradient cx="0" cy="0" gradientTransform="matrix(0.1072, 0.0, 0.0, 0.1072, -269.6, -24.5)" gradientUnits="userSpaceOnUse" id="gradient68" r="819.2" spreadMethod="pad">
      <stop offset="0.0" stop-color="#848484"/>
      <stop offset="1.0" stop-color="#1a1a1a"/>
    </radialGradient>
    <radialGradient cx="0" cy="0" gradientTransform="matrix(0.0145, 0.0, 0.0, 0.0145, -243.95, -11.9)" gradientUnits="userSpaceOnUse" id="gradient69" r="819.2" spreadMethod="pad">
      <stop offset="0.0" stop-color="#3e3e3e"/>
      <stop offset="1.0" stop-color="#373737"/>
    </radialGradient>
    <radialGradient cx="0" cy="0" gradientTransform="matrix(0.0546, 0.0, 0.0, 0.0546, -261.2, -47.55)" gradientUnits="userSpaceOnUse" id="gradient70" r="819.2" spreadMethod="pad">
      <stop offset="0.0" stop-color="#595959"/>
      <stop offset="1.0" stop-color="#000000"/>
    </radialGradient>
    <radialGradient cx="0" cy="0" gradientTransform="matrix(0.0148, 0.0, 0.0, 0.0148, -59.3, -97.6)" gradientUnits="userSpaceOnUse" id="gradient71" r="819.2" spreadMethod="pad">
      <stop offset="0.0" stop-color="#020202"/>
      <stop offset="1.0" stop-color="#020202"/>
    </radialGradient>
    <radialGradient cx="0" cy="0" gradientTransform="matrix(0.013, 0.0, 0.0, 0.013, -56.7, -96.5)" gradientUnits="userSpaceOnUse" id="gradient72" r="819.2" spreadMethod="pad">
      <stop offset="0.0" stop-color="#020202"/>
      <stop offset="1.0" stop-color="#020202"/>
    </radialGradient>
    <radialGradient cx="0" cy="0" gradientTransform="matrix(0.012, 0.0, 0.0, 0.012, -52.9, -96.0)" gradientUnits="userSpaceOnUse" id="gradient73" r="819.2" spreadMethod="pad">
      <stop offset="0.0" stop-color="#020202"/>
      <stop offset="1.0" stop-color="#020202"/>
    </radialGradient>
    <radialGradient cx="0" cy="0" gradientTransform="matrix(0.012, 0.0, 0.0, 0.012, -49.8, -96.35)" gradientUnits="userSpaceOnUse" id="gradient74" r="819.2" spreadMethod="pad">
      <stop offset="0.0" stop-color="#020202"/>
      <stop offset="1.0" stop-color="#020202"/>
    </radialGradient>
    <radialGradient cx="0" cy="0" gradientTransform="matrix(0.0112, 0.0, 0.0, 0.0112, -46.65, -96.05)" gradientUnits="userSpaceOnUse" id="gradient75" r="819.2" spreadMethod="pad">
      <stop offset="0.0" stop-color="#020202"/>
      <stop offset="1.0" stop-color="#020202"/>
    </radialGradient>
    <radialGradient cx="0" cy="0" gradientTransform="matrix(0.011, 0.0, 0.0, 0.011, -43.45, -96.2)" gradientUnits="userSpaceOnUse" id="gradient76" r="819.2" spreadMethod="pad">
      <stop offset="0.0" stop-color="#020202"/>
      <stop offset="1.0" stop-color="#020202"/>
    </radialGradient>
    <radialGradient cx="0" cy="0" gradientTransform="matrix(0.031, 0.0, 0.0, 0.031, -41.0, -113.05)" gradientUnits="userSpaceOnUse" id="gradient77" r="819.2" spreadMethod="pad">
      <stop offset="0.0" stop-color="#020202"/>
      <stop offset="1.0" stop-color="#020202"/>
    </radialGradient>
    <radialGradient cx="0" cy="0" gradientTransform="matrix(0.035, 0.0, 0.0, 0.035, -12.05, -91.55)" gradientUnits="userSpaceOnUse" id="gradient78" r="819.2" spreadMethod="pad">
      <stop offset="0.0" stop-color="#050505"/>
      <stop offset="1.0" stop-color="#050505"/>
    </radialGradient>
    <radialGradient cx="0" cy="0" gradientTransform="matrix(0.0177, 0.0, 0.0, 0.0177, -12.4, -104.85)" gradientUnits="userSpaceOnUse" id="gradient79" r="819.2" spreadMethod="pad">
      <stop offset="0.0" stop-color="#202020"/>
      <stop offset="1.0" stop-color="#0d0d0d"/>
    </radialGradient>
    <radialGradient cx="0" cy="0" gradientTransform="matrix(0.0194, 0.0, 0.0, 0.0194, -2.3, -103.3)" gradientUnits="userSpaceOnUse" id="gradient80" r="819.2" spreadMethod="pad">
      <stop offset="0.0" stop-color="#040404"/>
      <stop offset="1.0" stop-color="#040404"/>
    </radialGradient>
    <radialGradient cx="0" cy="0" gradientTransform="matrix(0.0172, 0.0, 0.0, 0.0172, -19.95, -103.95)" gradientUnits="userSpaceOnUse" id="gradient81" r="819.2" spreadMethod="pad">
      <stop offset="0.0" stop-color="#020202"/>
      <stop offset="1.0" stop-color="#020202"/>
    </radialGradient>
    <radialGradient cx="0" cy="0" gradientTransform="matrix(0.0198, 0.0, 0.0, 0.0198, -67.05, -101.6)" gradientUnits="userSpaceOnUse" id="gradient82" r="819.2" spreadMethod="pad">
      <stop offset="0.0" stop-color="#1c1c1c"/>
      <stop offset="1.0" stop-color="#1b1b1b"/>
    </radialGradient>
    <radialGradient cx="0" cy="0" gradientTransform="matrix(0.0206, 0.0, 0.0, 0.0206, -67.8, -102.7)" gradientUnits="userSpaceOnUse" id="gradient83" r="819.2" spreadMethod="pad">
      <stop offset="0.0" stop-color="#212121"/>
      <stop offset="1.0" stop-color="#202020"/>
    </radialGradient>
    <radialGradient cx="0" cy="0" gradientTransform="matrix(0.0346, 0.0, 0.0, 0.0346, -66.45, -84.8)" gradientUnits="userSpaceOnUse" id="gradient84" r="819.2" spreadMethod="pad">
      <stop offset="0.0" stop-color="#1f1f1f"/>
      <stop offset="1.0" stop-color="#1e1e1e"/>
    </radialGradient>
    <radialGradient cx="0" cy="0" gradientTransform="matrix(0.0183, 0.0, 0.0, 0.0183, -16.45, -104.35)" gradientUnits="userSpaceOnUse" id="gradient85" r="819.2" spreadMethod="pad">
      <stop offset="0.0" stop-color="#1f1f1f"/>
      <stop offset="1.0" stop-color="#1e1e1e"/>
    </radialGradient>
    <radialGradient cx="0" cy="0" gradientTransform="matrix(0.0253, 0.0, 0.0, 0.0253, -77.45, -100.8)" gradientUnits="userSpaceOnUse" id="gradient86" r="819.2" spreadMethod="pad">
      <stop offset="0.0" stop-color="#828282"/>
      <stop offset="1.0" stop-color="#343434"/>
    </radialGradient>
    <radialGradient cx="0" cy="0" gradientTransform="matrix(0.0189, 0.0, 0.0, 0.0189, -69.1, -91.25)" gradientUnits="userSpaceOnUse" id="gradient87" r="819.2" spreadMethod="pad">
      <stop offset="0.0" stop-color="#5f5f5f"/>
      <stop offset="1.0" stop-color="#5e5e5e"/>
    </radialGradient>
    <radialGradient cx="0" cy="0" gradientTransform="matrix(0.0023, 0.0, 0.0, 0.0023, -42.8, -98.5)" gradientUnits="userSpaceOnUse" id="gradient88" r="819.2" spreadMethod="pad">
      <stop offset="0.0" stop-color="#020202"/>
      <stop offset="1.0" stop-color="#020202"/>
    </radialGradient>
    <radialGradient cx="0" cy="0" gradientTransform="matrix(0.0195, 0.0, 0.0, 0.0195, -43.05, -98.1)" gradientUnits="userSpaceOnUse" id="gradient89" r="819.2" spreadMethod="pad">
      <stop offset="0.0" stop-color="#212121"/>
      <stop offset="1.0" stop-color="#1d1d1d"/>
    </radialGradient>
    <radialGradient cx="0" cy="0" gradientTransform="matrix(0.0626, 0.0, 0.0, 0.0626, -389.8, -81.8)" gradientUnits="userSpaceOnUse" id="gradient90" r="819.2" spreadMethod="pad">
      <stop offset="0.0" stop-color="#0f0f0f"/>
      <stop offset="1.0" stop-color="#040404"/>
    </radialGradient>
    <radialGradient cx="0" cy="0" gradientTransform="matrix(0.018, 0.0, 0.0, 0.018, -66.6, -89.25)" gradientUnits="userSpaceOnUse" id="gradient91" r="819.2" spreadMethod="pad">
      <stop offset="0.0" stop-color="#2f2f2f"/>
      <stop offset="1.0" stop-color="#151515"/>
    </radialGradient>
    <radialGradient cx="0" cy="0" gradientTransform="matrix(0.0187, 0.0, 0.0, 0.0187, -6.05, -68.95)" gradientUnits="userSpaceOnUse" id="gradient92" r="819.2" spreadMethod="pad">
      <stop offset="0.0" stop-color="#060606"/>
      <stop offset="1.0" stop-color="#060606"/>
    </radialGradient>
    <radialGradient cx="0" cy="0" gradientTransform="matrix(0.0208, 0.0, 0.0, 0.0208, -9.65, -83.55)" gradientUnits="userSpaceOnUse" id="gradient93" r="819.2" spreadMethod="pad">
      <stop offset="0.0" stop-color="#3c3c3c"/>
      <stop offset="1.0" stop-color="#202020"/>
    </radialGradient>
    <radialGradient cx="0" cy="0" gradientTransform="matrix(0.0211, 0.0, 0.0, 0.0211, -2.7, -67.25)" gradientUnits="userSpaceOnUse" id="gradient94" r="819.2" spreadMethod="pad">
      <stop offset="0.0" stop-color="#171717"/>
      <stop offset="1.0" stop-color="#171717"/>
    </radialGradient>
    <radialGradient cx="0" cy="0" gradientTransform="matrix(0.0406, 0.0, 0.0, 0.0406, -49.45, -64.55)" gradientUnits="userSpaceOnUse" id="gradient95" r="819.2" spreadMethod="pad">
      <stop offset="0.0" stop-color="#030303"/>
      <stop offset="1.0" stop-color="#030303"/>
    </radialGradient>
    <radialGradient cx="0" cy="0" gradientTransform="matrix(0.0177, 0.0, 0.0, 0.0177, -79.7, -78.35)" gradientUnits="userSpaceOnUse" id="gradient96" r="819.2" spreadMethod="pad">
      <stop offset="0.0" stop-color="#1e1e1e"/>
      <stop offset="1.0" stop-color="#1d1d1d"/>
    </radialGradient>
    <radialGradient cx="0" cy="0" gradientTransform="matrix(0.021, 0.0, 0.0, 0.021, -14.3, -79.9)" gradientUnits="userSpaceOnUse" id="gradient97" r="819.2" spreadMethod="pad">
      <stop offset="0.0" stop-color="#262626"/>
      <stop offset="1.0" stop-color="#0a0a0a"/>
    </radialGradient>
    <radialGradient cx="0" cy="0" gradientTransform="matrix(0.0235, 0.0, 0.0, 0.0235, -14.65, -79.6)" gradientUnits="userSpaceOnUse" id="gradient98" r="819.2" spreadMethod="pad">
      <stop offset="0.0" stop-color="#313131"/>
      <stop offset="1.0" stop-color="#070707"/>
    </radialGradient>
    <radialGradient cx="0" cy="0" gradientTransform="matrix(0.0209, 0.0, 0.0, 0.0209, -12.55, -81.25)" gradientUnits="userSpaceOnUse" id="gradient99" r="819.2" spreadMethod="pad">
      <stop offset="0.0" stop-color="#727272"/>
      <stop offset="1.0" stop-color="#2e2e2e"/>
    </radialGradient>
    <radialGradient cx="0" cy="0" gradientTransform="matrix(0.0215, 0.0, 0.0, 0.0215, -8.4, -83.8)" gradientUnits="userSpaceOnUse" id="gradient100" r="819.2" spreadMethod="pad">
      <stop offset="0.0" stop-color="#313131"/>
      <stop offset="1.0" stop-color="#1c1c1c"/>
    </radialGradient>
    <radialGradient cx="0" cy="0" gradientTransform="matrix(0.02, 0.0, 0.0, 0.02, -14.15, -80.2)" gradientUnits="userSpaceOnUse" id="gradient101" r="819.2" spreadMethod="pad">
      <stop offset="0.0" stop-color="#616161"/>
      <stop offset="1.0" stop-color="#232323"/>
    </radialGradient>
    <radialGradient cx="0" cy="0" gradientTransform="matrix(0.0843, 0.0, 0.0, 0.0843, -202.0, -71.55)" gradientUnits="userSpaceOnUse" id="gradient102" r="819.2" spreadMethod="pad">
      <stop offset="0.0" stop-color="#686868"/>
      <stop offset="1.0" stop-color="#181818"/>
    </radialGradient>
    <radialGradient cx="0" cy="0" gradientTransform="matrix(0.0341, 0.0, 0.0, 0.0341, -147.55, -29.05)" gradientUnits="userSpaceOnUse" id="gradient103" r="819.2" spreadMethod="pad">
      <stop offset="0.0" stop-color="#484848"/>
      <stop offset="1.0" stop-color="#000000"/>
    </radialGradient>
    <radialGradient cx="0" cy="0" gradientTransform="matrix(0.0077, 0.0, 0.0, 0.0077, -3.65, -65.2)" gradientUnits="userSpaceOnUse" id="gradient104" r="819.2" spreadMethod="pad">
      <stop offset="0.0" stop-color="#0b0b0b"/>
      <stop offset="1.0" stop-color="#0b0b0b"/>
    </radialGradient>
    <radialGradient cx="0" cy="0" gradientTransform="matrix(0.018, 0.0, 0.0, 0.018, -11.5, -60.8)" gradientUnits="userSpaceOnUse" id="gradient105" r="819.2" spreadMethod="pad">
      <stop offset="0.0" stop-color="#131313"/>
      <stop offset="1.0" stop-color="#121212"/>
    </radialGradient>
    <radialGradient cx="0" cy="0" gradientTransform="matrix(0.0133, 0.0, 0.0, 0.0133, -8.35, -63.7)" gradientUnits="userSpaceOnUse" id="gradient106" r="819.2" spreadMethod="pad">
      <stop offset="0.0" stop-color="#010101"/>
      <stop offset="1.0" stop-color="#010101"/>
    </radialGradient>
    <radialGradient cx="0" cy="0" gradientTransform="matrix(0.0188, 0.0, 0.0, 0.0188, -12.35, -62.7)" gradientUnits="userSpaceOnUse" id="gradient107" r="819.2" spreadMethod="pad">
      <stop offset="0.0" stop-color="#121212"/>
      <stop offset="1.0" stop-color="#101010"/>
    </radialGradient>
    <radialGradient cx="0" cy="0" gradientTransform="matrix(0.0495, 0.0, 0.0, 0.0495, -12.3, -57.8)" gradientUnits="userSpaceOnUse" id="gradient108" r="819.2" spreadMethod="pad">
      <stop offset="0.0" stop-color="#010101"/>
      <stop offset="1.0" stop-color="#010101"/>
    </radialGradient>
    <radialGradient cx="0" cy="0" gradientTransform="matrix(0.0431, 0.0, 0.0, 0.0431, -9.5, -32.6)" gradientUnits="userSpaceOnUse" id="gradient109" r="819.2" spreadMethod="pad">
      <stop offset="0.0" stop-color="#101010"/>
      <stop offset="1.0" stop-color="#101010"/>
    </radialGradient>
    <radialGradient cx="0" cy="0" gradientTransform="matrix(0.0198, 0.0, 0.0, 0.0198, -12.65, -61.55)" gradientUnits="userSpaceOnUse" id="gradient110" r="819.2" spreadMethod="pad">
      <stop offset="0.0" stop-color="#313131"/>
      <stop offset="1.0" stop-color="#2f2f2f"/>
    </radialGradient>
    <radialGradient cx="0" cy="0" gradientTransform="matrix(0.0589, 0.0, 0.0, 0.0589, -4.95, -19.45)" gradientUnits="userSpaceOnUse" id="gradient111" r="819.2" spreadMethod="pad">
      <stop offset="0.0" stop-color="#323232"/>
      <stop offset="1.0" stop-color="#272727"/>
    </radialGradient>
    <radialGradient cx="0" cy="0" gradientTransform="matrix(0.0526, 0.0, 0.0, 0.0526, -34.2, -29.35)" gradientUnits="userSpaceOnUse" id="gradient112" r="819.2" spreadMethod="pad">
      <stop offset="0.0" stop-color="#868686"/>
      <stop offset="1.0" stop-color="#000000"/>
    </radialGradient>
    <radialGradient cx="0" cy="0" gradientTransform="matrix(0.0068, 0.0, 0.0, 0.0068, -3.95, -19.25)" gradientUnits="userSpaceOnUse" id="gradient113" r="819.2" spreadMethod="pad">
      <stop offset="0.0" stop-color="#0e0e0e"/>
      <stop offset="1.0" stop-color="#0b0b0b"/>
    </radialGradient>
    <radialGradient cx="0" cy="0" gradientTransform="matrix(0.125, 0.0, 0.0, 0.125, -16.0, -20.4)" gradientUnits="userSpaceOnUse" id="gradient114" r="819.2" spreadMethod="pad">
      <stop offset="0.0" stop-color="#151515"/>
      <stop offset="1.0" stop-color="#000000"/>
    </radialGradient>
    <radialGradient cx="0" cy="0" gradientTransform="matrix(0.1343, 0.0, 0.0, 0.1343, -136.4, -24.15)" gradientUnits="userSpaceOnUse" id="gradient115" r="819.2" spreadMethod="pad">
      <stop offset="0.0" stop-color="#1d1d1d"/>
      <stop offset="1.0" stop-color="#060606"/>
    </radialGradient>
    <radialGradient cx="0" cy="0" gradientTransform="matrix(0.0994, 0.0, 0.0, 0.0994, -377.15, -1.0)" gradientUnits="userSpaceOnUse" id="gradient116" r="819.2" spreadMethod="pad">
      <stop offset="0.0" stop-color="#707070"/>
      <stop offset="1.0" stop-color="#000000"/>
    </radialGradient>
    <radialGradient cx="0" cy="0" gradientTransform="matrix(0.0194, 0.0, 0.0, 0.0194, -369.15, -1.0)" gradientUnits="userSpaceOnUse" id="gradient117" r="819.2" spreadMethod="pad">
      <stop offset="0.0" stop-color="#161616"/>
      <stop offset="1.0" stop-color="#000000"/>
    </radialGradient>
    <radialGradient cx="0" cy="0" gradientTransform="matrix(0.0213, 0.0, 0.0, 0.0213, -395.0, -1.0)" gradientUnits="userSpaceOnUse" id="gradient118" r="819.2" spreadMethod="pad">
      <stop offset="0.0" stop-color="#3d3d3d"/>
      <stop offset="1.0" stop-color="#000000"/>
    </radialGradient>
    <radialGradient cx="0" cy="0" gradientTransform="matrix(0.043, 0.0, 0.0, 0.043, -400.0, -11.1)" gradientUnits="userSpaceOnUse" id="gradient119" r="819.2" spreadMethod="pad">
      <stop offset="0.0" stop-color="#343434"/>
      <stop offset="1.0" stop-color="#000000"/>
    </radialGradient>
    <radialGradient cx="0" cy="0" gradientTransform="matrix(0.0652, 0.0, 0.0, 0.0652, -170.3, -12.85)" gradientUnits="userSpaceOnUse" id="gradient120" r="819.2" spreadMethod="pad">
      <stop offset="0.0" stop-color="#000000"/>
      <stop offset="1.0" stop-color="#000000"/>
    </radialGradient>
    <radialGradient cx="0" cy="0" gradientTransform="matrix(0.0068, 0.0, 0.0, 0.0068, -2.6, -18.45)" gradientUnits="userSpaceOnUse" id="gradient121" r="819.2" spreadMethod="pad">
      <stop offset="0.0" stop-color="#040404"/>
      <stop offset="1.0" stop-color="#040404"/>
    </radialGradient>
    <radialGradient cx="0" cy="0" gradientTransform="matrix(0.0039, 0.0, 0.0, 0.0039, -2.15, -17.2)" gradientUnits="userSpaceOnUse" id="gradient122" r="819.2" spreadMethod="pad">
      <stop offset="0.0" stop-color="#323232"/>
      <stop offset="1.0" stop-color="#1a1a1a"/>
    </radialGradient>
    <radialGradient cx="0" cy="0" gradientTransform="matrix(0.0434, 0.0, 0.0, 0.0434, -106.45, -1.0)" gradientUnits="userSpaceOnUse" id="gradient123" r="819.2" spreadMethod="pad">
      <stop offset="0.0" stop-color="#000000"/>
      <stop offset="1.0" stop-color="#000000"/>
    </radialGradient>
  </defs>
</svg>
