<?xml version="1.0" encoding="UTF-8" standalone="no"?>
<svg xmlns:xlink="http://www.w3.org/1999/xlink" height="299.1px" width="399.1px" xmlns="http://www.w3.org/2000/svg">
  <g transform="matrix(1.0, 0.0, 0.0, 1.0, 400.0, 300.0)">
    <path d="M-365.9 -152.15 L-376.65 -159.9 -373.25 -144.65 -373.75 -144.9 -382.9 -158.0 -394.15 -159.4 -399.15 -175.25 -400.0 -176.0 -400.0 -208.25 -391.65 -208.0 Q-390.75 -179.5 -365.9 -152.15 M-400.0 -240.9 L-399.9 -260.15 -398.25 -265.0 -397.15 -265.75 -366.75 -300.0 -362.25 -300.0 -364.25 -281.75 Q-379.0 -269.65 -388.75 -241.15 L-400.0 -240.9 M-238.4 -129.9 L-238.75 -129.75 -238.5 -130.25 -238.4 -129.9" fill="url(#gradient0)" fill-rule="evenodd" stroke="none"/>
    <path d="M-362.25 -300.0 L-227.9 -300.0 -226.5 -299.25 -215.9 -288.0 -201.25 -267.15 -196.9 -257.4 -189.4 -234.75 -187.4 -211.5 -190.4 -187.0 -197.25 -169.15 -203.25 -155.9 -217.15 -138.65 -228.9 -126.4 Q-236.4 -125.0 -238.4 -129.9 L-238.5 -130.25 -241.5 -138.25 -242.0 -138.4 -258.0 -131.75 -258.65 -131.9 -277.65 -149.0 -317.0 -172.15 -318.25 -173.4 -342.65 -206.5 -350.15 -216.65 -346.4 -241.25 -342.9 -264.15 -343.15 -264.25 -358.5 -241.0 -373.15 -217.25 -373.0 -220.15 -370.15 -238.5 -365.25 -268.15 -364.25 -281.75 -362.25 -300.0 M-258.0 -132.15 L-241.5 -148.5 -259.15 -148.75 -258.4 -132.9 -258.0 -132.15" fill="url(#gradient1)" fill-rule="evenodd" stroke="none"/>
    <path d="M-320.25 -125.5 L-331.65 -128.5 -346.65 -136.0 -360.4 -146.65 -365.9 -152.15 Q-390.75 -179.5 -391.65 -208.0 L-379.4 -207.5 -375.65 -207.4 -371.25 -214.0 -365.25 -207.0 -342.65 -206.5 -318.25 -173.4 -317.0 -172.15 -277.65 -149.0 -258.65 -131.9 -265.75 -128.4 -277.9 -125.25 -278.65 -125.15 -283.25 -124.0 -289.9 -123.25 -297.4 -123.25 -297.15 -122.9 -312.65 -123.75 -320.25 -125.5 M-358.5 -241.0 L-343.15 -264.25 -342.9 -264.15 -346.4 -241.25 -358.5 -241.0 M-364.25 -281.75 L-365.25 -268.15 -370.15 -238.5 -371.65 -236.65 -374.65 -240.0 -375.15 -240.0 -379.5 -241.0 -381.9 -241.15 -382.25 -241.15 -382.5 -241.25 -388.75 -241.15 Q-379.0 -269.65 -364.25 -281.75 M-354.25 -164.15 L-356.4 -164.25 -359.0 -163.65 -362.5 -164.75 -365.0 -164.4 -369.25 -160.9 -369.4 -160.5 -368.5 -160.5 -342.9 -158.15 -343.0 -158.65 -351.75 -163.4 -354.25 -164.15 M-354.15 -151.75 Q-343.9 -151.0 -341.15 -157.4 L-354.75 -158.75 -357.15 -158.5 -359.4 -159.25 -367.15 -160.0 -368.25 -159.9 -368.5 -159.4 -368.25 -159.25 -367.0 -158.15 -363.25 -155.75 -363.0 -155.65 -362.4 -155.25 -361.15 -154.65 -360.9 -154.5 -360.0 -154.15 -359.75 -154.0 -359.5 -153.9 -359.25 -153.75 -357.65 -153.0 -357.25 -152.9 -356.65 -152.65 -356.4 -152.5 -355.15 -152.0 -354.25 -151.75 -354.15 -151.75 M-258.0 -132.15 L-258.4 -132.9 -259.15 -148.75 -241.5 -148.5 -258.0 -132.15" fill="url(#gradient2)" fill-rule="evenodd" stroke="none"/>
    <path d="M-400.0 -208.25 L-400.0 -240.9 -388.75 -241.15 -382.5 -241.25 -382.25 -241.15 -381.9 -241.15 -378.25 -240.25 -373.25 -234.75 -372.75 -234.9 -371.65 -236.65 -370.15 -238.5 -373.0 -220.15 -373.15 -217.25 -358.5 -241.0 -346.4 -241.25 -350.15 -216.65 -342.65 -206.5 -365.25 -207.0 -371.25 -214.0 -371.75 -214.75 -373.15 -216.15 -374.15 -214.75 -379.4 -207.5 -391.65 -208.0 -400.0 -208.25" fill="url(#gradient3)" fill-rule="evenodd" stroke="none"/>
    <path d="M-381.9 -241.15 L-379.5 -241.0 -375.15 -240.0 -378.25 -240.25 -381.9 -241.15" fill="url(#gradient4)" fill-rule="evenodd" stroke="none"/>
    <path d="M-375.15 -240.0 L-374.65 -240.0 -371.65 -236.65 -372.75 -234.9 -373.25 -234.75 -378.25 -240.25 -375.15 -240.0" fill="url(#gradient5)" fill-rule="evenodd" stroke="none"/>
    <path d="M-399.9 -260.15 L-400.0 -272.4 -389.65 -289.65 -389.25 -289.75 -388.9 -290.9 -387.5 -292.65 -387.15 -293.75 -379.0 -299.9 -366.75 -300.0 -397.15 -265.75 -398.25 -265.0 -399.9 -260.15" fill="url(#gradient6)" fill-rule="evenodd" stroke="none"/>
    <path d="M-374.15 -214.75 L-373.15 -216.15 -371.75 -214.75 -374.15 -214.75" fill="url(#gradient7)" fill-rule="evenodd" stroke="none"/>
    <path d="M-371.75 -214.75 L-371.25 -214.0 -375.65 -207.4 -379.4 -207.5 -374.15 -214.75 -371.75 -214.75" fill="url(#gradient8)" fill-rule="evenodd" stroke="none"/>
    <path d="M-354.25 -164.15 L-351.75 -163.4 -343.0 -158.65 -342.9 -158.15 -368.5 -160.5 -369.4 -160.5 -369.25 -160.9 -365.0 -164.4 -362.5 -164.75 -359.0 -163.65 -356.4 -164.25 -354.25 -164.15 M-349.9 -161.4 L-352.5 -162.65 -355.65 -163.4 -359.25 -162.75 Q-363.15 -164.65 -365.15 -163.65 -367.9 -160.75 -368.5 -160.9 L-368.25 -160.65 -345.4 -158.5 -345.5 -158.9 -347.0 -159.4 -349.9 -161.4" fill="url(#gradient9)" fill-rule="evenodd" stroke="none"/>
    <path d="M-349.9 -161.4 L-347.0 -159.4 -345.5 -158.9 -345.4 -158.5 -368.25 -160.65 -368.5 -160.9 Q-367.9 -160.75 -365.15 -163.65 -363.15 -164.65 -359.25 -162.75 L-355.65 -163.4 -352.5 -162.65 -349.9 -161.4" fill="url(#gradient10)" fill-rule="evenodd" stroke="none"/>
    <path d="M-354.15 -151.75 L-354.25 -151.75 -355.15 -152.0 -356.4 -152.5 -356.65 -152.65 -357.25 -152.9 -357.65 -153.0 -359.25 -153.75 -359.5 -153.9 -359.75 -154.0 -360.0 -154.15 -360.9 -154.5 -361.15 -154.65 -362.4 -155.25 -363.0 -155.65 -363.25 -155.75 -367.0 -158.15 -368.25 -159.25 -342.4 -156.75 Q-344.5 -151.75 -354.15 -151.75" fill="url(#gradient11)" fill-rule="evenodd" stroke="none"/>
    <path d="M-368.25 -159.25 L-368.5 -159.4 -368.25 -159.9 -367.15 -160.0 -359.4 -159.25 -357.15 -158.5 -354.75 -158.75 -341.15 -157.4 Q-343.9 -151.0 -354.15 -151.75 -344.5 -151.75 -342.4 -156.75 L-368.25 -159.25" fill="url(#gradient12)" fill-rule="evenodd" stroke="none"/>
    <path d="M-330.9 -111.75 L-320.65 -122.4 -320.25 -125.5 -312.65 -123.75 -297.15 -122.9 -291.4 -118.25 -291.4 -116.5 -293.5 -111.75 -298.9 -99.4 -315.15 -99.25 -340.75 -103.65 -338.65 -105.4 -338.65 -105.5 -338.15 -105.75 -337.0 -106.65 -332.75 -110.0 -332.15 -110.5 -330.9 -111.75" fill="url(#gradient13)" fill-rule="evenodd" stroke="none"/>
    <path d="M-332.75 -111.4 L-330.9 -111.75 -332.15 -110.5 -332.75 -110.0 -334.25 -109.9 -335.5 -110.25 -332.75 -111.4" fill="url(#gradient14)" fill-rule="evenodd" stroke="none"/>
    <path d="M-362.9 -100.65 L-343.15 -109.75 -332.75 -111.4 -335.5 -110.25 -334.25 -109.9 -332.75 -110.0 -337.0 -106.65 -353.4 -104.15 -362.9 -100.65" fill="url(#gradient15)" fill-rule="evenodd" stroke="none"/>
    <path d="M-364.75 -99.4 L-364.75 -99.5 -363.75 -100.25 -362.9 -100.65 -353.4 -104.15 -358.5 -86.65 -356.9 -70.4 -357.15 -69.4 -358.5 -67.4 -360.75 -66.9 -368.4 -78.0 -368.75 -78.0 -364.75 -99.4" fill="url(#gradient16)" fill-rule="evenodd" stroke="none"/>
    <path d="M-340.75 -103.65 L-341.25 -102.15 -341.65 -102.15 -358.5 -86.65 -353.4 -104.15 -337.0 -106.65 -338.15 -105.75 -338.65 -105.5 -338.65 -105.4 -340.75 -103.65" fill="url(#gradient17)" fill-rule="evenodd" stroke="none"/>
    <path d="M-277.9 -125.25 L-277.75 -122.75 -277.9 -122.15 -278.65 -122.0 -278.65 -125.15 -277.9 -125.25" fill="url(#gradient18)" fill-rule="evenodd" stroke="none"/>
    <path d="M-291.4 -116.5 L-291.4 -118.25 -289.9 -123.25 -283.25 -124.0 -278.65 -125.15 -278.65 -122.0 -282.65 -121.4 -282.5 -120.9 -280.0 -116.9 -279.75 -115.75 -280.25 -114.9 -283.0 -113.15 -289.0 -112.9 -291.4 -116.5" fill="url(#gradient19)" fill-rule="evenodd" stroke="none"/>
    <path d="M-291.4 -118.25 L-297.15 -122.9 -297.4 -123.25 -289.9 -123.25 -291.4 -118.25" fill="url(#gradient20)" fill-rule="evenodd" stroke="none"/>
    <path d="M-14.9 -121.5 L-14.5 -121.9 -14.4 -121.9 -14.15 -122.15 -1.25 -125.25 -0.9 -125.25 -0.9 -122.9 -6.4 -118.15 -23.4 -114.4 -23.5 -114.4 -21.0 -116.4 -20.75 -116.65 -20.25 -117.0 -19.9 -117.4 -19.5 -117.65 -19.15 -118.0 -18.75 -118.25 -18.4 -118.65 -18.0 -118.9 -17.5 -119.4 -17.25 -119.5 -16.75 -120.0 -14.9 -121.5" fill="url(#gradient21)" fill-rule="evenodd" stroke="none"/>
    <path d="M-0.9 -122.9 L-0.9 -121.5 -4.4 -118.65 -6.4 -118.15 -0.9 -122.9" fill="url(#gradient22)" fill-rule="evenodd" stroke="none"/>
    <path d="M-49.75 -112.9 L-47.0 -113.4 -42.5 -111.5 -40.65 -110.4 -40.25 -110.5 -33.75 -111.5 -31.75 -112.9 -31.25 -113.0 -24.5 -113.75 -24.0 -107.5 -23.5 -88.15 -26.0 -87.75 -26.0 -88.0 -26.15 -89.5 -26.25 -94.9 -26.4 -95.75 -27.15 -112.75 -28.0 -112.5 -28.0 -108.65 -27.65 -106.15 -27.25 -87.5 -29.25 -87.25 -29.25 -87.75 -29.4 -88.25 -29.65 -96.0 -30.65 -95.9 -30.5 -87.0 -32.5 -86.75 -32.9 -95.65 -33.9 -95.75 -33.65 -86.65 -35.4 -86.4 -35.65 -87.5 -35.65 -88.9 -35.75 -89.4 Q-35.25 -95.9 -37.15 -96.0 L-36.65 -86.15 -39.15 -85.75 -39.15 -88.5 -39.25 -89.15 -39.5 -95.4 -39.9 -95.5 -40.25 -95.5 -40.25 -85.65 -42.5 -85.25 -42.5 -86.15 -42.65 -86.4 -43.15 -95.5 -44.15 -95.9 -44.25 -95.65 -43.65 -85.15 -45.75 -84.75 -45.65 -85.0 -45.9 -96.75 -46.9 -96.9 -46.75 -84.75 -46.15 -84.75 -52.15 -83.9 -52.25 -84.15 -52.0 -102.25 -51.9 -102.5 -51.15 -103.5 -50.9 -103.65 -50.15 -104.4 -50.0 -104.65 -50.0 -104.9 -49.9 -105.4 -50.0 -106.25 -50.4 -107.5 -51.0 -107.4 -50.65 -108.15 -50.75 -108.25 -50.15 -108.75 -49.15 -108.9 -49.25 -109.5 -49.75 -112.9 M-0.9 -117.25 L-1.15 -114.65 -1.9 -117.4 -2.75 -117.75 -3.0 -117.9 -3.9 -118.15 -6.4 -118.15 -4.4 -118.65 -2.5 -118.65 -1.15 -117.5 -1.25 -117.25 -0.9 -117.25 M-0.9 -105.25 L-0.9 -91.5 -1.75 -91.4 -1.75 -91.75 -1.9 -96.15 -2.0 -105.0 -0.9 -105.25 M-56.15 -88.5 L-63.5 -97.4 -63.25 -97.75 -63.65 -97.75 -62.65 -98.0 -61.25 -99.65 -61.65 -99.75 -61.65 -100.25 -61.15 -100.25 -61.0 -100.4 -56.75 -101.0 -58.25 -100.65 -58.65 -100.5 -58.4 -100.25 -55.4 -100.5 -54.9 -100.9 -54.75 -100.75 -55.0 -100.0 -55.15 -99.9 -55.75 -100.0 -55.75 -99.65 -55.15 -99.5 -55.15 -99.4 -55.4 -98.4 -55.5 -98.15 -55.65 -97.4 -55.65 -97.15 -55.65 -96.9 -56.0 -93.4 -56.15 -90.65 -56.25 -90.25 -56.0 -90.25 -56.15 -88.5 M-64.5 -98.65 L-64.65 -98.9 -64.65 -99.15 -64.5 -99.4 -64.65 -99.4 -64.5 -99.75 -64.25 -100.0 -64.15 -99.75 -63.9 -100.15 -64.15 -99.25 -63.65 -100.15 -62.25 -99.9 Q-63.65 -100.1 -64.25 -98.4 L-64.5 -98.65 M-17.0 -102.65 L-16.9 -89.15 -19.15 -88.75 -19.25 -89.5 -19.65 -102.15 -17.0 -102.65 M-15.65 -89.4 L-16.15 -102.75 -13.65 -103.15 -13.5 -89.65 -15.65 -89.4 M-12.75 -103.25 L-10.0 -103.75 -9.9 -90.15 -12.25 -89.9 -12.65 -103.25 -12.75 -103.25 M-9.0 -103.9 L-6.65 -104.25 -6.5 -90.65 -8.65 -90.4 -9.0 -103.9 M-5.75 -104.4 L-3.0 -104.9 -3.15 -91.15 -5.25 -90.9 -5.65 -104.4 -5.75 -104.4 M-22.9 -101.75 L-21.0 -102.0 -20.9 -102.0 -20.4 -88.65 -22.25 -88.4 -22.65 -96.75 -22.75 -97.4 -22.9 -101.75 M-29.25 -98.65 L-30.5 -98.65 -30.9 -98.15 -30.75 -97.5 -29.4 -97.75 -28.9 -98.5 -29.25 -98.65 M-54.75 -101.4 L-54.65 -101.4 -54.75 -101.15 -55.15 -101.4 -54.75 -101.4 M-54.75 -101.15 L-54.9 -101.0 -55.15 -101.15 -54.75 -101.15 M-54.5 -99.75 L-54.65 -100.0 -54.5 -100.15 -54.5 -99.75 M-54.75 -99.5 L-54.65 -99.5 -54.4 -99.4 -54.75 -99.15 -54.75 -99.5 M-59.0 -99.65 L-58.4 -99.65 -59.15 -100.0 -59.0 -99.65 M-59.15 -99.25 L-60.15 -100.0 -59.65 -99.25 -59.75 -98.65 -58.5 -98.75 -58.5 -98.7 -56.0 -98.5 -55.5 -99.4 -59.15 -99.25 M-57.25 -99.65 L-58.0 -100.0 -57.9 -99.65 -57.25 -99.65 M-56.9 -100.0 L-56.75 -99.65 -56.15 -99.65 -56.9 -100.0 M-59.9 -97.25 L-59.9 -98.15 -60.4 -97.75 -60.0 -97.5 -60.4 -97.0 -60.0 -97.0 -59.9 -97.25 M-61.15 -98.4 L-61.5 -98.65 -61.9 -98.4 -61.15 -98.4 M-61.4 -98.0 L-61.65 -98.25 -61.9 -98.0 -61.4 -98.0 M-59.65 -93.9 L-59.15 -93.5 -58.25 -93.9 -59.65 -93.9 M-58.15 -93.15 L-57.9 -93.65 -58.65 -93.65 -58.15 -93.15 M-60.9 -99.15 L-61.0 -98.9 -60.4 -98.9 -60.9 -99.15 M-57.4 -91.4 L-57.0 -91.25 -56.9 -91.5 -57.4 -91.4" fill="url(#gradient23)" fill-rule="evenodd" stroke="none"/>
    <path d="M-0.9 -121.5 L-0.9 -119.75 -2.5 -118.65 -4.4 -118.65 -0.9 -121.5" fill="url(#gradient24)" fill-rule="evenodd" stroke="none"/>
    <path d="M-277.75 -122.75 L-274.15 -117.75 -273.25 -116.4 -270.0 -115.0 -258.4 -109.25 -250.0 -106.65 -253.65 -104.75 -293.5 -111.75 -291.4 -116.5 -289.0 -112.9 -283.0 -113.15 -280.25 -114.9 -279.75 -115.75 -280.0 -116.9 -282.5 -120.9 -282.65 -121.4 -278.65 -122.0 -277.9 -122.15 -277.75 -122.75" fill="url(#gradient25)" fill-rule="evenodd" stroke="none"/>
    <path d="M-274.15 -117.75 L-270.0 -115.0 -273.25 -116.4 -274.15 -117.75" fill="url(#gradient26)" fill-rule="evenodd" stroke="none"/>
    <path d="M-23.0 -119.9 L-22.75 -120.0 -21.75 -120.75 -14.9 -121.5 -16.75 -120.0 -17.25 -119.5 -17.5 -119.4 -18.0 -118.9 -18.4 -118.65 -18.75 -118.25 -19.15 -118.0 -19.5 -117.65 -19.9 -117.4 -20.25 -117.0 -20.75 -116.65 -21.0 -116.4 -23.5 -114.4 -23.65 -114.15 -24.5 -113.75 -31.25 -113.0 -24.9 -118.4 -24.75 -118.5 -24.25 -118.9 -24.15 -119.0 -23.0 -119.9" fill="url(#gradient27)" fill-rule="evenodd" stroke="none"/>
    <path d="M-24.0 -119.4 L-23.0 -119.9 -24.15 -119.0 -24.0 -119.4 M-24.9 -118.4 L-31.25 -113.0 -31.75 -112.9 -24.9 -118.4" fill="url(#gradient28)" fill-rule="evenodd" stroke="none"/>
    <path d="M-30.65 -118.15 L-24.0 -119.4 -24.15 -119.0 -24.25 -118.9 -24.75 -118.5 -24.9 -118.4 -31.75 -112.9 -33.75 -111.5 -40.25 -110.5 -30.65 -118.15" fill="url(#gradient29)" fill-rule="evenodd" stroke="none"/>
    <path d="M-32.5 -119.15 L-30.65 -118.15 -40.25 -110.5 -40.65 -110.4 -42.5 -111.5 -32.5 -119.15" fill="url(#gradient30)" fill-rule="evenodd" stroke="none"/>
    <path d="M-47.0 -113.4 L-37.15 -120.9 -32.5 -119.15 -42.5 -111.5 -47.0 -113.4" fill="url(#gradient31)" fill-rule="evenodd" stroke="none"/>
    <path d="M-49.75 -112.9 L-40.0 -120.4 -37.15 -120.9 -47.0 -113.4 -49.75 -112.9" fill="url(#gradient32)" fill-rule="evenodd" stroke="none"/>
    <path d="M-1.15 -114.65 L-0.9 -114.5 -0.9 -105.25 -2.0 -105.0 -2.4 -105.0 -2.75 -104.9 -3.0 -104.9 -5.75 -104.4 -6.0 -104.4 -6.5 -104.25 -6.65 -104.25 -9.0 -103.9 -10.0 -103.75 -12.75 -103.25 -13.65 -103.15 -16.15 -102.75 -17.0 -102.65 -19.65 -102.15 -21.0 -102.0 -22.9 -101.75 -23.0 -104.65 -23.0 -105.9 -23.15 -106.4 -23.25 -110.0 -23.4 -110.75 -23.4 -112.75 -23.5 -113.0 -23.5 -114.15 -23.65 -114.15 -23.5 -114.4 -23.4 -114.4 -6.4 -118.15 -3.9 -118.15 -3.0 -117.9 -2.75 -117.75 -1.9 -117.4 -1.15 -114.65" fill="url(#gradient33)" fill-rule="evenodd" stroke="none"/>
    <path d="M-24.5 -113.75 L-23.65 -114.15 -23.5 -114.15 -23.5 -113.0 -23.4 -112.75 -23.4 -110.75 -23.25 -110.0 -23.15 -106.4 -23.15 -106.15 -23.0 -104.65 -22.9 -101.75 -22.75 -97.4 -22.65 -96.75 -22.25 -88.4 -23.5 -88.15 -24.0 -107.5 -24.5 -113.75" fill="url(#gradient34)" fill-rule="evenodd" stroke="none"/>
    <path d="M-1.15 -117.5 L-2.5 -118.65 -0.9 -119.75 -2.15 -118.75 -0.9 -117.65 -1.15 -117.5" fill="url(#gradient35)" fill-rule="evenodd" stroke="none"/>
    <path d="M-0.9 -119.75 L-0.9 -118.9 -2.15 -118.75 -0.9 -119.75" fill="url(#gradient36)" fill-rule="evenodd" stroke="none"/>
    <path d="M-0.9 -118.9 L-0.9 -117.65 -2.15 -118.75 -0.9 -118.9" fill="url(#gradient37)" fill-rule="evenodd" stroke="none"/>
    <path d="M-0.9 -117.65 L-0.9 -117.25 -1.25 -117.25 -1.15 -117.5 -0.9 -117.65" fill="url(#gradient38)" fill-rule="evenodd" stroke="none"/>
    <path d="M-3.0 -104.9 L-2.75 -104.9 -2.4 -105.0 -2.0 -105.0 -1.9 -96.15 -2.0 -95.65 -1.75 -91.75 -1.75 -91.4 -1.75 -91.25 -3.15 -91.15 -3.0 -104.9" fill="url(#gradient39)" fill-rule="evenodd" stroke="none"/>
    <path d="M-6.65 -104.25 L-6.5 -104.25 -6.0 -104.4 -5.75 -104.4 -5.65 -104.4 -5.25 -90.9 -5.25 -90.75 -6.5 -90.65 -6.65 -104.25" fill="url(#gradient40)" fill-rule="evenodd" stroke="none"/>
    <path d="M-10.0 -103.75 L-9.0 -103.9 -8.65 -90.4 -8.65 -90.25 -9.9 -90.15 -10.0 -103.75" fill="url(#gradient41)" fill-rule="evenodd" stroke="none"/>
    <path d="M-13.65 -103.15 L-12.75 -103.25 -12.65 -103.25 -12.25 -89.9 -12.25 -89.75 -13.5 -89.65 -13.65 -103.15" fill="url(#gradient42)" fill-rule="evenodd" stroke="none"/>
    <path d="M-17.0 -102.65 L-16.15 -102.75 -15.65 -89.4 -15.65 -89.25 -16.9 -89.15 -17.0 -102.65" fill="url(#gradient43)" fill-rule="evenodd" stroke="none"/>
    <path d="M-19.65 -102.15 L-19.25 -89.5 -19.15 -88.75 -20.4 -88.65 -20.9 -102.0 -21.0 -102.0 -19.65 -102.15" fill="url(#gradient44)" fill-rule="evenodd" stroke="none"/>
    <path d="M-23.0 -104.65 L-23.15 -106.15 -23.15 -106.4 -23.0 -105.9 -23.0 -104.65" fill="url(#gradient45)" fill-rule="evenodd" stroke="none"/>
    <path d="M-298.9 -99.4 L-293.5 -111.75 -253.65 -104.75 -298.9 -99.4" fill="url(#gradient46)" fill-rule="evenodd" stroke="none"/>
    <path d="M-248.75 -101.9 L-240.15 -96.4 -214.15 -76.4 -227.75 -80.25 -230.4 -80.0 -234.25 -78.75 -243.75 -69.4 -257.65 -92.5 -257.75 -92.9 -298.9 -99.4 -253.65 -104.75 -248.75 -101.9" fill="url(#gradient47)" fill-rule="evenodd" stroke="none"/>
    <path d="M-50.15 -108.75 L-49.25 -109.5 -49.15 -108.9 -50.15 -108.75" fill="url(#gradient48)" fill-rule="evenodd" stroke="none"/>
    <path d="M-27.25 -87.5 L-27.65 -106.15 -28.0 -108.65 -28.0 -112.5 -27.15 -112.75 -26.4 -95.75 -26.25 -94.9 -26.15 -89.5 -26.0 -88.0 -26.0 -87.75 -26.9 -87.5 -27.25 -87.5" fill="url(#gradient49)" fill-rule="evenodd" stroke="none"/>
    <path d="M-0.9 -84.25 L-0.9 -51.15 Q-14.9 -57.5 -20.5 -53.15 L-21.4 -53.65 -27.0 -53.25 -38.75 -51.15 -39.9 -50.65 -40.15 -52.4 Q-39.9 -69.65 -42.4 -71.15 -48.35 -77.75 -53.9 -77.45 L-52.5 -77.65 -48.75 -76.5 -45.75 -74.9 -45.15 -74.5 -44.9 -74.25 -44.65 -74.15 -43.0 -72.75 -41.0 -69.65 -40.4 -68.0 -40.25 -67.75 -39.65 -63.9 -36.25 -64.25 -36.5 -66.5 -38.25 -71.75 -40.75 -75.9 -44.25 -78.9 -44.5 -79.15 -46.65 -80.25 -49.4 -81.15 -52.0 -81.65 -53.4 -81.65 -55.15 -79.65 -56.5 -79.5 -56.9 -79.4 -57.5 -79.4 -57.9 -79.25 -62.65 -78.75 -65.75 -78.0 -67.0 -77.25 -67.15 -77.0 -67.25 -76.9 -67.15 -76.0 -67.0 -75.9 -66.9 -75.65 -67.5 -75.75 -67.5 -77.65 -64.0 -80.75 -56.4 -84.75 -55.5 -84.15 -53.4 -83.75 -52.15 -83.9 -46.15 -84.75 -45.75 -84.75 -43.65 -85.15 -43.15 -85.15 -42.75 -85.25 -42.5 -85.25 -40.25 -85.65 -39.15 -85.75 -36.65 -86.15 -35.4 -86.4 -33.65 -86.65 -32.5 -86.75 -30.5 -87.0 -29.25 -87.25 -27.25 -87.5 -26.9 -87.5 -25.9 -84.25 -24.75 -84.15 -24.65 -83.25 -23.9 -83.25 -23.65 -82.65 -22.25 -82.5 -22.15 -81.65 -12.15 -82.9 -10.9 -83.15 -10.9 -83.9 -9.9 -84.15 -10.0 -85.0 -8.4 -85.65 -8.5 -86.5 Q-6.25 -88.25 -5.75 -83.65 L-0.9 -84.25 M-0.9 -19.5 L-0.9 -16.4 -1.4 -16.25 -10.5 -16.0 -7.25 -19.25 -3.9 -19.15 -0.9 -19.5" fill="url(#gradient50)" fill-rule="evenodd" stroke="none"/>
    <path d="M-0.9 -91.5 L-0.9 -84.25 -5.75 -83.65 Q-6.25 -88.25 -8.5 -86.5 L-8.4 -85.65 -10.0 -85.0 -9.9 -84.15 -10.9 -83.9 -10.9 -83.15 -12.15 -82.9 -22.15 -81.65 -22.25 -82.5 -23.65 -82.65 -23.9 -83.25 -24.65 -83.25 -24.75 -84.15 -25.9 -84.25 -26.9 -87.5 -26.0 -87.75 -23.5 -88.15 -22.25 -88.4 -20.4 -88.65 -19.15 -88.75 -16.9 -89.15 -15.65 -89.25 -15.65 -89.4 -13.5 -89.65 -12.25 -89.75 -12.25 -89.9 -9.9 -90.15 -8.65 -90.25 -8.65 -90.4 -6.5 -90.65 -5.25 -90.75 -5.25 -90.9 -3.15 -91.15 -1.75 -91.25 -1.75 -91.4 -0.9 -91.5" fill="url(#gradient51)" fill-rule="evenodd" stroke="none"/>
    <path d="M-51.15 -108.15 L-50.75 -108.25 -50.65 -108.15 -51.0 -107.4 -51.15 -107.4 -51.75 -107.0 -52.25 -106.25 -53.75 -102.75 -54.0 -102.5 -55.5 -101.4 -56.75 -101.0 -61.0 -100.4 -51.15 -108.15" fill="url(#gradient52)" fill-rule="evenodd" stroke="none"/>
    <path d="M-63.5 -100.65 L-53.5 -108.4 -51.15 -108.15 -61.0 -100.4 -61.15 -100.25 -61.65 -100.25 -63.5 -100.65" fill="url(#gradient53)" fill-rule="evenodd" stroke="none"/>
    <path d="M-64.65 -99.15 L-64.65 -99.4 -64.5 -99.4 -64.65 -99.15 M-64.25 -100.0 L-64.15 -100.15 -63.5 -100.65 -61.65 -100.25 -61.65 -99.75 -61.25 -99.65 -62.65 -98.0 -63.65 -97.75 -63.25 -97.75 -63.5 -97.4 -63.65 -97.75 -64.15 -98.25 -64.25 -98.25 -64.25 -98.4 Q-63.65 -100.1 -62.25 -99.9 L-63.65 -100.15 -64.15 -99.25 -63.9 -100.15 -64.15 -99.75 -64.25 -100.0 M-55.15 -101.4 L-54.75 -101.15 -55.15 -101.15 -54.9 -101.0 -54.9 -100.9 -55.4 -100.5 -58.4 -100.25 -58.65 -100.5 -58.25 -100.65 -56.75 -101.0 -55.5 -101.4 -55.15 -101.4 M-55.0 -100.0 L-54.9 -100.0 -55.15 -99.9 -55.0 -100.0 M-55.15 -99.5 L-55.75 -99.65 -55.75 -100.0 -55.15 -99.9 -55.15 -99.5 M-56.9 -100.0 L-56.15 -99.65 -56.75 -99.65 -56.9 -100.0 M-57.25 -99.65 L-57.9 -99.65 -58.0 -100.0 -57.25 -99.65 M-59.15 -99.25 L-55.5 -99.4 -56.0 -98.5 -58.5 -98.7 -58.5 -98.75 -59.75 -98.65 -59.65 -99.25 -60.15 -100.0 -59.15 -99.25 M-59.0 -99.65 L-59.15 -100.0 -58.4 -99.65 -59.0 -99.65 M-60.0 -97.0 L-60.4 -97.0 -60.0 -97.5 -60.4 -97.75 -59.9 -98.15 -59.9 -97.25 -60.0 -97.15 -60.0 -97.0 M-61.4 -98.0 L-61.9 -98.0 -61.65 -98.25 -61.4 -98.0 M-61.15 -98.4 L-61.9 -98.4 -61.5 -98.65 -61.15 -98.4 M-60.9 -99.15 L-60.4 -98.9 -61.0 -98.9 -60.9 -99.15 M-58.15 -93.15 L-58.65 -93.65 -57.9 -93.65 -58.15 -93.15 M-59.65 -93.9 L-58.25 -93.9 -59.15 -93.5 -59.65 -93.9 M-57.4 -91.4 L-56.9 -91.5 -57.0 -91.25 -57.4 -91.4" fill="url(#gradient54)" fill-rule="evenodd" stroke="none"/>
    <path d="M-54.0 -102.5 L-53.75 -102.75 -52.25 -106.25 -51.75 -107.0 -51.15 -107.4 -51.0 -107.4 -50.4 -107.5 -50.0 -106.25 -49.9 -105.4 -50.0 -104.9 -50.0 -104.65 -50.15 -104.4 -50.9 -103.65 -51.15 -103.5 -51.9 -102.5 -52.0 -102.25 -52.25 -84.15 -52.15 -83.9 -53.4 -83.75 -53.9 -98.9 -54.0 -99.9 -54.25 -101.15 -54.15 -101.4 -54.0 -101.0 -54.15 -101.5 -54.25 -101.65 -54.25 -101.75 -54.0 -102.5 M-54.0 -99.9 L-53.9 -99.9 -54.0 -100.5 -54.0 -99.9 M-53.9 -98.9 L-53.75 -98.9 -53.9 -99.5 -53.9 -98.9" fill="url(#gradient55)" fill-rule="evenodd" stroke="none"/>
    <path d="M-45.75 -84.75 L-46.15 -84.75 -46.75 -84.75 -46.9 -96.9 -45.9 -96.75 -45.65 -85.0 -45.75 -84.75" fill="url(#gradient56)" fill-rule="evenodd" stroke="none"/>
    <path d="M-42.5 -85.25 L-42.75 -85.25 -43.15 -85.15 -43.65 -85.15 -44.25 -95.65 -44.15 -95.9 -43.15 -95.5 -42.65 -86.4 -42.5 -86.15 -42.5 -85.25" fill="url(#gradient57)" fill-rule="evenodd" stroke="none"/>
    <path d="M-39.15 -85.75 L-40.25 -85.65 -40.25 -95.5 -39.9 -95.5 -39.5 -95.4 -39.25 -89.15 -39.15 -88.5 -39.15 -85.75" fill="url(#gradient58)" fill-rule="evenodd" stroke="none"/>
    <path d="M-35.4 -86.4 L-36.65 -86.15 -37.15 -96.0 Q-35.25 -95.9 -35.75 -89.4 L-35.65 -88.9 -35.65 -87.5 -35.4 -86.4" fill="url(#gradient59)" fill-rule="evenodd" stroke="none"/>
    <path d="M-33.65 -86.65 L-33.9 -95.75 -32.9 -95.65 -32.5 -86.75 -33.65 -86.65" fill="url(#gradient60)" fill-rule="evenodd" stroke="none"/>
    <path d="M-30.5 -87.0 L-30.65 -95.9 -29.65 -96.0 -29.4 -88.25 -29.25 -87.75 -29.25 -87.25 -30.5 -87.0" fill="url(#gradient61)" fill-rule="evenodd" stroke="none"/>
    <path d="M-54.0 -102.5 L-54.25 -101.75 -54.25 -101.65 -54.75 -101.4 -55.15 -101.4 -55.5 -101.4 -54.0 -102.5" fill="url(#gradient62)" fill-rule="evenodd" stroke="none"/>
    <path d="M-56.25 -87.15 L-56.15 -88.0 -56.0 -88.15 -56.15 -88.15 -56.15 -88.5 -56.0 -90.25 -56.0 -93.4 -55.65 -96.9 -55.65 -97.15 -55.5 -97.25 -55.4 -97.5 -55.4 -97.65 -55.25 -97.75 -55.4 -97.75 -55.25 -98.65 -55.0 -99.25 -55.0 -99.65 -55.15 -99.9 -54.9 -100.0 -55.0 -100.0 -54.75 -100.75 -54.9 -100.9 -54.9 -101.0 -54.75 -101.15 -54.65 -101.4 -54.75 -101.4 -54.25 -101.65 -54.15 -101.5 -54.15 -101.4 -54.25 -101.15 -54.0 -99.9 -53.9 -98.9 -53.4 -83.75 -55.5 -84.15 -56.4 -84.75 -56.25 -87.15 M-54.5 -99.75 L-54.5 -100.15 -54.65 -100.0 -54.65 -99.75 -54.5 -99.75 M-54.75 -99.5 L-54.75 -99.15 -54.4 -99.4 -54.65 -99.5 -54.75 -99.5 M-54.4 -100.25 L-54.4 -100.4 -54.5 -100.4 -54.4 -100.25" fill="url(#gradient63)" fill-rule="evenodd" stroke="none"/>
    <path d="M-250.0 -106.65 L-248.75 -101.9 -253.65 -104.75 -250.0 -106.65" fill="url(#gradient64)" fill-rule="evenodd" stroke="none"/>
    <path d="M-353.75 -0.9 L-357.5 -0.9 -356.75 -4.4 -356.15 -10.65 -357.25 -19.5 Q-350.15 -26.75 -350.15 -46.65 L-352.15 -53.75 -355.15 -57.15 -354.65 -59.75 -355.0 -65.4 -356.4 -67.4 -358.5 -67.4 -357.15 -69.4 -356.9 -70.4 -356.5 -70.5 -343.65 -93.75 -341.25 -102.15 -340.75 -103.65 -315.15 -99.25 -298.9 -99.4 -298.65 -98.9 -298.75 -98.65 -299.0 -98.5 -300.4 -98.4 -298.4 -96.9 -290.0 -54.25 -292.15 -40.25 Q-298.75 -48.0 -308.4 -48.9 L-321.25 -48.65 -327.25 -48.9 -333.75 -46.75 -336.5 -45.0 Q-340.25 -43.9 -347.0 -34.75 L-351.15 -25.9 -352.75 -17.9 -353.65 -16.25 -354.65 -7.4 -353.75 -0.9" fill="url(#gradient65)" fill-rule="evenodd" stroke="none"/>
    <path d="M-341.25 -102.15 L-343.65 -93.75 -356.5 -70.5 -356.9 -70.4 -358.5 -86.65 -341.65 -102.15 -341.25 -102.15" fill="url(#gradient66)" fill-rule="evenodd" stroke="none"/>
    <path d="M-54.15 -101.5 L-54.0 -101.0 -54.15 -101.4 -54.15 -101.5" fill="url(#gradient67)" fill-rule="evenodd" stroke="none"/>
    <path d="M-55.15 -99.9 L-55.0 -99.65 -55.0 -99.25 -55.25 -98.65 -55.4 -97.75 -55.4 -97.65 -55.4 -97.5 -55.5 -97.25 -55.65 -97.15 -55.65 -97.4 -55.5 -98.15 -55.4 -98.4 -55.15 -99.4 -55.15 -99.5 -55.15 -99.9 M-56.0 -93.4 L-56.0 -90.25 -56.15 -90.65 -56.0 -93.4" fill="url(#gradient68)" fill-rule="evenodd" stroke="none"/>
    <path d="M-55.4 -97.75 L-55.25 -97.75 -55.4 -97.65 -55.4 -97.75 M-54.65 -100.0 L-54.5 -99.75 -54.65 -99.75 -54.65 -100.0 M-54.4 -100.25 L-54.5 -100.4 -54.4 -100.4 -54.4 -100.25" fill="url(#gradient69)" fill-rule="evenodd" stroke="none"/>
    <path d="M-63.5 -97.4 L-64.25 -98.25 -64.5 -98.65 -64.25 -98.4 -64.25 -98.25 -64.15 -98.25 -63.65 -97.75 -63.5 -97.4" fill="url(#gradient70)" fill-rule="evenodd" stroke="none"/>
    <path d="M-54.0 -99.9 L-54.0 -100.5 -53.9 -99.9 -54.0 -99.9 M-53.9 -98.9 L-53.9 -99.5 -53.75 -98.9 -53.9 -98.9" fill="url(#gradient71)" fill-rule="evenodd" stroke="none"/>
    <path d="M-263.0 -30.0 L-266.9 -53.9 -267.4 -55.0 -297.0 -96.9 -296.75 -97.9 -295.15 -98.4 -296.65 -98.4 -298.4 -98.65 -298.65 -98.9 -298.9 -99.4 -257.75 -92.9 -257.65 -92.5 -258.4 -70.5 -255.75 -39.65 -263.0 -30.0" fill="url(#gradient72)" fill-rule="evenodd" stroke="none"/>
    <path d="M-242.75 -26.9 L-243.4 -1.65 -243.5 -1.0 -264.65 -0.9 -263.9 -8.25 -264.9 -17.0 Q-269.9 -24.75 -271.5 -24.5 L-274.25 -30.75 -281.25 -37.9 Q-284.25 -41.0 -291.75 -39.9 L-292.15 -40.25 -290.0 -54.25 -298.4 -96.9 -297.0 -96.9 -267.4 -55.0 -266.9 -53.9 -263.0 -30.0 -262.25 -29.9 -251.65 -34.0 -242.75 -26.9 M-298.65 -98.9 L-298.4 -98.65 -298.75 -98.65 -298.65 -98.9" fill="url(#gradient73)" fill-rule="evenodd" stroke="none"/>
    <path d="M-298.4 -98.65 L-296.65 -98.4 -299.0 -98.5 -298.75 -98.65 -298.4 -98.65" fill="url(#gradient74)" fill-rule="evenodd" stroke="none"/>
    <path d="M-297.0 -96.9 L-298.4 -96.9 -300.4 -98.4 -299.0 -98.5 -296.65 -98.4 -295.15 -98.4 -296.75 -97.9 -297.0 -96.9" fill="url(#gradient75)" fill-rule="evenodd" stroke="none"/>
    <path d="M-264.65 -0.9 L-353.75 -0.9 -354.65 -7.4 -353.65 -16.25 -352.75 -17.9 -351.15 -25.9 -347.0 -34.75 Q-340.25 -43.9 -336.5 -45.0 L-333.75 -46.75 -327.25 -48.9 -321.25 -48.65 -308.4 -48.9 Q-298.75 -48.0 -292.15 -40.25 L-291.75 -39.9 Q-284.25 -41.0 -281.25 -37.9 L-274.25 -30.75 -271.5 -24.5 Q-269.9 -24.75 -264.9 -17.0 L-263.9 -8.25 -264.65 -0.9" fill="url(#gradient76)" fill-rule="evenodd" stroke="none"/>
    <path d="M-241.25 -26.0 L-242.75 -26.9 -251.65 -34.0 -262.25 -29.9 -263.0 -30.0 -255.75 -39.65 -254.25 -38.65 -241.25 -26.0" fill="url(#gradient77)" fill-rule="evenodd" stroke="none"/>
    <path d="M-165.0 -0.9 L-208.65 -0.9 -221.75 -12.4 -222.25 -12.75 -222.65 -13.15 -239.9 -24.65 -241.25 -26.0 -254.25 -38.65 -255.75 -39.65 -258.4 -70.5 -243.75 -69.4 -192.15 -33.65 -159.25 -8.4 -165.0 -0.9" fill="url(#gradient78)" fill-rule="evenodd" stroke="none"/>
    <path d="M-257.65 -92.5 L-243.75 -69.4 -258.4 -70.5 -257.65 -92.5" fill="url(#gradient79)" fill-rule="evenodd" stroke="none"/>
    <path d="M-29.25 -98.65 L-29.4 -97.75 -30.75 -97.5 -30.9 -98.15 -30.5 -98.65 -29.25 -98.65" fill="url(#gradient80)" fill-rule="evenodd" stroke="none"/>
    <path d="M-29.4 -97.75 L-29.25 -98.65 -28.9 -98.5 -29.4 -97.75" fill="url(#gradient81)" fill-rule="evenodd" stroke="none"/>
    <path d="M-60.0 -97.0 L-60.0 -97.15 -59.9 -97.25 -60.0 -97.0" fill="url(#gradient82)" fill-rule="evenodd" stroke="none"/>
    <path d="M-400.0 -27.4 L-400.0 -60.65 -373.5 -83.75 -366.5 -96.4 -366.5 -96.5 -364.75 -99.4 -368.75 -78.0 -368.4 -78.0 -360.75 -66.9 Q-371.15 -66.15 -387.65 -47.5 -393.4 -40.5 -395.25 -24.65 L-400.0 -27.4" fill="url(#gradient83)" fill-rule="evenodd" stroke="none"/>
    <path d="M-357.5 -0.9 L-390.15 -0.9 Q-393.9 -5.25 -395.15 -24.4 L-395.25 -24.65 Q-393.4 -40.5 -387.65 -47.5 -371.15 -66.15 -360.75 -66.9 L-358.5 -67.4 -356.4 -67.4 -355.0 -65.4 -354.65 -59.75 -355.15 -57.15 -352.15 -53.75 -350.15 -46.65 Q-350.15 -26.75 -357.25 -19.5 L-356.15 -10.65 -356.75 -4.4 -357.5 -0.9" fill="url(#gradient84)" fill-rule="evenodd" stroke="none"/>
    <path d="M-390.15 -0.9 L-400.0 -0.9 -400.0 -27.4 -395.25 -24.65 -395.15 -24.4 Q-393.9 -5.25 -390.15 -0.9" fill="url(#gradient85)" fill-rule="evenodd" stroke="none"/>
    <path d="M-400.0 -60.65 L-400.0 -66.75 -384.25 -82.5 -371.9 -92.75 -366.5 -96.5 -366.5 -96.4 -373.5 -83.75 -400.0 -60.65" fill="url(#gradient86)" fill-rule="evenodd" stroke="none"/>
    <path d="M-1.9 -96.15 L-1.75 -91.75 -2.0 -95.65 -1.9 -96.15" fill="url(#gradient87)" fill-rule="evenodd" stroke="none"/>
    <path d="M-56.0 -90.25 L-56.25 -90.25 -56.15 -90.65 -56.0 -90.25" fill="url(#gradient88)" fill-rule="evenodd" stroke="none"/>
    <path d="M-56.15 -88.0 L-56.15 -88.15 -56.0 -88.15 -56.15 -88.0" fill="url(#gradient89)" fill-rule="evenodd" stroke="none"/>
    <path d="M-64.0 -80.75 L-56.25 -87.15 -56.4 -84.75 -64.0 -80.75" fill="url(#gradient90)" fill-rule="evenodd" stroke="none"/>
    <path d="M-53.9 -77.45 L-55.4 -77.25 -55.5 -77.25 -56.4 -77.15 -56.9 -77.0 -57.25 -77.0 -66.9 -75.65 -67.0 -75.9 -67.15 -76.0 -67.25 -76.9 -67.15 -77.0 -67.0 -77.25 -65.75 -78.0 -62.65 -78.75 -57.9 -79.25 -57.5 -79.4 -56.9 -79.4 -56.5 -79.5 -55.15 -79.65 -53.4 -81.65 -52.0 -81.65 -49.4 -81.15 -46.65 -80.25 -44.5 -79.15 -44.25 -78.9 -40.75 -75.9 -38.25 -71.75 -36.5 -66.5 -36.25 -64.25 -39.65 -63.9 -40.25 -67.75 -40.4 -68.0 -41.0 -69.65 -43.0 -72.75 -44.65 -74.15 -44.9 -74.25 -45.15 -74.5 -45.75 -74.9 -48.75 -76.5 -52.5 -77.65 -53.9 -77.45" fill="url(#gradient91)" fill-rule="evenodd" stroke="none"/>
    <path d="M-124.75 -21.0 L-87.5 -36.4 -54.4 -47.15 -40.15 -52.4 -39.9 -50.65 -38.75 -51.15 -27.0 -53.25 -21.4 -53.65 -20.5 -53.15 -19.15 -50.4 -18.9 -47.15 -17.65 -47.4 -16.15 -44.25 -49.9 -34.9 -81.5 -24.5 -105.75 -14.9 -128.9 -7.4 -130.25 -17.15 -126.75 -20.0 -124.75 -21.0" fill="url(#gradient92)" fill-rule="evenodd" stroke="none"/>
    <path d="M-139.75 -24.0 L-124.75 -21.0 -126.75 -20.0 -130.25 -17.15 -128.9 -7.4 -158.9 -8.4 -148.5 -18.65 -144.15 -21.0 -139.75 -24.0" fill="url(#gradient93)" fill-rule="evenodd" stroke="none"/>
    <path d="M-214.15 -76.4 L-197.9 -65.5 -168.75 -44.0 -139.75 -24.0 -144.15 -21.0 -148.5 -18.65 -158.9 -8.4 -159.25 -8.4 -192.15 -33.65 -243.75 -69.4 -234.25 -78.75 -230.4 -80.0 -227.75 -80.25 -214.15 -76.4" fill="url(#gradient94)" fill-rule="evenodd" stroke="none"/>
    <path d="M-112.15 -0.9 L-165.0 -0.9 -159.25 -8.4 -158.9 -8.4 -128.9 -7.4 -112.15 -0.9" fill="url(#gradient95)" fill-rule="evenodd" stroke="none"/>
    <path d="M-0.9 -51.15 L-0.9 -28.4 -1.25 -28.5 -2.25 -27.65 -11.75 -28.5 -14.25 -32.65 Q-16.4 -36.5 -14.5 -42.5 L-16.15 -44.25 -17.65 -47.4 -18.9 -47.15 -19.15 -50.4 -20.5 -53.15 Q-14.9 -57.5 -0.9 -51.15 M-0.9 -26.0 L-0.9 -19.5 -3.9 -19.15 -7.25 -19.25 -7.4 -19.5 -0.9 -26.0" fill="url(#gradient96)" fill-rule="evenodd" stroke="none"/>
    <path d="M-0.9 -28.4 L-0.9 -26.0 -7.4 -19.5 -7.25 -19.25 -10.5 -16.0 -14.9 -12.4 -33.65 -8.5 -49.9 -0.9 -95.0 -0.9 -105.75 -14.9 -81.5 -24.5 -49.9 -34.9 -16.15 -44.25 -14.5 -42.5 Q-16.4 -36.5 -14.25 -32.65 L-11.75 -28.5 -2.25 -27.65 -1.25 -28.5 -0.9 -28.4" fill="url(#gradient97)" fill-rule="evenodd" stroke="none"/>
    <path d="M-95.0 -0.9 L-112.15 -0.9 -128.9 -7.4 -105.75 -14.9 -95.0 -0.9" fill="url(#gradient98)" fill-rule="evenodd" stroke="none"/>
    <path d="M-351.65 -117.4 L-336.0 -121.65 -320.65 -122.9 -320.65 -122.4 -320.75 -122.0 -321.65 -121.5 -330.75 -120.75 -346.25 -117.0 -351.65 -117.4 M-272.9 -117.0 L-274.15 -117.75 -275.0 -118.9 -274.65 -118.9 -273.65 -120.25 -276.4 -122.15 -277.4 -122.25 -277.75 -122.65 -277.9 -122.65 -277.9 -125.25 -274.9 -126.0 -271.9 -125.4 -270.4 -121.4 -267.75 -120.15 -267.65 -119.15 -268.65 -118.0 -272.9 -117.0" fill="#ab0000" fill-opacity="0.9098039" fill-rule="evenodd" stroke="none"/>
    <path d="M-334.4 -3.9 L-332.25 -11.75 -332.4 -12.0 -332.15 -12.25 -329.65 -22.0 -329.5 -22.25 -325.0 -31.9 -324.75 -32.25 -320.65 -40.5 -320.4 -40.75 -317.4 -47.0 -317.15 -47.25 -316.5 -48.5 -316.4 -48.75 -316.25 -49.0 -316.25 -49.4 -307.5 -66.4 -305.4 -81.0 -305.5 -81.65 -302.65 -101.25 -302.75 -101.5 -301.5 -109.5 -299.15 -110.65 -298.25 -110.9 -295.0 -112.25 -293.15 -112.75 -292.9 -113.4 -283.4 -116.5 -283.25 -116.65 -275.0 -118.9 -274.15 -117.75 -272.9 -117.0 -275.4 -116.15 -276.5 -115.9 -277.9 -115.4 -278.25 -115.4 -280.5 -114.75 -281.25 -114.25 -282.75 -114.0 -283.15 -113.75 -283.15 -113.65 -283.5 -113.4 -284.15 -113.15 -287.75 -111.0 -293.0 -108.15 -295.4 -99.25 -295.5 -99.25 -295.5 -98.9 -295.65 -98.4 -295.9 -98.0 -295.75 -97.9 -297.4 -92.25 -297.25 -90.5 -300.0 -71.75 -299.9 -71.0 -300.75 -64.5 -309.75 -46.75 -310.0 -46.4 -314.25 -37.65 -314.65 -37.15 -319.75 -26.75 -320.15 -26.4 -321.65 -23.0 -307.9 -17.15 -307.75 -16.9 -293.15 -10.5 -299.75 -9.5 -300.15 -9.25 -326.4 -5.15 -327.0 -5.0 -327.15 -4.75 -327.75 -4.9 -328.15 -4.9 -334.4 -3.9" fill="#9b0000" fill-opacity="0.9098039" fill-rule="evenodd" stroke="none"/>
    <path d="M-356.15 -103.75 L-356.4 -103.15 -356.65 -102.9 -357.25 -101.25 -359.65 -89.4 -359.5 -88.65 -360.25 -85.25 -360.5 -84.75 -362.0 -77.4 -373.25 -60.25 -373.5 -60.15 -374.5 -58.75 -374.5 -58.25 -375.5 -56.9 -375.9 -56.5 -376.65 -55.15 -377.65 -53.9 -378.75 -51.9 -379.0 -51.75 -383.25 -45.15 -383.65 -44.75 -386.75 -39.75 -389.5 -28.75 -389.65 -28.5 -391.9 -19.4 -392.0 -19.15 -393.75 -12.65 -394.4 -17.15 -394.4 -18.0 -395.0 -21.5 -395.0 -24.0 -395.25 -24.4 -395.25 -24.65 -394.65 -29.0 -394.5 -29.4 -394.65 -29.65 -394.25 -30.75 -394.15 -32.25 -392.25 -38.75 -391.75 -39.5 -391.75 -40.15 -397.0 -40.4 -392.75 -41.4 -386.0 -51.0 -386.0 -51.5 -385.4 -52.15 -368.25 -77.5 -368.25 -77.75 -367.5 -79.0 -363.5 -97.5 -363.65 -98.4 -363.15 -100.5 -363.0 -100.75 -356.15 -103.75 M-334.4 -3.9 L-328.15 -4.9 -327.75 -4.9 -327.15 -4.75 -327.0 -5.0 -326.4 -5.15 -300.15 -9.25 -299.75 -9.5 -293.15 -10.5 -293.0 -9.25 -293.4 -0.9 -335.15 -0.9 -335.0 -1.5 -334.9 -1.75 -334.4 -3.9" fill="#9e0000" fill-opacity="0.9098039" fill-rule="evenodd" stroke="none"/>
    <path d="M-363.0 -100.75 L-362.5 -103.4 -351.65 -117.4 -346.25 -117.0 -355.65 -104.15 -355.9 -104.0 -356.15 -103.75 -363.0 -100.75" fill="#ae0000" fill-opacity="0.9098039" fill-rule="evenodd" stroke="none"/>
    <path d="M-393.75 -12.65 L-393.75 -11.4 -394.25 -10.75 -394.15 -10.4 -394.4 -9.9 -394.75 -11.5 -395.9 -23.65 -395.75 -24.15 -395.75 -25.0 -395.65 -25.15 -396.0 -25.5 -395.75 -25.65 -396.15 -28.15 -396.25 -28.5 -396.25 -29.0 -396.15 -29.25 -397.15 -39.0 -397.0 -40.4 -391.75 -40.15 -391.75 -39.5 -392.25 -38.75 -394.15 -32.25 -394.25 -30.75 -394.65 -29.65 -394.5 -29.4 -394.65 -29.0 -395.25 -24.65 -395.25 -24.4 -395.0 -24.0 -395.0 -21.5 -394.4 -18.0 -394.4 -17.15 -393.75 -12.65" fill="#b20000" fill-rule="evenodd" stroke="none"/>
    <path d="M-392.9 -8.0 L-392.5 -7.4 -392.25 -6.25 -399.25 -11.5 -399.4 -13.15 -399.5 -13.4 -399.15 -16.9 -399.15 -17.25 -398.9 -18.4 -399.15 -19.4 -398.75 -20.25 -398.25 -26.4 -398.4 -26.65 -398.15 -27.75 -398.25 -28.25 -398.0 -29.4 -397.75 -31.9 -397.9 -33.0 -397.65 -33.15 -397.75 -34.5 -397.15 -39.0 -396.15 -29.25 -396.25 -29.0 -396.25 -28.5 -396.15 -28.15 -395.75 -25.65 -396.0 -25.5 -395.65 -25.15 -395.75 -25.0 -395.75 -24.15 -395.9 -23.65 -394.75 -11.5 -394.4 -9.9 -394.4 -9.0 -393.75 -8.5 -392.9 -8.0" fill="#c90000" fill-rule="evenodd" stroke="none"/>
    <path d="M-393.75 -11.4 L-393.65 -11.4 -393.5 -9.9 -393.0 -8.5 -392.9 -8.0 -393.75 -8.5 -394.4 -9.0 -394.4 -9.9 -394.15 -10.4 -394.25 -10.75 -393.75 -11.4" fill="#dd0000" fill-opacity="0.9098039" fill-rule="evenodd" stroke="none"/>
    <path d="M-390.15 -0.9 L-391.4 -0.9 -393.4 -3.65 -393.75 -4.0 -399.25 -11.5 -392.25 -6.25 -390.65 -1.9 -390.75 -1.75 -390.5 -1.5 -390.15 -0.9" fill="#ca0000" fill-rule="evenodd" stroke="none"/>
    <path d="M-392.5 -7.4 L-385.25 -1.15 -385.0 -0.9 -390.15 -0.9 -390.5 -1.5 -390.75 -1.75 -390.65 -1.9 -392.25 -6.25 -392.5 -7.4" fill="#b50000" fill-opacity="0.9098039" fill-rule="evenodd" stroke="none"/>
    <path d="M-293.4 -0.9 L-293.0 -9.25 -293.15 -10.5 -265.0 -6.4 -264.4 -6.25 -264.0 -6.25 -256.65 -5.15 -243.65 -1.9 -243.25 -1.9 -243.4 -1.65 -243.5 -0.9 -293.4 -0.9" fill="#d60000" fill-opacity="0.9098039" fill-rule="evenodd" stroke="none"/>
    <path d="M-243.4 -1.65 L-243.25 -1.9 -234.65 -4.15 -233.9 -4.25 -233.75 -3.9 -234.25 -0.9 -240.15 -0.9 -243.4 -1.65" fill="#c60000" fill-opacity="0.9098039" fill-rule="evenodd" stroke="none"/>
    <path d="M-234.25 -0.9 L-233.75 -3.9 -231.5 -0.9 -234.25 -0.9" fill="#ff0000" fill-opacity="0.9098039" fill-rule="evenodd" stroke="none"/>
    <path d="M-243.5 -0.9 L-243.4 -1.65 -240.15 -0.9 -243.5 -0.9" fill="#e80000" fill-rule="evenodd" stroke="none"/>
  </g>
  <defs>
    <radialGradient cx="0" cy="0" gradientTransform="matrix(0.247, 0.0, 0.0, 0.247, -400.0, -239.65)" gradientUnits="userSpaceOnUse" id="gradient0" r="819.2" spreadMethod="pad">
      <stop offset="0.0" stop-color="#3e3e3e"/>
      <stop offset="1.0" stop-color="#1f1f1f"/>
    </radialGradient>
    <radialGradient cx="0" cy="0" gradientTransform="matrix(0.2509, 0.0, 0.0, 0.2509, -190.5, -187.1)" gradientUnits="userSpaceOnUse" id="gradient1" r="819.2" spreadMethod="pad">
      <stop offset="0.0" stop-color="#424242"/>
      <stop offset="1.0" stop-color="#1a1a1a"/>
    </radialGradient>
    <radialGradient cx="0" cy="0" gradientTransform="matrix(0.1933, 0.0, 0.0, 0.1933, -318.85, -132.7)" gradientUnits="userSpaceOnUse" id="gradient2" r="819.2" spreadMethod="pad">
      <stop offset="0.0" stop-color="#7d7d7d"/>
      <stop offset="1.0" stop-color="#0a0a0a"/>
    </radialGradient>
    <radialGradient cx="0" cy="0" gradientTransform="matrix(0.0691, 0.0, 0.0, 0.0691, -382.4, -241.3)" gradientUnits="userSpaceOnUse" id="gradient3" r="819.2" spreadMethod="pad">
      <stop offset="0.0" stop-color="#767676"/>
      <stop offset="1.0" stop-color="#767676"/>
    </radialGradient>
    <radialGradient cx="0" cy="0" gradientTransform="matrix(0.0095, 0.0, 0.0, 0.0095, -382.4, -241.3)" gradientUnits="userSpaceOnUse" id="gradient4" r="819.2" spreadMethod="pad">
      <stop offset="0.0" stop-color="#767676"/>
      <stop offset="1.0" stop-color="#767676"/>
    </radialGradient>
    <radialGradient cx="0" cy="0" gradientTransform="matrix(0.0128, 0.0, 0.0, 0.0128, -378.25, -240.35)" gradientUnits="userSpaceOnUse" id="gradient5" r="819.2" spreadMethod="pad">
      <stop offset="0.0" stop-color="#8a8a8a"/>
      <stop offset="1.0" stop-color="#898989"/>
    </radialGradient>
    <radialGradient cx="0" cy="0" gradientTransform="matrix(0.0452, 0.0, 0.0, 0.0452, -386.8, -294.15)" gradientUnits="userSpaceOnUse" id="gradient6" r="819.2" spreadMethod="pad">
      <stop offset="0.0" stop-color="#080808"/>
      <stop offset="1.0" stop-color="#080808"/>
    </radialGradient>
    <radialGradient cx="0" cy="0" gradientTransform="matrix(0.0058, 0.0, 0.0, 0.0058, -374.05, -214.9)" gradientUnits="userSpaceOnUse" id="gradient7" r="819.2" spreadMethod="pad">
      <stop offset="0.0" stop-color="#e2e2e2"/>
      <stop offset="1.0" stop-color="#e0e0e0"/>
    </radialGradient>
    <radialGradient cx="0" cy="0" gradientTransform="matrix(0.0136, 0.0, 0.0, 0.0136, -379.2, -207.6)" gradientUnits="userSpaceOnUse" id="gradient8" r="819.2" spreadMethod="pad">
      <stop offset="0.0" stop-color="#e1e1e1"/>
      <stop offset="1.0" stop-color="#dedede"/>
    </radialGradient>
    <radialGradient cx="0" cy="0" gradientTransform="matrix(0.0273, 0.0, 0.0, 0.0273, -347.05, -159.65)" gradientUnits="userSpaceOnUse" id="gradient9" r="819.2" spreadMethod="pad">
      <stop offset="0.0" stop-color="#ff5151"/>
      <stop offset="1.0" stop-color="#330000"/>
    </radialGradient>
    <radialGradient cx="0" cy="0" gradientTransform="matrix(0.027, 0.0, 0.0, 0.027, -346.5, -159.35)" gradientUnits="userSpaceOnUse" id="gradient10" r="819.2" spreadMethod="pad">
      <stop offset="0.0" stop-color="#ff5151"/>
      <stop offset="1.0" stop-color="#ff4c4c"/>
    </radialGradient>
    <radialGradient cx="0" cy="0" gradientTransform="matrix(0.0254, 0.0, 0.0, 0.0254, -348.55, -152.35)" gradientUnits="userSpaceOnUse" id="gradient11" r="819.2" spreadMethod="pad">
      <stop offset="0.0" stop-color="#ff3030"/>
      <stop offset="1.0" stop-color="#ff2d2d"/>
    </radialGradient>
    <radialGradient cx="0" cy="0" gradientTransform="matrix(0.0314, 0.0, 0.0, 0.0314, -343.25, -154.5)" gradientUnits="userSpaceOnUse" id="gradient12" r="819.2" spreadMethod="pad">
      <stop offset="0.0" stop-color="#f89797"/>
      <stop offset="1.0" stop-color="#864242"/>
    </radialGradient>
    <radialGradient cx="0" cy="0" gradientTransform="matrix(0.0422, 0.0, 0.0, 0.0422, -320.0, -126.95)" gradientUnits="userSpaceOnUse" id="gradient13" r="819.2" spreadMethod="pad">
      <stop offset="0.0" stop-color="#181818"/>
      <stop offset="1.0" stop-color="#000000"/>
    </radialGradient>
    <radialGradient cx="0" cy="0" gradientTransform="matrix(0.0108, 0.0, 0.0, 0.0108, -329.6, -112.1)" gradientUnits="userSpaceOnUse" id="gradient14" r="819.2" spreadMethod="pad">
      <stop offset="0.0" stop-color="#0e0e0e"/>
      <stop offset="1.0" stop-color="#000000"/>
    </radialGradient>
    <radialGradient cx="0" cy="0" gradientTransform="matrix(0.0686, 0.0, 0.0, 0.0686, -310.25, -115.0)" gradientUnits="userSpaceOnUse" id="gradient15" r="819.2" spreadMethod="pad">
      <stop offset="0.0" stop-color="#3c3c3c"/>
      <stop offset="1.0" stop-color="#000000"/>
    </radialGradient>
    <radialGradient cx="0" cy="0" gradientTransform="matrix(0.0556, 0.0, 0.0, 0.0556, -348.5, -59.0)" gradientUnits="userSpaceOnUse" id="gradient16" r="819.2" spreadMethod="pad">
      <stop offset="0.0" stop-color="#171717"/>
      <stop offset="1.0" stop-color="#000000"/>
    </radialGradient>
    <radialGradient cx="0" cy="0" gradientTransform="matrix(0.0363, 0.0, 0.0, 0.0363, -336.5, -106.75)" gradientUnits="userSpaceOnUse" id="gradient17" r="819.2" spreadMethod="pad">
      <stop offset="0.0" stop-color="#000000"/>
      <stop offset="1.0" stop-color="#000000"/>
    </radialGradient>
    <radialGradient cx="0" cy="0" gradientTransform="matrix(0.162, 0.0, 0.0, 0.162, -278.55, -133.7)" gradientUnits="userSpaceOnUse" id="gradient18" r="819.2" spreadMethod="pad">
      <stop offset="0.0" stop-color="#1a1a1a"/>
      <stop offset="1.0" stop-color="#0d0d0d"/>
    </radialGradient>
    <radialGradient cx="0" cy="0" gradientTransform="matrix(0.1541, 0.0, 0.0, 0.1541, -277.95, -126.95)" gradientUnits="userSpaceOnUse" id="gradient19" r="819.2" spreadMethod="pad">
      <stop offset="0.0" stop-color="#101010"/>
      <stop offset="1.0" stop-color="#000000"/>
    </radialGradient>
    <radialGradient cx="0" cy="0" gradientTransform="matrix(0.0229, 0.0, 0.0, 0.0229, -305.75, -130.3)" gradientUnits="userSpaceOnUse" id="gradient20" r="819.2" spreadMethod="pad">
      <stop offset="0.0" stop-color="#797979"/>
      <stop offset="1.0" stop-color="#000000"/>
    </radialGradient>
    <radialGradient cx="0" cy="0" gradientTransform="matrix(0.0305, 0.0, 0.0, 0.0305, -23.45, -114.4)" gradientUnits="userSpaceOnUse" id="gradient21" r="819.2" spreadMethod="pad">
      <stop offset="0.0" stop-color="#060606"/>
      <stop offset="1.0" stop-color="#060606"/>
    </radialGradient>
    <radialGradient cx="0" cy="0" gradientTransform="matrix(0.0308, 0.0, 0.0, 0.0308, -23.7, -113.95)" gradientUnits="userSpaceOnUse" id="gradient22" r="819.2" spreadMethod="pad">
      <stop offset="0.0" stop-color="#040404"/>
      <stop offset="1.0" stop-color="#040404"/>
    </radialGradient>
    <radialGradient cx="0" cy="0" gradientTransform="matrix(0.0676, 0.0, 0.0, 0.0676, -54.1, -101.7)" gradientUnits="userSpaceOnUse" id="gradient23" r="819.2" spreadMethod="pad">
      <stop offset="0.0" stop-color="#040404"/>
      <stop offset="1.0" stop-color="#040404"/>
    </radialGradient>
    <radialGradient cx="0" cy="0" gradientTransform="matrix(0.004, 0.0, 0.0, 0.004, -2.45, -118.7)" gradientUnits="userSpaceOnUse" id="gradient24" r="819.2" spreadMethod="pad">
      <stop offset="0.0" stop-color="#040404"/>
      <stop offset="1.0" stop-color="#040404"/>
    </radialGradient>
    <radialGradient cx="0" cy="0" gradientTransform="matrix(0.0391, 0.0, 0.0, 0.0391, -277.7, -122.7)" gradientUnits="userSpaceOnUse" id="gradient25" r="819.2" spreadMethod="pad">
      <stop offset="0.0" stop-color="#7b7b7b"/>
      <stop offset="1.0" stop-color="#090909"/>
    </radialGradient>
    <radialGradient cx="0" cy="0" gradientTransform="matrix(0.0201, 0.0, 0.0, 0.0201, -261.6, -109.3)" gradientUnits="userSpaceOnUse" id="gradient26" r="819.2" spreadMethod="pad">
      <stop offset="0.0" stop-color="#444444"/>
      <stop offset="1.0" stop-color="#343434"/>
    </radialGradient>
    <radialGradient cx="0" cy="0" gradientTransform="matrix(0.0233, 0.0, 0.0, 0.0233, -14.35, -121.75)" gradientUnits="userSpaceOnUse" id="gradient27" r="819.2" spreadMethod="pad">
      <stop offset="0.0" stop-color="#040404"/>
      <stop offset="1.0" stop-color="#040404"/>
    </radialGradient>
    <radialGradient cx="0" cy="0" gradientTransform="matrix(0.018, 0.0, 0.0, 0.018, -21.7, -120.8)" gradientUnits="userSpaceOnUse" id="gradient28" r="819.2" spreadMethod="pad">
      <stop offset="0.0" stop-color="#0a0a0a"/>
      <stop offset="1.0" stop-color="#0a0a0a"/>
    </radialGradient>
    <radialGradient cx="0" cy="0" gradientTransform="matrix(0.0232, 0.0, 0.0, 0.0232, -23.7, -119.5)" gradientUnits="userSpaceOnUse" id="gradient29" r="819.2" spreadMethod="pad">
      <stop offset="0.0" stop-color="#040404"/>
      <stop offset="1.0" stop-color="#040404"/>
    </radialGradient>
    <radialGradient cx="0" cy="0" gradientTransform="matrix(0.0166, 0.0, 0.0, 0.0166, -30.65, -118.2)" gradientUnits="userSpaceOnUse" id="gradient30" r="819.2" spreadMethod="pad">
      <stop offset="0.0" stop-color="#040404"/>
      <stop offset="1.0" stop-color="#040404"/>
    </radialGradient>
    <radialGradient cx="0" cy="0" gradientTransform="matrix(0.0188, 0.0, 0.0, 0.0188, -32.6, -119.25)" gradientUnits="userSpaceOnUse" id="gradient31" r="819.2" spreadMethod="pad">
      <stop offset="0.0" stop-color="#040404"/>
      <stop offset="1.0" stop-color="#040404"/>
    </radialGradient>
    <radialGradient cx="0" cy="0" gradientTransform="matrix(0.0186, 0.0, 0.0, 0.0186, -36.9, -121.05)" gradientUnits="userSpaceOnUse" id="gradient32" r="819.2" spreadMethod="pad">
      <stop offset="0.0" stop-color="#040404"/>
      <stop offset="1.0" stop-color="#040404"/>
    </radialGradient>
    <radialGradient cx="0" cy="0" gradientTransform="matrix(0.032, 0.0, 0.0, 0.032, -1.8, -117.45)" gradientUnits="userSpaceOnUse" id="gradient33" r="819.2" spreadMethod="pad">
      <stop offset="0.0" stop-color="#060606"/>
      <stop offset="1.0" stop-color="#060606"/>
    </radialGradient>
    <radialGradient cx="0" cy="0" gradientTransform="matrix(0.032, 0.0, 0.0, 0.032, -23.45, -114.4)" gradientUnits="userSpaceOnUse" id="gradient34" r="819.2" spreadMethod="pad">
      <stop offset="0.0" stop-color="#020202"/>
      <stop offset="1.0" stop-color="#020202"/>
    </radialGradient>
    <radialGradient cx="0" cy="0" gradientTransform="matrix(0.0028, 0.0, 0.0, 0.0028, -1.0, -119.95)" gradientUnits="userSpaceOnUse" id="gradient35" r="819.2" spreadMethod="pad">
      <stop offset="0.0" stop-color="#080808"/>
      <stop offset="1.0" stop-color="#080808"/>
    </radialGradient>
    <radialGradient cx="0" cy="0" gradientTransform="matrix(0.0019, 0.0, 0.0, 0.0019, -2.2, -118.75)" gradientUnits="userSpaceOnUse" id="gradient36" r="819.2" spreadMethod="pad">
      <stop offset="0.0" stop-color="#111111"/>
      <stop offset="1.0" stop-color="#111111"/>
    </radialGradient>
    <radialGradient cx="0" cy="0" gradientTransform="matrix(0.0041, 0.0, 0.0, 0.0041, -2.2, -118.75)" gradientUnits="userSpaceOnUse" id="gradient37" r="819.2" spreadMethod="pad">
      <stop offset="0.0" stop-color="#111111"/>
      <stop offset="1.0" stop-color="#111111"/>
    </radialGradient>
    <radialGradient cx="0" cy="0" gradientTransform="matrix(4.0E-4, 0.0, 0.0, 4.0E-4, -1.1, -117.65)" gradientUnits="userSpaceOnUse" id="gradient38" r="819.2" spreadMethod="pad">
      <stop offset="0.0" stop-color="#252525"/>
      <stop offset="1.0" stop-color="#242424"/>
    </radialGradient>
    <radialGradient cx="0" cy="0" gradientTransform="matrix(0.017, 0.0, 0.0, 0.017, -2.0, -105.05)" gradientUnits="userSpaceOnUse" id="gradient39" r="819.2" spreadMethod="pad">
      <stop offset="0.0" stop-color="#020202"/>
      <stop offset="1.0" stop-color="#020202"/>
    </radialGradient>
    <radialGradient cx="0" cy="0" gradientTransform="matrix(0.017, 0.0, 0.0, 0.017, -5.6, -104.55)" gradientUnits="userSpaceOnUse" id="gradient40" r="819.2" spreadMethod="pad">
      <stop offset="0.0" stop-color="#020202"/>
      <stop offset="1.0" stop-color="#020202"/>
    </radialGradient>
    <radialGradient cx="0" cy="0" gradientTransform="matrix(0.017, 0.0, 0.0, 0.017, -8.95, -104.05)" gradientUnits="userSpaceOnUse" id="gradient41" r="819.2" spreadMethod="pad">
      <stop offset="0.0" stop-color="#020202"/>
      <stop offset="1.0" stop-color="#020202"/>
    </radialGradient>
    <radialGradient cx="0" cy="0" gradientTransform="matrix(0.017, 0.0, 0.0, 0.017, -12.55, -103.55)" gradientUnits="userSpaceOnUse" id="gradient42" r="819.2" spreadMethod="pad">
      <stop offset="0.0" stop-color="#020202"/>
      <stop offset="1.0" stop-color="#020202"/>
    </radialGradient>
    <radialGradient cx="0" cy="0" gradientTransform="matrix(0.0168, 0.0, 0.0, 0.0168, -16.05, -102.9)" gradientUnits="userSpaceOnUse" id="gradient43" r="819.2" spreadMethod="pad">
      <stop offset="0.0" stop-color="#020202"/>
      <stop offset="1.0" stop-color="#020202"/>
    </radialGradient>
    <radialGradient cx="0" cy="0" gradientTransform="matrix(0.0168, 0.0, 0.0, 0.0168, -19.65, -102.35)" gradientUnits="userSpaceOnUse" id="gradient44" r="819.2" spreadMethod="pad">
      <stop offset="0.0" stop-color="#020202"/>
      <stop offset="1.0" stop-color="#020202"/>
    </radialGradient>
    <radialGradient cx="0" cy="0" gradientTransform="matrix(0.0274, 0.0, 0.0, 0.0274, -22.75, -101.8)" gradientUnits="userSpaceOnUse" id="gradient45" r="819.2" spreadMethod="pad">
      <stop offset="0.0" stop-color="#343434"/>
      <stop offset="1.0" stop-color="#333333"/>
    </radialGradient>
    <radialGradient cx="0" cy="0" gradientTransform="matrix(0.0499, 0.0, 0.0, 0.0499, -293.75, -111.85)" gradientUnits="userSpaceOnUse" id="gradient46" r="819.2" spreadMethod="pad">
      <stop offset="0.0" stop-color="#000000"/>
      <stop offset="1.0" stop-color="#000000"/>
    </radialGradient>
    <radialGradient cx="0" cy="0" gradientTransform="matrix(0.1076, 0.0, 0.0, 0.1076, -213.95, -76.35)" gradientUnits="userSpaceOnUse" id="gradient47" r="819.2" spreadMethod="pad">
      <stop offset="0.0" stop-color="#585858"/>
      <stop offset="1.0" stop-color="#000000"/>
    </radialGradient>
    <radialGradient cx="0" cy="0" gradientTransform="matrix(0.0155, 0.0, 0.0, 0.0155, -50.35, -108.7)" gradientUnits="userSpaceOnUse" id="gradient48" r="819.2" spreadMethod="pad">
      <stop offset="0.0" stop-color="#040404"/>
      <stop offset="1.0" stop-color="#040404"/>
    </radialGradient>
    <radialGradient cx="0" cy="0" gradientTransform="matrix(0.0307, 0.0, 0.0, 0.0307, -26.95, -112.75)" gradientUnits="userSpaceOnUse" id="gradient49" r="819.2" spreadMethod="pad">
      <stop offset="0.0" stop-color="#020202"/>
      <stop offset="1.0" stop-color="#020202"/>
    </radialGradient>
    <radialGradient cx="0" cy="0" gradientTransform="matrix(0.0889, 0.0, 0.0, 0.0889, -45.25, -74.3)" gradientUnits="userSpaceOnUse" id="gradient50" r="819.2" spreadMethod="pad">
      <stop offset="0.0" stop-color="#040404"/>
      <stop offset="1.0" stop-color="#040404"/>
    </radialGradient>
    <radialGradient cx="0" cy="0" gradientTransform="matrix(0.0242, 0.0, 0.0, 0.0242, -6.85, -87.05)" gradientUnits="userSpaceOnUse" id="gradient51" r="819.2" spreadMethod="pad">
      <stop offset="0.0" stop-color="#050505"/>
      <stop offset="1.0" stop-color="#050505"/>
    </radialGradient>
    <radialGradient cx="0" cy="0" gradientTransform="matrix(0.0231, 0.0, 0.0, 0.0231, -44.9, -109.3)" gradientUnits="userSpaceOnUse" id="gradient52" r="819.2" spreadMethod="pad">
      <stop offset="0.0" stop-color="#040404"/>
      <stop offset="1.0" stop-color="#040404"/>
    </radialGradient>
    <radialGradient cx="0" cy="0" gradientTransform="matrix(0.0159, 0.0, 0.0, 0.0159, -53.5, -108.4)" gradientUnits="userSpaceOnUse" id="gradient53" r="819.2" spreadMethod="pad">
      <stop offset="0.0" stop-color="#7e7e7e"/>
      <stop offset="1.0" stop-color="#393939"/>
    </radialGradient>
    <radialGradient cx="0" cy="0" gradientTransform="matrix(0.0114, 0.0, 0.0, 0.0114, -55.4, -97.1)" gradientUnits="userSpaceOnUse" id="gradient54" r="819.2" spreadMethod="pad">
      <stop offset="0.0" stop-color="#171717"/>
      <stop offset="1.0" stop-color="#171717"/>
    </radialGradient>
    <radialGradient cx="0" cy="0" gradientTransform="matrix(0.0284, 0.0, 0.0, 0.0284, -51.7, -107.1)" gradientUnits="userSpaceOnUse" id="gradient55" r="819.2" spreadMethod="pad">
      <stop offset="0.0" stop-color="#171717"/>
      <stop offset="1.0" stop-color="#171717"/>
    </radialGradient>
    <radialGradient cx="0" cy="0" gradientTransform="matrix(0.0148, 0.0, 0.0, 0.0148, -45.85, -96.85)" gradientUnits="userSpaceOnUse" id="gradient56" r="819.2" spreadMethod="pad">
      <stop offset="0.0" stop-color="#020202"/>
      <stop offset="1.0" stop-color="#020202"/>
    </radialGradient>
    <radialGradient cx="0" cy="0" gradientTransform="matrix(0.013, 0.0, 0.0, 0.013, -43.2, -95.85)" gradientUnits="userSpaceOnUse" id="gradient57" r="819.2" spreadMethod="pad">
      <stop offset="0.0" stop-color="#020202"/>
      <stop offset="1.0" stop-color="#020202"/>
    </radialGradient>
    <radialGradient cx="0" cy="0" gradientTransform="matrix(0.012, 0.0, 0.0, 0.012, -39.3, -95.5)" gradientUnits="userSpaceOnUse" id="gradient58" r="819.2" spreadMethod="pad">
      <stop offset="0.0" stop-color="#020202"/>
      <stop offset="1.0" stop-color="#020202"/>
    </radialGradient>
    <radialGradient cx="0" cy="0" gradientTransform="matrix(0.0119, 0.0, 0.0, 0.0119, -36.1, -96.0)" gradientUnits="userSpaceOnUse" id="gradient59" r="819.2" spreadMethod="pad">
      <stop offset="0.0" stop-color="#020202"/>
      <stop offset="1.0" stop-color="#020202"/>
    </radialGradient>
    <radialGradient cx="0" cy="0" gradientTransform="matrix(0.0111, 0.0, 0.0, 0.0111, -32.9, -95.75)" gradientUnits="userSpaceOnUse" id="gradient60" r="819.2" spreadMethod="pad">
      <stop offset="0.0" stop-color="#020202"/>
      <stop offset="1.0" stop-color="#020202"/>
    </radialGradient>
    <radialGradient cx="0" cy="0" gradientTransform="matrix(0.0109, 0.0, 0.0, 0.0109, -29.6, -96.05)" gradientUnits="userSpaceOnUse" id="gradient61" r="819.2" spreadMethod="pad">
      <stop offset="0.0" stop-color="#020202"/>
      <stop offset="1.0" stop-color="#020202"/>
    </radialGradient>
    <radialGradient cx="0" cy="0" gradientTransform="matrix(0.0158, 0.0, 0.0, 0.0158, -60.05, -100.15)" gradientUnits="userSpaceOnUse" id="gradient62" r="819.2" spreadMethod="pad">
      <stop offset="0.0" stop-color="#171717"/>
      <stop offset="1.0" stop-color="#171717"/>
    </radialGradient>
    <radialGradient cx="0" cy="0" gradientTransform="matrix(0.0222, 0.0, 0.0, 0.0222, -53.35, -83.85)" gradientUnits="userSpaceOnUse" id="gradient63" r="819.2" spreadMethod="pad">
      <stop offset="0.0" stop-color="#020202"/>
      <stop offset="1.0" stop-color="#020202"/>
    </radialGradient>
    <radialGradient cx="0" cy="0" gradientTransform="matrix(0.0444, 0.0, 0.0, 0.0444, -241.95, -71.3)" gradientUnits="userSpaceOnUse" id="gradient64" r="819.2" spreadMethod="pad">
      <stop offset="0.0" stop-color="#414141"/>
      <stop offset="1.0" stop-color="#0a0a0a"/>
    </radialGradient>
    <radialGradient cx="0" cy="0" gradientTransform="matrix(0.1045, 0.0, 0.0, 0.1045, -356.75, -70.2)" gradientUnits="userSpaceOnUse" id="gradient65" r="819.2" spreadMethod="pad">
      <stop offset="0.0" stop-color="#000000"/>
      <stop offset="1.0" stop-color="#000000"/>
    </radialGradient>
    <radialGradient cx="0" cy="0" gradientTransform="matrix(0.051, 0.0, 0.0, 0.051, -356.75, -70.2)" gradientUnits="userSpaceOnUse" id="gradient66" r="819.2" spreadMethod="pad">
      <stop offset="0.0" stop-color="#000000"/>
      <stop offset="1.0" stop-color="#000000"/>
    </radialGradient>
    <radialGradient cx="0" cy="0" gradientTransform="matrix(0.0171, 0.0, 0.0, 0.0171, -53.8, -100.55)" gradientUnits="userSpaceOnUse" id="gradient67" r="819.2" spreadMethod="pad">
      <stop offset="0.0" stop-color="#1c1c1c"/>
      <stop offset="1.0" stop-color="#1b1b1b"/>
    </radialGradient>
    <radialGradient cx="0" cy="0" gradientTransform="matrix(0.0156, 0.0, 0.0, 0.0156, -54.55, -101.6)" gradientUnits="userSpaceOnUse" id="gradient68" r="819.2" spreadMethod="pad">
      <stop offset="0.0" stop-color="#212121"/>
      <stop offset="1.0" stop-color="#1f1f1f"/>
    </radialGradient>
    <radialGradient cx="0" cy="0" gradientTransform="matrix(0.0199, 0.0, 0.0, 0.0199, -55.4, -97.1)" gradientUnits="userSpaceOnUse" id="gradient69" r="819.2" spreadMethod="pad">
      <stop offset="0.0" stop-color="#808080"/>
      <stop offset="1.0" stop-color="#7f7f7f"/>
    </radialGradient>
    <radialGradient cx="0" cy="0" gradientTransform="matrix(0.0227, 0.0, 0.0, 0.0227, -64.5, -99.4)" gradientUnits="userSpaceOnUse" id="gradient70" r="819.2" spreadMethod="pad">
      <stop offset="0.0" stop-color="#828282"/>
      <stop offset="1.0" stop-color="#3e3e3e"/>
    </radialGradient>
    <radialGradient cx="0" cy="0" gradientTransform="matrix(0.0327, 0.0, 0.0, 0.0327, -53.35, -83.85)" gradientUnits="userSpaceOnUse" id="gradient71" r="819.2" spreadMethod="pad">
      <stop offset="0.0" stop-color="#1f1f1f"/>
      <stop offset="1.0" stop-color="#1e1e1e"/>
    </radialGradient>
    <radialGradient cx="0" cy="0" gradientTransform="matrix(0.0901, 0.0, 0.0, 0.0901, -255.6, -39.85)" gradientUnits="userSpaceOnUse" id="gradient72" r="819.2" spreadMethod="pad">
      <stop offset="0.0" stop-color="#595959"/>
      <stop offset="1.0" stop-color="#000000"/>
    </radialGradient>
    <radialGradient cx="0" cy="0" gradientTransform="matrix(0.1245, 0.0, 0.0, 0.1245, -251.95, -9.0)" gradientUnits="userSpaceOnUse" id="gradient73" r="819.2" spreadMethod="pad">
      <stop offset="0.0" stop-color="#3f3f3f"/>
      <stop offset="1.0" stop-color="#0f0f0f"/>
    </radialGradient>
    <radialGradient cx="0" cy="0" gradientTransform="matrix(0.0331, 0.0, 0.0, 0.0331, -312.4, -98.9)" gradientUnits="userSpaceOnUse" id="gradient74" r="819.2" spreadMethod="pad">
      <stop offset="0.0" stop-color="#000000"/>
      <stop offset="1.0" stop-color="#000000"/>
    </radialGradient>
    <radialGradient cx="0" cy="0" gradientTransform="matrix(0.1097, 0.0, 0.0, 0.1097, -338.9, -19.95)" gradientUnits="userSpaceOnUse" id="gradient75" r="819.2" spreadMethod="pad">
      <stop offset="0.0" stop-color="#010101"/>
      <stop offset="1.0" stop-color="#000000"/>
    </radialGradient>
    <radialGradient cx="0" cy="0" gradientTransform="matrix(0.1109, 0.0, 0.0, 0.1109, -264.75, -16.0)" gradientUnits="userSpaceOnUse" id="gradient76" r="819.2" spreadMethod="pad">
      <stop offset="0.0" stop-color="#848484"/>
      <stop offset="1.0" stop-color="#020202"/>
    </radialGradient>
    <radialGradient cx="0" cy="0" gradientTransform="matrix(0.0268, 0.0, 0.0, 0.0268, -255.6, -39.85)" gradientUnits="userSpaceOnUse" id="gradient77" r="819.2" spreadMethod="pad">
      <stop offset="0.0" stop-color="#595959"/>
      <stop offset="1.0" stop-color="#000000"/>
    </radialGradient>
    <radialGradient cx="0" cy="0" gradientTransform="matrix(0.0995, 0.0, 0.0, 0.0995, -238.4, -27.2)" gradientUnits="userSpaceOnUse" id="gradient78" r="819.2" spreadMethod="pad">
      <stop offset="0.0" stop-color="#616161"/>
      <stop offset="1.0" stop-color="#000000"/>
    </radialGradient>
    <radialGradient cx="0" cy="0" gradientTransform="matrix(0.0272, 0.0, 0.0, 0.0272, -258.3, -70.65)" gradientUnits="userSpaceOnUse" id="gradient79" r="819.2" spreadMethod="pad">
      <stop offset="0.0" stop-color="#000000"/>
      <stop offset="1.0" stop-color="#000000"/>
    </radialGradient>
    <radialGradient cx="0" cy="0" gradientTransform="matrix(0.0024, 0.0, 0.0, 0.0024, -28.9, -98.35)" gradientUnits="userSpaceOnUse" id="gradient80" r="819.2" spreadMethod="pad">
      <stop offset="0.0" stop-color="#020202"/>
      <stop offset="1.0" stop-color="#020202"/>
    </radialGradient>
    <radialGradient cx="0" cy="0" gradientTransform="matrix(0.0166, 0.0, 0.0, 0.0166, -29.2, -97.9)" gradientUnits="userSpaceOnUse" id="gradient81" r="819.2" spreadMethod="pad">
      <stop offset="0.0" stop-color="#212121"/>
      <stop offset="1.0" stop-color="#191919"/>
    </radialGradient>
    <radialGradient cx="0" cy="0" gradientTransform="matrix(0.0159, 0.0, 0.0, 0.0159, -59.8, -97.3)" gradientUnits="userSpaceOnUse" id="gradient82" r="819.2" spreadMethod="pad">
      <stop offset="0.0" stop-color="#818181"/>
      <stop offset="1.0" stop-color="#666666"/>
    </radialGradient>
    <radialGradient cx="0" cy="0" gradientTransform="matrix(0.0842, 0.0, 0.0, 0.0842, -386.8, -34.8)" gradientUnits="userSpaceOnUse" id="gradient83" r="819.2" spreadMethod="pad">
      <stop offset="0.0" stop-color="#6a6a6a"/>
      <stop offset="1.0" stop-color="#000000"/>
    </radialGradient>
    <radialGradient cx="0" cy="0" gradientTransform="matrix(0.0945, 0.0, 0.0, 0.0945, -390.65, -1.9)" gradientUnits="userSpaceOnUse" id="gradient84" r="819.2" spreadMethod="pad">
      <stop offset="0.0" stop-color="#565656"/>
      <stop offset="1.0" stop-color="#000000"/>
    </radialGradient>
    <radialGradient cx="0" cy="0" gradientTransform="matrix(0.0297, 0.0, 0.0, 0.0297, -395.3, -24.7)" gradientUnits="userSpaceOnUse" id="gradient85" r="819.2" spreadMethod="pad">
      <stop offset="0.0" stop-color="#010101"/>
      <stop offset="1.0" stop-color="#000000"/>
    </radialGradient>
    <radialGradient cx="0" cy="0" gradientTransform="matrix(0.0684, 0.0, 0.0, 0.0684, -397.6, -69.3)" gradientUnits="userSpaceOnUse" id="gradient86" r="819.2" spreadMethod="pad">
      <stop offset="0.0" stop-color="#0f0f0f"/>
      <stop offset="1.0" stop-color="#040404"/>
    </radialGradient>
    <radialGradient cx="0" cy="0" gradientTransform="matrix(0.0168, 0.0, 0.0, 0.0168, -2.0, -105.05)" gradientUnits="userSpaceOnUse" id="gradient87" r="819.2" spreadMethod="pad">
      <stop offset="0.0" stop-color="#1f1f1f"/>
      <stop offset="1.0" stop-color="#1f1f1f"/>
    </radialGradient>
    <radialGradient cx="0" cy="0" gradientTransform="matrix(0.0163, 0.0, 0.0, 0.0163, -56.0, -90.2)" gradientUnits="userSpaceOnUse" id="gradient88" r="819.2" spreadMethod="pad">
      <stop offset="0.0" stop-color="#5f5f5f"/>
      <stop offset="1.0" stop-color="#5e5e5e"/>
    </radialGradient>
    <radialGradient cx="0" cy="0" gradientTransform="matrix(0.0268, 0.0, 0.0, 0.0268, -55.65, -85.0)" gradientUnits="userSpaceOnUse" id="gradient89" r="819.2" spreadMethod="pad">
      <stop offset="0.0" stop-color="#2c2c2c"/>
      <stop offset="1.0" stop-color="#242424"/>
    </radialGradient>
    <radialGradient cx="0" cy="0" gradientTransform="matrix(0.0156, 0.0, 0.0, 0.0156, -56.15, -87.4)" gradientUnits="userSpaceOnUse" id="gradient90" r="819.2" spreadMethod="pad">
      <stop offset="0.0" stop-color="#2f2f2f"/>
      <stop offset="1.0" stop-color="#151515"/>
    </radialGradient>
    <radialGradient cx="0" cy="0" gradientTransform="matrix(0.0408, 0.0, 0.0, 0.0408, -36.1, -64.35)" gradientUnits="userSpaceOnUse" id="gradient91" r="819.2" spreadMethod="pad">
      <stop offset="0.0" stop-color="#030303"/>
      <stop offset="1.0" stop-color="#030303"/>
    </radialGradient>
    <radialGradient cx="0" cy="0" gradientTransform="matrix(0.1383, 0.0, 0.0, 0.1383, -126.25, -20.35)" gradientUnits="userSpaceOnUse" id="gradient92" r="819.2" spreadMethod="pad">
      <stop offset="0.0" stop-color="#1d1d1d"/>
      <stop offset="1.0" stop-color="#060606"/>
    </radialGradient>
    <radialGradient cx="0" cy="0" gradientTransform="matrix(0.0312, 0.0, 0.0, 0.0312, -139.8, -24.2)" gradientUnits="userSpaceOnUse" id="gradient93" r="819.2" spreadMethod="pad">
      <stop offset="0.0" stop-color="#484848"/>
      <stop offset="1.0" stop-color="#101010"/>
    </radialGradient>
    <radialGradient cx="0" cy="0" gradientTransform="matrix(0.0857, 0.0, 0.0, 0.0857, -197.05, -64.9)" gradientUnits="userSpaceOnUse" id="gradient94" r="819.2" spreadMethod="pad">
      <stop offset="0.0" stop-color="#686868"/>
      <stop offset="1.0" stop-color="#181818"/>
    </radialGradient>
    <radialGradient cx="0" cy="0" gradientTransform="matrix(0.058, 0.0, 0.0, 0.058, -159.1, -8.45)" gradientUnits="userSpaceOnUse" id="gradient95" r="819.2" spreadMethod="pad">
      <stop offset="0.0" stop-color="#000000"/>
      <stop offset="1.0" stop-color="#000000"/>
    </radialGradient>
    <radialGradient cx="0" cy="0" gradientTransform="matrix(0.0387, 0.0, 0.0, 0.0387, -19.8, -30.25)" gradientUnits="userSpaceOnUse" id="gradient96" r="819.2" spreadMethod="pad">
      <stop offset="0.0" stop-color="#868686"/>
      <stop offset="1.0" stop-color="#000000"/>
    </radialGradient>
    <radialGradient cx="0" cy="0" gradientTransform="matrix(0.123, 0.0, 0.0, 0.123, -5.05, -20.8)" gradientUnits="userSpaceOnUse" id="gradient97" r="819.2" spreadMethod="pad">
      <stop offset="0.0" stop-color="#151515"/>
      <stop offset="1.0" stop-color="#000000"/>
    </radialGradient>
    <radialGradient cx="0" cy="0" gradientTransform="matrix(0.042, 0.0, 0.0, 0.042, -94.95, -1.0)" gradientUnits="userSpaceOnUse" id="gradient98" r="819.2" spreadMethod="pad">
      <stop offset="0.0" stop-color="#000000"/>
      <stop offset="1.0" stop-color="#000000"/>
    </radialGradient>
  </defs>
</svg>
