<?xml version="1.0" encoding="UTF-8" standalone="no"?>
<svg xmlns:xlink="http://www.w3.org/1999/xlink" height="299.1px" width="399.1px" xmlns="http://www.w3.org/2000/svg">
  <g transform="matrix(1.0, 0.0, 0.0, 1.0, 400.0, 300.0)">
    <path d="M-350.25 -133.9 L-351.9 -134.0 -353.15 -136.0 -352.0 -135.5 -350.25 -133.9 M-364.0 -145.15 L-365.0 -143.75 -378.0 -153.4 -374.15 -138.5 -374.4 -138.25 -383.9 -151.9 -394.5 -153.4 -400.0 -169.75 -399.9 -204.0 -392.05 -203.8 -390.9 -203.75 -389.65 -192.0 -384.15 -174.5 -375.25 -158.4 -364.0 -145.15 M-400.0 -236.75 L-399.9 -244.9 -394.5 -259.5 -394.25 -261.15 -381.15 -275.0 -358.65 -300.0 -357.0 -300.0 -358.25 -280.65 -361.65 -277.65 -366.4 -272.15 -367.4 -271.5 -367.4 -271.0 -375.0 -262.65 -382.0 -250.5 -382.15 -249.75 -383.9 -247.25 -387.15 -237.15 -400.0 -236.75 M-234.5 -126.4 L-238.15 -123.65 -235.9 -131.0 -234.5 -126.4" fill="url(#gradient0)" fill-rule="evenodd" stroke="none"/>
    <path d="M-357.0 -300.0 L-234.25 -300.0 -224.0 -293.15 -212.9 -282.25 -200.75 -263.4 -193.9 -251.0 -187.25 -229.25 -185.4 -206.0 -188.25 -181.5 -195.4 -161.75 -201.15 -150.65 -214.9 -132.65 -226.65 -120.9 -231.65 -121.25 Q-233.75 -122.5 -234.5 -126.4 L-235.9 -131.0 -236.65 -133.9 -237.0 -133.9 -252.5 -127.4 -253.15 -127.25 -253.5 -127.65 -271.9 -145.5 -310.4 -168.9 -310.5 -169.25 -335.4 -203.0 -342.9 -213.25 -339.25 -238.0 -335.75 -260.25 -336.0 -260.9 -352.0 -237.5 -367.0 -213.65 -363.65 -236.5 -359.0 -265.0 -358.25 -280.65 -357.0 -300.0 M-252.15 -128.25 L-235.9 -144.25 -252.9 -144.65 -252.9 -128.15 -252.75 -127.65 -252.15 -128.25" fill="url(#gradient1)" fill-rule="evenodd" stroke="none"/>
    <path d="M-318.9 -119.65 L-329.9 -122.65 -344.9 -130.4 -350.25 -133.9 -352.0 -135.5 -353.15 -136.0 -364.0 -145.15 -375.25 -158.4 -384.15 -174.5 -389.65 -192.0 -390.9 -203.75 -390.0 -203.75 -375.15 -203.5 -372.9 -203.4 -371.4 -203.5 -366.5 -210.25 -360.15 -203.25 -335.4 -203.0 -310.5 -169.25 -310.4 -168.9 -271.9 -145.5 -253.5 -127.65 -263.65 -122.65 -276.15 -119.4 -276.75 -119.25 -281.15 -118.25 -287.65 -117.65 -295.0 -117.5 -294.75 -117.15 -310.0 -117.9 -318.9 -119.65 M-358.25 -280.65 L-359.0 -265.0 -363.65 -236.5 -366.75 -232.75 -370.15 -236.15 -371.0 -236.25 -376.9 -237.25 -377.0 -237.25 -377.5 -237.4 -387.15 -237.15 -383.9 -247.25 -382.15 -249.75 -382.0 -250.5 -375.0 -262.65 -367.4 -271.0 -367.4 -271.5 -366.4 -272.15 -361.65 -277.65 -358.25 -280.65 M-352.0 -237.5 L-336.0 -260.9 -335.75 -260.25 -339.25 -238.0 -352.0 -237.5 M-355.15 -159.0 L-358.15 -160.0 -361.4 -159.75 -366.4 -155.65 -338.75 -153.65 -338.25 -153.9 -338.4 -154.15 -342.4 -156.0 -345.5 -158.0 -350.4 -159.65 -352.5 -159.65 -355.15 -159.0 M-352.5 -147.5 Q-349.25 -146.15 -347.5 -146.5 L-341.5 -148.15 -338.0 -150.25 -336.5 -152.65 -336.65 -153.0 -350.9 -154.0 -353.5 -153.75 -356.5 -154.5 -365.0 -155.15 -365.65 -154.75 -365.25 -154.15 -364.5 -153.5 -361.9 -151.75 -361.65 -151.65 -360.5 -151.0 -360.25 -150.9 -360.0 -150.75 -359.75 -150.5 -359.5 -150.4 -357.65 -149.5 -357.4 -149.4 -357.15 -149.25 -356.75 -149.15 -356.5 -149.0 -352.65 -147.5 -352.5 -147.5 M-252.9 -128.15 L-252.9 -144.65 -235.9 -144.25 -252.15 -128.25 -252.9 -128.15" fill="url(#gradient2)" fill-rule="evenodd" stroke="none"/>
    <path d="M-399.9 -204.0 L-400.0 -236.75 -387.15 -237.15 -377.5 -237.4 -377.0 -237.25 -376.9 -237.25 -373.65 -236.5 -368.25 -231.15 -367.75 -231.15 -366.75 -232.75 -363.65 -236.5 -367.0 -213.65 -352.0 -237.5 -339.25 -238.0 -342.9 -213.25 -335.4 -203.0 -360.15 -203.25 -366.5 -210.25 -366.75 -210.75 -368.4 -212.4 -369.4 -211.0 -375.15 -203.5 -390.0 -203.75 -392.05 -203.8 -399.9 -204.0" fill="url(#gradient3)" fill-rule="evenodd" stroke="none"/>
    <path d="M-371.0 -236.25 L-373.65 -236.5 -376.9 -237.25 -371.0 -236.25" fill="url(#gradient4)" fill-rule="evenodd" stroke="none"/>
    <path d="M-373.65 -236.5 L-371.0 -236.25 -370.15 -236.15 -366.75 -232.75 -367.75 -231.15 -368.25 -231.15 -373.65 -236.5" fill="url(#gradient5)" fill-rule="evenodd" stroke="none"/>
    <path d="M-399.9 -244.9 L-400.0 -265.0 -391.75 -278.9 -385.15 -288.5 -384.65 -288.75 -384.25 -289.75 -368.9 -300.0 -358.65 -300.0 -381.15 -275.0 -394.25 -261.15 -394.5 -259.5 -399.9 -244.9" fill="url(#gradient6)" fill-rule="evenodd" stroke="none"/>
    <path d="M-369.4 -211.0 L-368.4 -212.4 -366.75 -210.75 -369.4 -211.0" fill="url(#gradient7)" fill-rule="evenodd" stroke="none"/>
    <path d="M-375.15 -203.5 L-369.4 -211.0 -366.75 -210.75 -366.5 -210.25 -371.4 -203.5 -372.9 -203.4 -375.15 -203.5" fill="url(#gradient8)" fill-rule="evenodd" stroke="none"/>
    <path d="M-392.05 -203.8 L-390.0 -203.75 -390.9 -203.75 -392.05 -203.8" fill="url(#gradient9)" fill-rule="evenodd" stroke="none"/>
    <path d="M-355.15 -159.0 L-352.5 -159.65 -350.4 -159.65 -345.5 -158.0 -342.4 -156.0 -338.4 -154.15 -338.25 -153.9 -338.75 -153.65 -366.4 -155.65 -361.4 -159.75 -358.15 -160.0 -355.15 -159.0 M-352.75 -158.9 L-355.5 -158.15 Q-358.9 -160.15 -361.75 -158.9 L-365.4 -155.75 -340.65 -154.0 -345.5 -156.9 -348.9 -158.4 -352.75 -158.9" fill="url(#gradient10)" fill-rule="evenodd" stroke="none"/>
    <path d="M-352.75 -158.9 L-348.9 -158.4 -345.5 -156.9 -340.65 -154.0 -365.4 -155.75 -361.75 -158.9 Q-358.9 -160.15 -355.5 -158.15 L-352.75 -158.9" fill="url(#gradient11)" fill-rule="evenodd" stroke="none"/>
    <path d="M-365.25 -154.15 L-365.15 -154.4 -337.9 -152.25 Q-343.15 -145.4 -352.5 -147.5 L-352.65 -147.5 -356.5 -149.0 -356.75 -149.15 -357.15 -149.25 -357.4 -149.4 -357.65 -149.5 -359.5 -150.4 -359.75 -150.5 -360.0 -150.75 -360.25 -150.9 -360.5 -151.0 -361.65 -151.65 -361.9 -151.75 -364.5 -153.5 -365.25 -154.15" fill="url(#gradient12)" fill-rule="evenodd" stroke="none"/>
    <path d="M-365.25 -154.15 L-365.65 -154.75 -365.0 -155.15 -356.5 -154.5 -353.5 -153.75 -350.9 -154.0 -336.65 -153.0 -336.5 -152.65 -338.0 -150.25 -341.5 -148.15 -347.5 -146.5 Q-349.25 -146.15 -352.5 -147.5 -343.15 -145.4 -337.9 -152.25 L-365.15 -154.4 -365.25 -154.15" fill="url(#gradient13)" fill-rule="evenodd" stroke="none"/>
    <path d="M-6.5 -120.4 L-6.4 -120.5 -5.75 -121.0 -6.75 -120.0 -6.5 -120.4" fill="url(#gradient14)" fill-rule="evenodd" stroke="none"/>
    <path d="M-5.75 -121.0 L-0.9 -122.25 -0.9 -116.65 -13.65 -113.65 -10.75 -116.25 -6.75 -120.0 -5.75 -121.0" fill="url(#gradient15)" fill-rule="evenodd" stroke="none"/>
    <path d="M-0.9 -116.65 L-0.9 -103.25 -2.5 -102.9 -3.65 -102.75 -6.25 -102.25 -7.0 -102.15 -9.75 -101.65 -10.9 -101.4 -13.0 -101.15 -13.25 -108.15 -13.4 -109.25 -13.4 -111.0 -13.5 -111.5 -13.5 -113.5 -13.65 -113.65 -0.9 -116.65" fill="url(#gradient16)" fill-rule="evenodd" stroke="none"/>
    <path d="M-14.25 -118.9 L-13.65 -119.4 -6.5 -120.4 -6.75 -120.0 -10.75 -116.25 -13.65 -113.65 -14.4 -113.15 -21.4 -112.15 -14.25 -118.9" fill="url(#gradient17)" fill-rule="evenodd" stroke="none"/>
    <path d="M-15.75 -118.0 L-14.25 -118.9 -21.4 -112.15 -22.5 -111.65 -15.75 -118.0" fill="url(#gradient18)" fill-rule="evenodd" stroke="none"/>
    <path d="M-22.5 -116.65 L-15.75 -118.0 -22.5 -111.65 -23.4 -110.9 -30.65 -109.4 -22.5 -116.65" fill="url(#gradient19)" fill-rule="evenodd" stroke="none"/>
    <path d="M-24.5 -117.65 L-22.5 -116.65 -30.65 -109.4 -32.75 -110.4 -24.5 -117.65" fill="url(#gradient20)" fill-rule="evenodd" stroke="none"/>
    <path d="M-29.15 -119.25 L-28.65 -119.4 -24.5 -117.65 -32.75 -110.4 -37.4 -112.25 -29.15 -119.25" fill="url(#gradient21)" fill-rule="evenodd" stroke="none"/>
    <path d="M-40.0 -111.75 L-32.0 -118.65 -29.15 -119.25 -37.4 -112.25 -40.0 -111.75" fill="url(#gradient22)" fill-rule="evenodd" stroke="none"/>
    <path d="M-39.75 -108.25 L-40.25 -111.25 -40.0 -111.75 -37.4 -112.25 -32.75 -110.4 -30.65 -109.4 -23.4 -110.9 -22.5 -111.65 -21.4 -112.15 -14.4 -113.15 -13.65 -87.5 -16.15 -87.15 -16.4 -94.0 -16.5 -94.9 -17.15 -112.0 -18.15 -111.9 -17.4 -86.9 -19.5 -86.5 -19.75 -95.25 -20.75 -95.15 -20.65 -86.4 -22.75 -86.0 -23.15 -94.9 -24.15 -94.65 -23.9 -85.75 -25.75 -85.5 -25.75 -85.65 -25.9 -86.4 -26.0 -88.5 Q-25.4 -94.9 -27.4 -95.15 L-27.0 -85.25 -29.5 -84.9 -29.65 -94.5 -30.65 -94.4 -30.4 -84.75 -32.9 -84.25 -32.9 -84.5 -33.65 -94.75 -34.65 -94.65 -33.9 -84.15 -36.5 -83.65 -36.15 -83.75 -36.25 -95.65 -36.65 -95.75 -37.25 -95.75 -37.4 -93.65 -37.25 -83.65 -36.9 -83.65 -42.75 -82.75 -42.25 -101.5 -42.15 -101.75 -41.0 -102.5 -40.4 -103.75 -40.5 -105.15 -40.9 -106.25 -41.4 -106.25 -41.4 -106.5 -40.65 -107.5 -39.5 -107.65 -39.65 -108.25 -39.75 -108.25 M-0.9 -103.25 L-0.9 -89.75 -2.25 -89.5 -2.5 -102.9 -0.9 -103.25 M-46.75 -87.25 L-53.75 -95.4 -54.0 -95.9 -52.0 -98.15 -52.9 -98.25 -52.75 -98.65 -52.15 -98.4 -52.25 -98.9 -51.65 -99.0 -47.5 -99.65 -48.5 -99.25 -47.0 -99.0 -45.4 -99.75 -45.5 -98.9 -45.65 -98.4 -45.75 -98.25 -46.15 -98.0 -45.75 -98.15 -45.75 -98.0 -45.9 -97.5 -45.9 -97.4 -46.15 -96.65 -46.25 -95.4 -46.65 -91.9 -46.65 -91.15 -46.5 -89.75 -46.4 -89.25 -46.75 -89.4 -46.9 -89.0 -46.65 -88.9 -46.75 -87.25 M-55.0 -96.75 L-55.15 -96.9 -55.25 -97.25 -54.4 -98.4 -53.75 -98.25 -55.0 -96.75 M-55.4 -97.9 L-55.15 -98.4 -54.5 -98.65 -55.15 -97.5 -55.4 -97.65 -55.25 -97.9 -55.4 -97.9 M-13.0 -101.15 L-10.9 -101.4 -10.5 -88.0 -12.25 -87.75 -12.4 -88.15 -13.0 -101.15 M-9.75 -101.65 L-7.0 -102.15 -6.9 -88.65 -9.25 -88.25 -9.75 -101.65 M-6.25 -102.25 L-3.65 -102.75 -3.5 -89.25 -5.65 -88.9 -5.65 -89.65 -5.75 -90.25 -6.0 -101.75 -6.15 -102.25 -6.25 -102.25 M-19.4 -97.9 L-20.65 -97.9 -21.0 -97.4 -21.0 -96.9 -20.65 -96.75 -19.5 -97.0 -19.15 -97.75 -19.4 -97.9 M-44.65 -100.5 L-44.5 -100.5 -44.65 -100.4 -44.65 -100.5 M-44.75 -99.65 L-44.75 -99.0 -45.15 -99.0 -45.0 -99.15 -45.0 -99.75 -44.75 -99.65 M-44.0 -84.4 L-43.75 -84.25 -44.0 -84.0 -44.0 -84.4 M-45.25 -98.5 L-44.9 -98.5 -45.0 -98.15 -45.25 -98.5 M-50.15 -98.0 L-50.4 -97.65 -49.75 -97.65 -49.4 -97.15 -49.9 -98.15 -50.9 -98.65 -50.75 -97.9 -50.15 -98.0 M-50.25 -95.9 L-49.0 -96.5 -51.15 -96.5 -50.25 -95.9 M-48.5 -96.65 L-48.5 -96.25 -48.0 -96.25 -48.5 -96.65 M-47.5 -96.25 L-47.4 -96.5 -47.75 -96.5 -47.5 -96.25 M-53.5 -98.4 L-53.65 -98.75 -52.65 -98.9 -53.5 -98.4 M-54.4 -97.65 L-54.0 -98.15 -54.65 -97.75 -54.4 -97.65 M-51.65 -97.4 L-51.0 -97.4 -51.15 -97.9 -51.65 -97.75 -51.65 -97.4 M-49.25 -93.25 L-49.75 -93.4 -49.65 -93.0 -49.25 -93.25 M-51.15 -95.5 L-51.0 -95.75 -51.4 -95.75 -51.15 -95.5 M-51.5 -93.75 L-51.25 -93.4 -49.65 -93.75 -51.5 -93.75 M-50.65 -93.15 L-50.4 -92.65 -50.0 -93.15 -50.65 -93.15 M-48.4 -90.9 L-48.5 -91.25 -47.9 -91.4 -49.25 -91.4 -48.4 -90.9 M-49.65 -91.9 L-48.65 -92.15 -49.5 -92.15 -49.65 -91.9 M-47.25 -90.0 L-48.0 -90.25 -47.75 -89.9 -47.0 -89.65 -47.25 -90.0" fill="url(#gradient23)" fill-rule="evenodd" stroke="none"/>
    <path d="M-329.75 -105.25 L-319.5 -116.5 -318.9 -119.65 -310.0 -117.9 -294.75 -117.15 -289.15 -112.5 -289.15 -110.75 -291.25 -106.0 -295.75 -93.9 -312.9 -93.75 -338.9 -97.65 -337.75 -98.65 -337.75 -98.75 -337.25 -99.0 -337.0 -99.25 -335.5 -100.4 -331.75 -103.4 -330.9 -104.15 -330.4 -104.25 -329.75 -105.25" fill="url(#gradient24)" fill-rule="evenodd" stroke="none"/>
    <path d="M-333.65 -104.5 L-329.75 -105.25 -330.4 -104.25 -330.9 -104.15 -331.75 -103.4 -333.9 -103.15 -335.75 -103.4 -333.65 -104.5" fill="url(#gradient25)" fill-rule="evenodd" stroke="none"/>
    <path d="M-364.25 -93.4 L-344.65 -102.5 -333.65 -104.5 -335.75 -103.4 -333.9 -103.15 -331.75 -103.4 -335.5 -100.4 -353.9 -97.25 -364.25 -93.4" fill="url(#gradient26)" fill-rule="evenodd" stroke="none"/>
    <path d="M-366.0 -92.25 L-365.75 -92.75 -364.25 -93.4 -353.9 -97.25 -359.0 -79.65 -359.15 -79.4 -356.65 -63.25 -356.9 -62.25 -358.4 -60.0 -362.15 -59.15 -370.15 -70.5 -366.0 -92.25" fill="url(#gradient27)" fill-rule="evenodd" stroke="none"/>
    <path d="M-338.9 -97.65 L-339.25 -97.0 -359.0 -79.65 -353.9 -97.25 -335.5 -100.4 -337.0 -99.25 -337.75 -99.25 -337.75 -98.75 -337.75 -98.65 -338.9 -97.65" fill="url(#gradient28)" fill-rule="evenodd" stroke="none"/>
    <path d="M-276.15 -119.4 L-276.0 -116.9 -276.15 -116.25 -276.75 -116.25 -276.75 -119.25 -276.15 -119.4" fill="url(#gradient29)" fill-rule="evenodd" stroke="none"/>
    <path d="M-276.75 -116.25 L-280.65 -115.65 -280.5 -115.15 -278.25 -111.25 -277.9 -109.9 -278.0 -109.25 -280.65 -107.5 -286.9 -107.15 -289.15 -110.75 -289.15 -112.5 -287.65 -117.65 -281.15 -118.25 -276.75 -119.25 -276.75 -116.25" fill="url(#gradient30)" fill-rule="evenodd" stroke="none"/>
    <path d="M-287.65 -117.65 L-289.15 -112.5 -294.75 -117.15 -295.0 -117.5 -287.65 -117.65" fill="url(#gradient31)" fill-rule="evenodd" stroke="none"/>
    <path d="M-276.0 -116.9 L-272.15 -110.9 -271.9 -110.65 -260.15 -104.4 -248.5 -100.5 -251.25 -98.9 -291.25 -106.0 -289.15 -110.75 -286.9 -107.15 -280.65 -107.5 -278.0 -109.25 -277.9 -109.9 -278.25 -111.25 -280.5 -115.15 -280.65 -115.65 -276.75 -116.25 -276.15 -116.25 -276.0 -116.9" fill="url(#gradient32)" fill-rule="evenodd" stroke="none"/>
    <path d="M-248.5 -100.5 L-247.65 -97.0 -251.25 -98.9 -248.5 -100.5" fill="url(#gradient33)" fill-rule="evenodd" stroke="none"/>
    <path d="M-291.25 -106.0 L-251.25 -98.9 -295.75 -93.9 -291.25 -106.0" fill="url(#gradient34)" fill-rule="evenodd" stroke="none"/>
    <path d="M-13.65 -87.5 L-14.4 -113.15 -13.65 -113.65 -13.5 -113.5 -13.5 -111.5 -13.4 -111.0 -13.4 -109.25 -13.25 -108.15 -13.0 -101.15 -12.4 -88.15 -12.25 -87.75 -13.65 -87.5" fill="url(#gradient35)" fill-rule="evenodd" stroke="none"/>
    <path d="M-10.9 -101.4 L-9.75 -101.65 -9.25 -88.25 -10.5 -88.0 -10.9 -101.4" fill="url(#gradient36)" fill-rule="evenodd" stroke="none"/>
    <path d="M-7.0 -102.15 L-6.25 -102.25 -6.15 -102.25 -6.0 -101.75 -5.75 -90.25 -5.65 -89.65 -5.65 -88.9 -6.9 -88.65 -7.0 -102.15" fill="url(#gradient37)" fill-rule="evenodd" stroke="none"/>
    <path d="M-3.65 -102.75 L-2.5 -102.9 -2.25 -89.5 -2.25 -89.4 -3.5 -89.25 -3.65 -102.75" fill="url(#gradient38)" fill-rule="evenodd" stroke="none"/>
    <path d="M-40.65 -107.5 L-39.75 -108.25 -39.65 -108.25 -39.5 -107.65 -40.65 -107.5" fill="url(#gradient39)" fill-rule="evenodd" stroke="none"/>
    <path d="M-17.4 -86.9 L-18.15 -111.9 -17.15 -112.0 -16.5 -94.9 -16.4 -94.0 -16.15 -87.15 -16.9 -86.9 -17.4 -86.9" fill="url(#gradient40)" fill-rule="evenodd" stroke="none"/>
    <path d="M-0.9 -82.75 L-0.9 -54.25 -5.4 -54.5 -10.9 -52.75 -11.25 -53.15 -18.75 -52.25 -29.15 -50.25 -30.5 -49.65 -30.65 -51.4 Q-29.0 -68.0 -35.65 -73.4 L-35.4 -73.25 -32.5 -70.5 -30.75 -66.75 -30.15 -62.9 -26.5 -63.4 -26.9 -65.65 -28.75 -71.0 -30.25 -73.5 -31.5 -75.0 -31.65 -75.25 -34.15 -77.5 -34.5 -77.65 -35.0 -78.0 -38.25 -79.5 -39.15 -79.75 -41.9 -80.25 -42.5 -80.4 -44.0 -80.4 -46.0 -78.25 -54.0 -77.15 -56.75 -76.4 -58.15 -75.5 -58.15 -74.75 -58.0 -74.5 -57.9 -74.0 -58.4 -74.0 -58.65 -75.65 -55.75 -78.65 -47.0 -83.5 -46.15 -82.75 -44.0 -82.5 -42.75 -82.65 -42.75 -82.75 -36.9 -83.65 -36.5 -83.65 -33.9 -84.15 -33.5 -84.15 -33.15 -84.25 -32.9 -84.25 -30.4 -84.75 -29.5 -84.9 -27.0 -85.25 -25.75 -85.5 -23.9 -85.75 -22.75 -86.0 -20.65 -86.4 -19.5 -86.5 -17.4 -86.9 -16.9 -86.9 -16.15 -83.65 -15.0 -83.5 -14.75 -82.65 -13.9 -82.65 -13.75 -82.0 -12.5 -81.9 -12.4 -81.25 -11.75 -81.15 -0.9 -82.75 M-40.65 -75.7 L-46.4 -75.9 -44.4 -76.4 -41.5 -76.0 -40.65 -75.7" fill="url(#gradient41)" fill-rule="evenodd" stroke="none"/>
    <path d="M-0.9 -89.75 L-0.9 -82.75 -11.75 -81.15 -12.4 -81.25 -12.5 -81.9 -13.75 -82.0 -13.9 -82.65 -14.75 -82.65 -15.0 -83.5 -16.15 -83.65 -16.9 -86.9 -16.15 -87.15 -13.65 -87.5 -12.25 -87.75 -10.5 -88.0 -9.25 -88.25 -6.9 -88.65 -5.65 -88.9 -3.5 -89.25 -2.25 -89.4 -2.25 -89.5 -0.9 -89.75" fill="url(#gradient42)" fill-rule="evenodd" stroke="none"/>
    <path d="M-43.15 -106.4 L-41.4 -106.5 -41.65 -106.15 -42.75 -105.0 -44.15 -101.75 -44.4 -101.5 -46.15 -100.0 -47.5 -99.65 -51.65 -99.0 -43.15 -106.4" fill="url(#gradient43)" fill-rule="evenodd" stroke="none"/>
    <path d="M-54.25 -99.15 L-46.0 -106.25 -45.25 -106.65 -43.15 -106.4 -51.65 -99.0 -52.25 -98.9 -52.65 -98.9 -54.25 -99.15" fill="url(#gradient44)" fill-rule="evenodd" stroke="none"/>
    <path d="M-55.25 -97.25 L-55.4 -97.65 -55.4 -97.9 -55.25 -97.9 -55.4 -97.65 -55.15 -97.5 -54.5 -98.65 -55.15 -98.4 -54.9 -98.65 -54.25 -99.15 -52.65 -98.9 -52.25 -98.9 -52.15 -98.4 -52.75 -98.65 -52.9 -98.25 -52.0 -98.15 -54.0 -95.9 -54.15 -96.0 -54.5 -96.5 -54.75 -96.75 -55.0 -96.75 -53.75 -98.25 -54.4 -98.4 -55.25 -97.25 M-45.4 -100.15 L-45.4 -99.75 -47.0 -99.0 -48.5 -99.25 -47.5 -99.65 -46.15 -100.0 -45.4 -100.15 M-45.65 -98.4 L-45.5 -98.4 -45.75 -98.25 -45.65 -98.4 M-48.5 -96.65 L-48.0 -96.25 -48.5 -96.25 -48.5 -96.65 M-50.25 -95.9 L-51.15 -96.5 -49.0 -96.5 -50.25 -95.9 M-50.15 -98.0 L-50.75 -97.9 -50.9 -98.65 -49.9 -98.15 -49.4 -97.15 -49.75 -97.65 -50.4 -97.65 -50.15 -98.0 M-45.75 -98.25 L-45.75 -98.15 -46.15 -98.0 -45.75 -98.25 M-47.5 -96.25 L-47.75 -96.5 -47.4 -96.5 -47.5 -96.25 M-54.4 -97.65 L-54.65 -97.75 -54.0 -98.15 -54.4 -97.65 M-53.5 -98.4 L-52.65 -98.9 -53.65 -98.75 -53.5 -98.4 M-51.65 -97.4 L-51.65 -97.75 -51.15 -97.9 -51.0 -97.4 -51.65 -97.4 M-51.5 -93.75 L-49.65 -93.75 -51.25 -93.4 -51.5 -93.75 M-51.15 -95.5 L-51.4 -95.75 -51.0 -95.75 -51.15 -95.5 M-49.25 -93.25 L-49.65 -93.0 -49.75 -93.4 -49.25 -93.25 M-50.65 -93.15 L-50.0 -93.15 -50.4 -92.65 -50.65 -93.15 M-48.4 -90.9 L-49.25 -91.4 -47.9 -91.4 -48.5 -91.25 -48.4 -90.9 M-49.65 -91.9 L-49.5 -92.15 -48.65 -92.15 -49.65 -91.9 M-47.25 -90.0 L-47.0 -89.65 -47.75 -89.9 -48.0 -90.25 -47.25 -90.0" fill="url(#gradient45)" fill-rule="evenodd" stroke="none"/>
    <path d="M-41.65 -106.15 L-41.4 -106.5 -41.4 -106.25 -41.65 -106.15" fill="url(#gradient46)" fill-rule="evenodd" stroke="none"/>
    <path d="M-44.4 -101.5 L-44.15 -101.75 -42.75 -105.0 -41.65 -106.15 -41.4 -106.25 -40.9 -106.25 -40.5 -105.15 -40.4 -103.75 -41.0 -102.5 -42.15 -101.75 -42.25 -101.5 -42.75 -82.75 -42.75 -82.65 -44.0 -82.5 -44.0 -84.0 -43.75 -84.25 -44.0 -84.4 -44.0 -85.15 -44.15 -86.5 -44.4 -97.0 -44.5 -97.5 -44.5 -97.65 -44.4 -97.9 -44.4 -99.25 -44.4 -99.65 -44.5 -99.25 -44.5 -98.75 -44.75 -98.65 -44.75 -99.0 -44.75 -99.65 -44.75 -100.25 -44.65 -100.4 -44.5 -100.5 -44.65 -100.5 -44.4 -101.5" fill="url(#gradient47)" fill-rule="evenodd" stroke="none"/>
    <path d="M-36.9 -83.65 L-37.25 -83.65 -37.4 -93.65 -37.25 -95.75 -36.65 -95.75 -36.4 -95.65 -36.25 -95.65 -36.15 -83.75 -36.5 -83.65 -36.9 -83.65" fill="url(#gradient48)" fill-rule="evenodd" stroke="none"/>
    <path d="M-33.9 -84.15 L-34.65 -94.65 -33.65 -94.75 -32.9 -84.5 -32.9 -84.25 -33.15 -84.25 -33.5 -84.15 -33.9 -84.15" fill="url(#gradient49)" fill-rule="evenodd" stroke="none"/>
    <path d="M-30.4 -84.75 L-30.65 -94.4 -29.65 -94.5 -29.5 -84.9 -30.4 -84.75" fill="url(#gradient50)" fill-rule="evenodd" stroke="none"/>
    <path d="M-27.0 -85.25 L-27.4 -95.15 Q-25.4 -94.9 -26.0 -88.5 L-25.9 -86.4 -25.75 -85.65 -25.75 -85.5 -27.0 -85.25" fill="url(#gradient51)" fill-rule="evenodd" stroke="none"/>
    <path d="M-23.9 -85.75 L-24.15 -94.65 -23.15 -94.9 -22.75 -86.0 -23.9 -85.75" fill="url(#gradient52)" fill-rule="evenodd" stroke="none"/>
    <path d="M-20.65 -86.4 L-20.75 -95.15 -19.75 -95.25 -19.5 -86.5 -20.65 -86.4" fill="url(#gradient53)" fill-rule="evenodd" stroke="none"/>
    <path d="M-44.4 -101.5 L-44.65 -100.5 -44.75 -100.25 -45.4 -100.15 -46.15 -100.0 -44.4 -101.5" fill="url(#gradient54)" fill-rule="evenodd" stroke="none"/>
    <path d="M-44.65 -100.4 L-44.75 -100.25 -44.65 -100.5 -44.65 -100.4 M-44.5 -99.25 L-44.4 -99.65 -44.4 -99.25 -44.5 -99.25" fill="url(#gradient55)" fill-rule="evenodd" stroke="none"/>
    <path d="M-46.9 -86.5 L-46.75 -86.75 -46.65 -86.9 -46.75 -86.9 -46.75 -87.25 -46.65 -88.9 -46.75 -89.4 -46.4 -89.25 -46.5 -89.75 -46.65 -91.15 -46.65 -91.9 -46.25 -95.4 -46.15 -95.9 -46.0 -96.25 -45.75 -97.5 -45.65 -97.75 -45.75 -98.25 -45.5 -98.4 -45.65 -98.4 -45.5 -98.9 -45.4 -99.75 -45.4 -100.15 -44.75 -100.25 -44.75 -99.65 -45.0 -99.75 -45.0 -99.15 -45.15 -99.0 -44.75 -99.0 -44.75 -98.65 -44.5 -98.75 -44.5 -97.65 -44.5 -97.5 -44.4 -97.0 -44.15 -86.5 -44.0 -85.15 -44.0 -84.4 -44.0 -84.0 -44.0 -82.5 -46.15 -82.75 -47.0 -83.5 -46.9 -86.5 M-45.25 -98.5 L-45.0 -98.15 -44.9 -98.5 -45.25 -98.5" fill="url(#gradient56)" fill-rule="evenodd" stroke="none"/>
    <path d="M-45.75 -98.25 L-45.65 -97.75 -45.75 -97.5 -46.0 -96.25 -46.15 -95.9 -46.25 -95.4 -46.15 -96.65 -45.9 -97.4 -45.9 -97.5 -45.75 -98.0 -45.75 -98.15 -45.75 -98.25" fill="url(#gradient57)" fill-rule="evenodd" stroke="none"/>
    <path d="M-295.15 -93.0 L-294.9 -92.9 -296.0 -92.9 -295.5 -93.0 -295.15 -93.0 M-337.75 -99.25 L-337.0 -99.25 -337.25 -99.0 -337.75 -99.25" fill="url(#gradient58)" fill-rule="evenodd" stroke="none"/>
    <path d="M-44.5 -98.75 L-44.5 -99.25 -44.4 -99.25 -44.4 -97.9 -44.5 -97.65 -44.5 -98.75" fill="url(#gradient59)" fill-rule="evenodd" stroke="none"/>
    <path d="M-294.9 -92.9 L-294.4 -92.9 -291.75 -92.65 -293.4 -92.25 -293.75 -91.25 -295.15 -91.25 -297.0 -92.65 -297.15 -92.9 -296.0 -92.9 -294.9 -92.9 M-337.75 -99.25 L-337.25 -99.0 -337.75 -98.75 -337.75 -99.25" fill="url(#gradient60)" fill-rule="evenodd" stroke="none"/>
    <path d="M-352.0 -0.9 L-354.0 -0.9 -354.0 -4.5 -354.9 -12.25 Q-347.5 -19.75 -348.15 -39.75 L-350.5 -47.0 -353.65 -50.4 -353.25 -51.65 -353.4 -54.4 -354.15 -58.25 -356.4 -60.4 -358.4 -60.0 -356.9 -62.25 -356.65 -63.25 -356.25 -63.4 -341.5 -89.5 -341.15 -90.25 -339.15 -97.0 -339.25 -97.0 -338.9 -97.65 -312.9 -93.75 -295.75 -93.9 -295.65 -93.75 -295.5 -93.4 -295.5 -93.0 -296.0 -92.9 -297.15 -92.9 -297.0 -92.65 -295.15 -91.25 -285.75 -47.65 -287.65 -34.25 Q-294.65 -41.9 -303.65 -42.75 L-310.5 -42.9 -324.15 -42.4 -330.5 -40.4 -338.4 -35.15 -338.25 -34.9 -344.5 -27.65 -348.75 -18.15 -350.15 -10.65 -350.65 -10.0 -351.15 -7.9 -352.0 -0.9" fill="url(#gradient61)" fill-rule="evenodd" stroke="none"/>
    <path d="M-339.25 -97.0 L-339.15 -97.0 -341.15 -90.25 -341.5 -89.5 -356.25 -63.4 -356.65 -63.25 -359.15 -79.4 -359.0 -79.65 -339.25 -97.0" fill="url(#gradient62)" fill-rule="evenodd" stroke="none"/>
    <path d="M-19.4 -97.9 L-19.5 -97.0 -20.65 -96.75 -21.0 -96.9 -21.0 -97.4 -20.65 -97.9 -19.4 -97.9" fill="url(#gradient63)" fill-rule="evenodd" stroke="none"/>
    <path d="M-19.5 -97.0 L-19.4 -97.9 -19.15 -97.75 -19.5 -97.0" fill="url(#gradient64)" fill-rule="evenodd" stroke="none"/>
    <path d="M-247.65 -97.0 L-237.4 -91.25 -210.65 -71.15 -224.25 -75.25 -225.65 -75.0 -229.75 -73.75 -238.65 -64.4 -253.5 -87.25 -254.15 -87.75 -295.65 -93.75 -295.75 -93.9 -251.25 -98.9 -247.65 -97.0" fill="url(#gradient65)" fill-rule="evenodd" stroke="none"/>
    <path d="M-53.75 -95.4 L-55.0 -96.75 -54.75 -96.75 -54.5 -96.5 -54.15 -96.0 -54.0 -95.9 -53.75 -95.4" fill="url(#gradient66)" fill-rule="evenodd" stroke="none"/>
    <path d="M-36.65 -95.75 L-36.25 -95.65 -36.4 -95.65 -36.65 -95.75" fill="url(#gradient67)" fill-rule="evenodd" stroke="none"/>
    <path d="M-253.5 -87.25 L-253.75 -65.25 -251.0 -34.0 -258.75 -24.0 -262.75 -49.15 -293.75 -91.25 -293.4 -92.25 -291.75 -92.65 -294.4 -92.9 -294.9 -92.9 -295.15 -93.0 -295.5 -93.4 -295.65 -93.75 -254.15 -87.75 -253.5 -87.25" fill="url(#gradient68)" fill-rule="evenodd" stroke="none"/>
    <path d="M-241.4 -22.75 L-241.9 -0.9 -259.9 -0.9 -260.9 -11.15 Q-265.5 -18.5 -267.15 -18.25 L-270.15 -25.15 -277.0 -31.9 -281.15 -33.9 -286.65 -33.9 -287.65 -34.25 -285.75 -47.65 -295.15 -91.25 -293.75 -91.25 -262.75 -49.15 -258.75 -24.0 -258.75 -23.65 -248.15 -27.9 -241.4 -22.75 M-295.5 -93.4 L-295.15 -93.0 -295.5 -93.0 -295.5 -93.4" fill="url(#gradient69)" fill-rule="evenodd" stroke="none"/>
    <path d="M-399.9 -14.65 L-400.0 -55.25 -375.65 -75.9 -375.5 -76.0 -367.9 -89.25 -367.5 -89.75 -366.0 -92.25 -370.15 -70.5 -362.15 -59.15 Q-371.25 -58.25 -387.9 -39.9 -395.0 -28.65 -395.65 -16.4 L-399.9 -14.65" fill="url(#gradient70)" fill-rule="evenodd" stroke="none"/>
    <path d="M-354.0 -0.9 L-393.25 -0.9 -395.25 -8.25 -395.65 -16.4 Q-395.0 -28.65 -387.9 -39.9 -371.25 -58.25 -362.15 -59.15 L-358.4 -60.0 -356.4 -60.4 -354.15 -58.25 -353.4 -54.4 -353.25 -51.65 -353.65 -50.4 -350.5 -47.0 -348.15 -39.75 Q-347.5 -19.75 -354.9 -12.25 L-354.0 -4.5 -354.0 -0.9" fill="url(#gradient71)" fill-rule="evenodd" stroke="none"/>
    <path d="M-259.9 -0.9 L-352.0 -0.9 -351.15 -7.9 -350.65 -10.0 -350.15 -10.65 -348.75 -18.15 -344.5 -27.65 -338.25 -34.9 -338.4 -35.15 -330.5 -40.4 -324.15 -42.4 -310.5 -42.9 -303.65 -42.75 Q-294.65 -41.9 -287.65 -34.25 L-286.65 -33.9 -281.15 -33.9 -277.0 -31.9 -270.15 -25.15 -267.15 -18.25 Q-265.5 -18.5 -260.9 -11.15 L-259.9 -0.9" fill="url(#gradient72)" fill-rule="evenodd" stroke="none"/>
    <path d="M-367.75 -89.5 L-367.5 -89.75 -367.9 -89.25 -367.75 -89.5" fill="url(#gradient73)" fill-rule="evenodd" stroke="none"/>
    <path d="M-400.0 -55.25 L-400.0 -62.5 -387.4 -74.65 -372.4 -86.65 -367.75 -89.5 -367.9 -89.25 -375.5 -76.0 -375.65 -75.9 -400.0 -55.25" fill="url(#gradient74)" fill-rule="evenodd" stroke="none"/>
    <path d="M-46.75 -89.4 L-46.65 -88.9 -46.9 -89.0 -46.75 -89.4" fill="url(#gradient75)" fill-rule="evenodd" stroke="none"/>
    <path d="M-253.5 -87.25 L-238.65 -64.4 -253.75 -65.25 -253.5 -87.25" fill="url(#gradient76)" fill-rule="evenodd" stroke="none"/>
    <path d="M-153.75 -0.9 L-209.75 -0.9 -217.0 -6.9 -235.25 -18.25 -236.65 -19.5 -251.0 -34.0 -253.75 -65.25 -238.65 -64.4 -185.0 -29.4 -150.9 -4.75 -153.75 -0.9" fill="url(#gradient77)" fill-rule="evenodd" stroke="none"/>
    <path d="M-236.65 -19.5 L-241.4 -22.75 -248.15 -27.9 -258.75 -23.65 -258.75 -24.0 -251.0 -34.0 -236.65 -19.5" fill="url(#gradient78)" fill-rule="evenodd" stroke="none"/>
    <path d="M-46.75 -86.75 L-46.75 -86.9 -46.65 -86.9 -46.75 -86.75" fill="url(#gradient79)" fill-rule="evenodd" stroke="none"/>
    <path d="M-55.75 -78.65 L-49.4 -84.65 -46.9 -86.5 -47.0 -83.5 -55.75 -78.65" fill="url(#gradient80)" fill-rule="evenodd" stroke="none"/>
    <path d="M-0.9 -54.25 L-0.9 -28.5 -1.75 -28.9 -3.9 -32.9 Q-6.0 -36.65 -4.15 -42.5 L-5.9 -44.0 -7.5 -47.15 -8.75 -46.9 -9.15 -49.65 -10.9 -52.75 -5.4 -54.5 -0.9 -54.25" fill="url(#gradient81)" fill-rule="evenodd" stroke="none"/>
    <path d="M-118.0 -17.4 L-78.9 -34.25 -48.25 -44.75 -30.65 -51.4 -30.5 -49.65 -29.15 -50.25 -18.75 -52.25 -11.25 -53.15 -10.9 -52.75 -9.15 -49.65 -8.75 -46.9 -7.5 -47.15 -5.9 -44.0 -38.25 -34.5 -71.25 -23.0 -96.4 -12.65 -120.15 -4.4 -122.15 -14.15 -118.0 -17.4" fill="url(#gradient82)" fill-rule="evenodd" stroke="none"/>
    <path d="M-35.65 -73.4 L-36.15 -73.75 -37.75 -74.65 -40.65 -75.7 -41.5 -76.0 -44.4 -76.4 -46.4 -75.9 -46.65 -75.9 -48.15 -75.65 -48.5 -75.5 -57.9 -74.0 -58.0 -74.5 -58.15 -74.75 -58.15 -75.5 -56.75 -76.4 -54.0 -77.15 -46.0 -78.25 -44.0 -80.4 -42.5 -80.4 -41.9 -80.25 -39.15 -79.75 -38.25 -79.5 -35.0 -78.0 -34.5 -77.65 -34.15 -77.5 -31.65 -75.25 -31.5 -75.0 -30.25 -73.5 -28.75 -71.0 -26.9 -65.65 -26.5 -63.4 -30.15 -62.9 -30.75 -66.75 -32.5 -70.5 -35.4 -73.25 -35.65 -73.4" fill="url(#gradient83)" fill-rule="evenodd" stroke="none"/>
    <path d="M-210.65 -71.15 L-194.75 -61.15 -164.15 -39.75 -133.75 -20.0 Q-135.75 -17.4 -140.75 -15.25 L-150.9 -4.75 -185.0 -29.4 -238.65 -64.4 -229.75 -73.75 -225.65 -75.0 -224.25 -75.25 -210.65 -71.15" fill="url(#gradient84)" fill-rule="evenodd" stroke="none"/>
    <path d="M-133.75 -20.0 L-118.0 -17.4 -122.15 -14.15 -120.15 -4.4 -150.9 -4.75 -140.75 -15.25 Q-135.75 -17.4 -133.75 -20.0" fill="url(#gradient85)" fill-rule="evenodd" stroke="none"/>
    <path d="M-0.9 -28.5 L-0.9 -15.5 -3.65 -12.65 -23.25 -7.9 -37.4 -0.9 -87.25 -0.9 -96.4 -12.65 -71.25 -23.0 -38.25 -34.5 -5.9 -44.0 -4.15 -42.5 Q-6.0 -36.65 -3.9 -32.9 L-1.75 -28.9 -0.9 -28.5" fill="url(#gradient86)" fill-rule="evenodd" stroke="none"/>
    <path d="M-87.25 -0.9 L-110.4 -0.9 -120.15 -4.4 -96.4 -12.65 -87.25 -0.9" fill="url(#gradient87)" fill-rule="evenodd" stroke="none"/>
    <path d="M-110.4 -0.9 L-153.75 -0.9 -150.9 -4.75 -120.15 -4.4 -110.4 -0.9" fill="url(#gradient88)" fill-rule="evenodd" stroke="none"/>
    <path d="M-399.9 -14.65 L-395.65 -16.4 -395.25 -8.25 -399.9 -14.65" fill="url(#gradient89)" fill-rule="evenodd" stroke="none"/>
    <path d="M-393.25 -0.9 L-397.25 -0.9 -399.9 -14.5 -399.9 -14.65 -395.25 -8.25 -393.25 -0.9" fill="url(#gradient90)" fill-rule="evenodd" stroke="none"/>
    <path d="M-397.25 -0.9 L-400.0 -0.9 -399.9 -14.5 -397.25 -0.9" fill="url(#gradient91)" fill-rule="evenodd" stroke="none"/>
    <path d="M-345.4 -110.75 L-350.75 -111.15 -336.15 -115.15 -319.65 -116.5 -320.75 -115.25 -329.9 -114.5 -345.4 -110.75 M-272.15 -110.9 L-273.4 -112.9 -272.4 -113.9 -273.15 -114.75 -274.9 -115.4 -275.15 -115.75 -276.0 -116.75 -276.15 -116.75 -276.15 -119.4 -275.5 -119.65 -275.0 -119.75 -274.75 -119.75 -271.25 -119.15 -269.4 -115.15 -266.75 -114.4 -266.15 -113.15 -266.5 -112.25 -272.15 -110.9" fill="#ab0000" fill-opacity="0.9098039" fill-rule="evenodd" stroke="none"/>
    <path d="M-307.9 -0.9 L-328.65 -0.9 -324.75 -15.75 -323.65 -18.9 -320.4 -25.75 -320.0 -26.15 -319.4 -27.75 -316.15 -34.4 -315.9 -34.75 -312.9 -41.15 -312.65 -41.4 -312.25 -42.65 -303.75 -60.0 -301.5 -74.9 -301.5 -75.5 -299.5 -88.65 -298.4 -104.0 -296.65 -104.9 -295.75 -105.15 -290.9 -107.25 -290.65 -107.5 -286.25 -109.4 -278.5 -111.5 -278.15 -111.65 -273.4 -112.9 -272.15 -110.9 -272.15 -110.75 -273.5 -110.25 -275.25 -109.9 -275.65 -109.75 -275.75 -109.75 -276.25 -109.5 -276.65 -109.5 -278.4 -109.0 -279.9 -108.0 -280.9 -107.5 -281.15 -107.5 -281.5 -107.25 -281.75 -107.25 -285.15 -105.15 -285.65 -105.0 -289.15 -102.9 -291.5 -93.15 -291.75 -92.65 -291.65 -92.5 -292.5 -89.65 -292.4 -89.15 -293.4 -83.75 -293.4 -82.25 -295.75 -65.15 -295.65 -64.5 -296.25 -59.0 -304.5 -41.9 -304.75 -41.25 -305.0 -40.9 -309.25 -31.9 -309.5 -31.5 -314.5 -20.9 -314.75 -20.5 -316.4 -16.9 -287.25 -4.65 -294.5 -3.25 -294.75 -3.15 -307.9 -0.9" fill="#9b0000" fill-opacity="0.9098039" fill-rule="evenodd" stroke="none"/>
    <path d="M-307.9 -0.9 L-294.75 -3.15 -294.5 -3.25 -287.25 -4.65 -287.25 -0.9 -307.9 -0.9" fill="#9e0000" fill-opacity="0.9098039" fill-rule="evenodd" stroke="none"/>
    <path d="M-350.75 -111.15 L-345.4 -110.75 -354.5 -98.15 -354.9 -97.75 -355.25 -97.65 -355.4 -97.65 -362.4 -94.25 -361.9 -97.0 -351.15 -111.15 -350.75 -111.15" fill="#b20000" fill-opacity="0.9098039" fill-rule="evenodd" stroke="none"/>
    <path d="M-362.4 -94.25 L-355.4 -97.65 -355.25 -97.65 -354.9 -97.75 -355.5 -96.75 -355.75 -96.5 -359.0 -80.25 -359.4 -79.75 -359.15 -79.65 -359.25 -79.25 -359.5 -79.0 -359.4 -78.5 -360.9 -71.0 -371.0 -55.25 -371.4 -54.9 -371.9 -54.0 -372.25 -53.5 -372.4 -53.15 -372.75 -52.9 -373.9 -51.15 -373.9 -50.75 -374.65 -49.65 -375.0 -49.4 -375.25 -48.65 -376.4 -47.15 -377.75 -44.75 -378.15 -44.4 -382.4 -37.65 -382.75 -37.4 -385.9 -32.25 -386.5 -29.5 -386.65 -29.25 -391.15 -11.25 -391.25 -11.0 -391.75 -8.5 -393.4 -3.0 -393.5 -2.25 -393.9 -2.5 -394.9 -7.25 -394.65 -8.25 -395.0 -8.75 -395.0 -9.15 -395.15 -9.75 -395.5 -13.25 -395.65 -13.9 -395.65 -15.4 -395.75 -16.25 -395.75 -16.9 -395.5 -17.75 -395.5 -19.9 -395.15 -21.65 -395.15 -22.5 -394.75 -22.9 -394.75 -23.9 -392.15 -31.65 -397.75 -32.25 -391.9 -34.0 -388.0 -39.9 -388.0 -40.25 -367.15 -71.65 -366.9 -73.0 -366.75 -73.4 -363.65 -88.15 -363.75 -88.65 -362.5 -93.4 -362.65 -93.9 -362.4 -94.15 -362.4 -94.25" fill="#a10000" fill-opacity="0.9098039" fill-rule="evenodd" stroke="none"/>
    <path d="M-397.75 -32.25 L-392.15 -31.65 -394.75 -23.9 -394.75 -22.9 -395.15 -22.5 -395.15 -21.65 -395.5 -19.9 -395.5 -17.75 -395.75 -16.9 -396.15 -17.5 -396.25 -19.75 -396.4 -19.75 -396.5 -21.0 -396.65 -21.5 -396.4 -21.75 -397.75 -30.65 -398.15 -31.0 -397.75 -31.0 -398.15 -31.15 -397.75 -32.25 M-393.9 -2.5 L-393.5 -2.25 -393.5 -1.25 -393.75 -0.9 -393.9 -2.5" fill="#b60000" fill-rule="evenodd" stroke="none"/>
    <path d="M-395.75 -16.9 L-395.75 -16.25 -395.65 -15.4 -395.65 -13.9 -395.5 -13.25 -395.15 -9.75 -395.0 -9.15 -395.0 -8.75 -395.25 -8.25 -394.9 -7.25 -393.9 -2.5 -393.75 -0.9 -399.4 -0.9 -399.5 -1.25 -400.0 -1.5 -399.9 -14.75 -399.65 -14.75 -399.25 -19.4 -399.15 -19.5 -399.25 -19.9 -399.15 -20.15 -399.15 -20.25 -398.15 -31.0 -398.15 -31.15 -397.75 -31.0 -398.15 -31.0 -397.75 -30.65 -396.4 -21.75 -396.65 -21.5 -396.5 -21.0 -396.4 -19.75 -396.25 -19.75 -396.15 -17.5 -395.75 -16.9" fill="#de0000" fill-rule="evenodd" stroke="none"/>
    <path d="M-395.0 -8.75 L-394.65 -8.25 -394.9 -7.25 -395.25 -8.25 -395.0 -8.75" fill="#c90000" fill-opacity="0.9098039" fill-rule="evenodd" stroke="none"/>
    <path d="M-287.25 -4.65 L-284.25 -4.15 -283.65 -4.0 -275.4 -2.65 -274.9 -2.75 -274.65 -2.5 -274.25 -2.65 -265.65 -1.25 -265.25 -1.15 -265.0 -1.15 -264.0 -0.9 -287.25 -0.9 -287.25 -4.65" fill="#b30000" fill-opacity="0.9098039" fill-rule="evenodd" stroke="none"/>
    <path d="M-393.5 -1.25 L-393.4 -1.25 -393.25 -0.9 -393.75 -0.9 -393.5 -1.25" fill="#e00000" fill-opacity="0.9098039" fill-rule="evenodd" stroke="none"/>
  </g>
  <defs>
    <radialGradient cx="0" cy="0" gradientTransform="matrix(0.2481, 0.0, 0.0, 0.2481, -400.0, -234.5)" gradientUnits="userSpaceOnUse" id="gradient0" r="819.2" spreadMethod="pad">
      <stop offset="0.0" stop-color="#3e3e3e"/>
      <stop offset="1.0" stop-color="#1d1d1d"/>
    </radialGradient>
    <radialGradient cx="0" cy="0" gradientTransform="matrix(0.2514, 0.0, 0.0, 0.2514, -188.3, -181.75)" gradientUnits="userSpaceOnUse" id="gradient1" r="819.2" spreadMethod="pad">
      <stop offset="0.0" stop-color="#424242"/>
      <stop offset="1.0" stop-color="#1a1a1a"/>
    </radialGradient>
    <radialGradient cx="0" cy="0" gradientTransform="matrix(0.2036, 0.0, 0.0, 0.2036, -315.4, -127.55)" gradientUnits="userSpaceOnUse" id="gradient2" r="819.2" spreadMethod="pad">
      <stop offset="0.0" stop-color="#7d7d7d"/>
      <stop offset="1.0" stop-color="#070707"/>
    </radialGradient>
    <radialGradient cx="0" cy="0" gradientTransform="matrix(0.0713, 0.0, 0.0, 0.0713, -378.05, -237.5)" gradientUnits="userSpaceOnUse" id="gradient3" r="819.2" spreadMethod="pad">
      <stop offset="0.0" stop-color="#767676"/>
      <stop offset="1.0" stop-color="#767676"/>
    </radialGradient>
    <radialGradient cx="0" cy="0" gradientTransform="matrix(0.0097, 0.0, 0.0, 0.0097, -378.05, -237.5)" gradientUnits="userSpaceOnUse" id="gradient4" r="819.2" spreadMethod="pad">
      <stop offset="0.0" stop-color="#767676"/>
      <stop offset="1.0" stop-color="#767676"/>
    </radialGradient>
    <radialGradient cx="0" cy="0" gradientTransform="matrix(0.013, 0.0, 0.0, 0.013, -373.55, -236.6)" gradientUnits="userSpaceOnUse" id="gradient5" r="819.2" spreadMethod="pad">
      <stop offset="0.0" stop-color="#8a8a8a"/>
      <stop offset="1.0" stop-color="#898989"/>
    </radialGradient>
    <radialGradient cx="0" cy="0" gradientTransform="matrix(0.0589, 0.0, 0.0, 0.0589, -384.1, -289.85)" gradientUnits="userSpaceOnUse" id="gradient6" r="819.2" spreadMethod="pad">
      <stop offset="0.0" stop-color="#080808"/>
      <stop offset="1.0" stop-color="#080808"/>
    </radialGradient>
    <radialGradient cx="0" cy="0" gradientTransform="matrix(0.0057, 0.0, 0.0, 0.0057, -369.35, -211.05)" gradientUnits="userSpaceOnUse" id="gradient7" r="819.2" spreadMethod="pad">
      <stop offset="0.0" stop-color="#e2e2e2"/>
      <stop offset="1.0" stop-color="#e0e0e0"/>
    </radialGradient>
    <radialGradient cx="0" cy="0" gradientTransform="matrix(0.014, 0.0, 0.0, 0.014, -374.9, -203.65)" gradientUnits="userSpaceOnUse" id="gradient8" r="819.2" spreadMethod="pad">
      <stop offset="0.0" stop-color="#e1e1e1"/>
      <stop offset="1.0" stop-color="#dedede"/>
    </radialGradient>
    <radialGradient cx="0" cy="0" gradientTransform="matrix(0.0347, 0.0, 0.0, 0.0347, -371.6, -203.45)" gradientUnits="userSpaceOnUse" id="gradient9" r="819.2" spreadMethod="pad">
      <stop offset="0.0" stop-color="#767676"/>
      <stop offset="1.0" stop-color="#767676"/>
    </radialGradient>
    <radialGradient cx="0" cy="0" gradientTransform="matrix(0.0292, 0.0, 0.0, 0.0292, -342.55, -155.2)" gradientUnits="userSpaceOnUse" id="gradient10" r="819.2" spreadMethod="pad">
      <stop offset="0.0" stop-color="#ff5151"/>
      <stop offset="1.0" stop-color="#330000"/>
    </radialGradient>
    <radialGradient cx="0" cy="0" gradientTransform="matrix(0.0288, 0.0, 0.0, 0.0288, -342.0, -154.9)" gradientUnits="userSpaceOnUse" id="gradient11" r="819.2" spreadMethod="pad">
      <stop offset="0.0" stop-color="#ff5151"/>
      <stop offset="1.0" stop-color="#ff4c4c"/>
    </radialGradient>
    <radialGradient cx="0" cy="0" gradientTransform="matrix(0.0265, 0.0, 0.0, 0.0265, -344.6, -147.6)" gradientUnits="userSpaceOnUse" id="gradient12" r="819.2" spreadMethod="pad">
      <stop offset="0.0" stop-color="#ff3030"/>
      <stop offset="1.0" stop-color="#ff2d2d"/>
    </radialGradient>
    <radialGradient cx="0" cy="0" gradientTransform="matrix(0.0331, 0.0, 0.0, 0.0331, -338.9, -149.95)" gradientUnits="userSpaceOnUse" id="gradient13" r="819.2" spreadMethod="pad">
      <stop offset="0.0" stop-color="#f89797"/>
      <stop offset="1.0" stop-color="#864242"/>
    </radialGradient>
    <radialGradient cx="0" cy="0" gradientTransform="matrix(0.026, 0.0, 0.0, 0.026, -12.85, -101.2)" gradientUnits="userSpaceOnUse" id="gradient14" r="819.2" spreadMethod="pad">
      <stop offset="0.0" stop-color="#343434"/>
      <stop offset="1.0" stop-color="#333333"/>
    </radialGradient>
    <radialGradient cx="0" cy="0" gradientTransform="matrix(0.0185, 0.0, 0.0, 0.0185, -1.0, -122.3)" gradientUnits="userSpaceOnUse" id="gradient15" r="819.2" spreadMethod="pad">
      <stop offset="0.0" stop-color="#060606"/>
      <stop offset="1.0" stop-color="#060606"/>
    </radialGradient>
    <radialGradient cx="0" cy="0" gradientTransform="matrix(0.0198, 0.0, 0.0, 0.0198, -13.5, -113.7)" gradientUnits="userSpaceOnUse" id="gradient16" r="819.2" spreadMethod="pad">
      <stop offset="0.0" stop-color="#060606"/>
      <stop offset="1.0" stop-color="#060606"/>
    </radialGradient>
    <radialGradient cx="0" cy="0" gradientTransform="matrix(0.0214, 0.0, 0.0, 0.0214, -6.0, -120.55)" gradientUnits="userSpaceOnUse" id="gradient17" r="819.2" spreadMethod="pad">
      <stop offset="0.0" stop-color="#040404"/>
      <stop offset="1.0" stop-color="#040404"/>
    </radialGradient>
    <radialGradient cx="0" cy="0" gradientTransform="matrix(0.0162, 0.0, 0.0, 0.0162, -13.45, -119.45)" gradientUnits="userSpaceOnUse" id="gradient18" r="819.2" spreadMethod="pad">
      <stop offset="0.0" stop-color="#0a0a0a"/>
      <stop offset="1.0" stop-color="#0a0a0a"/>
    </radialGradient>
    <radialGradient cx="0" cy="0" gradientTransform="matrix(0.0214, 0.0, 0.0, 0.0214, -15.5, -118.1)" gradientUnits="userSpaceOnUse" id="gradient19" r="819.2" spreadMethod="pad">
      <stop offset="0.0" stop-color="#040404"/>
      <stop offset="1.0" stop-color="#040404"/>
    </radialGradient>
    <radialGradient cx="0" cy="0" gradientTransform="matrix(0.0147, 0.0, 0.0, 0.0147, -22.5, -116.7)" gradientUnits="userSpaceOnUse" id="gradient20" r="819.2" spreadMethod="pad">
      <stop offset="0.0" stop-color="#040404"/>
      <stop offset="1.0" stop-color="#040404"/>
    </radialGradient>
    <radialGradient cx="0" cy="0" gradientTransform="matrix(0.017, 0.0, 0.0, 0.017, -24.5, -117.75)" gradientUnits="userSpaceOnUse" id="gradient21" r="819.2" spreadMethod="pad">
      <stop offset="0.0" stop-color="#040404"/>
      <stop offset="1.0" stop-color="#040404"/>
    </radialGradient>
    <radialGradient cx="0" cy="0" gradientTransform="matrix(0.0168, 0.0, 0.0, 0.0168, -28.85, -119.45)" gradientUnits="userSpaceOnUse" id="gradient22" r="819.2" spreadMethod="pad">
      <stop offset="0.0" stop-color="#040404"/>
      <stop offset="1.0" stop-color="#040404"/>
    </radialGradient>
    <radialGradient cx="0" cy="0" gradientTransform="matrix(0.0568, 0.0, 0.0, 0.0568, -44.65, -100.45)" gradientUnits="userSpaceOnUse" id="gradient23" r="819.2" spreadMethod="pad">
      <stop offset="0.0" stop-color="#040404"/>
      <stop offset="1.0" stop-color="#040404"/>
    </radialGradient>
    <radialGradient cx="0" cy="0" gradientTransform="matrix(0.0432, 0.0, 0.0, 0.0432, -318.7, -120.95)" gradientUnits="userSpaceOnUse" id="gradient24" r="819.2" spreadMethod="pad">
      <stop offset="0.0" stop-color="#181818"/>
      <stop offset="1.0" stop-color="#000000"/>
    </radialGradient>
    <radialGradient cx="0" cy="0" gradientTransform="matrix(0.0105, 0.0, 0.0, 0.0105, -330.1, -105.3)" gradientUnits="userSpaceOnUse" id="gradient25" r="819.2" spreadMethod="pad">
      <stop offset="0.0" stop-color="#0e0e0e"/>
      <stop offset="1.0" stop-color="#000000"/>
    </radialGradient>
    <radialGradient cx="0" cy="0" gradientTransform="matrix(0.0696, 0.0, 0.0, 0.0696, -310.85, -108.2)" gradientUnits="userSpaceOnUse" id="gradient26" r="819.2" spreadMethod="pad">
      <stop offset="0.0" stop-color="#3c3c3c"/>
      <stop offset="1.0" stop-color="#000000"/>
    </radialGradient>
    <radialGradient cx="0" cy="0" gradientTransform="matrix(0.0567, 0.0, 0.0, 0.0567, -349.55, -51.15)" gradientUnits="userSpaceOnUse" id="gradient27" r="819.2" spreadMethod="pad">
      <stop offset="0.0" stop-color="#171717"/>
      <stop offset="1.0" stop-color="#000000"/>
    </radialGradient>
    <radialGradient cx="0" cy="0" gradientTransform="matrix(0.0387, 0.0, 0.0, 0.0387, -335.4, -100.45)" gradientUnits="userSpaceOnUse" id="gradient28" r="819.2" spreadMethod="pad">
      <stop offset="0.0" stop-color="#000000"/>
      <stop offset="1.0" stop-color="#000000"/>
    </radialGradient>
    <radialGradient cx="0" cy="0" gradientTransform="matrix(0.155, 0.0, 0.0, 0.155, -276.7, -127.95)" gradientUnits="userSpaceOnUse" id="gradient29" r="819.2" spreadMethod="pad">
      <stop offset="0.0" stop-color="#1a1a1a"/>
      <stop offset="1.0" stop-color="#0f0f0f"/>
    </radialGradient>
    <radialGradient cx="0" cy="0" gradientTransform="matrix(0.147, 0.0, 0.0, 0.147, -276.15, -121.15)" gradientUnits="userSpaceOnUse" id="gradient30" r="819.2" spreadMethod="pad">
      <stop offset="0.0" stop-color="#101010"/>
      <stop offset="1.0" stop-color="#000000"/>
    </radialGradient>
    <radialGradient cx="0" cy="0" gradientTransform="matrix(0.0229, 0.0, 0.0, 0.0229, -303.4, -124.7)" gradientUnits="userSpaceOnUse" id="gradient31" r="819.2" spreadMethod="pad">
      <stop offset="0.0" stop-color="#797979"/>
      <stop offset="1.0" stop-color="#000000"/>
    </radialGradient>
    <radialGradient cx="0" cy="0" gradientTransform="matrix(0.0388, 0.0, 0.0, 0.0388, -275.9, -116.8)" gradientUnits="userSpaceOnUse" id="gradient32" r="819.2" spreadMethod="pad">
      <stop offset="0.0" stop-color="#7b7b7b"/>
      <stop offset="1.0" stop-color="#090909"/>
    </radialGradient>
    <radialGradient cx="0" cy="0" gradientTransform="matrix(0.0447, 0.0, 0.0, 0.0447, -240.55, -64.95)" gradientUnits="userSpaceOnUse" id="gradient33" r="819.2" spreadMethod="pad">
      <stop offset="0.0" stop-color="#414141"/>
      <stop offset="1.0" stop-color="#0a0a0a"/>
    </radialGradient>
    <radialGradient cx="0" cy="0" gradientTransform="matrix(0.0498, 0.0, 0.0, 0.0498, -291.4, -106.05)" gradientUnits="userSpaceOnUse" id="gradient34" r="819.2" spreadMethod="pad">
      <stop offset="0.0" stop-color="#000000"/>
      <stop offset="1.0" stop-color="#000000"/>
    </radialGradient>
    <radialGradient cx="0" cy="0" gradientTransform="matrix(0.0319, 0.0, 0.0, 0.0319, -13.5, -113.7)" gradientUnits="userSpaceOnUse" id="gradient35" r="819.2" spreadMethod="pad">
      <stop offset="0.0" stop-color="#020202"/>
      <stop offset="1.0" stop-color="#020202"/>
    </radialGradient>
    <radialGradient cx="0" cy="0" gradientTransform="matrix(0.0167, 0.0, 0.0, 0.0167, -9.7, -101.8)" gradientUnits="userSpaceOnUse" id="gradient36" r="819.2" spreadMethod="pad">
      <stop offset="0.0" stop-color="#020202"/>
      <stop offset="1.0" stop-color="#020202"/>
    </radialGradient>
    <radialGradient cx="0" cy="0" gradientTransform="matrix(0.0168, 0.0, 0.0, 0.0168, -6.05, -102.45)" gradientUnits="userSpaceOnUse" id="gradient37" r="819.2" spreadMethod="pad">
      <stop offset="0.0" stop-color="#020202"/>
      <stop offset="1.0" stop-color="#020202"/>
    </radialGradient>
    <radialGradient cx="0" cy="0" gradientTransform="matrix(0.017, 0.0, 0.0, 0.017, -2.5, -103.15)" gradientUnits="userSpaceOnUse" id="gradient38" r="819.2" spreadMethod="pad">
      <stop offset="0.0" stop-color="#020202"/>
      <stop offset="1.0" stop-color="#020202"/>
    </radialGradient>
    <radialGradient cx="0" cy="0" gradientTransform="matrix(0.0137, 0.0, 0.0, 0.0137, -40.8, -107.5)" gradientUnits="userSpaceOnUse" id="gradient39" r="819.2" spreadMethod="pad">
      <stop offset="0.0" stop-color="#040404"/>
      <stop offset="1.0" stop-color="#040404"/>
    </radialGradient>
    <radialGradient cx="0" cy="0" gradientTransform="matrix(0.0306, 0.0, 0.0, 0.0306, -17.05, -112.0)" gradientUnits="userSpaceOnUse" id="gradient40" r="819.2" spreadMethod="pad">
      <stop offset="0.0" stop-color="#020202"/>
      <stop offset="1.0" stop-color="#020202"/>
    </radialGradient>
    <radialGradient cx="0" cy="0" gradientTransform="matrix(0.0595, 0.0, 0.0, 0.0595, -35.8, -73.2)" gradientUnits="userSpaceOnUse" id="gradient41" r="819.2" spreadMethod="pad">
      <stop offset="0.0" stop-color="#040404"/>
      <stop offset="1.0" stop-color="#040404"/>
    </radialGradient>
    <radialGradient cx="0" cy="0" gradientTransform="matrix(0.018, 0.0, 0.0, 0.018, -13.9, -82.85)" gradientUnits="userSpaceOnUse" id="gradient42" r="819.2" spreadMethod="pad">
      <stop offset="0.0" stop-color="#050505"/>
      <stop offset="1.0" stop-color="#050505"/>
    </radialGradient>
    <radialGradient cx="0" cy="0" gradientTransform="matrix(0.0214, 0.0, 0.0, 0.0214, -36.95, -107.6)" gradientUnits="userSpaceOnUse" id="gradient43" r="819.2" spreadMethod="pad">
      <stop offset="0.0" stop-color="#040404"/>
      <stop offset="1.0" stop-color="#040404"/>
    </radialGradient>
    <radialGradient cx="0" cy="0" gradientTransform="matrix(0.0141, 0.0, 0.0, 0.0141, -45.7, -106.5)" gradientUnits="userSpaceOnUse" id="gradient44" r="819.2" spreadMethod="pad">
      <stop offset="0.0" stop-color="#7e7e7e"/>
      <stop offset="1.0" stop-color="#393939"/>
    </radialGradient>
    <radialGradient cx="0" cy="0" gradientTransform="matrix(0.0115, 0.0, 0.0, 0.0115, -46.0, -95.8)" gradientUnits="userSpaceOnUse" id="gradient45" r="819.2" spreadMethod="pad">
      <stop offset="0.0" stop-color="#171717"/>
      <stop offset="1.0" stop-color="#171717"/>
    </radialGradient>
    <radialGradient cx="0" cy="0" gradientTransform="matrix(0.0139, 0.0, 0.0, 0.0139, -44.5, -100.5)" gradientUnits="userSpaceOnUse" id="gradient46" r="819.2" spreadMethod="pad">
      <stop offset="0.0" stop-color="#303030"/>
      <stop offset="1.0" stop-color="#303030"/>
    </radialGradient>
    <radialGradient cx="0" cy="0" gradientTransform="matrix(0.0284, 0.0, 0.0, 0.0284, -42.15, -105.85)" gradientUnits="userSpaceOnUse" id="gradient47" r="819.2" spreadMethod="pad">
      <stop offset="0.0" stop-color="#171717"/>
      <stop offset="1.0" stop-color="#171717"/>
    </radialGradient>
    <radialGradient cx="0" cy="0" gradientTransform="matrix(0.0148, 0.0, 0.0, 0.0148, -36.3, -95.75)" gradientUnits="userSpaceOnUse" id="gradient48" r="819.2" spreadMethod="pad">
      <stop offset="0.0" stop-color="#020202"/>
      <stop offset="1.0" stop-color="#020202"/>
    </radialGradient>
    <radialGradient cx="0" cy="0" gradientTransform="matrix(0.013, 0.0, 0.0, 0.013, -33.55, -94.8)" gradientUnits="userSpaceOnUse" id="gradient49" r="819.2" spreadMethod="pad">
      <stop offset="0.0" stop-color="#020202"/>
      <stop offset="1.0" stop-color="#020202"/>
    </radialGradient>
    <radialGradient cx="0" cy="0" gradientTransform="matrix(0.012, 0.0, 0.0, 0.012, -29.6, -94.55)" gradientUnits="userSpaceOnUse" id="gradient50" r="819.2" spreadMethod="pad">
      <stop offset="0.0" stop-color="#020202"/>
      <stop offset="1.0" stop-color="#020202"/>
    </radialGradient>
    <radialGradient cx="0" cy="0" gradientTransform="matrix(0.0119, 0.0, 0.0, 0.0119, -26.35, -95.1)" gradientUnits="userSpaceOnUse" id="gradient51" r="819.2" spreadMethod="pad">
      <stop offset="0.0" stop-color="#020202"/>
      <stop offset="1.0" stop-color="#020202"/>
    </radialGradient>
    <radialGradient cx="0" cy="0" gradientTransform="matrix(0.0111, 0.0, 0.0, 0.0111, -23.1, -94.95)" gradientUnits="userSpaceOnUse" id="gradient52" r="819.2" spreadMethod="pad">
      <stop offset="0.0" stop-color="#020202"/>
      <stop offset="1.0" stop-color="#020202"/>
    </radialGradient>
    <radialGradient cx="0" cy="0" gradientTransform="matrix(0.0109, 0.0, 0.0, 0.0109, -19.75, -95.3)" gradientUnits="userSpaceOnUse" id="gradient53" r="819.2" spreadMethod="pad">
      <stop offset="0.0" stop-color="#020202"/>
      <stop offset="1.0" stop-color="#020202"/>
    </radialGradient>
    <radialGradient cx="0" cy="0" gradientTransform="matrix(0.0141, 0.0, 0.0, 0.0141, -50.7, -98.75)" gradientUnits="userSpaceOnUse" id="gradient54" r="819.2" spreadMethod="pad">
      <stop offset="0.0" stop-color="#171717"/>
      <stop offset="1.0" stop-color="#171717"/>
    </radialGradient>
    <radialGradient cx="0" cy="0" gradientTransform="matrix(0.0154, 0.0, 0.0, 0.0154, -44.35, -99.3)" gradientUnits="userSpaceOnUse" id="gradient55" r="819.2" spreadMethod="pad">
      <stop offset="0.0" stop-color="#1c1c1c"/>
      <stop offset="1.0" stop-color="#1b1b1b"/>
    </radialGradient>
    <radialGradient cx="0" cy="0" gradientTransform="matrix(0.0222, 0.0, 0.0, 0.0222, -43.95, -82.65)" gradientUnits="userSpaceOnUse" id="gradient56" r="819.2" spreadMethod="pad">
      <stop offset="0.0" stop-color="#020202"/>
      <stop offset="1.0" stop-color="#020202"/>
    </radialGradient>
    <radialGradient cx="0" cy="0" gradientTransform="matrix(0.0156, 0.0, 0.0, 0.0156, -45.1, -100.3)" gradientUnits="userSpaceOnUse" id="gradient57" r="819.2" spreadMethod="pad">
      <stop offset="0.0" stop-color="#212121"/>
      <stop offset="1.0" stop-color="#202020"/>
    </radialGradient>
    <radialGradient cx="0" cy="0" gradientTransform="matrix(0.0353, 0.0, 0.0, 0.0353, -309.4, -93.2)" gradientUnits="userSpaceOnUse" id="gradient58" r="819.2" spreadMethod="pad">
      <stop offset="0.0" stop-color="#000000"/>
      <stop offset="1.0" stop-color="#000000"/>
    </radialGradient>
    <radialGradient cx="0" cy="0" gradientTransform="matrix(0.0315, 0.0, 0.0, 0.0315, -43.95, -82.65)" gradientUnits="userSpaceOnUse" id="gradient59" r="819.2" spreadMethod="pad">
      <stop offset="0.0" stop-color="#1f1f1f"/>
      <stop offset="1.0" stop-color="#1e1e1e"/>
    </radialGradient>
    <radialGradient cx="0" cy="0" gradientTransform="matrix(0.1141, 0.0, 0.0, 0.1141, -338.6, -11.9)" gradientUnits="userSpaceOnUse" id="gradient60" r="819.2" spreadMethod="pad">
      <stop offset="0.0" stop-color="#010101"/>
      <stop offset="1.0" stop-color="#000000"/>
    </radialGradient>
    <radialGradient cx="0" cy="0" gradientTransform="matrix(0.108, 0.0, 0.0, 0.108, -356.55, -63.0)" gradientUnits="userSpaceOnUse" id="gradient61" r="819.2" spreadMethod="pad">
      <stop offset="0.0" stop-color="#000000"/>
      <stop offset="1.0" stop-color="#000000"/>
    </radialGradient>
    <radialGradient cx="0" cy="0" gradientTransform="matrix(0.0525, 0.0, 0.0, 0.0525, -356.55, -63.0)" gradientUnits="userSpaceOnUse" id="gradient62" r="819.2" spreadMethod="pad">
      <stop offset="0.0" stop-color="#000000"/>
      <stop offset="1.0" stop-color="#000000"/>
    </radialGradient>
    <radialGradient cx="0" cy="0" gradientTransform="matrix(0.0024, 0.0, 0.0, 0.0024, -19.2, -97.9)" gradientUnits="userSpaceOnUse" id="gradient63" r="819.2" spreadMethod="pad">
      <stop offset="0.0" stop-color="#020202"/>
      <stop offset="1.0" stop-color="#020202"/>
    </radialGradient>
    <radialGradient cx="0" cy="0" gradientTransform="matrix(0.0147, 0.0, 0.0, 0.0147, -19.35, -97.2)" gradientUnits="userSpaceOnUse" id="gradient64" r="819.2" spreadMethod="pad">
      <stop offset="0.0" stop-color="#212121"/>
      <stop offset="1.0" stop-color="#1d1d1d"/>
    </radialGradient>
    <radialGradient cx="0" cy="0" gradientTransform="matrix(0.108, 0.0, 0.0, 0.108, -210.35, -71.05)" gradientUnits="userSpaceOnUse" id="gradient65" r="819.2" spreadMethod="pad">
      <stop offset="0.0" stop-color="#585858"/>
      <stop offset="1.0" stop-color="#000000"/>
    </radialGradient>
    <radialGradient cx="0" cy="0" gradientTransform="matrix(0.0211, 0.0, 0.0, 0.0211, -55.25, -97.9)" gradientUnits="userSpaceOnUse" id="gradient66" r="819.2" spreadMethod="pad">
      <stop offset="0.0" stop-color="#828282"/>
      <stop offset="1.0" stop-color="#343434"/>
    </radialGradient>
    <radialGradient cx="0" cy="0" gradientTransform="matrix(0.0145, 0.0, 0.0, 0.0145, -36.3, -95.75)" gradientUnits="userSpaceOnUse" id="gradient67" r="819.2" spreadMethod="pad">
      <stop offset="0.0" stop-color="#1e1e1e"/>
      <stop offset="1.0" stop-color="#1e1e1e"/>
    </radialGradient>
    <radialGradient cx="0" cy="0" gradientTransform="matrix(0.0911, 0.0, 0.0, 0.0911, -251.0, -34.2)" gradientUnits="userSpaceOnUse" id="gradient68" r="819.2" spreadMethod="pad">
      <stop offset="0.0" stop-color="#595959"/>
      <stop offset="1.0" stop-color="#000000"/>
    </radialGradient>
    <radialGradient cx="0" cy="0" gradientTransform="matrix(0.1257, 0.0, 0.0, 0.1257, -248.55, -2.45)" gradientUnits="userSpaceOnUse" id="gradient69" r="819.2" spreadMethod="pad">
      <stop offset="0.0" stop-color="#3f3f3f"/>
      <stop offset="1.0" stop-color="#1f1f1f"/>
    </radialGradient>
    <radialGradient cx="0" cy="0" gradientTransform="matrix(0.0873, 0.0, 0.0, 0.0873, -390.15, -25.6)" gradientUnits="userSpaceOnUse" id="gradient70" r="819.2" spreadMethod="pad">
      <stop offset="0.0" stop-color="#6a6a6a"/>
      <stop offset="1.0" stop-color="#000000"/>
    </radialGradient>
    <radialGradient cx="0" cy="0" gradientTransform="matrix(0.0905, 0.0, 0.0, 0.0905, -393.25, -1.1)" gradientUnits="userSpaceOnUse" id="gradient71" r="819.2" spreadMethod="pad">
      <stop offset="0.0" stop-color="#3d3d3d"/>
      <stop offset="1.0" stop-color="#000000"/>
    </radialGradient>
    <radialGradient cx="0" cy="0" gradientTransform="matrix(0.1134, 0.0, 0.0, 0.1134, -260.6, -9.65)" gradientUnits="userSpaceOnUse" id="gradient72" r="819.2" spreadMethod="pad">
      <stop offset="0.0" stop-color="#848484"/>
      <stop offset="1.0" stop-color="#000000"/>
    </radialGradient>
    <radialGradient cx="0" cy="0" gradientTransform="matrix(0.0359, 0.0, 0.0, 0.0359, -355.75, -97.55)" gradientUnits="userSpaceOnUse" id="gradient73" r="819.2" spreadMethod="pad">
      <stop offset="0.0" stop-color="#0d0d0d"/>
      <stop offset="1.0" stop-color="#000000"/>
    </radialGradient>
    <radialGradient cx="0" cy="0" gradientTransform="matrix(0.0749, 0.0, 0.0, 0.0749, -355.75, -97.55)" gradientUnits="userSpaceOnUse" id="gradient74" r="819.2" spreadMethod="pad">
      <stop offset="0.0" stop-color="#0d0d0d"/>
      <stop offset="1.0" stop-color="#000000"/>
    </radialGradient>
    <radialGradient cx="0" cy="0" gradientTransform="matrix(0.0146, 0.0, 0.0, 0.0146, -46.6, -88.9)" gradientUnits="userSpaceOnUse" id="gradient75" r="819.2" spreadMethod="pad">
      <stop offset="0.0" stop-color="#5f5f5f"/>
      <stop offset="1.0" stop-color="#5e5e5e"/>
    </radialGradient>
    <radialGradient cx="0" cy="0" gradientTransform="matrix(0.0272, 0.0, 0.0, 0.0272, -253.7, -65.4)" gradientUnits="userSpaceOnUse" id="gradient76" r="819.2" spreadMethod="pad">
      <stop offset="0.0" stop-color="#000000"/>
      <stop offset="1.0" stop-color="#000000"/>
    </radialGradient>
    <radialGradient cx="0" cy="0" gradientTransform="matrix(0.1022, 0.0, 0.0, 0.1022, -232.7, -21.9)" gradientUnits="userSpaceOnUse" id="gradient77" r="819.2" spreadMethod="pad">
      <stop offset="0.0" stop-color="#616161"/>
      <stop offset="1.0" stop-color="#000000"/>
    </radialGradient>
    <radialGradient cx="0" cy="0" gradientTransform="matrix(0.0265, 0.0, 0.0, 0.0265, -251.0, -34.2)" gradientUnits="userSpaceOnUse" id="gradient78" r="819.2" spreadMethod="pad">
      <stop offset="0.0" stop-color="#595959"/>
      <stop offset="1.0" stop-color="#000000"/>
    </radialGradient>
    <radialGradient cx="0" cy="0" gradientTransform="matrix(0.026, 0.0, 0.0, 0.026, -46.3, -83.7)" gradientUnits="userSpaceOnUse" id="gradient79" r="819.2" spreadMethod="pad">
      <stop offset="0.0" stop-color="#2c2c2c"/>
      <stop offset="1.0" stop-color="#222222"/>
    </radialGradient>
    <radialGradient cx="0" cy="0" gradientTransform="matrix(0.014, 0.0, 0.0, 0.014, -48.4, -85.45)" gradientUnits="userSpaceOnUse" id="gradient80" r="819.2" spreadMethod="pad">
      <stop offset="0.0" stop-color="#2f2f2f"/>
      <stop offset="1.0" stop-color="#151515"/>
    </radialGradient>
    <radialGradient cx="0" cy="0" gradientTransform="matrix(0.0336, 0.0, 0.0, 0.0336, -9.5, -30.0)" gradientUnits="userSpaceOnUse" id="gradient81" r="819.2" spreadMethod="pad">
      <stop offset="0.0" stop-color="#868686"/>
      <stop offset="1.0" stop-color="#000000"/>
    </radialGradient>
    <radialGradient cx="0" cy="0" gradientTransform="matrix(0.1416, 0.0, 0.0, 0.1416, -118.7, -17.05)" gradientUnits="userSpaceOnUse" id="gradient82" r="819.2" spreadMethod="pad">
      <stop offset="0.0" stop-color="#1d1d1d"/>
      <stop offset="1.0" stop-color="#000000"/>
    </radialGradient>
    <radialGradient cx="0" cy="0" gradientTransform="matrix(0.0411, 0.0, 0.0, 0.0411, -26.55, -63.5)" gradientUnits="userSpaceOnUse" id="gradient83" r="819.2" spreadMethod="pad">
      <stop offset="0.0" stop-color="#030303"/>
      <stop offset="1.0" stop-color="#030303"/>
    </radialGradient>
    <radialGradient cx="0" cy="0" gradientTransform="matrix(0.0869, 0.0, 0.0, 0.0869, -192.85, -59.85)" gradientUnits="userSpaceOnUse" id="gradient84" r="819.2" spreadMethod="pad">
      <stop offset="0.0" stop-color="#686868"/>
      <stop offset="1.0" stop-color="#181818"/>
    </radialGradient>
    <radialGradient cx="0" cy="0" gradientTransform="matrix(0.0325, 0.0, 0.0, 0.0325, -133.8, -20.15)" gradientUnits="userSpaceOnUse" id="gradient85" r="819.2" spreadMethod="pad">
      <stop offset="0.0" stop-color="#484848"/>
      <stop offset="1.0" stop-color="#101010"/>
    </radialGradient>
    <radialGradient cx="0" cy="0" gradientTransform="matrix(0.1128, 0.0, 0.0, 0.1128, -4.0, -12.55)" gradientUnits="userSpaceOnUse" id="gradient86" r="819.2" spreadMethod="pad">
      <stop offset="0.0" stop-color="#000000"/>
      <stop offset="1.0" stop-color="#000000"/>
    </radialGradient>
    <radialGradient cx="0" cy="0" gradientTransform="matrix(0.0402, 0.0, 0.0, 0.0402, -87.2, -1.0)" gradientUnits="userSpaceOnUse" id="gradient87" r="819.2" spreadMethod="pad">
      <stop offset="0.0" stop-color="#000000"/>
      <stop offset="1.0" stop-color="#000000"/>
    </radialGradient>
    <radialGradient cx="0" cy="0" gradientTransform="matrix(0.0495, 0.0, 0.0, 0.0495, -150.75, -4.8)" gradientUnits="userSpaceOnUse" id="gradient88" r="819.2" spreadMethod="pad">
      <stop offset="0.0" stop-color="#000000"/>
      <stop offset="1.0" stop-color="#000000"/>
    </radialGradient>
    <radialGradient cx="0" cy="0" gradientTransform="matrix(0.0283, 0.0, 0.0, 0.0283, -390.5, -1.0)" gradientUnits="userSpaceOnUse" id="gradient89" r="819.2" spreadMethod="pad">
      <stop offset="0.0" stop-color="#121212"/>
      <stop offset="1.0" stop-color="#000000"/>
    </radialGradient>
    <radialGradient cx="0" cy="0" gradientTransform="matrix(0.0203, 0.0, 0.0, 0.0203, -390.5, -1.0)" gradientUnits="userSpaceOnUse" id="gradient90" r="819.2" spreadMethod="pad">
      <stop offset="0.0" stop-color="#121212"/>
      <stop offset="1.0" stop-color="#010101"/>
    </radialGradient>
    <radialGradient cx="0" cy="0" gradientTransform="matrix(0.017, 0.0, 0.0, 0.017, -399.8, -14.8)" gradientUnits="userSpaceOnUse" id="gradient91" r="819.2" spreadMethod="pad">
      <stop offset="0.0" stop-color="#010101"/>
      <stop offset="1.0" stop-color="#000000"/>
    </radialGradient>
  </defs>
</svg>
