<?xml version="1.0" encoding="UTF-8" standalone="no"?>
<svg xmlns:xlink="http://www.w3.org/1999/xlink" height="299.1px" width="399.1px" xmlns="http://www.w3.org/2000/svg">
  <g transform="matrix(1.0, 0.0, 0.0, 1.0, 400.0, 300.0)">
    <path d="M-399.9 -229.25 L-400.0 -256.65 -391.75 -270.4 -390.75 -271.5 -389.25 -274.5 -380.9 -285.4 -357.9 -299.9 -238.5 -300.0 -221.25 -287.0 -209.25 -276.0 -190.9 -245.5 -184.65 -223.4 -182.9 -199.25 -185.5 -176.0 -192.25 -156.0 -198.5 -145.15 -211.15 -127.65 -223.5 -115.4 -224.65 -115.0 -227.9 -115.75 -228.9 -118.0 -229.9 -122.75 -231.15 -129.15 -234.9 -127.65 -247.0 -122.65 -247.9 -123.25 -264.65 -141.4 -302.5 -165.4 -327.25 -199.5 -327.4 -199.75 -335.15 -210.4 -331.4 -234.75 -327.9 -257.25 -328.15 -257.9 -344.65 -234.25 -359.75 -210.75 -360.0 -211.0 -356.4 -233.5 -352.0 -260.65 -351.65 -278.15 -351.25 -297.75 -353.15 -296.15 -373.4 -274.15 -389.4 -257.5 -394.4 -243.15 -399.9 -229.25 M-245.5 -124.4 L-245.5 -124.5 -229.75 -139.9 -246.4 -140.4 -247.0 -123.9 -246.75 -123.0 -245.5 -124.4" fill="url(#gradient0)" fill-rule="evenodd" stroke="none"/>
    <path d="M-317.0 -113.65 L-328.15 -116.9 -331.4 -118.25 -346.5 -126.25 -356.9 -134.25 -361.65 -138.15 -363.65 -140.5 Q-388.5 -167.4 -389.5 -199.5 L-367.0 -199.4 -366.15 -199.9 -360.9 -206.75 -354.25 -199.65 -353.15 -199.5 -345.9 -199.25 -327.25 -199.5 -302.5 -165.4 -264.65 -141.4 -247.9 -123.25 -260.65 -116.9 -273.9 -113.25 -274.4 -113.15 -278.5 -112.25 -284.9 -111.65 -292.25 -111.65 -291.9 -111.25 -306.25 -111.75 -312.9 -112.65 -317.0 -113.65 M-351.65 -278.15 L-352.0 -260.65 -356.4 -233.5 -357.9 -233.0 -361.25 -228.9 -364.9 -232.5 -366.25 -232.65 -366.65 -232.75 -367.0 -232.75 -367.5 -232.9 -367.75 -232.9 -369.15 -233.15 -369.25 -233.15 -371.5 -233.5 -371.9 -233.65 -384.9 -233.25 Q-376.5 -261.15 -351.65 -278.15 M-344.65 -234.25 L-328.15 -257.9 -327.9 -257.25 -331.4 -234.75 -344.65 -234.25 M-350.25 -154.4 L-353.4 -155.4 -357.4 -155.0 -362.75 -150.75 -333.0 -149.25 -333.4 -149.9 -342.0 -154.25 -345.4 -155.15 -347.9 -155.15 -350.25 -154.4 M-361.75 -149.4 L-361.75 -149.25 -361.0 -148.65 -360.75 -148.4 -360.15 -148.0 -359.9 -147.9 -359.65 -147.65 -359.4 -147.5 -359.15 -147.4 -358.9 -147.25 -358.65 -147.0 -358.4 -146.9 -357.15 -146.25 -356.9 -146.15 -356.65 -146.0 -356.4 -145.9 -356.15 -145.75 -352.0 -143.9 -351.9 -143.9 Q-350.35 -143.45 -348.9 -142.8 L-347.15 -142.0 -345.15 -141.65 -340.5 -142.25 -335.5 -144.15 -332.9 -145.75 -331.25 -148.5 -347.15 -149.4 -349.4 -149.15 -351.0 -149.65 -361.65 -150.15 -362.15 -149.5 -361.75 -149.4 M-247.0 -123.9 L-246.4 -140.4 -229.75 -139.9 -245.5 -124.5 -245.5 -124.4 -247.0 -123.9" fill="url(#gradient1)" fill-rule="evenodd" stroke="none"/>
    <path d="M-384.9 -233.25 L-371.9 -233.65 -371.5 -233.5 -369.25 -233.15 -369.15 -233.15 -368.25 -232.9 -362.75 -227.65 -362.15 -227.5 -361.25 -228.9 -357.9 -233.0 -356.4 -233.5 -360.0 -211.0 -359.75 -210.75 -344.65 -234.25 -331.4 -234.75 -335.15 -210.4 -327.4 -199.75 -353.15 -199.5 -354.25 -199.65 -360.9 -206.75 -361.15 -207.0 -362.75 -208.75 -364.0 -207.25 -370.0 -199.65 -395.65 -199.75 Q-396.65 -199.0 -399.25 -202.0 L-398.65 -230.4 -396.5 -232.9 -384.9 -233.25" fill="url(#gradient2)" fill-rule="evenodd" stroke="none"/>
    <path d="M-346.5 -126.25 L-352.9 -127.15 -356.9 -134.25 -346.5 -126.25 M-363.65 -140.5 L-365.9 -137.0 -378.75 -146.9 -374.4 -131.65 -374.9 -131.9 -384.25 -145.65 -394.25 -147.4 -399.5 -163.75 -400.0 -164.15 -399.9 -229.25 -394.4 -243.15 -389.4 -257.5 -373.4 -274.15 -353.15 -296.15 -351.25 -297.75 -351.65 -278.15 Q-376.5 -261.15 -384.9 -233.25 L-396.5 -232.9 -398.65 -230.4 -399.25 -202.0 Q-396.65 -199.0 -395.65 -199.75 L-389.5 -199.5 Q-388.5 -167.4 -363.65 -140.5 M-229.9 -122.75 L-236.9 -117.15 -234.9 -127.65 -231.15 -129.15 -229.9 -122.75" fill="url(#gradient3)" fill-rule="evenodd" stroke="none"/>
    <path d="M-327.4 -199.75 L-327.25 -199.5 -345.9 -199.25 -353.15 -199.5 -327.4 -199.75" fill="url(#gradient4)" fill-rule="evenodd" stroke="none"/>
    <path d="M-369.15 -233.15 L-367.75 -232.9 -368.25 -232.9 -369.15 -233.15" fill="url(#gradient5)" fill-rule="evenodd" stroke="none"/>
    <path d="M-367.75 -232.9 L-367.5 -232.9 -367.0 -232.75 -366.65 -232.75 -366.25 -232.65 -364.9 -232.5 -361.25 -228.9 -362.15 -227.5 -362.75 -227.65 -368.25 -232.9 -367.75 -232.9" fill="url(#gradient6)" fill-rule="evenodd" stroke="none"/>
    <path d="M-361.15 -207.0 L-364.0 -207.25 -362.75 -208.75 -361.15 -207.0" fill="url(#gradient7)" fill-rule="evenodd" stroke="none"/>
    <path d="M-361.15 -207.0 L-360.9 -206.75 -366.15 -199.9 -367.0 -199.4 -370.0 -199.65 -364.0 -207.25 -361.15 -207.0" fill="url(#gradient8)" fill-rule="evenodd" stroke="none"/>
    <path d="M-370.0 -199.65 L-367.0 -199.4 -389.5 -199.5 -395.65 -199.75 -370.0 -199.65" fill="url(#gradient9)" fill-rule="evenodd" stroke="none"/>
    <path d="M-354.25 -154.65 L-357.25 -154.4 -361.75 -151.0 -335.25 -149.5 -342.4 -153.4 -345.25 -154.25 -348.5 -154.25 -350.75 -153.5 -354.25 -154.65 M-350.25 -154.4 L-347.9 -155.15 -345.4 -155.15 -342.0 -154.25 -333.4 -149.9 -333.0 -149.25 -362.75 -150.75 -357.4 -155.0 -353.4 -155.4 -350.25 -154.4" fill="url(#gradient10)" fill-rule="evenodd" stroke="none"/>
    <path d="M-354.25 -154.65 L-350.75 -153.5 -348.5 -154.25 -345.25 -154.25 -342.4 -153.4 -335.25 -149.5 -361.75 -151.0 -357.25 -154.4 -354.25 -154.65" fill="url(#gradient11)" fill-rule="evenodd" stroke="none"/>
    <path d="M-348.9 -142.8 Q-350.35 -143.45 -351.9 -143.9 L-352.0 -143.9 -356.15 -145.75 -356.4 -145.9 -356.65 -146.0 -356.9 -146.15 -357.15 -146.25 -358.4 -146.9 -358.65 -147.0 -358.9 -147.25 -359.15 -147.4 -359.4 -147.5 -359.65 -147.65 -359.9 -147.9 -360.15 -148.0 -360.75 -148.4 -361.0 -148.65 -361.75 -149.25 -361.75 -149.4 -332.65 -147.75 Q-339.45 -140.2 -348.9 -142.8" fill="url(#gradient12)" fill-rule="evenodd" stroke="none"/>
    <path d="M-361.75 -149.4 L-362.15 -149.5 -361.65 -150.15 -351.0 -149.65 -349.4 -149.15 -347.15 -149.4 -331.25 -148.5 -332.9 -145.75 -335.5 -144.15 -340.5 -142.25 -345.15 -141.65 -347.15 -142.0 -348.9 -142.8 Q-339.45 -140.2 -332.65 -147.75 L-361.75 -149.4" fill="url(#gradient13)" fill-rule="evenodd" stroke="none"/>
    <path d="M-5.65 -117.25 L-5.15 -117.65 -0.9 -118.25 -0.9 -115.25 -1.15 -115.25 -2.25 -114.15 -2.75 -113.5 -3.5 -112.75 -3.65 -112.5 -3.9 -112.4 -4.5 -111.9 -11.5 -110.9 -5.65 -117.25" fill="url(#gradient14)" fill-rule="evenodd" stroke="none"/>
    <path d="M-0.9 -115.25 L-0.9 -113.15 -3.65 -112.5 -1.15 -115.25 -0.9 -115.25" fill="url(#gradient15)" fill-rule="evenodd" stroke="none"/>
    <path d="M-3.65 -112.5 L-3.5 -112.75 -2.75 -113.5 -2.25 -114.15 -1.15 -115.25 -3.65 -112.5" fill="url(#gradient16)" fill-rule="evenodd" stroke="none"/>
    <path d="M-7.25 -116.15 L-5.65 -117.25 -11.5 -110.9 -13.0 -110.0 -7.25 -116.15" fill="url(#gradient17)" fill-rule="evenodd" stroke="none"/>
    <path d="M-14.15 -114.75 L-7.25 -116.15 -13.0 -110.0 -13.75 -109.4 -20.75 -108.0 -14.15 -114.75" fill="url(#gradient18)" fill-rule="evenodd" stroke="none"/>
    <path d="M-16.25 -115.65 L-14.15 -114.75 -20.75 -108.0 -23.0 -109.0 -16.25 -115.65" fill="url(#gradient19)" fill-rule="evenodd" stroke="none"/>
    <path d="M-20.9 -117.25 L-16.25 -115.65 -23.0 -109.0 -27.5 -110.65 -20.9 -117.25" fill="url(#gradient20)" fill-rule="evenodd" stroke="none"/>
    <path d="M-30.4 -110.15 L-23.65 -116.65 -20.9 -117.25 -27.5 -110.65 -30.4 -110.15" fill="url(#gradient21)" fill-rule="evenodd" stroke="none"/>
    <path d="M-31.75 -104.9 L-31.0 -105.9 -29.75 -106.15 -30.0 -106.9 -30.4 -110.15 -27.5 -110.65 -23.0 -109.0 -20.75 -108.0 -13.75 -109.4 -13.0 -110.0 -11.5 -110.9 -4.5 -111.9 -3.65 -86.5 -6.25 -86.0 -6.25 -88.25 -6.4 -88.65 -7.15 -110.75 -8.15 -110.5 -7.4 -85.75 -9.5 -85.4 -9.65 -86.15 -9.9 -94.0 -10.9 -94.0 -10.75 -85.15 -12.9 -84.75 -13.25 -93.65 -14.25 -93.5 -14.15 -84.5 -15.9 -84.25 -16.5 -93.75 -17.5 -93.75 -17.0 -84.0 -19.65 -83.5 -19.75 -84.5 -19.9 -93.15 -20.9 -92.9 -20.9 -83.25 -23.15 -82.9 -23.15 -83.0 -23.25 -83.75 -23.75 -93.0 -24.9 -93.25 -24.25 -82.65 -26.65 -82.15 -26.4 -82.9 -26.4 -85.65 -26.5 -86.4 -26.5 -93.25 -26.9 -94.15 -27.25 -94.25 -27.65 -94.25 -27.5 -82.15 -27.0 -82.15 -33.15 -81.0 -33.25 -81.25 -32.75 -99.65 -32.65 -99.9 -32.5 -100.0 -32.25 -100.4 -31.0 -101.4 -30.75 -101.75 -30.75 -103.5 -31.15 -104.65 -31.9 -104.5 -31.75 -104.9 M-0.9 -100.4 L-0.9 -87.0 -2.4 -86.75 -3.0 -100.0 -0.9 -100.4 M-37.25 -85.65 L-44.5 -93.75 -43.9 -94.9 -45.15 -95.0 -43.4 -95.25 -45.15 -95.4 -43.15 -95.65 -42.25 -96.65 -42.65 -96.75 -42.15 -96.9 -42.4 -97.0 -38.0 -97.9 -40.5 -97.0 -35.75 -97.65 -35.9 -97.25 -36.0 -97.15 -38.15 -96.9 -36.0 -97.0 -36.0 -96.75 -38.0 -96.65 -36.15 -96.5 -36.15 -96.4 -36.25 -96.0 -36.25 -95.75 -36.25 -95.65 -36.5 -95.0 -36.65 -94.15 -36.65 -93.9 -37.15 -90.25 -37.0 -89.65 -37.0 -89.5 -37.15 -87.9 -37.15 -87.75 -37.15 -87.25 -37.0 -87.4 -37.25 -85.65 M-45.65 -95.0 L-45.65 -95.15 -45.9 -95.4 -45.9 -95.9 -45.75 -96.15 -46.0 -95.9 -45.5 -96.75 -45.65 -95.75 -44.9 -96.4 -45.65 -95.0 M-9.5 -95.9 L-9.15 -96.5 -9.4 -96.65 -9.5 -96.65 -9.75 -96.75 -10.5 -96.75 -11.15 -96.25 -11.15 -95.65 -9.5 -95.9 M-35.5 -97.15 L-35.4 -97.4 -35.4 -98.15 -35.15 -98.0 -35.15 -97.4 -35.5 -97.0 -35.5 -97.15 M-34.4 -82.4 L-34.15 -82.5 -34.4 -82.15 -34.4 -82.4 M-36.5 -98.25 L-36.15 -98.0 -37.0 -98.15 -36.5 -98.25 M-45.4 -96.9 L-45.0 -96.9 -45.25 -96.15 -45.4 -96.9 M-41.15 -96.65 L-41.0 -96.0 -40.65 -96.15 -40.9 -95.9 -40.5 -96.15 -40.65 -95.9 -39.9 -95.65 -41.25 -96.9 -42.0 -96.65 -41.15 -96.65 M-44.0 -96.5 L-43.9 -96.75 -43.25 -96.5 -44.0 -96.5 M-41.15 -94.4 L-41.65 -93.75 -40.25 -94.15 -40.9 -94.5 -40.15 -94.75 -41.75 -94.75 -41.15 -94.4 M-41.25 -95.0 L-41.5 -95.5 -41.65 -95.75 -42.15 -95.5 -41.5 -95.5 -41.9 -95.25 -41.25 -95.0 M-35.75 -95.65 L-35.5 -95.4 -35.9 -95.4 -35.75 -95.65 M-39.9 -90.15 L-39.75 -90.4 -40.25 -90.25 -39.9 -90.15 M-38.5 -89.75 L-39.25 -89.75 -39.65 -89.5 -39.4 -89.4 -38.5 -89.75 M-40.25 -95.15 L-40.0 -95.4 -40.5 -95.4 -40.25 -95.15 M-37.15 -95.5 L-37.4 -95.25 -36.75 -95.25 -37.15 -95.5 M-40.4 -91.75 L-39.75 -91.75 -40.25 -92.0 -40.4 -91.75 M-37.4 -87.75 L-37.4 -87.4 -37.15 -87.25 -37.4 -87.75 M-38.9 -89.15 L-38.5 -88.9 -38.0 -89.15 -38.9 -89.15" fill="url(#gradient22)" fill-rule="evenodd" stroke="none"/>
    <path d="M-273.9 -113.25 L-273.75 -113.25 -273.65 -110.75 -274.0 -110.0 -274.4 -110.15 -274.4 -113.15 -273.9 -113.25" fill="url(#gradient23)" fill-rule="evenodd" stroke="none"/>
    <path d="M-273.65 -110.75 L-269.65 -104.15 -259.75 -98.5 -246.5 -94.15 -248.5 -92.75 -288.5 -100.0 -286.4 -104.75 -284.15 -101.0 -278.25 -101.25 -275.9 -102.9 -275.5 -103.65 -275.5 -104.5 -278.0 -109.5 -274.4 -110.15 -274.0 -110.0 -273.65 -110.75" fill="url(#gradient24)" fill-rule="evenodd" stroke="none"/>
    <path d="M-284.9 -111.65 L-278.5 -112.25 -274.4 -113.15 -274.4 -110.15 -278.0 -109.5 -275.5 -104.5 -275.5 -103.65 -275.9 -102.9 -278.25 -101.25 -284.15 -101.0 -286.4 -104.75 -286.4 -106.5 -284.9 -111.65" fill="url(#gradient25)" fill-rule="evenodd" stroke="none"/>
    <path d="M-3.65 -86.5 L-4.5 -111.9 -3.9 -112.4 -3.65 -112.5 -3.5 -112.15 -3.0 -100.0 -2.4 -86.75 -3.65 -86.5" fill="url(#gradient26)" fill-rule="evenodd" stroke="none"/>
    <path d="M-0.9 -113.15 L-0.9 -100.4 -3.0 -100.0 -3.5 -112.15 -3.65 -112.5 -0.9 -113.15" fill="url(#gradient27)" fill-rule="evenodd" stroke="none"/>
    <path d="M-291.9 -111.25 L-292.25 -111.65 -284.9 -111.65 -286.4 -106.5 -291.9 -111.25" fill="url(#gradient28)" fill-rule="evenodd" stroke="none"/>
    <path d="M-328.25 -98.25 L-328.0 -98.5 -317.5 -110.75 -317.0 -113.65 -312.9 -112.65 -306.25 -111.75 -291.9 -111.25 -286.4 -106.5 -286.4 -104.75 -288.5 -100.0 -291.9 -88.0 -309.25 -88.0 -336.65 -91.4 -336.25 -91.75 -335.75 -92.15 -335.5 -92.25 -334.9 -92.9 -334.75 -92.9 -334.4 -93.4 -334.15 -93.4 -333.75 -93.9 -333.4 -94.0 -333.15 -94.25 -330.25 -96.65 -329.15 -97.5 -328.75 -97.75 -328.4 -98.15 -328.25 -98.25 M-317.5 -110.75 L-317.65 -110.4 -317.4 -110.5 -317.5 -110.75" fill="url(#gradient29)" fill-rule="evenodd" stroke="none"/>
    <path d="M-333.9 -97.25 L-333.75 -97.25 -328.25 -98.25 -328.4 -98.15 -328.75 -97.75 -329.15 -97.5 -330.25 -96.65 -332.9 -96.25 -335.9 -96.4 -333.9 -97.25" fill="url(#gradient30)" fill-rule="evenodd" stroke="none"/>
    <path d="M-365.15 -85.9 L-344.75 -95.4 -333.9 -97.25 -335.9 -96.4 -332.9 -96.25 -330.25 -96.65 -333.15 -94.25 -333.4 -94.0 -333.75 -93.9 -353.9 -90.15 -365.15 -85.9" fill="url(#gradient31)" fill-rule="evenodd" stroke="none"/>
    <path d="M-366.75 -84.9 L-366.65 -85.25 -365.15 -85.9 -353.9 -90.15 -359.15 -72.15 -359.4 -71.9 -355.75 -55.9 -357.5 -52.65 -357.75 -52.5 -363.0 -51.15 -371.0 -62.65 -366.75 -84.9" fill="url(#gradient32)" fill-rule="evenodd" stroke="none"/>
    <path d="M-336.65 -91.4 L-336.75 -91.25 -359.15 -72.15 -353.9 -90.15 -333.75 -93.9 -334.15 -93.4 -334.4 -93.4 -334.75 -92.9 -334.9 -92.9 Q-335.05 -92.8 -335.25 -92.75 L-336.25 -92.75 -336.25 -92.0 -336.25 -91.75 -336.65 -91.4" fill="url(#gradient33)" fill-rule="evenodd" stroke="none"/>
    <path d="M-317.5 -110.75 L-317.4 -110.5 -317.65 -110.4 -317.5 -110.75" fill="url(#gradient34)" fill-rule="evenodd" stroke="none"/>
    <path d="M-31.0 -105.9 L-30.0 -106.9 -29.75 -106.15 -31.0 -105.9" fill="url(#gradient35)" fill-rule="evenodd" stroke="none"/>
    <path d="M-32.25 -104.5 L-31.75 -104.9 -31.9 -104.5 -32.25 -104.5" fill="url(#gradient36)" fill-rule="evenodd" stroke="none"/>
    <path d="M-42.4 -97.0 L-35.15 -104.0 -32.25 -104.5 -34.65 -100.0 -36.5 -98.25 -37.0 -98.15 -38.0 -97.9 -42.4 -97.0" fill="url(#gradient37)" fill-rule="evenodd" stroke="none"/>
    <path d="M-44.9 -97.25 L-38.0 -103.9 -37.5 -104.25 -35.15 -104.0 -42.4 -97.0 -44.9 -97.25" fill="url(#gradient38)" fill-rule="evenodd" stroke="none"/>
    <path d="M-44.9 -97.25 L-42.4 -97.0 -42.15 -96.9 -42.65 -96.75 -42.25 -96.65 -43.15 -95.65 -45.15 -95.4 -43.4 -95.25 -45.15 -95.0 -43.9 -94.9 -44.5 -93.75 -44.75 -94.25 -45.65 -95.0 -44.9 -96.4 -45.65 -95.75 -45.5 -96.75 -45.4 -96.9 -44.9 -97.25 M-45.9 -95.4 L-46.0 -95.9 -45.9 -95.9 -45.9 -95.4 M-36.5 -98.25 L-35.75 -98.4 -35.65 -98.25 -35.75 -97.65 -40.5 -97.0 -38.0 -97.9 -37.0 -98.15 -36.15 -98.0 -36.5 -98.25 M-36.0 -97.15 L-35.5 -97.15 -35.5 -97.0 -36.0 -97.0 -38.15 -96.9 -36.0 -97.15 M-36.0 -96.75 L-36.15 -96.5 -38.0 -96.65 -36.0 -96.75 M-45.4 -96.9 L-45.25 -96.15 -45.0 -96.9 -45.4 -96.9 M-44.0 -96.5 L-43.25 -96.5 -43.9 -96.75 -44.0 -96.5 M-41.15 -96.65 L-42.0 -96.65 -41.25 -96.9 -39.9 -95.65 -40.65 -95.9 -40.5 -96.15 -40.9 -95.9 -40.65 -96.15 -41.0 -96.0 -41.15 -96.65 M-41.25 -95.0 L-41.9 -95.25 -41.5 -95.5 -42.15 -95.5 -41.65 -95.75 -41.5 -95.5 -41.25 -95.0 M-41.15 -94.4 L-41.75 -94.75 -40.15 -94.75 -40.9 -94.5 -40.25 -94.15 -41.65 -93.75 -41.15 -94.4 M-37.15 -95.5 L-36.75 -95.25 -37.4 -95.25 -37.15 -95.5 M-40.25 -95.15 L-40.5 -95.4 -40.0 -95.4 -40.25 -95.15 M-38.5 -89.75 L-39.4 -89.4 -39.65 -89.5 -39.25 -89.75 -38.5 -89.75 M-39.9 -90.15 L-40.25 -90.25 -39.75 -90.4 -39.9 -90.15 M-40.4 -91.75 L-40.25 -92.0 -39.75 -91.75 -40.4 -91.75 M-38.9 -89.15 L-38.0 -89.15 -38.5 -88.9 -38.9 -89.15" fill="url(#gradient39)" fill-rule="evenodd" stroke="none"/>
    <path d="M-44.5 -93.75 L-45.65 -95.0 -44.75 -94.25 -44.5 -93.75 M-45.9 -95.9 L-46.0 -95.9 -45.75 -96.15 -45.9 -95.9" fill="url(#gradient40)" fill-rule="evenodd" stroke="none"/>
    <path d="M-32.25 -104.5 L-31.9 -104.5 -31.15 -104.65 -30.75 -103.5 -30.75 -101.75 -31.0 -101.4 -32.25 -100.4 -32.5 -100.0 -32.65 -99.9 -32.75 -99.65 -33.25 -81.25 -33.15 -81.0 -34.4 -80.9 -34.4 -82.15 -34.15 -82.5 -34.4 -82.4 -34.5 -82.65 -34.5 -82.75 -34.65 -82.9 -34.5 -83.15 -34.75 -95.0 -34.9 -95.75 -35.15 -97.4 -35.15 -98.0 -35.0 -98.15 -35.0 -98.9 -35.15 -98.9 -34.65 -100.0 -32.25 -104.5 M-34.9 -95.75 L-34.75 -96.25 -34.75 -96.65 -34.9 -97.5 -34.9 -95.75" fill="url(#gradient41)" fill-rule="evenodd" stroke="none"/>
    <path d="M-0.9 -80.25 L-0.9 -51.75 -1.65 -52.15 -8.5 -51.15 -19.15 -48.9 -20.65 -48.25 -21.0 -49.9 Q-19.1 -67.25 -26.65 -72.25 L-26.15 -72.0 -25.75 -71.65 -24.4 -70.75 -22.65 -68.65 -21.15 -65.5 -20.5 -61.5 -17.0 -62.0 -16.75 -62.15 -18.0 -67.0 -19.0 -69.4 -20.75 -72.5 -23.5 -75.25 -25.25 -76.5 -27.4 -77.5 -29.4 -78.15 -30.0 -78.25 -30.4 -78.4 -30.75 -78.4 -31.25 -78.5 -31.75 -78.5 -32.25 -78.65 -34.25 -78.75 -35.75 -77.4 -36.5 -76.5 -44.9 -75.25 Q-49.15 -74.25 -48.9 -73.0 L-48.65 -72.0 -49.15 -72.0 -49.4 -73.65 -47.0 -76.25 -44.5 -78.0 -37.4 -81.75 -36.65 -81.15 -34.4 -80.9 -33.15 -81.0 -27.0 -82.15 -26.65 -82.15 -24.25 -82.65 -24.0 -82.65 -23.15 -82.9 -20.9 -83.25 -19.65 -83.5 -17.0 -84.0 -15.9 -84.25 -14.15 -84.5 -12.9 -84.75 -10.75 -85.15 -9.5 -85.4 -7.4 -85.75 -7.0 -85.75 -6.15 -82.5 -5.15 -82.4 -5.0 -82.0 -4.9 -81.5 -4.0 -81.65 -3.9 -80.9 -2.5 -80.9 -2.25 -80.15 -0.9 -80.25 M-27.95 -72.95 L-28.8 -73.35 -28.25 -73.15 -27.95 -72.95 M-29.45 -73.55 Q-32.6 -74.6 -36.9 -74.15 L-34.25 -74.75 -29.9 -73.75 -29.45 -73.55" fill="url(#gradient42)" fill-rule="evenodd" stroke="none"/>
    <path d="M-27.0 -82.15 L-27.5 -82.15 -27.65 -94.25 -27.25 -94.25 -26.9 -94.15 -26.5 -93.25 -26.5 -86.4 -26.4 -85.65 -26.4 -82.9 -26.65 -82.15 -27.0 -82.15" fill="url(#gradient43)" fill-rule="evenodd" stroke="none"/>
    <path d="M-24.25 -82.65 L-24.9 -93.25 -23.75 -93.0 -23.25 -83.75 -23.15 -83.0 -23.15 -82.9 -24.0 -82.65 -24.25 -82.65" fill="url(#gradient44)" fill-rule="evenodd" stroke="none"/>
    <path d="M-20.9 -83.25 L-20.9 -92.9 -19.9 -93.15 -19.75 -84.5 -19.65 -83.5 -20.9 -83.25" fill="url(#gradient45)" fill-rule="evenodd" stroke="none"/>
    <path d="M-17.0 -84.0 L-17.5 -93.75 -16.5 -93.75 -15.9 -84.25 -17.0 -84.0" fill="url(#gradient46)" fill-rule="evenodd" stroke="none"/>
    <path d="M-14.15 -84.5 L-14.25 -93.5 -13.25 -93.65 -12.9 -84.75 -14.15 -84.5" fill="url(#gradient47)" fill-rule="evenodd" stroke="none"/>
    <path d="M-10.75 -85.15 L-10.9 -94.0 -9.9 -94.0 -9.65 -86.15 -9.5 -85.4 -10.75 -85.15" fill="url(#gradient48)" fill-rule="evenodd" stroke="none"/>
    <path d="M-7.4 -85.75 L-8.15 -110.5 -7.15 -110.75 -6.4 -88.65 -6.25 -88.25 -6.25 -86.0 -7.0 -85.75 -7.4 -85.75" fill="url(#gradient49)" fill-rule="evenodd" stroke="none"/>
    <path d="M-0.9 -87.0 L-0.9 -80.25 -2.25 -80.15 -2.5 -80.9 -3.9 -80.9 -4.0 -81.65 -4.9 -81.5 -5.0 -82.0 -5.15 -82.4 -6.15 -82.5 -7.0 -85.75 -6.25 -86.0 -3.65 -86.5 -2.4 -86.75 -0.9 -87.0" fill="url(#gradient50)" fill-rule="evenodd" stroke="none"/>
    <path d="M-35.15 -98.9 L-35.5 -98.5 -35.75 -98.4 -36.5 -98.25 -34.65 -100.0 -35.15 -98.9" fill="url(#gradient51)" fill-rule="evenodd" stroke="none"/>
    <path d="M-37.25 -85.25 L-37.25 -85.65 -37.0 -87.4 -37.15 -87.75 -37.15 -87.9 -37.0 -89.5 -37.0 -89.65 -37.0 -90.15 -37.15 -90.25 -36.65 -93.9 -36.65 -94.15 -36.5 -94.25 -36.4 -94.65 -36.25 -95.0 -36.25 -95.65 -36.25 -95.75 -36.0 -96.15 -36.15 -96.5 -36.0 -96.75 -36.0 -97.0 -35.5 -97.0 -35.15 -97.4 -34.9 -95.75 -34.75 -95.0 -34.5 -83.15 -34.65 -82.9 -34.5 -82.75 -34.5 -82.65 -34.4 -82.4 -34.4 -82.15 -34.4 -80.9 -36.65 -81.15 -37.4 -81.75 -37.15 -84.9 -37.25 -85.25 M-35.75 -98.4 L-35.5 -98.5 -35.15 -98.9 -35.0 -98.9 -35.0 -98.15 -35.15 -98.0 -35.4 -98.15 -35.4 -97.4 -35.5 -97.15 -36.0 -97.15 -35.9 -97.25 -35.75 -97.65 -35.65 -98.25 -35.65 -98.4 -35.75 -98.4 M-35.75 -95.65 L-35.9 -95.4 -35.5 -95.4 -35.75 -95.65" fill="url(#gradient52)" fill-rule="evenodd" stroke="none"/>
    <path d="M-35.75 -98.4 L-35.65 -98.4 -35.65 -98.25 -35.75 -98.4 M-36.15 -96.5 L-36.0 -96.15 -36.25 -95.75 -36.25 -96.0 -36.15 -96.4 -36.15 -96.5 M-36.25 -95.65 L-36.25 -95.0 -36.4 -94.65 -36.5 -94.25 -36.65 -94.15 -36.5 -95.0 -36.25 -95.65 M-37.15 -90.25 L-37.0 -90.15 -37.0 -89.65 -37.15 -90.25 M-37.15 -87.75 L-37.0 -87.4 -37.15 -87.25 -37.15 -87.75" fill="url(#gradient53)" fill-rule="evenodd" stroke="none"/>
    <path d="M-34.9 -95.75 L-34.9 -97.5 -34.75 -96.65 -34.75 -96.25 -34.9 -95.75" fill="url(#gradient54)" fill-rule="evenodd" stroke="none"/>
    <path d="M-9.4 -96.65 L-9.5 -95.9 -11.15 -95.65 -11.15 -96.25 -10.5 -96.75 -9.75 -96.75 -9.5 -96.65 -9.4 -96.65" fill="url(#gradient55)" fill-rule="evenodd" stroke="none"/>
    <path d="M-9.5 -95.9 L-9.4 -96.65 -9.15 -96.5 -9.5 -95.9" fill="url(#gradient56)" fill-rule="evenodd" stroke="none"/>
    <path d="M-334.9 -92.9 L-335.5 -92.25 -335.25 -92.65 -335.25 -92.75 Q-335.05 -92.8 -334.9 -92.9 M-335.75 -92.15 L-336.25 -91.75 -336.0 -92.0 -335.75 -92.15" fill="url(#gradient57)" fill-rule="evenodd" stroke="none"/>
    <path d="M-291.25 -87.15 L-289.5 -87.0 -292.75 -87.15 -291.75 -87.15 -291.25 -87.15 M-335.25 -92.75 L-335.25 -92.65 -335.5 -92.25 -336.25 -92.75 -335.25 -92.75" fill="url(#gradient58)" fill-rule="evenodd" stroke="none"/>
    <path d="M-289.5 -87.0 L-287.9 -87.0 -289.65 -86.5 -290.0 -85.5 -291.4 -85.5 -293.25 -86.9 -293.4 -87.15 -292.75 -87.15 -289.5 -87.0 M-335.5 -92.25 L-335.75 -92.15 -336.0 -92.0 -336.25 -92.0 -336.25 -92.75 -335.5 -92.25" fill="url(#gradient59)" fill-rule="evenodd" stroke="none"/>
    <path d="M-336.25 -92.0 L-336.0 -92.0 -336.25 -91.75 -336.25 -92.0" fill="url(#gradient60)" fill-rule="evenodd" stroke="none"/>
    <path d="M-291.9 -88.0 L-288.5 -100.0 -248.5 -92.75 -291.9 -88.0" fill="url(#gradient61)" fill-rule="evenodd" stroke="none"/>
    <path d="M-246.0 -91.65 L-233.75 -85.5 -206.5 -65.5 -219.65 -69.75 -221.5 -69.4 Q-225.4 -68.65 -225.4 -67.65 L-232.75 -59.0 -233.0 -59.15 -248.9 -81.9 -249.25 -82.25 -291.9 -88.0 -248.5 -92.75 -246.0 -91.65" fill="url(#gradient62)" fill-rule="evenodd" stroke="none"/>
    <path d="M-246.5 -94.15 L-246.0 -91.65 -248.5 -92.75 -246.5 -94.15" fill="url(#gradient63)" fill-rule="evenodd" stroke="none"/>
    <path d="M-347.9 -0.9 L-351.65 -0.9 -352.15 -4.4 Q-346.0 -13.9 -346.5 -15.9 L-345.15 -24.15 -345.5 -32.5 -347.5 -38.65 -348.9 -40.65 -351.5 -43.15 -351.4 -46.15 -352.4 -50.65 Q-353.75 -52.5 -355.25 -53.0 L-357.5 -52.65 -355.75 -55.9 -338.15 -86.25 -338.15 -86.4 -336.75 -91.25 -336.65 -91.4 -309.25 -88.0 -291.9 -88.0 -291.75 -87.65 -291.75 -87.15 -292.75 -87.15 -293.4 -87.15 -293.25 -86.9 -291.4 -85.5 -281.25 -42.25 -281.15 -40.15 -281.65 -38.15 -282.65 -27.9 Q-292.5 -42.0 -326.9 -33.75 L-335.15 -28.15 -340.15 -21.65 -341.4 -20.5 -345.65 -11.25 -346.75 -3.9 -347.9 -0.9" fill="url(#gradient64)" fill-rule="evenodd" stroke="none"/>
    <path d="M-336.75 -91.25 L-338.15 -86.4 -338.15 -86.25 -355.75 -55.9 -359.4 -71.9 -359.15 -72.15 -336.75 -91.25" fill="url(#gradient65)" fill-rule="evenodd" stroke="none"/>
    <path d="M-291.9 -88.0 L-249.25 -82.25 -248.9 -81.9 -248.65 -59.75 -245.9 -28.0 -254.25 -17.5 -257.9 -43.15 -290.0 -85.5 -289.65 -86.5 -287.9 -87.0 -289.5 -87.0 -291.25 -87.15 -291.75 -87.65 -291.9 -88.0" fill="url(#gradient66)" fill-rule="evenodd" stroke="none"/>
    <path d="M-239.65 -18.15 L-240.0 -0.9 -255.75 -0.9 -256.25 -4.4 Q-260.4 -11.75 -261.9 -11.65 L-262.4 -12.0 -265.25 -18.65 Q-273.4 -29.65 -282.65 -27.9 L-281.65 -38.15 -281.15 -40.15 -281.25 -42.25 -291.4 -85.5 -290.0 -85.5 -257.9 -43.15 -254.25 -17.5 -254.4 -17.25 -253.9 -17.25 -244.4 -21.25 -243.4 -21.0 -239.65 -18.15 M-291.75 -87.65 L-291.25 -87.15 -291.75 -87.15 -291.75 -87.65" fill="url(#gradient67)" fill-rule="evenodd" stroke="none"/>
    <path d="M-255.75 -0.9 L-347.9 -0.9 -346.75 -3.9 -345.65 -11.25 -341.4 -20.5 -340.15 -21.65 -335.15 -28.15 -326.9 -33.75 Q-292.5 -42.0 -282.65 -27.9 -273.4 -29.65 -265.25 -18.65 L-262.4 -12.0 -261.9 -11.65 Q-260.4 -11.75 -256.25 -4.4 L-255.75 -0.9" fill="url(#gradient68)" fill-rule="evenodd" stroke="none"/>
    <path d="M-231.75 -12.9 L-239.65 -18.15 -243.4 -21.0 -244.4 -21.25 -253.9 -17.25 -254.4 -17.25 -254.25 -17.5 -245.9 -28.0 -231.75 -12.9" fill="url(#gradient69)" fill-rule="evenodd" stroke="none"/>
    <path d="M-142.4 -0.9 L-211.9 -0.9 -231.25 -12.25 -231.75 -12.9 -245.9 -28.0 -248.65 -59.75 -233.0 -59.15 -232.75 -59.0 -178.75 -25.65 -142.4 -0.9" fill="url(#gradient70)" fill-rule="evenodd" stroke="none"/>
    <path d="M-248.65 -59.75 L-248.9 -81.9 -233.0 -59.15 -248.65 -59.75" fill="url(#gradient71)" fill-rule="evenodd" stroke="none"/>
    <path d="M-37.4 -87.75 L-37.15 -87.25 -37.4 -87.4 -37.4 -87.75" fill="url(#gradient72)" fill-rule="evenodd" stroke="none"/>
    <path d="M-47.0 -76.25 L-41.65 -81.65 -41.65 -82.0 -37.25 -85.25 -37.15 -84.9 -37.4 -81.75 -44.5 -78.0 -47.0 -76.25" fill="url(#gradient73)" fill-rule="evenodd" stroke="none"/>
    <path d="M-400.0 -6.15 L-400.0 -49.0 -377.4 -67.4 -377.15 -68.0 -368.5 -82.15 -368.5 -82.25 -366.75 -84.9 -371.0 -62.65 -363.0 -51.15 Q-381.5 -42.15 -387.5 -31.75 L-392.15 -23.65 -395.0 -14.75 -395.9 -7.75 -400.0 -6.15" fill="url(#gradient74)" fill-rule="evenodd" stroke="none"/>
    <path d="M-351.65 -0.9 L-395.4 -0.9 -395.9 -7.75 -395.0 -14.75 -392.15 -23.65 -387.5 -31.75 Q-381.5 -42.15 -363.0 -51.15 L-357.75 -52.5 -357.5 -52.65 -355.25 -53.0 Q-353.75 -52.5 -352.4 -50.65 L-351.4 -46.15 -351.5 -43.15 -348.9 -40.65 -347.5 -38.65 -345.5 -32.5 -345.15 -24.15 -346.5 -15.9 Q-346.0 -13.9 -352.15 -4.4 L-351.65 -0.9" fill="url(#gradient75)" fill-rule="evenodd" stroke="none"/>
    <path d="M-395.4 -0.9 L-400.0 -0.9 -400.0 -6.15 -395.9 -7.75 -395.4 -0.9" fill="url(#gradient76)" fill-rule="evenodd" stroke="none"/>
    <path d="M-400.0 -49.0 L-400.0 -57.0 -390.25 -66.15 -376.4 -77.0 -368.5 -82.25 -368.5 -82.15 -377.15 -68.0 -377.4 -67.4 -400.0 -49.0" fill="url(#gradient77)" fill-rule="evenodd" stroke="none"/>
    <path d="M-26.65 -72.25 L-26.8 -72.35 -27.95 -72.95 -28.25 -73.15 -28.8 -73.35 -29.45 -73.55 -29.9 -73.75 -34.25 -74.75 -36.9 -74.15 -37.0 -74.15 -38.4 -73.9 -38.75 -73.75 -48.65 -72.0 -48.9 -73.0 Q-49.15 -74.25 -44.9 -75.25 L-36.5 -76.5 -35.75 -77.4 -34.25 -78.75 -32.25 -78.65 -31.75 -78.5 -31.25 -78.5 -30.75 -78.4 -30.4 -78.4 -30.0 -78.25 -29.4 -78.15 -27.4 -77.5 -25.25 -76.5 -23.5 -75.25 -20.75 -72.5 -19.0 -69.4 -18.0 -67.0 -16.75 -62.15 -17.0 -62.0 -20.5 -61.5 -21.15 -65.5 -22.65 -68.65 -24.4 -70.75 -25.75 -71.65 -26.15 -72.0 -26.65 -72.25" fill="url(#gradient78)" fill-rule="evenodd" stroke="none"/>
    <path d="M-0.9 -51.75 L-0.9 -41.5 -27.9 -33.15 -60.9 -21.0 -86.75 -9.75 -110.9 -0.9 -113.65 -10.15 Q-113.75 -10.9 -110.5 -13.4 L-69.65 -31.75 -39.25 -42.65 -21.0 -49.9 -20.65 -48.25 -19.15 -48.9 -8.5 -51.15 -1.65 -52.15 -0.9 -51.75" fill="url(#gradient79)" fill-rule="evenodd" stroke="none"/>
    <path d="M-110.9 -0.9 L-141.65 -0.9 -133.15 -10.65 Q-128.4 -13.25 -127.25 -15.5 L-110.5 -13.4 Q-113.75 -10.9 -113.65 -10.15 L-110.9 -0.9" fill="url(#gradient80)" fill-rule="evenodd" stroke="none"/>
    <path d="M-141.65 -0.9 L-142.4 -0.9 -178.75 -25.65 -232.75 -59.0 -225.4 -67.65 Q-225.4 -68.65 -221.5 -69.4 L-219.65 -69.75 -206.5 -65.5 -188.15 -54.4 -157.15 -33.9 -127.25 -15.5 Q-128.4 -13.25 -133.15 -10.65 L-141.65 -0.9" fill="url(#gradient81)" fill-rule="evenodd" stroke="none"/>
    <path d="M-0.9 -41.5 L-0.9 -9.75 -1.25 -9.65 Q-13.15 -7.75 -24.0 -0.9 L-79.65 -0.9 -86.75 -9.75 -60.9 -21.0 -27.9 -33.15 -0.9 -41.5" fill="url(#gradient82)" fill-rule="evenodd" stroke="none"/>
    <path d="M-79.65 -0.9 L-110.9 -0.9 -86.75 -9.75 -79.65 -0.9" fill="url(#gradient83)" fill-rule="evenodd" stroke="none"/>
    <path d="M-343.9 -104.4 L-349.75 -104.65 -335.4 -108.5 -318.5 -109.75 -319.25 -108.75 -328.75 -108.0 -343.9 -104.4 M-271.25 -106.65 L-270.75 -106.75 -270.5 -107.65 -272.15 -108.4 -273.65 -110.65 -273.75 -110.65 -273.75 -113.15 -270.0 -112.65 -268.0 -108.75 Q-263.25 -108.4 -264.15 -106.15 L-270.0 -104.5 -271.25 -106.65" fill="#ab0000" fill-opacity="0.9098039" fill-rule="evenodd" stroke="none"/>
    <path d="M-270.0 -104.5 L-270.25 -104.5 -274.25 -103.4 -274.5 -103.4 -275.4 -103.15 -275.65 -103.15 -278.15 -101.65 -278.15 -101.5 -278.5 -101.4 -278.5 -101.25 -279.0 -101.15 -284.9 -97.4 -286.65 -88.65 -286.75 -87.75 -286.9 -87.75 -286.9 -87.25 -287.5 -85.15 -287.4 -84.9 -287.9 -82.75 -287.9 -82.4 -288.9 -75.5 -288.75 -73.65 -290.9 -58.4 -290.65 -57.65 -291.25 -53.25 -299.0 -36.4 -299.15 -35.65 -299.15 -35.5 -299.65 -35.15 -299.5 -34.9 -303.5 -26.0 -303.9 -25.5 -308.65 -14.75 -308.9 -14.4 -310.15 -11.65 -310.4 -10.5 -297.15 -5.25 -297.0 -5.0 -290.15 -2.25 -289.75 -2.25 -286.65 -0.9 -321.5 -0.9 -321.4 -1.75 -319.4 -9.25 -315.0 -19.5 -314.75 -19.75 -311.0 -28.25 -310.75 -28.5 -310.5 -29.25 -307.9 -35.0 -298.9 -54.4 -296.9 -68.4 -297.15 -69.0 -295.25 -81.25 -294.5 -98.4 -293.4 -99.0 -292.75 -99.15 -289.9 -100.5 -287.9 -101.15 -287.75 -101.5 -282.9 -103.65 -273.0 -106.4 -271.25 -106.65 -270.0 -104.5" fill="#9b0000" fill-opacity="0.9098039" fill-rule="evenodd" stroke="none"/>
    <path d="M-349.75 -104.65 L-343.9 -104.4 -352.75 -91.9 -352.9 -91.65 -353.15 -91.5 -353.25 -91.4 -354.25 -91.0 -354.4 -91.0 -360.5 -88.15 -361.15 -88.0 -360.65 -90.4 -349.75 -104.65" fill="#b20000" fill-opacity="0.9098039" fill-rule="evenodd" stroke="none"/>
    <path d="M-361.15 -88.0 L-360.5 -88.15 -354.4 -91.0 -354.25 -91.0 -353.25 -91.4 -353.75 -90.25 -354.0 -89.9 -354.5 -89.5 -354.65 -88.0 -356.0 -82.4 -355.9 -82.0 -357.65 -73.5 -357.9 -73.0 -357.75 -72.65 -358.65 -69.25 -358.65 -68.0 -359.5 -63.9 -365.4 -54.75 -365.5 -54.5 -369.75 -47.75 -370.0 -47.5 -370.25 -46.9 -370.65 -46.5 -371.0 -45.75 -371.25 -45.5 -373.15 -42.4 -373.5 -42.0 -373.65 -41.5 -374.5 -40.4 -376.4 -37.25 -376.65 -37.0 -380.9 -30.15 -381.25 -29.75 -384.4 -24.65 -387.25 -12.9 -387.5 -12.65 -387.4 -12.25 -389.75 -3.0 -390.0 -2.75 -389.9 -2.4 -390.25 -0.9 -394.15 -0.9 -394.25 -2.25 -394.9 -4.0 -394.9 -4.15 -395.25 -6.9 -395.25 -7.25 -395.5 -8.0 -395.65 -9.9 -395.4 -10.25 -395.4 -11.0 -395.0 -14.4 -395.0 -14.65 -394.75 -14.75 -394.65 -15.5 -394.25 -16.75 -394.15 -17.65 -392.15 -23.25 -397.75 -23.75 -398.4 -23.75 -391.15 -25.9 -390.25 -26.9 -389.4 -28.5 -389.5 -28.65 -387.5 -31.65 -387.0 -32.15 -384.65 -36.0 -384.4 -36.25 -366.0 -64.5 -365.65 -66.75 -365.5 -67.15 -363.0 -78.5 -363.15 -79.15 -361.25 -87.25 -361.25 -87.75 -361.15 -88.0" fill="#a10000" fill-opacity="0.9098039" fill-rule="evenodd" stroke="none"/>
    <path d="M-398.4 -23.75 L-397.75 -23.75 -392.15 -23.25 -394.15 -17.65 -394.25 -16.75 -394.65 -15.5 -394.75 -14.75 -395.0 -14.65 -395.0 -14.4 -395.4 -11.0 -395.4 -10.25 -395.65 -9.9 -395.9 -10.15 -396.25 -12.75 -396.5 -13.4 -396.5 -13.9 -397.4 -18.65 -397.5 -19.0 -398.25 -22.9 -398.4 -23.65 -398.4 -23.75" fill="#b50000" fill-rule="evenodd" stroke="none"/>
    <path d="M-395.65 -9.9 L-395.5 -8.0 -395.9 -7.75 -395.9 -6.0 -395.75 -5.65 -395.9 -4.5 -395.5 -2.25 -395.4 -0.9 -399.9 -0.9 -399.9 -11.15 -399.65 -11.4 -399.65 -11.5 -400.0 -11.75 -399.65 -12.0 -398.25 -22.9 -397.5 -19.0 -397.4 -18.65 -396.5 -13.9 -396.5 -13.4 -396.25 -12.75 -395.9 -10.15 -395.65 -9.9" fill="#e60000" fill-rule="evenodd" stroke="none"/>
    <path d="M-395.5 -8.0 L-395.25 -7.25 -395.25 -6.9 -394.9 -4.15 -394.9 -4.0 -394.25 -2.25 -394.15 -0.9 -395.4 -0.9 -395.5 -2.25 -395.9 -4.5 -395.75 -5.65 -395.9 -6.0 -395.9 -7.75 -395.5 -8.0" fill="#d20000" fill-opacity="0.9098039" fill-rule="evenodd" stroke="none"/>
  </g>
  <defs>
    <radialGradient cx="0" cy="0" gradientTransform="matrix(0.2795, 0.0, 0.0, 0.2795, -185.65, -176.05)" gradientUnits="userSpaceOnUse" id="gradient0" r="819.2" spreadMethod="pad">
      <stop offset="0.0" stop-color="#424242"/>
      <stop offset="1.0" stop-color="#161616"/>
    </radialGradient>
    <radialGradient cx="0" cy="0" gradientTransform="matrix(0.2044, 0.0, 0.0, 0.2044, -311.3, -122.3)" gradientUnits="userSpaceOnUse" id="gradient1" r="819.2" spreadMethod="pad">
      <stop offset="0.0" stop-color="#7d7d7d"/>
      <stop offset="1.0" stop-color="#000000"/>
    </radialGradient>
    <radialGradient cx="0" cy="0" gradientTransform="matrix(0.1011, 0.0, 0.0, 0.1011, -399.05, -202.1)" gradientUnits="userSpaceOnUse" id="gradient2" r="819.2" spreadMethod="pad">
      <stop offset="0.0" stop-color="#767676"/>
      <stop offset="1.0" stop-color="#767676"/>
    </radialGradient>
    <radialGradient cx="0" cy="0" gradientTransform="matrix(0.2498, 0.0, 0.0, 0.2498, -400.0, -229.1)" gradientUnits="userSpaceOnUse" id="gradient3" r="819.2" spreadMethod="pad">
      <stop offset="0.0" stop-color="#3e3e3e"/>
      <stop offset="1.0" stop-color="#1f1f1f"/>
    </radialGradient>
    <radialGradient cx="0" cy="0" gradientTransform="matrix(0.0377, 0.0, 0.0, 0.0377, -323.1, -199.95)" gradientUnits="userSpaceOnUse" id="gradient4" r="819.2" spreadMethod="pad">
      <stop offset="0.0" stop-color="#767676"/>
      <stop offset="1.0" stop-color="#767676"/>
    </radialGradient>
    <radialGradient cx="0" cy="0" gradientTransform="matrix(0.0098, 0.0, 0.0, 0.0098, -372.9, -233.85)" gradientUnits="userSpaceOnUse" id="gradient5" r="819.2" spreadMethod="pad">
      <stop offset="0.0" stop-color="#767676"/>
      <stop offset="1.0" stop-color="#767676"/>
    </radialGradient>
    <radialGradient cx="0" cy="0" gradientTransform="matrix(0.0132, 0.0, 0.0, 0.0132, -368.2, -233.0)" gradientUnits="userSpaceOnUse" id="gradient6" r="819.2" spreadMethod="pad">
      <stop offset="0.0" stop-color="#8a8a8a"/>
      <stop offset="1.0" stop-color="#898989"/>
    </radialGradient>
    <radialGradient cx="0" cy="0" gradientTransform="matrix(0.0056, 0.0, 0.0, 0.0056, -363.95, -207.3)" gradientUnits="userSpaceOnUse" id="gradient7" r="819.2" spreadMethod="pad">
      <stop offset="0.0" stop-color="#e2e2e2"/>
      <stop offset="1.0" stop-color="#e0e0e0"/>
    </radialGradient>
    <radialGradient cx="0" cy="0" gradientTransform="matrix(0.0143, 0.0, 0.0, 0.0143, -369.9, -199.75)" gradientUnits="userSpaceOnUse" id="gradient8" r="819.2" spreadMethod="pad">
      <stop offset="0.0" stop-color="#e1e1e1"/>
      <stop offset="1.0" stop-color="#dedede"/>
    </radialGradient>
    <radialGradient cx="0" cy="0" gradientTransform="matrix(0.0327, 0.0, 0.0, 0.0327, -369.9, -199.75)" gradientUnits="userSpaceOnUse" id="gradient9" r="819.2" spreadMethod="pad">
      <stop offset="0.0" stop-color="#767676"/>
      <stop offset="1.0" stop-color="#767676"/>
    </radialGradient>
    <radialGradient cx="0" cy="0" gradientTransform="matrix(0.0311, 0.0, 0.0, 0.0311, -337.35, -150.75)" gradientUnits="userSpaceOnUse" id="gradient10" r="819.2" spreadMethod="pad">
      <stop offset="0.0" stop-color="#ff5151"/>
      <stop offset="1.0" stop-color="#330000"/>
    </radialGradient>
    <radialGradient cx="0" cy="0" gradientTransform="matrix(0.0306, 0.0, 0.0, 0.0306, -336.8, -150.45)" gradientUnits="userSpaceOnUse" id="gradient11" r="819.2" spreadMethod="pad">
      <stop offset="0.0" stop-color="#ff5151"/>
      <stop offset="1.0" stop-color="#ff4c4c"/>
    </radialGradient>
    <radialGradient cx="0" cy="0" gradientTransform="matrix(0.0276, 0.0, 0.0, 0.0276, -340.05, -142.9)" gradientUnits="userSpaceOnUse" id="gradient12" r="819.2" spreadMethod="pad">
      <stop offset="0.0" stop-color="#ff3030"/>
      <stop offset="1.0" stop-color="#ff2d2d"/>
    </radialGradient>
    <radialGradient cx="0" cy="0" gradientTransform="matrix(0.0348, 0.0, 0.0, 0.0348, -333.9, -145.35)" gradientUnits="userSpaceOnUse" id="gradient13" r="819.2" spreadMethod="pad">
      <stop offset="0.0" stop-color="#f89797"/>
      <stop offset="1.0" stop-color="#864242"/>
    </radialGradient>
    <radialGradient cx="0" cy="0" gradientTransform="matrix(0.0156, 0.0, 0.0, 0.0156, -11.5, -110.95)" gradientUnits="userSpaceOnUse" id="gradient14" r="819.2" spreadMethod="pad">
      <stop offset="0.0" stop-color="#040404"/>
      <stop offset="1.0" stop-color="#040404"/>
    </radialGradient>
    <radialGradient cx="0" cy="0" gradientTransform="matrix(0.0045, 0.0, 0.0, 0.0045, -3.5, -112.6)" gradientUnits="userSpaceOnUse" id="gradient15" r="819.2" spreadMethod="pad">
      <stop offset="0.0" stop-color="#060606"/>
      <stop offset="1.0" stop-color="#060606"/>
    </radialGradient>
    <radialGradient cx="0" cy="0" gradientTransform="matrix(0.0045, 0.0, 0.0, 0.0045, -3.5, -112.6)" gradientUnits="userSpaceOnUse" id="gradient16" r="819.2" spreadMethod="pad">
      <stop offset="0.0" stop-color="#343434"/>
      <stop offset="1.0" stop-color="#333333"/>
    </radialGradient>
    <radialGradient cx="0" cy="0" gradientTransform="matrix(0.0143, 0.0, 0.0, 0.0143, -5.1, -117.65)" gradientUnits="userSpaceOnUse" id="gradient17" r="819.2" spreadMethod="pad">
      <stop offset="0.0" stop-color="#0a0a0a"/>
      <stop offset="1.0" stop-color="#0a0a0a"/>
    </radialGradient>
    <radialGradient cx="0" cy="0" gradientTransform="matrix(0.0196, 0.0, 0.0, 0.0196, -7.15, -116.3)" gradientUnits="userSpaceOnUse" id="gradient18" r="819.2" spreadMethod="pad">
      <stop offset="0.0" stop-color="#040404"/>
      <stop offset="1.0" stop-color="#040404"/>
    </radialGradient>
    <radialGradient cx="0" cy="0" gradientTransform="matrix(0.0128, 0.0, 0.0, 0.0128, -14.2, -114.75)" gradientUnits="userSpaceOnUse" id="gradient19" r="819.2" spreadMethod="pad">
      <stop offset="0.0" stop-color="#040404"/>
      <stop offset="1.0" stop-color="#040404"/>
    </radialGradient>
    <radialGradient cx="0" cy="0" gradientTransform="matrix(0.0151, 0.0, 0.0, 0.0151, -16.2, -115.75)" gradientUnits="userSpaceOnUse" id="gradient20" r="819.2" spreadMethod="pad">
      <stop offset="0.0" stop-color="#040404"/>
      <stop offset="1.0" stop-color="#040404"/>
    </radialGradient>
    <radialGradient cx="0" cy="0" gradientTransform="matrix(0.015, 0.0, 0.0, 0.015, -20.6, -117.35)" gradientUnits="userSpaceOnUse" id="gradient21" r="819.2" spreadMethod="pad">
      <stop offset="0.0" stop-color="#040404"/>
      <stop offset="1.0" stop-color="#040404"/>
    </radialGradient>
    <radialGradient cx="0" cy="0" gradientTransform="matrix(0.045, 0.0, 0.0, 0.045, -35.05, -98.75)" gradientUnits="userSpaceOnUse" id="gradient22" r="819.2" spreadMethod="pad">
      <stop offset="0.0" stop-color="#040404"/>
      <stop offset="1.0" stop-color="#040404"/>
    </radialGradient>
    <radialGradient cx="0" cy="0" gradientTransform="matrix(0.1477, 0.0, 0.0, 0.1477, -274.3, -122.0)" gradientUnits="userSpaceOnUse" id="gradient23" r="819.2" spreadMethod="pad">
      <stop offset="0.0" stop-color="#1a1a1a"/>
      <stop offset="1.0" stop-color="#0f0f0f"/>
    </radialGradient>
    <radialGradient cx="0" cy="0" gradientTransform="matrix(0.0385, 0.0, 0.0, 0.0385, -273.6, -110.7)" gradientUnits="userSpaceOnUse" id="gradient24" r="819.2" spreadMethod="pad">
      <stop offset="0.0" stop-color="#7b7b7b"/>
      <stop offset="1.0" stop-color="#090909"/>
    </radialGradient>
    <radialGradient cx="0" cy="0" gradientTransform="matrix(0.1397, 0.0, 0.0, 0.1397, -273.8, -115.05)" gradientUnits="userSpaceOnUse" id="gradient25" r="819.2" spreadMethod="pad">
      <stop offset="0.0" stop-color="#101010"/>
      <stop offset="1.0" stop-color="#000000"/>
    </radialGradient>
    <radialGradient cx="0" cy="0" gradientTransform="matrix(0.0318, 0.0, 0.0, 0.0318, -3.5, -112.6)" gradientUnits="userSpaceOnUse" id="gradient26" r="819.2" spreadMethod="pad">
      <stop offset="0.0" stop-color="#020202"/>
      <stop offset="1.0" stop-color="#020202"/>
    </radialGradient>
    <radialGradient cx="0" cy="0" gradientTransform="matrix(0.0152, 0.0, 0.0, 0.0152, -3.5, -112.6)" gradientUnits="userSpaceOnUse" id="gradient27" r="819.2" spreadMethod="pad">
      <stop offset="0.0" stop-color="#060606"/>
      <stop offset="1.0" stop-color="#060606"/>
    </radialGradient>
    <radialGradient cx="0" cy="0" gradientTransform="matrix(0.0229, 0.0, 0.0, 0.0229, -300.5, -118.9)" gradientUnits="userSpaceOnUse" id="gradient28" r="819.2" spreadMethod="pad">
      <stop offset="0.0" stop-color="#797979"/>
      <stop offset="1.0" stop-color="#000000"/>
    </radialGradient>
    <radialGradient cx="0" cy="0" gradientTransform="matrix(0.0444, 0.0, 0.0, 0.0444, -316.8, -114.75)" gradientUnits="userSpaceOnUse" id="gradient29" r="819.2" spreadMethod="pad">
      <stop offset="0.0" stop-color="#181818"/>
      <stop offset="1.0" stop-color="#000000"/>
    </radialGradient>
    <radialGradient cx="0" cy="0" gradientTransform="matrix(0.0102, 0.0, 0.0, 0.0102, -330.0, -98.25)" gradientUnits="userSpaceOnUse" id="gradient30" r="819.2" spreadMethod="pad">
      <stop offset="0.0" stop-color="#0e0e0e"/>
      <stop offset="1.0" stop-color="#000000"/>
    </radialGradient>
    <radialGradient cx="0" cy="0" gradientTransform="matrix(0.0705, 0.0, 0.0, 0.0705, -310.95, -101.05)" gradientUnits="userSpaceOnUse" id="gradient31" r="819.2" spreadMethod="pad">
      <stop offset="0.0" stop-color="#3c3c3c"/>
      <stop offset="1.0" stop-color="#000000"/>
    </radialGradient>
    <radialGradient cx="0" cy="0" gradientTransform="matrix(0.0579, 0.0, 0.0, 0.0579, -350.15, -42.95)" gradientUnits="userSpaceOnUse" id="gradient32" r="819.2" spreadMethod="pad">
      <stop offset="0.0" stop-color="#171717"/>
      <stop offset="1.0" stop-color="#000000"/>
    </radialGradient>
    <radialGradient cx="0" cy="0" gradientTransform="matrix(0.0411, 0.0, 0.0, 0.0411, -333.75, -94.0)" gradientUnits="userSpaceOnUse" id="gradient33" r="819.2" spreadMethod="pad">
      <stop offset="0.0" stop-color="#000000"/>
      <stop offset="1.0" stop-color="#000000"/>
    </radialGradient>
    <radialGradient cx="0" cy="0" gradientTransform="matrix(0.013, 0.0, 0.0, 0.013, -316.25, -116.9)" gradientUnits="userSpaceOnUse" id="gradient34" r="819.2" spreadMethod="pad">
      <stop offset="0.0" stop-color="#1a1a1a"/>
      <stop offset="1.0" stop-color="#101010"/>
    </radialGradient>
    <radialGradient cx="0" cy="0" gradientTransform="matrix(0.0119, 0.0, 0.0, 0.0119, -31.1, -105.9)" gradientUnits="userSpaceOnUse" id="gradient35" r="819.2" spreadMethod="pad">
      <stop offset="0.0" stop-color="#040404"/>
      <stop offset="1.0" stop-color="#040404"/>
    </radialGradient>
    <radialGradient cx="0" cy="0" gradientTransform="matrix(0.0129, 0.0, 0.0, 0.0129, -32.3, -104.4)" gradientUnits="userSpaceOnUse" id="gradient36" r="819.2" spreadMethod="pad">
      <stop offset="0.0" stop-color="#7e7e7e"/>
      <stop offset="1.0" stop-color="#171717"/>
    </radialGradient>
    <radialGradient cx="0" cy="0" gradientTransform="matrix(0.0197, 0.0, 0.0, 0.0197, -28.85, -105.4)" gradientUnits="userSpaceOnUse" id="gradient37" r="819.2" spreadMethod="pad">
      <stop offset="0.0" stop-color="#040404"/>
      <stop offset="1.0" stop-color="#040404"/>
    </radialGradient>
    <radialGradient cx="0" cy="0" gradientTransform="matrix(0.0125, 0.0, 0.0, 0.0125, -37.65, -104.15)" gradientUnits="userSpaceOnUse" id="gradient38" r="819.2" spreadMethod="pad">
      <stop offset="0.0" stop-color="#7e7e7e"/>
      <stop offset="1.0" stop-color="#393939"/>
    </radialGradient>
    <radialGradient cx="0" cy="0" gradientTransform="matrix(0.0117, 0.0, 0.0, 0.0117, -36.4, -94.1)" gradientUnits="userSpaceOnUse" id="gradient39" r="819.2" spreadMethod="pad">
      <stop offset="0.0" stop-color="#171717"/>
      <stop offset="1.0" stop-color="#171717"/>
    </radialGradient>
    <radialGradient cx="0" cy="0" gradientTransform="matrix(0.0195, 0.0, 0.0, 0.0195, -45.8, -96.0)" gradientUnits="userSpaceOnUse" id="gradient40" r="819.2" spreadMethod="pad">
      <stop offset="0.0" stop-color="#828282"/>
      <stop offset="1.0" stop-color="#3e3e3e"/>
    </radialGradient>
    <radialGradient cx="0" cy="0" gradientTransform="matrix(0.0285, 0.0, 0.0, 0.0285, -32.5, -104.25)" gradientUnits="userSpaceOnUse" id="gradient41" r="819.2" spreadMethod="pad">
      <stop offset="0.0" stop-color="#171717"/>
      <stop offset="1.0" stop-color="#171717"/>
    </radialGradient>
    <radialGradient cx="0" cy="0" gradientTransform="matrix(0.0395, 0.0, 0.0, 0.0395, -26.2, -71.65)" gradientUnits="userSpaceOnUse" id="gradient42" r="819.2" spreadMethod="pad">
      <stop offset="0.0" stop-color="#040404"/>
      <stop offset="1.0" stop-color="#040404"/>
    </radialGradient>
    <radialGradient cx="0" cy="0" gradientTransform="matrix(0.0148, 0.0, 0.0, 0.0148, -26.55, -94.25)" gradientUnits="userSpaceOnUse" id="gradient43" r="819.2" spreadMethod="pad">
      <stop offset="0.0" stop-color="#020202"/>
      <stop offset="1.0" stop-color="#020202"/>
    </radialGradient>
    <radialGradient cx="0" cy="0" gradientTransform="matrix(0.013, 0.0, 0.0, 0.013, -23.8, -93.35)" gradientUnits="userSpaceOnUse" id="gradient44" r="819.2" spreadMethod="pad">
      <stop offset="0.0" stop-color="#020202"/>
      <stop offset="1.0" stop-color="#020202"/>
    </radialGradient>
    <radialGradient cx="0" cy="0" gradientTransform="matrix(0.012, 0.0, 0.0, 0.012, -19.8, -93.15)" gradientUnits="userSpaceOnUse" id="gradient45" r="819.2" spreadMethod="pad">
      <stop offset="0.0" stop-color="#020202"/>
      <stop offset="1.0" stop-color="#020202"/>
    </radialGradient>
    <radialGradient cx="0" cy="0" gradientTransform="matrix(0.0119, 0.0, 0.0, 0.0119, -16.5, -93.8)" gradientUnits="userSpaceOnUse" id="gradient46" r="819.2" spreadMethod="pad">
      <stop offset="0.0" stop-color="#020202"/>
      <stop offset="1.0" stop-color="#020202"/>
    </radialGradient>
    <radialGradient cx="0" cy="0" gradientTransform="matrix(0.0111, 0.0, 0.0, 0.0111, -13.2, -93.7)" gradientUnits="userSpaceOnUse" id="gradient47" r="819.2" spreadMethod="pad">
      <stop offset="0.0" stop-color="#020202"/>
      <stop offset="1.0" stop-color="#020202"/>
    </radialGradient>
    <radialGradient cx="0" cy="0" gradientTransform="matrix(0.0109, 0.0, 0.0, 0.0109, -9.85, -94.1)" gradientUnits="userSpaceOnUse" id="gradient48" r="819.2" spreadMethod="pad">
      <stop offset="0.0" stop-color="#020202"/>
      <stop offset="1.0" stop-color="#020202"/>
    </radialGradient>
    <radialGradient cx="0" cy="0" gradientTransform="matrix(0.0305, 0.0, 0.0, 0.0305, -7.05, -110.85)" gradientUnits="userSpaceOnUse" id="gradient49" r="819.2" spreadMethod="pad">
      <stop offset="0.0" stop-color="#020202"/>
      <stop offset="1.0" stop-color="#020202"/>
    </radialGradient>
    <radialGradient cx="0" cy="0" gradientTransform="matrix(0.0075, 0.0, 0.0, 0.0075, -4.0, -81.8)" gradientUnits="userSpaceOnUse" id="gradient50" r="819.2" spreadMethod="pad">
      <stop offset="0.0" stop-color="#050505"/>
      <stop offset="1.0" stop-color="#050505"/>
    </radialGradient>
    <radialGradient cx="0" cy="0" gradientTransform="matrix(0.0197, 0.0, 0.0, 0.0197, -27.75, -105.8)" gradientUnits="userSpaceOnUse" id="gradient51" r="819.2" spreadMethod="pad">
      <stop offset="0.0" stop-color="#171717"/>
      <stop offset="1.0" stop-color="#171717"/>
    </radialGradient>
    <radialGradient cx="0" cy="0" gradientTransform="matrix(0.0127, 0.0, 0.0, 0.0127, -37.05, -91.0)" gradientUnits="userSpaceOnUse" id="gradient52" r="819.2" spreadMethod="pad">
      <stop offset="0.0" stop-color="#020202"/>
      <stop offset="1.0" stop-color="#020202"/>
    </radialGradient>
    <radialGradient cx="0" cy="0" gradientTransform="matrix(0.0157, 0.0, 0.0, 0.0157, -35.5, -98.65)" gradientUnits="userSpaceOnUse" id="gradient53" r="819.2" spreadMethod="pad">
      <stop offset="0.0" stop-color="#212121"/>
      <stop offset="1.0" stop-color="#1f1f1f"/>
    </radialGradient>
    <radialGradient cx="0" cy="0" gradientTransform="matrix(0.0304, 0.0, 0.0, 0.0304, -34.35, -80.95)" gradientUnits="userSpaceOnUse" id="gradient54" r="819.2" spreadMethod="pad">
      <stop offset="0.0" stop-color="#1f1f1f"/>
      <stop offset="1.0" stop-color="#1e1e1e"/>
    </radialGradient>
    <radialGradient cx="0" cy="0" gradientTransform="matrix(0.0025, 0.0, 0.0, 0.0025, -9.25, -96.7)" gradientUnits="userSpaceOnUse" id="gradient55" r="819.2" spreadMethod="pad">
      <stop offset="0.0" stop-color="#020202"/>
      <stop offset="1.0" stop-color="#020202"/>
    </radialGradient>
    <radialGradient cx="0" cy="0" gradientTransform="matrix(0.0123, 0.0, 0.0, 0.0123, -9.15, -96.45)" gradientUnits="userSpaceOnUse" id="gradient56" r="819.2" spreadMethod="pad">
      <stop offset="0.0" stop-color="#212121"/>
      <stop offset="1.0" stop-color="#090909"/>
    </radialGradient>
    <radialGradient cx="0" cy="0" gradientTransform="matrix(0.0359, 0.0, 0.0, 0.0359, -316.0, -112.6)" gradientUnits="userSpaceOnUse" id="gradient57" r="819.2" spreadMethod="pad">
      <stop offset="0.0" stop-color="#030303"/>
      <stop offset="1.0" stop-color="#000000"/>
    </radialGradient>
    <radialGradient cx="0" cy="0" gradientTransform="matrix(0.0377, 0.0, 0.0, 0.0377, -305.8, -87.35)" gradientUnits="userSpaceOnUse" id="gradient58" r="819.2" spreadMethod="pad">
      <stop offset="0.0" stop-color="#000000"/>
      <stop offset="1.0" stop-color="#000000"/>
    </radialGradient>
    <radialGradient cx="0" cy="0" gradientTransform="matrix(0.1188, 0.0, 0.0, 0.1188, -337.7, -3.4)" gradientUnits="userSpaceOnUse" id="gradient59" r="819.2" spreadMethod="pad">
      <stop offset="0.0" stop-color="#010101"/>
      <stop offset="1.0" stop-color="#000000"/>
    </radialGradient>
    <radialGradient cx="0" cy="0" gradientTransform="matrix(0.0232, 0.0, 0.0, 0.0232, -333.75, -94.0)" gradientUnits="userSpaceOnUse" id="gradient60" r="819.2" spreadMethod="pad">
      <stop offset="0.0" stop-color="#000000"/>
      <stop offset="1.0" stop-color="#000000"/>
    </radialGradient>
    <radialGradient cx="0" cy="0" gradientTransform="matrix(0.0496, 0.0, 0.0, 0.0496, -288.55, -100.05)" gradientUnits="userSpaceOnUse" id="gradient61" r="819.2" spreadMethod="pad">
      <stop offset="0.0" stop-color="#000000"/>
      <stop offset="1.0" stop-color="#000000"/>
    </radialGradient>
    <radialGradient cx="0" cy="0" gradientTransform="matrix(0.1084, 0.0, 0.0, 0.1084, -206.25, -65.4)" gradientUnits="userSpaceOnUse" id="gradient62" r="819.2" spreadMethod="pad">
      <stop offset="0.0" stop-color="#585858"/>
      <stop offset="1.0" stop-color="#000000"/>
    </radialGradient>
    <radialGradient cx="0" cy="0" gradientTransform="matrix(0.0452, 0.0, 0.0, 0.0452, -238.65, -58.15)" gradientUnits="userSpaceOnUse" id="gradient63" r="819.2" spreadMethod="pad">
      <stop offset="0.0" stop-color="#414141"/>
      <stop offset="1.0" stop-color="#0a0a0a"/>
    </radialGradient>
    <radialGradient cx="0" cy="0" gradientTransform="matrix(0.1087, 0.0, 0.0, 0.1087, -355.8, -55.6)" gradientUnits="userSpaceOnUse" id="gradient64" r="819.2" spreadMethod="pad">
      <stop offset="0.0" stop-color="#000000"/>
      <stop offset="1.0" stop-color="#000000"/>
    </radialGradient>
    <radialGradient cx="0" cy="0" gradientTransform="matrix(0.054, 0.0, 0.0, 0.054, -355.8, -55.6)" gradientUnits="userSpaceOnUse" id="gradient65" r="819.2" spreadMethod="pad">
      <stop offset="0.0" stop-color="#000000"/>
      <stop offset="1.0" stop-color="#000000"/>
    </radialGradient>
    <radialGradient cx="0" cy="0" gradientTransform="matrix(0.0924, 0.0, 0.0, 0.0924, -245.85, -28.2)" gradientUnits="userSpaceOnUse" id="gradient66" r="819.2" spreadMethod="pad">
      <stop offset="0.0" stop-color="#595959"/>
      <stop offset="1.0" stop-color="#000000"/>
    </radialGradient>
    <radialGradient cx="0" cy="0" gradientTransform="matrix(0.1143, 0.0, 0.0, 0.1143, -239.75, -10.45)" gradientUnits="userSpaceOnUse" id="gradient67" r="819.2" spreadMethod="pad">
      <stop offset="0.0" stop-color="#3c3c3c"/>
      <stop offset="1.0" stop-color="#0f0f0f"/>
    </radialGradient>
    <radialGradient cx="0" cy="0" gradientTransform="matrix(0.1145, 0.0, 0.0, 0.1145, -255.95, -3.0)" gradientUnits="userSpaceOnUse" id="gradient68" r="819.2" spreadMethod="pad">
      <stop offset="0.0" stop-color="#848484"/>
      <stop offset="1.0" stop-color="#0b0b0b"/>
    </radialGradient>
    <radialGradient cx="0" cy="0" gradientTransform="matrix(0.0264, 0.0, 0.0, 0.0264, -245.85, -28.2)" gradientUnits="userSpaceOnUse" id="gradient69" r="819.2" spreadMethod="pad">
      <stop offset="0.0" stop-color="#595959"/>
      <stop offset="1.0" stop-color="#000000"/>
    </radialGradient>
    <radialGradient cx="0" cy="0" gradientTransform="matrix(0.1043, 0.0, 0.0, 0.1043, -226.5, -16.25)" gradientUnits="userSpaceOnUse" id="gradient70" r="819.2" spreadMethod="pad">
      <stop offset="0.0" stop-color="#616161"/>
      <stop offset="1.0" stop-color="#040404"/>
    </radialGradient>
    <radialGradient cx="0" cy="0" gradientTransform="matrix(0.0273, 0.0, 0.0, 0.0273, -248.55, -59.85)" gradientUnits="userSpaceOnUse" id="gradient71" r="819.2" spreadMethod="pad">
      <stop offset="0.0" stop-color="#000000"/>
      <stop offset="1.0" stop-color="#000000"/>
    </radialGradient>
    <radialGradient cx="0" cy="0" gradientTransform="matrix(0.013, 0.0, 0.0, 0.013, -37.05, -87.2)" gradientUnits="userSpaceOnUse" id="gradient72" r="819.2" spreadMethod="pad">
      <stop offset="0.0" stop-color="#5f5f5f"/>
      <stop offset="1.0" stop-color="#5e5e5e"/>
    </radialGradient>
    <radialGradient cx="0" cy="0" gradientTransform="matrix(0.0166, 0.0, 0.0, 0.0166, -41.55, -82.0)" gradientUnits="userSpaceOnUse" id="gradient73" r="819.2" spreadMethod="pad">
      <stop offset="0.0" stop-color="#303030"/>
      <stop offset="1.0" stop-color="#212121"/>
    </radialGradient>
    <radialGradient cx="0" cy="0" gradientTransform="matrix(0.0907, 0.0, 0.0, 0.0907, -393.0, -15.95)" gradientUnits="userSpaceOnUse" id="gradient74" r="819.2" spreadMethod="pad">
      <stop offset="0.0" stop-color="#6a6a6a"/>
      <stop offset="1.0" stop-color="#000000"/>
    </radialGradient>
    <radialGradient cx="0" cy="0" gradientTransform="matrix(0.0665, 0.0, 0.0, 0.0665, -378.1, -41.9)" gradientUnits="userSpaceOnUse" id="gradient75" r="819.2" spreadMethod="pad">
      <stop offset="0.0" stop-color="#2a2a2a"/>
      <stop offset="1.0" stop-color="#000000"/>
    </radialGradient>
    <radialGradient cx="0" cy="0" gradientTransform="matrix(0.0215, 0.0, 0.0, 0.0215, -400.0, -1.0)" gradientUnits="userSpaceOnUse" id="gradient76" r="819.2" spreadMethod="pad">
      <stop offset="0.0" stop-color="#030303"/>
      <stop offset="1.0" stop-color="#000000"/>
    </radialGradient>
    <radialGradient cx="0" cy="0" gradientTransform="matrix(0.073, 0.0, 0.0, 0.073, -356.7, -90.05)" gradientUnits="userSpaceOnUse" id="gradient77" r="819.2" spreadMethod="pad">
      <stop offset="0.0" stop-color="#0d0d0d"/>
      <stop offset="1.0" stop-color="#000000"/>
    </radialGradient>
    <radialGradient cx="0" cy="0" gradientTransform="matrix(0.0414, 0.0, 0.0, 0.0414, -16.8, -62.15)" gradientUnits="userSpaceOnUse" id="gradient78" r="819.2" spreadMethod="pad">
      <stop offset="0.0" stop-color="#030303"/>
      <stop offset="1.0" stop-color="#030303"/>
    </radialGradient>
    <radialGradient cx="0" cy="0" gradientTransform="matrix(0.1432, 0.0, 0.0, 0.1432, -110.7, -13.3)" gradientUnits="userSpaceOnUse" id="gradient79" r="819.2" spreadMethod="pad">
      <stop offset="0.0" stop-color="#1d1d1d"/>
      <stop offset="1.0" stop-color="#060606"/>
    </radialGradient>
    <radialGradient cx="0" cy="0" gradientTransform="matrix(0.0338, 0.0, 0.0, 0.0338, -127.3, -15.6)" gradientUnits="userSpaceOnUse" id="gradient80" r="819.2" spreadMethod="pad">
      <stop offset="0.0" stop-color="#484848"/>
      <stop offset="1.0" stop-color="#101010"/>
    </radialGradient>
    <radialGradient cx="0" cy="0" gradientTransform="matrix(0.0881, 0.0, 0.0, 0.0881, -188.2, -54.4)" gradientUnits="userSpaceOnUse" id="gradient81" r="819.2" spreadMethod="pad">
      <stop offset="0.0" stop-color="#686868"/>
      <stop offset="1.0" stop-color="#181818"/>
    </radialGradient>
    <radialGradient cx="0" cy="0" gradientTransform="matrix(0.0664, 0.0, 0.0, 0.0664, -33.1, -1.0)" gradientUnits="userSpaceOnUse" id="gradient82" r="819.2" spreadMethod="pad">
      <stop offset="0.0" stop-color="#000000"/>
      <stop offset="1.0" stop-color="#000000"/>
    </radialGradient>
    <radialGradient cx="0" cy="0" gradientTransform="matrix(0.0312, 0.0, 0.0, 0.0312, -86.75, -9.85)" gradientUnits="userSpaceOnUse" id="gradient83" r="819.2" spreadMethod="pad">
      <stop offset="0.0" stop-color="#000000"/>
      <stop offset="1.0" stop-color="#000000"/>
    </radialGradient>
  </defs>
</svg>
