<?xml version="1.0" encoding="UTF-8" standalone="no"?>
<svg xmlns:xlink="http://www.w3.org/1999/xlink" height="293.6px" width="399.1px" xmlns="http://www.w3.org/2000/svg">
  <g transform="matrix(1.0, 0.0, 0.0, 1.0, 400.0, 294.5)">
    <path d="M-399.9 -182.25 L-400.0 -207.0 -397.9 -218.5 -392.9 -227.4 -375.9 -255.4 -364.15 -266.65 -361.65 -268.5 -322.5 -289.25 -302.75 -294.25 -281.65 -294.5 -260.4 -290.15 -240.75 -284.15 -223.9 -276.4 -207.0 -263.65 -194.25 -248.4 -185.4 -236.65 -177.9 -221.15 -173.25 -208.4 -170.4 -192.4 Q-166.75 -156.15 -179.15 -132.0 L-186.15 -118.9 -197.65 -102.25 -212.5 -88.65 -212.75 -89.15 Q-213.15 -91.5 -210.0 -95.5 L-208.9 -108.5 -222.25 -103.0 -222.9 -103.15 -224.5 -105.65 -234.5 -124.25 -269.25 -151.9 -292.0 -186.25 -292.65 -187.15 -300.4 -198.75 -297.0 -222.0 -293.65 -245.15 -293.9 -245.25 -307.5 -227.4 -310.4 -224.15 -312.25 -221.0 -327.75 -199.25 -324.5 -220.15 -320.0 -248.0 -323.0 -265.5 -325.65 -281.15 -326.4 -280.75 -349.25 -258.5 -364.9 -244.15 -377.15 -217.75 -380.15 -211.65 -389.5 -193.25 -389.0 -191.0 -385.5 -146.4 -386.0 -146.9 -399.15 -189.15 -399.5 -189.25 -399.9 -182.25 M-209.15 -121.15 L-219.25 -122.4 -221.75 -107.9 -222.65 -103.25 -222.15 -103.5 -204.9 -120.4 -209.15 -121.15" fill="url(#gradient0)" fill-rule="evenodd" stroke="none"/>
    <path d="M-237.25 -96.9 L-249.4 -90.75 -263.15 -87.0 -263.5 -86.9 -272.25 -86.4 -279.15 -86.75 -278.5 -86.0 -284.75 -86.65 -288.75 -86.4 -302.25 -87.0 -309.15 -88.0 -319.15 -91.4 -322.65 -92.5 -338.75 -101.75 -353.25 -114.4 -365.25 -130.0 -373.9 -147.75 -378.65 -165.75 -379.5 -184.25 -378.65 -183.9 -375.5 -183.15 -343.5 -184.25 -343.0 -184.25 -335.75 -192.25 -335.0 -192.9 -326.4 -185.5 -323.75 -184.75 -292.0 -186.25 -269.25 -151.9 -234.5 -124.25 -224.5 -105.65 -232.75 -99.15 -237.25 -96.9 M-323.0 -265.5 L-320.0 -248.0 -324.5 -220.15 -329.75 -219.65 -335.25 -214.0 -339.9 -217.9 -342.4 -218.65 -348.9 -219.5 -371.5 -218.15 -369.75 -222.9 -359.9 -237.9 -346.25 -251.4 -332.75 -259.9 -323.0 -265.5 M-312.25 -221.0 L-310.4 -224.15 -307.5 -227.4 -293.9 -245.25 -293.65 -245.15 -297.0 -222.0 -312.25 -221.0 M-221.75 -107.9 L-219.25 -122.4 -209.15 -121.15 -217.9 -110.9 -221.75 -107.9 M-321.25 -137.65 Q-327.15 -138.15 -328.65 -136.75 L-333.4 -137.65 Q-335.5 -139.15 -344.75 -132.15 L-340.25 -131.9 -308.75 -132.25 -318.4 -136.75 -321.25 -137.65 M-344.15 -130.25 L-343.9 -129.9 -340.0 -127.5 -339.9 -127.5 -334.5 -125.0 -329.15 -123.45 -327.65 -123.0 -322.5 -122.9 Q-309.65 -125.9 -307.4 -131.0 L-329.15 -130.75 -344.0 -131.0 -344.5 -130.4 -344.15 -130.25" fill="url(#gradient1)" fill-rule="evenodd" stroke="none"/>
    <path d="M-380.15 -211.65 L-377.15 -217.75 -371.5 -218.15 -348.9 -219.5 -342.4 -218.65 -336.0 -213.4 -335.25 -214.0 -329.75 -219.65 -324.5 -220.15 -327.75 -199.25 -312.25 -221.0 -297.0 -222.0 -300.4 -198.75 -292.65 -187.15 -326.4 -185.5 -335.0 -192.9 -336.9 -194.5 -338.4 -192.9 -345.9 -185.0 -378.65 -183.9 -379.5 -184.25 -381.65 -186.15 -380.15 -211.65" fill="url(#gradient2)" fill-rule="evenodd" stroke="none"/>
    <path d="M-212.75 -89.15 L-215.15 -94.4 -216.0 -101.0 -231.25 -88.15 -232.4 -97.25 -237.25 -96.9 -232.75 -99.15 -224.5 -105.65 -222.9 -103.15 -222.25 -103.0 -208.9 -108.5 -210.0 -95.5 Q-213.15 -91.5 -212.75 -89.15 M-319.15 -91.4 L-321.0 -90.9 -354.0 -97.75 -364.4 -114.15 Q-365.4 -114.0 -366.75 -108.9 L-379.0 -119.75 -379.25 -119.65 -373.25 -105.5 -373.5 -105.15 -382.65 -119.65 -390.0 -123.5 -395.4 -140.0 -400.0 -150.0 -399.9 -182.25 -399.5 -189.25 -399.15 -189.15 -386.0 -146.9 -385.5 -146.4 -389.0 -191.0 -389.5 -193.25 -380.15 -211.65 -381.65 -186.15 -379.5 -184.25 -378.65 -165.75 -373.9 -147.75 -365.25 -130.0 -353.25 -114.4 -338.75 -101.75 -322.65 -92.5 -319.15 -91.4 M-377.15 -217.75 L-364.9 -244.15 -349.25 -258.5 -326.4 -280.75 -325.65 -281.15 -323.0 -265.5 -332.75 -259.9 -346.25 -251.4 -359.9 -237.9 -369.75 -222.9 -371.5 -218.15 -377.15 -217.75 M-209.15 -121.15 L-204.9 -120.4 -222.15 -103.5 -222.65 -103.25 -221.75 -107.9 -217.9 -110.9 -209.15 -121.15" fill="url(#gradient3)" fill-rule="evenodd" stroke="none"/>
    <path d="M-342.4 -218.65 L-339.9 -217.9 -335.25 -214.0 -336.0 -213.4 -342.4 -218.65" fill="url(#gradient4)" fill-rule="evenodd" stroke="none"/>
    <path d="M-292.65 -187.15 L-292.0 -186.25 -323.75 -184.75 -326.4 -185.5 -292.65 -187.15" fill="url(#gradient5)" fill-rule="evenodd" stroke="none"/>
    <path d="M-335.0 -192.9 L-335.75 -192.25 -338.4 -192.9 -336.9 -194.5 -335.0 -192.9" fill="url(#gradient6)" fill-rule="evenodd" stroke="none"/>
    <path d="M-335.75 -192.25 L-343.0 -184.25 -343.5 -184.25 -345.9 -185.0 -338.4 -192.9 -335.75 -192.25" fill="url(#gradient7)" fill-rule="evenodd" stroke="none"/>
    <path d="M-343.5 -184.25 L-375.5 -183.15 -378.65 -183.9 -345.9 -185.0 -343.5 -184.25" fill="url(#gradient8)" fill-rule="evenodd" stroke="none"/>
    <path d="M-329.15 -135.9 L-332.9 -136.75 Q-335.0 -137.15 -337.65 -136.15 L-337.9 -135.65 -338.65 -135.5 -339.5 -134.65 -341.5 -133.65 -341.75 -133.0 -343.4 -132.15 -311.15 -132.4 Q-313.0 -132.85 -314.65 -133.75 L-317.0 -135.25 -320.75 -136.65 -324.15 -137.0 -327.5 -136.5 -329.15 -135.9 M-321.25 -137.65 L-318.4 -136.75 -308.75 -132.25 -340.25 -131.9 -344.75 -132.15 Q-335.5 -139.15 -333.4 -137.65 L-328.65 -136.75 Q-327.15 -138.15 -321.25 -137.65" fill="url(#gradient9)" fill-rule="evenodd" stroke="none"/>
    <path d="M-329.15 -135.9 L-327.5 -136.5 -324.15 -137.0 -320.75 -136.65 -317.0 -135.25 -314.65 -133.75 Q-313.0 -132.85 -311.15 -132.4 L-343.4 -132.15 -341.75 -133.0 -341.5 -133.65 -339.5 -134.65 -338.65 -135.5 -337.9 -135.65 -337.65 -136.15 Q-335.0 -137.15 -332.9 -136.75 L-329.15 -135.9" fill="url(#gradient10)" fill-rule="evenodd" stroke="none"/>
    <path d="M-329.15 -123.45 L-334.5 -125.0 -339.9 -127.5 -340.0 -127.5 -343.9 -129.9 -344.15 -130.25 -308.65 -130.4 Q-317.85 -121.45 -329.15 -123.45" fill="url(#gradient11)" fill-rule="evenodd" stroke="none"/>
    <path d="M-344.15 -130.25 L-344.5 -130.4 -344.0 -131.0 -329.15 -130.75 -307.4 -131.0 Q-309.65 -125.9 -322.5 -122.9 L-327.65 -123.0 -329.15 -123.45 Q-317.85 -121.45 -308.65 -130.4 L-344.15 -130.25" fill="url(#gradient12)" fill-rule="evenodd" stroke="none"/>
    <path d="M-2.15 -91.75 L-1.0 -92.15 -0.9 -91.25 -1.15 -91.25 -1.25 -91.0 -1.65 -89.15 -2.25 -87.9 -2.65 -87.5 -3.5 -87.25 -2.15 -91.75" fill="url(#gradient13)" fill-rule="evenodd" stroke="none"/>
    <path d="M-0.9 -91.25 L-0.9 -90.4 -1.65 -89.15 -1.65 -89.0 -1.9 -88.15 -1.9 -88.0 -2.25 -87.9 -1.65 -89.15 -1.25 -91.0 -1.15 -91.25 -0.9 -91.25" fill="url(#gradient14)" fill-rule="evenodd" stroke="none"/>
    <path d="M-0.9 -71.0 L-0.9 -70.15 -3.15 -70.0 -4.15 -70.75 -3.9 -73.75 -3.9 -74.15 -4.0 -74.65 -3.75 -76.15 -3.9 -76.75 -3.9 -79.25 -3.25 -84.0 -3.25 -84.4 -3.15 -84.75 -3.0 -84.9 -3.0 -85.15 -3.0 -85.5 -2.9 -85.9 -2.65 -86.75 -2.5 -87.5 -2.65 -87.5 -2.25 -87.9 -1.9 -88.0 -1.9 -87.15 -1.75 -87.0 -1.65 -86.75 -1.9 -86.9 -1.65 -85.25 -1.65 -85.15 -1.65 -84.75 -1.5 -83.75 -1.5 -83.65 -1.3 -77.85 -1.15 -71.65 -0.9 -71.0" fill="url(#gradient15)" fill-rule="evenodd" stroke="none"/>
    <path d="M-4.25 -74.75 L-11.65 -82.4 -11.5 -82.5 -12.0 -83.0 -12.4 -83.4 -12.15 -83.75 -11.4 -83.75 -11.25 -84.9 -9.75 -84.65 -9.15 -85.5 -10.4 -85.5 -9.5 -85.75 -4.75 -86.9 -4.9 -86.65 -3.0 -86.75 -2.9 -86.25 -2.65 -86.75 -2.9 -85.9 -4.8 -85.9 -3.15 -85.5 -4.15 -85.4 -3.15 -85.4 Q-3.3 -84.9 -3.75 -84.75 L-6.4 -84.75 -3.9 -84.5 -6.4 -84.5 -6.25 -84.25 -6.75 -84.0 -6.4 -84.0 -3.65 -84.25 -3.75 -84.65 -3.0 -85.15 -3.0 -84.9 -3.15 -84.75 -3.25 -84.4 -3.25 -84.0 -3.9 -79.25 -3.9 -76.75 -3.9 -76.25 -3.75 -76.15 -4.0 -74.65 -4.25 -74.75 M-12.65 -83.4 L-12.75 -83.5 -12.75 -83.75 -11.75 -85.25 -12.65 -83.4 M-13.0 -84.15 L-13.0 -84.25 -12.75 -85.15 -12.0 -85.5 -12.25 -84.65 -12.65 -84.9 -13.0 -84.15 M-1.9 -88.0 L-1.9 -88.15 -1.5 -88.15 -1.9 -88.0 M-8.75 -84.25 L-8.5 -84.75 -9.15 -84.65 -8.75 -84.25 M-10.0 -84.15 L-10.15 -83.9 -8.25 -83.9 -10.0 -84.15 M-8.65 -85.4 L-8.0 -85.25 -8.25 -84.9 -7.75 -85.15 -7.9 -84.25 -7.5 -84.25 -7.5 -84.9 -7.4 -84.4 -7.25 -84.5 -7.15 -85.0 -7.65 -85.4 -7.35 -85.4 Q-7.9 -85.5 -8.0 -85.75 L-8.65 -85.4 M-5.3 -85.9 L-6.5 -85.9 -4.9 -86.25 -6.15 -86.4 -7.5 -85.75 -5.3 -85.9 M-10.5 -83.75 L-10.25 -84.4 -11.25 -84.15 -11.15 -83.75 -10.5 -83.75 M-12.25 -83.5 L-12.0 -83.0 -11.4 -83.0 -11.5 -82.5 -10.75 -83.65 -12.25 -83.5 M-5.65 -77.65 L-5.25 -77.9 -5.75 -78.15 -5.65 -77.65 M-8.5 -82.65 L-8.65 -82.25 -7.9 -82.0 -10.4 -81.5 -7.5 -81.4 -7.9 -82.0 -7.9 -82.25 -8.5 -82.65 M-8.0 -82.65 L-7.75 -83.4 -8.15 -83.65 -8.0 -82.65 M-3.5 -87.25 L-2.9 -86.9 -4.25 -87.0 Q-4.0 -87.4 -3.5 -87.25 M-4.0 -84.15 L-4.15 -83.9 -3.75 -83.9 -4.0 -84.15" fill="url(#gradient16)" fill-rule="evenodd" stroke="none"/>
    <path d="M-0.9 -89.9 L-0.9 -71.0 -1.15 -71.65 -1.3 -77.85 -1.5 -83.65 -1.5 -83.75 -1.65 -84.75 -1.65 -85.15 -1.5 -85.25 -1.65 -86.75 -1.65 -87.5 -1.75 -87.0 -1.9 -87.15 -1.9 -88.0 -1.5 -88.15 -1.9 -88.15 -1.65 -89.0 -0.9 -89.9 M-1.65 -85.25 L-1.9 -86.9 -1.65 -86.75 -1.65 -85.25" fill="url(#gradient17)" fill-rule="evenodd" stroke="none"/>
    <path d="M-1.75 -87.0 L-1.65 -87.5 -1.65 -86.75 -1.75 -87.0" fill="url(#gradient18)" fill-rule="evenodd" stroke="none"/>
    <path d="M-321.4 -68.9 L-321.25 -69.0 -320.75 -69.4 Q-318.0 -69.75 -309.15 -85.0 L-309.15 -88.0 -302.25 -87.0 -288.75 -86.4 -284.75 -86.65 -278.5 -86.0 -273.65 -81.15 -273.65 -79.15 -275.4 -74.5 -275.0 -63.75 -324.5 -66.0 -324.65 -66.15 -321.4 -68.9" fill="url(#gradient19)" fill-rule="evenodd" stroke="none"/>
    <path d="M-321.75 -68.9 L-321.4 -68.9 -324.65 -66.15 -325.0 -67.0 -323.75 -67.75 -321.75 -68.9" fill="url(#gradient20)" fill-rule="evenodd" stroke="none"/>
    <path d="M-333.25 -66.9 L-327.75 -68.5 -324.4 -69.0 -321.75 -68.9 -323.75 -67.75 -333.4 -66.65 -333.25 -66.9" fill="url(#gradient21)" fill-rule="evenodd" stroke="none"/>
    <path d="M-366.0 -54.9 L-342.9 -65.5 -333.25 -66.9 -333.4 -66.65 -323.75 -67.75 -325.0 -67.0 -325.25 -66.9 -351.9 -60.4 -366.0 -54.9" fill="url(#gradient22)" fill-rule="evenodd" stroke="none"/>
    <path d="M-367.9 -53.75 L-367.75 -54.15 -366.0 -54.9 -351.9 -60.4 -357.75 -41.0 -353.75 -21.25 -359.5 -19.65 -364.65 -17.0 -372.9 -29.5 -367.9 -53.75" fill="url(#gradient23)" fill-rule="evenodd" stroke="none"/>
    <path d="M-325.25 -66.9 L-325.25 -66.65 -326.65 -65.65 -327.4 -65.65 -328.0 -65.65 -328.0 -64.75 -357.75 -41.0 -351.9 -60.4 -325.25 -66.9" fill="url(#gradient24)" fill-rule="evenodd" stroke="none"/>
    <path d="M-317.5 -0.9 L-332.15 -0.9 -332.65 -3.75 -336.0 -10.4 -340.9 -13.9 Q-340.25 -16.65 -344.15 -21.0 -347.15 -22.65 -348.75 -22.5 L-352.4 -21.75 -327.0 -63.65 -325.9 -63.25 -325.25 -65.25 -325.9 -65.5 -325.25 -66.65 -325.25 -66.9 -325.0 -67.0 -324.65 -66.15 -324.5 -66.0 -275.0 -63.75 -274.9 -63.4 -274.9 -62.9 -276.25 -62.75 -274.25 -61.25 -260.5 -16.0 -260.9 -2.0 Q-263.0 -5.25 -268.15 -7.25 L-274.9 -9.75 -279.65 -10.5 -286.75 -10.4 -302.65 -8.9 Q-310.75 -7.15 -317.5 -0.9" fill="url(#gradient25)" fill-rule="evenodd" stroke="none"/>
    <path d="M-10.65 -89.65 L-10.65 -89.75 -9.75 -90.4 -7.5 -90.4 -9.5 -85.75 -11.9 -85.9 -12.5 -85.4 -12.25 -85.9 -10.65 -89.65" fill="url(#gradient26)" fill-rule="evenodd" stroke="none"/>
    <path d="M-7.5 -90.4 L-2.15 -91.75 -3.5 -87.25 Q-4.0 -87.4 -4.25 -87.0 L-4.75 -86.9 -9.5 -85.75 -7.5 -90.4" fill="url(#gradient27)" fill-rule="evenodd" stroke="none"/>
    <path d="M-12.75 -83.75 L-13.0 -84.15 -12.65 -84.9 -12.25 -84.65 -12.0 -85.5 -12.75 -85.15 -12.5 -85.4 -11.9 -85.9 -9.5 -85.75 -10.4 -85.5 -9.15 -85.5 -9.75 -84.65 -11.25 -84.9 -11.4 -83.75 -12.15 -83.75 -12.4 -83.4 -12.65 -83.4 -11.75 -85.25 -12.75 -83.75 M-8.65 -85.4 L-8.0 -85.75 Q-7.9 -85.5 -7.35 -85.4 L-7.65 -85.4 -7.15 -85.0 -7.25 -84.5 -7.4 -84.4 -7.5 -84.9 -7.5 -84.25 -7.9 -84.25 -7.75 -85.15 -8.25 -84.9 -8.0 -85.25 -8.65 -85.4 M-10.0 -84.15 L-8.25 -83.9 -10.15 -83.9 -10.0 -84.15 M-8.75 -84.25 L-9.15 -84.65 -8.5 -84.75 -8.75 -84.25 M-3.0 -85.15 L-3.75 -84.65 -3.65 -84.25 -6.4 -84.0 -6.75 -84.0 -6.25 -84.25 -6.4 -84.5 -3.9 -84.5 -6.4 -84.75 -3.75 -84.75 Q-3.3 -84.9 -3.15 -85.4 L-4.15 -85.4 -3.15 -85.5 -4.8 -85.9 -2.9 -85.9 -3.0 -85.5 -3.0 -85.15 M-2.65 -86.75 L-2.9 -86.25 -3.0 -86.75 -4.9 -86.65 -4.75 -86.9 -4.25 -87.0 -2.9 -86.9 -3.5 -87.25 -2.65 -87.5 -2.5 -87.5 -2.65 -86.75 M-5.3 -85.9 L-7.5 -85.75 -6.15 -86.4 -4.9 -86.25 -6.5 -85.9 -5.3 -85.9 M-12.25 -83.5 L-10.75 -83.65 -11.5 -82.5 -11.4 -83.0 -12.0 -83.0 -12.25 -83.5 M-10.5 -83.75 L-11.15 -83.75 -11.25 -84.15 -10.25 -84.4 -10.5 -83.75 M-8.0 -82.65 L-8.15 -83.65 -7.75 -83.4 -8.0 -82.65 M-8.5 -82.65 L-7.9 -82.25 -7.9 -82.0 -7.5 -81.4 -10.4 -81.5 -7.9 -82.0 -8.65 -82.25 -8.5 -82.65 M-5.65 -77.65 L-5.75 -78.15 -5.25 -77.9 -5.65 -77.65 M-4.0 -84.15 L-3.75 -83.9 -4.15 -83.9 -4.0 -84.15" fill="url(#gradient28)" fill-rule="evenodd" stroke="none"/>
    <path d="M-0.9 -90.4 L-0.9 -89.9 -1.65 -89.0 -1.65 -89.15 -0.9 -90.4" fill="url(#gradient29)" fill-rule="evenodd" stroke="none"/>
    <path d="M-12.75 -85.15 L-12.25 -85.9 -11.25 -88.9 -10.65 -89.65 -12.25 -85.9 -12.5 -85.4 -12.75 -85.15" fill="url(#gradient30)" fill-rule="evenodd" stroke="none"/>
    <path d="M-263.15 -87.0 L-263.15 -84.15 -263.25 -83.65 -263.65 -83.75 -263.5 -86.9 -263.15 -87.0" fill="url(#gradient31)" fill-rule="evenodd" stroke="none"/>
    <path d="M-273.65 -79.15 L-273.65 -81.15 -272.25 -86.4 -263.5 -86.9 -263.65 -83.75 -266.4 -83.65 -264.5 -77.4 -264.65 -76.5 -266.65 -75.0 -271.75 -75.15 -273.65 -79.15" fill="url(#gradient32)" fill-rule="evenodd" stroke="none"/>
    <path d="M-273.65 -81.15 L-278.5 -86.0 -279.15 -86.75 -272.25 -86.4 -273.65 -81.15" fill="url(#gradient33)" fill-rule="evenodd" stroke="none"/>
    <path d="M-1.65 -86.75 L-1.5 -85.25 -1.65 -85.15 -1.65 -85.25 -1.65 -86.75" fill="url(#gradient34)" fill-rule="evenodd" stroke="none"/>
    <path d="M-3.9 -76.75 L-3.75 -76.15 -3.9 -76.25 -3.9 -76.75" fill="url(#gradient35)" fill-rule="evenodd" stroke="none"/>
    <path d="M-263.15 -84.15 L-260.4 -77.15 -257.25 -74.15 -240.75 -66.9 -275.4 -74.5 -273.65 -79.15 -271.75 -75.15 -266.65 -75.0 -264.65 -76.5 -264.5 -77.4 -266.4 -83.65 -263.65 -83.75 -263.25 -83.65 -263.15 -84.15" fill="url(#gradient36)" fill-rule="evenodd" stroke="none"/>
    <path d="M-240.75 -66.9 L-236.75 -65.9 -275.0 -63.75 -275.4 -74.5 -240.75 -66.9" fill="url(#gradient37)" fill-rule="evenodd" stroke="none"/>
    <path d="M-11.65 -82.4 L-12.65 -83.4 -12.4 -83.4 -12.0 -83.0 -11.5 -82.5 -11.65 -82.4" fill="url(#gradient38)" fill-rule="evenodd" stroke="none"/>
    <path d="M-16.0 -62.75 L-14.0 -67.9 -10.25 -71.15 -4.25 -74.75 -4.0 -74.65 -3.9 -74.15 -3.9 -73.75 -4.15 -70.75 -11.65 -66.4 -16.0 -62.75" fill="url(#gradient39)" fill-rule="evenodd" stroke="none"/>
    <path d="M-0.9 -70.15 L-0.9 -67.75 -1.4 -67.75 -3.65 -65.4 Q-14.4 -63.75 -16.15 -61.25 L-15.75 -60.0 -16.4 -60.0 -16.65 -61.15 -16.15 -62.5 -16.0 -62.75 -11.65 -66.4 -4.15 -70.75 -3.15 -70.0 -0.9 -70.15" fill="url(#gradient40)" fill-rule="evenodd" stroke="none"/>
    <path d="M-0.9 -67.75 L-0.9 -63.75 -6.9 -62.25 -7.65 -62.0 -15.75 -60.0 -16.15 -61.25 Q-14.4 -63.75 -3.65 -65.4 L-1.4 -67.75 -0.9 -67.75" fill="url(#gradient41)" fill-rule="evenodd" stroke="none"/>
    <path d="M-325.25 -66.65 L-325.9 -65.5 -326.65 -65.65 -325.25 -66.65 M-327.0 -63.65 L-352.4 -21.75 -353.75 -21.25 -357.75 -41.0 -328.0 -64.75 -327.0 -63.65" fill="url(#gradient42)" fill-rule="evenodd" stroke="none"/>
    <path d="M-325.9 -65.5 L-325.25 -65.25 -327.4 -65.65 -326.65 -65.65 -325.9 -65.5" fill="url(#gradient43)" fill-rule="evenodd" stroke="none"/>
    <path d="M-274.4 -62.9 L-270.75 -62.9 -272.25 -62.4 -272.9 -61.25 -274.25 -61.25 -276.25 -62.75 -274.9 -62.9 -274.4 -62.9 M-325.25 -65.25 L-325.9 -63.25 -327.0 -63.65 -328.0 -64.75 -328.0 -65.65 -327.4 -65.65 -325.25 -65.25" fill="url(#gradient44)" fill-rule="evenodd" stroke="none"/>
    <path d="M-236.75 -65.9 L-221.15 -62.15 -190.65 -40.65 -200.25 -45.65 -203.65 -45.0 -209.4 -36.4 -229.15 -58.25 -229.4 -58.75 -275.0 -63.75 -236.75 -65.9" fill="url(#gradient45)" fill-rule="evenodd" stroke="none"/>
    <path d="M-225.25 -0.9 L-235.15 -0.9 -236.5 -18.25 -272.9 -61.25 -272.25 -62.4 -270.75 -62.9 -274.4 -62.9 -274.5 -63.4 -274.9 -63.4 -275.0 -63.75 -229.4 -58.75 -229.15 -58.25 -226.75 -36.15 -224.0 -2.25 -225.25 -0.9" fill="url(#gradient46)" fill-rule="evenodd" stroke="none"/>
    <path d="M-229.15 -58.25 L-209.4 -36.4 -226.75 -36.15 -229.15 -58.25" fill="url(#gradient47)" fill-rule="evenodd" stroke="none"/>
    <path d="M-141.15 -0.9 L-223.0 -0.9 -223.5 -2.0 -224.0 -2.25 -226.75 -36.15 -209.4 -36.4 -170.4 -16.0 -146.9 -4.25 -141.15 -0.9" fill="url(#gradient48)" fill-rule="evenodd" stroke="none"/>
    <path d="M-235.15 -0.9 L-254.25 -0.9 -255.0 -1.5 -260.9 -2.0 -260.5 -16.0 -274.25 -61.25 -272.9 -61.25 -236.5 -18.25 -235.15 -0.9 M-274.9 -63.4 L-274.5 -63.4 -274.4 -62.9 -274.9 -62.9 -274.9 -63.4" fill="url(#gradient49)" fill-rule="evenodd" stroke="none"/>
    <path d="M-254.25 -0.9 L-317.5 -0.9 Q-310.75 -7.15 -302.65 -8.9 L-286.75 -10.4 -279.65 -10.5 -274.9 -9.75 -268.15 -7.25 Q-263.0 -5.25 -260.9 -2.0 L-255.0 -1.5 -254.25 -0.9" fill="url(#gradient50)" fill-rule="evenodd" stroke="none"/>
    <path d="M-332.15 -0.9 L-382.65 -0.9 Q-378.15 -9.4 -364.65 -17.0 L-359.5 -19.65 -353.75 -21.25 -352.4 -21.75 -348.75 -22.5 Q-347.15 -22.65 -344.15 -21.0 -340.25 -16.65 -340.9 -13.9 L-336.0 -10.4 -332.65 -3.75 -332.15 -0.9" fill="url(#gradient51)" fill-rule="evenodd" stroke="none"/>
    <path d="M-382.65 -0.9 L-400.0 -0.9 -400.0 -20.0 -381.75 -34.15 -381.65 -34.4 -369.65 -51.4 -367.9 -53.75 -372.9 -29.5 -364.65 -17.0 Q-378.15 -9.4 -382.65 -0.9" fill="url(#gradient52)" fill-rule="evenodd" stroke="none"/>
    <path d="M-400.0 -20.0 L-400.0 -30.5 -381.0 -44.5 -369.65 -51.4 -381.65 -34.4 -381.75 -34.15 -400.0 -20.0" fill="url(#gradient53)" fill-rule="evenodd" stroke="none"/>
    <path d="M-190.65 -40.65 L-190.5 -40.65 -190.25 -40.4 -190.0 -40.25 -114.25 -1.0 -141.15 -0.9 -146.9 -4.25 -170.4 -16.0 -209.4 -36.4 -203.65 -45.0 -200.25 -45.65 -190.65 -40.65" fill="url(#gradient54)" fill-rule="evenodd" stroke="none"/>
    <path d="M-223.0 -0.9 L-225.25 -0.9 -224.0 -2.25 -223.5 -2.0 -223.0 -0.9" fill="url(#gradient55)" fill-rule="evenodd" stroke="none"/>
    <path d="M-39.65 -0.9 L-68.65 -0.9 -38.15 -16.9 -7.4 -30.15 -1.25 -33.15 -0.9 -33.15 -0.9 -19.15 -25.0 -8.5 -39.65 -0.9" fill="url(#gradient56)" fill-rule="evenodd" stroke="none"/>
    <path d="M-39.65 -0.9 L-25.0 -8.5 -0.9 -19.15 -1.0 -0.9 -39.65 -0.9" fill="url(#gradient57)" fill-rule="evenodd" stroke="none"/>
    <path d="M-261.25 -79.75 L-261.5 -80.25 -261.65 -80.9 -261.0 -80.25 -256.25 -80.0 -253.75 -79.4 -260.15 -78.65 -260.65 -78.15 -261.25 -79.75 M-353.75 -60.75 L-353.25 -63.4 -342.75 -78.0 -329.25 -81.15 -311.5 -81.4 -311.75 -81.0 -322.4 -80.75 -335.5 -78.25 -344.25 -65.0 -344.25 -64.9 -344.75 -64.5 -349.75 -62.4 -350.0 -62.25 -352.5 -61.15 -352.75 -61.0 -353.65 -60.65 -353.75 -60.75" fill="#ab0000" fill-opacity="0.9098039" fill-rule="evenodd" stroke="none"/>
    <path d="M-260.65 -78.15 L-265.75 -74.65 -266.25 -64.25 -266.15 -64.0 -266.25 -63.4 -266.25 -62.75 -266.65 -59.0 -266.5 -58.75 -267.0 -54.4 -266.9 -53.9 -268.15 -41.5 -268.0 -40.15 -269.15 -30.0 -269.15 -29.5 -277.15 -6.4 -277.15 -5.65 -278.4 -2.15 -278.65 -1.65 -278.9 -0.9 -288.65 -0.9 -288.15 -2.0 -287.9 -2.9 -288.0 -3.15 -287.75 -3.25 -287.25 -5.25 -278.15 -30.15 -276.9 -42.0 -276.9 -42.5 -274.75 -60.0 -274.9 -61.5 -275.0 -61.9 -275.15 -62.9 -275.0 -63.0 -275.15 -63.5 -275.15 -63.65 -275.4 -63.9 -275.4 -64.0 -275.25 -64.65 -277.0 -75.15 -274.9 -75.9 -274.75 -76.15 -268.65 -78.75 -267.25 -78.75 -266.65 -79.15 -264.75 -79.25 -262.65 -79.65 -261.25 -79.75 -260.65 -78.15 M-344.75 -64.5 L-345.0 -64.15 -345.9 -61.9 -348.75 -48.15 -348.9 -47.75 -351.25 -35.65 -353.65 -31.75 -353.75 -31.4 -355.25 -29.0 -355.4 -28.4 -360.9 -19.0 -361.5 -18.65 -361.15 -18.5 -361.5 -18.0 -361.75 -17.75 -362.65 -15.9 -363.0 -15.65 -364.4 -12.9 -364.65 -12.5 -365.0 -12.4 -365.0 -12.25 -367.75 -7.15 -368.15 -6.75 -369.15 -4.65 -370.4 -3.0 -370.25 -2.75 -371.4 -0.9 -380.25 -0.9 -380.15 -1.15 -376.75 -7.15 -376.5 -7.4 -376.5 -7.5 -375.9 -8.0 -375.15 -9.5 -374.75 -10.0 -359.4 -35.65 -358.4 -40.25 -358.25 -40.65 -358.25 -41.5 -354.15 -59.5 -353.9 -60.0 -354.0 -60.4 -354.15 -60.4 -353.9 -60.5 -353.75 -60.75 -353.65 -60.65 -352.75 -61.0 -352.5 -61.15 -350.0 -62.25 -349.75 -62.4 -344.75 -64.5" fill="#9b0000" fill-opacity="0.9098039" fill-rule="evenodd" stroke="none"/>
  </g>
  <defs>
    <radialGradient cx="0" cy="0" gradientTransform="matrix(0.2727, 0.0, 0.0, 0.2727, -392.65, -168.45)" gradientUnits="userSpaceOnUse" id="gradient0" r="819.2" spreadMethod="pad">
      <stop offset="0.0" stop-color="#494949"/>
      <stop offset="1.0" stop-color="#242424"/>
    </radialGradient>
    <radialGradient cx="0" cy="0" gradientTransform="matrix(0.2059, 0.0, 0.0, 0.2059, -292.7, -100.85)" gradientUnits="userSpaceOnUse" id="gradient1" r="819.2" spreadMethod="pad">
      <stop offset="0.0" stop-color="#7d7d7d"/>
      <stop offset="1.0" stop-color="#000000"/>
    </radialGradient>
    <radialGradient cx="0" cy="0" gradientTransform="matrix(0.1214, 0.0, 0.0, 0.1214, -381.55, -186.15)" gradientUnits="userSpaceOnUse" id="gradient2" r="819.2" spreadMethod="pad">
      <stop offset="0.0" stop-color="#767676"/>
      <stop offset="1.0" stop-color="#767676"/>
    </radialGradient>
    <radialGradient cx="0" cy="0" gradientTransform="matrix(0.2682, 0.0, 0.0, 0.2682, -194.25, -135.75)" gradientUnits="userSpaceOnUse" id="gradient3" r="819.2" spreadMethod="pad">
      <stop offset="0.0" stop-color="#555555"/>
      <stop offset="1.0" stop-color="#1e1e1e"/>
    </radialGradient>
    <radialGradient cx="0" cy="0" gradientTransform="matrix(0.0138, 0.0, 0.0, 0.0138, -342.65, -218.85)" gradientUnits="userSpaceOnUse" id="gradient4" r="819.2" spreadMethod="pad">
      <stop offset="0.0" stop-color="#8a8a8a"/>
      <stop offset="1.0" stop-color="#898989"/>
    </radialGradient>
    <radialGradient cx="0" cy="0" gradientTransform="matrix(0.045, 0.0, 0.0, 0.045, -289.7, -187.3)" gradientUnits="userSpaceOnUse" id="gradient5" r="819.2" spreadMethod="pad">
      <stop offset="0.0" stop-color="#767676"/>
      <stop offset="1.0" stop-color="#767676"/>
    </radialGradient>
    <radialGradient cx="0" cy="0" gradientTransform="matrix(0.0052, 0.0, 0.0, 0.0052, -338.35, -193.0)" gradientUnits="userSpaceOnUse" id="gradient6" r="819.2" spreadMethod="pad">
      <stop offset="0.0" stop-color="#e2e2e2"/>
      <stop offset="1.0" stop-color="#e0e0e0"/>
    </radialGradient>
    <radialGradient cx="0" cy="0" gradientTransform="matrix(0.0151, 0.0, 0.0, 0.0151, -345.85, -185.05)" gradientUnits="userSpaceOnUse" id="gradient7" r="819.2" spreadMethod="pad">
      <stop offset="0.0" stop-color="#e1e1e1"/>
      <stop offset="1.0" stop-color="#dedede"/>
    </radialGradient>
    <radialGradient cx="0" cy="0" gradientTransform="matrix(0.0401, 0.0, 0.0, 0.0401, -345.85, -185.05)" gradientUnits="userSpaceOnUse" id="gradient8" r="819.2" spreadMethod="pad">
      <stop offset="0.0" stop-color="#767676"/>
      <stop offset="1.0" stop-color="#767676"/>
    </radialGradient>
    <radialGradient cx="0" cy="0" gradientTransform="matrix(0.0382, 0.0, 0.0, 0.0382, -313.6, -133.55)" gradientUnits="userSpaceOnUse" id="gradient9" r="819.2" spreadMethod="pad">
      <stop offset="0.0" stop-color="#ff5151"/>
      <stop offset="1.0" stop-color="#330000"/>
    </radialGradient>
    <radialGradient cx="0" cy="0" gradientTransform="matrix(0.0372, 0.0, 0.0, 0.0372, -312.95, -133.2)" gradientUnits="userSpaceOnUse" id="gradient10" r="819.2" spreadMethod="pad">
      <stop offset="0.0" stop-color="#ff5151"/>
      <stop offset="1.0" stop-color="#ff4c4c"/>
    </radialGradient>
    <radialGradient cx="0" cy="0" gradientTransform="matrix(0.0318, 0.0, 0.0, 0.0318, -318.65, -124.4)" gradientUnits="userSpaceOnUse" id="gradient11" r="819.2" spreadMethod="pad">
      <stop offset="0.0" stop-color="#ff3030"/>
      <stop offset="1.0" stop-color="#ff2d2d"/>
    </radialGradient>
    <radialGradient cx="0" cy="0" gradientTransform="matrix(0.0413, 0.0, 0.0, 0.0413, -310.8, -127.5)" gradientUnits="userSpaceOnUse" id="gradient12" r="819.2" spreadMethod="pad">
      <stop offset="0.0" stop-color="#f89797"/>
      <stop offset="1.0" stop-color="#864242"/>
    </radialGradient>
    <radialGradient cx="0" cy="0" gradientTransform="matrix(0.0117, 0.0, 0.0, 0.0117, -8.1, -85.7)" gradientUnits="userSpaceOnUse" id="gradient13" r="819.2" spreadMethod="pad">
      <stop offset="0.0" stop-color="#171717"/>
      <stop offset="1.0" stop-color="#171717"/>
    </radialGradient>
    <radialGradient cx="0" cy="0" gradientTransform="matrix(0.0039, 0.0, 0.0, 0.0039, -1.8, -88.25)" gradientUnits="userSpaceOnUse" id="gradient14" r="819.2" spreadMethod="pad">
      <stop offset="0.0" stop-color="#222222"/>
      <stop offset="1.0" stop-color="#222222"/>
    </radialGradient>
    <radialGradient cx="0" cy="0" gradientTransform="matrix(0.0204, 0.0, 0.0, 0.0204, -1.5, -86.8)" gradientUnits="userSpaceOnUse" id="gradient15" r="819.2" spreadMethod="pad">
      <stop offset="0.0" stop-color="#020202"/>
      <stop offset="1.0" stop-color="#020202"/>
    </radialGradient>
    <radialGradient cx="0" cy="0" gradientTransform="matrix(0.021, 0.0, 0.0, 0.021, -1.85, -87.9)" gradientUnits="userSpaceOnUse" id="gradient16" r="819.2" spreadMethod="pad">
      <stop offset="0.0" stop-color="#040404"/>
      <stop offset="1.0" stop-color="#040404"/>
    </radialGradient>
    <radialGradient cx="0" cy="0" gradientTransform="matrix(0.0212, 0.0, 0.0, 0.0212, -1.0, -88.35)" gradientUnits="userSpaceOnUse" id="gradient17" r="819.2" spreadMethod="pad">
      <stop offset="0.0" stop-color="#171717"/>
      <stop offset="1.0" stop-color="#171717"/>
    </radialGradient>
    <radialGradient cx="0" cy="0" gradientTransform="matrix(0.0027, 0.0, 0.0, 0.0027, -1.5, -86.8)" gradientUnits="userSpaceOnUse" id="gradient18" r="819.2" spreadMethod="pad">
      <stop offset="0.0" stop-color="#1c1c1c"/>
      <stop offset="1.0" stop-color="#1b1b1b"/>
    </radialGradient>
    <radialGradient cx="0" cy="0" gradientTransform="matrix(0.0522, 0.0, 0.0, 0.0522, -309.1, -89.95)" gradientUnits="userSpaceOnUse" id="gradient19" r="819.2" spreadMethod="pad">
      <stop offset="0.0" stop-color="#1a1a1a"/>
      <stop offset="1.0" stop-color="#000000"/>
    </radialGradient>
    <radialGradient cx="0" cy="0" gradientTransform="matrix(0.0205, 0.0, 0.0, 0.0205, -324.9, -67.15)" gradientUnits="userSpaceOnUse" id="gradient20" r="819.2" spreadMethod="pad">
      <stop offset="0.0" stop-color="#000000"/>
      <stop offset="1.0" stop-color="#000000"/>
    </radialGradient>
    <radialGradient cx="0" cy="0" gradientTransform="matrix(0.0132, 0.0, 0.0, 0.0132, -323.8, -67.55)" gradientUnits="userSpaceOnUse" id="gradient21" r="819.2" spreadMethod="pad">
      <stop offset="0.0" stop-color="#000000"/>
      <stop offset="1.0" stop-color="#000000"/>
    </radialGradient>
    <radialGradient cx="0" cy="0" gradientTransform="matrix(0.0733, 0.0, 0.0, 0.0733, -309.75, -70.3)" gradientUnits="userSpaceOnUse" id="gradient22" r="819.2" spreadMethod="pad">
      <stop offset="0.0" stop-color="#3c3c3c"/>
      <stop offset="1.0" stop-color="#000000"/>
    </radialGradient>
    <radialGradient cx="0" cy="0" gradientTransform="matrix(0.064, 0.0, 0.0, 0.064, -351.0, -8.1)" gradientUnits="userSpaceOnUse" id="gradient23" r="819.2" spreadMethod="pad">
      <stop offset="0.0" stop-color="#171717"/>
      <stop offset="1.0" stop-color="#000000"/>
    </radialGradient>
    <radialGradient cx="0" cy="0" gradientTransform="matrix(0.0514, 0.0, 0.0, 0.0514, -324.9, -67.15)" gradientUnits="userSpaceOnUse" id="gradient24" r="819.2" spreadMethod="pad">
      <stop offset="0.0" stop-color="#000000"/>
      <stop offset="1.0" stop-color="#000000"/>
    </radialGradient>
    <radialGradient cx="0" cy="0" gradientTransform="matrix(0.1134, 0.0, 0.0, 0.1134, -350.6, -24.95)" gradientUnits="userSpaceOnUse" id="gradient25" r="819.2" spreadMethod="pad">
      <stop offset="0.0" stop-color="#000000"/>
      <stop offset="1.0" stop-color="#000000"/>
    </radialGradient>
    <radialGradient cx="0" cy="0" gradientTransform="matrix(0.0087, 0.0, 0.0, 0.0087, -12.3, -85.5)" gradientUnits="userSpaceOnUse" id="gradient26" r="819.2" spreadMethod="pad">
      <stop offset="0.0" stop-color="#828282"/>
      <stop offset="1.0" stop-color="#171717"/>
    </radialGradient>
    <radialGradient cx="0" cy="0" gradientTransform="matrix(0.0129, 0.0, 0.0, 0.0129, -1.2, -92.05)" gradientUnits="userSpaceOnUse" id="gradient27" r="819.2" spreadMethod="pad">
      <stop offset="0.0" stop-color="#040404"/>
      <stop offset="1.0" stop-color="#040404"/>
    </radialGradient>
    <radialGradient cx="0" cy="0" gradientTransform="matrix(0.0118, 0.0, 0.0, 0.0118, -3.2, -83.2)" gradientUnits="userSpaceOnUse" id="gradient28" r="819.2" spreadMethod="pad">
      <stop offset="0.0" stop-color="#171717"/>
      <stop offset="1.0" stop-color="#171717"/>
    </radialGradient>
    <radialGradient cx="0" cy="0" gradientTransform="matrix(0.0022, 0.0, 0.0, 0.0022, -1.0, -89.95)" gradientUnits="userSpaceOnUse" id="gradient29" r="819.2" spreadMethod="pad">
      <stop offset="0.0" stop-color="#818181"/>
      <stop offset="1.0" stop-color="#818181"/>
    </radialGradient>
    <radialGradient cx="0" cy="0" gradientTransform="matrix(0.007, 0.0, 0.0, 0.007, -12.75, -85.1)" gradientUnits="userSpaceOnUse" id="gradient30" r="819.2" spreadMethod="pad">
      <stop offset="0.0" stop-color="#303030"/>
      <stop offset="1.0" stop-color="#202020"/>
    </radialGradient>
    <radialGradient cx="0" cy="0" gradientTransform="matrix(0.1161, 0.0, 0.0, 0.1161, -263.35, -96.05)" gradientUnits="userSpaceOnUse" id="gradient31" r="819.2" spreadMethod="pad">
      <stop offset="0.0" stop-color="#1a1a1a"/>
      <stop offset="1.0" stop-color="#111111"/>
    </radialGradient>
    <radialGradient cx="0" cy="0" gradientTransform="matrix(0.1078, 0.0, 0.0, 0.1078, -263.15, -88.8)" gradientUnits="userSpaceOnUse" id="gradient32" r="819.2" spreadMethod="pad">
      <stop offset="0.0" stop-color="#101010"/>
      <stop offset="1.0" stop-color="#000000"/>
    </radialGradient>
    <radialGradient cx="0" cy="0" gradientTransform="matrix(0.0232, 0.0, 0.0, 0.0232, -286.95, -94.65)" gradientUnits="userSpaceOnUse" id="gradient33" r="819.2" spreadMethod="pad">
      <stop offset="0.0" stop-color="#797979"/>
      <stop offset="1.0" stop-color="#000000"/>
    </radialGradient>
    <radialGradient cx="0" cy="0" gradientTransform="matrix(0.0205, 0.0, 0.0, 0.0205, -1.0, -71.35)" gradientUnits="userSpaceOnUse" id="gradient34" r="819.2" spreadMethod="pad">
      <stop offset="0.0" stop-color="#1f1f1f"/>
      <stop offset="1.0" stop-color="#1e1e1e"/>
    </radialGradient>
    <radialGradient cx="0" cy="0" gradientTransform="matrix(0.0158, 0.0, 0.0, 0.0158, -2.3, -87.75)" gradientUnits="userSpaceOnUse" id="gradient35" r="819.2" spreadMethod="pad">
      <stop offset="0.0" stop-color="#212121"/>
      <stop offset="1.0" stop-color="#202020"/>
    </radialGradient>
    <radialGradient cx="0" cy="0" gradientTransform="matrix(0.0377, 0.0, 0.0, 0.0377, -263.05, -84.2)" gradientUnits="userSpaceOnUse" id="gradient36" r="819.2" spreadMethod="pad">
      <stop offset="0.0" stop-color="#7b7b7b"/>
      <stop offset="1.0" stop-color="#090909"/>
    </radialGradient>
    <radialGradient cx="0" cy="0" gradientTransform="matrix(0.0483, 0.0, 0.0, 0.0483, -275.4, -74.55)" gradientUnits="userSpaceOnUse" id="gradient37" r="819.2" spreadMethod="pad">
      <stop offset="0.0" stop-color="#000000"/>
      <stop offset="1.0" stop-color="#000000"/>
    </radialGradient>
    <radialGradient cx="0" cy="0" gradientTransform="matrix(0.006, 0.0, 0.0, 0.006, -12.65, -83.8)" gradientUnits="userSpaceOnUse" id="gradient38" r="819.2" spreadMethod="pad">
      <stop offset="0.0" stop-color="#484848"/>
      <stop offset="1.0" stop-color="#292929"/>
    </radialGradient>
    <radialGradient cx="0" cy="0" gradientTransform="matrix(0.0244, 0.0, 0.0, 0.0244, -16.4, -61.95)" gradientUnits="userSpaceOnUse" id="gradient39" r="819.2" spreadMethod="pad">
      <stop offset="0.0" stop-color="#313131"/>
      <stop offset="1.0" stop-color="#222222"/>
    </radialGradient>
    <radialGradient cx="0" cy="0" gradientTransform="matrix(0.0184, 0.0, 0.0, 0.0184, -1.65, -63.55)" gradientUnits="userSpaceOnUse" id="gradient40" r="819.2" spreadMethod="pad">
      <stop offset="0.0" stop-color="#040404"/>
      <stop offset="1.0" stop-color="#040404"/>
    </radialGradient>
    <radialGradient cx="0" cy="0" gradientTransform="matrix(0.0197, 0.0, 0.0, 0.0197, -15.9, -61.6)" gradientUnits="userSpaceOnUse" id="gradient41" r="819.2" spreadMethod="pad">
      <stop offset="0.0" stop-color="#030303"/>
      <stop offset="1.0" stop-color="#030303"/>
    </radialGradient>
    <radialGradient cx="0" cy="0" gradientTransform="matrix(0.0788, 0.0, 0.0, 0.0788, -351.0, -8.1)" gradientUnits="userSpaceOnUse" id="gradient42" r="819.2" spreadMethod="pad">
      <stop offset="0.0" stop-color="#171717"/>
      <stop offset="1.0" stop-color="#000000"/>
    </radialGradient>
    <radialGradient cx="0" cy="0" gradientTransform="matrix(0.0535, 0.0, 0.0, 0.0535, -327.95, -65.75)" gradientUnits="userSpaceOnUse" id="gradient43" r="819.2" spreadMethod="pad">
      <stop offset="0.0" stop-color="#000000"/>
      <stop offset="1.0" stop-color="#000000"/>
    </radialGradient>
    <radialGradient cx="0" cy="0" gradientTransform="matrix(0.1087, 0.0, 0.0, 0.1087, -327.95, -65.75)" gradientUnits="userSpaceOnUse" id="gradient44" r="819.2" spreadMethod="pad">
      <stop offset="0.0" stop-color="#010101"/>
      <stop offset="1.0" stop-color="#000000"/>
    </radialGradient>
    <radialGradient cx="0" cy="0" gradientTransform="matrix(0.1087, 0.0, 0.0, 0.1087, -189.4, -39.9)" gradientUnits="userSpaceOnUse" id="gradient45" r="819.2" spreadMethod="pad">
      <stop offset="0.0" stop-color="#585858"/>
      <stop offset="1.0" stop-color="#000000"/>
    </radialGradient>
    <radialGradient cx="0" cy="0" gradientTransform="matrix(0.0976, 0.0, 0.0, 0.0976, -223.95, -2.55)" gradientUnits="userSpaceOnUse" id="gradient46" r="819.2" spreadMethod="pad">
      <stop offset="0.0" stop-color="#595959"/>
      <stop offset="1.0" stop-color="#000000"/>
    </radialGradient>
    <radialGradient cx="0" cy="0" gradientTransform="matrix(0.0277, 0.0, 0.0, 0.0277, -226.75, -36.2)" gradientUnits="userSpaceOnUse" id="gradient47" r="819.2" spreadMethod="pad">
      <stop offset="0.0" stop-color="#000000"/>
      <stop offset="1.0" stop-color="#000000"/>
    </radialGradient>
    <radialGradient cx="0" cy="0" gradientTransform="matrix(0.097, 0.0, 0.0, 0.097, -220.6, -1.0)" gradientUnits="userSpaceOnUse" id="gradient48" r="819.2" spreadMethod="pad">
      <stop offset="0.0" stop-color="#5a5a5a"/>
      <stop offset="1.0" stop-color="#000000"/>
    </radialGradient>
    <radialGradient cx="0" cy="0" gradientTransform="matrix(0.0611, 0.0, 0.0, 0.0611, -260.6, -16.05)" gradientUnits="userSpaceOnUse" id="gradient49" r="819.2" spreadMethod="pad">
      <stop offset="0.0" stop-color="#000000"/>
      <stop offset="1.0" stop-color="#000000"/>
    </radialGradient>
    <radialGradient cx="0" cy="0" gradientTransform="matrix(0.0569, 0.0, 0.0, 0.0569, -271.7, -10.4)" gradientUnits="userSpaceOnUse" id="gradient50" r="819.2" spreadMethod="pad">
      <stop offset="0.0" stop-color="#000000"/>
      <stop offset="1.0" stop-color="#000000"/>
    </radialGradient>
    <radialGradient cx="0" cy="0" gradientTransform="matrix(0.0666, 0.0, 0.0, 0.0666, -375.5, -9.45)" gradientUnits="userSpaceOnUse" id="gradient51" r="819.2" spreadMethod="pad">
      <stop offset="0.0" stop-color="#2a2a2a"/>
      <stop offset="1.0" stop-color="#000000"/>
    </radialGradient>
    <radialGradient cx="0" cy="0" gradientTransform="matrix(0.0761, 0.0, 0.0, 0.0761, -367.6, -54.25)" gradientUnits="userSpaceOnUse" id="gradient52" r="819.2" spreadMethod="pad">
      <stop offset="0.0" stop-color="#000000"/>
      <stop offset="1.0" stop-color="#000000"/>
    </radialGradient>
    <radialGradient cx="0" cy="0" gradientTransform="matrix(0.069, 0.0, 0.0, 0.069, -358.65, -58.5)" gradientUnits="userSpaceOnUse" id="gradient53" r="819.2" spreadMethod="pad">
      <stop offset="0.0" stop-color="#0d0d0d"/>
      <stop offset="1.0" stop-color="#000000"/>
    </radialGradient>
    <radialGradient cx="0" cy="0" gradientTransform="matrix(0.0766, 0.0, 0.0, 0.0766, -174.65, -18.35)" gradientUnits="userSpaceOnUse" id="gradient54" r="819.2" spreadMethod="pad">
      <stop offset="0.0" stop-color="#000000"/>
      <stop offset="1.0" stop-color="#000000"/>
    </radialGradient>
    <radialGradient cx="0" cy="0" gradientTransform="matrix(0.0023, 0.0, 0.0, 0.0023, -223.95, -2.55)" gradientUnits="userSpaceOnUse" id="gradient55" r="819.2" spreadMethod="pad">
      <stop offset="0.0" stop-color="#595959"/>
      <stop offset="1.0" stop-color="#505050"/>
    </radialGradient>
    <radialGradient cx="0" cy="0" gradientTransform="matrix(0.0913, 0.0, 0.0, 0.0913, -68.6, -1.0)" gradientUnits="userSpaceOnUse" id="gradient56" r="819.2" spreadMethod="pad">
      <stop offset="0.0" stop-color="#191919"/>
      <stop offset="1.0" stop-color="#070707"/>
    </radialGradient>
    <radialGradient cx="0" cy="0" gradientTransform="matrix(0.0342, 0.0, 0.0, 0.0342, -11.65, -1.0)" gradientUnits="userSpaceOnUse" id="gradient57" r="819.2" spreadMethod="pad">
      <stop offset="0.0" stop-color="#000000"/>
      <stop offset="1.0" stop-color="#000000"/>
    </radialGradient>
  </defs>
</svg>
