<?xml version="1.0" encoding="UTF-8" standalone="no"?>
<svg xmlns:xlink="http://www.w3.org/1999/xlink" height="269.6px" width="399.1px" xmlns="http://www.w3.org/2000/svg">
  <g transform="matrix(1.0, 0.0, 0.0, 1.0, 400.0, 270.5)">
    <path d="M-210.65 -63.4 L-215.9 -67.15 -219.75 -72.4 -233.65 -60.15 -237.9 -67.65 -245.65 -67.0 -229.5 -75.0 -215.75 -85.5 -211.15 -90.4 -209.4 -84.9 -197.75 -88.9 -201.75 -74.9 -201.65 -74.25 -207.0 -68.4 -210.65 -63.4 M-313.5 -66.75 L-328.4 -62.75 -359.4 -72.65 -370.65 -89.4 -371.0 -88.4 -371.15 -85.25 -371.5 -85.4 -382.65 -97.15 -378.65 -89.65 -378.4 -88.9 -378.9 -89.4 -385.15 -100.65 -388.25 -105.0 -388.5 -105.9 -388.65 -107.15 -394.0 -122.65 -394.75 -129.75 -396.15 -137.4 -392.15 -152.25 -387.65 -177.15 -387.15 -176.5 -373.25 -135.25 -371.5 -125.9 -370.15 -122.15 -363.0 -106.75 -351.65 -91.65 -337.0 -78.75 -322.0 -69.9 -313.5 -66.75 M-372.9 -172.25 L-373.25 -182.75 -366.15 -193.9 -368.4 -188.75 -370.9 -180.65 -372.9 -172.25 M-353.0 -216.5 L-344.75 -231.5 -325.75 -247.15 -307.15 -263.15 -306.75 -263.0 -300.4 -246.9 -311.15 -244.75 -337.5 -231.0 -350.5 -219.75 -353.0 -216.5 M-200.4 -104.4 L-192.25 -102.15 -192.0 -101.75 -208.9 -85.25 -209.15 -85.4 -206.15 -96.4 -202.9 -100.0 -200.4 -104.4" fill="url(#gradient0)" fill-rule="evenodd" stroke="none"/>
    <path d="M-245.65 -67.0 L-260.25 -63.15 -267.15 -64.0 -273.4 -65.0 -272.65 -64.0 -275.25 -64.15 -279.65 -65.15 -282.0 -64.9 -299.25 -65.15 -304.0 -65.75 -305.15 -65.15 -308.0 -65.0 -313.5 -66.75 -322.0 -69.9 -337.0 -78.75 -351.65 -91.65 -363.0 -106.75 -370.15 -122.15 -371.5 -125.9 -373.25 -135.25 -372.4 -133.9 -372.9 -172.25 -370.9 -180.65 -368.4 -188.75 -366.15 -193.9 -364.75 -196.4 -367.0 -174.0 -363.65 -171.75 Q-362.5 -170.15 -358.5 -170.65 L-325.0 -171.9 -316.5 -179.75 -314.9 -181.15 -305.4 -173.75 Q-304.65 -172.15 -301.4 -172.65 L-266.25 -174.4 -245.9 -140.25 -216.4 -109.4 -211.15 -90.4 -215.75 -85.5 -229.5 -75.0 -245.65 -67.0 M-359.4 -205.25 L-353.0 -216.5 -350.5 -219.75 -337.5 -231.0 -311.15 -244.75 -300.4 -246.9 -295.5 -235.15 -300.0 -207.5 -308.5 -206.9 -315.0 -201.0 -315.9 -201.25 -322.65 -206.15 -328.15 -206.75 -359.4 -205.25 M-288.15 -208.25 L-285.9 -211.4 -269.25 -231.15 -269.0 -231.0 -271.9 -209.15 -288.15 -208.25 M-206.15 -96.4 L-203.9 -105.0 -203.25 -105.4 -200.4 -104.4 -202.9 -100.0 -206.15 -96.4 M-331.0 -116.5 L-331.65 -116.0 Q-324.75 -109.65 -309.4 -108.0 -292.4 -111.9 -290.4 -117.25 L-311.4 -116.9 -313.9 -116.5 -318.75 -116.75 -331.0 -116.5 M-322.25 -123.25 L-329.65 -118.65 -331.65 -117.75 -329.25 -117.65 -291.25 -118.65 -303.4 -123.9 -308.4 -124.25 -313.0 -123.0 -322.25 -123.25" fill="url(#gradient1)" fill-rule="evenodd" stroke="none"/>
    <path d="M-388.5 -105.9 L-393.5 -115.4 -399.5 -139.4 -400.0 -166.65 -394.75 -189.65 -390.25 -201.5 -389.65 -202.4 -389.75 -202.75 -377.65 -222.25 -365.15 -238.15 -349.0 -250.4 -333.15 -257.4 -311.25 -266.4 -290.65 -270.5 -268.25 -270.25 -246.0 -265.25 -225.25 -255.75 -207.25 -242.65 -199.25 -235.75 -185.9 -220.9 -175.4 -202.75 -172.25 -194.0 -167.0 -177.15 -166.0 -171.5 -164.9 -156.5 -165.15 -145.15 -165.75 -140.25 -169.75 -121.5 -171.4 -116.9 -181.5 -94.65 -194.4 -77.4 -210.65 -63.4 -207.0 -68.4 -201.65 -74.25 -201.75 -74.9 -197.75 -88.9 -209.4 -84.9 -211.15 -90.4 -216.4 -109.4 -245.9 -140.25 -266.25 -174.4 -267.0 -175.65 -274.5 -188.25 -271.9 -209.15 -269.0 -231.0 -269.25 -231.15 -285.9 -211.4 -288.15 -208.25 -302.5 -189.4 -299.9 -207.0 -300.0 -207.5 -295.5 -235.15 -300.4 -246.9 -306.75 -263.0 -307.15 -263.15 -325.75 -247.15 -344.75 -231.5 -353.0 -216.5 -359.4 -205.25 -364.75 -196.4 -366.15 -193.9 -373.25 -182.75 -372.9 -172.25 -372.4 -133.9 -373.25 -135.25 -387.15 -176.5 -387.65 -177.15 -392.15 -152.25 -396.15 -137.4 -394.75 -129.75 -394.0 -122.65 -388.65 -107.15 -388.5 -105.9 M-200.4 -104.4 L-203.25 -105.4 -203.9 -105.0 -206.15 -96.4 -209.15 -85.4 -208.9 -85.25 -192.0 -101.75 -192.25 -102.15 -200.4 -104.4" fill="url(#gradient2)" fill-rule="evenodd" stroke="none"/>
    <path d="M-364.75 -196.4 L-359.4 -205.25 -328.15 -206.75 -322.65 -206.15 -315.9 -201.25 -315.0 -201.0 -308.5 -206.9 -300.0 -207.5 -299.9 -207.0 -302.5 -189.4 -288.15 -208.25 -271.9 -209.15 -274.5 -188.25 -267.0 -175.65 -305.4 -173.75 -314.9 -181.15 -316.75 -182.5 -318.5 -181.0 -326.9 -173.15 -363.65 -171.75 -367.0 -174.0 -364.75 -196.4" fill="url(#gradient3)" fill-rule="evenodd" stroke="none"/>
    <path d="M-316.5 -179.75 L-318.5 -181.0 -316.75 -182.5 -314.9 -181.15 -316.5 -179.75" fill="url(#gradient4)" fill-rule="evenodd" stroke="none"/>
    <path d="M-325.0 -171.9 L-326.9 -173.15 -318.5 -181.0 -316.5 -179.75 -325.0 -171.9" fill="url(#gradient5)" fill-rule="evenodd" stroke="none"/>
    <path d="M-325.0 -171.9 L-358.5 -170.65 Q-362.5 -170.15 -363.65 -171.75 L-326.9 -173.15 -325.0 -171.9" fill="url(#gradient6)" fill-rule="evenodd" stroke="none"/>
    <path d="M-267.0 -175.65 L-266.25 -174.4 -301.4 -172.65 Q-304.65 -172.15 -305.4 -173.75 L-267.0 -175.65" fill="url(#gradient7)" fill-rule="evenodd" stroke="none"/>
    <path d="M-322.25 -123.25 L-313.0 -123.0 -308.4 -124.25 -303.4 -123.9 -291.25 -118.65 -329.25 -117.65 -331.65 -117.75 -329.65 -118.65 -322.25 -123.25 M-319.75 -123.15 L-322.5 -122.5 -329.65 -118.0 -293.9 -118.9 -303.5 -123.15 -306.15 -123.65 -311.4 -123.0 -313.0 -122.25 -317.75 -123.15 -319.75 -123.15" fill="url(#gradient8)" fill-rule="evenodd" stroke="none"/>
    <path d="M-319.75 -123.15 L-317.75 -123.15 -313.0 -122.25 -311.4 -123.0 -306.15 -123.65 -303.5 -123.15 -293.9 -118.9 -329.65 -118.0 -322.5 -122.5 -319.75 -123.15" fill="url(#gradient9)" fill-rule="evenodd" stroke="none"/>
    <path d="M-331.0 -116.5 L-318.75 -116.75 -313.9 -116.5 -311.4 -116.9 -290.4 -117.25 Q-292.4 -111.9 -309.4 -108.0 -324.75 -109.65 -331.65 -116.0 L-331.0 -116.5 M-309.75 -108.4 Q-293.75 -112.4 -291.9 -116.5 L-331.0 -115.9 Q-321.4 -109.0 -309.75 -108.4" fill="url(#gradient10)" fill-rule="evenodd" stroke="none"/>
    <path d="M-309.75 -108.4 Q-321.4 -109.0 -331.0 -115.9 L-291.9 -116.5 Q-293.75 -112.4 -309.75 -108.4" fill="url(#gradient11)" fill-rule="evenodd" stroke="none"/>
    <path d="M-0.9 -71.4 L-0.9 -70.25 -2.5 -70.4 -2.65 -70.0 -2.9 -70.0 -4.65 -71.9 -4.5 -72.25 -1.9 -72.4 -0.9 -71.4" fill="url(#gradient12)" fill-rule="evenodd" stroke="none"/>
    <path d="M-1.9 -72.4 L-0.9 -72.65 -0.9 -71.4 -1.9 -72.4" fill="url(#gradient13)" fill-rule="evenodd" stroke="none"/>
    <path d="M-0.9 -70.0 L-0.9 -68.4 -1.4 -68.15 -1.65 -68.5 -1.75 -67.9 -1.4 -67.9 -1.75 -67.4 -2.25 -67.25 -3.0 -68.0 -2.5 -68.4 -2.75 -67.9 -2.5 -68.0 -1.9 -69.0 -2.2 -68.85 -1.9 -69.5 -2.4 -69.15 -2.25 -68.8 -2.65 -68.65 -2.25 -69.5 -2.65 -69.25 -2.65 -70.0 -2.5 -70.4 -0.9 -70.25 -1.25 -70.15 -0.9 -70.0 M-2.75 -68.9 L-3.15 -68.4 -2.9 -69.5 -2.75 -68.9" fill="url(#gradient14)" fill-rule="evenodd" stroke="none"/>
    <path d="M-0.9 -70.25 L-0.9 -70.0 -1.25 -70.15 -0.9 -70.25 M-0.9 -68.4 L-0.9 -66.75 -1.15 -66.15 -2.25 -67.25 -1.75 -67.4 -1.4 -67.9 -1.75 -67.9 -1.65 -68.5 -1.4 -68.15 -0.9 -68.4 M-3.0 -68.0 L-3.4 -68.4 -3.5 -68.75 -3.5 -69.0 -2.9 -69.75 -2.9 -70.0 -2.65 -70.0 -2.65 -69.25 -2.25 -69.5 -2.65 -68.65 -2.25 -68.8 -2.4 -69.15 -1.9 -69.5 -2.2 -68.85 -1.9 -69.0 -2.5 -68.0 -2.75 -67.9 -2.5 -68.4 -3.0 -68.0 M-2.75 -68.9 L-2.9 -69.5 -3.15 -68.4 -2.75 -68.9" fill="url(#gradient15)" fill-rule="evenodd" stroke="none"/>
    <path d="M-3.5 -68.75 L-5.15 -70.4 -5.25 -71.4 -4.65 -71.9 -2.9 -70.0 -2.9 -69.75 -3.5 -69.0 -3.5 -68.75" fill="url(#gradient16)" fill-rule="evenodd" stroke="none"/>
    <path d="M-316.15 -47.65 L-312.15 -51.25 Q-306.4 -63.15 -308.0 -65.0 L-305.15 -65.15 -304.0 -65.75 -299.25 -65.15 -282.0 -64.9 -279.65 -65.15 -275.25 -64.15 -272.65 -64.0 -268.25 -58.9 -268.25 -56.65 -269.65 -52.25 -266.15 -43.65 -280.15 -45.4 -318.0 -45.9 -316.15 -47.65" fill="url(#gradient17)" fill-rule="evenodd" stroke="none"/>
    <path d="M-272.65 -64.0 L-273.4 -65.0 -267.15 -64.0 -268.25 -58.9 -272.65 -64.0" fill="url(#gradient18)" fill-rule="evenodd" stroke="none"/>
    <path d="M-260.25 -63.15 L-260.25 -61.75 -260.4 -60.5 -260.5 -59.9 -262.25 -60.4 -262.4 -60.15 Q-259.9 -52.25 -262.75 -51.5 L-266.9 -52.4 -268.25 -56.65 -268.25 -58.9 -267.15 -64.0 -260.25 -63.15" fill="url(#gradient19)" fill-rule="evenodd" stroke="none"/>
    <path d="M-260.25 -61.75 L-260.25 -61.0 -260.4 -60.5 -260.25 -61.75" fill="url(#gradient20)" fill-rule="evenodd" stroke="none"/>
    <path d="M-260.25 -61.0 L-258.4 -52.15 -257.75 -51.0 -249.75 -46.25 -269.65 -52.25 -268.25 -56.65 -266.9 -52.4 -262.75 -51.5 Q-259.9 -52.25 -262.4 -60.15 L-262.25 -60.4 -260.5 -59.9 -260.4 -60.5 -260.25 -61.0" fill="url(#gradient21)" fill-rule="evenodd" stroke="none"/>
    <path d="M-249.75 -46.25 L-234.5 -41.4 -263.75 -43.4 -264.0 -43.4 -266.0 -43.65 -266.15 -43.65 -269.65 -52.25 -249.75 -46.25" fill="url(#gradient22)" fill-rule="evenodd" stroke="none"/>
    <path d="M-250.4 -0.9 L-349.75 -0.9 -323.75 -41.5 -322.4 -41.25 -322.0 -41.75 -321.4 -43.5 -322.4 -43.5 -321.75 -44.75 -321.65 -45.0 -321.25 -45.15 -318.0 -45.9 -280.15 -45.4 -266.15 -43.65 -266.0 -43.65 -265.75 -43.15 -265.75 -42.75 -267.0 -42.65 -265.15 -41.0 -250.4 -0.9" fill="url(#gradient23)" fill-rule="evenodd" stroke="none"/>
    <path d="M-321.25 -45.15 L-316.15 -47.65 -318.0 -45.9 -321.25 -45.15" fill="url(#gradient24)" fill-rule="evenodd" stroke="none"/>
    <path d="M-8.15 -48.75 L-7.75 -50.0 -6.4 -51.65 -1.15 -55.65 -0.9 -51.65 Q-1.75 -51.9 -4.9 -48.75 L-6.5 -46.4 -7.15 -47.75 -8.15 -48.75" fill="url(#gradient25)" fill-rule="evenodd" stroke="none"/>
    <path d="M-0.9 -48.75 Q-7.15 -47.65 -5.65 -44.9 L-6.25 -44.9 -6.4 -45.4 -6.5 -46.4 -4.9 -48.75 Q-1.75 -51.9 -0.9 -51.65 L-0.9 -48.75" fill="url(#gradient26)" fill-rule="evenodd" stroke="none"/>
    <path d="M-6.4 -45.4 L-7.4 -46.75 -8.15 -48.75 -7.15 -47.75 -6.5 -46.4 -6.4 -45.4" fill="url(#gradient27)" fill-rule="evenodd" stroke="none"/>
    <path d="M-0.9 -48.75 L-0.9 -46.25 -5.65 -44.9 Q-7.15 -47.65 -0.9 -48.75" fill="url(#gradient28)" fill-rule="evenodd" stroke="none"/>
    <path d="M-323.0 -44.75 L-322.75 -44.75 -322.5 -44.9 -321.65 -45.0 -321.75 -44.75 -323.5 -43.5 -325.15 -43.4 -325.0 -42.4 -360.65 -15.65 -354.25 -35.9 -323.0 -44.75" fill="url(#gradient29)" fill-rule="evenodd" stroke="none"/>
    <path d="M-368.4 -30.4 L-347.0 -39.75 -323.0 -44.75 -354.25 -35.9 -368.4 -30.4" fill="url(#gradient30)" fill-rule="evenodd" stroke="none"/>
    <path d="M-359.15 -0.9 L-377.65 -0.9 -378.75 -2.65 -373.0 -28.25 -369.9 -29.75 -369.75 -29.9 -368.5 -30.4 -368.4 -30.4 -354.25 -35.9 -360.65 -15.65 -360.9 -15.25 -360.5 -14.9 -359.15 -0.9" fill="url(#gradient31)" fill-rule="evenodd" stroke="none"/>
    <path d="M-213.75 -0.9 L-227.9 -0.9 -263.65 -40.9 -263.0 -42.15 -261.5 -42.4 -261.65 -42.65 -265.25 -42.75 -265.75 -43.15 -266.0 -43.65 -264.0 -43.4 -263.75 -43.4 -219.4 -38.0 -219.15 -37.5 -215.0 -15.9 -213.75 -0.9" fill="url(#gradient32)" fill-rule="evenodd" stroke="none"/>
    <path d="M-227.9 -0.9 L-250.4 -0.9 -265.15 -41.0 -263.65 -40.9 -227.9 -0.9 M-265.75 -43.15 L-265.25 -42.75 -265.75 -42.75 -265.75 -43.15" fill="url(#gradient33)" fill-rule="evenodd" stroke="none"/>
    <path d="M-265.25 -42.75 L-261.65 -42.65 -261.5 -42.4 -263.0 -42.15 -263.65 -40.9 -265.15 -41.0 -267.0 -42.65 -265.75 -42.75 -265.25 -42.75 M-325.0 -42.4 L-325.15 -43.4 -323.5 -43.5 -322.4 -43.5 -321.4 -43.5 -322.0 -41.75 -322.4 -41.25 -323.75 -41.5 -325.0 -42.4" fill="url(#gradient34)" fill-rule="evenodd" stroke="none"/>
    <path d="M-349.75 -0.9 L-359.15 -0.9 -360.5 -14.9 -360.9 -15.25 -360.65 -15.65 -325.0 -42.4 -323.75 -41.5 -349.75 -0.9 M-323.5 -43.5 L-321.75 -44.75 -322.4 -43.5 -323.5 -43.5" fill="url(#gradient35)" fill-rule="evenodd" stroke="none"/>
    <path d="M-234.5 -41.4 L-213.75 -39.65 -192.0 -23.65 -193.9 -23.75 -196.9 -16.65 -219.15 -37.5 -219.4 -38.0 -263.75 -43.4 -234.5 -41.4" fill="url(#gradient36)" fill-rule="evenodd" stroke="none"/>
    <path d="M-215.0 -15.9 L-219.15 -37.5 -196.9 -16.65 -215.0 -15.9" fill="url(#gradient37)" fill-rule="evenodd" stroke="none"/>
    <path d="M-163.75 -0.9 L-213.75 -0.9 -215.0 -15.9 -196.9 -16.65 -163.75 -0.9" fill="url(#gradient38)" fill-rule="evenodd" stroke="none"/>
    <path d="M-377.65 -0.9 L-397.5 -0.9 -390.25 -6.4 -375.4 -25.4 -374.9 -25.9 -373.0 -28.25 -378.75 -2.65 -377.65 -0.9" fill="url(#gradient39)" fill-rule="evenodd" stroke="none"/>
    <path d="M-375.15 -25.75 L-374.9 -25.9 -375.4 -25.4 -375.15 -25.75" fill="url(#gradient40)" fill-rule="evenodd" stroke="none"/>
    <path d="M-397.5 -0.9 L-400.0 -0.9 -400.0 -10.0 -391.65 -15.9 -375.15 -25.75 -375.4 -25.4 -390.25 -6.4 -397.5 -0.9" fill="url(#gradient41)" fill-rule="evenodd" stroke="none"/>
    <path d="M-192.0 -23.65 L-143.65 -1.0 -163.75 -0.9 -196.9 -16.65 -193.9 -23.75 -192.0 -23.65" fill="url(#gradient42)" fill-rule="evenodd" stroke="none"/>
    <path d="M-26.4 -0.9 L-1.15 -13.5 -0.9 -0.9 -26.4 -0.9" fill="url(#gradient43)" fill-rule="evenodd" stroke="none"/>
    <path d="M-258.75 -54.25 L-259.15 -55.4 -259.5 -57.25 -252.75 -57.15 -254.9 -55.4 -254.9 -54.4 -258.75 -54.25 M-320.25 -57.9 L-324.5 -57.5 -327.65 -58.0 -320.25 -57.9" fill="#ab0000" fill-rule="evenodd" stroke="none"/>
    <path d="M-254.25 -49.0 L-257.75 -51.15 -258.4 -52.25 -258.65 -53.15 -258.75 -54.25 -254.9 -54.4 -254.9 -55.4 -252.75 -57.15 -250.75 -55.0 -254.9 -54.4 -254.25 -49.0 M-320.25 -57.9 L-309.9 -56.75 -310.25 -55.9 -324.5 -57.5 -320.25 -57.9 M-327.65 -58.0 L-324.5 -57.5 -332.25 -56.9 -341.5 -42.4 -341.9 -40.75 -347.9 -39.25 -348.15 -39.15 -348.4 -39.0 -348.5 -39.0 -351.15 -38.0 -350.15 -42.4 -340.65 -56.5 -340.15 -56.5 -339.65 -56.65 -339.15 -56.65 -327.65 -58.0" fill="#ab0000" fill-opacity="0.9098039" fill-rule="evenodd" stroke="none"/>
    <path d="M-254.25 -49.0 L-254.15 -48.75 -253.4 -42.65 -253.75 -37.0 -253.65 -36.75 -254.0 -31.9 -253.9 -31.65 -254.15 -30.4 -253.9 -29.9 -255.15 -14.4 -254.9 -12.9 -255.25 -11.75 -255.15 -10.5 -256.0 -7.65 -256.0 -7.25 -257.5 -0.9 -267.9 -0.9 -265.15 -11.25 -264.25 -20.25 -264.5 -21.0 -263.0 -34.4 -263.0 -35.15 -263.15 -35.25 -263.25 -35.65 -263.25 -35.75 -262.75 -39.75 -262.75 -40.5 -262.5 -41.65 -262.9 -43.15 -263.0 -43.25 -267.15 -55.5 -261.75 -57.15 -261.75 -57.25 -260.65 -56.75 -259.9 -55.5 -259.4 -55.5 -259.15 -55.4 -258.75 -54.25 -258.65 -53.15 -258.4 -52.25 -257.75 -51.15 -254.25 -49.0 M-351.15 -38.0 L-348.5 -39.0 -348.4 -39.0 -348.15 -39.15 -347.9 -39.25 -341.9 -40.75 -344.65 -27.75 -348.0 -12.9 -354.5 -0.9 -364.0 -0.9 -360.0 -7.75 -359.9 -8.5 -358.15 -11.4 -358.15 -11.65 -357.0 -13.25 -355.65 -18.9 -355.75 -19.15 -355.5 -19.5 -351.4 -37.25 -351.25 -37.5 -351.25 -37.9 -351.15 -37.9 -351.15 -38.0" fill="#9b0000" fill-opacity="0.9098039" fill-rule="evenodd" stroke="none"/>
    <path d="M-259.15 -55.4 L-259.4 -55.5 -259.9 -55.5 -260.65 -56.75 -261.75 -57.25 -259.5 -57.25 -259.15 -55.4" fill="#a90000" fill-rule="evenodd" stroke="none"/>
  </g>
  <defs>
    <radialGradient cx="0" cy="0" gradientTransform="matrix(0.2613, 0.0, 0.0, 0.2613, -198.75, -106.1)" gradientUnits="userSpaceOnUse" id="gradient0" r="819.2" spreadMethod="pad">
      <stop offset="0.0" stop-color="#555555"/>
      <stop offset="1.0" stop-color="#181818"/>
    </radialGradient>
    <radialGradient cx="0" cy="0" gradientTransform="matrix(0.2159, 0.0, 0.0, 0.2159, -370.95, -124.55)" gradientUnits="userSpaceOnUse" id="gradient1" r="819.2" spreadMethod="pad">
      <stop offset="0.0" stop-color="#7e7e7e"/>
      <stop offset="1.0" stop-color="#000000"/>
    </radialGradient>
    <radialGradient cx="0" cy="0" gradientTransform="matrix(0.2628, 0.0, 0.0, 0.2628, -380.2, -156.25)" gradientUnits="userSpaceOnUse" id="gradient2" r="819.2" spreadMethod="pad">
      <stop offset="0.0" stop-color="#494949"/>
      <stop offset="1.0" stop-color="#222222"/>
    </radialGradient>
    <radialGradient cx="0" cy="0" gradientTransform="matrix(0.1323, 0.0, 0.0, 0.1323, -366.9, -174.05)" gradientUnits="userSpaceOnUse" id="gradient3" r="819.2" spreadMethod="pad">
      <stop offset="0.0" stop-color="#767676"/>
      <stop offset="1.0" stop-color="#767676"/>
    </radialGradient>
    <radialGradient cx="0" cy="0" gradientTransform="matrix(0.0044, 0.0, 0.0, 0.0044, -318.4, -181.05)" gradientUnits="userSpaceOnUse" id="gradient4" r="819.2" spreadMethod="pad">
      <stop offset="0.0" stop-color="#e2e2e2"/>
      <stop offset="1.0" stop-color="#e0e0e0"/>
    </radialGradient>
    <radialGradient cx="0" cy="0" gradientTransform="matrix(0.015, 0.0, 0.0, 0.015, -326.85, -173.2)" gradientUnits="userSpaceOnUse" id="gradient5" r="819.2" spreadMethod="pad">
      <stop offset="0.0" stop-color="#e1e1e1"/>
      <stop offset="1.0" stop-color="#dedede"/>
    </radialGradient>
    <radialGradient cx="0" cy="0" gradientTransform="matrix(0.045, 0.0, 0.0, 0.045, -326.85, -173.2)" gradientUnits="userSpaceOnUse" id="gradient6" r="819.2" spreadMethod="pad">
      <stop offset="0.0" stop-color="#767676"/>
      <stop offset="1.0" stop-color="#767676"/>
    </radialGradient>
    <radialGradient cx="0" cy="0" gradientTransform="matrix(0.049, 0.0, 0.0, 0.049, -265.45, -175.8)" gradientUnits="userSpaceOnUse" id="gradient7" r="819.2" spreadMethod="pad">
      <stop offset="0.0" stop-color="#767676"/>
      <stop offset="1.0" stop-color="#767676"/>
    </radialGradient>
    <radialGradient cx="0" cy="0" gradientTransform="matrix(0.0431, 0.0, 0.0, 0.0431, -296.45, -120.05)" gradientUnits="userSpaceOnUse" id="gradient8" r="819.2" spreadMethod="pad">
      <stop offset="0.0" stop-color="#ff5151"/>
      <stop offset="1.0" stop-color="#330000"/>
    </radialGradient>
    <radialGradient cx="0" cy="0" gradientTransform="matrix(0.0417, 0.0, 0.0, 0.0417, -295.8, -119.7)" gradientUnits="userSpaceOnUse" id="gradient9" r="819.2" spreadMethod="pad">
      <stop offset="0.0" stop-color="#ff5151"/>
      <stop offset="1.0" stop-color="#ff4c4c"/>
    </radialGradient>
    <radialGradient cx="0" cy="0" gradientTransform="matrix(0.0456, 0.0, 0.0, 0.0456, -294.45, -113.5)" gradientUnits="userSpaceOnUse" id="gradient10" r="819.2" spreadMethod="pad">
      <stop offset="0.0" stop-color="#f89797"/>
      <stop offset="1.0" stop-color="#753636"/>
    </radialGradient>
    <radialGradient cx="0" cy="0" gradientTransform="matrix(0.0345, 0.0, 0.0, 0.0345, -303.45, -110.0)" gradientUnits="userSpaceOnUse" id="gradient11" r="819.2" spreadMethod="pad">
      <stop offset="0.0" stop-color="#ff3030"/>
      <stop offset="1.0" stop-color="#ff2d2d"/>
    </radialGradient>
    <radialGradient cx="0" cy="0" gradientTransform="matrix(0.0034, 0.0, 0.0, 0.0034, -2.7, -70.05)" gradientUnits="userSpaceOnUse" id="gradient12" r="819.2" spreadMethod="pad">
      <stop offset="0.0" stop-color="#828282"/>
      <stop offset="1.0" stop-color="#191919"/>
    </radialGradient>
    <radialGradient cx="0" cy="0" gradientTransform="matrix(0.0019, 0.0, 0.0, 0.0019, -1.0, -72.7)" gradientUnits="userSpaceOnUse" id="gradient13" r="819.2" spreadMethod="pad">
      <stop offset="0.0" stop-color="#040404"/>
      <stop offset="1.0" stop-color="#040404"/>
    </radialGradient>
    <radialGradient cx="0" cy="0" gradientTransform="matrix(0.0047, 0.0, 0.0, 0.0047, -1.45, -70.5)" gradientUnits="userSpaceOnUse" id="gradient14" r="819.2" spreadMethod="pad">
      <stop offset="0.0" stop-color="#171717"/>
      <stop offset="1.0" stop-color="#171717"/>
    </radialGradient>
    <radialGradient cx="0" cy="0" gradientTransform="matrix(0.0036, 0.0, 0.0, 0.0036, -2.95, -68.05)" gradientUnits="userSpaceOnUse" id="gradient15" r="819.2" spreadMethod="pad">
      <stop offset="0.0" stop-color="#040404"/>
      <stop offset="1.0" stop-color="#040404"/>
    </radialGradient>
    <radialGradient cx="0" cy="0" gradientTransform="matrix(0.0034, 0.0, 0.0, 0.0034, -3.1, -69.65)" gradientUnits="userSpaceOnUse" id="gradient16" r="819.2" spreadMethod="pad">
      <stop offset="0.0" stop-color="#303030"/>
      <stop offset="1.0" stop-color="#2c2c2c"/>
    </radialGradient>
    <radialGradient cx="0" cy="0" gradientTransform="matrix(0.0581, 0.0, 0.0, 0.0581, -307.75, -66.55)" gradientUnits="userSpaceOnUse" id="gradient17" r="819.2" spreadMethod="pad">
      <stop offset="0.0" stop-color="#1a1a1a"/>
      <stop offset="1.0" stop-color="#000000"/>
    </radialGradient>
    <radialGradient cx="0" cy="0" gradientTransform="matrix(0.0235, 0.0, 0.0, 0.0235, -280.5, -73.7)" gradientUnits="userSpaceOnUse" id="gradient18" r="819.2" spreadMethod="pad">
      <stop offset="0.0" stop-color="#797979"/>
      <stop offset="1.0" stop-color="#000000"/>
    </radialGradient>
    <radialGradient cx="0" cy="0" gradientTransform="matrix(0.0788, 0.0, 0.0, 0.0788, -260.1, -64.95)" gradientUnits="userSpaceOnUse" id="gradient19" r="819.2" spreadMethod="pad">
      <stop offset="0.0" stop-color="#101010"/>
      <stop offset="1.0" stop-color="#000000"/>
    </radialGradient>
    <radialGradient cx="0" cy="0" gradientTransform="matrix(0.0872, 0.0, 0.0, 0.0872, -260.1, -72.45)" gradientUnits="userSpaceOnUse" id="gradient20" r="819.2" spreadMethod="pad">
      <stop offset="0.0" stop-color="#1a1a1a"/>
      <stop offset="1.0" stop-color="#141414"/>
    </radialGradient>
    <radialGradient cx="0" cy="0" gradientTransform="matrix(0.0372, 0.0, 0.0, 0.0372, -260.2, -60.15)" gradientUnits="userSpaceOnUse" id="gradient21" r="819.2" spreadMethod="pad">
      <stop offset="0.0" stop-color="#7b7b7b"/>
      <stop offset="1.0" stop-color="#090909"/>
    </radialGradient>
    <radialGradient cx="0" cy="0" gradientTransform="matrix(0.0461, 0.0, 0.0, 0.0461, -269.75, -52.4)" gradientUnits="userSpaceOnUse" id="gradient22" r="819.2" spreadMethod="pad">
      <stop offset="0.0" stop-color="#000000"/>
      <stop offset="1.0" stop-color="#000000"/>
    </radialGradient>
    <radialGradient cx="0" cy="0" gradientTransform="matrix(0.102, 0.0, 0.0, 0.102, -321.4, -45.15)" gradientUnits="userSpaceOnUse" id="gradient23" r="819.2" spreadMethod="pad">
      <stop offset="0.0" stop-color="#000000"/>
      <stop offset="1.0" stop-color="#000000"/>
    </radialGradient>
    <radialGradient cx="0" cy="0" gradientTransform="matrix(0.0168, 0.0, 0.0, 0.0168, -321.4, -45.15)" gradientUnits="userSpaceOnUse" id="gradient24" r="819.2" spreadMethod="pad">
      <stop offset="0.0" stop-color="#000000"/>
      <stop offset="1.0" stop-color="#000000"/>
    </radialGradient>
    <radialGradient cx="0" cy="0" gradientTransform="matrix(0.0126, 0.0, 0.0, 0.0126, -6.3, -46.8)" gradientUnits="userSpaceOnUse" id="gradient25" r="819.2" spreadMethod="pad">
      <stop offset="0.0" stop-color="#313131"/>
      <stop offset="1.0" stop-color="#212121"/>
    </radialGradient>
    <radialGradient cx="0" cy="0" gradientTransform="matrix(0.0104, 0.0, 0.0, 0.0104, -6.1, -44.9)" gradientUnits="userSpaceOnUse" id="gradient26" r="819.2" spreadMethod="pad">
      <stop offset="0.0" stop-color="#040404"/>
      <stop offset="1.0" stop-color="#040404"/>
    </radialGradient>
    <radialGradient cx="0" cy="0" gradientTransform="matrix(0.0059, 0.0, 0.0, 0.0059, -8.15, -49.3)" gradientUnits="userSpaceOnUse" id="gradient27" r="819.2" spreadMethod="pad">
      <stop offset="0.0" stop-color="#262626"/>
      <stop offset="1.0" stop-color="#262626"/>
    </radialGradient>
    <radialGradient cx="0" cy="0" gradientTransform="matrix(0.0064, 0.0, 0.0, 0.0064, -5.75, -46.5)" gradientUnits="userSpaceOnUse" id="gradient28" r="819.2" spreadMethod="pad">
      <stop offset="0.0" stop-color="#030303"/>
      <stop offset="1.0" stop-color="#030303"/>
    </radialGradient>
    <radialGradient cx="0" cy="0" gradientTransform="matrix(0.0602, 0.0, 0.0, 0.0602, -321.4, -45.15)" gradientUnits="userSpaceOnUse" id="gradient29" r="819.2" spreadMethod="pad">
      <stop offset="0.0" stop-color="#000000"/>
      <stop offset="1.0" stop-color="#000000"/>
    </radialGradient>
    <radialGradient cx="0" cy="0" gradientTransform="matrix(0.0345, 0.0, 0.0, 0.0345, -346.8, -39.85)" gradientUnits="userSpaceOnUse" id="gradient30" r="819.2" spreadMethod="pad">
      <stop offset="0.0" stop-color="#000000"/>
      <stop offset="1.0" stop-color="#000000"/>
    </radialGradient>
    <radialGradient cx="0" cy="0" gradientTransform="matrix(0.0432, 0.0, 0.0, 0.0432, -359.2, -1.0)" gradientUnits="userSpaceOnUse" id="gradient31" r="819.2" spreadMethod="pad">
      <stop offset="0.0" stop-color="#080808"/>
      <stop offset="1.0" stop-color="#000000"/>
    </radialGradient>
    <radialGradient cx="0" cy="0" gradientTransform="matrix(0.0823, 0.0, 0.0, 0.0823, -213.8, -1.0)" gradientUnits="userSpaceOnUse" id="gradient32" r="819.2" spreadMethod="pad">
      <stop offset="0.0" stop-color="#262626"/>
      <stop offset="1.0" stop-color="#000000"/>
    </radialGradient>
    <radialGradient cx="0" cy="0" gradientTransform="matrix(0.0697, 0.0, 0.0, 0.0697, -266.05, -43.65)" gradientUnits="userSpaceOnUse" id="gradient33" r="819.2" spreadMethod="pad">
      <stop offset="0.0" stop-color="#000000"/>
      <stop offset="1.0" stop-color="#000000"/>
    </radialGradient>
    <radialGradient cx="0" cy="0" gradientTransform="matrix(0.0841, 0.0, 0.0, 0.0841, -325.05, -43.5)" gradientUnits="userSpaceOnUse" id="gradient34" r="819.2" spreadMethod="pad">
      <stop offset="0.0" stop-color="#010101"/>
      <stop offset="1.0" stop-color="#000000"/>
    </radialGradient>
    <radialGradient cx="0" cy="0" gradientTransform="matrix(0.0709, 0.0, 0.0, 0.0709, -359.2, -1.0)" gradientUnits="userSpaceOnUse" id="gradient35" r="819.2" spreadMethod="pad">
      <stop offset="0.0" stop-color="#080808"/>
      <stop offset="1.0" stop-color="#000000"/>
    </radialGradient>
    <radialGradient cx="0" cy="0" gradientTransform="matrix(0.0574, 0.0, 0.0, 0.0574, -219.35, -38.0)" gradientUnits="userSpaceOnUse" id="gradient36" r="819.2" spreadMethod="pad">
      <stop offset="0.0" stop-color="#000000"/>
      <stop offset="1.0" stop-color="#000000"/>
    </radialGradient>
    <radialGradient cx="0" cy="0" gradientTransform="matrix(0.0274, 0.0, 0.0, 0.0274, -215.05, -16.0)" gradientUnits="userSpaceOnUse" id="gradient37" r="819.2" spreadMethod="pad">
      <stop offset="0.0" stop-color="#000000"/>
      <stop offset="1.0" stop-color="#000000"/>
    </radialGradient>
    <radialGradient cx="0" cy="0" gradientTransform="matrix(0.0611, 0.0, 0.0, 0.0611, -213.8, -1.0)" gradientUnits="userSpaceOnUse" id="gradient38" r="819.2" spreadMethod="pad">
      <stop offset="0.0" stop-color="#262626"/>
      <stop offset="1.0" stop-color="#060606"/>
    </radialGradient>
    <radialGradient cx="0" cy="0" gradientTransform="matrix(0.0452, 0.0, 0.0, 0.0452, -372.75, -28.65)" gradientUnits="userSpaceOnUse" id="gradient39" r="819.2" spreadMethod="pad">
      <stop offset="0.0" stop-color="#000000"/>
      <stop offset="1.0" stop-color="#000000"/>
    </radialGradient>
    <radialGradient cx="0" cy="0" gradientTransform="matrix(0.0439, 0.0, 0.0, 0.0439, -364.95, -31.9)" gradientUnits="userSpaceOnUse" id="gradient40" r="819.2" spreadMethod="pad">
      <stop offset="0.0" stop-color="#0d0d0d"/>
      <stop offset="1.0" stop-color="#000000"/>
    </radialGradient>
    <radialGradient cx="0" cy="0" gradientTransform="matrix(0.057, 0.0, 0.0, 0.057, -364.95, -31.9)" gradientUnits="userSpaceOnUse" id="gradient41" r="819.2" spreadMethod="pad">
      <stop offset="0.0" stop-color="#0d0d0d"/>
      <stop offset="1.0" stop-color="#000000"/>
    </radialGradient>
    <radialGradient cx="0" cy="0" gradientTransform="matrix(0.0672, 0.0, 0.0, 0.0672, -193.9, -23.85)" gradientUnits="userSpaceOnUse" id="gradient42" r="819.2" spreadMethod="pad">
      <stop offset="0.0" stop-color="#000000"/>
      <stop offset="1.0" stop-color="#000000"/>
    </radialGradient>
    <radialGradient cx="0" cy="0" gradientTransform="matrix(0.0345, 0.0, 0.0, 0.0345, -1.0, -13.55)" gradientUnits="userSpaceOnUse" id="gradient43" r="819.2" spreadMethod="pad">
      <stop offset="0.0" stop-color="#171717"/>
      <stop offset="1.0" stop-color="#070707"/>
    </radialGradient>
  </defs>
</svg>
