<?xml version="1.0" encoding="UTF-8" standalone="no"?>
<svg xmlns:xlink="http://www.w3.org/1999/xlink" height="258.1px" width="399.1px" xmlns="http://www.w3.org/2000/svg">
  <g transform="matrix(1.0, 0.0, 0.0, 1.0, 400.0, 259.0)">
    <path d="M-383.15 -85.9 L-379.15 -78.15 -379.25 -77.65 -386.65 -90.15 -395.4 -108.9 -400.0 -133.65 -399.5 -160.65 -394.0 -183.15 -387.0 -197.25 -375.9 -214.65 -362.25 -230.15 -344.9 -242.25 -324.75 -250.4 -309.4 -255.25 -288.15 -259.0 -265.25 -258.25 -242.4 -252.4 -223.9 -243.65 -205.4 -229.9 -191.25 -214.15 -186.9 -207.9 -176.4 -190.0 -169.75 -169.9 -168.15 -159.15 -167.5 -149.65 -167.5 -134.0 -168.0 -128.5 -174.25 -104.25 -184.75 -83.15 -197.25 -66.9 -212.0 -54.15 -213.9 -52.9 -209.5 -58.15 -202.5 -65.5 -197.65 -80.75 -208.15 -77.75 -209.5 -84.75 -213.0 -103.4 -239.9 -135.5 -258.9 -169.15 -259.75 -170.65 -267.0 -183.5 -264.65 -203.0 -262.15 -224.0 -262.4 -224.15 -277.75 -206.75 -281.15 -202.25 -294.5 -185.4 -292.25 -201.75 -288.25 -228.9 -292.75 -237.25 -301.5 -254.25 -301.9 -254.15 -314.25 -244.15 -338.0 -225.9 -344.4 -215.0 -353.5 -200.15 -359.65 -190.75 -367.0 -179.25 -367.65 -178.9 -367.65 -178.4 -367.4 -177.65 -368.15 -130.4 -368.65 -130.9 -375.9 -151.25 -376.15 -151.75 -376.15 -152.75 -378.25 -157.9 -383.4 -173.15 -383.75 -173.0 -389.5 -149.0 -395.0 -132.4 -394.5 -116.65 -389.75 -102.75 -389.0 -99.25 -386.5 -91.9 -383.15 -85.9 M-202.9 -94.5 L-207.75 -78.65 -207.5 -78.25 -191.65 -93.9 -191.15 -94.0 -200.65 -98.0 -201.75 -98.4 -202.9 -94.5" fill="url(#gradient0)" fill-rule="evenodd" stroke="none"/>
    <path d="M-213.9 -52.9 L-220.25 -55.9 -224.75 -60.0 -225.25 -60.0 -238.4 -48.5 -243.5 -55.15 -261.75 -53.5 Q-227.4 -61.4 -209.5 -84.75 L-208.15 -77.75 -197.65 -80.75 -202.5 -65.5 -209.5 -58.15 -213.9 -52.9 M-313.4 -56.65 L-333.75 -51.75 -364.0 -63.5 -375.15 -80.0 -375.25 -76.75 -383.15 -85.9 -386.5 -91.9 -389.0 -99.25 -389.75 -102.75 -394.5 -116.65 -395.0 -132.4 -389.5 -149.0 -383.75 -173.0 -383.4 -173.15 -378.25 -157.9 -376.15 -152.75 -376.15 -151.75 -375.9 -151.25 -376.25 -134.75 -373.4 -120.15 -372.25 -116.0 -365.9 -101.4 -365.25 -100.65 -365.25 -100.0 -353.5 -83.75 -339.9 -71.15 -336.15 -68.25 -335.9 -68.0 -320.9 -59.15 -313.4 -56.65 M-344.4 -215.0 L-338.0 -225.9 -314.25 -244.15 -301.9 -254.15 -301.5 -254.25 -292.75 -237.25 -308.65 -234.9 -335.4 -222.15 -344.4 -215.0 M-200.65 -98.0 L-191.15 -94.0 -191.65 -93.9 -207.5 -78.25 -207.75 -78.65 -202.9 -94.5 -200.65 -98.0" fill="url(#gradient1)" fill-rule="evenodd" stroke="none"/>
    <path d="M-261.75 -53.5 L-262.4 -53.5 -262.5 -53.75 -264.75 -54.9 -268.4 -55.5 -274.0 -56.75 -273.25 -55.65 -276.25 -56.0 -280.0 -57.15 -283.15 -56.9 -296.0 -57.4 -300.25 -57.15 -305.25 -57.65 Q-305.65 -56.9 -310.0 -56.25 L-310.15 -55.65 -313.4 -56.65 -320.9 -59.15 -335.9 -68.0 -336.15 -68.25 -339.9 -71.15 -353.5 -83.75 -365.25 -100.0 -365.25 -100.65 -365.9 -101.4 -372.25 -116.0 -373.4 -120.15 -376.25 -134.75 -375.9 -151.25 -368.65 -130.9 -368.15 -130.4 -367.4 -177.65 -367.65 -178.4 -367.65 -178.9 -367.0 -179.25 -359.65 -190.75 -362.15 -170.15 -362.15 -169.65 -361.0 -168.9 -360.75 -168.65 -360.65 -168.65 -358.75 -167.25 -358.65 -167.25 -358.4 -167.0 -358.15 -166.9 -357.15 -166.15 -319.5 -167.15 -310.75 -174.75 -308.9 -176.15 -308.0 -175.4 -299.4 -168.9 -298.9 -168.4 -298.0 -167.65 -258.9 -169.15 -239.9 -135.5 -213.0 -103.4 -209.5 -84.75 Q-227.4 -61.4 -261.75 -53.5 M-353.5 -200.15 L-344.4 -215.0 -335.4 -222.15 -308.65 -234.9 -292.75 -237.25 -288.25 -228.9 -292.25 -201.75 -302.4 -201.0 -308.9 -195.5 -316.5 -200.65 -322.5 -201.25 -353.5 -200.15 M-281.15 -202.25 L-277.75 -206.75 -262.4 -224.15 -262.15 -224.0 -264.65 -203.0 -281.15 -202.25 M-327.65 -111.75 L-328.4 -111.25 Q-321.5 -104.65 -305.75 -103.15 L-298.5 -104.9 -290.25 -108.4 -286.0 -112.4 -306.0 -112.15 -309.75 -111.75 -313.5 -112.0 -327.65 -111.75 M-301.75 -119.75 L-306.4 -119.25 -309.0 -118.4 -313.25 -119.25 Q-315.5 -119.65 -318.4 -118.65 L-328.0 -113.15 -287.0 -114.0 -292.25 -116.15 -294.65 -117.65 -297.4 -118.75 -301.75 -119.75 M-200.65 -98.0 L-202.9 -94.5 -201.75 -98.4 -200.65 -98.0" fill="url(#gradient2)" fill-rule="evenodd" stroke="none"/>
    <path d="M-359.65 -190.75 L-353.5 -200.15 -322.5 -201.25 -316.5 -200.65 -308.9 -195.5 -302.4 -201.0 -292.25 -201.75 -294.5 -185.4 -281.15 -202.25 -264.65 -203.0 -267.0 -183.5 -259.75 -170.65 -299.5 -169.15 -308.5 -176.0 -308.9 -176.15 -310.75 -177.65 -312.4 -176.15 -321.15 -168.65 -358.9 -167.5 -360.65 -168.65 -360.75 -168.65 -361.0 -168.9 -362.15 -169.65 -362.15 -170.15 -359.65 -190.75" fill="url(#gradient3)" fill-rule="evenodd" stroke="none"/>
    <path d="M-310.75 -174.75 L-312.4 -176.15 -310.75 -177.65 -308.9 -176.15 -310.75 -174.75" fill="url(#gradient4)" fill-rule="evenodd" stroke="none"/>
    <path d="M-319.5 -167.15 L-321.15 -168.65 -312.4 -176.15 -310.75 -174.75 -319.5 -167.15" fill="url(#gradient5)" fill-rule="evenodd" stroke="none"/>
    <path d="M-321.15 -168.65 L-319.5 -167.15 -357.15 -166.15 -358.15 -166.9 -358.4 -167.0 -358.65 -167.25 -358.75 -167.25 -358.9 -167.5 -321.15 -168.65" fill="url(#gradient6)" fill-rule="evenodd" stroke="none"/>
    <path d="M-358.9 -167.5 L-358.75 -167.25 -360.65 -168.65 -358.9 -167.5" fill="url(#gradient7)" fill-rule="evenodd" stroke="none"/>
    <path d="M-259.75 -170.65 L-258.9 -169.15 -298.0 -167.65 -298.9 -168.4 -299.4 -168.9 -299.5 -169.15 -259.75 -170.65" fill="url(#gradient8)" fill-rule="evenodd" stroke="none"/>
    <path d="M-308.5 -176.0 L-308.0 -175.4 -308.9 -176.15 -308.5 -176.0" fill="url(#gradient9)" fill-rule="evenodd" stroke="none"/>
    <path d="M-299.5 -169.15 L-299.4 -168.9 -308.0 -175.4 -308.5 -176.0 -299.5 -169.15" fill="url(#gradient10)" fill-rule="evenodd" stroke="none"/>
    <path d="M-321.5 -115.9 L-323.75 -114.9 -324.25 -114.25 -326.4 -113.4 -326.0 -113.25 -289.65 -114.25 -297.25 -117.9 -301.4 -119.0 Q-305.0 -119.5 -309.25 -117.65 L-314.25 -118.65 -318.65 -117.9 -321.5 -115.9 M-301.75 -119.75 L-297.4 -118.75 -294.65 -117.65 -292.25 -116.15 -287.0 -114.0 -328.0 -113.15 -318.4 -118.65 Q-315.5 -119.65 -313.25 -119.25 L-309.0 -118.4 -306.4 -119.25 -301.75 -119.75" fill="url(#gradient11)" fill-rule="evenodd" stroke="none"/>
    <path d="M-321.5 -115.9 L-318.65 -117.9 -314.25 -118.65 -309.25 -117.65 Q-305.0 -119.5 -301.4 -119.0 L-297.25 -117.9 -289.65 -114.25 -326.0 -113.25 -326.4 -113.4 -324.25 -114.25 -323.75 -114.9 -321.5 -115.9" fill="url(#gradient12)" fill-rule="evenodd" stroke="none"/>
    <path d="M-327.65 -111.75 L-313.5 -112.0 -309.75 -111.75 -306.0 -112.15 -286.0 -112.4 -290.25 -108.4 -298.5 -104.9 -305.75 -103.15 Q-321.5 -104.65 -328.4 -111.25 L-327.65 -111.75 M-306.4 -103.5 Q-290.0 -107.15 -287.65 -111.75 L-327.75 -110.9 Q-317.75 -104.15 -306.4 -103.5" fill="url(#gradient13)" fill-rule="evenodd" stroke="none"/>
    <path d="M-306.4 -103.5 Q-317.75 -104.15 -327.75 -110.9 L-287.65 -111.75 Q-290.0 -107.15 -306.4 -103.5" fill="url(#gradient14)" fill-rule="evenodd" stroke="none"/>
    <path d="M-0.9 -65.4 L-1.4 -65.4 -1.15 -65.75 -0.9 -65.4" fill="url(#gradient15)" fill-rule="evenodd" stroke="none"/>
    <path d="M-1.4 -65.4 L-0.9 -65.4 -0.9 -64.65 -2.4 -64.9 -1.4 -65.4" fill="url(#gradient16)" fill-rule="evenodd" stroke="none"/>
    <path d="M-2.4 -64.9 L-0.9 -64.65 -0.9 -63.5 -4.25 -62.65 -4.65 -62.65 -7.15 -63.4 -2.4 -64.9" fill="url(#gradient17)" fill-rule="evenodd" stroke="none"/>
    <path d="M-7.0 -62.15 L-10.0 -62.9 -9.65 -63.4 -7.15 -63.4 -4.65 -62.65 -6.5 -62.65 -7.0 -62.15 M-8.75 -61.25 L-9.15 -61.25 -9.15 -61.65 -8.75 -61.25" fill="url(#gradient18)" fill-rule="evenodd" stroke="none"/>
    <path d="M-7.0 -62.15 L-7.0 -62.0 -7.5 -61.5 -7.4 -61.0 -7.25 -60.5 -7.0 -60.25 -6.75 -60.0 -6.3 -59.6 Q-3.45 -57.2 -0.9 -54.4 L-0.9 -52.75 -2.25 -53.0 -2.15 -53.15 -2.25 -53.15 -10.4 -61.5 -10.5 -62.5 -10.0 -62.9 -7.0 -62.15 M-8.75 -61.25 L-9.15 -61.65 -9.15 -61.25 -8.75 -61.25" fill="url(#gradient19)" fill-rule="evenodd" stroke="none"/>
    <path d="M-2.25 -53.15 L-2.15 -53.15 -2.25 -53.0 -2.25 -53.15" fill="url(#gradient20)" fill-rule="evenodd" stroke="none"/>
    <path d="M-7.4 -61.0 L-7.5 -61.5 -7.0 -62.0 -7.0 -62.15 -6.5 -62.25 -6.75 -61.5 -6.25 -62.0 -7.0 -60.25 -7.25 -60.5 -7.0 -61.5 -7.4 -61.0 M-0.9 -54.4 Q-3.45 -57.2 -6.3 -59.6 -5.5 -59.35 -3.65 -60.0 L-5.5 -60.0 -3.4 -60.4 -6.65 -60.25 -5.9 -60.4 -6.5 -60.65 -3.9 -60.65 -3.65 -60.9 -4.9 -60.75 -4.15 -61.0 -4.75 -61.0 -3.9 -61.4 -4.25 -62.0 -3.4 -61.75 -3.9 -61.4 -3.9 -61.1 -3.75 -61.15 -3.15 -61.15 -3.65 -60.65 -2.9 -60.5 -3.25 -60.15 -2.75 -60.15 -3.25 -59.75 -3.0 -59.65 -2.5 -60.0 -2.75 -61.4 -2.25 -61.4 -2.15 -61.0 -1.65 -61.25 -2.5 -62.4 -0.9 -62.4 -4.25 -62.65 -0.9 -63.5 -0.9 -62.4 -0.9 -54.4 M-6.0 -62.15 L-6.4 -62.25 -5.9 -62.4 -6.0 -62.15 M-5.65 -61.9 L-5.75 -62.25 -5.4 -62.4 -5.65 -61.9 M-4.0 -62.15 L-4.25 -62.25 -3.9 -62.4 -4.0 -62.15 M-3.25 -61.65 L-2.5 -62.0 -2.65 -61.5 -3.25 -61.65 M-1.15 -60.5 L-1.15 -60.9 -1.5 -60.9 -1.15 -60.5 M-2.25 -59.25 L-2.5 -59.5 -2.75 -59.25 -2.25 -59.25 M-4.65 -58.9 L-4.25 -59.25 -5.65 -59.15 -4.65 -58.9 M-2.5 -61.65 L-2.4 -61.9 -2.25 -61.5 -2.5 -61.65 M-2.15 -58.0 L-2.5 -57.75 -1.75 -57.5 -1.75 -58.0 -1.4 -58.15 -2.0 -58.15 -2.25 -58.75 -4.75 -58.65 -4.4 -58.25 -2.25 -58.5 -2.65 -58.15 -2.15 -58.0 M-2.15 -56.65 Q-1.8 -56.75 -1.5 -56.9 L-1.5 -57.25 -2.5 -57.0 -2.15 -56.65" fill="url(#gradient21)" fill-rule="evenodd" stroke="none"/>
    <path d="M-7.4 -61.0 L-7.0 -61.5 -7.25 -60.5 -7.4 -61.0 M-7.0 -60.25 L-6.25 -62.0 -6.75 -61.5 -6.5 -62.25 -7.0 -62.15 -6.5 -62.65 -4.65 -62.65 -4.25 -62.65 -0.9 -62.4 -2.5 -62.4 -1.65 -61.25 -2.15 -61.0 -2.25 -61.4 -2.75 -61.4 -2.5 -60.0 -3.0 -59.65 -3.25 -59.75 -2.75 -60.15 -3.25 -60.15 -2.9 -60.5 -3.65 -60.65 -3.15 -61.15 -3.75 -61.15 -3.9 -61.1 -3.9 -61.4 -3.4 -61.75 -4.25 -62.0 -3.9 -61.4 -4.75 -61.0 -4.15 -61.0 -4.9 -60.75 -3.65 -60.9 -3.9 -60.65 -6.5 -60.65 -5.9 -60.4 -6.65 -60.25 -3.4 -60.4 -5.5 -60.0 -3.65 -60.0 Q-5.5 -59.35 -6.3 -59.6 L-6.75 -60.0 -7.0 -60.25 M-5.65 -61.9 L-5.4 -62.4 -5.75 -62.25 -5.65 -61.9 M-6.0 -62.15 L-5.9 -62.4 -6.4 -62.25 -6.0 -62.15 M-3.25 -61.65 L-2.65 -61.5 -2.5 -62.0 -3.25 -61.65 M-4.0 -62.15 L-3.9 -62.4 -4.25 -62.25 -4.0 -62.15 M-4.65 -58.9 L-5.65 -59.15 -4.25 -59.25 -4.65 -58.9 M-2.25 -59.25 L-2.75 -59.25 -2.5 -59.5 -2.25 -59.25 M-1.15 -60.5 L-1.5 -60.9 -1.15 -60.9 -1.15 -60.5 M-2.5 -61.65 L-2.25 -61.5 -2.4 -61.9 -2.5 -61.65 M-2.15 -58.0 L-2.65 -58.15 -2.25 -58.5 -4.4 -58.25 -4.75 -58.65 -2.25 -58.75 -2.0 -58.15 -1.4 -58.15 -1.75 -58.0 -1.75 -57.5 -2.5 -57.75 -2.15 -58.0 M-2.15 -56.65 L-2.5 -57.0 -1.5 -57.25 -1.5 -56.9 Q-1.8 -56.75 -2.15 -56.65" fill="url(#gradient22)" fill-rule="evenodd" stroke="none"/>
    <path d="M-317.25 -39.9 L-317.0 -40.15 -312.4 -44.15 -310.4 -52.15 -310.15 -55.65 -310.0 -56.25 Q-305.65 -56.9 -305.25 -57.65 L-300.25 -57.15 -296.0 -57.4 -283.15 -56.9 -280.0 -57.15 -276.25 -56.0 -273.25 -55.65 -269.4 -50.5 -269.4 -48.25 -270.5 -44.0 -265.65 -36.5 -279.5 -39.0 -317.9 -39.25 -317.25 -39.9" fill="url(#gradient23)" fill-rule="evenodd" stroke="none"/>
    <path d="M-273.25 -55.65 L-274.0 -56.75 -268.4 -55.5 -269.4 -50.5 -273.25 -55.65" fill="url(#gradient24)" fill-rule="evenodd" stroke="none"/>
    <path d="M-262.4 -53.25 L-262.4 -52.15 -262.5 -51.4 -262.75 -50.75 -264.15 -51.4 Q-262.15 -43.4 -264.65 -42.65 L-268.25 -43.9 -269.4 -48.25 -269.4 -50.5 -268.4 -55.5 -264.75 -54.9 -262.5 -53.75 -262.4 -53.25" fill="url(#gradient25)" fill-rule="evenodd" stroke="none"/>
    <path d="M-262.4 -53.5 L-262.4 -53.25 -262.5 -53.75 -262.4 -53.5 M-262.75 -50.75 L-262.5 -51.4 -262.5 -50.4 -262.75 -50.75" fill="url(#gradient26)" fill-rule="evenodd" stroke="none"/>
    <path d="M-2.25 -53.0 L-0.9 -52.75 -1.0 -49.5 -2.15 -49.75 -2.25 -49.75 -2.25 -53.0" fill="url(#gradient27)" fill-rule="evenodd" stroke="none"/>
    <path d="M-2.25 -49.75 L-2.15 -49.75 -1.0 -49.5 -0.9 -49.4 -0.9 -47.0 -5.9 -43.9 Q-9.5 -41.25 -10.25 -39.15 L-13.0 -40.5 Q-13.15 -42.9 -2.25 -49.75" fill="url(#gradient28)" fill-rule="evenodd" stroke="none"/>
    <path d="M-10.0 -37.65 L-12.5 -39.0 -13.0 -40.5 -10.25 -39.15 -10.0 -37.65" fill="url(#gradient29)" fill-rule="evenodd" stroke="none"/>
    <path d="M-9.4 -37.65 L-10.0 -37.65 -10.25 -39.15 Q-9.5 -41.25 -5.9 -43.9 L-0.9 -47.0 -0.9 -42.65 -6.5 -41.0 -8.75 -39.9 -9.75 -39.0 -9.4 -37.65" fill="url(#gradient30)" fill-rule="evenodd" stroke="none"/>
    <path d="M-262.4 -52.15 L-261.15 -42.5 -256.4 -39.0 -270.5 -44.0 -269.4 -48.25 -268.25 -43.9 -264.65 -42.65 Q-262.15 -43.4 -264.15 -51.4 L-262.75 -50.75 -262.5 -50.4 -262.5 -51.4 -262.4 -52.15" fill="url(#gradient31)" fill-rule="evenodd" stroke="none"/>
    <path d="M-256.4 -39.0 L-244.65 -34.5 -263.4 -36.25 -263.75 -36.25 -264.25 -36.4 -265.4 -36.5 -265.65 -36.5 -270.5 -44.0 -256.4 -39.0" fill="url(#gradient32)" fill-rule="evenodd" stroke="none"/>
    <path d="M-251.65 -0.9 L-346.75 -0.9 -325.0 -33.9 -323.4 -33.9 -323.0 -34.4 -322.25 -36.25 -323.5 -36.15 -322.9 -37.25 -322.75 -37.5 -321.25 -38.15 -317.9 -39.25 -279.5 -39.0 -265.65 -36.5 -265.25 -35.75 -266.4 -35.65 -264.65 -33.9 -251.65 -0.9" fill="url(#gradient33)" fill-rule="evenodd" stroke="none"/>
    <path d="M-321.25 -38.15 L-317.25 -39.9 -317.9 -39.25 -321.25 -38.15" fill="url(#gradient34)" fill-rule="evenodd" stroke="none"/>
    <path d="M-0.9 -42.65 L-1.15 -40.15 -1.5 -40.0 -1.75 -40.0 -2.25 -39.9 -3.4 -39.5 -3.5 -39.4 -9.4 -37.65 -9.75 -39.0 -8.75 -39.9 -6.5 -41.0 -0.9 -42.65" fill="url(#gradient35)" fill-rule="evenodd" stroke="none"/>
    <path d="M-325.0 -37.0 L-324.75 -37.0 -324.5 -37.15 -324.25 -37.15 -322.75 -37.5 -322.9 -37.25 -324.65 -36.0 -326.4 -35.9 -326.4 -34.75 -364.25 -7.15 -357.5 -27.5 -325.0 -37.0" fill="url(#gradient36)" fill-rule="evenodd" stroke="none"/>
    <path d="M-368.75 -23.25 L-351.65 -30.4 -325.0 -37.0 -357.5 -27.5 -368.75 -23.25" fill="url(#gradient37)" fill-rule="evenodd" stroke="none"/>
    <path d="M-363.75 -0.9 L-381.65 -0.9 -377.25 -19.65 -372.15 -21.9 -371.75 -22.15 -371.4 -22.25 -371.15 -22.4 -370.75 -22.5 -368.9 -23.25 -368.75 -23.25 -357.5 -27.5 -364.25 -7.15 -363.75 -0.9" fill="url(#gradient38)" fill-rule="evenodd" stroke="none"/>
    <path d="M-346.75 -0.9 L-363.75 -0.9 -364.25 -7.15 -326.4 -34.75 -325.0 -33.9 -346.75 -0.9 M-322.9 -37.25 L-323.5 -36.15 -324.65 -36.0 -322.9 -37.25" fill="url(#gradient39)" fill-rule="evenodd" stroke="none"/>
    <path d="M-265.25 -35.75 L-264.65 -35.65 -261.0 -35.4 -262.5 -35.0 -263.15 -33.9 -264.65 -33.9 -266.4 -35.65 -265.25 -35.75 M-323.5 -36.15 L-322.25 -36.25 -323.0 -34.4 -323.4 -33.9 -325.0 -33.9 -326.4 -34.75 -326.4 -35.9 -324.65 -36.0 -323.5 -36.15" fill="url(#gradient40)" fill-rule="evenodd" stroke="none"/>
    <path d="M-213.65 -0.9 L-233.5 -0.9 -263.15 -33.9 -262.5 -35.0 -261.0 -35.4 -264.65 -35.65 -265.25 -35.75 -265.65 -36.5 -265.4 -36.5 -264.25 -36.4 -263.75 -36.25 -263.4 -36.25 -219.25 -30.25 -219.15 -29.75 -214.4 -8.75 -213.65 -0.9" fill="url(#gradient41)" fill-rule="evenodd" stroke="none"/>
    <path d="M-244.65 -34.5 L-216.75 -31.9 -215.25 -31.15 -193.4 -15.4 -194.25 -15.5 -196.15 -9.5 -219.15 -29.75 -219.25 -30.25 -263.4 -36.25 -244.65 -34.5" fill="url(#gradient42)" fill-rule="evenodd" stroke="none"/>
    <path d="M-214.4 -8.75 L-219.15 -29.75 -196.15 -9.5 -214.4 -8.75" fill="url(#gradient43)" fill-rule="evenodd" stroke="none"/>
    <path d="M-177.65 -0.9 L-213.65 -0.9 -214.4 -8.75 -196.15 -9.5 -177.65 -0.9" fill="url(#gradient44)" fill-rule="evenodd" stroke="none"/>
    <path d="M-233.5 -0.9 L-251.65 -0.9 -264.65 -33.9 -263.15 -33.9 -233.5 -0.9" fill="url(#gradient45)" fill-rule="evenodd" stroke="none"/>
    <path d="M-193.4 -15.4 L-162.0 -1.0 -177.65 -0.9 -196.15 -9.5 -194.25 -15.5 -193.4 -15.4" fill="url(#gradient46)" fill-rule="evenodd" stroke="none"/>
    <path d="M-381.65 -0.9 L-392.65 -0.9 -392.4 -1.4 -380.0 -16.4 -379.75 -16.75 -377.25 -19.65 -381.65 -0.9" fill="url(#gradient47)" fill-rule="evenodd" stroke="none"/>
    <path d="M-392.65 -0.9 L-400.0 -0.9 -400.0 -4.75 -397.15 -6.75 -380.0 -16.4 -392.4 -1.4 -392.65 -0.9" fill="url(#gradient48)" fill-rule="evenodd" stroke="none"/>
    <path d="M-0.9 -8.4 L-0.9 -0.9 -15.5 -0.9 -1.25 -8.4 -0.9 -8.4" fill="url(#gradient49)" fill-rule="evenodd" stroke="none"/>
    <path d="M-253.4 -49.0 L-253.9 -48.5 -253.5 -46.75 -253.25 -45.5 -253.25 -45.4 -261.25 -43.9 -261.65 -46.15 -261.75 -46.5 -262.0 -48.65 -262.0 -49.15 -253.4 -49.0 M-333.65 -49.7 L-333.15 -49.65 -333.25 -49.65 -333.65 -49.7" fill="#ab0000" fill-rule="evenodd" stroke="none"/>
    <path d="M-311.65 -47.5 L-312.0 -46.0 -330.0 -49.65 Q-323.0 -51.0 -311.65 -47.5 M-253.5 -46.75 L-253.9 -48.5 -253.4 -49.0 -253.15 -47.25 -253.5 -46.75 M-261.25 -43.9 L-253.25 -45.4 -251.75 -37.25 -256.4 -39.0 -261.0 -42.4 -261.25 -42.5 -261.25 -43.9 M-333.25 -49.65 L-342.0 -35.75 -342.65 -32.75 -342.65 -32.65 -352.4 -30.0 -351.0 -35.65 -342.0 -49.15 -339.15 -49.5 -338.4 -49.4 -336.75 -49.65 -335.25 -49.5 -334.4 -49.75 -333.8 -49.7 -333.65 -49.7 -333.25 -49.65" fill="#ab0000" fill-opacity="0.9098039" fill-rule="evenodd" stroke="none"/>
    <path d="M-262.0 -49.15 L-262.0 -48.65 -261.75 -46.5 -261.65 -46.15 -261.25 -43.9 -261.25 -42.5 -261.0 -42.4 -256.4 -39.0 -251.75 -37.25 -251.5 -37.0 -252.0 -26.4 -251.9 -26.15 -252.25 -21.9 -252.15 -21.4 -253.15 -5.0 -253.0 -4.0 -253.75 -0.9 -264.15 -0.9 -263.0 -6.5 -262.5 -13.15 -262.65 -13.75 -261.65 -23.4 -261.75 -24.75 -261.5 -25.9 -261.65 -26.9 -261.15 -31.4 -261.25 -31.9 -261.0 -33.0 -261.15 -33.25 -261.0 -34.0 -261.0 -35.25 -260.9 -35.9 -261.15 -36.15 -263.25 -41.4 -264.4 -43.5 -264.5 -44.15 -265.15 -45.25 -265.25 -46.15 -266.5 -48.5 -264.15 -48.9 -263.9 -49.0 -263.15 -49.0 -262.0 -49.15 M-342.65 -32.65 L-345.15 -21.15 -345.4 -20.75 -345.25 -20.5 -348.25 -7.0 -351.5 -0.9 -361.25 -0.9 -358.0 -6.75 -356.75 -12.4 -356.65 -12.65 -352.65 -28.65 -352.75 -28.9 -352.5 -29.15 -352.4 -29.65 -352.5 -29.9 -352.4 -30.0 -342.65 -32.65" fill="#9b0000" fill-opacity="0.9098039" fill-rule="evenodd" stroke="none"/>
  </g>
  <defs>
    <radialGradient cx="0" cy="0" gradientTransform="matrix(0.2555, 0.0, 0.0, 0.2555, -376.1, -152.35)" gradientUnits="userSpaceOnUse" id="gradient0" r="819.2" spreadMethod="pad">
      <stop offset="0.0" stop-color="#494949"/>
      <stop offset="1.0" stop-color="#222222"/>
    </radialGradient>
    <radialGradient cx="0" cy="0" gradientTransform="matrix(0.2565, 0.0, 0.0, 0.2565, -204.5, -93.0)" gradientUnits="userSpaceOnUse" id="gradient1" r="819.2" spreadMethod="pad">
      <stop offset="0.0" stop-color="#555555"/>
      <stop offset="1.0" stop-color="#161616"/>
    </radialGradient>
    <radialGradient cx="0" cy="0" gradientTransform="matrix(0.216, 0.0, 0.0, 0.216, -372.6, -117.15)" gradientUnits="userSpaceOnUse" id="gradient2" r="819.2" spreadMethod="pad">
      <stop offset="0.0" stop-color="#7e7e7e"/>
      <stop offset="1.0" stop-color="#000000"/>
    </radialGradient>
    <radialGradient cx="0" cy="0" gradientTransform="matrix(0.1337, 0.0, 0.0, 0.1337, -362.1, -169.75)" gradientUnits="userSpaceOnUse" id="gradient3" r="819.2" spreadMethod="pad">
      <stop offset="0.0" stop-color="#767676"/>
      <stop offset="1.0" stop-color="#767676"/>
    </radialGradient>
    <radialGradient cx="0" cy="0" gradientTransform="matrix(0.0041, 0.0, 0.0, 0.0041, -312.35, -176.25)" gradientUnits="userSpaceOnUse" id="gradient4" r="819.2" spreadMethod="pad">
      <stop offset="0.0" stop-color="#e2e2e2"/>
      <stop offset="1.0" stop-color="#e0e0e0"/>
    </radialGradient>
    <radialGradient cx="0" cy="0" gradientTransform="matrix(0.0145, 0.0, 0.0, 0.0145, -321.0, -168.7)" gradientUnits="userSpaceOnUse" id="gradient5" r="819.2" spreadMethod="pad">
      <stop offset="0.0" stop-color="#e1e1e1"/>
      <stop offset="1.0" stop-color="#dedede"/>
    </radialGradient>
    <radialGradient cx="0" cy="0" gradientTransform="matrix(0.0462, 0.0, 0.0, 0.0462, -321.0, -168.7)" gradientUnits="userSpaceOnUse" id="gradient6" r="819.2" spreadMethod="pad">
      <stop offset="0.0" stop-color="#767676"/>
      <stop offset="1.0" stop-color="#767676"/>
    </radialGradient>
    <radialGradient cx="0" cy="0" gradientTransform="matrix(0.0047, 0.0, 0.0, 0.0047, -358.85, -167.6)" gradientUnits="userSpaceOnUse" id="gradient7" r="819.2" spreadMethod="pad">
      <stop offset="0.0" stop-color="#838383"/>
      <stop offset="1.0" stop-color="#838383"/>
    </radialGradient>
    <radialGradient cx="0" cy="0" gradientTransform="matrix(0.0495, 0.0, 0.0, 0.0495, -258.75, -170.8)" gradientUnits="userSpaceOnUse" id="gradient8" r="819.2" spreadMethod="pad">
      <stop offset="0.0" stop-color="#767676"/>
      <stop offset="1.0" stop-color="#767676"/>
    </radialGradient>
    <radialGradient cx="0" cy="0" gradientTransform="matrix(0.0027, 0.0, 0.0, 0.0027, -308.75, -176.4)" gradientUnits="userSpaceOnUse" id="gradient9" r="819.2" spreadMethod="pad">
      <stop offset="0.0" stop-color="#8c8c8c"/>
      <stop offset="1.0" stop-color="#8c8c8c"/>
    </radialGradient>
    <radialGradient cx="0" cy="0" gradientTransform="matrix(0.0144, 0.0, 0.0, 0.0144, -299.35, -169.2)" gradientUnits="userSpaceOnUse" id="gradient10" r="819.2" spreadMethod="pad">
      <stop offset="0.0" stop-color="#8b8b8b"/>
      <stop offset="1.0" stop-color="#8b8b8b"/>
    </radialGradient>
    <radialGradient cx="0" cy="0" gradientTransform="matrix(0.0443, 0.0, 0.0, 0.0443, -292.0, -115.4)" gradientUnits="userSpaceOnUse" id="gradient11" r="819.2" spreadMethod="pad">
      <stop offset="0.0" stop-color="#ff5151"/>
      <stop offset="1.0" stop-color="#330000"/>
    </radialGradient>
    <radialGradient cx="0" cy="0" gradientTransform="matrix(0.0427, 0.0, 0.0, 0.0427, -291.35, -115.05)" gradientUnits="userSpaceOnUse" id="gradient12" r="819.2" spreadMethod="pad">
      <stop offset="0.0" stop-color="#ff5151"/>
      <stop offset="1.0" stop-color="#ff4c4c"/>
    </radialGradient>
    <radialGradient cx="0" cy="0" gradientTransform="matrix(0.0466, 0.0, 0.0, 0.0466, -290.4, -108.65)" gradientUnits="userSpaceOnUse" id="gradient13" r="819.2" spreadMethod="pad">
      <stop offset="0.0" stop-color="#f89797"/>
      <stop offset="1.0" stop-color="#642828"/>
    </radialGradient>
    <radialGradient cx="0" cy="0" gradientTransform="matrix(0.035, 0.0, 0.0, 0.035, -299.7, -105.15)" gradientUnits="userSpaceOnUse" id="gradient14" r="819.2" spreadMethod="pad">
      <stop offset="0.0" stop-color="#ff3030"/>
      <stop offset="1.0" stop-color="#ff2d2d"/>
    </radialGradient>
    <radialGradient cx="0" cy="0" gradientTransform="matrix(5.0E-4, 0.0, 0.0, 5.0E-4, -1.0, -65.8)" gradientUnits="userSpaceOnUse" id="gradient15" r="819.2" spreadMethod="pad">
      <stop offset="0.0" stop-color="#222222"/>
      <stop offset="1.0" stop-color="#222222"/>
    </radialGradient>
    <radialGradient cx="0" cy="0" gradientTransform="matrix(0.0069, 0.0, 0.0, 0.0069, -1.0, -65.55)" gradientUnits="userSpaceOnUse" id="gradient16" r="819.2" spreadMethod="pad">
      <stop offset="0.0" stop-color="#171717"/>
      <stop offset="1.0" stop-color="#171717"/>
    </radialGradient>
    <radialGradient cx="0" cy="0" gradientTransform="matrix(0.0083, 0.0, 0.0, 0.0083, -1.0, -65.1)" gradientUnits="userSpaceOnUse" id="gradient17" r="819.2" spreadMethod="pad">
      <stop offset="0.0" stop-color="#040404"/>
      <stop offset="1.0" stop-color="#040404"/>
    </radialGradient>
    <radialGradient cx="0" cy="0" gradientTransform="matrix(0.0044, 0.0, 0.0, 0.0044, -6.8, -62.3)" gradientUnits="userSpaceOnUse" id="gradient18" r="819.2" spreadMethod="pad">
      <stop offset="0.0" stop-color="#828282"/>
      <stop offset="1.0" stop-color="#5f5f5f"/>
    </radialGradient>
    <radialGradient cx="0" cy="0" gradientTransform="matrix(0.0135, 0.0, 0.0, 0.0135, -7.2, -61.9)" gradientUnits="userSpaceOnUse" id="gradient19" r="819.2" spreadMethod="pad">
      <stop offset="0.0" stop-color="#303030"/>
      <stop offset="1.0" stop-color="#212121"/>
    </radialGradient>
    <radialGradient cx="0" cy="0" gradientTransform="matrix(0.0156, 0.0, 0.0, 0.0156, -10.15, -61.25)" gradientUnits="userSpaceOnUse" id="gradient20" r="819.2" spreadMethod="pad">
      <stop offset="0.0" stop-color="#555555"/>
      <stop offset="1.0" stop-color="#555555"/>
    </radialGradient>
    <radialGradient cx="0" cy="0" gradientTransform="matrix(0.0102, 0.0, 0.0, 0.0102, -7.0, -60.35)" gradientUnits="userSpaceOnUse" id="gradient21" r="819.2" spreadMethod="pad">
      <stop offset="0.0" stop-color="#040404"/>
      <stop offset="1.0" stop-color="#040404"/>
    </radialGradient>
    <radialGradient cx="0" cy="0" gradientTransform="matrix(0.0065, 0.0, 0.0, 0.0065, -2.35, -59.35)" gradientUnits="userSpaceOnUse" id="gradient22" r="819.2" spreadMethod="pad">
      <stop offset="0.0" stop-color="#171717"/>
      <stop offset="1.0" stop-color="#171717"/>
    </radialGradient>
    <radialGradient cx="0" cy="0" gradientTransform="matrix(0.0601, 0.0, 0.0, 0.0601, -309.95, -57.9)" gradientUnits="userSpaceOnUse" id="gradient23" r="819.2" spreadMethod="pad">
      <stop offset="0.0" stop-color="#1a1a1a"/>
      <stop offset="1.0" stop-color="#000000"/>
    </radialGradient>
    <radialGradient cx="0" cy="0" gradientTransform="matrix(0.0235, 0.0, 0.0, 0.0235, -280.85, -65.9)" gradientUnits="userSpaceOnUse" id="gradient24" r="819.2" spreadMethod="pad">
      <stop offset="0.0" stop-color="#797979"/>
      <stop offset="1.0" stop-color="#000000"/>
    </radialGradient>
    <radialGradient cx="0" cy="0" gradientTransform="matrix(0.0674, 0.0, 0.0, 0.0674, -262.25, -55.6)" gradientUnits="userSpaceOnUse" id="gradient25" r="819.2" spreadMethod="pad">
      <stop offset="0.0" stop-color="#101010"/>
      <stop offset="1.0" stop-color="#000000"/>
    </radialGradient>
    <radialGradient cx="0" cy="0" gradientTransform="matrix(0.0759, 0.0, 0.0, 0.0759, -262.1, -63.15)" gradientUnits="userSpaceOnUse" id="gradient26" r="819.2" spreadMethod="pad">
      <stop offset="0.0" stop-color="#1a1a1a"/>
      <stop offset="1.0" stop-color="#141414"/>
    </radialGradient>
    <radialGradient cx="0" cy="0" gradientTransform="matrix(0.0052, 0.0, 0.0, 0.0052, -2.2, -53.65)" gradientUnits="userSpaceOnUse" id="gradient27" r="819.2" spreadMethod="pad">
      <stop offset="0.0" stop-color="#202020"/>
      <stop offset="1.0" stop-color="#1f1f1f"/>
    </radialGradient>
    <radialGradient cx="0" cy="0" gradientTransform="matrix(0.0166, 0.0, 0.0, 0.0166, -10.0, -39.45)" gradientUnits="userSpaceOnUse" id="gradient28" r="819.2" spreadMethod="pad">
      <stop offset="0.0" stop-color="#313131"/>
      <stop offset="1.0" stop-color="#212121"/>
    </radialGradient>
    <radialGradient cx="0" cy="0" gradientTransform="matrix(0.0055, 0.0, 0.0, 0.0055, -13.05, -40.8)" gradientUnits="userSpaceOnUse" id="gradient29" r="819.2" spreadMethod="pad">
      <stop offset="0.0" stop-color="#262626"/>
      <stop offset="1.0" stop-color="#262626"/>
    </radialGradient>
    <radialGradient cx="0" cy="0" gradientTransform="matrix(0.0158, 0.0, 0.0, 0.0158, -9.85, -37.6)" gradientUnits="userSpaceOnUse" id="gradient30" r="819.2" spreadMethod="pad">
      <stop offset="0.0" stop-color="#040404"/>
      <stop offset="1.0" stop-color="#040404"/>
    </radialGradient>
    <radialGradient cx="0" cy="0" gradientTransform="matrix(0.0371, 0.0, 0.0, 0.0371, -262.35, -50.8)" gradientUnits="userSpaceOnUse" id="gradient31" r="819.2" spreadMethod="pad">
      <stop offset="0.0" stop-color="#7b7b7b"/>
      <stop offset="1.0" stop-color="#090909"/>
    </radialGradient>
    <radialGradient cx="0" cy="0" gradientTransform="matrix(0.0448, 0.0, 0.0, 0.0448, -270.65, -44.2)" gradientUnits="userSpaceOnUse" id="gradient32" r="819.2" spreadMethod="pad">
      <stop offset="0.0" stop-color="#000000"/>
      <stop offset="1.0" stop-color="#000000"/>
    </radialGradient>
    <radialGradient cx="0" cy="0" gradientTransform="matrix(0.0973, 0.0, 0.0, 0.0973, -322.5, -37.7)" gradientUnits="userSpaceOnUse" id="gradient33" r="819.2" spreadMethod="pad">
      <stop offset="0.0" stop-color="#000000"/>
      <stop offset="1.0" stop-color="#000000"/>
    </radialGradient>
    <radialGradient cx="0" cy="0" gradientTransform="matrix(0.0148, 0.0, 0.0, 0.0148, -322.5, -37.7)" gradientUnits="userSpaceOnUse" id="gradient34" r="819.2" spreadMethod="pad">
      <stop offset="0.0" stop-color="#000000"/>
      <stop offset="1.0" stop-color="#000000"/>
    </radialGradient>
    <radialGradient cx="0" cy="0" gradientTransform="matrix(0.0112, 0.0, 0.0, 0.0112, -9.5, -39.2)" gradientUnits="userSpaceOnUse" id="gradient35" r="819.2" spreadMethod="pad">
      <stop offset="0.0" stop-color="#030303"/>
      <stop offset="1.0" stop-color="#030303"/>
    </radialGradient>
    <radialGradient cx="0" cy="0" gradientTransform="matrix(0.0632, 0.0, 0.0, 0.0632, -322.5, -37.7)" gradientUnits="userSpaceOnUse" id="gradient36" r="819.2" spreadMethod="pad">
      <stop offset="0.0" stop-color="#000000"/>
      <stop offset="1.0" stop-color="#000000"/>
    </radialGradient>
    <radialGradient cx="0" cy="0" gradientTransform="matrix(0.0356, 0.0, 0.0, 0.0356, -350.8, -30.7)" gradientUnits="userSpaceOnUse" id="gradient37" r="819.2" spreadMethod="pad">
      <stop offset="0.0" stop-color="#000000"/>
      <stop offset="1.0" stop-color="#000000"/>
    </radialGradient>
    <radialGradient cx="0" cy="0" gradientTransform="matrix(0.0335, 0.0, 0.0, 0.0335, -363.85, -1.0)" gradientUnits="userSpaceOnUse" id="gradient38" r="819.2" spreadMethod="pad">
      <stop offset="0.0" stop-color="#030303"/>
      <stop offset="1.0" stop-color="#000000"/>
    </radialGradient>
    <radialGradient cx="0" cy="0" gradientTransform="matrix(0.0674, 0.0, 0.0, 0.0674, -363.85, -1.0)" gradientUnits="userSpaceOnUse" id="gradient39" r="819.2" spreadMethod="pad">
      <stop offset="0.0" stop-color="#030303"/>
      <stop offset="1.0" stop-color="#000000"/>
    </radialGradient>
    <radialGradient cx="0" cy="0" gradientTransform="matrix(0.095, 0.0, 0.0, 0.095, -330.8, -1.0)" gradientUnits="userSpaceOnUse" id="gradient40" r="819.2" spreadMethod="pad">
      <stop offset="0.0" stop-color="#111111"/>
      <stop offset="1.0" stop-color="#000000"/>
    </radialGradient>
    <radialGradient cx="0" cy="0" gradientTransform="matrix(0.0768, 0.0, 0.0, 0.0768, -213.7, -1.0)" gradientUnits="userSpaceOnUse" id="gradient41" r="819.2" spreadMethod="pad">
      <stop offset="0.0" stop-color="#141414"/>
      <stop offset="1.0" stop-color="#000000"/>
    </radialGradient>
    <radialGradient cx="0" cy="0" gradientTransform="matrix(0.057, 0.0, 0.0, 0.057, -219.35, -30.3)" gradientUnits="userSpaceOnUse" id="gradient42" r="819.2" spreadMethod="pad">
      <stop offset="0.0" stop-color="#000000"/>
      <stop offset="1.0" stop-color="#000000"/>
    </radialGradient>
    <radialGradient cx="0" cy="0" gradientTransform="matrix(0.0269, 0.0, 0.0, 0.0269, -214.35, -8.85)" gradientUnits="userSpaceOnUse" id="gradient43" r="819.2" spreadMethod="pad">
      <stop offset="0.0" stop-color="#000000"/>
      <stop offset="1.0" stop-color="#000000"/>
    </radialGradient>
    <radialGradient cx="0" cy="0" gradientTransform="matrix(0.0439, 0.0, 0.0, 0.0439, -213.7, -1.0)" gradientUnits="userSpaceOnUse" id="gradient44" r="819.2" spreadMethod="pad">
      <stop offset="0.0" stop-color="#141414"/>
      <stop offset="1.0" stop-color="#030303"/>
    </radialGradient>
    <radialGradient cx="0" cy="0" gradientTransform="matrix(0.0584, 0.0, 0.0, 0.0584, -265.6, -36.55)" gradientUnits="userSpaceOnUse" id="gradient45" r="819.2" spreadMethod="pad">
      <stop offset="0.0" stop-color="#000000"/>
      <stop offset="1.0" stop-color="#000000"/>
    </radialGradient>
    <radialGradient cx="0" cy="0" gradientTransform="matrix(0.0427, 0.0, 0.0, 0.0427, -196.05, -9.55)" gradientUnits="userSpaceOnUse" id="gradient46" r="819.2" spreadMethod="pad">
      <stop offset="0.0" stop-color="#000000"/>
      <stop offset="1.0" stop-color="#000000"/>
    </radialGradient>
    <radialGradient cx="0" cy="0" gradientTransform="matrix(0.03, 0.0, 0.0, 0.03, -377.05, -20.0)" gradientUnits="userSpaceOnUse" id="gradient47" r="819.2" spreadMethod="pad">
      <stop offset="0.0" stop-color="#000000"/>
      <stop offset="1.0" stop-color="#000000"/>
    </radialGradient>
    <radialGradient cx="0" cy="0" gradientTransform="matrix(0.0452, 0.0, 0.0, 0.0452, -369.9, -22.55)" gradientUnits="userSpaceOnUse" id="gradient48" r="819.2" spreadMethod="pad">
      <stop offset="0.0" stop-color="#0d0d0d"/>
      <stop offset="1.0" stop-color="#000000"/>
    </radialGradient>
    <radialGradient cx="0" cy="0" gradientTransform="matrix(0.0199, 0.0, 0.0, 0.0199, -1.0, -8.5)" gradientUnits="userSpaceOnUse" id="gradient49" r="819.2" spreadMethod="pad">
      <stop offset="0.0" stop-color="#171717"/>
      <stop offset="1.0" stop-color="#070707"/>
    </radialGradient>
  </defs>
</svg>
