<?xml version="1.0" encoding="UTF-8" standalone="no"?>
<svg xmlns:xlink="http://www.w3.org/1999/xlink" height="249.85px" width="399.1px" xmlns="http://www.w3.org/2000/svg">
  <g transform="matrix(1.0, 0.0, 0.0, 1.0, 400.0, 250.75)">
    <path d="M-216.75 -46.25 L-223.75 -48.75 -229.25 -52.25 -241.9 -41.25 -242.4 -41.4 -248.0 -47.25 -264.5 -45.65 -264.4 -47.4 Q-231.25 -53.75 -209.65 -80.9 L-208.5 -73.5 -198.65 -75.9 -204.15 -60.25 -213.9 -49.9 -216.75 -46.25 M-312.5 -50.4 L-336.5 -45.4 -337.65 -45.25 -338.4 -45.65 -366.75 -58.25 -377.65 -74.4 -377.9 -74.0 -377.4 -72.15 -377.75 -72.25 -382.4 -78.0 -387.65 -88.15 -388.75 -96.0 -394.0 -113.25 -394.4 -113.5 -393.75 -129.65 -388.4 -144.25 -388.0 -144.5 -380.75 -170.4 -380.4 -170.4 -374.75 -154.15 -376.4 -148.25 -376.65 -129.0 -373.4 -112.25 -366.0 -95.25 -356.4 -81.25 -350.75 -74.5 -337.65 -62.4 -322.4 -53.65 -312.5 -50.4 M-340.4 -211.15 L-333.9 -221.65 -316.9 -233.9 -298.75 -247.65 -298.4 -247.5 -288.4 -230.5 -307.0 -227.9 -308.4 -227.4 -333.5 -216.0 -340.4 -211.15 M-192.0 -89.0 L-207.9 -74.0 -208.15 -74.4 -201.75 -94.15 -192.15 -89.25 -192.0 -89.0" fill="url(#gradient0)" fill-rule="evenodd" stroke="none"/>
    <path d="M-312.0 -50.25 L-312.5 -50.4 -322.4 -53.65 -337.65 -62.4 -350.75 -74.5 -356.4 -81.25 -366.0 -95.25 -373.4 -112.25 -376.65 -129.0 -376.4 -148.25 -374.75 -154.15 -365.9 -129.5 -365.25 -128.75 -363.75 -176.25 -356.25 -187.15 -358.9 -167.0 -358.5 -166.75 -357.0 -165.25 -354.75 -163.9 Q-354.5 -163.0 -350.15 -163.4 L-316.4 -164.15 -307.5 -171.5 -305.75 -172.75 -304.4 -171.75 -295.25 -164.9 -294.9 -164.5 -255.25 -165.65 -237.15 -132.4 -212.4 -100.0 -209.65 -80.9 Q-231.25 -53.75 -264.4 -47.4 L-264.4 -48.15 -265.4 -49.25 -267.15 -50.0 -269.75 -50.5 -275.15 -52.15 -274.4 -50.9 -277.15 -51.25 -281.4 -52.65 -284.4 -52.4 -295.4 -53.0 -302.25 -52.75 -306.5 -53.15 Q-306.9 -52.4 -311.75 -51.25 L-312.0 -50.25 M-349.65 -196.65 L-340.4 -211.15 -333.5 -216.0 -308.4 -227.4 -307.0 -227.9 -288.4 -230.5 -284.25 -223.9 -288.15 -197.65 -298.65 -197.15 -305.25 -191.75 -312.9 -196.75 -318.65 -197.4 -349.65 -196.65 M-277.5 -198.0 L-273.9 -202.65 -259.0 -218.9 -258.75 -218.75 -261.0 -198.65 -277.5 -198.0 M-325.75 -109.25 L-326.5 -108.75 Q-318.4 -101.75 -304.25 -100.5 -285.9 -104.65 -284.0 -109.75 L-325.75 -109.25 M-326.15 -110.65 L-323.15 -110.5 -284.75 -111.4 -289.9 -113.5 -294.25 -115.9 -297.9 -117.0 Q-303.5 -117.65 -306.65 -115.9 L-311.4 -116.9 -316.15 -116.15 -321.5 -113.25 Q-321.75 -112.5 -326.15 -110.65" fill="url(#gradient1)" fill-rule="evenodd" stroke="none"/>
    <path d="M-382.4 -78.0 Q-379.65 -73.0 -379.9 -72.15 L-388.15 -85.4 -396.15 -105.5 -397.9 -114.4 -400.0 -128.5 -399.75 -149.25 -398.65 -157.0 -393.0 -178.75 -385.25 -192.65 -374.0 -209.9 -359.9 -224.75 -341.65 -236.65 -322.15 -244.0 -308.0 -247.4 -286.4 -250.75 -264.25 -249.65 -244.15 -244.5 -224.15 -235.0 -206.0 -221.4 -191.0 -204.4 -180.0 -185.4 -172.0 -162.5 -169.65 -142.15 -170.5 -122.0 -170.9 -119.5 -176.75 -97.5 -186.9 -77.25 -199.9 -60.65 -216.75 -46.25 -213.9 -49.9 -204.15 -60.25 -198.65 -75.9 -208.5 -73.5 -209.65 -80.9 -212.4 -100.0 -237.15 -132.4 -255.25 -165.65 -256.15 -167.4 -263.15 -180.15 -261.0 -198.65 -258.75 -218.75 -259.0 -218.9 -273.9 -202.65 -277.5 -198.0 -290.15 -182.65 -288.15 -197.65 -284.25 -223.9 -288.4 -230.5 -298.4 -247.5 -298.75 -247.65 -316.9 -233.9 -333.9 -221.65 -340.4 -211.15 -349.65 -196.65 -356.25 -187.15 -363.75 -176.25 -365.25 -128.75 -365.9 -129.5 -374.75 -154.15 -380.4 -170.4 -380.75 -170.4 -388.0 -144.5 -388.4 -144.25 -393.75 -129.65 -394.4 -113.5 -394.0 -113.25 -388.75 -96.0 -387.65 -88.15 -382.4 -78.0 M-192.0 -89.0 L-192.15 -89.25 -201.75 -94.15 -208.15 -74.4 -207.9 -74.0 -192.0 -89.0" fill="url(#gradient2)" fill-rule="evenodd" stroke="none"/>
    <path d="M-356.25 -187.15 L-349.65 -196.65 -318.65 -197.4 -312.9 -196.75 -305.25 -191.75 -298.65 -197.15 -288.15 -197.65 -290.15 -182.65 -277.5 -198.0 -261.0 -198.65 -263.15 -180.15 -256.15 -167.4 -296.0 -166.15 -304.75 -172.65 -306.4 -173.75 -307.15 -174.5 -308.9 -173.0 -317.65 -165.75 -355.65 -165.0 -358.5 -166.75 -358.9 -167.0 -356.25 -187.15" fill="url(#gradient3)" fill-rule="evenodd" stroke="none"/>
    <path d="M-256.15 -167.4 L-255.25 -165.65 -294.9 -164.5 -295.25 -164.9 -296.0 -166.15 -256.15 -167.4" fill="url(#gradient4)" fill-rule="evenodd" stroke="none"/>
    <path d="M-308.9 -173.0 L-307.15 -174.5 -306.4 -173.75 -305.75 -172.75 -307.5 -171.5 -308.9 -173.0" fill="url(#gradient5)" fill-rule="evenodd" stroke="none"/>
    <path d="M-306.4 -173.75 L-304.75 -172.65 -304.4 -171.75 -305.75 -172.75 -306.4 -173.75" fill="url(#gradient6)" fill-rule="evenodd" stroke="none"/>
    <path d="M-317.65 -165.75 L-308.9 -173.0 -307.5 -171.5 -316.4 -164.15 -317.65 -165.75" fill="url(#gradient7)" fill-rule="evenodd" stroke="none"/>
    <path d="M-355.65 -165.0 L-317.65 -165.75 -316.4 -164.15 -350.15 -163.4 Q-354.5 -163.0 -354.75 -163.9 L-355.65 -165.0" fill="url(#gradient8)" fill-rule="evenodd" stroke="none"/>
    <path d="M-358.5 -166.75 L-355.65 -165.0 -354.75 -163.9 -357.0 -165.25 -358.5 -166.75" fill="url(#gradient9)" fill-rule="evenodd" stroke="none"/>
    <path d="M-304.75 -172.65 L-296.0 -166.15 -295.25 -164.9 -304.4 -171.75 -304.75 -172.65" fill="url(#gradient10)" fill-rule="evenodd" stroke="none"/>
    <path d="M-326.15 -110.65 Q-321.75 -112.5 -321.5 -113.25 L-316.15 -116.15 -311.4 -116.9 -306.65 -115.9 Q-303.5 -117.65 -297.9 -117.0 L-294.25 -115.9 -289.9 -113.5 -284.75 -111.4 -323.15 -110.5 -326.15 -110.65 M-312.75 -116.15 L-316.4 -115.4 -324.25 -111.0 -287.25 -111.65 -296.75 -116.0 -300.0 -116.5 -303.75 -116.15 -307.15 -115.15 -311.25 -116.15 -312.75 -116.15" fill="url(#gradient11)" fill-rule="evenodd" stroke="none"/>
    <path d="M-312.75 -116.15 L-311.25 -116.15 -307.15 -115.15 -303.75 -116.15 -300.0 -116.5 -296.75 -116.0 -287.25 -111.65 -324.25 -111.0 -316.4 -115.4 -312.75 -116.15" fill="url(#gradient12)" fill-rule="evenodd" stroke="none"/>
    <path d="M-325.75 -109.25 L-284.0 -109.75 Q-285.9 -104.65 -304.25 -100.5 -318.4 -101.75 -326.5 -108.75 L-325.75 -109.25 M-325.75 -108.65 L-325.75 -108.25 Q-318.15 -102.25 -304.0 -101.0 -286.25 -105.65 -285.65 -109.15 L-325.75 -108.65" fill="url(#gradient13)" fill-rule="evenodd" stroke="none"/>
    <path d="M-325.75 -108.65 L-285.65 -109.15 Q-286.25 -105.65 -304.0 -101.0 -318.15 -102.25 -325.75 -108.25 L-325.75 -108.65" fill="url(#gradient14)" fill-rule="evenodd" stroke="none"/>
    <path d="M-3.0 -69.9 L-1.4 -70.5 -0.9 -70.5 -0.9 -70.15 -3.0 -69.9" fill="url(#gradient15)" fill-rule="evenodd" stroke="none"/>
    <path d="M-2.65 -66.5 L-3.4 -69.4 -3.4 -69.9 -3.0 -69.9 -0.9 -70.15 -0.9 -66.4 -2.65 -66.5" fill="url(#gradient16)" fill-rule="evenodd" stroke="none"/>
    <path d="M-3.4 -66.15 Q-3.0 -66.3 -2.65 -66.5 L-0.9 -66.4 -3.4 -66.15" fill="url(#gradient17)" fill-rule="evenodd" stroke="none"/>
    <path d="M-4.15 -65.0 L-3.9 -65.9 -3.4 -66.15 -0.9 -66.4 -0.9 -65.25 -4.15 -65.0" fill="url(#gradient18)" fill-rule="evenodd" stroke="none"/>
    <path d="M-6.9 -59.75 L-5.4 -63.75 -5.0 -64.5 -4.15 -65.0 -0.9 -65.25 -0.9 -64.15 -1.25 -64.0 -2.75 -59.75 -6.9 -59.75" fill="url(#gradient19)" fill-rule="evenodd" stroke="none"/>
    <path d="M-0.9 -64.15 L-0.9 -43.25 -1.25 -43.25 -2.25 -57.0 -2.65 -57.75 -2.4 -58.75 -2.75 -59.0 -2.5 -59.65 -2.75 -59.75 -1.25 -64.0 -0.9 -64.15" fill="url(#gradient20)" fill-rule="evenodd" stroke="none"/>
    <path d="M-7.25 -59.4 L-6.9 -59.75 -2.75 -59.75 -3.25 -59.4 -5.25 -59.5 -5.9 -59.4 -7.25 -59.4" fill="url(#gradient21)" fill-rule="evenodd" stroke="none"/>
    <path d="M-8.25 -58.9 L-7.25 -59.4 -5.9 -59.4 -5.25 -59.5 -3.25 -59.4 -3.4 -59.4 -3.75 -59.25 -4.15 -59.0 -4.5 -59.0 -8.25 -58.9" fill="url(#gradient22)" fill-rule="evenodd" stroke="none"/>
    <path d="M-3.5 -57.5 L-3.5 -58.0 -3.25 -58.65 -3.25 -59.4 -2.75 -59.75 -2.5 -59.65 -2.75 -59.0 -2.4 -58.75 -2.65 -57.75 -2.25 -57.0 -1.25 -43.25 -3.25 -43.15 -4.25 -43.75 -3.75 -47.0 -4.0 -47.15 -4.0 -48.9 -4.15 -52.9 -3.75 -56.5 -3.65 -56.75 -3.65 -57.4 -3.5 -57.5" fill="url(#gradient23)" fill-rule="evenodd" stroke="none"/>
    <path d="M-0.9 -43.25 L-0.9 -41.0 -1.75 -40.75 -3.25 -38.65 -10.9 -36.5 -13.5 -35.25 -14.5 -34.25 -14.15 -33.0 -14.75 -32.9 -15.0 -34.4 -12.65 -37.4 -4.25 -43.75 -3.25 -43.15 -1.25 -43.25 -0.9 -43.25 M-0.9 -37.25 L-0.9 -36.9 -4.9 -35.9 -0.9 -37.25" fill="url(#gradient24)" fill-rule="evenodd" stroke="none"/>
    <path d="M-8.0 -44.15 L-8.0 -47.5 -4.0 -47.15 -3.75 -47.0 -4.25 -43.75 -8.0 -44.15" fill="url(#gradient25)" fill-rule="evenodd" stroke="none"/>
    <path d="M-4.0 -47.15 L-4.75 -48.25 -5.25 -48.4 -11.25 -54.4 -8.9 -54.65 -11.0 -55.0 -11.0 -55.4 -10.5 -55.15 -9.9 -56.0 -10.75 -56.25 -9.5 -56.5 -9.4 -56.9 -8.65 -56.9 -8.75 -57.25 -10.0 -57.15 -9.4 -57.4 -5.4 -58.65 -6.25 -58.15 -5.15 -58.15 -3.25 -58.65 -3.5 -58.0 -3.5 -57.5 -7.0 -57.65 -6.65 -57.9 -6.9 -58.0 -7.75 -57.5 -3.5 -57.5 -3.65 -57.4 -3.65 -56.75 -3.75 -56.5 -4.15 -52.9 -4.0 -48.9 -4.0 -47.15 M-12.0 -55.15 L-12.25 -55.4 -12.25 -55.5 -12.4 -55.9 -12.4 -56.25 -12.15 -57.0 -11.95 -56.8 -12.15 -56.0 -11.25 -57.0 -11.75 -55.75 -12.0 -55.9 -12.0 -55.15 M-11.0 -56.9 L-10.5 -57.15 -10.75 -56.75 -11.0 -56.9 M-11.25 -56.0 L-11.65 -55.5 -11.9 -55.65 -11.25 -56.0 M-3.4 -59.4 L-4.15 -59.0 -3.75 -59.25 -3.4 -59.4 M-9.5 -53.25 L-9.15 -53.0 -6.75 -53.25 -9.5 -53.25 M-8.4 -54.5 L-7.9 -54.5 -7.75 -55.5 -8.15 -55.15 -7.9 -54.75 -8.4 -54.5 M-8.5 -56.0 L-8.5 -56.5 -9.4 -56.4 -8.5 -56.0 -8.75 -55.9 -8.0 -55.75 -8.0 -55.4 -7.9 -56.25 -8.5 -56.0 M-6.0 -55.9 L-5.9 -56.15 -6.25 -56.15 -6.0 -55.9 M-7.4 -56.5 L-7.25 -56.9 -7.15 -56.25 -6.9 -56.9 -3.9 -57.0 -7.65 -57.0 -8.15 -57.4 -7.9 -56.65 -7.4 -56.5 M-4.75 -56.0 L-4.9 -55.75 -4.4 -55.75 -4.75 -56.0 M-4.0 -48.9 L-4.25 -49.4 -4.25 -48.9 -4.0 -48.9 M-7.5 -51.75 L-6.15 -52.4 -8.15 -52.4 -7.5 -51.75" fill="url(#gradient26)" fill-rule="evenodd" stroke="none"/>
    <path d="M-11.25 -54.4 L-11.9 -55.0 -12.0 -55.15 -12.0 -55.9 -11.75 -55.75 -11.25 -57.0 -12.15 -56.0 -11.95 -56.8 -12.15 -57.0 -11.9 -57.0 -11.4 -57.5 -9.4 -57.4 -10.0 -57.15 -8.75 -57.25 -8.65 -56.9 -9.4 -56.9 -9.5 -56.5 -10.75 -56.25 -9.9 -56.0 -10.5 -55.15 -11.0 -55.4 -11.0 -55.0 -8.9 -54.65 -11.25 -54.4 M-11.25 -56.0 L-11.9 -55.65 -11.65 -55.5 -11.25 -56.0 M-11.0 -56.9 L-10.75 -56.75 -10.5 -57.15 -11.0 -56.9 M-3.25 -58.65 L-5.15 -58.15 -6.25 -58.15 -5.4 -58.65 -4.5 -59.0 -4.15 -59.0 -3.4 -59.4 -3.25 -59.4 -3.25 -58.65 M-3.5 -57.5 L-7.75 -57.5 -6.9 -58.0 -6.65 -57.9 -7.0 -57.65 -3.5 -57.5 M-7.4 -56.5 L-7.9 -56.65 -8.15 -57.4 -7.65 -57.0 -3.9 -57.0 -6.9 -56.9 -7.15 -56.25 -7.25 -56.9 -7.4 -56.5 M-6.0 -55.9 L-6.25 -56.15 -5.9 -56.15 -6.0 -55.9 M-8.5 -56.0 L-7.9 -56.25 -8.0 -55.4 -8.0 -55.75 -8.75 -55.9 -8.5 -56.0 -9.4 -56.4 -8.5 -56.5 -8.5 -56.0 M-8.4 -54.5 L-7.9 -54.75 -8.15 -55.15 -7.75 -55.5 -7.9 -54.5 -8.4 -54.5 M-9.5 -53.25 L-6.75 -53.25 -9.15 -53.0 -9.5 -53.25 M-4.75 -56.0 L-4.4 -55.75 -4.9 -55.75 -4.75 -56.0 M-4.0 -48.9 L-4.25 -48.9 -4.25 -49.4 -4.0 -48.9 M-7.5 -51.75 L-8.15 -52.4 -6.15 -52.4 -7.5 -51.75" fill="url(#gradient27)" fill-rule="evenodd" stroke="none"/>
    <path d="M-12.5 -57.5 L-8.25 -58.9 -4.5 -59.0 -5.4 -58.65 -9.4 -57.4 -11.4 -57.5 -12.5 -57.5" fill="url(#gradient28)" fill-rule="evenodd" stroke="none"/>
    <path d="M-15.65 -56.9 L-15.0 -57.5 -12.5 -57.5 -11.4 -57.5 -11.9 -57.0 -12.15 -57.0 -15.65 -56.9" fill="url(#gradient29)" fill-rule="evenodd" stroke="none"/>
    <path d="M-8.0 -47.5 L-15.9 -55.4 -16.15 -56.4 -15.65 -56.9 -12.15 -57.0 -12.4 -56.25 -12.4 -55.9 -12.25 -55.5 -12.25 -55.4 -12.0 -55.15 -11.9 -55.0 -11.25 -54.4 -5.25 -48.4 -4.75 -48.25 -4.0 -47.15 -8.0 -47.5" fill="url(#gradient30)" fill-rule="evenodd" stroke="none"/>
    <path d="M-270.65 -45.75 L-274.4 -50.9 -275.15 -52.15 -269.75 -50.5 -270.65 -45.75" fill="url(#gradient31)" fill-rule="evenodd" stroke="none"/>
    <path d="M-269.75 -50.5 L-267.15 -50.0 -265.4 -49.25 -264.4 -48.15 -264.4 -47.4 -264.5 -45.65 -264.75 -45.4 -265.9 -46.25 -265.15 -38.75 -265.65 -37.9 -266.4 -37.65 -269.65 -39.15 -270.75 -43.5 -270.65 -45.75 -269.75 -50.5" fill="url(#gradient32)" fill-rule="evenodd" stroke="none"/>
    <path d="M-318.0 -36.15 L-313.0 -40.65 -311.9 -48.4 -312.0 -50.25 -311.75 -51.25 Q-306.9 -52.4 -306.5 -53.15 L-302.25 -52.75 -295.4 -53.0 -284.4 -52.4 -281.4 -52.65 -277.15 -51.25 -274.4 -50.9 -270.65 -45.75 -270.75 -43.5 -271.9 -39.5 -271.65 -39.4 -266.15 -32.75 -279.15 -35.9 -318.0 -36.15" fill="url(#gradient33)" fill-rule="evenodd" stroke="none"/>
    <path d="M-18.4 -35.15 Q-18.0 -36.75 -15.15 -39.0 L-8.0 -44.15 -4.25 -43.75 -12.65 -37.4 -15.0 -34.4 -18.4 -35.15" fill="url(#gradient34)" fill-rule="evenodd" stroke="none"/>
    <path d="M-14.75 -32.9 L-17.9 -33.65 -18.4 -34.75 -18.4 -35.15 -15.0 -34.4 -14.75 -32.9" fill="url(#gradient35)" fill-rule="evenodd" stroke="none"/>
    <path d="M-0.9 -41.0 L-0.9 -37.25 -4.9 -35.9 -5.0 -35.9 -7.4 -35.15 -7.75 -35.0 -8.15 -34.9 -8.25 -34.75 -14.15 -33.0 -14.5 -34.25 -13.5 -35.25 -10.9 -36.5 -3.25 -38.65 -1.75 -40.75 -0.9 -41.0" fill="url(#gradient36)" fill-rule="evenodd" stroke="none"/>
    <path d="M-264.5 -45.65 L-264.5 -45.0 -264.75 -45.4 -264.5 -45.65" fill="url(#gradient37)" fill-rule="evenodd" stroke="none"/>
    <path d="M-264.5 -45.0 L-264.0 -43.15 -263.5 -37.15 -261.0 -35.15 -271.65 -39.4 -271.9 -39.5 -270.75 -43.5 -269.65 -39.15 -266.4 -37.65 -265.65 -37.9 -265.15 -38.75 -265.9 -46.25 -264.75 -45.4 -264.5 -45.0" fill="url(#gradient38)" fill-rule="evenodd" stroke="none"/>
    <path d="M-253.15 -0.9 L-345.65 -0.9 -326.0 -30.15 -324.0 -30.4 -323.0 -32.5 -324.4 -32.4 -323.9 -33.4 -323.75 -33.65 -318.0 -36.15 -279.15 -35.9 -266.15 -32.75 -265.75 -32.65 -265.75 -32.0 -266.75 -32.0 -264.9 -30.15 -253.15 -0.9" fill="url(#gradient39)" fill-rule="evenodd" stroke="none"/>
    <path d="M-359.65 -23.25 L-359.25 -23.4 -359.15 -23.5 -358.75 -23.65 -358.65 -23.65 -329.5 -32.15 -329.4 -32.15 -328.65 -32.4 -328.15 -32.5 -327.75 -32.65 -327.5 -32.65 -327.0 -32.75 -326.65 -32.9 -323.75 -33.65 -323.9 -33.4 -325.5 -32.25 -327.5 -32.0 -327.25 -31.0 -366.4 -3.0 -359.5 -23.25 -359.65 -23.25" fill="url(#gradient40)" fill-rule="evenodd" stroke="none"/>
    <path d="M-358.65 -23.65 L-353.5 -25.75 -329.5 -32.15 -358.65 -23.65" fill="url(#gradient41)" fill-rule="evenodd" stroke="none"/>
    <path d="M-261.0 -35.15 L-251.75 -31.15 -263.15 -32.4 -263.4 -32.4 -263.9 -32.5 -264.4 -32.5 -264.75 -32.65 -265.75 -32.65 -266.15 -32.75 -271.65 -39.4 -261.0 -35.15" fill="url(#gradient42)" fill-rule="evenodd" stroke="none"/>
    <path d="M-345.65 -0.9 L-366.25 -0.9 -366.4 -3.0 -327.25 -31.0 -326.0 -30.15 -345.65 -0.9 M-324.4 -32.4 L-325.5 -32.25 -323.9 -33.4 -324.4 -32.4" fill="url(#gradient43)" fill-rule="evenodd" stroke="none"/>
    <path d="M-265.75 -32.0 L-265.5 -32.0 -261.5 -31.65 -263.0 -31.25 -263.5 -30.15 -264.9 -30.15 -266.75 -32.0 -265.75 -32.0 M-325.5 -32.25 L-324.4 -32.4 -323.0 -32.5 -324.0 -30.4 -326.0 -30.15 -327.25 -31.0 -327.5 -32.0 -325.5 -32.25" fill="url(#gradient44)" fill-rule="evenodd" stroke="none"/>
    <path d="M-214.65 -0.9 L-237.25 -0.9 -263.5 -30.15 -263.0 -31.25 -261.5 -31.65 -265.5 -32.0 -265.75 -32.0 -265.75 -32.65 -264.75 -32.65 -264.4 -32.5 -263.9 -32.5 -263.4 -32.4 -263.15 -32.4 -224.15 -26.5 Q-220.5 -26.4 -220.25 -25.5 L-215.0 -5.0 -214.65 -0.9" fill="url(#gradient45)" fill-rule="evenodd" stroke="none"/>
    <path d="M-251.75 -31.15 L-251.65 -31.15 -218.15 -27.15 -195.65 -11.15 -196.9 -5.65 -219.75 -25.5 -220.25 -25.5 Q-220.5 -26.4 -224.15 -26.5 L-263.15 -32.4 -251.75 -31.15" fill="url(#gradient46)" fill-rule="evenodd" stroke="none"/>
    <path d="M-215.0 -5.0 L-220.25 -25.5 -219.75 -25.5 -196.9 -5.65 -215.0 -5.0" fill="url(#gradient47)" fill-rule="evenodd" stroke="none"/>
    <path d="M-195.65 -11.15 L-173.25 -1.0 -186.5 -0.9 -196.9 -5.65 -195.65 -11.15" fill="url(#gradient48)" fill-rule="evenodd" stroke="none"/>
    <path d="M-237.25 -0.9 L-253.15 -0.9 -264.9 -30.15 -263.5 -30.15 -237.25 -0.9" fill="url(#gradient49)" fill-rule="evenodd" stroke="none"/>
    <path d="M-366.25 -0.9 L-383.4 -0.9 -379.9 -15.25 -379.65 -15.65 -359.65 -23.25 -359.5 -23.25 -366.4 -3.0 -366.25 -0.9" fill="url(#gradient50)" fill-rule="evenodd" stroke="none"/>
    <path d="M-383.4 -0.9 L-392.0 -0.9 -383.0 -11.65 -383.0 -11.75 -379.9 -15.25 -383.4 -0.9" fill="url(#gradient51)" fill-rule="evenodd" stroke="none"/>
    <path d="M-392.0 -0.9 L-399.9 -0.9 -400.0 -2.25 -383.0 -11.75 -383.0 -11.65 -392.0 -0.9" fill="url(#gradient52)" fill-rule="evenodd" stroke="none"/>
    <path d="M-186.5 -0.9 L-214.65 -0.9 -215.0 -5.0 -196.9 -5.65 -186.5 -0.9" fill="url(#gradient53)" fill-rule="evenodd" stroke="none"/>
    <path d="M-11.9 -0.9 Q-6.5 -3.8 -1.15 -6.75 L-0.9 -0.9 -11.9 -0.9" fill="url(#gradient54)" fill-rule="evenodd" stroke="none"/>
    <path d="M-334.0 -46.0 L-333.5 -46.0 -323.15 -45.25 -312.9 -42.15 -313.0 -40.5 -313.5 -40.15 -316.15 -40.5 -331.9 -45.25 -334.4 -45.4 -334.0 -45.9 -334.0 -46.0 M-334.4 -45.4 L-342.4 -32.75 -343.4 -28.4 -353.15 -25.9 -351.5 -32.75 -342.9 -45.5 -341.5 -45.65 -338.25 -45.5 -337.65 -45.4 -337.5 -45.25 -337.25 -45.4 -336.5 -45.4 -334.4 -45.4 M-263.25 -37.9 L-258.9 -38.65 -255.25 -39.75 -255.4 -41.25 -254.65 -42.5 -254.25 -44.65 -251.15 -33.4 -251.25 -31.0 -251.75 -31.15 -261.0 -35.15 -262.15 -35.9 -262.65 -36.65 -263.25 -37.9 M-264.25 -44.65 L-263.15 -44.5 -263.25 -42.65 -263.75 -41.9 -264.25 -44.65" fill="#ab0000" fill-opacity="0.9098039" fill-rule="evenodd" stroke="none"/>
    <path d="M-334.0 -46.0 L-334.0 -45.9 -336.5 -45.4 -337.25 -45.4 -337.65 -45.4 -337.75 -45.5 -338.25 -45.5 -338.9 -45.75 -338.9 -45.9 -334.0 -46.0 M-265.9 -44.75 L-265.75 -44.9 -264.4 -44.9 -264.25 -44.65 -265.9 -44.75" fill="#a90000" fill-rule="evenodd" stroke="none"/>
    <path d="M-334.0 -45.9 L-334.4 -45.4 -336.5 -45.4 -334.0 -45.9 M-341.5 -45.65 L-338.9 -45.75 -338.25 -45.5 -341.5 -45.65 M-254.25 -44.65 L-254.65 -42.5 -255.4 -41.25 -255.25 -39.75 -258.9 -38.65 -263.25 -37.9 -263.5 -37.9 -263.65 -38.4 -263.65 -38.65 -263.75 -39.15 -263.75 -39.25 -263.75 -41.9 -263.25 -42.65 -263.15 -44.5 -264.25 -44.65 -254.25 -44.65" fill="#ab0000" fill-rule="evenodd" stroke="none"/>
    <path d="M-343.4 -28.4 L-345.75 -17.9 -345.9 -17.5 -348.75 -4.4 -350.65 -0.9 -360.4 -0.9 -359.0 -3.4 -357.5 -8.75 -357.65 -9.15 -357.25 -9.65 -353.5 -25.0 -353.25 -25.75 -353.15 -25.75 -353.15 -25.9 -343.4 -28.4 M-262.15 -35.9 L-261.0 -35.15 -251.75 -31.15 -251.25 -31.0 -251.25 -30.5 -251.65 -25.0 -251.5 -24.75 -251.65 -23.5 -251.5 -23.25 -252.4 -2.75 -252.75 -0.9 -263.15 -0.9 -262.15 -9.5 -262.4 -10.15 -261.5 -17.25 -261.75 -18.75 -261.25 -20.75 -261.5 -22.15 -261.0 -27.0 -261.15 -27.5 -260.9 -29.4 -260.75 -29.75 -260.65 -33.0 -261.75 -35.25 -262.0 -35.5 -262.15 -35.9 M-263.75 -41.9 L-263.75 -39.25 -264.4 -40.5 -264.9 -41.0 -265.25 -41.25 -265.25 -41.9 -265.4 -42.15 -265.4 -42.4 -265.9 -42.9 -265.9 -43.65 -266.5 -43.9 -266.65 -44.75 -266.4 -44.9 -265.9 -44.75 -264.25 -44.65 -263.75 -41.9 M-337.65 -45.4 L-338.25 -45.5 -337.75 -45.5 -337.65 -45.4 -337.25 -45.4 -337.5 -45.25 -337.65 -45.4" fill="#9b0000" fill-opacity="0.9098039" fill-rule="evenodd" stroke="none"/>
  </g>
  <defs>
    <radialGradient cx="0" cy="0" gradientTransform="matrix(0.2531, 0.0, 0.0, 0.2531, -208.95, -84.35)" gradientUnits="userSpaceOnUse" id="gradient0" r="819.2" spreadMethod="pad">
      <stop offset="0.0" stop-color="#555555"/>
      <stop offset="1.0" stop-color="#161616"/>
    </radialGradient>
    <radialGradient cx="0" cy="0" gradientTransform="matrix(0.2149, 0.0, 0.0, 0.2149, -373.35, -112.75)" gradientUnits="userSpaceOnUse" id="gradient1" r="819.2" spreadMethod="pad">
      <stop offset="0.0" stop-color="#7e7e7e"/>
      <stop offset="1.0" stop-color="#000000"/>
    </radialGradient>
    <radialGradient cx="0" cy="0" gradientTransform="matrix(0.2496, 0.0, 0.0, 0.2496, -373.15, -150.25)" gradientUnits="userSpaceOnUse" id="gradient2" r="819.2" spreadMethod="pad">
      <stop offset="0.0" stop-color="#494949"/>
      <stop offset="1.0" stop-color="#222222"/>
    </radialGradient>
    <radialGradient cx="0" cy="0" gradientTransform="matrix(0.1331, 0.0, 0.0, 0.1331, -358.85, -167.15)" gradientUnits="userSpaceOnUse" id="gradient3" r="819.2" spreadMethod="pad">
      <stop offset="0.0" stop-color="#767676"/>
      <stop offset="1.0" stop-color="#767676"/>
    </radialGradient>
    <radialGradient cx="0" cy="0" gradientTransform="matrix(0.0493, 0.0, 0.0, 0.0493, -255.55, -167.4)" gradientUnits="userSpaceOnUse" id="gradient4" r="819.2" spreadMethod="pad">
      <stop offset="0.0" stop-color="#767676"/>
      <stop offset="1.0" stop-color="#767676"/>
    </radialGradient>
    <radialGradient cx="0" cy="0" gradientTransform="matrix(0.0038, 0.0, 0.0, 0.0038, -308.85, -173.1)" gradientUnits="userSpaceOnUse" id="gradient5" r="819.2" spreadMethod="pad">
      <stop offset="0.0" stop-color="#e2e2e2"/>
      <stop offset="1.0" stop-color="#e0e0e0"/>
    </radialGradient>
    <radialGradient cx="0" cy="0" gradientTransform="matrix(0.0027, 0.0, 0.0, 0.0027, -305.25, -173.2)" gradientUnits="userSpaceOnUse" id="gradient6" r="819.2" spreadMethod="pad">
      <stop offset="0.0" stop-color="#8c8c8c"/>
      <stop offset="1.0" stop-color="#8c8c8c"/>
    </radialGradient>
    <radialGradient cx="0" cy="0" gradientTransform="matrix(0.0141, 0.0, 0.0, 0.0141, -317.6, -165.8)" gradientUnits="userSpaceOnUse" id="gradient7" r="819.2" spreadMethod="pad">
      <stop offset="0.0" stop-color="#e1e1e1"/>
      <stop offset="1.0" stop-color="#dedede"/>
    </radialGradient>
    <radialGradient cx="0" cy="0" gradientTransform="matrix(0.0464, 0.0, 0.0, 0.0464, -317.6, -165.8)" gradientUnits="userSpaceOnUse" id="gradient8" r="819.2" spreadMethod="pad">
      <stop offset="0.0" stop-color="#767676"/>
      <stop offset="1.0" stop-color="#767676"/>
    </radialGradient>
    <radialGradient cx="0" cy="0" gradientTransform="matrix(0.0047, 0.0, 0.0, 0.0047, -355.6, -165.0)" gradientUnits="userSpaceOnUse" id="gradient9" r="819.2" spreadMethod="pad">
      <stop offset="0.0" stop-color="#838383"/>
      <stop offset="1.0" stop-color="#838383"/>
    </radialGradient>
    <radialGradient cx="0" cy="0" gradientTransform="matrix(0.0143, 0.0, 0.0, 0.0143, -295.9, -166.15)" gradientUnits="userSpaceOnUse" id="gradient10" r="819.2" spreadMethod="pad">
      <stop offset="0.0" stop-color="#8b8b8b"/>
      <stop offset="1.0" stop-color="#8b8b8b"/>
    </radialGradient>
    <radialGradient cx="0" cy="0" gradientTransform="matrix(0.0446, 0.0, 0.0, 0.0446, -289.8, -112.85)" gradientUnits="userSpaceOnUse" id="gradient11" r="819.2" spreadMethod="pad">
      <stop offset="0.0" stop-color="#ff5151"/>
      <stop offset="1.0" stop-color="#330000"/>
    </radialGradient>
    <radialGradient cx="0" cy="0" gradientTransform="matrix(0.043, 0.0, 0.0, 0.043, -289.15, -112.5)" gradientUnits="userSpaceOnUse" id="gradient12" r="819.2" spreadMethod="pad">
      <stop offset="0.0" stop-color="#ff5151"/>
      <stop offset="1.0" stop-color="#ff4c4c"/>
    </radialGradient>
    <radialGradient cx="0" cy="0" gradientTransform="matrix(0.0467, 0.0, 0.0, 0.0467, -288.4, -106.05)" gradientUnits="userSpaceOnUse" id="gradient13" r="819.2" spreadMethod="pad">
      <stop offset="0.0" stop-color="#f89797"/>
      <stop offset="1.0" stop-color="#4f1818"/>
    </radialGradient>
    <radialGradient cx="0" cy="0" gradientTransform="matrix(0.035, 0.0, 0.0, 0.035, -297.8, -102.6)" gradientUnits="userSpaceOnUse" id="gradient14" r="819.2" spreadMethod="pad">
      <stop offset="0.0" stop-color="#ff3030"/>
      <stop offset="1.0" stop-color="#ff2d2d"/>
    </radialGradient>
    <radialGradient cx="0" cy="0" gradientTransform="matrix(0.003, 0.0, 0.0, 0.003, -1.0, -70.65)" gradientUnits="userSpaceOnUse" id="gradient15" r="819.2" spreadMethod="pad">
      <stop offset="0.0" stop-color="#040404"/>
      <stop offset="1.0" stop-color="#040404"/>
    </radialGradient>
    <radialGradient cx="0" cy="0" gradientTransform="matrix(0.0048, 0.0, 0.0, 0.0048, -1.0, -70.2)" gradientUnits="userSpaceOnUse" id="gradient16" r="819.2" spreadMethod="pad">
      <stop offset="0.0" stop-color="#262626"/>
      <stop offset="1.0" stop-color="#262626"/>
    </radialGradient>
    <radialGradient cx="0" cy="0" gradientTransform="matrix(0.0033, 0.0, 0.0, 0.0033, -1.0, -66.7)" gradientUnits="userSpaceOnUse" id="gradient17" r="819.2" spreadMethod="pad">
      <stop offset="0.0" stop-color="#040404"/>
      <stop offset="1.0" stop-color="#040404"/>
    </radialGradient>
    <radialGradient cx="0" cy="0" gradientTransform="matrix(0.0107, 0.0, 0.0, 0.0107, -1.0, -66.45)" gradientUnits="userSpaceOnUse" id="gradient18" r="819.2" spreadMethod="pad">
      <stop offset="0.0" stop-color="#303030"/>
      <stop offset="1.0" stop-color="#303030"/>
    </radialGradient>
    <radialGradient cx="0" cy="0" gradientTransform="matrix(0.0067, 0.0, 0.0, 0.0067, -2.6, -60.05)" gradientUnits="userSpaceOnUse" id="gradient19" r="819.2" spreadMethod="pad">
      <stop offset="0.0" stop-color="#818181"/>
      <stop offset="1.0" stop-color="#5d5d5d"/>
    </radialGradient>
    <radialGradient cx="0" cy="0" gradientTransform="matrix(0.0208, 0.0, 0.0, 0.0208, -1.0, -60.35)" gradientUnits="userSpaceOnUse" id="gradient20" r="819.2" spreadMethod="pad">
      <stop offset="0.0" stop-color="#171717"/>
      <stop offset="1.0" stop-color="#171717"/>
    </radialGradient>
    <radialGradient cx="0" cy="0" gradientTransform="matrix(0.0051, 0.0, 0.0, 0.0051, -6.8, -59.9)" gradientUnits="userSpaceOnUse" id="gradient21" r="819.2" spreadMethod="pad">
      <stop offset="0.0" stop-color="#222222"/>
      <stop offset="1.0" stop-color="#222222"/>
    </radialGradient>
    <radialGradient cx="0" cy="0" gradientTransform="matrix(0.0071, 0.0, 0.0, 0.0071, -6.55, -59.7)" gradientUnits="userSpaceOnUse" id="gradient22" r="819.2" spreadMethod="pad">
      <stop offset="0.0" stop-color="#171717"/>
      <stop offset="1.0" stop-color="#171717"/>
    </radialGradient>
    <radialGradient cx="0" cy="0" gradientTransform="matrix(0.0205, 0.0, 0.0, 0.0205, -1.15, -43.3)" gradientUnits="userSpaceOnUse" id="gradient23" r="819.2" spreadMethod="pad">
      <stop offset="0.0" stop-color="#020202"/>
      <stop offset="1.0" stop-color="#020202"/>
    </radialGradient>
    <radialGradient cx="0" cy="0" gradientTransform="matrix(0.0166, 0.0, 0.0, 0.0166, -1.6, -36.95)" gradientUnits="userSpaceOnUse" id="gradient24" r="819.2" spreadMethod="pad">
      <stop offset="0.0" stop-color="#040404"/>
      <stop offset="1.0" stop-color="#040404"/>
    </radialGradient>
    <radialGradient cx="0" cy="0" gradientTransform="matrix(0.0195, 0.0, 0.0, 0.0195, -7.2, -59.5)" gradientUnits="userSpaceOnUse" id="gradient25" r="819.2" spreadMethod="pad">
      <stop offset="0.0" stop-color="#212121"/>
      <stop offset="1.0" stop-color="#202020"/>
    </radialGradient>
    <radialGradient cx="0" cy="0" gradientTransform="matrix(0.0153, 0.0, 0.0, 0.0153, -2.65, -59.7)" gradientUnits="userSpaceOnUse" id="gradient26" r="819.2" spreadMethod="pad">
      <stop offset="0.0" stop-color="#040404"/>
      <stop offset="1.0" stop-color="#040404"/>
    </radialGradient>
    <radialGradient cx="0" cy="0" gradientTransform="matrix(0.0089, 0.0, 0.0, 0.0089, -5.0, -55.65)" gradientUnits="userSpaceOnUse" id="gradient27" r="819.2" spreadMethod="pad">
      <stop offset="0.0" stop-color="#171717"/>
      <stop offset="1.0" stop-color="#171717"/>
    </radialGradient>
    <radialGradient cx="0" cy="0" gradientTransform="matrix(0.0121, 0.0, 0.0, 0.0121, -3.5, -59.3)" gradientUnits="userSpaceOnUse" id="gradient28" r="819.2" spreadMethod="pad">
      <stop offset="0.0" stop-color="#040404"/>
      <stop offset="1.0" stop-color="#040404"/>
    </radialGradient>
    <radialGradient cx="0" cy="0" gradientTransform="matrix(0.0052, 0.0, 0.0, 0.0052, -11.85, -57.15)" gradientUnits="userSpaceOnUse" id="gradient29" r="819.2" spreadMethod="pad">
      <stop offset="0.0" stop-color="#828282"/>
      <stop offset="1.0" stop-color="#353535"/>
    </radialGradient>
    <radialGradient cx="0" cy="0" gradientTransform="matrix(0.0156, 0.0, 0.0, 0.0156, -12.3, -56.7)" gradientUnits="userSpaceOnUse" id="gradient30" r="819.2" spreadMethod="pad">
      <stop offset="0.0" stop-color="#303030"/>
      <stop offset="1.0" stop-color="#202020"/>
    </radialGradient>
    <radialGradient cx="0" cy="0" gradientTransform="matrix(0.0235, 0.0, 0.0, 0.0235, -281.65, -61.45)" gradientUnits="userSpaceOnUse" id="gradient31" r="819.2" spreadMethod="pad">
      <stop offset="0.0" stop-color="#797979"/>
      <stop offset="1.0" stop-color="#000000"/>
    </radialGradient>
    <radialGradient cx="0" cy="0" gradientTransform="matrix(0.0606, 0.0, 0.0, 0.0606, -264.25, -50.05)" gradientUnits="userSpaceOnUse" id="gradient32" r="819.2" spreadMethod="pad">
      <stop offset="0.0" stop-color="#101010"/>
      <stop offset="1.0" stop-color="#000000"/>
    </radialGradient>
    <radialGradient cx="0" cy="0" gradientTransform="matrix(0.0608, 0.0, 0.0, 0.0608, -311.65, -52.95)" gradientUnits="userSpaceOnUse" id="gradient33" r="819.2" spreadMethod="pad">
      <stop offset="0.0" stop-color="#1a1a1a"/>
      <stop offset="1.0" stop-color="#000000"/>
    </radialGradient>
    <radialGradient cx="0" cy="0" gradientTransform="matrix(0.0174, 0.0, 0.0, 0.0174, -14.8, -34.75)" gradientUnits="userSpaceOnUse" id="gradient34" r="819.2" spreadMethod="pad">
      <stop offset="0.0" stop-color="#313131"/>
      <stop offset="1.0" stop-color="#222222"/>
    </radialGradient>
    <radialGradient cx="0" cy="0" gradientTransform="matrix(0.0053, 0.0, 0.0, 0.0053, -18.4, -35.2)" gradientUnits="userSpaceOnUse" id="gradient35" r="819.2" spreadMethod="pad">
      <stop offset="0.0" stop-color="#262626"/>
      <stop offset="1.0" stop-color="#262626"/>
    </radialGradient>
    <radialGradient cx="0" cy="0" gradientTransform="matrix(0.0167, 0.0, 0.0, 0.0167, -1.05, -37.3)" gradientUnits="userSpaceOnUse" id="gradient36" r="819.2" spreadMethod="pad">
      <stop offset="0.0" stop-color="#030303"/>
      <stop offset="1.0" stop-color="#030303"/>
    </radialGradient>
    <radialGradient cx="0" cy="0" gradientTransform="matrix(0.0691, 0.0, 0.0, 0.0691, -264.05, -57.55)" gradientUnits="userSpaceOnUse" id="gradient37" r="819.2" spreadMethod="pad">
      <stop offset="0.0" stop-color="#1a1a1a"/>
      <stop offset="1.0" stop-color="#151515"/>
    </radialGradient>
    <radialGradient cx="0" cy="0" gradientTransform="matrix(0.037, 0.0, 0.0, 0.037, -264.4, -45.3)" gradientUnits="userSpaceOnUse" id="gradient38" r="819.2" spreadMethod="pad">
      <stop offset="0.0" stop-color="#7b7b7b"/>
      <stop offset="1.0" stop-color="#090909"/>
    </radialGradient>
    <radialGradient cx="0" cy="0" gradientTransform="matrix(0.0947, 0.0, 0.0, 0.0947, -323.5, -33.85)" gradientUnits="userSpaceOnUse" id="gradient39" r="819.2" spreadMethod="pad">
      <stop offset="0.0" stop-color="#000000"/>
      <stop offset="1.0" stop-color="#000000"/>
    </radialGradient>
    <radialGradient cx="0" cy="0" gradientTransform="matrix(0.0647, 0.0, 0.0, 0.0647, -323.5, -33.85)" gradientUnits="userSpaceOnUse" id="gradient40" r="819.2" spreadMethod="pad">
      <stop offset="0.0" stop-color="#000000"/>
      <stop offset="1.0" stop-color="#000000"/>
    </radialGradient>
    <radialGradient cx="0" cy="0" gradientTransform="matrix(0.0378, 0.0, 0.0, 0.0378, -353.4, -25.8)" gradientUnits="userSpaceOnUse" id="gradient41" r="819.2" spreadMethod="pad">
      <stop offset="0.0" stop-color="#000000"/>
      <stop offset="1.0" stop-color="#000000"/>
    </radialGradient>
    <radialGradient cx="0" cy="0" gradientTransform="matrix(0.044, 0.0, 0.0, 0.044, -271.9, -39.65)" gradientUnits="userSpaceOnUse" id="gradient42" r="819.2" spreadMethod="pad">
      <stop offset="0.0" stop-color="#000000"/>
      <stop offset="1.0" stop-color="#000000"/>
    </radialGradient>
    <radialGradient cx="0" cy="0" gradientTransform="matrix(0.0659, 0.0, 0.0, 0.0659, -366.4, -1.0)" gradientUnits="userSpaceOnUse" id="gradient43" r="819.2" spreadMethod="pad">
      <stop offset="0.0" stop-color="#010101"/>
      <stop offset="1.0" stop-color="#000000"/>
    </radialGradient>
    <radialGradient cx="0" cy="0" gradientTransform="matrix(0.0979, 0.0, 0.0, 0.0979, -327.4, -32.1)" gradientUnits="userSpaceOnUse" id="gradient44" r="819.2" spreadMethod="pad">
      <stop offset="0.0" stop-color="#010101"/>
      <stop offset="1.0" stop-color="#000000"/>
    </radialGradient>
    <radialGradient cx="0" cy="0" gradientTransform="matrix(0.0736, 0.0, 0.0, 0.0736, -214.75, -1.0)" gradientUnits="userSpaceOnUse" id="gradient45" r="819.2" spreadMethod="pad">
      <stop offset="0.0" stop-color="#0a0a0a"/>
      <stop offset="1.0" stop-color="#000000"/>
    </radialGradient>
    <radialGradient cx="0" cy="0" gradientTransform="matrix(0.0563, 0.0, 0.0, 0.0563, -220.4, -25.95)" gradientUnits="userSpaceOnUse" id="gradient46" r="819.2" spreadMethod="pad">
      <stop offset="0.0" stop-color="#000000"/>
      <stop offset="1.0" stop-color="#000000"/>
    </radialGradient>
    <radialGradient cx="0" cy="0" gradientTransform="matrix(0.0263, 0.0, 0.0, 0.0263, -215.1, -5.1)" gradientUnits="userSpaceOnUse" id="gradient47" r="819.2" spreadMethod="pad">
      <stop offset="0.0" stop-color="#000000"/>
      <stop offset="1.0" stop-color="#000000"/>
    </radialGradient>
    <radialGradient cx="0" cy="0" gradientTransform="matrix(0.0294, 0.0, 0.0, 0.0294, -196.9, -5.75)" gradientUnits="userSpaceOnUse" id="gradient48" r="819.2" spreadMethod="pad">
      <stop offset="0.0" stop-color="#000000"/>
      <stop offset="1.0" stop-color="#000000"/>
    </radialGradient>
    <radialGradient cx="0" cy="0" gradientTransform="matrix(0.0523, 0.0, 0.0, 0.0523, -266.05, -32.85)" gradientUnits="userSpaceOnUse" id="gradient49" r="819.2" spreadMethod="pad">
      <stop offset="0.0" stop-color="#000000"/>
      <stop offset="1.0" stop-color="#000000"/>
    </radialGradient>
    <radialGradient cx="0" cy="0" gradientTransform="matrix(0.0286, 0.0, 0.0, 0.0286, -366.4, -1.0)" gradientUnits="userSpaceOnUse" id="gradient50" r="819.2" spreadMethod="pad">
      <stop offset="0.0" stop-color="#010101"/>
      <stop offset="1.0" stop-color="#000000"/>
    </radialGradient>
    <radialGradient cx="0" cy="0" gradientTransform="matrix(0.0234, 0.0, 0.0, 0.0234, -379.65, -15.6)" gradientUnits="userSpaceOnUse" id="gradient51" r="819.2" spreadMethod="pad">
      <stop offset="0.0" stop-color="#000000"/>
      <stop offset="1.0" stop-color="#000000"/>
    </radialGradient>
    <radialGradient cx="0" cy="0" gradientTransform="matrix(0.0387, 0.0, 0.0, 0.0387, -372.95, -17.55)" gradientUnits="userSpaceOnUse" id="gradient52" r="819.2" spreadMethod="pad">
      <stop offset="0.0" stop-color="#0d0d0d"/>
      <stop offset="1.0" stop-color="#020202"/>
    </radialGradient>
    <radialGradient cx="0" cy="0" gradientTransform="matrix(0.0243, 0.0, 0.0, 0.0243, -195.6, -1.0)" gradientUnits="userSpaceOnUse" id="gradient53" r="819.2" spreadMethod="pad">
      <stop offset="0.0" stop-color="#0a0a0a"/>
      <stop offset="1.0" stop-color="#020202"/>
    </radialGradient>
    <radialGradient cx="0" cy="0" gradientTransform="matrix(0.0101, 0.0, 0.0, 0.0101, -4.45, -4.9)" gradientUnits="userSpaceOnUse" id="gradient54" r="819.2" spreadMethod="pad">
      <stop offset="0.0" stop-color="#171717"/>
      <stop offset="1.0" stop-color="#070707"/>
    </radialGradient>
  </defs>
</svg>
