<?xml version="1.0" encoding="UTF-8" standalone="no"?>
<svg xmlns:xlink="http://www.w3.org/1999/xlink" height="244.6px" width="396.85px" xmlns="http://www.w3.org/2000/svg">
  <g transform="matrix(1.0, 0.0, 0.0, 1.0, 397.75, 245.5)">
    <path d="M-379.0 -73.5 Q-377.25 -70.5 -377.65 -69.9 L-386.25 -83.4 -392.9 -101.75 -395.65 -112.4 -397.75 -131.4 -396.9 -146.65 -395.4 -154.15 -389.75 -175.4 -389.15 -177.0 -383.0 -187.25 -370.65 -206.25 -356.15 -221.15 -338.25 -232.65 -318.4 -240.0 -306.75 -242.15 -284.25 -245.5 -261.75 -244.4 -241.15 -239.0 -221.65 -229.5 -204.75 -216.65 -189.75 -199.65 -178.9 -180.75 -171.4 -158.5 -168.9 -138.0 -170.25 -115.65 -176.15 -93.9 -186.0 -74.15 -198.0 -58.75 -198.65 -58.4 -199.4 -57.0 -216.15 -42.9 -210.5 -49.65 -202.9 -57.65 -200.4 -65.4 -200.0 -65.65 -197.25 -73.15 -197.25 -73.5 -206.65 -71.65 -207.75 -78.75 -209.9 -98.25 -234.4 -131.9 -251.5 -164.0 -252.4 -165.65 -259.25 -178.5 -257.25 -196.15 -255.15 -215.75 -255.4 -215.9 -270.25 -199.9 -273.65 -195.65 -285.75 -181.15 -283.9 -195.4 -280.15 -221.0 -283.4 -225.9 -294.65 -243.25 -295.25 -243.4 -310.9 -231.9 -329.4 -219.0 -329.65 -218.15 -336.5 -207.9 -345.25 -194.5 -352.0 -184.9 -359.15 -175.25 -361.15 -128.15 -361.5 -128.4 -368.5 -147.5 -368.9 -149.4 -371.15 -154.75 -376.0 -168.9 -376.4 -169.0 -380.75 -154.5 -380.65 -154.0 -383.15 -146.0 -383.5 -145.75 -383.4 -145.25 -390.25 -128.25 -390.9 -115.25 -391.4 -111.75 -390.9 -111.15 -386.15 -95.4 -385.25 -86.15 -379.0 -73.5 M-190.5 -86.65 L-190.5 -87.0 -199.15 -92.0 -199.9 -92.15 -206.25 -72.75 -206.15 -72.0 -190.5 -86.65" fill="url(#gradient0)" fill-rule="evenodd" stroke="none"/>
    <path d="M-216.15 -42.9 L-223.15 -44.75 -229.15 -48.0 -239.0 -39.5 Q-241.4 -37.4 -241.9 -37.5 L-247.9 -42.9 -263.0 -41.5 -263.25 -42.25 -263.25 -42.9 -263.25 -44.65 -254.15 -46.5 -233.15 -55.9 -219.25 -66.0 -207.75 -78.75 -206.65 -71.65 -197.25 -73.5 -197.25 -73.15 -200.0 -65.65 -200.4 -65.4 -202.9 -57.65 -210.5 -49.65 -216.15 -42.9 M-310.4 -46.65 L-336.9 -41.75 -365.4 -55.65 -376.0 -71.25 -376.25 -71.0 -375.75 -69.75 -376.15 -69.9 -379.0 -73.5 -385.25 -86.15 -386.15 -95.4 -390.9 -111.15 -391.4 -111.75 -390.9 -115.25 -390.25 -128.25 -383.4 -145.25 -383.5 -145.75 -383.15 -146.0 -380.65 -154.0 -380.75 -154.5 -376.4 -169.0 -376.0 -168.9 -371.15 -154.75 Q-374.75 -150.15 -374.0 -126.0 L-370.65 -109.25 -363.65 -92.75 -352.75 -77.25 -349.15 -71.4 -336.5 -59.9 -321.25 -51.15 -315.75 -48.9 -310.25 -47.25 -310.4 -46.65 M-336.5 -207.9 L-329.65 -218.15 -329.4 -219.0 -310.9 -231.9 -295.25 -243.4 -294.65 -243.25 -283.4 -225.9 -288.4 -225.75 -304.9 -223.25 -316.75 -218.4 -331.0 -211.75 -336.5 -207.9 M-190.5 -86.65 L-206.15 -72.0 -206.25 -72.75 -199.9 -92.15 -199.15 -92.0 -190.5 -87.0 -190.5 -86.65" fill="url(#gradient1)" fill-rule="evenodd" stroke="none"/>
    <path d="M-371.15 -154.75 L-368.9 -149.4 -368.5 -147.5 -361.5 -128.4 -361.15 -128.15 -359.15 -175.25 -352.0 -184.9 -354.5 -165.65 -354.15 -165.25 -352.9 -163.75 -350.25 -162.15 -345.4 -161.9 -312.25 -162.5 -303.65 -169.75 -301.75 -171.0 -300.5 -170.0 -291.25 -163.25 -291.25 -163.15 -251.5 -164.0 -234.4 -131.9 -209.9 -98.25 -207.75 -78.75 -219.25 -66.0 -233.15 -55.9 -254.15 -46.5 -263.25 -44.65 -263.15 -45.25 -264.0 -46.65 -265.25 -47.4 -268.15 -48.15 -273.5 -50.0 -272.5 -48.5 -275.65 -49.15 -279.4 -50.5 -283.9 -50.4 -293.4 -51.0 -299.65 -50.65 -304.65 -51.0 Q-305.0 -50.25 -310.25 -48.9 L-310.25 -47.25 -315.75 -48.9 -321.25 -51.15 -336.5 -59.9 -349.15 -71.4 -352.75 -77.25 -363.65 -92.75 -370.65 -109.25 -374.0 -126.0 Q-374.75 -150.15 -371.15 -154.75 M-345.25 -194.5 L-336.5 -207.9 -331.0 -211.75 -316.75 -218.4 -304.9 -223.25 -288.4 -225.75 -283.4 -225.9 -280.15 -221.0 -283.9 -195.4 -294.5 -194.9 -301.5 -189.65 -308.9 -194.5 -314.4 -195.15 -345.25 -194.5 M-273.65 -195.65 L-270.25 -199.9 -255.4 -215.9 -255.15 -215.75 -257.25 -196.15 -273.65 -195.65 M-322.4 -108.15 L-323.0 -107.5 Q-314.4 -100.65 -300.9 -99.5 -282.4 -103.75 -280.9 -108.65 L-322.4 -108.15 M-312.9 -115.0 L-318.9 -111.4 -322.65 -109.65 -281.5 -110.4 -292.9 -115.65 -296.9 -116.15 -300.9 -115.65 -302.9 -114.9 -307.75 -115.75 -309.75 -115.75 -312.9 -115.0" fill="url(#gradient2)" fill-rule="evenodd" stroke="none"/>
    <path d="M-352.0 -184.9 L-345.25 -194.5 -314.4 -195.15 -308.9 -194.5 -301.5 -189.65 -294.5 -194.9 -283.9 -195.4 -285.75 -181.15 -273.65 -195.65 -257.25 -196.15 -259.25 -178.5 -252.4 -165.65 -292.0 -164.5 -301.0 -171.15 -302.25 -172.0 -303.15 -172.75 -304.9 -171.4 -313.5 -164.25 -351.25 -163.5 -354.15 -165.25 -354.5 -165.65 -352.0 -184.9" fill="url(#gradient3)" fill-rule="evenodd" stroke="none"/>
    <path d="M-252.4 -165.65 L-251.5 -164.0 -291.25 -163.15 -291.25 -163.25 -292.0 -164.5 -252.4 -165.65" fill="url(#gradient4)" fill-rule="evenodd" stroke="none"/>
    <path d="M-304.9 -171.4 L-303.15 -172.75 -302.25 -172.0 -301.75 -171.0 -303.65 -169.75 -304.9 -171.4" fill="url(#gradient5)" fill-rule="evenodd" stroke="none"/>
    <path d="M-302.25 -172.0 L-301.0 -171.15 -300.5 -170.0 -301.75 -171.0 -302.25 -172.0" fill="url(#gradient6)" fill-rule="evenodd" stroke="none"/>
    <path d="M-313.5 -164.25 L-304.9 -171.4 -303.65 -169.75 -312.25 -162.5 -313.5 -164.25" fill="url(#gradient7)" fill-rule="evenodd" stroke="none"/>
    <path d="M-351.25 -163.5 L-313.5 -164.25 -312.25 -162.5 -345.4 -161.9 -350.25 -162.15 -351.25 -163.5" fill="url(#gradient8)" fill-rule="evenodd" stroke="none"/>
    <path d="M-354.15 -165.25 L-351.25 -163.5 -350.25 -162.15 -352.9 -163.75 -354.15 -165.25" fill="url(#gradient9)" fill-rule="evenodd" stroke="none"/>
    <path d="M-301.0 -171.15 L-292.0 -164.5 -291.25 -163.25 -300.5 -170.0 -301.0 -171.15" fill="url(#gradient10)" fill-rule="evenodd" stroke="none"/>
    <path d="M-312.9 -115.0 L-309.75 -115.75 -307.75 -115.75 -302.9 -114.9 -300.9 -115.65 -296.9 -116.15 -292.9 -115.65 -281.5 -110.4 -322.65 -109.65 -318.9 -111.4 -312.9 -115.0 M-303.4 -114.15 L-308.75 -115.15 Q-311.0 -116.25 -320.75 -110.0 L-288.5 -110.4 -284.0 -110.75 -287.4 -112.0 Q-288.4 -113.4 -293.0 -114.9 L-295.25 -115.4 Q-299.75 -115.75 -303.4 -114.15" fill="url(#gradient11)" fill-rule="evenodd" stroke="none"/>
    <path d="M-303.4 -114.15 Q-299.75 -115.75 -295.25 -115.4 L-293.0 -114.9 Q-288.4 -113.4 -287.4 -112.0 L-284.0 -110.75 -288.5 -110.4 -320.75 -110.0 Q-311.0 -116.25 -308.75 -115.15 L-303.4 -114.15" fill="url(#gradient12)" fill-rule="evenodd" stroke="none"/>
    <path d="M-322.4 -108.15 L-280.9 -108.65 Q-282.4 -103.75 -300.9 -99.5 -314.4 -100.65 -323.0 -107.5 L-322.4 -108.15 M-282.25 -108.0 L-322.4 -107.5 Q-315.25 -101.65 -302.25 -99.9 -289.0 -101.65 -282.25 -108.0" fill="url(#gradient13)" fill-rule="evenodd" stroke="none"/>
    <path d="M-282.25 -108.0 Q-289.0 -101.65 -302.25 -99.9 -315.25 -101.65 -322.4 -107.5 L-282.25 -108.0" fill="url(#gradient14)" fill-rule="evenodd" stroke="none"/>
    <path d="M-3.9 -63.5 L-4.75 -66.65 -3.9 -67.0 -3.75 -67.15 -0.9 -67.75 -0.9 -64.0 -1.9 -63.9 -2.0 -63.9 -2.25 -63.75 -2.65 -63.75 -3.15 -63.65 -3.4 -63.5 -3.9 -63.5" fill="url(#gradient15)" fill-rule="evenodd" stroke="none"/>
    <path d="M-5.4 -62.15 L-5.15 -63.0 -3.9 -63.4 -3.9 -63.5 -3.4 -63.5 -3.15 -63.65 -2.65 -63.75 -2.25 -63.75 -2.0 -63.9 -1.9 -63.9 -0.9 -64.0 -0.9 -62.9 -1.25 -62.9 -1.65 -62.75 -5.4 -62.15" fill="url(#gradient16)" fill-rule="evenodd" stroke="none"/>
    <path d="M-8.0 -57.0 L-6.4 -61.4 -5.4 -62.15 -1.65 -62.75 -3.9 -57.65 -4.25 -57.5 -8.0 -57.0" fill="url(#gradient17)" fill-rule="evenodd" stroke="none"/>
    <path d="M-0.9 -62.9 L-0.9 -59.25 -1.5 -58.9 -1.65 -58.25 -0.9 -43.4 -0.9 -41.25 -2.15 -41.15 -3.15 -54.15 -3.9 -57.65 -1.65 -62.75 -1.25 -62.9 -0.9 -62.9" fill="url(#gradient18)" fill-rule="evenodd" stroke="none"/>
    <path d="M-0.9 -59.25 L-0.9 -43.4 -1.65 -58.25 -1.5 -58.9 -0.9 -59.25 M-4.9 -44.9 L-11.75 -51.9 -11.75 -52.4 -9.5 -52.5 Q-13.25 -51.25 -9.25 -51.75 L-9.5 -52.0 -9.0 -52.25 -9.5 -53.25 -11.15 -53.15 -11.0 -53.5 -9.4 -53.5 -10.0 -54.4 -10.75 -54.4 -10.9 -54.75 -10.15 -55.15 -6.5 -56.25 -8.15 -55.4 -4.5 -54.9 -4.65 -54.75 -4.65 -54.15 -4.75 -53.65 -4.9 -44.9 M-12.9 -53.0 L-13.0 -53.25 -12.75 -54.15 -13.15 -53.5 -13.25 -53.65 -13.0 -54.65 -12.75 -54.25 -12.75 -54.75 -12.4 -54.9 -12.65 -54.15 -12.15 -54.75 -12.75 -53.25 -11.4 -54.75 -12.25 -53.75 -11.9 -53.9 -11.65 -53.25 -12.9 -53.0 M-11.0 -54.15 L-11.4 -54.0 -11.15 -54.25 -11.0 -54.15 M-4.4 -55.65 L-5.9 -55.75 -4.9 -56.25 -6.0 -56.25 -4.4 -56.4 -4.4 -55.65 M-7.5 -54.25 L-7.4 -53.75 -6.9 -53.75 -7.0 -54.0 -5.25 -54.15 -5.0 -53.9 -4.9 -54.4 -7.5 -54.25 M-8.65 -52.65 L-8.5 -53.1 -9.0 -53.0 -8.65 -52.65 M-8.75 -54.25 L-8.4 -54.4 -8.75 -54.0 -8.4 -53.75 -8.15 -54.0 -8.25 -54.25 -8.15 -54.65 -9.0 -55.0 -8.75 -54.25 M-5.75 -48.0 L-5.65 -48.25 -6.5 -48.25 -6.15 -48.15 -6.4 -47.65 -6.15 -47.5 -5.5 -47.65 -5.9 -47.4 -5.65 -47.25 -5.25 -47.75 -5.75 -48.0 M-9.9 -50.65 L-9.65 -51.0 -8.25 -51.15 -10.5 -51.15 -9.9 -50.65 M-8.65 -49.75 L-7.9 -50.4 -9.5 -50.4 -8.65 -49.75 M-8.9 -52.5 L-8.5 -51.75 -8.4 -52.15 -8.9 -52.5 M-7.65 -49.75 L-6.65 -49.5 -7.0 -49.9 -7.65 -49.75" fill="url(#gradient19)" fill-rule="evenodd" stroke="none"/>
    <path d="M-8.4 -56.5 L-8.0 -57.0 -4.25 -57.5 -3.9 -57.65 -4.25 -57.0 -4.5 -57.15 -4.9 -57.0 -5.65 -57.0 -5.75 -56.9 -7.25 -56.65 -7.9 -56.65 -8.15 -56.5 -8.4 -56.5" fill="url(#gradient20)" fill-rule="evenodd" stroke="none"/>
    <path d="M-9.0 -56.15 L-8.4 -56.5 -8.15 -56.5 -7.9 -56.65 -7.25 -56.65 -5.75 -56.9 -5.65 -56.9 -5.65 -57.0 -4.9 -57.0 -4.5 -57.15 -4.5 -57.0 -4.9 -56.9 -5.75 -56.5 -6.0 -56.5 -9.0 -56.15" fill="url(#gradient21)" fill-rule="evenodd" stroke="none"/>
    <path d="M-12.5 -55.15 L-11.75 -55.25 -10.15 -55.15 -10.9 -54.75 -10.75 -54.4 -10.0 -54.4 -9.4 -53.5 -11.0 -53.5 -11.15 -53.15 -9.5 -53.25 -9.0 -52.25 -9.5 -52.0 -9.25 -51.75 Q-13.25 -51.25 -9.5 -52.5 L-11.75 -52.4 -11.75 -51.9 -12.5 -52.5 -12.9 -53.0 -11.65 -53.25 -11.9 -53.9 -12.25 -53.75 -11.4 -54.75 -12.75 -53.25 -12.15 -54.75 -12.65 -54.15 -12.4 -54.9 -12.75 -54.75 -12.5 -55.15 M-13.0 -53.25 L-13.15 -53.5 -12.75 -54.15 -13.0 -53.25 M-12.75 -54.75 L-12.75 -54.25 -13.0 -54.65 -12.75 -54.75 M-11.0 -54.15 L-11.15 -54.25 -11.4 -54.0 -11.0 -54.15 M-4.5 -57.15 L-4.25 -57.0 -4.4 -56.4 -6.0 -56.25 -4.9 -56.25 -5.9 -55.75 -4.4 -55.65 -4.5 -54.9 -8.15 -55.4 -6.5 -56.25 -6.0 -56.5 -5.75 -56.5 -4.9 -56.9 -4.5 -57.0 -4.5 -57.15 M-8.75 -54.25 L-9.0 -55.0 -8.15 -54.65 -8.25 -54.25 -8.15 -54.0 -8.4 -53.75 -8.75 -54.0 -8.4 -54.4 -8.75 -54.25 M-8.65 -52.65 L-9.0 -53.0 -8.5 -53.1 -8.65 -52.65 M-7.5 -54.25 L-4.9 -54.4 -5.0 -53.9 -5.25 -54.15 -7.0 -54.0 -6.9 -53.75 -7.4 -53.75 -7.5 -54.25 M-7.65 -49.75 L-7.0 -49.9 -6.65 -49.5 -7.65 -49.75 M-8.9 -52.5 L-8.4 -52.15 -8.5 -51.75 -8.9 -52.5 M-8.65 -49.75 L-9.5 -50.4 -7.9 -50.4 -8.65 -49.75 M-9.9 -50.65 L-10.5 -51.15 -8.25 -51.15 -9.65 -51.0 -9.9 -50.65 M-5.75 -48.0 L-5.25 -47.75 -5.65 -47.25 -5.9 -47.4 -5.5 -47.65 -6.15 -47.5 -6.4 -47.65 -6.15 -48.15 -6.5 -48.25 -5.65 -48.25 -5.75 -48.0" fill="url(#gradient22)" fill-rule="evenodd" stroke="none"/>
    <path d="M-11.75 -55.25 L-9.0 -56.15 -6.0 -56.5 -6.5 -56.25 -10.15 -55.15 -11.75 -55.25" fill="url(#gradient23)" fill-rule="evenodd" stroke="none"/>
    <path d="M-4.25 -57.0 L-3.9 -57.65 -3.15 -54.15 -2.15 -41.15 -4.65 -41.4 -4.9 -41.5 -4.65 -44.75 -4.9 -44.9 -4.75 -53.65 -4.65 -54.15 -4.65 -54.75 -4.5 -54.9 -4.4 -55.65 -4.4 -56.4 -4.25 -57.0" fill="url(#gradient24)" fill-rule="evenodd" stroke="none"/>
    <path d="M-9.15 -41.5 L-9.15 -44.65 -9.0 -44.65 -4.9 -44.9 -4.65 -44.75 -4.9 -41.5 -5.5 -41.5 -9.15 -41.5 M-5.75 -56.9 L-5.65 -57.0 -5.65 -56.9 -5.75 -56.9" fill="url(#gradient25)" fill-rule="evenodd" stroke="none"/>
    <path d="M-16.65 -54.15 L-16.15 -54.65 -12.5 -55.15 -12.75 -54.75 -13.0 -54.65 -16.65 -54.15" fill="url(#gradient26)" fill-rule="evenodd" stroke="none"/>
    <path d="M-9.15 -44.65 L-17.0 -52.75 -17.15 -53.5 -16.65 -54.15 -13.0 -54.65 -13.25 -53.65 -13.15 -53.5 -13.0 -53.25 -12.9 -53.0 -12.5 -52.5 -11.75 -51.9 -4.9 -44.9 -9.0 -44.65 -9.15 -44.65" fill="url(#gradient27)" fill-rule="evenodd" stroke="none"/>
    <path d="M-272.5 -48.5 L-273.5 -50.0 -268.15 -48.15 -269.15 -43.4 -272.5 -48.5" fill="url(#gradient28)" fill-rule="evenodd" stroke="none"/>
    <path d="M-268.15 -48.15 L-265.25 -47.4 -264.0 -46.65 -263.15 -45.25 -263.25 -44.65 -263.25 -42.9 -263.5 -42.75 -264.25 -43.5 -264.4 -43.25 -263.9 -36.25 -264.15 -35.5 -264.9 -35.15 -266.9 -36.15 -268.15 -36.9 -269.15 -41.15 -269.15 -43.4 -268.15 -48.15" fill="url(#gradient29)" fill-rule="evenodd" stroke="none"/>
    <path d="M-315.65 -34.9 L-311.4 -38.65 -311.25 -38.9 -310.4 -46.65 -310.25 -47.25 -310.25 -48.9 Q-305.0 -50.25 -304.65 -51.0 L-299.65 -50.65 -293.4 -51.0 -283.9 -50.4 -279.4 -50.5 -275.65 -49.15 -272.5 -48.5 -269.15 -43.4 -269.15 -41.15 -270.15 -37.4 -269.75 -37.15 -264.25 -31.4 -277.0 -34.75 -315.65 -34.9" fill="url(#gradient30)" fill-rule="evenodd" stroke="none"/>
    <path d="M-0.9 -41.25 L-0.9 -39.0 -2.65 -38.65 -4.15 -36.5 -11.4 -34.5 -14.65 -32.9 -15.15 -32.4 -15.15 -31.75 -14.75 -30.9 -15.4 -30.75 -15.75 -32.25 -14.25 -34.5 -11.65 -36.9 -5.5 -41.5 -4.9 -41.5 -4.65 -41.4 -2.15 -41.15 -0.9 -41.25 M-0.9 -35.15 L-0.9 -34.75 -2.75 -34.65 -4.65 -34.15 -2.9 -34.9 -0.9 -35.15" fill="url(#gradient31)" fill-rule="evenodd" stroke="none"/>
    <path d="M-19.25 -32.5 L-18.75 -33.65 -17.25 -35.25 -9.15 -41.5 -5.5 -41.5 -11.65 -36.9 -14.25 -34.5 -15.75 -32.25 -19.25 -32.5" fill="url(#gradient32)" fill-rule="evenodd" stroke="none"/>
    <path d="M-263.25 -42.9 L-263.25 -42.25 -263.5 -42.75 -263.25 -42.9" fill="url(#gradient33)" fill-rule="evenodd" stroke="none"/>
    <path d="M-263.0 -41.5 L-262.4 -34.5 -261.4 -33.65 -264.9 -35.15 -264.15 -35.5 -263.9 -36.25 -264.4 -43.25 -264.25 -43.5 -263.5 -42.75 -263.25 -42.25 -263.0 -41.5 M-269.75 -37.15 L-270.15 -37.4 -269.15 -41.15 -268.15 -36.9 -266.9 -36.15 -269.75 -37.15" fill="url(#gradient34)" fill-rule="evenodd" stroke="none"/>
    <path d="M-261.4 -33.65 L-253.4 -29.9 -260.4 -30.75 -260.65 -30.75 -261.25 -30.9 -261.65 -30.9 -262.0 -31.0 -263.9 -31.25 -264.25 -31.4 -269.75 -37.15 -266.9 -36.15 -264.9 -35.15 -261.4 -33.65" fill="url(#gradient35)" fill-rule="evenodd" stroke="none"/>
    <path d="M-251.4 -0.9 L-342.9 -0.9 -324.0 -28.65 -322.0 -28.75 -321.0 -31.0 -322.4 -30.9 -321.9 -31.75 -321.75 -32.0 -315.65 -34.9 -277.0 -34.75 -264.25 -31.4 -263.9 -31.25 -263.9 -31.0 -263.75 -30.65 -264.65 -30.65 -264.5 -30.4 -262.9 -28.75 -251.4 -0.9" fill="url(#gradient36)" fill-rule="evenodd" stroke="none"/>
    <path d="M-357.9 -21.4 L-355.65 -22.15 -341.8 -26.3 -338.15 -27.4 -338.0 -27.4 -334.25 -28.5 -333.9 -28.65 -333.4 -28.75 -333.0 -28.9 -332.5 -29.0 -332.15 -29.15 -331.25 -29.4 -331.0 -29.4 -321.75 -32.0 -321.9 -31.75 -323.4 -30.75 -323.65 -30.65 -325.5 -30.4 -325.4 -29.4 -364.75 -1.4 -357.9 -21.4" fill="url(#gradient37)" fill-rule="evenodd" stroke="none"/>
    <path d="M-355.65 -22.15 L-352.75 -23.25 -341.8 -26.3 -355.65 -22.15" fill="url(#gradient38)" fill-rule="evenodd" stroke="none"/>
    <path d="M-0.9 -39.0 L-0.9 -35.15 -2.9 -34.9 -4.65 -34.15 -4.75 -34.15 -7.15 -33.4 -7.5 -33.25 -7.9 -33.15 -8.25 -33.0 -8.4 -32.9 -14.75 -30.9 -15.15 -31.75 -15.15 -32.4 -14.65 -32.9 -11.4 -34.5 -4.15 -36.5 -2.65 -38.65 -0.9 -39.0" fill="url(#gradient39)" fill-rule="evenodd" stroke="none"/>
    <path d="M-0.9 -34.75 L-1.15 -34.25 -2.75 -34.65 -0.9 -34.75" fill="url(#gradient40)" fill-rule="evenodd" stroke="none"/>
    <path d="M-15.4 -30.75 L-18.9 -31.15 -19.25 -32.5 -15.75 -32.25 -15.4 -30.75" fill="url(#gradient41)" fill-rule="evenodd" stroke="none"/>
    <path d="M-342.9 -0.9 L-364.75 -0.9 -364.75 -1.4 -325.4 -29.4 -324.0 -28.65 -342.9 -0.9 M-323.4 -30.75 L-321.9 -31.75 -322.4 -30.9 -323.4 -30.75" fill="url(#gradient42)" fill-rule="evenodd" stroke="none"/>
    <path d="M-262.9 -28.75 L-264.5 -30.4 -264.65 -30.65 -263.75 -30.65 -263.25 -30.5 -259.5 -30.15 -261.15 -29.75 -261.5 -28.65 -262.9 -28.75 M-325.4 -29.4 L-325.5 -30.4 -323.65 -30.65 -323.4 -30.75 -322.4 -30.9 -321.0 -31.0 -322.0 -28.75 -324.0 -28.65 -325.4 -29.4" fill="url(#gradient43)" fill-rule="evenodd" stroke="none"/>
    <path d="M-213.0 -0.9 L-236.5 -0.9 -261.5 -28.65 -261.15 -29.75 -259.5 -30.15 -263.25 -30.5 -263.75 -30.65 -263.9 -31.0 -263.9 -31.25 -262.0 -31.0 -261.65 -30.9 -261.25 -30.9 -260.65 -30.75 -260.4 -30.75 -219.0 -24.15 -218.65 -23.75 -213.25 -3.65 -213.0 -0.9" fill="url(#gradient44)" fill-rule="evenodd" stroke="none"/>
    <path d="M-236.5 -0.9 L-251.4 -0.9 -262.9 -28.75 -261.5 -28.65 -236.5 -0.9" fill="url(#gradient45)" fill-rule="evenodd" stroke="none"/>
    <path d="M-253.4 -29.9 L-217.15 -25.15 -194.4 -9.25 -195.25 -4.25 -217.9 -23.5 -218.65 -23.75 -219.0 -24.15 -260.4 -30.75 -253.4 -29.9" fill="url(#gradient46)" fill-rule="evenodd" stroke="none"/>
    <path d="M-213.25 -3.65 L-218.65 -23.75 -217.9 -23.5 -195.25 -4.25 -213.25 -3.65" fill="url(#gradient47)" fill-rule="evenodd" stroke="none"/>
    <path d="M-188.0 -0.9 L-213.0 -0.9 -213.25 -3.65 -195.25 -4.25 -188.0 -0.9" fill="url(#gradient48)" fill-rule="evenodd" stroke="none"/>
    <path d="M-194.4 -9.25 L-176.0 -1.0 -188.0 -0.9 -195.25 -4.25 -194.4 -9.25" fill="url(#gradient49)" fill-rule="evenodd" stroke="none"/>
    <path d="M-364.75 -0.9 L-381.5 -0.9 -378.4 -13.4 -378.15 -13.75 -357.9 -21.4 -364.75 -1.4 -364.75 -0.9" fill="url(#gradient50)" fill-rule="evenodd" stroke="none"/>
    <path d="M-381.5 -0.9 L-389.15 -0.9 -382.0 -9.25 -381.9 -9.5 -378.4 -13.4 -381.5 -0.9" fill="url(#gradient51)" fill-rule="evenodd" stroke="none"/>
    <path d="M-389.15 -0.9 L-397.25 -1.0 -381.9 -9.5 -382.0 -9.25 -389.15 -0.9" fill="url(#gradient52)" fill-rule="evenodd" stroke="none"/>
    <path d="M-0.9 -5.15 L-0.9 -0.9 -8.65 -0.9 -1.25 -5.15 -0.9 -5.15" fill="url(#gradient53)" fill-rule="evenodd" stroke="none"/>
    <path d="M-340.15 -44.15 L-334.65 -44.25 -334.5 -44.4 -331.75 -44.5 -332.4 -43.4 -335.15 -43.65 -335.25 -43.5 -339.25 -43.9 -339.5 -44.0 -340.15 -44.15 M-252.15 -43.15 L-252.75 -42.4 -261.65 -41.5 -261.5 -42.15 -261.5 -42.5 -264.4 -43.25 -264.5 -43.25 -264.4 -43.4 -252.15 -43.15" fill="#a90000" fill-rule="evenodd" stroke="none"/>
    <path d="M-329.9 -43.0 L-332.4 -43.4 -332.9 -42.5 -333.15 -42.4 -336.75 -41.75 -336.9 -41.9 -337.25 -42.15 -340.9 -43.65 -340.15 -44.15 -339.5 -44.0 -339.25 -43.9 -335.25 -43.5 -335.15 -43.65 -332.4 -43.4 -331.75 -44.5 -326.4 -43.75 -329.9 -43.0 M-341.25 -26.4 L-341.25 -26.25 -343.4 -16.65 -343.65 -16.25 -343.5 -15.9 -346.4 -3.5 -347.75 -0.9 -357.65 -0.9 -357.65 -1.15 -356.4 -3.15 -355.25 -7.9 -355.0 -8.4 -351.25 -23.4 -351.15 -23.65 -341.25 -26.4 M-251.9 -42.5 L-252.75 -42.4 -252.15 -43.15 -251.9 -42.5 M-258.4 -32.15 L-253.4 -29.9 -248.9 -29.25 -249.0 -28.9 -249.15 -23.15 -249.65 -15.5 -249.5 -15.15 -250.15 -0.9 -260.5 -0.9 -259.75 -8.4 -259.9 -9.0 -259.25 -15.15 -259.4 -16.5 -259.0 -19.0 -259.15 -20.0 -258.65 -25.25 -258.75 -25.65 -258.4 -30.4 -258.25 -30.4 -258.4 -32.15 M-264.5 -43.25 L-264.4 -43.25 -261.5 -42.5 -261.5 -42.15 -261.65 -41.5 -263.0 -41.5 -263.0 -40.65 -263.65 -41.4 -263.75 -41.65 -264.0 -41.9 -264.25 -42.4 -264.25 -42.5 -264.4 -42.5 -264.5 -42.9 -264.5 -43.25" fill="#9b0000" fill-opacity="0.9098039" fill-rule="evenodd" stroke="none"/>
    <path d="M-326.4 -43.75 L-325.75 -43.75 -321.9 -43.25 -311.4 -39.65 -311.25 -38.9 -311.4 -38.65 -312.9 -37.4 -314.9 -37.75 -329.9 -43.0 -326.4 -43.75 M-333.15 -42.4 L-340.0 -31.5 -341.15 -26.65 -341.15 -26.5 -341.25 -26.4 -351.15 -23.65 -349.15 -31.65 -340.9 -43.65 -337.25 -42.15 -336.9 -41.9 -336.75 -41.75 -333.15 -42.4 M-252.75 -42.4 L-251.9 -42.5 -249.0 -33.0 -248.9 -29.25 -253.4 -29.9 -258.4 -32.15 -258.65 -32.4 -260.15 -35.15 -254.25 -36.9 -254.15 -38.65 Q-253.15 -39.5 -252.75 -42.4 M-263.0 -40.65 L-263.0 -41.5 -261.65 -41.5 -261.9 -40.0 -262.4 -39.4 -262.65 -39.5 -263.0 -40.65 M-260.15 -35.15 L-262.5 -34.75 -262.65 -38.75 -262.4 -39.0 -260.15 -35.15" fill="#ab0000" fill-opacity="0.9098039" fill-rule="evenodd" stroke="none"/>
    <path d="M-252.75 -42.4 Q-253.15 -39.5 -254.15 -38.65 L-254.25 -36.9 -260.15 -35.15 -262.4 -39.0 -262.4 -39.4 -261.9 -40.0 -261.65 -41.5 -252.75 -42.4" fill="#ab0000" fill-rule="evenodd" stroke="none"/>
  </g>
  <defs>
    <radialGradient cx="0" cy="0" gradientTransform="matrix(0.2457, 0.0, 0.0, 0.2457, -368.85, -149.15)" gradientUnits="userSpaceOnUse" id="gradient0" r="819.2" spreadMethod="pad">
      <stop offset="0.0" stop-color="#494949"/>
      <stop offset="1.0" stop-color="#1e1e1e"/>
    </radialGradient>
    <radialGradient cx="0" cy="0" gradientTransform="matrix(0.2506, 0.0, 0.0, 0.2506, -209.1, -79.5)" gradientUnits="userSpaceOnUse" id="gradient1" r="819.2" spreadMethod="pad">
      <stop offset="0.0" stop-color="#555555"/>
      <stop offset="1.0" stop-color="#161616"/>
    </radialGradient>
    <radialGradient cx="0" cy="0" gradientTransform="matrix(0.2133, 0.0, 0.0, 0.2133, -370.95, -110.4)" gradientUnits="userSpaceOnUse" id="gradient2" r="819.2" spreadMethod="pad">
      <stop offset="0.0" stop-color="#7e7e7e"/>
      <stop offset="1.0" stop-color="#000000"/>
    </radialGradient>
    <radialGradient cx="0" cy="0" gradientTransform="matrix(0.1319, 0.0, 0.0, 0.1319, -354.55, -165.7)" gradientUnits="userSpaceOnUse" id="gradient3" r="819.2" spreadMethod="pad">
      <stop offset="0.0" stop-color="#767676"/>
      <stop offset="1.0" stop-color="#767676"/>
    </radialGradient>
    <radialGradient cx="0" cy="0" gradientTransform="matrix(0.0489, 0.0, 0.0, 0.0489, -251.95, -165.75)" gradientUnits="userSpaceOnUse" id="gradient4" r="819.2" spreadMethod="pad">
      <stop offset="0.0" stop-color="#767676"/>
      <stop offset="1.0" stop-color="#767676"/>
    </radialGradient>
    <radialGradient cx="0" cy="0" gradientTransform="matrix(0.0037, 0.0, 0.0, 0.0037, -304.8, -171.45)" gradientUnits="userSpaceOnUse" id="gradient5" r="819.2" spreadMethod="pad">
      <stop offset="0.0" stop-color="#e2e2e2"/>
      <stop offset="1.0" stop-color="#e0e0e0"/>
    </radialGradient>
    <radialGradient cx="0" cy="0" gradientTransform="matrix(0.0027, 0.0, 0.0, 0.0027, -301.25, -171.5)" gradientUnits="userSpaceOnUse" id="gradient6" r="819.2" spreadMethod="pad">
      <stop offset="0.0" stop-color="#8c8c8c"/>
      <stop offset="1.0" stop-color="#8c8c8c"/>
    </radialGradient>
    <radialGradient cx="0" cy="0" gradientTransform="matrix(0.0137, 0.0, 0.0, 0.0137, -313.5, -164.3)" gradientUnits="userSpaceOnUse" id="gradient7" r="819.2" spreadMethod="pad">
      <stop offset="0.0" stop-color="#e1e1e1"/>
      <stop offset="1.0" stop-color="#dedede"/>
    </radialGradient>
    <radialGradient cx="0" cy="0" gradientTransform="matrix(0.0461, 0.0, 0.0, 0.0461, -313.5, -164.3)" gradientUnits="userSpaceOnUse" id="gradient8" r="819.2" spreadMethod="pad">
      <stop offset="0.0" stop-color="#767676"/>
      <stop offset="1.0" stop-color="#767676"/>
    </radialGradient>
    <radialGradient cx="0" cy="0" gradientTransform="matrix(0.0047, 0.0, 0.0, 0.0047, -351.3, -163.6)" gradientUnits="userSpaceOnUse" id="gradient9" r="819.2" spreadMethod="pad">
      <stop offset="0.0" stop-color="#838383"/>
      <stop offset="1.0" stop-color="#838383"/>
    </radialGradient>
    <radialGradient cx="0" cy="0" gradientTransform="matrix(0.0141, 0.0, 0.0, 0.0141, -291.95, -164.6)" gradientUnits="userSpaceOnUse" id="gradient10" r="819.2" spreadMethod="pad">
      <stop offset="0.0" stop-color="#8b8b8b"/>
      <stop offset="1.0" stop-color="#8b8b8b"/>
    </radialGradient>
    <radialGradient cx="0" cy="0" gradientTransform="matrix(0.0444, 0.0, 0.0, 0.0444, -286.4, -111.8)" gradientUnits="userSpaceOnUse" id="gradient11" r="819.2" spreadMethod="pad">
      <stop offset="0.0" stop-color="#ff5151"/>
      <stop offset="1.0" stop-color="#330000"/>
    </radialGradient>
    <radialGradient cx="0" cy="0" gradientTransform="matrix(0.0428, 0.0, 0.0, 0.0428, -285.75, -111.45)" gradientUnits="userSpaceOnUse" id="gradient12" r="819.2" spreadMethod="pad">
      <stop offset="0.0" stop-color="#ff5151"/>
      <stop offset="1.0" stop-color="#ff4c4c"/>
    </radialGradient>
    <radialGradient cx="0" cy="0" gradientTransform="matrix(0.0465, 0.0, 0.0, 0.0465, -285.15, -105.0)" gradientUnits="userSpaceOnUse" id="gradient13" r="819.2" spreadMethod="pad">
      <stop offset="0.0" stop-color="#f89797"/>
      <stop offset="1.0" stop-color="#4f1818"/>
    </radialGradient>
    <radialGradient cx="0" cy="0" gradientTransform="matrix(0.0349, 0.0, 0.0, 0.0349, -294.55, -101.6)" gradientUnits="userSpaceOnUse" id="gradient14" r="819.2" spreadMethod="pad">
      <stop offset="0.0" stop-color="#ff3030"/>
      <stop offset="1.0" stop-color="#ff2d2d"/>
    </radialGradient>
    <radialGradient cx="0" cy="0" gradientTransform="matrix(0.0062, 0.0, 0.0, 0.0062, -1.0, -67.8)" gradientUnits="userSpaceOnUse" id="gradient15" r="819.2" spreadMethod="pad">
      <stop offset="0.0" stop-color="#262626"/>
      <stop offset="1.0" stop-color="#262626"/>
    </radialGradient>
    <radialGradient cx="0" cy="0" gradientTransform="matrix(0.0121, 0.0, 0.0, 0.0121, -1.0, -64.05)" gradientUnits="userSpaceOnUse" id="gradient16" r="819.2" spreadMethod="pad">
      <stop offset="0.0" stop-color="#303030"/>
      <stop offset="1.0" stop-color="#303030"/>
    </radialGradient>
    <radialGradient cx="0" cy="0" gradientTransform="matrix(0.0102, 0.0, 0.0, 0.0102, -1.7, -62.6)" gradientUnits="userSpaceOnUse" id="gradient17" r="819.2" spreadMethod="pad">
      <stop offset="0.0" stop-color="#828282"/>
      <stop offset="1.0" stop-color="#808080"/>
    </radialGradient>
    <radialGradient cx="0" cy="0" gradientTransform="matrix(0.0206, 0.0, 0.0, 0.0206, -1.7, -58.1)" gradientUnits="userSpaceOnUse" id="gradient18" r="819.2" spreadMethod="pad">
      <stop offset="0.0" stop-color="#171717"/>
      <stop offset="1.0" stop-color="#171717"/>
    </radialGradient>
    <radialGradient cx="0" cy="0" gradientTransform="matrix(0.019, 0.0, 0.0, 0.019, -3.65, -57.4)" gradientUnits="userSpaceOnUse" id="gradient19" r="819.2" spreadMethod="pad">
      <stop offset="0.0" stop-color="#040404"/>
      <stop offset="1.0" stop-color="#040404"/>
    </radialGradient>
    <radialGradient cx="0" cy="0" gradientTransform="matrix(0.0054, 0.0, 0.0, 0.0054, -8.0, -57.0)" gradientUnits="userSpaceOnUse" id="gradient20" r="819.2" spreadMethod="pad">
      <stop offset="0.0" stop-color="#222222"/>
      <stop offset="1.0" stop-color="#222222"/>
    </radialGradient>
    <radialGradient cx="0" cy="0" gradientTransform="matrix(0.007, 0.0, 0.0, 0.007, -7.75, -56.8)" gradientUnits="userSpaceOnUse" id="gradient21" r="819.2" spreadMethod="pad">
      <stop offset="0.0" stop-color="#171717"/>
      <stop offset="1.0" stop-color="#171717"/>
    </radialGradient>
    <radialGradient cx="0" cy="0" gradientTransform="matrix(0.0087, 0.0, 0.0, 0.0087, -5.95, -53.35)" gradientUnits="userSpaceOnUse" id="gradient22" r="819.2" spreadMethod="pad">
      <stop offset="0.0" stop-color="#171717"/>
      <stop offset="1.0" stop-color="#171717"/>
    </radialGradient>
    <radialGradient cx="0" cy="0" gradientTransform="matrix(0.0124, 0.0, 0.0, 0.0124, -4.5, -57.0)" gradientUnits="userSpaceOnUse" id="gradient23" r="819.2" spreadMethod="pad">
      <stop offset="0.0" stop-color="#040404"/>
      <stop offset="1.0" stop-color="#040404"/>
    </radialGradient>
    <radialGradient cx="0" cy="0" gradientTransform="matrix(0.0203, 0.0, 0.0, 0.0203, -2.0, -41.2)" gradientUnits="userSpaceOnUse" id="gradient24" r="819.2" spreadMethod="pad">
      <stop offset="0.0" stop-color="#020202"/>
      <stop offset="1.0" stop-color="#020202"/>
    </radialGradient>
    <radialGradient cx="0" cy="0" gradientTransform="matrix(0.0187, 0.0, 0.0, 0.0187, -8.4, -56.6)" gradientUnits="userSpaceOnUse" id="gradient25" r="819.2" spreadMethod="pad">
      <stop offset="0.0" stop-color="#212121"/>
      <stop offset="1.0" stop-color="#202020"/>
    </radialGradient>
    <radialGradient cx="0" cy="0" gradientTransform="matrix(0.0057, 0.0, 0.0, 0.0057, -12.65, -54.85)" gradientUnits="userSpaceOnUse" id="gradient26" r="819.2" spreadMethod="pad">
      <stop offset="0.0" stop-color="#828282"/>
      <stop offset="1.0" stop-color="#606060"/>
    </radialGradient>
    <radialGradient cx="0" cy="0" gradientTransform="matrix(0.0155, 0.0, 0.0, 0.0155, -13.05, -54.45)" gradientUnits="userSpaceOnUse" id="gradient27" r="819.2" spreadMethod="pad">
      <stop offset="0.0" stop-color="#303030"/>
      <stop offset="1.0" stop-color="#242424"/>
    </radialGradient>
    <radialGradient cx="0" cy="0" gradientTransform="matrix(0.0234, 0.0, 0.0, 0.0234, -279.75, -59.4)" gradientUnits="userSpaceOnUse" id="gradient28" r="819.2" spreadMethod="pad">
      <stop offset="0.0" stop-color="#797979"/>
      <stop offset="1.0" stop-color="#000000"/>
    </radialGradient>
    <radialGradient cx="0" cy="0" gradientTransform="matrix(0.0572, 0.0, 0.0, 0.0572, -263.0, -47.3)" gradientUnits="userSpaceOnUse" id="gradient29" r="819.2" spreadMethod="pad">
      <stop offset="0.0" stop-color="#101010"/>
      <stop offset="1.0" stop-color="#000000"/>
    </radialGradient>
    <radialGradient cx="0" cy="0" gradientTransform="matrix(0.0609, 0.0, 0.0, 0.0609, -310.05, -50.55)" gradientUnits="userSpaceOnUse" id="gradient30" r="819.2" spreadMethod="pad">
      <stop offset="0.0" stop-color="#1a1a1a"/>
      <stop offset="1.0" stop-color="#000000"/>
    </radialGradient>
    <radialGradient cx="0" cy="0" gradientTransform="matrix(0.0173, 0.0, 0.0, 0.0173, -1.65, -34.95)" gradientUnits="userSpaceOnUse" id="gradient31" r="819.2" spreadMethod="pad">
      <stop offset="0.0" stop-color="#040404"/>
      <stop offset="1.0" stop-color="#040404"/>
    </radialGradient>
    <radialGradient cx="0" cy="0" gradientTransform="matrix(0.0171, 0.0, 0.0, 0.0171, -15.45, -32.65)" gradientUnits="userSpaceOnUse" id="gradient32" r="819.2" spreadMethod="pad">
      <stop offset="0.0" stop-color="#313131"/>
      <stop offset="1.0" stop-color="#222222"/>
    </radialGradient>
    <radialGradient cx="0" cy="0" gradientTransform="matrix(0.0657, 0.0, 0.0, 0.0657, -262.75, -54.75)" gradientUnits="userSpaceOnUse" id="gradient33" r="819.2" spreadMethod="pad">
      <stop offset="0.0" stop-color="#1a1a1a"/>
      <stop offset="1.0" stop-color="#151515"/>
    </radialGradient>
    <radialGradient cx="0" cy="0" gradientTransform="matrix(0.0371, 0.0, 0.0, 0.0371, -263.2, -42.55)" gradientUnits="userSpaceOnUse" id="gradient34" r="819.2" spreadMethod="pad">
      <stop offset="0.0" stop-color="#7b7b7b"/>
      <stop offset="1.0" stop-color="#090909"/>
    </radialGradient>
    <radialGradient cx="0" cy="0" gradientTransform="matrix(0.0436, 0.0, 0.0, 0.0436, -270.2, -37.55)" gradientUnits="userSpaceOnUse" id="gradient35" r="819.2" spreadMethod="pad">
      <stop offset="0.0" stop-color="#000000"/>
      <stop offset="1.0" stop-color="#000000"/>
    </radialGradient>
    <radialGradient cx="0" cy="0" gradientTransform="matrix(0.0935, 0.0, 0.0, 0.0935, -321.45, -32.25)" gradientUnits="userSpaceOnUse" id="gradient36" r="819.2" spreadMethod="pad">
      <stop offset="0.0" stop-color="#000000"/>
      <stop offset="1.0" stop-color="#000000"/>
    </radialGradient>
    <radialGradient cx="0" cy="0" gradientTransform="matrix(0.0651, 0.0, 0.0, 0.0651, -321.45, -32.25)" gradientUnits="userSpaceOnUse" id="gradient37" r="819.2" spreadMethod="pad">
      <stop offset="0.0" stop-color="#000000"/>
      <stop offset="1.0" stop-color="#000000"/>
    </radialGradient>
    <radialGradient cx="0" cy="0" gradientTransform="matrix(0.0389, 0.0, 0.0, 0.0389, -352.05, -23.5)" gradientUnits="userSpaceOnUse" id="gradient38" r="819.2" spreadMethod="pad">
      <stop offset="0.0" stop-color="#000000"/>
      <stop offset="1.0" stop-color="#000000"/>
    </radialGradient>
    <radialGradient cx="0" cy="0" gradientTransform="matrix(0.0164, 0.0, 0.0, 0.0164, -1.9, -35.25)" gradientUnits="userSpaceOnUse" id="gradient39" r="819.2" spreadMethod="pad">
      <stop offset="0.0" stop-color="#030303"/>
      <stop offset="1.0" stop-color="#030303"/>
    </radialGradient>
    <radialGradient cx="0" cy="0" gradientTransform="matrix(0.0036, 0.0, 0.0, 0.0036, -1.0, -34.9)" gradientUnits="userSpaceOnUse" id="gradient40" r="819.2" spreadMethod="pad">
      <stop offset="0.0" stop-color="#040404"/>
      <stop offset="1.0" stop-color="#040404"/>
    </radialGradient>
    <radialGradient cx="0" cy="0" gradientTransform="matrix(0.0053, 0.0, 0.0, 0.0053, -19.2, -32.6)" gradientUnits="userSpaceOnUse" id="gradient41" r="819.2" spreadMethod="pad">
      <stop offset="0.0" stop-color="#262626"/>
      <stop offset="1.0" stop-color="#262626"/>
    </radialGradient>
    <radialGradient cx="0" cy="0" gradientTransform="matrix(0.065, 0.0, 0.0, 0.065, -364.6, -1.0)" gradientUnits="userSpaceOnUse" id="gradient42" r="819.2" spreadMethod="pad">
      <stop offset="0.0" stop-color="#000000"/>
      <stop offset="1.0" stop-color="#000000"/>
    </radialGradient>
    <radialGradient cx="0" cy="0" gradientTransform="matrix(0.0972, 0.0, 0.0, 0.0972, -325.4, -30.5)" gradientUnits="userSpaceOnUse" id="gradient43" r="819.2" spreadMethod="pad">
      <stop offset="0.0" stop-color="#010101"/>
      <stop offset="1.0" stop-color="#000000"/>
    </radialGradient>
    <radialGradient cx="0" cy="0" gradientTransform="matrix(0.0723, 0.0, 0.0, 0.0723, -213.15, -1.0)" gradientUnits="userSpaceOnUse" id="gradient44" r="819.2" spreadMethod="pad">
      <stop offset="0.0" stop-color="#060606"/>
      <stop offset="1.0" stop-color="#000000"/>
    </radialGradient>
    <radialGradient cx="0" cy="0" gradientTransform="matrix(0.0499, 0.0, 0.0, 0.0499, -264.0, -31.35)" gradientUnits="userSpaceOnUse" id="gradient45" r="819.2" spreadMethod="pad">
      <stop offset="0.0" stop-color="#000000"/>
      <stop offset="1.0" stop-color="#000000"/>
    </radialGradient>
    <radialGradient cx="0" cy="0" gradientTransform="matrix(0.0558, 0.0, 0.0, 0.0558, -218.85, -24.1)" gradientUnits="userSpaceOnUse" id="gradient46" r="819.2" spreadMethod="pad">
      <stop offset="0.0" stop-color="#000000"/>
      <stop offset="1.0" stop-color="#000000"/>
    </radialGradient>
    <radialGradient cx="0" cy="0" gradientTransform="matrix(0.0258, 0.0, 0.0, 0.0258, -213.35, -3.7)" gradientUnits="userSpaceOnUse" id="gradient47" r="819.2" spreadMethod="pad">
      <stop offset="0.0" stop-color="#000000"/>
      <stop offset="1.0" stop-color="#000000"/>
    </radialGradient>
    <radialGradient cx="0" cy="0" gradientTransform="matrix(0.0235, 0.0, 0.0, 0.0235, -194.35, -1.0)" gradientUnits="userSpaceOnUse" id="gradient48" r="819.2" spreadMethod="pad">
      <stop offset="0.0" stop-color="#070707"/>
      <stop offset="1.0" stop-color="#010101"/>
    </radialGradient>
    <radialGradient cx="0" cy="0" gradientTransform="matrix(0.0237, 0.0, 0.0, 0.0237, -195.25, -4.3)" gradientUnits="userSpaceOnUse" id="gradient49" r="819.2" spreadMethod="pad">
      <stop offset="0.0" stop-color="#000000"/>
      <stop offset="1.0" stop-color="#000000"/>
    </radialGradient>
    <radialGradient cx="0" cy="0" gradientTransform="matrix(0.0383, 0.0, 0.0, 0.0383, -357.7, -21.55)" gradientUnits="userSpaceOnUse" id="gradient50" r="819.2" spreadMethod="pad">
      <stop offset="0.0" stop-color="#000000"/>
      <stop offset="1.0" stop-color="#000000"/>
    </radialGradient>
    <radialGradient cx="0" cy="0" gradientTransform="matrix(0.0205, 0.0, 0.0, 0.0205, -378.1, -13.75)" gradientUnits="userSpaceOnUse" id="gradient51" r="819.2" spreadMethod="pad">
      <stop offset="0.0" stop-color="#000000"/>
      <stop offset="1.0" stop-color="#000000"/>
    </radialGradient>
    <radialGradient cx="0" cy="0" gradientTransform="matrix(0.0356, 0.0, 0.0, 0.0356, -371.75, -15.3)" gradientUnits="userSpaceOnUse" id="gradient52" r="819.2" spreadMethod="pad">
      <stop offset="0.0" stop-color="#0d0d0d"/>
      <stop offset="1.0" stop-color="#030303"/>
    </radialGradient>
    <radialGradient cx="0" cy="0" gradientTransform="matrix(0.0057, 0.0, 0.0, 0.0057, -5.05, -2.95)" gradientUnits="userSpaceOnUse" id="gradient53" r="819.2" spreadMethod="pad">
      <stop offset="0.0" stop-color="#171717"/>
      <stop offset="1.0" stop-color="#070707"/>
    </radialGradient>
  </defs>
</svg>
