<?xml version="1.0" encoding="UTF-8" standalone="no"?>
<svg xmlns:xlink="http://www.w3.org/1999/xlink" height="233.25px" width="392.75px" xmlns="http://www.w3.org/2000/svg">
  <g transform="matrix(1.0, 0.0, 0.0, 1.0, 393.65, 234.15)">
    <path d="M-289.9 -234.15 L-259.15 -232.9 -238.5 -227.5 -219.9 -218.4 -203.0 -205.5 -189.15 -189.65 -178.4 -170.9 -172.4 -153.0 -171.15 -148.0 -168.9 -129.75 -170.4 -107.0 -176.0 -86.4 -185.9 -66.5 -199.4 -49.25 -215.4 -35.75 -209.9 -43.0 -202.0 -52.0 -202.0 -52.75 -201.25 -54.0 -196.15 -68.15 -204.9 -67.15 -205.15 -67.4 -204.75 -67.75 -189.4 -81.4 -189.4 -81.75 -197.9 -87.75 -198.25 -87.65 -204.75 -67.75 -205.15 -67.75 -205.75 -73.4 -207.75 -94.9 -230.4 -128.4 -247.0 -160.0 -247.9 -161.9 -254.5 -174.65 -252.75 -190.65 -250.75 -209.15 -251.0 -209.25 -265.5 -194.5 -269.0 -190.25 -280.25 -177.65 -278.65 -189.9 -274.9 -214.5 -275.9 -215.65 -289.9 -234.15" fill="url(#gradient0)" fill-rule="evenodd" stroke="none"/>
    <path d="M-289.9 -234.15 L-275.9 -215.65 -283.15 -216.0 -299.5 -213.5 -310.9 -209.9 -311.15 -209.75 -311.4 -209.65 -311.65 -209.5 -311.9 -209.4 -312.15 -209.25 -312.4 -209.15 -312.65 -209.0 -312.9 -208.9 -313.15 -208.75 -313.5 -208.65 -313.75 -208.5 -314.0 -208.4 -314.25 -208.25 -314.5 -208.15 -314.75 -208.0 -315.0 -207.9 -315.25 -207.75 -315.5 -207.65 -315.75 -207.5 -316.65 -207.15 -316.9 -207.0 -317.15 -206.9 -317.4 -206.75 -317.65 -206.65 -317.9 -206.5 -318.15 -206.4 -318.4 -206.25 -319.75 -205.65 -320.0 -205.5 -320.25 -205.4 -320.5 -205.25 -320.75 -205.15 -321.0 -205.0 -322.9 -204.15 -323.15 -204.0 -323.4 -203.9 -323.65 -203.75 -325.5 -202.9 -325.75 -202.75 -326.0 -202.65 -332.65 -198.4 -322.9 -212.75 -289.9 -234.15 M-205.75 -73.4 L-205.15 -67.75 -204.75 -67.75 -198.25 -87.65 -197.9 -87.75 -189.4 -81.75 -189.4 -81.4 -204.75 -67.75 -205.15 -67.4 -204.9 -67.15 -196.15 -68.15 -201.25 -54.0 -202.0 -52.75 -202.0 -52.0 -209.9 -43.0 -215.4 -35.75 -215.9 -35.25 Q-223.75 -35.5 -229.65 -38.4 L-241.9 -28.5 -248.25 -33.0 -261.65 -31.75 -262.15 -36.65 -262.15 -37.5 -255.75 -38.65 -252.5 -39.65 -240.75 -44.5 -232.5 -48.75 -218.65 -58.5 -207.9 -70.15 -205.75 -73.4 M-309.15 -37.15 L-336.5 -33.9 -363.4 -49.15 -374.65 -65.15 -374.5 -65.5 -382.0 -81.5 Q-379.5 -88.75 -387.0 -107.75 L-385.65 -116.75 -385.0 -124.65 -383.5 -127.5 -376.25 -145.25 -370.15 -164.4 -370.0 -164.75 -369.5 -164.75 -365.5 -153.25 -369.65 -138.65 -370.4 -127.15 -370.25 -122.9 -370.65 -121.65 -367.5 -104.25 -360.9 -87.65 -360.15 -86.4 -359.9 -85.75 -355.75 -77.25 -347.25 -65.0 -334.9 -53.65 -314.65 -42.25 -308.9 -40.5 -308.75 -38.75 -309.15 -38.25 -309.15 -37.15" fill="url(#gradient1)" fill-rule="evenodd" stroke="none"/>
    <path d="M-275.9 -215.65 L-274.9 -214.5 -278.65 -189.9 -289.5 -189.4 -296.0 -184.5 -303.15 -189.15 -309.75 -189.9 -339.15 -189.25 -332.65 -198.4 -326.0 -202.65 -325.75 -202.75 -325.5 -202.9 -323.65 -203.75 -323.4 -203.9 -323.15 -204.0 -322.9 -204.15 -321.0 -205.0 -320.75 -205.15 -320.5 -205.25 -320.25 -205.4 -320.0 -205.5 -319.75 -205.65 -318.4 -206.25 -318.15 -206.4 -317.9 -206.5 -317.65 -206.65 -317.4 -206.75 -317.15 -206.9 -316.9 -207.0 -316.65 -207.15 -315.75 -207.5 -315.5 -207.65 -315.25 -207.75 -315.0 -207.9 -314.75 -208.0 -314.5 -208.15 -314.25 -208.25 -314.0 -208.4 -313.75 -208.5 -313.5 -208.65 -313.15 -208.75 -312.9 -208.9 -312.65 -209.0 -312.4 -209.15 -312.15 -209.25 -311.9 -209.4 -311.65 -209.5 -311.4 -209.65 -311.15 -209.75 -310.9 -209.9 -299.5 -213.5 -283.15 -216.0 -275.9 -215.65 M-269.0 -190.25 L-265.5 -194.5 -251.0 -209.25 -250.75 -209.15 -252.75 -190.65 -269.0 -190.25 M-247.0 -160.0 L-230.4 -128.4 -207.75 -94.9 -205.75 -73.4 -207.9 -70.15 -218.65 -58.5 -232.5 -48.75 -240.75 -44.5 -252.5 -39.65 -255.75 -38.65 -262.15 -37.5 -262.15 -38.75 -262.0 -39.15 -263.4 -41.4 -266.65 -42.75 -271.75 -45.0 -270.75 -43.25 -274.0 -44.15 -277.65 -45.75 -281.4 -45.5 -291.75 -46.25 -296.0 -45.9 -302.65 -46.15 Q-303.5 -45.0 -308.5 -43.4 L-308.9 -40.5 -314.65 -42.25 -334.9 -53.65 -347.25 -65.0 -355.75 -77.25 -359.9 -85.75 -360.15 -86.4 -360.9 -87.65 -367.5 -104.25 -370.65 -121.65 -370.25 -122.9 -370.4 -127.15 -369.65 -138.65 -365.5 -153.25 -355.25 -126.15 -352.5 -171.5 -345.65 -180.4 -347.75 -165.65 -348.25 -164.15 -348.25 -161.65 -347.0 -159.9 -344.25 -158.25 -342.15 -158.0 -307.0 -158.65 -298.4 -165.5 -296.65 -166.65 -295.25 -165.65 -286.25 -159.15 -285.65 -158.9 -247.0 -160.0 M-317.9 -105.5 L-318.65 -104.9 Q-310.0 -97.9 -296.5 -97.0 -279.65 -100.75 -276.75 -106.0 L-317.9 -105.5 M-318.25 -107.0 L-317.5 -106.9 -277.5 -107.75 -288.5 -113.0 -293.0 -113.5 -296.5 -113.0 -298.75 -112.25 -303.0 -113.15 Q-305.25 -113.5 -308.15 -112.5 L-315.15 -108.4 -318.25 -107.0" fill="url(#gradient2)" fill-rule="evenodd" stroke="none"/>
    <path d="M-374.65 -65.15 L-383.4 -77.75 -392.15 -106.5 -393.65 -122.4 -392.4 -140.4 -384.15 -169.65 -375.25 -183.75 -365.0 -198.15 -350.25 -212.65 -332.9 -223.5 -311.5 -231.25 -289.9 -234.15 -322.9 -212.75 -332.65 -198.4 -339.15 -189.25 -345.65 -180.4 -352.5 -171.5 -355.25 -126.15 -365.5 -153.25 -369.5 -164.75 -370.0 -164.75 -370.15 -164.4 -376.25 -145.25 -383.5 -127.5 -385.0 -124.65 -385.65 -116.75 -387.0 -107.75 Q-379.5 -88.75 -382.0 -81.5 L-374.5 -65.5 -374.65 -65.15" fill="url(#gradient3)" fill-rule="evenodd" stroke="none"/>
    <path d="M-312.9 -32.15 L-309.65 -34.5 -309.15 -37.15 -309.15 -38.25 -308.75 -38.75 -308.9 -40.5 -308.5 -43.4 Q-303.5 -45.0 -302.65 -46.15 L-296.0 -45.9 -291.75 -46.25 -281.4 -45.5 -277.65 -45.75 -274.0 -44.15 -270.75 -43.25 -267.5 -38.4 -267.5 -36.0 -268.65 -32.65 -267.65 -32.0 -262.25 -28.0 -273.9 -32.15 -312.9 -32.15" fill="url(#gradient4)" fill-rule="evenodd" stroke="none"/>
    <path d="M-270.75 -43.25 L-271.75 -45.0 -266.65 -42.75 -267.5 -38.4 -270.75 -43.25" fill="url(#gradient5)" fill-rule="evenodd" stroke="none"/>
    <path d="M-266.65 -42.75 L-263.4 -41.4 -262.0 -39.15 -262.15 -38.75 -262.15 -37.5 -262.15 -36.65 -262.4 -36.75 -263.15 -37.75 -263.0 -32.25 -262.65 -31.15 -262.9 -29.75 -266.75 -31.75 -267.5 -36.0 -267.5 -38.4 -266.65 -42.75" fill="url(#gradient6)" fill-rule="evenodd" stroke="none"/>
    <path d="M-278.65 -189.9 L-280.25 -177.65 -269.0 -190.25 -252.75 -190.65 -254.5 -174.65 -247.9 -161.9 -287.0 -160.9 -295.75 -167.0 -297.15 -168.0 -298.0 -168.5 -299.5 -167.25 -308.15 -160.5 -345.25 -159.9 -348.25 -161.65 -348.25 -164.15 -347.75 -165.65 -345.65 -180.4 -339.15 -189.25 -309.75 -189.9 -303.15 -189.15 -296.0 -184.5 -289.5 -189.4 -278.65 -189.9" fill="url(#gradient7)" fill-rule="evenodd" stroke="none"/>
    <path d="M-299.5 -167.25 L-298.0 -168.5 -297.15 -168.0 -296.65 -166.65 -298.4 -165.5 -299.5 -167.25" fill="url(#gradient8)" fill-rule="evenodd" stroke="none"/>
    <path d="M-297.15 -168.0 L-295.75 -167.0 -295.25 -165.65 -296.65 -166.65 -297.15 -168.0" fill="url(#gradient9)" fill-rule="evenodd" stroke="none"/>
    <path d="M-307.0 -158.65 L-308.15 -160.5 -299.5 -167.25 -298.4 -165.5 -307.0 -158.65" fill="url(#gradient10)" fill-rule="evenodd" stroke="none"/>
    <path d="M-307.0 -158.65 L-342.15 -158.0 -344.25 -158.25 -345.25 -159.9 -308.15 -160.5 -307.0 -158.65" fill="url(#gradient11)" fill-rule="evenodd" stroke="none"/>
    <path d="M-344.25 -158.25 L-347.0 -159.9 -348.25 -161.65 -345.25 -159.9 -344.25 -158.25" fill="url(#gradient12)" fill-rule="evenodd" stroke="none"/>
    <path d="M-295.75 -167.0 L-287.0 -160.9 -286.25 -159.15 -295.25 -165.65 -295.75 -167.0" fill="url(#gradient13)" fill-rule="evenodd" stroke="none"/>
    <path d="M-247.9 -161.9 L-247.0 -160.0 -285.65 -158.9 -286.25 -159.15 -287.0 -160.9 -247.9 -161.9" fill="url(#gradient14)" fill-rule="evenodd" stroke="none"/>
    <path d="M-318.25 -107.0 L-315.15 -108.4 -308.15 -112.5 Q-305.25 -113.5 -303.0 -113.15 L-298.75 -112.25 -296.5 -113.0 -293.0 -113.5 -288.5 -113.0 -277.5 -107.75 -317.5 -106.9 -318.25 -107.0 M-298.9 -111.65 L-303.0 -112.5 -305.5 -112.5 Q-307.15 -113.15 -316.0 -107.5 L-283.5 -107.9 -280.0 -108.25 -283.25 -109.5 -285.15 -110.9 -289.4 -112.5 -291.4 -112.9 -296.15 -112.5 -298.9 -111.65" fill="url(#gradient15)" fill-rule="evenodd" stroke="none"/>
    <path d="M-298.9 -111.65 L-296.15 -112.5 -291.4 -112.9 -289.4 -112.5 -285.15 -110.9 -283.25 -109.5 -280.0 -108.25 -283.5 -107.9 -316.0 -107.5 Q-307.15 -113.15 -305.5 -112.5 L-303.0 -112.5 -298.9 -111.65" fill="url(#gradient16)" fill-rule="evenodd" stroke="none"/>
    <path d="M-317.9 -105.5 L-276.75 -106.0 Q-279.65 -100.75 -296.5 -97.0 -310.0 -97.9 -318.65 -104.9 L-317.9 -105.5 M-317.9 -105.0 L-317.9 -104.65 Q-308.75 -98.4 -297.65 -97.4 -279.0 -101.9 -278.15 -105.5 L-317.9 -105.0" fill="url(#gradient17)" fill-rule="evenodd" stroke="none"/>
    <path d="M-317.9 -105.0 L-278.15 -105.5 Q-279.0 -101.9 -297.65 -97.4 -308.75 -98.4 -317.9 -104.65 L-317.9 -105.0" fill="url(#gradient18)" fill-rule="evenodd" stroke="none"/>
    <path d="M-7.0 -57.25 L-7.9 -60.4 -3.4 -62.5 -2.4 -59.25 -3.75 -58.75 -7.0 -57.25" fill="url(#gradient19)" fill-rule="evenodd" stroke="none"/>
    <path d="M-3.4 -62.5 L-0.9 -63.4 -0.9 -37.4 -2.9 -36.75 -3.4 -36.65 -4.5 -53.25 Q-2.25 -55.75 -2.75 -56.4 L-3.4 -57.9 -3.9 -57.9 -3.75 -58.75 -2.4 -59.25 -3.4 -62.5 M-12.4 -50.15 L-10.75 -50.75 -9.25 -51.25 -8.5 -51.5 -6.9 -51.25 -7.15 -50.25 -7.15 -50.15 -7.25 -49.65 -7.25 -49.15 -7.4 -48.75 -7.65 -45.75 -7.4 -40.4 -14.15 -46.9 -14.25 -47.75 -14.9 -47.75 -14.75 -47.4 -15.25 -47.65 -15.4 -48.25 -15.15 -49.25 -15.5 -48.5 -15.65 -48.65 -15.5 -49.5 -15.25 -49.65 -15.15 -49.4 -14.9 -49.75 -15.0 -49.4 -14.5 -49.9 -15.25 -47.9 -14.0 -47.75 -13.5 -48.25 -14.15 -48.5 -13.25 -48.5 -13.0 -48.9 -13.9 -49.25 -12.75 -49.25 -12.4 -50.15 M-10.15 -50.65 L-9.25 -50.65 -8.75 -50.9 -9.5 -51.0 -10.15 -50.65 M-7.9 -51.0 L-8.9 -51.25 -9.25 -51.0 -7.9 -51.0 M-8.15 -48.9 L-8.25 -49.4 -8.75 -49.4 -8.65 -49.15 -9.9 -49.0 -8.15 -48.9 M-9.65 -48.4 L-10.0 -49.0 -10.25 -48.9 -10.15 -49.15 -10.5 -49.15 -10.5 -49.5 -10.75 -49.75 -7.5 -49.9 -11.5 -50.0 -11.25 -49.25 -11.0 -49.4 -11.25 -48.9 -10.9 -48.9 -10.9 -49.4 -10.5 -49.15 -10.25 -48.9 -9.65 -48.4 M-8.5 -42.75 L-8.25 -43.0 -9.15 -43.25 -8.5 -42.75 -8.25 -42.5 -7.9 -42.75 -8.5 -42.75 M-8.0 -42.4 L-7.75 -42.25 -7.65 -42.5 -8.0 -42.4 M-9.0 -43.4 L-9.4 -43.75 -9.5 -43.5 -9.0 -43.4 M-8.75 -44.25 L-9.65 -44.5 -9.75 -44.25 -8.75 -44.25 M-12.0 -47.25 L-12.65 -47.0 -12.4 -46.9 -11.15 -47.5 -12.9 -47.5 -12.0 -47.25 M-12.0 -48.65 L-11.65 -48.65 -11.9 -48.4 -11.5 -48.4 -11.65 -48.65 -11.75 -48.9 -12.0 -48.65" fill="url(#gradient20)" fill-rule="evenodd" stroke="none"/>
    <path d="M-0.9 -37.4 L-0.9 -34.25 -4.75 -34.15 -6.25 -31.9 -13.65 -29.75 -15.75 -28.75 -17.15 -27.5 -16.65 -26.25 -17.4 -26.0 -17.5 -27.5 Q-17.65 -29.65 -7.65 -36.65 L-7.25 -36.75 -6.0 -36.25 -4.5 -36.4 -4.0 -36.4 -3.5 -36.5 -3.4 -36.65 -2.9 -36.75 -0.9 -37.4 M-0.9 -30.25 L-0.9 -29.9 -4.9 -30.15 -7.15 -29.4 -4.25 -30.5 -0.9 -30.25" fill="url(#gradient21)" fill-rule="evenodd" stroke="none"/>
    <path d="M-6.65 -52.4 L-4.65 -57.5 -3.9 -57.9 -3.4 -57.9 -2.75 -56.4 Q-2.25 -55.75 -4.5 -53.25 L-3.4 -36.65 -3.5 -36.5 -4.0 -36.4 -4.5 -36.4 -5.5 -47.15 Q-6.75 -51.15 -6.15 -51.9 L-6.65 -52.4" fill="url(#gradient22)" fill-rule="evenodd" stroke="none"/>
    <path d="M-8.5 -55.65 L-8.15 -56.65 -7.0 -57.25 -3.75 -58.75 -3.9 -57.9 -4.65 -57.5 Q-6.55 -56.55 -8.5 -55.65" fill="url(#gradient23)" fill-rule="evenodd" stroke="none"/>
    <path d="M-10.75 -50.75 L-9.65 -54.25 -9.25 -55.15 -8.5 -55.65 Q-6.55 -56.55 -4.65 -57.5 L-6.65 -52.4 -9.25 -51.25 -10.75 -50.75" fill="url(#gradient24)" fill-rule="evenodd" stroke="none"/>
    <path d="M-9.25 -51.25 L-6.65 -52.4 -6.9 -52.0 -7.0 -52.0 -8.25 -51.5 -8.5 -51.5 -9.25 -51.25" fill="url(#gradient25)" fill-rule="evenodd" stroke="none"/>
    <path d="M-15.15 -49.9 L-12.4 -50.15 -12.75 -49.25 -13.9 -49.25 -13.0 -48.9 -13.25 -48.5 -14.15 -48.5 -13.5 -48.25 -14.0 -47.75 -15.25 -47.9 -14.5 -49.9 -15.0 -49.4 -14.9 -49.75 -15.15 -49.4 -15.25 -49.65 -15.15 -49.9 M-8.5 -51.5 L-8.25 -51.5 -7.0 -52.0 -6.9 -52.0 -6.9 -51.25 -8.5 -51.5 M-7.25 -49.65 L-7.15 -50.15 -7.15 -49.75 -7.25 -49.65 M-7.9 -51.0 L-9.25 -51.0 -8.9 -51.25 -7.9 -51.0 M-10.15 -50.65 L-9.5 -51.0 -8.75 -50.9 -9.25 -50.65 -10.15 -50.65 M-9.65 -48.4 L-10.25 -48.9 -10.5 -49.15 -10.9 -49.4 -10.9 -48.9 -11.25 -48.9 -11.0 -49.4 -11.25 -49.25 -11.5 -50.0 -7.5 -49.9 -10.75 -49.75 -10.5 -49.5 -10.5 -49.15 -10.15 -49.15 -10.25 -48.9 -10.0 -49.0 -9.65 -48.4 M-8.15 -48.9 L-9.9 -49.0 -8.65 -49.15 -8.75 -49.4 -8.25 -49.4 -8.15 -48.9 M-15.4 -48.25 L-15.5 -48.5 -15.15 -49.25 -15.4 -48.25 M-14.75 -47.4 L-14.9 -47.75 -14.25 -47.75 -14.15 -46.9 -14.75 -47.4 M-12.0 -48.65 L-11.75 -48.9 -11.65 -48.65 -11.5 -48.4 -11.9 -48.4 -11.65 -48.65 -12.0 -48.65 M-12.0 -47.25 L-12.9 -47.5 -11.15 -47.5 -12.4 -46.9 -12.65 -47.0 -12.0 -47.25 M-8.75 -44.25 L-9.75 -44.25 -9.65 -44.5 -8.75 -44.25 M-9.0 -43.4 L-9.5 -43.5 -9.4 -43.75 -9.0 -43.4 M-8.0 -42.4 L-7.65 -42.5 -7.75 -42.25 -8.0 -42.4 M-8.5 -42.75 L-7.9 -42.75 -8.25 -42.5 -8.5 -42.75 -9.15 -43.25 -8.25 -43.0 -8.5 -42.75" fill="url(#gradient26)" fill-rule="evenodd" stroke="none"/>
    <path d="M-6.9 -51.25 L-6.9 -52.0 -6.65 -52.4 -6.15 -51.9 Q-6.75 -51.15 -5.5 -47.15 L-4.5 -36.4 -6.0 -36.25 -7.25 -36.75 -7.25 -40.0 -7.4 -40.0 -7.4 -40.4 -7.65 -45.75 -7.4 -48.75 -7.25 -49.15 -7.25 -49.65 -7.15 -49.75 -7.15 -50.15 -7.15 -50.25 -6.9 -51.25" fill="url(#gradient27)" fill-rule="evenodd" stroke="none"/>
    <path d="M-11.65 -35.5 L-11.75 -38.65 -11.65 -38.4 -7.4 -40.0 -7.25 -40.0 -7.25 -36.75 -7.65 -36.65 -11.65 -35.5" fill="url(#gradient28)" fill-rule="evenodd" stroke="none"/>
    <path d="M-11.75 -38.65 L-12.0 -39.25 -18.15 -44.9 -19.65 -46.75 -19.65 -47.5 -19.0 -48.0 -15.5 -49.5 -15.65 -48.65 -15.5 -48.5 -15.4 -48.25 -15.25 -47.65 -14.75 -47.4 -14.15 -46.9 -7.4 -40.4 -7.4 -40.0 -11.65 -38.4 -11.75 -38.65 M-16.4 -48.5 L-16.65 -48.25 -16.4 -48.15 -16.4 -48.5 M-17.5 -48.0 L-17.4 -47.65 -17.15 -48.0 -17.5 -48.0" fill="url(#gradient29)" fill-rule="evenodd" stroke="none"/>
    <path d="M-19.0 -48.0 L-15.15 -49.9 -15.25 -49.65 -15.5 -49.5 -19.0 -48.0 M-17.5 -48.0 L-17.15 -48.0 -17.4 -47.65 -17.5 -48.0 M-16.4 -48.5 L-16.4 -48.15 -16.65 -48.25 -16.4 -48.5" fill="url(#gradient30)" fill-rule="evenodd" stroke="none"/>
    <path d="M-262.15 -36.65 L-262.25 -36.4 -262.4 -36.75 -262.15 -36.65" fill="url(#gradient31)" fill-rule="evenodd" stroke="none"/>
    <path d="M-261.65 -31.75 L-261.65 -29.15 -262.9 -29.75 -262.65 -31.15 -263.0 -32.25 -263.15 -37.75 -262.4 -36.75 -262.25 -36.4 -262.15 -36.65 -261.65 -31.75 M-266.75 -31.75 L-267.65 -32.0 -268.65 -32.65 -267.5 -36.0 -266.75 -31.75" fill="url(#gradient32)" fill-rule="evenodd" stroke="none"/>
    <path d="M-261.65 -29.15 L-258.15 -27.15 -261.65 -27.65 -261.9 -27.75 -262.25 -28.0 -267.65 -32.0 -266.75 -31.75 -262.9 -29.75 -261.65 -29.15" fill="url(#gradient33)" fill-rule="evenodd" stroke="none"/>
    <path d="M-21.25 -26.65 Q-21.4 -27.65 -19.15 -29.65 L-11.65 -35.5 -7.65 -36.65 Q-17.65 -29.65 -17.5 -27.5 L-21.25 -26.65" fill="url(#gradient34)" fill-rule="evenodd" stroke="none"/>
    <path d="M-17.4 -26.0 L-18.4 -25.75 -19.0 -25.65 -20.5 -25.25 -21.15 -25.25 -21.25 -25.9 -21.25 -26.65 -17.5 -27.5 -17.4 -26.0" fill="url(#gradient35)" fill-rule="evenodd" stroke="none"/>
    <path d="M-250.4 -0.9 L-338.65 -0.9 -321.75 -25.0 -319.9 -25.15 -319.5 -25.65 -318.65 -27.5 -320.0 -27.25 -319.65 -28.0 -319.65 -28.15 -319.5 -28.25 -319.65 -28.25 -312.9 -32.15 -273.9 -32.15 -262.25 -28.0 -261.9 -27.75 -261.75 -27.65 -261.65 -27.65 -261.75 -27.15 -262.65 -27.15 -260.75 -25.25 -250.4 -0.9" fill="url(#gradient36)" fill-rule="evenodd" stroke="none"/>
    <path d="M-0.9 -34.25 L-0.9 -30.25 -4.25 -30.5 -7.15 -29.4 -7.75 -29.15 -16.65 -26.25 -17.15 -27.5 -15.75 -28.75 -13.65 -29.75 -6.25 -31.9 -4.75 -34.15 -0.9 -34.25" fill="url(#gradient37)" fill-rule="evenodd" stroke="none"/>
    <path d="M-0.9 -29.9 L-1.0 -27.15 Q-4.9 -29.5 -7.75 -29.15 L-7.15 -29.4 -4.9 -30.15 -0.9 -29.9" fill="url(#gradient38)" fill-rule="evenodd" stroke="none"/>
    <path d="M-338.65 -0.9 L-358.15 -0.9 -323.15 -25.65 -321.75 -25.0 -338.65 -0.9 M-319.65 -28.15 L-319.65 -28.25 -319.5 -28.25 -319.65 -28.15 M-319.65 -28.0 L-320.0 -27.25 -321.25 -27.0 -319.65 -28.0" fill="url(#gradient39)" fill-rule="evenodd" stroke="none"/>
    <path d="M-358.15 -0.9 L-361.9 -0.9 -356.15 -17.0 -319.65 -28.15 -319.65 -28.0 -321.25 -27.0 -323.25 -26.65 -323.15 -25.65 -358.15 -0.9" fill="url(#gradient40)" fill-rule="evenodd" stroke="none"/>
    <path d="M-261.75 -27.15 L-261.5 -27.15 -257.5 -26.65 -259.0 -26.25 -259.65 -25.25 -260.75 -25.25 -262.65 -27.15 -261.75 -27.15 M-320.0 -27.25 L-318.65 -27.5 -319.5 -25.65 -319.9 -25.15 -321.75 -25.0 -323.15 -25.65 -323.25 -26.65 -321.25 -27.0 -320.0 -27.25" fill="url(#gradient41)" fill-rule="evenodd" stroke="none"/>
    <path d="M-245.45 -24.9 L-215.5 -20.15 -193.4 -4.75 -193.9 -0.9 -216.65 -19.25 -217.4 -19.5 -217.9 -19.9 -245.45 -24.9 M-261.9 -27.75 L-261.65 -27.65 -261.75 -27.65 -261.9 -27.75" fill="url(#gradient42)" fill-rule="evenodd" stroke="none"/>
    <path d="M-258.15 -27.15 L-257.75 -27.0 -257.4 -27.0 -254.75 -26.5 -254.65 -26.5 -245.45 -24.9 -217.9 -19.9 -217.4 -19.5 -212.0 -0.9 -237.4 -0.9 -259.65 -25.25 -259.0 -26.25 -257.5 -26.65 -261.5 -27.15 -261.75 -27.15 -261.65 -27.65 -258.15 -27.15" fill="url(#gradient43)" fill-rule="evenodd" stroke="none"/>
    <path d="M-237.4 -0.9 L-250.4 -0.9 -260.75 -25.25 -259.65 -25.25 -237.4 -0.9" fill="url(#gradient44)" fill-rule="evenodd" stroke="none"/>
    <path d="M-193.9 -0.9 L-212.0 -0.9 -217.4 -19.5 -216.65 -19.25 -193.9 -0.9" fill="url(#gradient45)" fill-rule="evenodd" stroke="none"/>
    <path d="M-361.9 -0.9 L-378.9 -0.9 -376.75 -9.0 -376.65 -9.4 -356.15 -17.0 -361.9 -0.9" fill="url(#gradient46)" fill-rule="evenodd" stroke="none"/>
    <path d="M-378.9 -0.9 L-384.0 -0.9 -381.75 -3.65 -381.4 -4.0 -376.75 -9.0 -378.9 -0.9" fill="url(#gradient47)" fill-rule="evenodd" stroke="none"/>
    <path d="M-381.65 -3.9 L-381.4 -4.0 -381.75 -3.65 -381.65 -3.9" fill="url(#gradient48)" fill-rule="evenodd" stroke="none"/>
    <path d="M-384.0 -0.9 L-387.0 -1.0 -381.65 -3.9 -381.75 -3.65 -384.0 -0.9" fill="url(#gradient49)" fill-rule="evenodd" stroke="none"/>
    <path d="M-193.4 -4.75 L-185.0 -1.0 -193.9 -0.9 -193.4 -4.75" fill="url(#gradient50)" fill-rule="evenodd" stroke="none"/>
    <path d="M-0.9 -0.9 L-2.15 -0.9 -1.25 -1.5 -0.9 -1.5 -0.9 -0.9" fill="url(#gradient51)" fill-rule="evenodd" stroke="none"/>
    <path d="M-322.65 -35.5 L-328.25 -38.4 -330.5 -38.75 -333.5 -34.25 -333.75 -34.15 -336.25 -33.9 -336.4 -33.9 -336.65 -34.15 -340.9 -36.4 -340.25 -37.15 -338.5 -39.75 -337.65 -40.4 -337.5 -40.25 -331.65 -38.9 -331.5 -39.0 -330.5 -38.75 -329.15 -40.9 -319.65 -38.4 -315.9 -36.4 -322.65 -35.5 M-338.75 -22.4 L-340.5 -14.9 -340.75 -14.5 -340.65 -14.25 -340.9 -13.25 -341.15 -12.9 -343.5 -2.4 -344.25 -0.9 -354.0 -0.9 -353.0 -4.5 -352.75 -4.9 -352.25 -6.65 -352.4 -7.0 -352.15 -7.4 -349.0 -19.25 -338.75 -22.4 M-330.0 -40.75 L-329.75 -40.9 -329.65 -40.9 Q-329.8 -40.8 -330.0 -40.75 M-250.0 -39.5 L-248.15 -34.65 -248.0 -33.9 -247.75 -33.75 -248.0 -33.5 -247.65 -33.15 -247.5 -32.65 -248.25 -33.0 -253.15 -32.5 -251.9 -34.65 -251.0 -37.65 -251.0 -38.0 -250.0 -39.5 M-246.65 -25.0 L-247.15 -11.65 -247.0 -11.4 -247.4 -0.9 -257.65 -0.9 -256.9 -10.15 -257.15 -11.65 -256.65 -15.25 -256.75 -16.15 -256.25 -21.4 -256.4 -21.9 -256.0 -26.65 -256.0 -26.75 -255.5 -26.65 -255.4 -26.65 -254.75 -26.5 -254.65 -26.5 -246.65 -25.0 M-261.65 -31.75 L-261.65 -32.5 -260.15 -36.0 -257.65 -32.0 -261.65 -31.75 M-260.25 -36.65 L-261.0 -37.65 -261.25 -37.9 -261.5 -38.5 -262.0 -38.5 -262.0 -38.9 -262.15 -39.4 -261.65 -39.25 -261.15 -38.65 -260.5 -38.15 -260.25 -37.9 -259.9 -37.25 -260.25 -36.65" fill="#9b0000" fill-opacity="0.9098039" fill-rule="evenodd" stroke="none"/>
    <path d="M-337.65 -40.4 L-330.0 -40.75 Q-329.8 -40.8 -329.65 -40.9 L-329.15 -40.9 -330.5 -38.75 -331.5 -39.0 -331.65 -38.9 -337.5 -40.25 -337.65 -40.4 M-250.0 -39.5 L-251.0 -38.0 -251.0 -37.65 -251.9 -34.65 -253.15 -32.5 -257.65 -32.0 -260.15 -36.0 -260.25 -36.65 -259.9 -37.25 -260.25 -37.9 -260.5 -38.15 -261.15 -38.65 -261.65 -39.25 -262.15 -39.4 -262.4 -39.9 -252.65 -39.9 -252.25 -39.75 -251.9 -39.9 -250.15 -39.9 -250.0 -39.5" fill="#a90000" fill-rule="evenodd" stroke="none"/>
    <path d="M-315.9 -36.4 L-310.5 -34.0 -312.9 -32.15 -314.15 -31.5 -322.65 -35.5 -315.9 -36.4 M-333.75 -34.15 L-337.25 -28.75 -338.75 -22.4 -349.0 -19.25 -346.4 -28.75 -340.9 -36.4 -336.65 -34.15 -336.4 -33.9 -336.25 -33.9 -333.75 -34.15 M-253.15 -32.5 L-248.25 -33.0 -247.5 -32.65 -247.25 -32.15 -246.5 -29.5 -246.65 -25.0 -254.65 -26.5 -254.75 -26.5 -255.4 -26.65 -255.5 -26.65 -256.0 -26.75 -255.9 -29.4 -259.5 -28.0 -261.65 -29.15 -261.75 -31.15 -261.65 -31.75 -257.65 -32.0 -255.9 -29.4 -253.25 -30.5 -253.15 -32.5" fill="#ab0000" fill-opacity="0.9098039" fill-rule="evenodd" stroke="none"/>
    <path d="M-255.9 -29.4 L-257.65 -32.0 -253.15 -32.5 -253.25 -30.5 -255.9 -29.4" fill="#ab0000" fill-rule="evenodd" stroke="none"/>
  </g>
  <defs>
    <radialGradient cx="0" cy="0" gradientTransform="matrix(0.2408, 0.0, 0.0, 0.2408, -186.0, -66.65)" gradientUnits="userSpaceOnUse" id="gradient0" r="819.2" spreadMethod="pad">
      <stop offset="0.0" stop-color="#393939"/>
      <stop offset="1.0" stop-color="#111111"/>
    </radialGradient>
    <radialGradient cx="0" cy="0" gradientTransform="matrix(0.2466, 0.0, 0.0, 0.2466, -209.85, -68.7)" gradientUnits="userSpaceOnUse" id="gradient1" r="819.2" spreadMethod="pad">
      <stop offset="0.0" stop-color="#555555"/>
      <stop offset="1.0" stop-color="#151515"/>
    </radialGradient>
    <radialGradient cx="0" cy="0" gradientTransform="matrix(0.2101, 0.0, 0.0, 0.2101, -367.55, -104.75)" gradientUnits="userSpaceOnUse" id="gradient2" r="819.2" spreadMethod="pad">
      <stop offset="0.0" stop-color="#7e7e7e"/>
      <stop offset="1.0" stop-color="#000000"/>
    </radialGradient>
    <radialGradient cx="0" cy="0" gradientTransform="matrix(0.1396, 0.0, 0.0, 0.1396, -362.7, -146.2)" gradientUnits="userSpaceOnUse" id="gradient3" r="819.2" spreadMethod="pad">
      <stop offset="0.0" stop-color="#494949"/>
      <stop offset="1.0" stop-color="#1c1c1c"/>
    </radialGradient>
    <radialGradient cx="0" cy="0" gradientTransform="matrix(0.0604, 0.0, 0.0, 0.0604, -308.35, -44.95)" gradientUnits="userSpaceOnUse" id="gradient4" r="819.2" spreadMethod="pad">
      <stop offset="0.0" stop-color="#1a1a1a"/>
      <stop offset="1.0" stop-color="#000000"/>
    </radialGradient>
    <radialGradient cx="0" cy="0" gradientTransform="matrix(0.0235, 0.0, 0.0, 0.0235, -277.7, -54.6)" gradientUnits="userSpaceOnUse" id="gradient5" r="819.2" spreadMethod="pad">
      <stop offset="0.0" stop-color="#797979"/>
      <stop offset="1.0" stop-color="#000000"/>
    </radialGradient>
    <radialGradient cx="0" cy="0" gradientTransform="matrix(0.0495, 0.0, 0.0, 0.0495, -261.9, -40.95)" gradientUnits="userSpaceOnUse" id="gradient6" r="819.2" spreadMethod="pad">
      <stop offset="0.0" stop-color="#101010"/>
      <stop offset="1.0" stop-color="#000000"/>
    </radialGradient>
    <radialGradient cx="0" cy="0" gradientTransform="matrix(0.129, 0.0, 0.0, 0.129, -348.4, -161.95)" gradientUnits="userSpaceOnUse" id="gradient7" r="819.2" spreadMethod="pad">
      <stop offset="0.0" stop-color="#767676"/>
      <stop offset="1.0" stop-color="#767676"/>
    </radialGradient>
    <radialGradient cx="0" cy="0" gradientTransform="matrix(0.0035, 0.0, 0.0, 0.0035, -299.45, -167.35)" gradientUnits="userSpaceOnUse" id="gradient8" r="819.2" spreadMethod="pad">
      <stop offset="0.0" stop-color="#e2e2e2"/>
      <stop offset="1.0" stop-color="#e0e0e0"/>
    </radialGradient>
    <radialGradient cx="0" cy="0" gradientTransform="matrix(0.0026, 0.0, 0.0, 0.0026, -295.95, -167.45)" gradientUnits="userSpaceOnUse" id="gradient9" r="819.2" spreadMethod="pad">
      <stop offset="0.0" stop-color="#8c8c8c"/>
      <stop offset="1.0" stop-color="#8c8c8c"/>
    </radialGradient>
    <radialGradient cx="0" cy="0" gradientTransform="matrix(0.0133, 0.0, 0.0, 0.0133, -308.05, -160.6)" gradientUnits="userSpaceOnUse" id="gradient10" r="819.2" spreadMethod="pad">
      <stop offset="0.0" stop-color="#e1e1e1"/>
      <stop offset="1.0" stop-color="#dfdfdf"/>
    </radialGradient>
    <radialGradient cx="0" cy="0" gradientTransform="matrix(0.0454, 0.0, 0.0, 0.0454, -308.05, -160.6)" gradientUnits="userSpaceOnUse" id="gradient11" r="819.2" spreadMethod="pad">
      <stop offset="0.0" stop-color="#767676"/>
      <stop offset="1.0" stop-color="#767676"/>
    </radialGradient>
    <radialGradient cx="0" cy="0" gradientTransform="matrix(0.0045, 0.0, 0.0, 0.0045, -345.2, -160.0)" gradientUnits="userSpaceOnUse" id="gradient12" r="819.2" spreadMethod="pad">
      <stop offset="0.0" stop-color="#838383"/>
      <stop offset="1.0" stop-color="#838383"/>
    </radialGradient>
    <radialGradient cx="0" cy="0" gradientTransform="matrix(0.0136, 0.0, 0.0, 0.0136, -286.9, -160.9)" gradientUnits="userSpaceOnUse" id="gradient13" r="819.2" spreadMethod="pad">
      <stop offset="0.0" stop-color="#8b8b8b"/>
      <stop offset="1.0" stop-color="#8b8b8b"/>
    </radialGradient>
    <radialGradient cx="0" cy="0" gradientTransform="matrix(0.0478, 0.0, 0.0, 0.0478, -247.75, -161.95)" gradientUnits="userSpaceOnUse" id="gradient14" r="819.2" spreadMethod="pad">
      <stop offset="0.0" stop-color="#767676"/>
      <stop offset="1.0" stop-color="#767676"/>
    </radialGradient>
    <radialGradient cx="0" cy="0" gradientTransform="matrix(0.0439, 0.0, 0.0, 0.0439, -282.25, -109.25)" gradientUnits="userSpaceOnUse" id="gradient15" r="819.2" spreadMethod="pad">
      <stop offset="0.0" stop-color="#ff5151"/>
      <stop offset="1.0" stop-color="#330000"/>
    </radialGradient>
    <radialGradient cx="0" cy="0" gradientTransform="matrix(0.0423, 0.0, 0.0, 0.0423, -281.65, -108.95)" gradientUnits="userSpaceOnUse" id="gradient16" r="819.2" spreadMethod="pad">
      <stop offset="0.0" stop-color="#ff5151"/>
      <stop offset="1.0" stop-color="#ff4c4c"/>
    </radialGradient>
    <radialGradient cx="0" cy="0" gradientTransform="matrix(0.0459, 0.0, 0.0, 0.0459, -281.2, -102.45)" gradientUnits="userSpaceOnUse" id="gradient17" r="819.2" spreadMethod="pad">
      <stop offset="0.0" stop-color="#f89797"/>
      <stop offset="1.0" stop-color="#4f1818"/>
    </radialGradient>
    <radialGradient cx="0" cy="0" gradientTransform="matrix(0.0343, 0.0, 0.0, 0.0343, -290.5, -99.05)" gradientUnits="userSpaceOnUse" id="gradient18" r="819.2" spreadMethod="pad">
      <stop offset="0.0" stop-color="#ff3030"/>
      <stop offset="1.0" stop-color="#ff2d2d"/>
    </radialGradient>
    <radialGradient cx="0" cy="0" gradientTransform="matrix(0.0067, 0.0, 0.0, 0.0067, -7.8, -60.4)" gradientUnits="userSpaceOnUse" id="gradient19" r="819.2" spreadMethod="pad">
      <stop offset="0.0" stop-color="#262626"/>
      <stop offset="1.0" stop-color="#262626"/>
    </radialGradient>
    <radialGradient cx="0" cy="0" gradientTransform="matrix(0.0194, 0.0, 0.0, 0.0194, -6.35, -52.35)" gradientUnits="userSpaceOnUse" id="gradient20" r="819.2" spreadMethod="pad">
      <stop offset="0.0" stop-color="#040404"/>
      <stop offset="1.0" stop-color="#040404"/>
    </radialGradient>
    <radialGradient cx="0" cy="0" gradientTransform="matrix(0.0169, 0.0, 0.0, 0.0169, -3.95, -30.25)" gradientUnits="userSpaceOnUse" id="gradient21" r="819.2" spreadMethod="pad">
      <stop offset="0.0" stop-color="#040404"/>
      <stop offset="1.0" stop-color="#040404"/>
    </radialGradient>
    <radialGradient cx="0" cy="0" gradientTransform="matrix(0.0256, 0.0, 0.0, 0.0256, -4.55, -57.4)" gradientUnits="userSpaceOnUse" id="gradient22" r="819.2" spreadMethod="pad">
      <stop offset="0.0" stop-color="#171717"/>
      <stop offset="1.0" stop-color="#171717"/>
    </radialGradient>
    <radialGradient cx="0" cy="0" gradientTransform="matrix(0.0083, 0.0, 0.0, 0.0083, -7.95, -56.8)" gradientUnits="userSpaceOnUse" id="gradient23" r="819.2" spreadMethod="pad">
      <stop offset="0.0" stop-color="#303030"/>
      <stop offset="1.0" stop-color="#303030"/>
    </radialGradient>
    <radialGradient cx="0" cy="0" gradientTransform="matrix(0.0112, 0.0, 0.0, 0.0112, -4.55, -57.4)" gradientUnits="userSpaceOnUse" id="gradient24" r="819.2" spreadMethod="pad">
      <stop offset="0.0" stop-color="#828282"/>
      <stop offset="1.0" stop-color="#808080"/>
    </radialGradient>
    <radialGradient cx="0" cy="0" gradientTransform="matrix(0.006, 0.0, 0.0, 0.006, -10.8, -50.7)" gradientUnits="userSpaceOnUse" id="gradient25" r="819.2" spreadMethod="pad">
      <stop offset="0.0" stop-color="#222222"/>
      <stop offset="1.0" stop-color="#222222"/>
    </radialGradient>
    <radialGradient cx="0" cy="0" gradientTransform="matrix(0.0085, 0.0, 0.0, 0.0085, -8.5, -48.35)" gradientUnits="userSpaceOnUse" id="gradient26" r="819.2" spreadMethod="pad">
      <stop offset="0.0" stop-color="#171717"/>
      <stop offset="1.0" stop-color="#171717"/>
    </radialGradient>
    <radialGradient cx="0" cy="0" gradientTransform="matrix(0.0114, 0.0, 0.0, 0.0114, -7.5, -45.25)" gradientUnits="userSpaceOnUse" id="gradient27" r="819.2" spreadMethod="pad">
      <stop offset="0.0" stop-color="#020202"/>
      <stop offset="1.0" stop-color="#020202"/>
    </radialGradient>
    <radialGradient cx="0" cy="0" gradientTransform="matrix(0.0061, 0.0, 0.0, 0.0061, -11.65, -39.0)" gradientUnits="userSpaceOnUse" id="gradient28" r="819.2" spreadMethod="pad">
      <stop offset="0.0" stop-color="#202020"/>
      <stop offset="1.0" stop-color="#202020"/>
    </radialGradient>
    <radialGradient cx="0" cy="0" gradientTransform="matrix(0.0155, 0.0, 0.0, 0.0155, -15.45, -49.4)" gradientUnits="userSpaceOnUse" id="gradient29" r="819.2" spreadMethod="pad">
      <stop offset="0.0" stop-color="#303030"/>
      <stop offset="1.0" stop-color="#262626"/>
    </radialGradient>
    <radialGradient cx="0" cy="0" gradientTransform="matrix(0.0065, 0.0, 0.0, 0.0065, -15.05, -49.8)" gradientUnits="userSpaceOnUse" id="gradient30" r="819.2" spreadMethod="pad">
      <stop offset="0.0" stop-color="#828282"/>
      <stop offset="1.0" stop-color="#636363"/>
    </radialGradient>
    <radialGradient cx="0" cy="0" gradientTransform="matrix(0.0578, 0.0, 0.0, 0.0578, -261.6, -48.3)" gradientUnits="userSpaceOnUse" id="gradient31" r="819.2" spreadMethod="pad">
      <stop offset="0.0" stop-color="#1a1a1a"/>
      <stop offset="1.0" stop-color="#151515"/>
    </radialGradient>
    <radialGradient cx="0" cy="0" gradientTransform="matrix(0.0108, 0.0, 0.0, 0.0108, -262.1, -36.25)" gradientUnits="userSpaceOnUse" id="gradient32" r="819.2" spreadMethod="pad">
      <stop offset="0.0" stop-color="#7b7b7b"/>
      <stop offset="1.0" stop-color="#1b1b1b"/>
    </radialGradient>
    <radialGradient cx="0" cy="0" gradientTransform="matrix(0.0434, 0.0, 0.0, 0.0434, -268.6, -32.7)" gradientUnits="userSpaceOnUse" id="gradient33" r="819.2" spreadMethod="pad">
      <stop offset="0.0" stop-color="#000000"/>
      <stop offset="1.0" stop-color="#000000"/>
    </radialGradient>
    <radialGradient cx="0" cy="0" gradientTransform="matrix(0.0166, 0.0, 0.0, 0.0166, -17.4, -27.95)" gradientUnits="userSpaceOnUse" id="gradient34" r="819.2" spreadMethod="pad">
      <stop offset="0.0" stop-color="#313131"/>
      <stop offset="1.0" stop-color="#222222"/>
    </radialGradient>
    <radialGradient cx="0" cy="0" gradientTransform="matrix(0.0051, 0.0, 0.0, 0.0051, -21.35, -26.7)" gradientUnits="userSpaceOnUse" id="gradient35" r="819.2" spreadMethod="pad">
      <stop offset="0.0" stop-color="#262626"/>
      <stop offset="1.0" stop-color="#262626"/>
    </radialGradient>
    <radialGradient cx="0" cy="0" gradientTransform="matrix(0.0904, 0.0, 0.0, 0.0904, -319.2, -28.5)" gradientUnits="userSpaceOnUse" id="gradient36" r="819.2" spreadMethod="pad">
      <stop offset="0.0" stop-color="#000000"/>
      <stop offset="1.0" stop-color="#000000"/>
    </radialGradient>
    <radialGradient cx="0" cy="0" gradientTransform="matrix(0.0161, 0.0, 0.0, 0.0161, -4.15, -30.6)" gradientUnits="userSpaceOnUse" id="gradient37" r="819.2" spreadMethod="pad">
      <stop offset="0.0" stop-color="#030303"/>
      <stop offset="1.0" stop-color="#030303"/>
    </radialGradient>
    <radialGradient cx="0" cy="0" gradientTransform="matrix(0.0092, 0.0, 0.0, 0.0092, -1.0, -27.2)" gradientUnits="userSpaceOnUse" id="gradient38" r="819.2" spreadMethod="pad">
      <stop offset="0.0" stop-color="#070707"/>
      <stop offset="1.0" stop-color="#040404"/>
    </radialGradient>
    <radialGradient cx="0" cy="0" gradientTransform="matrix(0.0411, 0.0, 0.0, 0.0411, -338.65, -1.0)" gradientUnits="userSpaceOnUse" id="gradient39" r="819.2" spreadMethod="pad">
      <stop offset="0.0" stop-color="#000000"/>
      <stop offset="1.0" stop-color="#000000"/>
    </radialGradient>
    <radialGradient cx="0" cy="0" gradientTransform="matrix(0.0582, 0.0, 0.0, 0.0582, -358.15, -1.0)" gradientUnits="userSpaceOnUse" id="gradient40" r="819.2" spreadMethod="pad">
      <stop offset="0.0" stop-color="#000000"/>
      <stop offset="1.0" stop-color="#000000"/>
    </radialGradient>
    <radialGradient cx="0" cy="0" gradientTransform="matrix(0.0801, 0.0, 0.0, 0.0801, -323.15, -26.75)" gradientUnits="userSpaceOnUse" id="gradient41" r="819.2" spreadMethod="pad">
      <stop offset="0.0" stop-color="#010101"/>
      <stop offset="1.0" stop-color="#000000"/>
    </radialGradient>
    <radialGradient cx="0" cy="0" gradientTransform="matrix(0.0551, 0.0, 0.0, 0.0551, -217.5, -19.8)" gradientUnits="userSpaceOnUse" id="gradient42" r="819.2" spreadMethod="pad">
      <stop offset="0.0" stop-color="#000000"/>
      <stop offset="1.0" stop-color="#000000"/>
    </radialGradient>
    <radialGradient cx="0" cy="0" gradientTransform="matrix(0.0691, 0.0, 0.0, 0.0691, -261.95, -27.8)" gradientUnits="userSpaceOnUse" id="gradient43" r="819.2" spreadMethod="pad">
      <stop offset="0.0" stop-color="#000000"/>
      <stop offset="1.0" stop-color="#000000"/>
    </radialGradient>
    <radialGradient cx="0" cy="0" gradientTransform="matrix(0.0443, 0.0, 0.0, 0.0443, -261.95, -27.8)" gradientUnits="userSpaceOnUse" id="gradient44" r="819.2" spreadMethod="pad">
      <stop offset="0.0" stop-color="#000000"/>
      <stop offset="1.0" stop-color="#000000"/>
    </radialGradient>
    <radialGradient cx="0" cy="0" gradientTransform="matrix(0.0366, 0.0, 0.0, 0.0366, -217.5, -19.8)" gradientUnits="userSpaceOnUse" id="gradient45" r="819.2" spreadMethod="pad">
      <stop offset="0.0" stop-color="#000000"/>
      <stop offset="1.0" stop-color="#000000"/>
    </radialGradient>
    <radialGradient cx="0" cy="0" gradientTransform="matrix(0.0269, 0.0, 0.0, 0.0269, -376.55, -9.4)" gradientUnits="userSpaceOnUse" id="gradient46" r="819.2" spreadMethod="pad">
      <stop offset="0.0" stop-color="#000000"/>
      <stop offset="1.0" stop-color="#000000"/>
    </radialGradient>
    <radialGradient cx="0" cy="0" gradientTransform="matrix(0.0137, 0.0, 0.0, 0.0137, -376.55, -9.4)" gradientUnits="userSpaceOnUse" id="gradient47" r="819.2" spreadMethod="pad">
      <stop offset="0.0" stop-color="#000000"/>
      <stop offset="1.0" stop-color="#000000"/>
    </radialGradient>
    <radialGradient cx="0" cy="0" gradientTransform="matrix(0.0114, 0.0, 0.0, 0.0114, -380.6, -1.0)" gradientUnits="userSpaceOnUse" id="gradient48" r="819.2" spreadMethod="pad">
      <stop offset="0.0" stop-color="#070707"/>
      <stop offset="1.0" stop-color="#000000"/>
    </radialGradient>
    <radialGradient cx="0" cy="0" gradientTransform="matrix(0.0228, 0.0, 0.0, 0.0228, -370.55, -10.05)" gradientUnits="userSpaceOnUse" id="gradient49" r="819.2" spreadMethod="pad">
      <stop offset="0.0" stop-color="#0d0d0d"/>
      <stop offset="1.0" stop-color="#060606"/>
    </radialGradient>
    <radialGradient cx="0" cy="0" gradientTransform="matrix(0.0112, 0.0, 0.0, 0.0112, -193.4, -4.8)" gradientUnits="userSpaceOnUse" id="gradient50" r="819.2" spreadMethod="pad">
      <stop offset="0.0" stop-color="#000000"/>
      <stop offset="1.0" stop-color="#000000"/>
    </radialGradient>
    <radialGradient cx="0" cy="0" gradientTransform="matrix(0.0015, 0.0, 0.0, 0.0015, -1.0, -1.65)" gradientUnits="userSpaceOnUse" id="gradient51" r="819.2" spreadMethod="pad">
      <stop offset="0.0" stop-color="#151515"/>
      <stop offset="1.0" stop-color="#070707"/>
    </radialGradient>
  </defs>
</svg>
