<?xml version="1.0" encoding="UTF-8" standalone="no"?>
<svg xmlns:xlink="http://www.w3.org/1999/xlink" height="220.5px" width="387.6px" xmlns="http://www.w3.org/2000/svg">
  <g transform="matrix(1.0, 0.0, 0.0, 1.0, 388.5, 221.4)">
    <path d="M-215.5 -25.9 L-221.4 -25.25 -229.4 -25.5 -237.4 -19.9 -260.65 -24.4 -261.0 -24.9 -261.0 -28.0 -253.4 -30.0 -240.4 -34.4 -218.4 -49.0 -207.25 -60.4 -205.0 -64.15 -204.5 -63.25 -202.9 -67.75 -199.15 -73.5 -198.4 -76.5 -196.25 -82.0 -189.25 -76.15 -204.75 -63.0 -195.9 -62.4 -201.75 -45.15 -209.15 -35.75 -215.5 -25.9 M-320.4 -23.75 L-335.15 -23.4 -361.0 -41.0 -371.75 -56.75 -370.75 -56.0 -370.65 -56.4 -377.15 -66.75 -376.65 -66.5 -371.75 -59.5 -371.25 -59.4 -375.5 -70.0 -378.15 -75.5 -377.65 -79.15 -377.5 -87.15 -380.75 -98.65 -382.15 -102.25 -381.15 -106.4 -379.4 -119.75 -371.65 -136.75 -363.65 -159.15 -363.25 -159.25 -358.65 -146.5 -360.4 -143.25 -364.75 -129.4 -366.0 -113.15 -363.5 -96.65 -360.4 -87.15 -353.5 -68.9 -344.9 -56.5 -332.75 -45.65 -323.5 -38.9 -312.4 -33.25 -307.5 -31.5 -310.9 -29.9 -317.75 -24.5 -317.9 -24.5 -320.4 -23.75 M-285.9 -221.4 L-271.4 -206.15 -272.15 -202.0 -279.5 -202.4 -305.65 -197.75 -321.65 -189.25 -333.9 -181.9 -317.4 -204.0 -285.9 -221.4 M-251.5 -198.25 L-248.5 -200.9 -248.9 -197.5 -251.5 -198.25" fill="url(#gradient0)" fill-rule="evenodd" stroke="none"/>
    <path d="M-285.9 -221.4 L-264.75 -220.4 -242.9 -215.0 -219.0 -203.75 -202.4 -191.15 -189.5 -176.75 -179.0 -159.0 Q-162.0 -117.5 -175.15 -81.25 L-176.4 -76.75 -186.4 -56.65 -199.15 -40.0 -215.5 -25.9 -209.15 -35.75 -201.75 -45.15 -195.9 -62.4 -204.75 -63.0 -189.25 -76.15 -196.25 -82.0 -197.75 -83.5 -198.0 -83.4 -198.15 -82.15 -202.9 -67.75 -204.5 -63.25 -205.0 -64.15 -207.15 -91.75 -229.25 -126.5 -244.5 -155.9 -245.5 -157.65 -245.65 -157.9 -252.0 -170.25 -250.5 -184.0 -248.9 -197.5 -248.5 -200.9 -251.5 -198.25 -263.0 -187.75 -267.15 -183.4 -276.75 -173.65 -275.25 -183.15 -272.15 -202.0 -271.4 -206.15 -285.9 -221.4" fill="url(#gradient1)" fill-rule="evenodd" stroke="none"/>
    <path d="M-379.15 -69.5 L-379.25 -69.75 -379.5 -70.15 -384.0 -83.65 -387.4 -97.5 -388.5 -114.25 -386.75 -131.4 -384.4 -139.75 -377.75 -159.9 -368.65 -174.4 -359.0 -185.65 -344.15 -200.15 -327.0 -210.9 -306.5 -218.4 -285.9 -221.4 -317.4 -204.0 -333.9 -181.9 -339.65 -174.9 -346.4 -166.75 -350.0 -124.25 -350.4 -124.5 -358.65 -146.5 -363.25 -159.25 -363.65 -159.15 -371.65 -136.75 -379.4 -119.75 -381.15 -106.4 -382.15 -102.25 -380.75 -98.65 -377.5 -87.15 -377.65 -79.15 -378.15 -75.5 -375.5 -70.0 -371.25 -59.4 -371.75 -59.5 -376.65 -66.5 -377.15 -66.75 -378.9 -69.25 -379.15 -69.5" fill="url(#gradient2)" fill-rule="evenodd" stroke="none"/>
    <path d="M-272.15 -202.0 L-275.25 -183.15 -285.5 -182.65 -291.9 -178.0 -298.65 -182.15 -304.75 -182.75 -333.9 -181.9 -321.65 -189.25 -305.65 -197.75 -279.5 -202.4 -272.15 -202.0 M-267.15 -183.4 L-263.0 -187.75 -251.5 -198.25 -248.9 -197.5 -250.5 -184.0 -267.15 -183.4 M-244.5 -155.9 L-229.25 -126.5 -207.15 -91.75 -205.0 -64.15 -207.25 -60.4 -218.4 -49.0 -240.4 -34.4 -253.4 -30.0 -261.0 -28.0 -261.15 -29.65 -261.15 -31.15 -261.0 -31.5 -261.15 -31.5 -261.5 -33.4 -262.4 -34.75 -265.5 -36.65 -270.4 -39.4 -269.25 -37.25 -272.15 -38.25 -276.0 -40.25 -281.0 -40.25 -289.75 -41.0 -295.5 -40.4 -300.9 -40.5 -303.15 -38.75 -306.9 -36.75 -307.5 -31.5 -312.4 -33.25 -323.5 -38.9 -332.75 -45.65 -344.9 -56.5 -353.5 -68.9 -360.4 -87.15 -363.5 -96.65 -366.0 -113.15 -364.75 -129.4 -360.4 -143.25 -358.65 -146.5 -350.4 -124.5 -350.0 -124.25 -346.4 -166.75 -339.65 -174.9 -342.75 -156.75 -341.5 -154.65 -338.9 -153.25 -302.9 -153.9 -294.5 -160.25 -292.9 -161.4 -291.5 -160.5 -282.9 -154.65 -280.65 -154.4 -245.15 -155.75 -244.5 -155.9 M-202.9 -67.75 L-198.15 -82.15 -198.0 -83.4 -197.75 -83.5 -196.25 -82.0 -198.4 -76.5 -199.15 -73.5 -202.9 -67.75 M-311.5 -105.9 L-314.5 -104.5 -312.15 -104.4 -275.0 -105.65 -285.65 -110.65 -288.9 -111.15 -293.65 -110.5 -295.75 -109.75 -299.75 -110.65 -301.5 -110.65 -304.65 -110.0 -311.5 -105.9 M-314.4 -102.9 L-315.15 -102.5 Q-307.15 -95.75 -295.15 -94.65 -282.0 -96.15 -274.4 -103.75 L-314.4 -102.9" fill="url(#gradient3)" fill-rule="evenodd" stroke="none"/>
    <path d="M-275.25 -183.15 L-276.75 -173.65 -267.15 -183.4 -250.5 -184.0 -252.0 -170.25 -245.65 -157.9 -283.5 -156.5 -292.0 -162.15 -293.4 -163.15 -294.0 -163.5 -295.5 -162.25 -303.9 -156.0 -339.75 -155.15 -342.75 -156.75 -339.65 -174.9 -333.9 -181.9 -304.75 -182.75 -298.65 -182.15 -291.9 -178.0 -285.5 -182.65 -275.25 -183.15" fill="url(#gradient4)" fill-rule="evenodd" stroke="none"/>
    <path d="M-371.75 -56.75 L-379.15 -69.5 -378.9 -69.25 -377.15 -66.75 -370.65 -56.4 -370.75 -56.0 -371.75 -56.75" fill="url(#gradient5)" fill-rule="evenodd" stroke="none"/>
    <path d="M-292.9 -161.4 L-294.5 -160.25 -295.5 -162.25 -294.0 -163.5 -293.4 -163.15 -292.9 -161.4" fill="url(#gradient6)" fill-rule="evenodd" stroke="none"/>
    <path d="M-293.4 -163.15 L-292.0 -162.15 -291.5 -160.5 -292.9 -161.4 -293.4 -163.15" fill="url(#gradient7)" fill-rule="evenodd" stroke="none"/>
    <path d="M-302.9 -153.9 L-303.9 -156.0 -295.5 -162.25 -294.5 -160.25 -302.9 -153.9" fill="url(#gradient8)" fill-rule="evenodd" stroke="none"/>
    <path d="M-338.9 -153.25 L-339.75 -155.15 -303.9 -156.0 -302.9 -153.9 -338.9 -153.25" fill="url(#gradient9)" fill-rule="evenodd" stroke="none"/>
    <path d="M-338.9 -153.25 L-341.5 -154.65 -342.75 -156.75 -339.75 -155.15 -338.9 -153.25" fill="url(#gradient10)" fill-rule="evenodd" stroke="none"/>
    <path d="M-292.0 -162.15 L-283.5 -156.5 -282.9 -154.65 -291.5 -160.5 -292.0 -162.15" fill="url(#gradient11)" fill-rule="evenodd" stroke="none"/>
    <path d="M-245.65 -157.9 L-245.5 -157.65 -245.15 -155.75 -280.65 -154.4 -282.9 -154.65 -283.5 -156.5 -245.65 -157.9" fill="url(#gradient12)" fill-rule="evenodd" stroke="none"/>
    <path d="M-245.5 -157.65 L-244.5 -155.9 -245.15 -155.75 -245.5 -157.65" fill="url(#gradient13)" fill-rule="evenodd" stroke="none"/>
    <path d="M-312.5 -105.0 Q-303.75 -110.75 -302.15 -110.0 L-300.4 -110.15 -296.0 -109.15 -292.15 -110.4 -288.5 -110.5 -284.9 -109.65 Q-281.4 -108.4 -280.5 -107.25 L-277.5 -106.15 -278.25 -105.75 -312.5 -105.0" fill="url(#gradient14)" fill-rule="evenodd" stroke="none"/>
    <path d="M-311.5 -105.9 L-304.65 -110.0 -301.5 -110.65 -299.75 -110.65 -295.75 -109.75 -293.65 -110.5 -288.9 -111.15 -285.65 -110.65 -275.0 -105.65 -312.15 -104.4 -314.5 -104.5 -311.5 -105.9 M-312.5 -105.0 L-278.25 -105.75 -277.5 -106.15 -280.5 -107.25 Q-281.4 -108.4 -284.9 -109.65 L-288.5 -110.5 -292.15 -110.4 -296.0 -109.15 -300.4 -110.15 -302.15 -110.0 Q-303.75 -110.75 -312.5 -105.0" fill="url(#gradient15)" fill-rule="evenodd" stroke="none"/>
    <path d="M-314.4 -102.9 L-274.4 -103.75 Q-282.0 -96.15 -295.15 -94.65 -307.15 -95.75 -315.15 -102.5 L-314.4 -102.9 M-275.75 -103.25 L-314.4 -102.4 Q-308.65 -96.5 -293.9 -95.25 -276.5 -100.0 -275.75 -103.25" fill="url(#gradient16)" fill-rule="evenodd" stroke="none"/>
    <path d="M-275.75 -103.25 Q-276.5 -100.0 -293.9 -95.25 -308.65 -96.5 -314.4 -102.4 L-275.75 -103.25" fill="url(#gradient17)" fill-rule="evenodd" stroke="none"/>
    <path d="M-307.5 -31.5 L-306.9 -36.75 -303.15 -38.75 -300.9 -40.5 -295.5 -40.4 -289.75 -41.0 -281.0 -40.25 -276.0 -40.25 -272.15 -38.25 -269.25 -37.25 -266.4 -32.5 -266.4 -30.15 -267.25 -27.75 Q-272.65 -30.9 -273.5 -30.25 L-310.9 -29.9 -307.5 -31.5" fill="url(#gradient18)" fill-rule="evenodd" stroke="none"/>
    <path d="M-269.25 -37.25 L-270.4 -39.4 -265.5 -36.65 -266.4 -32.5 -269.25 -37.25" fill="url(#gradient19)" fill-rule="evenodd" stroke="none"/>
    <path d="M-265.5 -36.65 L-262.4 -34.75 -261.5 -33.4 -261.15 -31.5 -261.15 -31.15 -261.15 -29.65 -261.25 -29.65 -261.4 -29.5 -262.15 -31.0 -262.0 -25.4 -265.75 -27.15 -266.4 -30.15 -266.4 -32.5 -265.5 -36.65" fill="url(#gradient20)" fill-rule="evenodd" stroke="none"/>
    <path d="M-261.15 -31.5 L-261.0 -31.5 -261.15 -31.15 -261.15 -31.5 M-261.15 -29.65 L-261.0 -28.0 -261.0 -24.9 -262.0 -25.4 -262.15 -31.0 -261.4 -29.5 -261.25 -29.65 -261.15 -29.65 M-265.75 -27.15 L-267.25 -27.75 -266.4 -30.15 -265.75 -27.15" fill="url(#gradient21)" fill-rule="evenodd" stroke="none"/>
    <path d="M-7.0 -54.25 L-10.0 -51.5 -10.75 -54.15 -6.75 -57.9 -5.75 -54.9 -7.0 -54.25" fill="url(#gradient22)" fill-rule="evenodd" stroke="none"/>
    <path d="M-6.0 -32.9 L-5.75 -33.9 -6.15 -34.25 -7.4 -49.5 -6.15 -50.65 -5.9 -51.75 -6.5 -53.5 -7.4 -53.4 -7.0 -54.25 -5.75 -54.9 -6.75 -57.9 Q-5.0 -60.0 -0.9 -58.15 L-0.9 -39.75 -2.15 -45.0 Q-3.15 -43.9 -1.25 -34.5 L-1.9 -34.15 -4.5 -33.25 -4.9 -33.15 -5.0 -33.0 -5.15 -33.0 -5.5 -32.9 -6.0 -32.9 M-10.15 -47.75 L-10.15 -47.4 -10.75 -47.4 -10.15 -47.75 M-11.9 -47.0 L-12.25 -46.9 -12.15 -46.5 -9.9 -47.15 -9.9 -47.0 -10.0 -46.65 -10.0 -46.4 -13.85 -46.4 -12.65 -46.9 -11.9 -47.0 M-10.15 -45.5 L-10.15 -44.9 -10.5 -44.5 -10.25 -44.25 -9.9 -36.4 -17.0 -42.9 -14.25 -43.4 -14.9 -44.4 -14.5 -44.9 -14.9 -44.65 -15.25 -45.25 -15.65 -45.0 -15.25 -45.5 -15.75 -45.65 -15.15 -45.65 -15.25 -45.9 -14.1 -46.3 -10.15 -45.5 M-13.5 -44.9 L-13.4 -45.4 -13.9 -45.0 -13.65 -45.5 -14.4 -45.9 -14.0 -44.9 -13.5 -44.9 M-11.75 -45.0 L-11.65 -45.25 -12.0 -45.15 -11.75 -45.0 M-12.5 -40.4 L-12.65 -40.75 -12.9 -40.5 -12.5 -40.4 M-15.0 -42.65 L-15.0 -43.0 -15.25 -42.75 -15.0 -42.65 M-12.75 -41.9 L-13.0 -42.15 -13.25 -41.9 -12.75 -41.9 M-13.5 -44.75 L-13.25 -44.65 -13.15 -45.15 -13.5 -44.75 M-14.15 -44.0 L-14.0 -43.4 -14.4 -43.15 -13.75 -43.5 -13.9 -44.15 -14.15 -44.0 -14.0 -44.25 -14.4 -44.15 -14.15 -44.0 M-11.4 -38.9 L-11.15 -39.15 -11.65 -39.15 -11.4 -38.9 M-18.5 -44.75 L-18.0 -45.25 -17.9 -45.0 -17.9 -45.4 -17.75 -45.0 -17.25 -45.65 -17.9 -44.15 -17.65 -43.4 -18.15 -43.65 -18.15 -44.0 -18.4 -44.15 -18.4 -44.25 -18.5 -44.75 M-16.65 -45.0 L-17.5 -44.0 -17.75 -44.15 -16.65 -45.0 M-18.0 -44.15 L-18.0 -44.5 -18.4 -44.25 -18.0 -44.15 M-16.25 -42.5 L-15.4 -42.75 -16.5 -42.75 -16.25 -42.5" fill="url(#gradient23)" fill-rule="evenodd" stroke="none"/>
    <path d="M-1.25 -34.5 Q-3.15 -43.9 -2.15 -45.0 L-0.9 -39.75 -0.9 -34.4 -1.25 -34.5" fill="url(#gradient24)" fill-rule="evenodd" stroke="none"/>
    <path d="M-1.9 -34.15 L-1.25 -34.5 -0.9 -34.4 -1.9 -34.15" fill="url(#gradient25)" fill-rule="evenodd" stroke="none"/>
    <path d="M-7.0 -32.5 L-6.0 -32.75 -6.0 -32.9 -5.5 -32.9 -5.15 -33.0 -5.0 -33.0 -4.9 -33.15 -4.5 -33.25 -1.9 -34.15 -0.9 -34.4 -0.9 -30.0 -3.9 -30.5 -7.15 -30.4 -8.5 -28.15 -15.9 -25.9 -18.65 -24.4 -19.15 -23.4 -18.65 -22.5 -19.15 -22.4 -19.75 -23.65 -19.5 -24.4 -17.0 -27.25 -13.75 -29.9 -9.75 -32.9 -9.5 -32.9 -9.5 -32.75 -8.25 -32.25 -7.25 -32.5 -7.0 -32.5 M-0.9 -26.0 L-0.9 -25.65 -4.5 -26.4 -7.25 -26.4 -7.75 -26.25 -6.75 -26.75 -4.65 -26.75 -0.9 -26.0" fill="url(#gradient26)" fill-rule="evenodd" stroke="none"/>
    <path d="M-7.4 -53.4 L-8.0 -52.75 -11.0 -50.0 -10.9 -50.65 -10.0 -51.4 -10.0 -51.5 -7.0 -54.25 -7.4 -53.4" fill="url(#gradient27)" fill-rule="evenodd" stroke="none"/>
    <path d="M-8.0 -52.75 L-7.4 -53.4 -6.5 -53.5 -5.9 -51.75 -6.15 -50.65 -7.4 -49.5 -6.15 -34.25 -5.75 -33.9 -6.0 -32.9 -6.0 -32.75 -7.0 -32.5 -8.4 -43.4 -9.4 -48.25 -8.0 -52.75" fill="url(#gradient28)" fill-rule="evenodd" stroke="none"/>
    <path d="M-8.0 -52.75 L-9.4 -48.25 -10.0 -47.75 -10.15 -47.75 -10.75 -47.4 -11.65 -47.15 -11.9 -47.0 -12.65 -46.9 -12.15 -48.65 -11.0 -50.0 -8.0 -52.75" fill="url(#gradient29)" fill-rule="evenodd" stroke="none"/>
    <path d="M-9.4 -48.25 L-8.4 -43.4 -7.0 -32.5 -7.25 -32.5 -8.5 -32.4 -9.5 -32.75 -9.5 -32.9 -9.75 -32.9 -9.9 -36.0 -9.9 -36.4 -10.25 -44.25 -10.25 -44.4 -10.15 -44.65 -10.15 -44.9 -10.15 -45.5 -10.15 -45.65 -10.0 -46.0 -10.0 -46.4 -10.0 -46.65 -9.9 -47.0 -9.9 -47.15 -9.9 -47.65 -10.0 -47.75 -9.4 -48.25" fill="url(#gradient30)" fill-rule="evenodd" stroke="none"/>
    <path d="M-10.75 -47.4 L-10.15 -47.4 -10.15 -47.75 -10.0 -47.75 -9.9 -47.65 -9.9 -47.15 -12.15 -46.5 -12.25 -46.9 -11.9 -47.0 -11.65 -47.15 -10.75 -47.4 M-10.0 -46.4 L-10.0 -46.0 -10.15 -45.65 -10.15 -45.5 -14.1 -46.3 -13.85 -46.4 -10.0 -46.4 M-10.15 -44.9 L-10.15 -44.65 -10.25 -44.4 -10.25 -44.25 -10.5 -44.5 -10.15 -44.9 M-11.75 -45.0 L-12.0 -45.15 -11.65 -45.25 -11.75 -45.0 M-13.5 -44.9 L-14.0 -44.9 -14.4 -45.9 -13.65 -45.5 -13.9 -45.0 -13.4 -45.4 -13.5 -44.9 M-15.25 -45.9 L-15.15 -45.65 -15.75 -45.65 -15.25 -45.5 -15.65 -45.0 -15.25 -45.25 -14.9 -44.65 -14.5 -44.9 -14.9 -44.4 -14.25 -43.4 -17.0 -42.9 -17.65 -43.4 -17.9 -44.15 -17.25 -45.65 -17.75 -45.0 -17.9 -45.4 -17.9 -45.0 -18.0 -45.25 -17.9 -45.4 -17.5 -45.9 -15.25 -45.9 M-14.15 -44.0 L-14.4 -44.15 -14.0 -44.25 -14.15 -44.0 -13.9 -44.15 -13.75 -43.5 -14.4 -43.15 -14.0 -43.4 -14.15 -44.0 M-13.5 -44.75 L-13.15 -45.15 -13.25 -44.65 -13.5 -44.75 M-12.75 -41.9 L-13.25 -41.9 -13.0 -42.15 -12.75 -41.9 M-15.0 -42.65 L-15.25 -42.75 -15.0 -43.0 -15.0 -42.65 M-12.5 -40.4 L-12.9 -40.5 -12.65 -40.75 -12.5 -40.4 M-11.4 -38.9 L-11.65 -39.15 -11.15 -39.15 -11.4 -38.9 M-16.65 -45.0 L-17.75 -44.15 -17.5 -44.0 -16.65 -45.0 M-18.0 -44.15 L-18.4 -44.25 -18.0 -44.5 -18.0 -44.15 M-16.25 -42.5 L-16.5 -42.75 -15.4 -42.75 -16.25 -42.5" fill="url(#gradient31)" fill-rule="evenodd" stroke="none"/>
    <path d="M-9.9 -36.4 L-9.9 -36.0 -13.9 -32.65 -13.75 -32.65 -13.9 -32.5 -13.9 -32.65 -21.9 -40.4 -21.9 -40.75 -22.0 -41.4 -18.5 -44.75 -18.4 -44.25 -21.0 -41.6 -18.4 -44.15 -18.15 -44.0 -18.15 -43.65 -17.65 -43.4 -17.0 -42.9 -9.9 -36.4" fill="url(#gradient32)" fill-rule="evenodd" stroke="none"/>
    <path d="M-9.9 -36.0 L-9.75 -32.9 -13.75 -29.9 -13.9 -32.5 -13.75 -32.65 -13.9 -32.65 -9.9 -36.0" fill="url(#gradient33)" fill-rule="evenodd" stroke="none"/>
    <path d="M-18.4 -44.25 L-18.4 -44.15 -21.0 -41.6 -18.4 -44.25" fill="url(#gradient34)" fill-rule="evenodd" stroke="none"/>
    <path d="M-9.5 -32.75 L-8.5 -32.4 -7.25 -32.5 -8.25 -32.25 -9.5 -32.75" fill="url(#gradient35)" fill-rule="evenodd" stroke="none"/>
    <path d="M-250.15 -0.9 L-335.25 -0.9 -319.9 -21.4 -318.15 -21.65 -317.75 -22.0 -316.75 -24.0 -317.65 -23.9 -318.0 -23.9 -317.75 -24.5 -310.9 -29.9 -273.5 -30.25 Q-272.65 -30.9 -267.25 -27.75 L-265.75 -27.15 -262.0 -25.4 -261.0 -24.9 -260.65 -24.4 -260.65 -24.25 -261.4 -24.15 -259.65 -22.25 -250.15 -0.9" fill="url(#gradient36)" fill-rule="evenodd" stroke="none"/>
    <path d="M-335.25 -0.9 L-351.4 -0.9 -321.25 -22.0 -319.9 -21.4 -335.25 -0.9 M-318.0 -23.9 L-318.75 -23.65 -317.9 -24.5 -317.75 -24.5 -318.0 -23.9" fill="url(#gradient37)" fill-rule="evenodd" stroke="none"/>
    <path d="M-351.4 -0.9 L-358.75 -0.9 -354.25 -12.4 -320.4 -23.75 -317.9 -24.5 -318.75 -23.65 -319.0 -23.5 -321.4 -22.9 -321.25 -22.0 -351.4 -0.9" fill="url(#gradient38)" fill-rule="evenodd" stroke="none"/>
    <path d="M-0.9 -30.0 L-0.9 -26.0 -4.65 -26.75 -6.75 -26.75 -7.75 -26.25 -7.9 -26.25 -9.65 -25.65 -10.0 -25.5 -10.4 -25.4 -10.75 -25.25 -11.15 -25.15 -11.5 -25.0 -11.9 -24.9 -12.25 -24.75 -12.4 -24.65 -15.15 -23.65 -18.65 -22.5 -19.15 -23.4 -18.65 -24.4 -15.9 -25.9 -8.5 -28.15 -7.15 -30.4 -3.9 -30.5 -0.9 -30.0" fill="url(#gradient39)" fill-rule="evenodd" stroke="none"/>
    <path d="M-18.4 -21.0 L-22.15 -19.65 -19.15 -22.4 -18.65 -22.5 -15.15 -23.65 -18.4 -21.0" fill="url(#gradient40)" fill-rule="evenodd" stroke="none"/>
    <path d="M-10.75 -23.5 L-18.4 -21.0 -15.15 -23.65 -12.4 -24.65 -12.25 -24.75 -11.9 -24.9 -11.5 -25.0 -11.15 -25.15 -10.75 -25.25 -10.4 -25.4 -10.0 -25.5 -9.65 -25.65 -7.9 -26.25 -7.75 -26.25 -7.25 -26.4 -10.75 -23.5 M-22.15 -19.65 L-22.75 -19.65 -19.15 -22.4 -22.15 -19.65" fill="url(#gradient41)" fill-rule="evenodd" stroke="none"/>
    <path d="M-0.9 -25.65 L-1.0 -19.9 Q-4.65 -23.9 -10.75 -23.5 L-7.25 -26.4 -4.5 -26.4 -0.9 -25.65" fill="url(#gradient42)" fill-rule="evenodd" stroke="none"/>
    <path d="M-238.65 -0.9 L-250.15 -0.9 -259.65 -22.25 -258.4 -22.15 -238.65 -0.9 M-260.4 -24.15 L-260.65 -24.25 -260.65 -24.4 -260.4 -24.15" fill="url(#gradient43)" fill-rule="evenodd" stroke="none"/>
    <path d="M-318.0 -23.9 L-317.65 -23.9 -316.75 -24.0 -317.75 -22.0 -318.15 -21.65 -319.9 -21.4 -321.25 -22.0 -321.4 -22.9 -319.0 -23.5 -318.75 -23.65 -318.0 -23.9 M-258.4 -22.15 L-259.65 -22.25 -261.4 -24.15 -260.65 -24.25 -260.4 -24.15 -256.4 -23.4 -257.9 -23.15 -258.4 -22.15" fill="url(#gradient44)" fill-rule="evenodd" stroke="none"/>
    <path d="M-237.4 -19.9 L-216.9 -15.65 -212.25 -0.9 -238.65 -0.9 -258.4 -22.15 -257.9 -23.15 -256.4 -23.4 -260.4 -24.15 -260.65 -24.4 -237.4 -19.9" fill="url(#gradient45)" fill-rule="evenodd" stroke="none"/>
    <path d="M-22.9 -21.15 L-21.9 -22.9 -17.0 -27.25 -19.5 -24.4 -19.75 -23.65 -22.9 -21.15" fill="url(#gradient46)" fill-rule="evenodd" stroke="none"/>
    <path d="M-22.75 -19.65 L-23.15 -20.65 -22.9 -21.15 -19.75 -23.65 -19.15 -22.4 -22.75 -19.65" fill="url(#gradient47)" fill-rule="evenodd" stroke="none"/>
    <path d="M-358.75 -0.9 L-375.9 -0.9 -375.0 -4.25 -374.75 -4.65 -354.25 -12.4 -358.75 -0.9" fill="url(#gradient48)" fill-rule="evenodd" stroke="none"/>
    <path d="M-375.9 -0.9 L-378.15 -0.9 -375.0 -4.25 -375.9 -0.9" fill="url(#gradient49)" fill-rule="evenodd" stroke="none"/>
    <path d="M-197.15 -0.9 L-212.25 -0.9 -216.9 -15.65 -197.15 -0.9" fill="url(#gradient50)" fill-rule="evenodd" stroke="none"/>
    <path d="M-216.9 -15.65 L-215.0 -15.15 -194.25 -1.25 -193.9 -0.9 -197.15 -0.9 -216.9 -15.65" fill="url(#gradient51)" fill-rule="evenodd" stroke="none"/>
    <path d="M-327.0 -37.0 L-328.4 -35.0 -329.4 -33.9 -335.5 -36.5 -327.0 -37.0 M-248.9 -36.5 L-249.9 -33.5 -249.75 -33.4 -250.25 -32.15 -251.15 -28.0 -251.9 -26.5 -251.9 -26.15 -252.5 -23.0 -254.9 -23.4 -254.5 -27.65 -255.75 -29.4 -256.15 -29.75 -256.4 -30.25 -259.9 -34.9 -260.25 -35.15 -261.15 -36.65 -248.9 -36.5" fill="#a90000" fill-rule="evenodd" stroke="none"/>
    <path d="M-327.0 -37.0 L-325.65 -36.5 -325.4 -36.25 -323.25 -35.4 -323.25 -35.0 -320.9 -34.25 -317.65 -32.75 -312.25 -28.9 -315.9 -26.0 -323.5 -30.65 -323.9 -31.15 -325.0 -31.75 -325.0 -31.9 -326.15 -32.65 -326.65 -32.75 -329.4 -33.9 -328.4 -35.0 -327.0 -37.0 M-335.5 -36.5 L-329.4 -33.9 -334.9 -27.0 -335.25 -25.9 -335.4 -24.9 -335.75 -24.0 -342.65 -28.4 -337.4 -34.5 -337.25 -34.5 -335.5 -36.5 M-260.25 -35.15 L-259.9 -34.9 -256.4 -30.25 -256.15 -29.75 -255.75 -29.4 -254.5 -27.65 -254.9 -23.4 -252.5 -23.0 -251.9 -26.15 -251.9 -26.5 -251.15 -28.0 -250.25 -32.15 -249.75 -33.4 -249.9 -33.5 -248.9 -36.5 -247.9 -34.4 -247.75 -33.9 -245.9 -30.0 -245.75 -29.0 -245.4 -28.65 -245.5 -23.0 -245.65 -22.5 -245.5 -22.15 -245.65 -21.5 -245.9 -16.65 -245.75 -16.4 -246.25 -9.15 -246.15 -8.75 -246.5 -0.9 -256.65 -0.9 -256.15 -4.75 -256.4 -5.4 -255.9 -8.15 -256.0 -9.5 -255.5 -12.75 -255.75 -13.75 -255.0 -21.4 -255.15 -21.65 -254.9 -23.4 -260.65 -24.5 -260.75 -24.65 -260.75 -25.25 -259.5 -28.4 -259.25 -29.5 -258.9 -32.0 -260.15 -34.75 -260.25 -35.15 M-337.4 -18.0 L-338.75 -12.5 -338.9 -12.25 -339.65 -9.25 -339.9 -8.9 -339.75 -8.5 -342.0 -0.9 -351.65 -0.9 -350.4 -5.65 -350.15 -6.0 -347.65 -14.5 -337.4 -18.0" fill="#9b0000" fill-opacity="0.9098039" fill-rule="evenodd" stroke="none"/>
    <path d="M-342.65 -28.4 L-335.75 -24.0 -335.75 -23.75 -337.25 -18.15 -337.25 -18.0 -337.4 -18.0 -347.65 -14.5 -343.9 -26.9 -342.65 -28.4" fill="#ab0000" fill-opacity="0.9098039" fill-rule="evenodd" stroke="none"/>
  </g>
  <defs>
    <radialGradient cx="0" cy="0" gradientTransform="matrix(0.2287, 0.0, 0.0, 0.2287, -216.95, -64.25)" gradientUnits="userSpaceOnUse" id="gradient0" r="819.2" spreadMethod="pad">
      <stop offset="0.0" stop-color="#5a5a5a"/>
      <stop offset="1.0" stop-color="#111111"/>
    </radialGradient>
    <radialGradient cx="0" cy="0" gradientTransform="matrix(0.2345, 0.0, 0.0, 0.2345, -186.05, -57.35)" gradientUnits="userSpaceOnUse" id="gradient1" r="819.2" spreadMethod="pad">
      <stop offset="0.0" stop-color="#393939"/>
      <stop offset="1.0" stop-color="#141414"/>
    </radialGradient>
    <radialGradient cx="0" cy="0" gradientTransform="matrix(0.1299, 0.0, 0.0, 0.1299, -356.9, -142.35)" gradientUnits="userSpaceOnUse" id="gradient2" r="819.2" spreadMethod="pad">
      <stop offset="0.0" stop-color="#494949"/>
      <stop offset="1.0" stop-color="#1c1c1c"/>
    </radialGradient>
    <radialGradient cx="0" cy="0" gradientTransform="matrix(0.2067, 0.0, 0.0, 0.2067, -363.5, -97.05)" gradientUnits="userSpaceOnUse" id="gradient3" r="819.2" spreadMethod="pad">
      <stop offset="0.0" stop-color="#7e7e7e"/>
      <stop offset="1.0" stop-color="#000000"/>
    </radialGradient>
    <radialGradient cx="0" cy="0" gradientTransform="matrix(0.1244, 0.0, 0.0, 0.1244, -342.75, -156.95)" gradientUnits="userSpaceOnUse" id="gradient4" r="819.2" spreadMethod="pad">
      <stop offset="0.0" stop-color="#767676"/>
      <stop offset="1.0" stop-color="#767676"/>
    </radialGradient>
    <radialGradient cx="0" cy="0" gradientTransform="matrix(0.0214, 0.0, 0.0, 0.0214, -379.85, -70.95)" gradientUnits="userSpaceOnUse" id="gradient5" r="819.2" spreadMethod="pad">
      <stop offset="0.0" stop-color="#262626"/>
      <stop offset="1.0" stop-color="#1c1c1c"/>
    </radialGradient>
    <radialGradient cx="0" cy="0" gradientTransform="matrix(0.0034, 0.0, 0.0, 0.0034, -295.5, -162.4)" gradientUnits="userSpaceOnUse" id="gradient6" r="819.2" spreadMethod="pad">
      <stop offset="0.0" stop-color="#e2e2e2"/>
      <stop offset="1.0" stop-color="#e0e0e0"/>
    </radialGradient>
    <radialGradient cx="0" cy="0" gradientTransform="matrix(0.0029, 0.0, 0.0, 0.0029, -292.15, -162.5)" gradientUnits="userSpaceOnUse" id="gradient7" r="819.2" spreadMethod="pad">
      <stop offset="0.0" stop-color="#8c8c8c"/>
      <stop offset="1.0" stop-color="#8c8c8c"/>
    </radialGradient>
    <radialGradient cx="0" cy="0" gradientTransform="matrix(0.0127, 0.0, 0.0, 0.0127, -303.85, -156.15)" gradientUnits="userSpaceOnUse" id="gradient8" r="819.2" spreadMethod="pad">
      <stop offset="0.0" stop-color="#e1e1e1"/>
      <stop offset="1.0" stop-color="#dfdfdf"/>
    </radialGradient>
    <radialGradient cx="0" cy="0" gradientTransform="matrix(0.0438, 0.0, 0.0, 0.0438, -303.85, -156.15)" gradientUnits="userSpaceOnUse" id="gradient9" r="819.2" spreadMethod="pad">
      <stop offset="0.0" stop-color="#767676"/>
      <stop offset="1.0" stop-color="#767676"/>
    </radialGradient>
    <radialGradient cx="0" cy="0" gradientTransform="matrix(0.0043, 0.0, 0.0, 0.0043, -339.75, -155.2)" gradientUnits="userSpaceOnUse" id="gradient10" r="819.2" spreadMethod="pad">
      <stop offset="0.0" stop-color="#838383"/>
      <stop offset="1.0" stop-color="#838383"/>
    </radialGradient>
    <radialGradient cx="0" cy="0" gradientTransform="matrix(0.0128, 0.0, 0.0, 0.0128, -283.45, -156.6)" gradientUnits="userSpaceOnUse" id="gradient11" r="819.2" spreadMethod="pad">
      <stop offset="0.0" stop-color="#8b8b8b"/>
      <stop offset="1.0" stop-color="#8b8b8b"/>
    </radialGradient>
    <radialGradient cx="0" cy="0" gradientTransform="matrix(0.0461, 0.0, 0.0, 0.0461, -245.7, -157.95)" gradientUnits="userSpaceOnUse" id="gradient12" r="819.2" spreadMethod="pad">
      <stop offset="0.0" stop-color="#767676"/>
      <stop offset="1.0" stop-color="#767676"/>
    </radialGradient>
    <radialGradient cx="0" cy="0" gradientTransform="matrix(0.0044, 0.0, 0.0, 0.0044, -245.7, -157.95)" gradientUnits="userSpaceOnUse" id="gradient13" r="819.2" spreadMethod="pad">
      <stop offset="0.0" stop-color="#bbbbbb"/>
      <stop offset="1.0" stop-color="#b9b9b9"/>
    </radialGradient>
    <radialGradient cx="0" cy="0" gradientTransform="matrix(0.0412, 0.0, 0.0, 0.0412, -279.0, -106.75)" gradientUnits="userSpaceOnUse" id="gradient14" r="819.2" spreadMethod="pad">
      <stop offset="0.0" stop-color="#ff5151"/>
      <stop offset="1.0" stop-color="#ff4c4c"/>
    </radialGradient>
    <radialGradient cx="0" cy="0" gradientTransform="matrix(0.0429, 0.0, 0.0, 0.0429, -279.6, -107.05)" gradientUnits="userSpaceOnUse" id="gradient15" r="819.2" spreadMethod="pad">
      <stop offset="0.0" stop-color="#ff5151"/>
      <stop offset="1.0" stop-color="#330000"/>
    </radialGradient>
    <radialGradient cx="0" cy="0" gradientTransform="matrix(0.0446, 0.0, 0.0, 0.0446, -278.65, -100.25)" gradientUnits="userSpaceOnUse" id="gradient16" r="819.2" spreadMethod="pad">
      <stop offset="0.0" stop-color="#f89797"/>
      <stop offset="1.0" stop-color="#4f1818"/>
    </radialGradient>
    <radialGradient cx="0" cy="0" gradientTransform="matrix(0.0332, 0.0, 0.0, 0.0332, -287.8, -96.85)" gradientUnits="userSpaceOnUse" id="gradient17" r="819.2" spreadMethod="pad">
      <stop offset="0.0" stop-color="#ff3030"/>
      <stop offset="1.0" stop-color="#ff2d2d"/>
    </radialGradient>
    <radialGradient cx="0" cy="0" gradientTransform="matrix(0.0506, 0.0, 0.0, 0.0506, -306.65, -38.25)" gradientUnits="userSpaceOnUse" id="gradient18" r="819.2" spreadMethod="pad">
      <stop offset="0.0" stop-color="#1a1a1a"/>
      <stop offset="1.0" stop-color="#000000"/>
    </radialGradient>
    <radialGradient cx="0" cy="0" gradientTransform="matrix(0.0237, 0.0, 0.0, 0.0237, -276.15, -49.25)" gradientUnits="userSpaceOnUse" id="gradient19" r="819.2" spreadMethod="pad">
      <stop offset="0.0" stop-color="#797979"/>
      <stop offset="1.0" stop-color="#000000"/>
    </radialGradient>
    <radialGradient cx="0" cy="0" gradientTransform="matrix(0.0404, 0.0, 0.0, 0.0404, -260.9, -33.35)" gradientUnits="userSpaceOnUse" id="gradient20" r="819.2" spreadMethod="pad">
      <stop offset="0.0" stop-color="#101010"/>
      <stop offset="1.0" stop-color="#000000"/>
    </radialGradient>
    <radialGradient cx="0" cy="0" gradientTransform="matrix(0.0112, 0.0, 0.0, 0.0112, -261.15, -28.75)" gradientUnits="userSpaceOnUse" id="gradient21" r="819.2" spreadMethod="pad">
      <stop offset="0.0" stop-color="#7b7b7b"/>
      <stop offset="1.0" stop-color="#1b1b1b"/>
    </radialGradient>
    <radialGradient cx="0" cy="0" gradientTransform="matrix(0.0071, 0.0, 0.0, 0.0071, -10.8, -54.05)" gradientUnits="userSpaceOnUse" id="gradient22" r="819.2" spreadMethod="pad">
      <stop offset="0.0" stop-color="#262626"/>
      <stop offset="1.0" stop-color="#262626"/>
    </radialGradient>
    <radialGradient cx="0" cy="0" gradientTransform="matrix(0.0194, 0.0, 0.0, 0.0194, -9.3, -48.15)" gradientUnits="userSpaceOnUse" id="gradient23" r="819.2" spreadMethod="pad">
      <stop offset="0.0" stop-color="#040404"/>
      <stop offset="1.0" stop-color="#040404"/>
    </radialGradient>
    <radialGradient cx="0" cy="0" gradientTransform="matrix(0.0067, 0.0, 0.0, 0.0067, -1.0, -39.8)" gradientUnits="userSpaceOnUse" id="gradient24" r="819.2" spreadMethod="pad">
      <stop offset="0.0" stop-color="#020202"/>
      <stop offset="1.0" stop-color="#020202"/>
    </radialGradient>
    <radialGradient cx="0" cy="0" gradientTransform="matrix(0.0065, 0.0, 0.0, 0.0065, -5.4, -33.05)" gradientUnits="userSpaceOnUse" id="gradient25" r="819.2" spreadMethod="pad">
      <stop offset="0.0" stop-color="#040404"/>
      <stop offset="1.0" stop-color="#040404"/>
    </radialGradient>
    <radialGradient cx="0" cy="0" gradientTransform="matrix(0.0187, 0.0, 0.0, 0.0187, -4.45, -26.5)" gradientUnits="userSpaceOnUse" id="gradient26" r="819.2" spreadMethod="pad">
      <stop offset="0.0" stop-color="#040404"/>
      <stop offset="1.0" stop-color="#040404"/>
    </radialGradient>
    <radialGradient cx="0" cy="0" gradientTransform="matrix(0.0081, 0.0, 0.0, 0.0081, -10.85, -50.6)" gradientUnits="userSpaceOnUse" id="gradient27" r="819.2" spreadMethod="pad">
      <stop offset="0.0" stop-color="#303030"/>
      <stop offset="1.0" stop-color="#303030"/>
    </radialGradient>
    <radialGradient cx="0" cy="0" gradientTransform="matrix(0.0249, 0.0, 0.0, 0.0249, -7.7, -53.1)" gradientUnits="userSpaceOnUse" id="gradient28" r="819.2" spreadMethod="pad">
      <stop offset="0.0" stop-color="#171717"/>
      <stop offset="1.0" stop-color="#171717"/>
    </radialGradient>
    <radialGradient cx="0" cy="0" gradientTransform="matrix(0.0118, 0.0, 0.0, 0.0118, -8.0, -52.5)" gradientUnits="userSpaceOnUse" id="gradient29" r="819.2" spreadMethod="pad">
      <stop offset="0.0" stop-color="#828282"/>
      <stop offset="1.0" stop-color="#808080"/>
    </radialGradient>
    <radialGradient cx="0" cy="0" gradientTransform="matrix(0.0112, 0.0, 0.0, 0.0112, -10.25, -41.25)" gradientUnits="userSpaceOnUse" id="gradient30" r="819.2" spreadMethod="pad">
      <stop offset="0.0" stop-color="#020202"/>
      <stop offset="1.0" stop-color="#020202"/>
    </radialGradient>
    <radialGradient cx="0" cy="0" gradientTransform="matrix(0.0084, 0.0, 0.0, 0.0084, -11.3, -44.25)" gradientUnits="userSpaceOnUse" id="gradient31" r="819.2" spreadMethod="pad">
      <stop offset="0.0" stop-color="#171717"/>
      <stop offset="1.0" stop-color="#171717"/>
    </radialGradient>
    <radialGradient cx="0" cy="0" gradientTransform="matrix(0.0164, 0.0, 0.0, 0.0164, -21.9, -41.4)" gradientUnits="userSpaceOnUse" id="gradient32" r="819.2" spreadMethod="pad">
      <stop offset="0.0" stop-color="#303030"/>
      <stop offset="1.0" stop-color="#212121"/>
    </radialGradient>
    <radialGradient cx="0" cy="0" gradientTransform="matrix(0.0067, 0.0, 0.0, 0.0067, -13.9, -33.05)" gradientUnits="userSpaceOnUse" id="gradient33" r="819.2" spreadMethod="pad">
      <stop offset="0.0" stop-color="#202020"/>
      <stop offset="1.0" stop-color="#202020"/>
    </radialGradient>
    <radialGradient cx="0" cy="0" gradientTransform="matrix(0.0067, 0.0, 0.0, 0.0067, -18.2, -44.55)" gradientUnits="userSpaceOnUse" id="gradient34" r="819.2" spreadMethod="pad">
      <stop offset="0.0" stop-color="#797979"/>
      <stop offset="1.0" stop-color="#565656"/>
    </radialGradient>
    <radialGradient cx="0" cy="0" gradientTransform="matrix(0.0091, 0.0, 0.0, 0.0091, -13.75, -29.65)" gradientUnits="userSpaceOnUse" id="gradient35" r="819.2" spreadMethod="pad">
      <stop offset="0.0" stop-color="#060606"/>
      <stop offset="1.0" stop-color="#020202"/>
    </radialGradient>
    <radialGradient cx="0" cy="0" gradientTransform="matrix(0.087, 0.0, 0.0, 0.087, -317.35, -24.75)" gradientUnits="userSpaceOnUse" id="gradient36" r="819.2" spreadMethod="pad">
      <stop offset="0.0" stop-color="#000000"/>
      <stop offset="1.0" stop-color="#000000"/>
    </radialGradient>
    <radialGradient cx="0" cy="0" gradientTransform="matrix(0.0363, 0.0, 0.0, 0.0363, -335.25, -1.0)" gradientUnits="userSpaceOnUse" id="gradient37" r="819.2" spreadMethod="pad">
      <stop offset="0.0" stop-color="#000000"/>
      <stop offset="1.0" stop-color="#000000"/>
    </radialGradient>
    <radialGradient cx="0" cy="0" gradientTransform="matrix(0.0505, 0.0, 0.0, 0.0505, -351.3, -1.0)" gradientUnits="userSpaceOnUse" id="gradient38" r="819.2" spreadMethod="pad">
      <stop offset="0.0" stop-color="#000000"/>
      <stop offset="1.0" stop-color="#000000"/>
    </radialGradient>
    <radialGradient cx="0" cy="0" gradientTransform="matrix(0.0211, 0.0, 0.0, 0.0211, -3.3, -30.55)" gradientUnits="userSpaceOnUse" id="gradient39" r="819.2" spreadMethod="pad">
      <stop offset="0.0" stop-color="#030303"/>
      <stop offset="1.0" stop-color="#030303"/>
    </radialGradient>
    <radialGradient cx="0" cy="0" gradientTransform="matrix(0.0211, 0.0, 0.0, 0.0211, -22.2, -19.65)" gradientUnits="userSpaceOnUse" id="gradient40" r="819.2" spreadMethod="pad">
      <stop offset="0.0" stop-color="#030303"/>
      <stop offset="1.0" stop-color="#030303"/>
    </radialGradient>
    <radialGradient cx="0" cy="0" gradientTransform="matrix(0.0208, 0.0, 0.0, 0.0208, -22.7, -19.6)" gradientUnits="userSpaceOnUse" id="gradient41" r="819.2" spreadMethod="pad">
      <stop offset="0.0" stop-color="#040404"/>
      <stop offset="1.0" stop-color="#040404"/>
    </radialGradient>
    <radialGradient cx="0" cy="0" gradientTransform="matrix(0.013, 0.0, 0.0, 0.013, -1.0, -19.95)" gradientUnits="userSpaceOnUse" id="gradient42" r="819.2" spreadMethod="pad">
      <stop offset="0.0" stop-color="#151515"/>
      <stop offset="1.0" stop-color="#040404"/>
    </radialGradient>
    <radialGradient cx="0" cy="0" gradientTransform="matrix(0.0394, 0.0, 0.0, 0.0394, -260.75, -24.7)" gradientUnits="userSpaceOnUse" id="gradient43" r="819.2" spreadMethod="pad">
      <stop offset="0.0" stop-color="#000000"/>
      <stop offset="1.0" stop-color="#000000"/>
    </radialGradient>
    <radialGradient cx="0" cy="0" gradientTransform="matrix(0.0949, 0.0, 0.0, 0.0949, -325.4, -1.0)" gradientUnits="userSpaceOnUse" id="gradient44" r="819.2" spreadMethod="pad">
      <stop offset="0.0" stop-color="#0b0b0b"/>
      <stop offset="1.0" stop-color="#000000"/>
    </radialGradient>
    <radialGradient cx="0" cy="0" gradientTransform="matrix(0.0658, 0.0, 0.0, 0.0658, -260.75, -24.7)" gradientUnits="userSpaceOnUse" id="gradient45" r="819.2" spreadMethod="pad">
      <stop offset="0.0" stop-color="#000000"/>
      <stop offset="1.0" stop-color="#000000"/>
    </radialGradient>
    <radialGradient cx="0" cy="0" gradientTransform="matrix(0.0069, 0.0, 0.0, 0.0069, -19.45, -24.1)" gradientUnits="userSpaceOnUse" id="gradient46" r="819.2" spreadMethod="pad">
      <stop offset="0.0" stop-color="#313131"/>
      <stop offset="1.0" stop-color="#232323"/>
    </radialGradient>
    <radialGradient cx="0" cy="0" gradientTransform="matrix(0.0055, 0.0, 0.0, 0.0055, -23.05, -20.95)" gradientUnits="userSpaceOnUse" id="gradient47" r="819.2" spreadMethod="pad">
      <stop offset="0.0" stop-color="#262626"/>
      <stop offset="1.0" stop-color="#262626"/>
    </radialGradient>
    <radialGradient cx="0" cy="0" gradientTransform="matrix(0.027, 0.0, 0.0, 0.027, -374.7, -4.7)" gradientUnits="userSpaceOnUse" id="gradient48" r="819.2" spreadMethod="pad">
      <stop offset="0.0" stop-color="#000000"/>
      <stop offset="1.0" stop-color="#000000"/>
    </radialGradient>
    <radialGradient cx="0" cy="0" gradientTransform="matrix(0.0061, 0.0, 0.0, 0.0061, -374.7, -4.7)" gradientUnits="userSpaceOnUse" id="gradient49" r="819.2" spreadMethod="pad">
      <stop offset="0.0" stop-color="#000000"/>
      <stop offset="1.0" stop-color="#000000"/>
    </radialGradient>
    <radialGradient cx="0" cy="0" gradientTransform="matrix(0.0299, 0.0, 0.0, 0.0299, -216.9, -15.65)" gradientUnits="userSpaceOnUse" id="gradient50" r="819.2" spreadMethod="pad">
      <stop offset="0.0" stop-color="#000000"/>
      <stop offset="1.0" stop-color="#000000"/>
    </radialGradient>
    <radialGradient cx="0" cy="0" gradientTransform="matrix(0.0332, 0.0, 0.0, 0.0332, -216.9, -15.65)" gradientUnits="userSpaceOnUse" id="gradient51" r="819.2" spreadMethod="pad">
      <stop offset="0.0" stop-color="#000000"/>
      <stop offset="1.0" stop-color="#000000"/>
    </radialGradient>
  </defs>
</svg>
