<?xml version="1.0" encoding="UTF-8" standalone="no"?>
<svg xmlns:xlink="http://www.w3.org/1999/xlink" height="210.85px" width="378.1px" xmlns="http://www.w3.org/2000/svg">
  <g transform="matrix(1.0, 0.0, 0.0, 1.0, 379.0, 211.75)">
    <path d="M-281.15 -211.75 L-268.5 -202.65 -270.65 -192.65 -278.4 -193.0 -299.9 -188.25 -308.0 -184.9 -316.25 -179.4 -328.5 -178.65 -311.4 -199.15 -281.5 -211.75 -281.15 -211.75 M-255.4 -191.65 L-246.75 -198.15 -248.25 -189.5 -255.4 -191.65 M-198.25 -66.9 L-194.5 -65.9 -199.65 -47.65 -206.9 -35.75 -212.0 -24.5 -216.5 -22.5 -244.4 -28.75 -235.5 -32.25 -225.25 -37.75 -204.25 -57.75 -198.25 -66.9 M-332.75 -22.25 L-354.4 -39.5 -364.4 -53.75 -363.25 -54.15 -363.0 -54.65 -371.15 -68.25 -363.9 -59.5 -363.65 -59.4 -363.65 -59.75 -370.0 -75.4 -369.4 -88.25 -373.4 -102.4 -370.5 -119.25 -370.65 -120.15 -363.15 -136.5 -355.25 -157.9 -354.75 -157.9 -348.75 -141.9 -352.15 -134.9 -354.9 -126.4 -356.15 -123.65 -357.4 -113.15 -357.5 -107.65 -355.9 -95.25 -353.5 -86.15 -353.4 -85.9 -351.4 -78.15 -346.25 -64.9 -338.0 -53.75 -328.4 -44.75 -317.9 -36.0 -310.5 -32.65 -312.9 -29.9 -313.15 -29.75 -313.25 -29.65 -332.75 -22.25 M-339.75 -158.75 L-339.15 -166.65 -332.0 -174.65 -333.9 -166.25 -335.4 -165.15 -339.75 -158.75 M-191.65 -82.9 L-188.4 -79.65 -194.25 -75.4 -191.65 -82.9" fill="url(#gradient0)" fill-rule="evenodd" stroke="none"/>
    <path d="M-281.15 -211.75 L-259.9 -211.25 -241.4 -207.15 -222.4 -198.9 Q-184.9 -174.75 -175.0 -143.25 L-172.15 -135.65 -168.9 -115.9 -169.4 -95.4 -173.75 -76.25 -182.25 -57.75 -196.15 -39.0 -212.0 -24.5 -206.9 -35.75 -199.65 -47.65 -194.5 -65.9 -198.25 -66.9 Q-203.25 -67.9 -203.5 -68.65 L-206.65 -98.25 -229.0 -133.5 -242.9 -159.0 -244.15 -161.4 -250.65 -173.15 -249.15 -183.4 -248.25 -189.5 -246.75 -198.15 -255.4 -191.65 -260.15 -188.15 -266.9 -182.15 -274.0 -176.15 -272.9 -181.75 -270.65 -192.65 -268.5 -202.65 -281.15 -211.75 M-194.25 -75.4 L-188.4 -79.65 -191.65 -82.9 -197.0 -88.5 -197.65 -87.4 -203.15 -68.65 -194.25 -75.4" fill="url(#gradient1)" fill-rule="evenodd" stroke="none"/>
    <path d="M-270.65 -192.65 L-272.9 -181.75 -281.75 -181.0 -287.75 -176.9 -294.15 -180.15 -303.65 -180.25 -316.25 -179.4 -308.0 -184.9 -299.9 -188.25 -278.4 -193.0 -270.65 -192.65 M-266.9 -182.15 L-260.15 -188.15 -255.4 -191.65 -248.25 -189.5 -249.15 -183.4 -266.9 -182.15 M-242.9 -159.0 L-229.0 -133.5 -206.65 -98.25 -203.5 -68.65 Q-203.25 -67.9 -198.25 -66.9 L-204.25 -57.75 -225.25 -37.75 -235.5 -32.25 -244.4 -28.75 -257.4 -31.5 -257.15 -31.9 Q-257.0 -33.5 -258.4 -36.25 L-261.75 -39.0 -266.15 -42.25 -266.5 -42.15 -266.4 -41.75 -265.25 -39.9 -268.5 -41.25 -272.4 -43.65 -276.5 -43.5 -285.0 -44.25 -291.0 -43.25 -296.25 -43.0 -296.4 -42.5 -300.9 -38.75 -301.9 -37.5 -306.65 -37.25 -310.5 -32.65 -317.9 -36.0 -328.4 -44.75 -338.0 -53.75 -346.25 -64.9 -351.4 -78.15 -353.4 -85.9 -353.5 -86.15 -355.9 -95.25 -357.5 -107.65 -357.4 -113.15 -356.15 -123.65 -354.9 -126.4 -352.15 -134.9 -348.75 -141.9 -343.65 -129.0 -343.15 -128.65 -339.75 -158.75 -335.4 -165.15 -333.9 -166.25 -335.75 -156.9 -334.5 -154.5 -332.15 -153.4 -298.4 -155.25 -290.4 -161.0 -288.75 -161.9 -287.4 -161.15 -279.4 -156.5 -277.25 -156.4 -243.75 -158.75 -242.9 -159.0 M-300.25 -115.0 L-309.5 -109.5 -307.9 -109.4 -272.0 -111.75 -282.65 -116.25 -287.5 -116.4 -291.9 -115.15 Q-297.5 -116.5 -300.25 -115.0 M-309.5 -107.75 L-310.15 -107.15 Q-303.9 -101.5 -290.15 -100.65 -272.0 -105.75 -271.4 -109.9 L-309.5 -107.75 M-191.65 -82.9 L-194.25 -75.4 -203.15 -68.65 -197.65 -87.4 -197.0 -88.5 -191.65 -82.9" fill="url(#gradient2)" fill-rule="evenodd" stroke="none"/>
    <path d="M-272.9 -181.75 L-274.0 -176.15 -266.9 -182.15 -249.15 -183.4 -250.65 -173.15 -244.15 -161.4 -244.5 -161.15 -280.15 -158.75 -288.15 -163.4 -289.5 -164.15 -290.0 -164.25 -291.4 -163.25 -299.25 -157.65 -333.0 -155.65 -335.75 -156.9 -333.9 -166.25 -332.0 -174.65 -328.5 -178.65 -316.25 -179.4 -303.65 -180.25 -294.15 -180.15 -287.75 -176.9 -281.75 -181.0 -272.9 -181.75" fill="url(#gradient3)" fill-rule="evenodd" stroke="none"/>
    <path d="M-371.15 -68.25 L-371.5 -68.75 -375.4 -80.0 -378.4 -94.15 -379.0 -111.4 -377.0 -125.65 -374.25 -137.15 -368.25 -152.25 -359.4 -167.75 -346.5 -181.25 -336.4 -189.4 -320.0 -200.4 -301.25 -208.15 -281.5 -211.75 -311.4 -199.15 -328.5 -178.65 -332.0 -174.65 -339.15 -166.65 -339.75 -158.75 -343.15 -128.65 -343.65 -129.0 -348.75 -141.9 -354.75 -157.9 -355.25 -157.9 -363.15 -136.5 -370.65 -120.15 -370.5 -119.25 -373.4 -102.4 -369.4 -88.25 -370.0 -75.4 -363.65 -59.75 -363.65 -59.4 -363.9 -59.5 -371.15 -68.25" fill="url(#gradient4)" fill-rule="evenodd" stroke="none"/>
    <path d="M-364.4 -53.75 L-371.15 -68.25 -363.0 -54.65 -363.25 -54.15 -364.4 -53.75" fill="url(#gradient5)" fill-rule="evenodd" stroke="none"/>
    <path d="M-242.75 -0.9 L-336.75 -0.9 -315.0 -27.15 -313.4 -27.5 -313.0 -28.0 -312.15 -30.0 -313.0 -29.65 -312.9 -29.9 -310.5 -32.65 -306.65 -37.25 -301.9 -37.5 -301.15 -37.5 -271.0 -38.65 -269.4 -38.65 -262.75 -34.75 -258.25 -32.15 -258.0 -31.9 -257.65 -31.5 -257.65 -31.4 -258.4 -31.4 -256.75 -29.65 -242.75 -0.9" fill="url(#gradient6)" fill-rule="evenodd" stroke="none"/>
    <path d="M-301.9 -37.5 L-300.9 -38.75 -296.4 -42.5 -296.25 -43.0 -291.0 -43.25 -285.0 -44.25 -276.5 -43.5 -272.4 -43.65 -268.5 -41.25 -265.25 -39.9 -262.65 -35.65 -262.75 -34.75 -269.4 -38.65 -271.0 -38.65 -290.9 -39.15 -301.15 -37.5 -301.9 -37.5" fill="url(#gradient7)" fill-rule="evenodd" stroke="none"/>
    <path d="M-301.15 -37.5 L-290.9 -39.15 -271.0 -38.65 -301.15 -37.5" fill="url(#gradient8)" fill-rule="evenodd" stroke="none"/>
    <path d="M-261.75 -39.0 L-258.4 -36.25 Q-257.0 -33.5 -257.15 -31.9 L-257.4 -31.5 -257.65 -31.5 -258.0 -31.9 -258.15 -32.5 -258.25 -32.15 -262.75 -34.75 -262.65 -35.65 -261.75 -39.0" fill="url(#gradient9)" fill-rule="evenodd" stroke="none"/>
    <path d="M-265.25 -39.9 L-266.4 -41.75 -266.5 -42.15 -266.15 -42.25 -261.75 -39.0 -262.65 -35.65 -265.25 -39.9" fill="url(#gradient10)" fill-rule="evenodd" stroke="none"/>
    <path d="M-287.4 -161.15 L-288.75 -161.9 -289.5 -164.15 -288.15 -163.4 -287.4 -161.15" fill="url(#gradient11)" fill-rule="evenodd" stroke="none"/>
    <path d="M-279.4 -156.5 L-287.4 -161.15 -288.15 -163.4 -280.15 -158.75 -279.4 -156.5" fill="url(#gradient12)" fill-rule="evenodd" stroke="none"/>
    <path d="M-288.75 -161.9 L-290.4 -161.0 -291.4 -163.25 -290.0 -164.25 -289.5 -164.15 -288.75 -161.9" fill="url(#gradient13)" fill-rule="evenodd" stroke="none"/>
    <path d="M-298.4 -155.25 L-299.25 -157.65 -291.4 -163.25 -290.4 -161.0 -298.4 -155.25" fill="url(#gradient14)" fill-rule="evenodd" stroke="none"/>
    <path d="M-332.15 -153.4 L-333.0 -155.65 -299.25 -157.65 -298.4 -155.25 -332.15 -153.4" fill="url(#gradient15)" fill-rule="evenodd" stroke="none"/>
    <path d="M-333.0 -155.65 L-332.15 -153.4 -334.5 -154.5 -335.75 -156.9 -333.0 -155.65" fill="url(#gradient16)" fill-rule="evenodd" stroke="none"/>
    <path d="M-244.15 -161.4 L-242.9 -159.0 -243.75 -158.75 -244.5 -161.15 -244.15 -161.4" fill="url(#gradient17)" fill-rule="evenodd" stroke="none"/>
    <path d="M-244.5 -161.15 L-243.75 -158.75 -277.25 -156.4 -279.4 -156.5 -280.15 -158.75 -244.5 -161.15" fill="url(#gradient18)" fill-rule="evenodd" stroke="none"/>
    <path d="M-307.65 -110.25 L-305.5 -110.0 -274.25 -112.15 -282.0 -115.5 -285.0 -116.15 Q-288.5 -116.25 -292.15 -114.5 L-297.15 -115.25 Q-298.9 -116.15 -307.65 -110.25 M-300.25 -115.0 Q-297.5 -116.5 -291.9 -115.15 L-287.5 -116.4 -282.65 -116.25 -272.0 -111.75 -307.9 -109.4 -309.5 -109.5 -300.25 -115.0" fill="url(#gradient19)" fill-rule="evenodd" stroke="none"/>
    <path d="M-307.65 -110.25 Q-298.9 -116.15 -297.15 -115.25 L-292.15 -114.5 Q-288.5 -116.25 -285.0 -116.15 L-282.0 -115.5 -274.25 -112.15 -305.5 -110.0 -307.65 -110.25" fill="url(#gradient20)" fill-rule="evenodd" stroke="none"/>
    <path d="M-309.5 -107.75 L-271.4 -109.9 Q-272.0 -105.75 -290.15 -100.65 -303.9 -101.5 -310.15 -107.15 L-309.5 -107.75 M-272.75 -109.4 L-309.65 -107.25 Q-302.9 -101.9 -290.75 -101.15 -276.5 -104.5 -272.75 -109.4" fill="url(#gradient21)" fill-rule="evenodd" stroke="none"/>
    <path d="M-272.75 -109.4 Q-276.5 -104.5 -290.75 -101.15 -302.9 -101.9 -309.65 -107.25 L-272.75 -109.4" fill="url(#gradient22)" fill-rule="evenodd" stroke="none"/>
    <path d="M-216.5 -22.5 L-214.5 -21.9 -209.25 -7.0 -208.75 -0.9 -227.15 -0.9 -255.4 -29.4 -255.0 -30.25 -253.5 -30.5 -257.65 -31.4 -257.65 -31.5 -257.4 -31.5 -244.4 -28.75 -216.5 -22.5" fill="url(#gradient23)" fill-rule="evenodd" stroke="none"/>
    <path d="M-19.65 -54.15 L-19.4 -53.75 -19.0 -54.4 -19.5 -52.9 -19.15 -53.0 -18.75 -54.15 -17.65 -54.4 -18.0 -54.65 -14.15 -55.75 -15.25 -55.0 -13.5 -55.25 -13.75 -55.4 -13.4 -55.75 -13.9 -55.9 -13.65 -56.0 -11.9 -55.65 -12.4 -55.5 -11.9 -54.9 -11.9 -54.4 -12.0 -54.0 -12.0 -53.65 -12.0 -50.5 -11.4 -45.9 -19.25 -52.25 -19.9 -52.9 -19.4 -53.65 -19.65 -53.5 -19.65 -54.15 M-9.25 -66.4 Q-8.4 -68.75 -0.9 -66.15 L-0.9 -52.75 -1.4 -54.0 -2.25 -53.9 -0.9 -49.0 -0.9 -44.65 -1.9 -44.65 -3.65 -54.4 -4.65 -54.4 -2.65 -44.4 -6.75 -42.65 -7.25 -42.5 -7.15 -43.65 -9.5 -57.5 -9.4 -58.5 -9.25 -58.75 Q-6.9 -61.65 -9.5 -62.25 L-9.15 -63.25 -8.0 -63.65 -8.0 -64.0 -9.25 -66.4 M-20.15 -53.25 L-19.9 -53.75 -19.9 -52.9 -20.0 -52.9 -20.15 -53.25 M-12.0 -53.65 L-12.25 -53.9 -12.4 -53.25 -12.0 -53.65 M-17.75 -52.75 L-17.15 -52.75 -17.0 -53.0 -17.65 -53.0 -17.75 -52.75 M-16.75 -53.0 L-16.9 -52.75 -16.15 -52.75 -16.75 -53.0 M-16.0 -54.65 L-15.9 -54.9 -16.5 -54.75 -16.0 -54.25 -17.15 -54.15 -16.25 -53.9 -16.65 -53.4 -16.0 -53.65 -15.75 -53.15 -16.15 -52.15 -17.75 -51.4 -16.75 -50.75 -17.25 -51.5 -16.4 -52.0 -16.65 -51.5 -15.65 -51.0 -16.25 -51.5 -16.25 -52.0 -15.5 -52.5 -15.25 -53.0 -15.65 -52.9 -15.5 -53.25 -14.4 -53.4 -14.9 -53.65 -14.65 -53.9 Q-14.8 -53.8 -15.0 -53.75 L-14.15 -54.25 -14.75 -54.25 -15.15 -53.75 -15.0 -54.25 -16.0 -54.65 M-18.0 -53.75 L-18.15 -54.0 -18.25 -53.65 -17.25 -53.65 -16.65 -53.5 -17.4 -54.0 -18.0 -53.75 M-15.9 -54.15 L-15.75 -53.9 -15.5 -54.15 -15.25 -53.5 -15.75 -53.5 -15.9 -54.15 M-11.9 -56.75 L-12.0 -56.5 -12.15 -56.75 -11.9 -56.75 M-14.15 -53.75 L-14.0 -53.15 -13.65 -53.15 -13.75 -53.5 -13.15 -53.25 -12.75 -53.75 -13.4 -54.0 -13.25 -53.75 -14.15 -53.75 M-14.75 -52.9 L-14.25 -52.9 -14.4 -53.15 -14.75 -53.15 -14.75 -52.9 M-13.25 -55.5 L-12.75 -55.5 -13.15 -55.75 -13.25 -55.5 M-13.0 -53.25 L-12.5 -53.25 -12.9 -53.5 -13.0 -53.25 M-12.4 -53.65 L-12.15 -54.4 -12.9 -54.25 -12.4 -53.65 M-11.9 -48.0 L-12.4 -48.15 -11.9 -47.65 -11.9 -48.0 M-13.0 -49.5 L-13.65 -49.5 -13.75 -49.25 -13.0 -49.5 M-14.75 -49.75 L-13.25 -49.75 -14.25 -50.0 -14.75 -49.75 M-16.0 -51.75 L-15.4 -51.5 -15.65 -51.9 -16.0 -51.75 M-15.9 -52.25 L-15.9 -52.65 -15.65 -52.5 -15.9 -52.25 M-16.65 -50.75 L-16.15 -50.4 -14.75 -50.75 -16.65 -50.75" fill="url(#gradient24)" fill-rule="evenodd" stroke="none"/>
    <path d="M-11.5 -58.5 L-12.0 -60.0 -9.25 -66.4 -8.0 -64.0 -8.0 -63.65 -9.15 -63.25 -9.5 -62.25 -10.15 -61.65 -10.75 -59.9 -10.75 -59.65 -10.9 -59.5 -11.5 -58.5" fill="url(#gradient25)" fill-rule="evenodd" stroke="none"/>
    <path d="M-10.9 -59.5 L-10.75 -59.65 -10.75 -59.9 -10.15 -61.65 -9.5 -62.25 Q-6.9 -61.65 -9.25 -58.75 L-9.4 -58.5 -9.5 -57.5 -7.15 -43.65 -7.25 -42.5 -8.4 -42.4 -10.25 -53.25 -11.0 -55.15 -11.0 -56.65 -11.4 -57.15 -10.9 -59.5" fill="url(#gradient26)" fill-rule="evenodd" stroke="none"/>
    <path d="M-12.15 -56.75 L-11.5 -58.4 -11.5 -58.5 -10.9 -59.5 -11.4 -57.15 -11.9 -56.75 -12.15 -56.75" fill="url(#gradient27)" fill-rule="evenodd" stroke="none"/>
    <path d="M-0.9 -52.75 L-0.9 -49.0 -2.25 -53.9 -1.4 -54.0 -0.9 -52.75" fill="url(#gradient28)" fill-rule="evenodd" stroke="none"/>
    <path d="M-19.65 -54.15 L-19.25 -54.65 -18.0 -54.65 -17.65 -54.4 -18.75 -54.15 -19.15 -53.0 -19.5 -52.9 -19.0 -54.4 -19.4 -53.75 -19.65 -54.15 -19.65 -53.5 -19.4 -53.65 -19.9 -52.9 -19.9 -53.75 -19.9 -53.9 -19.65 -54.15 M-14.15 -55.75 L-13.9 -55.9 -13.4 -55.75 -13.75 -55.4 -13.5 -55.25 -15.25 -55.0 -14.15 -55.75 M-13.65 -56.0 L-12.15 -56.75 -12.0 -56.5 -11.9 -56.75 -11.75 -56.25 -11.9 -55.65 -13.65 -56.0 M-12.0 -53.65 L-12.4 -53.25 -12.25 -53.9 -12.0 -53.65 M-11.9 -54.9 L-12.4 -55.5 -11.9 -55.65 -11.9 -54.9 M-18.0 -53.75 L-17.4 -54.0 -16.65 -53.5 -17.25 -53.65 -18.25 -53.65 -18.15 -54.0 -18.0 -53.75 M-16.0 -54.65 L-15.0 -54.25 -15.15 -53.75 -14.75 -54.25 -14.15 -54.25 -15.0 -53.75 Q-14.8 -53.8 -14.65 -53.9 L-14.9 -53.65 -14.4 -53.4 -15.5 -53.25 -15.65 -52.9 -15.25 -53.0 -15.5 -52.5 -16.25 -52.0 -16.25 -51.5 -15.65 -51.0 -16.65 -51.5 -16.4 -52.0 -17.25 -51.5 -16.75 -50.75 -17.75 -51.4 -16.15 -52.15 -15.75 -53.15 -16.0 -53.65 -16.65 -53.4 -16.25 -53.9 -17.15 -54.15 -16.0 -54.25 -16.5 -54.75 -15.9 -54.9 -16.0 -54.65 M-16.75 -53.0 L-16.15 -52.75 -16.9 -52.75 -16.75 -53.0 M-17.75 -52.75 L-17.65 -53.0 -17.0 -53.0 -17.15 -52.75 -17.75 -52.75 M-15.9 -54.15 L-15.75 -53.5 -15.25 -53.5 -15.5 -54.15 -15.75 -53.9 -15.9 -54.15 M-13.25 -55.5 L-13.15 -55.75 -12.75 -55.5 -13.25 -55.5 M-14.75 -52.9 L-14.75 -53.15 -14.4 -53.15 -14.25 -52.9 -14.75 -52.9 M-14.15 -53.75 L-13.25 -53.75 -13.4 -54.0 -12.75 -53.75 -13.15 -53.25 -13.75 -53.5 -13.65 -53.15 -14.0 -53.15 -14.15 -53.75 M-13.0 -53.25 L-12.9 -53.5 -12.5 -53.25 -13.0 -53.25 M-12.4 -53.65 L-12.9 -54.25 -12.15 -54.4 -12.4 -53.65 M-14.75 -49.75 L-14.25 -50.0 -13.25 -49.75 -14.75 -49.75 M-13.0 -49.5 L-13.75 -49.25 -13.65 -49.5 -13.0 -49.5 M-11.9 -48.0 L-11.9 -47.65 -12.4 -48.15 -11.9 -48.0 M-16.0 -51.75 L-15.65 -51.9 -15.4 -51.5 -16.0 -51.75 M-15.9 -52.25 L-15.65 -52.5 -15.9 -52.65 -15.9 -52.25 M-16.65 -50.75 L-14.75 -50.75 -16.15 -50.4 -16.65 -50.75" fill="url(#gradient29)" fill-rule="evenodd" stroke="none"/>
    <path d="M-14.4 -39.9 L-22.15 -46.15 -22.5 -47.0 -20.15 -53.25 -20.0 -52.9 -19.9 -52.9 -19.25 -52.25 -11.4 -45.9 -11.25 -45.4 -13.65 -40.4 -14.4 -39.9" fill="url(#gradient30)" fill-rule="evenodd" stroke="none"/>
    <path d="M-0.9 -44.65 L-0.9 -39.75 -4.4 -40.4 -8.4 -40.15 -9.5 -38.0 -17.0 -35.4 -19.4 -34.0 -19.9 -33.15 -19.25 -32.25 -19.5 -32.0 -19.9 -32.0 -20.25 -33.0 -20.4 -33.4 -19.25 -35.25 -14.4 -39.9 -13.65 -40.4 -11.0 -42.4 -9.75 -41.9 -8.25 -42.15 -7.15 -42.5 -6.75 -42.65 -0.9 -44.65 M-1.15 -35.9 L-0.9 -35.75 -0.9 -35.4 -5.15 -36.4 -8.15 -36.25 -9.15 -36.0 -7.75 -36.65 -7.5 -36.65 -7.0 -36.75 -5.65 -36.75 -1.15 -35.9" fill="url(#gradient31)" fill-rule="evenodd" stroke="none"/>
    <path d="M-11.0 -42.4 L-13.65 -40.4 -11.25 -45.4 -10.9 -42.65 -11.0 -42.4" fill="url(#gradient32)" fill-rule="evenodd" stroke="none"/>
    <path d="M-8.25 -42.15 L-9.75 -41.9 -11.0 -42.4 -10.9 -42.65 -10.0 -42.15 -8.4 -42.4 -8.25 -42.15" fill="url(#gradient33)" fill-rule="evenodd" stroke="none"/>
    <path d="M-11.4 -45.9 L-12.0 -50.5 -12.0 -53.65 -12.0 -54.0 -11.9 -54.4 -11.9 -54.9 -11.9 -55.65 -11.75 -56.25 -11.9 -56.75 -11.4 -57.15 -11.0 -56.65 -11.0 -55.15 -10.25 -53.25 -8.4 -42.4 -10.0 -42.15 -10.9 -42.65 -11.25 -45.4 -11.4 -45.9" fill="url(#gradient34)" fill-rule="evenodd" stroke="none"/>
    <path d="M-8.4 -42.4 L-7.25 -42.5 -7.15 -42.5 -8.25 -42.15 -8.4 -42.4" fill="url(#gradient35)" fill-rule="evenodd" stroke="none"/>
    <path d="M-2.65 -44.4 L-4.65 -54.4 -3.65 -54.4 -1.9 -44.65 -2.15 -44.5 -2.65 -44.4" fill="url(#gradient36)" fill-rule="evenodd" stroke="none"/>
    <path d="M-1.9 -44.65 L-0.9 -44.65 -6.75 -42.65 -7.15 -42.5 -7.25 -42.5 -6.75 -42.65 -2.65 -44.4 -2.15 -44.5 -1.9 -44.65" fill="url(#gradient37)" fill-rule="evenodd" stroke="none"/>
    <path d="M-0.9 -39.75 L-1.15 -35.9 -5.65 -36.75 -7.0 -36.75 -7.5 -36.65 -7.75 -36.65 -9.15 -36.0 -9.25 -36.0 -10.25 -35.65 -10.5 -35.5 -10.9 -35.4 -11.25 -35.25 -11.65 -35.15 -11.9 -35.0 -12.25 -34.9 -12.4 -34.75 -15.75 -33.5 -19.25 -32.25 -19.9 -33.15 -19.4 -34.0 -17.0 -35.4 -9.5 -38.0 -8.4 -40.15 -4.4 -40.4 -0.9 -39.75" fill="url(#gradient38)" fill-rule="evenodd" stroke="none"/>
    <path d="M-18.25 -28.0 L-21.9 -26.5 -19.5 -32.0 -19.25 -32.25 -15.75 -33.5 -18.25 -28.0" fill="url(#gradient39)" fill-rule="evenodd" stroke="none"/>
    <path d="M-10.9 -30.65 L-18.25 -28.0 -15.75 -33.5 -12.4 -34.75 -12.25 -34.9 -11.9 -35.0 -11.65 -35.15 -11.25 -35.25 -10.9 -35.4 -10.5 -35.5 -10.25 -35.65 -9.25 -36.0 -9.15 -36.0 -8.15 -36.25 -8.5 -34.9 -10.9 -30.65 M-21.9 -26.5 L-22.4 -26.75 -19.9 -32.0 -19.5 -32.0 -21.9 -26.5" fill="url(#gradient40)" fill-rule="evenodd" stroke="none"/>
    <path d="M-0.9 -35.4 L-0.9 -27.75 -2.9 -29.15 -7.15 -30.65 -10.9 -30.65 -8.5 -34.9 -8.15 -36.25 -5.15 -36.4 -0.9 -35.4" fill="url(#gradient41)" fill-rule="evenodd" stroke="none"/>
    <path d="M-22.4 -26.75 L-22.75 -28.0 -20.25 -33.0 -19.9 -32.0 -22.4 -26.75" fill="url(#gradient42)" fill-rule="evenodd" stroke="none"/>
    <path d="M-258.25 -32.15 L-258.15 -32.5 -258.0 -31.9 -258.25 -32.15" fill="url(#gradient43)" fill-rule="evenodd" stroke="none"/>
    <path d="M-313.25 -29.5 L-313.0 -29.65 -312.15 -30.0 -313.0 -28.0 -313.4 -27.5 -315.0 -27.15 -316.5 -27.4 -316.5 -28.15 -313.25 -29.5 M-257.65 -31.4 L-253.5 -30.5 -255.0 -30.25 -255.4 -29.4 -256.75 -29.65 -258.4 -31.4 -257.65 -31.4" fill="url(#gradient44)" fill-rule="evenodd" stroke="none"/>
    <path d="M-227.15 -0.9 L-242.75 -0.9 -256.75 -29.65 -255.4 -29.4 -227.15 -0.9" fill="url(#gradient45)" fill-rule="evenodd" stroke="none"/>
    <path d="M-336.75 -0.9 L-353.9 -0.9 -316.5 -27.4 -315.0 -27.15 -336.75 -0.9 M-313.0 -29.65 L-313.25 -29.5 -313.25 -29.65 -313.15 -29.75 -312.9 -29.9 -313.0 -29.65" fill="url(#gradient46)" fill-rule="evenodd" stroke="none"/>
    <path d="M-353.9 -0.9 L-355.25 -0.9 -348.4 -16.15 -332.75 -22.25 -313.25 -29.65 -313.25 -29.5 -316.5 -28.15 -316.5 -27.4 -353.9 -0.9" fill="url(#gradient47)" fill-rule="evenodd" stroke="none"/>
    <path d="M-355.25 -0.9 L-371.0 -0.9 -368.5 -8.0 -368.25 -8.4 -348.4 -16.15 -355.25 -0.9" fill="url(#gradient48)" fill-rule="evenodd" stroke="none"/>
    <path d="M-214.5 -21.9 L-214.25 -21.9 -214.0 -21.65 -211.65 -20.15 -211.5 -20.15 -206.6 -17.0 -192.0 -7.5 -209.25 -7.0 -214.5 -21.9" fill="url(#gradient49)" fill-rule="evenodd" stroke="none"/>
    <path d="M-191.25 -7.4 L-178.5 -2.25 -178.4 -2.25 -175.4 -0.9 -208.75 -0.9 -209.25 -7.0 -192.0 -7.5 -191.25 -7.4" fill="url(#gradient50)" fill-rule="evenodd" stroke="none"/>
    <path d="M-206.6 -17.0 L-191.25 -7.4 -192.0 -7.5 -206.6 -17.0" fill="url(#gradient51)" fill-rule="evenodd" stroke="none"/>
    <path d="M-178.4 -2.25 L-175.0 -1.0 -175.4 -0.9 -178.4 -2.25" fill="url(#gradient52)" fill-rule="evenodd" stroke="none"/>
    <path d="M-371.0 -0.9 L-375.4 -0.9 -368.5 -8.0 -371.0 -0.9" fill="url(#gradient53)" fill-rule="evenodd" stroke="none"/>
    <path d="M-4.65 -0.9 L-18.25 -1.0 -5.25 -7.9 -1.25 -10.4 -0.9 -10.4 -0.9 -3.0 -4.65 -0.9" fill="url(#gradient54)" fill-rule="evenodd" stroke="none"/>
    <path d="M-4.65 -0.9 L-0.9 -3.0 -1.0 -0.9 -4.65 -0.9" fill="url(#gradient55)" fill-rule="evenodd" stroke="none"/>
    <path d="M-330.0 -41.0 L-324.65 -41.5 -324.25 -41.65 -321.75 -41.75 -322.0 -41.4 -323.0 -40.75 -323.0 -40.65 -325.75 -38.15 -330.0 -41.0 M-257.9 -42.65 L-258.15 -43.15 -246.4 -43.5 -246.25 -43.15 -246.75 -39.4 -246.65 -39.25 -247.25 -34.25 -247.4 -33.65 -247.65 -30.75 -248.0 -30.15 -247.9 -29.75 -248.0 -29.5 -248.5 -29.65 -252.75 -30.5 -252.15 -37.0 -252.65 -37.65 -257.9 -42.65" fill="#a90000" fill-rule="evenodd" stroke="none"/>
    <path d="M-321.75 -41.75 L-321.4 -41.65 -316.75 -38.25 -316.75 -38.15 -316.4 -37.9 -316.0 -37.75 -312.15 -35.0 -310.25 -33.15 -310.15 -33.0 -312.9 -29.9 -313.15 -29.75 -313.25 -29.65 -314.4 -29.4 -315.0 -29.75 -320.5 -34.65 -320.75 -35.15 -325.75 -38.15 -327.15 -36.75 -327.4 -36.65 -329.75 -34.4 -330.25 -32.65 -331.4 -29.75 -331.25 -29.25 -331.75 -28.15 -333.5 -22.9 -333.65 -23.15 -334.25 -23.5 -334.25 -23.65 -340.5 -28.25 -340.25 -28.65 -340.4 -28.9 -339.65 -30.4 -338.4 -34.15 -335.75 -36.4 -334.4 -37.4 -334.25 -37.65 -331.25 -40.0 -330.5 -40.9 -330.0 -41.0 -325.75 -38.15 -323.0 -40.65 -323.0 -40.75 -322.0 -41.4 -321.75 -41.75 M-333.9 -21.75 L-336.4 -13.4 -337.25 -11.25 -346.25 -0.9 -355.75 -0.9 -355.15 -1.15 -354.4 -2.65 -346.75 -10.65 -344.25 -17.75 -344.15 -17.75 -344.15 -17.9 -333.9 -21.75 M-246.25 -43.15 L-246.15 -43.15 -245.25 -41.9 -244.5 -40.25 -244.4 -40.15 -244.0 -39.65 -243.75 -38.75 -243.15 -37.4 -243.5 -34.25 -243.4 -33.9 -243.65 -28.5 -244.0 -24.75 -243.9 -24.5 -244.4 -18.4 -244.25 -17.9 -244.5 -13.9 -246.15 -8.15 -246.0 -7.4 -246.4 -6.9 -246.4 -6.4 -246.75 -5.4 -246.75 -5.0 -247.75 -1.0 -247.75 -0.9 -258.4 -0.9 -254.25 -13.9 -254.15 -15.9 -254.25 -16.4 -253.4 -21.9 -253.65 -23.0 -253.5 -23.4 -253.0 -26.9 -253.15 -27.15 -252.9 -28.25 -253.0 -28.5 -252.75 -30.5 -255.9 -31.25 -255.4 -35.5 -255.65 -36.65 -257.65 -41.65 -257.9 -42.65 -252.65 -37.65 -252.15 -37.0 -252.75 -30.5 -248.5 -29.65 -248.0 -29.5 -247.9 -29.75 -248.0 -30.15 -247.65 -30.75 -247.4 -33.65 -247.25 -34.25 -246.65 -39.25 -246.75 -39.4 -246.25 -43.15" fill="#9b0000" fill-opacity="0.9098039" fill-rule="evenodd" stroke="none"/>
    <path d="M-333.5 -22.9 L-333.4 -22.65 -333.65 -21.9 -333.9 -21.75 -344.15 -17.9 -340.5 -28.25 -334.25 -23.65 -334.25 -23.5 -333.65 -23.15 -333.5 -22.9" fill="#ab0000" fill-opacity="0.9098039" fill-rule="evenodd" stroke="none"/>
  </g>
  <defs>
    <radialGradient cx="0" cy="0" gradientTransform="matrix(0.213, 0.0, 0.0, 0.213, -218.85, -64.3)" gradientUnits="userSpaceOnUse" id="gradient0" r="819.2" spreadMethod="pad">
      <stop offset="0.0" stop-color="#5b5b5b"/>
      <stop offset="1.0" stop-color="#141414"/>
    </radialGradient>
    <radialGradient cx="0" cy="0" gradientTransform="matrix(0.2327, 0.0, 0.0, 0.2327, -193.55, -42.55)" gradientUnits="userSpaceOnUse" id="gradient1" r="819.2" spreadMethod="pad">
      <stop offset="0.0" stop-color="#414141"/>
      <stop offset="1.0" stop-color="#151515"/>
    </radialGradient>
    <radialGradient cx="0" cy="0" gradientTransform="matrix(0.2037, 0.0, 0.0, 0.2037, -355.6, -94.45)" gradientUnits="userSpaceOnUse" id="gradient2" r="819.2" spreadMethod="pad">
      <stop offset="0.0" stop-color="#7e7e7e"/>
      <stop offset="1.0" stop-color="#000000"/>
    </radialGradient>
    <radialGradient cx="0" cy="0" gradientTransform="matrix(0.1175, 0.0, 0.0, 0.1175, -335.75, -157.1)" gradientUnits="userSpaceOnUse" id="gradient3" r="819.2" spreadMethod="pad">
      <stop offset="0.0" stop-color="#767676"/>
      <stop offset="1.0" stop-color="#767676"/>
    </radialGradient>
    <radialGradient cx="0" cy="0" gradientTransform="matrix(0.1174, 0.0, 0.0, 0.1174, -349.3, -143.95)" gradientUnits="userSpaceOnUse" id="gradient4" r="819.2" spreadMethod="pad">
      <stop offset="0.0" stop-color="#494949"/>
      <stop offset="1.0" stop-color="#1f1f1f"/>
    </radialGradient>
    <radialGradient cx="0" cy="0" gradientTransform="matrix(0.021, 0.0, 0.0, 0.021, -371.7, -69.35)" gradientUnits="userSpaceOnUse" id="gradient5" r="819.2" spreadMethod="pad">
      <stop offset="0.0" stop-color="#262626"/>
      <stop offset="1.0" stop-color="#1c1c1c"/>
    </radialGradient>
    <radialGradient cx="0" cy="0" gradientTransform="matrix(0.075, 0.0, 0.0, 0.075, -291.95, -37.9)" gradientUnits="userSpaceOnUse" id="gradient6" r="819.2" spreadMethod="pad">
      <stop offset="0.0" stop-color="#000000"/>
      <stop offset="1.0" stop-color="#000000"/>
    </radialGradient>
    <radialGradient cx="0" cy="0" gradientTransform="matrix(0.049, 0.0, 0.0, 0.049, -301.6, -39.3)" gradientUnits="userSpaceOnUse" id="gradient7" r="819.2" spreadMethod="pad">
      <stop offset="0.0" stop-color="#1a1a1a"/>
      <stop offset="1.0" stop-color="#000000"/>
    </radialGradient>
    <radialGradient cx="0" cy="0" gradientTransform="matrix(0.0256, 0.0, 0.0, 0.0256, -290.35, -39.25)" gradientUnits="userSpaceOnUse" id="gradient8" r="819.2" spreadMethod="pad">
      <stop offset="0.0" stop-color="#000000"/>
      <stop offset="1.0" stop-color="#000000"/>
    </radialGradient>
    <radialGradient cx="0" cy="0" gradientTransform="matrix(0.0412, 0.0, 0.0, 0.0412, -256.95, -33.9)" gradientUnits="userSpaceOnUse" id="gradient9" r="819.2" spreadMethod="pad">
      <stop offset="0.0" stop-color="#101010"/>
      <stop offset="1.0" stop-color="#000000"/>
    </radialGradient>
    <radialGradient cx="0" cy="0" gradientTransform="matrix(0.0237, 0.0, 0.0, 0.0237, -272.3, -52.3)" gradientUnits="userSpaceOnUse" id="gradient10" r="819.2" spreadMethod="pad">
      <stop offset="0.0" stop-color="#797979"/>
      <stop offset="1.0" stop-color="#000000"/>
    </radialGradient>
    <radialGradient cx="0" cy="0" gradientTransform="matrix(0.0031, 0.0, 0.0, 0.0031, -288.15, -163.6)" gradientUnits="userSpaceOnUse" id="gradient11" r="819.2" spreadMethod="pad">
      <stop offset="0.0" stop-color="#8c8c8c"/>
      <stop offset="1.0" stop-color="#8c8c8c"/>
    </radialGradient>
    <radialGradient cx="0" cy="0" gradientTransform="matrix(0.0115, 0.0, 0.0, 0.0115, -280.05, -158.8)" gradientUnits="userSpaceOnUse" id="gradient12" r="819.2" spreadMethod="pad">
      <stop offset="0.0" stop-color="#8b8b8b"/>
      <stop offset="1.0" stop-color="#8b8b8b"/>
    </radialGradient>
    <radialGradient cx="0" cy="0" gradientTransform="matrix(0.0035, 0.0, 0.0, 0.0035, -291.3, -163.35)" gradientUnits="userSpaceOnUse" id="gradient13" r="819.2" spreadMethod="pad">
      <stop offset="0.0" stop-color="#e2e2e2"/>
      <stop offset="1.0" stop-color="#e0e0e0"/>
    </radialGradient>
    <radialGradient cx="0" cy="0" gradientTransform="matrix(0.0119, 0.0, 0.0, 0.0119, -299.25, -157.7)" gradientUnits="userSpaceOnUse" id="gradient14" r="819.2" spreadMethod="pad">
      <stop offset="0.0" stop-color="#e1e1e1"/>
      <stop offset="1.0" stop-color="#dfdfdf"/>
    </radialGradient>
    <radialGradient cx="0" cy="0" gradientTransform="matrix(0.0412, 0.0, 0.0, 0.0412, -299.25, -157.7)" gradientUnits="userSpaceOnUse" id="gradient15" r="819.2" spreadMethod="pad">
      <stop offset="0.0" stop-color="#767676"/>
      <stop offset="1.0" stop-color="#767676"/>
    </radialGradient>
    <radialGradient cx="0" cy="0" gradientTransform="matrix(0.0038, 0.0, 0.0, 0.0038, -332.95, -155.65)" gradientUnits="userSpaceOnUse" id="gradient16" r="819.2" spreadMethod="pad">
      <stop offset="0.0" stop-color="#838383"/>
      <stop offset="1.0" stop-color="#838383"/>
    </radialGradient>
    <radialGradient cx="0" cy="0" gradientTransform="matrix(0.0045, 0.0, 0.0, 0.0045, -244.45, -161.25)" gradientUnits="userSpaceOnUse" id="gradient17" r="819.2" spreadMethod="pad">
      <stop offset="0.0" stop-color="#bbbbbb"/>
      <stop offset="1.0" stop-color="#bababa"/>
    </radialGradient>
    <radialGradient cx="0" cy="0" gradientTransform="matrix(0.0436, 0.0, 0.0, 0.0436, -244.45, -161.25)" gradientUnits="userSpaceOnUse" id="gradient18" r="819.2" spreadMethod="pad">
      <stop offset="0.0" stop-color="#767676"/>
      <stop offset="1.0" stop-color="#767676"/>
    </radialGradient>
    <radialGradient cx="0" cy="0" gradientTransform="matrix(0.0408, 0.0, 0.0, 0.0408, -276.45, -113.05)" gradientUnits="userSpaceOnUse" id="gradient19" r="819.2" spreadMethod="pad">
      <stop offset="0.0" stop-color="#ff5151"/>
      <stop offset="1.0" stop-color="#330000"/>
    </radialGradient>
    <radialGradient cx="0" cy="0" gradientTransform="matrix(0.0392, 0.0, 0.0, 0.0392, -275.9, -112.8)" gradientUnits="userSpaceOnUse" id="gradient20" r="819.2" spreadMethod="pad">
      <stop offset="0.0" stop-color="#ff5151"/>
      <stop offset="1.0" stop-color="#ff4c4c"/>
    </radialGradient>
    <radialGradient cx="0" cy="0" gradientTransform="matrix(0.0424, 0.0, 0.0, 0.0424, -275.55, -106.45)" gradientUnits="userSpaceOnUse" id="gradient21" r="819.2" spreadMethod="pad">
      <stop offset="0.0" stop-color="#f89797"/>
      <stop offset="1.0" stop-color="#4f1818"/>
    </radialGradient>
    <radialGradient cx="0" cy="0" gradientTransform="matrix(0.0314, 0.0, 0.0, 0.0314, -284.25, -102.95)" gradientUnits="userSpaceOnUse" id="gradient22" r="819.2" spreadMethod="pad">
      <stop offset="0.0" stop-color="#ff3030"/>
      <stop offset="1.0" stop-color="#ff2d2d"/>
    </radialGradient>
    <radialGradient cx="0" cy="0" gradientTransform="matrix(0.0705, 0.0, 0.0, 0.0705, -208.8, -1.0)" gradientUnits="userSpaceOnUse" id="gradient23" r="819.2" spreadMethod="pad">
      <stop offset="0.0" stop-color="#111111"/>
      <stop offset="1.0" stop-color="#000000"/>
    </radialGradient>
    <radialGradient cx="0" cy="0" gradientTransform="matrix(0.0194, 0.0, 0.0, 0.0194, -11.25, -57.05)" gradientUnits="userSpaceOnUse" id="gradient24" r="819.2" spreadMethod="pad">
      <stop offset="0.0" stop-color="#040404"/>
      <stop offset="1.0" stop-color="#040404"/>
    </radialGradient>
    <radialGradient cx="0" cy="0" gradientTransform="matrix(0.009, 0.0, 0.0, 0.009, -12.05, -59.95)" gradientUnits="userSpaceOnUse" id="gradient25" r="819.2" spreadMethod="pad">
      <stop offset="0.0" stop-color="#262626"/>
      <stop offset="1.0" stop-color="#262626"/>
    </radialGradient>
    <radialGradient cx="0" cy="0" gradientTransform="matrix(0.0237, 0.0, 0.0, 0.0237, -9.9, -61.85)" gradientUnits="userSpaceOnUse" id="gradient26" r="819.2" spreadMethod="pad">
      <stop offset="0.0" stop-color="#171717"/>
      <stop offset="1.0" stop-color="#171717"/>
    </radialGradient>
    <radialGradient cx="0" cy="0" gradientTransform="matrix(0.0138, 0.0, 0.0, 0.0138, -10.2, -61.25)" gradientUnits="userSpaceOnUse" id="gradient27" r="819.2" spreadMethod="pad">
      <stop offset="0.0" stop-color="#828282"/>
      <stop offset="1.0" stop-color="#808080"/>
    </radialGradient>
    <radialGradient cx="0" cy="0" gradientTransform="matrix(0.0046, 0.0, 0.0, 0.0046, -1.0, -52.85)" gradientUnits="userSpaceOnUse" id="gradient28" r="819.2" spreadMethod="pad">
      <stop offset="0.0" stop-color="#020202"/>
      <stop offset="1.0" stop-color="#020202"/>
    </radialGradient>
    <radialGradient cx="0" cy="0" gradientTransform="matrix(0.0083, 0.0, 0.0, 0.0083, -13.05, -53.3)" gradientUnits="userSpaceOnUse" id="gradient29" r="819.2" spreadMethod="pad">
      <stop offset="0.0" stop-color="#171717"/>
      <stop offset="1.0" stop-color="#171717"/>
    </radialGradient>
    <radialGradient cx="0" cy="0" gradientTransform="matrix(0.0191, 0.0, 0.0, 0.0191, -19.95, -53.8)" gradientUnits="userSpaceOnUse" id="gradient30" r="819.2" spreadMethod="pad">
      <stop offset="0.0" stop-color="#303030"/>
      <stop offset="1.0" stop-color="#1f1f1f"/>
    </radialGradient>
    <radialGradient cx="0" cy="0" gradientTransform="matrix(0.0185, 0.0, 0.0, 0.0185, -5.4, -36.5)" gradientUnits="userSpaceOnUse" id="gradient31" r="819.2" spreadMethod="pad">
      <stop offset="0.0" stop-color="#040404"/>
      <stop offset="1.0" stop-color="#040404"/>
    </radialGradient>
    <radialGradient cx="0" cy="0" gradientTransform="matrix(0.0086, 0.0, 0.0, 0.0086, -14.15, -39.7)" gradientUnits="userSpaceOnUse" id="gradient32" r="819.2" spreadMethod="pad">
      <stop offset="0.0" stop-color="#202020"/>
      <stop offset="1.0" stop-color="#202020"/>
    </radialGradient>
    <radialGradient cx="0" cy="0" gradientTransform="matrix(0.01, 0.0, 0.0, 0.01, -13.85, -36.45)" gradientUnits="userSpaceOnUse" id="gradient33" r="819.2" spreadMethod="pad">
      <stop offset="0.0" stop-color="#060606"/>
      <stop offset="1.0" stop-color="#020202"/>
    </radialGradient>
    <radialGradient cx="0" cy="0" gradientTransform="matrix(0.0108, 0.0, 0.0, 0.0108, -11.85, -50.5)" gradientUnits="userSpaceOnUse" id="gradient34" r="819.2" spreadMethod="pad">
      <stop offset="0.0" stop-color="#020202"/>
      <stop offset="1.0" stop-color="#020202"/>
    </radialGradient>
    <radialGradient cx="0" cy="0" gradientTransform="matrix(0.0086, 0.0, 0.0, 0.0086, -7.2, -42.6)" gradientUnits="userSpaceOnUse" id="gradient35" r="819.2" spreadMethod="pad">
      <stop offset="0.0" stop-color="#171717"/>
      <stop offset="1.0" stop-color="#171717"/>
    </radialGradient>
    <radialGradient cx="0" cy="0" gradientTransform="matrix(0.0124, 0.0, 0.0, 0.0124, -3.7, -54.5)" gradientUnits="userSpaceOnUse" id="gradient36" r="819.2" spreadMethod="pad">
      <stop offset="0.0" stop-color="#020202"/>
      <stop offset="1.0" stop-color="#020202"/>
    </radialGradient>
    <radialGradient cx="0" cy="0" gradientTransform="matrix(0.0083, 0.0, 0.0, 0.0083, -6.75, -42.8)" gradientUnits="userSpaceOnUse" id="gradient37" r="819.2" spreadMethod="pad">
      <stop offset="0.0" stop-color="#040404"/>
      <stop offset="1.0" stop-color="#040404"/>
    </radialGradient>
    <radialGradient cx="0" cy="0" gradientTransform="matrix(0.0206, 0.0, 0.0, 0.0206, -4.5, -40.45)" gradientUnits="userSpaceOnUse" id="gradient38" r="819.2" spreadMethod="pad">
      <stop offset="0.0" stop-color="#030303"/>
      <stop offset="1.0" stop-color="#030303"/>
    </radialGradient>
    <radialGradient cx="0" cy="0" gradientTransform="matrix(0.0214, 0.0, 0.0, 0.0214, -21.8, -26.6)" gradientUnits="userSpaceOnUse" id="gradient39" r="819.2" spreadMethod="pad">
      <stop offset="0.0" stop-color="#030303"/>
      <stop offset="1.0" stop-color="#030303"/>
    </radialGradient>
    <radialGradient cx="0" cy="0" gradientTransform="matrix(0.0211, 0.0, 0.0, 0.0211, -22.3, -26.55)" gradientUnits="userSpaceOnUse" id="gradient40" r="819.2" spreadMethod="pad">
      <stop offset="0.0" stop-color="#040404"/>
      <stop offset="1.0" stop-color="#040404"/>
    </radialGradient>
    <radialGradient cx="0" cy="0" gradientTransform="matrix(0.0135, 0.0, 0.0, 0.0135, -1.0, -27.8)" gradientUnits="userSpaceOnUse" id="gradient41" r="819.2" spreadMethod="pad">
      <stop offset="0.0" stop-color="#131313"/>
      <stop offset="1.0" stop-color="#040404"/>
    </radialGradient>
    <radialGradient cx="0" cy="0" gradientTransform="matrix(0.0074, 0.0, 0.0, 0.0074, -22.7, -27.85)" gradientUnits="userSpaceOnUse" id="gradient42" r="819.2" spreadMethod="pad">
      <stop offset="0.0" stop-color="#262626"/>
      <stop offset="1.0" stop-color="#262626"/>
    </radialGradient>
    <radialGradient cx="0" cy="0" gradientTransform="matrix(0.0115, 0.0, 0.0, 0.0115, -257.2, -29.55)" gradientUnits="userSpaceOnUse" id="gradient43" r="819.2" spreadMethod="pad">
      <stop offset="0.0" stop-color="#7b7b7b"/>
      <stop offset="1.0" stop-color="#1b1b1b"/>
    </radialGradient>
    <radialGradient cx="0" cy="0" gradientTransform="matrix(0.091, 0.0, 0.0, 0.091, -321.95, -1.0)" gradientUnits="userSpaceOnUse" id="gradient44" r="819.2" spreadMethod="pad">
      <stop offset="0.0" stop-color="#0e0e0e"/>
      <stop offset="1.0" stop-color="#000000"/>
    </radialGradient>
    <radialGradient cx="0" cy="0" gradientTransform="matrix(0.0528, 0.0, 0.0, 0.0528, -257.75, -31.7)" gradientUnits="userSpaceOnUse" id="gradient45" r="819.2" spreadMethod="pad">
      <stop offset="0.0" stop-color="#000000"/>
      <stop offset="1.0" stop-color="#000000"/>
    </radialGradient>
    <radialGradient cx="0" cy="0" gradientTransform="matrix(0.0461, 0.0, 0.0, 0.0461, -336.75, -1.0)" gradientUnits="userSpaceOnUse" id="gradient46" r="819.2" spreadMethod="pad">
      <stop offset="0.0" stop-color="#000000"/>
      <stop offset="1.0" stop-color="#000000"/>
    </radialGradient>
    <radialGradient cx="0" cy="0" gradientTransform="matrix(0.0617, 0.0, 0.0, 0.0617, -353.9, -1.0)" gradientUnits="userSpaceOnUse" id="gradient47" r="819.2" spreadMethod="pad">
      <stop offset="0.0" stop-color="#000000"/>
      <stop offset="1.0" stop-color="#000000"/>
    </radialGradient>
    <radialGradient cx="0" cy="0" gradientTransform="matrix(0.0264, 0.0, 0.0, 0.0264, -368.25, -8.45)" gradientUnits="userSpaceOnUse" id="gradient48" r="819.2" spreadMethod="pad">
      <stop offset="0.0" stop-color="#000000"/>
      <stop offset="1.0" stop-color="#000000"/>
    </radialGradient>
    <radialGradient cx="0" cy="0" gradientTransform="matrix(0.0213, 0.0, 0.0, 0.0213, -209.35, -7.0)" gradientUnits="userSpaceOnUse" id="gradient49" r="819.2" spreadMethod="pad">
      <stop offset="0.0" stop-color="#000000"/>
      <stop offset="1.0" stop-color="#000000"/>
    </radialGradient>
    <radialGradient cx="0" cy="0" gradientTransform="matrix(0.0251, 0.0, 0.0, 0.0251, -189.7, -1.0)" gradientUnits="userSpaceOnUse" id="gradient50" r="819.2" spreadMethod="pad">
      <stop offset="0.0" stop-color="#121212"/>
      <stop offset="1.0" stop-color="#030303"/>
    </radialGradient>
    <radialGradient cx="0" cy="0" gradientTransform="matrix(0.033, 0.0, 0.0, 0.033, -191.9, -7.6)" gradientUnits="userSpaceOnUse" id="gradient51" r="819.2" spreadMethod="pad">
      <stop offset="0.0" stop-color="#000000"/>
      <stop offset="1.0" stop-color="#000000"/>
    </radialGradient>
    <radialGradient cx="0" cy="0" gradientTransform="matrix(0.022, 0.0, 0.0, 0.022, -191.9, -7.6)" gradientUnits="userSpaceOnUse" id="gradient52" r="819.2" spreadMethod="pad">
      <stop offset="0.0" stop-color="#000000"/>
      <stop offset="1.0" stop-color="#000000"/>
    </radialGradient>
    <radialGradient cx="0" cy="0" gradientTransform="matrix(0.0125, 0.0, 0.0, 0.0125, -368.25, -8.45)" gradientUnits="userSpaceOnUse" id="gradient53" r="819.2" spreadMethod="pad">
      <stop offset="0.0" stop-color="#000000"/>
      <stop offset="1.0" stop-color="#000000"/>
    </radialGradient>
    <radialGradient cx="0" cy="0" gradientTransform="matrix(0.0166, 0.0, 0.0, 0.0166, -4.65, -1.0)" gradientUnits="userSpaceOnUse" id="gradient54" r="819.2" spreadMethod="pad">
      <stop offset="0.0" stop-color="#000000"/>
      <stop offset="1.0" stop-color="#000000"/>
    </radialGradient>
    <radialGradient cx="0" cy="0" gradientTransform="matrix(0.0051, 0.0, 0.0, 0.0051, -1.0, -3.05)" gradientUnits="userSpaceOnUse" id="gradient55" r="819.2" spreadMethod="pad">
      <stop offset="0.0" stop-color="#000000"/>
      <stop offset="1.0" stop-color="#000000"/>
    </radialGradient>
  </defs>
</svg>
