<?xml version="1.0" encoding="UTF-8" standalone="no"?>
<svg xmlns:xlink="http://www.w3.org/1999/xlink" height="212.6px" width="379.1px" xmlns="http://www.w3.org/2000/svg">
  <g transform="matrix(1.0, 0.0, 0.0, 1.0, 380.0, 213.5)">
    <path d="M-340.65 -44.0 L-343.9 -47.0 -353.65 -59.9 -352.4 -61.25 -352.4 -61.9 -360.65 -75.65 -353.65 -68.4 -353.15 -68.25 -356.5 -77.0 -359.4 -83.15 -359.0 -83.65 -358.9 -96.65 -362.65 -109.25 -360.15 -127.4 -353.0 -143.4 -345.5 -164.0 -345.15 -163.9 -338.0 -146.65 -342.0 -137.65 -342.65 -135.15 -345.9 -127.15 -347.0 -118.0 -347.25 -112.15 -345.5 -100.5 -342.0 -86.5 -341.9 -86.25 Q-338.4 -69.25 -325.0 -57.5 L-324.75 -57.15 -316.75 -49.0 -307.65 -42.65 -305.65 -41.75 -305.9 -41.5 -306.15 -41.5 -326.9 -32.5 -340.25 -44.15 -340.65 -44.0 M-275.25 -213.15 L-274.9 -213.15 -263.15 -207.75 -266.15 -195.0 -271.75 -195.25 -300.0 -187.5 -303.0 -185.15 -319.75 -183.5 -322.0 -182.4 -313.9 -191.25 -304.0 -203.0 -275.25 -213.15 M-255.65 -194.65 L-242.65 -203.75 -242.25 -203.75 -242.25 -203.25 -244.15 -192.75 -249.0 -194.4 -255.65 -194.65 M-189.9 -77.9 L-189.0 -77.65 -193.65 -59.0 -200.0 -47.15 -200.0 -46.4 -204.75 -34.5 -208.15 -36.15 -208.65 -36.5 -227.5 -40.65 Q-210.15 -45.25 -189.9 -77.9 M-323.15 -181.0 L-326.5 -167.15 -331.75 -160.4 -330.4 -173.4 -323.15 -181.0 M-185.15 -93.15 L-183.5 -91.65 -185.25 -90.4 -185.15 -93.15" fill="url(#gradient0)" fill-rule="evenodd" stroke="none"/>
    <path d="M-274.9 -213.15 L-255.4 -213.5 -236.15 -209.9 -217.75 -202.4 Q-181.15 -181.75 -168.65 -143.75 L-167.75 -141.65 -164.65 -124.9 -164.25 -120.75 -164.15 -104.25 -168.0 -84.0 -175.5 -65.9 -184.75 -52.15 -185.75 -51.15 -186.4 -49.75 -199.25 -37.15 -203.9 -34.0 -204.75 -34.5 -200.0 -46.4 -200.0 -47.15 -193.65 -59.0 -189.0 -77.65 -189.9 -77.9 -198.0 -81.0 -199.0 -86.15 -202.15 -111.0 -224.4 -145.25 -238.0 -168.75 -239.4 -171.15 -246.0 -182.4 -244.65 -190.5 -244.15 -192.75 -242.25 -203.25 -242.25 -203.75 -242.65 -203.75 -255.65 -194.65 -263.5 -188.65 -268.4 -185.0 -267.75 -188.15 -266.15 -195.0 -263.15 -207.75 -274.9 -213.15 M-185.25 -90.4 L-183.5 -91.65 -185.15 -93.15 -192.4 -100.9 -192.65 -100.75 -197.9 -81.5 -185.25 -90.4" fill="url(#gradient1)" fill-rule="evenodd" stroke="none"/>
    <path d="M-203.9 -34.0 L-186.15 -24.15 -203.25 -23.4 -208.15 -36.15 -204.75 -34.5 -203.9 -34.0" fill="url(#gradient2)" fill-rule="evenodd" stroke="none"/>
    <path d="M-266.15 -195.0 L-267.75 -188.15 -275.75 -187.15 -281.5 -183.4 -287.15 -186.0 -294.25 -186.0 -303.0 -185.15 -300.0 -187.5 -271.75 -195.25 -266.15 -195.0 M-263.5 -188.65 L-255.65 -194.65 -249.0 -194.4 -244.15 -192.75 -244.65 -190.5 -263.5 -188.65 M-238.0 -168.75 L-224.4 -145.25 -202.15 -111.0 -199.0 -86.15 -198.0 -81.0 -189.9 -77.9 Q-210.15 -45.25 -227.5 -40.65 L-250.25 -45.5 -250.5 -45.5 -250.75 -46.75 -251.5 -47.65 -254.15 -49.9 -258.75 -53.5 -258.9 -53.15 -257.65 -50.9 -260.65 -52.25 -261.65 -52.9 -263.4 -54.25 -264.9 -54.9 -268.65 -54.75 -277.15 -55.4 -282.75 -54.15 -287.9 -53.65 -289.65 -51.4 -298.4 -50.9 -303.65 -42.65 -305.4 -41.75 -305.65 -41.75 -307.65 -42.65 -316.75 -49.0 -324.75 -57.15 -325.0 -57.5 Q-338.4 -69.25 -341.9 -86.25 L-342.0 -86.5 -345.5 -100.5 -347.25 -112.15 -347.0 -118.0 -345.9 -127.15 -342.65 -135.15 -342.0 -137.65 -338.0 -146.65 -334.5 -138.4 -334.15 -138.5 -331.75 -160.4 -326.5 -167.15 -327.0 -163.65 -326.0 -161.4 -323.5 -160.4 -291.25 -163.25 -283.65 -168.75 -282.15 -169.65 -280.9 -169.0 -273.15 -165.15 -272.65 -164.9 -239.15 -168.4 -238.0 -168.75 M-279.4 -127.65 L-282.75 -126.9 -284.4 -126.15 -289.15 -126.65 -292.9 -125.75 -300.25 -120.9 -301.75 -120.25 -300.25 -120.15 -265.9 -123.5 -275.9 -127.5 -279.4 -127.65 M-301.75 -118.4 L-302.4 -118.0 -302.25 -117.75 -300.25 -116.25 -294.65 -113.9 -286.65 -112.25 -284.4 -112.15 Q-269.15 -115.65 -264.9 -121.65 L-301.75 -118.4 M-185.15 -93.15 L-185.25 -90.4 -197.9 -81.5 -192.65 -100.75 -192.4 -100.9 -185.15 -93.15" fill="url(#gradient3)" fill-rule="evenodd" stroke="none"/>
    <path d="M-239.4 -171.15 L-238.0 -168.75 -239.15 -168.4 -239.9 -170.9 -239.4 -171.15" fill="url(#gradient4)" fill-rule="evenodd" stroke="none"/>
    <path d="M-267.75 -188.15 L-268.4 -185.0 -263.5 -188.65 -244.65 -190.5 -246.0 -182.4 -239.4 -171.15 -239.9 -170.9 -273.9 -167.5 -281.5 -171.25 -283.0 -172.0 -283.5 -172.0 -284.5 -171.15 -292.25 -165.75 -324.4 -162.75 -327.0 -163.65 -326.5 -167.15 -323.15 -181.0 -322.0 -182.4 -319.75 -183.5 -303.0 -185.15 -294.25 -186.0 -287.15 -186.0 -281.5 -183.4 -275.75 -187.15 -267.75 -188.15" fill="url(#gradient5)" fill-rule="evenodd" stroke="none"/>
    <path d="M-360.65 -75.65 Q-369.5 -99.4 -367.9 -115.75 L-366.25 -127.15 -363.5 -141.25 -358.15 -153.75 -349.15 -170.75 -337.75 -183.65 -322.65 -194.75 -311.5 -201.25 -293.75 -209.15 -275.25 -213.15 -304.0 -203.0 -313.9 -191.25 -322.0 -182.4 -323.15 -181.0 -330.4 -173.4 -331.75 -160.4 -334.15 -138.5 -334.5 -138.4 -338.0 -146.65 -345.15 -163.9 -345.5 -164.0 -353.0 -143.4 -360.15 -127.4 -362.65 -109.25 -358.9 -96.65 -359.0 -83.65 -359.4 -83.15 -356.5 -77.0 -353.15 -68.25 -353.65 -68.4 -360.65 -75.65" fill="url(#gradient6)" fill-rule="evenodd" stroke="none"/>
    <path d="M-353.65 -59.9 L-360.65 -75.65 -352.4 -61.9 -352.4 -61.25 -353.65 -59.9" fill="url(#gradient7)" fill-rule="evenodd" stroke="none"/>
    <path d="M-305.65 -41.75 L-305.4 -41.75 -303.65 -42.65 -303.5 -42.65 -304.5 -40.5 -306.25 -39.75 -307.75 -39.9 -307.65 -40.65 -306.5 -41.15 -306.15 -41.5 -305.9 -41.5 -305.65 -41.75 M-250.5 -45.5 L-250.25 -45.5 -246.5 -44.5 -248.15 -44.25 -248.4 -43.65 -249.65 -43.9 -251.25 -45.5 -250.75 -45.65 -250.65 -45.5 -250.5 -45.5" fill="url(#gradient8)" fill-rule="evenodd" stroke="none"/>
    <path d="M-297.75 -0.9 L-303.0 -0.9 Q-301.75 -2.9 -305.15 -8.5 L-310.25 -12.25 -320.5 -14.65 -328.0 -14.9 -306.25 -39.75 -304.5 -40.5 -303.5 -42.65 -303.65 -42.65 -298.4 -50.9 -289.65 -51.4 -284.25 -51.75 -270.4 -52.75 -270.15 -52.75 -268.5 -52.9 -265.25 -53.0 -264.65 -53.15 -262.9 -53.25 -261.65 -52.9 -260.65 -52.25 -257.15 -50.0 -254.65 -48.25 -250.75 -45.65 -251.25 -45.5 -249.65 -43.9 -233.15 -13.0 -232.15 -6.75 -237.65 -10.15 -244.5 -13.5 -256.4 -16.0 -267.5 -16.0 -276.25 -14.5 -290.25 -7.9 -296.0 -2.9 -296.9 -2.5 -297.75 -0.9" fill="url(#gradient9)" fill-rule="evenodd" stroke="none"/>
    <path d="M-289.65 -51.4 L-287.9 -53.65 -282.75 -54.15 -277.15 -55.4 -268.65 -54.75 -264.9 -54.9 -263.4 -54.25 -261.65 -52.9 -262.9 -53.25 -264.65 -53.15 -265.25 -53.0 -268.5 -52.9 -270.15 -52.75 -270.4 -52.75 -283.0 -52.15 -284.25 -51.75 -289.65 -51.4 M-260.65 -52.25 L-257.65 -50.9 -257.15 -50.0 -260.65 -52.25" fill="url(#gradient10)" fill-rule="evenodd" stroke="none"/>
    <path d="M-284.25 -51.75 L-283.0 -52.15 -270.4 -52.75 -284.25 -51.75" fill="url(#gradient11)" fill-rule="evenodd" stroke="none"/>
    <path d="M-283.0 -172.0 L-281.5 -171.25 -280.9 -169.0 -282.15 -169.65 -283.0 -172.0" fill="url(#gradient12)" fill-rule="evenodd" stroke="none"/>
    <path d="M-281.5 -171.25 L-273.9 -167.5 -273.15 -165.15 -280.9 -169.0 -281.5 -171.25" fill="url(#gradient13)" fill-rule="evenodd" stroke="none"/>
    <path d="M-284.5 -171.15 L-283.5 -172.0 -283.0 -172.0 -282.15 -169.65 -283.65 -168.75 -284.5 -171.15" fill="url(#gradient14)" fill-rule="evenodd" stroke="none"/>
    <path d="M-292.25 -165.75 L-284.5 -171.15 -283.65 -168.75 -291.25 -163.25 -292.25 -165.75" fill="url(#gradient15)" fill-rule="evenodd" stroke="none"/>
    <path d="M-324.4 -162.75 L-292.25 -165.75 -291.25 -163.25 -323.5 -160.4 -324.4 -162.75" fill="url(#gradient16)" fill-rule="evenodd" stroke="none"/>
    <path d="M-327.0 -163.65 L-324.4 -162.75 -323.5 -160.4 -326.0 -161.4 -327.0 -163.65" fill="url(#gradient17)" fill-rule="evenodd" stroke="none"/>
    <path d="M-273.9 -167.5 L-239.9 -170.9 -239.15 -168.4 -272.65 -164.9 -273.15 -165.15 -273.9 -167.5" fill="url(#gradient18)" fill-rule="evenodd" stroke="none"/>
    <path d="M-279.4 -127.65 L-275.9 -127.5 -265.9 -123.5 -300.25 -120.15 -301.75 -120.25 -300.25 -120.9 -292.9 -125.75 -289.15 -126.65 -284.4 -126.15 -282.75 -126.9 -279.4 -127.65 M-300.0 -120.9 L-299.0 -120.75 -267.9 -123.9 -270.4 -124.65 -274.5 -126.65 -279.15 -127.25 -283.25 -126.4 -284.9 -125.65 -288.9 -126.25 -292.9 -125.4 -300.0 -120.9" fill="url(#gradient19)" fill-rule="evenodd" stroke="none"/>
    <path d="M-300.0 -120.9 L-292.9 -125.4 -288.9 -126.25 -284.9 -125.65 -283.25 -126.4 -279.15 -127.25 -274.5 -126.65 -270.4 -124.65 -267.9 -123.9 -299.0 -120.75 -300.0 -120.9" fill="url(#gradient20)" fill-rule="evenodd" stroke="none"/>
    <path d="M-301.75 -118.4 L-264.9 -121.65 Q-269.15 -115.65 -284.4 -112.15 L-286.65 -112.25 -294.65 -113.9 -300.25 -116.25 -302.25 -117.75 -302.4 -118.0 -301.75 -118.4 M-301.75 -118.15 Q-295.25 -113.15 -283.75 -112.75 -267.15 -117.9 -266.5 -121.15 L-301.75 -118.15" fill="url(#gradient21)" fill-rule="evenodd" stroke="none"/>
    <path d="M-301.75 -118.15 L-266.5 -121.15 Q-267.15 -117.9 -283.75 -112.75 -295.25 -113.15 -301.75 -118.15" fill="url(#gradient22)" fill-rule="evenodd" stroke="none"/>
    <path d="M-7.4 -79.25 L-7.0 -80.25 -6.0 -80.65 -6.0 -81.0 -7.25 -83.25 Q-6.0 -85.25 -0.9 -83.75 L-0.9 -70.5 -1.5 -72.15 -2.25 -72.0 -2.25 -71.65 Q-1.5 -70.4 -1.4 -67.25 L-0.9 -66.5 -0.9 -61.75 -4.15 -60.65 -4.65 -60.65 -4.5 -61.65 -7.25 -75.5 -7.15 -75.65 -6.9 -76.15 -6.15 -77.0 -6.15 -78.65 -6.65 -79.4 -7.4 -79.25 M-17.5 -70.25 L-17.5 -70.4 -17.15 -71.15 -17.0 -71.4 -16.75 -71.5 -16.9 -71.0 -16.5 -71.25 -17.0 -70.25 -16.65 -69.5 -17.5 -70.25 M-14.9 -71.9 L-11.15 -73.25 -10.5 -73.0 -10.0 -73.25 -10.75 -73.4 -9.5 -73.4 -9.5 -72.75 -11.9 -72.9 -12.75 -72.4 -9.5 -72.25 -9.75 -71.9 -9.5 -72.0 -9.4 -67.5 -8.9 -65.0 -8.65 -63.65 -16.15 -69.15 -14.75 -69.5 -14.25 -69.15 -15.75 -69.15 -14.75 -69.0 -15.15 -68.65 -12.25 -68.65 -12.0 -68.75 -12.5 -68.75 -12.4 -69.15 -12.75 -69.15 -12.75 -68.75 -14.65 -68.75 -13.9 -69.4 -13.75 -69.15 -13.25 -69.4 -14.5 -69.75 -13.15 -69.9 -13.15 -70.4 -13.4 -70.0 -14.15 -70.15 -13.5 -70.5 -13.75 -71.15 -14.75 -70.65 -15.9 -70.9 -16.15 -71.15 -15.75 -71.75 -15.75 -71.25 -14.9 -71.0 -14.65 -71.4 -14.9 -71.9 M-15.75 -69.75 L-14.75 -69.75 -15.5 -69.5 -15.75 -69.75 M-11.65 -72.9 L-10.75 -72.9 -11.4 -73.15 -11.65 -72.9 M-13.4 -71.25 L-13.0 -71.5 -13.15 -71.15 -12.75 -71.25 -12.9 -71.65 -13.65 -71.9 -13.4 -71.25 M-10.75 -70.65 L-10.5 -71.0 -11.15 -70.9 -10.75 -70.65 M-9.15 -65.0 L-8.9 -65.0 -9.15 -65.4 -9.15 -65.0" fill="url(#gradient23)" fill-rule="evenodd" stroke="none"/>
    <path d="M-7.4 -79.25 L-8.15 -78.15 -9.0 -75.15 -7.25 -83.25 -6.0 -81.0 -6.0 -80.65 -7.0 -80.25 -7.4 -79.25" fill="url(#gradient24)" fill-rule="evenodd" stroke="none"/>
    <path d="M-9.0 -75.15 L-8.15 -78.15 -7.4 -79.25 -6.65 -79.4 -6.15 -78.65 -6.15 -77.0 -6.9 -76.15 -7.15 -75.65 -7.25 -75.5 -4.5 -61.65 -4.65 -60.65 -5.5 -60.4 -5.9 -61.0 -8.15 -71.65 -8.65 -72.5 -8.5 -73.5 -8.75 -73.4 -8.75 -74.15 -9.15 -74.4 -9.0 -75.15" fill="url(#gradient25)" fill-rule="evenodd" stroke="none"/>
    <path d="M-5.5 -60.4 L-4.65 -60.65 -4.5 -60.5 -5.5 -60.15 -5.5 -60.4" fill="url(#gradient26)" fill-rule="evenodd" stroke="none"/>
    <path d="M-9.15 -74.4 L-8.75 -74.15 -8.75 -73.4 -8.5 -73.5 -8.65 -72.5 -8.15 -71.65 -5.9 -61.0 -5.5 -60.4 -7.5 -60.25 -8.15 -60.65 -8.65 -62.75 -8.65 -63.65 -8.9 -65.0 -9.4 -67.5 -9.5 -72.0 -9.5 -72.25 -9.5 -72.75 -9.5 -73.4 -9.5 -73.9 -9.65 -73.9 -9.15 -74.4" fill="url(#gradient27)" fill-rule="evenodd" stroke="none"/>
    <path d="M-0.9 -70.5 L-0.9 -66.5 -1.4 -67.25 Q-1.5 -70.4 -2.25 -71.65 L-2.25 -72.0 -1.5 -72.15 -0.9 -70.5" fill="url(#gradient28)" fill-rule="evenodd" stroke="none"/>
    <path d="M-17.0 -71.4 L-16.75 -71.75 -14.9 -71.9 -14.65 -71.4 -14.9 -71.0 -15.75 -71.25 -15.75 -71.75 -16.15 -71.15 -15.9 -70.9 -14.75 -70.65 -13.75 -71.15 -13.5 -70.5 -14.15 -70.15 -13.4 -70.0 -13.15 -70.4 -13.15 -69.9 -14.5 -69.75 -13.25 -69.4 -13.75 -69.15 -13.9 -69.4 -14.65 -68.75 -12.75 -68.75 -12.75 -69.15 -12.4 -69.15 -12.5 -68.75 -12.0 -68.75 -12.25 -68.65 -15.15 -68.65 -14.75 -69.0 -15.75 -69.15 -14.25 -69.15 -14.75 -69.5 -16.15 -69.15 -16.15 -69.25 -16.5 -69.4 -16.65 -69.5 -17.0 -70.25 -16.5 -71.25 -16.9 -71.0 -16.75 -71.5 -17.0 -71.4 M-11.15 -73.25 L-9.9 -73.75 -9.65 -73.9 -9.5 -73.9 -9.5 -73.4 -10.75 -73.4 -10.0 -73.25 -10.5 -73.0 -11.15 -73.25 M-15.75 -69.75 L-15.5 -69.5 -14.75 -69.75 -15.75 -69.75 M-9.5 -72.75 L-9.5 -72.25 -9.5 -72.0 -9.75 -71.9 -9.5 -72.25 -12.75 -72.4 -11.9 -72.9 -9.5 -72.75 M-13.4 -71.25 L-13.65 -71.9 -12.9 -71.65 -12.75 -71.25 -13.15 -71.15 -13.0 -71.5 -13.4 -71.25 M-11.65 -72.9 L-11.4 -73.15 -10.75 -72.9 -11.65 -72.9 M-10.75 -70.65 L-11.15 -70.9 -10.5 -71.0 -10.75 -70.65 M-9.15 -65.0 L-9.15 -65.4 -8.9 -65.0 -9.15 -65.0" fill="url(#gradient29)" fill-rule="evenodd" stroke="none"/>
    <path d="M-16.65 -69.5 L-16.5 -69.4 -16.15 -69.25 -16.15 -69.15 -8.65 -63.65 -8.65 -62.75 -9.5 -59.4 -12.25 -57.0 -18.5 -61.5 -19.15 -62.75 -17.5 -70.25 -16.65 -69.5" fill="url(#gradient30)" fill-rule="evenodd" stroke="none"/>
    <path d="M-12.25 -57.0 L-9.5 -59.4 -8.25 -60.4 -7.4 -59.9 -5.5 -60.15 -4.5 -60.5 Q-4.3 -60.55 -4.15 -60.65 L-0.9 -61.75 -0.9 -58.5 -5.65 -58.15 -7.0 -56.0 -13.65 -53.65 -16.25 -52.15 -16.75 -51.25 -16.15 -50.4 -16.65 -50.15 -17.15 -50.9 -17.15 -51.0 -16.0 -53.5 -12.25 -57.0 M-0.9 -55.0 L-0.9 -54.65 -5.25 -54.65 -5.65 -54.5 -5.0 -54.9 -4.75 -55.0 -0.9 -55.0" fill="url(#gradient31)" fill-rule="evenodd" stroke="none"/>
    <path d="M-9.5 -59.4 L-8.65 -62.75 -8.15 -60.65 -8.25 -60.4 -9.5 -59.4" fill="url(#gradient32)" fill-rule="evenodd" stroke="none"/>
    <path d="M-8.25 -60.4 L-8.15 -60.65 -7.5 -60.25 -5.5 -60.4 -5.5 -60.15 -7.4 -59.9 -8.25 -60.4" fill="url(#gradient33)" fill-rule="evenodd" stroke="none"/>
    <path d="M-4.65 -60.65 L-4.15 -60.65 Q-4.3 -60.55 -4.5 -60.5 L-4.65 -60.65" fill="url(#gradient34)" fill-rule="evenodd" stroke="none"/>
    <path d="M-0.9 -58.5 L-0.9 -55.0 -4.75 -55.0 -5.0 -54.9 -5.65 -54.5 -5.75 -54.5 -8.9 -53.25 -9.0 -53.15 -12.65 -51.65 -16.15 -50.4 -16.75 -51.25 -16.25 -52.15 -13.65 -53.65 -7.0 -56.0 -5.65 -58.15 -0.9 -58.5" fill="url(#gradient35)" fill-rule="evenodd" stroke="none"/>
    <path d="M-14.25 -44.5 L-17.9 -43.0 -16.25 -49.5 -16.65 -50.15 -16.15 -50.4 -12.65 -51.65 -14.25 -44.5" fill="url(#gradient36)" fill-rule="evenodd" stroke="none"/>
    <path d="M-7.25 -47.25 L-14.15 -44.5 -14.25 -44.5 -12.65 -51.65 -9.0 -53.15 -8.9 -53.25 -5.75 -54.5 -5.65 -54.5 -5.25 -54.65 -5.65 -52.0 -7.25 -47.25 M-17.9 -43.0 L-18.4 -43.15 -16.65 -50.15 -16.25 -49.5 -17.9 -43.0" fill="url(#gradient37)" fill-rule="evenodd" stroke="none"/>
    <path d="M-0.9 -54.65 L-0.9 -46.9 -7.25 -47.25 -5.65 -52.0 -5.25 -54.65 -0.9 -54.65" fill="url(#gradient38)" fill-rule="evenodd" stroke="none"/>
    <path d="M-257.65 -50.9 L-258.9 -53.15 -258.75 -53.5 -254.15 -49.9 -254.65 -48.25 -257.15 -50.0 -257.65 -50.9" fill="url(#gradient39)" fill-rule="evenodd" stroke="none"/>
    <path d="M-254.15 -49.9 L-251.5 -47.65 -250.75 -46.75 -250.5 -45.5 -250.75 -45.65 -254.65 -48.25 -254.15 -49.9" fill="url(#gradient40)" fill-rule="evenodd" stroke="none"/>
    <path d="M-18.4 -43.15 L-18.9 -44.15 -17.15 -50.9 -16.65 -50.15 -18.4 -43.15" fill="url(#gradient41)" fill-rule="evenodd" stroke="none"/>
    <path d="M-211.75 -0.9 L-226.25 -0.9 -229.9 -5.15 -232.15 -6.75 -233.15 -13.0 -249.65 -43.9 -248.4 -43.65 -211.9 -9.65 -211.75 -0.9" fill="url(#gradient42)" fill-rule="evenodd" stroke="none"/>
    <path d="M-226.25 -0.9 L-297.75 -0.9 -296.9 -2.5 -296.0 -2.9 -290.25 -7.9 -276.25 -14.5 -267.5 -16.0 -256.4 -16.0 -244.5 -13.5 -237.65 -10.15 -232.15 -6.75 -229.9 -5.15 -226.25 -0.9" fill="url(#gradient43)" fill-rule="evenodd" stroke="none"/>
    <path d="M-303.0 -0.9 L-363.65 -0.9 -357.0 -5.75 -352.5 -8.15 -352.25 -8.25 -352.0 -8.4 -351.75 -8.5 -351.15 -8.9 -345.65 -11.5 -341.0 -13.25 -331.9 -14.9 -328.0 -14.9 -320.5 -14.65 -310.25 -12.25 -305.15 -8.5 Q-301.75 -2.9 -303.0 -0.9" fill="url(#gradient44)" fill-rule="evenodd" stroke="none"/>
    <path d="M-307.75 -39.9 L-306.25 -39.75 -328.0 -14.9 -331.9 -14.9 -341.0 -13.25 -345.65 -11.5 -345.5 -12.9 -307.75 -39.9" fill="url(#gradient45)" fill-rule="evenodd" stroke="none"/>
    <path d="M-200.65 -0.9 L-211.75 -0.9 -211.9 -9.65 -248.4 -43.65 -248.15 -44.25 -246.5 -44.5 -250.25 -45.5 -227.5 -40.65 -208.65 -36.5 -208.15 -36.15 -203.25 -23.4 -200.65 -0.9 M-250.75 -45.65 L-250.5 -45.5 -250.65 -45.5 -250.75 -45.65" fill="url(#gradient46)" fill-rule="evenodd" stroke="none"/>
    <path d="M-338.25 -27.65 Q-332.8 -30.0 -327.4 -32.4 L-326.9 -32.5 -306.15 -41.5 -306.5 -41.15 -307.65 -40.65 -307.75 -39.9 -345.5 -12.9 -338.25 -27.65" fill="url(#gradient47)" fill-rule="evenodd" stroke="none"/>
    <path d="M-327.4 -32.4 L-332.75 -36.65 -340.65 -44.0 -340.25 -44.15 -326.9 -32.5 -327.4 -32.4" fill="url(#gradient48)" fill-rule="evenodd" stroke="none"/>
    <path d="M-363.65 -0.9 L-364.9 -0.9 -359.9 -14.15 -359.0 -15.65 -357.9 -19.4 -357.5 -19.9 -338.25 -27.65 -345.5 -12.9 -345.65 -11.5 -351.15 -8.9 -351.75 -8.5 -352.0 -8.4 -352.25 -8.25 -352.5 -8.15 -357.0 -5.75 -363.65 -0.9" fill="url(#gradient49)" fill-rule="evenodd" stroke="none"/>
    <path d="M-186.15 -24.15 L-151.25 -11.65 -130.0 -5.4 -116.65 -0.9 -200.65 -0.9 -203.25 -23.4 -186.15 -24.15" fill="url(#gradient50)" fill-rule="evenodd" stroke="none"/>
    <path d="M-364.9 -0.9 L-375.9 -0.9 -371.9 -5.15 -371.5 -5.5 -357.9 -19.4 -359.0 -15.65 -359.9 -14.15 -364.9 -0.9" fill="url(#gradient51)" fill-rule="evenodd" stroke="none"/>
    <path d="M-375.9 -0.9 L-380.0 -1.0 -371.75 -5.4 -371.9 -5.15 -375.9 -0.9" fill="url(#gradient52)" fill-rule="evenodd" stroke="none"/>
    <path d="M-371.75 -5.4 L-371.5 -5.5 -371.9 -5.15 -371.75 -5.4" fill="url(#gradient53)" fill-rule="evenodd" stroke="none"/>
    <path d="M-36.0 -0.9 L-47.4 -1.0 -28.25 -13.4 -1.4 -28.15 -0.9 -28.25 -0.9 -22.25 -13.25 -15.5 -34.0 -2.0 -36.0 -0.9" fill="url(#gradient54)" fill-rule="evenodd" stroke="none"/>
    <path d="M-34.0 -2.0 L-13.25 -15.5 -0.9 -22.25 -0.9 -0.9 -32.65 -0.9 -34.0 -2.0" fill="url(#gradient55)" fill-rule="evenodd" stroke="none"/>
    <path d="M-36.0 -0.9 L-34.0 -2.0 -32.65 -0.9 -36.0 -0.9" fill="url(#gradient56)" fill-rule="evenodd" stroke="none"/>
    <path d="M-251.0 -56.25 L-250.75 -56.65 -245.15 -56.9 -244.9 -57.0 -243.25 -57.0 -243.25 -57.15 -241.4 -57.15 -241.4 -57.25 -239.65 -57.0 -239.9 -55.4 -239.75 -54.9 -240.0 -49.9 -239.9 -48.9 -240.25 -44.25 -240.25 -43.4 -240.65 -43.5 -246.5 -44.5 -246.4 -44.75 -245.5 -52.0 -246.0 -52.9 -251.0 -56.25" fill="#a90000" fill-rule="evenodd" stroke="none"/>
    <path d="M-239.65 -57.0 L-237.15 -53.9 -236.9 -52.15 -237.15 -51.9 -237.0 -51.0 -237.4 -44.0 -237.5 -43.9 -238.0 -33.75 -238.5 -31.25 -240.4 -26.5 -240.25 -26.15 -241.15 -24.25 -241.15 -23.9 -243.9 -15.9 -235.25 -10.75 -235.15 -10.9 -232.65 -9.5 -232.5 -9.25 -230.0 -8.15 -229.5 -7.65 -217.5 -0.9 -258.75 -0.9 -258.75 -1.0 -255.4 -13.65 -254.65 -15.25 -254.9 -15.75 -254.4 -15.75 -247.75 -31.4 -247.5 -32.9 -247.65 -33.25 -246.9 -38.4 -247.0 -39.15 -246.65 -41.75 -246.75 -42.15 -246.5 -43.65 -246.5 -44.5 -240.65 -43.5 -240.25 -43.4 -240.25 -44.25 -239.9 -48.9 -240.0 -49.9 -239.75 -54.9 -239.9 -55.4 -239.65 -57.0 M-246.4 -44.75 L-246.9 -44.9 -248.25 -45.15 -248.15 -46.4 -248.75 -49.75 -251.0 -56.25 -246.0 -52.9 -245.5 -52.0 -246.4 -44.75 M-312.9 -53.5 L-304.25 -46.5 -302.4 -44.75 -303.25 -43.5 -303.65 -42.65 -305.0 -42.0 -305.4 -41.9 -305.4 -41.75 -305.65 -41.75 -305.9 -41.5 -306.15 -41.5 -307.15 -41.15 -307.4 -41.15 -310.65 -44.5 -313.4 -46.75 -313.75 -46.9 -313.75 -47.0 -317.5 -49.9 -317.75 -50.0 -316.9 -50.65 -316.0 -51.15 -315.5 -51.65 -312.9 -53.5" fill="#9b0000" fill-opacity="0.9098039" fill-rule="evenodd" stroke="none"/>
    <path d="M-320.9 -52.65 L-319.25 -52.75 -318.0 -53.0 -317.25 -53.0 -312.9 -53.5 -315.5 -51.65 -316.0 -51.15 -316.9 -50.65 -317.75 -50.0 -318.65 -50.75 -319.4 -51.65 -320.9 -52.65" fill="#ac0000" fill-rule="evenodd" stroke="none"/>
    <path d="M-317.75 -50.0 L-320.75 -47.75 -323.65 -39.75 -323.75 -39.25 -323.65 -39.0 -323.9 -38.9 -323.75 -38.65 -325.4 -34.4 -325.75 -33.15 -325.75 -33.0 -325.9 -32.9 -327.65 -27.5 -344.5 -12.15 -344.5 -12.0 -345.0 -11.65 -345.15 -11.4 -345.5 -11.0 -345.75 -10.9 -347.5 -9.25 -349.65 -3.9 -349.9 -3.65 -350.9 -0.9 -367.75 -0.9 -363.9 -3.75 -363.65 -4.25 -362.5 -4.75 -362.25 -5.25 -357.75 -8.4 -340.25 -23.5 -339.75 -24.25 -337.0 -26.4 -336.4 -28.4 -336.15 -28.65 -327.4 -32.4 -333.0 -37.0 -332.75 -37.5 -329.0 -47.4 -320.9 -52.65 -319.4 -51.65 -318.65 -50.75 -317.75 -50.0" fill="#9e0000" fill-opacity="0.9098039" fill-rule="evenodd" stroke="none"/>
    <path d="M-336.15 -28.65 L-333.0 -37.0 -327.4 -32.4 -336.15 -28.65" fill="#ae0000" fill-opacity="0.9098039" fill-rule="evenodd" stroke="none"/>
  </g>
  <defs>
    <radialGradient cx="0" cy="0" gradientTransform="matrix(0.2012, 0.0, 0.0, 0.2012, -226.45, -62.1)" gradientUnits="userSpaceOnUse" id="gradient0" r="819.2" spreadMethod="pad">
      <stop offset="0.0" stop-color="#626262"/>
      <stop offset="1.0" stop-color="#121212"/>
    </radialGradient>
    <radialGradient cx="0" cy="0" gradientTransform="matrix(0.2268, 0.0, 0.0, 0.2268, -186.55, -49.8)" gradientUnits="userSpaceOnUse" id="gradient1" r="819.2" spreadMethod="pad">
      <stop offset="0.0" stop-color="#414141"/>
      <stop offset="1.0" stop-color="#151515"/>
    </radialGradient>
    <radialGradient cx="0" cy="0" gradientTransform="matrix(0.0209, 0.0, 0.0, 0.0209, -203.25, -23.45)" gradientUnits="userSpaceOnUse" id="gradient2" r="819.2" spreadMethod="pad">
      <stop offset="0.0" stop-color="#000000"/>
      <stop offset="1.0" stop-color="#000000"/>
    </radialGradient>
    <radialGradient cx="0" cy="0" gradientTransform="matrix(0.1977, 0.0, 0.0, 0.1977, -345.4, -100.45)" gradientUnits="userSpaceOnUse" id="gradient3" r="819.2" spreadMethod="pad">
      <stop offset="0.0" stop-color="#7e7e7e"/>
      <stop offset="1.0" stop-color="#000000"/>
    </radialGradient>
    <radialGradient cx="0" cy="0" gradientTransform="matrix(0.0045, 0.0, 0.0, 0.0045, -239.8, -171.0)" gradientUnits="userSpaceOnUse" id="gradient4" r="819.2" spreadMethod="pad">
      <stop offset="0.0" stop-color="#bbbbbb"/>
      <stop offset="1.0" stop-color="#bababa"/>
    </radialGradient>
    <radialGradient cx="0" cy="0" gradientTransform="matrix(0.1128, 0.0, 0.0, 0.1128, -327.05, -164.0)" gradientUnits="userSpaceOnUse" id="gradient5" r="819.2" spreadMethod="pad">
      <stop offset="0.0" stop-color="#767676"/>
      <stop offset="1.0" stop-color="#767676"/>
    </radialGradient>
    <radialGradient cx="0" cy="0" gradientTransform="matrix(0.1094, 0.0, 0.0, 0.1094, -340.0, -151.75)" gradientUnits="userSpaceOnUse" id="gradient6" r="819.2" spreadMethod="pad">
      <stop offset="0.0" stop-color="#494949"/>
      <stop offset="1.0" stop-color="#222222"/>
    </radialGradient>
    <radialGradient cx="0" cy="0" gradientTransform="matrix(0.0217, 0.0, 0.0, 0.0217, -360.85, -76.2)" gradientUnits="userSpaceOnUse" id="gradient7" r="819.2" spreadMethod="pad">
      <stop offset="0.0" stop-color="#262626"/>
      <stop offset="1.0" stop-color="#1b1b1b"/>
    </radialGradient>
    <radialGradient cx="0" cy="0" gradientTransform="matrix(0.1089, 0.0, 0.0, 0.1089, -315.7, -1.0)" gradientUnits="userSpaceOnUse" id="gradient8" r="819.2" spreadMethod="pad">
      <stop offset="0.0" stop-color="#151515"/>
      <stop offset="1.0" stop-color="#000000"/>
    </radialGradient>
    <radialGradient cx="0" cy="0" gradientTransform="matrix(0.1255, 0.0, 0.0, 0.1255, -333.45, -8.8)" gradientUnits="userSpaceOnUse" id="gradient9" r="819.2" spreadMethod="pad">
      <stop offset="0.0" stop-color="#000000"/>
      <stop offset="1.0" stop-color="#000000"/>
    </radialGradient>
    <radialGradient cx="0" cy="0" gradientTransform="matrix(0.0479, 0.0, 0.0, 0.0479, -292.9, -49.0)" gradientUnits="userSpaceOnUse" id="gradient10" r="819.2" spreadMethod="pad">
      <stop offset="0.0" stop-color="#1a1a1a"/>
      <stop offset="1.0" stop-color="#000000"/>
    </radialGradient>
    <radialGradient cx="0" cy="0" gradientTransform="matrix(0.0246, 0.0, 0.0, 0.0246, -282.45, -52.25)" gradientUnits="userSpaceOnUse" id="gradient11" r="819.2" spreadMethod="pad">
      <stop offset="0.0" stop-color="#000000"/>
      <stop offset="1.0" stop-color="#000000"/>
    </radialGradient>
    <radialGradient cx="0" cy="0" gradientTransform="matrix(0.0033, 0.0, 0.0, 0.0033, -281.6, -171.5)" gradientUnits="userSpaceOnUse" id="gradient12" r="819.2" spreadMethod="pad">
      <stop offset="0.0" stop-color="#8c8c8c"/>
      <stop offset="1.0" stop-color="#8c8c8c"/>
    </radialGradient>
    <radialGradient cx="0" cy="0" gradientTransform="matrix(0.0106, 0.0, 0.0, 0.0106, -273.85, -167.5)" gradientUnits="userSpaceOnUse" id="gradient13" r="819.2" spreadMethod="pad">
      <stop offset="0.0" stop-color="#8b8b8b"/>
      <stop offset="1.0" stop-color="#8b8b8b"/>
    </radialGradient>
    <radialGradient cx="0" cy="0" gradientTransform="matrix(0.0036, 0.0, 0.0, 0.0036, -284.65, -171.2)" gradientUnits="userSpaceOnUse" id="gradient14" r="819.2" spreadMethod="pad">
      <stop offset="0.0" stop-color="#e2e2e2"/>
      <stop offset="1.0" stop-color="#e0e0e0"/>
    </radialGradient>
    <radialGradient cx="0" cy="0" gradientTransform="matrix(0.0113, 0.0, 0.0, 0.0113, -292.2, -165.85)" gradientUnits="userSpaceOnUse" id="gradient15" r="819.2" spreadMethod="pad">
      <stop offset="0.0" stop-color="#e1e1e1"/>
      <stop offset="1.0" stop-color="#dfdfdf"/>
    </radialGradient>
    <radialGradient cx="0" cy="0" gradientTransform="matrix(0.0395, 0.0, 0.0, 0.0395, -292.2, -165.85)" gradientUnits="userSpaceOnUse" id="gradient16" r="819.2" spreadMethod="pad">
      <stop offset="0.0" stop-color="#767676"/>
      <stop offset="1.0" stop-color="#767676"/>
    </radialGradient>
    <radialGradient cx="0" cy="0" gradientTransform="matrix(0.0036, 0.0, 0.0, 0.0036, -324.4, -162.8)" gradientUnits="userSpaceOnUse" id="gradient17" r="819.2" spreadMethod="pad">
      <stop offset="0.0" stop-color="#838383"/>
      <stop offset="1.0" stop-color="#838383"/>
    </radialGradient>
    <radialGradient cx="0" cy="0" gradientTransform="matrix(0.0418, 0.0, 0.0, 0.0418, -239.8, -171.0)" gradientUnits="userSpaceOnUse" id="gradient18" r="819.2" spreadMethod="pad">
      <stop offset="0.0" stop-color="#767676"/>
      <stop offset="1.0" stop-color="#767676"/>
    </radialGradient>
    <radialGradient cx="0" cy="0" gradientTransform="matrix(0.0393, 0.0, 0.0, 0.0393, -270.0, -124.7)" gradientUnits="userSpaceOnUse" id="gradient19" r="819.2" spreadMethod="pad">
      <stop offset="0.0" stop-color="#ff5151"/>
      <stop offset="1.0" stop-color="#330000"/>
    </radialGradient>
    <radialGradient cx="0" cy="0" gradientTransform="matrix(0.0378, 0.0, 0.0, 0.0378, -269.45, -124.45)" gradientUnits="userSpaceOnUse" id="gradient20" r="819.2" spreadMethod="pad">
      <stop offset="0.0" stop-color="#ff5151"/>
      <stop offset="1.0" stop-color="#ff4c4c"/>
    </radialGradient>
    <radialGradient cx="0" cy="0" gradientTransform="matrix(0.0407, 0.0, 0.0, 0.0407, -269.0, -118.3)" gradientUnits="userSpaceOnUse" id="gradient21" r="819.2" spreadMethod="pad">
      <stop offset="0.0" stop-color="#f89797"/>
      <stop offset="1.0" stop-color="#501818"/>
    </radialGradient>
    <radialGradient cx="0" cy="0" gradientTransform="matrix(0.0301, 0.0, 0.0, 0.0301, -277.35, -114.75)" gradientUnits="userSpaceOnUse" id="gradient22" r="819.2" spreadMethod="pad">
      <stop offset="0.0" stop-color="#ff3030"/>
      <stop offset="1.0" stop-color="#ff2d2d"/>
    </radialGradient>
    <radialGradient cx="0" cy="0" gradientTransform="matrix(0.0177, 0.0, 0.0, 0.0177, -8.95, -74.35)" gradientUnits="userSpaceOnUse" id="gradient23" r="819.2" spreadMethod="pad">
      <stop offset="0.0" stop-color="#040404"/>
      <stop offset="1.0" stop-color="#040404"/>
    </radialGradient>
    <radialGradient cx="0" cy="0" gradientTransform="matrix(0.0104, 0.0, 0.0, 0.0104, -9.15, -75.25)" gradientUnits="userSpaceOnUse" id="gradient24" r="819.2" spreadMethod="pad">
      <stop offset="0.0" stop-color="#262626"/>
      <stop offset="1.0" stop-color="#262626"/>
    </radialGradient>
    <radialGradient cx="0" cy="0" gradientTransform="matrix(0.0226, 0.0, 0.0, 0.0226, -7.75, -78.9)" gradientUnits="userSpaceOnUse" id="gradient25" r="819.2" spreadMethod="pad">
      <stop offset="0.0" stop-color="#171717"/>
      <stop offset="1.0" stop-color="#171717"/>
    </radialGradient>
    <radialGradient cx="0" cy="0" gradientTransform="matrix(0.0101, 0.0, 0.0, 0.0101, -4.5, -60.7)" gradientUnits="userSpaceOnUse" id="gradient26" r="819.2" spreadMethod="pad">
      <stop offset="0.0" stop-color="#171717"/>
      <stop offset="1.0" stop-color="#171717"/>
    </radialGradient>
    <radialGradient cx="0" cy="0" gradientTransform="matrix(0.0177, 0.0, 0.0, 0.0177, -5.5, -60.5)" gradientUnits="userSpaceOnUse" id="gradient27" r="819.2" spreadMethod="pad">
      <stop offset="0.0" stop-color="#020202"/>
      <stop offset="1.0" stop-color="#020202"/>
    </radialGradient>
    <radialGradient cx="0" cy="0" gradientTransform="matrix(0.0048, 0.0, 0.0, 0.0048, -1.0, -70.55)" gradientUnits="userSpaceOnUse" id="gradient28" r="819.2" spreadMethod="pad">
      <stop offset="0.0" stop-color="#020202"/>
      <stop offset="1.0" stop-color="#020202"/>
    </radialGradient>
    <radialGradient cx="0" cy="0" gradientTransform="matrix(0.0081, 0.0, 0.0, 0.0081, -10.6, -70.7)" gradientUnits="userSpaceOnUse" id="gradient29" r="819.2" spreadMethod="pad">
      <stop offset="0.0" stop-color="#171717"/>
      <stop offset="1.0" stop-color="#171717"/>
    </radialGradient>
    <radialGradient cx="0" cy="0" gradientTransform="matrix(0.0206, 0.0, 0.0, 0.0206, -17.4, -70.85)" gradientUnits="userSpaceOnUse" id="gradient30" r="819.2" spreadMethod="pad">
      <stop offset="0.0" stop-color="#2f2f2f"/>
      <stop offset="1.0" stop-color="#1f1f1f"/>
    </radialGradient>
    <radialGradient cx="0" cy="0" gradientTransform="matrix(0.0161, 0.0, 0.0, 0.0161, -4.35, -54.8)" gradientUnits="userSpaceOnUse" id="gradient31" r="819.2" spreadMethod="pad">
      <stop offset="0.0" stop-color="#040404"/>
      <stop offset="1.0" stop-color="#040404"/>
    </radialGradient>
    <radialGradient cx="0" cy="0" gradientTransform="matrix(0.0102, 0.0, 0.0, 0.0102, -10.6, -55.8)" gradientUnits="userSpaceOnUse" id="gradient32" r="819.2" spreadMethod="pad">
      <stop offset="0.0" stop-color="#202020"/>
      <stop offset="1.0" stop-color="#202020"/>
    </radialGradient>
    <radialGradient cx="0" cy="0" gradientTransform="matrix(0.0111, 0.0, 0.0, 0.0111, -10.25, -52.7)" gradientUnits="userSpaceOnUse" id="gradient33" r="819.2" spreadMethod="pad">
      <stop offset="0.0" stop-color="#060606"/>
      <stop offset="1.0" stop-color="#020202"/>
    </radialGradient>
    <radialGradient cx="0" cy="0" gradientTransform="matrix(0.0099, 0.0, 0.0, 0.0099, -4.05, -60.9)" gradientUnits="userSpaceOnUse" id="gradient34" r="819.2" spreadMethod="pad">
      <stop offset="0.0" stop-color="#040404"/>
      <stop offset="1.0" stop-color="#040404"/>
    </radialGradient>
    <radialGradient cx="0" cy="0" gradientTransform="matrix(0.0153, 0.0, 0.0, 0.0153, -4.6, -55.1)" gradientUnits="userSpaceOnUse" id="gradient35" r="819.2" spreadMethod="pad">
      <stop offset="0.0" stop-color="#030303"/>
      <stop offset="1.0" stop-color="#030303"/>
    </radialGradient>
    <radialGradient cx="0" cy="0" gradientTransform="matrix(0.0218, 0.0, 0.0, 0.0218, -17.85, -43.1)" gradientUnits="userSpaceOnUse" id="gradient36" r="819.2" spreadMethod="pad">
      <stop offset="0.0" stop-color="#030303"/>
      <stop offset="1.0" stop-color="#030303"/>
    </radialGradient>
    <radialGradient cx="0" cy="0" gradientTransform="matrix(0.0214, 0.0, 0.0, 0.0214, -18.3, -43.0)" gradientUnits="userSpaceOnUse" id="gradient37" r="819.2" spreadMethod="pad">
      <stop offset="0.0" stop-color="#040404"/>
      <stop offset="1.0" stop-color="#040404"/>
    </radialGradient>
    <radialGradient cx="0" cy="0" gradientTransform="matrix(0.0117, 0.0, 0.0, 0.0117, -7.2, -47.4)" gradientUnits="userSpaceOnUse" id="gradient38" r="819.2" spreadMethod="pad">
      <stop offset="0.0" stop-color="#040404"/>
      <stop offset="1.0" stop-color="#040404"/>
    </radialGradient>
    <radialGradient cx="0" cy="0" gradientTransform="matrix(0.0233, 0.0, 0.0, 0.0233, -264.8, -63.35)" gradientUnits="userSpaceOnUse" id="gradient39" r="819.2" spreadMethod="pad">
      <stop offset="0.0" stop-color="#797979"/>
      <stop offset="1.0" stop-color="#000000"/>
    </radialGradient>
    <radialGradient cx="0" cy="0" gradientTransform="matrix(0.0532, 0.0, 0.0, 0.0532, -249.25, -43.85)" gradientUnits="userSpaceOnUse" id="gradient40" r="819.2" spreadMethod="pad">
      <stop offset="0.0" stop-color="#101010"/>
      <stop offset="1.0" stop-color="#000000"/>
    </radialGradient>
    <radialGradient cx="0" cy="0" gradientTransform="matrix(0.009, 0.0, 0.0, 0.009, -18.8, -44.25)" gradientUnits="userSpaceOnUse" id="gradient41" r="819.2" spreadMethod="pad">
      <stop offset="0.0" stop-color="#262626"/>
      <stop offset="1.0" stop-color="#262626"/>
    </radialGradient>
    <radialGradient cx="0" cy="0" gradientTransform="matrix(0.0447, 0.0, 0.0, 0.0447, -233.4, -13.45)" gradientUnits="userSpaceOnUse" id="gradient42" r="819.2" spreadMethod="pad">
      <stop offset="0.0" stop-color="#000000"/>
      <stop offset="1.0" stop-color="#000000"/>
    </radialGradient>
    <radialGradient cx="0" cy="0" gradientTransform="matrix(0.0567, 0.0, 0.0, 0.0567, -254.75, -15.9)" gradientUnits="userSpaceOnUse" id="gradient43" r="819.2" spreadMethod="pad">
      <stop offset="0.0" stop-color="#000000"/>
      <stop offset="1.0" stop-color="#000000"/>
    </radialGradient>
    <radialGradient cx="0" cy="0" gradientTransform="matrix(0.0673, 0.0, 0.0, 0.0673, -309.65, -12.2)" gradientUnits="userSpaceOnUse" id="gradient44" r="819.2" spreadMethod="pad">
      <stop offset="0.0" stop-color="#000000"/>
      <stop offset="1.0" stop-color="#000000"/>
    </radialGradient>
    <radialGradient cx="0" cy="0" gradientTransform="matrix(0.0724, 0.0, 0.0, 0.0724, -346.2, -1.0)" gradientUnits="userSpaceOnUse" id="gradient45" r="819.2" spreadMethod="pad">
      <stop offset="0.0" stop-color="#060606"/>
      <stop offset="1.0" stop-color="#000000"/>
    </radialGradient>
    <radialGradient cx="0" cy="0" gradientTransform="matrix(0.0818, 0.0, 0.0, 0.0818, -200.75, -1.0)" gradientUnits="userSpaceOnUse" id="gradient46" r="819.2" spreadMethod="pad">
      <stop offset="0.0" stop-color="#444444"/>
      <stop offset="1.0" stop-color="#000000"/>
    </radialGradient>
    <radialGradient cx="0" cy="0" gradientTransform="matrix(0.0627, 0.0, 0.0, 0.0627, -303.85, -42.55)" gradientUnits="userSpaceOnUse" id="gradient47" r="819.2" spreadMethod="pad">
      <stop offset="0.0" stop-color="#000000"/>
      <stop offset="1.0" stop-color="#000000"/>
    </radialGradient>
    <radialGradient cx="0" cy="0" gradientTransform="matrix(0.0405, 0.0, 0.0, 0.0405, -343.9, -47.15)" gradientUnits="userSpaceOnUse" id="gradient48" r="819.2" spreadMethod="pad">
      <stop offset="0.0" stop-color="#0d0d0d"/>
      <stop offset="1.0" stop-color="#080808"/>
    </radialGradient>
    <radialGradient cx="0" cy="0" gradientTransform="matrix(0.0341, 0.0, 0.0, 0.0341, -346.2, -1.0)" gradientUnits="userSpaceOnUse" id="gradient49" r="819.2" spreadMethod="pad">
      <stop offset="0.0" stop-color="#060606"/>
      <stop offset="1.0" stop-color="#000000"/>
    </radialGradient>
    <radialGradient cx="0" cy="0" gradientTransform="matrix(0.0742, 0.0, 0.0, 0.0742, -177.55, -1.0)" gradientUnits="userSpaceOnUse" id="gradient50" r="819.2" spreadMethod="pad">
      <stop offset="0.0" stop-color="#454545"/>
      <stop offset="1.0" stop-color="#000000"/>
    </radialGradient>
    <radialGradient cx="0" cy="0" gradientTransform="matrix(0.032, 0.0, 0.0, 0.032, -357.6, -19.85)" gradientUnits="userSpaceOnUse" id="gradient51" r="819.2" spreadMethod="pad">
      <stop offset="0.0" stop-color="#000000"/>
      <stop offset="1.0" stop-color="#000000"/>
    </radialGradient>
    <radialGradient cx="0" cy="0" gradientTransform="matrix(0.0387, 0.0, 0.0, 0.0387, -351.95, -16.0)" gradientUnits="userSpaceOnUse" id="gradient52" r="819.2" spreadMethod="pad">
      <stop offset="0.0" stop-color="#0d0d0d"/>
      <stop offset="1.0" stop-color="#000000"/>
    </radialGradient>
    <radialGradient cx="0" cy="0" gradientTransform="matrix(0.031, 0.0, 0.0, 0.031, -374.6, -1.0)" gradientUnits="userSpaceOnUse" id="gradient53" r="819.2" spreadMethod="pad">
      <stop offset="0.0" stop-color="#010101"/>
      <stop offset="1.0" stop-color="#000000"/>
    </radialGradient>
    <radialGradient cx="0" cy="0" gradientTransform="matrix(0.045, 0.0, 0.0, 0.045, -13.4, -15.3)" gradientUnits="userSpaceOnUse" id="gradient54" r="819.2" spreadMethod="pad">
      <stop offset="0.0" stop-color="#000000"/>
      <stop offset="1.0" stop-color="#000000"/>
    </radialGradient>
    <radialGradient cx="0" cy="0" gradientTransform="matrix(0.0402, 0.0, 0.0, 0.0402, -1.0, -1.0)" gradientUnits="userSpaceOnUse" id="gradient55" r="819.2" spreadMethod="pad">
      <stop offset="0.0" stop-color="#000000"/>
      <stop offset="1.0" stop-color="#000000"/>
    </radialGradient>
    <radialGradient cx="0" cy="0" gradientTransform="matrix(0.0028, 0.0, 0.0, 0.0028, -33.9, -2.15)" gradientUnits="userSpaceOnUse" id="gradient56" r="819.2" spreadMethod="pad">
      <stop offset="0.0" stop-color="#000000"/>
      <stop offset="1.0" stop-color="#000000"/>
    </radialGradient>
  </defs>
</svg>
