<?xml version="1.0" encoding="UTF-8" standalone="no"?>
<svg xmlns:xlink="http://www.w3.org/1999/xlink" height="252.25px" width="399.1px" xmlns="http://www.w3.org/2000/svg">
  <g transform="matrix(1.0, 0.0, 0.0, 1.0, 400.0, 253.15)">
    <path d="M-317.5 -102.5 L-317.75 -102.75 -319.65 -105.0 -318.25 -108.15 -326.65 -121.4 -325.9 -121.25 -323.65 -119.4 -319.0 -116.5 -325.4 -129.9 -325.15 -144.25 -329.0 -154.65 -329.4 -154.9 -327.4 -173.0 -321.0 -188.65 -314.75 -207.75 -314.4 -207.9 -305.75 -192.25 -313.5 -170.65 -313.75 -170.25 -314.65 -167.25 -315.4 -156.15 -310.75 -134.65 Q-310.4 -122.75 -296.25 -107.15 L-289.65 -99.5 -284.0 -93.9 -281.25 -92.4 -298.15 -83.9 -307.9 -92.9 -309.25 -93.75 -314.4 -99.65 -317.5 -102.5 M-276.9 -244.65 L-250.65 -251.65 -248.9 -251.75 -238.5 -251.4 -238.4 -251.0 -242.15 -235.0 -250.4 -234.9 -263.4 -230.25 -267.65 -229.9 -291.25 -226.15 -293.9 -224.65 -297.25 -209.25 -296.65 -207.5 -301.75 -201.4 -300.65 -218.65 -287.65 -232.25 -276.9 -244.65 M-220.15 -237.15 L-233.65 -235.0 -239.75 -235.0 -230.0 -241.75 -218.65 -248.65 -218.25 -248.65 -220.15 -237.15 M-159.0 -147.0 L-157.65 -145.9 -159.15 -144.9 -159.0 -147.0 M-164.4 -123.75 L-166.4 -113.25 -172.0 -100.0 -174.15 -93.15 -179.4 -95.0 -185.65 -96.4 -181.25 -99.65 -180.15 -101.0 -164.4 -123.75" fill="url(#gradient0)" fill-rule="evenodd" stroke="none"/>
    <path d="M-248.9 -251.75 L-231.5 -253.15 -213.25 -250.75 -195.5 -244.75 -178.9 -235.0 -164.65 -222.15 -153.65 -207.4 -144.5 -187.75 -140.65 -171.5 -139.65 -151.65 -142.5 -132.65 -149.0 -114.65 -159.0 -98.25 -166.5 -90.25 -174.15 -93.15 -172.0 -100.0 -166.4 -113.25 -164.4 -123.75 -162.5 -132.0 -171.4 -136.75 -159.15 -144.9 -157.65 -145.9 -159.0 -147.0 -166.5 -155.5 -166.9 -155.4 -171.15 -137.25 -171.5 -137.15 -176.5 -166.65 -212.4 -219.0 -213.9 -221.4 -220.9 -231.65 -220.15 -237.15 -218.25 -248.65 -218.65 -248.65 -230.0 -241.75 -239.75 -235.0 -241.9 -233.65 -242.4 -233.5 -242.15 -235.0 -238.4 -251.0 -238.5 -251.4 -248.9 -251.75" fill="url(#gradient1)" fill-rule="evenodd" stroke="none"/>
    <path d="M-166.5 -90.25 L-157.5 -86.75 -174.0 -85.5 -179.4 -95.0 -174.15 -93.15 -166.5 -90.25" fill="url(#gradient2)" fill-rule="evenodd" stroke="none"/>
    <path d="M-233.65 -235.0 L-241.9 -233.65 -239.75 -235.0 -233.65 -235.0 M-242.4 -233.5 L-249.65 -232.15 -254.5 -228.65 -260.4 -230.4 -263.4 -230.25 -250.4 -234.9 -242.15 -235.0 -242.4 -233.5 M-212.4 -219.0 L-176.5 -166.65 -171.5 -137.15 -171.15 -137.25 -166.9 -155.4 -166.5 -155.5 -159.0 -147.0 -159.15 -144.9 -171.4 -136.75 -162.5 -132.0 -164.4 -123.75 -180.15 -101.0 -181.25 -99.65 -185.65 -96.4 -217.25 -102.5 -220.9 -103.4 -231.75 -111.25 -266.0 -107.15 -270.75 -98.0 -271.65 -97.5 -274.0 -95.9 -274.15 -95.9 -274.4 -95.75 -281.15 -92.4 -281.25 -92.4 -284.0 -93.9 -289.65 -99.5 -296.25 -107.15 Q-310.4 -122.75 -310.75 -134.65 L-315.4 -156.15 -314.65 -167.25 -313.75 -170.25 -313.5 -170.65 -305.75 -192.25 -303.5 -188.25 -302.9 -187.75 -301.75 -201.4 -296.65 -207.5 -296.5 -207.5 -296.15 -206.65 -293.75 -206.0 -292.9 -205.9 -263.4 -210.5 -256.25 -215.65 -254.9 -216.4 -253.75 -216.0 -246.25 -213.25 -213.9 -218.25 -212.4 -219.0 M-254.15 -178.5 L-255.9 -177.65 -259.65 -178.0 -263.4 -177.0 -271.75 -171.25 -271.4 -171.15 -237.5 -176.4 -247.25 -179.5 -250.4 -179.5 -254.15 -178.5 M-271.65 -169.5 L-272.25 -169.15 Q-265.9 -164.65 -254.65 -164.75 L-250.5 -165.9 -241.4 -170.25 -239.0 -172.0 -236.75 -174.5 -271.65 -169.5" fill="url(#gradient3)" fill-rule="evenodd" stroke="none"/>
    <path d="M-214.75 -221.0 L-213.9 -221.4 -212.4 -219.0 -213.9 -218.25 -214.75 -221.0" fill="url(#gradient4)" fill-rule="evenodd" stroke="none"/>
    <path d="M-220.15 -237.15 L-220.9 -231.65 -213.9 -221.4 -214.75 -221.0 -247.0 -215.9 -254.4 -218.5 -255.75 -219.0 -256.25 -219.0 -257.25 -218.15 -264.25 -213.15 -294.75 -208.5 -297.25 -209.25 -293.9 -224.65 -291.25 -226.15 -267.65 -229.9 -263.4 -230.25 -260.4 -230.4 -254.5 -228.65 -249.65 -232.15 -242.4 -233.5 -241.9 -233.65 -233.65 -235.0 -220.15 -237.15" fill="url(#gradient5)" fill-rule="evenodd" stroke="none"/>
    <path d="M-247.0 -215.9 L-214.75 -221.0 -213.9 -218.25 -246.25 -213.25 -247.0 -215.9" fill="url(#gradient6)" fill-rule="evenodd" stroke="none"/>
    <path d="M-254.4 -218.5 L-247.0 -215.9 -246.25 -213.25 -253.75 -216.0 -254.4 -218.5" fill="url(#gradient7)" fill-rule="evenodd" stroke="none"/>
    <path d="M-255.75 -219.0 L-254.4 -218.5 -253.75 -216.0 -254.9 -216.4 -255.75 -219.0" fill="url(#gradient8)" fill-rule="evenodd" stroke="none"/>
    <path d="M-257.25 -218.15 L-256.25 -219.0 -255.75 -219.0 -254.9 -216.4 -256.25 -215.65 -257.25 -218.15" fill="url(#gradient9)" fill-rule="evenodd" stroke="none"/>
    <path d="M-264.25 -213.15 L-257.25 -218.15 -256.25 -215.65 -263.4 -210.5 -264.25 -213.15" fill="url(#gradient10)" fill-rule="evenodd" stroke="none"/>
    <path d="M-294.75 -208.5 L-264.25 -213.15 -263.4 -210.5 -292.9 -205.9 -293.75 -206.0 -294.75 -208.5" fill="url(#gradient11)" fill-rule="evenodd" stroke="none"/>
    <path d="M-297.25 -209.25 L-294.75 -208.5 -293.75 -206.0 -296.15 -206.65 -296.5 -207.5 -296.65 -207.5 -297.25 -209.25" fill="url(#gradient12)" fill-rule="evenodd" stroke="none"/>
    <path d="M-319.65 -105.0 Q-342.4 -141.75 -331.25 -183.15 L-319.15 -209.5 -308.65 -223.25 -294.25 -235.5 -276.9 -244.65 -287.65 -232.25 -300.65 -218.65 -301.75 -201.4 -302.9 -187.75 -303.5 -188.25 -305.75 -192.25 -314.4 -207.9 -314.75 -207.75 -321.0 -188.65 -327.4 -173.0 -329.4 -154.9 -329.0 -154.65 -325.15 -144.25 -325.4 -129.9 -319.0 -116.5 -323.65 -119.4 -325.9 -121.25 -326.65 -121.4 -318.25 -108.15 -319.65 -105.0" fill="url(#gradient13)" fill-rule="evenodd" stroke="none"/>
    <path d="M-303.5 -81.15 L-300.25 -82.75 -298.15 -83.9 -281.25 -92.4 -281.15 -92.4 -274.4 -95.75 -274.5 -95.5 -274.65 -94.75 -296.5 -78.5 -305.9 -76.25 -303.5 -81.15" fill="url(#gradient14)" fill-rule="evenodd" stroke="none"/>
    <path d="M-274.4 -95.75 L-274.15 -95.9 -274.5 -95.5 -274.4 -95.75" fill="url(#gradient15)" fill-rule="evenodd" stroke="none"/>
    <path d="M-217.25 -102.5 L-216.4 -102.15 -217.9 -102.15 -218.25 -101.5 -219.4 -101.75 -220.9 -103.4 -217.25 -102.5 M-274.15 -95.9 L-274.0 -95.9 -271.65 -97.5 -270.75 -98.0 -270.65 -97.65 -271.65 -95.9 -273.5 -94.9 -274.65 -94.75 -274.5 -95.5 -274.15 -95.9" fill="url(#gradient16)" fill-rule="evenodd" stroke="none"/>
    <path d="M-228.65 -0.9 L-232.9 -0.9 -237.65 -2.15 -238.9 -2.15 -251.4 -0.9 -300.4 -0.9 -300.4 -2.0 Q-296.65 -4.25 -293.9 -10.5 L-289.25 -14.5 -283.4 -24.25 -282.5 -29.5 -281.15 -34.25 -274.25 -44.4 -271.75 -52.65 -272.4 -59.75 -272.15 -61.4 -268.0 -66.15 Q-265.0 -77.0 -288.5 -78.5 L-273.5 -94.9 -271.65 -95.9 -270.65 -97.65 -270.75 -98.0 -266.0 -107.15 -231.75 -111.25 -220.9 -103.4 -219.4 -101.75 -202.5 -78.25 -201.5 -75.25 -208.9 -79.5 -211.4 -80.4 -222.5 -83.15 -234.15 -83.15 -248.4 -79.5 -262.25 -70.4 -265.5 -65.75 -265.4 -61.9 Q-267.0 -61.4 -269.4 -51.5 L-269.15 -45.65 -268.4 -41.75 -265.25 -35.5 Q-266.4 -34.15 -262.65 -23.4 L-256.15 -14.75 -251.65 -11.65 -238.4 -8.75 -228.65 -0.9" fill="url(#gradient17)" fill-rule="evenodd" stroke="none"/>
    <path d="M-176.9 -27.25 L-176.25 -0.9 -195.4 -0.9 -194.0 -1.65 -187.4 -9.25 -186.65 -11.0 -183.0 -12.9 -180.25 -17.9 -179.25 -27.0 -179.25 -33.25 -178.9 -33.65 -179.15 -33.9 -178.9 -37.75 -179.75 -45.15 -177.0 -37.0 -176.9 -27.25 M-218.25 -101.5 L-181.75 -73.9 -180.25 -47.15 -182.9 -53.9 -193.4 -68.9 -198.75 -73.65 -201.5 -75.25 -202.5 -78.25 -219.4 -101.75 -218.25 -101.5" fill="url(#gradient18)" fill-rule="evenodd" stroke="none"/>
    <path d="M-195.4 -0.9 L-228.65 -0.9 -238.4 -8.75 -251.65 -11.65 -256.15 -14.75 -262.65 -23.4 Q-266.4 -34.15 -265.25 -35.5 L-268.4 -41.75 -269.15 -45.65 -269.4 -51.5 Q-267.0 -61.4 -265.4 -61.9 L-265.5 -65.75 -262.25 -70.4 -248.4 -79.5 -234.15 -83.15 -222.5 -83.15 -211.4 -80.4 -208.9 -79.5 -201.5 -75.25 -198.75 -73.65 -193.4 -68.9 -182.9 -53.9 -180.25 -47.15 -180.25 -46.75 -180.25 -46.65 -179.75 -45.15 -178.9 -37.75 -179.15 -33.9 -178.9 -33.65 -179.25 -33.25 -179.25 -27.0 -180.25 -17.9 -183.0 -12.9 -186.65 -11.0 -187.4 -9.25 -194.0 -1.65 -195.4 -0.9" fill="url(#gradient19)" fill-rule="evenodd" stroke="none"/>
    <path d="M-161.15 -32.4 L-176.9 -27.25 -177.0 -37.0 -179.75 -45.15 -180.25 -46.65 -180.25 -46.75 -169.75 -60.15 -161.15 -32.4" fill="url(#gradient20)" fill-rule="evenodd" stroke="none"/>
    <path d="M-160.4 -32.25 L-160.5 -32.25 -160.75 -32.4 -161.15 -32.4 -169.75 -60.15 -169.75 -61.75 -174.0 -85.5 -157.5 -86.75 -123.15 -77.5 -96.25 -72.0 -56.0 -61.9 -68.5 -41.15 -80.15 -14.15 -97.0 -14.65 -114.75 -19.25 -137.25 -27.65 -160.4 -32.25" fill="url(#gradient21)" fill-rule="evenodd" stroke="none"/>
    <path d="M-218.25 -101.5 L-217.9 -102.15 -216.4 -102.15 -217.25 -102.5 -185.65 -96.4 -179.4 -95.0 -174.0 -85.5 -169.75 -61.75 -169.75 -60.15 -180.25 -46.75 -180.25 -47.15 -181.75 -73.9 -218.25 -101.5" fill="url(#gradient22)" fill-rule="evenodd" stroke="none"/>
    <path d="M-254.15 -178.5 L-250.4 -179.5 -247.25 -179.5 -237.5 -176.4 -271.4 -171.15 -271.75 -171.25 -263.4 -177.0 -259.65 -178.0 -255.9 -177.65 -254.15 -178.5 M-247.5 -179.15 L-251.4 -179.0 -255.75 -177.4 Q-260.5 -178.4 -263.75 -176.5 L-270.15 -171.9 -239.65 -176.65 -247.5 -179.15" fill="url(#gradient23)" fill-rule="evenodd" stroke="none"/>
    <path d="M-247.5 -179.15 L-239.65 -176.65 -270.15 -171.9 -263.75 -176.5 Q-260.5 -178.4 -255.75 -177.4 L-251.4 -179.0 -247.5 -179.15" fill="url(#gradient24)" fill-rule="evenodd" stroke="none"/>
    <path d="M-271.65 -169.5 L-236.75 -174.5 -239.0 -172.0 -241.4 -170.25 -250.5 -165.9 -254.65 -164.75 Q-265.9 -164.65 -272.25 -169.15 L-271.65 -169.5 M-254.5 -165.4 Q-238.65 -170.9 -238.25 -174.15 L-271.75 -169.25 Q-265.9 -165.25 -254.5 -165.4" fill="url(#gradient25)" fill-rule="evenodd" stroke="none"/>
    <path d="M-254.5 -165.4 Q-265.9 -165.25 -271.75 -169.25 L-238.25 -174.15 Q-238.65 -170.9 -254.5 -165.4" fill="url(#gradient26)" fill-rule="evenodd" stroke="none"/>
    <path d="M-300.25 -82.75 L-307.0 -90.5 -309.75 -93.15 -317.5 -102.5 -314.4 -99.65 -309.25 -93.75 -307.9 -92.9 -298.15 -83.9 -300.25 -82.75" fill="url(#gradient27)" fill-rule="evenodd" stroke="none"/>
    <path d="M-273.5 -94.9 L-288.5 -78.5 -296.5 -78.5 -274.65 -94.75 -273.5 -94.9" fill="url(#gradient28)" fill-rule="evenodd" stroke="none"/>
    <path d="M-300.4 -0.9 L-336.25 -1.0 -338.75 -7.5 -342.25 -16.75 -343.4 -25.4 -342.5 -34.15 -338.0 -47.0 -337.75 -47.4 Q-332.25 -61.75 -324.25 -66.15 L-324.0 -66.5 -311.9 -74.4 -305.9 -76.25 -296.5 -78.5 -288.5 -78.5 Q-265.0 -77.0 -268.0 -66.15 L-272.15 -61.4 -272.4 -59.75 -271.75 -52.65 -274.25 -44.4 -281.15 -34.25 -282.5 -29.5 -283.4 -24.25 -289.25 -14.5 -293.9 -10.5 Q-296.65 -4.25 -300.4 -2.0 L-300.4 -0.9" fill="url(#gradient29)" fill-rule="evenodd" stroke="none"/>
    <path d="M-321.75 -72.9 L-321.65 -73.25 -303.5 -81.15 -305.9 -76.25 -311.9 -74.4 -324.0 -66.5 -321.75 -72.9" fill="url(#gradient30)" fill-rule="evenodd" stroke="none"/>
    <path d="M-349.0 -0.9 L-400.0 -0.9 -400.0 -14.4 -340.25 -53.75 -338.15 -56.0 -337.75 -56.4 -321.75 -72.9 -324.0 -66.5 -324.25 -66.15 Q-332.25 -61.75 -337.75 -47.4 L-338.0 -47.0 -342.5 -34.15 -343.4 -25.4 -342.25 -16.75 -338.75 -7.5 -349.0 -0.9" fill="url(#gradient31)" fill-rule="evenodd" stroke="none"/>
    <path d="M-338.0 -56.25 L-337.75 -56.4 -338.15 -56.0 -338.0 -56.25" fill="url(#gradient32)" fill-rule="evenodd" stroke="none"/>
    <path d="M-400.0 -14.4 L-400.0 -15.5 -390.25 -21.9 -369.75 -36.5 -341.65 -54.4 -338.0 -56.25 -338.15 -56.0 -340.25 -53.75 -400.0 -14.4" fill="url(#gradient33)" fill-rule="evenodd" stroke="none"/>
    <path d="M-34.65 -62.75 L-1.9 -83.9 -0.9 -84.25 -0.9 -79.0 -8.4 -74.25 -28.25 -63.0 -34.65 -62.75" fill="url(#gradient34)" fill-rule="evenodd" stroke="none"/>
    <path d="M-8.4 -74.25 L-0.9 -79.0 -0.9 -69.15 -8.4 -74.25" fill="url(#gradient35)" fill-rule="evenodd" stroke="none"/>
    <path d="M-34.65 -62.75 L-28.25 -63.0 -0.9 -60.15 -0.9 -49.5 -3.65 -47.9 -3.5 -47.4 -10.9 -23.0 -19.65 -16.5 -19.75 -16.5 -21.5 -15.25 -21.75 -15.0 -22.0 -14.9 -22.4 -14.65 -22.65 -14.4 -23.25 -14.0 -23.5 -13.75 -23.9 -13.5 -24.15 -13.4 -24.4 -13.15 -25.0 -12.75 -25.25 -12.5 -25.65 -12.25 -28.75 -10.0 -30.15 -10.0 -58.75 -12.4 -76.65 -13.75 -77.0 -13.75 -77.75 -13.9 -78.5 -13.9 -78.9 -14.0 -80.15 -14.15 -68.5 -41.15 -56.0 -61.9 -34.65 -62.75" fill="url(#gradient36)" fill-rule="evenodd" stroke="none"/>
    <path d="M-28.25 -63.0 L-8.4 -74.25 -0.9 -69.15 -0.9 -60.15 -28.25 -63.0" fill="url(#gradient37)" fill-rule="evenodd" stroke="none"/>
    <path d="M-336.25 -1.0 L-349.0 -0.9 -338.75 -7.5 -336.25 -1.0" fill="url(#gradient38)" fill-rule="evenodd" stroke="none"/>
    <path d="M-0.9 -49.5 L-1.0 -29.75 -10.9 -23.0 -3.5 -47.4 -3.65 -47.9 -0.9 -49.5" fill="url(#gradient39)" fill-rule="evenodd" stroke="none"/>
    <path d="M-1.0 -29.75 L-19.65 -16.5 -10.9 -23.0 -1.0 -29.75" fill="url(#gradient40)" fill-rule="evenodd" stroke="none"/>
    <path d="M-60.25 -11.9 L-101.75 -8.25 -127.0 -20.15 -160.4 -32.25 -137.25 -27.65 -114.75 -19.25 -97.0 -14.65 -80.15 -14.15 -78.9 -14.0 -78.5 -13.9 -77.75 -13.9 -77.0 -13.75 -76.65 -13.75 -60.25 -11.9" fill="url(#gradient41)" fill-rule="evenodd" stroke="none"/>
    <path d="M-58.75 -12.4 L-60.25 -11.9 -76.65 -13.75 -58.75 -12.4" fill="url(#gradient42)" fill-rule="evenodd" stroke="none"/>
    <path d="M-232.9 -0.9 L-251.4 -0.9 -238.9 -2.15 -237.65 -2.15 -232.9 -0.9" fill="url(#gradient43)" fill-rule="evenodd" stroke="none"/>
    <path d="M-226.5 -72.15 L-223.75 -82.0 -223.9 -82.25 -223.65 -82.65 -223.5 -83.15 -223.15 -84.9 -217.0 -94.65 -216.65 -97.65 -216.75 -98.25 -216.4 -101.65 -216.4 -102.25 -218.25 -102.75 -221.25 -112.5 -221.0 -113.0 -215.65 -111.75 -215.75 -109.65 -216.0 -109.25 -215.9 -107.5 -216.25 -103.0 -216.4 -102.25 -210.5 -101.25 -210.4 -102.4 -210.5 -102.75 -210.4 -103.0 -210.4 -108.0 -210.5 -108.65 -210.5 -113.65 -210.4 -114.0 -210.5 -114.4 -210.0 -114.15 -207.4 -113.15 -207.65 -104.4 -207.5 -104.0 -207.9 -103.9 -207.5 -103.9 -207.5 -101.25 -207.65 -100.65 -207.65 -96.0 -212.4 -87.4 -209.5 -86.15 -208.9 -85.5 -207.4 -85.0 -207.0 -84.65 -189.15 -75.4 -188.4 -75.15 -183.5 -72.5 -226.5 -72.15 M-280.25 -107.0 L-279.9 -107.0 -272.0 -99.0 -271.75 -98.5 -271.0 -97.9 -271.65 -97.65 -271.65 -97.5 -274.0 -95.9 -274.15 -95.75 -274.4 -95.75 -276.5 -94.75 -280.5 -99.0 -285.0 -103.0 -285.25 -103.65 -286.15 -104.25 -285.4 -104.5 -280.25 -107.0" fill="#9b0000" fill-opacity="0.9098039" fill-rule="evenodd" stroke="none"/>
    <path d="M-183.5 -72.5 L-183.4 -72.0 -183.25 -54.25 -183.0 -53.75 -183.15 -50.75 -183.0 -50.15 -183.0 -46.15 -183.25 -44.75 -183.5 -44.25 -183.5 -43.4 -184.75 -36.5 -185.0 -36.15 -184.9 -35.75 -186.0 -29.65 -186.15 -29.25 -186.15 -28.9 -186.65 -26.15 -186.9 -25.9 -186.75 -25.5 -187.65 -20.65 -187.9 -20.0 -187.9 -19.25 -188.75 -14.4 -189.0 -13.75 -188.9 -13.4 -189.15 -12.4 -189.25 -11.65 -189.4 -11.4 -189.4 -11.0 -189.75 -8.9 -189.9 -8.65 -190.0 -8.15 -190.15 -8.0 -190.25 -6.25 -190.4 -5.75 -190.9 -5.25 -210.9 -7.5 -211.4 -7.5 -236.5 -10.25 -236.9 -10.0 -238.65 -10.0 -242.0 -9.65 -242.4 -9.65 -282.5 -5.0 -305.4 -3.9 -306.4 -3.75 -306.75 -3.5 -307.0 -3.4 -307.4 -3.0 -308.25 -2.4 -308.75 -2.25 -308.9 -1.9 -309.25 -1.65 -309.4 -1.5 -309.9 -1.15 -310.15 -1.15 -310.25 -0.9 -336.4 -0.9 -336.75 -2.5 -338.5 -6.75 -338.5 -6.9 -338.75 -7.5 -338.75 -7.65 -338.9 -7.9 -339.15 -9.0 -342.25 -17.15 -342.25 -17.65 -343.25 -26.25 -343.0 -27.5 -343.15 -28.15 -342.65 -33.4 -341.65 -36.9 -341.5 -37.0 -341.4 -37.4 -341.25 -37.75 -340.0 -41.5 -340.0 -42.15 -340.65 -44.65 -340.5 -45.0 -341.65 -51.75 -341.65 -52.15 -341.9 -52.75 -341.75 -53.0 -342.0 -54.0 -341.65 -54.25 -339.5 -55.4 -338.75 -55.4 -335.5 -55.15 -334.9 -55.15 -334.25 -55.0 -319.75 -54.0 -310.4 -47.65 -310.25 -47.4 -310.25 -47.25 -309.9 -47.25 -275.4 -23.5 -262.15 -32.9 -261.75 -33.4 -254.9 -38.25 -254.4 -38.5 -242.4 -47.15 -242.25 -47.4 -233.5 -53.5 -232.65 -55.9 -232.4 -56.15 -226.5 -72.15 -183.5 -72.5 M-325.65 -22.4 L-325.5 -22.25 -324.9 -22.75 -326.4 -27.9 -325.65 -22.75 -325.65 -22.4 M-223.25 -40.5 L-222.65 -39.15 -222.65 -38.0 -222.4 -38.0 -221.9 -38.75 -221.75 -38.9 -221.0 -40.0 -220.9 -40.5 -221.0 -40.9 -221.25 -41.4 -222.25 -42.25 -222.5 -42.0 -222.65 -41.9 -222.9 -41.65 -223.15 -41.25 -223.25 -41.15 -223.15 -40.65 -223.25 -40.5" fill="#b80000" fill-opacity="0.9098039" fill-rule="evenodd" stroke="none"/>
    <path d="M-221.0 -113.0 L-210.5 -114.4 -210.4 -114.0 -210.5 -113.65 -210.5 -108.65 -210.4 -108.0 -210.4 -103.0 -210.5 -102.75 -210.4 -102.4 -210.5 -101.25 -216.4 -102.25 -216.25 -103.0 -215.9 -107.5 -216.0 -109.25 -215.75 -109.65 -215.65 -111.75 -221.0 -113.0" fill="#a90000" fill-rule="evenodd" stroke="none"/>
    <path d="M-287.65 -105.9 L-280.25 -107.0 -285.4 -104.5 -286.15 -104.25 -287.65 -105.9" fill="#ac0000" fill-rule="evenodd" stroke="none"/>
    <path d="M-321.65 -73.25 L-321.5 -73.4 -300.25 -82.75 -302.4 -85.15 -301.75 -85.5 -300.9 -87.15 -300.9 -88.0 -299.9 -90.0 -297.0 -97.65 -297.0 -98.0 -296.5 -99.0 -295.0 -102.9 Q-294.1 -103.25 -293.25 -103.65 L-293.0 -103.65 -292.65 -103.75 -292.0 -104.15 -291.15 -104.4 -288.0 -105.65 -287.65 -105.9 -286.15 -104.25 Q-286.5 -104.05 -286.9 -103.9 L-287.65 -102.25 -288.75 -99.15 -288.75 -99.0 -288.9 -98.65 -292.65 -88.0 -292.65 -87.15 -295.75 -85.15 -295.75 -85.0 -296.0 -85.0 -296.4 -84.75 -296.65 -84.65 -296.75 -84.5 -298.15 -83.9 -298.4 -83.65 -298.5 -83.65 -303.75 -80.4 -304.15 -79.9 -310.25 -76.15 -311.25 -73.65 -311.5 -73.4 -311.5 -73.0 -311.65 -72.9 -312.5 -70.75 -312.65 -70.5 -316.0 -62.4 -316.25 -62.25 -317.9 -58.0 -318.15 -57.65 -319.75 -54.0 -334.25 -55.0 -334.9 -55.15 -335.5 -55.15 -338.75 -55.4 -339.5 -55.4 -337.75 -56.4 -321.75 -72.9 -321.65 -73.25" fill="#9e0000" fill-opacity="0.9098039" fill-rule="evenodd" stroke="none"/>
    <path d="M-342.15 -55.65 L-321.65 -73.25 -321.75 -72.9 -337.75 -56.4 -339.5 -55.4 -342.15 -55.65 M-321.5 -73.4 L-320.15 -74.75 -302.4 -85.15 -300.25 -82.75 -321.5 -73.4" fill="#ae0000" fill-opacity="0.9098039" fill-rule="evenodd" stroke="none"/>
    <path d="M-183.4 -72.0 L-181.5 -68.5 -181.15 -67.15 -173.0 -49.9 -173.0 -49.4 -165.75 -33.75 -165.5 -33.5 -164.65 -31.25 -176.9 -27.25 -176.75 -13.75 -176.65 -13.0 -176.4 -3.9 -177.25 -4.0 -177.75 -4.0 -190.5 -5.0 -190.9 -5.25 -190.4 -5.75 -190.25 -6.25 -190.15 -8.0 -190.0 -8.15 -189.9 -8.65 -189.75 -8.9 -189.4 -11.0 -189.4 -11.4 -189.25 -11.65 -189.15 -12.4 -188.9 -13.4 -189.0 -13.75 -188.75 -14.4 -187.9 -19.25 -187.9 -20.0 -187.65 -20.65 -186.75 -25.5 -186.9 -25.9 -186.65 -26.15 -186.15 -28.9 -186.15 -29.25 -186.0 -29.65 -184.9 -35.75 -185.0 -36.15 -184.75 -36.5 -183.5 -43.4 -183.5 -44.25 -183.25 -44.75 -183.0 -46.15 -183.0 -50.15 -183.15 -50.75 -183.0 -53.75 -183.25 -54.25 -183.4 -72.0" fill="#da0000" fill-opacity="0.9098039" fill-rule="evenodd" stroke="none"/>
    <path d="M-192.0 -0.9 L-310.25 -0.9 -310.15 -1.15 -309.9 -1.15 -309.4 -1.5 -309.25 -1.65 -308.9 -1.9 -308.75 -2.25 -308.25 -2.4 -307.4 -3.0 -307.0 -3.4 -306.75 -3.5 -306.4 -3.75 -305.4 -3.9 -282.5 -5.0 -242.4 -9.65 -242.0 -9.65 -238.65 -10.0 -236.9 -10.0 -236.5 -10.25 -211.4 -7.5 -210.9 -7.5 -190.9 -5.25 -190.5 -5.0 -190.65 -4.65 -190.75 -4.25 -190.9 -3.9 -191.0 -3.5 -191.75 -1.4 -192.0 -0.9" fill="#af0000" fill-opacity="0.9098039" fill-rule="evenodd" stroke="none"/>
    <path d="M-336.4 -0.9 L-338.25 -0.9 -338.75 -1.9 -340.25 -4.15 -341.15 -5.9 -352.5 -25.0 -352.9 -25.75 -352.65 -25.9 -348.9 -36.5 -349.0 -36.75 -348.5 -37.5 -345.4 -46.4 -345.5 -46.65 -344.9 -47.9 -343.75 -51.4 -343.5 -51.9 -343.15 -53.25 -342.9 -53.5 -342.9 -53.65 -342.0 -54.0 -341.75 -53.0 -341.9 -52.75 -341.65 -52.15 -341.65 -51.75 -340.5 -45.0 -340.65 -44.65 -340.0 -42.15 -340.0 -41.5 -341.25 -37.75 -341.4 -37.4 -341.5 -37.0 -341.65 -36.9 -342.65 -33.4 -343.15 -28.15 -343.0 -27.5 -343.25 -26.25 -342.25 -17.65 -342.25 -17.15 -339.15 -9.0 -338.9 -7.9 -338.75 -7.65 -338.75 -7.5 -338.5 -6.9 -338.5 -6.75 -336.75 -2.5 -336.4 -0.9" fill="#cd0000" fill-rule="evenodd" stroke="none"/>
    <path d="M-342.25 -55.15 L-342.15 -55.65 -339.5 -55.4 -341.65 -54.25 -342.0 -54.0 -342.25 -55.15" fill="#cb0000" fill-opacity="0.9098039" fill-rule="evenodd" stroke="none"/>
    <path d="M-164.65 -31.25 L-159.25 -0.9 -162.75 -0.9 -163.25 -2.75 -164.0 -2.9 -176.4 -3.9 -176.65 -13.0 -176.75 -13.75 -176.9 -27.25 -164.65 -31.25" fill="#f00000" fill-opacity="0.9098039" fill-rule="evenodd" stroke="none"/>
    <path d="M-176.25 -0.9 L-192.0 -0.9 -191.75 -1.4 -191.0 -3.5 -190.9 -3.9 -190.75 -4.25 -190.65 -4.65 -190.5 -5.0 -177.75 -4.0 -177.25 -4.0 -176.4 -3.9 -176.25 -0.9" fill="#d30000" fill-opacity="0.9098039" fill-rule="evenodd" stroke="none"/>
    <path d="M-342.9 -53.65 L-342.25 -55.15 -342.0 -54.0 -342.9 -53.65" fill="#cf0000" fill-rule="evenodd" stroke="none"/>
    <path d="M-338.25 -0.9 L-345.5 -0.9 -347.0 -5.65 -347.0 -5.75 -349.0 -12.75 -349.15 -12.75 -350.25 -16.65 -350.15 -16.75 -352.5 -25.0 -341.15 -5.9 -340.25 -4.15 -338.75 -1.9 -338.25 -0.9" fill="#fc0000" fill-rule="evenodd" stroke="none"/>
    <path d="M-162.75 -0.9 L-176.25 -0.9 -176.4 -3.9 -164.0 -2.9 -163.25 -2.75 -162.75 -0.9" fill="#e80000" fill-opacity="0.9098039" fill-rule="evenodd" stroke="none"/>
  </g>
  <defs>
    <radialGradient cx="0" cy="0" gradientTransform="matrix(0.2089, 0.0, 0.0, 0.2089, -183.6, -106.45)" gradientUnits="userSpaceOnUse" id="gradient0" r="819.2" spreadMethod="pad">
      <stop offset="0.0" stop-color="#5b5b5b"/>
      <stop offset="1.0" stop-color="#121212"/>
    </radialGradient>
    <radialGradient cx="0" cy="0" gradientTransform="matrix(0.2177, 0.0, 0.0, 0.2177, -159.15, -98.3)" gradientUnits="userSpaceOnUse" id="gradient1" r="819.2" spreadMethod="pad">
      <stop offset="0.0" stop-color="#414141"/>
      <stop offset="1.0" stop-color="#151515"/>
    </radialGradient>
    <radialGradient cx="0" cy="0" gradientTransform="matrix(0.0202, 0.0, 0.0, 0.0202, -174.0, -85.55)" gradientUnits="userSpaceOnUse" id="gradient2" r="819.2" spreadMethod="pad">
      <stop offset="0.0" stop-color="#000000"/>
      <stop offset="1.0" stop-color="#000000"/>
    </radialGradient>
    <radialGradient cx="0" cy="0" gradientTransform="matrix(0.1891, 0.0, 0.0, 0.1891, -313.0, -144.8)" gradientUnits="userSpaceOnUse" id="gradient3" r="819.2" spreadMethod="pad">
      <stop offset="0.0" stop-color="#7e7e7e"/>
      <stop offset="1.0" stop-color="#000000"/>
    </radialGradient>
    <radialGradient cx="0" cy="0" gradientTransform="matrix(0.0044, 0.0, 0.0, 0.0044, -214.6, -221.1)" gradientUnits="userSpaceOnUse" id="gradient4" r="819.2" spreadMethod="pad">
      <stop offset="0.0" stop-color="#bbbbbb"/>
      <stop offset="1.0" stop-color="#bababa"/>
    </radialGradient>
    <radialGradient cx="0" cy="0" gradientTransform="matrix(0.1069, 0.0, 0.0, 0.1069, -297.25, -209.35)" gradientUnits="userSpaceOnUse" id="gradient5" r="819.2" spreadMethod="pad">
      <stop offset="0.0" stop-color="#767676"/>
      <stop offset="1.0" stop-color="#767676"/>
    </radialGradient>
    <radialGradient cx="0" cy="0" gradientTransform="matrix(0.04, 0.0, 0.0, 0.04, -214.6, -221.1)" gradientUnits="userSpaceOnUse" id="gradient6" r="819.2" spreadMethod="pad">
      <stop offset="0.0" stop-color="#767676"/>
      <stop offset="1.0" stop-color="#767676"/>
    </radialGradient>
    <radialGradient cx="0" cy="0" gradientTransform="matrix(0.0098, 0.0, 0.0, 0.0098, -246.95, -215.9)" gradientUnits="userSpaceOnUse" id="gradient7" r="819.2" spreadMethod="pad">
      <stop offset="0.0" stop-color="#8b8b8b"/>
      <stop offset="1.0" stop-color="#8b8b8b"/>
    </radialGradient>
    <radialGradient cx="0" cy="0" gradientTransform="matrix(0.0034, 0.0, 0.0, 0.0034, -254.45, -218.7)" gradientUnits="userSpaceOnUse" id="gradient8" r="819.2" spreadMethod="pad">
      <stop offset="0.0" stop-color="#8c8c8c"/>
      <stop offset="1.0" stop-color="#8c8c8c"/>
    </radialGradient>
    <radialGradient cx="0" cy="0" gradientTransform="matrix(0.0036, 0.0, 0.0, 0.0036, -257.35, -218.25)" gradientUnits="userSpaceOnUse" id="gradient9" r="819.2" spreadMethod="pad">
      <stop offset="0.0" stop-color="#e2e2e2"/>
      <stop offset="1.0" stop-color="#e0e0e0"/>
    </radialGradient>
    <radialGradient cx="0" cy="0" gradientTransform="matrix(0.0104, 0.0, 0.0, 0.0104, -264.3, -213.25)" gradientUnits="userSpaceOnUse" id="gradient10" r="819.2" spreadMethod="pad">
      <stop offset="0.0" stop-color="#e1e1e1"/>
      <stop offset="1.0" stop-color="#dfdfdf"/>
    </radialGradient>
    <radialGradient cx="0" cy="0" gradientTransform="matrix(0.0375, 0.0, 0.0, 0.0375, -264.3, -213.25)" gradientUnits="userSpaceOnUse" id="gradient11" r="819.2" spreadMethod="pad">
      <stop offset="0.0" stop-color="#767676"/>
      <stop offset="1.0" stop-color="#767676"/>
    </radialGradient>
    <radialGradient cx="0" cy="0" gradientTransform="matrix(0.0035, 0.0, 0.0, 0.0035, -294.7, -208.55)" gradientUnits="userSpaceOnUse" id="gradient12" r="819.2" spreadMethod="pad">
      <stop offset="0.0" stop-color="#838383"/>
      <stop offset="1.0" stop-color="#838383"/>
    </radialGradient>
    <radialGradient cx="0" cy="0" gradientTransform="matrix(0.1145, 0.0, 0.0, 0.1145, -308.95, -198.25)" gradientUnits="userSpaceOnUse" id="gradient13" r="819.2" spreadMethod="pad">
      <stop offset="0.0" stop-color="#494949"/>
      <stop offset="1.0" stop-color="#282828"/>
    </radialGradient>
    <radialGradient cx="0" cy="0" gradientTransform="matrix(0.0587, 0.0, 0.0, 0.0587, -271.1, -97.4)" gradientUnits="userSpaceOnUse" id="gradient14" r="819.2" spreadMethod="pad">
      <stop offset="0.0" stop-color="#000000"/>
      <stop offset="1.0" stop-color="#000000"/>
    </radialGradient>
    <radialGradient cx="0" cy="0" gradientTransform="matrix(0.0475, 0.0, 0.0, 0.0475, -274.6, -95.55)" gradientUnits="userSpaceOnUse" id="gradient15" r="819.2" spreadMethod="pad">
      <stop offset="0.0" stop-color="#000000"/>
      <stop offset="1.0" stop-color="#000000"/>
    </radialGradient>
    <radialGradient cx="0" cy="0" gradientTransform="matrix(0.1464, 0.0, 0.0, 0.1464, -290.05, -7.55)" gradientUnits="userSpaceOnUse" id="gradient16" r="819.2" spreadMethod="pad">
      <stop offset="0.0" stop-color="#323232"/>
      <stop offset="1.0" stop-color="#000000"/>
    </radialGradient>
    <radialGradient cx="0" cy="0" gradientTransform="matrix(0.1577, 0.0, 0.0, 0.1577, -298.95, -1.0)" gradientUnits="userSpaceOnUse" id="gradient17" r="819.2" spreadMethod="pad">
      <stop offset="0.0" stop-color="#626262"/>
      <stop offset="1.0" stop-color="#000000"/>
    </radialGradient>
    <radialGradient cx="0" cy="0" gradientTransform="matrix(0.1228, 0.0, 0.0, 0.1228, -176.6, -12.65)" gradientUnits="userSpaceOnUse" id="gradient18" r="819.2" spreadMethod="pad">
      <stop offset="0.0" stop-color="#3f3f3f"/>
      <stop offset="1.0" stop-color="#000000"/>
    </radialGradient>
    <radialGradient cx="0" cy="0" gradientTransform="matrix(0.0833, 0.0, 0.0, 0.0833, -240.15, -19.35)" gradientUnits="userSpaceOnUse" id="gradient19" r="819.2" spreadMethod="pad">
      <stop offset="0.0" stop-color="#878787"/>
      <stop offset="1.0" stop-color="#000000"/>
    </radialGradient>
    <radialGradient cx="0" cy="0" gradientTransform="matrix(0.0441, 0.0, 0.0, 0.0441, -169.65, -60.4)" gradientUnits="userSpaceOnUse" id="gradient20" r="819.2" spreadMethod="pad">
      <stop offset="0.0" stop-color="#595959"/>
      <stop offset="1.0" stop-color="#070707"/>
    </radialGradient>
    <radialGradient cx="0" cy="0" gradientTransform="matrix(0.1079, 0.0, 0.0, 0.1079, -144.35, -59.95)" gradientUnits="userSpaceOnUse" id="gradient21" r="819.2" spreadMethod="pad">
      <stop offset="0.0" stop-color="#616161"/>
      <stop offset="1.0" stop-color="#000000"/>
    </radialGradient>
    <radialGradient cx="0" cy="0" gradientTransform="matrix(0.0811, 0.0, 0.0, 0.0811, -169.65, -60.4)" gradientUnits="userSpaceOnUse" id="gradient22" r="819.2" spreadMethod="pad">
      <stop offset="0.0" stop-color="#595959"/>
      <stop offset="1.0" stop-color="#000000"/>
    </radialGradient>
    <radialGradient cx="0" cy="0" gradientTransform="matrix(0.0376, 0.0, 0.0, 0.0376, -241.65, -177.3)" gradientUnits="userSpaceOnUse" id="gradient23" r="819.2" spreadMethod="pad">
      <stop offset="0.0" stop-color="#ff5151"/>
      <stop offset="1.0" stop-color="#330000"/>
    </radialGradient>
    <radialGradient cx="0" cy="0" gradientTransform="matrix(0.0361, 0.0, 0.0, 0.0361, -241.15, -177.1)" gradientUnits="userSpaceOnUse" id="gradient24" r="819.2" spreadMethod="pad">
      <stop offset="0.0" stop-color="#ff5151"/>
      <stop offset="1.0" stop-color="#ff4c4c"/>
    </radialGradient>
    <radialGradient cx="0" cy="0" gradientTransform="matrix(0.0388, 0.0, 0.0, 0.0388, -240.5, -171.3)" gradientUnits="userSpaceOnUse" id="gradient25" r="819.2" spreadMethod="pad">
      <stop offset="0.0" stop-color="#f89797"/>
      <stop offset="1.0" stop-color="#4e0000"/>
    </radialGradient>
    <radialGradient cx="0" cy="0" gradientTransform="matrix(0.0285, 0.0, 0.0, 0.0285, -248.35, -167.6)" gradientUnits="userSpaceOnUse" id="gradient26" r="819.2" spreadMethod="pad">
      <stop offset="0.0" stop-color="#ff3030"/>
      <stop offset="1.0" stop-color="#ff2d2d"/>
    </radialGradient>
    <radialGradient cx="0" cy="0" gradientTransform="matrix(0.0379, 0.0, 0.0, 0.0379, -319.6, -105.0)" gradientUnits="userSpaceOnUse" id="gradient27" r="819.2" spreadMethod="pad">
      <stop offset="0.0" stop-color="#191919"/>
      <stop offset="1.0" stop-color="#0d0d0d"/>
    </radialGradient>
    <radialGradient cx="0" cy="0" gradientTransform="matrix(0.0479, 0.0, 0.0, 0.0479, -297.75, -68.55)" gradientUnits="userSpaceOnUse" id="gradient28" r="819.2" spreadMethod="pad">
      <stop offset="0.0" stop-color="#000000"/>
      <stop offset="1.0" stop-color="#000000"/>
    </radialGradient>
    <radialGradient cx="0" cy="0" gradientTransform="matrix(0.0877, 0.0, 0.0, 0.0877, -309.35, -15.45)" gradientUnits="userSpaceOnUse" id="gradient29" r="819.2" spreadMethod="pad">
      <stop offset="0.0" stop-color="#858585"/>
      <stop offset="1.0" stop-color="#000000"/>
    </radialGradient>
    <radialGradient cx="0" cy="0" gradientTransform="matrix(0.0424, 0.0, 0.0, 0.0424, -327.8, -56.8)" gradientUnits="userSpaceOnUse" id="gradient30" r="819.2" spreadMethod="pad">
      <stop offset="0.0" stop-color="#000000"/>
      <stop offset="1.0" stop-color="#000000"/>
    </radialGradient>
    <radialGradient cx="0" cy="0" gradientTransform="matrix(0.11, 0.0, 0.0, 0.11, -375.2, -1.0)" gradientUnits="userSpaceOnUse" id="gradient31" r="819.2" spreadMethod="pad">
      <stop offset="0.0" stop-color="#595959"/>
      <stop offset="1.0" stop-color="#000000"/>
    </radialGradient>
    <radialGradient cx="0" cy="0" gradientTransform="matrix(0.0336, 0.0, 0.0, 0.0336, -316.15, -68.2)" gradientUnits="userSpaceOnUse" id="gradient32" r="819.2" spreadMethod="pad">
      <stop offset="0.0" stop-color="#0d0d0d"/>
      <stop offset="1.0" stop-color="#000000"/>
    </radialGradient>
    <radialGradient cx="0" cy="0" gradientTransform="matrix(0.1149, 0.0, 0.0, 0.1149, -395.85, -18.05)" gradientUnits="userSpaceOnUse" id="gradient33" r="819.2" spreadMethod="pad">
      <stop offset="0.0" stop-color="#0f0f0f"/>
      <stop offset="1.0" stop-color="#040404"/>
    </radialGradient>
    <radialGradient cx="0" cy="0" gradientTransform="matrix(0.0368, 0.0, 0.0, 0.0368, -8.25, -74.5)" gradientUnits="userSpaceOnUse" id="gradient34" r="819.2" spreadMethod="pad">
      <stop offset="0.0" stop-color="#000000"/>
      <stop offset="1.0" stop-color="#000000"/>
    </radialGradient>
    <radialGradient cx="0" cy="0" gradientTransform="matrix(0.0109, 0.0, 0.0, 0.0109, -8.25, -74.5)" gradientUnits="userSpaceOnUse" id="gradient35" r="819.2" spreadMethod="pad">
      <stop offset="0.0" stop-color="#000000"/>
      <stop offset="1.0" stop-color="#000000"/>
    </radialGradient>
    <radialGradient cx="0" cy="0" gradientTransform="matrix(0.085, 0.0, 0.0, 0.085, -10.95, -23.0)" gradientUnits="userSpaceOnUse" id="gradient36" r="819.2" spreadMethod="pad">
      <stop offset="0.0" stop-color="#161616"/>
      <stop offset="1.0" stop-color="#000000"/>
    </radialGradient>
    <radialGradient cx="0" cy="0" gradientTransform="matrix(0.034, 0.0, 0.0, 0.034, -1.0, -69.2)" gradientUnits="userSpaceOnUse" id="gradient37" r="819.2" spreadMethod="pad">
      <stop offset="0.0" stop-color="#000000"/>
      <stop offset="1.0" stop-color="#000000"/>
    </radialGradient>
    <radialGradient cx="0" cy="0" gradientTransform="matrix(0.0253, 0.0, 0.0, 0.0253, -328.65, -4.95)" gradientUnits="userSpaceOnUse" id="gradient38" r="819.2" spreadMethod="pad">
      <stop offset="0.0" stop-color="#000000"/>
      <stop offset="1.0" stop-color="#000000"/>
    </radialGradient>
    <radialGradient cx="0" cy="0" gradientTransform="matrix(0.0346, 0.0, 0.0, 0.0346, -10.95, -23.0)" gradientUnits="userSpaceOnUse" id="gradient39" r="819.2" spreadMethod="pad">
      <stop offset="0.0" stop-color="#161616"/>
      <stop offset="1.0" stop-color="#080808"/>
    </radialGradient>
    <radialGradient cx="0" cy="0" gradientTransform="matrix(0.0271, 0.0, 0.0, 0.0271, -10.95, -23.0)" gradientUnits="userSpaceOnUse" id="gradient40" r="819.2" spreadMethod="pad">
      <stop offset="0.0" stop-color="#161616"/>
      <stop offset="1.0" stop-color="#070707"/>
    </radialGradient>
    <radialGradient cx="0" cy="0" gradientTransform="matrix(0.1015, 0.0, 0.0, 0.1015, -80.05, -14.15)" gradientUnits="userSpaceOnUse" id="gradient41" r="819.2" spreadMethod="pad">
      <stop offset="0.0" stop-color="#000000"/>
      <stop offset="1.0" stop-color="#000000"/>
    </radialGradient>
    <radialGradient cx="0" cy="0" gradientTransform="matrix(0.0307, 0.0, 0.0, 0.0307, -59.9, -12.0)" gradientUnits="userSpaceOnUse" id="gradient42" r="819.2" spreadMethod="pad">
      <stop offset="0.0" stop-color="#000000"/>
      <stop offset="1.0" stop-color="#000000"/>
    </radialGradient>
    <radialGradient cx="0" cy="0" gradientTransform="matrix(0.0165, 0.0, 0.0, 0.0165, -238.0, -2.25)" gradientUnits="userSpaceOnUse" id="gradient43" r="819.2" spreadMethod="pad">
      <stop offset="0.0" stop-color="#000000"/>
      <stop offset="1.0" stop-color="#000000"/>
    </radialGradient>
  </defs>
</svg>
