<?xml version="1.0" encoding="UTF-8" standalone="no"?>
<svg xmlns:xlink="http://www.w3.org/1999/xlink" height="261.5px" width="399.1px" xmlns="http://www.w3.org/2000/svg">
  <g transform="matrix(1.0, 0.0, 0.0, 1.0, 400.0, 262.4)">
    <path d="M-244.4 -261.0 L-233.9 -261.15 -237.65 -244.5 -245.4 -244.4 -257.0 -240.15 -261.25 -239.75 -286.75 -235.5 -289.25 -234.0 -292.25 -219.65 -292.15 -218.9 -292.25 -218.75 -291.5 -216.75 -296.65 -210.65 -295.65 -228.4 -282.65 -242.15 -272.4 -254.0 -244.4 -261.0 M-236.4 -244.5 L-226.9 -251.0 -214.15 -258.65 -213.9 -258.5 -215.65 -247.25 -232.25 -244.5 -236.4 -244.5 M-154.15 -158.15 L-152.65 -156.75 -154.25 -155.75 -154.15 -158.15 M-159.4 -133.65 L-161.15 -124.25 -166.65 -111.15 -168.4 -104.65 -173.9 -106.5 -178.9 -107.5 -175.5 -110.25 -163.9 -126.9 -161.75 -130.65 -159.4 -133.65 M-313.9 -114.5 L-312.5 -117.9 -320.9 -130.9 -320.75 -131.15 -314.4 -126.75 -313.25 -126.4 -315.75 -131.4 -315.75 -132.0 -319.75 -139.5 -319.65 -154.0 -321.75 -159.9 -323.9 -164.4 -322.75 -172.25 -322.0 -182.4 -315.65 -198.75 -309.75 -217.15 -309.25 -217.25 -300.5 -202.15 -308.65 -178.75 -308.9 -178.25 -309.0 -177.65 -309.25 -177.0 -310.0 -165.15 -303.0 -134.15 -297.9 -124.75 -284.5 -109.25 -278.5 -103.5 -276.65 -102.5 -293.0 -94.15 -299.25 -100.15 -304.0 -104.0 -309.5 -110.15 -312.9 -113.25 -313.5 -113.9 -313.9 -114.5" fill="url(#gradient0)" fill-rule="evenodd" stroke="none"/>
    <path d="M-244.4 -261.0 L-227.75 -262.4 -209.15 -260.25 -191.5 -254.5 -174.75 -245.0 -160.0 -231.9 -148.9 -217.15 -140.15 -198.5 -135.75 -181.0 -134.75 -162.5 -137.5 -143.25 -143.9 -125.15 -153.65 -108.75 -160.15 -101.75 -168.4 -104.65 -166.65 -111.15 -161.15 -124.25 -159.4 -133.65 -159.4 -133.75 -157.5 -143.15 -166.25 -147.9 -154.25 -155.75 -152.65 -156.75 -154.15 -158.15 -161.65 -166.65 -161.9 -166.5 -165.9 -149.0 -166.4 -148.4 -171.5 -177.75 -207.65 -229.65 -209.25 -232.0 -216.25 -242.15 -215.65 -247.25 -213.9 -258.5 -214.15 -258.65 -226.9 -251.0 -236.4 -244.5 Q-237.05 -244.1 -237.75 -243.75 L-237.65 -244.5 -233.9 -261.15 -244.4 -261.0" fill="url(#gradient1)" fill-rule="evenodd" stroke="none"/>
    <path d="M-237.65 -244.5 L-237.75 -243.75 Q-237.05 -244.1 -236.4 -244.5 L-232.25 -244.5 -244.65 -242.25 -249.9 -238.5 -255.9 -240.25 -257.0 -240.15 -245.4 -244.4 -237.65 -244.5 M-207.65 -229.65 L-171.5 -177.75 -166.4 -148.4 -165.9 -149.0 -161.9 -166.5 -161.65 -166.65 -154.15 -158.15 -154.25 -155.75 -166.25 -147.9 -157.5 -143.15 -159.4 -133.75 -159.4 -133.65 -161.75 -130.65 -163.9 -126.9 -175.5 -110.25 -178.9 -107.5 -211.65 -113.75 -211.75 -113.75 -212.15 -113.9 -215.4 -114.65 -226.0 -122.5 -228.15 -122.4 -260.4 -118.15 -265.15 -108.75 -268.5 -106.5 -268.65 -106.5 -268.9 -106.25 -276.5 -102.5 -276.65 -102.5 -278.5 -103.5 -284.5 -109.25 -297.9 -124.75 -303.0 -134.15 -310.0 -165.15 -309.25 -177.0 -309.0 -177.65 -308.9 -178.25 -308.65 -178.75 -300.5 -202.15 -297.65 -197.9 -296.65 -210.65 -291.5 -216.75 -291.4 -216.75 -291.15 -216.4 -288.75 -215.75 -258.5 -220.65 -251.5 -225.65 -250.15 -226.5 -249.0 -226.15 -241.4 -223.4 -209.25 -228.9 -207.65 -229.65 M-250.5 -188.25 L-254.65 -188.5 -258.4 -187.4 -266.5 -181.75 -265.75 -181.65 -232.4 -187.15 -242.15 -190.15 -245.15 -190.15 -248.25 -189.4 -250.5 -188.25 M-266.75 -179.75 Q-266.75 -178.15 -259.4 -176.25 L-249.65 -175.4 Q-236.15 -179.25 -231.75 -185.25 L-266.75 -179.75" fill="url(#gradient2)" fill-rule="evenodd" stroke="none"/>
    <path d="M-215.65 -247.25 L-216.25 -242.15 -209.25 -232.0 -210.0 -231.65 -242.25 -226.15 -249.65 -228.65 -251.0 -229.15 -252.65 -228.25 -259.5 -223.25 -289.75 -218.25 -292.15 -218.9 -292.25 -219.65 -289.25 -234.0 -286.75 -235.5 -261.25 -239.75 -257.0 -240.15 -255.9 -240.25 -249.9 -238.5 -244.65 -242.25 -232.25 -244.5 -215.65 -247.25" fill="url(#gradient3)" fill-rule="evenodd" stroke="none"/>
    <path d="M-292.15 -218.9 L-289.75 -218.25 -288.75 -215.75 -291.15 -216.4 -291.4 -216.75 -291.5 -216.75 -292.25 -218.75 -292.15 -218.9" fill="url(#gradient4)" fill-rule="evenodd" stroke="none"/>
    <path d="M-272.4 -254.0 L-282.65 -242.15 -295.65 -228.4 -296.65 -210.65 -297.65 -197.9 -300.5 -202.15 -309.25 -217.25 -309.75 -217.15 -315.65 -198.75 -322.0 -182.4 -322.75 -172.25 -323.9 -164.4 -321.75 -159.9 -319.65 -154.0 -319.75 -139.5 -315.75 -132.0 -315.75 -131.4 -313.25 -126.4 -314.4 -126.75 -320.75 -131.15 -320.9 -130.9 -312.5 -117.9 -313.9 -114.5 Q-336.65 -150.0 -326.0 -192.15 L-314.0 -218.75 -303.65 -232.5 -289.5 -244.75 -272.4 -254.0" fill="url(#gradient5)" fill-rule="evenodd" stroke="none"/>
    <path d="M-293.0 -94.15 L-276.65 -102.5 -276.5 -102.5 -268.9 -106.25 -269.0 -105.65 -289.15 -90.4 -293.0 -90.0 -299.15 -88.25 -297.5 -91.75 -295.15 -93.0 -293.0 -94.15" fill="url(#gradient6)" fill-rule="evenodd" stroke="none"/>
    <path d="M-265.15 -108.75 L-265.9 -106.75 -267.75 -105.75 -269.0 -105.65 -268.9 -106.25 -268.65 -106.5 -268.5 -106.5 -265.15 -108.75 M-213.75 -113.0 L-215.4 -114.65 -212.15 -113.9 -211.75 -113.75 -211.65 -113.75 -211.15 -113.5 -212.4 -113.5 -212.75 -112.9 -213.75 -113.0" fill="url(#gradient7)" fill-rule="evenodd" stroke="none"/>
    <path d="M-265.15 -108.75 L-260.4 -118.15 -228.15 -122.4 -226.0 -122.5 -215.4 -114.65 -213.75 -113.0 -198.4 -92.65 Q-195.9 -89.75 -195.9 -88.0 L-203.25 -92.25 -216.75 -95.65 -229.5 -95.4 -242.4 -92.0 -256.25 -82.75 -259.4 -78.25 -259.25 -74.5 Q-260.9 -74.0 -263.15 -64.25 L-262.5 -59.15 -262.75 -58.75 -262.15 -55.25 -258.9 -49.4 -259.15 -47.15 -256.25 -37.15 -249.75 -28.65 -245.0 -25.5 -231.65 -22.75 -221.15 -14.25 -219.0 -13.25 -232.0 -16.25 -286.9 -10.9 -297.5 -2.0 -294.0 -9.65 -293.4 -15.5 -290.5 -18.25 Q-287.5 -25.0 -282.65 -27.75 L-276.75 -37.5 -274.75 -47.5 -274.0 -48.15 -267.9 -57.4 -265.4 -65.75 -266.15 -74.0 -262.25 -77.9 -261.75 -79.15 Q-259.15 -88.65 -281.75 -90.5 L-267.75 -105.75 -265.9 -106.75 -265.15 -108.75 M-198.75 -8.25 L-205.75 -10.0 -200.5 -10.5 -198.15 -12.0 -198.75 -8.25" fill="url(#gradient8)" fill-rule="evenodd" stroke="none"/>
    <path d="M-195.9 -88.0 Q-195.9 -89.75 -198.4 -92.65 L-213.75 -113.0 -212.75 -112.9 -176.0 -86.0 -174.4 -60.4 -177.0 -66.75 -187.75 -82.15 -192.65 -86.0 -195.9 -88.0 M-173.65 -56.75 L-171.15 -49.4 -170.75 -39.5 -170.65 -25.75 -169.9 -7.9 -170.0 -0.9 -172.75 -9.4 -173.25 -9.9 -198.75 -8.25 -198.15 -12.0 Q-197.25 -11.5 -193.9 -12.0 L-187.5 -15.5 -181.0 -23.0 -180.4 -24.65 -176.9 -26.25 -175.25 -28.65 -174.0 -31.65 -173.25 -39.25 -172.9 -51.0 -173.65 -56.75" fill="url(#gradient9)" fill-rule="evenodd" stroke="none"/>
    <path d="M-219.0 -13.25 L-221.15 -14.25 -231.65 -22.75 -245.0 -25.5 -249.75 -28.65 -256.25 -37.15 -259.15 -47.15 -258.9 -49.4 -262.15 -55.25 -262.75 -58.75 -262.5 -59.15 -263.15 -64.25 Q-260.9 -74.0 -259.25 -74.5 L-259.4 -78.25 -256.25 -82.75 -242.4 -92.0 -229.5 -95.4 -216.75 -95.65 -203.25 -92.25 -195.9 -88.0 -192.65 -86.0 -187.75 -82.15 -177.0 -66.75 -174.4 -60.4 -174.4 -59.9 -174.25 -59.5 -173.65 -56.75 -172.9 -51.0 -173.25 -39.25 -174.0 -31.65 -175.25 -28.65 -176.9 -26.25 -180.4 -24.65 -181.0 -23.0 -187.5 -15.5 -193.9 -12.0 Q-197.25 -11.5 -198.15 -12.0 L-200.5 -10.5 -205.75 -10.0 -207.15 -9.9 -213.75 -11.25 -219.0 -13.25" fill="url(#gradient10)" fill-rule="evenodd" stroke="none"/>
    <path d="M-297.5 -2.0 L-286.9 -10.9 -232.0 -16.25 -219.0 -13.25 -213.75 -11.25 -207.15 -9.9 -205.75 -10.0 -198.75 -8.25 -200.65 -0.9 -298.4 -0.9 -297.5 -2.0" fill="url(#gradient11)" fill-rule="evenodd" stroke="none"/>
    <path d="M-281.75 -90.5 Q-259.15 -88.65 -261.75 -79.15 L-262.25 -77.9 -266.15 -74.0 -265.4 -65.75 -267.9 -57.4 -274.0 -48.15 -274.75 -47.5 -276.75 -37.5 -282.65 -27.75 Q-287.5 -25.0 -290.5 -18.25 L-293.4 -15.5 -294.0 -9.65 -297.5 -2.0 -298.4 -0.9 -317.9 -0.9 Q-325.5 -6.25 -328.75 -12.25 L-331.5 -19.25 Q-341.4 -37.25 -331.75 -57.9 -326.0 -73.9 -317.5 -78.25 L-317.25 -78.65 Q-305.9 -87.65 -299.15 -88.25 L-293.0 -90.0 -289.15 -90.4 -281.75 -90.5" fill="url(#gradient12)" fill-rule="evenodd" stroke="none"/>
    <path d="M-267.75 -105.75 L-281.75 -90.5 -289.15 -90.4 -269.0 -105.65 -267.75 -105.75" fill="url(#gradient13)" fill-rule="evenodd" stroke="none"/>
    <path d="M-209.25 -232.0 L-207.65 -229.65 -209.25 -228.9 -210.0 -231.65 -209.25 -232.0" fill="url(#gradient14)" fill-rule="evenodd" stroke="none"/>
    <path d="M-210.0 -231.65 L-209.25 -228.9 -241.4 -223.4 -242.25 -226.15 -210.0 -231.65" fill="url(#gradient15)" fill-rule="evenodd" stroke="none"/>
    <path d="M-242.25 -226.15 L-241.4 -223.4 -249.0 -226.15 -249.65 -228.65 -242.25 -226.15" fill="url(#gradient16)" fill-rule="evenodd" stroke="none"/>
    <path d="M-251.0 -229.15 L-249.65 -228.65 -249.0 -226.15 -250.15 -226.5 -251.0 -229.15" fill="url(#gradient17)" fill-rule="evenodd" stroke="none"/>
    <path d="M-252.65 -228.25 L-251.0 -229.15 -250.15 -226.5 -251.5 -225.65 -252.65 -228.25" fill="url(#gradient18)" fill-rule="evenodd" stroke="none"/>
    <path d="M-259.5 -223.25 L-252.65 -228.25 -251.5 -225.65 -258.5 -220.65 -259.5 -223.25" fill="url(#gradient19)" fill-rule="evenodd" stroke="none"/>
    <path d="M-289.75 -218.25 L-259.5 -223.25 -258.5 -220.65 -288.75 -215.75 -289.75 -218.25" fill="url(#gradient20)" fill-rule="evenodd" stroke="none"/>
    <path d="M-250.5 -188.25 L-248.25 -189.4 -245.15 -190.15 -242.15 -190.15 -232.4 -187.15 -265.75 -181.65 -266.5 -181.75 -258.4 -187.4 -254.65 -188.5 -250.5 -188.25 M-247.5 -189.4 L-250.9 -187.9 -255.0 -188.15 -258.65 -187.0 -263.75 -183.15 -265.15 -182.5 -264.75 -182.4 -234.5 -187.4 -242.15 -189.75 -244.9 -189.9 -247.5 -189.4" fill="url(#gradient21)" fill-rule="evenodd" stroke="none"/>
    <path d="M-247.5 -189.4 L-244.9 -189.9 -242.15 -189.75 -234.5 -187.4 -264.75 -182.4 -265.15 -182.5 -263.75 -183.15 -258.65 -187.0 -255.0 -188.15 -250.9 -187.9 -247.5 -189.4" fill="url(#gradient22)" fill-rule="evenodd" stroke="none"/>
    <path d="M-266.75 -179.75 L-231.75 -185.25 Q-236.15 -179.25 -249.65 -175.4 L-259.4 -176.25 Q-266.75 -178.15 -266.75 -179.75 M-266.5 -179.65 Q-261.0 -176.0 -249.5 -176.0 -233.5 -181.75 -233.0 -184.9 L-266.5 -179.65" fill="url(#gradient23)" fill-rule="evenodd" stroke="none"/>
    <path d="M-266.5 -179.65 L-233.0 -184.9 Q-233.5 -181.75 -249.5 -176.0 -261.0 -176.0 -266.5 -179.65" fill="url(#gradient24)" fill-rule="evenodd" stroke="none"/>
    <path d="M-168.4 -97.4 L-164.15 -74.65 -164.0 -72.4 -174.25 -59.5 -174.4 -59.9 -174.4 -60.4 -176.0 -86.0 -212.75 -112.9 -212.4 -113.5 -211.15 -113.5 -211.65 -113.75 -178.9 -107.5 -173.9 -106.5 -168.4 -97.4" fill="url(#gradient25)" fill-rule="evenodd" stroke="none"/>
    <path d="M-312.9 -113.25 L-309.5 -110.15 -304.0 -104.0 -299.25 -100.15 -293.0 -94.15 -295.15 -93.0 -306.25 -104.9 -312.9 -113.25" fill="url(#gradient26)" fill-rule="evenodd" stroke="none"/>
    <path d="M-152.0 -98.75 L-168.4 -97.4 -173.9 -106.5 -168.4 -104.65 -160.15 -101.75 -152.0 -98.75" fill="url(#gradient27)" fill-rule="evenodd" stroke="none"/>
    <path d="M-50.4 -75.4 L-63.5 -53.15 -74.25 -27.75 -90.4 -28.0 -108.5 -32.4 -130.75 -40.4 -154.75 -44.75 -155.15 -45.0 -155.5 -45.0 -155.5 -45.9 -164.0 -72.4 -164.15 -74.65 -168.4 -97.4 -152.0 -98.75 -117.65 -90.0 -93.25 -85.4 -50.4 -75.4" fill="url(#gradient28)" fill-rule="evenodd" stroke="none"/>
    <path d="M-297.5 -91.75 L-299.15 -88.25 Q-305.9 -87.65 -317.25 -78.65 L-315.65 -83.5 -297.5 -91.75" fill="url(#gradient29)" fill-rule="evenodd" stroke="none"/>
    <path d="M-317.25 -78.65 L-317.5 -78.25 Q-326.0 -73.9 -331.75 -57.9 -341.4 -37.25 -331.5 -19.25 L-347.65 -8.9 -358.5 -0.9 -399.9 -0.9 -400.0 -21.25 -393.5 -24.75 -362.4 -45.75 -333.9 -64.4 -332.25 -66.15 -331.75 -66.65 -315.65 -83.5 -317.25 -78.65" fill="url(#gradient30)" fill-rule="evenodd" stroke="none"/>
    <path d="M-331.75 -66.65 L-332.25 -66.15 -332.0 -66.5 -331.75 -66.65" fill="url(#gradient31)" fill-rule="evenodd" stroke="none"/>
    <path d="M-332.25 -66.15 L-333.9 -64.4 -362.4 -45.75 -393.5 -24.75 -400.0 -21.25 -400.0 -21.9 -386.65 -30.15 -363.25 -46.9 -340.25 -61.65 -332.0 -66.5 -332.25 -66.15" fill="url(#gradient32)" fill-rule="evenodd" stroke="none"/>
    <path d="M-0.9 -89.0 L-2.75 -87.9 -22.65 -76.5 -28.65 -76.25 Q-15.05 -85.05 -1.5 -93.9 L-0.9 -94.0 -0.9 -89.0" fill="url(#gradient33)" fill-rule="evenodd" stroke="none"/>
    <path d="M-2.75 -87.9 L-0.9 -89.0 -0.9 -86.75 -2.75 -87.9" fill="url(#gradient34)" fill-rule="evenodd" stroke="none"/>
    <path d="M-28.65 -76.25 L-22.65 -76.5 -0.9 -74.5 -0.9 -50.75 -5.0 -36.9 -15.65 -29.0 -15.75 -29.0 -17.9 -27.5 -18.15 -27.25 -18.4 -27.15 -18.65 -26.9 -19.25 -26.5 -19.5 -26.25 -22.75 -23.9 -24.4 -23.9 -51.9 -26.0 -72.9 -27.65 -74.25 -27.75 -63.5 -53.15 -50.4 -75.4 -28.65 -76.25" fill="url(#gradient35)" fill-rule="evenodd" stroke="none"/>
    <path d="M-22.65 -76.5 L-2.75 -87.9 -0.9 -86.75 -0.9 -74.5 -22.65 -76.5" fill="url(#gradient36)" fill-rule="evenodd" stroke="none"/>
    <path d="M-331.5 -19.25 L-328.75 -12.25 -351.15 -0.9 -358.5 -0.9 -347.65 -8.9 -331.5 -19.25" fill="url(#gradient37)" fill-rule="evenodd" stroke="none"/>
    <path d="M-5.0 -36.9 L-0.9 -50.75 -0.9 -39.65 -5.0 -36.9" fill="url(#gradient38)" fill-rule="evenodd" stroke="none"/>
    <path d="M-15.65 -29.0 L-5.0 -36.9 -0.9 -39.65 -1.15 -39.15 -15.65 -29.0" fill="url(#gradient39)" fill-rule="evenodd" stroke="none"/>
    <path d="M-164.0 -72.4 L-155.5 -45.9 -155.5 -45.0 -155.15 -45.0 -154.75 -44.75 -170.75 -39.5 -171.15 -49.4 -173.65 -56.75 -174.25 -59.5 -164.0 -72.4" fill="url(#gradient40)" fill-rule="evenodd" stroke="none"/>
    <path d="M-72.9 -27.65 L-51.9 -26.0 -54.0 -25.0 -72.9 -27.65" fill="url(#gradient41)" fill-rule="evenodd" stroke="none"/>
    <path d="M-154.75 -44.75 L-130.75 -40.4 -108.5 -32.4 -90.4 -28.0 -74.25 -27.75 -72.9 -27.65 -54.0 -25.0 -96.15 -21.15 -123.5 -33.5 -154.75 -44.75" fill="url(#gradient42)" fill-rule="evenodd" stroke="none"/>
    <path d="M-198.75 -8.25 L-173.25 -9.9 -172.75 -9.4 -170.0 -0.9 -200.65 -0.9 -198.75 -8.25" fill="url(#gradient43)" fill-rule="evenodd" stroke="none"/>
    <path d="M-210.75 -113.65 L-205.0 -112.5 -205.0 -113.5 -205.15 -114.25 -205.0 -118.65 -205.15 -119.25 -205.0 -122.5 -205.15 -124.5 -204.9 -124.9 -204.9 -125.5 -204.25 -125.4 -202.0 -124.65 -202.15 -114.75 -202.25 -114.65 -202.0 -114.65 -202.15 -107.9 -206.4 -100.65 -206.5 -100.4 -205.9 -100.25 -205.15 -99.65 -203.4 -99.0 -202.9 -98.5 -179.65 -86.75 -178.9 -86.5 -177.9 -85.9 -197.9 -85.75 -198.0 -85.65 -220.4 -85.5 -220.0 -86.9 -220.15 -87.0 -218.0 -95.0 -217.9 -95.0 -217.25 -97.75 -211.15 -107.0 -211.0 -109.0 -211.15 -109.5 -210.9 -111.4 -211.0 -111.65 -210.9 -112.9 -210.75 -113.65 M-215.65 -124.15 L-210.25 -123.25 -210.4 -121.25 -210.25 -121.15 -210.4 -120.15 -210.9 -113.65 -211.65 -113.75 -211.75 -113.75 -213.0 -114.15 -215.9 -123.9 -215.65 -124.15 M-274.65 -117.65 L-274.25 -117.75 -266.5 -109.65 -266.25 -109.15 -265.5 -108.65 -268.5 -106.5 -268.9 -106.25 -271.0 -105.4 -274.15 -108.75 -274.65 -109.15 -279.65 -113.9 -279.9 -114.4 -280.65 -115.0 -279.9 -115.25 -274.65 -117.65" fill="#9b0000" fill-opacity="0.9098039" fill-rule="evenodd" stroke="none"/>
    <path d="M-220.4 -85.5 L-198.0 -85.65 -197.9 -85.75 -177.9 -85.9 -177.5 -85.15 -177.25 -67.25 -177.4 -67.15 -177.25 -67.0 -176.9 -66.0 -177.15 -63.75 -176.9 -63.15 -177.0 -59.65 -177.25 -58.25 -177.5 -57.65 -177.5 -56.75 -177.65 -56.15 -178.25 -52.5 -178.4 -52.15 -178.4 -51.75 -178.65 -50.4 -178.9 -49.65 -178.9 -48.9 -179.9 -43.25 -180.0 -42.9 -180.0 -42.5 -180.65 -39.5 -180.75 -39.5 -180.65 -39.0 -181.0 -36.75 -181.5 -34.0 -181.65 -33.75 -181.65 -33.25 -181.9 -31.9 -182.5 -28.25 -182.75 -27.65 -182.65 -27.15 -182.75 -26.9 -183.0 -25.4 -183.15 -25.15 -183.15 -24.65 -183.5 -22.5 -183.65 -22.0 -183.9 -21.65 -184.0 -19.9 -184.15 -19.5 -203.65 -21.75 -204.15 -21.75 -229.9 -24.5 -236.15 -23.75 -236.5 -23.75 -275.9 -18.9 -299.65 -17.25 -301.25 -16.0 -301.65 -15.9 -301.75 -15.65 -302.0 -15.4 -303.0 -14.65 -303.15 -14.5 -303.65 -14.15 -303.75 -14.0 -304.75 -13.25 -304.9 -13.15 -305.4 -12.75 -305.5 -12.65 -307.15 -11.4 -307.25 -11.25 -307.75 -10.9 -307.9 -10.75 -308.9 -10.0 -309.0 -9.9 -309.5 -9.5 -310.0 -9.4 -310.15 -9.0 -311.25 -8.15 -311.4 -8.0 -311.9 -7.65 -312.25 -7.5 -312.5 -7.15 -313.0 -6.75 -313.15 -6.65 -313.65 -6.25 -314.0 -6.15 -314.25 -5.75 -314.75 -5.4 -314.9 -5.25 -315.4 -4.9 -315.5 -4.75 -316.0 -4.4 -316.15 -4.4 -316.65 -3.9 -316.75 -3.9 -317.25 -3.4 -317.75 -3.0 -317.9 -2.9 -318.4 -2.65 -318.4 -2.5 -318.75 -2.25 -319.15 -2.15 -319.25 -2.0 -319.65 -2.5 -319.9 -2.65 -320.25 -3.0 -320.65 -3.25 -320.9 -3.5 -323.5 -5.5 -324.65 -6.9 -324.65 -7.0 -324.9 -7.25 -328.75 -12.25 -331.5 -19.25 -331.5 -19.4 -331.65 -19.4 -331.65 -19.75 -331.75 -19.75 -331.9 -20.25 -331.9 -20.5 -332.0 -20.65 -332.15 -21.0 -332.15 -21.15 -332.25 -21.25 -335.25 -29.75 -335.25 -30.4 -335.75 -32.25 -336.4 -38.65 -336.15 -39.9 -335.75 -46.25 -334.75 -49.25 -334.65 -49.4 -334.5 -49.75 -334.4 -50.15 -334.25 -50.5 -334.25 -50.65 -333.25 -53.65 -333.4 -54.0 -334.9 -62.9 -334.9 -63.25 -335.25 -64.65 -335.15 -64.75 -335.15 -64.9 -332.0 -66.5 -331.75 -66.65 -331.0 -67.5 -326.4 -67.4 -325.5 -67.25 -313.0 -66.9 -312.65 -66.75 -303.4 -60.25 -303.0 -60.25 -276.9 -42.5 -276.0 -42.0 -275.9 -41.75 -268.9 -37.15 -258.4 -44.65 -258.25 -44.9 -255.5 -46.65 -255.15 -47.25 -253.0 -48.5 -252.9 -48.75 -248.75 -51.75 -248.25 -52.0 -236.0 -60.9 -235.9 -61.15 -227.4 -67.15 -220.4 -85.5 M-318.9 -35.65 L-318.75 -35.5 -318.65 -35.5 -318.4 -35.25 -318.0 -35.9 -318.15 -36.25 -318.15 -36.5 -319.5 -41.0 -318.75 -35.9 -318.75 -35.75 -318.9 -35.65 M-216.9 -54.5 L-216.15 -52.15 -216.0 -52.15 -215.75 -52.4 -215.25 -53.15 -214.75 -53.65 -214.65 -54.4 -214.65 -54.75 -215.0 -55.25 -216.0 -56.15 -216.65 -55.5 -216.75 -55.25 -217.0 -55.0 -216.9 -54.5" fill="#b80000" fill-opacity="0.9098039" fill-rule="evenodd" stroke="none"/>
    <path d="M-204.9 -125.5 L-204.9 -124.9 -205.15 -124.5 -205.0 -122.5 -205.15 -119.25 -205.0 -118.65 -205.15 -114.25 -205.0 -113.5 -205.0 -112.5 -210.75 -113.65 -210.9 -113.65 -210.4 -120.15 -210.25 -121.15 -210.4 -121.25 -210.25 -123.25 -215.65 -124.15 -204.9 -125.5" fill="#a90000" fill-rule="evenodd" stroke="none"/>
    <path d="M-281.9 -116.4 L-274.65 -117.65 -279.9 -115.25 -280.65 -115.0 -281.9 -116.4" fill="#ac0000" fill-rule="evenodd" stroke="none"/>
    <path d="M-280.65 -115.0 L-281.5 -114.5 -281.5 -114.0 -283.25 -109.0 -283.25 -108.9 -283.15 -108.75 -283.5 -108.15 -287.0 -98.25 -287.5 -97.9 -295.5 -93.4 -295.75 -93.75 -297.75 -95.75 -295.4 -97.0 -295.4 -97.4 -291.65 -106.9 -291.75 -107.25 -289.4 -113.25 -289.15 -113.75 -288.5 -113.9 -288.15 -114.15 -287.15 -114.4 -286.5 -114.75 -281.9 -116.4 -280.65 -115.0 M-301.4 -90.0 L-303.9 -88.4 -304.5 -86.9 -304.5 -86.75 -304.65 -86.65 -305.15 -85.5 -305.25 -85.0 -306.15 -83.0 -306.4 -82.65 -308.25 -78.15 -308.4 -77.9 -309.5 -75.0 -309.75 -74.75 -311.4 -70.65 -311.75 -70.15 -313.0 -66.9 -325.5 -67.25 -326.4 -67.4 -331.0 -67.5 -315.4 -83.75 -301.4 -90.0" fill="#9e0000" fill-opacity="0.9098039" fill-rule="evenodd" stroke="none"/>
    <path d="M-295.5 -93.4 L-295.5 -93.25 -299.4 -91.0 -299.65 -90.9 -299.9 -90.75 -300.0 -90.65 -301.25 -90.0 -301.4 -90.0 -315.4 -83.75 -331.0 -67.5 -335.5 -67.65 -313.75 -86.9 -297.75 -95.75 -295.75 -93.75 -295.5 -93.4" fill="#ae0000" fill-opacity="0.9098039" fill-rule="evenodd" stroke="none"/>
    <path d="M-335.5 -67.65 L-331.0 -67.5 -331.75 -66.65 -332.0 -66.5 -335.15 -64.9 -335.65 -67.0 -335.5 -67.65 M-323.5 -5.5 L-320.9 -3.5 -320.65 -3.25 -320.25 -3.0 -319.9 -2.65 -319.65 -2.5 -319.25 -2.0 -319.5 -1.65 -319.65 -1.5 -320.5 -0.9 -322.25 -0.9 -323.5 -5.5" fill="#cb0000" fill-opacity="0.9098039" fill-rule="evenodd" stroke="none"/>
    <path d="M-335.65 -67.0 L-335.15 -64.9 -335.15 -64.75 -335.25 -64.65 -336.9 -63.75 -335.65 -67.0 M-329.9 -11.75 L-328.75 -12.25 -324.9 -7.25 -324.65 -7.0 -324.65 -6.9 -323.5 -5.5 -322.25 -0.9 -323.4 -0.9 -329.9 -11.75" fill="#cf0000" fill-rule="evenodd" stroke="none"/>
    <path d="M-336.9 -63.75 L-335.25 -64.65 -334.9 -63.25 -334.9 -62.9 -333.4 -54.0 -333.25 -53.65 -334.25 -50.65 -334.25 -50.5 -334.4 -50.15 -334.5 -49.75 -334.65 -49.4 -334.75 -49.25 -335.75 -46.25 -336.15 -39.9 -336.4 -38.65 -335.75 -32.25 -335.25 -30.4 -335.25 -29.75 -332.25 -21.25 -332.15 -21.15 -332.15 -21.0 -332.0 -20.65 -331.9 -20.5 -331.9 -20.25 -331.75 -19.75 -331.65 -19.75 -331.65 -19.4 -331.5 -19.4 -331.5 -19.25 -328.75 -12.25 -329.9 -11.75 -334.9 -20.25 -345.25 -37.4 -345.4 -37.4 -345.5 -37.65 -345.65 -37.9 -345.75 -38.4 -342.5 -47.4 -342.65 -47.65 -342.25 -48.25 -339.25 -56.75 -339.4 -57.0 -338.9 -58.0 -337.5 -61.75 -337.65 -62.0 -337.4 -62.4 -337.15 -63.4 -337.25 -63.4 -336.9 -63.75" fill="#cd0000" fill-rule="evenodd" stroke="none"/>
    <path d="M-184.15 -19.5 L-184.0 -19.9 -183.9 -21.65 -183.65 -22.0 -183.5 -22.5 -183.15 -24.65 -183.15 -25.15 -183.0 -25.4 -182.75 -26.9 -182.65 -27.15 -182.75 -27.65 -182.5 -28.25 -181.9 -31.9 -181.65 -33.25 -181.65 -33.75 -181.5 -34.0 -181.0 -36.75 -180.65 -39.0 -180.75 -39.5 -180.65 -39.5 -180.0 -42.5 -180.0 -42.9 -179.9 -43.25 -178.9 -48.9 -178.9 -49.65 -178.65 -50.4 -178.4 -51.75 -178.4 -52.15 -178.25 -52.5 -177.65 -56.15 -177.5 -56.75 -177.5 -57.65 -177.25 -58.25 -177.0 -59.65 -176.9 -63.15 -177.15 -63.75 -176.9 -66.0 -177.25 -67.0 -177.4 -67.15 -177.25 -67.25 -177.5 -85.15 -175.9 -82.15 -175.5 -80.75 -167.0 -62.9 -167.0 -62.25 -159.5 -46.15 -159.25 -46.0 -158.4 -43.9 -158.5 -43.5 -170.75 -39.5 -170.75 -29.25 -170.65 -28.5 -170.75 -26.75 -170.65 -26.4 -170.25 -17.9 -184.15 -19.5" fill="#d30000" fill-opacity="0.9098039" fill-rule="evenodd" stroke="none"/>
    <path d="M-319.25 -2.0 L-319.15 -2.15 -318.75 -2.25 -318.4 -2.5 -318.4 -2.65 -317.9 -2.9 -317.75 -3.0 -317.25 -3.4 -316.75 -3.9 -316.65 -3.9 -316.15 -4.4 -316.0 -4.4 -315.5 -4.75 -315.4 -4.9 -314.9 -5.25 -314.75 -5.4 -314.25 -5.75 -314.0 -6.15 -313.65 -6.25 -313.15 -6.65 -313.0 -6.75 -312.5 -7.15 -312.25 -7.5 -311.9 -7.65 -311.4 -8.0 -311.25 -8.15 -310.15 -9.0 -310.0 -9.4 -309.5 -9.5 -309.0 -9.9 -308.9 -10.0 -307.9 -10.75 -307.75 -10.9 -307.25 -11.25 -307.15 -11.4 -305.5 -12.65 -305.4 -12.75 -304.9 -13.15 -304.75 -13.25 -303.75 -14.0 -303.65 -14.15 -303.15 -14.5 -303.0 -14.65 -302.0 -15.4 -301.75 -15.65 -301.65 -15.9 -301.25 -16.0 -299.65 -17.25 -275.9 -18.9 -236.5 -23.75 -236.15 -23.75 -229.9 -24.5 -204.15 -21.75 -203.65 -21.75 -184.15 -19.5 -184.4 -19.15 -187.75 -8.9 -187.75 -8.65 -188.0 -7.9 -188.15 -7.65 -188.25 -7.25 -188.4 -6.9 -188.5 -6.5 -188.65 -6.15 -188.75 -5.75 -188.9 -5.4 -189.0 -5.0 -189.5 -3.9 -189.5 -3.5 -189.65 -3.25 -190.25 -1.4 -190.5 -0.9 -313.5 -0.9 -313.75 -1.0 -317.9 -0.9 -317.9 -1.0 -318.4 -1.4 -319.0 -2.0 -319.25 -2.0" fill="#ad0000" fill-opacity="0.9098039" fill-rule="evenodd" stroke="none"/>
    <path d="M-158.5 -43.5 L-152.75 -12.0 -153.15 -10.65 -153.65 -9.75 -153.9 -9.0 -153.9 -8.75 -154.5 -7.65 -157.25 -16.5 -170.25 -17.9 -170.65 -26.4 -170.75 -26.75 -170.65 -28.5 -170.75 -29.25 -170.75 -39.5 -158.5 -43.5" fill="#e80000" fill-opacity="0.9098039" fill-rule="evenodd" stroke="none"/>
    <path d="M-190.5 -0.9 L-190.25 -1.4 -189.65 -3.25 -189.5 -3.5 -189.5 -3.9 -189.0 -5.0 -188.9 -5.4 -188.75 -5.75 -188.65 -6.15 -188.5 -6.5 -188.4 -6.9 -188.25 -7.25 -188.15 -7.65 -188.0 -7.9 -187.75 -8.65 -187.75 -8.9 -184.4 -19.15 -184.15 -19.5 -170.25 -17.9 -169.9 -0.9 -190.5 -0.9" fill="#d90000" fill-opacity="0.9098039" fill-rule="evenodd" stroke="none"/>
    <path d="M-319.25 -2.0 L-319.0 -2.0 -318.4 -1.4 -317.9 -1.0 -317.9 -0.9 -320.5 -0.9 -319.65 -1.5 -319.5 -1.65 -319.25 -2.0" fill="#bf0000" fill-opacity="0.9098039" fill-rule="evenodd" stroke="none"/>
    <path d="M-337.0 -8.4 L-338.9 -14.4 -338.9 -14.5 -343.0 -28.4 -342.9 -28.5 -345.4 -37.25 -345.4 -37.4 -345.25 -37.4 -334.9 -20.25 -329.9 -11.75 -337.0 -8.4" fill="#fc0000" fill-rule="evenodd" stroke="none"/>
    <path d="M-323.4 -0.9 L-334.9 -0.9 -337.15 -8.15 -337.0 -8.25 -337.0 -8.4 -329.9 -11.75 -323.4 -0.9" fill="#ff0000" fill-rule="evenodd" stroke="none"/>
    <path d="M-153.15 -10.65 L-153.0 -10.15 -153.9 -5.65 -154.5 -6.65 -154.65 -7.0 -154.5 -7.4 -154.5 -7.65 -153.9 -8.75 -153.9 -9.0 -153.65 -9.75 -153.15 -10.65" fill="#ea0000" fill-rule="evenodd" stroke="none"/>
    <path d="M-156.75 -0.9 L-169.9 -0.9 -170.25 -17.9 -157.25 -16.5 -154.5 -7.65 -154.5 -7.4 -154.65 -7.0 -156.75 -0.9" fill="#ef0000" fill-opacity="0.9098039" fill-rule="evenodd" stroke="none"/>
    <path d="M-153.9 -5.65 L-154.15 -4.15 -154.0 -3.9 -154.65 -0.9 -156.75 -0.9 -154.65 -7.0 -154.5 -6.65 -153.9 -5.65" fill="#f00000" fill-rule="evenodd" stroke="none"/>
  </g>
  <defs>
    <radialGradient cx="0" cy="0" gradientTransform="matrix(0.2091, 0.0, 0.0, 0.2091, -178.55, -115.55)" gradientUnits="userSpaceOnUse" id="gradient0" r="819.2" spreadMethod="pad">
      <stop offset="0.0" stop-color="#5b5b5b"/>
      <stop offset="1.0" stop-color="#121212"/>
    </radialGradient>
    <radialGradient cx="0" cy="0" gradientTransform="matrix(0.2171, 0.0, 0.0, 0.2171, -154.0, -108.5)" gradientUnits="userSpaceOnUse" id="gradient1" r="819.2" spreadMethod="pad">
      <stop offset="0.0" stop-color="#414141"/>
      <stop offset="1.0" stop-color="#151515"/>
    </radialGradient>
    <radialGradient cx="0" cy="0" gradientTransform="matrix(0.1885, 0.0, 0.0, 0.1885, -307.55, -154.2)" gradientUnits="userSpaceOnUse" id="gradient2" r="819.2" spreadMethod="pad">
      <stop offset="0.0" stop-color="#7e7e7e"/>
      <stop offset="1.0" stop-color="#000000"/>
    </radialGradient>
    <radialGradient cx="0" cy="0" gradientTransform="matrix(0.1066, 0.0, 0.0, 0.1066, -292.25, -219.1)" gradientUnits="userSpaceOnUse" id="gradient3" r="819.2" spreadMethod="pad">
      <stop offset="0.0" stop-color="#767676"/>
      <stop offset="1.0" stop-color="#767676"/>
    </radialGradient>
    <radialGradient cx="0" cy="0" gradientTransform="matrix(0.0035, 0.0, 0.0, 0.0035, -289.7, -218.35)" gradientUnits="userSpaceOnUse" id="gradient4" r="819.2" spreadMethod="pad">
      <stop offset="0.0" stop-color="#838383"/>
      <stop offset="1.0" stop-color="#838383"/>
    </radialGradient>
    <radialGradient cx="0" cy="0" gradientTransform="matrix(0.1149, 0.0, 0.0, 0.1149, -303.8, -208.1)" gradientUnits="userSpaceOnUse" id="gradient5" r="819.2" spreadMethod="pad">
      <stop offset="0.0" stop-color="#494949"/>
      <stop offset="1.0" stop-color="#282828"/>
    </radialGradient>
    <radialGradient cx="0" cy="0" gradientTransform="matrix(0.0582, 0.0, 0.0, 0.0582, -265.4, -108.2)" gradientUnits="userSpaceOnUse" id="gradient6" r="819.2" spreadMethod="pad">
      <stop offset="0.0" stop-color="#000000"/>
      <stop offset="1.0" stop-color="#000000"/>
    </radialGradient>
    <radialGradient cx="0" cy="0" gradientTransform="matrix(0.1448, 0.0, 0.0, 0.1448, -283.45, -19.7)" gradientUnits="userSpaceOnUse" id="gradient7" r="819.2" spreadMethod="pad">
      <stop offset="0.0" stop-color="#323232"/>
      <stop offset="1.0" stop-color="#000000"/>
    </radialGradient>
    <radialGradient cx="0" cy="0" gradientTransform="matrix(0.1552, 0.0, 0.0, 0.1552, -286.8, -10.9)" gradientUnits="userSpaceOnUse" id="gradient8" r="819.2" spreadMethod="pad">
      <stop offset="0.0" stop-color="#6a6a6a"/>
      <stop offset="1.0" stop-color="#000000"/>
    </radialGradient>
    <radialGradient cx="0" cy="0" gradientTransform="matrix(0.1215, 0.0, 0.0, 0.1215, -170.55, -25.45)" gradientUnits="userSpaceOnUse" id="gradient9" r="819.2" spreadMethod="pad">
      <stop offset="0.0" stop-color="#3f3f3f"/>
      <stop offset="1.0" stop-color="#000000"/>
    </radialGradient>
    <radialGradient cx="0" cy="0" gradientTransform="matrix(0.0817, 0.0, 0.0, 0.0817, -233.6, -33.3)" gradientUnits="userSpaceOnUse" id="gradient10" r="819.2" spreadMethod="pad">
      <stop offset="0.0" stop-color="#878787"/>
      <stop offset="1.0" stop-color="#000000"/>
    </radialGradient>
    <radialGradient cx="0" cy="0" gradientTransform="matrix(0.1074, 0.0, 0.0, 0.1074, -286.8, -10.9)" gradientUnits="userSpaceOnUse" id="gradient11" r="819.2" spreadMethod="pad">
      <stop offset="0.0" stop-color="#6a6a6a"/>
      <stop offset="1.0" stop-color="#000000"/>
    </radialGradient>
    <radialGradient cx="0" cy="0" gradientTransform="matrix(0.0858, 0.0, 0.0, 0.0858, -302.45, -28.85)" gradientUnits="userSpaceOnUse" id="gradient12" r="819.2" spreadMethod="pad">
      <stop offset="0.0" stop-color="#858585"/>
      <stop offset="1.0" stop-color="#000000"/>
    </radialGradient>
    <radialGradient cx="0" cy="0" gradientTransform="matrix(0.0471, 0.0, 0.0, 0.0471, -291.6, -79.9)" gradientUnits="userSpaceOnUse" id="gradient13" r="819.2" spreadMethod="pad">
      <stop offset="0.0" stop-color="#000000"/>
      <stop offset="1.0" stop-color="#000000"/>
    </radialGradient>
    <radialGradient cx="0" cy="0" gradientTransform="matrix(0.0044, 0.0, 0.0, 0.0044, -209.95, -231.7)" gradientUnits="userSpaceOnUse" id="gradient14" r="819.2" spreadMethod="pad">
      <stop offset="0.0" stop-color="#bbbbbb"/>
      <stop offset="1.0" stop-color="#bababa"/>
    </radialGradient>
    <radialGradient cx="0" cy="0" gradientTransform="matrix(0.0399, 0.0, 0.0, 0.0399, -209.95, -231.7)" gradientUnits="userSpaceOnUse" id="gradient15" r="819.2" spreadMethod="pad">
      <stop offset="0.0" stop-color="#767676"/>
      <stop offset="1.0" stop-color="#767676"/>
    </radialGradient>
    <radialGradient cx="0" cy="0" gradientTransform="matrix(0.0097, 0.0, 0.0, 0.0097, -242.15, -226.15)" gradientUnits="userSpaceOnUse" id="gradient16" r="819.2" spreadMethod="pad">
      <stop offset="0.0" stop-color="#8b8b8b"/>
      <stop offset="1.0" stop-color="#8b8b8b"/>
    </radialGradient>
    <radialGradient cx="0" cy="0" gradientTransform="matrix(0.0035, 0.0, 0.0, 0.0035, -249.7, -228.8)" gradientUnits="userSpaceOnUse" id="gradient17" r="819.2" spreadMethod="pad">
      <stop offset="0.0" stop-color="#8c8c8c"/>
      <stop offset="1.0" stop-color="#8c8c8c"/>
    </radialGradient>
    <radialGradient cx="0" cy="0" gradientTransform="matrix(0.0036, 0.0, 0.0, 0.0036, -252.55, -228.3)" gradientUnits="userSpaceOnUse" id="gradient18" r="819.2" spreadMethod="pad">
      <stop offset="0.0" stop-color="#e2e2e2"/>
      <stop offset="1.0" stop-color="#e0e0e0"/>
    </radialGradient>
    <radialGradient cx="0" cy="0" gradientTransform="matrix(0.0103, 0.0, 0.0, 0.0103, -259.45, -223.35)" gradientUnits="userSpaceOnUse" id="gradient19" r="819.2" spreadMethod="pad">
      <stop offset="0.0" stop-color="#e1e1e1"/>
      <stop offset="1.0" stop-color="#dfdfdf"/>
    </radialGradient>
    <radialGradient cx="0" cy="0" gradientTransform="matrix(0.0374, 0.0, 0.0, 0.0374, -259.45, -223.35)" gradientUnits="userSpaceOnUse" id="gradient20" r="819.2" spreadMethod="pad">
      <stop offset="0.0" stop-color="#767676"/>
      <stop offset="1.0" stop-color="#767676"/>
    </radialGradient>
    <radialGradient cx="0" cy="0" gradientTransform="matrix(0.0375, 0.0, 0.0, 0.0375, -236.6, -188.05)" gradientUnits="userSpaceOnUse" id="gradient21" r="819.2" spreadMethod="pad">
      <stop offset="0.0" stop-color="#ff5151"/>
      <stop offset="1.0" stop-color="#330000"/>
    </radialGradient>
    <radialGradient cx="0" cy="0" gradientTransform="matrix(0.0359, 0.0, 0.0, 0.0359, -236.1, -187.85)" gradientUnits="userSpaceOnUse" id="gradient22" r="819.2" spreadMethod="pad">
      <stop offset="0.0" stop-color="#ff5151"/>
      <stop offset="1.0" stop-color="#ff4c4c"/>
    </radialGradient>
    <radialGradient cx="0" cy="0" gradientTransform="matrix(0.0387, 0.0, 0.0, 0.0387, -235.4, -182.05)" gradientUnits="userSpaceOnUse" id="gradient23" r="819.2" spreadMethod="pad">
      <stop offset="0.0" stop-color="#f89797"/>
      <stop offset="1.0" stop-color="#4e0000"/>
    </radialGradient>
    <radialGradient cx="0" cy="0" gradientTransform="matrix(0.0284, 0.0, 0.0, 0.0284, -243.2, -178.3)" gradientUnits="userSpaceOnUse" id="gradient24" r="819.2" spreadMethod="pad">
      <stop offset="0.0" stop-color="#ff3030"/>
      <stop offset="1.0" stop-color="#ff2d2d"/>
    </radialGradient>
    <radialGradient cx="0" cy="0" gradientTransform="matrix(0.0804, 0.0, 0.0, 0.0804, -163.9, -72.8)" gradientUnits="userSpaceOnUse" id="gradient25" r="819.2" spreadMethod="pad">
      <stop offset="0.0" stop-color="#595959"/>
      <stop offset="1.0" stop-color="#000000"/>
    </radialGradient>
    <radialGradient cx="0" cy="0" gradientTransform="matrix(0.0377, 0.0, 0.0, 0.0377, -313.9, -114.5)" gradientUnits="userSpaceOnUse" id="gradient26" r="819.2" spreadMethod="pad">
      <stop offset="0.0" stop-color="#191919"/>
      <stop offset="1.0" stop-color="#0d0d0d"/>
    </radialGradient>
    <radialGradient cx="0" cy="0" gradientTransform="matrix(0.0201, 0.0, 0.0, 0.0201, -168.45, -97.45)" gradientUnits="userSpaceOnUse" id="gradient27" r="819.2" spreadMethod="pad">
      <stop offset="0.0" stop-color="#000000"/>
      <stop offset="1.0" stop-color="#000000"/>
    </radialGradient>
    <radialGradient cx="0" cy="0" gradientTransform="matrix(0.1079, 0.0, 0.0, 0.1079, -138.65, -72.75)" gradientUnits="userSpaceOnUse" id="gradient28" r="819.2" spreadMethod="pad">
      <stop offset="0.0" stop-color="#616161"/>
      <stop offset="1.0" stop-color="#000000"/>
    </radialGradient>
    <radialGradient cx="0" cy="0" gradientTransform="matrix(0.0417, 0.0, 0.0, 0.0417, -321.45, -67.75)" gradientUnits="userSpaceOnUse" id="gradient29" r="819.2" spreadMethod="pad">
      <stop offset="0.0" stop-color="#000000"/>
      <stop offset="1.0" stop-color="#000000"/>
    </radialGradient>
    <radialGradient cx="0" cy="0" gradientTransform="matrix(0.1098, 0.0, 0.0, 0.1098, -367.0, -10.25)" gradientUnits="userSpaceOnUse" id="gradient30" r="819.2" spreadMethod="pad">
      <stop offset="0.0" stop-color="#6a6a6a"/>
      <stop offset="1.0" stop-color="#000000"/>
    </radialGradient>
    <radialGradient cx="0" cy="0" gradientTransform="matrix(0.033, 0.0, 0.0, 0.033, -310.05, -78.55)" gradientUnits="userSpaceOnUse" id="gradient31" r="819.2" spreadMethod="pad">
      <stop offset="0.0" stop-color="#0d0d0d"/>
      <stop offset="1.0" stop-color="#000000"/>
    </radialGradient>
    <radialGradient cx="0" cy="0" gradientTransform="matrix(0.1137, 0.0, 0.0, 0.1137, -388.8, -28.7)" gradientUnits="userSpaceOnUse" id="gradient32" r="819.2" spreadMethod="pad">
      <stop offset="0.0" stop-color="#0f0f0f"/>
      <stop offset="1.0" stop-color="#040404"/>
    </radialGradient>
    <radialGradient cx="0" cy="0" gradientTransform="matrix(0.0369, 0.0, 0.0, 0.0369, -2.7, -88.0)" gradientUnits="userSpaceOnUse" id="gradient33" r="819.2" spreadMethod="pad">
      <stop offset="0.0" stop-color="#000000"/>
      <stop offset="1.0" stop-color="#000000"/>
    </radialGradient>
    <radialGradient cx="0" cy="0" gradientTransform="matrix(0.0025, 0.0, 0.0, 0.0025, -2.7, -88.0)" gradientUnits="userSpaceOnUse" id="gradient34" r="819.2" spreadMethod="pad">
      <stop offset="0.0" stop-color="#000000"/>
      <stop offset="1.0" stop-color="#000000"/>
    </radialGradient>
    <radialGradient cx="0" cy="0" gradientTransform="matrix(0.085, 0.0, 0.0, 0.085, -5.05, -36.85)" gradientUnits="userSpaceOnUse" id="gradient35" r="819.2" spreadMethod="pad">
      <stop offset="0.0" stop-color="#161616"/>
      <stop offset="1.0" stop-color="#000000"/>
    </radialGradient>
    <radialGradient cx="0" cy="0" gradientTransform="matrix(0.0291, 0.0, 0.0, 0.0291, -1.0, -86.85)" gradientUnits="userSpaceOnUse" id="gradient36" r="819.2" spreadMethod="pad">
      <stop offset="0.0" stop-color="#000000"/>
      <stop offset="1.0" stop-color="#000000"/>
    </radialGradient>
    <radialGradient cx="0" cy="0" gradientTransform="matrix(0.0407, 0.0, 0.0, 0.0407, -331.0, -19.7)" gradientUnits="userSpaceOnUse" id="gradient37" r="819.2" spreadMethod="pad">
      <stop offset="0.0" stop-color="#000000"/>
      <stop offset="1.0" stop-color="#000000"/>
    </radialGradient>
    <radialGradient cx="0" cy="0" gradientTransform="matrix(0.0178, 0.0, 0.0, 0.0178, -5.05, -36.85)" gradientUnits="userSpaceOnUse" id="gradient38" r="819.2" spreadMethod="pad">
      <stop offset="0.0" stop-color="#161616"/>
      <stop offset="1.0" stop-color="#0f0f0f"/>
    </radialGradient>
    <radialGradient cx="0" cy="0" gradientTransform="matrix(0.027, 0.0, 0.0, 0.027, -5.05, -36.85)" gradientUnits="userSpaceOnUse" id="gradient39" r="819.2" spreadMethod="pad">
      <stop offset="0.0" stop-color="#161616"/>
      <stop offset="1.0" stop-color="#0b0b0b"/>
    </radialGradient>
    <radialGradient cx="0" cy="0" gradientTransform="matrix(0.0444, 0.0, 0.0, 0.0444, -163.9, -72.8)" gradientUnits="userSpaceOnUse" id="gradient40" r="819.2" spreadMethod="pad">
      <stop offset="0.0" stop-color="#595959"/>
      <stop offset="1.0" stop-color="#070707"/>
    </radialGradient>
    <radialGradient cx="0" cy="0" gradientTransform="matrix(0.0307, 0.0, 0.0, 0.0307, -54.0, -25.15)" gradientUnits="userSpaceOnUse" id="gradient41" r="819.2" spreadMethod="pad">
      <stop offset="0.0" stop-color="#000000"/>
      <stop offset="1.0" stop-color="#000000"/>
    </radialGradient>
    <radialGradient cx="0" cy="0" gradientTransform="matrix(0.1013, 0.0, 0.0, 0.1013, -74.1, -27.8)" gradientUnits="userSpaceOnUse" id="gradient42" r="819.2" spreadMethod="pad">
      <stop offset="0.0" stop-color="#000000"/>
      <stop offset="1.0" stop-color="#000000"/>
    </radialGradient>
    <radialGradient cx="0" cy="0" gradientTransform="matrix(0.0374, 0.0, 0.0, 0.0374, -170.05, -1.0)" gradientUnits="userSpaceOnUse" id="gradient43" r="819.2" spreadMethod="pad">
      <stop offset="0.0" stop-color="#1f1f1f"/>
      <stop offset="1.0" stop-color="#000000"/>
    </radialGradient>
  </defs>
</svg>
