<?xml version="1.0" encoding="UTF-8" standalone="no"?>
<svg xmlns:xlink="http://www.w3.org/1999/xlink" height="288.35px" width="399.1px" xmlns="http://www.w3.org/2000/svg">
  <g transform="matrix(1.0, 0.0, 0.0, 1.0, 400.0, 289.25)">
    <path d="M-300.0 -140.65 L-300.25 -141.15 -298.9 -145.0 -305.65 -155.65 -307.4 -157.75 -307.0 -158.0 -299.65 -154.0 -305.65 -166.15 -306.4 -166.75 -306.15 -167.65 -306.4 -181.65 -309.5 -189.15 -310.9 -191.5 -309.25 -209.75 -308.75 -210.4 -303.25 -225.9 -297.75 -244.4 -297.4 -244.5 -288.0 -230.15 -297.15 -202.0 -297.5 -191.9 -292.65 -171.0 -292.65 -170.9 -290.0 -160.25 -284.25 -150.9 -277.25 -142.65 -277.0 -142.4 -271.15 -135.4 -265.4 -130.75 -280.4 -122.65 -290.4 -131.5 -296.9 -138.15 -300.0 -140.65 M-261.4 -281.15 L-239.5 -286.25 -223.15 -289.25 -226.5 -273.25 -214.5 -280.9 -203.5 -287.15 -203.15 -287.15 -204.65 -276.25 -228.65 -271.5 -230.15 -271.4 -234.0 -271.25 -235.75 -270.75 -242.75 -268.0 -243.25 -267.75 -245.4 -268.15 -251.25 -267.4 -275.25 -262.65 -277.75 -261.15 -277.9 -260.65 -280.4 -246.75 -279.4 -244.25 -278.65 -243.9 -280.75 -241.9 -284.75 -236.9 -283.9 -256.15 -272.0 -268.75 -261.4 -281.15 M-142.0 -189.0 L-140.4 -187.5 -140.65 -187.0 -142.15 -186.25 -142.0 -189.0 M-147.15 -162.15 L-148.25 -154.65 -152.75 -143.75 -154.9 -136.5 -160.5 -138.0 -162.65 -138.5 -157.9 -144.9 -147.15 -162.15" fill="url(#gradient0)" fill-rule="evenodd" stroke="none"/>
    <path d="M-223.15 -289.25 L-215.75 -289.15 -198.4 -287.5 -179.9 -281.75 -164.15 -273.15 -149.4 -260.65 -137.65 -245.65 -129.0 -228.25 -124.15 -210.25 -122.9 -190.9 -125.4 -171.4 -131.5 -153.5 -141.15 -136.9 -144.25 -133.4 -154.9 -136.5 -152.75 -143.75 -148.25 -154.65 -147.15 -162.15 -144.9 -173.5 -153.75 -178.9 -142.15 -186.25 -140.65 -187.0 -140.4 -187.5 -142.0 -189.0 -148.4 -196.5 -149.5 -197.4 -153.25 -180.25 -153.75 -179.25 -159.15 -208.65 -195.9 -259.5 -197.75 -261.9 -205.15 -272.15 -204.65 -276.25 -203.15 -287.15 -203.5 -287.15 -214.5 -280.9 -226.5 -273.25 -223.15 -289.25" fill="url(#gradient1)" fill-rule="evenodd" stroke="none"/>
    <path d="M-204.65 -276.25 L-205.15 -272.15 -197.75 -261.9 -198.65 -261.5 -230.65 -255.15 -238.25 -257.4 -239.65 -257.75 -241.0 -256.9 -247.9 -251.9 -277.9 -246.15 -280.4 -246.75 -277.9 -260.65 -277.75 -261.15 -275.25 -262.65 -251.25 -267.4 -245.4 -268.15 -243.25 -267.75 -238.65 -266.75 Q-234.4 -270.9 -230.15 -271.4 L-228.65 -271.5 -204.65 -276.25" fill="url(#gradient2)" fill-rule="evenodd" stroke="none"/>
    <path d="M-195.9 -259.5 L-159.15 -208.65 -153.75 -179.25 -153.25 -180.25 -149.5 -197.4 -148.4 -196.5 -142.0 -189.0 -142.15 -186.25 -153.75 -178.9 -144.9 -173.5 -147.15 -162.15 -157.9 -144.9 -162.65 -138.5 -197.9 -144.75 -202.15 -145.75 -212.9 -153.75 -246.75 -148.65 -251.4 -138.9 -251.65 -138.5 -255.15 -136.15 -255.25 -136.15 -265.4 -130.75 -271.15 -135.4 -277.0 -142.4 -277.25 -142.65 -284.25 -150.9 -290.0 -160.25 -292.65 -170.9 -292.65 -171.0 -297.5 -191.9 -297.15 -202.0 -288.0 -230.15 Q-286.0 -226.75 -285.15 -226.9 L-284.75 -236.9 -280.75 -241.9 -278.65 -243.9 -276.9 -243.5 -246.9 -249.15 -240.0 -254.15 -238.65 -255.0 -237.4 -254.65 -229.9 -252.4 -197.9 -258.65 -195.9 -259.5 M-243.25 -267.75 L-242.75 -268.0 -235.75 -270.75 -234.0 -271.25 -230.15 -271.4 Q-234.4 -270.9 -238.65 -266.75 L-243.25 -267.75 M-237.4 -205.15 Q-220.4 -211.25 -219.5 -215.4 L-254.25 -209.0 Q-251.0 -205.25 -237.4 -205.15 M-250.1 -213.7 L-252.15 -212.15 -254.15 -211.0 -253.5 -210.9 -220.4 -217.25 -229.75 -219.9 -232.25 -220.0 Q-235.65 -219.65 -238.15 -217.9 L-242.4 -218.0 -246.15 -216.75 -248.05 -215.3 -250.1 -213.7" fill="url(#gradient3)" fill-rule="evenodd" stroke="none"/>
    <path d="M-197.75 -261.9 L-195.9 -259.5 -197.9 -258.65 -198.65 -261.5 -197.75 -261.9" fill="url(#gradient4)" fill-rule="evenodd" stroke="none"/>
    <path d="M-229.9 -252.4 L-230.65 -255.15 -198.65 -261.5 -197.9 -258.65 -229.9 -252.4" fill="url(#gradient5)" fill-rule="evenodd" stroke="none"/>
    <path d="M-229.9 -252.4 L-237.4 -254.65 -238.25 -257.4 -230.65 -255.15 -229.9 -252.4" fill="url(#gradient6)" fill-rule="evenodd" stroke="none"/>
    <path d="M-238.25 -257.4 L-237.4 -254.65 -238.65 -255.0 -239.65 -257.75 -238.25 -257.4" fill="url(#gradient7)" fill-rule="evenodd" stroke="none"/>
    <path d="M-238.65 -255.0 L-240.0 -254.15 -241.0 -256.9 -239.65 -257.75 -238.65 -255.0" fill="url(#gradient8)" fill-rule="evenodd" stroke="none"/>
    <path d="M-240.0 -254.15 L-246.9 -249.15 -247.9 -251.9 -241.0 -256.9 -240.0 -254.15" fill="url(#gradient9)" fill-rule="evenodd" stroke="none"/>
    <path d="M-246.9 -249.15 L-276.9 -243.5 -277.9 -246.15 -247.9 -251.9 -246.9 -249.15" fill="url(#gradient10)" fill-rule="evenodd" stroke="none"/>
    <path d="M-276.9 -243.5 L-278.65 -243.9 -279.4 -244.25 -280.4 -246.75 -277.9 -246.15 -276.9 -243.5" fill="url(#gradient11)" fill-rule="evenodd" stroke="none"/>
    <path d="M-300.25 -141.15 L-306.15 -151.0 -311.25 -162.65 -311.15 -163.0 -311.65 -163.5 -315.0 -177.15 -316.5 -193.0 -315.75 -202.5 -313.65 -218.15 -302.65 -243.65 -292.25 -258.5 -277.9 -271.75 -261.4 -281.15 -272.0 -268.75 -283.9 -256.15 -284.75 -236.9 -285.15 -226.9 Q-286.0 -226.75 -288.0 -230.15 L-297.4 -244.5 -297.75 -244.4 -303.25 -225.9 -308.75 -210.4 -309.25 -209.75 -310.9 -191.5 -309.5 -189.15 -306.4 -181.65 -306.15 -167.65 -306.4 -166.75 -305.65 -166.15 -299.65 -154.0 -307.0 -158.0 -307.4 -157.75 -305.65 -155.65 -298.9 -145.0 -300.25 -141.15" fill="url(#gradient12)" fill-rule="evenodd" stroke="none"/>
    <path d="M-265.4 -130.75 L-255.25 -136.15 -255.15 -135.65 -271.4 -123.0 -278.0 -122.9 -281.9 -121.75 -281.9 -121.65 -282.0 -121.65 -281.9 -121.75 -280.4 -122.65 -265.4 -130.75" fill="url(#gradient13)" fill-rule="evenodd" stroke="none"/>
    <path d="M-255.25 -136.15 L-255.15 -136.15 -251.65 -138.5 -252.5 -136.65 -252.65 -136.4 -253.9 -135.75 -255.15 -135.65 -255.25 -136.15 M-202.15 -145.75 L-197.9 -144.75 -199.0 -144.65 -199.25 -144.0 -200.5 -144.25 -202.15 -145.75" fill="url(#gradient14)" fill-rule="evenodd" stroke="none"/>
    <path d="M-251.65 -138.5 L-251.4 -138.9 -246.75 -148.65 -212.9 -153.75 -202.15 -145.75 -200.5 -144.25 -183.5 -124.15 -182.65 -123.5 -182.5 -122.75 Q-185.75 -127.15 -201.5 -129.75 L-216.0 -129.5 -228.5 -125.65 -232.65 -123.15 -239.15 -118.4 -239.4 -118.15 -241.5 -116.65 -244.5 -112.65 -244.25 -109.9 -244.5 -109.15 -245.65 -107.5 -247.9 -99.15 -247.0 -91.4 -243.25 -85.25 Q-244.25 -83.9 -240.25 -73.5 L-233.65 -65.5 -229.15 -62.65 -215.75 -60.25 -205.25 -51.9 -203.5 -51.0 -215.9 -54.0 -270.25 -47.5 -280.75 -37.9 -279.25 -40.75 -277.4 -45.9 -277.15 -50.15 -276.65 -51.9 -273.75 -54.75 Q-271.5 -60.75 -266.25 -64.25 L-260.75 -73.75 -259.0 -83.4 -256.9 -86.0 -252.5 -92.75 -250.15 -100.9 -251.15 -108.5 -247.65 -112.0 -247.0 -113.0 Q-246.15 -117.65 -251.4 -120.0 L-264.4 -123.15 -265.75 -123.0 -253.9 -135.75 -252.65 -136.4 -252.5 -136.65 -251.65 -138.5 M-189.65 -47.4 L-184.9 -47.75 -182.5 -49.25 -183.15 -45.65 -189.65 -47.4 M-288.65 -31.9 L-288.75 -32.5 -285.5 -33.25 -288.15 -31.0 -288.65 -31.9" fill="url(#gradient15)" fill-rule="evenodd" stroke="none"/>
    <path d="M-156.25 -72.4 L-154.4 -36.25 -157.65 -46.4 -183.15 -45.65 -182.5 -49.25 -178.65 -49.15 -172.15 -52.4 -166.15 -59.25 -165.0 -61.4 -161.4 -62.5 -159.0 -67.25 -158.15 -86.65 -156.75 -82.9 -156.25 -72.4 M-200.5 -144.25 L-199.25 -144.0 -162.15 -119.15 -160.25 -96.5 -162.65 -101.65 -168.75 -110.9 -173.65 -117.15 -182.5 -122.75 -182.65 -123.5 -183.5 -124.15 -200.5 -144.25" fill="url(#gradient16)" fill-rule="evenodd" stroke="none"/>
    <path d="M-160.25 -96.5 L-159.5 -94.25 -158.4 -87.5 -158.15 -86.9 -158.15 -86.65 -159.0 -67.25 -161.4 -62.5 -165.0 -61.4 -166.15 -59.25 -172.15 -52.4 -178.65 -49.15 -182.5 -49.25 -184.9 -47.75 -189.65 -47.4 -191.5 -47.4 -198.4 -48.9 -203.5 -51.0 -205.25 -51.9 -215.75 -60.25 -229.15 -62.65 -233.65 -65.5 -240.25 -73.5 Q-244.25 -83.9 -243.25 -85.25 L-247.0 -91.4 -247.9 -99.15 -245.65 -107.5 -244.5 -109.15 -244.25 -109.9 -244.5 -112.65 -241.5 -116.65 -239.4 -118.15 -239.15 -118.4 -232.65 -123.15 -228.5 -125.65 -216.0 -129.5 -201.5 -129.75 Q-185.75 -127.15 -182.5 -122.75 L-173.65 -117.15 -168.75 -110.9 -162.65 -101.65 -160.25 -96.5" fill="url(#gradient17)" fill-rule="evenodd" stroke="none"/>
    <path d="M-194.4 -0.9 L-284.4 -0.9 -287.75 -26.9 -287.9 -30.25 -288.25 -30.75 -288.15 -31.0 -285.5 -33.25 -283.4 -34.9 -280.75 -37.9 -270.25 -47.5 -215.9 -54.0 -203.5 -51.0 -198.4 -48.9 -191.5 -47.4 -189.65 -47.4 -183.15 -45.65 -194.4 -0.9" fill="url(#gradient18)" fill-rule="evenodd" stroke="none"/>
    <path d="M-297.9 -32.4 L-300.65 -34.4 -307.5 -40.65 -309.9 -43.5 -312.25 -46.4 -314.15 -51.0 Q-324.75 -73.15 -317.0 -87.5 L-313.65 -97.15 -310.5 -102.5 -309.4 -104.25 -304.25 -109.25 -304.0 -109.4 -303.75 -109.65 -301.25 -111.65 -298.4 -113.9 -298.25 -114.0 -298.0 -114.25 Q-295.9 -116.75 -289.5 -119.4 L-283.0 -121.25 -283.0 -121.4 -282.65 -121.4 -282.25 -121.5 -282.0 -121.65 -281.9 -121.65 -281.9 -121.75 -278.0 -122.9 -271.4 -123.0 -265.75 -123.0 -264.4 -123.15 -251.4 -120.0 Q-246.15 -117.65 -247.0 -113.0 L-247.65 -112.0 -251.15 -108.5 -250.15 -100.9 -252.5 -92.75 -256.9 -86.0 -259.0 -83.4 -260.75 -73.75 -266.25 -64.25 Q-271.5 -60.75 -273.75 -54.75 L-276.65 -51.9 -277.15 -50.15 -277.4 -45.9 -279.25 -40.75 -280.75 -37.9 -283.4 -34.9 -285.5 -33.25 -288.75 -32.5 -288.65 -31.9 -289.4 -30.5 -290.9 -29.5 -292.9 -29.65 -295.25 -30.65 -297.9 -32.4" fill="url(#gradient19)" fill-rule="evenodd" stroke="none"/>
    <path d="M-255.15 -135.65 L-253.9 -135.75 -265.75 -123.0 -271.4 -123.0 -255.15 -135.65" fill="url(#gradient20)" fill-rule="evenodd" stroke="none"/>
    <path d="M-248.05 -215.3 L-246.15 -216.75 -242.4 -218.0 -238.15 -217.9 Q-235.65 -219.65 -232.25 -220.0 L-229.75 -219.9 -220.4 -217.25 -253.5 -210.9 -254.15 -211.0 -252.15 -212.15 -250.1 -213.7 -250.65 -212.9 -252.5 -211.9 -251.9 -211.75 -222.4 -217.4 -230.25 -219.65 -232.65 -219.65 -235.5 -219.0 -238.65 -217.5 -242.4 -217.75 -246.4 -216.4 -248.05 -215.3" fill="url(#gradient21)" fill-rule="evenodd" stroke="none"/>
    <path d="M-248.05 -215.3 L-246.4 -216.4 -242.4 -217.75 -238.65 -217.5 -235.5 -219.0 -232.65 -219.65 -230.25 -219.65 -222.4 -217.4 -251.9 -211.75 -252.5 -211.9 -250.65 -212.9 -250.1 -213.7 -248.05 -215.3" fill="url(#gradient22)" fill-rule="evenodd" stroke="none"/>
    <path d="M-237.4 -205.15 Q-251.0 -205.25 -254.25 -209.0 L-219.5 -215.4 Q-220.4 -211.25 -237.4 -205.15 M-237.4 -205.75 Q-222.15 -211.25 -220.9 -214.9 L-253.9 -209.0 Q-246.9 -205.25 -237.4 -205.75" fill="url(#gradient23)" fill-rule="evenodd" stroke="none"/>
    <path d="M-237.4 -205.75 Q-246.9 -205.25 -253.9 -209.0 L-220.9 -214.9 Q-222.15 -211.25 -237.4 -205.75" fill="url(#gradient24)" fill-rule="evenodd" stroke="none"/>
    <path d="M-197.9 -144.75 L-162.65 -138.5 -160.5 -138.0 -154.9 -130.0 -149.9 -107.15 -150.0 -106.25 -159.5 -94.25 -160.25 -96.5 -162.15 -119.15 -199.25 -144.0 -199.0 -144.65 -197.9 -144.75" fill="url(#gradient25)" fill-rule="evenodd" stroke="none"/>
    <path d="M-144.25 -133.4 L-138.4 -131.65 -154.9 -130.0 -160.5 -138.0 -154.9 -136.5 -144.25 -133.4" fill="url(#gradient26)" fill-rule="evenodd" stroke="none"/>
    <path d="M-138.4 -131.65 L-103.9 -124.15 -76.75 -119.9 -36.15 -111.9 -48.4 -91.75 -59.4 -64.65 -75.75 -64.5 -93.4 -68.15 -115.75 -75.25 -140.4 -79.0 -140.65 -79.15 -141.25 -80.15 -150.0 -106.25 -149.9 -107.15 -154.9 -130.0 -138.4 -131.65" fill="url(#gradient27)" fill-rule="evenodd" stroke="none"/>
    <path d="M-283.0 -121.4 L-292.75 -131.15 -300.0 -140.65 -296.9 -138.15 -290.4 -131.5 -280.4 -122.65 -281.9 -121.75 -282.0 -121.65 -282.25 -121.5 -282.65 -121.4 -283.0 -121.4" fill="url(#gradient28)" fill-rule="evenodd" stroke="none"/>
    <path d="M-301.0 -112.65 L-298.0 -114.25 -298.25 -114.0 -298.4 -113.9 -301.25 -111.65 -301.0 -112.65" fill="url(#gradient29)" fill-rule="evenodd" stroke="none"/>
    <path d="M-400.0 -37.5 L-400.0 -41.4 -396.25 -43.5 -394.75 -44.4 -394.4 -44.65 -394.15 -44.75 -393.5 -45.15 -393.25 -45.25 -392.25 -45.9 -392.15 -46.0 -391.5 -46.4 -391.25 -46.5 -389.4 -47.65 -389.25 -47.65 -384.15 -50.4 -383.4 -51.15 -382.4 -51.4 -374.9 -56.15 -374.75 -56.4 -374.5 -56.4 -374.25 -56.65 -374.15 -56.65 -373.75 -57.0 -373.65 -57.0 -372.15 -58.0 -371.9 -58.25 -371.5 -58.5 -371.4 -58.5 -318.25 -94.4 -318.25 -94.5 -310.5 -102.5 -313.65 -97.15 -317.0 -87.5 Q-324.75 -73.15 -314.15 -51.0 L-316.15 -50.0 -331.0 -40.0 -355.0 -22.65 -356.65 -18.75 -377.25 -14.75 -395.5 -33.4 -400.0 -37.5 M-304.25 -109.25 L-301.0 -112.65 -301.25 -111.65 -303.75 -109.65 -304.0 -109.4 -304.25 -109.25" fill="url(#gradient30)" fill-rule="evenodd" stroke="none"/>
    <path d="M-0.9 -117.5 L-8.4 -113.4 -13.25 -113.0 -13.5 -113.0 -1.4 -121.0 -0.9 -121.15 -0.9 -117.5" fill="url(#gradient31)" fill-rule="evenodd" stroke="none"/>
    <path d="M-0.9 -117.5 L-0.9 -112.75 -8.4 -113.4 -0.9 -117.5" fill="url(#gradient32)" fill-rule="evenodd" stroke="none"/>
    <path d="M-8.4 -113.4 L-0.9 -112.75 -0.9 -66.4 -4.65 -63.75 -4.9 -63.5 -5.25 -63.25 -5.5 -63.15 -5.75 -62.9 -7.9 -61.4 -34.15 -63.0 -58.65 -64.5 -59.4 -64.65 -48.4 -91.75 -36.15 -111.9 -13.5 -113.0 -13.25 -113.0 -8.4 -113.4" fill="url(#gradient33)" fill-rule="evenodd" stroke="none"/>
    <path d="M-371.4 -58.5 L-345.65 -77.15 -320.5 -93.4 -318.25 -94.5 -318.25 -94.4 -371.4 -58.5" fill="url(#gradient34)" fill-rule="evenodd" stroke="none"/>
    <path d="M-138.65 -78.25 L-156.25 -72.4 -156.75 -82.9 -158.15 -86.65 -158.15 -86.9 -158.4 -87.5 -159.5 -94.25 -150.0 -106.25 -141.25 -80.15 -140.65 -79.15 -140.4 -79.0 -138.65 -78.25" fill="url(#gradient35)" fill-rule="evenodd" stroke="none"/>
    <path d="M-39.25 -60.75 L-81.4 -55.9 -109.75 -67.65 -138.65 -78.25 -140.4 -79.0 -115.75 -75.25 -93.4 -68.15 -75.75 -64.5 -59.4 -64.65 -58.65 -64.5 -39.25 -60.75" fill="url(#gradient36)" fill-rule="evenodd" stroke="none"/>
    <path d="M-309.9 -43.5 L-335.0 -30.65 -352.25 -20.0 -356.65 -18.75 -355.0 -22.65 -331.0 -40.0 -316.15 -50.0 -314.15 -51.0 -312.25 -46.4 -309.9 -43.5" fill="url(#gradient37)" fill-rule="evenodd" stroke="none"/>
    <path d="M-352.25 -20.0 L-367.5 -0.9 -371.9 -0.9 -377.2 -14.1 -377.25 -14.15 -377.25 -14.75 -356.65 -18.75 -352.25 -20.0" fill="url(#gradient38)" fill-rule="evenodd" stroke="none"/>
    <path d="M-34.15 -63.0 L-39.25 -60.75 -58.65 -64.5 -34.15 -63.0" fill="url(#gradient39)" fill-rule="evenodd" stroke="none"/>
    <path d="M-374.4 -56.65 L-374.25 -56.65 -373.75 -57.0 -374.15 -56.65 -374.25 -56.65 -374.5 -56.4 -374.4 -56.65" fill="url(#gradient40)" fill-rule="evenodd" stroke="none"/>
    <path d="M-389.25 -47.65 L-374.75 -56.4 -374.4 -56.65 -374.5 -56.4 -374.75 -56.4 -374.9 -56.15 -382.4 -51.4 -383.4 -51.15 -384.15 -50.4 -389.25 -47.65" fill="url(#gradient41)" fill-rule="evenodd" stroke="none"/>
    <path d="M-376.5 -0.9 L-400.0 -0.9 -400.0 -37.5 -395.5 -33.4 -377.25 -14.75 -377.25 -14.15 -377.2 -14.1 -376.5 -0.9" fill="url(#gradient42)" fill-rule="evenodd" stroke="none"/>
    <path d="M-371.9 -0.9 L-376.5 -0.9 -377.2 -14.1 -371.9 -0.9" fill="url(#gradient43)" fill-rule="evenodd" stroke="none"/>
    <path d="M-154.4 -36.25 L-160.0 -0.9 -194.4 -0.9 -183.15 -45.65 -157.65 -46.4 -154.4 -36.25" fill="url(#gradient44)" fill-rule="evenodd" stroke="none"/>
    <path d="M-284.4 -0.9 L-291.9 -0.9 -297.25 -28.5 -292.9 -29.65 -290.9 -29.5 -289.4 -30.5 -288.25 -30.75 -287.9 -30.25 -287.75 -26.9 -284.4 -0.9" fill="url(#gradient45)" fill-rule="evenodd" stroke="none"/>
    <path d="M-297.25 -28.5 L-297.9 -32.4 -295.25 -30.65 -292.9 -29.65 -297.25 -28.5 M-289.4 -30.5 L-288.65 -31.9 -288.15 -31.0 -288.25 -30.75 -289.4 -30.5" fill="url(#gradient46)" fill-rule="evenodd" stroke="none"/>
    <path d="M-191.9 -156.5 L-188.75 -156.5 -188.5 -141.15 -192.25 -135.75 -174.15 -127.15 -172.5 -126.15 -163.4 -121.75 -205.75 -121.75 -205.65 -122.65 -203.9 -129.5 -203.75 -129.65 -203.0 -132.9 -198.15 -138.9 -197.4 -140.4 -197.5 -140.9 -197.25 -144.0 -197.25 -144.65 -197.9 -144.65 -200.0 -145.25 -200.75 -147.4 -200.65 -147.65 -202.65 -154.9 -196.9 -154.9 -197.0 -150.5 -197.15 -150.15 -197.25 -144.65 -192.4 -143.9 -191.9 -143.75 -191.75 -148.25 -192.0 -149.0 -192.0 -154.5 -191.9 -154.9 -191.9 -156.5 M-261.5 -147.0 L-260.65 -147.15 -260.0 -146.4 -259.25 -145.75 -253.25 -139.15 -253.0 -138.65 -252.4 -138.25 -255.0 -136.25 -255.25 -136.15 -257.9 -134.75 -259.25 -136.4 -266.5 -143.65 -266.75 -144.4 -267.5 -144.75 -261.5 -147.0" fill="#9b0000" fill-opacity="0.9098039" fill-rule="evenodd" stroke="none"/>
    <path d="M-163.4 -121.75 L-163.25 -121.25 -163.4 -120.15 -163.25 -119.75 -162.4 -101.25 -162.0 -99.9 -162.25 -98.9 -162.0 -98.0 -162.4 -96.25 -162.4 -95.65 -162.65 -94.15 -162.9 -93.9 -162.75 -93.25 -163.4 -89.4 -163.65 -88.65 -163.75 -87.0 -164.0 -86.25 -163.9 -85.75 -164.0 -85.5 -164.9 -80.0 -165.0 -79.65 -165.0 -79.25 -165.4 -76.9 -165.65 -76.4 -165.65 -75.4 -166.25 -71.5 -166.5 -70.65 -166.5 -69.9 -167.25 -65.25 -167.5 -64.65 -167.4 -64.15 -167.65 -62.9 -167.9 -62.15 -168.0 -60.5 -168.25 -59.0 -168.5 -58.65 -168.5 -57.75 -169.25 -57.9 -213.4 -62.65 -222.25 -61.5 -222.65 -61.4 -222.75 -61.4 -260.0 -56.0 -273.75 -54.9 -275.15 -54.9 -276.0 -54.75 -276.65 -54.75 -282.9 -54.0 -283.0 -53.9 -283.65 -53.5 -284.0 -53.0 -284.75 -52.65 -285.15 -52.0 -285.65 -51.65 -285.9 -51.4 -286.5 -50.9 -289.4 -48.4 -290.4 -47.5 -290.65 -47.4 -290.65 -47.25 -291.25 -46.75 -291.5 -46.5 -292.25 -45.9 -292.5 -45.65 -293.25 -45.25 -293.4 -44.9 -295.15 -43.4 -295.4 -43.15 -295.65 -43.15 -296.0 -42.65 -297.0 -41.75 -297.25 -41.65 -297.25 -41.5 -297.9 -41.0 -298.15 -40.75 -298.9 -40.15 -299.15 -39.9 -299.5 -39.75 -299.9 -39.25 -300.15 -39.15 -300.15 -39.0 -300.75 -38.5 -301.0 -38.25 -301.65 -37.9 -301.9 -37.5 -302.15 -37.4 -302.65 -37.0 -302.75 -36.75 -303.0 -36.65 -303.15 -36.65 -305.5 -38.9 -306.15 -39.4 -308.0 -41.25 -308.15 -41.25 -309.9 -43.5 -312.25 -46.4 -312.9 -48.15 -313.0 -48.25 -313.15 -48.65 -313.15 -48.75 -314.15 -51.0 -314.15 -51.15 -315.15 -52.9 -316.25 -56.4 -316.25 -56.5 -316.65 -57.4 -316.65 -57.5 -316.75 -57.75 -316.9 -58.0 -317.0 -58.4 -317.65 -60.25 -317.65 -60.4 -317.75 -60.65 -317.9 -60.9 -318.15 -61.5 -318.75 -63.5 -318.75 -63.75 -319.0 -64.0 -320.15 -71.75 -320.0 -71.9 -319.9 -72.65 -319.65 -78.65 -318.25 -83.5 -318.15 -83.65 -318.0 -84.0 -317.9 -84.5 -317.65 -85.25 -317.65 -85.4 -317.5 -86.0 -317.5 -86.4 -317.75 -86.9 -317.65 -87.15 -318.9 -93.4 -318.75 -93.9 -319.15 -94.0 -318.9 -94.25 -318.9 -94.4 -318.25 -94.5 -312.25 -100.75 -311.5 -100.75 -310.4 -100.9 -309.5 -100.9 -309.15 -101.0 -297.15 -101.9 -296.5 -101.4 -288.0 -96.15 -287.9 -95.9 -270.5 -85.0 -269.25 -84.4 -269.15 -84.15 -252.9 -74.0 -245.5 -79.4 -245.4 -79.65 -239.65 -83.65 -239.25 -84.25 -237.5 -85.4 -237.4 -85.65 -212.15 -104.25 -211.5 -106.0 -211.25 -106.4 -205.75 -121.75 -163.4 -121.75 M-302.25 -70.9 L-302.15 -70.75 -301.65 -71.25 -301.75 -71.5 -301.65 -71.75 -303.15 -76.15 -302.25 -71.25 -302.25 -70.9 M-201.25 -93.0 L-201.4 -92.9 -201.5 -92.65 -201.75 -92.4 -201.65 -91.9 -200.9 -89.5 -200.65 -89.65 -200.4 -90.0 -200.25 -90.15 -200.0 -90.5 -199.5 -91.0 -199.4 -91.9 -199.5 -92.15 -199.9 -92.65 -200.75 -93.5 -201.25 -93.0" fill="#b00000" fill-opacity="0.9098039" fill-rule="evenodd" stroke="none"/>
    <path d="M-202.65 -154.9 L-191.9 -156.5 -191.9 -154.9 -192.0 -154.5 -192.0 -149.0 -191.75 -148.25 -191.9 -143.75 -192.4 -143.9 -197.25 -144.65 -197.15 -150.15 -197.0 -150.5 -196.9 -154.9 -202.65 -154.9" fill="#a90000" fill-rule="evenodd" stroke="none"/>
    <path d="M-268.25 -145.75 L-261.5 -147.0 -267.5 -144.75 -268.25 -145.75" fill="#ac0000" fill-rule="evenodd" stroke="none"/>
    <path d="M-287.15 -125.25 L-286.65 -125.5 -285.9 -125.75 -284.65 -126.4 -283.25 -126.9 -281.75 -127.65 -281.0 -128.15 -279.25 -133.0 -279.25 -133.5 -278.9 -134.0 -276.15 -141.25 -276.25 -141.5 -275.9 -142.0 -275.65 -142.75 -275.65 -143.15 -275.25 -143.75 -268.25 -145.75 -267.5 -144.75 -268.4 -142.5 -268.25 -142.15 -269.15 -140.0 -270.4 -136.0 -270.75 -135.25 -270.65 -135.0 -272.5 -129.5 -276.15 -127.9 -284.9 -123.5 -285.25 -123.5 -287.15 -125.25 M-290.0 -119.0 L-290.15 -118.5 -290.4 -118.25 -290.4 -118.0 -291.0 -116.25 -291.25 -116.0 -292.9 -111.9 -293.25 -111.5 -293.15 -111.25 -294.15 -109.0 -294.4 -108.75 -296.0 -104.65 -296.25 -104.25 -297.15 -101.9 -309.15 -101.0 -309.5 -100.9 -310.4 -100.9 -311.5 -100.75 -312.25 -100.75 -310.5 -102.5 -308.65 -104.9 -308.25 -105.25 -308.0 -105.4 -300.75 -112.9 -297.5 -114.5 -297.15 -114.75 -296.9 -115.0 -296.25 -115.4 -295.75 -115.9 -294.25 -116.9 -294.15 -117.0 -293.75 -117.15 -290.0 -119.0" fill="#9e0000" fill-opacity="0.9098039" fill-rule="evenodd" stroke="none"/>
    <path d="M-319.75 -100.15 L-298.65 -119.9 -287.15 -125.25 -285.25 -123.5 Q-287.05 -122.55 -288.9 -121.65 L-289.75 -119.25 -290.0 -119.0 -293.75 -117.15 -294.15 -117.0 -294.25 -116.9 -295.75 -115.9 -296.25 -115.4 -296.9 -115.0 -297.15 -114.75 -297.5 -114.5 -300.75 -112.9 -308.0 -105.4 -308.25 -105.25 -308.65 -104.9 -310.5 -102.5 -312.25 -100.75 -319.75 -100.15" fill="#ae0000" fill-opacity="0.9098039" fill-rule="evenodd" stroke="none"/>
    <path d="M-319.9 -99.65 L-319.75 -100.15 -312.25 -100.75 -318.25 -94.5 -318.9 -94.4 -319.9 -99.65 M-308.15 -41.25 L-308.0 -41.25 -306.15 -39.4 -305.5 -38.9 -303.15 -36.65 -303.65 -36.0 -303.9 -35.75 -304.65 -35.15 -304.75 -35.0 -305.65 -34.4 -306.75 -36.4 -307.5 -38.0 -308.15 -41.25" fill="#c20000" fill-opacity="0.9098039" fill-rule="evenodd" stroke="none"/>
    <path d="M-163.25 -121.25 L-162.4 -119.4 -162.4 -119.25 -162.0 -118.5 -161.75 -118.4 -152.4 -98.15 -152.4 -97.4 -143.9 -79.75 -143.25 -76.65 -156.25 -72.4 -155.9 -61.5 -155.75 -60.75 -155.4 -55.5 -168.5 -57.75 -168.5 -58.65 -168.25 -59.0 -168.0 -60.5 -167.9 -62.15 -167.65 -62.9 -167.4 -64.15 -167.5 -64.65 -167.25 -65.25 -166.5 -69.9 -166.5 -70.65 -166.25 -71.5 -165.65 -75.4 -165.65 -76.4 -165.4 -76.9 -165.0 -79.25 -165.0 -79.65 -164.9 -80.0 -164.0 -85.5 -163.9 -85.75 -164.0 -86.25 -163.75 -87.0 -163.65 -88.65 -163.4 -89.4 -162.75 -93.25 -162.9 -93.9 -162.65 -94.15 -162.4 -95.65 -162.4 -96.25 -162.0 -98.0 -162.25 -98.9 -162.0 -99.9 -162.4 -101.25 -163.25 -119.75 -163.4 -120.15 -163.25 -121.25" fill="#d30000" fill-opacity="0.9098039" fill-rule="evenodd" stroke="none"/>
    <path d="M-187.4 -0.9 L-291.9 -0.9 -295.0 -16.4 -296.75 -26.75 -297.25 -28.5 -297.9 -32.4 -303.0 -36.65 -302.75 -36.75 -302.65 -37.0 -302.15 -37.4 -301.9 -37.5 -301.65 -37.9 -301.0 -38.25 -300.75 -38.5 -300.15 -39.0 -300.15 -39.15 -299.9 -39.25 -299.5 -39.75 -299.15 -39.9 -298.9 -40.15 -298.15 -40.75 -297.9 -41.0 -297.25 -41.5 -297.25 -41.65 -297.0 -41.75 -296.0 -42.65 -295.65 -43.15 -295.4 -43.15 -295.15 -43.4 -293.4 -44.9 -293.25 -45.25 -292.5 -45.65 -292.25 -45.9 -291.5 -46.5 -291.25 -46.75 -290.65 -47.25 -290.65 -47.4 -290.4 -47.5 -289.4 -48.4 -286.5 -50.9 -285.9 -51.4 -285.65 -51.65 -285.15 -52.0 -284.75 -52.65 -284.0 -53.0 -283.65 -53.5 -283.0 -53.9 -282.9 -54.0 -276.65 -54.75 -276.0 -54.75 -275.15 -54.9 -273.75 -54.9 -260.0 -56.0 -222.75 -61.4 -222.65 -61.4 -222.25 -61.5 -213.4 -62.65 -169.25 -57.9 -168.5 -57.75 -168.5 -57.65 -169.25 -55.65 -169.5 -55.25 -177.4 -30.9 -177.5 -30.5 -177.65 -30.15 -177.75 -29.75 -177.9 -29.4 -178.0 -29.0 -178.15 -28.65 -178.25 -28.25 -178.4 -27.9 -178.5 -27.5 -178.65 -27.15 -178.75 -26.75 -178.9 -26.4 -179.0 -26.0 -179.15 -25.65 -179.25 -25.25 -179.4 -24.9 -179.5 -24.5 -179.65 -24.15 -179.75 -23.75 -180.0 -23.25 -180.15 -23.25 -180.15 -22.65 -180.25 -22.25 -180.4 -21.9 -180.5 -21.5 -180.65 -21.15 -180.75 -20.75 -180.9 -20.4 -181.0 -20.0 -181.15 -19.65 -181.25 -19.25 -181.4 -18.9 -181.5 -18.5 -181.65 -18.15 -181.75 -17.75 -181.9 -17.4 -182.0 -17.0 -182.15 -16.65 -182.25 -16.25 -182.4 -15.9 -182.5 -15.5 -182.65 -15.15 -182.75 -14.75 -182.9 -14.4 -183.0 -14.0 -183.15 -13.65 -183.25 -13.25 -183.4 -12.9 -183.5 -12.5 -183.65 -12.15 -183.75 -11.75 -183.9 -11.4 -184.0 -11.0 -184.15 -10.65 -184.25 -10.25 -184.4 -9.9 -184.5 -9.5 -184.65 -9.15 -184.75 -8.75 -184.9 -8.4 -185.0 -8.0 -185.15 -7.65 -185.25 -7.25 -185.4 -6.9 -185.5 -6.5 -185.65 -6.15 -185.75 -5.75 -185.9 -5.4 -186.0 -5.0 -186.15 -4.65 -186.25 -4.25 -186.4 -3.9 -186.5 -3.5 -186.65 -3.15 -186.75 -2.75 -186.9 -2.4 -187.0 -2.0 -187.15 -1.65 -187.25 -1.25 -187.4 -0.9" fill="#ad0000" fill-opacity="0.9098039" fill-rule="evenodd" stroke="none"/>
    <path d="M-303.0 -36.65 L-297.9 -32.4 -297.25 -28.5 -296.75 -26.75 -295.0 -16.4 -304.5 -27.65 -305.0 -30.4 -305.65 -34.4 -304.75 -35.0 -304.65 -35.15 -303.9 -35.75 -303.65 -36.0 -303.15 -36.65 -303.0 -36.65" fill="#bf0000" fill-opacity="0.9098039" fill-rule="evenodd" stroke="none"/>
    <path d="M-322.5 -92.15 L-319.9 -99.65 -318.9 -94.4 -318.9 -94.25 -319.15 -94.0 -319.4 -93.9 -322.5 -92.15 M-308.15 -41.25 L-307.5 -38.0 -310.9 -43.0 -309.9 -43.5 -308.15 -41.25" fill="#c40000" fill-rule="evenodd" stroke="none"/>
    <path d="M-328.75 -71.5 L-329.15 -72.15 -327.4 -77.65 -327.15 -78.15 -324.65 -85.5 -324.75 -85.75 -324.25 -86.75 -322.9 -90.9 -323.0 -91.15 -322.75 -91.5 -322.65 -91.9 -322.5 -92.0 -322.5 -92.15 -319.4 -93.9 -319.15 -94.0 -318.75 -93.9 -318.9 -93.4 -317.65 -87.15 -317.75 -86.9 -317.5 -86.4 -317.5 -86.0 -317.65 -85.4 -317.65 -85.25 -317.9 -84.5 -318.0 -84.0 -318.15 -83.65 -318.25 -83.5 -319.65 -78.65 -319.9 -72.65 -320.0 -71.9 -320.15 -71.75 -319.0 -64.0 -318.75 -63.75 -318.75 -63.5 -318.15 -61.5 -317.9 -60.9 -317.75 -60.65 -317.65 -60.4 -317.65 -60.25 -317.0 -58.4 -316.9 -58.0 -316.75 -57.75 -316.65 -57.5 -316.65 -57.4 -316.25 -56.5 -316.25 -56.4 -315.15 -52.9 -314.15 -51.15 -314.15 -51.0 -313.15 -48.75 -313.15 -48.65 -313.0 -48.25 -312.9 -48.15 -312.25 -46.4 -309.9 -43.5 -310.9 -43.0 -315.4 -50.4 -315.65 -50.65 -315.75 -51.0 -328.75 -71.5" fill="#c30000" fill-rule="evenodd" stroke="none"/>
    <path d="M-143.25 -76.65 L-137.75 -47.0 -138.15 -45.65 -138.65 -44.65 -138.75 -44.25 -138.75 -44.15 -139.15 -43.5 -141.9 -53.25 -155.4 -55.5 -155.75 -60.75 -155.9 -61.5 -156.25 -72.4 -143.25 -76.65" fill="#e80000" fill-opacity="0.9098039" fill-rule="evenodd" stroke="none"/>
    <path d="M-160.0 -0.9 L-187.4 -0.9 -187.25 -1.25 -187.15 -1.65 -187.0 -2.0 -186.9 -2.4 -186.75 -2.75 -186.65 -3.15 -186.5 -3.5 -186.4 -3.9 -186.25 -4.25 -186.15 -4.65 -186.0 -5.0 -185.9 -5.4 -185.75 -5.75 -185.65 -6.15 -185.5 -6.5 -185.4 -6.9 -185.25 -7.25 -185.15 -7.65 -185.0 -8.0 -184.9 -8.4 -184.75 -8.75 -184.65 -9.15 -184.5 -9.5 -184.4 -9.9 -184.25 -10.25 -184.15 -10.65 -184.0 -11.0 -183.9 -11.4 -183.75 -11.75 -183.65 -12.15 -183.5 -12.5 -183.4 -12.9 -183.25 -13.25 -183.15 -13.65 -183.0 -14.0 -182.9 -14.4 -182.75 -14.75 -182.65 -15.15 -182.5 -15.5 -182.4 -15.9 -182.25 -16.25 -182.15 -16.65 -182.0 -17.0 -181.9 -17.4 -181.75 -17.75 -181.65 -18.15 -181.5 -18.5 -181.4 -18.9 -181.25 -19.25 -181.15 -19.65 -181.0 -20.0 -180.9 -20.4 -180.75 -20.75 -180.65 -21.15 -180.5 -21.5 -180.4 -21.9 -180.25 -22.25 -180.15 -22.65 -180.15 -23.25 -180.0 -23.25 -179.75 -23.75 -179.65 -24.15 -179.5 -24.5 -179.4 -24.9 -179.25 -25.25 -179.15 -25.65 -179.0 -26.0 -178.9 -26.4 -178.75 -26.75 -178.65 -27.15 -178.5 -27.5 -178.4 -27.9 -178.25 -28.25 -178.15 -28.65 -178.0 -29.0 -177.9 -29.4 -177.75 -29.75 -177.65 -30.15 -177.5 -30.5 -177.4 -30.9 -169.5 -55.25 -169.25 -55.65 -168.5 -57.65 -168.5 -57.75 -155.4 -55.5 -154.65 -37.4 -154.5 -36.9 -154.65 -34.65 -154.75 -34.4 -154.75 -34.15 -155.25 -31.0 -155.15 -30.65 -158.0 -13.5 -158.0 -13.15 -160.0 -0.9" fill="#db0000" fill-opacity="0.9098039" fill-rule="evenodd" stroke="none"/>
    <path d="M-291.9 -0.9 L-300.9 -0.9 -302.9 -16.0 -303.15 -16.25 -304.5 -27.65 -295.0 -16.4 -291.9 -0.9" fill="#c20000" fill-rule="evenodd" stroke="none"/>
    <path d="M-319.5 -38.75 L-319.65 -39.65 -321.65 -46.15 -321.5 -46.4 -328.15 -68.4 -328.75 -71.5 -315.75 -51.0 -315.65 -50.65 -315.4 -50.4 -310.9 -43.0 -319.5 -38.75" fill="#fa0000" fill-rule="evenodd" stroke="none"/>
    <path d="M-316.9 -30.15 L-317.0 -30.65 -319.4 -38.75 -319.5 -38.75 -310.9 -43.0 -307.5 -38.0 -306.75 -36.4 -306.4 -34.15 -305.0 -30.4 -304.5 -27.65 -303.15 -16.25 -309.0 -19.75 -316.9 -30.15" fill="#fc0000" fill-rule="evenodd" stroke="none"/>
    <path d="M-138.15 -45.65 L-138.0 -44.9 -138.65 -41.65 -139.15 -42.5 -139.25 -42.75 -139.15 -43.15 -139.15 -43.5 -138.75 -44.15 -138.75 -44.25 -138.65 -44.65 -138.15 -45.65" fill="#ea0000" fill-rule="evenodd" stroke="none"/>
    <path d="M-155.4 -55.5 L-141.9 -53.25 -139.15 -43.5 -139.15 -43.15 -139.25 -42.75 -144.5 -27.9 -158.0 -13.5 -155.15 -30.65 -155.25 -31.0 -154.75 -34.15 -154.75 -34.4 -154.65 -34.65 -154.5 -36.9 -154.65 -37.4 -155.4 -55.5" fill="#f10000" fill-opacity="0.9098039" fill-rule="evenodd" stroke="none"/>
    <path d="M-138.65 -41.65 L-139.0 -39.75 -138.9 -39.15 -146.0 -1.15 -147.4 -0.9 -160.0 -0.9 -158.0 -13.15 -158.0 -13.5 -144.5 -27.9 -139.25 -42.75 -139.15 -42.5 -138.65 -41.65" fill="#f20000" fill-rule="evenodd" stroke="none"/>
    <path d="M-300.9 -0.9 L-310.5 -0.9 -316.9 -30.15 -309.0 -19.75 -303.15 -16.25 -302.9 -16.0 -300.9 -0.9" fill="#fd0000" fill-rule="evenodd" stroke="none"/>
    <path d="M-306.75 -36.4 L-305.65 -34.4 -305.0 -30.4 -306.4 -34.15 -306.75 -36.4" fill="#ff0000" fill-opacity="0.9098039" fill-rule="evenodd" stroke="none"/>
  </g>
  <defs>
    <radialGradient cx="0" cy="0" gradientTransform="matrix(0.2102, 0.0, 0.0, 0.2102, -166.25, -141.25)" gradientUnits="userSpaceOnUse" id="gradient0" r="819.2" spreadMethod="pad">
      <stop offset="0.0" stop-color="#5b5b5b"/>
      <stop offset="1.0" stop-color="#121212"/>
    </radialGradient>
    <radialGradient cx="0" cy="0" gradientTransform="matrix(0.211, 0.0, 0.0, 0.211, -141.3, -137.0)" gradientUnits="userSpaceOnUse" id="gradient1" r="819.2" spreadMethod="pad">
      <stop offset="0.0" stop-color="#414141"/>
      <stop offset="1.0" stop-color="#151515"/>
    </radialGradient>
    <radialGradient cx="0" cy="0" gradientTransform="matrix(0.1061, 0.0, 0.0, 0.1061, -280.4, -246.9)" gradientUnits="userSpaceOnUse" id="gradient2" r="819.2" spreadMethod="pad">
      <stop offset="0.0" stop-color="#767676"/>
      <stop offset="1.0" stop-color="#767676"/>
    </radialGradient>
    <radialGradient cx="0" cy="0" gradientTransform="matrix(0.1899, 0.0, 0.0, 0.1899, -294.65, -180.85)" gradientUnits="userSpaceOnUse" id="gradient3" r="819.2" spreadMethod="pad">
      <stop offset="0.0" stop-color="#7e7e7e"/>
      <stop offset="1.0" stop-color="#010101"/>
    </radialGradient>
    <radialGradient cx="0" cy="0" gradientTransform="matrix(0.0044, 0.0, 0.0, 0.0044, -198.6, -261.6)" gradientUnits="userSpaceOnUse" id="gradient4" r="819.2" spreadMethod="pad">
      <stop offset="0.0" stop-color="#bbbbbb"/>
      <stop offset="1.0" stop-color="#bababa"/>
    </radialGradient>
    <radialGradient cx="0" cy="0" gradientTransform="matrix(0.0399, 0.0, 0.0, 0.0399, -198.6, -261.6)" gradientUnits="userSpaceOnUse" id="gradient5" r="819.2" spreadMethod="pad">
      <stop offset="0.0" stop-color="#767676"/>
      <stop offset="1.0" stop-color="#767676"/>
    </radialGradient>
    <radialGradient cx="0" cy="0" gradientTransform="matrix(0.0096, 0.0, 0.0, 0.0096, -230.65, -255.25)" gradientUnits="userSpaceOnUse" id="gradient6" r="819.2" spreadMethod="pad">
      <stop offset="0.0" stop-color="#8b8b8b"/>
      <stop offset="1.0" stop-color="#8b8b8b"/>
    </radialGradient>
    <radialGradient cx="0" cy="0" gradientTransform="matrix(0.0036, 0.0, 0.0, 0.0036, -238.25, -257.5)" gradientUnits="userSpaceOnUse" id="gradient7" r="819.2" spreadMethod="pad">
      <stop offset="0.0" stop-color="#8c8c8c"/>
      <stop offset="1.0" stop-color="#8c8c8c"/>
    </radialGradient>
    <radialGradient cx="0" cy="0" gradientTransform="matrix(0.0036, 0.0, 0.0, 0.0036, -241.1, -256.95)" gradientUnits="userSpaceOnUse" id="gradient8" r="819.2" spreadMethod="pad">
      <stop offset="0.0" stop-color="#e2e2e2"/>
      <stop offset="1.0" stop-color="#e0e0e0"/>
    </radialGradient>
    <radialGradient cx="0" cy="0" gradientTransform="matrix(0.0102, 0.0, 0.0, 0.0102, -247.85, -252.0)" gradientUnits="userSpaceOnUse" id="gradient9" r="819.2" spreadMethod="pad">
      <stop offset="0.0" stop-color="#e1e1e1"/>
      <stop offset="1.0" stop-color="#dfdfdf"/>
    </radialGradient>
    <radialGradient cx="0" cy="0" gradientTransform="matrix(0.0373, 0.0, 0.0, 0.0373, -247.85, -252.0)" gradientUnits="userSpaceOnUse" id="gradient10" r="819.2" spreadMethod="pad">
      <stop offset="0.0" stop-color="#767676"/>
      <stop offset="1.0" stop-color="#767676"/>
    </radialGradient>
    <radialGradient cx="0" cy="0" gradientTransform="matrix(0.0036, 0.0, 0.0, 0.0036, -277.8, -246.25)" gradientUnits="userSpaceOnUse" id="gradient11" r="819.2" spreadMethod="pad">
      <stop offset="0.0" stop-color="#838383"/>
      <stop offset="1.0" stop-color="#838383"/>
    </radialGradient>
    <radialGradient cx="0" cy="0" gradientTransform="matrix(0.1163, 0.0, 0.0, 0.1163, -291.6, -236.0)" gradientUnits="userSpaceOnUse" id="gradient12" r="819.2" spreadMethod="pad">
      <stop offset="0.0" stop-color="#494949"/>
      <stop offset="1.0" stop-color="#272727"/>
    </radialGradient>
    <radialGradient cx="0" cy="0" gradientTransform="matrix(0.0573, 0.0, 0.0, 0.0573, -251.7, -138.15)" gradientUnits="userSpaceOnUse" id="gradient13" r="819.2" spreadMethod="pad">
      <stop offset="0.0" stop-color="#000000"/>
      <stop offset="1.0" stop-color="#000000"/>
    </radialGradient>
    <radialGradient cx="0" cy="0" gradientTransform="matrix(0.1286, 0.0, 0.0, 0.1286, -262.75, -61.95)" gradientUnits="userSpaceOnUse" id="gradient14" r="819.2" spreadMethod="pad">
      <stop offset="0.0" stop-color="#010101"/>
      <stop offset="1.0" stop-color="#000000"/>
    </radialGradient>
    <radialGradient cx="0" cy="0" gradientTransform="matrix(0.1474, 0.0, 0.0, 0.1474, -270.2, -47.5)" gradientUnits="userSpaceOnUse" id="gradient15" r="819.2" spreadMethod="pad">
      <stop offset="0.0" stop-color="#6a6a6a"/>
      <stop offset="1.0" stop-color="#000000"/>
    </radialGradient>
    <radialGradient cx="0" cy="0" gradientTransform="matrix(0.1185, 0.0, 0.0, 0.1185, -155.65, -60.05)" gradientUnits="userSpaceOnUse" id="gradient16" r="819.2" spreadMethod="pad">
      <stop offset="0.0" stop-color="#3f3f3f"/>
      <stop offset="1.0" stop-color="#000000"/>
    </radialGradient>
    <radialGradient cx="0" cy="0" gradientTransform="matrix(0.0781, 0.0, 0.0, 0.0781, -217.9, -70.8)" gradientUnits="userSpaceOnUse" id="gradient17" r="819.2" spreadMethod="pad">
      <stop offset="0.0" stop-color="#878787"/>
      <stop offset="1.0" stop-color="#000000"/>
    </radialGradient>
    <radialGradient cx="0" cy="0" gradientTransform="matrix(0.1085, 0.0, 0.0, 0.1085, -270.2, -47.5)" gradientUnits="userSpaceOnUse" id="gradient18" r="819.2" spreadMethod="pad">
      <stop offset="0.0" stop-color="#6a6a6a"/>
      <stop offset="1.0" stop-color="#000000"/>
    </radialGradient>
    <radialGradient cx="0" cy="0" gradientTransform="matrix(0.0821, 0.0, 0.0, 0.0821, -286.0, -64.85)" gradientUnits="userSpaceOnUse" id="gradient19" r="819.2" spreadMethod="pad">
      <stop offset="0.0" stop-color="#858585"/>
      <stop offset="1.0" stop-color="#000000"/>
    </radialGradient>
    <radialGradient cx="0" cy="0" gradientTransform="matrix(0.0452, 0.0, 0.0, 0.0452, -276.95, -111.05)" gradientUnits="userSpaceOnUse" id="gradient20" r="819.2" spreadMethod="pad">
      <stop offset="0.0" stop-color="#000000"/>
      <stop offset="1.0" stop-color="#000000"/>
    </radialGradient>
    <radialGradient cx="0" cy="0" gradientTransform="matrix(0.0374, 0.0, 0.0, 0.0374, -224.4, -218.05)" gradientUnits="userSpaceOnUse" id="gradient21" r="819.2" spreadMethod="pad">
      <stop offset="0.0" stop-color="#ff5151"/>
      <stop offset="1.0" stop-color="#330000"/>
    </radialGradient>
    <radialGradient cx="0" cy="0" gradientTransform="matrix(0.0359, 0.0, 0.0, 0.0359, -223.85, -217.85)" gradientUnits="userSpaceOnUse" id="gradient22" r="819.2" spreadMethod="pad">
      <stop offset="0.0" stop-color="#ff5151"/>
      <stop offset="1.0" stop-color="#ff4c4c"/>
    </radialGradient>
    <radialGradient cx="0" cy="0" gradientTransform="matrix(0.0386, 0.0, 0.0, 0.0386, -223.1, -212.1)" gradientUnits="userSpaceOnUse" id="gradient23" r="819.2" spreadMethod="pad">
      <stop offset="0.0" stop-color="#f89797"/>
      <stop offset="1.0" stop-color="#4d0000"/>
    </radialGradient>
    <radialGradient cx="0" cy="0" gradientTransform="matrix(0.0283, 0.0, 0.0, 0.0283, -230.75, -208.2)" gradientUnits="userSpaceOnUse" id="gradient24" r="819.2" spreadMethod="pad">
      <stop offset="0.0" stop-color="#ff3030"/>
      <stop offset="1.0" stop-color="#ff2d2d"/>
    </radialGradient>
    <radialGradient cx="0" cy="0" gradientTransform="matrix(0.079, 0.0, 0.0, 0.079, -149.85, -106.65)" gradientUnits="userSpaceOnUse" id="gradient25" r="819.2" spreadMethod="pad">
      <stop offset="0.0" stop-color="#595959"/>
      <stop offset="1.0" stop-color="#000000"/>
    </radialGradient>
    <radialGradient cx="0" cy="0" gradientTransform="matrix(0.0201, 0.0, 0.0, 0.0201, -154.9, -130.1)" gradientUnits="userSpaceOnUse" id="gradient26" r="819.2" spreadMethod="pad">
      <stop offset="0.0" stop-color="#000000"/>
      <stop offset="1.0" stop-color="#000000"/>
    </radialGradient>
    <radialGradient cx="0" cy="0" gradientTransform="matrix(0.1081, 0.0, 0.0, 0.1081, -124.55, -107.55)" gradientUnits="userSpaceOnUse" id="gradient27" r="819.2" spreadMethod="pad">
      <stop offset="0.0" stop-color="#616161"/>
      <stop offset="1.0" stop-color="#000000"/>
    </radialGradient>
    <radialGradient cx="0" cy="0" gradientTransform="matrix(0.0373, 0.0, 0.0, 0.0373, -300.25, -141.1)" gradientUnits="userSpaceOnUse" id="gradient28" r="819.2" spreadMethod="pad">
      <stop offset="0.0" stop-color="#191919"/>
      <stop offset="1.0" stop-color="#0d0d0d"/>
    </radialGradient>
    <radialGradient cx="0" cy="0" gradientTransform="matrix(0.0403, 0.0, 0.0, 0.0403, -306.4, -97.8)" gradientUnits="userSpaceOnUse" id="gradient29" r="819.2" spreadMethod="pad">
      <stop offset="0.0" stop-color="#000000"/>
      <stop offset="1.0" stop-color="#000000"/>
    </radialGradient>
    <radialGradient cx="0" cy="0" gradientTransform="matrix(0.1056, 0.0, 0.0, 0.1056, -349.95, -41.85)" gradientUnits="userSpaceOnUse" id="gradient30" r="819.2" spreadMethod="pad">
      <stop offset="0.0" stop-color="#6a6a6a"/>
      <stop offset="1.0" stop-color="#000000"/>
    </radialGradient>
    <radialGradient cx="0" cy="0" gradientTransform="matrix(0.013, 0.0, 0.0, 0.013, -8.35, -113.4)" gradientUnits="userSpaceOnUse" id="gradient31" r="819.2" spreadMethod="pad">
      <stop offset="0.0" stop-color="#000000"/>
      <stop offset="1.0" stop-color="#000000"/>
    </radialGradient>
    <radialGradient cx="0" cy="0" gradientTransform="matrix(0.0103, 0.0, 0.0, 0.0103, -1.0, -117.6)" gradientUnits="userSpaceOnUse" id="gradient32" r="819.2" spreadMethod="pad">
      <stop offset="0.0" stop-color="#000000"/>
      <stop offset="1.0" stop-color="#000000"/>
    </radialGradient>
    <radialGradient cx="0" cy="0" gradientTransform="matrix(0.0712, 0.0, 0.0, 0.0712, -1.0, -66.5)" gradientUnits="userSpaceOnUse" id="gradient33" r="819.2" spreadMethod="pad">
      <stop offset="0.0" stop-color="#080808"/>
      <stop offset="1.0" stop-color="#000000"/>
    </radialGradient>
    <radialGradient cx="0" cy="0" gradientTransform="matrix(0.1173, 0.0, 0.0, 0.1173, -295.55, -107.3)" gradientUnits="userSpaceOnUse" id="gradient34" r="819.2" spreadMethod="pad">
      <stop offset="0.0" stop-color="#0d0d0d"/>
      <stop offset="1.0" stop-color="#000000"/>
    </radialGradient>
    <radialGradient cx="0" cy="0" gradientTransform="matrix(0.0454, 0.0, 0.0, 0.0454, -149.85, -106.65)" gradientUnits="userSpaceOnUse" id="gradient35" r="819.2" spreadMethod="pad">
      <stop offset="0.0" stop-color="#595959"/>
      <stop offset="1.0" stop-color="#070707"/>
    </radialGradient>
    <radialGradient cx="0" cy="0" gradientTransform="matrix(0.1011, 0.0, 0.0, 0.1011, -59.3, -64.65)" gradientUnits="userSpaceOnUse" id="gradient36" r="819.2" spreadMethod="pad">
      <stop offset="0.0" stop-color="#000000"/>
      <stop offset="1.0" stop-color="#000000"/>
    </radialGradient>
    <radialGradient cx="0" cy="0" gradientTransform="matrix(0.07, 0.0, 0.0, 0.07, -306.15, -45.6)" gradientUnits="userSpaceOnUse" id="gradient37" r="819.2" spreadMethod="pad">
      <stop offset="0.0" stop-color="#000000"/>
      <stop offset="1.0" stop-color="#000000"/>
    </radialGradient>
    <radialGradient cx="0" cy="0" gradientTransform="matrix(0.0315, 0.0, 0.0, 0.0315, -377.4, -14.85)" gradientUnits="userSpaceOnUse" id="gradient38" r="819.2" spreadMethod="pad">
      <stop offset="0.0" stop-color="#010101"/>
      <stop offset="1.0" stop-color="#000000"/>
    </radialGradient>
    <radialGradient cx="0" cy="0" gradientTransform="matrix(0.0309, 0.0, 0.0, 0.0309, -39.3, -60.8)" gradientUnits="userSpaceOnUse" id="gradient39" r="819.2" spreadMethod="pad">
      <stop offset="0.0" stop-color="#000000"/>
      <stop offset="1.0" stop-color="#000000"/>
    </radialGradient>
    <radialGradient cx="0" cy="0" gradientTransform="matrix(0.1169, 0.0, 0.0, 0.1169, -315.8, -86.85)" gradientUnits="userSpaceOnUse" id="gradient40" r="819.2" spreadMethod="pad">
      <stop offset="0.0" stop-color="#575757"/>
      <stop offset="1.0" stop-color="#090909"/>
    </radialGradient>
    <radialGradient cx="0" cy="0" gradientTransform="matrix(0.0397, 0.0, 0.0, 0.0397, -372.1, -58.0)" gradientUnits="userSpaceOnUse" id="gradient41" r="819.2" spreadMethod="pad">
      <stop offset="0.0" stop-color="#0f0f0f"/>
      <stop offset="1.0" stop-color="#000000"/>
    </radialGradient>
    <radialGradient cx="0" cy="0" gradientTransform="matrix(0.0394, 0.0, 0.0, 0.0394, -377.4, -14.85)" gradientUnits="userSpaceOnUse" id="gradient42" r="819.2" spreadMethod="pad">
      <stop offset="0.0" stop-color="#010101"/>
      <stop offset="1.0" stop-color="#000000"/>
    </radialGradient>
    <radialGradient cx="0" cy="0" gradientTransform="matrix(0.0175, 0.0, 0.0, 0.0175, -373.55, -1.0)" gradientUnits="userSpaceOnUse" id="gradient43" r="819.2" spreadMethod="pad">
      <stop offset="0.0" stop-color="#0c0c0c"/>
      <stop offset="1.0" stop-color="#010101"/>
    </radialGradient>
    <radialGradient cx="0" cy="0" gradientTransform="matrix(0.0612, 0.0, 0.0, 0.0612, -160.15, -1.0)" gradientUnits="userSpaceOnUse" id="gradient44" r="819.2" spreadMethod="pad">
      <stop offset="0.0" stop-color="#2b2b2b"/>
      <stop offset="1.0" stop-color="#000000"/>
    </radialGradient>
    <radialGradient cx="0" cy="0" gradientTransform="matrix(0.0368, 0.0, 0.0, 0.0368, -291.8, -1.0)" gradientUnits="userSpaceOnUse" id="gradient45" r="819.2" spreadMethod="pad">
      <stop offset="0.0" stop-color="#727272"/>
      <stop offset="1.0" stop-color="#4c4c4c"/>
    </radialGradient>
    <radialGradient cx="0" cy="0" gradientTransform="matrix(0.0493, 0.0, 0.0, 0.0493, -297.2, -28.5)" gradientUnits="userSpaceOnUse" id="gradient46" r="819.2" spreadMethod="pad">
      <stop offset="0.0" stop-color="#626262"/>
      <stop offset="1.0" stop-color="#373737"/>
    </radialGradient>
  </defs>
</svg>
