<?xml version="1.0" encoding="UTF-8" standalone="no"?>
<svg xmlns:xlink="http://www.w3.org/1999/xlink" height="294.6px" width="399.1px" xmlns="http://www.w3.org/2000/svg">
  <g transform="matrix(1.0, 0.0, 0.0, 1.0, 400.0, 295.5)">
    <path d="M-297.15 -146.25 L-297.65 -146.75 -297.75 -146.9 -296.4 -150.9 -303.5 -161.75 -303.75 -162.65 -305.0 -163.9 -304.4 -163.9 -297.75 -160.25 -297.15 -160.25 -303.5 -172.75 -303.9 -172.9 -303.65 -173.0 -303.9 -188.0 -307.25 -195.65 -308.4 -197.4 -306.75 -215.0 -307.0 -215.5 -301.0 -231.75 -295.5 -250.4 -295.15 -250.5 -285.65 -236.4 -294.65 -208.25 -295.15 -197.25 -290.15 -176.4 -290.0 -175.9 Q-288.25 -163.4 -280.65 -155.5 L-280.5 -155.25 -269.0 -141.65 -263.25 -137.0 -263.25 -136.9 -272.5 -131.9 -272.75 -131.65 Q-274.6 -130.55 -276.5 -129.5 L-278.25 -129.0 -287.65 -137.4 -295.65 -145.25 -297.15 -146.25 M-259.25 -287.25 L-236.75 -292.4 -221.15 -295.5 -224.4 -280.25 -223.9 -279.9 -213.5 -286.65 -201.25 -293.5 -202.65 -282.65 -228.0 -277.5 -229.6 -277.45 -232.4 -277.4 -240.65 -274.0 -240.75 -274.0 -243.15 -274.4 -247.65 -273.9 -273.0 -268.75 -275.65 -267.15 -278.15 -252.9 -277.15 -250.25 -276.25 -250.0 -282.5 -242.75 -281.75 -255.4 -281.75 -262.25 -265.4 -279.9 -259.25 -287.25 M-159.75 -145.25 L-155.5 -150.9 -144.75 -168.25 -145.75 -161.25 -147.65 -157.25 -150.0 -150.4 -150.4 -150.15 -152.25 -143.4 -158.0 -144.9 -159.75 -145.25 M-139.65 -193.0 L-139.65 -195.75 -137.9 -194.15 -139.65 -193.0" fill="url(#gradient0)" fill-rule="evenodd" stroke="none"/>
    <path d="M-221.15 -295.5 L-196.75 -293.65 -178.5 -288.25 -161.0 -278.65 -147.4 -267.15 -135.4 -251.9 -126.75 -234.65 -121.75 -216.25 -120.5 -197.5 -122.9 -178.4 -129.15 -159.65 -138.65 -143.25 -141.25 -140.4 -152.25 -143.4 -150.4 -150.15 -150.0 -150.4 -147.65 -157.25 -145.75 -161.25 -144.75 -168.25 -142.5 -180.15 -151.25 -185.65 -139.65 -193.0 -137.9 -194.15 -139.65 -195.75 -146.0 -203.25 -147.15 -204.15 -151.0 -186.25 -151.4 -186.15 -156.9 -215.65 -193.65 -266.15 -195.5 -268.65 -202.9 -278.65 -202.65 -282.65 -201.25 -293.5 -213.5 -286.65 -223.9 -279.9 -224.4 -280.25 -221.15 -295.5" fill="url(#gradient1)" fill-rule="evenodd" stroke="none"/>
    <path d="M-195.5 -268.65 L-196.5 -268.15 -228.5 -261.65 -236.0 -263.75 -237.4 -264.15 -238.75 -263.25 -245.65 -258.25 -275.65 -252.4 -278.15 -252.9 -275.65 -267.15 -273.0 -268.75 -247.65 -273.9 -243.15 -274.4 -240.75 -274.0 -236.5 -273.0 Q-232.15 -276.8 -229.6 -277.45 L-228.0 -277.5 -202.65 -282.65 -202.9 -278.65 -195.5 -268.65" fill="url(#gradient2)" fill-rule="evenodd" stroke="none"/>
    <path d="M-193.65 -266.15 L-156.9 -215.65 -151.4 -186.15 -151.0 -186.25 -147.15 -204.15 -146.0 -203.25 -139.65 -195.75 -139.65 -193.0 -151.25 -185.65 -142.5 -180.15 -144.75 -168.25 -155.5 -150.9 -159.75 -145.25 -195.25 -151.5 -195.4 -151.5 -195.75 -151.65 -199.5 -152.5 -210.15 -160.5 -211.65 -160.4 -244.15 -155.25 -249.0 -145.25 -252.15 -142.9 -252.25 -142.9 -252.5 -142.65 -252.65 -142.65 -263.25 -137.0 -269.0 -141.65 -280.5 -155.25 -280.65 -155.5 Q-288.25 -163.4 -290.0 -175.9 L-290.15 -176.4 -295.15 -197.25 -294.65 -208.25 -285.65 -236.4 -282.9 -233.0 -282.5 -242.75 -276.25 -250.0 -274.65 -249.65 -244.65 -255.5 -237.9 -260.5 -236.4 -261.4 -235.25 -261.0 -227.75 -258.9 -195.65 -265.25 -193.65 -266.15 M-229.6 -277.45 Q-232.15 -276.8 -236.5 -273.0 L-240.75 -274.0 -240.65 -274.0 -232.4 -277.4 -229.6 -277.45 M-250.35 -218.2 L-251.75 -217.25 -218.0 -223.75 -227.75 -226.5 -230.15 -226.5 -233.5 -225.65 -235.9 -224.4 -240.65 -224.4 -242.65 -223.75 -245.4 -222.15 -245.65 -221.65 -245.75 -221.65 -249.9 -218.5 -250.0 -218.5 -250.4 -218.25 -250.35 -218.2 M-251.75 -215.4 Q-251.65 -213.65 -244.25 -212.25 L-235.9 -211.75 Q-222.0 -215.15 -217.25 -222.0 L-251.25 -215.75 -251.75 -215.4" fill="url(#gradient3)" fill-rule="evenodd" stroke="none"/>
    <path d="M-193.65 -266.15 L-195.65 -265.25 -196.5 -268.15 -195.5 -268.65 -193.65 -266.15" fill="url(#gradient4)" fill-rule="evenodd" stroke="none"/>
    <path d="M-195.65 -265.25 L-227.75 -258.9 -228.5 -261.65 -196.5 -268.15 -195.65 -265.25" fill="url(#gradient5)" fill-rule="evenodd" stroke="none"/>
    <path d="M-227.75 -258.9 L-235.25 -261.0 -236.0 -263.75 -228.5 -261.65 -227.75 -258.9" fill="url(#gradient6)" fill-rule="evenodd" stroke="none"/>
    <path d="M-235.25 -261.0 L-236.4 -261.4 -237.4 -264.15 -236.0 -263.75 -235.25 -261.0" fill="url(#gradient7)" fill-rule="evenodd" stroke="none"/>
    <path d="M-236.4 -261.4 L-237.9 -260.5 -238.75 -263.25 -237.4 -264.15 -236.4 -261.4" fill="url(#gradient8)" fill-rule="evenodd" stroke="none"/>
    <path d="M-237.9 -260.5 L-244.65 -255.5 -245.65 -258.25 -238.75 -263.25 -237.9 -260.5" fill="url(#gradient9)" fill-rule="evenodd" stroke="none"/>
    <path d="M-244.65 -255.5 L-274.65 -249.65 -275.65 -252.4 -245.65 -258.25 -244.65 -255.5" fill="url(#gradient10)" fill-rule="evenodd" stroke="none"/>
    <path d="M-274.65 -249.65 L-276.25 -250.0 -277.15 -250.25 -278.15 -252.9 -275.65 -252.4 -274.65 -249.65" fill="url(#gradient11)" fill-rule="evenodd" stroke="none"/>
    <path d="M-297.75 -146.9 Q-320.75 -181.15 -311.4 -223.65 L-300.0 -250.4 -289.65 -265.0 -276.0 -277.5 -259.25 -287.25 -265.4 -279.9 -281.75 -262.25 -281.75 -255.4 -282.5 -242.75 -282.9 -233.0 -285.65 -236.4 -295.15 -250.5 -295.5 -250.4 -301.0 -231.75 -307.0 -215.5 -306.75 -215.0 -308.4 -197.4 -307.25 -195.65 -303.9 -188.0 -303.65 -173.0 -303.9 -172.9 -303.5 -172.75 -297.15 -160.25 -297.75 -160.25 -304.4 -163.9 -305.0 -163.9 -303.75 -162.65 -303.5 -161.75 -296.4 -150.9 -297.75 -146.9" fill="url(#gradient12)" fill-rule="evenodd" stroke="none"/>
    <path d="M-263.25 -137.0 L-252.65 -142.65 -252.5 -142.0 -267.9 -130.15 -276.5 -129.5 Q-274.6 -130.55 -272.75 -131.65 L-272.5 -131.9 -263.25 -136.9 -263.25 -137.0" fill="url(#gradient13)" fill-rule="evenodd" stroke="none"/>
    <path d="M-252.65 -142.65 L-252.5 -142.65 -252.25 -142.9 -252.15 -142.9 -249.0 -145.25 -249.0 -145.0 -250.15 -143.0 -251.4 -142.25 -252.5 -142.0 -252.65 -142.65 M-199.5 -152.5 L-195.75 -151.65 -195.4 -151.5 -195.25 -151.5 -196.4 -151.4 -196.75 -150.75 -197.9 -151.0 -199.5 -152.5" fill="url(#gradient14)" fill-rule="evenodd" stroke="none"/>
    <path d="M-249.0 -145.25 L-244.15 -155.25 -211.65 -160.4 -210.15 -160.5 -199.5 -152.5 -197.9 -151.0 -182.15 -133.15 -180.0 -130.25 -185.9 -134.0 -199.15 -137.25 -213.25 -136.9 -225.9 -132.9 -230.9 -129.75 -236.25 -125.75 -236.5 -125.5 -238.75 -123.9 -241.75 -119.9 -241.4 -116.9 Q-243.0 -116.4 -245.0 -106.75 L-244.0 -99.0 -240.25 -92.75 Q-241.25 -91.25 -237.15 -81.15 L-230.65 -73.4 -226.15 -70.65 -212.65 -68.15 -202.25 -59.9 -200.5 -59.0 -213.0 -62.0 -267.15 -55.25 -277.65 -45.5 -274.25 -53.5 -274.0 -57.75 -273.5 -59.5 -270.75 -62.4 -268.0 -67.0 -268.0 -67.65 -262.9 -72.5 -257.75 -81.4 -256.15 -90.9 -255.4 -91.5 -249.65 -100.15 -247.25 -108.5 -248.4 -116.0 -244.65 -119.4 -244.25 -120.15 -244.5 -123.75 Q-247.15 -126.75 -248.4 -127.0 L-262.5 -130.25 -251.4 -142.25 -250.15 -143.0 -249.0 -145.0 -249.0 -145.25 M-186.75 -55.4 L-181.75 -55.75 -179.4 -57.25 -180.0 -53.5 -186.75 -55.4 M-285.5 -39.5 L-285.65 -40.0 -282.5 -40.75 -284.9 -38.4 -285.5 -39.5" fill="url(#gradient15)" fill-rule="evenodd" stroke="none"/>
    <path d="M-153.4 -79.4 L-151.4 -43.75 -154.65 -54.15 -180.0 -53.5 -179.4 -57.25 -175.25 -57.15 -169.15 -60.25 -163.0 -67.4 -162.25 -68.9 -158.5 -70.15 -156.15 -74.9 -155.75 -85.65 -155.4 -86.5 -155.65 -88.15 -155.4 -93.9 -154.0 -90.15 -153.4 -79.4 M-157.65 -104.4 L-160.0 -109.4 -167.5 -120.5 -170.4 -124.0 -180.0 -130.25 -182.15 -133.15 -197.9 -151.0 -196.75 -150.75 -159.65 -126.5 -157.65 -104.4" fill="url(#gradient16)" fill-rule="evenodd" stroke="none"/>
    <path d="M-200.5 -59.0 L-202.25 -59.9 -212.65 -68.15 -226.15 -70.65 -230.65 -73.4 -237.15 -81.15 Q-241.25 -91.25 -240.25 -92.75 L-244.0 -99.0 -245.0 -106.75 Q-243.0 -116.4 -241.4 -116.9 L-241.75 -119.9 -238.75 -123.9 -236.5 -125.5 -236.25 -125.75 -230.9 -129.75 -225.9 -132.9 -213.25 -136.9 -199.15 -137.25 -185.9 -134.0 -180.0 -130.25 -170.4 -124.0 -167.5 -120.5 -160.0 -109.4 -157.65 -104.4 -156.65 -101.65 -155.4 -93.9 -155.65 -88.15 -155.4 -86.5 -155.75 -85.65 -156.15 -74.9 -158.5 -70.15 -162.25 -68.9 -163.0 -67.4 -169.15 -60.25 -175.25 -57.15 -179.4 -57.25 -181.75 -55.75 -186.75 -55.4 -188.65 -55.4 -195.4 -56.9 -200.5 -59.0" fill="url(#gradient17)" fill-rule="evenodd" stroke="none"/>
    <path d="M-193.25 -0.9 L-280.15 -0.9 -284.9 -38.4 -282.5 -40.75 -280.9 -41.9 -277.65 -45.5 -267.15 -55.25 -213.0 -62.0 -200.5 -59.0 -195.4 -56.9 -188.65 -55.4 -186.75 -55.4 -180.0 -53.5 -193.25 -0.9" fill="url(#gradient18)" fill-rule="evenodd" stroke="none"/>
    <path d="M-294.75 -39.65 L-301.5 -45.25 -306.4 -50.25 -309.15 -53.65 -310.9 -57.9 -311.9 -59.75 -315.5 -70.0 -317.0 -79.4 -316.5 -86.75 -310.5 -104.75 -308.75 -107.75 -308.75 -107.9 -308.5 -108.15 -306.5 -111.25 -299.4 -117.75 -298.9 -118.25 -298.75 -118.25 -298.4 -118.75 -297.25 -119.5 -297.15 -119.75 -296.9 -119.75 -291.9 -123.9 -287.25 -126.15 -281.4 -128.0 -278.25 -129.0 -276.5 -129.5 -267.9 -130.15 -262.5 -130.25 -248.4 -127.0 Q-247.15 -126.75 -244.5 -123.75 L-244.25 -120.15 -244.65 -119.4 -248.4 -116.0 -247.25 -108.5 -249.65 -100.15 -255.4 -91.5 -256.15 -90.9 -257.75 -81.4 -262.9 -72.5 -268.0 -67.65 -268.0 -67.0 -270.75 -62.4 -273.5 -59.5 -274.0 -57.75 -274.25 -53.5 -277.65 -45.5 -280.9 -41.9 -282.5 -40.75 -285.65 -40.0 -285.5 -39.5 -286.25 -38.0 -287.4 -37.0 -289.65 -36.9 -294.75 -39.65" fill="url(#gradient19)" fill-rule="evenodd" stroke="none"/>
    <path d="M-252.5 -142.0 L-251.4 -142.25 -262.5 -130.25 -267.9 -130.15 -252.5 -142.0" fill="url(#gradient20)" fill-rule="evenodd" stroke="none"/>
    <path d="M-245.65 -221.65 L-244.0 -222.9 -242.0 -223.75 -240.0 -224.25 -236.4 -224.0 -233.25 -225.5 -230.15 -226.25 -226.25 -225.9 -220.0 -223.9 -250.15 -218.15 -250.35 -218.2 -250.4 -218.25 -250.0 -218.5 -249.9 -218.5 -245.75 -221.65 -245.65 -221.65" fill="url(#gradient21)" fill-rule="evenodd" stroke="none"/>
    <path d="M-250.35 -218.2 L-250.15 -218.15 -220.0 -223.9 -226.25 -225.9 -230.15 -226.25 -233.25 -225.5 -236.4 -224.0 -240.0 -224.25 -242.0 -223.75 -244.0 -222.9 -245.65 -221.65 -245.4 -222.15 -242.65 -223.75 -240.65 -224.4 -235.9 -224.4 -233.5 -225.65 -230.15 -226.5 -227.75 -226.5 -218.0 -223.75 -251.75 -217.25 -250.35 -218.2" fill="url(#gradient22)" fill-rule="evenodd" stroke="none"/>
    <path d="M-251.75 -215.4 Q-244.25 -211.75 -235.25 -212.4 -223.0 -215.9 -218.75 -221.5 L-251.75 -215.4 -251.25 -215.75 -217.25 -222.0 Q-222.0 -215.15 -235.9 -211.75 L-244.25 -212.25 Q-251.65 -213.65 -251.75 -215.4" fill="url(#gradient23)" fill-rule="evenodd" stroke="none"/>
    <path d="M-251.75 -215.4 L-218.75 -221.5 Q-223.0 -215.9 -235.25 -212.4 -244.25 -211.75 -251.75 -215.4" fill="url(#gradient24)" fill-rule="evenodd" stroke="none"/>
    <path d="M-195.25 -151.5 L-159.75 -145.25 -158.0 -144.9 -152.25 -137.15 -147.75 -117.25 -147.25 -113.65 -156.65 -101.65 -157.65 -104.4 -159.65 -126.5 -196.75 -150.75 -196.4 -151.4 -195.25 -151.5" fill="url(#gradient25)" fill-rule="evenodd" stroke="none"/>
    <path d="M-281.4 -128.0 L-289.5 -136.15 -297.15 -146.25 -295.65 -145.25 -287.65 -137.4 -278.25 -129.0 -281.4 -128.0" fill="url(#gradient26)" fill-rule="evenodd" stroke="none"/>
    <path d="M-141.25 -140.4 L-135.9 -138.75 -152.25 -137.15 -158.0 -144.9 -152.25 -143.4 -141.25 -140.4" fill="url(#gradient27)" fill-rule="evenodd" stroke="none"/>
    <path d="M-135.9 -138.75 L-102.15 -131.65 -74.65 -127.5 -33.4 -119.65 -45.75 -99.0 -56.5 -72.4 -73.25 -72.4 -91.0 -75.9 -113.15 -82.75 -137.65 -86.4 -138.15 -86.5 -147.25 -113.65 -147.75 -117.25 -152.25 -137.15 -135.9 -138.75" fill="url(#gradient28)" fill-rule="evenodd" stroke="none"/>
    <path d="M-10.5 -120.9 L-1.25 -127.0 -0.9 -127.0 -0.9 -123.75 -5.65 -121.15 -10.5 -120.9" fill="url(#gradient29)" fill-rule="evenodd" stroke="none"/>
    <path d="M-0.9 -123.75 L-0.9 -120.9 -5.65 -121.15 -0.9 -123.75" fill="url(#gradient30)" fill-rule="evenodd" stroke="none"/>
    <path d="M-33.4 -119.65 L-10.5 -120.9 -5.65 -121.15 -0.9 -120.9 -1.0 -72.15 -1.15 -72.15 -1.5 -71.9 -1.75 -71.65 -2.0 -71.5 -2.25 -71.25 -2.65 -71.0 -2.9 -70.9 -3.15 -70.65 -4.4 -69.75 -5.15 -69.4 -30.75 -70.9 -55.9 -72.4 -56.5 -72.4 -45.75 -99.0 -33.4 -119.65" fill="url(#gradient31)" fill-rule="evenodd" stroke="none"/>
    <path d="M-298.25 -119.0 L-297.15 -119.75 -297.25 -119.5 -298.4 -118.75 -298.25 -119.0" fill="url(#gradient32)" fill-rule="evenodd" stroke="none"/>
    <path d="M-399.0 -46.4 L-389.0 -52.4 -388.75 -52.5 -386.9 -53.65 -386.65 -53.75 -384.9 -54.9 -384.65 -55.0 -382.75 -56.15 -382.5 -56.25 -382.15 -56.5 -380.65 -57.4 -380.5 -57.4 -374.0 -61.0 -372.25 -62.4 -372.15 -62.4 -372.0 -62.5 -371.9 -62.65 -371.75 -62.65 -368.65 -64.75 -368.4 -65.0 -368.0 -65.25 -367.15 -65.9 -367.0 -65.9 -316.25 -100.4 -316.15 -100.4 -315.75 -100.65 -315.5 -100.75 -308.75 -107.75 -310.5 -104.75 -316.5 -86.75 -317.0 -79.4 -315.5 -70.0 -311.9 -59.75 -310.9 -57.9 -311.9 -57.65 -328.4 -46.4 -351.75 -29.5 -353.4 -25.5 -373.9 -21.65 -398.25 -46.0 -399.0 -46.4 M-299.25 -118.0 L-298.25 -119.0 -298.4 -118.75 -298.75 -118.25 -298.9 -118.25 -299.25 -118.0" fill="url(#gradient33)" fill-rule="evenodd" stroke="none"/>
    <path d="M-299.4 -117.75 L-299.25 -118.0 -298.9 -118.25 -299.4 -117.75" fill="url(#gradient34)" fill-rule="evenodd" stroke="none"/>
    <path d="M-135.5 -85.5 L-153.4 -79.4 -154.0 -90.15 -155.4 -93.9 -156.65 -101.65 -147.25 -113.65 -138.15 -86.5 -137.65 -86.4 -135.5 -85.5" fill="url(#gradient35)" fill-rule="evenodd" stroke="none"/>
    <path d="M-367.0 -65.9 L-344.5 -82.15 -316.25 -100.4 -367.0 -65.9" fill="url(#gradient36)" fill-rule="evenodd" stroke="none"/>
    <path d="M-36.4 -68.4 L-78.5 -63.4 -104.25 -73.9 -135.5 -85.5 -137.65 -86.4 -113.15 -82.75 -91.0 -75.9 -73.25 -72.4 -56.5 -72.4 -55.9 -72.4 -36.4 -68.4" fill="url(#gradient37)" fill-rule="evenodd" stroke="none"/>
    <path d="M-30.75 -70.9 L-36.4 -68.4 -55.9 -72.4 -30.75 -70.9" fill="url(#gradient38)" fill-rule="evenodd" stroke="none"/>
    <path d="M-380.5 -57.4 L-372.25 -62.4 -374.0 -61.0 -380.5 -57.4" fill="url(#gradient39)" fill-rule="evenodd" stroke="none"/>
    <path d="M-371.0 -0.9 L-400.0 -0.9 -400.0 -45.25 -399.0 -46.4 -398.25 -46.0 -373.9 -21.65 -373.9 -21.0 -373.75 -20.75 -373.75 -20.4 -373.0 -4.75 -371.0 -0.9" fill="url(#gradient40)" fill-rule="evenodd" stroke="none"/>
    <path d="M-368.15 -0.9 L-371.0 -0.9 -373.0 -4.75 -373.75 -20.4 -373.65 -20.4 -373.15 -19.25 -368.15 -0.9" fill="url(#gradient41)" fill-rule="evenodd" stroke="none"/>
    <path d="M-367.15 -4.25 L-365.75 -0.9 -368.15 -0.9 -373.15 -19.25 -367.15 -4.25" fill="url(#gradient42)" fill-rule="evenodd" stroke="none"/>
    <path d="M-349.15 -26.5 L-367.15 -4.25 -373.15 -19.25 -373.65 -20.4 -373.75 -20.4 -373.75 -20.75 -373.9 -21.0 -373.9 -21.65 -353.4 -25.5 -349.15 -26.5" fill="url(#gradient43)" fill-rule="evenodd" stroke="none"/>
    <path d="M-306.4 -50.25 L-333.15 -36.4 -349.15 -26.5 -353.4 -25.5 -351.75 -29.5 -328.4 -46.4 -311.9 -57.65 -310.9 -57.9 -309.15 -53.65 -306.4 -50.25" fill="url(#gradient44)" fill-rule="evenodd" stroke="none"/>
    <path d="M-151.4 -43.75 L-158.25 -0.9 -193.25 -0.9 -180.0 -53.5 -154.65 -54.15 -151.4 -43.75" fill="url(#gradient45)" fill-rule="evenodd" stroke="none"/>
    <path d="M-280.15 -0.9 L-287.15 -0.9 -294.15 -35.65 -289.65 -36.9 -287.4 -37.0 -286.25 -38.0 -284.9 -38.4 -280.15 -0.9" fill="url(#gradient46)" fill-rule="evenodd" stroke="none"/>
    <path d="M-294.15 -35.65 L-294.75 -39.65 -289.65 -36.9 -294.15 -35.65 M-286.25 -38.0 L-285.5 -39.5 -284.9 -38.4 -286.25 -38.0" fill="url(#gradient47)" fill-rule="evenodd" stroke="none"/>
    <path d="M-199.75 -161.65 L-194.4 -161.75 -194.5 -160.65 -194.4 -160.4 -194.5 -157.0 -194.65 -156.65 -194.5 -155.15 -194.65 -151.4 -189.4 -150.5 -189.25 -154.65 -189.4 -155.25 -189.25 -158.9 -189.4 -161.25 -189.25 -161.65 -189.4 -163.25 -186.15 -163.4 -185.9 -151.25 -186.0 -151.0 -185.9 -150.5 -185.9 -149.9 -186.15 -148.0 -189.65 -143.5 -189.4 -143.25 -175.5 -136.75 -173.65 -135.65 -160.75 -129.5 -178.75 -129.4 -178.9 -129.5 -203.0 -129.5 -202.75 -130.15 -202.9 -130.25 -201.65 -134.75 -201.15 -136.65 -201.25 -136.9 -201.15 -137.15 -200.25 -140.5 -194.75 -147.25 -194.9 -147.65 -194.75 -150.75 -194.65 -151.4 -195.25 -151.4 -195.4 -151.5 -195.75 -151.65 -197.65 -152.15 -200.25 -161.5 -199.75 -161.65 M-258.75 -153.5 L-258.0 -153.65 -257.0 -152.4 -250.75 -145.65 -250.4 -145.0 -250.0 -144.65 -250.4 -144.4 -250.4 -144.25 -252.15 -143.0 -252.25 -142.9 -255.4 -141.15 -256.4 -142.4 -256.75 -142.65 -264.15 -150.25 -264.4 -150.75 -265.0 -151.15 -264.9 -151.4 -264.5 -151.5 -259.25 -153.4 -259.0 -153.4 -258.75 -153.5" fill="#9b0000" fill-opacity="0.9098039" fill-rule="evenodd" stroke="none"/>
    <path d="M-189.4 -163.25 L-189.25 -161.65 -189.4 -161.25 -189.25 -158.9 -189.4 -155.25 -189.25 -154.65 -189.4 -150.5 -194.65 -151.4 -194.5 -155.15 -194.65 -156.65 -194.5 -157.0 -194.4 -160.4 -194.5 -160.65 -194.4 -161.75 -199.75 -161.65 -189.4 -163.25" fill="#a90000" fill-rule="evenodd" stroke="none"/>
    <path d="M-203.0 -129.5 L-178.9 -129.5 -178.75 -129.4 -160.75 -129.5 -160.5 -128.9 -160.65 -127.15 -160.5 -126.65 -159.5 -108.5 -159.15 -107.15 -159.4 -106.25 -159.25 -105.65 -159.25 -105.25 -159.5 -103.75 -159.5 -103.65 -159.75 -102.15 -160.0 -101.5 -159.9 -101.0 -160.75 -96.4 -160.75 -95.75 -161.15 -94.0 -161.15 -93.4 -162.0 -87.9 -162.25 -87.65 -162.15 -87.5 -162.15 -87.0 -162.5 -84.65 -162.75 -84.25 -162.65 -83.9 -164.4 -72.75 -164.65 -72.5 -164.5 -72.0 -164.75 -70.4 -164.9 -70.0 -164.9 -69.65 -165.25 -67.25 -165.5 -66.4 -165.5 -65.75 -166.15 -66.0 -172.15 -66.65 -172.4 -66.75 -183.15 -67.9 -183.65 -67.9 -210.15 -70.75 -219.4 -69.5 -219.75 -69.4 -256.25 -64.0 -273.0 -62.5 -274.5 -62.5 -279.65 -61.9 -281.4 -60.4 -281.65 -60.4 -281.75 -60.0 -282.0 -59.9 -282.9 -59.0 -283.65 -58.4 -287.15 -55.25 -287.65 -55.0 -287.9 -54.65 -288.15 -54.4 -288.25 -54.25 -289.0 -53.65 -289.25 -53.4 -290.15 -52.9 -290.4 -52.4 -292.25 -50.75 -292.4 -50.65 -292.5 -50.5 -293.25 -49.9 -293.65 -49.5 -294.15 -49.15 -295.75 -47.65 -296.4 -47.25 -296.5 -47.0 -296.75 -46.75 -297.0 -46.65 -297.9 -45.75 -298.5 -45.4 -298.75 -45.0 -299.0 -44.9 -299.0 -44.75 -299.75 -44.25 -299.75 -44.0 -300.0 -44.0 -302.25 -46.15 -302.5 -46.25 -304.75 -48.5 -305.25 -48.9 -306.4 -50.25 -307.0 -51.15 -308.75 -53.15 -309.9 -55.5 -309.9 -55.65 -310.9 -57.9 -310.9 -58.0 -312.0 -60.0 -313.65 -64.9 -313.65 -65.0 -313.75 -65.25 -313.9 -65.5 -314.0 -65.9 -314.65 -67.75 -314.65 -67.9 -314.75 -68.15 -314.9 -68.4 -315.15 -69.0 -315.65 -70.9 -315.75 -70.9 -315.65 -71.5 -317.0 -77.15 -317.0 -79.15 -316.65 -85.5 -315.4 -90.25 -314.75 -92.15 -314.5 -93.15 -314.5 -93.4 -314.75 -93.5 -314.65 -93.9 -315.9 -100.15 -315.75 -100.4 -315.75 -100.75 -315.5 -100.75 -315.25 -100.9 -308.75 -107.75 -308.75 -107.9 -308.9 -107.9 -308.65 -108.0 -308.5 -108.0 -307.25 -108.15 -306.4 -108.15 -306.15 -108.25 -297.5 -109.0 -297.15 -109.15 -294.25 -109.4 -293.4 -108.75 -284.9 -103.4 -284.4 -103.25 -257.25 -86.4 -256.9 -86.15 -249.9 -81.9 -242.5 -87.25 -242.4 -87.5 -236.65 -91.65 -236.25 -92.15 -234.5 -93.25 -230.75 -96.15 -230.25 -96.4 -217.9 -105.65 -217.75 -106.0 -209.5 -112.0 -208.65 -113.65 -208.75 -113.9 -208.5 -114.15 -205.25 -123.0 -205.4 -123.25 -205.15 -123.5 -203.0 -129.5 M-298.65 -79.4 L-300.0 -83.4 -299.25 -78.75 -299.25 -78.4 -299.15 -78.4 -298.9 -78.25 -298.5 -78.65 -298.65 -78.75 -298.65 -79.4 M-196.5 -100.0 L-197.75 -101.5 -198.9 -100.25 -198.15 -98.0 -198.15 -97.4 -197.75 -97.5 -197.0 -98.65 -196.75 -98.9 -196.5 -99.65 -196.5 -100.0" fill="#b00000" fill-opacity="0.9098039" fill-rule="evenodd" stroke="none"/>
    <path d="M-265.65 -152.15 L-259.25 -153.4 -258.75 -153.5 -259.0 -153.4 -259.25 -153.4 -264.5 -151.5 -264.9 -151.4 -265.65 -152.15" fill="#ac0000" fill-rule="evenodd" stroke="none"/>
    <path d="M-294.25 -109.4 L-297.15 -109.15 -297.5 -109.0 -306.15 -108.25 -306.4 -108.15 -307.25 -108.15 -308.5 -108.0 -308.65 -108.0 -306.5 -111.25 -299.4 -117.75 -299.25 -118.0 -298.0 -119.25 -297.15 -119.75 -296.9 -119.75 -295.5 -120.9 -295.25 -121.0 -294.9 -121.4 -293.5 -122.4 -293.0 -122.9 -291.65 -123.9 -291.25 -124.0 -287.25 -126.0 -287.5 -125.4 -287.5 -125.25 -287.65 -125.0 -288.25 -123.4 -288.5 -123.15 -290.0 -119.15 -290.4 -118.75 -293.0 -112.15 -293.4 -111.65 -294.25 -109.4 M-285.25 -131.75 L-283.75 -132.25 -281.9 -133.15 -281.75 -133.25 -278.4 -134.65 -276.9 -138.75 -276.9 -139.15 -276.65 -139.5 -273.15 -148.9 -273.15 -149.15 -273.0 -149.4 -272.65 -150.25 -265.65 -152.15 -264.9 -151.4 -265.0 -151.15 -265.9 -148.75 -265.75 -148.25 -267.75 -142.5 -268.0 -142.25 -267.9 -142.0 -268.4 -141.15 -268.25 -140.9 -269.75 -136.25 -279.9 -131.75 -280.75 -131.25 -283.0 -130.25 -283.4 -130.0 -285.25 -131.75" fill="#9e0000" fill-opacity="0.9098039" fill-rule="evenodd" stroke="none"/>
    <path d="M-308.65 -108.0 L-308.9 -107.9 -316.75 -107.25 -295.5 -127.25 -285.25 -131.75 -283.4 -130.0 -286.0 -128.9 -287.0 -126.25 -287.25 -126.0 -291.25 -124.0 -291.65 -123.9 -293.0 -122.9 -293.5 -122.4 -294.9 -121.4 -295.25 -121.0 -295.5 -120.9 -296.9 -119.75 -297.15 -119.75 -298.0 -119.25 -299.25 -118.0 -299.4 -117.75 -306.5 -111.25 -308.65 -108.0" fill="#ae0000" fill-opacity="0.9098039" fill-rule="evenodd" stroke="none"/>
    <path d="M-308.9 -107.9 L-308.75 -107.9 -308.75 -107.75 -315.25 -100.9 -315.5 -100.75 -315.75 -100.75 -317.0 -106.75 -316.75 -107.25 -308.9 -107.9 M-305.25 -48.9 L-304.75 -48.5 -302.5 -46.25 -302.25 -46.15 -300.0 -44.0 -300.15 -43.75 -301.9 -42.25 -302.0 -42.15 -302.4 -41.9 -304.15 -44.65 -304.75 -46.15 -305.25 -48.9" fill="#c20000" fill-opacity="0.9098039" fill-rule="evenodd" stroke="none"/>
    <path d="M-165.5 -65.75 L-165.5 -66.4 -165.25 -67.25 -164.9 -69.65 -164.9 -70.0 -164.75 -70.4 -164.5 -72.0 -164.65 -72.5 -164.4 -72.75 -162.65 -83.9 -162.75 -84.25 -162.5 -84.65 -162.15 -87.0 -162.15 -87.5 -162.25 -87.65 -162.0 -87.9 -161.15 -93.4 -161.15 -94.0 -160.75 -95.75 -160.75 -96.4 -159.9 -101.0 -160.0 -101.5 -159.75 -102.15 -159.5 -103.65 -159.5 -103.75 -159.25 -105.25 -159.25 -105.65 -159.4 -106.25 -159.15 -107.15 -159.5 -108.5 -160.5 -126.65 -160.65 -127.15 -160.5 -128.9 -159.4 -126.75 -159.4 -126.4 -159.0 -125.9 -158.5 -125.0 -149.5 -105.75 -149.5 -105.15 -141.15 -87.15 -140.9 -87.0 -140.65 -85.5 -140.75 -85.25 -140.4 -83.75 -153.4 -79.4 -153.15 -71.15 -153.0 -70.75 -153.15 -69.25 -153.15 -69.15 -153.0 -68.75 -152.9 -68.15 -152.5 -63.5 -164.5 -65.75 -165.5 -65.75" fill="#d30000" fill-opacity="0.9098039" fill-rule="evenodd" stroke="none"/>
    <path d="M-140.4 -83.75 L-135.0 -55.5 -135.15 -53.5 -135.75 -52.15 -135.75 -51.9 -136.0 -51.25 -136.15 -51.0 -136.25 -50.75 -139.15 -61.15 -152.5 -63.5 -152.9 -68.15 -153.0 -68.75 -153.15 -69.15 -153.15 -69.25 -153.0 -70.75 -153.15 -71.15 -153.4 -79.4 -140.4 -83.75" fill="#e80000" fill-opacity="0.9098039" fill-rule="evenodd" stroke="none"/>
    <path d="M-158.25 -0.9 L-186.4 -0.9 -186.25 -3.0 -186.15 -3.4 -186.0 -3.75 -185.9 -4.15 -185.75 -4.5 -185.65 -4.9 -185.5 -5.25 -185.4 -5.65 -185.25 -6.0 -185.15 -6.4 -185.0 -6.75 -184.9 -7.15 -184.75 -7.5 -184.65 -7.9 -184.5 -8.25 -184.4 -8.65 -184.25 -9.0 -184.15 -9.4 -184.0 -9.75 -183.9 -10.25 -179.25 -24.25 -179.15 -24.65 -179.0 -25.0 -178.9 -25.4 -178.75 -25.75 -178.65 -26.15 -178.5 -26.5 -178.4 -26.9 -178.25 -27.25 -178.15 -27.65 -178.0 -28.0 -177.9 -28.4 -177.75 -28.75 -177.65 -29.15 -177.5 -29.5 -177.4 -29.9 -177.25 -30.25 -177.0 -31.65 -176.9 -31.65 -176.5 -32.5 -176.4 -32.9 -176.25 -33.25 -176.15 -33.65 -176.0 -34.0 -175.9 -34.4 -175.75 -34.75 -175.65 -35.15 -175.5 -35.5 -175.4 -35.9 -175.25 -36.25 -175.15 -36.65 -175.0 -37.0 -174.9 -37.4 -174.75 -37.75 -174.65 -38.25 -170.25 -51.4 -169.9 -52.65 -169.75 -53.0 -169.65 -53.4 -169.65 -53.75 -169.4 -54.15 -169.25 -54.5 -169.15 -54.9 -169.0 -55.25 -168.9 -55.65 -168.75 -56.0 -168.65 -56.4 -168.5 -56.75 -168.4 -57.15 -168.25 -57.5 -168.15 -57.9 -168.0 -58.25 -167.9 -58.65 -167.75 -59.0 -167.65 -59.4 -167.5 -59.75 -167.4 -60.15 -167.25 -60.5 -167.15 -60.9 -167.0 -61.25 -166.9 -61.65 -166.75 -62.0 -166.65 -62.4 -166.5 -62.75 -166.5 -63.15 -166.0 -64.25 -165.9 -64.65 -165.75 -65.0 -165.65 -65.4 -165.5 -65.75 -164.5 -65.75 -152.5 -63.5 -151.75 -47.15 -151.65 -46.75 -151.75 -45.25 -151.65 -45.0 -151.65 -44.75 -151.5 -44.15 -151.75 -41.9 -151.9 -41.65 -151.9 -40.9 -155.0 -20.9 -155.0 -20.75 -155.15 -20.5 -155.15 -20.4 -157.0 -7.9 -158.25 -0.9" fill="#cf0000" fill-opacity="0.9098039" fill-rule="evenodd" stroke="none"/>
    <path d="M-315.75 -100.75 L-315.75 -100.4 -316.25 -100.4 -319.75 -98.4 -317.0 -106.75 -315.75 -100.75 M-306.4 -50.25 L-305.25 -48.9 -304.75 -46.15 -307.25 -49.9 -306.4 -50.25" fill="#c50000" fill-rule="evenodd" stroke="none"/>
    <path d="M-315.75 -100.4 L-315.9 -100.15 -314.65 -93.9 -314.75 -93.5 -314.5 -93.4 -314.5 -93.15 -314.75 -92.15 -315.4 -90.25 -316.65 -85.5 -317.0 -79.15 -317.0 -77.15 -315.65 -71.5 -315.75 -70.9 -315.65 -70.9 -315.15 -69.0 -314.9 -68.4 -314.75 -68.15 -314.65 -67.9 -314.65 -67.75 -314.0 -65.9 -313.9 -65.5 -313.75 -65.25 -313.65 -65.0 -313.65 -64.9 -312.0 -60.0 -310.9 -58.0 -310.9 -57.9 -309.9 -55.65 -309.9 -55.5 -308.75 -53.15 -307.0 -51.15 -306.4 -50.25 -307.25 -49.9 -308.0 -50.9 -312.15 -57.4 -312.0 -57.65 -312.25 -57.75 -325.75 -78.9 -326.0 -79.75 -324.5 -83.9 -324.65 -84.15 -324.25 -84.75 -322.0 -91.9 -321.4 -93.15 -320.15 -97.5 -320.0 -97.75 -319.9 -98.15 -319.75 -98.4 -316.25 -100.4 -315.75 -100.4" fill="#c30000" fill-rule="evenodd" stroke="none"/>
    <path d="M-316.15 -45.5 L-316.25 -46.15 -325.75 -78.9 -312.25 -57.75 -312.0 -57.65 -312.15 -57.4 -308.0 -50.9 -307.25 -49.9 -316.15 -45.5" fill="#fb0000" fill-rule="evenodd" stroke="none"/>
    <path d="M-313.65 -37.15 L-313.75 -37.65 -316.15 -45.4 -316.15 -45.5 -307.25 -49.9 -304.75 -46.15 -304.15 -44.65 -301.5 -35.75 -301.15 -34.15 -299.75 -23.15 -305.75 -26.65 -313.65 -37.15" fill="#fd0000" fill-rule="evenodd" stroke="none"/>
    <path d="M-300.0 -44.0 L-299.75 -44.0 -299.75 -44.25 -299.0 -44.75 -299.0 -44.9 -298.75 -45.0 -298.5 -45.4 -297.9 -45.75 -297.0 -46.65 -296.75 -46.75 -296.5 -47.0 -296.4 -47.25 -295.75 -47.65 -294.15 -49.15 -293.65 -49.5 -293.25 -49.9 -292.5 -50.5 -292.4 -50.65 -292.25 -50.75 -290.4 -52.4 -290.15 -52.9 -289.25 -53.4 -289.0 -53.65 -288.25 -54.25 -288.15 -54.4 -287.9 -54.65 -287.65 -55.0 -287.15 -55.25 -283.65 -58.4 -282.9 -59.0 -282.0 -59.9 -281.75 -60.0 -281.65 -60.4 -281.4 -60.4 -279.65 -61.9 -274.5 -62.5 -273.0 -62.5 -256.25 -64.0 -219.75 -69.4 -219.4 -69.5 -210.15 -70.75 -183.65 -67.9 -183.15 -67.9 -172.4 -66.75 -172.15 -66.65 -166.15 -66.0 -165.5 -65.75 -165.65 -65.4 -165.75 -65.0 -165.9 -64.65 -166.0 -64.25 -166.5 -63.15 -166.5 -62.75 -166.65 -62.4 -166.75 -62.0 -166.9 -61.65 -167.0 -61.25 -167.15 -60.9 -167.25 -60.5 -167.4 -60.15 -167.5 -59.75 -167.65 -59.4 -167.75 -59.0 -167.9 -58.65 -168.0 -58.25 -168.15 -57.9 -168.25 -57.5 -168.4 -57.15 -168.5 -56.75 -168.65 -56.4 -168.75 -56.0 -168.9 -55.65 -169.0 -55.25 -169.15 -54.9 -169.25 -54.5 -169.4 -54.15 -169.65 -53.75 -169.65 -53.4 -169.75 -53.0 -169.9 -52.65 -170.25 -51.4 -174.65 -38.25 -174.75 -37.75 -174.9 -37.4 -175.0 -37.0 -175.15 -36.65 -175.25 -36.25 -175.4 -35.9 -175.5 -35.5 -175.65 -35.15 -175.75 -34.75 -175.9 -34.4 -176.0 -34.0 -176.15 -33.65 -176.25 -33.25 -176.4 -32.9 -176.5 -32.5 -176.9 -31.65 -177.0 -31.65 -177.25 -30.25 -177.4 -29.9 -177.5 -29.5 -177.65 -29.15 -177.75 -28.75 -177.9 -28.4 -178.0 -28.0 -178.15 -27.65 -178.25 -27.25 -178.4 -26.9 -178.5 -26.5 -178.65 -26.15 -178.75 -25.75 -178.9 -25.4 -179.0 -25.0 -179.15 -24.65 -179.25 -24.25 -183.9 -10.25 -184.0 -9.75 -184.15 -9.4 -184.25 -9.0 -184.4 -8.65 -184.5 -8.25 -184.65 -7.9 -184.75 -7.5 -184.9 -7.15 -185.0 -6.75 -185.15 -6.4 -185.25 -6.0 -185.4 -5.65 -185.5 -5.25 -185.65 -4.9 -185.75 -4.5 -185.9 -4.15 -186.0 -3.75 -186.15 -3.4 -186.25 -3.0 -186.4 -0.9 -193.4 -1.0 -193.9 -0.9 -287.15 -0.9 -291.65 -22.9 -293.5 -33.25 -294.15 -35.65 -294.75 -39.65 -296.75 -41.0 -300.0 -44.0" fill="#a80000" fill-opacity="0.9098039" fill-rule="evenodd" stroke="none"/>
    <path d="M-287.15 -0.9 L-296.4 -0.9 -299.5 -22.75 -299.75 -23.15 -301.15 -34.15 -300.4 -33.65 -291.65 -22.9 -287.15 -0.9" fill="#bd0000" fill-rule="evenodd" stroke="none"/>
    <path d="M-300.0 -44.0 L-296.75 -41.0 -294.75 -39.65 -294.15 -35.65 -293.5 -33.25 -291.65 -22.9 -300.4 -33.65 -301.15 -34.15 -301.5 -35.75 -302.4 -41.9 -302.0 -42.15 -301.9 -42.25 -300.15 -43.75 -300.0 -44.0" fill="#b90000" fill-opacity="0.9098039" fill-rule="evenodd" stroke="none"/>
    <path d="M-302.4 -41.9 L-301.5 -35.75 -304.15 -44.65 -302.4 -41.9" fill="#ff0000" fill-opacity="0.9098039" fill-rule="evenodd" stroke="none"/>
    <path d="M-135.15 -53.5 L-135.0 -53.25 -135.75 -49.25 -136.25 -50.15 -136.25 -50.25 -136.25 -50.75 -136.15 -51.0 -136.0 -51.25 -135.75 -51.9 -135.75 -52.15 -135.15 -53.5" fill="#ea0000" fill-rule="evenodd" stroke="none"/>
    <path d="M-135.75 -49.25 L-136.0 -47.65 -135.9 -47.15 -144.4 -1.15 -145.25 -0.9 -155.9 -0.9 -157.0 -7.9 -155.15 -20.4 -155.15 -20.5 -155.0 -20.75 -155.0 -20.9 -141.65 -35.25 -136.25 -50.25 -136.25 -50.15 -135.75 -49.25" fill="#e60000" fill-rule="evenodd" stroke="none"/>
    <path d="M-152.5 -63.5 L-139.15 -61.15 -136.25 -50.75 -136.25 -50.25 -141.65 -35.25 -155.0 -20.9 -151.9 -40.9 -151.9 -41.65 -151.75 -41.9 -151.5 -44.15 -151.65 -44.75 -151.65 -45.0 -151.75 -45.25 -151.65 -46.75 -151.75 -47.15 -152.5 -63.5" fill="#e40000" fill-opacity="0.9098039" fill-rule="evenodd" stroke="none"/>
    <path d="M-296.4 -0.9 L-305.5 -0.9 -313.65 -37.15 -305.75 -26.65 -299.75 -23.15 -299.5 -22.75 -296.4 -0.9" fill="#fc0000" fill-rule="evenodd" stroke="none"/>
    <path d="M-155.9 -0.9 L-158.25 -0.9 -157.0 -7.9 -155.9 -0.9" fill="#e10000" fill-rule="evenodd" stroke="none"/>
  </g>
  <defs>
    <radialGradient cx="0" cy="0" gradientTransform="matrix(0.2105, 0.0, 0.0, 0.2105, -163.9, -146.95)" gradientUnits="userSpaceOnUse" id="gradient0" r="819.2" spreadMethod="pad">
      <stop offset="0.0" stop-color="#5b5b5b"/>
      <stop offset="1.0" stop-color="#131313"/>
    </radialGradient>
    <radialGradient cx="0" cy="0" gradientTransform="matrix(0.2113, 0.0, 0.0, 0.2113, -138.8, -143.25)" gradientUnits="userSpaceOnUse" id="gradient1" r="819.2" spreadMethod="pad">
      <stop offset="0.0" stop-color="#414141"/>
      <stop offset="1.0" stop-color="#151515"/>
    </radialGradient>
    <radialGradient cx="0" cy="0" gradientTransform="matrix(0.1061, 0.0, 0.0, 0.1061, -278.2, -253.05)" gradientUnits="userSpaceOnUse" id="gradient2" r="819.2" spreadMethod="pad">
      <stop offset="0.0" stop-color="#767676"/>
      <stop offset="1.0" stop-color="#767676"/>
    </radialGradient>
    <radialGradient cx="0" cy="0" gradientTransform="matrix(0.1899, 0.0, 0.0, 0.1899, -292.25, -186.75)" gradientUnits="userSpaceOnUse" id="gradient3" r="819.2" spreadMethod="pad">
      <stop offset="0.0" stop-color="#7e7e7e"/>
      <stop offset="1.0" stop-color="#010101"/>
    </radialGradient>
    <radialGradient cx="0" cy="0" gradientTransform="matrix(0.0045, 0.0, 0.0, 0.0045, -196.4, -268.25)" gradientUnits="userSpaceOnUse" id="gradient4" r="819.2" spreadMethod="pad">
      <stop offset="0.0" stop-color="#bbbbbb"/>
      <stop offset="1.0" stop-color="#bababa"/>
    </radialGradient>
    <radialGradient cx="0" cy="0" gradientTransform="matrix(0.0399, 0.0, 0.0, 0.0399, -196.4, -268.25)" gradientUnits="userSpaceOnUse" id="gradient5" r="819.2" spreadMethod="pad">
      <stop offset="0.0" stop-color="#767676"/>
      <stop offset="1.0" stop-color="#767676"/>
    </radialGradient>
    <radialGradient cx="0" cy="0" gradientTransform="matrix(0.0096, 0.0, 0.0, 0.0096, -228.45, -261.7)" gradientUnits="userSpaceOnUse" id="gradient6" r="819.2" spreadMethod="pad">
      <stop offset="0.0" stop-color="#8b8b8b"/>
      <stop offset="1.0" stop-color="#8b8b8b"/>
    </radialGradient>
    <radialGradient cx="0" cy="0" gradientTransform="matrix(0.0036, 0.0, 0.0, 0.0036, -236.05, -263.85)" gradientUnits="userSpaceOnUse" id="gradient7" r="819.2" spreadMethod="pad">
      <stop offset="0.0" stop-color="#8c8c8c"/>
      <stop offset="1.0" stop-color="#8c8c8c"/>
    </radialGradient>
    <radialGradient cx="0" cy="0" gradientTransform="matrix(0.0037, 0.0, 0.0, 0.0037, -238.9, -263.3)" gradientUnits="userSpaceOnUse" id="gradient8" r="819.2" spreadMethod="pad">
      <stop offset="0.0" stop-color="#e2e2e2"/>
      <stop offset="1.0" stop-color="#e0e0e0"/>
    </radialGradient>
    <radialGradient cx="0" cy="0" gradientTransform="matrix(0.0102, 0.0, 0.0, 0.0102, -245.65, -258.35)" gradientUnits="userSpaceOnUse" id="gradient9" r="819.2" spreadMethod="pad">
      <stop offset="0.0" stop-color="#e1e1e1"/>
      <stop offset="1.0" stop-color="#dfdfdf"/>
    </radialGradient>
    <radialGradient cx="0" cy="0" gradientTransform="matrix(0.0373, 0.0, 0.0, 0.0373, -245.65, -258.35)" gradientUnits="userSpaceOnUse" id="gradient10" r="819.2" spreadMethod="pad">
      <stop offset="0.0" stop-color="#767676"/>
      <stop offset="1.0" stop-color="#767676"/>
    </radialGradient>
    <radialGradient cx="0" cy="0" gradientTransform="matrix(0.0036, 0.0, 0.0, 0.0036, -275.6, -252.45)" gradientUnits="userSpaceOnUse" id="gradient11" r="819.2" spreadMethod="pad">
      <stop offset="0.0" stop-color="#838383"/>
      <stop offset="1.0" stop-color="#838383"/>
    </radialGradient>
    <radialGradient cx="0" cy="0" gradientTransform="matrix(0.1167, 0.0, 0.0, 0.1167, -289.35, -242.2)" gradientUnits="userSpaceOnUse" id="gradient12" r="819.2" spreadMethod="pad">
      <stop offset="0.0" stop-color="#494949"/>
      <stop offset="1.0" stop-color="#272727"/>
    </radialGradient>
    <radialGradient cx="0" cy="0" gradientTransform="matrix(0.0571, 0.0, 0.0, 0.0571, -249.1, -144.65)" gradientUnits="userSpaceOnUse" id="gradient13" r="819.2" spreadMethod="pad">
      <stop offset="0.0" stop-color="#000000"/>
      <stop offset="1.0" stop-color="#000000"/>
    </radialGradient>
    <radialGradient cx="0" cy="0" gradientTransform="matrix(0.1407, 0.0, 0.0, 0.1407, -264.7, -59.65)" gradientUnits="userSpaceOnUse" id="gradient14" r="819.2" spreadMethod="pad">
      <stop offset="0.0" stop-color="#323232"/>
      <stop offset="1.0" stop-color="#000000"/>
    </radialGradient>
    <radialGradient cx="0" cy="0" gradientTransform="matrix(0.146, 0.0, 0.0, 0.146, -267.1, -55.3)" gradientUnits="userSpaceOnUse" id="gradient15" r="819.2" spreadMethod="pad">
      <stop offset="0.0" stop-color="#6a6a6a"/>
      <stop offset="1.0" stop-color="#000000"/>
    </radialGradient>
    <radialGradient cx="0" cy="0" gradientTransform="matrix(0.1179, 0.0, 0.0, 0.1179, -152.8, -67.45)" gradientUnits="userSpaceOnUse" id="gradient16" r="819.2" spreadMethod="pad">
      <stop offset="0.0" stop-color="#3f3f3f"/>
      <stop offset="1.0" stop-color="#000000"/>
    </radialGradient>
    <radialGradient cx="0" cy="0" gradientTransform="matrix(0.0775, 0.0, 0.0, 0.0775, -214.9, -78.8)" gradientUnits="userSpaceOnUse" id="gradient17" r="819.2" spreadMethod="pad">
      <stop offset="0.0" stop-color="#878787"/>
      <stop offset="1.0" stop-color="#000000"/>
    </radialGradient>
    <radialGradient cx="0" cy="0" gradientTransform="matrix(0.1118, 0.0, 0.0, 0.1118, -267.1, -55.3)" gradientUnits="userSpaceOnUse" id="gradient18" r="819.2" spreadMethod="pad">
      <stop offset="0.0" stop-color="#6a6a6a"/>
      <stop offset="1.0" stop-color="#000000"/>
    </radialGradient>
    <radialGradient cx="0" cy="0" gradientTransform="matrix(0.0814, 0.0, 0.0, 0.0814, -282.95, -72.5)" gradientUnits="userSpaceOnUse" id="gradient19" r="819.2" spreadMethod="pad">
      <stop offset="0.0" stop-color="#858585"/>
      <stop offset="1.0" stop-color="#000000"/>
    </radialGradient>
    <radialGradient cx="0" cy="0" gradientTransform="matrix(0.0448, 0.0, 0.0, 0.0448, -274.2, -117.8)" gradientUnits="userSpaceOnUse" id="gradient20" r="819.2" spreadMethod="pad">
      <stop offset="0.0" stop-color="#000000"/>
      <stop offset="1.0" stop-color="#000000"/>
    </radialGradient>
    <radialGradient cx="0" cy="0" gradientTransform="matrix(0.0359, 0.0, 0.0, 0.0359, -221.5, -224.45)" gradientUnits="userSpaceOnUse" id="gradient21" r="819.2" spreadMethod="pad">
      <stop offset="0.0" stop-color="#ff5151"/>
      <stop offset="1.0" stop-color="#ff4c4c"/>
    </radialGradient>
    <radialGradient cx="0" cy="0" gradientTransform="matrix(0.0374, 0.0, 0.0, 0.0374, -222.05, -224.65)" gradientUnits="userSpaceOnUse" id="gradient22" r="819.2" spreadMethod="pad">
      <stop offset="0.0" stop-color="#ff5151"/>
      <stop offset="1.0" stop-color="#330000"/>
    </radialGradient>
    <radialGradient cx="0" cy="0" gradientTransform="matrix(0.0386, 0.0, 0.0, 0.0386, -220.75, -218.7)" gradientUnits="userSpaceOnUse" id="gradient23" r="819.2" spreadMethod="pad">
      <stop offset="0.0" stop-color="#f89797"/>
      <stop offset="1.0" stop-color="#4d0000"/>
    </radialGradient>
    <radialGradient cx="0" cy="0" gradientTransform="matrix(0.0283, 0.0, 0.0, 0.0283, -228.4, -214.8)" gradientUnits="userSpaceOnUse" id="gradient24" r="819.2" spreadMethod="pad">
      <stop offset="0.0" stop-color="#ff3030"/>
      <stop offset="1.0" stop-color="#ff2d2d"/>
    </radialGradient>
    <radialGradient cx="0" cy="0" gradientTransform="matrix(0.0788, 0.0, 0.0, 0.0788, -147.15, -113.9)" gradientUnits="userSpaceOnUse" id="gradient25" r="819.2" spreadMethod="pad">
      <stop offset="0.0" stop-color="#595959"/>
      <stop offset="1.0" stop-color="#000000"/>
    </radialGradient>
    <radialGradient cx="0" cy="0" gradientTransform="matrix(0.0372, 0.0, 0.0, 0.0372, -297.7, -146.95)" gradientUnits="userSpaceOnUse" id="gradient26" r="819.2" spreadMethod="pad">
      <stop offset="0.0" stop-color="#191919"/>
      <stop offset="1.0" stop-color="#0d0d0d"/>
    </radialGradient>
    <radialGradient cx="0" cy="0" gradientTransform="matrix(0.0201, 0.0, 0.0, 0.0201, -152.3, -137.15)" gradientUnits="userSpaceOnUse" id="gradient27" r="819.2" spreadMethod="pad">
      <stop offset="0.0" stop-color="#000000"/>
      <stop offset="1.0" stop-color="#000000"/>
    </radialGradient>
    <radialGradient cx="0" cy="0" gradientTransform="matrix(0.1082, 0.0, 0.0, 0.1082, -121.8, -115.0)" gradientUnits="userSpaceOnUse" id="gradient28" r="819.2" spreadMethod="pad">
      <stop offset="0.0" stop-color="#616161"/>
      <stop offset="1.0" stop-color="#000000"/>
    </radialGradient>
    <radialGradient cx="0" cy="0" gradientTransform="matrix(0.0097, 0.0, 0.0, 0.0097, -5.5, -121.3)" gradientUnits="userSpaceOnUse" id="gradient29" r="819.2" spreadMethod="pad">
      <stop offset="0.0" stop-color="#000000"/>
      <stop offset="1.0" stop-color="#000000"/>
    </radialGradient>
    <radialGradient cx="0" cy="0" gradientTransform="matrix(0.0063, 0.0, 0.0, 0.0063, -1.0, -123.85)" gradientUnits="userSpaceOnUse" id="gradient30" r="819.2" spreadMethod="pad">
      <stop offset="0.0" stop-color="#000000"/>
      <stop offset="1.0" stop-color="#000000"/>
    </radialGradient>
    <radialGradient cx="0" cy="0" gradientTransform="matrix(0.07, 0.0, 0.0, 0.07, -1.0, -72.35)" gradientUnits="userSpaceOnUse" id="gradient31" r="819.2" spreadMethod="pad">
      <stop offset="0.0" stop-color="#050505"/>
      <stop offset="1.0" stop-color="#000000"/>
    </radialGradient>
    <radialGradient cx="0" cy="0" gradientTransform="matrix(0.04, 0.0, 0.0, 0.04, -303.55, -104.35)" gradientUnits="userSpaceOnUse" id="gradient32" r="819.2" spreadMethod="pad">
      <stop offset="0.0" stop-color="#000000"/>
      <stop offset="1.0" stop-color="#000000"/>
    </radialGradient>
    <radialGradient cx="0" cy="0" gradientTransform="matrix(0.1049, 0.0, 0.0, 0.1049, -346.8, -48.7)" gradientUnits="userSpaceOnUse" id="gradient33" r="819.2" spreadMethod="pad">
      <stop offset="0.0" stop-color="#6a6a6a"/>
      <stop offset="1.0" stop-color="#000000"/>
    </radialGradient>
    <radialGradient cx="0" cy="0" gradientTransform="matrix(0.0924, 0.0, 0.0, 0.0924, -317.0, -78.55)" gradientUnits="userSpaceOnUse" id="gradient34" r="819.2" spreadMethod="pad">
      <stop offset="0.0" stop-color="#777777"/>
      <stop offset="1.0" stop-color="#000000"/>
    </radialGradient>
    <radialGradient cx="0" cy="0" gradientTransform="matrix(0.0457, 0.0, 0.0, 0.0457, -147.15, -113.9)" gradientUnits="userSpaceOnUse" id="gradient35" r="819.2" spreadMethod="pad">
      <stop offset="0.0" stop-color="#595959"/>
      <stop offset="1.0" stop-color="#070707"/>
    </radialGradient>
    <radialGradient cx="0" cy="0" gradientTransform="matrix(0.046, 0.0, 0.0, 0.046, -342.45, -83.55)" gradientUnits="userSpaceOnUse" id="gradient36" r="819.2" spreadMethod="pad">
      <stop offset="0.0" stop-color="#000000"/>
      <stop offset="1.0" stop-color="#000000"/>
    </radialGradient>
    <radialGradient cx="0" cy="0" gradientTransform="matrix(0.1011, 0.0, 0.0, 0.1011, -56.4, -72.5)" gradientUnits="userSpaceOnUse" id="gradient37" r="819.2" spreadMethod="pad">
      <stop offset="0.0" stop-color="#000000"/>
      <stop offset="1.0" stop-color="#000000"/>
    </radialGradient>
    <radialGradient cx="0" cy="0" gradientTransform="matrix(0.0309, 0.0, 0.0, 0.0309, -36.45, -68.4)" gradientUnits="userSpaceOnUse" id="gradient38" r="819.2" spreadMethod="pad">
      <stop offset="0.0" stop-color="#000000"/>
      <stop offset="1.0" stop-color="#000000"/>
    </radialGradient>
    <radialGradient cx="0" cy="0" gradientTransform="matrix(0.0424, 0.0, 0.0, 0.0424, -369.0, -64.4)" gradientUnits="userSpaceOnUse" id="gradient39" r="819.2" spreadMethod="pad">
      <stop offset="0.0" stop-color="#0f0f0f"/>
      <stop offset="1.0" stop-color="#000000"/>
    </radialGradient>
    <radialGradient cx="0" cy="0" gradientTransform="matrix(0.0556, 0.0, 0.0, 0.0556, -400.0, -1.0)" gradientUnits="userSpaceOnUse" id="gradient40" r="819.2" spreadMethod="pad">
      <stop offset="0.0" stop-color="#040404"/>
      <stop offset="1.0" stop-color="#000000"/>
    </radialGradient>
    <radialGradient cx="0" cy="0" gradientTransform="matrix(0.0262, 0.0, 0.0, 0.0262, -368.2, -1.0)" gradientUnits="userSpaceOnUse" id="gradient41" r="819.2" spreadMethod="pad">
      <stop offset="0.0" stop-color="#121212"/>
      <stop offset="1.0" stop-color="#030303"/>
    </radialGradient>
    <radialGradient cx="0" cy="0" gradientTransform="matrix(0.0262, 0.0, 0.0, 0.0262, -368.2, -1.0)" gradientUnits="userSpaceOnUse" id="gradient42" r="819.2" spreadMethod="pad">
      <stop offset="0.0" stop-color="#121212"/>
      <stop offset="1.0" stop-color="#010101"/>
    </radialGradient>
    <radialGradient cx="0" cy="0" gradientTransform="matrix(0.0312, 0.0, 0.0, 0.0312, -374.0, -21.65)" gradientUnits="userSpaceOnUse" id="gradient43" r="819.2" spreadMethod="pad">
      <stop offset="0.0" stop-color="#010101"/>
      <stop offset="1.0" stop-color="#000000"/>
    </radialGradient>
    <radialGradient cx="0" cy="0" gradientTransform="matrix(0.0695, 0.0, 0.0, 0.0695, -303.15, -52.05)" gradientUnits="userSpaceOnUse" id="gradient44" r="819.2" spreadMethod="pad">
      <stop offset="0.0" stop-color="#000000"/>
      <stop offset="1.0" stop-color="#000000"/>
    </radialGradient>
    <radialGradient cx="0" cy="0" gradientTransform="matrix(0.0694, 0.0, 0.0, 0.0694, -158.35, -1.0)" gradientUnits="userSpaceOnUse" id="gradient45" r="819.2" spreadMethod="pad">
      <stop offset="0.0" stop-color="#2d2d2d"/>
      <stop offset="1.0" stop-color="#000000"/>
    </radialGradient>
    <radialGradient cx="0" cy="0" gradientTransform="matrix(0.0458, 0.0, 0.0, 0.0458, -287.05, -1.0)" gradientUnits="userSpaceOnUse" id="gradient46" r="819.2" spreadMethod="pad">
      <stop offset="0.0" stop-color="#767676"/>
      <stop offset="1.0" stop-color="#525252"/>
    </radialGradient>
    <radialGradient cx="0" cy="0" gradientTransform="matrix(0.0495, 0.0, 0.0, 0.0495, -294.05, -35.65)" gradientUnits="userSpaceOnUse" id="gradient47" r="819.2" spreadMethod="pad">
      <stop offset="0.0" stop-color="#626262"/>
      <stop offset="1.0" stop-color="#373737"/>
    </radialGradient>
  </defs>
</svg>
