<?xml version="1.0" encoding="UTF-8" standalone="no"?>
<svg xmlns:xlink="http://www.w3.org/1999/xlink" height="299.1px" width="399.1px" xmlns="http://www.w3.org/2000/svg">
  <g transform="matrix(1.0, 0.0, 0.0, 1.0, 400.0, 300.0)">
    <path d="M-219.5 -300.0 L-199.65 -300.0 -210.75 -293.75 -222.25 -286.5 -219.5 -300.0" fill="url(#gradient0)" fill-rule="evenodd" stroke="none"/>
    <path d="M-295.0 -152.65 L-295.25 -153.0 -294.65 -154.0 -293.9 -157.0 -301.75 -169.4 -302.5 -170.0 -301.9 -170.0 -295.25 -166.5 -294.65 -166.5 -301.4 -179.0 -301.15 -181.75 -301.5 -194.4 -306.0 -203.65 -304.4 -221.25 -304.65 -221.9 -298.25 -239.5 -293.25 -256.5 -293.4 -257.0 -292.9 -256.75 -283.25 -242.9 -292.5 -213.15 Q-293.75 -202.15 -291.15 -196.65 L-287.65 -181.15 -287.25 -180.75 -285.0 -171.75 -279.4 -162.9 -278.65 -162.4 -277.4 -160.5 -276.9 -160.0 -266.9 -147.9 -261.25 -143.25 -271.9 -137.25 -276.5 -135.9 -293.4 -151.5 -295.0 -152.65 M-257.4 -293.5 L-228.9 -299.9 -219.5 -300.0 -222.25 -286.5 -210.75 -293.75 -199.65 -300.0 -199.0 -300.0 -200.4 -289.4 -227.15 -283.75 Q-227.55 -283.95 -228.2 -283.75 L-231.0 -283.4 -238.0 -280.4 -240.65 -280.9 -247.65 -279.9 -271.0 -275.0 -271.9 -274.5 -273.65 -273.15 -275.9 -259.25 -274.9 -256.65 -273.75 -256.4 -280.25 -249.0 -279.5 -263.0 -279.65 -268.65 -266.25 -283.0 -257.4 -293.5 M-156.9 -152.25 L-153.15 -157.15 -142.4 -174.75 -143.4 -168.15 -148.15 -156.25 -149.65 -150.5 -155.4 -151.9 -156.9 -152.25 M-137.4 -199.9 L-137.25 -202.65 -135.5 -201.0 -137.4 -199.9" fill="url(#gradient1)" fill-rule="evenodd" stroke="none"/>
    <path d="M-295.25 -153.0 Q-318.4 -187.0 -309.15 -229.75 L-297.9 -256.4 -287.9 -270.65 -273.65 -284.0 -257.4 -293.5 -266.25 -283.0 -279.65 -268.65 -279.5 -263.0 -280.25 -249.0 -280.65 -239.65 -283.25 -242.9 -292.9 -256.75 -293.4 -257.0 -293.25 -256.5 -298.25 -239.5 -304.65 -221.9 -304.4 -221.25 -306.0 -203.65 -301.5 -194.4 -301.15 -181.75 -301.4 -179.0 -294.65 -166.5 -295.25 -166.5 -301.9 -170.0 -302.5 -170.0 -301.75 -169.4 -293.9 -157.0 -294.65 -154.0 -295.25 -153.0" fill="url(#gradient2)" fill-rule="evenodd" stroke="none"/>
    <path d="M-191.5 -273.0 L-179.4 -257.0 -154.75 -222.9 -149.0 -192.9 -148.65 -193.0 -144.9 -211.0 -144.5 -211.15 -137.25 -202.65 -137.4 -199.9 -148.9 -192.65 -140.0 -187.0 -142.4 -174.75 -153.15 -157.15 -156.9 -152.25 -192.9 -158.5 -197.15 -159.5 -207.75 -167.5 -241.65 -162.15 -246.65 -151.9 -249.9 -149.4 -250.15 -149.25 -261.25 -143.25 -266.9 -147.9 -276.9 -160.0 -277.4 -160.5 -278.65 -162.4 -279.4 -162.9 -285.0 -171.75 -287.25 -180.75 -287.65 -181.15 -291.15 -196.65 Q-293.75 -202.15 -292.5 -213.15 L-283.25 -242.9 -280.65 -239.65 -280.25 -249.0 -273.75 -256.4 -272.5 -256.15 -242.5 -262.15 -235.75 -267.15 -234.4 -268.0 -233.15 -267.65 -225.5 -265.5 -193.5 -272.15 -191.5 -273.0 M-228.2 -283.75 Q-230.2 -283.25 -234.75 -279.5 L-238.0 -280.4 -231.0 -283.4 -228.2 -283.75 M-247.75 -225.15 L-249.4 -224.0 -215.65 -230.5 -225.15 -233.25 -228.5 -233.15 -231.5 -232.25 -233.75 -231.15 -237.5 -231.25 -239.25 -230.9 -241.75 -229.75 -246.4 -226.15 -246.5 -226.0 -247.65 -225.15 -247.75 -225.15 M-233.65 -218.4 Q-218.5 -222.65 -214.9 -228.9 L-249.15 -222.4 -249.9 -221.75 -248.15 -220.65 -244.0 -219.4 -238.9 -218.65 -233.65 -218.4" fill="url(#gradient3)" fill-rule="evenodd" stroke="none"/>
    <path d="M-261.25 -143.25 L-250.15 -149.25 -250.0 -149.25 -250.0 -148.75 -264.5 -137.4 -271.9 -137.25 -261.25 -143.25" fill="url(#gradient4)" fill-rule="evenodd" stroke="none"/>
    <path d="M-250.15 -149.25 L-249.9 -149.4 -246.65 -151.9 -246.65 -151.65 -247.65 -149.65 -248.75 -149.0 -250.0 -148.75 -250.0 -149.25 -250.15 -149.25 M-197.15 -159.5 L-192.9 -158.5 -192.5 -158.25 -193.9 -158.4 -194.25 -157.75 -195.25 -157.9 -197.15 -159.5" fill="url(#gradient5)" fill-rule="evenodd" stroke="none"/>
    <path d="M-246.65 -151.9 L-241.65 -162.15 -207.75 -167.5 -197.15 -159.5 -195.25 -157.9 -177.75 -138.15 -183.65 -141.75 -196.4 -144.9 -210.4 -144.5 -223.65 -140.15 -227.25 -138.0 -233.5 -133.25 -233.75 -133.0 -236.0 -131.4 -239.0 -127.4 Q-237.9 -124.15 -239.75 -123.0 L-242.15 -114.15 -241.15 -106.9 -237.4 -100.9 -237.65 -99.0 -234.4 -89.4 -227.9 -81.5 -223.15 -78.65 -209.65 -76.25 -199.65 -68.25 -197.15 -67.0 -209.5 -70.25 -263.9 -63.25 -274.65 -53.15 -271.25 -61.15 -270.65 -67.25 -267.75 -70.25 -265.0 -74.9 -265.0 -75.5 -260.15 -80.0 -254.9 -89.0 -253.25 -98.65 -252.75 -99.15 -246.75 -108.0 -244.5 -115.9 -245.5 -123.65 -241.9 -127.0 -241.5 -127.75 -241.75 -131.25 -245.9 -134.5 -259.5 -137.5 -248.75 -149.0 -247.65 -149.65 -246.65 -151.65 -246.65 -151.9 M-183.75 -63.5 L-178.75 -63.9 -176.5 -65.4 -177.15 -61.65 -183.75 -63.5 M-282.4 -47.15 L-282.5 -47.65 -279.4 -48.5 -281.5 -46.25 -281.9 -46.0 -282.4 -47.15" fill="url(#gradient6)" fill-rule="evenodd" stroke="none"/>
    <path d="M-150.65 -86.65 L-148.5 -51.65 -151.75 -62.0 -177.15 -61.65 -176.5 -65.4 -174.75 -65.0 -172.5 -65.15 Q-169.3 -66.75 -166.15 -68.4 L-160.4 -75.0 -159.4 -76.9 -155.65 -78.0 Q-153.9 -80.4 -153.15 -83.75 L-152.65 -101.15 -151.25 -97.5 -150.65 -86.65 M-195.25 -157.9 L-194.25 -157.75 -156.9 -133.75 -155.0 -112.4 -158.4 -118.75 -164.0 -127.25 -168.25 -132.25 -177.75 -138.15 -195.25 -157.9" fill="url(#gradient7)" fill-rule="evenodd" stroke="none"/>
    <path d="M-155.0 -112.4 L-153.9 -109.25 -152.65 -101.15 -153.15 -83.75 Q-153.9 -80.4 -155.65 -78.0 L-159.4 -76.9 -160.4 -75.0 -166.15 -68.4 Q-169.3 -66.75 -172.5 -65.15 L-174.75 -65.0 -176.5 -65.4 -178.75 -63.9 -183.75 -63.5 -189.4 -64.25 -192.65 -65.15 -197.15 -67.0 -199.65 -68.25 -209.65 -76.25 -223.15 -78.65 -227.9 -81.5 -234.4 -89.4 -237.65 -99.0 -237.4 -100.9 -241.15 -106.9 -242.15 -114.15 -239.75 -123.0 Q-237.9 -124.15 -239.0 -127.4 L-236.0 -131.4 -233.75 -133.0 -233.5 -133.25 -227.25 -138.0 -223.65 -140.15 -210.4 -144.5 -196.4 -144.9 -183.65 -141.75 -177.75 -138.15 -168.25 -132.25 -164.0 -127.25 -158.4 -118.75 -155.0 -112.4" fill="url(#gradient8)" fill-rule="evenodd" stroke="none"/>
    <path d="M-190.15 -0.9 L-275.75 -0.9 -281.9 -46.0 -281.5 -46.25 -279.4 -48.5 -277.4 -50.0 -274.65 -53.15 -263.9 -63.25 -209.5 -70.25 -197.15 -67.0 -192.65 -65.15 -189.4 -64.25 -183.75 -63.5 -177.15 -61.65 -190.25 -9.25 -190.15 -0.9" fill="url(#gradient9)" fill-rule="evenodd" stroke="none"/>
    <path d="M-291.75 -47.15 L-294.65 -49.25 -302.9 -57.25 -306.0 -61.0 -307.75 -64.9 -309.0 -67.4 -311.9 -75.65 -314.0 -85.25 -313.5 -94.25 -307.65 -112.0 -306.75 -113.65 -303.75 -118.4 -299.15 -122.9 -290.25 -130.25 -285.5 -132.9 -279.75 -134.9 -276.5 -135.9 -271.9 -137.25 -264.5 -137.4 -259.5 -137.5 -245.9 -134.5 -241.75 -131.25 -241.5 -127.75 -241.9 -127.0 -245.5 -123.65 -244.5 -115.9 -246.75 -108.0 -252.75 -99.15 -253.25 -98.65 -254.9 -89.0 -260.15 -80.0 -265.0 -75.5 -265.0 -74.9 -267.75 -70.25 -270.65 -67.25 -271.25 -61.15 -274.65 -53.15 -277.4 -50.0 -279.4 -48.5 -282.5 -47.65 -282.4 -47.15 -283.15 -45.75 -283.75 -44.9 -284.75 -44.5 -286.65 -44.5 -291.75 -47.15" fill="url(#gradient10)" fill-rule="evenodd" stroke="none"/>
    <path d="M-250.0 -148.75 L-248.75 -149.0 -259.5 -137.5 -264.5 -137.4 -250.0 -148.75" fill="url(#gradient11)" fill-rule="evenodd" stroke="none"/>
    <path d="M-199.0 -300.0 L-194.0 -299.9 -176.65 -294.75 -159.25 -285.4 -144.5 -272.75 -133.5 -258.9 -124.9 -242.0 -119.5 -222.9 -118.15 -203.65 -120.4 -186.0 Q-124.0 -166.15 -138.15 -147.4 L-149.65 -150.5 -148.15 -156.25 -143.4 -168.15 -142.4 -174.75 -140.0 -187.0 -148.9 -192.65 -137.4 -199.9 -135.5 -201.0 -137.25 -202.65 -144.5 -211.15 -144.9 -211.0 -148.65 -193.0 -149.0 -192.9 -154.75 -222.9 -179.4 -257.0 -191.5 -273.0 -193.4 -275.5 -200.75 -285.4 -200.4 -289.4 -199.0 -300.0" fill="url(#gradient12)" fill-rule="evenodd" stroke="none"/>
    <path d="M-193.4 -275.5 L-194.25 -275.0 -226.4 -268.4 -233.75 -270.25 -235.25 -270.75 -236.75 -269.75 -243.5 -264.9 -273.5 -258.9 -275.9 -259.25 -273.65 -273.15 -271.9 -274.5 -271.0 -275.0 -247.65 -279.9 -240.65 -280.9 -238.0 -280.4 -234.75 -279.5 Q-230.2 -283.25 -228.2 -283.75 -227.55 -283.95 -227.15 -283.75 L-200.4 -289.4 -200.75 -285.4 -193.4 -275.5" fill="url(#gradient13)" fill-rule="evenodd" stroke="none"/>
    <path d="M-191.5 -273.0 L-193.5 -272.15 -194.25 -275.0 -193.4 -275.5 -191.5 -273.0" fill="url(#gradient14)" fill-rule="evenodd" stroke="none"/>
    <path d="M-193.5 -272.15 L-225.5 -265.5 -226.4 -268.4 -194.25 -275.0 -193.5 -272.15" fill="url(#gradient15)" fill-rule="evenodd" stroke="none"/>
    <path d="M-225.5 -265.5 L-233.15 -267.65 -233.75 -270.25 -226.4 -268.4 -225.5 -265.5" fill="url(#gradient16)" fill-rule="evenodd" stroke="none"/>
    <path d="M-233.15 -267.65 L-234.4 -268.0 -235.25 -270.75 -233.75 -270.25 -233.15 -267.65" fill="url(#gradient17)" fill-rule="evenodd" stroke="none"/>
    <path d="M-234.4 -268.0 L-235.75 -267.15 -236.75 -269.75 -235.25 -270.75 -234.4 -268.0" fill="url(#gradient18)" fill-rule="evenodd" stroke="none"/>
    <path d="M-235.75 -267.15 L-242.5 -262.15 -243.5 -264.9 -236.75 -269.75 -235.75 -267.15" fill="url(#gradient19)" fill-rule="evenodd" stroke="none"/>
    <path d="M-242.5 -262.15 L-272.5 -256.15 -273.5 -258.9 -243.5 -264.9 -242.5 -262.15" fill="url(#gradient20)" fill-rule="evenodd" stroke="none"/>
    <path d="M-272.5 -256.15 L-273.75 -256.4 -274.9 -256.65 -275.9 -259.25 -273.5 -258.9 -272.5 -256.15" fill="url(#gradient21)" fill-rule="evenodd" stroke="none"/>
    <path d="M-246.4 -226.15 L-240.5 -230.15 -238.0 -230.9 -233.9 -230.75 -231.0 -232.25 -228.4 -232.9 -225.15 -232.9 -217.75 -230.75 -247.5 -224.9 -247.9 -224.9 -247.75 -225.15 -247.65 -225.15 -246.5 -226.0 -246.4 -226.15" fill="url(#gradient22)" fill-rule="evenodd" stroke="none"/>
    <path d="M-246.4 -226.15 L-241.75 -229.75 -239.25 -230.9 -237.5 -231.25 -233.75 -231.15 -231.5 -232.25 -228.5 -233.15 -225.15 -233.25 -215.65 -230.5 -249.4 -224.0 -247.75 -225.15 -247.9 -224.9 -247.5 -224.9 -217.75 -230.75 -225.15 -232.9 -228.4 -232.9 -231.0 -232.25 -233.9 -230.75 -238.0 -230.9 -240.5 -230.15 -246.4 -226.15" fill="url(#gradient23)" fill-rule="evenodd" stroke="none"/>
    <path d="M-233.65 -218.4 L-238.9 -218.65 -244.0 -219.4 -248.15 -220.65 -249.9 -221.75 -249.15 -222.4 -214.9 -228.9 Q-218.5 -222.65 -233.65 -218.4 M-232.9 -219.0 Q-216.75 -225.15 -216.15 -228.4 L-249.25 -222.15 Q-243.0 -218.5 -232.9 -219.0" fill="url(#gradient24)" fill-rule="evenodd" stroke="none"/>
    <path d="M-232.9 -219.0 Q-243.0 -218.5 -249.25 -222.15 L-216.15 -228.4 Q-216.75 -225.15 -232.9 -219.0" fill="url(#gradient25)" fill-rule="evenodd" stroke="none"/>
    <path d="M-192.9 -158.5 L-156.9 -152.25 -155.4 -151.9 -149.75 -144.4 -144.5 -122.0 -144.65 -121.0 -153.9 -109.25 -155.0 -112.4 -156.9 -133.75 -194.25 -157.75 -193.9 -158.4 -192.5 -158.25 -192.9 -158.5" fill="url(#gradient26)" fill-rule="evenodd" stroke="none"/>
    <path d="M-138.15 -147.4 L-133.65 -146.15 -149.75 -144.4 -155.4 -151.9 -149.65 -150.5 -138.15 -147.4" fill="url(#gradient27)" fill-rule="evenodd" stroke="none"/>
    <path d="M-133.65 -146.15 L-98.65 -139.0 -71.25 -135.15 -30.65 -127.65 -42.9 -107.25 -53.65 -80.5 -70.15 -80.25 -87.25 -83.5 -110.9 -90.5 -134.9 -93.9 -135.5 -94.25 -143.75 -119.25 -144.65 -121.0 -144.5 -122.0 -149.75 -144.4 -133.65 -146.15" fill="url(#gradient28)" fill-rule="evenodd" stroke="none"/>
    <path d="M-279.75 -134.9 L-287.25 -142.4 -295.0 -152.65 -293.4 -151.5 -276.5 -135.9 -279.75 -134.9" fill="url(#gradient29)" fill-rule="evenodd" stroke="none"/>
    <path d="M-7.4 -129.0 L-1.25 -133.15 -0.9 -133.15 -0.9 -130.25 -2.65 -129.25 -7.4 -129.0" fill="url(#gradient30)" fill-rule="evenodd" stroke="none"/>
    <path d="M-0.9 -130.25 L-0.9 -129.15 -2.65 -129.25 -0.9 -130.25" fill="url(#gradient31)" fill-rule="evenodd" stroke="none"/>
    <path d="M-30.65 -127.65 L-7.4 -129.0 -2.65 -129.25 -0.9 -129.15 -1.0 -78.25 -1.9 -77.65 -27.25 -78.9 -52.9 -80.4 -53.15 -80.4 -53.5 -80.5 -53.65 -80.5 -42.9 -107.25 -30.65 -127.65" fill="url(#gradient32)" fill-rule="evenodd" stroke="none"/>
    <path d="M-132.5 -92.9 L-150.65 -86.65 -151.25 -97.5 -152.65 -101.15 -153.9 -109.25 -144.65 -121.0 -143.75 -119.25 -135.5 -94.25 -134.9 -93.9 -132.5 -92.9" fill="url(#gradient33)" fill-rule="evenodd" stroke="none"/>
    <path d="M-33.9 -76.15 L-75.9 -71.0 -103.65 -82.15 -132.5 -92.9 -134.9 -93.9 -110.9 -90.5 -87.25 -83.5 -70.15 -80.25 -53.65 -80.5 -53.5 -80.5 -53.15 -80.4 -52.9 -80.4 -33.9 -76.15" fill="url(#gradient34)" fill-rule="evenodd" stroke="none"/>
    <path d="M-395.75 -53.15 L-376.0 -64.9 -375.75 -65.0 -374.25 -65.9 -373.9 -66.15 -373.65 -66.25 -371.9 -67.4 -371.75 -67.4 -371.5 -67.5 -370.5 -68.15 -370.25 -68.25 -364.75 -72.0 -364.5 -72.25 -363.25 -73.15 -363.15 -73.15 -315.75 -105.4 -313.9 -106.65 -313.0 -107.0 -306.75 -113.65 -307.65 -112.0 -313.5 -94.25 -314.0 -85.25 -311.9 -75.65 -309.0 -67.4 -307.75 -64.9 -309.0 -64.5 -327.65 -51.65 -348.65 -36.4 -350.15 -32.4 -370.65 -28.65 -387.9 -46.0 -395.75 -53.15" fill="url(#gradient35)" fill-rule="evenodd" stroke="none"/>
    <path d="M-302.9 -57.25 L-327.9 -44.4 -345.9 -33.25 -350.15 -32.4 -348.65 -36.4 -327.65 -51.65 -309.0 -64.5 -307.75 -64.9 -306.0 -61.0 -302.9 -57.25" fill="url(#gradient36)" fill-rule="evenodd" stroke="none"/>
    <path d="M-345.9 -33.25 L-363.65 -11.25 -369.75 -26.0 -370.4 -27.5 -370.5 -27.5 -370.65 -28.0 -370.65 -28.65 -350.15 -32.4 -345.9 -33.25" fill="url(#gradient37)" fill-rule="evenodd" stroke="none"/>
    <path d="M-363.15 -73.15 L-342.15 -88.25 -315.75 -105.4 -363.15 -73.15" fill="url(#gradient38)" fill-rule="evenodd" stroke="none"/>
    <path d="M-27.25 -78.9 L-33.9 -76.15 -52.9 -80.4 -27.25 -78.9" fill="url(#gradient39)" fill-rule="evenodd" stroke="none"/>
    <path d="M-391.25 -0.9 L-400.0 -0.9 -400.0 -47.75 Q-400.25 -48.9 -395.75 -53.15 L-387.9 -46.0 -370.65 -28.65 -370.65 -28.0 -370.5 -27.5 -369.5 -11.75 -368.0 -9.4 -364.25 -1.5 -390.5 -1.65 -391.25 -0.9" fill="url(#gradient40)" fill-rule="evenodd" stroke="none"/>
    <path d="M-363.75 -0.9 L-391.25 -0.9 -390.5 -1.65 -364.25 -1.5 -363.75 -0.9" fill="url(#gradient41)" fill-rule="evenodd" stroke="none"/>
    <path d="M-362.75 -0.9 L-363.75 -0.9 -364.25 -1.5 -368.0 -9.4 -369.5 -11.75 -370.5 -27.5 -370.4 -27.5 -369.75 -26.0 -362.75 -0.9" fill="url(#gradient42)" fill-rule="evenodd" stroke="none"/>
    <path d="M-148.5 -51.65 L-155.5 -7.4 -155.5 -6.75 -156.5 -0.9 -190.15 -0.9 -190.25 -9.25 -177.15 -61.65 -151.75 -62.0 -148.5 -51.65" fill="url(#gradient43)" fill-rule="evenodd" stroke="none"/>
    <path d="M-291.0 -43.0 L-291.75 -47.15 -286.65 -44.5 -291.0 -43.0 M-283.15 -45.75 L-282.4 -47.15 -281.9 -46.0 -283.15 -45.75" fill="url(#gradient44)" fill-rule="evenodd" stroke="none"/>
    <path d="M-275.75 -0.9 L-282.25 -0.9 -291.0 -43.0 -286.65 -44.5 -284.75 -44.5 -283.75 -44.9 -283.15 -45.75 -281.9 -46.0 -275.75 -0.9" fill="url(#gradient45)" fill-rule="evenodd" stroke="none"/>
    <path d="M-363.65 -11.25 L-359.65 -0.9 -362.75 -0.9 -369.75 -26.0 -363.65 -11.25" fill="url(#gradient46)" fill-rule="evenodd" stroke="none"/>
    <path d="M-155.5 -6.75 L-156.0 -0.9 -156.5 -0.9 -155.5 -6.75" fill="url(#gradient47)" fill-rule="evenodd" stroke="none"/>
    <path d="M-186.9 -170.25 L-184.65 -170.4 -184.4 -170.5 -183.65 -170.5 -183.25 -158.0 -183.4 -157.75 -183.25 -157.15 -183.25 -155.5 -186.9 -151.4 -186.65 -151.0 -177.25 -146.75 -175.4 -145.65 -158.0 -137.4 -200.25 -137.5 -200.15 -138.15 -199.0 -142.5 -198.9 -143.15 -198.5 -144.15 -198.65 -144.5 -198.4 -144.65 -197.65 -148.15 -192.25 -154.25 -192.4 -154.75 -192.15 -157.65 -192.15 -158.4 -186.9 -157.5 -186.9 -161.4 -187.0 -162.15 -187.0 -167.9 -186.9 -168.25 -186.9 -170.25 M-256.9 -159.9 L-256.75 -160.0 -256.4 -160.15 -255.5 -160.25 -254.25 -158.65 -253.5 -158.0 -248.25 -152.25 -248.0 -151.65 -247.5 -151.25 -247.9 -151.0 -249.9 -149.4 -250.15 -149.25 -252.0 -148.4 -253.0 -147.75 -253.65 -148.65 -254.0 -148.9 -261.65 -156.9 -261.9 -157.5 -262.5 -157.75 -262.5 -158.15 -262.0 -158.25 -256.9 -159.9 M-196.65 -168.65 L-191.9 -168.9 -192.0 -163.75 -192.15 -163.4 -192.15 -158.4 -192.9 -158.5 -195.25 -159.15 -197.75 -168.4 -196.9 -168.65 -196.65 -168.65" fill="#9b0000" fill-opacity="0.9098039" fill-rule="evenodd" stroke="none"/>
    <path d="M-186.9 -170.25 L-186.9 -168.25 -187.0 -167.9 -187.0 -162.15 -186.9 -161.4 -186.9 -157.5 -192.15 -158.4 -192.15 -163.4 -192.0 -163.75 -191.9 -168.9 -196.65 -168.65 -186.9 -170.25" fill="#a90000" fill-rule="evenodd" stroke="none"/>
    <path d="M-200.25 -137.5 L-158.0 -137.4 -157.75 -136.75 -157.9 -134.4 -157.75 -133.9 -156.65 -115.9 -156.25 -114.5 -156.5 -113.9 -156.4 -113.4 -156.65 -112.25 -156.9 -111.75 -156.75 -111.4 -157.0 -109.75 -157.25 -109.5 -157.15 -109.0 -157.75 -105.0 -158.0 -104.4 -157.9 -104.15 -158.15 -102.5 -158.4 -102.15 -158.25 -101.65 -159.15 -96.15 -159.4 -95.65 -159.25 -95.25 -159.65 -92.9 -159.9 -92.25 -159.9 -91.25 -161.4 -81.65 -161.65 -80.65 -161.75 -80.65 -161.65 -80.0 -161.9 -78.4 -162.0 -78.0 -162.0 -77.5 -162.4 -75.15 -162.65 -74.65 -162.65 -74.25 -162.9 -74.4 -179.9 -76.15 -180.25 -76.15 -207.15 -79.0 -216.5 -77.65 -217.15 -77.65 -253.75 -72.0 -267.25 -70.9 -267.5 -70.75 -274.0 -70.25 -274.15 -70.25 -276.65 -70.0 -277.0 -69.5 -277.25 -69.25 -277.65 -69.15 -277.65 -69.0 -278.25 -68.4 -278.5 -68.4 -278.65 -68.0 -279.75 -67.0 -279.9 -66.9 -282.25 -64.75 -282.4 -64.65 -283.65 -63.5 -284.5 -62.9 -284.65 -62.65 -286.15 -61.25 -287.0 -60.65 -287.25 -60.25 -287.4 -60.15 -288.65 -59.0 -289.4 -58.5 -289.5 -58.25 -289.75 -58.0 -289.9 -57.9 -290.75 -57.15 -291.15 -57.0 -291.15 -56.75 -293.25 -55.0 -293.4 -54.75 -293.65 -54.5 -294.0 -54.4 -294.5 -53.75 -294.75 -53.5 -294.9 -53.4 -295.5 -52.9 -295.75 -52.65 -296.0 -52.5 -296.15 -52.25 -296.5 -52.0 -297.0 -51.5 -299.5 -53.9 -300.15 -54.4 -301.4 -55.65 -301.75 -56.15 -302.65 -56.75 -302.9 -57.25 -305.9 -60.75 -306.5 -62.25 -306.65 -62.4 -306.75 -62.75 -306.75 -62.9 -307.15 -63.5 -310.9 -73.0 -310.9 -73.15 -311.0 -73.4 -311.15 -73.65 -312.65 -77.9 -312.65 -78.4 -314.0 -86.5 -313.9 -87.15 -313.65 -93.75 -312.4 -97.75 -312.25 -97.9 -311.75 -99.4 -311.65 -99.9 -311.65 -100.65 -311.75 -100.75 -313.0 -107.15 -312.9 -107.25 -312.5 -107.5 -306.75 -113.65 -305.65 -115.4 -300.9 -115.9 -300.65 -116.0 -294.5 -116.65 -294.15 -116.75 -291.4 -117.0 -263.4 -100.0 -263.25 -99.75 -254.25 -94.25 -254.0 -94.15 -247.0 -90.0 -246.4 -90.15 -239.65 -95.25 -239.5 -95.5 -233.75 -99.65 -233.25 -100.25 -231.65 -101.25 -228.0 -104.15 -227.5 -104.4 -206.4 -120.25 -205.9 -121.9 -205.65 -122.15 -200.25 -137.5 M-195.0 -109.5 L-196.0 -108.5 -195.9 -107.9 -195.4 -106.4 -195.25 -105.5 -195.0 -105.5 -194.25 -106.65 -193.75 -107.15 -193.65 -107.9 -193.75 -108.25 -194.15 -108.75 -195.0 -109.5 M-295.65 -87.15 L-297.15 -91.5 -296.25 -86.5 -296.25 -86.4 -296.15 -86.15 -295.9 -86.0 -295.5 -86.4 -295.65 -86.5 -295.65 -87.15" fill="#b00000" fill-opacity="0.9098039" fill-rule="evenodd" stroke="none"/>
    <path d="M-283.4 -138.5 L-282.65 -138.75 -280.65 -139.65 -280.0 -139.75 -279.9 -139.9 -275.75 -141.5 -274.5 -144.65 -274.65 -144.9 -274.75 -145.15 -274.5 -145.15 -274.75 -145.25 -274.25 -146.0 -271.4 -153.25 -271.5 -153.65 -271.15 -154.15 -270.75 -155.15 -270.75 -155.5 -270.65 -155.65 -270.15 -157.0 -263.15 -158.75 -262.5 -158.15 -262.5 -157.75 -264.9 -150.75 -264.75 -150.5 -265.65 -148.15 -265.9 -147.0 -267.15 -143.25 -278.25 -138.4 -278.9 -138.25 -278.9 -138.15 -280.5 -137.4 -281.25 -137.15 -281.75 -136.9 -283.4 -138.5 M-284.5 -133.25 L-284.75 -132.65 -284.9 -132.4 -285.5 -130.75 -285.75 -130.4 -287.25 -126.5 -287.5 -126.25 -288.5 -123.75 -288.75 -123.5 -288.65 -123.25 -290.25 -119.5 -290.5 -119.15 -291.4 -117.0 -294.15 -116.75 -294.5 -116.65 -300.65 -116.0 -300.9 -115.9 -305.65 -115.4 -304.0 -118.0 -301.9 -120.15 -301.65 -120.25 -293.65 -127.4 -293.5 -127.4 -293.0 -127.9 -292.5 -128.25 -292.25 -128.5 -290.75 -129.65 -290.15 -130.25 -288.65 -131.25 -288.25 -131.4 -284.5 -133.25" fill="#9e0000" fill-opacity="0.9098039" fill-rule="evenodd" stroke="none"/>
    <path d="M-314.0 -114.4 L-292.9 -134.5 -283.4 -138.5 -281.75 -136.9 -283.25 -136.25 -284.5 -133.25 -288.25 -131.4 -288.65 -131.25 -290.15 -130.25 -290.75 -129.65 -292.25 -128.5 -292.5 -128.25 -293.0 -127.9 -293.5 -127.4 -293.65 -127.4 -301.65 -120.25 -301.9 -120.15 -304.0 -118.0 -305.65 -115.4 -314.0 -114.4" fill="#ae0000" fill-opacity="0.9098039" fill-rule="evenodd" stroke="none"/>
    <path d="M-263.15 -158.75 L-257.25 -160.0 -256.9 -159.9 -262.0 -158.25 -262.5 -158.15 -263.15 -158.75" fill="#ac0000" fill-rule="evenodd" stroke="none"/>
    <path d="M-314.15 -114.0 L-314.0 -114.4 -305.65 -115.4 -306.75 -113.65 -312.5 -107.5 -312.9 -107.25 -314.15 -114.0 M-302.65 -56.75 L-301.75 -56.15 -301.4 -55.65 -300.15 -54.4 -299.5 -53.9 -297.0 -51.5 -297.5 -51.0 -298.25 -50.4 -298.75 -49.9 -299.15 -49.65 -301.65 -53.25 -302.25 -54.75 -302.65 -56.75" fill="#c20000" fill-opacity="0.9098039" fill-rule="evenodd" stroke="none"/>
    <path d="M-157.75 -136.75 L-156.5 -134.65 -156.65 -134.25 -155.9 -132.65 -155.25 -131.75 -148.25 -116.25 -146.75 -113.5 -146.75 -112.75 -146.0 -111.9 -138.15 -94.5 -137.65 -91.0 -150.65 -86.65 -150.4 -79.4 -150.25 -78.65 -150.25 -76.65 -149.75 -71.75 -151.25 -72.0 -151.4 -72.15 -152.4 -72.25 -162.65 -74.25 -162.65 -74.65 -162.4 -75.15 -162.0 -77.5 -162.0 -78.0 -161.9 -78.4 -161.65 -80.0 -161.75 -80.65 -161.65 -80.65 -161.4 -81.65 -159.9 -91.25 -159.9 -92.25 -159.65 -92.9 -159.25 -95.25 -159.4 -95.65 -159.15 -96.15 -158.25 -101.65 -158.4 -102.15 -158.15 -102.5 -157.9 -104.15 -158.0 -104.4 -157.75 -105.0 -157.15 -109.0 -157.25 -109.5 -157.0 -109.75 -156.75 -111.4 -156.9 -111.75 -156.65 -112.25 -156.4 -113.4 -156.5 -113.9 -156.25 -114.5 -156.65 -115.9 -157.75 -133.9 -157.9 -134.4 -157.75 -136.75" fill="#d30000" fill-opacity="0.9098039" fill-rule="evenodd" stroke="none"/>
    <path d="M-183.15 -0.9 L-282.25 -0.9 -288.4 -29.65 -289.9 -38.15 -289.9 -38.25 -291.75 -47.15 -297.0 -51.5 -296.5 -52.0 -296.15 -52.25 -296.0 -52.5 -295.75 -52.65 -295.5 -52.9 -294.9 -53.4 -294.75 -53.5 -294.5 -53.75 -294.0 -54.4 -293.65 -54.5 -293.4 -54.75 -293.25 -55.0 -291.15 -56.75 -291.15 -57.0 -290.75 -57.15 -289.9 -57.9 -289.75 -58.0 -289.5 -58.25 -289.4 -58.5 -288.65 -59.0 -287.4 -60.15 -287.25 -60.25 -287.0 -60.65 -286.15 -61.25 -284.65 -62.65 -284.5 -62.9 -283.65 -63.5 -282.4 -64.65 -282.25 -64.75 -279.9 -66.9 -279.75 -67.0 -278.65 -68.0 -278.5 -68.4 -278.25 -68.4 -277.65 -69.0 -277.65 -69.15 -277.25 -69.25 -277.0 -69.5 -276.65 -70.0 -274.15 -70.25 -274.0 -70.25 -267.5 -70.75 -267.25 -70.9 -253.75 -72.0 -217.15 -77.65 -216.5 -77.65 -207.15 -79.0 -180.25 -76.15 -179.9 -76.15 -162.9 -74.4 -162.65 -74.25 -162.65 -73.9 -162.75 -73.5 -162.9 -73.15 -163.0 -72.75 -163.15 -72.4 -163.25 -72.0 -163.4 -71.65 -163.65 -71.25 -163.75 -70.9 -163.75 -70.5 -163.9 -70.15 -164.0 -69.75 -164.15 -69.4 -164.25 -69.0 -164.4 -68.65 -164.5 -68.25 -164.65 -67.9 -164.75 -67.5 -164.9 -67.15 -165.0 -66.75 -165.15 -66.4 -165.25 -66.0 -165.4 -65.65 -165.5 -65.15 -166.5 -62.15 -166.75 -61.75 -166.75 -61.4 -168.4 -56.4 -168.5 -56.0 -168.65 -55.65 -168.75 -55.25 -168.9 -54.9 -169.0 -54.5 -169.15 -54.15 -169.25 -53.75 -169.4 -53.4 -169.5 -53.0 -169.65 -52.65 -169.75 -52.25 -169.9 -51.9 -170.0 -51.5 -170.15 -51.15 -170.25 -50.75 -170.4 -50.4 -170.5 -50.0 -170.65 -49.65 -170.75 -49.25 -170.9 -48.9 -171.0 -48.5 -171.15 -48.15 -171.25 -47.65 -173.5 -40.9 -173.9 -40.0 -174.0 -40.0 -174.25 -38.5 -174.4 -38.15 -174.5 -37.75 -174.65 -37.4 -174.75 -37.0 -174.9 -36.65 -175.0 -36.25 -175.15 -35.9 -175.25 -35.5 -175.4 -35.15 -175.5 -34.75 -175.65 -34.4 -175.75 -34.0 -175.9 -33.65 -176.0 -33.25 -176.15 -32.9 -176.25 -32.5 -176.4 -32.15 -176.5 -31.75 -176.65 -31.4 -176.75 -31.0 -176.9 -30.65 -177.0 -30.15 -179.9 -21.4 -180.0 -21.0 -180.15 -20.65 -180.25 -20.25 -180.4 -19.9 -180.5 -19.5 -180.65 -19.15 -180.75 -18.75 -180.9 -18.4 -181.0 -18.0 -181.15 -17.65 -181.25 -17.25 -181.4 -16.9 -181.5 -16.5 -181.65 -16.15 -181.75 -15.75 -181.9 -15.4 -182.0 -15.0 -182.15 -14.65 -182.25 -14.25 -182.4 -13.9 -182.5 -13.5 -182.65 -13.15 -182.75 -12.65 -183.15 -11.5 -183.25 -6.75 -183.15 -6.5 -183.25 -5.9 -183.15 -5.65 -183.15 -0.9" fill="#a70000" fill-opacity="0.9098039" fill-rule="evenodd" stroke="none"/>
    <path d="M-317.15 -104.75 L-314.15 -114.0 -312.9 -107.25 -313.0 -107.15 -313.15 -107.0 Q-313.5 -106.8 -313.9 -106.65 L-315.75 -105.4 -317.15 -104.75 M-302.9 -57.25 L-302.65 -56.75 -302.25 -54.75 -303.75 -56.75 -302.9 -57.25" fill="#c50000" fill-rule="evenodd" stroke="none"/>
    <path d="M-322.75 -86.4 L-323.0 -86.9 -321.9 -90.65 -321.5 -91.4 -319.4 -98.25 -318.9 -99.5 -317.5 -104.15 -317.25 -104.5 -317.15 -104.75 -315.75 -105.4 -313.9 -106.65 Q-313.5 -106.8 -313.15 -107.0 L-313.0 -107.15 -311.75 -100.75 -311.65 -100.65 -311.65 -99.9 -311.75 -99.4 -312.25 -97.9 -312.4 -97.75 -313.65 -93.75 -313.9 -87.15 -314.0 -86.5 -312.65 -78.4 -312.65 -77.9 -311.15 -73.65 -311.0 -73.4 -310.9 -73.15 -310.9 -73.0 -307.15 -63.5 -306.75 -62.9 -306.75 -62.75 -306.65 -62.4 -306.5 -62.25 -305.9 -60.75 -302.9 -57.25 -303.75 -56.75 -308.25 -64.0 -308.65 -64.5 -322.75 -86.4" fill="#c30000" fill-rule="evenodd" stroke="none"/>
    <path d="M-312.9 -52.15 L-313.0 -52.75 -315.25 -60.0 -315.15 -60.25 -322.75 -86.4 -308.65 -64.5 -308.25 -64.0 -303.75 -56.75 -312.9 -52.15" fill="#fb0000" fill-rule="evenodd" stroke="none"/>
    <path d="M-310.65 -44.5 L-310.65 -44.9 -312.9 -52.15 -303.75 -56.75 -302.25 -54.75 -301.65 -53.25 -298.0 -41.4 -297.75 -40.75 -296.4 -30.0 -302.75 -33.9 -310.65 -44.5" fill="#fd0000" fill-rule="evenodd" stroke="none"/>
    <path d="M-137.65 -91.0 L-132.0 -62.25 -132.4 -60.9 -132.9 -59.9 -133.0 -59.5 -133.0 -59.25 -133.15 -59.0 -133.15 -58.9 -133.4 -58.9 -136.25 -69.15 -149.75 -71.75 -150.25 -76.65 -150.25 -78.65 -150.4 -79.4 -150.65 -86.65 -137.65 -91.0" fill="#e80000" fill-opacity="0.9098039" fill-rule="evenodd" stroke="none"/>
    <path d="M-156.0 -0.9 L-167.75 -0.9 -169.0 -1.0 -183.15 -0.9 -183.15 -5.65 -183.25 -5.9 -183.15 -6.5 -183.25 -6.75 -183.15 -11.5 -182.75 -12.65 -182.65 -13.15 -182.5 -13.5 -182.4 -13.9 -182.25 -14.25 -182.15 -14.65 -182.0 -15.0 -181.9 -15.4 -181.75 -15.75 -181.65 -16.15 -181.5 -16.5 -181.4 -16.9 -181.25 -17.25 -181.15 -17.65 -181.0 -18.0 -180.9 -18.4 -180.75 -18.75 -180.65 -19.15 -180.5 -19.5 -180.4 -19.9 -180.25 -20.25 -180.15 -20.65 -180.0 -21.0 -179.9 -21.4 -177.0 -30.15 -176.9 -30.65 -176.75 -31.0 -176.65 -31.4 -176.5 -31.75 -176.4 -32.15 -176.25 -32.5 -176.15 -32.9 -176.0 -33.25 -175.9 -33.65 -175.75 -34.0 -175.65 -34.4 -175.5 -34.75 -175.4 -35.15 -175.25 -35.5 -175.15 -35.9 -175.0 -36.25 -174.9 -36.65 -174.75 -37.0 -174.65 -37.4 -174.5 -37.75 -174.4 -38.15 -174.25 -38.5 -174.0 -40.0 -173.9 -40.0 -173.5 -40.9 -171.25 -47.65 -171.15 -48.15 -171.0 -48.5 -170.9 -48.9 -170.75 -49.25 -170.65 -49.65 -170.5 -50.0 -170.4 -50.4 -170.25 -50.75 -170.15 -51.15 -170.0 -51.5 -169.9 -51.9 -169.75 -52.25 -169.65 -52.65 -169.5 -53.0 -169.4 -53.4 -169.25 -53.75 -169.15 -54.15 -169.0 -54.5 -168.9 -54.9 -168.75 -55.25 -168.65 -55.65 -168.5 -56.0 -168.4 -56.4 -166.75 -61.4 -166.75 -61.75 -166.5 -62.15 -165.5 -65.15 -165.4 -65.65 -165.25 -66.0 -165.15 -66.4 -165.0 -66.75 -164.9 -67.15 -164.75 -67.5 -164.65 -67.9 -164.5 -68.25 -164.4 -68.65 -164.25 -69.0 -164.15 -69.4 -164.0 -69.75 -163.9 -70.15 -163.75 -70.5 -163.75 -70.9 -163.65 -71.25 -163.4 -71.65 -163.25 -72.0 -163.15 -72.4 -163.0 -72.75 -162.9 -73.15 -162.75 -73.5 -162.65 -73.9 -162.65 -74.25 -152.4 -72.25 -151.4 -72.15 -151.25 -72.0 -149.75 -71.75 -148.9 -55.0 -148.75 -54.65 -148.75 -52.75 -148.65 -52.0 -149.0 -49.25 -149.0 -48.65 -149.15 -48.15 -149.15 -47.9 -149.25 -47.5 -149.25 -47.25 -152.15 -28.25 -152.15 -27.9 -154.0 -15.5 -155.9 -3.75 -155.75 -3.4 -156.0 -3.0 -155.9 -2.15 -156.0 -0.9" fill="#d20000" fill-opacity="0.9098039" fill-rule="evenodd" stroke="none"/>
    <path d="M-282.25 -0.9 L-291.9 -0.9 -296.15 -29.75 -296.4 -30.0 -297.75 -40.75 -288.4 -29.65 -282.25 -0.9" fill="#bc0000" fill-rule="evenodd" stroke="none"/>
    <path d="M-297.75 -40.75 L-298.0 -41.4 -299.15 -49.65 -298.75 -49.9 -298.25 -50.4 -297.5 -51.0 -297.0 -51.5 -291.75 -47.15 -289.9 -38.25 -289.9 -38.15 -288.4 -29.65 -297.75 -40.75" fill="#b80000" fill-opacity="0.9098039" fill-rule="evenodd" stroke="none"/>
    <path d="M-299.15 -49.65 L-298.0 -41.4 -301.65 -53.25 -299.15 -49.65" fill="#ff0000" fill-opacity="0.9098039" fill-rule="evenodd" stroke="none"/>
    <path d="M-132.4 -60.9 L-132.25 -60.15 -132.9 -57.15 -133.25 -58.0 -133.4 -58.15 -133.4 -58.9 -133.15 -58.9 -133.15 -59.0 -133.0 -59.25 -133.0 -59.5 -132.9 -59.9 -132.4 -60.9" fill="#ea0000" fill-rule="evenodd" stroke="none"/>
    <path d="M-152.15 -28.25 L-149.25 -47.25 -149.25 -47.5 -149.15 -47.9 -149.15 -48.15 -149.0 -48.65 -149.0 -49.25 -148.65 -52.0 -148.75 -52.75 -148.75 -54.65 -148.9 -55.0 -149.75 -71.75 -136.25 -69.15 -133.4 -58.9 -133.4 -58.15 -137.75 -45.5 -137.75 -45.4 -137.9 -45.0 -138.0 -44.9 -138.65 -43.0 -152.15 -28.25" fill="#e70000" fill-opacity="0.9098039" fill-rule="evenodd" stroke="none"/>
    <path d="M-132.9 -57.15 L-133.15 -55.4 -133.0 -55.0 -142.75 -2.65 -142.65 -2.25 -142.9 -2.15 -143.0 -0.9 -151.75 -0.9 -154.0 -15.5 -152.15 -27.9 -152.15 -28.25 -138.65 -43.0 -138.0 -44.9 -137.9 -45.0 -137.75 -45.4 -137.75 -45.5 -133.4 -58.15 -133.25 -58.0 -132.9 -57.15" fill="#e90000" fill-rule="evenodd" stroke="none"/>
    <path d="M-291.9 -0.9 L-300.5 -0.9 -310.65 -44.5 -302.75 -33.9 -296.4 -30.0 -296.15 -29.75 -291.9 -0.9" fill="#fc0000" fill-rule="evenodd" stroke="none"/>
    <path d="M-151.75 -0.9 L-156.0 -0.9 -155.9 -2.15 -156.0 -3.0 -155.75 -3.4 -155.9 -3.75 -154.0 -15.5 -151.75 -0.9" fill="#e30000" fill-rule="evenodd" stroke="none"/>
  </g>
  <defs>
    <radialGradient cx="0" cy="0" gradientTransform="matrix(0.0173, 0.0, 0.0, 0.0173, -210.2, -294.15)" gradientUnits="userSpaceOnUse" id="gradient0" r="819.2" spreadMethod="pad">
      <stop offset="0.0" stop-color="#080808"/>
      <stop offset="1.0" stop-color="#080808"/>
    </radialGradient>
    <radialGradient cx="0" cy="0" gradientTransform="matrix(0.2109, 0.0, 0.0, 0.2109, -161.55, -152.85)" gradientUnits="userSpaceOnUse" id="gradient1" r="819.2" spreadMethod="pad">
      <stop offset="0.0" stop-color="#5b5b5b"/>
      <stop offset="1.0" stop-color="#131313"/>
    </radialGradient>
    <radialGradient cx="0" cy="0" gradientTransform="matrix(0.1171, 0.0, 0.0, 0.1171, -287.1, -248.65)" gradientUnits="userSpaceOnUse" id="gradient2" r="819.2" spreadMethod="pad">
      <stop offset="0.0" stop-color="#494949"/>
      <stop offset="1.0" stop-color="#272727"/>
    </radialGradient>
    <radialGradient cx="0" cy="0" gradientTransform="matrix(0.1898, 0.0, 0.0, 0.1898, -289.85, -192.85)" gradientUnits="userSpaceOnUse" id="gradient3" r="819.2" spreadMethod="pad">
      <stop offset="0.0" stop-color="#7e7e7e"/>
      <stop offset="1.0" stop-color="#010101"/>
    </radialGradient>
    <radialGradient cx="0" cy="0" gradientTransform="matrix(0.057, 0.0, 0.0, 0.057, -246.55, -151.35)" gradientUnits="userSpaceOnUse" id="gradient4" r="819.2" spreadMethod="pad">
      <stop offset="0.0" stop-color="#000000"/>
      <stop offset="1.0" stop-color="#000000"/>
    </radialGradient>
    <radialGradient cx="0" cy="0" gradientTransform="matrix(0.1299, 0.0, 0.0, 0.1299, -256.9, -76.5)" gradientUnits="userSpaceOnUse" id="gradient5" r="819.2" spreadMethod="pad">
      <stop offset="0.0" stop-color="#010101"/>
      <stop offset="1.0" stop-color="#000000"/>
    </radialGradient>
    <radialGradient cx="0" cy="0" gradientTransform="matrix(0.1447, 0.0, 0.0, 0.1447, -264.05, -63.25)" gradientUnits="userSpaceOnUse" id="gradient6" r="819.2" spreadMethod="pad">
      <stop offset="0.0" stop-color="#6a6a6a"/>
      <stop offset="1.0" stop-color="#000000"/>
    </radialGradient>
    <radialGradient cx="0" cy="0" gradientTransform="matrix(0.1174, 0.0, 0.0, 0.1174, -150.0, -75.05)" gradientUnits="userSpaceOnUse" id="gradient7" r="819.2" spreadMethod="pad">
      <stop offset="0.0" stop-color="#3f3f3f"/>
      <stop offset="1.0" stop-color="#000000"/>
    </radialGradient>
    <radialGradient cx="0" cy="0" gradientTransform="matrix(0.0768, 0.0, 0.0, 0.0768, -211.95, -86.95)" gradientUnits="userSpaceOnUse" id="gradient8" r="819.2" spreadMethod="pad">
      <stop offset="0.0" stop-color="#878787"/>
      <stop offset="1.0" stop-color="#000000"/>
    </radialGradient>
    <radialGradient cx="0" cy="0" gradientTransform="matrix(0.1179, 0.0, 0.0, 0.1179, -264.05, -63.25)" gradientUnits="userSpaceOnUse" id="gradient9" r="819.2" spreadMethod="pad">
      <stop offset="0.0" stop-color="#6a6a6a"/>
      <stop offset="1.0" stop-color="#000000"/>
    </radialGradient>
    <radialGradient cx="0" cy="0" gradientTransform="matrix(0.0808, 0.0, 0.0, 0.0808, -279.9, -80.35)" gradientUnits="userSpaceOnUse" id="gradient10" r="819.2" spreadMethod="pad">
      <stop offset="0.0" stop-color="#858585"/>
      <stop offset="1.0" stop-color="#000000"/>
    </radialGradient>
    <radialGradient cx="0" cy="0" gradientTransform="matrix(0.0445, 0.0, 0.0, 0.0445, -271.5, -124.75)" gradientUnits="userSpaceOnUse" id="gradient11" r="819.2" spreadMethod="pad">
      <stop offset="0.0" stop-color="#000000"/>
      <stop offset="1.0" stop-color="#000000"/>
    </radialGradient>
    <radialGradient cx="0" cy="0" gradientTransform="matrix(0.1988, 0.0, 0.0, 0.1988, -136.4, -149.65)" gradientUnits="userSpaceOnUse" id="gradient12" r="819.2" spreadMethod="pad">
      <stop offset="0.0" stop-color="#414141"/>
      <stop offset="1.0" stop-color="#151515"/>
    </radialGradient>
    <radialGradient cx="0" cy="0" gradientTransform="matrix(0.1061, 0.0, 0.0, 0.1061, -276.0, -259.45)" gradientUnits="userSpaceOnUse" id="gradient13" r="819.2" spreadMethod="pad">
      <stop offset="0.0" stop-color="#767676"/>
      <stop offset="1.0" stop-color="#767676"/>
    </radialGradient>
    <radialGradient cx="0" cy="0" gradientTransform="matrix(0.0045, 0.0, 0.0, 0.0045, -194.25, -275.1)" gradientUnits="userSpaceOnUse" id="gradient14" r="819.2" spreadMethod="pad">
      <stop offset="0.0" stop-color="#bbbbbb"/>
      <stop offset="1.0" stop-color="#bababa"/>
    </radialGradient>
    <radialGradient cx="0" cy="0" gradientTransform="matrix(0.0399, 0.0, 0.0, 0.0399, -194.25, -275.1)" gradientUnits="userSpaceOnUse" id="gradient15" r="819.2" spreadMethod="pad">
      <stop offset="0.0" stop-color="#767676"/>
      <stop offset="1.0" stop-color="#767676"/>
    </radialGradient>
    <radialGradient cx="0" cy="0" gradientTransform="matrix(0.0096, 0.0, 0.0, 0.0096, -226.3, -268.4)" gradientUnits="userSpaceOnUse" id="gradient16" r="819.2" spreadMethod="pad">
      <stop offset="0.0" stop-color="#8b8b8b"/>
      <stop offset="1.0" stop-color="#8b8b8b"/>
    </radialGradient>
    <radialGradient cx="0" cy="0" gradientTransform="matrix(0.0036, 0.0, 0.0, 0.0036, -233.9, -270.5)" gradientUnits="userSpaceOnUse" id="gradient17" r="819.2" spreadMethod="pad">
      <stop offset="0.0" stop-color="#8c8c8c"/>
      <stop offset="1.0" stop-color="#8c8c8c"/>
    </radialGradient>
    <radialGradient cx="0" cy="0" gradientTransform="matrix(0.0037, 0.0, 0.0, 0.0037, -236.75, -269.9)" gradientUnits="userSpaceOnUse" id="gradient18" r="819.2" spreadMethod="pad">
      <stop offset="0.0" stop-color="#e2e2e2"/>
      <stop offset="1.0" stop-color="#e0e0e0"/>
    </radialGradient>
    <radialGradient cx="0" cy="0" gradientTransform="matrix(0.0102, 0.0, 0.0, 0.0102, -243.45, -264.95)" gradientUnits="userSpaceOnUse" id="gradient19" r="819.2" spreadMethod="pad">
      <stop offset="0.0" stop-color="#e1e1e1"/>
      <stop offset="1.0" stop-color="#dfdfdf"/>
    </radialGradient>
    <radialGradient cx="0" cy="0" gradientTransform="matrix(0.0373, 0.0, 0.0, 0.0373, -243.45, -264.95)" gradientUnits="userSpaceOnUse" id="gradient20" r="819.2" spreadMethod="pad">
      <stop offset="0.0" stop-color="#767676"/>
      <stop offset="1.0" stop-color="#767676"/>
    </radialGradient>
    <radialGradient cx="0" cy="0" gradientTransform="matrix(0.0036, 0.0, 0.0, 0.0036, -273.45, -258.9)" gradientUnits="userSpaceOnUse" id="gradient21" r="819.2" spreadMethod="pad">
      <stop offset="0.0" stop-color="#838383"/>
      <stop offset="1.0" stop-color="#838383"/>
    </radialGradient>
    <radialGradient cx="0" cy="0" gradientTransform="matrix(0.0359, 0.0, 0.0, 0.0359, -219.25, -231.3)" gradientUnits="userSpaceOnUse" id="gradient22" r="819.2" spreadMethod="pad">
      <stop offset="0.0" stop-color="#ff5151"/>
      <stop offset="1.0" stop-color="#ff4c4c"/>
    </radialGradient>
    <radialGradient cx="0" cy="0" gradientTransform="matrix(0.0374, 0.0, 0.0, 0.0374, -219.75, -231.45)" gradientUnits="userSpaceOnUse" id="gradient23" r="819.2" spreadMethod="pad">
      <stop offset="0.0" stop-color="#ff5151"/>
      <stop offset="1.0" stop-color="#330000"/>
    </radialGradient>
    <radialGradient cx="0" cy="0" gradientTransform="matrix(0.0386, 0.0, 0.0, 0.0386, -218.45, -225.55)" gradientUnits="userSpaceOnUse" id="gradient24" r="819.2" spreadMethod="pad">
      <stop offset="0.0" stop-color="#f89797"/>
      <stop offset="1.0" stop-color="#480000"/>
    </radialGradient>
    <radialGradient cx="0" cy="0" gradientTransform="matrix(0.0283, 0.0, 0.0, 0.0283, -226.1, -221.6)" gradientUnits="userSpaceOnUse" id="gradient25" r="819.2" spreadMethod="pad">
      <stop offset="0.0" stop-color="#ff3030"/>
      <stop offset="1.0" stop-color="#ff2d2d"/>
    </radialGradient>
    <radialGradient cx="0" cy="0" gradientTransform="matrix(0.0786, 0.0, 0.0, 0.0786, -144.5, -121.4)" gradientUnits="userSpaceOnUse" id="gradient26" r="819.2" spreadMethod="pad">
      <stop offset="0.0" stop-color="#595959"/>
      <stop offset="1.0" stop-color="#000000"/>
    </radialGradient>
    <radialGradient cx="0" cy="0" gradientTransform="matrix(0.0201, 0.0, 0.0, 0.0201, -149.7, -144.4)" gradientUnits="userSpaceOnUse" id="gradient27" r="819.2" spreadMethod="pad">
      <stop offset="0.0" stop-color="#000000"/>
      <stop offset="1.0" stop-color="#000000"/>
    </radialGradient>
    <radialGradient cx="0" cy="0" gradientTransform="matrix(0.1083, 0.0, 0.0, 0.1083, -119.15, -122.65)" gradientUnits="userSpaceOnUse" id="gradient28" r="819.2" spreadMethod="pad">
      <stop offset="0.0" stop-color="#616161"/>
      <stop offset="1.0" stop-color="#000000"/>
    </radialGradient>
    <radialGradient cx="0" cy="0" gradientTransform="matrix(0.0372, 0.0, 0.0, 0.0372, -295.2, -153.05)" gradientUnits="userSpaceOnUse" id="gradient29" r="819.2" spreadMethod="pad">
      <stop offset="0.0" stop-color="#191919"/>
      <stop offset="1.0" stop-color="#0d0d0d"/>
    </radialGradient>
    <radialGradient cx="0" cy="0" gradientTransform="matrix(0.0098, 0.0, 0.0, 0.0098, -2.7, -129.35)" gradientUnits="userSpaceOnUse" id="gradient30" r="819.2" spreadMethod="pad">
      <stop offset="0.0" stop-color="#000000"/>
      <stop offset="1.0" stop-color="#000000"/>
    </radialGradient>
    <radialGradient cx="0" cy="0" gradientTransform="matrix(0.0023, 0.0, 0.0, 0.0023, -1.0, -130.3)" gradientUnits="userSpaceOnUse" id="gradient31" r="819.2" spreadMethod="pad">
      <stop offset="0.0" stop-color="#000000"/>
      <stop offset="1.0" stop-color="#000000"/>
    </radialGradient>
    <radialGradient cx="0" cy="0" gradientTransform="matrix(0.0702, 0.0, 0.0, 0.0702, -1.0, -78.4)" gradientUnits="userSpaceOnUse" id="gradient32" r="819.2" spreadMethod="pad">
      <stop offset="0.0" stop-color="#010101"/>
      <stop offset="1.0" stop-color="#000000"/>
    </radialGradient>
    <radialGradient cx="0" cy="0" gradientTransform="matrix(0.0459, 0.0, 0.0, 0.0459, -144.5, -121.4)" gradientUnits="userSpaceOnUse" id="gradient33" r="819.2" spreadMethod="pad">
      <stop offset="0.0" stop-color="#595959"/>
      <stop offset="1.0" stop-color="#070707"/>
    </radialGradient>
    <radialGradient cx="0" cy="0" gradientTransform="matrix(0.1012, 0.0, 0.0, 0.1012, -53.55, -80.55)" gradientUnits="userSpaceOnUse" id="gradient34" r="819.2" spreadMethod="pad">
      <stop offset="0.0" stop-color="#000000"/>
      <stop offset="1.0" stop-color="#000000"/>
    </radialGradient>
    <radialGradient cx="0" cy="0" gradientTransform="matrix(0.1041, 0.0, 0.0, 0.1041, -343.7, -55.65)" gradientUnits="userSpaceOnUse" id="gradient35" r="819.2" spreadMethod="pad">
      <stop offset="0.0" stop-color="#6a6a6a"/>
      <stop offset="1.0" stop-color="#000000"/>
    </radialGradient>
    <radialGradient cx="0" cy="0" gradientTransform="matrix(0.0691, 0.0, 0.0, 0.0691, -300.25, -58.7)" gradientUnits="userSpaceOnUse" id="gradient36" r="819.2" spreadMethod="pad">
      <stop offset="0.0" stop-color="#000000"/>
      <stop offset="1.0" stop-color="#000000"/>
    </radialGradient>
    <radialGradient cx="0" cy="0" gradientTransform="matrix(0.0309, 0.0, 0.0, 0.0309, -370.75, -28.65)" gradientUnits="userSpaceOnUse" id="gradient37" r="819.2" spreadMethod="pad">
      <stop offset="0.0" stop-color="#010101"/>
      <stop offset="1.0" stop-color="#000000"/>
    </radialGradient>
    <radialGradient cx="0" cy="0" gradientTransform="matrix(0.0457, 0.0, 0.0, 0.0457, -339.55, -90.05)" gradientUnits="userSpaceOnUse" id="gradient38" r="819.2" spreadMethod="pad">
      <stop offset="0.0" stop-color="#000000"/>
      <stop offset="1.0" stop-color="#000000"/>
    </radialGradient>
    <radialGradient cx="0" cy="0" gradientTransform="matrix(0.031, 0.0, 0.0, 0.031, -33.6, -76.2)" gradientUnits="userSpaceOnUse" id="gradient39" r="819.2" spreadMethod="pad">
      <stop offset="0.0" stop-color="#000000"/>
      <stop offset="1.0" stop-color="#000000"/>
    </radialGradient>
    <radialGradient cx="0" cy="0" gradientTransform="matrix(0.0641, 0.0, 0.0, 0.0641, -400.0, -1.0)" gradientUnits="userSpaceOnUse" id="gradient40" r="819.2" spreadMethod="pad">
      <stop offset="0.0" stop-color="#1c1c1c"/>
      <stop offset="1.0" stop-color="#000000"/>
    </radialGradient>
    <radialGradient cx="0" cy="0" gradientTransform="matrix(0.0334, 0.0, 0.0, 0.0334, -391.2, -1.0)" gradientUnits="userSpaceOnUse" id="gradient41" r="819.2" spreadMethod="pad">
      <stop offset="0.0" stop-color="#030303"/>
      <stop offset="1.0" stop-color="#000000"/>
    </radialGradient>
    <radialGradient cx="0" cy="0" gradientTransform="matrix(0.0351, 0.0, 0.0, 0.0351, -362.8, -1.0)" gradientUnits="userSpaceOnUse" id="gradient42" r="819.2" spreadMethod="pad">
      <stop offset="0.0" stop-color="#181818"/>
      <stop offset="1.0" stop-color="#0a0a0a"/>
    </radialGradient>
    <radialGradient cx="0" cy="0" gradientTransform="matrix(0.0782, 0.0, 0.0, 0.0782, -156.6, -1.0)" gradientUnits="userSpaceOnUse" id="gradient43" r="819.2" spreadMethod="pad">
      <stop offset="0.0" stop-color="#2f2f2f"/>
      <stop offset="1.0" stop-color="#000000"/>
    </radialGradient>
    <radialGradient cx="0" cy="0" gradientTransform="matrix(0.0498, 0.0, 0.0, 0.0498, -291.0, -43.0)" gradientUnits="userSpaceOnUse" id="gradient44" r="819.2" spreadMethod="pad">
      <stop offset="0.0" stop-color="#626262"/>
      <stop offset="1.0" stop-color="#373737"/>
    </radialGradient>
    <radialGradient cx="0" cy="0" gradientTransform="matrix(0.0551, 0.0, 0.0, 0.0551, -282.2, -1.0)" gradientUnits="userSpaceOnUse" id="gradient45" r="819.2" spreadMethod="pad">
      <stop offset="0.0" stop-color="#7a7a7a"/>
      <stop offset="1.0" stop-color="#525252"/>
    </radialGradient>
    <radialGradient cx="0" cy="0" gradientTransform="matrix(0.0351, 0.0, 0.0, 0.0351, -362.8, -1.0)" gradientUnits="userSpaceOnUse" id="gradient46" r="819.2" spreadMethod="pad">
      <stop offset="0.0" stop-color="#181818"/>
      <stop offset="1.0" stop-color="#010101"/>
    </radialGradient>
    <radialGradient cx="0" cy="0" gradientTransform="matrix(0.048, 0.0, 0.0, 0.048, -152.45, -40.05)" gradientUnits="userSpaceOnUse" id="gradient47" r="819.2" spreadMethod="pad">
      <stop offset="0.0" stop-color="#373737"/>
      <stop offset="1.0" stop-color="#353535"/>
    </radialGradient>
  </defs>
</svg>
