<?xml version="1.0" encoding="UTF-8" standalone="no"?>
<svg xmlns:xlink="http://www.w3.org/1999/xlink" height="299.1px" width="399.1px" xmlns="http://www.w3.org/2000/svg">
  <g transform="matrix(1.0, 0.0, 0.0, 1.0, 400.0, 300.0)">
    <path d="M-283.4 -186.15 L-283.9 -186.65 -282.5 -191.4 -290.65 -203.65 -291.25 -204.0 -290.9 -204.25 -284.75 -201.65 -283.25 -201.4 -290.25 -213.65 -290.5 -229.15 -295.4 -238.4 -295.0 -238.9 -294.0 -255.0 -294.25 -256.75 -288.65 -272.9 -283.4 -292.25 -272.75 -279.0 -275.5 -271.0 -275.4 -270.5 -282.15 -247.5 -282.25 -237.25 -280.4 -229.25 -280.25 -229.0 -279.15 -223.9 -279.0 -223.65 -276.65 -213.4 -275.9 -211.5 -276.0 -210.9 -275.5 -210.25 -274.25 -205.4 -273.65 -204.25 -267.75 -196.0 -261.5 -188.4 -261.25 -188.15 -260.9 -187.65 -260.25 -186.9 -260.0 -186.5 -255.0 -180.5 -251.9 -178.4 -253.75 -177.15 -260.5 -176.75 -268.9 -173.75 -273.0 -177.9 -273.65 -178.0 -278.4 -182.4 -283.4 -186.15 M-269.9 -300.0 L-265.4 -300.0 -266.15 -295.25 -264.9 -292.4 -262.65 -292.0 -270.15 -283.5 -269.9 -300.0 M-126.4 -237.75 L-126.25 -241.0 -124.25 -239.0 -126.4 -237.75 M-131.25 -210.15 L-131.75 -205.5 -137.15 -191.5 -137.65 -189.4 -142.9 -190.5 -131.25 -210.15" fill="url(#gradient0)" fill-rule="evenodd" stroke="none"/>
    <path d="M-265.4 -300.0 L-241.4 -300.0 -263.5 -294.9 -266.15 -295.25 -265.4 -300.0" fill="url(#gradient1)" fill-rule="evenodd" stroke="none"/>
    <path d="M-263.5 -294.9 L-262.65 -292.0 -264.9 -292.4 -266.15 -295.25 -263.5 -294.9" fill="url(#gradient2)" fill-rule="evenodd" stroke="none"/>
    <path d="M-241.4 -300.0 L-232.9 -300.0 -232.5 -298.9 -262.65 -292.0 -263.5 -294.9 -241.4 -300.0" fill="url(#gradient3)" fill-rule="evenodd" stroke="none"/>
    <path d="M-232.9 -300.0 L-230.9 -300.0 -232.5 -298.9 -232.9 -300.0" fill="url(#gradient4)" fill-rule="evenodd" stroke="none"/>
    <path d="M-230.9 -300.0 L-172.15 -300.0 -167.15 -293.75 -143.25 -261.15 -137.5 -231.25 -137.15 -231.75 -133.5 -249.65 -126.25 -241.0 -126.4 -237.75 -137.5 -230.9 -128.65 -225.0 -131.25 -210.25 -131.25 -210.15 -142.9 -190.5 -143.65 -190.5 -181.15 -196.65 -185.4 -197.65 -196.0 -205.75 -196.75 -205.75 -230.0 -199.65 -235.4 -188.5 -238.0 -186.4 -238.25 -186.15 -238.4 -186.15 -251.9 -178.4 -255.0 -180.5 -260.0 -186.5 -260.25 -186.9 -260.9 -187.65 -261.25 -188.15 -261.5 -188.4 -267.75 -196.0 -273.65 -204.25 -274.25 -205.4 -275.5 -210.25 -276.0 -210.9 -275.9 -211.5 -276.65 -213.4 -279.0 -223.65 -279.15 -223.9 -280.25 -229.0 -280.4 -229.25 -282.25 -237.25 -282.15 -247.5 -275.4 -270.5 -275.5 -271.0 -272.75 -279.0 -270.4 -276.15 -270.15 -283.5 -262.65 -292.0 -232.5 -298.9 -230.9 -300.0 M-235.9 -263.15 L-238.75 -261.15 -237.75 -261.15 -205.0 -268.4 -213.15 -270.65 -217.15 -270.9 -220.4 -270.0 -223.25 -268.5 -227.4 -268.5 -228.75 -268.15 -231.0 -267.15 -231.25 -266.75 -232.75 -265.5 -232.9 -265.5 -235.75 -263.25 -235.9 -263.15 M-223.25 -255.75 Q-208.4 -260.0 -204.15 -266.75 L-238.9 -259.15 Q-236.75 -255.9 -223.25 -255.75" fill="url(#gradient5)" fill-rule="evenodd" stroke="none"/>
    <path d="M-172.15 -300.0 L-126.9 -300.0 -122.9 -295.25 -114.15 -278.4 -108.65 -259.4 -107.15 -239.0 -109.4 -220.4 -115.25 -202.25 -124.0 -186.5 -137.65 -189.4 -137.15 -191.5 -131.75 -205.5 -131.25 -210.15 -131.25 -210.25 -128.65 -225.0 -137.5 -230.9 -126.4 -237.75 -124.25 -239.0 -126.25 -241.0 -133.5 -249.65 -137.15 -231.75 -137.5 -231.25 -143.25 -261.15 -167.15 -293.75 -172.15 -300.0" fill="url(#gradient6)" fill-rule="evenodd" stroke="none"/>
    <path d="M-124.0 -186.5 L-121.25 -185.9 -137.5 -183.9 -143.65 -190.5 -142.9 -190.5 -137.65 -189.4 -124.0 -186.5" fill="url(#gradient7)" fill-rule="evenodd" stroke="none"/>
    <path d="M-283.9 -186.65 L-290.5 -196.65 -295.5 -208.15 -299.25 -221.9 -301.25 -236.4 -300.75 -248.15 -299.0 -263.5 -293.9 -277.0 -288.4 -289.9 -281.75 -300.0 -269.9 -300.0 -270.15 -283.5 -270.4 -276.15 -272.75 -279.0 -283.4 -292.25 -288.65 -272.9 -294.25 -256.75 -294.0 -255.0 -295.0 -238.9 -295.4 -238.4 -290.5 -229.15 -290.25 -213.65 -283.25 -201.4 -284.75 -201.65 -290.9 -204.25 -291.25 -204.0 -290.65 -203.65 -282.5 -191.4 -283.9 -186.65" fill="url(#gradient8)" fill-rule="evenodd" stroke="none"/>
    <path d="M-238.4 -186.15 L-238.25 -185.65 -248.5 -177.4 -253.75 -177.15 -251.9 -178.4 -238.4 -186.15" fill="url(#gradient9)" fill-rule="evenodd" stroke="none"/>
    <path d="M-185.4 -197.65 L-181.15 -196.65 -182.15 -196.5 -182.5 -195.9 -183.5 -196.15 -185.4 -197.65 M-238.4 -186.15 L-238.25 -186.15 -238.0 -186.4 -235.4 -188.5 -235.5 -188.15 -236.4 -186.4 -236.5 -186.15 -237.15 -185.9 -238.25 -185.65 -238.4 -186.15" fill="url(#gradient10)" fill-rule="evenodd" stroke="none"/>
    <path d="M-235.4 -188.5 L-230.0 -199.65 -196.75 -205.75 -196.0 -205.75 -185.4 -197.65 -183.5 -196.15 -169.9 -182.65 -184.5 -186.25 -198.0 -185.65 -207.65 -182.25 Q-211.0 -180.8 -214.4 -179.4 L-223.4 -172.0 -226.4 -168.4 -225.75 -166.0 Q-227.25 -165.5 -229.25 -156.4 L-227.75 -148.75 -224.15 -143.75 Q-225.15 -142.4 -221.0 -132.4 L-214.25 -124.75 -209.0 -122.0 -196.4 -120.4 -185.5 -111.9 -183.5 -110.9 -195.4 -114.15 -250.0 -106.0 -260.5 -95.15 -257.25 -103.5 -256.9 -109.5 -254.0 -112.5 -252.4 -115.0 -251.0 -118.15 -246.25 -122.75 -241.25 -131.65 -239.75 -141.0 -233.65 -149.9 -231.5 -158.25 -232.75 -164.9 -229.15 -168.0 -228.75 -168.75 Q-227.75 -171.75 -233.4 -174.4 L-245.25 -177.15 -237.15 -185.9 -236.5 -186.15 -236.4 -186.4 -235.5 -188.15 -235.4 -188.5 M-170.0 -107.15 L-165.15 -107.4 -162.75 -108.9 -163.4 -105.25 -170.0 -107.15 M-265.15 -90.15 L-267.65 -87.65 -268.25 -88.65 -267.9 -89.25 -265.15 -90.15" fill="url(#gradient11)" fill-rule="evenodd" stroke="none"/>
    <path d="M-137.65 -126.15 L-135.0 -93.9 -138.25 -104.75 -163.4 -105.25 -162.75 -108.9 -158.9 -108.5 -152.65 -111.5 -146.75 -118.15 -145.9 -119.9 -142.5 -120.4 -142.0 -120.75 Q-140.0 -123.25 -140.0 -125.4 L-139.75 -141.0 -138.5 -137.65 -137.65 -126.15 M-183.5 -196.15 L-182.5 -195.9 -144.75 -173.9 -144.4 -172.9 -142.5 -154.9 -151.25 -169.4 -152.75 -171.0 -157.15 -174.9 -169.9 -182.65 -183.5 -196.15" fill="url(#gradient12)" fill-rule="evenodd" stroke="none"/>
    <path d="M-183.5 -110.9 L-185.5 -111.9 -196.4 -120.4 -209.0 -122.0 -214.25 -124.75 -221.0 -132.4 Q-225.15 -142.4 -224.15 -143.75 L-227.75 -148.75 -229.25 -156.4 Q-227.25 -165.5 -225.75 -166.0 L-226.4 -168.4 -223.4 -172.0 -214.4 -179.4 Q-211.0 -180.8 -207.65 -182.25 L-198.0 -185.65 -184.5 -186.25 -169.9 -182.65 -157.15 -174.9 -152.75 -171.0 -151.25 -169.4 -142.5 -154.9 -142.5 -154.4 -140.65 -150.5 -139.5 -144.65 -139.75 -141.0 -140.0 -125.4 Q-140.0 -123.25 -142.0 -120.75 L-142.5 -120.4 -145.9 -119.9 -146.75 -118.15 -152.65 -111.5 -158.9 -108.5 -162.75 -108.9 -165.15 -107.4 -170.0 -107.15 -175.65 -108.0 -179.15 -109.0 -183.5 -110.9" fill="url(#gradient13)" fill-rule="evenodd" stroke="none"/>
    <path d="M-174.15 -0.9 L-264.5 -0.9 -260.5 -44.9 -267.75 -87.4 -267.65 -87.65 -265.15 -90.15 -261.5 -93.65 -260.5 -95.15 -250.0 -106.0 -195.4 -114.15 -183.5 -110.9 -179.15 -109.0 -175.65 -108.0 -170.0 -107.15 -163.4 -105.25 -175.4 -55.65 -174.15 -0.9" fill="url(#gradient14)" fill-rule="evenodd" stroke="none"/>
    <path d="M-277.9 -87.65 L-279.9 -88.75 -286.5 -95.15 -292.0 -100.9 -292.75 -102.75 -293.15 -102.75 Q-292.9 -103.5 -295.15 -106.9 L-297.75 -114.65 -300.5 -125.5 -300.25 -132.9 -295.75 -148.15 -294.5 -151.9 -290.75 -158.0 -277.15 -170.25 -272.5 -172.4 -268.9 -173.75 -260.5 -176.75 -253.75 -177.15 -248.5 -177.4 -245.25 -177.15 -233.4 -174.4 Q-227.75 -171.75 -228.75 -168.75 L-229.15 -168.0 -232.75 -164.9 -231.5 -158.25 -233.65 -149.9 -239.75 -141.0 -241.25 -131.65 -246.25 -122.75 -251.0 -118.15 -252.4 -115.0 -254.0 -112.5 -256.9 -109.5 -257.25 -103.5 -260.5 -95.15 -261.5 -93.65 -265.15 -90.15 -267.9 -89.25 -268.25 -88.65 -268.9 -87.0 -270.25 -85.5 -272.5 -85.0 -277.9 -87.65" fill="url(#gradient15)" fill-rule="evenodd" stroke="none"/>
    <path d="M-238.25 -185.65 L-237.15 -185.9 -245.25 -177.15 -248.5 -177.4 -238.25 -185.65" fill="url(#gradient16)" fill-rule="evenodd" stroke="none"/>
    <path d="M-235.9 -263.15 L-237.25 -261.9 -207.15 -268.65 -213.5 -270.4 -217.25 -270.65 -220.5 -269.75 -223.25 -268.25 -228.25 -268.0 -231.25 -266.75 -231.0 -267.15 -228.75 -268.15 -227.4 -268.5 -223.25 -268.5 -220.4 -270.0 -217.15 -270.9 -213.15 -270.65 -205.0 -268.4 -237.75 -261.15 -238.75 -261.15 -235.9 -263.15 M-231.25 -266.75 L-231.75 -266.0 -232.75 -265.5 -231.25 -266.75" fill="url(#gradient17)" fill-rule="evenodd" stroke="none"/>
    <path d="M-231.25 -266.75 L-228.25 -268.0 -223.25 -268.25 -220.5 -269.75 -217.25 -270.65 -213.5 -270.4 -207.15 -268.65 -237.25 -261.9 -235.9 -263.15 -235.75 -263.25 -232.9 -265.5 -232.75 -265.5 -231.75 -266.0 -231.25 -266.75" fill="url(#gradient18)" fill-rule="evenodd" stroke="none"/>
    <path d="M-223.25 -255.75 Q-236.75 -255.9 -238.9 -259.15 L-204.15 -266.75 Q-208.4 -260.0 -223.25 -255.75 M-223.5 -256.4 Q-209.25 -260.5 -205.65 -266.15 L-238.5 -259.15 Q-234.5 -256.4 -223.5 -256.4" fill="url(#gradient19)" fill-rule="evenodd" stroke="none"/>
    <path d="M-223.5 -256.4 Q-234.5 -256.4 -238.5 -259.15 L-205.65 -266.15 Q-209.25 -260.5 -223.5 -256.4" fill="url(#gradient20)" fill-rule="evenodd" stroke="none"/>
    <path d="M-181.15 -196.65 L-143.65 -190.5 -137.5 -183.9 -131.9 -162.4 -132.0 -161.65 -140.65 -150.5 -142.5 -154.4 -142.5 -154.9 -144.4 -172.9 -144.75 -173.9 -182.5 -195.9 -182.15 -196.5 -181.15 -196.65" fill="url(#gradient21)" fill-rule="evenodd" stroke="none"/>
    <path d="M-121.25 -185.9 L-86.75 -180.0 -61.25 -177.25 -17.15 -170.9 -28.75 -151.5 -29.15 -151.4 -40.0 -123.65 -56.9 -123.15 -75.5 -126.15 -97.75 -131.9 -122.15 -134.5 -122.5 -134.5 -132.0 -161.65 -131.9 -162.4 -137.5 -183.9 -121.25 -185.9" fill="url(#gradient22)" fill-rule="evenodd" stroke="none"/>
    <path d="M-272.5 -172.4 L-275.9 -175.5 -283.4 -186.15 -278.4 -182.4 -273.65 -178.0 -273.0 -177.9 -268.9 -173.75 -272.5 -172.4" fill="url(#gradient23)" fill-rule="evenodd" stroke="none"/>
    <path d="M-17.15 -170.9 L-0.9 -171.9 -0.9 -122.15 -1.0 -121.9 -10.9 -122.4 -39.65 -123.65 -40.0 -123.65 -29.15 -151.4 -28.75 -151.5 -17.15 -170.9" fill="url(#gradient24)" fill-rule="evenodd" stroke="none"/>
    <path d="M-10.9 -122.4 L-20.25 -118.15 -39.65 -123.65 -10.9 -122.4" fill="url(#gradient25)" fill-rule="evenodd" stroke="none"/>
    <path d="M-20.25 -118.15 L-62.65 -112.15 -90.25 -122.15 -117.9 -132.75 -122.15 -134.5 -97.75 -131.9 -75.5 -126.15 -56.9 -123.15 -40.0 -123.65 -39.65 -123.65 -20.25 -118.15" fill="url(#gradient26)" fill-rule="evenodd" stroke="none"/>
    <path d="M-117.9 -132.75 L-137.65 -126.15 -138.5 -137.65 -139.75 -141.0 -139.5 -144.65 -140.65 -150.5 -132.0 -161.65 -122.5 -134.5 -122.15 -134.5 -117.9 -132.75" fill="url(#gradient27)" fill-rule="evenodd" stroke="none"/>
    <path d="M-381.15 -89.75 L-356.15 -104.75 -336.5 -118.5 -336.25 -118.75 -335.25 -119.4 -335.0 -119.65 -334.65 -119.9 -334.4 -120.0 -334.0 -120.25 -333.75 -120.5 -332.75 -121.15 -332.5 -121.4 -327.65 -124.75 -327.5 -124.75 -327.4 -124.75 -327.25 -124.9 -327.15 -125.0 -326.75 -125.25 -326.65 -125.25 -326.25 -125.65 -326.15 -125.65 -326.0 -125.9 -325.75 -125.9 -325.65 -126.15 -325.4 -126.15 -325.25 -126.4 -325.0 -126.4 -324.9 -126.65 -324.65 -126.65 -324.25 -127.0 -324.15 -127.0 -323.9 -127.25 -323.75 -127.25 -323.5 -127.5 -323.4 -127.5 -323.15 -127.75 -323.0 -127.75 -322.75 -128.0 -322.65 -128.0 -322.25 -128.4 -322.15 -128.4 -321.9 -128.65 -320.75 -129.4 -320.5 -129.5 -300.25 -143.4 -295.75 -148.15 -300.25 -132.9 -300.5 -125.5 -297.75 -114.65 -295.15 -106.9 Q-292.9 -103.5 -293.15 -102.75 L-295.4 -102.15 -334.15 -74.25 -335.75 -69.9 -355.75 -66.65 -373.15 -83.5 -381.15 -89.75" fill="url(#gradient28)" fill-rule="evenodd" stroke="none"/>
    <path d="M-286.5 -95.15 L-314.65 -80.4 -331.65 -69.9 -335.75 -69.9 -334.15 -74.25 -295.4 -102.15 -293.15 -102.75 -292.75 -102.75 -292.0 -100.9 -286.5 -95.15" fill="url(#gradient29)" fill-rule="evenodd" stroke="none"/>
    <path d="M-331.65 -69.9 L-348.4 -48.75 -355.4 -65.4 -355.5 -65.4 -355.5 -65.65 -355.65 -65.9 -355.75 -66.15 -355.75 -66.65 -335.75 -69.9 -331.65 -69.9" fill="url(#gradient30)" fill-rule="evenodd" stroke="none"/>
    <path d="M-326.65 -125.25 L-326.5 -125.5 -326.25 -125.65 -326.65 -125.25 M-324.5 -126.9 L-324.25 -127.0 -323.9 -127.25 -323.5 -127.5 -323.15 -127.75 -322.75 -128.0 -322.25 -128.4 -322.65 -128.0 -322.75 -128.0 -323.0 -127.75 -323.15 -127.75 -323.4 -127.5 -323.5 -127.5 -323.75 -127.25 -323.9 -127.25 -324.15 -127.0 -324.25 -127.0 -324.65 -126.65 -324.5 -126.9" fill="url(#gradient31)" fill-rule="evenodd" stroke="none"/>
    <path d="M-327.5 -124.75 L-327.25 -124.9 -327.4 -124.75 -327.5 -124.75 M-326.25 -125.65 L-326.0 -125.9 -325.65 -126.15 -325.25 -126.4 -324.9 -126.65 -324.5 -126.9 -324.65 -126.65 -324.9 -126.65 -325.0 -126.4 -325.25 -126.4 -325.4 -126.15 -325.65 -126.15 -325.75 -125.9 -326.0 -125.9 -326.15 -125.65 -326.25 -125.65" fill="url(#gradient32)" fill-rule="evenodd" stroke="none"/>
    <path d="M-400.0 -44.5 L-400.0 -68.25 -381.15 -89.75 -373.15 -83.5 -355.75 -66.65 -355.75 -66.15 -355.65 -65.9 -355.5 -65.65 -355.5 -65.4 -354.4 -51.0 -349.0 -42.0 -348.9 -41.25 -374.65 -41.4 -387.25 -30.5 -400.0 -44.5" fill="url(#gradient33)" fill-rule="evenodd" stroke="none"/>
    <path d="M-362.4 -0.9 L-372.5 -0.9 -390.15 -24.75 -400.0 -36.9 -400.0 -44.5 -387.25 -30.5 -376.5 -19.0 -362.4 -0.9" fill="url(#gradient34)" fill-rule="evenodd" stroke="none"/>
    <path d="M-343.4 -35.0 L-333.15 -22.4 -314.5 -0.9 -362.4 -0.9 -376.5 -19.0 -387.25 -30.5 -374.65 -41.4 -348.9 -41.25 -347.5 -40.0 -343.4 -35.0" fill="url(#gradient35)" fill-rule="evenodd" stroke="none"/>
    <path d="M-348.4 -48.75 L-343.65 -37.15 -343.4 -35.0 -347.5 -40.0 -348.9 -41.25 -349.0 -42.0 -354.4 -51.0 -355.5 -65.4 -355.4 -65.4 -348.4 -48.75" fill="url(#gradient36)" fill-rule="evenodd" stroke="none"/>
    <path d="M-135.0 -93.9 L-135.0 -93.5 -141.5 -49.5 -144.25 -14.75 -143.4 -0.9 -174.15 -0.9 -175.4 -55.65 -163.4 -105.25 -138.25 -104.75 -135.0 -93.9" fill="url(#gradient37)" fill-rule="evenodd" stroke="none"/>
    <path d="M-277.0 -82.75 L-277.9 -87.65 -272.5 -85.0 -277.0 -82.75 M-267.65 -87.65 L-267.75 -87.4 -268.9 -87.0 -268.25 -88.65 -267.65 -87.65" fill="url(#gradient38)" fill-rule="evenodd" stroke="none"/>
    <path d="M-264.5 -0.9 L-265.65 -0.9 -263.65 -28.0 -277.0 -82.75 -272.5 -85.0 -270.25 -85.5 -268.9 -87.0 -267.75 -87.4 -260.5 -44.9 -264.5 -0.9" fill="url(#gradient39)" fill-rule="evenodd" stroke="none"/>
    <path d="M-180.0 -207.65 L-180.15 -207.5 -180.25 -204.15 -180.15 -203.9 -180.15 -201.0 -180.25 -200.65 -180.15 -196.5 -183.75 -197.25 -184.0 -197.65 -183.9 -197.9 -186.15 -206.0 -186.0 -206.5 -182.9 -207.0 -182.5 -207.15 -181.25 -207.4 -181.15 -207.4 -180.0 -207.65 M-180.15 -196.5 L-175.25 -195.75 -175.25 -198.0 -175.4 -198.75 -175.4 -205.15 -175.25 -205.5 -175.25 -208.4 -172.9 -209.25 -172.65 -209.25 -172.0 -209.4 -171.9 -208.9 -172.0 -208.5 -171.15 -195.65 -174.4 -193.5 -145.4 -180.25 -187.4 -180.4 -187.5 -180.5 -186.5 -184.4 -186.15 -186.0 -186.0 -186.0 -185.0 -190.5 -181.0 -193.5 -180.15 -194.4 -180.25 -194.65 -180.15 -196.5 M-250.75 -195.5 L-250.25 -195.5 -249.9 -195.65 -249.25 -195.75 -249.15 -195.75 -244.0 -196.9 -236.9 -188.75 -236.65 -188.0 -236.25 -187.9 -236.65 -187.65 -236.65 -187.5 -238.0 -186.4 -238.25 -186.15 -238.4 -186.15 -241.75 -184.25 -250.9 -194.15 -250.9 -194.25 -251.0 -194.5 -250.9 -195.0 -250.75 -195.4 -250.75 -195.5" fill="#9b0000" fill-opacity="0.9098039" fill-rule="evenodd" stroke="none"/>
    <path d="M-187.4 -180.4 L-145.4 -180.25 -145.0 -179.65 -144.65 -173.9 -144.75 -173.75 -144.65 -173.75 -144.5 -173.4 -143.5 -163.25 -143.4 -162.75 -143.4 -162.15 -143.25 -161.4 -143.15 -157.9 -143.4 -156.9 -143.5 -156.9 -143.5 -156.0 -143.65 -156.0 -143.5 -155.25 -143.65 -154.4 -143.9 -154.15 -143.75 -153.9 -143.75 -153.5 -143.9 -152.65 -144.15 -152.0 -144.0 -151.5 -144.15 -150.9 -144.5 -148.25 -144.75 -147.25 -144.75 -146.5 -144.9 -145.65 -145.15 -145.15 -145.15 -143.9 -145.75 -139.65 -146.0 -138.75 -146.0 -137.9 -146.25 -136.15 -146.5 -135.5 -146.4 -135.0 -147.15 -130.0 -147.25 -129.75 -147.25 -129.15 -147.9 -124.75 -148.15 -123.9 -148.25 -123.9 -148.15 -123.15 -148.25 -122.25 -148.5 -121.25 -148.5 -120.5 -148.75 -118.75 -164.0 -120.5 -164.5 -120.5 -192.75 -123.4 -203.9 -121.75 -204.15 -121.4 -204.5 -121.5 -205.25 -121.5 -240.0 -115.4 -262.65 -112.65 -262.9 -112.4 -263.0 -112.25 -263.75 -111.65 -264.25 -111.4 -264.75 -110.65 -269.65 -105.75 -270.65 -105.0 -273.0 -102.75 -273.25 -102.25 -275.25 -100.25 -275.4 -100.15 -276.15 -99.4 -276.25 -99.25 -279.4 -96.4 -279.9 -95.75 -283.0 -92.65 -283.25 -92.65 -283.5 -92.25 -286.25 -95.0 -286.5 -95.15 -287.0 -94.9 -287.5 -94.75 -287.9 -95.5 -289.9 -98.25 -290.15 -98.75 -291.25 -100.4 -292.15 -101.5 -292.15 -101.65 -292.5 -102.15 -292.65 -102.25 -292.65 -102.4 -292.75 -102.5 -292.9 -102.75 -293.0 -102.9 -294.4 -105.5 -297.75 -114.9 -297.75 -115.0 -297.9 -115.25 -298.5 -117.0 -298.9 -118.4 -298.9 -118.65 -300.5 -126.15 -300.4 -126.25 -300.25 -127.15 -300.25 -132.4 -299.0 -137.15 -299.15 -137.15 -298.4 -139.15 -298.5 -139.25 -298.4 -139.5 -298.4 -139.65 -299.25 -143.9 -299.5 -144.15 -299.4 -144.4 -299.4 -144.5 -295.75 -148.15 -294.25 -152.25 -293.75 -152.9 -292.25 -155.5 -291.0 -155.75 -290.75 -155.9 -289.9 -156.0 -289.65 -156.15 -280.65 -158.0 -280.25 -158.15 -278.15 -158.65 -268.9 -153.4 -268.75 -153.15 -233.25 -133.15 -226.25 -138.4 -226.15 -138.75 -220.0 -143.15 -219.65 -143.75 -218.25 -144.65 -201.9 -157.15 -201.75 -157.5 -193.25 -163.9 -192.9 -165.15 -192.65 -165.4 -191.15 -169.65 -191.25 -169.9 -191.0 -170.0 -189.75 -174.0 -189.5 -174.25 -187.4 -180.4 M-182.15 -153.0 L-182.65 -152.25 -182.5 -151.75 -182.0 -150.5 -181.75 -149.5 -181.5 -149.65 -180.65 -150.9 -180.4 -151.4 -180.4 -152.0 -180.75 -152.5 -181.75 -153.4 -182.15 -153.0 M-284.75 -137.65 L-285.0 -137.4 -284.9 -137.4 -284.75 -137.25 -284.75 -137.65 M-281.9 -128.9 L-283.5 -133.25 -282.5 -128.15 -282.5 -127.9 -282.4 -127.75 -281.75 -128.25 -281.9 -128.5 -281.9 -128.9" fill="#b00000" fill-opacity="0.9098039" fill-rule="evenodd" stroke="none"/>
    <path d="M-180.15 -196.5 L-180.25 -200.65 -180.15 -201.0 -180.15 -203.9 -180.25 -204.15 -180.15 -207.5 -180.0 -207.65 -172.9 -209.25 -175.25 -208.4 -175.25 -205.5 -175.4 -205.15 -175.4 -198.75 -175.25 -198.0 -175.25 -195.75 -180.15 -196.5" fill="#a90000" fill-rule="evenodd" stroke="none"/>
    <path d="M-255.65 -194.5 L-255.5 -194.65 -255.4 -194.5 -255.65 -194.5 M-252.15 -195.15 L-251.0 -195.4 -251.0 -195.5 -250.75 -195.5 -250.75 -195.4 -250.9 -195.0 -251.0 -194.5 -251.5 -195.15 -252.15 -195.15" fill="#ad0000" fill-rule="evenodd" stroke="none"/>
    <path d="M-276.15 -175.75 L-263.75 -179.5 -260.9 -187.4 -261.0 -187.75 -260.75 -187.4 -259.9 -189.75 -259.9 -190.15 -258.4 -194.0 -255.65 -194.5 -255.4 -194.5 -255.5 -194.65 -254.9 -194.65 -254.65 -194.75 -254.25 -194.75 -253.75 -194.9 -252.25 -195.15 -252.15 -195.15 -251.5 -195.15 -251.0 -194.5 -250.9 -194.25 -250.9 -194.15 -252.4 -190.25 -252.4 -189.9 -254.5 -183.5 -254.5 -183.15 -255.0 -181.4 Q-255.3 -181.25 -255.65 -181.15 L-256.25 -181.0 -264.15 -178.4 -265.0 -178.25 -265.5 -178.0 -270.0 -176.5 -270.65 -176.4 -272.15 -172.65 -272.5 -172.4 -272.15 -172.4 -272.5 -172.15 -272.9 -170.75 -273.15 -170.5 -273.4 -169.65 -274.5 -167.0 -274.75 -166.65 -277.4 -160.25 -277.65 -159.9 -278.15 -158.65 -280.25 -158.15 -280.65 -158.0 -289.65 -156.15 -289.9 -156.0 -290.75 -155.9 -291.0 -155.75 -292.25 -155.5 -290.75 -158.0 -284.75 -163.4 -284.0 -164.0 -283.65 -164.4 -282.9 -165.0 -282.5 -165.4 -281.75 -166.0 -281.4 -166.4 -277.15 -170.25 -275.15 -171.25 -275.0 -171.4 -273.9 -171.75 -273.75 -171.75 -272.5 -172.4 -275.75 -175.5 -276.15 -175.75" fill="#9f0000" fill-opacity="0.9098039" fill-rule="evenodd" stroke="none"/>
    <path d="M-300.75 -153.75 L-280.15 -174.4 -276.15 -175.75 -275.75 -175.5 -272.5 -172.4 -273.75 -171.75 -273.9 -171.75 -275.0 -171.4 -275.15 -171.25 -277.15 -170.25 -281.4 -166.4 -281.75 -166.0 -282.5 -165.4 -282.9 -165.0 -283.65 -164.4 -284.0 -164.0 -284.75 -163.4 -290.75 -158.0 -292.25 -155.5 -300.75 -153.75" fill="#af0000" fill-opacity="0.9098039" fill-rule="evenodd" stroke="none"/>
    <path d="M-301.0 -153.15 L-300.75 -153.75 -292.25 -155.5 -293.75 -152.9 -294.25 -152.25 -295.75 -148.15 -299.4 -144.5 -301.0 -153.15 M-287.5 -94.75 L-287.0 -94.9 -286.5 -95.15 -286.25 -95.0 -283.5 -92.25 -284.9 -91.0 -287.4 -94.5 -287.5 -94.75" fill="#c20000" fill-opacity="0.9098039" fill-rule="evenodd" stroke="none"/>
    <path d="M-305.15 -140.25 L-301.0 -153.15 -299.4 -144.5 -299.4 -144.4 -299.5 -144.15 -299.9 -143.75 -305.15 -140.25" fill="#c50000" fill-rule="evenodd" stroke="none"/>
    <path d="M-145.0 -179.65 L-140.5 -170.0 -140.0 -169.15 -134.9 -158.0 -135.0 -157.75 -133.65 -155.5 -133.65 -154.9 -125.9 -138.65 -124.9 -135.0 -124.75 -134.9 -123.9 -130.65 -137.65 -126.15 -137.25 -118.15 -136.75 -115.75 -138.25 -116.15 -139.15 -116.25 -148.4 -118.75 -148.75 -118.75 -148.5 -120.5 -148.5 -121.25 -148.25 -122.25 -148.15 -123.15 -148.25 -123.9 -148.15 -123.9 -147.9 -124.75 -147.25 -129.15 -147.25 -129.75 -147.15 -130.0 -146.4 -135.0 -146.5 -135.5 -146.25 -136.15 -146.0 -137.9 -146.0 -138.75 -145.75 -139.65 -145.15 -143.9 -145.15 -145.15 -144.9 -145.65 -144.75 -146.5 -144.75 -147.25 -144.5 -148.25 -144.15 -150.9 -144.0 -151.5 -144.15 -152.0 -143.9 -152.65 -143.75 -153.5 -143.75 -153.9 -143.9 -154.15 -143.65 -154.4 -143.5 -155.25 -143.65 -156.0 -143.5 -156.0 -143.5 -156.9 -143.4 -156.9 -143.15 -157.9 -143.25 -161.4 -143.4 -162.15 -143.4 -162.75 -143.5 -163.25 -144.5 -173.4 -144.65 -173.75 -144.75 -173.75 -144.65 -173.9 -145.0 -179.65" fill="#d30000" fill-opacity="0.9098039" fill-rule="evenodd" stroke="none"/>
    <path d="M-143.75 -0.9 L-166.65 -0.9 -167.0 -17.5 -167.25 -18.25 -167.4 -26.25 -167.5 -26.5 -167.9 -43.15 -168.15 -43.9 -168.4 -57.75 -168.0 -58.9 -167.65 -60.15 -167.5 -60.5 -167.4 -60.9 -167.25 -61.25 -167.15 -61.65 -167.0 -62.0 -166.9 -62.4 -166.75 -62.75 -166.65 -63.25 -165.4 -67.15 -165.25 -67.5 -165.15 -67.9 -165.0 -68.25 -164.9 -68.65 -164.75 -69.0 -164.65 -69.4 -164.5 -69.75 -164.4 -70.25 -163.25 -73.75 -163.15 -74.15 -163.0 -74.5 -162.9 -74.9 -162.75 -75.25 -162.65 -75.65 -162.5 -76.0 -162.4 -76.4 -162.25 -76.75 -162.15 -77.25 -160.9 -81.15 -160.75 -81.5 -160.65 -81.9 -160.5 -82.25 -160.4 -82.65 -160.25 -83.0 -160.15 -83.4 -160.0 -83.75 -160.0 -84.5 -159.9 -84.5 -159.5 -85.4 -159.0 -86.9 -158.65 -88.15 -158.5 -88.5 -158.4 -88.9 -158.25 -89.25 -158.15 -89.65 -158.0 -90.0 -157.9 -90.4 -157.75 -90.75 -157.65 -91.25 -156.4 -95.15 -156.25 -95.5 -156.15 -95.9 -156.0 -96.25 -155.9 -96.65 -155.75 -97.0 -155.65 -97.4 -155.5 -97.75 -155.4 -98.25 -154.5 -100.9 -154.15 -102.15 -154.0 -102.5 -153.9 -102.9 -153.75 -103.25 -153.65 -103.65 -153.5 -104.0 -153.4 -104.4 -153.25 -104.75 -150.65 -113.65 -150.0 -114.65 -149.4 -117.5 -149.25 -117.65 -149.0 -118.0 -148.9 -118.4 -148.75 -118.75 -148.4 -118.75 -139.15 -116.25 -138.25 -116.15 -136.75 -115.75 -135.4 -97.5 -135.4 -95.5 -135.25 -95.15 -135.25 -95.0 -135.15 -94.25 -134.9 -93.25 -135.75 -88.65 -135.65 -88.25 -138.65 -68.5 -138.65 -68.15 -140.4 -55.65 -141.9 -45.5 -141.75 -44.9 -142.0 -44.65 -141.9 -43.4 -144.4 -14.75 -144.25 -11.4 -144.15 -11.0 -144.15 -9.65 -144.0 -9.15 -143.9 -5.25 -143.75 -4.5 -143.75 -3.4 -143.65 -3.0 -143.65 -1.5 -143.5 -1.4 -143.75 -0.9" fill="#dc0000" fill-opacity="0.9098039" fill-rule="evenodd" stroke="none"/>
    <path d="M-123.9 -130.65 L-118.9 -104.5 -119.0 -102.4 -119.75 -100.65 -122.5 -112.15 -136.75 -115.75 -137.25 -118.15 -137.65 -126.15 -123.9 -130.65 M-293.0 -102.9 L-292.9 -102.75 -293.15 -102.75 -293.0 -102.9 M-292.15 -101.5 L-291.25 -100.4 -291.9 -100.75 -292.15 -101.5 M-289.9 -98.25 L-287.9 -95.5 -287.5 -94.75 -287.4 -94.5 -288.75 -93.75 -289.65 -97.15 -289.9 -97.65 -289.9 -98.25" fill="#e80000" fill-opacity="0.9098039" fill-rule="evenodd" stroke="none"/>
    <path d="M-308.9 -126.75 L-309.25 -127.4 -307.25 -133.5 -307.4 -133.9 -306.9 -134.9 -305.4 -139.5 -305.5 -139.75 -305.25 -140.0 -305.15 -140.25 -299.9 -143.75 -299.5 -144.15 -299.25 -143.9 -298.4 -139.65 -298.4 -139.5 -298.5 -139.25 -298.4 -139.15 -299.15 -137.15 -299.0 -137.15 -300.25 -132.4 -300.25 -127.15 -300.4 -126.25 -300.5 -126.15 -298.9 -118.65 -298.9 -118.4 -298.5 -117.0 -297.9 -115.25 -297.75 -115.0 -297.75 -114.9 -294.4 -105.5 -308.9 -126.75" fill="#c30000" fill-rule="evenodd" stroke="none"/>
    <path d="M-298.0 -89.0 L-308.9 -126.75 -294.4 -105.5 -293.0 -102.9 -293.15 -102.75 -292.9 -102.75 -292.75 -102.5 -292.65 -102.4 -292.65 -102.25 -292.5 -102.15 -292.15 -101.65 -292.15 -101.5 -291.9 -100.75 -291.25 -100.4 -290.15 -98.75 -289.9 -98.25 -289.9 -97.65 -289.65 -97.15 -288.75 -93.75 -298.0 -89.0" fill="#fb0000" fill-rule="evenodd" stroke="none"/>
    <path d="M-166.65 -0.9 L-265.65 -0.9 -265.4 -2.25 -265.25 -5.9 -265.15 -6.25 -265.15 -6.65 -264.75 -9.9 -263.75 -28.4 -263.9 -29.4 -272.0 -62.0 -273.15 -66.15 -277.9 -87.65 -279.9 -88.75 -283.5 -92.25 -283.25 -92.65 -283.0 -92.65 -279.9 -95.75 -279.4 -96.4 -276.25 -99.25 -276.15 -99.4 -275.4 -100.15 -275.25 -100.25 -273.25 -102.25 -273.0 -102.75 -270.65 -105.0 -269.65 -105.75 -264.75 -110.65 -264.25 -111.4 -263.75 -111.65 -263.0 -112.25 -262.9 -112.4 -262.65 -112.65 -240.0 -115.4 -205.25 -121.5 -204.5 -121.5 -204.15 -121.4 -203.9 -121.75 -192.75 -123.4 -164.5 -120.5 -164.0 -120.5 -148.75 -118.75 -148.9 -118.4 -149.0 -118.0 -149.25 -117.65 -149.4 -117.5 -150.0 -114.65 -150.65 -113.65 -153.25 -104.75 -153.4 -104.4 -153.5 -104.0 -153.65 -103.65 -153.75 -103.25 -153.9 -102.9 -154.0 -102.5 -154.15 -102.15 -154.5 -100.9 -155.4 -98.25 -155.5 -97.75 -155.65 -97.4 -155.75 -97.0 -155.9 -96.65 -156.0 -96.25 -156.15 -95.9 -156.25 -95.5 -156.4 -95.15 -157.65 -91.25 -157.75 -90.75 -157.9 -90.4 -158.0 -90.0 -158.15 -89.65 -158.25 -89.25 -158.4 -88.9 -158.5 -88.5 -158.65 -88.15 -159.0 -86.9 -159.5 -85.4 -159.9 -84.5 -160.0 -84.5 -160.0 -83.75 -160.15 -83.4 -160.25 -83.0 -160.4 -82.65 -160.5 -82.25 -160.65 -81.9 -160.75 -81.5 -160.9 -81.15 -162.15 -77.25 -162.25 -76.75 -162.4 -76.4 -162.5 -76.0 -162.65 -75.65 -162.75 -75.25 -162.9 -74.9 -163.0 -74.5 -163.15 -74.15 -163.25 -73.75 -164.4 -70.25 -164.5 -69.75 -164.65 -69.4 -164.75 -69.0 -164.9 -68.65 -165.0 -68.25 -165.15 -67.9 -165.25 -67.5 -165.4 -67.15 -166.65 -63.25 -166.75 -62.75 -166.9 -62.4 -167.0 -62.0 -167.15 -61.65 -167.25 -61.25 -167.4 -60.9 -167.5 -60.5 -167.65 -60.15 -168.0 -58.9 -168.4 -57.75 -168.15 -43.9 -167.9 -43.15 -167.5 -26.5 -167.4 -26.25 -167.25 -18.25 -167.0 -17.5 -166.65 -0.9" fill="#a30000" fill-opacity="0.9098039" fill-rule="evenodd" stroke="none"/>
    <path d="M-131.25 -0.9 L-143.75 -0.9 -143.5 -1.4 -143.65 -1.5 -143.65 -3.0 -143.75 -3.4 -143.75 -4.5 -143.9 -5.25 -144.0 -9.15 -144.15 -9.65 -144.15 -11.0 -144.25 -11.4 -144.4 -14.75 -141.9 -43.4 -142.0 -44.65 -141.75 -44.9 -141.9 -45.5 -140.4 -55.65 -132.4 -13.4 -131.25 -0.9" fill="#ed0000" fill-rule="evenodd" stroke="none"/>
    <path d="M-119.4 -99.4 L-119.65 -97.5 -119.5 -97.0 -128.75 -45.0 -129.75 -37.25 -132.0 -26.4 -132.0 -26.25 -132.15 -25.65 -132.15 -25.25 -132.25 -24.9 -132.65 -21.9 -132.5 -18.65 -132.4 -18.0 -132.4 -17.15 -132.0 -14.25 -132.0 -13.65 -130.75 -1.0 -131.25 -0.9 -132.4 -13.4 -140.4 -55.65 -138.65 -68.15 -138.65 -68.5 -125.15 -84.4 -124.4 -86.65 -119.75 -100.0 -119.4 -99.4" fill="#f30000" fill-rule="evenodd" stroke="none"/>
    <path d="M-136.75 -115.75 L-122.5 -112.15 -119.75 -100.65 -119.75 -100.0 -124.4 -86.65 -125.15 -84.4 -138.65 -68.5 -135.65 -88.25 -135.75 -88.65 -134.9 -93.25 -135.15 -94.25 -135.25 -95.0 -135.25 -95.15 -135.4 -95.5 -135.4 -97.5 -136.75 -115.75" fill="#f20000" fill-opacity="0.9098039" fill-rule="evenodd" stroke="none"/>
    <path d="M-119.0 -102.4 L-118.9 -101.75 -119.4 -99.4 -119.75 -100.0 -119.75 -100.65 -119.0 -102.4" fill="#ea0000" fill-rule="evenodd" stroke="none"/>
    <path d="M-129.75 -37.25 L-129.65 -36.75 -132.0 -14.25 -132.4 -17.15 -132.4 -18.0 -132.5 -18.65 -132.65 -21.9 -132.25 -24.9 -132.15 -25.25 -132.15 -25.65 -132.0 -26.25 -132.0 -26.4 -129.75 -37.25" fill="#ff0000" fill-rule="evenodd" stroke="none"/>
    <path d="M-284.9 -91.0 L-285.0 -90.75 -282.65 -77.75 -284.5 -79.75 -288.75 -93.75 -287.4 -94.5 -284.9 -91.0" fill="#ff0000" fill-opacity="0.9098039" fill-rule="evenodd" stroke="none"/>
    <path d="M-283.5 -92.25 L-279.9 -88.75 -277.9 -87.65 -273.15 -66.15 -282.25 -76.9 -282.65 -77.75 -285.0 -90.75 -284.9 -91.0 -283.5 -92.25" fill="#b40000" fill-opacity="0.9098039" fill-rule="evenodd" stroke="none"/>
    <path d="M-273.15 -66.15 L-272.0 -62.0 -280.5 -67.25 -280.75 -67.65 -282.25 -76.9 -273.15 -66.15" fill="#b90000" fill-rule="evenodd" stroke="none"/>
    <path d="M-281.25 -0.9 L-282.75 -0.9 -280.65 -25.0 -296.25 -83.5 -296.65 -84.25 -298.0 -89.0 -288.75 -93.75 -284.5 -79.75 -282.65 -77.75 -282.25 -76.9 -280.75 -67.65 -280.5 -67.25 -276.5 -45.25 -276.4 -42.75 -281.25 -0.9" fill="#fd0000" fill-rule="evenodd" stroke="none"/>
    <path d="M-265.65 -0.9 L-281.25 -0.9 -276.4 -42.75 -276.5 -45.25 -280.5 -67.25 -272.0 -62.0 -263.9 -29.4 -263.75 -28.4 -264.75 -9.9 -265.15 -6.65 -265.15 -6.25 -265.25 -5.9 -265.4 -2.25 -265.65 -0.9" fill="#b80000" fill-rule="evenodd" stroke="none"/>
  </g>
  <defs>
    <radialGradient cx="0" cy="0" gradientTransform="matrix(0.2124, 0.0, 0.0, 0.2124, -150.65, -185.55)" gradientUnits="userSpaceOnUse" id="gradient0" r="819.2" spreadMethod="pad">
      <stop offset="0.0" stop-color="#5b5b5b"/>
      <stop offset="1.0" stop-color="#171717"/>
    </radialGradient>
    <radialGradient cx="0" cy="0" gradientTransform="matrix(0.0293, 0.0, 0.0, 0.0293, -265.4, -300.0)" gradientUnits="userSpaceOnUse" id="gradient1" r="819.2" spreadMethod="pad">
      <stop offset="0.0" stop-color="#767676"/>
      <stop offset="1.0" stop-color="#767676"/>
    </radialGradient>
    <radialGradient cx="0" cy="0" gradientTransform="matrix(0.0038, 0.0, 0.0, 0.0038, -263.55, -294.95)" gradientUnits="userSpaceOnUse" id="gradient2" r="819.2" spreadMethod="pad">
      <stop offset="0.0" stop-color="#838383"/>
      <stop offset="1.0" stop-color="#838383"/>
    </radialGradient>
    <radialGradient cx="0" cy="0" gradientTransform="matrix(0.0374, 0.0, 0.0, 0.0374, -262.35, -292.1)" gradientUnits="userSpaceOnUse" id="gradient3" r="819.2" spreadMethod="pad">
      <stop offset="0.0" stop-color="#767676"/>
      <stop offset="1.0" stop-color="#767676"/>
    </radialGradient>
    <radialGradient cx="0" cy="0" gradientTransform="matrix(0.0023, 0.0, 0.0, 0.0023, -232.45, -298.9)" gradientUnits="userSpaceOnUse" id="gradient4" r="819.2" spreadMethod="pad">
      <stop offset="0.0" stop-color="#dfdfdf"/>
      <stop offset="1.0" stop-color="#dedede"/>
    </radialGradient>
    <radialGradient cx="0" cy="0" gradientTransform="matrix(0.188, 0.0, 0.0, 0.188, -279.15, -226.95)" gradientUnits="userSpaceOnUse" id="gradient5" r="819.2" spreadMethod="pad">
      <stop offset="0.0" stop-color="#7e7e7e"/>
      <stop offset="1.0" stop-color="#010101"/>
    </radialGradient>
    <radialGradient cx="0" cy="0" gradientTransform="matrix(0.1516, 0.0, 0.0, 0.1516, -124.95, -185.05)" gradientUnits="userSpaceOnUse" id="gradient6" r="819.2" spreadMethod="pad">
      <stop offset="0.0" stop-color="#414141"/>
      <stop offset="1.0" stop-color="#1a1a1a"/>
    </radialGradient>
    <radialGradient cx="0" cy="0" gradientTransform="matrix(0.0202, 0.0, 0.0, 0.0202, -137.55, -183.95)" gradientUnits="userSpaceOnUse" id="gradient7" r="819.2" spreadMethod="pad">
      <stop offset="0.0" stop-color="#000000"/>
      <stop offset="1.0" stop-color="#000000"/>
    </radialGradient>
    <radialGradient cx="0" cy="0" gradientTransform="matrix(0.1198, 0.0, 0.0, 0.1198, -277.05, -284.65)" gradientUnits="userSpaceOnUse" id="gradient8" r="819.2" spreadMethod="pad">
      <stop offset="0.0" stop-color="#494949"/>
      <stop offset="1.0" stop-color="#272727"/>
    </radialGradient>
    <radialGradient cx="0" cy="0" gradientTransform="matrix(0.0565, 0.0, 0.0, 0.0565, -234.85, -188.25)" gradientUnits="userSpaceOnUse" id="gradient9" r="819.2" spreadMethod="pad">
      <stop offset="0.0" stop-color="#000000"/>
      <stop offset="1.0" stop-color="#000000"/>
    </radialGradient>
    <radialGradient cx="0" cy="0" gradientTransform="matrix(0.1269, 0.0, 0.0, 0.1269, -243.6, -116.35)" gradientUnits="userSpaceOnUse" id="gradient10" r="819.2" spreadMethod="pad">
      <stop offset="0.0" stop-color="#010101"/>
      <stop offset="1.0" stop-color="#000000"/>
    </radialGradient>
    <radialGradient cx="0" cy="0" gradientTransform="matrix(0.1385, 0.0, 0.0, 0.1385, -250.0, -106.05)" gradientUnits="userSpaceOnUse" id="gradient11" r="819.2" spreadMethod="pad">
      <stop offset="0.0" stop-color="#6a6a6a"/>
      <stop offset="1.0" stop-color="#000000"/>
    </radialGradient>
    <radialGradient cx="0" cy="0" gradientTransform="matrix(0.1152, 0.0, 0.0, 0.1152, -136.85, -116.0)" gradientUnits="userSpaceOnUse" id="gradient12" r="819.2" spreadMethod="pad">
      <stop offset="0.0" stop-color="#3f3f3f"/>
      <stop offset="1.0" stop-color="#000000"/>
    </radialGradient>
    <radialGradient cx="0" cy="0" gradientTransform="matrix(0.0744, 0.0, 0.0, 0.0744, -198.35, -130.75)" gradientUnits="userSpaceOnUse" id="gradient13" r="819.2" spreadMethod="pad">
      <stop offset="0.0" stop-color="#878787"/>
      <stop offset="1.0" stop-color="#090909"/>
    </radialGradient>
    <radialGradient cx="0" cy="0" gradientTransform="matrix(0.1581, 0.0, 0.0, 0.1581, -250.0, -106.05)" gradientUnits="userSpaceOnUse" id="gradient14" r="819.2" spreadMethod="pad">
      <stop offset="0.0" stop-color="#6a6a6a"/>
      <stop offset="1.0" stop-color="#000000"/>
    </radialGradient>
    <radialGradient cx="0" cy="0" gradientTransform="matrix(0.0779, 0.0, 0.0, 0.0779, -266.1, -122.65)" gradientUnits="userSpaceOnUse" id="gradient15" r="819.2" spreadMethod="pad">
      <stop offset="0.0" stop-color="#858585"/>
      <stop offset="1.0" stop-color="#000000"/>
    </radialGradient>
    <radialGradient cx="0" cy="0" gradientTransform="matrix(0.043, 0.0, 0.0, 0.043, -259.1, -162.7)" gradientUnits="userSpaceOnUse" id="gradient16" r="819.2" spreadMethod="pad">
      <stop offset="0.0" stop-color="#000000"/>
      <stop offset="1.0" stop-color="#000000"/>
    </radialGradient>
    <radialGradient cx="0" cy="0" gradientTransform="matrix(0.0377, 0.0, 0.0, 0.0377, -209.1, -269.25)" gradientUnits="userSpaceOnUse" id="gradient17" r="819.2" spreadMethod="pad">
      <stop offset="0.0" stop-color="#ff5151"/>
      <stop offset="1.0" stop-color="#330000"/>
    </radialGradient>
    <radialGradient cx="0" cy="0" gradientTransform="matrix(0.0361, 0.0, 0.0, 0.0361, -208.55, -269.1)" gradientUnits="userSpaceOnUse" id="gradient18" r="819.2" spreadMethod="pad">
      <stop offset="0.0" stop-color="#ff5151"/>
      <stop offset="1.0" stop-color="#ff4c4c"/>
    </radialGradient>
    <radialGradient cx="0" cy="0" gradientTransform="matrix(0.0388, 0.0, 0.0, 0.0388, -207.7, -263.35)" gradientUnits="userSpaceOnUse" id="gradient19" r="819.2" spreadMethod="pad">
      <stop offset="0.0" stop-color="#f89797"/>
      <stop offset="1.0" stop-color="#410000"/>
    </radialGradient>
    <radialGradient cx="0" cy="0" gradientTransform="matrix(0.0284, 0.0, 0.0, 0.0284, -215.3, -259.2)" gradientUnits="userSpaceOnUse" id="gradient20" r="819.2" spreadMethod="pad">
      <stop offset="0.0" stop-color="#ff3030"/>
      <stop offset="1.0" stop-color="#ff2d2d"/>
    </radialGradient>
    <radialGradient cx="0" cy="0" gradientTransform="matrix(0.0777, 0.0, 0.0, 0.0777, -131.9, -161.9)" gradientUnits="userSpaceOnUse" id="gradient21" r="819.2" spreadMethod="pad">
      <stop offset="0.0" stop-color="#595959"/>
      <stop offset="1.0" stop-color="#000000"/>
    </radialGradient>
    <radialGradient cx="0" cy="0" gradientTransform="matrix(0.1093, 0.0, 0.0, 0.1093, -106.35, -164.15)" gradientUnits="userSpaceOnUse" id="gradient22" r="819.2" spreadMethod="pad">
      <stop offset="0.0" stop-color="#616161"/>
      <stop offset="1.0" stop-color="#000000"/>
    </radialGradient>
    <radialGradient cx="0" cy="0" gradientTransform="matrix(0.037, 0.0, 0.0, 0.037, -283.85, -186.75)" gradientUnits="userSpaceOnUse" id="gradient23" r="819.2" spreadMethod="pad">
      <stop offset="0.0" stop-color="#191919"/>
      <stop offset="1.0" stop-color="#0d0d0d"/>
    </radialGradient>
    <radialGradient cx="0" cy="0" gradientTransform="matrix(0.064, 0.0, 0.0, 0.064, -17.1, -170.95)" gradientUnits="userSpaceOnUse" id="gradient24" r="819.2" spreadMethod="pad">
      <stop offset="0.0" stop-color="#000000"/>
      <stop offset="1.0" stop-color="#000000"/>
    </radialGradient>
    <radialGradient cx="0" cy="0" gradientTransform="matrix(0.0478, 0.0, 0.0, 0.0478, -39.9, -123.75)" gradientUnits="userSpaceOnUse" id="gradient25" r="819.2" spreadMethod="pad">
      <stop offset="0.0" stop-color="#000000"/>
      <stop offset="1.0" stop-color="#000000"/>
    </radialGradient>
    <radialGradient cx="0" cy="0" gradientTransform="matrix(0.1016, 0.0, 0.0, 0.1016, -39.9, -123.75)" gradientUnits="userSpaceOnUse" id="gradient26" r="819.2" spreadMethod="pad">
      <stop offset="0.0" stop-color="#000000"/>
      <stop offset="1.0" stop-color="#000000"/>
    </radialGradient>
    <radialGradient cx="0" cy="0" gradientTransform="matrix(0.0473, 0.0, 0.0, 0.0473, -131.9, -161.9)" gradientUnits="userSpaceOnUse" id="gradient27" r="819.2" spreadMethod="pad">
      <stop offset="0.0" stop-color="#595959"/>
      <stop offset="1.0" stop-color="#070707"/>
    </radialGradient>
    <radialGradient cx="0" cy="0" gradientTransform="matrix(0.1008, 0.0, 0.0, 0.1008, -329.6, -93.6)" gradientUnits="userSpaceOnUse" id="gradient28" r="819.2" spreadMethod="pad">
      <stop offset="0.0" stop-color="#6a6a6a"/>
      <stop offset="1.0" stop-color="#000000"/>
    </radialGradient>
    <radialGradient cx="0" cy="0" gradientTransform="matrix(0.0899, 0.0, 0.0, 0.0899, -273.9, -109.7)" gradientUnits="userSpaceOnUse" id="gradient29" r="819.2" spreadMethod="pad">
      <stop offset="0.0" stop-color="#2f2f2f"/>
      <stop offset="1.0" stop-color="#000000"/>
    </radialGradient>
    <radialGradient cx="0" cy="0" gradientTransform="matrix(0.0299, 0.0, 0.0, 0.0299, -355.85, -66.7)" gradientUnits="userSpaceOnUse" id="gradient30" r="819.2" spreadMethod="pad">
      <stop offset="0.0" stop-color="#010101"/>
      <stop offset="1.0" stop-color="#000000"/>
    </radialGradient>
    <radialGradient cx="0" cy="0" gradientTransform="matrix(0.1156, 0.0, 0.0, 0.1156, -297.6, -134.75)" gradientUnits="userSpaceOnUse" id="gradient31" r="819.2" spreadMethod="pad">
      <stop offset="0.0" stop-color="#575757"/>
      <stop offset="1.0" stop-color="#000000"/>
    </radialGradient>
    <radialGradient cx="0" cy="0" gradientTransform="matrix(0.0441, 0.0, 0.0, 0.0441, -326.45, -125.65)" gradientUnits="userSpaceOnUse" id="gradient32" r="819.2" spreadMethod="pad">
      <stop offset="0.0" stop-color="#000000"/>
      <stop offset="1.0" stop-color="#000000"/>
    </radialGradient>
    <radialGradient cx="0" cy="0" gradientTransform="matrix(0.073, 0.0, 0.0, 0.073, -387.15, -30.45)" gradientUnits="userSpaceOnUse" id="gradient33" r="819.2" spreadMethod="pad">
      <stop offset="0.0" stop-color="#393939"/>
      <stop offset="1.0" stop-color="#000000"/>
    </radialGradient>
    <radialGradient cx="0" cy="0" gradientTransform="matrix(0.0706, 0.0, 0.0, 0.0706, -362.3, -1.0)" gradientUnits="userSpaceOnUse" id="gradient34" r="819.2" spreadMethod="pad">
      <stop offset="0.0" stop-color="#464646"/>
      <stop offset="1.0" stop-color="#292929"/>
    </radialGradient>
    <radialGradient cx="0" cy="0" gradientTransform="matrix(0.0582, 0.0, 0.0, 0.0582, -362.3, -1.0)" gradientUnits="userSpaceOnUse" id="gradient35" r="819.2" spreadMethod="pad">
      <stop offset="0.0" stop-color="#464646"/>
      <stop offset="1.0" stop-color="#000000"/>
    </radialGradient>
    <radialGradient cx="0" cy="0" gradientTransform="matrix(0.0578, 0.0, 0.0, 0.0578, -341.55, -21.5)" gradientUnits="userSpaceOnUse" id="gradient36" r="819.2" spreadMethod="pad">
      <stop offset="0.0" stop-color="#292929"/>
      <stop offset="1.0" stop-color="#010101"/>
    </radialGradient>
    <radialGradient cx="0" cy="0" gradientTransform="matrix(0.1295, 0.0, 0.0, 0.1295, -143.7, -1.0)" gradientUnits="userSpaceOnUse" id="gradient37" r="819.2" spreadMethod="pad">
      <stop offset="0.0" stop-color="#3a3a3a"/>
      <stop offset="1.0" stop-color="#080808"/>
    </radialGradient>
    <radialGradient cx="0" cy="0" gradientTransform="matrix(0.051, 0.0, 0.0, 0.051, -276.95, -82.7)" gradientUnits="userSpaceOnUse" id="gradient38" r="819.2" spreadMethod="pad">
      <stop offset="0.0" stop-color="#626262"/>
      <stop offset="1.0" stop-color="#373737"/>
    </radialGradient>
    <radialGradient cx="0" cy="0" gradientTransform="matrix(0.073, 0.0, 0.0, 0.073, -263.65, -27.95)" gradientUnits="userSpaceOnUse" id="gradient39" r="819.2" spreadMethod="pad">
      <stop offset="0.0" stop-color="#838383"/>
      <stop offset="1.0" stop-color="#323232"/>
    </radialGradient>
  </defs>
</svg>
