<?xml version="1.0" encoding="UTF-8" standalone="no"?>
<svg xmlns:xlink="http://www.w3.org/1999/xlink" height="299.15px" width="398.75px" xmlns="http://www.w3.org/2000/svg">
  <g transform="matrix(1.0, 0.0, 0.0, 1.0, 399.65, 300.05)">
    <path d="M-279.4 -201.5 L-279.9 -202.15 -278.4 -206.75 -287.4 -219.9 -279.25 -217.15 -286.0 -229.15 -286.4 -229.25 -286.65 -245.15 -291.25 -254.15 -291.65 -254.25 -290.9 -261.75 -290.65 -272.75 -285.25 -288.5 -285.25 -289.5 -284.65 -290.65 -282.25 -300.0 -272.65 -300.0 -269.15 -295.5 -272.0 -286.75 -271.9 -286.25 -272.25 -285.9 -274.5 -277.5 -274.65 -277.15 -278.5 -262.5 -278.5 -252.5 -275.15 -238.0 -275.0 -237.75 -273.15 -229.4 -269.9 -219.65 -264.65 -212.4 -257.0 -203.0 -256.9 -202.75 -251.5 -196.15 -249.9 -194.9 -256.0 -194.5 -266.25 -190.75 -269.5 -193.9 -277.65 -200.5 -279.4 -201.5 M-266.5 -300.0 L-265.75 -300.0 -266.5 -299.5 -266.5 -300.0 M-122.25 -254.75 L-122.15 -258.4 -120.0 -256.25 -122.25 -254.75 M-127.15 -225.9 L-127.4 -222.75 -133.15 -206.75 -137.75 -207.65 -127.15 -225.9" fill="url(#gradient0)" fill-rule="evenodd" stroke="none"/>
    <path d="M-272.65 -300.0 L-266.5 -300.0 -266.5 -299.5 -266.65 -293.0 -269.15 -295.5 -272.65 -300.0" fill="url(#gradient1)" fill-rule="evenodd" stroke="none"/>
    <path d="M-265.75 -300.0 L-154.75 -300.0 -139.15 -278.5 -133.25 -248.65 -132.9 -249.0 -129.4 -266.9 -122.15 -258.4 -122.25 -254.75 -133.15 -248.15 -124.65 -242.25 -124.4 -241.75 -127.0 -226.4 -127.15 -226.0 -127.15 -225.9 -137.75 -207.65 -139.15 -207.75 -176.75 -213.75 -181.0 -214.75 -192.0 -223.0 -225.9 -216.5 -231.25 -205.15 -231.5 -204.9 -233.9 -202.9 -234.15 -202.75 -247.15 -195.0 -249.9 -194.9 -251.5 -196.15 -256.9 -202.75 -257.0 -203.0 -264.65 -212.4 -269.9 -219.65 -273.15 -229.4 -275.0 -237.75 -275.15 -238.0 -278.5 -252.5 -278.5 -262.5 -274.65 -277.15 -274.5 -277.5 -272.25 -285.9 -271.9 -286.25 -272.0 -286.75 -269.15 -295.5 -266.65 -293.0 -266.5 -299.5 -265.75 -300.0 M-232.15 -280.0 L-235.0 -278.0 -234.5 -277.9 -201.15 -285.65 -210.5 -288.0 -213.4 -288.0 -216.25 -287.25 -219.5 -285.5 -224.15 -285.4 -227.0 -284.25 -231.1 -280.85 -232.15 -280.0 M-234.9 -276.15 L-235.4 -275.65 -233.9 -274.65 -229.9 -273.5 -226.5 -273.0 -219.4 -272.75 Q-203.25 -278.0 -200.25 -283.9 L-234.9 -276.15" fill="url(#gradient2)" fill-rule="evenodd" stroke="none"/>
    <path d="M-273.0 -105.5 L-275.0 -106.65 -280.65 -112.15 -287.75 -119.75 -287.9 -120.65 -290.25 -124.5 -294.0 -135.9 -295.65 -142.9 -295.5 -150.65 -291.5 -164.25 Q-291.4 -174.65 -270.25 -189.15 L-266.25 -190.75 -256.0 -194.5 -249.9 -194.9 -247.15 -195.0 -242.65 -195.25 -240.25 -194.9 -228.65 -192.0 -224.65 -189.5 -224.25 -186.65 -228.15 -183.15 -226.9 -175.5 Q-227.9 -167.75 -235.0 -159.65 L-236.5 -150.25 -241.9 -140.75 -246.25 -136.65 Q-248.25 -130.9 -251.75 -128.25 L-252.25 -121.9 -255.4 -113.75 -256.65 -111.9 -260.25 -108.4 -263.25 -107.25 -263.15 -106.75 -263.9 -105.15 -264.4 -104.15 -265.25 -103.5 -267.5 -102.9 -273.0 -105.5" fill="url(#gradient3)" fill-rule="evenodd" stroke="none"/>
    <path d="M-234.15 -202.75 L-234.0 -202.4 -242.65 -195.25 -247.15 -195.0 -234.15 -202.75" fill="url(#gradient4)" fill-rule="evenodd" stroke="none"/>
    <path d="M-234.0 -202.4 L-232.9 -202.5 -240.25 -194.9 -242.65 -195.25 -234.0 -202.4" fill="url(#gradient5)" fill-rule="evenodd" stroke="none"/>
    <path d="M-234.15 -202.75 L-233.9 -202.9 -231.5 -204.9 -231.65 -204.5 -232.25 -202.9 -232.9 -202.5 -234.0 -202.4 -234.15 -202.75 M-181.0 -214.75 L-176.75 -213.75 -177.9 -213.65 -178.25 -213.15 -179.25 -213.25 -181.0 -214.75" fill="url(#gradient6)" fill-rule="evenodd" stroke="none"/>
    <path d="M-232.9 -202.5 L-232.25 -202.9 -231.65 -204.5 -231.25 -205.15 -225.9 -216.5 -192.0 -223.0 -181.0 -214.75 -179.25 -213.25 -166.75 -201.5 -179.25 -204.65 -193.4 -204.0 -209.75 -197.75 -216.0 -192.5 -216.5 -192.0 -219.0 -190.0 -221.75 -186.65 -221.25 -184.25 Q-222.65 -183.75 -224.5 -175.0 L-223.25 -167.75 -219.25 -162.5 Q-220.25 -161.15 -216.0 -151.25 L-208.75 -143.5 -204.15 -141.15 -191.15 -139.5 -180.75 -131.25 -178.5 -130.15 -190.25 -133.4 -191.4 -133.4 -245.15 -124.75 -255.4 -113.75 -252.25 -121.9 -251.75 -128.25 Q-248.25 -130.9 -246.25 -136.65 L-241.9 -140.75 -236.5 -150.25 -235.0 -159.65 Q-227.9 -167.75 -226.9 -175.5 L-228.15 -183.15 -224.25 -186.65 -224.65 -189.5 -228.65 -192.0 -240.25 -194.9 -232.9 -202.5 M-260.25 -108.4 L-262.65 -105.65 -263.15 -106.75 -263.25 -107.25 -260.25 -108.4 M-158.25 -124.25 L-164.9 -126.25 -160.15 -126.5 -157.75 -128.0 -158.25 -124.25" fill="url(#gradient7)" fill-rule="evenodd" stroke="none"/>
    <path d="M-231.65 -204.5 L-231.5 -204.9 -231.25 -205.15 -231.65 -204.5" fill="url(#gradient8)" fill-rule="evenodd" stroke="none"/>
    <path d="M-132.75 -143.5 L-130.0 -112.15 -133.25 -123.5 -158.25 -124.25 -157.75 -128.0 Q-156.4 -127.25 -153.65 -127.65 L-147.9 -130.4 -141.75 -137.15 -141.0 -138.65 -140.9 -139.0 -137.9 -139.15 Q-135.75 -140.5 -135.15 -143.4 L-134.75 -157.75 -133.75 -154.65 -132.75 -143.5 M-179.25 -213.25 L-178.25 -213.15 -140.0 -191.5 -138.0 -173.9 -146.65 -188.15 -151.0 -192.4 -163.25 -200.25 -166.75 -201.5 -179.25 -213.25" fill="url(#gradient9)" fill-rule="evenodd" stroke="none"/>
    <path d="M-178.5 -130.15 L-180.75 -131.25 -191.15 -139.5 -204.15 -141.15 -208.75 -143.5 -216.0 -151.25 Q-220.25 -161.15 -219.25 -162.5 L-223.25 -167.75 -224.5 -175.0 Q-222.65 -183.75 -221.25 -184.25 L-221.75 -186.65 -219.0 -190.0 -216.5 -192.0 -216.0 -192.5 -209.75 -197.75 -193.4 -204.0 -179.25 -204.65 -166.75 -201.5 -163.25 -200.25 -151.0 -192.4 -146.65 -188.15 -138.0 -173.9 -137.9 -173.25 -136.25 -170.25 -135.9 -168.65 -134.75 -163.25 -134.9 -158.15 -134.75 -157.75 -135.15 -143.4 Q-135.75 -140.5 -137.9 -139.15 L-140.9 -139.0 -141.0 -138.65 -141.75 -137.15 -147.9 -130.4 -153.65 -127.65 Q-156.4 -127.25 -157.75 -128.0 L-160.15 -126.5 -164.9 -126.25 -166.5 -126.25 -172.75 -127.75 -178.5 -130.15" fill="url(#gradient10)" fill-rule="evenodd" stroke="none"/>
    <path d="M-167.9 -0.9 L-184.15 -0.9 -191.0 -2.9 -208.15 -0.9 -260.4 -0.9 -255.0 -63.65 -262.65 -105.65 -260.25 -108.4 -256.65 -111.9 -255.4 -113.75 -245.15 -124.75 -191.4 -133.4 -190.25 -133.4 -178.5 -130.15 -172.75 -127.75 -166.5 -126.25 -164.9 -126.25 -158.25 -124.25 -170.15 -75.0 -169.15 -50.4 -167.9 -0.9" fill="url(#gradient11)" fill-rule="evenodd" stroke="none"/>
    <path d="M-154.75 -300.0 L-113.15 -300.0 Q-112.15 -300.0 -109.9 -294.75 L-104.65 -276.5 -102.9 -255.9 -105.15 -236.65 -111.15 -218.0 -118.9 -204.15 -133.15 -206.75 -127.4 -222.75 -127.15 -225.9 -127.15 -226.0 -127.0 -226.4 -124.4 -241.75 -124.65 -242.25 -133.15 -248.15 -122.25 -254.75 -120.0 -256.25 -122.15 -258.4 -129.4 -266.9 -132.9 -249.0 -133.25 -248.65 -139.15 -278.5 -154.75 -300.0" fill="url(#gradient12)" fill-rule="evenodd" stroke="none"/>
    <path d="M-116.75 -203.65 L-133.0 -201.5 -139.15 -207.75 -137.75 -207.65 -133.15 -206.75 -118.9 -204.15 -116.75 -203.65" fill="url(#gradient13)" fill-rule="evenodd" stroke="none"/>
    <path d="M-231.1 -280.85 L-227.0 -284.25 -224.15 -285.4 -219.5 -285.5 -216.25 -287.25 -213.4 -288.0 -210.5 -288.0 -201.15 -285.65 -234.5 -277.9 -235.0 -278.0 -232.15 -280.0 -233.5 -278.9 -232.4 -279.0 -203.25 -285.9 -210.9 -287.75 -213.5 -287.75 -216.9 -286.75 -219.25 -285.4 -223.65 -285.25 -225.4 -284.75 -227.9 -283.4 -231.1 -280.85" fill="url(#gradient14)" fill-rule="evenodd" stroke="none"/>
    <path d="M-231.1 -280.85 L-227.9 -283.4 -225.4 -284.75 -223.65 -285.25 -219.25 -285.4 -216.9 -286.75 -213.5 -287.75 -210.9 -287.75 -203.25 -285.9 -232.4 -279.0 -233.5 -278.9 -232.15 -280.0 -231.1 -280.85" fill="url(#gradient15)" fill-rule="evenodd" stroke="none"/>
    <path d="M-234.9 -276.15 L-200.25 -283.9 Q-203.25 -278.0 -219.4 -272.75 L-226.5 -273.0 -229.9 -273.5 -233.9 -274.65 -235.4 -275.65 -234.9 -276.15 M-234.9 -275.9 Q-229.9 -273.25 -219.9 -273.4 -209.75 -275.15 -201.65 -283.4 L-234.9 -275.9" fill="url(#gradient16)" fill-rule="evenodd" stroke="none"/>
    <path d="M-234.9 -275.9 L-201.65 -283.4 Q-209.75 -275.15 -219.9 -273.4 -229.9 -273.25 -234.9 -275.9" fill="url(#gradient17)" fill-rule="evenodd" stroke="none"/>
    <path d="M-133.0 -201.5 L-128.4 -184.65 Q-127.0 -180.25 -127.4 -179.65 L-135.9 -168.65 -136.25 -170.25 -137.9 -173.25 -138.0 -173.9 -140.0 -191.5 -178.25 -213.15 -177.9 -213.65 -176.75 -213.75 -139.15 -207.75 -133.0 -201.5" fill="url(#gradient18)" fill-rule="evenodd" stroke="none"/>
    <path d="M-12.0 -190.0 L-23.9 -170.65 -34.9 -142.65 -52.0 -142.0 -69.9 -144.5 -93.0 -150.15 -117.5 -152.5 -117.9 -152.5 -127.4 -179.65 Q-127.0 -180.25 -128.4 -184.65 L-133.0 -201.5 -116.75 -203.65 -81.75 -198.15 -54.9 -195.65 -12.0 -190.0" fill="url(#gradient19)" fill-rule="evenodd" stroke="none"/>
    <path d="M-279.9 -202.15 Q-295.0 -221.0 -297.65 -252.15 L-297.15 -264.4 -295.5 -279.15 -287.65 -299.65 -282.25 -300.0 -284.65 -290.65 -285.25 -289.5 -285.25 -288.5 -290.65 -272.75 -290.9 -261.75 -291.65 -254.25 -291.25 -254.15 -286.65 -245.15 -286.4 -229.25 -286.0 -229.15 -279.25 -217.15 -287.4 -219.9 -278.4 -206.75 -279.9 -202.15" fill="url(#gradient20)" fill-rule="evenodd" stroke="none"/>
    <path d="M-270.25 -189.15 L-271.9 -190.65 -279.4 -201.5 -277.65 -200.5 -269.5 -193.9 -266.25 -190.75 -270.25 -189.15" fill="url(#gradient21)" fill-rule="evenodd" stroke="none"/>
    <path d="M-34.9 -142.65 L-23.9 -170.65 -12.0 -190.0 -0.9 -190.75 -0.9 -141.25 -4.9 -141.4 -34.5 -142.65 -34.9 -142.65" fill="url(#gradient22)" fill-rule="evenodd" stroke="none"/>
    <path d="M-34.5 -142.65 L-4.9 -141.4 -15.15 -136.65 -34.5 -142.65" fill="url(#gradient23)" fill-rule="evenodd" stroke="none"/>
    <path d="M-34.9 -142.65 L-34.5 -142.65 -15.15 -136.65 -57.65 -130.25 -82.9 -139.0 -112.5 -150.5 -117.5 -152.5 -93.0 -150.15 -69.9 -144.5 -52.0 -142.0 -34.9 -142.65" fill="url(#gradient24)" fill-rule="evenodd" stroke="none"/>
    <path d="M-127.4 -179.65 L-117.9 -152.5 -117.5 -152.5 -112.5 -150.5 -132.75 -143.5 -133.75 -154.65 -134.75 -157.75 -134.9 -158.15 -134.75 -163.25 -135.9 -168.65 -127.4 -179.65" fill="url(#gradient25)" fill-rule="evenodd" stroke="none"/>
    <path d="M-130.0 -112.15 L-136.5 -67.0 -139.15 -33.4 -136.65 -0.9 -167.9 -0.9 -169.15 -50.4 -170.15 -75.0 -158.25 -124.25 -133.25 -123.5 -130.0 -112.15" fill="url(#gradient26)" fill-rule="evenodd" stroke="none"/>
    <path d="M-184.15 -0.9 L-208.15 -0.9 -191.0 -2.9 -184.15 -0.9" fill="url(#gradient27)" fill-rule="evenodd" stroke="none"/>
    <path d="M-260.4 -0.9 L-261.9 -0.9 -259.15 -29.65 -258.4 -47.75 -272.0 -100.25 -267.5 -102.9 -265.25 -103.5 -264.4 -104.15 -263.9 -105.15 -262.65 -105.65 -255.0 -63.65 -260.4 -0.9" fill="url(#gradient28)" fill-rule="evenodd" stroke="none"/>
    <path d="M-376.0 -106.15 L-351.65 -120.9 -295.65 -159.75 -291.5 -164.25 -295.5 -150.65 -295.65 -142.9 -294.0 -135.9 -290.25 -124.5 -287.9 -120.65 -287.75 -119.75 -290.65 -118.9 -328.65 -91.4 -330.65 -86.65 -350.5 -83.5 -368.5 -100.65 -376.0 -106.15" fill="url(#gradient29)" fill-rule="evenodd" stroke="none"/>
    <path d="M-398.65 -75.0 L-396.15 -83.15 -376.0 -106.15 -368.5 -100.65 -350.5 -83.5 -350.4 -82.75 -350.25 -82.5 -350.25 -82.25 -349.0 -68.25 -343.25 -58.75 -368.9 -59.0 -381.25 -47.9 -381.9 -48.15 -381.9 -48.5 -395.9 -63.25 -398.65 -75.0" fill="url(#gradient30)" fill-rule="evenodd" stroke="none"/>
    <path d="M-396.9 -57.65 L-399.5 -68.75 Q-400.0 -69.5 -398.65 -75.0 L-395.9 -63.25 -396.9 -57.65" fill="url(#gradient31)" fill-rule="evenodd" stroke="none"/>
    <path d="M-339.25 -0.9 L-350.0 -0.9 -364.25 -16.0 -383.9 -41.5 -396.5 -56.5 -396.9 -57.65 -395.9 -63.25 -381.9 -48.5 -381.9 -48.15 -381.25 -47.9 -370.25 -36.4 -357.9 -20.9 -340.9 -2.25 -339.25 -0.9" fill="url(#gradient32)" fill-rule="evenodd" stroke="none"/>
    <path d="M-280.65 -112.15 L-282.5 -110.75 -309.75 -96.65 -326.5 -86.25 -330.65 -86.65 -328.65 -91.4 -290.65 -118.9 -287.75 -119.75 -280.65 -112.15" fill="url(#gradient33)" fill-rule="evenodd" stroke="none"/>
    <path d="M-326.5 -86.25 L-343.0 -65.4 -350.15 -82.25 -350.25 -82.25 -350.25 -82.5 -350.4 -82.75 -350.5 -83.5 -330.65 -86.65 -326.5 -86.25" fill="url(#gradient34)" fill-rule="evenodd" stroke="none"/>
    <path d="M-272.0 -100.25 L-273.0 -105.5 -267.5 -102.9 -272.0 -100.25 M-263.9 -105.15 L-263.15 -106.75 -262.65 -105.65 -263.9 -105.15" fill="url(#gradient35)" fill-rule="evenodd" stroke="none"/>
    <path d="M-343.0 -65.4 L-338.15 -53.15 -342.15 -57.75 -343.25 -58.75 -349.0 -68.25 -350.25 -82.25 -350.15 -82.25 -343.0 -65.4" fill="url(#gradient36)" fill-rule="evenodd" stroke="none"/>
    <path d="M-338.15 -53.15 L-316.75 -28.65 -308.9 -20.25 -298.25 -6.75 -300.25 -5.75 -307.25 -2.5 Q-307.65 -4.65 -314.75 -4.5 L-320.75 -3.5 -323.75 -0.9 -339.25 -0.9 -340.9 -2.25 -357.9 -20.9 -370.25 -36.4 -381.25 -47.9 -368.9 -59.0 -343.25 -58.75 -342.15 -57.75 -338.15 -53.15" fill="url(#gradient37)" fill-rule="evenodd" stroke="none"/>
    <path d="M-298.25 -6.75 L-297.15 -4.15 -296.65 -2.5 -297.15 -2.75 -300.25 -5.75 -298.25 -6.75" fill="url(#gradient38)" fill-rule="evenodd" stroke="none"/>
    <path d="M-297.15 -4.15 Q-293.15 -1.75 -293.15 -0.9 L-323.75 -0.9 -320.75 -3.5 -314.75 -4.5 Q-307.65 -4.65 -307.25 -2.5 L-300.25 -5.75 -297.15 -2.75 -296.65 -2.5 -297.15 -4.15" fill="url(#gradient39)" fill-rule="evenodd" stroke="none"/>
    <path d="M-246.4 -212.25 L-241.9 -213.0 -241.75 -213.0 -241.25 -213.15 -239.9 -213.4 -236.4 -209.15 -235.9 -208.65 -232.9 -205.15 -232.65 -204.5 -232.25 -204.4 -232.65 -204.15 -232.65 -204.0 -233.9 -202.9 -237.9 -200.65 -246.75 -210.65 -246.9 -211.0 -246.65 -211.75 -246.4 -212.25 M-182.75 -199.4 L-181.75 -203.65 -181.65 -204.4 -181.5 -204.5 -180.5 -209.0 -177.15 -211.15 -176.0 -211.75 -175.75 -213.0 -175.75 -213.5 -176.75 -213.65 -179.65 -214.5 -181.9 -222.9 -182.0 -223.5 -180.75 -223.75 -180.65 -223.75 -175.9 -225.0 -175.75 -217.75 -175.9 -217.5 -175.75 -213.5 -171.0 -212.9 -170.9 -214.5 -171.15 -215.25 -171.15 -221.9 -171.0 -222.25 -171.0 -225.5 -168.15 -226.9 -167.65 -226.9 -167.5 -225.75 -167.65 -225.5 -166.75 -213.5 -169.25 -212.5 -169.75 -212.4 -169.5 -212.15 -140.5 -199.15 -182.25 -199.5 -182.75 -199.4" fill="#9b0000" fill-opacity="0.9098039" fill-rule="evenodd" stroke="none"/>
    <path d="M-273.5 -177.0 L-264.0 -171.65 -228.5 -152.25 -227.9 -152.4 -221.5 -157.4 -221.4 -157.65 -215.15 -162.25 -214.75 -162.9 -213.5 -163.65 -210.65 -166.0 -209.9 -166.4 -188.5 -183.0 -188.15 -184.25 -187.9 -184.5 -182.75 -199.4 -182.25 -199.5 -140.5 -199.15 -140.25 -198.5 -139.75 -192.25 -139.75 -190.75 -139.65 -190.15 -139.65 -189.5 -139.5 -189.15 -138.25 -177.15 -138.65 -175.15 -138.75 -175.15 -138.75 -174.65 -138.65 -174.0 -138.75 -173.5 -139.0 -172.75 -139.0 -171.75 -139.25 -170.75 -139.25 -170.0 -139.65 -167.25 -139.9 -166.25 -140.0 -166.25 -139.9 -166.0 -139.9 -165.5 -140.0 -164.65 -140.25 -164.15 -140.15 -163.5 -141.0 -157.65 -141.0 -157.5 -141.4 -154.9 -141.65 -154.65 -141.5 -154.0 -142.15 -149.5 -142.4 -148.9 -142.25 -148.65 -143.0 -143.25 -143.25 -142.9 -143.15 -142.4 -143.5 -140.25 -143.5 -139.75 -143.75 -138.25 -187.5 -142.9 -200.25 -140.75 -201.0 -140.75 -234.15 -134.65 -257.65 -131.5 -259.0 -130.15 -259.25 -130.15 -259.4 -129.75 -259.65 -129.4 -260.0 -129.15 -265.4 -123.65 -265.65 -123.5 -265.75 -123.25 -269.0 -120.0 -269.15 -119.9 -273.75 -115.15 -277.65 -111.25 -277.9 -111.15 -277.9 -111.0 -278.4 -110.65 -278.75 -110.25 -280.65 -112.15 -281.5 -111.5 -288.0 -120.75 -288.0 -121.25 -288.15 -121.65 -288.5 -122.0 -288.75 -122.0 -290.5 -124.9 -290.65 -125.25 -293.0 -133.0 -293.0 -133.15 -293.15 -133.25 -293.25 -134.25 -293.4 -134.4 -293.5 -134.65 -293.65 -134.9 -294.0 -136.25 -294.0 -136.5 -294.65 -138.5 -295.65 -144.0 -295.5 -144.75 -295.5 -150.4 -294.65 -153.65 -294.75 -153.65 -293.75 -156.65 -293.75 -157.0 -294.5 -160.25 -294.75 -160.75 -294.65 -161.0 -294.65 -161.15 -291.5 -164.25 -289.5 -170.15 -287.5 -173.4 -286.25 -173.65 -285.9 -173.9 -285.25 -173.9 -284.9 -174.15 -282.9 -174.5 -282.65 -174.75 -275.65 -176.4 -275.15 -176.65 -273.5 -177.0 M-177.65 -171.15 L-177.15 -169.9 -177.0 -168.75 -176.75 -168.75 -175.75 -170.25 -175.5 -170.75 -175.5 -171.4 -176.75 -172.9 -176.9 -172.65 -177.5 -172.0 -177.75 -171.65 -177.65 -171.15 M-276.9 -146.75 L-278.65 -151.5 -277.65 -146.5 -277.5 -146.25 -277.25 -146.15 -276.9 -146.75" fill="#b00000" fill-opacity="0.9098039" fill-rule="evenodd" stroke="none"/>
    <path d="M-175.9 -225.0 L-168.15 -226.9 -171.0 -225.5 -171.0 -222.25 -171.15 -221.9 -171.15 -215.25 -170.9 -214.5 -171.0 -212.9 -175.75 -213.5 -175.9 -217.5 -175.75 -217.75 -175.9 -225.0" fill="#a90000" fill-rule="evenodd" stroke="none"/>
    <path d="M-246.75 -210.65 L-248.5 -206.25 -248.4 -205.9 -250.0 -200.75 -250.65 -199.15 -250.65 -198.75 -251.25 -198.4 -258.4 -196.5 -258.65 -196.25 -266.15 -194.25 -266.65 -193.4 -266.65 -192.9 -267.25 -191.5 -267.65 -191.0 -267.65 -190.65 -267.75 -190.25 -267.9 -190.0 -268.0 -190.0 -268.5 -188.65 -268.65 -188.4 -269.0 -187.5 -269.15 -187.25 -270.0 -185.0 -270.25 -184.65 -271.15 -182.5 -271.4 -182.25 -271.25 -182.0 -272.75 -178.5 -273.15 -178.0 -273.5 -177.0 -275.15 -176.65 -275.65 -176.4 -282.65 -174.75 -282.9 -174.5 -284.9 -174.15 -285.25 -173.9 -285.9 -173.9 -286.25 -173.65 -287.5 -173.4 -286.15 -175.65 -275.65 -185.0 -275.65 -185.15 -272.75 -187.9 -270.25 -189.15 -271.75 -190.65 -273.5 -192.9 -267.0 -194.5 -265.5 -195.0 -259.25 -196.5 -257.25 -201.9 -257.15 -202.0 -257.15 -202.15 -257.25 -202.15 -257.25 -202.65 -257.0 -202.75 -257.0 -203.0 -256.0 -205.65 -256.0 -205.75 -254.25 -210.75 -252.9 -211.0 -252.65 -211.0 -252.25 -211.05 -251.9 -211.15 -247.5 -211.65 -247.0 -211.25 -246.9 -211.0 -246.75 -210.65" fill="#9f0000" fill-opacity="0.9098039" fill-rule="evenodd" stroke="none"/>
    <path d="M-251.9 -211.15 L-247.15 -212.15 -246.4 -212.25 -246.65 -211.75 -246.9 -211.0 -247.0 -211.25 -247.5 -211.65 -251.9 -211.15" fill="#ad0000" fill-rule="evenodd" stroke="none"/>
    <path d="M-296.25 -171.25 L-277.15 -190.75 Q-276.25 -192.5 -273.5 -192.9 L-271.75 -190.65 -270.25 -189.15 -272.75 -187.9 -275.65 -185.15 -275.65 -185.0 -286.15 -175.65 -287.5 -173.4 -296.25 -171.25" fill="#af0000" fill-opacity="0.9098039" fill-rule="evenodd" stroke="none"/>
    <path d="M-296.5 -170.75 L-296.25 -171.25 -287.5 -173.4 -289.5 -170.15 -291.5 -164.25 -294.65 -161.15 -296.5 -170.75 M-281.5 -111.5 L-280.65 -112.15 -278.75 -110.25 -279.9 -109.0 -281.5 -111.5" fill="#c20000" fill-opacity="0.9098039" fill-rule="evenodd" stroke="none"/>
    <path d="M-301.0 -156.25 L-296.5 -170.75 -294.65 -161.15 -294.65 -161.0 -294.75 -160.75 -295.4 -160.0 -301.0 -156.25" fill="#c50000" fill-rule="evenodd" stroke="none"/>
    <path d="M-140.25 -198.5 L-134.9 -186.9 -134.4 -186.15 -130.0 -176.5 -130.0 -176.15 -128.9 -174.0 -128.75 -173.5 -120.75 -156.5 -119.0 -148.15 -132.75 -143.5 -132.65 -139.4 -132.5 -138.65 -132.5 -136.65 -132.25 -135.5 -132.4 -135.25 -133.65 -135.5 -133.75 -135.65 -134.25 -135.65 -140.0 -137.25 -140.25 -137.5 -141.5 -137.75 -141.65 -137.9 -143.75 -138.25 -143.5 -139.75 -143.5 -140.25 -143.15 -142.4 -143.25 -142.9 -143.0 -143.25 -142.25 -148.65 -142.4 -148.9 -142.15 -149.5 -141.5 -154.0 -141.65 -154.65 -141.4 -154.9 -141.0 -157.5 -141.0 -157.65 -140.15 -163.5 -140.25 -164.15 -140.0 -164.65 -139.9 -165.5 -139.9 -166.0 -140.0 -166.25 -139.9 -166.25 -139.65 -167.25 -139.25 -170.0 -139.25 -170.75 -139.0 -171.75 -139.0 -172.75 -138.75 -173.5 -138.65 -174.0 -138.75 -174.65 -138.75 -175.15 -138.65 -175.15 -138.25 -177.15 -139.5 -189.15 -139.65 -189.5 -139.65 -190.15 -139.75 -190.75 -139.75 -192.25 -140.25 -198.5" fill="#d30000" fill-opacity="0.9098039" fill-rule="evenodd" stroke="none"/>
    <path d="M-162.75 -0.9 L-261.9 -0.9 -261.75 -1.25 -261.9 -1.9 -261.75 -2.15 -261.65 -4.5 -261.5 -5.5 -261.25 -6.75 -261.25 -7.15 -261.15 -8.0 -261.15 -8.4 -260.9 -9.65 -260.9 -10.4 -260.75 -10.9 -260.75 -11.4 -260.65 -12.15 -260.65 -12.4 -259.65 -25.0 -259.5 -25.4 -258.25 -47.0 -266.65 -78.75 -267.5 -82.25 -273.0 -105.5 -275.0 -106.65 -278.75 -110.25 -278.4 -110.65 -277.9 -111.0 -277.9 -111.15 -277.65 -111.25 -273.75 -115.15 -269.15 -119.9 -269.0 -120.0 -265.75 -123.25 -265.65 -123.5 -265.4 -123.65 -260.0 -129.15 -259.65 -129.4 -259.4 -129.75 -259.25 -130.15 -259.0 -130.15 -257.65 -131.5 -234.15 -134.65 -201.0 -140.75 -200.25 -140.75 -187.5 -142.9 -143.75 -138.25 -143.9 -137.9 -144.0 -137.4 -144.5 -136.25 -144.5 -135.9 -144.65 -135.5 -145.0 -134.25 -145.15 -133.9 -145.25 -133.5 -145.5 -132.9 -145.65 -132.65 -145.75 -132.4 -145.75 -132.0 -146.65 -129.25 -147.0 -128.0 -147.15 -127.65 -147.25 -127.25 -147.4 -126.9 -147.5 -126.5 -147.65 -126.15 -148.0 -124.9 -148.4 -124.0 -148.4 -123.75 -148.65 -123.0 -148.75 -122.5 -148.9 -122.15 -149.0 -121.75 -149.15 -121.4 -149.25 -121.0 -149.4 -120.65 -149.5 -120.25 -149.65 -119.9 -149.75 -119.4 -150.65 -116.75 -150.75 -116.25 -150.9 -115.9 -151.0 -115.5 -151.15 -115.15 -151.25 -114.75 -151.4 -114.4 -151.75 -113.15 -152.65 -110.4 -152.75 -110.0 -152.9 -109.65 -153.0 -109.25 -153.15 -108.9 -153.25 -108.5 -153.4 -108.15 -153.75 -106.9 -154.65 -104.15 -154.9 -103.9 -155.25 -102.25 -155.4 -101.9 -155.5 -101.4 -156.4 -98.75 -156.5 -98.25 -156.65 -97.9 -156.75 -97.5 -156.9 -97.15 -157.0 -96.75 -157.15 -96.4 -157.25 -96.0 -157.4 -95.65 -157.5 -95.15 -158.4 -92.4 -158.5 -92.0 -158.65 -91.65 -158.75 -91.25 -158.9 -90.9 -159.0 -90.5 -159.15 -90.15 -159.5 -88.9 -160.4 -86.15 -160.5 -85.75 -160.65 -85.4 -160.75 -85.0 -160.9 -84.65 -161.0 -84.25 -161.15 -83.9 -162.15 -80.75 -162.25 -80.25 -162.4 -79.9 -162.5 -79.5 -162.65 -79.15 -162.75 -78.75 -162.9 -78.4 -163.0 -78.0 -163.0 -71.15 -162.75 -70.75 -162.65 -63.65 -162.4 -62.9 -162.0 -46.75 -161.9 -46.5 -161.65 -38.65 -161.4 -37.9 -160.9 -20.0 -161.4 -14.65 -161.65 -14.15 -161.5 -13.5 -162.75 -0.9" fill="#a60000" fill-opacity="0.9098039" fill-rule="evenodd" stroke="none"/>
    <path d="M-119.0 -148.15 L-113.9 -121.5 -114.15 -120.5 -114.65 -119.5 -114.75 -119.25 -117.5 -131.0 -132.15 -134.9 -132.25 -135.15 -132.4 -135.25 -132.25 -135.5 -132.5 -136.65 -132.5 -138.65 -132.65 -139.4 -132.75 -143.5 -119.0 -148.15 M-288.75 -122.0 L-288.5 -122.0 -288.15 -121.65 -288.0 -121.25 -288.0 -120.75 -281.5 -111.5 -283.75 -110.15 -284.5 -113.15 -284.9 -113.75 -285.75 -117.15 -287.5 -119.5 -287.5 -119.65 -287.65 -119.75 -287.65 -120.0 -288.0 -120.75 -288.75 -122.0" fill="#e80000" fill-opacity="0.9098039" fill-rule="evenodd" stroke="none"/>
    <path d="M-292.75 -105.4 L-304.15 -144.5 -304.15 -144.75 -290.65 -125.25 -290.5 -124.9 -288.75 -122.0 -288.0 -120.75 -287.65 -120.0 -287.65 -119.75 -287.5 -119.65 -287.5 -119.5 -285.75 -117.15 -284.9 -113.75 -284.5 -113.15 -283.75 -110.15 -292.75 -105.4" fill="#fb0000" fill-rule="evenodd" stroke="none"/>
    <path d="M-304.15 -144.75 L-304.4 -145.5 -303.0 -149.65 -303.15 -149.9 -302.65 -150.9 -301.25 -155.9 -301.0 -156.15 -301.0 -156.25 -295.4 -160.0 -294.75 -160.75 -294.5 -160.25 -293.75 -157.0 -293.75 -156.65 -294.75 -153.65 -294.65 -153.65 -295.5 -150.4 -295.5 -144.75 -295.65 -144.0 -294.65 -138.5 -294.0 -136.5 -294.0 -136.25 -293.65 -134.9 -293.5 -134.65 -293.4 -134.4 -293.25 -134.25 -293.15 -133.25 -293.0 -133.15 -293.0 -133.0 -290.65 -125.25 -304.15 -144.75" fill="#c30000" fill-rule="evenodd" stroke="none"/>
    <path d="M-276.65 -0.9 L-279.25 -0.9 -277.15 -18.5 -275.15 -43.5 -291.4 -101.0 -291.5 -101.65 -292.75 -105.4 -283.75 -110.15 -279.65 -97.15 -276.9 -93.75 -276.65 -93.0 -275.0 -84.25 -274.9 -83.9 -270.9 -63.75 -270.9 -62.15 -276.75 -8.25 -276.65 -0.9" fill="#fd0000" fill-rule="evenodd" stroke="none"/>
    <path d="M-136.9 -0.9 L-162.75 -0.9 -161.5 -13.5 -161.65 -14.15 -161.4 -14.65 -160.9 -20.0 -161.4 -37.9 -161.65 -38.65 -161.9 -46.5 -162.0 -46.75 -162.4 -62.9 -162.65 -63.65 -162.75 -70.75 -163.0 -71.15 -163.0 -78.0 -162.9 -78.4 -162.75 -78.75 -162.65 -79.15 -162.5 -79.5 -162.4 -79.9 -162.25 -80.25 -162.15 -80.75 -161.15 -83.9 -161.0 -84.25 -160.9 -84.65 -160.75 -85.0 -160.65 -85.4 -160.5 -85.75 -160.4 -86.15 -159.5 -88.9 -159.15 -90.15 -159.0 -90.5 -158.9 -90.9 -158.75 -91.25 -158.65 -91.65 -158.5 -92.0 -158.4 -92.4 -157.5 -95.15 -157.4 -95.65 -157.25 -96.0 -157.15 -96.4 -157.0 -96.75 -156.9 -97.15 -156.75 -97.5 -156.65 -97.9 -156.5 -98.25 -156.4 -98.75 -155.5 -101.4 -155.4 -101.9 -155.25 -102.25 -154.9 -103.9 -154.65 -104.15 -153.75 -106.9 -153.4 -108.15 -153.25 -108.5 -153.15 -108.9 -153.0 -109.25 -152.9 -109.65 -152.75 -110.0 -152.65 -110.4 -151.75 -113.15 -151.4 -114.4 -151.25 -114.75 -151.15 -115.15 -151.0 -115.5 -150.9 -115.9 -150.75 -116.25 -150.65 -116.75 -149.75 -119.4 -149.65 -119.9 -149.5 -120.25 -149.4 -120.65 -149.25 -121.0 -149.15 -121.4 -149.0 -121.75 -148.9 -122.15 -148.75 -122.5 -148.65 -123.0 -148.4 -123.75 -148.4 -124.0 -148.0 -124.9 -147.65 -126.15 -147.5 -126.5 -147.4 -126.9 -147.25 -127.25 -147.15 -127.65 -147.0 -128.0 -146.65 -129.25 -145.75 -132.0 -145.75 -132.4 -145.65 -132.65 -145.5 -132.9 -145.25 -133.5 -145.15 -133.9 -145.0 -134.25 -144.65 -135.5 -144.5 -135.9 -144.5 -136.25 -144.0 -137.4 -143.9 -137.9 -143.75 -138.25 -141.65 -137.9 -141.5 -137.75 -140.25 -137.5 -140.0 -137.25 -134.25 -135.65 -133.75 -135.65 -133.65 -135.5 -132.4 -135.25 -132.25 -135.15 -132.15 -134.9 -130.65 -117.15 -130.5 -116.4 -130.5 -114.15 -130.25 -113.25 -130.25 -112.75 -130.0 -111.4 -130.65 -108.0 -130.5 -107.75 -130.75 -107.4 -130.65 -107.0 -130.9 -106.75 -130.75 -106.15 -133.65 -86.4 -133.75 -86.15 -133.75 -85.75 -135.5 -73.65 -136.75 -64.15 -136.65 -63.9 -136.9 -63.75 -136.9 -63.25 -136.75 -62.25 -139.25 -33.65 -139.25 -33.4 -139.15 -32.75 -139.15 -31.9 -139.0 -31.25 -139.0 -30.25 -138.9 -29.65 -138.9 -28.65 -138.75 -28.0 -138.75 -26.9 -138.65 -26.4 -138.75 -25.9 -138.5 -24.5 -138.5 -23.9 -138.4 -22.25 -138.25 -21.5 -138.25 -20.0 -138.15 -19.9 -138.15 -18.5 -138.0 -17.4 -138.0 -16.15 -137.9 -15.9 -137.9 -15.5 -137.75 -14.9 -137.75 -14.0 -137.65 -14.0 -137.65 -12.5 -137.5 -12.5 -137.4 -9.15 -137.25 -8.75 -137.15 -6.25 -137.15 -3.75 -137.0 -3.25 -136.9 -0.9" fill="#da0000" fill-opacity="0.9098039" fill-rule="evenodd" stroke="none"/>
    <path d="M-261.9 -0.9 L-276.65 -0.9 -276.75 -8.25 -270.9 -62.15 -270.9 -63.75 -274.9 -83.9 -266.65 -78.75 -258.25 -47.0 -259.5 -25.4 -259.65 -25.0 -260.65 -12.4 -260.65 -12.15 -260.75 -11.4 -260.75 -10.9 -260.9 -10.4 -260.9 -9.65 -261.15 -8.4 -261.15 -8.0 -261.25 -7.15 -261.25 -6.75 -261.5 -5.5 -261.65 -4.5 -261.75 -2.15 -261.9 -1.9 -261.75 -1.25 -261.9 -0.9" fill="#bc0000" fill-rule="evenodd" stroke="none"/>
    <path d="M-267.5 -82.25 L-266.65 -78.75 -274.9 -83.9 -275.0 -84.25 -276.65 -93.0 -267.5 -82.25" fill="#bb0000" fill-rule="evenodd" stroke="none"/>
    <path d="M-278.75 -110.25 L-275.0 -106.65 -273.0 -105.5 -267.5 -82.25 -276.65 -93.0 -276.9 -93.75 -279.9 -109.0 -278.75 -110.25" fill="#b70000" fill-opacity="0.9098039" fill-rule="evenodd" stroke="none"/>
    <path d="M-279.9 -109.0 L-276.9 -93.75 -279.65 -97.15 -283.75 -110.15 -281.5 -111.5 -279.9 -109.0" fill="#ff0000" fill-opacity="0.9098039" fill-rule="evenodd" stroke="none"/>
    <path d="M-132.15 -134.9 L-117.5 -131.0 -114.75 -119.25 -114.75 -118.9 -119.0 -106.0 -119.0 -105.9 -119.25 -105.15 -119.4 -105.0 -120.25 -102.5 -133.65 -86.4 -130.75 -106.15 -130.9 -106.75 -130.65 -107.0 -130.75 -107.4 -130.5 -107.75 -130.65 -108.0 -130.0 -111.4 -130.25 -112.75 -130.25 -113.25 -130.5 -114.15 -130.5 -116.4 -130.65 -117.15 -132.15 -134.9" fill="#f00000" fill-opacity="0.9098039" fill-rule="evenodd" stroke="none"/>
    <path d="M-114.4 -118.0 L-114.65 -116.15 -114.5 -115.75 -123.65 -63.5 -123.5 -63.15 -123.75 -63.0 -124.65 -56.0 -126.75 -45.65 -126.75 -45.5 -126.9 -44.9 -126.9 -44.4 -127.0 -44.15 -127.4 -41.25 -127.15 -36.9 -126.65 -34.25 -126.65 -31.65 -123.75 -0.9 -124.25 -0.9 -127.15 -32.0 -135.5 -73.65 -133.75 -85.75 -133.75 -86.15 -133.65 -86.4 -120.25 -102.5 -119.4 -105.0 -119.25 -105.15 -119.0 -105.9 -119.0 -106.0 -114.75 -118.9 -114.75 -118.5 -114.4 -118.0" fill="#f10000" fill-rule="evenodd" stroke="none"/>
    <path d="M-114.15 -120.5 L-114.0 -119.75 -114.4 -118.0 -114.75 -118.5 -114.75 -118.9 -114.75 -119.25 -114.65 -119.5 -114.15 -120.5" fill="#ea0000" fill-rule="evenodd" stroke="none"/>
    <path d="M-124.65 -56.0 L-124.5 -55.4 -126.65 -34.25 -127.15 -36.9 -127.4 -41.25 -127.0 -44.15 -126.9 -44.4 -126.9 -44.9 -126.75 -45.5 -126.75 -45.65 -124.65 -56.0" fill="#ff0000" fill-rule="evenodd" stroke="none"/>
    <path d="M-124.25 -0.9 L-136.9 -0.9 -137.0 -3.25 -137.15 -3.75 -137.15 -6.25 -137.25 -8.75 -137.4 -9.15 -137.5 -12.5 -137.65 -12.5 -137.65 -14.0 -137.75 -14.0 -137.75 -14.9 -137.9 -15.5 -137.9 -15.9 -138.0 -16.15 -138.0 -17.4 -138.15 -18.5 -138.15 -19.9 -138.25 -20.0 -138.25 -21.5 -138.4 -22.25 -138.5 -23.9 -138.5 -24.5 -138.75 -25.9 -138.65 -26.4 -138.75 -26.9 -138.75 -28.0 -138.9 -28.65 -138.9 -29.65 -139.0 -30.25 -139.0 -31.25 -139.15 -31.9 -139.15 -32.75 -139.25 -33.4 -139.25 -33.65 -136.75 -62.25 -136.9 -63.25 -136.9 -63.75 -136.65 -63.9 -136.75 -64.15 -135.5 -73.65 -127.15 -32.0 -124.25 -0.9" fill="#eb0000" fill-rule="evenodd" stroke="none"/>
  </g>
  <defs>
    <radialGradient cx="0" cy="0" gradientTransform="matrix(0.2104, 0.0, 0.0, 0.2104, -146.65, -200.45)" gradientUnits="userSpaceOnUse" id="gradient0" r="819.2" spreadMethod="pad">
      <stop offset="0.0" stop-color="#5b5b5b"/>
      <stop offset="1.0" stop-color="#232323"/>
    </radialGradient>
    <radialGradient cx="0" cy="0" gradientTransform="matrix(0.0111, 0.0, 0.0, 0.0111, -266.7, -293.0)" gradientUnits="userSpaceOnUse" id="gradient1" r="819.2" spreadMethod="pad">
      <stop offset="0.0" stop-color="#494949"/>
      <stop offset="1.0" stop-color="#494949"/>
    </radialGradient>
    <radialGradient cx="0" cy="0" gradientTransform="matrix(0.1886, 0.0, 0.0, 0.1886, -275.35, -242.55)" gradientUnits="userSpaceOnUse" id="gradient2" r="819.2" spreadMethod="pad">
      <stop offset="0.0" stop-color="#7e7e7e"/>
      <stop offset="1.0" stop-color="#050505"/>
    </radialGradient>
    <radialGradient cx="0" cy="0" gradientTransform="matrix(0.0769, 0.0, 0.0, 0.0769, -261.2, -141.3)" gradientUnits="userSpaceOnUse" id="gradient3" r="819.2" spreadMethod="pad">
      <stop offset="0.0" stop-color="#858585"/>
      <stop offset="1.0" stop-color="#000000"/>
    </radialGradient>
    <radialGradient cx="0" cy="0" gradientTransform="matrix(0.0565, 0.0, 0.0, 0.0565, -230.65, -204.9)" gradientUnits="userSpaceOnUse" id="gradient4" r="819.2" spreadMethod="pad">
      <stop offset="0.0" stop-color="#000000"/>
      <stop offset="1.0" stop-color="#000000"/>
    </radialGradient>
    <radialGradient cx="0" cy="0" gradientTransform="matrix(0.0425, 0.0, 0.0, 0.0425, -254.7, -179.65)" gradientUnits="userSpaceOnUse" id="gradient5" r="819.2" spreadMethod="pad">
      <stop offset="0.0" stop-color="#000000"/>
      <stop offset="1.0" stop-color="#000000"/>
    </radialGradient>
    <radialGradient cx="0" cy="0" gradientTransform="matrix(0.1235, 0.0, 0.0, 0.1235, -238.85, -134.0)" gradientUnits="userSpaceOnUse" id="gradient6" r="819.2" spreadMethod="pad">
      <stop offset="0.0" stop-color="#010101"/>
      <stop offset="1.0" stop-color="#000000"/>
    </radialGradient>
    <radialGradient cx="0" cy="0" gradientTransform="matrix(0.1363, 0.0, 0.0, 0.1363, -245.0, -124.85)" gradientUnits="userSpaceOnUse" id="gradient7" r="819.2" spreadMethod="pad">
      <stop offset="0.0" stop-color="#6a6a6a"/>
      <stop offset="1.0" stop-color="#000000"/>
    </radialGradient>
    <radialGradient cx="0" cy="0" gradientTransform="matrix(0.0306, 0.0, 0.0, 0.0306, -225.75, -216.55)" gradientUnits="userSpaceOnUse" id="gradient8" r="819.2" spreadMethod="pad">
      <stop offset="0.0" stop-color="#000000"/>
      <stop offset="1.0" stop-color="#000000"/>
    </radialGradient>
    <radialGradient cx="0" cy="0" gradientTransform="matrix(0.1145, 0.0, 0.0, 0.1145, -132.05, -134.1)" gradientUnits="userSpaceOnUse" id="gradient9" r="819.2" spreadMethod="pad">
      <stop offset="0.0" stop-color="#3f3f3f"/>
      <stop offset="1.0" stop-color="#000000"/>
    </radialGradient>
    <radialGradient cx="0" cy="0" gradientTransform="matrix(0.0739, 0.0, 0.0, 0.0739, -193.4, -150.05)" gradientUnits="userSpaceOnUse" id="gradient10" r="819.2" spreadMethod="pad">
      <stop offset="0.0" stop-color="#878787"/>
      <stop offset="1.0" stop-color="#090909"/>
    </radialGradient>
    <radialGradient cx="0" cy="0" gradientTransform="matrix(0.178, 0.0, 0.0, 0.178, -245.0, -124.85)" gradientUnits="userSpaceOnUse" id="gradient11" r="819.2" spreadMethod="pad">
      <stop offset="0.0" stop-color="#6a6a6a"/>
      <stop offset="1.0" stop-color="#000000"/>
    </radialGradient>
    <radialGradient cx="0" cy="0" gradientTransform="matrix(0.1278, 0.0, 0.0, 0.1278, -120.7, -201.05)" gradientUnits="userSpaceOnUse" id="gradient12" r="819.2" spreadMethod="pad">
      <stop offset="0.0" stop-color="#414141"/>
      <stop offset="1.0" stop-color="#1b1b1b"/>
    </radialGradient>
    <radialGradient cx="0" cy="0" gradientTransform="matrix(0.0203, 0.0, 0.0, 0.0203, -133.05, -201.6)" gradientUnits="userSpaceOnUse" id="gradient13" r="819.2" spreadMethod="pad">
      <stop offset="0.0" stop-color="#000000"/>
      <stop offset="1.0" stop-color="#000000"/>
    </radialGradient>
    <radialGradient cx="0" cy="0" gradientTransform="matrix(0.0379, 0.0, 0.0, 0.0379, -205.25, -286.45)" gradientUnits="userSpaceOnUse" id="gradient14" r="819.2" spreadMethod="pad">
      <stop offset="0.0" stop-color="#ff5151"/>
      <stop offset="1.0" stop-color="#330000"/>
    </radialGradient>
    <radialGradient cx="0" cy="0" gradientTransform="matrix(0.0363, 0.0, 0.0, 0.0363, -204.7, -286.3)" gradientUnits="userSpaceOnUse" id="gradient15" r="819.2" spreadMethod="pad">
      <stop offset="0.0" stop-color="#ff5151"/>
      <stop offset="1.0" stop-color="#ff4c4c"/>
    </radialGradient>
    <radialGradient cx="0" cy="0" gradientTransform="matrix(0.039, 0.0, 0.0, 0.039, -203.8, -280.55)" gradientUnits="userSpaceOnUse" id="gradient16" r="819.2" spreadMethod="pad">
      <stop offset="0.0" stop-color="#f89797"/>
      <stop offset="1.0" stop-color="#480000"/>
    </radialGradient>
    <radialGradient cx="0" cy="0" gradientTransform="matrix(0.0285, 0.0, 0.0, 0.0285, -211.4, -276.3)" gradientUnits="userSpaceOnUse" id="gradient17" r="819.2" spreadMethod="pad">
      <stop offset="0.0" stop-color="#ff3030"/>
      <stop offset="1.0" stop-color="#ff2d2d"/>
    </radialGradient>
    <radialGradient cx="0" cy="0" gradientTransform="matrix(0.0775, 0.0, 0.0, 0.0775, -127.25, -179.9)" gradientUnits="userSpaceOnUse" id="gradient18" r="819.2" spreadMethod="pad">
      <stop offset="0.0" stop-color="#595959"/>
      <stop offset="1.0" stop-color="#000000"/>
    </radialGradient>
    <radialGradient cx="0" cy="0" gradientTransform="matrix(0.1098, 0.0, 0.0, 0.1098, -101.55, -182.5)" gradientUnits="userSpaceOnUse" id="gradient19" r="819.2" spreadMethod="pad">
      <stop offset="0.0" stop-color="#616161"/>
      <stop offset="1.0" stop-color="#000000"/>
    </radialGradient>
    <radialGradient cx="0" cy="0" gradientTransform="matrix(0.1136, 0.0, 0.0, 0.1136, -289.7, -294.65)" gradientUnits="userSpaceOnUse" id="gradient20" r="819.2" spreadMethod="pad">
      <stop offset="0.0" stop-color="#434343"/>
      <stop offset="1.0" stop-color="#282828"/>
    </radialGradient>
    <radialGradient cx="0" cy="0" gradientTransform="matrix(0.037, 0.0, 0.0, 0.037, -279.85, -202.1)" gradientUnits="userSpaceOnUse" id="gradient21" r="819.2" spreadMethod="pad">
      <stop offset="0.0" stop-color="#191919"/>
      <stop offset="1.0" stop-color="#0d0d0d"/>
    </radialGradient>
    <radialGradient cx="0" cy="0" gradientTransform="matrix(0.0642, 0.0, 0.0, 0.0642, -11.9, -190.05)" gradientUnits="userSpaceOnUse" id="gradient22" r="819.2" spreadMethod="pad">
      <stop offset="0.0" stop-color="#000000"/>
      <stop offset="1.0" stop-color="#000000"/>
    </radialGradient>
    <radialGradient cx="0" cy="0" gradientTransform="matrix(0.0415, 0.0, 0.0, 0.0415, -34.8, -142.75)" gradientUnits="userSpaceOnUse" id="gradient23" r="819.2" spreadMethod="pad">
      <stop offset="0.0" stop-color="#000000"/>
      <stop offset="1.0" stop-color="#000000"/>
    </radialGradient>
    <radialGradient cx="0" cy="0" gradientTransform="matrix(0.1019, 0.0, 0.0, 0.1019, -34.8, -142.75)" gradientUnits="userSpaceOnUse" id="gradient24" r="819.2" spreadMethod="pad">
      <stop offset="0.0" stop-color="#000000"/>
      <stop offset="1.0" stop-color="#000000"/>
    </radialGradient>
    <radialGradient cx="0" cy="0" gradientTransform="matrix(0.0479, 0.0, 0.0, 0.0479, -127.25, -179.9)" gradientUnits="userSpaceOnUse" id="gradient25" r="819.2" spreadMethod="pad">
      <stop offset="0.0" stop-color="#595959"/>
      <stop offset="1.0" stop-color="#070707"/>
    </radialGradient>
    <radialGradient cx="0" cy="0" gradientTransform="matrix(0.1528, 0.0, 0.0, 0.1528, -137.05, -1.0)" gradientUnits="userSpaceOnUse" id="gradient26" r="819.2" spreadMethod="pad">
      <stop offset="0.0" stop-color="#3d3d3d"/>
      <stop offset="1.0" stop-color="#0e0e0e"/>
    </radialGradient>
    <radialGradient cx="0" cy="0" gradientTransform="matrix(0.0215, 0.0, 0.0, 0.0215, -190.55, -2.95)" gradientUnits="userSpaceOnUse" id="gradient27" r="819.2" spreadMethod="pad">
      <stop offset="0.0" stop-color="#000000"/>
      <stop offset="1.0" stop-color="#000000"/>
    </radialGradient>
    <radialGradient cx="0" cy="0" gradientTransform="matrix(0.0724, 0.0, 0.0, 0.0724, -258.2, -46.7)" gradientUnits="userSpaceOnUse" id="gradient28" r="819.2" spreadMethod="pad">
      <stop offset="0.0" stop-color="#838383"/>
      <stop offset="1.0" stop-color="#4c4c4c"/>
    </radialGradient>
    <radialGradient cx="0" cy="0" gradientTransform="matrix(0.0997, 0.0, 0.0, 0.0997, -324.65, -110.5)" gradientUnits="userSpaceOnUse" id="gradient29" r="819.2" spreadMethod="pad">
      <stop offset="0.0" stop-color="#6a6a6a"/>
      <stop offset="1.0" stop-color="#000000"/>
    </radialGradient>
    <radialGradient cx="0" cy="0" gradientTransform="matrix(0.0716, 0.0, 0.0, 0.0716, -381.35, -47.95)" gradientUnits="userSpaceOnUse" id="gradient30" r="819.2" spreadMethod="pad">
      <stop offset="0.0" stop-color="#393939"/>
      <stop offset="1.0" stop-color="#000000"/>
    </radialGradient>
    <radialGradient cx="0" cy="0" gradientTransform="matrix(0.016, 0.0, 0.0, 0.016, -399.6, -69.85)" gradientUnits="userSpaceOnUse" id="gradient31" r="819.2" spreadMethod="pad">
      <stop offset="0.0" stop-color="#626262"/>
      <stop offset="1.0" stop-color="#2f2f2f"/>
    </radialGradient>
    <radialGradient cx="0" cy="0" gradientTransform="matrix(0.1004, 0.0, 0.0, 0.1004, -340.7, -2.35)" gradientUnits="userSpaceOnUse" id="gradient32" r="819.2" spreadMethod="pad">
      <stop offset="0.0" stop-color="#505050"/>
      <stop offset="1.0" stop-color="#313131"/>
    </radialGradient>
    <radialGradient cx="0" cy="0" gradientTransform="matrix(0.0894, 0.0, 0.0, 0.0894, -269.2, -126.3)" gradientUnits="userSpaceOnUse" id="gradient33" r="819.2" spreadMethod="pad">
      <stop offset="0.0" stop-color="#2f2f2f"/>
      <stop offset="1.0" stop-color="#000000"/>
    </radialGradient>
    <radialGradient cx="0" cy="0" gradientTransform="matrix(0.0295, 0.0, 0.0, 0.0295, -350.6, -83.55)" gradientUnits="userSpaceOnUse" id="gradient34" r="819.2" spreadMethod="pad">
      <stop offset="0.0" stop-color="#010101"/>
      <stop offset="1.0" stop-color="#000000"/>
    </radialGradient>
    <radialGradient cx="0" cy="0" gradientTransform="matrix(0.0515, 0.0, 0.0, 0.0515, -271.95, -100.25)" gradientUnits="userSpaceOnUse" id="gradient35" r="819.2" spreadMethod="pad">
      <stop offset="0.0" stop-color="#626262"/>
      <stop offset="1.0" stop-color="#373737"/>
    </radialGradient>
    <radialGradient cx="0" cy="0" gradientTransform="matrix(0.0573, 0.0, 0.0, 0.0573, -336.0, -38.95)" gradientUnits="userSpaceOnUse" id="gradient36" r="819.2" spreadMethod="pad">
      <stop offset="0.0" stop-color="#292929"/>
      <stop offset="1.0" stop-color="#010101"/>
    </radialGradient>
    <radialGradient cx="0" cy="0" gradientTransform="matrix(0.0773, 0.0, 0.0, 0.0773, -340.7, -2.35)" gradientUnits="userSpaceOnUse" id="gradient37" r="819.2" spreadMethod="pad">
      <stop offset="0.0" stop-color="#505050"/>
      <stop offset="1.0" stop-color="#000000"/>
    </radialGradient>
    <radialGradient cx="0" cy="0" gradientTransform="matrix(0.0257, 0.0, 0.0, 0.0257, -298.6, -1.0)" gradientUnits="userSpaceOnUse" id="gradient38" r="819.2" spreadMethod="pad">
      <stop offset="0.0" stop-color="#090909"/>
      <stop offset="1.0" stop-color="#020202"/>
    </radialGradient>
    <radialGradient cx="0" cy="0" gradientTransform="matrix(0.0377, 0.0, 0.0, 0.0377, -293.6, -1.6)" gradientUnits="userSpaceOnUse" id="gradient39" r="819.2" spreadMethod="pad">
      <stop offset="0.0" stop-color="#000000"/>
      <stop offset="1.0" stop-color="#000000"/>
    </radialGradient>
  </defs>
</svg>
