<?xml version="1.0" encoding="UTF-8" standalone="no"?>
<svg xmlns:xlink="http://www.w3.org/1999/xlink" height="299.1px" width="393.6px" xmlns="http://www.w3.org/2000/svg">
  <g transform="matrix(1.0, 0.0, 0.0, 1.0, 394.5, 300.0)">
    <path d="M-284.15 -300.0 L-269.75 -300.0 -271.5 -293.65 Q-278.25 -275.0 -273.0 -260.4 L-271.4 -253.5 -271.25 -253.25 -268.5 -242.4 -267.75 -240.9 -267.65 -239.25 -266.5 -236.5 -248.75 -213.9 -251.9 -213.65 -263.0 -209.4 -263.9 -209.15 -275.9 -218.4 -276.15 -218.65 -274.75 -223.9 -283.9 -236.75 -275.5 -234.4 -282.75 -246.5 -283.0 -262.25 -285.5 -267.4 -288.15 -271.5 -287.0 -289.0 -287.25 -290.9 -284.15 -300.0 M-118.15 -277.15 L-115.9 -274.9 -116.0 -274.5 -118.25 -273.4 -118.15 -277.15 M-123.15 -243.4 L-123.25 -241.0 -128.65 -225.5 -133.0 -226.15 -123.15 -243.4" fill="url(#gradient0)" fill-rule="evenodd" stroke="none"/>
    <path d="M-269.75 -300.0 L-226.75 -300.0 -228.4 -298.65 -228.5 -298.5 Q-231.4 -297.15 -231.15 -296.25 L-216.0 -300.0 -208.25 -300.0 -216.9 -297.75 -231.4 -294.25 -231.9 -293.9 -230.0 -292.9 -224.0 -291.5 -214.25 -291.4 Q-203.5 -295.4 -198.75 -300.0 L-136.75 -300.0 -135.0 -297.15 -129.25 -267.25 -128.9 -266.65 -120.5 -260.75 -120.25 -260.25 -123.0 -243.9 -123.15 -243.65 -123.15 -243.4 -133.0 -226.15 -134.9 -226.4 -172.65 -232.25 -177.0 -233.25 -187.25 -241.25 -188.4 -241.65 -222.0 -234.75 -227.65 -222.9 -227.9 -222.65 -230.25 -220.65 -240.75 -214.25 -248.75 -213.9 -266.5 -236.5 -267.65 -239.25 -267.75 -240.9 -268.5 -242.4 -271.25 -253.25 -271.4 -253.5 -273.0 -260.4 Q-278.25 -275.0 -271.5 -293.65 L-269.75 -300.0 M-118.15 -277.15 L-118.25 -273.4 -128.9 -267.15 -125.4 -285.5 -125.0 -285.65 -118.0 -277.4 -118.15 -277.15" fill="url(#gradient1)" fill-rule="evenodd" stroke="none"/>
    <path d="M-268.4 -124.5 L-270.4 -125.65 -275.15 -130.4 -282.65 -138.0 -285.75 -143.5 -289.0 -153.4 -291.25 -162.15 -291.15 -169.5 -287.75 -181.15 -287.75 -181.4 Q-286.0 -190.15 -282.4 -193.9 L-268.25 -207.25 -263.9 -209.15 -263.0 -209.4 -251.9 -213.65 -248.75 -213.9 -240.75 -214.25 -237.4 -214.25 -235.4 -213.9 Q-219.65 -211.65 -220.0 -206.15 L-223.75 -202.9 -222.5 -195.5 Q-222.75 -188.65 -230.65 -179.4 L-232.15 -170.0 -237.15 -160.9 -241.65 -156.75 Q-243.65 -150.9 -247.15 -148.15 L-247.65 -141.65 -250.75 -133.4 -252.65 -130.75 -255.5 -128.0 -258.5 -126.75 -258.5 -126.4 -259.15 -124.5 -260.25 -123.0 -262.75 -122.0 -268.4 -124.5" fill="url(#gradient2)" fill-rule="evenodd" stroke="none"/>
    <path d="M-230.25 -220.65 L-230.15 -220.25 -237.4 -214.25 -240.75 -214.25 -230.25 -220.65" fill="url(#gradient3)" fill-rule="evenodd" stroke="none"/>
    <path d="M-174.15 -231.65 L-175.15 -231.75 -177.0 -233.25 -172.65 -232.25 -173.9 -232.15 -174.15 -231.65 M-227.9 -222.65 L-228.0 -222.25 -228.65 -220.75 -229.0 -220.5 -230.15 -220.25 -230.25 -220.65 -227.9 -222.65" fill="url(#gradient4)" fill-rule="evenodd" stroke="none"/>
    <path d="M-228.0 -222.25 L-227.9 -222.65 -227.65 -222.9 -228.0 -222.25 M-229.0 -220.5 L-228.65 -220.75 -228.9 -220.4 -228.9 -220.5 -229.0 -220.5" fill="url(#gradient5)" fill-rule="evenodd" stroke="none"/>
    <path d="M-163.9 -221.65 L-175.25 -224.4 -189.65 -223.5 -205.5 -217.4 -211.5 -212.25 -212.0 -211.75 -214.65 -209.5 -217.5 -206.25 -216.9 -204.15 Q-218.5 -203.65 -220.0 -194.25 L-218.75 -187.75 -214.75 -182.65 -215.0 -180.65 -214.15 -179.0 -211.65 -171.5 -204.65 -164.15 -202.5 -163.0 Q-199.4 -161.15 -198.4 -161.4 L-186.4 -160.0 -175.9 -151.65 -173.9 -150.65 -186.25 -154.0 -240.4 -144.9 -250.75 -133.4 -247.65 -141.65 -247.15 -148.15 Q-243.65 -150.9 -241.65 -156.75 L-237.15 -160.9 -232.15 -170.0 -230.65 -179.4 Q-222.75 -188.65 -222.5 -195.5 L-223.75 -202.9 -220.0 -206.15 Q-219.65 -211.65 -235.4 -213.9 L-228.9 -220.4 -228.65 -220.75 -228.0 -222.25 -227.65 -222.9 -222.0 -234.75 -188.4 -241.65 -187.25 -241.25 -177.0 -233.25 -175.15 -231.75 -163.9 -221.65 M-160.5 -146.75 L-155.4 -146.9 -153.15 -148.4 -153.5 -144.65 -160.5 -146.75 M-258.5 -126.4 L-258.5 -126.75 -255.5 -128.0 -257.9 -125.4 -258.5 -126.4" fill="url(#gradient6)" fill-rule="evenodd" stroke="none"/>
    <path d="M-128.25 -162.4 L-125.4 -132.0 -128.65 -143.5 -153.5 -144.65 -153.15 -148.4 -151.4 -147.9 -149.4 -147.9 -142.9 -150.75 -137.25 -157.15 -136.4 -158.75 -136.25 -159.15 -132.75 -159.0 Q-130.9 -161.25 -130.5 -163.15 L-130.4 -177.0 -129.4 -174.4 -128.25 -162.4 M-133.65 -193.5 L-142.15 -208.15 -146.65 -212.25 -158.5 -220.0 -163.9 -221.65 -175.15 -231.75 -174.15 -231.65 -135.75 -210.75 -135.65 -210.25 -133.65 -193.5" fill="url(#gradient7)" fill-rule="evenodd" stroke="none"/>
    <path d="M-163.9 -221.65 L-158.5 -220.0 -146.65 -212.25 -142.15 -208.15 -133.65 -193.5 -133.65 -193.4 -131.75 -190.4 -131.25 -188.15 -130.15 -183.15 -130.4 -177.0 -130.5 -163.15 Q-130.9 -161.25 -132.75 -159.0 L-136.25 -159.15 -136.4 -158.75 -137.25 -157.15 -142.9 -150.75 -149.4 -147.9 -151.4 -147.9 -153.15 -148.4 -155.4 -146.9 -160.5 -146.75 -162.0 -146.75 -168.65 -148.4 -173.9 -150.65 -175.9 -151.65 -186.4 -160.0 -198.4 -161.4 Q-199.4 -161.15 -202.5 -163.0 L-204.65 -164.15 -211.65 -171.5 -214.15 -179.0 -215.0 -180.65 -214.75 -182.65 -218.75 -187.75 -220.0 -194.25 Q-218.5 -203.65 -216.9 -204.15 L-217.5 -206.25 -214.65 -209.5 -212.0 -211.75 -211.5 -212.25 -205.5 -217.4 -189.65 -223.5 -175.25 -224.4 -163.9 -221.65" fill="url(#gradient8)" fill-rule="evenodd" stroke="none"/>
    <path d="M-173.9 -150.65 L-168.65 -148.4 -162.0 -146.75 -160.5 -146.75 -153.5 -144.65 -165.15 -96.15 -162.25 -18.75 -185.15 -25.9 -244.4 -18.9 -256.0 -8.25 -250.25 -82.75 -249.9 -83.75 -258.0 -125.15 -257.9 -125.4 -255.5 -128.0 -252.65 -130.75 -250.75 -133.4 -240.4 -144.9 -186.25 -154.0 -173.9 -150.65" fill="url(#gradient9)" fill-rule="evenodd" stroke="none"/>
    <path d="M-230.15 -220.25 L-229.0 -220.5 -228.9 -220.5 -228.9 -220.4 -235.4 -213.9 -237.4 -214.25 -230.15 -220.25" fill="url(#gradient10)" fill-rule="evenodd" stroke="none"/>
    <path d="M-226.75 -300.0 L-218.75 -300.0 -229.65 -297.25 -230.0 -297.4 -228.5 -298.5 -228.4 -298.65 -226.75 -300.0" fill="url(#gradient11)" fill-rule="evenodd" stroke="none"/>
    <path d="M-218.75 -300.0 L-216.0 -300.0 -231.15 -296.25 Q-231.4 -297.15 -228.5 -298.5 L-230.0 -297.4 -229.65 -297.25 -218.75 -300.0" fill="url(#gradient12)" fill-rule="evenodd" stroke="none"/>
    <path d="M-208.25 -300.0 L-207.5 -300.0 -216.9 -297.75 -208.25 -300.0 M-199.9 -300.0 L-198.75 -300.0 Q-203.5 -295.4 -214.25 -291.4 L-224.0 -291.5 -230.0 -292.9 -231.9 -293.9 -231.4 -294.25 Q-225.75 -291.15 -213.75 -292.25 L-209.75 -293.75 -200.65 -299.15 -199.9 -300.0" fill="url(#gradient13)" fill-rule="evenodd" stroke="none"/>
    <path d="M-207.5 -300.0 L-199.9 -300.0 -200.65 -299.15 -209.75 -293.75 -213.75 -292.25 Q-225.75 -291.15 -231.4 -294.25 L-216.9 -297.75 -207.5 -300.0" fill="url(#gradient14)" fill-rule="evenodd" stroke="none"/>
    <path d="M-136.75 -300.0 L-102.15 -299.9 -100.5 -294.25 -98.9 -275.25 -101.15 -254.15 -107.0 -235.65 -113.9 -223.0 -128.65 -225.5 -123.25 -241.0 -123.15 -243.4 -123.15 -243.65 -123.0 -243.9 -120.25 -260.25 -120.5 -260.75 -128.9 -266.65 -129.25 -267.25 -135.0 -297.15 -136.75 -300.0 M-118.25 -273.4 L-116.0 -274.5 -115.9 -274.9 -118.15 -277.15 -118.0 -277.4 -125.0 -285.65 -125.4 -285.5 -128.9 -267.15 -118.25 -273.4" fill="url(#gradient15)" fill-rule="evenodd" stroke="none"/>
    <path d="M-113.9 -223.0 L-112.4 -222.75 -128.75 -220.5 -134.9 -226.4 -133.0 -226.15 -128.65 -225.5 -113.9 -223.0" fill="url(#gradient16)" fill-rule="evenodd" stroke="none"/>
    <path d="M-134.9 -226.4 L-128.75 -220.5 -122.9 -200.0 -122.9 -199.0 -131.25 -188.15 -131.75 -190.4 -133.65 -193.4 -133.65 -193.5 -135.65 -210.25 -135.75 -210.75 -174.15 -231.65 -173.9 -232.15 -172.65 -232.25 -134.9 -226.4" fill="url(#gradient17)" fill-rule="evenodd" stroke="none"/>
    <path d="M-112.4 -222.75 L-76.9 -217.65 -51.75 -215.65 -7.0 -210.4 -19.15 -190.65 -30.0 -162.9 -47.0 -162.15 -65.15 -164.4 -88.65 -169.75 -112.9 -171.75 -113.4 -172.15 -122.9 -199.0 -122.9 -200.0 -128.75 -220.5 -112.4 -222.75" fill="url(#gradient18)" fill-rule="evenodd" stroke="none"/>
    <path d="M-7.0 -210.4 L-0.9 -210.9 -0.9 -161.9 -29.65 -162.9 -30.0 -162.9 -19.15 -190.65 -7.0 -210.4" fill="url(#gradient19)" fill-rule="evenodd" stroke="none"/>
    <path d="M-0.9 -161.9 L-0.9 -160.75 -1.25 -160.5 -10.25 -156.4 -29.65 -162.9 -0.9 -161.9" fill="url(#gradient20)" fill-rule="evenodd" stroke="none"/>
    <path d="M-10.25 -156.4 L-52.9 -149.65 -78.75 -158.25 -107.25 -169.5 -112.9 -171.75 -88.65 -169.75 -65.15 -164.4 -47.0 -162.15 -30.0 -162.9 -29.65 -162.9 -10.25 -156.4" fill="url(#gradient21)" fill-rule="evenodd" stroke="none"/>
    <path d="M-268.25 -207.25 L-282.9 -228.15 -288.15 -240.15 -292.4 -255.25 -294.25 -268.9 -293.9 -280.75 -292.4 -295.5 -291.0 -300.0 -284.15 -300.0 -287.25 -290.9 -287.0 -289.0 -288.15 -271.5 -285.5 -267.4 -283.0 -262.25 -282.75 -246.5 -275.5 -234.4 -283.9 -236.75 -274.75 -223.9 -276.15 -218.65 -275.9 -218.4 -263.9 -209.15 -268.25 -207.25" fill="url(#gradient22)" fill-rule="evenodd" stroke="none"/>
    <path d="M-107.25 -169.5 L-128.25 -162.4 -129.4 -174.4 -130.4 -177.0 -130.15 -183.15 -131.25 -188.15 -122.9 -199.0 -113.4 -172.15 -112.9 -171.75 -107.25 -169.5" fill="url(#gradient23)" fill-rule="evenodd" stroke="none"/>
    <path d="M-371.25 -123.9 L-346.5 -138.9 -291.9 -177.15 -287.75 -181.4 -287.75 -181.15 -291.15 -169.5 -291.25 -162.15 -289.0 -153.4 -285.75 -143.5 -282.65 -138.0 Q-286.4 -137.5 -288.65 -135.15 L-324.25 -109.15 -325.9 -104.5 -345.65 -101.65 -363.0 -118.0 -371.25 -123.9" fill="url(#gradient24)" fill-rule="evenodd" stroke="none"/>
    <path d="M-393.5 -92.9 L-391.15 -100.75 -371.25 -123.9 -363.0 -118.0 -345.65 -101.65 -345.4 -100.5 -343.9 -86.65 -338.25 -78.0 -338.25 -77.5 -363.65 -77.75 -376.15 -66.65 -390.65 -81.4 -393.5 -92.9" fill="url(#gradient25)" fill-rule="evenodd" stroke="none"/>
    <path d="M-391.5 -75.4 L-394.4 -86.75 -394.5 -87.75 -393.5 -92.9 -390.65 -81.4 -391.5 -75.4" fill="url(#gradient26)" fill-rule="evenodd" stroke="none"/>
    <path d="M-324.9 -0.9 L-326.0 -0.9 -340.75 -17.25 -358.15 -34.75 -379.9 -61.75 -391.25 -74.65 -391.5 -75.4 -390.65 -81.4 -376.15 -66.65 -365.15 -55.75 -352.9 -41.25 -353.0 -41.0 -335.4 -22.5 -323.9 -12.9 Q-326.4 -6.4 -324.9 -0.9" fill="url(#gradient27)" fill-rule="evenodd" stroke="none"/>
    <path d="M-275.15 -130.4 L-278.0 -128.25 -304.75 -114.4 -321.9 -103.75 -325.9 -104.5 -324.25 -109.15 -288.65 -135.15 Q-286.4 -137.5 -282.65 -138.0 L-275.15 -130.4" fill="url(#gradient28)" fill-rule="evenodd" stroke="none"/>
    <path d="M-321.9 -103.75 L-337.9 -83.5 -345.25 -100.5 -345.4 -100.5 -345.65 -101.65 -325.9 -104.5 -321.9 -103.75" fill="url(#gradient29)" fill-rule="evenodd" stroke="none"/>
    <path d="M-125.4 -132.0 L-131.75 -86.4 -134.25 -53.5 -130.25 -2.4 -130.25 -0.9 -131.65 -0.9 -136.25 -7.0 -139.25 -11.15 -162.25 -18.75 -165.15 -96.15 -153.5 -144.65 -128.65 -143.5 -125.4 -132.0" fill="url(#gradient30)" fill-rule="evenodd" stroke="none"/>
    <path d="M-154.15 -0.9 L-259.25 -0.9 -258.5 -3.0 -258.25 -3.65 -258.0 -4.0 -256.0 -8.25 -244.4 -18.9 -185.15 -25.9 -162.25 -18.75 -154.15 -0.9" fill="url(#gradient31)" fill-rule="evenodd" stroke="none"/>
    <path d="M-258.4 -3.9 L-255.65 -29.25 -254.0 -48.65 -253.15 -66.5 -267.4 -119.15 -262.75 -122.0 -260.25 -123.0 -259.15 -124.5 -258.0 -125.15 -249.9 -83.75 -250.25 -82.75 -256.0 -8.25 -258.0 -4.0 -258.4 -3.9" fill="url(#gradient32)" fill-rule="evenodd" stroke="none"/>
    <path d="M-267.4 -119.15 L-268.4 -124.5 -262.75 -122.0 -267.4 -119.15 M-259.15 -124.5 L-258.5 -126.4 -257.9 -125.4 -258.0 -125.15 -259.15 -124.5" fill="url(#gradient33)" fill-rule="evenodd" stroke="none"/>
    <path d="M-337.9 -83.5 L-333.75 -73.15 -337.4 -76.9 -338.25 -77.5 -338.25 -78.0 -343.9 -86.65 -345.4 -100.5 -345.25 -100.5 -337.9 -83.5" fill="url(#gradient34)" fill-rule="evenodd" stroke="none"/>
    <path d="M-333.75 -73.15 L-310.9 -48.15 -302.75 -39.75 -292.75 -27.25 -294.75 -26.25 -301.65 -23.15 Q-302.15 -25.0 -309.75 -25.0 L-315.25 -23.75 -321.25 -18.75 -323.9 -12.9 -335.4 -22.5 -353.0 -41.0 -352.9 -41.25 -365.15 -55.75 -376.15 -66.65 -363.65 -77.75 -338.25 -77.5 -337.4 -76.9 -333.75 -73.15" fill="url(#gradient35)" fill-rule="evenodd" stroke="none"/>
    <path d="M-292.75 -27.25 L-291.5 -24.25 -291.15 -23.4 -291.4 -23.0 -294.75 -26.25 -292.75 -27.25" fill="url(#gradient36)" fill-rule="evenodd" stroke="none"/>
    <path d="M-291.5 -24.25 Q-287.15 -21.65 -285.9 -19.25 L-283.0 -12.9 Q-281.9 -9.75 -282.25 -5.25 L-283.5 -0.9 -324.9 -0.9 Q-326.4 -6.4 -323.9 -12.9 L-321.25 -18.75 -315.25 -23.75 -309.75 -25.0 Q-302.15 -25.0 -301.65 -23.15 L-294.75 -26.25 -291.4 -23.0 -291.15 -23.4 -291.5 -24.25" fill="url(#gradient37)" fill-rule="evenodd" stroke="none"/>
    <path d="M-132.25 -0.9 L-154.15 -0.9 -162.25 -18.75 -139.25 -11.15 -136.25 -7.0 -132.25 -0.9" fill="url(#gradient38)" fill-rule="evenodd" stroke="none"/>
    <path d="M-259.25 -0.9 L-259.65 -1.15 -258.5 -3.0 -259.25 -0.9 M-258.25 -3.65 L-258.4 -3.9 -258.0 -4.0 -258.25 -3.65" fill="url(#gradient39)" fill-rule="evenodd" stroke="none"/>
    <path d="M-131.65 -0.9 L-132.25 -0.9 -136.25 -7.0 -131.65 -0.9" fill="url(#gradient40)" fill-rule="evenodd" stroke="none"/>
    <path d="M-164.75 -232.25 L-161.0 -230.5 -160.15 -230.25 -151.9 -226.5 -150.75 -226.15 -136.15 -219.5 -177.75 -219.9 -178.4 -219.65 -177.4 -224.15 -177.4 -224.25 -176.15 -229.25 -175.25 -229.5 -175.15 -229.5 -175.15 -229.65 -174.9 -229.65 -174.5 -229.75 -174.75 -229.75 -173.5 -230.15 -172.5 -230.65 -171.75 -230.9 -171.65 -231.5 -171.65 -232.0 -172.65 -232.15 -175.0 -232.9 -175.75 -233.0 -176.25 -234.5 -176.15 -234.75 -177.75 -240.9 -177.9 -241.9 -177.5 -242.0 -177.15 -242.15 -177.15 -242.25 -171.75 -243.9 -171.9 -238.75 -171.75 -238.5 -171.65 -236.0 -171.75 -235.65 -171.65 -232.0 -168.65 -231.65 -169.9 -231.15 -170.25 -231.15 -173.4 -230.0 -173.15 -230.0 -169.65 -231.0 -169.25 -231.0 -167.65 -231.5 -167.0 -231.4 -166.4 -231.75 -164.75 -232.25 M-164.0 -245.75 L-163.5 -245.75 -163.4 -244.15 -163.5 -243.75 -162.5 -232.75 -162.9 -232.75 -165.4 -232.5 -166.65 -232.15 -167.0 -232.0 -166.9 -232.4 -167.15 -233.15 -167.15 -240.0 -167.0 -240.4 -167.0 -244.15 -164.0 -245.75 M-242.5 -230.4 L-241.65 -230.65 -236.0 -231.25 -232.15 -226.4 -231.5 -225.9 -229.15 -223.0 -228.9 -222.4 -228.5 -222.15 -228.9 -222.0 -228.9 -221.9 -230.25 -220.65 -234.15 -218.4 -243.15 -228.65 -242.5 -230.4 M-249.4 -229.0 L-248.65 -229.0 -243.5 -229.5 -243.15 -228.65 -243.25 -228.0 -244.75 -223.65 -244.75 -223.25 -246.5 -218.15 -246.4 -217.9 -246.75 -216.9 -250.65 -216.0 -252.0 -215.9 -252.0 -215.75 -252.65 -215.65 -253.5 -215.4 -254.0 -215.4 -254.25 -215.15 -254.65 -215.15 -254.75 -215.0 -255.25 -215.15 -254.15 -218.25 -253.9 -218.5 -254.0 -219.0 -253.65 -219.25 -253.5 -219.75 -253.65 -220.15 -253.15 -220.9 -252.5 -222.75 -252.5 -223.0 -250.65 -228.15 -250.0 -228.9 -249.5 -229.0 -249.4 -229.0 M-173.5 -230.15 L-173.5 -230.0 -173.4 -230.0 -173.5 -230.15" fill="#9b0000" fill-opacity="0.9098039" fill-rule="evenodd" stroke="none"/>
    <path d="M-175.25 -229.5 L-175.15 -229.65 -175.15 -229.5 -175.25 -229.5 M-171.75 -243.9 L-164.0 -245.75 -167.0 -244.15 -167.0 -240.4 -167.15 -240.0 -167.15 -233.15 -166.9 -232.4 -167.0 -232.0 -168.25 -231.65 -168.65 -231.65 -171.65 -232.0 -171.75 -235.65 -171.65 -236.0 -171.75 -238.5 -171.9 -238.75 -171.75 -243.9 M-162.9 -232.75 L-164.75 -232.25 -165.4 -232.5 -162.9 -232.75 M-242.5 -230.4 L-243.15 -228.65 -243.5 -229.5 -248.65 -229.0 -249.4 -229.0 -243.65 -230.25 -242.5 -230.4" fill="#a90000" fill-rule="evenodd" stroke="none"/>
    <path d="M-174.9 -229.65 L-174.75 -229.75 -174.5 -229.75 -174.9 -229.65 M-165.4 -232.5 L-164.75 -232.25 -166.4 -231.75 -167.0 -231.4 -167.65 -231.5 -169.25 -231.0 -169.65 -231.0 -173.15 -230.0 -173.4 -230.0 -170.25 -231.15 -169.9 -231.15 -168.65 -231.65 -168.25 -231.65 -167.0 -232.0 -166.65 -232.15 -165.4 -232.5 M-173.5 -230.15 L-173.4 -230.0 -173.5 -230.0 -173.5 -230.15" fill="#aa0000" fill-rule="evenodd" stroke="none"/>
    <path d="M-136.15 -219.5 L-135.75 -218.75 -135.0 -211.9 -135.15 -211.4 -135.0 -210.0 -134.9 -209.75 -133.75 -197.65 -133.9 -197.65 -133.9 -195.4 -134.25 -194.65 -134.25 -194.4 -134.15 -194.0 -134.25 -193.25 -134.5 -192.9 -134.4 -192.25 -134.5 -191.4 -134.75 -191.0 -134.65 -190.5 -135.25 -186.25 -135.25 -186.0 -135.4 -185.0 -135.65 -184.4 -135.5 -183.75 -135.65 -183.25 -136.25 -178.65 -136.5 -178.15 -136.4 -177.75 -136.9 -174.9 -137.0 -174.9 -136.9 -174.15 -137.5 -169.65 -137.65 -169.15 -137.65 -168.75 -138.25 -164.15 -138.5 -163.15 -138.65 -163.15 -138.5 -162.4 -138.9 -160.65 -138.9 -159.65 -139.0 -159.0 -152.75 -160.65 -153.4 -160.65 -184.0 -163.75 -196.5 -161.25 -197.15 -161.25 -230.15 -154.9 -253.0 -151.65 -253.5 -151.15 -253.65 -151.15 -254.15 -150.65 -254.5 -150.4 -255.15 -149.4 -260.75 -143.5 -261.0 -143.4 -261.15 -143.15 -265.65 -138.4 -265.75 -138.25 -267.4 -136.65 -268.0 -135.9 -269.15 -134.75 -269.9 -134.15 -270.5 -133.4 -270.65 -133.15 -273.25 -130.4 -273.65 -130.0 -273.9 -129.9 -274.0 -129.65 -274.25 -129.5 -275.15 -130.4 -276.0 -129.75 -283.5 -140.5 -283.65 -140.9 -284.5 -142.4 -285.9 -144.0 -286.15 -144.75 -286.4 -145.25 -288.65 -152.5 -288.65 -152.65 -288.75 -152.9 -288.9 -153.15 -289.0 -153.75 -289.15 -154.0 -289.5 -155.25 -289.5 -155.5 -289.9 -156.65 -291.25 -162.75 -291.15 -163.0 -291.0 -163.9 -291.15 -168.9 -290.65 -171.25 -290.75 -171.25 -289.5 -175.5 -290.0 -178.0 -290.25 -178.65 -290.15 -179.0 -287.75 -181.4 -287.4 -182.25 -285.25 -189.15 -284.9 -189.65 -283.15 -192.65 -281.75 -193.0 -281.4 -193.25 -280.75 -193.25 -280.4 -193.5 -278.5 -194.0 -278.25 -194.15 -270.9 -196.25 -270.4 -196.5 -269.15 -196.75 -241.4 -181.9 -240.5 -181.25 Q-232.2 -176.85 -223.9 -172.5 L-217.0 -177.75 -216.9 -178.0 -214.65 -179.65 -214.65 -179.75 -210.5 -182.75 -210.15 -183.4 -209.0 -184.0 -206.25 -186.25 -205.65 -186.65 -184.0 -203.65 -183.65 -204.75 -183.5 -205.0 -180.65 -213.15 -180.75 -213.4 -180.5 -213.65 -178.5 -219.5 -178.4 -219.65 -177.75 -219.9 -136.15 -219.5 M-172.4 -189.4 L-172.15 -189.5 -171.4 -190.65 -171.0 -191.0 -170.9 -191.75 -170.9 -192.0 -172.25 -193.5 -172.4 -193.25 -173.25 -192.25 -173.15 -191.75 -172.5 -190.4 -172.4 -189.4 M-274.15 -171.15 L-273.15 -166.4 -273.15 -166.25 -273.0 -166.0 -272.9 -165.9 -272.4 -166.25 -272.4 -166.5 -274.15 -171.15" fill="#b00000" fill-opacity="0.9098039" fill-rule="evenodd" stroke="none"/>
    <path d="M-135.75 -218.75 L-133.5 -214.15 -129.5 -205.25 -129.15 -204.65 -124.25 -193.9 -124.25 -193.15 -115.9 -175.65 -115.25 -172.15 -115.15 -172.0 -114.9 -171.0 -115.0 -170.75 -114.25 -167.0 -128.25 -162.4 -128.15 -158.9 -128.0 -158.15 -128.0 -156.15 -127.75 -155.75 -128.0 -155.9 -129.15 -156.15 -129.75 -156.4 -135.75 -158.15 -136.0 -158.4 -136.5 -158.5 -136.9 -158.5 -138.0 -158.9 -139.0 -159.0 -138.9 -159.65 -138.9 -160.65 -138.5 -162.4 -138.65 -163.15 -138.5 -163.15 -138.25 -164.15 -137.65 -168.75 -137.65 -169.15 -137.5 -169.65 -136.9 -174.15 -137.0 -174.9 -136.9 -174.9 -136.4 -177.75 -136.5 -178.15 -136.25 -178.65 -135.65 -183.25 -135.5 -183.75 -135.65 -184.4 -135.4 -185.0 -135.25 -186.0 -135.25 -186.25 -134.65 -190.5 -134.75 -191.0 -134.5 -191.4 -134.4 -192.25 -134.5 -192.9 -134.25 -193.25 -134.15 -194.0 -134.25 -194.4 -134.25 -194.65 -133.9 -195.4 -133.9 -197.65 -133.75 -197.65 -134.9 -209.75 -135.0 -210.0 -135.15 -211.4 -135.0 -211.9 -135.75 -218.75" fill="#d30000" fill-opacity="0.9098039" fill-rule="evenodd" stroke="none"/>
    <path d="M-274.25 -129.5 L-274.0 -129.65 -273.9 -129.9 -273.65 -130.0 -273.25 -130.4 -270.65 -133.15 -270.5 -133.4 -269.9 -134.15 -269.15 -134.75 -268.0 -135.9 -267.4 -136.65 -265.75 -138.25 -265.65 -138.4 -261.15 -143.15 -261.0 -143.4 -260.75 -143.5 -255.15 -149.4 -254.5 -150.4 -254.15 -150.65 -253.65 -151.15 -253.5 -151.15 -253.0 -151.65 -230.15 -154.9 -197.15 -161.25 -196.5 -161.25 -184.0 -163.75 -153.4 -160.65 -152.75 -160.65 -139.0 -159.0 -139.15 -158.65 -139.25 -158.25 -139.4 -157.9 -139.65 -157.0 -139.9 -156.65 -140.0 -156.25 -140.0 -155.9 -140.4 -154.75 -140.5 -154.25 -140.65 -153.9 -140.75 -153.5 -140.9 -153.15 -141.15 -152.75 -141.5 -152.4 -141.25 -152.0 -142.15 -149.25 -142.25 -148.75 -142.4 -148.4 -142.5 -148.0 -142.65 -147.65 -142.75 -147.25 -142.9 -146.9 -143.9 -143.75 -144.0 -143.25 -144.15 -142.9 -144.25 -142.5 -144.4 -142.15 -144.5 -141.75 -144.65 -141.4 -145.65 -138.25 -145.75 -137.75 -145.9 -137.4 -146.0 -137.0 -146.15 -136.65 -146.25 -136.25 -146.4 -135.9 -146.5 -135.5 -147.4 -132.75 -147.5 -132.25 -147.65 -131.9 -147.75 -131.5 -147.9 -131.15 -148.0 -130.75 -148.15 -130.4 -149.5 -126.0 -149.65 -125.65 -149.75 -125.25 -150.0 -124.75 -150.15 -124.75 -150.4 -123.25 -150.9 -121.75 -151.25 -120.5 -151.4 -120.15 -151.5 -119.75 -151.65 -119.4 -151.75 -119.0 -151.9 -118.65 -152.0 -118.15 -152.9 -115.4 -153.0 -115.0 -153.15 -114.65 -153.25 -114.25 -153.4 -113.9 -153.5 -113.5 -153.65 -113.15 -153.75 -112.65 -154.4 -110.75 -154.75 -109.5 -154.9 -109.15 -155.0 -108.75 -155.15 -108.4 -155.25 -108.0 -155.4 -107.65 -155.5 -107.15 -156.5 -104.0 -156.65 -103.65 -156.75 -103.25 -156.9 -102.9 -157.0 -102.5 -157.15 -102.15 -157.25 -101.65 -158.0 -99.4 -157.5 -84.65 -157.25 -83.9 -156.75 -68.25 -156.65 -68.0 -156.4 -60.15 -156.25 -59.5 -155.5 -45.15 -155.75 -42.75 -155.65 -42.5 -156.25 -36.25 -156.25 -34.5 -157.75 -17.65 -157.9 -17.25 -157.9 -16.25 -158.25 -14.75 -158.15 -14.4 -158.4 -12.25 -159.25 -12.4 -159.5 -12.65 -179.65 -18.5 -179.9 -18.75 -185.25 -20.25 -190.0 -19.9 -190.25 -19.75 -221.25 -16.25 -221.5 -16.15 -247.65 -13.25 -247.9 -13.15 -250.75 -12.9 -251.0 -12.75 -257.0 -12.0 -257.25 -11.5 -257.65 -11.15 -256.4 -21.75 -256.4 -22.4 -256.25 -22.75 -255.65 -30.0 -255.5 -30.5 -255.5 -31.0 -254.4 -45.4 -254.25 -46.0 -253.25 -67.0 -253.4 -68.0 -262.25 -99.65 -267.4 -119.15 -268.4 -124.5 -270.15 -125.4 -274.25 -129.5" fill="#aa0000" fill-opacity="0.9098039" fill-rule="evenodd" stroke="none"/>
    <path d="M-292.25 -189.5 L-291.9 -190.15 -283.15 -192.65 -284.9 -189.65 -285.25 -189.15 -287.4 -182.25 -287.75 -181.4 -290.15 -179.0 -292.25 -189.5 M-276.0 -129.75 L-275.15 -130.4 -274.25 -129.5 -274.4 -129.25 -275.15 -128.5 -276.0 -129.75" fill="#c20000" fill-opacity="0.9098039" fill-rule="evenodd" stroke="none"/>
    <path d="M-114.25 -167.0 L-109.25 -141.0 -109.5 -140.0 -110.0 -139.15 -113.0 -151.25 -127.75 -155.75 -128.0 -156.15 -128.0 -158.15 -128.15 -158.9 -128.25 -162.4 -114.25 -167.0 M-285.9 -144.0 L-284.5 -142.4 -283.65 -140.9 -283.5 -140.5 -276.0 -129.75 -277.75 -128.5 -278.0 -128.4 -279.0 -127.75 -279.65 -130.25 -280.0 -130.9 -281.65 -136.75 -282.65 -137.9 -283.0 -138.75 -283.0 -138.9 -283.25 -139.4 -285.5 -143.0 -285.9 -144.0" fill="#e80000" fill-opacity="0.9098039" fill-rule="evenodd" stroke="none"/>
    <path d="M-287.75 -123.15 L-299.5 -162.75 -299.4 -163.0 -299.75 -164.15 -299.0 -163.25 -286.4 -145.25 -286.15 -144.75 -285.9 -144.0 -285.5 -143.0 -283.25 -139.4 -283.0 -138.9 -283.0 -138.75 -282.65 -137.9 -281.65 -136.75 -280.0 -130.9 -279.65 -130.25 -279.0 -127.75 -287.75 -123.15" fill="#fb0000" fill-rule="evenodd" stroke="none"/>
    <path d="M-299.75 -164.15 L-299.9 -164.75 -299.25 -166.5 -299.4 -166.9 -298.75 -168.15 -297.4 -173.25 -297.15 -173.5 -297.15 -173.65 -291.75 -177.25 -291.25 -177.65 -290.25 -178.65 -290.0 -178.0 -289.5 -175.5 -290.75 -171.25 -290.65 -171.25 -291.15 -168.9 -291.0 -163.9 -291.15 -163.0 -291.25 -162.75 -289.9 -156.65 -289.5 -155.5 -289.5 -155.25 -289.15 -154.0 -289.0 -153.75 -288.9 -153.15 -288.75 -152.9 -288.65 -152.65 -288.65 -152.5 -286.4 -145.25 -299.0 -163.25 -299.75 -164.15" fill="#c30000" fill-rule="evenodd" stroke="none"/>
    <path d="M-297.15 -173.65 L-292.25 -189.5 -290.15 -179.0 -290.25 -178.65 -291.25 -177.65 -291.75 -177.25 -297.15 -173.65" fill="#c50000" fill-rule="evenodd" stroke="none"/>
    <path d="M-271.4 -211.5 L-262.15 -213.5 -262.75 -211.65 -263.4 -210.65 -263.4 -210.15 -263.9 -209.15 -264.0 -209.0 -264.4 -207.75 -264.65 -207.5 -264.9 -206.65 -265.9 -204.4 -266.15 -204.0 -268.65 -197.9 -268.9 -197.5 -269.15 -196.75 -270.4 -196.5 -270.9 -196.25 -278.25 -194.15 -278.5 -194.0 -280.4 -193.5 -280.75 -193.25 -281.4 -193.25 -281.75 -193.0 -283.15 -192.65 -281.9 -194.65 -272.75 -203.15 -272.25 -203.5 -271.4 -204.25 -271.4 -204.4 -268.25 -207.25 -271.4 -211.5" fill="#a80000" fill-opacity="0.9098039" fill-rule="evenodd" stroke="none"/>
    <path d="M-291.9 -190.15 L-271.4 -211.5 -268.25 -207.25 -271.4 -204.4 -271.4 -204.25 -272.25 -203.5 -272.75 -203.15 -281.9 -194.65 -283.15 -192.65 -291.9 -190.15" fill="#b90000" fill-opacity="0.9098039" fill-rule="evenodd" stroke="none"/>
    <path d="M-139.0 -159.0 L-138.0 -158.9 -136.9 -158.5 -136.5 -158.5 -136.0 -158.4 -135.75 -158.15 -129.75 -156.4 -129.15 -156.15 -128.0 -155.9 -127.75 -155.75 -127.75 -154.9 -127.65 -154.4 -126.0 -136.75 -125.9 -136.25 -125.9 -134.15 -125.65 -133.15 -125.65 -132.75 -125.5 -132.5 -125.4 -131.0 -126.0 -127.5 -125.9 -127.25 -126.15 -126.9 -126.0 -126.4 -129.15 -105.25 -129.15 -104.75 -130.75 -92.5 -132.0 -83.75 -131.9 -83.5 -132.15 -83.4 -132.15 -82.9 -132.0 -81.9 -134.25 -55.4 -134.0 -48.4 -133.9 -47.5 -133.9 -47.15 -133.75 -46.75 -133.75 -45.75 -133.65 -45.75 -133.65 -44.25 -133.5 -44.25 -133.5 -43.75 -133.65 -43.25 -133.5 -43.15 -133.5 -42.25 -133.4 -41.75 -133.4 -41.4 -133.25 -41.4 -132.75 -34.0 -132.65 -34.0 -132.65 -32.65 -132.5 -32.0 -132.4 -29.4 -132.25 -28.4 -132.15 -25.9 -132.0 -24.9 -131.9 -23.15 -132.0 -22.4 -131.9 -21.25 -131.75 -20.65 -131.65 -18.9 -131.5 -18.0 -131.5 -16.75 -131.4 -16.25 -131.4 -14.65 -131.25 -13.4 -131.25 -12.0 -131.15 -11.75 -131.15 -10.65 -131.0 -9.75 -130.9 -9.75 -130.9 -8.15 -130.75 -8.15 -130.75 -6.4 -130.65 -6.0 -130.75 -5.65 -130.65 -3.0 -130.75 -3.15 -132.5 -3.65 -132.75 -3.9 -134.4 -4.25 -134.65 -4.5 -141.5 -6.5 -141.5 -6.75 -154.25 -10.75 -154.75 -11.15 -158.25 -12.15 -158.4 -12.25 -158.15 -14.4 -158.25 -14.75 -157.9 -16.25 -157.9 -17.25 -157.75 -17.65 -156.25 -34.5 -156.25 -36.25 -155.65 -42.5 -155.75 -42.75 -155.5 -45.15 -156.25 -59.5 -156.4 -60.15 -156.65 -68.0 -156.75 -68.25 -157.25 -83.9 -157.5 -84.65 -158.0 -99.4 -157.25 -101.65 -157.15 -102.15 -157.0 -102.5 -156.9 -102.9 -156.75 -103.25 -156.65 -103.65 -156.5 -104.0 -155.5 -107.15 -155.4 -107.65 -155.25 -108.0 -155.15 -108.4 -155.0 -108.75 -154.9 -109.15 -154.75 -109.5 -154.4 -110.75 -153.75 -112.65 -153.65 -113.15 -153.5 -113.5 -153.4 -113.9 -153.25 -114.25 -153.15 -114.65 -153.0 -115.0 -152.9 -115.4 -152.0 -118.15 -151.9 -118.65 -151.75 -119.0 -151.65 -119.4 -151.5 -119.75 -151.4 -120.15 -151.25 -120.5 -150.9 -121.75 -150.4 -123.25 -150.15 -124.75 -150.0 -124.75 -149.75 -125.25 -149.65 -125.65 -149.5 -126.0 -148.15 -130.4 -148.0 -130.75 -147.9 -131.15 -147.75 -131.5 -147.65 -131.9 -147.5 -132.25 -147.4 -132.75 -146.5 -135.5 -146.4 -135.9 -146.25 -136.25 -146.15 -136.65 -146.0 -137.0 -145.9 -137.4 -145.75 -137.75 -145.65 -138.25 -144.65 -141.4 -144.5 -141.75 -144.4 -142.15 -144.25 -142.5 -144.15 -142.9 -144.0 -143.25 -143.9 -143.75 -142.9 -146.9 -142.75 -147.25 -142.65 -147.65 -142.5 -148.0 -142.4 -148.4 -142.25 -148.75 -142.15 -149.25 -141.25 -152.0 -141.5 -152.4 -141.15 -152.75 -140.9 -153.15 -140.75 -153.5 -140.65 -153.9 -140.5 -154.25 -140.4 -154.75 -140.0 -155.9 -140.0 -156.25 -139.9 -156.65 -139.65 -157.0 -139.4 -157.9 -139.25 -158.25 -139.15 -158.65 -139.0 -159.0" fill="#dd0000" fill-opacity="0.9098039" fill-rule="evenodd" stroke="none"/>
    <path d="M-152.9 -0.9 L-259.65 -0.9 -258.5 -3.0 -258.25 -3.65 -258.4 -3.9 -258.25 -4.5 -258.15 -4.65 -257.75 -11.0 -257.65 -11.15 -257.25 -11.5 -257.0 -12.0 -251.0 -12.75 -250.75 -12.9 -247.9 -13.15 -247.65 -13.25 -221.5 -16.15 -221.25 -16.25 -190.25 -19.75 -190.0 -19.9 -185.25 -20.25 -179.9 -18.75 -179.65 -18.5 -159.5 -12.65 -159.25 -12.4 -158.4 -12.25 -158.25 -12.15 -152.9 -0.9" fill="#9e0000" fill-opacity="0.9098039" fill-rule="evenodd" stroke="none"/>
    <path d="M-268.9 -0.9 L-270.25 -0.9 -271.15 -29.5 -265.75 -82.75 -269.5 -101.75 -269.75 -102.15 -271.25 -110.25 -262.25 -99.65 -253.4 -68.0 -253.25 -67.0 -254.25 -46.0 -254.4 -45.4 -255.5 -31.0 -255.5 -30.5 -255.65 -30.0 -256.25 -22.75 -256.4 -22.4 -256.4 -21.75 -257.65 -11.15 -257.75 -11.0 -268.9 -0.9" fill="#bf0000" fill-rule="evenodd" stroke="none"/>
    <path d="M-274.25 -129.5 L-270.15 -125.4 -268.4 -124.5 -267.4 -119.15 -262.25 -99.65 -271.25 -110.25 -271.5 -111.0 -275.15 -128.5 -274.4 -129.25 -274.25 -129.5" fill="#bb0000" fill-opacity="0.9098039" fill-rule="evenodd" stroke="none"/>
    <path d="M-279.0 -127.75 L-278.0 -128.4 -277.75 -128.5 -276.0 -129.75 -275.15 -128.5 -271.5 -111.0 -275.0 -115.0 -279.0 -127.75" fill="#ff0000" fill-opacity="0.9098039" fill-rule="evenodd" stroke="none"/>
    <path d="M-270.25 -0.9 L-274.4 -0.9 -275.0 -11.0 -271.65 -40.65 -270.0 -63.9 -287.75 -123.15 -279.0 -127.75 -275.0 -115.0 -271.5 -111.0 -271.25 -110.25 -269.75 -102.15 -269.5 -101.75 -265.75 -82.75 -271.15 -29.5 -270.25 -0.9" fill="#fd0000" fill-rule="evenodd" stroke="none"/>
    <path d="M-129.15 -105.25 L-126.0 -126.4 -126.15 -126.9 -125.9 -127.25 -126.0 -127.5 -125.4 -131.0 -125.5 -132.5 -125.65 -132.75 -125.65 -133.15 -125.9 -134.15 -125.9 -136.25 -126.0 -136.75 -127.65 -154.4 -127.75 -154.9 -127.75 -155.75 -113.0 -151.25 -110.0 -139.15 -110.0 -138.5 -110.15 -138.4 -114.4 -125.5 -114.4 -125.4 -114.5 -125.0 -114.65 -124.65 -114.75 -124.5 -115.65 -121.9 -129.15 -105.25" fill="#f40000" fill-opacity="0.9098039" fill-rule="evenodd" stroke="none"/>
    <path d="M-109.5 -140.0 L-109.4 -139.15 -109.75 -137.9 -110.15 -138.4 -110.0 -138.5 -110.0 -139.15 -109.5 -140.0" fill="#ea0000" fill-rule="evenodd" stroke="none"/>
    <path d="M-109.75 -137.9 L-110.0 -135.9 -109.9 -135.4 -118.9 -83.5 -118.9 -83.15 -118.75 -82.9 -119.0 -82.75 -119.9 -75.65 -121.9 -65.9 -121.9 -65.75 -122.0 -65.15 -122.0 -64.65 -122.15 -64.4 -122.4 -59.25 -122.25 -58.25 -122.25 -58.0 -121.75 -55.4 -121.75 -53.0 -117.65 -11.0 -117.5 -3.25 -122.25 -52.15 -130.75 -92.5 -129.15 -104.75 -129.15 -105.25 -115.65 -121.9 -114.75 -124.5 -114.65 -124.65 -114.5 -125.0 -114.4 -125.4 -114.4 -125.5 -110.15 -138.4 -109.75 -137.9" fill="#f40000" fill-rule="evenodd" stroke="none"/>
    <path d="M-259.65 -0.9 L-268.9 -0.9 -257.75 -11.0 -258.15 -4.65 -258.25 -4.5 -258.4 -3.9 -258.25 -3.65 -258.5 -3.0 -259.65 -0.9" fill="#b40000" fill-rule="evenodd" stroke="none"/>
    <path d="M-117.5 -3.25 L-117.65 -0.9 -129.25 -0.9 -130.25 -2.15 -130.4 -2.25 -130.4 -2.4 -130.5 -2.5 -130.65 -2.65 -130.65 -3.0 -130.75 -5.65 -130.65 -6.0 -130.75 -6.4 -130.75 -8.15 -130.9 -8.15 -130.9 -9.75 -131.0 -9.75 -131.15 -10.65 -131.15 -11.75 -131.25 -12.0 -131.25 -13.4 -131.4 -14.65 -131.4 -16.25 -131.5 -16.75 -131.5 -18.0 -131.65 -18.9 -131.75 -20.65 -131.9 -21.25 -132.0 -22.4 -131.9 -23.15 -132.0 -24.9 -132.15 -25.9 -132.25 -28.4 -132.4 -29.4 -132.5 -32.0 -132.65 -32.65 -132.65 -34.0 -132.75 -34.0 -133.25 -41.4 -133.4 -41.4 -133.4 -41.75 -133.5 -42.25 -133.5 -43.15 -133.65 -43.25 -133.5 -43.75 -133.5 -44.25 -133.65 -44.25 -133.65 -45.75 -133.75 -45.75 -133.75 -46.75 -133.9 -47.15 -133.9 -47.5 -134.0 -48.4 -134.25 -55.4 -132.0 -81.9 -132.15 -82.9 -132.15 -83.4 -131.9 -83.5 -132.0 -83.75 -130.75 -92.5 -122.25 -52.15 -117.5 -3.25" fill="#ee0000" fill-rule="evenodd" stroke="none"/>
    <path d="M-130.5 -2.5 L-130.4 -2.4 -130.5 -2.4 -130.5 -2.5" fill="#c60000" fill-rule="evenodd" stroke="none"/>
    <path d="M-130.5 -0.9 L-152.9 -0.9 -158.25 -12.15 -154.75 -11.15 -154.25 -10.75 -141.5 -6.75 -141.5 -6.5 -134.65 -4.5 -134.4 -4.25 -132.75 -3.9 -132.5 -3.65 -130.75 -3.15 -130.65 -3.0 -130.65 -2.65 -130.5 -2.5 -130.5 -2.4 -130.4 -2.4 -130.4 -2.25 -130.5 -0.9" fill="#b10000" fill-opacity="0.9098039" fill-rule="evenodd" stroke="none"/>
    <path d="M-119.9 -75.65 L-119.75 -74.9 -121.75 -55.4 -122.25 -58.0 -122.25 -58.25 -122.4 -59.25 -122.15 -64.4 -122.0 -64.65 -122.0 -65.15 -121.9 -65.75 -121.9 -65.9 -119.9 -75.65" fill="#ff0000" fill-rule="evenodd" stroke="none"/>
    <path d="M-129.25 -0.9 L-130.5 -0.9 -130.4 -2.25 -130.25 -2.15 -129.25 -0.9" fill="#c10000" fill-rule="evenodd" stroke="none"/>
  </g>
  <defs>
    <radialGradient cx="0" cy="0" gradientTransform="matrix(0.2074, 0.0, 0.0, 0.2074, -142.85, -216.65)" gradientUnits="userSpaceOnUse" id="gradient0" r="819.2" spreadMethod="pad">
      <stop offset="0.0" stop-color="#5b5b5b"/>
      <stop offset="1.0" stop-color="#2b2b2b"/>
    </radialGradient>
    <radialGradient cx="0" cy="0" gradientTransform="matrix(0.1893, 0.0, 0.0, 0.1893, -271.85, -259.6)" gradientUnits="userSpaceOnUse" id="gradient1" r="819.2" spreadMethod="pad">
      <stop offset="0.0" stop-color="#7e7e7e"/>
      <stop offset="1.0" stop-color="#070707"/>
    </radialGradient>
    <radialGradient cx="0" cy="0" gradientTransform="matrix(0.0761, 0.0, 0.0, 0.0761, -256.6, -161.25)" gradientUnits="userSpaceOnUse" id="gradient2" r="819.2" spreadMethod="pad">
      <stop offset="0.0" stop-color="#858585"/>
      <stop offset="1.0" stop-color="#000000"/>
    </radialGradient>
    <radialGradient cx="0" cy="0" gradientTransform="matrix(0.0565, 0.0, 0.0, 0.0565, -226.7, -222.9)" gradientUnits="userSpaceOnUse" id="gradient3" r="819.2" spreadMethod="pad">
      <stop offset="0.0" stop-color="#000000"/>
      <stop offset="1.0" stop-color="#000000"/>
    </radialGradient>
    <radialGradient cx="0" cy="0" gradientTransform="matrix(0.1228, 0.0, 0.0, 0.1228, -234.4, -152.95)" gradientUnits="userSpaceOnUse" id="gradient4" r="819.2" spreadMethod="pad">
      <stop offset="0.0" stop-color="#010101"/>
      <stop offset="1.0" stop-color="#000000"/>
    </radialGradient>
    <radialGradient cx="0" cy="0" gradientTransform="matrix(0.03, 0.0, 0.0, 0.03, -221.85, -234.85)" gradientUnits="userSpaceOnUse" id="gradient5" r="819.2" spreadMethod="pad">
      <stop offset="0.0" stop-color="#000000"/>
      <stop offset="1.0" stop-color="#000000"/>
    </radialGradient>
    <radialGradient cx="0" cy="0" gradientTransform="matrix(0.1344, 0.0, 0.0, 0.1344, -240.3, -144.95)" gradientUnits="userSpaceOnUse" id="gradient6" r="819.2" spreadMethod="pad">
      <stop offset="0.0" stop-color="#6a6a6a"/>
      <stop offset="1.0" stop-color="#000000"/>
    </radialGradient>
    <radialGradient cx="0" cy="0" gradientTransform="matrix(0.1139, 0.0, 0.0, 0.1139, -127.5, -153.5)" gradientUnits="userSpaceOnUse" id="gradient7" r="819.2" spreadMethod="pad">
      <stop offset="0.0" stop-color="#3f3f3f"/>
      <stop offset="1.0" stop-color="#000000"/>
    </radialGradient>
    <radialGradient cx="0" cy="0" gradientTransform="matrix(0.0735, 0.0, 0.0, 0.0735, -188.8, -170.6)" gradientUnits="userSpaceOnUse" id="gradient8" r="819.2" spreadMethod="pad">
      <stop offset="0.0" stop-color="#878787"/>
      <stop offset="1.0" stop-color="#090909"/>
    </radialGradient>
    <radialGradient cx="0" cy="0" gradientTransform="matrix(0.181, 0.0, 0.0, 0.181, -240.3, -144.95)" gradientUnits="userSpaceOnUse" id="gradient9" r="819.2" spreadMethod="pad">
      <stop offset="0.0" stop-color="#6a6a6a"/>
      <stop offset="1.0" stop-color="#000000"/>
    </radialGradient>
    <radialGradient cx="0" cy="0" gradientTransform="matrix(0.0421, 0.0, 0.0, 0.0421, -250.6, -198.0)" gradientUnits="userSpaceOnUse" id="gradient10" r="819.2" spreadMethod="pad">
      <stop offset="0.0" stop-color="#000000"/>
      <stop offset="1.0" stop-color="#000000"/>
    </radialGradient>
    <radialGradient cx="0" cy="0" gradientTransform="matrix(0.0141, 0.0, 0.0, 0.0141, -218.7, -300.0)" gradientUnits="userSpaceOnUse" id="gradient11" r="819.2" spreadMethod="pad">
      <stop offset="0.0" stop-color="#ff4d4d"/>
      <stop offset="1.0" stop-color="#ff4b4b"/>
    </radialGradient>
    <radialGradient cx="0" cy="0" gradientTransform="matrix(0.0163, 0.0, 0.0, 0.0163, -218.7, -300.0)" gradientUnits="userSpaceOnUse" id="gradient12" r="819.2" spreadMethod="pad">
      <stop offset="0.0" stop-color="#ff4d4d"/>
      <stop offset="1.0" stop-color="#330000"/>
    </radialGradient>
    <radialGradient cx="0" cy="0" gradientTransform="matrix(0.0405, 0.0, 0.0, 0.0405, -199.2, -300.0)" gradientUnits="userSpaceOnUse" id="gradient13" r="819.2" spreadMethod="pad">
      <stop offset="0.0" stop-color="#f89797"/>
      <stop offset="1.0" stop-color="#410000"/>
    </radialGradient>
    <radialGradient cx="0" cy="0" gradientTransform="matrix(0.0287, 0.0, 0.0, 0.0287, -207.75, -294.95)" gradientUnits="userSpaceOnUse" id="gradient14" r="819.2" spreadMethod="pad">
      <stop offset="0.0" stop-color="#ff3030"/>
      <stop offset="1.0" stop-color="#ff2d2d"/>
    </radialGradient>
    <radialGradient cx="0" cy="0" gradientTransform="matrix(0.1026, 0.0, 0.0, 0.1026, -116.65, -218.35)" gradientUnits="userSpaceOnUse" id="gradient15" r="819.2" spreadMethod="pad">
      <stop offset="0.0" stop-color="#414141"/>
      <stop offset="1.0" stop-color="#242424"/>
    </radialGradient>
    <radialGradient cx="0" cy="0" gradientTransform="matrix(0.0204, 0.0, 0.0, 0.0204, -128.75, -220.6)" gradientUnits="userSpaceOnUse" id="gradient16" r="819.2" spreadMethod="pad">
      <stop offset="0.0" stop-color="#000000"/>
      <stop offset="1.0" stop-color="#000000"/>
    </radialGradient>
    <radialGradient cx="0" cy="0" gradientTransform="matrix(0.0774, 0.0, 0.0, 0.0774, -122.8, -199.25)" gradientUnits="userSpaceOnUse" id="gradient17" r="819.2" spreadMethod="pad">
      <stop offset="0.0" stop-color="#595959"/>
      <stop offset="1.0" stop-color="#000000"/>
    </radialGradient>
    <radialGradient cx="0" cy="0" gradientTransform="matrix(0.1105, 0.0, 0.0, 0.1105, -97.0, -202.25)" gradientUnits="userSpaceOnUse" id="gradient18" r="819.2" spreadMethod="pad">
      <stop offset="0.0" stop-color="#616161"/>
      <stop offset="1.0" stop-color="#000000"/>
    </radialGradient>
    <radialGradient cx="0" cy="0" gradientTransform="matrix(0.0644, 0.0, 0.0, 0.0644, -6.9, -210.5)" gradientUnits="userSpaceOnUse" id="gradient19" r="819.2" spreadMethod="pad">
      <stop offset="0.0" stop-color="#000000"/>
      <stop offset="1.0" stop-color="#000000"/>
    </radialGradient>
    <radialGradient cx="0" cy="0" gradientTransform="matrix(0.0354, 0.0, 0.0, 0.0354, -29.9, -163.0)" gradientUnits="userSpaceOnUse" id="gradient20" r="819.2" spreadMethod="pad">
      <stop offset="0.0" stop-color="#000000"/>
      <stop offset="1.0" stop-color="#000000"/>
    </radialGradient>
    <radialGradient cx="0" cy="0" gradientTransform="matrix(0.1022, 0.0, 0.0, 0.1022, -29.9, -163.0)" gradientUnits="userSpaceOnUse" id="gradient21" r="819.2" spreadMethod="pad">
      <stop offset="0.0" stop-color="#000000"/>
      <stop offset="1.0" stop-color="#000000"/>
    </radialGradient>
    <radialGradient cx="0" cy="0" gradientTransform="matrix(0.1331, 0.0, 0.0, 0.1331, -288.65, -300.0)" gradientUnits="userSpaceOnUse" id="gradient22" r="819.2" spreadMethod="pad">
      <stop offset="0.0" stop-color="#404040"/>
      <stop offset="1.0" stop-color="#222222"/>
    </radialGradient>
    <radialGradient cx="0" cy="0" gradientTransform="matrix(0.0486, 0.0, 0.0, 0.0486, -122.8, -199.25)" gradientUnits="userSpaceOnUse" id="gradient23" r="819.2" spreadMethod="pad">
      <stop offset="0.0" stop-color="#595959"/>
      <stop offset="1.0" stop-color="#070707"/>
    </radialGradient>
    <radialGradient cx="0" cy="0" gradientTransform="matrix(0.0986, 0.0, 0.0, 0.0986, -320.05, -128.65)" gradientUnits="userSpaceOnUse" id="gradient24" r="819.2" spreadMethod="pad">
      <stop offset="0.0" stop-color="#6a6a6a"/>
      <stop offset="1.0" stop-color="#000000"/>
    </radialGradient>
    <radialGradient cx="0" cy="0" gradientTransform="matrix(0.0703, 0.0, 0.0, 0.0703, -376.0, -66.6)" gradientUnits="userSpaceOnUse" id="gradient25" r="819.2" spreadMethod="pad">
      <stop offset="0.0" stop-color="#393939"/>
      <stop offset="1.0" stop-color="#000000"/>
    </radialGradient>
    <radialGradient cx="0" cy="0" gradientTransform="matrix(0.0157, 0.0, 0.0, 0.0157, -394.45, -87.65)" gradientUnits="userSpaceOnUse" id="gradient26" r="819.2" spreadMethod="pad">
      <stop offset="0.0" stop-color="#626262"/>
      <stop offset="1.0" stop-color="#2f2f2f"/>
    </radialGradient>
    <radialGradient cx="0" cy="0" gradientTransform="matrix(0.0991, 0.0, 0.0, 0.0991, -335.0, -22.45)" gradientUnits="userSpaceOnUse" id="gradient27" r="819.2" spreadMethod="pad">
      <stop offset="0.0" stop-color="#505050"/>
      <stop offset="1.0" stop-color="#212121"/>
    </radialGradient>
    <radialGradient cx="0" cy="0" gradientTransform="matrix(0.0889, 0.0, 0.0, 0.0889, -264.85, -144.25)" gradientUnits="userSpaceOnUse" id="gradient28" r="819.2" spreadMethod="pad">
      <stop offset="0.0" stop-color="#2f2f2f"/>
      <stop offset="1.0" stop-color="#000000"/>
    </radialGradient>
    <radialGradient cx="0" cy="0" gradientTransform="matrix(0.0292, 0.0, 0.0, 0.0292, -345.7, -101.7)" gradientUnits="userSpaceOnUse" id="gradient29" r="819.2" spreadMethod="pad">
      <stop offset="0.0" stop-color="#010101"/>
      <stop offset="1.0" stop-color="#000000"/>
    </radialGradient>
    <radialGradient cx="0" cy="0" gradientTransform="matrix(0.1777, 0.0, 0.0, 0.1777, -130.4, -1.0)" gradientUnits="userSpaceOnUse" id="gradient30" r="819.2" spreadMethod="pad">
      <stop offset="0.0" stop-color="#515151"/>
      <stop offset="1.0" stop-color="#101010"/>
    </radialGradient>
    <radialGradient cx="0" cy="0" gradientTransform="matrix(0.1282, 0.0, 0.0, 0.1282, -259.25, -1.0)" gradientUnits="userSpaceOnUse" id="gradient31" r="819.2" spreadMethod="pad">
      <stop offset="0.0" stop-color="#0d0d0d"/>
      <stop offset="1.0" stop-color="#000000"/>
    </radialGradient>
    <radialGradient cx="0" cy="0" gradientTransform="matrix(0.0804, 0.0, 0.0, 0.0804, -253.1, -66.65)" gradientUnits="userSpaceOnUse" id="gradient32" r="819.2" spreadMethod="pad">
      <stop offset="0.0" stop-color="#838383"/>
      <stop offset="1.0" stop-color="#2a2a2a"/>
    </radialGradient>
    <radialGradient cx="0" cy="0" gradientTransform="matrix(0.0521, 0.0, 0.0, 0.0521, -267.3, -119.05)" gradientUnits="userSpaceOnUse" id="gradient33" r="819.2" spreadMethod="pad">
      <stop offset="0.0" stop-color="#626262"/>
      <stop offset="1.0" stop-color="#373737"/>
    </radialGradient>
    <radialGradient cx="0" cy="0" gradientTransform="matrix(0.0568, 0.0, 0.0, 0.0568, -330.75, -57.6)" gradientUnits="userSpaceOnUse" id="gradient34" r="819.2" spreadMethod="pad">
      <stop offset="0.0" stop-color="#292929"/>
      <stop offset="1.0" stop-color="#010101"/>
    </radialGradient>
    <radialGradient cx="0" cy="0" gradientTransform="matrix(0.076, 0.0, 0.0, 0.076, -335.0, -22.45)" gradientUnits="userSpaceOnUse" id="gradient35" r="819.2" spreadMethod="pad">
      <stop offset="0.0" stop-color="#505050"/>
      <stop offset="1.0" stop-color="#000000"/>
    </radialGradient>
    <radialGradient cx="0" cy="0" gradientTransform="matrix(0.0492, 0.0, 0.0, 0.0492, -284.1, -4.25)" gradientUnits="userSpaceOnUse" id="gradient36" r="819.2" spreadMethod="pad">
      <stop offset="0.0" stop-color="#131313"/>
      <stop offset="1.0" stop-color="#000000"/>
    </radialGradient>
    <radialGradient cx="0" cy="0" gradientTransform="matrix(0.0529, 0.0, 0.0, 0.0529, -282.35, -9.3)" gradientUnits="userSpaceOnUse" id="gradient37" r="819.2" spreadMethod="pad">
      <stop offset="0.0" stop-color="#858585"/>
      <stop offset="1.0" stop-color="#2c2c2c"/>
    </radialGradient>
    <radialGradient cx="0" cy="0" gradientTransform="matrix(0.0426, 0.0, 0.0, 0.0426, -162.3, -18.85)" gradientUnits="userSpaceOnUse" id="gradient38" r="819.2" spreadMethod="pad">
      <stop offset="0.0" stop-color="#000000"/>
      <stop offset="1.0" stop-color="#000000"/>
    </radialGradient>
    <radialGradient cx="0" cy="0" gradientTransform="matrix(0.0096, 0.0, 0.0, 0.0096, -259.25, -1.0)" gradientUnits="userSpaceOnUse" id="gradient39" r="819.2" spreadMethod="pad">
      <stop offset="0.0" stop-color="#0d0d0d"/>
      <stop offset="1.0" stop-color="#030303"/>
    </radialGradient>
    <radialGradient cx="0" cy="0" gradientTransform="matrix(0.0139, 0.0, 0.0, 0.0139, -132.35, -1.95)" gradientUnits="userSpaceOnUse" id="gradient40" r="819.2" spreadMethod="pad">
      <stop offset="0.0" stop-color="#101010"/>
      <stop offset="1.0" stop-color="#0a0a0a"/>
    </radialGradient>
  </defs>
</svg>
