<?xml version="1.0" encoding="UTF-8" standalone="no"?>
<svg xmlns:xlink="http://www.w3.org/1999/xlink" height="299.1px" width="391.1px" xmlns="http://www.w3.org/2000/svg">
  <g transform="matrix(1.0, 0.0, 0.0, 1.0, 392.0, 300.0)">
    <path d="M-285.65 -300.0 L-270.75 -300.0 -271.25 -297.9 -271.4 -297.65 -271.9 -295.4 Q-275.75 -286.4 -271.65 -270.5 L-271.4 -269.25 -271.25 -269.0 -269.65 -261.9 -269.5 -261.65 -266.75 -251.0 -266.0 -249.5 -265.4 -246.4 -264.75 -245.25 -255.65 -233.65 -255.5 -233.4 -247.9 -223.9 Q-248.65 -224.5 -253.25 -222.65 L-262.9 -218.9 -274.4 -227.65 -273.0 -232.9 -279.5 -242.5 -282.15 -245.75 -281.65 -245.9 -274.5 -243.65 -273.9 -243.75 -281.15 -255.75 -281.5 -272.25 -286.5 -280.75 -285.65 -300.0 M-116.15 -287.15 L-113.9 -284.75 -116.25 -283.4 -116.15 -287.15 M-121.25 -252.5 L-121.25 -250.75 -126.75 -235.5 -130.5 -236.0 -121.25 -252.5" fill="url(#gradient0)" fill-rule="evenodd" stroke="none"/>
    <path d="M-270.75 -300.0 L-131.65 -300.0 -127.25 -277.15 -126.9 -277.25 -123.4 -295.75 -122.65 -295.25 -116.15 -287.15 -116.25 -283.4 -127.15 -276.9 -118.25 -270.25 -121.25 -252.5 -130.5 -236.0 -133.0 -236.4 -170.5 -242.0 -175.0 -243.15 -185.75 -251.5 -186.65 -251.5 -220.15 -244.5 -225.9 -232.4 -226.15 -232.15 -228.15 -230.4 -228.4 -230.25 -237.65 -224.5 -247.9 -223.9 -255.5 -233.4 -255.65 -233.65 -264.75 -245.25 -265.4 -246.4 -266.0 -249.5 -266.75 -251.0 -269.5 -261.65 -269.65 -261.9 -271.25 -269.0 -271.4 -269.25 -271.65 -270.5 Q-275.75 -286.4 -271.9 -295.4 L-271.4 -297.65 -271.25 -297.9 -270.75 -300.0" fill="url(#gradient1)" fill-rule="evenodd" stroke="none"/>
    <path d="M-266.25 -134.65 L-267.9 -135.4 -272.65 -140.0 -280.4 -147.75 -281.0 -149.4 -281.4 -149.5 -283.75 -153.75 -286.9 -163.5 -289.15 -172.15 -289.0 -179.4 -286.75 -187.9 -286.15 -189.0 -286.0 -190.65 Q-284.0 -200.4 -280.25 -204.15 L-267.0 -216.75 -266.0 -217.65 -262.9 -218.9 -253.25 -222.65 Q-248.65 -224.5 -247.9 -223.9 L-237.65 -224.5 -234.75 -224.4 -233.0 -223.9 -222.9 -221.5 Q-216.9 -219.5 -218.0 -216.65 L-218.65 -215.75 -221.75 -213.4 -220.4 -206.75 -222.25 -199.25 -228.4 -190.25 -229.75 -180.9 -234.9 -171.65 Q-240.15 -167.9 -241.9 -162.15 L-245.0 -158.65 -245.4 -152.25 -248.5 -143.9 -250.65 -140.9 -253.4 -138.25 -256.4 -137.15 -256.25 -136.65 -256.9 -134.9 -257.5 -133.65 -258.75 -132.9 -260.65 -132.15 -266.25 -134.65" fill="url(#gradient2)" fill-rule="evenodd" stroke="none"/>
    <path d="M-228.4 -230.25 L-228.25 -229.9 -234.75 -224.4 -237.65 -224.5 -228.4 -230.25" fill="url(#gradient3)" fill-rule="evenodd" stroke="none"/>
    <path d="M-172.25 -241.5 L-173.25 -241.65 -175.0 -243.15 -170.5 -242.0 -171.9 -242.0 -172.25 -241.5 M-228.25 -229.9 L-228.4 -230.25 -228.15 -230.4 -226.15 -232.15 -226.25 -231.75 -227.0 -230.25 -227.25 -230.0 -228.25 -229.9" fill="url(#gradient4)" fill-rule="evenodd" stroke="none"/>
    <path d="M-227.25 -230.0 L-227.0 -230.25 -227.25 -229.75 -227.25 -230.0 M-226.25 -231.75 L-226.15 -232.15 -225.9 -232.4 -226.25 -231.75" fill="url(#gradient5)" fill-rule="evenodd" stroke="none"/>
    <path d="M-173.25 -241.65 L-162.5 -232.25 -172.75 -234.9 -187.5 -234.0 -203.0 -228.15 -212.75 -219.75 -215.4 -216.75 -214.9 -214.5 Q-216.25 -214.0 -218.0 -205.15 L-216.65 -198.25 -212.65 -193.15 Q-213.65 -191.75 -209.25 -182.15 L-202.25 -174.75 -198.15 -172.65 -184.25 -170.9 -173.5 -162.4 -171.5 -161.4 -183.5 -164.9 -238.15 -155.5 -248.5 -143.9 -245.4 -152.25 -245.0 -158.65 -241.9 -162.15 Q-240.15 -167.9 -234.9 -171.65 L-229.75 -180.9 -228.4 -190.25 -222.25 -199.25 -220.4 -206.75 -221.75 -213.4 -218.65 -215.75 -218.0 -216.65 Q-216.9 -219.5 -222.9 -221.5 L-233.0 -223.9 -227.25 -229.75 -227.0 -230.25 -226.25 -231.75 -225.9 -232.4 -220.15 -244.5 -186.65 -251.5 -185.75 -251.5 -175.0 -243.15 -173.25 -241.65 M-158.25 -157.5 L-153.15 -157.65 -150.9 -159.15 -151.4 -155.4 -158.25 -157.5 M-256.25 -136.65 L-256.4 -137.15 -253.4 -138.25 -255.65 -135.5 -256.25 -136.65" fill="url(#gradient6)" fill-rule="evenodd" stroke="none"/>
    <path d="M-126.15 -172.25 L-123.15 -142.25 -126.5 -154.15 -151.4 -155.4 -150.9 -159.15 -149.15 -158.65 -146.75 -158.65 -140.75 -161.4 -134.75 -168.15 -134.25 -169.25 -134.15 -169.75 -130.75 -169.65 -130.15 -170.15 Q-127.25 -171.65 -128.25 -187.0 L-127.25 -184.5 -126.15 -172.25 M-172.25 -241.5 L-133.5 -220.9 -131.5 -204.0 Q-142.0 -227.5 -162.5 -232.25 L-173.25 -241.65 -172.25 -241.5" fill="url(#gradient7)" fill-rule="evenodd" stroke="none"/>
    <path d="M-162.5 -232.25 Q-142.0 -227.5 -131.5 -204.0 L-129.5 -200.5 -129.15 -198.5 -128.0 -193.9 -128.25 -187.0 Q-127.25 -171.65 -130.15 -170.15 L-130.75 -169.65 -134.15 -169.75 -134.25 -169.25 -134.75 -168.15 -140.75 -161.4 -146.75 -158.65 -149.15 -158.65 -150.9 -159.15 -153.15 -157.65 -158.25 -157.5 -159.75 -157.5 -164.4 -158.65 -171.5 -161.4 -173.5 -162.4 -184.25 -170.9 -198.15 -172.65 -202.25 -174.75 -209.25 -182.15 Q-213.65 -191.75 -212.65 -193.15 L-216.65 -198.25 -218.0 -205.15 Q-216.25 -214.0 -214.9 -214.5 L-215.4 -216.75 -212.75 -219.75 -203.0 -228.15 -187.5 -234.0 -172.75 -234.9 -162.5 -232.25" fill="url(#gradient8)" fill-rule="evenodd" stroke="none"/>
    <path d="M-248.5 -143.9 L-238.15 -155.5 -183.5 -164.9 -171.5 -161.4 -164.4 -158.65 -159.75 -157.5 -158.25 -157.5 -151.4 -155.4 -162.75 -107.0 -159.75 -30.75 -182.0 -37.9 -241.65 -30.75 -253.25 -19.9 -247.65 -95.0 -255.65 -135.5 -253.4 -138.25 -250.65 -140.9 -248.5 -143.9" fill="url(#gradient9)" fill-rule="evenodd" stroke="none"/>
    <path d="M-234.75 -224.4 L-228.25 -229.9 -227.25 -230.0 -227.25 -229.75 -233.0 -223.9 -234.75 -224.4" fill="url(#gradient10)" fill-rule="evenodd" stroke="none"/>
    <path d="M-131.65 -300.0 L-98.15 -299.9 Q-93.25 -262.5 -111.5 -233.15 L-126.75 -235.5 -121.25 -250.75 -121.25 -252.5 -118.25 -270.25 -127.15 -276.9 -116.25 -283.4 -113.9 -284.75 -116.15 -287.15 -122.65 -295.25 -123.4 -295.75 -126.9 -277.25 -127.25 -277.15 -131.65 -300.0" fill="url(#gradient11)" fill-rule="evenodd" stroke="none"/>
    <path d="M-126.65 -230.65 L-121.15 -211.5 -120.75 -209.15 -129.15 -198.5 -129.5 -200.5 -131.5 -204.0 -133.5 -220.9 -172.25 -241.5 -171.9 -242.0 -170.5 -242.0 -133.0 -236.4 -126.65 -230.65" fill="url(#gradient12)" fill-rule="evenodd" stroke="none"/>
    <path d="M-111.5 -233.15 L-110.15 -232.9 -126.65 -230.65 -133.0 -236.4 -130.5 -236.0 -126.75 -235.5 -111.5 -233.15" fill="url(#gradient13)" fill-rule="evenodd" stroke="none"/>
    <path d="M-110.15 -232.9 L-74.4 -228.0 -47.65 -226.0 -4.5 -221.25 -16.65 -201.75 -27.65 -173.65 -45.0 -172.75 -62.9 -174.9 -85.5 -180.0 -110.9 -182.0 -120.75 -209.15 -121.15 -211.5 -126.65 -230.65 -110.15 -232.9" fill="url(#gradient14)" fill-rule="evenodd" stroke="none"/>
    <path d="M-4.5 -221.25 L-0.9 -221.5 -0.9 -172.75 -27.25 -173.65 -27.65 -173.65 -16.65 -201.75 -4.5 -221.25" fill="url(#gradient15)" fill-rule="evenodd" stroke="none"/>
    <path d="M-0.9 -172.75 L-0.9 -170.0 -7.75 -166.75 -27.25 -173.65 -0.9 -172.75" fill="url(#gradient16)" fill-rule="evenodd" stroke="none"/>
    <path d="M-7.75 -166.75 L-50.5 -159.9 -77.0 -168.5 -104.9 -179.5 -110.9 -182.0 -85.5 -180.0 -62.9 -174.9 -45.0 -172.75 -27.65 -173.65 -27.25 -173.65 -7.75 -166.75" fill="url(#gradient17)" fill-rule="evenodd" stroke="none"/>
    <path d="M-267.0 -216.75 L-281.15 -236.9 -286.25 -248.65 -290.65 -263.75 -292.75 -278.4 -292.4 -289.25 -291.4 -299.75 -285.65 -300.0 -286.5 -280.75 -281.5 -272.25 -281.15 -255.75 -273.9 -243.75 -274.5 -243.65 -281.65 -245.9 -282.15 -245.75 -279.5 -242.5 -273.0 -232.9 -274.4 -227.65 -262.9 -218.9 -266.0 -217.65 -267.0 -216.75" fill="url(#gradient18)" fill-rule="evenodd" stroke="none"/>
    <path d="M-104.9 -179.5 L-126.15 -172.25 -127.25 -184.5 -128.25 -187.0 -128.0 -193.9 -129.15 -198.5 -120.75 -209.15 -110.9 -182.0 -104.9 -179.5" fill="url(#gradient19)" fill-rule="evenodd" stroke="none"/>
    <path d="M-369.0 -133.25 L-342.4 -149.65 -290.0 -186.4 -286.0 -190.65 -286.15 -189.0 -286.75 -187.9 -289.0 -179.4 -289.15 -172.15 -286.9 -163.5 -283.75 -153.75 -281.4 -149.5 -281.0 -149.4 -280.4 -147.75 -284.15 -146.5 -321.65 -119.0 -323.65 -114.0 -343.25 -111.25 -360.9 -127.75 -369.0 -133.25" fill="url(#gradient20)" fill-rule="evenodd" stroke="none"/>
    <path d="M-391.0 -102.65 L-388.75 -110.15 -369.0 -133.25 -360.9 -127.75 -343.25 -111.25 -343.25 -110.75 -343.0 -110.0 -341.5 -96.4 -335.75 -87.4 -361.4 -87.5 -373.5 -76.5 -388.0 -91.15 -391.0 -102.65" fill="url(#gradient21)" fill-rule="evenodd" stroke="none"/>
    <path d="M-389.0 -85.0 L-392.0 -96.65 -391.0 -102.65 -388.0 -91.15 -389.0 -85.0" fill="url(#gradient22)" fill-rule="evenodd" stroke="none"/>
    <path d="M-321.5 -10.0 L-339.5 -29.25 -356.0 -45.65 -375.65 -69.5 -388.65 -84.15 -389.0 -85.0 -388.0 -91.15 -373.5 -76.5 -362.65 -65.9 -350.25 -51.25 -349.9 -51.25 -332.5 -33.0 -321.15 -23.65 Q-324.0 -17.25 -321.5 -10.0" fill="url(#gradient23)" fill-rule="evenodd" stroke="none"/>
    <path d="M-123.15 -142.25 L-129.5 -97.4 -131.9 -65.0 -127.75 -10.5 -128.4 -11.0 -128.4 -11.15 -128.65 -11.4 -128.75 -11.65 -129.15 -12.25 -129.25 -12.5 -130.0 -14.0 -131.5 -15.65 -131.75 -16.15 -132.15 -16.5 -136.4 -22.4 -136.65 -22.9 -159.75 -30.75 -162.75 -107.0 -151.4 -155.4 -126.5 -154.15 -123.15 -142.25" fill="url(#gradient24)" fill-rule="evenodd" stroke="none"/>
    <path d="M-145.9 -0.9 L-262.0 -0.9 -256.25 -13.65 -255.65 -15.0 -255.5 -15.75 -253.25 -19.9 -241.65 -30.75 -182.0 -37.9 -159.75 -30.75 -145.9 -0.9" fill="url(#gradient25)" fill-rule="evenodd" stroke="none"/>
    <path d="M-255.5 -15.75 L-251.5 -59.9 -250.75 -77.0 -265.15 -129.0 -260.65 -132.15 -258.75 -132.9 -257.5 -133.65 -256.9 -134.9 -255.65 -135.5 -247.65 -95.0 -253.25 -19.9 -255.5 -15.75" fill="url(#gradient26)" fill-rule="evenodd" stroke="none"/>
    <path d="M-272.65 -140.0 L-276.0 -137.5 -302.65 -123.65 -319.5 -113.15 -323.65 -114.0 -321.65 -119.0 -284.15 -146.5 -280.4 -147.75 -272.65 -140.0" fill="url(#gradient27)" fill-rule="evenodd" stroke="none"/>
    <path d="M-319.5 -113.15 L-335.5 -92.9 -341.75 -107.25 -341.9 -107.5 -342.0 -107.9 -342.9 -110.0 -343.0 -110.0 -343.25 -110.75 -343.25 -111.25 -323.65 -114.0 -319.5 -113.15" fill="url(#gradient28)" fill-rule="evenodd" stroke="none"/>
    <path d="M-265.15 -129.0 L-266.25 -134.65 -260.65 -132.15 -265.15 -129.0 M-255.65 -135.5 L-256.9 -134.9 -256.25 -136.65 -255.65 -135.5" fill="url(#gradient29)" fill-rule="evenodd" stroke="none"/>
    <path d="M-335.5 -92.9 L-331.75 -83.5 -335.0 -87.0 -335.75 -87.4 -341.5 -96.4 -343.0 -110.0 -342.9 -110.0 -342.0 -107.9 -341.9 -107.5 -341.75 -107.25 -335.5 -92.9" fill="url(#gradient30)" fill-rule="evenodd" stroke="none"/>
    <path d="M-331.75 -83.5 L-308.75 -59.0 -300.5 -50.75 -290.15 -38.0 -292.25 -37.0 -299.0 -33.9 Q-299.5 -36.0 -307.25 -35.75 L-312.65 -34.5 -318.75 -29.15 -321.15 -23.65 -332.5 -33.0 -349.9 -51.25 -350.25 -51.25 -362.65 -65.9 -373.5 -76.5 -361.4 -87.5 -335.75 -87.4 -335.0 -87.0 -331.75 -83.5" fill="url(#gradient31)" fill-rule="evenodd" stroke="none"/>
    <path d="M-290.15 -38.0 L-288.65 -34.75 -288.4 -33.9 -288.65 -33.65 -292.25 -37.0 -290.15 -38.0" fill="url(#gradient32)" fill-rule="evenodd" stroke="none"/>
    <path d="M-288.65 -34.75 Q-282.65 -32.9 -279.65 -20.25 L-279.65 -16.5 -280.4 -12.5 -283.4 -6.25 Q-285.9 -2.4 -288.0 -1.15 L-314.9 -0.9 Q-317.9 -2.4 -321.5 -10.0 -324.0 -17.25 -321.15 -23.65 L-318.75 -29.15 -312.65 -34.5 -307.25 -35.75 Q-299.5 -36.0 -299.0 -33.9 L-292.25 -37.0 -288.65 -33.65 -288.4 -33.9 -288.65 -34.75" fill="url(#gradient33)" fill-rule="evenodd" stroke="none"/>
    <path d="M-126.5 -8.4 L-126.5 -8.25 -125.5 -6.75 -121.65 -1.25 -121.75 -0.9 -145.9 -0.9 -159.75 -30.75 -136.65 -22.9 -136.4 -22.4 -132.15 -16.5 -131.75 -16.15 -131.5 -15.65 -129.25 -12.5 -129.15 -12.25 -128.75 -11.65 -128.65 -11.4 -128.4 -11.15 -128.4 -11.0 -126.5 -8.4" fill="url(#gradient34)" fill-rule="evenodd" stroke="none"/>
    <path d="M-262.0 -0.9 L-262.9 -1.15 -256.25 -13.65 -262.0 -0.9" fill="url(#gradient35)" fill-rule="evenodd" stroke="none"/>
    <path d="M-127.75 -10.5 L-126.5 -8.4 -128.4 -11.0 -127.75 -10.5 M-131.5 -15.65 L-130.0 -14.0 -129.25 -12.5 -131.5 -15.65" fill="url(#gradient36)" fill-rule="evenodd" stroke="none"/>
    <path d="M-260.0 -223.5 L-257.9 -224.15 -253.4 -225.0 -252.75 -226.5 -252.65 -226.9 -252.4 -227.25 -252.5 -227.75 -251.9 -228.65 -252.0 -229.15 -251.5 -230.0 -250.9 -231.9 -250.9 -232.15 -250.75 -232.25 -250.9 -232.5 -250.65 -232.75 -248.65 -238.25 -248.25 -238.5 -247.75 -238.65 -247.15 -238.65 -241.75 -239.0 -241.4 -238.15 -241.0 -239.15 -240.9 -239.65 -241.0 -240.0 -241.0 -240.15 -240.25 -240.15 -234.75 -240.75 -234.15 -240.75 -230.0 -235.5 -229.5 -235.15 -227.4 -232.5 -227.15 -231.9 -226.75 -231.65 -227.0 -231.5 -228.15 -230.4 -232.4 -227.9 -240.4 -237.4 -241.4 -238.15 -241.4 -237.4 -244.75 -227.0 -246.5 -226.5 -246.5 -226.4 -246.75 -226.4 -247.15 -226.25 -247.25 -226.25 -247.75 -226.15 -249.5 -225.9 -251.25 -225.5 -252.0 -225.15 -253.4 -225.0 -253.4 -224.75 -260.0 -223.5 M-176.25 -230.75 L-176.15 -231.5 -175.5 -233.65 -175.4 -234.15 -175.4 -234.75 -174.15 -239.65 -174.0 -240.0 -172.75 -240.25 -172.5 -240.25 -172.4 -240.25 -171.9 -240.4 -172.0 -240.5 -170.75 -240.65 -167.25 -241.5 -166.9 -241.5 -165.0 -241.25 -165.0 -241.9 -162.15 -242.65 -155.9 -239.9 -155.25 -239.75 -145.65 -235.4 -144.5 -235.0 -134.0 -230.25 -151.4 -230.4 -151.75 -230.5 -176.25 -230.75 M-169.65 -241.4 L-169.65 -241.9 -168.4 -241.75 -169.25 -241.4 -169.65 -241.4 M-169.75 -242.0 L-170.65 -242.0 -173.9 -242.9 -175.9 -250.75 -176.0 -251.75 -175.4 -251.9 -169.9 -253.9 -169.9 -248.4 -169.75 -248.15 -169.75 -242.0 M-161.9 -255.9 L-161.4 -253.9 -161.5 -253.5 -160.5 -243.0 -160.9 -243.0 -163.25 -243.25 -165.0 -242.75 -165.15 -249.75 -165.0 -250.15 -165.0 -254.0 -161.9 -255.9" fill="#9b0000" fill-opacity="0.9098039" fill-rule="evenodd" stroke="none"/>
    <path d="M-247.15 -238.65 L-241.75 -239.9 -241.75 -240.0 -241.0 -240.0 -240.9 -239.65 -241.0 -239.15 -241.4 -238.15 -241.75 -239.0 -247.15 -238.65 M-247.25 -226.25 L-247.65 -226.15 -247.75 -226.15 -249.4 -225.75 -249.4 -225.65 -251.0 -225.25 -252.0 -225.15 -252.15 -225.0 -253.4 -224.75 -253.4 -225.0 -252.0 -225.15 -251.25 -225.5 -249.5 -225.9 -247.75 -226.15 -247.25 -226.25 M-169.65 -241.9 L-169.75 -242.0 -169.75 -248.15 -169.9 -248.4 -169.9 -253.9 -161.9 -255.9 -165.0 -254.0 -165.0 -250.15 -165.15 -249.75 -165.0 -242.75 -165.25 -242.75 -165.25 -242.65 -168.4 -241.75 -169.65 -241.9 M-160.9 -243.0 L-162.15 -242.65 -163.25 -243.25 -160.9 -243.0 M-165.0 -241.9 L-165.0 -241.25 -166.9 -241.5 -165.0 -241.9" fill="#a90000" fill-rule="evenodd" stroke="none"/>
    <path d="M-172.5 -240.25 L-172.0 -240.5 -172.0 -240.65 -171.65 -240.65 -171.15 -240.75 -171.15 -240.9 -170.75 -240.9 -170.65 -241.0 -169.75 -241.25 -169.65 -241.4 -169.25 -241.4 -168.4 -241.75 -165.25 -242.65 -165.25 -242.75 -165.0 -242.75 -163.25 -243.25 -162.15 -242.65 -165.0 -241.9 -166.9 -241.5 -167.25 -241.5 -170.75 -240.65 -172.0 -240.5 -171.9 -240.4 -172.4 -240.25 -172.5 -240.25" fill="#aa0000" fill-rule="evenodd" stroke="none"/>
    <path d="M-134.0 -230.25 L-133.65 -229.65 -132.9 -222.25 -133.0 -221.75 -132.75 -220.15 -132.65 -219.75 -131.4 -209.0 -131.65 -208.0 -131.75 -208.0 -131.9 -205.4 -132.15 -205.15 -132.0 -204.5 -132.25 -203.4 -132.25 -202.65 -132.5 -201.65 -132.65 -201.65 -132.4 -201.0 -132.5 -200.75 -132.9 -198.0 -133.15 -197.15 -133.15 -196.25 -133.4 -195.15 -133.5 -195.15 -133.4 -194.4 -134.0 -189.75 -134.25 -188.9 -134.25 -188.0 -134.5 -186.15 -134.75 -185.75 -134.65 -185.15 -136.15 -174.25 -136.4 -173.9 -136.25 -173.4 -136.5 -171.5 -136.65 -171.25 -136.65 -170.65 -136.75 -170.15 -180.4 -174.5 -182.9 -174.5 -227.9 -165.65 -250.75 -162.5 -251.5 -161.5 -251.75 -161.25 -252.0 -161.15 -252.15 -160.9 -252.4 -160.9 -252.75 -160.25 -258.9 -153.75 -259.0 -153.5 -260.9 -151.5 -261.15 -151.5 -261.4 -151.0 -263.5 -148.75 -263.65 -148.75 -268.4 -143.65 -268.5 -143.4 -269.25 -142.65 -269.65 -142.4 -269.75 -142.15 -270.4 -141.5 -270.5 -141.25 -271.0 -140.75 -271.25 -140.65 -272.25 -139.75 -272.65 -140.0 -273.4 -139.5 -275.4 -142.65 -276.75 -144.25 -281.4 -150.75 -281.5 -151.15 -282.65 -153.15 -284.0 -154.65 -284.15 -155.25 -284.4 -155.75 -286.5 -162.65 -286.5 -162.75 -286.65 -163.0 -286.75 -163.25 -286.9 -163.9 -287.4 -165.4 -287.4 -165.65 -287.65 -166.25 -289.15 -172.9 -289.0 -173.25 -288.75 -180.65 -287.5 -185.5 -288.15 -188.25 -288.15 -188.5 -285.5 -191.15 -285.5 -191.25 -285.25 -192.5 -285.25 -192.65 -283.25 -199.25 -282.75 -199.9 -281.15 -202.75 -280.9 -203.0 -279.65 -203.25 -279.25 -203.5 -278.75 -203.5 -278.15 -203.9 -276.4 -204.25 -276.15 -204.5 -268.75 -206.65 -268.15 -207.0 -267.15 -207.25 -257.65 -202.15 -256.5 -201.65 -255.9 -201.25 -229.0 -187.15 -228.9 -186.9 -221.65 -183.25 -214.9 -188.5 -214.75 -188.75 -212.65 -190.4 -212.5 -190.4 -208.4 -193.5 -208.0 -194.15 -206.9 -194.75 -204.25 -197.0 -203.65 -197.4 -181.9 -214.5 -176.25 -230.75 -151.75 -230.5 -151.4 -230.4 -134.0 -230.25 M-170.25 -204.15 L-171.0 -203.15 -171.0 -202.65 -170.4 -201.4 -170.25 -200.4 -170.0 -200.4 -168.9 -202.0 -168.75 -202.4 -168.75 -202.9 -170.15 -204.5 -170.25 -204.15 M-270.4 -177.5 L-272.0 -181.65 -270.9 -176.9 -270.9 -176.75 -271.0 -176.5 -270.75 -176.4 -270.5 -176.25 -270.4 -177.0 -270.25 -177.4 -270.4 -177.5" fill="#b00000" fill-opacity="0.9098039" fill-rule="evenodd" stroke="none"/>
    <path d="M-133.65 -229.65 L-131.15 -224.5 -131.25 -224.25 -126.65 -214.5 -123.0 -206.25 -122.0 -204.5 -122.0 -203.9 -113.9 -186.5 -112.9 -182.25 -112.75 -181.0 -111.9 -177.0 -126.15 -172.25 -126.0 -169.25 -125.9 -168.65 -125.9 -166.75 -126.15 -166.9 -127.0 -167.0 -127.25 -167.25 -127.65 -167.25 -133.65 -169.15 -134.25 -169.4 -134.65 -169.5 -135.65 -169.9 -136.75 -170.15 -136.65 -170.65 -136.65 -171.25 -136.5 -171.5 -136.25 -173.4 -136.4 -173.9 -136.15 -174.25 -134.65 -185.15 -134.75 -185.75 -134.5 -186.15 -134.25 -188.0 -134.25 -188.9 -134.0 -189.75 -133.4 -194.4 -133.5 -195.15 -133.4 -195.15 -133.15 -196.25 -133.15 -197.15 -132.9 -198.0 -132.5 -200.75 -132.4 -201.0 -132.65 -201.65 -132.5 -201.65 -132.25 -202.65 -132.25 -203.4 -132.0 -204.5 -132.15 -205.15 -131.9 -205.4 -131.75 -208.0 -131.65 -208.0 -131.4 -209.0 -132.65 -219.75 -132.75 -220.15 -133.0 -221.75 -132.9 -222.25 -133.65 -229.65" fill="#d30000" fill-opacity="0.9098039" fill-rule="evenodd" stroke="none"/>
    <path d="M-272.25 -139.75 L-271.25 -140.65 -271.0 -140.75 -270.5 -141.25 -270.4 -141.5 -269.75 -142.15 -269.65 -142.4 -269.25 -142.65 -268.5 -143.4 -268.4 -143.65 -263.65 -148.75 -263.5 -148.75 -261.4 -151.0 -261.15 -151.5 -260.9 -151.5 -259.0 -153.5 -258.9 -153.75 -252.75 -160.25 -252.4 -160.9 -252.15 -160.9 -252.0 -161.15 -251.75 -161.25 -251.5 -161.5 -250.75 -162.5 -227.9 -165.65 -182.9 -174.5 -180.4 -174.5 -136.75 -170.15 -136.75 -170.0 -136.9 -169.65 -137.0 -169.25 -137.15 -168.9 -137.25 -168.4 -137.5 -167.65 -137.75 -167.25 -137.9 -166.9 -137.9 -166.5 -138.0 -166.0 -138.15 -165.65 -138.25 -165.25 -138.4 -164.9 -138.5 -164.5 -138.65 -164.15 -138.75 -163.75 -139.0 -163.25 -139.15 -163.15 -141.75 -154.25 -141.9 -153.9 -142.0 -153.5 -142.15 -153.15 -143.25 -149.5 -143.4 -149.15 -143.5 -148.75 -143.65 -148.4 -143.75 -148.0 -143.9 -147.65 -144.0 -147.15 -144.9 -144.4 -145.0 -144.0 -145.15 -143.65 -145.25 -143.25 -145.4 -142.9 -145.5 -142.5 -145.65 -142.15 -145.75 -141.65 -146.65 -138.9 -146.75 -138.5 -146.9 -138.15 -147.0 -137.75 -147.15 -137.4 -147.5 -136.15 -147.75 -135.65 -147.9 -135.65 -148.25 -133.75 -148.4 -133.4 -148.5 -133.0 -148.65 -132.65 -148.75 -132.25 -148.9 -131.9 -149.25 -130.65 -149.9 -128.75 -150.0 -128.25 -150.15 -127.9 -150.25 -127.5 -150.4 -127.15 -150.5 -126.75 -150.65 -126.4 -151.0 -125.15 -151.65 -123.25 -151.75 -122.75 -151.9 -122.4 -152.0 -122.0 -152.15 -121.65 -152.25 -121.25 -152.4 -120.9 -152.5 -120.4 -153.4 -117.65 -153.5 -117.25 -153.65 -116.9 -153.75 -116.5 -153.9 -116.15 -154.0 -115.75 -154.15 -115.4 -154.25 -114.9 -155.15 -112.15 -155.25 -111.75 -155.4 -111.4 -155.5 -111.0 -155.65 -110.65 -155.5 -103.15 -155.4 -102.9 -155.15 -95.75 -154.9 -95.0 -154.25 -79.5 -154.15 -79.25 -153.9 -71.5 -153.75 -70.75 -153.15 -53.25 -153.75 -48.0 -153.65 -47.5 -155.25 -29.15 -155.65 -26.75 -155.5 -26.4 -155.65 -24.65 -155.65 -24.25 -177.15 -30.9 -177.4 -31.0 -182.65 -32.5 -184.65 -32.5 -184.9 -32.4 -253.0 -24.25 -254.25 -24.0 -254.5 -23.5 -254.9 -23.4 -254.0 -32.15 -253.9 -32.4 -253.65 -33.9 -253.65 -34.15 -253.15 -40.5 -253.0 -40.9 -253.0 -41.5 -252.9 -42.25 -252.9 -42.65 -251.5 -59.5 -250.9 -77.4 -251.0 -78.5 -259.75 -108.9 -265.15 -129.0 -266.15 -134.5 -266.4 -134.75 -268.15 -135.65 -272.25 -139.4 -272.25 -139.75" fill="#a70000" fill-opacity="0.9098039" fill-rule="evenodd" stroke="none"/>
    <path d="M-290.25 -199.5 L-289.9 -200.15 -281.15 -202.75 -282.75 -199.9 -283.25 -199.25 -285.25 -192.65 -285.25 -192.5 -285.5 -191.25 -285.5 -191.15 -288.15 -188.5 -290.25 -199.5 M-273.4 -139.5 L-272.65 -140.0 -272.25 -139.75 -272.25 -139.4 -272.9 -138.75 -273.4 -139.5" fill="#c20000" fill-opacity="0.9098039" fill-rule="evenodd" stroke="none"/>
    <path d="M-111.9 -177.0 L-107.4 -153.5 -107.25 -150.5 -107.75 -149.9 -110.65 -161.9 -125.65 -166.5 -125.9 -166.65 -125.9 -166.75 -125.9 -168.65 -126.0 -169.25 -126.15 -172.25 -111.9 -177.0 M-284.0 -154.65 L-282.65 -153.15 -281.5 -151.15 -281.4 -150.75 -276.75 -144.25 -275.4 -142.65 -273.4 -139.5 -275.75 -137.75 -276.75 -137.15 -277.25 -139.25 -277.75 -140.15 -279.75 -147.0 -280.15 -147.5 -280.4 -147.75 -280.65 -148.5 -280.75 -148.65 -281.0 -149.4 -283.15 -152.65 -284.0 -154.65" fill="#e80000" fill-opacity="0.9098039" fill-rule="evenodd" stroke="none"/>
    <path d="M-285.4 -132.5 L-297.65 -174.25 -284.4 -155.75 -284.15 -155.25 -284.0 -154.65 -283.15 -152.65 -281.0 -149.4 -280.75 -148.65 -280.65 -148.5 -280.4 -147.75 -280.15 -147.5 -279.75 -147.0 -277.75 -140.15 -277.25 -139.25 -276.75 -137.15 -285.4 -132.5" fill="#fb0000" fill-rule="evenodd" stroke="none"/>
    <path d="M-119.9 -0.9 L-121.5 -0.9 -127.9 -10.25 -127.9 -10.5 -128.0 -10.75 -127.9 -10.9 -127.9 -12.0 -128.0 -12.0 -128.0 -13.9 -128.15 -13.9 -128.15 -14.65 -125.9 -11.65 -125.65 -11.4 -125.5 -11.15 -125.25 -10.9 -125.15 -10.65 -124.9 -10.25 -124.65 -10.0 -124.5 -9.75 -124.25 -9.5 -124.15 -9.25 -123.9 -8.9 -123.5 -8.5 -123.5 -8.4 -123.4 -8.15 -120.75 -4.4 -120.5 -3.9 -120.4 -3.4 -119.9 -0.9 M-297.65 -174.25 L-297.75 -175.15 -297.4 -175.9 -297.5 -176.25 -297.0 -177.25 -295.5 -182.65 -295.4 -182.75 -295.4 -182.9 -289.25 -187.0 -288.15 -188.25 -287.5 -185.5 -288.75 -180.65 -289.0 -173.25 -289.15 -172.9 -287.65 -166.25 -287.4 -165.65 -287.4 -165.4 -286.9 -163.9 -286.75 -163.25 -286.65 -163.0 -286.5 -162.75 -286.5 -162.65 -284.4 -155.75 -297.65 -174.25" fill="#c30000" fill-rule="evenodd" stroke="none"/>
    <path d="M-295.4 -182.9 L-290.25 -199.5 -288.15 -188.5 -288.15 -188.25 -289.25 -187.0 -295.4 -182.9" fill="#c50000" fill-rule="evenodd" stroke="none"/>
    <path d="M-289.9 -200.15 L-270.15 -221.0 -267.0 -216.75 -280.0 -204.5 -280.9 -203.0 -281.15 -202.75 -289.9 -200.15" fill="#b90000" fill-opacity="0.9098039" fill-rule="evenodd" stroke="none"/>
    <path d="M-270.15 -221.0 L-270.15 -221.15 -269.15 -221.75 -267.65 -222.0 -267.15 -222.15 -267.0 -222.15 -266.65 -222.25 -264.9 -222.5 -265.0 -222.65 -263.4 -222.75 -263.4 -222.9 -260.15 -223.4 -261.4 -220.4 -261.75 -220.0 -261.75 -219.4 -262.0 -219.15 -262.15 -219.15 -262.4 -218.0 -262.65 -217.75 -262.9 -217.0 -263.15 -216.75 -263.9 -214.65 -264.15 -214.25 -264.9 -212.25 -265.15 -212.0 -266.65 -208.25 -267.0 -207.75 -267.15 -207.25 -268.15 -207.0 -268.75 -206.65 -276.15 -204.5 -276.4 -204.25 -278.15 -203.9 -278.75 -203.5 -279.25 -203.5 -279.65 -203.25 -280.9 -203.0 -280.0 -204.5 -267.0 -216.75 -270.15 -221.0" fill="#a80000" fill-opacity="0.9098039" fill-rule="evenodd" stroke="none"/>
    <path d="M-267.15 -222.15 L-266.65 -222.25 -265.0 -222.65 -263.4 -222.9 -261.75 -223.4 -260.0 -223.5 -260.15 -223.4 -263.4 -222.9 -263.4 -222.75 -265.0 -222.65 -264.9 -222.5 -266.65 -222.25 -267.0 -222.15 -267.15 -222.15" fill="#b60000" fill-rule="evenodd" stroke="none"/>
    <path d="M-136.75 -170.15 L-135.65 -169.9 -134.65 -169.5 -134.25 -169.4 -133.65 -169.15 -127.65 -167.25 -127.25 -167.25 -127.0 -167.0 -126.15 -166.9 -125.9 -166.75 -125.9 -166.65 -125.65 -166.5 -125.75 -166.15 -125.65 -165.5 -125.65 -165.4 -125.5 -164.75 -123.75 -147.15 -123.75 -146.65 -123.65 -146.25 -123.65 -144.5 -123.15 -141.65 -123.9 -137.5 -123.75 -137.15 -124.0 -136.9 -123.9 -136.25 -126.9 -115.4 -126.9 -115.25 -127.0 -115.0 -126.9 -114.75 -128.65 -102.65 -129.75 -94.25 -129.65 -94.0 -129.9 -93.9 -129.9 -93.4 -129.75 -92.4 -131.9 -65.75 -131.65 -58.75 -131.5 -58.25 -131.4 -54.65 -131.25 -54.25 -131.15 -53.5 -131.15 -52.9 -131.0 -52.9 -131.0 -52.65 -130.15 -41.5 -130.0 -41.25 -130.0 -39.75 -129.9 -39.5 -129.9 -38.0 -129.75 -37.75 -129.75 -36.4 -129.65 -36.15 -129.75 -34.9 -129.65 -34.5 -129.5 -34.4 -129.65 -33.75 -129.5 -32.75 -129.4 -30.5 -129.25 -29.25 -129.25 -29.0 -129.15 -28.0 -129.15 -27.9 -129.0 -27.5 -129.0 -26.15 -128.9 -25.75 -128.9 -24.15 -128.75 -23.9 -128.75 -22.5 -128.65 -22.5 -128.65 -20.9 -128.5 -20.9 -128.65 -20.65 -128.5 -20.25 -128.5 -19.25 -128.4 -19.25 -128.5 -19.15 -128.25 -17.5 -128.25 -15.15 -128.4 -15.25 -128.75 -15.25 -130.25 -15.75 -130.5 -16.0 -131.75 -16.15 -132.15 -16.4 -132.4 -16.65 -152.0 -23.0 -152.5 -23.4 -155.65 -24.25 -155.65 -24.65 -155.5 -26.4 -155.65 -26.75 -155.25 -29.15 -153.65 -47.5 -153.75 -48.0 -153.15 -53.25 -153.75 -70.75 -153.9 -71.5 -154.15 -79.25 -154.25 -79.5 -154.9 -95.0 -155.15 -95.75 -155.4 -102.9 -155.5 -103.15 -155.65 -110.65 -155.5 -111.0 -155.4 -111.4 -155.25 -111.75 -155.15 -112.15 -154.25 -114.9 -154.15 -115.4 -154.0 -115.75 -153.9 -116.15 -153.75 -116.5 -153.65 -116.9 -153.5 -117.25 -153.4 -117.65 -152.5 -120.4 -152.4 -120.9 -152.25 -121.25 -152.15 -121.65 -152.0 -122.0 -151.9 -122.4 -151.75 -122.75 -151.65 -123.25 -151.0 -125.15 -150.65 -126.4 -150.5 -126.75 -150.4 -127.15 -150.25 -127.5 -150.15 -127.9 -150.0 -128.25 -149.9 -128.75 -149.25 -130.65 -148.9 -131.9 -148.75 -132.25 -148.65 -132.65 -148.5 -133.0 -148.4 -133.4 -148.25 -133.75 -147.9 -135.65 -147.75 -135.65 -147.5 -136.15 -147.15 -137.4 -147.0 -137.75 -146.9 -138.15 -146.75 -138.5 -146.65 -138.9 -145.75 -141.65 -145.65 -142.15 -145.5 -142.5 -145.4 -142.9 -145.25 -143.25 -145.15 -143.65 -145.0 -144.0 -144.9 -144.4 -144.0 -147.15 -143.9 -147.65 -143.75 -148.0 -143.65 -148.4 -143.5 -148.75 -143.4 -149.15 -143.25 -149.5 -142.15 -153.15 -142.0 -153.5 -141.9 -153.9 -141.75 -154.25 -139.15 -163.15 -139.0 -163.25 -138.75 -163.75 -138.65 -164.15 -138.5 -164.5 -138.4 -164.9 -138.25 -165.25 -138.15 -165.65 -138.0 -166.0 -137.9 -166.5 -137.9 -166.9 -137.75 -167.25 -137.5 -167.65 -137.25 -168.4 -137.15 -168.9 -137.0 -169.25 -136.9 -169.65 -136.75 -170.0 -136.75 -170.15" fill="#dd0000" fill-opacity="0.9098039" fill-rule="evenodd" stroke="none"/>
    <path d="M-144.15 -0.9 L-262.9 -0.9 -255.65 -15.0 -255.5 -15.75 -255.5 -16.25 -255.4 -16.75 -255.4 -17.15 -255.25 -18.0 -254.9 -22.65 -255.0 -23.0 -254.9 -23.4 -254.5 -23.5 -254.25 -24.0 -253.0 -24.25 -184.9 -32.4 -184.65 -32.5 -182.65 -32.5 -177.4 -31.0 -177.15 -30.9 -155.65 -24.25 -144.15 -0.9" fill="#a50000" fill-opacity="0.9098039" fill-rule="evenodd" stroke="none"/>
    <path d="M-269.9 -0.9 L-272.75 -0.9 -271.25 -4.0 -271.25 -4.25 -270.25 -6.15 -270.25 -6.25 -270.15 -6.5 -270.0 -6.75 -269.9 -7.0 -269.75 -7.25 -269.65 -7.5 -267.9 -10.4 -267.75 -10.0 -269.9 -0.9 M-259.75 -108.9 L-251.0 -78.5 -250.9 -77.4 -251.5 -59.5 -252.9 -42.65 -252.9 -42.25 -253.0 -41.5 -253.0 -40.9 -253.15 -40.5 -253.65 -34.15 -253.65 -33.9 -253.9 -32.4 -254.0 -32.15 -254.9 -23.4 -255.0 -23.0 -267.5 -11.65 -268.5 -40.65 -263.4 -94.4 -266.9 -111.15 -267.15 -111.5 -268.5 -119.25 -259.75 -108.9" fill="#bc0000" fill-rule="evenodd" stroke="none"/>
    <path d="M-272.25 -139.4 L-268.15 -135.65 -266.4 -134.75 -266.15 -134.5 -265.15 -129.0 -259.75 -108.9 -268.5 -119.25 -269.0 -120.15 -272.9 -138.75 -272.25 -139.4" fill="#b80000" fill-opacity="0.9098039" fill-rule="evenodd" stroke="none"/>
    <path d="M-271.15 -5.0 L-272.4 -22.65 -269.25 -49.25 -267.65 -73.5 -284.5 -129.5 -284.65 -130.15 -285.4 -132.5 -276.75 -137.15 -276.4 -136.25 -276.65 -136.0 -272.9 -124.75 -269.0 -120.15 -268.5 -119.25 -267.15 -111.5 -266.9 -111.15 -263.4 -94.4 -268.5 -40.65 -267.5 -11.65 -267.75 -10.75 -267.9 -10.5 -267.9 -10.4 -269.65 -7.5 -269.75 -7.25 -269.9 -7.0 -270.0 -6.75 -270.15 -6.5 -270.25 -6.25 -270.25 -6.15 -271.15 -5.0" fill="#fd0000" fill-rule="evenodd" stroke="none"/>
    <path d="M-126.9 -115.4 L-123.9 -136.25 -124.0 -136.9 -123.75 -137.15 -123.9 -137.5 -123.15 -141.65 -123.65 -144.5 -123.65 -146.25 -123.75 -146.65 -123.75 -147.15 -125.5 -164.75 -125.65 -165.4 -125.65 -165.5 -125.75 -166.15 -125.65 -166.5 -110.65 -161.9 -107.75 -149.9 -107.75 -149.25 -107.9 -149.0 -107.75 -148.75 -107.9 -148.75 -108.0 -148.5 -108.0 -148.4 -112.0 -136.25 -112.0 -136.15 -112.4 -135.0 -112.5 -134.9 -113.4 -132.25 -126.9 -115.4" fill="#f40000" fill-opacity="0.9098039" fill-rule="evenodd" stroke="none"/>
    <path d="M-107.5 -148.4 L-107.75 -146.4 -107.65 -146.0 -116.65 -94.0 -116.65 -93.65 -116.5 -93.4 -116.75 -93.25 -117.65 -86.15 -119.65 -76.25 -119.65 -76.0 -119.9 -74.9 -120.0 -69.4 -119.75 -67.25 -119.4 -66.9 -119.4 -63.4 -117.5 -47.4 -115.4 -24.0 -115.15 -14.4 -120.0 -62.9 -128.65 -102.65 -126.9 -114.75 -127.0 -115.0 -126.9 -115.25 -126.9 -115.4 -113.4 -132.25 -112.5 -134.9 -112.4 -135.0 -112.0 -136.15 -112.0 -136.25 -108.0 -148.4 -108.0 -148.5 -107.9 -148.75 -107.75 -148.75 -107.5 -148.4" fill="#f40000" fill-rule="evenodd" stroke="none"/>
    <path d="M-107.25 -150.5 L-107.15 -150.0 -107.5 -148.4 -107.75 -148.75 -107.9 -149.0 -107.75 -149.25 -107.75 -149.9 -107.25 -150.5" fill="#ea0000" fill-rule="evenodd" stroke="none"/>
    <path d="M-276.75 -137.15 L-275.75 -137.75 -273.4 -139.5 -272.9 -138.75 -269.0 -120.15 -272.9 -124.75 -276.65 -136.0 -276.4 -136.25 -276.75 -137.15" fill="#ff0000" fill-opacity="0.9098039" fill-rule="evenodd" stroke="none"/>
    <path d="M-271.25 -4.25 L-271.15 -4.75 -271.15 -5.0 -270.25 -6.15 -271.25 -4.25" fill="#fe0000" fill-rule="evenodd" stroke="none"/>
    <path d="M-262.9 -0.9 L-269.9 -0.9 -267.75 -10.0 -267.9 -10.4 -267.9 -10.5 -267.75 -10.75 -267.5 -11.65 -255.0 -23.0 -254.9 -22.65 -255.25 -18.0 -255.4 -17.15 -255.4 -16.75 -255.5 -16.25 -255.5 -15.75 -255.65 -15.0 -262.9 -0.9" fill="#bb0000" fill-rule="evenodd" stroke="none"/>
    <path d="M-115.15 -14.4 L-115.0 -9.15 -115.9 -1.25 -116.0 -0.9 -117.75 -0.9 -118.9 -2.15 -120.15 -3.9 -120.65 -4.4 -123.4 -8.15 -123.5 -8.4 -123.5 -8.5 -123.9 -8.9 -124.15 -9.25 -124.25 -9.5 -124.5 -9.75 -124.65 -10.0 -124.9 -10.25 -125.15 -10.65 -125.25 -10.9 -125.5 -11.15 -125.65 -11.4 -125.9 -11.65 -128.15 -14.65 -128.15 -14.75 -128.25 -14.9 -128.25 -15.15 -128.25 -17.5 -128.5 -19.15 -128.4 -19.25 -128.5 -19.25 -128.5 -20.25 -128.65 -20.65 -128.5 -20.9 -128.65 -20.9 -128.65 -22.5 -128.75 -22.5 -128.75 -23.9 -128.9 -24.15 -128.9 -25.75 -129.0 -26.15 -129.0 -27.5 -129.15 -27.9 -129.15 -28.0 -129.25 -29.0 -129.25 -29.25 -129.4 -30.5 -129.5 -32.75 -129.65 -33.75 -129.5 -34.4 -129.65 -34.5 -129.75 -34.9 -129.65 -36.15 -129.75 -36.4 -129.75 -37.75 -129.9 -38.0 -129.9 -39.5 -130.0 -39.75 -130.0 -41.25 -130.15 -41.5 -131.0 -52.65 -131.0 -52.9 -131.15 -52.9 -131.15 -53.5 -131.25 -54.25 -131.4 -54.65 -131.5 -58.25 -131.65 -58.75 -131.9 -65.75 -129.75 -92.4 -129.9 -93.4 -129.9 -93.9 -129.65 -94.0 -129.75 -94.25 -128.65 -102.65 -120.0 -62.9 -115.15 -14.4" fill="#ee0000" fill-rule="evenodd" stroke="none"/>
    <path d="M-121.5 -0.9 L-144.15 -0.9 -155.65 -24.25 -152.5 -23.4 -152.0 -23.0 -132.4 -16.65 -132.15 -16.4 -131.75 -16.15 -130.5 -16.0 -130.25 -15.75 -128.75 -15.25 -128.4 -15.25 -128.25 -15.15 -128.25 -14.9 -128.15 -14.75 -128.15 -14.65 -128.15 -13.9 -128.0 -13.9 -128.0 -12.0 -127.9 -12.0 -127.9 -10.9 -128.0 -10.75 -127.9 -10.5 -127.9 -10.25 -121.5 -0.9" fill="#b30000" fill-opacity="0.9098039" fill-rule="evenodd" stroke="none"/>
    <path d="M-117.65 -86.15 L-117.5 -85.25 -119.4 -66.9 -119.75 -67.25 -120.0 -69.4 -119.9 -74.9 -119.65 -76.0 -119.65 -76.25 -117.65 -86.15 M-272.75 -0.9 L-273.15 -1.15 -271.25 -4.25 -271.25 -4.0 -272.75 -0.9" fill="#ff0000" fill-rule="evenodd" stroke="none"/>
    <path d="M-117.75 -0.9 L-118.5 -0.9 -120.4 -3.4 -120.5 -3.9 -120.75 -4.4 -123.4 -8.15 -120.65 -4.4 -120.15 -3.9 -118.9 -2.15 -117.75 -0.9" fill="#c80000" fill-rule="evenodd" stroke="none"/>
    <path d="M-118.5 -0.9 L-119.9 -0.9 -120.4 -3.4 -118.5 -0.9" fill="#ca0000" fill-rule="evenodd" stroke="none"/>
  </g>
  <defs>
    <radialGradient cx="0" cy="0" gradientTransform="matrix(0.2048, 0.0, 0.0, 0.2048, -141.0, -225.35)" gradientUnits="userSpaceOnUse" id="gradient0" r="819.2" spreadMethod="pad">
      <stop offset="0.0" stop-color="#5b5b5b"/>
      <stop offset="1.0" stop-color="#2b2b2b"/>
    </radialGradient>
    <radialGradient cx="0" cy="0" gradientTransform="matrix(0.1897, 0.0, 0.0, 0.1897, -270.2, -268.7)" gradientUnits="userSpaceOnUse" id="gradient1" r="819.2" spreadMethod="pad">
      <stop offset="0.0" stop-color="#7e7e7e"/>
      <stop offset="1.0" stop-color="#0a0a0a"/>
    </radialGradient>
    <radialGradient cx="0" cy="0" gradientTransform="matrix(0.0758, 0.0, 0.0, 0.0758, -254.45, -171.8)" gradientUnits="userSpaceOnUse" id="gradient2" r="819.2" spreadMethod="pad">
      <stop offset="0.0" stop-color="#858585"/>
      <stop offset="1.0" stop-color="#000000"/>
    </radialGradient>
    <radialGradient cx="0" cy="0" gradientTransform="matrix(0.0565, 0.0, 0.0, 0.0565, -224.85, -232.45)" gradientUnits="userSpaceOnUse" id="gradient3" r="819.2" spreadMethod="pad">
      <stop offset="0.0" stop-color="#000000"/>
      <stop offset="1.0" stop-color="#000000"/>
    </radialGradient>
    <radialGradient cx="0" cy="0" gradientTransform="matrix(0.1225, 0.0, 0.0, 0.1225, -232.3, -163.0)" gradientUnits="userSpaceOnUse" id="gradient4" r="819.2" spreadMethod="pad">
      <stop offset="0.0" stop-color="#010101"/>
      <stop offset="1.0" stop-color="#000000"/>
    </radialGradient>
    <radialGradient cx="0" cy="0" gradientTransform="matrix(0.0297, 0.0, 0.0, 0.0297, -220.0, -244.6)" gradientUnits="userSpaceOnUse" id="gradient5" r="819.2" spreadMethod="pad">
      <stop offset="0.0" stop-color="#000000"/>
      <stop offset="1.0" stop-color="#000000"/>
    </radialGradient>
    <radialGradient cx="0" cy="0" gradientTransform="matrix(0.1334, 0.0, 0.0, 0.1334, -238.1, -155.55)" gradientUnits="userSpaceOnUse" id="gradient6" r="819.2" spreadMethod="pad">
      <stop offset="0.0" stop-color="#6a6a6a"/>
      <stop offset="1.0" stop-color="#000000"/>
    </radialGradient>
    <radialGradient cx="0" cy="0" gradientTransform="matrix(0.1136, 0.0, 0.0, 0.1136, -125.35, -163.7)" gradientUnits="userSpaceOnUse" id="gradient7" r="819.2" spreadMethod="pad">
      <stop offset="0.0" stop-color="#3f3f3f"/>
      <stop offset="1.0" stop-color="#000000"/>
    </radialGradient>
    <radialGradient cx="0" cy="0" gradientTransform="matrix(0.0733, 0.0, 0.0, 0.0733, -186.6, -181.45)" gradientUnits="userSpaceOnUse" id="gradient8" r="819.2" spreadMethod="pad">
      <stop offset="0.0" stop-color="#878787"/>
      <stop offset="1.0" stop-color="#090909"/>
    </radialGradient>
    <radialGradient cx="0" cy="0" gradientTransform="matrix(0.1798, 0.0, 0.0, 0.1798, -238.1, -155.55)" gradientUnits="userSpaceOnUse" id="gradient9" r="819.2" spreadMethod="pad">
      <stop offset="0.0" stop-color="#6a6a6a"/>
      <stop offset="1.0" stop-color="#000000"/>
    </radialGradient>
    <radialGradient cx="0" cy="0" gradientTransform="matrix(0.0419, 0.0, 0.0, 0.0419, -248.65, -207.75)" gradientUnits="userSpaceOnUse" id="gradient10" r="819.2" spreadMethod="pad">
      <stop offset="0.0" stop-color="#000000"/>
      <stop offset="1.0" stop-color="#000000"/>
    </radialGradient>
    <radialGradient cx="0" cy="0" gradientTransform="matrix(0.0908, 0.0, 0.0, 0.0908, -114.7, -227.6)" gradientUnits="userSpaceOnUse" id="gradient11" r="819.2" spreadMethod="pad">
      <stop offset="0.0" stop-color="#414141"/>
      <stop offset="1.0" stop-color="#282828"/>
    </radialGradient>
    <radialGradient cx="0" cy="0" gradientTransform="matrix(0.0773, 0.0, 0.0, 0.0773, -120.7, -209.5)" gradientUnits="userSpaceOnUse" id="gradient12" r="819.2" spreadMethod="pad">
      <stop offset="0.0" stop-color="#595959"/>
      <stop offset="1.0" stop-color="#000000"/>
    </radialGradient>
    <radialGradient cx="0" cy="0" gradientTransform="matrix(0.0204, 0.0, 0.0, 0.0204, -126.7, -230.7)" gradientUnits="userSpaceOnUse" id="gradient13" r="819.2" spreadMethod="pad">
      <stop offset="0.0" stop-color="#000000"/>
      <stop offset="1.0" stop-color="#000000"/>
    </radialGradient>
    <radialGradient cx="0" cy="0" gradientTransform="matrix(0.1108, 0.0, 0.0, 0.1108, -94.85, -212.7)" gradientUnits="userSpaceOnUse" id="gradient14" r="819.2" spreadMethod="pad">
      <stop offset="0.0" stop-color="#616161"/>
      <stop offset="1.0" stop-color="#000000"/>
    </radialGradient>
    <radialGradient cx="0" cy="0" gradientTransform="matrix(0.0646, 0.0, 0.0, 0.0646, -4.5, -221.3)" gradientUnits="userSpaceOnUse" id="gradient15" r="819.2" spreadMethod="pad">
      <stop offset="0.0" stop-color="#000000"/>
      <stop offset="1.0" stop-color="#000000"/>
    </radialGradient>
    <radialGradient cx="0" cy="0" gradientTransform="matrix(0.0327, 0.0, 0.0, 0.0327, -27.55, -173.75)" gradientUnits="userSpaceOnUse" id="gradient16" r="819.2" spreadMethod="pad">
      <stop offset="0.0" stop-color="#000000"/>
      <stop offset="1.0" stop-color="#000000"/>
    </radialGradient>
    <radialGradient cx="0" cy="0" gradientTransform="matrix(0.1024, 0.0, 0.0, 0.1024, -27.55, -173.75)" gradientUnits="userSpaceOnUse" id="gradient17" r="819.2" spreadMethod="pad">
      <stop offset="0.0" stop-color="#000000"/>
      <stop offset="1.0" stop-color="#000000"/>
    </radialGradient>
    <radialGradient cx="0" cy="0" gradientTransform="matrix(0.1247, 0.0, 0.0, 0.1247, -291.25, -300.0)" gradientUnits="userSpaceOnUse" id="gradient18" r="819.2" spreadMethod="pad">
      <stop offset="0.0" stop-color="#3d3d3d"/>
      <stop offset="1.0" stop-color="#222222"/>
    </radialGradient>
    <radialGradient cx="0" cy="0" gradientTransform="matrix(0.049, 0.0, 0.0, 0.049, -120.7, -209.5)" gradientUnits="userSpaceOnUse" id="gradient19" r="819.2" spreadMethod="pad">
      <stop offset="0.0" stop-color="#595959"/>
      <stop offset="1.0" stop-color="#070707"/>
    </radialGradient>
    <radialGradient cx="0" cy="0" gradientTransform="matrix(0.0981, 0.0, 0.0, 0.0981, -317.85, -138.25)" gradientUnits="userSpaceOnUse" id="gradient20" r="819.2" spreadMethod="pad">
      <stop offset="0.0" stop-color="#6a6a6a"/>
      <stop offset="1.0" stop-color="#000000"/>
    </radialGradient>
    <radialGradient cx="0" cy="0" gradientTransform="matrix(0.0696, 0.0, 0.0, 0.0696, -373.4, -76.5)" gradientUnits="userSpaceOnUse" id="gradient21" r="819.2" spreadMethod="pad">
      <stop offset="0.0" stop-color="#393939"/>
      <stop offset="1.0" stop-color="#000000"/>
    </radialGradient>
    <radialGradient cx="0" cy="0" gradientTransform="matrix(0.0155, 0.0, 0.0, 0.0155, -392.0, -97.05)" gradientUnits="userSpaceOnUse" id="gradient22" r="819.2" spreadMethod="pad">
      <stop offset="0.0" stop-color="#626262"/>
      <stop offset="1.0" stop-color="#2f2f2f"/>
    </radialGradient>
    <radialGradient cx="0" cy="0" gradientTransform="matrix(0.0984, 0.0, 0.0, 0.0984, -332.25, -33.05)" gradientUnits="userSpaceOnUse" id="gradient23" r="819.2" spreadMethod="pad">
      <stop offset="0.0" stop-color="#505050"/>
      <stop offset="1.0" stop-color="#2a2a2a"/>
    </radialGradient>
    <radialGradient cx="0" cy="0" gradientTransform="matrix(0.1909, 0.0, 0.0, 0.1909, -127.15, -1.0)" gradientUnits="userSpaceOnUse" id="gradient24" r="819.2" spreadMethod="pad">
      <stop offset="0.0" stop-color="#5f5f5f"/>
      <stop offset="1.0" stop-color="#0e0e0e"/>
    </radialGradient>
    <radialGradient cx="0" cy="0" gradientTransform="matrix(0.1416, 0.0, 0.0, 0.1416, -261.95, -1.0)" gradientUnits="userSpaceOnUse" id="gradient25" r="819.2" spreadMethod="pad">
      <stop offset="0.0" stop-color="#212121"/>
      <stop offset="1.0" stop-color="#000000"/>
    </radialGradient>
    <radialGradient cx="0" cy="0" gradientTransform="matrix(0.0852, 0.0, 0.0, 0.0852, -250.7, -77.15)" gradientUnits="userSpaceOnUse" id="gradient26" r="819.2" spreadMethod="pad">
      <stop offset="0.0" stop-color="#838383"/>
      <stop offset="1.0" stop-color="#2a2a2a"/>
    </radialGradient>
    <radialGradient cx="0" cy="0" gradientTransform="matrix(0.0887, 0.0, 0.0, 0.0887, -262.8, -153.75)" gradientUnits="userSpaceOnUse" id="gradient27" r="819.2" spreadMethod="pad">
      <stop offset="0.0" stop-color="#2f2f2f"/>
      <stop offset="1.0" stop-color="#000000"/>
    </radialGradient>
    <radialGradient cx="0" cy="0" gradientTransform="matrix(0.0291, 0.0, 0.0, 0.0291, -343.35, -111.3)" gradientUnits="userSpaceOnUse" id="gradient28" r="819.2" spreadMethod="pad">
      <stop offset="0.0" stop-color="#010101"/>
      <stop offset="1.0" stop-color="#000000"/>
    </radialGradient>
    <radialGradient cx="0" cy="0" gradientTransform="matrix(0.0525, 0.0, 0.0, 0.0525, -265.1, -129.0)" gradientUnits="userSpaceOnUse" id="gradient29" r="819.2" spreadMethod="pad">
      <stop offset="0.0" stop-color="#626262"/>
      <stop offset="1.0" stop-color="#373737"/>
    </radialGradient>
    <radialGradient cx="0" cy="0" gradientTransform="matrix(0.0565, 0.0, 0.0, 0.0565, -328.25, -67.5)" gradientUnits="userSpaceOnUse" id="gradient30" r="819.2" spreadMethod="pad">
      <stop offset="0.0" stop-color="#292929"/>
      <stop offset="1.0" stop-color="#010101"/>
    </radialGradient>
    <radialGradient cx="0" cy="0" gradientTransform="matrix(0.0754, 0.0, 0.0, 0.0754, -332.25, -33.05)" gradientUnits="userSpaceOnUse" id="gradient31" r="819.2" spreadMethod="pad">
      <stop offset="0.0" stop-color="#505050"/>
      <stop offset="1.0" stop-color="#000000"/>
    </radialGradient>
    <radialGradient cx="0" cy="0" gradientTransform="matrix(0.0492, 0.0, 0.0, 0.0492, -281.45, -14.9)" gradientUnits="userSpaceOnUse" id="gradient32" r="819.2" spreadMethod="pad">
      <stop offset="0.0" stop-color="#131313"/>
      <stop offset="1.0" stop-color="#000000"/>
    </radialGradient>
    <radialGradient cx="0" cy="0" gradientTransform="matrix(0.0527, 0.0, 0.0, 0.0527, -279.7, -20.05)" gradientUnits="userSpaceOnUse" id="gradient33" r="819.2" spreadMethod="pad">
      <stop offset="0.0" stop-color="#858585"/>
      <stop offset="1.0" stop-color="#2c2c2c"/>
    </radialGradient>
    <radialGradient cx="0" cy="0" gradientTransform="matrix(0.0591, 0.0, 0.0, 0.0591, -159.75, -30.8)" gradientUnits="userSpaceOnUse" id="gradient34" r="819.2" spreadMethod="pad">
      <stop offset="0.0" stop-color="#000000"/>
      <stop offset="1.0" stop-color="#000000"/>
    </radialGradient>
    <radialGradient cx="0" cy="0" gradientTransform="matrix(0.0252, 0.0, 0.0, 0.0252, -261.95, -1.0)" gradientUnits="userSpaceOnUse" id="gradient35" r="819.2" spreadMethod="pad">
      <stop offset="0.0" stop-color="#212121"/>
      <stop offset="1.0" stop-color="#060606"/>
    </radialGradient>
    <radialGradient cx="0" cy="0" gradientTransform="matrix(0.0322, 0.0, 0.0, 0.0322, -121.85, -1.0)" gradientUnits="userSpaceOnUse" id="gradient36" r="819.2" spreadMethod="pad">
      <stop offset="0.0" stop-color="#121212"/>
      <stop offset="1.0" stop-color="#0a0a0a"/>
    </radialGradient>
  </defs>
</svg>
