<?xml version="1.0" encoding="UTF-8" standalone="no"?>
<svg xmlns:xlink="http://www.w3.org/1999/xlink" height="299.1px" width="399.1px" xmlns="http://www.w3.org/2000/svg">
  <g transform="matrix(1.0, 0.0, 0.0, 1.0, 400.0, 300.0)">
    <path d="M-277.9 -300.0 L-271.15 -300.0 -271.15 -298.25 -267.9 -289.4 -257.65 -270.75 -266.5 -264.15 -267.4 -265.15 -278.0 -272.9 -274.9 -278.9 -282.25 -292.25 -283.15 -293.25 -283.0 -293.5 -273.15 -291.15 -277.9 -300.0 M-116.25 -300.0 L-113.15 -300.0 -117.9 -281.9 -123.5 -270.5 -127.4 -271.15 -129.0 -271.65 -121.15 -282.5 -118.0 -290.75 -116.25 -300.0" fill="url(#gradient0)" fill-rule="evenodd" stroke="none"/>
    <path d="M-271.15 -300.0 L-116.25 -300.0 -118.0 -290.75 -121.15 -282.5 -129.0 -271.65 -153.25 -278.15 -157.4 -279.75 -159.4 -279.75 -163.4 -280.9 -177.75 -293.0 -178.4 -293.0 -213.65 -289.15 -219.9 -278.0 -224.15 -274.9 -241.5 -275.75 -256.65 -271.4 -257.65 -270.75 -267.9 -289.4 -271.15 -298.25 -271.15 -300.0" fill="url(#gradient1)" fill-rule="evenodd" stroke="none"/>
    <path d="M-265.4 -186.15 L-269.15 -189.0 -271.0 -190.9 -271.15 -190.9 -276.15 -198.65 -281.4 -206.75 -283.25 -213.4 -284.15 -225.9 -284.5 -227.25 Q-286.15 -234.9 -279.25 -247.65 L-279.0 -248.0 -276.4 -253.65 -272.65 -259.25 -272.65 -259.4 -267.25 -263.4 -267.0 -263.65 -266.5 -264.0 -266.5 -264.15 -257.65 -270.75 -256.65 -271.4 -241.5 -275.75 -224.15 -274.9 -223.15 -274.5 -209.4 -269.25 -208.15 -268.15 -206.4 -266.25 Q-206.4 -265.65 -209.25 -263.9 L-207.65 -257.25 -209.65 -250.25 -214.65 -243.75 -215.9 -242.65 -217.9 -233.25 -223.5 -224.75 -228.75 -220.5 Q-231.75 -214.25 -235.25 -212.15 L-236.0 -210.15 -236.75 -205.4 -239.4 -200.0 -241.65 -196.4 -243.65 -194.0 -247.75 -190.65 -251.5 -189.4 -251.5 -189.0 -252.75 -186.75 -254.9 -184.65 -258.25 -183.25 -263.15 -184.65 -265.25 -186.15 -265.4 -186.15" fill="url(#gradient2)" fill-rule="evenodd" stroke="none"/>
    <path d="M-219.9 -278.0 L-221.15 -275.65 -223.15 -274.5 -224.15 -274.9 -219.9 -278.0" fill="url(#gradient3)" fill-rule="evenodd" stroke="none"/>
    <path d="M-162.4 -279.9 L-174.25 -280.5 -190.25 -276.0 -198.9 -269.9 -199.15 -269.65 -201.25 -268.15 -201.4 -267.65 -203.4 -265.9 -202.0 -264.4 Q-203.65 -264.15 -205.15 -256.0 L-203.5 -249.4 -199.15 -244.15 Q-200.25 -242.75 -196.4 -233.0 L-189.5 -225.15 -184.5 -222.25 -170.75 -219.75 -161.0 -209.75 -159.5 -208.75 -169.9 -213.65 -171.4 -213.75 -227.75 -208.65 -241.65 -196.4 -239.4 -200.0 -236.75 -205.4 -236.0 -210.15 -235.25 -212.15 Q-231.75 -214.25 -228.75 -220.5 L-223.5 -224.75 -217.9 -233.25 -215.9 -242.65 -214.65 -243.75 -209.65 -250.25 -207.65 -257.25 -209.25 -263.9 Q-206.4 -265.65 -206.4 -266.25 L-208.15 -268.15 -209.4 -269.25 -223.15 -274.5 -221.15 -275.65 -219.9 -278.0 -213.65 -289.15 -178.4 -293.0 -177.75 -293.0 -163.4 -280.9 -162.4 -279.9 M-146.9 -202.75 L-142.65 -202.25 -140.15 -203.5 -141.0 -199.9 -146.9 -202.75 M-251.5 -189.0 L-251.5 -189.4 -247.75 -190.65 -250.9 -187.65 -251.5 -189.0" fill="url(#gradient4)" fill-rule="evenodd" stroke="none"/>
    <path d="M-119.65 -266.15 L-114.0 -248.0 -113.65 -245.75 -119.4 -239.5 -124.0 -254.65 -127.65 -260.15 -138.65 -271.0 -142.15 -273.65 -153.25 -278.15 -129.0 -271.65 -127.4 -271.15 -119.65 -266.15 M-159.4 -279.75 L-162.4 -279.9 -163.4 -280.9 -159.4 -279.75" fill="url(#gradient5)" fill-rule="evenodd" stroke="none"/>
    <path d="M-153.25 -278.15 L-142.15 -273.65 -138.65 -271.0 -127.65 -260.15 -124.0 -254.65 -119.4 -239.5 Q-116.9 -234.9 -117.9 -226.9 L-121.25 -212.0 -122.4 -210.15 -124.25 -211.5 -124.9 -210.15 -130.75 -204.25 -136.65 -202.4 -138.65 -202.75 -140.15 -203.5 -142.65 -202.25 -146.9 -202.75 -151.5 -204.25 -154.5 -205.65 -159.5 -208.75 -161.0 -209.75 -170.75 -219.75 -184.5 -222.25 -189.5 -225.15 -196.4 -233.0 Q-200.25 -242.75 -199.15 -244.15 L-203.5 -249.4 -205.15 -256.0 Q-203.65 -264.15 -202.0 -264.4 L-203.4 -265.9 -201.4 -267.65 -201.25 -268.15 -199.15 -269.65 -198.9 -269.9 -190.25 -276.0 -174.25 -280.5 -162.4 -279.9 -159.4 -279.75 -157.4 -279.75 -153.25 -278.15" fill="url(#gradient6)" fill-rule="evenodd" stroke="none"/>
    <path d="M-159.5 -208.75 L-154.5 -205.65 -151.5 -204.25 -146.9 -202.75 -141.0 -199.9 -152.25 -155.4 -151.0 -132.9 -150.65 -132.25 -148.0 -82.9 -167.65 -92.65 -171.0 -92.75 -231.0 -88.75 -246.9 -76.5 -241.65 -148.15 -250.9 -187.65 -247.75 -190.65 -243.65 -194.0 -241.65 -196.4 -227.75 -208.65 -171.4 -213.75 -169.9 -213.65 -159.5 -208.75" fill="url(#gradient7)" fill-rule="evenodd" stroke="none"/>
    <path d="M-113.15 -300.0 L-97.25 -300.0 -99.5 -289.4 -106.9 -271.9 -109.5 -268.0 -123.5 -270.5 -117.9 -281.9 -113.15 -300.0" fill="url(#gradient8)" fill-rule="evenodd" stroke="none"/>
    <path d="M-109.5 -268.0 L-103.25 -266.75 -119.65 -266.15 -127.4 -271.15 -123.5 -270.5 -109.5 -268.0" fill="url(#gradient9)" fill-rule="evenodd" stroke="none"/>
    <path d="M-103.25 -266.75 L-67.75 -259.25 -43.5 -255.75 -0.9 -248.25 -0.9 -243.75 -9.9 -231.15 -23.4 -203.75 -39.75 -204.15 -58.75 -207.5 -81.5 -213.9 -106.4 -217.4 -106.75 -217.75 -113.65 -245.75 -114.0 -248.0 -119.65 -266.15 -103.25 -266.75" fill="url(#gradient10)" fill-rule="evenodd" stroke="none"/>
    <path d="M-272.65 -259.4 L-281.4 -272.75 -285.5 -282.75 -286.5 -286.5 -286.9 -286.75 -288.9 -292.75 -290.25 -298.75 -290.75 -299.65 -290.75 -300.0 -277.9 -300.0 -273.15 -291.15 -283.0 -293.5 -283.15 -293.25 -282.25 -292.25 -274.9 -278.9 -278.0 -272.9 -267.4 -265.15 -266.5 -264.15 -266.5 -264.0 -267.0 -263.65 -267.25 -263.4 -272.65 -259.4" fill="url(#gradient11)" fill-rule="evenodd" stroke="none"/>
    <path d="M-378.9 -190.5 L-352.25 -203.15 -291.5 -236.75 -279.25 -247.65 Q-286.15 -234.9 -284.5 -227.25 L-284.15 -225.9 -283.25 -213.4 -281.4 -206.75 -276.15 -198.65 -287.0 -196.4 -328.9 -171.65 -331.75 -166.5 -351.5 -166.25 -369.25 -185.25 -378.9 -190.5" fill="url(#gradient12)" fill-rule="evenodd" stroke="none"/>
    <path d="M-345.65 -146.65 L-343.0 -142.65 -369.5 -145.65 -384.25 -134.5 -384.65 -134.5 -385.15 -135.4 -400.0 -148.9 -400.0 -170.25 -378.9 -190.5 -369.25 -185.25 -351.5 -166.25 -351.15 -164.4 -349.5 -151.75 -346.0 -147.25 -345.65 -146.65" fill="url(#gradient13)" fill-rule="evenodd" stroke="none"/>
    <path d="M-325.75 -61.15 L-344.5 -79.75 -362.25 -96.15 -385.65 -122.5 -399.0 -136.0 -400.0 -137.4 -400.0 -148.9 -385.15 -135.4 -384.65 -134.5 -384.25 -134.5 -371.5 -122.9 -358.5 -108.5 -338.75 -89.65 -325.9 -79.75 Q-330.15 -72.9 -327.0 -64.5 L-325.75 -61.15" fill="url(#gradient14)" fill-rule="evenodd" stroke="none"/>
    <path d="M-290.65 -87.65 Q-283.65 -82.15 -283.65 -73.4 -281.75 -65.25 -290.9 -55.65 -310.75 -42.25 -325.75 -61.15 L-327.0 -64.5 Q-330.15 -72.9 -325.9 -79.75 L-322.9 -85.65 -315.9 -90.65 -309.15 -91.65 Q-301.4 -91.25 -300.9 -89.4 L-296.0 -91.15 -293.65 -90.0 Q-291.5 -87.4 -290.65 -87.65" fill="url(#gradient15)" fill-rule="evenodd" stroke="none"/>
    <path d="M-343.0 -142.65 L-323.9 -127.0 -311.75 -114.5 -303.15 -106.9 -291.5 -92.75 -296.0 -91.15 -300.9 -89.4 Q-301.4 -91.25 -309.15 -91.65 L-315.9 -90.65 -322.9 -85.65 -325.9 -79.75 -338.75 -89.65 -358.5 -108.5 -371.5 -122.9 -384.25 -134.5 -369.5 -145.65 -343.0 -142.65" fill="url(#gradient16)" fill-rule="evenodd" stroke="none"/>
    <path d="M-291.5 -92.75 L-290.65 -87.65 Q-291.5 -87.4 -293.65 -90.0 L-296.0 -91.15 -291.5 -92.75" fill="url(#gradient17)" fill-rule="evenodd" stroke="none"/>
    <path d="M-329.9 -163.5 L-345.65 -146.65 -346.0 -147.25 -351.15 -164.4 -351.5 -166.25 -331.75 -166.5 -329.9 -163.5" fill="url(#gradient18)" fill-rule="evenodd" stroke="none"/>
    <path d="M-271.15 -190.9 L-283.5 -183.65 -311.4 -172.5 -329.9 -163.5 -331.75 -166.5 -328.9 -171.65 -287.0 -196.4 -276.15 -198.65 -271.15 -190.9" fill="url(#gradient19)" fill-rule="evenodd" stroke="none"/>
    <path d="M-0.9 -243.75 L-0.9 -200.75 -23.4 -203.75 -9.9 -231.15 -0.9 -243.75" fill="url(#gradient20)" fill-rule="evenodd" stroke="none"/>
    <path d="M-8.75 -193.0 L-50.65 -189.5 -76.9 -199.75 -103.5 -212.25 -106.4 -217.4 -81.5 -213.9 -58.75 -207.5 -39.75 -204.15 -23.4 -203.75 -8.75 -193.0" fill="url(#gradient21)" fill-rule="evenodd" stroke="none"/>
    <path d="M-103.5 -212.25 L-120.65 -208.4 -121.25 -212.0 -117.9 -226.9 Q-116.9 -234.9 -119.4 -239.5 L-113.65 -245.75 -106.75 -217.75 -106.4 -217.4 -103.5 -212.25" fill="url(#gradient22)" fill-rule="evenodd" stroke="none"/>
    <path d="M-120.65 -208.4 L-119.15 -194.4 -141.0 -199.9 -140.15 -203.5 -138.65 -202.75 -136.65 -202.4 -130.75 -204.25 -124.9 -210.15 -124.25 -211.5 -122.4 -210.15 -121.25 -212.0 -120.65 -208.4" fill="url(#gradient23)" fill-rule="evenodd" stroke="none"/>
    <path d="M-0.9 -200.75 L-0.9 -196.0 -8.75 -193.0 -23.4 -203.75 -0.9 -200.75" fill="url(#gradient24)" fill-rule="evenodd" stroke="none"/>
    <path d="M-119.15 -194.4 L-118.75 -180.15 -130.0 -121.65 -125.4 -67.25 -128.5 -71.5 -147.75 -82.5 -148.0 -82.9 -150.65 -132.25 -151.0 -132.9 -152.25 -155.4 -141.0 -199.9 -119.15 -194.4" fill="url(#gradient25)" fill-rule="evenodd" stroke="none"/>
    <path d="M-108.15 -0.9 L-285.4 -0.9 -279.9 -13.15 -248.25 -73.9 -246.9 -76.5 -231.0 -88.75 -171.0 -92.75 -167.65 -92.65 -148.0 -82.9 -147.75 -82.5 -115.0 -18.75 -108.15 -0.9" fill="url(#gradient26)" fill-rule="evenodd" stroke="none"/>
    <path d="M-255.15 -63.65 L-250.9 -107.65 -250.25 -119.65 -265.25 -179.15 -258.25 -183.25 -254.9 -184.65 -252.75 -186.75 -250.9 -187.65 -241.65 -148.15 -246.9 -76.5 -248.25 -73.9 -255.15 -63.65" fill="url(#gradient27)" fill-rule="evenodd" stroke="none"/>
    <path d="M-265.25 -179.15 L-265.4 -186.15 -265.25 -186.15 -263.15 -184.65 -258.25 -183.25 -265.25 -179.15 M-250.9 -187.65 L-252.75 -186.75 -251.5 -189.0 -250.9 -187.65" fill="url(#gradient28)" fill-rule="evenodd" stroke="none"/>
    <path d="M-346.0 -147.25 L-349.5 -151.75 -351.15 -164.4 -346.0 -147.25" fill="url(#gradient29)" fill-rule="evenodd" stroke="none"/>
    <path d="M-125.4 -67.25 L-92.65 -21.4 -87.4 -0.9 -108.15 -0.9 -115.0 -18.75 -147.75 -82.5 -128.5 -71.5 -125.4 -67.25" fill="url(#gradient30)" fill-rule="evenodd" stroke="none"/>
    <path d="M-285.4 -0.9 L-290.15 -0.9 -289.15 -9.4 -255.15 -63.65 -248.25 -73.9 -279.9 -13.15 -285.4 -0.9" fill="url(#gradient31)" fill-rule="evenodd" stroke="none"/>
    <path d="M-249.15 -277.65 L-246.4 -277.0 -245.5 -279.25 -245.65 -279.75 -243.15 -286.15 -242.0 -285.9 -241.5 -285.65 -240.65 -285.4 -240.4 -285.4 -238.15 -284.65 -237.4 -283.15 -237.15 -282.9 -236.5 -281.9 -236.25 -282.4 -235.0 -287.0 -230.15 -285.75 -227.75 -281.5 -226.65 -278.9 -225.75 -277.65 -225.9 -277.0 -225.4 -276.5 -224.4 -274.9 -225.25 -274.9 -226.25 -275.15 -233.25 -275.4 -233.4 -275.75 -236.5 -281.4 -237.0 -280.25 -237.0 -279.9 -238.15 -275.65 -240.65 -275.9 -246.4 -277.0 -247.4 -274.15 -250.25 -274.65 -249.15 -277.65 M-239.9 -286.5 L-239.75 -286.65 -239.65 -286.65 -239.9 -286.5 M-159.15 -278.25 L-158.65 -282.9 -158.25 -282.9 -149.9 -284.0 -147.75 -287.4 -147.65 -287.75 -147.4 -288.15 -134.15 -280.75 -134.0 -280.5 -127.9 -277.25 -127.5 -276.75 -126.9 -276.4 -126.5 -276.25 -122.5 -274.15 -122.4 -273.9 -122.0 -273.75 -119.0 -272.0 -145.5 -276.15 -145.75 -276.15 -146.0 -276.25 -154.75 -277.65 -155.25 -277.65 -155.5 -277.75 -155.9 -277.75 -159.15 -278.25 M-159.4 -283.0 L-159.65 -283.0 -160.25 -280.15 -163.4 -280.9 -169.15 -285.75 -169.15 -288.9 -169.25 -289.15 -169.0 -291.15 -162.0 -293.65 -161.25 -293.75 -160.9 -293.9 -160.9 -293.75 -159.9 -287.25 -160.0 -287.0 -159.4 -284.65 -158.65 -287.5 -158.75 -288.0 -158.5 -288.5 -157.75 -292.4 -153.0 -295.0 -152.5 -295.15 -152.0 -294.0 -152.15 -293.75 -150.75 -287.4 -158.15 -286.0 -158.5 -284.75 -159.4 -283.0" fill="#9b0000" fill-opacity="0.9098039" fill-rule="evenodd" stroke="none"/>
    <path d="M-243.15 -286.15 L-240.9 -286.4 -240.9 -286.5 -239.9 -286.5 -239.65 -286.65 -235.0 -287.0 -236.25 -282.4 -236.5 -281.9 -237.15 -282.9 -237.4 -283.15 -238.15 -284.65 -240.4 -285.4 -240.65 -285.4 -241.5 -285.65 -242.0 -285.9 -243.15 -286.15 M-240.65 -275.9 L-242.4 -275.4 -242.65 -275.4 -242.9 -275.25 -243.4 -275.25 -243.4 -275.15 -246.9 -274.15 -247.4 -274.15 -246.4 -277.0 -240.65 -275.9 M-158.65 -282.9 L-159.15 -282.9 -159.4 -283.0 -158.5 -284.75 -158.4 -284.5 -158.65 -282.9 M-160.9 -293.9 L-153.25 -295.0 -153.0 -295.0 -157.75 -292.4 -158.5 -288.5 -158.75 -288.0 -158.65 -287.5 -159.4 -284.65 -160.0 -287.0 -159.9 -287.25 -160.9 -293.75 -160.9 -293.9 M-150.75 -287.4 L-147.75 -288.0 -147.4 -288.15 -147.65 -287.75 -147.75 -287.4 -149.9 -284.0 -150.75 -287.4" fill="#a90000" fill-rule="evenodd" stroke="none"/>
    <path d="M-150.75 -287.4 L-149.9 -284.0 -158.25 -282.9 -158.65 -282.9 -158.4 -284.5 -158.5 -284.75 -158.15 -286.0 -150.75 -287.4" fill="#aa0000" fill-rule="evenodd" stroke="none"/>
    <path d="M-254.65 -263.9 L-245.25 -258.4 -245.15 -258.15 -225.75 -246.65 -225.5 -246.4 -225.4 -246.4 -207.75 -235.9 -199.25 -241.4 -199.0 -241.65 -194.15 -244.65 -193.65 -245.15 -192.4 -245.75 -189.5 -247.75 -188.75 -248.15 Q-176.8 -255.8 -164.9 -263.5 L-164.5 -264.25 -159.4 -278.0 -159.15 -278.25 -155.9 -277.75 -155.5 -277.75 -155.25 -277.65 -154.75 -277.65 -146.0 -276.25 -145.75 -276.15 -145.5 -276.15 -119.0 -272.0 -118.4 -269.5 -118.25 -269.0 -118.0 -266.25 -115.65 -252.5 -116.25 -249.15 -116.4 -248.65 -116.4 -248.5 -117.9 -241.15 -118.15 -240.65 -118.75 -237.5 -118.75 -237.0 -118.65 -236.5 -119.0 -236.15 -119.0 -235.0 -119.4 -233.15 -119.65 -232.9 -119.65 -231.9 -120.25 -229.15 -120.25 -228.65 -121.15 -224.15 -121.4 -224.0 -121.25 -223.15 -121.4 -222.9 -122.65 -216.5 -122.65 -216.0 -122.9 -215.25 -123.15 -214.75 -134.25 -217.25 -134.5 -217.4 -165.15 -224.0 -167.25 -224.25 -177.75 -223.15 -178.0 -222.75 -215.65 -218.9 -230.0 -218.15 -230.15 -218.0 -239.75 -217.25 -240.4 -216.75 -240.65 -216.5 -241.25 -216.0 -241.5 -215.75 -241.75 -215.75 -242.15 -215.25 -242.4 -215.25 -242.5 -214.9 -242.9 -214.9 -243.4 -213.9 -244.0 -213.65 -244.25 -213.4 -244.9 -212.9 -245.15 -212.65 -245.75 -212.15 -246.0 -211.9 -247.5 -210.65 -247.75 -210.4 -248.4 -209.9 -248.65 -209.65 -250.15 -208.4 -250.4 -208.15 -250.75 -208.0 -250.75 -207.9 -251.4 -207.25 -252.0 -206.75 -252.25 -206.5 -252.9 -206.0 -253.15 -205.75 -253.75 -205.5 -254.0 -205.0 -254.65 -204.5 -254.9 -204.25 -255.5 -203.75 -255.75 -203.5 -256.4 -203.0 -256.65 -202.75 -256.9 -202.75 -257.25 -202.25 -257.5 -202.0 -258.15 -201.5 -258.5 -201.15 -259.0 -200.9 -259.15 -200.65 -259.4 -200.4 -260.0 -199.9 -260.25 -199.65 -260.9 -199.15 -261.15 -198.9 -261.75 -198.4 -262.0 -198.15 -262.25 -198.15 -262.65 -197.65 -262.9 -197.4 -263.25 -197.25 -263.5 -196.9 -263.75 -196.65 -264.4 -196.15 -264.65 -195.9 -265.25 -195.65 -265.5 -195.15 -266.15 -194.65 -266.4 -194.5 -266.4 -194.4 -267.0 -193.9 -267.4 -193.5 -267.65 -193.5 -268.0 -193.0 -268.25 -192.9 -269.0 -194.15 -269.5 -194.65 -272.25 -199.25 -272.65 -200.25 -276.4 -206.65 -278.25 -209.4 -278.5 -210.15 -280.9 -213.65 -281.4 -215.0 -282.0 -215.65 -282.4 -216.75 -282.9 -217.0 -283.15 -218.0 -283.65 -218.25 -283.65 -218.75 -283.9 -219.25 -284.15 -224.5 -284.25 -224.75 -284.15 -225.65 -284.4 -226.4 -284.5 -227.75 -284.4 -227.9 -284.4 -234.65 -283.9 -235.9 -283.75 -236.15 -283.5 -236.75 -283.4 -238.15 -283.65 -239.25 -283.75 -243.75 -283.65 -244.0 -283.65 -244.15 -279.25 -247.65 -279.0 -248.0 -277.75 -250.5 -277.75 -250.65 -277.65 -250.9 -276.5 -252.9 -276.5 -253.25 -275.75 -254.65 -273.25 -258.4 -272.9 -258.65 -270.9 -259.15 -270.4 -259.4 -269.4 -259.5 -268.75 -259.9 -266.75 -260.25 -266.4 -260.5 -255.9 -263.4 -254.65 -263.9 M-154.65 -250.65 L-154.0 -249.0 -154.0 -248.25 -153.65 -248.5 -153.4 -248.75 -153.15 -249.15 -152.9 -249.4 -152.5 -250.0 -152.4 -250.5 -153.5 -252.0 -154.4 -251.75 -154.65 -251.15 -154.65 -250.65 M-261.15 -232.9 L-261.25 -232.75 -261.25 -232.5 -261.0 -232.5 -260.75 -232.4 -260.4 -233.0 -260.5 -233.25 -260.4 -233.5 -262.0 -237.9 -261.15 -233.0 -261.15 -232.9" fill="#b00000" fill-opacity="0.9098039" fill-rule="evenodd" stroke="none"/>
    <path d="M-258.75 -276.25 L-257.75 -276.5 -249.15 -277.65 -250.25 -274.65 -257.15 -275.9 -257.4 -276.0 -258.75 -276.25" fill="#b60000" fill-rule="evenodd" stroke="none"/>
    <path d="M-275.0 -262.9 L-274.25 -263.65 -270.15 -267.0 -269.25 -267.9 -268.4 -268.5 -264.15 -272.15 -264.0 -272.4 -260.65 -275.15 -260.4 -275.4 -260.25 -275.5 -259.15 -276.4 -258.75 -276.25 -257.4 -276.0 -257.15 -275.9 -250.25 -274.65 -250.5 -274.0 -250.9 -273.4 -250.75 -273.15 -250.75 -273.0 -251.0 -273.0 -252.15 -269.65 -252.4 -269.4 -254.25 -264.4 -254.65 -263.9 -255.9 -263.4 -266.4 -260.5 -266.75 -260.25 -268.75 -259.9 -269.4 -259.5 -270.4 -259.4 -270.9 -259.15 -272.9 -258.65 -272.65 -259.25 -272.75 -259.5 -272.75 -259.65 -273.75 -261.4 -274.15 -261.75 -274.15 -262.0 -275.0 -262.9" fill="#a80000" fill-opacity="0.9098039" fill-rule="evenodd" stroke="none"/>
    <path d="M-283.75 -255.5 L-275.0 -262.9 -274.15 -262.0 -274.15 -261.75 -273.75 -261.4 -272.75 -259.65 -272.75 -259.5 -272.65 -259.25 -272.9 -258.65 -273.25 -258.4 -283.75 -255.5" fill="#b90000" fill-opacity="0.9098039" fill-rule="evenodd" stroke="none"/>
    <path d="M-284.0 -254.75 L-283.75 -255.5 -273.25 -258.4 -275.75 -254.65 -276.5 -253.25 -276.5 -252.9 -277.65 -250.9 -277.75 -250.65 -277.75 -250.5 -279.0 -248.0 -279.25 -247.65 -283.65 -244.15 -284.0 -254.75" fill="#c20000" fill-opacity="0.9098039" fill-rule="evenodd" stroke="none"/>
    <path d="M-118.4 -269.5 L-118.25 -269.5 -118.25 -269.0 -111.4 -244.0 -111.15 -243.4 -105.65 -223.25 -105.4 -220.0 -105.4 -217.25 -105.5 -216.9 -105.4 -216.65 -105.5 -215.9 -105.15 -214.9 -105.15 -211.9 -115.25 -209.5 -121.0 -213.4 -121.0 -213.5 -121.15 -213.65 -121.5 -213.65 -123.15 -214.75 -122.9 -215.25 -122.65 -216.0 -122.65 -216.5 -121.4 -222.9 -121.25 -223.15 -121.4 -224.0 -121.15 -224.15 -120.25 -228.65 -120.25 -229.15 -119.65 -231.9 -119.65 -232.9 -119.4 -233.15 -119.0 -235.0 -119.0 -236.15 -118.65 -236.5 -118.75 -237.0 -118.75 -237.5 -118.15 -240.65 -117.9 -241.15 -116.4 -248.5 -116.4 -248.65 -116.25 -249.15 -115.65 -252.5 -118.0 -266.25 -118.25 -269.0 -118.4 -269.5" fill="#c50000" fill-opacity="0.9098039" fill-rule="evenodd" stroke="none"/>
    <path d="M-105.4 -220.0 L-104.9 -217.25 -104.9 -216.5 -104.65 -216.15 -104.5 -214.25 -104.15 -213.15 -104.15 -212.15 -105.15 -211.9 -105.15 -214.9 -105.5 -215.9 -105.4 -216.65 -105.5 -216.9 -105.4 -217.25 -105.4 -220.0" fill="#da0000" fill-rule="evenodd" stroke="none"/>
    <path d="M-104.15 -212.15 L-102.65 -201.15 -104.75 -202.4 -104.9 -202.65 -105.15 -211.9 -104.15 -212.15" fill="#dc0000" fill-rule="evenodd" stroke="none"/>
    <path d="M-123.15 -214.75 L-123.25 -214.65 -124.0 -212.0 -124.25 -211.4 -124.25 -211.25 -124.5 -211.15 -124.75 -210.65 -124.75 -210.25 -124.9 -210.25 -124.9 -210.15 -129.65 -197.0 -129.65 -196.65 -129.75 -196.25 -130.15 -195.25 -130.25 -194.9 -130.4 -194.65 -130.5 -194.25 -130.65 -193.9 -130.75 -193.5 -130.9 -193.25 -131.25 -192.15 -131.4 -191.9 -131.5 -191.5 -132.0 -190.15 -132.4 -189.15 -132.5 -188.75 -132.9 -187.75 -133.4 -186.4 -133.5 -186.0 -133.65 -185.75 -134.0 -184.65 -134.15 -184.4 -134.25 -184.0 -134.4 -183.65 -134.5 -183.25 -134.65 -183.0 -135.15 -181.65 -135.25 -181.25 -135.65 -180.25 -136.15 -178.9 -136.25 -178.5 -136.4 -178.25 -136.75 -177.15 -136.9 -176.9 -137.0 -176.5 -137.15 -176.15 -137.25 -175.75 -137.4 -175.5 -137.65 -174.75 -137.9 -174.65 -138.15 -173.4 -138.5 -172.4 -138.9 -171.4 -139.0 -171.0 -139.4 -170.0 -139.5 -169.65 -139.65 -169.4 -139.75 -169.0 -139.9 -168.65 -140.0 -168.25 -140.15 -168.0 -140.5 -166.9 -140.65 -166.65 -140.75 -166.25 -141.15 -165.25 -141.65 -163.9 -141.75 -163.5 -142.25 -162.15 -142.4 -161.9 -142.5 -161.5 -142.65 -161.15 -142.75 -160.75 -142.9 -160.5 -143.25 -159.4 -143.4 -159.15 -143.5 -158.75 -142.9 -147.15 -142.75 -146.75 -142.15 -136.4 -141.75 -135.15 -141.25 -124.75 -141.15 -124.5 -140.4 -113.15 -140.15 -112.25 -139.9 -105.4 -140.4 -101.65 -140.25 -101.4 -141.0 -93.9 -140.9 -93.15 -142.0 -79.15 -142.25 -77.65 -143.5 -78.0 -144.25 -78.65 -146.0 -79.25 -146.4 -79.65 -164.9 -88.4 -165.4 -88.9 -166.25 -89.25 -242.15 -84.4 -246.5 -81.15 -246.65 -80.75 -251.25 -77.4 -251.5 -76.9 -254.0 -75.25 -253.15 -83.9 -252.9 -85.25 -250.9 -108.0 -250.4 -120.25 -257.15 -146.9 -257.5 -147.15 -257.5 -149.0 -257.25 -149.75 -261.0 -164.75 -263.75 -173.75 -263.75 -173.9 -263.9 -174.25 -264.9 -179.25 -265.15 -179.75 -265.4 -182.0 -265.4 -186.25 -265.65 -186.5 -266.4 -187.0 -266.65 -187.25 -266.9 -187.25 -267.15 -187.65 -267.0 -187.65 -267.25 -188.25 -267.25 -188.4 -267.5 -189.0 -268.0 -191.9 -268.65 -192.65 -268.25 -192.9 -268.0 -193.0 -267.65 -193.5 -267.4 -193.5 -267.0 -193.9 -266.4 -194.4 -266.4 -194.5 -266.15 -194.65 -265.5 -195.15 -265.25 -195.65 -264.65 -195.9 -264.4 -196.15 -263.75 -196.65 -263.5 -196.9 -263.25 -197.25 -262.9 -197.4 -262.65 -197.65 -262.25 -198.15 -262.0 -198.15 -261.75 -198.4 -261.15 -198.9 -260.9 -199.15 -260.25 -199.65 -260.0 -199.9 -259.4 -200.4 -259.15 -200.65 -259.0 -200.9 -258.5 -201.15 -258.15 -201.5 -257.5 -202.0 -257.25 -202.25 -256.9 -202.75 -256.65 -202.75 -256.4 -203.0 -255.75 -203.5 -255.5 -203.75 -254.9 -204.25 -254.65 -204.5 -254.0 -205.0 -253.75 -205.5 -253.15 -205.75 -252.9 -206.0 -252.25 -206.5 -252.0 -206.75 -251.4 -207.25 -250.75 -207.9 -250.75 -208.0 -250.4 -208.15 -250.15 -208.4 -248.65 -209.65 -248.4 -209.9 -247.75 -210.4 -247.5 -210.65 -246.0 -211.9 -245.75 -212.15 -245.15 -212.65 -244.9 -212.9 -244.25 -213.4 -244.0 -213.65 -243.4 -213.9 -242.9 -214.9 -242.5 -214.9 -242.4 -215.25 -242.15 -215.25 -241.75 -215.75 -241.5 -215.75 -241.25 -216.0 -240.65 -216.5 -240.4 -216.75 -239.75 -217.25 -230.15 -218.0 -230.0 -218.15 -215.65 -218.9 -178.0 -222.75 -177.75 -223.15 -167.25 -224.25 -165.15 -224.0 -134.5 -217.4 -134.25 -217.25 -123.15 -214.75" fill="#a70000" fill-opacity="0.9098039" fill-rule="evenodd" stroke="none"/>
    <path d="M-268.25 -192.9 L-268.65 -192.65 -268.0 -191.9 -267.5 -189.0 -267.25 -188.4 -267.25 -188.25 -267.0 -187.65 -267.15 -187.65 -269.75 -189.5 -271.15 -191.0 -272.25 -190.25 -272.9 -189.9 -274.25 -189.0 -274.5 -188.9 -275.9 -188.0 -276.15 -187.9 -277.15 -187.25 -279.4 -186.15 -282.75 -204.5 -282.75 -211.25 -283.25 -213.75 -283.65 -217.9 -283.65 -218.25 -283.15 -218.0 -282.9 -217.0 -282.4 -216.75 -282.0 -215.65 -281.4 -215.0 -280.9 -213.65 -278.5 -210.15 -278.25 -209.4 -276.4 -206.65 -272.65 -200.25 -272.25 -199.25 -269.5 -194.65 -269.0 -194.15 -268.25 -192.9 M-265.15 -179.75 L-264.9 -179.25 -263.9 -174.25 -265.25 -179.15 -265.15 -179.75 M-263.75 -173.75 L-261.0 -164.75 -257.25 -149.75 -257.5 -149.0 -263.75 -173.75" fill="#e80000" fill-opacity="0.9098039" fill-rule="evenodd" stroke="none"/>
    <path d="M-286.0 -182.65 L-287.5 -195.9 -287.5 -196.25 -287.65 -196.75 -291.5 -230.15 -291.4 -230.4 -291.5 -231.5 -283.9 -219.25 -283.65 -218.75 -283.65 -218.25 -283.65 -217.9 -283.25 -213.75 -282.75 -211.25 -282.75 -204.5 -279.4 -186.15 -279.5 -185.9 -280.65 -185.0 -286.0 -182.65" fill="#fb0000" fill-rule="evenodd" stroke="none"/>
    <path d="M-291.5 -231.5 L-291.65 -232.25 -290.0 -237.25 -289.75 -237.5 -289.75 -238.25 -289.5 -238.65 -289.4 -238.9 -283.75 -243.75 -283.65 -239.25 -283.4 -238.15 -283.5 -236.75 -283.75 -236.15 -283.9 -235.9 -284.4 -234.65 -284.4 -227.9 -284.5 -227.75 -284.4 -226.4 -284.15 -225.65 -284.25 -224.75 -284.15 -224.5 -283.9 -219.25 -291.5 -231.5" fill="#c30000" fill-rule="evenodd" stroke="none"/>
    <path d="M-289.4 -238.9 L-284.0 -254.75 -283.65 -244.15 -283.65 -244.0 -283.75 -243.75 -289.4 -238.9" fill="#c50000" fill-rule="evenodd" stroke="none"/>
    <path d="M-270.75 -55.15 L-271.65 -63.15 -272.25 -77.65 -269.25 -102.65 -268.0 -116.65 -268.15 -118.15 -285.9 -181.9 -286.0 -182.65 -280.65 -185.0 -279.5 -185.9 -277.0 -172.75 -264.9 -153.65 -257.5 -147.15 -257.5 -146.9 -257.75 -146.65 -257.65 -146.4 -262.25 -97.65 -260.75 -70.15 -261.9 -68.15 -262.0 -67.9 -262.4 -67.25 -262.4 -67.15 -270.75 -55.15" fill="#fd0000" fill-rule="evenodd" stroke="none"/>
    <path d="M-267.15 -187.65 L-266.9 -187.25 -265.4 -182.0 -265.15 -179.75 -265.25 -179.15 -263.9 -174.25 -263.75 -173.9 -263.75 -173.75 -257.5 -149.0 -257.5 -147.15 -264.9 -153.65 -277.0 -172.75 -279.5 -185.9 -279.4 -186.15 -277.15 -187.25 -276.15 -187.9 -275.9 -188.0 -274.5 -188.9 -274.25 -189.0 -272.9 -189.9 -272.25 -190.25 -271.15 -191.0 -269.75 -189.5 -267.15 -187.65" fill="#ff0000" fill-opacity="0.9098039" fill-rule="evenodd" stroke="none"/>
    <path d="M-123.15 -214.75 L-121.5 -213.65 -121.15 -213.65 -121.0 -213.5 -121.0 -213.4 -115.25 -209.5 -120.65 -208.4 -119.15 -194.4 -118.75 -180.25 -120.4 -172.5 -120.25 -172.25 -120.5 -171.9 -120.4 -171.65 -120.65 -171.4 -120.5 -171.0 -120.75 -170.75 -120.65 -170.25 -123.0 -157.75 -123.15 -157.5 -123.25 -156.5 -128.65 -127.9 -130.0 -122.25 -129.25 -109.9 -129.15 -109.25 -129.15 -107.4 -129.0 -107.0 -129.0 -106.9 -128.9 -106.25 -127.15 -86.25 -127.15 -84.15 -127.0 -83.75 -126.9 -83.25 -125.4 -67.75 -125.9 -68.0 -126.15 -68.4 -126.5 -68.65 -142.0 -77.25 -142.25 -77.65 -142.0 -79.15 -140.9 -93.15 -141.0 -93.9 -140.25 -101.4 -140.4 -101.65 -139.9 -105.4 -140.15 -112.25 -140.4 -113.15 -141.15 -124.5 -141.25 -124.75 -141.75 -135.15 -142.15 -136.4 -142.75 -146.75 -142.9 -147.15 -143.5 -158.75 -143.4 -159.15 -143.25 -159.4 -142.9 -160.5 -142.75 -160.75 -142.65 -161.15 -142.5 -161.5 -142.4 -161.9 -142.25 -162.15 -141.75 -163.5 -141.65 -163.9 -141.15 -165.25 -140.75 -166.25 -140.65 -166.65 -140.5 -166.9 -140.15 -168.0 -140.0 -168.25 -139.9 -168.65 -139.75 -169.0 -139.65 -169.4 -139.5 -169.65 -139.4 -170.0 -139.0 -171.0 -138.9 -171.4 -138.5 -172.4 -138.15 -173.4 -137.9 -174.65 -137.65 -174.75 -137.4 -175.5 -137.25 -175.75 -137.15 -176.15 -137.0 -176.5 -136.9 -176.9 -136.75 -177.15 -136.4 -178.25 -136.25 -178.5 -136.15 -178.9 -135.65 -180.25 -135.25 -181.25 -135.15 -181.65 -134.65 -183.0 -134.5 -183.25 -134.4 -183.65 -134.25 -184.0 -134.15 -184.4 -134.0 -184.65 -133.65 -185.75 -133.5 -186.0 -133.4 -186.4 -132.9 -187.75 -132.5 -188.75 -132.4 -189.15 -132.0 -190.15 -131.5 -191.5 -131.4 -191.9 -131.25 -192.15 -130.9 -193.25 -130.75 -193.5 -130.65 -193.9 -130.5 -194.25 -130.4 -194.65 -130.25 -194.9 -130.15 -195.25 -129.75 -196.25 -129.65 -196.65 -129.65 -197.0 -124.9 -210.15 -124.9 -210.25 -124.75 -210.25 -124.75 -210.65 -124.5 -211.15 -124.25 -211.25 -124.25 -211.4 -124.0 -212.0 -123.25 -214.65 -123.15 -214.75" fill="#d60000" fill-opacity="0.9098039" fill-rule="evenodd" stroke="none"/>
    <path d="M-100.5 -0.9 L-290.15 -0.9 -288.9 -9.75 -255.15 -63.65 -254.0 -74.65 -254.15 -75.0 -254.0 -75.25 -251.5 -76.9 -251.25 -77.4 -246.65 -80.75 -246.5 -81.15 -242.15 -84.4 -166.25 -89.25 -165.4 -88.9 -164.9 -88.4 -146.4 -79.65 -146.0 -79.25 -144.25 -78.65 -143.5 -78.0 -142.25 -77.65 -142.0 -77.25 -141.15 -75.5 -140.0 -73.75 -102.9 -6.0 -102.15 -4.9 -100.5 -0.9" fill="#a30000" fill-opacity="0.9098039" fill-rule="evenodd" stroke="none"/>
    <path d="M-257.15 -146.9 L-250.4 -120.25 -250.9 -108.0 -252.9 -85.25 -253.15 -83.9 -254.0 -75.25 -254.15 -75.0 -260.75 -70.15 -262.25 -97.65 -257.65 -146.4 -257.75 -146.65 -257.5 -146.9 -257.15 -146.9" fill="#bc0000" fill-rule="evenodd" stroke="none"/>
    <path d="M-266.9 -187.25 L-266.65 -187.25 -266.4 -187.0 -265.65 -186.5 -265.4 -186.25 -265.4 -182.0 -266.9 -187.25 M-257.5 -147.15 L-257.15 -146.9 -257.5 -146.9 -257.5 -147.15" fill="#b80000" fill-opacity="0.9098039" fill-rule="evenodd" stroke="none"/>
    <path d="M-115.25 -209.5 L-105.15 -211.9 -104.9 -202.65 -115.25 -209.5" fill="#d90000" fill-opacity="0.9098039" fill-rule="evenodd" stroke="none"/>
    <path d="M-123.0 -157.75 L-120.65 -170.25 -120.75 -170.75 -120.5 -171.0 -120.65 -171.4 -120.4 -171.65 -120.5 -171.9 -120.25 -172.25 -120.4 -172.5 -118.75 -180.25 -119.15 -194.4 -120.65 -208.4 -115.25 -209.5 -104.9 -202.65 -104.75 -202.4 -104.15 -187.25 -106.5 -181.75 -106.5 -181.65 -107.25 -179.9 -107.25 -179.75 -111.25 -170.4 -111.4 -170.15 -112.0 -168.75 -123.0 -157.75" fill="#ec0000" fill-opacity="0.9098039" fill-rule="evenodd" stroke="none"/>
    <path d="M-102.65 -201.15 L-102.5 -191.0 -102.9 -184.5 -102.75 -184.25 -116.65 -121.9 -116.75 -119.9 -112.0 -75.5 -114.25 -58.0 -117.5 -61.9 -117.65 -62.4 -121.25 -100.65 -128.65 -127.9 -123.25 -156.5 -123.15 -157.5 -123.0 -157.75 -112.0 -168.75 -111.4 -170.15 -111.25 -170.4 -107.25 -179.75 -107.25 -179.9 -106.5 -181.65 -106.5 -181.75 -104.15 -187.25 -104.75 -202.4 -102.65 -201.15" fill="#ed0000" fill-rule="evenodd" stroke="none"/>
    <path d="M-125.4 -67.75 L-126.9 -83.25 -127.0 -83.75 -127.15 -84.15 -127.15 -86.25 -128.9 -106.25 -129.0 -106.9 -129.0 -107.0 -129.15 -107.4 -129.15 -109.25 -129.25 -109.9 -130.0 -122.25 -128.65 -127.9 -121.25 -100.65 -117.65 -62.4 -118.9 -63.65 -119.0 -63.9 -120.15 -64.9 -125.4 -67.75" fill="#e70000" fill-rule="evenodd" stroke="none"/>
    <path d="M-87.4 -0.9 L-100.5 -0.9 -102.15 -4.9 -102.9 -6.0 -140.0 -73.75 -141.15 -75.5 -142.0 -77.25 -126.5 -68.65 -126.15 -68.4 -125.9 -68.0 -125.4 -67.75 -125.5 -67.5 -117.0 -55.65 -93.75 -22.9 -92.75 -21.15 -92.75 -20.75 -87.4 -0.9" fill="#b70000" fill-opacity="0.9098039" fill-rule="evenodd" stroke="none"/>
    <path d="M-290.15 -0.9 L-299.5 -0.9 -270.65 -52.25 -270.5 -52.9 -270.0 -53.0 -269.75 -53.75 -269.4 -54.15 -262.4 -67.15 -262.4 -67.25 -262.0 -67.9 -261.9 -68.15 -260.75 -70.15 -254.15 -75.0 -254.0 -74.65 -255.15 -63.65 -288.9 -9.75 -290.15 -0.9" fill="#b90000" fill-rule="evenodd" stroke="none"/>
    <path d="M-114.25 -58.0 L-114.15 -57.5 -75.75 -7.75 -74.0 -0.9 -87.4 -0.9 -92.75 -20.75 -92.75 -21.15 -93.75 -22.9 -117.0 -55.65 -116.75 -56.15 -116.75 -56.25 -116.9 -56.65 -117.25 -58.5 -117.5 -61.9 -114.25 -58.0" fill="#ce0000" fill-rule="evenodd" stroke="none"/>
    <path d="M-117.5 -61.9 L-117.25 -58.5 -118.9 -63.65 -117.65 -62.4 -117.5 -61.9" fill="#cd0000" fill-rule="evenodd" stroke="none"/>
    <path d="M-299.5 -0.9 L-306.4 -1.15 -270.9 -54.65 -270.75 -55.15 -262.4 -67.15 -269.4 -54.15 -269.75 -53.75 -270.0 -53.0 -270.5 -52.9 -270.65 -52.25 -299.5 -0.9" fill="#fe0000" fill-rule="evenodd" stroke="none"/>
    <path d="M-117.25 -58.5 L-116.9 -56.65 -116.75 -56.25 -116.75 -56.15 -117.0 -55.65 -125.5 -67.5 -125.4 -67.75 -120.15 -64.9 -119.0 -63.9 -118.9 -63.65 -117.25 -58.5" fill="#c80000" fill-rule="evenodd" stroke="none"/>
  </g>
  <defs>
    <radialGradient cx="0" cy="0" gradientTransform="matrix(0.1963, 0.0, 0.0, 0.1963, -135.0, -259.8)" gradientUnits="userSpaceOnUse" id="gradient0" r="819.2" spreadMethod="pad">
      <stop offset="0.0" stop-color="#525252"/>
      <stop offset="1.0" stop-color="#1f1f1f"/>
    </radialGradient>
    <radialGradient cx="0" cy="0" gradientTransform="matrix(0.1265, 0.0, 0.0, 0.1265, -167.5, -300.0)" gradientUnits="userSpaceOnUse" id="gradient1" r="819.2" spreadMethod="pad">
      <stop offset="0.0" stop-color="#4c4c4c"/>
      <stop offset="1.0" stop-color="#060606"/>
    </radialGradient>
    <radialGradient cx="0" cy="0" gradientTransform="matrix(0.0699, 0.0, 0.0, 0.0699, -243.75, -226.65)" gradientUnits="userSpaceOnUse" id="gradient2" r="819.2" spreadMethod="pad">
      <stop offset="0.0" stop-color="#858585"/>
      <stop offset="1.0" stop-color="#000000"/>
    </radialGradient>
    <radialGradient cx="0" cy="0" gradientTransform="matrix(0.091, 0.0, 0.0, 0.091, -228.05, -211.0)" gradientUnits="userSpaceOnUse" id="gradient3" r="819.2" spreadMethod="pad">
      <stop offset="0.0" stop-color="#010101"/>
      <stop offset="1.0" stop-color="#000000"/>
    </radialGradient>
    <radialGradient cx="0" cy="0" gradientTransform="matrix(0.1225, 0.0, 0.0, 0.1225, -228.0, -208.6)" gradientUnits="userSpaceOnUse" id="gradient4" r="819.2" spreadMethod="pad">
      <stop offset="0.0" stop-color="#6a6a6a"/>
      <stop offset="1.0" stop-color="#000000"/>
    </radialGradient>
    <radialGradient cx="0" cy="0" gradientTransform="matrix(0.0799, 0.0, 0.0, 0.0799, -113.5, -245.95)" gradientUnits="userSpaceOnUse" id="gradient5" r="819.2" spreadMethod="pad">
      <stop offset="0.0" stop-color="#595959"/>
      <stop offset="1.0" stop-color="#000000"/>
    </radialGradient>
    <radialGradient cx="0" cy="0" gradientTransform="matrix(0.0666, 0.0, 0.0, 0.0666, -171.95, -230.9)" gradientUnits="userSpaceOnUse" id="gradient6" r="819.2" spreadMethod="pad">
      <stop offset="0.0" stop-color="#878787"/>
      <stop offset="1.0" stop-color="#000000"/>
    </radialGradient>
    <radialGradient cx="0" cy="0" gradientTransform="matrix(0.1821, 0.0, 0.0, 0.1821, -228.0, -208.6)" gradientUnits="userSpaceOnUse" id="gradient7" r="819.2" spreadMethod="pad">
      <stop offset="0.0" stop-color="#6a6a6a"/>
      <stop offset="1.0" stop-color="#000000"/>
    </radialGradient>
    <radialGradient cx="0" cy="0" gradientTransform="matrix(0.0605, 0.0, 0.0, 0.0605, -118.25, -255.1)" gradientUnits="userSpaceOnUse" id="gradient8" r="819.2" spreadMethod="pad">
      <stop offset="0.0" stop-color="#414141"/>
      <stop offset="1.0" stop-color="#363636"/>
    </radialGradient>
    <radialGradient cx="0" cy="0" gradientTransform="matrix(0.0202, 0.0, 0.0, 0.0202, -119.75, -266.25)" gradientUnits="userSpaceOnUse" id="gradient9" r="819.2" spreadMethod="pad">
      <stop offset="0.0" stop-color="#000000"/>
      <stop offset="1.0" stop-color="#000000"/>
    </radialGradient>
    <radialGradient cx="0" cy="0" gradientTransform="matrix(0.1045, 0.0, 0.0, 0.1045, -86.6, -247.5)" gradientUnits="userSpaceOnUse" id="gradient10" r="819.2" spreadMethod="pad">
      <stop offset="0.0" stop-color="#616161"/>
      <stop offset="1.0" stop-color="#000000"/>
    </radialGradient>
    <radialGradient cx="0" cy="0" gradientTransform="matrix(0.0724, 0.0, 0.0, 0.0724, -286.05, -300.0)" gradientUnits="userSpaceOnUse" id="gradient11" r="819.2" spreadMethod="pad">
      <stop offset="0.0" stop-color="#292929"/>
      <stop offset="1.0" stop-color="#1b1b1b"/>
    </radialGradient>
    <radialGradient cx="0" cy="0" gradientTransform="matrix(0.0952, 0.0, 0.0, 0.0952, -322.0, -192.05)" gradientUnits="userSpaceOnUse" id="gradient12" r="819.2" spreadMethod="pad">
      <stop offset="0.0" stop-color="#6a6a6a"/>
      <stop offset="1.0" stop-color="#000000"/>
    </radialGradient>
    <radialGradient cx="0" cy="0" gradientTransform="matrix(0.0687, 0.0, 0.0, 0.0687, -384.35, -134.55)" gradientUnits="userSpaceOnUse" id="gradient13" r="819.2" spreadMethod="pad">
      <stop offset="0.0" stop-color="#393939"/>
      <stop offset="1.0" stop-color="#000000"/>
    </radialGradient>
    <radialGradient cx="0" cy="0" gradientTransform="matrix(0.1047, 0.0, 0.0, 0.1047, -338.35, -89.6)" gradientUnits="userSpaceOnUse" id="gradient14" r="819.2" spreadMethod="pad">
      <stop offset="0.0" stop-color="#505050"/>
      <stop offset="1.0" stop-color="#141414"/>
    </radialGradient>
    <radialGradient cx="0" cy="0" gradientTransform="matrix(0.0544, 0.0, 0.0, 0.0544, -283.65, -72.4)" gradientUnits="userSpaceOnUse" id="gradient15" r="819.2" spreadMethod="pad">
      <stop offset="0.0" stop-color="#858585"/>
      <stop offset="1.0" stop-color="#2c2c2c"/>
    </radialGradient>
    <radialGradient cx="0" cy="0" gradientTransform="matrix(0.0785, 0.0, 0.0, 0.0785, -338.35, -89.6)" gradientUnits="userSpaceOnUse" id="gradient16" r="819.2" spreadMethod="pad">
      <stop offset="0.0" stop-color="#505050"/>
      <stop offset="1.0" stop-color="#131313"/>
    </radialGradient>
    <radialGradient cx="0" cy="0" gradientTransform="matrix(0.0502, 0.0, 0.0, 0.0502, -305.75, -89.35)" gradientUnits="userSpaceOnUse" id="gradient17" r="819.2" spreadMethod="pad">
      <stop offset="0.0" stop-color="#3a3a3a"/>
      <stop offset="1.0" stop-color="#000000"/>
    </radialGradient>
    <radialGradient cx="0" cy="0" gradientTransform="matrix(0.0313, 0.0, 0.0, 0.0313, -351.6, -166.35)" gradientUnits="userSpaceOnUse" id="gradient18" r="819.2" spreadMethod="pad">
      <stop offset="0.0" stop-color="#010101"/>
      <stop offset="1.0" stop-color="#000000"/>
    </radialGradient>
    <radialGradient cx="0" cy="0" gradientTransform="matrix(0.0911, 0.0, 0.0, 0.0911, -265.55, -200.9)" gradientUnits="userSpaceOnUse" id="gradient19" r="819.2" spreadMethod="pad">
      <stop offset="0.0" stop-color="#2f2f2f"/>
      <stop offset="1.0" stop-color="#000000"/>
    </radialGradient>
    <radialGradient cx="0" cy="0" gradientTransform="matrix(0.0383, 0.0, 0.0, 0.0383, -9.8, -231.05)" gradientUnits="userSpaceOnUse" id="gradient20" r="819.2" spreadMethod="pad">
      <stop offset="0.0" stop-color="#000000"/>
      <stop offset="1.0" stop-color="#000000"/>
    </radialGradient>
    <radialGradient cx="0" cy="0" gradientTransform="matrix(0.103, 0.0, 0.0, 0.103, -23.35, -203.85)" gradientUnits="userSpaceOnUse" id="gradient21" r="819.2" spreadMethod="pad">
      <stop offset="0.0" stop-color="#000000"/>
      <stop offset="1.0" stop-color="#000000"/>
    </radialGradient>
    <radialGradient cx="0" cy="0" gradientTransform="matrix(0.0523, 0.0, 0.0, 0.0523, -113.5, -245.95)" gradientUnits="userSpaceOnUse" id="gradient22" r="819.2" spreadMethod="pad">
      <stop offset="0.0" stop-color="#595959"/>
      <stop offset="1.0" stop-color="#070707"/>
    </radialGradient>
    <radialGradient cx="0" cy="0" gradientTransform="matrix(0.0307, 0.0, 0.0, 0.0307, -121.5, -215.0)" gradientUnits="userSpaceOnUse" id="gradient23" r="819.2" spreadMethod="pad">
      <stop offset="0.0" stop-color="#0a0a0a"/>
      <stop offset="1.0" stop-color="#000000"/>
    </radialGradient>
    <radialGradient cx="0" cy="0" gradientTransform="matrix(0.0288, 0.0, 0.0, 0.0288, -23.35, -203.85)" gradientUnits="userSpaceOnUse" id="gradient24" r="819.2" spreadMethod="pad">
      <stop offset="0.0" stop-color="#000000"/>
      <stop offset="1.0" stop-color="#000000"/>
    </radialGradient>
    <radialGradient cx="0" cy="0" gradientTransform="matrix(0.1037, 0.0, 0.0, 0.1037, -131.2, -115.55)" gradientUnits="userSpaceOnUse" id="gradient25" r="819.2" spreadMethod="pad">
      <stop offset="0.0" stop-color="#353535"/>
      <stop offset="1.0" stop-color="#000000"/>
    </radialGradient>
    <radialGradient cx="0" cy="0" gradientTransform="matrix(0.2097, 0.0, 0.0, 0.2097, -279.65, -13.2)" gradientUnits="userSpaceOnUse" id="gradient26" r="819.2" spreadMethod="pad">
      <stop offset="0.0" stop-color="#6f6f6f"/>
      <stop offset="1.0" stop-color="#000000"/>
    </radialGradient>
    <radialGradient cx="0" cy="0" gradientTransform="matrix(0.0819, 0.0, 0.0, 0.0819, -249.65, -128.2)" gradientUnits="userSpaceOnUse" id="gradient27" r="819.2" spreadMethod="pad">
      <stop offset="0.0" stop-color="#838383"/>
      <stop offset="1.0" stop-color="#2a2a2a"/>
    </radialGradient>
    <radialGradient cx="0" cy="0" gradientTransform="matrix(0.0567, 0.0, 0.0, 0.0567, -265.15, -179.15)" gradientUnits="userSpaceOnUse" id="gradient28" r="819.2" spreadMethod="pad">
      <stop offset="0.0" stop-color="#626262"/>
      <stop offset="1.0" stop-color="#373737"/>
    </radialGradient>
    <radialGradient cx="0" cy="0" gradientTransform="matrix(0.0585, 0.0, 0.0, 0.0585, -337.95, -120.45)" gradientUnits="userSpaceOnUse" id="gradient29" r="819.2" spreadMethod="pad">
      <stop offset="0.0" stop-color="#292929"/>
      <stop offset="1.0" stop-color="#010101"/>
    </radialGradient>
    <radialGradient cx="0" cy="0" gradientTransform="matrix(0.1242, 0.0, 0.0, 0.1242, -87.4, -1.0)" gradientUnits="userSpaceOnUse" id="gradient30" r="819.2" spreadMethod="pad">
      <stop offset="0.0" stop-color="#343434"/>
      <stop offset="1.0" stop-color="#000000"/>
    </radialGradient>
    <radialGradient cx="0" cy="0" gradientTransform="matrix(0.1028, 0.0, 0.0, 0.1028, -284.4, -1.0)" gradientUnits="userSpaceOnUse" id="gradient31" r="819.2" spreadMethod="pad">
      <stop offset="0.0" stop-color="#717171"/>
      <stop offset="1.0" stop-color="#262626"/>
    </radialGradient>
  </defs>
</svg>
