<?xml version="1.0" encoding="UTF-8" standalone="no"?>
<svg xmlns:xlink="http://www.w3.org/1999/xlink" height="299.1px" width="399.1px" xmlns="http://www.w3.org/2000/svg">
  <g transform="matrix(1.0, 0.0, 0.0, 1.0, 400.0, 300.0)">
    <path d="M-279.5 -300.0 L-278.25 -300.0 -280.0 -295.75 -280.5 -296.5 -279.5 -300.0" fill="url(#gradient0)" fill-rule="evenodd" stroke="none"/>
    <path d="M-267.75 -240.25 L-273.5 -246.5 -276.0 -249.9 -277.0 -252.9 -283.0 -270.25 -283.0 -277.5 -281.0 -291.75 -280.0 -295.75 -278.25 -300.0 -198.4 -300.0 -203.0 -294.65 -204.75 -293.15 -207.65 -283.75 -214.4 -275.75 -219.65 -272.65 Q-223.65 -266.65 -227.75 -264.75 L-230.15 -258.0 -234.15 -252.4 -236.9 -249.25 -240.5 -246.4 -244.4 -244.15 -249.0 -243.0 -249.15 -242.65 -251.25 -240.25 Q-252.9 -238.65 -255.0 -238.0 L-258.9 -237.0 -264.5 -238.4 Q-266.9 -241.0 -267.75 -240.25" fill="url(#gradient1)" fill-rule="evenodd" stroke="none"/>
    <path d="M-392.0 -259.0 L-359.0 -269.5 -296.15 -293.75 -287.75 -299.9 -279.5 -300.0 -280.5 -296.5 -280.0 -295.75 -281.0 -291.75 -283.0 -277.5 -283.0 -270.25 -277.0 -252.9 -293.4 -252.15 -339.25 -232.5 -343.75 -227.25 -363.0 -230.4 -380.25 -252.9 -392.0 -259.0" fill="url(#gradient2)" fill-rule="evenodd" stroke="none"/>
    <path d="M-357.65 -211.75 L-353.4 -205.65 -380.25 -212.65 -398.5 -202.65 -400.0 -203.9 -400.0 -253.15 -392.0 -259.0 -380.25 -252.9 -363.0 -230.4 -362.15 -225.65 -362.0 -225.25 -362.0 -225.15 -360.65 -215.5 -359.5 -214.25 -357.65 -211.75" fill="url(#gradient3)" fill-rule="evenodd" stroke="none"/>
    <path d="M-333.0 -116.9 L-355.25 -139.4 -375.5 -158.4 -399.9 -185.4 -400.0 -203.9 -398.5 -202.65 -385.0 -190.25 -369.4 -173.25 -368.9 -173.15 -347.5 -152.15 -333.75 -141.15 Q-336.9 -137.5 -336.65 -136.65 L-337.0 -129.15 Q-336.25 -124.9 -336.75 -124.25 L-333.0 -117.15 -333.0 -116.9" fill="url(#gradient4)" fill-rule="evenodd" stroke="none"/>
    <path d="M-332.75 -116.75 L-333.0 -116.9 -333.0 -117.15 -332.75 -116.75" fill="url(#gradient5)" fill-rule="evenodd" stroke="none"/>
    <path d="M-296.5 -144.9 Q-289.9 -136.15 -290.9 -129.65 L-292.75 -121.25 -294.0 -119.0 -294.9 -117.75 -300.9 -112.0 Q-320.5 -102.75 -332.75 -116.75 L-333.0 -117.15 -336.75 -124.25 Q-336.25 -124.9 -337.0 -129.15 L-336.65 -136.65 Q-336.9 -137.5 -333.75 -141.15 L-330.25 -146.4 -322.0 -151.15 -314.5 -151.65 Q-306.15 -150.5 -305.75 -148.5 L-301.65 -149.4 -296.5 -144.9" fill="url(#gradient6)" fill-rule="evenodd" stroke="none"/>
    <path d="M-353.4 -205.65 L-329.75 -187.9 -317.4 -174.65 -306.5 -165.0 -295.9 -150.75 -301.65 -149.4 -305.75 -148.5 Q-306.15 -150.5 -314.5 -151.65 L-322.0 -151.15 -330.25 -146.4 -333.75 -141.15 -347.5 -152.15 -368.9 -173.15 -369.4 -173.25 -385.0 -190.25 -398.5 -202.65 -380.25 -212.65 -353.4 -205.65" fill="url(#gradient7)" fill-rule="evenodd" stroke="none"/>
    <path d="M-295.9 -150.75 L-296.5 -144.9 -301.65 -149.4 -295.9 -150.75" fill="url(#gradient8)" fill-rule="evenodd" stroke="none"/>
    <path d="M-344.9 -222.9 L-357.65 -211.75 -359.5 -214.25 -362.0 -225.15 -362.0 -225.25 -362.15 -225.65 -363.0 -230.4 -343.75 -227.25 -344.9 -222.9" fill="url(#gradient9)" fill-rule="evenodd" stroke="none"/>
    <path d="M-273.5 -246.5 L-294.75 -237.25 -325.15 -229.5 -344.9 -222.9 -343.75 -227.25 -339.25 -232.5 -293.4 -252.15 -277.0 -252.9 -276.0 -249.9 -273.5 -246.5" fill="url(#gradient10)" fill-rule="evenodd" stroke="none"/>
    <path d="M-198.4 -300.0 L-192.65 -300.0 -191.9 -297.65 -187.65 -292.65 -187.75 -289.65 -185.5 -280.9 -179.4 -272.4 -173.9 -268.4 -160.9 -264.4 -152.15 -251.9 -160.75 -258.25 -161.4 -258.4 -219.9 -260.5 -236.9 -249.25 -234.15 -252.4 -230.15 -258.0 -227.75 -264.75 Q-223.65 -266.65 -219.65 -272.65 L-214.4 -275.75 -207.65 -283.75 -204.75 -293.15 -203.0 -294.65 -198.4 -300.0 M-135.15 -243.15 L-136.4 -239.75 -141.15 -243.4 -137.75 -242.25 -135.15 -243.15 M-244.4 -244.15 L-248.65 -241.15 -249.15 -242.65 -249.0 -243.0 -244.4 -244.15" fill="url(#gradient11)" fill-rule="evenodd" stroke="none"/>
    <path d="M-136.4 -239.75 L-136.25 -239.5 -147.5 -198.25 -147.15 -197.5 -146.15 -177.0 -145.75 -175.9 -142.9 -129.0 -159.15 -141.9 -223.25 -143.9 -243.4 -132.15 -238.5 -201.75 -248.65 -241.15 -244.4 -244.15 -240.5 -246.4 -236.9 -249.25 -219.9 -260.5 -161.4 -258.4 -160.75 -258.25 -152.15 -251.9 -147.5 -247.5 -142.4 -243.9 -141.15 -243.4 -136.4 -239.75" fill="url(#gradient12)" fill-rule="evenodd" stroke="none"/>
    <path d="M-192.65 -300.0 L-121.9 -300.0 -117.0 -291.9 -117.0 -291.75 -116.4 -291.0 -115.0 -285.4 -114.65 -285.0 -114.75 -284.0 -114.25 -277.75 -113.75 -269.15 -113.9 -262.5 -116.15 -255.9 -120.5 -246.75 -121.0 -248.25 Q-121.0 -246.9 -127.75 -242.15 L-132.4 -241.4 -133.9 -242.0 -134.75 -243.15 -135.15 -243.15 -137.75 -242.25 -141.15 -243.4 -142.4 -243.9 -147.5 -247.5 -152.15 -251.9 -160.9 -264.4 -173.9 -268.4 -179.4 -272.4 -185.5 -280.9 -187.75 -289.65 -187.65 -292.65 -191.9 -297.65 -192.65 -300.0" fill="url(#gradient13)" fill-rule="evenodd" stroke="none"/>
    <path d="M-121.9 -300.0 L-120.75 -300.0 -119.0 -299.0 -117.0 -291.9 -121.9 -300.0 M-114.75 -284.0 L-113.15 -279.4 -113.25 -278.4 -114.25 -277.75 -114.75 -284.0" fill="url(#gradient14)" fill-rule="evenodd" stroke="none"/>
    <path d="M-4.0 -265.65 L-15.65 -250.25 -30.9 -226.65 -46.0 -228.9 -64.4 -234.5 -86.25 -243.25 -110.0 -249.5 -113.25 -278.4 -113.15 -279.4 -114.75 -284.0 -114.65 -285.0 -115.0 -285.4 -116.4 -291.0 -117.0 -291.75 -117.0 -291.9 -119.0 -299.0 -103.5 -297.25 -69.5 -285.25 -44.25 -278.25 -4.0 -265.65" fill="url(#gradient15)" fill-rule="evenodd" stroke="none"/>
    <path d="M-120.75 -300.0 L-113.15 -300.0 -103.5 -297.25 -119.0 -299.0 -120.75 -300.0" fill="url(#gradient16)" fill-rule="evenodd" stroke="none"/>
    <path d="M-111.25 -242.75 L-120.15 -242.0 -120.5 -246.75 -116.15 -255.9 -113.9 -262.5 -113.75 -269.15 -114.25 -277.75 -113.25 -278.4 -110.0 -249.5 -111.25 -242.75" fill="url(#gradient17)" fill-rule="evenodd" stroke="none"/>
    <path d="M-4.0 -265.65 L-0.9 -265.0 -0.9 -218.15 -2.9 -218.65 -30.9 -226.65 -15.65 -250.25 -4.0 -265.65" fill="url(#gradient18)" fill-rule="evenodd" stroke="none"/>
    <path d="M-22.5 -213.25 L-61.65 -214.65 -86.15 -227.5 -111.25 -242.75 -110.0 -249.5 -86.25 -243.25 -64.4 -234.5 -46.0 -228.9 -30.9 -226.65 -22.5 -213.25" fill="url(#gradient19)" fill-rule="evenodd" stroke="none"/>
    <path d="M-268.65 -232.9 L-267.65 -240.15 -267.75 -240.25 Q-266.9 -241.0 -264.5 -238.4 L-258.9 -237.0 -268.65 -232.9 M-248.65 -241.15 L-251.25 -240.25 -249.15 -242.65 -248.65 -241.15" fill="url(#gradient20)" fill-rule="evenodd" stroke="none"/>
    <path d="M-260.65 -113.25 L-257.25 -148.4 -256.0 -166.4 -267.4 -217.75 -268.65 -232.9 -258.9 -237.0 -255.0 -238.0 Q-252.9 -238.65 -251.25 -240.25 L-248.65 -241.15 -238.5 -201.75 -243.4 -132.15 -243.75 -131.65 -258.4 -116.25 -260.65 -113.25" fill="url(#gradient21)" fill-rule="evenodd" stroke="none"/>
    <path d="M-91.9 -0.9 L-301.5 -0.9 -301.5 -2.4 -295.15 -38.5 -278.5 -71.5 -243.75 -131.65 -243.4 -132.15 -223.25 -143.9 -159.15 -141.9 -142.9 -129.0 -142.5 -128.4 -109.75 -64.5 -96.9 -31.5 -91.9 -0.9" fill="url(#gradient22)" fill-rule="evenodd" stroke="none"/>
    <path d="M-119.25 -230.4 L-123.0 -212.75 -133.5 -170.25 -131.9 -148.0 -128.65 -114.5 -142.5 -128.4 -142.9 -129.0 -145.75 -175.9 -146.15 -177.0 -147.15 -197.5 -147.5 -198.25 -136.25 -239.5 -119.25 -230.4" fill="url(#gradient23)" fill-rule="evenodd" stroke="none"/>
    <path d="M-120.15 -242.0 L-119.25 -230.4 -136.25 -239.5 -136.4 -239.75 -135.15 -243.15 -134.75 -243.15 -133.9 -242.0 -132.4 -241.4 -127.75 -242.15 Q-121.0 -246.9 -121.0 -248.25 L-120.5 -246.75 -120.15 -242.0" fill="url(#gradient24)" fill-rule="evenodd" stroke="none"/>
    <path d="M-359.5 -214.25 L-360.65 -215.5 -362.0 -225.15 -359.5 -214.25" fill="url(#gradient25)" fill-rule="evenodd" stroke="none"/>
    <path d="M-30.9 -226.65 L-2.9 -218.65 -22.5 -213.25 -30.9 -226.65" fill="url(#gradient26)" fill-rule="evenodd" stroke="none"/>
    <path d="M-305.5 -5.0 L-303.15 -24.75 -294.5 -68.25 -260.65 -113.25 -258.4 -116.25 -243.75 -131.65 -278.5 -71.5 -295.15 -38.5 -301.5 -2.4 -302.15 -8.65 -305.5 -5.0" fill="url(#gradient27)" fill-rule="evenodd" stroke="none"/>
    <path d="M-128.65 -114.5 L-94.9 -64.5 -87.75 -4.9 -89.25 -0.9 -91.9 -0.9 -96.9 -31.5 -109.75 -64.5 -142.5 -128.4 -128.65 -114.5" fill="url(#gradient28)" fill-rule="evenodd" stroke="none"/>
    <path d="M-301.5 -0.9 L-308.65 -0.9 -305.75 -4.5 -305.5 -5.0 -302.15 -8.65 -301.5 -2.4 -301.5 -0.9" fill="url(#gradient29)" fill-rule="evenodd" stroke="none"/>
    <path d="M-87.75 -4.9 L-80.0 -1.0 -89.25 -0.9 -87.75 -4.9" fill="url(#gradient30)" fill-rule="evenodd" stroke="none"/>
    <path d="M-285.5 -292.25 L-285.5 -293.4 -285.25 -293.75 -283.15 -300.0 -280.4 -300.0 -281.0 -296.75 -280.9 -296.5 -281.0 -296.4 -281.15 -296.15 -281.0 -295.75 -282.65 -286.5 -285.5 -292.25" fill="#c40000" fill-rule="evenodd" stroke="none"/>
    <path d="M-280.4 -300.0 L-276.65 -299.9 -275.65 -300.0 -213.9 -300.0 -213.25 -299.5 -213.25 -299.25 -212.25 -298.65 -204.75 -293.0 -204.75 -292.75 -195.4 -285.9 -190.4 -288.15 -190.25 -288.4 -182.0 -292.15 -181.65 -292.5 -176.4 -295.0 -175.75 -295.15 Q-170.8 -297.55 -165.9 -300.0 L-121.9 -300.0 -120.75 -299.9 -112.75 -299.9 -108.25 -298.65 -108.25 -297.75 -107.0 -282.65 -107.15 -281.15 -109.4 -274.0 -109.25 -273.65 -111.65 -265.9 -111.75 -264.4 -115.15 -252.75 -128.5 -258.15 -128.9 -258.5 -153.75 -268.4 -155.4 -268.75 -167.0 -269.0 -167.15 -268.9 -174.65 -268.9 -174.75 -269.25 -199.0 -269.75 -229.75 -271.4 -231.4 -270.4 -232.4 -269.75 -232.75 -269.65 -232.75 -269.5 -234.15 -268.65 -235.15 -268.25 -235.4 -267.9 -237.5 -266.5 -238.15 -266.15 -239.5 -265.25 -240.15 -264.9 -241.5 -264.0 -241.75 -263.9 -243.5 -262.75 -244.0 -262.65 -244.15 -262.4 -245.9 -261.25 -246.15 -261.15 -247.25 -260.4 -247.75 -260.25 -247.9 -260.0 -248.25 -259.75 -248.9 -259.4 -253.65 -256.4 -254.5 -256.0 -254.65 -255.75 -257.0 -254.25 -257.65 -253.9 -258.0 -253.65 -258.5 -253.4 -258.65 -253.25 -259.0 -253.0 -259.9 -252.65 -260.0 -252.4 -261.0 -251.75 -262.9 -250.65 -263.0 -250.5 -264.0 -249.9 -264.4 -249.75 -264.4 -249.65 -265.0 -249.25 -265.25 -249.15 -265.65 -248.9 -270.0 -258.4 -270.15 -259.0 -274.0 -267.15 -274.75 -269.25 -275.0 -269.4 -275.25 -270.15 -278.9 -277.65 -278.9 -278.0 -279.0 -278.4 -279.0 -278.65 -281.15 -282.65 -281.25 -283.5 -281.65 -283.75 -281.75 -284.15 -282.0 -284.5 -282.0 -285.15 -282.5 -285.65 -282.65 -286.5 -281.0 -295.75 -281.15 -296.15 -281.0 -296.4 -280.9 -296.5 -281.0 -296.75 -280.4 -300.0 M-141.25 -293.9 L-141.5 -293.5 -141.65 -293.5 -141.65 -292.9 -141.15 -291.15 -141.15 -290.65 -140.9 -290.65 -139.9 -291.65 -139.65 -292.0 -139.5 -292.4 -139.65 -292.9 -140.5 -294.25 -141.25 -293.9 M-251.75 -290.4 L-251.75 -289.5 -251.4 -289.5 -250.75 -290.0 -250.9 -290.25 -252.25 -295.5 -252.15 -292.75 -251.75 -290.4" fill="#b00000" fill-opacity="0.9098039" fill-rule="evenodd" stroke="none"/>
    <path d="M-289.9 -239.5 L-289.0 -251.5 -288.9 -251.75 -289.0 -252.25 -287.5 -268.75 -287.65 -269.65 -285.5 -292.25 -282.65 -286.5 -282.5 -285.65 -286.65 -260.0 -286.15 -241.0 -289.9 -239.5" fill="#fb0000" fill-rule="evenodd" stroke="none"/>
    <path d="M-112.75 -299.9 L-108.4 -300.0 -108.25 -298.65 -112.75 -299.9" fill="#c20000" fill-opacity="0.9098039" fill-rule="evenodd" stroke="none"/>
    <path d="M-108.4 -300.0 L-107.4 -300.0 -107.15 -298.4 -108.25 -298.65 -108.4 -300.0" fill="#c50000" fill-rule="evenodd" stroke="none"/>
    <path d="M-107.15 -298.4 L-106.9 -297.65 -105.5 -290.0 -105.25 -289.65 -105.25 -288.0 -107.0 -282.65 -108.25 -297.75 -108.25 -298.65 -107.15 -298.4" fill="#c30000" fill-rule="evenodd" stroke="none"/>
    <path d="M-265.65 -248.9 L-265.65 -248.75 -265.4 -248.4 -264.15 -243.4 -263.65 -242.4 -263.15 -239.9 -262.9 -239.65 -262.65 -238.0 -262.4 -237.75 -253.25 -205.15 -255.0 -188.9 -254.9 -187.75 -256.65 -171.5 -256.5 -170.65 -256.5 -170.25 -256.75 -170.0 -260.4 -185.4 -262.4 -195.75 -262.4 -195.9 -262.65 -196.9 -262.65 -197.0 -262.75 -197.4 -262.75 -197.65 -262.9 -198.0 -262.9 -198.15 -267.4 -217.75 -268.65 -232.15 -268.65 -232.9 -267.65 -240.15 -271.25 -243.9 -271.5 -244.25 -272.9 -245.75 -272.9 -245.9 -273.15 -246.25 -273.5 -246.5 -286.15 -241.0 -286.65 -260.0 -282.5 -285.65 -282.0 -285.15 -282.0 -284.5 -281.75 -284.15 -281.65 -283.75 -281.25 -283.5 -281.15 -282.65 -279.0 -278.65 -279.0 -278.4 -278.9 -278.0 -278.9 -277.65 -275.25 -270.15 -275.0 -269.4 -274.75 -269.25 -274.0 -267.15 -270.15 -259.0 -270.0 -258.4 -265.65 -248.9 M-257.4 -146.9 L-256.9 -143.4 -257.0 -140.9 -256.5 -137.4 -256.5 -136.65 -256.65 -136.65 -256.75 -134.75 -256.0 -127.9 -257.25 -126.0 -257.65 -125.0 -258.25 -124.4 -258.75 -123.25 -259.75 -122.0 -259.75 -123.15 -259.9 -123.5 -259.65 -124.0 -259.15 -129.4 -259.0 -129.75 -259.0 -130.15 -257.4 -146.9 M-294.9 -66.4 L-294.4 -68.4 -290.4 -73.4 -293.15 -68.75 -293.4 -68.5 -294.9 -66.4" fill="#e80000" fill-opacity="0.9098039" fill-rule="evenodd" stroke="none"/>
    <path d="M-286.15 -241.0 L-273.5 -246.5 -273.15 -246.25 -272.9 -245.9 -272.9 -245.75 -271.5 -244.25 -271.25 -243.9 -267.65 -240.15 -268.65 -232.9 -268.65 -232.15 -267.4 -217.75 -262.9 -198.15 -262.9 -198.0 -262.75 -197.65 -262.75 -197.4 -262.65 -197.0 -262.65 -196.9 -262.4 -195.9 -262.4 -195.75 -260.4 -185.4 -261.25 -185.65 -270.75 -197.9 -271.15 -198.25 -271.25 -198.5 -272.15 -199.5 -272.15 -199.65 -276.15 -204.75 -285.4 -226.15 -286.0 -240.0 -286.15 -241.0" fill="#ff0000" fill-opacity="0.9098039" fill-rule="evenodd" stroke="none"/>
    <path d="M-256.75 -170.0 L-256.65 -168.0 -257.9 -155.75 -257.4 -150.15 -257.4 -148.9 -257.25 -148.5 -257.4 -148.25 -257.5 -147.9 -257.4 -146.9 -259.0 -130.15 -259.0 -129.75 -259.15 -129.4 -259.65 -124.0 -259.9 -123.5 -259.75 -123.15 -259.75 -122.0 -260.15 -121.0 -265.75 -112.5 -265.4 -116.5 -265.5 -117.4 -265.25 -118.0 -263.25 -141.25 -261.25 -185.65 -260.4 -185.4 -256.75 -170.0" fill="#f80000" fill-rule="evenodd" stroke="none"/>
    <path d="M-324.5 -0.9 L-329.25 -0.9 -325.4 -13.0 -317.0 -55.25 -277.65 -103.65 -277.65 -104.0 -279.4 -119.25 -274.0 -164.5 -274.15 -165.5 -287.9 -221.4 -276.75 -205.0 -272.15 -199.65 -272.15 -199.5 -271.25 -198.5 -271.15 -198.25 -270.75 -197.9 -261.25 -185.65 -263.25 -141.25 -265.25 -118.0 -265.5 -117.4 -265.4 -116.5 -265.75 -112.5 -266.15 -111.5 -276.5 -95.4 -276.65 -95.0 -287.15 -78.25 -290.15 -73.75 -290.4 -73.5 -290.4 -73.4 -294.4 -68.4 -294.9 -66.4 -294.9 -65.75 -295.15 -65.5 -299.9 -57.9 -320.5 -20.65 -324.5 -0.9" fill="#fc0000" fill-rule="evenodd" stroke="none"/>
    <path d="M-287.9 -221.4 L-290.0 -238.4 -290.0 -239.25 -289.9 -239.5 -286.15 -241.0 -286.0 -240.0 -285.4 -226.15 -276.15 -204.75 -272.15 -199.65 -276.75 -205.0 -287.9 -221.4" fill="#fd0000" fill-rule="evenodd" stroke="none"/>
    <path d="M-115.15 -252.75 L-115.9 -251.25 -117.5 -247.15 -117.75 -246.9 -119.75 -242.0 -120.15 -242.0 -120.0 -241.75 -120.15 -240.9 -135.0 -206.9 -135.25 -205.65 Q-138.0 -200.9 -137.25 -199.9 L-135.9 -182.0 -135.65 -181.25 -134.25 -162.75 -133.9 -160.9 -134.15 -160.25 -133.9 -159.5 -133.25 -152.0 -133.9 -144.65 -133.75 -143.5 -134.25 -140.5 -134.0 -139.9 -135.0 -130.65 -134.75 -129.4 -135.4 -124.0 -143.25 -130.0 -143.65 -130.65 -154.75 -139.15 -221.65 -141.25 -232.5 -141.4 -252.65 -129.9 -252.9 -129.5 -256.0 -127.9 -256.75 -134.75 -256.65 -136.65 -256.5 -136.65 -256.5 -137.4 -257.0 -140.9 -256.9 -143.4 -257.4 -146.9 -257.5 -147.9 -257.4 -148.25 -257.25 -148.5 -257.4 -148.9 -257.4 -150.15 -257.0 -151.4 -257.0 -151.9 -256.0 -166.65 -256.65 -168.0 -256.75 -170.0 -256.5 -170.25 -256.5 -170.65 -256.65 -171.5 -254.9 -187.75 -255.0 -188.9 -253.25 -205.15 -262.4 -237.75 -262.65 -238.0 -262.9 -239.65 -263.15 -239.9 -263.65 -242.4 -264.15 -243.4 -265.4 -248.4 -265.65 -248.75 -265.65 -248.9 -265.25 -249.15 -265.0 -249.25 -264.4 -249.65 -264.4 -249.75 -264.0 -249.9 -263.0 -250.5 -262.9 -250.65 -261.0 -251.75 -260.0 -252.4 -259.9 -252.65 -259.0 -253.0 -258.65 -253.25 -258.5 -253.4 -258.0 -253.65 -257.65 -253.9 -257.0 -254.25 -254.65 -255.75 -254.5 -256.0 -253.65 -256.4 -248.9 -259.4 -248.25 -259.75 -247.9 -260.0 -247.75 -260.25 -247.25 -260.4 -246.15 -261.15 -245.9 -261.25 -244.15 -262.4 -244.0 -262.65 -243.5 -262.75 -241.75 -263.9 -241.5 -264.0 -240.15 -264.9 -239.5 -265.25 -238.15 -266.15 -237.5 -266.5 -235.4 -267.9 -235.15 -268.25 -234.15 -268.65 -232.75 -269.5 -232.75 -269.65 -232.4 -269.75 -231.4 -270.4 -229.75 -271.4 -199.0 -269.75 -174.75 -269.25 -174.65 -268.9 -167.15 -268.9 -167.0 -269.0 -155.4 -268.75 -153.75 -268.4 -128.9 -258.5 -128.5 -258.15 -115.15 -252.75" fill="#a70000" fill-opacity="0.9098039" fill-rule="evenodd" stroke="none"/>
    <path d="M-107.15 -241.9 L-110.5 -246.25 -110.65 -246.75 -115.15 -252.75 -111.75 -264.4 -111.65 -265.9 -109.25 -273.65 -109.4 -274.0 -107.15 -281.15 -106.4 -270.25 -106.0 -269.5 -105.25 -255.5 -107.15 -241.9" fill="#c00000" fill-opacity="0.9098039" fill-rule="evenodd" stroke="none"/>
    <path d="M-105.25 -288.0 L-104.15 -267.4 -103.75 -266.65 -102.75 -242.9 -102.65 -242.5 -102.4 -237.4 -105.15 -238.9 -105.25 -239.15 -105.5 -239.25 -107.15 -241.4 -107.15 -241.9 -105.25 -255.5 -106.0 -269.5 -106.4 -270.25 -107.15 -281.15 -107.0 -282.65 -105.25 -288.0" fill="#d30000" fill-rule="evenodd" stroke="none"/>
    <path d="M-102.4 -237.4 L-102.25 -235.15 -105.15 -238.9 -102.4 -237.4" fill="#d50000" fill-rule="evenodd" stroke="none"/>
    <path d="M-102.25 -235.15 L-102.4 -233.65 -106.65 -218.0 -119.65 -202.75 -109.75 -220.15 -107.25 -240.25 -105.5 -239.25 -105.25 -239.15 -105.15 -238.9 -102.25 -235.15" fill="#e20000" fill-rule="evenodd" stroke="none"/>
    <path d="M-107.4 -240.5 L-107.15 -241.4 -105.5 -239.25 -107.25 -240.25 -107.4 -240.5" fill="#e00000" fill-rule="evenodd" stroke="none"/>
    <path d="M-119.75 -242.0 L-117.75 -246.9 -117.5 -247.15 -115.9 -251.25 -115.15 -252.75 -110.65 -246.75 -110.5 -246.25 -107.15 -241.9 -107.15 -241.4 -107.4 -240.5 -111.25 -242.75 -119.75 -242.0 M-135.4 -124.0 L-134.75 -129.4 -135.0 -130.65 -134.0 -139.9 -134.25 -140.5 -133.75 -143.5 -133.9 -144.65 -133.25 -152.0 -133.9 -159.5 -134.15 -160.25 -133.9 -160.9 -134.25 -162.75 -135.65 -181.25 -135.9 -182.0 -137.25 -199.9 Q-138.0 -200.9 -135.25 -205.65 L-135.0 -206.9 -120.15 -240.9 -119.25 -230.4 -119.75 -228.0 -119.9 -227.5 -119.9 -227.15 -120.0 -226.65 -120.25 -225.9 -120.25 -225.4 -127.0 -197.0 -127.0 -196.9 -127.4 -195.75 -133.5 -170.75 -132.9 -159.0 -133.0 -158.65 -132.9 -158.5 -130.9 -136.65 -131.0 -136.25 -130.9 -136.0 -129.0 -117.75 -130.25 -118.65 -130.75 -119.4 -135.0 -123.5 -135.4 -124.0" fill="#cd0000" fill-opacity="0.9098039" fill-rule="evenodd" stroke="none"/>
    <path d="M-120.15 -240.9 L-120.0 -241.75 -119.75 -242.0 -111.25 -242.75 -107.4 -240.5 -107.25 -240.25 -109.75 -220.15 -119.65 -202.75 -119.75 -202.5 -120.15 -201.9 -127.0 -197.0 -120.25 -225.4 -120.25 -225.9 -120.0 -226.65 -119.9 -227.15 -119.9 -227.5 -119.75 -228.0 -119.25 -230.4 -120.15 -240.9" fill="#e20000" fill-opacity="0.9098039" fill-rule="evenodd" stroke="none"/>
    <path d="M-120.0 -241.75 L-120.15 -242.0 -119.75 -242.0 -120.0 -241.75" fill="#b80000" fill-opacity="0.9098039" fill-rule="evenodd" stroke="none"/>
    <path d="M-106.65 -218.0 L-106.5 -217.65 -119.9 -169.5 -120.0 -168.4 -116.25 -133.9 -116.0 -128.9 -116.5 -116.65 -118.0 -106.25 -118.75 -107.0 -128.9 -117.25 -129.0 -117.75 -130.9 -136.0 -131.0 -136.25 -130.9 -136.65 -132.9 -158.5 -133.0 -158.65 -132.9 -159.0 -133.5 -170.75 -127.4 -195.75 -127.0 -196.9 -127.0 -197.0 -120.15 -201.9 -119.75 -202.5 -119.65 -202.75 -106.65 -218.0" fill="#e40000" fill-rule="evenodd" stroke="none"/>
    <path d="M-308.65 -0.9 L-324.5 -0.9 -320.5 -20.65 -299.9 -57.9 -295.15 -65.5 -295.15 -64.15 -302.4 -27.9 -303.0 -25.75 -305.4 -6.0 -305.5 -5.65 -305.5 -5.0 -305.75 -4.5 -308.65 -0.9 M-266.15 -111.5 L-266.0 -110.4 -266.4 -105.65 -287.15 -78.25 -276.65 -95.0 -276.5 -95.4 -266.15 -111.5" fill="#b90000" fill-rule="evenodd" stroke="none"/>
    <path d="M-80.0 -0.9 L-308.65 -0.9 -305.75 -4.5 -305.5 -5.0 -305.5 -5.65 -305.4 -6.0 -303.0 -25.75 -302.4 -27.9 -295.15 -64.15 -295.15 -65.5 -294.9 -65.75 -294.9 -66.4 -293.4 -68.5 -293.15 -68.75 -290.4 -73.4 -290.4 -73.5 -290.15 -73.75 -287.15 -78.25 -266.4 -105.65 -260.65 -113.25 -260.0 -120.65 -260.15 -121.0 -259.75 -122.0 -258.75 -123.25 -258.25 -124.4 -257.65 -125.0 -257.25 -126.0 -256.0 -127.9 -252.9 -129.5 -252.65 -129.9 -232.5 -141.4 -221.65 -141.25 -154.75 -139.15 -143.65 -130.65 -143.25 -130.0 -135.4 -124.0 -135.0 -123.5 -132.4 -118.5 -131.65 -117.4 -96.0 -52.9 -92.75 -45.5 -92.4 -44.0 -91.65 -36.25 -91.75 -35.5 -87.75 -4.75 -80.0 -0.9" fill="#a40000" fill-opacity="0.9098039" fill-rule="evenodd" stroke="none"/>
    <path d="M-265.75 -112.5 L-260.15 -121.0 -260.0 -120.65 -260.65 -113.25 -266.4 -105.65 -266.0 -110.4 -266.15 -111.5 -265.75 -112.5" fill="#b50000" fill-rule="evenodd" stroke="none"/>
    <path d="M-118.0 -106.25 L-117.9 -105.75 -78.25 -51.0 -73.65 -18.15 -67.4 -0.9 -76.15 -0.9 -78.9 -12.9 -92.4 -44.0 -92.75 -45.5 -95.0 -64.5 -118.75 -100.0 -119.15 -100.5 -119.25 -100.75 -118.75 -107.0 -118.0 -106.25" fill="#cb0000" fill-rule="evenodd" stroke="none"/>
    <path d="M-118.75 -107.0 L-119.25 -100.75 -128.75 -114.65 -128.9 -114.75 -128.9 -117.25 -118.75 -107.0" fill="#cc0000" fill-rule="evenodd" stroke="none"/>
    <path d="M-119.25 -100.75 L-119.15 -100.5 -118.75 -100.0 -95.0 -64.5 -92.75 -45.5 -96.0 -52.9 -131.65 -117.4 -132.4 -118.5 -135.0 -123.5 -130.75 -119.4 -130.25 -118.65 -129.0 -117.75 -128.9 -117.25 -128.9 -114.75 -128.75 -114.65 -119.25 -100.75" fill="#b50000" fill-opacity="0.9098039" fill-rule="evenodd" stroke="none"/>
    <path d="M-256.65 -168.0 L-256.0 -166.65 -257.0 -151.9 -257.0 -151.4 -257.4 -150.15 -257.9 -155.75 -256.65 -168.0" fill="#b80000" fill-rule="evenodd" stroke="none"/>
    <path d="M-76.15 -0.9 L-80.0 -0.9 -87.75 -4.75 -91.75 -35.5 -91.65 -36.25 -92.4 -44.0 -78.9 -12.9 -76.15 -0.9" fill="#bb0000" fill-rule="evenodd" stroke="none"/>
  </g>
  <defs>
    <radialGradient cx="0" cy="0" gradientTransform="matrix(0.0415, 0.0, 0.0, 0.0415, -263.35, -270.0)" gradientUnits="userSpaceOnUse" id="gradient0" r="819.2" spreadMethod="pad">
      <stop offset="0.0" stop-color="#171717"/>
      <stop offset="1.0" stop-color="#000000"/>
    </radialGradient>
    <radialGradient cx="0" cy="0" gradientTransform="matrix(0.0667, 0.0, 0.0, 0.0667, -233.9, -281.2)" gradientUnits="userSpaceOnUse" id="gradient1" r="819.2" spreadMethod="pad">
      <stop offset="0.0" stop-color="#858585"/>
      <stop offset="1.0" stop-color="#000000"/>
    </radialGradient>
    <radialGradient cx="0" cy="0" gradientTransform="matrix(0.0832, 0.0, 0.0, 0.0832, -328.85, -253.15)" gradientUnits="userSpaceOnUse" id="gradient2" r="819.2" spreadMethod="pad">
      <stop offset="0.0" stop-color="#6a6a6a"/>
      <stop offset="1.0" stop-color="#000000"/>
    </radialGradient>
    <radialGradient cx="0" cy="0" gradientTransform="matrix(0.0695, 0.0, 0.0, 0.0695, -398.4, -202.65)" gradientUnits="userSpaceOnUse" id="gradient3" r="819.2" spreadMethod="pad">
      <stop offset="0.0" stop-color="#393939"/>
      <stop offset="1.0" stop-color="#000000"/>
    </radialGradient>
    <radialGradient cx="0" cy="0" gradientTransform="matrix(0.0904, 0.0, 0.0, 0.0904, -347.25, -152.2)" gradientUnits="userSpaceOnUse" id="gradient4" r="819.2" spreadMethod="pad">
      <stop offset="0.0" stop-color="#505050"/>
      <stop offset="1.0" stop-color="#1c1c1c"/>
    </radialGradient>
    <radialGradient cx="0" cy="0" gradientTransform="matrix(0.114, 0.0, 0.0, 0.114, -390.95, -175.55)" gradientUnits="userSpaceOnUse" id="gradient5" r="819.2" spreadMethod="pad">
      <stop offset="0.0" stop-color="#000000"/>
      <stop offset="1.0" stop-color="#000000"/>
    </radialGradient>
    <radialGradient cx="0" cy="0" gradientTransform="matrix(0.0345, 0.0, 0.0, 0.0345, -318.2, -127.1)" gradientUnits="userSpaceOnUse" id="gradient6" r="819.2" spreadMethod="pad">
      <stop offset="0.0" stop-color="#858585"/>
      <stop offset="1.0" stop-color="#000000"/>
    </radialGradient>
    <radialGradient cx="0" cy="0" gradientTransform="matrix(0.0876, 0.0, 0.0, 0.0876, -347.25, -152.2)" gradientUnits="userSpaceOnUse" id="gradient7" r="819.2" spreadMethod="pad">
      <stop offset="0.0" stop-color="#505050"/>
      <stop offset="1.0" stop-color="#131313"/>
    </radialGradient>
    <radialGradient cx="0" cy="0" gradientTransform="matrix(0.0539, 0.0, 0.0, 0.0539, -298.65, -121.65)" gradientUnits="userSpaceOnUse" id="gradient8" r="819.2" spreadMethod="pad">
      <stop offset="0.0" stop-color="#131313"/>
      <stop offset="1.0" stop-color="#000000"/>
    </radialGradient>
    <radialGradient cx="0" cy="0" gradientTransform="matrix(0.0346, 0.0, 0.0, 0.0346, -363.15, -230.45)" gradientUnits="userSpaceOnUse" id="gradient9" r="819.2" spreadMethod="pad">
      <stop offset="0.0" stop-color="#010101"/>
      <stop offset="1.0" stop-color="#000000"/>
    </radialGradient>
    <radialGradient cx="0" cy="0" gradientTransform="matrix(0.096, 0.0, 0.0, 0.096, -272.4, -253.25)" gradientUnits="userSpaceOnUse" id="gradient10" r="819.2" spreadMethod="pad">
      <stop offset="0.0" stop-color="#2f2f2f"/>
      <stop offset="1.0" stop-color="#000000"/>
    </radialGradient>
    <radialGradient cx="0" cy="0" gradientTransform="matrix(0.1192, 0.0, 0.0, 0.1192, -219.7, -260.65)" gradientUnits="userSpaceOnUse" id="gradient11" r="819.2" spreadMethod="pad">
      <stop offset="0.0" stop-color="#6a6a6a"/>
      <stop offset="1.0" stop-color="#000000"/>
    </radialGradient>
    <radialGradient cx="0" cy="0" gradientTransform="matrix(0.1861, 0.0, 0.0, 0.1861, -219.7, -260.65)" gradientUnits="userSpaceOnUse" id="gradient12" r="819.2" spreadMethod="pad">
      <stop offset="0.0" stop-color="#6a6a6a"/>
      <stop offset="1.0" stop-color="#000000"/>
    </radialGradient>
    <radialGradient cx="0" cy="0" gradientTransform="matrix(0.0625, 0.0, 0.0, 0.0625, -160.4, -275.75)" gradientUnits="userSpaceOnUse" id="gradient13" r="819.2" spreadMethod="pad">
      <stop offset="0.0" stop-color="#878787"/>
      <stop offset="1.0" stop-color="#000000"/>
    </radialGradient>
    <radialGradient cx="0" cy="0" gradientTransform="matrix(0.0374, 0.0, 0.0, 0.0374, -113.1, -278.8)" gradientUnits="userSpaceOnUse" id="gradient14" r="819.2" spreadMethod="pad">
      <stop offset="0.0" stop-color="#595959"/>
      <stop offset="1.0" stop-color="#000000"/>
    </radialGradient>
    <radialGradient cx="0" cy="0" gradientTransform="matrix(0.1011, 0.0, 0.0, 0.1011, -86.05, -277.05)" gradientUnits="userSpaceOnUse" id="gradient15" r="819.2" spreadMethod="pad">
      <stop offset="0.0" stop-color="#616161"/>
      <stop offset="1.0" stop-color="#000000"/>
    </radialGradient>
    <radialGradient cx="0" cy="0" gradientTransform="matrix(0.0216, 0.0, 0.0, 0.0216, -120.7, -300.0)" gradientUnits="userSpaceOnUse" id="gradient16" r="819.2" spreadMethod="pad">
      <stop offset="0.0" stop-color="#000000"/>
      <stop offset="1.0" stop-color="#000000"/>
    </radialGradient>
    <radialGradient cx="0" cy="0" gradientTransform="matrix(0.0543, 0.0, 0.0, 0.0543, -113.1, -278.8)" gradientUnits="userSpaceOnUse" id="gradient17" r="819.2" spreadMethod="pad">
      <stop offset="0.0" stop-color="#595959"/>
      <stop offset="1.0" stop-color="#070707"/>
    </radialGradient>
    <radialGradient cx="0" cy="0" gradientTransform="matrix(0.058, 0.0, 0.0, 0.058, -4.0, -265.7)" gradientUnits="userSpaceOnUse" id="gradient18" r="819.2" spreadMethod="pad">
      <stop offset="0.0" stop-color="#000000"/>
      <stop offset="1.0" stop-color="#000000"/>
    </radialGradient>
    <radialGradient cx="0" cy="0" gradientTransform="matrix(0.1006, 0.0, 0.0, 0.1006, -30.85, -226.75)" gradientUnits="userSpaceOnUse" id="gradient19" r="819.2" spreadMethod="pad">
      <stop offset="0.0" stop-color="#000000"/>
      <stop offset="1.0" stop-color="#000000"/>
    </radialGradient>
    <radialGradient cx="0" cy="0" gradientTransform="matrix(0.0609, 0.0, 0.0, 0.0609, -268.6, -232.9)" gradientUnits="userSpaceOnUse" id="gradient20" r="819.2" spreadMethod="pad">
      <stop offset="0.0" stop-color="#626262"/>
      <stop offset="1.0" stop-color="#373737"/>
    </radialGradient>
    <radialGradient cx="0" cy="0" gradientTransform="matrix(0.0944, 0.0, 0.0, 0.0944, -252.5, -180.9)" gradientUnits="userSpaceOnUse" id="gradient21" r="819.2" spreadMethod="pad">
      <stop offset="0.0" stop-color="#838383"/>
      <stop offset="1.0" stop-color="#282828"/>
    </radialGradient>
    <radialGradient cx="0" cy="0" gradientTransform="matrix(0.243, 0.0, 0.0, 0.243, -277.35, -73.45)" gradientUnits="userSpaceOnUse" id="gradient22" r="819.2" spreadMethod="pad">
      <stop offset="0.0" stop-color="#6f6f6f"/>
      <stop offset="1.0" stop-color="#000000"/>
    </radialGradient>
    <radialGradient cx="0" cy="0" gradientTransform="matrix(0.1243, 0.0, 0.0, 0.1243, -122.35, -216.15)" gradientUnits="userSpaceOnUse" id="gradient23" r="819.2" spreadMethod="pad">
      <stop offset="0.0" stop-color="#232323"/>
      <stop offset="1.0" stop-color="#000000"/>
    </radialGradient>
    <radialGradient cx="0" cy="0" gradientTransform="matrix(0.0563, 0.0, 0.0, 0.0563, -119.15, -230.3)" gradientUnits="userSpaceOnUse" id="gradient24" r="819.2" spreadMethod="pad">
      <stop offset="0.0" stop-color="#010101"/>
      <stop offset="1.0" stop-color="#000000"/>
    </radialGradient>
    <radialGradient cx="0" cy="0" gradientTransform="matrix(0.0616, 0.0, 0.0, 0.0616, -351.8, -181.3)" gradientUnits="userSpaceOnUse" id="gradient25" r="819.2" spreadMethod="pad">
      <stop offset="0.0" stop-color="#292929"/>
      <stop offset="1.0" stop-color="#010101"/>
    </radialGradient>
    <radialGradient cx="0" cy="0" gradientTransform="matrix(0.0376, 0.0, 0.0, 0.0376, -30.85, -226.75)" gradientUnits="userSpaceOnUse" id="gradient26" r="819.2" spreadMethod="pad">
      <stop offset="0.0" stop-color="#000000"/>
      <stop offset="1.0" stop-color="#000000"/>
    </radialGradient>
    <radialGradient cx="0" cy="0" gradientTransform="matrix(0.1312, 0.0, 0.0, 0.1312, -298.1, -39.75)" gradientUnits="userSpaceOnUse" id="gradient27" r="819.2" spreadMethod="pad">
      <stop offset="0.0" stop-color="#767676"/>
      <stop offset="1.0" stop-color="#151515"/>
    </radialGradient>
    <radialGradient cx="0" cy="0" gradientTransform="matrix(0.0861, 0.0, 0.0, 0.0861, -110.55, -66.2)" gradientUnits="userSpaceOnUse" id="gradient28" r="819.2" spreadMethod="pad">
      <stop offset="0.0" stop-color="#000000"/>
      <stop offset="1.0" stop-color="#000000"/>
    </radialGradient>
    <radialGradient cx="0" cy="0" gradientTransform="matrix(0.0131, 0.0, 0.0, 0.0131, -302.05, -9.0)" gradientUnits="userSpaceOnUse" id="gradient29" r="819.2" spreadMethod="pad">
      <stop offset="0.0" stop-color="#757575"/>
      <stop offset="1.0" stop-color="#666666"/>
    </radialGradient>
    <radialGradient cx="0" cy="0" gradientTransform="matrix(0.0106, 0.0, 0.0, 0.0106, -87.85, -5.0)" gradientUnits="userSpaceOnUse" id="gradient30" r="819.2" spreadMethod="pad">
      <stop offset="0.0" stop-color="#000000"/>
      <stop offset="1.0" stop-color="#000000"/>
    </radialGradient>
  </defs>
</svg>
