<?xml version="1.0" encoding="UTF-8" standalone="no"?>
<svg xmlns:xlink="http://www.w3.org/1999/xlink" height="299.1px" width="399.15px" xmlns="http://www.w3.org/2000/svg">
  <g transform="matrix(1.0, 0.0, 0.0, 1.0, 400.05, 300.0)">
    <path d="M-269.4 -261.9 L-274.9 -268.75 -277.0 -271.75 -278.0 -274.65 -283.0 -292.4 -283.25 -300.0 -207.75 -300.0 -211.75 -295.5 -216.75 -292.9 Q-221.4 -286.9 -225.65 -285.0 L-228.5 -278.25 -235.9 -269.75 -237.4 -268.5 -243.75 -265.0 -248.4 -264.15 -248.75 -263.75 -251.4 -261.25 Q-252.75 -259.75 -255.15 -259.25 L-259.65 -258.25 -265.5 -259.75 -268.4 -262.25 -268.9 -261.65 -269.25 -261.9 -269.4 -261.9" fill="url(#gradient0)" fill-rule="evenodd" stroke="none"/>
    <path d="M-207.75 -300.0 L-182.75 -300.0 -182.15 -298.25 -176.4 -289.75 -171.9 -286.15 -158.65 -281.25 -150.75 -268.15 -158.9 -275.25 -217.65 -280.5 -235.9 -269.75 -228.5 -278.25 -225.65 -285.0 Q-221.4 -286.9 -216.75 -292.9 L-211.75 -295.5 -207.75 -300.0 M-140.9 -259.15 L-137.5 -257.65 -134.9 -258.4 -136.4 -255.15 -140.9 -259.15 M-243.75 -265.0 L-248.25 -262.25 -248.75 -263.75 -248.4 -264.15 -243.75 -265.0" fill="url(#gradient1)" fill-rule="evenodd" stroke="none"/>
    <path d="M-140.9 -259.15 L-136.4 -255.15 -136.25 -254.9 -147.4 -214.65 -143.0 -146.4 -157.5 -160.0 -221.15 -164.75 -242.75 -153.5 -238.15 -221.9 -248.25 -262.25 -243.75 -265.0 -237.4 -268.5 -235.9 -269.75 -217.65 -280.5 -158.9 -275.25 -150.75 -268.15 -144.4 -261.65 -140.9 -259.15" fill="url(#gradient2)" fill-rule="evenodd" stroke="none"/>
    <path d="M-182.75 -300.0 L-114.15 -300.0 -113.75 -298.75 -114.15 -277.65 -114.5 -277.4 Q-114.0 -276.4 -116.75 -269.75 L-121.15 -262.0 -121.65 -262.65 Q-121.65 -261.4 -127.9 -257.0 L-132.65 -256.5 -134.9 -258.4 -137.5 -257.65 -140.9 -259.15 -144.4 -261.65 -150.75 -268.15 -158.65 -281.25 -171.9 -286.15 -176.4 -289.75 -182.15 -298.25 -182.75 -300.0" fill="url(#gradient3)" fill-rule="evenodd" stroke="none"/>
    <path d="M-8.9 -273.4 L-20.5 -258.65 -36.25 -236.4 -50.9 -239.25 -68.4 -245.5 -88.75 -255.0 -113.15 -262.65 -114.15 -277.65 -113.75 -298.75 -114.15 -300.0 -81.5 -300.0 -71.9 -296.0 -38.15 -284.4 -8.9 -273.4" fill="url(#gradient4)" fill-rule="evenodd" stroke="none"/>
    <path d="M-115.9 -255.75 L-121.15 -255.5 -121.15 -262.0 -116.75 -269.75 Q-114.0 -276.4 -114.5 -277.4 L-114.15 -277.65 -113.15 -262.65 -115.9 -255.75" fill="url(#gradient5)" fill-rule="evenodd" stroke="none"/>
    <path d="M-121.15 -255.5 L-121.0 -244.65 -136.25 -254.9 -136.4 -255.15 -134.9 -258.4 -132.65 -256.5 -127.9 -257.0 Q-121.65 -261.4 -121.65 -262.65 L-121.15 -262.0 -121.15 -255.5" fill="url(#gradient6)" fill-rule="evenodd" stroke="none"/>
    <path d="M-396.5 -287.25 L-365.15 -295.25 -350.9 -300.0 -283.25 -300.0 -283.0 -292.4 -278.0 -274.65 -296.15 -274.75 -343.15 -257.4 -348.0 -252.25 -367.0 -256.5 -384.25 -280.65 -396.5 -287.25" fill="url(#gradient7)" fill-rule="evenodd" stroke="none"/>
    <path d="M-362.0 -238.25 L-356.9 -231.0 -382.75 -239.5 -384.0 -239.65 -400.0 -231.9 -400.0 -284.25 Q-400.35 -285.5 -396.5 -287.25 L-384.25 -280.65 -367.0 -256.5 -364.65 -243.65 -364.65 -243.5 -364.5 -241.4 -364.15 -241.15 -362.0 -238.25" fill="url(#gradient8)" fill-rule="evenodd" stroke="none"/>
    <path d="M-356.9 -231.0 L-332.0 -212.4 -319.75 -199.15 -319.75 -198.75 -308.65 -188.75 -297.65 -173.65 -304.0 -172.5 -307.75 -171.9 Q-308.15 -173.9 -316.9 -175.4 L-324.25 -175.15 -332.75 -170.75 Q-333.5 -168.75 -335.9 -166.75 L-336.5 -165.4 -350.9 -177.5 -373.0 -199.25 -390.4 -218.4 -390.75 -218.4 -399.65 -227.0 -400.0 -227.0 -400.0 -231.9 -384.0 -239.65 -382.75 -239.5 -356.9 -231.0" fill="url(#gradient9)" fill-rule="evenodd" stroke="none"/>
    <path d="M-350.5 -247.5 L-362.0 -238.25 -364.15 -241.15 -364.65 -243.5 -364.65 -243.65 -367.0 -256.5 -348.0 -252.25 -350.5 -247.5" fill="url(#gradient10)" fill-rule="evenodd" stroke="none"/>
    <path d="M-274.9 -268.75 L-299.5 -259.4 -329.4 -253.4 -350.5 -247.5 -348.0 -252.25 -343.15 -257.4 -296.15 -274.75 -278.0 -274.65 -277.0 -271.75 -274.9 -268.75" fill="url(#gradient11)" fill-rule="evenodd" stroke="none"/>
    <path d="M-8.9 -273.4 L-0.9 -271.25 -0.9 -224.15 -1.25 -224.0 -9.65 -227.0 -36.25 -236.25 -36.25 -236.4 -20.5 -258.65 -8.9 -273.4" fill="url(#gradient12)" fill-rule="evenodd" stroke="none"/>
    <path d="M-36.25 -236.4 L-36.25 -236.25 -30.15 -222.4 -67.9 -225.5 -89.9 -238.4 -115.9 -255.75 -113.15 -262.65 -88.75 -255.0 -68.4 -245.5 -50.9 -239.25 -36.25 -236.4" fill="url(#gradient13)" fill-rule="evenodd" stroke="none"/>
    <path d="M-270.4 -254.4 L-269.4 -261.9 -269.25 -261.9 -268.9 -261.65 -268.4 -262.25 -265.5 -259.75 -259.65 -258.25 -270.4 -254.4 M-251.4 -261.25 L-248.75 -263.75 -248.25 -262.25 -251.4 -261.25" fill="url(#gradient14)" fill-rule="evenodd" stroke="none"/>
    <path d="M-264.0 -132.75 L-259.25 -183.65 -270.4 -239.25 -270.4 -254.4 -259.65 -258.25 -255.15 -259.25 Q-252.75 -259.75 -251.4 -261.25 L-248.25 -262.25 -238.15 -221.9 -242.75 -153.5 -243.25 -152.9 -260.0 -137.75 -264.0 -132.75" fill="url(#gradient15)" fill-rule="evenodd" stroke="none"/>
    <path d="M-364.65 -243.5 L-364.15 -241.15 -364.5 -241.4 -364.65 -243.5" fill="url(#gradient16)" fill-rule="evenodd" stroke="none"/>
    <path d="M-121.0 -244.65 L-135.75 -188.75 -134.9 -173.65 -130.9 -131.15 -142.5 -145.5 -143.0 -146.4 -147.4 -214.65 -136.25 -254.9 -121.0 -244.65" fill="url(#gradient17)" fill-rule="evenodd" stroke="none"/>
    <path d="M-36.25 -236.25 L-9.65 -227.0 -30.15 -222.4 -36.25 -236.25" fill="url(#gradient18)" fill-rule="evenodd" stroke="none"/>
    <path d="M-337.15 -140.9 L-362.65 -167.0 -382.0 -185.65 -399.9 -205.75 -400.0 -227.0 -399.65 -227.0 -390.75 -218.4 -390.4 -218.4 -373.0 -199.25 -350.9 -177.5 -336.5 -165.4 -339.4 -161.9 -340.5 -154.15 Q-339.9 -153.65 -340.25 -148.4 L-337.15 -141.9 -336.9 -141.25 -337.15 -140.9" fill="url(#gradient19)" fill-rule="evenodd" stroke="none"/>
    <path d="M-298.9 -167.65 Q-292.75 -158.4 -293.75 -151.75 -296.4 -141.4 -297.9 -140.65 L-304.15 -135.0 Q-322.0 -125.5 -336.5 -140.65 L-336.9 -141.25 -337.15 -141.9 -340.25 -148.4 Q-339.9 -153.65 -340.5 -154.15 L-339.4 -161.9 -336.5 -165.4 -335.9 -166.75 Q-333.5 -168.75 -332.75 -170.75 L-324.25 -175.15 -316.9 -175.4 Q-308.15 -173.9 -307.75 -171.9 L-304.0 -172.5 -298.9 -167.65" fill="url(#gradient20)" fill-rule="evenodd" stroke="none"/>
    <path d="M-297.65 -173.65 L-298.9 -167.65 -304.0 -172.5 -297.65 -173.65" fill="url(#gradient21)" fill-rule="evenodd" stroke="none"/>
    <path d="M-80.0 -0.9 L-276.0 -0.9 -301.0 -26.4 -300.5 -27.75 -294.5 -62.9 -277.75 -95.15 -243.25 -152.9 -242.75 -153.5 -221.15 -164.75 -157.5 -160.0 -143.0 -146.4 -142.5 -145.5 -110.5 -81.9 -98.15 -49.75 -92.75 -15.9 -92.5 -14.75 -80.0 -0.9" fill="url(#gradient22)" fill-rule="evenodd" stroke="none"/>
    <path d="M-310.15 -26.15 L-307.15 -49.15 -296.75 -91.15 -264.0 -132.75 -260.0 -137.75 -243.25 -152.9 -277.75 -95.15 -294.5 -62.9 -300.5 -27.75 -301.0 -26.4 -303.9 -31.65 -304.25 -32.65 -304.65 -32.5 -310.15 -26.15" fill="url(#gradient23)" fill-rule="evenodd" stroke="none"/>
    <path d="M-130.9 -131.15 L-98.4 -81.0 -91.9 -23.0 -92.75 -15.9 -98.15 -49.75 -110.5 -81.9 -142.5 -145.5 -130.9 -131.15" fill="url(#gradient24)" fill-rule="evenodd" stroke="none"/>
    <path d="M-91.9 -23.0 L-48.65 -1.0 -80.0 -0.9 -92.5 -14.75 -92.75 -15.9 -91.9 -23.0" fill="url(#gradient25)" fill-rule="evenodd" stroke="none"/>
    <path d="M-336.5 -140.65 L-337.15 -140.9 -336.9 -141.25 -336.5 -140.65" fill="url(#gradient26)" fill-rule="evenodd" stroke="none"/>
    <path d="M-299.5 -0.9 L-329.75 -0.9 -328.4 -4.65 -310.25 -25.9 -310.15 -26.15 -304.65 -32.5 -304.25 -32.65 -303.9 -31.65 -299.5 -0.9" fill="url(#gradient27)" fill-rule="evenodd" stroke="none"/>
    <path d="M-276.0 -0.9 L-299.5 -0.9 -303.9 -31.65 -301.0 -26.4 -276.0 -0.9" fill="url(#gradient28)" fill-rule="evenodd" stroke="none"/>
    <path d="M-340.25 -0.9 L-342.15 -0.9 -331.15 -31.4 -319.4 -79.15 -280.75 -124.15 -280.65 -124.65 -275.0 -130.9 -274.9 -130.65 -279.75 -117.9 -279.25 -113.5 -293.25 -95.5 -293.25 -95.4 -293.75 -94.9 -296.65 -91.4 -298.75 -82.4 -299.4 -80.9 -319.5 -45.75 -327.5 -5.75 -327.9 -5.0 -328.4 -4.75 -329.75 -12.0 -330.0 -11.9 -340.25 -0.9 M-291.65 -262.4 L-288.65 -281.15 -288.5 -282.0 -288.4 -281.5 -288.65 -281.15 -288.5 -274.75 -288.9 -263.4 -291.65 -262.4 M-288.4 -283.25 L-288.25 -283.65 -286.5 -296.4 -286.5 -297.0 -286.0 -300.0 -284.5 -300.0 -286.0 -293.0 -286.25 -292.9 -286.15 -292.4 -288.25 -283.65 -288.15 -283.4 -288.4 -283.25" fill="#fb0000" fill-rule="evenodd" stroke="none"/>
    <path d="M-288.5 -282.0 L-288.4 -283.25 -288.15 -283.4 -288.25 -283.65 -286.15 -292.4 -286.25 -292.9 -286.0 -293.0 -284.5 -300.0 -278.15 -300.0 -277.65 -299.75 -276.9 -300.0 -274.15 -293.9 -274.0 -293.75 -274.0 -292.75 -269.25 -282.0 -269.25 -281.25 -264.9 -271.0 -264.75 -270.15 -264.5 -269.75 -262.65 -262.5 -262.0 -261.25 -262.0 -260.65 -252.4 -226.9 -254.65 -203.5 -254.5 -202.15 -254.65 -200.9 -254.65 -200.25 -254.75 -199.75 -254.75 -199.5 -255.0 -198.9 -255.4 -194.65 -255.25 -194.25 -255.5 -193.9 -255.4 -192.9 -256.5 -179.75 -257.0 -177.5 -256.9 -175.9 -256.65 -175.75 -256.65 -172.5 -255.75 -164.15 -255.9 -163.25 -255.65 -161.5 -255.75 -161.0 -254.75 -150.0 -259.5 -143.0 -259.75 -142.15 -261.9 -139.4 -262.25 -138.15 -263.5 -136.75 -263.15 -141.25 -263.25 -142.0 -263.15 -142.25 -262.4 -148.65 -262.25 -149.15 -260.65 -168.25 -260.5 -168.5 -260.4 -168.75 -259.25 -183.75 -263.4 -203.65 -268.4 -230.15 -268.4 -230.25 -268.5 -230.65 -268.5 -230.9 -268.65 -231.25 -270.4 -239.25 -270.4 -254.4 -269.4 -261.9 -272.9 -266.4 -273.25 -266.75 -273.9 -267.65 -273.9 -267.75 -274.0 -267.9 -274.9 -268.75 -288.9 -263.4 -288.5 -274.75 -288.65 -281.15 -288.4 -281.5 -288.5 -282.0 M-279.25 -113.5 L-277.15 -115.75 -292.15 -92.65 -292.4 -92.4 -297.4 -84.75 -297.9 -83.5 -298.75 -82.4 -296.65 -91.4 -293.75 -94.9 -293.25 -95.4 -293.25 -95.5 -279.25 -113.5 M-327.9 -5.0 L-328.0 -4.25 -327.9 -4.0 -328.15 -3.75 -328.4 -4.15 -328.4 -4.75 -327.9 -5.0" fill="#e80000" fill-opacity="0.9098039" fill-rule="evenodd" stroke="none"/>
    <path d="M-120.75 -115.15 L-119.9 -114.25 -98.65 -81.15 -97.65 -72.5 -120.75 -115.15 M-75.5 -14.5 L-74.4 -14.0 -74.5 -13.9 -74.75 -13.75 -75.25 -13.65 -75.4 -13.9 -75.5 -14.5 M-276.9 -300.0 L-246.9 -299.9 -246.25 -300.0 -124.75 -300.0 -123.0 -299.75 -117.9 -300.0 -114.65 -299.75 -114.15 -300.0 -107.15 -300.0 -107.0 -291.15 -107.15 -289.75 -109.15 -284.25 -109.15 -283.75 -113.5 -270.15 -113.65 -268.75 -114.25 -267.25 -127.9 -273.9 -128.25 -274.25 -152.15 -285.5 -172.25 -287.0 -172.75 -287.0 -173.15 -287.15 -218.0 -291.25 -218.4 -291.4 -226.5 -292.25 -226.75 -292.15 -228.15 -291.4 -228.5 -291.15 -229.65 -290.5 -230.4 -290.25 -230.4 -290.15 -230.75 -289.9 -231.75 -289.5 -231.9 -289.25 -233.15 -288.65 -233.25 -288.5 -233.5 -288.4 -234.15 -288.0 -234.9 -287.65 -235.25 -287.4 -237.15 -286.4 -237.5 -286.15 -239.4 -285.15 -239.75 -284.9 -246.15 -281.4 -246.5 -281.15 -250.15 -279.25 -250.15 -279.15 -250.9 -278.75 -251.25 -278.5 -252.0 -278.15 -253.5 -277.25 -254.25 -276.9 -255.4 -276.25 -255.75 -276.0 -256.5 -275.65 -256.9 -275.4 -257.65 -275.15 -257.65 -275.0 -258.0 -274.75 -258.75 -274.4 -259.9 -273.75 -260.25 -273.5 -262.15 -272.5 -262.5 -272.4 -262.65 -272.15 -263.25 -271.9 -264.4 -271.25 -264.65 -271.15 -264.9 -271.0 -269.25 -281.25 -269.25 -282.0 -274.0 -292.75 -274.0 -293.75 -274.15 -293.9 -276.9 -300.0 M-131.65 -137.25 L-131.4 -136.5 -131.4 -134.9 -132.75 -137.0 -134.0 -139.75 -131.65 -137.25" fill="#b40000" fill-opacity="0.9098039" fill-rule="evenodd" stroke="none"/>
    <path d="M-107.15 -300.0 L-104.15 -300.0 -104.4 -299.25 -104.65 -298.9 -104.5 -298.5 -106.9 -291.15 -107.0 -291.15 -107.15 -300.0" fill="#c70000" fill-rule="evenodd" stroke="none"/>
    <path d="M-104.15 -300.0 L-103.25 -300.0 -103.5 -299.65 -103.75 -276.65 -103.5 -275.9 -104.15 -253.15 -104.0 -252.65 -104.25 -248.65 -109.15 -257.5 -109.25 -258.25 -109.15 -258.25 -107.0 -269.0 -107.0 -280.75 -107.15 -281.4 -107.15 -289.75 -107.0 -291.15 -106.9 -291.15 -104.5 -298.5 -104.65 -298.9 -104.4 -299.25 -104.15 -300.0" fill="#cd0000" fill-rule="evenodd" stroke="none"/>
    <path d="M-104.25 -248.65 L-104.25 -248.0 -110.25 -251.75 -110.4 -252.0 -109.15 -257.5 -104.25 -248.65" fill="#d80000" fill-rule="evenodd" stroke="none"/>
    <path d="M-114.25 -267.25 L-113.5 -266.25 -113.15 -265.15 -109.65 -258.75 -109.25 -258.25 -109.15 -257.5 -110.4 -252.0 -115.9 -255.75 -119.5 -255.65 -114.25 -267.25 M-121.25 -251.5 L-121.0 -244.65 -122.75 -238.4 -122.5 -238.25 -122.75 -238.15 -122.9 -237.65 -122.75 -237.4 -129.25 -213.15 -129.4 -212.9 -134.75 -193.15 -135.4 -197.0 -135.25 -198.4 -136.0 -204.5 -136.25 -212.0 -136.9 -216.75 -136.25 -218.25 -136.0 -219.4 -121.25 -251.5 M-135.15 -141.5 L-134.75 -142.0 -135.0 -143.4 -134.0 -153.4 -134.15 -154.15 -133.9 -154.65 -134.0 -155.9 -133.65 -158.15 -133.15 -153.15 -133.25 -152.75 -133.15 -152.5 -131.65 -137.25 -134.0 -139.75 -135.15 -141.5" fill="#c50000" fill-opacity="0.9098039" fill-rule="evenodd" stroke="none"/>
    <path d="M-114.25 -267.25 L-113.65 -268.75 -113.5 -270.15 -109.15 -283.75 -109.15 -284.25 -107.15 -289.75 -107.15 -281.4 -107.0 -280.75 -107.0 -269.0 -109.15 -258.25 -109.25 -258.25 -109.65 -258.75 -113.15 -265.15 -113.5 -266.25 -114.25 -267.25" fill="#ba0000" fill-opacity="0.9098039" fill-rule="evenodd" stroke="none"/>
    <path d="M-119.5 -255.65 L-121.15 -255.5 -121.0 -252.65 -121.25 -251.5 -136.0 -219.4 -136.25 -218.25 -136.9 -216.75 -136.25 -212.0 -136.0 -204.5 -135.25 -198.4 -135.4 -197.0 -134.75 -193.15 -134.9 -191.5 -135.65 -189.9 -135.0 -174.4 -133.65 -161.15 -133.65 -158.15 -134.0 -155.9 -133.9 -154.65 -134.15 -154.15 -134.0 -153.4 -135.0 -143.4 -134.75 -142.0 -135.15 -141.5 -143.0 -148.65 -143.15 -148.9 -144.25 -149.75 -144.65 -150.4 -152.4 -157.5 -157.5 -157.75 -188.0 -160.15 -189.15 -160.15 -229.0 -163.15 -242.5 -156.25 -242.75 -156.0 -253.9 -150.5 -254.25 -150.15 -254.75 -150.0 -255.75 -161.0 -255.65 -161.5 -255.9 -163.25 -255.75 -164.15 -256.65 -172.5 -256.65 -175.75 -256.9 -175.9 -257.0 -177.5 -256.5 -179.75 -255.4 -192.9 -255.5 -193.9 -255.25 -194.25 -255.4 -194.65 -255.0 -198.9 -254.75 -199.5 -254.75 -199.75 -254.65 -200.25 -254.65 -200.9 -254.5 -202.15 -254.65 -203.5 -252.4 -226.9 -262.0 -260.65 -262.0 -261.25 -262.65 -262.5 -264.5 -269.75 -264.75 -270.15 -264.9 -271.0 -264.65 -271.15 -264.4 -271.25 -263.25 -271.9 -262.65 -272.15 -262.5 -272.4 -262.15 -272.5 -260.25 -273.5 -259.9 -273.75 -258.75 -274.4 -258.0 -274.75 -257.65 -275.0 -257.65 -275.15 -256.9 -275.4 -256.5 -275.65 -255.75 -276.0 -255.4 -276.25 -254.25 -276.9 -253.5 -277.25 -252.0 -278.15 -251.25 -278.5 -250.9 -278.75 -250.15 -279.15 -250.15 -279.25 -246.5 -281.15 -246.15 -281.4 -239.75 -284.9 -239.4 -285.15 -237.5 -286.15 -237.15 -286.4 -235.25 -287.4 -234.9 -287.65 -234.15 -288.0 -233.5 -288.4 -233.25 -288.5 -233.15 -288.65 -231.9 -289.25 -231.75 -289.5 -230.75 -289.9 -230.4 -290.15 -230.4 -290.25 -229.65 -290.5 -228.5 -291.15 -228.15 -291.4 -226.75 -292.15 -226.5 -292.25 -218.4 -291.4 -218.0 -291.25 -173.15 -287.15 -172.75 -287.0 -172.25 -287.0 -152.15 -285.5 -128.25 -274.25 -127.9 -273.9 -114.25 -267.25 -119.5 -255.65" fill="#a70000" fill-opacity="0.9098039" fill-rule="evenodd" stroke="none"/>
    <path d="M-290.9 -243.25 L-291.25 -245.25 -291.75 -261.0 -291.65 -262.4 -288.9 -263.4 -288.75 -262.0 -288.9 -248.0 -281.25 -226.65 -290.9 -243.25" fill="#fd0000" fill-rule="evenodd" stroke="none"/>
    <path d="M-288.9 -263.4 L-274.9 -268.75 -274.0 -267.9 -273.9 -267.75 -273.9 -267.65 -273.25 -266.75 -272.9 -266.4 -269.4 -261.9 -270.4 -254.4 -270.4 -239.25 -268.65 -231.25 -268.5 -230.9 -268.5 -230.65 -268.4 -230.25 -268.4 -230.15 -263.4 -203.65 -267.15 -205.65 -281.25 -226.65 -288.9 -248.0 -288.75 -262.0 -288.9 -263.4" fill="#ff0000" fill-opacity="0.9098039" fill-rule="evenodd" stroke="none"/>
    <path d="M-280.65 -124.65 L-282.65 -141.25 -277.5 -182.4 -277.65 -184.25 -290.9 -243.25 -281.25 -226.65 -267.15 -205.65 -268.9 -161.25 -271.5 -134.5 -271.75 -134.0 -271.65 -133.15 -272.65 -122.75 -273.0 -121.75 -274.65 -119.4 -277.15 -115.75 -279.25 -113.5 -279.75 -117.9 -274.9 -130.65 -275.0 -130.9 -280.65 -124.65" fill="#fc0000" fill-rule="evenodd" stroke="none"/>
    <path d="M-263.4 -203.65 L-259.25 -183.75 -260.4 -168.75 -260.5 -168.5 -260.65 -168.25 -262.25 -149.15 -262.4 -148.65 -263.15 -142.25 -263.25 -142.0 -263.15 -141.25 -263.5 -136.75 -263.9 -135.75 -272.65 -122.75 -271.65 -133.15 -271.75 -134.0 -271.5 -134.5 -268.9 -161.25 -267.15 -205.65 -263.4 -203.65" fill="#f80000" fill-rule="evenodd" stroke="none"/>
    <path d="M-119.5 -255.65 L-115.9 -255.75 -110.4 -252.0 -110.25 -251.75 -114.0 -233.0 -124.75 -216.25 -124.9 -216.0 -129.25 -213.15 -122.75 -237.4 -122.9 -237.65 -122.75 -238.15 -122.5 -238.25 -122.75 -238.4 -121.0 -244.65 -121.25 -251.5 -121.0 -252.65 -119.5 -255.65" fill="#d90000" fill-opacity="0.9098039" fill-rule="evenodd" stroke="none"/>
    <path d="M-119.5 -255.65 L-121.0 -252.65 -121.15 -255.5 -119.5 -255.65" fill="#b80000" fill-opacity="0.9098039" fill-rule="evenodd" stroke="none"/>
    <path d="M-104.25 -248.0 L-104.15 -247.75 -105.9 -242.5 -109.75 -231.65 -124.25 -216.4 -124.75 -216.25 -114.0 -233.0 -110.25 -251.75 -104.25 -248.0" fill="#da0000" fill-rule="evenodd" stroke="none"/>
    <path d="M-105.9 -242.5 L-105.75 -242.25 -122.0 -188.15 Q-122.4 -192.75 -122.9 -193.15 L-124.25 -180.4 -122.25 -186.75 -118.25 -146.0 -121.0 -123.9 -131.4 -136.5 -131.65 -137.25 -133.15 -152.5 -133.25 -152.75 -133.15 -153.15 -133.65 -158.15 -133.65 -161.15 -132.9 -167.75 -134.9 -191.5 -134.75 -193.15 -129.4 -212.9 -129.25 -213.15 -124.9 -216.0 -124.75 -216.25 -124.25 -216.4 -109.75 -231.65 -105.9 -242.5" fill="#dc0000" fill-rule="evenodd" stroke="none"/>
    <path d="M-74.4 -14.0 L-71.15 -12.5 -48.65 -0.9 -328.75 -0.9 -328.15 -3.75 -327.9 -4.0 -328.0 -4.25 -327.9 -5.0 -327.5 -5.75 -310.25 -25.9 -310.15 -26.15 -307.4 -47.5 -299.25 -80.65 -299.4 -80.9 -298.75 -82.4 -297.9 -83.5 -297.4 -84.75 -292.4 -92.4 -292.15 -92.65 -277.15 -115.75 -274.65 -119.4 -273.65 -120.25 -273.0 -121.75 -271.75 -122.65 -264.0 -132.75 -263.75 -134.9 -263.9 -135.75 -263.5 -136.75 -262.25 -138.15 -261.9 -139.4 -259.75 -142.15 -259.5 -143.0 -254.75 -150.0 -254.25 -150.15 -253.9 -150.5 -242.75 -156.0 -242.5 -156.25 -229.0 -163.15 -189.15 -160.15 -188.0 -160.15 -157.5 -157.75 -152.4 -157.5 -144.65 -150.4 -144.25 -149.75 -143.15 -148.9 -143.0 -148.65 -135.15 -141.5 -134.0 -139.75 -132.75 -137.0 -131.4 -134.9 -131.0 -133.75 -131.0 -131.9 -131.15 -131.5 -131.0 -131.4 -123.5 -120.0 -122.15 -117.65 -120.75 -115.15 -97.65 -72.5 -97.4 -71.4 -95.5 -53.75 -95.5 -52.65 -92.25 -25.5 -92.25 -25.25 -92.15 -24.9 -91.9 -22.9 -75.65 -14.75 -75.5 -14.5 -75.4 -13.9 -75.25 -13.65 -74.75 -13.75 -74.5 -13.9 -74.4 -14.0" fill="#a20000" fill-opacity="0.9098039" fill-rule="evenodd" stroke="none"/>
    <path d="M-133.65 -161.15 L-135.0 -174.4 -135.65 -189.9 -134.9 -191.5 -132.9 -167.75 -133.65 -161.15" fill="#be0000" fill-rule="evenodd" stroke="none"/>
    <path d="M-122.0 -188.15 L-122.25 -186.75 -124.25 -180.4 -122.9 -193.15 Q-122.4 -192.75 -122.0 -188.15" fill="#db0000" fill-rule="evenodd" stroke="none"/>
    <path d="M-274.65 -119.4 L-273.0 -121.75 -273.65 -120.25 -274.65 -119.4" fill="#b70000" fill-rule="evenodd" stroke="none"/>
    <path d="M-273.0 -121.75 L-272.65 -122.75 -263.9 -135.75 -263.75 -134.9 -264.0 -132.75 -271.75 -122.65 -273.0 -121.75" fill="#b30000" fill-rule="evenodd" stroke="none"/>
    <path d="M-121.0 -123.5 L-122.15 -117.65 -123.5 -120.0 -131.0 -133.75 -131.4 -134.9 -131.4 -136.5 -121.0 -123.9 -121.0 -123.5" fill="#cb0000" fill-rule="evenodd" stroke="none"/>
    <path d="M-74.4 -14.0 L-71.65 -15.25 -71.4 -15.4 -71.15 -15.5 -70.9 -15.65 -70.65 -15.75 -71.15 -12.5 -74.4 -14.0 M-97.4 -71.4 L-96.5 -70.25 -80.75 -32.75 -75.65 -14.75 -91.9 -22.9 -92.15 -24.9 -92.25 -25.25 -92.25 -25.5 -95.5 -52.65 -95.5 -53.75 -97.4 -71.4 M-123.5 -120.0 L-131.0 -131.4 -131.15 -131.5 -131.0 -131.9 -131.0 -133.75 -123.5 -120.0" fill="#b90000" fill-rule="evenodd" stroke="none"/>
    <path d="M-329.75 -0.9 L-340.25 -0.9 -330.0 -11.9 -329.75 -12.0 -328.4 -4.75 -328.4 -4.15 -328.9 -3.15 -329.0 -2.9 -329.0 -2.75 -329.75 -0.9" fill="#f20000" fill-rule="evenodd" stroke="none"/>
    <path d="M-71.15 -12.5 L-70.65 -15.75 -29.25 -0.9 -48.65 -0.9 -71.15 -12.5 M-299.4 -80.9 L-299.25 -80.65 -307.4 -47.5 -310.15 -26.15 -310.25 -25.9 -327.5 -5.75 -319.5 -45.75 -299.4 -80.9" fill="#b60000" fill-rule="evenodd" stroke="none"/>
    <path d="M-70.65 -15.75 L-70.9 -15.65 -71.15 -15.5 -71.4 -15.4 -71.65 -15.25 -74.4 -14.0 -75.5 -14.5 -75.65 -14.75 -80.75 -32.75 -96.5 -70.25 -97.4 -71.4 -97.65 -72.5 -98.65 -81.15 -119.9 -114.25 -120.75 -115.15 -122.15 -117.65 -121.0 -123.5 -81.9 -67.15 -77.75 -35.15 -70.65 -15.75" fill="#ca0000" fill-rule="evenodd" stroke="none"/>
    <path d="M-328.75 -0.9 L-329.75 -0.9 -329.0 -2.75 -329.0 -2.9 -328.9 -3.15 -328.4 -4.15 -328.15 -3.75 -328.75 -0.9" fill="#de0000" fill-opacity="0.9098039" fill-rule="evenodd" stroke="none"/>
  </g>
  <defs>
    <radialGradient cx="0" cy="0" gradientTransform="matrix(0.0788, 0.0, 0.0, 0.0788, -219.8, -287.8)" gradientUnits="userSpaceOnUse" id="gradient0" r="819.2" spreadMethod="pad">
      <stop offset="0.0" stop-color="#7f7f7f"/>
      <stop offset="1.0" stop-color="#070707"/>
    </radialGradient>
    <radialGradient cx="0" cy="0" gradientTransform="matrix(0.1172, 0.0, 0.0, 0.1172, -217.45, -280.6)" gradientUnits="userSpaceOnUse" id="gradient1" r="819.2" spreadMethod="pad">
      <stop offset="0.0" stop-color="#6a6a6a"/>
      <stop offset="1.0" stop-color="#000000"/>
    </radialGradient>
    <radialGradient cx="0" cy="0" gradientTransform="matrix(0.1875, 0.0, 0.0, 0.1875, -217.45, -280.6)" gradientUnits="userSpaceOnUse" id="gradient2" r="819.2" spreadMethod="pad">
      <stop offset="0.0" stop-color="#6a6a6a"/>
      <stop offset="1.0" stop-color="#000000"/>
    </radialGradient>
    <radialGradient cx="0" cy="0" gradientTransform="matrix(0.0615, 0.0, 0.0, 0.0615, -157.6, -292.7)" gradientUnits="userSpaceOnUse" id="gradient3" r="819.2" spreadMethod="pad">
      <stop offset="0.0" stop-color="#878787"/>
      <stop offset="1.0" stop-color="#000000"/>
    </radialGradient>
    <radialGradient cx="0" cy="0" gradientTransform="matrix(0.0983, 0.0, 0.0, 0.0983, -87.9, -289.05)" gradientUnits="userSpaceOnUse" id="gradient4" r="819.2" spreadMethod="pad">
      <stop offset="0.0" stop-color="#616161"/>
      <stop offset="1.0" stop-color="#000000"/>
    </radialGradient>
    <radialGradient cx="0" cy="0" gradientTransform="matrix(0.0548, 0.0, 0.0, 0.0548, -114.7, -292.15)" gradientUnits="userSpaceOnUse" id="gradient5" r="819.2" spreadMethod="pad">
      <stop offset="0.0" stop-color="#595959"/>
      <stop offset="1.0" stop-color="#070707"/>
    </radialGradient>
    <radialGradient cx="0" cy="0" gradientTransform="matrix(0.0567, 0.0, 0.0, 0.0567, -121.0, -244.5)" gradientUnits="userSpaceOnUse" id="gradient6" r="819.2" spreadMethod="pad">
      <stop offset="0.0" stop-color="#010101"/>
      <stop offset="1.0" stop-color="#000000"/>
    </radialGradient>
    <radialGradient cx="0" cy="0" gradientTransform="matrix(0.0803, 0.0, 0.0, 0.0803, -331.4, -277.95)" gradientUnits="userSpaceOnUse" id="gradient7" r="819.2" spreadMethod="pad">
      <stop offset="0.0" stop-color="#6a6a6a"/>
      <stop offset="1.0" stop-color="#000000"/>
    </radialGradient>
    <radialGradient cx="0" cy="0" gradientTransform="matrix(0.0679, 0.0, 0.0, 0.0679, -400.0, -231.85)" gradientUnits="userSpaceOnUse" id="gradient8" r="819.2" spreadMethod="pad">
      <stop offset="0.0" stop-color="#2f2f2f"/>
      <stop offset="1.0" stop-color="#000000"/>
    </radialGradient>
    <radialGradient cx="0" cy="0" gradientTransform="matrix(0.0902, 0.0, 0.0, 0.0902, -350.35, -177.2)" gradientUnits="userSpaceOnUse" id="gradient9" r="819.2" spreadMethod="pad">
      <stop offset="0.0" stop-color="#505050"/>
      <stop offset="1.0" stop-color="#0f0f0f"/>
    </radialGradient>
    <radialGradient cx="0" cy="0" gradientTransform="matrix(0.0359, 0.0, 0.0, 0.0359, -367.2, -256.65)" gradientUnits="userSpaceOnUse" id="gradient10" r="819.2" spreadMethod="pad">
      <stop offset="0.0" stop-color="#010101"/>
      <stop offset="1.0" stop-color="#000000"/>
    </radialGradient>
    <radialGradient cx="0" cy="0" gradientTransform="matrix(0.0977, 0.0, 0.0, 0.0977, -275.3, -274.65)" gradientUnits="userSpaceOnUse" id="gradient11" r="819.2" spreadMethod="pad">
      <stop offset="0.0" stop-color="#2f2f2f"/>
      <stop offset="1.0" stop-color="#000000"/>
    </radialGradient>
    <radialGradient cx="0" cy="0" gradientTransform="matrix(0.0611, 0.0, 0.0, 0.0611, -8.85, -273.5)" gradientUnits="userSpaceOnUse" id="gradient12" r="819.2" spreadMethod="pad">
      <stop offset="0.0" stop-color="#000000"/>
      <stop offset="1.0" stop-color="#000000"/>
    </radialGradient>
    <radialGradient cx="0" cy="0" gradientTransform="matrix(0.1001, 0.0, 0.0, 0.1001, -36.25, -236.45)" gradientUnits="userSpaceOnUse" id="gradient13" r="819.2" spreadMethod="pad">
      <stop offset="0.0" stop-color="#000000"/>
      <stop offset="1.0" stop-color="#000000"/>
    </radialGradient>
    <radialGradient cx="0" cy="0" gradientTransform="matrix(0.0577, 0.0, 0.0, 0.0577, -270.3, -254.4)" gradientUnits="userSpaceOnUse" id="gradient14" r="819.2" spreadMethod="pad">
      <stop offset="0.0" stop-color="#626262"/>
      <stop offset="1.0" stop-color="#383838"/>
    </radialGradient>
    <radialGradient cx="0" cy="0" gradientTransform="matrix(0.0941, 0.0, 0.0, 0.0941, -254.15, -201.7)" gradientUnits="userSpaceOnUse" id="gradient15" r="819.2" spreadMethod="pad">
      <stop offset="0.0" stop-color="#838383"/>
      <stop offset="1.0" stop-color="#282828"/>
    </radialGradient>
    <radialGradient cx="0" cy="0" gradientTransform="matrix(0.0629, 0.0, 0.0, 0.0629, -356.85, -206.15)" gradientUnits="userSpaceOnUse" id="gradient16" r="819.2" spreadMethod="pad">
      <stop offset="0.0" stop-color="#292929"/>
      <stop offset="1.0" stop-color="#010101"/>
    </radialGradient>
    <radialGradient cx="0" cy="0" gradientTransform="matrix(0.0892, 0.0, 0.0, 0.0892, -137.65, -182.0)" gradientUnits="userSpaceOnUse" id="gradient17" r="819.2" spreadMethod="pad">
      <stop offset="0.0" stop-color="#151515"/>
      <stop offset="1.0" stop-color="#000000"/>
    </radialGradient>
    <radialGradient cx="0" cy="0" gradientTransform="matrix(0.0276, 0.0, 0.0, 0.0276, -29.95, -222.4)" gradientUnits="userSpaceOnUse" id="gradient18" r="819.2" spreadMethod="pad">
      <stop offset="0.0" stop-color="#000000"/>
      <stop offset="1.0" stop-color="#000000"/>
    </radialGradient>
    <radialGradient cx="0" cy="0" gradientTransform="matrix(0.0862, 0.0, 0.0, 0.0862, -350.35, -177.2)" gradientUnits="userSpaceOnUse" id="gradient19" r="819.2" spreadMethod="pad">
      <stop offset="0.0" stop-color="#505050"/>
      <stop offset="1.0" stop-color="#1c1c1c"/>
    </radialGradient>
    <radialGradient cx="0" cy="0" gradientTransform="matrix(0.0334, 0.0, 0.0, 0.0334, -320.4, -150.95)" gradientUnits="userSpaceOnUse" id="gradient20" r="819.2" spreadMethod="pad">
      <stop offset="0.0" stop-color="#858585"/>
      <stop offset="1.0" stop-color="#000000"/>
    </radialGradient>
    <radialGradient cx="0" cy="0" gradientTransform="matrix(0.0546, 0.0, 0.0, 0.0546, -303.0, -144.05)" gradientUnits="userSpaceOnUse" id="gradient21" r="819.2" spreadMethod="pad">
      <stop offset="0.0" stop-color="#131313"/>
      <stop offset="1.0" stop-color="#000000"/>
    </radialGradient>
    <radialGradient cx="0" cy="0" gradientTransform="matrix(0.267, 0.0, 0.0, 0.267, -276.8, -96.65)" gradientUnits="userSpaceOnUse" id="gradient22" r="819.2" spreadMethod="pad">
      <stop offset="0.0" stop-color="#6f6f6f"/>
      <stop offset="1.0" stop-color="#000000"/>
    </radialGradient>
    <radialGradient cx="0" cy="0" gradientTransform="matrix(0.1308, 0.0, 0.0, 0.1308, -300.35, -63.15)" gradientUnits="userSpaceOnUse" id="gradient23" r="819.2" spreadMethod="pad">
      <stop offset="0.0" stop-color="#767676"/>
      <stop offset="1.0" stop-color="#151515"/>
    </radialGradient>
    <radialGradient cx="0" cy="0" gradientTransform="matrix(0.0869, 0.0, 0.0, 0.0869, -111.45, -83.8)" gradientUnits="userSpaceOnUse" id="gradient24" r="819.2" spreadMethod="pad">
      <stop offset="0.0" stop-color="#000000"/>
      <stop offset="1.0" stop-color="#000000"/>
    </radialGradient>
    <radialGradient cx="0" cy="0" gradientTransform="matrix(0.0565, 0.0, 0.0, 0.0565, -92.75, -15.1)" gradientUnits="userSpaceOnUse" id="gradient25" r="819.2" spreadMethod="pad">
      <stop offset="0.0" stop-color="#000000"/>
      <stop offset="1.0" stop-color="#000000"/>
    </radialGradient>
    <radialGradient cx="0" cy="0" gradientTransform="matrix(0.1179, 0.0, 0.0, 0.1179, -396.65, -202.25)" gradientUnits="userSpaceOnUse" id="gradient26" r="819.2" spreadMethod="pad">
      <stop offset="0.0" stop-color="#000000"/>
      <stop offset="1.0" stop-color="#000000"/>
    </radialGradient>
    <radialGradient cx="0" cy="0" gradientTransform="matrix(0.0536, 0.0, 0.0, 0.0536, -304.3, -32.9)" gradientUnits="userSpaceOnUse" id="gradient27" r="819.2" spreadMethod="pad">
      <stop offset="0.0" stop-color="#757575"/>
      <stop offset="1.0" stop-color="#1a1a1a"/>
    </radialGradient>
    <radialGradient cx="0" cy="0" gradientTransform="matrix(0.0521, 0.0, 0.0, 0.0521, -304.3, -32.9)" gradientUnits="userSpaceOnUse" id="gradient28" r="819.2" spreadMethod="pad">
      <stop offset="0.0" stop-color="#757575"/>
      <stop offset="1.0" stop-color="#0a0a0a"/>
    </radialGradient>
  </defs>
</svg>
