<?xml version="1.0" encoding="UTF-8" standalone="no"?>
<svg xmlns:xlink="http://www.w3.org/1999/xlink" height="299.1px" width="399.1px" xmlns="http://www.w3.org/2000/svg">
  <g transform="matrix(1.0, 0.0, 0.0, 1.0, 400.0, 300.0)">
    <path d="M-380.75 -300.0 L-299.15 -299.9 -347.4 -284.9 -352.75 -279.9 -371.4 -285.5 -380.75 -300.0" fill="url(#gradient0)" fill-rule="evenodd" stroke="none"/>
    <path d="M-299.15 -299.9 L-279.9 -300.0 -279.4 -298.5 -299.15 -299.9" fill="url(#gradient1)" fill-rule="evenodd" stroke="none"/>
    <path d="M-271.4 -285.9 L-274.0 -290.0 -276.15 -292.5 -277.25 -294.0 -278.65 -296.15 -279.4 -298.5 -279.9 -300.0 -227.75 -300.0 -230.25 -297.0 -235.15 -292.25 -236.4 -291.25 -243.65 -287.75 -248.25 -287.15 -248.75 -286.75 -251.75 -284.25 Q-253.8 -283.3 -255.9 -282.4 L-260.65 -281.5 -267.0 -283.65 -269.9 -286.0 -270.9 -285.4 -271.4 -285.9" fill="url(#gradient2)" fill-rule="evenodd" stroke="none"/>
    <path d="M-277.0 -293.0 L-304.9 -284.15 -336.25 -279.5 -356.4 -275.0 -352.75 -279.9 -347.4 -284.9 -299.15 -299.9 -279.4 -298.5 -278.65 -296.15 -277.25 -294.0 -277.0 -293.0" fill="url(#gradient3)" fill-rule="evenodd" stroke="none"/>
    <path d="M-356.4 -275.0 L-366.65 -267.5 -368.65 -270.0 -371.4 -285.5 -352.75 -279.9 -356.4 -275.0" fill="url(#gradient4)" fill-rule="evenodd" stroke="none"/>
    <path d="M-366.65 -267.5 L-360.75 -259.15 -387.25 -269.5 -400.0 -264.4 -400.0 -300.0 -380.75 -300.0 -371.4 -285.5 -368.65 -270.0 -366.65 -267.5" fill="url(#gradient5)" fill-rule="evenodd" stroke="none"/>
    <path d="M-360.75 -259.15 L-334.4 -239.15 -321.75 -224.9 -321.9 -224.65 -310.75 -214.4 -300.0 -198.65 -306.65 -197.65 -309.75 -197.25 Q-310.25 -199.15 -319.5 -201.25 L-327.0 -201.15 -335.15 -197.5 -338.75 -193.25 -339.4 -192.0 -354.0 -204.65 -355.15 -206.15 -377.0 -228.0 -393.25 -246.65 -400.0 -252.75 -400.0 -264.4 -387.25 -269.5 -360.75 -259.15" fill="url(#gradient6)" fill-rule="evenodd" stroke="none"/>
    <path d="M-276.15 -292.5 L-277.0 -293.0 -277.25 -294.0 -276.15 -292.5" fill="url(#gradient7)" fill-rule="evenodd" stroke="none"/>
    <path d="M-227.75 -300.0 L-220.0 -300.0 -235.15 -292.25 -230.25 -297.0 -227.75 -300.0 M-248.5 -285.15 L-248.75 -286.75 -248.25 -287.15 -243.65 -287.75 -248.5 -285.15" fill="url(#gradient8)" fill-rule="evenodd" stroke="none"/>
    <path d="M-220.0 -300.0 L-200.4 -300.0 -157.65 -293.65 -150.5 -286.25 -145.4 -279.9 -141.25 -276.15 -137.25 -271.65 -148.4 -232.5 -148.0 -231.0 -144.25 -165.15 -157.15 -179.5 -218.65 -186.9 -219.9 -186.9 -242.65 -176.5 -238.0 -244.65 -248.5 -285.15 -243.65 -287.75 -236.4 -291.25 -235.15 -292.25 -220.0 -300.0" fill="url(#gradient9)" fill-rule="evenodd" stroke="none"/>
    <path d="M-200.4 -300.0 L-158.0 -300.0 -156.9 -299.0 -150.5 -286.25 -157.65 -293.65 -200.4 -300.0 M-141.25 -276.15 L-138.4 -274.65 -135.9 -275.25 -135.75 -274.9 -137.25 -271.65 -141.25 -276.15" fill="url(#gradient10)" fill-rule="evenodd" stroke="none"/>
    <path d="M-158.0 -300.0 L-114.9 -300.0 -115.9 -291.75 -117.5 -286.75 -123.0 -278.15 Q-130.65 -269.9 -135.9 -275.25 L-138.4 -274.65 -141.25 -276.15 -145.4 -279.9 -150.5 -286.25 -156.9 -299.0 -158.0 -300.0" fill="url(#gradient11)" fill-rule="evenodd" stroke="none"/>
    <path d="M-15.4 -282.75 L-26.75 -268.9 -43.15 -247.5 -57.5 -251.4 -73.65 -258.0 -93.5 -268.65 -117.25 -277.5 -117.5 -286.75 -115.9 -291.75 -114.9 -300.0 -54.9 -300.0 -15.4 -282.75" fill="url(#gradient12)" fill-rule="evenodd" stroke="none"/>
    <path d="M-15.4 -282.75 L-0.9 -277.9 -0.9 -233.25 -4.15 -232.0 -4.25 -231.9 -4.9 -231.65 -5.65 -231.65 -18.15 -236.9 -43.15 -247.5 -26.75 -268.9 -15.4 -282.75" fill="url(#gradient13)" fill-rule="evenodd" stroke="none"/>
    <path d="M-39.25 -233.25 L-75.9 -238.25 -97.15 -252.4 -121.5 -270.5 -117.25 -277.5 -93.5 -268.65 -73.65 -258.0 -57.5 -251.4 -43.15 -247.5 -39.25 -233.25" fill="url(#gradient14)" fill-rule="evenodd" stroke="none"/>
    <path d="M-121.5 -270.5 L-123.4 -270.5 -123.0 -278.15 -117.5 -286.75 -117.25 -277.5 -121.5 -270.5" fill="url(#gradient15)" fill-rule="evenodd" stroke="none"/>
    <path d="M-272.5 -278.15 L-271.4 -285.9 -270.9 -285.4 -269.9 -286.0 -267.0 -283.65 -260.65 -281.5 -272.5 -278.15 M-248.75 -286.75 L-248.5 -285.15 -251.75 -284.25 -248.75 -286.75" fill="url(#gradient16)" fill-rule="evenodd" stroke="none"/>
    <path d="M-267.75 -154.4 L-263.15 -202.4 -273.75 -262.4 -272.5 -278.15 -260.65 -281.5 -255.9 -282.4 Q-253.8 -283.3 -251.75 -284.25 L-248.5 -285.15 -238.0 -244.65 -242.65 -176.5 -243.0 -176.0 -262.15 -161.0 -267.75 -154.4" fill="url(#gradient17)" fill-rule="evenodd" stroke="none"/>
    <path d="M-123.4 -270.5 L-124.0 -260.4 -137.25 -271.65 -135.75 -274.9 -135.9 -275.25 Q-130.65 -269.9 -123.0 -278.15 L-123.4 -270.5" fill="url(#gradient18)" fill-rule="evenodd" stroke="none"/>
    <path d="M-124.0 -260.4 L-139.0 -209.15 -138.15 -190.75 -134.4 -149.25 -142.9 -162.65 -144.25 -165.15 -148.0 -231.0 -148.4 -232.5 -137.25 -271.65 -124.0 -260.4" fill="url(#gradient19)" fill-rule="evenodd" stroke="none"/>
    <path d="M-341.4 -167.0 L-364.15 -191.15 -387.25 -214.0 -400.0 -228.65 -400.0 -252.75 -393.25 -246.65 -377.0 -228.0 -355.15 -206.15 -354.0 -204.65 -339.4 -192.0 -342.65 -188.4 -343.25 -186.4 Q-342.9 -184.5 -344.0 -180.75 L-343.65 -176.4 -343.75 -175.65 -344.15 -175.5 -344.0 -174.9 -341.15 -167.75 -341.4 -167.0" fill="url(#gradient20)" fill-rule="evenodd" stroke="none"/>
    <path d="M-340.65 -166.9 L-341.4 -167.0 -341.15 -167.75 -340.65 -166.9" fill="url(#gradient21)" fill-rule="evenodd" stroke="none"/>
    <path d="M-301.5 -192.5 L-299.0 -188.65 -297.0 -180.65 -296.9 -176.5 -299.0 -170.15 -301.65 -165.15 -304.15 -162.75 -308.65 -159.5 Q-316.15 -154.9 -328.25 -157.75 L-334.75 -161.0 -340.65 -166.9 -341.15 -167.75 -344.0 -174.9 -344.15 -175.5 -343.75 -175.65 -343.65 -176.4 -344.0 -180.75 Q-342.9 -184.5 -343.25 -186.4 L-342.65 -188.4 -339.4 -192.0 -338.75 -193.25 -335.15 -197.5 -327.0 -201.15 -319.5 -201.25 Q-310.25 -199.15 -309.75 -197.25 L-306.65 -197.65 -301.5 -192.5" fill="url(#gradient22)" fill-rule="evenodd" stroke="none"/>
    <path d="M-300.0 -198.65 L-299.75 -198.5 -301.5 -192.5 -306.65 -197.65 -300.0 -198.65" fill="url(#gradient23)" fill-rule="evenodd" stroke="none"/>
    <path d="M-43.15 -247.5 L-18.15 -236.9 -39.25 -233.25 -43.15 -247.5" fill="url(#gradient24)" fill-rule="evenodd" stroke="none"/>
    <path d="M-98.75 -53.5 L-98.75 -53.25 -98.65 -52.65 -98.65 -52.15 -98.5 -51.9 -97.15 -42.25 -96.15 -35.4 -70.5 -10.0 -92.15 -0.9 -249.75 -0.9 -300.4 -52.75 -294.25 -88.5 -277.75 -119.15 -277.25 -120.65 -243.0 -176.0 -242.65 -176.5 -219.9 -186.9 -218.65 -186.9 -157.15 -179.5 -144.25 -165.15 -142.9 -162.65 -113.5 -102.15 -101.15 -69.0 -98.75 -53.5" fill="url(#gradient25)" fill-rule="evenodd" stroke="none"/>
    <path d="M-315.15 -49.5 L-311.65 -74.5 -299.25 -116.25 -268.25 -153.4 -267.75 -154.4 -262.15 -161.0 -243.0 -176.0 -277.25 -120.65 -277.75 -119.15 -294.25 -88.5 -300.4 -52.75 -306.65 -58.25 -307.0 -58.4 -314.0 -50.65 -314.25 -50.25 -315.15 -49.5" fill="url(#gradient26)" fill-rule="evenodd" stroke="none"/>
    <path d="M-134.4 -149.25 L-103.5 -99.0 -98.75 -53.5 -101.15 -69.0 -113.5 -102.15 -142.9 -162.65 -134.4 -149.25" fill="url(#gradient27)" fill-rule="evenodd" stroke="none"/>
    <path d="M-268.25 -0.9 L-342.25 -0.9 -331.15 -31.15 -315.15 -49.4 -315.15 -49.5 -314.25 -50.25 -314.0 -50.65 -307.0 -58.4 -306.65 -58.25 -299.5 -16.75 -268.25 -0.9" fill="url(#gradient28)" fill-rule="evenodd" stroke="none"/>
    <path d="M-97.15 -42.25 L-45.9 -16.0 -0.9 -3.75 -0.9 -2.25 -69.75 -10.0 -70.0 -10.0 -70.4 -10.15 -70.5 -10.0 -96.15 -35.4 -97.15 -42.25" fill="url(#gradient29)" fill-rule="evenodd" stroke="none"/>
    <path d="M-0.9 -2.25 L-1.15 -0.9 -69.9 -0.9 -70.5 -10.0 -70.4 -10.15 -70.0 -10.0 -69.75 -10.0 -0.9 -2.25" fill="url(#gradient30)" fill-rule="evenodd" stroke="none"/>
    <path d="M-249.75 -0.9 L-268.25 -0.9 -299.5 -16.75 -306.65 -58.25 -300.4 -52.75 -249.75 -0.9" fill="url(#gradient31)" fill-rule="evenodd" stroke="none"/>
    <path d="M-69.9 -0.9 L-92.15 -0.9 -70.5 -10.0 -69.9 -0.9" fill="url(#gradient32)" fill-rule="evenodd" stroke="none"/>
    <path d="M-280.0 -139.65 L-282.5 -136.25 -283.25 -135.75 -283.4 -141.25 -278.9 -150.4 -278.75 -149.9 -280.0 -139.65 M-293.75 -287.65 L-291.65 -300.0 -291.0 -300.0 -291.15 -299.4 -291.9 -288.25 -293.75 -287.65 M-286.9 -251.75 L-284.9 -247.4 -273.65 -228.0 -275.15 -183.15 -278.4 -153.65 -278.65 -153.0 -285.25 -146.0 -285.75 -149.25 -286.4 -164.65 -281.65 -202.4 -281.65 -204.15 -294.4 -267.4 -286.9 -251.75" fill="#fc0000" fill-rule="evenodd" stroke="none"/>
    <path d="M-254.0 -173.65 L-254.4 -173.15 -259.65 -165.5 -261.75 -161.75 -262.15 -161.75 -262.25 -161.15 -291.25 -118.15 -291.5 -118.0 -300.9 -103.25 -301.25 -102.15 -305.15 -95.9 -299.5 -114.75 -299.15 -116.4 -283.25 -135.75 -282.5 -136.25 -280.0 -139.65 -268.9 -152.65 -267.75 -154.4 -267.0 -162.9 -266.9 -163.4 -266.4 -169.25 -266.15 -169.65 -264.15 -191.25 -263.9 -192.75 -263.15 -202.5 -267.0 -224.0 -272.65 -257.15 -272.65 -257.25 -273.75 -262.4 -272.5 -277.0 -272.5 -278.15 -272.15 -279.75 -271.4 -285.9 -274.0 -289.9 -274.15 -290.0 -274.5 -290.4 -275.15 -291.4 -275.4 -291.65 -275.25 -291.75 -276.15 -292.5 -277.0 -293.0 -291.9 -288.25 -291.15 -299.4 -291.0 -300.0 -266.25 -299.75 -265.15 -299.9 -261.0 -300.0 -259.5 -299.9 -258.25 -300.0 -254.4 -299.9 -254.65 -299.75 -256.0 -299.15 -256.25 -299.0 -256.5 -298.9 -256.75 -298.75 -257.0 -298.75 -257.0 -298.65 -259.9 -297.25 -260.15 -297.15 -260.4 -297.0 -261.4 -296.65 -261.75 -296.0 -262.4 -296.15 -262.65 -295.9 -263.25 -295.65 -263.5 -295.5 -264.15 -295.25 -264.25 -295.15 -264.65 -295.0 -264.25 -293.5 -264.0 -293.15 -263.65 -292.25 -261.4 -283.65 -261.4 -283.4 -261.15 -283.0 -261.15 -282.4 -260.75 -281.5 -252.65 -253.5 -252.65 -252.4 -251.75 -249.65 -253.75 -227.4 -254.0 -226.9 -253.9 -225.75 -255.25 -209.9 -255.65 -208.65 -255.5 -207.5 -255.65 -206.4 -255.9 -205.9 -255.75 -204.65 -256.15 -200.4 -255.25 -191.9 -255.5 -190.9 -255.0 -187.0 -255.15 -186.65 -254.15 -176.15 -254.25 -175.5 -254.0 -173.65 M-325.65 -37.25 L-326.9 -31.25 -328.75 -33.75 -325.65 -37.25" fill="#e80000" fill-opacity="0.9098039" fill-rule="evenodd" stroke="none"/>
    <path d="M-291.9 -288.25 L-277.0 -293.0 -276.15 -292.5 -275.25 -291.75 -275.4 -291.65 -275.15 -291.4 -274.5 -290.4 -274.15 -290.0 -274.0 -289.9 -271.4 -285.9 -272.15 -279.75 -272.5 -278.15 -272.5 -277.0 -273.75 -262.4 -272.65 -257.25 -272.65 -257.15 -267.0 -224.0 -273.65 -228.0 -284.9 -247.4 -286.9 -251.75 -292.75 -272.0 -291.9 -288.25" fill="#ff0000" fill-opacity="0.9098039" fill-rule="evenodd" stroke="none"/>
    <path d="M-267.0 -224.0 L-263.15 -202.5 -263.9 -192.75 -264.15 -191.25 -266.15 -169.65 -266.4 -169.25 -266.9 -163.4 -267.0 -162.9 -267.75 -154.4 -268.9 -152.65 -280.0 -139.65 -278.75 -149.9 -278.9 -150.4 -278.5 -151.65 -276.9 -154.9 -278.4 -153.65 -275.15 -183.15 -273.65 -228.0 -267.0 -224.0" fill="#f80000" fill-rule="evenodd" stroke="none"/>
    <path d="M-294.4 -267.4 L-294.75 -268.4 -293.9 -286.0 -293.65 -287.4 -293.75 -287.65 -291.9 -288.25 -292.75 -272.0 -286.9 -251.75 -294.4 -267.4" fill="#fe0000" fill-rule="evenodd" stroke="none"/>
    <path d="M-136.0 -160.15 L-138.0 -162.15 -138.4 -162.9 -144.4 -169.25 -144.5 -169.75 -146.5 -171.65 -146.9 -172.4 -151.0 -176.9 -155.15 -177.4 -155.4 -177.5 -155.9 -177.5 -218.4 -184.9 -219.65 -185.15 -226.75 -185.9 -254.0 -173.65 -254.25 -175.5 -254.15 -176.15 -255.15 -186.65 -255.0 -187.0 -255.5 -190.9 -255.25 -191.9 -256.15 -200.4 -255.75 -204.65 -255.9 -205.9 -255.65 -206.4 -255.5 -207.5 -255.65 -208.65 -255.25 -209.9 -253.9 -225.75 -254.0 -226.9 -253.75 -227.4 -251.75 -249.65 -252.65 -252.4 -252.65 -253.5 -260.75 -281.5 -261.15 -282.4 -261.15 -283.0 -261.4 -283.4 -261.4 -283.65 -263.65 -292.25 -264.0 -293.15 -264.25 -293.5 -264.65 -295.0 -264.25 -295.15 -264.15 -295.25 -263.5 -295.5 -263.25 -295.65 -262.65 -295.9 -262.4 -296.15 -261.75 -296.0 -261.4 -296.65 -260.4 -297.0 -260.15 -297.15 -259.9 -297.25 -257.0 -298.65 -257.0 -298.75 -256.75 -298.75 -256.5 -298.9 -256.25 -299.0 -256.0 -299.15 -254.65 -299.75 -254.4 -299.9 -247.4 -300.0 -246.5 -299.9 -239.5 -299.9 -238.9 -300.0 -232.15 -299.75 -231.25 -299.9 -215.75 -300.0 -214.5 -299.9 -158.0 -300.0 -157.25 -299.75 -156.65 -299.9 -143.5 -299.9 -143.15 -299.75 -128.5 -291.4 -128.15 -291.0 -118.4 -285.4 -117.5 -285.0 -117.4 -284.75 -116.15 -284.25 -116.15 -284.15 -114.4 -283.25 -114.4 -282.9 -117.25 -277.5 -117.25 -277.25 -120.75 -269.9 -121.5 -270.5 -123.4 -270.5 -123.65 -264.0 -123.9 -263.0 -137.5 -234.75 -136.4 -221.4 -136.65 -220.0 -136.15 -219.15 -136.25 -217.75 -138.9 -209.75 -138.4 -193.0 -138.15 -192.25 -138.25 -191.9 -136.65 -171.4 -136.5 -171.0 -136.65 -170.65 -136.5 -170.25 -135.65 -164.5 -135.65 -160.9 -136.0 -160.15" fill="#a80000" fill-opacity="0.9098039" fill-rule="evenodd" stroke="none"/>
    <path d="M-72.4 -29.75 L-70.75 -28.65 -63.4 -22.9 -62.75 -22.5 -42.65 -7.0 -42.4 -6.9 -42.15 -6.4 -41.4 -6.15 -39.65 -4.75 -43.9 -0.9 -335.75 -0.9 -327.25 -29.4 -326.9 -31.25 -325.65 -37.25 -325.4 -37.9 -315.15 -49.4 -315.15 -49.5 -311.4 -75.15 -305.9 -94.0 -305.15 -95.9 -301.25 -102.15 -300.9 -103.25 -291.5 -118.0 -291.25 -118.15 -262.25 -161.15 -262.15 -161.75 -261.75 -161.75 -259.65 -165.5 -254.4 -173.15 -254.0 -173.65 -226.75 -185.9 -219.65 -185.15 -218.4 -184.9 -155.9 -177.5 -155.4 -177.5 -155.15 -177.4 -151.0 -176.9 -146.9 -172.4 -146.5 -171.65 -144.5 -169.75 -144.4 -169.25 -138.4 -162.9 -138.0 -162.15 -136.0 -160.15 -135.4 -159.4 -135.4 -159.15 -135.25 -158.65 -135.0 -158.0 -134.65 -150.65 -134.5 -150.25 -134.65 -149.65 -134.65 -149.5 -134.5 -149.4 -108.4 -107.15 -105.15 -101.25 -103.5 -98.25 -103.15 -97.15 -99.4 -58.25 -99.4 -58.15 -99.25 -57.5 -99.25 -57.0 -99.15 -56.65 -97.15 -42.15 -77.5 -32.25 -72.4 -29.75" fill="#a20000" fill-opacity="0.9098039" fill-rule="evenodd" stroke="none"/>
    <path d="M-135.4 -159.4 L-136.0 -160.15 -135.65 -160.9 -135.4 -159.4 M-114.4 -282.9 L-111.9 -276.65 -112.0 -275.65 -113.0 -272.25 -113.0 -271.9 -114.65 -265.4 -120.75 -269.75 -120.75 -269.9 -117.25 -277.25 -117.25 -277.5 -114.4 -282.9 M-123.9 -263.0 L-123.75 -261.9 -124.0 -260.4 -127.25 -249.25 -127.15 -249.0 -127.4 -248.9 -127.5 -248.4 -127.4 -248.15 -132.65 -230.5 -136.15 -219.15 -136.65 -220.0 -136.4 -221.4 -137.5 -234.75 -123.9 -263.0" fill="#c50000" fill-opacity="0.9098039" fill-rule="evenodd" stroke="none"/>
    <path d="M-135.25 -158.65 L-135.4 -159.15 -135.4 -159.4 -135.65 -160.9 -135.65 -164.5 -133.75 -185.4 -136.25 -217.75 -136.15 -219.15 -132.65 -230.5 -131.5 -231.15 -131.15 -231.4 -130.15 -232.0 -114.15 -246.9 -108.25 -260.25 -108.15 -259.9 -125.4 -207.75 -125.75 -210.4 -126.0 -210.0 -128.5 -197.9 -125.65 -206.5 -124.15 -186.0 -121.75 -163.65 -124.5 -142.4 -130.4 -151.15 -130.4 -151.25 -130.65 -151.5 -130.9 -151.9 -131.0 -152.15 -134.15 -157.0 -134.25 -157.0 -134.4 -157.4 -134.65 -157.75 -134.75 -158.0 -134.9 -158.0 -135.15 -158.65 -135.25 -158.65" fill="#dc0000" fill-rule="evenodd" stroke="none"/>
    <path d="M-135.65 -164.5 L-136.5 -170.25 -136.65 -170.65 -136.5 -171.0 -136.65 -171.4 -138.25 -191.9 -138.15 -192.25 -138.4 -193.0 -138.9 -209.75 -136.25 -217.75 -133.75 -185.4 -135.65 -164.5" fill="#bf0000" fill-rule="evenodd" stroke="none"/>
    <path d="M-114.65 -265.4 L-114.65 -265.25 -119.0 -248.4 -131.15 -231.4 -131.5 -231.15 -132.65 -230.5 -127.4 -248.15 -127.5 -248.4 -127.4 -248.9 -127.15 -249.0 -127.25 -249.25 -124.0 -260.4 -123.75 -261.9 -123.9 -263.0 -123.65 -264.0 -120.75 -269.75 -114.65 -265.4" fill="#d90000" fill-opacity="0.9098039" fill-rule="evenodd" stroke="none"/>
    <path d="M-108.4 -260.75 L-108.25 -260.65 -108.15 -260.5 -108.15 -260.4 -108.25 -260.25 -114.15 -246.9 -130.15 -232.0 -131.15 -231.4 -119.0 -248.4 -114.65 -265.25 -108.4 -260.75 M-125.4 -207.75 L-125.65 -206.5 -128.5 -197.9 -126.0 -210.0 -125.75 -210.4 -125.4 -207.75" fill="#db0000" fill-rule="evenodd" stroke="none"/>
    <path d="M-107.25 -263.65 L-107.15 -263.0 -108.4 -260.75 -114.65 -265.25 -114.65 -265.4 -113.0 -271.9 -113.0 -272.25 -112.0 -275.65 -111.65 -275.4 -107.25 -263.65" fill="#d90000" fill-rule="evenodd" stroke="none"/>
    <path d="M-108.75 -300.0 L-104.0 -300.0 -105.25 -287.75 -105.15 -287.0 -107.15 -264.75 -107.0 -264.4 -107.25 -263.65 -111.65 -275.4 -112.0 -275.65 -111.9 -276.65 -109.9 -284.0 -109.25 -293.65 -109.4 -294.4 -109.0 -296.5 -109.15 -298.15 -108.75 -300.0" fill="#d10000" fill-rule="evenodd" stroke="none"/>
    <path d="M-109.15 -298.15 L-110.25 -295.65 -110.25 -295.25 -114.4 -283.25 -116.15 -284.15 -116.15 -284.25 -117.4 -284.75 -117.5 -285.0 -118.4 -285.4 -128.15 -291.0 -128.5 -291.4 -143.15 -299.75 -143.5 -299.9 -108.75 -300.0 -109.15 -298.15" fill="#a50000" fill-opacity="0.9098039" fill-rule="evenodd" stroke="none"/>
    <path d="M-114.4 -283.25 L-110.25 -295.25 -110.25 -295.65 -109.15 -298.15 -109.0 -296.5 -109.4 -294.4 -109.25 -293.65 -109.9 -284.0 -111.9 -276.65 -114.4 -282.9 -114.4 -283.25" fill="#be0000" fill-opacity="0.9098039" fill-rule="evenodd" stroke="none"/>
    <path d="M-120.75 -269.75 L-123.65 -264.0 -123.4 -270.5 -121.5 -270.5 -120.75 -269.9 -120.75 -269.75" fill="#b90000" fill-opacity="0.9098039" fill-rule="evenodd" stroke="none"/>
    <path d="M-305.15 -95.9 L-305.9 -94.0 -307.5 -91.75 -318.4 -72.9 -325.4 -37.9 -325.65 -37.25 -328.75 -33.75 -332.15 -38.9 -332.4 -38.75 -348.0 -25.0 -335.75 -58.25 -321.75 -105.25 -285.4 -145.5 -285.25 -146.0 -278.65 -153.0 -278.4 -153.65 -276.9 -154.9 -278.5 -151.65 -278.9 -150.4 -283.4 -141.25 -283.25 -135.75 -299.15 -116.4 -299.5 -114.75 -305.15 -95.9" fill="#fb0000" fill-rule="evenodd" stroke="none"/>
    <path d="M-76.75 -35.0 L-77.0 -34.75 -77.4 -34.25 -77.75 -34.0 -83.25 -50.9 -98.75 -89.15 -103.15 -97.15 -103.5 -98.25 -103.65 -99.15 -105.15 -101.25 -108.4 -107.15 -124.65 -138.65 -125.15 -139.0 -125.15 -139.65 -124.5 -141.75 -130.4 -151.15 -124.5 -142.4 -124.4 -142.0 -87.4 -84.75 -83.5 -53.4 -76.75 -35.0" fill="#c80000" fill-rule="evenodd" stroke="none"/>
    <path d="M-135.0 -158.0 L-135.25 -158.65 -135.15 -158.65 -134.9 -158.0 -135.0 -158.0 M-134.25 -157.0 L-134.15 -157.0 -131.0 -152.15 -130.9 -151.9 -130.65 -151.5 -130.4 -151.25 -130.4 -151.15 -124.5 -141.75 -125.15 -139.65 -134.25 -157.0" fill="#c90000" fill-rule="evenodd" stroke="none"/>
    <path d="M-77.25 -33.65 L-77.15 -33.4 -77.5 -32.25 -97.15 -42.15 -99.15 -56.65 -99.25 -57.0 -99.25 -57.5 -99.4 -58.15 -99.4 -58.25 -103.15 -97.15 -98.75 -89.15 -83.25 -50.9 -77.75 -34.0 -77.25 -33.65 M-108.4 -107.15 L-134.5 -149.4 -134.65 -149.5 -134.65 -149.65 -134.5 -150.25 -134.65 -150.65 -135.0 -158.0 -134.9 -158.0 -134.75 -158.0 -134.65 -157.75 -134.4 -157.4 -134.25 -157.0 -125.15 -139.65 -125.15 -139.0 -124.65 -138.65 -108.4 -107.15" fill="#b90000" fill-rule="evenodd" stroke="none"/>
    <path d="M-328.75 -33.75 L-331.0 -31.25 -331.4 -30.25 -331.4 -30.0 -342.25 -0.9 -356.0 -0.9 -348.15 -24.65 -348.0 -25.0 -332.4 -38.75 -332.15 -38.9 -328.75 -33.75" fill="#f00000" fill-rule="evenodd" stroke="none"/>
    <path d="M-305.9 -94.0 L-311.4 -75.15 -315.15 -49.5 -315.15 -49.4 -325.4 -37.9 -318.4 -72.9 -307.5 -91.75 -305.9 -94.0" fill="#b60000" fill-rule="evenodd" stroke="none"/>
    <path d="M-103.5 -98.25 L-105.15 -101.25 -103.65 -99.15 -103.5 -98.25" fill="#b20000" fill-opacity="0.9098039" fill-rule="evenodd" stroke="none"/>
    <path d="M-77.0 -34.75 L-76.9 -34.4 -77.25 -33.65 -77.75 -34.0 -77.4 -34.25 -77.0 -34.75 M-77.15 -33.4 L-72.4 -29.75 -77.5 -32.25 -77.15 -33.4" fill="#b70000" fill-rule="evenodd" stroke="none"/>
    <path d="M-70.75 -28.65 L-72.4 -29.75 -77.15 -33.4 -77.25 -33.65 -76.9 -34.4 -77.0 -34.75 -76.75 -35.0 -3.65 -7.9 -13.0 -7.0 -45.9 -16.0 -70.75 -28.65" fill="#b50000" fill-rule="evenodd" stroke="none"/>
    <path d="M-326.9 -31.25 L-327.25 -29.4 -335.75 -0.9 -342.25 -0.9 -331.4 -30.0 -331.4 -30.25 -331.0 -31.25 -328.75 -33.75 -326.9 -31.25" fill="#dd0000" fill-opacity="0.9098039" fill-rule="evenodd" stroke="none"/>
    <path d="M-70.75 -28.65 L-45.9 -16.0 -13.0 -7.0 -17.75 -6.65 -18.15 -6.65 -33.15 -5.15 -33.75 -5.25 -34.15 -5.25 -38.5 -4.75 -39.65 -4.75 -41.4 -6.15 -42.15 -6.4 -42.4 -6.9 -42.65 -7.0 -62.75 -22.5 -63.4 -22.9 -70.75 -28.65" fill="#a10000" fill-opacity="0.9098039" fill-rule="evenodd" stroke="none"/>
    <path d="M-39.65 -4.75 L-38.5 -4.75 -34.15 -5.25 -33.75 -5.25 -33.15 -5.15 -18.15 -6.65 -17.75 -6.65 -13.0 -7.0 -8.9 -5.9 -8.5 -5.9 -1.15 -3.9 -1.0 -2.25 -1.15 -1.15 -3.75 -1.4 -3.9 -1.4 -4.75 -1.5 -5.25 -1.5 -5.65 -1.65 -8.0 -1.75 -8.65 -1.9 -9.4 -1.9 -9.5 -2.0 -10.75 -2.15 -11.4 -2.15 -12.15 -2.25 -12.4 -2.25 -39.65 -4.75 M-32.0 -5.0 L-31.25 -4.9 -31.0 -4.9 -30.25 -4.75 -30.0 -4.75 -29.25 -4.65 -21.15 -4.5 -28.9 -5.4 -32.25 -5.0 -32.0 -5.0" fill="#aa0000" fill-rule="evenodd" stroke="none"/>
    <path d="M-13.0 -7.0 L-3.65 -7.9 -3.25 -7.9 -1.25 -8.15 -1.0 -7.0 -1.15 -3.9 -8.5 -5.9 -8.9 -5.9 -13.0 -7.0" fill="#ab0000" fill-rule="evenodd" stroke="none"/>
    <path d="M-32.0 -5.0 L-32.25 -5.0 -28.9 -5.4 -21.15 -4.5 -29.25 -4.65 -30.0 -4.75 -30.25 -4.75 -31.0 -4.9 -31.25 -4.9 -32.0 -5.0" fill="#a90000" fill-rule="evenodd" stroke="none"/>
    <path d="M-43.9 -0.9 L-39.65 -4.75 -12.4 -2.25 -12.15 -2.25 -11.4 -2.15 -10.75 -2.15 -9.5 -2.0 -9.4 -1.9 -8.65 -1.9 -8.0 -1.75 -5.65 -1.65 -5.25 -1.5 -4.75 -1.5 -3.9 -1.4 -3.75 -1.4 -1.15 -1.15 -1.0 -1.15 -1.0 -1.0 -2.15 -0.9 -43.9 -0.9" fill="#9b0000" fill-opacity="0.9098039" fill-rule="evenodd" stroke="none"/>
  </g>
  <defs>
    <radialGradient cx="0" cy="0" gradientTransform="matrix(0.0653, 0.0, 0.0, 0.0653, -327.35, -300.0)" gradientUnits="userSpaceOnUse" id="gradient0" r="819.2" spreadMethod="pad">
      <stop offset="0.0" stop-color="#393939"/>
      <stop offset="1.0" stop-color="#000000"/>
    </radialGradient>
    <radialGradient cx="0" cy="0" gradientTransform="matrix(0.0249, 0.0, 0.0, 0.0249, -278.7, -298.5)" gradientUnits="userSpaceOnUse" id="gradient1" r="819.2" spreadMethod="pad">
      <stop offset="0.0" stop-color="#2f2f2f"/>
      <stop offset="1.0" stop-color="#1c1c1c"/>
    </radialGradient>
    <radialGradient cx="0" cy="0" gradientTransform="matrix(0.0694, 0.0, 0.0, 0.0694, -222.95, -299.6)" gradientUnits="userSpaceOnUse" id="gradient2" r="819.2" spreadMethod="pad">
      <stop offset="0.0" stop-color="#3b3b3b"/>
      <stop offset="1.0" stop-color="#000000"/>
    </radialGradient>
    <radialGradient cx="0" cy="0" gradientTransform="matrix(0.0993, 0.0, 0.0, 0.0993, -278.7, -298.5)" gradientUnits="userSpaceOnUse" id="gradient3" r="819.2" spreadMethod="pad">
      <stop offset="0.0" stop-color="#2f2f2f"/>
      <stop offset="1.0" stop-color="#000000"/>
    </radialGradient>
    <radialGradient cx="0" cy="0" gradientTransform="matrix(0.0373, 0.0, 0.0, 0.0373, -371.55, -285.65)" gradientUnits="userSpaceOnUse" id="gradient4" r="819.2" spreadMethod="pad">
      <stop offset="0.0" stop-color="#010101"/>
      <stop offset="1.0" stop-color="#000000"/>
    </radialGradient>
    <radialGradient cx="0" cy="0" gradientTransform="matrix(0.0494, 0.0, 0.0, 0.0494, -400.0, -264.4)" gradientUnits="userSpaceOnUse" id="gradient5" r="819.2" spreadMethod="pad">
      <stop offset="0.0" stop-color="#222222"/>
      <stop offset="1.0" stop-color="#000000"/>
    </radialGradient>
    <radialGradient cx="0" cy="0" gradientTransform="matrix(0.0925, 0.0, 0.0, 0.0925, -353.55, -204.55)" gradientUnits="userSpaceOnUse" id="gradient6" r="819.2" spreadMethod="pad">
      <stop offset="0.0" stop-color="#505050"/>
      <stop offset="1.0" stop-color="#0b0b0b"/>
    </radialGradient>
    <radialGradient cx="0" cy="0" gradientTransform="matrix(0.0246, 0.0, 0.0, 0.0246, -278.7, -298.5)" gradientUnits="userSpaceOnUse" id="gradient7" r="819.2" spreadMethod="pad">
      <stop offset="0.0" stop-color="#2f2f2f"/>
      <stop offset="1.0" stop-color="#000000"/>
    </radialGradient>
    <radialGradient cx="0" cy="0" gradientTransform="matrix(0.039, 0.0, 0.0, 0.039, -220.0, -300.0)" gradientUnits="userSpaceOnUse" id="gradient8" r="819.2" spreadMethod="pad">
      <stop offset="0.0" stop-color="#626262"/>
      <stop offset="1.0" stop-color="#323232"/>
    </radialGradient>
    <radialGradient cx="0" cy="0" gradientTransform="matrix(0.1859, 0.0, 0.0, 0.1859, -214.6, -300.0)" gradientUnits="userSpaceOnUse" id="gradient9" r="819.2" spreadMethod="pad">
      <stop offset="0.0" stop-color="#656565"/>
      <stop offset="1.0" stop-color="#000000"/>
    </radialGradient>
    <radialGradient cx="0" cy="0" gradientTransform="matrix(0.0924, 0.0, 0.0, 0.0924, -200.5, -300.0)" gradientUnits="userSpaceOnUse" id="gradient10" r="819.2" spreadMethod="pad">
      <stop offset="0.0" stop-color="#333333"/>
      <stop offset="1.0" stop-color="#000000"/>
    </radialGradient>
    <radialGradient cx="0" cy="0" gradientTransform="matrix(0.04, 0.0, 0.0, 0.04, -146.25, -296.3)" gradientUnits="userSpaceOnUse" id="gradient11" r="819.2" spreadMethod="pad">
      <stop offset="0.0" stop-color="#747474"/>
      <stop offset="1.0" stop-color="#0e0e0e"/>
    </radialGradient>
    <radialGradient cx="0" cy="0" gradientTransform="matrix(0.0934, 0.0, 0.0, 0.0934, -89.9, -300.0)" gradientUnits="userSpaceOnUse" id="gradient12" r="819.2" spreadMethod="pad">
      <stop offset="0.0" stop-color="#5b5b5b"/>
      <stop offset="1.0" stop-color="#000000"/>
    </radialGradient>
    <radialGradient cx="0" cy="0" gradientTransform="matrix(0.0629, 0.0, 0.0, 0.0629, -1.0, -233.35)" gradientUnits="userSpaceOnUse" id="gradient13" r="819.2" spreadMethod="pad">
      <stop offset="0.0" stop-color="#060606"/>
      <stop offset="1.0" stop-color="#000000"/>
    </radialGradient>
    <radialGradient cx="0" cy="0" gradientTransform="matrix(0.0997, 0.0, 0.0, 0.0997, -43.1, -247.7)" gradientUnits="userSpaceOnUse" id="gradient14" r="819.2" spreadMethod="pad">
      <stop offset="0.0" stop-color="#000000"/>
      <stop offset="1.0" stop-color="#000000"/>
    </radialGradient>
    <radialGradient cx="0" cy="0" gradientTransform="matrix(0.0486, 0.0, 0.0, 0.0486, -117.35, -300.0)" gradientUnits="userSpaceOnUse" id="gradient15" r="819.2" spreadMethod="pad">
      <stop offset="0.0" stop-color="#434343"/>
      <stop offset="1.0" stop-color="#070707"/>
    </radialGradient>
    <radialGradient cx="0" cy="0" gradientTransform="matrix(0.037, 0.0, 0.0, 0.037, -272.45, -278.1)" gradientUnits="userSpaceOnUse" id="gradient16" r="819.2" spreadMethod="pad">
      <stop offset="0.0" stop-color="#626262"/>
      <stop offset="1.0" stop-color="#454545"/>
    </radialGradient>
    <radialGradient cx="0" cy="0" gradientTransform="matrix(0.0938, 0.0, 0.0, 0.0938, -256.3, -224.45)" gradientUnits="userSpaceOnUse" id="gradient17" r="819.2" spreadMethod="pad">
      <stop offset="0.0" stop-color="#838383"/>
      <stop offset="1.0" stop-color="#282828"/>
    </radialGradient>
    <radialGradient cx="0" cy="0" gradientTransform="matrix(0.0485, 0.0, 0.0, 0.0485, -124.0, -260.3)" gradientUnits="userSpaceOnUse" id="gradient18" r="819.2" spreadMethod="pad">
      <stop offset="0.0" stop-color="#010101"/>
      <stop offset="1.0" stop-color="#000000"/>
    </radialGradient>
    <radialGradient cx="0" cy="0" gradientTransform="matrix(0.0891, 0.0, 0.0, 0.0891, -142.0, -199.1)" gradientUnits="userSpaceOnUse" id="gradient19" r="819.2" spreadMethod="pad">
      <stop offset="0.0" stop-color="#151515"/>
      <stop offset="1.0" stop-color="#000000"/>
    </radialGradient>
    <radialGradient cx="0" cy="0" gradientTransform="matrix(0.0821, 0.0, 0.0, 0.0821, -353.55, -204.55)" gradientUnits="userSpaceOnUse" id="gradient20" r="819.2" spreadMethod="pad">
      <stop offset="0.0" stop-color="#505050"/>
      <stop offset="1.0" stop-color="#191919"/>
    </radialGradient>
    <radialGradient cx="0" cy="0" gradientTransform="matrix(0.0951, 0.0, 0.0, 0.0951, -387.9, -214.85)" gradientUnits="userSpaceOnUse" id="gradient21" r="819.2" spreadMethod="pad">
      <stop offset="0.0" stop-color="#000000"/>
      <stop offset="1.0" stop-color="#000000"/>
    </radialGradient>
    <radialGradient cx="0" cy="0" gradientTransform="matrix(0.0323, 0.0, 0.0, 0.0323, -322.75, -176.85)" gradientUnits="userSpaceOnUse" id="gradient22" r="819.2" spreadMethod="pad">
      <stop offset="0.0" stop-color="#858585"/>
      <stop offset="1.0" stop-color="#000000"/>
    </radialGradient>
    <radialGradient cx="0" cy="0" gradientTransform="matrix(0.0555, 0.0, 0.0, 0.0555, -307.7, -168.55)" gradientUnits="userSpaceOnUse" id="gradient23" r="819.2" spreadMethod="pad">
      <stop offset="0.0" stop-color="#131313"/>
      <stop offset="1.0" stop-color="#000000"/>
    </radialGradient>
    <radialGradient cx="0" cy="0" gradientTransform="matrix(0.0266, 0.0, 0.0, 0.0266, -39.05, -233.25)" gradientUnits="userSpaceOnUse" id="gradient24" r="819.2" spreadMethod="pad">
      <stop offset="0.0" stop-color="#000000"/>
      <stop offset="1.0" stop-color="#000000"/>
    </radialGradient>
    <radialGradient cx="0" cy="0" gradientTransform="matrix(0.2861, 0.0, 0.0, 0.2861, -276.6, -121.5)" gradientUnits="userSpaceOnUse" id="gradient25" r="819.2" spreadMethod="pad">
      <stop offset="0.0" stop-color="#6f6f6f"/>
      <stop offset="1.0" stop-color="#000000"/>
    </radialGradient>
    <radialGradient cx="0" cy="0" gradientTransform="matrix(0.1301, 0.0, 0.0, 0.1301, -302.85, -88.55)" gradientUnits="userSpaceOnUse" id="gradient26" r="819.2" spreadMethod="pad">
      <stop offset="0.0" stop-color="#767676"/>
      <stop offset="1.0" stop-color="#151515"/>
    </radialGradient>
    <radialGradient cx="0" cy="0" gradientTransform="matrix(0.0846, 0.0, 0.0, 0.0846, -113.85, -102.7)" gradientUnits="userSpaceOnUse" id="gradient27" r="819.2" spreadMethod="pad">
      <stop offset="0.0" stop-color="#000000"/>
      <stop offset="1.0" stop-color="#000000"/>
    </radialGradient>
    <radialGradient cx="0" cy="0" gradientTransform="matrix(0.0989, 0.0, 0.0, 0.0989, -306.8, -58.7)" gradientUnits="userSpaceOnUse" id="gradient28" r="819.2" spreadMethod="pad">
      <stop offset="0.0" stop-color="#757575"/>
      <stop offset="1.0" stop-color="#191919"/>
    </radialGradient>
    <radialGradient cx="0" cy="0" gradientTransform="matrix(0.0854, 0.0, 0.0, 0.0854, -70.35, -10.2)" gradientUnits="userSpaceOnUse" id="gradient29" r="819.2" spreadMethod="pad">
      <stop offset="0.0" stop-color="#000000"/>
      <stop offset="1.0" stop-color="#000000"/>
    </radialGradient>
    <radialGradient cx="0" cy="0" gradientTransform="matrix(0.0471, 0.0, 0.0, 0.0471, -32.9, -1.0)" gradientUnits="userSpaceOnUse" id="gradient30" r="819.2" spreadMethod="pad">
      <stop offset="0.0" stop-color="#1e1e1e"/>
      <stop offset="1.0" stop-color="#000000"/>
    </radialGradient>
    <radialGradient cx="0" cy="0" gradientTransform="matrix(0.099, 0.0, 0.0, 0.099, -306.8, -58.7)" gradientUnits="userSpaceOnUse" id="gradient31" r="819.2" spreadMethod="pad">
      <stop offset="0.0" stop-color="#757575"/>
      <stop offset="1.0" stop-color="#030303"/>
    </radialGradient>
    <radialGradient cx="0" cy="0" gradientTransform="matrix(0.0287, 0.0, 0.0, 0.0287, -70.35, -10.2)" gradientUnits="userSpaceOnUse" id="gradient32" r="819.2" spreadMethod="pad">
      <stop offset="0.0" stop-color="#000000"/>
      <stop offset="1.0" stop-color="#000000"/>
    </radialGradient>
  </defs>
</svg>
