<?xml version="1.0" encoding="UTF-8" standalone="no"?>
<svg xmlns:xlink="http://www.w3.org/1999/xlink" height="299.1px" width="399.1px" xmlns="http://www.w3.org/2000/svg">
  <g transform="matrix(1.0, 0.0, 0.0, 1.0, 400.0, 300.0)">
    <path d="M-300.75 -222.65 L-302.9 -159.5 -322.25 -163.0 -338.75 -164.15 -381.75 -163.9 -386.25 -229.75 -385.9 -231.25 -382.5 -287.75 -381.15 -300.0 -299.5 -300.0 -299.4 -260.5 -300.75 -222.65" fill="url(#gradient0)" fill-rule="evenodd" stroke="none"/>
    <path d="M-299.5 -300.0 L-297.5 -300.0 -298.25 -251.65 -300.75 -222.65 -299.4 -260.5 -299.5 -300.0" fill="url(#gradient1)" fill-rule="evenodd" stroke="none"/>
    <path d="M-244.25 -294.0 L-246.15 -294.65 -246.65 -294.75 -248.75 -295.65 -248.9 -295.65 -259.4 -300.0 -248.75 -300.0 -244.25 -294.0" fill="url(#gradient2)" fill-rule="evenodd" stroke="none"/>
    <path d="M-98.9 -207.25 L-124.15 -215.25 -160.4 -230.15 -244.25 -294.0 -248.75 -300.0 -216.9 -300.0 -150.15 -250.0 -112.0 -232.0 -71.65 -219.75 -79.75 -216.15 -80.5 -215.75 -82.5 -215.15 -84.15 -213.15 -88.65 -209.75 -97.65 -207.0 -98.75 -207.25 -98.9 -207.25" fill="url(#gradient3)" fill-rule="evenodd" stroke="none"/>
    <path d="M-248.9 -295.65 L-260.4 -299.75 -260.65 -300.0 -259.4 -300.0 -248.9 -295.65" fill="url(#gradient4)" fill-rule="evenodd" stroke="none"/>
    <path d="M-45.65 -289.9 L-39.25 -287.0 -45.75 -264.0 -52.0 -246.0 -63.4 -223.9 -70.0 -221.4 -71.65 -219.75 -112.0 -232.0 -150.15 -250.0 -216.9 -300.0 -68.15 -300.0 -54.4 -293.9 -54.15 -293.75 -52.9 -293.25 -52.5 -293.0 -45.65 -289.9 M-45.4 -289.65 L-55.5 -293.5 -45.4 -289.0 -45.4 -289.65" fill="url(#gradient5)" fill-rule="evenodd" stroke="none"/>
    <path d="M-36.15 -43.75 L-36.4 -39.25 -37.15 -37.9 -37.25 -36.75 -43.15 -35.4 -43.5 -35.25 -43.5 -34.75 -53.75 -34.4 -54.4 -33.75 -67.75 -34.5 -68.0 -34.0 Q-101.25 -36.9 -103.75 -42.15 L-72.0 -42.5 -36.15 -43.75 M-63.4 -223.9 L-55.65 -227.65 -41.9 -226.4 -41.25 -225.9 -51.65 -224.75 -53.4 -219.75 -56.15 -216.9 -58.65 -217.75 -69.4 -210.9 -70.75 -209.65 -79.75 -216.15 -71.65 -219.75 -70.0 -221.4 -63.4 -223.9 M-100.5 -60.5 L-101.15 -60.5 -100.65 -61.25 -100.5 -60.5 M-84.15 -213.15 L-82.5 -215.15 -80.5 -215.75 -82.0 -214.25 -84.15 -213.15" fill="url(#gradient6)" fill-rule="evenodd" stroke="none"/>
    <path d="M-39.25 -287.0 L-9.75 -275.15 -9.65 -274.9 -24.65 -230.5 -27.25 -224.4 -27.65 -224.25 -28.15 -224.9 -32.4 -232.15 -32.75 -232.15 -38.0 -226.15 -41.25 -225.9 -41.9 -226.4 -55.65 -227.65 -63.4 -223.9 -52.0 -246.0 -45.75 -264.0 -39.25 -287.0" fill="url(#gradient7)" fill-rule="evenodd" stroke="none"/>
    <path d="M-41.25 -225.9 L-38.0 -226.15 -41.5 -207.0 -44.75 -158.75 -44.4 -157.9 -51.0 -62.0 -97.25 -60.65 -96.0 -93.9 -96.5 -95.4 -96.5 -97.15 -101.4 -129.0 -104.9 -162.75 -98.0 -192.75 -89.4 -206.5 -82.0 -214.25 -80.5 -215.75 -79.75 -216.15 -70.75 -209.65 -69.4 -210.9 -58.65 -217.75 -56.15 -216.9 -53.4 -219.75 -51.65 -224.75 -41.25 -225.9" fill="url(#gradient8)" fill-rule="evenodd" stroke="none"/>
    <path d="M-9.65 -274.9 L-0.9 -247.25 -21.4 -156.15 -27.65 -62.5 -51.0 -62.0 -44.4 -157.9 -44.75 -158.75 -41.5 -207.0 -38.0 -226.15 -32.75 -232.15 -32.4 -232.15 -28.15 -224.9 -27.65 -224.25 -27.25 -224.4 -24.65 -230.5 -9.65 -274.9" fill="url(#gradient9)" fill-rule="evenodd" stroke="none"/>
    <path d="M-45.5 -293.25 L-13.65 -279.75 -9.75 -275.15 -39.25 -287.0 -45.65 -289.9 -45.5 -293.25 M-68.15 -300.0 L-67.4 -300.0 -54.4 -293.9 -68.15 -300.0" fill="url(#gradient10)" fill-rule="evenodd" stroke="none"/>
    <path d="M-45.5 -293.25 L-45.65 -289.9 -52.5 -293.0 -52.9 -293.25 -54.15 -293.75 -54.4 -293.9 -67.4 -300.0 -57.0 -300.0 -46.0 -295.5 -45.65 -295.25 -45.5 -293.25 M-45.4 -289.65 L-45.4 -289.0 -55.5 -293.5 -45.4 -289.65" fill="url(#gradient11)" fill-rule="evenodd" stroke="none"/>
    <path d="M-302.9 -159.5 L-303.15 -120.5 -331.25 -120.9 -345.65 -120.5 -373.65 -116.65 -381.75 -163.9 -338.75 -164.15 -322.25 -163.0 -302.9 -159.5" fill="url(#gradient12)" fill-rule="evenodd" stroke="none"/>
    <path d="M-400.0 -117.0 L-400.0 -300.0 -381.15 -300.0 -382.5 -287.75 -385.9 -231.25 -386.25 -229.75 -381.75 -163.9 -373.65 -116.65 -400.0 -117.0" fill="url(#gradient13)" fill-rule="evenodd" stroke="none"/>
    <path d="M-400.0 -94.0 L-400.0 -117.0 -373.65 -116.65 -371.25 -95.15 -390.75 -93.15 -395.9 -93.5 -397.9 -93.9 -399.0 -94.25 -399.5 -94.0 -400.0 -94.0" fill="url(#gradient14)" fill-rule="evenodd" stroke="none"/>
    <path d="M-399.9 -91.75 L-400.0 -94.0 -399.5 -94.0 -398.9 -93.9 -397.9 -93.9 -395.9 -93.5 -399.0 -90.9 -399.9 -91.75 M-323.25 -95.65 L-322.9 -95.0 -322.0 -87.75 -323.75 -83.5 -327.9 -93.15 -328.5 -92.75 -331.65 -88.15 -333.25 -86.4 -342.5 -93.75 -340.9 -94.0 -339.75 -94.0 -338.65 -94.15 -338.15 -94.15 -329.15 -94.9 -328.75 -94.9 -323.25 -95.65" fill="url(#gradient15)" fill-rule="evenodd" stroke="none"/>
    <path d="M-376.9 -0.9 L-400.0 -0.9 -399.9 -91.75 -399.0 -90.9 -395.9 -93.5 -390.75 -93.15 -371.25 -95.15 -375.75 -68.9 -376.9 -0.9" fill="url(#gradient16)" fill-rule="evenodd" stroke="none"/>
    <path d="M-309.5 -100.0 L-315.0 -77.0 -314.15 -24.4 -314.5 -0.9 -376.9 -0.9 -375.75 -68.9 -371.25 -95.15 -355.65 -96.65 -309.5 -100.0 M-323.25 -95.65 L-328.75 -94.9 -329.15 -94.9 -338.15 -94.15 -338.65 -94.15 -339.75 -94.0 -340.9 -94.0 -342.5 -93.75 -333.25 -86.4 -331.65 -88.15 -328.5 -92.75 -327.9 -93.15 -323.75 -83.5 -322.0 -87.75 -322.9 -95.0 -323.25 -95.65" fill="url(#gradient17)" fill-rule="evenodd" stroke="none"/>
    <path d="M-303.15 -120.5 L-309.5 -100.0 -355.65 -96.65 -371.25 -95.15 -373.65 -116.65 -345.65 -120.5 -331.25 -120.9 -303.15 -120.5" fill="url(#gradient18)" fill-rule="evenodd" stroke="none"/>
    <path d="M-104.25 -60.4 L-103.75 -97.25 -108.5 -129.15 -112.0 -162.5 -108.9 -189.15 -98.9 -207.25 -98.75 -207.25 -97.65 -207.0 -88.65 -209.75 -84.15 -213.15 -82.0 -214.25 -89.4 -206.5 -98.0 -192.75 -104.9 -162.75 -101.4 -129.0 -96.5 -97.15 -96.5 -95.4 -96.0 -93.9 -97.25 -60.65 -100.5 -60.5 -100.65 -61.25 -101.15 -60.5 -104.25 -60.4" fill="url(#gradient19)" fill-rule="evenodd" stroke="none"/>
    <path d="M-397.9 -93.9 L-398.9 -93.9 -399.5 -94.0 -399.0 -94.25 -397.9 -93.9" fill="url(#gradient20)" fill-rule="evenodd" stroke="none"/>
    <path d="M-27.65 -62.5 L-25.25 -62.25 -23.9 -45.15 -25.65 -44.5 -36.15 -43.75 -72.0 -42.5 -103.75 -42.15 -105.15 -42.15 -105.5 -42.15 -116.5 -42.25 -117.5 -59.65 -117.4 -60.0 -116.65 -60.0 -104.25 -60.4 -101.15 -60.5 -100.5 -60.5 -97.25 -60.65 -51.0 -62.0 -27.65 -62.5 M-119.25 -54.75 L-119.65 -59.9 -118.75 -59.9 -119.25 -54.75" fill="url(#gradient21)" fill-rule="evenodd" stroke="none"/>
    <path d="M-54.65 -0.9 L-117.75 -0.9 -118.15 -3.4 -117.9 -3.5 -120.5 -52.0 -119.25 -51.9 -119.25 -54.75 -118.75 -59.9 -118.65 -64.75 -116.65 -60.0 -117.4 -60.0 -117.5 -59.65 -116.5 -42.25 -105.5 -42.15 -105.4 -41.75 -104.5 -38.5 -91.15 -28.25 -76.25 -18.65 -60.5 -8.5 -54.65 -0.9" fill="url(#gradient22)" fill-rule="evenodd" stroke="none"/>
    <path d="M-36.4 -39.25 L-34.9 -33.15 -34.75 -30.25 -35.25 -30.4 -35.9 -29.9 -36.4 -30.15 -36.25 -29.9 -38.9 -21.75 -40.25 -19.15 -42.5 -17.15 -42.75 -17.4 -44.0 -19.15 -48.0 -18.75 -54.15 -15.9 -57.9 -19.0 -61.15 -18.75 -68.65 -15.75 -72.5 -19.15 -76.25 -18.65 -91.15 -28.25 -104.5 -38.5 -105.4 -41.75 -105.15 -42.15 -103.75 -42.15 Q-101.25 -36.9 -68.0 -34.0 L-67.75 -34.5 -54.4 -33.75 -53.75 -34.4 -43.5 -34.75 -43.5 -35.25 -43.15 -35.4 -37.25 -36.75 -37.15 -37.9 -36.4 -39.25" fill="url(#gradient23)" fill-rule="evenodd" stroke="none"/>
    <path d="M-117.75 -0.9 L-122.25 -0.9 -128.15 -2.65 -118.15 -3.4 -117.75 -0.9" fill="url(#gradient24)" fill-rule="evenodd" stroke="none"/>
    <path d="M-122.25 -0.9 L-128.0 -0.9 -128.4 -2.5 -128.15 -2.65 -122.25 -0.9" fill="url(#gradient25)" fill-rule="evenodd" stroke="none"/>
    <path d="M-34.75 -30.25 L-1.5 -3.0 -0.9 -2.4 -0.9 -0.9 -47.4 -0.9 -39.75 -11.75 -35.75 -21.4 -35.4 -29.0 -36.25 -29.9 -36.4 -30.15 -35.9 -29.9 -35.25 -30.4 -34.75 -30.25" fill="url(#gradient26)" fill-rule="evenodd" stroke="none"/>
    <path d="M-47.4 -0.9 L-48.4 -0.9 -44.9 -6.9 -42.0 -13.25 -40.25 -19.15 -38.9 -21.75 -36.25 -29.9 -35.4 -29.0 -35.75 -21.4 -39.75 -11.75 -47.4 -0.9" fill="url(#gradient27)" fill-rule="evenodd" stroke="none"/>
    <path d="M-48.4 -0.9 L-54.65 -0.9 -60.5 -8.5 -76.25 -18.65 -72.5 -19.15 -68.65 -15.75 -61.15 -18.75 -57.9 -19.0 -54.15 -15.9 -48.0 -18.75 -44.0 -19.15 -42.75 -17.4 -42.5 -17.15 -40.25 -19.15 -42.0 -13.25 -44.9 -6.9 -48.4 -0.9" fill="url(#gradient28)" fill-rule="evenodd" stroke="none"/>
    <path d="M-314.5 -0.9 L-400.0 -1.0 -400.0 -40.5 -399.9 -41.15 -400.0 -50.5 -399.9 -51.9 -399.9 -116.4 -400.0 -116.65 -400.0 -300.0 -297.5 -300.0 -297.65 -288.15 -297.75 -287.65 -298.0 -280.65 -297.75 -279.4 -298.0 -279.15 -298.25 -250.4 -301.15 -217.4 -301.15 -216.75 -301.25 -216.4 -303.0 -161.15 -302.9 -159.5 -303.25 -121.15 -303.15 -120.5 -309.5 -100.0 -315.0 -76.75 -314.25 -22.25 -314.4 -20.65 -314.25 -20.65 -314.5 -0.9 M-260.65 -300.0 L-238.15 -300.0 -238.0 -299.65 -237.65 -292.15 -237.5 -291.9 -237.5 -289.5 -237.4 -289.15 -237.5 -288.9 -241.9 -292.25 -242.0 -292.25 -242.25 -292.5 -242.65 -292.75 -244.25 -294.0 -246.15 -294.65 -246.65 -294.75 -248.75 -295.65 -248.9 -295.65 -260.65 -300.0" fill="#af0000" fill-opacity="0.9098039" fill-rule="evenodd" stroke="none"/>
    <path d="M-297.5 -300.0 L-271.65 -299.9 -271.9 -299.75 -273.25 -299.15 -273.5 -299.0 -274.9 -298.4 -275.15 -298.25 -276.5 -297.65 -276.75 -297.5 -277.65 -297.15 -277.9 -297.0 -278.15 -296.9 -278.4 -296.75 -279.25 -296.4 -279.5 -296.25 -280.9 -295.65 -281.15 -295.5 -282.5 -294.9 -282.75 -294.75 -284.15 -294.15 -284.4 -294.0 -285.25 -293.65 -285.5 -293.5 -285.75 -293.4 -286.0 -293.25 -286.9 -292.9 -287.15 -292.75 -288.5 -292.15 -288.75 -292.0 -290.15 -291.4 -290.4 -291.25 -291.75 -290.65 -292.0 -290.5 -292.9 -290.15 -293.15 -290.0 -293.4 -289.9 -293.65 -289.75 -294.5 -289.4 -294.75 -289.25 -296.15 -288.65 -296.4 -288.5 -296.65 -288.4 -297.65 -288.15 -297.5 -300.0" fill="#c20000" fill-rule="evenodd" stroke="none"/>
    <path d="M-294.75 -0.9 L-314.5 -0.9 -314.25 -20.65 -314.4 -20.65 -314.25 -22.25 -315.0 -76.75 -309.5 -100.0 -303.15 -120.5 -303.25 -121.15 -302.9 -159.5 -303.0 -161.15 -301.25 -216.4 -301.15 -216.75 -301.15 -217.4 -298.25 -250.4 -298.0 -279.15 -297.75 -279.4 -298.0 -280.65 -297.75 -287.65 -297.65 -288.15 -296.65 -288.4 -296.4 -288.5 -296.15 -288.65 -294.75 -289.25 -294.5 -289.4 -293.65 -289.75 -293.4 -289.9 -293.15 -290.0 -292.9 -290.15 -292.0 -290.5 -291.75 -290.65 -290.4 -291.25 -290.15 -291.4 -288.75 -292.0 -288.5 -292.15 -287.15 -292.75 -286.9 -292.9 -286.0 -293.25 -285.75 -293.4 -285.5 -293.5 -285.25 -293.65 -284.4 -294.0 -284.15 -294.15 -282.75 -294.75 -282.5 -294.9 -281.15 -295.5 -280.9 -295.65 -279.5 -296.25 -279.25 -296.4 -278.4 -296.75 -278.15 -296.9 -277.9 -297.0 -277.65 -297.15 -276.75 -297.5 -276.5 -297.65 -275.15 -298.25 -274.9 -298.4 -273.5 -299.0 -273.25 -299.15 -271.9 -299.75 -271.65 -299.9 -260.65 -300.0 -248.9 -295.65 -248.75 -295.65 -246.65 -294.75 -246.15 -294.65 -244.25 -294.0 -242.65 -292.75 -242.25 -292.5 -242.0 -292.25 -241.9 -292.25 -237.5 -288.9 -237.4 -288.65 -236.5 -273.25 -236.65 -272.5 -250.4 -244.0 -262.0 -213.0 -266.65 -150.0 -265.25 -87.25 -260.0 -31.0 -253.0 -6.65 -293.4 -1.9 -294.75 -0.9" fill="#c00000" fill-rule="evenodd" stroke="none"/>
    <path d="M-57.0 -300.0 L-45.65 -295.25 -45.5 -293.0 -44.9 -292.9 -14.5 -280.0 -13.65 -279.75 -9.9 -275.25 -9.75 -275.0 -9.75 -274.5 -1.15 -248.5 -1.0 -247.65 -1.0 -247.4 -1.15 -247.15 -1.15 -246.65 -1.25 -246.65 -1.15 -246.5 -1.15 -245.75 -1.5 -245.25 -6.25 -223.5 -19.5 -236.75 -19.65 -237.15 -21.75 -239.0 -41.75 -259.25 -45.0 -262.4 -46.0 -263.15 -46.0 -263.5 -58.25 -275.5 -103.75 -283.5 -104.4 -283.5 -140.9 -289.9 -141.15 -290.0 -197.75 -300.0 -57.0 -300.0" fill="#9b0000" fill-opacity="0.9098039" fill-rule="evenodd" stroke="none"/>
    <path d="M-1.15 -248.5 L-9.75 -274.5 -9.75 -275.0 -9.9 -275.25 -13.65 -279.75 -14.5 -280.0 -44.9 -292.9 -45.5 -293.0 -45.65 -295.25 -57.0 -300.0 -1.0 -300.0 -1.0 -248.75 -1.15 -248.5 M-6.25 -223.5 L-1.5 -245.25 -1.15 -245.75 -1.15 -218.65 -6.25 -223.5 M-1.15 -246.5 L-1.25 -246.65 -1.15 -246.65 -1.15 -246.5" fill="#af0000" fill-rule="evenodd" stroke="none"/>
    <path d="M-237.4 -288.65 L-231.25 -284.0 -236.5 -273.25 -237.4 -288.65" fill="#bf0000" fill-opacity="0.9098039" fill-rule="evenodd" stroke="none"/>
    <path d="M-228.25 -80.25 L-227.25 -62.5 -222.0 -0.9 -294.75 -0.9 -293.4 -1.9 -253.0 -6.65 -260.0 -31.0 -265.25 -87.25 -266.65 -150.0 -262.0 -213.0 -250.4 -244.0 -236.65 -272.5 -230.5 -159.9 -228.4 -89.9 -242.5 -78.5 -242.0 -78.4 -228.25 -80.25" fill="#c10000" fill-opacity="0.9098039" fill-rule="evenodd" stroke="none"/>
    <path d="M-6.25 -223.5 L-1.15 -218.65 -1.0 -45.75 -24.9 -56.9 -25.15 -57.65 -25.0 -58.15 -25.5 -62.0 -25.5 -62.5 -27.9 -62.5 -26.5 -78.15 -26.5 -80.25 -23.15 -130.0 -23.15 -132.5 -21.25 -157.25 -6.25 -223.5 M-228.4 -89.9 L-216.75 -99.4 -212.9 -140.25 -221.25 -215.5 -216.15 -272.4 -216.0 -272.4 -160.9 -230.5 -160.15 -230.15 -160.0 -230.15 -123.75 -215.25 -122.75 -214.9 -122.65 -214.9 -98.9 -207.25 -99.0 -207.15 -108.75 -189.15 -112.0 -162.65 -108.5 -129.9 -108.5 -129.25 -108.4 -128.9 -103.75 -96.65 -104.0 -83.65 -131.5 -92.75 -133.9 -93.25 -228.25 -80.25 -228.4 -89.9" fill="#e00000" fill-opacity="0.9098039" fill-rule="evenodd" stroke="none"/>
    <path d="M-228.4 -89.9 L-228.25 -80.25 -242.0 -78.4 -242.5 -78.5 -228.4 -89.9" fill="#c30000" fill-rule="evenodd" stroke="none"/>
  </g>
  <defs>
    <radialGradient cx="0" cy="0" gradientTransform="matrix(0.1356, 0.0, 0.0, 0.1356, -386.1, -230.25)" gradientUnits="userSpaceOnUse" id="gradient0" r="819.2" spreadMethod="pad">
      <stop offset="0.0" stop-color="#050505"/>
      <stop offset="1.0" stop-color="#000000"/>
    </radialGradient>
    <radialGradient cx="0" cy="0" gradientTransform="matrix(0.1023, 0.0, 0.0, 0.1023, -301.2, -216.3)" gradientUnits="userSpaceOnUse" id="gradient1" r="819.2" spreadMethod="pad">
      <stop offset="0.0" stop-color="#000000"/>
      <stop offset="1.0" stop-color="#000000"/>
    </radialGradient>
    <radialGradient cx="0" cy="0" gradientTransform="matrix(0.0201, 0.0, 0.0, 0.0201, -259.3, -300.0)" gradientUnits="userSpaceOnUse" id="gradient2" r="819.2" spreadMethod="pad">
      <stop offset="0.0" stop-color="#000000"/>
      <stop offset="1.0" stop-color="#000000"/>
    </radialGradient>
    <radialGradient cx="0" cy="0" gradientTransform="matrix(0.1366, 0.0, 0.0, 0.1366, -160.9, -230.55)" gradientUnits="userSpaceOnUse" id="gradient3" r="819.2" spreadMethod="pad">
      <stop offset="0.0" stop-color="#000000"/>
      <stop offset="1.0" stop-color="#000000"/>
    </radialGradient>
    <radialGradient cx="0" cy="0" gradientTransform="matrix(0.0216, 0.0, 0.0, 0.0216, -244.0, -293.9)" gradientUnits="userSpaceOnUse" id="gradient4" r="819.2" spreadMethod="pad">
      <stop offset="0.0" stop-color="#000000"/>
      <stop offset="1.0" stop-color="#000000"/>
    </radialGradient>
    <radialGradient cx="0" cy="0" gradientTransform="matrix(0.1231, 0.0, 0.0, 0.1231, -125.4, -300.0)" gradientUnits="userSpaceOnUse" id="gradient5" r="819.2" spreadMethod="pad">
      <stop offset="0.0" stop-color="#787878"/>
      <stop offset="1.0" stop-color="#060606"/>
    </radialGradient>
    <radialGradient cx="0" cy="0" gradientTransform="matrix(0.2887, 0.0, 0.0, 0.2887, -67.45, -260.95)" gradientUnits="userSpaceOnUse" id="gradient6" r="819.2" spreadMethod="pad">
      <stop offset="0.0" stop-color="#363636"/>
      <stop offset="1.0" stop-color="#000000"/>
    </radialGradient>
    <radialGradient cx="0" cy="0" gradientTransform="matrix(0.0623, 0.0, 0.0, 0.0623, -46.55, -261.9)" gradientUnits="userSpaceOnUse" id="gradient7" r="819.2" spreadMethod="pad">
      <stop offset="0.0" stop-color="#5b5b5b"/>
      <stop offset="1.0" stop-color="#000000"/>
    </radialGradient>
    <radialGradient cx="0" cy="0" gradientTransform="matrix(0.2188, 0.0, 0.0, 0.2188, -56.95, -224.3)" gradientUnits="userSpaceOnUse" id="gradient8" r="819.2" spreadMethod="pad">
      <stop offset="0.0" stop-color="#808080"/>
      <stop offset="1.0" stop-color="#070707"/>
    </radialGradient>
    <radialGradient cx="0" cy="0" gradientTransform="matrix(0.2457, 0.0, 0.0, 0.2457, -18.85, -247.7)" gradientUnits="userSpaceOnUse" id="gradient9" r="819.2" spreadMethod="pad">
      <stop offset="0.0" stop-color="#4a4a4a"/>
      <stop offset="1.0" stop-color="#000000"/>
    </radialGradient>
    <radialGradient cx="0" cy="0" gradientTransform="matrix(0.0776, 0.0, 0.0, 0.0776, -9.7, -275.15)" gradientUnits="userSpaceOnUse" id="gradient10" r="819.2" spreadMethod="pad">
      <stop offset="0.0" stop-color="#000000"/>
      <stop offset="1.0" stop-color="#000000"/>
    </radialGradient>
    <radialGradient cx="0" cy="0" gradientTransform="matrix(0.0378, 0.0, 0.0, 0.0378, -70.9, -300.0)" gradientUnits="userSpaceOnUse" id="gradient11" r="819.2" spreadMethod="pad">
      <stop offset="0.0" stop-color="#656565"/>
      <stop offset="1.0" stop-color="#545454"/>
    </radialGradient>
    <radialGradient cx="0" cy="0" gradientTransform="matrix(0.1096, 0.0, 0.0, 0.1096, -381.75, -164.0)" gradientUnits="userSpaceOnUse" id="gradient12" r="819.2" spreadMethod="pad">
      <stop offset="0.0" stop-color="#010101"/>
      <stop offset="1.0" stop-color="#000000"/>
    </radialGradient>
    <radialGradient cx="0" cy="0" gradientTransform="matrix(0.226, 0.0, 0.0, 0.226, -400.0, -300.0)" gradientUnits="userSpaceOnUse" id="gradient13" r="819.2" spreadMethod="pad">
      <stop offset="0.0" stop-color="#484848"/>
      <stop offset="1.0" stop-color="#050505"/>
    </radialGradient>
    <radialGradient cx="0" cy="0" gradientTransform="matrix(0.0355, 0.0, 0.0, 0.0355, -390.75, -93.25)" gradientUnits="userSpaceOnUse" id="gradient14" r="819.2" spreadMethod="pad">
      <stop offset="0.0" stop-color="#010101"/>
      <stop offset="1.0" stop-color="#000000"/>
    </radialGradient>
    <radialGradient cx="0" cy="0" gradientTransform="matrix(0.1122, 0.0, 0.0, 0.1122, -384.45, -93.35)" gradientUnits="userSpaceOnUse" id="gradient15" r="819.2" spreadMethod="pad">
      <stop offset="0.0" stop-color="#181818"/>
      <stop offset="1.0" stop-color="#000000"/>
    </radialGradient>
    <radialGradient cx="0" cy="0" gradientTransform="matrix(0.0752, 0.0, 0.0, 0.0752, -400.0, -40.85)" gradientUnits="userSpaceOnUse" id="gradient16" r="819.2" spreadMethod="pad">
      <stop offset="0.0" stop-color="#404040"/>
      <stop offset="1.0" stop-color="#0b0b0b"/>
    </radialGradient>
    <radialGradient cx="0" cy="0" gradientTransform="matrix(0.1423, 0.0, 0.0, 0.1423, -376.85, -4.85)" gradientUnits="userSpaceOnUse" id="gradient17" r="819.2" spreadMethod="pad">
      <stop offset="0.0" stop-color="#111111"/>
      <stop offset="1.0" stop-color="#000000"/>
    </radialGradient>
    <radialGradient cx="0" cy="0" gradientTransform="matrix(0.0885, 0.0, 0.0, 0.0885, -371.15, -95.25)" gradientUnits="userSpaceOnUse" id="gradient18" r="819.2" spreadMethod="pad">
      <stop offset="0.0" stop-color="#000000"/>
      <stop offset="1.0" stop-color="#000000"/>
    </radialGradient>
    <radialGradient cx="0" cy="0" gradientTransform="matrix(0.2151, 0.0, 0.0, 0.2151, -72.55, -224.1)" gradientUnits="userSpaceOnUse" id="gradient19" r="819.2" spreadMethod="pad">
      <stop offset="0.0" stop-color="#1b1b1b"/>
      <stop offset="1.0" stop-color="#000000"/>
    </radialGradient>
    <radialGradient cx="0" cy="0" gradientTransform="matrix(0.0173, 0.0, 0.0, 0.0173, -386.2, -94.45)" gradientUnits="userSpaceOnUse" id="gradient20" r="819.2" spreadMethod="pad">
      <stop offset="0.0" stop-color="#181818"/>
      <stop offset="1.0" stop-color="#040404"/>
    </radialGradient>
    <radialGradient cx="0" cy="0" gradientTransform="matrix(0.0829, 0.0, 0.0, 0.0829, -53.55, -62.0)" gradientUnits="userSpaceOnUse" id="gradient21" r="819.2" spreadMethod="pad">
      <stop offset="0.0" stop-color="#939393"/>
      <stop offset="1.0" stop-color="#3b3b3b"/>
    </radialGradient>
    <radialGradient cx="0" cy="0" gradientTransform="matrix(0.1065, 0.0, 0.0, 0.1065, -59.0, -1.0)" gradientUnits="userSpaceOnUse" id="gradient22" r="819.2" spreadMethod="pad">
      <stop offset="0.0" stop-color="#a4a4a4"/>
      <stop offset="1.0" stop-color="#333333"/>
    </radialGradient>
    <radialGradient cx="0" cy="0" gradientTransform="matrix(0.059, 0.0, 0.0, 0.059, -81.35, -38.25)" gradientUnits="userSpaceOnUse" id="gradient23" r="819.2" spreadMethod="pad">
      <stop offset="0.0" stop-color="#7c7c7c"/>
      <stop offset="1.0" stop-color="#000000"/>
    </radialGradient>
    <radialGradient cx="0" cy="0" gradientTransform="matrix(0.0235, 0.0, 0.0, 0.0235, -109.1, -4.0)" gradientUnits="userSpaceOnUse" id="gradient24" r="819.2" spreadMethod="pad">
      <stop offset="0.0" stop-color="#707070"/>
      <stop offset="1.0" stop-color="#6f6f6f"/>
    </radialGradient>
    <radialGradient cx="0" cy="0" gradientTransform="matrix(0.0078, 0.0, 0.0, 0.0078, -128.3, -2.75)" gradientUnits="userSpaceOnUse" id="gradient25" r="819.2" spreadMethod="pad">
      <stop offset="0.0" stop-color="#121212"/>
      <stop offset="1.0" stop-color="#121212"/>
    </radialGradient>
    <radialGradient cx="0" cy="0" gradientTransform="matrix(0.0491, 0.0, 0.0, 0.0491, -35.75, -21.4)" gradientUnits="userSpaceOnUse" id="gradient26" r="819.2" spreadMethod="pad">
      <stop offset="0.0" stop-color="#0d0d0d"/>
      <stop offset="1.0" stop-color="#000000"/>
    </radialGradient>
    <radialGradient cx="0" cy="0" gradientTransform="matrix(0.0383, 0.0, 0.0, 0.0383, -58.45, -9.05)" gradientUnits="userSpaceOnUse" id="gradient27" r="819.2" spreadMethod="pad">
      <stop offset="0.0" stop-color="#000000"/>
      <stop offset="1.0" stop-color="#000000"/>
    </radialGradient>
    <radialGradient cx="0" cy="0" gradientTransform="matrix(0.0448, 0.0, 0.0, 0.0448, -71.75, -23.1)" gradientUnits="userSpaceOnUse" id="gradient28" r="819.2" spreadMethod="pad">
      <stop offset="0.0" stop-color="#4d4d4d"/>
      <stop offset="1.0" stop-color="#020202"/>
    </radialGradient>
  </defs>
</svg>
