<?xml version="1.0" encoding="UTF-8" standalone="no"?>
<svg xmlns:xlink="http://www.w3.org/1999/xlink" height="299.1px" width="399.1px" xmlns="http://www.w3.org/2000/svg">
  <g transform="matrix(1.0, 0.0, 0.0, 1.0, 400.0, 300.0)">
    <path d="M-304.5 -300.0 L-304.4 -288.75 -305.15 -258.15 -305.15 -256.5 -305.25 -255.75 -306.9 -190.75 -323.15 -194.65 -338.5 -196.0 -380.5 -196.15 -385.65 -260.75 -385.25 -262.25 -383.65 -300.0 -304.5 -300.0" fill="url(#gradient0)" fill-rule="evenodd" stroke="none"/>
    <path d="M-305.15 -258.15 L-304.4 -288.75 -304.5 -300.0 -303.65 -300.0 -303.75 -279.9 -305.15 -258.15" fill="url(#gradient1)" fill-rule="evenodd" stroke="none"/>
    <path d="M-190.9 -300.0 L-59.0 -300.0 -62.25 -288.0 -68.15 -271.5 -68.5 -271.4 -79.15 -251.15 -85.5 -248.75 -87.15 -247.25 -125.4 -259.5 -163.0 -278.15 -190.9 -300.0" fill="url(#gradient2)" fill-rule="evenodd" stroke="none"/>
    <path d="M-27.9 -300.0 L-35.9 -276.25 -36.75 -272.75 -42.15 -257.65 -44.9 -251.4 -45.4 -251.4 -45.75 -252.15 -49.75 -259.0 -54.9 -253.25 -58.15 -252.9 -58.75 -253.5 -71.65 -254.9 -79.15 -251.15 -68.5 -271.4 -68.15 -271.5 -62.25 -288.0 -59.0 -300.0 -27.9 -300.0" fill="url(#gradient3)" fill-rule="evenodd" stroke="none"/>
    <path d="M-56.15 -79.4 L-56.5 -74.65 -56.9 -74.15 -57.0 -72.5 -62.25 -71.4 -62.65 -71.25 -62.65 -70.75 -72.25 -70.4 -72.65 -69.9 -85.15 -70.4 -85.5 -69.9 Q-117.25 -72.25 -120.75 -77.25 L-56.15 -79.4 M-79.15 -251.15 L-71.65 -254.9 -58.75 -253.5 -58.15 -252.9 -67.9 -252.0 -69.4 -247.4 -72.15 -244.4 -74.5 -245.4 -86.25 -237.5 -95.0 -243.75 -87.15 -247.25 -85.5 -248.75 -79.15 -251.15 M-95.75 -243.4 L-97.4 -241.75 -99.15 -241.0 -97.9 -242.5 -95.75 -243.4 M-116.65 -94.65 L-116.5 -95.15 -116.5 -94.65 -116.65 -94.65" fill="url(#gradient4)" fill-rule="evenodd" stroke="none"/>
    <path d="M-54.9 -253.25 L-58.4 -234.5 -69.0 -96.5 -113.0 -94.9 -111.75 -126.25 -116.25 -159.4 -116.65 -160.15 -119.65 -192.65 -113.0 -220.9 -104.25 -234.65 -97.4 -241.75 -95.75 -243.4 -95.0 -243.75 -86.25 -237.5 -74.5 -245.4 -72.15 -244.4 -69.4 -247.4 -67.9 -252.0 -58.15 -252.9 -54.9 -253.25" fill="url(#gradient5)" fill-rule="evenodd" stroke="none"/>
    <path d="M-27.9 -300.0 L-27.5 -299.65 -19.9 -273.65 -40.65 -186.25 -47.9 -96.9 -69.0 -96.5 -58.4 -234.5 -54.9 -253.25 -49.75 -259.0 -45.75 -252.15 -45.4 -251.4 -44.9 -251.4 -42.15 -257.65 -36.75 -272.75 -35.9 -276.25 -27.9 -300.0" fill="url(#gradient6)" fill-rule="evenodd" stroke="none"/>
    <path d="M-380.5 -196.15 L-338.5 -196.0 -323.15 -194.65 -306.9 -190.75 -306.75 -152.75 -330.4 -153.75 -345.25 -153.65 -372.4 -150.0 -380.5 -196.15" fill="url(#gradient7)" fill-rule="evenodd" stroke="none"/>
    <path d="M-383.65 -300.0 L-385.25 -262.25 -385.65 -260.75 -380.5 -196.15 -372.4 -150.0 -400.0 -150.25 -400.0 -299.75 -383.65 -300.0" fill="url(#gradient8)" fill-rule="evenodd" stroke="none"/>
    <path d="M-372.4 -150.0 L-370.25 -129.0 -389.9 -126.9 -395.25 -127.15 -396.75 -127.5 -397.5 -127.5 -398.4 -127.9 -398.75 -127.5 -399.5 -127.65 -400.0 -127.65 -400.0 -150.25 -372.4 -150.0" fill="url(#gradient9)" fill-rule="evenodd" stroke="none"/>
    <path d="M-397.5 -127.5 L-396.75 -127.5 -395.25 -127.15 Q-398.15 -124.5 -398.75 -124.75 L-400.0 -126.15 -400.0 -127.65 -399.5 -127.65 -398.75 -127.5 -397.5 -127.5 M-325.65 -128.75 L-324.75 -121.4 -325.5 -118.4 -325.9 -117.4 -326.0 -117.75 -329.75 -126.65 -333.9 -120.65 -334.5 -120.25 -343.0 -127.25 -343.15 -127.5 -342.4 -127.5 -342.0 -127.65 -338.65 -127.75 -331.65 -128.25 -331.15 -128.25 -330.4 -128.4 -329.9 -128.4 -325.65 -128.75" fill="url(#gradient10)" fill-rule="evenodd" stroke="none"/>
    <path d="M-395.25 -127.15 L-389.9 -126.9 -370.25 -129.0 -374.25 -104.0 -373.9 -103.5 -374.65 -0.9 -400.0 -0.9 -400.0 -126.15 -398.75 -124.75 Q-398.15 -124.5 -395.25 -127.15" fill="url(#gradient11)" fill-rule="evenodd" stroke="none"/>
    <path d="M-370.25 -129.0 L-350.4 -130.75 -313.0 -132.9 -318.75 -110.5 -317.4 -59.25 -317.75 -0.9 -374.65 -0.9 -373.9 -103.5 -374.25 -104.0 -370.25 -129.0 M-325.65 -128.75 L-328.75 -128.75 -329.9 -128.4 -330.4 -128.4 -331.15 -128.25 -331.65 -128.25 -338.65 -127.75 -342.0 -127.65 -342.4 -127.5 -343.15 -127.5 -343.0 -127.25 -334.5 -120.25 -333.9 -120.65 -329.75 -126.65 -326.0 -117.75 -325.9 -117.4 -325.5 -118.4 -324.75 -121.4 -325.65 -128.75" fill="url(#gradient12)" fill-rule="evenodd" stroke="none"/>
    <path d="M-372.4 -150.0 L-345.25 -153.65 -330.4 -153.75 -306.75 -152.75 -313.0 -132.9 -350.4 -130.75 -370.25 -129.0 -372.4 -150.0" fill="url(#gradient13)" fill-rule="evenodd" stroke="none"/>
    <path d="M-114.15 -235.25 L-136.65 -242.65 -173.25 -258.15 -226.4 -299.65 -226.65 -300.0 -190.9 -300.0 -163.0 -278.15 -125.4 -259.5 -87.15 -247.25 -95.0 -243.75 -95.75 -243.4 -97.9 -242.5 -99.15 -241.0 -103.75 -237.65 Q-112.9 -234.25 -114.15 -235.25" fill="url(#gradient14)" fill-rule="evenodd" stroke="none"/>
    <path d="M-120.4 -94.5 L-119.4 -128.9 -123.5 -157.5 -127.0 -191.9 -123.9 -217.15 -114.15 -235.25 Q-112.9 -234.25 -103.75 -237.65 L-99.15 -241.0 -97.4 -241.75 -104.25 -234.65 -113.0 -220.9 -119.65 -192.65 -116.65 -160.15 -116.25 -159.4 -111.75 -126.25 -113.0 -94.9 -116.5 -94.65 -116.5 -95.15 -116.65 -94.65 -120.4 -94.5" fill="url(#gradient15)" fill-rule="evenodd" stroke="none"/>
    <path d="M-69.0 -96.5 L-47.9 -96.9 -45.9 -96.75 -44.75 -80.4 -45.75 -80.0 -56.15 -79.4 -120.75 -77.25 -131.65 -77.0 -132.5 -93.65 -131.65 -93.9 -120.4 -94.5 -116.65 -94.65 -116.5 -94.65 -113.0 -94.9 -69.0 -96.5 M-134.5 -87.4 L-135.0 -93.0 -135.0 -93.5 -134.0 -93.65 -134.5 -87.4" fill="url(#gradient16)" fill-rule="evenodd" stroke="none"/>
    <path d="M-329.9 -128.4 L-328.75 -128.75 -325.65 -128.75 -329.9 -128.4" fill="url(#gradient17)" fill-rule="evenodd" stroke="none"/>
    <path d="M-398.75 -127.5 L-398.4 -127.9 -397.5 -127.5 -398.75 -127.5" fill="url(#gradient18)" fill-rule="evenodd" stroke="none"/>
    <path d="M-125.5 -31.9 L-130.25 -32.4 -132.9 -33.5 -133.25 -34.25 -133.15 -34.25 -130.9 -34.0 -130.65 -36.15 -131.0 -36.4 -133.5 -37.4 -133.65 -39.65 -135.9 -85.9 -134.5 -86.0 -134.5 -87.4 -134.0 -93.65 Q-133.5 -94.15 -133.65 -98.25 L-131.65 -93.9 -132.5 -93.65 -131.65 -77.0 -120.75 -77.25 -119.75 -73.75 -107.75 -64.9 -92.75 -55.5 -77.9 -46.0 -68.9 -34.15 -63.75 -24.65 -56.4 -19.25 -52.9 -12.75 -53.15 -12.5 -53.5 -12.75 -61.75 -17.4 -81.4 -31.25 -83.0 -31.15 -85.0 -33.0 -94.15 -34.75 -96.15 -35.15 -121.5 -35.25 -129.15 -36.0 -129.5 -36.0 -129.4 -35.65 -128.25 -33.25 -118.75 -31.25 -125.5 -31.9 M-90.0 -30.9 L-95.9 -30.9 -105.65 -30.75 -95.4 -31.5 -90.0 -30.9" fill="url(#gradient19)" fill-rule="evenodd" stroke="none"/>
    <path d="M-56.5 -74.65 L-55.15 -68.9 -55.15 -66.5 -56.15 -66.15 -58.4 -59.15 -59.75 -56.15 -61.9 -54.25 -63.15 -56.15 -66.75 -55.9 -72.75 -53.0 -75.4 -55.5 -76.4 -56.0 -79.4 -55.65 -86.15 -52.75 -89.9 -56.0 -92.75 -55.5 -107.75 -64.9 -119.75 -73.75 -120.75 -77.25 Q-117.25 -72.25 -85.5 -69.9 L-85.15 -70.4 -72.65 -69.9 -72.25 -70.4 -62.65 -70.75 -62.65 -71.25 -62.25 -71.4 -57.0 -72.5 -56.9 -74.15 -56.5 -74.65" fill="url(#gradient20)" fill-rule="evenodd" stroke="none"/>
    <path d="M-92.65 -19.75 L-98.25 -20.9 -104.75 -23.5 -106.15 -24.5 -106.25 -24.5 -105.15 -27.5 -105.65 -30.75 -95.9 -30.9 -94.75 -29.9 -91.65 -27.5 -85.25 -23.4 -82.65 -21.15 -82.25 -19.9 -83.75 -19.4 -86.5 -19.4 -90.5 -19.25 -92.4 -19.65 -92.65 -19.75 M-92.75 -55.5 L-89.9 -56.0 -86.15 -52.75 -79.4 -55.65 -76.4 -56.0 -75.4 -55.5 -72.75 -53.0 -66.75 -55.9 -63.15 -56.15 -61.9 -54.25 -59.75 -56.15 -61.5 -50.65 -64.25 -44.5 -68.4 -37.5 -69.4 -36.25 -68.9 -34.15 -77.9 -46.0 -92.75 -55.5" fill="url(#gradient21)" fill-rule="evenodd" stroke="none"/>
    <path d="M-59.75 -56.15 L-58.4 -59.15 -56.15 -66.15 -55.25 -65.4 -55.75 -57.65 -59.25 -49.4 -65.5 -40.4 -68.4 -37.5 -64.25 -44.5 -61.5 -50.65 -59.75 -56.15" fill="url(#gradient22)" fill-rule="evenodd" stroke="none"/>
    <path d="M-55.15 -66.5 L-14.75 -32.9 -8.75 -28.0 -5.25 -24.25 -4.75 -18.5 -7.65 -11.25 -15.25 -0.9 -37.5 -0.9 -57.75 -14.0 -53.5 -12.75 -53.15 -12.5 -52.9 -12.75 -56.4 -19.25 -63.75 -24.65 -68.9 -34.15 -69.4 -36.25 -68.4 -37.5 -65.5 -40.4 -59.25 -49.4 -55.75 -57.65 -55.25 -65.4 -56.15 -66.15 -55.15 -66.5 M-83.75 -19.4 L-81.9 -18.15 Q-82.65 -17.9 -86.5 -19.4 L-83.75 -19.4" fill="url(#gradient23)" fill-rule="evenodd" stroke="none"/>
    <path d="M-143.65 -38.9 L-133.65 -39.65 -133.5 -37.4 -131.0 -36.4 -143.65 -38.9 M-114.5 -33.15 L-129.15 -36.0 -121.5 -35.25 -96.15 -35.15 -94.15 -34.75 -114.5 -33.15" fill="url(#gradient24)" fill-rule="evenodd" stroke="none"/>
    <path d="M-133.25 -34.25 L-143.25 -36.4 -143.65 -36.65 -144.0 -38.5 -144.0 -38.9 -143.65 -38.9 -131.0 -36.4 -130.65 -36.15 -130.9 -34.0 -133.15 -34.25 -133.25 -34.25 M-118.75 -31.25 L-128.25 -33.25 -129.4 -35.65 -129.5 -36.0 -129.15 -36.0 -114.5 -33.15 -114.0 -30.4 -118.4 -31.25 -118.75 -31.25" fill="url(#gradient25)" fill-rule="evenodd" stroke="none"/>
    <path d="M-106.25 -24.5 L-109.5 -16.9 -116.4 -16.15 -116.75 -16.4 -125.5 -31.9 -118.75 -31.25 -118.4 -31.25 -114.0 -30.4 -105.65 -30.75 -105.15 -27.5 -106.25 -24.5" fill="url(#gradient26)" fill-rule="evenodd" stroke="none"/>
    <path d="M-109.5 -16.9 L-108.65 -0.9 -115.9 -0.9 -116.9 -16.0 -116.75 -16.25 -116.75 -16.4 -116.4 -16.15 -109.5 -16.9" fill="url(#gradient27)" fill-rule="evenodd" stroke="none"/>
    <path d="M-94.75 -29.9 L-95.9 -30.9 -90.0 -30.9 -89.15 -30.9 -88.25 -30.75 -85.5 -28.15 -94.75 -29.9" fill="url(#gradient28)" fill-rule="evenodd" stroke="none"/>
    <path d="M-94.75 -29.9 L-85.5 -28.15 -82.15 -25.65 -91.65 -27.5 -94.75 -29.9" fill="url(#gradient29)" fill-rule="evenodd" stroke="none"/>
    <path d="M-43.15 -0.9 L-58.9 -0.9 -92.4 -19.65 -90.5 -19.25 -86.5 -19.4 Q-82.65 -17.9 -81.9 -18.15 L-83.75 -19.4 -82.25 -19.9 -82.65 -21.15 -85.25 -23.4 -91.65 -27.5 -82.15 -25.65 -43.15 -0.9" fill="url(#gradient30)" fill-rule="evenodd" stroke="none"/>
    <path d="M-92.4 -19.65 L-92.5 -19.65 -92.65 -19.75 -92.4 -19.65" fill="url(#gradient31)" fill-rule="evenodd" stroke="none"/>
    <path d="M-37.5 -0.9 L-43.15 -0.9 -82.15 -25.65 -85.5 -28.15 -88.25 -30.75 -89.15 -30.9 -90.0 -30.9 -95.4 -31.5 -105.65 -30.75 -114.0 -30.4 -114.5 -33.15 -94.15 -34.75 -85.0 -33.0 -83.0 -31.15 Q-83.15 -30.0 -77.15 -26.25 L-57.75 -14.0 -37.5 -0.9" fill="url(#gradient32)" fill-rule="evenodd" stroke="none"/>
    <path d="M-53.5 -12.75 L-57.75 -14.0 -77.15 -26.25 Q-83.15 -30.0 -83.0 -31.15 L-81.4 -31.25 -61.75 -17.4 -53.5 -12.75" fill="url(#gradient33)" fill-rule="evenodd" stroke="none"/>
    <path d="M-14.75 -32.9 Q-2.65 -31.5 -1.0 -29.4 L-0.9 -0.9 -15.25 -0.9 -7.65 -11.25 -4.75 -18.5 -5.25 -24.25 -8.75 -28.0 -14.75 -32.9" fill="url(#gradient34)" fill-rule="evenodd" stroke="none"/>
    <path d="M-317.75 -0.9 L-393.5 -0.9 -393.5 -1.25 -395.0 -33.5 -395.25 -34.25 -397.0 -75.15 -397.15 -75.75 -397.4 -82.0 -397.25 -82.25 -397.65 -85.9 -397.5 -86.15 -397.9 -92.75 -397.75 -94.65 -398.0 -96.9 -397.9 -98.5 -399.0 -124.9 -399.25 -125.5 -399.0 -126.65 -399.15 -127.5 -399.5 -135.5 -399.65 -135.9 -400.0 -150.25 -399.9 -151.5 -399.9 -299.4 -400.0 -300.0 -303.65 -300.0 -303.75 -279.65 -305.15 -256.5 -305.0 -255.9 -305.25 -255.75 -305.75 -246.5 -305.65 -246.4 -306.9 -192.5 -306.9 -153.65 -306.75 -152.75 -313.0 -132.9 -318.75 -110.65 -318.65 -110.4 -317.65 -66.0 -317.5 -64.9 -317.25 -59.15 -317.5 -58.4 -317.25 -51.25 -317.75 -26.4 -317.65 -25.75 -317.75 -0.9" fill="#ae0000" fill-opacity="0.9098039" fill-rule="evenodd" stroke="none"/>
    <path d="M-236.0 -112.25 L-235.75 -103.65 -230.4 -39.75 -228.4 -0.9 -317.75 -0.9 -317.65 -25.75 -303.9 -35.75 -264.75 -40.75 -271.4 -64.4 -276.65 -118.0 -278.4 -178.65 -274.15 -242.15 -262.9 -271.9 -249.5 -300.0 -244.25 -299.9 -238.0 -184.25 -236.4 -125.15 -255.5 -109.75 -254.65 -109.65 -236.0 -112.25" fill="#c00000" fill-opacity="0.9098039" fill-rule="evenodd" stroke="none"/>
    <path d="M-24.9 -252.75 L-7.25 -234.5 -1.15 -173.5 -1.0 -69.9 -45.4 -89.75 -45.75 -92.0 -45.65 -92.65 -46.15 -95.9 -45.9 -96.65 -47.9 -96.75 -46.65 -111.5 -46.65 -114.4 -42.75 -160.75 -42.75 -163.15 -40.65 -186.9 -24.9 -252.75 M-236.4 -125.15 L-230.4 -130.0 -226.65 -169.4 -230.15 -199.0 -234.75 -243.65 -229.15 -300.0 -226.65 -300.0 -177.25 -261.25 -177.15 -261.25 -176.65 -260.75 -176.25 -260.5 -173.5 -258.4 -173.25 -258.25 -172.9 -258.15 -172.65 -258.0 -137.75 -243.15 -137.0 -242.9 -136.75 -242.75 -136.65 -242.75 -114.15 -235.25 -114.25 -234.9 -123.65 -217.65 -123.75 -217.15 -127.0 -192.0 -123.9 -160.5 -119.4 -128.65 -119.75 -114.25 -150.5 -124.0 -151.4 -124.0 -236.0 -112.25 -236.4 -125.15" fill="#e70000" fill-opacity="0.9098039" fill-rule="evenodd" stroke="none"/>
    <path d="M-303.65 -300.0 L-249.5 -300.0 -262.9 -271.9 -274.15 -242.15 -278.4 -178.65 -276.65 -118.0 -271.4 -64.4 -264.75 -40.75 -303.9 -35.75 -317.65 -25.75 -317.75 -26.4 -317.25 -51.25 -317.5 -58.4 -317.25 -59.15 -317.5 -64.9 -317.65 -66.0 -318.65 -110.4 -318.75 -110.65 -313.0 -132.9 -306.75 -152.75 -306.9 -153.65 -306.9 -192.5 -305.65 -246.4 -305.75 -246.5 -305.25 -255.75 -305.0 -255.9 -305.15 -256.5 -303.75 -279.65 -303.65 -300.0" fill="#bf0000" fill-rule="evenodd" stroke="none"/>
    <path d="M-27.75 -299.75 L-27.9 -299.5 -20.0 -273.65 -20.4 -272.4 -20.25 -272.0 -24.9 -252.75 -53.25 -282.75 -54.15 -283.5 -61.4 -291.15 -61.5 -291.4 -69.75 -300.0 -28.75 -299.9 -27.75 -299.75" fill="#9b0000" fill-opacity="0.9098039" fill-rule="evenodd" stroke="none"/>
    <path d="M-24.9 -252.75 L-20.25 -272.0 -20.4 -272.4 -20.0 -273.65 -27.9 -299.5 -27.75 -299.75 -1.0 -300.0 -1.15 -173.5 -7.25 -234.5 -24.9 -252.75" fill="#b00000" fill-rule="evenodd" stroke="none"/>
    <path d="M-236.4 -125.15 L-236.0 -112.25 -254.65 -109.65 -255.5 -109.75 -236.4 -125.15" fill="#c30000" fill-rule="evenodd" stroke="none"/>
  </g>
  <defs>
    <radialGradient cx="0" cy="0" gradientTransform="matrix(0.1288, 0.0, 0.0, 0.1288, -385.45, -261.3)" gradientUnits="userSpaceOnUse" id="gradient0" r="819.2" spreadMethod="pad">
      <stop offset="0.0" stop-color="#050505"/>
      <stop offset="1.0" stop-color="#000000"/>
    </radialGradient>
    <radialGradient cx="0" cy="0" gradientTransform="matrix(0.0656, 0.0, 0.0, 0.0656, -305.65, -246.3)" gradientUnits="userSpaceOnUse" id="gradient1" r="819.2" spreadMethod="pad">
      <stop offset="0.0" stop-color="#000000"/>
      <stop offset="1.0" stop-color="#000000"/>
    </radialGradient>
    <radialGradient cx="0" cy="0" gradientTransform="matrix(0.1298, 0.0, 0.0, 0.1298, -84.55, -300.0)" gradientUnits="userSpaceOnUse" id="gradient2" r="819.2" spreadMethod="pad">
      <stop offset="0.0" stop-color="#646464"/>
      <stop offset="1.0" stop-color="#010101"/>
    </radialGradient>
    <radialGradient cx="0" cy="0" gradientTransform="matrix(0.0602, 0.0, 0.0, 0.0602, -62.4, -287.95)" gradientUnits="userSpaceOnUse" id="gradient3" r="819.2" spreadMethod="pad">
      <stop offset="0.0" stop-color="#5b5b5b"/>
      <stop offset="1.0" stop-color="#010101"/>
    </radialGradient>
    <radialGradient cx="0" cy="0" gradientTransform="matrix(0.2758, 0.0, 0.0, 0.2758, -82.6, -287.25)" gradientUnits="userSpaceOnUse" id="gradient4" r="819.2" spreadMethod="pad">
      <stop offset="0.0" stop-color="#363636"/>
      <stop offset="1.0" stop-color="#000000"/>
    </radialGradient>
    <radialGradient cx="0" cy="0" gradientTransform="matrix(0.2101, 0.0, 0.0, 0.2101, -73.0, -251.55)" gradientUnits="userSpaceOnUse" id="gradient5" r="819.2" spreadMethod="pad">
      <stop offset="0.0" stop-color="#808080"/>
      <stop offset="1.0" stop-color="#070707"/>
    </radialGradient>
    <radialGradient cx="0" cy="0" gradientTransform="matrix(0.2348, 0.0, 0.0, 0.2348, -36.6, -273.85)" gradientUnits="userSpaceOnUse" id="gradient6" r="819.2" spreadMethod="pad">
      <stop offset="0.0" stop-color="#4a4a4a"/>
      <stop offset="1.0" stop-color="#000000"/>
    </radialGradient>
    <radialGradient cx="0" cy="0" gradientTransform="matrix(0.1043, 0.0, 0.0, 0.1043, -380.45, -196.2)" gradientUnits="userSpaceOnUse" id="gradient7" r="819.2" spreadMethod="pad">
      <stop offset="0.0" stop-color="#010101"/>
      <stop offset="1.0" stop-color="#000000"/>
    </radialGradient>
    <radialGradient cx="0" cy="0" gradientTransform="matrix(0.1861, 0.0, 0.0, 0.1861, -400.0, -300.0)" gradientUnits="userSpaceOnUse" id="gradient8" r="819.2" spreadMethod="pad">
      <stop offset="0.0" stop-color="#3c3c3c"/>
      <stop offset="1.0" stop-color="#030303"/>
    </radialGradient>
    <radialGradient cx="0" cy="0" gradientTransform="matrix(0.0355, 0.0, 0.0, 0.0355, -390.0, -127.0)" gradientUnits="userSpaceOnUse" id="gradient9" r="819.2" spreadMethod="pad">
      <stop offset="0.0" stop-color="#010101"/>
      <stop offset="1.0" stop-color="#000000"/>
    </radialGradient>
    <radialGradient cx="0" cy="0" gradientTransform="matrix(0.1081, 0.0, 0.0, 0.1081, -383.75, -127.1)" gradientUnits="userSpaceOnUse" id="gradient10" r="819.2" spreadMethod="pad">
      <stop offset="0.0" stop-color="#181818"/>
      <stop offset="1.0" stop-color="#000000"/>
    </radialGradient>
    <radialGradient cx="0" cy="0" gradientTransform="matrix(0.101, 0.0, 0.0, 0.101, -400.0, -79.8)" gradientUnits="userSpaceOnUse" id="gradient11" r="819.2" spreadMethod="pad">
      <stop offset="0.0" stop-color="#454545"/>
      <stop offset="1.0" stop-color="#0d0d0d"/>
    </radialGradient>
    <radialGradient cx="0" cy="0" gradientTransform="matrix(0.1336, 0.0, 0.0, 0.1336, -374.45, -42.4)" gradientUnits="userSpaceOnUse" id="gradient12" r="819.2" spreadMethod="pad">
      <stop offset="0.0" stop-color="#111111"/>
      <stop offset="1.0" stop-color="#000000"/>
    </radialGradient>
    <radialGradient cx="0" cy="0" gradientTransform="matrix(0.0827, 0.0, 0.0, 0.0827, -370.25, -129.1)" gradientUnits="userSpaceOnUse" id="gradient13" r="819.2" spreadMethod="pad">
      <stop offset="0.0" stop-color="#000000"/>
      <stop offset="1.0" stop-color="#000000"/>
    </radialGradient>
    <radialGradient cx="0" cy="0" gradientTransform="matrix(0.129, 0.0, 0.0, 0.129, -137.6, -243.1)" gradientUnits="userSpaceOnUse" id="gradient14" r="819.2" spreadMethod="pad">
      <stop offset="0.0" stop-color="#000000"/>
      <stop offset="1.0" stop-color="#000000"/>
    </radialGradient>
    <radialGradient cx="0" cy="0" gradientTransform="matrix(0.2064, 0.0, 0.0, 0.2064, -88.0, -251.45)" gradientUnits="userSpaceOnUse" id="gradient15" r="819.2" spreadMethod="pad">
      <stop offset="0.0" stop-color="#1b1b1b"/>
      <stop offset="1.0" stop-color="#000000"/>
    </radialGradient>
    <radialGradient cx="0" cy="0" gradientTransform="matrix(0.0801, 0.0, 0.0, 0.0801, -71.4, -96.5)" gradientUnits="userSpaceOnUse" id="gradient16" r="819.2" spreadMethod="pad">
      <stop offset="0.0" stop-color="#939393"/>
      <stop offset="1.0" stop-color="#3b3b3b"/>
    </radialGradient>
    <radialGradient cx="0" cy="0" gradientTransform="matrix(0.0905, 0.0, 0.0, 0.0905, -325.9, -128.85)" gradientUnits="userSpaceOnUse" id="gradient17" r="819.2" spreadMethod="pad">
      <stop offset="0.0" stop-color="#000000"/>
      <stop offset="1.0" stop-color="#000000"/>
    </radialGradient>
    <radialGradient cx="0" cy="0" gradientTransform="matrix(0.0177, 0.0, 0.0, 0.0177, -385.55, -128.15)" gradientUnits="userSpaceOnUse" id="gradient18" r="819.2" spreadMethod="pad">
      <stop offset="0.0" stop-color="#181818"/>
      <stop offset="1.0" stop-color="#050505"/>
    </radialGradient>
    <radialGradient cx="0" cy="0" gradientTransform="matrix(0.1127, 0.0, 0.0, 0.1127, -68.15, -33.1)" gradientUnits="userSpaceOnUse" id="gradient19" r="819.2" spreadMethod="pad">
      <stop offset="0.0" stop-color="#bdbdbd"/>
      <stop offset="1.0" stop-color="#383838"/>
    </radialGradient>
    <radialGradient cx="0" cy="0" gradientTransform="matrix(0.0545, 0.0, 0.0, 0.0545, -98.0, -73.8)" gradientUnits="userSpaceOnUse" id="gradient20" r="819.2" spreadMethod="pad">
      <stop offset="0.0" stop-color="#7c7c7c"/>
      <stop offset="1.0" stop-color="#000000"/>
    </radialGradient>
    <radialGradient cx="0" cy="0" gradientTransform="matrix(0.0494, 0.0, 0.0, 0.0494, -89.0, -59.65)" gradientUnits="userSpaceOnUse" id="gradient21" r="819.2" spreadMethod="pad">
      <stop offset="0.0" stop-color="#4d4d4d"/>
      <stop offset="1.0" stop-color="#020202"/>
    </radialGradient>
    <radialGradient cx="0" cy="0" gradientTransform="matrix(0.0366, 0.0, 0.0, 0.0366, -77.5, -46.1)" gradientUnits="userSpaceOnUse" id="gradient22" r="819.2" spreadMethod="pad">
      <stop offset="0.0" stop-color="#000000"/>
      <stop offset="1.0" stop-color="#000000"/>
    </radialGradient>
    <radialGradient cx="0" cy="0" gradientTransform="matrix(0.0939, 0.0, 0.0, 0.0939, -55.5, -58.35)" gradientUnits="userSpaceOnUse" id="gradient23" r="819.2" spreadMethod="pad">
      <stop offset="0.0" stop-color="#0d0d0d"/>
      <stop offset="1.0" stop-color="#000000"/>
    </radialGradient>
    <radialGradient cx="0" cy="0" gradientTransform="matrix(0.0612, 0.0, 0.0, 0.0612, -94.0, -34.8)" gradientUnits="userSpaceOnUse" id="gradient24" r="819.2" spreadMethod="pad">
      <stop offset="0.0" stop-color="#717171"/>
      <stop offset="1.0" stop-color="#707070"/>
    </radialGradient>
    <radialGradient cx="0" cy="0" gradientTransform="matrix(0.0381, 0.0, 0.0, 0.0381, -113.95, -30.4)" gradientUnits="userSpaceOnUse" id="gradient25" r="819.2" spreadMethod="pad">
      <stop offset="0.0" stop-color="#121212"/>
      <stop offset="1.0" stop-color="#121212"/>
    </radialGradient>
    <radialGradient cx="0" cy="0" gradientTransform="matrix(0.0289, 0.0, 0.0, 0.0289, -111.95, -15.1)" gradientUnits="userSpaceOnUse" id="gradient26" r="819.2" spreadMethod="pad">
      <stop offset="0.0" stop-color="#676767"/>
      <stop offset="1.0" stop-color="#242424"/>
    </radialGradient>
    <radialGradient cx="0" cy="0" gradientTransform="matrix(0.0218, 0.0, 0.0, 0.0218, -110.55, -18.05)" gradientUnits="userSpaceOnUse" id="gradient27" r="819.2" spreadMethod="pad">
      <stop offset="0.0" stop-color="#b3b3b3"/>
      <stop offset="1.0" stop-color="#383838"/>
    </radialGradient>
    <radialGradient cx="0" cy="0" gradientTransform="matrix(0.0446, 0.0, 0.0, 0.0446, -85.25, -28.2)" gradientUnits="userSpaceOnUse" id="gradient28" r="819.2" spreadMethod="pad">
      <stop offset="0.0" stop-color="#121212"/>
      <stop offset="1.0" stop-color="#121212"/>
    </radialGradient>
    <radialGradient cx="0" cy="0" gradientTransform="matrix(0.0456, 0.0, 0.0, 0.0456, -81.9, -25.65)" gradientUnits="userSpaceOnUse" id="gradient29" r="819.2" spreadMethod="pad">
      <stop offset="0.0" stop-color="#121212"/>
      <stop offset="1.0" stop-color="#121212"/>
    </radialGradient>
    <radialGradient cx="0" cy="0" gradientTransform="matrix(0.0961, 0.0, 0.0, 0.0961, -43.05, -1.0)" gradientUnits="userSpaceOnUse" id="gradient30" r="819.2" spreadMethod="pad">
      <stop offset="0.0" stop-color="#121212"/>
      <stop offset="1.0" stop-color="#121212"/>
    </radialGradient>
    <radialGradient cx="0" cy="0" gradientTransform="matrix(0.0218, 0.0, 0.0, 0.0218, -97.2, -22.05)" gradientUnits="userSpaceOnUse" id="gradient31" r="819.2" spreadMethod="pad">
      <stop offset="0.0" stop-color="#070707"/>
      <stop offset="1.0" stop-color="#000000"/>
    </radialGradient>
    <radialGradient cx="0" cy="0" gradientTransform="matrix(0.0716, 0.0, 0.0, 0.0716, -88.15, -30.8)" gradientUnits="userSpaceOnUse" id="gradient32" r="819.2" spreadMethod="pad">
      <stop offset="0.0" stop-color="#8f8f8f"/>
      <stop offset="1.0" stop-color="#8e8e8e"/>
    </radialGradient>
    <radialGradient cx="0" cy="0" gradientTransform="matrix(0.0331, 0.0, 0.0, 0.0331, -77.7, -23.35)" gradientUnits="userSpaceOnUse" id="gradient33" r="819.2" spreadMethod="pad">
      <stop offset="0.0" stop-color="#212121"/>
      <stop offset="1.0" stop-color="#212121"/>
    </radialGradient>
    <radialGradient cx="0" cy="0" gradientTransform="matrix(0.0355, 0.0, 0.0, 0.0355, -5.95, -28.6)" gradientUnits="userSpaceOnUse" id="gradient34" r="819.2" spreadMethod="pad">
      <stop offset="0.0" stop-color="#8d8d8d"/>
      <stop offset="1.0" stop-color="#545454"/>
    </radialGradient>
  </defs>
</svg>
