<?xml version="1.0" encoding="UTF-8" standalone="no"?>
<svg xmlns:xlink="http://www.w3.org/1999/xlink" height="299.1px" width="372.85px" xmlns="http://www.w3.org/2000/svg">
  <g transform="matrix(1.0, 0.0, 0.0, 1.0, 400.0, 300.0)">
    <path d="M-142.5 -300.0 L-100.15 -300.0 -111.5 -176.65 -134.0 -175.75 -150.65 -174.5 -149.4 -204.0 -153.15 -232.25 -153.5 -233.0 -156.15 -262.5 -149.75 -289.25 -148.9 -290.0 -142.5 -300.0" fill="url(#gradient0)" fill-rule="evenodd" stroke="none"/>
    <path d="M-100.15 -300.0 L-76.4 -300.0 -87.4 -256.0 -95.15 -176.65 -103.9 -176.9 -111.5 -176.65 -100.15 -300.0" fill="url(#gradient1)" fill-rule="evenodd" stroke="none"/>
    <path d="M-171.15 -165.4 L-171.5 -171.75 -169.9 -172.25 -170.65 -165.4 -171.15 -165.4 M-167.5 -172.9 L-158.5 -173.9 -150.65 -174.5 -134.0 -175.75 -111.5 -176.65 -103.9 -176.9 -95.15 -176.65 -94.5 -176.65 -93.75 -175.65 -93.15 -161.5 -104.9 -161.65 -121.9 -160.65 -123.0 -160.65 -124.05 -160.55 -125.1 -160.5 -133.05 -160.0 -157.65 -158.65 -163.4 -158.25 -163.75 -158.15 -164.9 -158.15 -165.25 -158.0 -166.4 -158.0 -166.75 -157.9 -167.5 -157.9 -168.4 -172.65 -167.5 -172.9" fill="url(#gradient2)" fill-rule="evenodd" stroke="none"/>
    <path d="M-93.15 -161.5 L-102.5 -160.65 -102.4 -161.25 -121.9 -160.65 -104.9 -161.65 -93.15 -161.5 M-133.05 -160.0 L-156.9 -158.25 -157.0 -158.65 -157.65 -158.65 -133.05 -160.0" fill="url(#gradient3)" fill-rule="evenodd" stroke="none"/>
    <path d="M-112.9 -124.15 L-111.15 -121.65 -107.65 -114.5 -101.75 -110.0 Q-99.0 -105.25 -99.4 -104.4 L-104.9 -107.4 -106.5 -108.9 -122.25 -120.0 -123.5 -119.9 -125.15 -121.5 -133.25 -122.9 -152.75 -122.0 -164.65 -121.9 -165.4 -121.65 -164.15 -119.5 -149.5 -118.9 -133.65 -120.0 -129.5 -119.65 -129.25 -119.5 -136.65 -119.15 -144.65 -118.75 -162.9 -118.65 -169.9 -119.0 -169.75 -119.9 -169.65 -119.9 -167.15 -119.75 -166.75 -121.9 -167.15 -121.9 -168.0 -122.0 -168.15 -122.0 -170.15 -122.25 -170.15 -123.4 -172.4 -164.9 -171.15 -165.4 -170.65 -165.4 -169.9 -172.25 -169.5 -176.5 Q-168.9 -176.5 -167.5 -172.9 L-168.4 -172.65 -167.5 -157.9 -166.75 -157.9 -166.4 -158.0 -165.25 -158.0 -164.9 -158.15 -163.75 -158.15 -163.4 -158.25 -157.65 -158.65 -157.0 -158.65 -156.9 -158.25 -156.25 -156.5 -155.9 -155.65 -144.65 -148.15 -131.5 -140.4 -119.5 -133.0 -112.9 -124.15" fill="url(#gradient4)" fill-rule="evenodd" stroke="none"/>
    <path d="M-158.5 -173.9 L-157.25 -204.65 -160.9 -230.65 -163.9 -261.65 -160.9 -285.0 -153.15 -300.0 -142.5 -300.0 -148.9 -290.0 -149.75 -289.25 -156.15 -262.5 -153.5 -233.0 -153.15 -232.25 -149.4 -204.0 -150.65 -174.5 -158.5 -173.9" fill="url(#gradient5)" fill-rule="evenodd" stroke="none"/>
    <path d="M-377.9 -300.0 L-375.25 -273.4 -367.75 -230.0 -400.0 -230.4 -400.0 -300.0 -377.9 -300.0" fill="url(#gradient6)" fill-rule="evenodd" stroke="none"/>
    <path d="M-377.9 -300.0 L-316.0 -300.0 -315.9 -265.65 Q-325.25 -272.0 -338.25 -272.5 L-375.25 -273.4 -377.9 -300.0" fill="url(#gradient7)" fill-rule="evenodd" stroke="none"/>
    <path d="M-400.0 -208.15 L-400.0 -230.4 -367.75 -230.0 -366.75 -210.25 -386.4 -207.9 -392.0 -208.0 -394.4 -208.25 -395.25 -208.65 -395.75 -208.25 -397.75 -208.15 -400.0 -208.15" fill="url(#gradient8)" fill-rule="evenodd" stroke="none"/>
    <path d="M-400.0 -9.75 L-400.0 -208.15 -397.75 -208.15 -395.4 -205.5 -392.0 -208.0 -386.4 -207.9 -366.75 -210.25 -369.5 -187.25 -364.75 -10.75 -387.0 -9.5 -400.0 -9.75" fill="url(#gradient9)" fill-rule="evenodd" stroke="none"/>
    <path d="M-364.25 -0.9 L-399.9 -0.9 -400.0 -9.75 -387.0 -9.5 -364.75 -10.75 -364.25 -0.9" fill="url(#gradient10)" fill-rule="evenodd" stroke="none"/>
    <path d="M-327.75 -0.9 L-364.25 -0.9 -364.75 -10.75 -335.0 -19.0 -326.65 -23.75 -327.4 -7.0 -327.75 -0.9" fill="url(#gradient11)" fill-rule="evenodd" stroke="none"/>
    <path d="M-321.15 -211.5 L-327.0 -190.5 -324.75 -139.25 -323.15 -34.4 -326.65 -23.75 -335.0 -19.0 -364.75 -10.75 -369.5 -187.25 -366.75 -210.25 -350.9 -211.25 -321.15 -211.5 M-341.9 -208.15 L-344.0 -207.9 -336.9 -201.0 -334.0 -206.5 -333.65 -206.65 -331.15 -198.75 -330.9 -198.65 -330.75 -200.25 -331.0 -208.4 -341.9 -208.15" fill="url(#gradient12)" fill-rule="evenodd" stroke="none"/>
    <path d="M-323.15 -34.4 L-327.4 -7.0 -326.65 -23.75 -323.15 -34.4" fill="url(#gradient13)" fill-rule="evenodd" stroke="none"/>
    <path d="M-315.15 -230.15 L-321.15 -211.5 -350.9 -211.25 -366.75 -210.25 -367.75 -230.0 -343.4 -233.0 -331.5 -232.4 -315.15 -230.15" fill="url(#gradient14)" fill-rule="evenodd" stroke="none"/>
    <path d="M-375.25 -273.4 L-338.25 -272.5 Q-325.25 -272.0 -315.9 -265.65 L-315.15 -230.15 -331.5 -232.4 -343.4 -233.0 -367.75 -230.0 -375.25 -273.4" fill="url(#gradient15)" fill-rule="evenodd" stroke="none"/>
    <path d="M-394.4 -208.25 L-395.75 -208.25 -395.25 -208.65 -394.4 -208.25" fill="url(#gradient16)" fill-rule="evenodd" stroke="none"/>
    <path d="M-327.4 -7.0 L-327.4 -0.9 -327.75 -0.9 -327.4 -7.0 M-394.4 -208.25 L-392.0 -208.0 -395.4 -205.5 -397.75 -208.15 -395.75 -208.25 -394.4 -208.25 M-341.9 -208.15 L-331.0 -208.4 -330.75 -200.25 -330.9 -198.65 -331.15 -198.75 -333.65 -206.65 -334.0 -206.5 -336.9 -201.0 -344.0 -207.9 -341.9 -208.15" fill="url(#gradient17)" fill-rule="evenodd" stroke="none"/>
    <path d="M-102.5 -160.65 L-103.0 -155.25 Q-125.4 -150.25 -156.25 -156.5 L-156.9 -158.25 -133.05 -160.0 -125.1 -160.5 -124.05 -160.55 -123.0 -160.65 -121.9 -160.65 -102.4 -161.25 -102.5 -160.65 M-124.05 -160.55 L-121.9 -160.65 -124.05 -160.55" fill="url(#gradient18)" fill-rule="evenodd" stroke="none"/>
    <path d="M-103.0 -155.25 L-101.9 -149.5 -102.25 -149.65 -102.75 -148.4 Q-102.4 -147.9 -103.75 -144.25 L-105.25 -140.9 -107.0 -139.5 Q-106.75 -142.15 -110.65 -140.9 L-115.65 -138.5 -118.65 -141.0 -121.9 -140.25 -126.9 -138.0 -130.0 -140.75 -131.5 -140.4 -144.65 -148.15 -155.9 -155.65 -156.25 -156.5 Q-125.4 -150.25 -103.0 -155.25" fill="url(#gradient19)" fill-rule="evenodd" stroke="none"/>
    <path d="M-101.25 -148.9 L-101.5 -148.65 -101.15 -143.0 -104.25 -135.5 -110.25 -126.75 -112.0 -125.25 -108.4 -131.75 -106.5 -136.15 -105.25 -140.9 -103.75 -144.25 Q-102.4 -147.9 -102.75 -148.4 L-102.25 -149.65 -101.9 -149.5 -101.25 -148.9" fill="url(#gradient20)" fill-rule="evenodd" stroke="none"/>
    <path d="M-112.0 -125.25 L-112.9 -124.15 -119.5 -133.0 -131.5 -140.4 -130.0 -140.75 -126.9 -138.0 -121.9 -140.25 -118.65 -141.0 -115.65 -138.5 -110.65 -140.9 Q-106.75 -142.15 -107.0 -139.5 L-105.25 -140.9 -106.5 -136.15 -108.4 -131.75 -112.0 -125.25 M-143.15 -110.15 L-145.9 -111.4 -144.4 -115.0 -144.65 -118.75 -136.65 -119.15 -135.0 -117.75 -132.4 -115.65 -127.9 -112.65 -125.25 -110.0 -125.15 -108.75 -125.65 -108.25 -127.4 -108.0 -131.9 -107.75 -139.25 -108.65 -142.75 -110.0 -142.9 -110.0 -143.15 -110.15" fill="url(#gradient21)" fill-rule="evenodd" stroke="none"/>
    <path d="M-68.4 -120.25 L-61.0 -114.0 -60.4 -109.15 -62.5 -103.5 -69.4 -94.0 -72.5 -90.75 -77.0 -87.65 -102.65 -105.0 -99.4 -104.4 Q-99.0 -105.25 -101.75 -110.0 L-107.65 -114.5 -111.15 -121.65 -112.9 -124.15 -112.0 -125.25 -110.25 -126.75 -104.25 -135.5 -101.15 -143.0 -101.5 -148.65 -101.25 -148.9 -68.4 -120.25 M-67.9 -81.4 Q-55.0 -90.0 -52.65 -106.65 L-42.15 -97.65 -38.5 -94.4 -37.9 -90.9 -39.4 -86.65 -40.65 -85.0 -42.0 -84.15 -43.4 -82.0 -48.5 -80.5 -50.0 -79.0 Q-56.75 -78.15 -57.15 -76.9 L-60.65 -76.5 -67.9 -81.4 M-127.4 -108.0 L-125.25 -106.5 -131.0 -107.25 -131.9 -107.75 -127.4 -108.0" fill="url(#gradient22)" fill-rule="evenodd" stroke="none"/>
    <path d="M-180.65 -122.4 L-170.15 -123.4 -170.15 -122.25 -168.15 -122.0 -180.65 -122.4 M-149.9 -121.25 L-164.65 -121.9 -152.75 -122.0 -133.25 -122.9 -149.9 -121.25" fill="url(#gradient23)" fill-rule="evenodd" stroke="none"/>
    <path d="M-169.75 -119.9 L-180.25 -120.25 -180.65 -122.4 -168.15 -122.0 -168.0 -122.0 -167.15 -121.9 -166.75 -121.9 -167.15 -119.75 -169.65 -119.9 -169.75 -119.9 M-149.5 -118.9 L-164.15 -119.5 -165.4 -121.65 -164.65 -121.9 -149.9 -121.25 -149.5 -118.9" fill="url(#gradient24)" fill-rule="evenodd" stroke="none"/>
    <path d="M-145.9 -111.4 L-148.5 -105.5 -153.9 -105.0 -154.75 -104.65 -162.9 -118.65 -144.65 -118.75 -144.4 -115.0 -145.9 -111.4" fill="url(#gradient25)" fill-rule="evenodd" stroke="none"/>
    <path d="M-125.65 -117.4 L-135.0 -117.75 -136.65 -119.15 -129.25 -119.5 -127.9 -119.5 -125.65 -117.4" fill="url(#gradient26)" fill-rule="evenodd" stroke="none"/>
    <path d="M-77.0 -87.65 Q-68.65 -83.0 -69.15 -80.75 L-67.9 -81.4 -60.65 -76.5 -56.65 -73.75 -56.15 -73.25 -55.0 -73.15 -54.75 -73.0 -52.15 -72.65 -31.75 -74.9 -31.15 -73.25 -31.75 -71.9 -33.25 -72.15 -33.65 -72.15 -34.4 -72.25 -35.0 -72.4 -52.15 -70.0 -52.65 -70.0 -52.9 -70.15 -53.15 -70.15 -54.75 -70.5 -57.4 -71.4 -122.75 -115.15 -125.65 -117.4 -127.9 -119.5 -129.25 -119.5 -129.5 -119.65 -133.65 -120.0 -149.5 -118.9 -149.9 -121.25 -133.25 -122.9 -125.15 -121.5 -123.5 -119.9 Q-123.5 -118.75 -117.15 -114.65 L-102.65 -105.0 -77.0 -87.65" fill="url(#gradient27)" fill-rule="evenodd" stroke="none"/>
    <path d="M-99.4 -104.4 L-102.65 -105.0 -117.15 -114.65 Q-123.5 -118.75 -123.5 -119.9 L-122.25 -120.0 -106.5 -108.9 -104.9 -107.4 -99.4 -104.4" fill="url(#gradient28)" fill-rule="evenodd" stroke="none"/>
    <path d="M-122.75 -115.15 L-132.4 -115.65 -135.0 -117.75 -125.65 -117.4 -122.75 -115.15" fill="url(#gradient29)" fill-rule="evenodd" stroke="none"/>
    <path d="M-75.75 -74.15 L-88.9 -81.0 -86.75 -81.9 Q-92.5 -83.4 -92.75 -84.65 L-91.9 -85.25 -93.9 -85.5 -93.4 -84.5 -91.65 -82.5 -142.9 -110.0 -142.75 -110.0 -139.25 -108.65 -131.9 -107.75 -131.0 -107.25 -125.25 -106.5 -127.4 -108.0 -125.65 -108.25 -125.15 -108.75 -125.25 -110.0 -127.9 -112.65 -132.4 -115.65 -122.75 -115.15 -57.4 -71.4 -75.75 -74.15 M-73.25 -79.25 L-74.15 -81.65 -77.5 -83.0 -78.0 -83.0 -78.0 -82.25 -73.25 -78.5 -71.9 -79.4 -73.25 -79.25 M-80.65 -80.15 L-78.0 -79.4 -75.75 -79.4 -80.65 -80.15" fill="url(#gradient30)" fill-rule="evenodd" stroke="none"/>
    <path d="M-142.9 -110.0 L-143.0 -110.0 -143.15 -110.15 -142.9 -110.0" fill="url(#gradient31)" fill-rule="evenodd" stroke="none"/>
    <path d="M-88.9 -81.0 L-90.15 -81.0 -91.65 -82.5 -93.4 -84.5 -92.75 -84.65 Q-92.5 -83.4 -86.75 -81.9 L-88.9 -81.0 M-73.25 -79.25 L-71.9 -79.4 -73.25 -78.5 -73.25 -79.25 M-80.65 -80.15 L-75.75 -79.4 -78.0 -79.4 -80.65 -80.15" fill="url(#gradient32)" fill-rule="evenodd" stroke="none"/>
    <path d="M-77.0 -87.65 L-72.5 -90.75 -69.4 -94.0 -62.5 -103.5 -60.4 -109.15 -61.0 -114.0 -68.4 -120.25 Q-50.75 -119.15 -52.65 -106.65 -55.0 -90.0 -67.9 -81.4 L-69.15 -80.75 Q-68.65 -83.0 -77.0 -87.65 M-73.25 -78.5 L-78.0 -82.25 -78.0 -83.0 -77.5 -83.0 -74.15 -81.65 -73.25 -79.25 -73.25 -78.5 M-92.75 -84.65 L-93.4 -84.5 -93.9 -85.5 -91.9 -85.25 -92.75 -84.65" fill="url(#gradient33)" fill-rule="evenodd" stroke="none"/>
    <path d="M-148.5 -105.5 L-146.15 -66.0 Q-147.25 -64.9 -152.9 -66.4 L-152.65 -68.4 -154.75 -104.65 -153.9 -105.0 -148.5 -105.5" fill="url(#gradient34)" fill-rule="evenodd" stroke="none"/>
    <path d="M-146.15 -66.0 L-145.25 -65.4 -145.5 -64.9 -150.9 -64.25 -154.4 -64.65 -152.9 -66.4 Q-147.25 -64.9 -146.15 -66.0" fill="url(#gradient35)" fill-rule="evenodd" stroke="none"/>
    <path d="M-42.15 -97.65 Q-29.9 -96.75 -27.75 -89.0 L-27.4 -87.15 -27.75 -84.25 -30.4 -79.25 -31.9 -77.65 -34.9 -75.4 -36.0 -74.9 -41.5 -74.15 -56.65 -73.75 -60.65 -76.5 -57.15 -76.9 Q-56.75 -78.15 -50.0 -79.0 L-48.5 -80.5 -43.4 -82.0 -42.0 -84.15 -40.65 -85.0 -39.4 -86.65 -37.9 -90.9 -38.5 -94.4 -42.15 -97.65" fill="url(#gradient36)" fill-rule="evenodd" stroke="none"/>
    <path d="M-34.9 -75.4 L-31.75 -74.9 -52.15 -72.65 -54.75 -73.0 -55.0 -73.15 -56.15 -73.25 -56.65 -73.75 -41.5 -74.15 -36.0 -74.9 -34.9 -75.4" fill="url(#gradient37)" fill-rule="evenodd" stroke="none"/>
    <path d="M-57.75 -70.9 L-57.9 -70.9 -71.25 -73.0 -71.65 -73.0 -71.9 -73.15 -75.75 -74.15 -57.4 -71.4 -54.75 -70.5 -57.75 -70.9" fill="url(#gradient38)" fill-rule="evenodd" stroke="none"/>
    <path d="M-53.15 -70.15 L-57.75 -70.9 -54.75 -70.5 -53.15 -70.15" fill="url(#gradient39)" fill-rule="evenodd" stroke="none"/>
    <path d="M-323.4 -56.25 L-325.4 -55.9 -325.5 -55.75 -400.0 -40.25 -399.9 -41.9 -394.5 -54.25 -394.5 -54.65 -392.5 -58.9 -392.4 -59.9 -388.5 -68.5 -388.65 -68.9 -377.9 -94.15 -379.4 -115.0 -379.65 -115.65 -382.15 -150.15 -382.25 -150.65 -386.65 -206.65 -386.9 -206.9 -386.65 -207.5 -386.65 -207.9 -386.9 -209.65 -388.0 -226.15 -388.15 -226.5 -390.5 -259.5 -390.9 -260.25 -393.5 -288.9 -393.4 -289.75 -394.5 -300.0 -316.0 -300.0 -315.9 -265.65 -315.15 -230.15 -321.25 -211.75 -321.15 -211.5 -327.0 -190.5 -325.25 -146.65 -325.15 -145.9 -324.4 -116.15 -324.5 -115.9 -324.65 -113.9 -323.75 -60.15 -323.4 -56.25" fill="#a90000" fill-opacity="0.9098039" fill-rule="evenodd" stroke="none"/>
    <path d="M-316.0 -300.0 L-304.9 -300.0 -307.25 -250.25 -304.4 -193.15 -298.5 -141.75 -292.75 -120.25 -324.4 -116.15 -325.15 -145.9 -325.25 -146.65 -327.0 -190.5 -321.15 -211.5 -321.25 -211.75 -315.15 -230.15 -315.9 -265.65 -316.0 -300.0" fill="#ba0000" fill-rule="evenodd" stroke="none"/>
    <path d="M-255.15 -187.75 L-250.65 -127.75 -248.65 -72.65 -279.5 -82.9 -293.25 -78.0 -304.15 -60.25 -323.4 -56.25 -323.75 -60.15 -324.65 -113.9 -324.5 -115.9 -324.4 -116.15 -292.75 -120.25 -298.5 -141.75 -304.4 -193.15 -307.25 -250.25 -304.9 -300.0 -267.25 -300.0 -264.75 -272.65 -260.5 -241.25 -263.5 -202.75 Q-275.35 -193.1 -287.25 -183.5 L-286.65 -183.4 -255.15 -187.75" fill="#ba0000" fill-opacity="0.9098039" fill-rule="evenodd" stroke="none"/>
    <path d="M-267.25 -300.0 L-259.65 -300.0 -257.4 -257.65 -255.15 -187.75 -286.65 -183.4 -287.25 -183.5 Q-275.35 -193.1 -263.5 -202.75 L-260.5 -241.25 -264.75 -272.65 -267.25 -300.0" fill="#bf0000" fill-rule="evenodd" stroke="none"/>
    <path d="M-45.0 -147.0 L-93.25 -166.25 -93.65 -167.0 -93.5 -168.9 -93.75 -171.15 -93.75 -172.5 -94.0 -174.5 -93.9 -176.0 -94.65 -176.5 -95.15 -176.65 -87.65 -255.5 -76.4 -300.0 -52.15 -300.0 -45.75 -198.0 -45.0 -147.0 M-259.65 -300.0 L-153.15 -300.0 -159.65 -287.75 -159.75 -287.5 -159.9 -287.25 -160.65 -285.75 -163.9 -261.9 -163.75 -261.15 -161.15 -232.9 -161.0 -232.15 -157.25 -204.0 -158.0 -186.4 -193.15 -196.5 -255.15 -187.75 -257.4 -257.65 -259.65 -300.0" fill="#f20000" fill-opacity="0.9098039" fill-rule="evenodd" stroke="none"/>
    <path d="M-52.15 -300.0 L-29.0 -300.0 -27.4 -273.15 -27.65 -191.25 -27.15 -140.0 -45.0 -147.0 -45.75 -198.0 -52.15 -300.0" fill="#b10000" fill-rule="evenodd" stroke="none"/>
    <path d="M-27.15 -140.0 L-30.4 -112.15 -31.9 -94.75 -34.9 -96.0 -35.0 -96.0 -37.65 -97.15 -40.15 -97.25 -42.15 -97.65 -48.25 -102.75 -48.4 -103.0 -44.75 -131.4 -45.0 -147.0 -27.15 -140.0" fill="#ab0000" fill-opacity="0.9098039" fill-rule="evenodd" stroke="none"/>
    <path d="M-31.9 -94.75 L-31.75 -94.25 -31.75 -94.0 -32.0 -93.75 -31.9 -93.25 -31.9 -91.0 -32.25 -90.25 -32.4 -90.15 -32.25 -90.0 -32.15 -89.65 -32.4 -87.0 -32.75 -86.5 -34.4 -86.15 -34.65 -85.5 -35.15 -85.65 -40.65 -83.25 -40.9 -83.0 -41.25 -82.75 -41.75 -82.65 -42.5 -82.0 -48.5 -79.65 -48.65 -79.4 -50.5 -78.65 -50.75 -78.4 -51.25 -78.5 -51.25 -78.75 -51.15 -79.65 -51.25 -79.9 -50.9 -81.9 -51.0 -82.4 -49.75 -90.75 -49.9 -91.4 -49.4 -93.75 -49.5 -94.0 -48.9 -97.9 -49.0 -98.4 -48.4 -101.9 -48.5 -102.15 -48.25 -102.75 -42.15 -97.65 -40.15 -97.25 -37.65 -97.15 -35.0 -96.0 -34.9 -96.0 -31.9 -94.75" fill="#9b0000" fill-opacity="0.9098039" fill-rule="evenodd" stroke="none"/>
  </g>
  <defs>
    <radialGradient cx="0" cy="0" gradientTransform="matrix(0.1703, 0.0, 0.0, 0.1703, -116.8, -300.0)" gradientUnits="userSpaceOnUse" id="gradient0" r="819.2" spreadMethod="pad">
      <stop offset="0.0" stop-color="#707070"/>
      <stop offset="1.0" stop-color="#070707"/>
    </radialGradient>
    <radialGradient cx="0" cy="0" gradientTransform="matrix(0.1133, 0.0, 0.0, 0.1133, -104.0, -258.45)" gradientUnits="userSpaceOnUse" id="gradient1" r="819.2" spreadMethod="pad">
      <stop offset="0.0" stop-color="#282828"/>
      <stop offset="1.0" stop-color="#000000"/>
    </radialGradient>
    <radialGradient cx="0" cy="0" gradientTransform="matrix(0.0737, 0.0, 0.0, 0.0737, -113.5, -176.75)" gradientUnits="userSpaceOnUse" id="gradient2" r="819.2" spreadMethod="pad">
      <stop offset="0.0" stop-color="#939393"/>
      <stop offset="1.0" stop-color="#3b3b3b"/>
    </radialGradient>
    <radialGradient cx="0" cy="0" gradientTransform="matrix(0.0948, 0.0, 0.0, 0.0948, -93.1, -161.6)" gradientUnits="userSpaceOnUse" id="gradient3" r="819.2" spreadMethod="pad">
      <stop offset="0.0" stop-color="#9f9f9f"/>
      <stop offset="1.0" stop-color="#9c9c9c"/>
    </radialGradient>
    <radialGradient cx="0" cy="0" gradientTransform="matrix(0.0977, 0.0, 0.0, 0.0977, -111.25, -121.75)" gradientUnits="userSpaceOnUse" id="gradient4" r="819.2" spreadMethod="pad">
      <stop offset="0.0" stop-color="#bdbdbd"/>
      <stop offset="1.0" stop-color="#383838"/>
    </radialGradient>
    <radialGradient cx="0" cy="0" gradientTransform="matrix(0.1196, 0.0, 0.0, 0.1196, -163.8, -261.95)" gradientUnits="userSpaceOnUse" id="gradient5" r="819.2" spreadMethod="pad">
      <stop offset="0.0" stop-color="#000000"/>
      <stop offset="1.0" stop-color="#000000"/>
    </radialGradient>
    <radialGradient cx="0" cy="0" gradientTransform="matrix(0.094, 0.0, 0.0, 0.094, -400.0, -300.0)" gradientUnits="userSpaceOnUse" id="gradient6" r="819.2" spreadMethod="pad">
      <stop offset="0.0" stop-color="#1e1e1e"/>
      <stop offset="1.0" stop-color="#010101"/>
    </radialGradient>
    <radialGradient cx="0" cy="0" gradientTransform="matrix(0.0865, 0.0, 0.0, 0.0865, -378.0, -300.0)" gradientUnits="userSpaceOnUse" id="gradient7" r="819.2" spreadMethod="pad">
      <stop offset="0.0" stop-color="#020202"/>
      <stop offset="1.0" stop-color="#000000"/>
    </radialGradient>
    <radialGradient cx="0" cy="0" gradientTransform="matrix(0.0353, 0.0, 0.0, 0.0353, -386.5, -208.0)" gradientUnits="userSpaceOnUse" id="gradient8" r="819.2" spreadMethod="pad">
      <stop offset="0.0" stop-color="#010101"/>
      <stop offset="1.0" stop-color="#000000"/>
    </radialGradient>
    <radialGradient cx="0" cy="0" gradientTransform="matrix(0.1948, 0.0, 0.0, 0.1948, -395.05, -167.5)" gradientUnits="userSpaceOnUse" id="gradient9" r="819.2" spreadMethod="pad">
      <stop offset="0.0" stop-color="#494949"/>
      <stop offset="1.0" stop-color="#030303"/>
    </radialGradient>
    <radialGradient cx="0" cy="0" gradientTransform="matrix(0.0303, 0.0, 0.0, 0.0303, -387.6, -1.0)" gradientUnits="userSpaceOnUse" id="gradient10" r="819.2" spreadMethod="pad">
      <stop offset="0.0" stop-color="#000000"/>
      <stop offset="1.0" stop-color="#000000"/>
    </radialGradient>
    <radialGradient cx="0" cy="0" gradientTransform="matrix(0.0493, 0.0, 0.0, 0.0493, -364.75, -10.8)" gradientUnits="userSpaceOnUse" id="gradient11" r="819.2" spreadMethod="pad">
      <stop offset="0.0" stop-color="#000000"/>
      <stop offset="1.0" stop-color="#000000"/>
    </radialGradient>
    <radialGradient cx="0" cy="0" gradientTransform="matrix(0.1473, 0.0, 0.0, 0.1473, -367.9, -131.45)" gradientUnits="userSpaceOnUse" id="gradient12" r="819.2" spreadMethod="pad">
      <stop offset="0.0" stop-color="#111111"/>
      <stop offset="1.0" stop-color="#000000"/>
    </radialGradient>
    <radialGradient cx="0" cy="0" gradientTransform="matrix(0.0418, 0.0, 0.0, 0.0418, -328.35, -1.0)" gradientUnits="userSpaceOnUse" id="gradient13" r="819.2" spreadMethod="pad">
      <stop offset="0.0" stop-color="#000000"/>
      <stop offset="1.0" stop-color="#000000"/>
    </radialGradient>
    <radialGradient cx="0" cy="0" gradientTransform="matrix(0.0674, 0.0, 0.0, 0.0674, -366.7, -210.3)" gradientUnits="userSpaceOnUse" id="gradient14" r="819.2" spreadMethod="pad">
      <stop offset="0.0" stop-color="#000000"/>
      <stop offset="1.0" stop-color="#000000"/>
    </radialGradient>
    <radialGradient cx="0" cy="0" gradientTransform="matrix(0.0905, 0.0, 0.0, 0.0905, -375.4, -273.5)" gradientUnits="userSpaceOnUse" id="gradient15" r="819.2" spreadMethod="pad">
      <stop offset="0.0" stop-color="#010101"/>
      <stop offset="1.0" stop-color="#000000"/>
    </radialGradient>
    <radialGradient cx="0" cy="0" gradientTransform="matrix(0.022, 0.0, 0.0, 0.022, -382.3, -209.1)" gradientUnits="userSpaceOnUse" id="gradient16" r="819.2" spreadMethod="pad">
      <stop offset="0.0" stop-color="#181818"/>
      <stop offset="1.0" stop-color="#040404"/>
    </radialGradient>
    <radialGradient cx="0" cy="0" gradientTransform="matrix(0.261, 0.0, 0.0, 0.261, -380.45, -208.15)" gradientUnits="userSpaceOnUse" id="gradient17" r="819.2" spreadMethod="pad">
      <stop offset="0.0" stop-color="#181818"/>
      <stop offset="1.0" stop-color="#000000"/>
    </radialGradient>
    <radialGradient cx="0" cy="0" gradientTransform="matrix(0.0704, 0.0, 0.0, 0.0704, -134.2, -196.2)" gradientUnits="userSpaceOnUse" id="gradient18" r="819.2" spreadMethod="pad">
      <stop offset="0.0" stop-color="#101010"/>
      <stop offset="1.0" stop-color="#000000"/>
    </radialGradient>
    <radialGradient cx="0" cy="0" gradientTransform="matrix(0.0455, 0.0, 0.0, 0.0455, -137.2, -156.05)" gradientUnits="userSpaceOnUse" id="gradient19" r="819.2" spreadMethod="pad">
      <stop offset="0.0" stop-color="#7c7c7c"/>
      <stop offset="1.0" stop-color="#000000"/>
    </radialGradient>
    <radialGradient cx="0" cy="0" gradientTransform="matrix(0.0331, 0.0, 0.0, 0.0331, -121.65, -131.0)" gradientUnits="userSpaceOnUse" id="gradient20" r="819.2" spreadMethod="pad">
      <stop offset="0.0" stop-color="#000000"/>
      <stop offset="1.0" stop-color="#000000"/>
    </radialGradient>
    <radialGradient cx="0" cy="0" gradientTransform="matrix(0.0446, 0.0, 0.0, 0.0446, -129.35, -143.95)" gradientUnits="userSpaceOnUse" id="gradient21" r="819.2" spreadMethod="pad">
      <stop offset="0.0" stop-color="#4d4d4d"/>
      <stop offset="1.0" stop-color="#000000"/>
    </radialGradient>
    <radialGradient cx="0" cy="0" gradientTransform="matrix(0.1033, 0.0, 0.0, 0.1033, -101.15, -143.2)" gradientUnits="userSpaceOnUse" id="gradient22" r="819.2" spreadMethod="pad">
      <stop offset="0.0" stop-color="#0d0d0d"/>
      <stop offset="1.0" stop-color="#000000"/>
    </radialGradient>
    <radialGradient cx="0" cy="0" gradientTransform="matrix(0.0587, 0.0, 0.0, 0.0587, -132.7, -122.95)" gradientUnits="userSpaceOnUse" id="gradient23" r="819.2" spreadMethod="pad">
      <stop offset="0.0" stop-color="#717171"/>
      <stop offset="1.0" stop-color="#707070"/>
    </radialGradient>
    <radialGradient cx="0" cy="0" gradientTransform="matrix(0.0385, 0.0, 0.0, 0.0385, -149.4, -118.95)" gradientUnits="userSpaceOnUse" id="gradient24" r="819.2" spreadMethod="pad">
      <stop offset="0.0" stop-color="#121212"/>
      <stop offset="1.0" stop-color="#121212"/>
    </radialGradient>
    <radialGradient cx="0" cy="0" gradientTransform="matrix(0.0248, 0.0, 0.0, 0.0248, -150.4, -104.0)" gradientUnits="userSpaceOnUse" id="gradient25" r="819.2" spreadMethod="pad">
      <stop offset="0.0" stop-color="#676767"/>
      <stop offset="1.0" stop-color="#242424"/>
    </radialGradient>
    <radialGradient cx="0" cy="0" gradientTransform="matrix(0.0434, 0.0, 0.0, 0.0434, -125.4, -117.4)" gradientUnits="userSpaceOnUse" id="gradient26" r="819.2" spreadMethod="pad">
      <stop offset="0.0" stop-color="#121212"/>
      <stop offset="1.0" stop-color="#121212"/>
    </radialGradient>
    <radialGradient cx="0" cy="0" gradientTransform="matrix(0.1308, 0.0, 0.0, 0.1308, -127.85, -119.55)" gradientUnits="userSpaceOnUse" id="gradient27" r="819.2" spreadMethod="pad">
      <stop offset="0.0" stop-color="#8f8f8f"/>
      <stop offset="1.0" stop-color="#8f8f8f"/>
    </radialGradient>
    <radialGradient cx="0" cy="0" gradientTransform="matrix(0.0281, 0.0, 0.0, 0.0281, -120.55, -112.35)" gradientUnits="userSpaceOnUse" id="gradient28" r="819.2" spreadMethod="pad">
      <stop offset="0.0" stop-color="#212121"/>
      <stop offset="1.0" stop-color="#212121"/>
    </radialGradient>
    <radialGradient cx="0" cy="0" gradientTransform="matrix(0.044, 0.0, 0.0, 0.044, -122.65, -115.25)" gradientUnits="userSpaceOnUse" id="gradient29" r="819.2" spreadMethod="pad">
      <stop offset="0.0" stop-color="#121212"/>
      <stop offset="1.0" stop-color="#121212"/>
    </radialGradient>
    <radialGradient cx="0" cy="0" gradientTransform="matrix(0.1329, 0.0, 0.0, 0.1329, -57.15, -71.4)" gradientUnits="userSpaceOnUse" id="gradient30" r="819.2" spreadMethod="pad">
      <stop offset="0.0" stop-color="#121212"/>
      <stop offset="1.0" stop-color="#121212"/>
    </radialGradient>
    <radialGradient cx="0" cy="0" gradientTransform="matrix(0.0186, 0.0, 0.0, 0.0186, -138.95, -109.5)" gradientUnits="userSpaceOnUse" id="gradient31" r="819.2" spreadMethod="pad">
      <stop offset="0.0" stop-color="#070707"/>
      <stop offset="1.0" stop-color="#000000"/>
    </radialGradient>
    <radialGradient cx="0" cy="0" gradientTransform="matrix(0.0257, 0.0, 0.0, 0.0257, -91.05, -83.3)" gradientUnits="userSpaceOnUse" id="gradient32" r="819.2" spreadMethod="pad">
      <stop offset="0.0" stop-color="#d9d9d9"/>
      <stop offset="1.0" stop-color="#2b2b2b"/>
    </radialGradient>
    <radialGradient cx="0" cy="0" gradientTransform="matrix(0.053, 0.0, 0.0, 0.053, -88.1, -87.35)" gradientUnits="userSpaceOnUse" id="gradient33" r="819.2" spreadMethod="pad">
      <stop offset="0.0" stop-color="#b6b6b6"/>
      <stop offset="1.0" stop-color="#414141"/>
    </radialGradient>
    <radialGradient cx="0" cy="0" gradientTransform="matrix(0.0512, 0.0, 0.0, 0.0512, -149.2, -106.55)" gradientUnits="userSpaceOnUse" id="gradient34" r="819.2" spreadMethod="pad">
      <stop offset="0.0" stop-color="#b3b3b3"/>
      <stop offset="1.0" stop-color="#5c5c5c"/>
    </radialGradient>
    <radialGradient cx="0" cy="0" gradientTransform="matrix(0.0088, 0.0, 0.0, 0.0088, -147.25, -65.95)" gradientUnits="userSpaceOnUse" id="gradient35" r="819.2" spreadMethod="pad">
      <stop offset="0.0" stop-color="#e4e4e4"/>
      <stop offset="1.0" stop-color="#515151"/>
    </radialGradient>
    <radialGradient cx="0" cy="0" gradientTransform="matrix(0.042, 0.0, 0.0, 0.042, -33.45, -94.05)" gradientUnits="userSpaceOnUse" id="gradient36" r="819.2" spreadMethod="pad">
      <stop offset="0.0" stop-color="#dfdfdf"/>
      <stop offset="1.0" stop-color="#434343"/>
    </radialGradient>
    <radialGradient cx="0" cy="0" gradientTransform="matrix(0.0474, 0.0, 0.0, 0.0474, -31.8, -75.0)" gradientUnits="userSpaceOnUse" id="gradient37" r="819.2" spreadMethod="pad">
      <stop offset="0.0" stop-color="#787878"/>
      <stop offset="1.0" stop-color="#767676"/>
    </radialGradient>
    <radialGradient cx="0" cy="0" gradientTransform="matrix(0.027, 0.0, 0.0, 0.027, -54.25, -70.5)" gradientUnits="userSpaceOnUse" id="gradient38" r="819.2" spreadMethod="pad">
      <stop offset="0.0" stop-color="#121212"/>
      <stop offset="1.0" stop-color="#121212"/>
    </radialGradient>
    <radialGradient cx="0" cy="0" gradientTransform="matrix(0.0271, 0.0, 0.0, 0.0271, -51.35, -69.9)" gradientUnits="userSpaceOnUse" id="gradient39" r="819.2" spreadMethod="pad">
      <stop offset="0.0" stop-color="#121212"/>
      <stop offset="1.0" stop-color="#121212"/>
    </radialGradient>
  </defs>
</svg>
