<?xml version="1.0" encoding="UTF-8" standalone="no"?>
<svg xmlns:xlink="http://www.w3.org/1999/xlink" height="45.55px" width="36.1px" xmlns="http://www.w3.org/2000/svg">
  <g transform="matrix(1.0, 0.0, 0.0, 1.0, 15.05, 16.9)">
    <use height="28.65" transform="matrix(1.0, 0.0, 0.0, 1.0, -15.05, 0.0)" width="36.0" xlink:href="#shape0"/>
  </g>
  <defs>
    <g id="shape0" transform="matrix(1.0, 0.0, 0.0, 1.0, 15.05, 0.0)">
      <path d="M5.6 5.75 L-0.1 5.75 -0.1 0.0 5.6 0.0 5.6 5.75" fill="#ffffff" fill-opacity="0.0" fill-rule="evenodd" stroke="none"/>
      <path d="M-15.05 7.55 L-9.35 7.55 -9.35 13.3 -15.05 13.3 -15.05 7.55" fill="#ffffff" fill-opacity="0.0" fill-rule="evenodd" stroke="none"/>
      <path d="M-7.5 7.55 L-1.8 7.55 -1.8 13.3 -7.5 13.3 -7.5 7.55" fill="#ffffff" fill-opacity="0.0" fill-rule="evenodd" stroke="none"/>
      <path d="M5.45 13.3 L-0.25 13.3 -0.25 7.55 5.45 7.55 5.45 13.3" fill="#ffffff" fill-opacity="0.0" fill-rule="evenodd" stroke="none"/>
      <path d="M7.5 7.55 L13.2 7.55 13.2 13.3 7.5 13.3 7.5 7.55" fill="#ffffff" fill-opacity="0.0" fill-rule="evenodd" stroke="none"/>
      <path d="M15.25 11.4 L20.95 11.4 20.95 17.15 15.25 17.15 15.25 11.4" fill="#ffffff" fill-opacity="0.0" fill-rule="evenodd" stroke="none"/>
      <path d="M-15.0 15.15 L-9.3 15.15 -9.3 20.9 -15.0 20.9 -15.0 15.15" fill="#ffffff" fill-opacity="0.0" fill-rule="evenodd" stroke="none"/>
      <path d="M-7.5 15.15 L-1.8 15.15 -1.8 20.9 -7.5 20.9 -7.5 15.15" fill="#ffffff" fill-opacity="0.0" fill-rule="evenodd" stroke="none"/>
      <path d="M0.0 15.15 L5.7 15.15 5.7 20.9 0.0 20.9 0.0 15.15" fill="#ffffff" fill-opacity="0.0" fill-rule="evenodd" stroke="none"/>
      <path d="M7.75 15.15 L13.45 15.15 13.45 20.9 7.75 20.9 7.75 15.15" fill="#ffffff" fill-opacity="0.0" fill-rule="evenodd" stroke="none"/>
      <path d="M0.0 22.9 L5.7 22.9 5.7 28.65 0.0 28.65 0.0 22.9" fill="#ffffff" fill-opacity="0.0" fill-rule="evenodd" stroke="none"/>
    </g>
  </defs>
</svg>
