<?xml version="1.0" encoding="UTF-8" standalone="no"?>
<svg xmlns:xlink="http://www.w3.org/1999/xlink" height="161.25px" width="161.2px" xmlns="http://www.w3.org/2000/svg">
  <g transform="matrix(1.0, 0.0, 0.0, 1.0, 21.2, 25.9)">
    <use height="109.3" transform="matrix(-0.8615, 0.5041, -0.5041, -0.8615, 138.05, 71.85)" width="118.85" xlink:href="#sprite0"/>
  </g>
  <defs>
    <g id="sprite0" transform="matrix(1.0, 0.0, 0.0, 1.0, 0.0, 0.0)">
      <use height="109.3" transform="matrix(1.0, 0.0, 0.0, 1.0, 0.0, 0.0)" width="118.85" xlink:href="#shape0"/>
    </g>
    <g id="shape0" transform="matrix(1.0, 0.0, 0.0, 1.0, 0.0, 0.0)">
      <path d="M28.2 7.3 L48.0 0.0 72.85 0.65 92.0 12.0 107.0 25.5 114.85 43.65 113.2 67.15 117.35 67.15 117.2 67.65 118.85 67.8 116.85 68.3 111.2 81.0 100.85 92.8 83.2 104.15 67.5 109.0 50.85 109.3 35.35 105.5 21.0 97.3 10.0 85.8 Q0.5 72.3 0.2 57.3 L0.0 56.65 1.85 40.65 7.5 28.5 7.85 27.5 7.85 27.3 8.35 26.3 19.85 13.15 22.5 11.0 22.85 10.65 24.35 9.65 24.7 9.5 26.7 8.15 27.0 8.0 28.0 7.3 28.2 7.3 M31.0 37.5 L30.35 38.5 30.35 38.3 31.0 37.5 M30.05 39.05 Q27.45 43.9 27.2 53.0 L28.35 59.15 25.35 57.8 25.85 50.8 28.0 43.15 29.2 40.65 29.2 40.5 30.05 39.05 M72.2 33.3 L64.0 33.8 57.7 32.15 56.85 27.0 56.5 26.3 56.5 26.0 56.7 24.0 64.5 24.8 69.0 26.3 72.85 28.3 72.35 33.0 72.2 33.3 M53.0 33.8 L53.7 33.65 53.2 33.8 53.0 33.8 M54.35 33.65 L55.5 33.5 54.5 33.65 54.35 33.65 M57.7 33.5 L62.2 33.8 64.85 34.65 69.2 37.0 68.85 37.3 64.5 34.8 57.7 33.5 M63.35 22.3 L63.2 22.3 61.35 22.0 60.85 22.0 60.35 21.8 52.7 21.8 52.35 22.0 Q29.7 27.15 24.85 42.3 18.2 58.3 28.0 74.15 43.5 92.0 59.5 89.5 78.7 86.65 85.7 74.5 L85.85 74.15 86.2 74.0 86.35 73.5 86.7 73.3 87.85 72.15 89.5 68.0 89.0 68.0 90.0 65.3 90.85 65.3 91.7 63.65 92.85 55.0 92.85 54.3 91.5 45.5 91.2 45.0 87.2 36.65 87.0 36.3 82.5 31.65 81.35 31.65 74.7 26.5 70.1 24.4 69.45 24.1 68.85 23.8 68.7 23.8 67.7 23.5 67.35 23.3 67.2 23.3 66.2 22.8 66.0 22.8 65.7 22.65 65.2 22.5 64.2 22.5 64.0 22.3 63.35 22.3 M59.7 50.65 L59.85 50.65 60.0 50.8 61.0 51.5 61.2 51.8 60.0 50.8 59.7 50.65 M72.35 40.3 L72.7 40.0 Q80.85 47.65 77.35 61.0 80.2 46.8 72.35 40.3 M57.7 84.3 L67.2 84.3 72.85 82.65 69.0 84.65 68.35 84.8 66.85 85.3 66.35 85.3 66.2 85.5 64.7 86.0 64.35 86.0 60.35 86.65 60.0 86.65 59.35 86.65 58.85 86.15 58.5 85.65 58.2 85.0 57.85 84.65 57.7 84.3 M62.0 54.0 L62.2 55.3 62.0 55.5 62.0 54.0 M30.2 65.15 Q38.2 80.5 51.35 83.0 L48.7 85.5 47.85 85.15 47.7 85.15 47.2 85.0 46.85 84.8 46.7 84.8 42.7 83.0 42.5 83.0 42.2 82.8 41.85 82.65 38.0 80.15 37.5 79.65 37.2 79.5 36.5 79.0 32.35 74.65 32.2 74.3 30.5 72.15 30.2 71.5 29.5 70.5 29.2 69.8 29.0 69.5 28.7 68.8 28.5 68.5 28.5 68.3 28.0 67.8 30.2 65.15" fill="#000000" fill-rule="evenodd" stroke="none"/>
      <path d="M31.0 37.5 L30.35 38.3 30.35 38.5 30.05 39.05 29.2 40.5 29.2 40.65 27.7 42.8 28.0 43.15 26.2 47.5 25.85 50.8 25.35 52.8 25.35 57.8 24.85 58.15 25.5 58.5 Q24.5 59.0 26.0 60.65 L25.7 61.0 26.0 61.3 Q25.35 61.65 26.7 65.0 L27.2 65.0 28.0 67.8 28.5 68.3 28.5 68.5 28.7 68.8 29.0 69.5 29.2 69.8 29.5 70.5 30.2 71.5 30.5 72.15 32.2 74.3 32.35 74.65 36.5 79.0 37.2 79.5 37.5 79.65 38.0 80.15 41.85 82.65 42.2 82.8 42.5 83.0 42.7 83.0 45.0 84.5 46.7 84.8 46.85 84.8 47.2 85.0 47.7 85.15 47.85 85.15 48.7 85.5 50.0 86.15 51.7 86.15 56.2 86.8 59.5 87.3 60.0 87.3 59.5 86.8 60.0 86.65 60.35 86.65 64.35 86.0 64.7 86.0 66.2 85.5 66.35 85.5 66.35 85.3 66.85 85.3 68.35 84.8 69.0 84.65 72.85 82.65 73.0 82.65 73.35 82.5 77.85 79.65 81.35 76.15 84.5 71.5 85.35 71.3 85.0 70.8 85.7 70.5 85.35 70.3 86.0 69.3 Q88.35 66.0 87.7 65.3 89.35 63.15 88.2 62.65 L88.0 62.65 Q92.0 48.8 80.35 34.15 L81.35 33.5 79.7 33.5 Q81.0 32.3 78.85 32.15 L79.2 31.65 78.5 31.15 77.0 31.15 77.0 30.65 76.2 30.3 76.35 29.8 75.35 29.8 Q75.85 28.3 72.85 28.3 L69.0 26.3 64.5 24.8 56.7 24.0 49.2 24.8 44.7 26.5 44.2 26.65 42.0 27.8 40.5 27.8 40.85 28.15 39.85 29.0 38.85 29.0 39.5 29.3 38.5 30.0 Q38.0 30.8 34.7 31.5 L36.0 31.65 32.85 35.15 31.85 36.5 31.35 37.0 31.35 37.15 31.0 37.5 M86.35 73.5 L86.2 74.0 85.85 74.15 85.7 74.5 Q78.7 86.65 59.5 89.5 43.5 92.0 28.0 74.15 18.2 58.3 24.85 42.3 29.7 27.15 52.35 22.0 L52.7 21.8 60.35 21.8 60.85 22.0 61.35 22.0 63.2 22.3 63.35 22.3 64.2 22.5 67.2 23.3 67.35 23.3 67.7 23.5 68.7 23.8 68.85 23.8 69.45 24.1 70.1 24.4 Q86.4 32.25 90.15 47.0 91.6 52.65 91.2 59.3 L91.2 59.5 90.35 64.3 90.2 64.8 90.0 65.15 90.0 65.3 89.0 68.0 86.35 73.5 M60.35 47.65 L60.7 47.8 62.7 48.0 60.5 48.0 60.35 48.8 61.2 48.8 61.7 48.15 61.5 48.8 59.5 49.15 60.0 49.5 59.0 49.8 59.5 50.15 59.2 50.3 58.7 50.15 58.5 50.15 58.0 50.0 56.5 50.0 56.2 49.5 54.7 49.5 56.0 49.15 52.0 49.15 52.0 48.65 54.85 48.8 55.5 49.0 55.35 48.0 52.5 48.0 55.0 47.5 60.35 47.65 M61.0 51.5 L61.7 51.5 61.2 51.8 61.0 51.5 M61.5 52.5 L62.35 52.5 61.7 52.8 61.7 52.65 61.5 52.5 M61.7 53.3 L63.7 51.15 64.0 51.5 64.0 51.65 65.2 55.65 65.35 56.0 65.35 56.3 65.7 58.3 60.85 58.0 61.2 57.5 61.85 56.15 62.0 55.5 62.2 55.3 62.0 54.0 62.0 53.5 61.7 53.3 M53.35 50.15 L53.2 50.5 52.85 50.15 53.35 50.15 M51.0 49.65 L52.2 50.0 51.5 50.3 52.0 50.3 52.0 51.15 52.85 51.15 52.7 51.8 53.2 52.0 52.7 52.0 53.0 52.15 52.35 55.3 53.35 57.65 48.35 57.5 49.0 57.15 48.5 57.0 48.7 56.5 49.7 56.3 49.35 56.0 50.0 56.0 50.2 56.5 51.0 55.8 48.85 55.8 49.85 55.3 49.0 55.0 51.0 49.65 M53.5 51.5 L53.2 51.15 53.85 51.15 53.5 51.5 M61.2 50.0 L61.85 50.0 61.5 50.3 61.2 50.0 M60.35 50.3 L60.0 50.0 60.7 50.0 60.35 50.3 M62.2 50.0 L62.85 50.0 62.5 50.3 62.2 50.0 M62.7 51.5 L62.5 51.8 62.0 51.8 62.2 51.5 62.7 51.5 M63.0 60.0 L58.7 63.0 58.85 61.65 57.7 61.5 58.85 61.5 58.75 59.8 58.0 59.8 58.35 59.5 58.75 59.75 58.7 59.3 60.0 58.65 Q62.35 60.0 63.35 59.65 L63.0 60.0 M61.85 56.15 L62.0 56.15 62.35 56.0 61.85 56.15 M50.35 59.15 Q53.2 59.15 53.0 58.0 L53.85 58.15 55.0 59.0 55.35 59.15 54.7 59.65 55.7 59.8 54.7 59.8 55.2 60.3 54.5 60.5 55.5 60.65 54.5 60.65 55.2 61.15 54.5 61.15 54.2 62.15 50.35 59.15 M50.85 55.5 L50.35 55.15 50.2 55.5 50.85 55.5 M49.35 58.3 L49.7 58.0 50.35 58.3 49.35 58.3 M50.85 58.0 L52.5 58.3 50.5 58.3 50.85 58.0" fill="#656565" fill-rule="evenodd" stroke="none"/>
      <path d="M25.85 50.8 L26.2 47.5 28.0 43.15 25.85 50.8 25.35 57.8 25.35 52.8 25.85 50.8 M28.0 43.15 L27.7 42.8 29.2 40.65 28.0 43.15 M46.7 84.8 L45.0 84.5 42.7 83.0 46.7 84.8 M60.0 86.65 L59.5 86.8 59.35 86.65 60.0 86.65" fill="#757575" fill-rule="evenodd" stroke="none"/>
      <path d="M90.15 47.0 Q86.4 32.25 70.1 24.4 L74.7 26.5 81.35 31.65 Q87.95 37.2 90.15 47.0 M67.2 23.3 L64.2 22.5 63.35 22.3 64.0 22.3 64.2 22.5 65.2 22.5 65.7 22.65 66.0 22.8 66.2 22.8 67.2 23.3" fill="#5e5e5e" fill-rule="evenodd" stroke="none"/>
      <path d="M44.7 26.5 L44.35 29.8 44.5 31.15 44.35 31.15 44.35 29.8 44.2 26.65 44.7 26.5 M58.7 63.0 L58.7 63.15 58.5 63.15 58.7 63.0" fill="#212121" fill-rule="evenodd" stroke="none"/>
      <path d="M43.5 38.15 L40.85 33.8 Q40.0 30.65 38.5 30.0 L39.5 29.3 38.85 29.0 39.85 29.0 40.85 28.15 40.5 27.8 42.0 27.8 42.85 28.65 42.2 29.0 Q44.0 29.5 43.7 31.0 L44.35 31.15 43.85 31.3 44.35 31.3 46.2 34.0 55.0 47.5 52.5 48.0 55.35 48.0 55.5 49.0 54.85 48.8 52.0 48.65 52.0 49.15 56.0 49.15 54.7 49.5 56.2 49.5 56.5 50.0 55.2 50.3 53.85 51.15 53.2 51.15 53.5 51.5 53.2 52.0 53.0 52.15 52.7 52.0 53.2 52.0 52.7 51.8 52.85 51.15 52.0 51.15 52.0 50.3 51.5 50.3 52.2 50.0 51.0 49.65 43.5 38.15 M53.35 50.15 L52.85 50.15 53.2 50.5 53.35 50.15" fill="#686868" fill-rule="evenodd" stroke="none"/>
      <path d="M40.85 33.8 L36.0 31.65 34.7 31.5 Q38.0 30.8 38.5 30.0 40.0 30.65 40.85 33.8 M44.2 26.65 L44.35 29.8 44.35 31.15 43.7 31.0 Q44.0 29.5 42.2 29.0 L42.85 28.65 42.0 27.8 44.2 26.65 M44.35 31.3 L43.85 31.3 44.35 31.15 44.35 31.3" fill="#696969" fill-rule="evenodd" stroke="none"/>
      <path d="M44.5 31.15 L46.2 34.0 47.5 35.5 55.0 47.5 46.2 34.0 44.35 31.3 44.35 31.15 44.5 31.15" fill="#383838" fill-rule="evenodd" stroke="none"/>
      <path d="M35.85 58.15 Q33.7 46.15 43.5 38.15 L51.0 49.65 49.0 55.0 45.85 55.8 45.35 55.8 41.35 56.8 41.0 57.0 40.35 57.0 40.0 57.15 36.7 58.0 36.35 58.15 35.85 58.15 M47.5 35.5 L51.2 34.15 51.85 34.0 52.35 34.0 53.0 33.8 53.2 33.8 53.7 33.65 54.35 33.65 54.5 33.65 55.5 33.5 57.7 33.5 64.5 34.8 68.85 37.3 60.35 47.65 55.0 47.5 47.5 35.5 M45.35 50.15 L45.0 50.15 44.5 50.65 44.35 51.15 44.35 51.65 45.2 52.65 46.35 52.65 47.0 51.65 47.0 50.8 46.2 50.0 45.35 50.15 M63.7 51.15 L70.85 42.15 71.2 41.8 71.5 41.3 71.85 41.0 72.35 40.3 Q80.2 46.8 77.35 61.0 L77.35 61.15 76.7 60.8 76.2 60.65 75.0 60.15 74.5 60.0 74.2 59.8 73.5 59.5 73.35 59.5 72.0 59.0 71.7 58.8 71.2 58.65 70.5 58.3 69.5 58.0 69.2 57.8 68.85 57.65 Q68.5 57.85 68.35 57.5 L67.7 57.15 67.2 57.0 66.2 56.5 66.0 56.5 65.35 56.3 65.35 56.0 65.2 55.65 64.0 51.65 64.0 51.5 63.7 51.15 M57.2 42.8 L57.2 43.0 56.85 43.8 Q59.35 46.15 59.7 43.15 L59.5 43.0 59.0 42.5 58.7 42.3 58.0 42.3 57.2 42.8 M68.5 51.3 L67.7 51.5 67.2 52.3 67.5 53.8 69.0 54.0 69.85 53.15 69.85 52.3 69.7 52.15 68.5 51.3 M75.7 65.3 L75.2 65.8 74.7 66.8 74.5 67.0 73.2 68.65 72.5 69.3 72.2 69.65 Q67.2 75.5 57.35 75.8 L58.7 63.15 58.7 63.0 63.0 60.0 75.7 65.3 M63.5 63.8 L62.5 64.0 62.0 64.65 62.5 66.3 Q66.2 66.15 63.5 63.8 M50.35 59.15 L54.2 62.15 52.85 75.5 Q44.0 74.8 37.2 62.5 L50.35 59.15 M50.5 65.5 Q52.0 62.5 48.85 63.15 47.35 65.5 50.5 65.5" fill="#2d2d2d" fill-rule="evenodd" stroke="none"/>
      <path d="M45.35 50.15 L47.0 50.8 47.0 51.65 46.35 52.65 45.2 52.65 44.35 51.65 44.35 51.15 44.5 50.65 45.0 50.15 45.35 50.15 M57.2 42.8 L58.0 42.3 58.7 42.3 59.0 42.5 59.5 43.0 59.7 43.15 Q59.35 46.15 56.85 43.8 L57.2 43.0 57.2 42.8" fill="#898989" fill-rule="evenodd" stroke="none"/>
      <path d="M47.0 50.8 L45.35 50.15 46.2 50.0 47.0 50.8" fill="#acacac" fill-rule="evenodd" stroke="none"/>
      <path d="M30.2 59.5 L30.85 59.5 31.2 59.3 33.85 58.65 34.35 58.65 34.7 58.5 35.85 58.15 36.35 58.15 36.7 58.0 40.0 57.15 40.35 57.0 41.0 57.0 41.35 56.8 45.35 55.8 45.85 55.8 49.0 55.0 49.85 55.3 48.85 55.8 51.0 55.8 50.2 56.5 50.0 56.0 49.35 56.0 49.7 56.3 48.7 56.5 48.5 57.0 49.0 57.15 48.35 57.5 53.35 57.65 53.85 58.15 53.0 58.0 Q53.2 59.15 50.35 59.15 L37.2 62.5 31.35 64.0 30.2 65.15 28.0 67.8 27.2 65.0 26.7 65.0 Q25.35 61.65 26.0 61.3 L25.7 61.0 26.0 60.65 27.5 60.65 27.85 60.15 30.0 59.65 30.2 59.65 30.2 59.5 M69.2 37.0 L72.2 33.3 72.35 33.0 73.7 32.3 73.35 32.15 74.0 31.8 74.35 30.65 75.35 30.65 74.7 30.5 75.35 29.8 76.35 29.8 76.2 30.3 77.0 30.65 77.0 31.15 78.5 31.15 79.2 31.65 78.85 32.15 Q81.0 32.3 79.7 33.5 L81.35 33.5 80.35 34.15 76.2 35.5 75.85 36.0 75.5 36.3 75.2 36.8 74.85 37.15 73.85 38.5 73.5 38.8 73.2 39.3 72.85 39.65 72.7 40.0 72.35 40.3 71.85 41.0 71.5 41.3 71.2 41.8 70.85 42.15 63.7 51.15 61.7 53.3 61.85 53.0 61.7 52.8 62.35 52.5 61.5 52.5 61.5 52.3 61.2 52.0 61.2 51.8 61.7 51.5 61.0 51.5 60.0 50.8 59.85 50.65 59.7 50.65 59.2 50.3 59.5 50.15 59.0 49.8 60.0 49.5 59.5 49.15 61.5 48.8 61.7 48.15 61.2 48.8 60.35 48.8 60.5 48.0 62.7 48.0 60.7 47.8 60.35 47.65 68.85 37.3 69.2 37.0 M60.35 50.3 L60.7 50.0 60.0 50.0 60.35 50.3 M61.2 50.0 L61.5 50.3 61.85 50.0 61.2 50.0 M62.7 51.5 L62.2 51.5 62.0 51.8 62.5 51.8 62.7 51.5 M62.2 50.0 L62.5 50.3 62.85 50.0 62.2 50.0 M50.85 55.5 L50.2 55.5 50.35 55.15 50.85 55.5 M50.85 58.0 L50.5 58.3 52.5 58.3 50.85 58.0 M49.35 58.3 L50.35 58.3 49.7 58.0 49.35 58.3 M27.7 60.65 L28.2 61.0 28.7 60.5 27.7 60.65" fill="#666666" fill-rule="evenodd" stroke="none"/>
      <path d="M59.2 50.3 L59.7 50.65 60.0 50.8 61.2 51.8 61.2 52.0 61.5 52.3 61.5 52.5 61.7 52.65 61.7 52.8 61.85 53.0 61.7 53.3 62.0 53.5 62.0 54.0 62.0 55.5 61.85 56.15 61.2 57.5 60.85 58.0 60.0 58.65 58.7 59.3 55.35 59.15 55.0 59.0 53.85 58.15 53.35 57.65 52.35 55.3 53.0 52.15 53.2 52.0 53.5 51.5 53.85 51.15 55.2 50.3 56.5 50.0 58.0 50.0 58.5 50.15 58.7 50.15 59.2 50.3 M63.5 63.8 Q66.2 66.15 62.5 66.3 L62.0 64.65 62.5 64.0 63.5 63.8" fill="#878787" fill-rule="evenodd" stroke="none"/>
      <path d="M68.5 51.3 L69.7 52.15 69.85 52.3 69.85 53.15 69.0 54.0 67.5 53.8 67.2 52.3 67.7 51.5 68.5 51.3 M50.5 65.5 Q47.35 65.5 48.85 63.15 52.0 62.5 50.5 65.5" fill="#888888" fill-rule="evenodd" stroke="none"/>
      <path d="M28.35 59.15 L28.5 59.15 28.85 59.3 29.0 59.3 30.0 59.65 27.85 60.15 27.5 60.65 26.0 60.65 Q24.5 59.0 25.5 58.5 L24.85 58.15 25.35 57.8 28.35 59.15 M72.35 33.0 L72.85 28.3 Q75.85 28.3 75.35 29.8 L74.7 30.5 75.35 30.65 74.35 30.65 74.0 31.8 73.35 32.15 73.7 32.3 72.35 33.0 M27.7 60.65 L28.7 60.5 28.2 61.0 27.7 60.65" fill="#676767" fill-rule="evenodd" stroke="none"/>
      <path d="M83.85 63.5 L84.0 63.5 85.2 63.3 85.7 63.3 86.0 63.15 86.5 63.15 86.85 63.0 87.2 63.0 88.0 62.65 88.2 62.65 Q89.35 63.15 87.7 65.3 L85.35 65.0 Q85.85 63.8 83.35 63.5 L83.85 63.5 M56.7 82.15 L56.85 82.15 56.85 82.3 56.7 82.3 56.7 82.15 M56.7 82.65 L57.0 82.8 57.2 83.15 57.35 83.65 57.5 84.0 57.7 84.3 57.85 84.65 58.2 85.0 58.5 85.65 58.85 86.15 59.35 86.65 59.5 86.8 60.0 87.3 59.5 87.3 56.2 86.8 56.7 82.65 M84.5 71.5 L82.0 67.8 85.85 68.3 86.0 68.65 85.0 68.65 84.5 68.8 86.0 69.3 85.35 70.3 85.7 70.5 85.0 70.8 85.35 71.3 84.5 71.5 M51.35 83.0 L52.2 82.0 52.2 82.5 52.85 82.5 52.2 82.65 52.2 83.3 52.85 83.3 52.2 84.3 52.85 84.3 52.0 84.65 52.35 85.0 51.85 85.5 52.5 85.8 51.7 86.15 50.0 86.15 48.7 85.5 51.35 83.0 M66.2 85.5 L66.35 85.3 66.35 85.5 66.2 85.5" fill="#636363" fill-rule="evenodd" stroke="none"/>
      <path d="M85.2 63.3 L84.0 63.5 83.85 63.5 85.2 63.3" fill="#efefef" fill-rule="evenodd" stroke="none"/>
      <path d="M65.35 56.3 L66.0 56.5 66.2 56.5 67.2 57.0 67.7 57.15 68.35 57.5 Q68.5 57.85 68.85 57.65 L69.2 57.8 69.5 58.0 70.5 58.3 71.2 58.65 71.7 58.8 72.0 59.0 73.35 59.5 73.5 59.5 74.2 59.8 74.5 60.0 75.0 60.15 76.2 60.65 76.7 60.8 77.35 61.15 78.0 61.3 78.2 61.3 78.85 61.65 83.35 63.5 Q85.85 63.8 85.35 65.0 L87.7 65.3 Q88.35 66.0 86.0 69.3 L84.5 68.8 85.0 68.65 86.0 68.65 85.85 68.3 82.0 67.8 75.7 65.3 63.0 60.0 63.35 59.65 Q62.35 60.0 60.0 58.65 L60.85 58.0 65.7 58.3 65.35 56.3 M57.35 75.8 L56.7 82.15 56.7 82.3 56.7 82.65 56.2 86.8 51.7 86.15 52.5 85.8 51.85 85.5 52.35 85.0 52.0 84.65 52.85 84.3 52.2 84.3 52.85 83.3 52.2 83.3 52.2 82.65 52.85 82.5 52.2 82.5 52.2 82.0 52.85 75.5 54.2 62.15 54.5 61.15 55.2 61.15 54.5 60.65 55.5 60.65 54.5 60.5 55.2 60.3 54.7 59.8 55.7 59.8 54.7 59.65 55.35 59.15 58.7 59.3 58.75 59.75 58.35 59.5 58.0 59.8 58.75 59.8 58.85 61.5 57.7 61.5 58.85 61.65 58.7 63.0 58.5 63.15 58.7 63.15 57.35 75.8 M61.85 56.15 L62.35 56.0 62.0 56.15 61.85 56.15" fill="#646464" fill-rule="evenodd" stroke="none"/>
      <path d="M77.35 61.15 L77.35 61.0 78.0 61.3 77.35 61.15" fill="#bcbcbc" fill-rule="evenodd" stroke="none"/>
      <path d="M56.85 82.3 L56.7 82.65 56.7 82.3 56.85 82.3" fill="#3f3f3f" fill-rule="evenodd" stroke="none"/>
      <path d="M29.0 59.3 L30.2 59.5 30.2 59.65 30.0 59.65 29.0 59.3" fill="#c7c7c7" fill-rule="evenodd" stroke="none"/>
      <path d="M114.85 43.65 L113.2 67.15 117.35 67.15 117.2 67.65 118.85 67.8 116.85 68.3 111.2 81.0 100.85 92.8 83.2 104.15 67.5 109.0 50.85 109.3 35.35 105.5 21.0 97.3 10.0 85.8 Q0.5 72.3 0.2 57.3 L0.0 56.65 1.85 40.65 7.5 28.5 7.85 27.5 7.85 27.3 8.35 26.3 19.85 13.15 22.5 11.0 22.85 10.65 24.35 9.65 24.7 9.5 26.7 8.15 27.0 8.0 28.0 7.3 28.2 7.3 48.0 0.0 72.85 0.65 92.0 12.0 107.0 25.5 114.85 43.65 M82.5 31.65 L81.35 31.65 Q87.95 37.2 90.15 47.0 91.6 52.65 91.2 59.3 L91.2 59.5 90.35 64.3 90.2 64.8 90.0 65.15 90.0 65.3 90.85 65.3 91.7 63.65 92.85 55.0 92.85 54.3 91.5 45.5 91.2 45.0 87.2 36.65 87.0 36.3 82.5 31.65 M89.0 68.0 L86.35 73.5 86.7 73.3 87.85 72.15 89.5 68.0 89.0 68.0 M88.0 62.65 Q92.0 48.8 80.35 34.15 L76.2 35.5 75.85 36.0 75.5 36.3 75.2 36.8 74.85 37.15 73.85 38.5 73.5 38.8 73.2 39.3 72.85 39.65 72.7 40.0 Q80.85 47.65 77.35 61.0 L78.0 61.3 78.2 61.3 78.85 61.65 83.35 63.5 83.85 63.5 85.2 63.3 85.7 63.3 86.0 63.15 86.5 63.15 86.85 63.0 87.2 63.0 88.0 62.65 M84.5 71.5 L82.0 67.8 75.7 65.3 75.2 65.8 74.7 66.8 74.5 67.0 73.2 68.65 72.5 69.3 72.2 69.65 Q67.2 75.5 57.35 75.8 L56.7 82.15 56.85 82.15 56.85 82.3 56.7 82.65 57.0 82.8 57.2 83.15 57.35 83.65 57.5 84.0 57.7 84.3 67.2 84.3 72.85 82.65 73.0 82.65 73.35 82.5 77.85 79.65 81.35 76.15 84.5 71.5 M55.5 33.5 L62.2 33.8 64.85 34.65 69.2 37.0 72.2 33.3 64.0 33.8 57.7 32.15 56.85 27.0 56.5 26.3 56.5 26.0 56.7 24.0 49.2 24.8 44.7 26.5 44.35 29.8 44.5 31.15 46.2 34.0 47.5 35.5 51.2 34.15 51.85 34.0 52.35 34.0 53.7 33.65 54.35 33.65 55.5 33.5 M40.85 33.8 L36.0 31.65 32.85 35.15 31.85 36.5 31.35 37.0 31.35 37.15 31.0 37.5 30.35 38.5 30.05 39.05 Q27.45 43.9 27.2 53.0 L28.35 59.15 28.5 59.15 28.85 59.3 29.0 59.3 30.2 59.5 30.85 59.5 31.2 59.3 33.85 58.65 34.35 58.65 34.7 58.5 35.85 58.15 Q33.7 46.15 43.5 38.15 L40.85 33.8 M31.35 64.0 L30.2 65.15 Q38.2 80.5 51.35 83.0 L52.2 82.0 52.85 75.5 Q44.0 74.8 37.2 62.5 L31.35 64.0" fill="#000000" fill-opacity="0.7411765" fill-rule="evenodd" stroke="none"/>
    </g>
  </defs>
</svg>
