<?xml version="1.0" encoding="UTF-8" standalone="no"?>
<svg xmlns:xlink="http://www.w3.org/1999/xlink" height="35.5px" width="57.75px" xmlns="http://www.w3.org/2000/svg">
  <g transform="matrix(1.0, 0.0, 0.0, 1.0, 17.4, 11.85)">
    <use height="9.2" transform="matrix(1.0, 0.0, 0.0, 1.0, -3.85, -4.6)" width="7.7" xlink:href="#shape0"/>
    <clipPath id="clipPath0" transform="matrix(1.0, 0.0, 0.0, 1.0, 17.4, 11.85)">
      <use height="35.5" transform="matrix(1.0, 0.0, 0.0, 1.0, -17.4, -11.85)" width="53.9" xlink:href="#shape1"/>
    </clipPath>
    <g clip-path="url(#clipPath0)">
      <use height="8.25" transform="matrix(1.0, 0.0, 0.0, 1.0, 0.4, -1.5)" width="39.95" xlink:href="#sprite0"/>
    </g>
  </g>
  <defs>
    <g id="shape0" transform="matrix(1.0, 0.0, 0.0, 1.0, 3.85, 4.6)">
      <path d="M1.7 -3.85 L0.9 -4.0 Q-0.35 -4.0 -1.2 -2.85 -2.1 -1.7 -2.1 -0.05 -2.1 1.55 -1.2 2.7 -0.35 3.85 0.9 3.85 L1.85 3.65 Q0.95 4.6 -0.3 4.6 -1.75 4.6 -2.8 3.25 -3.85 1.9 -3.85 0.0 -3.85 -1.9 -2.8 -3.25 -1.75 -4.6 -0.3 -4.6 0.8 -4.6 1.7 -3.85" fill="#333333" fill-rule="evenodd" stroke="none"/>
      <path d="M1.85 3.65 L0.9 3.85 Q-0.35 3.85 -1.2 2.7 -2.1 1.55 -2.1 -0.05 -2.1 -1.7 -1.2 -2.85 -0.35 -4.0 0.9 -4.0 L1.7 -3.85 3.0 -2.85 Q3.85 -1.7 3.85 -0.05 3.85 1.55 3.0 2.7 L1.85 3.65 M1.95 -0.95 L1.2 -1.4 0.5 -0.95 Q0.2 -0.5 0.2 0.2 0.2 0.85 0.5 1.3 0.8 1.8 1.2 1.8 L1.95 1.3 2.25 0.2 1.95 -0.95" fill="#484848" fill-rule="evenodd" stroke="none"/>
      <path d="M1.95 -0.95 L2.25 0.2 1.95 1.3 1.2 1.8 Q0.8 1.8 0.5 1.3 0.2 0.85 0.2 0.2 0.2 -0.5 0.5 -0.95 L1.2 -1.4 1.95 -0.95" fill="#000000" fill-rule="evenodd" stroke="none"/>
    </g>
    <g id="shape1" transform="matrix(1.0, 0.0, 0.0, 1.0, 17.4, 11.85)">
      <path d="M36.5 23.65 L-17.4 9.8 -15.1 -11.85 36.5 -6.45 36.5 23.65" fill="#000000" fill-rule="evenodd" stroke="none"/>
    </g>
    <g id="sprite0" transform="matrix(1.0, 0.0, 0.0, 1.0, 19.95, 4.1)">
      <use height="4.7" transform="matrix(0.6693, 0.0943, -0.0801, 0.5686, -19.5886, -4.1214)" width="59.15" xlink:href="#sprite1"/>
    </g>
    <g id="sprite1" transform="matrix(1.0, 0.0, 0.0, 1.0, 29.55, 2.35)">
      <use height="4.7" transform="matrix(1.0, 0.0, 0.0, 1.0, -29.55, -2.35)" width="59.15" xlink:href="#sprite2"/>
    </g>
    <g id="sprite2" transform="matrix(1.0, 0.0, 0.0, 1.0, 29.55, 2.35)">
      <use height="4.65" transform="matrix(1.0, 0.0, 0.0, 1.0, -29.55, -2.35)" width="59.05" xlink:href="#sprite3"/>
      <use height="4.65" transform="matrix(1.0, 0.0, 0.0, 1.0, -29.45, -2.3)" width="59.05" xlink:href="#sprite3"/>
    </g>
    <g id="sprite3" transform="matrix(1.0, 0.0, 0.0, 1.0, 29.5, 2.3)">
      <use height="4.65" transform="matrix(1.0, 0.0, 0.0, 1.0, -29.5, -2.3)" width="59.05" xlink:href="#shape2"/>
    </g>
    <g id="shape2" transform="matrix(1.0, 0.0, 0.0, 1.0, 29.5, 2.3)">
      <path d="M28.8 2.35 L-27.8 2.35 Q-31.15 0.6 -27.8 -2.3 L28.8 -2.3 Q30.35 0.05 28.8 2.35" fill="#ff0000" fill-opacity="0.5764706" fill-rule="evenodd" stroke="none"/>
    </g>
  </defs>
</svg>
