<?xml version="1.0" encoding="UTF-8" standalone="no"?>
<svg xmlns:xlink="http://www.w3.org/1999/xlink" height="289.15px" width="121.7px" xmlns="http://www.w3.org/2000/svg">
  <g transform="matrix(1.0, 0.0, 0.0, 1.0, 3.9, -0.45)">
    <use height="34.15" transform="matrix(1.0, 0.0, 0.0, 1.0, -3.9, 255.45)" width="121.7" xlink:href="#shape0"/>
    <use height="224.05" id="corp" transform="matrix(1.0, 0.0, 0.0, 0.9913, 12.2, 54.85)" width="82.15" xlink:href="#sprite0"/>
    <use height="64.6" id="head" transform="matrix(1.0, 0.0, 0.0, 1.0, -0.7, 2.8)" width="64.6" xlink:href="#sprite1"/>
  </g>
  <defs>
    <g id="shape0" transform="matrix(1.0, 0.0, 0.0, 1.0, 3.9, -255.45)">
      <path d="M100.0 282.45 Q82.2 288.2 56.95 289.35 31.75 290.45 13.9 286.3 -3.9 282.15 -3.9 275.2 -3.9 268.3 13.9 262.55 31.75 256.8 56.95 255.7 82.2 254.55 100.0 258.7 117.8 262.85 117.8 269.8 117.8 276.7 100.0 282.45" fill="#000000" fill-opacity="0.2627451" fill-rule="evenodd" stroke="none"/>
    </g>
    <g id="sprite0" transform="matrix(1.0, 0.0, 0.0, 1.0, 0.0, 0.0)">
      <use height="224.05" transform="matrix(1.0, 0.0, 0.0, 1.0, 0.0, 0.0)" width="82.15" xlink:href="#shape1"/>
    </g>
    <g id="shape1" transform="matrix(1.0, 0.0, 0.0, 1.0, 0.0, 0.0)">
      <path d="M21.05 12.4 L20.95 11.35 Q17.1 1.2 24.25 0.0 31.05 -0.25 31.85 9.35 40.05 10.4 47.25 13.75 L65.75 57.25 71.0 108.0 Q67.85 116.9 57.95 114.35 52.15 111.35 52.25 107.5 L48.0 57.5 35.35 32.05 Q39.6 64.4 39.75 96.1 L59.1 162.75 82.0 211.25 Q83.5 220.75 70.5 221.25 63.4 221.85 58.5 216.25 L41.4 163.65 33.1 123.4 28.5 152.25 28.5 216.25 Q27.65 226.2 11.9 223.45 8.4 221.2 6.5 218.25 L11.5 154.75 23.6 91.75 Q25.3 69.85 23.8 43.7 L19.0 62.75 16.25 110.25 Q15.1 113.2 8.7 114.1 3.05 114.1 0.0 109.0 L4.75 60.75 15.5 16.0 21.05 12.4" fill="#000000" fill-rule="evenodd" stroke="none"/>
    </g>
    <g id="sprite1" transform="matrix(1.0, 0.0, 0.0, 1.0, 0.0, 0.0)">
      <use height="64.6" transform="matrix(1.0, 0.0, 0.0, 1.0, 0.0, 0.0)" width="64.6" xlink:href="#shape2"/>
      <use height="17.55" transform="matrix(1.0, 0.0, 0.0, 1.0, 0.9, 33.85)" width="52.5" xlink:href="#sprite2"/>
    </g>
    <g id="shape2" transform="matrix(1.0, 0.0, 0.0, 1.0, 0.0, 0.0)">
      <path d="M55.15 9.45 Q64.6 18.9 64.6 32.25 64.6 45.7 55.15 55.15 50.1 60.2 43.85 62.6 L32.95 64.6 32.25 64.6 26.05 64.05 23.0 63.35 23.0 63.3 22.9 63.3 Q16.75 61.5 11.65 57.2 L10.85 56.5 9.45 55.15 Q0.0 45.7 0.0 32.25 0.0 18.9 9.45 9.45 18.9 0.0 32.25 0.0 45.7 0.0 55.15 9.45" fill="#000000" fill-rule="evenodd" stroke="none"/>
    </g>
    <g id="sprite2" transform="matrix(1.0, 0.0, 0.0, 1.0, 21.5, 8.75)">
      <use height="17.5" transform="matrix(1.0, 0.0, 0.0, 1.0, -21.45, -8.75)" width="42.9" xlink:href="#shape3"/>
    </g>
    <g id="shape3" transform="matrix(1.0, 0.0, 0.0, 1.0, 21.45, 8.75)">
      <path d="M16.0 -8.75 L20.65 -6.0 Q21.85 -1.75 21.25 0.8 L18.1 4.65 Q9.15 8.6 0.7 5.6 -1.55 2.0 -3.9 1.35 -5.25 3.2 -4.75 6.95 L-8.5 8.6 -15.75 8.25 Q-18.2 6.8 -20.25 4.5 L-20.25 4.3 -21.45 -0.05 -21.0 -1.8 -18.2 -2.0 -4.8 -0.5 -5.35 -1.35 -4.25 -0.05 -4.4 -1.25 -4.1 -0.9 Q6.9 -5.55 16.0 -8.75" fill="#ffffff" fill-rule="evenodd" stroke="none"/>
    </g>
  </defs>
</svg>
