<?xml version="1.0" encoding="UTF-8" standalone="no"?>
<svg xmlns:xlink="http://www.w3.org/1999/xlink" height="338.1px" width="676.9px" xmlns="http://www.w3.org/2000/svg">
  <g transform="matrix(1.0, 0.0, 0.0, 1.0, 203.95, 157.0)">
    <use height="81.0" transform="matrix(1.1726, 0.0, 0.0, 1.1726, -20.2, -7.05)" width="234.95" xlink:href="#sprite0"/>
  </g>
  <defs>
    <g id="sprite0" transform="matrix(1.0, 0.0, 0.0, 1.0, 0.0, 0.0)">
      <use height="81.0" transform="matrix(1.0, 0.0, 0.0, 1.0, 0.0, 0.0)" width="234.95" xlink:href="#shape0"/>
      <use height="10.45" transform="matrix(1.0, 0.0, 0.0, 1.0, 7.0, 8.15)" width="63.0" xlink:href="#text0"/>
      <use height="25.75" transform="matrix(1.0, 0.0, 0.0, 1.0, 6.9, 23.1)" width="162.05" xlink:href="#text1"/>
    </g>
    <g id="shape0" transform="matrix(1.0, 0.0, 0.0, 1.0, 0.0, 0.0)">
      <path d="M232.95 13.0 L232.95 68.0 221.95 79.0 11.0 79.0 2.0 70.0 2.0 2.0 221.95 2.0 232.95 13.0 M223.95 0.0 L234.95 0.0 234.95 11.0 223.95 0.0 M234.95 81.0 L223.95 81.0 234.95 70.0 234.95 81.0 M9.0 81.0 L0.0 81.0 0.0 72.0 9.0 81.0" fill="#000000" fill-opacity="0.29411766" fill-rule="evenodd" stroke="none"/>
    </g>
    <g id="text0" transform="matrix(1.0, 0.0, 0.0, 1.0, -69.15, -1.75)">
      <g transform="matrix(1.0, 0.0, 0.0, 1.0, 68.15, 0.0)">
        <use fill="#ffffff" fill-opacity="0.41960785" height="10.45" transform="matrix(0.0107, 0.0, 0.0, 0.0107, 0.0, 11.0)" width="63.0" xlink:href="#font_Verdana_L0"/>
        <use fill="#ffffff" fill-opacity="0.41960785" height="10.45" transform="matrix(0.0107, 0.0, 0.0, 0.0107, 7.0, 11.0)" width="63.0" xlink:href="#font_Verdana_e0"/>
        <use fill="#ffffff" fill-opacity="0.41960785" height="10.45" transform="matrix(0.0107, 0.0, 0.0, 0.0107, 14.3, 11.0)" width="63.0" xlink:href="#font_Verdana_s0"/>
        <use fill="#ffffff" fill-opacity="0.41960785" height="10.45" transform="matrix(0.0107, 0.0, 0.0, 0.0107, 20.85, 11.0)" width="63.0" xlink:href="#font_Verdana_s0"/>
        <use fill="#ffffff" fill-opacity="0.41960785" height="10.45" transform="matrix(0.0107, 0.0, 0.0, 0.0107, 27.4, 11.0)" width="63.0" xlink:href="#font_Verdana_o0"/>
        <use fill="#ffffff" fill-opacity="0.41960785" height="10.45" transform="matrix(0.0107, 0.0, 0.0, 0.0107, 34.95, 11.0)" width="63.0" xlink:href="#font_Verdana_n0"/>
        <use fill="#ffffff" fill-opacity="0.41960785" height="10.45" transform="matrix(0.0107, 0.0, 0.0, 0.0107, 46.55, 11.0)" width="63.0" xlink:href="#font_Verdana_30"/>
      </g>
    </g>
    <g id="font_Verdana_L0">
      <path d="M632.0 0.0 L632.0 -144.0 287.0 -144.0 287.0 -744.5 95.0 -744.5 95.0 0.0 632.0 0.0" fill-rule="evenodd" stroke="none"/>
    </g>
    <g id="font_Verdana_e0">
      <path d="M459.0 -353.0 L225.5 -353.0 Q229.5 -412.5 263.0 -439.5 296.5 -466.5 348.5 -466.5 404.5 -466.5 431.0 -438.0 457.5 -409.5 459.0 -353.0 M638.0 -247.5 L638.0 -310.5 Q638.0 -440.5 569.0 -509.5 500.0 -579.0 363.0 -579.0 214.5 -579.0 129.5 -497.5 44.0 -416.5 44.0 -277.5 44.0 -137.0 134.0 -61.0 224.0 15.0 393.0 15.0 458.5 15.0 512.5 4.0 566.5 -7.0 627.5 -31.5 L627.5 -176.0 607.5 -176.0 Q576.5 -152.5 523.0 -132.0 469.5 -111.5 412.5 -111.5 322.5 -111.5 276.5 -146.5 230.0 -181.5 226.0 -247.5 L638.0 -247.5" fill-rule="evenodd" stroke="none"/>
    </g>
    <g id="font_Verdana_s0">
      <path d="M573.0 -178.0 L573.0 -178.0 Q573.0 -237.5 539.0 -277.0 505.0 -317.0 434.0 -335.5 402.0 -343.5 370.5 -348.5 338.5 -354.0 311.0 -359.5 261.0 -370.0 247.5 -380.5 234.0 -391.0 234.0 -411.0 234.0 -433.0 264.0 -445.0 293.5 -457.0 337.0 -457.0 389.5 -457.0 441.0 -439.5 492.0 -422.5 532.0 -395.0 L547.5 -395.0 547.5 -537.0 Q515.0 -551.5 457.5 -564.0 399.5 -577.0 336.5 -577.0 203.5 -577.0 127.0 -523.0 50.0 -469.5 50.0 -388.5 50.0 -325.5 87.0 -283.0 124.0 -241.0 200.5 -221.0 228.5 -213.5 263.0 -208.0 297.0 -203.0 317.0 -198.5 359.0 -190.0 374.0 -180.5 389.0 -171.5 389.0 -151.0 389.0 -128.0 363.5 -116.0 338.0 -104.5 285.0 -104.5 244.5 -104.5 209.0 -112.5 173.5 -121.0 145.5 -132.5 113.0 -145.5 95.5 -156.5 77.5 -168.0 64.0 -177.5 L47.5 -177.5 47.5 -29.5 Q84.5 -12.5 145.5 1.5 206.5 15.5 281.5 15.5 417.0 15.5 495.0 -37.5 573.0 -91.0 573.0 -178.0" fill-rule="evenodd" stroke="none"/>
    </g>
    <g id="font_Verdana_o0">
      <path d="M437.5 -144.0 L437.5 -144.0 Q422.0 -124.5 400.0 -116.0 377.5 -108.0 353.0 -108.0 324.5 -108.0 302.5 -117.0 280.0 -126.0 264.0 -145.5 247.5 -166.0 239.0 -199.5 230.5 -233.5 230.5 -279.5 230.5 -331.0 240.5 -365.0 250.0 -399.0 266.5 -418.5 285.0 -439.5 305.5 -446.5 325.5 -453.5 351.5 -453.5 377.5 -453.5 400.0 -445.0 422.5 -436.5 438.5 -416.0 454.5 -396.0 463.5 -362.5 472.5 -329.0 472.5 -279.5 472.5 -226.0 464.0 -195.5 455.0 -165.5 437.5 -144.0 M659.0 -280.5 L659.0 -280.5 Q659.0 -419.0 579.0 -499.0 498.5 -579.0 351.5 -579.0 206.5 -579.0 125.5 -499.5 44.0 -420.0 44.0 -280.5 44.0 -142.0 125.0 -62.0 205.5 17.5 351.5 17.5 497.5 17.5 578.5 -62.0 659.0 -142.0 659.0 -280.5" fill-rule="evenodd" stroke="none"/>
    </g>
    <g id="font_Verdana_n0">
      <path d="M649.0 0.0 L649.0 -365.5 Q649.0 -471.0 598.0 -524.0 546.5 -577.0 456.0 -577.0 402.0 -577.0 357.5 -557.0 313.5 -537.0 265.5 -499.5 L265.5 -561.5 85.0 -561.5 85.0 0.0 265.5 0.0 265.5 -398.0 Q295.0 -415.5 320.5 -423.5 345.5 -431.5 370.0 -431.5 404.5 -431.5 424.0 -423.0 443.0 -414.5 453.0 -396.0 461.5 -380.0 465.0 -346.0 468.5 -312.5 468.5 -278.5 L468.5 0.0 649.0 0.0" fill-rule="evenodd" stroke="none"/>
    </g>
    <g id="font_Verdana_30">
      <path d="M604.0 -349.0 L604.0 -349.0 Q580.5 -369.0 552.0 -379.5 523.5 -390.0 498.0 -393.5 L498.0 -400.5 Q561.0 -414.0 599.5 -462.5 638.0 -511.5 638.0 -573.5 638.0 -620.5 618.0 -655.5 598.0 -690.5 557.0 -715.0 522.5 -735.5 469.5 -747.5 416.5 -760.0 346.0 -760.0 273.5 -760.0 203.0 -744.5 132.5 -729.5 91.5 -713.0 L91.5 -551.5 110.0 -551.5 Q161.5 -582.0 216.5 -598.0 271.5 -614.5 318.5 -614.5 337.5 -614.5 364.0 -611.5 390.5 -608.5 410.0 -599.5 427.5 -591.5 439.0 -577.5 450.5 -564.0 450.5 -541.5 450.5 -511.0 439.5 -495.0 428.5 -479.5 406.5 -470.0 385.5 -461.0 355.5 -458.5 325.5 -456.0 286.5 -456.0 L244.0 -456.0 244.0 -323.0 285.0 -323.0 Q314.5 -323.0 349.0 -322.0 383.5 -321.5 408.0 -313.5 432.5 -306.0 447.5 -288.0 462.5 -270.5 462.5 -238.0 462.5 -204.5 451.5 -186.5 440.5 -169.0 422.0 -156.5 398.5 -140.5 364.5 -135.5 330.5 -131.0 301.5 -131.0 252.0 -131.0 192.5 -150.0 132.5 -169.0 89.5 -195.0 L70.0 -195.0 70.0 -31.5 Q111.5 -13.5 178.0 1.0 244.0 15.5 336.5 15.5 417.5 15.5 474.5 -1.0 531.0 -18.0 573.0 -49.5 616.0 -82.0 637.0 -127.5 657.5 -173.0 657.5 -225.5 657.5 -272.0 643.0 -300.0 628.5 -328.0 604.0 -349.0" fill-rule="evenodd" stroke="none"/>
    </g>
    <g id="text1" transform="matrix(1.0, 0.0, 0.0, 1.0, -68.7, -1.65)">
      <g transform="matrix(1.0, 0.0, 0.0, 1.0, 68.15, 0.0)">
        <use fill="#cccccc" fill-opacity="0.41960785" height="25.75" transform="matrix(0.0107, 0.0, 0.0, 0.0107, 0.0, 11.0)" width="162.05" xlink:href="#font_Verdana_P0"/>
        <use fill="#cccccc" fill-opacity="0.41960785" height="25.75" transform="matrix(0.0107, 0.0, 0.0, 0.0107, 6.65, 11.0)" width="162.05" xlink:href="#font_Verdana_r0"/>
        <use fill="#cccccc" fill-opacity="0.41960785" height="25.75" transform="matrix(0.0107, 0.0, 0.0, 0.0107, 11.35, 11.0)" width="162.05" xlink:href="#font_Verdana_e1"/>
        <use fill="#cccccc" fill-opacity="0.41960785" height="25.75" transform="matrix(0.0107, 0.0, 0.0, 0.0107, 17.9, 11.0)" width="162.05" xlink:href="#font_Verdana_s1"/>
        <use fill="#cccccc" fill-opacity="0.41960785" height="25.75" transform="matrix(0.0107, 0.0, 0.0, 0.0107, 23.65, 11.0)" width="162.05" xlink:href="#font_Verdana_s1"/>
        <use fill="#cccccc" fill-opacity="0.41960785" height="25.75" transform="matrix(0.0107, 0.0, 0.0, 0.0107, 33.25, 11.0)" width="162.05" xlink:href="#font_Verdana_S0"/>
        <use fill="#cccccc" fill-opacity="0.41960785" height="25.75" transform="matrix(0.0107, 0.0, 0.0, 0.0107, 40.75, 11.0)" width="162.05" xlink:href="#font_Verdana_P0"/>
        <use fill="#cccccc" fill-opacity="0.41960785" height="25.75" transform="matrix(0.0107, 0.0, 0.0, 0.0107, 47.4, 11.0)" width="162.05" xlink:href="#font_Verdana_A0"/>
        <use fill="#cccccc" fill-opacity="0.41960785" height="25.75" transform="matrix(0.0107, 0.0, 0.0, 0.0107, 54.9, 11.0)" width="162.05" xlink:href="#font_Verdana_C0"/>
        <use fill="#cccccc" fill-opacity="0.41960785" height="25.75" transform="matrix(0.0107, 0.0, 0.0, 0.0107, 62.6, 11.0)" width="162.05" xlink:href="#font_Verdana_E0"/>
        <use fill="#cccccc" fill-opacity="0.41960785" height="25.75" transform="matrix(0.0107, 0.0, 0.0, 0.0107, 69.55, 11.0)" width="162.05" xlink:href="#font_Verdana_B0"/>
        <use fill="#cccccc" fill-opacity="0.41960785" height="25.75" transform="matrix(0.0107, 0.0, 0.0, 0.0107, 77.1, 11.0)" width="162.05" xlink:href="#font_Verdana_A0"/>
        <use fill="#cccccc" fill-opacity="0.41960785" height="25.75" transform="matrix(0.0107, 0.0, 0.0, 0.0107, 84.6, 11.0)" width="162.05" xlink:href="#font_Verdana_R0"/>
        <use fill="#cccccc" fill-opacity="0.41960785" height="25.75" transform="matrix(0.0107, 0.0, 0.0, 0.0107, 96.1, 11.0)" width="162.05" xlink:href="#font_Verdana_t0"/>
        <use fill="#cccccc" fill-opacity="0.41960785" height="25.75" transform="matrix(0.0107, 0.0, 0.0, 0.0107, 100.45, 11.0)" width="162.05" xlink:href="#font_Verdana_o1"/>
        <use fill="#cccccc" fill-opacity="0.41960785" height="25.75" transform="matrix(0.0107, 0.0, 0.0, 0.0107, 111.0, 11.0)" width="162.05" xlink:href="#font_Verdana_s1"/>
        <use fill="#cccccc" fill-opacity="0.41960785" height="25.75" transform="matrix(0.0107, 0.0, 0.0, 0.0107, 116.75, 11.0)" width="162.05" xlink:href="#font_Verdana_h0"/>
        <use fill="#cccccc" fill-opacity="0.41960785" height="25.75" transform="matrix(0.0107, 0.0, 0.0, 0.0107, 123.7, 11.0)" width="162.05" xlink:href="#font_Verdana_o1"/>
        <use fill="#cccccc" fill-opacity="0.41960785" height="25.75" transform="matrix(0.0107, 0.0, 0.0, 0.0107, 130.4, 11.0)" width="162.05" xlink:href="#font_Verdana_o1"/>
        <use fill="#cccccc" fill-opacity="0.41960785" height="25.75" transform="matrix(0.0107, 0.0, 0.0, 0.0107, 137.1, 11.0)" width="162.05" xlink:href="#font_Verdana_t0"/>
        <use fill="#cccccc" fill-opacity="0.41960785" height="25.75" transform="matrix(0.0107, 0.0, 0.0, 0.0107, 145.3, 11.0)" width="162.05" xlink:href="#font_Verdana_t0"/>
        <use fill="#cccccc" fill-opacity="0.41960785" height="25.75" transform="matrix(0.0107, 0.0, 0.0, 0.0107, 149.65, 11.0)" width="162.05" xlink:href="#font_Verdana_h0"/>
        <use fill="#cccccc" fill-opacity="0.41960785" height="25.75" transform="matrix(0.0107, 0.0, 0.0, 0.0107, 156.6, 11.0)" width="162.05" xlink:href="#font_Verdana_e1"/>
      </g>
      <g transform="matrix(1.0, 0.0, 0.0, 1.0, 68.15, 0.0)">
        <use fill="#cccccc" fill-opacity="0.41960785" height="25.75" transform="matrix(0.0107, 0.0, 0.0, 0.0107, 0.0, 26.0)" width="162.05" xlink:href="#font_Verdana_c0"/>
        <use fill="#cccccc" fill-opacity="0.41960785" height="25.75" transform="matrix(0.0107, 0.0, 0.0, 0.0107, 5.75, 26.0)" width="162.05" xlink:href="#font_Verdana_h0"/>
        <use fill="#cccccc" fill-opacity="0.41960785" height="25.75" transform="matrix(0.0107, 0.0, 0.0, 0.0107, 12.7, 26.0)" width="162.05" xlink:href="#font_Verdana_r0"/>
        <use fill="#cccccc" fill-opacity="0.41960785" height="25.75" transform="matrix(0.0107, 0.0, 0.0, 0.0107, 17.4, 26.0)" width="162.05" xlink:href="#font_Verdana_i0"/>
        <use fill="#cccccc" fill-opacity="0.41960785" height="25.75" transform="matrix(0.0107, 0.0, 0.0, 0.0107, 20.4, 26.0)" width="162.05" xlink:href="#font_Verdana_s1"/>
        <use fill="#cccccc" fill-opacity="0.41960785" height="25.75" transform="matrix(0.0107, 0.0, 0.0, 0.0107, 26.15, 26.0)" width="162.05" xlink:href="#font_Verdana_t0"/>
        <use fill="#cccccc" fill-opacity="0.41960785" height="25.75" transform="matrix(0.0107, 0.0, 0.0, 0.0107, 30.5, 26.0)" width="162.05" xlink:href="#font_Verdana_m0"/>
        <use fill="#cccccc" fill-opacity="0.41960785" height="25.75" transform="matrix(0.0107, 0.0, 0.0, 0.0107, 41.2, 26.0)" width="162.05" xlink:href="#font_Verdana_a0"/>
        <use fill="#cccccc" fill-opacity="0.41960785" height="25.75" transform="matrix(0.0107, 0.0, 0.0, 0.0107, 47.8, 26.0)" width="162.05" xlink:href="#font_Verdana_s1"/>
        <use fill="#cccccc" fill-opacity="0.41960785" height="25.75" transform="matrix(0.0107, 0.0, 0.0, 0.0107, 57.4, 26.0)" width="162.05" xlink:href="#font_Verdana_b0"/>
        <use fill="#cccccc" fill-opacity="0.41960785" height="25.75" transform="matrix(0.0107, 0.0, 0.0, 0.0107, 64.25, 26.0)" width="162.05" xlink:href="#font_Verdana_a0"/>
        <use fill="#cccccc" fill-opacity="0.41960785" height="25.75" transform="matrix(0.0107, 0.0, 0.0, 0.0107, 70.85, 26.0)" width="162.05" xlink:href="#font_Verdana_l0"/>
        <use fill="#cccccc" fill-opacity="0.41960785" height="25.75" transform="matrix(0.0107, 0.0, 0.0, 0.0107, 73.85, 26.0)" width="162.05" xlink:href="#font_Verdana_l0"/>
        <use fill="#cccccc" fill-opacity="0.41960785" height="25.75" transform="matrix(0.0107, 0.0, 0.0, 0.0107, 80.7, 26.0)" width="162.05" xlink:href="#font_Verdana_.0"/>
        <use fill="#cccccc" fill-opacity="0.41960785" height="25.75" transform="matrix(0.0107, 0.0, 0.0, 0.0107, 84.7, 26.0)" width="162.05" xlink:href="#font_Verdana_.0"/>
        <use fill="#cccccc" fill-opacity="0.41960785" height="25.75" transform="matrix(0.0107, 0.0, 0.0, 0.0107, 88.7, 26.0)" width="162.05" xlink:href="#font_Verdana_.0"/>
      </g>
    </g>
    <g id="font_Verdana_P0">
      <path d="M484.0 -517.0 L484.0 -517.0 Q484.0 -484.0 474.5 -457.5 464.5 -431.0 441.0 -407.0 417.5 -383.5 380.0 -372.5 342.5 -362.0 282.5 -362.0 L199.0 -362.0 199.0 -659.5 297.0 -659.5 Q344.0 -659.5 375.0 -652.5 405.5 -646.0 429.5 -630.5 457.0 -612.5 470.5 -584.0 484.0 -555.5 484.0 -517.0 M587.0 -519.5 L587.0 -519.5 Q587.0 -584.5 564.0 -627.0 540.5 -669.5 498.0 -698.0 462.0 -722.0 415.5 -733.0 369.0 -744.5 302.0 -744.5 L100.0 -744.5 100.0 0.0 199.0 0.0 199.0 -277.5 298.0 -277.5 Q378.0 -277.5 430.5 -296.5 483.0 -316.0 521.5 -354.5 552.5 -385.5 570.0 -427.5 587.0 -470.0 587.0 -519.5" fill-rule="evenodd" stroke="none"/>
    </g>
    <g id="font_Verdana_r0">
      <path d="M441.0 -456.0 L441.0 -552.5 Q419.0 -556.0 408.0 -557.0 397.0 -558.5 372.5 -558.5 328.0 -558.5 285.5 -539.5 242.5 -521.0 186.5 -476.0 L186.5 -558.5 92.5 -558.5 92.5 0.0 186.5 0.0 186.5 -396.5 Q224.0 -427.0 264.5 -446.0 305.0 -465.5 348.5 -465.5 375.5 -465.5 395.5 -463.0 415.0 -461.0 436.0 -456.0 L441.0 -456.0" fill-rule="evenodd" stroke="none"/>
    </g>
    <g id="font_Verdana_e1">
      <path d="M468.5 -341.5 L148.5 -341.5 Q154.5 -407.5 199.5 -452.0 244.0 -496.5 319.5 -496.5 394.5 -496.5 431.5 -456.0 468.0 -415.5 468.5 -341.5 M560.0 -269.5 L560.0 -320.5 Q560.0 -442.0 499.0 -508.0 437.5 -574.0 324.5 -574.0 202.5 -574.0 128.0 -493.5 53.0 -413.0 53.0 -276.0 53.0 -137.5 131.0 -62.0 209.0 13.0 348.0 13.0 402.5 13.0 452.0 -0.5 501.5 -14.0 549.0 -34.0 L549.0 -136.5 544.0 -136.5 Q519.5 -114.5 462.0 -91.5 404.0 -69.0 347.0 -69.0 304.0 -69.0 268.5 -81.0 232.5 -93.0 206.5 -117.0 179.5 -141.5 164.0 -179.5 148.5 -218.0 148.5 -269.5 L560.0 -269.5" fill-rule="evenodd" stroke="none"/>
    </g>
    <g id="font_Verdana_s1">
      <path d="M491.5 -161.0 L491.5 -161.0 Q491.5 -222.0 456.0 -259.0 420.5 -295.5 355.0 -310.5 333.5 -315.5 301.5 -321.5 269.0 -327.5 243.0 -333.5 196.0 -344.5 175.0 -362.0 153.5 -379.5 153.5 -414.0 153.5 -453.0 189.0 -472.5 224.5 -492.5 276.0 -492.5 325.5 -492.5 377.0 -474.0 428.5 -456.0 464.5 -429.5 L469.5 -429.5 469.5 -530.0 Q435.5 -547.5 384.5 -559.5 333.0 -572.0 283.0 -572.0 229.5 -572.0 186.5 -558.0 143.0 -544.5 115.0 -521.0 86.0 -497.0 72.0 -466.5 57.5 -436.0 57.5 -401.5 57.5 -346.5 88.5 -308.5 119.0 -271.0 192.5 -251.5 219.0 -244.5 251.5 -238.5 283.5 -232.5 303.5 -228.0 357.5 -216.0 376.5 -199.0 395.5 -182.0 395.5 -149.0 395.5 -106.0 360.5 -86.0 325.5 -66.0 263.5 -66.0 213.5 -66.0 159.0 -85.5 104.5 -105.5 60.0 -139.0 L55.0 -139.0 55.0 -33.5 Q90.0 -16.0 142.0 -1.0 193.5 13.5 255.5 13.5 365.0 13.5 428.5 -35.5 491.5 -84.5 491.5 -161.0" fill-rule="evenodd" stroke="none"/>
    </g>
    <g id="font_Verdana_S0">
      <path d="M641.0 -212.5 L641.0 -212.5 Q641.0 -292.5 599.0 -337.0 557.0 -381.5 474.0 -403.5 433.0 -414.0 374.0 -424.0 315.0 -434.0 283.0 -441.0 222.5 -455.0 198.5 -481.5 174.5 -508.0 174.5 -554.5 174.5 -606.5 223.0 -639.5 271.0 -672.5 350.5 -672.5 423.0 -672.5 492.5 -648.5 561.5 -625.0 604.0 -589.0 L611.0 -589.0 611.0 -706.0 Q560.5 -728.0 495.0 -743.0 429.5 -758.0 351.0 -758.0 229.5 -758.0 150.5 -698.0 71.5 -638.5 71.5 -545.0 71.5 -463.5 119.5 -412.5 167.0 -362.0 266.0 -341.0 315.0 -331.0 359.0 -324.5 402.5 -318.0 440.0 -308.0 489.5 -295.0 514.0 -271.5 538.0 -248.0 538.0 -198.5 538.0 -141.0 487.0 -106.5 435.5 -72.0 343.5 -72.0 278.5 -72.0 204.5 -97.5 130.5 -123.0 74.0 -170.0 L67.0 -170.0 67.0 -46.0 Q133.5 -16.5 198.0 -1.5 262.0 13.5 342.5 13.5 417.5 13.5 471.0 -4.5 524.0 -22.5 564.0 -54.5 600.5 -84.0 621.0 -126.5 641.0 -169.0 641.0 -212.5" fill-rule="evenodd" stroke="none"/>
    </g>
    <g id="font_Verdana_A0">
      <path d="M478.0 -292.5 L216.5 -292.5 347.5 -658.0 478.0 -292.5 M687.0 0.0 L416.0 -744.5 284.0 -744.5 13.0 0.0 113.5 0.0 186.5 -207.5 508.5 -207.5 581.5 0.0 687.0 0.0" fill-rule="evenodd" stroke="none"/>
    </g>
    <g id="font_Verdana_C0">
      <path d="M675.0 -54.0 L675.0 -170.0 668.0 -170.0 Q613.5 -121.0 551.0 -96.5 488.5 -72.0 417.0 -72.0 365.0 -72.0 318.5 -89.5 271.5 -107.5 236.5 -144.5 203.0 -180.0 182.0 -236.5 160.5 -293.0 160.5 -371.5 160.5 -446.5 180.0 -503.5 199.0 -561.0 233.5 -598.5 269.0 -637.0 314.5 -655.0 359.5 -673.5 416.0 -673.5 485.0 -673.5 545.5 -650.0 606.0 -626.5 667.5 -575.0 L675.0 -575.0 675.0 -692.5 Q602.0 -729.0 542.5 -743.5 482.5 -758.0 422.5 -758.0 340.5 -758.0 273.5 -732.5 206.0 -707.0 158.5 -658.5 109.5 -608.5 83.5 -536.0 57.5 -463.5 57.5 -371.5 57.5 -274.5 84.5 -201.0 111.5 -128.0 159.5 -80.5 208.5 -32.0 275.0 -9.0 341.0 13.5 422.0 13.5 465.0 13.5 501.0 7.0 536.5 0.0 567.0 -9.5 603.0 -21.0 625.5 -31.5 647.5 -42.0 675.0 -54.0" fill-rule="evenodd" stroke="none"/>
    </g>
    <g id="font_Verdana_E0">
      <path d="M590.5 0.0 L590.5 -88.0 199.0 -88.0 199.0 -364.5 590.5 -364.5 590.5 -452.5 199.0 -452.5 199.0 -656.5 590.5 -656.5 590.5 -744.5 100.0 -744.5 100.0 0.0 590.5 0.0" fill-rule="evenodd" stroke="none"/>
    </g>
    <g id="font_Verdana_B0">
      <path d="M558.5 -225.0 L558.5 -225.0 Q558.5 -185.5 545.5 -160.5 532.5 -135.5 504.5 -116.0 478.0 -98.0 436.5 -91.0 395.0 -84.5 330.0 -84.5 L199.0 -84.5 199.0 -361.5 354.5 -361.5 Q403.5 -361.5 438.0 -357.5 472.0 -354.0 496.0 -341.5 531.5 -323.0 545.0 -296.5 558.5 -270.0 558.5 -225.0 M495.0 -564.5 L495.0 -564.5 Q495.0 -532.0 485.5 -508.0 475.5 -484.5 452.0 -469.5 428.5 -454.5 401.0 -449.5 373.5 -445.0 327.0 -445.0 L199.0 -445.0 199.0 -660.0 317.0 -660.0 Q366.5 -660.0 400.0 -656.5 433.5 -653.5 457.0 -640.0 477.0 -628.5 486.0 -610.0 495.0 -591.5 495.0 -564.5 M661.5 -229.0 L661.5 -229.0 Q661.5 -306.5 618.0 -357.0 574.5 -408.0 499.0 -423.5 L499.0 -427.5 Q544.0 -450.0 571.0 -487.0 598.0 -524.5 598.0 -577.5 598.0 -624.5 579.5 -658.0 561.0 -692.0 520.0 -713.5 483.0 -732.5 442.5 -738.5 402.0 -744.5 320.5 -744.5 L100.0 -744.5 100.0 0.0 364.0 0.0 Q441.5 0.0 492.0 -14.0 542.0 -28.0 584.0 -61.0 619.5 -88.5 640.5 -131.0 661.5 -173.5 661.5 -229.0" fill-rule="evenodd" stroke="none"/>
    </g>
    <g id="font_Verdana_R0">
      <path d="M484.5 -535.0 L484.5 -535.0 Q484.5 -493.0 474.0 -465.5 463.0 -438.5 440.5 -417.5 416.0 -395.0 381.0 -386.5 346.0 -378.5 299.0 -378.5 L199.0 -378.5 199.0 -659.5 315.5 -659.5 Q355.5 -659.5 385.0 -653.5 414.5 -648.0 436.0 -633.5 462.0 -616.5 473.5 -591.5 484.5 -567.0 484.5 -535.0 M716.0 0.0 L436.0 -325.5 Q507.0 -353.0 547.5 -407.0 588.0 -461.5 588.0 -542.0 588.0 -601.5 565.5 -640.0 542.5 -679.0 502.0 -704.5 466.0 -727.0 421.0 -735.5 376.0 -744.5 308.5 -744.5 L100.0 -744.5 100.0 0.0 199.0 0.0 199.0 -296.0 338.5 -296.0 587.5 0.0 716.0 0.0" fill-rule="evenodd" stroke="none"/>
    </g>
    <g id="font_Verdana_t0">
      <path d="M382.5 -5.0 L382.5 -89.5 377.5 -89.5 Q366.5 -85.0 341.5 -78.0 316.5 -71.5 293.5 -71.5 254.0 -71.5 235.0 -80.5 215.5 -90.0 204.5 -110.0 192.5 -131.5 190.5 -156.0 188.5 -181.0 188.5 -225.0 L188.5 -479.5 382.5 -479.5 382.5 -558.5 188.5 -558.5 188.5 -719.0 94.5 -719.0 94.5 -558.5 31.0 -558.5 31.0 -479.5 94.5 -479.5 94.5 -182.5 Q94.5 -81.0 139.0 -35.0 183.5 11.0 269.0 11.0 293.5 11.0 325.0 6.5 356.0 2.0 382.5 -5.0" fill-rule="evenodd" stroke="none"/>
    </g>
    <g id="font_Verdana_o1">
      <path d="M471.5 -279.0 L471.5 -279.0 Q471.5 -173.0 429.0 -119.0 386.0 -65.5 311.0 -65.5 235.0 -65.5 192.5 -119.5 150.0 -174.0 150.0 -279.0 150.0 -387.5 192.5 -440.0 234.5 -493.0 311.0 -493.0 386.5 -493.0 429.0 -440.0 471.5 -387.5 471.5 -279.0 M568.5 -279.0 L568.5 -279.0 Q568.5 -415.5 498.5 -494.5 428.5 -574.0 311.0 -574.0 192.5 -574.0 123.0 -494.5 53.0 -415.5 53.0 -279.0 53.0 -142.5 123.0 -63.5 192.5 15.5 311.0 15.5 428.5 15.5 498.5 -63.5 568.5 -142.5 568.5 -279.0" fill-rule="evenodd" stroke="none"/>
    </g>
    <g id="font_Verdana_h0">
      <path d="M559.5 0.0 L559.5 -362.5 Q559.5 -465.0 512.0 -519.5 464.5 -574.0 374.0 -574.0 324.5 -574.0 277.5 -553.5 230.5 -533.0 186.5 -496.5 L186.5 -778.0 92.5 -778.0 92.5 0.0 186.5 0.0 186.5 -417.0 Q225.0 -446.5 267.0 -465.5 309.0 -484.5 347.5 -484.5 385.0 -484.5 408.5 -474.0 432.0 -464.0 444.5 -443.0 456.5 -424.0 461.0 -390.0 465.5 -356.5 465.5 -318.0 L465.5 0.0 559.5 0.0" fill-rule="evenodd" stroke="none"/>
    </g>
    <g id="font_Verdana_c0">
      <path d="M505.5 -35.0 L505.5 -138.5 500.5 -138.5 Q490.0 -130.0 472.0 -118.0 454.0 -106.5 433.5 -96.0 410.0 -84.0 380.5 -76.5 351.0 -69.0 322.5 -69.0 240.5 -69.0 195.5 -123.0 150.0 -177.5 150.0 -278.5 150.0 -382.5 196.5 -436.0 242.5 -490.0 322.5 -490.0 366.0 -490.0 412.0 -472.0 457.5 -454.0 500.5 -420.5 L505.5 -420.5 505.5 -525.0 Q467.0 -544.5 421.0 -558.0 374.5 -571.5 326.5 -571.5 203.0 -571.5 128.0 -493.5 52.5 -415.5 52.5 -278.5 52.5 -205.0 72.5 -150.0 92.5 -95.0 129.0 -59.0 165.0 -23.0 215.5 -5.0 266.0 12.5 326.5 12.5 374.0 12.5 416.5 0.0 458.5 -12.5 505.5 -35.0" fill-rule="evenodd" stroke="none"/>
    </g>
    <g id="font_Verdana_i0">
      <path d="M187.5 0.0 L187.5 -558.5 93.5 -558.5 93.5 0.0 187.5 0.0 M193.5 -652.0 L193.5 -749.5 87.5 -749.5 87.5 -652.0 193.5 -652.0" fill-rule="evenodd" stroke="none"/>
    </g>
    <g id="font_Verdana_m0">
      <path d="M907.5 0.0 L907.5 -362.5 Q907.5 -462.5 864.0 -518.0 820.0 -574.0 728.0 -574.0 674.5 -574.0 627.5 -552.5 580.5 -531.5 523.5 -483.5 504.0 -526.0 464.5 -550.0 424.5 -574.0 367.5 -574.0 318.0 -574.0 274.5 -553.5 230.5 -533.0 186.5 -496.5 L186.5 -558.5 92.5 -558.5 92.5 0.0 186.5 0.0 186.5 -417.0 Q225.0 -446.5 264.0 -465.5 302.5 -484.5 341.0 -484.5 381.5 -484.5 403.0 -473.5 424.5 -463.0 436.0 -441.5 446.5 -421.5 450.0 -388.0 453.0 -355.0 453.0 -318.0 L453.0 0.0 547.0 0.0 547.0 -357.5 Q547.0 -372.5 546.0 -387.5 545.0 -403.0 543.5 -414.5 583.0 -445.0 622.5 -464.5 662.0 -484.5 701.5 -484.5 742.0 -484.5 763.5 -473.5 785.0 -462.5 796.5 -441.0 807.0 -421.0 810.5 -387.5 813.5 -354.0 813.5 -318.0 L813.5 0.0 907.5 0.0" fill-rule="evenodd" stroke="none"/>
    </g>
    <g id="font_Verdana_a0">
      <path d="M433.0 -137.5 L433.0 -137.5 Q398.0 -110.5 357.0 -91.0 316.0 -72.0 266.5 -72.0 207.0 -72.0 178.0 -96.0 149.0 -120.5 149.0 -168.5 149.0 -211.0 174.0 -235.0 199.0 -259.5 239.5 -271.0 273.5 -280.5 332.0 -285.5 390.0 -290.5 433.0 -293.0 L433.0 -137.5 M526.5 0.0 L526.5 -379.0 Q526.5 -433.0 510.0 -469.5 493.5 -506.0 462.0 -529.0 430.0 -552.5 386.5 -562.0 342.5 -572.0 283.5 -572.0 233.0 -572.0 181.0 -563.0 129.0 -554.0 101.5 -546.5 L101.5 -451.0 106.5 -451.0 Q155.0 -469.5 200.5 -479.0 246.0 -489.0 283.0 -489.0 313.5 -489.0 341.5 -485.0 369.5 -481.0 389.5 -469.5 410.5 -457.5 422.0 -436.5 433.0 -415.5 433.0 -383.5 L433.0 -369.0 Q351.0 -365.0 279.5 -357.0 208.0 -349.0 157.0 -326.5 106.5 -304.0 79.5 -264.5 52.0 -225.5 52.0 -162.0 52.0 -84.5 104.5 -34.5 157.0 15.5 232.5 15.5 273.5 15.5 304.0 8.0 334.5 0.0 358.0 -11.5 378.0 -20.5 399.5 -35.5 420.5 -51.0 433.0 -59.5 L433.0 0.0 526.5 0.0" fill-rule="evenodd" stroke="none"/>
    </g>
    <g id="font_Verdana_b0">
      <path d="M487.0 -281.0 L487.0 -281.0 Q487.0 -171.5 443.0 -120.0 398.5 -69.0 320.5 -69.0 284.0 -69.0 255.5 -76.0 226.5 -83.0 186.5 -101.0 L186.5 -421.0 Q222.5 -449.0 264.5 -466.5 306.5 -484.5 347.5 -484.5 421.0 -484.5 454.0 -432.5 487.0 -381.0 487.0 -281.0 M584.0 -283.5 L584.0 -283.5 Q584.0 -422.0 527.0 -498.0 469.5 -574.0 370.5 -574.0 315.0 -574.0 270.5 -553.0 226.0 -532.5 186.5 -500.0 L186.5 -778.0 92.5 -778.0 92.5 0.0 180.5 0.0 186.5 -26.0 Q221.0 -7.0 256.5 4.5 292.0 15.5 339.5 15.5 390.5 15.5 433.0 -4.0 475.5 -24.0 511.0 -63.5 544.5 -101.5 564.5 -157.5 584.0 -213.5 584.0 -283.5" fill-rule="evenodd" stroke="none"/>
    </g>
    <g id="font_Verdana_l0">
      <path d="M187.5 0.0 L187.5 -778.0 93.5 -778.0 93.5 0.0 187.5 0.0" fill-rule="evenodd" stroke="none"/>
    </g>
    <g id="font_Verdana_.0">
      <path d="M246.0 0.0 L246.0 -142.5 126.5 -142.5 126.5 0.0 246.0 0.0" fill-rule="evenodd" stroke="none"/>
    </g>
  </defs>
</svg>
