<?xml version="1.0" encoding="UTF-8" standalone="no"?>
<svg xmlns:xlink="http://www.w3.org/1999/xlink" height="338.1px" width="676.9px" xmlns="http://www.w3.org/2000/svg">
  <g transform="matrix(1.0, 0.0, 0.0, 1.0, 203.95, 157.0)">
    <use height="81.0" transform="matrix(1.0145, 0.0, 0.0, 1.0145, -11.75, 3.35)" width="234.95" xlink:href="#sprite0"/>
  </g>
  <defs>
    <g id="sprite0" transform="matrix(1.0, 0.0, 0.0, 1.0, 0.0, 0.0)">
      <use height="81.0" transform="matrix(1.0, 0.0, 0.0, 1.0, 0.0, 0.0)" width="234.95" xlink:href="#shape0"/>
      <use height="12.6" transform="matrix(1.0, 0.0, 0.0, 1.0, 52.5, 33.1)" width="138.5" xlink:href="#text0"/>
    </g>
    <g id="shape0" transform="matrix(1.0, 0.0, 0.0, 1.0, 0.0, 0.0)">
      <path d="M232.95 13.0 L232.95 68.0 221.95 79.0 11.0 79.0 2.0 70.0 2.0 2.0 221.95 2.0 232.95 13.0 M223.95 0.0 L234.95 0.0 234.95 11.0 223.95 0.0 M234.95 81.0 L223.95 81.0 234.95 70.0 234.95 81.0 M9.0 81.0 L0.0 81.0 0.0 72.0 9.0 81.0" fill="#000000" fill-opacity="0.67058825" fill-rule="evenodd" stroke="none"/>
    </g>
    <g id="text0" transform="matrix(1.0, 0.0, 0.0, 1.0, -111.3, -1.65)">
      <g transform="matrix(1.0, 0.0, 0.0, 1.0, 68.15, 0.0)">
        <use fill="#ffffff" fill-opacity="0.95686275" height="12.6" transform="matrix(0.0107, 0.0, 0.0, 0.0107, 43.0, 11.0)" width="138.5" xlink:href="#font_Verdana_T0"/>
        <use fill="#ffffff" fill-opacity="0.95686275" height="12.6" transform="matrix(0.0107, 0.0, 0.0, 0.0107, 50.5, 11.0)" width="138.5" xlink:href="#font_Verdana_r0"/>
        <use fill="#ffffff" fill-opacity="0.95686275" height="12.6" transform="matrix(0.0107, 0.0, 0.0, 0.0107, 55.95, 11.0)" width="138.5" xlink:href="#font_Verdana_a0"/>
        <use fill="#ffffff" fill-opacity="0.95686275" height="12.6" transform="matrix(0.0107, 0.0, 0.0, 0.0107, 63.3, 11.0)" width="138.5" xlink:href="#font_Verdana_i0"/>
        <use fill="#ffffff" fill-opacity="0.95686275" height="12.6" transform="matrix(0.0107, 0.0, 0.0, 0.0107, 67.05, 11.0)" width="138.5" xlink:href="#font_Verdana_n0"/>
        <use fill="#ffffff" fill-opacity="0.95686275" height="12.6" transform="matrix(0.0107, 0.0, 0.0, 0.0107, 74.9, 11.0)" width="138.5" xlink:href="#font_Verdana_i0"/>
        <use fill="#ffffff" fill-opacity="0.95686275" height="12.6" transform="matrix(0.0107, 0.0, 0.0, 0.0107, 78.65, 11.0)" width="138.5" xlink:href="#font_Verdana_n0"/>
        <use fill="#ffffff" fill-opacity="0.95686275" height="12.6" transform="matrix(0.0107, 0.0, 0.0, 0.0107, 86.5, 11.0)" width="138.5" xlink:href="#font_Verdana_g0"/>
        <use fill="#ffffff" fill-opacity="0.95686275" height="12.6" transform="matrix(0.0107, 0.0, 0.0, 0.0107, 97.95, 11.0)" width="138.5" xlink:href="#font_Verdana_C0"/>
        <use fill="#ffffff" fill-opacity="0.95686275" height="12.6" transform="matrix(0.0107, 0.0, 0.0, 0.0107, 105.9, 11.0)" width="138.5" xlink:href="#font_Verdana_o0"/>
        <use fill="#ffffff" fill-opacity="0.95686275" height="12.6" transform="matrix(0.0107, 0.0, 0.0, 0.0107, 113.45, 11.0)" width="138.5" xlink:href="#font_Verdana_m0"/>
        <use fill="#ffffff" fill-opacity="0.95686275" height="12.6" transform="matrix(0.0107, 0.0, 0.0, 0.0107, 125.1, 11.0)" width="138.5" xlink:href="#font_Verdana_p0"/>
        <use fill="#ffffff" fill-opacity="0.95686275" height="12.6" transform="matrix(0.0107, 0.0, 0.0, 0.0107, 132.8, 11.0)" width="138.5" xlink:href="#font_Verdana_l0"/>
        <use fill="#ffffff" fill-opacity="0.95686275" height="12.6" transform="matrix(0.0107, 0.0, 0.0, 0.0107, 136.55, 11.0)" width="138.5" xlink:href="#font_Verdana_e0"/>
        <use fill="#ffffff" fill-opacity="0.95686275" height="12.6" transform="matrix(0.0107, 0.0, 0.0, 0.0107, 143.85, 11.0)" width="138.5" xlink:href="#font_Verdana_t0"/>
        <use fill="#ffffff" fill-opacity="0.95686275" height="12.6" transform="matrix(0.0107, 0.0, 0.0, 0.0107, 148.85, 11.0)" width="138.5" xlink:href="#font_Verdana_e0"/>
        <use fill="#ffffff" fill-opacity="0.95686275" height="12.6" transform="matrix(0.0107, 0.0, 0.0, 0.0107, 156.15, 11.0)" width="138.5" xlink:href="#font_Verdana_d0"/>
        <use fill="#ffffff" fill-opacity="0.95686275" height="12.6" transform="matrix(0.0107, 0.0, 0.0, 0.0107, 167.6, 11.0)" width="138.5" xlink:href="#font_Verdana__1"/>
      </g>
    </g>
    <g id="font_Verdana_T0">
      <path d="M677.5 -600.5 L677.5 -744.5 20.5 -744.5 20.5 -600.5 253.0 -600.5 253.0 0.0 445.0 0.0 445.0 -600.5 677.5 -600.5" fill-rule="evenodd" stroke="none"/>
    </g>
    <g id="font_Verdana_r0">
      <path d="M492.0 -390.0 L492.0 -561.5 Q483.0 -562.5 471.0 -563.0 459.0 -563.5 449.5 -563.5 412.5 -563.5 369.0 -546.5 325.0 -530.0 265.5 -479.0 L265.5 -561.5 85.0 -561.5 85.0 0.0 265.5 0.0 265.5 -376.0 Q299.5 -388.0 329.0 -393.0 358.5 -398.0 396.5 -398.0 413.5 -398.0 439.0 -396.0 464.5 -394.0 476.0 -390.0 L492.0 -390.0" fill-rule="evenodd" stroke="none"/>
    </g>
    <g id="font_Verdana_a0">
      <path d="M425.0 -59.5 L425.0 0.0 603.5 0.0 603.5 -382.0 Q603.5 -483.0 535.5 -530.0 467.0 -577.5 313.5 -577.5 249.0 -577.5 185.0 -567.0 120.5 -557.0 92.0 -549.5 L92.0 -414.0 108.5 -414.0 Q130.5 -422.5 181.0 -438.0 231.5 -454.0 276.0 -454.0 350.0 -454.0 388.0 -436.0 426.0 -418.5 426.0 -372.0 L426.0 -369.0 Q346.5 -364.5 272.5 -355.0 198.5 -345.5 148.5 -323.0 98.0 -300.5 70.5 -261.5 43.0 -222.5 43.0 -161.0 43.0 -84.0 97.0 -34.5 151.0 15.0 231.0 15.0 265.0 15.0 293.5 9.5 322.0 3.5 348.5 -8.5 367.5 -17.5 389.0 -33.0 410.5 -48.5 425.0 -59.5 M425.0 -147.0 L425.0 -147.0 Q404.0 -129.0 376.5 -118.0 348.5 -107.0 321.5 -107.0 287.5 -107.0 271.5 -111.5 255.5 -116.5 244.0 -126.5 232.0 -136.5 229.0 -147.5 226.0 -158.5 226.0 -176.0 226.0 -202.0 240.5 -218.5 254.5 -234.5 281.5 -243.0 303.5 -250.0 346.0 -255.5 388.5 -260.5 425.0 -263.5 L425.0 -147.0" fill-rule="evenodd" stroke="none"/>
    </g>
    <g id="font_Verdana_i0">
      <path d="M270.5 -641.5 L270.5 -778.0 80.0 -778.0 80.0 -641.5 270.5 -641.5 M265.5 0.0 L265.5 -561.5 85.0 -561.5 85.0 0.0 265.5 0.0" fill-rule="evenodd" stroke="none"/>
    </g>
    <g id="font_Verdana_n0">
      <path d="M649.0 0.0 L649.0 -365.5 Q649.0 -471.0 598.0 -524.0 546.5 -577.0 456.0 -577.0 402.0 -577.0 357.5 -557.0 313.5 -537.0 265.5 -499.5 L265.5 -561.5 85.0 -561.5 85.0 0.0 265.5 0.0 265.5 -398.0 Q295.0 -415.5 320.5 -423.5 345.5 -431.5 370.0 -431.5 404.5 -431.5 424.0 -423.0 443.0 -414.5 453.0 -396.0 461.5 -380.0 465.0 -346.0 468.5 -312.5 468.5 -278.5 L468.5 0.0 649.0 0.0" fill-rule="evenodd" stroke="none"/>
    </g>
    <g id="font_Verdana_g0">
      <path d="M450.5 -177.0 L450.5 -177.0 Q429.0 -163.0 403.0 -154.5 377.0 -146.0 350.0 -146.0 291.0 -146.0 260.5 -178.0 230.5 -210.0 230.5 -291.0 230.5 -364.0 266.0 -404.5 301.5 -445.5 372.0 -445.5 390.0 -445.5 412.5 -441.5 435.0 -438.0 450.5 -431.5 L450.5 -177.0 M631.0 -64.5 L631.0 -561.5 456.0 -561.5 449.5 -536.5 Q419.0 -555.5 382.0 -566.0 344.5 -577.0 299.0 -577.0 249.0 -577.0 200.5 -557.5 152.5 -538.0 119.5 -503.0 84.0 -465.5 64.5 -415.0 45.0 -364.5 45.0 -295.0 45.0 -150.0 109.0 -79.0 173.0 -8.0 290.5 -8.0 339.0 -8.0 378.5 -23.5 418.0 -39.0 450.5 -65.5 L450.5 -55.0 Q450.5 -20.0 443.5 5.0 436.5 30.0 421.0 46.0 404.5 63.0 373.5 72.5 342.0 81.5 292.0 81.5 255.0 81.5 207.5 71.0 160.0 60.0 127.0 47.0 L105.0 47.0 105.0 187.5 Q146.5 197.5 203.5 204.5 260.0 211.5 318.5 211.5 390.5 211.5 448.0 198.0 505.0 184.0 545.5 153.0 586.0 122.5 608.5 68.5 631.0 14.5 631.0 -64.5" fill-rule="evenodd" stroke="none"/>
    </g>
    <g id="font_Verdana_C0">
      <path d="M431.5 14.5 L431.5 14.5 Q487.5 14.5 519.5 9.0 551.5 3.5 588.0 -7.0 616.0 -15.0 641.5 -26.0 667.0 -37.0 695.0 -49.5 L695.0 -227.5 675.0 -227.5 Q661.5 -215.5 640.5 -199.0 619.5 -182.5 595.0 -168.5 566.0 -150.5 532.0 -140.0 497.5 -129.5 462.5 -129.5 426.0 -129.5 388.5 -141.0 351.0 -153.0 320.5 -180.5 290.5 -207.5 271.0 -254.0 251.0 -301.0 251.0 -371.0 251.0 -438.0 269.5 -485.0 287.5 -531.5 317.0 -560.0 348.0 -589.5 384.5 -602.5 421.0 -615.0 461.5 -615.0 498.0 -615.0 530.0 -604.0 562.0 -593.0 589.5 -577.0 616.5 -561.5 638.0 -545.0 659.0 -528.5 673.0 -516.5 L695.0 -516.5 695.0 -697.0 Q674.5 -707.0 647.5 -718.5 620.0 -730.5 586.5 -740.0 554.5 -748.5 517.0 -753.5 479.0 -759.0 432.0 -759.0 347.0 -759.0 275.5 -732.0 203.5 -705.0 155.0 -655.5 104.5 -604.0 78.0 -532.0 51.5 -460.0 51.5 -371.5 51.5 -276.5 79.5 -204.0 107.0 -131.5 157.5 -83.0 208.0 -34.5 278.5 -10.0 348.5 14.5 431.5 14.5" fill-rule="evenodd" stroke="none"/>
    </g>
    <g id="font_Verdana_o0">
      <path d="M437.5 -144.0 L437.5 -144.0 Q422.0 -124.5 400.0 -116.0 377.5 -108.0 353.0 -108.0 324.5 -108.0 302.5 -117.0 280.0 -126.0 264.0 -145.5 247.5 -166.0 239.0 -199.5 230.5 -233.5 230.5 -279.5 230.5 -331.0 240.5 -365.0 250.0 -399.0 266.5 -418.5 285.0 -439.5 305.5 -446.5 325.5 -453.5 351.5 -453.5 377.5 -453.5 400.0 -445.0 422.5 -436.5 438.5 -416.0 454.5 -396.0 463.5 -362.5 472.5 -329.0 472.5 -279.5 472.5 -226.0 464.0 -195.5 455.0 -165.5 437.5 -144.0 M659.0 -280.5 L659.0 -280.5 Q659.0 -419.0 579.0 -499.0 498.5 -579.0 351.5 -579.0 206.5 -579.0 125.5 -499.5 44.0 -420.0 44.0 -280.5 44.0 -142.0 125.0 -62.0 205.5 17.5 351.5 17.5 497.5 17.5 578.5 -62.0 659.0 -142.0 659.0 -280.5" fill-rule="evenodd" stroke="none"/>
    </g>
    <g id="font_Verdana_m0">
      <path d="M633.5 -398.0 L633.5 -398.0 Q664.5 -416.0 686.0 -423.5 707.5 -431.5 730.0 -431.5 763.5 -431.5 782.0 -423.0 800.5 -415.0 809.0 -397.0 818.0 -379.0 820.0 -350.5 821.5 -322.0 821.5 -280.5 L821.5 0.0 1002.0 0.0 1002.0 -365.5 Q1002.0 -468.0 955.0 -522.5 907.5 -577.0 817.0 -577.0 768.0 -577.0 717.0 -551.0 666.0 -525.0 612.0 -479.5 588.0 -527.5 545.5 -552.0 503.0 -577.0 448.0 -577.0 396.5 -577.0 354.0 -556.5 311.5 -536.0 265.0 -499.5 L265.0 -561.5 84.5 -561.5 84.5 0.0 265.0 0.0 265.0 -398.0 Q285.0 -410.0 310.0 -420.5 335.0 -431.5 361.5 -431.5 394.5 -431.5 413.0 -423.0 431.0 -415.0 440.0 -397.0 449.0 -379.0 451.0 -350.0 453.0 -321.5 453.0 -280.5 L453.0 0.0 633.5 0.0 633.5 -398.0" fill-rule="evenodd" stroke="none"/>
    </g>
    <g id="font_Verdana_p0">
      <path d="M485.5 -284.5 L485.5 -284.5 Q485.5 -201.0 450.5 -159.0 415.5 -117.5 344.5 -117.5 324.5 -117.5 304.0 -119.5 283.5 -121.5 265.5 -128.5 L265.5 -410.5 Q290.0 -425.0 317.0 -433.0 344.0 -440.5 369.5 -440.5 429.5 -440.5 457.5 -403.5 485.5 -366.5 485.5 -284.5 M671.0 -288.5 L671.0 -288.5 Q671.0 -423.0 613.0 -500.0 554.5 -577.0 450.0 -577.0 393.5 -577.0 350.0 -556.5 307.0 -536.0 265.5 -503.0 L265.5 -561.5 85.0 -561.5 85.0 206.0 265.5 206.0 265.5 -28.0 Q300.5 -9.5 334.0 1.0 367.5 11.0 415.5 11.0 467.5 11.0 512.5 -9.0 558.0 -29.0 594.0 -68.0 628.5 -105.0 650.0 -162.0 671.0 -219.0 671.0 -288.5" fill-rule="evenodd" stroke="none"/>
    </g>
    <g id="font_Verdana_l0">
      <path d="M265.5 0.0 L265.5 -778.0 85.0 -778.0 85.0 0.0 265.5 0.0" fill-rule="evenodd" stroke="none"/>
    </g>
    <g id="font_Verdana_e0">
      <path d="M459.0 -353.0 L225.5 -353.0 Q229.5 -412.5 263.0 -439.5 296.5 -466.5 348.5 -466.5 404.5 -466.5 431.0 -438.0 457.5 -409.5 459.0 -353.0 M638.0 -247.5 L638.0 -310.5 Q638.0 -440.5 569.0 -509.5 500.0 -579.0 363.0 -579.0 214.5 -579.0 129.5 -497.5 44.0 -416.5 44.0 -277.5 44.0 -137.0 134.0 -61.0 224.0 15.0 393.0 15.0 458.5 15.0 512.5 4.0 566.5 -7.0 627.5 -31.5 L627.5 -176.0 607.5 -176.0 Q576.5 -152.5 523.0 -132.0 469.5 -111.5 412.5 -111.5 322.5 -111.5 276.5 -146.5 230.0 -181.5 226.0 -247.5 L638.0 -247.5" fill-rule="evenodd" stroke="none"/>
    </g>
    <g id="font_Verdana_t0">
      <path d="M444.0 -5.0 L444.0 -128.0 429.0 -128.0 Q420.0 -123.0 397.5 -117.0 374.5 -111.0 361.0 -111.0 327.0 -111.0 309.0 -121.5 291.5 -131.5 284.5 -149.0 277.0 -166.5 276.5 -188.5 276.0 -210.5 276.0 -240.0 L276.0 -439.5 444.0 -439.5 444.0 -561.5 276.0 -561.5 276.0 -722.0 95.5 -722.0 95.5 -561.5 21.5 -561.5 21.5 -439.5 95.5 -439.5 95.5 -177.0 Q95.5 -74.0 147.0 -31.5 198.0 11.0 303.0 11.0 350.0 11.0 382.5 7.0 415.0 2.5 444.0 -5.0" fill-rule="evenodd" stroke="none"/>
    </g>
    <g id="font_Verdana_d0">
      <path d="M450.5 -154.5 L450.5 -154.5 Q429.5 -139.5 402.0 -130.5 374.5 -121.0 350.0 -121.0 287.5 -121.0 259.0 -158.5 230.5 -195.5 230.5 -278.0 230.5 -357.0 266.0 -401.0 301.5 -445.5 372.0 -445.5 389.5 -445.5 410.5 -442.0 431.5 -438.5 450.5 -430.5 L450.5 -154.5 M631.0 0.0 L631.0 -778.0 450.5 -778.0 450.5 -539.0 Q416.5 -555.5 384.5 -566.0 352.0 -577.0 301.5 -577.0 253.0 -577.0 205.0 -556.0 156.5 -535.5 122.5 -498.0 86.5 -458.5 65.5 -403.0 45.0 -348.0 45.0 -276.5 45.0 -142.5 106.5 -63.5 168.0 15.5 270.0 15.5 323.0 15.5 363.5 -2.5 404.0 -20.5 450.5 -58.5 L450.5 0.0 631.0 0.0" fill-rule="evenodd" stroke="none"/>
    </g>
    <g id="font_Verdana__1">
      <path d="M307.0 0.0 L307.0 -132.0 105.0 -132.0 105.0 0.0 307.0 0.0 M310.5 -744.5 L101.5 -744.5 124.5 -214.5 287.5 -214.5 310.5 -744.5" fill-rule="evenodd" stroke="none"/>
    </g>
  </defs>
</svg>
