<?xml version="1.0" encoding="UTF-8" standalone="no"?>
<svg xmlns:xlink="http://www.w3.org/1999/xlink" height="338.1px" width="676.9px" xmlns="http://www.w3.org/2000/svg">
  <g transform="matrix(1.0, 0.0, 0.0, 1.0, 203.95, 157.0)">
    <use height="81.0" transform="matrix(1.3132, 0.0, 0.0, 1.3132, -36.8, -12.7)" width="234.95" xlink:href="#sprite0"/>
    <use height="65.0" transform="matrix(1.0, 0.0, 0.0, 1.0, -176.95, -59.5)" width="65.0" xlink:href="#sprite1"/>
    <use height="65.0" transform="matrix(1.0, 0.0, 0.0, 1.0, -176.5, 92.7)" width="65.0" xlink:href="#sprite4"/>
  </g>
  <defs>
    <g id="sprite0" transform="matrix(1.0, 0.0, 0.0, 1.0, 0.0, 0.0)">
      <use height="81.0" transform="matrix(1.0, 0.0, 0.0, 1.0, 0.0, 0.0)" width="234.95" xlink:href="#shape0"/>
      <use height="12.4" transform="matrix(1.0, 0.0, 0.0, 1.0, 6.6, 8.0)" width="135.85" xlink:href="#text0"/>
    </g>
    <g id="shape0" transform="matrix(1.0, 0.0, 0.0, 1.0, 0.0, 0.0)">
      <path d="M232.95 13.0 L232.95 68.0 221.95 79.0 11.0 79.0 2.0 70.0 2.0 2.0 221.95 2.0 232.95 13.0 M223.95 0.0 L234.95 0.0 234.95 11.0 223.95 0.0 M234.95 81.0 L223.95 81.0 234.95 70.0 234.95 81.0 M9.0 81.0 L0.0 81.0 0.0 72.0 9.0 81.0" fill="#000000" fill-opacity="0.23137255" fill-rule="evenodd" stroke="none"/>
    </g>
    <g id="text0" transform="matrix(1.0, 0.0, 0.0, 1.0, -68.75, -1.6)">
      <g transform="matrix(1.0, 0.0, 0.0, 1.0, 68.15, 0.0)">
        <use fill="#cccccc" fill-opacity="0.32941177" height="12.4" transform="matrix(0.0107, 0.0, 0.0, 0.0107, 0.0, 11.0)" width="135.85" xlink:href="#font_Verdana_G0"/>
        <use fill="#cccccc" fill-opacity="0.32941177" height="12.4" transform="matrix(0.0107, 0.0, 0.0, 0.0107, 8.55, 11.0)" width="135.85" xlink:href="#font_Verdana_o0"/>
        <use fill="#cccccc" fill-opacity="0.32941177" height="12.4" transform="matrix(0.0107, 0.0, 0.0, 0.0107, 15.25, 11.0)" width="135.85" xlink:href="#font_Verdana_o0"/>
        <use fill="#cccccc" fill-opacity="0.32941177" height="12.4" transform="matrix(0.0107, 0.0, 0.0, 0.0107, 21.95, 11.0)" width="135.85" xlink:href="#font_Verdana_d0"/>
        <use fill="#cccccc" fill-opacity="0.32941177" height="12.4" transform="matrix(0.0107, 0.0, 0.0, 0.0107, 28.8, 11.0)" width="135.85" xlink:href="#font_Verdana__0"/>
        <use fill="#cccccc" fill-opacity="0.32941177" height="12.4" transform="matrix(0.0107, 0.0, 0.0, 0.0107, 36.65, 11.0)" width="135.85" xlink:href="#font_Verdana_o0"/>
        <use fill="#cccccc" fill-opacity="0.32941177" height="12.4" transform="matrix(0.0107, 0.0, 0.0, 0.0107, 43.35, 11.0)" width="135.85" xlink:href="#font_Verdana_n0"/>
        <use fill="#cccccc" fill-opacity="0.32941177" height="12.4" transform="matrix(0.0107, 0.0, 0.0, 0.0107, 50.3, 11.0)" width="135.85" xlink:href="#font_Verdana_e0"/>
        <use fill="#cccccc" fill-opacity="0.32941177" height="12.4" transform="matrix(0.0107, 0.0, 0.0, 0.0107, 60.7, 11.0)" width="135.85" xlink:href="#font_Verdana_m0"/>
        <use fill="#cccccc" fill-opacity="0.32941177" height="12.4" transform="matrix(0.0107, 0.0, 0.0, 0.0107, 71.4, 11.0)" width="135.85" xlink:href="#font_Verdana_o0"/>
        <use fill="#cccccc" fill-opacity="0.32941177" height="12.4" transform="matrix(0.0107, 0.0, 0.0, 0.0107, 78.1, 11.0)" width="135.85" xlink:href="#font_Verdana_r0"/>
        <use fill="#cccccc" fill-opacity="0.32941177" height="12.4" transform="matrix(0.0107, 0.0, 0.0, 0.0107, 82.8, 11.0)" width="135.85" xlink:href="#font_Verdana_e0"/>
        <use fill="#cccccc" fill-opacity="0.32941177" height="12.4" transform="matrix(0.0107, 0.0, 0.0, 0.0107, 93.2, 11.0)" width="135.85" xlink:href="#font_Verdana_l0"/>
        <use fill="#cccccc" fill-opacity="0.32941177" height="12.4" transform="matrix(0.0107, 0.0, 0.0, 0.0107, 96.2, 11.0)" width="135.85" xlink:href="#font_Verdana_e0"/>
        <use fill="#cccccc" fill-opacity="0.32941177" height="12.4" transform="matrix(0.0107, 0.0, 0.0, 0.0107, 102.75, 11.0)" width="135.85" xlink:href="#font_Verdana_f0"/>
        <use fill="#cccccc" fill-opacity="0.32941177" height="12.4" transform="matrix(0.0107, 0.0, 0.0, 0.0107, 106.6, 11.0)" width="135.85" xlink:href="#font_Verdana_t0"/>
        <use fill="#cccccc" fill-opacity="0.32941177" height="12.4" transform="matrix(0.0107, 0.0, 0.0, 0.0107, 114.8, 11.0)" width="135.85" xlink:href="#font_Verdana_.0"/>
        <use fill="#cccccc" fill-opacity="0.32941177" height="12.4" transform="matrix(0.0107, 0.0, 0.0, 0.0107, 118.8, 11.0)" width="135.85" xlink:href="#font_Verdana_.0"/>
        <use fill="#cccccc" fill-opacity="0.32941177" height="12.4" transform="matrix(0.0107, 0.0, 0.0, 0.0107, 122.8, 11.0)" width="135.85" xlink:href="#font_Verdana_.0"/>
      </g>
    </g>
    <g id="font_Verdana_G0">
      <path d="M721.0 -55.0 L721.0 -374.5 423.5 -374.5 423.5 -287.5 623.0 -287.5 623.0 -105.0 Q587.0 -90.0 539.5 -80.5 491.5 -71.0 443.5 -71.0 312.5 -71.0 236.5 -151.0 160.5 -231.5 160.5 -376.0 160.5 -513.0 233.5 -593.0 306.0 -673.5 431.0 -673.5 486.5 -673.5 530.5 -663.0 574.0 -653.0 608.5 -637.5 637.0 -624.5 666.5 -605.0 696.0 -585.5 711.5 -573.5 L720.5 -573.5 720.5 -691.0 Q644.0 -727.5 578.0 -742.5 511.5 -758.0 448.0 -758.0 266.0 -758.0 162.0 -654.5 57.5 -551.5 57.5 -373.0 57.5 -275.5 85.5 -202.5 113.5 -130.0 165.0 -81.5 216.0 -33.5 288.5 -9.5 361.0 14.5 448.0 14.5 515.5 14.5 588.0 -6.0 660.0 -27.0 721.0 -55.0" fill-rule="evenodd" stroke="none"/>
    </g>
    <g id="font_Verdana_o0">
      <path d="M471.5 -279.0 L471.5 -279.0 Q471.5 -173.0 429.0 -119.0 386.0 -65.5 311.0 -65.5 235.0 -65.5 192.5 -119.5 150.0 -174.0 150.0 -279.0 150.0 -387.5 192.5 -440.0 234.5 -493.0 311.0 -493.0 386.5 -493.0 429.0 -440.0 471.5 -387.5 471.5 -279.0 M568.5 -279.0 L568.5 -279.0 Q568.5 -415.5 498.5 -494.5 428.5 -574.0 311.0 -574.0 192.5 -574.0 123.0 -494.5 53.0 -415.5 53.0 -279.0 53.0 -142.5 123.0 -63.5 192.5 15.5 311.0 15.5 428.5 15.5 498.5 -63.5 568.5 -142.5 568.5 -279.0" fill-rule="evenodd" stroke="none"/>
    </g>
    <g id="font_Verdana_d0">
      <path d="M451.5 -137.5 L451.5 -137.5 Q416.0 -109.5 375.0 -91.5 334.0 -74.0 294.0 -74.0 219.0 -74.0 185.0 -125.5 151.0 -177.5 151.0 -277.0 151.0 -378.0 195.0 -433.0 239.0 -488.0 318.0 -488.0 353.5 -488.0 383.5 -481.5 413.5 -475.0 451.5 -458.0 L451.5 -137.5 M545.5 0.0 L545.5 -778.0 451.5 -778.0 451.5 -536.0 Q414.0 -555.5 380.0 -564.5 346.0 -574.0 302.0 -574.0 253.5 -574.0 208.5 -554.0 163.0 -534.0 129.0 -496.0 94.5 -457.0 74.5 -401.5 54.0 -346.0 54.0 -275.0 54.0 -138.5 113.0 -61.5 171.5 15.5 271.5 15.5 323.0 15.5 367.0 -4.0 411.0 -23.5 451.5 -58.5 L451.5 0.0 545.5 0.0" fill-rule="evenodd" stroke="none"/>
    </g>
    <g id="font_Verdana__0">
      <path d="M287.5 -142.5 L160.5 -142.5 73.5 185.0 146.5 185.0 287.5 -142.5" fill-rule="evenodd" stroke="none"/>
    </g>
    <g id="font_Verdana_n0">
      <path d="M559.5 0.0 L559.5 -362.5 Q559.5 -465.0 512.0 -519.5 464.5 -574.0 374.0 -574.0 324.5 -574.0 277.5 -553.5 230.5 -533.0 186.5 -496.5 L186.5 -558.5 92.5 -558.5 92.5 0.0 186.5 0.0 186.5 -417.0 Q225.0 -446.5 267.0 -465.5 309.0 -484.5 347.5 -484.5 385.0 -484.5 408.5 -474.0 432.0 -464.0 444.5 -443.0 456.5 -424.0 461.0 -390.0 465.5 -356.5 465.5 -318.0 L465.5 0.0 559.5 0.0" fill-rule="evenodd" stroke="none"/>
    </g>
    <g id="font_Verdana_e0">
      <path d="M468.5 -341.5 L148.5 -341.5 Q154.5 -407.5 199.5 -452.0 244.0 -496.5 319.5 -496.5 394.5 -496.5 431.5 -456.0 468.0 -415.5 468.5 -341.5 M560.0 -269.5 L560.0 -320.5 Q560.0 -442.0 499.0 -508.0 437.5 -574.0 324.5 -574.0 202.5 -574.0 128.0 -493.5 53.0 -413.0 53.0 -276.0 53.0 -137.5 131.0 -62.0 209.0 13.0 348.0 13.0 402.5 13.0 452.0 -0.5 501.5 -14.0 549.0 -34.0 L549.0 -136.5 544.0 -136.5 Q519.5 -114.5 462.0 -91.5 404.0 -69.0 347.0 -69.0 304.0 -69.0 268.5 -81.0 232.5 -93.0 206.5 -117.0 179.5 -141.5 164.0 -179.5 148.5 -218.0 148.5 -269.5 L560.0 -269.5" fill-rule="evenodd" stroke="none"/>
    </g>
    <g id="font_Verdana_m0">
      <path d="M907.5 0.0 L907.5 -362.5 Q907.5 -462.5 864.0 -518.0 820.0 -574.0 728.0 -574.0 674.5 -574.0 627.5 -552.5 580.5 -531.5 523.5 -483.5 504.0 -526.0 464.5 -550.0 424.5 -574.0 367.5 -574.0 318.0 -574.0 274.5 -553.5 230.5 -533.0 186.5 -496.5 L186.5 -558.5 92.5 -558.5 92.5 0.0 186.5 0.0 186.5 -417.0 Q225.0 -446.5 264.0 -465.5 302.5 -484.5 341.0 -484.5 381.5 -484.5 403.0 -473.5 424.5 -463.0 436.0 -441.5 446.5 -421.5 450.0 -388.0 453.0 -355.0 453.0 -318.0 L453.0 0.0 547.0 0.0 547.0 -357.5 Q547.0 -372.5 546.0 -387.5 545.0 -403.0 543.5 -414.5 583.0 -445.0 622.5 -464.5 662.0 -484.5 701.5 -484.5 742.0 -484.5 763.5 -473.5 785.0 -462.5 796.5 -441.0 807.0 -421.0 810.5 -387.5 813.5 -354.0 813.5 -318.0 L813.5 0.0 907.5 0.0" fill-rule="evenodd" stroke="none"/>
    </g>
    <g id="font_Verdana_r0">
      <path d="M441.0 -456.0 L441.0 -552.5 Q419.0 -556.0 408.0 -557.0 397.0 -558.5 372.5 -558.5 328.0 -558.5 285.5 -539.5 242.5 -521.0 186.5 -476.0 L186.5 -558.5 92.5 -558.5 92.5 0.0 186.5 0.0 186.5 -396.5 Q224.0 -427.0 264.5 -446.0 305.0 -465.5 348.5 -465.5 375.5 -465.5 395.5 -463.0 415.0 -461.0 436.0 -456.0 L441.0 -456.0" fill-rule="evenodd" stroke="none"/>
    </g>
    <g id="font_Verdana_l0">
      <path d="M187.5 0.0 L187.5 -778.0 93.5 -778.0 93.5 0.0 187.5 0.0" fill-rule="evenodd" stroke="none"/>
    </g>
    <g id="font_Verdana_f0">
      <path d="M393.0 -687.0 L393.0 -773.0 Q372.0 -777.0 347.0 -780.0 321.5 -783.0 290.0 -783.0 196.5 -783.0 147.0 -729.5 97.5 -676.5 97.5 -577.0 L97.5 -558.5 34.0 -558.5 34.0 -479.5 97.5 -479.5 97.5 0.0 191.5 0.0 191.5 -479.5 358.0 -479.5 358.0 -558.5 188.5 -558.5 188.5 -577.5 Q188.5 -647.5 216.0 -674.0 243.0 -701.0 303.5 -701.0 322.5 -701.0 347.5 -696.0 372.5 -691.5 388.0 -687.0 L393.0 -687.0" fill-rule="evenodd" stroke="none"/>
    </g>
    <g id="font_Verdana_t0">
      <path d="M382.5 -5.0 L382.5 -89.5 377.5 -89.5 Q366.5 -85.0 341.5 -78.0 316.5 -71.5 293.5 -71.5 254.0 -71.5 235.0 -80.5 215.5 -90.0 204.5 -110.0 192.5 -131.5 190.5 -156.0 188.5 -181.0 188.5 -225.0 L188.5 -479.5 382.5 -479.5 382.5 -558.5 188.5 -558.5 188.5 -719.0 94.5 -719.0 94.5 -558.5 31.0 -558.5 31.0 -479.5 94.5 -479.5 94.5 -182.5 Q94.5 -81.0 139.0 -35.0 183.5 11.0 269.0 11.0 293.5 11.0 325.0 6.5 356.0 2.0 382.5 -5.0" fill-rule="evenodd" stroke="none"/>
    </g>
    <g id="font_Verdana_.0">
      <path d="M246.0 0.0 L246.0 -142.5 126.5 -142.5 126.5 0.0 246.0 0.0" fill-rule="evenodd" stroke="none"/>
    </g>
    <g id="sprite1" transform="matrix(1.0, 0.0, 0.0, 1.0, 11.0, 11.0)">
      <use height="65.0" transform="matrix(1.0, 0.0, 0.0, 1.0, -11.0, -11.0)" width="65.0" xlink:href="#sprite2"/>
    </g>
    <g id="sprite2" transform="matrix(1.0, 0.0, 0.0, 1.0, 11.0, 11.0)">
      <use height="43.0" transform="matrix(1.5116, 0.0, 0.0, 1.5116, -11.0, -11.0)" width="43.0" xlink:href="#sprite3"/>
    </g>
    <g id="sprite3" transform="matrix(1.0, 0.0, 0.0, 1.0, 0.0, 0.0)">
      <use height="43.0" transform="matrix(1.0, 0.0, 0.0, 1.0, 0.0, 0.0)" width="43.0" xlink:href="#shape1"/>
    </g>
    <g id="shape1" transform="matrix(1.0, 0.0, 0.0, 1.0, 0.0, 0.0)">
      <path d="M43.0 21.5 Q43.0 30.4 36.7 36.7 30.4 43.0 21.5 43.0 12.6 43.0 6.3 36.7 0.0 30.4 0.0 21.5 0.0 12.6 6.3 6.3 12.6 0.0 21.5 0.0 30.4 0.0 36.7 6.3 43.0 12.6 43.0 21.5 M39.05 22.0 Q39.05 14.95 34.05 9.95 29.1 5.0 22.05 5.0 15.0 5.0 10.0 9.95 5.05 14.95 5.05 22.0 5.05 29.05 10.0 34.0 15.0 39.0 22.05 39.0 29.1 39.0 34.05 34.0 39.05 29.05 39.05 22.0" fill="#ff0000" fill-opacity="0.0" fill-rule="evenodd" stroke="none"/>
      <path d="M39.05 22.0 Q39.05 29.05 34.05 34.0 29.1 39.0 22.05 39.0 15.0 39.0 10.0 34.0 5.05 29.05 5.05 22.0 5.05 14.95 10.0 9.95 15.0 5.0 22.05 5.0 29.1 5.0 34.05 9.95 39.05 14.95 39.05 22.0" fill="#760101" fill-opacity="0.0" fill-rule="evenodd" stroke="none"/>
    </g>
    <g id="sprite4" transform="matrix(1.0, 0.0, 0.0, 1.0, 11.0, 11.0)">
      <use height="65.0" transform="matrix(1.0, 0.0, 0.0, 1.0, -11.0, -11.0)" width="65.0" xlink:href="#sprite2"/>
    </g>
  </defs>
</svg>
