<?xml version="1.0" encoding="UTF-8" standalone="no"?>
<svg xmlns:xlink="http://www.w3.org/1999/xlink" height="37.0px" width="77.0px" xmlns="http://www.w3.org/2000/svg">
  <g transform="matrix(1.0, 0.0, 0.0, 1.0, 38.5, 18.5)">
    <use height="37.0" transform="matrix(1.0, 0.0, 0.0, 1.0, -38.5, -18.5)" width="77.0" xlink:href="#shape0"/>
  </g>
  <defs>
    <g id="shape0" transform="matrix(1.0, 0.0, 0.0, 1.0, 38.5, 18.5)">
      <path d="M38.5 -10.85 L38.5 18.5 13.5 18.5 -38.5 -17.5 -38.5 -18.5 26.1 -18.5 38.5 -10.85 M5.25 18.5 L-38.5 18.5 -38.5 -12.15 5.25 18.5" fill="#999999" fill-opacity="0.5137255" fill-rule="evenodd" stroke="none"/>
      <path d="M13.5 18.5 L5.25 18.5 -38.5 -12.15 -38.5 -17.5 13.5 18.5 M26.1 -18.5 L38.5 -18.5 38.5 -10.85 26.1 -18.5" fill="#ffffff" fill-opacity="0.5137255" fill-rule="evenodd" stroke="none"/>
    </g>
  </defs>
</svg>
