<?xml version="1.0" encoding="UTF-8" standalone="no"?>
<svg xmlns:xlink="http://www.w3.org/1999/xlink" height="665.4px" width="28.05px" xmlns="http://www.w3.org/2000/svg">
  <g transform="matrix(1.0, 0.0, 0.0, 1.0, 12.65, -4.15)">
    <use height="21.8" transform="matrix(0.5616, 0.0, 0.0, 0.5616, -9.1548, 511.9281)" width="21.8" xlink:href="#sprite0"/>
  </g>
  <defs>
    <g id="sprite0" transform="matrix(1.0, 0.0, 0.0, 1.0, -5.6, -7.35)">
      <use height="14.25" transform="matrix(1.0, 0.0, 0.0, 1.0, 8.6, 11.15)" width="16.15" xlink:href="#shape0"/>
    </g>
    <g id="shape0" transform="matrix(1.0, 0.0, 0.0, 1.0, 7.9, 7.1)">
      <path d="M0.85 -7.05 Q4.15 -6.65 6.3 -4.3 8.5 -1.9 8.2 1.0 7.95 3.95 5.35 5.7 2.75 7.5 -0.55 7.1 -3.85 6.7 -6.0 4.3 -8.1 1.95 -7.85 -1.0 -7.55 -3.9 -5.0 -5.7 -2.45 -7.45 0.85 -7.05" fill="#ffffff" fill-rule="evenodd" stroke="none"/>
    </g>
  </defs>
</svg>
