<?xml version="1.0" encoding="UTF-8" standalone="no"?>
<svg xmlns:xlink="http://www.w3.org/1999/xlink" height="9.2px" width="7.7px" xmlns="http://www.w3.org/2000/svg">
  <g transform="matrix(1.0, 0.0, 0.0, 1.0, 3.85, 4.6)">
    <use height="9.2" transform="matrix(1.0, 0.0, 0.0, 1.0, -3.85, -4.6)" width="7.7" xlink:href="#shape0"/>
  </g>
  <defs>
    <g id="shape0" transform="matrix(1.0, 0.0, 0.0, 1.0, 3.85, 4.6)">
      <path d="M1.7 -3.85 L0.9 -4.0 Q-0.35 -4.0 -1.2 -2.85 -2.1 -1.7 -2.1 -0.05 -2.1 1.55 -1.2 2.7 -0.35 3.85 0.9 3.85 L1.85 3.65 Q0.95 4.6 -0.3 4.6 -1.75 4.6 -2.8 3.25 -3.85 1.9 -3.85 0.0 -3.85 -1.9 -2.8 -3.25 -1.75 -4.6 -0.3 -4.6 0.8 -4.6 1.7 -3.85" fill="#333333" fill-rule="evenodd" stroke="none"/>
      <path d="M1.85 3.65 L0.9 3.85 Q-0.35 3.85 -1.2 2.7 -2.1 1.55 -2.1 -0.05 -2.1 -1.7 -1.2 -2.85 -0.35 -4.0 0.9 -4.0 L1.7 -3.85 3.0 -2.85 Q3.85 -1.7 3.85 -0.05 3.85 1.55 3.0 2.7 L1.85 3.65 M1.95 -0.95 L1.2 -1.4 0.5 -0.95 Q0.2 -0.5 0.2 0.2 0.2 0.85 0.5 1.3 0.8 1.8 1.2 1.8 L1.95 1.3 2.25 0.2 1.95 -0.95" fill="#484848" fill-rule="evenodd" stroke="none"/>
      <path d="M1.95 -0.95 L2.25 0.2 1.95 1.3 1.2 1.8 Q0.8 1.8 0.5 1.3 0.2 0.85 0.2 0.2 0.2 -0.5 0.5 -0.95 L1.2 -1.4 1.95 -0.95" fill="#000000" fill-rule="evenodd" stroke="none"/>
    </g>
  </defs>
</svg>
