<?xml version="1.0" encoding="UTF-8" standalone="no"?>
<svg xmlns:xlink="http://www.w3.org/1999/xlink" height="405.0px" width="300.1px" xmlns="http://www.w3.org/2000/svg">
  <g transform="matrix(1.0, 0.0, 0.0, 1.0, 0.0, 0.0)">
    <use height="405.0" transform="matrix(1.0, 0.0, 0.0, 1.0, 0.0, 0.0)" width="300.1" xlink:href="#shape0"/>
  </g>
  <defs>
    <g id="shape0" transform="matrix(1.0, 0.0, 0.0, 1.0, 0.0, 0.0)">
      <path d="M55.65 43.05 Q79.05 12.0 82.5 12.0 85.15 12.0 89.1 14.0 93.1 16.0 94.5 16.0 99.0 16.0 109.0 9.0 118.95 2.0 124.5 2.0 130.4 2.0 136.7 8.05 138.7 9.95 141.6 13.6 143.25 12.25 145.4 10.95 149.8 8.2 151.0 7.0 L156.0 7.0 156.0 12.0 Q158.0 11.65 175.9 5.7 194.1 0.0 199.6 0.0 211.75 0.0 234.55 31.2 255.5 59.9 267.1 88.0 274.05 104.7 277.35 118.85 L279.2 128.45 281.35 145.1 Q282.8 156.3 285.1 167.0 L288.95 183.35 291.2 192.8 Q287.95 188.85 285.75 184.85 283.75 181.2 282.55 177.5 L280.65 170.6 Q279.55 166.7 278.1 164.0 273.05 154.6 269.85 138.55 268.2 130.2 267.25 121.05 266.45 113.8 266.1 106.0 L266.1 107.0 Q266.1 113.25 266.65 121.2 268.05 141.45 273.1 172.55 L275.95 189.45 277.9 200.95 Q280.1 213.9 280.1 216.5 280.1 256.15 264.1 282.45 L253.1 298.95 252.0 300.9 Q248.1 307.75 248.1 313.5 248.1 319.15 253.0 331.05 250.65 339.85 248.35 351.45 242.65 383.6 239.1 400.4 237.8 394.6 235.75 387.15 L234.8 383.6 234.05 377.55 Q232.15 360.5 230.1 350.0 L226.75 350.5 Q225.1 340.5 225.1 332.5 225.1 322.65 230.25 311.05 L235.75 300.35 241.6 289.15 Q249.25 274.5 252.95 262.1 258.1 244.7 258.1 225.0 258.1 210.7 256.35 198.65 L256.15 197.5 Q254.95 189.9 251.4 175.15 245.65 151.35 242.45 126.5 241.05 115.85 240.1 105.0 L237.45 68.85 Q235.05 43.7 231.1 39.0 219.55 25.2 210.75 17.15 201.8 9.0 198.1 9.0 191.1 13.25 182.1 17.5 164.05 26.0 153.0 26.0 L153.0 28.0 Q156.2 30.15 163.95 34.35 171.4 38.4 173.1 39.0 172.5 39.0 172.25 39.5 L172.1 40.0 Q171.4 40.7 170.35 40.9 L167.5 41.0 147.15 40.0 122.0 39.0 122.0 38.0 Q125.35 37.15 128.75 34.65 L134.0 30.0 125.0 30.0 125.0 29.0 Q127.9 27.55 132.95 25.5 138.65 23.15 140.0 23.0 137.0 22.0 128.5 22.0 116.4 22.0 87.5 31.7 L55.65 43.05 M158.4 341.1 L155.0 333.0 Q155.0 331.3 158.1 326.85 161.05 322.65 166.0 317.0 167.05 315.85 168.2 312.25 L170.65 304.75 Q171.85 301.3 173.35 298.4 176.45 292.25 180.7 288.4 L180.45 298.65 Q180.1 309.05 179.1 317.0 178.25 324.55 171.95 333.7 169.05 337.95 167.55 341.0 L163.0 341.0 158.4 341.1 M169.95 70.85 Q174.9 70.35 177.45 68.0 L179.15 65.95 Q179.75 65.0 180.1 65.0 181.1 65.0 196.25 79.55 211.65 94.4 215.1 99.0 L203.1 99.0 Q214.15 112.1 219.65 127.7 L220.85 131.25 Q226.1 148.2 226.1 170.0 226.1 192.25 223.35 214.15 221.3 230.2 217.8 246.05 213.9 263.75 208.55 279.05 214.5 256.15 215.05 218.05 L215.1 210.5 Q215.1 179.3 212.35 158.4 210.65 145.25 207.55 134.2 205.8 127.9 203.6 122.25 198.1 108.1 188.05 93.85 182.1 85.35 169.95 70.85 M47.8 96.15 Q45.4 107.0 42.65 121.9 37.55 149.35 34.55 172.2 L33.0 185.0 33.0 196.0 35.0 196.0 39.55 192.45 Q43.3 189.8 45.0 189.0 L69.15 286.55 71.3 295.2 76.0 314.0 76.0 319.0 Q72.3 310.3 65.95 300.05 L62.85 294.95 60.3 290.7 56.05 283.15 Q44.65 260.75 39.0 218.0 L39.0 219.0 Q38.85 224.1 36.4 232.1 34.0 240.0 34.0 241.0 L30.8 235.2 Q27.85 229.15 28.0 226.0 28.6 217.0 28.0 190.0 28.0 180.9 28.25 173.6 28.65 161.05 29.75 153.8 31.9 139.3 40.0 117.0 44.6 104.1 47.8 96.15 M65.0 122.55 L66.6 116.35 66.0 128.55 Q65.0 148.35 65.0 155.5 L65.1 162.35 65.75 165.35 67.0 172.0 67.0 196.0 Q66.5 196.0 66.0 195.5 65.5 195.0 65.0 195.0 63.4 191.9 61.0 180.05 59.55 173.0 58.8 166.9 58.0 160.45 58.0 155.0 58.0 150.2 65.0 122.55 M99.05 115.5 Q102.95 123.25 114.55 144.65 L119.25 153.6 Q127.55 170.05 132.0 183.0 140.0 206.3 140.0 229.0 140.0 240.65 138.75 253.85 137.75 264.3 136.0 275.7 134.0 288.7 133.0 297.15 132.0 305.6 132.0 309.5 132.0 318.55 132.25 321.7 L130.65 315.5 Q129.3 308.6 129.4 298.45 L129.45 297.05 Q129.5 290.4 129.9 275.15 L129.8 258.05 Q129.6 248.25 129.0 238.0 L127.2 207.7 Q124.8 180.2 120.0 168.0 L114.25 154.7 105.7 136.15 Q99.0 121.75 99.0 115.5 L99.05 115.5 M85.2 250.7 Q87.9 259.0 97.0 270.0 97.9 271.1 98.5 272.75 99.35 275.3 99.5 279.2 L99.45 293.5 99.5 296.1 Q100.3 317.55 110.0 336.0 L110.0 346.0 Q107.45 339.75 100.5 324.5 94.0 309.5 90.2 296.7 L89.95 295.8 Q87.45 287.35 85.85 278.7 81.2 254.5 82.9 228.8 82.35 241.95 85.2 250.7 M145.7 158.55 L145.0 147.95 144.4 142.5 143.15 133.4 144.05 133.25 Q151.6 141.45 154.1 145.05 L154.65 145.8 Q159.0 152.4 159.0 158.0 L158.4 173.55 Q157.65 187.75 157.0 191.0 156.0 187.0 156.0 178.0 L149.75 173.15 Q146.05 169.55 146.0 166.0 L145.7 158.55" fill="#1e1e1e" fill-rule="evenodd" stroke="none"/>
      <path d="M55.65 43.05 L87.5 31.7 Q116.4 22.0 128.5 22.0 137.0 22.0 140.0 23.0 138.65 23.15 132.95 25.5 127.9 27.55 125.0 29.0 L125.0 30.0 134.0 30.0 128.75 34.65 Q125.35 37.15 122.0 38.0 L122.0 39.0 147.15 40.0 167.5 41.0 170.35 40.9 Q171.4 40.7 172.1 40.0 L172.25 39.5 Q172.5 39.0 173.1 39.0 171.4 38.4 163.95 34.35 156.2 30.15 153.0 28.0 L153.0 26.0 Q164.05 26.0 182.1 17.5 191.1 13.25 198.1 9.0 201.8 9.0 210.75 17.15 219.55 25.2 231.1 39.0 235.05 43.7 237.45 68.85 L240.1 105.0 Q241.05 115.85 242.45 126.5 245.65 151.35 251.4 175.15 254.95 189.9 256.15 197.5 L256.35 198.65 Q258.1 210.7 258.1 225.0 258.1 244.7 252.95 262.1 249.25 274.5 241.6 289.15 L235.75 300.35 230.25 311.05 Q225.1 322.65 225.1 332.5 225.1 340.5 226.75 350.5 220.9 352.1 212.4 358.85 201.6 367.4 201.1 372.0 L200.1 372.0 Q199.25 367.95 198.4 359.75 197.45 353.3 195.1 352.0 188.05 348.05 183.25 344.65 L178.7 341.5 Q177.3 340.85 174.3 340.85 L167.55 341.0 Q169.05 337.95 171.95 333.7 178.25 324.55 179.1 317.0 180.1 309.05 180.45 298.65 L180.7 288.4 Q176.45 292.25 173.35 298.4 171.85 301.3 170.65 304.75 L168.2 312.25 Q167.05 315.85 166.0 317.0 161.05 322.65 158.1 326.85 155.0 331.3 155.0 333.0 L158.4 341.1 Q146.45 341.55 140.65 344.65 L134.75 347.65 Q130.6 349.25 124.0 350.0 L115.3 350.45 Q110.3 351.05 107.0 354.0 L93.3 366.15 Q84.1 374.0 82.0 374.0 80.95 364.55 77.0 358.05 74.6 354.1 68.65 348.2 62.6 342.2 60.0 338.05 55.6 331.05 54.0 321.0 53.35 322.45 52.0 323.0 L47.3 341.8 Q43.4 356.7 43.85 362.65 42.5 359.6 39.3 348.1 L34.0 328.0 Q31.35 317.85 26.35 306.6 L24.0 301.55 20.5 293.6 Q16.9 284.75 15.0 276.0 2.1 218.0 1.25 212.1 0.15 204.6 0.0 195.4 L0.0 170.0 Q0.0 138.75 5.6 121.8 10.5 106.95 28.0 81.0 37.15 67.5 54.95 43.9 L55.65 43.05 M234.8 383.6 L235.75 387.15 Q237.8 394.6 239.1 400.4 L238.1 405.0 Q236.35 396.25 234.8 383.6 M253.0 331.05 Q248.1 319.15 248.1 313.5 248.1 307.75 252.0 300.9 L253.1 298.95 264.1 282.45 Q280.1 256.15 280.1 216.5 280.1 213.9 277.9 200.95 L275.95 189.45 273.1 172.55 Q268.05 141.45 266.65 121.2 266.1 113.25 266.1 107.0 L266.1 106.0 Q266.45 113.8 267.25 121.05 268.2 130.2 269.85 138.55 273.05 154.6 278.1 164.0 279.55 166.7 280.65 170.6 L282.55 177.5 Q283.75 181.2 285.75 184.85 287.95 188.85 291.2 192.8 L293.65 203.15 Q300.1 230.45 300.1 234.5 300.1 241.55 295.1 254.45 290.1 267.3 290.1 275.5 290.1 278.1 294.6 293.55 L297.1 302.3 Q299.1 309.65 299.1 311.0 L299.1 314.0 Q298.15 313.0 295.65 312.4 L290.65 311.3 Q283.75 309.5 281.1 304.0 281.1 305.85 278.7 308.6 276.6 311.0 276.1 311.0 L273.55 310.5 272.1 310.0 271.6 315.0 Q271.1 318.5 271.1 320.0 L266.1 320.0 263.8 318.6 Q261.95 311.75 262.1 309.0 L261.1 309.0 Q257.0 316.1 253.0 331.05 M65.0 122.55 Q58.0 150.2 58.0 155.0 58.0 160.45 58.8 166.9 59.55 173.0 61.0 180.05 63.4 191.9 65.0 195.0 65.5 195.0 66.0 195.5 66.5 196.0 67.0 196.0 L67.0 172.0 65.75 165.35 65.1 162.35 65.0 155.5 Q65.0 148.35 66.0 128.55 L66.6 116.35 65.0 122.55 M47.8 96.15 Q44.6 104.1 40.0 117.0 31.9 139.3 29.75 153.8 28.65 161.05 28.25 173.6 28.0 180.9 28.0 190.0 28.6 217.0 28.0 226.0 27.85 229.15 30.8 235.2 L34.0 241.0 Q34.0 240.0 36.4 232.1 38.85 224.1 39.0 219.0 L39.0 218.0 Q44.65 260.75 56.05 283.15 L60.3 290.7 62.85 294.95 65.95 300.05 Q72.3 310.3 76.0 319.0 L76.0 314.0 71.3 295.2 69.15 286.55 45.0 189.0 Q43.3 189.8 39.55 192.45 L35.0 196.0 33.0 196.0 33.0 185.0 34.55 172.2 Q37.55 149.35 42.65 121.9 45.4 107.0 47.8 96.15 M169.95 70.85 Q182.1 85.35 188.05 93.85 198.1 108.1 203.6 122.25 205.8 127.9 207.55 134.2 210.65 145.25 212.35 158.4 215.1 179.3 215.1 210.5 L215.05 218.05 Q214.5 256.15 208.55 279.05 213.9 263.75 217.8 246.05 221.3 230.2 223.35 214.15 226.1 192.25 226.1 170.0 226.1 148.2 220.85 131.25 L219.65 127.7 Q214.15 112.1 203.1 99.0 L215.1 99.0 Q211.65 94.4 196.25 79.55 181.1 65.0 180.1 65.0 179.75 65.0 179.15 65.95 L177.45 68.0 Q174.9 70.35 169.95 70.85 M99.05 115.5 L99.0 115.5 Q99.0 121.75 105.7 136.15 L114.25 154.7 120.0 168.0 Q124.8 180.2 127.2 207.7 L129.0 238.0 Q129.6 248.25 129.8 258.05 L129.9 275.15 Q129.5 290.4 129.45 297.05 L129.4 298.45 Q129.3 308.6 130.65 315.5 L132.25 321.7 Q132.0 318.55 132.0 309.5 132.0 305.6 133.0 297.15 134.0 288.7 136.0 275.7 137.75 264.3 138.75 253.85 140.0 240.65 140.0 229.0 140.0 206.3 132.0 183.0 127.55 170.05 119.25 153.6 L114.55 144.65 Q102.95 123.25 99.05 115.5 M145.7 158.55 L146.0 166.0 Q146.05 169.55 149.75 173.15 L156.0 178.0 Q156.0 187.0 157.0 191.0 157.65 187.75 158.4 173.55 L159.0 158.0 Q159.0 152.4 154.65 145.8 L154.1 145.05 Q151.6 141.45 144.05 133.25 L143.15 133.4 144.4 142.5 145.0 147.95 145.7 158.55 M85.2 250.7 Q82.35 241.95 82.9 228.8 81.2 254.5 85.85 278.7 87.45 287.35 89.95 295.8 L90.2 296.7 Q94.0 309.5 100.5 324.5 107.45 339.75 110.0 346.0 L110.0 336.0 Q100.3 317.55 99.5 296.1 L99.45 293.5 99.5 279.2 Q99.35 275.3 98.5 272.75 97.9 271.1 97.0 270.0 87.9 259.0 85.2 250.7" fill="#333333" fill-rule="evenodd" stroke="none"/>
    </g>
  </defs>
</svg>
