<?xml version="1.0" encoding="UTF-8" standalone="no"?>
<svg xmlns:xlink="http://www.w3.org/1999/xlink" height="17.5px" width="193.65px" xmlns="http://www.w3.org/2000/svg">
  <g transform="matrix(1.0, 0.0, 0.0, 1.0, 23.75, 10.55)">
    <use height="45.55" transform="matrix(0.3472, 0.0, 0.0, 0.3472, -22.6758, -10.5682)" width="36.1" xlink:href="#sprite0"/>
    <use height="13.9" id="boxx" transform="matrix(1.0, 0.0, 0.0, 1.0, -6.15, -6.95)" width="171.85" xlink:href="#sprite2"/>
    <use height="9.9" transform="matrix(1.0, 0.0, 0.0, 1.0, -23.75, -4.95)" width="87.0" xlink:href="#button0"/>
  </g>
  <defs>
    <g id="sprite0" transform="matrix(1.0, 0.0, 0.0, 1.0, 15.05, 16.9)">
      <use height="5.8" transform="matrix(1.0, 0.0, 0.0, 1.0, 0.0, -0.05)" width="5.7" xlink:href="#sprite1"/>
      <use height="5.8" transform="matrix(1.0, 0.0, 0.0, 1.0, -14.95, 7.5)" width="5.7" xlink:href="#sprite1"/>
      <use height="5.8" transform="matrix(1.0, 0.0, 0.0, 1.0, -7.4, 7.5)" width="5.7" xlink:href="#sprite1"/>
      <use height="5.8" transform="matrix(1.0, 0.0, 0.0, 1.0, -0.15, 7.5)" width="5.7" xlink:href="#sprite1"/>
      <use height="5.8" transform="matrix(1.0, 0.0, 0.0, 1.0, 7.6, 7.5)" width="5.7" xlink:href="#sprite1"/>
      <use height="5.8" transform="matrix(1.0, 0.0, 0.0, 1.0, 15.35, 11.35)" width="5.7" xlink:href="#sprite1"/>
      <use height="5.8" transform="matrix(1.0, 0.0, 0.0, 1.0, -14.9, 15.1)" width="5.7" xlink:href="#sprite1"/>
      <use height="5.8" transform="matrix(1.0, 0.0, 0.0, 1.0, -7.4, 15.1)" width="5.7" xlink:href="#sprite1"/>
      <use height="5.8" transform="matrix(1.0, 0.0, 0.0, 1.0, 0.1, 15.1)" width="5.7" xlink:href="#sprite1"/>
      <use height="5.8" transform="matrix(1.0, 0.0, 0.0, 1.0, 7.85, 15.1)" width="5.7" xlink:href="#sprite1"/>
      <use height="5.8" transform="matrix(1.0, 0.0, 0.0, 1.0, 0.1, 22.85)" width="5.7" xlink:href="#sprite1"/>
    </g>
    <g id="sprite1" transform="matrix(1.0, 0.0, 0.0, 1.0, -0.1, 0.05)">
      <use height="43.2" transform="matrix(0.0068, 0.0, 0.0, 0.1331, 0.1001, -0.025)" width="843.2" xlink:href="#shape0"/>
    </g>
    <g id="shape0" transform="matrix(1.0, 0.0, 0.0, 1.0, 421.6, 21.6)">
      <path d="M-421.6 -21.6 L421.6 -21.6 421.6 21.6 -421.6 21.6 -421.6 -21.6" fill="#ffffff" fill-rule="evenodd" stroke="none"/>
    </g>
    <g id="sprite2" transform="matrix(1.0, 0.0, 0.0, 1.0, 15.3, 6.95)">
      <use height="13.9" transform="matrix(1.0, 0.0, 0.0, 1.0, -15.3, -6.95)" width="171.85" xlink:href="#text0"/>
    </g>
    <g id="button0" transform="matrix(1.0, 0.0, 0.0, 1.0, 43.5, 4.95)">
      <use height="39.5" transform="matrix(2.2038, 0.0, 0.0, 0.2532, -43.525, -4.9999)" width="39.5" xlink:href="#shape1"/>
    </g>
    <g id="shape1" transform="matrix(1.0, 0.0, 0.0, 1.0, 19.75, 19.75)">
      <path d="M19.75 -19.75 L19.75 19.75 -19.75 19.75 -19.75 -19.75 19.75 -19.75" fill="#ffffff" fill-opacity="0.0" fill-rule="evenodd" stroke="none"/>
    </g>
  </defs>
</svg>
