<?xml version="1.0" encoding="UTF-8" standalone="no"?>
<svg xmlns:xlink="http://www.w3.org/1999/xlink" height="396.05px" width="560.3px" xmlns="http://www.w3.org/2000/svg">
  <g transform="matrix(1.0, 0.0, 0.0, 1.0, 280.15, 198.05)">
    <use height="396.05" transform="matrix(1.0, 0.0, 0.0, 1.0, -280.15, -198.05)" width="560.3" xlink:href="#shape0"/>
  </g>
  <defs>
    <g id="shape0" transform="matrix(1.0, 0.0, 0.0, 1.0, 280.15, 198.05)">
      <path d="M-165.4 -198.05 L-149.7 -178.2 Q-123.6 -144.5 -91.95 -100.0 -65.9 -63.3 -50.45 -46.7 -32.15 -27.05 -0.95 -4.0 20.3 11.6 70.55 32.3 L109.65 48.0 Q127.35 55.15 137.85 60.0 L149.05 61.0 Q170.3 63.1 182.35 66.6 187.3 68.1 201.05 74.0 211.55 78.5 230.15 89.8 256.15 105.65 256.15 113.0 256.15 117.85 253.25 119.35 251.2 120.4 245.95 120.2 238.95 119.95 236.55 120.2 230.9 120.85 227.15 124.0 231.25 128.1 256.7 147.95 280.15 167.4 280.15 174.5 280.15 178.9 277.75 182.8 275.85 185.95 268.15 195.0 262.45 193.9 237.5 180.2 208.95 164.5 190.95 157.35 L190.05 157.0 189.05 157.0 Q192.05 160.0 192.05 167.5 192.05 176.8 189.05 186.05 185.15 198.0 178.55 198.0 170.85 198.0 167.3 195.25 164.25 192.9 163.15 187.4 162.8 185.65 161.85 174.8 161.0 165.3 159.05 158.0 154.7 141.5 137.6 130.95 123.8 122.5 111.05 122.0 L87.25 120.85 Q60.7 130.35 41.85 139.55 29.05 145.75 13.8 155.35 2.8 162.25 -4.0 164.2 -13.55 167.0 -32.45 167.0 -45.9 167.0 -51.75 162.8 -56.35 159.5 -60.35 149.55 -67.45 132.0 -70.4 126.3 -79.2 109.2 -93.95 92.0 -104.05 80.15 -141.0 34.9 -163.0 7.95 -198.3 -31.0 -206.35 -36.15 -215.95 -45.95 -227.85 -58.1 -246.45 -81.85 -257.5 -96.0 -280.15 -126.15 -257.9 -144.55 -188.45 -184.85 L-165.4 -198.05 M76.15 56.7 Q75.05 56.8 75.05 57.0 L80.05 57.0 76.15 56.7" fill="#000000" fill-rule="evenodd" stroke="none"/>
    </g>
  </defs>
</svg>
