<?xml version="1.0" encoding="UTF-8" standalone="no"?>
<svg xmlns:xlink="http://www.w3.org/1999/xlink" height="197.25px" width="490.25px" xmlns="http://www.w3.org/2000/svg">
  <g transform="matrix(1.0, 0.0, 0.0, 1.0, 0.0, 0.0)">
    <use height="197.25" transform="matrix(1.0, 0.0, 0.0, 1.0, 0.0, 0.0)" width="490.25" xlink:href="#shape0"/>
  </g>
  <defs>
    <g id="shape0" transform="matrix(1.0, 0.0, 0.0, 1.0, 0.0, 0.0)">
      <path d="M366.0 77.15 Q366.9 74.85 366.65 72.8 L365.75 70.5 366.85 70.8 Q367.6 73.85 366.1 77.15 L366.0 77.15 M298.9 55.75 L299.15 55.8 305.7 57.8 316.2 61.6 Q323.9 64.45 327.55 65.35 L331.75 66.7 335.25 67.7 337.45 68.55 Q338.2 68.9 339.2 69.25 L340.25 69.55 Q341.25 69.8 342.1 70.2 350.0 74.2 354.85 75.5 L365.9 77.5 365.6 78.1 365.4 78.4 365.3 78.75 364.05 80.85 Q363.4 81.65 361.3 82.3 L357.45 83.15 Q355.35 83.55 354.9 83.85 L354.75 84.0 354.65 84.05 Q351.2 83.3 347.35 81.85 L334.8 77.95 330.25 76.55 327.15 75.9 295.15 59.55 296.6 56.9 296.7 56.75 296.7 56.55 297.4 55.5 298.9 55.75 M315.6 78.0 L316.45 76.55 317.85 75.5 325.15 77.85 327.5 79.85 327.45 79.85 319.85 77.55 317.85 81.45 315.15 78.7 315.6 78.0 M380.8 95.5 L381.7 93.7 384.7 95.65 383.1 98.65 382.7 98.45 380.9 97.1 380.75 97.05 380.25 96.55 380.8 95.5 M489.8 131.55 L485.6 138.25 484.05 138.8 474.3 136.7 473.6 134.85 472.4 134.35 471.25 134.65 469.75 133.5 469.85 131.55 402.8 115.35 402.8 115.1 403.15 114.45 472.95 130.65 Q476.25 131.15 478.6 128.1 L478.95 128.2 479.25 128.45 489.8 131.55 M401.5 116.25 Q397.75 119.05 393.1 118.65 L369.15 113.05 Q368.8 113.5 368.6 114.25 L368.5 115.15 369.25 115.4 372.2 116.45 Q372.65 116.6 372.35 117.85 371.75 119.45 372.3 121.0 L373.9 124.8 Q374.05 126.1 372.85 128.25 L372.1 129.4 371.1 129.7 370.8 130.3 372.8 131.9 372.35 185.85 369.4 185.9 368.65 187.25 368.65 187.35 371.1 188.85 381.2 196.65 372.25 197.25 360.6 188.1 360.25 186.8 366.2 186.6 366.4 186.1 363.3 185.8 363.95 131.65 365.2 129.2 364.95 128.65 364.7 127.85 363.7 127.2 362.95 126.45 Q362.3 125.85 362.5 124.5 L362.6 121.95 Q362.55 121.25 361.55 120.25 L360.45 118.75 359.6 116.8 Q359.45 115.9 359.75 114.65 L353.8 115.2 346.5 113.5 346.45 113.4 305.45 131.9 307.1 133.5 300.25 135.25 298.15 133.55 295.5 132.75 290.4 134.55 288.0 126.2 297.05 126.2 300.9 127.6 300.45 128.2 301.2 127.4 339.4 110.1 339.55 109.95 340.9 108.45 Q341.65 107.7 343.15 107.05 L319.0 101.4 316.1 103.45 309.1 102.3 306.65 101.2 298.35 86.95 293.85 84.15 292.85 83.85 Q288.6 82.3 272.85 77.9 265.35 75.65 258.0 74.45 L254.65 73.85 250.95 73.1 245.8 71.9 241.35 70.85 239.9 70.05 240.05 69.7 243.55 69.2 246.65 68.85 268.45 74.85 280.55 78.1 285.95 79.3 290.95 80.2 Q300.95 82.45 303.2 83.45 307.3 85.55 304.4 90.85 L304.1 91.35 401.5 116.25 M212.6 126.3 L203.7 117.05 211.55 102.25 212.25 99.5 Q207.25 99.8 203.1 98.5 199.0 97.2 195.35 94.55 193.9 93.9 190.35 97.0 L185.45 90.5 187.3 86.5 187.15 85.75 182.6 86.4 182.75 90.55 158.55 104.5 164.9 109.75 172.0 111.15 172.5 113.55 Q171.15 115.3 168.5 114.7 162.25 112.75 156.4 109.75 154.7 108.85 152.7 107.6 149.65 106.4 147.75 103.0 L147.7 102.85 149.5 100.85 181.6 82.1 183.7 78.3 177.7 68.55 178.85 68.5 180.9 69.05 188.2 82.9 203.3 85.7 198.15 93.9 Q207.15 99.15 214.95 94.6 L216.25 95.85 216.75 99.25 222.4 102.45 223.7 103.3 212.6 126.3 M38.5 67.25 L37.7 69.4 30.8 68.4 22.65 87.65 21.0 91.45 Q16.45 92.95 14.05 89.5 L15.95 84.65 22.9 66.25 20.05 64.6 41.25 26.4 41.75 25.55 55.9 29.55 55.1 31.1 55.05 31.25 36.95 64.7 38.5 67.25 M197.95 45.7 L197.9 45.65 199.95 41.1 198.2 39.7 200.0 36.55 200.35 36.3 Q193.95 32.45 191.75 29.4 189.05 25.25 192.05 19.95 L192.7 18.75 202.2 21.55 201.05 23.25 Q199.4 26.35 200.0 28.3 200.8 30.0 204.1 32.25 L203.55 33.55 202.55 35.15 Q202.45 35.45 201.55 35.7 L200.45 36.3 200.6 36.35 200.7 36.4 201.25 36.55 Q202.65 37.25 203.6 37.25 L204.7 37.35 205.6 37.7 204.75 39.15 219.45 44.05 220.55 46.25 224.35 47.75 222.5 50.85 217.25 50.3 216.95 51.2 227.75 54.3 233.75 59.1 234.85 59.95 204.85 51.9 197.95 45.7 M229.75 29.7 L230.35 30.1 230.6 32.4 230.45 36.15 Q229.9 39.3 228.25 42.35 L227.75 43.2 224.75 42.45 225.8 42.15 227.2 39.7 Q227.8 38.0 228.45 37.05 L229.0 35.8 229.4 34.5 Q229.45 32.75 229.6 32.25 L229.75 29.7 M243.0 33.8 L244.5 34.2 245.2 35.9 Q245.95 38.3 244.7 40.35 L244.65 40.4 Q243.7 41.9 241.95 42.95 L241.1 43.4 Q241.8 42.9 242.95 40.75 L243.45 40.0 244.1 38.45 Q244.35 36.9 243.1 34.05 L243.0 33.8 M280.05 44.8 L284.5 46.15 285.05 47.0 Q286.2 49.35 284.9 51.65 L284.6 52.45 284.55 52.4 284.25 51.55 Q283.6 50.4 282.35 49.35 282.6 47.95 280.95 46.0 L280.05 44.8 M354.0 95.8 Q354.7 96.15 355.75 96.5 L355.85 96.6 Q357.3 97.25 357.7 98.0 358.35 98.95 357.7 100.0 L357.6 100.1 356.85 100.85 354.85 100.25 Q354.15 99.85 354.0 99.4 L353.9 99.1 354.15 97.8 353.55 96.9 Q353.05 96.4 353.2 96.15 L353.7 95.75 353.9 95.75 354.0 95.8 M361.35 98.6 L361.95 98.45 Q362.65 98.35 363.6 98.9 L365.15 100.15 Q366.35 101.35 366.25 101.85 365.9 102.55 364.65 102.6 363.6 102.6 362.1 101.95 L360.65 100.75 Q360.3 100.1 360.5 99.35 360.9 98.9 361.35 98.6 M367.75 102.2 L367.75 101.85 Q368.1 101.4 368.85 101.05 L370.0 101.05 370.75 101.3 Q371.8 101.85 372.45 102.55 L372.85 103.3 372.85 103.85 372.35 104.55 Q371.85 104.8 370.15 104.1 L370.05 103.95 Q368.0 102.85 367.75 102.2 M376.65 102.55 L377.2 102.35 Q377.6 102.65 378.15 102.85 379.4 103.75 379.45 104.6 L379.2 105.15 Q378.55 106.4 377.75 106.0 L376.5 104.8 375.8 103.9 Q375.4 103.3 375.65 103.0 375.65 102.9 376.65 102.55 M394.4 109.1 L393.8 109.8 Q393.3 110.1 392.2 109.5 L390.85 108.65 Q390.55 108.1 390.85 107.45 L391.4 106.95 391.6 106.85 392.3 106.75 392.95 107.2 393.35 107.35 Q394.7 108.45 394.4 109.1 M387.4 106.15 L387.35 106.65 Q386.5 108.2 384.95 107.4 383.15 106.5 383.35 105.3 L383.75 104.3 385.9 105.1 386.85 105.6 387.4 106.15 M295.6 90.85 L209.15 69.3 211.7 64.8 211.8 64.8 Q223.15 66.95 233.75 70.5 L224.6 69.8 Q222.65 70.35 224.4 71.7 L238.75 74.75 294.05 88.7 295.0 89.75 295.6 90.85 M289.0 93.5 L292.4 94.35 286.25 102.05 284.25 102.05 289.0 93.5 M205.75 85.45 L210.25 86.65 Q205.5 90.95 207.9 95.3 200.75 92.5 205.75 85.45 M259.25 49.1 L261.7 50.45 263.15 51.2 262.95 51.95 263.05 53.1 262.2 53.75 261.75 54.4 261.6 54.4 Q258.55 52.95 258.1 52.1 257.95 51.55 259.05 49.55 L259.25 49.2 259.25 49.1 M279.35 51.3 L280.9 52.0 Q282.65 52.9 283.35 54.45 283.75 55.5 283.6 56.55 L283.1 57.75 Q282.3 59.05 281.2 59.8 279.55 60.85 277.5 60.95 L276.1 60.55 275.8 60.3 273.85 59.3 272.75 59.15 272.4 58.6 Q271.55 57.05 272.75 54.75 L274.0 52.9 Q274.9 52.2 276.3 51.75 278.5 51.1 279.35 51.3 M281.75 54.75 Q281.1 53.6 280.15 53.1 L279.1 53.25 Q277.6 53.2 276.15 54.3 L275.85 54.4 Q274.9 55.2 274.4 56.15 273.55 57.3 274.7 58.15 L276.3 59.1 Q278.25 60.05 279.85 59.35 281.1 58.8 281.9 57.6 282.6 56.3 281.75 54.75 M339.5 94.15 L339.7 93.9 338.35 92.9 337.5 92.15 336.95 91.55 337.8 91.45 339.75 91.7 341.15 92.35 Q342.45 93.05 342.75 93.75 343.05 94.4 342.6 95.25 341.85 96.75 340.0 96.6 L339.7 96.5 338.85 96.4 337.95 96.05 335.65 94.85 336.35 93.8 338.05 94.15 338.95 94.2 339.5 94.15 M349.2 94.85 Q351.5 96.1 350.65 97.65 350.3 98.4 349.6 98.6 L349.25 98.65 346.4 98.55 345.05 97.85 345.75 96.5 344.3 95.2 Q344.2 95.15 344.65 94.5 344.95 93.8 346.2 93.85 L346.65 93.9 346.85 93.9 Q347.7 93.9 348.8 94.4 L349.2 94.85" fill="#000000" fill-rule="evenodd" stroke="none"/>
      <path d="M365.75 70.5 L366.65 72.8 Q366.9 74.85 366.0 77.15 L365.9 77.5 354.85 75.5 Q350.0 74.2 342.1 70.2 341.25 69.8 340.25 69.55 L339.2 69.25 Q338.2 68.9 337.45 68.55 L335.25 67.7 331.75 66.7 327.55 65.35 Q323.9 64.45 316.2 61.6 L305.7 57.8 299.15 55.8 298.9 55.75 Q298.75 54.75 298.25 54.0 L299.45 52.0 299.35 52.0 298.45 50.7 298.15 50.35 365.75 70.5 M285.9 65.95 L288.9 67.0 287.25 70.15 286.35 71.85 288.3 74.2 234.85 59.95 233.75 59.1 235.35 56.25 237.75 51.85 238.0 51.05 285.9 65.95 M205.85 22.6 L229.75 29.7 229.6 32.25 Q229.45 32.75 229.4 34.5 L229.0 35.8 205.05 28.55 205.75 24.05 205.85 22.6 M230.35 30.1 L243.0 33.8 243.1 34.05 Q244.35 36.9 244.1 38.45 L243.45 40.0 230.45 36.15 230.6 32.4 230.35 30.1 M245.2 34.4 L262.65 39.7 263.0 40.65 263.9 42.8 Q265.0 44.7 264.85 44.95 264.35 45.8 262.95 45.25 L262.65 45.2 256.8 43.1 251.7 41.45 247.0 39.8 Q246.3 39.45 245.75 36.95 L245.2 34.4 M271.9 42.45 L273.9 43.05 272.75 42.95 271.9 42.45 M284.5 46.15 L294.5 49.3 296.1 50.95 297.9 53.1 Q297.95 53.55 297.25 55.2 L297.3 55.4 296.7 56.55 296.7 56.75 296.65 56.75 294.55 56.35 286.8 54.0 284.55 52.85 284.6 52.45 284.9 51.65 Q286.2 49.35 285.05 47.0 L284.5 46.15 M265.85 61.5 L262.4 61.2 262.45 60.95 Q262.2 60.7 261.95 60.65 L261.35 60.3 256.55 60.5 256.2 61.1 256.75 61.4 256.25 62.2 260.3 64.25 265.2 65.35 268.2 65.05 Q268.2 64.95 268.35 64.95 269.5 65.2 269.95 64.4 270.45 63.35 268.85 62.6 267.55 61.8 265.85 61.5 M252.15 60.35 Q252.4 60.2 252.8 60.1 L253.15 59.35 252.35 58.75 251.7 58.25 249.95 57.4 249.55 57.3 249.05 57.3 248.0 57.15 246.0 56.45 245.25 55.6 244.2 55.0 Q243.35 54.5 242.25 54.4 L242.05 54.35 241.9 54.4 242.0 54.4 239.55 55.0 238.5 56.8 238.65 56.85 Q238.45 57.5 239.1 58.05 L241.05 59.45 244.35 60.4 247.95 61.4 250.0 61.4 251.7 61.05 252.15 60.35 M272.15 65.55 L271.85 65.85 Q271.4 66.45 272.55 67.05 L275.55 68.15 Q278.4 69.25 279.0 69.6 L279.3 69.25 279.6 68.45 279.75 68.3 280.8 68.95 281.65 68.9 281.1 70.0 283.9 69.7 285.1 68.35 285.15 68.1 Q285.4 67.6 285.25 67.4 L284.4 66.75 284.3 66.7 Q283.45 66.25 281.9 65.85 L281.0 65.85 277.85 65.4 276.5 64.8 275.35 64.6 275.3 64.55 275.3 64.65 274.05 64.8 272.4 65.1 272.15 65.55" fill="#515151" fill-rule="evenodd" stroke="none"/>
      <path d="M365.9 77.5 L366.1 77.15 372.5 78.35 371.35 80.5 Q370.0 83.1 368.15 84.0 L362.55 85.8 Q361.5 86.2 359.3 85.4 L356.9 84.55 354.9 83.85 Q355.35 83.55 357.45 83.15 L361.3 82.3 Q363.4 81.65 364.05 80.85 L365.3 78.75 365.4 78.4 365.6 78.1 365.9 77.5 M464.55 122.25 L465.35 120.6 471.8 123.8 464.55 122.25 M402.8 115.35 L402.6 115.3 402.8 115.1 402.8 115.35 M202.2 21.55 L205.85 22.6 205.75 24.05 205.05 28.55 204.9 29.35 204.1 32.25 Q200.8 30.0 200.0 28.3 199.4 26.35 201.05 23.25 L202.2 21.55 M478.9 127.75 L478.95 128.2 478.6 128.1 478.9 127.75 M469.75 125.35 L470.95 126.2 407.65 110.05 407.0 109.0 469.75 125.35 M469.85 127.95 L471.4 129.2 408.15 113.8 408.75 112.75 469.85 127.95" fill="#111111" fill-rule="evenodd" stroke="none"/>
      <path d="M366.1 77.15 Q367.6 73.85 366.85 70.8 L373.5 72.65 373.35 73.2 Q373.65 75.6 372.5 78.35 L366.1 77.15 M380.55 97.35 L380.75 97.05 380.9 97.1 380.55 97.35 M55.1 31.1 L55.15 31.25 55.05 31.25 55.1 31.1" fill="#595959" fill-rule="evenodd" stroke="none"/>
      <path d="M306.65 101.2 L307.9 103.35 305.95 104.85 301.9 102.65 299.75 98.7 298.1 95.65 297.75 94.7 296.9 93.25 296.55 92.6 295.6 90.85 295.0 89.75 294.05 88.7 293.25 88.05 292.85 83.85 293.85 84.15 298.35 86.95 306.65 101.2 M23.5 93.8 L23.3 94.3 Q22.5 95.3 21.55 95.6 L21.2 95.55 21.1 95.6 18.35 94.95 Q15.65 94.2 14.0 93.45 L12.5 92.5 12.3 92.35 11.9 91.9 10.8 90.0 Q8.85 87.55 9.65 86.55 9.3 87.85 12.25 90.15 14.7 92.25 16.55 93.15 19.65 94.8 22.7 94.1 L23.5 93.8 M23.0 97.65 L24.55 99.0 Q26.25 100.4 26.4 102.2 26.5 103.5 26.15 104.35 L24.75 106.0 Q24.0 106.55 23.5 106.7 L21.55 106.7 20.9 106.8 Q20.45 106.95 20.35 107.05 L16.65 106.6 13.4 106.3 11.4 105.65 9.4 104.8 4.85 101.7 Q1.9 99.5 1.5 98.7 0.1 96.75 0.0 96.0 L0.85 94.3 Q1.65 92.9 1.95 92.8 2.75 92.1 4.95 92.25 L8.85 92.35 10.1 92.3 Q10.1 92.65 10.65 93.25 L12.15 94.6 13.65 95.7 15.2 96.55 Q17.75 98.0 20.05 97.95 L23.0 97.65 M360.2 92.25 L359.35 91.8 358.55 91.55 357.3 91.2 356.75 91.1 355.1 90.35 355.2 90.2 356.6 90.35 358.95 91.0 360.55 91.8 360.2 92.25 M364.6 93.2 L363.9 92.7 364.8 92.8 366.15 92.95 367.2 93.5 367.45 93.75 367.9 93.95 368.25 94.4 368.2 94.55 367.95 94.6 364.6 93.2 M370.95 94.6 L372.4 94.45 374.55 94.95 374.7 95.15 375.6 95.5 375.95 96.1 374.85 96.25 374.4 96.3 371.8 95.35 Q370.9 95.0 370.95 94.9 L370.95 94.85 370.95 94.6 M380.55 97.35 L377.95 95.95 378.1 95.85 378.65 96.0 378.95 95.95 379.15 96.0 380.25 96.55 380.75 97.05 380.55 97.35 M353.7 89.7 L353.3 90.3 351.0 89.7 348.9 89.3 349.0 89.05 349.1 89.0 349.95 88.95 350.25 88.9 351.05 88.3 352.2 88.75 353.7 89.7 M336.9 86.1 L336.75 86.5 336.35 86.55 332.95 84.85 333.0 84.75 334.35 85.25 335.8 85.45 335.95 85.5 336.65 85.95 336.9 86.1 M345.7 88.0 L345.15 87.95 343.15 87.75 342.3 87.25 342.35 87.2 342.3 87.2 342.45 86.85 343.75 86.95 345.8 88.0 345.7 88.0" fill="#090909" fill-rule="evenodd" stroke="none"/>
      <path d="M287.25 70.15 L315.6 78.0 315.15 78.7 317.85 81.45 318.0 81.55 326.2 82.1 326.9 80.9 380.8 95.5 380.25 96.55 379.15 96.0 378.95 95.95 378.65 96.0 378.1 95.85 377.95 95.95 380.55 97.35 380.9 97.1 382.7 98.45 383.1 98.65 383.9 99.2 397.45 102.8 398.0 101.7 398.15 101.9 Q402.5 104.6 403.5 106.75 L403.6 106.95 403.7 107.1 403.7 107.2 404.15 109.5 Q404.15 112.25 403.15 114.45 L402.8 115.1 402.6 115.3 402.6 115.4 401.5 116.25 304.1 91.35 304.4 90.85 Q307.3 85.55 303.2 83.45 300.95 82.45 290.95 80.2 L285.95 79.3 280.55 78.1 268.45 74.85 246.65 68.85 243.55 69.2 240.05 69.7 239.9 70.05 241.35 70.85 245.8 71.9 250.95 73.1 254.65 73.85 258.0 74.45 Q265.35 75.65 272.85 77.9 288.6 82.3 292.85 83.85 L293.25 88.05 294.05 88.7 238.75 74.75 224.4 71.7 Q222.65 70.35 224.6 69.8 L233.75 70.5 Q223.15 66.95 211.8 64.8 L211.7 64.8 209.15 69.3 295.6 90.85 296.55 92.6 63.2 34.5 55.15 31.25 55.1 31.1 55.9 29.55 56.4 28.55 57.55 13.1 50.15 4.95 197.75 45.8 197.95 45.7 204.85 51.9 234.85 59.95 288.3 74.2 286.35 71.85 287.25 70.15 M20.3 0.3 L21.8 0.0 36.35 3.9 36.4 4.0 36.5 3.9 36.7 3.95 42.55 11.35 41.25 25.45 21.5 19.9 Q21.2 14.85 19.8 9.45 19.85 5.1 26.5 6.25 20.85 2.85 20.3 0.3 M360.2 92.25 L360.55 91.8 358.95 91.0 356.6 90.35 355.2 90.2 355.1 90.35 356.75 91.1 357.3 91.2 358.55 91.55 359.35 91.8 360.2 92.25 M354.0 95.8 L353.9 95.75 353.7 95.75 353.2 96.15 Q353.05 96.4 353.55 96.9 L354.15 97.8 353.9 99.1 354.0 99.4 Q354.15 99.85 354.85 100.25 L356.85 100.85 357.6 100.1 357.7 100.0 Q358.35 98.95 357.7 98.0 357.3 97.25 355.85 96.6 L355.75 96.5 Q354.7 96.15 354.0 95.8 M361.35 98.6 Q360.9 98.9 360.5 99.35 360.3 100.1 360.65 100.75 L362.1 101.95 Q363.6 102.6 364.65 102.6 365.9 102.55 366.25 101.85 366.35 101.35 365.15 100.15 L363.6 98.9 Q362.65 98.35 361.95 98.45 L361.35 98.6 M370.95 94.6 L370.95 94.85 370.95 94.9 Q370.9 95.0 371.8 95.35 L374.4 96.3 374.85 96.25 375.95 96.1 375.6 95.5 374.7 95.15 374.55 94.95 372.4 94.45 370.95 94.6 M364.6 93.2 L367.95 94.6 368.2 94.55 368.25 94.4 367.9 93.95 367.45 93.75 367.2 93.5 366.15 92.95 364.8 92.8 363.9 92.7 364.6 93.2 M367.75 102.2 Q368.0 102.85 370.05 103.95 L370.15 104.1 Q371.85 104.8 372.35 104.55 L372.85 103.85 372.85 103.3 372.45 102.55 Q371.8 101.85 370.75 101.3 L370.0 101.05 368.85 101.05 Q368.1 101.4 367.75 101.85 L367.75 102.2 M353.7 89.7 L352.2 88.75 351.05 88.3 350.25 88.9 349.95 88.95 349.1 89.0 349.0 89.05 348.9 89.3 351.0 89.7 353.3 90.3 353.7 89.7 M376.65 102.55 Q375.65 102.9 375.65 103.0 375.4 103.3 375.8 103.9 L376.5 104.8 377.75 106.0 Q378.55 106.4 379.2 105.15 L379.45 104.6 Q379.4 103.75 378.15 102.85 377.6 102.65 377.2 102.35 L376.65 102.55 M394.4 109.1 Q394.7 108.45 393.35 107.35 L392.95 107.2 392.3 106.75 391.6 106.85 391.4 106.95 390.85 107.45 Q390.55 108.1 390.85 108.65 L392.2 109.5 Q393.3 110.1 393.8 109.8 L394.4 109.1 M387.4 106.15 L386.85 105.6 385.9 105.1 383.75 104.3 383.35 105.3 Q383.15 106.5 384.95 107.4 386.5 108.2 387.35 106.65 L387.4 106.15 M41.25 26.4 L41.25 25.45 41.75 25.55 41.25 26.4 M345.7 88.0 L345.8 88.0 343.75 86.95 342.45 86.85 342.3 87.2 342.35 87.2 342.3 87.25 343.15 87.75 345.15 87.95 345.7 88.0 M336.9 86.1 L336.65 85.95 335.95 85.5 335.8 85.45 334.35 85.25 333.0 84.75 332.95 84.85 336.35 86.55 336.75 86.5 336.9 86.1 M349.2 94.85 L348.8 94.4 Q347.7 93.9 346.85 93.9 L346.65 93.9 346.2 93.85 Q344.95 93.8 344.65 94.5 344.2 95.15 344.3 95.2 L345.75 96.5 345.05 97.85 346.4 98.55 349.25 98.65 349.6 98.6 Q350.3 98.4 350.65 97.65 351.5 96.1 349.2 94.85 M339.5 94.15 L338.95 94.2 338.05 94.15 336.35 93.8 335.65 94.85 337.95 96.05 338.85 96.4 339.7 96.5 340.0 96.6 Q341.85 96.75 342.6 95.25 343.05 94.4 342.75 93.75 342.45 93.05 341.15 92.35 L339.75 91.7 337.8 91.45 336.95 91.55 337.5 92.15 338.35 92.9 339.7 93.9 339.5 94.15" fill="#373737" fill-rule="evenodd" stroke="none"/>
      <path d="M381.7 93.7 L381.85 93.65 395.9 97.75 398.8 99.85 384.7 95.65 381.7 93.7" fill="#484848" fill-rule="evenodd" stroke="none"/>
      <path d="M327.45 79.85 L326.9 80.9 326.2 82.1 318.0 81.55 317.85 81.45 319.85 77.55 327.45 79.85 M398.8 99.85 L398.85 99.9 398.0 101.7 397.45 102.8 383.9 99.2 383.1 98.65 384.7 95.65 398.8 99.85 M22.65 87.65 Q27.2 89.7 25.85 92.1 25.1 93.25 23.5 93.8 L22.7 94.1 Q19.65 94.8 16.55 93.15 14.7 92.25 12.25 90.15 9.3 87.85 9.65 86.55 L9.8 86.15 Q10.35 84.95 11.2 84.9 L15.95 84.65 14.05 89.5 Q16.45 92.95 21.0 91.45 L22.65 87.65 M21.2 95.55 L23.0 97.65 20.05 97.95 Q17.75 98.0 15.2 96.55 L13.65 95.7 12.15 94.6 10.65 93.25 Q10.1 92.65 10.1 92.3 L10.85 92.2 12.3 92.35 12.5 92.5 14.0 93.45 Q15.65 94.2 18.35 94.95 L21.1 95.6 21.2 95.55 M297.75 94.7 L235.05 79.85 Q233.85 78.15 236.0 78.3 L296.9 93.25 297.75 94.7" fill="#222222" fill-rule="evenodd" stroke="none"/>
      <path d="M465.35 120.6 L465.45 120.25 Q465.7 119.85 466.1 119.95 L478.45 122.95 490.2 130.15 Q490.4 131.15 489.8 131.55 L479.25 128.45 478.95 128.2 478.9 127.75 478.85 127.65 Q478.6 127.05 477.75 126.5 475.45 124.95 472.7 124.05 L471.8 123.8 465.35 120.6" fill="#444444" fill-rule="evenodd" stroke="none"/>
      <path d="M295.15 59.55 L294.85 60.1 Q294.0 59.35 293.6 59.6 293.1 59.8 292.45 60.95 L291.1 62.95 289.9 64.8 Q289.65 65.55 288.9 65.3 L287.4 65.4 286.15 65.9 285.9 65.95 238.0 51.05 237.75 51.85 Q236.6 50.55 235.35 49.9 L232.7 49.8 Q232.05 50.25 231.55 51.1 230.9 52.4 232.1 53.75 232.8 55.0 234.85 56.0 L235.35 56.25 233.75 59.1 227.75 54.3 227.45 54.0 231.3 46.8 232.65 47.5 234.15 44.8 227.75 43.2 228.25 42.35 Q229.9 39.3 230.45 36.15 L243.45 40.0 242.95 40.75 Q241.8 42.9 241.1 43.4 L241.95 42.95 Q243.7 41.9 244.65 40.4 L244.7 40.35 Q245.95 38.3 245.2 35.9 L244.5 34.2 245.2 34.4 245.75 36.95 Q246.3 39.45 247.0 39.8 L251.7 41.45 256.8 43.1 262.65 45.2 262.95 45.25 Q262.1 46.7 260.9 47.7 L259.25 49.1 259.25 49.2 259.05 49.55 Q257.95 51.55 258.1 52.1 258.55 52.95 261.6 54.4 L261.75 54.4 262.2 53.75 263.05 53.1 262.95 51.95 263.15 51.2 263.85 49.5 265.5 47.15 Q266.85 46.0 269.6 45.25 L274.5 45.4 Q276.1 45.75 279.2 47.3 L282.35 49.35 Q283.6 50.4 284.25 51.55 L284.55 52.4 284.6 52.45 284.55 52.85 286.8 54.0 294.55 56.35 296.65 56.75 296.7 56.75 296.6 56.9 295.15 59.55 M403.7 107.1 L403.7 107.0 464.55 122.25 471.8 123.8 472.7 124.05 Q475.45 124.95 477.75 126.5 478.6 127.05 478.85 127.65 L478.9 127.75 478.6 128.1 Q476.25 131.15 472.95 130.65 L403.15 114.45 Q404.15 112.25 404.15 109.5 L403.7 107.2 403.7 107.1 M190.35 97.0 Q189.1 98.0 187.7 99.3 L188.05 101.5 185.45 101.35 Q178.1 105.95 172.05 111.0 L172.0 111.15 164.9 109.75 158.55 104.5 182.75 90.55 182.6 86.4 187.15 85.75 187.3 86.5 185.45 90.5 190.35 97.0 M20.05 64.6 L19.45 64.25 8.0 59.1 5.55 55.35 Q22.35 39.25 21.5 19.9 L41.25 25.45 42.55 11.35 36.7 3.95 36.5 3.8 38.1 2.85 48.05 6.05 49.75 4.85 50.15 4.95 57.55 13.1 56.4 28.55 55.9 29.55 41.75 25.55 41.25 25.45 41.25 26.4 20.05 64.6 M469.75 125.35 L407.0 109.0 407.65 110.05 470.95 126.2 469.75 125.35 M469.85 127.95 L408.75 112.75 408.15 113.8 471.4 129.2 469.85 127.95 M180.9 69.05 L230.25 81.4 224.65 89.9 222.85 90.0 213.8 87.6 210.25 86.65 205.75 85.45 203.75 84.85 203.3 85.7 188.2 82.9 180.9 69.05 M222.4 102.45 L233.75 81.15 289.0 93.5 284.25 102.05 229.7 100.5 227.35 103.4 223.95 103.4 223.7 103.3 222.4 102.45 M204.1 32.25 L204.9 29.35 205.05 28.55 229.0 35.8 228.45 37.05 Q227.8 38.0 227.2 39.7 L225.8 42.15 224.75 42.45 205.6 37.7 204.7 37.35 203.6 37.25 Q202.65 37.25 201.25 36.55 L200.7 36.4 200.6 36.35 200.45 36.3 201.55 35.7 Q202.45 35.45 202.55 35.15 L203.55 33.55 204.1 32.25 M279.35 51.3 Q278.5 51.1 276.3 51.75 274.9 52.2 274.0 52.9 L272.75 54.75 Q271.55 57.05 272.4 58.6 L272.75 59.15 273.85 59.3 275.8 60.3 276.1 60.55 277.5 60.95 Q279.55 60.85 281.2 59.8 282.3 59.05 283.1 57.75 L283.6 56.55 Q283.75 55.5 283.35 54.45 282.65 52.9 280.9 52.0 L279.35 51.3" fill="#1e1e1e" fill-rule="evenodd" stroke="none"/>
      <path d="M178.85 68.5 L125.05 55.05 99.65 75.6 96.55 73.0 38.6 67.45 38.5 67.25 36.95 64.7 55.05 31.25 55.15 31.25 63.2 34.5 296.55 92.6 296.9 93.25 236.0 78.3 Q233.85 78.15 235.05 79.85 L297.75 94.7 298.1 95.65 292.4 94.35 289.0 93.5 233.75 81.15 222.4 102.45 216.75 99.25 216.25 95.85 214.95 94.6 211.5 91.2 213.8 87.6 222.85 90.0 224.65 89.9 230.25 81.4 180.9 69.05 178.85 68.5 M5.55 55.35 L1.0 48.3 Q16.1 31.45 11.75 5.2 L14.1 1.1 20.3 0.3 Q20.85 2.85 26.5 6.25 19.85 5.1 19.8 9.45 21.2 14.85 21.5 19.9 22.35 39.25 5.55 55.35 M54.95 43.3 L48.45 55.85 102.6 61.5 114.0 52.6 54.8 38.15 53.5 40.35 54.95 43.3" fill="#0d0d0d" fill-rule="evenodd" stroke="none"/>
      <path d="M298.15 50.35 L298.45 50.7 299.35 52.0 299.45 52.0 298.25 54.0 Q298.75 54.75 298.9 55.75 L297.4 55.5 296.7 56.55 297.3 55.4 297.25 55.2 Q297.95 53.55 297.9 53.1 L296.1 50.95 294.5 49.3 298.15 50.35 M262.65 39.7 L271.9 42.45 272.75 42.95 273.9 43.05 280.05 44.8 280.95 46.0 Q282.6 47.95 282.35 49.35 L279.2 47.3 Q276.1 45.75 274.5 45.4 L269.6 45.25 Q266.85 46.0 265.5 47.15 L263.85 49.5 263.15 51.2 261.7 50.45 259.25 49.1 260.9 47.7 Q262.1 46.7 262.95 45.25 264.35 45.8 264.85 44.95 265.0 44.7 263.9 42.8 L263.0 40.65 262.65 39.7" fill="#555555" fill-rule="evenodd" stroke="none"/>
      <path d="M265.85 61.5 L265.4 62.0 265.0 62.8 Q264.95 63.35 265.85 63.85 L267.95 64.85 268.2 65.05 265.2 65.35 260.3 64.25 256.25 62.2 256.75 61.4 258.25 62.1 260.25 62.05 262.0 61.85 262.2 61.35 262.4 61.2 265.85 61.5 M249.95 57.4 L249.65 57.5 248.3 57.65 247.8 58.7 249.1 59.55 250.1 60.45 251.4 60.65 252.15 60.35 251.7 61.05 250.0 61.4 247.95 61.4 244.35 60.4 241.05 59.45 239.1 58.05 Q238.45 57.5 238.65 56.85 L240.8 57.95 244.8 57.95 Q245.6 58.0 246.1 57.1 L246.0 56.45 248.0 57.15 249.05 57.3 249.55 57.3 249.95 57.4 M279.75 68.3 L279.6 68.45 279.3 69.25 279.0 69.6 Q278.4 69.25 275.55 68.15 L272.55 67.05 Q271.4 66.45 271.85 65.85 L272.15 65.55 273.3 66.3 276.3 66.6 278.15 66.2 278.35 65.95 277.4 65.4 277.85 65.4 281.0 65.85 281.9 65.85 280.05 66.7 279.3 68.15 279.75 68.3 M285.1 68.35 L283.9 69.7 281.1 70.0 281.65 68.9 283.95 69.0 Q284.8 68.9 285.0 68.3 L285.1 68.35" fill="#2b2b2b" fill-rule="evenodd" stroke="none"/>
      <path d="M262.4 61.2 L262.2 61.35 262.45 60.95 262.4 61.2" fill="#888888" fill-rule="evenodd" stroke="none"/>
      <path d="M297.9 49.75 L297.7 49.8 297.65 49.65 297.9 49.75 M281.75 54.75 Q282.6 56.3 281.9 57.6 281.1 58.8 279.85 59.35 278.25 60.05 276.3 59.1 L274.7 58.15 Q273.55 57.3 274.4 56.15 274.9 55.2 275.85 54.4 L276.15 54.3 Q277.6 53.2 279.1 53.25 L280.15 53.1 Q281.1 53.6 281.75 54.75" fill="#737373" fill-rule="evenodd" stroke="none"/>
      <path d="M299.75 98.7 L291.55 104.95 280.7 104.75 227.35 103.4 229.7 100.5 284.25 102.05 286.25 102.05 292.4 94.35 298.1 95.65 299.75 98.7" fill="#2f2f2f" fill-rule="evenodd" stroke="none"/>
      <path d="M280.7 104.75 L267.25 129.4 213.6 127.2 212.6 126.3 223.7 103.3 223.95 103.4 227.35 103.4 280.7 104.75" fill="#1a1a1a" fill-rule="evenodd" stroke="none"/>
    </g>
  </defs>
</svg>
