<?xml version="1.0" encoding="UTF-8" standalone="no"?>
<svg xmlns:xlink="http://www.w3.org/1999/xlink" height="618.25px" width="583.2px" xmlns="http://www.w3.org/2000/svg">
  <g transform="matrix(1.0, 0.0, 0.0, 1.0, 280.25, 274.5)">
    <use height="396.05" transform="matrix(1.0, 0.0, 0.0, 1.0, -280.25, -274.5)" width="560.3" xlink:href="#sprite0"/>
    <use height="159.8" transform="matrix(0.9488, 0.3096, -0.3096, 0.9488, -45.4287, 29.1679)" width="255.0" xlink:href="#sprite1"/>
    <use height="98.1" transform="matrix(-0.2836, 0.3423, -0.3423, -0.2836, 273.7213, 298.9727)" width="119.45" xlink:href="#sprite2"/>
    <use height="85.6" transform="matrix(0.489, 0.2834, -0.2834, 0.489, 42.711, 13.5464)" width="529.15" xlink:href="#sprite3"/>
    <use height="85.6" transform="matrix(0.2873, 0.4864, 0.4864, -0.2873, 7.328, 48.8138)" width="529.15" xlink:href="#sprite3"/>
    <use height="141.1" transform="matrix(0.9449, 0.3171, -0.3171, 0.9449, 42.9929, -52.0883)" width="245.85" xlink:href="#sprite4"/>
  </g>
  <defs>
    <g id="sprite0" transform="matrix(1.0, 0.0, 0.0, 1.0, 280.15, 198.05)">
      <use height="396.05" transform="matrix(1.0, 0.0, 0.0, 1.0, -280.15, -198.05)" width="560.3" xlink:href="#shape0"/>
    </g>
    <g id="shape0" transform="matrix(1.0, 0.0, 0.0, 1.0, 280.15, 198.05)">
      <path d="M-165.4 -198.05 L-149.7 -178.2 Q-123.6 -144.5 -91.95 -100.0 -65.9 -63.3 -50.45 -46.7 -32.15 -27.05 -0.95 -4.0 20.3 11.6 70.55 32.3 L109.65 48.0 Q127.35 55.15 137.85 60.0 L149.05 61.0 Q170.3 63.1 182.35 66.6 187.3 68.1 201.05 74.0 211.55 78.5 230.15 89.8 256.15 105.65 256.15 113.0 256.15 117.85 253.25 119.35 251.2 120.4 245.95 120.2 238.95 119.95 236.55 120.2 230.9 120.85 227.15 124.0 231.25 128.1 256.7 147.95 280.15 167.4 280.15 174.5 280.15 178.9 277.75 182.8 275.85 185.95 268.15 195.0 262.45 193.9 237.5 180.2 208.95 164.5 190.95 157.35 L190.05 157.0 189.05 157.0 Q192.05 160.0 192.05 167.5 192.05 176.8 189.05 186.05 185.15 198.0 178.55 198.0 170.85 198.0 167.3 195.25 164.25 192.9 163.15 187.4 162.8 185.65 161.85 174.8 161.0 165.3 159.05 158.0 154.7 141.5 137.6 130.95 123.8 122.5 111.05 122.0 L87.25 120.85 Q60.7 130.35 41.85 139.55 29.05 145.75 13.8 155.35 2.8 162.25 -4.0 164.2 -13.55 167.0 -32.45 167.0 -45.9 167.0 -51.75 162.8 -56.35 159.5 -60.35 149.55 -67.45 132.0 -70.4 126.3 -79.2 109.2 -93.95 92.0 -104.05 80.15 -141.0 34.9 -163.0 7.95 -198.3 -31.0 -206.35 -36.15 -215.95 -45.95 -227.85 -58.1 -246.45 -81.85 -257.5 -96.0 -280.15 -126.15 -257.9 -144.55 -188.45 -184.85 L-165.4 -198.05 M76.15 56.7 Q75.05 56.8 75.05 57.0 L80.05 57.0 76.15 56.7" fill="#000000" fill-rule="evenodd" stroke="none"/>
    </g>
    <g id="sprite1" transform="matrix(1.0, 0.0, 0.0, 1.0, 127.5, 79.9)">
      <use height="159.8" transform="matrix(1.0, 0.0, 0.0, 1.0, -127.5, -79.9)" width="255.0" xlink:href="#shape1"/>
    </g>
    <g id="shape1" transform="matrix(1.0, 0.0, 0.0, 1.0, 127.5, 79.9)">
      <path d="M-120.5 -56.4 Q-120.5 -66.95 -112.5 -72.95 -103.25 -79.9 -84.0 -79.9 -49.55 -79.9 -36.35 -63.2 -31.45 -56.95 -27.95 -46.5 L-22.5 -27.9 Q-19.6 -18.45 -8.45 -9.85 L2.05 -2.0 Q8.65 3.1 13.5 8.1 20.7 15.55 40.6 19.05 56.15 21.75 70.5 21.1 84.7 20.55 103.05 30.65 113.0 36.15 127.5 46.1 127.1 52.75 121.95 61.65 116.8 70.5 116.5 76.1 L102.8 76.9 73.25 78.1 78.5 78.1 Q78.5 79.9 68.15 79.9 L44.05 78.25 Q8.45 74.05 -4.5 66.1 L-21.5 55.85 -34.5 47.8 -35.7 47.7 Q-40.25 45.9 -50.95 42.35 -70.4 35.8 -83.2 29.7 -127.5 8.5 -127.5 -21.4 -127.5 -34.05 -120.8 -45.4 L-120.35 -45.35 -120.4 -46.05 -120.5 -56.4" fill="#000000" fill-rule="evenodd" stroke="none"/>
    </g>
    <g id="sprite2" transform="matrix(1.0, 0.0, 0.0, 1.0, 59.7, 49.05)">
      <use height="98.1" transform="matrix(1.0, 0.0, 0.0, 1.0, -59.7, -49.05)" width="119.45" xlink:href="#shape2"/>
      <use height="94.65" transform="matrix(1.0, 0.0, 0.0, 1.0, -56.3, -47.35)" width="105.3" xlink:href="#shape3"/>
    </g>
    <g id="shape2" transform="matrix(1.0, 0.0, 0.0, 1.0, 59.7, 49.05)">
      <path d="M42.4 39.85 L42.45 39.85 42.45 39.9 42.4 39.85" fill="#1a1a1a" fill-rule="evenodd" stroke="none"/>
      <path d="M2.8 -33.0 L20.9 -35.5 Q39.35 -38.0 46.3 -38.0 53.35 -38.0 54.45 -31.05 54.85 -28.55 54.7 -23.95 L54.45 -16.0 Q54.45 -1.95 53.7 3.95 52.55 12.8 48.45 23.0 45.9 29.2 38.85 36.35 31.35 44.0 26.8 44.0 22.75 44.0 18.1 42.15 16.4 41.45 9.6 38.0 -2.25 32.0 -12.7 32.0 -14.75 32.0 -16.65 34.0 -18.55 36.0 -20.7 36.0 -22.7 36.0 -26.75 33.5 -30.8 31.0 -31.7 31.0 -34.65 31.0 -38.4 34.0 -42.15 37.0 -42.7 37.0 -43.7 35.0 -49.45 25.55 -54.7 15.2 -54.7 6.0 -54.7 2.45 -50.35 -16.45 -47.35 -29.4 -45.8 -34.75 L-45.3 -36.4 -41.0 -37.35 -35.7 -38.0 Q-34.4 -38.0 -31.8 -36.5 -29.2 -35.0 -26.7 -35.0 -25.65 -37.1 -21.1 -40.55 -16.55 -44.0 -14.7 -44.0 L-6.55 -38.5 Q1.6 -33.0 2.8 -33.0 M44.55 -28.4 L42.85 -27.85 Q34.4 -24.9 28.35 -15.95 25.6 -11.85 22.5 -5.25 L17.3 6.0 12.3 3.0 12.3 14.0 Q12.95 16.6 20.05 25.0 26.8 33.0 27.3 33.0 32.65 33.0 40.35 8.0 43.2 -1.2 45.3 -10.6 47.3 -19.35 47.3 -22.0 47.3 -24.0 46.5 -25.75 L45.3 -27.6 45.1 -28.55 44.55 -28.4 M-27.7 27.0 L-37.15 17.75 -42.65 11.8 Q-42.45 24.05 -41.7 31.0 L-35.6 29.0 Q-29.8 27.0 -27.7 27.0" fill="#4d4d4d" fill-rule="evenodd" stroke="none"/>
      <path d="M42.45 39.9 Q32.9 49.55 26.8 49.0 21.9 49.05 16.25 46.8 L16.2 46.8 7.35 42.45 Q-3.3 37.05 -12.7 37.0 L-13.0 37.45 Q-16.6 41.2 -20.7 41.0 -23.65 41.3 -29.35 37.75 -31.5 36.45 -31.7 36.0 -33.2 36.25 -35.25 37.9 -41.35 42.75 -42.7 42.0 -44.1 42.0 -45.3 41.25 -46.55 40.5 -47.15 39.25 -48.15 37.3 -53.7 28.15 L-53.9 27.8 Q-59.75 16.25 -59.7 6.0 -59.8 2.25 -55.2 -17.55 -52.2 -30.7 -50.6 -36.15 L-50.6 -36.2 -50.05 -37.95 Q-49.65 -39.2 -48.7 -40.05 -47.8 -40.9 -46.6 -41.25 L-41.85 -42.25 -41.9 -42.25 -35.7 -43.0 Q-33.5 -43.25 -29.3 -40.8 L-28.75 -40.55 Q-27.0 -42.35 -24.1 -44.5 -17.6 -49.5 -14.7 -49.0 -13.15 -49.0 -11.9 -48.15 L-3.75 -42.65 2.8 -38.0 20.2 -40.45 20.25 -40.45 Q39.15 -43.0 46.3 -43.0 57.65 -43.0 59.4 -31.8 L59.4 -31.85 Q59.85 -29.0 59.7 -23.75 L59.45 -16.0 Q59.45 -1.5 58.65 4.6 57.45 14.0 53.1 24.9 50.3 31.85 42.4 39.85 L42.45 39.9 M2.8 -33.0 Q1.6 -33.0 -6.55 -38.5 L-14.7 -44.0 Q-16.55 -44.0 -21.1 -40.55 -25.65 -37.1 -26.7 -35.0 -29.2 -35.0 -31.8 -36.5 -34.4 -38.0 -35.7 -38.0 L-41.0 -37.35 -45.3 -36.4 -45.8 -34.75 Q-47.35 -29.4 -50.35 -16.45 -54.7 2.45 -54.7 6.0 -54.7 15.2 -49.45 25.55 -43.7 35.0 -42.7 37.0 -42.15 37.0 -38.4 34.0 -34.65 31.0 -31.7 31.0 -30.8 31.0 -26.75 33.5 -22.7 36.0 -20.7 36.0 -18.55 36.0 -16.65 34.0 -14.75 32.0 -12.7 32.0 -2.25 32.0 9.6 38.0 16.4 41.45 18.1 42.15 22.75 44.0 26.8 44.0 31.35 44.0 38.85 36.35 45.9 29.2 48.45 23.0 52.55 12.8 53.7 3.95 54.45 -1.95 54.45 -16.0 L54.7 -23.95 Q54.85 -28.55 54.45 -31.05 53.35 -38.0 46.3 -38.0 39.35 -38.0 20.9 -35.5 L2.8 -33.0 M45.3 -27.6 L46.5 -25.75 Q47.3 -24.0 47.3 -22.0 47.3 -19.35 45.3 -10.6 43.2 -1.2 40.35 8.0 32.65 33.0 27.3 33.0 26.8 33.0 20.05 25.0 12.95 16.6 12.3 14.0 L12.3 3.0 17.3 6.0 22.5 -5.25 Q25.6 -11.85 28.35 -15.95 34.4 -24.9 42.85 -27.85 L44.55 -28.4 45.3 -27.6 M-27.7 27.0 Q-29.8 27.0 -35.6 29.0 L-41.7 31.0 Q-42.45 24.05 -42.65 11.8 L-37.15 17.75 -27.7 27.0" fill="#3c3c3c" fill-rule="evenodd" stroke="none"/>
    </g>
    <g id="shape3" transform="matrix(1.0, 0.0, 0.0, 1.0, 56.3, 47.35)">
      <path d="M1.35 -34.55 L1.4 -34.65 Q3.3 -37.0 5.9 -35.5 L6.2 -34.9 6.5 -34.0 10.8 -33.8 10.85 -33.65 Q19.35 -37.4 22.2 -37.1 22.2 -36.95 22.55 -36.55 22.9 -36.15 22.9 -35.0 L5.65 -24.7 Q-11.55 -14.6 -11.8 -14.6 L-14.2 -15.1 -14.4 -15.45 Q-14.6 -15.7 -14.6 -16.9 -14.6 -20.7 -0.25 -28.25 0.85 -26.9 1.2 -26.9 4.1 -26.9 4.1 -29.2 4.1 -30.1 2.2 -33.2 L1.35 -34.55 M-29.35 -14.05 L-28.1 -16.05 Q-25.95 -19.3 -24.45 -19.8 -22.8 -20.35 -22.8 -17.0 -22.8 -15.6 -25.65 -10.75 -28.5 -5.9 -28.5 -0.8 -28.5 6.3 -22.4 13.55 L-18.2 18.35 Q-17.35 19.45 -16.85 20.4 L-10.05 20.1 Q-5.65 18.5 -0.8 18.0 L3.5 17.8 3.3 17.7 2.2 16.9 1.9 16.25 Q1.6 15.7 1.6 14.5 L1.65 13.3 2.0 12.7 6.0 12.6 Q7.3 13.4 7.3 15.1 L7.3 16.3 7.1 16.9 6.6 17.45 Q6.25 17.8 5.65 17.95 L6.9 18.1 7.2 17.8 Q9.35 15.95 13.3 16.7 L13.6 17.3 Q13.9 17.75 13.9 18.9 L13.6 20.45 14.35 20.95 Q19.0 24.15 20.5 30.2 24.55 30.2 26.9 32.05 29.3 33.9 31.0 33.9 35.65 27.25 40.1 23.55 49.0 16.2 49.0 31.1 49.0 34.6 45.15 40.05 39.95 47.3 32.2 47.3 22.85 47.3 17.3 44.1 L17.5 44.1 19.95 43.85 Q21.15 44.9 22.9 44.9 24.1 44.9 24.6 44.4 L25.1 43.9 25.3 43.25 25.3 42.0 Q25.3 39.4 22.05 39.2 20.4 39.1 19.6 39.8 L19.3 39.5 15.1 35.65 13.05 34.3 16.1 33.95 Q17.1 33.5 17.1 31.9 17.1 29.0 11.8 29.2 6.5 29.45 6.5 32.0 6.5 33.0 6.9 33.35 7.65 34.0 9.65 34.2 9.0 35.0 9.0 36.9 L12.2 40.4 Q14.05 42.3 15.45 43.25 L14.3 43.3 Q9.95 43.3 6.75 37.6 7.8 37.55 8.25 37.15 L8.6 36.7 9.0 35.2 Q3.65 30.2 -0.05 30.1 -1.2 30.1 -1.9 30.45 -3.05 28.6 -4.9 28.6 L-17.9 28.25 -17.9 28.1 Q-17.9 23.75 -26.85 28.65 L-33.75 32.5 -33.0 31.6 Q-30.2 28.25 -30.2 27.3 -30.2 21.75 -35.1 26.55 L-38.3 30.35 Q-38.7 24.65 -45.15 19.7 -44.9 19.1 -44.9 18.4 -44.9 14.2 -49.35 15.95 L-51.3 16.85 -51.4 16.85 Q-52.15 16.85 -52.7 17.15 L-56.3 7.6 Q-56.3 -3.0 -52.6 -2.7 -49.45 -2.45 -44.45 5.2 -41.15 10.25 -38.3 16.35 -35.35 16.75 -33.1 18.45 -31.8 19.45 -31.05 20.65 L-30.65 20.6 -30.8 20.45 Q-31.0 20.2 -31.0 19.0 -31.0 15.1 -28.95 14.25 -30.45 12.2 -31.4 9.95 -33.4 5.3 -33.4 -1.0 -33.4 -4.8 -31.85 -8.9 L-31.8 -8.9 Q-30.6 -8.9 -30.1 -9.45 L-29.5 -10.0 -29.3 -13.0 -29.35 -14.05 M2.15 35.8 L0.8 35.9 -1.5 35.55 -1.5 35.5 -1.2 35.1 -1.0 34.35 2.15 35.8 M-10.75 35.75 Q-13.05 36.7 -15.1 36.7 L-17.65 36.45 -20.4 36.7 Q-24.4 36.7 -27.45 35.9 L-25.3 34.55 -22.7 32.8 Q-21.65 34.05 -19.3 34.7 L-10.75 35.75 M-33.85 38.9 Q-35.55 41.6 -39.1 41.6 -40.15 41.6 -41.55 39.9 L-40.0 40.0 Q-37.15 40.0 -33.85 38.9 M-45.75 33.05 L-49.7 24.5 -50.75 21.95 -50.2 22.0 -48.4 21.85 Q-46.5 23.1 -45.65 26.6 L-44.5 31.8 Q-43.8 34.3 -42.4 34.3 -41.2 34.3 -39.95 33.55 L-39.75 34.3 -39.5 34.7 -39.1 34.8 -40.2 34.9 -42.7 34.35 -44.2 34.05 Q-44.6 32.95 -45.75 33.05 M10.2 12.2 Q9.2 12.9 8.2 13.1 L6.15 11.4 5.7 10.8 Q5.7 9.6 6.35 8.9 7.45 7.75 10.0 8.6 L10.3 9.15 Q10.6 9.55 10.6 10.7 L10.2 12.2 M-8.05 10.8 Q-7.8 10.6 -7.7 10.2 -5.2 9.4 -2.55 10.85 0.0 12.25 0.0 14.0 0.0 16.3 -2.8 16.3 L-3.25 16.3 Q-3.5 17.05 -4.2 17.5 -4.95 18.0 -6.1 18.0 L-8.5 17.5 -8.7 17.15 Q-8.9 16.9 -8.9 15.7 -8.9 14.0 -7.65 13.55 L-8.1 12.0 -8.05 10.8 M-11.4 6.9 Q-11.4 8.25 -12.7 9.8 -14.05 11.4 -15.5 11.4 L-17.55 9.75 Q-17.9 9.35 -17.9 8.5 -17.9 5.75 -14.65 4.65 -11.4 3.6 -11.4 6.9 M-23.9 15.65 L-24.2 15.1 Q-27.0 14.75 -28.0 15.1 -29.3 15.5 -29.3 17.3 -29.3 18.5 -29.1 18.8 L-28.9 19.2 -26.5 19.6 Q-23.6 19.6 -23.6 17.2 -23.6 16.05 -23.9 15.65" fill="#6d0101" fill-rule="evenodd" stroke="none"/>
      <path d="M17.3 44.1 Q16.55 44.0 15.45 43.25 14.05 42.3 12.2 40.4 L9.0 36.9 Q9.0 35.0 9.65 34.2 L11.8 34.3 13.05 34.3 15.1 35.65 19.3 39.5 19.6 39.8 Q20.4 39.1 22.05 39.2 25.3 39.4 25.3 42.0 L25.3 43.25 25.1 43.9 24.6 44.4 Q24.1 44.9 22.9 44.9 21.15 44.9 19.95 43.85 L17.5 44.1 17.3 44.1 M6.75 37.6 L6.5 37.6 2.15 35.8 -1.0 34.35 -1.2 35.1 -1.5 35.5 -1.5 35.55 -3.2 35.9 -10.75 35.75 -19.3 34.7 Q-21.65 34.05 -22.7 32.8 L-25.3 34.55 -27.45 35.9 Q-30.85 37.85 -33.85 38.9 -37.15 40.0 -40.0 40.0 L-41.55 39.9 Q-43.85 39.55 -44.6 38.2 L-44.8 37.55 -44.2 37.3 -44.0 36.7 -44.0 35.5 -44.2 34.05 -42.7 34.35 -40.2 34.9 -39.1 34.8 -39.5 34.7 -39.75 34.3 -39.95 33.55 -39.7 33.35 Q-38.3 32.3 -38.3 31.0 L-38.3 30.35 -35.1 26.55 Q-30.2 21.75 -30.2 27.3 -30.2 28.25 -33.0 31.6 L-33.75 32.5 -26.85 28.65 Q-17.9 23.75 -17.9 28.1 L-17.9 28.25 -4.9 28.6 Q-3.05 28.6 -1.9 30.45 -1.2 30.1 -0.05 30.1 3.65 30.2 9.0 35.2 L8.6 36.7 8.25 37.15 Q7.8 37.55 6.75 37.6" fill="#d20202" fill-rule="evenodd" stroke="none"/>
      <path d="M-0.25 -28.25 L-1.15 -29.35 -2.0 -29.3 -9.7 -35.35 -10.75 -36.1 -14.6 -33.4 Q-16.75 -33.4 -17.1 -35.1 -17.3 -35.95 -17.1 -36.9 -17.1 -38.4 -16.4 -39.55 -18.45 -40.55 -20.1 -40.95 L-24.4 -33.5 Q-29.3 -24.65 -29.3 -22.7 -29.3 -21.45 -30.4 -20.85 -31.2 -20.4 -32.2 -20.4 -34.95 -20.4 -35.7 -22.8 -36.05 -24.0 -35.9 -25.4 -31.8 -33.85 -27.7 -40.05 -23.7 -46.05 -21.65 -46.65 -19.15 -49.0 -11.0 -43.25 L-10.9 -43.2 Q-7.7 -44.25 -2.2 -45.3 L-1.9 -44.7 Q-1.6 -44.25 -1.6 -43.1 L-4.1 -41.05 -2.0 -38.9 1.35 -34.55 2.2 -33.2 Q4.1 -30.1 4.1 -29.2 4.1 -26.9 1.2 -26.9 0.85 -26.9 -0.25 -28.25 M-44.8 37.55 L-45.05 37.7 -46.5 38.4 -48.5 36.55 Q-48.9 36.05 -48.9 35.5 -48.9 33.8 -46.45 33.15 L-45.75 33.05 Q-44.6 32.95 -44.2 34.05 L-44.0 35.5 -44.0 36.7 -44.2 37.3 -44.8 37.55 M-50.75 21.95 L-53.4 21.6 -53.6 21.25 Q-53.8 21.0 -53.8 19.8 L-53.8 19.75 Q-53.8 17.8 -52.7 17.15 -52.15 16.85 -51.4 16.85 L-51.3 16.85 -49.35 15.95 Q-44.9 14.2 -44.9 18.4 -44.9 19.1 -45.15 19.7 -38.7 24.65 -38.3 30.35 L-38.3 31.0 Q-38.3 32.3 -39.7 33.35 L-39.95 33.55 Q-41.2 34.3 -42.4 34.3 -43.8 34.3 -44.5 31.8 L-45.65 26.6 Q-46.5 23.1 -48.4 21.85 L-50.2 22.0 -50.75 21.95 M-31.85 -8.9 Q-33.55 -8.95 -34.05 -10.6 L-34.2 -10.6 Q-41.3 -10.6 -44.85 -12.2 L-45.1 -12.3 -45.7 -12.2 -48.1 -14.5 Q-48.1 -17.95 -44.05 -16.75 L-39.55 -17.2 Q-35.6 -17.1 -33.65 -16.0 -33.05 -17.15 -31.75 -17.15 -29.65 -17.15 -29.35 -14.05 L-29.3 -13.0 -29.5 -10.0 -30.1 -9.45 Q-30.6 -8.9 -31.8 -8.9 L-31.85 -8.9 M9.65 34.2 Q7.65 34.0 6.9 33.35 6.5 33.0 6.5 32.0 6.5 29.45 11.8 29.2 17.1 29.0 17.1 31.9 17.1 33.5 16.1 33.95 L13.05 34.3 11.8 34.3 9.65 34.2 M-23.9 15.65 Q-23.6 16.05 -23.6 17.2 -23.6 19.6 -26.5 19.6 L-28.9 19.2 -29.1 18.8 Q-29.3 18.5 -29.3 17.3 -29.3 15.5 -28.0 15.1 -27.0 14.75 -24.2 15.1 L-23.9 15.65" fill="#2b0000" fill-rule="evenodd" stroke="none"/>
    </g>
    <g id="sprite3" transform="matrix(1.0, 0.0, 0.0, 1.0, 264.55, 42.8)">
      <use height="85.6" transform="matrix(1.0, 0.0, 0.0, 1.0, -264.55, -42.8)" width="529.15" xlink:href="#shape4"/>
    </g>
    <g id="shape4" transform="matrix(1.0, 0.0, 0.0, 1.0, 264.55, 42.8)">
      <path d="M-250.55 14.7 L-264.55 1.7 -233.55 -9.35 -247.55 -25.35 -224.5 -36.35 Q-118.0 -53.1 -19.45 -26.35 L90.55 7.7 Q150.5 30.7 227.6 29.7 L264.6 42.7 Q222.65 43.35 186.3 40.55 L140.95 35.35 Q85.0 26.6 45.55 7.7 -114.8 -49.4 -216.55 -22.35 -202.65 -12.3 -216.55 4.7 L-250.55 14.7" fill="#c8c8c8" fill-rule="evenodd" stroke="none"/>
      <path d="M-200.55 -19.35 Q-193.1 -7.1 -200.55 5.15 L-216.55 4.7 Q-202.65 -12.3 -216.55 -22.35 L-200.55 -19.35" fill="#848484" fill-rule="evenodd" stroke="none"/>
      <path d="M140.95 35.35 Q65.95 26.1 45.55 15.65 -69.1 -41.7 -200.55 -19.35 L-216.55 -22.35 Q-114.8 -49.4 45.55 7.7 85.0 26.6 140.95 35.35 M-200.55 5.15 L-227.55 14.7 -250.55 14.7 -216.55 4.7 -200.55 5.15" fill="#595959" fill-rule="evenodd" stroke="none"/>
    </g>
    <g id="sprite4" transform="matrix(1.0, 0.0, 0.0, 1.0, 122.9, 70.55)">
      <use height="141.1" transform="matrix(1.0, 0.0, 0.0, 1.0, -122.9, -70.55)" width="245.85" xlink:href="#shape5"/>
    </g>
    <g id="shape5" transform="matrix(1.0, 0.0, 0.0, 1.0, 122.9, 70.55)">
      <path d="M81.65 56.35 L77.8 52.75 Q70.35 45.6 64.7 38.7 58.95 31.7 57.95 28.55 51.6 8.2 45.65 -1.5 37.65 -14.55 24.95 -19.45 15.65 -23.0 6.7 -25.6 L6.6 -25.6 6.55 -25.55 Q2.15 -24.15 -10.95 -18.0 -23.0 -12.35 -31.25 -10.2 -43.75 -6.95 -56.05 -8.45 L-52.55 -8.45 -68.95 -9.85 -99.05 -12.45 Q-109.9 -13.25 -115.4 -21.25 -120.6 -28.9 -118.55 -40.1 L-122.9 -40.8 Q-117.7 -52.6 -109.05 -59.2 -101.05 -65.35 -88.75 -67.95 -78.6 -70.1 -62.05 -70.45 -52.1 -70.65 -29.05 -70.45 L-1.4 -70.45 22.1 -70.55 Q39.6 -70.15 47.4 -66.9 54.85 -63.85 63.7 -53.85 L77.55 -37.75 87.95 -25.45 Q93.5 -19.15 98.05 -8.15 L100.5 -1.5 104.95 10.55 109.8 19.0 Q113.85 25.8 114.95 30.55 L119.3 48.0 Q122.95 63.05 122.95 65.05 122.95 67.8 114.8 69.4 L113.4 63.65 102.1 60.45 Q95.95 58.6 93.8 58.6 88.85 58.6 81.95 56.45 L81.65 56.35" fill="#000000" fill-rule="evenodd" stroke="none"/>
      <path d="M114.8 69.4 L114.0 69.55 104.45 70.55 Q97.2 70.55 81.65 56.35 L81.95 56.45 Q88.85 58.6 93.8 58.6 95.95 58.6 102.1 60.45 L113.4 63.65 114.8 69.4" fill="#1a1a1a" fill-rule="evenodd" stroke="none"/>
    </g>
  </defs>
</svg>
