<?xml version="1.0" encoding="UTF-8" standalone="no"?>
<svg xmlns:xlink="http://www.w3.org/1999/xlink" height="412.9px" width="1305.45px" xmlns="http://www.w3.org/2000/svg">
  <g transform="matrix(1.0, 0.0, 0.0, 1.0, 4.25, 360.1)">
    <use height="559.85" transform="matrix(-0.0461, 0.0, 0.0, 0.0473, 1301.2069, -1.6089)" width="27271.7" xlink:href="#sprite0"/>
    <use height="12.9" transform="matrix(0.4919, 0.8672, -0.8672, 0.4919, 6.9434, 4.8254)" width="48.0" xlink:href="#sprite3"/>
    <use height="13.95" transform="matrix(0.7623, -0.6432, 0.6432, 0.7623, 13.7138, 40.859)" width="53.85" xlink:href="#sprite4"/>
  </g>
  <defs>
    <g id="sprite0" transform="matrix(1.0, 0.0, 0.0, 1.0, 26477.95, 73.1)">
      <use height="101.2" transform="matrix(1.0, 0.0, 0.0, 1.0, -26477.95, 123.8)" width="26721.15" xlink:href="#sprite1"/>
      <use height="139.65" transform="matrix(1.0, 0.0, 0.0, 1.0, 165.1, 112.3)" width="284.2" xlink:href="#shape0"/>
      <use height="158.15" transform="matrix(3.5267, -0.0048, 0.0048, 3.5267, -765.85, -71.0)" width="442.0" xlink:href="#sprite2"/>
    </g>
    <g id="shape0" transform="matrix(1.0, 0.0, 0.0, 1.0, -165.1, -112.3)">
      <path d="M313.45 157.65 Q300.8 150.95 285.85 149.65 L285.75 149.65 285.7 149.65 284.1 149.55 277.7 149.35 Q268.0 149.15 246.75 149.3 L173.75 148.95 172.45 112.3 341.75 112.95 388.45 154.3 388.45 164.3 390.45 186.3 341.1 183.65 339.8 181.3 Q331.05 166.1 313.45 157.65" fill="#6f6d65" fill-rule="evenodd" stroke="none"/>
      <path d="M313.45 157.65 Q319.4 160.8 324.85 165.15 334.7 173.05 339.8 181.3 L341.1 183.65 390.45 186.3 Q398.75 218.8 424.45 228.15 437.3 232.8 448.45 230.95 L449.0 229.55 Q449.5 230.05 449.1 239.65 448.7 249.3 442.6 251.4 440.65 252.05 438.05 251.95 L435.1 251.65 266.45 246.3 Q257.45 245.0 252.85 240.3 246.0 233.35 243.75 216.3 L243.2 212.25 243.75 212.3 Q242.95 205.8 241.6 199.3 238.95 186.3 236.45 186.3 L172.45 184.3 173.75 148.95 246.75 149.3 271.1 149.65 277.7 149.35 284.1 149.55 285.7 149.65 285.75 149.65 285.85 149.65 Q300.8 150.95 313.45 157.65 M196.45 167.65 Q193.4 167.65 191.25 170.0 189.1 172.3 189.1 175.65 189.1 178.95 191.25 181.3 193.4 183.65 196.45 183.65 199.5 183.65 201.6 181.3 203.75 178.95 203.75 175.65 203.75 172.3 201.6 170.0 199.5 167.65 196.45 167.65 M286.45 236.05 Q293.1 229.8 293.1 220.95 293.1 212.15 286.45 205.9 279.85 199.65 270.45 199.65 261.05 199.65 254.4 205.9 247.75 212.15 247.75 220.95 247.75 229.8 254.4 236.05 261.05 242.3 270.45 242.3 279.85 242.3 286.45 236.05" fill="#282828" fill-rule="evenodd" stroke="none"/>
      <path d="M173.3 198.4 L173.75 198.3 173.4 194.95 233.1 195.65 233.75 205.65 173.75 206.95 173.3 198.4" fill="#474541" fill-rule="evenodd" stroke="none"/>
      <path d="M172.45 184.3 L236.45 186.3 Q238.95 186.3 241.6 199.3 242.95 205.8 243.75 212.3 L243.2 212.25 Q241.45 211.8 237.75 209.0 L233.75 205.65 233.1 195.65 173.4 194.95 173.75 198.3 173.3 198.4 Q169.85 199.0 167.2 196.8 L165.1 194.3 165.1 168.3 Q165.1 165.4 166.45 158.25 L167.75 151.65 172.45 151.65 171.75 180.95 172.8 190.1 172.45 184.3" fill="#6b6a60" fill-rule="evenodd" stroke="none"/>
      <path d="M196.45 167.65 Q199.5 167.65 201.6 170.0 203.75 172.3 203.75 175.65 203.75 178.95 201.6 181.3 199.5 183.65 196.45 183.65 193.4 183.65 191.25 181.3 189.1 178.95 189.1 175.65 189.1 172.3 191.25 170.0 193.4 167.65 196.45 167.65" fill="#6e6f6a" fill-rule="evenodd" stroke="none"/>
      <path d="M286.45 236.05 Q279.85 242.3 270.45 242.3 261.05 242.3 254.4 236.05 247.75 229.8 247.75 220.95 247.75 212.15 254.4 205.9 261.05 199.65 270.45 199.65 279.85 199.65 286.45 205.9 293.1 212.15 293.1 220.95 293.1 229.8 286.45 236.05 M274.75 216.55 Q272.4 214.3 269.1 214.3 265.8 214.3 263.45 216.55 261.1 218.8 261.1 221.95 261.1 225.15 263.45 227.4 265.8 229.65 269.1 229.65 272.4 229.65 274.75 227.4 277.1 225.15 277.1 221.95 277.1 218.8 274.75 216.55" fill="#444444" fill-rule="evenodd" stroke="none"/>
      <path d="M274.75 216.55 Q277.1 218.8 277.1 221.95 277.1 225.15 274.75 227.4 272.4 229.65 269.1 229.65 265.8 229.65 263.45 227.4 261.1 225.15 261.1 221.95 261.1 218.8 263.45 216.55 265.8 214.3 269.1 214.3 272.4 214.3 274.75 216.55" fill="#5c5c5c" fill-rule="evenodd" stroke="none"/>
    </g>
    <g id="sprite2" transform="matrix(1.0, 0.0, 0.0, 1.0, 0.0, 0.0)">
      <use height="158.15" transform="matrix(1.0, 0.0, 0.0, 1.0, 0.0, 0.0)" width="442.0" xlink:href="#shape1"/>
    </g>
    <g id="shape1" transform="matrix(1.0, 0.0, 0.0, 1.0, 0.0, 0.0)">
      <path d="M383.2 19.65 L383.2 19.6 383.5 19.45 Q383.95 19.15 385.0 19.0 L385.75 18.5 386.45 17.9 388.6 16.6 391.9 16.35 392.45 16.35 392.5 16.35 Q394.7 16.65 398.15 17.85 L408.0 20.95 413.45 22.3 413.95 22.55 415.15 23.05 419.1 24.25 Q423.55 25.55 425.4 27.55 L426.5 29.45 427.0 31.25 427.4 33.8 427.4 35.0 427.4 35.45 427.35 35.45 427.35 36.0 427.35 36.2 426.95 38.2 426.8 38.9 426.25 39.8 426.25 40.9 426.25 41.45 426.8 41.8 427.5 42.35 428.1 42.6 429.45 43.45 375.8 27.1 382.95 19.95 383.2 19.65 M207.65 57.8 L207.1 57.8 204.9 57.8 204.35 57.8 200.3 57.8 200.1 57.8 182.25 57.65 177.95 57.4 175.1 57.2 155.05 57.1 151.8 56.8 Q151.0 56.65 150.7 57.0 L150.5 57.55 150.5 57.65 Q149.8 58.1 149.45 58.95 L149.4 45.7 147.7 41.75 229.35 41.75 210.75 42.3 207.65 57.8 M23.6 59.9 Q23.0 58.2 21.2 57.8 L20.65 57.8 18.95 57.5 17.2 56.85 Q12.55 55.25 12.05 53.25 L10.9 49.85 10.4 48.05 10.25 47.75 10.3 47.45 10.15 47.05 Q10.05 46.9 9.75 46.9 L9.2 46.85 Q8.25 46.75 8.15 45.85 L8.25 45.45 Q8.4 45.0 8.95 44.95 10.4 44.6 10.65 44.35 L10.75 43.8 11.1 41.75 20.55 41.75 19.75 45.7 19.75 51.0 23.85 59.85 23.6 59.9 M12.85 38.1 L13.0 37.9 13.0 38.1 12.85 38.1 M20.45 31.5 L3.45 31.5 2.55 30.25 2.4 30.0 Q1.0 28.05 0.55 26.7 L0.15 24.0 0.1 22.95 208.2 22.95 208.2 22.75 211.4 26.9 343.35 26.9 349.05 31.5 20.45 31.5 M0.1 18.3 L0.2 16.5 1.45 13.9 2.1 12.65 76.65 12.7 77.4 12.85 78.15 12.65 208.2 12.65 208.2 18.3 0.1 18.3 M418.2 32.6 L418.1 32.2 417.7 32.05 Q416.4 30.65 414.6 31.1 L413.75 31.05 Q411.6 31.25 411.6 33.9 L411.7 34.65 412.05 35.7 412.45 36.25 412.9 36.9 Q413.5 37.35 414.6 37.5 415.45 38.15 416.3 37.5 L417.15 37.1 417.55 37.1 417.55 36.75 417.85 36.35 Q418.6 35.65 418.7 34.3 L418.65 33.25 418.6 32.75 418.2 32.6 M395.2 20.75 L394.95 20.75 Q392.95 19.3 390.9 19.3 387.05 19.3 385.95 21.75 385.6 22.55 385.6 24.7 385.6 27.25 386.6 28.1 L389.5 30.4 391.75 31.05 391.9 31.1 Q396.0 31.55 396.7 29.95 L396.85 29.45 396.75 29.05 397.0 28.45 397.25 25.4 Q397.25 22.8 396.7 22.3 L395.55 21.15 395.2 20.75" fill="#444444" fill-rule="evenodd" stroke="none"/>
      <path d="M375.8 27.1 L429.45 43.45 429.6 43.5 430.1 43.6 433.25 44.95 433.35 45.3 Q433.7 45.5 433.95 45.8 L434.2 46.35 434.35 46.55 Q434.75 47.85 434.2 50.1 L433.9 50.15 433.9 50.7 433.9 51.25 Q433.4 58.65 429.8 63.0 429.5 63.7 428.85 64.05 L427.9 64.9 427.9 64.95 426.65 64.9 Q424.85 65.05 422.4 66.25 L420.0 67.55 418.05 68.95 417.2 69.7 417.0 69.8 417.0 69.9 415.1 71.7 Q413.55 73.3 413.1 74.2 L412.65 74.55 Q412.45 74.95 412.6 75.25 L412.25 76.55 412.05 77.8 411.95 78.35 411.55 79.1 411.55 82.3 411.4 82.65 411.4 84.0 411.4 84.35 410.75 84.15 Q410.9 82.55 411.55 79.1 L411.95 76.85 Q413.3 69.6 414.05 67.7 412.15 63.3 410.0 73.75 409.05 78.2 408.45 83.4 L398.15 80.0 Q388.8 77.0 383.45 77.05 L396.7 81.35 Q404.5 83.9 408.3 84.8 L408.2 85.25 Q408.2 91.45 410.05 96.95 L401.15 93.75 Q392.7 91.0 378.95 90.05 381.5 90.3 398.0 94.95 L410.65 98.55 412.05 101.6 414.2 105.2 Q402.1 102.2 381.5 98.25 L400.75 103.05 Q411.2 105.7 414.95 106.35 L418.7 111.25 401.0 107.45 Q386.95 104.45 383.8 104.6 L403.8 109.6 Q414.3 112.0 420.05 112.85 L420.45 113.3 Q427.1 120.8 428.9 123.65 431.65 128.05 432.4 132.65 L412.6 128.9 392.3 125.4 418.2 130.9 432.55 133.55 432.7 136.15 432.4 141.25 412.2 136.9 393.8 133.05 394.45 133.3 Q400.1 135.9 413.2 139.15 425.1 142.05 432.2 142.55 L431.75 143.95 Q429.95 148.1 425.1 149.05 L424.7 148.8 Q422.1 148.0 418.7 147.7 412.85 147.25 391.6 147.75 397.5 151.55 403.45 150.45 L408.85 149.2 415.45 148.6 420.05 149.2 423.4 149.7 425.0 149.8 Q431.5 149.8 433.9 143.7 L434.3 142.65 434.95 142.65 438.05 142.4 434.55 141.7 Q435.2 139.2 435.2 136.0 L435.05 133.7 436.9 133.45 435.0 133.1 Q434.35 127.95 431.35 123.25 429.5 120.3 423.15 113.15 L424.7 113.25 426.9 113.0 422.05 111.95 417.65 106.5 418.3 106.25 417.3 106.0 414.5 101.5 413.5 99.4 413.95 99.5 415.3 99.2 415.25 98.95 412.95 98.05 Q410.7 92.15 410.65 85.3 L411.3 85.35 411.45 85.35 411.55 86.3 411.55 86.7 411.55 87.25 411.9 87.85 412.05 88.35 413.15 90.7 413.2 91.05 413.55 91.5 413.7 91.85 413.75 92.15 413.95 92.4 414.5 93.5 416.0 95.95 417.55 98.3 419.15 101.1 Q420.25 102.8 420.75 103.0 L421.4 103.85 423.65 106.3 425.55 108.85 427.55 111.3 428.8 112.6 429.4 113.5 429.5 113.95 Q431.9 116.5 433.75 119.5 L433.9 119.95 435.5 121.8 436.3 123.1 437.05 124.5 438.05 125.95 438.8 126.95 438.8 127.05 438.95 127.15 439.1 127.35 440.75 130.2 Q441.65 131.85 441.8 133.05 L442.0 138.7 441.8 141.55 441.45 143.4 441.35 143.5 441.0 143.95 441.0 144.1 440.45 144.8 439.95 145.55 Q439.75 145.6 439.45 145.75 L437.25 147.35 435.95 148.2 433.35 149.1 426.85 151.5 419.45 153.75 413.85 155.15 406.95 156.45 400.75 158.05 400.25 158.15 399.3 158.1 393.45 157.6 390.85 157.3 388.6 156.2 387.9 154.7 387.65 154.0 387.3 153.15 387.15 152.75 387.1 152.65 387.15 149.1 387.15 148.25 387.2 148.1 Q387.95 146.1 387.95 144.2 L387.95 143.65 Q388.4 143.05 388.15 141.75 L388.1 141.2 388.1 140.7 Q388.2 136.75 387.55 133.6 L387.55 133.05 387.55 131.4 387.25 131.35 386.65 129.1 386.05 126.5 385.9 125.8 386.05 125.1 385.25 121.1 383.8 116.15 379.4 107.15 377.45 103.4 374.4 98.25 Q373.1 96.4 370.6 93.75 L368.7 91.5 368.5 90.9 367.95 90.4 367.9 90.4 Q366.7 88.35 365.85 87.55 365.45 87.1 365.1 87.0 364.2 85.55 361.95 85.6 L361.9 85.9 359.2 86.15 359.2 86.45 Q349.85 87.3 342.85 85.6 L342.3 85.6 341.75 85.55 339.75 85.15 337.95 84.5 Q335.15 83.35 331.95 81.4 L326.95 77.75 322.95 74.15 Q321.15 72.6 317.65 70.5 L312.25 67.15 Q310.25 66.05 307.45 64.9 L307.4 64.9 304.75 63.85 Q301.15 62.5 299.6 62.6 L298.9 62.25 298.7 62.2 298.15 62.2 297.05 62.2 296.5 62.2 294.9 62.2 294.35 62.2 292.4 62.2 286.6 62.2 286.15 62.2 285.6 62.2 279.8 62.2 279.25 62.2 279.05 62.2 279.05 62.3 278.65 62.8 278.65 67.35 278.4 69.7 278.3 73.0 278.35 76.4 278.15 79.75 277.75 83.05 277.75 86.45 277.6 87.5 271.55 87.05 264.65 86.2 257.6 85.2 250.9 84.4 243.15 83.5 236.4 82.7 229.75 81.9 225.65 81.7 223.45 81.35 217.95 80.8 217.2 80.6 217.1 80.55 216.95 73.6 216.95 73.1 216.95 66.0 216.95 65.45 216.95 61.25 216.95 61.05 216.4 61.1 213.9 61.2 208.2 60.5 208.15 60.2 Q207.3 60.05 207.65 58.9 L207.65 58.35 207.65 57.8 210.75 42.3 229.35 41.75 356.95 37.9 357.2 37.65 378.75 36.5 358.25 36.5 366.8 27.1 375.8 27.1 M424.7 146.0 L429.85 145.7 Q415.05 144.7 406.9 142.5 400.2 140.65 395.3 140.7 L404.85 143.4 Q415.4 146.0 424.7 146.0 M422.85 119.2 L424.25 118.9 Q420.25 117.35 404.6 114.3 L384.95 110.6 404.0 115.6 Q418.45 119.2 422.85 119.2 M428.4 124.5 L421.75 123.2 414.4 121.45 Q403.95 119.25 390.1 119.85 395.0 120.1 410.7 122.5 L426.2 124.8 428.4 124.5 M337.95 62.7 L337.4 62.7 336.85 62.7 336.3 62.7 336.3 62.8 Q335.65 62.9 334.65 63.35 334.1 63.3 332.85 64.05 331.0 65.15 330.3 66.0 329.65 66.75 329.5 67.85 L329.45 68.45 329.4 68.55 329.1 69.85 329.1 71.05 329.25 72.9 329.25 73.1 329.25 73.6 Q330.7 77.9 334.55 79.8 L334.65 80.15 337.85 81.5 337.95 81.8 Q343.35 83.5 349.95 83.95 L350.5 83.95 352.45 83.95 353.45 83.95 354.85 83.95 355.4 83.95 355.4 83.9 359.0 83.45 359.75 83.45 360.3 83.45 Q362.85 83.25 364.5 82.15 L364.65 81.8 364.65 81.7 Q367.75 80.05 367.75 77.3 L367.75 77.25 368.1 75.15 Q368.1 72.95 366.35 70.45 L366.3 70.35 366.2 69.85 365.75 69.25 365.7 69.25 Q365.55 68.75 364.65 68.75 363.45 68.75 362.35 70.1 361.55 71.15 361.45 71.85 L361.4 73.45 361.15 75.1 360.6 76.8 359.95 78.45 358.45 80.1 357.95 80.5 357.55 80.5 357.8 80.1 358.7 78.05 359.1 75.95 359.15 74.25 359.05 71.7 358.65 70.4 358.65 70.35 358.55 70.3 Q358.1 68.3 355.75 64.9 L353.85 62.55 Q353.15 62.05 352.95 62.55 L352.25 62.55 351.2 62.55 337.95 62.45 337.95 62.7 M403.5 90.15 L406.0 89.85 392.05 86.25 Q384.6 84.3 380.4 84.15 L392.6 87.35 403.5 90.15 M400.85 151.35 L388.25 150.35 Q392.5 151.6 399.95 152.7 L413.05 153.85 415.3 153.5 414.8 153.2 414.3 153.1 400.85 151.35" fill="#222222" fill-rule="evenodd" stroke="none"/>
      <path d="M383.2 19.65 L382.95 19.95 382.75 19.75 383.2 19.65 M411.4 84.35 L411.45 85.35 411.3 85.35 410.65 85.3 Q410.7 92.15 412.95 98.05 L415.25 98.95 415.3 99.2 413.95 99.5 413.5 99.4 414.5 101.5 417.3 106.0 418.3 106.25 417.65 106.5 422.05 111.95 426.9 113.0 424.7 113.25 423.15 113.15 Q429.5 120.3 431.35 123.25 434.35 127.95 435.0 133.1 L436.9 133.45 435.05 133.7 435.2 136.0 Q435.2 139.2 434.55 141.7 L438.05 142.4 434.95 142.65 434.3 142.65 433.9 143.7 Q431.5 149.8 425.0 149.8 L423.4 149.7 420.05 149.2 415.45 148.6 408.85 149.2 403.45 150.45 Q397.5 151.55 391.6 147.75 412.85 147.25 418.7 147.7 422.1 148.0 424.7 148.8 L425.1 149.05 Q429.95 148.1 431.75 143.95 L432.2 142.55 Q425.1 142.05 413.2 139.15 400.1 135.9 394.45 133.3 L393.8 133.05 412.2 136.9 432.4 141.25 432.7 136.15 432.55 133.55 418.2 130.9 392.3 125.4 412.6 128.9 432.4 132.65 Q431.65 128.05 428.9 123.65 427.1 120.8 420.45 113.3 L420.05 112.85 Q414.3 112.0 403.8 109.6 L383.8 104.6 Q386.95 104.45 401.0 107.45 L418.7 111.25 414.95 106.35 Q411.2 105.7 400.75 103.05 L381.5 98.25 Q402.1 102.2 414.2 105.2 L412.05 101.6 410.65 98.55 398.0 94.95 Q381.5 90.3 378.95 90.05 392.7 91.0 401.15 93.75 L410.05 96.95 Q408.2 91.45 408.2 85.25 L408.3 84.8 Q404.5 83.9 396.7 81.35 L383.45 77.05 Q388.8 77.0 398.15 80.0 L408.45 83.4 Q409.05 78.2 410.0 73.75 412.15 63.3 414.05 67.7 413.3 69.6 411.95 76.85 L411.55 79.1 Q410.9 82.55 410.75 84.15 L411.4 84.35 M23.9 60.0 L23.6 59.9 23.85 59.85 23.9 60.0 M16.25 36.5 L21.25 35.55 21.75 35.45 21.8 35.2 22.3 34.85 Q24.0 33.8 22.75 32.9 L22.55 32.55 Q22.05 31.95 20.45 31.5 L349.05 31.5 355.15 36.5 145.45 36.5 21.6 36.5 16.25 36.5 M367.1 15.2 L367.4 15.3 367.25 15.4 367.1 15.2 M428.4 124.5 L426.2 124.8 410.7 122.5 Q395.0 120.1 390.1 119.85 403.95 119.25 414.4 121.45 L421.75 123.2 428.4 124.5 M422.85 119.2 Q418.45 119.2 404.0 115.6 L384.95 110.6 404.6 114.3 Q420.25 117.35 424.25 118.9 L422.85 119.2 M424.7 146.0 Q415.4 146.0 404.85 143.4 L395.3 140.7 Q400.2 140.65 406.9 142.5 415.05 144.7 429.85 145.7 L424.7 146.0 M337.95 62.7 L337.95 62.45 351.2 62.55 349.9 62.65 348.2 62.7 337.95 62.7 M352.25 62.55 L352.95 62.55 352.9 62.65 352.25 62.55 M403.5 90.15 L392.6 87.35 380.4 84.15 Q384.6 84.3 392.05 86.25 L406.0 89.85 403.5 90.15 M400.85 151.35 L414.3 153.1 414.8 153.2 415.3 153.5 413.05 153.85 399.95 152.7 Q392.5 151.6 388.25 150.35 L400.85 151.35" fill="#000000" fill-rule="evenodd" stroke="none"/>
      <path d="M382.95 19.95 L375.8 27.1 366.8 27.1 358.25 36.5 355.15 36.5 349.05 31.5 343.35 26.9 211.4 26.9 208.2 22.75 208.2 18.3 208.2 12.65 208.2 10.35 208.2 9.8 208.2 9.3 208.2 8.75 208.2 7.15 208.55 7.2 209.75 6.55 209.85 6.55 210.0 6.4 Q211.6 5.6 212.25 5.4 L215.7 3.65 Q220.75 1.1 221.8 0.0 L229.45 0.3 229.45 0.55 229.45 1.1 229.6 1.1 229.7 1.7 Q229.95 2.35 230.55 2.6 L230.55 2.75 230.75 2.8 Q230.6 4.25 230.6 6.95 L230.65 11.6 231.6 17.6 231.8 17.5 232.45 13.9 232.8 10.35 232.75 6.7 232.3 2.7 232.6 2.55 Q233.5 2.25 233.9 1.35 L234.25 0.55 234.35 0.55 237.65 0.7 Q237.7 1.1 238.45 1.8 L238.6 1.95 238.7 2.2 238.7 2.35 238.65 2.25 238.5 2.05 238.25 2.3 Q239.8 5.2 240.15 9.5 L240.35 16.75 241.35 16.95 Q242.45 16.95 242.8 14.05 L242.9 10.85 242.65 6.8 241.9 2.8 241.9 2.75 242.0 2.75 242.0 2.2 242.0 1.7 242.0 1.5 242.0 0.95 242.0 0.55 245.8 0.55 246.35 0.55 Q246.65 1.45 247.35 2.0 L247.4 2.15 247.75 2.45 247.75 2.85 Q247.75 5.1 248.25 8.7 L248.9 14.7 249.9 14.8 Q250.95 14.8 251.3 12.35 L251.45 9.8 Q251.45 5.8 250.6 2.8 L250.6 2.75 250.75 2.75 250.75 2.2 250.75 1.55 250.85 1.0 250.85 0.55 Q253.9 0.15 255.5 1.3 L255.6 1.65 Q255.85 2.2 256.45 2.55 L256.6 2.6 256.55 3.2 257.45 8.0 Q258.45 13.05 258.65 15.8 L259.55 15.9 259.85 15.8 259.75 15.7 Q260.25 13.8 260.25 11.6 L259.8 6.65 259.15 2.8 259.2 2.75 259.4 2.75 259.4 2.6 Q259.85 2.25 259.85 1.7 L259.85 1.5 260.15 0.6 260.15 0.5 Q262.75 0.3 264.2 1.3 L264.35 1.65 264.35 2.2 265.1 2.6 265.1 2.7 264.85 2.95 Q266.25 5.5 266.35 9.35 L266.5 15.6 267.5 15.7 Q268.25 15.7 268.4 12.7 L268.4 9.35 268.3 5.45 267.65 2.85 267.8 2.75 268.15 2.75 268.15 2.2 268.15 1.65 268.15 1.1 268.15 0.55 272.5 0.85 272.5 1.1 272.5 1.15 272.9 2.1 273.1 2.4 273.05 2.75 273.45 2.85 273.45 3.3 273.55 10.0 Q273.75 13.75 274.55 16.5 L274.75 16.35 Q275.45 14.75 275.9 11.8 276.3 9.25 276.3 7.4 L276.25 2.85 276.65 2.5 276.6 2.25 276.9 2.2 276.9 1.65 276.9 1.1 276.9 0.55 280.85 0.8 280.85 0.9 281.05 1.85 Q281.4 2.5 282.3 2.7 L282.25 3.25 282.4 8.8 282.65 17.35 282.85 17.05 283.25 13.15 283.55 8.85 283.4 2.95 284.1 2.7 Q284.95 2.55 285.3 1.95 L285.5 1.1 285.6 1.1 285.6 0.55 289.95 0.85 289.95 1.1 289.95 2.2 289.95 2.75 289.95 3.25 290.5 3.25 291.1 3.25 291.05 5.25 291.25 10.95 291.1 13.9 Q291.1 15.7 292.35 16.75 293.15 14.9 293.55 9.1 L293.85 3.25 294.35 3.25 294.35 2.75 294.35 1.1 294.35 0.55 298.65 0.85 298.7 1.1 298.7 2.75 298.7 3.25 299.05 3.25 299.8 5.85 Q300.75 8.7 300.8 9.7 L301.1 13.1 Q301.45 15.1 302.45 16.3 L302.6 16.15 302.9 13.05 303.15 10.9 Q303.15 8.35 302.85 7.35 302.35 5.4 302.0 3.25 L302.5 3.25 302.5 2.75 302.5 0.55 306.85 0.85 306.85 1.1 307.05 1.15 307.05 1.5 307.05 2.45 307.1 2.65 307.05 3.3 307.25 9.5 306.95 13.1 Q307.0 15.7 309.0 15.7 309.8 15.7 309.9 12.35 L309.9 8.8 309.85 5.7 309.45 3.25 309.55 3.25 310.65 3.25 311.25 3.25 311.25 2.75 311.25 1.1 311.8 1.1 315.05 1.1 315.6 1.1 Q315.95 1.15 316.1 1.4 L316.05 1.7 316.15 2.65 316.2 2.75 316.15 3.25 316.65 3.25 316.7 3.35 316.7 3.4 317.4 5.8 318.25 9.25 318.1 12.3 Q318.1 14.3 319.35 15.25 320.2 14.35 320.4 11.8 L320.45 7.85 320.35 2.75 320.2 2.75 320.45 1.95 320.35 1.1 323.75 1.1 324.3 1.1 Q324.45 2.45 325.35 3.0 L325.3 4.05 Q325.3 5.1 325.85 7.85 326.5 11.7 327.55 12.95 328.5 12.1 328.7 10.35 L328.8 7.7 328.6 5.25 328.3 3.3 328.7 3.25 328.7 2.9 328.85 2.35 328.7 1.8 328.7 1.65 328.7 1.1 Q332.95 0.1 333.55 2.7 L333.4 2.75 Q333.75 4.1 333.95 8.35 334.1 11.75 335.0 13.4 335.55 12.25 336.1 7.65 L336.5 3.1 337.35 3.0 337.4 2.75 337.4 2.2 337.4 1.1 Q341.05 0.25 342.05 2.1 L342.05 2.25 342.2 2.5 342.25 2.75 342.3 3.1 342.3 3.25 342.25 3.1 342.2 3.1 342.2 3.55 341.65 2.75 341.6 2.95 341.55 3.0 341.55 3.3 Q341.55 4.25 342.9 8.25 344.2 12.35 344.85 13.05 L345.5 9.75 345.75 6.35 345.65 2.7 345.85 2.25 346.15 2.2 346.15 1.65 346.15 1.1 355.9 1.4 355.95 1.65 Q356.4 2.85 357.45 3.5 L357.55 3.85 358.0 4.4 358.1 4.95 358.5 5.05 358.65 5.45 Q362.4 9.1 365.6 13.3 L366.45 14.35 366.6 14.55 367.05 15.15 367.1 15.2 367.25 15.4 367.4 15.3 367.45 15.3 Q367.9 15.8 369.8 16.5 L373.2 17.6 376.45 18.9 380.4 19.85 381.0 20.05 381.0 20.15 382.75 19.75 382.95 19.95 M149.45 58.95 L149.3 59.45 149.35 59.75 148.55 62.25 Q148.35 63.15 147.8 63.7 L146.0 64.85 144.8 65.45 143.25 65.9 138.3 66.35 Q138.0 66.4 137.9 66.55 L137.4 66.45 136.75 66.0 136.25 65.95 134.6 65.9 137.05 65.65 137.05 63.05 Q136.75 62.2 135.75 61.7 L135.3 61.5 135.4 61.45 133.5 61.25 132.9 61.6 133.2 61.7 132.85 61.85 132.6 64.65 132.6 66.15 132.8 66.15 132.6 66.25 Q132.2 66.35 131.9 66.55 L131.35 66.55 130.8 66.55 Q128.95 66.75 128.05 66.0 L127.95 66.0 127.95 65.9 128.05 65.9 128.5 65.65 128.5 62.6 128.65 62.6 128.65 61.5 126.15 61.4 126.35 61.7 126.35 61.75 126.25 61.75 124.7 61.9 124.7 62.2 Q123.7 62.45 123.7 63.05 L123.9 64.45 Q124.0 65.45 123.3 66.2 L123.95 66.4 123.7 66.55 123.15 66.6 Q121.1 66.9 120.4 66.0 L119.95 65.9 119.7 65.75 119.8 65.75 119.8 65.55 119.8 65.25 119.9 65.1 119.9 62.25 120.2 62.2 119.9 62.1 119.9 62.0 Q116.85 61.4 115.9 62.05 L115.25 62.05 115.75 62.2 Q115.45 62.45 115.45 62.9 L115.75 64.5 Q115.85 65.45 115.45 65.85 L115.6 65.95 115.5 66.0 115.45 66.0 115.0 66.0 114.85 66.3 Q112.3 67.0 111.7 65.45 L111.15 65.4 111.15 65.3 Q111.6 65.3 111.7 65.1 L111.7 65.0 112.05 64.85 111.45 63.4 111.1 61.95 Q108.0 61.0 107.1 62.45 106.65 63.25 106.85 64.3 L106.9 65.15 107.25 65.75 106.8 66.0 106.7 66.3 Q103.8 67.2 103.1 65.65 L103.35 64.05 Q103.5 63.3 103.1 62.75 102.2 61.7 99.15 62.2 L98.65 62.2 98.7 63.9 Q98.7 64.9 98.25 65.3 L98.6 65.45 98.5 65.75 97.55 66.0 97.0 66.0 Q95.5 66.1 94.8 65.45 L94.75 65.45 94.8 65.45 94.85 65.3 94.85 62.5 94.85 62.35 Q91.2 61.8 90.2 62.75 89.9 63.05 89.9 64.0 89.9 65.2 90.45 65.3 L90.45 65.45 90.4 65.75 Q87.85 66.4 86.6 65.45 L86.5 65.1 86.2 65.0 86.4 65.0 86.55 65.0 87.15 64.85 Q86.6 64.55 86.65 63.65 L86.7 62.2 Q85.5 58.95 83.75 60.6 82.2 62.1 82.2 63.2 L82.2 64.15 Q82.35 65.15 82.95 65.15 L83.45 65.0 83.45 65.05 Q81.5 66.8 79.0 65.45 L78.65 65.45 78.5 65.45 78.65 65.3 78.65 61.8 Q75.85 60.25 74.45 61.65 73.65 62.5 73.65 63.65 L73.7 64.25 74.15 64.8 74.2 64.9 74.1 64.9 73.95 65.3 73.55 65.45 73.45 65.75 Q71.55 66.35 70.8 65.45 L70.6 65.45 70.5 65.45 70.6 65.3 70.8 63.2 Q70.8 61.75 67.75 62.55 64.7 63.35 64.7 64.6 L64.75 65.0 65.2 65.3 64.8 65.45 64.25 65.45 63.75 65.45 63.2 65.5 Q61.95 65.75 61.65 65.15 L61.95 64.95 61.3 63.6 60.65 62.2 Q57.95 61.8 57.25 62.65 57.0 62.9 57.0 64.05 L57.2 65.05 57.1 65.2 55.0 65.45 54.5 65.5 Q53.3 65.8 53.4 64.9 L53.25 64.9 53.25 64.8 53.4 64.8 53.8 64.6 53.8 63.45 Q51.7 61.55 50.15 61.6 48.45 61.6 48.45 64.15 48.45 64.75 49.0 65.15 L46.3 65.45 46.2 65.1 Q44.45 64.0 42.9 63.45 40.4 62.65 40.4 64.3 L40.45 64.75 40.5 64.8 40.45 64.8 40.45 65.25 40.45 65.35 40.5 65.5 40.35 65.6 Q37.9 67.3 35.05 66.1 L35.05 64.35 Q34.2 62.4 32.25 62.95 30.6 63.4 30.4 64.3 L29.7 64.4 29.7 64.65 29.9 64.9 29.4 64.9 28.85 64.9 Q26.2 65.05 26.1 62.7 L25.7 62.6 Q24.6 61.5 23.9 60.0 L23.85 59.85 19.75 51.0 19.75 45.7 20.55 41.75 147.7 41.75 149.4 45.7 149.45 58.95" fill="#262626" fill-rule="evenodd" stroke="none"/>
      <path d="M134.6 65.9 L134.4 65.95 133.3 66.25 132.8 66.15 132.6 66.15 132.6 64.65 132.85 61.85 133.2 61.7 132.9 61.6 133.5 61.25 135.4 61.45 135.3 61.5 135.75 61.7 Q136.75 62.2 137.05 63.05 L137.05 65.65 134.6 65.9 M127.95 66.0 L127.5 65.95 124.95 66.05 124.9 66.3 124.1 66.4 123.95 66.4 123.3 66.2 Q124.0 65.45 123.9 64.45 L123.7 63.05 Q123.7 62.45 124.7 62.2 L124.7 61.9 126.25 61.75 126.35 61.75 126.35 61.7 126.15 61.4 128.65 61.5 128.65 62.6 128.5 62.6 128.5 65.65 128.05 65.9 127.95 65.9 127.95 66.0 M119.7 65.75 L119.6 65.75 119.55 65.7 116.6 65.5 116.7 65.9 116.05 66.05 115.6 65.95 115.45 65.85 Q115.85 65.45 115.75 64.5 L115.45 62.9 Q115.45 62.45 115.75 62.2 L115.25 62.05 115.9 62.05 Q116.85 61.4 119.9 62.0 L119.9 62.1 120.2 62.2 119.9 62.25 119.9 65.1 119.8 65.25 119.8 65.55 119.8 65.75 119.7 65.75 M111.15 65.4 L107.95 65.55 107.95 65.7 107.4 65.9 107.25 65.75 106.9 65.15 106.85 64.3 Q106.65 63.25 107.1 62.45 108.0 61.0 111.1 61.95 L111.45 63.4 112.05 64.85 111.7 65.0 111.7 65.1 Q111.6 65.3 111.15 65.3 L111.15 65.4 M103.1 65.65 L102.95 65.85 102.1 65.9 102.15 65.45 99.7 65.45 99.7 65.4 99.65 65.45 99.0 65.5 98.6 65.45 98.25 65.3 Q98.7 64.9 98.7 63.9 L98.65 62.2 99.15 62.2 Q102.2 61.7 103.1 62.75 103.5 63.3 103.35 64.05 L103.1 65.65 M94.75 65.45 L94.35 65.5 94.3 65.45 94.25 65.45 90.45 65.45 90.45 65.3 Q89.9 65.2 89.9 64.0 89.9 63.05 90.2 62.75 91.2 61.8 94.85 62.35 L94.85 62.5 94.85 65.3 94.8 65.45 94.75 65.45 M86.2 65.0 L85.6 64.9 85.5 64.9 85.0 64.9 83.9 64.9 83.45 65.05 83.45 65.0 82.95 65.15 Q82.35 65.15 82.2 64.15 L82.2 63.2 Q82.2 62.1 83.75 60.6 85.5 58.95 86.7 62.2 L86.65 63.65 Q86.6 64.55 87.15 64.85 L86.55 65.0 86.4 65.0 86.2 65.0 M78.5 65.45 L78.1 65.5 77.95 65.3 Q76.7 64.5 74.2 64.9 L74.15 64.8 73.7 64.25 73.65 63.65 Q73.65 62.5 74.45 61.65 75.85 60.25 78.65 61.8 L78.65 65.3 78.5 65.45 M70.5 65.45 L70.05 65.5 Q69.65 65.4 69.55 65.1 67.7 64.6 65.8 65.1 L65.25 65.3 65.2 65.3 64.75 65.0 64.7 64.6 Q64.7 63.35 67.75 62.55 70.8 61.75 70.8 63.2 L70.6 65.3 70.5 65.45 M61.65 65.15 L61.5 65.15 60.9 64.9 58.1 64.9 58.1 65.1 Q58.05 65.3 57.55 65.3 L57.2 65.05 57.0 64.05 Q57.0 62.9 57.25 62.65 57.95 61.8 60.65 62.2 L61.3 63.6 61.95 64.95 61.65 65.15 M53.25 64.9 L52.85 64.9 49.55 64.9 49.55 65.05 49.0 65.15 Q48.45 64.75 48.45 64.15 48.45 61.6 50.15 61.6 51.7 61.55 53.8 63.45 L53.8 64.6 53.4 64.8 53.25 64.8 53.25 64.9 M46.3 65.45 Q46.25 65.7 45.75 65.7 L45.35 65.45 45.3 65.45 45.15 65.45 44.65 65.45 40.9 65.45 40.9 65.55 40.55 65.55 40.5 65.5 40.45 65.35 40.45 65.25 40.45 64.8 40.5 64.8 40.45 64.75 40.4 64.3 Q40.4 62.65 42.9 63.45 44.45 64.0 46.2 65.1 L46.3 65.45 M35.05 66.1 L35.05 66.2 34.35 65.85 Q32.65 65.0 31.2 65.0 L30.5 65.15 30.5 65.1 30.25 65.15 29.9 64.9 29.7 64.65 29.7 64.4 30.4 64.3 Q30.6 63.4 32.25 62.95 34.2 62.4 35.05 64.35 L35.05 66.1 M230.75 2.8 L230.75 2.7 230.9 2.75 230.9 2.8 231.25 2.85 231.65 2.85 232.3 2.7 232.75 6.7 232.8 10.35 232.45 13.9 231.8 17.5 231.6 17.6 230.65 11.6 230.6 6.95 Q230.6 4.25 230.75 2.8 M238.7 2.35 L238.95 2.75 240.55 2.75 241.1 2.8 Q241.65 2.8 241.85 2.45 L241.9 2.75 241.9 2.8 242.65 6.8 242.9 10.85 242.8 14.05 Q242.45 16.95 241.35 16.95 L240.35 16.75 240.15 9.5 Q239.8 5.2 238.25 2.3 L238.5 2.05 238.65 2.25 238.7 2.35 M247.75 2.45 L249.35 2.8 249.65 2.75 249.95 2.75 249.95 2.65 250.4 2.2 250.6 2.75 250.6 2.8 Q251.45 5.8 251.45 9.8 L251.3 12.35 Q250.95 14.8 249.9 14.8 L248.9 14.7 248.25 8.7 Q247.75 5.1 247.75 2.85 L247.75 2.45 M256.6 2.6 Q257.2 3.0 258.0 3.0 L259.15 2.8 259.8 6.65 260.25 11.6 Q260.25 13.8 259.75 15.7 L259.85 15.8 259.55 15.9 258.65 15.8 Q258.45 13.05 257.45 8.0 L256.55 3.2 256.6 2.6 M265.1 2.6 L266.5 2.85 267.1 3.0 267.65 2.85 268.3 5.45 268.4 9.35 268.4 12.7 Q268.25 15.7 267.5 15.7 L266.5 15.6 266.35 9.35 Q266.25 5.5 264.85 2.95 L265.1 2.7 265.1 2.6 M273.45 2.85 L273.45 2.65 273.85 2.85 273.9 2.85 274.75 3.0 276.25 2.85 276.3 7.4 Q276.3 9.25 275.9 11.8 275.45 14.75 274.75 16.35 L274.55 16.5 Q273.75 13.75 273.55 10.0 L273.45 3.3 273.45 2.85 M282.3 2.7 L282.7 2.75 283.2 2.9 283.2 2.8 283.3 2.8 283.4 2.8 283.4 2.95 283.55 8.85 283.25 13.15 282.85 17.05 282.65 17.35 282.4 8.8 282.25 3.25 282.3 2.7 M291.1 3.25 L291.8 3.4 293.0 3.25 293.5 3.25 293.5 3.05 293.85 2.75 293.85 3.0 293.85 3.25 293.55 9.1 Q293.15 14.9 292.35 16.75 291.1 15.7 291.1 13.9 L291.25 10.95 291.05 5.25 291.1 3.25 M299.05 3.25 L298.95 3.1 300.05 3.3 300.35 3.25 301.6 3.25 301.6 3.15 302.0 3.1 302.0 3.25 Q302.35 5.4 302.85 7.35 303.15 8.35 303.15 10.9 L302.9 13.05 302.6 16.15 302.45 16.3 Q301.45 15.1 301.1 13.1 L300.8 9.7 Q300.75 8.7 299.8 5.85 L299.05 3.25 M307.1 2.65 L307.45 3.0 307.5 3.25 308.3 3.25 308.9 3.3 309.45 3.25 309.85 5.7 309.9 8.8 309.9 12.35 Q309.8 15.7 309.0 15.7 307.0 15.7 306.95 13.1 L307.25 9.5 307.05 3.3 307.1 2.65 M316.7 3.35 L317.5 3.5 319.0 3.25 319.4 3.25 319.95 3.25 320.1 3.25 320.1 3.2 320.15 2.85 320.2 2.75 320.35 2.75 320.45 7.85 320.4 11.8 Q320.2 14.35 319.35 15.25 318.1 14.3 318.1 12.3 L318.25 9.25 317.4 5.8 316.7 3.4 316.7 3.35 M325.35 3.0 L325.35 2.95 325.6 2.95 325.6 3.0 325.6 3.1 328.0 3.35 328.0 3.15 328.2 3.1 328.3 3.3 328.6 5.25 328.8 7.7 328.7 10.35 Q328.5 12.1 327.55 12.95 326.5 11.7 325.85 7.85 325.3 5.1 325.3 4.05 L325.35 3.0 M333.55 2.7 L333.65 2.55 333.9 3.25 335.95 3.2 335.95 2.95 336.5 2.85 336.5 3.1 336.1 7.65 Q335.55 12.25 335.0 13.4 334.1 11.75 333.95 8.35 333.75 4.1 333.4 2.75 L333.55 2.7 M342.3 3.25 Q344.45 3.8 345.4 2.95 L345.4 2.7 345.6 2.4 345.65 2.7 345.75 6.35 345.5 9.75 344.85 13.05 Q344.2 12.35 342.9 8.25 341.55 4.25 341.55 3.3 L341.55 3.0 341.6 2.95 341.65 2.75 342.2 3.55 342.2 3.1 342.25 3.1 342.3 3.25 M240.6 15.6 L240.65 15.45 240.55 15.55 240.6 15.6 M249.3 13.4 L249.25 13.35 249.25 13.4 249.3 13.4 M282.95 14.15 L283.1 8.1 282.85 8.1 282.85 14.15 282.95 14.15 M291.8 15.35 L291.85 15.35 291.7 15.25 291.8 15.35 M274.6 14.1 L274.55 14.05 274.55 14.2 274.6 14.1 M40.75 65.05 L40.75 65.15 40.9 65.15 40.75 65.05 M135.45 62.0 L135.5 62.0 135.45 61.95 135.45 62.0" fill="#111111" fill-rule="evenodd" stroke="none"/>
      <path d="M99.7 65.45 L99.65 65.45 99.7 65.4 99.7 65.45 M94.3 65.45 L94.25 65.45 94.3 65.45 M319.95 3.25 L319.95 2.9 320.15 2.85 320.1 3.2 320.1 3.25 319.95 3.25 M249.3 13.4 L249.25 13.4 249.25 13.35 249.3 13.4 M240.6 15.6 L240.55 15.55 240.65 15.45 240.6 15.6 M282.95 14.15 L282.85 14.15 282.85 8.1 283.1 8.1 282.95 14.15 M274.6 14.1 L274.55 14.2 274.55 14.05 274.6 14.1 M291.8 15.35 L291.7 15.25 291.85 15.35 291.8 15.35 M40.75 65.05 L40.9 65.15 40.75 65.15 40.75 65.05 M135.45 62.0 L135.45 61.95 135.5 62.0 135.45 62.0" fill="#626262" fill-rule="evenodd" stroke="none"/>
      <path d="M0.1 22.95 L0.0 21.05 0.05 18.6 0.1 18.3 208.2 18.3 208.2 22.75 208.2 22.95 0.1 22.95" fill="#5e5e5e" fill-rule="evenodd" stroke="none"/>
      <path d="M11.1 41.75 L11.2 41.3 Q11.5 39.85 12.85 38.1 L13.0 38.1 13.0 37.9 14.25 36.55 14.65 36.55 15.2 36.55 16.25 36.5 21.6 36.5 20.55 41.75 11.1 41.75 M355.15 36.5 L358.25 36.5 378.75 36.5 357.2 37.65 356.95 37.9 229.35 41.75 147.7 41.75 145.45 36.5 355.15 36.5" fill="#2b2b2b" fill-rule="evenodd" stroke="none"/>
      <path d="M20.55 41.75 L21.6 36.5 145.45 36.5 147.7 41.75 20.55 41.75" fill="#1e1e1e" fill-rule="evenodd" stroke="none"/>
    </g>
    <g id="sprite3" transform="matrix(1.0, 0.0, 0.0, 1.0, 0.0, 0.05)">
      <use height="12.9" transform="matrix(1.0, 0.0, 0.0, 1.0, 0.0, -0.05)" width="48.0" xlink:href="#shape2"/>
    </g>
    <g id="shape2" transform="matrix(1.0, 0.0, 0.0, 1.0, 0.0, 0.05)">
      <path d="M43.55 4.0 L43.7 4.05 44.05 3.9 45.7 3.5 Q48.0 4.7 48.0 6.0 48.0 9.75 45.35 11.95 L43.9 11.75 41.3 12.4 22.45 12.4 15.45 11.8 14.1 12.0 13.3 11.9 Q7.85 11.05 3.0 9.65 0.85 9.4 0.1 7.15 L0.05 5.4 Q0.55 4.15 1.6 3.6 L1.85 3.2 Q2.8 1.85 4.7 0.9 7.55 0.4 10.0 1.95 15.9 4.5 20.75 4.9 L29.0 5.4 39.8 4.75 42.55 4.35 43.55 4.0" fill="#000000" fill-rule="evenodd" stroke="none"/>
      <path d="M45.35 11.95 L45.05 12.2 42.4 12.85 22.6 12.85 14.1 12.0 15.45 11.8 22.45 12.4 41.3 12.4 43.9 11.75 45.35 11.95 M0.05 5.4 Q0.15 4.55 0.5 3.65 1.4 1.65 4.0 0.25 7.0 -0.3 10.0 0.25 L19.15 3.15 Q24.3 4.3 29.4 4.1 L40.8 3.35 43.55 4.0 42.55 4.35 39.8 4.75 29.0 5.4 20.75 4.9 Q15.9 4.5 10.0 1.95 7.55 0.4 4.7 0.9 2.8 1.85 1.85 3.2 L1.6 3.6 Q0.55 4.15 0.05 5.4" fill="#1a1a1a" fill-rule="evenodd" stroke="none"/>
    </g>
    <g id="sprite4" transform="matrix(1.0, 0.0, 0.0, 1.0, 0.0, 1.3)">
      <use height="13.95" transform="matrix(1.0, 0.0, 0.0, 1.0, 0.0, -1.3)" width="53.85" xlink:href="#shape3"/>
    </g>
    <g id="shape3" transform="matrix(1.0, 0.0, 0.0, 1.0, 0.0, 1.3)">
      <path d="M3.3 12.15 Q0.0 10.2 0.0 8.8 0.0 7.7 2.5 5.25 L3.5 4.25 3.6 4.3 3.95 4.15 Q7.9 2.55 29.95 4.3 L34.95 4.25 35.1 4.25 35.1 4.2 35.55 4.05 Q35.9 4.0 36.05 3.75 36.35 3.45 36.75 3.4 37.25 3.3 37.5 3.0 L37.8 2.8 37.9 2.7 38.4 2.4 Q39.0 1.9 39.75 1.6 40.95 1.15 41.65 0.05 L42.15 -0.2 42.45 -0.25 43.9 -1.05 44.0 -1.15 44.05 -1.2 45.45 -1.25 45.35 -0.65 46.65 -0.4 Q47.05 0.0 47.55 -0.05 L48.75 0.3 50.2 0.9 51.65 1.5 53.45 2.55 Q54.05 3.1 53.75 3.7 53.45 4.3 51.7 4.65 L50.1 4.95 Q50.4 5.5 50.3 5.95 50.6 6.65 50.0 7.85 L49.2 8.8 48.55 9.25 48.35 10.4 Q47.95 11.1 46.15 11.75 L43.0 11.9 Q42.15 11.45 42.1 10.45 L42.15 9.7 40.85 8.85 40.8 8.85 39.45 9.1 38.7 9.35 38.25 9.5 37.8 9.65 37.0 10.05 37.1 10.4 37.05 10.4 36.7 10.3 36.2 10.15 35.85 10.05 Q6.5 12.9 3.8 12.0 L3.3 12.15" fill="#000000" fill-rule="evenodd" stroke="none"/>
      <path d="M37.05 10.4 Q7.8 13.3 5.0 12.4 L4.15 12.65 3.3 12.15 3.8 12.0 Q6.5 12.9 35.85 10.05 L36.2 10.15 36.7 10.3 37.05 10.4" fill="#1a1a1a" fill-rule="evenodd" stroke="none"/>
    </g>
  </defs>
</svg>
