<?xml version="1.0" encoding="UTF-8" standalone="no"?>
<svg xmlns:xlink="http://www.w3.org/1999/xlink" height="29.45px" width="340.2px" xmlns="http://www.w3.org/2000/svg">
  <g transform="matrix(1.0, 0.0, 0.0, 1.0, 158.3, 15.35)">
    <use height="29.45" transform="matrix(1.0, 0.0, 0.0, 1.0, -158.3, -15.35)" width="340.2" xlink:href="#sprite0"/>
    <use height="25.1" transform="matrix(1.1737, 0.0, 0.0, 1.1737, -158.2893, -15.355)" width="289.85" xlink:href="#text0"/>
  </g>
  <defs>
    <g id="sprite0" transform="matrix(1.0, 0.0, 0.0, 1.0, 185.6, 24.75)">
      <use height="25.1" transform="matrix(1.1737, 0.0, 0.0, 1.1737, -185.5893, -24.755)" width="289.85" xlink:href="#text0"/>
    </g>
    <g id="text0" transform="matrix(1.0, 0.0, 0.0, 1.0, 57.8, -2.85)">
      <g transform="matrix(1.0, 0.0, 0.0, 1.0, -59.3, 0.0)">
        <use fill="#000000" fill-opacity="0.5686275" height="25.1" transform="matrix(0.0293, 0.0, 0.0, 0.0293, 0.0, 23.0)" width="289.85" xlink:href="#font_LilyUPC_-0"/>
        <use fill="#000000" fill-opacity="0.5686275" height="25.1" transform="matrix(0.0293, 0.0, 0.0, 0.0293, 17.45, 23.0)" width="289.85" xlink:href="#font_LilyUPC_S0"/>
        <use fill="#000000" fill-opacity="0.5686275" height="25.1" transform="matrix(0.0293, 0.0, 0.0, 0.0293, 30.6, 23.0)" width="289.85" xlink:href="#font_LilyUPC_t0"/>
        <use fill="#000000" fill-opacity="0.5686275" height="25.1" transform="matrix(0.0293, 0.0, 0.0, 0.0293, 37.75, 23.0)" width="289.85" xlink:href="#font_LilyUPC_a0"/>
        <use fill="#000000" fill-opacity="0.5686275" height="25.1" transform="matrix(0.0293, 0.0, 0.0, 0.0293, 48.15, 23.0)" width="289.85" xlink:href="#font_LilyUPC_y0"/>
        <use fill="#000000" fill-opacity="0.5686275" height="25.1" transform="matrix(0.0293, 0.0, 0.0, 0.0293, 63.6, 23.0)" width="289.85" xlink:href="#font_LilyUPC_o0"/>
        <use fill="#000000" fill-opacity="0.5686275" height="25.1" transform="matrix(0.0293, 0.0, 0.0, 0.0293, 74.85, 23.0)" width="289.85" xlink:href="#font_LilyUPC_n0"/>
        <use fill="#000000" fill-opacity="0.5686275" height="25.1" transform="matrix(0.0293, 0.0, 0.0, 0.0293, 90.9, 23.0)" width="289.85" xlink:href="#font_LilyUPC_y0"/>
        <use fill="#000000" fill-opacity="0.5686275" height="25.1" transform="matrix(0.0293, 0.0, 0.0, 0.0293, 100.75, 23.0)" width="289.85" xlink:href="#font_LilyUPC_o0"/>
        <use fill="#000000" fill-opacity="0.5686275" height="25.1" transform="matrix(0.0293, 0.0, 0.0, 0.0293, 112.0, 23.0)" width="289.85" xlink:href="#font_LilyUPC_u0"/>
        <use fill="#000000" fill-opacity="0.5686275" height="25.1" transform="matrix(0.0293, 0.0, 0.0, 0.0293, 122.45, 23.0)" width="289.85" xlink:href="#font_LilyUPC_r0"/>
        <use fill="#000000" fill-opacity="0.5686275" height="25.1" transform="matrix(0.0293, 0.0, 0.0, 0.0293, 136.15, 23.0)" width="289.85" xlink:href="#font_LilyUPC_g0"/>
        <use fill="#000000" fill-opacity="0.5686275" height="25.1" transform="matrix(0.0293, 0.0, 0.0, 0.0293, 146.9, 23.0)" width="289.85" xlink:href="#font_LilyUPC_u0"/>
        <use fill="#000000" fill-opacity="0.5686275" height="25.1" transform="matrix(0.0293, 0.0, 0.0, 0.0293, 157.35, 23.0)" width="289.85" xlink:href="#font_LilyUPC_a0"/>
        <use fill="#000000" fill-opacity="0.5686275" height="25.1" transform="matrix(0.0293, 0.0, 0.0, 0.0293, 167.75, 23.0)" width="289.85" xlink:href="#font_LilyUPC_r0"/>
        <use fill="#000000" fill-opacity="0.5686275" height="25.1" transform="matrix(0.0293, 0.0, 0.0, 0.0293, 175.85, 23.0)" width="289.85" xlink:href="#font_LilyUPC_d0"/>
        <use fill="#000000" fill-opacity="0.5686275" height="25.1" transform="matrix(0.0293, 0.0, 0.0, 0.0293, 192.1, 23.0)" width="289.85" xlink:href="#font_LilyUPC_S0"/>
        <use fill="#000000" fill-opacity="0.5686275" height="25.1" transform="matrix(0.0293, 0.0, 0.0, 0.0293, 205.25, 23.0)" width="289.85" xlink:href="#font_LilyUPC_h0"/>
        <use fill="#000000" fill-opacity="0.5686275" height="25.1" transform="matrix(0.0293, 0.0, 0.0, 0.0293, 215.7, 23.0)" width="289.85" xlink:href="#font_LilyUPC_o0"/>
        <use fill="#000000" fill-opacity="0.5686275" height="25.1" transform="matrix(0.0293, 0.0, 0.0, 0.0293, 226.95, 23.0)" width="289.85" xlink:href="#font_LilyUPC_r0"/>
        <use fill="#000000" fill-opacity="0.5686275" height="25.1" transform="matrix(0.0293, 0.0, 0.0, 0.0293, 235.05, 23.0)" width="289.85" xlink:href="#font_LilyUPC_t0"/>
        <use fill="#000000" fill-opacity="0.5686275" height="25.1" transform="matrix(0.0293, 0.0, 0.0, 0.0293, 242.2, 23.0)" width="289.85" xlink:href="#font_LilyUPC_y0"/>
        <use fill="#000000" fill-opacity="0.5686275" height="25.1" transform="matrix(0.0293, 0.0, 0.0, 0.0293, 257.65, 23.0)" width="289.85" xlink:href="#font_LilyUPC_.0"/>
        <use fill="#000000" fill-opacity="0.5686275" height="25.1" transform="matrix(0.0293, 0.0, 0.0, 0.0293, 262.6, 23.0)" width="289.85" xlink:href="#font_LilyUPC_.0"/>
        <use fill="#000000" fill-opacity="0.5686275" height="25.1" transform="matrix(0.0293, 0.0, 0.0, 0.0293, 267.55, 23.0)" width="289.85" xlink:href="#font_LilyUPC_.0"/>
      </g>
    </g>
    <g id="font_LilyUPC_-0">
      <path d="M393.5 -206.5 L393.5 -290.0 48.5 -290.0 48.5 -206.5 393.5 -206.5" fill-rule="evenodd" stroke="none"/>
    </g>
    <g id="font_LilyUPC_S0">
      <path d="M173.0 -342.5 L173.0 -342.5 Q173.0 -398.5 270.5 -398.5 317.5 -398.5 355.0 -391.0 392.0 -383.5 418.0 -374.5 443.5 -365.5 443.5 -365.5 L416.0 -462.5 Q401.0 -469.0 359.0 -478.0 316.5 -487.5 252.0 -487.5 227.5 -487.5 214.0 -486.5 141.0 -482.5 102.5 -460.5 32.5 -420.5 24.5 -358.0 22.5 -335.5 22.5 -326.0 22.5 -266.0 54.0 -239.5 85.0 -213.0 140.5 -203.5 191.0 -198.0 224.5 -194.0 258.5 -190.0 280.5 -178.0 303.0 -166.0 304.5 -137.5 304.5 -105.5 277.5 -92.0 251.0 -79.0 188.5 -79.0 130.5 -80.5 87.0 -101.0 44.0 -121.0 26.5 -134.5 L48.5 -14.0 Q48.5 -12.5 72.0 -5.0 95.5 2.0 134.5 8.5 173.5 14.5 223.5 14.5 245.0 14.5 256.0 13.5 316.5 10.5 360.5 -6.0 404.0 -22.5 430.5 -61.5 457.0 -100.0 457.0 -164.5 453.5 -263.0 348.5 -293.5 320.5 -301.5 269.0 -307.5 217.0 -313.5 195.5 -319.5 174.5 -326.0 173.0 -342.5" fill-rule="evenodd" stroke="none"/>
    </g>
    <g id="font_LilyUPC_t0">
      <path d="M201.0 -116.5 L201.0 -270.0 265.5 -270.0 265.5 -341.0 201.0 -341.0 201.0 -477.5 72.0 -477.5 72.0 -341.0 7.5 -341.0 7.5 -270.0 72.0 -270.0 72.0 -104.5 Q72.0 -46.0 108.0 -21.5 138.5 1.0 226.5 1.0 240.5 1.0 251.0 0.5 261.5 0.5 265.5 0.0 L265.5 -70.5 Q265.0 -70.5 258.5 -69.5 252.5 -68.5 246.0 -68.5 228.0 -68.5 218.5 -76.5 201.0 -89.0 201.0 -116.5" fill-rule="evenodd" stroke="none"/>
    </g>
    <g id="font_LilyUPC_a0">
      <path d="M182.5 -67.5 L182.5 -67.5 Q162.0 -63.5 153.5 -63.5 118.0 -63.5 115.0 -87.0 115.0 -109.5 128.0 -120.0 141.0 -130.5 171.0 -135.0 195.5 -139.0 208.0 -145.0 220.5 -151.0 224.5 -156.5 229.0 -161.5 229.5 -162.5 L229.5 -110.5 Q229.5 -103.0 219.5 -88.5 209.0 -74.0 182.5 -67.5 M229.5 1.0 L358.5 0.0 358.5 -240.5 Q358.5 -285.0 320.0 -315.5 281.5 -346.0 195.5 -346.0 153.5 -346.0 122.0 -339.0 91.0 -332.0 73.5 -324.0 56.5 -316.0 56.5 -314.0 L35.0 -234.5 Q45.5 -245.5 79.5 -262.0 113.0 -278.5 172.0 -278.5 197.5 -278.5 214.0 -268.5 230.5 -258.0 230.5 -244.5 230.5 -230.0 211.5 -218.0 192.5 -205.5 154.5 -200.5 85.5 -190.5 51.5 -167.0 17.5 -143.5 17.5 -91.0 18.5 -43.0 53.5 -18.5 88.5 6.5 135.5 6.5 184.0 5.0 204.5 -9.5 225.5 -24.0 229.5 -33.5 L229.5 1.0" fill-rule="evenodd" stroke="none"/>
    </g>
    <g id="font_LilyUPC_y0">
      <path d="M129.0 133.5 L129.0 133.5 Q156.0 126.0 177.0 105.0 198.0 83.5 207.5 59.5 L367.5 -341.0 269.0 -341.0 212.0 -196.5 147.5 -341.0 8.0 -341.0 152.5 -38.0 135.0 4.0 Q119.5 43.0 91.0 51.5 80.0 54.5 64.5 54.5 44.5 54.5 32.5 49.5 L43.0 135.5 Q52.0 138.5 83.0 138.5 109.0 138.5 129.0 133.5" fill-rule="evenodd" stroke="none"/>
    </g>
    <g id="font_LilyUPC_o0">
      <path d="M140.0 -172.0 L140.0 -172.0 Q140.0 -205.5 144.0 -228.5 148.5 -251.0 163.5 -266.5 179.0 -282.5 210.0 -282.5 253.5 -282.5 265.0 -252.0 276.5 -222.0 276.5 -170.0 276.5 -135.0 273.0 -113.0 269.5 -91.0 255.0 -75.0 240.5 -59.5 210.0 -59.5 178.5 -59.5 163.5 -75.5 149.0 -91.5 145.5 -112.5 142.0 -133.0 140.0 -172.0 M209.0 -355.5 L209.0 -355.5 Q115.5 -355.5 67.0 -309.0 18.5 -262.0 17.5 -171.0 17.5 -106.5 38.0 -66.0 59.0 -25.5 101.0 -6.5 142.5 13.0 206.5 13.5 308.5 13.5 354.0 -31.0 399.0 -75.5 399.0 -172.0 399.0 -233.5 381.0 -274.0 362.5 -314.5 320.5 -335.0 278.5 -355.5 209.0 -355.5" fill-rule="evenodd" stroke="none"/>
    </g>
    <g id="font_LilyUPC_n0">
      <path d="M368.5 -245.5 L368.5 -245.5 Q368.5 -266.5 356.5 -290.0 344.5 -313.0 316.0 -329.5 288.0 -346.0 243.5 -346.0 215.0 -346.0 195.5 -339.0 176.5 -331.5 166.5 -323.5 156.5 -315.0 154.5 -313.0 L154.5 -341.0 25.5 -341.0 25.5 0.0 154.5 0.0 154.5 -216.0 Q155.0 -228.5 165.0 -249.5 175.0 -270.0 207.0 -274.5 240.0 -274.5 256.5 -259.0 272.5 -244.0 272.5 -222.0 L272.5 0.0 368.5 0.0 368.5 -245.5" fill-rule="evenodd" stroke="none"/>
    </g>
    <g id="font_LilyUPC_u0">
      <path d="M25.5 -94.0 L25.5 -94.0 Q25.5 -59.0 54.0 -28.0 83.0 3.0 147.5 7.5 185.0 7.5 213.0 0.0 241.0 -8.0 257.5 -17.0 273.0 -25.5 273.0 -26.5 273.0 -26.5 272.5 -26.5 L272.5 0.0 368.5 0.0 368.5 -341.0 272.5 -341.0 272.5 -125.0 Q272.5 -108.5 262.0 -90.5 252.0 -72.0 219.5 -66.5 154.5 -66.5 154.5 -118.5 L154.5 -341.0 25.5 -341.0 25.5 -94.0" fill-rule="evenodd" stroke="none"/>
    </g>
    <g id="font_LilyUPC_r0">
      <path d="M29.0 0.0 L158.0 0.0 158.0 -201.5 Q158.0 -247.0 202.0 -267.0 219.5 -275.5 245.0 -275.5 274.0 -275.5 302.0 -266.0 L289.0 -342.0 Q277.0 -345.0 253.0 -345.0 228.0 -345.0 208.0 -339.0 190.5 -333.5 180.0 -326.5 169.5 -319.5 164.0 -312.5 158.5 -305.5 158.0 -305.0 L158.0 -341.0 29.0 -341.0 29.0 0.0" fill-rule="evenodd" stroke="none"/>
    </g>
    <g id="font_LilyUPC_g0">
      <path d="M242.0 -252.0 L242.0 -87.0 Q242.0 -85.0 224.5 -77.0 207.0 -69.0 186.5 -67.5 150.0 -67.5 132.5 -91.0 114.5 -114.5 114.5 -167.0 114.5 -228.5 131.5 -251.0 148.0 -273.5 186.5 -273.5 206.0 -272.5 221.0 -265.0 235.5 -257.0 242.0 -252.0 M371.0 36.0 L371.0 -341.0 242.0 -341.0 242.0 -321.5 Q233.5 -328.5 211.5 -339.0 189.0 -349.5 158.0 -349.5 119.5 -349.5 89.0 -335.5 58.5 -321.5 38.5 -280.5 18.5 -239.5 18.5 -165.0 18.5 -66.5 60.0 -31.0 101.5 4.5 153.5 6.0 186.5 6.0 210.0 0.0 233.5 -6.5 242.0 -10.5 L242.0 28.5 Q242.0 51.0 216.5 63.5 191.5 75.5 152.5 75.5 122.5 75.5 95.0 67.5 67.5 59.5 49.5 50.5 31.0 41.5 28.5 39.0 L44.0 130.0 Q47.5 133.5 89.0 141.0 130.5 148.5 190.5 148.5 285.0 146.0 328.0 113.5 371.0 81.5 371.0 36.0" fill-rule="evenodd" stroke="none"/>
    </g>
    <g id="font_LilyUPC_d0">
      <path d="M245.0 -89.0 L245.0 -89.0 Q239.0 -84.0 224.0 -76.0 208.5 -68.0 189.5 -67.5 151.5 -67.5 134.5 -91.0 117.5 -114.5 117.5 -176.0 117.5 -228.0 135.0 -251.0 153.0 -273.5 189.5 -273.5 209.5 -272.0 227.5 -264.0 245.0 -256.0 245.0 -254.0 L245.0 -89.0 M374.0 -477.5 L245.0 -477.5 245.0 -334.5 Q237.0 -338.0 215.5 -343.0 193.5 -347.5 156.5 -347.5 21.5 -341.0 21.5 -177.5 21.5 -102.5 41.5 -61.0 61.5 -20.0 92.0 -5.5 123.0 8.5 161.0 8.5 192.0 8.5 214.5 -2.0 236.5 -12.5 245.0 -19.5 L245.0 0.0 374.0 0.0 374.0 -477.5" fill-rule="evenodd" stroke="none"/>
    </g>
    <g id="font_LilyUPC_h0">
      <path d="M368.5 -245.5 L368.5 -245.5 Q368.5 -266.5 356.5 -290.0 344.5 -313.0 316.0 -329.5 288.0 -346.0 243.5 -346.0 215.0 -346.0 195.5 -339.0 176.5 -331.5 166.5 -323.5 156.5 -315.0 154.5 -313.0 L154.5 -477.5 25.5 -477.5 25.5 0.0 154.5 0.0 154.5 -216.0 Q155.0 -228.5 165.0 -249.5 175.0 -270.0 207.0 -274.5 240.0 -274.5 256.5 -259.0 272.5 -244.0 272.5 -222.0 L272.5 0.0 368.5 1.0 368.5 -245.5" fill-rule="evenodd" stroke="none"/>
    </g>
    <g id="font_LilyUPC_.0">
      <path d="M35.5 0.0 L171.0 0.0 171.0 -110.0 35.5 -110.0 35.5 0.0" fill-rule="evenodd" stroke="none"/>
    </g>
  </defs>
</svg>
