<?xml version="1.0" encoding="UTF-8" standalone="no"?>
<svg xmlns:xlink="http://www.w3.org/1999/xlink" height="41.15px" width="153.65px" xmlns="http://www.w3.org/2000/svg">
  <g transform="matrix(1.0, 0.0, 0.0, 1.0, 32.2, 20.5)">
    <use height="41.15" transform="matrix(1.0, 0.0, 0.0, 1.0, -32.2, -20.5)" width="153.65" xlink:href="#button0"/>
  </g>
  <defs>
    <g id="button0" transform="matrix(1.0, 0.0, 0.0, 1.0, 38.0, 21.0)">
      <use height="14.55" transform="matrix(1.0, 0.0, 0.0, 1.0, -3.65, -7.3)" width="7.25" xlink:href="#shape0"/>
      <use height="24.25" transform="matrix(1.0, 0.0, 0.0, 1.0, -38.0, -12.4)" width="41.25" xlink:href="#sprite0"/>
    </g>
    <g id="shape0" transform="matrix(1.0, 0.0, 0.0, 1.0, 3.65, 7.3)">
      <path d="M3.6 -7.3 L3.6 7.25 -3.65 0.0 3.6 -7.3" fill="#000000" fill-rule="evenodd" stroke="none"/>
    </g>
    <g id="sprite0" transform="matrix(1.0, 0.0, 0.0, 1.0, 32.0, 11.9)">
      <use height="23.75" transform="matrix(1.0, 0.0, 0.0, 1.0, -9.25, -11.9)" width="18.5" xlink:href="#sprite1"/>
    </g>
    <g id="sprite1" transform="matrix(1.0, 0.0, 0.0, 1.0, 9.25, 11.9)">
      <use height="23.75" transform="matrix(1.0, 0.0, 0.0, 1.0, -9.25, -11.9)" width="18.5" xlink:href="#shape1"/>
    </g>
    <g id="shape1" transform="matrix(1.0, 0.0, 0.0, 1.0, 9.25, 11.9)">
      <path d="M2.25 -11.9 L9.25 -11.9 -3.35 0.75 7.75 11.85 3.0 11.85 -9.25 -0.4 2.25 -11.9" fill="#000000" fill-opacity="0.39607844" fill-rule="evenodd" stroke="none"/>
    </g>
  </defs>
</svg>
