<?xml version="1.0" encoding="UTF-8" standalone="no"?>
<svg xmlns:xlink="http://www.w3.org/1999/xlink" height="58.9px" width="37.45px" xmlns="http://www.w3.org/2000/svg">
  <g transform="matrix(1.0, 0.0, 0.0, 1.0, -0.75, -35.45)">
    <path d="M3.3 57.35 L3.45 57.5 3.35 57.55 3.3 57.35" fill="#9d9d9d" fill-opacity="0.93333334" fill-rule="evenodd" stroke="none"/>
    <path d="M3.8 59.2 Q4.45 58.8 5.6 58.75 L7.9 58.8 Q9.85 58.8 12.95 59.8 16.05 60.75 17.95 60.75 24.25 60.75 26.6 57.85 27.3 56.95 27.85 57.1 28.65 57.3 31.0 59.35 L31.4 59.2 32.3 59.4 32.3 59.6 32.25 59.6 Q31.45 62.8 31.05 66.0 L31.0 66.4 Q30.65 68.95 30.55 71.5 30.35 75.85 30.8 80.2 L33.2 88.5 33.7 90.7 34.15 91.85 34.1 91.85 34.5 93.25 34.6 93.35 33.05 94.35 6.0 94.35 4.8 94.0 4.5 94.05 4.85 93.15 5.3 92.25 5.25 92.25 5.3 92.1 5.35 91.9 5.4 91.9 5.55 91.1 5.7 90.7 5.8 90.1 5.8 90.05 6.45 86.55 6.55 86.25 6.55 85.85 Q6.85 82.85 6.75 79.45 6.45 69.9 3.85 59.4 L3.65 59.3 3.8 59.2 M30.05 59.95 L29.75 59.9 29.8 60.05 30.05 59.95" fill="#000000" fill-opacity="0.9607843" fill-rule="evenodd" stroke="none"/>
    <path d="M19.6 38.0 L18.2 36.2 10.45 36.65 18.3 37.0 19.6 38.0 M3.3 57.35 L3.25 57.15 3.2 57.0 2.85 55.85 Q0.8 50.8 0.75 45.05 1.0 39.65 8.4 36.2 L10.2 35.45 23.15 35.45 28.85 36.9 Q32.85 38.05 33.95 43.55 38.7 46.65 38.05 51.55 36.85 56.2 32.4 59.05 L32.3 59.4 31.4 59.2 31.0 59.35 Q28.65 57.3 27.85 57.1 27.3 56.95 26.6 57.85 24.25 60.75 17.95 60.75 16.05 60.75 12.95 59.8 9.85 58.8 7.9 58.8 L5.6 58.75 Q4.45 58.8 3.8 59.2 L3.35 57.55 3.45 57.5 3.3 57.35 M34.6 93.35 L34.65 93.3 34.7 93.45 34.7 93.5 35.15 94.1 35.35 94.35 33.05 94.35 34.6 93.35 M6.0 94.35 L4.4 94.35 4.45 94.25 4.25 94.15 4.5 94.05 4.8 94.0 6.0 94.35 M27.1 51.65 L28.2 51.3 27.65 49.5 Q25.4 45.35 23.55 44.85 25.2 46.0 26.35 50.45 L25.2 51.05 27.1 51.65 M21.45 36.2 L20.75 36.85 24.1 36.9 21.45 36.2 M20.75 59.75 L20.3 59.8 20.1 59.85 Q11.95 60.5 10.2 53.8 10.25 57.0 12.7 59.35 L12.85 59.5 13.15 59.75 Q16.85 60.9 20.75 59.75 M9.05 50.75 L10.05 50.2 9.45 47.85 9.05 50.75" fill="#000000" fill-rule="evenodd" stroke="none"/>
    <path d="M19.6 38.0 L18.3 37.0 10.45 36.65 18.2 36.2 19.6 38.0 M21.45 36.2 L24.1 36.9 20.75 36.85 21.45 36.2 M27.1 51.65 L25.2 51.05 26.35 50.45 Q25.2 46.0 23.55 44.85 25.4 45.35 27.65 49.5 L28.2 51.3 27.1 51.65 M9.05 50.75 L9.45 47.85 10.05 50.2 9.05 50.75" fill="#1a1a1a" fill-rule="evenodd" stroke="none"/>
    <path d="M30.05 59.95 L29.8 60.05 29.75 59.9 30.05 59.95" fill="#cc0000" fill-rule="evenodd" stroke="none"/>
    <path d="M20.75 59.75 Q16.85 60.9 13.15 59.75 L12.85 59.5 12.7 59.35 Q10.25 57.0 10.2 53.8 11.95 60.5 20.1 59.85 L20.3 59.8 20.75 59.75" fill="#373737" fill-rule="evenodd" stroke="none"/>
    <path d="M13.3 35.45 L15.5 37.0 Q17.25 38.45 18.2 39.8 18.8 40.65 19.25 42.4 L20.15 45.0 23.9 50.25 Q26.0 53.05 26.0 55.2 L26.0 56.6 Q26.85 56.35 27.9 56.6 L31.1 56.7 32.15 56.45 33.45 52.2 Q33.8 50.45 33.8 47.65 33.8 44.6 29.6 42.05 23.95 38.6 21.5 35.45 L22.2 35.45 23.75 36.55 25.85 38.55 Q30.5 41.7 32.2 42.45 36.3 44.2 37.55 46.45 38.2 47.7 38.2 50.4 38.2 52.8 37.55 54.6 36.2 58.0 32.9 58.05 L32.8 58.05 32.6 58.05 32.25 58.05 30.6 57.9 27.5 58.15 25.9 58.35 25.7 58.35 Q24.55 60.45 20.0 60.45 16.15 60.45 14.75 58.6 L14.0 58.75 11.45 59.05 7.65 59.45 5.45 59.35 3.35 59.1 7.25 58.7 10.25 58.55 12.5 58.15 14.35 57.65 14.0 55.8 Q14.0 52.35 16.3 50.2 18.55 48.05 18.55 45.85 L18.25 43.0 Q17.9 41.1 17.2 40.35 L14.7 37.65 Q13.1 36.25 11.0 35.45 L13.3 35.45 M4.35 94.3 L4.35 94.15 5.85 94.1 8.55 94.35 4.8 94.35 4.35 94.3 M32.85 94.35 L31.85 94.35 Q33.65 92.45 34.6 92.5 L34.65 92.45 34.65 92.6 33.05 94.15 32.85 94.35" fill="#cc0000" fill-rule="evenodd" stroke="none"/>
  </g>
</svg>
