<?xml version="1.0" encoding="UTF-8" standalone="no"?>
<svg xmlns:xlink="http://www.w3.org/1999/xlink" height="9.6px" width="19.85px" xmlns="http://www.w3.org/2000/svg">
  <g transform="matrix(1.0, 0.0, 0.0, 1.0, -15.5, -15.3)">
    <path d="M34.45 15.45 L34.7 15.4 34.85 15.35 34.9 15.3 34.95 15.35 35.05 15.35 35.1 15.35 35.25 15.4 35.35 15.5 Q35.05 17.35 34.4 19.1 L32.75 22.05 Q31.1 24.15 29.05 22.6 27.9 21.75 27.85 20.4 26.4 22.55 24.15 23.85 22.75 24.65 21.15 24.85 17.5 25.35 16.15 22.25 15.45 20.4 15.5 18.4 L16.6 16.5 18.45 16.15 21.85 16.3 21.8 16.4 24.9 17.0 24.9 17.1 26.55 17.65 26.55 17.75 27.15 18.1 27.15 18.2 28.25 18.55 32.85 15.65 34.45 15.45 M33.05 20.85 L33.9 18.6 32.75 20.05 28.85 21.35 29.85 22.6 31.6 22.6 33.05 20.85 M27.25 19.8 L27.05 19.6 26.6 19.2 16.35 20.45 17.05 22.5 18.5 24.05 19.85 24.2 21.5 24.35 24.25 23.3 26.65 21.3 27.5 20.05 27.25 19.8 M16.1 18.95 L17.8 17.5 21.25 17.45 25.85 18.55 21.8 17.2 17.75 16.85 16.35 18.25 16.1 18.95" fill="#c4c4c4" fill-rule="evenodd" stroke="none"/>
    <path d="M33.05 20.85 L31.6 22.6 29.85 22.6 28.85 21.35 32.75 20.05 33.9 18.6 33.05 20.85 M19.85 24.2 L23.3 22.6 27.25 19.8 27.5 20.05 26.65 21.3 24.25 23.3 21.5 24.35 19.85 24.2" fill="#848484" fill-rule="evenodd" stroke="none"/>
    <path d="M27.05 19.6 L23.9 21.2 17.05 22.5 16.35 20.45 26.6 19.2 27.05 19.6" fill="#b3b3b3" fill-rule="evenodd" stroke="none"/>
    <path d="M27.05 19.6 L27.25 19.8 23.3 22.6 19.85 24.2 18.5 24.05 17.05 22.5 23.9 21.2 27.05 19.6" fill="#9d9d9d" fill-rule="evenodd" stroke="none"/>
    <path d="M16.1 18.95 L16.35 18.25 17.75 16.85 21.8 17.2 25.85 18.55 21.25 17.45 17.8 17.5 16.1 18.95" fill="#8c8c8c" fill-rule="evenodd" stroke="none"/>
  </g>
</svg>
