<?xml version="1.0" encoding="UTF-8" standalone="no"?>
<svg xmlns:xlink="http://www.w3.org/1999/xlink" height="47.15px" width="168.1px" xmlns="http://www.w3.org/2000/svg">
  <g transform="matrix(1.0, 0.0, 0.0, 1.0, 25.5, 37.35)">
    <path d="M5.8 6.0 Q3.4 6.0 1.7 5.15 0.0 4.25 0.0 3.0 0.0 1.75 1.7 0.9 3.4 0.0 5.8 0.0 8.15 0.0 9.85 0.9 11.55 1.75 11.55 3.0 11.55 4.25 9.85 5.15 8.15 6.0 5.8 6.0" fill="url(#gradient0)" fill-rule="evenodd" stroke="none"/>
    <path d="M-16.9 -5.4 Q-15.8 -5.95 -14.25 -5.95 -12.65 -5.95 -11.6 -5.4 -10.5 -4.85 -10.5 -4.0 -10.5 -3.2 -11.6 -2.65 -12.65 -2.05 -14.25 -2.05 -15.8 -2.05 -16.9 -2.65 -18.0 -3.2 -18.0 -4.0 -18.0 -4.85 -16.9 -5.4" fill="url(#gradient1)" fill-rule="evenodd" stroke="none"/>
    <path d="M-19.1 5.05 Q-20.15 5.65 -21.75 5.65 -23.3 5.65 -24.4 5.05 -25.5 4.5 -25.5 3.7 -25.5 2.85 -24.4 2.3 -23.3 1.75 -21.75 1.75 -20.15 1.75 -19.1 2.3 -18.0 2.85 -18.0 3.7 -18.0 4.5 -19.1 5.05" fill="url(#gradient2)" fill-rule="evenodd" stroke="none"/>
    <path d="M-4.75 -13.15 Q-3.15 -13.15 -2.1 -12.6 -1.0 -12.05 -1.0 -11.2 -1.0 -10.4 -2.1 -9.85 -3.15 -9.25 -4.75 -9.25 -6.3 -9.25 -7.4 -9.85 -8.5 -10.4 -8.5 -11.2 -8.5 -12.05 -7.4 -12.6 L-4.75 -13.15" fill="url(#gradient3)" fill-rule="evenodd" stroke="none"/>
    <path d="M42.75 -28.35 Q44.45 -29.25 46.85 -29.25 49.2 -29.25 50.9 -28.35 52.6 -27.5 52.6 -26.25 52.6 -25.0 50.9 -24.1 49.2 -23.25 46.85 -23.25 44.45 -23.25 42.75 -24.1 41.05 -25.0 41.05 -26.25 41.05 -27.5 42.75 -28.35" fill="url(#gradient4)" fill-rule="evenodd" stroke="none"/>
    <path d="M22.35 6.9 Q20.65 7.75 18.3 7.75 15.9 7.75 14.2 6.9 12.5 6.0 12.5 4.75 12.5 3.5 14.2 2.65 15.9 1.75 18.3 1.75 20.65 1.75 22.35 2.65 24.05 3.5 24.05 4.75 24.05 6.0 22.35 6.9" fill="url(#gradient5)" fill-rule="evenodd" stroke="none"/>
    <path d="M73.9 -16.1 Q72.2 -15.25 69.85 -15.25 67.45 -15.25 65.75 -16.1 64.05 -17.0 64.05 -18.25 64.05 -19.5 65.75 -20.35 67.45 -21.25 69.85 -21.25 72.2 -21.25 73.9 -20.35 75.6 -19.5 75.6 -18.25 75.6 -17.0 73.9 -16.1" fill="url(#gradient6)" fill-rule="evenodd" stroke="none"/>
    <path d="M40.2 -7.15 Q41.9 -8.05 44.3 -8.05 46.65 -8.05 48.35 -7.15 50.05 -6.3 50.05 -5.05 50.05 -3.8 48.35 -2.9 46.65 -2.05 44.3 -2.05 41.9 -2.05 40.2 -2.9 38.5 -3.8 38.5 -5.05 38.5 -6.3 40.2 -7.15" fill="url(#gradient7)" fill-rule="evenodd" stroke="none"/>
    <path d="M54.25 -22.35 Q55.95 -23.25 58.35 -23.25 60.7 -23.25 62.4 -22.35 64.1 -21.5 64.1 -20.25 64.1 -19.0 62.4 -18.1 60.7 -17.25 58.35 -17.25 55.95 -17.25 54.25 -18.1 52.55 -19.0 52.55 -20.25 52.55 -21.5 54.25 -22.35" fill="url(#gradient8)" fill-rule="evenodd" stroke="none"/>
    <path d="M58.35 -2.05 Q60.7 -2.05 62.4 -1.15 64.1 -0.3 64.1 0.95 64.1 2.2 62.4 3.1 60.7 3.95 58.35 3.95 55.95 3.95 54.25 3.1 52.55 2.2 52.55 0.95 52.55 -0.3 54.25 -1.15 55.95 -2.05 58.35 -2.05" fill="url(#gradient9)" fill-rule="evenodd" stroke="none"/>
    <path d="M75.55 -12.25 Q75.55 -13.5 77.25 -14.35 78.95 -15.25 81.35 -15.25 83.7 -15.25 85.4 -14.35 87.1 -13.5 87.1 -12.25 87.1 -11.0 85.4 -10.1 83.7 -9.25 81.35 -9.25 78.95 -9.25 77.25 -10.1 75.55 -11.0 75.55 -12.25" fill="url(#gradient10)" fill-rule="evenodd" stroke="none"/>
    <path d="M94.55 -23.3 Q96.5 -24.3 99.3 -24.3 102.1 -24.3 104.1 -23.3 106.1 -22.25 106.1 -20.8 106.1 -19.35 104.1 -18.3 102.1 -17.3 99.3 -17.3 96.5 -17.3 94.55 -18.3 92.55 -19.35 92.55 -20.8 92.55 -22.25 94.55 -23.3" fill="url(#gradient11)" fill-rule="evenodd" stroke="none"/>
    <path d="M112.05 -29.3 Q114.0 -30.3 116.8 -30.3 119.6 -30.3 121.6 -29.3 123.6 -28.25 123.6 -26.8 123.6 -25.35 121.6 -24.3 119.6 -23.3 116.8 -23.3 114.0 -23.3 112.05 -24.3 110.05 -25.35 110.05 -26.8 110.05 -28.25 112.05 -29.3" fill="url(#gradient12)" fill-rule="evenodd" stroke="none"/>
    <path d="M93.6 6.3 Q93.6 7.75 91.6 8.8 89.6 9.8 86.8 9.8 84.0 9.8 82.05 8.8 80.05 7.75 80.05 6.3 80.05 4.85 82.05 3.8 84.0 2.8 86.8 2.8 89.6 2.8 91.6 3.8 93.6 4.85 93.6 6.3" fill="url(#gradient13)" fill-rule="evenodd" stroke="none"/>
    <path d="M131.05 -36.35 Q133.0 -37.35 135.8 -37.35 138.6 -37.35 140.6 -36.35 142.6 -35.3 142.6 -33.85 142.6 -32.4 140.6 -31.35 138.6 -30.35 135.8 -30.35 133.0 -30.35 131.05 -31.35 129.05 -32.4 129.05 -33.85 129.05 -35.3 131.05 -36.35" fill="url(#gradient14)" fill-rule="evenodd" stroke="none"/>
  </g>
  <defs>
    <radialGradient cx="0" cy="0" gradientTransform="matrix(0.0071, 0.0, 0.0, 0.0037, 5.8, 3.0)" gradientUnits="userSpaceOnUse" id="gradient0" r="819.2" spreadMethod="pad">
      <stop offset="0.2980392156862745" stop-color="#ffffff"/>
      <stop offset="0.8235294117647058" stop-color="#ffffff" stop-opacity="0.0"/>
    </radialGradient>
    <radialGradient cx="0" cy="0" gradientTransform="matrix(0.0046, 0.0, 0.0, 0.0024, -14.25, -4.0)" gradientUnits="userSpaceOnUse" id="gradient1" r="819.2" spreadMethod="pad">
      <stop offset="0.2980392156862745" stop-color="#ffffff"/>
      <stop offset="0.8235294117647058" stop-color="#ffffff" stop-opacity="0.0"/>
    </radialGradient>
    <radialGradient cx="0" cy="0" gradientTransform="matrix(0.0046, 0.0, 0.0, 0.0024, -21.75, 3.7)" gradientUnits="userSpaceOnUse" id="gradient2" r="819.2" spreadMethod="pad">
      <stop offset="0.2980392156862745" stop-color="#ffffff"/>
      <stop offset="0.8235294117647058" stop-color="#ffffff" stop-opacity="0.0"/>
    </radialGradient>
    <radialGradient cx="0" cy="0" gradientTransform="matrix(0.0046, 0.0, 0.0, 0.0024, -4.75, -11.2)" gradientUnits="userSpaceOnUse" id="gradient3" r="819.2" spreadMethod="pad">
      <stop offset="0.2980392156862745" stop-color="#ffffff"/>
      <stop offset="0.8235294117647058" stop-color="#ffffff" stop-opacity="0.0"/>
    </radialGradient>
    <radialGradient cx="0" cy="0" gradientTransform="matrix(0.0071, 0.0, 0.0, 0.0037, 46.85, -26.25)" gradientUnits="userSpaceOnUse" id="gradient4" r="819.2" spreadMethod="pad">
      <stop offset="0.2980392156862745" stop-color="#ffffff"/>
      <stop offset="0.8235294117647058" stop-color="#ffffff" stop-opacity="0.0"/>
    </radialGradient>
    <radialGradient cx="0" cy="0" gradientTransform="matrix(0.0071, 0.0, 0.0, 0.0037, 18.3, 4.75)" gradientUnits="userSpaceOnUse" id="gradient5" r="819.2" spreadMethod="pad">
      <stop offset="0.2980392156862745" stop-color="#ffffff"/>
      <stop offset="0.8235294117647058" stop-color="#ffffff" stop-opacity="0.0"/>
    </radialGradient>
    <radialGradient cx="0" cy="0" gradientTransform="matrix(0.0071, 0.0, 0.0, 0.0037, 69.85, -18.25)" gradientUnits="userSpaceOnUse" id="gradient6" r="819.2" spreadMethod="pad">
      <stop offset="0.2980392156862745" stop-color="#ffffff"/>
      <stop offset="0.8235294117647058" stop-color="#ffffff" stop-opacity="0.0"/>
    </radialGradient>
    <radialGradient cx="0" cy="0" gradientTransform="matrix(0.0071, 0.0, 0.0, 0.0037, 44.3, -5.05)" gradientUnits="userSpaceOnUse" id="gradient7" r="819.2" spreadMethod="pad">
      <stop offset="0.2980392156862745" stop-color="#ffffff"/>
      <stop offset="0.8235294117647058" stop-color="#ffffff" stop-opacity="0.0"/>
    </radialGradient>
    <radialGradient cx="0" cy="0" gradientTransform="matrix(0.0071, 0.0, 0.0, 0.0037, 58.35, -20.25)" gradientUnits="userSpaceOnUse" id="gradient8" r="819.2" spreadMethod="pad">
      <stop offset="0.2980392156862745" stop-color="#ffffff"/>
      <stop offset="0.8235294117647058" stop-color="#ffffff" stop-opacity="0.0"/>
    </radialGradient>
    <radialGradient cx="0" cy="0" gradientTransform="matrix(0.0071, 0.0, 0.0, 0.0037, 58.35, 0.95)" gradientUnits="userSpaceOnUse" id="gradient9" r="819.2" spreadMethod="pad">
      <stop offset="0.2980392156862745" stop-color="#ffffff"/>
      <stop offset="0.8235294117647058" stop-color="#ffffff" stop-opacity="0.0"/>
    </radialGradient>
    <radialGradient cx="0" cy="0" gradientTransform="matrix(0.0071, 0.0, 0.0, 0.0037, 81.35, -12.25)" gradientUnits="userSpaceOnUse" id="gradient10" r="819.2" spreadMethod="pad">
      <stop offset="0.2980392156862745" stop-color="#ffffff"/>
      <stop offset="0.8235294117647058" stop-color="#ffffff" stop-opacity="0.0"/>
    </radialGradient>
    <radialGradient cx="0" cy="0" gradientTransform="matrix(0.0083, 0.0, 0.0, 0.0043, 99.3, -20.8)" gradientUnits="userSpaceOnUse" id="gradient11" r="819.2" spreadMethod="pad">
      <stop offset="0.2980392156862745" stop-color="#ffffff"/>
      <stop offset="0.8235294117647058" stop-color="#ffffff" stop-opacity="0.0"/>
    </radialGradient>
    <radialGradient cx="0" cy="0" gradientTransform="matrix(0.0083, 0.0, 0.0, 0.0043, 116.8, -26.8)" gradientUnits="userSpaceOnUse" id="gradient12" r="819.2" spreadMethod="pad">
      <stop offset="0.2980392156862745" stop-color="#ffffff"/>
      <stop offset="0.8235294117647058" stop-color="#ffffff" stop-opacity="0.0"/>
    </radialGradient>
    <radialGradient cx="0" cy="0" gradientTransform="matrix(0.0083, 0.0, 0.0, 0.0043, 86.8, 6.3)" gradientUnits="userSpaceOnUse" id="gradient13" r="819.2" spreadMethod="pad">
      <stop offset="0.2980392156862745" stop-color="#ffffff"/>
      <stop offset="0.8235294117647058" stop-color="#ffffff" stop-opacity="0.0"/>
    </radialGradient>
    <radialGradient cx="0" cy="0" gradientTransform="matrix(0.0083, 0.0, 0.0, 0.0043, 135.8, -33.85)" gradientUnits="userSpaceOnUse" id="gradient14" r="819.2" spreadMethod="pad">
      <stop offset="0.2980392156862745" stop-color="#ffffff"/>
      <stop offset="0.8235294117647058" stop-color="#ffffff" stop-opacity="0.0"/>
    </radialGradient>
  </defs>
</svg>
