<?xml version="1.0" encoding="UTF-8" standalone="no"?>
<svg xmlns:xlink="http://www.w3.org/1999/xlink" height="439.1px" width="783.05px" xmlns="http://www.w3.org/2000/svg">
  <g transform="matrix(1.0, 0.0, 0.0, 1.0, 1.05, -1.3)">
    <path d="M727.15 48.2 Q729.2 48.6 730.15 49.95 731.05 51.25 731.0 53.35 L730.75 56.0 Q730.75 56.75 719.65 78.75 708.45 101.0 708.1 104.0 707.7 107.35 709.5 113.2 L710.45 116.1 711.35 118.4 708.4 121.95 Q707.3 123.1 703.45 123.8 L699.9 124.3 703.0 124.3 715.95 121.65 724.7 124.05 Q735.35 127.05 744.7 130.3 774.7 140.55 780.95 148.65 L781.15 150.05 781.4 150.35 782.0 156.3 746.9 155.65 717.95 155.65 Q715.85 155.65 709.95 157.8 704.05 160.0 698.85 163.1 L695.5 165.3 695.35 165.4 691.25 168.6 688.55 171.0 686.15 173.5 681.2 180.0 Q674.95 190.35 674.95 203.65 L677.45 217.65 Q680.45 232.65 682.95 237.65 685.45 242.65 692.45 267.65 L696.8 283.55 693.95 277.65 675.95 221.65 660.85 222.55 Q660.1 218.1 659.8 211.5 659.55 205.5 659.95 199.85 660.5 192.05 662.2 184.9 669.25 155.4 693.65 143.75 L712.75 137.95 717.8 141.5 723.7 145.65 725.75 145.35 721.65 137.35 715.4 134.4 707.35 133.8 Q697.55 133.95 688.6 137.5 659.95 148.8 650.9 190.05 L652.85 198.25 635.95 132.65 602.95 130.65 600.95 149.65 Q599.7 161.55 592.7 162.3 590.5 162.5 588.0 161.6 L585.95 160.65 551.85 160.8 520.95 160.65 521.45 167.15 521.75 172.8 521.55 179.65 521.95 179.6 521.95 182.65 Q521.95 190.15 536.45 279.15 L539.05 295.0 533.25 263.35 Q532.85 260.85 528.35 254.85 L523.95 249.35 524.45 252.2 Q521.9 247.85 517.9 244.1 515.6 241.95 512.5 239.8 L509.15 237.4 Q507.65 236.1 500.7 233.5 L494.05 231.15 489.3 233.25 490.65 234.05 Q488.4 233.3 486.95 233.65 485.25 234.65 483.15 235.5 480.5 236.6 476.2 237.35 L474.95 237.65 473.6 237.75 470.85 238.05 Q449.3 240.25 399.8 237.1 L380.6 236.35 379.7 235.7 378.95 235.65 370.95 232.65 Q373.2 226.15 374.85 218.3 378.1 202.55 374.95 195.65 L370.65 183.75 Q367.15 174.25 362.45 167.05 347.9 144.75 316.95 134.65 L77.3 127.5 167.6 128.0 318.25 131.0 Q340.95 131.65 360.75 153.2 370.6 164.0 375.95 174.65 L387.25 176.0 388.25 172.65 Q393.75 171.6 397.35 165.1 399.95 160.4 399.95 158.0 399.95 157.4 410.15 153.2 L421.6 148.65 Q422.7 148.2 434.55 148.3 445.25 148.35 450.25 148.65 453.6 148.85 463.0 152.35 L473.25 156.35 Q475.25 157.0 486.6 156.65 L492.95 154.0 510.6 154.35 510.95 140.35 517.95 140.65 518.6 144.65 525.6 145.35 525.6 148.65 526.3 148.65 526.6 150.0 530.95 150.65 531.6 152.6 531.6 153.0 531.75 153.0 531.95 153.65 578.6 153.35 578.25 149.65 583.6 148.65 583.6 145.4 586.6 145.65 586.6 144.65 586.6 141.65 590.6 140.65 589.95 126.0 510.7 124.5 494.75 69.65 505.2 69.65 520.75 124.65 525.75 124.65 509.55 69.65 519.6 69.65 534.75 124.65 539.75 124.65 523.7 69.85 520.95 69.65 534.7 69.65 549.75 124.65 554.75 124.65 539.45 69.65 547.75 69.65 544.65 56.9 562.75 124.65 567.75 124.65 539.1 20.45 570.75 18.65 580.75 22.65 611.75 22.65 618.75 16.7 634.75 5.65 642.7 5.65 Q634.6 6.6 624.75 13.4 620.7 16.2 616.8 19.7 L613.75 22.65 620.75 25.65 619.75 31.65 642.75 31.65 643.75 23.65 649.75 22.65 655.75 22.65 661.25 28.45 Q660.05 27.45 659.4 27.35 L655.5 27.1 654.1 27.35 654.7 33.6 Q655.85 40.1 658.75 41.35 663.45 43.35 665.25 44.6 668.3 46.7 668.75 49.35 669.15 51.85 682.0 88.85 L694.75 125.35 699.8 124.3 677.9 47.35 Q674.1 42.5 669.9 37.6 L680.55 48.85 682.75 52.65 693.4 67.35 696.6 65.1 Q700.6 62.9 704.75 63.35 708.1 63.7 711.4 63.25 712.9 63.35 712.1 66.65 L708.25 80.4 Q705.4 90.65 705.4 92.65 L705.4 96.0 714.1 81.6 Q723.1 66.75 724.75 64.65 727.3 61.5 729.15 57.5 731.45 52.7 730.1 51.35 L727.15 48.2 M721.95 339.55 L722.95 341.65 Q725.8 347.35 728.45 368.8 731.3 391.95 727.95 396.65 L725.2 398.7 725.2 398.4 724.35 398.7 Q727.75 395.95 728.95 391.65 730.35 386.8 726.35 362.55 723.9 347.7 721.95 339.55 M699.8 422.9 L695.95 422.65 695.7 422.6 699.85 421.7 699.8 422.9 M676.95 427.1 L676.95 434.8 676.35 433.0 586.1 434.2 542.55 434.2 541.1 437.45 Q528.3 434.1 523.85 432.3 516.1 429.15 519.95 424.65 L528.85 420.7 Q532.3 422.4 547.0 424.75 L552.75 406.25 553.25 406.65 547.0 424.75 557.65 424.75 561.95 406.65 Q559.95 405.5 557.8 403.85 553.45 400.5 552.6 398.0 551.8 395.55 552.95 393.85 L555.25 390.65 555.3 390.15 Q557.5 397.5 560.35 400.8 563.45 404.4 565.95 402.65 L645.9 404.35 565.35 405.2 557.65 424.75 676.95 427.1 M527.55 419.4 Q526.85 418.3 526.45 416.4 524.95 409.4 529.95 395.65 534.8 382.3 535.75 378.0 535.6 380.15 533.65 386.5 L529.55 399.55 Q527.35 407.05 526.9 412.75 526.55 417.4 527.55 419.4 M522.0 306.95 L521.45 304.4 521.1 302.4 522.0 306.95 M512.85 257.6 L512.6 256.3 Q512.15 254.15 511.35 252.2 L512.1 253.65 Q512.6 254.9 512.85 257.6 M506.85 245.55 Q502.5 241.2 498.1 238.15 L499.95 238.85 Q502.35 239.6 506.85 245.55 M49.55 126.7 L48.95 126.65 48.95 133.65 19.95 133.65 -0.05 85.65 -0.4 59.65 10.95 77.65 21.95 114.65 48.25 114.65 49.55 126.7 M11.25 16.8 L12.95 6.65 Q13.2 3.65 15.7 2.15 20.7 -0.85 31.95 6.65 43.1 14.1 45.1 14.65 L44.95 13.65 Q46.25 15.0 45.1 14.65 L45.55 17.15 11.25 16.8 M446.8 21.65 L450.75 16.65 458.1 15.35 463.0 15.65 Q456.6 15.8 451.15 18.65 L446.8 21.65 M694.25 50.05 L701.1 50.05 714.75 49.7 713.2 50.2 709.4 51.35 694.25 50.05 M649.75 74.65 L664.75 124.65 669.75 124.65 653.75 73.65 649.75 74.65 M589.25 45.9 L589.7 46.8 596.8 61.3 598.3 66.3 599.85 66.25 Q601.65 66.35 602.75 66.9 605.15 68.15 616.8 73.05 629.8 78.55 631.75 78.75 L639.6 79.1 Q645.65 78.7 648.3 75.5 652.7 70.15 654.2 67.45 656.9 62.65 656.3 58.3 655.2 50.5 651.35 45.25 645.35 37.1 633.8 37.3 L602.55 37.4 584.65 37.3 582.95 37.35 582.9 37.3 Q582.15 36.8 580.0 36.75 577.6 36.7 575.45 37.35 569.5 39.1 570.45 44.7 571.65 51.5 573.9 57.45 576.35 63.75 578.45 64.85 582.0 66.6 586.6 69.1 592.65 72.35 593.25 73.1 L598.6 84.65 598.6 82.6 596.8 63.65 Q596.55 62.05 591.05 49.9 L589.25 45.9 M655.75 124.65 L643.75 79.65 639.75 80.65 650.75 124.65 655.75 124.65 M689.95 356.0 Q695.65 368.3 694.55 377.7 693.85 383.4 691.6 385.65 L674.6 385.0 Q644.4 381.45 612.3 385.7 602.25 387.05 593.25 388.95 L586.25 390.65 Q572.5 394.25 566.3 386.85 562.6 382.4 562.6 377.0 562.6 374.7 533.95 193.0 533.35 183.0 537.9 180.7 540.2 179.5 542.6 180.35 L562.4 179.7 Q585.85 179.0 603.95 179.0 622.1 179.0 634.5 194.35 640.7 202.0 643.25 209.65 643.95 222.95 663.6 282.85 682.05 339.0 689.95 356.0 M698.95 404.85 L701.95 404.65 Q704.15 403.9 713.4 402.1 701.85 405.55 700.6 404.9 L698.95 404.85 M675.05 404.8 L678.45 408.35 679.75 409.85 677.1 407.1 675.0 404.8 675.05 404.8 M676.05 427.4 L567.45 425.0 566.55 427.4 Q565.8 429.75 566.55 429.75 L574.25 430.95 624.85 430.65 675.75 429.45 676.05 427.4 M582.75 77.35 L581.1 77.35 578.5 77.9 Q576.05 78.6 577.1 79.65 L579.3 81.6 Q580.4 82.25 581.75 82.0 L584.6 81.6 Q585.85 81.25 585.45 80.0 585.0 78.75 583.85 77.95 L582.75 77.35 M582.75 88.65 L592.75 124.65 597.75 124.65 586.75 87.65 582.75 88.65 M596.75 87.65 L606.75 124.65 611.75 124.65 600.75 86.65 596.75 87.65 M609.75 84.65 L619.75 124.65 624.75 124.65 613.75 83.65 609.75 84.65 M623.75 84.65 L635.75 124.65 640.75 124.65 627.75 83.65 623.75 84.65 M550.75 22.65 L578.75 124.65 583.75 124.65 554.75 21.65 550.75 22.65 M490.3 69.65 L505.7 124.4 496.65 124.2 480.8 70.45 476.65 69.85 491.6 124.1 482.55 123.95 466.0 69.85 462.45 70.15 477.55 123.85 465.75 123.6 450.2 74.3 Q451.3 72.0 451.4 69.65 L490.3 69.65 M396.4 122.65 L394.65 122.7 394.6 122.65 383.75 122.6 317.0 121.65 317.0 121.35 396.4 122.65 M220.15 120.2 L165.95 119.65 139.85 118.55 204.1 119.65 220.15 120.2 M491.0 171.65 L490.95 170.65 483.25 167.0 484.15 173.05 Q484.9 180.55 483.9 188.0 L483.35 191.55 483.65 189.4 Q484.7 181.65 484.1 173.55 L483.25 167.0 469.25 160.0 465.95 160.65 Q478.65 179.85 471.25 204.85 467.6 217.1 461.5 225.65 467.6 214.55 470.95 200.9 477.95 172.4 462.95 158.65 452.2 157.15 439.7 156.55 414.7 155.3 405.95 159.65 401.35 161.95 399.8 165.05 399.0 166.65 398.6 170.55 398.2 173.95 396.8 175.8 394.65 178.65 388.95 180.65 L386.6 192.15 Q384.35 204.15 384.95 206.65 386.55 213.05 388.85 219.3 392.4 229.0 394.95 229.65 400.8 231.1 434.1 231.8 457.4 232.25 468.35 230.9 L466.25 232.65 472.95 232.0 481.95 229.95 488.95 227.85 Q492.6 225.25 492.6 224.0 492.6 223.15 496.6 216.3 L500.6 209.65 Q508.3 207.15 511.9 196.85 513.05 193.6 513.6 190.0 L513.95 187.0 Q512.7 172.45 499.55 163.1 495.4 160.15 490.6 158.1 L486.6 156.65 Q485.25 159.65 483.6 162.0 482.55 163.45 480.65 163.4 L478.95 163.0 490.95 170.65 491.55 171.85 491.0 171.65 M461.3 226.0 L466.1 225.7 466.7 225.6 460.95 226.65 461.3 226.0 M474.0 222.6 L476.7 220.6 Q491.65 208.05 491.0 172.25 L491.45 179.7 Q491.6 189.35 489.85 197.65 485.95 215.65 474.0 222.6 M494.45 174.6 L494.6 174.65 Q495.45 174.9 496.3 178.75 495.5 176.25 494.45 174.6 M83.95 62.65 L84.95 76.65 86.95 76.7 83.4 76.7 83.95 62.65 M448.55 64.9 L448.5 64.9 448.55 64.85 448.55 64.9 M354.95 33.65 Q354.6 36.05 352.85 39.45 349.4 46.25 342.7 51.4 331.05 60.3 312.2 62.6 319.55 61.2 326.2 58.8 348.7 50.55 354.95 33.65 M511.0 214.35 Q508.9 212.65 506.6 212.65 503.95 213.1 501.55 214.5 496.7 217.35 497.95 222.35 499.25 227.55 502.9 229.4 505.6 230.8 507.6 230.0 511.55 228.45 512.5 227.75 516.0 225.2 514.95 221.0 513.8 216.55 511.0 214.35 M549.4 392.15 L548.7 395.4 Q548.05 398.9 548.2 400.45 546.85 399.35 547.55 396.9 L549.4 392.15 M82.4 103.05 L82.5 106.2 81.95 114.65 82.7 114.7 82.75 116.15 48.25 114.65 81.95 114.65 82.4 103.05" fill="#aaaaaa" fill-rule="evenodd" stroke="none"/>
    <path d="M696.8 283.55 L705.85 302.15 Q718.1 327.65 719.95 332.65 720.85 335.1 721.95 339.55 723.9 347.7 726.35 362.55 730.35 386.8 728.95 391.65 727.75 395.95 724.35 398.7 L725.2 398.4 725.2 398.7 725.8 413.5 Q715.7 421.45 712.15 422.65 L704.6 423.55 699.75 423.55 699.8 422.9 699.85 421.7 701.25 421.35 700.6 404.9 Q701.85 405.55 713.4 402.1 704.15 403.9 701.95 404.65 L698.95 404.85 674.3 404.0 675.05 404.8 675.0 404.8 674.3 404.0 645.9 404.35 565.95 402.65 Q563.45 404.4 560.35 400.8 557.5 397.5 555.3 390.15 555.35 384.85 545.0 327.5 L539.05 295.0 536.45 279.15 Q521.95 190.15 521.95 182.65 L521.95 179.6 572.45 172.25 572.15 164.3 Q570.6 163.5 568.55 162.65 564.5 161.0 562.1 161.0 L551.85 160.8 585.95 160.65 588.0 161.6 Q590.5 162.5 592.7 162.3 599.7 161.55 600.95 149.65 L602.95 130.65 635.95 132.65 652.85 198.25 658.95 222.65 660.95 223.2 660.85 222.55 675.95 221.65 693.95 277.65 696.8 283.55 M528.85 420.7 L528.65 420.6 527.55 419.4 Q526.55 417.4 526.9 412.75 527.35 407.05 529.55 399.55 L533.65 386.5 Q535.6 380.15 535.75 378.0 L535.75 377.65 Q535.75 375.6 534.3 367.55 L522.0 306.95 521.1 302.4 512.95 261.65 Q513.15 259.9 512.85 257.6 512.6 254.9 512.1 253.65 L511.35 252.2 Q510.0 249.8 507.15 245.95 L506.85 245.55 Q502.35 239.6 499.95 238.85 L498.1 238.15 493.2 235.6 490.65 234.05 489.3 233.25 494.05 231.15 500.7 233.5 Q507.65 236.1 509.15 237.4 L512.5 239.8 Q515.6 241.95 517.9 244.1 521.9 247.85 524.45 252.2 L549.4 392.15 547.55 396.9 Q546.85 399.35 548.2 400.45 548.35 402.0 550.8 404.45 L552.75 406.25 547.0 424.75 Q532.3 422.4 528.85 420.7 M642.7 5.65 L647.75 5.65 649.75 22.65 643.75 23.65 642.75 31.65 619.75 31.65 620.75 25.65 613.75 22.65 616.8 19.7 Q620.7 16.2 624.75 13.4 634.6 6.6 642.7 5.65 M689.95 356.0 Q682.05 339.0 663.6 282.85 643.95 222.95 643.25 209.65 640.7 202.0 634.5 194.35 622.1 179.0 603.95 179.0 585.85 179.0 562.4 179.7 L542.6 180.35 Q540.2 179.5 537.9 180.7 533.35 183.0 533.95 193.0 562.6 374.7 562.6 377.0 562.6 382.4 566.3 386.85 572.5 394.25 586.25 390.65 L593.25 388.95 Q602.25 387.05 612.3 385.7 644.4 381.45 674.6 385.0 L691.6 385.65 Q693.85 383.4 694.55 377.7 695.65 368.3 689.95 356.0 M520.95 160.65 L521.85 169.0 521.75 172.8 521.45 167.15 520.95 160.65" fill="#c1c1c1" fill-rule="evenodd" stroke="none"/>
    <path d="M584.65 37.3 L589.25 45.9 591.05 49.9 Q596.55 62.05 596.8 63.65 L598.6 82.6 598.6 84.65 593.25 73.1 582.0 37.6 582.9 37.35 582.95 37.35 584.65 37.3 M582.75 77.35 L583.85 77.95 Q585.0 78.75 585.45 80.0 585.85 81.25 584.6 81.6 L581.75 82.0 Q580.4 82.25 579.3 81.6 L577.1 79.65 Q576.05 78.6 578.5 77.9 L581.1 77.35 582.75 77.35" fill="#474747" fill-rule="evenodd" stroke="none"/>
    <path d="M593.25 73.1 Q592.65 72.35 586.6 69.1 582.0 66.6 578.45 64.85 576.35 63.75 573.9 57.45 571.65 51.5 570.45 44.7 569.5 39.1 575.45 37.35 577.6 36.7 580.0 36.75 582.15 36.8 582.9 37.3 L582.95 37.35 582.9 37.35 582.0 37.6 593.25 73.1" fill="#d0d0d0" fill-rule="evenodd" stroke="none"/>
    <path d="M584.65 37.3 L602.55 37.4 633.8 37.3 Q645.35 37.1 651.35 45.25 655.2 50.5 656.3 58.3 656.9 62.65 654.2 67.45 652.7 70.15 648.3 75.5 645.65 78.7 639.6 79.1 L631.75 78.75 Q629.8 78.55 616.8 73.05 605.15 68.15 602.75 66.9 601.65 66.35 599.85 66.25 L598.3 66.3 596.8 61.3 589.7 46.8 589.25 45.9 584.65 37.3 M644.05 66.95 Q647.7 63.45 647.7 58.45 647.7 53.5 644.05 50.0 640.35 46.5 635.15 46.5 629.95 46.5 626.25 50.0 622.55 53.5 622.55 58.45 622.55 63.45 626.25 66.95 629.95 70.45 635.15 70.45 640.35 70.45 644.05 66.95" fill="#848484" fill-rule="evenodd" stroke="none"/>
    <path d="M695.7 422.6 L683.75 425.3 Q682.6 417.35 682.6 414.65 682.6 413.3 679.75 409.85 L678.45 408.35 675.05 404.8 674.3 404.0 698.95 404.85 700.6 404.9 701.25 421.35 699.85 421.7 695.7 422.6 M534.75 18.65 L539.1 20.45 567.75 124.65 562.75 124.65 544.65 56.9 534.75 18.65 M661.25 28.45 Q664.05 30.7 669.9 37.6 674.1 42.5 677.9 47.35 L699.8 124.3 694.75 125.35 682.0 88.85 Q669.15 51.85 668.75 49.35 668.3 46.7 665.25 44.6 663.45 43.35 658.75 41.35 655.85 40.1 654.7 33.6 L654.1 27.35 655.5 27.1 659.4 27.35 Q660.05 27.45 661.25 28.45 M680.55 48.85 L694.25 50.05 709.4 51.35 713.2 50.2 714.75 49.7 720.75 47.35 Q723.95 45.85 726.55 47.7 L727.15 48.2 730.1 51.35 Q731.45 52.7 729.15 57.5 727.3 61.5 724.75 64.65 723.1 66.75 714.1 81.6 L705.4 96.0 705.4 92.65 Q705.4 90.65 708.25 80.4 L712.1 66.65 Q712.9 63.35 711.4 63.25 708.1 63.7 704.75 63.35 700.6 62.9 696.6 65.1 L693.4 67.35 682.75 52.65 680.55 48.85 M649.75 74.65 L653.75 73.65 669.75 124.65 664.75 124.65 649.75 74.65 M655.75 124.65 L650.75 124.65 639.75 80.65 643.75 79.65 655.75 124.65 M596.75 87.65 L600.75 86.65 611.75 124.65 606.75 124.65 596.75 87.65 M582.75 88.65 L586.75 87.65 597.75 124.65 592.75 124.65 582.75 88.65 M550.75 22.65 L554.75 21.65 583.75 124.65 578.75 124.65 550.75 22.65 M623.75 84.65 L627.75 83.65 640.75 124.65 635.75 124.65 623.75 84.65 M609.75 84.65 L613.75 83.65 624.75 124.65 619.75 124.65 609.75 84.65 M505.2 69.65 L505.05 69.25 509.5 69.55 509.55 69.65 525.75 124.65 520.75 124.65 505.2 69.65 M519.6 69.65 L519.55 69.55 520.95 69.65 523.7 69.85 539.75 124.65 534.75 124.65 519.6 69.65 M534.7 69.65 L534.65 69.55 539.4 69.55 539.45 69.65 554.75 124.65 549.75 124.65 534.7 69.65 M490.3 69.65 L490.25 69.55 494.7 69.55 494.75 69.65 510.7 124.5 510.75 124.65 505.75 124.65 505.7 124.4 490.3 69.65 M496.65 124.2 L496.75 124.65 491.75 124.65 491.6 124.1 476.65 69.85 480.8 70.45 496.65 124.2 M482.55 123.95 L482.75 124.65 477.75 124.65 477.55 123.85 462.45 70.15 466.0 69.85 482.55 123.95 M539.05 295.0 L545.0 327.5 Q555.35 384.85 555.3 390.15 L555.25 390.65 552.95 393.85 Q551.8 395.55 552.6 398.0 553.45 400.5 557.8 403.85 559.95 405.5 561.95 406.65 L557.65 424.75 547.0 424.75 553.25 406.65 552.75 406.25 550.8 404.45 Q548.35 402.0 548.2 400.45 548.05 398.9 548.7 395.4 L549.4 392.15 524.45 252.2 523.95 249.35 528.35 254.85 Q532.85 260.85 533.25 263.35 L539.05 295.0 M107.85 62.85 L434.95 68.65 440.6 68.05 Q445.55 67.05 448.5 64.9 L448.55 64.9 448.75 69.65 451.4 69.65 Q451.3 72.0 450.2 74.3 L448.75 69.65 Q449.5 73.9 444.15 77.4 433.4 84.4 402.75 80.65 L286.6 79.75 86.95 76.7 84.95 76.65 83.95 62.65 107.85 62.85" fill="#f2f2f2" fill-rule="evenodd" stroke="none"/>
    <path d="M644.05 66.95 Q640.35 70.45 635.15 70.45 629.95 70.45 626.25 66.95 622.55 63.45 622.55 58.45 622.55 53.5 626.25 50.0 629.95 46.5 635.15 46.5 640.35 46.5 644.05 50.0 647.7 53.5 647.7 58.45 647.7 63.45 644.05 66.95" fill="#f7f7f7" fill-rule="evenodd" stroke="none"/>
    <path d="M446.75 21.65 L446.8 21.65 451.15 18.65 Q456.6 15.8 463.0 15.65 L463.75 15.65 534.75 18.65 544.65 56.9 547.75 69.65 539.45 69.65 539.4 69.55 534.65 69.55 534.7 69.65 520.95 69.65 519.55 69.55 519.6 69.65 509.55 69.65 509.5 69.55 505.05 69.25 505.2 69.65 494.75 69.65 494.7 69.55 490.25 69.55 490.3 69.65 451.4 69.65 448.75 69.65 448.55 64.9 448.55 64.85 448.2 56.0 447.6 42.25 447.3 34.6 446.75 21.65" fill="#787878" fill-rule="evenodd" stroke="none"/>
    <path d="M505.7 124.4 L505.75 124.65 510.75 124.65 510.7 124.5 589.95 126.0 590.6 140.65 586.6 141.65 518.6 141.65 518.6 144.65 517.95 140.65 510.95 140.35 510.6 154.35 492.95 154.0 486.6 156.65 Q475.25 157.0 473.25 156.35 L463.0 152.35 Q453.6 148.85 450.25 148.65 445.25 148.35 434.55 148.3 422.7 148.2 421.6 148.65 L410.15 153.2 Q399.95 157.4 399.95 158.0 399.95 160.4 397.35 165.1 393.75 171.6 388.25 172.65 L387.25 176.0 375.95 174.65 Q370.6 164.0 360.75 153.2 340.95 131.65 318.25 131.0 L167.6 128.0 165.95 119.65 220.15 120.2 317.05 122.3 317.0 121.65 383.75 122.6 374.25 122.65 Q372.85 123.4 371.45 124.8 368.75 127.55 368.95 130.65 L369.7 132.65 Q370.75 135.0 372.2 137.0 376.85 143.35 383.95 143.35 391.25 143.35 395.85 137.7 399.25 133.5 399.25 130.35 399.25 128.9 396.95 125.6 L394.65 122.7 396.4 122.65 465.75 123.65 465.75 123.6 477.55 123.85 477.75 124.65 482.75 124.65 482.55 123.95 491.6 124.1 491.75 124.65 496.75 124.65 496.65 124.2 505.7 124.4 M487.1 140.85 Q484.3 139.05 480.95 139.35 L477.65 142.2 Q474.4 145.35 474.6 147.0 474.85 148.9 477.85 151.15 480.75 153.35 482.6 153.35 484.95 153.35 487.3 151.75 490.25 149.7 490.25 146.35 490.25 142.85 487.1 140.85 M525.6 145.35 L518.6 144.65 586.6 144.65 586.6 145.65 583.6 145.4 583.6 145.35 525.6 145.35 M526.3 148.65 L583.6 148.65 578.25 149.65 578.6 153.35 531.95 153.65 531.75 153.0 531.6 153.0 531.6 152.6 530.95 150.65 526.6 150.0 526.3 148.65 M396.6 155.65 Q395.45 153.75 393.65 151.75 390.1 147.75 386.95 147.35 L387.6 166.65 381.95 166.65 375.6 161.0 375.95 150.0 375.1 153.2 Q374.3 157.0 374.6 160.05 375.6 169.8 387.25 168.35 L392.8 164.5 Q398.05 159.85 396.6 155.65" fill="#727272" fill-rule="evenodd" stroke="none"/>
    <path d="M487.1 140.85 Q490.25 142.85 490.25 146.35 490.25 149.7 487.3 151.75 484.95 153.35 482.6 153.35 480.75 153.35 477.85 151.15 474.85 148.9 474.6 147.0 474.4 145.35 477.65 142.2 L480.95 139.35 Q484.3 139.05 487.1 140.85" fill="#5b5b5b" fill-rule="evenodd" stroke="none"/>
    <path d="M518.6 144.65 L518.6 141.65 586.6 141.65 586.6 144.65 518.6 144.65" fill="#f9f9f9" fill-rule="evenodd" stroke="none"/>
    <path d="M525.6 145.35 L583.6 145.35 583.6 145.4 583.6 148.65 526.3 148.65 525.6 148.65 525.6 145.35" fill="#a1a1a1" fill-rule="evenodd" stroke="none"/>
    <path d="M521.85 169.0 L520.95 160.65 551.85 160.8 562.1 161.0 Q564.5 161.0 568.55 162.65 570.6 163.5 572.15 164.3 L572.45 172.25 570.25 171.15 567.95 170.1 567.45 169.9 Q563.25 168.05 562.4 168.4 L553.9 168.85 551.5 168.85 521.85 169.0" fill="#505050" fill-rule="evenodd" stroke="none"/>
    <path d="M521.75 172.8 L521.85 169.0 551.5 168.85 553.9 168.85 562.4 168.4 Q563.25 168.05 567.45 169.9 L567.95 170.1 570.25 171.15 572.45 172.25 521.95 179.6 521.55 179.65 521.75 172.8" fill="#303030" fill-rule="evenodd" stroke="none"/>
    <path d="M491.55 171.85 L490.95 170.65 478.95 163.0 480.65 163.4 Q482.55 163.45 483.6 162.0 485.25 159.65 486.6 156.65 L490.6 158.1 Q495.4 160.15 499.55 163.1 512.7 172.45 513.95 187.0 L513.6 190.0 Q513.05 193.6 511.9 196.85 508.3 207.15 500.6 209.65 L496.6 216.3 Q492.6 223.15 492.6 224.0 492.6 225.25 488.95 227.85 L481.95 229.95 472.95 232.0 466.25 232.65 468.35 230.9 468.95 230.35 471.95 229.7 Q475.7 228.6 479.45 226.3 491.45 218.9 498.95 202.0 L498.95 201.95 Q498.55 195.3 497.75 188.6 497.05 182.2 496.3 178.75 495.45 174.9 494.6 174.65 L494.45 174.6 Q492.9 174.15 491.8 172.4 L491.55 171.85 M396.6 155.65 Q398.05 159.85 392.8 164.5 L387.25 168.35 Q375.6 169.8 374.6 160.05 374.3 157.0 375.1 153.2 L375.95 150.0 375.6 161.0 381.95 166.65 387.6 166.65 386.95 147.35 Q390.1 147.75 393.65 151.75 395.45 153.75 396.6 155.65" fill="#484848" fill-rule="evenodd" stroke="none"/>
    <path d="M483.35 191.55 L483.9 188.0 Q484.9 180.55 484.15 173.05 L483.25 167.0 490.95 170.65 491.0 171.65 491.0 172.25 Q491.65 208.05 476.7 220.6 L474.0 222.6 Q470.75 224.5 466.85 225.55 L466.7 225.6 466.1 225.7 461.3 226.0 461.25 226.0 461.35 225.95 Q479.2 212.85 483.35 191.55" fill="#f1f1f1" fill-rule="evenodd" stroke="none"/>
    <path d="M317.0 121.65 L317.05 122.3 220.15 120.2 204.1 119.65 317.0 121.35 317.0 121.65 M437.75 34.5 L437.95 37.35 447.25 37.35 447.6 42.25 448.2 56.0 437.95 56.0 437.95 66.0 419.25 68.0 419.95 59.35 427.25 59.35 427.25 38.0 420.6 37.35 420.4 34.35 419.95 28.0 437.25 28.0 437.75 34.5" fill="#7a7a7a" fill-rule="evenodd" stroke="none"/>
    <path d="M447.6 42.25 L447.25 37.35 437.95 37.35 437.75 34.5 447.3 34.6 447.6 42.25 M420.4 34.35 L420.6 37.35 427.25 38.0 427.25 59.35 419.95 59.35 419.25 68.0 437.95 66.0 437.95 56.0 448.2 56.0 448.55 64.85 448.5 64.9 Q445.55 67.05 440.6 68.05 L434.95 68.65 107.85 62.85 179.45 62.65 274.95 61.65 Q296.2 64.5 312.2 62.6 331.05 60.3 342.7 51.4 349.4 46.25 352.85 39.45 354.6 36.05 354.95 33.65 L420.4 34.35" fill="#6e6e6e" fill-rule="evenodd" stroke="none"/>
    <path d="M-0.4 59.65 L-1.05 58.65 -1.05 16.65 11.25 16.8 45.55 17.15 446.75 21.65 447.3 34.6 437.75 34.5 437.25 28.0 419.95 28.0 420.4 34.35 354.95 33.65 Q348.7 50.55 326.2 58.8 319.55 61.2 312.2 62.6 296.2 64.5 274.95 61.65 L179.45 62.65 107.85 62.85 83.95 62.65 83.4 76.7 81.75 76.65 82.4 103.05 81.95 114.65 48.25 114.65 21.95 114.65 10.95 77.65 -0.4 59.65" fill="#cfcfcf" fill-rule="evenodd" stroke="none"/>
    <path d="M465.75 123.6 L465.75 123.65 396.4 122.65 317.0 121.35 204.1 119.65 139.85 118.55 82.75 117.65 82.75 116.15 82.7 114.7 82.5 106.2 82.4 103.05 81.75 76.65 83.4 76.7 86.95 76.7 286.6 79.75 402.75 80.65 Q433.4 84.4 444.15 77.4 449.5 73.9 448.75 69.65 L450.2 74.3 465.75 123.6" fill="#c9c9c9" fill-rule="evenodd" stroke="none"/>
    <path d="M394.65 122.7 L396.95 125.6 Q399.25 128.9 399.25 130.35 399.25 133.5 395.85 137.7 391.25 143.35 383.95 143.35 376.85 143.35 372.2 137.0 370.75 135.0 369.7 132.65 L368.95 130.65 Q368.75 127.55 371.45 124.8 372.85 123.4 374.25 122.65 L383.75 122.6 394.6 122.65 394.65 122.7" fill="#656565" fill-rule="evenodd" stroke="none"/>
    <path d="M683.75 425.3 Q683.2 426.45 680.0 426.9 L676.95 427.1 557.65 424.75 565.35 405.2 645.9 404.35 674.3 404.0 675.0 404.8 677.1 407.1 679.75 409.85 Q682.6 413.3 682.6 414.65 682.6 417.35 683.75 425.3 M483.35 191.55 Q479.2 212.85 461.35 225.95 L461.25 226.0 461.5 225.65 Q467.6 217.1 471.25 204.85 478.65 179.85 465.95 160.65 L469.25 160.0 483.25 167.0 484.1 173.55 Q484.7 181.65 483.65 189.4 L483.35 191.55" fill="#7c7c7c" fill-rule="evenodd" stroke="none"/>
    <path d="M511.0 214.35 Q513.8 216.55 514.95 221.0 516.0 225.2 512.5 227.75 511.55 228.45 507.6 230.0 505.6 230.8 502.9 229.4 499.25 227.55 497.95 222.35 496.7 217.35 501.55 214.5 503.95 213.1 506.6 212.65 508.9 212.65 511.0 214.35" fill="#898989" fill-rule="evenodd" stroke="none"/>
    <path d="M77.3 127.5 L49.6 127.35 49.55 126.7 48.25 114.65 82.75 116.15 82.75 117.65 139.85 118.55 165.95 119.65 167.6 128.0 77.3 127.5" fill="#c3c3c3" fill-rule="evenodd" stroke="none"/>
    <path d="M82.5 106.2 L82.7 114.7 81.95 114.65 82.5 106.2" fill="#939393" fill-rule="evenodd" stroke="none"/>
    <path d="M676.05 427.4 L675.75 429.45 624.85 430.65 574.25 430.95 566.55 429.75 Q565.8 429.75 566.55 427.4 L567.45 425.0 676.05 427.4" fill="#d2d2d2" fill-rule="evenodd" stroke="none"/>
    <path d="M676.95 434.8 L677.85 437.45 675.45 440.4 613.55 440.35 Q551.35 440.2 549.65 439.8 L544.4 438.4 541.1 437.45 542.55 434.2 586.1 434.2 676.35 433.0 676.95 434.8" fill="#fcfcfc" fill-rule="evenodd" stroke="none"/>
    <path d="M652.85 198.25 L650.9 190.05 Q659.95 148.8 688.6 137.5 697.55 133.95 707.35 133.8 L715.4 134.4 721.65 137.35 725.75 145.35 723.7 145.65 717.8 141.5 712.75 137.95 693.65 143.75 Q669.25 155.4 662.2 184.9 660.5 192.05 659.95 199.85 659.55 205.5 659.8 211.5 660.1 218.1 660.85 222.55 L660.95 223.2 658.95 222.65 652.85 198.25" fill="#fafafa" fill-rule="evenodd" stroke="none"/>
  </g>
</svg>
