<?xml version="1.0" encoding="UTF-8" standalone="no"?>
<svg xmlns:xlink="http://www.w3.org/1999/xlink" height="79.05px" width="11.75px" xmlns="http://www.w3.org/2000/svg">
  <g transform="matrix(1.0, 0.0, 0.0, 1.0, 0.0, 4.1)">
    <path d="M10.25 64.55 Q8.6 73.2 0.45 74.95 L0.0 -2.05 9.6 -3.9 9.65 1.25 7.9 1.6 5.5 2.05 6.4 52.5 8.2 52.35 10.1 52.2 10.25 64.55" fill="#333333" fill-rule="evenodd" stroke="none"/>
    <path d="M10.1 52.2 L8.2 52.35 7.9 1.6 9.65 1.25 10.1 52.2" fill="#ffffff" fill-opacity="0.42352942" fill-rule="evenodd" stroke="none"/>
    <path d="M8.2 52.35 L6.4 52.5 5.5 2.05 7.9 1.6 8.2 52.35" fill="#ffffff" fill-opacity="0.6509804" fill-rule="evenodd" stroke="none"/>
    <path d="M10.25 64.55 L10.1 52.2 11.6 52.05 11.75 62.95 10.25 64.55 M9.65 1.25 L9.6 -3.9 11.0 -4.1 11.05 1.0 9.65 1.25" fill="#222222" fill-rule="evenodd" stroke="none"/>
    <path d="M11.05 1.0 L11.6 52.05 10.1 52.2 9.65 1.25 11.05 1.0" fill="#111111" fill-rule="evenodd" stroke="none"/>
  </g>
</svg>
