<?xml version="1.0" encoding="UTF-8" standalone="no"?>
<svg xmlns:xlink="http://www.w3.org/1999/xlink" height="129.4px" width="151.1px" xmlns="http://www.w3.org/2000/svg">
  <g transform="matrix(1.0, 0.0, 0.0, 1.0, 127.55, 49.9)">
    <path d="M-61.45 35.65 L-61.25 35.25 Q-58.95 34.95 -58.0 35.25 -56.85 35.65 -56.85 37.1 -56.85 38.15 -57.0 38.35 L-57.2 38.65 -59.3 39.0 Q-61.65 39.0 -61.65 37.0 -61.65 35.95 -61.45 35.65 M-52.65 17.65 L-53.45 16.5 Q-53.0 15.55 -51.75 14.8 -50.35 14.0 -49.0 14.0 L-48.7 14.5 -48.65 15.55 Q-48.65 16.6 -48.9 17.05 L-49.15 17.55 -50.05 18.2 -51.45 18.45 Q-52.1 18.45 -52.65 17.65 M-28.75 22.2 Q-28.45 20.9 -26.85 20.25 L-24.3 20.1 -24.0 20.65 -23.95 21.7 -24.1 22.65 Q-23.95 23.25 -23.95 24.2 -23.95 24.7 -27.75 28.9 -32.2 33.75 -37.15 38.2 L-41.4 41.85 Q-40.7 41.95 -40.25 42.45 -39.7 43.1 -39.7 44.0 L-40.1 44.5 -41.8 45.9 Q-42.7 45.75 -43.45 45.2 L-43.8 43.9 -43.8 43.75 Q-53.9 51.45 -60.35 51.45 -61.6 51.45 -61.9 50.5 L-62.35 49.0 Q-57.85 45.85 -50.3 41.2 L-37.85 33.6 -29.9 24.75 -28.45 23.4 -28.55 23.2 -28.75 22.2 M-36.3 11.2 L-36.3 12.25 Q-36.3 13.45 -37.0 15.1 -38.15 17.75 -40.4 17.75 L-41.8 17.5 -42.15 17.2 -42.4 16.5 -42.5 15.2 Q-42.5 13.8 -40.75 12.35 -38.8 10.75 -36.45 10.75 L-36.3 11.2 M-10.4 20.35 Q-16.2 22.55 -19.15 22.55 L-20.35 22.2 Q-21.15 21.7 -21.15 20.55 -21.15 19.4 -13.15 16.65 -5.45 14.0 -4.25 14.15 L-4.05 14.8 -4.0 16.0 Q-4.0 17.95 -10.4 20.35 M-14.6 3.7 L-14.35 4.9 Q-11.6 2.25 -11.6 6.3 L-12.35 9.3 -12.65 10.05 Q-11.3 10.45 -10.2 11.95 -10.5 12.8 -13.15 14.65 -15.75 16.45 -16.45 16.45 -17.5 16.45 -17.85 16.0 L-18.25 15.55 -18.5 15.05 -18.55 14.0 Q-18.55 12.6 -17.45 11.55 L-17.5 11.5 -18.55 11.6 -19.0 11.6 -19.85 12.3 Q-21.75 11.4 -23.2 9.75 L-23.6 9.25 -25.35 9.5 -27.2 9.2 Q-28.05 8.75 -28.05 7.5 -28.05 6.0 -25.3 5.2 L-23.3 5.25 Q-21.35 5.8 -19.6 7.8 L-19.55 7.75 -18.55 5.95 -18.7 3.85 -18.6 2.35 Q-15.45 2.2 -14.6 3.7 M-9.3 5.55 L-9.1 5.05 Q-6.55 4.1 -4.8 6.15 -3.4 7.8 -3.4 9.6 -3.4 10.5 -3.55 10.85 -3.95 11.7 -5.4 12.3 L-7.6 9.75 Q-9.5 7.45 -9.5 6.9 L-9.3 5.55 M-2.35 -1.75 Q-3.4 -2.25 -3.4 -3.3 -3.4 -4.35 -3.1 -4.65 L-2.85 -5.05 Q1.85 -5.05 3.65 -2.75 4.7 -1.35 4.7 1.1 4.7 2.7 4.35 3.25 3.4 4.7 0.0 4.7 L-1.15 4.35 Q-2.0 3.8 -2.0 2.7 L-0.95 1.5 Q0.05 0.45 0.05 0.0 0.05 -1.1 -0.15 -1.2 L-0.4 -1.05 -2.35 -1.75 M-12.05 -8.1 L-11.8 -8.55 Q-9.05 -8.9 -8.0 -8.6 -6.8 -8.25 -6.8 -6.65 -6.8 -5.65 -6.95 -5.4 L-7.15 -5.05 -9.5 -4.7 Q-12.3 -4.7 -12.3 -6.7 L-12.05 -8.1 M-21.5 -5.75 L-21.2 -5.25 -21.15 -4.25 Q-21.15 -3.15 -22.7 -1.75 -24.65 0.0 -27.35 0.0 -30.15 0.0 -30.15 -2.0 -30.15 -3.25 -26.4 -4.6 -23.1 -5.75 -21.5 -5.75 M-31.9 -13.6 L-31.65 -14.05 Q-29.1 -15.05 -27.95 -13.4 L-27.35 -11.45 -27.75 -11.0 -29.45 -9.5 Q-32.2 -11.2 -32.2 -12.25 L-31.9 -13.6 M-45.2 -0.15 Q-45.2 -2.2 -43.05 -3.0 L-38.35 -3.15 Q-31.5 -1.5 -31.5 4.6 L-31.5 6.8 Q-32.35 8.8 -36.65 8.8 -38.7 8.8 -41.5 5.75 L-42.65 5.25 Q-43.8 4.55 -43.8 3.4 L-43.8 3.0 Q-45.2 0.95 -45.2 -0.15 M-52.0 -7.15 L-52.15 -8.2 Q-52.15 -9.6 -50.05 -10.45 L-46.8 -11.1 -46.6 -10.65 -46.6 -9.6 Q-46.6 -8.7 -47.05 -7.75 -47.85 -6.1 -49.7 -6.1 L-51.25 -6.35 -51.8 -6.65 Q-51.8 -7.1 -52.0 -7.15 M-14.5 -49.7 Q-12.35 -50.05 -11.4 -49.7 -10.2 -49.3 -10.2 -47.85 -10.2 -46.8 -10.35 -46.6 L-10.55 -46.25 -12.65 -45.9 Q-13.55 -45.9 -14.2 -46.3 -15.05 -46.8 -15.05 -47.95 -15.05 -48.95 -14.75 -49.25 L-14.5 -49.7" fill="#6d0101" fill-rule="evenodd" stroke="none"/>
    <path d="M-108.3 74.0 Q-109.2 73.9 -110.4 71.9 -110.1 71.05 -109.0 70.6 -107.8 71.3 -107.0 73.15 L-108.3 74.0 M-111.65 73.3 L-117.95 73.3 Q-119.05 72.85 -119.35 71.9 L-118.8 70.95 Q-111.1 68.45 -111.1 72.0 -111.1 73.05 -111.35 73.2 L-111.65 73.3 M-36.3 69.3 Q-36.0 68.4 -35.0 67.9 -34.4 68.15 -33.95 68.8 -33.6 69.35 -33.6 69.7 -34.1 70.25 -35.0 70.6 -35.85 70.2 -36.3 69.3 M-79.9 75.05 Q-79.5 75.9 -79.5 76.65 L-79.75 77.2 -80.9 77.4 -82.1 77.2 -81.95 77.0 -82.15 76.8 -82.3 75.65 -82.25 75.1 -104.8 76.45 Q-117.05 77.75 -126.15 79.5 -127.25 79.5 -127.45 79.0 L-127.55 78.1 -127.05 77.05 -107.0 75.25 -90.1 73.25 Q-71.95 71.45 -56.85 75.25 L-58.25 76.1 -79.9 75.05 M-43.2 67.7 Q-43.75 68.25 -44.5 68.6 -45.6 68.15 -45.9 67.2 L-45.4 66.15 -44.35 66.45 Q-43.8 66.8 -43.2 67.7 M-50.75 48.65 L-50.2 47.6 -49.15 47.9 Q-48.6 48.25 -48.0 49.15 L-49.35 50.05 Q-50.35 49.65 -50.75 48.65" fill="#430101" fill-rule="evenodd" stroke="none"/>
    <path d="M-2.1 20.6 L18.55 44.85 2.65 74.0" fill="none" stroke="#000000" stroke-linecap="round" stroke-linejoin="round" stroke-width="10.0"/>
    <path d="M-5.5 -14.8 L-6.65 -26.7 M-10.55 73.35 L11.1 52.25 -2.05 21.1 -2.4 17.4" fill="none" stroke="#000000" stroke-linecap="round" stroke-linejoin="round" stroke-width="10.0"/>
    <path d="M-6.25 -24.9 L-3.25 27.05" fill="none" stroke="#000000" stroke-linecap="round" stroke-linejoin="round" stroke-width="10.0"/>
    <path d="M-7.1 -24.4 L-19.3 2.65 -17.45 35.7" fill="none" stroke="#000000" stroke-linecap="round" stroke-linejoin="round" stroke-width="10.0"/>
  </g>
</svg>
