<?xml version="1.0" encoding="UTF-8" standalone="no"?>
<svg xmlns:xlink="http://www.w3.org/1999/xlink" height="14.3px" width="117.35px" xmlns="http://www.w3.org/2000/svg">
  <g transform="matrix(1.0, 0.0, 0.0, 1.0, 153.65, -69.35)">
    <path d="M-83.1 78.4 L-86.7 78.5 -86.45 79.25 -76.4 78.25 -83.1 78.4 M-93.2 80.05 L-93.25 79.6 -93.15 78.6 -96.9 78.65 Q-96.65 79.1 -96.65 79.7 L-96.65 80.5 -93.2 80.05 M-93.7 70.0 L-93.45 69.55 Q-90.2 69.2 -89.0 69.55 -87.75 69.9 -87.75 71.4 -87.75 72.45 -87.9 72.65 L-88.1 72.95 -90.9 73.3 -93.1 72.95 Q-93.95 72.55 -93.95 71.4 L-93.7 70.0 M-129.55 79.0 L-129.95 79.5 -131.65 80.9 -133.4 80.2 -133.75 78.9 -133.5 77.55 -133.25 77.05 Q-131.3 76.4 -130.25 77.45 -129.55 78.2 -129.55 79.0 M-144.0 80.4 Q-145.4 79.35 -145.4 77.5 -145.4 75.0 -139.9 75.35 -134.45 75.7 -134.45 78.1 L-134.55 79.95 Q-135.45 81.6 -139.3 81.6 -142.45 81.6 -144.0 80.4 M-148.45 79.85 L-150.9 80.2 Q-153.65 80.2 -153.65 78.2 -153.65 77.2 -153.35 76.9 L-153.1 76.45 Q-150.5 76.1 -149.35 76.45 -148.1 76.85 -148.1 78.3 -148.1 79.35 -148.25 79.55 L-148.45 79.85 M-59.15 73.85 L-57.7 73.5 -55.7 72.85 -51.95 71.75 Q-50.1 71.1 -48.8 71.1 L-48.65 71.6 -48.65 72.6 Q-48.65 74.35 -53.25 76.3 L-54.85 76.85 Q-36.3 76.15 -36.3 79.0 -36.3 79.95 -60.9 81.9 L-85.75 83.65 Q-99.85 83.65 -102.05 83.3 -103.1 83.1 -103.1 82.65 L-102.9 81.6 -102.65 81.45 Q-104.15 81.25 -105.1 80.7 -106.3 79.95 -106.3 78.9 L-106.3 78.8 -109.1 78.8 Q-120.25 78.8 -121.9 78.5 -122.8 78.3 -122.85 77.9 L-122.75 76.8 Q-122.3 74.7 -120.75 74.7 -103.75 74.25 -95.35 74.15 L-79.35 74.0 Q-80.2 73.3 -80.2 72.7 L-79.95 71.35 -79.7 70.95 Q-76.05 69.95 -74.65 71.5 -74.0 72.3 -74.0 73.5 L-74.35 73.95 -59.15 73.85" fill="#6d0101" fill-rule="evenodd" stroke="none"/>
  </g>
</svg>
