<?xml version="1.0" encoding="UTF-8" standalone="no"?>
<svg xmlns:xlink="http://www.w3.org/1999/xlink" height="18.2px" width="23.5px" xmlns="http://www.w3.org/2000/svg">
  <g transform="matrix(1.0, 0.0, 0.0, 1.0, -63.4, -70.7)">
    <path d="M69.15 75.15 L69.7 73.75 68.45 71.4 67.4 73.05 67.8 75.25 69.15 75.15 M65.3 82.2 L67.05 85.75 67.65 85.7 67.95 85.7 67.8 85.35 67.75 84.85 Q67.75 83.8 68.7 83.25 69.35 82.9 70.25 82.9 L71.7 83.1 Q72.4 83.45 72.4 84.35 L72.25 85.3 72.25 85.4 72.3 85.4 72.9 85.35 73.0 81.15 65.3 82.2 M72.45 80.2 L86.9 79.25 86.65 75.65 85.4 75.15 69.0 76.25 72.45 80.2" fill="#262e37" fill-rule="evenodd" stroke="none"/>
    <path d="M85.4 75.15 L83.25 74.3 69.15 75.15 67.8 75.25 67.4 73.05 68.45 71.4 68.85 70.7 64.25 73.85 64.25 76.45 64.15 76.6 63.4 77.2 64.8 81.9 65.3 82.2 73.0 81.15 73.0 80.9 72.45 80.2 69.0 76.25 85.4 75.15 M67.8 85.35 Q68.45 84.25 70.4 84.25 71.6 84.25 72.05 84.9 L72.25 85.3 72.4 84.35 Q72.4 83.45 71.7 83.1 L70.25 82.9 Q69.35 82.9 68.7 83.25 67.75 83.8 67.75 84.85 L67.8 85.35" fill="#647491" fill-rule="evenodd" stroke="none"/>
    <path d="M67.65 85.7 Q67.5 86.15 67.5 86.7 67.5 87.6 68.6 88.3 69.55 88.9 70.4 88.9 71.45 88.9 72.15 88.15 L72.85 87.3 72.3 85.4 72.25 85.4 72.25 85.3 72.05 84.9 Q71.6 84.25 70.4 84.25 68.45 84.25 67.8 85.35 L67.95 85.7 67.65 85.7 M71.2 87.4 L70.95 87.45 71.35 87.1 71.2 87.4" fill="#181d23" fill-rule="evenodd" stroke="none"/>
  </g>
</svg>
