<?xml version="1.0" encoding="UTF-8" standalone="no"?>
<svg xmlns:xlink="http://www.w3.org/1999/xlink" height="83.7px" width="116.2px" xmlns="http://www.w3.org/2000/svg">
  <g transform="matrix(1.0, 0.0, 0.0, 1.0, 29.3, 3.5)">
    <path d="M5.3 33.65 L9.35 74.15 -24.3 75.2" fill="none" stroke="#000000" stroke-linecap="round" stroke-linejoin="round" stroke-width="10.0"/>
    <path d="M-10.55 73.35 L28.9 75.1 3.25 31.7 44.7 1.5" fill="none" stroke="#000000" stroke-linecap="round" stroke-linejoin="round" stroke-width="10.0"/>
    <path d="M85.4 66.15 L69.0 65.05 72.45 61.05 73.0 60.35 73.0 60.05 65.3 59.0 64.8 59.3 63.4 64.1 64.15 64.7 65.1 65.85 83.25 67.05 85.4 66.15" fill="#666666" fill-rule="evenodd" stroke="none"/>
    <path d="M85.4 66.15 L86.65 65.65 86.9 62.0 72.45 61.05 69.0 65.05 85.4 66.15 M73.0 60.05 L72.9 55.8 67.2 55.4 67.05 55.4 65.3 59.0 73.0 60.05" fill="#2b2b2b" fill-rule="evenodd" stroke="none"/>
    <path d="M46.1 2.2 L33.9 30.4 35.75 64.1" fill="none" stroke="#000000" stroke-linecap="round" stroke-linejoin="round" stroke-width="10.0"/>
  </g>
</svg>
