<?xml version="1.0" encoding="UTF-8" standalone="no"?>
<svg xmlns:xlink="http://www.w3.org/1999/xlink" height="33.05px" width="94.35px" xmlns="http://www.w3.org/2000/svg">
  <g transform="matrix(1.0, 0.0, 0.0, 1.0, 0.0, 0.0)">
    <path d="M65.5 1.45 L65.3 1.05 65.3 1.6 65.05 1.75 65.2 2.0 Q65.65 1.8 65.5 1.45 M65.0 2.2 L64.9 2.2 64.4 2.0 64.2 1.55 64.4 1.1 64.9 0.9 65.4 1.1 65.65 1.55 65.4 2.0 65.05 2.2 64.85 1.75 64.65 1.6 64.6 1.4 64.6 1.05 Q64.1 1.65 64.5 2.0 L65.0 2.2" fill="#545c5f" fill-rule="evenodd" stroke="none"/>
    <path d="M65.5 1.45 Q65.65 1.8 65.2 2.0 L65.05 1.75 65.3 1.6 65.3 1.05 65.5 1.45 M65.0 2.2 L64.5 2.0 Q64.1 1.65 64.6 1.05 L64.6 1.4 64.65 1.6 64.85 1.75 65.05 2.2 65.0 2.2" fill="#111d1e" fill-rule="evenodd" stroke="none"/>
    <path d="M66.5 2.35 L66.4 2.25 63.1 2.3 63.05 0.45 62.9 0.5 62.9 2.3 62.3 2.3 61.5 1.2 61.5 0.4 61.4 0.35 61.75 0.3 63.0 0.15 64.7 0.0 65.8 0.3 Q66.5 0.7 66.5 1.15 L66.5 2.35 M61.2 0.4 L61.2 1.15 61.7 1.95 62.35 2.65 64.4 2.6 66.25 2.55 66.65 2.45 66.6 2.4 67.2 2.55 68.15 5.05 69.3 5.15 68.85 6.85 70.8 6.9 72.9 7.0 73.2 7.45 Q92.7 7.25 92.9 7.35 L93.15 8.35 93.2 9.4 93.05 9.75 92.85 9.85 83.4 9.85 Q82.1 9.15 81.7 9.15 L73.2 8.95 73.2 11.05 79.75 11.05 79.85 12.25 80.2 11.1 86.35 10.9 86.45 11.5 86.6 12.1 86.9 11.0 93.0 10.95 93.05 12.25 92.3 12.3 92.2 12.85 92.8 12.95 92.85 18.9 93.15 18.9 93.55 14.3 Q93.85 9.2 93.4 6.65 L92.95 6.6 88.05 6.55 88.25 6.7 88.15 6.9 87.5 6.85 87.1 6.8 83.0 6.8 86.95 6.7 86.85 6.15 Q86.8 5.6 87.25 5.6 L93.65 5.45 94.25 9.45 Q94.6 14.35 93.65 18.7 L93.55 19.15 Q93.4 19.6 92.95 19.5 L92.25 19.35 87.5 15.9 87.25 18.7 82.5 15.6 81.4 15.75 81.65 16.6 80.4 16.45 80.3 15.75 77.65 15.35 77.8 15.3 77.8 15.05 77.8 14.2 Q78.0 13.3 78.6 13.2 L81.15 13.15 83.05 13.2 85.35 14.55 87.5 15.9 87.7 15.85 85.55 14.45 83.3 13.05 81.65 12.95 81.6 12.95 81.5 12.5 92.3 12.3 92.45 12.2 73.15 12.3 73.2 11.15 72.6 11.05 71.25 11.05 70.95 12.6 69.4 12.7 Q67.75 12.95 67.45 13.95 67.05 15.1 67.1 16.1 67.1 17.05 67.55 17.8 L69.3 20.15 70.8 21.95 71.5 22.45 74.15 26.35 73.75 26.9 70.9 27.65 67.75 28.45 67.3 28.0 67.2 27.6 67.35 27.4 67.45 26.95 67.55 27.1 68.55 27.05 69.55 27.0 70.3 26.8 71.75 26.45 Q72.35 26.25 72.3 25.7 L72.1 25.2 68.15 19.55 Q67.95 19.25 67.55 19.2 L67.15 19.15 65.55 20.05 64.9 20.55 64.35 21.1 64.0 20.4 63.45 19.5 63.2 19.65 63.1 17.9 63.2 16.05 63.7 15.7 63.7 15.45 63.05 15.75 61.85 15.65 60.75 15.5 58.9 15.45 57.35 15.55 Q56.65 15.65 56.6 15.9 L56.15 15.8 55.55 15.85 55.45 15.7 55.7 15.55 56.25 15.4 Q56.6 15.45 56.85 15.1 57.2 14.7 57.2 13.95 L57.25 11.9 57.25 10.75 66.15 10.45 66.75 10.05 67.3 9.4 56.05 9.6 56.3 9.8 56.5 10.1 55.8 9.55 55.2 10.1 55.6 9.55 44.9 9.7 45.05 11.55 45.35 11.6 45.4 10.9 46.5 10.9 46.55 11.5 46.85 11.5 51.55 11.5 51.6 18.8 51.8 18.9 51.7 11.5 53.75 11.45 53.85 13.65 52.15 13.75 52.25 13.45 Q52.4 13.15 52.65 13.15 52.9 13.1 53.15 13.35 L53.4 13.6 52.9 13.0 52.6 12.95 52.05 13.4 51.95 13.75 Q51.75 14.05 51.9 14.25 L52.05 14.35 52.1 14.65 52.6 15.05 Q53.0 15.1 53.4 14.75 L53.7 14.4 56.2 14.45 Q56.55 14.45 56.75 14.05 56.9 13.7 56.45 13.6 L54.05 13.65 53.9 11.45 55.55 11.45 55.6 11.25 53.85 11.25 53.75 11.1 53.75 11.25 51.6 11.3 51.55 11.15 51.55 11.3 46.85 11.3 46.75 10.3 55.2 10.1 55.65 11.1 55.7 11.7 55.35 11.6 55.2 11.65 Q55.05 11.7 55.05 11.85 L55.1 12.25 55.3 12.45 55.7 12.45 55.7 12.95 Q55.7 13.25 55.8 13.1 L55.9 13.05 56.0 13.05 56.25 12.5 56.15 11.2 56.55 10.55 56.55 10.2 56.5 10.1 56.8 10.15 57.05 10.7 56.95 14.1 56.65 14.7 Q56.35 15.1 56.0 15.1 55.65 15.15 55.35 15.4 55.1 15.65 55.1 16.05 L55.1 17.85 55.2 19.35 55.5 19.8 55.35 19.8 55.35 20.05 54.3 19.95 54.3 21.25 54.1 24.5 Q53.7 29.75 52.65 32.95 L53.55 33.0 51.95 33.05 51.85 33.0 52.2 32.95 Q53.4 29.05 53.7 24.05 L53.8 21.0 53.8 19.85 52.25 19.55 Q52.75 20.5 51.75 26.65 L50.7 32.55 51.7 33.0 49.8 32.35 50.2 32.45 Q51.25 28.1 51.7 23.35 L51.9 20.55 51.9 19.5 49.95 19.25 Q50.25 22.5 49.35 27.55 L48.4 31.9 46.05 31.05 46.85 26.3 Q47.6 21.1 47.45 18.8 L46.45 18.4 47.0 17.85 46.6 14.1 46.4 13.4 Q46.05 12.75 45.2 12.85 L43.55 13.05 42.95 13.1 43.05 12.8 Q42.7 12.55 42.45 11.35 L42.3 10.8 42.35 10.9 43.05 12.8 45.2 12.85 Q44.3 9.8 44.6 7.7 L44.9 6.5 45.05 6.15 45.5 3.2 46.05 2.55 Q46.85 1.9 47.7 1.95 L55.25 1.2 61.2 0.4 M65.05 2.2 L65.4 2.0 65.65 1.55 65.4 1.1 64.9 0.9 64.4 1.1 64.2 1.55 64.4 2.0 64.9 2.2 65.0 2.2 65.05 2.2 M77.55 14.9 L77.1 12.55 79.95 12.55 79.95 12.9 79.9 12.9 79.0 12.95 77.9 13.25 77.65 14.3 77.55 14.9 M68.95 13.95 L68.85 14.0 68.35 14.35 68.95 13.95 M65.5 23.15 L65.4 23.15 64.6 23.05 64.15 23.0 64.35 22.55 64.55 21.8 64.55 21.9 Q65.35 22.0 65.5 22.6 L65.5 23.15 M62.9 19.8 L61.95 19.8 61.75 19.75 61.75 19.2 62.25 18.4 Q62.7 17.5 62.5 17.05 62.3 16.55 61.7 16.15 L61.25 15.85 61.35 15.9 61.8 16.05 61.75 16.0 62.9 16.0 62.9 19.8 M61.85 19.8 L55.9 19.8 55.45 19.2 55.4 17.7 Q55.35 16.3 55.45 16.3 L55.85 16.2 56.25 16.15 56.6 15.9 56.5 16.25 56.65 16.2 Q56.15 16.55 56.05 17.0 L55.95 18.05 56.05 18.45 56.6 19.1 56.65 19.3 61.2 19.45 61.5 19.35 61.5 19.75 61.85 19.8 M54.35 29.45 Q53.95 32.15 53.55 33.0 L54.35 29.45 M41.2 13.15 L40.9 13.15 40.5 12.2 Q40.1 11.1 40.2 10.6 L38.9 10.5 38.95 11.6 Q39.1 12.7 39.45 13.15 L39.4 13.15 39.05 12.5 38.5 10.55 37.4 10.55 37.4 11.6 Q37.5 12.75 37.95 13.2 L38.2 13.2 37.65 13.2 Q37.2 12.8 37.05 11.65 L37.0 10.55 36.5 10.55 41.9 10.35 41.9 10.5 40.5 10.55 40.8 12.2 41.2 13.15 M36.3 13.2 L35.7 13.2 36.05 13.2 Q35.8 13.1 35.6 11.85 L35.45 10.6 35.75 10.55 Q35.75 11.75 36.05 12.6 L36.3 13.2 M34.85 13.25 L33.3 13.25 32.9 12.6 Q32.5 11.75 32.35 10.65 L31.85 10.65 32.75 10.65 32.85 10.65 Q32.7 11.3 33.05 12.3 L33.4 13.25 34.6 13.25 Q34.25 12.8 34.05 11.7 L33.8 10.65 32.95 10.65 34.3 10.6 Q34.2 11.15 34.5 12.25 L34.85 13.25 M32.1 13.25 L31.8 13.25 31.35 12.6 Q30.9 11.75 30.85 10.8 L30.85 10.7 29.7 10.75 29.9 11.85 Q30.15 13.05 30.6 13.25 L31.2 13.3 28.9 13.35 28.4 12.45 Q27.85 11.4 27.9 10.8 L26.85 10.8 27.0 11.95 Q27.25 13.15 27.65 13.35 L26.0 13.35 Q25.6 13.1 25.25 11.9 L25.0 10.8 31.3 10.7 31.45 11.85 Q31.65 13.05 32.1 13.25 M25.95 13.35 L24.45 13.4 24.2 13.35 25.95 13.35 M24.15 13.3 L23.75 13.05 23.35 12.7 22.65 13.1 21.8 11.45 19.6 11.45 19.6 12.3 19.3 13.25 18.2 13.25 17.05 12.85 17.75 11.7 14.15 11.5 13.9 10.6 Q13.8 9.85 14.1 9.5 L15.0 9.35 17.75 9.5 18.05 2.4 18.5 2.35 19.45 2.4 23.6 7.7 24.05 7.25 23.9 7.6 23.95 7.4 23.6 7.75 Q23.15 8.45 23.2 10.65 L23.35 12.7 23.95 13.15 23.55 11.0 23.8 12.1 24.15 13.3 M13.65 11.45 L12.35 11.45 11.75 11.55 Q11.0 10.7 11.35 10.1 L11.9 9.7 11.5 9.5 Q10.8 10.0 11.05 10.85 L11.35 11.6 6.1 11.85 5.55 12.0 5.15 11.15 Q4.95 10.2 5.65 9.65 L11.5 9.5 13.45 9.65 13.8 9.55 13.2 9.8 13.2 10.5 Q13.2 11.25 13.45 11.4 L13.65 11.45 M25.95 6.95 L26.15 6.9 25.75 7.4 25.55 7.95 25.5 8.2 25.5 8.25 25.25 9.6 26.4 9.55 26.55 8.35 26.6 8.1 26.6 8.05 26.7 7.7 26.75 7.6 27.05 7.15 Q27.15 7.0 27.35 6.95 27.1 7.05 26.9 8.3 L26.65 9.55 27.9 9.55 Q27.8 9.3 28.15 8.05 L28.45 7.15 28.4 7.15 28.5 6.8 27.35 6.95 26.2 6.9 29.6 6.75 28.85 6.85 28.5 7.8 28.4 8.15 Q28.15 9.0 28.2 9.5 L29.35 9.5 29.5 8.15 29.55 8.15 29.65 7.65 29.7 7.3 29.75 7.15 29.8 7.1 30.0 6.7 30.3 6.7 30.3 6.65 31.55 6.6 31.45 6.65 33.35 6.55 33.0 7.25 Q32.7 8.2 32.75 9.4 L33.95 9.45 34.1 8.05 34.15 7.95 34.2 7.5 34.6 6.5 34.85 6.5 34.5 7.75 Q34.15 9.1 34.25 9.4 L35.45 9.4 35.6 8.15 35.7 7.55 35.9 6.9 35.85 6.9 36.2 6.45 36.35 6.45 36.05 7.4 Q35.75 8.5 35.75 9.35 L37.0 9.35 37.1 8.1 37.15 8.1 37.25 7.45 37.25 7.4 Q37.45 6.45 37.75 6.4 L36.95 6.4 37.95 6.35 37.7 6.85 37.55 7.25 Q37.15 8.3 37.3 9.2 L38.6 9.3 38.75 7.85 Q38.9 6.4 39.1 6.35 L38.15 6.35 39.4 6.3 39.3 6.3 39.05 7.15 Q38.85 8.2 38.9 9.2 L40.1 9.2 40.2 8.15 40.25 7.75 40.2 8.15 38.95 8.15 39.05 7.5 39.15 6.85 40.4 6.8 40.65 6.25 40.9 6.2 40.75 6.8 40.65 7.1 40.4 9.2 41.9 9.15 41.9 9.5 41.9 9.85 23.55 10.25 23.55 10.45 23.6 9.1 23.7 8.45 23.55 9.65 24.95 9.6 Q25.0 8.45 25.45 7.55 L25.95 6.95 M42.75 6.65 L42.85 6.7 Q41.95 8.45 42.3 10.5 L42.2 10.2 Q42.05 8.95 42.4 7.65 L42.75 6.65 M63.7 3.8 L63.4 3.8 63.35 4.25 66.45 4.25 66.45 3.8 66.4 3.5 66.45 3.05 65.05 3.0 63.35 3.15 63.45 3.45 64.75 3.4 65.65 3.4 65.65 3.8 64.4 3.8 64.4 3.45 63.65 3.5 63.7 3.8 M72.2 7.3 L72.4 10.9 72.55 10.8 72.85 11.05 72.9 9.15 72.95 7.25 72.8 7.3 72.7 7.4 72.5 7.35 72.4 7.45 72.2 7.3 M70.8 6.9 L70.95 10.95 71.25 11.05 70.95 7.0 70.8 6.9 M70.0 9.3 L68.95 9.3 68.7 9.65 68.75 9.55 Q69.1 8.7 69.0 7.6 L68.85 8.05 68.9 7.3 68.15 7.1 67.7 7.3 66.85 7.5 63.0 7.6 61.3 7.6 60.4 7.65 51.7 7.85 51.7 7.55 51.5 7.2 50.0 7.15 48.55 7.25 48.35 7.6 48.2 7.9 45.35 8.1 45.35 8.45 45.7 8.5 46.2 8.6 46.75 8.7 47.4 8.7 48.7 8.75 48.55 8.2 48.65 7.8 48.85 7.5 49.95 7.45 51.05 7.45 51.2 7.6 51.25 7.9 51.05 8.6 Q51.15 8.5 51.3 8.45 L51.65 8.2 55.7 8.05 59.6 7.95 Q60.55 8.5 61.6 8.3 L62.45 7.95 65.35 7.85 65.95 7.95 66.45 8.05 67.65 8.4 67.45 9.45 67.05 10.2 Q67.7 10.0 67.9 9.0 L67.95 8.05 68.85 8.05 68.75 9.05 68.65 9.75 68.35 10.2 67.9 10.75 67.4 11.2 Q67.25 11.4 67.4 11.6 L67.8 12.0 68.85 12.2 69.8 12.2 70.05 12.1 70.2 11.95 70.15 11.5 70.2 11.25 70.05 7.15 69.9 6.95 70.0 9.3 M66.25 12.3 L66.65 12.45 67.1 12.3 67.25 11.9 67.1 11.55 66.65 11.4 Q66.45 11.4 66.25 11.55 66.1 11.7 66.1 11.9 L66.25 12.3 M64.6 15.6 L67.0 15.65 67.1 15.45 64.65 15.45 64.6 14.9 64.45 14.4 64.6 14.25 64.75 13.55 Q64.75 13.15 64.3 12.9 L63.8 12.75 Q62.85 13.25 63.15 13.9 L63.65 14.45 63.75 14.4 63.75 14.75 63.85 15.55 64.15 16.15 Q64.25 16.25 64.35 16.05 L64.6 15.6 M80.3 12.9 L80.35 12.55 81.0 12.5 81.15 12.95 80.3 12.9 M31.7 7.05 L31.5 7.55 31.4 8.15 31.35 8.15 31.3 9.4 32.5 9.45 32.55 8.15 32.6 7.8 32.8 6.95 32.95 6.6 31.8 6.65 31.7 7.0 31.7 7.05 M28.3 10.8 L28.45 11.9 Q28.7 13.05 29.0 13.25 L30.4 13.25 29.95 12.65 Q29.5 11.8 29.35 10.8 L28.3 10.8 M19.7 9.15 L19.95 9.35 21.1 9.3 21.95 9.2 21.9 9.0 21.7 8.85 19.85 8.95 19.7 9.1 19.7 9.15 19.45 8.95 Q19.1 9.1 19.0 10.0 L18.95 10.9 18.75 11.9 17.8 11.8 17.75 12.0 19.45 12.15 19.6 11.45 Q19.05 10.55 19.3 9.75 L19.55 9.3 19.7 9.15 M19.2 5.8 L19.0 5.8 18.95 6.35 18.9 7.3 Q18.9 7.65 19.15 7.8 L19.35 7.85 22.1 7.8 22.35 7.55 22.5 7.25 21.55 5.8 20.5 4.4 20.1 4.45 Q19.85 4.55 19.85 4.65 L19.75 5.7 19.35 5.8 19.2 5.8 19.7 5.65 19.85 4.4 19.15 4.35 18.4 4.35 18.1 5.6 18.1 7.5 18.1 9.1 18.25 9.05 18.75 5.8 19.2 5.8 M23.55 10.8 L23.55 10.9 23.55 10.7 23.55 10.8 M25.55 12.0 Q25.85 13.2 26.25 13.35 L27.4 13.35 26.85 12.3 Q26.35 11.2 26.45 10.9 L25.35 10.85 25.55 12.0 M42.0 11.6 L42.1 12.05 42.3 12.9 42.0 11.8 42.0 11.6 M58.85 2.6 L58.8 2.6 58.2 2.65 58.85 2.6 M46.95 4.1 L47.5 4.5 48.05 5.15 59.85 4.8 Q59.7 5.4 59.95 5.75 L47.9 6.0 Q48.2 5.55 47.9 5.05 L47.65 4.65 47.45 4.5 47.1 5.15 46.85 5.75 46.6 5.75 45.85 6.35 46.0 6.45 46.4 6.65 Q47.1 6.85 47.65 6.3 L60.35 6.1 60.7 6.25 60.9 5.4 Q60.75 5.05 60.9 4.85 L61.1 4.8 61.35 3.8 61.05 3.75 61.1 3.75 61.05 2.85 Q60.8 2.0 59.55 2.05 L48.0 2.45 47.2 2.55 Q46.5 2.9 46.6 4.1 L46.95 4.1 M60.9 3.25 L60.5 2.75 60.45 2.7 Q60.85 2.85 60.9 3.25 M62.25 5.65 L62.3 5.5 Q62.5 4.9 62.05 4.3 L61.6 3.8 61.35 4.8 61.35 5.35 61.2 5.4 60.85 6.35 61.5 6.25 62.0 6.0 65.2 6.1 65.2 5.9 65.55 5.65 64.55 5.65 64.6 4.65 64.4 4.6 64.3 5.75 62.25 5.65 M45.8 4.65 Q45.4 5.1 45.45 5.7 L45.6 6.2 46.4 5.65 Q46.3 5.4 46.55 5.25 L46.85 5.15 47.3 4.45 46.75 4.25 Q46.2 4.1 45.8 4.65 M45.65 12.65 L45.95 12.75 46.25 12.65 46.35 12.35 46.25 12.05 45.95 11.9 45.65 12.05 45.55 12.35 45.65 12.65 M47.6 19.05 L47.6 20.6 46.2 31.1 47.3 31.5 48.05 27.9 Q48.8 23.4 48.95 19.05 L47.55 18.7 47.6 19.05 M52.2 14.35 L53.7 14.4 53.5 14.45 Q52.85 14.9 52.45 14.65 L52.25 14.45 52.2 14.35 M54.1 14.5 L53.85 14.5 53.8 19.05 54.1 19.1 54.1 14.5 M49.65 19.1 L49.25 19.05 Q49.4 22.1 48.55 27.15 L47.65 31.55 48.25 31.8 Q49.1 28.35 49.45 23.4 L49.65 20.3 49.65 19.1 M63.7 11.75 L63.75 11.9 63.85 11.95 64.0 11.9 64.05 11.75 64.0 11.6 63.85 11.55 63.75 11.6 63.7 11.75 M56.7 11.75 L56.45 11.8 56.25 11.85 56.35 12.4 56.55 12.4 56.9 12.25 56.9 11.95 56.7 11.75 M57.6 13.35 L57.7 13.6 57.95 13.7 58.25 13.6 58.35 13.35 58.25 13.05 57.95 12.95 Q57.8 12.95 57.7 13.05 L57.6 13.35 M59.1 15.8 L59.35 15.8 59.55 15.75 59.5 15.8 59.1 15.8 M60.35 14.3 L60.25 14.5 60.35 14.7 60.55 14.8 60.75 14.7 60.85 14.5 60.75 14.3 60.55 14.25 60.35 14.3 M61.1 16.05 L61.15 16.15 61.45 17.05 Q61.65 18.45 60.55 19.1 L60.25 19.1 60.5 18.55 60.6 17.5 60.6 17.25 60.6 17.95 60.25 19.1 Q61.6 18.6 61.45 17.15 L61.15 16.2 61.1 16.05 M60.25 19.1 Q61.35 18.2 60.85 16.85 L60.6 16.3 Q61.25 17.3 60.95 18.2 L60.25 19.1 M3.7 12.15 L1.2 12.15 0.4 11.8 Q-0.35 11.1 0.4 9.65 L4.5 9.5 4.25 9.6 4.1 9.75 3.8 10.3 Q3.5 11.2 4.25 12.15 L4.0 12.15 Q3.3 11.45 3.45 10.5 L3.6 9.9 3.7 9.7 3.4 9.65 Q3.0 10.85 3.3 11.6 L3.7 12.15" fill="#2c333a" fill-rule="evenodd" stroke="none"/>
    <path d="M61.4 0.35 L61.5 0.4 61.5 1.2 62.3 2.3 62.9 2.3 62.9 0.5 63.05 0.45 63.1 2.3 66.4 2.25 66.5 2.35 66.6 2.4 66.65 2.45 66.25 2.55 64.4 2.6 62.35 2.65 61.7 1.95 61.2 1.15 61.2 0.4 61.2 0.35 61.4 0.35 M62.25 5.65 L64.3 5.75 64.4 4.6 64.6 4.65 64.55 5.65 65.55 5.65 65.2 5.9 65.2 6.1 62.0 6.0 61.9 6.0 62.25 5.65 M60.35 6.1 L47.65 6.3 47.85 6.0 47.9 6.0 59.95 5.75 60.0 5.75 60.5 6.1 60.35 6.1" fill="#0d1418" fill-rule="evenodd" stroke="none"/>
    <path d="M66.45 3.8 L66.45 4.25 63.35 4.25 63.4 3.8 63.7 3.8 64.4 3.8 65.65 3.8 66.45 3.8 M65.65 3.4 L64.75 3.4 63.45 3.45 63.35 3.15 65.05 3.0 66.45 3.05 66.4 3.5 65.75 3.4 65.65 3.35 65.65 3.4" fill="#505655" fill-rule="evenodd" stroke="none"/>
    <path d="M63.7 3.8 L63.65 3.5 64.4 3.45 64.4 3.8 63.7 3.8 M65.65 3.8 L65.65 3.4 65.65 3.35 65.75 3.4 66.4 3.5 66.45 3.8 65.65 3.8 M58.85 2.6 L58.2 2.65 48.3 2.9 Q47.35 2.8 47.05 3.45 L46.95 3.9 46.95 4.1 46.6 4.1 Q46.5 2.9 47.2 2.55 L48.0 2.45 59.55 2.05 Q60.8 2.0 61.05 2.85 L61.1 3.75 61.05 3.75 60.95 3.8 60.9 3.25 Q60.85 2.85 60.45 2.7 L59.8 2.6 58.85 2.6" fill="#0b0d0e" fill-rule="evenodd" stroke="none"/>
    <path d="M72.9 7.0 L83.0 6.8 87.1 6.8 87.5 6.85 88.15 6.9 88.25 6.7 88.05 6.55 92.95 6.6 93.4 6.65 Q93.85 9.2 93.55 14.3 L93.15 18.9 92.85 18.9 92.8 12.95 92.2 12.85 92.3 12.3 93.05 12.25 93.0 10.95 86.9 11.0 86.6 12.1 86.45 11.5 86.35 10.9 80.2 11.1 79.85 12.25 79.75 11.05 73.2 11.05 73.2 8.95 81.7 9.15 Q82.1 9.15 83.4 9.85 L92.85 9.85 93.05 9.75 93.2 9.4 93.15 8.35 92.9 7.35 Q92.7 7.25 73.2 7.45 L72.9 7.0 M77.65 15.35 L77.55 15.05 77.55 14.9 77.65 14.3 77.9 13.25 79.0 12.95 79.9 12.9 79.95 12.9 80.3 12.9 81.15 12.95 81.6 12.95 81.65 12.95 83.3 13.05 85.55 14.45 87.7 15.85 87.5 15.9 85.35 14.55 83.05 13.2 81.15 13.15 78.6 13.2 Q78.0 13.3 77.8 14.2 L77.8 15.05 77.8 15.3 77.65 15.35" fill="#0c0f10" fill-rule="evenodd" stroke="none"/>
    <path d="M72.2 7.3 L72.4 7.45 72.5 7.35 72.7 7.4 72.8 7.3 72.95 7.25 72.9 9.15 72.85 11.05 72.55 10.8 72.4 10.9 72.2 7.3" fill="#1f2124" fill-rule="evenodd" stroke="none"/>
    <path d="M70.95 12.6 L70.8 13.4 69.2 13.8 69.0 13.9 69.0 13.95 68.95 13.95 68.35 14.35 Q67.9 14.85 67.75 15.55 L67.8 16.7 68.05 17.45 69.8 20.0 69.85 20.05 70.25 20.65 71.6 22.55 71.5 22.45 70.8 21.95 69.3 20.15 67.55 17.8 Q67.1 17.05 67.1 16.1 67.05 15.1 67.45 13.95 67.75 12.95 69.4 12.7 L70.95 12.6 M55.9 19.8 L55.5 19.8 55.2 19.35 55.1 17.85 55.1 16.05 Q55.1 15.65 55.35 15.4 55.65 15.15 56.0 15.1 56.35 15.1 56.65 14.7 L56.95 14.1 57.05 10.7 56.8 10.15 56.5 10.1 56.3 9.8 56.05 9.6 67.3 9.4 66.75 10.05 66.15 10.45 57.25 10.75 57.25 11.9 57.2 13.95 Q57.2 14.7 56.85 15.1 56.6 15.45 56.25 15.4 L55.7 15.55 55.45 15.7 55.55 15.85 56.15 15.8 56.6 15.9 56.25 16.15 55.85 16.2 55.45 16.3 Q55.35 16.3 55.4 17.7 L55.45 19.2 55.9 19.8 M70.8 6.9 L70.95 7.0 71.25 11.05 70.95 10.95 70.8 6.9 M70.0 9.3 L69.9 6.95 70.05 7.15 70.2 11.25 70.15 11.5 70.0 9.3" fill="#090f14" fill-rule="evenodd" stroke="none"/>
    <path d="M77.1 12.55 L72.75 12.4 72.6 11.05 73.2 11.15 73.15 12.3 92.45 12.2 92.3 12.3 81.5 12.5 81.6 12.95 81.15 12.95 81.0 12.5 80.35 12.55 80.3 12.9 79.95 12.9 79.95 12.55 77.1 12.55" fill="#08090a" fill-rule="evenodd" stroke="none"/>
    <path d="M68.65 9.75 L68.75 9.05 68.85 8.05 67.95 8.05 67.9 9.0 Q67.7 10.0 67.05 10.2 L67.45 9.45 67.65 8.4 66.45 8.05 65.95 7.95 65.35 7.85 62.45 7.95 61.6 8.3 Q60.55 8.5 59.6 7.95 L55.7 8.05 51.65 8.2 51.3 8.45 Q51.15 8.5 51.05 8.6 L51.25 7.9 51.2 7.6 51.05 7.45 49.95 7.45 48.85 7.5 48.65 7.8 48.55 8.2 48.7 8.75 47.4 8.7 46.75 8.7 46.2 8.6 45.7 8.5 45.35 8.45 45.35 8.1 48.2 7.9 48.35 7.6 48.55 7.25 50.0 7.15 51.5 7.2 51.7 7.55 51.7 7.85 60.4 7.65 61.3 7.6 63.0 7.6 66.85 7.5 67.7 7.3 68.15 7.1 68.9 7.3 68.85 8.05 69.0 7.6 Q69.1 8.7 68.75 9.55 L68.7 9.65 68.65 9.75" fill="#081014" fill-rule="evenodd" stroke="none"/>
    <path d="M68.7 9.65 L68.95 9.3 70.0 9.3 70.15 11.5 70.2 11.95 70.05 12.1 69.8 12.2 68.85 12.2 67.8 12.0 67.4 11.6 Q67.25 11.4 67.4 11.2 L67.9 10.75 68.35 10.2 68.65 9.75 68.7 9.65" fill="#15191c" fill-rule="evenodd" stroke="none"/>
    <path d="M66.25 12.3 L66.1 11.9 Q66.1 11.7 66.25 11.55 66.45 11.4 66.65 11.4 L67.1 11.55 67.25 11.9 67.1 12.3 66.65 12.45 66.25 12.3 M45.65 12.65 L45.55 12.35 45.65 12.05 45.95 11.9 46.25 12.05 46.35 12.35 46.25 12.65 45.95 12.75 45.65 12.65 M63.7 11.75 L63.75 11.6 63.85 11.55 64.0 11.6 64.05 11.75 64.0 11.9 63.85 11.95 63.75 11.9 63.7 11.75 M57.6 13.35 L57.7 13.05 Q57.8 12.95 57.95 12.95 L58.25 13.05 58.35 13.35 58.25 13.6 57.95 13.7 57.7 13.6 57.6 13.35 M60.35 14.3 L60.55 14.25 60.75 14.3 60.85 14.5 60.75 14.7 60.55 14.8 60.35 14.7 60.25 14.5 60.35 14.3" fill="#4c555c" fill-rule="evenodd" stroke="none"/>
    <path d="M63.2 19.65 L63.2 19.7 62.8 19.85 62.9 19.8 62.9 16.0 61.75 16.0 61.8 16.05 61.35 15.9 61.25 15.85 61.0 15.8 60.15 15.75 59.55 15.75 59.35 15.8 59.1 15.8 57.65 15.9 56.95 16.05 56.65 16.2 56.5 16.25 56.6 15.9 Q56.65 15.65 57.35 15.55 L58.9 15.45 60.75 15.5 61.85 15.65 63.05 15.75 63.7 15.45 63.7 15.7 63.2 16.05 63.1 17.9 63.2 19.65 M61.95 19.8 L62.15 19.8 61.85 19.8 61.5 19.75 61.5 19.35 61.5 19.3 61.6 19.2 61.75 19.2 61.75 19.75 61.95 19.8 M64.65 15.45 L67.1 15.45 67.0 15.65 64.6 15.6 64.65 15.45" fill="#02070c" fill-rule="evenodd" stroke="none"/>
    <path d="M67.45 26.95 L66.8 25.3 66.5 24.7 65.75 23.4 65.5 23.2 65.5 23.15 65.5 22.6 Q65.35 22.0 64.55 21.9 L64.55 21.8 64.45 21.5 64.35 21.1 64.9 20.55 65.55 20.05 67.15 19.15 67.55 19.2 Q67.95 19.25 68.15 19.55 L72.1 25.2 72.3 25.7 Q72.35 26.25 71.75 26.45 L70.3 26.8 69.55 27.0 68.55 27.05 67.55 27.1 67.45 26.95" fill="#1e1f22" fill-rule="evenodd" stroke="none"/>
    <path d="M24.1 7.2 L24.15 7.15 24.2 7.15 25.7 7.15 25.35 7.7 25.1 8.25 23.75 8.2 23.9 7.65 24.1 7.2 M31.4 8.15 L31.7 7.05 31.7 7.0 32.8 6.95 32.6 7.8 32.55 8.15 31.35 8.15 31.4 8.15 M29.8 7.1 L29.75 7.15 29.7 7.3 29.65 7.65 29.55 8.15 29.5 8.15 28.4 8.15 28.75 7.1 29.8 7.1 M28.4 7.15 L28.45 7.15 28.15 8.05 28.1 8.15 27.0 8.15 27.15 7.6 27.3 7.15 28.4 7.15 M27.05 7.15 L26.75 7.6 26.7 7.7 26.6 8.05 26.6 8.1 26.55 8.15 25.5 8.25 25.5 8.2 25.55 7.95 25.75 7.55 26.0 7.1 27.05 7.15 M40.65 7.1 L40.75 6.8 40.75 6.75 42.0 6.75 41.95 7.85 41.95 8.15 40.5 8.15 40.6 7.45 40.65 7.1 M40.2 8.15 L40.25 7.75 40.2 8.15 M38.8 6.9 L38.7 7.55 38.65 8.15 37.35 8.1 37.55 7.45 37.7 6.85 38.8 6.9 M37.1 8.1 L35.9 8.15 36.25 6.9 37.4 6.8 37.25 7.4 37.25 7.45 37.15 8.1 37.1 8.1 M35.85 6.9 L35.9 6.9 35.7 7.55 35.6 8.15 34.4 8.1 34.75 7.0 35.85 6.9 M34.2 7.5 L34.15 7.95 34.1 8.05 34.1 8.1 32.85 8.1 33.15 7.0 34.3 6.9 34.2 7.5" fill="#292b2f" fill-rule="evenodd" stroke="none"/>
    <path d="M24.05 7.25 L24.1 7.2 23.9 7.65 23.75 8.2 25.1 8.25 25.35 7.7 25.7 7.15 24.2 7.15 24.3 7.0 25.8 6.95 25.95 6.9 25.95 6.95 25.45 7.55 Q25.0 8.45 24.95 9.6 L23.55 9.65 23.7 8.45 23.7 8.4 23.9 7.6 24.05 7.25 M26.15 6.9 L26.2 6.9 27.35 6.95 28.5 6.8 28.4 7.15 27.3 7.15 27.15 7.6 27.0 8.15 28.1 8.15 28.15 8.05 Q27.8 9.3 27.9 9.55 L26.65 9.55 26.9 8.3 Q27.1 7.05 27.35 6.95 27.15 7.0 27.05 7.15 L26.0 7.1 25.75 7.55 25.55 7.95 25.75 7.4 26.15 6.9 M29.6 6.75 L30.05 6.7 30.0 6.7 29.8 7.1 28.75 7.1 28.4 8.15 29.5 8.15 29.35 9.5 28.2 9.5 Q28.15 9.0 28.4 8.15 L28.5 7.8 28.85 6.85 29.6 6.75 M33.35 6.55 L34.6 6.5 34.2 7.5 34.3 6.9 33.15 7.0 32.85 8.1 34.1 8.1 34.1 8.05 33.95 9.45 32.75 9.4 Q32.7 8.2 33.0 7.25 L33.35 6.55 M34.85 6.5 L34.85 6.4 36.2 6.4 36.2 6.45 35.85 6.9 34.75 7.0 34.4 8.1 35.6 8.15 35.45 9.4 34.25 9.4 Q34.15 9.1 34.5 7.75 L34.85 6.5 M36.35 6.45 L36.35 6.4 36.95 6.4 37.75 6.4 Q37.45 6.45 37.25 7.4 L37.4 6.8 36.25 6.9 35.9 8.15 37.1 8.1 37.0 9.35 35.75 9.35 Q35.75 8.5 36.05 7.4 L36.35 6.45 M37.95 6.35 L38.15 6.35 39.1 6.35 Q38.9 6.4 38.75 7.85 L38.6 9.3 37.3 9.2 Q37.15 8.3 37.55 7.25 L37.7 6.85 37.95 6.35 M39.4 6.3 L40.65 6.2 40.65 6.25 40.4 6.8 39.15 6.85 39.05 7.5 38.95 8.15 40.2 8.15 40.1 9.2 38.9 9.2 Q38.85 8.2 39.05 7.15 L39.3 6.3 39.4 6.3 M40.9 6.2 L42.15 6.15 42.0 6.75 40.75 6.75 40.75 6.8 40.9 6.2 M31.4 8.15 L31.5 7.55 31.7 7.05 31.4 8.15 M31.7 7.0 L31.8 6.65 32.95 6.6 32.8 6.95 31.7 7.0 M32.6 7.8 L32.55 8.15 32.5 9.45 31.3 9.4 31.35 8.15 32.55 8.15 32.6 7.8 M26.6 8.1 L26.55 8.35 26.4 9.55 25.25 9.6 25.5 8.25 26.55 8.15 26.6 8.1 M41.9 9.15 L40.4 9.2 40.65 7.1 40.6 7.45 40.5 8.15 41.95 8.15 41.9 9.15 M38.8 6.9 L37.7 6.85 37.55 7.45 37.35 8.1 38.65 8.15 38.7 7.55 38.8 6.9" fill="#3b464f" fill-rule="evenodd" stroke="none"/>
    <path d="M42.95 13.1 L42.15 13.2 41.2 13.25 41.2 13.15 40.8 12.2 40.5 10.55 41.9 10.5 42.0 11.6 42.0 11.8 42.3 12.9 42.35 13.05 42.5 13.1 42.7 13.1 43.05 12.8 42.95 13.1 M40.9 13.15 L40.9 13.2 39.5 13.25 39.45 13.15 Q39.1 12.7 38.95 11.6 L38.9 10.5 40.2 10.6 Q40.1 11.1 40.5 12.2 L40.9 13.15 M39.4 13.15 L39.4 13.2 38.2 13.2 37.95 13.2 Q37.5 12.75 37.4 11.6 L37.4 10.55 38.5 10.55 39.05 12.5 39.4 13.15 M37.65 13.2 L36.3 13.25 36.3 13.2 36.05 12.6 Q35.75 11.75 35.75 10.55 L36.0 10.55 36.5 10.55 37.0 10.55 37.05 11.65 Q37.2 12.8 37.65 13.2 M35.7 13.2 L34.85 13.25 34.5 12.25 Q34.2 11.15 34.3 10.6 L35.45 10.6 35.6 11.85 Q35.8 13.1 36.05 13.2 L35.7 13.2 M33.3 13.25 L32.1 13.25 Q31.65 13.05 31.45 11.85 L31.3 10.7 31.85 10.65 32.35 10.65 Q32.5 11.75 32.9 12.6 L33.3 13.25 M31.8 13.25 L31.2 13.3 30.6 13.25 Q30.15 13.05 29.9 11.85 L29.7 10.75 30.85 10.7 30.85 10.8 Q30.9 11.75 31.35 12.6 L31.8 13.25 M28.9 13.35 L28.95 13.35 27.65 13.35 Q27.25 13.15 27.0 11.95 L26.85 10.8 27.9 10.8 Q27.85 11.4 28.4 12.45 L28.9 13.35 M26.0 13.35 L25.95 13.35 24.2 13.35 24.15 13.35 24.15 13.3 23.8 12.1 23.55 11.0 23.55 10.9 23.55 10.8 25.0 10.8 25.25 11.9 Q25.6 13.1 26.0 13.35 M28.3 10.8 L29.35 10.8 Q29.5 11.8 29.95 12.65 L30.4 13.25 29.0 13.25 Q28.7 13.05 28.45 11.9 L28.3 10.8 M25.55 12.0 L25.35 10.85 26.45 10.9 Q26.35 11.2 26.85 12.3 L27.4 13.35 26.25 13.35 Q25.85 13.2 25.55 12.0 M32.85 10.65 L32.95 10.65 33.8 10.65 34.05 11.7 Q34.25 12.8 34.6 13.25 L33.4 13.25 33.05 12.3 Q32.7 11.3 32.85 10.65" fill="#151618" fill-rule="evenodd" stroke="none"/>
    <path d="M31.85 10.65 L31.3 10.7 25.0 10.8 23.55 10.8 23.55 10.7 23.55 10.5 23.55 10.45 23.55 10.25 41.9 9.85 41.9 10.35 36.5 10.55 36.0 10.55 35.75 10.55 35.45 10.6 34.3 10.6 32.95 10.65 32.85 10.65 32.75 10.65 31.85 10.65" fill="#3b4348" fill-rule="evenodd" stroke="none"/>
    <path d="M23.7 8.45 L23.6 9.1 23.55 10.45 23.55 10.5 23.55 10.7 23.55 10.9 23.55 11.0 23.95 13.15 23.35 12.7 23.2 10.65 Q23.15 8.45 23.6 7.75 L23.95 7.4 23.9 7.6 23.7 8.4 23.7 8.45" fill="#090a0b" fill-rule="evenodd" stroke="none"/>
    <path d="M42.15 6.15 L42.75 6.6 42.75 6.65 42.4 7.65 Q42.05 8.95 42.2 10.2 L42.3 10.5 42.3 10.55 42.3 10.8 42.45 11.35 Q42.7 12.55 43.05 12.8 L42.7 13.1 42.5 13.1 42.35 13.05 42.3 12.9 42.1 12.05 42.0 11.6 41.9 10.5 41.9 10.35 41.9 9.85 41.9 9.5 41.9 9.15 41.95 8.15 41.95 7.85 42.0 6.75 42.15 6.15" fill="#121411" fill-rule="evenodd" stroke="none"/>
    <path d="M42.85 6.7 L45.05 6.15 44.9 6.5 44.6 7.7 Q44.3 9.8 45.2 12.85 L43.05 12.8 42.35 10.9 42.3 10.8 42.3 10.55 42.3 10.5 Q41.95 8.45 42.85 6.7" fill="#344249" fill-rule="evenodd" stroke="none"/>
    <path d="M59.85 4.8 Q60.05 4.05 60.7 3.85 L60.95 3.8 61.05 3.75 61.35 3.8 61.1 4.8 60.9 4.85 Q60.75 5.05 60.9 5.4 L60.7 6.25 60.35 6.1 60.5 6.1 60.0 5.75 59.95 5.75 Q59.7 5.4 59.85 4.8 M62.0 6.0 L61.5 6.25 60.85 6.35 61.2 5.4 61.35 5.35 61.35 4.8 61.6 3.8 62.05 4.3 Q62.5 4.9 62.3 5.5 L62.25 5.65 61.9 6.0 62.0 6.0 M47.65 6.3 Q47.1 6.85 46.4 6.65 L46.0 6.45 45.85 6.35 46.6 5.75 46.85 5.75 47.1 5.15 47.45 4.5 47.65 4.65 47.9 5.05 Q48.2 5.55 47.9 6.0 L47.85 6.0 47.65 6.3 M45.8 4.65 Q46.2 4.1 46.75 4.25 L47.3 4.45 46.85 5.15 46.55 5.25 Q46.3 5.4 46.4 5.65 L45.6 6.2 45.45 5.7 Q45.4 5.1 45.8 4.65" fill="#546973" fill-rule="evenodd" stroke="none"/>
    <path d="M51.55 11.3 L51.6 11.3 53.75 11.25 53.85 11.25 55.6 11.25 55.55 11.45 53.9 11.45 53.75 11.45 51.7 11.5 51.55 11.5 46.85 11.5 46.8 11.3 46.85 11.3 51.55 11.3" fill="#2e353a" fill-rule="evenodd" stroke="none"/>
    <path d="M51.6 11.3 L51.55 11.3 51.55 11.15 51.6 11.3 M51.55 11.5 L51.7 11.5 51.8 18.9 51.6 18.8 51.55 11.5 M53.75 11.45 L53.9 11.45 54.05 13.65 53.85 13.65 53.75 11.45 M53.85 11.25 L53.75 11.25 53.75 11.1 53.85 11.25 M54.1 14.5 L54.1 19.1 53.8 19.05 53.85 14.5 54.1 14.5" fill="#242a2e" fill-rule="evenodd" stroke="none"/>
    <path d="M46.85 11.3 L46.8 11.3 46.85 11.5 46.55 11.5 46.5 10.9 45.4 10.9 45.35 11.6 45.05 11.55 44.9 9.7 55.6 9.55 55.2 10.1 46.75 10.3 46.85 11.3" fill="#0f151a" fill-rule="evenodd" stroke="none"/>
    <path d="M55.35 20.05 Q55.15 24.9 54.35 29.45 L53.55 33.0 52.65 32.95 Q53.7 29.75 54.1 24.5 L54.3 21.25 54.3 19.95 55.35 20.05 M51.85 33.0 L51.8 33.0 51.7 33.0 50.7 32.55 51.75 26.65 Q52.75 20.5 52.25 19.55 L53.8 19.85 53.8 21.0 53.7 24.05 Q53.4 29.05 52.2 32.95 L51.85 33.0 M49.8 32.35 L48.35 31.95 48.4 31.9 49.35 27.55 Q50.25 22.5 49.95 19.25 L51.9 19.5 51.9 20.55 51.7 23.35 Q51.25 28.1 50.2 32.45 L49.8 32.35 M47.6 19.05 L47.55 18.7 48.95 19.05 Q48.8 23.4 48.05 27.9 L47.3 31.5 46.2 31.1 47.6 20.6 47.6 19.05 M49.65 19.1 L49.65 20.3 49.45 23.4 Q49.1 28.35 48.25 31.8 L47.65 31.55 48.55 27.15 Q49.4 22.1 49.25 19.05 L49.65 19.1" fill="#516678" fill-rule="evenodd" stroke="none"/>
    <path d="M54.05 13.65 L56.45 13.6 Q56.9 13.7 56.75 14.05 56.55 14.45 56.2 14.45 L53.7 14.4 52.2 14.35 52.0 14.3 52.05 14.35 51.9 14.25 Q51.75 14.05 51.95 13.75 L52.15 13.75 53.85 13.65 54.05 13.65" fill="#3c444c" fill-rule="evenodd" stroke="none"/>
    <path d="M52.15 13.75 L51.95 13.75 52.05 13.4 52.6 12.95 52.9 13.0 53.4 13.6 53.15 13.35 Q52.9 13.1 52.65 13.15 52.4 13.15 52.25 13.45 L52.15 13.75 M52.05 14.35 L52.0 14.3 52.2 14.35 52.25 14.45 52.45 14.65 Q52.85 14.9 53.5 14.45 L53.7 14.4 53.4 14.75 Q53.0 15.1 52.6 15.05 L52.1 14.65 52.05 14.35" fill="#161d21" fill-rule="evenodd" stroke="none"/>
    <path d="M55.2 10.1 L55.8 9.55 56.5 10.1 56.55 10.2 56.55 10.55 56.15 11.2 56.25 12.5 56.0 13.05 55.9 13.05 55.8 13.1 Q55.7 13.25 55.7 12.95 L55.7 12.45 55.7 11.7 55.65 11.1 55.2 10.1" fill="#242a2d" fill-rule="evenodd" stroke="none"/>
    <path d="M55.7 12.45 L55.3 12.45 55.1 12.25 55.05 11.85 Q55.05 11.7 55.2 11.65 L55.35 11.6 55.7 11.7 55.7 12.45 M56.7 11.75 L56.9 11.95 56.9 12.25 56.55 12.4 56.35 12.4 56.25 11.85 56.45 11.8 56.7 11.75" fill="#3c4346" fill-rule="evenodd" stroke="none"/>
    <path d="M59.5 15.8 L59.55 15.75 60.15 15.75 60.6 16.3 60.85 16.85 Q61.35 18.2 60.25 19.1 L60.6 17.95 60.6 17.25 60.55 17.15 60.55 17.1 Q60.3 16.3 59.5 15.8" fill="#2c2a27" fill-rule="evenodd" stroke="none"/>
    <path d="M64.6 15.6 L64.35 16.05 Q64.25 16.25 64.15 16.15 L63.85 15.55 63.75 14.75 63.75 14.4 63.65 14.45 63.15 13.9 Q62.85 13.25 63.8 12.75 L64.3 12.9 Q64.75 13.15 64.75 13.55 L64.6 14.25 64.45 14.4 64.6 14.9 64.65 15.45 64.6 15.6" fill="#3e4145" fill-rule="evenodd" stroke="none"/>
    <path d="M60.15 15.75 L61.0 15.8 61.1 16.05 61.15 16.2 61.45 17.15 Q61.6 18.6 60.25 19.1 L60.95 18.2 Q61.25 17.3 60.6 16.3 L60.15 15.75" fill="#3d3f40" fill-rule="evenodd" stroke="none"/>
    <path d="M19.7 9.15 L19.55 9.3 19.3 9.75 Q19.05 10.55 19.6 11.45 L19.45 12.15 17.75 12.0 17.8 11.8 18.75 11.9 18.95 10.9 19.0 10.0 Q19.1 9.1 19.45 8.95 L19.7 9.15 M19.2 5.8 L18.75 5.8 18.25 9.05 18.1 9.1 18.1 7.5 18.1 5.6 18.4 4.35 19.15 4.35 19.85 4.4 19.7 5.65 19.2 5.8" fill="#0d1012" fill-rule="evenodd" stroke="none"/>
    <path d="M5.55 12.0 L5.2 12.1 Q4.4 11.25 4.75 10.3 L5.05 9.75 5.25 9.55 5.65 9.65 Q4.95 10.2 5.15 11.15 L5.55 12.0" fill="#97a19b" fill-rule="evenodd" stroke="none"/>
    <path d="M11.75 11.55 L11.35 11.6 11.05 10.85 Q10.8 10.0 11.5 9.5 L11.9 9.7 11.35 10.1 Q11.0 10.7 11.75 11.55 M4.0 12.15 L3.7 12.15 3.3 11.6 Q3.0 10.85 3.4 9.65 L3.7 9.7 3.6 9.9 3.45 10.5 Q3.3 11.45 4.0 12.15" fill="#212426" fill-rule="evenodd" stroke="none"/>
    <path d="M14.15 11.5 L14.15 11.55 13.65 11.45 13.45 11.4 Q13.2 11.25 13.2 10.5 L13.2 9.8 13.8 9.55 14.35 9.35 14.1 9.5 Q13.8 9.85 13.9 10.6 L14.15 11.5" fill="#222628" fill-rule="evenodd" stroke="none"/>
  </g>
</svg>
