<?xml version="1.0" encoding="UTF-8" standalone="no"?>
<svg xmlns:xlink="http://www.w3.org/1999/xlink" height="63.8px" width="72.2px" xmlns="http://www.w3.org/2000/svg">
  <g transform="matrix(1.0, 0.0, 0.0, 1.0, 0.0, 0.0)">
    <path d="M62.5 0.0 L62.5 17.1 59.7 23.75 Q63.2 25.3 66.1 28.2 72.2 34.3 72.2 42.95 72.2 51.6 66.1 57.7 60.0 63.8 51.35 63.8 42.7 63.8 36.6 57.7 34.45 55.55 33.05 53.05 L27.15 56.1 Q24.2 57.45 20.0 58.6 L0.0 58.6 0.0 0.0 62.5 0.0 M31.2 48.45 Q30.5 45.85 30.5 42.95 30.5 34.3 36.6 28.2 42.7 22.1 51.35 22.1 L54.4 22.3 56.8 22.8 59.5 16.55 59.5 2.55 3.0 2.55 3.0 56.1 20.05 56.1 Q26.35 53.75 31.85 50.5 L31.2 48.45 M58.45 26.25 L56.1 25.5 55.5 25.35 51.4 24.9 Q43.95 24.9 38.65 30.15 33.4 35.45 33.4 42.9 33.4 46.05 34.35 48.8 L34.4 48.9 Q34.8 50.2 35.5 51.45 L35.55 51.55 Q36.75 53.7 38.65 55.6 43.95 60.9 51.4 60.9 58.85 60.9 64.1 55.6 69.4 50.35 69.4 42.9 69.4 35.45 64.1 30.15 61.75 27.8 59.0 26.5 L58.45 26.25" fill="#000000" fill-rule="evenodd" stroke="none"/>
    <path d="M54.4 22.3 L51.35 22.1 Q42.7 22.1 36.6 28.2 30.5 34.3 30.5 42.95 30.5 45.85 31.2 48.45 L19.9 53.3 13.75 53.3 9.75 49.3 9.75 15.55 Q10.05 7.85 18.25 7.05 L55.3 7.05 57.55 12.8 Q57.45 19.0 54.4 22.3 M52.8 29.05 Q58.9 29.05 63.2 33.35 67.55 37.7 67.55 43.8 67.55 49.9 63.2 54.2 58.9 58.55 52.8 58.55 46.7 58.55 42.35 54.2 38.05 49.9 38.05 43.8 38.05 37.7 42.35 33.35 46.7 29.05 52.8 29.05" fill="#ffffff" fill-rule="evenodd" stroke="none"/>
    <path d="M31.2 48.45 L31.85 50.5 Q26.35 53.75 20.05 56.1 L3.0 56.1 3.0 2.55 59.5 2.55 59.5 16.55 56.8 22.8 54.4 22.3 Q57.45 19.0 57.55 12.8 L55.3 7.05 18.25 7.05 Q10.05 7.85 9.75 15.55 L9.75 49.3 13.75 53.3 19.9 53.3 31.2 48.45" fill="#eeeeee" fill-rule="evenodd" stroke="none"/>
    <path d="M52.8 29.05 Q46.7 29.05 42.35 33.35 38.05 37.7 38.05 43.8 38.05 49.9 42.35 54.2 46.7 58.55 52.8 58.55 58.9 58.55 63.2 54.2 67.55 49.9 67.55 43.8 67.55 37.7 63.2 33.35 58.9 29.05 52.8 29.05 M58.45 26.25 L59.0 26.5 Q61.75 27.8 64.1 30.15 69.4 35.45 69.4 42.9 69.4 50.35 64.1 55.6 58.85 60.9 51.4 60.9 43.95 60.9 38.65 55.6 36.75 53.7 35.55 51.55 L35.5 51.45 Q34.8 50.2 34.4 48.9 L34.35 48.8 Q33.4 46.05 33.4 42.9 33.4 35.45 38.65 30.15 43.95 24.9 51.4 24.9 L55.5 25.35 56.1 25.5 58.45 26.25" fill="#c8c8c8" fill-rule="evenodd" stroke="none"/>
  </g>
</svg>
