<?xml version="1.0" encoding="UTF-8" standalone="no"?>
<svg xmlns:xlink="http://www.w3.org/1999/xlink" height="102.9px" width="242.25px" xmlns="http://www.w3.org/2000/svg">
  <g transform="matrix(1.0, 0.0, 0.0, 1.0, 7.3, 21.9)">
    <path d="M232.95 13.0 L232.95 68.0 221.95 79.0 11.0 79.0 2.0 70.0 2.0 2.0 221.95 2.0 232.95 13.0 M223.95 0.0 L234.95 0.0 234.95 11.0 223.95 0.0 M234.95 81.0 L223.95 81.0 234.95 70.0 234.95 81.0 M9.0 81.0 L0.0 81.0 0.0 72.0 9.0 81.0" fill="#000000" fill-opacity="0.7019608" fill-rule="evenodd" stroke="none"/>
    <path d="M-3.4 -14.6 Q-4.8 -14.6 -5.8 -15.6 -6.8 -16.6 -6.8 -18.0 -6.8 -19.4 -5.8 -20.4 -4.95 -21.25 -3.8 -21.35 L-3.4 -21.4 Q-2.0 -21.4 -1.0 -20.4 0.0 -19.4 0.0 -18.0 0.0 -16.6 -1.0 -15.6 -2.0 -14.6 -3.4 -14.6 M-3.4 5.65 Q-2.0 5.65 -1.0 6.65 0.0 7.65 0.0 9.05 0.0 10.45 -1.0 11.45 -2.0 12.45 -3.4 12.45 -4.8 12.45 -5.8 11.45 -6.8 10.45 -6.8 9.05 -6.8 7.65 -5.8 6.65 -4.95 5.8 -3.8 5.7 L-3.4 5.65" fill="#cccccc" fill-rule="evenodd" stroke="none"/>
    <path d="M-3.4 -14.6 Q-4.8 -14.6 -5.8 -15.6 -6.8 -16.6 -6.8 -18.0 -6.8 -19.4 -5.8 -20.4 -4.95 -21.25 -3.8 -21.35 L-3.4 -21.4 Q-2.0 -21.4 -1.0 -20.4 0.0 -19.4 0.0 -18.0 0.0 -16.6 -1.0 -15.6 -2.0 -14.6 -3.4 -14.6 L-3.4 5.65 Q-2.0 5.65 -1.0 6.65 0.0 7.65 0.0 9.05 0.0 10.45 -1.0 11.45 -2.0 12.45 -3.4 12.45 -4.8 12.45 -5.8 11.45 -6.8 10.45 -6.8 9.05 -6.8 7.65 -5.8 6.65 -4.95 5.8 -3.8 5.7 L-3.4 5.65" fill="none" stroke="#000000" stroke-linecap="round" stroke-linejoin="round" stroke-width="1.0"/>
  </g>
</svg>
