<?xml version="1.0" encoding="UTF-8" standalone="no"?>
<svg xmlns:xlink="http://www.w3.org/1999/xlink" height="34.45px" width="183.5px" xmlns="http://www.w3.org/2000/svg">
  <g transform="matrix(1.0, 0.0, 0.0, 1.0, 90.25, 17.2)">
    <path d="M-67.55 -17.2 Q-66.5 -17.4 -62.9 -15.55 -58.75 -13.45 -55.35 -12.9 -52.3 -11.9 -50.05 -8.95 -47.35 -5.45 -46.95 -0.3 L-48.75 6.1 -49.95 7.0 -51.05 6.8 -53.0 6.15 Q-54.1 5.6 -54.9 4.45 L-55.9 3.15 -59.6 6.5 -54.5 7.0 -52.3 8.05 -53.7 9.8 -56.95 10.45 -58.0 11.5 -57.6 11.45 -56.25 11.65 Q-55.45 11.8 -54.55 12.2 -52.8 13.2 -53.05 14.75 -53.35 16.25 -55.2 16.5 L-55.85 16.7 -57.3 16.7 -61.65 16.95 -67.75 17.05 -69.95 13.85 Q-71.75 15.6 -76.45 16.55 L-84.65 17.25 -88.45 17.15 -90.1 16.9 -90.25 15.45 Q-90.2 14.6 -89.5 14.05 L-85.7 12.95 Q-83.55 12.1 -82.1 11.25 -81.3 10.55 -80.65 9.65 L-79.55 7.9 -80.6 3.0 Q-81.2 0.35 -80.5 -0.4 L-77.75 -0.5 Q-76.2 -0.25 -74.75 0.35 L-75.8 -5.45 Q-76.45 -8.75 -75.9 -9.5 L-72.65 -9.2 -67.65 -7.85 -68.15 -12.7 Q-68.3 -15.35 -67.55 -17.2" fill="url(#gradient0)" fill-rule="evenodd" stroke="none"/>
    <path d="M-21.85 -5.6 Q-21.15 -4.7 -20.85 -3.4 -20.55 -2.2 -20.65 -0.6 -20.8 0.95 -22.05 2.05 -23.35 3.15 -25.65 3.65 -24.75 3.85 -23.95 4.35 L-22.25 5.7 Q-21.45 6.55 -21.05 7.65 -20.75 8.8 -20.85 10.05 -20.95 11.25 -21.5 12.25 -22.1 13.2 -23.0 13.65 -23.9 14.15 -25.25 14.45 L-28.2 14.85 -32.15 14.75 -37.2 14.2 -36.6 -7.4 -33.35 -8.2 -30.5 -8.5 -27.9 -8.45 -25.5 -8.0 -23.4 -7.15 -21.85 -5.6 M-27.65 -2.6 L-28.3 -3.1 -29.0 -3.35 -29.8 -3.45 -30.6 -3.2 -31.5 -2.8 -31.5 0.55 -30.2 0.55 -29.15 0.45 -28.3 0.2 -27.6 -0.4 -27.15 -1.1 -27.2 -1.9 -27.65 -2.6 M-29.75 10.3 L-28.9 10.2 -28.05 9.9 -27.4 9.35 -27.3 8.5 -27.5 7.65 -27.95 6.85 -28.6 6.4 Q-28.9 6.2 -29.45 6.15 L-30.5 6.15 -31.5 6.3 -31.6 9.95 -30.6 10.2 -29.75 10.3" fill="url(#gradient1)" fill-rule="evenodd" stroke="none"/>
    <path d="M-5.8 -1.5 L-6.0 14.5 -10.75 14.55 -10.75 12.4 Q-11.15 13.5 -12.4 14.05 L-15.8 14.35 Q-18.0 14.15 -19.1 13.0 -20.3 11.75 -20.4 9.5 L-20.65 -1.65 -15.95 -1.7 -15.8 3.45 Q-15.8 6.4 -15.3 7.7 -14.85 9.05 -13.65 9.05 -12.6 9.1 -12.0 8.4 -11.35 7.75 -11.2 6.3 L-10.9 2.9 -10.85 -1.7 -5.8 -1.5" fill="url(#gradient2)" fill-rule="evenodd" stroke="none"/>
    <path d="M6.25 -1.15 Q7.85 -0.25 8.7 1.05 9.6 2.35 9.8 4.1 9.95 5.7 9.7 7.35 L8.65 10.55 Q7.9 12.05 6.9 12.95 5.85 13.85 4.55 14.15 L2.3 14.45 0.85 14.15 -0.1 13.35 -0.75 12.2 -1.05 14.55 -5.95 14.5 -5.15 -9.3 0.0 -9.25 -0.15 -1.3 Q1.45 -2.15 3.1 -2.15 4.75 -2.1 6.25 -1.15 M1.85 8.5 L2.95 8.45 3.85 7.8 4.4 6.8 4.6 5.4 Q4.6 4.65 4.25 4.05 L3.2 3.1 Q2.55 2.7 1.75 2.8 0.9 2.95 0.0 3.45 L-0.3 5.7 0.05 7.2 0.8 8.05 1.85 8.5" fill="url(#gradient3)" fill-rule="evenodd" stroke="none"/>
    <path d="M21.9 -1.15 Q23.55 -0.2 24.4 1.05 25.3 2.4 25.45 4.1 25.6 5.7 25.35 7.35 L24.3 10.55 Q23.55 12.05 22.55 12.95 21.5 13.85 20.25 14.15 L17.95 14.45 16.5 14.15 15.55 13.35 14.95 12.2 14.6 14.55 9.7 14.5 10.5 -9.3 15.65 -9.25 15.55 -1.3 Q17.1 -2.15 18.75 -2.15 20.4 -2.1 21.9 -1.15 M17.5 8.5 L18.6 8.45 19.5 7.8 20.1 6.8 20.3 5.4 Q20.3 4.65 19.9 4.05 L18.85 3.1 Q18.2 2.7 17.4 2.8 16.55 2.95 15.65 3.45 L15.4 5.7 Q15.4 6.55 15.7 7.2 L16.5 8.05 17.5 8.5" fill="url(#gradient4)" fill-rule="evenodd" stroke="none"/>
    <path d="M25.6 14.4 L25.5 7.95 25.4 3.2 25.35 -1.75 25.45 -8.8 30.35 -8.85 30.55 3.7 30.35 14.3 25.6 14.4" fill="url(#gradient5)" fill-rule="evenodd" stroke="none"/>
    <path d="M46.2 7.6 L35.85 8.25 Q36.4 9.15 37.05 9.5 37.8 10.0 38.65 10.05 L40.4 9.7 Q41.4 9.25 42.3 8.4 L45.8 11.4 43.45 13.45 41.15 14.45 38.9 14.7 36.65 14.35 34.75 13.6 33.35 12.75 32.2 11.55 31.25 9.95 30.65 7.95 Q30.5 6.9 30.5 5.45 30.55 3.9 31.0 2.85 31.4 1.65 32.25 0.7 33.2 -0.45 34.2 -1.0 35.2 -1.65 36.4 -1.9 L38.75 -2.15 40.9 -1.9 42.7 -1.15 44.15 0.0 45.1 1.45 45.8 3.1 46.15 5.15 46.2 7.6 M40.3 3.25 Q39.85 2.75 38.95 2.6 L37.45 2.55 Q36.75 2.65 36.4 3.0 35.95 3.4 35.85 3.8 L35.5 4.85 41.05 4.85 Q40.9 3.9 40.3 3.25" fill="url(#gradient6)" fill-rule="evenodd" stroke="none"/>
    <path d="M62.7 -3.4 Q62.95 -2.15 62.85 -0.6 62.7 0.95 61.45 2.05 60.15 3.15 57.85 3.65 58.7 3.85 59.6 4.35 60.5 4.9 61.25 5.7 62.05 6.6 62.45 7.65 62.85 8.75 62.7 10.05 62.55 11.25 62.05 12.25 61.45 13.25 60.5 13.65 59.55 14.2 58.25 14.45 L55.3 14.85 51.35 14.75 46.3 14.2 46.9 -7.4 50.15 -8.2 53.0 -8.5 55.6 -8.45 58.0 -8.0 60.1 -7.15 61.7 -5.6 62.7 -3.4 M55.9 -2.6 Q55.6 -2.8 55.25 -3.1 L54.5 -3.35 53.7 -3.45 52.9 -3.2 52.0 -2.8 52.0 0.55 53.3 0.55 54.35 0.45 55.2 0.2 55.95 -0.4 56.4 -1.1 56.3 -1.9 55.9 -2.6 M54.1 6.15 L53.05 6.15 52.0 6.3 51.9 9.95 52.9 10.2 53.75 10.3 54.6 10.2 55.5 9.9 56.1 9.35 56.2 8.5 56.0 7.65 55.6 6.85 54.95 6.4 Q54.65 6.2 54.1 6.15" fill="url(#gradient7)" fill-rule="evenodd" stroke="none"/>
    <path d="M74.55 -0.8 L76.05 0.3 77.2 2.0 Q77.65 2.85 77.95 4.4 L78.2 7.0 77.85 9.35 76.95 11.4 75.55 12.9 73.9 13.95 72.15 14.45 70.3 14.55 68.25 14.3 Q67.1 14.05 66.3 13.6 L64.8 12.35 63.75 10.7 63.15 8.85 Q63.0 8.0 63.0 6.8 63.0 5.6 63.15 4.5 63.35 3.25 63.85 2.35 64.3 1.35 65.15 0.4 66.0 -0.6 66.95 -1.05 67.9 -1.6 68.95 -1.65 L71.05 -1.7 72.9 -1.45 74.55 -0.8 M72.85 4.9 L72.4 4.35 71.9 3.95 71.35 3.7 70.75 3.6 70.05 3.65 69.35 3.9 68.7 4.35 68.3 5.05 68.0 5.9 67.95 6.8 68.0 7.5 68.25 8.15 68.55 8.65 69.05 9.1 69.65 9.35 70.35 9.5 71.05 9.45 71.7 9.25 72.3 8.85 72.7 8.35 73.05 7.65 73.15 6.8 73.1 5.8 72.85 4.9" fill="url(#gradient8)" fill-rule="evenodd" stroke="none"/>
    <path d="M82.0 -2.0 L84.4 0.75 85.75 2.65 86.95 0.85 88.9 -1.75 93.25 -0.2 Q92.45 2.1 91.5 3.8 L89.5 6.6 91.45 9.3 93.15 12.55 89.2 15.15 87.1 12.7 86.3 11.7 85.65 10.9 84.05 12.7 81.8 15.05 78.0 12.45 79.9 8.95 Q80.95 7.35 81.95 6.4 80.85 5.4 80.0 3.8 79.05 2.05 78.3 -0.1 L82.0 -2.0" fill="url(#gradient9)" fill-rule="evenodd" stroke="none"/>
  </g>
  <defs>
    <linearGradient gradientTransform="matrix(0.0214, 0.0375, -0.0374, 0.0214, -67.3, -1.6)" gradientUnits="userSpaceOnUse" id="gradient0" spreadMethod="pad" x1="-819.2" x2="819.2">
      <stop offset="0.0" stop-color="#ffffff"/>
      <stop offset="1.0" stop-color="#ddff00"/>
    </linearGradient>
    <linearGradient gradientTransform="matrix(9.0E-4, 0.0281, -0.028, 9.0E-4, 28.6, 1.2)" gradientUnits="userSpaceOnUse" id="gradient1" spreadMethod="pad" x1="-819.2" x2="819.2">
      <stop offset="0.0" stop-color="#f1ecf7"/>
      <stop offset="1.0" stop-color="#ddff00"/>
    </linearGradient>
    <linearGradient gradientTransform="matrix(9.0E-4, 0.0281, -0.028, 9.0E-4, 28.65, 1.15)" gradientUnits="userSpaceOnUse" id="gradient2" spreadMethod="pad" x1="-819.2" x2="819.2">
      <stop offset="0.0" stop-color="#f1ecf7"/>
      <stop offset="1.0" stop-color="#ddff00"/>
    </linearGradient>
    <linearGradient gradientTransform="matrix(9.0E-4, 0.0281, -0.028, 9.0E-4, 28.6, 1.2)" gradientUnits="userSpaceOnUse" id="gradient3" spreadMethod="pad" x1="-819.2" x2="819.2">
      <stop offset="0.0" stop-color="#f1ecf7"/>
      <stop offset="1.0" stop-color="#ddff00"/>
    </linearGradient>
    <linearGradient gradientTransform="matrix(9.0E-4, 0.0281, -0.028, 9.0E-4, 28.65, 1.2)" gradientUnits="userSpaceOnUse" id="gradient4" spreadMethod="pad" x1="-819.2" x2="819.2">
      <stop offset="0.0" stop-color="#f1ecf7"/>
      <stop offset="1.0" stop-color="#ddff00"/>
    </linearGradient>
    <linearGradient gradientTransform="matrix(9.0E-4, 0.0281, -0.028, 9.0E-4, 28.6, 1.15)" gradientUnits="userSpaceOnUse" id="gradient5" spreadMethod="pad" x1="-819.2" x2="819.2">
      <stop offset="0.0" stop-color="#f1ecf7"/>
      <stop offset="1.0" stop-color="#ddff00"/>
    </linearGradient>
    <linearGradient gradientTransform="matrix(9.0E-4, 0.0281, -0.028, 9.0E-4, 28.6, 1.2)" gradientUnits="userSpaceOnUse" id="gradient6" spreadMethod="pad" x1="-819.2" x2="819.2">
      <stop offset="0.0" stop-color="#f1ecf7"/>
      <stop offset="1.0" stop-color="#ddff00"/>
    </linearGradient>
    <linearGradient gradientTransform="matrix(9.0E-4, 0.0281, -0.028, 9.0E-4, 28.6, 1.2)" gradientUnits="userSpaceOnUse" id="gradient7" spreadMethod="pad" x1="-819.2" x2="819.2">
      <stop offset="0.0" stop-color="#f1ecf7"/>
      <stop offset="1.0" stop-color="#ddff00"/>
    </linearGradient>
    <linearGradient gradientTransform="matrix(9.0E-4, 0.0281, -0.028, 9.0E-4, 28.65, 1.2)" gradientUnits="userSpaceOnUse" id="gradient8" spreadMethod="pad" x1="-819.2" x2="819.2">
      <stop offset="0.0" stop-color="#f1ecf7"/>
      <stop offset="1.0" stop-color="#ddff00"/>
    </linearGradient>
    <linearGradient gradientTransform="matrix(9.0E-4, 0.0281, -0.028, 9.0E-4, 28.65, 1.25)" gradientUnits="userSpaceOnUse" id="gradient9" spreadMethod="pad" x1="-819.2" x2="819.2">
      <stop offset="0.0" stop-color="#f1ecf7"/>
      <stop offset="1.0" stop-color="#ddff00"/>
    </linearGradient>
  </defs>
</svg>
