<?xml version="1.0" encoding="UTF-8" standalone="no"?>
<svg xmlns:xlink="http://www.w3.org/1999/xlink" height="51.55px" width="67.5px" xmlns="http://www.w3.org/2000/svg">
  <g transform="matrix(1.0, 0.0, 0.0, 1.0, 33.75, 25.8)">
    <use height="208.55" transform="matrix(0.1971, 0.0, 0.0, 0.1971, -26.9194, -20.5541)" width="273.25" xlink:href="#sprite0"/>
  </g>
  <defs>
    <g id="sprite0" transform="matrix(1.0, 0.0, 0.0, 1.0, 136.6, 104.3)">
      <use height="208.55" transform="matrix(1.0, 0.0, 0.0, 1.0, -136.6, -104.3)" width="273.25" xlink:href="#shape0"/>
    </g>
    <g id="shape0" transform="matrix(1.0, 0.0, 0.0, 1.0, 136.6, 104.3)">
      <path d="M-82.15 -67.85 Q-77.4 -78.3 -68.5 -84.7 -23.9 -116.85 24.55 -96.2 48.5 -82.65 74.95 -76.1 120.8 -64.6 123.3 -21.0 123.9 -10.95 129.2 -2.75 148.3 26.65 118.45 41.15 115.65 42.6 114.75 44.3 106.45 60.65 92.5 73.1 51.7 109.6 -0.5 103.3 -19.85 101.05 -31.95 85.2 -36.5 86.15 -40.45 88.7 -70.35 107.8 -95.9 76.85 -109.05 60.95 -123.25 46.4 -148.45 20.65 -126.05 -2.2 -122.0 -6.35 -120.45 -11.4 -117.95 -19.35 -116.65 -28.25 -113.8 -48.0 -88.75 -47.9 -86.55 -58.2 -82.15 -67.85 M-101.0 -7.5 Q-100.7 -4.95 -103.6 -1.85 -122.35 18.55 -100.55 41.65 -87.75 55.2 -73.95 67.8 -50.6 89.25 -26.3 70.45 -4.9 93.15 26.85 86.85 74.65 77.6 92.75 38.0 94.7 33.8 99.05 31.65 122.9 19.9 106.15 -5.7 100.8 -13.85 99.45 -23.55 95.4 -53.05 64.95 -62.9 32.3 -73.3 0.15 -85.65 -53.7 -92.2 -71.9 -43.85 L-73.2 -39.4 Q-104.3 -37.35 -101.0 -7.5" fill="#ffffff" fill-opacity="0.24313726" fill-rule="evenodd" stroke="none"/>
      <path d="M-59.65 -32.1 L-58.5 -35.7 Q-42.6 -76.35 3.0 -69.6 32.15 -57.15 61.6 -45.9 67.4 -43.7 70.45 -38.95 85.9 -15.05 92.35 14.35 89.3 23.5 80.55 27.8 77.6 29.3 76.65 31.3 63.35 60.0 29.55 70.0 -0.65 78.85 -21.25 57.55 -44.9 73.55 -65.35 51.75 -71.2 45.55 -77.2 39.9 -104.55 14.25 -79.15 -7.2 -80.5 -15.3 -77.15 -21.85 -72.2 -31.5 -59.65 -32.1" fill="#ffffff" fill-opacity="0.57254905" fill-rule="evenodd" stroke="none"/>
      <path d="M-59.65 -32.1 Q-72.2 -31.5 -77.15 -21.85 -80.5 -15.3 -79.15 -7.2 -104.55 14.25 -77.2 39.9 -71.2 45.55 -65.35 51.75 -44.9 73.55 -21.25 57.55 -0.65 78.85 29.55 70.0 63.35 60.0 76.65 31.3 77.6 29.3 80.55 27.8 89.3 23.5 92.35 14.35 85.9 -15.05 70.45 -38.95 67.4 -43.7 61.6 -45.9 32.15 -57.15 3.0 -69.6 -42.6 -76.35 -58.5 -35.7 L-59.65 -32.1 M-101.0 -7.5 Q-104.3 -37.35 -73.2 -39.4 L-71.9 -43.85 Q-53.7 -92.2 0.15 -85.65 32.3 -73.3 64.95 -62.9 95.4 -53.05 99.45 -23.55 100.8 -13.85 106.15 -5.7 122.9 19.9 99.05 31.65 94.7 33.8 92.75 38.0 74.65 77.6 26.85 86.85 -4.9 93.15 -26.3 70.45 -50.6 89.25 -73.95 67.8 -87.75 55.2 -100.55 41.65 -122.35 18.55 -103.6 -1.85 -100.7 -4.95 -101.0 -7.5" fill="#ffffff" fill-opacity="0.4862745" fill-rule="evenodd" stroke="none"/>
    </g>
  </defs>
</svg>
