<?xml version="1.0" encoding="UTF-8" standalone="no"?>
<svg xmlns:xlink="http://www.w3.org/1999/xlink" height="13.95px" width="53.85px" xmlns="http://www.w3.org/2000/svg">
  <g transform="matrix(1.0, 0.0, 0.0, 1.0, 0.0, 1.3)">
    <use height="13.95" transform="matrix(1.0, 0.0, 0.0, 1.0, 0.0, -1.3)" width="53.85" xlink:href="#shape0"/>
  </g>
  <defs>
    <g id="shape0" transform="matrix(1.0, 0.0, 0.0, 1.0, 0.0, 1.3)">
      <path d="M3.3 12.15 Q0.0 10.2 0.0 8.8 0.0 7.7 2.5 5.25 L3.5 4.25 3.6 4.3 3.95 4.15 Q7.9 2.55 29.95 4.3 L34.95 4.25 35.1 4.25 35.1 4.2 35.55 4.05 Q35.9 4.0 36.05 3.75 36.35 3.45 36.75 3.4 37.25 3.3 37.5 3.0 L37.8 2.8 37.9 2.7 38.4 2.4 Q39.0 1.9 39.75 1.6 40.95 1.15 41.65 0.05 L42.15 -0.2 42.45 -0.25 43.9 -1.05 44.0 -1.15 44.05 -1.2 45.45 -1.25 45.35 -0.65 46.65 -0.4 Q47.05 0.0 47.55 -0.05 L48.75 0.3 50.2 0.9 51.65 1.5 53.45 2.55 Q54.05 3.1 53.75 3.7 53.45 4.3 51.7 4.65 L50.1 4.95 Q50.4 5.5 50.3 5.95 50.6 6.65 50.0 7.85 L49.2 8.8 48.55 9.25 48.35 10.4 Q47.95 11.1 46.15 11.75 L43.0 11.9 Q42.15 11.45 42.1 10.45 L42.15 9.7 40.85 8.85 40.8 8.85 39.45 9.1 38.7 9.35 38.25 9.5 37.8 9.65 37.0 10.05 37.1 10.4 37.05 10.4 36.7 10.3 36.2 10.15 35.85 10.05 Q6.5 12.9 3.8 12.0 L3.3 12.15" fill="#000000" fill-rule="evenodd" stroke="none"/>
      <path d="M37.05 10.4 Q7.8 13.3 5.0 12.4 L4.15 12.65 3.3 12.15 3.8 12.0 Q6.5 12.9 35.85 10.05 L36.2 10.15 36.7 10.3 37.05 10.4" fill="#1a1a1a" fill-rule="evenodd" stroke="none"/>
    </g>
  </defs>
</svg>
