<?xml version="1.0" encoding="UTF-8" standalone="no"?>
<svg xmlns:xlink="http://www.w3.org/1999/xlink" height="85.6px" width="529.15px" xmlns="http://www.w3.org/2000/svg">
  <g transform="matrix(1.0, 0.0, 0.0, 1.0, 264.55, 42.8)">
    <use height="85.6" transform="matrix(1.0, 0.0, 0.0, 1.0, -264.55, -42.8)" width="529.15" xlink:href="#shape0"/>
  </g>
  <defs>
    <g id="shape0" transform="matrix(1.0, 0.0, 0.0, 1.0, 264.55, 42.8)">
      <path d="M-250.55 14.7 L-264.55 1.7 -233.55 -9.35 -247.55 -25.35 -224.5 -36.35 Q-118.0 -53.1 -19.45 -26.35 L90.55 7.7 Q150.5 30.7 227.6 29.7 L264.6 42.7 Q222.65 43.35 186.3 40.55 L140.95 35.35 Q85.0 26.6 45.55 7.7 -114.8 -49.4 -216.55 -22.35 -202.65 -12.3 -216.55 4.7 L-250.55 14.7" fill="#c8c8c8" fill-rule="evenodd" stroke="none"/>
      <path d="M-200.55 -19.35 Q-193.1 -7.1 -200.55 5.15 L-216.55 4.7 Q-202.65 -12.3 -216.55 -22.35 L-200.55 -19.35" fill="#848484" fill-rule="evenodd" stroke="none"/>
      <path d="M140.95 35.35 Q65.95 26.1 45.55 15.65 -69.1 -41.7 -200.55 -19.35 L-216.55 -22.35 Q-114.8 -49.4 45.55 7.7 85.0 26.6 140.95 35.35 M-200.55 5.15 L-227.55 14.7 -250.55 14.7 -216.55 4.7 -200.55 5.15" fill="#595959" fill-rule="evenodd" stroke="none"/>
    </g>
  </defs>
</svg>
