<?xml version="1.0" encoding="UTF-8" standalone="no"?>
<svg xmlns:xlink="http://www.w3.org/1999/xlink" height="32.65px" width="48.0px" xmlns="http://www.w3.org/2000/svg">
  <g transform="matrix(1.0, 0.0, 0.0, 1.0, 12.65, 12.65)">
    <path d="M7.8 -4.5 L6.45 -2.75 4.3 -0.15 3.95 0.3 1.85 1.8 Q-2.45 4.45 -3.5 6.5 L-5.1 9.05 -6.2 10.1 -6.15 9.65 -6.3 9.5 -6.3 7.8 -6.25 7.85 -6.3 7.5 -6.8 7.7 -7.05 7.75 -7.1 7.85 -7.5 7.85 -7.6 7.65 -7.9 7.9 -7.9 8.1 -7.75 8.45 -8.0 8.8 -8.45 8.7 -8.55 8.5 -8.7 8.4 -8.85 8.2 -8.85 7.6 -9.05 7.55 -9.25 6.85 -7.8 5.3 -5.75 2.9 -1.3 -0.9 6.2 -3.8 7.8 -4.5 M18.1 -7.45 L18.15 -7.5 18.2 -7.45 18.3 -7.4 18.65 -7.2 18.75 -6.95 18.85 -6.75 19.05 -6.5 19.45 -5.5 19.5 -5.1 19.5 -4.85 19.45 -4.8 19.2 -4.45 19.1 -4.45 19.1 -4.3 18.75 -3.95 18.65 -3.95 18.7 -3.9 18.35 -3.65 Q17.5 -3.05 16.5 -2.65 L15.9 -2.5 15.5 -2.05 15.3 -1.55 15.15 -1.85 Q10.5 1.0 5.25 2.75 L4.65 3.0 3.35 3.55 11.5 2.8 17.05 2.3 17.75 2.35 17.65 2.2 18.85 2.3 18.95 2.1 22.35 2.4 23.7 2.7 23.9 2.5 23.95 2.5 24.05 2.55 24.1 2.65 24.35 2.9 24.45 3.15 24.45 3.4 24.55 3.65 24.65 4.75 24.6 5.15 24.55 5.45 24.45 5.45 24.15 5.7 24.05 5.7 24.0 5.85 23.6 6.05 23.45 6.05 23.5 6.1 23.15 6.2 21.05 6.7 20.4 6.75 19.9 7.05 19.6 7.45 19.55 7.1 Q14.3 8.55 8.8 8.85 L8.15 8.9 -3.05 10.2 4.85 0.8 Q9.7 -3.8 11.25 -5.7 L11.45 -5.8 12.15 -5.9 12.0 -6.05 13.15 -6.25 13.25 -6.5 16.6 -7.15 17.95 -7.25 18.1 -7.45 M29.9 19.9 L29.85 19.55 Q24.45 20.3 19.0 19.8 L18.4 19.75 6.6 19.4 6.0 19.45 5.75 19.35 5.7 19.45 5.35 19.35 5.25 19.05 4.9 19.2 4.85 19.35 4.8 19.75 4.45 20.0 4.1 19.75 4.05 19.45 4.0 19.3 3.9 19.1 4.15 18.5 4.0 18.35 4.2 16.7 4.3 16.7 4.1 14.45 4.15 14.4 4.25 14.25 4.25 14.15 4.35 13.95 4.35 13.75 4.3 13.6 4.15 13.45 4.25 13.25 4.2 12.85 4.35 12.7 5.0 12.7 5.2 13.45 6.3 13.45 6.4 13.35 22.55 14.2 28.1 14.45 28.8 14.6 28.7 14.5 29.85 14.75 29.95 14.55 Q31.75 14.75 33.35 15.3 L34.6 15.75 34.8 15.65 34.9 15.65 34.95 15.7 35.0 15.8 35.2 16.1 35.3 16.4 35.3 16.6 35.35 16.85 35.3 18.0 35.25 18.35 35.05 18.6 35.0 18.6 34.65 18.8 34.55 18.8 34.5 18.9 34.05 19.05 33.95 19.05 33.95 19.15 33.55 19.2 31.45 19.4 30.8 19.3 30.3 19.55 29.9 19.9 M-5.15 0.6 L-5.7 1.05 Q-8.7 3.75 -9.8 5.2 L-10.55 3.85 -10.5 3.8 -10.5 3.65 -10.55 3.55 -10.55 3.35 -10.65 3.1 -10.65 3.05 -10.85 2.95 -10.9 2.7 -11.1 2.35 -11.0 2.2 -10.45 1.9 -9.95 2.6 -8.9 2.1 -8.85 2.0 -5.15 0.6" fill="#000000" fill-opacity="0.3019608" fill-rule="evenodd" stroke="none"/>
    <path d="M11.15 -12.4 L11.3 -12.25 Q11.45 -12.2 11.55 -12.1 L12.35 -11.3 12.55 -11.0 12.65 -10.7 12.6 -10.65 12.5 -10.25 12.45 -10.2 12.5 -10.05 12.3 -9.65 12.2 -9.55 12.25 -9.5 12.05 -9.2 10.75 -7.5 10.25 -7.1 10.1 -6.55 10.1 -6.05 9.8 -6.25 Q6.65 -1.8 2.55 1.9 L2.1 2.35 -6.2 10.75 -6.6 11.25 -6.8 11.35 -6.8 11.45 -7.1 11.65 -7.35 11.5 -7.5 11.85 -7.45 12.0 -7.15 12.3 -7.25 12.7 -7.65 12.8 -7.9 12.65 -8.05 12.6 -8.25 12.5 -8.5 11.95 -8.7 11.95 -9.8 10.65 -9.75 10.6 -11.55 9.2 -11.55 9.1 -11.6 8.95 -11.65 8.9 -11.75 8.7 -11.9 8.55 -12.0 8.45 -12.2 8.45 -12.3 8.25 -12.65 8.0 -12.65 7.8 -12.2 7.35 -11.5 7.75 -10.75 6.9 -10.75 6.8 0.85 -4.5 4.85 -8.4 5.45 -8.8 5.3 -8.85 6.25 -9.5 6.2 -9.75 9.05 -11.7 10.25 -12.3 10.3 -12.55 10.35 -12.6 10.45 -12.6 10.55 -12.6 10.9 -12.55 11.15 -12.4" fill="#000000" fill-rule="evenodd" stroke="none"/>
  </g>
</svg>
