<?xml version="1.0" encoding="UTF-8" standalone="no"?>
<!DOCTYPE svg PUBLIC "-//W3C//DTD SVG 1.1//EN" "http://www.w3.org/Graphics/SVG/1.1/DTD/svg11.dtd">
<svg version="1.1" xmlns="http://www.w3.org/2000/svg" xmlns:xlink="http://www.w3.org/1999/xlink" preserveAspectRatio="xMidYMid meet" viewBox="0 0 640 640" width="640" height="640"><defs><path d="M405.25 4.5L405.03 7.31L404.72 10.09L404.33 12.84L403.86 15.57L403.3 18.27L402.66 20.94L401.94 23.58L401.15 26.18L400.28 28.75L399.33 31.28L398.31 33.78L397.21 36.24L396.05 38.66L394.81 41.04L393.51 43.38L392.14 45.67L390.7 47.92L389.2 50.12L387.64 52.27L386.01 54.37L384.32 56.43L382.58 58.43L380.77 60.38L378.91 62.28L377 64.11L375.03 65.9L373 67.62L370.93 69.28L368.81 70.89L366.63 72.43L364.41 73.9L362.15 75.32L359.84 76.66L357.49 77.94L355.09 79.15L352.66 80.28L350.18 81.35L347.67 82.34L346.93 82.62L346.2 82.88L345.45 83.15L344.71 83.4L343.96 83.65L343.21 83.89L342.46 84.13L341.7 84.36L340.94 84.58L340.18 84.8L339.41 85.01L338.64 85.21L337.87 85.41L337.1 85.6L336.32 85.78L335.55 85.96L334.77 86.12L333.98 86.29L333.2 86.44L332.41 86.59L331.62 86.73L330.82 86.87L330.03 87L329.23 87.12L328.43 87.23L327.63 87.34L326.82 87.44L326.02 87.53L325.21 87.61L324.4 87.69L323.58 87.76L322.77 87.83L321.95 87.88L321.13 87.93L320.31 87.97L320 87.99L320 82.74L323.07 82.55L326.45 82.21L329.8 81.73L333.1 81.12L336.36 80.39L339.57 79.53L342.72 78.54L345.82 77.44L348.87 76.22L351.85 74.89L354.77 73.45L357.63 71.89L360.42 70.24L363.14 68.47L365.78 66.61L368.35 64.65L370.84 62.6L373.25 60.45L375.57 58.21L377.81 55.89L379.96 53.48L382.01 50.99L383.97 48.42L385.84 45.78L387.6 43.06L389.26 40.27L390.81 37.41L392.25 34.49L393.59 31.51L394.81 28.46L395.91 25.36L396.89 22.2L397.75 19L398.49 15.74L399.09 12.44L399.57 9.09L399.91 5.7L400.12 2.28L400.14 1.59L405.39 1.59L405.38 1.67L405.25 4.5Z" id="afaSUr88c"></path></defs><g><g><g><use xlink:href="#afaSUr88c" opacity="1" fill="#ffffff" fill-opacity="1"></use></g></g></g></svg>