<?xml version="1.0" encoding="UTF-8" standalone="no"?>
<!DOCTYPE svg PUBLIC "-//W3C//DTD SVG 1.1//EN" "http://www.w3.org/Graphics/SVG/1.1/DTD/svg11.dtd">
<svg version="1.1" xmlns="http://www.w3.org/2000/svg" xmlns:xlink="http://www.w3.org/1999/xlink" preserveAspectRatio="xMidYMid meet" viewBox="0 0 640 640" width="640" height="640"><defs><path d="M104.83 5.92L104.57 10.19L104.14 14.42L103.54 18.6L102.78 22.73L101.87 26.79L100.79 30.8L99.56 34.74L98.19 38.61L96.67 42.42L95 46.14L93.2 49.79L91.26 53.36L89.19 56.84L86.99 60.24L84.66 63.54L82.21 66.75L79.65 69.86L76.97 72.86L74.17 75.77L71.27 78.56L68.26 81.24L65.15 83.81L61.95 86.26L58.64 88.58L55.25 90.78L51.77 92.85L48.2 94.79L44.55 96.6L40.82 98.26L37.02 99.78L33.15 101.16L29.21 102.39L25.2 103.46L21.13 104.38L17.01 105.14L12.83 105.73L8.6 106.16L4.32 106.42L0 106.51L0 94.9L3.84 94.82L7.65 94.59L11.41 94.21L15.13 93.68L18.79 93L22.41 92.19L25.97 91.23L29.48 90.14L32.92 88.92L36.3 87.56L39.62 86.08L42.86 84.48L46.04 82.75L49.13 80.91L52.15 78.96L55.09 76.89L57.94 74.71L60.71 72.43L63.38 70.04L65.96 67.56L68.45 64.98L70.83 62.3L73.12 59.54L75.29 56.68L77.36 53.75L79.32 50.73L81.16 47.63L82.88 44.46L84.49 41.21L85.97 37.9L87.32 34.52L88.55 31.07L89.64 27.57L90.59 24.01L91.41 20.39L92.08 16.72L92.61 13L93 9.24L93.23 5.44L93.31 1.59L104.92 1.59L104.83 5.92Z" id="gee6Jbfzg"></path></defs><g><g><g><use xlink:href="#gee6Jbfzg" opacity="1" fill="#000000" fill-opacity="1"></use></g></g></g></svg>