<?xml version="1.0" encoding="UTF-8" standalone="no"?>
<!DOCTYPE svg PUBLIC "-//W3C//DTD SVG 1.1//EN" "http://www.w3.org/Graphics/SVG/1.1/DTD/svg11.dtd">
<svg version="1.1" xmlns="http://www.w3.org/2000/svg" xmlns:xlink="http://www.w3.org/1999/xlink" preserveAspectRatio="xMidYMid meet" viewBox="0 0 640 640" width="640" height="640"><defs><path d="M200.71 12.68L200.33 16.38L199.81 20.03L199.15 23.63L198.35 27.18L197.41 30.68L196.34 34.13L195.13 37.51L193.8 40.83L192.35 44.09L190.77 47.28L189.08 50.39L187.27 53.44L185.35 56.4L183.32 59.29L181.18 62.09L178.94 64.81L176.59 67.44L174.15 69.97L171.62 72.41L168.99 74.76L166.27 77L163.47 79.14L160.58 81.17L157.62 83.09L154.57 84.9L151.46 86.59L148.27 88.17L145.01 89.62L141.69 90.95L138.31 92.16L134.86 93.23L131.36 94.17L127.81 94.97L124.21 95.63L120.55 96.15L116.86 96.53L113.12 96.76L109.35 96.83L109.35 86.69L112.7 86.62L116.03 86.42L119.31 86.08L122.56 85.62L125.77 85.03L128.93 84.32L132.04 83.48L135.1 82.53L138.11 81.46L141.06 80.28L143.96 78.98L146.8 77.58L149.57 76.08L152.27 74.47L154.91 72.76L157.48 70.95L159.97 69.05L162.39 67.05L164.72 64.97L166.98 62.8L169.15 60.54L171.23 58.21L173.23 55.79L175.13 53.3L176.94 50.73L178.65 48.1L180.26 45.39L181.76 42.62L183.16 39.78L184.46 36.89L185.64 33.93L186.71 30.92L187.66 27.86L188.5 24.75L189.21 21.59L189.8 18.38L190.26 15.14L190.6 11.85L190.8 8.52L190.87 5.17L201.01 5.17L200.94 8.94L200.71 12.68Z" id="aDZEIwPrg"></path></defs><g><g><g><use xlink:href="#aDZEIwPrg" opacity="1" fill="#000000" fill-opacity="1"></use></g></g></g></svg>