<?xml version="1.0" encoding="UTF-8" standalone="no"?>
<svg xmlns:xlink="http://www.w3.org/1999/xlink" height="59.45px" width="124.95px" xmlns="http://www.w3.org/2000/svg">
  <g transform="matrix(1.0, 0.0, 0.0, 1.0, 62.45, 29.7)">
    <use height="59.45" transform="matrix(1.0, 0.0, 0.0, 1.0, -62.45, -29.7)" width="124.95" xlink:href="#shape0"/>
  </g>
  <defs>
    <g id="shape0" transform="matrix(1.0, 0.0, 0.0, 1.0, 62.45, 29.7)">
      <path d="M-56.0 -29.7 L-24.45 -29.7 57.7 29.75 26.05 29.75 -56.0 -29.7 M15.95 -29.7 L22.7 -29.7 62.5 -0.4 62.5 4.7 15.95 -29.7" fill="#e6e6e6" fill-opacity="0.5019608" fill-rule="evenodd" stroke="none"/>
      <path d="M-56.0 -29.7 L26.05 29.75 -62.45 29.75 -62.45 -29.7 -56.0 -29.7 M57.7 29.75 L-24.45 -29.7 15.95 -29.7 62.5 4.7 62.5 29.75 57.7 29.75 M22.7 -29.7 L62.5 -29.7 62.5 -0.4 22.7 -29.7" fill="#999999" fill-opacity="0.5019608" fill-rule="evenodd" stroke="none"/>
    </g>
  </defs>
</svg>
