<?xml version="1.0" encoding="UTF-8" standalone="no"?>
<svg xmlns:xlink="http://www.w3.org/1999/xlink" height="59.45px" width="39.85px" xmlns="http://www.w3.org/2000/svg">
  <g transform="matrix(1.0, 0.0, 0.0, 1.0, 1.55, 0.7)">
    <use height="58.75" transform="matrix(1.0, 0.0, 0.0, 1.0, 0.0, 0.0)" width="37.4" xlink:href="#shape0"/>
    <use height="59.45" transform="matrix(1.0, 0.0, 0.0, 1.0, -1.55, -0.7)" width="39.85" xlink:href="#sprite0"/>
  </g>
  <defs>
    <g id="shape0" transform="matrix(1.0, 0.0, 0.0, 1.0, 0.0, 0.0)">
      <path d="M28.1 1.85 Q32.1 3.0 33.2 8.5 37.95 11.6 37.3 16.5 36.1 21.15 31.65 24.0 30.7 27.7 30.25 31.35 29.9 33.9 29.8 36.45 29.6 40.8 30.05 45.15 L33.75 58.2 34.2 58.75 3.85 58.75 4.8 55.95 Q6.2 51.0 6.0 44.4 5.7 34.0 2.6 22.5 L2.1 20.8 Q0.05 15.75 0.0 10.0 0.25 4.6 7.65 1.15 L10.4 0.0 20.8 0.0 28.1 1.85" fill="#99ff00" fill-opacity="0.0" fill-rule="evenodd" stroke="none"/>
    </g>
    <g id="sprite0" transform="matrix(1.0, 0.0, 0.0, 1.0, 0.8, -34.9)">
      <use height="58.95" transform="matrix(1.0, 0.0, 0.0, 1.0, -0.8, 34.95)" width="39.85" xlink:href="#shape1"/>
    </g>
    <g id="shape1" transform="matrix(1.0, 0.0, 0.0, 1.0, 0.8, -34.95)">
      <path d="M19.6 38.0 L18.2 36.2 10.45 36.65 18.3 37.0 19.6 38.0 M2.85 55.85 Q0.8 50.8 0.75 45.05 1.0 39.65 8.4 36.2 L11.4 34.95 21.35 34.95 21.35 35.0 28.85 36.9 Q32.85 38.05 33.95 43.55 L32.45 42.65 Q33.7 44.85 33.25 48.3 L32.6 48.95 Q31.0 50.3 28.2 51.3 L27.65 49.5 Q25.4 45.35 23.55 44.85 25.2 46.0 26.35 50.45 L25.2 51.05 21.8 50.05 21.2 49.9 20.7 49.8 Q15.25 48.65 10.35 50.05 L10.05 50.2 9.45 47.85 9.05 50.75 6.2 52.7 Q4.35 54.1 2.85 55.85 M32.4 59.05 Q31.5 62.55 31.05 66.0 L31.0 66.4 Q30.65 68.95 30.55 71.5 30.35 75.85 30.8 80.2 L33.2 88.5 33.7 90.7 34.15 91.85 34.1 91.85 34.5 93.25 35.0 93.9 4.55 93.9 4.85 93.15 5.3 92.25 5.25 92.25 5.3 92.1 5.35 91.9 5.4 91.9 5.55 91.1 5.7 90.7 5.8 90.1 5.8 90.05 Q6.95 85.45 6.75 79.45 6.45 69.05 3.35 57.55 5.15 55.9 6.2 55.8 L6.3 55.8 Q7.5 55.8 9.5 57.55 11.35 59.15 12.7 59.35 L12.85 59.5 13.15 59.75 Q16.85 60.9 20.75 59.75 L23.75 59.1 Q26.05 58.45 26.8 57.4 L27.15 58.4 Q27.35 59.1 28.5 59.6 L29.75 59.9 29.8 60.05 30.05 59.95 32.4 59.05 M21.45 36.2 L20.75 36.85 24.1 36.9 21.45 36.2" fill="#000000" fill-rule="evenodd" stroke="none"/>
      <path d="M33.95 43.55 Q38.7 46.65 38.05 51.55 36.85 56.2 32.4 59.05 L30.05 59.95 29.75 59.9 28.5 59.6 Q27.35 59.1 27.15 58.4 L26.8 57.4 Q26.05 58.45 23.75 59.1 L20.75 59.75 20.3 59.8 20.1 59.85 Q11.95 60.5 10.2 53.8 10.25 57.0 12.7 59.35 11.35 59.15 9.5 57.55 7.5 55.8 6.3 55.8 L6.2 55.8 Q5.15 55.9 3.35 57.55 L3.3 57.35 3.25 57.15 3.2 57.0 2.85 55.85 Q4.35 54.1 6.2 52.7 L9.05 50.75 10.05 50.2 10.35 50.05 Q15.25 48.65 20.7 49.8 L21.2 49.9 22.45 50.8 24.0 52.45 Q25.05 53.7 25.4 54.95 25.55 55.45 26.45 55.45 27.7 55.45 28.5 54.4 29.65 52.85 30.25 52.45 L32.0 50.7 32.6 48.95 33.25 48.3 Q33.7 44.85 32.45 42.65 L33.95 43.55" fill="#9d9d9d" fill-opacity="0.93333334" fill-rule="evenodd" stroke="none"/>
      <path d="M19.6 38.0 L18.3 37.0 10.45 36.65 18.2 36.2 19.6 38.0 M9.05 50.75 L9.45 47.85 10.05 50.2 9.05 50.75 M25.2 51.05 L26.35 50.45 Q25.2 46.0 23.55 44.85 25.4 45.35 27.65 49.5 L28.2 51.3 27.1 51.65 25.2 51.05 M21.45 36.2 L24.1 36.9 20.75 36.85 21.45 36.2" fill="#1a1a1a" fill-rule="evenodd" stroke="none"/>
      <path d="M21.2 49.9 L21.8 50.05 25.2 51.05 27.1 51.65 28.2 51.3 Q31.0 50.3 32.6 48.95 L32.0 50.7 30.25 52.45 Q29.65 52.85 28.5 54.4 27.7 55.45 26.45 55.45 25.55 55.45 25.4 54.95 25.05 53.7 24.0 52.45 L22.45 50.8 21.2 49.9" fill="#666666" fill-rule="evenodd" stroke="none"/>
      <path d="M29.75 59.9 L30.05 59.95 29.8 60.05 29.75 59.9" fill="#cc0000" fill-rule="evenodd" stroke="none"/>
      <path d="M12.7 59.35 Q10.25 57.0 10.2 53.8 11.95 60.5 20.1 59.85 L20.3 59.8 20.75 59.75 Q16.85 60.9 13.15 59.75 L12.85 59.5 12.7 59.35" fill="#373737" fill-rule="evenodd" stroke="none"/>
      <path d="M17.5 37.0 L18.3 37.0 19.6 38.0 18.2 36.2 16.25 36.3 15.4 35.85 15.15 35.75 14.5 35.4 13.7 35.05 21.4 35.05 21.35 35.15 21.35 35.2 21.2 35.25 21.35 35.4 21.6 36.25 21.45 36.2 20.75 36.85 21.9 36.9 22.25 37.65 Q22.45 37.85 22.2 37.95 L19.9 38.25 17.5 37.0 M0.9 47.7 L0.75 45.05 Q1.0 39.8 8.05 36.4 L8.6 36.5 9.0 36.5 9.4 36.6 10.35 36.9 12.0 38.2 Q14.45 40.35 14.45 42.15 14.45 43.5 13.7 44.75 L12.8 44.25 Q11.6 43.65 11.15 45.65 9.45 45.55 8.85 46.0 L8.25 46.0 Q6.7 46.1 6.65 47.25 L6.35 46.95 5.8 46.8 Q5.3 46.8 5.2 47.25 L5.15 48.0 5.2 48.35 Q2.55 46.45 0.9 47.7 M31.35 41.3 L27.2 38.75 24.7 37.25 24.65 37.15 24.25 36.4 23.8 35.65 28.85 36.9 Q31.8 37.75 33.15 40.95 L32.5 40.95 31.35 41.3 M16.95 38.45 L17.0 38.45 16.9 38.5 16.85 38.4 16.95 38.45 M14.9 42.7 L14.95 42.85 14.85 42.9 14.9 42.55 14.9 42.7 M12.95 45.75 L13.0 45.75 13.0 45.8 12.95 45.75 M23.75 35.6 L23.65 35.85 23.25 35.5 23.75 35.6 M5.95 90.4 L6.2 90.4 6.2 90.55 7.4 90.8 Q6.85 91.4 6.6 92.45 L6.35 93.75 6.3 93.9 4.75 93.9 4.4 93.9 4.1 93.9 3.85 93.85 4.5 92.6 5.3 90.65 Q5.6 90.45 5.95 90.4 M8.05 93.9 L8.05 93.6 8.15 93.15 8.6 92.05 8.95 91.15 10.8 91.75 13.75 92.5 13.05 93.9 8.05 93.9 M14.9 93.9 L15.1 92.7 17.35 93.0 21.8 93.0 20.9 93.45 Q20.55 93.65 20.35 93.9 L14.9 93.9 M22.1 92.9 L22.1 92.85 22.25 92.85 22.1 92.9 M26.5 92.8 L28.15 92.8 29.85 92.2 30.2 92.85 30.55 93.4 30.9 93.9 28.65 93.9 28.05 93.45 Q27.35 93.0 26.5 92.8 M32.6 93.9 L32.4 93.55 31.45 91.65 Q33.0 91.1 33.25 90.7 L33.7 90.35 33.85 90.3 34.0 90.35 34.9 92.45 35.8 93.9 32.6 93.9" fill="#000000" fill-rule="evenodd" stroke="none"/>
      <path d="M16.25 36.3 L18.2 36.2 19.6 38.0 18.3 37.0 17.5 37.0 16.25 36.3 M21.9 36.9 L20.75 36.85 21.45 36.2 21.6 36.25 21.9 36.9" fill="#1a1a1a" fill-rule="evenodd" stroke="none"/>
      <path d="M35.8 43.95 Q39.05 46.15 39.05 51.6 39.05 53.5 36.65 56.15 L32.9 60.45 Q31.7 62.25 31.75 64.9 L31.85 69.45 31.75 69.5 31.85 69.6 30.55 70.45 29.8 70.6 29.3 70.75 28.45 71.0 28.25 71.15 27.85 71.15 20.7 71.75 Q14.75 71.75 10.6 70.65 L9.0 70.15 8.0 70.1 5.75 68.75 Q5.4 68.5 5.3 68.05 L5.05 67.05 5.2 67.05 4.9 65.4 4.3 62.45 2.25 56.0 2.6 56.0 2.6 56.15 3.8 56.15 4.7 55.55 6.35 55.25 7.05 55.4 Q7.65 55.45 8.05 55.05 8.2 54.8 8.45 54.8 L8.6 54.45 8.85 54.1 9.1 53.15 9.65 52.8 9.85 52.4 10.1 52.4 10.85 52.2 11.85 52.4 12.45 52.05 13.35 52.1 Q13.8 52.1 14.25 51.7 L14.45 51.5 14.7 51.7 16.15 52.15 Q17.15 52.15 17.15 51.4 L17.1 51.2 17.3 50.85 17.45 51.05 Q17.2 50.95 17.2 51.25 L17.85 51.8 18.05 52.1 19.3 52.35 19.8 52.05 19.8 52.0 Q20.1 52.4 20.85 52.4 L21.9 51.95 22.05 51.75 23.25 51.75 23.45 51.6 Q23.85 51.65 24.15 52.05 24.5 52.55 25.75 52.55 26.7 52.55 27.7 51.0 L27.6 50.75 Q27.8 50.4 27.95 50.4 L28.35 50.5 29.1 50.6 28.5 50.65 28.0 50.7 28.35 51.05 29.3 51.4 Q30.0 51.4 30.0 51.0 L30.15 50.5 30.7 50.55 Q30.55 50.85 31.05 50.85 L31.9 50.2 32.15 49.5 32.25 49.45 32.35 49.45 32.35 49.6 33.0 49.65 33.6 49.75 Q34.3 49.75 34.35 49.4 L34.3 48.9 34.55 47.9 34.05 46.6 34.45 46.6 Q35.15 46.6 35.2 46.05 L35.1 45.3 36.25 45.05 36.35 44.7 Q36.05 44.1 35.8 44.05 L35.8 43.95 M2.2 55.95 L2.1 55.65 2.2 55.65 2.2 55.95 M17.45 47.95 L17.45 47.9 17.55 47.9 17.45 47.95 M34.5 44.4 L35.0 44.45 34.75 44.55 34.55 44.65 34.5 44.6 34.5 44.4 M34.2 45.8 L34.0 46.0 34.0 46.15 33.85 46.2 33.65 45.9 34.2 45.8 M33.45 45.9 L33.4 46.15 33.65 47.0 33.85 47.9 33.3 46.05 33.25 45.9 33.45 45.9 M31.55 49.2 L31.55 49.25 31.55 49.35 31.45 49.4 31.55 49.2 M30.3 50.1 L30.1 50.2 29.75 50.25 29.9 50.1 30.3 50.1 M31.65 47.8 L31.7 47.7 31.7 47.8 31.65 47.8 M30.4 48.9 L30.4 48.95 30.3 48.95 30.4 48.9 M33.15 58.05 L34.1 57.8 34.15 57.5 Q34.15 56.85 32.65 56.55 31.1 56.2 31.1 57.05 31.1 58.05 33.15 58.05 M23.5 51.05 L23.75 50.85 23.8 50.8 23.95 51.2 23.65 51.15 23.6 51.2 23.5 51.05 M22.5 51.15 L22.2 51.25 22.0 51.15 22.5 51.15 M21.95 51.15 L21.55 51.3 21.3 51.35 21.4 51.3 21.8 50.85 21.85 51.15 21.95 51.15 M20.45 51.45 L20.25 51.45 20.0 51.35 20.45 51.45 M19.85 51.15 L19.75 51.15 19.55 51.0 19.25 51.35 19.1 51.85 18.8 51.75 18.85 51.7 19.6 50.6 19.8 51.1 19.85 51.15 M27.4 58.75 Q29.0 56.9 29.0 55.95 L28.85 55.25 Q28.3 55.35 28.05 56.15 L27.35 57.45 Q27.05 58.1 25.75 58.7 23.25 59.85 18.2 59.85 L16.5 59.5 15.2 59.1 Q15.0 59.1 14.95 59.2 L14.95 59.25 14.9 59.7 Q14.9 61.1 22.9 61.1 25.4 61.1 27.4 58.75 M16.6 51.4 L15.45 51.65 14.8 51.15 14.6 51.05 14.55 50.6 14.5 50.6 14.6 50.45 14.65 50.45 14.8 50.85 Q15.1 51.45 16.0 51.45 L16.6 51.4 M13.65 51.3 L13.2 51.55 12.55 51.7 12.55 51.45 12.55 51.4 13.0 51.45 13.65 51.3 M12.15 51.2 L12.1 51.3 12.1 51.15 12.15 51.2 M11.4 51.7 L11.15 51.75 10.85 51.7 10.85 51.65 11.4 51.7 M10.75 51.65 L10.65 51.65 10.4 51.8 9.9 51.95 9.85 51.95 9.85 51.9 Q10.3 51.85 10.55 51.6 L10.6 51.6 10.75 51.65 M8.6 52.6 L8.65 52.25 Q8.8 51.8 9.2 51.85 L9.2 51.9 9.05 51.9 8.95 51.9 Q8.8 51.9 8.8 52.15 L8.9 52.3 8.9 52.4 8.9 52.45 8.65 52.25 8.6 53.0 8.6 52.7 8.6 52.6 M7.9 54.05 L8.25 53.85 8.2 53.9 8.1 53.95 7.9 54.05 M8.55 53.55 L8.6 53.15 8.6 53.4 8.55 53.6 8.55 53.55 M6.15 54.45 L6.05 54.6 5.95 54.65 5.95 54.55 5.2 54.55 4.8 54.6 6.15 54.45 M5.95 90.4 L5.85 90.05 5.9 89.75 6.05 89.75 6.0 89.55 6.05 89.0 7.35 89.35 7.45 89.25 Q9.75 90.15 14.7 90.8 L20.4 91.25 Q26.65 91.25 30.85 90.0 L32.35 89.6 32.9 89.15 Q33.55 88.95 33.55 89.7 L33.55 89.9 33.6 89.85 33.7 90.2 33.7 90.35 33.25 90.7 Q33.0 91.1 31.45 91.65 L32.4 93.55 32.6 93.9 30.9 93.9 30.55 93.4 30.2 92.85 29.85 92.2 28.15 92.8 26.5 92.8 22.4 92.8 22.25 92.8 22.25 92.75 22.1 92.8 22.1 92.85 22.1 92.9 22.05 93.0 21.8 93.0 17.35 93.0 15.1 92.7 14.9 93.9 13.05 93.9 13.75 92.5 10.8 91.75 8.95 91.15 8.6 92.05 8.15 93.15 8.05 93.6 8.05 93.9 6.3 93.9 6.35 93.75 6.6 92.45 Q6.85 91.4 7.4 90.8 L6.2 90.55 6.2 90.4 5.95 90.4" fill="#a90101" fill-rule="evenodd" stroke="none"/>
      <path d="M13.7 44.75 L14.6 45.3 14.8 45.1 Q15.0 44.85 15.65 44.85 16.75 44.85 17.15 45.7 L17.35 46.35 17.45 46.1 Q18.25 44.7 18.7 44.7 L18.9 44.9 19.1 45.15 Q20.55 43.35 22.2 43.45 23.05 43.5 23.45 43.95 L23.35 44.55 23.1 45.25 22.85 45.75 Q22.85 46.15 23.0 46.35 L23.35 46.0 23.45 46.35 25.75 46.35 26.0 46.3 25.9 45.95 25.85 45.45 24.95 45.45 24.55 44.75 Q24.2 44.35 23.7 44.25 L24.6 44.1 28.4 44.55 Q28.55 43.7 29.3 43.45 29.9 43.3 29.9 42.3 30.6 41.65 31.35 41.3 L32.5 40.95 33.15 40.95 33.3 40.95 Q33.45 40.4 34.35 40.05 35.5 39.65 35.65 41.4 L35.8 43.15 35.8 43.9 35.8 43.95 35.8 44.05 35.55 44.1 35.0 44.45 34.5 44.4 34.55 44.3 34.6 44.05 Q35.15 43.9 35.15 43.45 L35.1 43.2 35.35 43.2 Q35.2 42.8 35.2 42.0 L35.45 42.0 35.6 41.6 35.5 41.1 34.2 41.15 Q34.0 41.25 34.0 41.6 L34.05 41.85 33.85 41.85 33.8 42.15 Q34.45 42.2 34.45 42.65 L34.45 42.95 33.5 43.1 Q33.35 43.2 33.35 43.65 L33.4 43.95 33.2 44.45 33.85 44.9 34.05 44.8 34.3 45.3 34.2 45.8 33.65 45.9 33.45 45.9 33.25 45.9 33.3 46.05 33.85 47.9 33.85 47.95 33.85 48.15 Q33.75 48.55 32.75 48.7 32.45 48.75 32.45 48.9 L31.65 49.0 31.55 49.2 31.45 49.4 31.35 49.6 31.35 49.65 30.3 50.1 29.9 50.1 29.75 50.25 29.1 50.6 28.35 50.5 27.95 50.4 Q27.8 50.4 27.6 50.75 L27.45 50.75 26.95 51.05 26.9 51.45 25.4 51.65 23.95 51.2 23.8 50.8 23.75 50.85 23.5 51.05 22.5 51.15 22.0 51.15 21.95 51.15 21.85 51.15 21.8 50.85 21.4 51.3 21.3 51.35 20.45 51.45 20.0 51.35 20.0 51.25 19.85 51.15 19.8 51.1 19.6 50.6 18.85 51.7 18.8 51.75 17.8 51.2 17.45 51.05 17.3 50.85 17.1 51.2 16.95 51.15 16.6 51.4 16.0 51.45 Q15.1 51.45 14.8 50.85 L14.65 50.45 14.6 50.45 14.5 50.6 Q14.3 50.5 13.85 51.1 L13.65 51.3 13.0 51.45 12.55 51.4 Q12.55 50.85 12.15 51.2 L12.1 51.15 12.1 51.3 11.4 51.7 10.85 51.65 10.75 51.65 10.6 51.6 10.55 51.6 Q10.3 51.85 9.85 51.9 L9.5 51.0 9.5 50.3 9.45 49.7 8.8 49.2 8.75 50.2 8.75 50.3 8.2 50.15 8.15 50.1 8.1 50.15 8.0 50.15 8.0 50.6 8.05 50.9 7.65 50.7 5.3 50.1 5.3 50.85 6.85 51.5 7.25 51.65 7.55 52.25 8.35 53.6 8.4 53.6 8.3 53.8 8.25 53.85 7.9 54.05 Q7.6 54.25 7.4 54.4 L7.3 54.35 6.15 54.4 6.15 54.45 4.8 54.6 Q4.15 54.65 3.8 55.05 L3.55 55.35 3.45 55.5 2.2 55.55 2.2 55.65 2.1 55.65 0.85 55.6 0.35 55.8 Q-0.05 55.8 -0.4 54.4 L-0.65 52.95 -0.6 52.3 -0.8 51.15 -0.75 50.55 -0.35 51.05 -0.35 51.15 -0.3 51.35 -0.25 51.3 0.25 51.9 0.25 52.05 0.25 52.25 0.2 52.25 0.2 52.8 0.1 52.95 -0.2 52.85 -0.2 53.1 0.2 53.15 0.35 53.65 Q0.6 54.0 1.3 54.2 L1.25 54.2 1.25 54.3 1.5 54.25 2.6 54.3 Q2.95 54.3 2.65 54.15 L2.75 53.85 1.8 53.25 0.8 52.75 0.75 52.6 0.7 51.5 0.6 50.15 0.35 50.3 0.05 50.5 -0.15 50.1 -0.5 49.55 0.55 47.95 0.9 47.7 Q2.55 46.45 5.2 48.35 L5.15 48.0 5.2 47.25 Q5.3 46.8 5.8 46.8 L6.35 46.95 6.65 47.25 Q6.7 46.1 8.25 46.0 L8.85 46.0 Q9.45 45.55 11.15 45.65 11.6 43.65 12.8 44.25 L13.7 44.75 M7.0 47.25 L6.85 47.25 6.8 47.65 6.8 47.75 6.65 47.45 6.5 47.45 6.35 49.2 Q6.35 49.65 6.5 49.8 L6.55 49.8 Q6.9 49.15 7.2 49.05 L9.35 48.6 9.35 48.05 9.25 47.6 7.7 47.6 7.3 48.0 Q7.3 47.45 7.0 47.25 M1.4 49.35 L1.25 49.35 1.25 49.8 Q1.25 50.6 2.2 50.85 L2.35 50.6 Q2.55 50.25 2.1 49.9 L1.4 49.35 M1.9 48.6 Q1.9 49.1 2.6 49.05 3.5 49.05 3.95 49.95 4.45 49.55 4.45 49.15 4.45 48.6 4.05 48.4 L2.0 48.15 1.9 48.6 M12.95 45.75 L13.0 45.8 13.0 45.75 12.95 45.75 M15.95 48.15 L15.95 48.9 17.3 49.65 Q16.95 50.0 17.05 50.55 L17.65 50.45 17.8 49.9 17.45 48.85 Q16.95 48.0 15.95 48.15 M15.0 47.95 Q14.15 47.85 14.15 48.35 L14.2 48.8 15.55 48.95 15.7 49.2 15.8 49.05 15.85 48.6 Q15.85 48.1 15.0 47.95 M10.7 48.95 L10.7 49.4 11.1 49.95 12.55 50.3 Q12.95 50.3 12.65 50.25 L12.7 49.85 12.45 49.2 10.7 48.95 M10.45 47.75 L10.3 46.5 10.1 47.75 Q10.1 48.65 10.25 49.05 L10.3 49.05 10.45 47.75 M11.0 45.9 L10.85 45.9 10.85 46.8 10.85 47.35 Q10.95 47.9 11.6 47.9 L11.85 47.85 12.4 47.85 Q12.75 47.3 14.6 47.3 L14.6 46.9 14.5 46.4 12.95 46.75 Q12.15 47.0 11.85 47.2 L11.65 46.8 11.0 45.9 M15.1 45.6 L14.95 45.3 14.8 45.3 14.75 46.0 14.95 46.8 15.1 46.55 15.1 45.6 M17.45 47.95 L17.55 47.9 17.45 47.9 17.45 47.95 M29.45 48.45 L29.3 48.0 Q28.85 48.2 28.85 49.05 L29.05 49.8 29.2 49.65 29.45 48.45 M29.6 46.8 L29.6 47.3 Q29.6 47.7 30.15 48.0 L30.35 48.15 30.35 48.25 Q30.35 48.6 30.5 48.8 L30.6 48.95 30.5 49.1 30.35 49.55 30.4 49.95 30.65 49.95 30.85 49.5 30.95 49.5 31.1 48.8 30.95 48.25 30.9 47.65 29.75 46.8 29.6 46.8 M26.15 48.35 Q26.15 48.95 26.45 49.3 L27.05 49.95 27.2 49.8 27.2 48.95 26.8 48.45 26.15 48.35 M26.35 47.6 L26.45 47.7 Q27.95 47.8 28.05 48.05 L28.15 48.65 28.25 48.0 28.15 47.3 Q27.75 46.7 26.35 46.8 L26.35 47.6 M26.6 45.3 L26.5 45.7 Q26.5 46.05 26.8 46.15 L29.6 46.65 29.9 46.5 Q29.8 43.95 26.6 45.3 M24.5 49.05 L24.35 48.6 Q23.6 48.6 23.6 49.8 L23.8 50.55 23.95 50.4 24.5 49.05 M21.5 48.9 L22.2 48.15 22.85 47.25 22.75 46.8 Q21.1 47.75 21.1 48.9 L21.15 49.5 21.7 50.25 21.95 49.8 21.5 48.9 M23.6 45.55 L23.55 45.6 23.65 44.95 24.2 45.45 23.6 45.55 M31.75 43.1 L31.7 42.6 31.0 43.35 30.95 44.1 Q30.95 44.85 31.15 45.0 L31.3 44.85 31.75 43.1 M32.3 41.6 L32.3 42.45 33.2 42.5 33.35 42.1 33.25 41.6 32.3 41.6 M34.5 44.6 L34.4 44.55 34.5 44.4 34.5 44.6 M33.2 46.4 L33.2 46.3 33.2 45.65 Q33.2 44.75 32.9 44.3 L32.75 44.3 32.75 44.85 32.9 45.95 31.55 45.75 31.45 46.2 31.55 46.65 32.0 46.65 33.2 47.55 33.35 47.4 Q33.45 46.8 33.2 46.4 M31.65 47.8 L31.7 47.8 31.7 47.7 31.65 47.8 M30.4 48.9 L30.3 48.95 30.4 48.95 30.4 48.9 M14.0 50.75 L14.15 50.3 13.9 49.7 13.25 49.2 Q13.0 49.3 13.0 49.7 13.0 50.1 13.25 50.25 L14.0 50.75 M8.6 52.6 L8.5 51.75 8.3 51.5 8.3 51.45 8.75 51.75 8.9 51.6 8.9 51.45 9.2 51.8 9.2 51.85 Q8.8 51.8 8.65 52.25 L8.6 52.6 M4.75 52.3 L4.7 51.8 Q2.95 52.3 2.95 53.85 L3.0 54.35 1.0 54.35 0.95 54.9 1.0 55.5 2.95 55.5 3.2 55.05 3.2 54.65 3.9 53.65 4.45 53.7 Q4.85 53.7 4.55 53.6 L4.6 53.25 4.6 52.95 4.75 52.3 M1.5 51.55 L1.3 50.55 1.15 50.75 Q1.15 51.15 1.5 51.55 M21.8 93.0 L22.05 93.0 22.1 92.9 22.25 92.85 22.4 92.8 26.5 92.8 Q27.35 93.0 28.05 93.45 L28.65 93.9 20.35 93.9 Q20.55 93.65 20.9 93.45 L21.8 93.0" fill="#ffffff" fill-rule="evenodd" stroke="none"/>
      <path d="M2.25 56.0 L2.2 56.0 2.2 55.95 2.2 55.65 2.2 55.55 3.45 55.5 3.55 55.35 3.8 55.05 Q4.15 54.65 4.8 54.6 L5.2 54.55 5.95 54.55 5.95 54.65 6.05 54.6 6.15 54.45 6.15 54.4 7.3 54.35 7.4 54.4 Q7.6 54.25 7.9 54.05 L8.1 53.95 8.2 53.9 8.25 53.85 8.3 53.8 8.4 53.6 8.5 53.6 8.55 53.55 8.55 53.6 8.6 53.4 8.6 53.15 8.65 53.45 9.1 53.15 8.85 54.1 8.6 54.45 8.45 54.8 Q8.2 54.8 8.05 55.05 7.65 55.45 7.05 55.4 L6.35 55.25 4.7 55.55 3.8 56.15 2.6 56.15 2.6 56.0 2.25 56.0 M35.0 44.45 L35.55 44.1 35.8 44.05 Q36.05 44.1 36.35 44.7 L36.25 45.05 35.1 45.3 35.2 46.05 Q35.15 46.6 34.45 46.6 L34.05 46.6 34.55 47.9 34.3 48.9 34.35 49.4 Q34.3 49.75 33.6 49.75 L33.0 49.65 32.35 49.6 32.35 49.45 32.25 49.45 32.15 49.5 31.9 50.2 31.05 50.85 Q30.55 50.85 30.7 50.55 L30.15 50.5 30.0 51.0 Q30.0 51.4 29.3 51.4 L28.35 51.05 28.0 50.7 28.5 50.65 29.1 50.6 29.75 50.25 30.1 50.2 30.3 50.1 31.35 49.65 31.35 49.6 31.45 49.4 31.55 49.35 31.55 49.25 31.55 49.2 31.65 49.0 32.45 48.9 Q32.45 48.75 32.75 48.7 33.75 48.55 33.85 48.15 L33.85 47.95 33.85 47.9 33.65 47.0 33.4 46.15 33.45 45.9 33.65 45.9 33.85 46.2 34.0 46.15 34.0 46.0 34.2 45.8 34.3 45.3 34.05 44.8 34.4 44.55 34.5 44.6 34.55 44.65 34.75 44.55 35.0 44.45 M33.15 58.05 Q31.1 58.05 31.1 57.05 31.1 56.2 32.65 56.55 34.15 56.85 34.15 57.5 L34.1 57.8 33.15 58.05 M27.6 50.75 L27.7 51.0 Q26.7 52.55 25.75 52.55 24.5 52.55 24.15 52.05 23.85 51.65 23.45 51.6 L23.25 51.75 22.05 51.75 21.9 51.95 20.85 52.4 Q20.1 52.4 19.8 52.0 L19.8 52.05 19.3 52.35 18.05 52.1 17.85 51.8 17.2 51.25 Q17.2 50.95 17.45 51.05 L17.8 51.2 18.8 51.75 19.1 51.85 19.25 51.35 19.55 51.0 19.75 51.15 19.85 51.15 20.0 51.25 20.0 51.35 20.25 51.45 20.45 51.45 21.3 51.35 21.55 51.3 21.95 51.15 22.0 51.15 22.2 51.25 22.5 51.15 23.5 51.05 23.6 51.2 23.65 51.15 23.95 51.2 25.4 51.65 26.9 51.45 26.95 51.05 27.45 50.75 27.6 50.75 M17.1 51.2 L17.15 51.4 Q17.15 52.15 16.15 52.15 L14.7 51.7 14.45 51.5 14.25 51.7 Q13.8 52.1 13.35 52.1 L12.45 52.05 11.85 52.4 10.85 52.2 10.1 52.4 9.85 52.4 9.85 52.05 9.85 51.95 9.9 51.95 10.4 51.8 10.65 51.65 10.75 51.65 10.85 51.65 10.85 51.7 11.15 51.75 11.4 51.7 12.1 51.3 12.15 51.2 Q12.55 50.85 12.55 51.4 L12.55 51.45 12.55 51.7 13.2 51.55 13.65 51.3 13.85 51.1 Q14.3 50.5 14.5 50.6 L14.55 50.6 14.6 51.05 14.8 51.15 15.45 51.65 16.6 51.4 16.95 51.15 17.1 51.2 M27.4 58.75 Q25.4 61.1 22.9 61.1 14.9 61.1 14.9 59.7 L14.95 59.25 14.95 59.2 Q15.0 59.1 15.2 59.1 L16.5 59.5 18.2 59.85 Q23.25 59.85 25.75 58.7 27.05 58.1 27.35 57.45 L28.05 56.15 Q28.3 55.35 28.85 55.25 L29.0 55.95 Q29.0 56.9 27.4 58.75 M9.2 51.9 L8.9 52.4 8.9 52.3 8.8 52.15 Q8.8 51.9 8.95 51.9 L9.05 51.9 9.2 51.9 M8.9 52.45 L8.6 53.0 8.65 52.25 8.9 52.45" fill="#6d0101" fill-rule="evenodd" stroke="none"/>
      <path d="M23.45 43.95 L23.6 43.7 23.65 44.25 23.7 44.25 Q24.2 44.35 24.55 44.75 L24.95 45.45 25.85 45.45 25.9 45.95 26.0 46.3 25.75 46.35 23.45 46.35 23.35 46.0 23.0 46.35 Q22.85 46.15 22.85 45.75 L23.1 45.25 23.35 44.55 23.45 43.95 M-0.75 50.55 L-0.8 50.2 -0.7 49.5 -0.55 49.5 -0.5 49.55 -0.15 50.1 0.05 50.5 0.05 50.6 -0.1 51.0 -0.1 51.05 -0.35 51.05 -0.75 50.55 M1.9 48.6 L2.0 48.15 4.05 48.4 Q4.45 48.6 4.45 49.15 4.45 49.55 3.95 49.95 3.5 49.05 2.6 49.05 1.9 49.1 1.9 48.6 M1.4 49.35 L2.1 49.9 Q2.55 50.25 2.35 50.6 L2.2 50.85 Q1.25 50.6 1.25 49.8 L1.25 49.35 1.4 49.35 M7.0 47.25 Q7.3 47.45 7.3 48.0 L7.7 47.6 9.25 47.6 9.35 48.05 9.35 48.6 7.2 49.05 Q6.9 49.15 6.55 49.8 L6.5 49.8 Q6.35 49.65 6.35 49.2 L6.5 47.45 6.65 47.45 6.8 47.75 6.8 47.65 6.85 47.25 7.0 47.25 M15.1 45.6 L15.1 46.55 14.95 46.8 14.75 46.0 14.8 45.3 14.95 45.3 15.1 45.6 M11.0 45.9 L11.65 46.8 11.85 47.2 Q12.15 47.0 12.95 46.75 L14.5 46.4 14.6 46.9 14.6 47.3 Q12.75 47.3 12.4 47.85 L11.85 47.85 11.6 47.9 Q10.95 47.9 10.85 47.35 L10.85 46.8 10.85 45.9 11.0 45.9 M10.45 47.75 L10.3 49.05 10.25 49.05 Q10.1 48.65 10.1 47.75 L10.3 46.5 10.45 47.75 M10.7 48.95 L12.45 49.2 12.7 49.85 12.65 50.25 Q12.95 50.3 12.55 50.3 L11.1 49.95 10.7 49.4 10.7 48.95 M15.0 47.95 Q15.85 48.1 15.85 48.6 L15.8 49.05 15.7 49.2 15.55 48.95 14.2 48.8 14.15 48.35 Q14.15 47.85 15.0 47.95 M15.95 48.15 Q16.95 48.0 17.45 48.85 L17.8 49.9 17.65 50.45 17.05 50.55 Q16.95 50.0 17.3 49.65 L15.95 48.9 15.95 48.15 M23.6 45.55 L24.2 45.45 23.65 44.95 23.55 45.6 23.6 45.55 M21.5 48.9 L21.95 49.8 21.7 50.25 21.15 49.5 21.1 48.9 Q21.1 47.75 22.75 46.8 L22.85 47.25 22.2 48.15 21.5 48.9 M24.5 49.05 L23.95 50.4 23.8 50.55 23.6 49.8 Q23.6 48.6 24.35 48.6 L24.5 49.05 M26.6 45.3 Q29.8 43.95 29.9 46.5 L29.6 46.65 26.8 46.15 Q26.5 46.05 26.5 45.7 L26.6 45.3 M26.35 47.6 L26.35 46.8 Q27.75 46.7 28.15 47.3 L28.25 48.0 28.15 48.65 28.05 48.05 Q27.95 47.8 26.45 47.7 L26.35 47.6 M26.15 48.35 L26.8 48.45 27.2 48.95 27.2 49.8 27.05 49.95 26.45 49.3 Q26.15 48.95 26.15 48.35 M29.6 46.8 L29.75 46.8 30.9 47.65 30.95 48.25 31.1 48.8 30.95 49.5 30.85 49.5 30.65 49.95 30.4 49.95 30.35 49.55 30.5 49.1 30.6 48.95 30.5 48.8 Q30.35 48.6 30.35 48.25 L30.35 48.15 30.15 48.0 Q29.6 47.7 29.6 47.3 L29.6 46.8 M29.45 48.45 L29.2 49.65 29.05 49.8 28.85 49.05 Q28.85 48.2 29.3 48.0 L29.45 48.45 M34.05 41.85 L34.0 41.6 Q34.0 41.25 34.2 41.15 L35.5 41.1 35.6 41.6 35.45 42.0 35.2 42.0 34.1 42.0 34.05 41.85 M35.1 43.2 L35.15 43.45 Q35.15 43.9 34.6 44.05 L34.55 44.3 34.5 44.4 34.4 44.55 34.05 44.8 33.85 44.9 33.2 44.45 33.4 43.95 33.35 43.65 Q33.35 43.2 33.5 43.1 L34.45 42.95 35.0 42.9 35.1 43.2 M31.75 43.1 L31.3 44.85 31.15 45.0 Q30.95 44.85 30.95 44.1 L31.0 43.35 31.7 42.6 31.75 43.1 M32.3 41.6 L33.25 41.6 33.35 42.1 33.2 42.5 32.3 42.45 32.3 41.6 M33.2 46.4 Q33.45 46.8 33.35 47.4 L33.2 47.55 32.0 46.65 31.55 46.65 31.45 46.2 31.55 45.75 32.9 45.95 32.75 44.85 32.75 44.3 32.9 44.3 Q33.2 44.75 33.2 45.65 L33.2 46.3 33.2 46.4 M9.85 52.4 L9.65 52.8 9.1 53.15 8.65 53.45 8.6 53.15 8.55 53.55 8.5 53.6 8.4 53.6 8.35 53.6 7.55 52.25 7.25 51.65 6.85 51.5 5.3 50.85 5.3 50.1 7.65 50.7 8.05 50.9 8.0 50.6 8.0 50.15 8.1 50.15 8.15 50.1 8.2 50.15 8.75 50.3 8.75 50.2 8.8 49.2 9.45 49.7 9.5 50.3 9.5 51.0 9.85 51.9 9.85 51.95 9.85 52.05 9.85 52.4 M14.0 50.75 L13.25 50.25 Q13.0 50.1 13.0 49.7 13.0 49.3 13.25 49.2 L13.9 49.7 14.15 50.3 14.0 50.75 M9.2 51.85 L9.2 51.8 8.9 51.45 8.9 51.6 8.75 51.75 8.3 51.45 8.3 51.5 8.5 51.75 8.6 52.6 8.6 52.7 8.6 53.0 8.9 52.45 8.9 52.4 9.2 51.9 9.2 51.85 M4.75 52.3 L4.6 52.95 4.6 53.25 4.55 53.6 Q4.85 53.7 4.45 53.7 L3.9 53.65 3.2 54.65 3.2 55.05 2.95 55.5 1.0 55.5 0.95 54.9 1.0 54.35 3.0 54.35 2.95 53.85 Q2.95 52.3 4.7 51.8 L4.75 52.3 M0.25 52.25 L0.35 52.25 0.8 52.75 1.8 53.25 2.75 53.85 2.65 54.15 Q2.95 54.3 2.6 54.3 L1.5 54.25 1.3 54.2 Q0.6 54.0 0.35 53.65 L0.2 53.15 0.2 52.85 0.2 52.8 0.2 52.25 0.25 52.25" fill="#d0d0d0" fill-rule="evenodd" stroke="none"/>
    </g>
  </defs>
</svg>
