<?xml version="1.0" encoding="UTF-8" standalone="no"?>
<svg xmlns:xlink="http://www.w3.org/1999/xlink" height="880.1px" width="981.05px" xmlns="http://www.w3.org/2000/svg">
  <g transform="matrix(1.0, 0.0, 0.0, 1.0, 139.9, 0.45)">
    <use height="223.45" transform="matrix(1.1631, 0.1851, -0.1569, 0.9858, 306.2, 343.85)" width="290.0" xlink:href="#sprite0"/>
    <use height="461.65" transform="matrix(1.0, 0.0, 0.0, 1.0, 0.0, 237.8)" width="507.5" xlink:href="#sprite1"/>
    <use height="347.0" transform="matrix(0.9676, 0.077, -0.077, 0.9676, 213.95, 0.5)" width="347.0" xlink:href="#sprite2"/>
    <use height="91.05" transform="matrix(1.0714, -0.0846, 0.0822, 1.041, 253.55, 229.05)" width="222.55" xlink:href="#sprite3"/>
    <clipPath id="clipPath0" transform="matrix(1.0, 0.0, 0.0, 1.0, 139.9, 0.45)">
      <use height="685.45" transform="matrix(1.0, 0.0, 0.0, 1.0, 118.7, 46.75)" width="722.45" xlink:href="#shape4"/>
    </clipPath>
    <g clip-path="url(#clipPath0)">
      <use height="478.1" transform="matrix(0.1516, 0.5281, -0.5219, 0.1498, 595.2423, 497.859)" width="511.25" xlink:href="#sprite4"/>
    </g>
    <use height="25.25" transform="matrix(-1.6289, 0.0, 0.0, 1.6289, 297.3098, 344.8003)" width="193.05" xlink:href="#sprite8"/>
  </g>
  <defs>
    <g id="sprite0" transform="matrix(1.0, 0.0, 0.0, 1.0, 0.0, 0.0)">
      <use height="223.45" transform="matrix(1.0, 0.0, 0.0, 1.0, 0.0, 0.0)" width="290.0" xlink:href="#shape0"/>
    </g>
    <g id="shape0" transform="matrix(1.0, 0.0, 0.0, 1.0, 0.0, 0.0)">
      <path d="M282.4 182.0 Q250.9 236.05 218.85 219.6 L18.85 102.95 Q-12.15 77.3 7.8 40.9 33.85 -12.65 65.55 3.95 L272.3 124.5 Q301.6 142.75 282.4 182.0" fill="#000000" fill-rule="evenodd" stroke="none"/>
    </g>
    <g id="sprite1" transform="matrix(1.0, 0.0, 0.0, 1.0, 0.0, 0.0)">
      <use height="461.65" transform="matrix(1.0, 0.0, 0.0, 1.0, 0.0, 0.0)" width="507.5" xlink:href="#shape1"/>
    </g>
    <g id="shape1" transform="matrix(1.0, 0.0, 0.0, 1.0, 0.0, 0.0)">
      <path d="M169.05 33.25 Q232.35 47.15 253.85 10.2 315.5 -20.55 343.85 41.2 321.4 65.15 329.85 85.2 L356.85 110.2 Q367.05 118.75 371.15 134.6 374.4 147.1 373.85 164.2 369.7 207.6 325.8 211.25 319.8 203.7 314.25 194.35 L304.0 175.7 247.95 117.9 289.95 173.15 404.85 359.2 442.95 374.35 507.5 459.2 239.65 459.2 191.1 346.2 142.9 196.2 102.9 114.2 Q73.7 59.15 131.5 31.25 178.4 39.5 207.85 65.2 188.7 42.5 169.05 33.25 M155.05 287.65 Q145.5 375.7 177.0 459.2 L1.3 459.2 Q-9.45 346.0 70.05 167.4 L70.4 166.7 Q95.25 114.6 155.05 287.65" fill="#000000" fill-rule="evenodd" stroke="none"/>
      <path d="M325.8 211.25 L319.15 211.55 289.95 173.15 247.95 117.9 304.0 175.7 314.25 194.35 Q319.8 203.7 325.8 211.25 M191.1 346.2 L157.65 268.35 92.4 119.6 83.9 100.2 Q68.4 54.2 115.9 32.2 128.9 26.75 141.7 26.8 136.3 28.95 131.5 31.25 73.7 59.15 102.9 114.2 L142.9 196.2 191.1 346.2" fill="#1a1a1a" fill-rule="evenodd" stroke="none"/>
      <path d="M319.15 211.55 L442.95 374.35 404.85 359.2 289.95 173.15 319.15 211.55 M157.65 268.35 Q156.1 278.0 155.05 287.65 95.25 114.6 70.4 166.7 80.65 143.65 92.4 119.6 L157.65 268.35 M141.7 26.8 Q155.5 26.85 169.05 33.25 188.7 42.5 207.85 65.2 178.4 39.5 131.5 31.25 136.3 28.95 141.7 26.8" fill="#222222" fill-rule="evenodd" stroke="none"/>
      <path d="M248.2 313.1 Q245.2 311.45 242.95 307.55 L243.05 307.2 242.65 307.05 Q240.3 302.75 239.6 297.8 239.15 295.1 233.0 286.4 227.25 278.3 227.35 272.95 227.5 267.25 226.6 264.45 225.5 260.8 221.75 257.0 218.2 253.4 216.2 249.95 L215.15 248.0 211.85 242.0 Q211.15 242.0 207.5 244.7 L203.4 247.6 202.5 247.6 202.5 243.35 206.3 238.0 Q209.05 233.9 209.05 232.35 209.05 230.45 207.7 228.25 206.3 226.05 206.3 222.0 206.3 217.55 209.55 214.35 212.8 211.15 212.8 209.15 212.8 206.75 209.2 202.2 205.5 197.55 205.3 192.7 L205.3 190.8 220.0 206.45 Q224.8 210.75 230.75 211.0 237.3 214.3 238.15 222.7 L238.35 224.0 Q238.8 226.7 240.1 231.3 241.2 235.2 240.5 238.7 L240.5 240.55 244.4 241.15 248.0 241.55 248.0 243.85 241.9 243.85 241.9 245.7 Q243.25 246.4 245.4 250.5 247.55 254.5 247.55 256.05 247.55 257.2 246.6 259.55 L249.3 264.4 253.2 271.05 Q254.4 272.95 255.45 275.9 256.35 278.4 256.95 279.05 254.5 277.7 250.45 270.65 247.1 264.95 242.6 264.95 238.55 264.95 236.75 267.25 L237.25 265.45 Q237.25 264.75 236.8 264.6 L236.3 264.5 Q234.6 265.5 234.5 266.85 L234.4 269.65 Q234.7 270.35 235.35 270.6 L235.5 270.45 Q235.35 271.25 235.35 272.25 235.35 276.55 242.2 289.9 L246.65 298.25 Q246.8 299.85 248.5 301.95 L249.4 303.2 248.4 303.2 248.25 303.15 Q248.05 303.2 248.05 303.9 248.05 304.4 249.45 306.0 L249.95 306.65 249.95 312.15 249.8 312.3 248.2 313.1 M236.45 243.45 Q235.8 241.65 235.8 240.05 L236.3 236.9 236.75 233.75 Q236.75 230.5 235.5 226.95 234.3 223.55 231.95 219.9 230.1 217.0 228.65 215.35 221.65 212.4 221.45 212.4 L220.3 212.7 220.05 212.15 218.35 212.15 218.2 212.05 Q218.0 212.15 218.0 212.85 218.0 213.5 218.25 213.85 L218.55 214.2 Q216.95 215.95 215.15 219.5 212.6 224.55 212.05 227.5 L211.9 227.4 211.1 228.15 Q210.95 228.4 210.95 229.2 210.95 230.15 211.3 231.05 L210.95 232.7 211.4 233.45 211.35 233.5 212.15 233.5 212.8 233.35 Q214.75 235.45 218.95 237.25 L218.9 238.2 218.45 241.7 Q218.45 242.2 219.4 243.6 L219.45 243.65 218.8 243.6 218.75 243.7 216.45 243.15 216.3 243.05 Q216.1 243.15 216.1 243.85 216.1 244.3 218.95 245.85 L221.2 247.15 Q221.85 249.05 223.7 250.5 L226.65 252.25 228.35 254.15 Q229.1 255.05 231.1 259.05 233.35 262.6 235.8 262.6 L236.05 262.55 236.6 263.05 236.3 263.6 236.65 264.15 Q237.0 264.5 237.7 264.5 238.95 264.5 241.45 262.55 243.8 260.7 243.8 260.3 243.8 258.6 242.85 258.4 242.3 258.6 241.0 259.75 L241.0 259.3 Q241.0 258.6 240.45 258.5 L239.6 258.4 Q238.75 258.75 238.7 259.7 L238.8 259.85 237.85 260.0 238.7 258.4 240.5 254.2 241.95 255.55 242.85 255.05 238.4 247.35 236.45 243.45 M192.15 273.45 Q193.4 274.8 193.55 275.75 184.45 279.05 180.1 285.55 176.65 290.65 176.65 296.65 176.65 302.5 177.9 305.1 L186.5 320.85 Q189.85 327.3 194.0 338.8 L196.4 345.25 196.4 345.35 195.35 346.5 Q199.45 354.7 201.45 357.95 205.85 365.05 210.35 369.0 L213.05 371.05 214.7 372.05 214.95 371.65 215.15 371.6 Q214.95 370.6 215.35 369.45 L215.55 368.85 217.0 366.35 Q218.25 364.65 221.25 361.7 L223.2 363.4 223.5 363.7 Q225.0 365.45 225.0 367.1 L224.6 368.65 222.2 375.6 Q219.4 383.55 219.4 392.15 219.4 398.6 224.15 408.45 227.85 416.15 230.65 419.4 232.15 421.15 233.0 423.1 L234.75 427.5 Q237.8 434.65 246.55 446.3 245.05 447.95 243.5 448.6 242.4 449.05 242.4 452.0 L242.85 454.6 243.3 457.2 Q243.3 458.5 242.4 459.8 241.15 461.65 238.85 461.65 236.1 461.65 231.4 453.95 L224.55 441.45 215.7 424.75 Q208.75 411.45 208.6 410.0 205.95 391.5 204.25 383.6 L202.9 378.2 201.45 373.05 198.75 369.25 197.3 366.85 190.55 353.45 Q187.15 346.75 185.6 340.1 L182.35 329.4 Q179.85 321.65 179.5 318.95 179.05 315.7 174.75 307.65 170.55 299.9 170.55 298.75 170.55 298.15 172.1 294.0 174.0 289.1 176.2 284.7 182.85 271.55 188.15 271.55 190.45 271.55 192.15 273.45 M228.8 257.45 L228.15 257.9 Q227.9 258.15 227.9 258.9 227.9 259.95 228.7 260.3 L231.15 261.2 232.05 260.6 Q231.75 259.8 230.35 258.6 L228.8 257.45 M239.9 260.7 L239.55 260.25 239.8 260.25 240.6 260.1 240.2 260.4 239.9 260.7 M238.0 262.15 L237.7 262.35 237.6 262.05 238.0 262.15 M237.25 261.05 L237.25 261.1 237.25 261.55 237.05 261.35 237.25 261.05 M227.35 328.2 L232.25 334.35 232.3 334.4 232.45 334.6 Q233.5 336.0 234.2 337.5 235.35 340.1 235.35 343.1 235.35 344.95 234.4 345.7 L233.5 346.15 233.0 346.2 Q230.1 346.2 227.85 341.95 225.95 338.3 225.95 335.35 L226.0 334.3 Q226.05 332.75 226.4 331.3 L227.35 328.2 M244.75 342.1 L245.2 340.5 245.4 340.4 246.35 339.9 248.55 342.75 250.15 344.95 Q252.05 347.35 253.2 348.05 L253.2 350.0 251.3 350.0 246.65 347.45 246.5 347.35 Q244.25 345.95 244.25 343.55 244.25 342.95 244.75 342.1 M268.15 367.3 Q266.5 365.05 266.8 359.05 L269.05 361.75 Q271.2 364.6 272.55 367.55 L273.85 371.05 273.55 371.4 268.5 367.65 268.15 367.3" fill="#330000" fill-rule="evenodd" stroke="none"/>
      <path d="M236.75 267.25 L236.45 268.1 235.5 270.45 235.35 270.6 Q234.7 270.35 234.4 269.65 L234.5 266.85 Q234.6 265.5 236.3 264.5 L236.8 264.6 Q237.25 264.75 237.25 265.45 L236.75 267.25 M246.65 298.25 L246.6 297.9 246.8 295.25 Q248.75 294.7 248.85 296.4 248.95 299.0 249.5 299.6 L251.4 302.2 Q252.7 304.25 252.7 305.25 L252.7 306.8 252.65 307.2 252.7 308.8 Q252.7 311.7 251.7 312.85 251.15 313.45 249.45 314.1 246.15 315.3 246.15 321.2 246.15 323.9 245.3 328.0 L244.3 332.5 244.8 332.7 Q245.7 333.15 245.7 333.95 245.7 335.05 245.35 334.7 L244.45 334.9 Q244.1 334.9 243.6 334.45 L243.35 334.25 243.1 334.1 243.0 333.7 242.85 333.0 242.9 332.6 242.85 331.6 Q242.85 330.15 243.55 325.5 L244.25 320.0 Q244.25 314.35 247.55 313.3 L248.2 313.1 249.8 312.3 249.95 312.15 Q250.85 311.15 250.85 308.95 L250.75 308.1 250.5 308.0 250.5 307.8 250.45 307.45 249.95 306.65 249.45 306.0 Q248.05 304.4 248.05 303.9 248.05 303.2 248.25 303.15 L248.4 303.2 249.4 303.2 248.5 301.95 Q246.8 299.85 246.65 298.25 M248.05 287.15 Q248.05 286.4 248.3 286.25 L248.95 286.1 Q250.75 286.7 252.1 291.0 253.2 294.6 253.2 297.05 L253.1 297.75 252.25 297.8 Q251.1 296.75 250.9 295.25 L250.85 292.65 Q250.85 291.65 249.45 289.7 248.05 287.7 248.05 287.15 M243.8 275.1 L243.55 276.0 242.85 276.2 240.85 274.95 Q239.15 273.7 239.15 273.4 239.15 272.7 239.3 272.65 L239.45 272.7 Q241.6 272.65 242.8 273.45 243.8 274.15 243.8 275.1 M212.05 227.5 L212.15 227.6 213.2 229.25 214.05 230.85 214.6 231.65 217.7 233.7 Q219.25 234.65 219.7 235.55 L219.85 236.15 219.6 237.05 219.45 237.15 218.95 237.25 Q214.75 235.45 212.8 233.35 211.75 232.25 211.3 231.05 210.95 230.15 210.95 229.2 210.95 228.4 211.1 228.15 L211.9 227.4 212.05 227.5 M220.15 217.75 L218.95 217.1 219.35 216.35 220.8 216.25 222.0 216.25 223.25 216.5 Q224.1 216.85 224.1 217.55 L224.1 217.95 223.95 218.35 223.75 218.5 220.15 217.75 M231.75 224.85 L231.85 224.75 232.55 224.6 Q234.25 226.65 234.4 231.35 234.65 238.0 235.0 239.5 235.4 241.2 236.45 243.45 L238.4 247.35 242.85 255.05 241.95 255.55 240.5 254.2 Q235.05 248.6 233.05 240.9 L232.95 240.5 Q231.6 235.1 231.6 225.55 231.6 225.05 231.75 224.85 M241.0 259.75 Q242.3 258.6 242.85 258.4 243.8 258.6 243.8 260.3 243.8 260.7 241.45 262.55 238.95 264.5 237.7 264.5 237.0 264.5 236.65 264.15 L236.3 263.6 236.6 263.05 236.65 262.85 237.7 262.35 238.0 262.15 239.9 260.7 240.2 260.4 240.6 260.1 241.0 259.75 M226.65 252.25 L223.7 250.5 Q221.85 249.05 221.2 247.15 L218.95 245.85 Q216.1 244.3 216.1 243.85 216.1 243.15 216.3 243.05 L216.45 243.15 218.75 243.7 220.85 244.35 Q220.85 244.05 221.0 244.0 L221.05 243.95 221.75 243.85 222.55 244.6 222.9 245.25 223.15 245.4 224.0 245.95 Q225.7 247.1 227.45 249.8 L226.6 250.35 226.85 250.5 229.7 252.65 228.8 253.25 226.65 252.25 M219.8 238.25 L219.85 238.2 220.5 238.85 220.65 239.15 220.8 239.95 219.85 240.55 219.15 240.2 219.0 240.05 218.95 239.35 Q218.95 238.6 219.2 238.45 L219.8 238.25 M229.45 224.25 L229.7 224.95 228.8 225.55 228.0 225.2 227.45 224.6 227.75 223.65 228.8 223.65 229.45 224.25 M229.8 252.65 L230.05 252.5 Q232.55 252.75 232.55 254.15 232.55 255.25 232.2 254.85 L231.35 255.1 Q229.7 255.1 229.7 253.4 229.7 252.7 229.8 252.65 M228.35 325.5 Q228.55 324.85 229.25 324.55 229.8 324.55 230.65 325.85 L229.7 326.45 228.9 326.1 228.35 325.5 M223.15 313.3 Q224.1 313.7 225.1 315.55 L227.45 319.3 227.05 319.75 226.2 319.9 Q224.3 319.9 223.15 318.1 222.2 316.55 222.2 314.45 222.2 313.7 222.45 313.55 L223.15 313.3" fill="#4b0101" fill-rule="evenodd" stroke="none"/>
      <path d="M220.3 212.7 L220.35 213.65 219.4 214.75 218.8 214.55 218.55 214.2 218.25 213.85 Q218.0 213.5 218.0 212.85 218.0 212.15 218.2 212.05 L218.35 212.15 220.05 212.15 220.3 212.7 M212.15 227.6 Q212.85 224.95 213.6 223.5 214.85 221.05 216.7 219.55 L216.7 219.2 217.3 219.15 Q218.55 218.25 220.15 217.75 L223.75 218.5 223.95 218.35 224.1 217.95 226.9 218.0 Q228.75 218.05 229.15 219.7 229.8 222.2 230.2 222.7 L231.75 224.85 Q231.6 225.05 231.6 225.55 231.6 235.1 232.95 240.5 L232.55 241.9 Q232.55 243.15 233.95 245.7 235.35 248.2 235.35 250.4 234.1 250.1 232.55 249.3 232.55 250.5 231.75 250.8 L231.7 250.85 230.6 251.2 229.7 251.35 228.9 251.2 228.9 251.0 228.8 250.15 228.9 249.4 229.15 249.25 230.85 249.2 230.95 248.9 230.35 248.3 229.95 247.8 228.95 247.1 228.8 247.1 228.15 246.75 227.9 246.55 227.95 246.35 227.25 245.85 226.85 245.55 226.45 245.7 224.1 244.9 Q222.2 244.15 222.2 243.35 222.2 242.65 222.4 242.55 L222.55 242.65 223.8 242.85 Q222.25 241.2 222.2 240.15 221.65 239.7 221.05 239.4 L220.65 239.15 220.5 238.85 219.85 238.2 219.8 238.25 219.45 237.15 219.6 237.05 219.85 236.15 219.7 235.55 Q219.9 235.3 220.2 235.15 L220.9 234.7 220.8 234.45 Q221.0 233.8 221.75 233.5 L221.9 233.55 222.3 232.85 221.7 232.05 221.25 232.1 Q220.7 231.75 220.45 231.75 L220.4 231.45 219.85 231.2 219.95 230.2 219.35 229.85 219.0 230.45 218.45 231.05 217.55 229.75 218.55 229.45 218.15 229.25 Q216.65 228.6 216.65 227.15 216.65 226.6 216.8 226.4 216.65 225.3 216.65 222.9 L214.25 225.9 214.1 230.25 214.05 230.85 213.2 229.25 212.15 227.6 M220.8 216.25 L221.25 215.65 221.95 216.15 222.0 216.25 220.8 216.25 M237.85 260.0 L238.8 259.85 238.7 259.7 Q238.75 258.75 239.6 258.4 L240.45 258.5 Q241.0 258.6 241.0 259.3 L241.0 259.75 240.6 260.1 239.8 260.25 239.55 260.25 239.9 260.7 238.0 262.15 237.6 262.05 237.7 262.35 236.65 262.85 236.6 263.05 236.05 262.55 235.8 262.15 Q236.2 261.45 236.75 261.2 L237.05 261.35 237.25 261.55 237.25 261.1 237.25 261.05 Q237.25 260.45 237.5 260.3 L237.7 260.05 237.85 260.0 M218.75 243.7 L218.8 243.6 219.45 243.65 221.0 244.0 Q220.85 244.05 220.85 244.35 L218.75 243.7 M212.8 233.35 L212.15 233.5 211.35 233.5 211.4 233.45 210.95 232.7 211.3 231.05 Q211.75 232.25 212.8 233.35 M220.1 220.4 Q219.65 220.6 219.25 220.85 L218.95 223.45 Q218.75 225.2 218.1 226.3 L219.0 226.75 Q219.15 224.0 220.0 221.45 L220.5 220.25 220.1 220.4 M220.8 240.1 L221.5 240.35 221.75 241.3 221.5 242.1 220.35 243.35 Q219.6 243.05 219.4 242.45 L219.9 241.45 220.8 240.1 M222.25 238.7 L222.2 238.55 223.6 237.25 223.65 237.25 224.1 235.6 223.5 234.5 222.9 234.85 Q221.25 235.65 221.25 236.65 221.25 237.95 222.25 238.7 M222.55 244.6 Q223.15 244.9 223.15 245.25 L223.15 245.4 222.9 245.25 222.55 244.6 M229.45 224.25 L228.8 223.65 227.75 223.65 227.45 224.6 228.0 225.2 228.8 225.55 229.7 224.95 229.45 224.25 M235.35 256.05 Q234.65 255.75 234.4 255.1 L234.75 254.4 235.45 254.6 236.3 255.5 235.35 256.05 M236.3 255.55 L236.65 254.85 Q237.6 255.05 238.15 255.95 L237.25 256.5 Q236.55 256.2 236.3 255.55 M228.8 257.45 L230.35 258.6 Q231.75 259.8 232.05 260.6 L231.15 261.2 228.7 260.3 Q227.9 259.95 227.9 258.9 227.9 258.15 228.15 257.9 L228.8 257.45" fill="#1a0000" fill-rule="evenodd" stroke="none"/>
      <path d="M220.3 212.7 L221.45 212.4 Q221.65 212.4 228.65 215.35 230.1 217.0 231.95 219.9 234.3 223.55 235.5 226.95 236.75 230.5 236.75 233.75 L236.3 236.9 235.8 240.05 Q235.8 241.65 236.45 243.45 235.4 241.2 235.0 239.5 234.65 238.0 234.4 231.35 234.25 226.65 232.55 224.6 L231.85 224.75 231.75 224.85 230.2 222.7 Q229.8 222.2 229.15 219.7 228.75 218.05 226.9 218.0 L224.1 217.95 224.1 217.55 Q224.1 216.85 223.25 216.5 L222.0 216.25 221.95 216.15 221.25 215.65 220.8 216.25 219.35 216.35 218.95 217.1 220.15 217.75 Q218.55 218.25 217.3 219.15 L216.7 219.2 216.7 219.55 Q214.85 221.05 213.6 223.5 212.85 224.95 212.15 227.6 L212.05 227.5 Q212.6 224.55 215.15 219.5 216.95 215.95 218.55 214.2 L218.8 214.55 219.4 214.75 220.35 213.65 220.3 212.7 M240.5 254.2 L238.7 258.4 237.85 260.0 237.7 260.05 237.5 260.3 Q237.25 260.45 237.25 261.05 L237.05 261.35 236.75 261.2 Q236.2 261.45 235.8 262.15 L236.05 262.55 235.8 262.6 Q233.35 262.6 231.1 259.05 229.1 255.05 228.35 254.15 L226.65 252.25 228.8 253.25 229.7 252.65 226.85 250.5 226.6 250.35 227.45 249.8 Q225.7 247.1 224.0 245.95 L223.15 245.4 223.15 245.25 Q223.15 244.9 222.55 244.6 L221.75 243.85 221.05 243.95 221.0 244.0 219.45 243.65 219.4 243.6 Q218.45 242.2 218.45 241.7 L218.9 238.2 218.95 237.25 219.45 237.15 219.8 238.25 219.2 238.45 Q218.95 238.6 218.95 239.35 L219.0 240.05 219.15 240.2 219.85 240.55 220.8 239.95 220.65 239.15 221.05 239.4 Q221.65 239.7 222.2 240.15 222.25 241.2 223.8 242.85 L222.55 242.65 222.4 242.55 Q222.2 242.65 222.2 243.35 222.2 244.15 224.1 244.9 L226.45 245.7 226.85 245.55 227.25 245.85 227.95 246.35 227.9 246.55 228.15 246.75 228.8 247.1 228.95 247.1 229.95 247.8 230.35 248.3 230.95 248.9 230.85 249.2 229.15 249.25 228.9 249.4 228.8 250.15 228.9 251.0 228.9 251.2 229.7 251.35 230.6 251.2 231.7 250.85 231.75 250.8 Q232.55 250.5 232.55 249.3 234.1 250.1 235.35 250.4 235.35 248.2 233.95 245.7 232.55 243.15 232.55 241.9 L232.95 240.5 233.05 240.9 Q235.05 248.6 240.5 254.2 M220.1 220.4 L220.5 220.25 220.0 221.45 Q219.15 224.0 219.0 226.75 L218.1 226.3 Q218.75 225.2 218.95 223.45 L219.25 220.85 Q219.65 220.6 220.1 220.4 M214.05 230.85 L214.1 230.25 214.25 225.9 216.65 222.9 Q216.65 225.3 216.8 226.4 216.65 226.6 216.65 227.15 216.65 228.6 218.15 229.25 L218.55 229.45 217.55 229.75 218.45 231.05 219.0 230.45 219.35 229.85 219.95 230.2 219.85 231.2 220.4 231.45 220.45 231.75 Q220.7 231.75 221.25 232.1 L221.7 232.05 222.3 232.85 221.9 233.55 221.75 233.5 Q221.0 233.8 220.8 234.45 L220.9 234.7 220.2 235.15 Q219.9 235.3 219.7 235.55 219.25 234.65 217.7 233.7 L214.6 231.65 214.05 230.85 M222.25 238.7 Q221.25 237.95 221.25 236.65 221.25 235.65 222.9 234.85 L223.5 234.5 224.1 235.6 223.65 237.25 223.6 237.25 222.2 238.55 222.25 238.7 M220.8 240.1 L219.9 241.45 219.4 242.45 Q219.6 243.05 220.35 243.35 L221.5 242.1 221.75 241.3 221.5 240.35 220.8 240.1 M236.3 255.55 Q236.55 256.2 237.25 256.5 L238.15 255.95 Q237.6 255.05 236.65 254.85 L236.3 255.55 M235.35 256.05 L236.3 255.5 235.45 254.6 234.75 254.4 234.4 255.1 Q234.65 255.75 235.35 256.05 M229.8 252.65 Q229.7 252.7 229.7 253.4 229.7 255.1 231.35 255.1 L232.2 254.85 Q232.55 255.25 232.55 254.15 232.55 252.75 230.05 252.5 L229.8 252.65" fill="#5c0101" fill-rule="evenodd" stroke="none"/>
    </g>
    <g id="sprite2" transform="matrix(1.0, 0.0, 0.0, 1.0, 0.0, 0.0)">
      <use height="347.0" transform="matrix(1.0, 0.0, 0.0, 1.0, 0.0, 0.0)" width="347.0" xlink:href="#shape2"/>
    </g>
    <g id="shape2" transform="matrix(1.0, 0.0, 0.0, 1.0, 0.0, 0.0)">
      <path d="M237.85 335.2 Q264.3 323.55 286.4 301.4 333.2 254.65 333.2 188.5 333.2 122.4 288.95 64.95 244.7 7.5 177.6 11.8 110.45 16.1 62.15 69.25 13.8 122.4 13.8 188.5 13.8 254.65 60.6 301.4 82.85 323.65 109.5 335.35 77.3 322.65 50.8 296.15 0.0 245.35 0.0 173.5 0.0 101.65 50.8 50.8 101.65 0.0 173.5 0.0 245.35 0.0 296.15 50.8 347.0 101.65 347.0 173.5 347.0 245.35 296.15 296.15 269.85 322.5 237.85 335.2" fill="#222222" fill-rule="evenodd" stroke="none"/>
      <path d="M109.5 335.35 Q82.85 323.65 60.6 301.4 13.8 254.65 13.8 188.5 13.8 122.4 62.15 69.25 110.45 16.1 177.6 11.8 244.7 7.5 288.95 64.95 333.2 122.4 333.2 188.5 333.2 254.65 286.4 301.4 264.3 323.55 237.85 335.2 208.1 347.0 173.5 347.0 139.1 347.0 109.5 335.35" fill="#000000" fill-rule="evenodd" stroke="none"/>
    </g>
    <g id="sprite3" transform="matrix(1.0, 0.0, 0.0, 1.0, 0.0, 0.0)">
      <use height="91.05" transform="matrix(1.0, 0.0, 0.0, 1.0, 0.0, 0.0)" width="222.55" xlink:href="#shape3"/>
    </g>
    <g id="shape3" transform="matrix(1.0, 0.0, 0.0, 1.0, 0.0, 0.0)">
      <path d="M183.15 31.95 Q204.65 31.95 214.15 35.75 222.55 39.1 222.55 45.95 222.55 47.85 218.1 55.1 213.65 62.45 207.65 70.4 191.95 91.05 185.4 91.05 180.1 91.05 169.8 87.95 L149.35 81.2 Q120.0 71.35 104.75 71.35 L77.9 73.25 48.95 71.65 Q31.5 70.0 26.4 68.5 22.1 67.25 11.35 57.95 0.0 48.05 0.0 44.05 0.0 27.9 7.65 14.15 15.45 0.0 25.3 0.0 30.25 0.0 44.6 8.0 53.15 12.75 73.9 25.25 93.3 36.7 105.0 41.85 121.25 49.05 129.7 47.85 L132.55 47.95 Q141.4 48.05 146.55 45.95 L149.1 45.95 158.65 41.7 Q180.25 31.95 183.15 31.95" fill="#ffffff" fill-rule="evenodd" stroke="none"/>
    </g>
    <g id="shape4" transform="matrix(1.0, 0.0, 0.0, 1.0, -118.7, -46.75)">
      <path d="M803.2 504.75 Q820.9 546.15 826.6 561.8 837.1 590.3 841.15 614.3 827.6 621.3 809.5 631.7 766.35 656.55 747.15 674.0 744.4 676.55 722.75 685.8 696.95 696.9 681.6 705.85 667.4 714.05 622.3 722.65 572.45 732.2 531.25 732.2 480.15 732.2 428.85 725.95 380.15 720.05 354.8 711.55 344.45 708.0 338.2 699.9 335.2 696.05 332.25 688.95 L298.95 617.75 Q274.05 563.95 274.05 557.4 274.05 549.75 276.0 547.25 L285.2 538.85 Q282.25 537.8 272.4 536.95 L255.3 535.05 252.35 535.05 249.05 530.15 Q243.0 520.55 238.4 499.4 236.25 489.3 228.1 484.05 L222.85 481.05 Q220.55 479.75 220.55 478.7 220.55 475.6 223.85 472.65 L223.85 470.3 Q222.7 469.7 219.4 467.25 216.2 464.85 214.9 464.2 216.25 462.85 217.65 460.65 L219.4 460.2 219.05 459.05 219.0 458.8 217.6 454.3 Q214.3 445.75 203.65 430.85 198.25 423.3 187.15 414.35 175.55 405.65 172.2 402.75 170.75 401.4 164.25 392.0 156.8 381.2 154.85 378.75 L142.85 367.65 Q132.45 358.0 125.75 347.3 123.35 343.5 118.7 337.4 152.85 295.95 210.15 249.95 274.8 198.05 357.7 148.95 433.6 104.0 500.7 75.25 567.4 46.75 596.1 46.75 618.0 80.05 651.1 145.3 717.0 275.2 775.4 435.55 785.7 463.95 803.2 504.75" fill="#000000" fill-rule="evenodd" stroke="none"/>
    </g>
    <g id="sprite4" transform="matrix(1.0, 0.0, 0.0, 1.0, 225.2, 178.95)">
      <use height="303.95" transform="matrix(1.0, 0.0, 0.0, 1.0, -225.2, -178.95)" width="464.6" xlink:href="#shape5"/>
      <use height="159.8" transform="matrix(0.9801, 0.1907, -0.1907, 0.9801, -51.3295, 32.5808)" width="255.0" xlink:href="#sprite5"/>
      <use height="85.6" transform="matrix(0.4213, 0.3773, -0.3773, 0.4213, 49.4971, 14.5655)" width="529.15" xlink:href="#sprite6"/>
      <use height="85.6" transform="matrix(0.3608, 0.4353, 0.4353, -0.3608, 8.0182, 54.1914)" width="529.15" xlink:href="#sprite6"/>
      <use height="141.1" transform="matrix(0.8722, 0.4831, -0.4831, 0.8722, 52.3968, -54.3588)" width="245.85" xlink:href="#sprite7"/>
    </g>
    <g id="shape5" transform="matrix(1.0, 0.0, 0.0, 1.0, 225.2, 178.95)">
      <path d="M96.7 -150.3 L106.2 -148.8 115.2 -148.0 Q117.2 -148.0 119.5 -146.4 121.8 -144.8 123.8 -144.8 135.45 -144.8 150.85 -129.4 157.15 -123.05 161.25 -116.6 165.4 -110.05 165.4 -106.2 165.4 -104.2 166.6 -94.6 167.8 -85.0 167.8 -83.0 169.0 -75.2 169.0 -71.4 169.0 -69.4 170.3 -67.3 171.6 -65.2 171.6 -63.2 171.6 -56.35 178.45 -52.2 184.75 -48.4 194.0 -48.4 196.15 -48.4 217.85 -26.4 239.4 -4.5 239.4 -2.6 L238.5 6.25 Q237.6 13.15 237.6 15.4 L234.5 29.5 231.4 43.6 Q231.4 44.7 227.7 53.65 223.9 62.7 223.8 64.6 L211.2 63.6 210.8 69.0 Q210.8 71.0 209.5 77.5 208.2 84.0 208.2 86.0 L199.9 101.2 Q191.6 116.1 191.6 116.4 191.6 119.3 187.65 120.65 L183.2 121.4 174.6 123.2 Q165.9 125.0 163.6 125.0 156.75 125.0 154.85 122.1 153.4 119.95 153.4 112.6 153.4 110.6 152.2 101.0 151.0 91.4 151.0 89.4 151.0 86.85 150.6 86.05 L149.4 84.6 148.0 85.9 Q147.15 86.4 144.6 86.4 142.6 86.4 141.6 87.9 140.6 89.4 138.6 89.4 136.6 89.4 131.7 91.0 126.8 92.6 124.8 92.6 120.7 92.6 117.6 83.8 115.2 77.0 115.2 73.2 115.2 71.2 119.3 59.9 123.4 48.6 123.4 47.8 L123.2 46.15 Q126.6 43.4 126.6 38.8 126.6 27.6 121.35 19.15 119.5 19.9 117.2 21.0 113.15 22.9 109.05 25.05 L108.35 25.45 Q104.25 24.4 102.4 24.4 L91.2 25.9 80.0 27.4 Q79.0 27.4 69.1 34.8 59.2 42.2 57.0 42.2 55.35 42.2 51.85 46.25 L44.8 55.2 Q34.5 68.2 28.4 68.2 24.3 68.2 18.4 72.3 14.1 75.3 10.75 76.1 L10.1 75.2 5.5 68.75 Q-2.0 57.9 -2.0 56.0 -2.0 53.6 -3.1 53.05 -4.5 52.8 -5.0 52.2 -12.65 58.65 -35.25 75.75 -57.9 92.8 -58.8 92.8 -61.2 92.8 -61.4 91.35 L-61.8 89.0 -67.8 93.95 -67.75 94.0 -65.55 99.25 -69.0 94.95 Q-87.9 71.15 -100.75 55.85 -128.95 22.2 -151.0 4.4 -156.7 -0.2 -168.8 -5.6 -214.6 -59.6 -225.2 -108.35 -210.6 -186.7 -125.35 -178.1 L-111.75 -174.2 Q-69.55 -162.0 -61.4 -162.0 -51.7 -162.0 -30.25 -156.0 L-13.4 -150.95 -10.4 -150.0 Q-10.55 -150.9 -9.55 -151.25 -8.1 -151.8 -3.95 -150.35 L-1.35 -149.35 0.8 -149.0 6.4 -149.4 15.0 -150.3 23.6 -151.2 29.85 -152.8 Q35.85 -154.4 37.6 -154.4 39.6 -154.4 44.8 -153.1 50.0 -151.8 52.0 -151.8 L57.9 -149.4 Q63.6 -147.0 66.2 -147.0 71.15 -147.0 78.05 -149.4 L87.2 -151.8 96.7 -150.3" fill="#000000" fill-rule="evenodd" stroke="none"/>
    </g>
    <g id="sprite5" transform="matrix(1.0, 0.0, 0.0, 1.0, 127.5, 79.9)">
      <use height="159.8" transform="matrix(1.0, 0.0, 0.0, 1.0, -127.5, -79.9)" width="255.0" xlink:href="#shape6"/>
    </g>
    <g id="shape6" transform="matrix(1.0, 0.0, 0.0, 1.0, 127.5, 79.9)">
      <path d="M-120.5 -56.4 Q-120.5 -66.95 -112.5 -72.95 -103.25 -79.9 -84.0 -79.9 -49.55 -79.9 -36.35 -63.2 -31.45 -56.95 -27.95 -46.5 L-22.5 -27.9 Q-19.6 -18.45 -8.45 -9.85 L2.05 -2.0 Q8.65 3.1 13.5 8.1 20.7 15.55 40.6 19.05 56.15 21.75 70.5 21.1 84.7 20.55 103.05 30.65 113.0 36.15 127.5 46.1 127.1 52.75 121.95 61.65 116.8 70.5 116.5 76.1 L102.8 76.9 73.25 78.1 78.5 78.1 Q78.5 79.9 68.15 79.9 L44.05 78.25 Q8.45 74.05 -4.5 66.1 L-21.5 55.85 -34.5 47.8 -35.7 47.7 Q-40.25 45.9 -50.95 42.35 -70.4 35.8 -83.2 29.7 -127.5 8.5 -127.5 -21.4 -127.5 -34.05 -120.8 -45.4 L-120.35 -45.35 -120.4 -46.05 -120.5 -56.4" fill="#000000" fill-rule="evenodd" stroke="none"/>
    </g>
    <g id="sprite6" transform="matrix(1.0, 0.0, 0.0, 1.0, 264.55, 42.8)">
      <use height="85.6" transform="matrix(1.0, 0.0, 0.0, 1.0, -264.55, -42.8)" width="529.15" xlink:href="#shape7"/>
    </g>
    <g id="shape7" transform="matrix(1.0, 0.0, 0.0, 1.0, 264.55, 42.8)">
      <path d="M-250.55 14.7 L-264.55 1.7 -233.55 -9.35 -247.55 -25.35 -224.5 -36.35 Q-118.0 -53.1 -19.45 -26.35 L90.55 7.7 Q150.5 30.7 227.6 29.7 L264.6 42.7 Q222.65 43.35 186.3 40.55 L140.95 35.35 Q85.0 26.6 45.55 7.7 -114.8 -49.4 -216.55 -22.35 -202.65 -12.3 -216.55 4.7 L-250.55 14.7" fill="#c8c8c8" fill-rule="evenodd" stroke="none"/>
      <path d="M-200.55 -19.35 Q-193.1 -7.1 -200.55 5.15 L-216.55 4.7 Q-202.65 -12.3 -216.55 -22.35 L-200.55 -19.35" fill="#848484" fill-rule="evenodd" stroke="none"/>
      <path d="M140.95 35.35 Q65.95 26.1 45.55 15.65 -69.1 -41.7 -200.55 -19.35 L-216.55 -22.35 Q-114.8 -49.4 45.55 7.7 85.0 26.6 140.95 35.35 M-200.55 5.15 L-227.55 14.7 -250.55 14.7 -216.55 4.7 -200.55 5.15" fill="#595959" fill-rule="evenodd" stroke="none"/>
    </g>
    <g id="sprite7" transform="matrix(1.0, 0.0, 0.0, 1.0, 122.9, 70.55)">
      <use height="141.1" transform="matrix(1.0, 0.0, 0.0, 1.0, -122.9, -70.55)" width="245.85" xlink:href="#shape8"/>
    </g>
    <g id="shape8" transform="matrix(1.0, 0.0, 0.0, 1.0, 122.9, 70.55)">
      <path d="M81.65 56.35 L77.8 52.75 Q70.35 45.6 64.7 38.7 58.95 31.7 57.95 28.55 51.6 8.2 45.65 -1.5 37.65 -14.55 24.95 -19.45 15.65 -23.0 6.7 -25.6 L6.6 -25.6 6.55 -25.55 Q2.15 -24.15 -10.95 -18.0 -23.0 -12.35 -31.25 -10.2 -43.75 -6.95 -56.05 -8.45 L-52.55 -8.45 -68.95 -9.85 -99.05 -12.45 Q-109.9 -13.25 -115.4 -21.25 -120.6 -28.9 -118.55 -40.1 L-122.9 -40.8 Q-117.7 -52.6 -109.05 -59.2 -101.05 -65.35 -88.75 -67.95 -78.6 -70.1 -62.05 -70.45 -52.1 -70.65 -29.05 -70.45 L-1.4 -70.45 22.1 -70.55 Q39.6 -70.15 47.4 -66.9 54.85 -63.85 63.7 -53.85 L77.55 -37.75 87.95 -25.45 Q93.5 -19.15 98.05 -8.15 L100.5 -1.5 104.95 10.55 109.8 19.0 Q113.85 25.8 114.95 30.55 L119.3 48.0 Q122.95 63.05 122.95 65.05 122.95 67.8 114.8 69.4 L113.4 63.65 102.1 60.45 Q95.95 58.6 93.8 58.6 88.85 58.6 81.95 56.45 L81.65 56.35" fill="#000000" fill-rule="evenodd" stroke="none"/>
      <path d="M114.8 69.4 L114.0 69.55 104.45 70.55 Q97.2 70.55 81.65 56.35 L81.95 56.45 Q88.85 58.6 93.8 58.6 95.95 58.6 102.1 60.45 L113.4 63.65 114.8 69.4" fill="#1a1a1a" fill-rule="evenodd" stroke="none"/>
    </g>
    <g id="sprite8" transform="matrix(1.0, 0.0, 0.0, 1.0, 7.25, -4.85)">
      <use height="25.1" transform="matrix(1.0, 0.0, 0.0, 1.0, -6.9, 5.0)" width="192.7" xlink:href="#sprite9"/>
      <use height="25.1" transform="matrix(1.0, 0.0, 0.0, 1.0, -7.05, 5.0)" width="192.7" xlink:href="#sprite9"/>
      <use height="25.1" transform="matrix(1.0, 0.0, 0.0, 1.0, -7.05, 5.0)" width="192.7" xlink:href="#sprite9"/>
      <use height="25.1" transform="matrix(1.0, 0.0, 0.0, 1.0, -7.25, 4.85)" width="192.7" xlink:href="#text1"/>
    </g>
    <g id="sprite9" transform="matrix(1.0, 0.0, 0.0, 1.0, 7.25, -4.85)">
      <use height="25.1" transform="matrix(1.0, 0.0, 0.0, 1.0, -7.25, 4.85)" width="192.7" xlink:href="#text0"/>
    </g>
    <g id="text0" transform="matrix(1.0, 0.0, 0.0, 1.0, 9.25, -2.85)">
      <g transform="matrix(1.0, 0.0, 0.0, 1.0, -10.7, 0.0)">
        <use fill="#fe4e4e" height="25.1" transform="matrix(0.0293, 0.0, 0.0, 0.0293, 0.0, 23.0)" width="192.7" xlink:href="#font_LilyUPC_-0"/>
        <use fill="#fe4e4e" height="25.1" transform="matrix(0.0293, 0.0, 0.0, 0.0293, 17.45, 23.0)" width="192.7" xlink:href="#font_LilyUPC_B0"/>
        <use fill="#fe4e4e" height="25.1" transform="matrix(0.0293, 0.0, 0.0, 0.0293, 30.35, 23.0)" width="192.7" xlink:href="#font_LilyUPC_r0"/>
        <use fill="#fe4e4e" height="25.1" transform="matrix(0.0293, 0.0, 0.0, 0.0293, 38.45, 23.0)" width="192.7" xlink:href="#font_LilyUPC_i0"/>
        <use fill="#fe4e4e" height="25.1" transform="matrix(0.0293, 0.0, 0.0, 0.0293, 42.65, 23.0)" width="192.7" xlink:href="#font_LilyUPC_n0"/>
        <use fill="#fe4e4e" height="25.1" transform="matrix(0.0293, 0.0, 0.0, 0.0293, 53.1, 23.0)" width="192.7" xlink:href="#font_LilyUPC_g0"/>
        <use fill="#fe4e4e" height="25.1" transform="matrix(0.0293, 0.0, 0.0, 0.0293, 69.45, 23.0)" width="192.7" xlink:href="#font_LilyUPC_m0"/>
        <use fill="#fe4e4e" height="25.1" transform="matrix(0.0293, 0.0, 0.0, 0.0293, 85.35, 23.0)" width="192.7" xlink:href="#font_LilyUPC_e0"/>
        <use fill="#fe4e4e" height="25.1" transform="matrix(0.0293, 0.0, 0.0, 0.0293, 100.75, 23.0)" width="192.7" xlink:href="#font_LilyUPC_a0"/>
        <use fill="#fe4e4e" height="25.1" transform="matrix(0.0293, 0.0, 0.0, 0.0293, 116.75, 23.0)" width="192.7" xlink:href="#font_LilyUPC_b0"/>
        <use fill="#fe4e4e" height="25.1" transform="matrix(0.0293, 0.0, 0.0, 0.0293, 127.2, 23.0)" width="192.7" xlink:href="#font_LilyUPC_e0"/>
        <use fill="#fe4e4e" height="25.1" transform="matrix(0.0293, 0.0, 0.0, 0.0293, 137.0, 23.0)" width="192.7" xlink:href="#font_LilyUPC_e0"/>
        <use fill="#fe4e4e" height="25.1" transform="matrix(0.0293, 0.0, 0.0, 0.0293, 146.8, 23.0)" width="192.7" xlink:href="#font_LilyUPC_r0"/>
        <use fill="#fe4e4e" height="25.1" transform="matrix(0.0293, 0.0, 0.0, 0.0293, 160.5, 23.0)" width="192.7" xlink:href="#font_LilyUPC_.0"/>
        <use fill="#fe4e4e" height="25.1" transform="matrix(0.0293, 0.0, 0.0, 0.0293, 165.45, 23.0)" width="192.7" xlink:href="#font_LilyUPC_.0"/>
        <use fill="#fe4e4e" height="25.1" transform="matrix(0.0293, 0.0, 0.0, 0.0293, 170.4, 23.0)" width="192.7" xlink:href="#font_LilyUPC_.0"/>
      </g>
    </g>
    <g id="font_LilyUPC_-0">
      <path d="M393.5 -206.5 L393.5 -290.0 48.5 -290.0 48.5 -206.5 393.5 -206.5" fill-rule="evenodd" stroke="none"/>
    </g>
    <g id="font_LilyUPC_B0">
      <path d="M330.0 -348.0 L330.0 -348.0 Q330.0 -314.5 315.0 -302.0 300.0 -289.0 268.5 -289.0 L184.5 -289.0 184.5 -397.0 271.5 -397.0 Q327.5 -397.0 330.0 -348.0 M272.5 -80.0 L184.5 -80.0 184.5 -207.5 269.5 -207.5 Q345.0 -207.5 345.0 -142.5 345.0 -105.0 326.5 -92.5 307.5 -80.0 272.5 -80.0 M280.5 -477.5 L34.0 -477.5 34.0 0.0 256.5 0.0 Q345.5 0.0 403.0 -23.5 461.0 -47.5 461.0 -135.5 459.0 -252.0 313.5 -252.0 358.0 -252.0 398.0 -274.5 438.5 -296.5 438.5 -363.5 437.0 -426.0 395.5 -452.0 354.0 -477.5 280.5 -477.5" fill-rule="evenodd" stroke="none"/>
    </g>
    <g id="font_LilyUPC_r0">
      <path d="M29.0 0.0 L158.0 0.0 158.0 -201.5 Q158.0 -247.0 202.0 -267.0 219.5 -275.5 245.0 -275.5 274.0 -275.5 302.0 -266.0 L289.0 -342.0 Q277.0 -345.0 253.0 -345.0 228.0 -345.0 208.0 -339.0 190.5 -333.5 180.0 -326.5 169.5 -319.5 164.0 -312.5 158.5 -305.5 158.0 -305.0 L158.0 -341.0 29.0 -341.0 29.0 0.0" fill-rule="evenodd" stroke="none"/>
    </g>
    <g id="font_LilyUPC_i0">
      <path d="M90.0 -478.5 L90.0 -478.5 Q62.0 -478.5 41.5 -461.0 21.5 -443.5 21.5 -419.0 21.5 -394.5 42.0 -377.0 62.0 -359.5 90.0 -359.5 118.5 -359.5 138.5 -377.0 159.0 -394.5 159.0 -419.0 159.0 -443.5 138.5 -461.0 118.5 -478.5 90.0 -478.5 M25.5 0.0 L154.5 0.0 154.5 -341.0 25.5 -341.0 25.5 0.0" fill-rule="evenodd" stroke="none"/>
    </g>
    <g id="font_LilyUPC_n0">
      <path d="M368.5 -245.5 L368.5 -245.5 Q368.5 -266.5 356.5 -290.0 344.5 -313.0 316.0 -329.5 288.0 -346.0 243.5 -346.0 215.0 -346.0 195.5 -339.0 176.5 -331.5 166.5 -323.5 156.5 -315.0 154.5 -313.0 L154.5 -341.0 25.5 -341.0 25.5 0.0 154.5 0.0 154.5 -216.0 Q155.0 -228.5 165.0 -249.5 175.0 -270.0 207.0 -274.5 240.0 -274.5 256.5 -259.0 272.5 -244.0 272.5 -222.0 L272.5 0.0 368.5 0.0 368.5 -245.5" fill-rule="evenodd" stroke="none"/>
    </g>
    <g id="font_LilyUPC_g0">
      <path d="M242.0 -252.0 L242.0 -87.0 Q242.0 -85.0 224.5 -77.0 207.0 -69.0 186.5 -67.5 150.0 -67.5 132.5 -91.0 114.5 -114.5 114.5 -167.0 114.5 -228.5 131.5 -251.0 148.0 -273.5 186.5 -273.5 206.0 -272.5 221.0 -265.0 235.5 -257.0 242.0 -252.0 M371.0 36.0 L371.0 -341.0 242.0 -341.0 242.0 -321.5 Q233.5 -328.5 211.5 -339.0 189.0 -349.5 158.0 -349.5 119.5 -349.5 89.0 -335.5 58.5 -321.5 38.5 -280.5 18.5 -239.5 18.5 -165.0 18.5 -66.5 60.0 -31.0 101.5 4.5 153.5 6.0 186.5 6.0 210.0 0.0 233.5 -6.5 242.0 -10.5 L242.0 28.5 Q242.0 51.0 216.5 63.5 191.5 75.5 152.5 75.5 122.5 75.5 95.0 67.5 67.5 59.5 49.5 50.5 31.0 41.5 28.5 39.0 L44.0 130.0 Q47.5 133.5 89.0 141.0 130.5 148.5 190.5 148.5 285.0 146.0 328.0 113.5 371.0 81.5 371.0 36.0" fill-rule="evenodd" stroke="none"/>
    </g>
    <g id="font_LilyUPC_m0">
      <path d="M459.0 0.0 L556.0 0.0 556.0 -252.0 Q556.0 -294.0 524.5 -321.5 493.5 -348.5 431.0 -348.5 396.0 -348.0 373.5 -337.5 351.0 -327.0 341.0 -314.5 331.5 -301.5 331.0 -301.0 328.0 -312.5 310.0 -330.0 292.0 -347.5 247.0 -347.5 191.0 -346.5 158.0 -313.0 L158.0 -341.0 29.0 -341.0 29.0 0.0 158.0 0.0 158.0 -211.0 Q158.5 -224.0 167.5 -244.5 177.0 -265.0 208.0 -268.0 260.0 -268.0 260.0 -216.0 L260.0 0.0 356.0 0.0 356.0 -211.0 Q356.5 -224.0 366.0 -244.5 376.0 -265.0 406.5 -268.0 459.0 -268.0 459.0 -216.0 L459.0 0.0" fill-rule="evenodd" stroke="none"/>
    </g>
    <g id="font_LilyUPC_e0">
      <path d="M210.0 -275.5 L210.0 -275.5 Q244.0 -273.0 255.0 -252.0 266.5 -231.5 266.5 -199.0 L148.5 -199.0 Q148.5 -275.5 210.0 -275.5 M148.5 -139.5 L352.5 -139.5 Q353.0 -144.0 354.5 -156.0 355.5 -167.5 355.5 -183.5 353.0 -276.0 316.5 -311.5 291.0 -336.0 261.0 -343.5 230.5 -350.5 180.5 -350.5 105.0 -348.5 62.0 -306.0 19.5 -263.0 19.5 -163.5 21.0 1.0 168.0 9.5 172.5 9.5 180.0 10.0 187.5 10.5 191.5 10.5 243.0 10.5 281.0 1.0 318.5 -8.0 333.0 -14.0 L347.5 -96.5 Q335.0 -87.5 302.0 -73.5 268.5 -60.0 220.5 -58.5 148.5 -58.5 148.5 -139.5" fill-rule="evenodd" stroke="none"/>
    </g>
    <g id="font_LilyUPC_a0">
      <path d="M182.5 -67.5 L182.5 -67.5 Q162.0 -63.5 153.5 -63.5 118.0 -63.5 115.0 -87.0 115.0 -109.5 128.0 -120.0 141.0 -130.5 171.0 -135.0 195.5 -139.0 208.0 -145.0 220.5 -151.0 224.5 -156.5 229.0 -161.5 229.5 -162.5 L229.5 -110.5 Q229.5 -103.0 219.5 -88.5 209.0 -74.0 182.5 -67.5 M229.5 1.0 L358.5 0.0 358.5 -240.5 Q358.5 -285.0 320.0 -315.5 281.5 -346.0 195.5 -346.0 153.5 -346.0 122.0 -339.0 91.0 -332.0 73.5 -324.0 56.5 -316.0 56.5 -314.0 L35.0 -234.5 Q45.5 -245.5 79.5 -262.0 113.0 -278.5 172.0 -278.5 197.5 -278.5 214.0 -268.5 230.5 -258.0 230.5 -244.5 230.5 -230.0 211.5 -218.0 192.5 -205.5 154.5 -200.5 85.5 -190.5 51.5 -167.0 17.5 -143.5 17.5 -91.0 18.5 -43.0 53.5 -18.5 88.5 6.5 135.5 6.5 184.0 5.0 204.5 -9.5 225.5 -24.0 229.5 -33.5 L229.5 1.0" fill-rule="evenodd" stroke="none"/>
    </g>
    <g id="font_LilyUPC_b0">
      <path d="M160.0 -89.0 L160.0 -254.0 Q160.0 -256.0 177.5 -264.0 195.5 -272.0 215.5 -273.5 253.5 -273.5 270.5 -253.0 287.0 -233.0 287.0 -176.0 287.0 -114.0 270.0 -90.5 253.0 -67.5 215.5 -67.5 196.5 -68.0 181.5 -76.0 166.5 -84.0 160.0 -89.0 M31.0 -477.5 L31.0 0.0 160.0 0.0 160.0 -22.5 Q168.0 -14.5 190.0 -3.0 212.0 8.5 244.0 8.5 383.0 8.5 383.0 -177.5 383.0 -284.0 343.5 -314.5 304.0 -345.0 248.0 -347.5 215.0 -347.5 192.0 -341.0 169.0 -334.5 160.0 -329.5 L160.0 -477.5 31.0 -477.5" fill-rule="evenodd" stroke="none"/>
    </g>
    <g id="font_LilyUPC_.0">
      <path d="M35.5 0.0 L171.0 0.0 171.0 -110.0 35.5 -110.0 35.5 0.0" fill-rule="evenodd" stroke="none"/>
    </g>
    <g id="text1" transform="matrix(1.0, 0.0, 0.0, 1.0, 9.25, -2.85)">
      <g transform="matrix(1.0, 0.0, 0.0, 1.0, -10.7, 0.0)">
        <use fill="#ffffff" height="25.1" transform="matrix(0.0293, 0.0, 0.0, 0.0293, 0.0, 23.0)" width="192.7" xlink:href="#font_LilyUPC_-0"/>
        <use fill="#ffffff" height="25.1" transform="matrix(0.0293, 0.0, 0.0, 0.0293, 17.45, 23.0)" width="192.7" xlink:href="#font_LilyUPC_B0"/>
        <use fill="#ffffff" height="25.1" transform="matrix(0.0293, 0.0, 0.0, 0.0293, 30.35, 23.0)" width="192.7" xlink:href="#font_LilyUPC_r0"/>
        <use fill="#ffffff" height="25.1" transform="matrix(0.0293, 0.0, 0.0, 0.0293, 38.45, 23.0)" width="192.7" xlink:href="#font_LilyUPC_i0"/>
        <use fill="#ffffff" height="25.1" transform="matrix(0.0293, 0.0, 0.0, 0.0293, 42.65, 23.0)" width="192.7" xlink:href="#font_LilyUPC_n0"/>
        <use fill="#ffffff" height="25.1" transform="matrix(0.0293, 0.0, 0.0, 0.0293, 53.1, 23.0)" width="192.7" xlink:href="#font_LilyUPC_g0"/>
        <use fill="#ffffff" height="25.1" transform="matrix(0.0293, 0.0, 0.0, 0.0293, 69.45, 23.0)" width="192.7" xlink:href="#font_LilyUPC_m0"/>
        <use fill="#ffffff" height="25.1" transform="matrix(0.0293, 0.0, 0.0, 0.0293, 85.35, 23.0)" width="192.7" xlink:href="#font_LilyUPC_e0"/>
        <use fill="#ffffff" height="25.1" transform="matrix(0.0293, 0.0, 0.0, 0.0293, 100.75, 23.0)" width="192.7" xlink:href="#font_LilyUPC_a0"/>
        <use fill="#ffffff" height="25.1" transform="matrix(0.0293, 0.0, 0.0, 0.0293, 116.75, 23.0)" width="192.7" xlink:href="#font_LilyUPC_b0"/>
        <use fill="#ffffff" height="25.1" transform="matrix(0.0293, 0.0, 0.0, 0.0293, 127.2, 23.0)" width="192.7" xlink:href="#font_LilyUPC_e0"/>
        <use fill="#ffffff" height="25.1" transform="matrix(0.0293, 0.0, 0.0, 0.0293, 137.0, 23.0)" width="192.7" xlink:href="#font_LilyUPC_e0"/>
        <use fill="#ffffff" height="25.1" transform="matrix(0.0293, 0.0, 0.0, 0.0293, 146.8, 23.0)" width="192.7" xlink:href="#font_LilyUPC_r0"/>
        <use fill="#ffffff" height="25.1" transform="matrix(0.0293, 0.0, 0.0, 0.0293, 160.5, 23.0)" width="192.7" xlink:href="#font_LilyUPC_.0"/>
        <use fill="#ffffff" height="25.1" transform="matrix(0.0293, 0.0, 0.0, 0.0293, 165.45, 23.0)" width="192.7" xlink:href="#font_LilyUPC_.0"/>
        <use fill="#ffffff" height="25.1" transform="matrix(0.0293, 0.0, 0.0, 0.0293, 170.4, 23.0)" width="192.7" xlink:href="#font_LilyUPC_.0"/>
      </g>
    </g>
  </defs>
</svg>
