<?xml version="1.0" encoding="UTF-8" standalone="no"?>
<svg xmlns:xlink="http://www.w3.org/1999/xlink" height="394.65px" width="162.05px" xmlns="http://www.w3.org/2000/svg">
  <g transform="matrix(1.0, 0.0, 0.0, 1.0, 84.0, 126.05)">
    <clipPath id="clipPath0" transform="matrix(1.0, 0.0, 0.0, 1.0, 84.0, 126.05)">
      <use height="235.05" transform="matrix(1.0, 0.0, 0.0, 1.0, -84.0, -126.05)" width="162.05" xlink:href="#shape0"/>
    </clipPath>
    <g clip-path="url(#clipPath0)">
      <use height="211.15" transform="matrix(1.0733, 0.0, 0.0, 0.9548, -57.8527, -69.1747)" width="107.8" xlink:href="#sprite0"/>
    </g>
  </g>
  <defs>
    <g id="shape0" transform="matrix(1.0, 0.0, 0.0, 1.0, 84.0, 126.05)">
      <path d="M78.05 109.0 L-84.0 109.0 -84.0 -126.05 78.05 -126.05 78.05 109.0" fill="#7e0101" fill-rule="evenodd" stroke="none"/>
    </g>
    <g id="sprite0" transform="matrix(1.0, 0.0, 0.0, 1.0, 53.9, 105.55)">
      <use height="211.15" transform="matrix(1.0, 0.0, 0.0, 1.0, -53.9, -105.55)" width="107.8" xlink:href="#shape1"/>
    </g>
    <g id="shape1" transform="matrix(1.0, 0.0, 0.0, 1.0, 53.9, 105.55)">
      <path d="M35.1 -25.25 Q37.15 -25.25 38.55 -23.65 40.15 -21.9 40.15 -18.9 40.15 -16.8 39.3 -15.15 38.0 -12.65 35.15 -12.65 31.45 -12.65 30.35 -16.05 L30.0 -18.9 Q30.0 -21.9 31.6 -23.65 33.0 -25.25 35.1 -25.25 M31.15 9.1 Q36.25 14.7 40.65 21.65 45.15 28.8 45.15 31.4 45.15 33.55 44.2 35.15 42.75 37.65 39.5 37.65 36.5 37.65 25.95 22.05 L20.7 14.4 Q16.25 8.05 16.25 8.6 16.25 0.45 20.75 1.3 24.55 2.0 30.7 8.6 L31.15 9.1 M-49.6 -97.2 Q-45.6 -100.75 -40.05 -102.2 -34.4 -103.7 -30.55 -102.0 -26.25 -100.1 -26.25 -94.65 -26.25 -91.3 -26.55 -90.4 -27.5 -87.95 -31.25 -86.55 L-34.5 -86.2 -30.85 -85.3 -25.75 -84.65 Q-21.05 -84.65 -19.85 -86.3 -19.1 -87.35 -19.5 -89.95 -19.95 -92.65 -19.3 -93.65 -18.2 -95.3 -13.75 -95.3 -9.15 -95.3 -7.85 -92.1 L-7.5 -88.55 Q-7.5 -84.4 -12.2 -79.65 -17.85 -74.05 -25.6 -74.05 -37.35 -74.05 -45.8 -78.75 -53.9 -83.25 -53.9 -89.05 -53.9 -93.4 -49.6 -97.2 M-6.25 14.35 Q-6.25 18.55 -6.6 19.25 -8.25 22.65 -15.6 22.65 -24.05 22.65 -25.95 18.9 -26.6 17.75 -26.5 16.25 L-26.25 14.85 Q-26.25 9.1 -23.1 5.75 -20.35 2.8 -16.25 2.75 -12.2 2.75 -9.35 5.7 -6.25 8.9 -6.25 14.35 M-29.4 52.8 Q-30.0 51.7 -30.0 50.0 -30.0 47.55 -28.25 46.3 -26.7 45.15 -24.35 45.25 -22.1 45.4 -20.5 46.65 -18.75 48.05 -18.75 50.15 -18.75 53.0 -20.95 54.35 -22.5 55.3 -24.35 55.3 -28.1 55.3 -29.4 52.8" fill="#7e0101" fill-rule="evenodd" stroke="none"/>
      <path d="M1.25 -100.45 Q1.25 -97.65 -1.05 -96.3 -2.7 -95.3 -5.0 -95.3 -9.2 -95.3 -10.65 -97.85 -11.35 -99.1 -11.25 -100.6 -11.25 -103.25 -9.3 -104.55 -7.6 -105.7 -5.0 -105.5 -2.5 -105.3 -0.7 -103.95 1.25 -102.5 1.25 -100.45 M53.9 -69.25 Q53.9 -67.65 52.35 -65.0 50.35 -61.55 47.65 -61.55 44.0 -61.55 43.0 -64.5 L42.65 -67.8 Q42.65 -74.1 48.3 -74.05 50.5 -74.0 52.15 -72.7 53.9 -71.3 53.9 -69.25 M20.7 14.4 Q18.85 16.25 15.6 16.25 7.75 16.25 5.6 10.0 4.95 8.05 4.9 5.65 L5.0 3.45 Q5.0 -2.45 9.1 -4.3 12.65 -5.9 18.15 -4.2 23.25 -2.6 27.15 0.8 31.25 4.35 31.25 7.65 L31.15 9.1 30.7 8.6 Q24.55 2.0 20.75 1.3 16.25 0.45 16.25 8.6 16.25 8.05 20.7 14.4 M5.0 -8.65 Q3.75 3.9 3.75 5.45 3.75 16.7 5.15 25.45 7.6 41.05 8.4 48.45 9.95 63.15 18.95 75.3 L24.9 83.0 26.9 86.5 Q29.8 85.25 33.2 84.35 41.15 82.25 46.55 83.35 52.65 84.6 52.65 89.7 52.65 90.9 51.05 93.3 49.15 96.2 46.1 98.65 37.5 105.6 25.0 105.6 16.05 105.6 14.05 102.6 13.4 101.65 13.5 100.4 L13.75 99.2 Q13.75 96.1 16.7 93.1 14.8 92.1 13.05 90.3 L12.35 90.05 Q11.55 89.4 10.6 88.9 L10.3 87.85 Q10.1 87.3 10.05 86.45 3.15 75.7 -1.4 50.0 -5.3 27.9 -6.25 5.45 -6.25 -15.7 0.0 -27.2 2.45 -31.75 4.3 -30.8 6.25 -29.8 6.25 -22.8 L5.0 -8.65 M-29.95 -42.65 Q-27.55 -45.05 -24.35 -46.1 L-18.8 -45.95 Q-16.25 -44.5 -16.25 -40.15 -16.25 -37.2 -17.45 -34.5 -19.45 -30.15 -23.75 -30.15 -30.8 -30.15 -32.35 -33.8 -32.85 -34.95 -32.7 -36.4 L-32.5 -37.8 Q-32.5 -40.15 -29.95 -42.65 M-5.0 65.95 Q-5.0 78.7 -5.95 84.9 -8.5 101.7 -16.85 101.7 -20.6 101.7 -21.9 99.2 -22.5 98.1 -22.5 96.4 -22.5 93.15 -21.35 89.5 L-18.75 82.65 Q-15.0 72.6 -15.0 60.6 -15.0 50.0 -13.45 47.1 -12.1 44.65 -10.0 48.0 -8.1 50.9 -6.55 56.5 -5.0 62.15 -5.0 65.95" fill="#cc0000" fill-rule="evenodd" stroke="none"/>
    </g>
  </defs>
</svg>
