<?xml version="1.0" encoding="UTF-8" standalone="no"?>
<svg xmlns:xlink="http://www.w3.org/1999/xlink" height="18.9px" width="42.25px" xmlns="http://www.w3.org/2000/svg">
  <g transform="matrix(1.0, 0.0, 0.0, 1.0, 42.1, 9.3)">
    <use height="18.9" transform="matrix(1.0, 0.0, 0.0, 1.0, -42.1, -9.3)" width="42.25" xlink:href="#shape0"/>
  </g>
  <defs>
    <g id="shape0" transform="matrix(1.0, 0.0, 0.0, 1.0, 42.1, 9.3)">
      <path d="M-16.55 -6.8 L-16.4 -7.05 Q-16.0 -7.55 -15.45 -7.65 L-14.7 -7.6 -14.4 -7.35 Q-13.9 -7.0 -13.85 -6.45 -13.75 -5.8 -14.1 -5.3 L-14.35 -5.05 Q-14.6 -4.8 -15.0 -4.75 -15.55 -4.65 -16.1 -5.0 L-16.25 -5.15 -16.05 -5.35 -16.0 -5.45 -15.8 -5.4 Q-15.5 -5.1 -15.1 -5.15 -14.7 -5.2 -14.4 -5.5 L-14.3 -5.6 Q-14.1 -5.9 -14.2 -6.35 -14.25 -6.8 -14.55 -7.05 L-14.65 -7.05 -15.4 -7.2 -16.05 -6.85 -16.15 -6.6 -16.25 -6.65 -16.55 -6.8 M-18.85 -5.05 L-18.95 -5.0 -19.25 -4.8 -19.75 -4.85 -19.95 -5.25 -19.85 -5.65 -19.45 -5.95 -19.05 -5.85 -19.05 -5.8 Q-18.85 -5.7 -18.8 -5.4 -18.75 -5.2 -18.85 -5.05 M-8.05 -0.35 L-8.05 -0.3 -7.85 0.15 -7.95 0.55 -8.05 0.6 Q-8.2 0.8 -8.45 0.8 L-8.95 0.6 -9.1 0.15 -8.95 -0.3 -8.45 -0.5 -8.05 -0.35 M-5.15 -1.0 L-4.95 -1.25 -3.8 -1.7 -3.05 -1.55 -2.7 -1.25 Q-2.25 -0.8 -2.25 -0.15 -2.25 0.55 -2.7 1.05 L-3.05 1.3 -3.8 1.5 -4.95 1.05 -5.1 0.85 -4.9 0.7 -4.8 0.55 -4.6 0.7 Q-4.25 1.05 -3.8 1.05 L-3.05 0.8 -2.95 0.7 Q-2.65 0.4 -2.65 -0.1 -2.65 -0.6 -2.95 -0.95 L-3.05 -0.95 -3.8 -1.25 -4.6 -0.95 -4.8 -0.7 -4.9 -0.8 -5.15 -1.0 M-15.65 6.9 L-15.5 7.1 -14.8 7.45 -14.15 7.35 -14.0 7.25 -13.7 6.6 Q-13.65 6.15 -13.85 5.75 L-13.95 5.75 Q-14.15 5.45 -14.55 5.4 L-15.35 5.6 -15.5 5.8 -15.6 5.7 Q-15.75 5.55 -15.85 5.5 L-15.6 5.3 -14.5 5.0 Q-14.15 5.05 -13.9 5.25 L-13.55 5.55 Q-13.2 6.0 -13.3 6.6 -13.35 7.2 -13.8 7.6 L-14.2 7.8 -14.85 7.85 Q-15.45 7.8 -15.85 7.35 L-16.0 7.2 -15.75 7.05 -15.65 6.9 M-18.5 5.75 L-18.5 5.8 -18.35 6.25 -18.5 6.6 -18.6 6.6 -19.0 6.75 -19.4 6.5 -19.5 6.1 -19.3 5.7 -18.85 5.6 -18.5 5.75" fill="#000000" fill-opacity="0.2627451" fill-rule="evenodd" stroke="none"/>
      <path d="M-17.6 -5.25 L-17.65 -5.1 Q-17.85 -4.9 -18.15 -4.85 L-18.8 -4.95 -18.85 -5.05 Q-18.75 -5.2 -18.8 -5.4 -18.85 -5.7 -19.05 -5.8 L-19.05 -5.85 -18.95 -6.1 -18.4 -6.45 -17.8 -6.25 -17.75 -6.3 -17.45 -5.75 Q-17.4 -5.45 -17.6 -5.25 M-7.95 0.55 L-7.85 0.15 -8.05 -0.3 -8.05 -0.35 -7.9 -0.6 -7.25 -0.9 -6.6 -0.6 -6.55 -0.6 -6.35 0.0 -6.55 0.55 -6.6 0.65 -7.25 0.9 -7.9 0.65 -7.95 0.55 M-18.5 6.6 L-18.35 6.25 -18.5 5.8 -18.5 5.75 -18.35 5.6 Q-18.05 5.3 -17.7 5.35 -17.4 5.4 -17.2 5.7 L-17.15 5.7 Q-16.95 5.95 -17.0 6.3 L-17.25 6.7 -17.3 6.8 -17.9 7.0 Q-18.25 6.95 -18.45 6.7 L-18.5 6.6" fill="#000000" fill-opacity="0.5137255" fill-rule="evenodd" stroke="none"/>
      <path d="M-16.55 -6.8 L-16.25 -6.65 -16.15 -6.6 -15.9 -6.05 -16.0 -5.45 -16.05 -5.35 -16.25 -5.15 Q-16.45 -5.0 -16.75 -4.95 -17.15 -4.9 -17.4 -5.15 L-17.6 -5.25 Q-17.4 -5.45 -17.45 -5.75 L-17.75 -6.3 -17.6 -6.45 -17.0 -6.85 -16.55 -6.8 M-6.55 0.55 L-6.35 0.0 -6.55 -0.6 -6.4 -0.8 -5.65 -1.1 -5.15 -1.0 -4.9 -0.8 -4.8 -0.7 -4.6 -0.05 -4.8 0.55 -4.9 0.7 -5.1 0.85 -5.65 1.0 Q-6.1 1.0 -6.4 0.7 L-6.55 0.55 M-15.65 6.9 L-15.75 7.05 -16.0 7.2 -16.5 7.25 Q-16.9 7.2 -17.1 6.9 L-17.25 6.7 -17.0 6.3 Q-16.95 5.95 -17.15 5.7 L-16.95 5.55 Q-16.7 5.3 -16.3 5.35 L-15.85 5.5 Q-15.75 5.55 -15.6 5.7 L-15.5 5.8 Q-15.4 6.1 -15.45 6.45 L-15.65 6.9" fill="#000000" fill-opacity="0.7921569" fill-rule="evenodd" stroke="none"/>
      <path d="M-14.9 -9.05 L-14.85 -8.55 -15.85 -8.55 -42.1 -3.15 -16.35 -9.3 -14.9 -9.25 Q-12.1 -8.6 -11.7 -6.8 -11.5 -5.0 -13.95 -3.25 L-14.15 -3.3 -14.2 -4.15 Q-12.9 -4.65 -13.1 -6.55 -13.1 -8.1 -14.8 -8.55 L-14.9 -9.05 M-14.3 -4.15 L-14.25 -3.25 -41.5 -1.0 -14.85 -3.95 -14.3 -4.15 M-3.0 -3.4 Q-0.05 -2.25 0.15 -0.2 0.1 1.8 -2.9 3.3 L-3.1 3.25 -3.05 2.3 Q-1.55 1.95 -1.45 -0.15 -1.2 -1.85 -3.0 -2.6 L-3.0 -3.15 -3.05 -2.6 -4.1 -2.8 -33.65 -1.05 -4.55 -3.7 -3.0 -3.4 M-3.15 2.3 L-3.2 3.25 -33.35 1.35 -3.75 2.4 -3.15 2.3 M-13.65 3.8 L-13.75 4.3 -14.7 4.0 -41.5 2.45 -15.0 3.15 -13.65 3.55 Q-11.1 4.9 -11.15 6.8 -11.4 8.6 -14.25 9.6 L-14.45 9.55 -14.3 8.7 Q-12.9 8.55 -12.6 6.65 -12.2 5.15 -13.7 4.3 L-13.65 3.8 M-14.4 8.7 L-14.5 9.55 -41.45 4.65 -14.9 8.7 -14.4 8.7" fill="#ffffff" fill-opacity="0.42352942" fill-rule="evenodd" stroke="none"/>
      <path d="M-16.15 -6.6 L-16.05 -6.85 -15.4 -7.2 -14.65 -7.05 -14.55 -7.05 Q-14.25 -6.8 -14.2 -6.35 -14.1 -5.9 -14.3 -5.6 L-14.4 -5.5 Q-14.7 -5.2 -15.1 -5.15 -15.5 -5.1 -15.8 -5.4 L-16.0 -5.45 -15.9 -6.05 -16.15 -6.6 M-4.8 0.55 L-4.6 -0.05 -4.8 -0.7 -4.6 -0.95 -3.8 -1.25 -3.05 -0.95 -2.95 -0.95 Q-2.65 -0.6 -2.65 -0.1 -2.65 0.4 -2.95 0.7 L-3.05 0.8 -3.8 1.05 Q-4.25 1.05 -4.6 0.7 L-4.8 0.55 M-15.5 5.8 L-15.35 5.6 -14.55 5.4 Q-14.15 5.45 -13.95 5.75 L-13.85 5.75 Q-13.65 6.15 -13.7 6.6 L-14.0 7.25 -14.15 7.35 -14.8 7.45 -15.5 7.1 -15.65 6.9 -15.45 6.45 Q-15.4 6.1 -15.5 5.8" fill="#000000" fill-rule="evenodd" stroke="none"/>
    </g>
  </defs>
</svg>
