<?xml version="1.0" encoding="UTF-8" standalone="no"?>
<svg xmlns:xlink="http://www.w3.org/1999/xlink" height="89.0px" width="42.35px" xmlns="http://www.w3.org/2000/svg">
  <g transform="matrix(1.0, 0.0, 0.0, 1.0, 21.2, 44.5)">
    <use height="89.0" transform="matrix(1.0, 0.0, 0.0, 1.0, -21.2, -44.5)" width="42.35" xlink:href="#shape0"/>
  </g>
  <defs>
    <g id="shape0" transform="matrix(1.0, 0.0, 0.0, 1.0, 21.2, 44.5)">
      <path d="M19.25 -44.05 L20.95 -44.5 Q20.25 -39.15 14.1 -38.3 11.95 -38.0 9.9 -36.55 5.95 -33.7 3.8 -31.65 2.95 -30.8 2.45 -29.95 L2.3 -29.7 Q0.75 -26.8 3.45 -24.0 3.95 -23.5 3.65 -22.6 L3.15 -21.4 Q-0.4 -14.05 5.9 -10.4 7.45 -9.5 9.1 -8.95 L11.9 -8.3 Q15.25 -7.85 17.6 -5.05 L20.45 -2.0 Q20.95 -1.5 21.05 -0.5 21.9 6.95 16.7 10.05 L14.95 10.5 Q8.7 10.45 3.6 7.4 2.95 7.0 3.15 5.55 3.85 0.3 1.65 -2.95 0.95 -4.0 1.25 -5.45 2.0 -9.05 -1.05 -8.7 L-4.75 -7.8 Q-6.55 -7.0 -7.85 -5.35 -10.1 -2.5 -7.75 0.2 L-6.15 1.65 Q-3.8 3.25 -3.7 7.5 -3.65 11.4 -5.35 14.3 L-6.45 16.7 Q-7.05 18.5 -7.05 20.5 -7.05 29.5 -7.95 38.4 -8.05 39.5 -8.9 40.6 L-12.05 44.5 Q-14.75 40.35 -16.65 36.3 -17.05 35.5 -17.05 34.5 L-16.6 27.55 Q-16.55 27.0 -16.0 26.6 -9.0 21.4 -10.15 11.5 -10.65 7.2 -11.7 4.35 L-12.35 2.6 Q-13.0 0.7 -12.75 -1.45 -12.35 -4.7 -14.15 -5.1 L-18.05 -5.7 Q-19.85 -5.95 -20.75 -8.25 L-21.2 -9.1 Q-18.95 -13.2 -19.05 -18.5 -19.05 -19.0 -18.0 -19.1 -15.85 -19.3 -16.05 -21.5 -16.2 -23.15 -14.0 -23.0 -13.55 -23.0 -13.0 -23.4 -11.9 -24.2 -11.05 -26.5 -11.75 -21.55 -7.05 -21.8 -4.25 -21.95 -2.85 -24.4 -1.4 -26.9 0.4 -28.25 1.25 -28.85 1.55 -29.9 L1.7 -30.55 2.4 -33.35 Q3.2 -35.9 4.85 -36.75 L14.9 -41.65 Q17.1 -42.65 19.25 -44.05" fill="#4b0101" fill-rule="evenodd" stroke="none"/>
    </g>
  </defs>
</svg>
