<?xml version="1.0" encoding="UTF-8" standalone="no"?>
<svg xmlns:xlink="http://www.w3.org/1999/xlink" height="259.45px" width="713.4px" xmlns="http://www.w3.org/2000/svg">
  <g transform="matrix(1.0, 0.0, 0.0, 1.0, 172.0, 163.4)">
    <use height="176.0" transform="matrix(1.0, 0.0, 0.0, 1.0, -172.0, -155.8)" width="713.4" xlink:href="#shape0"/>
    <clipPath id="clipPath0" transform="matrix(1.0, 0.0, 0.0, 1.0, 172.0, 163.4)">
      <use height="53.2" transform="matrix(1.0, 0.0, 0.0, 1.0, 141.9, -139.8)" width="150.2" xlink:href="#shape1"/>
    </clipPath>
    <g clip-path="url(#clipPath0)">
      <use height="190.2" id="boxx" transform="matrix(-1.151, -0.3087, -0.3087, 1.151, 320.5163, -123.2404)" width="74.6" xlink:href="#sprite0"/>
    </g>
    <use height="176.0" transform="matrix(1.0, 0.0, 0.0, 1.0, -172.0, -155.8)" width="713.4" xlink:href="#shape5"/>
  </g>
  <defs>
    <g id="shape0" transform="matrix(1.0, 0.0, 0.0, 1.0, 172.0, 155.8)">
      <path d="M297.4 -147.5 L297.1 -147.95 297.1 -148.1 297.25 -148.1 297.4 -147.95 297.75 -147.95 298.1 -147.6 298.4 -147.6 324.1 -137.8 324.4 -137.6 326.9 -137.3 352.75 -129.8 353.1 -129.6 353.6 -129.6 353.9 -129.45 354.4 -129.3 354.6 -129.3 355.1 -129.1 356.4 -128.8 356.75 -128.8 358.6 -128.3 358.75 -128.1 358.9 -128.1 359.4 -127.95 360.1 -127.95 360.4 -127.8 360.75 -127.6 360.9 -127.6 361.1 -127.6 361.6 -127.45 361.75 -127.45 363.9 -126.8 364.25 -126.8 364.6 -126.6 364.75 -126.6 365.25 -126.6 367.25 -126.1 367.6 -125.95 371.4 -124.95 371.75 -124.95 373.75 -124.45 374.6 -124.1 379.25 -122.95 379.6 -122.95 380.9 -122.6 381.25 -122.45 387.1 -120.95 387.4 -120.95 393.6 -119.3 393.9 -119.3 394.6 -119.1 394.9 -118.95 397.4 -118.3 397.6 -118.3 398.1 -118.1 398.25 -118.1 398.9 -117.8 399.6 -117.8 400.1 -117.6 400.4 -117.6 401.75 -117.3 402.1 -117.1 402.6 -116.95 402.75 -116.8 404.6 -116.45 404.75 -116.45 405.1 -116.3 405.4 -116.3 405.75 -116.1 406.1 -116.1 406.6 -115.95 407.25 -115.95 407.25 -115.8 407.75 -115.6 407.6 -115.95 408.1 -115.6 408.25 -115.6 409.1 -115.45 409.4 -115.45 409.9 -115.3 410.4 -115.3 415.6 -114.3 415.6 -113.8 415.6 -113.6 415.1 -113.8 414.75 -113.8 414.6 -113.95 413.9 -113.95 413.75 -114.1 413.25 -114.1 413.1 -114.3 412.4 -114.3 412.25 -114.45 411.6 -114.45 411.4 -114.6 410.6 -114.6 410.4 -114.8 409.9 -114.8 409.75 -114.95 409.1 -114.95 408.9 -115.1 408.1 -115.1 407.9 -114.95 406.4 -114.6 406.25 -114.45 405.1 -114.1 404.75 -114.1 404.1 -113.95 403.6 -113.95 403.6 -113.8 403.1 -113.8 403.15 -113.75 403.4 -113.45 402.75 -113.6 400.9 -113.3 398.9 -114.6 398.1 -115.6 397.9 -115.8 397.9 -115.95 397.75 -115.95 397.6 -115.95 396.85 -116.15 395.9 -116.45 395.75 -116.45 393.9 -116.95 393.75 -116.95 393.15 -117.1 393.0 -117.1 348.9 -127.75 345.4 -128.6 344.9 -128.6 342.5 -129.0 306.4 -136.1 300.25 -142.45 300.1 -142.8 299.9 -142.95 298.7 -145.5 298.1 -146.8 297.9 -146.8 297.4 -147.5 M406.9 -112.8 L406.75 -112.95 407.1 -112.8 406.9 -112.8 M407.9 -112.45 L407.75 -112.6 408.1 -112.45 408.4 -112.3 408.25 -112.3 408.1 -112.45 407.9 -112.45 M408.75 -111.3 L408.6 -111.3 408.4 -111.45 Q408.6 -111.35 408.75 -111.3 L409.1 -111.1 408.75 -111.1 408.75 -111.3" fill="#000000" fill-rule="evenodd" stroke="none"/>
      <path d="M146.25 -148.3 L146.4 -148.8 146.9 -148.95 147.25 -148.95 149.9 -149.35 151.9 -149.65 157.9 -150.45 146.25 -148.3 M17.75 15.9 L15.6 16.55 1.9 15.2 12.1 15.05 17.75 15.9 M1.1 15.2 L-88.25 7.05 -101.55 5.35 0.75 14.4 1.1 14.7 1.1 15.2 M151.1 -139.6 L149.75 -142.45 149.65 -142.55 149.6 -142.6 148.85 -143.2 146.9 -144.8 183.75 -151.45 218.9 -152.45 232.9 -151.8 234.75 -147.95 234.1 -144.6 180.1 -145.6 151.1 -139.6" fill="#4f4f4f" fill-rule="evenodd" stroke="none"/>
      <path d="M151.9 -149.65 L165.75 -151.8 161.75 -151.1 161.25 -150.95 160.75 -150.95 158.1 -150.45 157.9 -150.45 151.9 -149.65 M540.75 -40.45 L540.1 -30.45 535.25 -21.6 534.6 -39.45 540.75 -40.45 M103.75 -101.1 L102.6 -101.6 113.75 -111.6 122.6 -117.1 112.4 -108.1 103.75 -101.1 M151.75 -104.8 L151.75 -104.6 151.7 -104.45 151.75 -104.8 M158.75 -105.8 L159.4 -105.3 159.9 -104.8 160.25 -104.3 160.3 -104.2 158.75 -105.8 M-33.9 -109.3 L-44.9 -109.1 Q-44.55 -109.25 -44.25 -109.45 L-43.4 -109.6 -36.6 -109.6 -33.9 -109.3" fill="#080808" fill-rule="evenodd" stroke="none"/>
      <path d="M165.75 -151.8 L172.4 -152.95 172.6 -152.95 185.75 -154.95 191.4 -154.95 192.4 -155.1 198.25 -155.1 199.25 -155.3 205.1 -155.3 205.9 -155.45 211.75 -155.45 212.75 -155.6 218.6 -155.6 219.6 -155.8 255.25 -153.3 295.25 -149.3 296.25 -149.1 297.25 -147.6 298.7 -145.5 299.9 -142.95 300.1 -142.8 261.9 -149.6 232.9 -151.8 218.9 -152.45 183.75 -151.45 146.9 -144.8 145.95 -147.2 146.25 -148.3 157.9 -150.45 158.1 -150.45 160.75 -150.95 161.25 -150.95 161.75 -151.1 165.75 -151.8" fill="#a9a9a9" fill-rule="evenodd" stroke="none"/>
      <path d="M95.95 -101.1 L96.6 -101.55 96.1 -101.1 95.95 -101.1 M102.6 -101.6 L103.75 -101.1 101.9 -101.1 102.6 -101.6" fill="#0d0d0d" fill-rule="evenodd" stroke="none"/>
      <path d="M98.4 -103.1 L110.25 -114.3 151.1 -139.6 152.75 -137.1 144.75 -132.6 137.6 -126.95 136.1 -126.45 123.1 -117.45 122.6 -117.3 122.6 -117.1 113.75 -111.6 102.6 -101.6 101.9 -101.1 93.1 -93.45 86.4 -88.45 81.6 -91.3 96.1 -101.1 96.6 -101.55 97.4 -102.1 98.1 -102.95 98.4 -103.1 M153.4 -135.95 L149.25 -133.8 153.25 -136.3 153.4 -135.95 M148.4 -133.3 L148.75 -133.6 149.25 -133.6 148.9 -133.3 148.4 -133.3" fill="#c3c3c3" fill-rule="evenodd" stroke="none"/>
      <path d="M121.25 -108.3 L116.1 -104.1 115.9 -103.8 115.1 -103.3 112.95 -101.3 112.9 -101.3 120.1 -108.1 124.4 -110.95 124.25 -110.8 121.25 -108.3 M145.55 -105.25 L145.9 -107.8 145.6 -105.3 145.55 -105.25 M150.2 -132.2 L150.4 -132.6 150.4 -132.3 150.2 -132.2" fill="#313131" fill-rule="evenodd" stroke="none"/>
      <path d="M103.75 -101.1 L112.4 -108.1 130.9 -121.3 137.6 -126.95 144.75 -132.6 147.25 -132.6 147.75 -132.8 150.4 -132.6 150.2 -132.2 149.9 -132.1 136.9 -120.6 126.1 -112.45 125.75 -112.1 125.4 -111.95 124.6 -111.1 124.4 -110.95 120.1 -108.1 112.9 -101.3 108.1 -96.95 144.1 -96.45 127.25 -88.45 142.1 -88.3 141.9 -87.3 Q145.1 -88.6 145.6 -87.3 L146.75 -88.3 157.1 -88.1 158.1 -87.8 159.1 -88.1 162.2 -87.95 162.4 -87.8 184.0 -87.4 197.4 -86.95 213.4 -87.05 280.75 -86.6 278.75 -66.8 278.75 -66.3 235.1 -64.45 156.6 -64.95 125.9 -64.45 83.6 -67.8 86.25 -88.45 86.4 -88.45 93.1 -93.45 99.4 -97.45 103.75 -101.1 M395.1 -53.3 L401.75 -53.1 415.6 -44.45 415.25 -32.6 390.9 -31.1 390.1 -43.8 395.1 -53.3 M-77.75 -102.3 L-75.9 -102.1 -79.25 -102.1 -77.75 -102.3 M-82.75 -103.1 L-84.1 -102.95 -83.1 -103.1 -82.75 -103.1 M-84.6 -102.95 L-85.75 -102.8 -86.1 -102.95 -85.6 -102.95 -84.6 -102.95 M-86.25 -102.8 L-87.6 -102.6 -87.75 -102.8 -87.1 -102.8 -86.25 -102.8 M-88.1 -102.6 L-89.25 -102.45 -88.6 -102.6 -88.1 -102.6" fill="#383838" fill-rule="evenodd" stroke="none"/>
      <path d="M95.95 -101.1 L96.1 -101.1 81.6 -91.3 81.45 -91.4 82.25 -91.8 95.95 -101.1 M101.9 -101.1 L103.75 -101.1 99.4 -97.45 93.1 -93.45 101.9 -101.1 M301.4 -14.3 L307.75 -30.8 308.6 -31.95 313.6 -45.45 314.4 -46.45 314.25 -47.1 318.4 -60.95 327.9 -66.45 319.4 -43.45 314.1 -29.95 304.9 -10.3 301.4 -14.3" fill="#1b1b1b" fill-rule="evenodd" stroke="none"/>
      <path d="M322.6 12.2 L321.4 17.05 316.1 15.55 317.25 7.4 318.1 7.4 318.6 5.55 317.4 5.55 317.6 4.05 318.6 4.05 319.25 -0.1 319.1 -0.8 318.4 -0.8 318.6 -2.3 319.4 -2.6 319.75 -3.95 318.9 -3.95 319.6 -8.95 326.9 -8.45 325.75 -1.8 322.6 12.2 M156.35 -138.6 L156.25 -138.8 152.75 -137.1 151.1 -139.6 180.1 -145.6 234.1 -144.6 275.1 -139.1 306.4 -136.1 308.75 -131.3 287.9 -132.6 286.25 -132.8 279.45 -133.65 275.25 -134.3 283.9 -133.45 282.4 -133.8 255.6 -137.1 251.1 -137.3 250.45 -137.3 229.6 -139.95 229.4 -139.95 204.1 -139.8 199.9 -139.8 194.1 -140.3 188.1 -140.1 193.55 -139.7 188.9 -139.6 181.1 -139.6 160.4 -136.8 156.4 -136.3 156.4 -136.25 153.4 -135.95 153.25 -136.3 Q155.8 -136.2 156.45 -136.95 L177.9 -139.6 156.35 -138.6 M-75.6 -47.95 L-64.1 -52.1 -49.6 -51.8 -53.1 -42.95 -55.6 -28.45 -75.9 -28.45 -73.75 -42.1 -75.6 -47.95" fill="#454545" fill-rule="evenodd" stroke="none"/>
      <path d="M145.35 -103.85 L145.55 -105.25 145.6 -105.3 145.35 -103.85 M154.75 -121.1 L154.75 -120.95 154.7 -120.9 154.75 -121.1 M152.2 -107.65 L152.25 -107.45 152.05 -106.85 152.2 -107.65 M151.9 -106.1 L151.9 -105.95 151.8 -105.3 151.75 -105.3 151.9 -106.1 M157.25 -105.9 L157.4 -105.95 157.6 -105.95 157.25 -105.9 M170.6 -10.95 L159.9 -11.45 162.6 -11.45 186.9 -11.1 170.6 -10.95 M294.4 -88.95 L301.25 -90.1 301.75 -90.3 302.25 -90.3 302.75 -90.45 303.25 -90.45 303.75 -90.6 320.4 -93.3 320.9 -93.3 322.6 -93.6 323.1 -93.6 323.6 -93.8 325.25 -93.95 325.75 -94.1 333.25 -95.3 374.25 -97.1 396.25 -96.1 414.6 -91.95 458.9 -90.8 526.1 -90.8 469.4 -86.95 336.1 -86.95 294.4 -88.95 M318.4 -60.95 L303.75 -61.6 278.9 -61.6 278.75 -66.3 278.75 -66.8 327.9 -66.45 318.4 -60.95 M-148.6 -35.6 L-145.4 -40.95 -119.6 -36.1 -148.6 -35.6" fill="#292929" fill-rule="evenodd" stroke="none"/>
      <path d="M286.9 15.55 L258.75 20.2 264.25 15.2 286.9 15.55 M156.35 -138.6 L156.1 -138.6 156.1 -138.3 156.4 -136.95 156.45 -136.95 Q155.8 -136.2 153.25 -136.3 L149.25 -133.8 153.4 -135.95 156.4 -136.25 156.6 -133.25 150.4 -132.6 147.75 -132.8 147.25 -132.6 144.75 -132.6 152.75 -137.1 156.25 -138.8 156.35 -138.6 M148.4 -133.3 L148.9 -133.3 149.25 -133.6 148.75 -133.6 148.4 -133.3 M319.6 -8.95 L304.9 -10.3 314.1 -29.95 319.4 -43.45 346.9 -52.95 328.9 -28.95 319.6 -8.95" fill="#303030" fill-rule="evenodd" stroke="none"/>
      <path d="M445.9 -104.45 L469.1 -101.8 469.9 -101.6 471.4 -101.45 472.75 -100.6 452.9 -103.1 445.9 -104.45 M144.1 -96.45 L144.4 -97.1 145.35 -103.85 145.6 -105.3 145.9 -107.8 146.1 -108.3 146.65 -111.4 148.9 -122.1 150.4 -132.3 150.4 -132.6 156.6 -133.25 156.6 -133.1 156.4 -132.6 156.4 -131.1 154.9 -121.45 154.75 -121.3 154.75 -121.1 154.7 -120.9 154.4 -120.45 152.1 -107.95 152.2 -107.65 152.05 -106.85 151.9 -106.45 151.9 -106.1 151.75 -105.3 151.75 -105.1 151.75 -104.8 151.7 -104.45 151.6 -104.3 151.4 -103.6 150.9 -100.95 147.6 -97.95 147.1 -97.3 146.75 -97.1 143.25 -93.8 142.4 -91.6 142.1 -88.3 127.25 -88.45 144.1 -96.45 M159.1 -88.1 L160.6 -89.3 162.2 -87.95 159.1 -88.1 M146.75 -88.3 L150.25 -93.3 157.1 -88.1 146.75 -88.3" fill="#3c3c3c" fill-rule="evenodd" stroke="none"/>
      <path d="M151.8 -105.3 L151.75 -105.1 151.75 -105.3 151.8 -105.3 M80.9 -0.3 L116.25 0.2 267.6 0.4 267.75 2.4 267.4 4.9 81.25 4.4 80.9 4.05 80.4 1.05 80.4 -0.3 80.9 -0.3 M267.9 -1.6 L80.6 -1.95 80.4 -2.3 80.75 -3.3 267.6 -3.1 268.4 -2.6 267.9 -1.6" fill="#7c7c7c" fill-rule="evenodd" stroke="none"/>
      <path d="M436.1 -21.95 L436.4 -20.6 422.75 -19.1 421.75 -21.95 436.1 -21.95" fill="#838383" fill-rule="evenodd" stroke="none"/>
      <path d="M112.9 -101.3 L112.95 -101.3 108.6 -97.3 108.1 -96.95 112.9 -101.3 M268.6 -8.45 L268.75 -12.3 270.25 -13.1 284.4 -13.1 301.4 -14.3 304.9 -10.3 284.25 -8.45 268.6 -8.45 M184.0 -87.4 L213.4 -87.05 197.4 -86.95 184.0 -87.4 M296.25 -101.45 L318.4 -100.45 335.9 -100.3 374.75 -104.6 374.25 -97.1 333.25 -95.3 325.75 -94.1 325.25 -93.95 323.6 -93.8 323.1 -93.6 322.6 -93.6 320.9 -93.3 320.4 -93.3 303.75 -90.6 303.25 -90.45 302.75 -90.45 302.25 -90.3 301.75 -90.3 301.25 -90.1 294.4 -88.95 293.9 -88.95 296.25 -101.45" fill="#222222" fill-rule="evenodd" stroke="none"/>
      <path d="M-148.6 -89.45 L-148.25 -89.95 -117.4 -97.8 -116.9 -97.8 -127.25 -94.8 -127.75 -94.6 -131.25 -93.6 -131.4 -93.6 -136.25 -92.1 -148.6 -89.45 M26.9 -107.8 L23.4 -108.8 25.6 -108.95 26.4 -108.8 26.9 -107.8 M34.25 -106.8 L37.6 -105.95 50.75 -105.95 43.4 -105.3 37.25 -105.3 31.4 -106.8 34.25 -106.8 M22.1 -101.6 L21.6 -103.45 26.25 -103.45 22.1 -101.6 M-68.75 -104.6 L-70.25 -104.1 -82.75 -103.1 -83.1 -103.1 -68.75 -104.6" fill="#464646" fill-rule="evenodd" stroke="none"/>
      <path d="M-166.5 -35.4 Q-165.6 -37.45 -165.6 -39.6 L-165.7 -41.4 -145.4 -40.95 -148.6 -35.6 -166.5 -35.4 M-105.6 -100.95 L-100.75 -101.8 -100.25 -101.8 -99.1 -101.95 -98.4 -101.95 -97.6 -102.1 -96.75 -102.1 -95.9 -102.3 -94.9 -102.3 -94.4 -102.45 -93.75 -102.45 -93.1 -102.45 -92.9 -102.6 -92.25 -102.6 -91.4 -102.8 -90.75 -102.8 -86.6 -103.3 -86.4 -103.3 -66.25 -105.3 -68.75 -104.6 -83.1 -103.1 -85.6 -102.95 -86.1 -102.95 -87.1 -102.8 -87.75 -102.8 -88.6 -102.6 -89.25 -102.45 -89.9 -102.6 -89.9 -102.45 -90.9 -102.3 -91.6 -102.3 -92.75 -102.1 -93.4 -102.1 -105.6 -100.95 M27.9 -107.6 L26.9 -107.8 26.4 -108.8 30.9 -107.6 27.9 -107.6 M20.6 -109.45 L17.9 -109.95 -33.9 -109.3 -36.6 -109.6 13.9 -110.45 Q21.1 -111.1 23.4 -109.45 L20.6 -109.45 M415.6 -44.45 L421.25 -41.1 428.75 -33.3 415.25 -32.6 415.6 -44.45 M391.1 -26.6 L390.9 -26.6 386.9 -29.95 386.75 -29.95 386.25 -30.45 386.6 -30.6 392.1 -27.1 393.1 -26.3 391.9 -26.1 391.1 -26.6 M-109.4 -98.6 L-122.1 -95.1 -133.1 -92.8 -131.4 -93.6 -131.25 -93.6 -127.75 -94.6 -127.25 -94.8 -116.9 -97.8 -116.4 -97.8 -109.4 -98.6" fill="#333333" fill-rule="evenodd" stroke="none"/>
      <path d="M-48.6 -109.6 L-46.1 -110.3 22.6 -111.3 43.1 -107.6 63.9 -107.6 76.4 -110.3 73.9 -108.6 71.1 -107.95 70.4 -107.8 64.1 -106.3 63.9 -106.3 62.6 -105.95 61.9 -105.95 50.75 -105.95 37.6 -105.95 34.25 -106.8 30.9 -107.6 26.4 -108.8 25.6 -108.95 23.4 -109.45 Q21.1 -111.1 13.9 -110.45 L-36.6 -109.6 -43.4 -109.6 -44.25 -109.45 -48.6 -109.6" fill="#bcbcbc" fill-rule="evenodd" stroke="none"/>
      <path d="M-56.25 -107.95 L-50.6 -109.1 -44.9 -109.1 -33.9 -109.3 17.9 -109.95 20.6 -109.45 23.4 -108.8 26.9 -107.8 27.9 -107.6 31.4 -106.8 37.25 -105.3 43.4 -105.3 58.6 -105.3 61.9 -105.95 62.6 -105.95 63.9 -106.3 64.1 -106.3 66.4 -106.6 66.9 -106.8 67.25 -106.8 70.4 -107.8 71.1 -107.8 71.1 -107.95 71.9 -107.95 67.4 -105.95 61.75 -104.6 56.6 -103.45 39.6 -103.45 26.25 -103.45 21.6 -103.45 7.6 -103.3 -42.25 -102.6 -53.4 -102.45 -60.4 -102.45 -56.25 -107.95" fill="#efefef" fill-rule="evenodd" stroke="none"/>
      <path d="M23.4 -108.8 L20.6 -109.45 23.4 -109.45 25.6 -108.95 23.4 -108.8 M415.6 -113.8 L415.75 -113.8 417.25 -112.3 417.2 -112.05 415.6 -113.8 M410.6 -107.45 L408.1 -107.45 417.4 -107.8 417.35 -108.0 417.6 -107.6 410.6 -107.45 M407.3 -107.85 L407.1 -107.95 402.35 -112.05 402.6 -111.95 403.1 -111.45 407.3 -107.85 M416.95 -109.45 L416.75 -109.6 416.9 -109.8 416.95 -109.45" fill="#090909" fill-rule="evenodd" stroke="none"/>
      <path d="M21.25 -101.6 L22.1 -101.6 39.6 -103.45 56.6 -103.45 61.75 -104.6 68.1 -104.8 46.75 -100.95 11.25 -100.95 21.25 -101.6 M83.4 -67.1 L43.75 -65.95 2.4 -65.8 -37.25 -62.6 -101.25 -61.45 -142.6 -60.1 -146.6 -77.45 -101.25 -84.6 -64.75 -87.6 -2.4 -88.6 34.25 -88.1 86.25 -88.45 83.6 -67.8 83.4 -67.1 M268.4 -2.6 L268.75 -3.1 270.25 -3.3 318.9 -3.95 319.75 -3.95 319.4 -2.6 318.6 -2.3 267.9 -1.6 268.4 -2.6 M317.4 5.55 L318.6 5.55 318.1 7.4 317.25 7.4 292.75 7.4 267.1 8.2 267.4 6.7 285.9 6.2 294.75 5.55 317.4 5.55" fill="#6a6a6a" fill-rule="evenodd" stroke="none"/>
      <path d="M-158.25 -86.8 L-157.9 -87.45 -148.6 -89.45 -136.25 -92.1 -133.1 -92.8 -122.1 -95.1 -114.1 -96.95 -113.9 -96.95 -112.9 -97.1 -102.75 -99.1 -96.1 -99.3 -95.6 -99.45 -92.25 -99.45 -91.4 -99.6 -88.4 -99.6 -87.4 -99.8 -84.6 -99.8 -83.25 -99.95 -57.9 -100.95 11.25 -100.95 46.75 -100.95 44.6 -99.95 37.9 -98.45 41.4 -92.8 -96.4 -92.95 -160.75 -81.3 -158.25 -86.8 M22.1 -101.6 L21.25 -101.6 7.6 -103.3 21.6 -103.45 22.1 -101.6 M-53.75 -101.3 L-53.4 -102.45 -42.25 -102.6 -53.75 -101.3" fill="#9e9e9e" fill-rule="evenodd" stroke="none"/>
      <path d="M39.6 -103.45 L22.1 -101.6 26.25 -103.45 39.6 -103.45" fill="#5a5a5a" fill-rule="evenodd" stroke="none"/>
      <path d="M21.25 -101.6 L11.25 -100.95 -57.9 -100.95 -53.75 -101.3 -42.25 -102.6 7.6 -103.3 21.25 -101.6" fill="#989898" fill-rule="evenodd" stroke="none"/>
      <path d="M50.75 -105.95 L61.9 -105.95 58.6 -105.3 43.4 -105.3 50.75 -105.95 M68.1 -104.8 L61.75 -104.6 67.4 -105.95 72.4 -105.95 71.9 -105.8 71.4 -105.8 69.25 -104.8 68.75 -104.8 68.1 -104.8" fill="#505050" fill-rule="evenodd" stroke="none"/>
      <path d="M46.75 -100.95 L68.1 -104.8 68.75 -104.8 67.6 -104.3 67.4 -104.1 67.25 -103.8 66.1 -102.6 65.1 -101.8 65.4 -101.6 65.75 -101.3 67.1 -99.6 67.25 -99.5 41.4 -92.8 37.9 -98.45 44.6 -99.95 46.75 -100.95 M-79.25 -102.1 L-75.9 -102.1 -77.75 -102.3 -60.4 -102.45 -53.4 -102.45 -53.75 -101.3 -57.9 -100.95 -83.25 -99.95 -84.6 -99.8 -87.4 -99.8 -88.4 -99.6 -91.4 -99.6 -92.25 -99.45 -95.6 -99.45 -96.1 -99.3 -102.75 -99.1 -102.25 -99.45 -79.25 -102.1" fill="#818181" fill-rule="evenodd" stroke="none"/>
      <path d="M72.75 -108.1 L73.4 -108.1 76.4 -108.45 76.25 -107.8 75.9 -107.45 75.4 -107.1 72.4 -105.95 67.4 -105.95 71.9 -107.95 72.4 -107.95 72.75 -108.1 M64.1 -106.3 L70.4 -107.8 67.25 -106.8 66.9 -106.8 66.4 -106.6 64.1 -106.3" fill="#555555" fill-rule="evenodd" stroke="none"/>
      <path d="M147.25 -96.6 L147.1 -97.3 147.6 -97.95 147.25 -97.45 148.25 -96.45 147.9 -96.3 147.25 -96.6" fill="#5c5c5c" fill-rule="evenodd" stroke="none"/>
      <path d="M73.4 -108.1 L77.25 -108.8 76.4 -108.45 73.4 -108.1" fill="#393939" fill-rule="evenodd" stroke="none"/>
      <path d="M71.9 -107.95 L72.4 -108.1 72.4 -107.95 71.9 -107.95 M86.75 -111.45 L88.9 -112.45 87.25 -111.3 83.4 -109.6 86.75 -111.45 M279.45 -133.65 L286.25 -132.8 286.1 -132.6 279.45 -133.65 M77.25 -108.8 L77.25 -108.6 76.9 -108.45 76.4 -108.45 76.6 -108.3 76.25 -107.8 76.4 -108.45 77.25 -108.8 M-55.6 -28.45 L-53.1 -42.95 -46.9 -43.8 -50.75 -29.1 -55.6 -28.45" fill="#202020" fill-rule="evenodd" stroke="none"/>
      <path d="M72.4 -108.1 L72.75 -108.1 72.4 -107.95 72.4 -108.1 M81.75 -56.3 L6.9 -56.3 -34.1 -58.8 -67.25 -59.45 -101.25 -61.45 -37.25 -62.6 2.4 -65.8 43.75 -65.95 83.4 -67.1 81.9 -63.3 81.75 -56.3" fill="#535353" fill-rule="evenodd" stroke="none"/>
      <path d="M417.6 -113.3 L417.75 -112.95 418.25 -112.8 428.9 -104.8 430.9 -103.3 433.6 -101.3 434.75 -100.45 436.4 -99.1 436.1 -98.6 430.4 -98.3 427.75 -96.8 410.6 -107.45 417.6 -107.6 417.35 -108.0 417.1 -109.3 416.95 -109.45 416.9 -109.8 417.1 -110.1 417.4 -111.8 417.2 -112.05 417.25 -112.3 415.75 -113.8 416.25 -114.1 417.6 -113.3 M532.75 -89.1 L538.25 -69.8 538.75 -68.45 539.6 -65.3 539.7 -64.05 539.4 -64.6 539.4 -63.6 540.3 -52.05 540.6 -43.3 540.75 -40.45 534.6 -39.45 533.6 -67.45 531.75 -72.8 527.1 -90.8 532.75 -89.1 M1.9 15.2 L1.1 15.2 1.1 14.7 0.75 14.4 1.75 6.7 1.75 6.55 2.75 -8.3 9.9 -9.1 9.75 -4.1 Q4.9 -5.3 6.4 -2.1 L9.75 -2.3 9.6 -0.45 6.6 -0.45 6.25 1.9 6.4 4.4 9.4 4.4 9.4 5.55 6.4 5.55 6.4 7.4 9.25 7.4 9.1 14.05 1.9 15.2" fill="#111111" fill-rule="evenodd" stroke="none"/>
      <path d="M9.4 4.4 L6.4 4.4 6.25 1.9 6.6 -0.45 9.6 -0.45 Q13.75 -2.8 13.75 4.05 L9.4 4.4" fill="#858585" fill-rule="evenodd" stroke="none"/>
      <path d="M530.4 -94.95 L532.75 -89.1 527.1 -90.8 530.4 -94.95 M9.6 -0.45 L9.75 -2.3 71.6 -1.95 80.4 -2.3 80.6 -1.95 80.75 -0.8 27.9 -0.1 Q28.1 4.7 30.1 4.4 L80.9 4.05 81.25 4.4 81.25 5.55 73.75 5.9 9.4 5.55 9.4 4.4 13.75 4.05 Q13.75 -2.8 9.6 -0.45 M9.75 -4.1 L9.9 -9.1 3.25 -27.1 -10.4 -45.95 6.9 -56.3 81.75 -56.3 Q80.9 -47.95 81.9 -46.95 L80.9 -33.45 81.9 -12.95 80.1 -9.45 79.9 -7.6 80.4 -3.95 45.9 -3.6 9.75 -4.1 M377.25 -66.8 L475.9 -66.8 475.25 -29.1 450.9 -30.1 426.25 -47.45 403.75 -58.8 375.4 -58.95 377.25 -66.8 M81.1 7.4 L81.6 7.9 82.4 15.9 85.75 15.9 85.9 16.4 47.6 17.05 9.1 14.05 9.25 7.4 69.75 7.7 81.1 7.4" fill="#242424" fill-rule="evenodd" stroke="none"/>
      <path d="M9.75 -2.3 L6.4 -2.1 Q4.9 -5.3 9.75 -4.1 L45.9 -3.6 80.4 -3.95 80.75 -3.3 80.4 -2.3 71.6 -1.95 9.75 -2.3" fill="#808080" fill-rule="evenodd" stroke="none"/>
      <path d="M93.25 -114.6 L93.4 -114.6 93.75 -114.8 94.25 -114.95 94.6 -115.1 95.1 -115.45 100.25 -118.1 100.75 -118.45 100.9 -118.6 101.25 -118.8 101.75 -119.3 102.25 -119.6 102.6 -119.95 103.1 -120.1 103.25 -120.45 103.75 -120.6 104.1 -121.1 104.6 -121.3 104.75 -121.6 105.4 -121.95 105.6 -122.3 106.1 -122.45 106.4 -122.95 106.9 -123.1 107.1 -123.45 107.6 -123.6 107.75 -123.95 107.9 -124.1 108.4 -124.3 108.6 -124.6 109.25 -124.95 109.4 -125.3 109.9 -125.45 110.1 -125.6 110.25 -125.95 110.75 -126.1 110.9 -126.45 111.4 -126.6 111.75 -127.1 112.1 -127.1 112.6 -127.6 113.1 -127.95 113.6 -128.1 113.9 -128.45 114.25 -128.45 114.75 -128.95 115.1 -128.95 115.6 -129.45 128.4 -137.45 128.75 -137.45 129.75 -138.3 146.25 -148.8 146.25 -148.3 145.9 -147.3 145.95 -147.2 146.9 -144.8 148.85 -143.2 149.65 -142.55 149.75 -142.45 151.1 -139.6 110.25 -114.3 98.4 -103.1 82.1 -107.6 80.1 -107.8 80.25 -107.95 80.6 -107.95 80.6 -108.1 80.9 -108.1 80.9 -108.3 81.25 -108.3 81.25 -108.45 82.75 -108.95 83.1 -109.1 83.4 -109.3 93.75 -114.1 90.6 -113.1 91.9 -113.95 93.25 -114.6 M9.9 -9.1 L2.75 -8.3 -1.4 -17.95 -5.1 -26.6 3.25 -27.1 9.9 -9.1 M475.9 -66.8 L510.4 -68.1 533.6 -67.45 534.6 -39.45 535.25 -21.6 509.75 -17.8 475.4 -15.8 475.25 -29.1 475.9 -66.8" fill="#1a1a1a" fill-rule="evenodd" stroke="none"/>
      <path d="M297.25 -147.6 L297.4 -147.5 297.9 -146.8 298.1 -146.8 298.7 -145.5 297.25 -147.6 M258.75 20.2 L89.25 19.9 85.9 16.4 91.1 16.2 156.25 16.05 172.9 15.55 212.75 16.05 257.25 15.2 264.25 15.2 258.75 20.2 M306.4 -136.1 L275.1 -139.1 234.1 -144.6 234.75 -147.95 232.9 -151.8 261.9 -149.6 300.1 -142.8 300.25 -142.45 306.4 -136.1 M79.9 -7.6 L80.1 -9.45 81.9 -12.95 80.9 -33.45 81.9 -46.95 Q80.9 -47.95 81.75 -56.3 L81.9 -63.3 83.4 -67.1 83.6 -67.8 125.9 -64.45 156.6 -64.95 235.1 -64.45 278.75 -66.3 278.9 -61.6 277.75 -58.45 279.4 -58.3 277.4 -57.8 274.75 -46.45 Q272.6 -37.8 273.6 -33.95 L269.75 -17.45 228.1 -14.75 191.6 -14.1 162.6 -11.45 159.9 -11.45 119.25 -10.3 79.9 -7.6" fill="#2c2c2c" fill-rule="evenodd" stroke="none"/>
      <path d="M80.75 -0.8 L80.9 -0.3 80.4 -0.3 80.4 1.05 80.9 4.05 30.1 4.4 Q28.1 4.7 27.9 -0.1 L80.75 -0.8 M81.4 6.05 L81.1 7.4 69.75 7.7 9.25 7.4 6.4 7.4 6.4 5.55 9.4 5.55 73.75 5.9 81.25 5.55 81.4 6.05" fill="#7f7f7f" fill-rule="evenodd" stroke="none"/>
      <path d="M80.75 -0.8 L80.6 -1.95 267.9 -1.6 267.6 0.4 116.25 0.2 80.9 -0.3 80.75 -0.8 M80.75 -3.3 L80.4 -3.95 79.9 -7.6 119.25 -10.3 159.9 -11.45 170.6 -10.95 192.9 -9.6 231.1 -9.6 268.75 -12.3 268.6 -8.45 267.6 -3.1 80.75 -3.3 M81.25 4.4 L267.4 4.9 267.4 6.7 81.4 6.05 81.25 5.55 81.25 4.4 M267.1 8.2 L266.75 14.9 264.25 15.2 257.25 15.2 123.4 15.05 91.25 15.7 85.75 15.9 82.4 15.9 81.6 7.9 267.1 8.2" fill="#252525" fill-rule="evenodd" stroke="none"/>
      <path d="M475.1 -0.95 L444.9 1.05 443.75 -14.8 443.75 -15.45 450.9 -30.1 475.25 -29.1 475.4 -15.8 475.1 -0.95 M112.95 -101.3 L115.1 -103.3 115.9 -103.8 116.1 -104.1 121.25 -108.3 145.9 -107.8 145.55 -105.25 145.35 -103.85 144.4 -97.1 144.1 -96.45 108.1 -96.95 108.6 -97.3 112.95 -101.3 M251.1 -137.3 L255.6 -137.1 282.4 -133.8 283.9 -133.45 275.25 -134.3 279.45 -133.65 286.1 -132.6 287.75 -131.45 287.9 -131.05 287.9 -130.95 291.25 -128.6 292.1 -127.3 290.4 -119.45 285.9 -110.45 284.95 -109.8 285.4 -109.8 284.75 -108.8 284.05 -107.05 283.6 -105.95 281.9 -103.3 280.9 -103.1 281.9 -103.1 281.4 -101.45 281.75 -97.3 281.45 -92.95 281.25 -90.3 281.1 -89.95 280.75 -86.6 213.4 -87.05 184.0 -87.4 162.4 -87.8 162.2 -87.95 160.6 -89.3 159.1 -88.1 158.1 -87.8 157.1 -88.1 150.25 -93.3 146.75 -88.3 145.6 -87.3 Q145.1 -88.6 141.9 -87.3 L142.1 -88.3 147.25 -96.6 147.9 -96.3 148.25 -96.45 147.25 -97.45 147.6 -97.95 150.9 -100.95 151.9 -101.8 152.4 -102.45 153.4 -102.95 154.25 -103.8 156.1 -105.1 156.25 -105.6 157.25 -105.9 157.6 -105.95 158.1 -105.95 158.75 -105.8 160.3 -104.2 160.4 -103.95 161.4 -103.6 165.4 -100.95 194.25 -99.95 262.75 -99.8 262.75 -102.45 262.25 -102.8 262.75 -103.1 262.6 -103.95 262.9 -108.95 263.6 -111.6 263.75 -111.95 264.9 -115.3 264.75 -115.6 264.8 -115.65 265.9 -118.3 266.1 -118.6 269.25 -125.8 270.1 -134.8 251.1 -137.3 M284.95 -109.8 L284.9 -109.8 284.95 -109.8" fill="#151515" fill-rule="evenodd" stroke="none"/>
      <path d="M147.1 -97.3 L147.25 -96.6 142.1 -88.3 142.4 -91.6 143.25 -93.8 146.75 -97.1 147.1 -97.3" fill="#d9d9d9" fill-rule="evenodd" stroke="none"/>
      <path d="M67.25 -99.5 L81.25 -91.3 81.45 -91.4 81.6 -91.3 86.4 -88.45 86.25 -88.45 34.25 -88.1 -2.4 -88.6 -64.75 -87.6 -101.25 -84.6 -146.6 -77.45 -147.25 -77.6 -158.1 -79.45 -160.75 -81.3 -96.4 -92.95 41.4 -92.8 67.25 -99.5" fill="#a0a0a0" fill-rule="evenodd" stroke="none"/>
      <path d="M281.45 -92.95 L281.75 -97.3 281.4 -101.45 282.4 -101.45 281.45 -92.95" fill="#212121" fill-rule="evenodd" stroke="none"/>
      <path d="M439.6 2.05 L432.75 1.2 430.9 0.05 430.6 -0.1 430.25 -0.45 430.1 -0.45 434.1 -1.1 439.6 2.05 M107.1 -123.45 L107.75 -123.95 107.6 -123.6 107.1 -123.45 M109.4 -125.3 L110.1 -125.6 109.9 -125.45 109.4 -125.3 M286.25 -132.8 L287.9 -132.6 287.9 -131.05 287.75 -131.45 286.1 -132.6 286.25 -132.8 M308.75 -131.3 L306.4 -136.1 342.5 -129.0 348.9 -127.75 393.0 -117.1 393.15 -117.1 393.75 -116.95 395.75 -116.45 396.85 -116.15 397.6 -115.95 397.75 -115.95 397.9 -115.8 398.1 -115.6 398.9 -114.6 400.9 -113.3 402.25 -112.1 402.35 -112.05 407.1 -107.95 391.25 -114.8 372.25 -118.1 343.9 -124.6 308.75 -131.3" fill="#191919" fill-rule="evenodd" stroke="none"/>
      <path d="M428.9 -104.8 L429.6 -104.8 431.4 -103.3 430.9 -103.3 428.9 -104.8 M434.6 -104.8 L445.1 -104.6 445.75 -104.45 445.9 -104.45 452.9 -103.1 436.75 -103.3 436.25 -103.6 435.75 -103.8 435.4 -104.1 434.9 -104.3 434.9 -104.45 434.6 -104.8 M522.25 -7.8 L513.4 -3.95 509.9 -3.3 522.25 -7.8 M-112.9 5.55 L-115.4 4.2 -112.6 -13.8 -107.6 -13.3 -107.9 -12.1 -108.6 -9.95 -112.9 5.55 M319.4 -43.45 L327.9 -66.45 377.25 -66.8 375.4 -58.95 347.25 -53.1 346.9 -52.95 319.4 -43.45 M434.75 -100.45 L433.6 -101.3 435.25 -100.45 434.75 -100.45 M441.1 -100.6 L440.1 -101.3 462.6 -101.1 470.9 -99.95 464.4 -100.6 441.1 -100.6" fill="#272727" fill-rule="evenodd" stroke="none"/>
      <path d="M374.75 -104.6 L374.6 -104.95 372.25 -118.1 391.25 -114.8 407.1 -107.95 407.3 -107.85 407.75 -107.45 408.1 -107.45 410.6 -107.45 427.75 -96.8 421.75 -92.3 414.6 -91.95 396.25 -96.1 374.25 -97.1 374.75 -104.6 M439.25 -28.8 L426.25 -47.45 450.9 -30.1 439.25 -28.8" fill="#171717" fill-rule="evenodd" stroke="none"/>
      <path d="M90.6 -113.1 L93.75 -114.1 83.4 -109.3 83.1 -109.1 82.75 -108.95 81.25 -108.45 81.25 -108.3 80.9 -108.3 80.9 -108.1 80.6 -108.1 80.6 -107.95 80.25 -107.95 80.6 -108.1 80.9 -108.3 81.25 -108.45 83.4 -109.6 87.25 -111.3 88.9 -112.45 90.6 -113.1 M281.4 -101.45 L281.9 -103.1 281.9 -103.3 282.9 -103.45 282.4 -101.45 281.4 -101.45" fill="#232323" fill-rule="evenodd" stroke="none"/>
      <path d="M287.9 -132.6 L308.75 -131.3 308.75 -131.1 303.4 -120.95 299.25 -110.95 298.9 -110.45 298.6 -108.8 296.25 -101.45 293.9 -88.95 281.1 -89.95 281.25 -90.3 281.45 -92.95 282.4 -101.45 282.9 -103.45 284.05 -107.05 284.75 -108.8 285.4 -109.8 284.95 -109.8 285.9 -110.45 290.4 -119.45 292.1 -127.3 291.25 -128.6 287.9 -130.95 287.9 -131.05 287.9 -132.6 M6.9 -56.3 L-10.4 -45.95 -34.1 -58.8 6.9 -56.3" fill="#323232" fill-rule="evenodd" stroke="none"/>
      <path d="M-170.4 -73.65 Q-170.35 -75.65 -169.95 -77.0 L-147.25 -77.6 -146.6 -77.45 -170.4 -73.65 M281.9 -103.3 L283.6 -105.95 284.05 -107.05 282.9 -103.45 281.9 -103.3 M284.95 -109.8 L284.9 -109.8 284.95 -109.8" fill="#2d2d2d" fill-rule="evenodd" stroke="none"/>
      <path d="M310.75 -129.1 L308.75 -131.1 308.75 -131.3 343.9 -124.6 342.6 -122.6 310.75 -129.1" fill="#363636" fill-rule="evenodd" stroke="none"/>
      <path d="M308.75 -131.1 L310.75 -129.1 302.4 -106.1 296.25 -101.45 298.6 -108.8 298.9 -110.45 299.25 -110.95 303.4 -120.95 308.75 -131.1 M257.25 15.2 L212.75 16.05 172.9 15.55 156.25 16.05 91.1 16.2 91.25 15.7 123.4 15.05 257.25 15.2" fill="#545454" fill-rule="evenodd" stroke="none"/>
      <path d="M3.25 -27.1 L-5.1 -26.6 -19.25 -39.6 -10.4 -45.95 3.25 -27.1 M268.75 -12.3 L231.1 -9.6 192.9 -9.6 170.6 -10.95 186.9 -11.1 162.6 -11.45 191.6 -14.1 228.1 -14.75 269.75 -17.45 270.25 -13.1 268.75 -12.3 M296.25 -101.45 L302.4 -106.1 338.1 -105.8 353.6 -106.3 370.1 -108.6 374.6 -104.95 374.75 -104.6 335.9 -100.3 318.4 -100.45 296.25 -101.45" fill="#262626" fill-rule="evenodd" stroke="none"/>
      <path d="M310.75 -129.1 L342.6 -122.6 370.6 -116.95 370.1 -108.6 353.6 -106.3 338.1 -105.8 302.4 -106.1 310.75 -129.1" fill="#2f2f2f" fill-rule="evenodd" stroke="none"/>
      <path d="M-140.1 3.9 L-164.9 3.2 -172.0 -1.35 -168.7 -5.75 Q-166.0 -9.05 -165.8 -11.0 -165.6 -12.7 -165.55 -16.0 L-165.6 -20.7 Q-165.6 -28.7 -166.6 -35.15 L-166.5 -35.4 -148.6 -35.6 -141.6 -26.6 -137.6 -13.6 -140.1 3.9 M280.75 -86.6 L281.1 -89.95 293.9 -88.95 294.4 -88.95 336.1 -86.95 469.4 -86.95 526.1 -90.8 527.1 -90.8 531.75 -72.8 533.6 -67.45 510.4 -68.1 475.9 -66.8 377.25 -66.8 327.9 -66.45 278.75 -66.8 280.75 -86.6" fill="#282828" fill-rule="evenodd" stroke="none"/>
      <path d="M318.4 -60.95 L312.6 -58.3 279.4 -58.3 277.75 -58.45 278.9 -61.6 303.75 -61.6 318.4 -60.95" fill="#1e1e1e" fill-rule="evenodd" stroke="none"/>
      <path d="M312.6 -58.3 L318.4 -60.95 314.25 -47.1 314.4 -46.45 313.6 -45.45 308.6 -31.95 307.75 -30.8 301.4 -14.3 299.25 -17.45 304.4 -34.45 309.75 -48.3 312.6 -58.3" fill="#4d4d4d" fill-rule="evenodd" stroke="none"/>
      <path d="M279.4 -58.3 L312.6 -58.3 309.75 -48.3 304.4 -34.45 299.25 -17.45 269.75 -17.45 273.6 -33.95 Q272.6 -37.8 274.75 -46.45 L277.4 -57.8 279.4 -58.3" fill="#343434" fill-rule="evenodd" stroke="none"/>
      <path d="M299.25 -17.45 L301.4 -14.3 284.4 -13.1 270.25 -13.1 269.75 -17.45 299.25 -17.45 M332.1 -19.95 L390.9 -25.95 391.4 -26.1 391.1 -26.6 391.9 -26.1 393.1 -26.3 392.1 -27.1 386.6 -30.6 386.25 -30.45 386.75 -29.95 384.9 -31.45 390.9 -31.1 415.25 -32.6 428.75 -33.3 433.9 -28.3 436.1 -21.95 421.75 -21.95 421.25 -21.8 420.9 -21.6 420.4 -21.45 419.75 -21.1 419.25 -20.6 419.1 -20.3 419.1 -19.95 420.25 -19.3 420.75 -19.1 421.75 -19.1 422.75 -19.1 436.4 -20.6 438.9 -14.1 439.1 -11.45 416.6 -9.8 416.6 -9.3 408.25 -9.6 325.75 -1.8 326.9 -8.45 328.4 -10.8 332.1 -19.95" fill="#434343" fill-rule="evenodd" stroke="none"/>
      <path d="M316.1 15.55 L286.9 15.55 264.25 15.2 266.75 14.9 267.1 8.2 292.75 7.4 317.25 7.4 316.1 15.55 M267.6 0.4 L267.9 -1.6 318.6 -2.3 318.4 -0.8 295.75 -0.8 286.75 -0.1 268.25 0.05 267.75 2.4 267.6 0.4 M267.6 -3.1 L268.6 -8.45 284.25 -8.45 304.9 -10.3 319.6 -8.95 318.9 -3.95 270.25 -3.3 268.75 -3.1 268.4 -2.6 267.6 -3.1 M374.6 -104.95 L370.1 -108.6 370.6 -116.95 372.25 -118.1 374.6 -104.95 M317.6 4.05 L317.4 5.55 294.75 5.55 285.9 6.2 267.4 6.7 267.4 4.9 286.1 4.7 295.25 4.05 317.6 4.05" fill="#181818" fill-rule="evenodd" stroke="none"/>
      <path d="M267.4 4.9 L267.75 2.4 268.25 0.05 286.75 -0.1 295.75 -0.8 318.4 -0.8 319.1 -0.8 319.25 -0.1 318.6 4.05 317.6 4.05 295.25 4.05 286.1 4.7 267.4 4.9" fill="#6b6b6b" fill-rule="evenodd" stroke="none"/>
      <path d="M419.9 -113.1 L416.9 -115.45 417.4 -115.45 417.75 -115.1 434.1 -104.8 434.6 -104.8 434.9 -104.45 434.9 -104.3 435.4 -104.1 435.75 -103.8 436.25 -103.6 436.75 -103.3 440.1 -101.3 441.1 -100.6 444.1 -98.6 439.1 -99.8 423.1 -111.3 422.9 -111.3 422.6 -111.6 419.9 -113.1 M498.75 -100.45 L500.4 -100.3 497.6 -96.6 496.6 -96.6 Q499.25 -98.8 498.25 -99.8 L499.25 -99.95 499.4 -100.3 498.75 -100.45 M513.75 -97.8 L530.4 -94.95 527.1 -90.8 526.1 -90.8 495.4 -95.1 495.75 -95.95 509.6 -94.3 512.6 -97.95 513.1 -97.95 513.75 -97.8" fill="#414141" fill-rule="evenodd" stroke="none"/>
      <path d="M398.9 -117.8 L398.1 -118.3 Q416.75 -118.45 417.6 -113.3 L416.25 -114.1 415.75 -113.8 415.6 -113.8 415.6 -114.3 410.4 -115.3 409.9 -115.3 409.4 -115.45 409.1 -115.45 408.25 -115.6 408.1 -115.6 407.6 -115.95 407.75 -115.6 407.25 -115.8 407.25 -115.95 406.6 -115.95 406.1 -116.1 405.75 -116.1 405.4 -116.3 405.1 -116.3 404.75 -116.45 404.6 -116.45 402.75 -116.8 402.6 -116.95 402.1 -117.1 401.75 -117.3 400.4 -117.6 400.1 -117.6 399.6 -117.8 398.9 -117.8" fill="#4a4a4a" fill-rule="evenodd" stroke="none"/>
      <path d="M429.6 -104.8 L419.9 -113.1 422.6 -111.6 422.9 -111.3 423.1 -111.3 439.1 -99.8 435.25 -100.45 433.6 -101.3 431.4 -103.3 429.6 -104.8" fill="#474747" fill-rule="evenodd" stroke="none"/>
      <path d="M485.75 -102.8 L486.1 -103.45 486.75 -103.45 497.6 -101.3 497.1 -100.8 494.1 -97.3 479.7 -98.85 495.9 -96.8 496.6 -96.6 497.6 -96.6 500.4 -100.3 500.9 -100.8 502.1 -100.8 513.4 -98.6 513.1 -97.95 512.6 -97.95 509.6 -94.3 495.75 -95.95 494.9 -95.95 476.9 -98.3 476.75 -98.3 476.1 -98.45 444.1 -98.6 441.1 -100.6 464.4 -100.6 470.9 -99.95 462.6 -101.1 440.1 -101.3 436.75 -103.3 452.9 -103.1 472.75 -100.6 482.4 -99.3 Q486.1 -101.8 485.75 -102.8 M430.9 -103.3 L431.4 -103.3 433.6 -101.3 430.9 -103.3" fill="#9a9a9a" fill-rule="evenodd" stroke="none"/>
      <path d="M486.75 -96.3 L427.75 -96.8 430.4 -98.3 436.1 -98.6 436.4 -99.1 434.75 -100.45 435.25 -100.45 439.1 -99.8 444.1 -98.6 476.1 -98.45 476.75 -98.3 476.9 -98.3 486.75 -96.3" fill="#2a2a2a" fill-rule="evenodd" stroke="none"/>
      <path d="M469.1 -101.8 L472.6 -105.1 485.75 -102.8 Q486.1 -101.8 482.4 -99.3 L472.75 -100.6 471.4 -101.45 469.9 -101.6 469.1 -101.8 M497.75 -100.8 L498.75 -100.45 499.4 -100.3 499.25 -99.95 498.25 -99.8 Q499.25 -98.8 496.6 -96.6 L495.9 -96.8 479.7 -98.85 494.1 -97.3 497.1 -100.8 497.75 -100.8 M495.4 -95.1 L486.75 -96.3 476.9 -98.3 494.9 -95.95 495.75 -95.95 495.4 -95.1" fill="#3d3d3d" fill-rule="evenodd" stroke="none"/>
      <path d="M80.25 -107.95 L80.1 -107.8 79.75 -107.8 79.75 -107.6 79.4 -107.45 79.1 -107.45 78.9 -107.3 78.75 -107.1 76.9 -106.3 76.6 -106.1 75.75 -105.8 75.6 -105.8 73.25 -104.6 73.1 -104.6 67.6 -104.3 68.75 -104.8 69.25 -104.8 71.4 -105.8 71.9 -105.8 72.4 -105.95 75.4 -107.1 75.9 -107.45 75.95 -107.45 76.75 -107.8 77.75 -107.95 86.75 -111.45 83.4 -109.6 81.25 -108.45 80.9 -108.3 80.6 -108.1 80.25 -107.95 M342.6 -122.6 L343.9 -124.6 372.25 -118.1 370.6 -116.95 342.6 -122.6 M-49.6 -51.8 L-44.1 -51.6 -46.9 -43.8 -53.1 -42.95 -49.6 -51.8" fill="#1d1d1d" fill-rule="evenodd" stroke="none"/>
      <path d="M538.25 -69.8 L538.4 -69.8 538.75 -68.45 538.25 -69.8 M540.5 -50.6 L541.25 -44.45 541.25 -43.3 540.6 -43.3 540.3 -52.05 540.4 -50.45 540.5 -50.6 M380.75 -53.6 L375.9 -53.45 352.6 -45.3 347.25 -53.1 375.4 -58.95 403.75 -58.8 426.25 -47.45 421.25 -41.1 415.6 -44.45 401.75 -53.1 395.1 -53.3 387.1 -53.45 380.75 -53.6" fill="#353535" fill-rule="evenodd" stroke="none"/>
      <path d="M387.1 -53.45 L395.1 -53.3 390.1 -43.8 387.1 -53.45" fill="#373737" fill-rule="evenodd" stroke="none"/>
      <path d="M380.75 -53.6 L387.1 -53.45 390.1 -43.8 384.4 -44.1 380.75 -53.6 M-145.4 -40.95 L-144.1 -47.8 -119.6 -47.8 -118.9 -36.1 -119.6 -36.1 -145.4 -40.95 M-106.75 -27.45 L-102.25 -27.3 -104.75 -20.8 -107.6 -13.3 -112.6 -13.8 -107.25 -27.45 -106.75 -27.45" fill="#3f3f3f" fill-rule="evenodd" stroke="none"/>
      <path d="M347.25 -53.1 L352.6 -45.3 342.1 -34.6 335.75 -28.95 328.9 -28.95 346.9 -52.95 347.25 -53.1" fill="#707070" fill-rule="evenodd" stroke="none"/>
      <path d="M335.75 -28.95 L335.4 -26.95 332.1 -19.95 328.4 -10.8 326.9 -8.45 319.6 -8.95 328.9 -28.95 335.75 -28.95 M-101.4 -28.1 L-102.25 -27.3 -106.75 -27.45 -88.75 -49.8 -88.1 -43.45 -101.4 -28.1" fill="#757575" fill-rule="evenodd" stroke="none"/>
      <path d="M384.9 -31.45 L384.75 -31.6 384.4 -44.1 390.1 -43.8 390.9 -31.1 384.9 -31.45 M-102.25 -99.45 L-102.75 -99.1 -112.9 -97.1 -112.75 -97.3 -107.15 -98.75 -107.1 -98.8 -106.9 -98.8 -105.75 -99.1 -102.25 -99.45" fill="#515151" fill-rule="evenodd" stroke="none"/>
      <path d="M89.25 19.9 L51.4 19.9 17.75 15.9 12.1 15.05 1.9 15.2 9.1 14.05 47.6 17.05 85.9 16.4 89.25 19.9 M-115.4 4.2 L-140.1 3.9 -137.6 -13.6 -141.6 -26.6 -148.6 -35.6 -119.6 -36.1 -118.9 -36.1 -107.25 -27.45 -112.6 -13.8 -115.4 4.2 M526.1 -90.8 L458.9 -90.8 414.6 -91.95 421.75 -92.3 427.75 -96.8 486.75 -96.3 495.4 -95.1 526.1 -90.8" fill="#2e2e2e" fill-rule="evenodd" stroke="none"/>
      <path d="M535.25 -21.6 L523.75 -8.3 522.9 -7.95 522.75 -7.95 522.4 -7.8 522.25 -7.8 509.9 -3.3 509.75 -3.3 509.25 -3.1 475.1 -0.95 475.4 -15.8 509.75 -17.8 535.25 -21.6 M421.25 -41.1 L426.25 -47.45 439.25 -28.8 433.9 -28.3 428.75 -33.3 421.25 -41.1" fill="#0f0f0f" fill-rule="evenodd" stroke="none"/>
      <path d="M444.9 1.05 L439.6 2.05 439.9 1.7 439.1 -11.45 438.9 -14.1 436.4 -20.6 436.1 -21.95 433.9 -28.3 439.25 -28.8 443.75 -15.45 443.75 -14.8 444.9 1.05" fill="#0a0a0a" fill-rule="evenodd" stroke="none"/>
      <path d="M421.75 -19.1 L420.9 -21.6 421.25 -21.8 421.75 -21.95 422.75 -19.1 421.75 -19.1" fill="#cacaca" fill-rule="evenodd" stroke="none"/>
      <path d="M419.75 -21.1 L419.9 -21.1 420.75 -19.1 420.25 -19.3 419.9 -20.6 419.25 -20.6 419.75 -21.1" fill="#f4f4f4" fill-rule="evenodd" stroke="none"/>
      <path d="M-117.4 -97.8 L-108.75 -100.45 -105.6 -100.95 -93.4 -102.1 -92.75 -102.1 -91.6 -102.3 -90.9 -102.3 -89.9 -102.45 -89.25 -102.45 -88.1 -102.6 -87.6 -102.6 -86.25 -102.8 -85.75 -102.8 -84.6 -102.95 -84.1 -102.95 -82.75 -103.1 -70.25 -104.1 -68.75 -104.6 -66.25 -105.3 -66.1 -105.3 -64.1 -105.95 -56.25 -107.95 -60.4 -102.45 -77.75 -102.3 -79.25 -102.1 -102.25 -99.45 -105.75 -99.1 -106.9 -98.8 -107.1 -98.8 -107.15 -98.75 -109.4 -98.6 -116.4 -97.8 -116.9 -97.8 -117.4 -97.8 M421.75 -19.1 L420.75 -19.1 419.9 -21.1 419.75 -21.1 420.4 -21.45 420.9 -21.6 421.75 -19.1" fill="#e1e1e1" fill-rule="evenodd" stroke="none"/>
      <path d="M420.25 -19.3 L419.1 -19.95 419.1 -20.3 419.25 -20.6 419.9 -20.6 420.25 -19.3" fill="#e9e9e9" fill-rule="evenodd" stroke="none"/>
      <path d="M430.1 -0.45 L322.6 12.2 325.75 -1.8 408.25 -9.6 416.6 -9.3 416.6 -9.8 439.1 -11.45 439.9 1.7 439.6 2.05 434.1 -1.1 430.1 -0.45" fill="#404040" fill-rule="evenodd" stroke="none"/>
      <path d="M439.25 -28.8 L450.9 -30.1 443.75 -15.45 439.25 -28.8" fill="#141414" fill-rule="evenodd" stroke="none"/>
      <path d="M497.6 -101.3 L497.75 -100.8 497.1 -100.8 497.6 -101.3" fill="#d7d7d7" fill-rule="evenodd" stroke="none"/>
      <path d="M513.4 -98.6 L513.75 -97.8 513.1 -97.95 513.4 -98.6" fill="#ababab" fill-rule="evenodd" stroke="none"/>
      <path d="M267.4 6.7 L267.1 8.2 81.6 7.9 81.1 7.4 81.4 6.05 267.4 6.7" fill="#7b7b7b" fill-rule="evenodd" stroke="none"/>
      <path d="M-101.55 5.35 L-103.6 5.05 -104.6 5.05 -105.1 4.9 -105.9 4.9 -108.4 4.55 -112.9 5.55 -108.6 -9.95 -105.25 -11.6 -100.75 -10.3 -99.1 -10.3 -99.4 -9.95 Q-95.9 -9.95 -93.9 -8.3 L-90.25 -7.95 -91.6 -7.6 -87.1 -7.1 -88.6 -6.8 -83.9 -5.95 -83.4 -5.95 -84.1 -5.6 -82.6 -5.6 -83.4 -5.3 -81.4 -5.45 -81.9 -5.1 -79.4 -4.45 -79.9 -4.1 -79.6 -3.6 -78.25 -3.6 -78.75 -2.95 -77.1 -2.6 -77.9 -2.1 -76.1 -1.6 -76.75 -1.1 -74.75 -0.1 -60.25 0.55 -60.1 0.9 -61.9 1.05 -58.1 1.05 -58.25 1.4 -42.9 2.7 -42.25 2.4 -42.4 2.7 -41.75 2.7 -41.7 2.65 Q-41.05 3.2 -37.6 3.2 L-35.75 2.9 -36.1 3.4 -21.25 4.7 -14.25 4.7 -13.6 5.05 -15.75 5.2 -2.4 6.4 -1.25 6.05 -0.6 6.55 -0.6 6.05 Q-0.1 6.9 1.75 6.55 L1.75 6.7 0.75 14.4 -101.55 5.35 M91.1 16.2 L85.9 16.4 85.75 15.9 91.25 15.7 91.1 16.2 M-98.25 -8.45 Q-103.05 -5.85 -107.9 -3.3 L-87.9 2.4 -79.25 -2.8 -79.4 -3.1 -98.25 -8.45 M-35.4 3.05 L-34.9 2.9 -35.1 3.2 -35.4 3.05 M-39.75 2.4 L-39.9 2.7 -40.25 2.4 -39.75 2.4 M-40.75 2.7 L-41.1 2.4 -40.6 2.4 -40.75 2.7" fill="#676767" fill-rule="evenodd" stroke="none"/>
      <path d="M2.75 -8.3 L1.75 6.55 Q-0.1 6.9 -0.6 6.05 L-0.6 6.55 -1.25 6.05 -2.4 6.4 -15.75 5.2 -13.6 5.05 -14.25 4.7 -21.25 4.7 -36.1 3.4 -35.75 2.9 -37.6 3.2 Q-41.05 3.2 -41.7 2.65 L-41.75 2.7 -42.4 2.7 -42.25 2.4 -42.9 2.7 -58.25 1.4 -58.1 1.05 -61.9 1.05 -60.1 0.9 -60.25 0.55 -74.75 -0.1 -76.75 -1.1 -76.1 -1.6 -77.9 -2.1 -77.1 -2.6 -78.75 -2.95 -78.25 -3.6 -79.6 -3.6 -79.9 -4.1 -79.4 -4.45 -81.9 -5.1 -81.4 -5.45 -83.4 -5.3 -82.6 -5.6 -84.1 -5.6 -83.4 -5.95 -83.9 -5.95 -88.6 -6.8 -87.1 -7.1 -91.6 -7.6 -90.25 -7.95 -93.9 -8.3 Q-95.9 -9.95 -99.4 -9.95 L-99.1 -10.3 -100.75 -10.3 -105.25 -11.6 -108.6 -9.95 -107.9 -12.1 -105.25 -11.6 -92.4 -18.3 -86.4 -21.45 -75.9 -28.45 -55.6 -28.45 -50.75 -29.1 -58.75 -23.3 -58.6 -22.95 -1.4 -17.95 2.75 -8.3 M-85.75 -15.1 L-94.6 -10.45 -75.4 -5.1 -67.6 -9.95 -85.75 -15.1 M-40.75 2.7 L-40.6 2.4 -41.1 2.4 -40.75 2.7 M-39.75 2.4 L-40.25 2.4 -39.9 2.7 -39.75 2.4 M-35.4 3.05 L-35.1 3.2 -34.9 2.9 -35.4 3.05" fill="#686868" fill-rule="evenodd" stroke="none"/>
      <path d="M-169.95 -77.0 L-169.5 -78.15 -169.25 -78.6 -167.75 -78.95 -164.75 -80.1 -160.75 -81.3 -158.1 -79.45 -147.25 -77.6 -169.95 -77.0 M-101.4 -28.1 L-88.1 -43.45 -75.6 -47.95 -73.75 -42.1 -75.9 -28.45 -86.4 -21.45 -101.4 -28.1" fill="#565656" fill-rule="evenodd" stroke="none"/>
      <path d="M-165.7 -41.4 Q-166.15 -44.55 -168.25 -46.4 L-170.45 -58.25 Q-169.8 -60.15 -169.8 -62.65 -169.8 -65.45 -170.35 -71.2 L-170.4 -73.65 -146.6 -77.45 -142.6 -60.1 -144.1 -47.8 -145.4 -40.95 -165.7 -41.4" fill="#444444" fill-rule="evenodd" stroke="none"/>
      <path d="M-93.75 -102.45 L-92.9 -102.6 -93.1 -102.45 -93.75 -102.45 M-86.4 -103.3 L-73.6 -104.95 -73.1 -104.95 -64.1 -105.95 -66.1 -105.3 -66.25 -105.3 -86.4 -103.3 M-102.25 -27.3 L-101.4 -28.1 -86.4 -21.45 -92.4 -18.3 -104.75 -20.8 -102.25 -27.3" fill="#747474" fill-rule="evenodd" stroke="none"/>
      <path d="M-50.6 -109.1 L-48.6 -109.6 -44.25 -109.45 Q-44.55 -109.25 -44.9 -109.1 L-50.6 -109.1" fill="#494949" fill-rule="evenodd" stroke="none"/>
      <path d="M-164.75 -80.1 L-158.25 -86.8 -160.75 -81.3 -164.75 -80.1" fill="#8f8f8f" fill-rule="evenodd" stroke="none"/>
      <path d="M-118.9 -36.1 L-119.6 -47.8 -88.75 -49.8 -106.75 -27.45 -107.25 -27.45 -118.9 -36.1" fill="#5f5f5f" fill-rule="evenodd" stroke="none"/>
      <path d="M-104.75 -20.8 L-92.4 -18.3 -105.25 -11.6 -107.9 -12.1 -107.6 -13.3 -104.75 -20.8" fill="#575757" fill-rule="evenodd" stroke="none"/>
      <path d="M-85.75 -15.1 L-67.6 -9.95 -75.4 -5.1 -94.6 -10.45 -85.75 -15.1" fill="#fefefe" fill-rule="evenodd" stroke="none"/>
      <path d="M-98.25 -8.45 L-79.4 -3.1 -79.25 -2.8 -87.9 2.4 -107.9 -3.3 Q-103.05 -5.85 -98.25 -8.45" fill="#ffffff" fill-rule="evenodd" stroke="none"/>
      <path d="M-101.25 -61.45 L-67.25 -59.45 -88.75 -49.8 -119.6 -47.8 -144.1 -47.8 -142.6 -60.1 -101.25 -61.45" fill="#737373" fill-rule="evenodd" stroke="none"/>
      <path d="M-67.25 -59.45 L-34.1 -58.8 -10.4 -45.95 -19.25 -39.6 -39.25 -51.45 -44.1 -51.6 -49.6 -51.8 -64.1 -52.1 -75.6 -47.95 -88.1 -43.45 -88.75 -49.8 -67.25 -59.45" fill="#646464" fill-rule="evenodd" stroke="none"/>
      <path d="M91.9 -113.95 L92.1 -114.1 93.25 -114.6 91.9 -113.95" fill="#0c0c0c" fill-rule="evenodd" stroke="none"/>
      <path d="M77.6 -108.95 L91.9 -113.95 90.6 -113.1 88.9 -112.45 86.75 -111.45 77.75 -107.95 77.6 -108.95" fill="#010101" fill-rule="evenodd" stroke="none"/>
      <path d="M80.1 -107.8 L82.1 -107.6 98.4 -103.1 98.1 -102.95 97.4 -102.1 96.6 -101.55 95.95 -101.1 82.25 -91.8 81.45 -91.4 81.25 -91.3 67.25 -99.5 67.1 -99.6 65.75 -101.3 65.4 -101.6 65.1 -101.8 66.1 -102.6 67.25 -103.8 67.4 -104.1 67.6 -104.3 73.1 -104.6 73.25 -104.6 75.6 -105.8 75.75 -105.8 76.6 -106.1 76.9 -106.3 78.75 -107.1 78.9 -107.3 79.1 -107.45 79.4 -107.45 79.75 -107.6 79.75 -107.8 80.1 -107.8" fill="#1a1a1a" fill-opacity="0.50980395" fill-rule="evenodd" stroke="none"/>
      <path d="M156.45 -136.95 L156.4 -136.95 156.1 -138.3 156.1 -138.6 156.35 -138.6 177.9 -139.6 156.45 -136.95 M156.6 -133.25 L156.4 -136.25 156.4 -136.3 160.4 -136.8 160.4 -136.6 160.4 -136.45 160.25 -136.1 159.1 -127.3 158.75 -126.6 158.9 -126.6 157.1 -116.95 156.75 -116.3 156.9 -116.3 156.9 -115.6 156.25 -112.3 156.1 -111.95 156.1 -111.45 155.9 -110.8 155.75 -109.95 155.6 -109.6 155.6 -109.1 155.25 -108.1 155.25 -107.45 157.25 -106.3 157.4 -105.95 157.25 -105.9 156.25 -105.6 156.1 -105.1 154.25 -103.8 153.4 -102.95 152.4 -102.45 151.9 -101.8 150.9 -100.95 151.4 -103.6 151.6 -104.3 151.7 -104.45 151.75 -104.6 151.75 -104.8 151.75 -105.1 151.8 -105.3 151.9 -105.95 151.9 -106.1 151.9 -106.45 152.05 -106.85 152.25 -107.45 152.2 -107.65 152.1 -107.95 154.4 -120.45 154.7 -120.9 154.75 -120.95 154.75 -121.1 154.75 -121.3 154.9 -121.45 156.4 -131.1 156.4 -132.6 156.6 -133.1 156.6 -133.25 M193.55 -139.7 L188.1 -140.1 194.1 -140.3 199.9 -139.8 194.75 -139.6 193.55 -139.7 M158.25 -107.8 L158.1 -108.1 158.6 -108.3 158.9 -107.3 158.75 -106.45 158.25 -107.3 158.25 -107.8" fill="#020202" fill-opacity="0.50980395" fill-rule="evenodd" stroke="none"/>
      <path d="M121.25 -108.3 L124.25 -110.8 124.6 -111.1 125.4 -111.95 125.75 -112.1 126.1 -112.45 136.9 -120.6 149.9 -132.1 150.2 -132.2 150.4 -132.3 146.65 -111.4 146.1 -108.3 145.9 -107.8 121.25 -108.3" fill="#060606" fill-rule="evenodd" stroke="none"/>
      <path d="M77.25 -108.8 L77.6 -108.95 77.75 -107.95 76.75 -107.8 75.95 -107.45 75.9 -107.45 76.25 -107.8 76.6 -108.3 76.4 -108.45 76.9 -108.45 77.25 -108.6 77.25 -108.8" fill="#010101" fill-opacity="0.50980395" fill-rule="evenodd" stroke="none"/>
      <path d="M262.9 -108.95 L262.6 -112.3 264.75 -115.6 264.9 -115.3 263.75 -111.95 263.6 -111.6 262.9 -108.95 M281.9 -103.1 L280.9 -103.1 281.9 -103.3 281.9 -103.1" fill="#040404" fill-opacity="0.50980395" fill-rule="evenodd" stroke="none"/>
      <path d="M358.6 -128.3 L358.9 -128.1 358.75 -128.1 358.6 -128.3 M360.4 -127.8 L360.9 -127.6 360.75 -127.6 360.4 -127.8 M364.25 -126.8 L364.75 -126.6 364.6 -126.6 364.25 -126.8 M204.1 -139.8 L229.4 -139.95 248.4 -137.45 226.1 -138.3 204.1 -139.8 M400.9 -113.3 L402.75 -113.6 403.4 -113.45 403.15 -113.75 403.1 -113.8 403.6 -113.8 403.6 -113.95 404.1 -113.95 404.75 -114.1 405.1 -114.1 406.25 -114.45 406.4 -114.6 407.9 -114.95 408.1 -115.1 408.9 -115.1 409.1 -114.95 409.75 -114.95 409.9 -114.8 410.4 -114.8 410.6 -114.6 411.4 -114.6 411.6 -114.45 412.25 -114.45 412.4 -114.3 413.1 -114.3 413.25 -114.1 413.75 -114.1 413.9 -113.95 414.6 -113.95 414.75 -113.8 415.1 -113.8 415.6 -113.6 415.6 -113.8 417.2 -112.05 417.4 -111.8 417.1 -110.1 416.9 -109.8 416.75 -109.6 416.95 -109.45 417.1 -109.3 417.35 -108.0 417.4 -107.8 408.1 -107.45 407.75 -107.45 407.3 -107.85 403.1 -111.45 402.6 -111.95 402.35 -112.05 402.25 -112.1 400.9 -113.3 M406.9 -112.8 L407.1 -112.8 406.75 -112.95 406.9 -112.8 M407.9 -112.45 L408.1 -112.45 408.25 -112.3 408.4 -112.3 408.1 -112.45 407.75 -112.6 407.9 -112.45 M408.75 -111.3 Q408.6 -111.35 408.4 -111.45 L408.6 -111.3 408.75 -111.3 408.75 -111.1 409.1 -111.1 408.75 -111.3" fill="#000000" fill-opacity="0.50980395" fill-rule="evenodd" stroke="none"/>
      <path d="M539.7 -64.05 L540.9 -61.6 541.4 -54.1 541.1 -51.6 540.5 -50.6 540.4 -50.45 540.3 -52.05 539.4 -63.6 539.4 -64.6 539.7 -64.05" fill="#a20202" fill-opacity="0.5019608" fill-rule="evenodd" stroke="none"/>
      <path d="M157.4 -105.95 L157.25 -106.3 155.25 -107.45 155.25 -108.1 155.6 -109.1 155.6 -109.6 155.75 -109.95 155.9 -110.8 156.1 -111.45 156.1 -111.95 156.25 -112.3 156.9 -115.6 156.9 -116.3 156.75 -116.3 157.1 -116.95 158.9 -126.6 158.75 -126.6 159.1 -127.3 160.25 -136.1 160.4 -136.45 160.4 -136.6 160.4 -136.8 181.1 -139.6 188.9 -139.6 194.75 -139.6 199.9 -139.8 204.1 -139.8 226.1 -138.3 248.4 -137.45 248.6 -137.45 249.75 -137.3 250.45 -137.3 251.1 -137.3 270.1 -134.8 269.25 -125.8 266.1 -118.6 265.9 -118.3 264.8 -115.65 264.75 -115.6 262.6 -112.3 262.9 -108.95 262.6 -103.95 262.75 -103.1 262.25 -102.8 262.75 -102.45 262.75 -99.8 194.25 -99.95 165.4 -100.95 161.4 -103.6 160.4 -103.95 160.3 -104.2 160.25 -104.3 159.9 -104.8 159.4 -105.3 158.75 -105.8 158.1 -105.95 157.6 -105.95 157.4 -105.95 M158.25 -107.8 L158.25 -107.3 158.75 -106.45 158.9 -107.3 158.6 -108.3 158.1 -108.1 158.25 -107.8" fill="#5e5e5e" fill-opacity="0.7019608" fill-rule="evenodd" stroke="none"/>
    </g>
    <g id="shape1" transform="matrix(1.0, 0.0, 0.0, 1.0, -141.9, 139.8)">
      <path d="M160.4 -136.8 L181.1 -139.6 204.1 -139.8 226.1 -138.3 248.6 -137.45 249.75 -137.3 255.6 -137.1 282.4 -133.8 283.9 -133.45 275.25 -134.3 286.1 -132.6 287.75 -131.45 287.9 -130.95 291.25 -128.6 292.1 -127.3 290.4 -119.45 285.9 -110.45 284.95 -109.8 284.9 -109.8 285.4 -109.8 284.75 -108.8 283.6 -105.95 281.9 -103.3 280.9 -103.1 281.9 -103.1 281.4 -101.45 281.75 -97.3 281.25 -90.3 281.1 -89.95 280.75 -86.6 162.4 -87.8 160.6 -89.3 159.1 -88.1 158.1 -87.8 157.1 -88.1 150.25 -93.3 146.75 -88.3 145.6 -87.3 Q145.1 -88.6 141.9 -87.3 L142.1 -88.3 147.25 -96.6 147.9 -96.3 148.25 -96.45 147.25 -97.45 147.6 -97.95 151.9 -101.8 152.4 -102.45 153.4 -102.95 154.25 -103.8 156.1 -105.1 156.25 -105.6 157.25 -105.9 157.6 -105.95 157.4 -105.95 157.25 -106.3 155.25 -107.45 155.25 -108.1 155.6 -109.1 155.6 -109.6 155.75 -109.95 155.9 -110.8 156.1 -111.45 156.1 -111.95 156.25 -112.3 156.9 -115.6 156.9 -116.3 156.75 -116.3 157.1 -116.95 158.9 -126.6 158.75 -126.6 159.1 -127.3 160.25 -136.1 160.4 -136.45 160.4 -136.6 160.4 -136.8 M262.6 -112.3 L262.9 -108.95 263.6 -111.6 263.75 -111.95 264.9 -115.3 264.75 -115.6 262.6 -112.3 M158.1 -108.1 L158.25 -107.8 158.25 -107.3 158.75 -106.45 158.9 -107.3 158.6 -108.3 158.1 -108.1 M159.4 -105.3 L158.75 -105.8 160.3 -104.2 160.25 -104.3 159.9 -104.8 159.4 -105.3" fill="#000000" fill-opacity="0.7019608" fill-rule="evenodd" stroke="none"/>
    </g>
    <g id="sprite0" transform="matrix(1.0, 0.0, 0.0, 1.0, 28.35, -0.05)">
      <use height="156.35" transform="matrix(1.0, 0.0, 0.0, 1.0, -28.35, 33.9)" width="68.2" xlink:href="#shape2"/>
      <use height="47.0" transform="matrix(0.9773, 0.0, 0.0, 0.9773, 0.3, 0.05)" width="47.0" xlink:href="#sprite1"/>
      <use height="12.6" transform="matrix(1.0, 0.0, 0.0, 1.0, 13.9, 20.55)" width="30.25" xlink:href="#sprite2"/>
    </g>
    <g id="shape2" transform="matrix(1.0, 0.0, 0.0, 1.0, 28.35, -33.9)">
      <path d="M18.0 41.25 L10.75 102.4 28.3 140.15 32.3 182.9" fill="none" stroke="#000000" stroke-linecap="round" stroke-linejoin="round" stroke-width="14.75"/>
      <path d="M10.75 102.4 L-3.0 139.5 -21.0 181.0" fill="none" stroke="#000000" stroke-linecap="round" stroke-linejoin="round" stroke-width="14.75"/>
      <path d="M17.1 49.05 L-6.8 80.75 -13.2 113.0" fill="none" stroke="#000000" stroke-linecap="round" stroke-linejoin="round" stroke-width="14.75"/>
      <path d="M17.1 49.05 L32.5 81.0 29.5 114.0" fill="none" stroke="#000000" stroke-linecap="round" stroke-linejoin="round" stroke-width="14.75"/>
    </g>
    <g id="sprite1" transform="matrix(1.0, 0.0, 0.0, 1.0, 0.0, 0.0)">
      <use height="47.0" transform="matrix(1.0, 0.0, 0.0, 1.0, 0.0, 0.0)" width="47.0" xlink:href="#shape3"/>
    </g>
    <g id="shape3" transform="matrix(1.0, 0.0, 0.0, 1.0, 0.0, 0.0)">
      <path d="M0.0 23.5 Q0.0 13.8 6.85 6.9 13.75 0.0 23.5 0.0 33.2 0.0 40.1 6.9 47.0 13.8 47.0 23.5 47.0 33.25 40.1 40.15 33.2 47.0 23.5 47.0 13.75 47.0 6.85 40.15 0.0 33.25 0.0 23.5" fill="#000000" fill-rule="evenodd" stroke="none"/>
    </g>
    <g id="sprite2" transform="matrix(1.0, 0.0, 0.0, 1.0, 15.1, 6.3)">
      <use height="12.6" transform="matrix(1.0, 0.0, 0.0, 1.0, -15.1, -6.3)" width="30.25" xlink:href="#shape4"/>
    </g>
    <g id="shape4" transform="matrix(1.0, 0.0, 0.0, 1.0, 15.1, 6.3)">
      <path d="M14.3 3.25 Q12.85 4.85 11.1 5.95 L6.0 6.2 3.4 5.0 Q3.7 2.3 2.75 0.95 1.1 1.45 -0.5 4.0 -6.4 6.2 -12.75 3.35 L-14.95 0.55 Q-15.35 -1.25 -14.55 -4.35 -12.9 -5.3 -11.3 -6.3 -4.85 -4.0 2.9 -0.7 L3.1 -0.95 3.0 -0.05 3.8 -1.0 3.4 -0.35 12.85 -1.5 14.85 -1.3 15.15 -0.05 14.3 3.05 14.3 3.25" fill="#ffffff" fill-rule="evenodd" stroke="none"/>
    </g>
    <g id="shape5" transform="matrix(1.0, 0.0, 0.0, 1.0, 172.0, 155.8)">
      <path d="M426.9 -0.05 L322.6 12.2 321.4 17.05 316.1 15.55 286.9 15.55 258.75 20.2 51.4 19.9 17.75 15.9 15.6 16.55 1.9 15.2 1.1 15.2 -88.25 7.05 -103.6 5.05 -104.6 5.05 -105.1 4.9 -105.9 4.9 -108.4 4.55 -112.9 5.55 -115.4 4.2 -164.95 3.15 -172.0 -1.35 -168.7 -5.75 Q-166.0 -9.05 -165.8 -11.0 -165.6 -12.7 -165.55 -16.0 L-165.6 -20.7 Q-165.6 -28.75 -166.6 -35.15 -165.6 -37.3 -165.6 -39.6 -165.6 -44.05 -168.25 -46.4 L-170.45 -58.25 Q-169.8 -60.15 -169.8 -62.65 -169.8 -65.45 -170.35 -71.2 -170.65 -76.05 -169.5 -78.15 L-169.25 -78.6 -167.75 -78.95 -164.75 -80.1 -158.25 -86.8 -157.9 -87.45 -148.6 -89.45 -148.25 -89.95 -117.4 -97.8 -108.75 -100.45 -100.75 -101.8 -100.25 -101.8 -99.1 -101.95 -98.4 -101.95 -97.6 -102.1 -96.75 -102.1 -95.9 -102.3 -94.9 -102.3 -94.4 -102.45 -93.75 -102.45 -92.9 -102.6 -92.25 -102.6 -91.4 -102.8 -90.75 -102.8 -86.6 -103.3 -86.4 -103.3 -73.6 -104.95 -73.1 -104.95 -64.1 -105.95 -46.1 -110.3 22.6 -111.3 43.1 -107.6 63.9 -107.6 76.4 -110.3 73.9 -108.6 71.1 -107.95 71.9 -107.95 72.4 -108.1 73.4 -108.1 77.25 -108.8 77.6 -108.95 91.9 -113.95 92.1 -114.1 93.25 -114.6 93.4 -114.6 93.75 -114.8 94.25 -114.95 94.6 -115.1 95.1 -115.45 100.25 -118.1 100.75 -118.45 100.9 -118.6 101.25 -118.8 101.75 -119.3 102.25 -119.6 102.6 -119.95 103.1 -120.1 103.25 -120.45 103.75 -120.6 104.1 -121.1 104.6 -121.3 104.75 -121.6 105.4 -121.95 105.6 -122.3 106.1 -122.45 106.4 -122.95 106.9 -123.1 107.1 -123.45 107.75 -123.95 107.9 -124.1 108.4 -124.3 108.6 -124.6 109.25 -124.95 109.4 -125.3 110.1 -125.6 110.25 -125.95 110.75 -126.1 110.9 -126.45 111.4 -126.6 111.75 -127.1 112.1 -127.1 112.6 -127.6 113.1 -127.95 113.6 -128.1 113.9 -128.45 114.25 -128.45 114.75 -128.95 115.1 -128.95 115.6 -129.45 128.4 -137.45 128.75 -137.45 129.75 -138.3 146.25 -148.8 146.25 -148.3 146.4 -148.8 146.9 -148.95 147.25 -148.95 149.9 -149.35 151.9 -149.65 172.4 -152.95 172.6 -152.95 185.75 -154.95 191.4 -154.95 192.4 -155.1 198.25 -155.1 199.25 -155.3 205.1 -155.3 205.9 -155.45 211.75 -155.45 212.75 -155.6 218.6 -155.6 219.6 -155.8 255.25 -153.3 295.25 -149.3 296.25 -149.1 297.25 -147.6 297.4 -147.5 297.1 -147.95 297.1 -148.1 297.25 -148.1 297.4 -147.95 297.75 -147.95 298.1 -147.6 298.4 -147.6 324.1 -137.8 324.4 -137.6 326.9 -137.3 352.75 -129.8 353.1 -129.6 353.6 -129.6 353.9 -129.45 354.4 -129.3 354.6 -129.3 355.1 -129.1 356.4 -128.8 356.75 -128.8 358.6 -128.3 358.9 -128.1 359.4 -127.95 360.1 -127.95 360.9 -127.6 361.1 -127.6 361.6 -127.45 361.75 -127.45 363.9 -126.8 364.25 -126.8 364.75 -126.6 365.25 -126.6 367.25 -126.1 367.6 -125.95 371.4 -124.95 371.75 -124.95 373.75 -124.45 374.6 -124.1 379.25 -122.95 379.6 -122.95 380.9 -122.6 381.25 -122.45 387.1 -120.95 387.4 -120.95 393.6 -119.3 393.9 -119.3 394.6 -119.1 394.9 -118.95 397.4 -118.3 397.6 -118.3 398.1 -118.1 398.25 -118.1 398.9 -117.8 398.1 -118.3 Q416.75 -118.45 417.6 -113.3 L417.75 -112.95 418.25 -112.8 428.9 -104.8 429.6 -104.8 416.9 -115.45 417.4 -115.45 417.75 -115.1 434.1 -104.8 445.1 -104.6 445.75 -104.45 445.9 -104.45 469.1 -101.8 472.6 -105.1 485.75 -102.8 486.1 -103.45 486.75 -103.45 497.6 -101.3 497.75 -100.8 498.75 -100.45 500.4 -100.3 500.9 -100.8 502.1 -100.8 513.4 -98.6 513.75 -97.8 530.4 -94.95 532.75 -89.1 538.25 -69.8 538.4 -69.8 539.6 -65.3 539.7 -64.05 540.9 -61.6 541.4 -54.1 541.1 -51.6 540.5 -50.6 541.25 -44.45 541.25 -43.3 540.6 -43.3 540.75 -40.45 540.1 -30.45 535.25 -21.6 523.75 -8.3 522.9 -7.95 522.75 -7.95 522.4 -7.8 522.25 -7.8 513.4 -3.95 509.9 -3.3 509.75 -3.3 509.25 -3.1 493.85 -2.1 444.9 1.05 439.6 2.05 432.75 1.2 430.9 0.05 430.6 -0.1 430.25 -0.45 430.1 -0.45 426.9 -0.05 M145.95 -147.2 L146.25 -148.3 145.9 -147.3 145.95 -147.2 M146.65 -111.4 L148.9 -122.1 150.4 -132.3 146.65 -111.4 M124.4 -110.95 L124.25 -110.8 124.6 -111.1 124.4 -110.95 M137.6 -126.95 L136.1 -126.45 123.1 -117.45 122.6 -117.3 122.6 -117.1 112.4 -108.1 130.9 -121.3 137.6 -126.95 M30.9 -107.6 L27.9 -107.6 31.4 -106.8 34.25 -106.8 30.9 -107.6 M397.75 -115.95 L397.9 -115.8 397.9 -115.95 397.75 -115.95 M396.85 -116.15 L395.9 -116.45 395.75 -116.45 393.9 -116.95 393.75 -116.95 395.75 -116.45 396.85 -116.15 M345.4 -128.6 L344.9 -128.6 342.5 -129.0 348.9 -127.75 345.4 -128.6 M194.75 -139.6 L193.55 -139.7 188.9 -139.6 194.75 -139.6 M248.4 -137.45 L248.6 -137.45 249.75 -137.3 250.45 -137.3 229.6 -139.95 229.4 -139.95 248.4 -137.45 M71.1 -107.95 L70.4 -107.8 71.1 -107.8 71.1 -107.95 M390.9 -26.6 L386.9 -29.95 386.75 -29.95 384.9 -31.45 384.75 -31.6 384.4 -44.1 380.75 -53.6 375.9 -53.45 352.6 -45.3 342.1 -34.6 335.75 -28.95 335.4 -26.95 332.1 -19.95 390.9 -25.95 391.4 -26.1 391.35 -26.2 391.1 -26.6 390.9 -26.6 M-87.6 -102.6 L-87.75 -102.8 -88.6 -102.6 -87.6 -102.6 M-87.1 -102.8 L-85.75 -102.8 -86.1 -102.95 -87.1 -102.8 M-112.75 -97.3 L-107.15 -98.75 -109.4 -98.6 -122.1 -95.1 -114.1 -96.95 -113.9 -96.95 -112.9 -97.1 -112.75 -97.3 M-84.1 -102.95 L-83.1 -103.1 -85.6 -102.95 -84.1 -102.95 M-89.25 -102.45 L-89.9 -102.6 -89.9 -102.45 -89.25 -102.45 M-133.1 -92.8 L-131.4 -93.6 -136.25 -92.1 -133.1 -92.8 M-46.9 -43.8 L-50.75 -29.1 -58.75 -23.3 -58.6 -22.95 -1.4 -17.95 -5.1 -26.6 -19.25 -39.6 -39.25 -51.45 -44.1 -51.6 -46.9 -43.8" fill="url(#gradient0)" fill-rule="evenodd" stroke="none"/>
      <path d="M493.85 -2.1 Q495.35 -0.45 497.35 -0.2 L504.55 0.95 Q509.55 2.35 514.8 2.0 519.15 2.0 523.2 3.15 526.15 4.1 524.7 7.1 L524.0 7.4 Q523.45 7.55 523.05 7.85 L520.65 8.95 512.05 8.7 Q500.7 8.2 489.65 9.2 488.8 10.85 487.15 11.4 L485.9 11.75 483.3 12.6 Q477.8 14.4 472.05 15.15 L454.3 13.9 443.55 12.6 Q442.25 12.35 441.1 11.8 L439.0 11.5 Q437.45 11.75 436.3 10.65 435.4 9.65 433.9 9.35 432.4 9.5 431.7 8.2 L426.9 -0.05 430.1 -0.45 430.25 -0.45 430.6 -0.1 430.9 0.05 432.75 1.2 439.6 2.05 444.9 1.05 493.85 -2.1 M390.9 -25.95 L332.1 -19.95 335.4 -26.95 335.75 -28.95 342.1 -34.6 352.6 -45.3 375.9 -53.45 380.75 -53.6 384.4 -44.1 384.75 -31.6 384.9 -31.45 386.75 -29.95 386.9 -29.95 390.9 -26.6 390.9 -25.95 M-46.9 -43.8 L-44.1 -51.6 -39.25 -51.45 -19.25 -39.6 -5.1 -26.6 -1.4 -17.95 -58.6 -22.95 -58.75 -23.3 -50.75 -29.1 -46.9 -43.8" fill="#000000" fill-rule="evenodd" stroke="none"/>
    </g>
    <linearGradient gradientTransform="matrix(0.0, -0.1074, 0.4421, 0.0, 179.25, -67.8)" gradientUnits="userSpaceOnUse" id="gradient0" spreadMethod="pad" x1="-819.2" x2="819.2">
      <stop offset="0.4627450980392157" stop-color="#000000" stop-opacity="0.8117647"/>
      <stop offset="0.9254901960784314" stop-color="#000000" stop-opacity="0.2627451"/>
    </linearGradient>
  </defs>
</svg>
