<?xml version="1.0" encoding="UTF-8" standalone="no"?>
<svg xmlns:xlink="http://www.w3.org/1999/xlink" height="142.3px" width="184.2px" xmlns="http://www.w3.org/2000/svg">
  <g transform="matrix(1.0, 0.0, 0.0, 1.0, 90.7, 69.3)">
    <use height="137.7" transform="matrix(1.0, 0.0, 0.0, 1.0, -83.25, -66.65)" width="166.55" xlink:href="#sprite0"/>
    <use height="137.7" transform="matrix(1.0, 0.0, 0.0, 1.0, -83.25, -66.65)" width="166.55" xlink:href="#sprite1"/>
    <use height="47.9" transform="matrix(1.0, 0.0, 0.0, 1.0, -90.7, 25.1)" width="176.0" xlink:href="#sprite2"/>
    <use height="47.9" transform="matrix(1.0, 0.0, 0.0, 1.0, -85.5, -22.4)" width="176.0" xlink:href="#sprite4"/>
    <use height="47.9" transform="matrix(1.0, 0.0, 0.0, 1.0, -82.5, -69.3)" width="176.0" xlink:href="#sprite6"/>
  </g>
  <defs>
    <g id="sprite0" transform="matrix(1.0, 0.0, 0.0, 1.0, 83.25, 68.85)">
      <use height="137.7" transform="matrix(1.0, 0.0, 0.0, 1.0, -83.25, -68.85)" width="166.55" xlink:href="#shape0"/>
    </g>
    <g id="shape0" transform="matrix(1.0, 0.0, 0.0, 1.0, 83.25, 68.85)">
      <path d="M78.8 -65.35 L83.3 -60.9 83.3 -30.0 79.1 -25.85 -46.45 -25.85 -50.6 -30.0 -50.6 -56.75 -46.45 -60.9 38.65 -60.9 43.1 -65.35 78.8 -65.35 M34.35 -17.55 L34.35 -16.4 33.2 -16.4 33.2 -17.55 34.35 -17.55 34.35 -18.75 35.5 -18.75 35.5 -17.55 34.35 -17.55 M30.85 -22.2 L32.0 -22.2 32.0 -18.75 30.85 -18.75 30.85 -22.2 M35.5 -22.2 L36.7 -22.2 36.7 -18.75 35.5 -18.75 35.5 -22.2 M0.5 -19.9 L0.5 -21.05 -3.0 -21.05 -3.0 -19.9 0.5 -19.9 M1.7 -16.4 L0.5 -16.4 0.5 -18.7 -3.0 -18.7 -3.0 -16.4 -4.15 -16.4 -4.15 -22.2 1.7 -22.2 1.7 -16.4 M8.7 -22.2 L8.7 -21.05 4.0 -21.05 4.0 -17.55 7.5 -17.55 7.5 -18.7 5.2 -18.7 5.2 -19.9 8.7 -19.9 8.7 -16.4 2.85 -16.4 2.85 -22.2 8.7 -22.2 M16.85 -16.4 L16.85 -22.2 22.7 -22.2 22.7 -16.4 21.5 -16.4 21.5 -21.05 18.0 -21.05 18.0 -16.4 16.85 -16.4 M14.5 -17.55 L14.5 -22.2 15.7 -22.2 15.7 -16.4 9.85 -16.4 9.85 -22.2 11.0 -22.2 11.0 -17.55 14.5 -17.55 M34.15 -68.85 L36.5 -68.85 36.5 -63.05 35.3 -63.05 35.3 -67.7 34.15 -67.7 34.15 -68.85 M33.0 -68.85 L33.0 -65.35 28.3 -65.35 28.3 -64.2 33.0 -64.2 33.0 -63.05 27.15 -63.05 27.15 -66.55 31.8 -66.55 31.8 -67.7 27.15 -67.7 27.15 -68.85 33.0 -68.85 M20.15 -63.05 L20.15 -68.85 25.95 -68.85 25.95 -63.05 24.8 -63.05 24.8 -67.7 23.65 -67.7 23.65 -63.05 22.45 -63.05 22.45 -67.7 21.3 -67.7 21.3 -63.05 20.15 -63.05 M29.7 -16.4 L23.85 -16.4 23.85 -22.2 29.7 -22.2 29.7 -16.4 M28.5 -17.55 L28.5 -21.05 25.0 -21.05 25.0 -17.55 28.5 -17.55 M33.2 -18.75 L33.2 -17.55 32.0 -17.55 32.0 -18.75 33.2 -18.75 M78.6 -18.25 L83.1 -13.8 83.1 17.1 78.9 21.3 -60.5 21.3 -64.65 17.1 -64.65 -9.65 -60.5 -13.8 38.4 -13.8 42.9 -18.25 78.6 -18.25 M83.1 64.7 L78.9 68.85 -78.85 68.85 -79.1 68.6 -79.15 68.6 -83.25 64.45 -83.25 37.65 -79.15 33.55 38.15 33.55 42.6 29.05 78.3 29.05 78.55 29.3 78.6 29.3 83.1 33.8 83.1 64.7 M-5.3 25.35 L-5.3 27.65 -6.5 27.65 -6.5 28.85 -5.3 28.85 -5.3 31.15 -11.15 31.15 -11.15 25.35 -5.3 25.35 M-13.5 -21.05 L-12.3 -21.05 -12.3 -17.55 -13.5 -17.55 -13.5 -16.4 -18.15 -16.4 -18.15 -22.2 -13.5 -22.2 -13.5 -21.05 M-5.3 -17.55 L-5.3 -16.4 -6.5 -16.4 -6.5 -17.55 -5.3 -17.55 M-5.3 -18.7 L-6.5 -18.7 -6.5 -17.55 -7.65 -17.55 -7.65 -18.7 -10.0 -18.7 -10.0 -16.4 -11.15 -16.4 -11.15 -22.2 -5.3 -22.2 -5.3 -18.7 M-6.5 -21.05 L-10.0 -21.05 -10.0 -19.9 -6.5 -19.9 -6.5 -21.05 M29.7 26.5 L27.35 26.5 27.35 31.15 26.15 31.15 26.15 26.5 23.85 26.5 23.85 25.35 29.7 25.35 29.7 26.5 M30.85 26.5 L30.85 25.35 36.7 25.35 36.7 26.5 34.35 26.5 34.35 31.15 33.15 31.15 33.15 26.5 30.85 26.5 M8.7 30.0 L8.7 31.15 7.5 31.15 7.5 30.0 8.7 30.0 M4.0 31.15 L2.85 31.15 2.85 25.35 8.7 25.35 8.7 28.85 7.5 28.85 7.5 30.0 6.35 30.0 6.35 28.85 4.0 28.85 4.0 31.15 M0.5 31.15 L0.5 28.85 -3.0 28.85 -3.0 31.15 -4.15 31.15 -4.15 25.35 1.7 25.35 1.7 31.15 0.5 31.15 M0.5 27.65 L0.5 26.5 -3.0 26.5 -3.0 27.65 0.5 27.65 M7.5 27.65 L7.5 26.5 4.0 26.5 4.0 27.65 7.5 27.65 M14.5 31.15 L14.5 30.0 15.7 30.0 15.7 31.15 14.5 31.15 M11.0 28.85 L11.0 31.15 9.85 31.15 9.85 25.35 15.7 25.35 15.7 28.85 14.5 28.85 14.5 30.0 13.35 30.0 13.35 28.85 11.0 28.85 M11.0 27.65 L14.5 27.65 14.5 26.5 11.0 26.5 11.0 27.65 M18.0 26.5 L18.0 27.65 20.35 27.65 20.35 28.85 18.0 28.85 18.0 30.0 22.7 30.0 22.7 31.15 16.85 31.15 16.85 25.35 22.7 25.35 22.7 26.5 18.0 26.5" fill="#000000" fill-opacity="0.5294118" fill-rule="evenodd" stroke="none"/>
    </g>
    <g id="sprite1" transform="matrix(1.0, 0.0, 0.0, 1.0, 83.25, 68.85)">
      <use height="100.0" transform="matrix(1.0, 0.0, 0.0, 1.0, -50.6, -68.85)" width="133.9" xlink:href="#shape1"/>
    </g>
    <g id="shape1" transform="matrix(1.0, 0.0, 0.0, 1.0, 50.6, 68.85)">
      <path d="M78.8 -65.35 L83.3 -60.9 83.3 -30.0 79.1 -25.85 -46.45 -25.85 -50.6 -30.0 -50.6 -56.75 -46.45 -60.9 38.65 -60.9 43.1 -65.35 78.8 -65.35 M35.5 -18.75 L35.5 -22.2 36.7 -22.2 36.7 -18.75 35.5 -18.75 35.5 -17.55 34.35 -17.55 34.35 -16.4 33.2 -16.4 33.2 -17.55 32.0 -17.55 32.0 -18.75 30.85 -18.75 30.85 -22.2 32.0 -22.2 32.0 -18.75 33.2 -18.75 33.2 -17.55 34.35 -17.55 34.35 -18.75 35.5 -18.75 M1.7 -16.4 L0.5 -16.4 0.5 -18.7 -3.0 -18.7 -3.0 -16.4 -4.15 -16.4 -4.15 -22.2 1.7 -22.2 1.7 -16.4 M0.5 -19.9 L0.5 -21.05 -3.0 -21.05 -3.0 -19.9 0.5 -19.9 M8.7 -22.2 L8.7 -21.05 4.0 -21.05 4.0 -17.55 7.5 -17.55 7.5 -18.7 5.2 -18.7 5.2 -19.9 8.7 -19.9 8.7 -16.4 2.85 -16.4 2.85 -22.2 8.7 -22.2 M15.7 -22.2 L15.7 -16.4 9.85 -16.4 9.85 -22.2 11.0 -22.2 11.0 -17.55 14.5 -17.55 14.5 -22.2 15.7 -22.2 M18.0 -21.05 L18.0 -16.4 16.85 -16.4 16.85 -22.2 22.7 -22.2 22.7 -16.4 21.5 -16.4 21.5 -21.05 18.0 -21.05 M31.8 -66.55 L31.8 -67.7 27.15 -67.7 27.15 -68.85 33.0 -68.85 33.0 -65.35 28.3 -65.35 28.3 -64.2 33.0 -64.2 33.0 -63.05 27.15 -63.05 27.15 -66.55 31.8 -66.55 M35.3 -67.7 L34.15 -67.7 34.15 -68.85 36.5 -68.85 36.5 -63.05 35.3 -63.05 35.3 -67.7 M20.15 -63.05 L20.15 -68.85 25.95 -68.85 25.95 -63.05 24.8 -63.05 24.8 -67.7 23.65 -67.7 23.65 -63.05 22.45 -63.05 22.45 -67.7 21.3 -67.7 21.3 -63.05 20.15 -63.05 M-6.5 28.85 L-5.3 28.85 -5.3 31.15 -11.15 31.15 -11.15 25.35 -5.3 25.35 -5.3 27.65 -6.5 27.65 -6.5 28.85 M-13.5 -22.2 L-13.5 -21.05 -12.3 -21.05 -12.3 -17.55 -13.5 -17.55 -13.5 -16.4 -18.15 -16.4 -18.15 -22.2 -13.5 -22.2 M-6.5 -16.4 L-6.5 -17.55 -5.3 -17.55 -5.3 -16.4 -6.5 -16.4 M-6.5 -19.9 L-6.5 -21.05 -10.0 -21.05 -10.0 -19.9 -6.5 -19.9 M-5.3 -18.7 L-6.5 -18.7 -6.5 -17.55 -7.65 -17.55 -7.65 -18.7 -10.0 -18.7 -10.0 -16.4 -11.15 -16.4 -11.15 -22.2 -5.3 -22.2 -5.3 -18.7 M29.7 26.5 L27.35 26.5 27.35 31.15 26.15 31.15 26.15 26.5 23.85 26.5 23.85 25.35 29.7 25.35 29.7 26.5 M36.7 25.35 L36.7 26.5 34.35 26.5 34.35 31.15 33.15 31.15 33.15 26.5 30.85 26.5 30.85 25.35 36.7 25.35 M1.7 31.15 L0.5 31.15 0.5 28.85 -3.0 28.85 -3.0 31.15 -4.15 31.15 -4.15 25.35 1.7 25.35 1.7 31.15 M0.5 27.65 L0.5 26.5 -3.0 26.5 -3.0 27.65 0.5 27.65 M7.5 30.0 L8.7 30.0 8.7 31.15 7.5 31.15 7.5 30.0 6.35 30.0 6.35 28.85 4.0 28.85 4.0 31.15 2.85 31.15 2.85 25.35 8.7 25.35 8.7 28.85 7.5 28.85 7.5 30.0 M7.5 27.65 L7.5 26.5 4.0 26.5 4.0 27.65 7.5 27.65 M15.7 31.15 L14.5 31.15 14.5 30.0 15.7 30.0 15.7 31.15 M11.0 27.65 L14.5 27.65 14.5 26.5 11.0 26.5 11.0 27.65 M18.0 26.5 L18.0 27.65 20.35 27.65 20.35 28.85 18.0 28.85 18.0 30.0 22.7 30.0 22.7 31.15 16.85 31.15 16.85 25.35 22.7 25.35 22.7 26.5 18.0 26.5 M15.7 25.35 L15.7 28.85 14.5 28.85 14.5 30.0 13.35 30.0 13.35 28.85 11.0 28.85 11.0 31.15 9.85 31.15 9.85 25.35 15.7 25.35 M29.7 -22.2 L29.7 -16.4 23.85 -16.4 23.85 -22.2 29.7 -22.2 M25.0 -17.55 L28.5 -17.55 28.5 -21.05 25.0 -21.05 25.0 -17.55" fill="#ffffff" fill-opacity="0.47843137" fill-rule="evenodd" stroke="none"/>
    </g>
    <g id="sprite2" transform="matrix(1.0, 0.0, 0.0, 1.0, 90.65, 22.0)">
      <use height="44.5" transform="matrix(1.0, 0.0, 0.0, 1.0, -83.2, -20.55)" width="166.35" xlink:href="#sprite3"/>
    </g>
    <g id="sprite3" transform="matrix(1.0, 0.0, 0.0, 1.0, 83.2, 20.55)">
      <use height="39.8" transform="matrix(1.0, 0.0, 0.0, 1.0, -83.2, -15.85)" width="166.35" xlink:href="#shape2"/>
      <use height="7.8" transform="matrix(1.0, 0.0, 0.0, 1.0, -11.1, -20.55)" width="54.85" xlink:href="#text0"/>
    </g>
    <g id="shape2" transform="matrix(1.0, 0.0, 0.0, 1.0, 83.2, 15.85)">
      <path d="M81.4 18.95 L81.4 -10.8 78.0 -14.15 43.5 -14.15 39.45 -10.1 Q39.05 -9.7 38.45 -9.7 L-78.15 -9.7 -81.5 -6.35 -81.5 19.2 -78.4 22.3 78.1 22.3 81.4 18.95 M83.15 19.8 L78.95 23.95 -78.8 23.95 -79.05 23.7 -79.1 23.7 -83.2 19.55 -83.2 -7.25 -79.1 -11.35 38.2 -11.35 42.65 -15.85 78.35 -15.85 78.6 -15.6 78.65 -15.6 83.15 -11.1 83.15 19.8 M64.3 0.75 L64.7 1.15 65.0 1.6 65.4 1.65 66.2 1.6 67.5 1.6 68.5 1.9 68.85 2.3 68.85 2.35 68.85 2.45 67.7 5.85 Q66.65 8.95 66.7 10.05 L66.9 11.95 66.95 12.5 67.05 13.1 66.0 13.9 64.55 14.35 64.45 14.35 64.15 14.35 63.8 14.25 63.7 14.25 63.7 14.45 62.95 14.45 62.6 14.4 60.35 14.2 59.75 14.1 57.75 13.8 55.15 13.3 52.75 13.1 52.35 13.0 52.15 12.95 52.05 12.9 51.25 11.0 50.75 9.95 50.1 8.4 49.9 7.95 49.7 7.65 49.4 7.2 38.45 7.2 38.4 7.25 Q38.0 7.45 37.15 8.25 L36.95 8.4 36.55 8.85 35.75 9.85 35.6 10.25 35.7 10.65 35.75 11.0 35.8 11.0 38.4 13.6 39.3 14.8 Q40.55 16.5 40.55 17.6 40.55 18.05 40.0 18.25 L39.0 18.55 37.75 19.05 36.45 19.35 Q35.05 19.35 35.0 18.65 L34.95 17.75 34.75 16.95 34.3 16.2 33.9 15.5 Q33.75 15.3 33.15 15.05 L32.6 14.8 32.65 14.55 32.75 14.25 32.75 13.95 32.45 13.4 Q32.15 13.1 31.45 13.05 L31.3 13.05 30.5 13.25 30.2 13.3 29.25 13.3 28.1 12.95 27.45 12.7 26.95 12.5 26.9 12.85 26.5 12.9 26.6 13.5 26.6 13.55 26.55 13.95 26.35 13.95 26.3 13.75 26.2 13.4 26.05 13.05 25.6 13.6 25.6 19.6 25.3 19.85 24.3 19.65 23.8 19.5 23.8 19.45 23.75 19.45 23.8 19.5 23.75 19.5 23.1 19.35 21.4 19.2 20.3 19.15 20.0 19.15 19.55 19.1 19.5 19.1 19.3 19.1 17.6 18.75 16.2 18.5 15.4 18.45 15.15 18.45 14.75 18.35 13.7 18.1 12.65 17.85 11.85 17.75 11.9 10.55 12.05 10.5 12.05 10.4 12.05 10.3 11.8 9.95 12.15 10.0 12.15 9.95 11.75 9.9 10.9 9.65 9.45 9.25 8.95 8.7 8.95 8.65 8.7 8.0 8.35 7.3 8.2 7.0 8.2 6.95 8.1 6.95 7.2 6.95 6.05 6.95 -24.75 6.95 -25.1 6.2 -25.1 5.65 -25.15 5.3 -25.15 5.15 -61.8 5.15 -61.8 5.3 Q-61.6 6.1 -62.2 6.3 L-63.6 6.4 -65.9 6.4 -67.9 6.4 -69.95 5.25 -70.15 4.65 -70.25 4.3 -70.3 3.95 -70.35 3.75 -70.25 3.2 -70.25 3.05 -70.15 2.55 -70.15 2.5 Q-69.75 2.25 -69.55 2.15 L-69.45 2.1 -68.6 1.75 -67.45 1.5 -66.45 1.3 -61.05 1.3 -61.0 1.35 -60.9 1.35 -60.85 1.35 -60.65 1.6 -60.45 2.1 -60.45 2.35 -60.5 2.35 -60.45 2.4 -24.95 2.4 -24.95 2.35 -24.9 2.3 -24.9 2.05 -24.8 1.15 -23.6 1.05 -23.5 1.05 -23.5 0.9 -23.5 0.85 Q-23.45 0.35 -23.0 0.2 L-21.7 0.15 -20.4 0.05 -19.45 0.0 -18.9 -0.05 -18.45 0.2 -18.3 0.4 -18.2 0.6 -18.05 1.0 -18.05 1.05 -17.65 1.2 -7.0 1.2 -5.7 1.05 -3.9 0.9 -1.4 1.0 0.25 1.3 0.3 1.3 2.25 1.75 15.05 1.7 15.05 -0.5 15.1 -0.5 15.05 -0.6 15.05 -1.1 15.05 -1.2 15.05 -1.4 15.1 -2.4 14.75 -2.35 14.35 -2.35 13.75 -2.4 13.4 -2.45 13.4 -2.8 13.35 -2.8 12.5 -2.85 12.15 -2.85 11.8 -2.85 10.0 -2.75 9.9 -2.7 7.75 -2.65 5.8 -2.5 5.35 -2.5 3.9 -2.35 3.1 -2.35 2.4 -2.35 2.15 -2.35 1.75 -2.4 1.65 -2.4 Q1.15 -2.6 0.95 -3.2 L0.85 -4.4 Q0.85 -5.0 1.15 -5.85 1.5 -6.8 1.8 -6.9 L16.25 -6.9 16.35 -7.0 16.6 -7.35 17.0 -7.4 17.2 -7.4 17.9 -7.4 18.3 -7.35 18.65 -7.15 18.85 -6.95 18.95 -6.85 19.0 -6.8 26.1 -6.9 26.1 -7.25 27.75 -7.25 27.75 -6.9 27.75 -6.8 29.85 -6.8 31.55 -7.25 31.6 -7.3 31.8 -7.25 35.05 -7.25 35.05 -6.95 Q35.7 -5.85 35.7 -4.95 L35.7 -4.5 35.55 -4.15 35.1 -3.45 35.1 -3.2 31.9 -3.2 31.65 -3.25 30.65 -3.55 30.55 -2.55 30.5 -1.45 30.55 -0.55 30.65 -0.45 30.85 -0.45 32.5 -0.55 34.55 -0.4 34.85 -0.35 35.05 -0.25 35.55 0.35 35.7 1.35 35.7 1.7 35.95 1.7 36.05 1.7 36.2 1.6 37.35 1.35 38.65 1.2 41.95 0.9 63.55 0.9 63.8 0.9 64.0 0.85 64.3 0.75 M16.35 1.2 L18.6 1.3 18.9 1.35 19.0 1.35 19.25 1.2 19.35 0.75 19.15 0.45 18.9 0.15 16.15 0.15 15.85 0.4 15.65 0.75 15.75 1.2 16.1 1.3 16.35 1.2 M19.95 0.75 L20.05 1.2 20.45 1.3 20.65 1.25 20.7 1.2 23.0 1.3 23.3 1.35 23.65 1.2 23.75 0.75 23.55 0.45 23.25 0.15 20.45 0.15 20.15 0.4 19.95 0.75 M23.1 -1.35 L23.1 -2.25 21.9 -2.35 21.5 -2.4 21.4 -2.35 21.4 -1.3 21.4 -0.95 21.35 -0.5 24.0 -0.5 23.95 -1.0 24.0 -1.35 23.85 -1.35 23.15 -1.35 23.1 -1.35 M24.65 0.3 L24.55 0.4 24.35 0.75 24.45 1.2 24.8 1.3 24.95 1.3 25.05 1.2 27.35 1.3 27.65 1.35 Q27.9 1.35 27.95 1.2 L28.05 0.75 27.9 0.45 27.6 0.15 26.45 0.15 24.95 0.3 24.65 0.3 M24.9 -0.65 L24.55 -0.65 24.55 -0.6 24.9 -0.65 M28.0 -3.65 Q27.55 -3.55 27.75 -3.05 L27.2 -3.05 26.6 -3.05 26.5 -3.05 26.4 -3.05 Q26.05 -3.0 25.9 -2.75 L25.85 -2.45 25.85 -2.4 25.7 -2.35 25.7 -1.65 26.25 -1.65 26.95 -1.7 27.8 -2.0 Q28.2 -2.2 28.4 -2.5 L28.7 -3.35 28.7 -3.65 28.65 -3.65 28.4 -3.65 28.0 -3.65 M26.2 -3.7 L26.15 -3.75 26.15 -3.7 26.2 -3.7 M31.85 10.95 L31.5 9.95 31.4 9.85 30.6 9.85 30.35 9.85 30.1 11.3 Q29.8 12.05 29.35 12.15 L29.0 12.15 29.35 11.6 29.6 10.85 29.5 10.3 29.35 9.85 29.25 9.8 27.95 9.9 27.5 9.95 27.3 10.0 27.25 10.1 Q27.1 10.2 27.1 10.7 L27.2 11.55 Q27.25 12.05 27.6 12.3 L27.75 12.35 28.05 12.5 29.25 12.9 29.75 12.85 30.2 12.75 30.9 12.65 31.75 12.5 31.85 11.85 31.9 11.2 31.85 10.95 M18.15 2.5 L18.2 2.5 18.15 2.45 18.15 2.5 M-19.7 6.1 L-20.0 6.0 -20.7 5.95 -21.4 6.0 Q-21.7 6.0 -21.7 6.2 L-21.4 6.55 -20.6 6.6 -19.95 6.55 Q-19.55 6.55 -19.55 6.4 L-19.7 6.1 M-18.85 6.15 L-18.85 6.2 -18.6 6.55 -17.75 6.6 -17.1 6.55 Q-16.75 6.55 -16.75 6.4 L-16.9 6.1 -17.15 6.0 -17.9 5.95 -18.35 5.95 -18.55 6.0 Q-18.8 6.0 -18.85 6.15 M-19.7 3.0 L-20.0 2.75 -20.7 2.7 -21.4 2.75 -21.7 3.15 Q-21.7 3.65 -21.4 3.8 L-20.6 3.9 -19.95 3.85 Q-19.55 3.75 -19.55 3.45 L-19.7 3.0 M-17.1 3.85 Q-16.75 3.75 -16.75 3.45 -16.75 3.2 -16.9 3.0 L-17.15 2.8 -17.9 2.7 -18.55 2.75 -18.85 3.15 -18.6 3.8 -17.75 3.9 -17.1 3.85 M-14.95 6.6 L-14.25 6.55 Q-13.95 6.55 -13.95 6.4 L-14.05 6.1 -14.35 6.0 -15.1 5.95 -15.75 6.0 Q-16.05 6.0 -16.05 6.2 L-15.8 6.55 -14.95 6.6 M-13.25 6.2 L-13.0 6.55 -12.2 6.6 -11.5 6.55 Q-11.15 6.55 -11.15 6.4 L-11.25 6.1 -11.55 6.0 -12.3 5.95 -12.95 6.0 -13.25 6.2 M-14.05 3.0 L-14.35 2.8 -15.1 2.7 -15.75 2.75 -16.05 3.15 -15.8 3.8 -14.95 3.9 -14.25 3.85 Q-13.95 3.75 -13.95 3.45 L-14.05 3.0 M-12.2 3.9 L-11.5 3.85 Q-11.15 3.75 -11.15 3.45 L-11.25 3.1 -11.25 3.0 -11.55 2.8 -12.3 2.7 -12.95 2.75 -13.25 3.15 -13.0 3.8 -12.2 3.9 M-7.4 6.55 L-7.0 6.6 -6.55 6.6 -5.95 6.55 -5.55 6.4 -5.7 6.1 -6.0 6.0 -6.7 5.95 -7.4 6.0 Q-7.65 6.0 -7.65 6.2 L-7.4 6.55 M-9.9 6.55 L-9.35 6.6 -8.65 6.55 Q-8.3 6.55 -8.3 6.4 L-8.4 6.1 -8.5 6.1 -8.7 6.0 -9.45 5.95 -10.1 6.0 Q-10.4 6.0 -10.4 6.2 L-10.1 6.55 -9.9 6.55 M-8.4 3.0 L-8.7 2.8 -9.45 2.7 -10.1 2.75 -10.4 3.15 -10.1 3.8 -9.35 3.9 -8.65 3.85 Q-8.3 3.75 -8.3 3.45 L-8.4 3.0 M-5.7 3.0 L-6.0 2.8 -6.7 2.7 -7.4 2.75 -7.65 3.15 -7.4 3.8 -6.55 3.9 -5.95 3.85 Q-5.55 3.75 -5.55 3.45 -5.55 3.2 -5.7 3.0 M-3.5 6.6 L-3.1 6.55 -2.7 6.4 Q-2.7 6.2 -2.85 6.1 L-3.1 6.0 -3.15 6.0 -3.85 5.95 -4.55 6.0 -4.8 6.2 -4.55 6.55 -3.7 6.6 -3.5 6.6 M-3.1 3.85 Q-2.7 3.75 -2.7 3.45 -2.7 3.2 -2.85 3.0 L-3.15 2.75 -3.85 2.7 -4.55 2.75 -4.8 3.15 -4.55 3.8 -3.7 3.9 -3.1 3.85 M-65.65 5.9 L-65.75 5.85 -65.7 5.9 -65.65 5.9 M-63.5 2.4 L-63.35 2.45 -63.35 2.4 -63.5 2.4 M62.7 8.15 L62.6 7.15 51.05 7.15 51.05 7.2 50.95 7.2 50.95 7.25 51.25 8.0 51.5 8.45 52.2 9.5 Q52.45 9.85 53.15 10.05 L53.4 10.1 55.05 10.3 56.25 10.5 58.05 10.8 58.85 10.85 59.55 10.95 62.0 11.25 62.45 11.25 62.55 11.25 62.8 10.5 62.8 9.15 62.7 8.15 M0.15 3.5 L0.15 3.45 0.05 3.0 0.0 3.0 -0.25 2.8 -0.25 2.75 -0.4 2.75 -0.75 2.7 -1.0 2.7 -1.6 2.75 -1.9 3.15 -1.85 3.6 -1.65 3.8 -1.6 3.85 -0.85 3.9 -0.7 3.9 -0.15 3.85 0.15 3.5 M0.15 6.4 L0.05 6.1 -0.25 6.0 -0.4 5.95 -1.0 5.95 -1.45 5.95 -1.6 6.0 Q-1.9 6.0 -1.9 6.2 L-1.9 6.25 -1.65 6.55 -0.85 6.6 -0.15 6.55 Q0.15 6.55 0.15 6.4 M-35.85 4.0 L-41.95 4.05 -40.45 4.1 -35.9 4.05 -35.85 4.0" fill="#ffffff" fill-opacity="0.14509805" fill-rule="evenodd" stroke="none"/>
      <path d="M81.4 18.95 L78.1 22.3 -78.4 22.3 -81.5 19.2 -81.5 -6.35 -78.15 -9.7 38.45 -9.7 Q39.05 -9.7 39.45 -10.1 L43.5 -14.15 78.0 -14.15 81.4 -10.8 81.4 18.95 M64.3 0.75 L64.0 0.85 63.8 0.9 63.55 0.9 41.95 0.9 38.65 1.2 37.35 1.35 36.2 1.6 36.05 1.7 35.95 1.7 35.7 1.7 35.7 1.35 35.55 0.35 35.05 -0.25 34.85 -0.35 34.55 -0.4 32.5 -0.55 30.85 -0.45 30.65 -0.45 30.55 -0.55 30.5 -1.45 30.55 -2.55 30.65 -3.55 31.65 -3.25 31.9 -3.2 35.1 -3.2 35.1 -3.45 35.55 -4.15 35.7 -4.5 35.7 -4.95 Q35.7 -5.85 35.05 -6.95 L35.05 -7.25 31.8 -7.25 31.6 -7.3 31.55 -7.25 29.85 -6.8 27.75 -6.8 27.75 -6.9 27.75 -7.25 26.1 -7.25 26.1 -6.9 19.0 -6.8 18.95 -6.85 18.85 -6.95 18.65 -7.15 18.3 -7.35 17.9 -7.4 17.2 -7.4 17.0 -7.4 16.6 -7.35 16.35 -7.0 16.25 -6.9 1.8 -6.9 Q1.5 -6.8 1.15 -5.85 0.85 -5.0 0.85 -4.4 L0.95 -3.2 Q1.15 -2.6 1.65 -2.4 L1.75 -2.4 2.15 -2.35 2.4 -2.35 3.1 -2.35 3.9 -2.35 5.35 -2.5 5.8 -2.5 7.75 -2.65 9.9 -2.7 10.0 -2.75 11.8 -2.85 12.15 -2.85 12.5 -2.85 13.35 -2.8 13.4 -2.8 13.4 -2.45 13.75 -2.4 14.35 -2.35 14.75 -2.35 15.1 -2.4 15.05 -1.4 15.05 -1.2 15.05 -1.1 15.05 -0.6 15.1 -0.5 15.05 -0.5 15.05 1.7 2.25 1.75 0.3 1.3 0.25 1.3 -1.4 1.0 -3.9 0.9 -5.7 1.05 -7.0 1.2 -17.65 1.2 -18.05 1.05 -18.05 1.0 -18.2 0.6 -18.3 0.4 -18.45 0.2 -18.9 -0.05 -19.45 0.0 -20.4 0.05 -21.7 0.15 -23.0 0.2 Q-23.45 0.35 -23.5 0.85 L-23.5 0.9 -23.5 1.05 -23.6 1.05 -24.8 1.15 -24.9 2.05 -24.9 2.3 -24.95 2.35 -24.95 2.4 -60.45 2.4 -60.5 2.35 -60.45 2.35 -60.45 2.1 -60.65 1.6 -60.85 1.35 -60.9 1.35 -61.0 1.35 -61.05 1.3 -66.45 1.3 -67.45 1.5 -68.6 1.75 -69.45 2.1 -69.55 2.15 Q-69.75 2.25 -70.15 2.5 L-70.15 2.55 -70.25 3.05 -70.25 3.2 -70.35 3.75 -70.3 3.95 -70.25 4.3 -70.15 4.65 -69.95 5.25 -67.9 6.4 -65.9 6.4 -63.6 6.4 -62.2 6.3 Q-61.6 6.1 -61.8 5.3 L-61.8 5.15 -25.15 5.15 -25.15 5.3 -25.1 5.65 -25.1 6.2 -24.75 6.95 6.05 6.95 7.2 6.95 8.1 6.95 8.2 6.95 8.2 7.0 8.35 7.3 8.7 8.0 8.95 8.65 8.95 8.7 9.45 9.25 10.9 9.65 11.75 9.9 12.15 9.95 12.15 10.0 11.8 9.95 12.05 10.3 12.05 10.4 12.05 10.5 11.9 10.55 11.85 17.75 12.65 17.85 13.7 18.1 14.75 18.35 15.15 18.45 15.4 18.45 16.2 18.5 17.6 18.75 19.3 19.1 19.5 19.1 19.55 19.1 20.0 19.15 20.3 19.15 21.4 19.2 23.1 19.35 23.75 19.5 23.8 19.5 23.75 19.45 23.8 19.45 23.8 19.5 24.3 19.65 25.3 19.85 25.6 19.6 25.6 13.6 26.05 13.05 26.2 13.4 26.3 13.75 26.35 13.95 26.55 13.95 26.6 13.55 26.6 13.5 26.5 12.9 26.9 12.85 26.95 12.5 27.45 12.7 28.1 12.95 29.25 13.3 30.2 13.3 30.5 13.25 31.3 13.05 31.45 13.05 Q32.15 13.1 32.45 13.4 L32.75 13.95 32.75 14.25 32.65 14.55 32.6 14.8 33.15 15.05 Q33.75 15.3 33.9 15.5 L34.3 16.2 34.75 16.95 34.95 17.75 35.0 18.65 Q35.05 19.35 36.45 19.35 L37.75 19.05 39.0 18.55 40.0 18.25 Q40.55 18.05 40.55 17.6 40.55 16.5 39.3 14.8 L38.4 13.6 35.8 11.0 35.75 11.0 35.7 10.65 35.6 10.25 35.75 9.85 36.55 8.85 36.95 8.4 37.15 8.25 Q38.0 7.45 38.4 7.25 L38.45 7.2 49.4 7.2 49.7 7.65 49.9 7.95 50.1 8.4 50.75 9.95 51.25 11.0 52.05 12.9 52.15 12.95 52.35 13.0 52.75 13.1 55.15 13.3 57.75 13.8 59.75 14.1 60.35 14.2 62.6 14.4 62.95 14.45 63.7 14.45 63.7 14.25 63.8 14.25 64.15 14.35 64.45 14.35 64.55 14.35 66.0 13.9 67.05 13.1 66.95 12.5 66.9 11.95 66.7 10.05 Q66.65 8.95 67.7 5.85 L68.85 2.45 68.85 2.35 68.85 2.3 68.5 1.9 67.5 1.6 66.2 1.6 65.4 1.65 65.0 1.6 64.7 1.15 64.3 0.75 M19.95 0.75 L20.15 0.4 20.45 0.15 23.25 0.15 23.55 0.45 23.75 0.75 23.65 1.2 23.3 1.35 23.0 1.3 20.7 1.2 20.65 1.25 20.45 1.3 20.05 1.2 19.95 0.75 M16.35 1.2 L16.1 1.3 15.75 1.2 15.65 0.75 15.85 0.4 16.15 0.15 18.9 0.15 19.15 0.45 19.35 0.75 19.25 1.2 19.0 1.35 18.9 1.35 18.6 1.3 16.35 1.2 M23.1 -1.35 L23.15 -1.35 23.85 -1.35 24.0 -1.35 23.95 -1.0 24.0 -0.5 21.35 -0.5 21.4 -0.95 21.4 -1.3 21.4 -2.35 21.5 -2.4 21.9 -2.35 23.1 -2.25 23.1 -1.35 M24.65 0.3 L24.95 0.3 26.45 0.15 27.6 0.15 27.9 0.45 28.05 0.75 27.95 1.2 Q27.9 1.35 27.65 1.35 L27.35 1.3 25.05 1.2 24.95 1.3 24.8 1.3 24.45 1.2 24.35 0.75 24.55 0.4 24.65 0.3 M24.9 -0.65 L24.55 -0.6 24.55 -0.65 24.9 -0.65 M18.15 2.5 L18.15 2.45 18.2 2.5 18.15 2.5 M31.85 10.95 L31.9 11.2 31.85 11.85 31.75 12.5 30.9 12.65 30.2 12.75 29.75 12.85 29.25 12.9 28.05 12.5 27.75 12.35 27.6 12.3 Q27.25 12.05 27.2 11.55 L27.1 10.7 Q27.1 10.2 27.25 10.1 L27.3 10.0 27.5 9.95 27.95 9.9 29.25 9.8 29.35 9.85 29.5 10.3 29.6 10.85 29.35 11.6 29.0 12.15 29.35 12.15 Q29.8 12.05 30.1 11.3 L30.35 9.85 30.6 9.85 31.4 9.85 31.5 9.95 31.85 10.95 M26.2 -3.7 L26.15 -3.7 26.15 -3.75 26.2 -3.7 M28.0 -3.65 L28.4 -3.65 28.65 -3.65 28.7 -3.65 28.7 -3.35 28.4 -2.5 Q28.2 -2.2 27.8 -2.0 L26.95 -1.7 26.25 -1.65 25.7 -1.65 25.7 -2.35 25.85 -2.4 25.85 -2.45 25.9 -2.75 Q26.05 -3.0 26.4 -3.05 L26.5 -3.05 26.6 -3.05 27.2 -3.05 27.75 -3.05 Q27.55 -3.55 28.0 -3.65 M0.15 6.4 Q0.15 6.55 -0.15 6.55 L-0.85 6.6 -1.65 6.55 -1.9 6.25 -1.9 6.2 Q-1.9 6.0 -1.6 6.0 L-1.45 5.95 -1.0 5.95 -0.4 5.95 -0.25 6.0 0.05 6.1 0.15 6.4 M0.15 3.5 L-0.15 3.85 -0.7 3.9 -0.85 3.9 -1.6 3.85 -1.65 3.8 -1.85 3.6 -1.9 3.15 -1.6 2.75 -1.0 2.7 -0.75 2.7 -0.4 2.75 -0.25 2.75 -0.25 2.8 0.0 3.0 0.05 3.0 0.15 3.45 0.15 3.5 M62.7 8.15 L62.8 9.15 62.8 10.5 62.55 11.25 62.45 11.25 62.0 11.25 59.55 10.95 58.85 10.85 58.05 10.8 56.25 10.5 55.05 10.3 53.4 10.1 53.15 10.05 Q52.45 9.85 52.2 9.5 L51.5 8.45 51.25 8.0 50.95 7.25 50.95 7.2 51.05 7.2 51.05 7.15 62.6 7.15 62.7 8.15 M-63.5 2.4 L-63.35 2.4 -63.35 2.45 -63.5 2.4 M-65.65 5.9 L-65.7 5.9 -65.75 5.85 -65.65 5.9 M-3.1 3.85 L-3.7 3.9 -4.55 3.8 -4.8 3.15 -4.55 2.75 -3.85 2.7 -3.15 2.75 -2.85 3.0 Q-2.7 3.2 -2.7 3.45 -2.7 3.75 -3.1 3.85 M-3.5 6.6 L-3.7 6.6 -4.55 6.55 -4.8 6.2 -4.55 6.0 -3.85 5.95 -3.15 6.0 -3.1 6.0 -2.85 6.1 Q-2.7 6.2 -2.7 6.4 L-3.1 6.55 -3.5 6.6 M-5.7 3.0 Q-5.55 3.2 -5.55 3.45 -5.55 3.75 -5.95 3.85 L-6.55 3.9 -7.4 3.8 -7.65 3.15 -7.4 2.75 -6.7 2.7 -6.0 2.8 -5.7 3.0 M-8.4 3.0 L-8.3 3.45 Q-8.3 3.75 -8.65 3.85 L-9.35 3.9 -10.1 3.8 -10.4 3.15 -10.1 2.75 -9.45 2.7 -8.7 2.8 -8.4 3.0 M-9.9 6.55 L-10.1 6.55 -10.4 6.2 Q-10.4 6.0 -10.1 6.0 L-9.45 5.95 -8.7 6.0 -8.5 6.1 -8.4 6.1 -8.3 6.4 Q-8.3 6.55 -8.65 6.55 L-9.35 6.6 -9.9 6.55 M-7.4 6.55 L-7.65 6.2 Q-7.65 6.0 -7.4 6.0 L-6.7 5.95 -6.0 6.0 -5.7 6.1 -5.55 6.4 -5.95 6.55 -6.55 6.6 -7.0 6.6 -7.4 6.55 M-12.2 3.9 L-13.0 3.8 -13.25 3.15 -12.95 2.75 -12.3 2.7 -11.55 2.8 -11.25 3.0 -11.25 3.1 -11.15 3.45 Q-11.15 3.75 -11.5 3.85 L-12.2 3.9 M-14.05 3.0 L-13.95 3.45 Q-13.95 3.75 -14.25 3.85 L-14.95 3.9 -15.8 3.8 -16.05 3.15 -15.75 2.75 -15.1 2.7 -14.35 2.8 -14.05 3.0 M-13.25 6.2 L-12.95 6.0 -12.3 5.95 -11.55 6.0 -11.25 6.1 -11.15 6.4 Q-11.15 6.55 -11.5 6.55 L-12.2 6.6 -13.0 6.55 -13.25 6.2 M-14.95 6.6 L-15.8 6.55 -16.05 6.2 Q-16.05 6.0 -15.75 6.0 L-15.1 5.95 -14.35 6.0 -14.05 6.1 -13.95 6.4 Q-13.95 6.55 -14.25 6.55 L-14.95 6.6 M-17.1 3.85 L-17.75 3.9 -18.6 3.8 -18.85 3.15 -18.55 2.75 -17.9 2.7 -17.15 2.8 -16.9 3.0 Q-16.75 3.2 -16.75 3.45 -16.75 3.75 -17.1 3.85 M-19.7 3.0 L-19.55 3.45 Q-19.55 3.75 -19.95 3.85 L-20.6 3.9 -21.4 3.8 Q-21.7 3.65 -21.7 3.15 L-21.4 2.75 -20.7 2.7 -20.0 2.75 -19.7 3.0 M-18.85 6.15 Q-18.8 6.0 -18.55 6.0 L-18.35 5.95 -17.9 5.95 -17.15 6.0 -16.9 6.1 -16.75 6.4 Q-16.75 6.55 -17.1 6.55 L-17.75 6.6 -18.6 6.55 -18.85 6.2 -18.85 6.15 M-19.7 6.1 L-19.55 6.4 Q-19.55 6.55 -19.95 6.55 L-20.6 6.6 -21.4 6.55 -21.7 6.2 Q-21.7 6.0 -21.4 6.0 L-20.7 5.95 -20.0 6.0 -19.7 6.1 M-35.85 4.0 L-35.9 4.05 -40.45 4.1 -41.95 4.05 -35.85 4.0" fill="#000000" fill-opacity="0.047058824" fill-rule="evenodd" stroke="none"/>
    </g>
    <g id="text0" transform="matrix(1.0, 0.0, 0.0, 1.0, -110.9, -1.35)">
      <g transform="matrix(1.0, 0.0, 0.0, 1.0, 57.3, 0.0)">
        <use fill="#ffffff" fill-opacity="0.14509805" height="7.8" transform="matrix(0.0146, 0.0, 0.0, 0.0146, 54.0, 8.0)" width="54.85" xlink:href="#font_Visitor_TT2_BRK_b0"/>
        <use fill="#ffffff" fill-opacity="0.14509805" height="7.8" transform="matrix(0.0146, 0.0, 0.0, 0.0146, 61.0, 8.0)" width="54.85" xlink:href="#font_Visitor_TT2_BRK_a0"/>
        <use fill="#ffffff" fill-opacity="0.14509805" height="7.8" transform="matrix(0.0146, 0.0, 0.0, 0.0146, 68.0, 8.0)" width="54.85" xlink:href="#font_Visitor_TT2_BRK_r0"/>
        <use fill="#ffffff" fill-opacity="0.14509805" height="7.8" transform="matrix(0.0146, 0.0, 0.0, 0.0146, 75.0, 8.0)" width="54.85" xlink:href="#font_Visitor_TT2_BRK_r0"/>
        <use fill="#ffffff" fill-opacity="0.14509805" height="7.8" transform="matrix(0.0146, 0.0, 0.0, 0.0146, 82.0, 8.0)" width="54.85" xlink:href="#font_Visitor_TT2_BRK_e0"/>
        <use fill="#ffffff" fill-opacity="0.14509805" height="7.8" transform="matrix(0.0146, 0.0, 0.0, 0.0146, 89.0, 8.0)" width="54.85" xlink:href="#font_Visitor_TT2_BRK_t0"/>
        <use fill="#ffffff" fill-opacity="0.14509805" height="7.8" transform="matrix(0.0146, 0.0, 0.0, 0.0146, 96.0, 8.0)" width="54.85" xlink:href="#font_Visitor_TT2_BRK_t0"/>
      </g>
    </g>
    <g id="font_Visitor_TT2_BRK_b0">
      <path d="M0.0 -397.0 L0.0 -397.0 398.5 -397.0 398.5 -238.5 318.5 -238.5 318.5 -318.0 80.0 -318.0 80.0 -238.5 318.5 -238.5 318.5 -158.5 80.0 -158.5 80.0 -79.0 318.5 -79.0 318.5 -158.5 398.5 -158.5 398.5 0.0 0.0 0.0 0.0 -397.0" fill-rule="evenodd" stroke="none"/>
    </g>
    <g id="font_Visitor_TT2_BRK_a0">
      <path d="M318.5 -238.5 L318.5 -238.5 318.5 -318.5 80.0 -318.5 80.0 -238.5 318.5 -238.5 M0.0 -397.5 L0.0 -397.5 398.5 -397.5 398.5 0.0 318.5 0.0 318.5 -158.5 80.0 -158.5 80.0 0.0 0.0 0.0 0.0 -397.5" fill-rule="evenodd" stroke="none"/>
    </g>
    <g id="font_Visitor_TT2_BRK_r0">
      <path d="M318.5 -238.5 L318.5 -238.5 318.5 -318.5 80.0 -318.5 80.0 -238.5 318.5 -238.5 M0.0 -397.5 L0.0 -397.5 398.5 -397.5 398.5 -158.5 318.5 -158.5 318.5 -79.0 239.5 -79.0 239.5 -158.5 80.0 -158.5 80.0 0.0 0.0 0.0 0.0 -397.5 M398.5 0.0 L398.5 0.0 318.5 0.0 318.5 -79.0 398.5 -79.0 398.5 0.0" fill-rule="evenodd" stroke="none"/>
    </g>
    <g id="font_Visitor_TT2_BRK_e0">
      <path d="M0.0 -397.5 L0.0 -397.5 398.5 -397.5 398.5 -318.5 80.0 -318.5 80.0 -238.5 238.5 -238.5 238.5 -158.5 80.0 -158.5 80.0 -79.0 398.5 -79.0 398.5 0.0 0.0 0.0 0.0 -397.5" fill-rule="evenodd" stroke="none"/>
    </g>
    <g id="font_Visitor_TT2_BRK_t0">
      <path d="M0.0 -397.5 L0.0 -397.5 398.0 -397.5 398.0 -318.5 238.5 -318.5 238.5 0.0 158.5 0.0 158.5 -318.5 0.0 -318.5 0.0 -397.5" fill-rule="evenodd" stroke="none"/>
    </g>
    <g id="sprite4" transform="matrix(1.0, 0.0, 0.0, 1.0, 93.65, 22.0)">
      <use height="44.5" transform="matrix(1.0, 0.0, 0.0, 1.0, -72.8, -20.6)" width="147.75" xlink:href="#sprite5"/>
    </g>
    <g id="sprite5" transform="matrix(1.0, 0.0, 0.0, 1.0, 72.8, 20.6)">
      <use height="39.55" transform="matrix(1.0, 0.0, 0.0, 1.0, -72.8, -15.65)" width="147.75" xlink:href="#shape3"/>
      <use height="7.8" transform="matrix(1.0, 0.0, 0.0, 1.0, -26.3, -20.6)" width="61.85" xlink:href="#text1"/>
    </g>
    <g id="shape3" transform="matrix(1.0, 0.0, 0.0, 1.0, 72.8, 15.65)">
      <path d="M31.25 -10.2 Q30.85 -9.75 30.25 -9.75 L-68.05 -9.75 -71.35 -6.45 -71.35 19.1 -68.05 22.45 70.2 22.45 73.45 19.1 73.45 -10.6 69.85 -14.25 35.3 -14.25 31.25 -10.2 M3.85 -0.3 L3.85 -0.25 4.15 -0.3 3.95 -0.3 3.85 -0.3 M0.55 -0.8 L1.35 -0.75 1.85 -0.7 1.9 -0.7 2.55 -0.7 2.65 -0.75 2.8 -0.75 3.55 -0.9 3.8 -1.05 4.1 -0.95 4.35 -0.85 5.0 -0.9 5.0 -1.0 5.05 -1.15 5.35 -1.0 5.4 -0.55 4.75 -0.55 4.2 -0.6 4.15 -0.5 4.15 -0.3 4.3 -0.3 4.65 -0.3 4.65 0.15 16.3 0.15 16.65 0.4 17.8 0.4 17.8 0.35 17.95 0.25 18.2 0.15 18.5 0.25 18.65 0.35 21.2 0.35 21.3 0.3 21.35 0.25 21.45 0.2 21.8 0.15 22.05 0.15 22.15 0.3 22.2 0.35 25.75 0.35 25.75 0.25 25.95 0.1 26.2 -0.05 26.05 0.0 25.95 -0.25 26.0 -0.4 25.75 -0.5 24.05 -0.45 23.95 0.0 23.65 0.0 23.6 -0.1 23.6 -0.7 23.6 -1.0 23.45 -1.0 22.95 -0.95 22.95 -1.65 21.7 -1.7 21.65 -1.1 21.65 -0.65 21.6 -0.25 Q21.55 -0.1 20.9 0.0 L20.3 0.0 19.55 0.05 17.2 -0.1 Q16.95 -0.15 16.95 -0.75 L17.0 -1.75 16.4 -1.65 16.0 -1.75 15.75 -1.75 15.75 -2.05 15.0 -2.05 13.2 -2.0 11.5 -1.9 11.45 -1.9 9.7 -1.8 8.05 -1.65 7.6 -1.65 7.5 -1.65 7.45 -1.65 7.05 -1.75 7.05 -1.65 6.95 -1.7 6.8 -1.8 6.45 -2.35 6.4 -2.95 6.4 -3.15 6.4 -3.25 6.6 -4.3 7.1 -5.1 17.85 -5.1 17.9 -5.2 18.1 -5.45 18.55 -5.45 19.35 -5.45 19.65 -5.3 19.8 -5.15 19.8 -5.05 25.2 -5.1 25.2 -5.35 26.4 -5.35 26.4 -5.1 26.4 -5.0 28.0 -5.0 28.9 -5.25 29.25 -5.35 29.3 -5.4 29.45 -5.35 31.9 -5.35 31.9 -5.1 32.3 -4.2 32.35 -3.65 32.25 -3.05 31.9 -2.5 31.9 -2.35 29.5 -2.35 29.4 -2.35 29.35 -2.4 28.6 -2.6 28.5 -1.85 28.5 -1.8 28.45 -1.05 28.4 -1.0 28.45 -1.0 28.5 -0.35 28.3 -0.2 28.1 -0.05 27.8 0.05 27.45 0.05 27.1 0.05 26.95 -0.05 26.95 0.0 26.45 -0.05 26.25 -0.05 26.75 0.25 26.75 0.35 26.8 0.35 27.9 0.35 29.5 0.2 31.2 0.2 Q32.2 0.2 32.8 1.25 L33.0 1.75 33.1 2.05 Q33.5 2.4 33.5 2.8 L33.5 3.1 39.4 3.4 39.3 3.25 39.3 3.2 39.4 2.9 39.35 2.45 39.35 1.65 39.35 1.4 39.45 1.25 39.55 1.0 39.85 0.85 40.05 0.85 48.85 1.45 49.1 1.55 49.35 1.9 49.35 3.1 49.3 3.3 49.25 3.65 49.25 3.9 49.25 3.95 57.45 4.45 57.15 7.45 Q56.8 11.15 56.85 15.1 L56.85 16.05 56.45 16.05 56.4 16.05 56.05 16.1 49.8 15.1 45.85 14.15 40.0 12.7 37.4 12.35 36.55 12.55 Q36.3 12.65 36.15 13.25 L36.1 13.25 35.1 13.75 33.85 14.2 32.55 14.5 31.2 14.65 Q30.95 14.25 30.65 13.1 L30.1 11.25 29.9 10.5 29.65 9.75 Q29.25 8.95 28.15 8.9 27.95 10.0 27.0 10.3 L24.75 10.45 23.25 10.05 Q22.85 9.8 22.7 9.2 L22.45 7.45 Q22.4 6.75 21.9 6.75 L21.8 6.75 21.55 6.7 21.45 6.7 21.15 6.75 21.0 6.8 20.8 6.85 20.5 6.75 20.2 6.6 19.6 6.7 18.85 6.8 18.8 6.7 18.8 8.75 18.1 8.75 18.05 8.8 18.05 8.95 18.3 9.6 18.65 10.3 18.55 10.25 18.25 9.9 18.1 9.75 17.7 9.2 17.45 8.75 17.5 8.7 16.95 8.75 16.95 8.7 16.95 8.6 16.9 8.6 16.9 8.7 16.9 8.75 16.95 8.75 16.95 8.9 16.95 9.0 17.0 9.2 16.95 10.7 16.85 11.55 16.75 12.35 16.25 15.2 16.1 15.2 16.0 15.2 15.95 15.2 15.7 15.25 15.3 15.35 15.05 15.3 14.35 15.2 13.4 14.95 12.7 14.8 11.6 14.55 10.75 14.35 9.9 14.2 9.15 13.9 8.5 13.65 8.35 13.65 8.35 13.55 8.3 13.4 8.45 13.2 8.6 13.1 8.7 13.1 8.75 12.75 8.9 11.55 8.95 10.25 9.0 9.25 9.05 8.6 9.05 8.4 8.8 7.15 8.8 7.1 8.9 7.1 8.85 6.95 8.85 7.0 8.75 6.85 8.55 6.05 8.3 5.4 7.3 5.25 6.75 5.25 6.65 5.25 5.7 5.25 4.95 5.3 4.65 5.3 4.5 5.3 4.35 5.3 4.35 5.45 4.3 5.45 4.05 5.4 3.8 5.3 3.5 5.35 2.6 5.45 2.4 5.45 -2.2 5.0 -2.65 4.95 -2.85 4.9 -4.75 4.7 -4.8 4.7 -7.0 4.5 -9.4 4.4 -10.05 4.4 -10.95 4.4 -11.85 4.4 -12.65 4.35 -13.1 4.4 -13.95 4.35 -14.65 4.3 -16.65 4.25 -17.65 4.25 -18.1 4.25 -21.5 4.3 -21.95 4.3 -22.05 4.3 -22.2 3.95 -22.25 3.95 -22.6 3.85 -22.75 3.9 -22.9 3.95 -23.15 3.9 -23.3 3.8 -23.4 3.7 -23.4 3.65 -23.55 3.4 -28.55 3.4 -28.55 3.7 -31.6 3.7 -31.6 3.35 -47.45 3.35 -47.45 3.45 -47.45 3.55 -47.45 3.8 -47.45 4.6 -48.35 4.6 -48.35 4.0 Q-48.35 3.75 -48.5 3.6 L-49.35 3.35 -50.2 3.45 -50.85 3.4 -50.95 3.4 -51.0 3.45 -51.0 3.5 -51.0 3.7 -51.45 3.75 -54.35 3.7 -56.9 3.65 -57.3 3.6 -57.4 3.45 -57.55 3.4 -57.65 3.5 -57.7 3.5 -57.75 3.75 -58.0 3.7 -58.1 3.7 -58.3 3.7 -58.3 1.8 -57.7 1.8 -57.7 1.95 -57.6 2.0 -57.4 2.05 -57.35 2.1 -57.3 1.95 -57.3 1.8 -51.75 1.8 -51.7 1.7 -51.05 1.7 -51.0 1.9 -51.0 2.0 -49.75 1.95 -49.7 -1.8 -49.3 -1.55 -48.9 -1.45 -48.55 -1.65 -48.15 -1.75 -48.15 0.25 -48.1 0.25 -48.0 0.65 -47.8 0.95 -47.7 1.05 Q-47.4 1.55 -47.4 1.95 L-47.4 2.0 -31.6 2.0 -31.5 2.0 -31.1 1.75 -31.0 1.75 -30.75 1.65 -30.75 1.6 -30.55 1.5 -30.0 1.15 -29.65 0.75 -29.45 0.4 Q-29.1 -0.05 -28.5 0.1 L-27.85 0.1 Q-27.65 -0.05 -27.5 0.1 L-25.0 0.1 -24.9 0.1 -24.8 0.15 -24.75 0.2 -24.65 0.25 -24.3 0.2 Q-24.05 0.2 -23.9 0.35 L-22.25 0.35 -22.15 -0.2 -1.3 -0.2 -0.9 -0.6 -0.3 -0.85 -0.1 -0.85 0.45 -0.8 0.55 -0.8 M70.45 -15.65 L74.95 -11.2 74.95 19.7 70.75 23.9 -68.65 23.9 -72.8 19.7 -72.8 -7.05 -68.65 -11.2 30.25 -11.2 34.75 -15.65 70.45 -15.65 M54.3 6.5 Q53.95 6.25 52.75 6.05 L52.5 11.5 52.75 11.6 53.0 11.6 Q54.25 11.6 54.55 10.4 L54.65 9.2 54.65 7.8 54.65 7.55 54.4 6.6 54.35 6.5 54.3 6.5 M51.85 5.95 Q50.3 5.75 49.95 6.75 49.6 7.6 49.55 8.75 L49.55 8.95 Q49.5 10.15 50.05 10.85 50.55 11.5 51.2 11.5 L51.55 11.5 51.95 11.45 52.1 11.45 52.05 11.4 52.05 6.0 52.15 6.0 52.05 5.95 51.85 5.95 M43.7 5.7 L43.75 5.65 43.7 5.65 Q43.35 5.55 43.25 6.0 L43.2 6.15 42.8 6.5 42.3 6.3 42.25 6.3 41.7 5.65 Q41.4 5.3 40.85 5.3 L39.65 5.3 37.3 5.15 35.0 5.05 Q34.7 5.1 34.3 5.4 33.95 5.75 33.9 6.45 33.85 7.15 34.55 8.9 35.2 10.65 36.35 10.75 L43.3 11.75 Q44.75 11.85 44.9 10.75 L45.05 8.8 45.1 7.6 45.15 7.45 45.2 6.9 45.15 6.25 45.0 5.95 44.9 5.85 44.75 5.75 44.7 5.7 44.8 5.85 44.85 5.95 44.95 6.3 44.9 6.5 44.85 6.75 44.6 6.75 44.3 6.6 44.0 6.55 43.75 6.65 43.5 6.75 43.4 6.6 43.35 6.45 43.45 6.1 43.5 6.0 43.5 5.9 43.55 5.85 Q43.65 5.75 43.7 5.75 L43.7 5.7 M26.2 6.55 L26.15 6.55 Q25.95 6.6 25.9 6.8 L25.9 6.85 26.15 7.45 26.35 8.5 26.3 9.1 25.8 9.55 25.8 9.45 25.95 8.9 26.05 8.25 Q26.05 7.9 25.65 7.4 L24.95 6.7 24.8 6.6 22.15 6.6 22.65 7.2 22.65 8.05 22.8 8.95 Q22.95 9.6 23.45 9.95 23.95 10.3 24.65 10.3 L26.75 10.1 Q27.6 9.9 27.95 9.0 L27.95 8.9 27.95 8.65 28.0 8.4 27.75 7.55 27.5 7.05 Q27.25 7.05 27.15 6.9 L27.0 6.55 26.95 6.55 26.6 6.6 26.25 6.6 26.2 6.55 M5.8 2.65 L5.75 2.6 5.75 2.65 5.8 2.65 M-8.1 1.45 L-8.15 1.35 -8.45 0.9 -10.3 0.9 -10.45 0.95 -10.5 1.0 -10.65 1.2 -10.65 1.3 -10.65 1.35 -10.45 1.65 -10.2 1.65 -8.5 1.65 -8.2 1.6 -8.1 1.45 M-13.0 1.0 L-13.25 0.9 -15.1 0.9 -15.35 1.0 -15.5 1.3 -15.4 1.6 -15.05 1.65 -13.3 1.65 -12.95 1.6 -12.9 1.3 -13.0 1.0 M-17.8 1.6 L-17.7 1.3 Q-17.7 1.1 -17.85 1.0 L-18.05 0.9 -19.9 0.9 -20.15 1.0 -20.25 1.3 -20.15 1.6 -19.95 1.65 -19.85 1.65 -18.1 1.65 -17.8 1.6 M-21.7 1.2 L-21.8 1.2 -21.85 1.15 -21.85 1.2 -21.9 1.25 -21.95 2.1 -21.85 2.85 Q-21.7 2.85 -21.7 2.55 L-21.65 2.0 -21.7 1.45 -21.7 1.2 M-48.35 0.7 L-48.7 0.7 -49.15 0.8 -49.45 0.9 -49.45 1.0 -49.45 1.3 Q-49.45 1.7 -49.0 1.7 L-48.35 1.65 Q-48.15 1.55 -48.15 1.0 L-48.15 0.9 -48.25 0.75 -48.35 0.7 M-56.05 2.8 L-56.0 2.85 -55.95 2.85 -56.0 2.8 -56.05 2.8 M-47.9 1.9 L-47.95 1.9 -47.9 1.95 -47.9 1.9" fill="#ffffff" fill-opacity="0.19607843" fill-rule="evenodd" stroke="none"/>
      <path d="M0.55 -0.8 L0.45 -0.8 -0.1 -0.85 -0.3 -0.85 -0.9 -0.6 -1.3 -0.2 -22.15 -0.2 -22.25 0.35 -23.9 0.35 Q-24.05 0.2 -24.3 0.2 L-24.65 0.25 -24.75 0.2 -24.8 0.15 -24.9 0.1 -25.0 0.1 -27.5 0.1 Q-27.65 -0.05 -27.85 0.1 L-28.5 0.1 Q-29.1 -0.05 -29.45 0.4 L-29.65 0.75 -30.0 1.15 -30.55 1.5 -30.75 1.6 -30.75 1.65 -31.0 1.75 -31.1 1.75 -31.5 2.0 -31.6 2.0 -47.4 2.0 -47.4 1.95 Q-47.4 1.55 -47.7 1.05 L-47.8 0.95 -48.0 0.65 -48.1 0.25 -48.15 0.25 -48.15 -1.75 -48.55 -1.65 -48.9 -1.45 -49.3 -1.55 -49.7 -1.8 -49.75 1.95 -51.0 2.0 -51.0 1.9 -51.05 1.7 -51.7 1.7 -51.75 1.8 -57.3 1.8 -57.3 1.95 -57.35 2.1 -57.4 2.05 -57.6 2.0 -57.7 1.95 -57.7 1.8 -58.3 1.8 -58.3 3.7 -58.1 3.7 -58.0 3.7 -57.75 3.75 -57.7 3.5 -57.65 3.5 -57.55 3.4 -57.4 3.45 -57.3 3.6 -56.9 3.65 -54.35 3.7 -51.45 3.75 -51.0 3.7 -51.0 3.5 -51.0 3.45 -50.95 3.4 -50.85 3.4 -50.2 3.45 -49.35 3.35 -48.5 3.6 Q-48.35 3.75 -48.35 4.0 L-48.35 4.6 -47.45 4.6 -47.45 3.8 -47.45 3.55 -47.45 3.45 -47.45 3.35 -31.6 3.35 -31.6 3.7 -28.55 3.7 -28.55 3.4 -23.55 3.4 -23.4 3.65 -23.4 3.7 -23.3 3.8 -23.15 3.9 -22.9 3.95 -22.75 3.9 -22.6 3.85 -22.25 3.95 -22.2 3.95 -22.05 4.3 -21.95 4.3 -21.5 4.3 -18.1 4.25 -17.65 4.25 -16.65 4.25 -14.65 4.3 -13.95 4.35 -13.1 4.4 -12.65 4.35 -11.85 4.4 -10.95 4.4 -10.05 4.4 -9.4 4.4 -7.0 4.5 -4.8 4.7 -4.75 4.7 -2.85 4.9 -2.65 4.95 -2.2 5.0 2.4 5.45 2.6 5.45 3.5 5.35 3.8 5.3 4.05 5.4 4.3 5.45 4.35 5.45 4.35 5.3 4.5 5.3 4.65 5.3 4.95 5.3 5.7 5.25 6.65 5.25 6.75 5.25 7.3 5.25 8.3 5.4 8.55 6.05 8.75 6.85 8.85 7.0 8.85 6.95 8.9 7.1 8.8 7.1 8.8 7.15 9.05 8.4 9.05 8.6 9.0 9.25 8.95 10.25 8.9 11.55 8.75 12.75 8.7 13.1 8.6 13.1 8.45 13.2 8.3 13.4 8.35 13.55 8.35 13.65 8.5 13.65 9.15 13.9 9.9 14.2 10.75 14.35 11.6 14.55 12.7 14.8 13.4 14.95 14.35 15.2 15.05 15.3 15.3 15.35 15.7 15.25 15.95 15.2 16.0 15.2 16.1 15.2 16.25 15.2 16.75 12.35 16.85 11.55 16.95 10.7 17.0 9.2 16.95 9.0 16.95 8.9 16.95 8.75 16.9 8.75 16.9 8.7 16.9 8.6 16.95 8.6 16.95 8.7 16.95 8.75 17.5 8.7 17.45 8.75 17.7 9.2 18.1 9.75 18.25 9.9 18.55 10.25 18.65 10.3 18.3 9.6 18.05 8.95 18.05 8.8 18.1 8.75 18.8 8.75 18.8 6.7 18.85 6.8 19.6 6.7 20.2 6.6 20.5 6.75 20.8 6.85 21.0 6.8 21.15 6.75 21.45 6.7 21.55 6.7 21.8 6.75 21.9 6.75 Q22.4 6.75 22.45 7.45 L22.7 9.2 Q22.85 9.8 23.25 10.05 L24.75 10.45 27.0 10.3 Q27.95 10.0 28.15 8.9 29.25 8.95 29.65 9.75 L29.9 10.5 30.1 11.25 30.65 13.1 Q30.95 14.25 31.2 14.65 L32.55 14.5 33.85 14.2 35.1 13.75 36.1 13.25 36.15 13.25 Q36.3 12.65 36.55 12.55 L37.4 12.35 40.0 12.7 45.85 14.15 49.8 15.1 56.05 16.1 56.4 16.05 56.45 16.05 56.85 16.05 56.85 15.1 Q56.8 11.15 57.15 7.45 L57.45 4.45 49.25 3.95 49.25 3.9 49.25 3.65 49.3 3.3 49.35 3.1 49.35 1.9 49.1 1.55 48.85 1.45 40.05 0.85 39.85 0.85 39.55 1.0 39.45 1.25 39.35 1.4 39.35 1.65 39.35 2.45 39.4 2.9 39.3 3.2 39.3 3.25 39.4 3.4 33.5 3.1 33.5 2.8 Q33.5 2.4 33.1 2.05 L33.0 1.75 32.8 1.25 Q32.2 0.2 31.2 0.2 L29.5 0.2 27.9 0.35 26.8 0.35 26.75 0.35 26.75 0.25 26.25 -0.05 26.45 -0.05 26.95 0.0 26.95 -0.05 27.1 0.05 27.45 0.05 27.8 0.05 28.1 -0.05 28.3 -0.2 28.5 -0.35 28.45 -1.0 28.4 -1.0 28.45 -1.05 28.5 -1.8 28.5 -1.85 28.6 -2.6 29.35 -2.4 29.4 -2.35 29.5 -2.35 31.9 -2.35 31.9 -2.5 32.25 -3.05 32.35 -3.65 32.3 -4.2 31.9 -5.1 31.9 -5.35 29.45 -5.35 29.3 -5.4 29.25 -5.35 28.9 -5.25 28.0 -5.0 26.4 -5.0 26.4 -5.1 26.4 -5.35 25.2 -5.35 25.2 -5.1 19.8 -5.05 19.8 -5.15 19.65 -5.3 19.35 -5.45 18.55 -5.45 18.1 -5.45 17.9 -5.2 17.85 -5.1 7.1 -5.1 6.6 -4.3 6.4 -3.25 6.4 -3.15 6.4 -2.95 6.45 -2.35 6.8 -1.8 6.95 -1.7 7.05 -1.65 7.05 -1.75 7.45 -1.65 7.5 -1.65 7.6 -1.65 8.05 -1.65 9.7 -1.8 11.45 -1.9 11.5 -1.9 13.2 -2.0 15.0 -2.05 15.75 -2.05 15.75 -1.75 16.0 -1.75 16.4 -1.65 17.0 -1.75 16.95 -0.75 Q16.95 -0.15 17.2 -0.1 L19.55 0.05 20.3 0.0 20.9 0.0 Q21.55 -0.1 21.6 -0.25 L21.65 -0.65 21.65 -1.1 21.7 -1.7 22.95 -1.65 22.95 -0.95 23.45 -1.0 23.6 -1.0 23.6 -0.7 23.6 -0.1 23.65 0.0 23.95 0.0 24.05 -0.45 25.75 -0.5 26.0 -0.4 25.95 -0.25 26.05 0.0 26.2 -0.05 25.95 0.1 25.75 0.25 25.75 0.35 22.2 0.35 22.15 0.3 22.05 0.15 21.8 0.15 21.45 0.2 21.35 0.25 21.3 0.3 21.2 0.35 18.65 0.35 18.5 0.25 18.2 0.15 17.95 0.25 17.8 0.35 17.8 0.4 16.65 0.4 16.3 0.15 4.65 0.15 4.65 -0.3 4.3 -0.3 4.15 -0.3 4.15 -0.5 4.2 -0.6 4.75 -0.55 5.4 -0.55 5.35 -1.0 5.05 -1.15 5.0 -1.0 5.0 -0.9 4.35 -0.85 4.1 -0.95 3.8 -1.05 3.55 -0.9 2.8 -0.75 2.65 -0.75 2.55 -0.7 1.9 -0.7 1.85 -0.7 1.35 -0.75 0.55 -0.8 M3.85 -0.3 L3.95 -0.3 4.15 -0.3 3.85 -0.25 3.85 -0.3 M31.25 -10.2 L35.3 -14.25 69.85 -14.25 73.45 -10.6 73.45 19.1 70.2 22.45 -68.05 22.45 -71.35 19.1 -71.35 -6.45 -68.05 -9.75 30.25 -9.75 Q30.85 -9.75 31.25 -10.2 M54.3 6.5 L54.35 6.5 54.4 6.6 54.65 7.55 54.65 7.8 54.65 9.2 54.55 10.4 Q54.25 11.6 53.0 11.6 L52.75 11.6 52.5 11.5 52.75 6.05 Q53.95 6.25 54.3 6.5 M43.7 5.7 L43.7 5.75 Q43.65 5.75 43.55 5.85 L43.5 5.9 43.5 6.0 43.45 6.1 43.35 6.45 43.4 6.6 43.5 6.75 43.75 6.65 44.0 6.55 44.3 6.6 44.6 6.75 44.85 6.75 44.9 6.5 44.95 6.3 44.85 5.95 44.8 5.85 44.7 5.7 44.75 5.75 44.9 5.85 45.0 5.95 45.15 6.25 45.2 6.9 45.15 7.45 45.1 7.6 45.05 8.8 44.9 10.75 Q44.75 11.85 43.3 11.75 L36.35 10.75 Q35.2 10.65 34.55 8.9 33.85 7.15 33.9 6.45 33.95 5.75 34.3 5.4 34.7 5.1 35.0 5.05 L37.3 5.15 39.65 5.3 40.85 5.3 Q41.4 5.3 41.7 5.65 L42.25 6.3 42.3 6.3 42.8 6.5 43.2 6.15 43.25 6.0 Q43.35 5.55 43.7 5.65 L43.75 5.65 43.7 5.7 M51.85 5.95 L52.05 5.95 52.15 6.0 52.05 6.0 52.05 11.4 52.1 11.45 51.95 11.45 51.55 11.5 51.2 11.5 Q50.55 11.5 50.05 10.85 49.5 10.15 49.55 8.95 L49.55 8.75 Q49.6 7.6 49.95 6.75 50.3 5.75 51.85 5.95 M26.2 6.55 L26.25 6.6 26.6 6.6 26.95 6.55 27.0 6.55 27.15 6.9 Q27.25 7.05 27.5 7.05 L27.75 7.55 28.0 8.4 27.95 8.65 27.95 8.9 27.95 9.0 Q27.6 9.9 26.75 10.1 L24.65 10.3 Q23.95 10.3 23.45 9.95 22.95 9.6 22.8 8.95 L22.65 8.05 22.65 7.2 22.15 6.6 24.8 6.6 24.95 6.7 25.65 7.4 Q26.05 7.9 26.05 8.25 L25.95 8.9 25.8 9.45 25.8 9.55 26.3 9.1 26.35 8.5 26.15 7.45 25.9 6.85 25.9 6.8 Q25.95 6.6 26.15 6.55 L26.2 6.55 M5.8 2.65 L5.75 2.65 5.75 2.6 5.8 2.65 M-8.1 1.45 L-8.2 1.6 -8.5 1.65 -10.2 1.65 -10.45 1.65 -10.65 1.35 -10.65 1.3 -10.65 1.2 -10.5 1.0 -10.45 0.95 -10.3 0.9 -8.45 0.9 -8.15 1.35 -8.1 1.45 M-13.0 1.0 L-12.9 1.3 -12.95 1.6 -13.3 1.65 -15.05 1.65 -15.4 1.6 -15.5 1.3 -15.35 1.0 -15.1 0.9 -13.25 0.9 -13.0 1.0 M-17.8 1.6 L-18.1 1.65 -19.85 1.65 -19.95 1.65 -20.15 1.6 -20.25 1.3 -20.15 1.0 -19.9 0.9 -18.05 0.9 -17.85 1.0 Q-17.7 1.1 -17.7 1.3 L-17.8 1.6 M-48.35 0.7 L-48.25 0.75 -48.15 0.9 -48.15 1.0 Q-48.15 1.55 -48.35 1.65 L-49.0 1.7 Q-49.45 1.7 -49.45 1.3 L-49.45 1.0 -49.45 0.9 -49.15 0.8 -48.7 0.7 -48.35 0.7 M-21.7 1.2 L-21.7 1.45 -21.65 2.0 -21.7 2.55 Q-21.7 2.85 -21.85 2.85 L-21.95 2.1 -21.9 1.25 -21.85 1.2 -21.85 1.15 -21.8 1.2 -21.7 1.2 M-47.9 1.9 L-47.9 1.95 -47.95 1.9 -47.9 1.9 M-56.05 2.8 L-56.0 2.8 -55.95 2.85 -56.0 2.85 -56.05 2.8" fill="#000000" fill-opacity="0.06666667" fill-rule="evenodd" stroke="none"/>
    </g>
    <g id="text1" transform="matrix(1.0, 0.0, 0.0, 1.0, -103.9, -1.35)">
      <g transform="matrix(1.0, 0.0, 0.0, 1.0, 57.3, 0.0)">
        <use fill="#ffffff" fill-opacity="0.19607843" height="7.8" transform="matrix(0.0146, 0.0, 0.0, 0.0146, 47.0, 8.0)" width="61.85" xlink:href="#font_Visitor_TT2_BRK_d0"/>
        <use fill="#ffffff" fill-opacity="0.19607843" height="7.8" transform="matrix(0.0146, 0.0, 0.0, 0.0146, 54.0, 8.0)" width="61.85" xlink:href="#font_Visitor_TT2_BRK_r0"/>
        <use fill="#ffffff" fill-opacity="0.19607843" height="7.8" transform="matrix(0.0146, 0.0, 0.0, 0.0146, 61.0, 8.0)" width="61.85" xlink:href="#font_Visitor_TT2_BRK_a0"/>
        <use fill="#ffffff" fill-opacity="0.19607843" height="7.8" transform="matrix(0.0146, 0.0, 0.0, 0.0146, 68.0, 8.0)" width="61.85" xlink:href="#font_Visitor_TT2_BRK_g0"/>
        <use fill="#ffffff" fill-opacity="0.19607843" height="7.8" transform="matrix(0.0146, 0.0, 0.0, 0.0146, 75.0, 8.0)" width="61.85" xlink:href="#font_Visitor_TT2_BRK_u0"/>
        <use fill="#ffffff" fill-opacity="0.19607843" height="7.8" transform="matrix(0.0146, 0.0, 0.0, 0.0146, 82.0, 8.0)" width="61.85" xlink:href="#font_Visitor_TT2_BRK_n0"/>
        <use fill="#ffffff" fill-opacity="0.19607843" height="7.8" transform="matrix(0.0146, 0.0, 0.0, 0.0146, 89.0, 8.0)" width="61.85" xlink:href="#font_Visitor_TT2_BRK_o0"/>
        <use fill="#ffffff" fill-opacity="0.19607843" height="7.8" transform="matrix(0.0146, 0.0, 0.0, 0.0146, 96.0, 8.0)" width="61.85" xlink:href="#font_Visitor_TT2_BRK_v0"/>
      </g>
    </g>
    <g id="font_Visitor_TT2_BRK_d0">
      <path d="M318.5 -79.0 L318.5 -79.0 318.5 -318.5 398.5 -318.5 398.5 -79.0 318.5 -79.0 318.5 0.0 0.0 0.0 0.0 -397.5 318.5 -397.5 318.5 -318.5 80.0 -318.5 80.0 -318.5 80.0 -79.0 318.5 -79.0" fill-rule="evenodd" stroke="none"/>
    </g>
    <g id="font_Visitor_TT2_BRK_g0">
      <path d="M0.0 -397.5 L0.0 -397.5 398.5 -397.5 398.5 -318.5 79.0 -318.5 79.0 -79.0 318.5 -79.0 318.5 -158.5 159.0 -158.5 159.0 -238.5 398.5 -238.5 398.5 0.0 0.0 0.0 0.0 -397.5" fill-rule="evenodd" stroke="none"/>
    </g>
    <g id="font_Visitor_TT2_BRK_u0">
      <path d="M318.5 -79.0 L318.5 -79.0 318.5 -397.5 398.5 -397.5 398.5 0.0 0.0 0.0 0.0 -397.5 80.0 -397.5 80.0 -79.0 318.5 -79.0" fill-rule="evenodd" stroke="none"/>
    </g>
    <g id="font_Visitor_TT2_BRK_n0">
      <path d="M0.0 -397.5 L0.0 -397.5 398.5 -397.5 398.5 0.0 318.5 0.0 318.5 -318.5 80.0 -318.5 80.0 0.0 0.0 0.0 0.0 -397.5" fill-rule="evenodd" stroke="none"/>
    </g>
    <g id="font_Visitor_TT2_BRK_o0">
      <path d="M318.5 -79.0 L318.5 -79.0 318.5 -318.5 80.0 -318.5 80.0 -79.0 318.5 -79.0 M0.0 -397.5 L0.0 -397.5 398.5 -397.5 398.5 0.0 0.0 0.0 0.0 -397.5" fill-rule="evenodd" stroke="none"/>
    </g>
    <g id="font_Visitor_TT2_BRK_v0">
      <path d="M239.0 -79.0 L239.0 -79.0 239.0 -159.0 319.0 -159.0 319.0 -79.0 239.0 -79.0 239.0 0.0 160.0 0.0 160.0 0.0 160.0 -79.0 239.0 -79.0 M80.0 -159.0 L80.0 -159.0 160.0 -159.0 159.5 -79.0 80.0 -79.0 80.0 -159.0 0.0 -159.0 0.0 -397.5 0.0 -397.5 80.0 -397.5 80.0 -159.0 M319.0 -159.0 L319.0 -159.0 319.0 -397.5 399.0 -397.5 399.0 -159.0 319.0 -159.0" fill-rule="evenodd" stroke="none"/>
    </g>
    <g id="sprite6" transform="matrix(1.0, 0.0, 0.0, 1.0, 90.65, 22.0)">
      <use height="44.0" transform="matrix(1.0, 0.0, 0.0, 1.0, -58.75, -20.35)" width="133.9" xlink:href="#sprite7"/>
    </g>
    <g id="sprite7" transform="matrix(1.0, 0.0, 0.0, 1.0, 58.75, 20.35)">
      <use height="39.5" transform="matrix(1.0, 0.0, 0.0, 1.0, -58.75, -15.85)" width="133.9" xlink:href="#shape4"/>
      <use height="7.8" transform="matrix(1.0, 0.0, 0.0, 1.0, 12.0, -20.35)" width="23.35" xlink:href="#text2"/>
    </g>
    <g id="shape4" transform="matrix(1.0, 0.0, 0.0, 1.0, 58.75, 15.85)">
      <path d="M70.65 -15.85 L75.15 -11.4 75.15 19.5 70.95 23.65 -54.6 23.65 -58.75 19.5 -58.75 -7.25 -54.6 -11.4 30.5 -11.4 34.95 -15.85 70.65 -15.85 M25.05 9.0 L23.95 9.0 23.65 9.05 23.95 9.55 24.15 10.15 23.85 10.95 23.65 10.95 23.6 9.85 22.8 9.1 21.45 9.15 21.3 9.15 21.45 10.05 21.75 10.85 Q22.45 11.65 23.35 11.65 L24.15 11.45 24.55 11.1 Q25.1 10.6 25.1 9.9 L25.05 9.0 M19.4 -2.9 L19.35 -2.95 19.35 -2.9 19.4 -2.9 M-2.35 -2.5 L-2.45 -3.5 -2.45 -3.6 -2.2 -4.75 Q-1.95 -5.6 -1.65 -5.65 L9.15 -5.65 9.8 -5.7 10.3 -5.65 10.65 -5.65 10.8 -5.6 10.8 -5.65 10.9 -5.75 11.1 -6.05 11.15 -6.1 11.65 -6.1 11.75 -6.1 12.6 -6.05 12.9 -5.85 12.95 -5.85 13.05 -5.7 13.05 -5.65 13.15 -5.65 13.2 -5.6 19.3 -5.6 19.3 -5.95 20.7 -5.95 20.7 -5.65 20.7 -5.6 22.55 -5.6 23.85 -5.9 24.05 -6.0 24.2 -5.95 27.05 -5.95 27.05 -5.75 27.55 -4.5 27.6 -4.0 27.45 -3.25 27.1 -2.7 27.1 -2.5 24.3 -2.5 24.1 -2.55 23.3 -2.75 23.25 -2.8 23.15 -2.2 23.15 -1.9 23.15 -1.85 23.05 -0.95 23.05 -0.9 23.15 -0.15 22.95 0.0 22.8 0.1 22.8 0.4 22.8 1.0 22.75 1.1 22.75 1.5 22.7 1.8 22.65 2.1 22.6 2.1 22.65 2.15 Q22.7 2.75 23.15 3.0 L23.2 3.0 23.35 3.05 24.8 3.15 25.0 3.15 26.15 3.4 Q26.7 3.85 26.5 5.0 26.9 4.8 27.75 5.3 L27.8 5.3 28.25 5.6 29.7 6.45 30.15 6.6 31.3 6.6 31.9 6.4 32.45 6.2 33.0 5.95 33.1 5.9 33.1 5.85 33.2 5.85 33.2 5.8 33.1 5.8 32.95 5.7 32.9 5.65 32.7 5.2 32.9 4.7 Q33.55 3.8 36.65 3.8 L37.6 3.9 39.15 4.0 40.4 3.95 42.6 3.85 43.6 3.75 43.75 3.75 44.55 3.7 48.05 3.5 48.1 3.5 48.6 3.6 48.6 4.0 48.3 4.45 48.05 5.1 48.0 5.3 48.0 5.4 48.0 5.55 48.05 5.55 Q48.8 5.2 48.95 4.55 L49.0 4.2 50.25 4.1 51.4 4.0 51.6 4.0 52.05 3.95 52.6 3.95 53.65 3.9 53.95 5.55 53.95 5.65 53.95 6.0 54.0 6.6 54.0 8.35 54.0 9.0 54.0 9.15 53.9 12.8 53.85 13.3 53.75 14.4 Q53.5 16.15 52.95 16.15 L52.85 16.15 51.95 16.05 51.85 16.05 51.45 15.95 50.75 15.85 48.55 15.6 47.7 15.45 46.9 15.3 46.7 15.95 46.1 16.5 45.5 16.4 Q45.3 16.3 45.3 15.85 L45.4 15.4 45.65 15.15 44.75 14.95 44.0 14.8 42.0 14.5 41.95 14.5 41.3 14.4 40.35 14.25 40.0 14.2 37.6 13.55 37.1 13.4 35.65 13.1 34.8 13.4 34.7 13.45 34.55 13.55 32.8 14.05 30.9 14.2 30.8 14.25 30.4 12.65 Q29.95 11.6 29.0 10.6 L27.6 9.5 Q26.85 9.1 26.1 9.05 L25.4 9.0 Q25.55 11.2 24.1 11.7 L23.0 11.85 22.4 11.7 21.85 11.45 21.45 11.0 21.45 10.95 Q21.25 10.5 20.7 10.65 20.15 10.75 20.25 10.15 L20.25 9.8 20.2 9.65 20.25 9.55 20.2 9.2 18.2 9.25 17.75 9.25 17.3 9.25 17.4 10.1 17.4 10.65 Q17.1 10.6 17.05 10.15 L16.95 9.25 16.4 9.25 15.7 17.5 14.85 17.45 11.3 17.0 11.3 16.95 11.2 16.95 11.15 16.9 10.8 16.95 9.0 16.7 9.75 8.75 9.85 8.7 9.75 8.7 9.15 8.65 8.7 8.6 7.35 8.4 5.35 8.1 3.1 8.05 1.4 8.0 1.0 8.0 -1.0 7.9 -3.15 7.8 -9.3 7.5 -9.95 7.45 -13.1 7.35 -16.3 7.15 -18.75 6.95 -19.85 7.0 Q-20.55 7.0 -20.4 6.55 L-21.15 6.35 -21.75 6.05 -23.15 5.95 -23.7 5.95 -24.0 6.0 -24.9 6.05 -24.9 5.95 -25.65 6.0 -26.25 5.95 -26.55 5.9 -26.65 5.9 -26.7 5.85 -27.15 5.7 -28.2 5.7 -28.65 5.6 -28.7 5.55 -28.9 5.2 -28.85 5.0 Q-28.7 4.75 -28.3 4.75 L-27.8 4.75 -27.25 4.7 -26.8 4.65 -26.8 4.2 -26.75 3.95 -27.5 3.9 -28.35 3.8 -28.5 3.8 -29.1 3.8 -29.45 3.8 -30.6 3.85 -31.55 3.85 -32.55 3.8 -34.5 3.8 -35.8 3.85 -36.45 3.85 -36.55 3.85 -37.45 3.8 -37.55 3.8 -37.55 3.9 -38.0 3.85 -38.6 4.1 -38.75 4.2 -38.9 4.25 -39.6 4.35 -39.9 4.3 -40.05 4.1 Q-40.15 3.85 -41.1 3.9 L-46.85 3.9 -46.95 3.8 -47.15 3.15 Q-47.15 2.6 -46.8 2.35 L-40.2 2.35 -40.1 2.35 Q-40.25 2.05 -40.0 1.25 L-40.0 1.2 -39.7 0.55 -39.45 0.4 -38.85 0.45 -38.9 1.0 -38.85 1.15 Q-38.8 1.35 -38.6 1.25 L-38.6 2.3 -38.65 2.35 -38.6 2.35 -38.5 2.35 -37.55 2.35 -37.55 2.65 -26.75 2.7 -26.75 2.65 -26.7 2.6 -25.95 2.45 -25.05 2.5 -24.9 2.45 -24.8 2.5 -24.7 2.55 -23.75 2.65 -23.65 2.65 -23.45 2.65 -22.9 2.6 -22.75 2.6 -22.55 2.6 -21.55 2.45 -21.5 2.55 -21.5 2.5 -21.15 2.25 -20.9 2.1 -20.7 1.95 -15.9 1.95 -15.85 2.1 -15.8 2.15 -15.6 2.15 -15.5 2.15 -15.35 2.0 -11.7 2.0 -11.4 2.15 -11.25 2.25 -11.1 2.1 -7.55 2.1 -7.3 2.15 -7.3 2.25 -7.25 2.3 -7.1 2.3 -7.05 2.25 -7.05 2.2 -6.9 2.1 -3.3 2.15 -3.2 2.15 -3.1 2.2 -2.85 2.3 -2.7 2.25 -2.7 2.2 -2.65 2.15 0.95 2.15 1.05 2.25 1.25 2.25 1.4 2.25 1.45 2.2 1.5 2.1 1.6 2.05 1.65 2.1 3.9 2.1 5.95 2.15 6.25 2.2 6.25 2.25 6.35 2.25 6.45 2.15 6.5 2.15 6.6 2.05 6.85 2.05 7.15 2.05 7.25 2.15 7.3 2.15 7.35 2.2 7.3 2.25 7.35 2.25 7.35 2.2 7.4 2.15 7.5 2.05 7.6 2.05 8.1 2.1 8.15 2.1 8.2 2.05 8.25 2.1 8.5 2.2 8.55 2.0 8.8 0.4 9.2 0.4 9.2 0.7 9.45 0.7 9.7 0.65 9.75 0.35 9.85 0.4 9.85 0.35 9.95 0.05 Q9.8 -0.1 9.8 -0.4 L9.75 -0.65 9.8 -1.45 9.8 -1.6 9.85 -1.75 9.85 -1.8 9.65 -1.8 9.55 -1.75 9.15 -1.7 8.7 -1.8 8.35 -1.8 8.35 -2.1 8.15 -2.1 7.55 -2.15 7.0 -2.15 6.05 -2.1 5.4 -2.05 3.45 -2.0 2.65 -1.95 1.4 -1.85 -0.55 -1.7 -1.15 -1.7 -1.35 -1.75 -1.6 -1.75 -1.7 -1.75 -1.85 -1.75 -2.0 -1.85 -2.0 -1.9 -2.35 -2.5 M70.05 -14.45 L35.55 -14.45 31.5 -10.4 Q31.05 -10.0 30.5 -10.0 L-53.95 -10.0 -57.3 -6.65 -57.3 18.9 -53.95 22.25 70.4 22.25 73.7 18.9 73.7 -10.8 70.05 -14.45 M21.35 0.2 L21.3 0.25 20.75 0.15 20.3 0.25 20.25 -0.25 19.95 -0.35 19.2 -0.3 18.6 -0.3 18.65 0.2 18.55 0.5 18.4 1.25 18.4 1.6 18.4 1.65 18.9 2.1 19.05 2.15 20.05 2.05 20.65 1.75 20.75 1.65 20.8 1.55 21.2 1.0 21.35 0.95 21.3 0.5 21.35 0.2 M17.4 2.6 L17.4 2.55 15.35 2.7 15.0 2.7 15.3 1.95 15.35 1.9 15.15 1.75 14.7 1.65 14.5 1.6 13.55 1.6 13.35 1.6 11.95 1.65 11.0 1.7 10.1 1.7 9.95 2.0 9.5 2.1 9.45 2.1 9.45 2.2 9.45 2.3 9.7 2.3 10.1 2.7 10.35 3.15 10.9 3.3 11.6 3.35 12.15 3.4 12.75 3.35 13.15 3.35 14.4 3.35 14.8 3.35 15.75 3.4 18.8 3.5 20.6 3.4 Q20.35 2.9 19.15 2.9 L18.85 2.9 17.45 2.7 17.4 2.6 M17.5 -0.9 L17.35 -0.9 16.75 -0.85 16.75 -1.7 15.3 -1.75 15.25 -1.95 15.25 -1.8 15.3 -1.75 15.25 -1.0 15.25 -0.5 15.2 -0.05 14.7 0.15 14.6 0.2 14.9 0.6 14.9 0.7 15.05 0.75 15.15 0.5 15.3 0.45 Q15.5 0.45 15.55 0.8 15.65 1.1 16.15 1.1 L17.2 1.05 17.5 1.05 17.5 0.8 17.55 0.55 17.4 0.35 17.5 0.05 17.45 -0.6 17.5 -0.9 M10.15 0.8 L10.1 0.75 10.1 0.8 10.15 0.8 M45.7 16.25 L45.9 16.25 46.3 15.65 46.4 15.2 46.15 15.2 45.9 15.5 45.6 16.05 45.7 16.25 M-39.0 2.35 L-38.95 2.25 -39.0 2.25 -39.0 2.35" fill="#ffffff" fill-opacity="0.19607843" fill-rule="evenodd" stroke="none"/>
      <path d="M70.05 -14.45 L73.7 -10.8 73.7 18.9 70.4 22.25 -53.95 22.25 -57.3 18.9 -57.3 -6.65 -53.95 -10.0 30.5 -10.0 Q31.05 -10.0 31.5 -10.4 L35.55 -14.45 70.05 -14.45 M-2.35 -2.5 L-2.0 -1.9 -2.0 -1.85 -1.85 -1.75 -1.7 -1.75 -1.6 -1.75 -1.35 -1.75 -1.15 -1.7 -0.55 -1.7 1.4 -1.85 2.65 -1.95 3.45 -2.0 5.4 -2.05 6.05 -2.1 7.0 -2.15 7.55 -2.15 8.15 -2.1 8.35 -2.1 8.35 -1.8 8.7 -1.8 9.15 -1.7 9.55 -1.75 9.65 -1.8 9.85 -1.8 9.85 -1.75 9.8 -1.6 9.8 -1.45 9.75 -0.65 9.8 -0.4 Q9.8 -0.1 9.95 0.05 L9.85 0.35 9.85 0.4 9.75 0.35 9.7 0.65 9.45 0.7 9.2 0.7 9.2 0.4 8.8 0.4 8.55 2.0 8.5 2.2 8.25 2.1 8.2 2.05 8.15 2.1 8.1 2.1 7.6 2.05 7.5 2.05 7.4 2.15 7.35 2.2 7.35 2.25 7.3 2.25 7.35 2.2 7.3 2.15 7.25 2.15 7.15 2.05 6.85 2.05 6.6 2.05 6.5 2.15 6.45 2.15 6.35 2.25 6.25 2.25 6.25 2.2 5.95 2.15 3.9 2.1 1.65 2.1 1.6 2.05 1.5 2.1 1.45 2.2 1.4 2.25 1.25 2.25 1.05 2.25 0.95 2.15 -2.65 2.15 -2.7 2.2 -2.7 2.25 -2.85 2.3 -3.1 2.2 -3.2 2.15 -3.3 2.15 -6.9 2.1 -7.05 2.2 -7.05 2.25 -7.1 2.3 -7.25 2.3 -7.3 2.25 -7.3 2.15 -7.55 2.1 -11.1 2.1 -11.25 2.25 -11.4 2.15 -11.7 2.0 -15.35 2.0 -15.5 2.15 -15.6 2.15 -15.8 2.15 -15.85 2.1 -15.9 1.95 -20.7 1.95 -20.9 2.1 -21.15 2.25 -21.5 2.5 -21.5 2.55 -21.55 2.45 -22.55 2.6 -22.75 2.6 -22.9 2.6 -23.45 2.65 -23.65 2.65 -23.75 2.65 -24.7 2.55 -24.8 2.5 -24.9 2.45 -25.05 2.5 -25.95 2.45 -26.7 2.6 -26.75 2.65 -26.75 2.7 -37.55 2.65 -37.55 2.35 -38.5 2.35 -38.6 2.35 -38.65 2.35 -38.6 2.3 -38.6 1.25 Q-38.8 1.35 -38.85 1.15 L-38.9 1.0 -38.85 0.45 -39.45 0.4 -39.7 0.55 -40.0 1.2 -40.0 1.25 Q-40.25 2.05 -40.1 2.35 L-40.2 2.35 -46.8 2.35 Q-47.15 2.6 -47.15 3.15 L-46.95 3.8 -46.85 3.9 -41.1 3.9 Q-40.15 3.85 -40.05 4.1 L-39.9 4.3 -39.6 4.35 -38.9 4.25 -38.75 4.2 -38.6 4.1 -38.0 3.85 -37.55 3.9 -37.55 3.8 -37.45 3.8 -36.55 3.85 -36.45 3.85 -35.8 3.85 -34.5 3.8 -32.55 3.8 -31.55 3.85 -30.6 3.85 -29.45 3.8 -29.1 3.8 -28.5 3.8 -28.35 3.8 -27.5 3.9 -26.75 3.95 -26.8 4.2 -26.8 4.65 -27.25 4.7 -27.8 4.75 -28.3 4.75 Q-28.7 4.75 -28.85 5.0 L-28.9 5.2 -28.7 5.55 -28.65 5.6 -28.2 5.7 -27.15 5.7 -26.7 5.85 -26.65 5.9 -26.55 5.9 -26.25 5.95 -25.65 6.0 -24.9 5.95 -24.9 6.05 -24.0 6.0 -23.7 5.95 -23.15 5.95 -21.75 6.05 -21.15 6.35 -20.4 6.55 Q-20.55 7.0 -19.85 7.0 L-18.75 6.95 -16.3 7.15 -13.1 7.35 -9.95 7.45 -9.3 7.5 -3.15 7.8 -1.0 7.9 1.0 8.0 1.4 8.0 3.1 8.05 5.35 8.1 7.35 8.4 8.7 8.6 9.15 8.65 9.75 8.7 9.85 8.7 9.75 8.75 9.0 16.7 10.8 16.95 11.15 16.9 11.2 16.95 11.3 16.95 11.3 17.0 14.85 17.45 15.7 17.5 16.4 9.25 16.95 9.25 17.05 10.15 Q17.1 10.6 17.4 10.65 L17.4 10.1 17.3 9.25 17.75 9.25 18.2 9.25 20.2 9.2 20.25 9.55 20.2 9.65 20.25 9.8 20.25 10.15 Q20.15 10.75 20.7 10.65 21.25 10.5 21.45 10.95 L21.45 11.0 21.85 11.45 22.4 11.7 23.0 11.85 24.1 11.7 Q25.55 11.2 25.4 9.0 L26.1 9.05 Q26.85 9.1 27.6 9.5 L29.0 10.6 Q29.95 11.6 30.4 12.65 L30.8 14.25 30.9 14.2 32.8 14.05 34.55 13.55 34.7 13.45 34.8 13.4 35.65 13.1 37.1 13.4 37.6 13.55 40.0 14.2 40.35 14.25 41.3 14.4 41.95 14.5 42.0 14.5 44.0 14.8 44.75 14.95 45.65 15.15 45.4 15.4 45.3 15.85 Q45.3 16.3 45.5 16.4 L46.1 16.5 46.7 15.95 46.9 15.3 47.7 15.45 48.55 15.6 50.75 15.85 51.45 15.95 51.85 16.05 51.95 16.05 52.85 16.15 52.95 16.15 Q53.5 16.15 53.75 14.4 L53.85 13.3 53.9 12.8 54.0 9.15 54.0 9.0 54.0 8.35 54.0 6.6 53.95 6.0 53.95 5.65 53.95 5.55 53.65 3.9 52.6 3.95 52.05 3.95 51.6 4.0 51.4 4.0 50.25 4.1 49.0 4.2 48.95 4.55 Q48.8 5.2 48.05 5.55 L48.0 5.55 48.0 5.4 48.0 5.3 48.05 5.1 48.3 4.45 48.6 4.0 48.6 3.6 48.1 3.5 48.05 3.5 44.55 3.7 43.75 3.75 43.6 3.75 42.6 3.85 40.4 3.95 39.15 4.0 37.6 3.9 36.65 3.8 Q33.55 3.8 32.9 4.7 L32.7 5.2 32.9 5.65 32.95 5.7 33.1 5.8 33.2 5.8 33.2 5.85 33.1 5.85 33.1 5.9 33.0 5.95 32.45 6.2 31.9 6.4 31.3 6.6 30.15 6.6 29.7 6.45 28.25 5.6 27.8 5.3 27.75 5.3 Q26.9 4.8 26.5 5.0 26.7 3.85 26.15 3.4 L25.0 3.15 24.8 3.15 23.35 3.05 23.2 3.0 23.15 3.0 Q22.7 2.75 22.65 2.15 L22.6 2.1 22.65 2.1 22.7 1.8 22.75 1.5 22.75 1.1 22.8 1.0 22.8 0.4 22.8 0.1 22.95 0.0 23.15 -0.15 23.05 -0.9 23.05 -0.95 23.15 -1.85 23.15 -1.9 23.15 -2.2 23.25 -2.8 23.3 -2.75 24.1 -2.55 24.3 -2.5 27.1 -2.5 27.1 -2.7 27.45 -3.25 27.6 -4.0 27.55 -4.5 27.05 -5.75 27.05 -5.95 24.2 -5.95 24.05 -6.0 23.85 -5.9 22.55 -5.6 20.7 -5.6 20.7 -5.65 20.7 -5.95 19.3 -5.95 19.3 -5.6 13.2 -5.6 13.15 -5.65 13.05 -5.65 13.05 -5.7 12.95 -5.85 12.9 -5.85 12.6 -6.05 11.75 -6.1 11.65 -6.1 11.15 -6.1 11.1 -6.05 10.9 -5.75 10.8 -5.65 10.8 -5.6 10.65 -5.65 10.3 -5.65 9.8 -5.7 9.15 -5.65 -1.65 -5.65 Q-1.95 -5.6 -2.2 -4.75 L-2.45 -3.6 -2.45 -3.5 -2.35 -2.5 M19.4 -2.9 L19.35 -2.9 19.35 -2.95 19.4 -2.9 M25.05 9.0 L25.1 9.9 Q25.1 10.6 24.55 11.1 L24.15 11.45 23.35 11.65 Q22.45 11.65 21.75 10.85 L21.45 10.05 21.3 9.15 21.45 9.15 22.8 9.1 23.6 9.85 23.65 10.95 23.85 10.95 24.15 10.15 23.95 9.55 23.65 9.05 23.95 9.0 25.05 9.0 M21.35 0.2 L21.3 0.5 21.35 0.95 21.2 1.0 20.8 1.55 20.75 1.65 20.65 1.75 20.05 2.05 19.05 2.15 18.9 2.1 18.4 1.65 18.4 1.6 18.4 1.25 18.55 0.5 18.65 0.2 18.6 -0.3 19.2 -0.3 19.95 -0.35 20.25 -0.25 20.3 0.25 20.75 0.15 21.3 0.25 21.35 0.2 M17.5 -0.9 L17.45 -0.6 17.5 0.05 17.4 0.35 17.55 0.55 17.5 0.8 17.5 1.05 17.2 1.05 16.15 1.1 Q15.65 1.1 15.55 0.8 15.5 0.45 15.3 0.45 L15.15 0.5 15.05 0.75 14.9 0.7 14.9 0.6 14.6 0.2 14.7 0.15 15.2 -0.05 15.25 -0.5 15.25 -1.0 15.3 -1.75 15.25 -1.8 15.25 -1.95 15.3 -1.75 16.75 -1.7 16.75 -0.85 17.35 -0.9 17.5 -0.9 M17.4 2.6 L17.45 2.7 18.85 2.9 19.15 2.9 Q20.35 2.9 20.6 3.4 L18.8 3.5 15.75 3.4 14.8 3.35 14.4 3.35 13.15 3.35 12.75 3.35 12.15 3.4 11.6 3.35 10.9 3.3 10.35 3.15 10.1 2.7 9.7 2.3 9.45 2.3 9.45 2.2 9.45 2.1 9.5 2.1 9.95 2.0 10.1 1.7 11.0 1.7 11.95 1.65 13.35 1.6 13.55 1.6 14.5 1.6 14.7 1.65 15.15 1.75 15.35 1.9 15.3 1.95 15.0 2.7 15.35 2.7 17.4 2.55 17.4 2.6 M10.15 0.8 L10.1 0.8 10.1 0.75 10.15 0.8 M45.7 16.25 L45.6 16.05 45.9 15.5 46.15 15.2 46.4 15.2 46.3 15.65 45.9 16.25 45.7 16.25 M-39.0 2.35 L-39.0 2.25 -38.95 2.25 -39.0 2.35" fill="#000000" fill-opacity="0.06666667" fill-rule="evenodd" stroke="none"/>
    </g>
    <g id="text2" transform="matrix(1.0, 0.0, 0.0, 1.0, -142.4, -1.35)">
      <g transform="matrix(1.0, 0.0, 0.0, 1.0, 57.3, 0.0)">
        <use fill="#ffffff" fill-opacity="0.19607843" height="7.8" transform="matrix(0.0146, 0.0, 0.0, 0.0146, 85.0, 8.0)" width="23.35" xlink:href="#font_Visitor_TT2_BRK_m0"/>
        <use fill="#ffffff" fill-opacity="0.19607843" height="7.8" transform="matrix(0.0146, 0.0, 0.0, 0.0146, 92.0, 8.0)" width="23.35" xlink:href="#font_Visitor_TT2_BRK_20"/>
        <use fill="#ffffff" fill-opacity="0.19607843" height="7.8" transform="matrix(0.0146, 0.0, 0.0, 0.0146, 99.0, 8.0)" width="23.35" xlink:href="#font_Visitor_TT2_BRK_10"/>
      </g>
    </g>
    <g id="font_Visitor_TT2_BRK_m0">
      <path d="M0.0 -397.5 L0.0 -397.5 397.5 -397.5 397.5 0.0 318.5 0.0 318.5 -318.5 238.5 -318.5 238.5 0.0 158.5 0.0 158.5 -318.5 79.0 -318.5 79.0 0.0 0.0 0.0 0.0 -397.5" fill-rule="evenodd" stroke="none"/>
    </g>
    <g id="font_Visitor_TT2_BRK_20">
      <path d="M0.0 -318.5 L0.0 -318.5 0.0 -397.5 398.5 -397.5 398.5 -158.5 80.0 -158.5 80.0 -79.0 398.5 -79.0 398.5 0.0 0.0 0.0 0.0 -238.5 318.5 -238.5 318.5 -318.5 0.0 -318.5" fill-rule="evenodd" stroke="none"/>
    </g>
    <g id="font_Visitor_TT2_BRK_10">
      <path d="M0.0 -397.5 L0.0 -397.5 159.5 -397.5 159.5 0.0 79.5 0.0 79.5 -318.5 0.0 -318.5 0.0 -397.5" fill-rule="evenodd" stroke="none"/>
    </g>
  </defs>
</svg>
