<?xml version="1.0" encoding="UTF-8" standalone="no"?>
<svg xmlns:xlink="http://www.w3.org/1999/xlink" height="52.6px" width="317.95px" xmlns="http://www.w3.org/2000/svg">
  <g transform="matrix(1.0, 0.0, 0.0, 1.0, 133.8, 16.4)">
    <use height="9.0" transform="matrix(1.0, 0.0, 0.0, 1.0, -116.55, -16.4)" width="60.2" xlink:href="#sprite0"/>
  </g>
  <defs>
    <g id="sprite0" transform="matrix(1.0, 0.0, 0.0, 1.0, 26.5, 4.5)">
      <use height="9.0" transform="matrix(1.0, 0.0, 0.0, 1.0, -26.5, -4.5)" width="60.2" xlink:href="#text0"/>
    </g>
    <g id="text0" transform="matrix(1.0, 0.0, 0.0, 1.0, -90.8, -1.8)">
      <g transform="matrix(1.0, 0.0, 0.0, 1.0, 90.6, 0.0)">
        <use fill="#760101" fill-opacity="0.105882354" height="9.0" transform="matrix(0.0137, 0.0, 0.0, 0.0137, 0.0, 10.0)" width="60.2" xlink:href="#font_Visitor_TT1_BRK_w0"/>
        <use fill="#760101" fill-opacity="0.105882354" height="9.0" transform="matrix(0.0137, 0.0, 0.0, 0.0137, 8.4, 10.0)" width="60.2" xlink:href="#font_Visitor_TT1_BRK_a0"/>
        <use fill="#760101" fill-opacity="0.105882354" height="9.0" transform="matrix(0.0137, 0.0, 0.0, 0.0137, 16.8, 10.0)" width="60.2" xlink:href="#font_Visitor_TT1_BRK_r0"/>
        <use fill="#760101" fill-opacity="0.105882354" height="9.0" transform="matrix(0.0137, 0.0, 0.0, 0.0137, 25.2, 10.0)" width="60.2" xlink:href="#font_Visitor_TT1_BRK_n0"/>
        <use fill="#760101" fill-opacity="0.105882354" height="9.0" transform="matrix(0.0137, 0.0, 0.0, 0.0137, 33.6, 10.0)" width="60.2" xlink:href="#font_Visitor_TT1_BRK_i0"/>
        <use fill="#760101" fill-opacity="0.105882354" height="9.0" transform="matrix(0.0137, 0.0, 0.0, 0.0137, 36.4, 10.0)" width="60.2" xlink:href="#font_Visitor_TT1_BRK_n0"/>
        <use fill="#760101" fill-opacity="0.105882354" height="9.0" transform="matrix(0.0137, 0.0, 0.0, 0.0137, 44.8, 10.0)" width="60.2" xlink:href="#font_Visitor_TT1_BRK_g0"/>
      </g>
    </g>
    <g id="font_Visitor_TT1_BRK_w0">
      <path d="M0.0 0.0 L0.0 -512.0 102.5 -512.0 102.5 -102.5 205.0 -102.5 205.0 -512.0 307.5 -512.0 307.5 -102.5 409.5 -102.5 409.5 -512.0 512.0 -512.0 512.0 0.0 0.0 0.0" fill-rule="evenodd" stroke="none"/>
    </g>
    <g id="font_Visitor_TT1_BRK_a0">
      <path d="M102.5 -409.5 L102.5 -307.0 409.5 -307.0 409.5 -409.5 102.5 -409.5 M409.5 0.0 L409.5 -205.0 102.5 -205.0 102.5 0.0 0.0 0.0 0.0 -512.0 512.0 -512.0 512.0 0.0 409.5 0.0" fill-rule="evenodd" stroke="none"/>
    </g>
    <g id="font_Visitor_TT1_BRK_r0">
      <path d="M102.5 -409.5 L102.5 -307.0 409.5 -307.0 409.5 -409.5 102.5 -409.5 M307.5 -102.5 L307.5 -205.0 102.5 -205.0 102.5 0.0 0.0 0.0 0.0 -512.0 512.0 -512.0 512.0 -205.0 409.5 -205.0 409.5 -102.5 512.0 -102.5 512.0 0.0 409.5 0.0 409.5 -102.5 307.5 -102.5" fill-rule="evenodd" stroke="none"/>
    </g>
    <g id="font_Visitor_TT1_BRK_n0">
      <path d="M409.5 0.0 L409.5 -409.5 102.5 -409.5 102.5 0.0 0.0 0.0 0.0 -512.0 512.0 -512.0 512.0 0.0 409.5 0.0" fill-rule="evenodd" stroke="none"/>
    </g>
    <g id="font_Visitor_TT1_BRK_i0">
      <path d="M0.0 0.0 L0.0 -512.0 102.5 -512.0 102.5 0.0 0.0 0.0" fill-rule="evenodd" stroke="none"/>
    </g>
    <g id="font_Visitor_TT1_BRK_g0">
      <path d="M0.0 0.0 L0.0 -512.0 512.0 -512.0 512.0 -409.5 102.5 -409.5 102.5 -102.5 409.5 -102.5 409.5 -205.0 205.0 -205.0 205.0 -307.0 512.0 -307.0 512.0 0.0 0.0 0.0" fill-rule="evenodd" stroke="none"/>
    </g>
  </defs>
</svg>
