<?xml version="1.0" encoding="UTF-8" standalone="no"?>
<svg xmlns:xlink="http://www.w3.org/1999/xlink" height="52.6px" width="317.95px" xmlns="http://www.w3.org/2000/svg">
  <g transform="matrix(1.0, 0.0, 0.0, 1.0, 133.8, 16.4)">
    <use height="19.4" transform="matrix(1.0, 0.0, 0.0, 1.0, -116.65, -2.7)" width="234.3" xlink:href="#sprite0"/>
    <use height="9.0" transform="matrix(1.0, 0.0, 0.0, 1.0, -116.55, -16.4)" width="60.2" xlink:href="#sprite1"/>
  </g>
  <defs>
    <g id="sprite0" transform="matrix(1.0, 0.0, 0.0, 1.0, 117.15, 9.7)">
      <use height="19.4" transform="matrix(1.0, 0.0, 0.0, 1.0, -117.15, -9.7)" width="234.3" xlink:href="#text0"/>
    </g>
    <g id="text0" transform="matrix(1.0, 0.0, 0.0, 1.0, -79.2, -1.2)">
      <g transform="matrix(1.0, 0.0, 0.0, 1.0, 79.2, 0.0)">
        <use fill="#ffffff" fill-opacity="0.25490198" height="19.4" transform="matrix(0.0107, 0.0, 0.0, 0.0107, 0.0, 8.0)" width="234.3" xlink:href="#font_Visitor_TT1_BRK_t0"/>
        <use fill="#ffffff" fill-opacity="0.25490198" height="19.4" transform="matrix(0.0107, 0.0, 0.0, 0.0107, 6.6, 8.0)" width="234.3" xlink:href="#font_Visitor_TT1_BRK_h0"/>
        <use fill="#ffffff" fill-opacity="0.25490198" height="19.4" transform="matrix(0.0107, 0.0, 0.0, 0.0107, 13.2, 8.0)" width="234.3" xlink:href="#font_Visitor_TT1_BRK_i0"/>
        <use fill="#ffffff" fill-opacity="0.25490198" height="19.4" transform="matrix(0.0107, 0.0, 0.0, 0.0107, 15.4, 8.0)" width="234.3" xlink:href="#font_Visitor_TT1_BRK_s0"/>
        <use fill="#ffffff" fill-opacity="0.25490198" height="19.4" transform="matrix(0.0107, 0.0, 0.0, 0.0107, 28.6, 8.0)" width="234.3" xlink:href="#font_Visitor_TT1_BRK_g0"/>
        <use fill="#ffffff" fill-opacity="0.25490198" height="19.4" transform="matrix(0.0107, 0.0, 0.0, 0.0107, 35.2, 8.0)" width="234.3" xlink:href="#font_Visitor_TT1_BRK_a0"/>
        <use fill="#ffffff" fill-opacity="0.25490198" height="19.4" transform="matrix(0.0107, 0.0, 0.0, 0.0107, 41.8, 8.0)" width="234.3" xlink:href="#font_Visitor_TT1_BRK_m0"/>
        <use fill="#ffffff" fill-opacity="0.25490198" height="19.4" transform="matrix(0.0107, 0.0, 0.0, 0.0107, 48.4, 8.0)" width="234.3" xlink:href="#font_Visitor_TT1_BRK_e0"/>
        <use fill="#ffffff" fill-opacity="0.25490198" height="19.4" transform="matrix(0.0107, 0.0, 0.0, 0.0107, 61.6, 8.0)" width="234.3" xlink:href="#font_Visitor_TT1_BRK_c0"/>
        <use fill="#ffffff" fill-opacity="0.25490198" height="19.4" transform="matrix(0.0107, 0.0, 0.0, 0.0107, 68.2, 8.0)" width="234.3" xlink:href="#font_Visitor_TT1_BRK_o0"/>
        <use fill="#ffffff" fill-opacity="0.25490198" height="19.4" transform="matrix(0.0107, 0.0, 0.0, 0.0107, 74.8, 8.0)" width="234.3" xlink:href="#font_Visitor_TT1_BRK_n0"/>
        <use fill="#ffffff" fill-opacity="0.25490198" height="19.4" transform="matrix(0.0107, 0.0, 0.0, 0.0107, 81.4, 8.0)" width="234.3" xlink:href="#font_Visitor_TT1_BRK_t0"/>
        <use fill="#ffffff" fill-opacity="0.25490198" height="19.4" transform="matrix(0.0107, 0.0, 0.0, 0.0107, 88.0, 8.0)" width="234.3" xlink:href="#font_Visitor_TT1_BRK_a0"/>
        <use fill="#ffffff" fill-opacity="0.25490198" height="19.4" transform="matrix(0.0107, 0.0, 0.0, 0.0107, 94.6, 8.0)" width="234.3" xlink:href="#font_Visitor_TT1_BRK_i0"/>
        <use fill="#ffffff" fill-opacity="0.25490198" height="19.4" transform="matrix(0.0107, 0.0, 0.0, 0.0107, 96.8, 8.0)" width="234.3" xlink:href="#font_Visitor_TT1_BRK_n0"/>
        <use fill="#ffffff" fill-opacity="0.25490198" height="19.4" transform="matrix(0.0107, 0.0, 0.0, 0.0107, 103.4, 8.0)" width="234.3" xlink:href="#font_Visitor_TT1_BRK_s0"/>
        <use fill="#ffffff" fill-opacity="0.25490198" height="19.4" transform="matrix(0.0107, 0.0, 0.0, 0.0107, 116.6, 8.0)" width="234.3" xlink:href="#font_Visitor_TT1_BRK_g0"/>
        <use fill="#ffffff" fill-opacity="0.25490198" height="19.4" transform="matrix(0.0107, 0.0, 0.0, 0.0107, 123.2, 8.0)" width="234.3" xlink:href="#font_Visitor_TT1_BRK_o0"/>
        <use fill="#ffffff" fill-opacity="0.25490198" height="19.4" transform="matrix(0.0107, 0.0, 0.0, 0.0107, 129.8, 8.0)" width="234.3" xlink:href="#font_Visitor_TT1_BRK_r0"/>
        <use fill="#ffffff" fill-opacity="0.25490198" height="19.4" transform="matrix(0.0107, 0.0, 0.0, 0.0107, 136.4, 8.0)" width="234.3" xlink:href="#font_Visitor_TT1_BRK_e0"/>
        <use fill="#ffffff" fill-opacity="0.25490198" height="19.4" transform="matrix(0.0107, 0.0, 0.0, 0.0107, 149.6, 8.0)" width="234.3" xlink:href="#font_Visitor_TT1_BRK_a0"/>
        <use fill="#ffffff" fill-opacity="0.25490198" height="19.4" transform="matrix(0.0107, 0.0, 0.0, 0.0107, 156.2, 8.0)" width="234.3" xlink:href="#font_Visitor_TT1_BRK_n0"/>
        <use fill="#ffffff" fill-opacity="0.25490198" height="19.4" transform="matrix(0.0107, 0.0, 0.0, 0.0107, 162.8, 8.0)" width="234.3" xlink:href="#font_Visitor_TT1_BRK_d0"/>
        <use fill="#ffffff" fill-opacity="0.25490198" height="19.4" transform="matrix(0.0107, 0.0, 0.0, 0.0107, 176.0, 8.0)" width="234.3" xlink:href="#font_Visitor_TT1_BRK_b0"/>
        <use fill="#ffffff" fill-opacity="0.25490198" height="19.4" transform="matrix(0.0107, 0.0, 0.0, 0.0107, 182.6, 8.0)" width="234.3" xlink:href="#font_Visitor_TT1_BRK_l0"/>
        <use fill="#ffffff" fill-opacity="0.25490198" height="19.4" transform="matrix(0.0107, 0.0, 0.0, 0.0107, 189.2, 8.0)" width="234.3" xlink:href="#font_Visitor_TT1_BRK_o0"/>
        <use fill="#ffffff" fill-opacity="0.25490198" height="19.4" transform="matrix(0.0107, 0.0, 0.0, 0.0107, 195.8, 8.0)" width="234.3" xlink:href="#font_Visitor_TT1_BRK_o0"/>
        <use fill="#ffffff" fill-opacity="0.25490198" height="19.4" transform="matrix(0.0107, 0.0, 0.0, 0.0107, 202.4, 8.0)" width="234.3" xlink:href="#font_Visitor_TT1_BRK_d0"/>
      </g>
      <g transform="matrix(1.0, 0.0, 0.0, 1.0, 79.2, 0.0)">
        <use fill="#ffffff" fill-opacity="0.25490198" height="19.4" transform="matrix(0.0107, 0.0, 0.0, 0.0107, 0.0, 20.0)" width="234.3" xlink:href="#font_Visitor_TT1_BRK_a0"/>
        <use fill="#ffffff" fill-opacity="0.25490198" height="19.4" transform="matrix(0.0107, 0.0, 0.0, 0.0107, 6.6, 20.0)" width="234.3" xlink:href="#font_Visitor_TT1_BRK_n0"/>
        <use fill="#ffffff" fill-opacity="0.25490198" height="19.4" transform="matrix(0.0107, 0.0, 0.0, 0.0107, 13.2, 20.0)" width="234.3" xlink:href="#font_Visitor_TT1_BRK_d0"/>
        <use fill="#ffffff" fill-opacity="0.25490198" height="19.4" transform="matrix(0.0107, 0.0, 0.0, 0.0107, 26.4, 20.0)" width="234.3" xlink:href="#font_Visitor_TT1_BRK_i0"/>
        <use fill="#ffffff" fill-opacity="0.25490198" height="19.4" transform="matrix(0.0107, 0.0, 0.0, 0.0107, 28.6, 20.0)" width="234.3" xlink:href="#font_Visitor_TT1_BRK_s0"/>
        <use fill="#ffffff" fill-opacity="0.25490198" height="19.4" transform="matrix(0.0107, 0.0, 0.0, 0.0107, 41.8, 20.0)" width="234.3" xlink:href="#font_Visitor_TT1_BRK_m0"/>
        <use fill="#ffffff" fill-opacity="0.25490198" height="19.4" transform="matrix(0.0107, 0.0, 0.0, 0.0107, 48.4, 20.0)" width="234.3" xlink:href="#font_Visitor_TT1_BRK_a0"/>
        <use fill="#ffffff" fill-opacity="0.25490198" height="19.4" transform="matrix(0.0107, 0.0, 0.0, 0.0107, 55.0, 20.0)" width="234.3" xlink:href="#font_Visitor_TT1_BRK_y0"/>
        <use fill="#ffffff" fill-opacity="0.25490198" height="19.4" transform="matrix(0.0107, 0.0, 0.0, 0.0107, 61.6, 20.0)" width="234.3" xlink:href="#font_Visitor_TT1_BRK_b0"/>
        <use fill="#ffffff" fill-opacity="0.25490198" height="19.4" transform="matrix(0.0107, 0.0, 0.0, 0.0107, 68.2, 20.0)" width="234.3" xlink:href="#font_Visitor_TT1_BRK_e0"/>
        <use fill="#ffffff" fill-opacity="0.25490198" height="19.4" transform="matrix(0.0107, 0.0, 0.0, 0.0107, 81.4, 20.0)" width="234.3" xlink:href="#font_Visitor_TT1_BRK_n0"/>
        <use fill="#ffffff" fill-opacity="0.25490198" height="19.4" transform="matrix(0.0107, 0.0, 0.0, 0.0107, 88.0, 20.0)" width="234.3" xlink:href="#font_Visitor_TT1_BRK_o0"/>
        <use fill="#ffffff" fill-opacity="0.25490198" height="19.4" transform="matrix(0.0107, 0.0, 0.0, 0.0107, 94.6, 20.0)" width="234.3" xlink:href="#font_Visitor_TT1_BRK_t0"/>
        <use fill="#ffffff" fill-opacity="0.25490198" height="19.4" transform="matrix(0.0107, 0.0, 0.0, 0.0107, 107.8, 20.0)" width="234.3" xlink:href="#font_Visitor_TT1_BRK_a0"/>
        <use fill="#ffffff" fill-opacity="0.25490198" height="19.4" transform="matrix(0.0107, 0.0, 0.0, 0.0107, 114.4, 20.0)" width="234.3" xlink:href="#font_Visitor_TT1_BRK_p0"/>
        <use fill="#ffffff" fill-opacity="0.25490198" height="19.4" transform="matrix(0.0107, 0.0, 0.0, 0.0107, 121.0, 20.0)" width="234.3" xlink:href="#font_Visitor_TT1_BRK_p0"/>
        <use fill="#ffffff" fill-opacity="0.25490198" height="19.4" transform="matrix(0.0107, 0.0, 0.0, 0.0107, 127.6, 20.0)" width="234.3" xlink:href="#font_Visitor_TT1_BRK_r0"/>
        <use fill="#ffffff" fill-opacity="0.25490198" height="19.4" transform="matrix(0.0107, 0.0, 0.0, 0.0107, 134.2, 20.0)" width="234.3" xlink:href="#font_Visitor_TT1_BRK_o0"/>
        <use fill="#ffffff" fill-opacity="0.25490198" height="19.4" transform="matrix(0.0107, 0.0, 0.0, 0.0107, 140.8, 20.0)" width="234.3" xlink:href="#font_Visitor_TT1_BRK_p0"/>
        <use fill="#ffffff" fill-opacity="0.25490198" height="19.4" transform="matrix(0.0107, 0.0, 0.0, 0.0107, 147.4, 20.0)" width="234.3" xlink:href="#font_Visitor_TT1_BRK_r0"/>
        <use fill="#ffffff" fill-opacity="0.25490198" height="19.4" transform="matrix(0.0107, 0.0, 0.0, 0.0107, 154.0, 20.0)" width="234.3" xlink:href="#font_Visitor_TT1_BRK_i0"/>
        <use fill="#ffffff" fill-opacity="0.25490198" height="19.4" transform="matrix(0.0107, 0.0, 0.0, 0.0107, 156.2, 20.0)" width="234.3" xlink:href="#font_Visitor_TT1_BRK_a0"/>
        <use fill="#ffffff" fill-opacity="0.25490198" height="19.4" transform="matrix(0.0107, 0.0, 0.0, 0.0107, 162.8, 20.0)" width="234.3" xlink:href="#font_Visitor_TT1_BRK_t0"/>
        <use fill="#ffffff" fill-opacity="0.25490198" height="19.4" transform="matrix(0.0107, 0.0, 0.0, 0.0107, 169.4, 20.0)" width="234.3" xlink:href="#font_Visitor_TT1_BRK_e0"/>
        <use fill="#ffffff" fill-opacity="0.25490198" height="19.4" transform="matrix(0.0107, 0.0, 0.0, 0.0107, 182.6, 20.0)" width="234.3" xlink:href="#font_Visitor_TT1_BRK_f0"/>
        <use fill="#ffffff" fill-opacity="0.25490198" height="19.4" transform="matrix(0.0107, 0.0, 0.0, 0.0107, 189.2, 20.0)" width="234.3" xlink:href="#font_Visitor_TT1_BRK_o0"/>
        <use fill="#ffffff" fill-opacity="0.25490198" height="19.4" transform="matrix(0.0107, 0.0, 0.0, 0.0107, 195.8, 20.0)" width="234.3" xlink:href="#font_Visitor_TT1_BRK_r0"/>
        <use fill="#ffffff" fill-opacity="0.25490198" height="19.4" transform="matrix(0.0107, 0.0, 0.0, 0.0107, 209.0, 20.0)" width="234.3" xlink:href="#font_Visitor_TT1_BRK_a0"/>
        <use fill="#ffffff" fill-opacity="0.25490198" height="19.4" transform="matrix(0.0107, 0.0, 0.0, 0.0107, 215.6, 20.0)" width="234.3" xlink:href="#font_Visitor_TT1_BRK_l0"/>
        <use fill="#ffffff" fill-opacity="0.25490198" height="19.4" transform="matrix(0.0107, 0.0, 0.0, 0.0107, 222.2, 20.0)" width="234.3" xlink:href="#font_Visitor_TT1_BRK_l0"/>
      </g>
    </g>
    <g id="font_Visitor_TT1_BRK_t0">
      <path d="M0.0 -409.5 L0.0 -512.0 512.0 -512.0 512.0 -409.5 307.0 -409.5 307.0 0.0 205.0 0.0 205.0 -409.5 0.0 -409.5" fill-rule="evenodd" stroke="none"/>
    </g>
    <g id="font_Visitor_TT1_BRK_h0">
      <path d="M409.5 0.0 L409.5 -205.0 102.5 -205.0 102.5 0.0 0.0 0.0 0.0 -512.0 102.5 -512.0 102.5 -307.0 409.5 -307.0 409.5 -512.0 512.0 -512.0 512.0 0.0 409.5 0.0" fill-rule="evenodd" stroke="none"/>
    </g>
    <g id="font_Visitor_TT1_BRK_i0">
      <path d="M0.0 0.0 L0.0 -512.0 102.5 -512.0 102.5 0.0 0.0 0.0" fill-rule="evenodd" stroke="none"/>
    </g>
    <g id="font_Visitor_TT1_BRK_s0">
      <path d="M0.0 -205.0 L0.0 -512.0 512.0 -512.0 512.0 -409.5 102.5 -409.5 102.5 -307.0 512.0 -307.0 512.0 0.0 0.0 0.0 0.0 -102.5 409.5 -102.5 409.5 -205.0 0.0 -205.0" fill-rule="evenodd" stroke="none"/>
    </g>
    <g id="font_Visitor_TT1_BRK_g0">
      <path d="M0.0 0.0 L0.0 -512.0 512.0 -512.0 512.0 -409.5 102.5 -409.5 102.5 -102.5 409.5 -102.5 409.5 -205.0 205.0 -205.0 205.0 -307.0 512.0 -307.0 512.0 0.0 0.0 0.0" fill-rule="evenodd" stroke="none"/>
    </g>
    <g id="font_Visitor_TT1_BRK_a0">
      <path d="M102.5 -409.5 L102.5 -307.0 409.5 -307.0 409.5 -409.5 102.5 -409.5 M409.5 0.0 L409.5 -205.0 102.5 -205.0 102.5 0.0 0.0 0.0 0.0 -512.0 512.0 -512.0 512.0 0.0 409.5 0.0" fill-rule="evenodd" stroke="none"/>
    </g>
    <g id="font_Visitor_TT1_BRK_m0">
      <path d="M205.0 0.0 L205.0 -409.5 102.5 -409.5 102.5 0.0 0.0 0.0 0.0 -512.0 512.0 -512.0 512.0 0.0 409.5 0.0 409.5 -409.5 307.5 -409.5 307.5 0.0 205.0 0.0" fill-rule="evenodd" stroke="none"/>
    </g>
    <g id="font_Visitor_TT1_BRK_e0">
      <path d="M0.0 0.0 L0.0 -512.0 512.0 -512.0 512.0 -409.5 102.5 -409.5 102.5 -307.0 307.5 -307.0 307.5 -205.0 102.5 -205.0 102.5 -102.5 512.0 -102.5 512.0 0.0 0.0 0.0" fill-rule="evenodd" stroke="none"/>
    </g>
    <g id="font_Visitor_TT1_BRK_c0">
      <path d="M0.0 0.0 L0.0 -512.0 512.0 -512.0 512.0 -409.5 102.5 -409.5 102.5 -102.5 512.0 -102.5 512.0 0.0 0.0 0.0" fill-rule="evenodd" stroke="none"/>
    </g>
    <g id="font_Visitor_TT1_BRK_o0">
      <path d="M102.5 -409.5 L102.5 -102.5 409.5 -102.5 409.5 -409.5 102.5 -409.5 M0.0 0.0 L0.0 -512.0 512.0 -512.0 512.0 0.0 0.0 0.0" fill-rule="evenodd" stroke="none"/>
    </g>
    <g id="font_Visitor_TT1_BRK_n0">
      <path d="M409.5 0.0 L409.5 -409.5 102.5 -409.5 102.5 0.0 0.0 0.0 0.0 -512.0 512.0 -512.0 512.0 0.0 409.5 0.0" fill-rule="evenodd" stroke="none"/>
    </g>
    <g id="font_Visitor_TT1_BRK_r0">
      <path d="M102.5 -409.5 L102.5 -307.0 409.5 -307.0 409.5 -409.5 102.5 -409.5 M307.5 -102.5 L307.5 -205.0 102.5 -205.0 102.5 0.0 0.0 0.0 0.0 -512.0 512.0 -512.0 512.0 -205.0 409.5 -205.0 409.5 -102.5 512.0 -102.5 512.0 0.0 409.5 0.0 409.5 -102.5 307.5 -102.5" fill-rule="evenodd" stroke="none"/>
    </g>
    <g id="font_Visitor_TT1_BRK_d0">
      <path d="M0.0 0.0 L0.0 -512.0 409.5 -512.0 409.5 -409.5 512.0 -409.5 512.0 -102.5 409.5 -102.5 409.5 -409.5 102.5 -409.5 102.5 -102.5 409.5 -102.5 409.5 0.0 0.0 0.0" fill-rule="evenodd" stroke="none"/>
    </g>
    <g id="font_Visitor_TT1_BRK_b0">
      <path d="M409.5 -307.0 L409.5 -409.5 102.5 -409.5 102.5 -307.0 409.5 -307.0 409.5 -205.0 512.0 -205.0 512.0 0.0 0.0 0.0 0.0 -512.0 512.0 -512.0 512.0 -307.0 409.5 -307.0 M409.5 -205.0 L102.5 -205.0 102.5 -102.5 409.5 -102.5 409.5 -205.0" fill-rule="evenodd" stroke="none"/>
    </g>
    <g id="font_Visitor_TT1_BRK_l0">
      <path d="M0.0 0.0 L0.0 -512.0 102.5 -512.0 102.5 -102.5 512.0 -102.5 512.0 0.0 0.0 0.0" fill-rule="evenodd" stroke="none"/>
    </g>
    <g id="font_Visitor_TT1_BRK_y0">
      <path d="M307.0 -307.0 L307.0 -409.5 409.5 -409.5 409.5 -307.0 307.0 -307.0 M409.5 -409.5 L409.5 -512.0 512.0 -512.0 512.0 -409.5 409.5 -409.5 M102.5 -307.0 L102.5 -409.5 0.0 -409.5 0.0 -512.0 102.5 -512.0 102.5 -409.5 205.0 -409.5 205.0 -307.0 307.5 -307.0 307.5 0.0 205.0 0.0 205.0 -307.0 102.5 -307.0" fill-rule="evenodd" stroke="none"/>
    </g>
    <g id="font_Visitor_TT1_BRK_p0">
      <path d="M102.5 -409.5 L102.5 -307.0 409.5 -307.0 409.5 -409.5 102.5 -409.5 M0.0 0.0 L0.0 -512.0 512.0 -512.0 512.0 -205.0 102.5 -205.0 102.5 0.0 0.0 0.0" fill-rule="evenodd" stroke="none"/>
    </g>
    <g id="font_Visitor_TT1_BRK_f0">
      <path d="M0.0 0.0 L0.0 -512.0 512.0 -512.0 512.0 -409.5 102.5 -409.5 102.5 -307.0 307.5 -307.0 307.5 -205.0 102.5 -205.0 102.5 0.0 0.0 0.0" fill-rule="evenodd" stroke="none"/>
    </g>
    <g id="sprite1" transform="matrix(1.0, 0.0, 0.0, 1.0, 26.5, 4.5)">
      <use height="9.0" transform="matrix(1.0, 0.0, 0.0, 1.0, -26.5, -4.5)" width="60.2" xlink:href="#text1"/>
    </g>
    <g id="text1" transform="matrix(1.0, 0.0, 0.0, 1.0, -90.8, -1.8)">
      <g transform="matrix(1.0, 0.0, 0.0, 1.0, 90.6, 0.0)">
        <use fill="#760101" fill-opacity="0.9372549" height="9.0" transform="matrix(0.0137, 0.0, 0.0, 0.0137, 0.0, 10.0)" width="60.2" xlink:href="#font_Visitor_TT1_BRK_w0"/>
        <use fill="#760101" fill-opacity="0.9372549" height="9.0" transform="matrix(0.0137, 0.0, 0.0, 0.0137, 8.4, 10.0)" width="60.2" xlink:href="#font_Visitor_TT1_BRK_a0"/>
        <use fill="#760101" fill-opacity="0.9372549" height="9.0" transform="matrix(0.0137, 0.0, 0.0, 0.0137, 16.8, 10.0)" width="60.2" xlink:href="#font_Visitor_TT1_BRK_r0"/>
        <use fill="#760101" fill-opacity="0.9372549" height="9.0" transform="matrix(0.0137, 0.0, 0.0, 0.0137, 25.2, 10.0)" width="60.2" xlink:href="#font_Visitor_TT1_BRK_n0"/>
        <use fill="#760101" fill-opacity="0.9372549" height="9.0" transform="matrix(0.0137, 0.0, 0.0, 0.0137, 33.6, 10.0)" width="60.2" xlink:href="#font_Visitor_TT1_BRK_i0"/>
        <use fill="#760101" fill-opacity="0.9372549" height="9.0" transform="matrix(0.0137, 0.0, 0.0, 0.0137, 36.4, 10.0)" width="60.2" xlink:href="#font_Visitor_TT1_BRK_n0"/>
        <use fill="#760101" fill-opacity="0.9372549" height="9.0" transform="matrix(0.0137, 0.0, 0.0, 0.0137, 44.8, 10.0)" width="60.2" xlink:href="#font_Visitor_TT1_BRK_g0"/>
      </g>
    </g>
    <g id="font_Visitor_TT1_BRK_w0">
      <path d="M0.0 0.0 L0.0 -512.0 102.5 -512.0 102.5 -102.5 205.0 -102.5 205.0 -512.0 307.5 -512.0 307.5 -102.5 409.5 -102.5 409.5 -512.0 512.0 -512.0 512.0 0.0 0.0 0.0" fill-rule="evenodd" stroke="none"/>
    </g>
  </defs>
</svg>
