<?xml version="1.0" encoding="UTF-8" standalone="no"?>
<svg xmlns:xlink="http://www.w3.org/1999/xlink" height="830.25px" width="915.05px" xmlns="http://www.w3.org/2000/svg">
  <g transform="matrix(1.0, 0.0, 0.0, 1.0, 54.4, -0.65)">
    <use height="665.4" transform="matrix(0.4253, 0.0, 0.0, 0.4253, 183.27, 280.365)" width="28.05" xlink:href="#sprite0"/>
    <use height="665.4" transform="matrix(0.4232, 0.0409, -0.0409, 0.4232, 160.127, 280.5389)" width="28.05" xlink:href="#sprite0"/>
    <use height="665.4" transform="matrix(0.5388, -0.1121, 0.1121, 0.5388, 196.3489, 283.2041)" width="28.05" xlink:href="#sprite0"/>
    <use height="665.4" transform="matrix(0.7574, 0.0403, -0.0403, 0.7574, 141.0511, 275.0832)" width="28.05" xlink:href="#sprite0"/>
    <use height="665.4" transform="matrix(0.6111, -0.1382, 0.1382, 0.6111, 208.2429, 278.4343)" width="28.05" xlink:href="#sprite0"/>
    <use height="665.4" transform="matrix(-0.4151, 0.0459, 0.0524, 0.4734, 168.5187, 277.3834)" width="28.05" xlink:href="#sprite0"/>
    <use height="665.4" transform="matrix(-0.408, 0.0912, 0.092, 0.4666, 191.0936, 275.0825)" width="28.05" xlink:href="#sprite0"/>
    <use height="665.4" transform="matrix(-0.5397, -0.0666, -0.0431, 0.6118, 156.0991, 281.9813)" width="28.05" xlink:href="#sprite0"/>
    <use height="665.4" transform="matrix(-0.7344, 0.1267, 0.1326, 0.8387, 209.0401, 266.9781)" width="28.05" xlink:href="#sprite0"/>
    <use height="665.4" transform="matrix(-0.6135, -0.0878, -0.0596, 0.6951, 143.9136, 277.9957)" width="28.05" xlink:href="#sprite0"/>
    <use height="665.4" transform="matrix(0.4164, 0.0852, -0.0852, 0.4164, 249.5291, 273.8506)" width="28.05" xlink:href="#sprite0"/>
    <use height="665.4" transform="matrix(0.4061, 0.1248, -0.1248, 0.4061, 226.8444, 269.4068)" width="28.05" xlink:href="#sprite0"/>
    <use height="665.4" transform="matrix(0.55, -0.0018, 0.0018, 0.55, 261.7501, 279.2557)" width="28.05" xlink:href="#sprite0"/>
    <use height="665.4" transform="matrix(0.7335, 0.1912, -0.1912, 0.7335, 209.2277, 260.2755)" width="28.05" xlink:href="#sprite0"/>
    <use height="665.4" transform="matrix(0.626, -0.0129, 0.0129, 0.626, 274.3346, 277.0112)" width="28.05" xlink:href="#sprite0"/>
    <use height="665.4" transform="matrix(0.4253, 0.0, 0.0, 0.4253, 303.82, 280.365)" width="28.05" xlink:href="#sprite0"/>
    <use height="665.4" transform="matrix(0.4232, 0.0409, -0.0409, 0.4232, 280.727, 280.5389)" width="28.05" xlink:href="#sprite0"/>
    <use height="665.4" transform="matrix(0.5388, -0.1121, 0.1121, 0.5388, 316.8989, 283.2041)" width="28.05" xlink:href="#sprite0"/>
    <use height="665.4" transform="matrix(0.7574, 0.0403, -0.0403, 0.7574, 261.6011, 275.0832)" width="28.05" xlink:href="#sprite0"/>
    <use height="665.4" transform="matrix(0.6111, -0.1382, 0.1382, 0.6111, 328.7929, 278.4343)" width="28.05" xlink:href="#sprite0"/>
    <use height="665.4" transform="matrix(-0.4151, 0.0459, 0.0524, 0.4734, 289.1187, 277.3834)" width="28.05" xlink:href="#sprite0"/>
    <use height="665.4" transform="matrix(-0.408, 0.0912, 0.092, 0.4666, 311.6436, 275.0825)" width="28.05" xlink:href="#sprite0"/>
    <use height="665.4" transform="matrix(-0.5397, -0.0666, -0.0431, 0.6118, 276.6491, 281.9813)" width="28.05" xlink:href="#sprite0"/>
    <use height="665.4" transform="matrix(-0.7344, 0.1267, 0.1326, 0.8387, 329.6401, 266.9781)" width="28.05" xlink:href="#sprite0"/>
    <use height="665.4" transform="matrix(-0.6135, -0.0878, -0.0596, 0.6951, 264.5136, 277.9957)" width="28.05" xlink:href="#sprite0"/>
    <use height="665.4" transform="matrix(0.4164, 0.0852, -0.0852, 0.4164, 370.0791, 273.8506)" width="28.05" xlink:href="#sprite0"/>
    <use height="665.4" transform="matrix(0.4061, 0.1248, -0.1248, 0.4061, 347.4444, 269.4068)" width="28.05" xlink:href="#sprite0"/>
    <use height="665.4" transform="matrix(0.55, -0.0018, 0.0018, 0.55, 382.3001, 279.2557)" width="28.05" xlink:href="#sprite0"/>
    <use height="665.4" transform="matrix(0.7335, 0.1912, -0.1912, 0.7335, 329.7777, 260.2755)" width="28.05" xlink:href="#sprite0"/>
    <use height="665.4" transform="matrix(0.626, -0.0129, 0.0129, 0.626, 394.9346, 277.0112)" width="28.05" xlink:href="#sprite0"/>
    <use height="665.4" transform="matrix(0.4253, 0.0, 0.0, 0.4253, 46.82, 282.615)" width="28.05" xlink:href="#sprite0"/>
    <use height="665.4" transform="matrix(0.4232, 0.0409, -0.0409, 0.4232, 23.727, 282.7889)" width="28.05" xlink:href="#sprite0"/>
    <use height="665.4" transform="matrix(0.5388, -0.1121, 0.1121, 0.5388, 59.9489, 285.5041)" width="28.05" xlink:href="#sprite0"/>
    <use height="665.4" transform="matrix(0.7574, 0.0403, -0.0403, 0.7574, 4.6011, 277.3832)" width="28.05" xlink:href="#sprite0"/>
    <use height="665.4" transform="matrix(0.6111, -0.1382, 0.1382, 0.6111, 71.8429, 280.7343)" width="28.05" xlink:href="#sprite0"/>
    <use height="665.4" transform="matrix(-0.4151, 0.0459, 0.0524, 0.4734, 32.1187, 279.6834)" width="28.05" xlink:href="#sprite0"/>
    <use height="665.4" transform="matrix(-0.408, 0.0912, 0.092, 0.4666, 54.6936, 277.3825)" width="28.05" xlink:href="#sprite0"/>
    <use height="665.4" transform="matrix(-0.5397, -0.0666, -0.0431, 0.6118, 19.6991, 284.2313)" width="28.05" xlink:href="#sprite0"/>
    <use height="665.4" transform="matrix(-0.7344, 0.1267, 0.1326, 0.8387, 72.6401, 269.2781)" width="28.05" xlink:href="#sprite0"/>
    <use height="665.4" transform="matrix(-0.6135, -0.0878, -0.0596, 0.6951, 7.5136, 280.2457)" width="28.05" xlink:href="#sprite0"/>
    <use height="665.4" transform="matrix(0.4164, 0.0852, -0.0852, 0.4164, 113.0791, 276.1506)" width="28.05" xlink:href="#sprite0"/>
    <use height="665.4" transform="matrix(0.4061, 0.1248, -0.1248, 0.4061, 90.4444, 271.6568)" width="28.05" xlink:href="#sprite0"/>
    <use height="665.4" transform="matrix(0.55, -0.0018, 0.0018, 0.55, 125.3501, 281.5557)" width="28.05" xlink:href="#sprite0"/>
    <use height="665.4" transform="matrix(0.7335, 0.1912, -0.1912, 0.7335, 72.8277, 262.5255)" width="28.05" xlink:href="#sprite0"/>
    <use height="665.4" transform="matrix(0.626, -0.0129, 0.0129, 0.626, 137.9346, 279.2612)" width="28.05" xlink:href="#sprite0"/>
    <use height="665.4" transform="matrix(0.4253, 0.0, 0.0, 0.4253, 606.02, 276.815)" width="28.05" xlink:href="#sprite0"/>
    <use height="665.4" transform="matrix(0.4232, 0.0409, -0.0409, 0.4232, 582.877, 276.9889)" width="28.05" xlink:href="#sprite0"/>
    <use height="665.4" transform="matrix(0.5388, -0.1121, 0.1121, 0.5388, 619.0989, 279.6541)" width="28.05" xlink:href="#sprite0"/>
    <use height="665.4" transform="matrix(0.7574, 0.0403, -0.0403, 0.7574, 563.8011, 271.5332)" width="28.05" xlink:href="#sprite0"/>
    <use height="665.4" transform="matrix(0.6111, -0.1382, 0.1382, 0.6111, 630.9929, 274.8843)" width="28.05" xlink:href="#sprite0"/>
    <use height="665.4" transform="matrix(-0.4151, 0.0459, 0.0524, 0.4734, 591.2687, 273.8334)" width="28.05" xlink:href="#sprite0"/>
    <use height="665.4" transform="matrix(-0.408, 0.0912, 0.092, 0.4666, 613.8436, 271.5325)" width="28.05" xlink:href="#sprite0"/>
    <use height="665.4" transform="matrix(-0.5397, -0.0666, -0.0431, 0.6118, 578.8491, 278.4313)" width="28.05" xlink:href="#sprite0"/>
    <use height="665.4" transform="matrix(-0.7344, 0.1267, 0.1326, 0.8387, 631.7901, 263.4281)" width="28.05" xlink:href="#sprite0"/>
    <use height="665.4" transform="matrix(-0.6135, -0.0878, -0.0596, 0.6951, 566.6636, 274.4457)" width="28.05" xlink:href="#sprite0"/>
    <use height="665.4" transform="matrix(0.4164, 0.0852, -0.0852, 0.4164, 672.2791, 270.3006)" width="28.05" xlink:href="#sprite0"/>
    <use height="665.4" transform="matrix(0.4061, 0.1248, -0.1248, 0.4061, 649.5944, 265.8568)" width="28.05" xlink:href="#sprite0"/>
    <use height="665.4" transform="matrix(0.55, -0.0018, 0.0018, 0.55, 684.5001, 275.7057)" width="28.05" xlink:href="#sprite0"/>
    <use height="665.4" transform="matrix(0.7335, 0.1912, -0.1912, 0.7335, 631.9777, 256.7255)" width="28.05" xlink:href="#sprite0"/>
    <use height="665.4" transform="matrix(0.626, -0.0129, 0.0129, 0.626, 697.0846, 273.4612)" width="28.05" xlink:href="#sprite0"/>
    <use height="665.4" transform="matrix(0.4253, 0.0, 0.0, 0.4253, 726.57, 276.815)" width="28.05" xlink:href="#sprite0"/>
    <use height="665.4" transform="matrix(0.4232, 0.0409, -0.0409, 0.4232, 703.477, 276.9889)" width="28.05" xlink:href="#sprite0"/>
    <use height="665.4" transform="matrix(0.5388, -0.1121, 0.1121, 0.5388, 739.6489, 279.6541)" width="28.05" xlink:href="#sprite0"/>
    <use height="665.4" transform="matrix(0.7574, 0.0403, -0.0403, 0.7574, 684.3511, 271.5332)" width="28.05" xlink:href="#sprite0"/>
    <use height="665.4" transform="matrix(0.6111, -0.1382, 0.1382, 0.6111, 751.5429, 274.8843)" width="28.05" xlink:href="#sprite0"/>
    <use height="665.4" transform="matrix(-0.4151, 0.0459, 0.0524, 0.4734, 711.8687, 273.8334)" width="28.05" xlink:href="#sprite0"/>
    <use height="665.4" transform="matrix(-0.408, 0.0912, 0.092, 0.4666, 734.3936, 271.5325)" width="28.05" xlink:href="#sprite0"/>
    <use height="665.4" transform="matrix(-0.5397, -0.0666, -0.0431, 0.6118, 699.3991, 278.4313)" width="28.05" xlink:href="#sprite0"/>
    <use height="665.4" transform="matrix(-0.7344, 0.1267, 0.1326, 0.8387, 752.3901, 263.4281)" width="28.05" xlink:href="#sprite0"/>
    <use height="665.4" transform="matrix(-0.6135, -0.0878, -0.0596, 0.6951, 687.2636, 274.4457)" width="28.05" xlink:href="#sprite0"/>
    <use height="665.4" transform="matrix(0.4164, 0.0852, -0.0852, 0.4164, 792.8291, 270.3006)" width="28.05" xlink:href="#sprite0"/>
    <use height="665.4" transform="matrix(0.4061, 0.1248, -0.1248, 0.4061, 770.1944, 265.8568)" width="28.05" xlink:href="#sprite0"/>
    <use height="665.4" transform="matrix(0.55, -0.0018, 0.0018, 0.55, 805.0501, 275.7057)" width="28.05" xlink:href="#sprite0"/>
    <use height="665.4" transform="matrix(0.7335, 0.1912, -0.1912, 0.7335, 752.5277, 256.7255)" width="28.05" xlink:href="#sprite0"/>
    <use height="665.4" transform="matrix(0.626, -0.0129, 0.0129, 0.626, 817.6846, 273.4612)" width="28.05" xlink:href="#sprite0"/>
    <use height="665.4" transform="matrix(0.4253, 0.0, 0.0, 0.4253, 469.57, 279.065)" width="28.05" xlink:href="#sprite0"/>
    <use height="665.4" transform="matrix(0.4232, 0.0409, -0.0409, 0.4232, 446.477, 279.2389)" width="28.05" xlink:href="#sprite0"/>
    <use height="665.4" transform="matrix(0.5388, -0.1121, 0.1121, 0.5388, 482.6989, 281.9541)" width="28.05" xlink:href="#sprite0"/>
    <use height="665.4" transform="matrix(0.7574, 0.0403, -0.0403, 0.7574, 427.3511, 273.8332)" width="28.05" xlink:href="#sprite0"/>
    <use height="665.4" transform="matrix(0.6111, -0.1382, 0.1382, 0.6111, 494.5929, 277.1843)" width="28.05" xlink:href="#sprite0"/>
    <use height="665.4" transform="matrix(-0.4151, 0.0459, 0.0524, 0.4734, 454.8687, 276.1334)" width="28.05" xlink:href="#sprite0"/>
    <use height="665.4" transform="matrix(-0.408, 0.0912, 0.092, 0.4666, 477.4436, 273.8325)" width="28.05" xlink:href="#sprite0"/>
    <use height="665.4" transform="matrix(-0.5397, -0.0666, -0.0431, 0.6118, 442.4491, 280.6813)" width="28.05" xlink:href="#sprite0"/>
    <use height="665.4" transform="matrix(-0.7344, 0.1267, 0.1326, 0.8387, 495.3901, 265.7281)" width="28.05" xlink:href="#sprite0"/>
    <use height="665.4" transform="matrix(-0.6135, -0.0878, -0.0596, 0.6951, 430.2636, 276.6957)" width="28.05" xlink:href="#sprite0"/>
    <use height="665.4" transform="matrix(0.4164, 0.0852, -0.0852, 0.4164, 535.8291, 272.6006)" width="28.05" xlink:href="#sprite0"/>
    <use height="665.4" transform="matrix(0.4061, 0.1248, -0.1248, 0.4061, 513.1944, 268.1068)" width="28.05" xlink:href="#sprite0"/>
    <use height="665.4" transform="matrix(0.55, -0.0018, 0.0018, 0.55, 548.1001, 278.0057)" width="28.05" xlink:href="#sprite0"/>
    <use height="665.4" transform="matrix(0.7335, 0.1912, -0.1912, 0.7335, 495.5777, 258.9755)" width="28.05" xlink:href="#sprite0"/>
    <use height="665.4" transform="matrix(0.626, -0.0129, 0.0129, 0.626, 560.6846, 275.7112)" width="28.05" xlink:href="#sprite0"/>
    <use height="665.4" transform="matrix(0.4253, 0.0, 0.0, 0.4253, 249.82, 24.265)" width="28.05" xlink:href="#sprite0"/>
    <use height="665.4" transform="matrix(0.4232, 0.0409, -0.0409, 0.4232, 226.677, 24.4389)" width="28.05" xlink:href="#sprite0"/>
    <use height="665.4" transform="matrix(0.5388, -0.1121, 0.1121, 0.5388, 262.8989, 27.1041)" width="28.05" xlink:href="#sprite0"/>
    <use height="665.4" transform="matrix(0.7574, 0.0403, -0.0403, 0.7574, 207.6011, 18.9832)" width="28.05" xlink:href="#sprite0"/>
    <use height="665.4" transform="matrix(0.6111, -0.1382, 0.1382, 0.6111, 274.7929, 22.3343)" width="28.05" xlink:href="#sprite0"/>
    <use height="665.4" transform="matrix(-0.4151, 0.0459, 0.0524, 0.4734, 235.0687, 21.2834)" width="28.05" xlink:href="#sprite0"/>
    <use height="665.4" transform="matrix(-0.408, 0.0912, 0.092, 0.4666, 257.6436, 18.9825)" width="28.05" xlink:href="#sprite0"/>
    <use height="665.4" transform="matrix(-0.5397, -0.0666, -0.0431, 0.6118, 222.6491, 25.8813)" width="28.05" xlink:href="#sprite0"/>
    <use height="665.4" transform="matrix(-0.7344, 0.1267, 0.1326, 0.8387, 275.5901, 10.8781)" width="28.05" xlink:href="#sprite0"/>
    <use height="665.4" transform="matrix(-0.6135, -0.0878, -0.0596, 0.6951, 210.4636, 21.8957)" width="28.05" xlink:href="#sprite0"/>
    <use height="665.4" transform="matrix(0.4164, 0.0852, -0.0852, 0.4164, 316.0791, 17.7506)" width="28.05" xlink:href="#sprite0"/>
    <use height="665.4" transform="matrix(0.4061, 0.1248, -0.1248, 0.4061, 293.3944, 13.3068)" width="28.05" xlink:href="#sprite0"/>
    <use height="665.4" transform="matrix(0.55, -0.0018, 0.0018, 0.55, 328.3001, 23.1557)" width="28.05" xlink:href="#sprite0"/>
    <use height="665.4" transform="matrix(0.7335, 0.1912, -0.1912, 0.7335, 275.7777, 4.1755)" width="28.05" xlink:href="#sprite0"/>
    <use height="665.4" transform="matrix(0.626, -0.0129, 0.0129, 0.626, 340.8846, 20.9112)" width="28.05" xlink:href="#sprite0"/>
    <use height="665.4" transform="matrix(0.4253, 0.0, 0.0, 0.4253, 370.37, 24.265)" width="28.05" xlink:href="#sprite0"/>
    <use height="665.4" transform="matrix(0.4232, 0.0409, -0.0409, 0.4232, 347.277, 24.4389)" width="28.05" xlink:href="#sprite0"/>
    <use height="665.4" transform="matrix(0.5388, -0.1121, 0.1121, 0.5388, 383.4489, 27.1041)" width="28.05" xlink:href="#sprite0"/>
    <use height="665.4" transform="matrix(0.7574, 0.0403, -0.0403, 0.7574, 328.1511, 18.9832)" width="28.05" xlink:href="#sprite0"/>
    <use height="665.4" transform="matrix(0.6111, -0.1382, 0.1382, 0.6111, 395.3429, 22.3343)" width="28.05" xlink:href="#sprite0"/>
    <use height="665.4" transform="matrix(-0.4151, 0.0459, 0.0524, 0.4734, 355.6687, 21.2834)" width="28.05" xlink:href="#sprite0"/>
    <use height="665.4" transform="matrix(-0.408, 0.0912, 0.092, 0.4666, 378.1936, 18.9825)" width="28.05" xlink:href="#sprite0"/>
    <use height="665.4" transform="matrix(-0.5397, -0.0666, -0.0431, 0.6118, 343.1991, 25.8813)" width="28.05" xlink:href="#sprite0"/>
    <use height="665.4" transform="matrix(-0.7344, 0.1267, 0.1326, 0.8387, 396.1901, 10.8781)" width="28.05" xlink:href="#sprite0"/>
    <use height="665.4" transform="matrix(-0.6135, -0.0878, -0.0596, 0.6951, 331.0636, 21.8957)" width="28.05" xlink:href="#sprite0"/>
    <use height="665.4" transform="matrix(0.4164, 0.0852, -0.0852, 0.4164, 436.6291, 17.7506)" width="28.05" xlink:href="#sprite0"/>
    <use height="665.4" transform="matrix(0.4061, 0.1248, -0.1248, 0.4061, 413.9944, 13.3068)" width="28.05" xlink:href="#sprite0"/>
    <use height="665.4" transform="matrix(0.55, -0.0018, 0.0018, 0.55, 448.8501, 23.1557)" width="28.05" xlink:href="#sprite0"/>
    <use height="665.4" transform="matrix(0.7335, 0.1912, -0.1912, 0.7335, 396.3277, 4.1755)" width="28.05" xlink:href="#sprite0"/>
    <use height="665.4" transform="matrix(0.626, -0.0129, 0.0129, 0.626, 461.4846, 20.9112)" width="28.05" xlink:href="#sprite0"/>
    <use height="665.4" transform="matrix(0.4253, 0.0, 0.0, 0.4253, 113.37, 26.515)" width="28.05" xlink:href="#sprite0"/>
    <use height="665.4" transform="matrix(0.5388, -0.1121, 0.1121, 0.5388, 126.4989, 29.4041)" width="28.05" xlink:href="#sprite0"/>
    <use height="665.4" transform="matrix(0.6111, -0.1382, 0.1382, 0.6111, 138.3929, 24.6343)" width="28.05" xlink:href="#sprite0"/>
    <use height="665.4" transform="matrix(-0.408, 0.0912, 0.092, 0.4666, 121.2436, 21.2825)" width="28.05" xlink:href="#sprite0"/>
    <use height="665.4" transform="matrix(-0.7344, 0.1267, 0.1326, 0.8387, 139.1901, 13.1781)" width="28.05" xlink:href="#sprite0"/>
    <use height="665.4" transform="matrix(0.4164, 0.0852, -0.0852, 0.4164, 179.6291, 20.0506)" width="28.05" xlink:href="#sprite0"/>
    <use height="665.4" transform="matrix(0.4061, 0.1248, -0.1248, 0.4061, 156.9944, 15.5568)" width="28.05" xlink:href="#sprite0"/>
    <use height="665.4" transform="matrix(0.55, -0.0018, 0.0018, 0.55, 191.9001, 25.4557)" width="28.05" xlink:href="#sprite0"/>
    <use height="665.4" transform="matrix(0.7335, 0.1912, -0.1912, 0.7335, 139.3777, 6.4255)" width="28.05" xlink:href="#sprite0"/>
    <use height="665.4" transform="matrix(0.626, -0.0129, 0.0129, 0.626, 204.4846, 23.1612)" width="28.05" xlink:href="#sprite0"/>
    <use height="665.4" transform="matrix(0.4253, 0.0, 0.0, 0.4253, 672.57, 20.715)" width="28.05" xlink:href="#sprite0"/>
    <use height="665.4" transform="matrix(0.4232, 0.0409, -0.0409, 0.4232, 649.427, 20.8889)" width="28.05" xlink:href="#sprite0"/>
    <use height="665.4" transform="matrix(0.5388, -0.1121, 0.1121, 0.5388, 685.6489, 23.5541)" width="28.05" xlink:href="#sprite0"/>
    <use height="665.4" transform="matrix(0.7574, 0.0403, -0.0403, 0.7574, 630.3511, 15.4332)" width="28.05" xlink:href="#sprite0"/>
    <use height="665.4" transform="matrix(0.6111, -0.1382, 0.1382, 0.6111, 697.5429, 18.7843)" width="28.05" xlink:href="#sprite0"/>
    <use height="665.4" transform="matrix(-0.4151, 0.0459, 0.0524, 0.4734, 657.8187, 17.7334)" width="28.05" xlink:href="#sprite0"/>
    <use height="665.4" transform="matrix(-0.408, 0.0912, 0.092, 0.4666, 680.3936, 15.4325)" width="28.05" xlink:href="#sprite0"/>
    <use height="665.4" transform="matrix(-0.5397, -0.0666, -0.0431, 0.6118, 645.3991, 22.3313)" width="28.05" xlink:href="#sprite0"/>
    <use height="665.4" transform="matrix(-0.7344, 0.1267, 0.1326, 0.8387, 698.3401, 7.3281)" width="28.05" xlink:href="#sprite0"/>
    <use height="665.4" transform="matrix(-0.6135, -0.0878, -0.0596, 0.6951, 633.2136, 18.3457)" width="28.05" xlink:href="#sprite0"/>
    <use height="665.4" transform="matrix(0.4061, 0.1248, -0.1248, 0.4061, 716.1444, 9.7568)" width="28.05" xlink:href="#sprite0"/>
    <use height="665.4" transform="matrix(0.7335, 0.1912, -0.1912, 0.7335, 698.5277, 0.6255)" width="28.05" xlink:href="#sprite0"/>
    <use height="665.4" transform="matrix(0.4253, 0.0, 0.0, 0.4253, 536.12, 22.965)" width="28.05" xlink:href="#sprite0"/>
    <use height="665.4" transform="matrix(0.4232, 0.0409, -0.0409, 0.4232, 513.027, 23.1389)" width="28.05" xlink:href="#sprite0"/>
    <use height="665.4" transform="matrix(0.5388, -0.1121, 0.1121, 0.5388, 549.2489, 25.8541)" width="28.05" xlink:href="#sprite0"/>
    <use height="665.4" transform="matrix(0.7574, 0.0403, -0.0403, 0.7574, 493.9011, 17.7332)" width="28.05" xlink:href="#sprite0"/>
    <use height="665.4" transform="matrix(0.6111, -0.1382, 0.1382, 0.6111, 561.1429, 21.0843)" width="28.05" xlink:href="#sprite0"/>
    <use height="665.4" transform="matrix(-0.4151, 0.0459, 0.0524, 0.4734, 521.4187, 20.0334)" width="28.05" xlink:href="#sprite0"/>
    <use height="665.4" transform="matrix(-0.408, 0.0912, 0.092, 0.4666, 543.9936, 17.7325)" width="28.05" xlink:href="#sprite0"/>
    <use height="665.4" transform="matrix(-0.5397, -0.0666, -0.0431, 0.6118, 508.9991, 24.5813)" width="28.05" xlink:href="#sprite0"/>
    <use height="665.4" transform="matrix(-0.7344, 0.1267, 0.1326, 0.8387, 561.9401, 9.6281)" width="28.05" xlink:href="#sprite0"/>
    <use height="665.4" transform="matrix(-0.6135, -0.0878, -0.0596, 0.6951, 496.8136, 20.5957)" width="28.05" xlink:href="#sprite0"/>
    <use height="665.4" transform="matrix(0.4164, 0.0852, -0.0852, 0.4164, 602.3791, 16.5006)" width="28.05" xlink:href="#sprite0"/>
    <use height="665.4" transform="matrix(0.4061, 0.1248, -0.1248, 0.4061, 579.7444, 12.0068)" width="28.05" xlink:href="#sprite0"/>
    <use height="665.4" transform="matrix(0.55, -0.0018, 0.0018, 0.55, 614.6501, 21.9057)" width="28.05" xlink:href="#sprite0"/>
    <use height="665.4" transform="matrix(0.7335, 0.1912, -0.1912, 0.7335, 562.1277, 2.8755)" width="28.05" xlink:href="#sprite0"/>
    <use height="665.4" transform="matrix(0.626, -0.0129, 0.0129, 0.626, 627.2346, 19.6112)" width="28.05" xlink:href="#sprite0"/>
  </g>
  <defs/>
</svg>
