<?xml version="1.0" encoding="UTF-8" standalone="no"?>
<svg xmlns:xlink="http://www.w3.org/1999/xlink" height="62.25px" width="549.95px" xmlns="http://www.w3.org/2000/svg">
  <g transform="matrix(1.0, 0.0, 0.0, 1.0, 159.25, 29.35)">
    <use height="58.75" transform="matrix(1.0, 0.0, 0.0, 1.0, -159.25, -29.35)" width="25.55" xlink:href="#sprite0"/>
    <use height="10.15" transform="matrix(1.0, 0.0, 0.0, 1.0, -125.1, -0.65)" width="76.5" xlink:href="#text0"/>
    <use height="7.6" transform="matrix(1.0, 0.0, 0.0, 1.0, -125.15, -12.65)" width="112.1" xlink:href="#text1"/>
  </g>
  <defs>
    <g id="sprite0" transform="matrix(1.0, 0.0, 0.0, 1.0, 12.75, 29.35)">
      <use height="58.75" transform="matrix(1.0, 0.0, 0.0, 1.0, -12.75, -29.35)" width="25.55" xlink:href="#shape0"/>
    </g>
    <g id="shape0" transform="matrix(1.0, 0.0, 0.0, 1.0, 12.75, 29.35)">
      <path d="M5.9 -29.35 L8.3 -17.2 10.2 -16.85 10.45 -16.5 10.6 -16.5 12.8 2.55 12.6 21.25 Q12.2 23.7 10.25 25.3 L9.95 25.55 9.3 25.95 Q6.75 27.6 3.75 28.35 L2.8 28.55 1.75 28.75 -2.9 29.4 -5.8 28.0 -12.75 -13.3 -11.7 -14.2 0.0 -15.65 1.85 -17.4 1.9 -28.55 5.9 -29.35" fill="#ffffff" fill-rule="evenodd" stroke="none"/>
    </g>
    <g id="text0" transform="matrix(1.0, 0.0, 0.0, 1.0, -109.9, -3.1)">
      <g transform="matrix(1.0, 0.0, 0.0, 1.0, 109.4, 0.0)">
        <use fill="#ffffff" height="10.15" transform="matrix(0.0107, 0.0, 0.0, 0.0107, 0.0, 12.0)" width="76.5" xlink:href="#font_Arial_Black_G0"/>
        <use fill="#ffffff" height="10.15" transform="matrix(0.0107, 0.0, 0.0, 0.0107, 9.15, 12.0)" width="76.5" xlink:href="#font_Arial_Black_o0"/>
        <use fill="#ffffff" height="10.15" transform="matrix(0.0107, 0.0, 0.0, 0.0107, 16.5, 12.0)" width="76.5" xlink:href="#font_Arial_Black_o0"/>
        <use fill="#ffffff" height="10.15" transform="matrix(0.0107, 0.0, 0.0, 0.0107, 23.85, 12.0)" width="76.5" xlink:href="#font_Arial_Black_d0"/>
        <use fill="#ffffff" height="10.15" transform="matrix(0.0107, 0.0, 0.0, 0.0107, 34.85, 12.0)" width="76.5" xlink:href="#font_Arial_Black_J0"/>
        <use fill="#ffffff" height="10.15" transform="matrix(0.0107, 0.0, 0.0, 0.0107, 42.2, 12.0)" width="76.5" xlink:href="#font_Arial_Black_o0"/>
        <use fill="#ffffff" height="10.15" transform="matrix(0.0107, 0.0, 0.0, 0.0107, 49.55, 12.0)" width="76.5" xlink:href="#font_Arial_Black_b0"/>
        <use fill="#ffffff" height="10.15" transform="matrix(0.0107, 0.0, 0.0, 0.0107, 60.55, 12.0)" width="76.5" xlink:href="#font_Arial_Black_.0"/>
        <use fill="#ffffff" height="10.15" transform="matrix(0.0107, 0.0, 0.0, 0.0107, 64.2, 12.0)" width="76.5" xlink:href="#font_Arial_Black_.0"/>
        <use fill="#ffffff" height="10.15" transform="matrix(0.0107, 0.0, 0.0, 0.0107, 67.85, 12.0)" width="76.5" xlink:href="#font_Arial_Black_.0"/>
      </g>
    </g>
    <g id="font_Arial_Black_G0">
      <path d="M443.5 -265.5 L595.0 -265.5 595.0 -196.5 Q550.5 -170.0 516.0 -159.0 481.5 -148.0 443.5 -148.0 363.5 -148.0 319.0 -199.0 274.0 -250.0 274.0 -369.0 274.0 -481.0 318.5 -532.5 362.5 -584.5 437.0 -584.5 487.0 -584.5 519.5 -562.5 551.5 -540.5 565.0 -499.0 L783.5 -538.0 Q763.5 -609.0 724.0 -655.0 684.0 -701.5 624.0 -723.5 563.5 -745.5 442.0 -745.5 316.0 -745.5 241.5 -710.0 146.0 -664.0 96.5 -575.0 47.0 -486.5 47.0 -366.5 47.0 -252.5 92.5 -164.5 137.5 -76.5 220.0 -32.0 302.0 12.5 432.5 12.5 538.5 12.5 616.0 -12.0 693.0 -37.0 793.5 -105.5 L793.5 -418.0 443.5 -418.0 443.5 -265.5" fill-rule="evenodd" stroke="none"/>
    </g>
    <g id="font_Arial_Black_o0">
      <path d="M240.5 -264.5 L240.5 -264.5 Q240.5 -334.5 269.5 -368.5 298.5 -403.0 343.0 -403.0 385.0 -403.0 413.5 -369.0 442.0 -335.5 442.0 -266.5 442.0 -192.5 414.0 -159.0 385.5 -125.5 341.5 -125.5 298.0 -125.5 269.5 -159.5 240.5 -193.5 240.5 -264.5 M36.5 -264.0 L36.5 -264.0 Q36.5 -133.5 133.5 -53.0 212.5 12.0 340.5 12.0 484.0 12.0 565.5 -66.0 646.5 -144.5 646.5 -267.0 646.5 -376.0 581.0 -450.5 499.5 -543.0 340.0 -543.0 200.5 -543.0 118.5 -464.0 36.5 -385.5 36.5 -264.0" fill-rule="evenodd" stroke="none"/>
    </g>
    <g id="font_Arial_Black_d0">
      <path d="M416.5 -267.0 L416.5 -267.0 Q416.5 -198.0 390.5 -167.5 364.5 -137.0 325.5 -137.0 289.0 -137.0 264.5 -167.0 239.5 -197.5 239.5 -262.5 239.5 -332.0 263.5 -361.5 287.5 -391.0 323.0 -391.0 363.5 -391.0 390.0 -360.0 416.5 -329.5 416.5 -267.0 M620.5 -733.0 L415.0 -733.0 415.0 -479.0 Q385.0 -511.0 346.5 -527.0 307.5 -543.0 260.0 -543.0 162.5 -543.0 99.5 -473.0 36.0 -403.0 36.0 -271.0 36.0 -153.0 93.5 -70.5 150.5 12.0 259.0 12.0 313.0 12.0 357.0 -11.0 390.0 -28.5 430.0 -78.5 L430.0 0.0 620.5 0.0 620.5 -733.0" fill-rule="evenodd" stroke="none"/>
    </g>
    <g id="font_Arial_Black_J0">
      <path d="M380.0 -733.0 L380.0 -281.5 Q380.0 -214.5 362.5 -186.0 344.5 -158.0 306.5 -158.0 282.5 -158.0 269.5 -167.5 250.5 -182.0 242.5 -205.5 234.5 -229.0 234.0 -277.5 L17.5 -248.0 Q23.5 -163.0 57.0 -105.0 90.0 -47.5 151.0 -17.5 212.0 12.5 323.0 12.5 428.0 12.5 495.5 -33.0 562.5 -78.5 585.0 -144.0 607.0 -209.5 607.0 -335.0 L607.0 -733.0 380.0 -733.0" fill-rule="evenodd" stroke="none"/>
    </g>
    <g id="font_Arial_Black_b0">
      <path d="M266.5 -267.0 L266.5 -267.0 Q266.5 -329.5 293.0 -360.0 319.0 -391.0 360.5 -391.0 395.0 -391.0 419.5 -361.5 443.5 -332.0 443.5 -269.0 443.5 -197.5 419.0 -167.0 394.0 -137.0 357.5 -137.0 318.0 -137.0 292.5 -167.5 266.5 -198.5 266.5 -267.0 M62.5 -733.0 L62.5 0.0 253.0 0.0 253.0 -78.5 Q292.5 -29.0 326.0 -11.0 370.5 12.0 424.0 12.0 486.5 12.0 538.0 -20.5 589.0 -53.5 618.0 -119.5 647.0 -186.0 647.0 -273.0 647.0 -403.5 583.5 -473.0 520.0 -543.0 423.0 -543.0 376.0 -543.0 337.5 -527.0 298.5 -511.0 268.0 -479.0 L268.0 -733.0 62.5 -733.0" fill-rule="evenodd" stroke="none"/>
    </g>
    <g id="font_Arial_Black_.0">
      <path d="M62.0 -204.0 L62.0 0.0 279.5 0.0 279.5 -204.0 62.0 -204.0" fill-rule="evenodd" stroke="none"/>
    </g>
    <g id="text1" transform="matrix(1.0, 0.0, 0.0, 1.0, -109.4, -1.1)">
      <g transform="matrix(1.0, 0.0, 0.0, 1.0, 109.4, 0.0)">
        <use fill="#ffffff" height="7.6" transform="matrix(0.0107, 0.0, 0.0, 0.0107, 0.0, 8.0)" width="112.1" xlink:href="#font_Visitor_TT1_BRK_v0"/>
        <use fill="#ffffff" height="7.6" transform="matrix(0.0107, 0.0, 0.0, 0.0107, 6.65, 8.0)" width="112.1" xlink:href="#font_Visitor_TT1_BRK_i0"/>
        <use fill="#ffffff" height="7.6" transform="matrix(0.0107, 0.0, 0.0, 0.0107, 8.9, 8.0)" width="112.1" xlink:href="#font_Visitor_TT1_BRK_n0"/>
        <use fill="#ffffff" height="7.6" transform="matrix(0.0107, 0.0, 0.0, 0.0107, 15.55, 8.0)" width="112.1" xlink:href="#font_Visitor_TT1_BRK_n0"/>
        <use fill="#ffffff" height="7.6" transform="matrix(0.0107, 0.0, 0.0, 0.0107, 22.2, 8.0)" width="112.1" xlink:href="#font_Visitor_TT1_BRK_i0"/>
        <use fill="#ffffff" height="7.6" transform="matrix(0.0107, 0.0, 0.0, 0.0107, 24.45, 8.0)" width="112.1" xlink:href="#font_Visitor_TT1_BRK_e0"/>
        <use fill="#ffffff" height="7.6" transform="matrix(0.0107, 0.0, 0.0, 0.0107, 31.1, 8.0)" width="112.1" xlink:href="#font_Visitor_TT1_BRK__0"/>
        <use fill="#ffffff" height="7.6" transform="matrix(0.0107, 0.0, 0.0, 0.0107, 33.35, 8.0)" width="112.1" xlink:href="#font_Visitor_TT1_BRK_s0"/>
        <use fill="#ffffff" height="7.6" transform="matrix(0.0107, 0.0, 0.0, 0.0107, 46.65, 8.0)" width="112.1" xlink:href="#font_Visitor_TT1_BRK_c0"/>
        <use fill="#ffffff" height="7.6" transform="matrix(0.0107, 0.0, 0.0, 0.0107, 53.3, 8.0)" width="112.1" xlink:href="#font_Visitor_TT1_BRK_e0"/>
        <use fill="#ffffff" height="7.6" transform="matrix(0.0107, 0.0, 0.0, 0.0107, 59.95, 8.0)" width="112.1" xlink:href="#font_Visitor_TT1_BRK_l0"/>
        <use fill="#ffffff" height="7.6" transform="matrix(0.0107, 0.0, 0.0, 0.0107, 66.6, 8.0)" width="112.1" xlink:href="#font_Visitor_TT1_BRK_l0"/>
        <use fill="#ffffff" height="7.6" transform="matrix(0.0107, 0.0, 0.0, 0.0107, 73.25, 8.0)" width="112.1" xlink:href="#font_Visitor_TT1_BRK_p0"/>
        <use fill="#ffffff" height="7.6" transform="matrix(0.0107, 0.0, 0.0, 0.0107, 79.9, 8.0)" width="112.1" xlink:href="#font_Visitor_TT1_BRK_h0"/>
        <use fill="#ffffff" height="7.6" transform="matrix(0.0107, 0.0, 0.0, 0.0107, 86.55, 8.0)" width="112.1" xlink:href="#font_Visitor_TT1_BRK_o0"/>
        <use fill="#ffffff" height="7.6" transform="matrix(0.0107, 0.0, 0.0, 0.0107, 93.2, 8.0)" width="112.1" xlink:href="#font_Visitor_TT1_BRK_n0"/>
        <use fill="#ffffff" height="7.6" transform="matrix(0.0107, 0.0, 0.0, 0.0107, 99.85, 8.0)" width="112.1" xlink:href="#font_Visitor_TT1_BRK_e0"/>
      </g>
    </g>
    <g id="font_Visitor_TT1_BRK_v0">
      <path d="M301.0 -100.5 L301.0 -221.0 422.0 -221.0 422.0 -100.5 301.0 -100.5 M401.5 -201.0 L401.5 -522.0 522.5 -522.0 522.5 -201.0 401.5 -201.0 M100.5 -100.5 L100.5 -201.0 0.0 -201.0 0.0 -522.0 121.0 -522.0 121.0 -221.0 221.5 -221.0 221.5 -120.5 322.0 -120.5 322.0 0.0 201.0 0.0 201.0 -100.5 100.5 -100.5" fill-rule="evenodd" stroke="none"/>
    </g>
    <g id="font_Visitor_TT1_BRK_i0">
      <path d="M0.0 0.0 L0.0 -522.0 121.0 -522.0 121.0 0.0 0.0 0.0" fill-rule="evenodd" stroke="none"/>
    </g>
    <g id="font_Visitor_TT1_BRK_n0">
      <path d="M401.5 0.0 L401.5 -401.5 121.0 -401.5 121.0 0.0 0.0 0.0 0.0 -522.0 522.5 -522.0 522.5 0.0 401.5 0.0" fill-rule="evenodd" stroke="none"/>
    </g>
    <g id="font_Visitor_TT1_BRK_e0">
      <path d="M0.0 0.0 L0.0 -522.0 522.5 -522.0 522.5 -401.5 121.0 -401.5 121.0 -321.0 322.0 -321.0 322.0 -201.0 121.0 -201.0 121.0 -120.5 522.5 -120.5 522.5 0.0 0.0 0.0" fill-rule="evenodd" stroke="none"/>
    </g>
    <g id="font_Visitor_TT1_BRK__0">
      <path d="M0.0 -301.0 L0.0 -522.0 121.0 -522.0 121.0 -301.0 0.0 -301.0" fill-rule="evenodd" stroke="none"/>
    </g>
    <g id="font_Visitor_TT1_BRK_s0">
      <path d="M0.0 -201.0 L0.0 -522.0 522.5 -522.0 522.5 -401.5 121.0 -401.5 121.0 -321.0 522.5 -321.0 522.5 0.0 0.0 0.0 0.0 -120.5 401.5 -120.5 401.5 -201.0 0.0 -201.0" fill-rule="evenodd" stroke="none"/>
    </g>
    <g id="font_Visitor_TT1_BRK_c0">
      <path d="M0.0 0.0 L0.0 -522.0 522.5 -522.0 522.5 -401.5 121.0 -401.5 121.0 -120.5 522.5 -120.5 522.5 0.0 0.0 0.0" fill-rule="evenodd" stroke="none"/>
    </g>
    <g id="font_Visitor_TT1_BRK_l0">
      <path d="M0.0 0.0 L0.0 -522.0 121.0 -522.0 121.0 -120.5 522.5 -120.5 522.5 0.0 0.0 0.0" fill-rule="evenodd" stroke="none"/>
    </g>
    <g id="font_Visitor_TT1_BRK_p0">
      <path d="M121.0 -401.5 L121.0 -321.0 401.5 -321.0 401.5 -401.5 121.0 -401.5 M0.0 0.0 L0.0 -522.0 522.5 -522.0 522.5 -201.0 121.0 -201.0 121.0 0.0 0.0 0.0" fill-rule="evenodd" stroke="none"/>
    </g>
    <g id="font_Visitor_TT1_BRK_h0">
      <path d="M401.5 0.0 L401.5 -201.0 121.0 -201.0 121.0 0.0 0.0 0.0 0.0 -522.0 121.0 -522.0 121.0 -321.0 401.5 -321.0 401.5 -522.0 522.5 -522.0 522.5 0.0 401.5 0.0" fill-rule="evenodd" stroke="none"/>
    </g>
    <g id="font_Visitor_TT1_BRK_o0">
      <path d="M121.0 -401.5 L121.0 -120.5 401.5 -120.5 401.5 -401.5 121.0 -401.5 M0.0 0.0 L0.0 -522.0 522.5 -522.0 522.5 0.0 0.0 0.0" fill-rule="evenodd" stroke="none"/>
    </g>
  </defs>
</svg>
