<?xml version="1.0" encoding="UTF-8" standalone="no"?>
<svg xmlns:xlink="http://www.w3.org/1999/xlink" height="124.0px" width="204.75px" xmlns="http://www.w3.org/2000/svg">
  <g transform="matrix(1.0, 0.0, 0.0, 1.0, 364.5, 360.75)">
    <path d="M-231.0 -356.75 L-225.25 -346.75 -279.0 -304.75 -285.5 -314.5 -231.0 -356.75" fill="#626271" fill-rule="evenodd" stroke="none"/>
    <path d="M-364.5 -272.25 L-342.5 -348.0 -320.75 -350.0 -333.0 -299.0 -312.5 -314.25 -309.0 -332.5 -305.25 -351.0 -280.25 -353.0 -282.25 -337.5 -274.25 -343.75 -260.25 -354.5 -231.0 -356.75 -285.5 -314.5 -287.5 -298.25 -279.0 -304.75 -225.25 -346.75 -210.75 -358.0 -176.5 -360.75 -295.0 -267.5 -321.25 -269.25 -317.5 -289.25 -318.0 -289.5 -341.75 -270.75 -364.5 -272.25" fill="#cdcde1" fill-rule="evenodd" stroke="none"/>
    <path d="M-176.5 -360.75 L-175.75 -360.75 -159.75 -327.25 -273.75 -236.75 -295.0 -267.5 -176.5 -360.75" fill="#4b4b56" fill-rule="evenodd" stroke="none"/>
    <path d="M-273.75 -236.75 L-300.0 -239.75 -308.5 -251.5 -321.25 -269.25 -295.0 -267.5 -273.75 -236.75" fill="#1a1a1e" fill-rule="evenodd" stroke="none"/>
    <path d="M-280.25 -353.0 L-274.25 -343.75 -282.25 -337.5 -280.25 -353.0" fill="#7e7e91" fill-rule="evenodd" stroke="none"/>
    <path d="M-285.5 -314.5 L-279.0 -304.75 -287.5 -298.25 -285.5 -314.5" fill="#818195" fill-rule="evenodd" stroke="none"/>
    <path d="M-320.75 -350.0 L-309.0 -332.5 -312.5 -314.25 -333.0 -299.0 -320.75 -350.0" fill="#9c9cb3" fill-rule="evenodd" stroke="none"/>
    <path d="M-320.5 -242.25 L-343.25 -245.0 -364.5 -272.25 -341.75 -270.75 -320.5 -242.25" fill="#28282e" fill-rule="evenodd" stroke="none"/>
    <path d="M-308.5 -251.5 L-320.5 -242.25 -341.75 -270.75 -318.0 -289.5 -317.5 -289.25 -321.25 -269.25 -308.5 -251.5" fill="#808092" fill-rule="evenodd" stroke="none"/>
  </g>
</svg>
