<?xml version="1.0" encoding="UTF-8" standalone="no"?>
<svg xmlns:xlink="http://www.w3.org/1999/xlink" height="144.0px" width="144.75px" xmlns="http://www.w3.org/2000/svg">
  <g transform="matrix(1.0, 0.0, 0.0, 1.0, 351.25, 384.75)">
    <path d="M-350.5 -267.0 L-299.25 -327.5 -286.75 -341.25 -317.0 -306.0 -320.5 -301.0 -283.5 -344.25 -275.5 -352.75 -276.5 -350.75 -273.0 -354.75 -263.75 -364.5 -279.65 -346.2 -259.75 -368.25 -246.75 -381.75 -345.25 -270.25 -347.25 -269.0 Q-340.5 -276.0 -341.0 -277.5 L-349.25 -267.5 -350.5 -267.0 M-306.5 -316.0 Q-313.75 -309.25 -313.25 -307.5 L-306.5 -316.0" fill="#7d7d90" fill-rule="evenodd" stroke="none"/>
    <path d="M-246.75 -381.75 L-243.5 -384.75 -206.5 -352.0 -304.75 -247.0 Q-310.25 -240.75 -311.5 -240.75 L-345.25 -270.25 -246.75 -381.75" fill="#4d4d59" fill-rule="evenodd" stroke="none"/>
    <path d="M-311.5 -240.75 L-315.75 -241.0 -317.5 -242.5 -347.75 -268.5 -347.25 -269.0 -345.25 -270.25 -311.5 -240.75 M-319.0 -241.25 L-322.75 -241.5 -350.25 -265.25 -351.25 -266.25 -350.5 -267.0 -349.25 -267.5 -319.0 -241.25" fill="#0d0d0f" fill-rule="evenodd" stroke="none"/>
    <path d="M-263.75 -364.5 L-259.75 -368.25 -279.65 -346.2 -263.75 -364.5" fill="#79798b" fill-rule="evenodd" stroke="none"/>
    <path d="M-275.5 -352.75 L-273.0 -354.75 -276.5 -350.75 -275.5 -352.75" fill="#bebed9" fill-rule="evenodd" stroke="none"/>
    <path d="M-286.75 -341.25 L-284.25 -344.25 -283.5 -344.25 -320.5 -301.0 -317.0 -306.0 -286.75 -341.25" fill="#d9d9ed" fill-rule="evenodd" stroke="none"/>
    <path d="M-317.5 -242.5 L-319.0 -241.25 -349.25 -267.5 -341.0 -277.5 Q-340.5 -276.0 -347.25 -269.0 L-347.75 -268.5 -317.5 -242.5" fill="#a0a0b8" fill-rule="evenodd" stroke="none"/>
    <path d="M-306.5 -316.0 L-313.25 -307.5 Q-313.75 -309.25 -306.5 -316.0" fill="#f2f2ff" fill-rule="evenodd" stroke="none"/>
  </g>
</svg>
