<?xml version="1.0" encoding="UTF-8" standalone="no"?>
<svg xmlns:xlink="http://www.w3.org/1999/xlink" height="149.0px" width="122.75px" xmlns="http://www.w3.org/2000/svg">
  <g transform="matrix(1.0, 0.0, 0.0, 1.0, 355.5, 389.25)">
    <path d="M-321.0 -241.0 L-232.75 -358.5 -235.75 -349.25 -239.25 -344.75 -280.25 -290.5 -292.25 -274.5 -279.0 -289.75 -238.0 -343.75 -240.5 -336.25 -243.5 -332.5 -254.75 -317.5 -242.25 -331.5 -244.25 -325.75 -246.75 -323.0 -277.5 -288.0 -289.25 -272.0 -245.75 -322.0 -247.75 -316.75 -313.75 -240.25 -316.5 -240.75 -304.75 -256.0 -317.5 -241.5 -318.0 -240.75 -321.0 -241.0" fill="#212126" fill-rule="evenodd" stroke="none"/>
    <path d="M-321.0 -241.0 L-355.5 -269.25 -273.0 -388.75 -271.75 -389.25 -232.75 -358.5 -321.0 -241.0" fill="#45454f" fill-rule="evenodd" stroke="none"/>
    <path d="M-239.25 -344.75 L-238.0 -343.75 -279.0 -289.75 -280.25 -290.5 -239.25 -344.75" fill="#9e9ead" fill-rule="evenodd" stroke="none"/>
    <path d="M-279.0 -289.75 L-292.25 -274.5 -280.25 -290.5 -279.0 -289.75" fill="#ffffff" fill-rule="evenodd" stroke="none"/>
    <path d="M-243.5 -332.5 L-242.25 -331.5 -254.75 -317.5 -243.5 -332.5" fill="#dadaf4" fill-rule="evenodd" stroke="none"/>
    <path d="M-246.75 -323.0 L-245.75 -322.0 -289.25 -272.0 -277.5 -288.0 -246.75 -323.0" fill="#ebebfb" fill-rule="evenodd" stroke="none"/>
    <path d="M-316.5 -240.75 L-317.5 -241.5 -304.75 -256.0 -316.5 -240.75" fill="#848498" fill-rule="evenodd" stroke="none"/>
  </g>
</svg>
