<?xml version="1.0" encoding="UTF-8" standalone="no"?>
<svg xmlns:xlink="http://www.w3.org/1999/xlink" height="134.0px" width="230.25px" xmlns="http://www.w3.org/2000/svg">
  <g transform="matrix(1.0, 0.0, 0.0, 1.0, 413.25, 369.5)">
    <path d="M-219.0 -354.5 L-187.0 -352.25 Q-183.25 -352.5 -183.0 -351.25 L-255.25 -235.5 -288.5 -237.0 -290.0 -238.0 -301.5 -263.5 -302.75 -261.5 -317.75 -238.5 -352.25 -240.0 -413.25 -369.0 -413.0 -369.5 -373.5 -366.5 -334.25 -282.75 -332.0 -278.25 -318.5 -300.25 -348.0 -364.25 -309.25 -361.5 -299.0 -339.0 Q-298.0 -334.75 -296.5 -334.75 L-281.25 -359.25 -243.5 -356.5 -279.75 -298.75 Q-281.0 -296.5 -273.5 -283.0 -270.75 -275.25 -269.25 -274.75 L-219.0 -354.5" fill="#ababbd" fill-rule="evenodd" stroke="none"/>
    <path d="M-299.0 -339.0 L-287.25 -357.5 -281.25 -359.25 -296.5 -334.75 Q-298.0 -334.75 -299.0 -339.0" fill="#818194" fill-rule="evenodd" stroke="none"/>
    <path d="M-321.75 -302.25 L-348.0 -359.0 Q-350.5 -362.0 -348.0 -364.25 L-318.5 -300.25 -321.75 -302.25" fill="#4d4d59" fill-rule="evenodd" stroke="none"/>
    <path d="M-334.25 -282.75 L-321.75 -302.25 -318.5 -300.25 -332.0 -278.25 -334.25 -282.75" fill="#9a9ab1" fill-rule="evenodd" stroke="none"/>
    <path d="M-290.0 -238.0 L-295.0 -243.75 -302.75 -261.5 -301.5 -263.5 -290.0 -238.0" fill="#383840" fill-rule="evenodd" stroke="none"/>
    <path d="M-273.5 -283.0 L-230.0 -352.0 Q-229.5 -354.25 -219.0 -354.5 L-269.25 -274.75 Q-270.75 -275.25 -273.5 -283.0" fill="#7c7c8f" fill-rule="evenodd" stroke="none"/>
  </g>
</svg>
