<?xml version="1.0" encoding="UTF-8" standalone="no"?>
<svg xmlns:xlink="http://www.w3.org/1999/xlink" height="135.5px" width="225.25px" xmlns="http://www.w3.org/2000/svg">
  <g transform="matrix(1.0, 0.0, 0.0, 1.0, 418.0, 371.25)">
    <path d="M-323.0 -359.25 L-315.5 -354.25 -305.75 -339.25 -308.0 -334.75 -323.0 -359.25" fill="#747486" fill-rule="evenodd" stroke="none"/>
    <path d="M-193.25 -371.25 L-252.0 -241.25 -287.0 -239.25 -299.25 -258.75 Q-301.5 -265.0 -303.25 -264.25 L-315.5 -237.5 -348.75 -235.75 -417.25 -348.75 -418.0 -350.5 -383.0 -353.75 -334.75 -275.25 -330.75 -283.5 -324.0 -298.25 -324.0 -299.25 -359.5 -355.5 -357.25 -356.25 -323.0 -359.25 -308.0 -334.75 -305.75 -339.25 -295.75 -361.5 -257.75 -365.25 -286.25 -301.5 -272.25 -279.25 -270.25 -283.75 -232.0 -367.5 -193.25 -371.25" fill="#bfbfd0" fill-rule="evenodd" stroke="none"/>
    <path d="M-257.75 -365.25 L-254.0 -359.0 -280.75 -299.75 -286.25 -301.5 -257.75 -365.25" fill="#45454f" fill-rule="evenodd" stroke="none"/>
    <path d="M-280.75 -299.75 L-270.25 -283.75 -272.25 -279.25 -286.25 -301.5 -280.75 -299.75" fill="#757587" fill-rule="evenodd" stroke="none"/>
    <path d="M-193.25 -371.25 L-192.75 -371.0 -193.75 -364.5 -247.25 -246.5 Q-247.5 -243.75 -252.0 -241.25 L-193.25 -371.25" fill="#2b2b32" fill-rule="evenodd" stroke="none"/>
    <path d="M-383.0 -353.75 L-371.25 -348.75 -330.75 -283.5 -334.75 -275.25 -383.0 -353.75" fill="#848497" fill-rule="evenodd" stroke="none"/>
    <path d="M-299.25 -258.75 L-307.75 -240.25 -315.5 -237.5 -303.25 -264.25 Q-301.5 -265.0 -299.25 -258.75" fill="#383841" fill-rule="evenodd" stroke="none"/>
  </g>
</svg>
