<?xml version="1.0" encoding="UTF-8" standalone="no"?>
<svg xmlns:xlink="http://www.w3.org/1999/xlink" height="152.5px" width="209.75px" xmlns="http://www.w3.org/2000/svg">
  <g transform="matrix(1.0, 0.0, 0.0, 1.0, 409.75, 384.0)">
    <path d="M-332.75 -353.75 L-314.25 -352.75 -313.0 -352.5 -311.75 -350.5 -316.5 -331.5 -332.75 -353.75" fill="#9292a7" fill-rule="evenodd" stroke="none"/>
    <path d="M-273.25 -299.0 L-251.25 -374.75 -214.0 -384.0 -255.5 -243.25 -287.25 -238.75 -292.25 -245.75 -303.5 -262.25 -304.5 -262.75 -312.25 -235.5 -340.25 -231.5 -409.75 -333.75 -409.5 -334.5 -382.25 -341.25 -333.0 -270.5 -326.75 -293.5 -326.5 -294.5 -363.25 -345.75 -332.75 -353.75 -316.5 -331.5 -311.75 -350.5 -309.25 -360.0 -275.25 -368.5 -293.75 -300.5 -278.25 -280.0 -273.25 -299.0" fill="#b2b2c1" fill-rule="evenodd" stroke="none"/>
    <path d="M-275.25 -368.5 L-258.25 -366.25 -276.0 -302.75 -293.75 -300.5 -275.25 -368.5" fill="#5f5f6d" fill-rule="evenodd" stroke="none"/>
    <path d="M-276.0 -302.75 L-273.25 -299.0 -278.25 -280.0 -293.75 -300.5 -276.0 -302.75" fill="#9090a6" fill-rule="evenodd" stroke="none"/>
    <path d="M-382.25 -341.25 L-360.5 -340.75 -326.75 -293.5 -333.0 -270.5 -382.25 -341.25" fill="#ceceea" fill-rule="evenodd" stroke="none"/>
    <path d="M-214.0 -384.0 L-205.5 -382.25 Q-200.25 -381.5 -200.0 -380.25 L-239.0 -250.5 Q-239.75 -247.75 -255.5 -243.25 L-214.0 -384.0 M-292.25 -245.75 L-293.75 -241.25 -312.25 -235.5 -304.5 -262.75 -303.5 -262.25 -292.25 -245.75" fill="#4e4e5a" fill-rule="evenodd" stroke="none"/>
  </g>
</svg>
