<?xml version="1.0" encoding="UTF-8" standalone="no"?>
<svg xmlns:xlink="http://www.w3.org/1999/xlink" height="166.75px" width="144.0px" xmlns="http://www.w3.org/2000/svg">
  <g transform="matrix(1.0, 0.0, 0.0, 1.0, 379.25, 396.75)">
    <path d="M-293.75 -368.75 L-293.75 -375.0 -270.5 -390.0 -267.25 -243.5 -286.5 -238.25 -288.25 -239.5 -303.25 -260.5 -302.25 -234.25 -318.5 -230.0 -376.25 -315.0 -379.25 -320.0 -365.75 -328.5 -322.25 -266.5 -323.75 -289.5 -354.0 -331.5 -356.25 -334.75 -340.25 -345.0 -325.75 -325.75 -327.0 -348.0 -327.25 -353.5 -308.25 -365.5 -304.75 -297.5 -290.5 -278.5 -291.25 -301.5 -293.75 -368.75" fill="#89899d" fill-rule="evenodd" stroke="none"/>
    <path d="M-270.5 -390.0 L-235.5 -396.75 -235.25 -256.5 -235.5 -255.75 -267.25 -243.5 -270.5 -390.0" fill="#60606f" fill-rule="evenodd" stroke="none"/>
    <path d="M-308.25 -365.5 L-293.75 -368.75 -291.25 -301.5 -304.75 -297.5 -308.25 -365.5" fill="#808094" fill-rule="evenodd" stroke="none"/>
    <path d="M-340.25 -345.0 L-327.0 -348.0 -325.75 -325.75 -340.25 -345.0" fill="#eaeaf4" fill-rule="evenodd" stroke="none"/>
    <path d="M-365.75 -328.5 L-354.0 -331.5 -323.75 -289.5 -322.25 -266.5 -365.75 -328.5" fill="#ffffff" fill-rule="evenodd" stroke="none"/>
    <path d="M-288.25 -239.5 L-302.25 -234.25 -303.25 -260.5 -288.25 -239.5" fill="#5b5b69" fill-rule="evenodd" stroke="none"/>
    <path d="M-304.75 -297.5 L-291.25 -301.5 -290.5 -278.5 -304.75 -297.5" fill="#dadaee" fill-rule="evenodd" stroke="none"/>
  </g>
</svg>
