<?xml version="1.0" encoding="UTF-8" standalone="no"?>
<svg xmlns:xlink="http://www.w3.org/1999/xlink" height="168.5px" width="128.85px" xmlns="http://www.w3.org/2000/svg">
  <g transform="matrix(1.0, 0.0, 0.0, 1.0, 365.6, 399.0)">
    <path d="M-308.75 -366.25 L-309.75 -372.5 -293.75 -388.0 -272.25 -243.0 -285.75 -238.25 -287.25 -238.75 -301.75 -259.75 -297.5 -234.5 -309.5 -230.5 -365.25 -315.75 Q-367.25 -319.0 -357.5 -325.5 L-317.5 -266.25 -317.25 -268.0 -321.25 -288.75 -348.75 -328.5 -351.0 -332.25 -340.75 -342.0 -327.5 -323.75 -331.25 -345.0 -332.0 -350.75 -319.5 -362.75 -308.0 -296.25 -294.5 -277.5 -298.0 -299.5 -308.75 -366.25" fill="#777789" fill-rule="evenodd" stroke="none"/>
    <path d="M-293.75 -388.0 L-254.0 -399.0 -236.75 -258.5 -236.75 -257.75 -272.25 -243.0 -293.75 -388.0" fill="#61616e" fill-rule="evenodd" stroke="none"/>
    <path d="M-319.5 -362.75 L-308.75 -366.25 -298.0 -299.5 -308.0 -296.25 -319.5 -362.75" fill="#89899d" fill-rule="evenodd" stroke="none"/>
    <path d="M-340.75 -342.0 L-331.25 -345.0 -327.5 -323.75 -340.75 -342.0" fill="#ededf7" fill-rule="evenodd" stroke="none"/>
    <path d="M-357.5 -325.5 L-348.75 -328.5 -321.25 -288.75 -317.25 -268.0 -317.5 -266.25 -357.5 -325.5" fill="#ffffff" fill-rule="evenodd" stroke="none"/>
    <path d="M-287.25 -238.75 L-297.5 -234.5 -301.75 -259.75 -287.25 -238.75" fill="#5d5d6b" fill-rule="evenodd" stroke="none"/>
    <path d="M-298.0 -299.5 L-294.5 -277.5 -308.0 -296.25 -298.0 -299.5" fill="#e0e0f4" fill-rule="evenodd" stroke="none"/>
  </g>
</svg>
