<?xml version="1.0" encoding="UTF-8" standalone="no"?>
<svg xmlns:xlink="http://www.w3.org/1999/xlink" height="168.5px" width="112.25px" xmlns="http://www.w3.org/2000/svg">
  <g transform="matrix(1.0, 0.0, 0.0, 1.0, 351.75, 399.75)">
    <path d="M-318.25 -384.0 L-317.0 -381.5 -277.5 -242.75 -284.75 -238.75 -285.25 -238.5 -286.5 -238.5 -287.0 -239.5 -299.75 -259.0 -292.75 -234.75 -299.0 -231.25 -299.75 -231.25 -351.0 -313.75 -351.75 -315.5 -347.75 -323.25 -311.25 -266.25 -318.0 -288.0 -342.5 -325.5 -345.0 -329.25 -340.25 -339.0 -328.5 -321.75 -334.25 -341.5 -336.0 -347.75 -330.25 -359.25 -329.25 -357.75 -310.5 -294.75 -298.5 -277.0 -304.5 -297.25 -323.75 -362.0 -325.5 -368.75 -318.25 -384.0" fill="#626271" fill-rule="evenodd" stroke="none"/>
    <path d="M-277.5 -242.75 L-317.0 -381.5 -318.25 -384.0 -275.25 -399.75 -241.25 -268.0 Q-237.5 -259.5 -241.75 -258.75 L-277.5 -242.75" fill="#585865" fill-rule="evenodd" stroke="none"/>
    <path d="M-299.0 -231.25 L-292.75 -234.75 -269.25 -245.2 -299.0 -231.25 M-284.75 -238.75 L-277.5 -242.75 -241.75 -258.75 -258.25 -250.75 -284.75 -238.75" fill="#0d0d0f" fill-rule="evenodd" stroke="none"/>
    <path d="M-323.75 -362.0 L-304.5 -297.25 -310.5 -294.75 -329.25 -357.75 -330.25 -359.25 -329.25 -360.25 -323.75 -362.0" fill="#9a9ab0" fill-rule="evenodd" stroke="none"/>
    <path d="M-304.5 -297.25 L-298.5 -277.0 -310.5 -294.75 -304.5 -297.25" fill="#e0e0f4" fill-rule="evenodd" stroke="none"/>
    <path d="M-334.25 -341.5 L-328.5 -321.75 -340.25 -339.0 -334.25 -341.5" fill="#eeeef8" fill-rule="evenodd" stroke="none"/>
    <path d="M-342.5 -325.5 L-318.0 -288.0 -311.25 -266.25 -347.75 -323.25 -342.5 -325.5" fill="#ffffff" fill-rule="evenodd" stroke="none"/>
    <path d="M-292.75 -234.75 L-299.75 -259.0 -287.0 -239.5 -286.5 -238.5 -285.25 -238.5 -284.75 -238.75 -258.25 -250.75 -258.0 -250.25 -261.25 -248.75 -261.5 -248.75 -269.25 -245.2 -292.75 -234.75" fill="#676776" fill-rule="evenodd" stroke="none"/>
  </g>
</svg>
