<?xml version="1.0" encoding="UTF-8" standalone="no"?>
<svg xmlns:xlink="http://www.w3.org/1999/xlink" height="165.75px" width="106.75px" xmlns="http://www.w3.org/2000/svg">
  <g transform="matrix(1.0, 0.0, 0.0, 1.0, 352.75, 398.25)">
    <path d="M-351.5 -373.75 L-352.0 -374.75 -352.75 -377.0 -309.75 -398.25 -246.0 -263.25 -285.25 -242.75 -351.5 -373.75" fill="#5a5a67" fill-rule="evenodd" stroke="none"/>
    <path d="M-246.0 -263.25 L-247.75 -258.25 -250.5 -256.5 -284.75 -238.5 -285.0 -239.25 -285.25 -242.75 -246.0 -263.25 M-249.5 -253.75 L-251.0 -249.5 -283.0 -232.5 -284.5 -232.75 -284.5 -235.5 -249.5 -253.75" fill="#0d0d0f" fill-rule="evenodd" stroke="none"/>
    <path d="M-284.5 -232.75 L-328.5 -311.25 -330.75 -317.5 -325.25 -308.75 -305.5 -272.5 -303.75 -269.75 -303.5 -270.5 -311.75 -286.75 -331.0 -320.25 -333.75 -325.25 -336.5 -332.75 -330.5 -323.25 -336.25 -335.0 -339.5 -341.25 -343.0 -350.75 -313.25 -292.75 -306.25 -280.5 -312.5 -293.0 -343.25 -354.25 -347.25 -362.0 -351.5 -373.75 -285.25 -242.75 -285.0 -239.25 -294.0 -255.25 -294.5 -255.0 -284.5 -235.5 -284.5 -232.75" fill="#3f3f48" fill-rule="evenodd" stroke="none"/>
    <path d="M-343.0 -350.75 L-344.25 -353.5 -343.25 -354.25 -312.5 -293.0 -313.25 -292.75 -343.0 -350.75" fill="#a7a7be" fill-rule="evenodd" stroke="none"/>
    <path d="M-313.25 -292.75 L-312.5 -293.0 -306.25 -280.5 -313.25 -292.75" fill="#e5e5f8" fill-rule="evenodd" stroke="none"/>
    <path d="M-336.5 -332.75 L-337.25 -334.5 -336.25 -335.0 -330.5 -323.25 -336.5 -332.75" fill="#ececf6" fill-rule="evenodd" stroke="none"/>
    <path d="M-330.75 -317.5 L-331.75 -319.75 -331.0 -320.25 -311.75 -286.75 -303.5 -270.5 -303.75 -269.75 -305.5 -272.5 -325.25 -308.75 -330.75 -317.5" fill="#ffffff" fill-rule="evenodd" stroke="none"/>
    <path d="M-250.5 -256.5 L-249.5 -253.75 -284.5 -235.5 -294.5 -255.0 -294.0 -255.25 -285.0 -239.25 -284.75 -238.5 -250.5 -256.5" fill="#727283" fill-rule="evenodd" stroke="none"/>
  </g>
</svg>
