<?xml version="1.0" encoding="UTF-8" standalone="no"?>
<svg xmlns:xlink="http://www.w3.org/1999/xlink" height="163.0px" width="173.75px" xmlns="http://www.w3.org/2000/svg">
  <g transform="matrix(1.0, 0.0, 0.0, 1.0, 401.0, 392.5)">
    <path d="M-327.25 -368.75 L-302.25 -356.75 -291.25 -342.0 -286.0 -334.75 -284.75 -347.5 -283.5 -347.5 -263.0 -337.25 -263.75 -319.0 -264.5 -304.5 -250.0 -285.0 -250.25 -330.0 -249.5 -330.5 -230.75 -321.0 -227.25 -250.75 -247.75 -257.75 -265.25 -282.0 -266.0 -264.5 -290.5 -273.0 -374.25 -392.5 -345.25 -378.25 -334.0 -362.5 -295.75 -308.75 -290.0 -300.75 -288.75 -314.5 -290.0 -317.25 -327.25 -368.75" fill="#9191a7" fill-rule="evenodd" stroke="none"/>
    <path d="M-334.0 -362.5 L-327.25 -368.75 -290.0 -317.25 -288.75 -314.5 -295.75 -308.75 -334.0 -362.5" fill="#c4c4d5" fill-rule="evenodd" stroke="none"/>
    <path d="M-288.75 -314.5 L-290.0 -300.75 -295.75 -308.75 -288.75 -314.5" fill="#acacc6" fill-rule="evenodd" stroke="none"/>
    <path d="M-291.25 -342.0 L-284.75 -347.5 -286.0 -334.75 -291.25 -342.0" fill="#9b9bb2" fill-rule="evenodd" stroke="none"/>
    <path d="M-263.75 -319.0 L-250.25 -330.0 -250.0 -285.0 -264.5 -304.5 -263.75 -319.0" fill="#a1a1b8" fill-rule="evenodd" stroke="none"/>
    <path d="M-227.25 -250.75 L-256.0 -229.5 -277.5 -235.75 -247.75 -257.75 -227.25 -250.75 M-286.5 -248.25 L-295.75 -241.0 -321.0 -248.25 -290.5 -273.0 -266.0 -264.5 -286.5 -248.25" fill="#0d0d0f" fill-rule="evenodd" stroke="none"/>
    <path d="M-277.5 -235.75 L-286.5 -248.25 -266.0 -264.5 -265.25 -282.0 -247.75 -257.75 -277.5 -235.75" fill="#757586" fill-rule="evenodd" stroke="none"/>
    <path d="M-321.0 -248.25 L-401.0 -364.75 -374.25 -392.5 -290.5 -273.0 -321.0 -248.25" fill="#6d6d7d" fill-rule="evenodd" stroke="none"/>
  </g>
</svg>
