<?xml version="1.0" encoding="UTF-8" standalone="no"?>
<svg xmlns:xlink="http://www.w3.org/1999/xlink" height="156.75px" width="190.25px" xmlns="http://www.w3.org/2000/svg">
  <g transform="matrix(1.0, 0.0, 0.0, 1.0, 402.75, 386.5)">
    <path d="M-329.75 -366.25 L-299.5 -355.25 -287.0 -338.25 -284.25 -335.0 -279.5 -346.75 -278.75 -347.5 -252.5 -337.5 -262.5 -307.25 Q-264.5 -305.75 -259.75 -301.5 L-248.5 -286.5 -236.75 -330.75 -235.5 -331.25 -212.5 -322.5 -226.0 -252.75 -252.5 -260.0 -270.25 -284.0 -276.0 -266.75 -306.5 -275.0 -383.75 -386.5 -382.25 -386.5 -351.0 -374.75 -337.5 -356.25 -301.25 -305.75 -298.5 -302.0 -293.25 -314.75 Q-292.5 -316.75 -298.5 -323.75 L-329.75 -366.25" fill="#a8a8c2" fill-rule="evenodd" stroke="none"/>
    <path d="M-337.5 -356.25 L-329.75 -366.25 -298.5 -323.75 Q-292.5 -316.75 -293.25 -314.75 L-301.25 -305.75 -337.5 -356.25" fill="#a8a8c0" fill-rule="evenodd" stroke="none"/>
    <path d="M-293.25 -314.75 L-298.5 -302.0 -301.25 -305.75 -293.25 -314.75" fill="#9494ab" fill-rule="evenodd" stroke="none"/>
    <path d="M-287.0 -338.25 L-279.5 -346.75 -284.25 -335.0 -287.0 -338.25" fill="#86869a" fill-rule="evenodd" stroke="none"/>
    <path d="M-259.75 -301.5 L-257.75 -308.5 -236.75 -330.75 -248.5 -286.5 -259.75 -301.5" fill="#79798b" fill-rule="evenodd" stroke="none"/>
    <path d="M-226.0 -252.75 L-251.25 -229.75 -277.25 -236.25 -252.5 -260.0 -226.0 -252.75 M-289.0 -253.0 L-300.0 -241.75 -330.5 -249.0 -306.5 -275.0 -276.0 -266.75 -289.0 -253.0" fill="#0d0d0f" fill-rule="evenodd" stroke="none"/>
    <path d="M-277.25 -236.25 L-289.0 -253.0 -276.0 -266.75 -270.25 -284.0 -252.5 -260.0 -277.25 -236.25" fill="#676776" fill-rule="evenodd" stroke="none"/>
    <path d="M-330.5 -249.0 L-402.5 -357.5 -402.75 -358.5 -383.75 -386.5 -306.5 -275.0 -330.5 -249.0" fill="#6b6b7b" fill-rule="evenodd" stroke="none"/>
  </g>
</svg>
