<?xml version="1.0" encoding="UTF-8" standalone="no"?>
<svg xmlns:xlink="http://www.w3.org/1999/xlink" height="146.75px" width="206.5px" xmlns="http://www.w3.org/2000/svg">
  <g transform="matrix(1.0, 0.0, 0.0, 1.0, 397.5, 377.5)">
    <path d="M-337.25 -345.0 L-330.0 -362.25 -298.5 -315.75 Q-307.75 -303.25 -310.25 -303.5 L-337.25 -345.0" fill="#9898af" fill-rule="evenodd" stroke="none"/>
    <path d="M-330.0 -362.25 L-328.75 -362.5 -296.75 -354.25 -283.0 -335.0 -272.5 -347.75 -241.0 -339.25 -241.5 -338.5 -241.5 -338.25 -263.25 -308.25 -261.75 -305.5 -250.25 -289.5 -221.25 -334.25 -191.0 -327.0 -229.75 -256.0 -262.5 -263.0 -278.5 -286.25 -279.75 -284.5 -290.75 -269.0 -326.5 -276.5 -388.25 -377.25 -387.0 -377.5 -353.25 -368.75 -337.25 -345.0 -310.25 -303.5 Q-307.75 -303.25 -298.5 -315.75 L-330.0 -362.25" fill="#c6c6e0" fill-rule="evenodd" stroke="none"/>
    <path d="M-241.5 -338.25 L-255.0 -314.75 -261.75 -305.5 -263.25 -308.25 -241.5 -338.25 M-293.5 -259.75 L-304.5 -244.25 -290.75 -269.0 -279.75 -284.5 -292.5 -261.5 -293.25 -261.25 -293.5 -259.75" fill="#2d2d34" fill-rule="evenodd" stroke="none"/>
    <path d="M-340.0 -249.25 L-397.5 -348.25 -388.25 -377.25 -326.5 -276.5 -340.0 -249.25" fill="#626271" fill-rule="evenodd" stroke="none"/>
    <path d="M-229.75 -256.0 L-247.25 -230.75 -279.0 -237.25 -277.75 -238.25 -262.5 -263.0 -229.75 -256.0 M-304.5 -244.25 L-305.5 -242.5 -306.75 -242.25 -340.0 -249.25 -326.5 -276.5 -290.75 -269.0 -304.5 -244.25" fill="#0d0d0f" fill-rule="evenodd" stroke="none"/>
    <path d="M-279.0 -237.25 L-293.5 -259.75 -293.25 -261.25 -292.5 -261.5 -279.75 -284.5 -278.5 -286.25 -262.5 -263.0 -277.75 -238.25 -279.0 -237.25" fill="#656575" fill-rule="evenodd" stroke="none"/>
  </g>
</svg>
