<?xml version="1.0" encoding="UTF-8" standalone="no"?>
<svg xmlns:xlink="http://www.w3.org/1999/xlink" height="300.9px" width="3125.2px" xmlns="http://www.w3.org/2000/svg">
  <g transform="matrix(1.0, 0.0, 0.0, 1.0, 1241.75, 0.0)">
    <use height="693.7" id="mme" transform="matrix(1.0, 0.0, 0.0, 0.4338, -1057.8, 0.0)" width="1883.45" xlink:href="#sprite0"/>
  </g>
  <defs>
    <g id="sprite0" transform="matrix(1.0, 0.0, 0.0, 1.0, 0.0, 0.0)">
      <use height="693.7" id="mme1" transform="matrix(1.0, 0.0, 0.0, 1.0, 0.0, 0.0)" width="628.35" xlink:href="#sprite1"/>
      <use height="693.7" id="mme2" transform="matrix(1.0, 0.0, 0.0, 1.0, 627.55, 0.0)" width="628.35" xlink:href="#sprite1"/>
      <use height="693.7" id="mme3" transform="matrix(1.0, 0.0, 0.0, 1.0, 1255.1, 0.0)" width="628.35" xlink:href="#sprite1"/>
    </g>
    <g id="sprite1" transform="matrix(1.0, 0.0, 0.0, 1.0, 0.0, 0.0)">
      <use height="693.7" transform="matrix(1.0, 0.0, 0.0, 1.0, 0.0, 0.0)" width="628.35" xlink:href="#shape0"/>
    </g>
    <g id="shape0" transform="matrix(1.0, 0.0, 0.0, 1.0, 0.0, 0.0)">
      <path d="M627.55 65.75 L628.35 65.45 628.35 693.7 0.8 693.7 0.8 664.25 0.0 664.25 0.0 36.0 Q94.0 -0.05 157.0 0.0 237.95 6.65 305.95 36.0 394.95 67.05 464.95 65.25 547.9 63.1 627.55 36.0 L627.55 65.75" fill="#000000" fill-rule="evenodd" stroke="none"/>
    </g>
  </defs>
</svg>
