<?xml version="1.0" encoding="UTF-8" standalone="no"?>
<svg xmlns:xlink="http://www.w3.org/1999/xlink" height="72.7px" width="30.7px" xmlns="http://www.w3.org/2000/svg">
  <g transform="matrix(1.0, 0.0, 0.0, 1.0, 20.4, 0.05)">
    <use height="72.7" transform="matrix(1.0, 0.0, 0.0, 1.0, -20.4, -0.05)" width="30.25" xlink:href="#shape0"/>
  </g>
  <defs>
    <g id="shape0" transform="matrix(1.0, 0.0, 0.0, 1.0, 20.4, 0.05)">
      <path d="M-19.85 72.65 L-20.25 72.5 -20.4 72.2 -20.25 71.7 Q-19.35 71.5 -19.35 72.2 L-19.85 72.65 M8.7 33.3 L8.75 32.85 Q8.05 33.6 6.8 33.6 L6.8 34.0 6.9 33.65 Q8.0 33.65 8.45 35.1 L8.7 33.3 M8.6 19.85 L8.45 21.4 8.7 21.5 8.65 19.85 8.6 19.85 M1.65 12.95 L0.0 14.35 -1.65 13.7 -2.0 12.4 Q-2.0 11.4 -1.7 11.05 L-1.45 10.55 Q2.0 9.65 2.0 12.5 L1.65 12.95 M2.1 14.1 L1.65 13.85 1.55 13.55 1.7 13.1 Q2.6 12.8 2.6 13.6 L2.1 14.1 M7.7 11.75 L8.45 11.8 8.4 9.65 Q8.4 6.0 9.1 8.85 9.8 11.65 9.8 14.45 L9.8 23.35 9.85 27.4 9.75 33.6 Q9.65 36.1 8.55 39.85 7.4 43.85 6.6 43.85 L6.4 43.8 4.7 45.2 3.65 44.8 3.05 44.5 2.7 43.3 Q2.7 42.3 2.95 41.95 L3.2 41.45 3.95 41.25 4.05 40.85 Q4.2 40.35 4.7 40.35 4.95 40.35 5.15 40.65 L6.2 40.95 6.8 40.5 6.55 40.35 6.45 40.2 6.35 39.85 Q7.55 37.75 7.55 37.15 L7.15 35.45 6.8 34.3 6.8 35.45 6.15 37.55 5.65 38.2 6.2 38.6 5.7 39.05 5.25 38.9 5.15 38.6 5.2 38.55 4.7 38.8 5.0 39.3 4.95 39.65 4.35 39.75 Q3.6 39.75 3.5 39.0 L3.4 39.0 Q2.35 39.0 1.9 38.6 L1.45 38.2 1.45 37.35 1.05 37.5 0.6 37.35 0.5 36.8 2.0 34.55 2.05 34.35 2.35 33.55 1.95 32.55 Q1.05 32.5 1.05 31.25 1.05 29.9 1.9 30.2 L2.05 30.3 2.3 29.85 2.05 29.1 Q1.4 27.3 1.4 26.4 L1.5 25.25 Q1.2 24.9 1.2 24.3 1.2 22.9 3.0 23.5 2.0 20.3 2.0 19.25 2.0 18.2 2.25 17.85 L2.5 17.5 Q2.9 17.3 3.3 17.25 L3.3 16.95 3.15 15.35 Q3.15 14.05 4.2 14.25 L4.35 17.2 Q5.2 17.3 6.0 17.95 L6.75 18.6 7.55 18.25 7.45 18.1 7.05 17.0 7.1 16.3 Q2.75 13.0 2.75 12.2 2.75 11.3 5.7 13.75 L7.65 15.45 8.25 15.45 8.55 15.55 8.5 12.4 8.1 12.75 7.65 12.5 7.55 12.2 7.7 11.75 M2.55 10.25 Q2.4 10.1 2.4 9.65 2.4 7.25 4.6 7.65 6.75 8.1 6.75 10.3 L6.3 11.15 Q5.6 11.75 4.25 11.75 L3.3 10.5 2.55 10.25 M4.95 5.25 L4.1 4.1 4.2 3.65 Q5.75 3.9 6.85 5.6 7.8 7.0 7.8 8.2 7.8 9.05 7.2 9.6 6.65 9.25 6.65 8.4 L6.45 7.05 4.95 5.25 M9.45 1.45 Q9.05 3.2 7.05 3.2 4.5 3.2 4.5 1.7 4.5 0.1 7.0 -0.05 9.45 -0.2 9.45 1.45" fill="#6d0101" fill-rule="evenodd" stroke="none"/>
    </g>
  </defs>
</svg>
