<?xml version="1.0" encoding="UTF-8" standalone="no"?>
<svg xmlns:xlink="http://www.w3.org/1999/xlink" height="44.5px" width="147.75px" xmlns="http://www.w3.org/2000/svg">
  <g transform="matrix(1.0, 0.0, 0.0, 1.0, 72.8, 20.6)">
    <use height="39.55" transform="matrix(1.0, 0.0, 0.0, 1.0, -72.8, -15.65)" width="147.75" xlink:href="#shape0"/>
    <use height="7.8" transform="matrix(1.0, 0.0, 0.0, 1.0, -26.3, -20.6)" width="61.85" xlink:href="#text0"/>
  </g>
  <defs>
    <g id="shape0" transform="matrix(1.0, 0.0, 0.0, 1.0, 72.8, 15.65)">
      <path d="M31.25 -10.2 Q30.85 -9.75 30.25 -9.75 L-68.05 -9.75 -71.35 -6.45 -71.35 19.1 -68.05 22.45 70.2 22.45 73.45 19.1 73.45 -10.6 69.85 -14.25 35.3 -14.25 31.25 -10.2 M3.85 -0.3 L3.85 -0.25 4.15 -0.3 3.95 -0.3 3.85 -0.3 M0.55 -0.8 L1.35 -0.75 1.85 -0.7 1.9 -0.7 2.55 -0.7 2.65 -0.75 2.8 -0.75 3.55 -0.9 3.8 -1.05 4.1 -0.95 4.35 -0.85 5.0 -0.9 5.0 -1.0 5.05 -1.15 5.35 -1.0 5.4 -0.55 4.75 -0.55 4.2 -0.6 4.15 -0.5 4.15 -0.3 4.3 -0.3 4.65 -0.3 4.65 0.15 16.3 0.15 16.65 0.4 17.8 0.4 17.8 0.35 17.95 0.25 18.2 0.15 18.5 0.25 18.65 0.35 21.2 0.35 21.3 0.3 21.35 0.25 21.45 0.2 21.8 0.15 22.05 0.15 22.15 0.3 22.2 0.35 25.75 0.35 25.75 0.25 25.95 0.1 26.2 -0.05 26.05 0.0 25.95 -0.25 26.0 -0.4 25.75 -0.5 24.05 -0.45 23.95 0.0 23.65 0.0 23.6 -0.1 23.6 -0.7 23.6 -1.0 23.45 -1.0 22.95 -0.95 22.95 -1.65 21.7 -1.7 21.65 -1.1 21.65 -0.65 21.6 -0.25 Q21.55 -0.1 20.9 0.0 L20.3 0.0 19.55 0.05 17.2 -0.1 Q16.95 -0.15 16.95 -0.75 L17.0 -1.75 16.4 -1.65 16.0 -1.75 15.75 -1.75 15.75 -2.05 15.0 -2.05 13.2 -2.0 11.5 -1.9 11.45 -1.9 9.7 -1.8 8.05 -1.65 7.6 -1.65 7.5 -1.65 7.45 -1.65 7.05 -1.75 7.05 -1.65 6.95 -1.7 6.8 -1.8 6.45 -2.35 6.4 -2.95 6.4 -3.15 6.4 -3.25 6.6 -4.3 7.1 -5.1 17.85 -5.1 17.9 -5.2 18.1 -5.45 18.55 -5.45 19.35 -5.45 19.65 -5.3 19.8 -5.15 19.8 -5.05 25.2 -5.1 25.2 -5.35 26.4 -5.35 26.4 -5.1 26.4 -5.0 28.0 -5.0 28.9 -5.25 29.25 -5.35 29.3 -5.4 29.45 -5.35 31.9 -5.35 31.9 -5.1 32.3 -4.2 32.35 -3.65 32.25 -3.05 31.9 -2.5 31.9 -2.35 29.5 -2.35 29.4 -2.35 29.35 -2.4 28.6 -2.6 28.5 -1.85 28.5 -1.8 28.45 -1.05 28.4 -1.0 28.45 -1.0 28.5 -0.35 28.3 -0.2 28.1 -0.05 27.8 0.05 27.45 0.05 27.1 0.05 26.95 -0.05 26.95 0.0 26.45 -0.05 26.25 -0.05 26.75 0.25 26.75 0.35 26.8 0.35 27.9 0.35 29.5 0.2 31.2 0.2 Q32.2 0.2 32.8 1.25 L33.0 1.75 33.1 2.05 Q33.5 2.4 33.5 2.8 L33.5 3.1 39.4 3.4 39.3 3.25 39.3 3.2 39.4 2.9 39.35 2.45 39.35 1.65 39.35 1.4 39.45 1.25 39.55 1.0 39.85 0.85 40.05 0.85 48.85 1.45 49.1 1.55 49.35 1.9 49.35 3.1 49.3 3.3 49.25 3.65 49.25 3.9 49.25 3.95 57.45 4.45 57.15 7.45 Q56.8 11.15 56.85 15.1 L56.85 16.05 56.45 16.05 56.4 16.05 56.05 16.1 49.8 15.1 45.85 14.15 40.0 12.7 37.4 12.35 36.55 12.55 Q36.3 12.65 36.15 13.25 L36.1 13.25 35.1 13.75 33.85 14.2 32.55 14.5 31.2 14.65 Q30.95 14.25 30.65 13.1 L30.1 11.25 29.9 10.5 29.65 9.75 Q29.25 8.95 28.15 8.9 27.95 10.0 27.0 10.3 L24.75 10.45 23.25 10.05 Q22.85 9.8 22.7 9.2 L22.45 7.45 Q22.4 6.75 21.9 6.75 L21.8 6.75 21.55 6.7 21.45 6.7 21.15 6.75 21.0 6.8 20.8 6.85 20.5 6.75 20.2 6.6 19.6 6.7 18.85 6.8 18.8 6.7 18.8 8.75 18.1 8.75 18.05 8.8 18.05 8.95 18.3 9.6 18.65 10.3 18.55 10.25 18.25 9.9 18.1 9.75 17.7 9.2 17.45 8.75 17.5 8.7 16.95 8.75 16.95 8.7 16.95 8.6 16.9 8.6 16.9 8.7 16.9 8.75 16.95 8.75 16.95 8.9 16.95 9.0 17.0 9.2 16.95 10.7 16.85 11.55 16.75 12.35 16.25 15.2 16.1 15.2 16.0 15.2 15.95 15.2 15.7 15.25 15.3 15.35 15.05 15.3 14.35 15.2 13.4 14.95 12.7 14.8 11.6 14.55 10.75 14.35 9.9 14.2 9.15 13.9 8.5 13.65 8.35 13.65 8.35 13.55 8.3 13.4 8.45 13.2 8.6 13.1 8.7 13.1 8.75 12.75 8.9 11.55 8.95 10.25 9.0 9.25 9.05 8.6 9.05 8.4 8.8 7.15 8.8 7.1 8.9 7.1 8.85 6.95 8.85 7.0 8.75 6.85 8.55 6.05 8.3 5.4 7.3 5.25 6.75 5.25 6.65 5.25 5.7 5.25 4.95 5.3 4.65 5.3 4.5 5.3 4.35 5.3 4.35 5.45 4.3 5.45 4.05 5.4 3.8 5.3 3.5 5.35 2.6 5.45 2.4 5.45 -2.2 5.0 -2.65 4.95 -2.85 4.9 -4.75 4.7 -4.8 4.7 -7.0 4.5 -9.4 4.4 -10.05 4.4 -10.95 4.4 -11.85 4.4 -12.65 4.35 -13.1 4.4 -13.95 4.35 -14.65 4.3 -16.65 4.25 -17.65 4.25 -18.1 4.25 -21.5 4.3 -21.95 4.3 -22.05 4.3 -22.2 3.95 -22.25 3.95 -22.6 3.85 -22.75 3.9 -22.9 3.95 -23.15 3.9 -23.3 3.8 -23.4 3.7 -23.4 3.65 -23.55 3.4 -28.55 3.4 -28.55 3.7 -31.6 3.7 -31.6 3.35 -47.45 3.35 -47.45 3.45 -47.45 3.55 -47.45 3.8 -47.45 4.6 -48.35 4.6 -48.35 4.0 Q-48.35 3.75 -48.5 3.6 L-49.35 3.35 -50.2 3.45 -50.85 3.4 -50.95 3.4 -51.0 3.45 -51.0 3.5 -51.0 3.7 -51.45 3.75 -54.35 3.7 -56.9 3.65 -57.3 3.6 -57.4 3.45 -57.55 3.4 -57.65 3.5 -57.7 3.5 -57.75 3.75 -58.0 3.7 -58.1 3.7 -58.3 3.7 -58.3 1.8 -57.7 1.8 -57.7 1.95 -57.6 2.0 -57.4 2.05 -57.35 2.1 -57.3 1.95 -57.3 1.8 -51.75 1.8 -51.7 1.7 -51.05 1.7 -51.0 1.9 -51.0 2.0 -49.75 1.95 -49.7 -1.8 -49.3 -1.55 -48.9 -1.45 -48.55 -1.65 -48.15 -1.75 -48.15 0.25 -48.1 0.25 -48.0 0.65 -47.8 0.95 -47.7 1.05 Q-47.4 1.55 -47.4 1.95 L-47.4 2.0 -31.6 2.0 -31.5 2.0 -31.1 1.75 -31.0 1.75 -30.75 1.65 -30.75 1.6 -30.55 1.5 -30.0 1.15 -29.65 0.75 -29.45 0.4 Q-29.1 -0.05 -28.5 0.1 L-27.85 0.1 Q-27.65 -0.05 -27.5 0.1 L-25.0 0.1 -24.9 0.1 -24.8 0.15 -24.75 0.2 -24.65 0.25 -24.3 0.2 Q-24.05 0.2 -23.9 0.35 L-22.25 0.35 -22.15 -0.2 -1.3 -0.2 -0.9 -0.6 -0.3 -0.85 -0.1 -0.85 0.45 -0.8 0.55 -0.8 M70.45 -15.65 L74.95 -11.2 74.95 19.7 70.75 23.9 -68.65 23.9 -72.8 19.7 -72.8 -7.05 -68.65 -11.2 30.25 -11.2 34.75 -15.65 70.45 -15.65 M54.3 6.5 Q53.95 6.25 52.75 6.05 L52.5 11.5 52.75 11.6 53.0 11.6 Q54.25 11.6 54.55 10.4 L54.65 9.2 54.65 7.8 54.65 7.55 54.4 6.6 54.35 6.5 54.3 6.5 M51.85 5.95 Q50.3 5.75 49.95 6.75 49.6 7.6 49.55 8.75 L49.55 8.95 Q49.5 10.15 50.05 10.85 50.55 11.5 51.2 11.5 L51.55 11.5 51.95 11.45 52.1 11.45 52.05 11.4 52.05 6.0 52.15 6.0 52.05 5.95 51.85 5.95 M43.7 5.7 L43.75 5.65 43.7 5.65 Q43.35 5.55 43.25 6.0 L43.2 6.15 42.8 6.5 42.3 6.3 42.25 6.3 41.7 5.65 Q41.4 5.3 40.85 5.3 L39.65 5.3 37.3 5.15 35.0 5.05 Q34.7 5.1 34.3 5.4 33.95 5.75 33.9 6.45 33.85 7.15 34.55 8.9 35.2 10.65 36.35 10.75 L43.3 11.75 Q44.75 11.85 44.9 10.75 L45.05 8.8 45.1 7.6 45.15 7.45 45.2 6.9 45.15 6.25 45.0 5.95 44.9 5.85 44.75 5.75 44.7 5.7 44.8 5.85 44.85 5.95 44.95 6.3 44.9 6.5 44.85 6.75 44.6 6.75 44.3 6.6 44.0 6.55 43.75 6.65 43.5 6.75 43.4 6.6 43.35 6.45 43.45 6.1 43.5 6.0 43.5 5.9 43.55 5.85 Q43.65 5.75 43.7 5.75 L43.7 5.7 M26.2 6.55 L26.15 6.55 Q25.95 6.6 25.9 6.8 L25.9 6.85 26.15 7.45 26.35 8.5 26.3 9.1 25.8 9.55 25.8 9.45 25.95 8.9 26.05 8.25 Q26.05 7.9 25.65 7.4 L24.95 6.7 24.8 6.6 22.15 6.6 22.65 7.2 22.65 8.05 22.8 8.95 Q22.95 9.6 23.45 9.95 23.95 10.3 24.65 10.3 L26.75 10.1 Q27.6 9.9 27.95 9.0 L27.95 8.9 27.95 8.65 28.0 8.4 27.75 7.55 27.5 7.05 Q27.25 7.05 27.15 6.9 L27.0 6.55 26.95 6.55 26.6 6.6 26.25 6.6 26.2 6.55 M5.8 2.65 L5.75 2.6 5.75 2.65 5.8 2.65 M-8.1 1.45 L-8.15 1.35 -8.45 0.9 -10.3 0.9 -10.45 0.95 -10.5 1.0 -10.65 1.2 -10.65 1.3 -10.65 1.35 -10.45 1.65 -10.2 1.65 -8.5 1.65 -8.2 1.6 -8.1 1.45 M-13.0 1.0 L-13.25 0.9 -15.1 0.9 -15.35 1.0 -15.5 1.3 -15.4 1.6 -15.05 1.65 -13.3 1.65 -12.95 1.6 -12.9 1.3 -13.0 1.0 M-17.8 1.6 L-17.7 1.3 Q-17.7 1.1 -17.85 1.0 L-18.05 0.9 -19.9 0.9 -20.15 1.0 -20.25 1.3 -20.15 1.6 -19.95 1.65 -19.85 1.65 -18.1 1.65 -17.8 1.6 M-21.7 1.2 L-21.8 1.2 -21.85 1.15 -21.85 1.2 -21.9 1.25 -21.95 2.1 -21.85 2.85 Q-21.7 2.85 -21.7 2.55 L-21.65 2.0 -21.7 1.45 -21.7 1.2 M-48.35 0.7 L-48.7 0.7 -49.15 0.8 -49.45 0.9 -49.45 1.0 -49.45 1.3 Q-49.45 1.7 -49.0 1.7 L-48.35 1.65 Q-48.15 1.55 -48.15 1.0 L-48.15 0.9 -48.25 0.75 -48.35 0.7 M-56.05 2.8 L-56.0 2.85 -55.95 2.85 -56.0 2.8 -56.05 2.8 M-47.9 1.9 L-47.95 1.9 -47.9 1.95 -47.9 1.9" fill="#ffffff" fill-rule="evenodd" stroke="none"/>
      <path d="M0.55 -0.8 L0.45 -0.8 -0.1 -0.85 -0.3 -0.85 -0.9 -0.6 -1.3 -0.2 -22.15 -0.2 -22.25 0.35 -23.9 0.35 Q-24.05 0.2 -24.3 0.2 L-24.65 0.25 -24.75 0.2 -24.8 0.15 -24.9 0.1 -25.0 0.1 -27.5 0.1 Q-27.65 -0.05 -27.85 0.1 L-28.5 0.1 Q-29.1 -0.05 -29.45 0.4 L-29.65 0.75 -30.0 1.15 -30.55 1.5 -30.75 1.6 -30.75 1.65 -31.0 1.75 -31.1 1.75 -31.5 2.0 -31.6 2.0 -47.4 2.0 -47.4 1.95 Q-47.4 1.55 -47.7 1.05 L-47.8 0.95 -48.0 0.65 -48.1 0.25 -48.15 0.25 -48.15 -1.75 -48.55 -1.65 -48.9 -1.45 -49.3 -1.55 -49.7 -1.8 -49.75 1.95 -51.0 2.0 -51.0 1.9 -51.05 1.7 -51.7 1.7 -51.75 1.8 -57.3 1.8 -57.3 1.95 -57.35 2.1 -57.4 2.05 -57.6 2.0 -57.7 1.95 -57.7 1.8 -58.3 1.8 -58.3 3.7 -58.1 3.7 -58.0 3.7 -57.75 3.75 -57.7 3.5 -57.65 3.5 -57.55 3.4 -57.4 3.45 -57.3 3.6 -56.9 3.65 -54.35 3.7 -51.45 3.75 -51.0 3.7 -51.0 3.5 -51.0 3.45 -50.95 3.4 -50.85 3.4 -50.2 3.45 -49.35 3.35 -48.5 3.6 Q-48.35 3.75 -48.35 4.0 L-48.35 4.6 -47.45 4.6 -47.45 3.8 -47.45 3.55 -47.45 3.45 -47.45 3.35 -31.6 3.35 -31.6 3.7 -28.55 3.7 -28.55 3.4 -23.55 3.4 -23.4 3.65 -23.4 3.7 -23.3 3.8 -23.15 3.9 -22.9 3.95 -22.75 3.9 -22.6 3.85 -22.25 3.95 -22.2 3.95 -22.05 4.3 -21.95 4.3 -21.5 4.3 -18.1 4.25 -17.65 4.25 -16.65 4.25 -14.65 4.3 -13.95 4.35 -13.1 4.4 -12.65 4.35 -11.85 4.4 -10.95 4.4 -10.05 4.4 -9.4 4.4 -7.0 4.5 -4.8 4.7 -4.75 4.7 -2.85 4.9 -2.65 4.95 -2.2 5.0 2.4 5.45 2.6 5.45 3.5 5.35 3.8 5.3 4.05 5.4 4.3 5.45 4.35 5.45 4.35 5.3 4.5 5.3 4.65 5.3 4.95 5.3 5.7 5.25 6.65 5.25 6.75 5.25 7.3 5.25 8.3 5.4 8.55 6.05 8.75 6.85 8.85 7.0 8.85 6.95 8.9 7.1 8.8 7.1 8.8 7.15 9.05 8.4 9.05 8.6 9.0 9.25 8.95 10.25 8.9 11.55 8.75 12.75 8.7 13.1 8.6 13.1 8.45 13.2 8.3 13.4 8.35 13.55 8.35 13.65 8.5 13.65 9.15 13.9 9.9 14.2 10.75 14.35 11.6 14.55 12.7 14.8 13.4 14.95 14.35 15.2 15.05 15.3 15.3 15.35 15.7 15.25 15.95 15.2 16.0 15.2 16.1 15.2 16.25 15.2 16.75 12.35 16.85 11.55 16.95 10.7 17.0 9.2 16.95 9.0 16.95 8.9 16.95 8.75 16.9 8.75 16.9 8.7 16.9 8.6 16.95 8.6 16.95 8.7 16.95 8.75 17.5 8.7 17.45 8.75 17.7 9.2 18.1 9.75 18.25 9.9 18.55 10.25 18.65 10.3 18.3 9.6 18.05 8.95 18.05 8.8 18.1 8.75 18.8 8.75 18.8 6.7 18.85 6.8 19.6 6.7 20.2 6.6 20.5 6.75 20.8 6.85 21.0 6.8 21.15 6.75 21.45 6.7 21.55 6.7 21.8 6.75 21.9 6.75 Q22.4 6.75 22.45 7.45 L22.7 9.2 Q22.85 9.8 23.25 10.05 L24.75 10.45 27.0 10.3 Q27.95 10.0 28.15 8.9 29.25 8.95 29.65 9.75 L29.9 10.5 30.1 11.25 30.65 13.1 Q30.95 14.25 31.2 14.65 L32.55 14.5 33.85 14.2 35.1 13.75 36.1 13.25 36.15 13.25 Q36.3 12.65 36.55 12.55 L37.4 12.35 40.0 12.7 45.85 14.15 49.8 15.1 56.05 16.1 56.4 16.05 56.45 16.05 56.85 16.05 56.85 15.1 Q56.8 11.15 57.15 7.45 L57.45 4.45 49.25 3.95 49.25 3.9 49.25 3.65 49.3 3.3 49.35 3.1 49.35 1.9 49.1 1.55 48.85 1.45 40.05 0.85 39.85 0.85 39.55 1.0 39.45 1.25 39.35 1.4 39.35 1.65 39.35 2.45 39.4 2.9 39.3 3.2 39.3 3.25 39.4 3.4 33.5 3.1 33.5 2.8 Q33.5 2.4 33.1 2.05 L33.0 1.75 32.8 1.25 Q32.2 0.2 31.2 0.2 L29.5 0.2 27.9 0.35 26.8 0.35 26.75 0.35 26.75 0.25 26.25 -0.05 26.45 -0.05 26.95 0.0 26.95 -0.05 27.1 0.05 27.45 0.05 27.8 0.05 28.1 -0.05 28.3 -0.2 28.5 -0.35 28.45 -1.0 28.4 -1.0 28.45 -1.05 28.5 -1.8 28.5 -1.85 28.6 -2.6 29.35 -2.4 29.4 -2.35 29.5 -2.35 31.9 -2.35 31.9 -2.5 32.25 -3.05 32.35 -3.65 32.3 -4.2 31.9 -5.1 31.9 -5.35 29.45 -5.35 29.3 -5.4 29.25 -5.35 28.9 -5.25 28.0 -5.0 26.4 -5.0 26.4 -5.1 26.4 -5.35 25.2 -5.35 25.2 -5.1 19.8 -5.05 19.8 -5.15 19.65 -5.3 19.35 -5.45 18.55 -5.45 18.1 -5.45 17.9 -5.2 17.85 -5.1 7.1 -5.1 6.6 -4.3 6.4 -3.25 6.4 -3.15 6.4 -2.95 6.45 -2.35 6.8 -1.8 6.95 -1.7 7.05 -1.65 7.05 -1.75 7.45 -1.65 7.5 -1.65 7.6 -1.65 8.05 -1.65 9.7 -1.8 11.45 -1.9 11.5 -1.9 13.2 -2.0 15.0 -2.05 15.75 -2.05 15.75 -1.75 16.0 -1.75 16.4 -1.65 17.0 -1.75 16.95 -0.75 Q16.95 -0.15 17.2 -0.1 L19.55 0.05 20.3 0.0 20.9 0.0 Q21.55 -0.1 21.6 -0.25 L21.65 -0.65 21.65 -1.1 21.7 -1.7 22.95 -1.65 22.95 -0.95 23.45 -1.0 23.6 -1.0 23.6 -0.7 23.6 -0.1 23.65 0.0 23.95 0.0 24.05 -0.45 25.75 -0.5 26.0 -0.4 25.95 -0.25 26.05 0.0 26.2 -0.05 25.95 0.1 25.75 0.25 25.75 0.35 22.2 0.35 22.15 0.3 22.05 0.15 21.8 0.15 21.45 0.2 21.35 0.25 21.3 0.3 21.2 0.35 18.65 0.35 18.5 0.25 18.2 0.15 17.95 0.25 17.8 0.35 17.8 0.4 16.65 0.4 16.3 0.15 4.65 0.15 4.65 -0.3 4.3 -0.3 4.15 -0.3 4.15 -0.5 4.2 -0.6 4.75 -0.55 5.4 -0.55 5.35 -1.0 5.05 -1.15 5.0 -1.0 5.0 -0.9 4.35 -0.85 4.1 -0.95 3.8 -1.05 3.55 -0.9 2.8 -0.75 2.65 -0.75 2.55 -0.7 1.9 -0.7 1.85 -0.7 1.35 -0.75 0.55 -0.8 M3.85 -0.3 L3.95 -0.3 4.15 -0.3 3.85 -0.25 3.85 -0.3 M31.25 -10.2 L35.3 -14.25 69.85 -14.25 73.45 -10.6 73.45 19.1 70.2 22.45 -68.05 22.45 -71.35 19.1 -71.35 -6.45 -68.05 -9.75 30.25 -9.75 Q30.85 -9.75 31.25 -10.2 M54.3 6.5 L54.35 6.5 54.4 6.6 54.65 7.55 54.65 7.8 54.65 9.2 54.55 10.4 Q54.25 11.6 53.0 11.6 L52.75 11.6 52.5 11.5 52.75 6.05 Q53.95 6.25 54.3 6.5 M43.7 5.7 L43.7 5.75 Q43.65 5.75 43.55 5.85 L43.5 5.9 43.5 6.0 43.45 6.1 43.35 6.45 43.4 6.6 43.5 6.75 43.75 6.65 44.0 6.55 44.3 6.6 44.6 6.75 44.85 6.75 44.9 6.5 44.95 6.3 44.85 5.95 44.8 5.85 44.7 5.7 44.75 5.75 44.9 5.85 45.0 5.95 45.15 6.25 45.2 6.9 45.15 7.45 45.1 7.6 45.05 8.8 44.9 10.75 Q44.75 11.85 43.3 11.75 L36.35 10.75 Q35.2 10.65 34.55 8.9 33.85 7.15 33.9 6.45 33.95 5.75 34.3 5.4 34.7 5.1 35.0 5.05 L37.3 5.15 39.65 5.3 40.85 5.3 Q41.4 5.3 41.7 5.65 L42.25 6.3 42.3 6.3 42.8 6.5 43.2 6.15 43.25 6.0 Q43.35 5.55 43.7 5.65 L43.75 5.65 43.7 5.7 M51.85 5.95 L52.05 5.95 52.15 6.0 52.05 6.0 52.05 11.4 52.1 11.45 51.95 11.45 51.55 11.5 51.2 11.5 Q50.55 11.5 50.05 10.85 49.5 10.15 49.55 8.95 L49.55 8.75 Q49.6 7.6 49.95 6.75 50.3 5.75 51.85 5.95 M26.2 6.55 L26.25 6.6 26.6 6.6 26.95 6.55 27.0 6.55 27.15 6.9 Q27.25 7.05 27.5 7.05 L27.75 7.55 28.0 8.4 27.95 8.65 27.95 8.9 27.95 9.0 Q27.6 9.9 26.75 10.1 L24.65 10.3 Q23.95 10.3 23.45 9.95 22.95 9.6 22.8 8.95 L22.65 8.05 22.65 7.2 22.15 6.6 24.8 6.6 24.95 6.7 25.65 7.4 Q26.05 7.9 26.05 8.25 L25.95 8.9 25.8 9.45 25.8 9.55 26.3 9.1 26.35 8.5 26.15 7.45 25.9 6.85 25.9 6.8 Q25.95 6.6 26.15 6.55 L26.2 6.55 M5.8 2.65 L5.75 2.65 5.75 2.6 5.8 2.65 M-8.1 1.45 L-8.2 1.6 -8.5 1.65 -10.2 1.65 -10.45 1.65 -10.65 1.35 -10.65 1.3 -10.65 1.2 -10.5 1.0 -10.45 0.95 -10.3 0.9 -8.45 0.9 -8.15 1.35 -8.1 1.45 M-13.0 1.0 L-12.9 1.3 -12.95 1.6 -13.3 1.65 -15.05 1.65 -15.4 1.6 -15.5 1.3 -15.35 1.0 -15.1 0.9 -13.25 0.9 -13.0 1.0 M-17.8 1.6 L-18.1 1.65 -19.85 1.65 -19.95 1.65 -20.15 1.6 -20.25 1.3 -20.15 1.0 -19.9 0.9 -18.05 0.9 -17.85 1.0 Q-17.7 1.1 -17.7 1.3 L-17.8 1.6 M-48.35 0.7 L-48.25 0.75 -48.15 0.9 -48.15 1.0 Q-48.15 1.55 -48.35 1.65 L-49.0 1.7 Q-49.45 1.7 -49.45 1.3 L-49.45 1.0 -49.45 0.9 -49.15 0.8 -48.7 0.7 -48.35 0.7 M-21.7 1.2 L-21.7 1.45 -21.65 2.0 -21.7 2.55 Q-21.7 2.85 -21.85 2.85 L-21.95 2.1 -21.9 1.25 -21.85 1.2 -21.85 1.15 -21.8 1.2 -21.7 1.2 M-47.9 1.9 L-47.9 1.95 -47.95 1.9 -47.9 1.9 M-56.05 2.8 L-56.0 2.8 -55.95 2.85 -56.0 2.85 -56.05 2.8" fill="#000000" fill-opacity="0.34117648" fill-rule="evenodd" stroke="none"/>
    </g>
    <g id="text0" transform="matrix(1.0, 0.0, 0.0, 1.0, -103.9, -1.35)">
      <g transform="matrix(1.0, 0.0, 0.0, 1.0, 57.3, 0.0)">
        <use fill="#ffffff" height="7.8" transform="matrix(0.0146, 0.0, 0.0, 0.0146, 47.0, 8.0)" width="61.85" xlink:href="#font_Visitor_TT2_BRK_d0"/>
        <use fill="#ffffff" height="7.8" transform="matrix(0.0146, 0.0, 0.0, 0.0146, 54.0, 8.0)" width="61.85" xlink:href="#font_Visitor_TT2_BRK_r0"/>
        <use fill="#ffffff" height="7.8" transform="matrix(0.0146, 0.0, 0.0, 0.0146, 61.0, 8.0)" width="61.85" xlink:href="#font_Visitor_TT2_BRK_a0"/>
        <use fill="#ffffff" height="7.8" transform="matrix(0.0146, 0.0, 0.0, 0.0146, 68.0, 8.0)" width="61.85" xlink:href="#font_Visitor_TT2_BRK_g0"/>
        <use fill="#ffffff" height="7.8" transform="matrix(0.0146, 0.0, 0.0, 0.0146, 75.0, 8.0)" width="61.85" xlink:href="#font_Visitor_TT2_BRK_u0"/>
        <use fill="#ffffff" height="7.8" transform="matrix(0.0146, 0.0, 0.0, 0.0146, 82.0, 8.0)" width="61.85" xlink:href="#font_Visitor_TT2_BRK_n0"/>
        <use fill="#ffffff" height="7.8" transform="matrix(0.0146, 0.0, 0.0, 0.0146, 89.0, 8.0)" width="61.85" xlink:href="#font_Visitor_TT2_BRK_o0"/>
        <use fill="#ffffff" height="7.8" transform="matrix(0.0146, 0.0, 0.0, 0.0146, 96.0, 8.0)" width="61.85" xlink:href="#font_Visitor_TT2_BRK_v0"/>
      </g>
    </g>
    <g id="font_Visitor_TT2_BRK_d0">
      <path d="M318.5 -79.0 L318.5 -79.0 318.5 -318.5 398.5 -318.5 398.5 -79.0 318.5 -79.0 318.5 0.0 0.0 0.0 0.0 -397.5 318.5 -397.5 318.5 -318.5 80.0 -318.5 80.0 -318.5 80.0 -79.0 318.5 -79.0" fill-rule="evenodd" stroke="none"/>
    </g>
    <g id="font_Visitor_TT2_BRK_r0">
      <path d="M318.5 -238.5 L318.5 -238.5 318.5 -318.5 80.0 -318.5 80.0 -238.5 318.5 -238.5 M0.0 -397.5 L0.0 -397.5 398.5 -397.5 398.5 -158.5 318.5 -158.5 318.5 -79.0 239.5 -79.0 239.5 -158.5 80.0 -158.5 80.0 0.0 0.0 0.0 0.0 -397.5 M398.5 0.0 L398.5 0.0 318.5 0.0 318.5 -79.0 398.5 -79.0 398.5 0.0" fill-rule="evenodd" stroke="none"/>
    </g>
    <g id="font_Visitor_TT2_BRK_a0">
      <path d="M318.5 -238.5 L318.5 -238.5 318.5 -318.5 80.0 -318.5 80.0 -238.5 318.5 -238.5 M0.0 -397.5 L0.0 -397.5 398.5 -397.5 398.5 0.0 318.5 0.0 318.5 -158.5 80.0 -158.5 80.0 0.0 0.0 0.0 0.0 -397.5" fill-rule="evenodd" stroke="none"/>
    </g>
    <g id="font_Visitor_TT2_BRK_g0">
      <path d="M0.0 -397.5 L0.0 -397.5 398.5 -397.5 398.5 -318.5 79.0 -318.5 79.0 -79.0 318.5 -79.0 318.5 -158.5 159.0 -158.5 159.0 -238.5 398.5 -238.5 398.5 0.0 0.0 0.0 0.0 -397.5" fill-rule="evenodd" stroke="none"/>
    </g>
    <g id="font_Visitor_TT2_BRK_u0">
      <path d="M318.5 -79.0 L318.5 -79.0 318.5 -397.5 398.5 -397.5 398.5 0.0 0.0 0.0 0.0 -397.5 80.0 -397.5 80.0 -79.0 318.5 -79.0" fill-rule="evenodd" stroke="none"/>
    </g>
    <g id="font_Visitor_TT2_BRK_n0">
      <path d="M0.0 -397.5 L0.0 -397.5 398.5 -397.5 398.5 0.0 318.5 0.0 318.5 -318.5 80.0 -318.5 80.0 0.0 0.0 0.0 0.0 -397.5" fill-rule="evenodd" stroke="none"/>
    </g>
    <g id="font_Visitor_TT2_BRK_o0">
      <path d="M318.5 -79.0 L318.5 -79.0 318.5 -318.5 80.0 -318.5 80.0 -79.0 318.5 -79.0 M0.0 -397.5 L0.0 -397.5 398.5 -397.5 398.5 0.0 0.0 0.0 0.0 -397.5" fill-rule="evenodd" stroke="none"/>
    </g>
    <g id="font_Visitor_TT2_BRK_v0">
      <path d="M239.0 -79.0 L239.0 -79.0 239.0 -159.0 319.0 -159.0 319.0 -79.0 239.0 -79.0 239.0 0.0 160.0 0.0 160.0 0.0 160.0 -79.0 239.0 -79.0 M80.0 -159.0 L80.0 -159.0 160.0 -159.0 159.5 -79.0 80.0 -79.0 80.0 -159.0 0.0 -159.0 0.0 -397.5 0.0 -397.5 80.0 -397.5 80.0 -159.0 M319.0 -159.0 L319.0 -159.0 319.0 -397.5 399.0 -397.5 399.0 -159.0 319.0 -159.0" fill-rule="evenodd" stroke="none"/>
    </g>
  </defs>
</svg>
