<?xml version="1.0" encoding="UTF-8" standalone="no"?>
<svg xmlns:xlink="http://www.w3.org/1999/xlink" height="9.5px" width="22.7px" xmlns="http://www.w3.org/2000/svg">
  <g transform="matrix(1.0, 0.0, 0.0, 1.0, 11.35, 4.75)">
    <use height="9.5" transform="matrix(1.0, 0.0, 0.0, 1.0, -11.35, -4.75)" width="22.7" xlink:href="#shape0"/>
  </g>
  <defs>
    <g id="shape0" transform="matrix(1.0, 0.0, 0.0, 1.0, 11.35, 4.75)">
      <path d="M-2.2 -4.35 Q-1.7 -4.0 -1.55 -3.5 L-1.45 -1.85 -1.45 4.6 -4.35 4.6 -4.35 -1.35 -4.4 -2.65 -4.65 -2.9 -4.9 -2.65 -4.95 -1.35 -4.95 4.6 -7.85 4.6 -7.85 -1.2 -7.9 -2.7 -8.15 -2.9 -8.35 -2.8 -8.45 -2.55 -8.45 -1.7 -8.45 4.6 -11.35 4.6 -11.35 -4.55 -8.4 -4.55 -8.45 -3.75 -7.9 -4.45 -6.85 -4.75 Q-5.7 -4.75 -5.15 -3.75 L-4.45 -4.45 -3.45 -4.75 Q-2.7 -4.75 -2.2 -4.35 M2.45 -4.55 L2.45 1.65 2.45 2.8 2.7 2.9 Q2.9 2.9 2.95 2.75 L2.95 1.55 2.95 -4.55 5.95 -4.55 5.95 4.6 2.9 4.6 2.95 3.95 2.5 4.5 1.45 4.75 0.4 4.55 -0.25 3.9 -0.5 3.15 -0.55 1.55 -0.55 -4.55 2.45 -4.55 M11.35 -4.55 L11.35 -2.45 9.35 2.55 11.35 2.55 11.35 4.6 6.45 4.6 6.45 2.55 8.45 -2.5 6.65 -2.5 6.65 -4.55 11.35 -4.55" fill="#000000" fill-rule="evenodd" stroke="none"/>
    </g>
  </defs>
</svg>
