<?xml version="1.0" encoding="UTF-8" standalone="no"?>
<svg xmlns:xlink="http://www.w3.org/1999/xlink" height="51.55px" width="106.75px" xmlns="http://www.w3.org/2000/svg">
  <g transform="matrix(1.0, 0.0, 0.0, 1.0, 0.0, 0.0)">
    <use height="51.55" transform="matrix(1.0, 0.0, 0.0, 1.0, 0.0, 0.0)" width="106.75" xlink:href="#shape0"/>
  </g>
  <defs>
    <g id="shape0" transform="matrix(1.0, 0.0, 0.0, 1.0, 0.0, 0.0)">
      <path d="M39.8 0.1 Q44.3 1.0 47.5 4.15 46.75 4.9 46.6 5.55 45.75 9.9 46.1 14.35 46.35 17.35 44.5 19.15 L43.05 20.65 37.55 26.15 Q36.75 26.9 36.45 27.65 34.2 33.4 39.7 32.25 L42.75 31.85 Q52.25 31.4 61.75 31.4 L67.5 31.45 68.1 32.9 Q71.9 41.4 78.55 41.4 84.45 41.4 87.0 36.65 88.45 34.0 88.55 31.15 92.15 30.5 95.7 29.3 100.9 27.55 105.5 30.15 L104.0 31.65 Q102.75 32.9 100.95 33.8 L98.6 34.65 Q95.1 35.35 97.65 38.5 98.75 39.9 100.1 40.9 L101.6 41.75 Q102.85 42.3 104.75 42.25 106.95 42.2 106.75 44.4 L104.7 45.1 Q100.65 45.95 98.9 48.5 L97.45 49.95 Q94.05 52.2 89.75 51.3 L71.75 47.3 71.05 47.15 Q65.0 39.1 62.8 37.4 56.3 34.25 42.4 42.4 40.9 43.25 39.55 44.2 36.4 43.4 33.55 41.75 L29.05 38.95 Q28.25 38.4 27.6 38.25 L18.8 37.0 17.7 36.95 Q15.95 39.9 11.8 40.15 L3.85 40.85 Q0.5 41.2 0.0 38.55 3.55 32.4 9.1 29.3 L9.3 29.2 10.6 29.8 Q11.8 30.4 12.85 30.55 20.95 31.75 28.7 30.15 29.75 29.9 30.2 29.1 32.5 24.9 31.9 19.4 31.75 17.9 32.35 16.65 34.1 12.9 33.8 8.4 33.75 7.4 34.15 6.6 L35.45 3.3 36.15 1.6 Q36.75 0.4 37.95 0.1 38.75 -0.1 39.8 0.1" fill="#990000" fill-rule="evenodd" stroke="none"/>
    </g>
  </defs>
</svg>
