<?xml version="1.0" encoding="UTF-8" standalone="no"?>
<svg xmlns:xlink="http://www.w3.org/1999/xlink" height="296.35px" width="279.3px" xmlns="http://www.w3.org/2000/svg">
  <g transform="matrix(1.0, 0.0, 0.0, 1.0, 127.45, 132.15)">
    <use height="164.2" transform="matrix(0.9783, 0.1772, -0.1772, 0.9783, 1.15, -28.85)" width="151.85" xlink:href="#sprite0"/>
  </g>
  <defs>
    <g id="sprite0" transform="matrix(1.0, 0.0, 0.0, 1.0, 0.0, 0.0)">
      <use height="164.2" transform="matrix(1.0, 0.0, 0.0, 1.0, 0.0, 0.0)" width="151.85" xlink:href="#shape0"/>
    </g>
    <g id="shape0" transform="matrix(1.0, 0.0, 0.0, 1.0, 0.0, 0.0)">
      <path d="M116.85 0.1 Q120.5 18.1 132.3 41.95 L137.8 52.55 Q137.1 56.7 137.1 66.15 L132.65 81.75 131.2 86.6 129.75 91.6 Q125.3 106.55 125.3 107.05 125.3 116.05 135.55 132.15 L144.3 145.4 Q149.35 153.2 151.85 158.3 L147.8 161.25 Q145.95 162.5 145.95 164.2 L131.2 164.2 Q104.2 139.5 81.9 128.85 59.9 118.4 37.0 116.95 19.05 115.8 0.6 120.2 L0.0 117.45 0.0 117.4 Q29.2 101.4 67.65 83.0 92.75 70.95 99.2 65.45 103.8 61.5 106.35 56.45 108.75 51.6 110.35 43.8 111.55 37.95 113.2 24.9 L116.45 0.0 116.85 0.1" fill="#cc0000" fill-opacity="0.85490197" fill-rule="evenodd" stroke="none"/>
    </g>
  </defs>
</svg>
