<?xml version="1.0" encoding="UTF-8" standalone="no"?>
<svg xmlns:xlink="http://www.w3.org/1999/xlink" height="116.4px" width="83.6px" xmlns="http://www.w3.org/2000/svg">
  <g transform="matrix(1.0, 0.0, 0.0, 1.0, 6.45, 39.95)">
    <use height="37.0" id="zonee" transform="matrix(1.0, 0.0, 0.0, 1.0, 0.0, 0.0)" width="77.15" xlink:href="#sprite0"/>
  </g>
  <defs>
    <g id="sprite0" transform="matrix(1.0, 0.0, 0.0, 1.0, 38.55, 18.5)">
      <use height="37.0" transform="matrix(1.0, 0.0, 0.0, 1.0, -38.55, -18.5)" width="77.15" xlink:href="#shape0"/>
    </g>
    <g id="shape0" transform="matrix(1.0, 0.0, 0.0, 1.0, 38.55, 18.5)">
      <path d="M-4.75 -18.5 L38.6 -18.5 38.6 8.35 -4.75 -18.5 M15.15 18.5 L-0.6 18.5 -38.55 -4.05 -38.55 -15.25 15.15 18.5" fill="#ffffff" fill-opacity="0.5137255" fill-rule="evenodd" stroke="none"/>
      <path d="M-4.75 -18.5 L38.6 8.35 38.6 18.5 15.15 18.5 -38.55 -15.25 -38.55 -18.5 -4.75 -18.5 M-0.6 18.5 L-38.55 18.5 -38.55 -4.05 -0.6 18.5" fill="#999999" fill-opacity="0.5137255" fill-rule="evenodd" stroke="none"/>
    </g>
  </defs>
</svg>
