<?xml version="1.0" encoding="UTF-8" standalone="no"?>
<svg xmlns:xlink="http://www.w3.org/1999/xlink" height="118.4px" width="380.1px" xmlns="http://www.w3.org/2000/svg">
  <g transform="matrix(1.0, 0.0, 0.0, 1.0, 149.1, 59.05)">
    <use height="67.4" transform="matrix(0.9969, 0.0749, -0.0749, 0.9969, -138.9111, -59.0336)" width="371.05" xlink:href="#sprite0"/>
    <use height="31.25" transform="matrix(0.7071, 0.7071, -0.7071, 0.7071, 54.2021, 17.5901)" width="27.8" xlink:href="#sprite1"/>
  </g>
  <defs>
    <g id="sprite0" transform="matrix(1.0, 0.0, 0.0, 1.0, 185.5, 33.7)">
      <use height="67.4" transform="matrix(1.0, 0.0, 0.0, 1.0, -185.5, -33.7)" width="371.05" xlink:href="#shape0"/>
    </g>
    <g id="shape0" transform="matrix(1.0, 0.0, 0.0, 1.0, 185.5, 33.7)">
      <path d="M-33.65 -3.75 L-36.55 -3.8 -39.1 -3.9 -40.55 -3.8 -43.3 -3.95 -45.6 -4.1 -51.95 -4.2 -55.2 -4.2 -56.65 -4.2 -67.5 -4.1 -69.0 -4.1 -69.15 -4.1 -69.3 -4.1 Q-69.15 -4.7 -69.8 -5.15 L-69.95 -5.15 Q-70.4 -5.55 -70.95 -5.55 L-71.55 -5.3 Q-71.75 -5.15 -72.0 -5.15 L-72.9 -5.4 -73.25 -5.7 -73.6 -6.0 -73.6 -6.25 -73.65 -6.1 -74.15 -6.9 -90.15 -6.9 -90.15 -6.0 -99.9 -6.0 -99.9 -7.05 -150.65 -7.05 -150.7 -6.8 -150.7 -6.4 -150.7 -5.7 -150.7 -3.15 -153.55 -3.15 -153.55 -5.0 Q-153.55 -5.85 -154.1 -6.35 -154.9 -7.05 -156.75 -7.05 L-159.45 -6.8 -161.65 -6.9 -161.9 -7.0 -162.05 -6.75 -162.05 -6.65 -162.15 -6.0 -163.55 -5.85 -172.85 -6.0 -181.0 -6.2 -182.25 -6.25 -182.65 -6.8 -183.05 -6.9 -183.45 -6.65 -183.55 -6.6 -183.75 -5.85 -184.55 -5.95 -184.8 -5.95 -185.5 -6.0 -185.5 -12.15 -183.6 -12.15 -183.55 -11.65 -183.2 -11.4 -182.65 -11.25 -182.4 -11.2 -182.35 -11.55 -182.25 -12.05 -164.5 -12.05 Q-164.35 -12.05 -164.35 -12.35 L-162.3 -12.35 -162.15 -11.8 -162.15 -11.55 -162.15 -11.5 -158.0 -11.55 -157.85 -23.6 Q-157.15 -23.3 -156.6 -22.75 -156.2 -22.45 -155.4 -22.45 L-154.3 -23.05 Q-153.65 -23.6 -152.95 -23.45 L-152.95 -17.1 -152.8 -17.1 -152.4 -15.85 -151.85 -14.75 -151.5 -14.45 Q-150.55 -12.85 -150.5 -11.55 L-150.5 -11.5 -99.85 -11.5 -99.6 -11.5 -98.3 -12.2 Q-98.15 -12.2 -98.1 -12.3 L-98.0 -12.3 -97.15 -12.5 -97.15 -12.75 -96.6 -13.0 -94.75 -14.1 -93.7 -15.45 -92.95 -16.65 Q-91.8 -18.05 -90.0 -17.6 L-87.95 -17.6 Q-87.2 -18.0 -86.75 -17.6 L-78.75 -17.6 -78.4 -17.6 -78.1 -17.35 -77.85 -17.2 -77.55 -17.1 -76.45 -17.2 Q-75.75 -17.3 -75.25 -16.8 L-69.85 -16.8 -69.55 -18.45 -2.9 -18.45 -2.7 -18.55 -1.45 -19.8 Q-0.75 -20.55 0.45 -20.55 L1.1 -20.55 2.9 -20.35 3.2 -20.35 5.75 -20.2 7.35 -20.15 7.5 -20.15 9.5 -20.15 9.9 -20.2 9.95 -20.2 10.35 -20.2 Q11.95 -21.15 12.8 -20.75 L13.55 -21.15 14.5 -20.85 Q14.95 -20.55 15.25 -20.55 L17.4 -20.7 17.5 -21.1 17.65 -21.55 Q18.6 -21.55 18.6 -21.1 L18.7 -19.65 16.6 -19.65 14.85 -19.8 14.7 -19.4 14.65 -18.85 14.0 -18.85 13.75 -18.85 13.75 -18.7 14.65 -18.8 14.7 -18.8 15.2 -18.85 16.2 -18.8 16.2 -17.45 53.55 -17.45 54.8 -16.65 56.25 -16.65 Q55.7 -17.1 55.7 -18.65 L55.85 -21.8 53.95 -21.55 52.7 -21.8 51.8 -21.9 51.8 -22.75 49.5 -22.85 43.75 -22.6 38.2 -22.25 38.0 -22.25 32.55 -21.95 27.15 -21.55 25.8 -21.55 25.5 -21.55 25.25 -21.55 24.0 -21.8 23.9 -21.55 23.6 -21.65 23.1 -22.05 Q22.5 -22.6 22.1 -23.7 L21.85 -25.7 21.85 -26.3 21.85 -26.65 Q21.85 -28.0 22.5 -30.05 23.3 -32.35 24.05 -32.5 L58.55 -32.5 58.8 -32.8 59.4 -33.6 60.85 -33.7 63.45 -33.6 64.35 -33.15 64.8 -32.65 64.8 -32.4 82.1 -32.6 82.1 -33.35 86.0 -33.35 86.0 -32.6 86.0 -32.25 91.15 -32.25 Q92.25 -32.25 94.05 -33.0 L95.15 -33.35 95.25 -33.45 95.75 -33.35 103.55 -33.35 103.55 -32.75 103.55 -32.6 Q104.5 -31.0 104.85 -29.65 L105.1 -27.9 Q105.1 -26.8 104.7 -25.9 L103.55 -24.25 103.55 -23.7 95.9 -23.7 Q95.75 -23.7 95.65 -23.8 L95.4 -23.85 93.05 -24.55 92.7 -22.1 92.7 -22.05 92.55 -19.5 92.5 -19.4 92.55 -19.4 92.7 -17.3 92.3 -16.9 95.95 -17.2 101.45 -17.3 Q104.6 -17.3 106.5 -13.8 L107.2 -12.3 107.2 -12.2 107.55 -11.35 Q108.8 -10.25 108.8 -8.9 L108.75 -7.85 108.8 -7.85 127.6 -6.9 127.25 -7.45 127.35 -7.55 127.35 -7.6 127.65 -8.55 127.65 -8.65 127.5 -10.0 127.45 -12.5 127.45 -13.3 Q127.9 -13.5 127.85 -13.85 127.9 -14.5 128.2 -14.6 L129.1 -15.05 129.8 -15.05 157.95 -13.15 158.75 -12.85 159.55 -11.75 159.55 -7.85 159.4 -7.3 159.2 -6.2 159.3 -5.3 159.3 -5.15 185.55 -3.55 Q184.9 1.2 184.5 6.0 183.45 17.85 183.65 30.5 L183.65 33.55 182.3 33.6 182.15 33.6 181.1 33.7 Q175.45 33.7 161.05 30.5 L148.35 27.5 129.65 22.9 Q123.25 21.3 121.25 21.7 119.35 22.1 118.5 22.45 117.75 22.75 117.2 24.55 L117.15 24.55 113.9 26.15 109.85 27.6 105.65 28.7 101.35 29.15 Q100.65 27.75 99.6 24.1 L97.8 18.15 Q97.45 17.6 97.15 15.75 L96.35 13.4 Q95.1 10.8 91.6 10.7 90.9 14.2 87.9 15.2 L80.75 15.6 Q77.35 15.2 75.9 14.45 74.55 13.55 74.1 11.65 L73.35 6.0 Q73.2 3.75 71.55 3.8 L71.3 3.8 70.45 3.55 70.1 3.65 69.25 3.8 68.6 3.95 68.05 4.05 67.05 3.75 66.1 3.35 64.2 3.65 61.9 3.9 61.65 3.65 61.65 10.15 59.35 10.15 59.35 10.25 59.25 10.4 59.2 10.8 Q59.2 11.65 60.0 12.9 L61.1 15.15 60.85 15.0 59.9 13.95 59.35 13.3 58.15 11.55 57.35 10.25 57.5 10.05 55.7 10.15 55.7 10.05 55.7 9.75 55.65 9.75 54.8 3.05 33.55 0.05 29.95 4.85 29.8 4.45 29.7 4.5 29.4 4.05 Q28.9 3.5 28.8 1.6 28.75 -0.15 28.05 -0.55 L24.85 -1.1 22.95 -1.1 22.65 -1.1 19.7 -0.95 17.35 -0.85 16.2 -0.8 15.75 -0.8 15.35 -0.8 15.35 -0.4 15.1 -0.4 14.3 -0.55 13.55 -0.8 12.65 -0.7 9.7 -0.4 9.0 -0.4 -5.65 -1.9 -7.1 -2.05 -7.7 -2.15 -13.9 -2.75 -14.0 -2.85 -21.1 -3.4 -28.8 -3.8 -30.8 -3.8 -33.65 -3.75 M-32.2 -14.6 L-32.7 -14.05 -32.7 -13.65 -32.7 -13.55 -32.05 -12.6 -31.35 -12.5 -25.85 -12.5 -24.85 -12.75 -24.6 -13.25 -24.75 -13.55 -25.7 -14.9 -31.6 -14.9 -32.15 -14.75 -32.2 -14.6 M19.95 -9.45 L19.8 -9.5 19.8 -9.45 19.95 -9.45 M175.7 3.35 L175.55 3.0 175.4 2.95 Q174.35 2.2 170.45 1.5 L170.4 1.5 169.7 19.0 170.4 19.25 171.2 19.35 Q175.25 19.35 176.2 15.45 L176.6 11.55 176.5 7.15 176.5 6.35 Q176.4 4.1 175.7 3.35 M76.6 -19.35 L74.95 -19.25 74.95 -21.55 71.0 -21.7 70.9 -21.9 70.85 -21.9 70.85 -21.8 71.0 -21.7 70.85 -19.65 70.85 -18.3 70.75 -17.35 71.3 -17.45 72.1 -17.35 72.35 -16.9 72.5 -16.8 77.1 -16.8 77.0 -18.45 77.1 -19.35 76.6 -19.35 M78.45 -17.6 L78.35 -16.8 83.9 -16.8 84.0 -16.9 84.0 -17.05 84.55 -17.6 84.7 -17.7 83.9 -17.85 78.45 -17.6 M168.2 1.25 L167.6 1.25 Q162.65 0.55 161.45 3.75 160.4 6.5 160.25 10.25 L160.15 10.8 Q160.0 14.75 161.75 16.9 163.4 19.0 165.55 19.0 L166.6 19.0 167.85 18.85 168.35 18.8 168.2 18.7 168.2 1.45 168.5 1.35 168.2 1.25 M145.1 1.25 Q145.5 1.9 145.5 2.4 L145.35 3.0 Q145.1 3.35 145.1 3.75 L144.3 3.75 Q144.1 3.4 143.35 3.35 L142.4 3.15 Q142.0 3.15 141.55 3.5 L140.75 3.75 140.45 3.35 140.35 2.75 140.6 1.65 140.75 1.35 140.85 1.05 140.9 0.95 Q141.2 0.65 141.4 0.65 L141.45 0.5 141.55 0.25 141.4 0.25 Q140.35 0.0 140.05 1.35 L139.9 1.9 Q139.5 2.85 138.6 2.95 137.75 3.0 136.95 2.4 L136.8 2.3 Q135.9 1.6 134.95 0.3 134.1 -0.85 132.35 -0.8 L128.45 -0.8 121.0 -1.45 113.65 -1.75 Q112.55 -1.6 111.35 -0.5 110.25 0.65 110.0 2.75 109.85 5.0 112.05 10.7 114.25 16.35 117.9 16.65 135.7 19.6 140.2 19.8 144.8 20.15 145.35 16.65 145.9 13.25 145.8 10.3 145.75 7.35 146.0 6.5 L146.15 5.95 146.2 4.2 146.15 2.15 Q146.15 1.5 145.65 1.2 L145.35 0.95 144.85 0.65 144.65 0.5 144.95 0.95 145.1 1.25 M-178.05 -8.9 L-178.3 -8.9 -178.05 -8.8 -177.9 -8.8 -178.05 -8.9 M-180.85 -9.75 L-181.0 -9.75 -181.0 -9.65 -180.85 -9.65 -180.85 -9.75 M30.5 -0.3 L30.55 -0.3 30.0 -0.4 30.5 -0.3 M84.45 3.9 L84.45 4.05 85.2 5.95 Q86.0 7.75 85.9 9.35 L85.65 11.25 84.05 12.75 84.05 12.35 84.65 10.7 84.95 8.55 Q84.95 7.45 83.5 5.8 L81.3 3.65 80.8 3.35 72.35 3.35 Q74.0 4.45 73.95 5.15 L74.0 8.0 74.4 10.85 Q74.95 12.85 76.55 14.05 78.2 15.15 80.45 15.15 L87.15 14.5 Q89.85 13.95 90.9 10.95 L90.9 10.7 90.95 9.9 91.15 9.05 Q91.15 8.1 90.25 6.4 L89.45 4.75 Q88.75 4.75 88.45 4.2 L87.95 3.1 87.9 3.1 87.7 3.1 86.6 3.35 85.5 3.25 85.4 3.1 85.25 3.15 Q84.55 3.25 84.45 3.9 M-157.15 -14.65 L-157.15 -13.7 Q-157.15 -12.35 -155.7 -12.35 L-153.55 -12.5 Q-152.95 -12.85 -152.95 -14.65 L-152.95 -14.9 -153.35 -15.45 -153.65 -15.6 -154.7 -15.55 -156.2 -15.3 -157.15 -15.0 -157.15 -14.65 M-153.65 -11.65 L-153.9 -11.65 -153.9 -11.55 -153.65 -11.65 M-152.05 -11.65 L-152.05 -11.8 -152.2 -11.75 -152.15 -11.65 -152.05 -11.65 M-155.7 -11.5 L-155.65 -11.55 -155.7 -11.65 -155.7 -11.5 M-91.9 -11.5 L-91.8 -11.5 -91.8 -11.65 -91.9 -11.5 M-62.35 -14.9 L-63.15 -14.65 -63.2 -14.6 -63.5 -13.65 -63.2 -12.75 -62.55 -12.5 -62.15 -12.5 -56.65 -12.5 -55.65 -12.75 Q-55.35 -13.0 -55.35 -13.65 -55.35 -14.35 -55.75 -14.6 L-56.55 -14.9 -62.35 -14.9 M-68.75 -13.85 L-68.9 -11.2 -68.65 -8.8 Q-68.2 -8.8 -68.1 -9.75 L-68.05 -11.5 -68.1 -13.15 -68.2 -14.05 -68.5 -14.05 -68.65 -14.1 -68.65 -14.05 -68.75 -13.85 M-47.05 -14.9 L-47.85 -14.6 Q-48.2 -14.35 -48.2 -13.65 L-47.9 -12.75 Q-47.6 -12.5 -46.9 -12.5 L-41.25 -12.5 Q-40.55 -12.5 -40.15 -12.75 -39.9 -13.0 -39.9 -13.65 -39.9 -14.35 -40.2 -14.6 L-41.1 -14.9 -47.05 -14.9" fill="#ffffff" fill-opacity="0.4117647" fill-rule="evenodd" stroke="none"/>
    </g>
    <g id="sprite1" transform="matrix(1.0, 0.0, 0.0, 1.0, 13.9, 15.6)">
      <use height="31.25" transform="matrix(1.0, 0.0, 0.0, 1.0, -13.9, -15.6)" width="27.8" xlink:href="#shape1"/>
    </g>
    <g id="shape1" transform="matrix(1.0, 0.0, 0.0, 1.0, 13.9, 15.6)">
      <path d="M13.7 -5.9 L13.65 -5.9 13.65 -5.65 13.65 -5.5 13.75 -5.4 13.75 -4.95 13.8 -4.65 13.9 -4.0 13.75 0.85 13.45 3.55 13.2 6.05 11.55 15.2 11.55 15.25 11.35 15.25 11.2 15.2 11.05 15.2 10.75 15.2 10.55 15.2 9.7 15.4 8.45 15.65 7.65 15.6 5.5 15.2 2.4 14.45 0.2 14.0 -3.4 13.1 -6.05 12.5 -8.75 11.95 -11.3 11.0 -13.35 10.25 -13.75 10.2 -13.85 9.95 -13.9 9.5 Q-13.9 9.1 -13.5 8.85 L-13.05 8.55 -12.9 8.45 -12.75 8.55 -12.65 8.45 -12.55 7.35 -12.0 3.55 -11.85 -0.65 -11.7 -3.85 -11.6 -6.0 -11.6 -6.55 Q-11.6 -9.3 -12.35 -10.65 L-12.35 -10.75 -12.15 -10.8 -12.0 -10.8 -8.4 -15.6 12.85 -12.6 13.7 -5.9" fill="#ffffff" fill-opacity="0.0" fill-rule="evenodd" stroke="none"/>
    </g>
  </defs>
</svg>
