<?xml version="1.0" encoding="UTF-8" standalone="no"?>
<svg xmlns:xlink="http://www.w3.org/1999/xlink" height="1034.2px" width="773.35px" xmlns="http://www.w3.org/2000/svg">
  <g transform="matrix(1.0, 0.0, 0.0, 1.0, 365.9, 551.4)">
    <use height="76.5" transform="matrix(1.0, 0.0, 0.0, 1.0, -174.0, -53.65)" width="242.75" xlink:href="#shape0"/>
  </g>
  <defs>
    <g id="shape0" transform="matrix(1.0, 0.0, 0.0, 1.0, 174.0, 53.65)">
      <path d="M-36.15 -52.65 L-37.0 -52.4 -37.65 -53.25 -36.65 -53.65 -36.15 -52.65" fill="#515151" fill-rule="evenodd" stroke="none"/>
      <path d="M-37.65 -53.25 L-37.0 -52.4 -36.15 -52.65 -46.65 -42.9 -47.4 -42.75 -47.9 -43.65 -37.65 -53.25 M2.25 -29.65 L-34.9 -35.5 -35.25 -35.65 -35.75 -35.5 -38.9 -36.25 -42.65 -36.75 -42.75 -36.9 -42.65 -37.75 -42.15 -38.0 -41.65 -37.9 -41.25 -37.9 2.25 -31.15 2.35 -30.75 2.25 -29.65 M-64.5 -28.0 L-55.75 -36.0 -54.5 -35.4 -62.15 -28.15 -64.5 -28.0 M-55.75 -36.5 L-57.15 -36.0 -58.0 -36.65 -56.65 -38.15 -52.9 -37.9 -55.75 -36.5 M-173.5 -48.75 L-174.0 -48.9 -173.9 -50.0 -173.4 -50.0 -173.5 -48.75 M-63.5 -40.15 L-76.5 -42.25 -76.5 -43.25 -75.9 -43.25 -50.15 -39.25 -50.25 -38.9 -50.5 -38.9 -51.65 -39.0 -51.9 -39.0 -53.0 -39.15 -53.25 -39.15 -54.25 -39.25 -54.75 -39.25 -55.75 -39.4 -56.15 -39.4 -57.15 -39.5 -57.5 -39.5 -58.5 -39.65 -58.9 -39.65 -59.9 -39.75 -60.25 -39.75 -62.75 -40.0 -62.9 -40.0 -63.5 -40.15 M-24.9 -22.55 Q-27.5 -24.95 -30.5 -23.25 L-31.0 -23.4 -32.4 -24.5 Q-29.3 -26.85 -24.9 -22.55 M-44.25 -42.5 L-44.15 -42.4 -45.5 -41.25 -46.0 -41.15 -46.15 -41.75 -44.25 -42.5 M-64.25 -26.0 L-64.15 -26.5 -61.75 -27.75 -59.25 -28.0 -57.25 -27.5 -56.15 -26.75 -57.25 -26.0 -57.5 -25.75 -57.9 -25.75 Q-60.5 -28.25 -64.25 -26.0" fill="#000000" fill-rule="evenodd" stroke="none"/>
      <path d="M-47.9 -43.65 L-47.4 -42.75 -46.65 -42.9 -46.5 -42.75 -46.15 -41.75 -46.0 -41.15 -49.25 -40.9 -50.15 -39.25 -52.4 -39.9 -52.5 -39.9 -47.9 -43.65 M-55.75 -36.0 L-55.75 -36.5 -52.9 -37.9 -50.25 -37.65 -50.15 -36.65 -49.65 -36.4 -46.75 -35.5 -46.9 -35.25 -47.5 -34.65 -49.15 -33.4 -48.9 -33.15 -49.15 -33.0 -50.4 -33.5 -50.15 -36.65 -50.5 -36.9 -50.65 -36.5 -50.75 -34.4 -51.0 -33.9 -54.5 -35.4 -55.75 -36.0 M-61.25 -11.0 L-64.65 -8.0 -64.0 -9.0 -63.75 -9.5 -61.25 -11.0" fill="#181818" fill-rule="evenodd" stroke="none"/>
      <path d="M-64.15 -40.15 L-63.5 -40.15 -62.9 -40.0 -64.15 -40.15 M-75.9 -43.25 L-72.75 -43.0 -52.5 -39.9 -52.4 -39.9 -50.15 -39.25 -75.9 -43.25 M-43.5 -8.5 L-42.4 -5.65 -42.0 -5.0 -41.4 -1.9 -42.5 -0.15 -44.25 -8.65 -43.5 -8.5 M-53.0 -39.15 L-51.9 -39.0 -52.9 -39.0 -53.0 -39.15 M-47.5 -34.65 L-46.9 -35.25 -46.75 -35.5 -46.4 -34.25 -47.15 -27.0 -48.65 -27.15 -48.15 -33.4 -48.25 -33.5 -47.5 -34.65 M-47.4 -8.9 L-45.15 -8.65 -46.15 -6.25 -47.15 -7.9 -47.5 -7.9 -47.65 -8.15 -47.65 -8.25 -47.4 -8.9 M-52.9 12.75 L-52.5 12.75 -45.9 13.5 -45.65 14.0 -46.0 14.0 -45.75 14.35 -46.15 14.5 -46.25 16.35 -45.75 16.5 -46.4 16.6 -46.4 17.0 -45.75 17.1 -46.15 17.1 -46.65 17.1 -54.0 16.5 -52.9 12.75" fill="#060606" fill-rule="evenodd" stroke="none"/>
      <path d="M-23.5 22.85 L-34.0 22.5 -47.25 21.25 -47.25 20.85 -46.5 20.85 -46.25 19.85 -46.9 19.5 -46.15 19.0 -46.65 19.0 -46.65 17.1 -46.15 17.1 -45.75 17.1 -38.4 17.75 -38.75 14.0 -30.25 14.1 -30.25 16.85 Q-27.4 19.85 -26.65 19.85 L-26.15 21.25 -25.0 21.85 -23.75 22.1 -23.5 22.85 M-56.65 -38.15 L-173.5 -48.75 -173.4 -50.0 -173.15 -50.0 -172.15 -49.9 -171.75 -49.9 -170.9 -49.75 -170.5 -49.75 -167.15 -49.4 -166.75 -49.4 -165.75 -49.25 -165.25 -49.25 -155.65 -48.4 -154.65 -48.25 -154.25 -48.25 -153.25 -48.15 -152.9 -48.15 -149.15 -47.75 -148.65 -47.75 -136.65 -46.65 -136.25 -46.65 -135.25 -46.5 -134.9 -46.5 -127.0 -45.75 -126.65 -45.75 -125.65 -45.65 -125.25 -45.65 -124.25 -45.5 -123.75 -45.5 -122.9 -45.4 -122.4 -45.4 -121.4 -45.25 -121.0 -45.25 -120.0 -45.15 -119.65 -45.15 -118.65 -45.0 -118.25 -45.0 -117.25 -44.9 -116.9 -44.9 -114.5 -44.65 -114.15 -44.65 -111.25 -44.4 -110.25 -44.25 -109.9 -44.25 -108.9 -44.15 -108.5 -44.15 -104.65 -43.75 -104.25 -43.75 -103.25 -43.65 -102.9 -43.65 -101.9 -43.5 -101.5 -43.5 -99.15 -43.25 -98.65 -43.25 -97.75 -43.15 -97.25 -43.15 -96.4 -43.0 -96.0 -43.0 -95.0 -42.9 -94.65 -42.9 -86.65 -42.15 -86.25 -42.15 -85.25 -42.0 -84.9 -42.0 -83.9 -41.9 -83.5 -41.9 -82.5 -41.75 -82.15 -41.75 -81.15 -41.65 -80.75 -41.65 -75.65 -41.15 -75.25 -41.15 -74.25 -41.0 -73.75 -41.0 -72.9 -40.9 -72.4 -40.9 -71.5 -40.75 -71.0 -40.75 -70.15 -40.65 -69.65 -40.65 -68.75 -40.5 -68.25 -40.5 -67.25 -40.4 -66.9 -40.4 -65.9 -40.25 -65.5 -40.25 -64.5 -40.15 -64.15 -40.15 -62.9 -40.0 -62.75 -40.0 -60.25 -39.75 -59.9 -39.75 -58.9 -39.65 -58.5 -39.65 -57.5 -39.5 -57.15 -39.5 -56.15 -39.4 -55.75 -39.4 -54.75 -39.25 -54.25 -39.25 -53.25 -39.15 -53.0 -39.15 -52.9 -39.0 -51.9 -39.0 -51.65 -39.0 -50.5 -38.9 -50.25 -38.9 -49.5 -38.75 -48.75 -38.75 -47.4 -38.65 -47.9 -38.5 -47.75 -38.25 -46.9 -37.9 -46.75 -37.4 -49.0 -37.5 -49.75 -37.65 -50.25 -37.65 -52.9 -37.9 -56.65 -38.15 M-35.4 -37.5 L-34.9 -37.5 -33.9 -37.4 -33.5 -37.4 -32.5 -37.25 -32.15 -37.25 -31.25 -37.15 -30.75 -37.15 -29.75 -37.0 -29.4 -37.0 -28.4 -36.9 -28.0 -36.9 -27.5 -36.75 -26.9 -36.75 -27.15 -36.0 -35.5 -37.25 -35.4 -37.5 M-36.4 -7.9 L-35.5 -3.15 -35.5 -1.15 -34.0 2.5 -34.25 2.85 -39.15 3.5 -42.0 3.35 -42.5 -0.15 -41.4 -1.9 -42.0 -5.0 -42.4 -5.65 -43.5 -8.5 -36.4 -7.9 M-22.75 -0.75 L-22.5 -0.15 -22.5 5.85 -22.75 5.35 -22.75 -0.75 M-46.15 17.1 L-46.4 17.35 -45.9 17.35 -46.15 17.1 M-60.75 4.25 L-60.9 4.5 -67.25 7.6 -68.0 8.25 -67.75 3.25 -60.75 4.25" fill="#050505" fill-rule="evenodd" stroke="none"/>
      <path d="M-46.65 -42.9 L-44.9 -43.65 -44.25 -43.25 -44.0 -42.9 -44.25 -42.5 -46.15 -41.75 -46.5 -42.75 -46.65 -42.9" fill="#444444" fill-rule="evenodd" stroke="none"/>
      <path d="M-40.0 -40.9 L-40.5 -40.75 -43.4 -41.15 -44.25 -41.4 -44.4 -41.4 -44.15 -42.4 -44.25 -42.5 Q-40.5 -45.15 -40.0 -40.9 M-24.9 -22.55 L-24.75 -22.4 Q-18.25 -15.4 -27.4 -12.4 L-28.25 -12.5 -28.5 -12.5 -28.75 -12.65 -28.75 -13.0 -27.75 -12.9 -26.0 -13.15 -24.5 -13.9 -23.25 -15.4 -22.75 -17.0 -23.0 -18.9 -23.9 -20.4 -25.25 -21.5 -26.9 -22.15 -28.65 -22.0 -29.75 -21.5 -30.25 -22.15 -29.75 -22.65 -30.5 -23.25 Q-27.5 -24.95 -24.9 -22.55" fill="#545454" fill-rule="evenodd" stroke="none"/>
      <path d="M-44.4 -41.4 L-44.25 -41.4 -43.4 -41.15 -44.5 -39.25 Q-45.0 -37.15 -44.5 -35.75 L-46.75 -35.5 -49.65 -36.4 -49.0 -37.5 -46.75 -37.4 -46.9 -37.9 -47.75 -38.25 -47.9 -38.5 -47.4 -38.65 -48.75 -38.75 -48.75 -40.15 -49.25 -40.9 -46.0 -41.15 -45.5 -41.25 -44.4 -41.4 M-57.9 -25.75 L-57.5 -25.75 -57.25 -25.9 -56.65 -24.65 -59.25 -21.15 -60.4 -14.9 -60.9 -15.15 -61.15 -15.5 -60.75 -16.0 -60.9 -18.75 -60.0 -19.75 -60.0 -21.15 -60.65 -22.25 -60.9 -22.4 -60.25 -23.5 -59.65 -24.25 -58.4 -24.15 -57.65 -24.5 -58.25 -25.25 -57.9 -25.65 -57.9 -25.75" fill="#232323" fill-rule="evenodd" stroke="none"/>
      <path d="M-69.0 -1.65 L-69.0 -2.0 -68.9 -2.0 -68.9 -1.65 -69.0 -1.65 M-68.9 -2.4 L-68.9 -2.5 -68.75 -2.5 -68.9 -2.4 M-40.5 -40.75 L-39.75 -39.75 Q-43.15 -40.0 -42.65 -37.75 L-42.75 -36.9 -42.65 -36.75 -41.65 -35.5 -40.4 -35.4 -40.75 -35.0 -42.25 -34.9 -44.5 -35.75 Q-45.0 -37.15 -44.5 -39.25 L-43.4 -41.15 -40.5 -40.75" fill="#1e1e1e" fill-rule="evenodd" stroke="none"/>
      <path d="M-34.9 -35.5 L-35.65 -25.75 -35.9 -23.9 -36.25 -24.15 -36.25 -25.0 -35.4 -35.25 -35.25 -35.65 -34.9 -35.5 M-44.5 -35.75 L-42.25 -34.9 -40.75 -35.0 -40.4 -35.4 -39.9 -35.4 -39.5 -34.9 -40.4 -26.25 -40.4 -25.25 -43.75 -25.25 -47.15 -25.9 -47.4 -26.65 -47.15 -27.0 -46.4 -34.25 -46.75 -35.5 -44.5 -35.75" fill="#101010" fill-rule="evenodd" stroke="none"/>
      <path d="M-34.25 2.85 L-34.0 2.5 -35.5 -1.15 -35.5 -3.15 -36.4 -7.9 -32.15 -7.5 -27.65 -8.4 -27.25 -7.9 -24.65 -4.15 -24.25 -3.25 -24.25 -2.25 -27.15 2.0 -34.25 2.85 M-23.15 -1.65 L-22.9 -1.0 -22.9 2.0 -23.15 5.0 -23.15 2.0 -22.9 2.0 -23.15 0.85 -23.15 -1.65 M-23.5 -2.25 L-23.25 -1.9 -23.25 -0.15 -23.5 -2.25 M-49.25 -40.9 L-48.75 -40.15 -48.75 -38.75 -49.5 -38.75 -50.25 -38.9 -50.15 -39.25 -49.25 -40.9 M-49.0 -37.5 L-49.65 -36.4 -50.15 -36.65 -50.25 -37.65 -49.75 -37.65 -49.0 -37.5 M-52.9 12.75 L-54.0 16.5 -46.65 17.1 -46.65 19.0 -46.15 19.0 -46.9 19.5 -46.25 19.85 -46.5 20.85 -47.25 20.85 -54.5 20.25 -68.9 18.1 -68.65 13.85 -66.65 16.5 -61.75 14.0 -61.5 11.5 -52.9 12.75 M-46.15 17.1 L-45.9 17.35 -46.4 17.35 -46.15 17.1" fill="#020202" fill-rule="evenodd" stroke="none"/>
      <path d="M-35.5 -37.25 L-36.25 -37.25 -37.65 -37.5 -37.9 -37.5 -38.65 -37.65 -38.75 -39.15 -39.75 -39.75 -40.5 -40.75 -40.0 -40.9 -35.65 -39.5 -35.4 -37.5 -35.5 -37.25 M-38.9 -36.25 L-35.75 -35.5 -36.25 -35.15 -39.5 -34.9 -39.9 -35.4 -39.0 -35.75 -38.9 -36.25" fill="#494949" fill-rule="evenodd" stroke="none"/>
      <path d="M-26.9 -36.75 L-26.65 -36.75 -24.15 -36.5 -23.65 -36.5 -21.4 -36.25 -21.0 -36.25 -20.0 -36.15 -19.65 -36.15 -18.65 -36.0 -18.25 -36.0 -17.25 -35.9 -16.9 -35.9 -15.9 -35.75 -15.4 -35.75 -14.5 -35.65 -14.0 -35.65 -13.15 -35.5 -12.65 -35.5 -11.65 -35.4 -11.15 -35.4 -10.25 -35.25 -9.75 -35.25 -8.9 -35.15 -8.4 -35.15 -7.5 -35.0 -7.15 -35.0 -6.15 -34.9 -5.75 -34.9 -4.75 -34.75 -4.4 -34.75 -3.4 -34.65 -3.0 -34.65 -2.0 -34.5 -1.65 -34.5 -0.65 -34.4 -0.25 -34.4 0.75 -34.25 1.25 -34.25 2.25 -34.15 2.6 -34.15 3.6 -34.0 4.0 -34.0 5.0 -33.9 5.35 -33.9 6.35 -33.75 6.75 -33.75 7.75 -33.65 8.1 -33.65 9.1 -33.5 9.5 -33.5 10.5 -33.4 10.85 -33.4 11.85 -33.25 12.25 -33.25 13.25 -33.15 13.75 -33.15 14.75 -33.0 15.1 -33.0 16.1 -32.9 16.5 -32.9 17.5 -32.75 17.85 -32.75 18.85 -32.65 19.25 -32.65 20.25 -32.5 20.6 -32.5 21.6 -32.4 22.0 -32.4 23.0 -32.25 23.35 -32.25 24.35 -32.15 24.75 -32.15 25.75 -32.0 26.25 -32.0 27.1 -31.9 27.6 -31.9 28.6 -31.75 29.0 -31.75 30.0 -31.65 30.35 -31.65 31.35 -31.5 31.85 -31.5 32.75 -31.4 33.25 -31.4 34.1 -31.25 34.5 -31.25 35.5 -31.15 35.85 -31.15 36.85 -31.0 37.25 -31.0 38.25 -30.9 38.75 -30.9 39.6 -30.75 40.1 -30.75 41.0 -30.65 41.5 -30.65 42.5 -30.5 42.85 -30.5 43.85 -30.4 44.25 -30.4 45.25 -30.25 45.6 -30.25 46.6 -30.15 47.0 -30.15 48.0 -30.0 48.35 -30.0 49.35 -29.9 49.75 -29.9 50.75 -29.75 51.25 -29.75 52.1 -29.65 52.6 -29.65 53.5 -29.5 54.0 -29.5 54.85 -29.4 55.35 -29.4 56.35 -29.25 56.75 -29.25 57.75 -29.15 58.1 -29.15 59.1 -29.0 59.5 -29.0 60.35 -28.9 60.85 -28.9 61.75 -28.75 62.1 -28.75 63.0 -28.65 63.5 -28.65 64.25 -28.5 64.85 -28.5 65.5 -28.4 66.1 -28.4 66.75 -28.25 67.35 -28.25 68.75 -27.9 68.6 -27.0 67.6 -27.0 -19.75 -34.9 -20.15 -34.9 -27.15 -36.0 -26.9 -36.75 M-28.65 -22.0 L-26.9 -22.15 -25.25 -21.5 -23.9 -20.4 -23.0 -18.9 -22.75 -17.0 -23.25 -15.4 -23.9 -15.65 -25.75 -16.75 -25.75 -17.5 -26.0 -18.15 -26.15 -18.25 -26.4 -18.5 -26.5 -18.9 -26.9 -19.15 -27.0 -19.15 -27.25 -19.25 -27.9 -19.25 -28.0 -21.15 -28.5 -21.4 -28.65 -22.0 M-58.4 -24.15 L-59.65 -24.25 -60.25 -23.5 -60.9 -22.4 -61.15 -22.5 -61.4 -22.4 -61.65 -22.4 -61.75 -22.75 -62.4 -24.0 -62.65 -25.15 -60.9 -25.25 -59.25 -24.75 -58.4 -24.15" fill="#080808" fill-rule="evenodd" stroke="none"/>
      <path d="M-19.75 -34.9 L7.75 -30.4 2.35 -30.75 2.25 -31.15 -41.25 -37.9 -38.9 -37.65 -38.65 -37.65 -37.9 -37.5 -37.65 -37.5 -36.25 -37.25 -35.5 -37.25 -27.15 -36.0 -20.15 -34.9 -19.75 -34.9 M-74.9 -13.0 L-78.15 -13.9 -78.4 -14.15 -78.4 -14.25 -78.15 -14.5 -73.65 -14.75 -72.75 -14.75 -72.15 -14.65 -64.9 -14.0 -67.0 -11.9 -74.5 -13.0 -74.9 -13.0 M-56.25 -9.75 L-51.0 -9.15 -53.4 -5.75 -54.5 -3.25 -53.75 -1.15 -53.75 1.6 -60.0 -0.4 -58.5 -3.0 -56.25 -9.75" fill="#1d1d1d" fill-rule="evenodd" stroke="none"/>
      <path d="M-39.75 -39.75 L-38.75 -39.15 -38.65 -37.65 -38.9 -37.65 -41.25 -37.9 -41.65 -37.9 -42.15 -38.0 -42.65 -37.75 Q-43.15 -40.0 -39.75 -39.75 M-42.65 -36.75 L-38.9 -36.25 -39.0 -35.75 -39.9 -35.4 -40.4 -35.4 -41.65 -35.5 -42.65 -36.75" fill="#202020" fill-rule="evenodd" stroke="none"/>
      <path d="M7.75 -30.4 L7.6 -28.9 Q2.6 -29.0 2.25 -29.65 L2.35 -30.75 7.75 -30.4" fill="#030303" fill-rule="evenodd" stroke="none"/>
      <path d="M-35.75 -35.5 L-35.25 -35.65 -35.4 -35.25 -36.25 -25.0 -36.65 -25.15 -36.5 -25.9 -35.75 -35.5 M-51.0 -33.9 L-50.75 -34.4 -50.65 -36.5 -50.5 -36.9 -50.15 -36.65 -50.4 -33.5 -51.0 -27.25 -51.15 -25.5 -51.5 -25.4 -51.5 -27.4 -50.9 -33.75 -51.0 -33.9" fill="#111111" fill-rule="evenodd" stroke="none"/>
      <path d="M-51.5 -27.4 L-51.5 -25.4 -51.15 -25.5 -51.0 -27.25 -48.65 -27.15 -47.15 -27.0 -47.4 -26.65 -47.15 -25.9 -43.75 -25.25 -43.75 -24.75 -56.65 -24.65 -57.25 -25.9 -57.25 -26.0 -56.15 -26.75 -54.9 -27.15 -54.9 -27.25 -51.5 -27.4" fill="#5a5a5a" fill-rule="evenodd" stroke="none"/>
      <path d="M-35.65 -25.75 L-33.65 -25.25 -32.4 -24.5 -31.0 -23.4 -30.75 -22.65 -31.0 -22.25 -37.25 -23.75 -43.75 -24.75 -43.75 -25.25 -40.4 -25.25 -40.4 -26.25 -36.5 -25.9 -36.65 -25.15 -36.25 -25.0 -36.25 -24.15 -35.9 -23.9 -35.65 -25.75" fill="#6c6c6c" fill-rule="evenodd" stroke="none"/>
      <path d="M-49.15 -33.0 L-48.9 -33.15 -49.15 -33.4 -47.5 -34.65 -48.25 -33.5 -49.15 -33.0 M-60.9 4.5 L-61.65 7.6 -61.5 11.5 -61.75 14.0 -66.65 16.5 -68.65 13.85 -68.15 8.5 -68.0 8.25 -67.25 7.6 -60.9 4.5" fill="#040404" fill-rule="evenodd" stroke="none"/>
      <path d="M-65.8 -15.15 Q-66.85 -15.3 -69.0 -19.5 L-69.4 -23.25 -68.4 -27.15 -66.65 -27.4 -64.5 -28.0 -62.15 -28.15 -59.25 -28.4 -54.9 -27.25 -54.9 -27.15 -56.15 -26.75 -57.25 -27.5 -59.25 -28.0 -61.75 -27.75 -64.15 -26.5 -64.25 -26.0 Q-70.25 -20.5 -63.0 -15.65 L-64.65 -14.4 -65.75 -15.15 -65.8 -15.15 M-61.65 -22.4 L-61.4 -22.4 -61.15 -22.5 -60.9 -22.4 -60.65 -22.25 -60.0 -21.15 -61.25 -22.0 -61.75 -22.0 -62.0 -21.9 -62.25 -21.75 -62.5 -21.65 -62.65 -21.65 -62.25 -22.15 -61.65 -22.4 M-45.75 17.1 L-46.4 17.0 -46.4 16.6 -45.75 16.5 -46.25 16.35 -46.15 14.5 -45.75 14.35 -46.0 14.0 -45.65 14.0 -45.9 13.5 -39.15 13.85 -38.75 14.0 -38.4 17.75 -45.75 17.1" fill="#0a0a0a" fill-rule="evenodd" stroke="none"/>
      <path d="M-76.65 -16.0 L-65.8 -15.15 -65.75 -15.15 -64.65 -14.4 -64.9 -14.0 -72.15 -14.65 -72.75 -14.75 -73.65 -14.75 -75.75 -15.0 -75.65 -15.25 -76.75 -15.65 -76.65 -16.0" fill="#363636" fill-rule="evenodd" stroke="none"/>
      <path d="M-22.0 2.7 L-22.15 6.25 -22.25 6.4 -22.75 7.0 -23.65 7.1 -23.15 5.0 -22.75 5.35 -22.5 5.85 -22.5 -0.15 -22.15 0.75 -22.0 2.7 M-75.9 -12.5 L-77.5 -12.75 -79.15 -14.0 -79.0 -15.15 -78.4 -15.65 -76.65 -16.0 -76.75 -15.65 -75.65 -15.25 -75.75 -15.0 -73.65 -14.75 -78.15 -14.5 -78.4 -14.25 -78.4 -14.15 -78.15 -13.9 -74.9 -13.0 -75.9 -12.5 M-60.0 -21.15 L-60.0 -19.75 -60.9 -18.75 -61.65 -19.0 -62.15 -19.15 -62.4 -19.25 -62.9 -19.75 -63.0 -20.25 -62.9 -21.0 -62.65 -21.65 -62.5 -21.65 -62.25 -21.75 -62.0 -21.9 -61.75 -22.0 -61.25 -22.0 -60.0 -21.15" fill="#151515" fill-rule="evenodd" stroke="none"/>
      <path d="M-19.25 -7.4 L-23.25 -7.75 -23.65 -8.15 -19.65 -8.0 -18.75 -7.9 -19.5 -7.75 -19.25 -7.4 M-66.9 -11.75 L-75.9 -12.5 -74.9 -13.0 -74.5 -13.0 -67.0 -11.9 -66.9 -11.75 M-29.75 -21.5 L-28.65 -22.0 -28.5 -21.4 -29.75 -21.5 M-65.65 -6.4 L-66.0 -6.5 -65.9 -6.75 -65.4 -7.5 -64.0 -9.0 -64.65 -8.0 -65.65 -6.4" fill="#0c0c0c" fill-rule="evenodd" stroke="none"/>
      <path d="M-30.5 -23.25 L-29.75 -22.65 -30.25 -22.15 -29.75 -21.5 -28.5 -21.4 -28.0 -21.15 -27.9 -19.25 -28.5 -18.4 -28.9 -17.65 -28.5 -16.25 -28.25 -15.65 -28.25 -15.25 -28.75 -13.0 -28.75 -12.65 -28.75 -12.5 -28.9 -12.25 -29.25 -12.0 -29.15 -18.5 -31.0 -22.25 -30.75 -22.65 -31.0 -23.4 -30.5 -23.25 M-64.25 -26.0 Q-60.5 -28.25 -57.9 -25.75 L-57.9 -25.65 -58.25 -25.25 -57.65 -24.5 -58.4 -24.15 -59.25 -24.75 -60.9 -25.25 -62.65 -25.15 -64.5 -24.25 -65.5 -22.9 -66.15 -21.15 -65.9 -19.25 -65.0 -17.65 -63.5 -16.5 -61.65 -16.0 -60.75 -16.0 -61.15 -15.5 -62.0 -15.5 -62.4 -15.65 -63.0 -15.65 Q-70.25 -20.5 -64.25 -26.0 M-45.25 7.75 L-45.25 6.75 -39.15 7.1 -38.25 7.35 -38.65 8.35 -45.25 7.75" fill="#414141" fill-rule="evenodd" stroke="none"/>
      <path d="M-57.5 -25.75 L-57.25 -26.0 -57.25 -25.9 -57.5 -25.75" fill="#0f0f0f" fill-rule="evenodd" stroke="none"/>
      <path d="M-26.4 -18.5 L-28.0 -18.65 -28.25 -18.5 -28.5 -18.4 -27.9 -19.25 -27.25 -19.25 -27.0 -19.15 -26.9 -19.15 -26.4 -18.5 M-62.65 -25.15 L-62.4 -24.0 -61.75 -22.75 -61.65 -22.4 -62.25 -22.15 -62.4 -22.4 -63.65 -23.4 -64.5 -24.25 -62.65 -25.15" fill="#0e0e0e" fill-rule="evenodd" stroke="none"/>
      <path d="M-62.25 -22.15 L-62.65 -21.65 -64.9 -22.5 -65.5 -22.9 -64.5 -24.25 -63.65 -23.4 -62.4 -22.4 -62.25 -22.15" fill="#1f1f1f" fill-rule="evenodd" stroke="none"/>
      <path d="M-30.25 14.1 L-29.5 10.5 -29.75 7.35 -24.75 11.1 -24.15 12.1 -24.65 17.75 -26.65 19.85 Q-27.4 19.85 -30.25 16.85 L-30.25 14.1 M-62.65 -21.65 L-62.9 -21.0 -66.15 -21.15 -65.5 -22.9 -64.9 -22.5 -62.65 -21.65" fill="#303030" fill-rule="evenodd" stroke="none"/>
      <path d="M-62.9 -21.0 L-63.0 -20.25 -65.4 -19.4 -65.9 -19.25 -66.15 -21.15 -62.9 -21.0" fill="#474747" fill-rule="evenodd" stroke="none"/>
      <path d="M-64.0 -18.4 L-65.0 -17.65 -65.9 -19.25 -65.4 -19.4 -62.9 -19.75 -64.0 -18.4" fill="#7c7c7c" fill-rule="evenodd" stroke="none"/>
      <path d="M-63.0 -20.25 L-62.9 -19.75 -65.4 -19.4 -63.0 -20.25" fill="#7d7d7d" fill-rule="evenodd" stroke="none"/>
      <path d="M-43.75 -24.75 L-43.65 -21.15 -44.5 -11.4 -50.15 -11.9 -50.75 -12.0 -50.9 -12.0 -53.5 -12.25 -54.15 -12.25 -54.75 -12.4 -55.0 -12.4 Q-57.25 -14.0 -60.0 -14.4 L-60.4 -14.9 -59.25 -21.15 -56.65 -24.65 -43.75 -24.75" fill="#3e3e3e" fill-rule="evenodd" stroke="none"/>
      <path d="M-60.9 -15.15 L-60.4 -14.9 -62.4 -14.9 -60.9 -15.15" fill="#2c2c2c" fill-rule="evenodd" stroke="none"/>
      <path d="M-61.15 -15.5 L-60.9 -15.15 -62.4 -14.9 -62.75 -14.75 -66.65 -12.0 -67.0 -11.9 -64.9 -14.0 -64.65 -14.4 -63.0 -15.65 -62.4 -15.65 -62.0 -15.5 -61.15 -15.5" fill="#3d3d3d" fill-rule="evenodd" stroke="none"/>
      <path d="M-25.15 -10.4 L-22.15 -10.15 -21.65 -10.0 -21.15 -10.0 -17.65 -9.25 -16.4 -8.65 -17.25 -8.15 -19.65 -8.0 -23.65 -8.15 -25.15 -10.4 M-60.9 -18.75 L-60.75 -16.0 -61.65 -16.0 -61.4 -18.0 -61.25 -18.4 -61.25 -18.5 -61.65 -19.0 -60.9 -18.75 M-51.0 -9.15 L-47.4 -8.9 -47.65 -8.25 -53.75 -1.15 -54.5 -3.25 -53.4 -5.75 -51.0 -9.15" fill="#404040" fill-rule="evenodd" stroke="none"/>
      <path d="M-33.65 -25.25 L-29.25 -25.65 -23.9 -24.15 -21.15 -22.75 Q-19.9 -14.0 -25.9 -11.4 L-26.5 -12.25 -27.4 -12.4 Q-18.25 -15.4 -24.75 -22.4 L-24.9 -22.55 Q-29.3 -26.85 -32.4 -24.5 L-33.65 -25.25 M-23.25 -15.4 L-24.5 -13.9 -26.4 -16.0 -26.15 -16.25 -25.75 -16.75 -23.9 -15.65 -23.25 -15.4" fill="#121212" fill-rule="evenodd" stroke="none"/>
      <path d="M-31.0 -22.25 L-29.15 -18.5 -29.25 -12.0 -29.15 -11.65 -29.5 -11.5 -34.25 -10.5 -34.9 -10.5 -35.65 -10.65 -36.0 -10.65 -37.0 -10.75 -38.4 -10.75 -39.65 -11.0 -44.5 -11.4 -43.65 -21.15 -43.75 -24.75 -37.25 -23.75 -31.0 -22.25" fill="#b1b1b1" fill-rule="evenodd" stroke="none"/>
      <path d="M-44.15 -10.75 L-50.0 -11.25 -50.15 -11.9 -44.5 -11.4 -44.15 -10.75" fill="#616161" fill-rule="evenodd" stroke="none"/>
      <path d="M-63.15 -13.25 L-55.0 -12.4 -54.75 -12.4 -54.15 -12.25 -53.5 -12.25 -50.9 -12.0 -50.75 -12.0 -50.15 -11.9 -50.0 -11.25 -44.15 -10.75 -44.25 -8.65 -45.15 -8.65 -47.4 -8.9 -51.0 -9.15 -56.25 -9.75 -60.9 -11.4 -62.4 -12.0 -63.15 -13.25" fill="#4e4e4e" fill-rule="evenodd" stroke="none"/>
      <path d="M-62.75 -14.75 L-62.4 -14.9 -60.4 -14.9 -60.0 -14.4 Q-57.25 -14.0 -55.0 -12.4 L-63.15 -13.25 -62.75 -14.75" fill="#373737" fill-rule="evenodd" stroke="none"/>
      <path d="M-68.9 -2.5 L-68.9 -3.0 -68.75 -2.5 -68.9 -2.5 M-67.5 -10.15 L-66.9 -11.75 -66.65 -12.0 -62.75 -14.75 -63.15 -13.25 -67.5 -10.15 M-26.4 -18.5 L-26.15 -18.25 -26.0 -18.15 -25.75 -17.5 -25.75 -16.75 -26.15 -16.25 -26.4 -16.0 -27.15 -15.75 -27.65 -15.75 -28.5 -16.25 -28.9 -17.65 -28.5 -18.4 -28.25 -18.5 -28.0 -18.65 -26.4 -18.5 M-45.9 13.5 L-52.5 12.75 -45.65 11.1 -45.9 13.5" fill="#161616" fill-rule="evenodd" stroke="none"/>
      <path d="M-26.9 -19.15 L-26.5 -18.9 -26.4 -18.5 -26.9 -19.15 M-46.15 -6.25 L-45.15 -8.65 -45.75 3.0 -49.4 2.6 -47.9 -1.5 -47.75 -1.75 -47.75 -2.0 -46.15 -6.25" fill="#252525" fill-rule="evenodd" stroke="none"/>
      <path d="M-62.9 -19.75 L-62.4 -19.25 -64.0 -18.4 -62.9 -19.75" fill="#a7a7a7" fill-rule="evenodd" stroke="none"/>
      <path d="M-62.4 -19.25 L-62.15 -19.15 -62.9 -17.5 -63.5 -16.5 -65.0 -17.65 -64.0 -18.4 -62.4 -19.25" fill="#a6a6a6" fill-rule="evenodd" stroke="none"/>
      <path d="M-62.15 -19.15 L-61.65 -19.0 -61.25 -18.5 -61.25 -18.4 -61.4 -18.0 -61.65 -16.0 -63.5 -16.5 -62.9 -17.5 -62.15 -19.15" fill="#7f7f7f" fill-rule="evenodd" stroke="none"/>
      <path d="M-28.5 -16.25 L-27.65 -15.75 -27.5 -15.5 -27.9 -14.75 -28.25 -15.25 -28.25 -15.65 -28.5 -16.25" fill="#8e8e8e" fill-rule="evenodd" stroke="none"/>
      <path d="M-27.75 -12.9 L-28.75 -13.0 -28.25 -15.25 -27.9 -14.75 -27.75 -12.9" fill="#8d8d8d" fill-rule="evenodd" stroke="none"/>
      <path d="M-23.25 -7.75 L-22.65 -6.65 -25.9 -9.9 -26.5 -11.0 -23.65 -8.15 -23.25 -7.75 M-28.75 -12.65 L-28.5 -12.5 -28.75 -12.5 -28.75 -12.65" fill="#2b2b2b" fill-rule="evenodd" stroke="none"/>
      <path d="M-28.5 -12.5 L-28.25 -12.5 -27.4 -12.4 -26.5 -12.25 -25.9 -11.4 -25.15 -10.4 -23.65 -8.15 -26.5 -11.0 -27.15 -11.75 -27.65 -11.75 -28.9 -12.25 -28.75 -12.5 -28.5 -12.5 M-44.5 -11.4 L-39.65 -11.0 -38.4 -10.75 -38.25 -10.25 -38.9 -10.25 -44.15 -10.75 -44.5 -11.4" fill="#656565" fill-rule="evenodd" stroke="none"/>
      <path d="M-29.25 -12.0 L-28.9 -12.25 -27.65 -11.75 -29.25 -12.0" fill="#3b3b3b" fill-rule="evenodd" stroke="none"/>
      <path d="M-24.5 -13.9 L-26.0 -13.15 -26.65 -14.5 -27.15 -15.75 -26.4 -16.0 -24.5 -13.9" fill="#242424" fill-rule="evenodd" stroke="none"/>
      <path d="M-27.65 -15.75 L-27.15 -15.75 -26.65 -14.5 -27.5 -15.5 -27.65 -15.75" fill="#4b4b4b" fill-rule="evenodd" stroke="none"/>
      <path d="M-26.0 -13.15 L-27.75 -12.9 -27.9 -14.75 -27.5 -15.5 -26.65 -14.5 -26.0 -13.15 M-42.5 -0.15 L-42.0 3.35 -45.15 3.1 -45.75 3.0 -45.15 -8.65 -44.25 -8.65 -42.5 -0.15" fill="#4a4a4a" fill-rule="evenodd" stroke="none"/>
      <path d="M-69.0 -1.25 L-69.0 -1.65 -68.9 -1.65 -68.9 -2.0 -69.0 -2.0 -68.9 -2.4 -68.75 -2.5 -68.9 -3.0 -68.65 -3.0 -68.65 -2.5 -68.9 -1.25 -69.0 -1.25 M-67.0 -11.9 L-66.65 -12.0 -66.9 -11.75 -67.0 -11.9" fill="#212121" fill-rule="evenodd" stroke="none"/>
      <path d="M-71.15 18.75 L-70.0 3.75 -69.0 -1.25 -68.9 -1.25 -68.9 0.75 -69.25 2.25 -68.9 2.5 -67.75 3.25 -68.0 8.25 -68.15 8.5 -68.65 13.85 -68.9 18.1 -70.4 18.1 -71.15 18.75 M-68.9 -3.0 L-67.5 -10.15 -63.15 -13.25 -62.4 -12.0 -60.9 -11.4 -61.25 -11.0 -63.75 -9.5 -64.0 -9.0 -65.4 -7.5 -65.9 -6.75 -66.0 -6.5 -68.65 -3.0 -68.9 -3.0 M-26.65 19.85 L-24.65 17.75 -25.0 21.85 -26.15 21.25 -26.65 19.85" fill="#0b0b0b" fill-rule="evenodd" stroke="none"/>
      <path d="M-68.9 -1.25 L-68.65 -2.5 -68.65 -3.0 -66.0 -6.5 -65.65 -6.4 -67.15 -1.9 -67.75 3.25 -68.9 2.5 -68.9 0.75 -68.9 -1.25 M-60.9 -11.4 L-56.25 -9.75 -58.5 -3.0 -60.0 -0.4 -62.9 -1.15 -65.65 -6.4 -64.65 -8.0 -61.25 -11.0 -60.9 -11.4 M-45.65 11.1 L-39.15 13.85 -45.9 13.5 -45.65 11.1" fill="#1b1b1b" fill-rule="evenodd" stroke="none"/>
      <path d="M-34.25 -10.5 L-29.5 -11.5 -29.15 -11.65 -29.25 -12.0 -27.65 -11.75 -27.15 -11.75 -26.5 -11.0 -25.9 -9.9 -34.25 -10.5" fill="#454545" fill-rule="evenodd" stroke="none"/>
      <path d="M-38.4 -10.75 L-37.0 -10.75 -36.0 -10.65 -35.65 -10.65 -34.9 -10.5 -34.25 -10.5 -25.9 -9.9 -26.25 -8.75 -27.65 -8.4 -32.15 -7.5 -36.4 -7.9 -43.5 -8.5 -44.25 -8.65 -44.15 -10.75 -38.9 -10.25 -38.25 -10.25 -38.4 -10.75" fill="#6a6a6a" fill-rule="evenodd" stroke="none"/>
      <path d="M-25.9 -11.4 L-18.0 -10.65 -17.9 -10.25 -18.75 -9.9 -21.15 -10.0 -21.65 -10.0 -22.15 -10.15 -25.15 -10.4 -25.9 -11.4 M-48.0 -2.0 L-47.75 -2.0 -47.75 -1.75 -47.9 -1.5 -49.4 2.6 -51.0 2.5 -53.4 1.6 -48.0 -2.0" fill="#4c4c4c" fill-rule="evenodd" stroke="none"/>
      <path d="M-18.0 -10.65 Q-12.65 -8.0 -19.25 -7.4 L-19.5 -7.75 -18.75 -7.9 -19.65 -8.0 -17.25 -8.15 -16.4 -8.65 -17.65 -9.25 -21.15 -10.0 -18.75 -9.9 -17.9 -10.25 -18.0 -10.65" fill="#2d2d2d" fill-rule="evenodd" stroke="none"/>
      <path d="M-22.65 -6.65 L-21.9 -5.75 -21.9 1.25 -22.15 0.75 -22.5 -0.15 -22.75 -0.75 -22.9 -1.0 -23.15 -1.65 -23.25 -1.9 -23.5 -2.25 -23.5 -2.65 -24.0 -4.15 -24.4 -4.25 -25.65 -6.5 -27.25 -7.9 -27.65 -8.4 -26.25 -8.75 -25.9 -9.9 -22.65 -6.65" fill="#737373" fill-rule="evenodd" stroke="none"/>
      <path d="M-24.65 -4.15 L-27.25 -7.9 -25.65 -6.5 -24.4 -4.25 -24.65 -4.15 M-47.65 -8.25 L-47.65 -8.15 -47.5 -7.9 -48.0 -2.15 -48.0 -2.0 -53.4 1.6 -53.75 1.6 -53.75 -1.15 -47.65 -8.25" fill="#818181" fill-rule="evenodd" stroke="none"/>
      <path d="M-47.5 -7.9 L-47.15 -7.9 -46.15 -6.25 -47.75 -2.0 -48.0 -2.0 -47.9 -2.15 -48.0 -2.15 -47.5 -7.9" fill="#1a1a1a" fill-rule="evenodd" stroke="none"/>
      <path d="M-62.9 -1.15 L-60.0 -0.4 -53.75 1.6 -53.4 1.6 -51.0 2.5 -49.4 2.6 -45.75 3.0 -45.15 3.1 -45.15 5.85 -51.5 6.0 -52.25 6.1 -52.4 7.1 -52.0 7.25 -45.25 7.75 -45.5 8.6 -45.25 9.5 -45.65 11.1 -52.5 12.75 -52.9 12.75 -61.5 11.5 -61.65 7.6 -60.9 4.5 -60.75 4.25 -60.75 1.85 -62.9 -1.15" fill="#313131" fill-rule="evenodd" stroke="none"/>
      <path d="M-34.25 2.85 L-27.15 2.0 -29.75 4.6 -30.0 7.0 -29.75 7.35 -29.5 10.5 -30.25 14.1 -38.75 14.0 -39.15 13.85 -45.65 11.1 -45.25 9.5 -45.5 8.6 -45.25 7.75 -38.65 8.35 -38.25 7.35 -39.15 7.1 -45.15 5.85 -45.15 3.1 -42.0 3.35 -39.15 3.5 -34.25 2.85 M-24.25 -3.25 L-24.65 -4.15 -24.4 -4.25 -24.0 -4.15 -23.5 -2.65 -24.25 -3.25" fill="#757575" fill-rule="evenodd" stroke="none"/>
      <path d="M-27.15 2.0 L-24.25 -2.25 -24.0 -2.5 -23.5 -2.25 -23.25 -0.15 -23.15 0.85 -22.9 2.0 -23.15 2.0 -27.15 2.0" fill="#121912" fill-rule="evenodd" stroke="none"/>
      <path d="M-48.0 -2.0 L-48.0 -2.15 -47.9 -2.15 -48.0 -2.0" fill="#2a2a2a" fill-rule="evenodd" stroke="none"/>
      <path d="M-67.15 -1.9 L-65.65 -6.4 -62.9 -1.15 -67.15 -1.9" fill="#070a06" fill-rule="evenodd" stroke="none"/>
      <path d="M-67.75 3.25 L-67.15 -1.9 -62.9 -1.15 -60.75 1.85 -60.75 4.25 -67.75 3.25" fill="#0d0d0d" fill-rule="evenodd" stroke="none"/>
      <path d="M-27.15 2.0 L-23.15 2.0 -23.15 5.0 -23.65 7.1 -30.0 7.0 -29.75 4.6 -27.15 2.0" fill="#5d5d5d" fill-rule="evenodd" stroke="none"/>
      <path d="M-21.9 1.25 L-22.0 2.7 -22.15 0.75 -21.9 1.25" fill="#272727" fill-rule="evenodd" stroke="none"/>
      <path d="M-22.25 6.4 L-23.5 22.85 -23.75 22.1 -25.0 21.85 -24.65 17.75 -24.15 12.1 -23.65 7.1 -22.75 7.0 -22.25 6.4" fill="#1c1c1c" fill-rule="evenodd" stroke="none"/>
      <path d="M-51.5 6.0 L-45.15 5.85 -45.25 6.75 -51.5 6.0" fill="#4d4d4d" fill-rule="evenodd" stroke="none"/>
      <path d="M-45.25 7.75 L-52.0 7.25 -52.4 7.1 -52.25 6.1 -51.5 6.0 -45.25 6.75 -45.25 7.75" fill="#2e2e2e" fill-rule="evenodd" stroke="none"/>
      <path d="M-45.25 6.75 L-45.15 5.85 -39.15 7.1 -45.25 6.75" fill="#5c5c5c" fill-rule="evenodd" stroke="none"/>
      <path d="M-24.15 12.1 L-24.75 11.1 -29.75 7.35 -30.0 7.0 -23.65 7.1 -24.15 12.1" fill="#575757" fill-rule="evenodd" stroke="none"/>
      <path d="M-47.25 21.25 L-58.75 20.35 -71.15 18.75 -70.4 18.1 -68.9 18.1 -54.5 20.25 -47.25 20.85 -47.25 21.25" fill="#070707" fill-rule="evenodd" stroke="none"/>
      <path d="M-45.4 3.0 L-45.75 3.0 -49.4 2.6 -50.75 2.6 -51.15 2.5 -53.15 1.75 -53.25 1.75 -53.5 1.6 -53.75 1.6 -54.0 1.5 -54.15 1.5 -58.0 0.25 -59.65 -0.15 -60.15 -0.4 -60.9 -0.65 -62.65 -1.0 -62.75 -1.0 -63.0 -1.25 -63.75 -2.75 -63.9 -3.15 -65.4 -6.0 -65.65 -6.15 -65.65 -6.25 -65.25 -7.15 -64.5 -8.4 -64.4 -8.65 -61.0 -11.4 -60.75 -11.4 -60.4 -11.15 -59.9 -11.0 -57.4 -10.0 -56.25 -9.75 -56.0 -9.65 -54.75 -9.5 -53.75 -9.5 -53.4 -9.4 -51.9 -9.25 -51.4 -9.25 -51.0 -9.15 -50.25 -9.15 -47.9 -8.9 -47.4 -8.65 -47.0 -8.9 -45.15 -8.65 -44.75 -8.65 -44.75 -8.0 -44.75 -7.9 -44.65 -7.9 -44.75 -7.0 -44.9 -7.0 -44.9 -6.65 -44.9 -6.25 -44.75 -5.5 -44.9 -5.0 -45.0 -4.75 -44.9 -4.75 -44.9 -4.25 -45.0 -3.65 -45.0 -2.5 -45.15 -2.25 -45.15 -0.5 -45.25 -0.25 -45.4 3.0" fill="#060606" fill-opacity="0.50980395" fill-rule="evenodd" stroke="none"/>
      <path d="M-44.75 -8.65 L-44.4 -8.65 -44.5 -8.25 -44.65 -8.15 -44.75 -8.0 -44.65 -7.9 -44.75 -7.9 -44.75 -8.0 -44.75 -8.65 M-45.0 -2.15 L-45.0 -1.55 -45.15 -0.5 -45.15 -2.25 -45.0 -2.15 M-44.75 -7.0 L-44.9 -6.65 -44.9 -7.0 -44.75 -7.0 M-44.9 -5.0 L-44.9 -4.75 -45.0 -4.75 -44.9 -5.0 M-45.15 -0.5 L-45.15 1.35 -45.4 3.0 -45.25 -0.25 -45.15 -0.5" fill="#0f0f0f" fill-rule="evenodd" stroke="none"/>
      <path d="M-45.15 3.1 L-45.4 3.0 -45.15 1.35 -45.15 -0.5 -45.0 -1.55 -45.15 3.1 M-44.4 -8.65 L-44.25 -8.0 -45.0 -2.15 -45.15 -2.25 -45.0 -2.5 -45.0 -3.65 -44.9 -4.25 -44.9 -4.75 -44.9 -5.0 -44.75 -5.5 -44.9 -6.25 -44.9 -6.65 -44.75 -7.0 -44.65 -7.9 -44.75 -8.0 -44.65 -8.15 -44.5 -8.25 -44.4 -8.65" fill="#171717" fill-rule="evenodd" stroke="none"/>
      <path d="M-65.65 -6.15 L-65.9 -6.0 -67.15 -1.75 -67.25 -1.65 -67.75 3.25 -69.0 2.75 -69.25 2.5 -69.4 2.25 -69.25 1.85 -69.15 0.75 -69.25 0.1 -69.15 -1.15 -69.0 -1.9 -69.0 -2.15 -68.9 -2.5 -68.9 -2.9 -68.75 -3.4 -68.5 -3.4 -66.25 -6.75 -66.25 -6.65 -65.65 -6.25 -65.65 -6.15" fill="#000000" fill-opacity="0.50980395" fill-rule="evenodd" stroke="none"/>
      <path d="M-44.4 -8.65 L-44.15 -8.65 -43.5 -8.5 -43.0 -8.5 -40.0 -8.15 -39.0 -8.15 -38.5 -8.0 -32.25 -7.5 -31.9 -7.5 -27.75 -8.4 -27.65 -8.25 -27.4 -7.65 -27.15 -7.65 -26.9 -7.4 -25.4 -6.15 -24.4 -4.25 -24.65 -4.15 -24.25 -3.25 -24.25 -2.15 -25.5 -0.25 -25.65 -0.15 -26.75 1.5 -27.0 1.6 -27.15 2.0 -27.75 1.85 -28.0 2.1 -30.65 2.5 -31.0 2.5 -33.9 2.85 -34.25 2.85 -39.5 3.6 -44.65 3.1 -45.15 3.1 -45.0 -1.55 -45.0 -2.15 -44.25 -8.0 -44.4 -8.65" fill="#141414" fill-opacity="0.50980395" fill-rule="evenodd" stroke="none"/>
      <path d="M-24.25 -3.25 L-23.9 -2.5 -24.25 -2.15 -24.25 -3.25" fill="#282828" fill-opacity="0.50980395" fill-rule="evenodd" stroke="none"/>
      <path d="M-23.9 -2.5 L-23.5 -2.65 -23.5 -2.25 -23.9 -2.5 M-22.9 3.85 L-22.65 5.5 -22.9 5.35 -22.9 3.85" fill="#111111" fill-opacity="0.50980395" fill-rule="evenodd" stroke="none"/>
      <path d="M-23.5 -2.25 L-23.4 -2.15 -23.5 -1.75 -23.5 -2.25 M-23.15 -1.65 L-23.0 -1.25 -23.15 -0.9 -23.15 -1.65 M-22.75 -0.75 L-22.65 -0.25 -22.5 0.0 -21.9 1.25 -22.0 2.75 -21.9 3.6 -22.0 6.1 -22.4 6.35 -22.5 6.85 -23.65 7.1 -23.15 5.0 -22.9 5.35 -22.65 5.5 -22.9 3.85 -22.75 3.35 -22.75 -0.75 M-23.15 4.85 L-23.25 4.5 -23.15 3.85 -23.15 4.85 M-23.0 2.25 L-23.15 2.1 -23.0 2.0 -23.0 2.25 M-23.05 1.45 L-23.15 0.85 -23.15 0.75 -23.05 1.45 M-23.4 -0.75 L-23.5 -1.75 -23.4 -1.5 -23.4 -0.75 M-23.15 -0.9 L-23.0 -0.75 -23.15 0.75 -23.15 -0.9" fill="#080808" fill-opacity="0.50980395" fill-rule="evenodd" stroke="none"/>
      <path d="M-23.4 -2.15 L-23.25 -1.9 -23.15 -1.65 -23.15 -0.9 -23.0 -1.25 -22.9 -0.75 -22.75 -0.75 -22.75 3.35 -22.9 3.85 -22.9 5.35 -23.15 5.0 -23.15 4.85 -23.15 3.85 -23.15 3.5 -23.0 2.5 -23.0 2.25 -23.0 2.0 -23.05 1.45 -23.15 0.75 -23.15 0.85 -23.4 -0.75 -23.4 -1.5 -23.5 -1.75 -23.4 -2.15 M-23.15 -0.9 L-23.15 0.75 -23.0 -0.75 -23.15 -0.9" fill="#080808" fill-rule="evenodd" stroke="none"/>
    </g>
  </defs>
</svg>
