<?xml version="1.0" encoding="UTF-8" standalone="no"?>
<svg xmlns:xlink="http://www.w3.org/1999/xlink" height="1034.2px" width="773.35px" xmlns="http://www.w3.org/2000/svg">
  <g transform="matrix(1.0, 0.0, 0.0, 1.0, 365.9, 551.4)">
    <use height="74.0" transform="matrix(1.0, 0.0, 0.0, 1.0, -139.0, -51.5)" width="212.1" xlink:href="#shape0"/>
  </g>
  <defs>
    <g id="shape0" transform="matrix(1.0, 0.0, 0.0, 1.0, 139.0, 51.5)">
      <path d="M-26.0 -37.95 L16.0 -34.4 16.1 -34.4 18.35 -34.15 18.75 -34.15 19.5 -34.0 20.0 -34.0 20.35 -33.9 21.25 -33.9 22.1 -33.75 22.0 -32.75 21.1 -32.75 -14.15 -35.75 -14.65 -35.75 -15.15 -35.9 -29.5 -37.75 -30.4 -37.75 71.0 -24.15 72.25 -24.15 72.85 -24.15 73.1 -24.0 72.85 -22.75 -35.0 -37.0 -35.5 -37.15 -35.9 -37.15 -36.25 -37.25 -38.65 -37.5 -38.75 -37.65 -38.65 -38.75 -38.0 -38.75 -37.5 -38.65 -37.0 -38.65 -36.5 -38.5 -36.15 -38.5 -35.5 -38.4 -35.15 -38.4 -34.4 -38.25 -34.15 -38.25 -33.65 -38.15 -33.25 -38.15 -32.65 -38.0 -32.25 -38.0 -31.65 -37.9 -32.15 -38.0 -32.0 -38.4 -26.0 -37.95 M-55.0 -37.5 L-59.0 -34.15 -59.15 -34.15 -59.4 -33.9 -60.25 -33.25 -60.4 -33.25 -60.65 -33.0 -61.4 -33.4 -61.15 -33.65 -60.9 -33.75 -60.65 -34.0 -60.0 -34.4 -59.4 -34.9 -59.25 -34.9 -58.0 -35.75 -57.75 -36.0 -56.4 -36.9 -56.15 -37.15 -55.9 -37.25 -55.5 -37.5 -55.15 -37.9 -55.25 -37.65 -55.0 -37.5 M-62.0 -33.0 L-63.15 -32.25 -63.25 -32.0 -63.65 -31.9 -64.15 -31.5 -64.65 -31.25 -65.25 -32.0 -63.65 -33.4 -63.0 -32.5 -62.0 -33.0 M-135.0 -45.9 L-138.65 -46.25 -139.0 -46.4 -138.9 -47.75 -137.9 -47.75 -137.4 -47.65 -137.0 -47.65 -136.15 -47.5 -136.0 -47.5 -134.75 -47.25 -135.0 -45.9 M-73.15 -42.15 L-135.0 -50.5 -134.9 -51.5 -134.0 -51.5 -68.25 -42.75 -68.15 -42.75 -62.6 -42.0 -60.85 -41.8 -54.5 -40.9 -54.0 -40.9 -53.65 -40.75 -53.15 -40.75 -52.65 -40.65 -52.15 -40.65 -51.65 -40.5 -51.15 -40.5 -50.65 -40.4 -50.15 -40.4 -50.0 -40.15 -51.4 -40.25 -52.4 -40.25 -53.0 -40.4 -72.25 -42.0 -72.9 -42.15 -73.15 -42.15 M-49.65 -43.4 L-42.75 -49.0 -42.15 -48.15 -41.5 -48.4 -46.15 -44.65 -46.5 -44.25 -46.9 -44.0 -47.0 -44.0 -47.75 -43.4 -48.0 -43.15 Q-48.55 -42.8 -49.15 -42.5 L-49.65 -43.4 M-25.0 -23.0 Q-26.15 -24.5 -28.4 -24.75 L-31.5 -24.25 -31.75 -24.9 -32.9 -25.5 Q-28.4 -27.65 -25.0 -23.0 M-58.0 -27.4 L-58.0 -27.25 -58.4 -27.25 -60.15 -28.25 -62.0 -28.5 -64.9 -27.65 -64.75 -28.15 -62.4 -29.4 -59.65 -29.5 -57.75 -29.0 -56.65 -28.25 -57.9 -27.5 -58.0 -27.4" fill="#000000" fill-rule="evenodd" stroke="none"/>
      <path d="M-60.85 -41.8 L-55.5 -41.15 -54.5 -40.9 -60.85 -41.8 M-53.15 -40.75 L-53.0 -40.75 -52.65 -40.65 -53.15 -40.75 M-48.25 -9.65 L-46.15 -9.5 -47.0 -7.75 -47.75 -9.25 -48.15 -9.25 -48.25 -9.65 M-44.0 -2.4 L-44.65 -8.0 -45.25 -9.5 -44.0 -9.4 -42.9 -6.4 -42.75 -6.25 -42.15 -3.15 -43.15 -1.5 -44.0 -2.4" fill="#060606" fill-rule="evenodd" stroke="none"/>
      <path d="M-39.9 -50.15 L-37.65 -51.5 -36.9 -50.65 -37.15 -50.5 -37.4 -50.25 -37.65 -50.15 -46.15 -44.15 -46.25 -44.0 -46.5 -44.25 -46.15 -44.65 -41.5 -48.4 -41.4 -48.4 -41.15 -48.65 -39.65 -49.65 -39.9 -50.15" fill="#474747" fill-rule="evenodd" stroke="none"/>
      <path d="M-42.75 -49.0 L-40.65 -50.65 -39.9 -50.15 -39.65 -49.65 -41.15 -48.65 -41.4 -48.4 -41.5 -48.4 -42.15 -48.15 -42.75 -49.0" fill="#484848" fill-rule="evenodd" stroke="none"/>
      <path d="M-34.0 -26.25 L-29.65 -26.65 -24.4 -25.0 -21.4 -23.5 Q-20.65 -14.65 -26.0 -12.4 L-26.65 -12.25 -27.15 -13.0 -28.0 -13.15 Q-18.75 -16.5 -25.0 -23.0 -28.4 -27.65 -32.9 -25.5 L-34.0 -26.25 M-51.4 -35.5 L-55.0 -37.5 -55.25 -37.65 -55.15 -37.9 -54.0 -38.5 -54.15 -39.0 -50.0 -38.75 -49.65 -38.15 -49.4 -37.9 -49.15 -37.75 -48.5 -37.65 -47.25 -37.25 -47.0 -37.15 -46.9 -37.0 -47.0 -36.4 -48.25 -35.5 -48.5 -35.4 -49.25 -34.9 -49.5 -34.65 -50.0 -34.5 -50.9 -35.0 -50.5 -38.25 -50.9 -38.25 -51.4 -35.5 M-53.0 -40.75 L-49.65 -43.4 -49.15 -42.5 Q-48.55 -42.8 -48.0 -43.15 L-47.75 -43.4 -47.0 -44.0 -46.9 -44.0 -46.5 -44.25 -46.25 -44.0 -45.9 -42.5 -49.15 -42.0 -49.4 -41.75 -49.9 -40.75 -50.15 -40.4 -50.65 -40.4 -51.15 -40.5 -51.65 -40.5 -52.15 -40.65 -52.65 -40.65 -53.0 -40.75 M-23.9 -16.0 L-25.15 -14.65 -27.0 -16.75 -26.75 -17.0 -26.4 -17.5 -24.4 -16.25 -23.9 -16.0" fill="#131313" fill-rule="evenodd" stroke="none"/>
      <path d="M-14.15 -35.75 L72.25 -24.15 71.0 -24.15 -30.4 -37.75 -29.5 -37.75 -15.15 -35.9 -14.65 -35.75 -14.15 -35.75 M-23.0 2.35 L-24.9 22.5 -25.15 22.0 -26.5 21.6 -26.0 17.5 -25.4 11.75 -24.65 7.85 -24.75 6.85 -23.5 6.25 -23.0 2.35 M-32.15 -38.0 L-31.65 -37.9 -32.25 -38.0 -32.15 -38.0 M-35.5 -38.4 L-36.15 -38.5 -36.0 -38.5 -35.5 -38.4 M-57.75 -27.4 L-58.0 -27.4 -57.9 -27.5 -57.75 -27.4 M-70.15 -2.9 L-70.0 -3.4 -70.0 -3.5 -69.9 -4.0 -69.9 -4.5 -69.75 -4.75 -67.4 -8.0 -67.25 -7.9 -67.0 -7.65 -68.5 -3.15 -69.25 2.0 -70.15 1.5 -70.25 -2.15 -70.15 -2.65 -70.15 -2.9 M-62.0 -12.65 L-57.25 -10.75 -59.4 -5.5 -59.5 -4.4 -61.4 -1.5 -64.25 -2.25 -67.0 -7.65 -65.9 -9.25 -62.75 -12.0 -62.75 -12.15 -62.4 -12.25 -62.0 -12.65 M-48.9 -3.4 L-48.75 -3.5 -48.65 -3.4 -48.9 -3.4 M-48.5 -3.75 L-48.15 -9.25 -47.75 -9.25 -47.0 -7.75 -48.5 -3.75 M-43.4 0.85 L-44.0 -2.4 -43.15 -1.5 -43.4 0.85" fill="#1b1b1b" fill-rule="evenodd" stroke="none"/>
      <path d="M-72.9 17.5 L-71.4 1.5 -70.4 -2.65 -70.25 -2.65 -70.25 -2.15 -70.4 -1.65 -70.65 1.0 -70.4 1.5 -70.15 1.5 -69.25 2.0 -69.65 7.1 -69.75 7.35 -70.25 12.75 -70.75 17.0 -72.15 17.0 -72.9 17.5 M-70.15 -4.5 L-69.0 -10.65 -68.4 -11.75 -64.15 -14.65 -63.25 -13.15 -62.0 -12.65 -62.4 -12.25 -62.75 -12.15 -62.75 -12.0 -65.15 -10.4 -67.4 -8.0 -69.75 -4.75 -69.9 -4.5 -70.15 -4.5 M-136.0 -47.5 L-73.15 -42.15 -72.9 -42.15 -72.25 -42.0 -53.0 -40.4 -52.4 -40.25 -51.4 -40.25 -50.0 -40.15 -49.0 -40.0 -48.4 -39.9 -49.65 -39.9 -50.0 -40.0 -51.65 -40.15 -51.9 -40.15 -134.75 -47.25 -136.0 -47.5 M-35.4 -38.75 L-34.75 -38.75 -34.15 -38.65 -35.4 -38.75 M-33.9 -38.65 L-33.25 -38.65 -26.0 -37.95 -32.0 -38.4 -33.15 -38.5 -33.9 -38.65" fill="#0b0b0b" fill-rule="evenodd" stroke="none"/>
      <path d="M-55.5 -39.15 L-135.0 -45.9 -134.75 -47.25 -51.9 -40.15 -51.65 -40.15 -50.0 -40.0 -49.65 -39.9 -48.4 -39.9 -48.15 -39.75 -47.15 -39.75 -45.5 -39.5 -44.65 -39.5 -44.75 -39.25 -44.15 -38.9 -44.0 -38.25 -45.25 -38.4 -45.65 -38.4 -49.0 -38.65 -49.9 -38.65 -50.0 -38.75 -54.15 -39.0 -55.5 -39.15 M-36.0 -38.75 L-35.4 -38.75 -34.15 -38.65 -33.9 -38.65 -33.15 -38.5 -32.0 -38.4 -32.15 -38.0 -32.25 -38.0 -32.65 -38.0 -33.25 -38.15 -33.65 -38.15 -34.15 -38.25 -34.4 -38.25 -35.15 -38.4 -35.5 -38.4 -36.0 -38.5 -36.0 -38.75 M-63.15 10.5 L-63.65 13.1 Q-67.4 15.5 -68.25 15.35 L-70.25 12.75 -69.75 7.35 -69.65 7.1 -68.9 6.5 -62.4 3.5 -63.25 6.25 -63.15 10.5" fill="#040404" fill-rule="evenodd" stroke="none"/>
      <path d="M-77.25 -18.0 L-66.95 -17.0 -66.9 -17.0 -65.4 -15.9 -65.65 -15.75 -73.5 -16.65 -74.25 -16.65 -76.25 -17.0 -76.65 -17.5 -77.4 -17.65 -77.25 -18.0 M-45.0 -42.65 L-44.4 -42.75 -42.5 -42.4 -42.25 -39.15 -42.75 -36.75 -44.0 -36.4 -45.4 -36.4 -46.65 -37.0 -46.75 -37.0 -47.0 -37.15 -47.25 -37.25 -46.4 -37.5 -45.65 -38.4 -45.25 -38.4 -44.0 -38.25 -44.15 -38.9 -44.75 -39.25 -44.65 -39.5 -45.5 -39.5 -45.65 -41.0 -46.75 -41.9 -46.5 -41.9 -45.0 -42.65" fill="#383838" fill-rule="evenodd" stroke="none"/>
      <path d="M-44.4 -42.75 L-44.15 -43.75 -43.5 -44.4 -42.0 -44.75 -40.75 -44.25 -40.15 -43.0 -40.25 -42.0 -42.5 -42.4 -44.4 -42.75" fill="#545454" fill-rule="evenodd" stroke="none"/>
      <path d="M-40.25 -42.0 L-37.25 -40.75 -38.25 -40.25 -38.65 -38.75 -38.75 -37.65 -38.65 -37.5 -38.65 -36.9 -37.9 -36.15 -39.9 -36.0 -40.75 -35.9 -42.75 -36.75 -42.25 -39.15 -42.5 -42.4 -40.25 -42.0 M-65.65 -15.75 L-67.5 -13.9 -67.75 -13.75 -75.4 -14.9 -75.65 -15.0 -75.75 -15.0 -79.0 -16.0 -79.15 -16.25 -79.0 -16.4 -78.4 -16.5 -74.25 -16.65 -73.5 -16.65 -65.65 -15.75 M-57.25 -10.75 L-52.0 -10.15 Q-54.65 -7.15 -55.25 -4.75 L-54.65 -2.75 -54.5 0.25 -54.9 0.75 -61.4 -1.5 -59.5 -4.4 -59.4 -5.5 -57.25 -10.75" fill="#1e1e1e" fill-rule="evenodd" stroke="none"/>
      <path d="M-45.9 -42.5 L-45.0 -42.65 -46.5 -41.9 -46.75 -41.9 -48.0 -41.65 -48.9 -40.75 -49.0 -40.0 -50.0 -40.15 -49.9 -40.75 -49.4 -41.75 -49.15 -42.0 -45.9 -42.5 M-49.65 -38.15 L-49.9 -38.65 -49.0 -38.65 -48.5 -37.65 -49.15 -37.75 -49.4 -37.9 -49.65 -38.15" fill="#141414" fill-rule="evenodd" stroke="none"/>
      <path d="M-49.9 -40.75 L-50.0 -40.15 -50.15 -40.4 -49.9 -40.75 M-50.0 -38.75 L-49.9 -38.65 -49.65 -38.15 -50.0 -38.75" fill="#1a1a1a" fill-rule="evenodd" stroke="none"/>
      <path d="M-48.4 -39.9 L-49.0 -40.0 -48.9 -40.75 -48.0 -41.65 -46.75 -41.9 -45.65 -41.0 -45.5 -39.5 -47.15 -39.75 -48.15 -39.75 -48.4 -39.9 M-45.65 -38.4 L-46.4 -37.5 -47.25 -37.25 -48.5 -37.65 -49.0 -38.65 -45.65 -38.4" fill="#030303" fill-rule="evenodd" stroke="none"/>
      <path d="M-61.4 -33.4 L-62.0 -33.0 -63.0 -32.5 -63.65 -33.4 -55.5 -39.15 -54.15 -39.0 -54.0 -38.5 -55.15 -37.9 -55.5 -37.5 -55.9 -37.25 -56.15 -37.15 -56.4 -36.9 -57.75 -36.0 -58.0 -35.75 -59.25 -34.9 -59.4 -34.9 -60.0 -34.4 -60.65 -34.0 -60.9 -33.75 -61.15 -33.65 -61.4 -33.4 M-26.75 -13.75 L-28.4 -13.65 -28.5 -15.75 -28.15 -16.25 -27.25 -15.0 -26.75 -13.75" fill="#4b4b4b" fill-rule="evenodd" stroke="none"/>
      <path d="M-37.25 -40.75 L-36.5 -40.65 -36.0 -38.75 -36.0 -38.5 -36.15 -38.5 -36.5 -38.5 -37.0 -38.65 -37.5 -38.65 -38.0 -38.75 -38.65 -38.75 -38.25 -40.25 -37.25 -40.75 M-38.65 -37.5 L-36.25 -37.25 -37.0 -36.25 -37.9 -36.15 -38.65 -36.9 -38.65 -37.5" fill="#191919" fill-rule="evenodd" stroke="none"/>
      <path d="M-52.0 -28.75 L-51.25 -35.4 -51.4 -35.5 -50.9 -38.25 -50.5 -38.25 -50.9 -35.0 -51.5 -28.65 -51.75 -26.65 -52.15 -26.65 -52.0 -28.5 -52.0 -28.75" fill="#111111" fill-rule="evenodd" stroke="none"/>
      <path d="M-55.5 -28.65 L-52.0 -28.75 -52.0 -28.5 -52.15 -26.65 -51.75 -26.65 -51.5 -28.65 -48.9 -28.4 -47.9 -28.25 -47.9 -27.15 -44.25 -26.4 -44.25 -25.75 -53.25 -26.15 -57.4 -25.9 -57.9 -26.75 -57.75 -27.4 -57.9 -27.5 -56.65 -28.25 -55.5 -28.65 M-24.2 3.3 L-24.25 3.85 -24.25 4.0 -24.75 6.85 -31.25 6.5 -30.9 5.6 -31.0 4.1 -28.25 1.6 -24.15 1.6 -24.2 3.3" fill="#5b5b5b" fill-rule="evenodd" stroke="none"/>
      <path d="M-47.0 -37.15 L-46.75 -37.0 -46.9 -37.0 -47.0 -37.15 M-63.5 -23.25 L-63.5 -23.0 -63.75 -22.5 -67.0 -22.65 -66.4 -24.4 -65.65 -24.0 -63.5 -23.25" fill="#303030" fill-rule="evenodd" stroke="none"/>
      <path d="M-35.0 -37.0 L-36.25 -26.9 -36.4 -24.9 -36.75 -25.15 -36.75 -26.15 -37.15 -26.15 -37.0 -27.0 -35.9 -37.15 -35.5 -37.15 -35.0 -37.0 M-46.75 -37.0 L-46.65 -37.0 -45.4 -36.4 -44.0 -36.4 -42.75 -36.75 -40.75 -35.9 -39.9 -36.0 -40.9 -27.5 -41.0 -26.4 -44.25 -26.4 -47.9 -27.15 -47.9 -28.25 -46.9 -34.65 -47.15 -35.4 -46.75 -35.65 -47.0 -36.4 -46.9 -37.0 -46.75 -37.0" fill="#101010" fill-rule="evenodd" stroke="none"/>
      <path d="M-48.9 -28.4 L-48.25 -35.5 -47.0 -36.4 -46.75 -35.65 -47.15 -35.4 -46.9 -34.65 -47.9 -28.25 -48.9 -28.4" fill="#090909" fill-rule="evenodd" stroke="none"/>
      <path d="M-36.25 -26.9 L-34.0 -26.25 -32.9 -25.5 -31.75 -24.9 -31.5 -24.25 -31.25 -23.75 -31.5 -23.0 -38.0 -24.75 -44.25 -25.75 -44.25 -26.4 -41.0 -26.4 -40.9 -27.5 -37.0 -27.0 -37.15 -26.15 -36.75 -26.15 -36.75 -25.15 -36.4 -24.9 -36.25 -26.9" fill="#6c6c6c" fill-rule="evenodd" stroke="none"/>
      <path d="M-66.95 -17.0 Q-67.85 -17.15 -69.4 -20.5 L-70.15 -24.75 -69.0 -28.9 -60.4 -30.0 -55.5 -28.65 -56.65 -28.25 -57.75 -29.0 -59.65 -29.5 -62.4 -29.4 -64.75 -28.15 -64.9 -27.65 Q-68.15 -25.25 -67.5 -21.0 -66.15 -17.75 -63.9 -17.15 L-65.4 -15.9 -66.9 -17.0 -66.95 -17.0 M-26.0 17.5 L-26.5 21.6 -27.65 21.0 -28.15 19.6 -26.0 17.5 M-61.4 -23.75 L-60.9 -22.75 -61.5 -23.25 -61.75 -23.4 -63.0 -23.25 -63.25 -23.15 -63.5 -23.0 -63.5 -23.25 -63.0 -23.65 -62.5 -23.9 -61.75 -23.9 -61.5 -23.75 -61.4 -23.75 M-40.5 13.35 L-40.25 13.5 -40.15 17.35 -47.5 16.6 -47.75 16.5 -48.0 16.5 -48.0 16.1 -47.65 16.1 -47.9 15.6 -47.25 15.5 -47.9 15.35 -47.4 12.85 -40.5 13.35" fill="#0a0a0a" fill-rule="evenodd" stroke="none"/>
      <path d="M-58.4 -27.25 L-58.65 -27.15 -58.75 -27.0 -58.9 -26.65 -58.4 -26.15 -58.65 -25.9 -58.9 -25.5 -59.25 -25.65 -60.0 -26.25 -61.65 -26.75 -63.4 -26.65 -65.15 -25.9 -66.4 -24.4 -67.0 -22.65 -66.75 -20.75 -65.9 -19.15 -64.5 -18.0 -62.65 -17.4 -61.65 -17.5 -62.0 -16.9 -62.5 -16.9 -63.9 -17.15 Q-66.15 -17.75 -67.5 -21.0 -68.15 -25.25 -64.9 -27.65 L-62.0 -28.5 -60.15 -28.25 -58.4 -27.25" fill="#424242" fill-rule="evenodd" stroke="none"/>
      <path d="M-58.0 -27.4 L-57.75 -27.4 -57.9 -26.75 -57.4 -25.9 -60.0 -22.65 -61.4 -16.25 -61.65 -16.5 -62.0 -16.9 -61.65 -17.5 -61.75 -20.4 -61.9 -20.4 -60.9 -21.15 -60.9 -22.75 -61.4 -23.75 -60.75 -25.65 -59.25 -25.65 -58.9 -25.5 -58.65 -25.9 -58.4 -26.15 -58.9 -26.65 -58.75 -27.0 -58.65 -27.15 -58.4 -27.25 -58.0 -27.25 -58.0 -27.4" fill="#232323" fill-rule="evenodd" stroke="none"/>
      <path d="M-29.25 -22.75 L-27.4 -22.9 -25.75 -22.25 -24.4 -21.15 -23.75 -19.5 -23.4 -17.75 -23.9 -16.0 -24.4 -16.25 -26.4 -17.5 -26.4 -18.25 -26.65 -19.0 -26.9 -19.4 -27.4 -19.9 -27.5 -19.9 -27.9 -20.0 -28.5 -20.0 -28.4 -20.9 -28.65 -22.0 -29.0 -22.15 -29.25 -22.75 M-59.25 -25.65 L-60.75 -25.65 -61.4 -23.75 -61.5 -23.75 -61.75 -23.9 -62.5 -23.9 -63.15 -25.5 -63.4 -26.65 -61.65 -26.75 -60.0 -26.25 -59.25 -25.65" fill="#080808" fill-rule="evenodd" stroke="none"/>
      <path d="M-63.4 -26.65 L-63.15 -25.5 -62.5 -23.9 -63.0 -23.65 -63.15 -23.9 -64.5 -25.0 -65.15 -25.9 -63.4 -26.65" fill="#0d0d0d" fill-rule="evenodd" stroke="none"/>
      <path d="M-65.15 -25.9 L-64.5 -25.0 -63.15 -23.9 -63.0 -23.65 -63.5 -23.25 -65.65 -24.0 -66.4 -24.4 -65.15 -25.9" fill="#1f1f1f" fill-rule="evenodd" stroke="none"/>
      <path d="M-39.65 -11.75 L-38.9 -11.65 -39.4 -11.65 -39.65 -11.75 M-35.25 -11.25 L-30.0 -12.25 -30.0 -12.75 -29.65 -12.75 -27.65 -12.4 -27.4 -11.9 -26.65 -10.5 -35.25 -11.25 M-66.25 -20.9 L-66.75 -20.75 -67.0 -22.65 -63.75 -22.5 -63.75 -22.0 -63.9 -21.75 -66.25 -20.9" fill="#454545" fill-rule="evenodd" stroke="none"/>
      <path d="M-23.0 2.05 L-23.0 2.1 -23.0 2.35 -23.5 6.25 -24.75 6.85 -24.25 4.0 -23.9 4.1 -23.65 5.25 -23.5 -0.5 -23.15 0.35 -23.0 2.05 M-76.4 -14.5 L-78.65 -14.9 -79.9 -16.0 -79.9 -17.0 -79.5 -17.4 -77.25 -18.0 -77.4 -17.65 -76.65 -17.5 -76.25 -17.0 -74.25 -16.65 -78.4 -16.5 -79.0 -16.4 -79.15 -16.25 -79.0 -16.0 -75.75 -15.0 -76.25 -15.0 -76.4 -14.5 M-60.9 -22.75 L-60.9 -21.15 -61.9 -20.4 -62.5 -20.4 -63.0 -20.5 -63.25 -20.75 -63.65 -21.15 -63.9 -21.75 -63.75 -22.0 -63.75 -22.5 -63.5 -23.0 -63.25 -23.15 -63.0 -23.25 -61.75 -23.4 -61.5 -23.25 -60.9 -22.75" fill="#151515" fill-rule="evenodd" stroke="none"/>
      <path d="M-44.25 -25.75 L-45.25 -12.25 -50.5 -12.9 -51.0 -12.9 -51.4 -13.0 -54.4 -13.4 -54.9 -13.4 -55.5 -13.5 -55.9 -13.5 Q-57.9 -15.25 -61.0 -15.75 L-61.4 -16.25 -60.0 -22.65 -57.4 -25.9 -53.25 -26.15 -44.25 -25.75 M-20.4 -8.9 L-24.65 -9.0 -26.0 -11.4 -22.4 -11.0 -21.9 -10.9 -21.5 -10.9 Q-17.15 -10.25 -16.9 -9.25 L-20.4 -8.9" fill="#404040" fill-rule="evenodd" stroke="none"/>
      <path d="M-26.0 -12.4 L-18.25 -11.4 -18.4 -11.0 -19.5 -10.75 -21.5 -10.9 -21.9 -10.9 -22.4 -11.0 -26.0 -11.4 -26.65 -12.25 -26.0 -12.4" fill="#4e4e4e" fill-rule="evenodd" stroke="none"/>
      <path d="M-29.25 -13.25 L-29.0 -13.25 -28.0 -13.15 -27.15 -13.0 -26.65 -12.25 -26.0 -11.4 -24.65 -9.0 -27.4 -11.9 -27.65 -12.4 -29.65 -12.75 -29.5 -13.25 -29.25 -13.25 M-45.25 -12.25 L-39.65 -11.75 -39.4 -11.65 -39.15 -11.0 -39.5 -11.0 -45.0 -11.65 -45.4 -11.65 -45.4 -12.0 -44.9 -12.0 -45.25 -12.25" fill="#666666" fill-rule="evenodd" stroke="none"/>
      <path d="M-23.9 -16.0 L-23.4 -17.75 -23.75 -19.5 -24.4 -21.15 -25.75 -22.25 -27.4 -22.9 -29.25 -22.75 -30.25 -22.4 -30.75 -23.0 -30.4 -23.65 -31.5 -24.25 -28.4 -24.75 Q-26.15 -24.5 -25.0 -23.0 -18.75 -16.5 -28.0 -13.15 L-29.0 -13.25 -29.25 -13.25 -29.5 -13.4 -29.5 -13.75 -28.4 -13.65 -26.75 -13.75 -25.15 -14.65 -23.9 -16.0" fill="#555555" fill-rule="evenodd" stroke="none"/>
      <path d="M-29.5 -13.75 L-29.5 -13.4 -29.5 -13.25 -29.65 -12.75 -30.0 -12.75 -29.75 -19.65 -31.5 -23.0 -31.25 -23.75 -31.5 -24.25 -30.4 -23.65 -30.75 -23.0 -30.25 -22.4 -29.0 -22.15 -28.65 -22.0 -28.4 -20.9 -28.5 -20.0 -29.15 -19.15 -29.5 -18.4 -29.0 -16.9 -28.9 -16.4 -28.9 -16.15 -29.5 -13.75 M-61.9 -20.4 L-61.75 -20.4 -61.65 -17.5 -62.65 -17.4 -62.15 -19.75 -62.5 -20.4 -61.9 -20.4" fill="#414141" fill-rule="evenodd" stroke="none"/>
      <path d="M-19.9 -8.25 L-24.25 -8.75 -24.4 -8.75 -24.65 -9.0 -20.4 -8.9 -19.15 -8.75 -19.9 -8.65 -19.9 -8.25 M-67.9 -13.4 L-76.4 -14.5 -76.25 -15.0 -75.75 -15.0 -75.65 -15.0 -75.4 -14.9 -67.75 -13.75 -67.9 -13.4 M-30.25 -22.4 L-29.25 -22.75 -29.0 -22.15 -30.25 -22.4 M-67.0 -7.65 L-67.25 -7.9 -67.4 -8.0 -65.15 -10.4 -65.9 -9.25 -67.0 -7.65" fill="#0c0c0c" fill-rule="evenodd" stroke="none"/>
      <path d="M-68.4 -11.75 L-67.9 -13.25 -67.65 -13.5 -63.65 -16.25 -64.15 -14.65 -68.4 -11.75 M-26.65 -19.0 L-26.4 -18.25 -26.4 -17.5 -26.75 -17.0 -27.0 -16.75 -27.65 -16.5 -28.25 -16.5 -29.0 -16.9 -29.5 -18.4 -29.15 -19.15 -29.0 -19.15 -28.75 -19.4 -27.75 -19.5 -27.4 -19.5 -27.15 -19.4 -26.65 -19.0" fill="#161616" fill-rule="evenodd" stroke="none"/>
      <path d="M-28.5 -20.0 L-27.9 -20.0 -27.5 -19.9 -27.4 -19.9 -26.9 -19.4 -26.65 -19.0 -27.15 -19.4 -27.4 -19.5 -27.75 -19.5 -28.75 -19.4 -29.0 -19.15 -29.15 -19.15 -28.5 -20.0" fill="#0f0f0f" fill-rule="evenodd" stroke="none"/>
      <path d="M-31.5 -23.0 L-29.75 -19.65 -30.0 -12.75 -30.0 -12.25 -35.25 -11.25 -35.75 -11.25 -36.4 -11.4 -36.75 -11.4 -38.65 -11.65 -38.9 -11.65 -39.65 -11.75 -45.25 -12.25 -44.25 -25.75 -38.0 -24.75 -31.5 -23.0" fill="#aeaeae" fill-rule="evenodd" stroke="none"/>
      <path d="M-51.0 -12.9 L-50.5 -12.9 -45.25 -12.25 -44.9 -12.0 -45.4 -12.0 -45.4 -11.65 -50.75 -12.25 -51.0 -12.9" fill="#626262" fill-rule="evenodd" stroke="none"/>
      <path d="M-55.9 -13.5 L-55.5 -13.5 -54.9 -13.4 -54.4 -13.4 -51.4 -13.0 -51.0 -12.9 -50.75 -12.25 -45.4 -11.65 -45.0 -11.65 -45.25 -9.5 -46.15 -9.5 -48.25 -9.65 -52.0 -10.15 -57.25 -10.75 -62.0 -12.65 -63.25 -13.15 -64.15 -14.65 -55.9 -13.5 M-46.75 6.0 L-53.25 5.1 -46.5 5.25 -46.75 6.0" fill="#4f4f4f" fill-rule="evenodd" stroke="none"/>
      <path d="M-64.15 -14.65 L-63.65 -16.25 -63.15 -16.4 -61.4 -16.25 -61.0 -15.75 Q-57.9 -15.25 -55.9 -13.5 L-64.15 -14.65" fill="#363636" fill-rule="evenodd" stroke="none"/>
      <path d="M-66.25 -20.9 L-63.9 -21.75 -63.65 -21.15 -66.25 -20.9" fill="#7a7a7a" fill-rule="evenodd" stroke="none"/>
      <path d="M-66.75 -20.75 L-66.25 -20.9 -63.65 -21.15 -65.0 -19.75 -65.9 -19.15 -66.75 -20.75" fill="#797979" fill-rule="evenodd" stroke="none"/>
      <path d="M-65.0 -19.75 L-63.65 -21.15 -63.25 -20.75 -65.0 -19.75" fill="#a5a5a5" fill-rule="evenodd" stroke="none"/>
      <path d="M-63.25 -20.75 L-63.0 -20.5 -63.75 -19.0 -64.5 -18.0 -65.9 -19.15 -65.0 -19.75 -63.25 -20.75" fill="#a4a4a4" fill-rule="evenodd" stroke="none"/>
      <path d="M-28.15 -8.4 L-26.5 -7.0 -25.5 -5.15 -25.75 -5.0 -28.15 -8.4 M-63.0 -20.5 L-62.5 -20.4 -62.15 -19.75 -62.65 -17.4 -64.5 -18.0 -63.75 -19.0 -63.0 -20.5" fill="#808080" fill-rule="evenodd" stroke="none"/>
      <path d="M-28.4 -13.65 L-29.5 -13.75 -28.9 -16.15 -28.9 -16.4 -29.0 -16.9 -28.25 -16.5 -28.15 -16.25 -28.5 -15.75 -28.4 -13.65" fill="#8e8e8e" fill-rule="evenodd" stroke="none"/>
      <path d="M-29.5 -13.4 L-29.25 -13.25 -29.5 -13.25 -29.5 -13.4" fill="#2b2b2b" fill-rule="evenodd" stroke="none"/>
      <path d="M-62.0 -16.9 L-61.65 -16.5 -63.15 -16.4 -63.65 -16.25 -67.65 -13.5 -67.9 -13.4 -67.75 -13.75 -67.5 -13.9 -65.65 -15.75 -65.4 -15.9 -63.9 -17.15 -62.5 -16.9 -62.0 -16.9" fill="#3f3f3f" fill-rule="evenodd" stroke="none"/>
      <path d="M-18.25 -11.4 Q-13.25 -8.4 -19.9 -8.25 L-19.9 -8.65 -19.15 -8.75 -20.4 -8.9 -16.9 -9.25 Q-17.15 -10.25 -21.5 -10.9 L-19.5 -10.75 -18.4 -11.0 -18.25 -11.4 M-61.65 -16.5 L-61.4 -16.25 -63.15 -16.4 -61.65 -16.5" fill="#2d2d2d" fill-rule="evenodd" stroke="none"/>
      <path d="M-67.9 -13.25 L-67.9 -13.4 -67.65 -13.5 -67.9 -13.25" fill="#212121" fill-rule="evenodd" stroke="none"/>
      <path d="M-25.15 -14.65 L-26.75 -13.75 -27.25 -15.0 -27.65 -16.5 -27.0 -16.75 -25.15 -14.65" fill="#242424" fill-rule="evenodd" stroke="none"/>
      <path d="M-27.65 -16.5 L-27.25 -15.0 -28.15 -16.25 -28.25 -16.5 -27.65 -16.5" fill="#4c4c4c" fill-rule="evenodd" stroke="none"/>
      <path d="M-62.75 -12.0 L-65.9 -9.25 -65.15 -10.4 -62.75 -12.0" fill="#181818" fill-rule="evenodd" stroke="none"/>
      <path d="M-70.4 -3.15 L-70.25 -3.4 -70.25 -3.75 -70.15 -4.0 -70.15 -4.5 -69.9 -4.5 -69.9 -4.0 -70.0 -3.5 -70.0 -3.4 -70.15 -2.9 -70.25 -2.65 -70.4 -2.65 -70.25 -3.15 -70.4 -3.15 M-70.15 -2.65 L-70.25 -2.15 -70.25 -2.65 -70.15 -2.65" fill="#202020" fill-rule="evenodd" stroke="none"/>
      <path d="M-24.4 -8.75 L-23.25 -6.9 -26.65 -10.5 -27.4 -11.9 -24.65 -9.0 -24.4 -8.75 M-43.25 2.6 L-43.4 1.6 -42.4 2.75 -43.25 2.6" fill="#2c2c2c" fill-rule="evenodd" stroke="none"/>
      <path d="M-38.9 -11.65 L-38.65 -11.65 -36.75 -11.4 -36.4 -11.4 -35.75 -11.25 -35.25 -11.25 -26.65 -10.5 -27.15 -9.25 -28.65 -9.0 -33.4 -8.25 -37.0 -8.5 -44.0 -9.4 -45.25 -9.5 -45.0 -11.65 -39.5 -11.0 -39.15 -11.0 -39.4 -11.65 -38.9 -11.65" fill="#6a6a6a" fill-rule="evenodd" stroke="none"/>
      <path d="M-23.25 -6.9 L-22.75 -6.25 -22.65 -5.0 -22.9 0.85 -23.15 0.35 -23.5 -0.5 -23.65 -1.0 -23.75 -1.0 -24.0 -1.75 -24.15 -2.15 -24.4 -3.15 -25.15 -5.0 -25.5 -5.15 -26.5 -7.0 -28.15 -8.4 -28.65 -9.0 -27.15 -9.25 -26.65 -10.5 -23.25 -6.9" fill="#727272" fill-rule="evenodd" stroke="none"/>
      <path d="M-28.65 -9.0 L-28.15 -8.4 -25.75 -5.0 -25.0 -3.15 -28.25 1.6 -34.9 2.25 -36.5 -2.75 -37.0 -8.5 -33.4 -8.25 -28.65 -9.0 M-24.0 -1.75 L-23.75 -1.0 -23.9 4.1 -24.25 4.0 -24.2 3.3 -24.15 1.6 -24.15 0.25 -24.4 -1.9 -24.15 -2.15 -24.15 0.25 -24.0 -1.75 M-48.5 20.25 L-48.75 20.1 -56.4 19.35 -70.75 17.0 -70.25 12.75 -68.25 15.35 Q-67.4 15.5 -63.65 13.1 L-63.15 10.5 -54.5 12.0 -55.65 15.75 -48.0 16.5 -48.25 17.75 -47.65 18.0 -48.4 18.0 -47.75 18.5 -47.9 19.5 -48.4 19.5 -48.0 19.85 -48.5 20.25" fill="#020202" fill-rule="evenodd" stroke="none"/>
      <path d="M-24.9 22.5 L-32.9 22.25 -48.5 20.6 -48.5 20.25 -48.0 19.85 -48.4 19.5 -47.9 19.5 -47.75 18.5 -48.4 18.0 -47.65 18.0 -48.25 17.75 -48.0 16.5 -47.75 16.5 -47.5 16.6 -40.15 17.35 -40.25 13.5 -31.65 13.85 -31.75 16.5 Q-28.9 19.6 -28.15 19.6 L-27.65 21.0 -26.5 21.6 -25.15 22.0 -24.9 22.5 M-23.75 -1.0 L-23.65 -1.0 -23.5 -0.5 -23.65 5.25 -23.9 4.1 -23.75 -1.0 M-37.0 -8.5 L-36.5 -2.75 -34.9 2.25 -40.25 2.85 -42.4 2.75 -43.4 1.6 -43.4 0.85 -43.15 -1.5 -42.15 -3.15 -42.75 -6.25 -42.9 -6.4 -44.0 -9.4 -37.0 -8.5" fill="#050505" fill-rule="evenodd" stroke="none"/>
      <path d="M-52.0 -10.15 L-48.25 -9.65 -54.65 -2.75 -55.25 -4.75 Q-54.65 -7.15 -52.0 -10.15" fill="#3b3b3b" fill-rule="evenodd" stroke="none"/>
      <path d="M-48.25 -9.65 L-48.15 -9.25 -48.5 -3.75 -48.75 -3.5 -48.9 -3.4 -54.5 0.25 -54.65 -2.75 -48.25 -9.65" fill="#828282" fill-rule="evenodd" stroke="none"/>
      <path d="M-47.0 -7.75 L-46.15 -9.5 -47.0 2.25 -50.65 1.85 -48.75 -3.15 -48.65 -3.4 -48.5 -3.75 -47.0 -7.75" fill="#252525" fill-rule="evenodd" stroke="none"/>
      <path d="M-46.15 -9.5 L-45.25 -9.5 -44.65 -8.0 -44.0 -2.4 -43.4 0.85 -43.4 1.6 -43.25 2.6 -46.4 2.35 -47.0 2.25 -46.15 -9.5 M-54.5 0.25 L-48.9 -3.4 -48.75 -3.15 -50.65 1.85 -54.9 0.75 -54.5 0.25" fill="#4a4a4a" fill-rule="evenodd" stroke="none"/>
      <path d="M-25.5 -5.15 L-25.15 -5.0 -24.4 -3.15 -25.0 -3.15 -25.75 -5.0 -25.5 -5.15" fill="#747474" fill-rule="evenodd" stroke="none"/>
      <path d="M-70.4 -2.65 L-70.4 -3.15 -70.25 -3.15 -70.4 -2.65 M-48.75 -3.5 L-48.5 -3.75 -48.65 -3.4 -48.75 -3.15 -48.9 -3.4 -48.65 -3.4 -48.75 -3.5" fill="#1d1d1d" fill-rule="evenodd" stroke="none"/>
      <path d="M-68.5 -3.15 L-67.0 -7.65 -64.25 -2.25 -68.5 -3.15" fill="#070a07" fill-rule="evenodd" stroke="none"/>
      <path d="M-69.25 2.0 L-68.5 -3.15 -64.25 -2.25 -62.15 0.75 -62.25 3.1 -69.25 2.0" fill="#0e0e0e" fill-rule="evenodd" stroke="none"/>
      <path d="M-28.25 1.6 L-25.0 -3.15 -24.4 -1.9 -24.15 0.25 -24.15 1.6 -28.25 1.6" fill="#131912" fill-rule="evenodd" stroke="none"/>
      <path d="M-64.25 -2.25 L-61.4 -1.5 -54.9 0.75 -50.65 1.85 -47.0 2.25 -46.4 2.35 -46.5 5.25 -53.25 5.1 -53.75 5.1 -53.75 6.35 -46.9 7.1 -46.65 8.0 -47.0 8.5 -46.75 9.5 -47.15 10.35 -54.5 12.0 -63.15 10.5 -63.25 6.25 -62.4 3.5 -62.25 3.1 -62.15 0.75 -64.25 -2.25" fill="#333333" fill-rule="evenodd" stroke="none"/>
      <path d="M-48.5 20.6 L-62.4 19.25 -72.9 17.5 -72.15 17.0 -70.75 17.0 -56.4 19.35 -48.75 20.1 -48.65 20.25 -48.5 20.25 -48.5 20.6 M-48.0 16.5 L-55.65 15.75 -54.5 12.0 -47.4 12.85 -47.9 15.35 -47.25 15.5 -47.9 15.6 -47.65 16.1 -48.0 16.1 -48.0 16.5 M-62.25 3.1 L-62.4 3.5 -68.9 6.5 -69.65 7.1 -69.25 2.0 -62.25 3.1" fill="#070707" fill-rule="evenodd" stroke="none"/>
      <path d="M-22.9 0.85 L-23.0 2.05 -23.15 0.35 -22.9 0.85" fill="#272727" fill-rule="evenodd" stroke="none"/>
      <path d="M-34.9 2.25 L-28.25 1.6 -31.0 4.1 -30.9 5.6 -31.25 6.5 -31.15 6.85 -30.75 9.85 -31.65 13.85 -40.25 13.5 -40.5 13.35 -47.15 10.35 -46.75 9.5 -47.0 8.5 -46.65 8.0 -46.9 7.1 -40.0 7.75 -39.65 7.25 -39.65 6.6 -40.0 6.6 -40.5 6.5 -40.65 6.5 -46.5 5.25 -46.4 2.35 -43.25 2.6 -42.4 2.75 -40.25 2.85 -34.9 2.25" fill="#767676" fill-rule="evenodd" stroke="none"/>
      <path d="M-31.25 6.5 L-24.75 6.85 -24.65 7.85 -25.4 11.75 -30.0 7.5 -31.15 6.85 -31.25 6.5" fill="#565656" fill-rule="evenodd" stroke="none"/>
      <path d="M-25.4 11.75 L-26.0 17.5 -28.15 19.6 Q-28.9 19.6 -31.75 16.5 L-31.65 13.85 -30.75 9.85 -31.15 6.85 -30.0 7.5 -25.4 11.75" fill="#2f2f2f" fill-rule="evenodd" stroke="none"/>
      <path d="M-47.15 10.35 L-40.5 13.35 -47.4 12.85 -47.15 10.35" fill="#1c1c1c" fill-rule="evenodd" stroke="none"/>
      <path d="M-46.75 6.0 L-46.5 6.5 -46.9 7.1 -53.75 6.35 -53.75 5.1 -53.25 5.1 -46.75 6.0" fill="#313131" fill-rule="evenodd" stroke="none"/>
      <path d="M-40.65 6.5 L-46.75 6.0 -46.5 5.25 -40.65 6.5" fill="#5e5e5e" fill-rule="evenodd" stroke="none"/>
      <path d="M-46.9 7.1 L-46.5 6.5 -46.75 6.0 -40.65 6.5 -40.5 6.5 -40.0 6.6 -39.65 6.6 -39.65 7.25 -40.0 7.75 -46.9 7.1" fill="#434343" fill-rule="evenodd" stroke="none"/>
      <path d="M-47.4 12.85 L-54.5 12.0 -47.15 10.35 -47.4 12.85" fill="#171717" fill-rule="evenodd" stroke="none"/>
      <path d="M-48.5 20.25 L-48.65 20.25 -48.75 20.1 -48.5 20.25" fill="#121212" fill-rule="evenodd" stroke="none"/>
      <path d="M-46.75 2.25 L-51.4 1.75 -52.15 1.75 -52.4 1.6 -58.15 -0.4 -59.15 -0.65 -59.65 -0.9 -61.4 -1.4 -61.5 -1.5 -61.9 -1.65 -62.65 -1.75 -64.25 -2.25 -64.4 -2.4 -66.5 -7.0 -66.75 -7.4 -67.0 -7.65 -67.0 -7.75 -65.75 -9.65 -65.15 -10.4 -62.15 -12.65 -61.75 -12.65 -61.25 -12.25 -60.9 -12.15 -58.25 -11.0 -57.4 -10.9 -57.25 -10.75 -55.5 -10.65 -54.9 -10.5 -54.25 -10.5 -53.0 -10.25 -52.25 -10.25 -52.0 -10.15 -51.4 -10.15 -51.0 -10.0 -46.15 -9.5 -45.75 -9.5 -45.75 -9.0 -45.75 -8.9 -45.9 -7.9 -45.9 -7.15 -46.0 -7.15 -46.0 -6.65 -46.0 -6.5 -45.9 -5.9 -46.0 -5.4 -46.15 -5.25 -46.0 -5.25 -46.0 -4.75 -46.15 -4.25 -46.15 -3.9 -46.15 -3.65 -46.25 -3.15 -46.25 -2.4 -46.4 -2.0 -46.4 -0.9 -46.5 -0.75 -46.5 -0.4 -46.5 0.5 -46.65 0.75 -46.65 0.85 -46.75 2.25" fill="#060606" fill-opacity="0.50980395" fill-rule="evenodd" stroke="none"/>
      <path d="M-46.65 2.25 L-46.75 2.25 -46.65 0.85 -46.65 0.75 -46.5 0.5 -46.5 0.75 -46.5 1.85 -46.65 2.25 M-45.75 -9.5 L-45.4 -9.5 -45.25 -9.0 -45.25 -8.9 -45.5 -9.0 -45.65 -9.15 -45.75 -9.0 -45.75 -9.5 M-46.25 -1.5 L-46.25 -1.35 -46.4 -0.9 -46.5 -0.4 -46.5 -0.75 -46.4 -0.9 -46.4 -2.0 -46.25 -1.5 M-46.0 -6.65 L-46.0 -7.15 -45.9 -7.15 -46.0 -6.65 M-46.0 -5.4 L-46.0 -5.25 -46.15 -5.25 -46.0 -5.4 M-46.15 -4.25 L-46.0 -3.9 -46.15 -3.9 -46.15 -4.25" fill="#0f0f0f" fill-rule="evenodd" stroke="none"/>
      <path d="M-45.5 -9.0 L-46.0 -3.9 -46.25 -1.5 -46.4 -2.0 -46.25 -2.4 -46.25 -3.15 -46.15 -3.65 -46.15 -3.9 -46.0 -3.9 -46.15 -4.25 -46.0 -4.75 -46.0 -5.25 -46.0 -5.4 -45.9 -5.9 -46.0 -6.5 -46.0 -6.65 -45.9 -7.15 -45.9 -7.9 -45.75 -8.9 -45.75 -9.0 -45.65 -9.15 -45.5 -9.0 M-46.25 -1.35 L-46.5 0.75 -46.5 0.5 -46.5 -0.4 -46.4 -0.9 -46.25 -1.35" fill="#171717" fill-rule="evenodd" stroke="none"/>
      <path d="M-45.4 -9.5 L-45.15 -9.5 -44.0 -9.4 -43.75 -9.25 -39.65 -8.75 -37.65 -8.65 -37.0 -8.5 -33.5 -8.25 -33.25 -8.15 -30.65 -8.65 -29.4 -8.75 -28.75 -8.9 -28.75 -9.0 -28.4 -8.65 -27.9 -7.75 -27.65 -7.9 -26.25 -6.65 -25.5 -5.15 -25.75 -5.0 -25.0 -3.15 -25.0 -2.9 -25.4 -2.25 -25.5 -2.15 -25.75 -1.75 -25.9 -1.65 -26.15 -1.25 -26.25 -1.15 -26.5 -0.75 -26.65 -0.65 -27.5 0.6 -27.75 0.85 -28.25 1.6 -29.0 1.6 -31.75 2.0 -39.75 2.75 -40.75 3.0 -46.0 2.35 -46.5 2.35 -46.65 2.25 -46.5 1.85 -46.5 0.75 -46.25 -1.35 -46.25 -1.5 -46.0 -3.9 -45.5 -9.0 -45.25 -8.9 -45.25 -9.0 -45.4 -9.5" fill="#141414" fill-opacity="0.50980395" fill-rule="evenodd" stroke="none"/>
      <path d="M-67.0 -7.65 L-68.5 -3.15 -69.25 2.0 -70.15 1.5 -70.5 1.5 -70.65 1.25 -70.75 1.25 -70.9 1.0 -70.75 -0.75 -70.75 -0.9 -70.5 -1.15 -70.65 -1.4 -70.4 -3.15 -70.25 -3.75 -70.25 -4.25 -70.15 -4.4 -70.15 -4.5 -70.0 -4.75 -69.75 -4.9 -67.5 -8.0 -67.25 -7.9 -67.0 -7.75 -67.0 -7.65" fill="#000000" fill-opacity="0.50980395" fill-rule="evenodd" stroke="none"/>
      <path d="M-25.0 -3.15 L-24.4 -3.15 -24.25 -2.4 -24.25 -1.9 -24.4 -1.9 -25.0 -3.15 M-23.9 3.0 L-23.75 3.35 -23.9 4.0 -23.9 3.0" fill="#101010" fill-opacity="0.50980395" fill-rule="evenodd" stroke="none"/>
      <path d="M-24.25 -2.4 L-24.15 -2.0 -24.0 -1.75 -24.0 -0.75 -23.9 -1.25 -23.75 -1.25 -23.75 -1.0 -23.75 -0.9 -23.75 2.75 -23.9 3.0 -23.9 4.0 -23.9 4.85 -24.0 4.5 -24.0 1.75 -24.15 1.6 -24.15 1.0 -24.0 0.25 -24.0 -0.75 -24.15 0.1 -24.25 0.25 -24.25 -0.15 -24.4 -1.25 -24.25 -1.9 -24.25 -2.4 M-24.25 4.35 L-24.4 3.85 -24.15 3.0 -24.15 4.35 -24.25 4.35" fill="#080808" fill-rule="evenodd" stroke="none"/>
      <path d="M-24.0 -1.75 L-23.9 -1.25 -24.0 -0.75 -24.0 -1.75 M-23.75 -1.0 L-23.65 -1.0 -23.75 -0.9 -23.65 -0.65 -23.5 -0.5 -22.9 0.85 -23.0 2.1 -22.9 2.85 -22.9 3.1 -23.0 3.85 -23.0 4.85 -23.15 5.35 -23.25 6.0 -23.5 6.1 -23.65 6.5 -24.25 6.6 -24.75 6.85 -24.25 4.35 -24.15 4.35 -24.15 3.0 -24.15 1.6 -24.0 1.75 -24.0 4.5 -23.9 4.85 -23.9 4.0 -23.75 3.35 -23.9 3.0 -23.75 2.75 -23.75 -0.9 -23.75 -1.0 M-24.15 1.0 L-24.15 0.75 -24.25 0.25 -24.15 0.1 -24.0 -0.75 -24.0 0.25 -24.15 1.0 M-24.4 -1.25 L-24.4 -1.9 -24.25 -1.9 -24.4 -1.25" fill="#080808" fill-opacity="0.50980395" fill-rule="evenodd" stroke="none"/>
    </g>
  </defs>
</svg>
