<?xml version="1.0" encoding="UTF-8" standalone="no"?>
<svg xmlns:xlink="http://www.w3.org/1999/xlink" height="1034.2px" width="773.35px" xmlns="http://www.w3.org/2000/svg">
  <g transform="matrix(1.0, 0.0, 0.0, 1.0, 365.9, 551.4)">
    <use height="80.75" transform="matrix(1.0, 0.0, 0.0, 1.0, -171.15, -57.9)" width="255.5" xlink:href="#shape0"/>
  </g>
  <defs>
    <g id="shape0" transform="matrix(1.0, 0.0, 0.0, 1.0, 171.15, 57.9)">
      <path d="M-34.0 -39.25 L-33.75 -39.25 -33.25 -39.15 -32.9 -39.15 -32.5 -39.0 -32.0 -39.0 -31.4 -38.9 -31.0 -38.9 -30.65 -38.75 -30.15 -38.75 -29.65 -38.65 -29.15 -38.65 -28.75 -38.5 -28.25 -38.5 -27.75 -38.4 -27.4 -38.4 -26.65 -38.25 -26.4 -38.25 -25.9 -38.15 -25.65 -38.15 -25.0 -38.0 -21.9 -37.65 -21.75 -37.65 84.0 -23.15 84.35 -23.15 84.25 -21.9 -33.25 -37.9 -33.75 -38.0 -34.25 -38.0 -34.5 -38.15 -34.15 -38.25 -34.0 -39.25 M-53.9 -40.65 L-171.15 -56.65 -170.75 -57.9 -58.75 -42.65 -58.65 -42.65 -57.25 -42.4 -56.9 -42.4 -56.65 -42.25 -55.9 -42.25 -55.65 -42.15 -55.0 -42.15 -54.75 -42.0 -54.0 -42.0 -53.75 -41.9 -53.15 -41.9 -52.9 -41.75 -52.15 -41.75 -51.9 -41.65 -51.4 -41.65 -51.15 -41.65 -50.9 -41.5 -50.4 -41.5 -50.0 -41.4 -49.5 -41.4 -49.0 -41.25 -48.4 -41.25 -48.25 -41.15 -48.4 -40.65 -46.75 -39.75 -48.4 -39.9 -53.15 -40.65 -53.4 -40.65 -53.9 -40.65 M-51.4 -42.65 L-51.5 -43.0 -50.4 -43.25 -51.4 -42.65 M-45.5 -36.5 L-40.5 -35.75 -40.9 -34.25 -45.4 -34.9 -46.9 -35.0 -46.75 -36.0 -46.75 -36.65 -46.5 -36.65 -45.5 -36.5 M-25.4 -19.5 L-25.25 -19.5 -25.15 -19.25 -25.4 -19.5 M-29.9 -24.75 L-30.25 -25.5 -31.4 -26.15 Q-28.15 -28.65 -23.4 -23.4 -26.9 -26.5 -29.4 -24.75 L-29.9 -24.75 M-56.5 -28.4 L-56.65 -28.4 -56.75 -28.25 -57.0 -28.25 Q-59.0 -30.9 -63.65 -28.75 -61.15 -32.25 -55.25 -29.25 L-56.25 -28.9 -56.5 -28.4" fill="#000000" fill-rule="evenodd" stroke="none"/>
      <path d="M-25.65 -38.15 L-21.9 -37.65 -25.0 -38.0 -25.65 -38.15 M-54.0 -42.0 L-53.15 -41.9 -52.15 -41.75 -52.9 -41.75 -53.15 -41.9 -53.75 -41.9 -54.0 -42.0 M-49.5 -41.4 L-50.0 -41.4 -50.0 -41.5 -49.5 -41.4 M-50.4 -41.5 L-50.9 -41.5 -51.15 -41.65 -50.4 -41.5 M-64.25 -10.9 L-64.25 -11.0 -64.0 -11.25 -61.65 -12.75 -64.65 -10.15 -64.25 -10.9" fill="#1a1a1a" fill-rule="evenodd" stroke="none"/>
      <path d="M-32.9 -54.9 L-35.0 -53.5 -33.15 -54.9 -32.9 -54.9 M-48.65 -43.65 L-47.65 -44.15 -46.9 -43.75 -47.75 -43.25 -48.15 -43.0 -50.15 -41.75 -50.5 -42.25 -50.65 -42.25 -48.9 -43.65 -48.65 -43.65 M-28.15 -13.5 L-28.15 -13.65 -28.0 -13.65 -27.65 -13.5 -28.15 -13.5 M-35.75 -8.75 L-32.15 -8.25 -27.25 -9.0 -26.75 -8.4 -24.4 -4.75 -23.9 -3.4 -23.9 -2.75 -27.15 1.6 -34.15 2.25 Q-33.65 1.25 -35.25 -2.5 L-35.75 -8.75 M-23.25 -2.0 L-22.9 -2.0 -23.0 -0.65 -23.25 -2.0 M-22.75 -1.9 L-22.65 -1.4 -22.65 0.5 -22.75 3.85 -23.15 4.5 -22.9 1.75 -22.9 0.75 -22.75 -1.9 M-49.5 -43.85 L-49.4 -43.65 -50.4 -43.25 -49.5 -43.85 M-48.4 20.0 L-56.4 19.0 -70.25 16.35 -69.75 12.1 -67.75 14.85 -62.9 12.6 -62.5 10.1 -53.75 11.75 -55.15 15.5 -47.4 16.5 -47.5 16.75 -47.0 16.85 -47.65 17.35 -46.9 17.75 -47.75 18.0 -47.15 18.35 -47.9 18.6 -47.15 18.75 -47.25 19.5 -47.9 19.35 -48.15 19.75 -47.5 19.75 -47.65 20.1 -48.4 20.0" fill="#020202" fill-rule="evenodd" stroke="none"/>
      <path d="M-35.0 -53.5 L-32.9 -54.9 -32.15 -53.9 -44.5 -45.4 -45.0 -46.5 -45.4 -46.25 -45.4 -46.5 -45.0 -46.65 -44.65 -46.9 -44.4 -47.15 -44.0 -47.4 -43.75 -47.5 -43.25 -47.9 -42.25 -48.5 -42.0 -48.75 -41.75 -48.9 -41.5 -49.15 -41.25 -49.25 -35.15 -53.5 -35.0 -53.5" fill="#070707" fill-rule="evenodd" stroke="none"/>
      <path d="M-45.4 -46.25 L-45.0 -46.5 -44.5 -45.4 -44.15 -43.9 -44.15 -43.5 -46.25 -43.15 -46.4 -43.25 -46.9 -43.75 -47.65 -44.15 -48.65 -43.65 -45.4 -46.25 M-32.65 -27.0 L-28.4 -27.25 -22.0 -25.25 -21.5 -24.65 -19.9 -24.0 Q-18.5 -17.25 -24.15 -13.15 L-25.4 -12.65 -25.75 -13.25 -26.4 -13.4 Q-17.4 -16.65 -23.4 -23.4 -28.15 -28.65 -31.4 -26.15 L-32.65 -27.0 M-49.65 -36.9 L-53.5 -39.25 -54.25 -39.9 -53.65 -40.5 -53.4 -40.65 -53.15 -40.65 -48.4 -39.9 -48.65 -38.65 -46.9 -38.4 -45.75 -37.75 -46.75 -36.65 -48.15 -36.0 -49.15 -36.4 -48.9 -39.15 -49.25 -39.15 -49.65 -36.9 M-27.0 -20.4 L-26.0 -20.4 -25.9 -20.25 -25.5 -19.9 -25.4 -19.75 -25.4 -19.5 -26.0 -19.9 -27.0 -19.75 -27.65 -19.5 -27.0 -20.4 M-51.4 -41.65 L-50.65 -42.25 -50.5 -42.25 -50.15 -41.75 -50.0 -41.5 -50.4 -41.5 -51.15 -41.65 -51.4 -41.65 M-59.5 -23.65 L-59.5 -23.25 -59.9 -21.75 -60.65 -21.4 -61.0 -21.4 -61.4 -21.4 -61.75 -21.65 -62.0 -21.75 -62.4 -22.15 -62.5 -22.4 -62.5 -22.9 -62.4 -23.65 -62.25 -23.9 -62.25 -24.0 -62.0 -24.15 -61.4 -24.4 -60.9 -24.5 -59.5 -23.65" fill="#141414" fill-rule="evenodd" stroke="none"/>
      <path d="M-18.75 -8.9 L-23.5 -9.5 -19.75 -9.65 -17.75 -9.4 -18.65 -9.25 -18.75 -8.9 M-72.4 16.75 L-70.75 1.75 -69.65 -3.0 -69.5 -3.65 -69.4 -3.4 -69.5 -3.15 -69.65 -3.0 -69.5 -2.9 -69.9 0.25 -69.4 0.75 -68.4 1.35 -69.0 6.6 -69.75 12.1 -70.25 16.35 -71.75 16.35 -72.4 16.75 M-69.15 -5.25 L-68.15 -10.9 -67.4 -12.65 -63.0 -15.5 -62.25 -14.0 -61.0 -13.4 -61.65 -12.75 -64.0 -11.25 -64.25 -11.0 -64.25 -10.9 -66.4 -8.75 -69.0 -5.4 -69.15 -5.25 M-52.15 -41.75 L-51.4 -42.65 -50.4 -43.25 -49.4 -43.65 -49.5 -43.85 -49.5 -43.9 -48.75 -44.4 -48.5 -44.65 -48.5 -44.75 -45.4 -46.25 -48.65 -43.65 -48.9 -43.65 -50.65 -42.25 -51.4 -41.65 -51.9 -41.65 -52.15 -41.75 M-53.9 -40.65 L-53.4 -40.65 -53.65 -40.5 -53.9 -40.65" fill="#0c0c0c" fill-rule="evenodd" stroke="none"/>
      <path d="M-46.9 -43.75 L-46.4 -43.25 -47.75 -43.25 -46.9 -43.75 M-30.75 14.0 L-30.9 16.75 Q-28.15 19.85 -27.4 19.85 L-26.9 21.25 -25.75 21.85 -38.9 21.1 -47.65 20.1 -47.5 19.75 -48.15 19.75 -47.9 19.35 -47.25 19.5 -47.15 18.75 -47.9 18.6 -47.15 18.35 -47.75 18.0 -46.9 17.75 -47.65 17.35 -47.0 16.85 -47.5 16.75 -47.4 16.5 -39.65 17.35 -39.25 17.25 -39.65 13.5 -30.75 14.0 M-48.4 -41.25 L-49.0 -41.25 -49.5 -41.4 -50.0 -41.5 -50.15 -41.75 -48.15 -43.0 -48.0 -43.0 -48.25 -41.9 -48.25 -41.65 -48.4 -41.25 M-62.5 10.1 L-62.9 12.6 -67.75 14.85 -69.75 12.1 -69.0 6.6 -68.25 5.85 -61.5 2.85 -62.5 5.75 -62.5 10.1" fill="#040404" fill-rule="evenodd" stroke="none"/>
      <path d="M-67.4 -12.65 L-66.9 -14.25 -66.75 -14.4 -66.5 -14.65 -66.25 -14.65 -66.15 -14.9 -62.5 -17.15 -63.0 -15.5 -67.4 -12.65 M-46.4 -43.25 L-46.25 -43.15 -44.15 -43.5 -43.15 -43.65 -42.65 -43.65 -42.15 -43.5 -41.65 -43.4 -42.65 -43.25 -42.9 -42.65 -43.4 -42.65 -44.25 -40.75 -44.4 -39.15 -43.9 -38.0 -45.15 -37.65 -45.75 -37.75 -46.9 -38.4 -48.65 -38.65 -48.4 -39.9 -46.75 -39.75 -48.4 -40.65 -48.25 -41.15 -48.4 -41.25 -48.25 -41.65 -48.25 -41.9 -48.0 -43.0 -48.15 -43.0 -47.75 -43.25 -46.4 -43.25" fill="#191919" fill-rule="evenodd" stroke="none"/>
      <path d="M-66.0 -32.25 L-61.65 -35.25 -62.75 -34.15 -66.0 -32.25 M-59.6 -36.65 L-58.9 -37.15 -59.15 -36.65 -59.6 -36.65 M-51.5 -43.0 L-51.75 -43.15 -51.9 -43.4 -49.0 -45.15 -48.5 -44.75 -48.5 -44.65 -48.75 -44.4 -49.5 -43.9 -49.5 -43.85 -50.4 -43.25 -51.5 -43.0" fill="#010101" fill-rule="evenodd" stroke="none"/>
      <path d="M-44.15 -43.5 L-44.15 -43.9 -43.15 -43.65 -44.15 -43.5 M-27.75 -23.15 L-27.5 -22.5 -28.65 -22.75 -27.75 -23.15 M-46.75 -36.65 L-45.75 -37.75 -45.15 -37.65 -45.5 -36.5 -46.5 -36.65 -46.75 -36.65 M-47.4 -29.4 L-46.9 -35.0 -45.4 -34.9 -45.65 -32.4 -46.15 -31.25 -46.15 -29.25 -47.4 -29.4" fill="#090909" fill-rule="evenodd" stroke="none"/>
      <path d="M-38.4 -39.0 L-38.75 -39.5 -38.9 -39.75 -39.15 -41.15 -39.75 -41.9 -42.15 -42.15 -43.65 -40.75 -43.75 -39.65 -43.75 -39.5 -43.65 -39.25 -43.9 -38.0 -44.4 -39.15 -44.25 -40.75 -43.4 -42.65 -42.9 -42.65 -42.65 -43.25 -41.65 -43.4 -39.5 -43.0 -38.65 -42.15 -38.4 -41.25 -38.4 -39.0 M-28.65 -13.0 L-28.25 -13.25 -27.0 -12.75 -28.65 -13.0 M-42.75 -26.5 L-44.15 -12.75 -50.0 -13.65 -50.5 -13.65 -52.0 -13.9 -52.4 -13.9 -53.0 -14.0 -53.5 -14.0 -53.9 -14.15 -54.5 -14.15 Q-57.4 -16.25 -58.75 -16.15 L-60.25 -17.25 -59.9 -17.5 -58.75 -23.5 -56.0 -26.9 -50.9 -27.0 -42.75 -26.5 M-42.65 -43.65 L-42.4 -43.75 -42.15 -43.5 -42.65 -43.65" fill="#414141" fill-rule="evenodd" stroke="none"/>
      <path d="M-42.4 -43.75 L-42.0 -45.0 -40.15 -45.65 -38.9 -45.0 -38.5 -44.4 -38.5 -43.0 -39.5 -43.0 -41.65 -43.4 -42.15 -43.5 -42.4 -43.75" fill="#555555" fill-rule="evenodd" stroke="none"/>
      <path d="M-38.5 -43.0 Q-36.5 -41.9 -34.15 -41.5 L-34.0 -39.25 -34.15 -38.25 -34.5 -38.15 -34.25 -38.0 -34.25 -37.4 -34.4 -36.75 -37.5 -36.75 -38.4 -39.0 -38.4 -41.25 -38.65 -42.15 -39.5 -43.0 -38.5 -43.0 M-66.75 -14.4 L-66.75 -14.5 -66.5 -14.65 -66.75 -14.4 M-27.0 -20.4 L-27.65 -19.5 -27.65 -19.4 -28.0 -18.15 -27.65 -17.25 -27.5 -16.9 -27.5 -16.75 -28.15 -14.15 -28.15 -13.65 -28.15 -13.5 -28.25 -13.25 -28.65 -13.0 -28.25 -14.15 -28.25 -19.75 -30.0 -23.5 -29.65 -23.9 -29.9 -24.75 -29.4 -24.75 -28.65 -24.0 -29.15 -23.4 -28.65 -22.75 -27.5 -22.5 -27.15 -22.5 -26.9 -21.25 -27.0 -20.4 M-60.75 -17.9 L-60.65 -17.5 -62.15 -17.25 -62.5 -17.15 -66.15 -14.9 -65.15 -16.0 -64.65 -16.65 -64.25 -17.0 -63.9 -17.4 -62.9 -18.15 -62.0 -18.0 -61.4 -18.0 -60.75 -17.9" fill="#434343" fill-rule="evenodd" stroke="none"/>
      <path d="M-43.65 -39.9 L-43.15 -36.65 -43.5 -36.5 -43.9 -38.0 -43.65 -39.25 -43.75 -39.5 -43.75 -39.65 -43.65 -39.9 M-25.4 -19.5 L-25.4 -19.75 -25.5 -19.9 -25.9 -20.25 -26.0 -20.4 -27.0 -20.4 -26.9 -21.25 -27.15 -22.5 -27.5 -22.5 -27.75 -23.15 -25.9 -23.25 -24.0 -22.65 -22.9 -21.4 -22.0 -19.75 -21.75 -18.0 -22.5 -16.25 -25.0 -17.75 -24.9 -18.15 -24.9 -18.65 -25.15 -19.25 -25.25 -19.5 -25.4 -19.5 M-25.25 17.85 L-25.0 18.6 -25.75 21.85 -26.9 21.25 -27.4 19.85 -25.25 17.85 M-50.0 -41.4 L-50.4 -41.5 -50.0 -41.5 -50.0 -41.4 M-57.9 -26.65 L-59.4 -26.65 -59.65 -25.9 -60.15 -24.9 -60.4 -24.9 -60.65 -25.0 -61.15 -24.9 -61.15 -25.4 -61.75 -26.4 -62.0 -27.75 -60.25 -27.75 -58.5 -27.25 -57.9 -26.65 M-47.4 16.5 L-46.65 16.1 -47.25 16.0 -47.25 15.6 -46.65 15.6 -47.15 15.5 -47.15 14.75 -46.5 14.75 -47.0 14.5 -47.0 13.85 -46.4 13.6 -46.9 13.5 -46.75 12.75 -46.5 12.75 -39.65 13.5 -39.25 17.25 -39.65 17.35 -47.4 16.5" fill="#080808" fill-rule="evenodd" stroke="none"/>
      <path d="M-69.5 -3.65 L-69.5 -3.75 -69.4 -3.9 -69.4 -4.25 -69.25 -4.4 -69.4 -4.65 -69.25 -4.9 -69.15 -5.0 -69.15 -5.25 -69.0 -5.4 -69.0 -5.15 -69.15 -5.0 -69.15 -4.5 -69.25 -3.9 -69.4 -3.4 -69.5 -3.65 M-53.5 -39.25 L-65.15 -31.15 -65.75 -31.5 -66.0 -32.25 -62.75 -34.15 -61.65 -35.25 -59.65 -36.65 -59.6 -36.65 -59.15 -36.65 -58.9 -37.15 -58.65 -37.25 -58.15 -37.65 -57.9 -37.9 -55.65 -39.4 -55.4 -39.65 -55.0 -39.9 -54.75 -40.0 -53.9 -40.65 -53.65 -40.5 -54.25 -39.9 -53.5 -39.25 M-37.5 -36.75 L-37.25 -35.65 -40.5 -35.75 -45.5 -36.5 -43.5 -36.5 -43.15 -36.65 -43.65 -39.9 -43.65 -40.15 -43.0 -40.25 -41.9 -40.15 -41.65 -40.15 -41.25 -40.0 -39.9 -39.65 -39.65 -39.9 -38.9 -39.75 -39.4 -39.5 -38.75 -39.5 -38.4 -39.0 -37.5 -36.75 M-69.5 -3.15 L-69.5 -2.9 -69.65 -3.0 -69.5 -3.15" fill="#212121" fill-rule="evenodd" stroke="none"/>
      <path d="M-48.0 20.35 L-60.0 19.0 -72.4 16.75 -71.75 16.35 -70.25 16.35 -56.4 19.0 -48.4 20.0 -47.9 20.1 -48.0 20.35 M-50.5 -29.75 L-49.65 -36.9 -49.25 -39.15 -48.9 -39.15 -49.15 -36.4 -50.0 -29.65 -50.25 -27.65 -50.75 -27.5 -50.5 -29.75 M-34.4 -36.75 L-34.25 -37.4 -34.25 -38.0 -33.75 -38.0 -35.25 -26.75 -35.65 -27.15 -35.4 -27.75 -34.4 -36.75 M-38.9 -39.75 L-39.65 -39.9 -41.25 -40.0 -41.65 -40.15 -41.9 -40.15 -43.0 -40.25 -43.65 -40.15 -43.65 -39.9 -43.75 -39.65 -43.65 -40.75 -42.15 -42.15 -39.75 -41.9 -39.15 -41.15 -38.9 -39.75" fill="#0f0f0f" fill-rule="evenodd" stroke="none"/>
      <path d="M-38.75 -39.5 L-39.4 -39.5 -38.9 -39.75 -38.75 -39.5 M-39.65 -39.9 L-39.9 -39.65 -41.25 -40.0 -39.65 -39.9 M-25.0 -17.75 L-22.5 -16.25 -23.65 -14.9 -24.65 -16.0 -25.4 -17.15 -25.15 -17.4 -25.0 -17.75 M-46.75 12.75 L-53.4 11.75 -46.25 10.35 -46.5 12.75 -46.75 12.75" fill="#131313" fill-rule="evenodd" stroke="none"/>
      <path d="M-54.0 -29.75 L-53.25 -30.0 -50.5 -29.75 -50.75 -27.5 -50.25 -27.65 -50.0 -29.65 -47.4 -29.4 -46.15 -29.25 -46.4 -28.0 -46.15 -27.9 -42.75 -27.15 -42.75 -26.5 -50.9 -27.0 -56.0 -26.9 -56.4 -28.4 -56.25 -28.9 -55.25 -29.25 -54.0 -29.75" fill="#606060" fill-rule="evenodd" stroke="none"/>
      <path d="M-33.25 -37.9 L-34.65 -27.5 -34.9 -25.4 -35.25 -25.5 -35.25 -26.75 -33.75 -38.0 -33.25 -37.9 M-24.25 22.85 L-34.75 22.1 -48.0 20.35 -47.9 20.1 -48.4 20.0 -47.65 20.1 -38.9 21.1 -25.75 21.85 -24.75 22.1 -24.25 22.85 M-43.5 -36.5 L-45.5 -36.5 -45.15 -37.65 -43.9 -38.0 -43.5 -36.5 M-38.5 -34.15 L-39.25 -28.25 -39.5 -27.0 -42.75 -27.15 -46.15 -27.9 -46.4 -28.0 -46.15 -29.25 -46.15 -31.25 -45.65 -32.4 -45.4 -34.9 -40.9 -34.25 -38.5 -34.15" fill="#0e0e0e" fill-rule="evenodd" stroke="none"/>
      <path d="M-34.65 -27.5 L-32.65 -27.0 -31.4 -26.15 -30.25 -25.5 -29.9 -24.75 -29.65 -23.9 -30.0 -23.5 -37.4 -25.5 -42.75 -26.5 -42.75 -27.15 -39.5 -27.0 -39.25 -28.25 -35.4 -27.75 -35.65 -27.15 -35.25 -26.75 -35.25 -25.5 -34.9 -25.4 -34.65 -27.5 M-34.15 2.25 L-27.15 1.6 -29.9 4.1 -30.25 6.6 -30.15 6.85 -29.75 9.85 -30.75 14.0 -39.65 13.5 -46.25 10.35 -45.9 7.0 -39.0 7.75 -38.75 6.6 -39.5 6.5 -45.75 5.0 -45.25 2.1 -42.4 2.5 -40.9 2.6 -34.15 2.25" fill="#737373" fill-rule="evenodd" stroke="none"/>
      <path d="M-75.65 -16.4 L-77.0 -16.5 -78.15 -17.0 -78.9 -17.9 -78.75 -19.0 -78.15 -19.5 -76.25 -19.75 -76.25 -19.4 -75.5 -19.25 -75.25 -18.75 -73.25 -18.4 -78.0 -18.4 -78.15 -18.0 -77.9 -17.75 -74.65 -16.75 -75.4 -16.75 -75.15 -16.5 -75.65 -16.4 M-40.5 -35.75 L-37.25 -35.65 -37.25 -34.15 -38.5 -34.15 -40.9 -34.25 -40.5 -35.75 M-27.65 -19.5 L-27.0 -19.75 -26.0 -19.9 -25.4 -19.5 -25.15 -19.25 -24.9 -18.65 -24.9 -18.15 -25.0 -17.75 -25.15 -17.4 -25.4 -17.15 -26.15 -16.9 -26.75 -16.75 -27.65 -17.25 -28.0 -18.15 -27.65 -19.4 -27.65 -19.5" fill="#151515" fill-rule="evenodd" stroke="none"/>
      <path d="M-66.4 -18.65 L-68.5 -22.5 -68.9 -26.4 -67.75 -30.0 -65.75 -30.5 -58.4 -31.25 -54.0 -29.75 -55.25 -29.25 Q-61.15 -32.25 -63.65 -28.75 -69.9 -23.5 -62.75 -18.4 L-62.9 -18.15 -63.9 -17.4 -64.25 -17.0 -64.65 -17.25 -64.75 -17.4 -66.15 -18.65 -66.4 -18.65 M-62.0 -27.75 L-61.75 -26.4 -61.15 -25.4 -61.15 -24.9 -61.75 -24.75 -61.9 -25.0 -63.15 -26.0 -63.75 -27.0 -62.0 -27.75" fill="#0b0b0b" fill-rule="evenodd" stroke="none"/>
      <path d="M-76.25 -19.75 L-75.15 -19.9 -66.4 -18.65 -66.15 -18.65 -64.75 -17.4 -72.5 -18.4 -73.25 -18.4 -75.25 -18.75 -75.5 -19.25 -76.25 -19.4 -76.25 -19.75 M-65.75 -23.75 L-62.4 -23.65 -62.5 -22.9 -65.0 -22.0 -65.65 -21.9 -65.75 -23.75" fill="#3c3c3c" fill-rule="evenodd" stroke="none"/>
      <path d="M-64.25 -17.0 L-64.65 -16.65 -65.15 -16.0 -66.25 -15.25 -74.4 -16.75 -74.65 -16.75 -77.9 -17.75 -78.15 -18.0 -78.0 -18.4 -73.25 -18.4 -72.5 -18.4 -64.75 -17.4 -64.65 -17.25 -64.25 -17.0 M-56.4 -11.4 L-51.65 -10.75 -54.25 -6.0 -53.75 -3.9 -53.65 -1.0 -54.65 0.0 -60.9 -2.15 -58.75 -5.5 -56.4 -11.4" fill="#1e1e1e" fill-rule="evenodd" stroke="none"/>
      <path d="M-19.75 -9.65 L-23.5 -9.5 -25.0 -12.15 -21.25 -11.75 -21.0 -11.65 -20.4 -11.65 -15.75 -10.4 -15.65 -10.0 -16.25 -9.65 -19.75 -9.65 M-57.0 -28.25 L-57.5 -27.65 -56.9 -27.25 -57.0 -26.9 -57.9 -26.65 -58.5 -27.25 -60.25 -27.75 -62.0 -27.75 -63.75 -27.0 -65.15 -25.5 -65.75 -23.75 -65.65 -21.9 -64.75 -20.25 -63.25 -19.0 -61.4 -18.4 -60.4 -18.5 -60.75 -17.9 -61.4 -18.0 -62.0 -18.0 -62.75 -18.4 Q-69.9 -23.5 -63.65 -28.75 -59.0 -30.9 -57.0 -28.25" fill="#444444" fill-rule="evenodd" stroke="none"/>
      <path d="M-57.0 -28.25 L-56.75 -28.25 -56.65 -28.4 -56.5 -28.4 -56.4 -28.4 -56.0 -26.9 -58.75 -23.5 -59.9 -17.5 -60.25 -17.25 -60.65 -17.5 -60.75 -17.9 -60.4 -18.5 -60.5 -21.4 -60.65 -21.4 -59.9 -21.75 -59.5 -23.25 -59.5 -23.65 -60.15 -24.75 -60.15 -24.9 -59.65 -25.9 -59.4 -26.65 -57.9 -26.65 -57.0 -26.9 -56.9 -27.25 -57.5 -27.65 -57.0 -28.25" fill="#242424" fill-rule="evenodd" stroke="none"/>
      <path d="M-63.75 -27.0 L-63.15 -26.0 -61.9 -25.0 -61.75 -24.75 -62.15 -24.25 -65.15 -25.5 -63.75 -27.0 M-47.15 -10.25 L-46.65 -10.15 -45.65 -8.5 -47.4 -4.4 -47.9 -4.5 -47.15 -10.25 M-42.5 -0.15 L-43.0 -3.4 -42.15 -2.4 -42.5 -0.15" fill="#1d1d1d" fill-rule="evenodd" stroke="none"/>
      <path d="M-24.4 12.0 L-25.25 17.75 -25.25 17.85 -27.4 19.85 Q-28.15 19.85 -30.9 16.75 L-30.75 14.0 -29.75 9.85 -30.15 6.85 -25.25 10.85 -24.4 12.0 M-62.25 -24.0 L-62.25 -23.9 -62.4 -23.65 -65.75 -23.75 -65.15 -25.5 -62.15 -24.25 -62.25 -24.0" fill="#2e2e2e" fill-rule="evenodd" stroke="none"/>
      <path d="M-43.65 -12.65 L-38.0 -12.0 -38.15 -11.25 -44.15 -12.15 -43.9 -12.25 -44.15 -12.5 -43.65 -12.65 M-62.5 -22.9 L-62.5 -22.4 -62.4 -22.15 -63.75 -20.9 -64.75 -20.25 -65.65 -21.9 -65.0 -22.0 -62.5 -22.9" fill="#727272" fill-rule="evenodd" stroke="none"/>
      <path d="M-60.15 -24.75 L-59.5 -23.65 -60.9 -24.5 -61.4 -24.4 -62.0 -24.15 -62.25 -24.0 -62.15 -24.25 -61.75 -24.75 -61.15 -24.9 -60.4 -24.9 -60.15 -24.75 M-66.4 -8.75 L-64.25 -10.9 -64.65 -10.15 -66.0 -8.4 -66.25 -8.65 -66.4 -8.75 M-67.65 -3.9 L-63.4 -3.0 -61.25 0.35 -61.4 2.6 -68.4 1.35 -67.65 -3.9" fill="#0d0d0d" fill-rule="evenodd" stroke="none"/>
      <path d="M-60.15 -24.9 L-60.15 -24.75 -60.4 -24.9 -61.15 -24.9 -60.65 -25.0 -60.4 -24.9 -60.15 -24.9" fill="#222222" fill-rule="evenodd" stroke="none"/>
      <path d="M-21.5 1.0 L-24.25 22.85 -24.75 22.1 -25.75 21.85 -25.0 18.6 -25.25 17.85 -25.25 17.75 -24.4 12.0 -23.65 7.0 -22.65 6.75 -22.15 5.85 -21.9 2.35 -21.5 1.0 M-66.75 -14.5 L-66.5 -15.15 -66.25 -15.25 -65.15 -16.0 -66.15 -14.9 -66.25 -14.65 -66.5 -14.65 -66.75 -14.5 M-56.4 -28.4 L-56.5 -28.4 -56.25 -28.9 -56.4 -28.4 M-62.75 -18.4 L-62.0 -18.0 -62.9 -18.15 -62.75 -18.4 M-61.0 -13.4 L-56.4 -11.4 -58.75 -5.5 -60.9 -2.15 -63.4 -3.0 -66.0 -8.4 -67.65 -3.9 -68.4 1.35 -69.4 0.75 -69.4 -3.4 -69.25 -3.9 -69.15 -4.5 -69.15 -5.0 -69.0 -5.15 -69.0 -5.4 -66.4 -8.75 -66.25 -8.65 -66.0 -8.4 -64.65 -10.15 -61.65 -12.75 -61.0 -13.4" fill="#1b1b1b" fill-rule="evenodd" stroke="none"/>
      <path d="M-24.15 -13.15 L-17.0 -12.15 -16.9 -11.65 -18.15 -11.4 -20.4 -11.65 -21.0 -11.65 -21.25 -11.75 -25.0 -12.15 -25.4 -12.65 -24.15 -13.15" fill="#515151" fill-rule="evenodd" stroke="none"/>
      <path d="M-23.5 -9.5 L-23.4 -9.25 -26.0 -12.15 -26.75 -12.75 -27.0 -12.75 -28.25 -13.25 -28.15 -13.5 -27.65 -13.5 -27.0 -13.5 -26.4 -13.4 -25.75 -13.25 -25.4 -12.65 -25.0 -12.15 -23.5 -9.5 M-44.15 -12.75 L-43.75 -12.65 -43.65 -12.65 -44.15 -12.5 -43.9 -12.25 -44.15 -12.15 -49.65 -12.75 -50.0 -13.65 -44.15 -12.75" fill="#6d6d6d" fill-rule="evenodd" stroke="none"/>
      <path d="M-22.5 -16.25 L-21.75 -18.0 -22.0 -19.75 -22.9 -21.4 -24.0 -22.65 -25.9 -23.25 -27.75 -23.15 -28.65 -22.75 -29.15 -23.4 -28.65 -24.0 -29.4 -24.75 Q-26.9 -26.5 -23.4 -23.4 -17.4 -16.65 -26.4 -13.4 L-27.0 -13.5 -27.65 -13.5 -28.0 -13.65 -28.15 -13.65 -28.15 -14.15 -27.0 -13.9 -25.4 -14.15 -23.65 -14.9 -22.5 -16.25" fill="#585858" fill-rule="evenodd" stroke="none"/>
      <path d="M-60.65 -17.5 L-60.25 -17.25 -62.15 -17.25 -60.65 -17.5 M-61.4 2.6 L-61.25 0.35 -63.4 -3.0 -60.9 -2.15 -54.65 0.0 -51.15 1.35 -49.75 1.5 -46.15 2.0 -45.25 2.1 -45.75 5.0 -52.15 4.85 -52.9 4.85 -53.0 6.1 -45.9 7.0 -46.25 10.35 -53.4 11.75 -53.75 11.75 -62.5 10.1 -62.5 5.75 -61.5 2.85 -61.4 2.6" fill="#313131" fill-rule="evenodd" stroke="none"/>
      <path d="M-60.65 -21.4 L-60.5 -21.4 -60.4 -18.5 -61.4 -18.4 -61.0 -20.5 -61.0 -21.4 -60.65 -21.4" fill="#3e3e3e" fill-rule="evenodd" stroke="none"/>
      <path d="M-30.0 -23.5 L-28.25 -19.75 -28.25 -14.15 -28.65 -13.0 -28.65 -12.5 -33.75 -11.5 -34.4 -11.5 -34.75 -11.65 -35.15 -11.65 -37.75 -12.0 -38.0 -12.0 -43.65 -12.65 -43.75 -12.65 -44.15 -12.75 -42.75 -26.5 -37.4 -25.5 -30.0 -23.5" fill="#b0b0b0" fill-rule="evenodd" stroke="none"/>
      <path d="M-61.0 -13.4 L-62.25 -14.0 -63.0 -15.5 -54.5 -14.15 -53.9 -14.15 -53.5 -14.0 -53.0 -14.0 -52.4 -13.9 -52.0 -13.9 -50.5 -13.65 -50.0 -13.65 -49.65 -12.75 -44.15 -12.15 -44.0 -9.9 -44.9 -9.9 -46.65 -10.15 -47.15 -10.25 -47.75 -10.25 -51.65 -10.75 -56.4 -11.4 -61.0 -13.4 M-39.5 6.5 L-45.75 5.85 -45.75 5.0 -39.5 6.5" fill="#565656" fill-rule="evenodd" stroke="none"/>
      <path d="M-62.5 -17.15 L-62.15 -17.25 -60.25 -17.25 -58.75 -16.15 Q-57.4 -16.25 -54.5 -14.15 L-63.0 -15.5 -62.5 -17.15 M-45.9 7.0 L-45.75 5.85 -39.5 6.5 -38.75 6.6 -39.0 7.75 -45.9 7.0" fill="#3d3d3d" fill-rule="evenodd" stroke="none"/>
      <path d="M-62.4 -22.15 L-62.0 -21.75 -61.75 -21.65 -62.5 -20.15 -63.25 -19.0 -64.75 -20.25 -63.75 -20.9 -62.4 -22.15" fill="#999999" fill-rule="evenodd" stroke="none"/>
      <path d="M-61.75 -21.65 L-61.4 -21.4 -61.0 -21.4 -61.0 -20.5 -61.4 -18.4 -63.25 -19.0 -62.5 -20.15 -61.75 -21.65" fill="#777777" fill-rule="evenodd" stroke="none"/>
      <path d="M-27.65 -17.25 L-26.75 -16.75 -27.15 -15.4 -27.5 -16.75 -27.5 -16.9 -27.65 -17.25" fill="#848484" fill-rule="evenodd" stroke="none"/>
      <path d="M-27.15 -15.4 L-27.0 -13.9 -28.15 -14.15 -27.5 -16.75 -27.15 -15.4" fill="#838383" fill-rule="evenodd" stroke="none"/>
      <path d="M-66.5 -15.15 L-75.65 -16.4 -75.15 -16.5 -75.4 -16.75 -74.65 -16.75 -74.4 -16.75 -66.25 -15.25 -66.5 -15.15" fill="#0a0a0a" fill-rule="evenodd" stroke="none"/>
      <path d="M-25.4 -17.15 L-24.65 -16.0 -23.65 -14.9 -25.4 -14.15 -25.9 -15.4 -26.15 -16.9 -25.4 -17.15" fill="#252525" fill-rule="evenodd" stroke="none"/>
      <path d="M-26.75 -16.75 L-26.15 -16.9 -25.9 -15.4 -25.4 -14.15 -27.0 -13.9 -27.15 -15.4 -26.75 -16.75" fill="#494949" fill-rule="evenodd" stroke="none"/>
      <path d="M-33.75 -11.5 L-28.65 -12.5 -28.65 -13.0 -27.0 -12.75 -26.75 -12.75 -26.0 -12.15 -25.65 -10.9 -25.15 -10.4 -33.75 -11.5 M-44.9 -9.9 L-44.0 -9.9 -43.75 -9.75 -43.0 -3.4 -42.5 -0.15 -42.4 0.75 -42.4 2.5 -45.25 2.1 -46.15 2.0 -44.9 -9.9" fill="#4e4e4e" fill-rule="evenodd" stroke="none"/>
      <path d="M-17.0 -12.15 Q-11.75 -9.25 -18.65 -8.9 L-18.75 -8.9 -18.65 -9.25 -17.75 -9.4 -19.75 -9.65 -16.25 -9.65 -15.65 -10.0 -15.75 -10.4 -20.4 -11.65 -18.15 -11.4 -16.9 -11.65 -17.0 -12.15 M-23.4 -9.25 L-22.0 -7.0 -25.15 -10.4 -25.65 -10.9 -26.0 -12.15 -23.4 -9.25" fill="#2f2f2f" fill-rule="evenodd" stroke="none"/>
      <path d="M-38.0 -12.0 L-37.75 -12.0 -35.15 -11.65 -34.75 -11.65 -34.4 -11.5 -33.75 -11.5 -25.15 -10.4 -25.9 -9.25 -27.25 -9.0 -32.15 -8.25 -35.75 -8.75 -43.75 -9.75 -44.0 -9.9 -44.15 -12.15 -38.15 -11.25 -38.0 -12.0" fill="#747474" fill-rule="evenodd" stroke="none"/>
      <path d="M-35.75 -8.75 L-35.25 -2.5 Q-33.65 1.25 -34.15 2.25 L-40.9 2.6 -42.4 0.75 -42.5 -0.15 -42.15 -2.4 -43.0 -3.4 -43.75 -9.75 -35.75 -8.75 M-46.65 -10.15 L-44.9 -9.9 -45.65 -8.5 -46.65 -10.15" fill="#060606" fill-rule="evenodd" stroke="none"/>
      <path d="M-47.75 -10.25 L-47.15 -10.25 -47.9 -4.5 -53.65 -1.0 -53.75 -3.9 -47.75 -10.25" fill="#808080" fill-rule="evenodd" stroke="none"/>
      <path d="M-51.65 -10.75 L-47.75 -10.25 -53.75 -3.9 -54.25 -6.0 -51.65 -10.75" fill="#393939" fill-rule="evenodd" stroke="none"/>
      <path d="M-63.4 -3.0 L-67.65 -3.9 -66.0 -8.4 -63.4 -3.0" fill="#060a06" fill-rule="evenodd" stroke="none"/>
      <path d="M-27.15 1.6 L-23.9 -2.75 -23.65 -3.0 -23.25 -2.0 -23.0 -0.65 -22.9 0.75 -22.9 1.75 -27.15 1.6" fill="#111710" fill-rule="evenodd" stroke="none"/>
      <path d="M-22.0 -7.0 L-22.0 -6.9 -21.4 -5.9 -21.5 1.0 -21.9 0.5 -22.25 -0.4 -22.5 -1.0 -22.65 -1.4 -22.75 -1.9 -22.9 -2.0 -23.15 -3.0 -23.75 -4.75 -24.15 -4.9 -24.75 -6.5 -26.75 -8.4 -27.25 -9.0 -25.9 -9.25 -25.15 -10.4 -22.0 -7.0" fill="#7a7a7a" fill-rule="evenodd" stroke="none"/>
      <path d="M-45.65 -8.5 L-44.9 -9.9 -46.15 2.0 -49.75 1.5 -47.9 -3.25 -47.75 -3.4 -47.65 -3.75 -47.65 -4.0 -47.4 -4.4 -45.65 -8.5" fill="#323232" fill-rule="evenodd" stroke="none"/>
      <path d="M-54.65 0.0 L-53.65 -1.0 -47.9 -4.5 -47.65 -4.0 -47.65 -3.75 -47.75 -3.4 -47.9 -3.25 -49.75 1.5 -51.15 1.35 -54.65 0.0 M-45.75 5.85 L-52.15 4.85 -45.75 5.0 -45.75 5.85" fill="#4a4a4a" fill-rule="evenodd" stroke="none"/>
      <path d="M-42.4 2.5 L-42.4 0.75 -40.9 2.6 -42.4 2.5 M-47.4 -4.4 L-47.65 -4.0 -47.9 -4.5 -47.4 -4.4" fill="#2d2d2d" fill-rule="evenodd" stroke="none"/>
      <path d="M-24.4 -4.75 L-26.75 -8.4 -24.75 -6.5 -24.15 -4.9 -24.4 -4.75" fill="#7f7f7f" fill-rule="evenodd" stroke="none"/>
      <path d="M-23.9 -3.4 L-24.4 -4.75 -24.15 -4.9 -23.75 -4.75 -23.15 -3.0 -23.65 -3.0 -23.9 -3.4" fill="#6a6a6a" fill-rule="evenodd" stroke="none"/>
      <path d="M-21.9 0.5 L-21.5 1.0 -21.9 2.35 -21.9 0.5" fill="#292929" fill-rule="evenodd" stroke="none"/>
      <path d="M-69.5 -4.0 L-69.4 -4.25 -69.4 -3.9 -69.5 -4.0 M-69.4 -4.65 L-69.4 -5.15 -69.25 -5.15 -69.25 -4.9 -69.4 -4.65 M-22.25 -0.4 L-21.9 0.5 -21.9 2.35 -22.15 5.85 -22.65 6.75 -23.65 7.0 -23.15 4.5 -22.75 4.85 -22.5 5.5 -22.25 -0.4 M-46.25 10.35 L-39.65 13.5 -46.5 12.75 -46.25 10.35" fill="#171717" fill-rule="evenodd" stroke="none"/>
      <path d="M-22.5 -1.0 L-22.25 -0.4 -22.5 5.5 -22.75 4.85 -22.75 3.85 -22.65 0.5 -22.5 -1.0 M-68.4 1.35 L-61.4 2.6 -61.5 2.85 -68.25 5.85 -69.0 6.6 -68.4 1.35 M-47.4 16.5 L-55.15 15.5 -53.75 11.75 -53.4 11.75 -46.75 12.75 -46.9 13.5 -46.4 13.6 -47.0 13.85 -47.0 14.5 -46.5 14.75 -47.15 14.75 -47.15 15.5 -46.65 15.6 -47.25 15.6 -47.25 16.0 -46.65 16.1 -47.4 16.5" fill="#050505" fill-rule="evenodd" stroke="none"/>
      <path d="M-69.5 -3.75 L-69.5 -4.0 -69.4 -3.9 -69.5 -3.75 M-69.4 -4.25 L-69.4 -4.65 -69.25 -4.4 -69.4 -4.25 M-69.4 -5.15 L-69.15 -5.25 -69.15 -5.0 -69.25 -4.9 -69.25 -5.15 -69.4 -5.15" fill="#1f1f1f" fill-rule="evenodd" stroke="none"/>
      <path d="M-22.9 1.75 L-23.15 4.5 -23.65 7.0 -30.25 6.6 -29.9 4.1 -27.15 1.6 -22.9 1.75" fill="#5a5a5a" fill-rule="evenodd" stroke="none"/>
      <path d="M-23.65 7.0 L-24.4 12.0 -25.25 10.85 -30.15 6.85 -30.25 6.6 -23.65 7.0" fill="#525252" fill-rule="evenodd" stroke="none"/>
      <path d="M-45.75 5.85 L-45.9 7.0 -53.0 6.1 -52.9 4.85 -52.15 4.85 -45.75 5.85" fill="#2b2b2b" fill-rule="evenodd" stroke="none"/>
      <path d="M-45.75 2.0 L-46.15 2.0 -51.25 1.35 -60.75 -2.15 -61.0 -2.15 -61.9 -2.5 -63.4 -2.9 -63.5 -3.0 -65.65 -7.9 -66.0 -8.4 -66.0 -8.5 -65.4 -9.15 -64.65 -10.5 -64.25 -10.9 -64.25 -11.0 -64.0 -11.25 -61.5 -13.0 -61.4 -13.0 -61.0 -13.4 -60.25 -13.0 -57.25 -11.75 -56.4 -11.5 -56.4 -11.4 -56.0 -11.4 -55.15 -11.25 -54.75 -11.25 -53.65 -11.0 -52.75 -11.0 -50.9 -10.65 -49.9 -10.65 -48.0 -10.25 -47.75 -10.15 -47.15 -10.25 -46.65 -10.15 -46.25 -10.15 -44.9 -9.9 -44.65 -9.25 -44.65 -9.0 -44.5 -9.0 -44.65 -8.5 -44.75 -8.5 -44.75 -8.0 -44.75 -7.15 -44.9 -6.9 -44.75 -6.9 -44.75 -6.15 -45.0 -5.9 -44.9 -5.9 -44.9 -5.4 -45.0 -5.0 -45.0 -4.5 -45.15 -4.0 -45.15 -3.5 -45.25 -3.0 -45.25 -2.15 -45.4 -1.75 -45.4 -1.65 -45.4 -1.0 -45.5 -0.75 -45.75 2.0" fill="#060606" fill-opacity="0.50980395" fill-rule="evenodd" stroke="none"/>
      <path d="M-44.9 -9.9 L-44.5 -9.9 -44.4 -9.5 -44.65 -9.25 -44.5 -9.0 -44.65 -9.0 -44.65 -9.25 -44.9 -9.9 M-44.65 -8.5 L-44.75 -8.0 -44.75 -8.5 -44.65 -8.5 M-44.75 -7.15 L-44.75 -6.9 -44.9 -6.9 -44.75 -7.15 M-44.75 -6.15 L-44.9 -5.9 -45.0 -5.9 -44.75 -6.15 M-45.15 -3.5 L-45.15 -2.65 -45.25 -2.15 -45.4 -1.65 -45.4 -1.75 -45.25 -2.15 -45.25 -3.0 -45.15 -3.5 M-45.4 -1.0 L-45.5 1.35 -45.75 2.0 -45.5 -0.75 -45.4 -1.0" fill="#0f0f0f" fill-rule="evenodd" stroke="none"/>
      <path d="M-45.5 2.1 L-45.75 2.0 -45.5 1.35 -45.4 -1.0 -45.4 -1.65 -45.25 -2.15 -45.15 -2.65 -45.15 -3.5 -45.15 -4.0 -45.0 -4.5 -45.0 -5.0 -44.9 -5.4 -44.9 -5.9 -44.75 -6.15 -44.75 -6.9 -44.75 -7.15 -44.75 -8.0 -44.65 -8.5 -44.5 -9.0 -44.65 -9.25 -44.4 -9.5 -44.5 -9.9 -44.0 -9.75 -44.25 -9.5 -44.25 -9.4 -45.5 2.1" fill="#161616" fill-rule="evenodd" stroke="none"/>
      <path d="M-66.0 -8.4 L-67.65 -4.25 -67.65 -3.9 -68.4 1.35 -69.65 0.75 -69.9 0.5 -70.0 0.25 -69.9 -2.15 -69.65 -2.25 -69.65 -2.4 -69.75 -2.5 -69.5 -4.15 -69.5 -4.25 -69.4 -4.65 -69.4 -4.9 -69.25 -5.5 -69.0 -5.5 -66.4 -8.75 -66.0 -8.5 -66.0 -8.4" fill="#000000" fill-opacity="0.50980395" fill-rule="evenodd" stroke="none"/>
      <path d="M-44.0 -9.75 L-43.4 -9.75 -38.25 -9.0 -37.75 -9.0 -36.5 -8.75 -31.9 -8.25 -31.4 -8.4 -31.0 -8.4 -27.25 -9.0 -27.0 -8.65 -26.65 -7.9 -26.4 -8.0 -24.9 -6.5 -24.15 -4.9 -24.4 -4.75 -23.9 -3.4 -23.9 -2.75 -24.0 -2.4 -24.25 -2.0 -24.5 -1.75 -24.75 -1.4 -24.9 -1.25 -25.5 -0.4 -25.75 -0.15 -26.0 0.25 -26.15 0.35 -26.4 0.75 -26.5 0.85 -26.75 1.25 -27.0 1.5 -27.15 1.6 -27.65 1.75 -34.15 2.25 -34.65 2.35 -35.15 2.35 -36.0 2.5 -37.15 2.5 -39.75 2.85 -40.9 2.6 -45.25 2.1 -45.5 2.1 -44.25 -9.4 -44.25 -9.5 -44.0 -9.75 M-23.65 -3.0 L-23.15 -3.0 -23.0 -2.25 -23.0 -2.15 -23.15 -2.0 -23.25 -2.0 -23.65 -3.0 M-22.65 2.85 L-22.65 3.25 -22.75 3.25 -22.75 2.85 -22.65 2.85" fill="#131313" fill-opacity="0.50980395" fill-rule="evenodd" stroke="none"/>
      <path d="M-23.9 -3.4 L-23.65 -3.0 -23.75 -2.75 -23.9 -2.75 -23.9 -3.4" fill="#272727" fill-opacity="0.50980395" fill-rule="evenodd" stroke="none"/>
      <path d="M-23.0 -2.25 L-22.9 -2.0 -22.9 -1.75 -22.9 -0.15 -22.75 -1.25 -22.75 -1.5 -22.5 -0.75 -22.5 0.5 -22.65 0.5 -22.65 2.85 -22.75 2.85 -22.75 3.25 -22.75 4.25 -22.9 4.6 -23.15 4.5 -23.0 4.1 -23.0 3.5 -23.0 2.75 -22.9 2.0 -22.9 1.75 -22.9 0.85 -23.15 -0.65 -23.25 -0.75 -23.15 -2.0 -23.0 -2.15 -23.0 -2.25" fill="#090909" fill-rule="evenodd" stroke="none"/>
      <path d="M-22.9 -1.75 L-22.75 -1.5 -22.75 -1.25 -22.9 -0.15 -22.9 -1.75 M-22.5 -0.75 L-22.4 -0.75 -22.4 -0.5 -22.25 -0.5 -22.25 -0.15 -22.15 0.0 -21.9 0.5 -21.5 1.0 -21.9 2.5 -21.75 3.1 -21.75 3.25 -21.9 4.0 -21.9 4.75 -22.0 5.1 -22.0 5.75 -22.4 6.25 -22.5 6.6 -22.65 6.6 -23.65 7.0 -23.4 6.6 -23.4 6.5 -23.15 4.5 -23.15 3.85 -23.0 3.5 -23.0 4.1 -23.15 4.5 -22.9 4.6 -22.75 4.25 -22.75 3.25 -22.65 3.25 -22.65 2.85 -22.65 0.5 -22.5 0.5 -22.5 -0.75 M-22.9 1.75 L-23.0 1.25 -22.9 0.85 -22.9 1.75 M-23.25 -0.75 L-23.25 -2.0 -23.15 -2.0 -23.25 -0.75" fill="#090909" fill-opacity="0.50980395" fill-rule="evenodd" stroke="none"/>
    </g>
  </defs>
</svg>
