<?xml version="1.0" encoding="UTF-8" standalone="no"?>
<svg xmlns:xlink="http://www.w3.org/1999/xlink" height="1034.2px" width="773.35px" xmlns="http://www.w3.org/2000/svg">
  <g transform="matrix(1.0, 0.0, 0.0, 1.0, 365.9, 551.4)">
    <use height="80.5" transform="matrix(1.0, 0.0, 0.0, 1.0, -167.15, -55.75)" width="249.25" xlink:href="#shape0"/>
  </g>
  <defs>
    <g id="shape0" transform="matrix(1.0, 0.0, 0.0, 1.0, 167.15, 55.75)">
      <path d="M-38.25 -43.4 L-34.75 -44.5 -36.75 -41.9 -35.75 -41.15 -36.9 -40.5 -37.4 -40.65 -38.15 -40.4 -38.9 -40.4 -39.25 -40.15 -41.65 -39.5 -42.4 -40.4 -41.9 -40.9 -41.75 -41.15 -40.65 -42.15 -40.0 -42.15 -38.25 -43.4 M18.25 -29.5 L-23.65 -35.4 -24.0 -35.4 -24.5 -35.5 -25.0 -35.25 -28.0 -35.9 -31.75 -36.4 -31.9 -36.5 -31.9 -37.25 -31.65 -37.65 -30.9 -37.65 16.5 -31.5 18.5 -30.9 18.25 -29.5 M-55.75 -26.5 L-47.4 -36.75 -47.15 -37.0 -46.5 -37.25 -46.4 -37.25 -46.4 -36.9 -48.5 -34.75 -48.4 -34.4 -49.75 -33.0 -50.0 -32.15 -52.15 -30.0 -54.65 -26.65 -55.75 -26.5 M-48.9 -37.25 L-51.0 -36.65 -51.75 -37.4 -48.9 -37.25 M-166.65 -42.15 L-167.15 -42.25 -167.15 -43.4 -166.75 -43.5 -166.5 -43.4 -166.65 -42.15 M-50.65 -38.75 L-50.5 -39.0 -68.65 -41.4 -68.9 -42.15 -68.9 -42.5 -68.5 -42.5 -39.75 -38.75 -39.75 -38.25 -44.55 -38.35 -46.15 -38.4 -46.65 -38.5 -49.25 -38.75 -50.65 -38.75 M-48.25 -40.25 L-44.5 -41.4 -45.0 -40.5 -45.25 -39.9 -45.65 -39.9 -48.25 -40.25 M-40.5 -44.75 L-40.5 -44.9 -39.15 -46.0 -37.4 -48.75 -32.0 -55.25 -30.75 -55.65 -39.65 -44.9 -39.9 -44.65 -40.25 -44.5 -40.5 -44.75 M-45.65 -25.75 L-46.65 -25.0 -47.15 -24.5 -47.15 -24.4 -47.4 -24.25 Q-47.4 -25.65 -51.15 -25.65 L-54.25 -24.4 -53.9 -25.15 -51.65 -26.5 -49.25 -26.9 -46.75 -26.4 -45.65 -25.75 M-19.4 -23.25 L-21.5 -24.65 Q-18.0 -27.0 -13.65 -23.15 L-16.65 -24.15 -19.4 -23.25" fill="#000000" fill-rule="evenodd" stroke="none"/>
      <path d="M-30.75 -55.65 L-30.4 -55.75 -29.65 -54.9 -38.65 -44.25 -39.0 -44.9 -39.0 -45.0 -39.25 -45.25 -39.65 -44.9 -30.75 -55.65" fill="#727272" fill-rule="evenodd" stroke="none"/>
      <path d="M-38.65 -44.25 L-38.25 -43.4 -40.0 -42.15 -40.65 -42.15 -39.0 -44.9 -38.65 -44.25 M-37.4 -40.65 L-37.5 -40.4 -38.15 -40.4 -37.4 -40.65 M-42.9 -39.5 L-42.4 -40.4 -41.65 -39.5 -39.25 -40.15 -39.65 -39.4 -39.4 -39.25 -39.75 -39.15 -42.9 -39.5 M-45.75 -35.9 L-45.4 -36.4 -46.4 -36.9 -46.0 -37.15 -39.5 -36.9 -39.9 -36.15 -40.4 -36.25 -40.4 -34.0 -45.75 -35.9" fill="#131313" fill-rule="evenodd" stroke="none"/>
      <path d="M23.75 -30.75 L23.85 -30.75 23.85 -29.15 18.25 -29.5 18.5 -30.9 23.75 -30.75 M-47.4 -36.75 L-47.4 -37.25 -46.5 -37.25 -47.15 -37.0 -47.4 -36.75 M-44.5 -41.4 L-43.15 -42.9 -40.5 -44.75 -40.25 -44.5 -39.9 -44.65 -39.65 -44.9 -39.25 -45.25 -39.0 -45.0 -39.0 -44.9 -40.65 -42.15 -41.75 -41.15 -41.9 -40.9 -42.4 -40.4 -42.9 -39.5 -45.25 -39.9 -45.0 -40.5 -44.25 -41.25 -44.5 -41.4 M-47.25 7.75 L-48.0 10.75 -47.5 15.1 -47.65 17.6 -48.0 17.85 -51.5 20.0 -52.75 20.35 -55.0 17.6 -54.75 11.85 -47.25 7.75 M-46.4 -36.9 L-46.4 -37.25 -46.0 -37.15 -46.4 -36.9" fill="#030303" fill-rule="evenodd" stroke="none"/>
      <path d="M-68.5 -42.5 L-48.25 -40.25 -45.65 -39.9 -45.25 -39.9 -42.9 -39.5 -39.75 -39.15 -39.75 -38.75 -68.5 -42.5 M-27.4 -37.5 L-24.9 -37.15 -28.25 -37.5 -27.4 -37.5" fill="#070707" fill-rule="evenodd" stroke="none"/>
      <path d="M-57.65 22.6 L-57.25 3.75 -57.15 3.35 -57.15 2.75 -57.0 2.5 -57.15 2.5 -57.0 2.1 -57.0 1.85 -56.9 1.5 -56.75 1.0 -56.75 0.6 -56.9 0.6 -56.75 0.25 -56.75 0.0 -56.65 -0.25 -56.75 -0.25 -56.65 -0.65 -56.65 -1.0 -56.5 -1.25 -56.65 -1.25 -56.5 -1.5 -56.5 -1.9 -56.4 -2.15 -56.5 -2.15 -56.4 -2.5 -56.4 -2.75 -56.25 -3.15 -56.25 -3.75 -56.15 -4.0 -56.25 -4.0 -56.15 -4.4 -56.15 -4.65 -56.0 -4.9 -56.15 -4.9 -56.0 -5.25 -56.0 -5.65 -55.9 -5.9 -56.0 -5.9 -55.9 -6.25 -55.9 -6.75 -55.75 -6.9 -55.15 -7.25 -53.75 -8.75 -51.0 -10.75 -50.0 -9.4 -48.5 -8.9 -49.0 -8.25 -51.25 -6.5 -51.5 -6.25 -51.5 -6.15 -52.65 -4.9 -53.5 -3.65 -53.9 -3.75 -56.4 0.75 Q-56.0 3.75 -56.65 5.6 L-54.65 6.75 -54.75 11.85 -55.0 17.6 -55.25 22.0 -56.9 22.1 -57.65 22.6 M-166.75 -43.5 L-50.65 -38.75 -49.25 -38.75 -46.65 -38.5 -166.5 -43.4 -166.75 -43.5 M-16.75 -21.9 L-15.0 -22.0 -13.25 -21.5 -11.75 -20.5 -10.75 -18.9 -10.65 -17.0 -11.0 -15.25 -13.65 -16.5 -13.5 -17.0 -13.5 -17.5 -14.0 -18.25 -14.25 -18.4 -14.4 -18.65 -14.5 -18.75 -14.75 -18.9 -15.0 -19.15 -15.5 -19.25 -15.75 -19.15 -16.15 -19.15 -15.9 -19.9 -16.25 -20.5 -16.15 -21.15 -16.65 -21.15 -16.75 -21.9 M-39.75 -38.25 L-39.5 -38.15 -44.55 -38.35 -39.75 -38.25 M-51.9 -23.5 L-50.0 -23.65 -48.25 -23.25 -47.5 -22.65 -49.15 -22.65 -49.4 -21.75 -49.5 -21.0 -49.65 -20.75 -49.75 -20.65 -50.0 -20.75 -50.9 -20.75 -50.9 -21.15 -51.5 -22.15 -51.9 -23.5" fill="#080808" fill-rule="evenodd" stroke="none"/>
      <path d="M-24.5 -37.5 L-15.75 -37.25 -15.75 -37.2 -15.9 -36.15 -24.5 -37.15 -24.5 -37.5 M-47.4 -37.25 L-48.9 -37.25 -51.75 -37.4 -166.65 -42.15 -166.5 -43.4 -46.65 -38.5 -46.15 -38.4 -44.55 -38.35 -39.5 -38.15 -38.75 -38.15 -38.15 -38.15 -37.4 -38.15 -36.0 -36.9 -38.5 -36.9 -39.5 -36.9 -46.0 -37.15 -46.4 -37.25 -46.5 -37.25 -47.4 -37.25 M-32.9 -6.75 L-32.65 -6.65 -32.65 -6.4 -32.9 -6.75 M-25.0 -6.4 Q-24.9 -1.65 -22.25 3.85 L-22.75 5.25 -25.4 5.75 -28.65 5.6 -31.15 -6.75 -25.0 -6.4 M-9.25 -0.75 L-8.9 0.0 -8.75 2.5 -9.25 0.0 -9.25 -0.75 M-31.0 20.25 L-31.65 20.25 -39.4 20.0 -38.5 16.0 -38.0 16.0 -31.4 16.5 Q-30.9 18.1 -31.5 20.1 L-31.0 20.25" fill="#060606" fill-rule="evenodd" stroke="none"/>
      <path d="M-34.75 -44.5 L-34.4 -44.65 -33.65 -43.9 -35.15 -41.75 -35.75 -41.15 -36.75 -41.9 -34.75 -44.5" fill="#707070" fill-rule="evenodd" stroke="none"/>
      <path d="M-35.15 -41.75 L-34.4 -41.5 -34.75 -41.0 -36.9 -40.5 -35.75 -41.15 -35.15 -41.75 M-35.65 -34.9 L-36.0 -26.4 -37.25 -26.5 -37.0 -35.25 -35.65 -34.9" fill="#5c5c5c" fill-rule="evenodd" stroke="none"/>
      <path d="M-34.4 -41.5 L-33.9 -41.75 -34.0 -41.25 -34.15 -41.15 -34.65 -41.0 -34.75 -41.0 -34.4 -41.5 M-23.0 -25.4 Q-6.4 -26.9 -9.75 -17.75 L-9.9 -19.5 -10.4 -19.65 -11.0 -21.15 -13.65 -23.15 Q-18.0 -27.0 -21.5 -24.65 L-23.0 -25.4 M-12.4 -13.0 L-12.9 -12.4 -14.0 -11.9 -15.25 -12.0 -13.75 -12.25 Q-13.05 -12.6 -12.4 -13.0 M-37.9 -7.0 L-37.15 -7.0 -33.9 -2.65 -34.9 0.5 -37.9 -1.65 -38.15 -1.9 -37.9 -7.0 M-8.9 0.0 L-8.25 1.35 -7.9 7.6 -8.15 8.25 -8.75 8.35 -8.75 3.25 -8.75 2.5 -8.9 0.0" fill="#191919" fill-rule="evenodd" stroke="none"/>
      <path d="M-33.9 -41.75 Q-30.65 -45.65 -29.4 -40.75 L-29.9 -40.65 -33.0 -41.0 -33.9 -41.15 -34.0 -41.25 -33.9 -41.75" fill="#555555" fill-rule="evenodd" stroke="none"/>
      <path d="M-29.4 -40.75 L-25.15 -39.75 -24.75 -39.4 -24.5 -37.5 -24.5 -37.15 -24.9 -37.15 -27.4 -37.5 -28.15 -39.25 -29.0 -39.65 -29.9 -40.65 -29.4 -40.75 M-12.9 -12.4 L-7.9 -12.0 -7.65 -11.5 -8.5 -11.15 -11.0 -11.15 -11.65 -11.25 -13.5 -11.25 -14.0 -11.9 -12.9 -12.4 M-28.65 -34.75 L-28.9 -35.15 -28.0 -35.9 -25.0 -35.25 -28.65 -34.75 M-55.0 -17.25 L-55.25 -19.15 -51.9 -19.25 -51.9 -18.75 -52.0 -18.5 -54.15 -17.5 -55.0 -17.25" fill="#4c4c4c" fill-rule="evenodd" stroke="none"/>
      <path d="M-34.0 -41.25 L-33.9 -41.15 -34.15 -41.15 -34.0 -41.25 M-33.0 -41.0 L-29.9 -40.65 -29.0 -39.65 Q-32.15 -40.15 -31.9 -37.25 L-31.9 -36.5 -31.75 -36.4 -31.15 -35.4 -29.75 -35.0 -31.25 -34.5 -33.75 -35.25 -34.0 -38.5 -33.0 -41.0" fill="#1e1e1e" fill-rule="evenodd" stroke="none"/>
      <path d="M-38.15 -40.4 L-37.5 -40.4 -36.9 -40.5 -34.75 -41.0 -34.65 -41.0 -34.15 -41.15 -33.9 -41.15 -33.0 -41.0 -34.0 -38.5 -33.75 -35.25 -35.65 -34.9 -37.0 -35.25 -39.0 -35.65 -38.5 -36.15 -38.5 -36.9 -36.0 -36.9 -37.4 -38.15 -38.15 -38.15 -38.9 -40.4 -38.15 -40.4 M-45.9 -8.0 L-43.75 -7.25 -42.4 -7.25 Q-43.9 -5.65 -44.5 -2.65 L-43.75 -0.5 -43.25 2.25 -43.9 3.35 -49.65 2.0 -47.75 -1.75 -45.9 -8.0 M-53.5 -22.5 L-52.9 -21.65 -51.4 -20.5 -51.75 -20.0 -54.25 -20.75 -54.75 -21.0 -53.5 -22.5" fill="#212121" fill-rule="evenodd" stroke="none"/>
      <path d="M-45.0 -40.5 L-44.5 -41.4 -44.25 -41.25 -45.0 -40.5" fill="#656565" fill-rule="evenodd" stroke="none"/>
      <path d="M-37.5 -40.4 L-37.4 -40.65 -36.9 -40.5 -37.5 -40.4 M-39.0 -35.65 L-37.0 -35.25 -37.25 -26.5 -39.9 -26.5 -39.5 -35.65 -39.0 -35.65 M-49.65 -20.5 L-49.0 -19.65 -50.0 -20.25 -50.9 -20.15 -51.4 -19.9 -51.9 -19.5 -51.75 -20.0 -51.4 -20.5 -50.9 -20.75 -50.0 -20.75 -49.75 -20.65 -49.65 -20.5" fill="#090909" fill-rule="evenodd" stroke="none"/>
      <path d="M-57.25 3.75 L-57.25 3.0 -57.25 2.5 -57.15 2.5 -57.0 2.5 -57.15 2.75 -57.25 3.0 -57.15 3.35 -57.25 3.75 M-38.5 -36.9 L-38.5 -36.15 -39.0 -35.65 -39.5 -35.65 -39.9 -36.15 -39.5 -36.9 -38.5 -36.9 M-25.0 -6.4 L-18.25 -6.25 -14.15 -7.4 -13.75 -7.0 -11.9 -4.25 -11.65 1.25 -12.9 3.5 -22.75 5.25 -22.25 3.85 Q-24.9 -1.65 -25.0 -6.4 M-10.15 -2.0 L-9.75 -1.5 -9.75 -1.4 -10.25 -1.0 -10.15 -2.0 M-31.65 20.25 L-31.4 20.5 -31.65 20.6 -31.0 20.75 -31.65 20.75 -31.15 21.0 -31.9 21.25 -31.15 21.6 -32.0 22.1 -31.9 23.6 -32.5 23.75 -31.9 23.85 -32.9 23.85 -55.25 22.0 -55.0 17.6 -52.75 20.35 -51.5 20.0 -48.0 17.85 -47.65 17.6 -47.5 15.1 -38.5 16.0 -39.4 20.0 -31.65 20.25 M-39.75 -39.15 L-39.4 -39.25 -39.65 -39.4 -39.25 -40.15 -38.9 -40.4 -38.15 -38.15 -38.75 -38.15 -39.75 -38.25 -39.75 -38.75 -39.75 -39.15 M-56.0 -5.9 L-55.9 -5.9 -56.0 -5.65 -56.0 -5.9 M-56.15 -4.9 L-56.0 -4.9 -56.15 -4.65 -56.15 -4.9 M-56.25 -4.0 L-56.15 -4.0 -56.25 -3.75 -56.25 -4.0 M-56.5 -2.15 L-56.4 -2.15 -56.5 -1.9 -56.5 -2.15 M-56.65 -1.25 L-56.5 -1.25 -56.65 -1.0 -56.65 -1.25 M-56.75 -0.25 L-56.65 -0.25 -56.75 0.0 -56.75 -0.25 M-56.9 0.6 L-56.75 0.6 -56.75 1.0 -56.9 1.0 -56.9 0.6 M-55.75 -7.75 L-55.65 -7.75 -55.75 -7.5 -55.75 -7.75" fill="#020202" fill-rule="evenodd" stroke="none"/>
      <path d="M-29.0 -39.65 L-28.15 -39.25 -27.4 -37.5 -28.25 -37.5 -28.65 -37.5 -29.5 -37.65 -30.9 -37.65 -31.65 -37.65 -31.9 -37.25 Q-32.15 -40.15 -29.0 -39.65 M-28.0 -35.9 L-28.9 -35.15 -29.75 -35.0 -31.15 -35.4 -31.75 -36.4 -28.0 -35.9 M-46.65 -24.65 L-46.5 -24.65 -45.5 -23.15 -48.0 -19.5 -48.9 -12.9 -49.75 -13.15 -49.9 -13.65 -50.0 -13.65 -49.4 -13.9 -49.5 -14.15 -49.9 -16.9 -49.9 -17.15 -48.75 -18.15 -49.0 -19.65 -49.65 -20.5 -49.5 -21.0 -49.4 -21.75 -49.15 -22.65 -47.5 -22.65 -46.65 -23.25 -47.4 -23.75 -47.4 -24.25 -47.15 -24.4 -47.0 -24.5 -46.9 -24.5 -46.65 -24.65 M-12.15 -13.75 L-13.75 -12.9 -14.4 -14.25 -14.75 -15.5 -14.15 -15.75 -12.15 -13.75" fill="#222222" fill-rule="evenodd" stroke="none"/>
      <path d="M-13.9 -35.9 L23.25 -31.15 23.75 -30.75 18.5 -30.9 16.5 -31.5 -30.9 -37.65 -29.5 -37.65 -28.65 -37.5 -28.25 -37.5 -24.9 -37.15 -24.5 -37.15 -15.9 -36.15 -14.9 -36.0 -14.5 -35.9 -13.9 -35.9 M-7.5 2.25 L-7.9 7.6 -8.25 1.35 -7.5 2.25" fill="#232323" fill-rule="evenodd" stroke="none"/>
      <path d="M-23.65 -35.4 L-24.15 -25.75 -24.25 -23.5 -24.75 -23.9 -24.5 -25.75 -24.0 -35.4 -23.65 -35.4 M-39.9 -26.5 L-40.0 -24.25 -40.5 -24.65 -40.4 -25.5 -39.9 -36.15 -39.5 -35.65 -39.9 -26.5 M-25.0 -35.25 L-24.5 -35.5 -25.0 -25.75 -25.25 -24.75 -25.4 -25.9 -25.0 -35.25" fill="#111111" fill-rule="evenodd" stroke="none"/>
      <path d="M-38.0 16.0 L-31.0 14.0 -31.0 16.5 -31.4 16.5 -38.0 16.0 M-39.5 -38.15 L-39.75 -38.25 -38.75 -38.15 -39.5 -38.15" fill="#151515" fill-rule="evenodd" stroke="none"/>
      <path d="M-15.75 -37.25 L81.6 -33.25 81.85 -33.15 82.1 -32.4 81.6 -32.0 -13.9 -35.9 -14.5 -35.9 -14.9 -36.0 -15.9 -36.15 -15.75 -37.2 -15.75 -37.25 M-56.65 -14.4 L-59.0 -17.9 -59.65 -21.75 -58.75 -25.5 -55.75 -26.5 -54.65 -26.65 -52.75 -26.9 -48.65 -27.4 -44.5 -26.4 -44.5 -26.25 -45.65 -25.75 -46.75 -26.4 -49.25 -26.9 -51.65 -26.5 -53.9 -25.15 -54.25 -24.4 -55.25 -23.0 -55.4 -22.75 Q-57.15 -15.25 -52.4 -14.0 L-53.9 -12.4 -55.0 -13.15 -56.4 -14.15 -56.65 -14.4 M-24.0 16.6 L-23.5 20.5 -31.0 20.25 -31.5 20.1 Q-30.9 18.1 -31.4 16.5 L-31.0 16.5 -24.0 16.6" fill="#0a0a0a" fill-rule="evenodd" stroke="none"/>
      <path d="M-25.5 -9.5 L-22.0 -9.4 -12.65 -9.15 -12.75 -7.75 -14.15 -7.4 -18.25 -6.25 -25.0 -6.4 -31.15 -6.75 -31.0 -9.0 -25.15 -8.75 -25.5 -9.5 M-54.65 -26.65 L-52.15 -30.0 -50.0 -32.15 -49.75 -33.0 -48.4 -34.4 -48.5 -34.75 -46.4 -36.9 -45.4 -36.4 -45.75 -35.9 -47.25 -34.4 -48.9 -31.65 -52.75 -26.9 -54.65 -26.65" fill="#6b6b6b" fill-rule="evenodd" stroke="none"/>
      <path d="M-36.0 -26.4 L-36.25 -25.15 -36.0 -25.0 -32.4 -24.5 -32.25 -23.9 -39.4 -23.75 -45.5 -23.15 -46.5 -24.65 -46.65 -24.65 -46.65 -25.0 -45.65 -25.75 -44.5 -26.25 -44.5 -26.4 -40.65 -26.65 -40.75 -25.5 -40.4 -25.5 -40.5 -24.65 -40.0 -24.25 -39.9 -26.5 -37.25 -26.5 -36.0 -26.4 M-15.15 9.25 L-15.4 8.75 -9.0 8.6 -9.4 13.75 -9.65 13.0 -15.15 9.25" fill="#595959" fill-rule="evenodd" stroke="none"/>
      <path d="M-8.4 24.5 L-17.25 24.75 -33.0 24.1 -32.9 23.85 -31.9 23.85 -21.0 24.1 -9.9 23.85 -8.65 24.0 -8.4 24.5 M-55.5 -10.65 L-66.9 -11.25 -66.75 -11.65 -67.25 -11.75 -65.75 -11.65 -65.65 -11.65 -55.5 -10.65 M-40.4 -25.5 L-40.75 -25.5 -40.65 -26.65 -40.4 -34.0 -40.4 -36.25 -39.9 -36.15 -40.4 -25.5" fill="#0d0d0d" fill-rule="evenodd" stroke="none"/>
      <path d="M-28.9 -35.15 L-28.65 -34.75 -29.0 -26.0 -29.15 -24.75 -29.65 -24.65 -32.4 -24.5 -36.0 -25.0 -36.25 -25.15 -36.0 -26.4 -35.65 -34.9 -33.75 -35.25 -31.25 -34.5 -29.75 -35.0 -28.9 -35.15 M-51.25 -12.75 L-51.0 -10.75 -53.75 -8.75 -55.15 -7.25 -55.75 -6.9 -55.75 -7.5 -55.65 -7.75 -55.75 -7.75 -55.65 -9.4 -55.25 -9.5 -54.9 -10.0 -51.25 -12.75 M-56.75 1.0 L-56.9 1.5 -56.9 1.0 -56.75 1.0 M-57.15 2.75 L-57.15 3.35 -57.25 3.0 -57.15 2.75" fill="#121212" fill-rule="evenodd" stroke="none"/>
      <path d="M-24.15 -25.75 L-23.0 -25.4 -21.5 -24.65 -19.4 -23.25 -18.9 -22.5 -19.0 -21.9 -26.25 -23.25 -32.25 -23.9 -32.4 -24.5 -29.65 -24.65 -29.15 -24.75 -29.0 -26.0 -25.4 -25.9 -25.25 -24.75 -25.0 -25.75 -24.5 -25.75 -24.75 -23.9 -24.25 -23.5 -24.15 -25.75" fill="#6c6c6c" fill-rule="evenodd" stroke="none"/>
      <path d="M-68.0 -14.65 L-56.65 -14.4 -56.4 -14.15 -55.0 -13.15 -64.9 -13.5 -66.9 -13.75 -68.0 -14.25 -68.0 -14.65 M-54.75 -21.0 L-54.25 -20.75 -51.75 -20.0 -51.9 -19.5 -51.9 -19.25 -55.25 -19.15 -54.75 -21.0" fill="#323232" fill-rule="evenodd" stroke="none"/>
      <path d="M-66.9 -11.25 L-68.5 -11.25 -70.5 -12.5 -70.5 -13.65 -70.0 -14.15 -68.0 -14.65 -68.0 -14.25 -66.9 -13.75 -64.9 -13.5 -69.75 -12.9 -69.75 -12.65 -65.75 -11.65 -67.25 -11.75 -66.75 -11.65 -66.9 -11.25 M-49.0 -19.65 L-48.75 -18.15 -49.9 -17.15 -50.65 -17.15 -51.15 -17.25 -51.25 -17.5 -51.75 -17.9 -52.0 -18.5 -51.9 -18.75 -51.9 -19.25 -51.9 -19.5 -51.4 -19.9 -50.9 -20.15 -50.0 -20.25 -49.0 -19.65" fill="#141414" fill-rule="evenodd" stroke="none"/>
      <path d="M-31.0 16.5 L-31.0 14.0 -24.0 16.6 -31.0 16.5 M-65.75 -11.65 L-69.75 -12.65 -69.75 -12.9 -64.9 -13.5 -55.0 -13.15 -53.9 -12.4 -55.5 -10.65 -65.65 -11.65 -65.75 -11.65" fill="#1a1a1a" fill-rule="evenodd" stroke="none"/>
      <path d="M-16.65 -11.5 L-16.65 -11.75 -15.25 -11.4 -16.65 -11.5 M-54.25 -24.4 L-51.15 -25.65 Q-47.4 -25.65 -47.4 -24.25 L-47.4 -23.75 -46.65 -23.25 -47.5 -22.65 -48.25 -23.25 -50.0 -23.65 -51.9 -23.5 -53.5 -22.5 -54.75 -21.0 -55.25 -19.15 -55.0 -17.25 -53.9 -15.65 -52.25 -14.5 -50.5 -14.15 -49.5 -14.15 -49.4 -13.9 -50.0 -13.65 -50.9 -13.65 -52.4 -14.0 Q-57.15 -15.25 -55.4 -22.75 L-55.25 -23.0 -54.25 -24.4" fill="#3d3d3d" fill-rule="evenodd" stroke="none"/>
      <path d="M-24.75 9.5 L-23.75 9.6 -23.9 10.75 -31.15 10.5 -31.15 9.35 -24.75 9.5 M-47.15 -24.4 L-47.15 -24.5 -47.0 -24.5 -47.15 -24.4 M-49.5 -21.0 L-49.65 -20.5 -49.75 -20.65 -49.65 -20.75 -49.5 -21.0 M-50.0 -13.65 L-49.9 -13.65 -49.75 -13.15 -50.75 -12.9 -51.25 -12.75 -54.9 -10.0 -52.5 -13.25 -52.15 -13.65 -50.9 -13.65 -50.0 -13.65" fill="#3b3b3b" fill-rule="evenodd" stroke="none"/>
      <path d="M-57.25 2.5 L-57.4 0.5 -56.15 -8.9 -55.5 -10.65 -53.9 -12.4 -52.4 -14.0 -50.9 -13.65 -52.15 -13.65 -52.5 -13.25 -54.9 -10.0 -55.25 -9.5 -55.65 -9.4 -55.75 -7.75 -55.75 -7.5 -55.75 -6.9 -55.9 -6.75 -55.9 -6.25 -56.0 -5.9 -56.0 -5.65 -56.0 -5.25 -56.15 -4.9 -56.15 -4.65 -56.15 -4.4 -56.25 -4.0 -56.25 -3.75 -56.25 -3.15 -56.4 -2.75 -56.4 -2.5 -56.5 -2.15 -56.5 -1.9 -56.5 -1.5 -56.65 -1.25 -56.65 -1.0 -56.65 -0.65 -56.75 -0.25 -56.75 0.0 -56.75 0.25 -56.9 0.6 -56.9 1.0 -56.9 1.5 -57.0 1.85 -57.0 2.1 -57.15 2.5 -57.25 2.5 M-46.65 -25.0 L-46.65 -24.65 -46.9 -24.5 -47.0 -24.5 -47.15 -24.5 -46.65 -25.0 M-48.5 -8.9 L-45.9 -8.0 -47.75 -1.75 -49.65 2.0 -49.75 2.0 -53.15 -3.4 -51.75 -5.5 -49.0 -8.25 -48.5 -8.9 M-54.5 1.35 L-54.65 6.75 -56.65 5.6 Q-56.0 3.75 -56.4 0.75 L-53.9 -3.75 -53.5 -3.65 -53.15 -3.4 -54.5 1.35" fill="#202020" fill-rule="evenodd" stroke="none"/>
      <path d="M-45.5 -23.15 L-39.4 -23.75 -32.25 -23.9 -31.75 -21.25 -31.4 -9.65 -37.65 -10.0 -38.75 -10.15 -42.5 -10.25 Q-45.15 -12.0 -48.4 -12.4 L-48.9 -12.9 -48.0 -19.5 -45.5 -23.15 M-49.9 -17.15 L-49.9 -16.9 -49.5 -14.15 -50.5 -14.15 -50.25 -16.4 -50.65 -17.15 -49.9 -17.15" fill="#3a3a3a" fill-rule="evenodd" stroke="none"/>
      <path d="M-9.75 -17.75 L-10.25 -15.15 -11.5 -13.5 -12.4 -13.0 Q-13.05 -12.6 -13.75 -12.25 L-15.25 -12.0 -15.5 -12.0 -15.9 -12.15 -16.25 -12.15 -16.5 -12.25 -16.5 -12.5 -15.4 -12.5 -13.75 -12.9 -12.15 -13.75 -11.0 -15.25 -10.65 -17.0 -10.75 -18.9 -11.75 -20.5 -13.25 -21.5 -15.0 -22.0 -16.75 -21.9 -17.75 -21.25 -18.4 -22.0 -18.0 -22.5 -18.25 -22.9 -19.4 -23.25 -16.65 -24.15 -13.65 -23.15 -11.0 -21.15 -10.4 -19.65 -9.9 -19.5 -9.75 -17.75 M-24.75 9.5 L-31.15 9.35 -31.15 8.5 -24.75 9.5" fill="#545454" fill-rule="evenodd" stroke="none"/>
      <path d="M-33.0 24.1 L-45.5 23.75 -57.65 22.6 -56.9 22.1 -55.25 22.0 -32.9 23.85 -33.0 24.1 M-14.25 -18.4 L-15.5 -18.5 -15.9 -18.4 -16.25 -18.15 -16.15 -19.15 -15.75 -19.15 -15.5 -19.25 -15.0 -19.15 -14.75 -18.9 -14.5 -18.75 -14.4 -18.65 -14.25 -18.4 M-51.4 -20.5 L-52.9 -21.65 -53.5 -22.5 -51.9 -23.5 -51.5 -22.15 -50.9 -21.15 -50.9 -20.75 -51.4 -20.5" fill="#0f0f0f" fill-rule="evenodd" stroke="none"/>
      <path d="M-19.4 -23.25 L-18.25 -22.9 -18.0 -22.5 -18.4 -22.0 -17.75 -21.25 -16.65 -21.15 -16.15 -21.15 -16.25 -20.5 -15.9 -19.9 -16.15 -19.15 -16.25 -18.15 -16.5 -18.0 -16.5 -17.9 -16.5 -17.65 -16.75 -17.25 -16.75 -17.0 -17.0 -18.65 -19.0 -21.9 -18.9 -22.5 -19.4 -23.25 M-16.65 -11.75 L-16.5 -12.25 -16.5 -12.15 -16.65 -11.75 M-16.75 -16.65 L-16.65 -16.65 -16.4 -16.0 -16.15 -15.4 -16.15 -15.15 -16.5 -14.25 -16.75 -16.65" fill="#424242" fill-rule="evenodd" stroke="none"/>
      <path d="M-17.75 -21.25 L-16.75 -21.9 -16.65 -21.15 -17.75 -21.25 M-16.25 -18.15 L-16.5 -17.9 -16.5 -18.0 -16.25 -18.15" fill="#0e0e0e" fill-rule="evenodd" stroke="none"/>
      <path d="M-11.0 -15.25 L-12.15 -13.75 -14.15 -15.75 -13.75 -16.15 -13.65 -16.5 -11.0 -15.25" fill="#101010" fill-rule="evenodd" stroke="none"/>
      <path d="M-14.25 -18.4 L-14.0 -18.25 -13.5 -17.5 -13.5 -17.0 -13.65 -16.5 -13.75 -16.15 -14.15 -15.75 -14.75 -15.5 -15.5 -15.5 -16.4 -16.0 -16.65 -16.65 -16.75 -16.65 -16.75 -17.0 -16.75 -17.25 -16.5 -17.65 -16.5 -17.9 -16.25 -18.15 -15.9 -18.4 -15.5 -18.5 -14.25 -18.4 M-49.0 -8.25 L-51.75 -5.5 -51.5 -6.15 -51.5 -6.25 -51.25 -6.5 -49.0 -8.25" fill="#161616" fill-rule="evenodd" stroke="none"/>
      <path d="M-16.5 -12.5 L-16.5 -12.25 -16.65 -11.75 -16.65 -11.5 -16.5 -11.0 -16.9 -10.75 -19.15 -10.15 -20.0 -9.5 -22.0 -9.4 -25.5 -9.5 -31.4 -9.65 -31.75 -21.25 -32.25 -23.9 -26.25 -23.25 -19.0 -21.9 -17.0 -18.65 -16.75 -17.0 -16.75 -16.65 -16.5 -14.25 -16.5 -12.5" fill="#b1b1b1" fill-rule="evenodd" stroke="none"/>
      <path d="M-11.65 -8.75 L-10.75 -7.5 -11.4 -8.15 -12.65 -9.4 -13.4 -10.15 -14.25 -11.25 -14.9 -11.25 -15.15 -11.4 -15.25 -11.4 -16.65 -11.75 -16.5 -12.15 -16.25 -12.15 -15.9 -12.15 -15.5 -12.0 -15.25 -12.0 -14.0 -11.9 -13.5 -11.25 -11.75 -9.15 -11.65 -8.75 M-31.4 -9.65 L-31.0 -9.0 -37.25 -9.25 -37.65 -10.0 -31.4 -9.65" fill="#646464" fill-rule="evenodd" stroke="none"/>
      <path d="M-37.65 -10.0 L-37.25 -9.25 -31.0 -9.0 -31.15 -6.75 -32.15 -6.75 -32.65 -6.65 -32.9 -6.75 -37.15 -7.0 -37.9 -7.0 -38.9 -7.0 -42.4 -7.25 -43.75 -7.25 -45.9 -8.0 -48.5 -8.9 -50.0 -9.4 -51.0 -10.75 -42.5 -10.25 -38.75 -10.15 -37.65 -10.0" fill="#4d4d4d" fill-rule="evenodd" stroke="none"/>
      <path d="M-42.5 -10.25 L-51.0 -10.75 -51.25 -12.75 -50.75 -12.9 -48.9 -12.9 -48.4 -12.4 Q-45.15 -12.0 -42.5 -10.25" fill="#353535" fill-rule="evenodd" stroke="none"/>
      <path d="M-53.25 -16.25 L-53.9 -15.65 -55.0 -17.25 -54.15 -17.5 -52.0 -18.5 -51.75 -17.9 -53.25 -16.25" fill="#838383" fill-rule="evenodd" stroke="none"/>
      <path d="M-53.25 -16.25 L-51.75 -17.9 -51.25 -17.5 -53.25 -16.25" fill="#a7a7a7" fill-rule="evenodd" stroke="none"/>
      <path d="M-53.9 -15.65 L-53.25 -16.25 -51.25 -17.5 -51.15 -17.25 -51.65 -15.75 -52.25 -14.5 -53.9 -15.65" fill="#a6a6a6" fill-rule="evenodd" stroke="none"/>
      <path d="M-52.25 -14.5 L-51.65 -15.75 -51.15 -17.25 -50.65 -17.15 -50.25 -16.4 -50.5 -14.15 -52.25 -14.5" fill="#777777" fill-rule="evenodd" stroke="none"/>
      <path d="M-15.4 -12.5 L-16.5 -12.5 -16.5 -14.25 -16.15 -15.15 -16.15 -15.4 -16.4 -16.0 -15.5 -15.5 -15.4 -15.25 -15.65 -14.25 -15.4 -12.5" fill="#858585" fill-rule="evenodd" stroke="none"/>
      <path d="M-13.75 -12.9 L-15.4 -12.5 -15.65 -14.25 -15.4 -15.25 -15.5 -15.5 -14.75 -15.5 -14.4 -14.25 -13.75 -12.9" fill="#434343" fill-rule="evenodd" stroke="none"/>
      <path d="M-37.5 9.0 L-38.25 9.1 -38.15 10.25 -31.15 10.5 -31.0 14.0 -38.0 16.0 -38.5 16.0 -47.5 15.1 -48.0 10.75 -47.25 7.75 -47.15 7.5 -47.5 4.85 -49.75 2.0 -49.65 2.0 -43.9 3.35 -37.15 5.1 -36.25 5.25 -32.5 5.5 -31.15 5.5 -30.9 7.6 -31.15 8.5 -37.5 9.0 M-49.75 -13.15 L-48.9 -12.9 -50.75 -12.9 -49.75 -13.15" fill="#2d2d2d" fill-rule="evenodd" stroke="none"/>
      <path d="M-16.5 -12.25 L-16.25 -12.15 -16.5 -12.15 -16.5 -12.25" fill="#2b2b2b" fill-rule="evenodd" stroke="none"/>
      <path d="M-22.0 -9.4 L-20.0 -9.5 -19.15 -10.15 -16.9 -10.75 -16.5 -11.0 -16.65 -11.5 -15.25 -11.4 -15.15 -11.4 -14.9 -11.25 -14.25 -11.25 -13.4 -10.15 -13.15 -9.5 -12.65 -9.4 -12.65 -9.15 -22.0 -9.4" fill="#474747" fill-rule="evenodd" stroke="none"/>
      <path d="M-31.4 -9.65 L-25.5 -9.5 -25.15 -8.75 -31.0 -9.0 -31.4 -9.65" fill="#686868" fill-rule="evenodd" stroke="none"/>
      <path d="M-12.65 -9.4 L-11.4 -8.15 -12.65 -9.15 -12.65 -9.4 -13.15 -9.5 -13.4 -10.15 -12.65 -9.4" fill="#333333" fill-rule="evenodd" stroke="none"/>
      <path d="M-42.4 -7.25 L-38.9 -7.0 -43.75 -0.5 -44.5 -2.65 Q-43.9 -5.65 -42.4 -7.25 M-13.5 -11.25 L-11.65 -11.25 -11.0 -11.15 -6.0 -10.15 Q-6.4 -9.25 -10.65 -9.25 L-11.75 -9.15 -13.5 -11.25" fill="#414141" fill-rule="evenodd" stroke="none"/>
      <path d="M-7.9 -12.0 Q-2.4 -9.5 -9.0 -8.65 L-9.15 -9.0 -8.5 -9.15 -10.65 -9.25 Q-6.4 -9.25 -6.0 -10.15 L-11.0 -11.15 -8.5 -11.15 -7.65 -11.5 -7.9 -12.0" fill="#2e2e2e" fill-rule="evenodd" stroke="none"/>
      <path d="M-9.0 -8.65 L-11.65 -8.75 -11.75 -9.15 -10.65 -9.25 -8.5 -9.15 -9.15 -9.0 -9.0 -8.65 M-11.5 21.85 L-9.65 19.6 -9.4 20.6 -9.9 23.85 -11.0 23.25 -11.5 21.85 M-49.75 2.0 L-47.5 4.85 -47.15 7.5 -54.65 6.75 -54.5 1.35 -49.75 2.0" fill="#0c0c0c" fill-rule="evenodd" stroke="none"/>
      <path d="M-10.75 -7.5 L-8.25 -5.15 -7.5 2.25 -8.25 1.35 -8.9 0.0 -9.25 -0.75 -9.5 -1.25 -9.75 -1.4 -9.75 -1.5 -10.15 -2.0 -10.65 -3.0 -10.4 -3.15 -11.4 -5.15 -13.75 -7.0 -14.15 -7.4 -12.75 -7.75 -12.65 -9.15 -11.4 -8.15 -10.75 -7.5" fill="#757575" fill-rule="evenodd" stroke="none"/>
      <path d="M-51.75 -5.5 L-53.15 -3.4 -53.5 -3.65 -52.65 -4.9 -51.5 -6.15 -51.75 -5.5" fill="#0b0b0b" fill-rule="evenodd" stroke="none"/>
      <path d="M-53.15 -3.4 L-49.75 2.0 -54.5 1.35 -53.15 -3.4" fill="#060906" fill-rule="evenodd" stroke="none"/>
      <path d="M-38.9 -7.0 L-37.9 -7.0 -38.15 -1.9 -43.25 2.25 -43.75 -0.5 -38.9 -7.0" fill="#848484" fill-rule="evenodd" stroke="none"/>
      <path d="M-37.15 5.1 L-43.9 3.35 -43.25 2.25 -38.15 -1.9 -37.9 -1.65 -37.15 5.1" fill="#454545" fill-rule="evenodd" stroke="none"/>
      <path d="M-37.15 -7.0 L-32.9 -6.75 -32.65 -6.4 -33.9 -2.65 -37.15 -7.0" fill="#040404" fill-rule="evenodd" stroke="none"/>
      <path d="M-32.65 -6.65 L-32.15 -6.75 -32.5 5.5 -36.25 5.25 -34.9 0.6 -34.9 0.5 -33.9 -2.65 -32.65 -6.4 -32.65 -6.65" fill="#2f2f2f" fill-rule="evenodd" stroke="none"/>
      <path d="M-32.15 -6.75 L-31.15 -6.75 -28.65 5.6 -31.15 5.5 -32.5 5.5 -32.15 -6.75" fill="#7b7b7b" fill-rule="evenodd" stroke="none"/>
      <path d="M-22.75 5.25 L-12.9 3.5 -15.5 6.35 -15.15 7.6 -15.4 8.75 -15.15 9.25 -14.75 12.5 -15.15 16.35 -24.0 16.6 -31.0 14.0 -31.15 10.5 -23.9 10.75 -23.75 9.6 -24.75 9.5 -31.15 8.5 -30.9 7.6 -31.15 5.5 -28.65 5.6 -25.4 5.75 -22.75 5.25" fill="#717171" fill-rule="evenodd" stroke="none"/>
      <path d="M-11.9 -4.25 L-13.75 -7.0 -11.4 -5.15 -10.4 -3.15 -10.65 -3.0 -11.9 -4.25" fill="#818181" fill-rule="evenodd" stroke="none"/>
      <path d="M-12.9 3.5 L-11.65 1.25 -10.25 -1.0 -9.75 -1.4 -9.5 -1.25 -9.25 0.0 -8.75 2.5 -8.75 3.25 -12.9 3.5" fill="#131912" fill-rule="evenodd" stroke="none"/>
      <path d="M-36.25 5.25 L-37.15 5.1 -37.9 -1.65 -34.9 0.5 -34.9 0.6 -36.25 5.25" fill="#2c2c2c" fill-rule="evenodd" stroke="none"/>
      <path d="M-8.75 3.25 L-8.75 8.35 -9.0 8.6 -15.4 8.75 -15.15 7.6 -15.5 6.35 -12.9 3.5 -8.75 3.25" fill="#5d5d5d" fill-rule="evenodd" stroke="none"/>
      <path d="M-15.15 16.35 L-15.25 19.0 Q-12.25 22.0 -11.5 21.85 L-11.0 23.25 -9.9 23.85 -21.0 24.1 -31.9 23.85 -32.5 23.75 -31.9 23.6 -32.0 22.1 -31.15 21.6 -31.9 21.25 -31.15 21.0 -31.65 20.75 -31.0 20.75 -31.65 20.6 -31.4 20.5 -31.65 20.25 -31.0 20.25 -23.5 20.5 -24.0 16.6 -15.15 16.35 M-47.15 7.5 L-47.25 7.75 -54.75 11.85 -54.65 6.75 -47.15 7.5" fill="#050505" fill-rule="evenodd" stroke="none"/>
      <path d="M-7.9 7.6 L-8.4 24.5 -8.65 24.0 -9.9 23.85 -9.4 20.6 -9.65 19.6 -9.4 13.75 -9.0 8.6 -8.75 8.35 -8.15 8.25 -7.9 7.6" fill="#1c1c1c" fill-rule="evenodd" stroke="none"/>
      <path d="M-15.15 9.25 L-9.65 13.0 -9.4 13.75 -9.65 19.6 -11.5 21.85 Q-12.25 22.0 -15.25 19.0 L-15.15 16.35 -14.75 12.5 -15.15 9.25" fill="#343434" fill-rule="evenodd" stroke="none"/>
      <path d="M-37.5 9.0 L-31.15 8.5 -31.15 9.35 -37.5 9.0" fill="#464646" fill-rule="evenodd" stroke="none"/>
      <path d="M-31.15 9.35 L-31.15 10.5 -38.15 10.25 -38.25 9.1 -37.5 9.0 -31.15 9.35" fill="#292929" fill-rule="evenodd" stroke="none"/>
      <path d="M-31.4 5.5 L-37.25 5.25 -38.65 4.75 -47.4 2.5 -47.75 2.5 -48.9 2.1 -49.75 2.0 -50.0 1.85 -50.5 0.75 -52.65 -2.9 -53.0 -3.4 -52.65 -3.9 -52.4 -4.65 -51.9 -5.65 -51.9 -5.75 -51.5 -6.15 -51.5 -6.25 -51.25 -6.5 -48.65 -8.75 -48.5 -8.9 -45.15 -7.75 -44.65 -7.5 -44.15 -7.4 -43.75 -7.4 -43.75 -7.25 -41.9 -7.25 -41.65 -7.15 -39.4 -7.0 -38.9 -6.9 -37.9 -7.0 -37.4 -7.0 -36.4 -6.9 -33.65 -6.9 -32.9 -6.75 -32.65 -6.65 -32.15 -6.75 -31.65 -6.75 -31.65 -6.25 -31.25 0.35 -31.4 5.5" fill="#050505" fill-opacity="0.50980395" fill-rule="evenodd" stroke="none"/>
      <path d="M-31.65 -6.75 L-31.15 -6.5 -31.25 -6.4 -31.65 -6.25 -31.65 -6.75" fill="#0e0e0e" fill-rule="evenodd" stroke="none"/>
      <path d="M-31.25 0.35 L-31.65 -6.25 -31.25 -6.4 -31.0 -6.0 -31.0 -5.25 -30.9 -4.5 -31.25 0.35" fill="#151515" fill-rule="evenodd" stroke="none"/>
      <path d="M-31.15 -6.5 L-30.65 -6.75 -30.0 -6.65 -28.15 -6.65 -27.25 -6.5 -25.9 -6.5 -25.0 -6.4 -18.65 -6.25 -14.4 -7.25 -14.4 -7.4 -13.9 -7.15 -13.4 -6.5 -13.15 -6.4 -11.5 -5.15 -10.4 -3.15 -10.65 -3.0 -11.9 -4.25 -11.65 1.25 -11.65 1.35 -11.75 1.75 -12.4 2.75 -12.5 3.0 -12.65 3.1 -12.9 3.5 -15.4 3.85 -15.5 4.0 -25.0 5.6 -25.5 5.75 -31.15 5.6 -31.4 5.5 -31.25 0.35 -30.9 -4.5 -31.0 -5.25 -31.0 -6.0 -31.25 -6.4 -31.15 -6.5" fill="#131313" fill-opacity="0.50980395" fill-rule="evenodd" stroke="none"/>
      <path d="M-10.65 -3.0 L-10.15 -1.9 -10.15 -1.25 -10.5 -0.25 -11.4 1.1 -11.65 1.25 -11.9 -4.25 -10.65 -3.0" fill="#262626" fill-opacity="0.50980395" fill-rule="evenodd" stroke="none"/>
      <path d="M-10.15 -1.9 L-10.0 -1.5 -10.15 -1.25 -10.15 -1.9" fill="#131313" fill-rule="evenodd" stroke="none"/>
      <path d="M-53.15 -3.4 L-54.4 0.0 -54.0 0.35 -54.4 0.75 -54.5 1.35 -54.75 6.25 -54.65 6.75 -54.75 6.6 -54.9 6.6 -56.15 6.1 -56.65 5.75 -56.75 5.6 -56.5 3.1 -56.5 0.25 -56.15 -0.15 -53.9 -3.9 -53.15 -3.4 M-57.25 3.0 L-57.25 2.6 -57.15 2.6 -57.15 2.85 -57.25 3.0" fill="#000000" fill-opacity="0.50980395" fill-rule="evenodd" stroke="none"/>
      <path d="M-9.25 0.0 L-9.5 -1.15 -9.25 -0.75 -9.25 0.0" fill="#080808" fill-rule="evenodd" stroke="none"/>
      <path d="M-9.25 -0.75 L-9.15 -0.5 -9.0 -0.25 -8.25 1.35 -7.65 2.0 -7.65 4.0 -7.9 4.1 -7.9 6.5 -8.0 7.5 -7.9 7.6 -7.9 8.1 -8.4 8.35 -8.75 8.35 -8.65 3.75 -8.65 3.35 -8.75 3.35 -8.65 3.25 -9.0 1.25 -9.25 0.35 -9.25 0.0 -9.25 -0.75" fill="#080808" fill-opacity="0.50980395" fill-rule="evenodd" stroke="none"/>
    </g>
  </defs>
</svg>
