<?xml version="1.0" encoding="UTF-8" standalone="no"?>
<svg xmlns:xlink="http://www.w3.org/1999/xlink" height="1034.2px" width="773.35px" xmlns="http://www.w3.org/2000/svg">
  <g transform="matrix(1.0, 0.0, 0.0, 1.0, 365.9, 551.4)">
    <use height="85.15" transform="matrix(1.0, 0.0, 0.0, 1.0, -145.25, -57.4)" width="233.6" xlink:href="#shape0"/>
  </g>
  <defs>
    <g id="shape0" transform="matrix(1.0, 0.0, 0.0, 1.0, 145.25, 57.4)">
      <path d="M-27.0 -55.5 L-26.15 -57.25 -25.65 -57.4 -24.75 -56.9 -25.15 -56.15 -25.15 -56.0 -25.9 -55.0 -27.0 -55.5" fill="#747474" fill-rule="evenodd" stroke="none"/>
      <path d="M-27.0 -55.5 L-25.9 -55.0 -27.15 -52.5 -27.5 -52.4 -27.5 -51.75 -27.65 -51.5 -27.75 -51.25 -28.15 -50.65 -28.25 -50.4 -28.4 -50.15 -28.5 -49.9 -28.5 -49.75 -29.25 -48.4 -29.4 -48.25 -29.75 -47.5 -29.9 -47.25 -30.0 -47.0 -30.4 -46.4 -30.4 -46.25 -30.75 -45.65 -30.75 -45.4 -31.0 -45.15 -31.15 -44.9 -31.25 -44.65 -31.9 -43.9 -32.75 -44.5 -27.0 -55.5 M84.25 -41.0 L-9.15 -38.0 -9.65 -38.0 -10.65 -37.9 -11.0 -37.9 -11.5 -37.9 -11.9 -37.9 -15.25 -37.75 -16.75 -37.75 -15.5 -38.4 -15.5 -38.75 -15.25 -39.0 -14.0 -39.15 -11.65 -39.25 84.25 -42.65 84.25 -41.0 M-42.15 -24.25 L-42.9 -24.75 -41.15 -28.15 -41.75 -28.5 -40.4 -31.25 -39.4 -30.65 -39.0 -30.9 -38.75 -31.25 -38.4 -31.9 -38.4 -32.0 -38.15 -32.25 -36.5 -35.0 -36.5 -35.15 -36.25 -35.15 -37.0 -33.25 -37.15 -33.0 -37.25 -32.75 -37.65 -32.15 -37.75 -31.9 -37.9 -31.65 -38.5 -30.4 -38.65 -30.15 -38.75 -29.9 -39.65 -28.4 -39.65 -28.25 -40.4 -26.9 -40.5 -26.65 -40.65 -26.4 -40.65 -26.25 -41.5 -24.75 -41.9 -24.4 -42.15 -24.25 M-142.4 -24.75 L-145.15 -24.75 -145.25 -26.15 -144.5 -26.25 -142.4 -26.25 -142.4 -24.75 M-41.25 -36.9 L-90.15 -35.15 -92.0 -35.25 -91.9 -36.4 -42.95 -38.15 -30.25 -38.5 -28.25 -38.65 -27.25 -38.65 -26.25 -38.65 -26.15 -38.65 -26.0 -38.65 -25.9 -38.4 -26.9 -38.25 -28.0 -38.15 -41.25 -36.9 M-11.65 -39.4 L-11.75 -39.4 -11.75 -39.5 -11.65 -39.4 M-31.75 -24.5 L-32.4 -23.9 -33.0 -23.15 Q-39.9 -25.15 -41.4 -20.15 -39.5 -27.0 -31.75 -24.5" fill="#000000" fill-rule="evenodd" stroke="none"/>
      <path d="M-30.5 -45.15 L-28.4 -42.4 -27.9 -41.9 -27.65 -41.0 -26.9 -40.65 -26.65 -40.0 -27.5 -38.9 -28.25 -38.65 -28.65 -38.75 -28.75 -38.75 -36.0 -38.5 -32.75 -44.5 -31.9 -43.9 -31.25 -44.65 -31.15 -44.9 -31.0 -45.15 -30.75 -45.4 -30.5 -45.15 M-28.4 -36.65 L-30.15 -34.5 -36.25 -35.15 -36.5 -35.15 -36.4 -35.4 -36.15 -35.65 -36.15 -35.75 -28.4 -36.65" fill="#353535" fill-rule="evenodd" stroke="none"/>
      <path d="M-42.95 -38.15 L-36.0 -38.5 -28.75 -38.75 -30.25 -38.5 -42.95 -38.15 M-12.75 -39.4 L-11.65 -39.25 -14.0 -39.15 -12.75 -39.4 M-27.5 -38.9 L-27.25 -38.65 -28.25 -38.65 -27.5 -38.9 M-26.15 -38.65 L-26.25 -38.65 -26.15 -38.9 -26.15 -38.65 M-34.4 -18.75 L-33.5 -17.75 -34.75 -18.15 -35.75 -17.9 -36.15 -17.5 -36.15 -17.4 -36.4 -17.0 -36.4 -16.25 -36.5 -16.25 -36.75 -17.0 -36.65 -17.75 -36.25 -18.4 -35.75 -18.65 -35.15 -18.75 -34.4 -18.75 M-7.65 22.0 L-15.75 22.6 -15.25 18.5 -14.75 18.35 -7.9 18.0 -7.65 17.85 -7.5 17.85 -7.15 21.85 -7.65 22.0" fill="#070707" fill-rule="evenodd" stroke="none"/>
      <path d="M5.5 -40.15 L87.5 -43.0 84.25 -42.65 -11.65 -39.25 -12.75 -39.4 -11.75 -39.4 -11.65 -39.4 -3.9 -39.75 4.35 -40.0 5.0 -40.15 5.5 -40.15 M-27.25 -38.65 L-27.0 -38.9 -26.15 -38.9 -26.25 -38.65 -27.25 -38.65 M-28.75 -38.75 L-28.65 -38.75 -28.25 -38.65 -30.25 -38.5 -28.75 -38.75 M-30.15 -6.4 L-28.4 -6.0 Q-29.75 -4.25 -30.15 -1.15 L-28.9 0.85 -27.75 3.75 -28.15 5.25 -29.65 5.1 -32.25 1.6 -30.75 -4.0 -30.9 -4.75 -30.9 -5.0 -30.65 -5.5 -30.15 -6.4" fill="#2a2a2a" fill-rule="evenodd" stroke="none"/>
      <path d="M-27.9 -42.4 L-25.25 -42.75 -26.0 -41.25 -26.0 -40.4 -25.65 -40.0 -25.9 -39.15 -26.15 -38.9 -27.0 -38.9 -27.25 -38.65 -27.5 -38.9 -26.65 -40.0 -26.9 -40.65 -27.65 -41.0 -27.9 -41.9 -27.9 -42.4 M-27.15 -36.4 L-27.15 -36.75 -25.5 -36.9 -24.9 -35.9 -24.4 -35.75 -23.4 -26.5 -24.9 -26.4 Q-25.15 -35.4 -26.15 -36.15 L-25.25 -26.4 -25.75 -26.25 -25.75 -26.5 -25.9 -26.9 -26.65 -36.4 -27.15 -36.4" fill="#676767" fill-rule="evenodd" stroke="none"/>
      <path d="M-28.4 -42.4 L-27.9 -42.4 -27.9 -41.9 -28.4 -42.4 M-11.65 -6.5 L-8.5 -6.75 Q-8.15 -2.5 -4.75 2.6 L-5.25 6.0 -7.9 6.25 -12.15 -6.4 -11.65 -6.5 M-29.15 -26.0 L-29.15 -27.0 -30.0 -34.4 -30.15 -34.5 -28.4 -36.65 -27.15 -36.75 -27.15 -36.4 -26.15 -26.25 -29.0 -26.0 -29.15 -26.0 M-17.9 -5.9 L-13.5 -6.25 -13.65 -5.9 -15.0 2.0 -15.25 3.0 -15.25 3.25 -15.5 3.35 -16.0 2.85 -16.65 0.1 -17.0 -0.15 -16.25 -2.25 -17.9 -5.9" fill="#050505" fill-rule="evenodd" stroke="none"/>
      <path d="M-25.25 -42.75 L-24.25 -43.0 -23.65 -42.4 -23.25 -41.15 -24.0 -40.9 -24.25 -40.75 -24.5 -40.75 -25.4 -40.25 -25.65 -40.0 -26.0 -40.4 -26.0 -41.25 -25.25 -42.75 M6.35 -15.65 L7.5 -15.5 8.85 -14.5 8.75 -13.25 8.25 -12.75 6.1 -12.15 5.35 -12.9 8.0 -13.5 8.1 -14.0 3.75 -14.4 2.75 -14.4 3.1 -14.5 5.25 -14.65 6.35 -15.25 6.35 -15.65 M-30.15 -21.75 L-23.5 -23.4 -16.4 -24.4 -14.5 -19.0 -12.65 -9.5 -19.4 -9.15 -19.65 -9.15 -20.65 -9.0 -21.15 -9.0 -22.0 -8.9 -22.65 -8.9 -23.25 -8.75 -24.15 -8.75 -27.9 -9.75 -31.75 -10.25 -32.5 -10.75 -32.15 -17.65 -30.15 -21.75" fill="#2f2f2f" fill-rule="evenodd" stroke="none"/>
      <path d="M-23.25 -41.15 L-21.0 -42.15 -19.0 -41.9 -18.65 -36.4 -20.25 -35.5 -22.0 -35.5 -23.9 -35.75 -22.9 -37.15 -20.65 -37.4 -20.5 -37.75 -21.15 -38.75 -22.75 -38.5 -23.4 -40.15 -24.5 -40.75 -24.25 -40.75 -24.0 -40.9 -23.5 -40.9 -23.25 -41.15 M-39.9 -16.4 L-39.75 -18.4 -36.65 -17.75 -36.75 -17.0 -39.9 -16.4" fill="#363636" fill-rule="evenodd" stroke="none"/>
      <path d="M-21.0 -42.15 L-20.9 -43.75 -19.65 -44.75 -17.9 -44.65 -17.15 -44.0 -16.75 -42.4 -19.0 -41.9 -21.0 -42.15" fill="#4c4c4c" fill-rule="evenodd" stroke="none"/>
      <path d="M-16.75 -42.4 L-16.4 -42.4 -16.0 -42.25 -14.15 -41.5 -15.25 -40.65 -15.75 -38.9 -15.5 -38.75 -15.5 -38.4 -16.75 -37.75 -15.25 -37.75 -14.5 -36.65 -13.9 -36.5 -14.5 -36.4 -16.15 -35.75 -18.65 -36.4 -19.0 -41.9 -16.75 -42.4 M-10.5 -40.0 L-9.65 -40.15 -8.65 -40.0 -9.0 -40.0 -9.65 -40.15 -9.75 -39.9 -10.15 -39.9 -10.5 -40.0 M-8.25 -40.25 L-7.5 -40.15 -7.75 -40.15 -8.25 -40.25 M-7.15 -40.4 L-6.4 -40.4 2.8 -41.25 -4.0 -40.5 -5.4 -40.4 -6.4 -40.4 -6.5 -40.25 -7.15 -40.4 M-1.25 -23.65 L-0.5 -24.25 -0.15 -23.65 -1.25 -23.65 M-26.15 -38.9 L-25.9 -39.15 -25.9 -38.4 -26.0 -38.65 -26.15 -38.65 -26.15 -38.9 M-28.0 -38.0 L-28.0 -38.15 -27.25 -38.15 -28.0 -38.0 M-26.9 -38.15 L-26.9 -38.25 -25.9 -38.25 -26.9 -38.15" fill="#141414" fill-rule="evenodd" stroke="none"/>
      <path d="M-16.0 -42.25 L-12.65 -41.9 -11.9 -41.4 -11.0 -39.9 -11.0 -39.75 -11.75 -39.5 -12.9 -41.4 -14.15 -41.5 -16.0 -42.25 M-12.15 -37.15 L-11.9 -37.9 -11.5 -37.9 -12.15 -37.15" fill="#565656" fill-rule="evenodd" stroke="none"/>
      <path d="M-38.65 13.85 L-40.15 4.85 Q-40.9 -7.25 -39.0 -8.4 L-38.15 -9.65 -36.75 -11.5 -36.0 -11.5 -34.75 -11.25 -36.15 -11.15 -38.4 -6.5 -38.5 -6.25 -38.65 -5.65 -38.75 -4.9 -38.5 -5.25 -38.4 -4.9 -38.5 8.0 -38.15 14.1 -38.65 13.85 M-11.75 -39.4 L-12.75 -39.4 -14.0 -39.15 -15.25 -39.0 -15.5 -38.75 -15.75 -38.9 -15.25 -40.65 -14.15 -41.5 -12.9 -41.4 -11.75 -39.5 -11.75 -39.4 M-11.9 -37.9 L-12.15 -37.15 -13.9 -36.5 -14.5 -36.65 -15.25 -37.75 -11.9 -37.9 M-38.25 -4.65 L-38.15 -4.4 -38.25 0.75 -38.25 -4.65 M-30.9 -4.75 L-30.75 -4.0 -32.25 1.6 -33.9 0.0 -32.9 -2.5 -30.9 -4.75 M-34.5 -0.25 L-33.9 0.0 -34.5 5.1 -34.15 10.75 -35.9 10.25 -36.65 9.6 -36.75 5.35 -37.15 5.0 -37.15 4.0 Q-36.0 2.75 -35.0 -0.5 L-34.5 -0.25" fill="#2e2e2e" fill-rule="evenodd" stroke="none"/>
      <path d="M-37.9 -35.65 L-142.4 -24.75 -142.4 -26.25 -30.25 -37.75 -29.65 -37.9 -29.15 -37.9 -28.5 -38.0 -28.0 -38.0 -27.25 -38.15 -26.9 -38.15 -25.9 -38.25 -25.75 -38.25 -23.5 -38.5 -22.75 -38.5 -21.15 -38.75 -20.5 -37.75 -20.65 -37.4 -22.9 -37.15 -25.5 -36.9 -27.15 -36.75 -28.4 -36.65 -36.15 -35.75 -37.9 -35.65 M-6.5 -40.25 L-5.4 -40.4 -4.0 -40.5 -3.9 -39.75 -11.65 -39.4 -11.75 -39.5 -11.0 -39.75 -10.15 -39.9 -9.75 -39.9 -9.0 -40.0 -8.65 -40.0 -7.75 -40.15 -7.5 -40.15 -6.5 -40.25 M-52.75 -9.75 L-52.25 -9.9 -40.9 -10.75 -40.65 -10.65 -38.9 -9.65 -38.15 -9.65 -39.0 -8.4 -53.65 -7.75 -56.5 -8.0 -57.5 -8.25 -57.5 -8.5 -56.65 -8.9 -52.75 -9.75" fill="#171717" fill-rule="evenodd" stroke="none"/>
      <path d="M2.8 -41.25 L68.35 -48.0 68.5 -48.0 71.5 -48.25 71.85 -48.25 72.85 -48.4 74.35 -48.4 74.25 -47.25 5.5 -40.15 5.0 -40.15 4.35 -40.0 -3.9 -39.75 -4.0 -40.5 2.8 -41.25" fill="#101010" fill-rule="evenodd" stroke="none"/>
      <path d="M87.5 -43.0 L88.25 -43.0 88.35 -41.5 84.25 -41.0 84.25 -42.65 87.5 -43.0 M-34.5 -0.25 L-32.65 -3.4 -32.5 -3.5 -32.9 -2.5 -33.9 0.0 -34.5 -0.25 M0.1 17.1 L8.75 15.75 9.1 18.35 Q12.25 21.1 13.1 20.85 L13.5 22.1 14.75 22.6 -0.4 25.0 -8.5 25.6 -7.65 25.1 -8.15 25.1 -8.0 24.35 -7.25 24.25 -7.75 23.85 -7.25 23.85 -7.15 23.5 -7.4 22.75 -7.0 22.75 -7.15 22.0 -7.65 22.0 -7.15 21.85 1.0 21.25 0.1 17.1" fill="#060606" fill-rule="evenodd" stroke="none"/>
      <path d="M-25.9 -55.0 L-25.15 -56.0 -27.15 -52.0 -27.5 -51.75 -27.5 -52.4 -27.15 -52.5 -25.9 -55.0 M5.75 -9.25 L6.75 -4.4 7.5 2.25 -3.75 5.85 -5.25 6.0 -4.75 2.6 Q-8.15 -2.5 -8.5 -6.75 L1.25 -7.5 5.75 -9.25 M10.0 -0.75 L9.1 -6.25 9.35 -6.0 10.25 -1.4 10.0 -0.75 M10.1 -5.25 L10.35 -5.0 10.85 -2.9 10.6 -2.4 10.1 -5.25 M11.1 -3.5 L11.1 -4.15 11.35 -3.9 11.1 -3.5 M-25.65 -40.0 L-25.4 -40.25 -24.5 -40.75 -23.4 -40.15 -22.75 -38.5 -23.5 -38.5 -25.75 -38.25 -25.9 -38.4 -25.9 -39.15 -25.65 -40.0 M-24.4 -35.75 L-24.9 -35.9 -25.5 -36.9 -22.9 -37.15 -23.9 -35.75 -24.4 -35.75 M-38.65 -5.65 L-38.5 -5.25 -38.75 -4.9 -38.65 -5.65 M-38.4 -4.9 L-38.25 -4.65 -38.25 0.75 -38.5 8.0 -38.4 -4.9 M-15.25 18.5 L-15.75 22.6 -7.65 22.0 -7.15 22.0 -7.0 22.75 -7.4 22.75 -7.15 23.5 -7.25 23.85 -7.75 23.85 -7.25 24.25 -8.0 24.35 -8.15 25.1 -7.65 25.1 -8.5 25.6 -9.25 26.0 -32.75 26.85 -33.65 16.35 -33.65 16.25 -26.0 10.85 -26.15 14.0 -25.15 18.6 -15.25 18.5" fill="#020202" fill-rule="evenodd" stroke="none"/>
      <path d="M-27.15 -52.0 L-26.9 -51.25 -27.0 -51.0 -27.4 -50.4 -27.4 -50.25 -27.75 -50.15 -28.9 -47.9 -29.0 -47.65 -29.0 -47.5 -29.25 -47.25 -29.25 -47.15 -29.4 -46.9 -29.65 -46.65 -29.65 -46.5 -30.0 -45.9 -30.15 -45.75 -30.15 -45.65 -30.75 -45.4 -30.75 -45.65 -30.4 -46.25 -30.4 -46.4 -30.0 -47.0 -29.9 -47.25 -29.75 -47.5 -29.4 -48.25 -29.25 -48.4 -28.5 -49.75 -28.5 -49.9 -28.4 -50.15 -28.25 -50.4 -28.15 -50.65 -27.75 -51.25 -27.65 -51.5 -27.5 -51.75 -27.15 -52.0 M-13.0 -6.4 L-12.15 -6.4 -7.9 6.25 -9.65 6.35 -9.9 6.5 -11.75 6.6 -13.0 -6.4" fill="#757575" fill-rule="evenodd" stroke="none"/>
      <path d="M-27.4 -50.25 L-28.9 -47.9 -27.75 -50.15 -27.4 -50.25 M-30.15 -45.65 L-30.5 -45.15 -30.75 -45.4 -30.15 -45.65 M1.75 -26.4 L-1.5 -26.75 -4.0 -25.75 -6.4 -26.65 Q-4.75 -29.4 1.75 -26.4" fill="#010101" fill-rule="evenodd" stroke="none"/>
      <path d="M-11.0 -39.9 L-10.75 -40.0 -10.5 -40.0 -10.15 -39.9 -11.0 -39.75 -11.0 -39.9 M-8.65 -40.0 L-8.25 -40.25 -7.75 -40.15 -8.65 -40.0 M-7.5 -40.15 L-7.15 -40.4 -6.5 -40.25 -6.4 -40.4 -5.4 -40.4 -6.5 -40.25 -7.5 -40.15 M-144.5 -26.25 L-41.25 -36.9 -28.0 -38.15 -26.9 -38.25 -26.9 -38.15 -27.25 -38.15 -28.0 -38.15 -28.0 -38.0 -28.5 -38.0 -29.15 -37.9 -29.65 -37.9 -30.25 -37.75 -142.4 -26.25 -144.5 -26.25 M-9.75 -39.9 L-9.65 -40.15 -9.0 -40.0 -9.75 -39.9 M-25.75 -38.25 L-25.9 -38.25 -26.9 -38.25 -25.9 -38.4 -25.75 -38.25 M-29.65 5.1 L-26.9 7.85 -25.9 10.6 -34.15 10.75 -34.5 5.1 -29.65 5.1" fill="#090909" fill-rule="evenodd" stroke="none"/>
      <path d="M2.6 -21.15 L2.85 -21.0 3.0 -21.0 3.1 -20.9 3.5 -20.65 3.75 -20.25 3.85 -19.75 3.75 -19.25 3.6 -18.75 3.35 -18.4 2.75 -18.0 2.35 -18.0 1.6 -17.9 0.85 -18.5 0.75 -18.5 0.6 -18.65 0.5 -19.15 0.35 -19.5 0.35 -19.9 0.5 -20.15 0.85 -20.65 1.0 -20.75 1.1 -20.9 1.25 -21.0 1.75 -21.15 2.6 -21.15 M-10.65 -37.9 L-9.75 -27.5 -9.9 -26.25 -10.15 -27.5 -11.0 -37.9 -10.65 -37.9 M-18.65 -36.4 L-16.15 -35.75 -14.5 -36.4 -13.9 -27.25 -13.75 -25.65 -17.15 -25.15 -21.0 -25.15 -21.15 -26.65 -22.0 -35.5 -20.25 -35.5 -18.65 -36.4 M-26.15 -26.25 L-27.15 -36.4 -26.65 -36.4 -25.9 -26.9 -25.75 -26.5 -25.75 -26.25 -25.75 -25.0 -26.15 -25.0 -26.15 -26.25 M-25.25 -26.4 L-26.15 -36.15 Q-25.15 -35.4 -24.9 -26.4 L-24.9 -23.65 -25.25 -26.4" fill="#161616" fill-rule="evenodd" stroke="none"/>
      <path d="M12.1 -2.65 L13.0 -1.4 12.85 -0.65 12.1 -2.65 M-24.0 -40.9 L-23.25 -41.15 -23.5 -40.9 -24.0 -40.9 M14.0 6.1 L13.6 6.35 13.75 5.25 14.1 5.35 14.0 6.1" fill="#1e1e1e" fill-rule="evenodd" stroke="none"/>
      <path d="M-9.15 -38.0 L-8.4 -27.25 -8.5 -25.0 -8.9 -27.5 -9.65 -38.0 -9.15 -38.0 M-36.5 23.85 L-37.5 21.1 -37.4 19.35 -38.15 14.1 -38.5 8.0 -38.25 8.85 -38.0 8.5 -38.15 -4.4 -38.25 -4.65 -38.4 -4.9 -38.5 -5.25 -38.65 -5.65 -38.5 -6.25 -38.4 -6.5 -34.65 -10.25 -33.25 -8.15 -35.0 -6.65 -37.65 -3.4 -37.75 11.1 -36.5 23.85 M-38.65 -20.15 L-37.0 -21.4 -36.65 -20.25 -35.75 -18.75 -35.75 -18.65 -36.25 -18.4 -37.9 -19.4 -38.65 -20.15" fill="#151515" fill-rule="evenodd" stroke="none"/>
      <path d="M-40.4 -31.25 L-37.9 -35.65 -36.15 -35.75 -36.15 -35.65 -36.4 -35.4 -36.5 -35.15 -36.5 -35.0 -38.15 -32.25 -38.4 -32.0 -38.4 -31.9 -38.75 -31.25 -39.0 -30.9 -39.4 -30.65 -40.4 -31.25" fill="#7d7d7d" fill-rule="evenodd" stroke="none"/>
      <path d="M-21.15 -26.65 L-21.0 -25.15 -17.15 -25.15 -16.4 -24.4 -23.5 -23.4 -30.15 -21.75 -31.9 -23.4 -32.4 -23.9 -31.75 -24.5 -30.9 -25.25 -30.9 -25.4 -29.15 -26.0 -29.0 -26.0 -26.15 -26.25 -26.15 -25.0 -25.75 -25.0 -25.75 -26.25 -25.25 -26.4 -24.9 -23.65 -24.9 -26.4 -23.4 -26.5 -21.15 -26.65" fill="#515151" fill-rule="evenodd" stroke="none"/>
      <path d="M-42.65 -11.75 L-44.9 -14.65 -46.15 -18.65 -45.65 -22.9 -42.9 -23.9 -42.15 -24.25 -41.9 -24.4 -36.25 -25.9 -30.9 -25.4 -30.9 -25.25 -31.75 -24.5 Q-39.5 -27.0 -41.4 -20.15 L-41.65 -17.75 -41.5 -17.5 -40.9 -15.4 -38.75 -12.5 -36.75 -11.5 -38.15 -9.65 -38.9 -9.65 -40.65 -10.65 -40.9 -10.75 -42.65 -11.75 M-0.5 -24.25 L1.5 -24.9 3.35 -24.65 5.0 -23.65 6.25 -22.15 6.6 -20.15 6.85 -20.0 6.5 -18.25 3.75 -19.25 3.85 -19.75 3.75 -20.25 3.5 -20.65 3.1 -20.9 3.0 -21.0 2.85 -21.0 2.6 -21.15 2.25 -21.5 1.75 -21.75 0.6 -21.75 0.35 -22.9 0.35 -23.65 -0.15 -23.65 -0.5 -24.25 M-37.0 -21.4 L-35.15 -21.9 -33.25 -21.65 -32.15 -21.15 -33.75 -20.9 -34.4 -19.9 -34.4 -18.75 -35.15 -18.75 -35.75 -18.65 -35.75 -18.75 -36.65 -20.25 -37.0 -21.4" fill="#080808" fill-rule="evenodd" stroke="none"/>
      <path d="M-4.0 -25.75 L-3.4 -25.4 -2.5 -24.5 -2.5 -24.0 -10.65 -24.5 -16.4 -24.4 -17.15 -25.15 -13.75 -25.65 -13.9 -27.25 -10.15 -27.5 -9.9 -26.25 -9.75 -27.5 -8.9 -27.5 -8.5 -25.0 -8.4 -27.25 -6.4 -26.65 -4.0 -25.75" fill="#656565" fill-rule="evenodd" stroke="none"/>
      <path d="M-8.4 -27.25 Q5.5 -30.15 5.75 -24.25 L4.0 -25.5 1.75 -26.25 1.75 -26.4 Q-4.75 -29.4 -6.4 -26.65 L-8.4 -27.25 M-29.65 5.1 L-28.15 5.25 -20.75 6.25 -16.15 6.75 -15.75 6.85 -11.75 6.6 -9.9 6.5 -9.65 6.35 -8.75 9.5 -15.9 11.0 -16.25 11.0 -16.0 12.25 -8.65 11.75 -8.25 11.85 -7.75 15.25 -14.75 18.35 -15.25 18.5 -25.15 18.6 -26.15 14.0 -26.0 10.85 -25.9 10.6 -26.9 7.85 -29.65 5.1" fill="#242424" fill-rule="evenodd" stroke="none"/>
      <path d="M5.75 -24.25 Q9.25 -20.75 5.6 -15.9 L5.5 -15.9 3.1 -14.5 2.75 -14.4 2.5 -14.4 1.85 -14.25 1.5 -14.25 1.6 -14.75 2.25 -14.9 4.0 -15.4 5.5 -16.65 6.5 -18.25 6.85 -20.0 6.6 -20.15 6.25 -22.15 5.0 -23.65 3.35 -24.65 1.5 -24.9 -0.5 -24.25 -1.25 -23.65 -2.15 -24.25 -1.75 -24.9 -3.4 -25.4 -4.0 -25.75 -1.5 -26.75 1.75 -26.4 1.75 -26.25 4.0 -25.5 5.75 -24.25" fill="#505050" fill-rule="evenodd" stroke="none"/>
      <path d="M0.5 -20.15 L0.35 -19.9 -1.15 -22.5 -2.5 -24.0 -2.5 -24.5 -3.4 -25.4 -1.75 -24.9 -2.15 -24.25 -1.25 -23.65 -0.15 -23.65 0.35 -23.65 0.35 -22.9 0.6 -21.75 0.75 -21.65 0.5 -20.15 M-12.5 -8.75 L-12.15 -8.75 -11.65 -6.5 -12.15 -6.4 -13.0 -6.4 -13.5 -6.25 -17.9 -5.9 -22.25 -5.5 -24.0 -5.4 -25.65 -5.5 -28.4 -6.0 -30.15 -6.4 -32.0 -6.9 -33.25 -8.15 -24.15 -8.75 -23.25 -8.75 -22.65 -8.9 -22.0 -8.9 -21.15 -9.0 -20.65 -9.0 -19.65 -9.15 -19.4 -9.15 -18.75 -8.4 -12.5 -8.75" fill="#444444" fill-rule="evenodd" stroke="none"/>
      <path d="M1.6 -14.75 L1.5 -14.25 1.5 -13.9 1.6 -13.5 1.5 -12.65 -1.65 -10.65 -1.75 -10.65 -2.25 -10.5 -3.25 -10.5 -4.0 -10.4 -4.75 -10.4 -5.5 -10.25 -6.75 -10.15 -12.65 -9.5 -14.5 -19.0 -16.4 -24.4 -10.65 -24.5 -2.5 -24.0 -1.15 -22.5 0.35 -19.9 0.35 -19.5 0.5 -19.15 0.5 -18.9 0.6 -18.65 0.75 -18.5 0.75 -18.15 1.6 -14.75" fill="#aeaeae" fill-rule="evenodd" stroke="none"/>
      <path d="M-32.75 -23.0 L-32.9 -22.75 -31.65 -21.75 -32.15 -21.15 -33.25 -21.65 -35.15 -21.9 -37.0 -21.4 -38.65 -20.15 -39.75 -18.4 -39.9 -16.4 -39.4 -14.5 -38.0 -12.9 -36.4 -12.0 -34.25 -11.75 -33.25 -12.0 -33.75 -11.4 -34.75 -11.25 -36.0 -11.5 -36.75 -11.5 -38.75 -12.5 -40.9 -15.4 -41.5 -17.5 -41.65 -17.75 -41.4 -20.15 Q-39.9 -25.15 -33.0 -23.15 L-32.9 -23.0 -32.75 -23.0" fill="#333333" fill-rule="evenodd" stroke="none"/>
      <path d="M5.5 -16.65 L4.0 -15.4 2.35 -18.0 2.75 -18.0 3.35 -18.4 4.6 -17.25 5.5 -16.65 M-32.4 -23.9 L-31.9 -23.4 -32.75 -23.0 -32.9 -23.0 -33.0 -23.15 -32.4 -23.9" fill="#1d1d1d" fill-rule="evenodd" stroke="none"/>
      <path d="M-9.25 26.0 L-24.0 27.35 -35.4 27.75 -34.75 27.1 -32.75 26.85 -9.25 26.0 M6.5 -18.25 L5.5 -16.65 4.6 -17.25 3.35 -18.4 3.6 -18.75 3.75 -19.25 6.5 -18.25" fill="#0b0b0b" fill-rule="evenodd" stroke="none"/>
      <path d="M2.6 -21.15 L1.75 -21.15 1.25 -21.0 1.1 -20.9 1.0 -20.75 0.85 -20.65 0.5 -20.15 0.75 -21.65 0.6 -21.75 1.75 -21.75 2.25 -21.5 2.6 -21.15" fill="#0f0f0f" fill-rule="evenodd" stroke="none"/>
      <path d="M-56.15 -10.5 L-54.9 -10.9 -42.65 -11.75 -40.9 -10.75 -52.25 -9.9 -52.75 -9.75 -54.65 -9.75 -56.0 -10.15 -56.15 -10.5 M-33.25 -12.0 L-34.25 -11.75 -34.5 -14.4 -34.9 -14.9 -34.15 -15.0 -34.15 -14.75 -33.25 -12.0" fill="#2b2b2b" fill-rule="evenodd" stroke="none"/>
      <path d="M14.0 -0.25 L14.5 5.85 14.0 6.1 14.1 5.35 13.75 5.25 13.75 5.1 13.1 1.0 12.85 -0.65 13.0 -1.4 14.0 -0.25 M-54.5 -7.15 L-56.25 -7.0 -57.4 -7.25 -58.4 -8.0 -58.4 -9.4 -57.5 -10.15 -56.15 -10.5 -56.0 -10.15 -54.65 -9.75 -52.75 -9.75 -56.65 -8.9 -57.5 -8.5 -57.5 -8.25 -56.5 -8.0 -53.65 -7.75 -55.25 -7.65 -54.15 -7.5 -54.5 -7.15 M-24.0 -5.4 L-22.25 -5.5 -17.0 -0.15 -16.65 0.1 -16.0 2.85 -23.25 -1.0 -23.4 -1.25 -24.0 -5.4" fill="#121212" fill-rule="evenodd" stroke="none"/>
      <path d="M-39.0 -8.4 L-54.5 -7.15 -54.15 -7.5 -55.25 -7.65 -53.65 -7.75 -39.0 -8.4" fill="#0a0a0a" fill-rule="evenodd" stroke="none"/>
      <path d="M14.5 5.85 L15.85 22.75 14.75 22.6 14.75 19.25 14.35 18.25 14.0 12.1 13.85 11.6 13.85 11.5 13.85 7.6 13.5 6.6 13.6 6.35 14.0 6.1 14.5 5.85 M-31.9 -23.4 L-30.15 -21.75 -32.15 -17.65 -32.5 -10.75 -33.4 -11.0 -33.75 -11.4 -33.25 -12.0 -34.15 -14.75 -34.15 -15.0 -33.0 -16.0 -33.15 -17.4 -33.5 -17.75 -34.4 -18.75 -34.4 -19.9 -33.75 -20.9 -32.15 -21.15 -31.65 -21.75 -32.9 -22.75 -32.75 -23.0 -31.9 -23.4" fill="#232323" fill-rule="evenodd" stroke="none"/>
      <path d="M-6.75 -10.15 L-6.0 -9.4 -6.5 -9.25 -12.5 -8.75 -13.0 -9.25 -12.65 -9.5 -6.75 -10.15 M7.75 8.1 L7.35 7.75 13.5 6.6 13.85 7.6 13.85 11.5 7.75 8.1" fill="#606060" fill-rule="evenodd" stroke="none"/>
      <path d="M6.1 -9.4 L5.75 -9.25 1.25 -7.5 -8.5 -6.75 -11.65 -6.5 -12.15 -8.75 -12.5 -8.75 -6.5 -9.25 -6.0 -9.4 -6.75 -10.15 -5.5 -10.25 -4.75 -10.4 -4.0 -10.4 -3.25 -10.5 -2.25 -10.5 -1.75 -10.65 -1.65 -10.65 6.85 -11.5 7.1 -10.0 6.1 -9.4" fill="#646464" fill-rule="evenodd" stroke="none"/>
      <path d="M6.5 -11.75 L6.85 -11.5 -1.65 -10.65 1.5 -12.65 1.6 -13.5 3.85 -13.5 6.5 -11.75" fill="#454545" fill-rule="evenodd" stroke="none"/>
      <path d="M6.1 -12.15 L6.5 -11.75 3.85 -13.5 1.5 -13.9 1.5 -14.25 1.85 -14.25 2.5 -14.4 2.75 -14.4 3.75 -14.4 5.35 -12.9 6.1 -12.15 M-19.4 -9.15 L-12.65 -9.5 -13.0 -9.25 -12.5 -8.75 -18.75 -8.4 -19.4 -9.15" fill="#5b5b5b" fill-rule="evenodd" stroke="none"/>
      <path d="M5.6 -15.9 L6.35 -15.65 6.35 -15.25 5.25 -14.65 3.1 -14.5 5.5 -15.9 5.6 -15.9" fill="#4a4a4a" fill-rule="evenodd" stroke="none"/>
      <path d="M-39.75 -18.4 L-38.65 -20.15 -37.9 -19.4 -36.25 -18.4 -36.65 -17.75 -39.75 -18.4" fill="#272727" fill-rule="evenodd" stroke="none"/>
      <path d="M-36.75 -17.0 L-36.5 -16.25 -39.9 -16.4 -36.75 -17.0" fill="#5f5f5f" fill-rule="evenodd" stroke="none"/>
      <path d="M0.5 -19.15 L0.6 -18.65 0.5 -18.9 0.5 -19.15 M-15.25 3.25 L-15.4 3.75 -15.5 3.35 -15.25 3.25 M-15.65 5.25 L-15.75 6.85 -16.15 6.75 -15.65 5.25 M14.75 22.6 L13.5 22.1 13.1 20.85 14.35 18.25 14.75 19.25 14.75 22.6" fill="#111111" fill-rule="evenodd" stroke="none"/>
      <path d="M4.0 -15.4 L2.25 -14.9 1.75 -16.5 1.6 -17.9 2.35 -18.0 4.0 -15.4" fill="#2d2d2d" fill-rule="evenodd" stroke="none"/>
      <path d="M2.25 -14.9 L1.6 -14.75 0.75 -18.15 0.75 -18.5 0.85 -18.5 1.6 -17.9 1.75 -16.5 2.25 -14.9" fill="#787878" fill-rule="evenodd" stroke="none"/>
      <path d="M-33.5 -17.75 L-33.15 -17.4 -33.0 -16.0 -34.15 -15.0 -34.9 -14.9 -35.5 -15.15 -35.75 -15.25 -36.25 -15.65 -36.4 -16.25 -36.4 -17.0 -36.15 -17.4 -36.15 -17.5 -35.75 -17.9 -34.75 -18.15 -33.5 -17.75 M-7.5 17.85 L-7.65 17.85 -7.9 18.0 -14.75 18.35 -7.75 15.25 -7.5 17.85" fill="#131313" fill-rule="evenodd" stroke="none"/>
      <path d="M-38.0 -12.9 L-39.4 -14.5 -36.5 -16.25 -36.4 -16.25 -36.25 -15.65 -37.4 -13.75 -38.0 -12.9" fill="#9c9c9c" fill-rule="evenodd" stroke="none"/>
      <path d="M-39.4 -14.5 L-39.9 -16.4 -36.5 -16.25 -39.4 -14.5 M7.35 7.75 L7.35 6.35 6.75 5.0 9.0 1.85 13.1 1.0 13.75 5.1 13.75 5.25 13.6 6.35 13.5 6.6 7.35 7.75" fill="#5e5e5e" fill-rule="evenodd" stroke="none"/>
      <path d="M-36.25 -15.65 L-35.75 -15.25 -37.4 -13.75 -36.25 -15.65" fill="#ababab" fill-rule="evenodd" stroke="none"/>
      <path d="M-36.4 -12.0 L-38.0 -12.9 -37.4 -13.75 -35.75 -15.25 -35.5 -15.15 -35.75 -13.5 -36.4 -12.0" fill="#aaaaaa" fill-rule="evenodd" stroke="none"/>
      <path d="M7.5 2.25 L9.0 1.85 6.75 5.0 7.35 6.35 7.35 7.75 7.75 8.1 8.85 11.1 8.75 15.75 0.1 17.1 -0.25 17.1 -7.75 15.25 -8.25 11.85 -8.65 11.75 -1.0 11.0 -1.25 9.75 -2.15 9.75 -8.75 9.5 -9.65 6.35 -7.9 6.25 -5.25 6.0 -3.75 5.85 7.5 2.25 M-34.25 -11.75 L-36.4 -12.0 -35.75 -13.5 -35.5 -15.15 -34.9 -14.9 -34.5 -14.4 -34.25 -11.75" fill="#686868" fill-rule="evenodd" stroke="none"/>
      <path d="M3.75 -14.4 L8.1 -14.0 8.0 -13.5 5.35 -12.9 3.75 -14.4 M8.75 15.75 L8.85 11.1 7.75 8.1 13.85 11.5 13.85 11.6 14.0 12.1 14.35 18.25 13.1 20.85 Q12.25 21.1 9.1 18.35 L8.75 15.75" fill="#3c3c3c" fill-rule="evenodd" stroke="none"/>
      <path d="M3.85 -13.5 L1.6 -13.5 1.5 -13.9 3.85 -13.5" fill="#3b3b3b" fill-rule="evenodd" stroke="none"/>
      <path d="M-34.75 -11.25 L-33.75 -11.4 -33.4 -11.0 -34.15 -10.5 -32.5 -10.75 -31.75 -10.25 -27.9 -9.75 -24.15 -8.75 -33.25 -8.15 -34.65 -10.25 -38.4 -6.5 -36.15 -11.15 -34.75 -11.25 M-2.15 9.75 L-1.25 9.75 -1.0 11.0 -8.65 11.75 -8.4 11.35 -8.75 10.5 -2.15 9.75" fill="#313131" fill-rule="evenodd" stroke="none"/>
      <path d="M-32.5 -10.75 L-34.15 -10.5 -33.4 -11.0 -32.5 -10.75" fill="#292929" fill-rule="evenodd" stroke="none"/>
      <path d="M6.85 -11.5 L11.85 -7.9 14.0 -0.25 13.0 -1.4 12.1 -2.65 11.35 -3.9 11.1 -4.5 11.1 -4.65 10.6 -4.9 8.85 -7.75 6.6 -8.9 6.1 -9.4 7.1 -10.0 6.85 -11.5" fill="#727272" fill-rule="evenodd" stroke="none"/>
      <path d="M9.0 1.85 L10.0 -0.75 10.25 -1.4 10.6 -2.4 10.85 -2.9 11.1 -3.5 11.35 -3.9 12.1 -2.65 12.85 -0.65 13.1 1.0 9.0 1.85" fill="#141b13" fill-rule="evenodd" stroke="none"/>
      <path d="M11.1 -4.5 L11.35 -3.9 11.1 -4.15 11.0 -4.4 11.1 -4.5" fill="#6c6c6c" fill-rule="evenodd" stroke="none"/>
      <path d="M9.1 -6.25 L6.6 -8.9 8.85 -7.75 10.6 -4.9 10.35 -5.0 10.1 -5.25 9.35 -6.0 9.1 -6.25" fill="#6f6f6f" fill-rule="evenodd" stroke="none"/>
      <path d="M-35.4 27.75 L-36.0 26.5 -36.5 23.85 -37.75 11.1 -37.65 -3.4 -35.0 -6.65 -33.25 -8.15 -32.0 -6.9 -30.15 -6.4 -30.65 -5.5 -32.5 -3.5 -32.65 -3.4 -34.5 -0.25 -35.0 -0.5 Q-36.0 2.75 -37.15 4.0 L-37.15 5.0 -36.75 5.35 -36.65 9.6 -35.9 10.25 -34.15 10.75 -25.9 10.6 -26.0 10.85 -33.65 16.25 -33.65 16.35 -32.75 26.85 -34.75 27.1 -35.4 27.75" fill="#040404" fill-rule="evenodd" stroke="none"/>
      <path d="M-37.5 21.1 L-38.0 19.75 -38.65 13.85 -38.15 14.1 -37.4 19.35 -37.5 21.1" fill="#3f3f3f" fill-rule="evenodd" stroke="none"/>
      <path d="M-30.65 -5.5 L-30.9 -5.0 -30.9 -4.75 -32.9 -2.5 -32.5 -3.5 -30.65 -5.5" fill="#0e0e0e" fill-rule="evenodd" stroke="none"/>
      <path d="M-32.25 1.6 L-29.65 5.1 -34.5 5.1 -33.9 0.0 -32.25 1.6" fill="#050805" fill-rule="evenodd" stroke="none"/>
      <path d="M-13.5 -6.25 L-13.0 -6.4 -11.75 6.6 -15.75 6.85 -15.65 5.25 -15.65 5.1 -15.5 4.6 -15.4 3.85 -15.4 3.75 -15.25 3.25 -15.25 3.0 -15.0 2.0 -13.65 -5.9 -13.5 -6.25" fill="#202020" fill-rule="evenodd" stroke="none"/>
      <path d="M-38.15 -4.4 L-38.0 8.5 -38.25 8.85 -38.5 8.0 -38.25 0.75 -38.15 -4.4 M-22.25 -5.5 L-17.9 -5.9 -16.25 -2.25 -17.0 -0.15 -22.25 -5.5" fill="#030303" fill-rule="evenodd" stroke="none"/>
      <path d="M-27.75 3.75 L-28.9 0.85 -25.65 -5.5 -24.0 -5.4 -23.4 -1.25 -23.75 -1.25 -24.15 -0.4 -27.75 3.75" fill="#8a8a8a" fill-rule="evenodd" stroke="none"/>
      <path d="M-28.9 0.85 L-30.15 -1.15 Q-29.75 -4.25 -28.4 -6.0 L-25.65 -5.5 -28.9 0.85" fill="#4f4f4f" fill-rule="evenodd" stroke="none"/>
      <path d="M-15.4 3.75 L-15.4 3.85 -15.5 4.6 -15.65 5.1 -15.65 5.25 -16.15 6.75 -20.75 6.25 -23.25 -1.0 -16.0 2.85 -15.5 3.35 -15.4 3.75" fill="#282828" fill-rule="evenodd" stroke="none"/>
      <path d="M-28.15 5.25 L-27.75 3.75 -24.15 -0.4 -23.75 -1.25 -23.4 -1.25 -23.25 -1.0 -20.75 6.25 -28.15 5.25" fill="#424242" fill-rule="evenodd" stroke="none"/>
      <path d="M15.85 22.75 L15.6 23.25 7.1 24.5 -9.25 26.0 -8.5 25.6 -0.4 25.0 14.75 22.6 15.85 22.75 M-0.25 17.1 L0.1 17.1 1.0 21.25 -7.15 21.85 -7.5 17.85 -0.25 17.1" fill="#0d0d0d" fill-rule="evenodd" stroke="none"/>
      <path d="M-7.75 15.25 L-0.25 17.1 -7.5 17.85 -7.75 15.25" fill="#1c1c1c" fill-rule="evenodd" stroke="none"/>
      <path d="M-2.15 9.75 L-8.75 10.5 -8.75 9.5 -2.15 9.75" fill="#464646" fill-rule="evenodd" stroke="none"/>
      <path d="M-8.75 9.5 L-8.75 10.5 -15.9 11.0 -8.75 9.5" fill="#383838" fill-rule="evenodd" stroke="none"/>
      <path d="M-8.75 10.5 L-8.4 11.35 -8.65 11.75 -16.0 12.25 -16.25 11.0 -15.9 11.0 -8.75 10.5" fill="#222222" fill-rule="evenodd" stroke="none"/>
      <path d="M5.75 -9.4 L6.1 -9.4 6.6 -8.9 6.75 -8.9 6.85 -8.65 9.1 -6.25 9.1 -6.15 9.5 -4.25 9.5 -3.75 9.6 -3.5 9.6 -3.0 10.0 -1.25 10.0 -0.9 10.0 -0.25 9.85 0.0 9.5 0.85 9.35 1.1 9.25 1.5 9.0 1.85 7.35 2.35 7.35 0.85 5.75 -9.4" fill="#222222" fill-opacity="0.50980395" fill-rule="evenodd" stroke="none"/>
      <path d="M-11.65 -6.5 L-11.4 -6.5 -8.5 -6.75 -7.5 -6.75 -5.4 -7.0 -4.5 -7.0 -3.9 -7.15 -0.15 -7.25 1.0 -7.5 1.1 -7.65 3.75 -8.25 5.75 -9.4 7.35 0.85 7.35 2.35 1.75 4.1 -3.65 5.85 -3.75 5.85 -4.4 6.0 -5.25 6.0 -9.65 6.5 -10.65 0.85 -10.65 0.75 -10.9 -1.0 -10.65 -1.65 -10.75 -2.5 -11.15 -3.15 -11.15 -3.25 -11.25 -3.4 -11.15 -4.65 -11.25 -4.9 -11.5 -6.15 -11.65 -6.5 M6.85 -8.65 L8.85 -7.5 10.6 -4.9 10.35 -5.0 9.1 -6.25 6.85 -8.65 M11.1 -4.0 L11.25 -3.9 11.1 -3.5 11.1 -4.0" fill="#111111" fill-opacity="0.50980395" fill-rule="evenodd" stroke="none"/>
      <path d="M10.6 -4.9 L11.1 -4.65 11.1 -4.5 11.0 -4.4 11.1 -4.0 11.1 -3.5 11.0 -2.9 10.6 -2.5 10.6 -1.75 10.35 -1.4 10.1 -1.25 10.0 -0.9 10.0 -1.25 9.6 -3.0 9.6 -3.5 9.5 -3.75 9.5 -4.25 9.1 -6.15 9.1 -6.25 10.35 -5.0 10.6 -4.9" fill="#111111" fill-rule="evenodd" stroke="none"/>
      <path d="M-12.15 -6.4 L-11.65 -6.5 -11.5 -6.15 -11.9 -5.9 -12.15 -6.4" fill="#0b0b0b" fill-rule="evenodd" stroke="none"/>
      <path d="M-9.9 6.5 L-15.9 6.85 -16.25 6.75 -16.9 6.75 -29.75 5.1 -33.75 0.1 -34.0 0.0 -33.9 -0.15 -33.15 -1.9 -32.9 -2.9 -32.65 -3.4 -30.4 -5.9 -30.25 -6.15 -30.15 -6.4 -29.9 -6.4 -28.4 -6.0 -27.9 -6.0 -26.4 -5.5 -25.65 -5.4 -19.15 -5.75 -18.25 -5.9 -15.5 -6.0 -14.4 -6.25 -13.5 -6.25 -13.0 -6.4 -12.15 -6.4 -11.9 -5.9 -11.65 -4.4 -11.5 -4.15 -11.5 -4.0 -10.65 0.75 -10.65 0.85 -9.9 6.5" fill="#030303" fill-opacity="0.50980395" fill-rule="evenodd" stroke="none"/>
      <path d="M-34.0 0.0 L-34.0 0.75 -34.15 1.0 -34.0 1.75 -34.65 4.75 -34.5 5.1 -34.5 8.35 -34.25 10.6 -35.25 10.35 -35.9 10.25 -36.0 10.25 -36.65 9.85 -36.65 9.75 -37.15 5.85 -37.15 4.0 -37.0 3.5 -36.4 2.35 -36.15 2.0 -35.0 -0.65 -34.5 -0.25 -34.25 -0.15 -33.9 -0.15 -34.0 0.0 M-38.4 4.85 L-38.25 5.5 -38.25 8.1 -38.5 8.0 -38.5 5.5 -38.4 4.85 -38.5 4.75 -38.5 5.5 -38.65 7.35 -38.65 7.25 -38.75 7.1 -38.75 6.75 -38.9 6.5 -38.65 -0.9 -38.5 0.25 -38.4 -1.65 -38.5 -1.9 -38.4 -2.4 -38.5 -4.15 -38.5 -1.9 -38.65 -1.0 -38.65 -2.0 -38.75 -2.25 -38.65 -4.9 -38.75 -5.15 -38.65 -5.65 -38.4 -4.9 -38.25 -4.65 -38.15 -4.4 -38.15 -4.0 -38.25 -3.75 -38.15 -2.9 -38.25 0.75 -38.4 1.6 -38.5 1.35 -38.5 2.85 -38.4 1.6 -38.25 1.75 -38.25 4.35 -38.4 4.85" fill="#000000" fill-opacity="0.50980395" fill-rule="evenodd" stroke="none"/>
      <path d="M-9.65 6.5 L-9.9 6.5 -10.65 0.85 -9.65 6.5 M-11.5 -6.15 L-11.25 -4.9 -11.15 -4.65 -11.25 -3.4 -11.15 -3.25 -11.15 -3.15 -10.75 -2.5 -10.65 -1.65 -10.9 -1.0 -10.65 0.75 -11.5 -4.0 -11.5 -4.15 -11.65 -4.4 -11.9 -5.9 -11.5 -6.15" fill="#121212" fill-rule="evenodd" stroke="none"/>
      <path d="M14.0 4.0 L14.1 5.35 14.1 5.75 14.35 6.0 14.0 6.1 13.5 6.5 13.75 5.25 13.75 5.1 12.85 -0.65 12.1 -2.65 12.35 -2.5 12.35 -2.4 13.0 -1.4 13.75 -0.65 13.85 0.85 14.0 2.6 14.0 4.0" fill="#0b0b0b" fill-opacity="0.50980395" fill-rule="evenodd" stroke="none"/>
      <path d="M14.0 4.0 L14.0 2.6 13.85 0.85 14.0 0.85 14.0 2.6 14.1 2.6 14.0 4.0" fill="#0c0c0c" fill-rule="evenodd" stroke="none"/>
    </g>
  </defs>
</svg>
