<?xml version="1.0" encoding="UTF-8" standalone="no"?>
<svg xmlns:xlink="http://www.w3.org/1999/xlink" height="1034.2px" width="773.35px" xmlns="http://www.w3.org/2000/svg">
  <g transform="matrix(1.0, 0.0, 0.0, 1.0, 365.9, 551.4)">
    <use height="86.6" transform="matrix(1.0, 0.0, 0.0, 1.0, -158.65, -61.5)" width="266.65" xlink:href="#shape0"/>
  </g>
  <defs>
    <g id="shape0" transform="matrix(1.0, 0.0, 0.0, 1.0, 158.65, 61.5)">
      <path d="M-18.65 -60.9 L-17.65 -61.5 -16.75 -60.9 -17.0 -60.5 -17.65 -60.15 -18.65 -60.9" fill="#616161" fill-rule="evenodd" stroke="none"/>
      <path d="M50.6 -42.75 L42.35 -43.0 -3.5 -42.5 -4.0 -42.5 -5.25 -42.5 -8.5 -42.4 -12.4 -42.4 -12.5 -42.4 -12.65 -43.5 -11.4 -43.75 48.6 -44.75 50.6 -44.5 50.6 -42.75 M-33.9 -38.75 L-34.15 -38.25 -35.25 -36.9 -35.4 -36.65 -35.65 -36.4 -35.75 -36.15 -36.25 -35.65 -36.65 -35.0 -37.0 -34.65 -37.4 -34.15 -37.4 -34.0 -42.0 -27.9 -43.0 -27.25 -43.9 -28.0 -36.15 -38.15 -37.15 -38.75 -36.0 -40.5 -33.15 -40.75 -34.9 -39.15 -33.9 -38.75 M-157.75 -30.15 L-158.5 -30.15 -158.65 -31.65 -158.15 -31.65 -157.75 -31.5 -157.75 -30.15 M-35.25 -42.15 L-57.0 -41.9 -57.0 -43.0 -21.5 -43.65 -21.5 -43.25 -22.15 -43.15 -22.25 -43.0 -23.5 -43.0 -23.65 -42.9 -29.4 -42.5 -30.65 -42.5 -30.5 -42.4 -30.75 -42.4 -35.25 -42.15 M-27.9 -48.75 L-18.65 -60.9 -17.65 -60.15 -17.0 -60.5 -24.15 -51.4 -25.15 -49.9 -25.4 -49.9 -25.4 -49.75 -25.75 -49.25 -26.25 -48.75 -26.25 -48.65 -26.5 -48.25 -27.25 -47.75 -27.9 -48.75 M-24.75 -48.5 L-25.9 -47.15 -26.0 -47.65 -24.75 -48.5 M-27.9 -28.0 L-28.4 -27.15 Q-30.25 -28.9 -34.25 -27.4 L-36.0 -25.9 -36.5 -24.65 -37.15 -24.15 Q-35.4 -31.15 -27.25 -28.65 L-27.9 -28.0 M-36.75 -19.5 L-36.15 -18.75 -36.65 -18.9 -36.75 -19.5" fill="#000000" fill-rule="evenodd" stroke="none"/>
      <path d="M-27.25 -37.25 L-27.5 -37.0 -33.9 -38.75 -34.9 -39.15 -33.15 -40.75 -24.15 -41.5 -25.5 -39.25 -26.15 -38.9 -26.4 -38.15 -27.25 -37.25 M-32.15 -43.75 L-27.9 -48.75 -27.25 -47.75 -26.5 -48.25 -26.0 -47.65 -25.9 -47.15 -25.4 -46.25 -24.4 -43.9 -32.15 -43.75 M-34.15 -24.25 L-33.4 -23.5 -31.9 -22.5 -31.5 -22.4 -32.15 -21.75 -34.5 -22.25 -35.15 -22.5 -34.5 -24.15 -34.15 -24.25" fill="#272727" fill-rule="evenodd" stroke="none"/>
      <path d="M9.5 -31.25 L10.6 -31.0 10.6 -30.65 9.5 -31.25 M-38.0 -14.9 L-41.15 -18.5 -42.25 -22.5 -41.75 -26.65 -39.25 -27.75 -39.0 -27.9 -31.75 -30.0 -26.15 -29.5 -27.25 -28.65 Q-35.4 -31.15 -37.15 -24.15 L-37.4 -21.9 -37.25 -21.5 -36.75 -19.5 -36.65 -18.9 -36.15 -18.75 -36.15 -18.65 -34.75 -16.9 -32.15 -15.4 -33.9 -13.0 -35.0 -13.15 -36.15 -13.9 -36.25 -13.9 -38.0 -14.9 M-26.65 -37.75 L-27.25 -37.25 -26.4 -38.15 -26.65 -37.75 M-158.15 -31.65 L-35.25 -42.15 -30.75 -42.4 -157.75 -31.5 -158.15 -31.65 M-57.0 -43.0 L-53.65 -43.5 -32.15 -43.75 -24.4 -43.9 -23.9 -43.9 -22.25 -43.9 -21.5 -43.65 -57.0 -43.0 M-1.4 -45.0 L-1.15 -44.9 -1.25 -44.9 -1.4 -45.0 M0.0 -45.15 L0.25 -45.0 0.1 -45.0 0.0 -45.15 M5.5 -28.65 L7.5 -29.15 9.35 -28.9 11.1 -27.9 12.35 -26.25 12.75 -24.4 12.75 -22.4 12.35 -22.4 Q11.2 -23.05 9.85 -23.25 L9.85 -24.4 9.5 -24.9 9.0 -25.25 8.6 -25.4 8.25 -25.65 7.85 -25.75 7.6 -25.9 7.0 -25.9 6.6 -25.75 6.25 -27.15 6.25 -27.9 5.75 -27.9 5.5 -28.65 M-4.0 -44.25 L-4.0 -44.15 -4.15 -44.15 -4.0 -44.25 M-5.4 -44.15 L-8.5 -44.0 -8.0 -44.15 -5.4 -44.15 M-22.15 -43.0 L-22.25 -43.0 -22.15 -43.15 -22.15 -43.0 M-29.4 -42.5 L-30.5 -42.4 -30.65 -42.5 -29.4 -42.5 M-27.5 -25.25 L-29.0 -25.15 -29.4 -25.0 -29.9 -22.9 -30.5 -22.9 -31.15 -22.75 -31.25 -23.0 -32.65 -25.5 -30.5 -26.15 -28.65 -25.9 -27.5 -25.25" fill="#080808" fill-rule="evenodd" stroke="none"/>
      <path d="M-21.5 -46.5 L-20.4 -46.75 -19.65 -45.75 -20.9 -45.5 -21.15 -45.4 -21.25 -45.15 -21.5 -44.75 -21.5 -43.65 -22.25 -43.9 -22.25 -44.9 -21.5 -46.5 M10.0 -19.25 L8.25 -18.75 7.75 -20.25 7.5 -22.0 8.35 -22.0 10.0 -19.25 M7.6 -17.75 L9.35 -17.5 7.75 -17.5 7.6 -17.75" fill="#2d2d2d" fill-rule="evenodd" stroke="none"/>
      <path d="M-24.15 -46.15 L-21.5 -46.5 -22.25 -44.9 -22.25 -43.9 -23.9 -43.9 -24.15 -46.15 M1.5 -30.0 L2.25 -29.65 2.35 -29.65 3.5 -28.4 -4.15 -28.9 -11.0 -28.75 -11.65 -29.4 -8.65 -29.9 -8.5 -31.4 -4.75 -31.65 -4.65 -30.65 -4.25 -30.65 -4.4 -31.65 -3.25 -31.5 -2.9 -29.4 -2.75 -31.25 -1.15 -30.9 1.5 -30.0 M13.35 -15.65 L13.75 -14.0 12.75 -13.5 11.6 -13.0 7.5 -11.5 -3.75 -10.65 -5.5 -10.5 -6.25 -12.9 -0.15 -13.4 0.25 -13.5 -0.75 -14.15 -0.4 -14.25 0.25 -14.25 1.1 -14.4 3.25 -14.5 4.1 -14.65 4.6 -14.65 13.35 -15.65 M-20.9 -30.4 L-21.75 -41.0 -22.15 -41.0 -21.25 -30.4 -22.25 -30.25 Q-23.15 -34.4 -22.5 -34.75 L-23.65 -41.5 -21.4 -41.75 -21.15 -40.9 -20.25 -30.5 -20.9 -30.4" fill="#676767" fill-rule="evenodd" stroke="none"/>
      <path d="M-19.65 -45.75 L-15.5 -47.15 -14.5 -47.0 Q-15.4 -45.65 -15.25 -43.75 L-14.5 -40.9 -16.75 -40.0 -18.5 -40.5 -20.15 -40.5 -19.65 -41.9 -17.25 -42.25 -17.65 -42.75 -18.65 -43.0 -18.5 -43.4 -19.75 -43.25 -20.15 -45.0 -20.9 -45.5 -19.65 -45.75" fill="#1d1d1d" fill-rule="evenodd" stroke="none"/>
      <path d="M-25.15 -49.9 L-24.25 -49.25 -24.75 -48.5 -26.0 -47.65 -26.5 -48.25 -26.25 -48.65 -26.25 -48.75 -25.75 -49.25 -25.4 -49.75 -25.4 -49.9 -25.15 -49.9 M-15.5 -47.15 L-15.5 -48.5 -14.9 -49.4 -13.9 -49.9 -11.9 -49.5 -11.25 -48.9 -11.0 -47.4 -11.25 -47.15 -14.5 -47.0 -15.5 -47.15" fill="#525252" fill-rule="evenodd" stroke="none"/>
      <path d="M-11.0 -47.4 L-8.4 -46.75 -6.15 -46.75 -5.65 -46.4 -5.15 -44.5 -5.4 -44.15 -8.0 -44.15 -8.9 -45.9 -10.15 -46.25 -11.25 -47.15 -11.0 -47.4 M-5.25 -42.5 L-5.65 -41.75 -9.15 -40.9 -9.4 -41.25 -8.75 -41.5 -8.5 -42.4 -5.25 -42.5" fill="#484848" fill-rule="evenodd" stroke="none"/>
      <path d="M-11.25 -47.15 L-10.15 -46.25 Q-13.15 -46.15 -12.65 -43.5 L-12.5 -42.4 -12.4 -42.4 -11.4 -41.25 -10.15 -41.15 Q-10.8 -40.75 -11.5 -40.4 L-13.15 -40.4 -14.5 -40.9 -15.25 -43.75 Q-15.4 -45.65 -14.5 -47.0 L-11.25 -47.15" fill="#191919" fill-rule="evenodd" stroke="none"/>
      <path d="M10.8 -45.95 L13.0 -46.15 13.1 -46.15 103.0 -53.75 104.25 -53.9 104.6 -53.9 107.85 -54.15 108.0 -52.9 11.0 -44.5 10.35 -44.5 9.5 -44.4 4.25 -44.4 4.1 -45.25 10.8 -45.95 M-3.5 -42.5 L-2.75 -31.25 -2.9 -29.4 -3.25 -31.5 -4.0 -42.5 -3.5 -42.5 M-31.65 21.6 L-32.9 18.5 -32.65 17.75 -33.25 12.1 -34.25 4.35 -33.9 4.0 -33.65 4.1 -33.5 5.1 -33.25 5.6 -33.15 2.5 -33.25 1.85 -33.4 -8.15 -33.5 -8.4 -33.75 -8.75 -33.9 -9.0 -34.0 -9.25 -34.0 -9.9 -33.75 -10.25 -29.9 -14.15 -28.25 -12.15 -32.65 -7.65 -32.75 -6.75 -32.65 4.1 -33.0 6.6 -32.65 7.75 -32.9 8.1 -31.65 21.6 M8.6 -25.4 L9.0 -25.25 9.5 -24.9 9.85 -24.4 9.85 -23.25 9.75 -22.9 9.25 -22.4 8.85 -22.15 8.35 -22.0 7.5 -22.0 6.75 -22.5 6.75 -22.75 6.6 -22.75 6.5 -23.25 6.5 -23.65 6.35 -23.9 6.35 -24.0 6.6 -24.5 6.85 -24.75 6.75 -24.75 7.6 -25.4 8.6 -25.4 M-14.5 -40.9 L-13.15 -40.4 -11.5 -40.4 Q-10.8 -40.75 -10.15 -41.15 L-9.4 -41.25 -9.15 -40.9 -8.5 -31.4 -8.65 -29.9 -11.65 -29.4 -15.9 -29.4 -16.0 -30.75 -16.75 -40.0 -14.5 -40.9 M-20.25 -30.5 L-21.15 -40.9 -20.65 -41.0 -20.65 -40.5 -20.25 -35.25 -20.15 -35.0 -20.15 -34.25 -20.0 -33.4 -19.9 -30.5 -19.65 -28.0 -20.25 -28.4 -20.25 -30.5" fill="#161616" fill-rule="evenodd" stroke="none"/>
      <path d="M11.0 -44.5 L53.85 -45.25 56.0 -45.0 50.6 -44.5 48.6 -44.75 -11.4 -43.75 -8.5 -44.0 -5.4 -44.15 -4.15 -44.15 -4.0 -44.15 -4.0 -44.25 4.25 -44.4 9.5 -44.4 10.35 -44.5 11.0 -44.5 M-27.65 -14.65 L-29.5 -14.25 -28.75 -14.75 -27.65 -14.65" fill="#2a2a2a" fill-rule="evenodd" stroke="none"/>
      <path d="M56.0 -45.0 L56.6 -45.0 56.6 -43.25 50.6 -42.75 50.6 -44.5 56.0 -45.0 M-35.25 -11.25 L-51.4 -10.0 -51.15 -10.4 -52.25 -10.5 -50.65 -10.65 -35.25 -11.25" fill="#0a0a0a" fill-rule="evenodd" stroke="none"/>
      <path d="M-5.15 -44.5 L-4.4 -44.75 -4.0 -44.75 -2.9 -44.9 -1.5 -44.9 -1.4 -45.0 -1.25 -44.9 -1.5 -44.9 -4.0 -44.65 -4.4 -44.65 -5.15 -44.5 M-0.15 -45.0 L0.0 -45.15 0.1 -45.0 -0.15 -45.0 M1.35 -45.15 L1.6 -45.25 2.75 -45.25 10.8 -45.95 4.1 -45.25 2.75 -45.25 1.6 -45.15 1.35 -45.15 M-20.5 -43.25 L-22.15 -43.0 -22.15 -43.15 -21.5 -43.25 -20.5 -43.25 M-1.5 12.0 L6.75 14.0 -1.0 14.75 -1.5 12.0" fill="#1b1b1b" fill-rule="evenodd" stroke="none"/>
      <path d="M-36.0 -40.5 L-157.75 -30.15 -157.75 -31.5 -30.75 -42.4 -30.5 -42.4 -29.4 -42.5 -23.65 -42.9 -23.5 -43.0 -22.25 -43.0 -22.15 -43.0 -20.5 -43.25 -19.75 -43.25 -18.5 -43.4 -18.65 -43.0 -17.65 -42.75 -17.25 -42.25 -19.65 -41.9 -21.4 -41.75 -23.65 -41.5 -24.15 -41.5 -33.15 -40.75 -36.0 -40.5 M-1.15 -44.9 L-0.15 -45.0 0.1 -45.0 0.25 -45.0 1.35 -45.15 1.6 -45.15 2.75 -45.25 4.1 -45.25 4.25 -44.4 -4.0 -44.25 -4.15 -44.15 -5.4 -44.15 -5.15 -44.5 -4.4 -44.65 -4.0 -44.65 -1.5 -44.9 -1.25 -44.9 -1.15 -44.9 M-1.15 19.0 L-0.9 18.0 -1.25 17.5 -0.9 17.0 -1.25 16.85 -0.65 16.6 -1.25 16.35 -1.0 16.1 -1.25 15.75 -0.9 15.6 -1.25 15.25 -0.65 15.1 -1.0 14.75 6.75 14.0 7.75 18.25 -0.65 19.0 -1.15 19.0" fill="#0c0c0c" fill-rule="evenodd" stroke="none"/>
      <path d="M-25.5 -29.9 L-25.5 -30.65 -26.4 -37.5 -26.65 -37.75 -26.4 -38.15 -26.15 -38.9 -25.5 -39.25 -24.15 -41.5 -23.65 -41.5 -22.5 -34.75 Q-23.15 -34.4 -22.25 -30.25 L-25.5 -29.9 M-25.4 -46.25 L-24.15 -46.15 -23.9 -43.9 -24.4 -43.9 -25.4 -46.25" fill="#050505" fill-rule="evenodd" stroke="none"/>
      <path d="M-3.75 -10.65 L7.5 -11.5 11.6 -13.0 12.75 -7.15 13.35 -1.15 3.6 2.1 -0.15 2.6 0.35 -0.5 Q-2.65 -4.25 -3.75 -10.65 M16.35 -9.75 L16.75 -9.4 17.35 -5.65 17.25 -5.25 16.35 -9.75 M-19.65 -41.9 L-20.15 -40.5 -20.65 -40.5 -20.65 -41.0 -21.15 -40.9 -21.4 -41.75 -19.65 -41.9 M-20.9 -45.5 L-20.15 -45.0 -19.75 -43.25 -20.5 -43.25 -21.5 -43.25 -21.5 -43.65 -21.5 -44.75 -21.25 -45.15 -21.15 -45.4 -20.9 -45.5 M-33.75 -8.75 L-33.5 -8.4 -33.5 -4.0 -33.5 -1.9 -33.65 4.1 -33.9 4.0 -33.75 -6.15 -34.0 -4.0 -34.25 -4.4 -34.15 -7.4 -33.9 -7.5 -33.75 -6.75 -33.75 -8.75 M-9.0 15.35 L-9.65 19.75 -1.15 19.0 -0.65 19.0 -0.65 20.0 -1.25 20.0 -0.65 20.1 -1.25 20.25 -0.75 20.35 -0.75 20.85 -1.4 20.85 -1.5 21.25 -1.0 21.25 -1.5 21.35 -1.4 21.85 -2.4 23.0 -3.25 23.1 -10.65 23.75 -27.65 24.1 -28.5 13.35 -28.5 13.25 -27.25 12.1 -20.25 7.35 -20.5 10.85 Q-19.65 12.5 -19.4 15.5 L-9.0 15.35" fill="#020202" fill-rule="evenodd" stroke="none"/>
      <path d="M-8.5 -44.0 L-11.4 -43.75 -12.65 -43.5 Q-13.15 -46.15 -10.15 -46.25 L-8.9 -45.9 -8.0 -44.15 -8.5 -44.0 M-10.15 -41.15 L-11.4 -41.25 -12.4 -42.4 -8.5 -42.4 -8.75 -41.5 -9.4 -41.25 -10.15 -41.15" fill="#313131" fill-rule="evenodd" stroke="none"/>
      <path d="M-5.65 -41.75 L-5.25 -42.5 -4.4 -31.65 -4.25 -30.65 -4.65 -30.65 -4.75 -31.65 -5.65 -41.75 M-29.15 -22.15 L-28.4 -21.5 -28.25 -20.25 -29.5 -19.0 -29.75 -18.9 -30.25 -18.9 -30.9 -19.15 -31.0 -19.15 -31.65 -19.65 -31.65 -20.15 -31.75 -20.25 -31.75 -20.75 -31.4 -21.65 -31.0 -22.0 -30.15 -22.25 -29.15 -22.15 M-32.65 -25.5 L-31.25 -23.0 -31.15 -22.75 -31.5 -22.4 -31.9 -22.5 -33.4 -23.5 -34.15 -24.25 -32.65 -25.5" fill="#151515" fill-rule="evenodd" stroke="none"/>
      <path d="M-26.15 -29.5 L-25.5 -29.9 -22.25 -30.25 -21.25 -30.4 -21.25 -29.25 -20.9 -29.25 -20.9 -30.4 -20.25 -30.5 -20.25 -28.4 -19.65 -28.0 -19.9 -30.5 -16.0 -30.75 -15.9 -29.4 -11.65 -29.4 -11.0 -28.75 -18.65 -27.65 -25.25 -26.0 -27.25 -27.5 -27.9 -28.0 -27.25 -28.65 -26.15 -29.5" fill="#535353" fill-rule="evenodd" stroke="none"/>
      <path d="M-21.25 -30.4 L-22.15 -41.0 -21.75 -41.0 -20.9 -30.4 -20.9 -29.25 -21.25 -29.25 -21.25 -30.4" fill="#171717" fill-rule="evenodd" stroke="none"/>
      <path d="M-2.75 -31.25 L1.1 -32.65 Q8.75 -32.4 9.5 -31.25 L10.6 -30.65 11.1 -29.15 6.85 -30.75 Q5.5 -32.4 2.1 -32.15 L-1.15 -30.9 -2.75 -31.25" fill="#292929" fill-rule="evenodd" stroke="none"/>
      <path d="M6.85 -30.75 L3.85 -30.9 1.5 -30.0 -1.15 -30.9 2.1 -32.15 Q5.5 -32.4 6.85 -30.75" fill="#010101" fill-rule="evenodd" stroke="none"/>
      <path d="M11.1 -29.15 L13.1 -26.75 13.6 -24.75 13.1 -21.9 Q12.6 -20.15 10.5 -18.9 L8.35 -18.25 7.5 -18.25 7.5 -18.75 8.25 -18.75 10.0 -19.25 11.6 -20.65 12.75 -22.4 12.75 -24.4 12.35 -26.25 11.1 -27.9 9.35 -28.9 7.5 -29.15 5.5 -28.65 4.5 -27.9 3.75 -28.5 4.0 -29.15 3.6 -29.4 2.35 -29.65 2.25 -29.65 1.5 -30.0 3.85 -30.9 6.85 -30.75 11.1 -29.15" fill="#505050" fill-rule="evenodd" stroke="none"/>
      <path d="M2.35 -29.65 L3.6 -29.4 4.0 -29.15 3.75 -28.5 4.5 -27.9 5.75 -27.9 6.25 -27.9 6.25 -27.15 6.6 -25.75 6.35 -24.15 6.0 -25.25 3.5 -28.4 2.35 -29.65" fill="#494949" fill-rule="evenodd" stroke="none"/>
      <path d="M7.5 -18.75 L7.5 -18.25 7.6 -18.15 7.6 -17.75 7.75 -17.5 Q8.1 -16.4 4.6 -14.65 L4.1 -14.65 3.25 -14.5 1.1 -14.4 0.25 -14.25 -0.4 -14.25 -0.75 -14.15 -6.75 -13.65 -9.0 -23.75 -11.0 -28.75 -4.15 -28.9 3.5 -28.4 6.0 -25.25 6.35 -24.15 6.35 -24.0 6.35 -23.9 6.5 -23.65 6.5 -23.25 6.6 -22.75 6.75 -22.5 7.5 -18.75" fill="#afafaf" fill-rule="evenodd" stroke="none"/>
      <path d="M-53.0 -13.5 L-38.0 -14.9 -36.25 -13.9 -48.75 -12.9 -49.5 -12.75 -49.65 -12.75 -51.65 -12.65 -53.0 -13.15 -53.0 -13.5 M-29.5 -18.5 L-28.5 -15.9 -29.65 -15.65 -29.9 -17.65 -30.25 -18.9 -29.75 -18.9 -29.5 -18.5 M-27.65 -2.9 L-26.75 -7.15 -25.15 -9.75 -24.75 -10.4 -24.0 -10.25 Q-26.15 -6.65 -26.25 -3.65 L-25.15 -1.9 -25.25 -1.5 -23.9 1.1 -23.75 1.6 -24.4 1.5 -27.65 -2.9" fill="#2b2b2b" fill-rule="evenodd" stroke="none"/>
      <path d="M-51.4 -10.0 L-53.65 -9.9 -55.4 -10.75 -55.5 -12.15 -54.4 -13.15 -53.0 -13.5 -53.0 -13.15 -51.65 -12.65 -49.65 -12.75 -50.4 -12.5 -54.15 -11.65 -54.5 -11.4 -54.5 -11.15 -54.15 -11.0 -50.65 -10.65 -52.25 -10.5 -51.15 -10.4 -51.4 -10.0 M6.35 -24.15 L6.6 -25.75 7.0 -25.9 7.6 -25.9 7.85 -25.75 8.25 -25.65 8.6 -25.4 7.6 -25.4 6.75 -24.75 6.6 -24.5 6.35 -24.15 M6.6 -22.75 L6.75 -22.75 6.75 -22.5 6.6 -22.75 M21.6 19.75 L20.6 19.35 20.1 18.0 21.5 15.25 21.6 19.75" fill="#111111" fill-rule="evenodd" stroke="none"/>
      <path d="M-36.25 -13.9 L-36.15 -13.9 -35.0 -13.15 -33.9 -13.0 -35.25 -11.25 -50.65 -10.65 -54.15 -11.0 -54.5 -11.15 -54.5 -11.4 -54.15 -11.65 -50.4 -12.5 -49.65 -12.75 -49.5 -12.75 -48.75 -12.9 -36.25 -13.9" fill="#181818" fill-rule="evenodd" stroke="none"/>
      <path d="M-3.4 23.35 L-18.0 24.75 -30.65 25.1 -29.65 24.5 -27.65 24.1 -10.65 23.75 -3.25 23.1 -3.4 23.35 M12.75 -22.4 L11.6 -20.65 9.25 -22.4 9.75 -22.9 9.85 -23.25 Q11.2 -23.05 12.35 -22.4 L12.75 -22.4" fill="#0b0b0b" fill-rule="evenodd" stroke="none"/>
      <path d="M4.5 -27.9 L5.5 -28.65 5.75 -27.9 4.5 -27.9" fill="#141414" fill-rule="evenodd" stroke="none"/>
      <path d="M-28.4 -27.15 L-27.9 -28.0 -27.25 -27.5 -27.9 -27.25 -28.15 -26.9 -28.25 -27.15 -28.4 -27.15" fill="#1e1e1e" fill-rule="evenodd" stroke="none"/>
      <path d="M-28.4 -27.15 L-28.25 -27.15 -28.15 -26.9 -26.9 -26.15 -27.5 -25.25 -28.65 -25.9 -30.5 -26.15 -32.65 -25.5 -34.15 -24.25 -34.5 -24.15 -35.15 -22.5 -35.4 -20.4 -34.9 -18.5 -33.5 -16.75 -31.75 -15.9 -29.65 -15.65 -28.5 -15.9 -28.65 -15.4 -29.25 -15.15 -30.15 -15.15 -32.15 -15.4 -34.75 -16.9 -36.15 -18.65 -36.15 -18.75 -36.75 -19.5 -37.25 -21.5 -37.4 -21.9 -37.15 -24.15 -36.5 -24.65 -36.0 -25.9 -34.25 -27.4 Q-30.25 -28.9 -28.4 -27.15 M-18.5 -12.75 L-20.75 -13.0 -22.25 -13.65 -26.9 -14.15 -26.75 -14.4 -27.65 -14.65 -27.15 -18.9 -27.4 -21.65 -25.25 -26.0 -18.65 -27.65 -11.0 -28.75 -9.0 -23.75 -6.75 -13.65 -7.15 -13.5 -13.75 -13.15 -14.0 -13.15 -16.5 -12.9 -17.0 -12.9 -17.75 -12.75 -18.5 -12.75" fill="#303030" fill-rule="evenodd" stroke="none"/>
      <path d="M-28.15 -26.9 L-27.9 -27.25 -27.25 -27.5 -25.25 -26.0 -27.4 -21.65 -27.15 -18.9 -27.65 -14.65 -28.75 -14.75 -28.75 -15.15 -29.25 -15.15 -28.65 -15.4 -28.5 -15.9 -29.5 -18.5 -29.5 -19.0 -28.25 -20.25 -28.4 -21.5 -29.15 -22.15 -29.75 -22.75 -29.75 -22.9 -29.9 -22.9 -29.4 -25.0 -29.0 -25.15 -27.5 -25.25 -26.9 -26.15 -28.15 -26.9" fill="#232323" fill-rule="evenodd" stroke="none"/>
      <path d="M-0.75 -14.15 L0.25 -13.5 -0.15 -13.4 -6.25 -12.9 -6.65 -12.9 -7.15 -13.5 -6.75 -13.65 -0.75 -14.15" fill="#646464" fill-rule="evenodd" stroke="none"/>
      <path d="M13.0 -15.9 L13.35 -15.65 4.6 -14.65 Q8.1 -16.4 7.75 -17.5 L9.35 -17.5 11.0 -17.0 11.25 -16.65 11.5 -16.5 12.1 -16.25 13.0 -15.9 M-23.9 1.1 L-19.65 -3.9 -19.4 -3.75 -17.0 2.35 -23.75 1.6 -23.9 1.1" fill="#444444" fill-rule="evenodd" stroke="none"/>
      <path d="M10.85 -18.75 Q14.75 -18.5 13.0 -15.9 L12.1 -16.25 13.0 -16.75 12.75 -17.15 10.6 -17.4 10.1 -17.9 11.1 -18.25 10.85 -18.75" fill="#383838" fill-rule="evenodd" stroke="none"/>
      <path d="M10.5 -18.9 L10.85 -18.75 11.1 -18.25 10.1 -17.9 9.6 -18.25 8.35 -18.25 10.5 -18.9" fill="#4b4b4b" fill-rule="evenodd" stroke="none"/>
      <path d="M-29.9 -22.9 L-29.75 -22.9 -29.75 -22.75 -30.5 -22.9 -29.9 -22.9 M-10.0 3.25 L-5.9 3.1 -3.65 2.85 -2.9 5.0 -2.65 4.85 -2.65 6.0 -9.25 7.5 -9.5 7.5 -9.9 7.6 -10.15 7.6 -9.9 9.0 -2.25 8.25 -1.9 8.25 -1.5 12.0 -9.0 15.35 -19.4 15.5 Q-19.65 12.5 -20.5 10.85 L-20.25 7.35 -21.15 4.75 -24.4 1.5 -23.75 1.6 -17.0 2.35 -10.5 3.25 -10.0 3.25" fill="#252525" fill-rule="evenodd" stroke="none"/>
      <path d="M-29.75 -22.75 L-29.15 -22.15 -30.15 -22.25 -31.0 -22.0 -31.4 -21.65 -31.75 -21.15 -31.75 -20.75 -31.75 -20.25 -32.0 -20.4 -32.15 -21.0 -32.15 -21.75 -31.5 -22.4 -31.15 -22.75 -30.5 -22.9 -29.75 -22.75" fill="#070707" fill-rule="evenodd" stroke="none"/>
      <path d="M-32.15 -21.75 L-32.15 -21.0 -35.4 -20.4 -35.15 -22.5 -34.5 -22.25 -32.15 -21.75" fill="#363636" fill-rule="evenodd" stroke="none"/>
      <path d="M-32.15 -21.0 L-32.0 -20.4 -35.4 -20.4 -32.15 -21.0" fill="#606060" fill-rule="evenodd" stroke="none"/>
      <path d="M6.75 -24.75 L6.85 -24.75 6.6 -24.5 6.35 -24.0 6.35 -24.15 6.6 -24.5 6.75 -24.75" fill="#101010" fill-rule="evenodd" stroke="none"/>
      <path d="M11.6 -20.65 L10.0 -19.25 8.35 -22.0 8.85 -22.15 9.25 -22.4 11.6 -20.65" fill="#1c1c1c" fill-rule="evenodd" stroke="none"/>
      <path d="M8.25 -18.75 L7.5 -18.75 6.75 -22.5 7.5 -22.0 7.75 -20.25 8.25 -18.75" fill="#797979" fill-rule="evenodd" stroke="none"/>
      <path d="M7.5 -18.25 L8.35 -18.25 9.6 -18.25 10.1 -17.9 10.6 -17.4 11.0 -17.0 9.35 -17.5 7.6 -17.75 7.6 -18.15 7.5 -18.25" fill="#5d5d5d" fill-rule="evenodd" stroke="none"/>
      <path d="M22.85 19.75 L22.85 20.5 12.6 22.0 -3.4 23.35 -3.25 23.1 -2.4 23.0 6.0 22.25 21.6 19.75 22.85 19.75 M-31.75 -20.75 L-31.75 -21.15 -31.4 -21.65 -31.75 -20.75 M-27.5 -6.5 L-27.25 -7.4 -25.15 -9.75 -26.75 -7.15 -27.5 -6.5" fill="#0e0e0e" fill-rule="evenodd" stroke="none"/>
      <path d="M-32.0 -20.4 L-31.75 -20.25 -31.65 -20.15 -31.65 -19.65 -32.75 -17.75 -33.5 -16.75 -34.9 -18.5 -34.25 -18.75 -32.0 -20.4" fill="#9d9d9d" fill-rule="evenodd" stroke="none"/>
      <path d="M-13.75 -13.15 L-7.15 -13.5 -6.65 -12.9 -13.15 -12.4 -13.75 -13.15 M-35.4 -20.4 L-32.0 -20.4 -34.25 -18.75 -34.9 -18.5 -35.4 -20.4 M14.6 4.6 L14.25 4.25 20.75 3.1 21.0 8.25 14.6 4.6" fill="#5f5f5f" fill-rule="evenodd" stroke="none"/>
      <path d="M-32.75 -17.75 L-31.65 -19.65 -31.0 -19.15 -32.75 -17.75" fill="#acacac" fill-rule="evenodd" stroke="none"/>
      <path d="M-33.5 -16.75 L-32.75 -17.75 -31.0 -19.15 -31.25 -17.15 -31.75 -15.9 -33.5 -16.75" fill="#ababab" fill-rule="evenodd" stroke="none"/>
      <path d="M-30.25 -18.9 L-29.9 -17.65 -29.65 -15.65 -31.75 -15.9 -31.25 -17.15 -31.0 -19.15 -30.9 -19.15 -30.25 -18.9 M-1.9 2.75 L-0.15 2.6 3.6 2.1 13.35 -1.15 16.0 -1.9 13.6 1.5 14.35 2.85 14.25 4.25 14.6 4.6 15.85 7.35 16.0 12.5 6.75 14.0 -1.5 12.0 -1.9 8.25 5.75 7.6 5.5 6.25 5.0 6.25 -2.4 6.1 -2.65 6.0 -2.65 4.85 -2.9 5.0 -3.65 2.85 -1.9 2.75" fill="#696969" fill-rule="evenodd" stroke="none"/>
      <path d="M-32.9 18.5 L-33.65 17.0 -34.15 11.25 -33.25 12.1 -32.65 17.75 -32.9 18.5 M-29.5 -19.0 L-29.5 -18.5 -29.75 -18.9 -29.5 -19.0" fill="#424242" fill-rule="evenodd" stroke="none"/>
      <path d="M-34.15 11.25 L-35.9 1.6 -35.75 -10.4 -35.25 -11.25 -33.9 -13.0 -32.15 -15.4 -30.15 -15.15 -31.75 -14.65 -33.75 -10.25 -34.0 -9.9 -34.0 -9.25 -33.9 -9.0 -33.75 -8.75 -33.75 -6.75 -33.9 -7.5 -34.15 -7.4 -34.25 -4.4 -34.0 -4.0 -33.75 -6.15 -33.9 4.0 -34.25 4.35 -33.25 12.1 -34.15 11.25 M-33.65 4.1 L-33.5 -1.9 -33.5 5.1 -33.65 4.1 M-33.5 -4.0 L-33.5 -8.4 -33.4 -8.15 -33.5 -4.0 M-29.4 -4.0 L-28.5 -3.9 -27.5 -6.5 -26.75 -7.15 -27.65 -2.9 -28.65 -3.75 -29.5 1.5 -29.0 7.35 -30.4 7.1 -31.65 6.35 -31.5 5.1 -32.15 1.75 Q-30.9 -4.0 -29.4 -4.0" fill="#2e2e2e" fill-rule="evenodd" stroke="none"/>
      <path d="M10.6 -17.4 L12.75 -17.15 13.0 -16.75 12.1 -16.25 11.5 -16.5 11.25 -16.65 11.0 -17.0 10.6 -17.4 M-2.65 6.0 L-2.4 6.1 -2.4 7.0 -9.25 7.5 -2.65 6.0" fill="#393939" fill-rule="evenodd" stroke="none"/>
      <path d="M-27.65 -14.65 L-26.75 -14.4 -26.9 -14.15 -22.25 -13.65 -20.75 -13.0 -18.5 -12.75 -28.25 -12.15 -29.9 -14.15 -33.75 -10.25 -31.75 -14.65 -30.15 -15.15 -29.25 -15.15 -28.75 -15.15 -28.75 -14.75 -29.5 -14.25 -27.65 -14.65" fill="#333333" fill-rule="evenodd" stroke="none"/>
      <path d="M-6.25 -12.9 L-5.5 -10.5 -6.25 -10.4 -7.25 -10.25 -7.75 -10.25 -14.4 -9.75 -19.15 -9.4 -20.25 -9.5 -21.0 -9.65 -24.0 -10.25 -24.75 -10.4 -26.65 -10.75 -28.25 -12.15 -18.5 -12.75 -17.75 -12.75 -17.0 -12.9 -16.5 -12.9 -14.0 -13.15 -13.75 -13.15 -13.15 -12.4 -6.65 -12.9 -6.25 -12.9 M-2.4 6.1 L5.0 6.25 -2.4 7.0 -2.4 6.1" fill="#474747" fill-rule="evenodd" stroke="none"/>
      <path d="M13.35 -15.65 L18.6 -11.9 20.85 -3.9 19.35 -5.9 19.1 -6.25 18.5 -7.75 16.0 -11.5 13.1 -13.15 12.75 -13.5 13.75 -14.0 13.35 -15.65" fill="#727272" fill-rule="evenodd" stroke="none"/>
      <path d="M20.85 -3.9 L21.6 2.5 20.75 3.1 20.25 -2.75 19.35 -5.9 20.85 -3.9" fill="#0d0d0d" fill-rule="evenodd" stroke="none"/>
      <path d="M18.5 -7.75 L19.1 -6.25 19.35 -5.9 20.25 -2.75 16.0 -1.9 16.5 -3.65 16.75 -4.15 17.25 -5.25 17.35 -5.65 17.85 -6.5 18.25 -7.75 18.5 -7.75" fill="#141a13" fill-rule="evenodd" stroke="none"/>
      <path d="M13.1 -13.15 L16.0 -11.5 18.5 -7.75 18.25 -7.75 18.0 -8.15 17.6 -8.5 16.75 -9.4 16.35 -9.75 15.75 -10.4 15.1 -11.0 13.1 -13.15" fill="#6b6b6b" fill-rule="evenodd" stroke="none"/>
      <path d="M-30.65 25.1 L-31.65 21.6 -32.9 8.1 -32.65 7.75 -33.0 6.6 -32.65 4.1 -32.75 -6.75 -32.65 -7.65 -28.25 -12.15 -26.65 -10.75 -24.75 -10.4 -25.15 -9.75 -27.25 -7.4 -27.5 -7.15 -29.4 -4.0 Q-30.9 -4.0 -32.15 1.75 L-31.5 5.1 -31.65 6.35 -30.4 7.1 -29.0 7.35 -20.25 7.35 -27.25 12.1 -28.5 13.25 -28.5 13.35 -27.65 24.1 -29.65 24.5 -30.65 25.1 M-5.5 -10.5 L-3.75 -10.65 Q-2.65 -4.25 0.35 -0.5 L-0.15 2.6 -1.9 2.75 -6.25 -10.4 -5.5 -10.5 M15.1 -11.0 L15.75 -10.4 16.75 -4.15 16.5 -3.65 15.1 -11.0 M-14.4 -9.75 L-7.75 -10.25 -9.15 -2.4 -9.5 -2.0 -9.25 -1.9 -9.25 -1.75 -9.4 -1.25 -9.4 -1.15 -10.15 1.35 -11.75 0.25 -12.75 -2.9 -12.0 -5.15 Q-12.9 -8.15 -14.4 -9.75" fill="#040404" fill-rule="evenodd" stroke="none"/>
      <path d="M17.6 -8.5 L18.0 -8.15 18.25 -7.75 17.85 -6.5 17.6 -8.5 M-33.5 -1.9 L-33.5 -4.0 -33.4 -8.15 -33.25 1.85 -33.15 2.5 -33.25 5.6 -33.5 5.1 -33.5 -1.9 M-19.15 -9.4 L-14.4 -9.75 Q-12.9 -8.15 -12.0 -5.15 L-12.75 -2.9 -19.15 -9.4" fill="#030303" fill-rule="evenodd" stroke="none"/>
      <path d="M-21.0 -9.65 L-25.15 -1.9 -26.25 -3.65 Q-26.15 -6.65 -24.0 -10.25 L-21.0 -9.65" fill="#4f4f4f" fill-rule="evenodd" stroke="none"/>
      <path d="M-21.0 -9.65 L-20.25 -9.5 -19.65 -3.9 -23.9 1.1 -25.25 -1.5 -25.15 -1.9 -21.0 -9.65" fill="#878787" fill-rule="evenodd" stroke="none"/>
      <path d="M-7.25 -10.25 L-6.25 -10.4 -1.9 2.75 -3.65 2.85 -5.9 3.1 -7.25 -10.25" fill="#777777" fill-rule="evenodd" stroke="none"/>
      <path d="M21.6 2.5 L22.85 19.75 21.6 19.75 21.5 15.25 21.0 8.75 21.0 8.25 20.75 3.1 21.6 2.5 M-7.75 -10.25 L-7.25 -10.25 -5.9 3.1 -10.0 3.25 -9.4 -1.15 -9.4 -1.25 -9.25 -1.75 -9.25 -1.9 -9.15 -2.4 -7.75 -10.25 M-2.4 7.0 L-2.25 8.25 -9.9 9.0 -10.15 7.6 -9.9 7.6 -9.5 7.5 -9.25 7.5 -2.4 7.0" fill="#222222" fill-rule="evenodd" stroke="none"/>
      <path d="M-19.65 -3.9 L-20.25 -9.5 -19.15 -9.4 -12.75 -2.9 -11.75 0.25 -19.4 -3.75 -19.65 -3.9 M-1.0 14.75 L-1.4 14.75 -9.0 15.35 -1.5 12.0 -1.0 14.75" fill="#131313" fill-rule="evenodd" stroke="none"/>
      <path d="M-27.5 -6.5 L-28.5 -3.9 -29.4 -4.0 -27.5 -7.15 -27.25 -7.4 -27.5 -6.5 M6.75 14.0 L16.0 12.5 16.25 15.35 Q19.35 18.1 20.1 18.0 L20.6 19.35 21.6 19.75 6.0 22.25 -2.4 23.0 -1.4 21.85 -1.5 21.35 -1.0 21.25 -1.5 21.25 -1.4 20.85 -0.75 20.85 -0.75 20.35 -1.25 20.25 -0.65 20.1 -1.25 20.0 -0.65 20.0 -0.65 19.0 7.75 18.25 6.75 14.0 M-1.15 19.0 L-9.65 19.75 -9.0 15.35 -1.4 14.75 -1.0 14.75 -0.65 15.1 -1.25 15.25 -0.9 15.6 -1.25 15.75 -1.0 16.1 -1.25 16.35 -0.65 16.6 -1.25 16.85 -0.9 17.0 -1.25 17.5 -0.9 18.0 -1.15 19.0" fill="#060606" fill-rule="evenodd" stroke="none"/>
      <path d="M-29.0 7.35 L-29.5 1.5 -24.4 1.5 -21.15 4.75 -20.25 7.35 -29.0 7.35" fill="#090909" fill-rule="evenodd" stroke="none"/>
      <path d="M-29.5 1.5 L-28.65 -3.75 -27.65 -2.9 -24.4 1.5 -29.5 1.5" fill="#050805" fill-rule="evenodd" stroke="none"/>
      <path d="M-9.15 -2.4 L-9.25 -1.9 -9.5 -2.0 -9.15 -2.4 M-9.4 -1.15 L-10.0 3.25 -10.5 3.25 -10.15 1.35 -9.4 -1.15" fill="#121212" fill-rule="evenodd" stroke="none"/>
      <path d="M16.0 -1.9 L20.25 -2.75 20.75 3.1 14.25 4.25 14.35 2.85 13.6 1.5 16.0 -1.9" fill="#5e5e5e" fill-rule="evenodd" stroke="none"/>
      <path d="M-11.75 0.25 L-10.15 1.35 -10.5 3.25 -17.0 2.35 -19.4 -3.75 -11.75 0.25" fill="#282828" fill-rule="evenodd" stroke="none"/>
      <path d="M16.0 12.5 L15.85 7.35 14.6 4.6 21.0 8.25 21.0 8.75 21.5 15.25 20.1 18.0 Q19.35 18.1 16.25 15.35 L16.0 12.5" fill="#3c3c3c" fill-rule="evenodd" stroke="none"/>
      <path d="M5.0 6.25 L5.5 6.25 5.75 7.6 -1.9 8.25 -2.25 8.25 -2.4 7.0 5.0 6.25" fill="#323232" fill-rule="evenodd" stroke="none"/>
      <path d="M13.35 -1.0 L13.25 -2.25 11.6 -13.15 12.5 -13.5 12.85 -13.4 13.1 -13.15 13.25 -13.15 13.35 -12.9 15.35 -10.75 15.25 -10.4 15.5 -9.75 15.75 -8.4 15.75 -8.25 15.85 -7.65 15.85 -7.5 15.75 -7.15 16.0 -6.75 16.0 -6.65 16.35 -4.5 16.35 -4.4 16.25 -3.9 16.5 -3.65 16.5 -3.25 16.35 -2.65 16.25 -2.4 16.1 -2.15 16.0 -1.9 13.35 -1.0" fill="#232323" fill-opacity="0.50980395" fill-rule="evenodd" stroke="none"/>
      <path d="M-5.5 -10.5 L4.75 -11.25 5.25 -11.4 7.5 -11.65 7.85 -11.65 9.75 -12.25 11.6 -13.15 13.25 -2.25 13.35 -1.0 3.1 2.25 2.6 2.35 2.0 2.35 -2.9 2.85 -3.4 2.85 -5.0 -6.65 -5.0 -6.75 -5.5 -10.15 -5.5 -10.5 M13.35 -12.9 L15.6 -11.65 17.85 -8.65 17.75 -8.5 18.0 -8.25 18.0 -8.0 18.25 -7.75 18.1 -7.5 18.0 -7.15 17.85 -6.9 17.85 -6.25 17.6 -8.4 16.75 -9.4 16.75 -9.15 17.25 -6.25 17.1 -6.0 16.85 -6.4 16.6 -9.15 16.35 -9.65 15.5 -10.65 15.35 -10.75 13.35 -12.9 M17.35 -5.25 L17.25 -5.15 17.1 -5.65 17.35 -5.25 M16.6 -3.9 L16.5 -3.65 16.25 -3.9 16.35 -4.4 16.6 -3.9 M15.25 -10.4 L15.6 -10.4 15.5 -9.75 15.25 -10.4 M15.85 -7.5 L16.1 -7.15 16.0 -6.75 15.75 -7.15 15.85 -7.5" fill="#111111" fill-opacity="0.50980395" fill-rule="evenodd" stroke="none"/>
      <path d="M-5.5 -10.5 L-5.5 -10.15 -5.9 -10.0 -5.9 -10.4 -5.5 -10.5 M21.0 -2.25 L21.0 -1.4 20.85 -0.65 20.85 -2.5 21.0 -2.25" fill="#0b0b0b" fill-rule="evenodd" stroke="none"/>
      <path d="M-28.65 -3.65 L-28.65 -3.75 -28.25 -4.65 -27.75 -6.5 -27.75 -6.75 -27.5 -7.15 -25.0 -9.9 -24.75 -10.4 -21.4 -9.65 -21.0 -9.65 -20.25 -9.5 -18.4 -9.4 -16.0 -9.65 -15.15 -9.65 -12.5 -9.9 -11.4 -9.9 -8.25 -10.25 -7.25 -10.25 -6.25 -10.4 -5.9 -10.4 -5.9 -10.0 -5.9 -9.5 -5.65 -8.5 -5.65 -8.4 -5.5 -8.15 -5.4 -7.15 -5.4 -7.0 -5.25 -6.75 -3.65 2.85 -9.5 3.35 -10.15 3.35 -10.5 3.25 -22.15 1.75 -22.4 1.75 -23.75 1.6 -24.25 1.6 -24.5 1.5 -24.65 1.1 -28.65 -3.65" fill="#030303" fill-opacity="0.50980395" fill-rule="evenodd" stroke="none"/>
      <path d="M-34.0 -9.25 L-33.9 -9.0 -33.75 -8.75 -33.75 -7.5 -33.65 -8.5 -33.4 -8.15 -33.5 -7.5 -33.4 -7.4 -33.5 -7.15 -33.5 -5.75 -33.4 -4.9 -33.4 -4.65 -33.5 -4.0 -33.5 -1.4 -33.65 -1.15 -33.65 0.35 -33.5 0.75 -33.65 5.1 -33.65 4.75 -33.75 4.5 -33.9 3.1 -33.9 4.35 -34.25 4.0 -34.15 3.85 -34.25 -5.4 -34.15 -6.15 -34.15 -6.25 -34.0 -6.65 -34.0 -7.65 -34.15 -8.0 -34.0 -9.25 M-33.9 -6.9 L-33.75 -5.4 -33.75 -7.5 -33.9 -7.0 -33.9 -6.9 M-33.75 -4.65 L-33.65 -5.25 -33.75 -5.4 -33.75 -4.65 M-33.9 -2.75 L-33.9 0.35 -33.75 -3.5 -33.9 -2.75 M-28.65 -3.65 L-29.5 1.5 -29.4 4.0 -29.25 4.5 -29.25 4.75 -29.0 7.35 -30.9 7.0 -30.9 6.85 -31.5 6.6 -31.65 6.6 -31.75 6.5 -31.9 6.5 -31.9 4.35 -32.25 1.85 -32.15 0.6 -32.15 0.1 -31.75 -0.25 -31.4 -1.25 -30.0 -4.15 -30.0 -4.25 -28.65 -3.75 -28.65 -3.65 M-33.9 1.35 L-33.9 0.35 -34.0 0.6 -33.9 1.35 -33.9 3.1 -33.75 1.5 -33.9 1.35" fill="#000000" fill-opacity="0.50980395" fill-rule="evenodd" stroke="none"/>
      <path d="M17.85 -6.25 L17.6 -5.9 17.35 -5.65 17.35 -5.25 17.1 -5.65 17.25 -5.15 17.1 -4.5 16.85 -4.0 16.6 -3.9 16.35 -4.4 16.35 -4.5 16.0 -6.65 16.0 -6.75 16.1 -7.15 15.85 -7.5 15.85 -7.65 15.75 -8.25 15.75 -8.4 15.5 -9.75 15.6 -10.4 15.25 -10.4 15.35 -10.75 15.5 -10.65 16.35 -9.65 16.6 -9.15 16.85 -6.4 17.1 -6.0 17.25 -6.25 16.75 -9.15 16.75 -9.4 17.6 -8.4 17.85 -6.25" fill="#111111" fill-rule="evenodd" stroke="none"/>
      <path d="M-5.5 -10.15 L-5.0 -6.75 -5.0 -6.65 -3.4 2.85 -3.65 2.85 -5.25 -6.75 -5.4 -7.0 -5.4 -7.15 -5.5 -8.15 -5.65 -8.4 -5.65 -8.5 -5.9 -9.5 -5.9 -10.0 -5.5 -10.15" fill="#131313" fill-rule="evenodd" stroke="none"/>
      <path d="M21.1 -0.5 L21.1 0.35 21.25 1.25 21.25 2.1 21.35 2.35 21.35 2.5 20.75 3.1 20.6 2.0 20.6 -0.5 19.35 -5.9 19.1 -6.25 19.5 -5.9 19.75 -5.5 20.75 -4.25 20.85 -3.15 20.85 -2.5 20.85 -0.65 21.1 -0.5" fill="#0a0a0a" fill-opacity="0.50980395" fill-rule="evenodd" stroke="none"/>
      <path d="M20.85 -3.15 L21.0 -2.25 20.85 -2.5 20.85 -3.15 M21.0 -1.4 L21.1 -0.5 20.85 -0.65 21.0 -1.4" fill="#0c0c0c" fill-rule="evenodd" stroke="none"/>
    </g>
  </defs>
</svg>
