<?xml version="1.0" encoding="UTF-8" standalone="no"?>
<svg xmlns:xlink="http://www.w3.org/1999/xlink" height="1034.2px" width="773.35px" xmlns="http://www.w3.org/2000/svg">
  <g transform="matrix(1.0, 0.0, 0.0, 1.0, 365.9, 551.4)">
    <use height="87.1" transform="matrix(1.0, 0.0, 0.0, 1.0, -157.65, -65.0)" width="293.4" xlink:href="#shape0"/>
  </g>
  <defs>
    <g id="shape0" transform="matrix(1.0, 0.0, 0.0, 1.0, 157.65, 65.0)">
      <path d="M10.1 -50.75 L11.1 -50.9 12.75 -51.0 13.35 -51.0 14.5 -51.15 15.0 -51.15 16.0 -51.25 16.6 -51.25 17.6 -51.4 19.85 -51.5 20.85 -51.65 23.25 -51.75 24.1 -51.9 26.5 -52.0 27.35 -52.15 29.75 -52.25 30.6 -52.4 33.0 -52.5 34.1 -52.65 37.35 -52.9 42.25 -53.25 42.85 -53.25 43.85 -53.4 46.1 -53.5 47.1 -53.65 51.0 -53.9 52.1 -54.0 52.6 -54.0 53.75 -54.15 54.25 -54.15 55.35 -54.25 55.85 -54.25 57.0 -54.4 57.6 -54.4 62.5 -54.75 63.5 -54.9 64.1 -54.9 66.75 -55.15 67.35 -55.15 72.25 -55.5 73.35 -55.65 75.6 -55.75 76.6 -55.9 77.25 -55.9 78.1 -56.0 78.85 -56.0 79.75 -56.15 80.5 -56.15 81.35 -56.25 82.1 -56.25 83.0 -56.4 83.75 -56.4 84.6 -56.5 85.35 -56.5 86.25 -56.65 89.75 -56.9 90.25 -56.9 91.35 -57.0 91.85 -57.0 93.0 -57.15 93.6 -57.15 96.25 -57.4 96.85 -57.4 99.5 -57.65 100.1 -57.65 101.75 -57.75 102.75 -57.9 103.35 -57.9 106.1 -58.15 109.35 -58.4 111.6 -58.5 114.25 -58.75 114.85 -58.75 115.85 -58.9 118.1 -59.0 119.1 -59.15 121.35 -59.25 124.1 -59.5 124.6 -59.5 128.1 -59.75 129.0 -59.9 131.75 -60.0 132.6 -60.15 135.6 -60.25 135.75 -58.9 10.35 -49.4 10.1 -50.75 M-26.9 -49.0 L-26.4 -48.9 -25.5 -49.5 -24.4 -49.15 -25.5 -48.15 -26.0 -48.0 -26.75 -48.0 -27.5 -48.0 -27.9 -47.9 -26.9 -49.0 M6.75 -34.75 L4.0 -35.5 Q6.1 -38.25 12.1 -35.5 L9.0 -35.65 6.75 -34.75 M-27.5 -46.25 L-27.9 -46.4 -27.15 -46.5 -27.5 -46.25" fill="#010101" fill-rule="evenodd" stroke="none"/>
      <path d="M10.35 -49.4 L3.1 -48.75 -0.15 -49.0 -0.15 -50.0 0.25 -50.0 0.6 -50.0 0.85 -50.0 1.35 -50.15 1.85 -50.15 2.25 -50.15 2.5 -50.15 3.0 -50.25 3.6 -50.25 3.85 -50.25 4.1 -50.25 4.6 -50.4 5.85 -50.4 6.25 -50.5 6.85 -50.5 7.25 -50.5 7.85 -50.65 8.5 -50.65 8.85 -50.65 9.5 -50.75 10.1 -50.75 10.35 -49.4 M7.6 -45.75 L1.85 -45.25 1.35 -45.25 0.35 -45.25 0.25 -46.15 0.25 -47.0 0.75 -47.0 1.0 -47.15 1.5 -47.15 7.5 -47.5 7.6 -45.75 M-43.0 -32.4 L-43.15 -33.0 -34.9 -41.5 -36.75 -38.9 -38.65 -37.4 -43.0 -32.4 M-32.65 -43.9 L-31.9 -44.9 -31.75 -44.5 -31.9 -44.15 -32.65 -43.9 M-31.0 -46.25 L-157.5 -36.65 -157.65 -38.0 -157.0 -38.0 -156.4 -38.15 -150.4 -38.5 -149.25 -38.65 -148.65 -38.65 -143.75 -39.0 -142.75 -39.15 -140.5 -39.25 -139.5 -39.4 -138.75 -39.4 -137.9 -39.5 -137.15 -39.5 -136.25 -39.65 -135.5 -39.65 -134.65 -39.75 -133.9 -39.75 -132.75 -39.9 -132.25 -39.9 -131.15 -40.0 -130.65 -40.0 -129.5 -40.15 -129.0 -40.15 -127.9 -40.25 -127.4 -40.25 -126.25 -40.4 -125.75 -40.4 -124.65 -40.5 -124.15 -40.5 -120.75 -40.75 -119.75 -40.9 -119.15 -40.9 -116.5 -41.15 -114.25 -41.25 -111.0 -41.5 -109.9 -41.65 -109.4 -41.65 -106.65 -41.9 -104.5 -42.0 -101.75 -42.25 -101.15 -42.25 -98.5 -42.5 -97.9 -42.5 -96.9 -42.65 -94.65 -42.75 -93.5 -42.9 -93.0 -42.9 -91.9 -43.0 -91.4 -43.0 -88.75 -43.25 -88.15 -43.25 -87.15 -43.4 -84.75 -43.5 -83.9 -43.65 -81.5 -43.75 -80.65 -43.9 -78.25 -44.0 -77.15 -44.15 -73.9 -44.4 -71.75 -44.5 -68.5 -44.75 -67.4 -44.9 -62.5 -45.25 -61.9 -45.25 -59.15 -45.5 -58.65 -45.5 -57.5 -45.65 -57.0 -45.65 -55.9 -45.75 -55.4 -45.75 -48.75 -46.25 -47.75 -46.4 -47.15 -46.4 -44.5 -46.65 -42.25 -46.75 -39.0 -47.0 -37.9 -47.15 -34.65 -47.4 -32.4 -47.5 -31.4 -47.65 -30.75 -47.65 -29.75 -47.75 -29.15 -47.75 -28.25 -47.9 -27.9 -47.9 -27.5 -48.0 -27.5 -47.9 -26.75 -47.9 -26.75 -48.0 -26.0 -48.0 -25.15 -48.0 -25.15 -48.15 -24.25 -48.15 -23.5 -48.15 -23.5 -48.25 -22.65 -48.25 -21.75 -48.25 -21.75 -48.4 -21.0 -48.4 -20.4 -48.4 -20.15 -48.4 -19.4 -48.5 -18.5 -48.5 -18.5 -48.65 -17.75 -48.65 -16.9 -48.65 -16.75 -48.75 -16.5 -48.75 -16.4 -48.15 -14.4 -47.65 -16.65 -47.25 -18.4 -47.15 -20.4 -47.0 -21.5 -46.9 -25.0 -46.65 -27.15 -46.5 -27.9 -46.4 -27.5 -46.25 -27.25 -46.0 -27.9 -46.4 -29.4 -46.4 -31.0 -46.25 M-30.4 -47.75 L-30.65 -48.15 Q-31.4 -49.15 -28.5 -51.15 L-27.25 -50.4 -27.25 -50.15 -28.15 -49.25 -28.5 -48.75 -29.0 -48.5 -29.15 -48.4 -29.75 -47.75 -30.4 -47.75 M-33.65 -26.9 L-33.5 -27.65 -33.25 -27.5 -33.65 -26.9 M-33.5 -28.25 Q-31.9 -35.75 -23.25 -33.4 L-23.9 -32.75 -24.4 -31.9 Q-31.9 -34.25 -33.5 -28.25 M-29.95 -20.65 L-31.25 -21.15 -33.0 -23.25 -33.15 -24.0 -29.95 -20.65" fill="#000000" fill-rule="evenodd" stroke="none"/>
      <path d="M-24.25 -52.9 L-22.25 -54.75 -23.65 -53.0 -23.9 -52.75 -24.25 -52.9 M-21.65 -55.4 L-16.9 -60.9 Q-13.4 -65.15 -12.4 -65.0 L-21.65 -55.4 M-10.25 -47.65 L-10.65 -47.75 -10.5 -48.15 -10.65 -48.25 -10.5 -49.0 -9.75 -49.0 -9.65 -48.9 -9.65 -47.65 -10.25 -47.65 M0.6 -15.15 L14.1 -16.25 17.0 -17.4 18.0 -12.5 18.85 -5.15 9.0 -1.9 4.75 -1.5 4.85 -4.0 Q2.0 -7.5 0.6 -15.15 M21.0 -16.0 L21.25 -15.9 21.5 -15.5 22.75 -7.25 22.5 -6.65 21.0 -16.0 M22.25 -14.9 L22.85 -14.25 23.75 -9.25 23.35 -8.75 22.25 -14.9 M24.1 -13.15 L24.35 -12.65 24.6 -11.65 24.1 -10.4 23.75 -13.4 24.1 -13.15 M-17.0 -50.5 L-17.0 -50.9 -16.5 -48.75 -16.75 -48.75 -16.9 -48.75 -17.15 -48.75 -17.75 -48.65 -18.5 -48.65 -18.9 -48.65 -19.9 -49.0 -19.75 -50.15 -17.0 -49.9 -16.9 -50.4 -17.0 -50.5 M-28.5 -48.75 L-29.15 -48.4 -29.0 -48.5 -28.5 -48.75 M-30.0 -13.75 L-29.9 -13.5 -30.0 -12.5 -30.0 -13.75 M-29.65 -13.15 L-29.4 -12.75 -29.25 -10.0 -29.25 -5.9 -29.5 0.6 -29.75 0.1 -29.75 -6.75 -30.0 -4.75 -30.25 -7.0 -30.0 -10.4 -29.75 -7.75 -29.65 -13.15 M-15.25 3.5 L-15.4 7.0 -14.15 11.85 -3.4 11.6 -4.15 16.25 4.85 15.5 4.85 15.85 5.5 16.0 4.75 16.25 4.75 16.6 5.35 16.6 5.25 16.85 4.85 17.35 5.0 18.0 4.5 18.1 5.0 18.25 4.25 18.35 4.1 18.85 4.6 19.0 4.1 19.1 4.5 19.35 3.5 19.75 2.35 19.85 -4.75 20.5 -22.9 21.0 -23.9 9.6 -23.9 9.5 -15.25 3.5" fill="#020202" fill-rule="evenodd" stroke="none"/>
      <path d="M15.85 -35.25 L16.0 -34.9 15.5 -35.25 15.85 -35.25 M-22.25 -54.75 L-21.65 -55.4 -12.4 -65.0 -11.4 -64.0 -22.9 -51.9 -23.65 -53.0 -22.25 -54.75" fill="#070707" fill-rule="evenodd" stroke="none"/>
      <path d="M-31.9 -44.9 L-31.0 -46.25 -29.4 -46.4 -31.9 -44.15 -31.75 -44.5 -31.9 -44.9 M-27.25 -50.4 L-24.25 -52.9 -23.9 -52.75 -25.65 -50.15 -26.9 -49.0 -27.9 -47.9 -28.25 -47.9 -29.15 -47.75 -29.75 -47.75 -29.15 -48.4 -28.5 -48.75 -28.15 -49.25 -27.25 -50.15 -27.25 -50.4 M-29.25 -12.5 L-29.0 1.0 -29.15 1.75 -29.4 1.35 -29.25 -5.9 -29.25 -10.0 -29.25 -12.5" fill="#030303" fill-rule="evenodd" stroke="none"/>
      <path d="M15.1 -35.65 L15.85 -35.25 15.5 -35.25 15.1 -35.65 M-30.75 -47.65 L-30.4 -47.75 -29.75 -47.75 -30.75 -47.65 M0.5 -50.15 L0.85 -50.0 0.6 -50.0 0.5 -50.15 M2.1 -50.25 L2.5 -50.15 2.25 -50.15 2.1 -50.25 M3.75 -50.4 L4.1 -50.25 3.85 -50.25 3.75 -50.4 M6.85 -50.5 L7.0 -50.65 7.25 -50.5 6.85 -50.5 M8.5 -50.65 L8.6 -50.75 8.85 -50.65 8.5 -50.65 M-5.4 -46.9 L-6.15 -47.0 -9.65 -47.65 -9.65 -48.9 -9.75 -49.0 -9.5 -49.0 3.25 -47.5 1.5 -47.15 1.0 -47.15 0.75 -47.0 0.25 -47.0 0.25 -46.15 -0.15 -46.15 -0.5 -46.25 -2.9 -46.5 -5.4 -46.9 M-16.9 -48.75 L-16.75 -48.75 -16.9 -48.65 -16.9 -48.75 M-20.25 -48.5 L-20.4 -48.4 -20.65 -48.5 -20.25 -48.5" fill="#090909" fill-rule="evenodd" stroke="none"/>
      <path d="M-10.9 -52.9 L-10.65 -54.25 -10.15 -55.0 -8.9 -55.65 -7.25 -55.25 -6.5 -54.5 -6.25 -53.0 -7.0 -52.9 -10.9 -52.9" fill="#4b4b4b" fill-rule="evenodd" stroke="none"/>
      <path d="M-6.25 -53.0 L-3.0 -52.4 -0.65 -52.4 -0.15 -50.0 -0.15 -49.0 -4.65 -49.4 -5.0 -49.5 -5.65 -51.65 -7.0 -52.9 -6.25 -53.0 M-5.5 -46.65 L-5.4 -46.9 -2.9 -46.5 -4.25 -46.0 -5.5 -46.65" fill="#424242" fill-rule="evenodd" stroke="none"/>
      <path d="M-10.9 -46.25 L-11.75 -48.4 Q-12.5 -49.75 -10.4 -52.65 L-10.9 -52.9 -7.0 -52.9 -5.65 -51.65 -5.0 -49.5 -6.4 -51.4 -8.9 -51.65 -10.25 -50.65 -10.65 -49.9 -10.65 -48.25 -10.5 -48.15 -10.65 -47.75 -10.25 -47.65 -8.65 -46.4 -6.75 -46.5 -6.15 -47.0 -5.4 -46.9 -5.5 -46.65 -7.65 -45.65 -9.4 -45.65 -10.9 -46.25" fill="#2e2e2e" fill-rule="evenodd" stroke="none"/>
      <path d="M-18.25 -50.65 L-17.9 -51.0 -17.0 -50.9 -10.9 -52.9 -10.4 -52.65 Q-12.5 -49.75 -11.75 -48.4 L-10.9 -46.25 -12.15 -45.4 -16.15 -45.9 -16.5 -46.4 -16.65 -45.25 -17.4 -45.15 -17.4 -46.4 -18.0 -46.25 -17.9 -45.9 -18.4 -46.15 -18.4 -47.15 -16.65 -47.25 -14.4 -47.65 -16.4 -48.15 -16.5 -48.75 -17.0 -50.9 -17.0 -50.5 -18.4 -50.4 -18.25 -50.65" fill="#121212" fill-rule="evenodd" stroke="none"/>
      <path d="M1.85 -45.25 L2.5 -36.4 2.5 -35.9 2.35 -34.25 2.0 -34.65 1.85 -36.15 1.35 -45.25 1.85 -45.25 M-27.25 18.85 L-28.75 15.6 -29.0 10.5 -29.4 9.35 -29.25 7.6 -30.15 0.1 -29.75 0.1 -29.5 0.6 -29.4 1.35 -29.15 1.75 -29.0 1.0 -29.25 -12.5 -29.4 -12.75 -29.65 -13.15 -29.9 -13.5 -30.0 -13.75 -29.9 -14.25 -29.75 -14.5 -25.65 -18.65 -23.9 -16.75 -28.4 -11.9 -28.5 -10.65 -28.5 4.5 -27.75 13.6 -27.15 17.0 -27.25 18.85 M-10.9 -46.25 L-9.4 -45.65 -7.65 -45.65 -5.5 -46.65 -4.25 -46.0 -3.5 -36.15 -3.75 -34.9 -7.0 -34.4 -10.9 -34.25 -11.65 -34.65 -11.4 -35.5 -12.15 -45.4 -10.9 -46.25 M0.6 -36.4 L0.75 -35.5 0.25 -35.5 0.25 -36.25 -0.5 -46.25 -0.15 -46.15 0.6 -36.4 M12.0 -29.0 L12.5 -29.75 13.85 -30.25 14.1 -30.15 14.5 -30.15 14.75 -30.0 14.85 -29.9 15.25 -29.65 15.6 -28.65 15.5 -27.9 15.25 -27.5 14.85 -27.0 14.35 -26.75 13.75 -26.75 12.85 -26.9 12.6 -27.15 12.35 -27.15 12.5 -27.25 12.35 -27.25 12.0 -28.75 12.0 -29.0 M-17.9 -45.9 L-18.0 -46.25 -17.4 -46.4 -17.4 -45.15 -16.75 -38.5 -16.75 -38.4 -16.5 -35.15 -16.5 -34.15 -16.9 -34.15 -17.0 -35.0 -17.9 -45.9 M-16.65 -45.25 L-16.5 -46.4 -16.15 -45.9 -15.25 -35.25 -15.15 -33.0 -15.5 -32.9 -15.5 -33.5 -15.75 -35.15 -16.65 -45.25 M-31.75 -17.4 L-30.4 -17.0 -32.0 -14.75 -40.9 -14.0 -47.75 -13.9 -51.5 -14.25 -52.0 -14.4 -52.15 -14.65 -50.65 -15.25 -47.15 -16.0 -46.75 -16.15 -46.5 -16.15 -45.9 -16.25 -31.75 -17.4" fill="#171717" fill-rule="evenodd" stroke="none"/>
      <path d="M-20.9 -50.4 L-18.25 -50.65 -18.4 -50.4 -19.75 -50.15 -19.9 -49.0 -18.9 -48.65 -19.4 -48.5 -20.15 -48.4 -20.25 -48.5 -20.65 -48.5 -20.9 -50.4 M4.75 -1.5 L9.0 -1.9 18.85 -5.15 22.5 -6.15 20.0 -2.75 20.85 -1.25 20.85 0.1 21.35 0.6 22.6 3.5 22.6 8.75 13.25 10.25 4.6 8.25 Q4.75 5.1 3.75 4.35 L11.85 3.6 11.75 2.25 3.5 2.0 3.1 2.0 3.35 1.75 3.0 1.0 3.35 0.85 2.6 -1.4 3.6 -1.4 4.75 -1.5 M-18.4 -47.15 L-18.4 -46.15 -17.9 -45.9 -17.0 -35.0 -18.9 -34.9 -20.4 -47.0 -18.4 -47.15" fill="#686868" fill-rule="evenodd" stroke="none"/>
      <path d="M-32.15 -14.5 L-48.9 -13.25 -48.5 -13.65 -49.4 -13.75 -47.75 -13.9 -40.9 -14.0 -32.0 -14.75 -32.15 -14.5 M-5.0 -49.5 L-4.65 -49.4 -5.65 -49.4 -5.0 -49.5 M-7.0 -49.4 L-6.9 -49.15 -9.5 -49.0 -9.75 -49.0 -10.5 -49.0 -7.0 -49.4 M-17.0 -50.5 L-16.9 -50.4 -17.0 -49.9 -19.75 -50.15 -18.4 -50.4 -17.0 -50.5" fill="#0b0b0b" fill-rule="evenodd" stroke="none"/>
      <path d="M-23.15 -41.75 L-23.4 -41.75 -24.9 -40.75 -31.15 -43.15 -32.15 -43.65 -31.9 -44.15 -29.4 -46.4 -27.9 -46.4 -27.25 -46.0 -26.15 -45.25 -25.0 -46.65 -21.5 -46.9 -21.75 -44.5 -23.15 -41.75 M-22.9 -51.9 L-22.15 -50.4 -21.75 -48.4 -22.65 -48.25 -23.5 -48.25 -24.4 -49.15 -25.5 -49.5 -26.4 -48.9 -26.9 -49.0 -25.65 -50.15 -23.9 -52.75 -23.65 -53.0 -22.9 -51.9" fill="#1d1d1d" fill-rule="evenodd" stroke="none"/>
      <path d="M0.25 -50.0 L0.5 -50.15 0.6 -50.0 0.25 -50.0 M1.85 -50.15 L2.1 -50.25 2.25 -50.15 1.85 -50.15 M3.6 -50.25 L3.75 -50.4 3.85 -50.25 3.6 -50.25 M7.0 -50.65 L7.85 -50.65 7.25 -50.5 7.0 -50.65 M8.6 -50.75 L9.5 -50.75 8.85 -50.65 8.6 -50.75 M-22.65 -48.25 L-21.75 -48.4 -21.75 -48.25 -22.65 -48.25 M-18.9 -48.65 L-18.5 -48.65 -18.5 -48.5 -19.4 -48.5 -18.9 -48.65 M-17.75 -48.65 L-17.15 -48.75 -16.9 -48.75 -16.9 -48.65 -17.75 -48.65 M-20.15 -48.4 L-20.4 -48.4 -21.0 -48.4 -20.65 -48.5 -20.4 -48.4 -20.25 -48.5 -20.15 -48.4 M-24.25 -48.15 L-23.5 -48.25 -23.5 -48.15 -24.25 -48.15 M-25.15 -48.15 L-25.15 -48.0 -26.0 -48.0 -25.5 -48.15 -25.15 -48.15 M-26.75 -48.0 L-26.75 -47.9 -27.5 -47.9 -27.5 -48.0 -26.75 -48.0" fill="#262626" fill-rule="evenodd" stroke="none"/>
      <path d="M-22.15 -34.25 L-22.25 -34.5 -23.0 -40.25 -23.0 -40.9 -23.15 -41.25 -23.15 -41.75 -21.75 -44.5 -21.5 -46.9 -20.4 -47.0 -18.9 -34.9 -21.9 -34.4 -22.15 -34.25 M-22.15 -50.4 L-20.9 -50.4 -20.65 -48.5 -21.0 -48.4 -21.75 -48.4 -22.15 -50.4 M-22.9 -11.55 L-22.9 -11.15 -23.4 -9.15 -23.75 -8.25 -24.9 -8.4 -22.9 -11.65 -22.9 -11.55" fill="#050505" fill-rule="evenodd" stroke="none"/>
      <path d="M-6.15 -47.0 L-6.75 -46.5 -8.65 -46.4 -10.25 -47.65 -9.65 -47.65 -6.15 -47.0 M-10.65 -48.25 L-10.65 -49.9 -10.25 -50.65 -8.9 -51.65 -6.4 -51.4 -5.0 -49.5 -5.65 -49.4 -7.0 -49.4 -10.5 -49.0 -10.65 -48.25 M-3.4 11.6 L4.6 8.25 4.85 11.0 4.6 11.1 -3.4 11.6" fill="#101010" fill-rule="evenodd" stroke="none"/>
      <path d="M3.1 -48.75 L10.0 -48.0 7.5 -47.5 1.5 -47.15 3.25 -47.5 -9.5 -49.0 -6.9 -49.15 -7.0 -49.4 -5.65 -49.4 -4.65 -49.4 -0.15 -49.0 3.1 -48.75 M11.75 2.25 L11.85 3.6 3.75 4.35 3.6 3.0 11.75 2.25" fill="#2b2b2b" fill-rule="evenodd" stroke="none"/>
      <path d="M-26.0 22.1 L-27.25 18.85 -27.15 17.0 -27.75 13.6 -28.5 4.5 -28.5 -10.65 -28.4 -11.9 -23.9 -16.75 -22.0 -15.4 -20.0 -15.0 -20.25 -14.65 -20.25 -14.5 -20.5 -14.15 -22.65 -12.0 -22.75 -11.75 -22.9 -11.55 -22.9 -11.65 -24.9 -8.4 -25.5 -8.65 -27.75 -3.5 -27.75 -2.5 -27.25 2.6 -24.4 3.5 -15.25 3.5 -23.9 9.5 -23.9 9.6 -22.9 21.0 -25.0 21.25 -26.0 22.1 M-24.4 -49.15 L-23.5 -48.25 -24.25 -48.15 -25.15 -48.15 -25.5 -48.15 -24.4 -49.15 M0.6 -15.15 Q2.0 -7.5 4.85 -4.0 L4.75 -1.5 3.6 -1.4 -1.0 -15.0 0.0 -15.15 0.6 -15.15 M-17.15 -14.5 L-14.9 -14.0 -2.4 -14.9 -3.0 -11.65 -3.15 -11.25 -4.0 -6.25 -4.0 -6.15 -5.25 -1.0 -7.75 -2.75 -8.65 -5.5 -9.0 -5.75 -16.65 -13.65 -17.15 -13.75 -17.15 -14.5 M-25.0 -46.65 L-26.15 -45.25 -27.25 -46.0 -27.5 -46.25 -27.15 -46.5 -25.0 -46.65" fill="#040404" fill-rule="evenodd" stroke="none"/>
      <path d="M10.0 -48.0 L10.5 -48.0 10.6 -46.15 7.6 -45.75 7.5 -47.5 10.0 -48.0 M26.85 14.5 Q26.1 14.6 22.85 11.6 L22.6 8.75 22.6 3.5 21.35 0.6 27.6 4.25 27.6 4.5 27.75 5.0 Q27.6 7.85 28.35 9.1 L28.1 9.85 28.1 10.5 27.5 12.85 26.85 14.5" fill="#3f3f3f" fill-rule="evenodd" stroke="none"/>
      <path d="M0.25 -46.15 L0.35 -45.25 -0.15 -46.15 0.25 -46.15" fill="#414141" fill-rule="evenodd" stroke="none"/>
      <path d="M8.1 -34.4 L8.85 -33.4 0.5 -33.9 -6.15 -33.75 -7.0 -34.4 -3.75 -34.9 -3.5 -36.15 0.25 -36.25 0.25 -35.5 0.75 -35.5 0.6 -36.4 1.85 -36.15 2.0 -34.65 2.35 -34.25 2.5 -35.9 4.0 -35.5 6.75 -34.75 8.1 -34.4" fill="#6a6a6a" fill-rule="evenodd" stroke="none"/>
      <path d="M-31.15 -43.15 L-33.25 -41.25 -35.4 -38.5 -42.0 -31.5 -43.0 -32.4 -38.65 -37.4 -36.75 -38.9 -34.9 -41.5 -33.65 -42.75 -33.5 -43.0 -32.75 -43.75 -32.65 -43.9 -31.9 -44.15 -32.15 -43.65 -31.15 -43.15 M-27.15 -27.5 L-26.9 -27.5 -27.15 -27.4 -27.15 -27.5" fill="#232323" fill-rule="evenodd" stroke="none"/>
      <path d="M-22.15 -34.15 L-22.15 -34.25 -21.9 -34.4 -22.15 -34.15" fill="#0d0d0d" fill-rule="evenodd" stroke="none"/>
      <path d="M-22.4 -34.15 L-22.15 -34.15 -21.9 -34.4 -18.9 -34.9 -17.0 -35.0 -16.9 -34.15 -16.5 -34.15 -16.5 -35.15 -15.75 -35.15 -15.5 -33.5 -15.5 -32.9 -15.15 -33.0 -15.25 -35.25 -11.4 -35.5 -11.65 -34.65 -10.9 -34.25 -7.0 -34.4 -6.15 -33.75 -15.0 -32.4 -20.9 -31.0 -23.25 -32.4 -23.9 -32.75 -23.25 -33.4 -22.4 -34.0 -22.4 -34.15 M-20.0 -15.0 L-17.15 -14.5 -17.15 -13.75 -17.15 -13.65 -17.5 -13.5 -21.5 -5.4 -22.9 -7.15 -22.25 -8.65 -22.4 -9.5 -20.75 -12.75 -20.5 -14.0 -20.5 -14.15 -20.25 -14.5 -20.25 -14.65 -20.0 -15.0" fill="#555555" fill-rule="evenodd" stroke="none"/>
      <path d="M2.5 -36.4 L6.25 -37.4 Q13.5 -37.25 14.25 -36.15 L14.5 -36.0 14.75 -35.9 15.1 -35.65 15.5 -35.25 16.0 -34.9 16.25 -34.25 Q15.7 -34.55 15.1 -34.9 L12.1 -35.5 Q6.1 -38.25 4.0 -35.5 L2.5 -35.9 2.5 -36.4 M-25.15 -19.5 L-24.65 -19.5 -24.65 -19.15 -25.25 -18.75 -25.65 -18.65 -29.75 -14.5 -27.9 -18.75 -27.4 -19.4 -25.15 -19.5" fill="#353535" fill-rule="evenodd" stroke="none"/>
      <path d="M16.25 -34.25 Q19.5 -33.5 19.1 -27.0 L17.85 -24.75 Q16.25 -23.0 14.1 -22.75 L13.25 -22.65 13.1 -23.25 13.75 -23.25 15.75 -23.9 17.35 -25.15 18.35 -27.0 18.6 -29.0 18.1 -31.15 16.85 -32.75 15.0 -33.75 13.0 -34.15 10.85 -33.5 10.0 -32.75 9.1 -33.5 9.25 -34.15 8.1 -34.4 6.75 -34.75 9.0 -35.65 12.1 -35.5 15.1 -34.9 Q15.7 -34.55 16.25 -34.25" fill="#525252" fill-rule="evenodd" stroke="none"/>
      <path d="M8.85 -33.4 L8.1 -34.4 9.25 -34.15 9.1 -33.5 10.0 -32.75 11.25 -32.75 11.75 -32.75 11.85 -30.5 11.75 -29.75 8.85 -33.4" fill="#3d3d3d" fill-rule="evenodd" stroke="none"/>
      <path d="M8.85 -33.4 L11.75 -29.75 11.75 -29.4 12.0 -29.0 12.0 -28.75 12.35 -27.25 12.35 -27.15 13.0 -24.75 13.1 -23.25 13.25 -22.65 13.35 -22.25 13.5 -22.0 13.6 -21.5 13.0 -20.9 10.0 -19.25 9.25 -19.25 5.25 -18.9 4.85 -18.9 4.6 -18.9 4.25 -18.75 -1.4 -18.25 -3.75 -28.5 -6.15 -33.75 0.5 -33.9 8.85 -33.4" fill="#b1b1b1" fill-rule="evenodd" stroke="none"/>
      <path d="M-33.7 -18.4 Q-34.8 -18.35 -37.75 -22.65 L-38.75 -26.15 -38.5 -30.9 -38.4 -31.25 -35.9 -32.25 -35.65 -32.4 -28.4 -34.5 -22.4 -34.15 -22.4 -34.0 -23.25 -33.4 Q-31.9 -35.75 -33.5 -28.25 L-33.5 -27.65 -33.65 -26.9 -33.65 -25.9 -33.15 -24.0 -33.0 -23.25 -31.25 -21.15 -29.95 -20.65 -28.65 -19.9 -28.15 -19.75 -30.4 -17.0 -31.75 -17.4 -33.65 -18.4 -33.7 -18.4 M11.85 -30.5 L11.75 -32.75 11.25 -32.75 10.85 -33.5 13.0 -34.15 15.0 -33.75 16.85 -32.75 18.1 -31.15 18.6 -29.0 18.35 -27.0 15.5 -27.9 15.6 -28.65 15.25 -29.65 14.85 -29.9 14.75 -30.0 14.5 -30.15 14.1 -30.15 13.85 -30.25 13.85 -30.4 13.1 -30.65 12.5 -30.65 11.85 -30.5 M-28.0 -26.4 L-27.5 -27.0 -27.15 -27.4 -26.9 -27.5 -27.15 -27.5 -28.0 -29.15 -28.4 -30.4 -26.4 -30.9 -24.4 -30.65 -23.25 -30.0 -24.9 -29.9 -25.5 -29.0 -25.65 -27.9 -25.65 -27.4 -25.0 -26.9 -27.0 -26.65 -27.4 -26.25 -27.65 -25.9 -27.65 -25.75 -27.65 -24.9 -27.5 -24.65 -27.5 -24.4 -28.15 -24.9 -28.25 -25.65 -28.0 -26.4 M-24.4 3.5 L-24.65 0.5 -24.75 0.25 -24.75 -0.15 -24.9 -2.65 -19.4 -2.65 -16.25 0.35 -15.25 3.5 -24.4 3.5" fill="#080808" fill-rule="evenodd" stroke="none"/>
      <path d="M-30.4 8.0 L-32.15 -2.0 -31.9 -14.25 -32.15 -14.5 -32.0 -14.75 -30.4 -17.0 -28.15 -19.75 -28.65 -19.9 -29.95 -20.65 -33.15 -24.0 -33.65 -25.9 -33.65 -26.9 -33.25 -27.5 -33.5 -27.65 -33.5 -28.25 Q-31.9 -34.25 -24.4 -31.9 L-24.15 -31.75 -22.65 -31.0 -23.25 -30.0 -24.4 -30.65 -26.4 -30.9 -28.4 -30.4 -30.25 -29.0 -31.4 -27.15 -31.65 -25.0 -31.0 -23.0 -29.5 -21.25 -27.65 -20.25 -25.5 -20.15 -24.5 -20.25 -24.5 -19.75 -25.15 -19.5 -27.4 -19.4 -27.9 -18.75 -29.75 -14.5 -29.9 -14.25 -30.0 -13.75 -30.0 -12.5 -29.9 -13.5 -29.65 -13.15 -29.75 -7.75 -30.0 -10.4 -30.25 -7.0 -30.0 -4.75 -29.75 -6.75 -29.75 0.1 -30.15 0.1 -29.25 7.6 -29.4 9.35 -30.4 8.0 M-50.5 -16.9 L-33.7 -18.4 -33.65 -18.4 -31.75 -17.4 -45.9 -16.25 -46.5 -16.15 -46.75 -16.15 -47.15 -16.15 -49.0 -16.0 -50.5 -16.4 -50.5 -16.9 M12.85 -26.9 L13.75 -26.75 15.0 -24.75 15.75 -23.9 13.75 -23.25 13.35 -24.5 13.0 -26.5 12.85 -26.9 M-24.65 -19.15 L-23.65 -19.0 -25.25 -18.75 -24.65 -19.15 M-29.4 -12.75 L-29.25 -12.5 -29.25 -10.0 -29.4 -12.75 M-29.4 1.35 L-29.5 0.6 -29.25 -5.9 -29.4 1.35 M-23.4 -9.15 L-23.5 -7.9 -24.0 -8.15 -24.25 -7.65 -24.9 -2.75 -24.9 -2.65 -25.25 -1.75 -24.75 -0.15 -24.75 0.25 -24.65 0.5 -24.4 3.5 -27.25 2.6 -27.75 -2.5 -27.75 -3.5 -25.5 -8.65 -24.9 -8.4 -23.75 -8.25 -23.4 -9.15" fill="#2d2d2d" fill-rule="evenodd" stroke="none"/>
      <path d="M-48.9 -13.25 L-51.0 -13.15 -52.25 -13.5 -53.15 -14.25 -53.0 -15.65 -52.15 -16.4 -50.5 -16.9 -50.5 -16.4 -49.0 -16.0 -47.15 -16.15 -47.15 -16.0 -50.65 -15.25 -52.15 -14.65 -52.0 -14.4 -51.5 -14.25 -47.75 -13.9 -49.4 -13.75 -48.5 -13.65 -48.9 -13.25 M11.75 -29.75 L11.85 -30.5 12.5 -30.65 13.1 -30.65 13.85 -30.4 13.85 -30.25 12.5 -29.75 12.0 -29.0 11.75 -29.4 11.75 -29.75 M12.35 -27.25 L12.5 -27.25 12.35 -27.15 12.35 -27.25 M-5.25 -1.0 L-4.0 -6.15 -4.75 -0.9 -5.25 -1.0" fill="#141414" fill-rule="evenodd" stroke="none"/>
      <path d="M-24.15 -31.75 L-24.4 -31.9 -23.9 -32.75 -23.25 -32.4 -24.15 -31.75 M3.75 4.35 L-4.25 5.0 -4.5 3.6 -3.9 3.5 3.35 3.0 3.6 3.0 3.75 4.35 M28.1 10.5 L28.25 11.85 27.5 12.85 28.1 10.5" fill="#202020" fill-rule="evenodd" stroke="none"/>
      <path d="M15.5 -27.9 L18.35 -27.0 17.35 -25.15 14.85 -27.0 15.25 -27.5 15.5 -27.9 M13.25 10.25 L14.1 14.6 5.35 15.35 5.35 11.35 4.6 11.1 4.85 11.0 5.35 11.25 5.25 11.0 13.25 10.25" fill="#0a0a0a" fill-rule="evenodd" stroke="none"/>
      <path d="M11.25 -32.75 L10.0 -32.75 10.85 -33.5 11.25 -32.75 M-17.15 -13.65 L-17.15 -13.75 -16.65 -13.65 -9.0 -5.75 -8.65 -5.5 -7.75 -2.75 -15.75 -6.75 -16.0 -7.15 -17.15 -13.65" fill="#131313" fill-rule="evenodd" stroke="none"/>
      <path d="M-23.25 -30.0 L-22.65 -31.0 -24.15 -31.75 -23.25 -32.4 -20.9 -31.0 -23.0 -26.9 -23.15 -19.15 -23.65 -19.0 -24.65 -19.15 -24.65 -19.5 -25.15 -19.5 -24.5 -19.75 -24.5 -20.25 -24.25 -20.5 -25.25 -23.5 -25.4 -23.5 Q-22.9 -24.5 -25.0 -26.9 L-25.65 -27.4 -25.65 -27.9 -25.5 -29.0 -24.9 -29.9 -23.25 -30.0 M-14.0 -2.0 L-5.25 -1.0 -4.75 -0.9 -0.5 -1.15 2.6 -1.4 3.35 0.85 3.0 1.0 3.35 1.75 3.1 2.0 -3.9 3.5 -4.5 3.6 -4.25 5.0 3.75 4.35 Q4.75 5.1 4.6 8.25 L-3.4 11.6 -14.15 11.85 -15.4 7.0 -15.25 3.5 -16.25 0.35 -19.4 -2.65 -14.0 -2.0" fill="#242424" fill-rule="evenodd" stroke="none"/>
      <path d="M-6.15 -33.75 L-3.75 -28.5 -1.4 -18.25 -1.9 -18.25 -7.75 -17.9 -8.5 -17.75 -8.75 -17.75 -9.0 -17.75 -13.65 -17.4 -22.5 -18.65 -23.15 -19.15 -23.0 -26.9 -20.9 -31.0 -15.0 -32.4 -6.15 -33.75" fill="#303030" fill-rule="evenodd" stroke="none"/>
      <path d="M-13.65 -17.4 L-23.9 -16.75 -25.65 -18.65 -25.25 -18.75 -23.65 -19.0 -23.15 -19.15 -22.5 -18.65 -13.65 -17.4" fill="#3c3c3c" fill-rule="evenodd" stroke="none"/>
      <path d="M-25.4 -23.5 L-25.25 -23.5 -24.25 -20.5 -24.5 -20.25 -25.5 -20.15 -25.75 -22.65 -26.0 -23.5 -25.4 -23.5" fill="#2a2a2a" fill-rule="evenodd" stroke="none"/>
      <path d="M-27.5 -27.0 L-27.75 -27.15 -30.25 -29.0 -28.4 -30.4 -28.0 -29.15 -27.15 -27.5 -27.15 -27.4 -27.5 -27.0 M-25.0 -26.9 Q-22.9 -24.5 -25.4 -23.5 L-26.0 -23.5 -26.25 -23.65 -27.0 -23.75 -27.5 -24.4 -27.5 -24.65 -27.65 -24.9 -27.65 -25.75 -27.5 -25.9 -27.65 -25.9 -27.4 -26.25 -27.0 -26.65 -25.0 -26.9" fill="#151515" fill-rule="evenodd" stroke="none"/>
      <path d="M19.35 -17.9 L22.75 -16.0 24.6 -12.75 24.35 -12.65 24.1 -13.15 23.5 -13.75 22.85 -14.25 22.25 -14.9 21.6 -15.5 21.5 -15.5 21.25 -15.9 20.85 -16.25 19.35 -17.9 M4.85 -18.9 L6.0 -18.15 -1.15 -17.5 -1.9 -18.25 -1.4 -18.25 4.25 -18.75 4.6 -18.9 4.85 -18.9" fill="#6c6c6c" fill-rule="evenodd" stroke="none"/>
      <path d="M10.0 -19.25 L19.5 -20.4 20.0 -18.75 19.0 -18.25 17.0 -17.4 14.1 -16.25 0.6 -15.15 0.0 -15.15 -0.65 -17.5 -1.15 -17.5 6.0 -18.15 4.85 -18.9 5.25 -18.9 9.25 -19.25 10.0 -19.25" fill="#6b6b6b" fill-rule="evenodd" stroke="none"/>
      <path d="M16.0 -22.0 L17.1 -21.9 18.0 -20.9 19.5 -20.4 10.0 -19.25 13.0 -20.9 13.6 -21.5 13.5 -22.0 15.5 -22.0 16.0 -22.0 M-1.15 -17.5 L-0.65 -17.5 0.0 -15.15 -1.0 -15.0 -2.0 -14.9 -2.4 -14.9 -14.9 -14.0 -17.15 -14.5 -20.0 -15.0 -22.0 -15.4 -23.9 -16.75 -13.65 -17.4 -9.0 -17.75 -8.75 -17.75 -7.9 -17.0 -1.15 -17.5" fill="#4a4a4a" fill-rule="evenodd" stroke="none"/>
      <path d="M-2.0 -14.9 L-1.0 -15.0 3.6 -1.4 2.6 -1.4 -0.5 -1.15 -2.0 -14.9 M-1.15 -14.25 L-1.5 -14.4 -1.5 -13.9 -1.15 -13.75 -1.15 -14.25" fill="#787878" fill-rule="evenodd" stroke="none"/>
      <path d="M28.25 -1.65 L29.5 16.5 28.6 16.5 28.25 11.85 28.1 10.5 28.1 9.85 28.35 9.1 Q27.6 7.85 27.75 5.0 L27.6 4.5 27.6 4.25 27.75 1.0 27.35 -0.9 28.25 -1.65 M-2.4 -14.9 L-2.0 -14.9 -0.5 -1.15 -4.75 -0.9 -4.0 -6.15 -4.0 -6.25 -3.15 -11.25 -3.0 -11.65 -2.4 -14.9 M-1.15 -14.25 L-1.15 -13.75 -1.5 -13.9 -1.5 -14.4 -1.15 -14.25 M-7.75 -2.75 L-5.25 -1.0 -14.0 -2.0 -15.75 -6.75 -7.75 -2.75" fill="#252525" fill-rule="evenodd" stroke="none"/>
      <path d="M-31.4 -27.15 L-30.25 -29.0 -27.75 -27.15 -27.5 -27.0 -28.0 -26.4 -28.25 -26.5 -31.4 -27.15 M-20.5 -14.0 L-20.75 -12.75 -22.4 -9.5 -22.25 -8.65 -22.9 -7.15 -23.5 -7.9 -23.4 -9.15 -22.9 -11.15 -22.15 -11.65 -20.5 -14.0 M-24.75 -0.15 L-25.25 -1.75 -24.9 -2.65 -24.75 -0.15" fill="#272727" fill-rule="evenodd" stroke="none"/>
      <path d="M-31.4 -27.15 L-28.25 -26.5 -28.0 -26.4 -28.25 -25.65 -31.25 -25.0 -31.65 -25.0 -31.4 -27.15" fill="#363636" fill-rule="evenodd" stroke="none"/>
      <path d="M-28.25 -25.65 L-28.15 -24.9 -30.4 -23.25 -31.0 -23.0 -31.65 -25.0 -31.25 -25.0 -28.25 -25.65" fill="#616161" fill-rule="evenodd" stroke="none"/>
      <path d="M-27.5 -24.4 L-27.65 -24.25 -28.9 -22.15 -29.5 -21.25 -31.0 -23.0 -30.4 -23.25 -28.15 -24.9 -27.5 -24.4" fill="#9c9c9c" fill-rule="evenodd" stroke="none"/>
      <path d="M13.75 -26.75 L14.35 -26.75 14.85 -27.0 17.35 -25.15 15.75 -23.9 15.0 -24.75 13.75 -26.75" fill="#1c1c1c" fill-rule="evenodd" stroke="none"/>
      <path d="M12.35 -27.15 L12.6 -27.15 12.85 -26.9 13.0 -26.5 13.35 -24.5 13.0 -24.75 12.35 -27.15" fill="#747474" fill-rule="evenodd" stroke="none"/>
      <path d="M13.75 -23.25 L13.1 -23.25 13.0 -24.75 13.35 -24.5 13.75 -23.25" fill="#737373" fill-rule="evenodd" stroke="none"/>
      <path d="M14.1 -22.75 L15.0 -22.75 16.0 -22.0 15.5 -22.0 13.35 -22.25 13.25 -22.65 14.1 -22.75" fill="#4c4c4c" fill-rule="evenodd" stroke="none"/>
      <path d="M29.5 16.5 L29.35 17.25 19.1 18.75 2.1 20.25 2.35 19.85 3.5 19.75 14.0 18.75 28.6 16.5 29.5 16.5 M-27.65 -25.9 L-27.5 -25.9 -27.65 -25.75 -27.65 -25.9" fill="#0e0e0e" fill-rule="evenodd" stroke="none"/>
      <path d="M-27.5 -24.4 L-27.0 -23.75 -28.9 -22.15 -27.65 -24.25 -27.5 -24.4" fill="#a5a5a5" fill-rule="evenodd" stroke="none"/>
      <path d="M-28.9 -22.15 L-27.0 -23.75 -27.25 -21.5 -27.65 -20.25 -29.5 -21.25 -28.9 -22.15" fill="#a4a4a4" fill-rule="evenodd" stroke="none"/>
      <path d="M-27.0 -23.75 L-26.25 -23.65 -26.0 -23.5 -25.75 -22.65 -25.5 -20.15 -27.65 -20.25 -27.25 -21.5 -27.0 -23.75" fill="#646464" fill-rule="evenodd" stroke="none"/>
      <path d="M13.5 -22.0 L13.35 -22.25 15.5 -22.0 13.5 -22.0" fill="#2f2f2f" fill-rule="evenodd" stroke="none"/>
      <path d="M-1.9 -18.25 L-1.15 -17.5 -7.9 -17.0 -8.75 -17.75 -8.5 -17.75 -7.75 -17.9 -1.9 -18.25" fill="#676767" fill-rule="evenodd" stroke="none"/>
      <path d="M19.5 -20.4 L25.0 -16.4 27.5 -8.15 26.1 -10.0 25.25 -12.15 24.85 -12.15 24.35 -12.65 24.6 -12.75 22.75 -16.0 19.35 -17.9 19.0 -18.25 20.0 -18.75 19.5 -20.4 M21.0 -16.0 L20.85 -16.25 21.25 -15.9 21.0 -16.0 M23.5 -13.75 L24.1 -13.15 23.75 -13.4 23.5 -13.65 23.5 -13.75" fill="#767676" fill-rule="evenodd" stroke="none"/>
      <path d="M27.5 -8.15 L27.85 -2.15 28.25 -1.65 27.35 -0.9 27.25 -6.0 26.85 -7.0 26.1 -10.0 27.5 -8.15 M28.6 16.5 L27.35 16.0 26.85 14.5 27.5 12.85 28.25 11.85 28.6 16.5" fill="#111111" fill-rule="evenodd" stroke="none"/>
      <path d="M24.85 -12.15 L25.25 -12.15 26.1 -10.0 26.85 -7.0 22.5 -6.15 22.5 -6.65 22.75 -7.25 23.1 -7.5 23.35 -8.75 23.75 -9.25 24.1 -10.4 24.6 -11.65 24.85 -12.15" fill="#131912" fill-rule="evenodd" stroke="none"/>
      <path d="M24.35 -12.65 L24.85 -12.15 24.6 -11.65 24.35 -12.65" fill="#282828" fill-rule="evenodd" stroke="none"/>
      <path d="M-47.15 -16.15 L-46.75 -16.15 -47.15 -16.0 -47.15 -16.15" fill="#212121" fill-rule="evenodd" stroke="none"/>
      <path d="M-20.5 -14.15 L-20.5 -14.0 -22.15 -11.65 -22.9 -11.15 -22.9 -11.55 -22.75 -11.75 -22.65 -12.0 -20.5 -14.15" fill="#0f0f0f" fill-rule="evenodd" stroke="none"/>
      <path d="M-21.5 -5.4 L-17.5 -13.5 -17.15 -13.65 -16.0 -7.15 -19.5 -2.9 -21.5 -5.4" fill="#858585" fill-rule="evenodd" stroke="none"/>
      <path d="M-22.9 -7.15 L-21.5 -5.4 -19.5 -2.9 -19.4 -2.65 -24.9 -2.65 -24.9 -2.75 -24.25 -7.65 -24.0 -8.15 -23.5 -7.9 -22.9 -7.15" fill="#050704" fill-rule="evenodd" stroke="none"/>
      <path d="M-19.4 -2.65 L-19.5 -2.9 -16.0 -7.15 -15.75 -6.75 -14.0 -2.0 -19.4 -2.65" fill="#484848" fill-rule="evenodd" stroke="none"/>
      <path d="M20.85 0.1 L20.85 -1.25 20.0 -2.75 22.5 -6.15 26.85 -7.0 27.25 -6.0 27.35 -0.9 20.85 0.1" fill="#5e5e5e" fill-rule="evenodd" stroke="none"/>
      <path d="M20.85 0.1 L27.35 -0.9 27.75 1.0 27.6 4.25 21.35 0.6 20.85 0.1" fill="#5f5f5f" fill-rule="evenodd" stroke="none"/>
      <path d="M-28.75 15.6 L-29.75 14.0 -30.4 8.0 -29.4 9.35 -29.0 10.5 -28.75 15.6" fill="#434343" fill-rule="evenodd" stroke="none"/>
      <path d="M-3.9 3.5 L3.1 2.0 3.5 2.0 3.6 3.0 3.35 3.0 -3.9 3.5" fill="#373737" fill-rule="evenodd" stroke="none"/>
      <path d="M11.75 2.25 L3.6 3.0 3.5 2.0 11.75 2.25" fill="#444444" fill-rule="evenodd" stroke="none"/>
      <path d="M3.5 19.75 L4.5 19.35 4.1 19.1 4.6 19.0 4.1 18.85 4.25 18.35 5.0 18.25 4.5 18.1 5.0 18.0 4.85 17.35 5.25 16.85 5.35 16.6 4.75 16.6 4.75 16.25 5.5 16.0 4.85 15.85 4.85 15.5 -4.15 16.25 -3.4 11.6 4.6 11.1 5.35 11.35 5.35 15.35 14.1 14.6 13.25 10.25 22.6 8.75 22.85 11.6 Q26.1 14.6 26.85 14.5 L27.35 16.0 28.6 16.5 14.0 18.75 3.5 19.75 M5.25 11.0 L5.35 11.25 4.85 11.0 5.25 11.0" fill="#060606" fill-rule="evenodd" stroke="none"/>
      <path d="M5.25 11.0 L4.85 11.0 4.6 8.25 13.25 10.25 5.25 11.0" fill="#181818" fill-rule="evenodd" stroke="none"/>
      <path d="M2.1 20.25 L-14.5 21.75 -26.0 22.1 -25.0 21.25 -22.9 21.0 -4.75 20.5 2.35 19.85 2.1 20.25" fill="#0c0c0c" fill-rule="evenodd" stroke="none"/>
      <path d="M18.85 -5.0 L17.0 -17.5 18.75 -18.25 19.1 -18.15 19.5 -17.75 20.85 -16.25 21.0 -16.0 21.1 -14.75 21.5 -13.5 21.75 -11.25 22.0 -10.4 22.25 -7.9 22.5 -7.25 22.5 -6.65 22.5 -6.15 18.85 -5.0" fill="#212121" fill-opacity="0.50980395" fill-rule="evenodd" stroke="none"/>
      <path d="M0.0 -15.15 L6.35 -15.65 7.0 -15.65 13.35 -16.25 14.0 -16.25 15.35 -16.5 16.35 -17.25 17.0 -17.5 18.85 -5.0 8.85 -1.9 2.75 -1.25 2.25 -1.4 1.25 -7.15 1.0 -8.65 1.0 -8.9 0.85 -9.5 0.0 -14.65 0.0 -15.15 M19.5 -17.75 L19.6 -17.75 22.6 -16.0 24.35 -13.25 24.6 -12.75 24.5 -12.75 24.6 -12.4 24.85 -12.25 24.75 -11.65 24.5 -11.65 24.5 -11.5 24.35 -11.0 24.25 -10.9 24.1 -10.4 23.85 -12.5 23.5 -13.65 23.5 -13.75 22.75 -14.4 22.75 -13.9 22.85 -13.75 22.85 -13.0 23.35 -10.4 23.35 -9.75 23.5 -8.75 23.35 -8.75 23.25 -9.75 23.0 -10.5 22.75 -13.0 22.25 -14.9 21.6 -15.5 Q21.45 -15.6 21.25 -15.75 L21.5 -14.65 21.5 -14.5 21.6 -14.15 21.6 -13.5 22.0 -11.25 22.1 -11.15 22.1 -10.4 22.6 -7.75 22.6 -6.9 22.5 -6.65 22.5 -7.25 22.25 -7.9 22.0 -10.4 21.75 -11.25 21.5 -13.5 21.1 -14.75 21.0 -16.0 20.85 -16.25 19.5 -17.75" fill="#101010" fill-opacity="0.50980395" fill-rule="evenodd" stroke="none"/>
      <path d="M0.0 -15.15 L0.0 -14.65 -0.25 -14.5 -0.4 -15.15 0.0 -15.15" fill="#0a0a0a" fill-rule="evenodd" stroke="none"/>
      <path d="M1.25 -7.15 L2.25 -1.4 2.25 -1.25 2.0 -1.25 -4.0 -0.75 -4.4 -0.75 -4.75 -0.9 -14.0 -2.0 -14.5 -2.15 -19.5 -2.65 -19.65 -2.9 -23.0 -7.0 -23.0 -7.15 -23.65 -7.9 -24.0 -8.0 -24.0 -8.15 -23.25 -10.0 -23.25 -10.4 -23.15 -11.25 -23.0 -11.4 -22.9 -11.65 -22.75 -11.75 -22.65 -12.0 -20.25 -14.65 -20.0 -15.0 -17.65 -14.5 -17.15 -14.25 -16.75 -14.4 -14.15 -14.0 -12.9 -14.0 -11.65 -14.15 -11.25 -14.15 -10.75 -14.25 -3.4 -14.75 -2.4 -14.9 -2.0 -14.9 -1.0 -15.0 -0.4 -15.15 -0.25 -14.5 -0.15 -12.9 0.25 -11.5 0.25 -11.4 0.35 -11.15 0.6 -9.65 0.75 -9.4 0.75 -9.25 1.25 -7.15" fill="#030303" fill-opacity="0.50980395" fill-rule="evenodd" stroke="none"/>
      <path d="M-24.0 -8.15 L-24.0 -8.0 -24.25 -7.75 -24.9 -2.75 -24.75 0.25 -24.65 0.5 -24.4 3.5 -26.4 3.1 -27.25 2.6 -27.5 2.6 -27.9 -2.25 -27.75 -3.4 -27.75 -3.9 -25.5 -8.65 -24.5 -8.25 -24.0 -8.15 M-29.25 -12.5 L-29.4 -12.0 -29.4 -11.25 -29.25 -10.5 -29.25 -8.9 -29.4 -8.4 -29.25 -7.65 -29.25 -4.4 -29.5 -3.4 -29.5 -2.75 -29.4 -2.4 -29.4 1.5 -29.5 1.35 -29.65 0.85 -29.75 -1.15 -29.75 0.6 -30.0 0.5 -30.15 0.1 -30.0 -11.0 -30.15 -11.4 -30.0 -13.75 -29.9 -13.5 -29.65 -13.15 -29.65 -11.9 -29.5 -12.9 -29.25 -12.5 M-29.65 -11.9 L-29.9 -7.4 -29.75 -7.0 -29.75 -6.15 -29.5 -9.0 -29.65 -11.9 M-29.75 -6.15 L-29.75 -4.0 -29.65 -5.9 -29.75 -6.15 M-30.0 -3.15 L-29.75 -2.5 -29.75 -4.0 -30.0 -3.15 M-29.75 -2.5 L-29.75 -1.15 -29.65 -2.4 -29.75 -2.5" fill="#000000" fill-opacity="0.50980395" fill-rule="evenodd" stroke="none"/>
      <path d="M24.1 -10.4 L24.1 -9.9 24.0 -9.65 23.6 -9.0 23.5 -8.75 23.35 -9.75 23.35 -10.4 22.85 -13.0 22.85 -13.75 22.75 -13.9 22.75 -14.4 23.5 -13.75 23.5 -13.65 23.85 -12.5 24.1 -10.4 M23.35 -8.75 L23.35 -8.15 23.0 -7.4 22.75 -7.25 22.6 -6.9 22.6 -7.75 22.1 -10.4 22.1 -11.15 22.0 -11.25 21.6 -13.5 21.6 -14.15 21.5 -14.5 21.5 -14.65 21.25 -15.75 Q21.45 -15.6 21.6 -15.5 L22.25 -14.9 22.75 -13.0 23.0 -10.5 23.25 -9.75 23.35 -8.75 M27.35 -7.5 L27.35 -7.9 27.5 -6.55 27.35 -7.5 M27.65 -4.35 L27.85 -1.9 27.75 -2.15 27.65 -4.35" fill="#101010" fill-rule="evenodd" stroke="none"/>
      <path d="M24.6 -12.75 L24.85 -12.4 24.85 -12.25 24.6 -12.4 24.5 -12.75 24.6 -12.75" fill="#111111" fill-rule="evenodd" stroke="none"/>
      <path d="M0.0 -14.65 L0.85 -9.5 1.0 -8.9 1.0 -8.65 1.25 -7.15 0.75 -9.25 0.75 -9.4 0.6 -9.65 0.35 -11.15 0.25 -11.4 0.25 -11.5 -0.15 -12.9 -0.25 -14.5 0.0 -14.65" fill="#121212" fill-rule="evenodd" stroke="none"/>
      <path d="M27.25 -6.15 L26.85 -6.9 26.1 -10.0 27.25 -8.65 27.25 -8.4 27.35 -7.9 27.35 -7.5 27.25 -6.15 27.6 -5.5 27.65 -4.35 27.75 -2.15 27.85 -1.9 28.0 -1.75 28.0 -1.65 27.35 -1.0 27.25 -6.15 M26.1 -10.25 L26.1 -10.0 25.85 -10.4 26.1 -10.25" fill="#0e0e0e" fill-opacity="0.50980395" fill-rule="evenodd" stroke="none"/>
      <path d="M27.25 -6.15 L27.35 -7.5 27.5 -6.55 27.6 -5.5 27.25 -6.15" fill="#0f0f0f" fill-rule="evenodd" stroke="none"/>
    </g>
  </defs>
</svg>
