<?xml version="1.0" encoding="UTF-8" standalone="no"?>
<svg xmlns:xlink="http://www.w3.org/1999/xlink" height="1034.2px" width="773.35px" xmlns="http://www.w3.org/2000/svg">
  <g transform="matrix(1.0, 0.0, 0.0, 1.0, 365.9, 551.4)">
    <use height="90.85" transform="matrix(1.0, 0.0, 0.0, 1.0, -147.9, -75.5)" width="283.25" xlink:href="#shape0"/>
  </g>
  <defs>
    <g id="shape0" transform="matrix(1.0, 0.0, 0.0, 1.0, 147.9, 75.5)">
      <path d="M130.85 -72.0 L135.1 -72.25 135.35 -70.4 132.35 -70.25 132.1 -70.15 130.85 -70.15 130.85 -72.0 M43.1 9.25 L42.75 10.25 30.6 11.85 13.6 13.35 14.0 12.75 15.25 12.6 15.1 12.25 15.85 12.25 16.1 11.85 15.85 11.0 16.85 10.85 17.35 9.25 16.75 8.85 17.0 7.6 27.25 6.75 25.85 1.85 36.25 0.35 36.6 3.6 Q39.5 6.6 40.75 6.85 L41.0 8.6 42.1 9.1 43.1 9.25 M-25.0 -25.75 L-28.5 -27.75 -31.65 -31.65 Q-34.75 -42.0 -29.5 -42.0 L-28.25 -42.75 -27.4 -43.0 -25.65 -43.5 -20.75 -44.9 -16.5 -44.5 -16.5 -44.65 -17.0 -48.0 -17.0 -48.4 -17.15 -48.9 -17.15 -49.25 -17.25 -49.75 -17.25 -50.0 -17.5 -51.0 -15.4 -53.9 -14.65 -57.0 -12.75 -44.9 -14.15 -44.75 -14.75 -44.25 -15.9 -43.5 Q-24.65 -46.15 -27.0 -38.9 -28.75 -31.75 -21.15 -28.9 L-23.65 -25.5 -24.9 -25.75 -25.0 -25.75 M-17.9 -37.65 L-17.65 -37.4 -18.15 -37.4 -19.5 -36.9 -19.65 -36.75 -19.75 -36.5 -19.75 -36.4 -20.0 -36.0 -20.0 -35.0 -19.9 -34.75 -19.4 -34.0 -19.9 -34.25 -20.0 -34.25 -20.4 -34.9 -20.5 -34.9 -20.75 -35.65 -20.65 -36.5 -20.25 -37.25 -19.65 -37.65 -18.75 -37.75 -18.4 -37.75 -18.15 -37.65 -18.0 -37.65 -17.9 -37.65 M-16.15 -18.0 L-14.25 -21.25 -13.9 -21.75 -13.9 -21.15 -15.25 -18.0 -16.15 -18.0" fill="#060606" fill-rule="evenodd" stroke="none"/>
      <path d="M130.85 -70.15 L130.35 -70.0 129.35 -70.0 128.75 -69.9 127.75 -69.9 127.1 -69.75 126.1 -69.75 125.75 -69.65 124.5 -69.65 124.0 -69.5 122.85 -69.5 122.5 -69.4 121.35 -69.4 120.85 -69.25 119.75 -69.25 119.25 -69.15 118.1 -69.15 117.6 -69.0 116.5 -69.0 116.1 -68.9 114.85 -68.9 114.5 -68.75 113.25 -68.75 112.85 -68.65 111.75 -68.65 111.25 -68.5 110.1 -68.5 109.75 -68.4 108.5 -68.4 108.1 -68.25 106.85 -68.25 106.5 -68.15 105.25 -68.15 104.85 -68.0 103.75 -68.0 103.35 -67.9 100.35 -67.75 100.1 -67.65 98.75 -67.65 98.5 -67.5 97.1 -67.5 96.75 -67.4 95.5 -67.4 95.1 -67.25 90.75 -67.0 90.35 -66.9 89.1 -66.9 88.75 -66.75 87.5 -66.75 87.1 -66.65 85.85 -66.65 85.5 -66.5 84.35 -66.5 84.0 -66.4 82.75 -66.4 82.35 -66.25 81.1 -66.25 80.75 -66.15 79.5 -66.15 79.1 -66.0 77.85 -66.0 77.5 -65.9 76.35 -65.9 75.85 -65.75 74.75 -65.75 74.25 -65.65 73.1 -65.65 72.75 -65.5 71.5 -65.5 71.1 -65.4 69.85 -65.4 69.6 -65.25 68.35 -65.25 67.85 -65.15 66.75 -65.15 66.25 -65.0 65.0 -65.0 64.75 -64.9 63.35 -64.9 63.1 -64.75 61.75 -64.75 61.5 -64.65 60.35 -64.65 59.85 -64.5 58.6 -64.5 58.35 -64.4 57.0 -64.4 56.75 -64.25 55.35 -64.25 55.1 -64.15 53.75 -64.15 53.5 -64.0 49.0 -63.75 48.75 -63.65 47.35 -63.65 47.1 -63.5 45.75 -63.5 45.35 -63.4 39.35 -63.0 39.0 -62.9 37.75 -62.9 37.35 -62.75 36.1 -62.75 35.75 -62.65 31.35 -62.4 31.0 -62.25 29.75 -62.25 29.35 -62.15 28.1 -62.15 27.75 -62.0 26.5 -62.0 26.1 -61.9 25.0 -61.75 24.75 -61.65 24.6 -61.75 23.35 -61.65 23.0 -61.65 21.75 -61.5 21.5 -61.5 21.25 -61.4 21.25 -61.5 20.1 -61.4 19.85 -61.4 19.5 -61.25 19.5 -61.4 18.5 -61.25 17.85 -61.25 16.85 -61.25 16.6 -61.15 16.1 -61.15 15.25 -61.0 14.35 -61.0 13.6 -60.9 12.75 -60.9 12.75 -60.75 12.6 -60.75 12.35 -60.9 12.0 -60.75 11.75 -60.75 11.0 -60.75 10.25 -60.75 10.35 -60.65 9.1 -60.65 9.35 -60.5 8.85 -60.5 9.1 -60.65 8.6 -60.65 8.85 -60.5 8.5 -60.5 7.0 -60.5 7.0 -60.4 6.85 -60.4 4.6 -60.25 2.85 -60.25 4.1 -60.9 4.25 -61.5 4.25 -61.75 8.5 -62.15 8.85 -62.15 130.85 -72.0 130.85 -70.15 M-28.25 -42.75 L-25.4 -50.9 -30.9 -43.75 -32.15 -44.4 -31.0 -47.5 -24.5 -55.5 -24.75 -54.5 -24.9 -54.0 -25.4 -53.5 -25.65 -51.75 -25.15 -51.65 -24.75 -52.4 -24.15 -53.0 Q-25.5 -50.25 -25.4 -48.0 L-27.4 -43.0 -28.25 -42.75 M-23.5 -58.0 L-24.9 -58.0 -25.15 -57.9 -26.5 -57.9 -26.75 -57.75 -32.9 -57.4 -33.15 -57.25 -39.5 -56.75 -40.9 -56.75 -41.25 -56.65 -42.5 -56.65 -42.9 -56.5 -47.25 -56.25 -47.65 -56.15 -48.9 -56.15 -49.25 -56.0 -50.5 -56.0 -50.9 -55.9 -52.15 -55.9 -52.5 -55.75 -53.75 -55.75 -54.0 -55.65 -55.4 -55.65 -55.75 -55.5 -57.0 -55.5 -57.25 -55.4 -58.65 -55.4 -58.9 -55.25 -63.4 -55.0 -63.65 -54.9 -65.0 -54.9 -65.25 -54.75 -71.4 -54.4 -71.75 -54.25 -77.75 -53.9 -78.15 -53.75 -79.4 -53.75 -79.75 -53.65 -81.0 -53.65 -81.4 -53.5 -82.5 -53.5 -82.9 -53.4 -84.25 -53.4 -84.65 -53.25 -86.4 -53.15 -86.5 -53.65 -82.0 -53.9 -81.75 -54.0 -80.25 -54.0 -80.0 -54.15 -78.5 -54.15 -78.15 -54.25 -75.15 -54.4 -74.9 -54.5 -73.4 -54.5 -73.15 -54.65 -44.15 -56.65 -43.9 -56.75 -39.0 -57.0 -38.75 -57.15 -37.25 -57.15 -37.0 -57.25 -30.4 -57.65 -30.15 -57.75 -26.5 -57.9 -23.5 -58.15 -23.25 -58.15 -21.9 -58.25 -21.9 -58.15 -23.25 -58.15 -23.5 -58.0 M-144.5 -49.4 L-147.4 -49.15 -147.75 -49.15 -147.9 -49.9 -147.9 -51.0 -144.65 -51.25 -144.5 -49.4 M-21.25 -61.4 L-20.75 -62.15 -18.0 -71.0 Q-17.4 -73.75 -15.75 -75.0 L-19.75 -63.75 -19.75 -63.5 -20.15 -63.25 -20.0 -62.75 -20.25 -62.65 -20.25 -62.4 -21.15 -61.4 -21.25 -61.4 M-18.25 -63.5 L-17.9 -63.5 -16.65 -65.9 -12.5 -71.0 -13.25 -68.4 -12.0 -67.75 -16.25 -62.65 -16.75 -61.5 -18.0 -60.15 -20.0 -60.0 -20.4 -60.0 -20.15 -61.0 -19.0 -62.0 -19.15 -62.25 -18.25 -62.9 -18.25 -63.5 M-20.4 -58.4 L-20.4 -58.25 -20.9 -58.25 -21.65 -58.25 -20.4 -58.4 M-15.4 -58.75 L-15.4 -58.65 -16.5 -58.65 -15.4 -58.75 M-18.75 -58.5 L-18.75 -58.4 -19.9 -58.4 -18.75 -58.5 M-12.15 -58.9 L-12.5 -58.9 -13.0 -58.9 -12.4 -59.0 -12.15 -58.9 M-10.75 -59.15 L-10.75 -59.0 -11.25 -59.0 -10.75 -59.15 M-10.0 -59.15 L-9.5 -59.25 -8.75 -59.25 -9.5 -59.15 -10.0 -59.15 M-14.9 -58.75 L-14.75 -58.9 -14.5 -58.75 -14.9 -58.75 M-16.4 -43.0 L-16.65 -42.5 Q-25.25 -44.15 -26.5 -38.75 -28.4 -32.75 -20.75 -29.4 L-21.15 -28.9 Q-28.75 -31.75 -27.0 -38.9 -24.65 -46.15 -15.9 -43.5 L-16.4 -43.0 M-19.65 -36.75 L-19.5 -36.9 -19.5 -36.75 -19.65 -36.75" fill="#000000" fill-rule="evenodd" stroke="none"/>
      <path d="M7.1 -64.4 L8.1 -64.0 8.5 -63.0 8.85 -62.15 8.5 -62.15 8.5 -63.0 7.1 -64.4 M8.85 -60.5 L8.85 -60.0 8.0 -59.0 7.1 -58.75 8.1 -59.5 8.5 -60.5 8.85 -60.5" fill="#505050" fill-rule="evenodd" stroke="none"/>
      <path d="M6.0 -64.5 L7.1 -64.4 8.5 -63.0 8.5 -62.15 4.25 -61.75 4.6 -63.5 6.0 -64.5 M8.5 -60.5 L8.1 -59.5 7.1 -58.75 6.6 -58.75 5.6 -58.9 4.6 -60.25 6.85 -60.4 7.0 -60.4 7.0 -60.5 8.5 -60.5" fill="#2f2f2f" fill-rule="evenodd" stroke="none"/>
      <path d="M2.6 -65.4 L4.85 -64.65 6.0 -64.5 4.6 -63.5 4.25 -61.75 4.25 -61.5 4.1 -60.9 2.85 -60.25 4.6 -60.25 5.6 -58.9 6.6 -58.75 6.6 -58.65 6.0 -58.5 5.6 -58.5 5.1 -58.25 3.85 -57.75 2.35 -57.75 0.5 -58.4 0.0 -64.9 2.6 -65.4 M-12.5 -58.9 L-12.15 -58.9 -11.25 -59.0 -10.75 -59.0 -10.75 -59.15 -10.0 -59.15 -9.65 -58.0 -9.65 -55.5 -10.25 -54.0 -11.25 -53.9 Q-12.5 -54.65 -12.9 -57.15 L-12.5 -58.9 M-22.9 -39.5 L-20.9 -41.0 -20.5 -39.65 -19.65 -38.15 -19.65 -37.65 -20.25 -37.25 -22.9 -39.5 M8.35 3.35 L16.6 -0.25 17.1 2.75 16.85 2.85 8.35 3.35" fill="#151515" fill-rule="evenodd" stroke="none"/>
      <path d="M-2.4 -65.0 L-2.4 -66.5 -1.9 -67.4 -0.75 -68.15 1.35 -67.9 2.1 -67.25 2.6 -65.4 0.0 -64.9 -2.4 -65.0" fill="#4b4b4b" fill-rule="evenodd" stroke="none"/>
      <path d="M-6.0 -63.65 L-4.65 -63.9 -2.4 -65.0 0.0 -64.9 0.5 -58.4 -2.15 -57.25 -3.5 -57.4 -4.25 -57.75 -5.9 -57.75 -4.9 -58.25 -4.25 -59.65 -1.5 -59.9 -2.15 -61.25 -4.25 -61.15 -4.9 -63.0 -6.0 -63.65 M15.75 -4.5 L16.0 -5.0 15.35 -5.4 15.5 -6.0 24.35 -6.75 24.75 -5.25 15.75 -4.5" fill="#383838" fill-rule="evenodd" stroke="none"/>
      <path d="M40.75 -17.65 L41.25 -11.15 41.75 -10.5 41.1 -10.25 40.5 -16.65 39.85 -18.65 40.75 -17.65 M-24.25 -55.9 L-23.5 -58.0 -23.25 -58.15 -21.9 -58.15 -21.9 -58.25 -21.65 -58.25 -20.9 -58.25 -22.15 -55.65 -23.65 -53.65 -24.15 -53.0 -24.75 -52.4 -25.15 -51.65 -25.65 -51.75 -25.4 -53.5 -24.9 -54.0 -24.75 -54.5 -24.25 -55.9 M-22.25 -59.9 L-21.25 -61.4 -21.15 -61.4 -20.25 -62.4 -20.25 -62.65 -20.0 -62.75 -19.75 -63.5 -19.75 -63.75 -19.25 -64.15 -18.75 -64.0 -19.15 -62.25 -19.0 -62.0 -20.15 -61.0 -20.4 -60.0 -22.25 -59.9 M-8.0 -60.9 L-7.65 -62.75 -7.0 -63.4 -6.0 -63.65 -4.9 -63.0 -4.25 -61.15 -8.0 -60.9 M-7.9 -59.25 L-4.25 -59.65 -4.9 -58.25 -5.9 -57.75 -7.25 -58.4 -7.9 -59.25 M11.0 -25.4 L26.35 -26.65 27.75 -27.15 29.85 -14.0 20.85 -11.15 14.35 -10.65 9.35 -25.25 11.0 -25.4 M31.5 -28.65 L31.6 -28.65 32.0 -28.25 32.25 -27.9 31.85 -28.15 31.75 -28.15 31.5 -28.65 M37.6 -22.65 L38.1 -21.9 36.75 -18.5 35.85 -24.25 36.6 -23.65 36.85 -23.25 37.1 -23.15 37.6 -22.65 M32.5 -27.75 L32.85 -27.4 33.0 -27.15 34.75 -15.5 34.35 -15.4 32.25 -27.9 32.5 -27.75 M34.1 -26.0 L34.25 -26.0 34.5 -25.75 34.85 -25.25 35.85 -17.9 36.25 -17.25 35.75 -15.75 34.1 -26.0 M21.75 -46.15 L19.75 -46.25 17.5 -45.5 14.1 -46.25 16.85 -47.25 Q21.5 -47.4 21.75 -46.15 M-22.0 -22.65 L-21.65 -22.25 -21.4 -20.15 -21.4 -18.65 -21.9 -16.75 -22.0 -22.65 M-21.9 -7.15 L-22.15 -7.75 -22.15 -11.75 -22.5 -11.5 -22.5 -10.15 -22.75 -10.9 -22.75 -18.0 -22.4 -19.5 -22.15 -15.65 -21.75 -15.9 -21.5 -15.25 -21.5 -7.75 -21.9 -7.15 M-6.9 -23.25 L-7.75 -23.0 -8.65 -23.0 -8.65 -23.5 -6.65 -23.75 -6.9 -23.25 M-5.4 -5.4 L-5.25 -1.75 -4.15 3.75 7.75 3.5 7.25 8.5 17.0 7.6 16.75 8.85 17.35 9.25 16.85 10.85 15.85 11.0 16.1 11.85 15.85 12.25 15.1 12.25 15.25 12.6 14.0 12.75 5.75 13.5 -13.9 14.0 -15.0 1.6 -15.0 1.5 -13.75 0.35 -5.4 -5.4" fill="#020202" fill-rule="evenodd" stroke="none"/>
      <path d="M17.1 -61.15 L16.6 -61.15 16.85 -61.25 17.1 -61.15 M16.1 -61.15 L16.1 -61.0 15.25 -61.0 16.1 -61.15 M14.35 -61.0 L14.35 -60.9 13.6 -60.9 14.35 -61.0 M12.6 -60.75 L12.0 -60.75 12.35 -60.9 12.6 -60.75 M-86.5 -53.65 L-86.9 -53.65 -87.15 -53.5 -88.65 -53.5 -88.9 -53.4 -93.75 -53.15 -94.0 -53.0 -95.5 -53.0 -95.75 -52.9 -100.65 -52.65 -100.9 -52.5 -123.15 -50.9 -124.65 -50.9 -125.0 -50.75 -129.75 -50.5 -130.15 -50.4 -131.5 -50.4 -132.0 -50.25 -135.0 -50.15 -135.25 -50.0 -144.5 -49.4 -144.65 -51.25 -22.25 -59.9 -20.4 -60.0 -20.0 -60.0 -18.0 -60.15 -15.75 -60.4 -8.0 -60.9 -4.25 -61.15 -2.15 -61.25 -1.5 -59.9 -4.25 -59.65 -7.9 -59.25 -8.75 -59.25 -9.5 -59.25 -10.0 -59.15 -10.75 -59.15 -11.25 -59.0 -12.15 -58.9 -12.4 -59.0 -13.0 -58.9 -13.5 -58.9 -13.9 -58.75 -14.5 -58.75 -14.75 -58.9 -14.9 -58.75 -15.4 -58.75 -16.5 -58.65 -16.9 -58.65 -17.25 -58.5 -18.75 -58.5 -19.9 -58.4 -20.4 -58.4 -21.65 -58.25 -21.9 -58.25 -23.25 -58.15 -23.5 -58.15 -26.5 -57.9 -30.15 -57.75 -30.4 -57.65 -37.0 -57.25 -37.25 -57.15 -38.75 -57.15 -39.0 -57.0 -43.9 -56.75 -44.15 -56.65 -73.15 -54.65 -73.4 -54.5 -74.9 -54.5 -75.15 -54.4 -78.15 -54.25 -78.5 -54.15 -80.0 -54.15 -80.25 -54.0 -81.75 -54.0 -82.0 -53.9 -86.5 -53.65 M10.35 -60.65 L10.25 -60.75 11.0 -60.75 11.0 -60.65 10.35 -60.65 M9.1 -60.65 L8.85 -60.5 8.6 -60.65 9.1 -60.65" fill="#1b1b1b" fill-rule="evenodd" stroke="none"/>
      <path d="M-14.65 -57.0 L-14.9 -58.75 -14.5 -58.75 -13.9 -58.75 -13.5 -58.9 -13.0 -58.9 -12.5 -58.9 -12.9 -57.15 Q-12.5 -54.65 -11.25 -53.9 L-9.9 -45.25 -12.75 -44.9 -14.65 -57.0" fill="#595959" fill-rule="evenodd" stroke="none"/>
      <path d="M-16.75 -61.5 L-15.75 -60.4 -18.0 -60.15 -16.75 -61.5 M-18.75 -64.0 L-18.25 -63.5 -18.25 -62.9 -19.15 -62.25 -18.75 -64.0 M-20.9 -58.25 L-20.4 -58.25 -20.4 -58.4 -19.9 -58.4 -18.75 -58.4 -18.75 -58.5 -17.25 -58.5 -16.9 -58.65 -16.5 -58.65 -15.4 -58.65 -15.4 -58.75 -14.9 -58.75 -14.65 -57.0 -15.4 -53.9 -17.5 -51.0 -22.9 -51.5 -22.5 -52.65 -22.5 -53.0 -23.65 -53.0 -23.9 -53.25 -23.65 -53.65 -22.15 -55.65 -20.9 -58.25" fill="#282828" fill-rule="evenodd" stroke="none"/>
      <path d="M-12.5 -71.0 L-12.5 -71.15 -12.15 -71.5 -10.9 -71.0 -12.0 -67.75 -13.25 -68.4 -12.5 -71.0 M-17.4 -29.15 L-17.25 -29.15 -16.75 -28.75 -17.4 -28.5 -17.75 -28.4 -22.25 -23.9 -20.15 -28.5 -19.9 -28.9 -18.0 -29.15 -17.4 -29.15 M-24.25 -35.15 L-24.0 -37.5 -23.4 -37.25 -20.65 -36.5 -20.75 -35.65 -24.25 -35.15" fill="#363636" fill-rule="evenodd" stroke="none"/>
      <path d="M-15.75 -75.0 L-15.5 -75.5 -14.15 -74.9 -18.25 -63.5 -18.75 -64.0 -19.25 -64.15 -19.75 -63.75 -15.75 -75.0 M-19.75 -63.5 L-20.0 -62.75 -20.15 -63.25 -19.75 -63.5 M-18.0 -38.25 L-17.9 -37.65 -18.0 -37.65 -18.0 -38.25" fill="#323232" fill-rule="evenodd" stroke="none"/>
      <path d="M103.75 -68.0 L103.5 -67.4 93.75 -66.75 93.5 -66.65 92.0 -66.65 91.75 -66.5 90.35 -66.5 90.1 -66.4 88.6 -66.4 88.35 -66.25 86.85 -66.25 86.6 -66.15 85.1 -66.15 84.85 -66.0 83.5 -66.0 83.25 -65.9 81.75 -65.9 81.5 -65.75 80.0 -65.75 79.75 -65.65 78.25 -65.65 78.0 -65.5 76.6 -65.5 76.35 -65.4 74.85 -65.4 74.6 -65.25 73.1 -65.25 72.85 -65.15 71.35 -65.15 71.1 -65.0 69.75 -65.0 69.5 -64.9 68.0 -64.9 67.75 -64.75 66.25 -64.75 66.0 -64.65 64.5 -64.65 64.25 -64.5 62.85 -64.5 62.5 -64.4 61.1 -64.4 60.85 -64.25 59.35 -64.25 59.1 -64.15 57.6 -64.15 57.35 -64.0 55.85 -64.0 55.6 -63.9 54.25 -63.9 54.0 -63.75 52.5 -63.75 52.25 -63.65 50.75 -63.65 50.5 -63.5 49.0 -63.5 48.75 -63.4 47.35 -63.4 47.1 -63.25 45.6 -63.25 45.35 -63.15 43.85 -63.15 43.6 -63.0 42.1 -63.0 41.85 -62.9 40.5 -62.9 40.25 -62.75 38.75 -62.75 38.5 -62.65 37.0 -62.65 36.75 -62.5 35.25 -62.5 35.0 -62.4 33.6 -62.4 33.35 -62.25 31.85 -62.25 31.6 -62.15 30.1 -62.15 29.85 -62.0 28.35 -62.0 28.1 -61.9 26.75 -61.9 26.5 -61.75 25.0 -61.75 26.1 -61.9 26.5 -62.0 27.75 -62.0 28.1 -62.15 29.35 -62.15 29.75 -62.25 31.0 -62.25 31.35 -62.4 35.75 -62.65 36.1 -62.75 37.35 -62.75 37.75 -62.9 39.0 -62.9 39.35 -63.0 45.35 -63.4 45.75 -63.5 47.1 -63.5 47.35 -63.65 48.75 -63.65 49.0 -63.75 53.5 -64.0 53.75 -64.15 55.1 -64.15 55.35 -64.25 56.75 -64.25 57.0 -64.4 58.35 -64.4 58.6 -64.5 59.85 -64.5 60.35 -64.65 61.5 -64.65 61.75 -64.75 63.1 -64.75 63.35 -64.9 64.75 -64.9 65.0 -65.0 66.25 -65.0 66.75 -65.15 67.85 -65.15 68.35 -65.25 69.6 -65.25 69.85 -65.4 71.1 -65.4 71.5 -65.5 72.75 -65.5 73.1 -65.65 74.25 -65.65 74.75 -65.75 75.85 -65.75 76.35 -65.9 77.5 -65.9 77.85 -66.0 79.1 -66.0 79.5 -66.15 80.75 -66.15 81.1 -66.25 82.35 -66.25 82.75 -66.4 84.0 -66.4 84.35 -66.5 85.5 -66.5 85.85 -66.65 87.1 -66.65 87.5 -66.75 88.75 -66.75 89.1 -66.9 90.35 -66.9 90.75 -67.0 95.1 -67.25 95.5 -67.4 96.75 -67.4 97.1 -67.5 98.5 -67.5 98.75 -67.65 100.1 -67.65 100.35 -67.75 103.35 -67.9 103.75 -68.0 M24.75 -61.65 L23.35 -61.65 24.6 -61.75 24.75 -61.65 M23.0 -61.65 L23.0 -61.5 21.75 -61.5 23.0 -61.65 M21.25 -61.4 L20.1 -61.4 21.25 -61.5 21.25 -61.4 M19.5 -61.25 L18.5 -61.25 19.5 -61.4 19.5 -61.25 M17.85 -61.25 L17.85 -61.15 17.1 -61.15 16.85 -61.25 17.85 -61.25 M25.0 -40.75 L24.75 -40.75 23.5 -40.15 23.25 -39.75 23.0 -39.65 22.6 -40.65 22.75 -41.0 23.25 -41.15 24.75 -40.9 25.0 -40.75" fill="#111111" fill-rule="evenodd" stroke="none"/>
      <path d="M11.75 -60.75 L12.6 -46.75 12.6 -46.4 12.75 -45.4 12.35 -45.25 12.1 -46.5 11.0 -60.65 11.0 -60.75 11.75 -60.75 M-9.65 -55.5 L-9.65 -58.0 -9.15 -58.0 -8.25 -45.4 -8.15 -44.75 -8.65 -44.65 -8.75 -45.25 -9.65 -55.5 M9.35 -60.5 L10.35 -46.65 10.35 -46.15 10.0 -46.15 9.85 -46.65 8.85 -60.0 8.85 -60.5 9.35 -60.5" fill="#171717" fill-rule="evenodd" stroke="none"/>
      <path d="M-7.0 -45.4 L-8.0 -58.4 -7.5 -58.4 -6.5 -45.5 -6.5 -43.75 -6.9 -43.75 -7.0 -45.4 M-2.65 -45.75 L-3.5 -57.4 -2.15 -57.25 0.5 -58.4 2.35 -57.75 3.85 -57.75 5.1 -58.25 6.0 -46.4 6.0 -45.75 5.1 -45.5 2.35 -45.25 -2.65 -45.15 -2.65 -45.75 M-16.15 -42.4 L-15.4 -42.75 -12.65 -41.75 -14.9 -37.4 -15.0 -28.9 -15.4 -28.9 -16.75 -28.75 -17.25 -29.15 -17.4 -29.15 -16.75 -29.4 -16.65 -30.0 -16.75 -31.25 -17.75 -33.5 Q-14.4 -36.0 -17.65 -37.4 L-17.9 -37.65 -18.0 -38.25 -17.9 -39.25 -17.5 -40.4 -17.0 -40.5 -15.4 -40.65 -14.65 -41.4 -16.15 -42.4" fill="#181818" fill-rule="evenodd" stroke="none"/>
      <path d="M-8.25 -45.4 L-7.0 -45.4 -6.9 -43.75 -6.5 -43.75 -6.5 -45.5 -2.65 -45.75 -2.65 -45.15 2.35 -45.25 3.5 -44.75 -4.9 -43.65 -12.65 -41.75 -15.4 -42.75 -16.4 -43.0 -15.9 -43.5 -14.75 -44.25 -14.15 -44.75 -12.75 -44.9 -9.9 -45.25 -8.75 -45.25 -8.65 -44.65 -8.15 -44.75 -8.25 -45.4 M24.35 -6.75 L15.5 -6.0 15.25 -7.0 24.35 -6.75" fill="#525252" fill-rule="evenodd" stroke="none"/>
      <path d="M-24.5 -55.5 L-24.25 -55.9 -24.75 -54.5 -24.5 -55.5" fill="#4f4f4f" fill-rule="evenodd" stroke="none"/>
      <path d="M24.6 -32.5 L26.1 -32.65 26.75 -32.0 24.75 -32.0 24.6 -32.5 M-23.65 -53.65 L-23.9 -53.25 -23.65 -53.0 -22.5 -53.0 -22.5 -52.65 -22.9 -51.5 -23.65 -50.15 -24.25 -47.0 -25.65 -43.5 -27.4 -43.0 -25.4 -48.0 Q-25.5 -50.25 -24.15 -53.0 L-23.65 -53.65" fill="#4a4a4a" fill-rule="evenodd" stroke="none"/>
      <path d="M25.1 -45.9 Q29.0 -46.0 30.75 -40.25 30.75 -33.4 24.6 -32.5 L24.5 -33.15 24.6 -33.15 26.85 -33.75 28.6 -35.25 29.6 -36.4 29.75 -37.25 30.0 -39.4 29.5 -41.65 28.1 -43.4 26.1 -44.65 24.0 -44.9 21.75 -44.4 20.5 -43.4 19.5 -44.4 19.85 -44.9 18.85 -45.0 19.5 -44.4 11.75 -44.9 3.5 -44.75 2.35 -45.25 5.1 -45.5 6.0 -45.75 6.0 -46.4 9.85 -46.65 10.0 -46.15 10.35 -46.15 10.35 -46.65 12.1 -46.5 12.35 -45.25 12.75 -45.4 12.6 -46.4 14.1 -46.25 17.5 -45.5 19.75 -46.25 21.75 -46.15 25.1 -45.9 M-9.65 -13.5 L-9.25 -13.4 -8.65 -11.75 -10.15 -12.0 -10.5 -12.5 -9.65 -13.5" fill="#555555" fill-rule="evenodd" stroke="none"/>
      <path d="M12.6 -46.75 L17.5 -47.75 Q24.6 -47.65 25.1 -45.9 L21.75 -46.15 Q21.5 -47.4 16.85 -47.25 L14.1 -46.25 12.6 -46.4 12.6 -46.75" fill="#313131" fill-rule="evenodd" stroke="none"/>
      <path d="M26.75 -32.0 L31.75 -30.75 21.85 -29.65 23.35 -30.75 24.35 -31.0 24.75 -32.0 26.75 -32.0 M15.25 -29.15 L19.05 -29.45 16.1 -29.15 15.25 -29.15 M3.75 -28.25 L1.1 -27.9 -3.5 -27.65 3.75 -28.25 M-15.4 -28.9 L-15.0 -28.9 -13.25 -28.4 -9.0 -28.4 Q-6.25 -27.55 -4.25 -27.6 L-15.15 -26.9 -16.15 -27.15 -17.75 -28.4 -17.4 -28.5 -15.4 -28.9" fill="#373737" fill-rule="evenodd" stroke="none"/>
      <path d="M23.0 -39.25 L23.5 -37.65 23.6 -37.4 23.5 -37.25 24.35 -34.0 24.35 -33.65 24.5 -33.15 24.6 -32.5 24.75 -32.0 24.35 -31.0 23.35 -30.75 21.85 -29.65 21.35 -29.65 19.05 -29.45 15.25 -29.15 15.0 -29.15 13.85 -29.0 13.0 -29.0 12.5 -28.9 9.35 -28.65 6.5 -39.15 5.5 -41.75 3.5 -44.75 11.75 -44.9 19.5 -44.4 20.5 -43.4 20.6 -43.4 22.6 -40.65 23.0 -39.65 23.0 -39.25" fill="#aeaeae" fill-rule="evenodd" stroke="none"/>
      <path d="M24.35 -33.65 L24.6 -33.15 24.5 -33.15 24.35 -33.65" fill="#858585" fill-rule="evenodd" stroke="none"/>
      <path d="M-46.25 -24.0 L-25.0 -25.75 -24.9 -25.75 -23.65 -25.5 -24.25 -24.65 -41.25 -23.4 -42.65 -23.15 -44.75 -23.15 -46.25 -23.5 -46.25 -24.0 M23.85 -37.25 L24.0 -37.25 24.6 -37.0 26.85 -33.75 24.6 -33.15 24.35 -34.0 23.5 -37.25 23.85 -37.25" fill="#2d2d2d" fill-rule="evenodd" stroke="none"/>
      <path d="M24.6 -37.0 L25.25 -37.0 25.75 -37.15 28.6 -35.25 26.85 -33.75 24.6 -37.0 M-9.25 -13.4 L-5.15 -11.4 -8.65 -11.75 -9.25 -13.4" fill="#1d1d1d" fill-rule="evenodd" stroke="none"/>
      <path d="M25.75 -37.15 L26.35 -37.65 26.75 -38.15 29.35 -37.25 29.75 -37.25 29.6 -36.4 28.6 -35.25 25.75 -37.15" fill="#0b0b0b" fill-rule="evenodd" stroke="none"/>
      <path d="M26.75 -38.15 L26.85 -38.9 26.75 -39.4 26.5 -40.15 26.1 -40.4 26.0 -40.5 25.6 -40.65 25.5 -40.75 25.0 -40.75 24.75 -40.9 23.25 -41.15 22.75 -41.0 22.75 -42.15 22.5 -43.5 22.0 -43.5 21.75 -44.4 24.0 -44.9 26.1 -44.65 28.1 -43.4 29.5 -41.65 30.0 -39.4 29.75 -37.25 29.35 -37.25 26.75 -38.15 M-15.4 -40.65 L-17.0 -40.5 -17.5 -40.4 -17.9 -39.25 -18.0 -38.25 -18.0 -37.65 -18.15 -37.65 -18.4 -37.75 -18.75 -37.75 -19.65 -37.65 -19.65 -38.15 -20.5 -39.65 -20.9 -41.0 -18.75 -41.65 -16.5 -41.4 -15.4 -40.65" fill="#080808" fill-rule="evenodd" stroke="none"/>
      <path d="M-44.65 -20.15 L-44.9 -20.0 Q-52.75 -20.9 -46.25 -24.0 L-46.25 -23.5 -44.75 -23.15 -42.65 -23.15 -47.0 -22.15 -47.75 -21.9 -48.0 -21.65 -47.9 -21.4 -47.4 -21.25 -46.75 -21.15 -43.5 -20.9 -45.25 -20.75 -44.25 -20.65 -44.65 -20.15 M21.75 -44.4 L22.0 -43.5 20.6 -43.4 20.5 -43.4 21.75 -44.4 M7.1 -19.65 L6.85 -18.65 6.75 -19.25 7.1 -19.65 M6.75 -17.75 L5.5 -10.15 5.0 -10.25 6.75 -17.75 M-17.65 -37.4 Q-14.4 -36.0 -17.75 -33.5 L-18.65 -33.5 -19.25 -33.9 -19.4 -34.0 -19.9 -34.75 -20.0 -35.0 -20.0 -36.0 -19.75 -36.4 -19.75 -36.5 -19.65 -36.75 -19.5 -36.75 -19.5 -36.9 -18.15 -37.4 -17.65 -37.4" fill="#141414" fill-rule="evenodd" stroke="none"/>
      <path d="M22.75 -41.0 L22.6 -40.65 20.6 -43.4 22.0 -43.5 22.5 -43.5 22.75 -42.15 22.75 -41.0 M19.5 -44.4 L18.85 -45.0 19.85 -44.9 19.5 -44.4" fill="#575757" fill-rule="evenodd" stroke="none"/>
      <path d="M-19.0 12.35 L-21.15 9.35 -21.4 3.75 -21.75 3.25 -21.5 2.75 -22.25 -1.75 -22.65 -8.0 -22.15 -7.75 -21.9 -7.15 -21.15 -6.4 -21.0 -10.0 -21.15 -11.5 -21.0 -21.9 -21.4 -22.15 -21.65 -22.25 -22.0 -22.65 -22.4 -23.0 -22.5 -23.5 -22.25 -23.9 -17.75 -28.4 -16.15 -27.15 -15.15 -26.9 -16.25 -26.15 -20.25 -21.65 -20.4 -20.25 -20.65 -5.65 -20.25 -4.65 -20.15 0.6 -19.0 12.35 M23.25 -39.75 L23.5 -40.15 24.75 -40.75 25.0 -40.75 25.5 -40.75 25.6 -40.65 26.0 -40.5 26.1 -40.4 26.5 -40.15 26.75 -39.4 26.85 -38.9 26.75 -38.15 26.35 -37.65 25.75 -37.15 25.25 -37.0 24.6 -37.0 24.0 -37.25 23.85 -37.25 23.6 -37.4 23.5 -37.65 23.0 -39.25 23.25 -39.75" fill="#161616" fill-rule="evenodd" stroke="none"/>
      <path d="M23.25 -39.75 L23.0 -39.25 23.0 -39.65 23.25 -39.75 M23.6 -37.4 L23.85 -37.25 23.5 -37.25 23.6 -37.4 M-2.65 -24.25 L-4.0 -23.0 -5.4 -22.75 -5.9 -23.75 -6.0 -24.0 -6.0 -24.15 -6.15 -24.4 -2.65 -24.25" fill="#0f0f0f" fill-rule="evenodd" stroke="none"/>
      <path d="M-23.4 1.0 L-25.25 -9.9 -25.25 -21.65 -25.15 -21.9 -25.15 -23.5 -24.25 -24.65 -23.65 -25.5 -21.15 -28.9 -20.75 -29.4 -18.0 -29.15 -19.9 -28.9 -20.15 -28.5 -22.25 -23.9 -22.5 -23.5 -22.4 -23.0 -22.0 -22.65 -21.9 -16.75 -21.4 -18.65 -21.5 -15.25 -21.75 -15.9 -22.15 -15.65 -22.4 -19.5 -22.75 -18.0 -22.75 -10.9 -22.5 -10.15 -22.5 -11.5 -22.15 -11.75 -22.15 -7.75 -22.65 -8.0 -22.25 -1.75 -21.5 2.75 -21.75 3.25 -23.4 1.0 M5.5 -10.15 L10.0 -10.25 13.75 -10.5 14.0 -9.75 14.6 -9.4 14.35 -9.15 14.75 -8.0 15.1 -8.0 14.75 -7.65 14.85 -7.0 7.1 -5.4 6.5 -5.4 6.75 -3.75 15.75 -4.5 16.1 -4.5 Q15.6 -4.15 16.6 -0.25 L8.35 3.35 7.75 3.5 -4.15 3.75 -5.25 -1.75 -5.4 -5.4 -5.25 -5.65 -6.5 -8.25 -10.15 -12.0 -8.65 -11.75 -5.15 -11.4 -1.25 -11.0 5.0 -10.25 5.5 -10.15 M-21.65 -22.25 L-21.4 -22.15 -21.4 -20.15 -21.65 -22.25 M-17.5 -5.5 L-18.9 -6.0 -19.15 -11.5 -19.5 -12.65 -17.25 -17.65 -16.9 -18.25 -16.15 -18.0 -16.75 -14.0 -16.9 -13.65 -18.4 -9.0 -17.5 -5.5" fill="#292929" fill-rule="evenodd" stroke="none"/>
      <path d="M-16.15 -42.4 L-14.65 -41.4 -15.4 -40.65 -16.5 -41.4 -18.75 -41.65 -20.9 -41.0 -22.9 -39.5 -24.0 -37.5 -24.25 -35.15 -23.65 -32.9 -22.15 -31.15 -20.0 -30.0 -17.75 -29.75 -16.65 -30.0 -16.75 -29.4 -17.4 -29.15 -18.0 -29.15 -20.75 -29.4 Q-28.4 -32.75 -26.5 -38.75 -25.25 -44.15 -16.65 -42.5 L-16.15 -42.4" fill="#232323" fill-rule="evenodd" stroke="none"/>
      <path d="M-15.4 -42.75 L-16.15 -42.4 -16.65 -42.5 -16.4 -43.0 -15.4 -42.75" fill="#1e1e1e" fill-rule="evenodd" stroke="none"/>
      <path d="M-25.25 -21.65 L-44.65 -20.15 -44.25 -20.65 -45.25 -20.75 -43.5 -20.9 -35.4 -21.0 -25.15 -21.9 -25.25 -21.65 M-6.75 -24.5 L-7.5 -24.0 -9.9 -24.4 -9.9 -24.9 -9.5 -25.0 -6.75 -24.5" fill="#0c0c0c" fill-rule="evenodd" stroke="none"/>
      <path d="M31.0 -28.4 L31.5 -28.65 31.75 -28.15 31.0 -28.4 M-24.25 -24.65 L-25.15 -23.5 -25.15 -21.9 -35.4 -21.0 -43.5 -20.9 -46.75 -21.15 -47.4 -21.25 -47.9 -21.4 -48.0 -21.65 -47.75 -21.9 -47.0 -22.15 -42.65 -23.15 -41.25 -23.4 -24.25 -24.65" fill="#191919" fill-rule="evenodd" stroke="none"/>
      <path d="M3.5 -44.75 L5.5 -41.75 6.5 -39.15 9.35 -28.65 8.35 -28.65 5.1 -28.4 4.6 -28.25 3.75 -28.25 -3.5 -27.65 -4.25 -27.6 Q-6.25 -27.55 -9.0 -28.4 L-13.25 -28.4 -15.0 -28.9 -14.9 -37.4 -12.65 -41.75 -4.9 -43.65 3.5 -44.75 M-17.5 -5.5 L-18.4 -9.0 -16.9 -13.65 -16.15 -12.4 -16.0 -11.9 -15.5 -5.15 -17.5 -5.5 M-16.75 -14.0 L-16.15 -18.0 -15.25 -18.0 -15.4 -17.75 -15.4 -17.65 -16.15 -16.65 -16.15 -15.25 -16.75 -14.0" fill="#333333" fill-rule="evenodd" stroke="none"/>
      <path d="M31.75 -30.75 L32.1 -30.75 32.75 -29.25 31.6 -28.65 31.5 -28.65 31.0 -28.4 27.75 -27.15 26.35 -26.65 11.0 -25.4 10.1 -28.0 9.5 -28.0 8.35 -28.65 9.35 -28.65 12.5 -28.9 13.0 -29.0 13.85 -29.0 15.0 -29.15 15.25 -29.15 16.1 -29.15 19.05 -29.45 21.35 -29.65 21.85 -29.65 31.75 -30.75 M-23.65 -32.9 L-24.25 -35.15 -20.5 -34.9 -23.0 -33.25 -23.65 -32.9" fill="#656565" fill-rule="evenodd" stroke="none"/>
      <path d="M-24.0 -37.5 L-22.9 -39.5 -20.25 -37.25 -20.65 -36.5 -23.4 -37.25 -24.0 -37.5" fill="#272727" fill-rule="evenodd" stroke="none"/>
      <path d="M-20.75 -35.65 L-20.5 -34.9 -24.25 -35.15 -20.75 -35.65" fill="#666666" fill-rule="evenodd" stroke="none"/>
      <path d="M-20.0 -34.25 L-19.9 -34.25 -19.4 -34.0 -19.25 -33.9 -19.5 -33.65 -21.5 -31.9 -20.0 -34.25" fill="#b9b9b9" fill-rule="evenodd" stroke="none"/>
      <path d="M-20.5 -34.9 L-20.4 -34.9 -20.0 -34.25 -23.0 -33.25 -20.5 -34.9" fill="#a8a8a8" fill-rule="evenodd" stroke="none"/>
      <path d="M24.6 -33.15 L24.35 -33.65 24.35 -34.0 24.6 -33.15" fill="#868686" fill-rule="evenodd" stroke="none"/>
      <path d="M-22.15 -31.15 L-23.65 -32.9 -23.0 -33.25 -20.0 -34.25 -21.5 -31.9 -22.15 -31.15" fill="#a7a7a7" fill-rule="evenodd" stroke="none"/>
      <path d="M-20.0 -30.0 L-22.15 -31.15 -21.5 -31.9 -19.5 -33.65 -19.65 -31.4 -20.0 -30.0" fill="#b8b8b8" fill-rule="evenodd" stroke="none"/>
      <path d="M-17.75 -29.75 L-20.0 -30.0 -19.65 -31.4 -19.5 -33.65 -19.25 -33.9 -18.65 -33.5 -18.0 -32.0 -17.75 -29.75" fill="#737373" fill-rule="evenodd" stroke="none"/>
      <path d="M-17.75 -33.5 L-16.75 -31.25 -16.65 -30.0 -17.75 -29.75 -18.0 -32.0 -18.65 -33.5 -17.75 -33.5" fill="#2b2b2b" fill-rule="evenodd" stroke="none"/>
      <path d="M32.1 -30.75 L38.0 -26.4 40.75 -17.65 39.85 -18.65 38.6 -22.15 38.1 -21.9 37.6 -22.65 38.25 -22.75 35.75 -26.4 31.6 -28.65 32.75 -29.25 32.1 -30.75 M32.25 -27.9 L32.0 -28.25 32.5 -27.75 32.25 -27.9 M33.0 -27.15 L32.85 -27.4 33.25 -27.0 33.0 -27.15 M35.75 -24.5 L36.6 -23.65 35.85 -24.25 35.75 -24.5" fill="#545454" fill-rule="evenodd" stroke="none"/>
      <path d="M11.0 -25.4 L9.35 -25.25 8.5 -25.15 8.1 -25.15 -2.65 -24.25 -6.15 -24.4 -6.75 -24.5 -9.5 -25.0 -13.4 -25.65 -15.15 -26.9 -4.25 -27.6 -3.5 -27.65 1.1 -27.9 2.85 -27.4 9.5 -28.0 10.1 -28.0 11.0 -25.4" fill="#494949" fill-rule="evenodd" stroke="none"/>
      <path d="M3.75 -28.25 L4.6 -28.25 5.1 -28.4 8.35 -28.65 9.5 -28.0 2.85 -27.4 1.1 -27.9 3.75 -28.25" fill="#606060" fill-rule="evenodd" stroke="none"/>
      <path d="M-16.75 -28.75 L-15.4 -28.9 -17.4 -28.5 -16.75 -28.75" fill="#2a2a2a" fill-rule="evenodd" stroke="none"/>
      <path d="M32.0 -28.25 L31.6 -28.65 35.75 -26.4 38.25 -22.75 37.6 -22.65 37.1 -23.15 36.85 -23.25 36.6 -23.65 35.75 -24.5 35.0 -25.25 34.85 -25.25 34.5 -25.75 34.25 -26.0 34.1 -26.0 33.25 -27.0 32.85 -27.4 32.5 -27.75 32.0 -28.25" fill="#6a6a6a" fill-rule="evenodd" stroke="none"/>
      <path d="M14.35 -10.65 L20.85 -11.15 29.85 -14.0 34.35 -15.4 34.75 -15.5 35.75 -15.75 35.85 -15.75 33.1 -11.9 34.1 -10.4 34.1 -9.0 34.75 -8.4 36.1 -5.4 36.25 0.35 25.85 1.85 16.6 -0.25 Q15.6 -4.15 16.1 -4.5 L15.75 -4.5 24.75 -5.25 24.35 -6.75 15.25 -7.0 14.85 -7.0 14.75 -7.65 15.1 -8.0 14.75 -8.0 14.35 -9.15 14.6 -9.4 14.0 -9.75 13.75 -10.5 14.35 -10.65" fill="#6e6e6e" fill-rule="evenodd" stroke="none"/>
      <path d="M13.6 13.35 L-4.75 15.0 -17.75 15.35 -19.0 12.35 -20.15 0.6 -20.25 -4.65 -20.65 -5.65 -20.4 -20.25 -20.25 -21.65 -16.25 -26.15 -15.15 -26.9 -13.4 -25.65 -9.5 -25.0 -9.9 -24.9 -9.9 -24.4 -7.5 -24.0 -6.75 -24.5 -6.15 -24.4 -6.0 -24.15 -6.0 -24.0 -5.9 -23.75 -5.4 -22.75 -3.65 -19.9 Q0.25 -15.25 -2.0 -12.4 L-10.25 -20.5 -10.75 -20.65 -11.25 -24.65 -11.5 -24.4 -13.75 -22.0 -13.9 -21.9 -13.9 -21.75 -14.25 -21.25 -16.15 -18.0 -16.9 -18.25 -17.25 -17.65 -19.5 -12.65 -19.15 -11.5 -18.9 -6.0 -17.5 -5.5 -15.5 -5.15 -5.25 -5.65 -5.4 -5.4 -13.75 0.35 -15.0 1.5 -15.0 1.6 -13.9 14.0 5.75 13.5 14.0 12.75 13.6 13.35 M-6.9 -23.25 L-6.65 -23.75 -8.65 -23.5 -8.65 -23.0 -7.75 -23.0 -6.9 -23.25" fill="#040404" fill-rule="evenodd" stroke="none"/>
      <path d="M-21.15 9.35 L-22.65 7.25 -23.4 1.0 -21.75 3.25 -21.4 3.75 -21.15 9.35 M7.1 -5.4 L14.85 -7.0 15.25 -7.0 15.5 -6.0 7.1 -5.4" fill="#414141" fill-rule="evenodd" stroke="none"/>
      <path d="M6.85 -18.65 L6.85 -18.4 6.75 -17.9 6.75 -17.75 5.0 -10.25 -1.25 -11.0 -2.0 -12.4 Q0.25 -15.25 -3.65 -19.9 L-5.4 -22.75 -4.0 -23.0 -2.65 -24.25 8.1 -25.15 7.1 -19.65 6.75 -19.25 6.85 -18.65 M-21.4 -22.15 L-21.0 -21.9 -21.15 -11.5 -21.0 -10.0 -21.15 -6.4 -21.9 -7.15 -21.5 -7.75 -21.5 -15.25 -21.4 -18.65 -21.4 -20.15 -21.4 -22.15" fill="#030303" fill-rule="evenodd" stroke="none"/>
      <path d="M9.35 -25.25 L14.35 -10.65 13.75 -10.5 10.0 -10.25 8.5 -25.15 9.35 -25.25 M9.1 -23.4 L9.1 -22.65 9.5 -22.5 9.5 -23.25 9.1 -23.4 M9.6 -21.25 L9.6 -21.9 9.25 -22.0 9.25 -21.4 9.6 -21.25 M9.75 -20.4 L9.35 -20.5 9.35 -20.0 9.75 -19.9 9.75 -20.4 M9.0 -24.9 L9.0 -24.0 9.35 -23.9 9.35 -24.75 9.0 -24.9" fill="#767676" fill-rule="evenodd" stroke="none"/>
      <path d="M9.1 -23.4 L9.5 -23.25 9.5 -22.5 9.1 -22.65 9.1 -23.4 M8.1 -25.15 L8.5 -25.15 10.0 -10.25 5.5 -10.15 6.75 -17.75 6.75 -17.9 6.85 -18.4 6.85 -18.65 7.1 -19.65 8.1 -25.15 M9.0 -24.9 L9.35 -24.75 9.35 -23.9 9.0 -24.0 9.0 -24.9 M9.75 -20.4 L9.75 -19.9 9.35 -20.0 9.35 -20.5 9.75 -20.4 M9.6 -21.25 L9.25 -21.4 9.25 -22.0 9.6 -21.9 9.6 -21.25" fill="#262626" fill-rule="evenodd" stroke="none"/>
      <path d="M-16.9 -13.65 L-16.75 -14.0 -16.15 -15.25 -16.15 -16.65 -15.4 -17.65 -16.15 -12.4 -16.9 -13.65 M-11.5 -24.4 L-11.25 -24.65 -10.75 -20.65 -13.25 -15.9 -15.25 -18.0 -13.9 -21.15 -11.5 -24.4" fill="#565656" fill-rule="evenodd" stroke="none"/>
      <path d="M-13.9 -21.75 L-13.9 -21.9 -13.75 -22.0 -11.5 -24.4 -13.9 -21.15 -13.9 -21.75" fill="#101010" fill-rule="evenodd" stroke="none"/>
      <path d="M-15.4 -17.65 L-15.4 -17.75 -15.25 -18.0 -13.25 -15.9 -10.5 -12.5 -10.15 -12.0 -16.0 -11.9 -16.15 -12.4 -15.4 -17.65" fill="#050805" fill-rule="evenodd" stroke="none"/>
      <path d="M38.1 -21.9 L38.6 -22.15 39.85 -18.65 40.5 -16.65 35.85 -15.75 35.75 -15.75 36.25 -17.25 36.75 -18.5 38.1 -21.9" fill="#141b13" fill-rule="evenodd" stroke="none"/>
      <path d="M40.5 -16.65 L41.1 -10.25 41.0 -9.9 34.1 -9.0 34.1 -10.4 33.1 -11.9 35.85 -15.75 40.5 -16.65" fill="#5b5b5b" fill-rule="evenodd" stroke="none"/>
      <path d="M-2.0 -12.4 L-1.25 -11.0 -5.15 -11.4 -9.25 -13.4 -9.65 -13.5 -9.5 -14.4 -10.75 -20.65 -10.25 -20.5 -2.0 -12.4" fill="#131313" fill-rule="evenodd" stroke="none"/>
      <path d="M-13.25 -15.9 L-10.75 -20.65 -9.5 -14.4 -9.65 -13.5 -10.5 -12.5 -13.25 -15.9" fill="#848484" fill-rule="evenodd" stroke="none"/>
      <path d="M-16.0 -11.9 L-10.15 -12.0 -6.5 -8.25 -5.25 -5.65 -15.5 -5.15 -16.0 -11.9" fill="#0a0a0a" fill-rule="evenodd" stroke="none"/>
      <path d="M41.75 -10.5 L43.1 9.25 42.1 9.1 42.25 6.0 41.85 4.25 41.85 4.1 41.75 3.35 41.75 2.1 42.25 1.1 41.6 -1.15 41.35 -4.4 41.0 -9.9 41.1 -10.25 41.75 -10.5" fill="#242424" fill-rule="evenodd" stroke="none"/>
      <path d="M34.1 -9.0 L41.0 -9.9 41.35 -4.4 34.75 -8.4 34.1 -9.0" fill="#5f5f5f" fill-rule="evenodd" stroke="none"/>
      <path d="M34.75 -8.4 L41.35 -4.4 41.6 -1.15 42.25 1.1 41.75 2.1 41.75 3.35 40.75 6.85 Q39.5 6.6 36.6 3.6 L36.25 0.35 36.1 -5.4 34.75 -8.4" fill="#3c3c3c" fill-rule="evenodd" stroke="none"/>
      <path d="M16.6 -0.25 L25.85 1.85 17.1 2.75 16.6 -0.25" fill="#202020" fill-rule="evenodd" stroke="none"/>
      <path d="M15.75 -4.5 L6.75 -3.75 6.5 -5.4 7.1 -5.4 15.5 -6.0 15.35 -5.4 16.0 -5.0 15.75 -4.5" fill="#252525" fill-rule="evenodd" stroke="none"/>
      <path d="M7.75 3.5 L8.35 3.35 16.85 2.85 17.1 2.75 17.5 3.35 16.75 3.5 17.5 3.75 16.85 3.85 17.5 3.85 17.1 4.35 17.5 4.5 17.6 6.25 16.85 6.25 17.6 6.35 16.85 6.75 17.6 7.0 16.85 7.1 17.6 7.25 17.0 7.6 7.25 8.5 7.75 3.5" fill="#070707" fill-rule="evenodd" stroke="none"/>
      <path d="M25.85 1.85 L27.25 6.75 17.0 7.6 17.6 7.25 16.85 7.1 17.6 7.0 16.85 6.75 17.6 6.35 16.85 6.25 17.6 6.25 17.5 4.5 17.1 4.35 17.5 3.85 16.85 3.85 17.5 3.75 16.75 3.5 17.5 3.35 17.1 2.75 25.85 1.85" fill="#0e0e0e" fill-rule="evenodd" stroke="none"/>
      <path d="M40.75 6.85 L41.75 3.35 41.85 4.1 41.85 4.25 42.25 6.0 42.1 9.1 41.0 8.6 40.75 6.85" fill="#121212" fill-rule="evenodd" stroke="none"/>
      <path d="M11.0 -25.4 L14.75 -25.75 15.85 -25.75 18.5 -26.0 19.0 -26.0 26.1 -26.65 26.85 -26.65 27.75 -27.25 29.75 -14.25 29.85 -13.9 21.1 -11.15 21.0 -11.15 14.35 -10.65 14.35 -10.5 14.0 -10.5 13.6 -12.25 13.6 -12.4 13.5 -12.65 13.25 -13.5 13.25 -13.75 12.1 -18.25 12.5 -18.75 11.0 -24.9 11.0 -25.4 M30.85 -28.4 L31.5 -28.65 31.5 -28.75 31.75 -28.65 31.85 -28.65 32.1 -28.4 32.5 -28.15 34.25 -27.25 35.85 -26.15 36.35 -25.25 37.1 -24.15 37.35 -23.9 37.35 -23.75 37.6 -23.25 38.0 -22.65 37.85 -22.65 37.5 -22.75 38.1 -21.9 38.1 -21.4 37.75 -20.5 37.5 -20.15 37.35 -20.15 37.25 -19.4 37.1 -19.25 36.75 -18.5 36.6 -19.0 36.35 -21.65 36.0 -22.9 35.85 -24.0 35.85 -24.25 35.75 -24.5 35.0 -25.25 34.6 -25.5 34.75 -25.15 35.5 -19.65 35.6 -19.5 35.6 -19.4 35.85 -17.15 36.1 -17.0 36.1 -16.4 35.85 -16.0 35.75 -15.75 34.35 -25.65 34.1 -26.0 34.0 -26.4 33.25 -27.0 32.85 -27.25 32.75 -26.5 33.1 -25.9 33.5 -24.0 33.5 -23.4 33.35 -22.5 33.0 -24.0 32.75 -26.5 32.25 -27.9 32.0 -28.0 31.85 -28.15 31.75 -28.15 30.85 -28.4 M34.6 -15.5 L34.35 -15.4 34.1 -16.65 34.0 -18.5 33.5 -20.4 33.35 -22.5 33.75 -21.9 33.85 -20.4 34.0 -20.25 34.0 -18.5 34.35 -17.9 34.5 -16.65 34.6 -16.5 34.6 -15.5" fill="#131313" fill-opacity="0.50980395" fill-rule="evenodd" stroke="none"/>
      <path d="M29.85 -13.9 L29.75 -14.25 27.75 -27.25 30.85 -28.4 31.75 -28.15 31.85 -28.15 32.0 -28.0 32.25 -27.9 32.75 -26.5 33.0 -24.0 33.35 -22.5 33.5 -20.4 34.0 -18.5 34.1 -16.65 34.35 -15.4 34.35 -15.25 29.85 -13.9" fill="#272727" fill-opacity="0.50980395" fill-rule="evenodd" stroke="none"/>
      <path d="M11.0 -25.4 L11.0 -24.9 10.75 -24.75 10.6 -25.4 11.0 -25.4 M12.0 -18.0 L11.85 -18.5 12.1 -18.25 12.0 -18.0" fill="#0d0d0d" fill-rule="evenodd" stroke="none"/>
      <path d="M-15.25 -18.0 L-14.4 -20.15 -14.25 -20.4 -14.0 -21.5 -13.9 -21.75 -13.75 -22.0 -11.25 -24.65 -11.25 -24.9 -10.9 -25.25 -8.75 -24.9 -8.15 -24.75 -4.5 -24.15 -2.65 -24.15 -0.75 -24.4 -0.4 -24.5 2.5 -24.65 3.1 -24.75 3.35 -24.75 7.5 -25.15 8.5 -25.15 10.6 -25.4 10.75 -24.75 11.0 -22.5 11.1 -22.0 11.1 -21.9 11.85 -18.5 12.0 -18.0 12.25 -17.15 12.25 -16.9 13.6 -10.5 6.85 -9.9 3.75 -10.4 3.5 -10.4 -10.15 -12.0 -10.25 -12.0 -10.5 -12.4 -15.15 -17.9 -15.4 -17.75 -15.25 -18.0" fill="#040404" fill-opacity="0.50980395" fill-rule="evenodd" stroke="none"/>
      <path d="M-15.25 -18.0 L-15.4 -17.75 -15.4 -17.65 -15.25 -17.0 -15.5 -16.25 -15.4 -16.0 -15.9 -14.65 -15.65 -14.25 -16.15 -12.4 -16.0 -11.9 -16.15 -10.25 -15.75 -7.9 -15.65 -6.5 -15.5 -5.75 -15.5 -5.15 -17.4 -5.5 -17.9 -5.5 -19.0 -6.0 -19.0 -6.25 -19.5 -11.4 -19.5 -12.75 -19.4 -13.25 -17.0 -18.25 -16.15 -18.0 -15.25 -18.0 M-22.0 -9.9 L-21.9 -8.75 -22.0 -10.25 -22.0 -9.9 M-22.0 -15.75 L-22.15 -15.75 -22.15 -11.9 -21.9 -11.4 -22.0 -15.75 M-22.25 -22.75 L-22.15 -22.75 -22.0 -22.65 -21.75 -21.65 -22.0 -20.65 -21.75 -19.75 -21.75 -21.65 -21.75 -22.4 -21.65 -22.25 -21.4 -22.0 -21.4 -18.15 -21.65 -17.75 -21.5 -11.9 -21.75 -11.75 -21.5 -10.4 -21.5 -7.5 -21.65 -6.75 -21.9 -7.0 -21.9 -7.65 -22.15 -7.65 -22.4 -7.9 -22.5 -7.9 -22.65 -8.25 -22.65 -10.9 -22.75 -10.9 -22.65 -11.5 -22.5 -11.75 -22.65 -18.0 -22.5 -19.25 -22.65 -19.25 -22.5 -19.65 -22.65 -19.75 -22.65 -20.15 -22.5 -20.9 -22.4 -23.0 -22.25 -22.75" fill="#000000" fill-opacity="0.50980395" fill-rule="evenodd" stroke="none"/>
      <path d="M11.0 -24.9 L12.5 -18.75 12.1 -18.25 13.25 -13.75 13.25 -13.5 13.5 -12.65 13.6 -12.4 13.6 -12.25 14.0 -10.5 13.6 -10.5 12.25 -16.9 12.25 -17.15 12.0 -18.0 12.1 -18.25 11.85 -18.5 11.1 -21.9 11.1 -22.0 11.0 -22.5 10.75 -24.75 11.0 -24.9" fill="#151515" fill-rule="evenodd" stroke="none"/>
      <path d="M38.0 -22.65 L38.1 -22.5 38.35 -22.4 38.35 -22.0 38.1 -21.9 37.5 -22.75 37.85 -22.65 38.0 -22.65" fill="#141414" fill-rule="evenodd" stroke="none"/>
      <path d="M36.75 -18.5 L36.75 -18.0 36.5 -17.4 36.1 -17.0 35.85 -17.15 35.6 -19.4 35.6 -19.5 35.5 -19.65 34.75 -25.15 34.6 -25.5 35.0 -25.25 35.75 -24.5 35.85 -24.25 35.85 -24.0 36.0 -22.9 36.35 -21.65 36.6 -19.0 36.75 -18.5 M35.75 -15.75 L34.6 -15.5 34.6 -16.5 34.5 -16.65 34.35 -17.9 34.0 -18.5 34.0 -20.25 33.85 -20.4 33.75 -21.9 33.35 -22.5 33.5 -23.4 33.5 -24.0 33.1 -25.9 32.75 -26.5 32.85 -27.25 33.25 -27.0 34.0 -26.4 34.1 -26.0 34.35 -25.65 35.75 -15.75" fill="#131313" fill-rule="evenodd" stroke="none"/>
      <path d="M40.6 -17.15 L41.1 -11.0 41.0 -11.0 40.6 -16.5 40.6 -17.15 M39.85 -18.65 L39.75 -19.0 39.6 -19.25 39.5 -20.15 40.1 -19.4 40.35 -18.65 40.35 -18.5 39.85 -18.65" fill="#0e0e0e" fill-rule="evenodd" stroke="none"/>
      <path d="M40.6 -17.9 L40.6 -17.15 40.6 -16.5 40.35 -16.5 40.5 -17.15 39.85 -18.65 40.35 -18.5 40.35 -18.4 40.5 -18.0 40.6 -18.0 40.6 -17.9 M41.1 -11.0 L41.5 -10.75 41.6 -10.5 41.1 -10.25 41.0 -11.0 41.1 -11.0" fill="#0d0d0d" fill-opacity="0.50980395" fill-rule="evenodd" stroke="none"/>
      <path d="M40.6 -17.9 L41.25 -17.0 41.5 -10.75 41.1 -11.0 40.6 -17.15 40.6 -17.9" fill="#0f0f0f" fill-rule="evenodd" stroke="none"/>
    </g>
  </defs>
</svg>
