<?xml version="1.0" encoding="UTF-8" standalone="no"?>
<svg xmlns:xlink="http://www.w3.org/1999/xlink" height="1034.2px" width="773.35px" xmlns="http://www.w3.org/2000/svg">
  <g transform="matrix(1.0, 0.0, 0.0, 1.0, 365.9, 551.4)">
    <use height="94.1" transform="matrix(1.0, 0.0, 0.0, 1.0, -167.15, -80.5)" width="309.75" xlink:href="#shape0"/>
  </g>
  <defs>
    <g id="shape0" transform="matrix(1.0, 0.0, 0.0, 1.0, 167.15, 80.5)">
      <path d="M-6.25 -79.9 L-5.5 -80.5 -4.25 -79.5 -5.15 -79.15 -6.25 -79.9" fill="#3e3e3e" fill-rule="evenodd" stroke="none"/>
      <path d="M66.25 -70.5 L65.85 -70.5 24.5 -66.5 15.75 -65.65 15.25 -65.4 13.5 -65.5 13.0 -65.4 12.6 -65.25 12.5 -65.25 10.5 -65.15 6.25 -64.9 5.85 -64.75 5.5 -64.75 5.35 -64.75 5.25 -65.15 5.25 -66.0 5.35 -66.4 10.35 -66.9 10.75 -66.9 13.6 -67.25 90.0 -75.4 90.0 -73.25 96.1 -73.65 66.25 -70.5 M20.35 -65.75 L20.35 -65.65 19.6 -65.65 19.85 -65.75 20.35 -65.75 M17.0 -65.5 L16.75 -65.4 16.25 -65.4 16.35 -65.5 17.0 -65.5 M-23.65 -54.5 L-23.65 -54.25 -25.25 -52.25 -25.25 -52.15 -26.65 -50.4 -26.9 -50.15 -27.15 -49.75 -27.25 -49.5 -33.0 -41.75 -33.75 -41.4 -33.9 -41.25 -34.15 -41.15 -35.15 -42.0 -25.15 -55.0 -23.65 -54.5 M-25.15 -55.15 L-25.4 -55.15 -26.5 -55.9 -23.9 -59.25 -22.75 -58.5 -20.75 -59.75 -20.65 -59.25 -21.75 -57.5 -25.15 -55.15 M-20.0 -62.15 L-48.9 -59.4 -49.25 -60.65 -47.75 -60.9 -46.75 -60.9 -46.25 -61.0 -46.0 -61.0 -45.0 -61.15 -42.5 -61.25 -41.5 -61.4 -38.75 -61.5 -37.9 -61.65 -35.25 -61.75 -34.4 -61.9 -31.75 -62.0 -30.9 -62.15 -28.25 -62.25 -27.25 -62.4 -24.75 -62.5 -23.75 -62.65 -21.15 -62.75 -20.4 -62.9 -17.65 -63.0 -16.75 -63.15 -14.0 -63.25 -13.9 -63.4 -12.25 -63.4 -10.5 -63.5 -9.65 -63.65 -7.0 -63.75 -6.15 -63.9 -5.25 -63.9 -5.5 -63.65 -5.4 -63.65 -5.25 -63.5 -8.25 -63.25 -9.9 -63.0 -10.25 -63.15 -12.65 -62.9 -14.0 -62.65 -20.0 -62.15 M-166.15 -52.5 L-167.0 -52.5 -167.15 -54.15 -166.25 -54.25 -166.15 -52.5 M-16.9 -65.9 L-6.25 -79.9 -5.15 -79.15 -4.25 -79.5 -14.5 -66.4 -14.9 -65.75 -15.25 -65.4 -15.4 -65.15 -16.0 -64.75 -15.9 -65.0 -16.9 -65.9 M15.0 -65.25 L14.5 -65.25 14.6 -65.4 14.85 -65.4 15.0 -65.25 M-13.65 -46.5 Q-22.9 -48.0 -24.15 -42.15 -25.25 -34.9 -17.9 -32.75 L-18.4 -32.15 Q-26.25 -34.5 -24.65 -42.5 -22.5 -49.9 -13.0 -47.25 L-13.5 -46.9 -13.65 -46.5" fill="#000000" fill-rule="evenodd" stroke="none"/>
      <path d="M-16.25 -52.65 L-16.5 -52.65 -23.65 -54.5 -25.15 -55.0 -25.15 -55.15 -21.75 -57.5 -20.65 -59.25 -20.0 -59.9 -20.65 -60.0 -20.75 -60.15 -21.0 -60.25 -21.4 -60.65 -20.0 -62.15 -14.0 -62.65 Q-12.25 -60.65 -12.65 -57.25 L-14.75 -54.75 -15.25 -53.9 -16.25 -52.65 M-17.9 -64.65 L-16.9 -65.9 -15.9 -65.0 -16.0 -64.75 -15.4 -65.15 -15.25 -64.9 -16.0 -64.75 -17.9 -64.65" fill="#292929" fill-rule="evenodd" stroke="none"/>
      <path d="M24.5 -66.5 L24.5 -66.0 22.35 -65.9 21.5 -65.75 20.35 -65.75 19.85 -65.75 19.6 -65.65 18.85 -65.65 18.0 -65.5 17.0 -65.5 16.35 -65.5 16.25 -65.4 15.85 -65.4 15.75 -65.65 24.5 -66.5 M-47.75 -60.9 L-48.65 -60.9 -49.65 -60.75 -52.15 -60.65 -53.15 -60.5 -55.65 -60.4 -56.65 -60.25 -57.5 -60.25 -60.25 -60.0 -62.75 -59.9 -63.75 -59.75 -66.25 -59.65 -67.4 -59.5 -70.0 -59.4 -70.9 -59.25 -73.5 -59.15 -74.4 -59.0 -77.15 -58.9 -78.0 -58.75 -80.65 -58.65 -81.5 -58.5 -84.15 -58.4 -85.15 -58.25 -87.65 -58.15 -88.65 -58.0 -91.15 -57.9 -92.15 -57.75 -94.75 -57.65 -95.75 -57.5 -98.25 -57.4 -99.25 -57.25 -101.75 -57.15 -102.75 -57.0 -105.4 -56.9 -106.25 -56.75 -108.9 -56.65 -110.0 -56.5 -112.4 -56.4 -113.5 -56.25 -116.0 -56.15 -117.0 -56.0 -123.15 -55.65 -124.15 -55.5 -126.65 -55.4 -127.75 -55.25 -128.4 -55.25 -131.25 -55.0 -133.9 -54.9 -134.75 -54.75 -137.4 -54.65 -138.4 -54.5 -139.15 -54.5 -141.9 -54.25 -144.5 -54.15 -145.5 -54.0 -148.0 -53.9 -149.0 -53.75 -151.5 -53.65 -152.5 -53.5 -155.0 -53.4 -156.0 -53.25 -158.4 -53.15 -159.4 -53.0 -160.15 -53.0 -161.0 -52.9 -161.75 -52.9 -162.75 -52.75 -165.25 -52.65 -166.15 -52.5 -166.25 -54.25 -17.9 -64.65 -16.0 -64.75 -15.25 -64.9 -13.75 -64.9 -5.5 -65.5 -3.15 -65.65 -1.75 -65.75 -2.0 -65.4 -1.0 -65.15 -0.4 -64.5 -3.25 -64.15 -5.25 -63.9 -6.15 -63.9 -7.0 -63.75 -9.65 -63.65 -10.5 -63.5 -12.25 -63.4 -13.9 -63.4 -14.0 -63.25 -16.75 -63.15 -17.65 -63.0 -20.4 -62.9 -21.15 -62.75 -23.75 -62.65 -24.75 -62.5 -27.25 -62.4 -28.25 -62.25 -30.9 -62.15 -31.75 -62.0 -34.4 -61.9 -35.25 -61.75 -37.9 -61.65 -38.75 -61.5 -41.5 -61.4 -42.5 -61.25 -45.0 -61.15 -46.0 -61.0 -46.25 -61.0 -46.75 -60.9 -47.75 -60.9 M15.0 -65.25 L14.85 -65.4 14.6 -65.4 14.5 -65.25 13.6 -65.25 12.6 -65.25 13.0 -65.4 13.5 -65.5 15.25 -65.4 15.0 -65.25 M-7.9 -28.15 L-8.9 -26.5 -10.5 -24.5 -10.25 -25.5 -7.9 -28.15" fill="#111111" fill-rule="evenodd" stroke="none"/>
      <path d="M16.85 -50.65 L19.85 -51.5 21.75 -51.65 28.0 -50.9 29.1 -50.0 25.85 -50.15 Q25.5 -51.25 20.85 -51.15 L18.25 -50.25 16.85 -50.25 16.85 -50.65 M-14.9 -65.75 L-13.75 -64.9 -15.25 -64.9 -15.4 -65.15 -15.25 -65.4 -14.9 -65.75" fill="#323232" fill-rule="evenodd" stroke="none"/>
      <path d="M66.25 -70.5 L141.1 -75.75 142.5 -75.75 142.6 -74.4 141.6 -74.25 140.35 -74.25 140.0 -74.15 139.0 -74.15 138.35 -74.0 137.25 -74.0 136.75 -73.9 135.6 -73.9 135.0 -73.75 133.85 -73.75 133.25 -73.65 132.25 -73.65 131.5 -73.5 128.75 -73.4 127.85 -73.25 125.25 -73.15 124.35 -73.0 121.75 -72.9 121.0 -72.75 118.1 -72.65 117.25 -72.5 114.6 -72.4 113.75 -72.25 111.1 -72.15 110.1 -72.0 107.5 -71.9 106.6 -71.75 104.0 -71.65 103.1 -71.5 100.35 -71.4 99.5 -71.25 96.85 -71.15 96.0 -71.0 93.35 -70.9 92.35 -70.75 89.75 -70.65 88.85 -70.5 86.25 -70.4 85.5 -70.25 82.75 -70.15 81.75 -70.0 79.1 -69.9 78.25 -69.75 75.6 -69.65 74.75 -69.5 72.0 -69.4 71.25 -69.25 70.25 -69.25 69.5 -69.15 68.5 -69.15 67.75 -69.0 65.0 -68.9 64.0 -68.75 61.35 -68.65 60.5 -68.5 57.85 -68.4 56.85 -68.25 54.25 -68.15 53.35 -68.0 50.75 -67.9 49.85 -67.75 49.0 -67.75 46.25 -67.5 43.6 -67.4 42.75 -67.25 40.1 -67.15 39.1 -67.0 33.0 -66.65 32.1 -66.5 29.5 -66.4 28.6 -66.25 25.85 -66.15 25.0 -66.0 24.5 -66.0 24.5 -66.5 65.85 -70.5 66.25 -70.5 M-5.9 -15.0 L-6.5 -15.0 -6.65 -15.4 -5.9 -15.0" fill="#1e1e1e" fill-rule="evenodd" stroke="none"/>
      <path d="M90.0 -75.4 L97.0 -75.9 97.1 -73.75 96.1 -73.65 90.0 -73.25 90.0 -75.4 M46.75 4.75 L47.6 1.6 48.1 3.0 48.1 7.1 46.85 6.5 46.75 4.75" fill="#121212" fill-rule="evenodd" stroke="none"/>
      <path d="M6.75 -70.0 L10.25 -69.4 12.35 -69.4 13.0 -69.0 13.6 -67.25 10.75 -66.9 9.6 -68.75 7.6 -69.25 6.75 -70.0 M8.85 -62.5 L8.6 -63.25 9.5 -63.5 10.5 -65.15 12.5 -65.25 12.6 -65.25 13.6 -65.25 13.35 -64.0 12.75 -63.4 10.35 -63.15 8.85 -62.5" fill="#464646" fill-rule="evenodd" stroke="none"/>
      <path d="M1.35 -70.0 L1.5 -71.25 2.0 -72.25 3.85 -73.25 6.0 -72.65 6.6 -71.9 6.75 -70.0 4.6 -70.25 2.6 -70.0 1.35 -70.0 M-12.65 -62.9 L-10.25 -63.15 -9.9 -63.0 Q-11.9 -61.15 -9.0 -57.0 L-7.75 -48.9 -10.75 -48.65 -10.65 -49.75 -12.65 -62.9" fill="#4e4e4e" fill-rule="evenodd" stroke="none"/>
      <path d="M-4.5 -68.25 L-2.25 -68.65 1.35 -70.0 2.6 -70.0 Q1.6 -67.15 2.0 -65.4 L2.6 -62.75 0.85 -61.75 0.1 -61.75 -1.9 -62.25 -4.15 -62.25 -3.4 -62.9 -3.25 -64.15 -0.4 -64.5 -1.0 -65.15 -2.0 -65.4 -1.75 -65.75 -3.15 -65.65 -3.65 -67.65 -4.5 -68.25" fill="#202020" fill-rule="evenodd" stroke="none"/>
      <path d="M46.6 -20.9 L47.0 -14.25 47.6 -13.4 47.0 -13.15 46.5 -19.75 46.25 -21.0 46.6 -20.9 M-5.5 -65.5 L-5.4 -67.15 -5.15 -67.9 -4.5 -68.25 -3.65 -67.65 -3.15 -65.65 -5.5 -65.5 M-5.25 -63.5 L-5.4 -63.65 -5.5 -63.65 -5.25 -63.9 -3.25 -64.15 -3.4 -62.9 -4.15 -62.25 -4.15 -63.15 -4.75 -62.9 -5.25 -63.5 M21.85 -49.5 L18.25 -50.25 20.85 -51.15 Q25.5 -51.25 25.85 -50.15 L23.85 -50.15 21.85 -49.5 M39.35 -18.4 L37.35 -31.15 Q37.2 -31.25 37.0 -31.4 L36.35 -32.15 37.25 -32.5 37.35 -32.25 38.6 -30.9 38.0 -31.0 39.85 -18.5 39.35 -18.4 M32.25 -30.5 L34.35 -16.9 26.1 -14.15 18.85 -13.5 14.25 -27.75 13.75 -28.4 13.6 -28.9 15.5 -29.0 32.25 -30.5 M39.75 -29.65 L39.85 -29.4 40.1 -29.15 41.0 -21.9 41.6 -19.5 41.5 -18.9 41.0 -18.9 39.25 -30.0 39.75 -29.65 M41.35 -28.0 L41.6 -27.75 42.25 -26.9 42.5 -26.75 43.25 -26.15 43.75 -25.0 42.25 -21.15 41.1 -28.15 41.35 -28.0 M12.0 -28.75 L12.35 -28.5 12.25 -28.5 12.0 -28.75 M-1.4 -8.25 L-1.4 -4.25 0.0 1.35 12.5 1.0 11.85 6.25 22.1 5.5 22.75 5.5 22.5 6.75 21.85 6.75 22.35 6.85 22.25 7.25 21.5 7.35 22.25 7.75 21.25 7.85 21.25 8.35 21.85 8.35 21.1 8.5 21.85 8.75 21.1 8.85 21.0 9.1 21.5 9.25 20.85 9.25 21.35 9.5 20.75 9.5 19.75 10.75 18.5 10.85 10.25 11.6 -10.65 12.25 -11.65 -0.75 -11.65 -0.9 -10.25 -2.15 -1.4 -8.25 M-6.5 -28.65 L-7.5 -28.65 -7.4 -28.9 -6.5 -28.65 M-19.0 -9.75 L-19.4 -10.4 -19.0 -13.5 -19.25 -22.65 -18.9 -25.65 -18.5 -23.75 -18.5 -23.0 -18.9 -21.15 -18.65 -18.75 -18.65 -13.65 -19.0 -13.15 -19.0 -9.75 M-19.65 -26.4 L-19.25 -24.15 -19.65 -22.65 -19.7 -21.15 -19.65 -26.4 M-6.5 -25.25 L-6.15 -26.0 -4.15 -26.15 -4.65 -25.5 -6.0 -25.25 -6.5 -25.25" fill="#020202" fill-rule="evenodd" stroke="none"/>
      <path d="M2.6 -62.75 L2.0 -65.4 Q1.6 -67.15 2.6 -70.0 L4.6 -70.25 6.75 -70.0 7.6 -69.25 Q4.5 -68.4 5.25 -66.0 L5.25 -65.15 5.35 -64.75 5.5 -64.75 5.75 -64.0 6.75 -63.4 8.25 -63.25 7.5 -62.5 6.25 -62.15 2.6 -62.75" fill="#161616" fill-rule="evenodd" stroke="none"/>
      <path d="M8.6 -63.25 L8.25 -63.25 6.75 -63.4 5.75 -64.0 5.5 -64.75 5.85 -64.75 6.25 -64.9 10.5 -65.15 9.5 -63.5 8.6 -63.25 M7.6 -69.25 L9.6 -68.75 10.75 -66.9 10.35 -66.9 5.35 -66.4 5.25 -66.0 Q4.5 -68.4 7.6 -69.25 M42.25 -2.25 Q41.5 -5.9 42.1 -7.75 L40.75 -11.15 47.25 -7.15 47.75 -6.15 Q47.25 -3.65 48.25 -1.75 L47.75 1.25 47.6 1.6 46.75 4.75 Q45.75 5.0 42.75 1.35 L42.25 -2.25" fill="#3a3a3a" fill-rule="evenodd" stroke="none"/>
      <path d="M15.85 -65.4 L16.85 -50.65 16.85 -50.25 16.85 -49.4 16.5 -49.4 16.25 -50.4 15.25 -65.4 15.75 -65.65 15.85 -65.4 M-16.0 10.5 L-18.4 7.6 -18.5 2.85 -18.9 1.35 -19.9 -10.65 -19.4 -10.4 -19.0 -9.75 -18.65 -9.5 -18.25 -9.0 -18.25 -14.75 -18.15 -15.25 -18.0 -25.15 -18.5 -25.4 -18.9 -25.65 -19.65 -26.4 -19.65 -26.9 -19.5 -27.15 -14.9 -31.75 -12.15 -30.5 -17.25 -25.0 -17.4 -23.65 -17.65 -8.25 -17.25 -7.25 -16.9 0.75 -15.9 8.35 -16.0 10.5 M13.35 -64.0 L14.25 -50.4 14.35 -50.15 13.85 -50.4 12.75 -63.4 13.35 -64.0 M30.0 -44.65 L30.35 -44.5 30.75 -44.4 31.25 -43.9 31.5 -43.15 31.6 -42.65 31.35 -41.75 31.1 -41.4 30.5 -40.9 29.6 -40.75 29.1 -40.75 28.75 -40.9 28.5 -41.0 28.25 -41.15 27.6 -43.25 27.6 -43.5 28.1 -44.15 28.75 -44.5 29.5 -44.65 30.0 -44.65" fill="#171717" fill-rule="evenodd" stroke="none"/>
      <path d="M6.25 -49.25 L10.0 -49.75 9.85 -50.25 13.85 -50.4 14.35 -50.15 14.25 -50.4 16.25 -50.4 16.5 -49.4 16.85 -49.4 16.85 -50.25 18.25 -50.25 21.85 -49.5 23.35 -49.0 24.25 -48.4 16.0 -49.0 7.25 -48.9 6.25 -49.25 M-10.5 -24.5 L-8.9 -26.5 -8.4 -22.9 -8.75 -22.75 -10.25 -19.65 -11.5 -21.15 -11.9 -20.9 -12.65 -15.0 -12.75 -14.0 -13.4 -13.4 -14.5 -15.65 -14.15 -17.9 -14.0 -18.25 -13.75 -19.25 -13.5 -19.75 -12.75 -21.25 -11.65 -21.25 -10.5 -24.5" fill="#565656" fill-rule="evenodd" stroke="none"/>
      <path d="M-9.9 -63.0 L-8.25 -63.25 Q-5.65 -57.9 -9.0 -57.0 -11.9 -61.15 -9.9 -63.0" fill="#1a1a1a" fill-rule="evenodd" stroke="none"/>
      <path d="M-14.65 -48.4 L-14.9 -51.15 -14.9 -51.25 -15.0 -52.15 -15.0 -52.25 -15.5 -53.4 -15.25 -53.9 -14.75 -54.75 -12.65 -57.25 Q-12.25 -60.65 -14.0 -62.65 L-12.65 -62.9 -10.65 -49.75 -10.75 -48.65 -12.0 -48.0 -14.65 -48.4 M-2.75 -25.15 L-3.15 -25.75 -3.15 -25.9 -4.25 -28.4 -0.65 -27.75 1.6 -27.9 -1.4 -25.4 -2.75 -25.15 M-6.4 -28.65 L-6.5 -28.65 -6.0 -28.75 -6.4 -28.65" fill="#090909" fill-rule="evenodd" stroke="none"/>
      <path d="M-4.75 -62.9 L-4.15 -63.15 -4.15 -62.25 -3.15 -49.25 -3.0 -48.15 -3.4 -47.75 -3.65 -49.25 -4.75 -62.9 M-5.5 -49.15 L-6.5 -62.5 -6.0 -62.5 -5.0 -49.15 -5.0 -48.65 -5.5 -48.65 -5.5 -49.15 M0.1 -61.75 L0.85 -61.75 2.6 -62.75 6.25 -62.15 7.5 -62.5 8.25 -63.25 8.6 -63.25 8.85 -62.5 9.85 -50.25 10.0 -49.75 6.25 -49.25 0.85 -49.15 0.75 -49.65 0.1 -61.75" fill="#181818" fill-rule="evenodd" stroke="none"/>
      <path d="M37.1 -34.5 L43.6 -29.75 46.6 -20.9 46.25 -21.0 44.5 -25.75 43.75 -25.0 43.25 -26.15 44.35 -26.0 41.5 -30.0 37.35 -32.25 37.25 -32.5 38.25 -33.0 37.1 -34.5 M-10.75 -48.65 L-7.75 -48.9 -5.5 -49.15 -5.5 -48.65 -5.0 -48.65 -5.0 -49.15 -3.65 -49.25 -3.4 -47.75 -3.0 -48.15 -3.15 -49.25 -3.0 -49.25 0.75 -49.65 0.85 -49.15 6.25 -49.25 7.25 -48.9 -2.25 -47.5 -9.4 -45.9 -12.5 -46.65 -13.5 -46.9 -13.0 -47.25 -12.0 -48.0 -10.75 -48.65 M40.1 -29.15 L39.85 -29.4 39.75 -29.65 40.1 -29.15 M41.0 -28.4 L41.35 -28.0 41.1 -28.15 41.0 -28.4 M41.6 -27.75 L42.5 -26.75 42.25 -26.9 41.6 -27.75" fill="#535353" fill-rule="evenodd" stroke="none"/>
      <path d="M-23.9 -59.25 L-22.0 -60.75 -21.4 -60.65 -21.0 -60.25 -20.75 -60.15 -20.65 -60.0 -20.75 -59.75 -22.75 -58.5 -23.9 -59.25 M-12.65 -12.25 L-12.25 -7.9 -14.4 -8.15 -15.4 -8.65 -15.65 -9.5 -15.65 -9.75 -15.75 -10.15 -16.0 -11.9 -15.9 -12.15 -14.5 -15.65 -13.4 -13.4 -12.65 -12.25 M-13.4 -21.4 L-12.75 -21.25 -13.5 -19.75 -13.4 -21.4" fill="#313131" fill-rule="evenodd" stroke="none"/>
      <path d="M-20.75 -59.75 L-20.65 -60.0 -20.0 -59.9 -20.65 -59.25 -20.75 -59.75" fill="#353535" fill-rule="evenodd" stroke="none"/>
      <path d="M-15.5 -53.4 L-16.25 -52.65 -15.25 -53.9 -15.5 -53.4 M26.25 -48.4 L28.6 -49.0 30.85 -48.65 32.85 -47.4 34.25 -45.5 34.6 -45.25 35.0 -43.25 34.6 -40.9 31.35 -41.75 31.6 -42.65 31.5 -43.15 31.25 -43.9 30.75 -44.4 30.35 -44.5 30.0 -44.65 29.6 -44.75 29.35 -44.75 28.6 -44.9 28.35 -44.9 28.35 -45.0 27.75 -44.9 27.35 -44.9 27.35 -45.75 27.1 -47.4 26.5 -47.5 26.25 -48.4 M-18.15 -44.9 L-15.9 -45.5 -13.65 -45.25 -12.25 -44.5 -14.0 -44.4 -14.65 -44.25 -15.25 -41.5 -15.65 -41.5 -16.0 -41.5 -16.75 -41.4 -16.9 -41.65 -17.75 -43.5 -18.15 -44.9" fill="#080808" fill-rule="evenodd" stroke="none"/>
      <path d="M-21.5 -28.35 Q-22.6 -28.45 -26.0 -30.65 L-29.5 -34.75 Q-32.75 -45.5 -27.5 -45.65 L-26.5 -46.25 -18.25 -48.65 -14.65 -48.4 -12.0 -48.0 -13.0 -47.25 Q-22.5 -49.9 -24.65 -42.5 -26.25 -34.5 -18.4 -32.15 L-21.25 -28.4 -21.5 -28.35 M12.5 1.0 L12.85 1.0 21.85 0.35 22.25 0.35 22.5 0.25 22.6 0.75 22.0 0.75 21.85 1.1 22.6 1.35 21.85 1.35 22.6 1.75 22.75 4.5 22.1 4.6 22.75 4.6 22.75 5.25 22.1 5.5 32.6 4.5 31.35 -0.65 42.25 -2.25 42.75 1.35 Q45.75 5.0 46.75 4.75 L46.85 6.5 48.1 7.1 31.85 9.6 19.75 10.75 20.75 9.5 21.35 9.5 20.85 9.25 21.5 9.25 21.0 9.1 21.1 8.85 21.85 8.75 21.1 8.5 21.85 8.35 21.25 8.35 21.25 7.85 22.25 7.75 21.5 7.35 22.25 7.25 22.35 6.85 21.85 6.75 22.5 6.75 22.75 5.5 22.1 5.5 11.85 6.25 12.5 1.0 M-16.75 -41.4 L-16.0 -41.5 -15.65 -41.5 -15.25 -41.4 -15.0 -41.25 -15.65 -41.15 -16.0 -41.0 -16.15 -41.0 -16.4 -40.75 -16.65 -40.65 -16.65 -40.5 -16.9 -40.25 -17.15 -39.9 -17.15 -39.5 -17.25 -39.15 -17.25 -39.0 -16.9 -38.15 -16.65 -37.9 -16.5 -37.5 -17.15 -37.9 -17.25 -37.9 -17.65 -38.5 -17.75 -38.5 -18.15 -39.4 -17.9 -40.25 -17.5 -40.9 -16.75 -41.4 M-10.25 -25.5 L-10.5 -24.5 -11.65 -21.25 -12.75 -21.25 -10.9 -24.65 -10.4 -25.4 -10.25 -25.5" fill="#060606" fill-rule="evenodd" stroke="none"/>
      <path d="M-20.9 -1.15 L-22.75 -12.25 -22.75 -24.0 -22.65 -24.25 -22.65 -26.5 -22.15 -27.15 -21.25 -28.4 -18.4 -32.15 -17.9 -32.75 -15.25 -32.5 -17.15 -32.25 -19.5 -27.15 -19.65 -26.9 -19.65 -26.4 -18.9 -25.65 -18.5 -25.4 -18.5 -23.75 -18.9 -25.65 -19.25 -22.65 -19.0 -13.5 -19.4 -10.4 -19.9 -10.65 -18.9 1.35 -20.9 -1.15 M12.25 -28.15 L12.35 -28.5 12.85 -28.75 13.85 -17.9 14.5 -17.9 14.6 -17.5 14.0 -17.65 14.0 -16.65 14.35 -13.25 9.75 -13.15 11.25 -22.5 11.25 -22.65 12.25 -28.15 M13.25 -28.9 L13.6 -28.9 13.75 -28.4 13.35 -28.0 13.25 -28.9 M13.75 -27.65 L13.75 -26.65 13.35 -26.75 13.35 -27.75 13.75 -27.65 M13.6 -24.9 L14.0 -24.75 14.0 -24.0 13.6 -24.15 13.6 -24.9 M13.5 -25.5 L13.5 -26.4 13.85 -26.25 13.85 -25.4 13.5 -25.5 M14.1 -23.4 L14.1 -22.75 13.75 -22.9 13.75 -23.5 14.1 -23.4 M14.35 -20.5 L14.35 -20.0 14.0 -20.15 14.0 -20.65 14.35 -20.5 M14.25 -21.4 L13.85 -21.5 13.85 -22.15 14.25 -22.0 14.25 -21.4 M-18.65 -9.5 L-19.0 -9.75 -19.0 -13.15 -18.65 -13.65 -18.4 -13.15 -18.65 -9.5 M-18.5 -23.0 L-18.25 -22.9 -18.65 -18.75 -18.9 -21.15 -18.5 -23.0 M-19.7 -21.15 L-19.65 -22.65 -19.25 -24.15 -19.65 -26.4 -19.7 -21.15 -19.7 -19.65 -19.9 -10.65 -19.7 -19.65 -19.7 -21.15 M-13.4 -21.4 L-13.5 -19.75 -13.75 -19.25 -14.0 -18.25 -14.15 -17.9 -14.5 -15.65 -15.9 -12.15 -16.4 -15.75 Q-14.4 -21.25 -13.4 -21.4 M-15.4 -8.65 L-15.9 -8.65 -15.65 -9.5 -15.4 -8.65" fill="#282828" fill-rule="evenodd" stroke="none"/>
      <path d="M-12.25 -44.5 L-13.65 -45.25 -15.9 -45.5 -18.15 -44.9 -20.15 -43.4 -20.5 -43.25 -21.4 -41.25 -21.65 -38.9 -21.0 -36.5 -19.5 -34.65 -17.4 -33.5 -14.9 -33.25 -13.65 -33.5 -13.9 -32.75 -14.4 -32.5 -15.25 -32.5 -17.9 -32.75 Q-25.25 -34.9 -24.15 -42.15 -22.9 -48.0 -13.65 -46.5 L-13.25 -46.4 -13.15 -46.25 -11.65 -45.5 -12.25 -44.5 M-15.65 -41.5 L-15.25 -41.5 -15.25 -41.4 -15.65 -41.5" fill="#252525" fill-rule="evenodd" stroke="none"/>
      <path d="M-13.25 -46.4 L-13.65 -46.5 -13.5 -46.9 -12.5 -46.65 -13.25 -46.4 M22.5 0.25 L22.25 0.35 21.75 -2.9 31.35 -0.65 22.5 0.25" fill="#1f1f1f" fill-rule="evenodd" stroke="none"/>
      <path d="M29.1 -50.0 Q34.1 -50.15 35.6 -43.9 36.0 -37.75 29.35 -36.0 L29.25 -36.65 31.6 -37.4 33.5 -38.9 34.6 -40.9 35.0 -43.25 34.6 -45.25 34.25 -45.5 32.85 -47.4 30.85 -48.65 28.6 -49.0 26.25 -48.4 25.0 -47.4 24.25 -48.4 24.1 -48.9 23.35 -49.0 21.85 -49.5 23.85 -50.15 25.85 -50.15 29.1 -50.0" fill="#595959" fill-rule="evenodd" stroke="none"/>
      <path d="M29.35 -36.0 L30.75 -36.15 31.25 -35.65 29.5 -35.65 29.35 -36.0 M14.1 -31.65 L14.6 -31.65 15.5 -29.0 13.6 -28.9 13.25 -28.9 12.85 -28.75 12.35 -28.5 12.0 -28.75 1.6 -27.9 -0.65 -27.75 -4.25 -28.4 -5.25 -28.5 -6.0 -28.75 -6.5 -28.65 -7.4 -28.9 -10.0 -29.25 -12.15 -30.5 5.1 -31.5 7.75 -31.15 14.1 -31.65" fill="#4c4c4c" fill-rule="evenodd" stroke="none"/>
      <path d="M31.25 -35.65 L35.1 -34.65 37.1 -34.5 20.75 -32.75 17.5 -32.65 27.0 -33.5 28.75 -34.75 29.35 -34.75 29.5 -35.65 31.25 -35.65 M7.75 -31.9 L5.1 -31.5 -12.15 -30.5 -14.9 -31.75 -14.65 -31.9 -14.25 -32.0 -12.9 -32.25 -12.0 -32.4 -5.9 -32.0 -2.5 -31.25 7.75 -31.9 M21.1 -7.4 L20.6 -7.4 20.5 -8.0 20.85 -8.15 20.5 -8.25 20.25 -8.65 20.5 -8.9 29.6 -9.65 30.1 -8.15 21.1 -7.4" fill="#393939" fill-rule="evenodd" stroke="none"/>
      <path d="M29.25 -36.65 L29.35 -36.0 29.5 -35.65 29.35 -34.75 28.75 -34.75 27.0 -33.5 17.5 -32.65 16.85 -32.65 16.0 -32.5 14.85 -32.5 14.5 -32.4 13.75 -32.4 10.25 -44.0 9.5 -45.9 7.25 -48.9 16.0 -49.0 24.25 -48.4 25.0 -47.4 27.25 -44.65 27.6 -43.5 27.6 -43.25 28.25 -41.15 28.25 -40.9 28.5 -40.25 29.0 -37.5 29.1 -37.25 29.1 -36.9 29.25 -36.65" fill="#afafaf" fill-rule="evenodd" stroke="none"/>
      <path d="M-45.0 -26.4 L-21.5 -28.35 -21.25 -28.4 -22.15 -27.15 -39.75 -25.75 -41.25 -25.5 -43.4 -25.5 -44.9 -25.9 -45.0 -26.4 M31.6 -37.4 L29.25 -36.65 29.25 -36.9 29.1 -36.9 29.1 -37.25 29.0 -37.5 28.5 -40.25 28.25 -40.9 28.75 -40.9 29.1 -40.75 30.6 -38.5 31.6 -37.4" fill="#2d2d2d" fill-rule="evenodd" stroke="none"/>
      <path d="M33.5 -38.9 L31.6 -37.4 30.6 -38.5 29.1 -40.75 29.6 -40.75 30.5 -40.9 32.75 -39.25 Q33.15 -39.05 33.5 -38.9" fill="#1c1c1c" fill-rule="evenodd" stroke="none"/>
      <path d="M-22.75 -24.0 L-43.0 -22.4 -42.75 -22.9 -43.65 -23.0 -41.75 -23.15 -41.65 -23.15 -22.65 -24.25 -22.75 -24.0 M31.35 -41.75 L34.6 -40.9 33.5 -38.9 Q33.15 -39.05 32.75 -39.25 L30.5 -40.9 31.1 -41.4 31.35 -41.75" fill="#0b0b0b" fill-rule="evenodd" stroke="none"/>
      <path d="M26.25 -48.4 L26.5 -47.5 25.0 -47.4 26.25 -48.4 M-15.0 -41.25 L-14.75 -41.25 Q-11.25 -39.65 -14.9 -37.15 L-15.75 -37.25 -16.5 -37.5 -16.65 -37.9 -16.9 -38.15 -17.25 -39.0 -17.25 -39.15 -17.15 -39.5 -17.15 -39.9 -16.9 -40.25 -16.65 -40.5 -16.5 -40.65 -16.65 -40.65 -16.4 -40.75 -16.15 -41.0 -16.0 -41.0 -15.65 -41.15 -15.0 -41.25" fill="#141414" fill-rule="evenodd" stroke="none"/>
      <path d="M26.5 -47.5 L27.1 -47.4 27.35 -45.75 27.35 -44.9 27.25 -44.65 25.0 -47.4 26.5 -47.5 M24.25 -48.4 L23.35 -49.0 24.1 -48.9 24.25 -48.4" fill="#575757" fill-rule="evenodd" stroke="none"/>
      <path d="M27.35 -44.9 L27.75 -44.9 28.35 -44.9 28.6 -44.9 29.35 -44.75 29.5 -44.65 28.75 -44.5 28.1 -44.15 27.6 -43.5 27.25 -44.65 27.35 -44.9 M28.25 -40.9 L28.25 -41.15 28.5 -41.0 28.75 -40.9 28.25 -40.9 M12.35 -28.5 L12.25 -28.15 12.25 -28.5 12.35 -28.5 M11.25 -22.5 L9.75 -13.15 9.1 -13.25 10.75 -21.5 11.25 -22.5 M12.85 1.0 L21.75 -2.9 22.25 0.35 21.85 0.35 12.85 1.0 M-18.15 -44.9 L-17.75 -43.5 -16.9 -41.65 -16.75 -41.4 -17.5 -40.9 -17.5 -41.0 -19.25 -42.4 -20.15 -43.4 -18.15 -44.9 M-5.5 -28.0 L-4.5 -27.75 -4.25 -26.65 -6.65 -26.65 -7.65 -26.9 -7.0 -27.5 -5.5 -28.0" fill="#151515" fill-rule="evenodd" stroke="none"/>
      <path d="M27.75 -44.9 L28.35 -45.0 28.35 -44.9 27.75 -44.9 M-21.4 -41.25 L-20.5 -43.25 -20.15 -43.4 -19.25 -42.4 -17.5 -41.0 -17.5 -40.9 -17.9 -40.25 -21.4 -41.25" fill="#272727" fill-rule="evenodd" stroke="none"/>
      <path d="M36.35 -32.15 L37.0 -31.4 35.75 -31.9 36.35 -32.15 M-12.5 -46.65 L-9.4 -45.9 -11.9 -40.75 -11.65 -37.75 -12.0 -32.4 -12.9 -32.25 -13.9 -32.25 -14.4 -32.5 -13.9 -32.75 -13.65 -33.5 Q-15.0 -36.5 -14.5 -36.9 L-14.9 -37.15 Q-11.25 -39.65 -14.75 -41.25 L-15.0 -41.25 -15.25 -41.4 -15.25 -41.5 -14.65 -44.25 -14.0 -44.4 -12.25 -44.5 -11.65 -45.5 -13.15 -46.25 -13.25 -46.4 -12.5 -46.65 M-22.15 -27.15 L-22.65 -26.5 -22.65 -24.25 -41.65 -23.15 -41.75 -23.15 -45.75 -23.5 -46.4 -23.65 -46.65 -23.75 -46.75 -24.0 -44.15 -24.9 -41.25 -25.5 -39.75 -25.75 -22.15 -27.15" fill="#191919" fill-rule="evenodd" stroke="none"/>
      <path d="M-21.65 -38.9 L-21.4 -41.25 -17.9 -40.25 -18.15 -39.4 -21.0 -38.9 -21.65 -38.9" fill="#363636" fill-rule="evenodd" stroke="none"/>
      <path d="M-21.0 -36.5 L-21.65 -38.9 -21.0 -38.9 -17.75 -38.5 -20.25 -36.9 -21.0 -36.5" fill="#666666" fill-rule="evenodd" stroke="none"/>
      <path d="M-19.5 -34.65 L-21.0 -36.5 -20.25 -36.9 -17.4 -37.75 -18.9 -35.25 -19.5 -34.65" fill="#a8a8a8" fill-rule="evenodd" stroke="none"/>
      <path d="M-17.25 -37.9 L-17.4 -37.75 -20.25 -36.9 -17.75 -38.5 -17.65 -38.5 -17.25 -37.9" fill="#a9a9a9" fill-rule="evenodd" stroke="none"/>
      <path d="M-17.4 -37.75 L-17.25 -37.9 -17.15 -37.9 -16.5 -37.5 -16.65 -37.4 -18.9 -35.25 -17.4 -37.75" fill="#b8b8b8" fill-rule="evenodd" stroke="none"/>
      <path d="M-16.65 -40.65 L-16.5 -40.65 -16.65 -40.5 -16.65 -40.65" fill="#101010" fill-rule="evenodd" stroke="none"/>
      <path d="M13.75 -32.4 L13.35 -32.4 11.6 -32.25 11.25 -32.15 10.25 -32.15 9.6 -32.0 7.85 -31.9 7.75 -31.9 -2.5 -31.25 -5.9 -32.0 -12.0 -32.4 -11.65 -37.75 -11.9 -40.75 -9.4 -45.9 -2.25 -47.5 7.25 -48.9 9.5 -45.9 10.25 -44.0 13.75 -32.4" fill="#343434" fill-rule="evenodd" stroke="none"/>
      <path d="M37.25 -32.5 L36.35 -32.15 35.75 -31.9 32.25 -30.5 15.5 -29.0 14.6 -31.65 14.1 -31.65 13.25 -32.15 13.35 -32.4 13.75 -32.4 14.5 -32.4 14.85 -32.5 16.0 -32.5 16.85 -32.65 17.5 -32.65 20.75 -32.75 37.1 -34.5 38.25 -33.0 37.25 -32.5" fill="#686868" fill-rule="evenodd" stroke="none"/>
      <path d="M13.35 -32.4 L13.25 -32.15 14.1 -31.65 7.75 -31.15 5.1 -31.5 7.75 -31.9 7.85 -31.9 9.6 -32.0 10.25 -32.15 11.25 -32.15 11.6 -32.25 13.35 -32.4" fill="#646464" fill-rule="evenodd" stroke="none"/>
      <path d="M29.35 -44.75 L29.6 -44.75 30.0 -44.65 29.5 -44.65 29.35 -44.75" fill="#010101" fill-rule="evenodd" stroke="none"/>
      <path d="M-13.65 -33.5 L-14.9 -33.25 -15.15 -35.4 -15.75 -36.9 -15.75 -37.25 -14.9 -37.15 -14.5 -36.9 Q-15.0 -36.5 -13.65 -33.5" fill="#2b2b2b" fill-rule="evenodd" stroke="none"/>
      <path d="M-14.9 -33.25 L-17.4 -33.5 -16.9 -34.75 -16.65 -37.4 -16.5 -37.5 -15.75 -37.25 -15.75 -36.9 -15.15 -35.4 -14.9 -33.25" fill="#737373" fill-rule="evenodd" stroke="none"/>
      <path d="M-17.4 -33.5 L-19.5 -34.65 -18.9 -35.25 -16.65 -37.4 -16.9 -34.75 -17.4 -33.5" fill="#b7b7b7" fill-rule="evenodd" stroke="none"/>
      <path d="M-21.0 -38.9 L-18.15 -39.4 -17.75 -38.5 -21.0 -38.9" fill="#676767" fill-rule="evenodd" stroke="none"/>
      <path d="M29.1 -36.9 L29.25 -36.9 29.25 -36.65 29.1 -36.9" fill="#868686" fill-rule="evenodd" stroke="none"/>
      <path d="M-15.25 -32.5 L-14.4 -32.5 -13.9 -32.25 -14.25 -32.0 -14.65 -31.9 -14.9 -31.75 -19.5 -27.15 -17.15 -32.25 -15.25 -32.5" fill="#383838" fill-rule="evenodd" stroke="none"/>
      <path d="M-12.9 -32.25 L-14.25 -32.0 -13.9 -32.25 -12.9 -32.25" fill="#2c2c2c" fill-rule="evenodd" stroke="none"/>
      <path d="M41.5 -18.9 L41.6 -19.5 42.25 -21.15 43.75 -25.0 44.5 -25.75 46.25 -21.0 46.5 -19.75 41.5 -18.9" fill="#141a13" fill-rule="evenodd" stroke="none"/>
      <path d="M38.6 -30.9 L37.35 -32.25 41.5 -30.0 44.35 -26.0 43.25 -26.15 42.5 -26.75 41.6 -27.75 41.35 -28.0 41.0 -28.4 40.1 -29.15 39.75 -29.65 39.25 -30.0 39.1 -30.4 38.6 -30.9" fill="#696969" fill-rule="evenodd" stroke="none"/>
      <path d="M39.35 -18.4 L39.85 -18.5 41.0 -18.9 41.5 -18.9 38.6 -14.9 39.75 -13.65 39.85 -11.9 40.75 -11.15 42.1 -7.75 Q41.5 -5.9 42.25 -2.25 L31.35 -0.65 21.75 -2.9 Q21.6 -5.9 21.0 -6.0 L21.1 -7.4 30.1 -8.15 29.6 -9.65 20.1 -9.9 20.0 -11.15 19.5 -11.15 19.85 -11.4 19.6 -12.15 18.85 -12.65 19.25 -12.9 18.75 -13.0 18.6 -13.4 18.85 -13.5 26.1 -14.15 34.35 -16.9 39.35 -18.4" fill="#6f6f6f" fill-rule="evenodd" stroke="none"/>
      <path d="M-14.65 13.6 L-16.0 10.5 -15.9 8.35 -16.9 0.75 -17.25 -7.25 -17.65 -8.25 -17.4 -23.65 -17.25 -25.0 -12.15 -30.5 -10.0 -29.25 -7.4 -28.9 -7.5 -28.65 -7.9 -28.15 -10.25 -25.5 -10.4 -25.4 -10.9 -24.65 -12.75 -21.25 -13.4 -21.4 Q-14.4 -21.25 -16.4 -15.75 L-15.9 -12.15 -16.0 -11.9 -15.75 -10.15 -15.65 -9.75 -15.65 -9.5 -15.9 -8.65 -15.4 -8.65 -14.4 -8.15 -12.25 -7.9 -11.65 -0.9 -11.65 -0.75 -10.65 12.25 -12.9 12.6 -14.65 13.6" fill="#050505" fill-rule="evenodd" stroke="none"/>
      <path d="M18.25 11.5 L0.5 13.1 -14.65 13.6 -12.9 12.6 -10.65 12.25 10.25 11.6 18.5 10.85 18.25 11.5 M-8.9 -26.5 L-7.9 -28.15 -7.5 -28.65 -6.5 -28.65 -6.4 -28.65 -5.25 -28.5 -4.25 -28.4 -3.15 -25.9 -3.15 -25.75 -2.75 -25.15 0.5 -20.0 1.6 -17.25 0.75 -14.5 -8.4 -22.9 -8.9 -26.5 M-5.5 -28.0 L-7.0 -27.5 -7.65 -26.9 -6.65 -26.65 -4.25 -26.65 -4.5 -27.75 -5.5 -28.0 M-6.5 -25.25 L-6.0 -25.25 -4.65 -25.5 -4.15 -26.15 -6.15 -26.0 -6.5 -25.25 M-12.25 -7.9 L-1.4 -8.25 -10.25 -2.15 -11.65 -0.9 -12.25 -7.9" fill="#040404" fill-rule="evenodd" stroke="none"/>
      <path d="M-5.25 -28.5 L-6.4 -28.65 -6.0 -28.75 -5.25 -28.5" fill="#585858" fill-rule="evenodd" stroke="none"/>
      <path d="M14.35 -13.25 L14.0 -16.65 14.0 -17.65 14.6 -17.5 14.5 -17.9 13.85 -17.9 12.85 -28.75 13.25 -28.9 13.35 -28.0 13.75 -28.4 14.25 -27.75 18.85 -13.5 14.35 -13.25 M13.75 -27.65 L13.35 -27.75 13.35 -26.75 13.75 -26.65 13.75 -27.65 M14.25 -21.4 L14.25 -22.0 13.85 -22.15 13.85 -21.5 14.25 -21.4 M14.35 -20.5 L14.0 -20.65 14.0 -20.15 14.35 -20.0 14.35 -20.5 M14.1 -23.4 L13.75 -23.5 13.75 -22.9 14.1 -22.75 14.1 -23.4 M13.5 -25.5 L13.85 -25.4 13.85 -26.25 13.5 -26.4 13.5 -25.5 M13.6 -24.9 L13.6 -24.15 14.0 -24.0 14.0 -24.75 13.6 -24.9" fill="#777777" fill-rule="evenodd" stroke="none"/>
      <path d="M12.25 -28.15 L11.25 -22.65 11.25 -22.5 10.75 -21.5 9.1 -13.25 0.85 -14.25 0.75 -14.5 1.6 -17.25 0.5 -20.0 -2.75 -25.15 -1.4 -25.4 1.6 -27.9 12.0 -28.75 12.25 -28.5 12.25 -28.15 M-18.5 -25.4 L-18.0 -25.15 -18.15 -15.25 -18.25 -14.75 -18.25 -9.0 -18.65 -9.5 -18.4 -13.15 -18.65 -13.65 -18.65 -18.75 -18.25 -22.9 -18.5 -23.0 -18.5 -23.75 -18.5 -25.4" fill="#030303" fill-rule="evenodd" stroke="none"/>
      <path d="M-43.0 -22.4 L-43.75 -22.25 -45.5 -22.25 -47.75 -23.4 Q-48.9 -25.4 -45.0 -26.4 L-44.9 -25.9 -43.4 -25.5 -41.25 -25.5 -44.15 -24.9 -46.75 -24.0 -46.65 -23.75 -46.4 -23.65 -45.75 -23.5 -41.75 -23.15 -43.65 -23.0 -42.75 -22.9 -43.0 -22.4 M0.85 -14.25 L-5.9 -15.0 -6.65 -15.4 -7.25 -16.15 -8.4 -22.9 0.75 -14.5 0.85 -14.25" fill="#131313" fill-rule="evenodd" stroke="none"/>
      <path d="M-18.4 7.6 L-20.0 5.5 -20.9 -1.15 -18.9 1.35 -18.5 2.85 -18.4 7.6" fill="#414141" fill-rule="evenodd" stroke="none"/>
      <path d="M-12.75 -14.0 L-12.65 -12.25 -13.4 -13.4 -12.75 -14.0 M-10.25 -19.65 L-8.75 -22.75 -8.4 -22.9 -7.25 -16.15 -10.25 -19.65" fill="#828282" fill-rule="evenodd" stroke="none"/>
      <path d="M-6.65 -15.4 L-6.5 -15.0 -12.65 -15.0 -11.9 -20.9 -11.5 -21.15 -10.25 -19.65 -7.25 -16.15 -6.65 -15.4" fill="#050805" fill-rule="evenodd" stroke="none"/>
      <path d="M-6.5 -15.0 L-2.65 -11.0 -1.4 -8.25 -12.25 -7.9 -12.65 -12.25 -12.75 -14.0 -12.65 -15.0 -6.5 -15.0" fill="#0a0a0a" fill-rule="evenodd" stroke="none"/>
      <path d="M9.75 -13.15 L14.35 -13.25 18.85 -13.5 18.6 -13.4 18.75 -13.0 19.25 -12.9 18.85 -12.65 19.6 -12.15 19.85 -11.4 19.5 -11.15 20.0 -11.15 20.1 -9.9 12.0 -8.25 11.75 -8.25 11.25 -8.15 11.0 -8.0 11.35 -6.65 20.6 -7.4 21.1 -7.4 21.0 -6.0 Q21.6 -5.9 21.75 -2.9 L12.85 1.0 12.5 1.0 0.0 1.35 -1.4 -4.25 -1.4 -8.25 -2.65 -11.0 -6.5 -15.0 -5.9 -15.0 0.85 -14.25 9.1 -13.25 9.75 -13.15" fill="#2a2a2a" fill-rule="evenodd" stroke="none"/>
      <path d="M39.85 -11.9 L39.75 -13.65 38.6 -14.9 41.5 -18.9 46.5 -19.75 47.0 -13.15 46.85 -12.75 39.85 -11.9" fill="#5b5b5b" fill-rule="evenodd" stroke="none"/>
      <path d="M39.85 -11.9 L46.85 -12.75 47.25 -7.15 40.75 -11.15 39.85 -11.9" fill="#5e5e5e" fill-rule="evenodd" stroke="none"/>
      <path d="M47.6 -13.4 L49.0 7.25 48.1 7.1 48.1 3.0 47.6 1.6 47.75 1.25 48.25 -1.75 Q47.25 -3.65 47.75 -6.15 L47.25 -7.15 46.85 -12.75 47.0 -13.15 47.6 -13.4" fill="#242424" fill-rule="evenodd" stroke="none"/>
      <path d="M12.0 -8.25 L20.1 -9.9 20.5 -8.9 12.0 -8.25" fill="#424242" fill-rule="evenodd" stroke="none"/>
      <path d="M20.6 -7.4 L11.35 -6.65 11.0 -8.0 11.25 -8.15 11.75 -8.25 12.0 -8.25 20.5 -8.9 20.25 -8.65 20.5 -8.25 20.85 -8.15 20.5 -8.0 20.6 -7.4" fill="#262626" fill-rule="evenodd" stroke="none"/>
      <path d="M20.5 -8.9 L20.1 -9.9 29.6 -9.65 20.5 -8.9" fill="#525252" fill-rule="evenodd" stroke="none"/>
      <path d="M31.35 -0.65 L32.6 4.5 22.1 5.5 22.75 5.25 22.75 4.6 22.1 4.6 22.75 4.5 22.6 1.75 21.85 1.35 22.6 1.35 21.85 1.1 22.0 0.75 22.6 0.75 22.5 0.25 31.35 -0.65" fill="#0c0c0c" fill-rule="evenodd" stroke="none"/>
      <path d="M49.0 7.25 L48.75 8.25 37.1 9.85 18.25 11.5 18.5 10.85 19.75 10.75 31.85 9.6 48.1 7.1 49.0 7.25" fill="#070707" fill-rule="evenodd" stroke="none"/>
      <path d="M15.5 -29.0 L22.5 -29.5 22.75 -29.5 23.5 -29.65 31.35 -30.25 31.35 -30.4 31.6 -30.15 31.85 -30.5 34.35 -16.9 34.35 -16.75 26.1 -14.15 25.25 -14.15 19.0 -13.5 18.75 -13.5 18.0 -16.9 18.0 -17.25 17.25 -20.15 17.0 -20.4 16.85 -22.25 17.0 -22.5 17.0 -22.75 15.75 -28.65 15.6 -28.75 15.5 -29.0 M35.6 -31.9 L36.25 -32.15 36.85 -32.5 37.35 -32.25 37.5 -32.15 41.5 -29.75 42.5 -28.25 42.75 -28.0 42.75 -27.9 43.5 -26.65 44.1 -25.9 43.75 -26.15 43.25 -26.15 43.6 -25.25 43.85 -25.0 43.75 -24.75 43.75 -24.4 43.6 -24.15 43.5 -23.75 43.1 -23.0 42.75 -22.0 42.6 -22.0 42.6 -21.9 42.25 -20.9 42.0 -22.15 41.75 -24.75 41.35 -26.15 41.25 -27.15 41.1 -27.75 41.1 -28.15 41.0 -28.4 40.25 -29.15 39.85 -29.4 39.75 -29.5 39.85 -28.4 40.25 -26.65 41.0 -21.9 41.1 -20.4 41.5 -19.0 41.5 -18.9 41.0 -18.75 40.35 -22.75 40.25 -24.25 39.75 -26.65 39.25 -30.0 39.1 -30.4 38.6 -30.9 38.0 -31.0 38.1 -28.9 38.5 -27.15 39.25 -21.65 39.75 -19.5 39.75 -18.5 39.75 -18.4 39.35 -18.25 39.25 -19.65 38.6 -23.5 37.85 -28.75 37.35 -31.15 37.1 -31.4 37.0 -31.4 35.6 -31.9" fill="#141414" fill-opacity="0.50980395" fill-rule="evenodd" stroke="none"/>
      <path d="M44.1 -25.9 L44.25 -25.65 43.85 -25.0 43.6 -25.25 43.25 -26.15 43.75 -26.15 44.1 -25.9 M42.25 -20.9 L42.25 -20.65 41.85 -19.65 41.6 -19.25 41.5 -19.0 41.1 -20.4 41.0 -21.9 40.25 -26.65 39.85 -28.4 39.75 -29.5 39.85 -29.4 40.25 -29.15 41.0 -28.4 41.1 -28.15 41.1 -27.75 41.25 -27.15 41.35 -26.15 41.75 -24.75 42.0 -22.15 42.25 -20.9 M41.0 -18.75 L39.75 -18.5 39.75 -19.5 39.25 -21.65 38.5 -27.15 38.1 -28.9 38.0 -31.0 38.6 -30.9 39.1 -30.4 39.25 -30.0 39.75 -26.65 40.25 -24.25 40.35 -22.75 41.0 -18.75" fill="#141414" fill-rule="evenodd" stroke="none"/>
      <path d="M34.35 -16.9 L31.85 -30.5 35.6 -31.9 37.0 -31.4 37.1 -31.4 37.35 -31.15 37.85 -28.75 38.6 -23.5 39.25 -19.65 39.35 -18.25 34.35 -16.9" fill="#282828" fill-opacity="0.50980395" fill-rule="evenodd" stroke="none"/>
      <path d="M15.5 -29.0 L15.6 -28.75 15.75 -28.65 17.0 -22.75 17.0 -22.5 16.85 -22.25 17.0 -20.4 16.5 -21.75 16.6 -22.15 15.1 -29.0 15.5 -29.0 M46.25 -21.65 L47.1 -20.4 47.35 -13.65 47.1 -13.75 47.0 -14.0 46.85 -14.0 46.75 -17.15 46.6 -18.0 46.6 -19.0 46.5 -19.9 46.5 -20.65 46.25 -21.65" fill="#0e0e0e" fill-rule="evenodd" stroke="none"/>
      <path d="M18.35 -13.5 L11.25 -12.9 1.1 -14.15 0.85 -14.15 -6.65 -15.0 -6.9 -15.5 -7.15 -15.75 -11.65 -21.15 -11.75 -21.15 -10.75 -24.15 -10.65 -24.9 -10.4 -25.4 -7.5 -28.65 -7.4 -28.9 -6.5 -28.65 -6.0 -28.75 -5.25 -28.5 -4.25 -28.4 -3.9 -28.25 -0.65 -27.75 5.25 -28.15 12.0 -28.75 12.35 -28.5 13.25 -28.9 14.35 -28.9 15.1 -29.0 16.6 -22.15 16.5 -21.75 17.0 -20.4 17.1 -19.15 17.6 -17.4 17.6 -17.25 17.75 -17.0 17.85 -16.65 18.1 -15.15 18.25 -15.0 18.25 -14.75 18.35 -14.5 18.35 -13.5" fill="#040404" fill-opacity="0.50980395" fill-rule="evenodd" stroke="none"/>
      <path d="M17.0 -20.4 L17.25 -20.15 18.0 -17.25 18.0 -16.9 18.75 -13.5 18.35 -13.5 18.35 -14.5 18.25 -14.75 18.25 -15.0 18.1 -15.15 17.85 -16.65 17.75 -17.0 17.6 -17.25 17.6 -17.4 17.1 -19.15 17.0 -20.4" fill="#161616" fill-rule="evenodd" stroke="none"/>
      <path d="M-18.9 -25.25 L-19.0 -24.15 -18.9 -23.75 -18.9 -25.25 M-18.75 -25.65 L-18.5 -25.4 -18.5 -24.0 -18.75 -23.15 -18.25 -22.9 -18.25 -22.15 -18.4 -21.4 -18.4 -17.65 -18.5 -17.15 -18.65 -15.75 -18.65 -14.9 -18.75 -14.4 -18.65 -14.4 -18.4 -13.25 -18.4 -12.9 -18.5 -12.5 -18.65 -9.5 -19.0 -9.5 -19.0 -9.65 -19.15 -10.0 -19.15 -10.25 -19.4 -10.25 -19.9 -10.5 -19.9 -13.4 -19.75 -14.4 -19.75 -23.15 -19.9 -23.9 -19.65 -25.9 -19.65 -26.4 -18.9 -25.65 -18.75 -25.65 M-19.15 -22.65 L-19.0 -22.15 -18.9 -23.25 -19.25 -22.65 -19.15 -22.65 M-19.25 -11.9 L-19.15 -10.25 -19.25 -11.9 M-11.75 -21.15 L-12.5 -18.15 -12.25 -17.5 -12.65 -14.9 -12.9 -13.9 -12.65 -13.4 -12.5 -10.5 -12.25 -10.0 -12.25 -7.9 -14.75 -8.25 -15.9 -8.65 -16.0 -11.5 -16.15 -12.0 -16.5 -14.65 -16.4 -15.25 -16.4 -16.0 -13.75 -21.5 -12.75 -21.25 -12.25 -21.25 -11.75 -21.15" fill="#000000" fill-opacity="0.50980395" fill-rule="evenodd" stroke="none"/>
      <path d="M46.25 -21.65 L46.5 -20.65 46.5 -19.9 46.6 -19.0 46.25 -19.75 46.5 -19.9 46.35 -20.65 46.5 -20.65 46.25 -21.0 46.25 -21.15 46.1 -21.25 45.75 -21.9 45.25 -23.5 45.6 -23.4 46.25 -21.65 M46.85 -14.0 L47.0 -14.0 47.1 -13.75 46.85 -13.9 46.85 -14.0" fill="#0d0d0d" fill-rule="evenodd" stroke="none"/>
      <path d="M47.1 -13.75 L47.35 -13.65 47.5 -13.4 47.0 -13.15 46.85 -13.9 47.1 -13.75 M46.25 -21.0 L46.5 -20.65 46.35 -20.65 46.25 -21.0" fill="#0d0d0d" fill-opacity="0.50980395" fill-rule="evenodd" stroke="none"/>
    </g>
  </defs>
</svg>
