<?xml version="1.0" encoding="UTF-8" standalone="no"?>
<svg xmlns:xlink="http://www.w3.org/1999/xlink" height="1034.2px" width="773.35px" xmlns="http://www.w3.org/2000/svg">
  <g transform="matrix(1.0, 0.0, 0.0, 1.0, 365.9, 551.4)">
    <use height="94.5" transform="matrix(1.0, 0.0, 0.0, 1.0, -120.4, -80.65)" width="294.9" xlink:href="#shape0"/>
  </g>
  <defs>
    <g id="shape0" transform="matrix(1.0, 0.0, 0.0, 1.0, 120.4, 80.65)">
      <path d="M13.85 -67.4 L172.6 -80.65 174.35 -80.65 174.5 -78.75 161.85 -77.75 161.5 -77.75 160.35 -77.65 160.0 -77.65 158.85 -77.5 158.35 -77.5 157.25 -77.4 156.85 -77.4 155.75 -77.25 155.35 -77.25 154.25 -77.15 153.85 -77.15 152.75 -77.0 152.25 -77.0 151.25 -76.9 150.75 -76.9 148.0 -76.65 147.6 -76.65 146.5 -76.5 146.1 -76.5 145.0 -76.4 144.6 -76.4 141.85 -76.15 141.5 -76.15 140.35 -76.0 140.0 -76.0 138.85 -75.9 138.5 -75.9 135.75 -75.65 135.35 -75.65 134.25 -75.5 133.85 -75.5 132.75 -75.4 132.35 -75.4 131.1 -75.25 130.75 -75.25 129.6 -75.15 129.25 -75.15 128.1 -75.0 127.75 -75.0 125.0 -74.75 124.6 -74.75 123.5 -74.65 123.1 -74.65 122.0 -74.5 121.6 -74.5 120.35 -74.4 120.0 -74.4 118.85 -74.25 118.5 -74.25 117.35 -74.15 117.0 -74.15 112.75 -73.75 112.35 -73.75 111.25 -73.65 110.85 -73.65 109.75 -73.5 106.6 -73.25 106.25 -73.25 105.1 -73.15 104.75 -73.15 103.6 -73.0 103.1 -73.0 102.0 -72.9 101.6 -72.9 100.5 -72.75 100.1 -72.75 99.0 -72.65 98.6 -72.65 97.35 -72.5 97.0 -72.5 95.85 -72.4 95.5 -72.4 94.35 -72.25 94.0 -72.25 92.85 -72.15 92.5 -72.15 91.35 -72.0 90.85 -72.0 89.85 -71.9 89.35 -71.9 88.35 -71.75 87.85 -71.75 86.75 -71.65 86.25 -71.65 85.25 -71.5 84.75 -71.5 83.75 -71.4 83.25 -71.4 82.25 -71.25 81.75 -71.25 79.0 -71.0 78.6 -71.0 77.5 -70.9 77.1 -70.9 74.35 -70.65 74.0 -70.65 72.85 -70.5 72.5 -70.5 71.35 -70.4 71.0 -70.4 69.85 -70.25 69.35 -70.25 68.25 -70.15 67.85 -70.15 66.75 -70.0 66.35 -70.0 65.25 -69.9 64.85 -69.9 63.25 -69.65 63.1 -69.65 62.1 -69.65 61.75 -69.5 60.6 -69.5 60.25 -69.4 58.6 -69.4 57.6 -69.25 57.1 -69.25 56.0 -69.15 55.6 -69.15 54.5 -69.0 54.1 -69.0 53.0 -68.9 52.5 -68.9 51.35 -68.75 51.0 -68.75 49.85 -68.65 49.5 -68.65 48.35 -68.5 47.75 -68.5 46.85 -68.4 46.25 -68.4 45.25 -68.25 44.75 -68.25 43.75 -68.15 43.25 -68.15 42.25 -68.0 41.6 -68.0 40.75 -67.9 40.1 -67.9 39.1 -67.75 38.6 -67.75 37.6 -67.65 37.1 -67.65 36.1 -67.5 35.5 -67.5 34.6 -67.4 34.0 -67.4 33.0 -67.25 32.5 -67.25 31.5 -67.15 31.0 -67.15 30.0 -67.0 29.5 -67.0 28.5 -66.9 28.0 -66.9 27.0 -66.75 24.85 -66.65 23.85 -66.5 23.25 -66.5 22.6 -66.4 21.6 -66.4 20.75 -66.25 20.1 -66.25 19.25 -66.15 18.6 -66.15 17.1 -65.9 16.0 -65.9 15.6 -65.75 14.1 -65.75 13.85 -65.5 13.25 -65.65 11.75 -65.5 11.1 -65.5 10.85 -65.65 10.85 -67.15 13.85 -67.4 M19.0 -65.75 L16.75 -65.65 17.25 -65.75 19.0 -65.75 M-25.0 -54.0 L-25.5 -53.5 -25.5 -53.65 -25.0 -54.0 M-27.65 -51.15 L-29.65 -49.0 -28.25 -50.65 -27.9 -51.0 -27.65 -51.15 M-29.9 -48.65 L-30.9 -47.65 -30.9 -47.75 -29.9 -48.65 M-31.15 -47.5 L-32.75 -45.75 -33.15 -45.5 -34.0 -46.5 -32.25 -48.4 -31.15 -47.5 M-18.75 -63.0 L-19.65 -63.0 -20.65 -62.9 -21.15 -62.9 -22.15 -62.75 -22.65 -62.75 -23.65 -62.65 -24.25 -62.65 -25.15 -62.5 -25.75 -62.5 -26.65 -62.4 -27.25 -62.4 -28.15 -62.25 -30.4 -62.15 -31.4 -62.0 -31.9 -62.0 -32.9 -61.9 -33.4 -61.9 -34.4 -61.75 -35.0 -61.75 -36.0 -61.65 -36.5 -61.65 -37.5 -61.5 -38.0 -61.5 -39.0 -61.4 -39.5 -61.4 -40.5 -61.25 -42.65 -61.15 -43.65 -61.0 -44.15 -61.0 -45.15 -60.9 -45.65 -60.9 -46.65 -60.75 -47.25 -60.75 -48.25 -60.65 -48.75 -60.65 -49.75 -60.5 -50.25 -60.5 -52.0 -60.4 -52.9 -60.25 -53.5 -60.25 -54.4 -60.15 -55.0 -60.15 -55.9 -60.0 -58.15 -59.9 -59.0 -59.75 -59.65 -59.75 -60.5 -59.65 -61.15 -59.65 -62.0 -59.5 -62.75 -59.5 -63.5 -59.4 -64.25 -59.4 -65.15 -59.25 -65.75 -59.25 -66.65 -59.15 -67.25 -59.15 -68.15 -59.0 -68.75 -59.0 -70.4 -58.9 -71.25 -58.75 -73.25 -58.65 -74.25 -58.5 -74.9 -58.5 -75.75 -58.4 -76.4 -58.4 -77.25 -58.25 -77.9 -58.25 -78.75 -58.15 -79.5 -58.15 -80.25 -58.0 -82.0 -57.9 -82.5 -57.9 -83.5 -57.75 -84.0 -57.75 -85.65 -57.65 -86.5 -57.5 -88.15 -57.4 -88.65 -57.4 -89.65 -57.25 -90.15 -57.25 -91.15 -57.15 -91.75 -57.15 -92.65 -57.0 -93.25 -57.0 -94.25 -56.9 -94.75 -56.9 -95.75 -56.75 -96.5 -56.75 -97.25 -56.65 -98.0 -56.65 -98.9 -56.5 -99.5 -56.5 -100.4 -56.4 -101.0 -56.4 -101.9 -56.25 -102.65 -56.25 -103.4 -56.15 -104.15 -56.15 -105.0 -56.0 -105.65 -56.0 -106.5 -55.9 -107.15 -55.9 -108.0 -55.75 -108.75 -55.75 -109.5 -55.65 -110.25 -55.65 -111.15 -55.5 -111.75 -55.5 -112.65 -55.4 -113.25 -55.4 -114.15 -55.25 -119.5 -54.9 -120.0 -54.75 -120.4 -56.15 -61.65 -61.15 -4.4 -64.5 -4.0 -64.4 -1.5 -64.65 -2.75 -64.5 -4.9 -64.15 -5.9 -64.15 -6.75 -64.0 -7.5 -64.0 -8.25 -63.9 -8.4 -63.9 -9.0 -63.75 -9.4 -63.75 -10.5 -63.75 -11.25 -63.65 -12.0 -63.65 -12.75 -63.5 -13.5 -63.5 -14.25 -63.4 -15.0 -63.4 -16.0 -63.25 -16.65 -63.25 -16.9 -63.15 -17.65 -62.5 -18.0 -63.15 -18.75 -63.0 M-102.85 -58.9 L-111.25 -58.4 -111.65 -58.25 -113.0 -58.25 -113.25 -60.25 -107.15 -60.75 -106.9 -58.75 -102.85 -58.9 M-16.65 -65.5 L-10.4 -72.5 -9.25 -71.65 -9.25 -71.5 -9.65 -71.15 -11.25 -69.4 -11.5 -68.9 -11.75 -68.75 -12.75 -67.65 -12.4 -67.9 -13.0 -67.4 -13.75 -66.65 -13.9 -66.25 -14.5 -65.65 -16.65 -65.5 M13.75 -65.4 L13.85 -65.5 15.6 -65.5 13.75 -65.4 M-15.15 -41.5 L-14.75 -41.4 -15.4 -41.4 -15.15 -41.5" fill="#000000" fill-rule="evenodd" stroke="none"/>
      <path d="M63.25 -69.65 L75.0 -70.25 75.0 -69.15 74.25 -68.9 72.75 -68.9 72.35 -68.75 71.25 -68.75 70.5 -68.65 69.5 -68.65 68.6 -68.5 19.1 -65.75 19.0 -65.75 17.25 -65.75 17.1 -65.9 18.6 -66.15 19.25 -66.15 20.1 -66.25 20.75 -66.25 21.6 -66.4 22.6 -66.4 23.25 -66.5 23.85 -66.5 24.85 -66.65 27.0 -66.75 28.0 -66.9 28.5 -66.9 29.5 -67.0 30.0 -67.0 31.0 -67.15 31.5 -67.15 32.5 -67.25 33.0 -67.25 34.0 -67.4 34.6 -67.4 35.5 -67.5 36.1 -67.5 37.1 -67.65 37.6 -67.65 38.6 -67.75 39.1 -67.75 40.1 -67.9 40.75 -67.9 41.6 -68.0 42.25 -68.0 43.25 -68.15 43.75 -68.15 44.75 -68.25 45.25 -68.25 46.25 -68.4 46.85 -68.4 47.75 -68.5 48.35 -68.5 49.5 -68.65 49.85 -68.65 51.0 -68.75 51.35 -68.75 52.5 -68.9 53.0 -68.9 54.1 -69.0 54.5 -69.0 55.6 -69.15 56.0 -69.15 57.1 -69.25 57.6 -69.25 58.6 -69.4 60.25 -69.4 60.6 -69.5 61.75 -69.5 63.1 -69.65 63.25 -69.65 M29.75 -45.0 L30.0 -45.0 29.85 -44.9 29.75 -45.0 M-13.65 -46.75 Q-22.65 -48.15 -24.15 -42.5 -25.75 -35.65 -17.9 -33.0 L-18.4 -32.25 Q-26.25 -35.0 -24.65 -42.5 -22.0 -50.25 -13.0 -47.5 L-13.4 -47.15 -13.65 -46.75" fill="#010101" fill-rule="evenodd" stroke="none"/>
      <path d="M16.75 -65.65 L16.25 -65.5 16.0 -65.9 17.1 -65.9 17.25 -65.75 16.75 -65.65 M-61.65 -61.15 L-101.5 -59.0 -102.85 -58.9 -106.9 -58.75 -107.15 -60.75 -16.65 -65.5 -14.5 -65.65 -5.0 -66.15 -3.15 -66.25 2.25 -66.5 3.1 -66.5 3.0 -66.15 3.6 -65.9 4.0 -65.15 2.1 -64.9 1.5 -64.9 1.0 -64.75 -1.25 -64.65 -1.5 -64.65 -4.0 -64.4 -4.4 -64.5 -61.65 -61.15 M13.85 -65.5 L14.1 -65.75 15.6 -65.75 15.6 -65.5 13.85 -65.5 M-7.75 -28.25 L-8.75 -26.65 -10.4 -24.75 -10.15 -25.65 -10.15 -25.75 -7.75 -28.25" fill="#101010" fill-rule="evenodd" stroke="none"/>
      <path d="M-10.4 -72.5 L-8.0 -75.0 -7.0 -73.9 -7.25 -73.5 -8.4 -72.4 -8.65 -72.0 -8.75 -71.9 -9.25 -71.65 -10.4 -72.5 M-13.25 -21.5 L-12.75 -21.4 -13.5 -19.65 -13.25 -21.5 M-15.75 -12.25 L-14.4 -15.5 -13.25 -13.4 -12.5 -12.25 -12.15 -7.9 -14.25 -8.15 -15.25 -8.65 -15.65 -9.9 -15.75 -12.25" fill="#323232" fill-rule="evenodd" stroke="none"/>
      <path d="M17.1 -50.65 L21.25 -52.0 Q28.75 -51.9 29.35 -50.25 L26.0 -50.4 Q25.75 -51.4 21.5 -51.5 L18.6 -50.5 17.1 -50.65 M-8.0 -75.0 L-7.4 -75.5 -6.15 -74.75 -7.0 -73.9 -8.0 -75.0 M-8.75 -71.9 L-11.5 -68.9 -12.4 -67.9 -12.75 -67.65 -11.75 -68.75 -11.5 -68.9 -11.25 -69.4 -9.65 -71.15 -9.25 -71.5 -9.25 -71.65 -8.75 -71.9 M-13.0 -67.4 L-13.9 -66.25 -13.75 -66.65 -13.0 -67.4" fill="#313131" fill-rule="evenodd" stroke="none"/>
      <path d="M-5.0 -66.15 L-5.0 -67.15 -4.4 -68.4 -1.75 -68.9 1.0 -70.0 0.0 -69.15 -0.75 -69.0 -2.4 -68.0 -2.9 -67.0 -3.15 -66.25 -5.0 -66.15 M-4.5 -63.5 L-4.9 -64.15 -2.75 -64.5 -1.75 -63.25 -0.15 -62.9 0.1 -62.75 0.0 -62.25 -3.9 -62.75 -4.0 -62.75 -4.0 -63.5 -4.5 -63.5" fill="#0f0f0f" fill-rule="evenodd" stroke="none"/>
      <path d="M47.1 -20.9 L47.6 -13.9 48.1 -13.5 47.5 -13.15 46.85 -19.9 46.75 -21.15 47.1 -20.9 M-2.75 -64.5 L-1.5 -64.65 -1.25 -64.65 1.0 -64.75 1.5 -64.9 2.1 -64.9 1.0 -63.25 -0.15 -62.9 -1.75 -63.25 -2.75 -64.5 M-3.15 -66.25 L-2.9 -67.0 -2.4 -68.0 -0.75 -69.0 0.6 -68.9 1.6 -68.0 2.25 -66.5 -3.15 -66.25 M18.6 -50.5 L21.5 -51.5 Q25.75 -51.4 26.0 -50.4 L24.25 -50.4 22.25 -49.75 18.6 -50.5 M15.85 -29.25 L32.6 -30.65 34.75 -16.9 26.25 -14.15 19.0 -13.65 14.5 -28.0 14.0 -28.65 13.85 -29.0 15.85 -29.25 M36.75 -32.25 L37.6 -32.65 39.1 -31.0 38.35 -31.15 40.5 -18.65 39.75 -18.4 37.85 -31.25 37.35 -31.65 37.25 -31.65 36.75 -32.25 M43.75 -26.25 L44.25 -25.15 42.75 -21.25 41.6 -28.25 42.35 -27.65 42.6 -27.4 42.6 -27.25 42.75 -27.0 43.0 -26.9 43.75 -26.25 M40.5 -29.4 L41.5 -21.75 42.1 -19.65 42.0 -19.0 41.35 -18.9 39.75 -30.25 40.1 -29.9 40.5 -29.4 M-7.25 -29.15 L-6.5 -29.0 -6.4 -28.75 -7.5 -28.65 -7.25 -29.15 M12.25 -28.9 L12.6 -28.9 12.5 -28.5 12.25 -28.9 M-18.9 -9.65 L-19.25 -10.4 -18.9 -25.9 -18.5 -23.4 -18.5 -19.15 -18.9 -17.25 -18.65 -15.0 -18.9 -9.65 M-19.5 -10.65 L-19.9 -10.65 -19.65 -26.5 -19.5 -10.65 M-40.5 -25.75 L-41.4 -25.5 -41.4 -25.65 -40.5 -25.75 M-6.4 -25.4 L-6.0 -26.15 -4.15 -26.25 -4.0 -25.9 -5.5 -25.4 -6.4 -25.4 M-1.25 -8.25 L-1.15 -4.25 0.1 1.5 12.85 1.1 12.1 6.35 22.35 5.5 22.35 6.35 23.0 6.35 22.25 6.6 22.85 6.75 22.0 6.85 22.6 7.25 22.25 7.5 21.85 7.5 21.75 8.1 22.5 8.25 21.6 8.25 21.5 8.85 22.1 9.0 21.35 9.1 21.1 9.85 19.85 10.85 18.75 11.0 8.35 11.85 -10.5 12.35 -11.5 -0.75 -11.5 -0.9 -9.75 -2.4 -1.25 -8.25" fill="#020202" fill-rule="evenodd" stroke="none"/>
      <path d="M1.0 -70.0 L1.85 -70.5 4.6 -70.5 Q5.5 -69.75 5.85 -66.65 L5.6 -63.25 2.75 -62.15 0.25 -62.75 0.1 -62.75 -0.15 -62.9 1.0 -63.25 2.1 -64.9 4.0 -65.15 3.6 -65.9 3.0 -66.15 3.1 -66.5 2.25 -66.5 1.6 -68.0 0.6 -68.9 -0.75 -69.0 0.0 -69.15 1.0 -70.0 M8.75 -32.15 L5.5 -31.75 0.0 -31.4 -12.0 -30.65 -13.5 -31.15 -14.65 -32.0 -19.4 -27.4 -17.25 -32.15 -17.0 -32.5 -15.25 -32.65 -14.75 -32.65 -14.25 -32.75 -13.9 -32.4 -14.25 -32.15 -12.65 -32.4 -11.9 -32.5 -11.0 -32.15 -5.15 -32.15 -2.25 -31.4 0.0 -31.4 8.75 -32.15" fill="#373737" fill-rule="evenodd" stroke="none"/>
      <path d="M1.85 -70.5 L2.1 -72.25 3.85 -73.65 5.75 -73.4 7.1 -71.75 7.25 -70.65 4.6 -70.5 1.85 -70.5" fill="#545454" fill-rule="evenodd" stroke="none"/>
      <path d="M-15.9 10.75 L-18.25 7.6 -18.5 2.5 -18.9 1.5 -18.65 1.25 -19.9 -10.65 -19.5 -10.65 -19.25 -10.4 -18.9 -9.65 -18.65 -9.5 -18.25 -9.0 -18.0 -12.9 -18.15 -14.15 -18.0 -25.4 -18.4 -25.5 -18.9 -25.9 -19.65 -26.5 -19.65 -27.0 -19.4 -27.4 -14.65 -32.0 -13.5 -31.15 -12.0 -30.65 -17.25 -25.0 -17.5 -8.25 -15.75 9.1 -15.9 10.75 M7.25 -70.65 L9.85 -70.0 12.0 -70.0 11.0 -68.9 10.85 -67.15 10.85 -65.65 11.1 -65.5 12.0 -64.0 12.5 -63.9 9.1 -62.9 7.35 -62.75 5.6 -63.25 5.85 -66.65 Q5.5 -69.75 4.6 -70.5 L7.25 -70.65 M30.0 -45.0 L30.6 -44.9 30.75 -44.75 31.1 -44.65 31.6 -44.15 32.0 -42.9 31.75 -42.0 31.5 -41.65 30.85 -41.15 29.85 -41.0 29.35 -41.0 29.0 -41.15 28.85 -41.15 28.5 -41.4 28.0 -43.65 28.0 -43.75 28.5 -44.4 29.1 -44.75 29.85 -44.9 30.0 -45.0 M-20.15 -43.65 L-18.15 -45.15 -17.75 -43.9 -16.75 -42.0 -16.65 -41.65 -17.4 -41.15 -17.5 -41.25 -20.15 -43.65 M13.25 1.0 L22.1 -2.9 22.5 0.35 22.1 0.35 13.25 1.0" fill="#161616" fill-rule="evenodd" stroke="none"/>
      <path d="M12.0 -70.0 L13.0 -69.5 13.85 -67.4 10.85 -67.15 11.0 -68.9 12.0 -70.0 M11.1 -65.5 L11.75 -65.5 13.25 -65.65 13.85 -65.5 13.75 -65.4 13.5 -64.5 13.1 -64.0 12.5 -63.9 12.0 -64.0 11.1 -65.5 M33.85 -39.0 L31.85 -37.5 29.35 -41.0 29.85 -41.0 30.85 -41.15 33.85 -39.0" fill="#1c1c1c" fill-rule="evenodd" stroke="none"/>
      <path d="M16.25 -65.5 L17.1 -50.65 17.25 -49.65 16.75 -49.65 16.5 -50.65 15.6 -65.5 15.6 -65.75 16.0 -65.9 16.25 -65.5 M-5.4 -49.4 L-6.25 -62.9 -5.9 -62.9 -4.9 -49.4 -4.9 -48.9 -5.25 -48.9 -5.4 -49.4" fill="#181818" fill-rule="evenodd" stroke="none"/>
      <path d="M6.6 -49.5 L9.6 -50.0 10.1 -50.15 10.0 -50.5 14.0 -50.65 14.1 -50.4 14.6 -50.65 16.5 -50.65 16.75 -49.65 17.25 -49.65 17.1 -50.65 18.6 -50.5 22.25 -49.75 23.75 -49.25 24.5 -48.75 16.25 -49.25 7.6 -49.15 6.6 -49.5" fill="#555555" fill-rule="evenodd" stroke="none"/>
      <path d="M13.1 -64.0 L13.5 -64.5 14.6 -50.65 14.1 -50.4 14.0 -50.65 13.1 -64.0" fill="#171717" fill-rule="evenodd" stroke="none"/>
      <path d="M-9.0 -63.75 L-7.75 -63.15 -7.0 -60.75 -7.25 -58.4 -8.0 -57.4 -8.9 -57.25 Q-11.65 -61.15 -9.9 -63.25 L-9.4 -63.75 -9.0 -63.75" fill="#1d1d1d" fill-rule="evenodd" stroke="none"/>
      <path d="M-15.5 -53.75 L-16.65 -52.5 -17.25 -52.5 -24.25 -54.9 -22.4 -56.9 -23.9 -57.4 -23.15 -58.15 -18.75 -63.0 -18.0 -63.15 -17.65 -62.5 -16.9 -63.15 -16.65 -63.25 -16.0 -63.25 -15.0 -63.4 -14.25 -63.4 -14.0 -63.15 -13.0 -59.65 -13.0 -57.25 -13.65 -55.75 -15.5 -53.75 M22.1 -2.9 L32.0 -0.5 22.85 0.35 22.5 0.35 22.1 -2.9" fill="#212121" fill-rule="evenodd" stroke="none"/>
      <path d="M-3.5 -49.5 L-4.5 -63.5 -4.0 -63.5 -4.0 -62.75 -3.0 -49.5 -2.9 -48.15 -3.4 -48.0 -3.5 -49.5 M0.1 -62.75 L0.25 -62.75 2.75 -62.15 5.6 -63.25 7.35 -62.75 9.1 -62.9 10.0 -50.5 10.1 -50.15 9.6 -50.0 6.6 -49.5 1.1 -49.4 0.85 -49.9 0.0 -62.25 0.1 -62.75 M36.1 -32.0 L36.75 -32.25 37.25 -31.65 36.1 -32.0 M-12.25 -44.75 L-11.9 -44.9 -11.65 -45.75 -13.0 -46.5 -12.5 -46.9 -9.25 -46.15 -11.75 -41.0 -11.9 -32.5 -12.65 -32.4 -13.9 -32.4 -14.25 -32.75 -14.4 -32.75 -13.9 -32.9 -13.5 -33.65 -14.75 -37.4 -14.9 -37.4 Q-11.15 -39.9 -14.65 -41.4 L-14.75 -41.4 -15.15 -41.5 -15.15 -41.75 -15.25 -41.75 -14.9 -43.4 -14.5 -44.4 -14.0 -44.65 -12.25 -44.75 M-22.25 -27.25 L-22.65 -26.65 -22.75 -24.4 -30.15 -23.65 -42.25 -23.25 -45.4 -23.5 -46.65 -23.75 -46.9 -23.9 -46.9 -24.0 -46.65 -24.25 -41.4 -25.5 -40.5 -25.75 -40.4 -25.75 -39.65 -25.9 -22.25 -27.25" fill="#191919" fill-rule="evenodd" stroke="none"/>
      <path d="M-14.65 -48.65 L-15.0 -52.65 -15.5 -53.75 -13.65 -55.75 -13.0 -57.25 -13.0 -59.65 -14.0 -63.15 -12.65 -63.15 -10.65 -48.9 Q-11.25 -48.55 -11.9 -48.25 L-14.65 -48.65 M-6.5 -29.0 L-5.65 -28.75 -6.4 -28.75 -6.5 -29.0 M-4.15 -28.5 L-0.9 -27.9 1.75 -28.0 -1.25 -25.5 -2.65 -25.25 -3.15 -26.15 -3.25 -26.4 -3.25 -26.5 -4.15 -28.5" fill="#090909" fill-rule="evenodd" stroke="none"/>
      <path d="M-8.9 -57.25 L-7.75 -49.15 -10.65 -48.9 -12.65 -63.15 -9.9 -63.25 Q-11.65 -61.15 -8.9 -57.25" fill="#4f4f4f" fill-rule="evenodd" stroke="none"/>
      <path d="M37.85 -34.65 L44.1 -29.9 47.1 -20.9 46.75 -21.15 45.0 -25.9 44.25 -25.15 43.75 -26.25 44.85 -26.15 41.85 -30.25 37.6 -32.65 38.6 -33.15 37.85 -34.65 M-7.75 -49.15 L-5.4 -49.4 -5.25 -48.9 -4.9 -48.9 -4.9 -49.4 -3.5 -49.5 -3.4 -48.0 -2.9 -48.15 -3.0 -49.5 -2.9 -49.5 0.85 -49.9 1.1 -49.4 6.6 -49.5 7.6 -49.15 -2.15 -47.75 -9.25 -46.15 -12.5 -46.9 -13.4 -47.15 -13.0 -47.5 -11.9 -48.25 Q-11.25 -48.55 -10.65 -48.9 L-7.75 -49.15 M41.6 -28.25 L41.5 -28.5 42.35 -27.65 41.6 -28.25 M42.6 -27.4 L43.0 -26.9 42.75 -27.0 42.6 -27.25 42.6 -27.4" fill="#525252" fill-rule="evenodd" stroke="none"/>
      <path d="M49.5 7.35 L49.25 8.35 37.6 10.0 18.6 11.6 18.75 11.0 19.85 10.85 21.1 9.85 21.35 9.1 22.1 9.0 21.5 8.85 21.6 8.25 22.5 8.25 21.75 8.1 21.85 7.5 22.25 7.5 22.6 7.25 22.0 6.85 22.85 6.75 22.25 6.6 23.0 6.35 22.35 6.35 22.35 5.5 33.25 4.5 32.0 -0.5 42.75 -2.15 43.0 1.25 Q46.25 5.1 47.25 4.85 L47.5 6.6 48.75 7.25 49.5 7.35 M-21.65 -28.45 Q-22.65 -28.55 -26.0 -30.75 L-29.5 -34.9 Q-32.65 -45.4 -27.75 -45.65 L-27.5 -45.9 -26.25 -46.65 -18.25 -48.9 -14.65 -48.65 -11.9 -48.25 -13.0 -47.5 Q-22.0 -50.25 -24.65 -42.5 -26.25 -35.0 -18.4 -32.25 L-21.4 -28.5 -21.65 -28.45 M-23.9 -57.4 L-23.9 -57.5 -23.15 -58.15 -23.9 -57.4 M-10.15 -25.65 L-10.4 -24.75 -11.65 -21.4 -12.75 -21.4 -10.65 -25.0 -10.25 -25.5 -10.15 -25.65" fill="#060606" fill-rule="evenodd" stroke="none"/>
      <path d="M-24.25 -54.9 L-25.0 -54.0 -25.5 -53.65 -25.5 -53.5 -27.5 -51.25 -27.65 -51.15 -27.9 -51.0 -28.25 -50.65 -29.65 -49.0 -29.75 -48.75 -29.9 -48.65 -30.9 -47.75 -30.9 -47.65 -31.15 -47.5 -32.25 -48.4 -23.9 -57.4 -22.4 -56.9 -24.25 -54.9" fill="#4c4c4c" fill-rule="evenodd" stroke="none"/>
      <path d="M29.35 -50.25 Q34.25 -50.65 36.0 -44.25 35.75 -37.0 30.0 -36.25 L29.75 -36.25 29.6 -36.9 31.85 -37.5 33.85 -39.0 35.0 -41.15 35.35 -43.5 35.0 -45.5 34.6 -45.75 33.25 -47.75 31.1 -48.9 28.85 -49.25 26.5 -48.5 25.35 -47.65 24.5 -48.75 24.6 -49.15 23.75 -49.25 22.25 -49.75 24.25 -50.4 26.0 -50.4 29.35 -50.25 M-5.65 -28.75 L-4.9 -28.65 -6.4 -28.75 -5.65 -28.75" fill="#595959" fill-rule="evenodd" stroke="none"/>
      <path d="M30.0 -36.25 L31.25 -36.25 31.75 -35.75 29.85 -35.75 29.75 -36.15 29.75 -36.25 30.0 -36.25" fill="#4a4a4a" fill-rule="evenodd" stroke="none"/>
      <path d="M29.6 -36.9 L29.75 -36.25 29.75 -36.15 29.85 -35.75 29.6 -34.9 28.6 -34.65 27.1 -33.5 26.6 -33.5 24.15 -33.3 18.6 -32.9 18.35 -32.9 17.1 -32.75 16.35 -32.75 15.6 -32.65 14.0 -32.65 10.5 -44.25 9.75 -46.15 7.6 -49.15 16.25 -49.25 24.5 -48.75 25.35 -47.65 27.6 -44.75 28.0 -43.75 28.0 -43.65 28.5 -41.4 28.6 -41.15 28.85 -40.4 29.35 -37.65 29.5 -37.15 29.6 -36.9" fill="#aeaeae" fill-rule="evenodd" stroke="none"/>
      <path d="M-45.15 -26.4 L-44.15 -26.75 -21.65 -28.45 -21.4 -28.5 -22.25 -27.25 -39.65 -25.9 -40.4 -25.75 -40.5 -25.75 -41.4 -25.65 -43.25 -25.65 -45.15 -26.0 -45.15 -26.4 M31.85 -37.5 L29.6 -36.9 29.6 -37.15 29.5 -37.15 29.35 -37.65 28.85 -40.4 28.6 -41.15 28.85 -41.15 29.0 -41.15 29.35 -41.0 31.85 -37.5" fill="#2d2d2d" fill-rule="evenodd" stroke="none"/>
      <path d="M31.75 -42.0 L34.35 -41.25 35.0 -41.15 33.85 -39.0 30.85 -41.15 31.5 -41.65 31.75 -42.0" fill="#0b0b0b" fill-rule="evenodd" stroke="none"/>
      <path d="M-22.65 -24.0 L-43.65 -22.4 -43.0 -22.9 -44.0 -23.15 -42.25 -23.25 -30.15 -23.65 -22.75 -24.4 -22.65 -24.0 M26.5 -48.5 L28.85 -49.25 31.1 -48.9 33.25 -47.75 34.6 -45.75 35.0 -45.5 35.35 -43.5 35.0 -41.15 34.35 -41.25 31.75 -42.0 32.0 -42.9 31.6 -44.15 31.1 -44.65 30.75 -44.75 30.6 -44.9 30.0 -45.0 29.75 -45.0 28.85 -45.15 27.75 -45.15 27.75 -46.0 27.25 -47.75 26.85 -47.75 26.5 -48.5 M-18.15 -45.15 L-15.75 -45.75 -13.5 -45.4 -12.25 -44.75 -14.0 -44.65 -14.5 -44.4 -14.9 -43.4 -15.25 -41.75 -15.9 -41.75 -16.65 -41.65 -16.75 -42.0 -17.75 -43.9 -18.15 -45.15" fill="#080808" fill-rule="evenodd" stroke="none"/>
      <path d="M26.5 -48.5 L26.85 -47.75 25.35 -47.65 26.5 -48.5 M11.5 -22.5 L10.0 -13.25 9.35 -13.25 11.0 -21.75 11.5 -22.5 M-14.75 -41.4 L-14.65 -41.4 Q-11.15 -39.9 -14.9 -37.4 L-15.0 -37.4 -15.75 -37.5 -16.15 -37.75 -16.25 -37.75 -16.65 -38.15 -16.9 -38.5 -17.15 -39.15 -17.15 -39.65 -16.9 -40.15 -16.9 -40.4 -16.65 -40.75 -16.25 -41.15 -15.4 -41.4 -14.75 -41.4" fill="#141414" fill-rule="evenodd" stroke="none"/>
      <path d="M26.85 -47.75 L27.25 -47.75 27.75 -46.0 27.75 -45.15 27.6 -44.75 25.35 -47.65 26.85 -47.75 M23.75 -49.25 L24.6 -49.15 24.5 -48.75 23.75 -49.25" fill="#565656" fill-rule="evenodd" stroke="none"/>
      <path d="M-43.65 -22.4 L-45.9 -22.4 -47.9 -23.5 -47.9 -25.0 -47.25 -25.65 -45.15 -26.4 -45.15 -26.0 -43.25 -25.65 -41.4 -25.65 -41.4 -25.5 -46.65 -24.25 -46.9 -24.0 -46.9 -23.9 -46.65 -23.75 -45.4 -23.5 -42.25 -23.25 -44.0 -23.15 -43.0 -22.9 -43.65 -22.4 M27.75 -45.15 L28.85 -45.15 29.75 -45.0 29.85 -44.9 29.1 -44.75 28.5 -44.4 28.0 -43.75 27.6 -44.75 27.75 -45.15 M28.5 -41.4 L28.85 -41.15 28.6 -41.15 28.5 -41.4 M-8.15 -22.9 L-7.75 -22.9 0.85 -14.4 1.1 -14.25 -5.65 -15.0 -6.4 -15.15 -7.15 -16.25 -8.15 -22.9" fill="#131313" fill-rule="evenodd" stroke="none"/>
      <path d="M-13.0 -46.5 L-13.65 -46.75 -13.4 -47.15 -12.5 -46.9 -13.0 -46.5" fill="#1f1f1f" fill-rule="evenodd" stroke="none"/>
      <path d="M-13.0 -46.5 L-11.65 -45.75 -11.9 -44.9 -12.25 -44.75 -13.5 -45.4 -15.75 -45.75 -18.15 -45.15 -20.15 -43.65 -21.25 -41.5 -21.65 -39.0 -21.0 -36.75 -19.4 -34.75 -17.25 -33.65 -14.9 -33.4 -13.5 -33.65 -13.9 -32.9 -14.4 -32.75 -14.75 -32.65 -15.25 -32.65 -17.9 -33.0 Q-25.75 -35.65 -24.15 -42.5 -22.65 -48.15 -13.65 -46.75 L-13.0 -46.5" fill="#252525" fill-rule="evenodd" stroke="none"/>
      <path d="M-20.9 -1.0 L-22.65 -11.25 -22.65 -24.0 -22.75 -24.4 -22.65 -26.65 -22.25 -27.25 -21.4 -28.5 -18.4 -32.25 -17.9 -33.0 -15.25 -32.65 -17.0 -32.5 -17.25 -32.15 -19.4 -27.4 -19.65 -27.0 -19.65 -26.5 -18.9 -25.9 -18.4 -25.5 -18.5 -23.4 -18.9 -25.9 -19.25 -10.4 -19.5 -10.65 -19.65 -26.5 -19.9 -10.65 -18.65 1.25 -18.9 1.5 -20.9 -1.0 M-14.75 -32.65 L-14.4 -32.75 -14.25 -32.75 -14.75 -32.65 M-18.5 -19.15 L-18.25 -18.75 -18.65 -15.0 -18.9 -17.25 -18.5 -19.15 M-13.25 -21.5 L-13.5 -19.65 -13.75 -19.15 -14.0 -17.9 -14.15 -17.65 -14.4 -15.5 -15.75 -12.25 -16.4 -15.65 -13.65 -21.65 -13.25 -21.5 M-15.25 -8.65 L-15.75 -8.65 -15.65 -9.9 -15.25 -8.65" fill="#282828" fill-rule="evenodd" stroke="none"/>
      <path d="M14.0 -32.65 L14.0 -32.5 13.0 -32.5 12.6 -32.5 11.35 -32.4 10.85 -32.25 8.75 -32.15 0.0 -31.4 -2.25 -31.4 -5.15 -32.15 -11.0 -32.15 -11.9 -32.5 -11.75 -41.0 -9.25 -46.15 -2.15 -47.75 7.6 -49.15 9.75 -46.15 10.5 -44.25 14.0 -32.65" fill="#343434" fill-rule="evenodd" stroke="none"/>
      <path d="M37.1 -34.65 L37.85 -34.65 38.6 -33.15 37.6 -32.65 36.75 -32.25 36.1 -32.0 32.6 -30.65 15.85 -29.25 14.85 -31.9 14.1 -31.9 13.0 -32.5 14.0 -32.5 14.0 -32.65 15.6 -32.65 16.35 -32.75 17.1 -32.75 18.35 -32.9 18.6 -32.9 24.15 -33.3 26.6 -33.5 27.1 -33.5 37.1 -34.65" fill="#666666" fill-rule="evenodd" stroke="none"/>
      <path d="M13.0 -32.5 L14.1 -31.9 7.5 -31.25 5.5 -31.75 8.75 -32.15 10.85 -32.25 11.35 -32.4 12.6 -32.5 13.0 -32.5" fill="#616161" fill-rule="evenodd" stroke="none"/>
      <path d="M-21.25 -41.5 L-20.15 -43.65 -17.5 -41.25 -17.4 -41.15 -17.5 -40.5 -17.9 -40.5 -20.75 -41.25 -21.25 -41.5" fill="#272727" fill-rule="evenodd" stroke="none"/>
      <path d="M-21.65 -39.0 L-21.25 -41.5 -20.75 -41.25 -17.9 -40.5 -17.9 -39.5 -21.65 -39.0" fill="#363636" fill-rule="evenodd" stroke="none"/>
      <path d="M-17.65 -38.75 L-17.75 -38.75 -21.65 -39.0 -17.9 -39.5 -17.65 -38.75" fill="#686868" fill-rule="evenodd" stroke="none"/>
      <path d="M-14.4 13.85 L-15.9 10.75 -15.75 9.1 -17.5 -8.25 -17.25 -25.0 -12.0 -30.65 -9.9 -29.4 -7.25 -29.15 -7.5 -28.65 -7.75 -28.25 -10.15 -25.75 -10.15 -25.65 -10.25 -25.5 -10.65 -25.0 -12.75 -21.4 -13.25 -21.5 -13.65 -21.65 -16.4 -15.65 -15.75 -12.25 -15.65 -9.9 -15.75 -8.65 -15.25 -8.65 -14.25 -8.15 -12.15 -7.9 -11.5 -0.9 -11.5 -0.75 -10.5 12.35 -13.15 12.85 -14.4 13.85 M-15.9 -41.75 L-15.15 -41.5 -15.4 -41.4 -16.25 -41.15 -16.65 -40.75 -16.9 -40.4 -16.9 -40.15 -17.15 -40.0 -17.15 -39.65 -17.15 -39.15 -16.9 -38.5 -16.65 -38.15 -16.5 -37.75 -17.25 -38.0 -17.65 -38.75 -17.9 -39.5 -17.9 -40.5 -17.5 -40.5 -17.4 -41.15 -16.65 -41.65 -15.9 -41.75" fill="#050505" fill-rule="evenodd" stroke="none"/>
      <path d="M12.6 -28.9 L13.1 -29.0 14.6 -13.25 12.6 -13.0 10.0 -13.25 11.5 -22.5 11.5 -22.75 11.75 -23.75 12.5 -28.15 12.5 -28.5 12.6 -28.9 M13.5 -29.0 L13.85 -29.0 14.0 -28.65 13.6 -28.4 13.5 -29.0 M14.1 -26.65 L14.1 -25.75 13.75 -25.9 13.75 -26.75 14.1 -26.65 M14.0 -27.15 L13.6 -27.25 13.6 -28.25 14.0 -28.15 14.0 -27.15 M14.35 -23.9 L14.35 -23.15 14.0 -23.25 14.0 -24.0 14.35 -23.9 M14.25 -24.4 L13.85 -24.5 13.85 -25.4 14.25 -25.25 14.25 -24.4 M14.6 -20.5 L14.25 -20.65 14.25 -21.15 14.6 -21.0 14.6 -20.5 M14.5 -21.75 L14.1 -21.9 14.1 -22.5 14.5 -22.4 14.5 -21.75 M14.75 -19.15 L14.35 -19.25 14.35 -19.75 14.75 -19.65 14.75 -19.15 M21.1 -7.4 L11.6 -6.5 11.25 -8.0 11.5 -8.15 12.0 -8.25 12.25 -8.25 20.85 -8.9 20.6 -8.5 21.1 -7.4 M-15.25 -41.75 L-15.15 -41.75 -15.15 -41.5 -15.9 -41.75 -15.25 -41.75" fill="#262626" fill-rule="evenodd" stroke="none"/>
      <path d="M-13.5 -33.65 L-14.9 -33.4 -15.0 -35.25 -15.75 -37.5 -15.0 -37.4 -14.9 -37.4 -14.75 -37.4 -13.5 -33.65 M-12.65 -32.4 L-14.25 -32.15 -13.9 -32.4 -12.65 -32.4" fill="#2b2b2b" fill-rule="evenodd" stroke="none"/>
      <path d="M-14.9 -33.4 L-17.25 -33.65 -16.9 -34.75 -16.65 -37.5 -16.5 -37.75 -16.25 -37.75 -16.15 -37.75 -15.75 -37.5 -15.0 -35.25 -14.9 -33.4" fill="#737373" fill-rule="evenodd" stroke="none"/>
      <path d="M-17.15 -39.65 L-17.15 -40.0 -16.9 -40.15 -17.15 -39.65 M-16.25 -37.75 L-16.5 -37.75 -16.65 -38.15 -16.25 -37.75" fill="#111111" fill-rule="evenodd" stroke="none"/>
      <path d="M29.5 -37.15 L29.6 -37.15 29.6 -36.9 29.5 -37.15" fill="#868686" fill-rule="evenodd" stroke="none"/>
      <path d="M-21.0 -36.75 L-21.65 -39.0 -17.75 -38.75 -20.25 -37.0 -21.0 -36.75" fill="#676767" fill-rule="evenodd" stroke="none"/>
      <path d="M-17.75 -38.75 L-17.65 -38.75 -17.25 -38.0 -20.25 -37.0 -17.75 -38.75" fill="#ababab" fill-rule="evenodd" stroke="none"/>
      <path d="M-19.4 -34.75 L-21.0 -36.75 -20.25 -37.0 -17.25 -38.0 -18.9 -35.4 -19.4 -34.75" fill="#aaaaaa" fill-rule="evenodd" stroke="none"/>
      <path d="M-16.5 -37.75 L-16.65 -37.5 -18.9 -35.4 -17.25 -38.0 -16.5 -37.75" fill="#bababa" fill-rule="evenodd" stroke="none"/>
      <path d="M-17.25 -33.65 L-19.4 -34.75 -18.9 -35.4 -16.65 -37.5 -16.9 -34.75 -17.25 -33.65" fill="#b9b9b9" fill-rule="evenodd" stroke="none"/>
      <path d="M31.75 -35.75 L37.1 -34.65 27.1 -33.5 28.6 -34.65 29.6 -34.9 29.85 -35.75 31.75 -35.75" fill="#383838" fill-rule="evenodd" stroke="none"/>
      <path d="M14.1 -31.9 L14.85 -31.9 15.85 -29.25 13.85 -29.0 13.5 -29.0 13.1 -29.0 12.6 -28.9 12.25 -28.9 1.75 -28.0 -0.9 -27.9 -4.15 -28.5 -4.9 -28.65 -5.65 -28.75 -6.5 -29.0 -7.25 -29.15 -9.9 -29.4 -12.0 -30.65 0.0 -31.4 5.5 -31.75 7.5 -31.25 14.1 -31.9" fill="#4b4b4b" fill-rule="evenodd" stroke="none"/>
      <path d="M39.75 -18.4 L40.5 -18.65 41.35 -18.9 42.0 -19.0 39.1 -15.0 40.35 -13.5 40.5 -11.9 41.1 -11.25 41.6 -9.5 42.0 -9.4 42.6 -7.9 42.35 -5.4 42.75 -2.15 32.0 -0.5 22.1 -2.9 Q22.0 -6.0 21.1 -7.4 L30.5 -8.15 30.1 -9.75 29.75 -9.75 20.25 -9.9 20.0 -10.4 20.25 -10.65 19.75 -11.25 20.1 -11.75 19.6 -11.75 20.0 -12.0 19.35 -12.15 19.25 -12.65 19.6 -12.9 19.1 -13.0 19.0 -13.65 26.25 -14.15 34.75 -16.9 39.75 -18.4" fill="#6e6e6e" fill-rule="evenodd" stroke="none"/>
      <path d="M44.25 -25.15 L45.0 -25.9 46.75 -21.15 46.85 -19.9 42.0 -19.0 42.1 -19.65 42.75 -21.25 44.25 -25.15" fill="#141b13" fill-rule="evenodd" stroke="none"/>
      <path d="M40.5 -11.9 L40.35 -13.5 39.1 -15.0 42.0 -19.0 46.85 -19.9 47.5 -13.15 47.35 -12.75 40.5 -11.9" fill="#5b5b5b" fill-rule="evenodd" stroke="none"/>
      <path d="M41.1 -11.25 L40.5 -11.9 47.35 -12.75 47.75 -11.0 47.75 -7.15 41.1 -11.25" fill="#5f5f5f" fill-rule="evenodd" stroke="none"/>
      <path d="M48.1 -13.5 L49.5 7.35 48.75 7.25 48.6 2.75 48.25 1.5 48.75 -2.0 47.75 -7.15 47.75 -11.0 47.35 -12.75 47.5 -13.15 48.1 -13.5" fill="#242424" fill-rule="evenodd" stroke="none"/>
      <path d="M39.1 -31.0 L37.6 -32.65 41.85 -30.25 44.85 -26.15 43.75 -26.25 43.0 -26.9 42.6 -27.4 42.35 -27.65 41.5 -28.5 40.6 -29.4 40.5 -29.4 40.1 -29.9 39.75 -30.25 39.6 -30.5 39.1 -31.0" fill="#696969" fill-rule="evenodd" stroke="none"/>
      <path d="M-18.25 7.6 L-20.0 5.35 -20.9 -1.0 -18.9 1.5 -18.5 2.5 -18.25 7.6" fill="#404040" fill-rule="evenodd" stroke="none"/>
      <path d="M-4.9 -28.65 L-4.15 -28.5 -3.25 -26.5 -3.25 -26.4 -3.15 -26.15 -2.65 -25.25 -1.25 -25.5 1.75 -28.0 12.25 -28.9 12.5 -28.5 12.5 -28.15 11.75 -23.75 11.5 -22.75 11.5 -22.5 11.0 -21.75 9.35 -13.25 1.1 -14.25 0.85 -14.4 -7.75 -22.9 -8.15 -22.9 -8.4 -23.0 -8.75 -26.65 -7.75 -28.25 -7.5 -28.65 -6.4 -28.75 -4.9 -28.65 M-18.4 -25.5 L-18.0 -25.4 -18.15 -14.15 -18.0 -12.9 -18.25 -9.0 -18.65 -9.5 -18.9 -9.65 -18.65 -15.0 -18.25 -18.75 -18.5 -19.15 -18.5 -23.4 -18.4 -25.5 M-7.4 -26.9 L-6.65 -26.75 -4.4 -26.65 -4.15 -27.0 -4.4 -27.9 -5.9 -28.0 -7.25 -27.5 -7.4 -26.9 M-6.4 -25.4 L-5.5 -25.4 -4.0 -25.9 -4.15 -26.25 -6.0 -26.15 -6.4 -25.4" fill="#030303" fill-rule="evenodd" stroke="none"/>
      <path d="M13.1 -29.0 L13.5 -29.0 13.6 -28.4 14.0 -28.65 14.5 -28.0 19.0 -13.65 18.75 -13.5 14.6 -13.25 13.1 -29.0 M14.0 -27.15 L14.0 -28.15 13.6 -28.25 13.6 -27.25 14.0 -27.15 M14.1 -26.65 L13.75 -26.75 13.75 -25.9 14.1 -25.75 14.1 -26.65 M14.75 -19.15 L14.75 -19.65 14.35 -19.75 14.35 -19.25 14.75 -19.15 M14.5 -21.75 L14.5 -22.4 14.1 -22.5 14.1 -21.9 14.5 -21.75 M14.6 -20.5 L14.6 -21.0 14.25 -21.15 14.25 -20.65 14.6 -20.5 M14.25 -24.4 L14.25 -25.25 13.85 -25.4 13.85 -24.5 14.25 -24.4 M14.35 -23.9 L14.0 -24.0 14.0 -23.25 14.35 -23.15 14.35 -23.9" fill="#767676" fill-rule="evenodd" stroke="none"/>
      <path d="M10.0 -13.25 L12.6 -13.0 14.6 -13.25 18.75 -13.5 19.0 -13.65 19.1 -13.0 19.6 -12.9 19.25 -12.65 19.35 -12.15 20.0 -12.0 19.6 -11.75 20.1 -11.75 19.75 -11.25 20.25 -10.65 20.0 -10.4 20.25 -9.9 12.25 -8.25 12.0 -8.25 11.5 -8.15 11.25 -8.0 11.6 -6.5 21.1 -7.4 Q22.0 -6.0 22.1 -2.9 L13.25 1.0 12.85 1.1 0.1 1.5 -1.15 -4.25 -1.25 -8.25 -2.9 -11.75 -6.25 -15.0 -5.65 -15.0 1.1 -14.25 9.35 -13.25 10.0 -13.25" fill="#2a2a2a" fill-rule="evenodd" stroke="none"/>
      <path d="M-10.4 -24.75 L-8.75 -26.65 -8.4 -23.0 -10.15 -19.75 -11.65 -21.4 -12.65 -15.0 -12.65 -14.15 -13.25 -13.4 -14.4 -15.5 -14.15 -17.65 -14.0 -17.9 -13.75 -19.15 -13.5 -19.65 -12.75 -21.4 -11.65 -21.4 -10.4 -24.75" fill="#575757" fill-rule="evenodd" stroke="none"/>
      <path d="M-8.4 -23.0 L-8.15 -22.9 -7.15 -16.25 -10.15 -19.75 -8.4 -23.0 M-12.5 -12.25 L-13.25 -13.4 -12.65 -14.15 -12.5 -12.25" fill="#848484" fill-rule="evenodd" stroke="none"/>
      <path d="M-7.4 -26.9 L-7.25 -27.5 -5.9 -28.0 -4.4 -27.9 -4.15 -27.0 -4.4 -26.65 -6.65 -26.75 -7.4 -26.9" fill="#151515" fill-rule="evenodd" stroke="none"/>
      <path d="M-7.15 -16.25 L-6.4 -15.15 -12.65 -15.0 -11.65 -21.4 -10.15 -19.75 -7.15 -16.25" fill="#050805" fill-rule="evenodd" stroke="none"/>
      <path d="M-6.4 -15.15 L-6.25 -15.0 -2.9 -11.75 -1.25 -8.25 -12.15 -7.9 -12.5 -12.25 -12.65 -14.15 -12.65 -15.0 -6.4 -15.15" fill="#0a0a0a" fill-rule="evenodd" stroke="none"/>
      <path d="M12.25 -8.25 L20.25 -9.9 20.85 -8.9 12.25 -8.25" fill="#424242" fill-rule="evenodd" stroke="none"/>
      <path d="M20.85 -8.9 L20.25 -9.9 29.75 -9.75 20.85 -8.9" fill="#535353" fill-rule="evenodd" stroke="none"/>
      <path d="M21.1 -7.4 L20.6 -8.5 20.85 -8.9 29.75 -9.75 30.1 -9.75 30.5 -8.15 21.1 -7.4" fill="#393939" fill-rule="evenodd" stroke="none"/>
      <path d="M-6.4 -15.15 L-5.65 -15.0 -6.25 -15.0 -6.4 -15.15" fill="#1e1e1e" fill-rule="evenodd" stroke="none"/>
      <path d="M18.6 11.6 L0.75 13.25 -14.4 13.85 -13.15 12.85 -10.5 12.35 8.35 11.85 18.75 11.0 18.6 11.6 M-1.25 -8.25 L-9.75 -2.4 -11.5 -0.9 -12.15 -7.9 -1.25 -8.25" fill="#040404" fill-rule="evenodd" stroke="none"/>
      <path d="M42.75 -2.15 L42.35 -5.4 42.6 -7.9 42.0 -9.4 41.6 -9.5 41.1 -11.25 47.75 -7.15 48.75 -2.0 48.25 1.5 47.25 4.85 Q46.25 5.1 43.0 1.25 L42.75 -2.15" fill="#3c3c3c" fill-rule="evenodd" stroke="none"/>
      <path d="M12.85 1.1 L13.25 1.0 22.1 0.35 22.5 1.85 22.25 2.6 23.0 2.85 22.25 2.85 22.25 3.25 23.0 3.35 22.25 3.6 22.6 4.5 22.35 4.6 23.0 4.6 22.35 4.75 22.35 5.5 12.1 6.35 12.85 1.1 M22.5 0.35 L22.85 0.35 23.0 0.6 22.6 0.6 22.5 0.35" fill="#070707" fill-rule="evenodd" stroke="none"/>
      <path d="M22.85 0.35 L32.0 -0.5 33.25 4.5 22.35 5.5 22.35 4.75 23.0 4.6 22.35 4.6 22.6 4.5 22.25 3.6 23.0 3.35 22.25 3.25 22.25 2.85 23.0 2.85 22.25 2.6 22.5 1.85 22.1 0.35 22.5 0.35 22.6 0.6 23.0 0.6 22.85 0.35" fill="#0e0e0e" fill-rule="evenodd" stroke="none"/>
      <path d="M48.25 1.5 L48.6 2.75 48.75 7.25 47.5 6.6 47.25 4.85 48.25 1.5" fill="#121212" fill-rule="evenodd" stroke="none"/>
      <path d="M16.0 -29.15 L24.0 -29.9 25.5 -29.9 31.6 -30.5 32.1 -30.4 32.25 -30.65 34.75 -17.0 34.6 -16.75 26.75 -14.25 26.25 -14.15 25.5 -14.15 19.0 -13.65 18.85 -14.5 18.85 -14.9 18.6 -15.5 18.25 -17.15 18.25 -17.65 17.5 -20.15 17.5 -20.25 17.35 -20.4 17.1 -22.5 17.25 -23.0 16.0 -29.15 M36.0 -32.0 L36.6 -32.25 36.85 -32.4 37.5 -32.65 37.6 -32.65 37.85 -32.5 38.0 -32.25 41.5 -30.4 42.35 -29.4 42.75 -28.75 43.0 -28.5 43.0 -28.4 44.0 -26.65 44.6 -26.0 44.25 -26.25 43.75 -26.25 44.1 -25.4 44.35 -25.15 44.25 -24.9 44.1 -24.15 43.75 -23.25 43.5 -22.9 43.35 -22.9 43.25 -22.15 43.1 -22.0 42.75 -21.0 41.6 -27.75 41.6 -28.25 41.35 -28.5 41.35 -28.65 40.6 -29.4 40.35 -29.5 40.1 -29.75 40.6 -26.75 40.75 -26.65 40.85 -25.0 41.35 -22.75 41.35 -22.4 41.5 -20.9 42.0 -19.0 41.25 -18.75 41.25 -20.75 39.75 -30.25 39.6 -30.5 39.1 -31.0 38.35 -30.9 38.5 -29.4 39.0 -27.4 39.1 -25.25 39.5 -23.5 40.25 -18.65 40.25 -18.5 39.6 -18.25 39.5 -21.15 38.85 -25.15 38.35 -27.5 38.25 -29.25 37.85 -31.25 37.5 -31.5 37.35 -31.65 37.25 -31.65 36.1 -32.0 36.0 -32.0" fill="#141414" fill-opacity="0.50980395" fill-rule="evenodd" stroke="none"/>
      <path d="M44.6 -26.0 L44.75 -25.75 44.35 -25.15 44.1 -25.4 43.75 -26.25 44.25 -26.25 44.6 -26.0 M42.75 -21.0 L42.5 -20.0 42.1 -19.25 42.0 -19.0 41.5 -20.9 41.35 -22.4 41.35 -22.75 40.85 -25.0 40.75 -26.65 40.6 -26.75 40.1 -29.75 40.35 -29.5 40.6 -29.4 41.35 -28.65 41.35 -28.5 41.6 -28.25 41.6 -27.75 42.75 -21.0 M41.25 -18.75 L40.25 -18.65 39.5 -23.5 39.1 -25.25 39.0 -27.4 38.5 -29.4 38.35 -30.9 39.1 -31.0 39.6 -30.5 39.75 -30.25 41.25 -20.75 41.25 -18.75" fill="#141414" fill-rule="evenodd" stroke="none"/>
      <path d="M34.6 -16.75 L34.75 -17.0 32.25 -30.65 36.0 -32.0 36.1 -32.0 37.25 -31.65 37.35 -31.65 37.5 -31.5 37.85 -31.25 38.25 -29.25 38.35 -27.5 38.85 -25.15 39.5 -21.15 39.6 -18.25 34.6 -16.75" fill="#282828" fill-opacity="0.50980395" fill-rule="evenodd" stroke="none"/>
      <path d="M16.0 -29.15 L17.25 -23.0 17.1 -22.5 17.35 -20.4 16.75 -21.75 17.0 -22.5 15.6 -28.4 15.35 -29.15 16.0 -29.15 M47.1 -19.4 L47.0 -20.75 46.75 -21.75 47.6 -20.5 47.85 -13.65 47.6 -13.75 47.35 -14.0 47.35 -15.65 47.25 -16.4 47.25 -17.5 47.1 -18.25 47.1 -19.4" fill="#0e0e0e" fill-rule="evenodd" stroke="none"/>
      <path d="M17.35 -20.4 L17.5 -20.25 17.5 -20.15 17.5 -19.0 18.0 -17.25 18.0 -17.15 18.1 -16.9 18.5 -15.25 18.5 -15.0 18.6 -14.65 18.75 -14.4 18.75 -13.5 18.5 -13.5 11.6 -13.0 11.25 -13.0 9.85 -13.25 9.35 -13.25 6.6 -13.65 5.75 -13.65 1.25 -14.25 1.1 -14.25 -5.65 -15.0 -6.4 -15.15 -6.5 -15.15 -6.9 -15.75 -7.15 -16.0 -10.75 -20.4 -11.65 -21.25 -10.75 -24.15 -10.65 -25.0 -10.5 -25.15 -10.25 -25.5 -10.15 -25.75 -7.5 -28.65 -7.4 -28.9 -7.25 -29.15 -6.5 -28.9 -6.4 -28.9 -4.15 -28.5 -3.9 -28.5 -3.0 -28.25 -0.5 -27.9 5.25 -28.25 6.0 -28.4 12.25 -28.9 12.6 -28.9 13.1 -29.0 13.85 -29.0 14.6 -29.15 15.35 -29.15 15.6 -28.4 17.0 -22.5 16.75 -21.75 17.35 -20.4" fill="#040404" fill-opacity="0.50980395" fill-rule="evenodd" stroke="none"/>
      <path d="M17.5 -20.15 L18.25 -17.65 18.25 -17.15 18.6 -15.5 18.85 -14.9 18.85 -14.5 19.0 -13.65 18.75 -13.5 18.75 -14.4 18.6 -14.65 18.5 -15.0 18.5 -15.25 18.1 -16.9 18.0 -17.15 18.0 -17.25 17.5 -19.0 17.5 -20.15" fill="#161616" fill-rule="evenodd" stroke="none"/>
      <path d="M-19.15 -11.75 L-19.25 -11.5 -19.25 -11.4 -19.0 -11.25 -19.0 -13.0 -19.15 -11.75 M-19.0 -24.15 L-18.9 -23.25 -18.9 -24.75 -19.0 -24.15 M-18.5 -25.65 L-18.4 -25.5 -18.4 -24.0 -18.5 -23.9 -18.4 -19.15 -18.25 -18.75 -18.25 -17.9 -18.4 -17.25 -18.5 -15.5 -18.65 -15.15 -18.75 -14.4 -18.65 -13.65 -18.65 -9.4 -18.9 -9.4 -18.9 -9.5 -19.0 -10.0 -19.25 -10.15 -19.65 -10.65 -19.9 -10.65 -19.75 -12.25 -19.9 -17.0 -19.75 -18.65 -19.75 -19.0 -19.9 -19.9 -19.65 -20.5 -19.65 -22.9 -19.9 -23.75 -19.65 -25.5 -19.65 -26.5 -18.9 -25.9 -18.75 -25.75 -18.5 -25.65 M-11.65 -21.25 L-12.4 -18.25 -12.15 -17.75 -12.75 -14.0 -12.4 -10.5 -12.25 -10.0 -12.15 -7.9 -14.65 -8.25 -15.4 -8.65 -15.9 -8.65 -16.0 -11.65 -16.4 -14.15 -16.4 -15.75 -16.25 -16.15 -13.65 -21.65 -13.25 -21.5 -12.75 -21.4 -12.15 -21.4 -11.65 -21.25" fill="#000000" fill-opacity="0.50980395" fill-rule="evenodd" stroke="none"/>
      <path d="M46.75 -21.75 L47.0 -20.75 47.1 -19.4 46.85 -19.75 46.85 -20.75 47.0 -20.75 46.75 -21.15 46.75 -21.25 46.35 -21.9 45.85 -23.65 46.75 -21.75 M47.35 -14.0 L47.6 -13.75 47.35 -13.9 47.35 -14.0" fill="#0d0d0d" fill-rule="evenodd" stroke="none"/>
      <path d="M47.6 -13.75 L47.85 -13.65 48.0 -13.4 47.5 -13.15 47.35 -13.9 47.6 -13.75 M46.75 -21.15 L47.0 -20.75 46.85 -20.75 46.75 -21.15" fill="#0d0d0d" fill-opacity="0.50980395" fill-rule="evenodd" stroke="none"/>
    </g>
  </defs>
</svg>
