<?xml version="1.0" encoding="UTF-8" standalone="no"?>
<svg xmlns:xlink="http://www.w3.org/1999/xlink" height="1034.2px" width="773.35px" xmlns="http://www.w3.org/2000/svg">
  <g transform="matrix(1.0, 0.0, 0.0, 1.0, 365.9, 551.4)">
    <use height="93.65" transform="matrix(1.0, 0.0, 0.0, 1.0, -166.25, -79.4)" width="334.85" xlink:href="#shape0"/>
  </g>
  <defs>
    <g id="shape0" transform="matrix(1.0, 0.0, 0.0, 1.0, 166.25, 79.4)">
      <path d="M25.75 -68.25 L168.6 -78.9 168.5 -77.4 168.25 -77.25 167.25 -77.25 166.75 -77.15 166.0 -77.15 165.25 -77.0 162.75 -76.9 161.85 -76.75 161.1 -76.75 160.25 -76.65 159.5 -76.65 158.5 -76.5 157.85 -76.5 157.1 -76.4 156.35 -76.4 155.35 -76.25 154.6 -76.25 153.75 -76.15 153.0 -76.15 152.0 -76.0 149.5 -75.9 148.6 -75.75 146.1 -75.65 145.35 -75.5 142.75 -75.4 142.0 -75.25 141.1 -75.25 140.35 -75.15 139.35 -75.15 138.6 -75.0 137.75 -75.0 137.0 -74.9 136.0 -74.9 135.1 -74.75 132.6 -74.65 131.75 -74.5 129.25 -74.4 128.35 -74.25 125.85 -74.15 125.0 -74.0 122.5 -73.9 121.6 -73.75 119.1 -73.65 118.25 -73.5 115.75 -73.4 114.85 -73.25 112.35 -73.15 111.5 -73.0 109.0 -72.9 108.1 -72.75 105.6 -72.65 104.75 -72.5 103.0 -72.4 102.25 -72.4 101.25 -72.25 98.85 -72.15 97.85 -72.0 97.1 -72.0 96.25 -71.9 95.5 -71.9 92.85 -71.65 92.1 -71.65 91.1 -71.5 90.35 -71.5 89.5 -71.4 88.75 -71.4 87.75 -71.25 85.35 -71.15 84.5 -71.0 81.85 -70.9 81.1 -70.75 80.25 -70.75 79.5 -70.65 78.5 -70.65 77.75 -70.5 76.85 -70.5 76.1 -70.4 75.1 -70.4 74.25 -70.25 73.5 -70.25 72.75 -70.15 71.75 -70.15 70.85 -70.0 68.35 -69.9 67.5 -69.75 65.0 -69.65 64.1 -69.5 61.6 -69.4 60.75 -69.25 58.25 -69.15 57.35 -69.0 54.85 -68.9 54.0 -68.75 51.5 -68.65 50.6 -68.5 48.1 -68.4 47.25 -68.25 44.75 -68.15 43.85 -68.0 41.35 -67.9 40.5 -67.75 38.0 -67.65 37.0 -67.5 34.6 -67.4 33.6 -67.25 32.85 -67.25 32.0 -67.15 31.25 -67.15 30.25 -67.0 27.85 -66.9 26.85 -66.75 26.0 -66.75 25.75 -68.25 M-37.5 -43.5 L-27.4 -54.15 -30.15 -50.65 Q-32.0 -49.65 -33.9 -46.75 L-37.5 -43.5 M-24.75 -59.75 L-22.0 -62.75 -19.9 -62.75 -20.25 -62.25 -20.75 -62.15 -21.0 -61.5 -21.9 -60.65 -22.0 -60.75 -22.4 -60.9 -23.9 -59.75 -24.75 -59.75 M-10.5 -64.0 L-10.25 -64.0 -9.5 -64.15 -6.9 -64.25 -6.15 -64.4 -5.25 -64.4 -4.9 -63.75 -10.4 -62.65 -11.15 -62.65 -11.15 -63.5 -10.5 -64.0 M2.6 -65.15 L2.25 -65.15 2.35 -65.65 2.35 -66.65 3.5 -66.9 3.6 -66.9 3.85 -65.25 3.0 -65.15 2.6 -65.15 M22.25 -49.9 L18.6 -50.65 21.35 -51.5 Q25.6 -51.65 26.25 -50.4 L24.0 -50.4 22.25 -49.9" fill="#010101" fill-rule="evenodd" stroke="none"/>
      <path d="M26.0 -66.75 L25.6 -66.65 24.25 -66.65 24.25 -66.5 22.6 -66.5 22.6 -66.4 20.85 -66.4 20.85 -66.25 19.25 -66.25 19.25 -66.15 17.6 -66.15 17.6 -66.0 16.25 -66.0 16.1 -66.4 15.6 -66.4 15.6 -65.9 14.1 -65.9 13.75 -65.9 14.1 -66.0 14.1 -66.5 8.6 -65.5 8.25 -65.5 3.85 -65.25 23.85 -69.0 22.5 -69.15 20.6 -69.15 20.5 -70.5 20.35 -70.5 20.6 -71.4 29.1 -71.9 29.25 -69.75 32.1 -69.75 24.5 -68.25 25.75 -68.25 26.0 -66.75 M-23.5 -58.75 L-24.75 -59.75 -23.9 -59.75 -22.4 -60.9 -22.0 -60.75 -22.25 -60.4 -23.5 -58.75 M-19.5 -63.25 L-21.25 -63.25 -22.0 -63.15 -22.9 -63.15 -23.75 -63.0 -25.5 -62.9 -26.25 -62.9 -27.25 -62.75 -29.65 -62.65 -30.65 -62.5 -31.4 -62.5 -32.25 -62.4 -33.0 -62.4 -33.9 -62.25 -36.4 -62.15 -37.25 -62.0 -38.15 -62.0 -38.9 -61.9 -39.75 -61.9 -40.65 -61.75 -41.5 -61.75 -42.25 -61.65 -43.15 -61.65 -44.15 -61.5 -44.9 -61.5 -45.65 -61.4 -46.5 -61.4 -47.5 -61.25 -49.9 -61.15 -50.9 -61.0 -51.65 -61.0 -52.5 -60.9 -53.25 -60.9 -54.25 -60.75 -56.75 -60.65 -57.65 -60.5 -60.15 -60.4 -61.0 -60.25 -63.5 -60.15 -64.4 -60.0 -67.0 -59.9 -67.75 -59.75 -70.4 -59.65 -71.15 -59.5 -73.75 -59.4 -74.5 -59.25 -77.15 -59.15 -77.9 -59.0 -80.5 -58.9 -81.25 -58.75 -83.9 -58.65 -84.65 -58.5 -87.15 -58.4 -88.15 -58.25 -88.9 -58.25 -89.75 -58.15 -90.5 -58.15 -94.9 -57.75 -95.65 -57.75 -96.5 -57.65 -97.25 -57.65 -98.25 -57.5 -100.65 -57.4 -101.65 -57.25 -102.4 -57.25 -103.25 -57.15 -104.0 -57.15 -104.9 -57.0 -107.4 -56.9 -108.25 -56.75 -109.15 -56.75 -109.9 -56.65 -110.75 -56.65 -111.65 -56.5 -112.5 -56.5 -113.25 -56.4 -114.15 -56.4 -115.15 -56.25 -115.9 -56.25 -116.65 -56.15 -117.5 -56.15 -118.5 -56.0 -120.9 -55.9 -121.9 -55.75 -124.4 -55.65 -125.25 -55.5 -127.75 -55.4 -128.65 -55.25 -131.15 -55.15 -132.0 -55.0 -134.65 -54.9 -135.4 -54.75 -138.0 -54.65 -138.75 -54.5 -141.4 -54.4 -142.15 -54.25 -144.75 -54.15 -145.5 -54.0 -148.15 -53.9 -148.9 -53.75 -151.4 -53.65 -152.4 -53.5 -153.15 -53.5 -154.0 -53.4 -154.75 -53.4 -155.9 -53.25 -156.4 -53.25 -157.4 -53.15 -158.0 -53.15 -159.15 -53.0 -159.65 -53.0 -160.65 -52.9 -161.15 -52.9 -163.9 -52.65 -164.4 -52.65 -165.4 -52.5 -166.15 -52.5 -166.25 -54.15 -17.4 -65.15 -16.4 -65.25 -15.4 -65.25 -14.4 -65.4 -5.15 -66.0 -4.75 -66.15 -4.5 -65.4 -2.0 -64.75 -4.75 -64.5 -5.25 -64.4 -6.15 -64.4 -6.9 -64.25 -9.5 -64.15 -10.25 -64.0 -10.5 -64.0 -11.15 -64.0 -12.9 -63.9 -13.65 -63.75 -14.4 -63.75 -14.5 -63.75 -15.25 -63.65 -16.25 -63.65 -17.9 -63.4 -19.5 -63.4 -19.5 -63.25 M-20.9 -60.0 L-18.9 -60.0 -17.75 -59.0 -19.75 -59.0 -20.9 -60.0 M-10.4 -62.65 L-4.9 -63.75 -4.75 -63.0 -5.25 -63.0 -5.9 -62.9 -6.0 -62.9 -6.4 -62.9 -7.65 -62.75 -10.4 -62.65 M-13.0 -47.65 L-13.5 -47.15 -13.75 -46.75 Q-22.75 -48.65 -24.4 -42.15 -26.4 -36.25 -18.0 -33.0 L-18.5 -32.25 Q-26.65 -35.15 -24.75 -42.65 -22.15 -50.4 -13.0 -47.65 M-16.75 -40.9 L-16.75 -40.75 -16.9 -40.75 -16.75 -40.9" fill="#000000" fill-rule="evenodd" stroke="none"/>
      <path d="M29.1 -71.9 L32.1 -71.9 32.35 -70.25 32.1 -69.75 29.25 -69.75 29.1 -71.9" fill="#424242" fill-rule="evenodd" stroke="none"/>
      <path d="M-24.9 -57.0 L-23.5 -58.75 -22.25 -60.4 -21.9 -60.65 -21.0 -61.5 -20.25 -61.9 -20.25 -62.25 -19.9 -62.75 -19.5 -63.25 -19.5 -63.4 -17.9 -63.4 -19.0 -62.0 -19.25 -62.0 -21.0 -60.25 -20.9 -60.0 -23.15 -57.65 -24.65 -56.65 -24.9 -57.0 M-17.4 -65.15 L-16.5 -65.9 -16.0 -65.9 -16.4 -65.25 -17.4 -65.15 M13.75 -69.15 L20.35 -70.5 20.5 -70.5 20.6 -69.15 22.5 -69.15 23.85 -69.0 3.85 -65.25 3.6 -66.9 3.5 -66.9 8.0 -67.9 8.5 -68.0 13.75 -69.15 M-6.4 -28.75 L-6.25 -28.75 -5.0 -28.65 -4.25 -28.5 -3.25 -26.4 -3.25 -26.25 -3.15 -26.0 -2.65 -25.15 -1.75 -23.5 0.5 -20.15 1.85 -16.9 0.85 -14.25 -8.4 -22.9 -8.9 -26.5 -8.0 -28.0 -7.5 -28.65 -6.4 -28.75 M-1.15 -8.25 L-1.25 -8.0 -9.9 -2.15 -11.65 -0.65 -12.25 -7.65 -1.15 -8.25 M-7.4 -26.75 L-6.0 -26.5 -4.25 -26.5 Q-4.15 -29.5 -7.65 -27.15 L-7.4 -26.75 M-6.15 -26.0 L-6.4 -25.4 -5.25 -25.4 -4.15 -25.75 -4.0 -26.15 -6.15 -26.0" fill="#040404" fill-rule="evenodd" stroke="none"/>
      <path d="M7.1 -70.9 L10.85 -70.15 13.35 -70.15 13.75 -69.15 8.5 -68.0 7.5 -69.9 6.1 -70.9 7.1 -70.9 M8.0 -63.65 L8.6 -65.5 14.1 -66.5 14.1 -66.0 13.75 -65.9 14.1 -65.9 14.0 -64.15 13.6 -64.0 13.1 -63.9 11.0 -63.65 9.1 -62.9 8.0 -63.65 M7.75 -49.25 L9.75 -46.15 10.6 -44.0 13.75 -32.5 11.75 -32.4 11.25 -32.25 10.35 -32.25 9.6 -32.15 9.1 -32.15 -2.4 -31.4 -5.4 -32.15 -12.0 -32.5 -11.65 -38.75 -11.9 -41.4 -9.4 -46.15 -2.5 -47.75 7.35 -49.25 7.75 -49.25" fill="#333333" fill-rule="evenodd" stroke="none"/>
      <path d="M30.1 -36.25 L31.35 -36.25 31.85 -35.75 30.0 -35.75 30.0 -36.15 29.85 -36.25 30.1 -36.25 M2.0 -71.0 L2.25 -72.75 3.85 -73.9 Q6.75 -74.25 7.1 -70.9 L6.1 -70.9 4.5 -70.9 4.25 -71.0 2.5 -70.75 2.0 -71.0 M-11.15 -63.5 L-11.15 -62.65 -10.4 -62.65 -10.65 -60.9 -10.25 -60.75 -10.15 -59.0 -9.0 -57.4 -7.75 -49.25 -10.75 -48.9 -10.65 -50.0 -12.65 -63.25 -11.15 -63.5 M5.35 -31.75 L6.5 -31.25 7.85 -31.25 14.35 -31.9 15.1 -31.4 15.85 -29.15 14.0 -28.75 13.1 -28.9 12.75 -28.9 12.1 -28.75 1.75 -28.0 -1.25 -27.9 -4.0 -28.4 -3.25 -26.4 -4.25 -28.5 -5.0 -28.65 -6.25 -28.75 -6.4 -28.75 -7.4 -29.0 -10.0 -29.4 -12.15 -30.65 5.35 -31.75" fill="#4e4e4e" fill-rule="evenodd" stroke="none"/>
      <path d="M-45.4 -26.4 L-21.75 -28.5 -21.4 -28.5 -22.4 -27.15 -39.5 -25.9 -39.9 -25.75 -40.4 -25.75 -41.5 -25.5 -43.65 -25.5 -45.25 -26.0 -45.4 -26.4 M1.75 -70.75 L2.0 -71.0 2.5 -70.75 4.25 -71.0 4.5 -70.9 6.1 -70.9 7.5 -69.9 8.5 -68.0 8.0 -67.9 Q3.5 -72.0 2.35 -66.65 L2.35 -65.65 2.25 -65.15 2.6 -65.15 Q6.5 -61.75 8.25 -65.5 L8.6 -65.5 8.0 -63.65 6.75 -62.9 5.0 -62.5 1.75 -63.15 1.85 -63.5 1.35 -63.9 1.1 -65.5 0.75 -65.75 Q0.6 -69.4 2.35 -70.5 L1.75 -70.75" fill="#2b2b2b" fill-rule="evenodd" stroke="none"/>
      <path d="M-5.15 -68.65 L-2.65 -69.15 1.75 -70.75 2.35 -70.5 Q0.6 -69.4 0.75 -65.75 L1.1 -65.5 1.35 -63.9 1.85 -63.5 1.75 -63.15 0.1 -62.25 -4.0 -62.65 -4.15 -63.65 -4.65 -63.65 -4.75 -64.5 -2.0 -64.75 -4.5 -65.4 -4.75 -66.15 -5.15 -68.65 M-8.0 -28.0 L-8.9 -26.5 -10.4 -24.75 -10.25 -25.5 -10.5 -25.4 -8.0 -28.0" fill="#111111" fill-rule="evenodd" stroke="none"/>
      <path d="M47.35 -20.75 L47.85 -13.75 48.35 -13.4 47.75 -12.9 47.35 -19.75 46.85 -21.15 47.35 -20.75 M-5.15 -66.0 L-5.15 -68.65 -4.75 -66.15 -5.15 -66.0 M-5.25 -64.4 L-4.75 -64.5 -4.65 -63.65 -4.65 -62.9 -4.75 -63.0 -4.9 -63.75 -5.25 -64.4 M-20.9 -60.0 L-21.0 -60.25 -19.25 -62.0 -19.0 -62.0 -18.5 -62.0 -17.4 -63.15 -15.75 -63.4 -18.9 -60.0 -20.9 -60.0 M37.85 -32.65 L38.1 -32.4 39.25 -31.0 38.6 -31.15 40.5 -18.5 40.0 -18.25 38.0 -31.25 37.6 -31.5 37.0 -32.25 37.85 -32.65 M44.0 -26.15 L44.5 -25.0 43.0 -21.0 41.85 -28.15 42.6 -27.5 42.85 -27.25 43.0 -27.0 44.0 -26.15 M41.6 -18.75 L39.85 -30.25 40.0 -30.25 40.75 -29.4 41.75 -21.5 42.35 -19.5 42.25 -18.9 41.6 -18.75 M32.85 -30.65 L34.85 -16.75 26.6 -14.0 19.25 -13.4 14.5 -28.15 14.1 -28.4 14.0 -28.75 15.85 -29.15 32.85 -30.65 M-7.4 -29.0 L-6.4 -28.75 -7.5 -28.65 -7.4 -29.0 M12.1 -28.75 L12.75 -28.9 12.5 -28.5 12.1 -28.75 M-1.25 -8.0 L-1.25 -4.0 0.1 1.75 12.85 1.35 12.1 6.75 23.1 5.85 23.0 7.25 22.1 7.35 22.35 7.5 22.1 7.75 22.75 7.75 22.75 8.1 22.0 8.25 22.6 8.5 21.75 8.75 22.35 8.85 22.35 9.25 21.35 9.35 21.6 9.5 21.0 10.25 21.6 10.5 20.0 11.25 18.5 11.35 10.5 12.1 -10.65 12.75 -11.65 -0.5 -11.65 -0.65 -9.9 -2.15 -1.25 -8.0 M-19.15 -9.65 L-19.5 -10.25 -19.15 -13.4 -19.4 -22.65 -19.0 -25.75 -18.65 -23.75 -18.65 -22.65 -19.0 -21.0 -18.75 -18.5 -18.75 -17.65 -19.0 -15.4 -18.75 -14.9 -18.75 -13.5 -19.15 -12.25 -19.15 -9.65 M-19.75 -10.5 L-20.15 -10.5 -19.9 -21.25 -20.15 -22.65 -19.75 -26.4 -19.4 -24.15 -19.75 -22.0 -19.75 -10.5 M-6.15 -26.0 L-4.0 -26.15 -4.15 -25.75 -5.25 -25.4 -6.4 -25.4 -6.15 -26.0" fill="#020202" fill-rule="evenodd" stroke="none"/>
      <path d="M8.25 -65.5 Q6.5 -61.75 2.6 -65.15 L3.0 -65.15 3.85 -65.25 8.25 -65.5 M2.35 -66.65 Q3.5 -72.0 8.0 -67.9 L3.5 -66.9 2.35 -66.65" fill="#101010" fill-rule="evenodd" stroke="none"/>
      <path d="M-16.5 -65.9 L-15.75 -66.4 -16.0 -65.9 -16.5 -65.9 M-15.4 -66.9 L-13.4 -68.9 -13.4 -68.5 -15.4 -66.9 M-13.0 -69.4 L-4.25 -79.15 -3.65 -79.25 -6.9 -75.5 -9.9 -72.75 -10.65 -71.5 -13.0 -69.4 M1.75 -28.0 L12.1 -28.75 12.5 -28.5 12.5 -28.15 11.75 -23.5 11.5 -22.4 11.5 -22.25 11.0 -21.5 9.5 -13.15 0.85 -14.25 1.85 -16.9 0.5 -20.15 -1.75 -23.5 -2.65 -25.15 -1.4 -25.4 1.75 -28.0 M-18.65 -25.5 L-18.15 -25.25 -18.25 -14.5 -18.4 -13.75 -18.4 -13.65 -18.25 -12.65 -18.4 -8.9 -18.75 -9.25 -18.5 -12.9 -18.75 -13.5 -18.75 -14.9 -18.75 -17.65 -18.75 -18.5 -18.4 -22.5 -18.65 -22.65 -18.65 -23.75 -18.65 -25.5" fill="#030303" fill-rule="evenodd" stroke="none"/>
      <path d="M-15.75 -66.4 L-15.4 -66.9 -13.4 -68.5 -13.4 -68.9 -13.0 -69.4 -10.65 -71.5 -9.9 -72.75 -6.9 -75.5 -3.65 -79.25 -3.15 -79.4 -2.25 -78.4 -14.4 -65.4 -15.4 -65.25 -15.65 -66.15 -16.0 -65.9 -15.75 -66.4 M26.6 -48.65 L27.0 -47.75 25.6 -47.75 25.35 -47.9 26.6 -48.65 M0.85 -14.25 L-5.65 -14.9 -6.65 -15.25 -7.15 -15.9 -8.4 -22.9 0.85 -14.25 M-16.75 -38.15 L-16.4 -37.75 -16.65 -37.75 -16.75 -38.15" fill="#131313" fill-rule="evenodd" stroke="none"/>
      <path d="M16.25 -66.0 L17.1 -51.0 17.25 -50.65 17.1 -49.65 16.75 -49.75 16.6 -50.65 16.5 -50.75 15.6 -65.9 15.6 -66.4 16.1 -66.4 16.25 -66.0 M31.85 -42.0 L31.6 -41.65 31.0 -41.15 30.1 -41.0 29.6 -41.0 29.25 -41.15 29.0 -41.25 28.75 -41.4 28.1 -43.5 28.1 -43.9 28.6 -44.5 29.75 -45.0 30.5 -45.0 30.75 -44.9 30.85 -44.9 31.35 -44.65 31.75 -44.25 32.1 -43.4 32.1 -42.9 31.85 -42.0" fill="#171717" fill-rule="evenodd" stroke="none"/>
      <path d="M-15.4 -53.75 L-17.25 -52.5 -24.0 -55.15 -24.15 -55.5 -25.15 -55.75 -24.65 -56.65 -23.15 -57.65 -20.9 -60.0 -19.75 -59.0 -17.75 -59.0 -14.5 -62.4 -15.75 -63.4 -17.4 -63.15 -18.5 -62.0 -19.0 -62.0 -17.9 -63.4 -16.25 -63.65 -15.25 -63.65 -14.5 -63.75 -14.4 -63.75 -14.25 -63.25 Q-12.0 -58.0 -15.4 -53.75 M-16.4 -65.25 L-16.0 -65.9 -15.65 -66.15 -15.4 -65.25 -16.4 -65.25" fill="#1d1d1d" fill-rule="evenodd" stroke="none"/>
      <path d="M-16.0 11.1 L-18.5 7.85 -18.65 3.25 -19.0 2.0 -18.75 1.85 -20.15 -10.5 -19.75 -10.5 -19.5 -10.25 -19.15 -9.65 -18.75 -9.25 -18.4 -8.9 -18.25 -12.65 -18.4 -13.65 -18.4 -13.75 -18.25 -14.5 -18.15 -25.25 -18.65 -25.5 -19.0 -25.75 -19.75 -26.4 -19.65 -27.0 -19.5 -27.4 -14.9 -31.9 -12.15 -30.65 -17.4 -25.0 -17.4 -9.9 -17.75 -8.15 -17.4 -7.15 -16.0 11.1 M-4.65 -63.65 L-4.15 -63.65 -4.0 -62.65 -3.0 -49.65 -3.15 -48.15 -3.65 -48.5 -3.65 -49.5 -4.65 -62.9 -4.65 -63.65 M0.1 -62.25 L1.75 -63.15 5.0 -62.5 6.75 -62.9 8.0 -63.65 9.1 -62.9 10.1 -50.65 10.1 -50.15 6.35 -49.65 1.1 -49.5 0.85 -49.9 0.1 -62.25 M13.1 -63.9 L13.6 -64.0 14.6 -50.75 14.1 -50.75 13.1 -63.9 M-22.4 -27.15 L-22.9 -26.0 -22.75 -24.0 -41.75 -23.25 -46.15 -23.5 -47.0 -23.75 -47.15 -24.0 -46.9 -24.25 -46.0 -24.5 -45.65 -24.65 -41.5 -25.5 -40.4 -25.75 -39.9 -25.75 -39.5 -25.9 -22.4 -27.15" fill="#181818" fill-rule="evenodd" stroke="none"/>
      <path d="M-22.75 -24.0 L-43.4 -22.4 -43.15 -22.9 -43.65 -23.0 -41.75 -23.25 -22.75 -24.0 M-15.15 -52.9 L-15.15 -53.0 -15.4 -53.75 Q-12.0 -58.0 -14.25 -63.25 L-12.65 -63.25 -10.65 -50.0 -10.75 -48.9 -12.0 -48.4 -14.4 -48.65 -15.15 -52.9 M35.1 -41.15 L31.85 -42.0 32.1 -42.9 32.1 -43.4 31.75 -44.25 31.35 -44.65 30.85 -44.9 30.75 -44.9 30.5 -45.0 29.75 -45.0 29.0 -45.25 28.35 -45.25 28.0 -45.15 27.5 -47.75 27.0 -47.75 26.6 -48.65 29.0 -49.25 31.25 -49.0 33.35 -47.75 35.0 -45.9 35.5 -43.5 35.1 -41.15 M-18.4 -45.25 L-15.9 -45.9 -13.65 -45.5 -12.25 -44.9 -14.15 -44.65 -14.65 -44.5 -15.0 -43.25 -15.15 -42.15 -15.4 -41.75 -16.0 -41.75 -16.9 -41.65 -16.9 -42.0 -17.9 -43.9 -18.4 -45.25" fill="#080808" fill-rule="evenodd" stroke="none"/>
      <path d="M-6.4 -62.9 L-6.0 -62.9 -5.0 -49.5 -4.9 -49.0 -5.4 -49.0 -5.5 -49.4 -6.4 -62.9 M22.5 0.75 L22.25 -2.65 32.25 -0.25 23.0 0.6 22.5 0.75" fill="#1a1a1a" fill-rule="evenodd" stroke="none"/>
      <path d="M-10.4 -62.65 L-7.65 -62.75 Q-6.25 -57.5 -9.0 -57.4 L-10.15 -59.0 -10.25 -60.75 -10.65 -60.9 -10.4 -62.65 M-20.4 -43.65 L-18.4 -45.25 -17.9 -43.9 -16.9 -42.0 -16.9 -41.65 -17.4 -41.15 -17.65 -41.4 -20.4 -43.65 M-15.15 -41.5 L-14.9 -41.5 -14.65 -41.4 Q-11.25 -39.65 -15.15 -37.5 L-15.9 -37.25 -16.4 -37.75 -16.75 -38.15 -16.9 -38.25 -17.0 -38.4 -17.25 -39.15 -17.25 -39.25 -17.15 -39.65 -17.25 -40.0 -17.0 -40.4 -16.9 -40.65 -16.9 -40.75 -16.75 -40.75 -16.75 -40.9 -16.5 -41.0 -16.4 -41.15 -16.25 -41.25 -16.15 -41.25 -15.15 -41.5" fill="#151515" fill-rule="evenodd" stroke="none"/>
      <path d="M6.35 -49.65 L7.35 -49.25 -2.5 -47.75 -9.4 -46.15 -12.65 -47.0 -13.5 -47.15 -13.0 -47.65 -12.0 -48.4 -10.75 -48.9 -7.75 -49.25 -5.5 -49.4 -5.4 -49.0 -4.9 -49.0 -5.0 -49.5 -3.65 -49.5 -3.65 -48.5 -3.15 -48.15 -3.0 -49.65 0.85 -49.9 1.1 -49.5 6.35 -49.65" fill="#565656" fill-rule="evenodd" stroke="none"/>
      <path d="M-18.9 -60.0 L-15.75 -63.4 -14.5 -62.4 -17.75 -59.0 -18.9 -60.0 M-21.9 -60.65 L-22.25 -60.4 -22.0 -60.75 -21.9 -60.65 M22.25 0.75 L22.5 0.75 22.5 1.0 22.25 0.75 M23.1 5.85 L23.25 4.85 23.0 4.75 23.25 4.5 22.85 4.5 23.25 4.35 23.25 3.85 22.35 3.6 22.75 3.5 23.1 3.35 22.85 2.85 23.1 2.1 22.35 2.0 23.1 1.6 23.0 0.6 32.25 -0.25 Q33.75 4.25 33.1 5.0 L23.1 5.85" fill="#0b0b0b" fill-rule="evenodd" stroke="none"/>
      <path d="M49.85 7.75 Q48.85 9.5 37.6 10.35 L18.25 12.0 18.35 11.6 19.0 11.6 18.5 11.35 20.0 11.25 30.25 10.35 49.0 7.5 49.85 7.75 M-20.25 -62.25 L-20.25 -61.9 -21.0 -61.5 -20.75 -62.15 -20.25 -62.25 M-15.25 -41.65 L-15.15 -41.5 -16.15 -41.25 -16.25 -41.25 -16.4 -41.15 -16.5 -41.0 -16.75 -40.9 -16.9 -40.75 -16.9 -40.65 -17.0 -40.4 -17.25 -40.0 -17.15 -39.65 -17.25 -39.25 -17.25 -39.15 -17.0 -38.4 -16.9 -38.25 -16.75 -38.15 -16.65 -37.75 -17.5 -38.0 -17.9 -38.75 -18.0 -39.5 -18.0 -40.4 -17.4 -41.15 -16.9 -41.65 -16.0 -41.75 -15.25 -41.65" fill="#070707" fill-rule="evenodd" stroke="none"/>
      <path d="M-24.0 -55.15 L-26.0 -53.5 -29.0 -49.75 -36.15 -42.5 -37.5 -43.5 -33.9 -46.75 Q-32.0 -49.65 -30.15 -50.65 L-27.4 -54.15 -25.25 -56.5 -24.9 -57.0 -24.65 -56.65 -25.15 -55.75 -24.15 -55.5 -24.0 -55.15" fill="#343434" fill-rule="evenodd" stroke="none"/>
      <path d="M-14.9 -48.75 L-15.15 -52.9 -14.4 -48.65 -14.9 -48.75 M-3.25 -26.4 L-4.0 -28.4 -1.25 -27.9 1.75 -28.0 -1.4 -25.4 -2.65 -25.15 -3.15 -26.0 -3.25 -26.25 -3.25 -26.4 M-6.4 -14.9 L-2.75 -11.4 -1.15 -8.25 -12.25 -7.65 -12.65 -12.15 -12.75 -14.0 -12.75 -14.9 -6.4 -14.9" fill="#090909" fill-rule="evenodd" stroke="none"/>
      <path d="M-21.75 -28.5 L-26.25 -30.75 -29.75 -34.9 Q-33.0 -45.65 -27.75 -45.75 L-26.25 -46.75 -18.15 -49.0 -14.9 -48.75 -14.4 -48.65 -12.0 -48.4 -13.0 -47.65 Q-22.15 -50.4 -24.75 -42.65 -26.65 -35.15 -18.5 -32.25 L-21.4 -28.5 -21.75 -28.5 M43.0 -1.9 L43.35 1.5 Q46.5 5.35 47.6 5.1 L47.5 6.1 47.85 7.0 49.0 7.5 30.25 10.35 20.0 11.25 21.6 10.5 21.0 10.25 21.6 9.5 21.35 9.35 22.35 9.25 22.35 8.85 21.75 8.75 22.6 8.5 22.0 8.25 22.75 8.1 22.75 7.75 22.1 7.75 22.35 7.5 22.1 7.35 23.0 7.25 23.1 5.85 12.1 6.75 12.85 1.35 22.25 0.75 22.5 1.0 22.5 0.75 23.0 0.6 23.1 1.6 22.35 2.0 23.1 2.1 22.85 2.85 23.1 3.35 22.75 3.5 22.35 3.6 23.25 3.85 23.25 4.35 22.85 4.5 23.25 4.5 23.0 4.75 23.25 4.85 23.1 5.85 33.1 5.0 Q33.75 4.25 32.25 -0.25 L43.0 -1.9" fill="#060606" fill-rule="evenodd" stroke="none"/>
      <path d="M-21.0 -0.9 L-22.9 -11.5 -22.75 -24.0 -22.9 -26.0 -22.4 -27.15 -21.4 -28.5 -18.5 -32.25 -18.0 -33.0 -15.5 -32.65 -17.15 -32.5 -17.4 -32.15 -19.5 -27.4 -19.65 -27.0 -19.75 -26.4 -19.0 -25.75 -18.65 -25.5 -18.65 -23.75 -19.0 -25.75 -19.4 -22.65 -19.15 -13.4 -19.5 -10.25 -19.75 -10.5 -19.75 -22.0 -19.4 -24.15 -19.75 -26.4 -20.15 -22.65 -19.9 -21.25 -20.15 -10.5 -18.75 1.85 -19.0 2.0 -21.0 -0.9 M-13.65 -33.65 L-15.0 -33.4 -15.25 -35.9 -15.9 -37.25 -15.15 -37.5 -13.65 -33.65 M-18.75 -9.25 L-19.15 -9.65 -19.15 -12.25 -18.75 -13.5 -18.5 -12.9 -18.75 -9.25 M-18.65 -22.65 L-18.4 -22.5 -18.75 -18.5 -19.0 -21.0 -18.65 -22.65 M-18.75 -17.65 L-18.75 -14.9 -19.0 -15.4 -18.75 -17.65 M-13.4 -21.4 L-13.65 -19.5 -13.75 -19.15 -13.9 -18.9 -14.0 -18.25 -14.25 -17.5 -14.5 -15.65 -16.0 -11.75 -16.5 -15.65 Q-14.4 -21.25 -13.4 -21.4 M-15.75 -9.65 L-15.4 -8.4 -15.9 -8.65 -15.75 -9.65" fill="#2a2a2a" fill-rule="evenodd" stroke="none"/>
      <path d="M-13.25 -46.65 L-11.75 -45.65 -12.25 -44.9 -13.65 -45.5 -15.9 -45.9 -18.4 -45.25 -20.4 -43.65 -21.65 -41.5 -21.75 -39.15 -21.15 -36.75 -19.5 -34.75 -17.5 -33.65 -15.0 -33.4 -13.65 -33.65 -13.9 -32.9 -14.4 -32.65 -15.5 -32.65 -18.0 -33.0 Q-26.4 -36.25 -24.4 -42.15 -22.75 -48.65 -13.75 -46.75 L-13.25 -46.65" fill="#252525" fill-rule="evenodd" stroke="none"/>
      <path d="M-13.5 -47.15 L-12.65 -47.0 -13.25 -46.65 -13.75 -46.75 -13.5 -47.15" fill="#202020" fill-rule="evenodd" stroke="none"/>
      <path d="M38.1 -34.65 L44.25 -30.0 47.35 -20.75 46.85 -21.15 45.25 -25.75 44.5 -25.0 44.0 -26.15 45.1 -26.15 42.25 -30.15 38.1 -32.4 37.85 -32.65 38.85 -33.15 38.1 -34.65 M14.1 -50.75 L14.6 -50.75 16.5 -50.75 16.6 -50.65 16.75 -49.75 17.1 -49.65 17.25 -50.65 18.6 -50.65 22.25 -49.9 23.75 -49.4 24.6 -48.75 16.1 -49.4 7.75 -49.25 7.35 -49.25 6.35 -49.65 10.1 -50.15 10.1 -50.65 14.1 -50.75 M41.85 -28.15 L41.75 -28.4 42.6 -27.5 41.85 -28.15" fill="#595959" fill-rule="evenodd" stroke="none"/>
      <path d="M17.1 -51.0 L22.25 -52.0 Q29.0 -51.75 29.5 -50.4 L26.25 -50.4 Q25.6 -51.65 21.35 -51.5 L18.6 -50.65 17.25 -50.65 17.1 -51.0 M-21.75 -39.15 L-21.65 -41.5 -18.0 -40.4 -18.0 -39.5 -21.75 -39.15" fill="#363636" fill-rule="evenodd" stroke="none"/>
      <path d="M29.5 -50.4 Q34.6 -50.65 36.25 -44.0 36.0 -37.4 30.1 -36.25 L29.85 -36.25 29.75 -36.9 32.1 -37.5 34.0 -39.15 35.1 -41.15 35.5 -43.5 35.0 -45.9 33.35 -47.75 31.25 -49.0 29.0 -49.25 26.6 -48.65 25.35 -47.9 24.6 -48.75 24.85 -49.15 23.75 -49.4 22.25 -49.9 24.0 -50.4 26.25 -50.4 29.5 -50.4" fill="#5b5b5b" fill-rule="evenodd" stroke="none"/>
      <path d="M31.85 -35.75 L37.35 -34.65 27.1 -33.5 29.35 -34.9 30.0 -35.0 30.0 -35.75 31.85 -35.75 M19.0 -32.9 L23.3 -33.2 21.0 -33.0 19.0 -32.9" fill="#3f3f3f" fill-rule="evenodd" stroke="none"/>
      <path d="M29.75 -36.9 L29.85 -36.25 30.0 -36.15 30.0 -35.75 30.0 -35.0 29.35 -34.9 27.1 -33.5 23.3 -33.2 19.0 -32.9 18.85 -32.9 17.5 -32.75 16.85 -32.75 16.0 -32.65 14.85 -32.65 14.5 -32.5 13.75 -32.5 10.6 -44.0 9.75 -46.15 7.75 -49.25 16.1 -49.4 24.6 -48.75 25.35 -47.9 25.6 -47.75 27.75 -44.9 28.1 -43.9 28.1 -43.5 28.75 -41.4 28.75 -41.15 29.0 -40.5 29.6 -37.25 29.75 -37.15 29.75 -36.9" fill="#b2b2b2" fill-rule="evenodd" stroke="none"/>
      <path d="M32.1 -37.5 L29.75 -36.9 29.75 -37.15 29.6 -37.25 29.0 -40.5 28.75 -41.15 29.25 -41.15 29.6 -41.0 32.1 -37.5" fill="#2d2d2d" fill-rule="evenodd" stroke="none"/>
      <path d="M31.0 -41.15 L33.25 -39.5 34.0 -39.15 32.1 -37.5 29.6 -41.0 30.1 -41.0 31.0 -41.15 M36.35 -32.0 L37.0 -32.25 37.6 -31.5 36.35 -32.0" fill="#1b1b1b" fill-rule="evenodd" stroke="none"/>
      <path d="M35.1 -41.15 L34.0 -39.15 33.25 -39.5 31.0 -41.15 31.6 -41.65 31.85 -42.0 35.1 -41.15" fill="#0a0a0a" fill-rule="evenodd" stroke="none"/>
      <path d="M27.0 -47.75 L27.5 -47.75 28.0 -45.15 27.75 -44.9 25.6 -47.75 27.0 -47.75 M24.6 -48.75 L23.75 -49.4 24.85 -49.15 24.6 -48.75" fill="#5a5a5a" fill-rule="evenodd" stroke="none"/>
      <path d="M28.0 -45.15 L28.35 -45.25 29.0 -45.25 29.75 -45.0 28.6 -44.5 28.1 -43.9 27.75 -44.9 28.0 -45.15 M28.75 -41.4 L29.0 -41.25 29.25 -41.15 28.75 -41.15 28.75 -41.4 M-9.4 -46.15 L-11.9 -41.4 -11.65 -38.75 -12.0 -32.5 -12.9 -32.4 -14.0 -32.4 -14.4 -32.65 -13.9 -32.9 -13.65 -33.65 -15.15 -37.5 Q-11.25 -39.65 -14.65 -41.4 L-14.9 -41.5 -15.15 -41.5 -15.25 -41.65 -15.15 -42.15 -15.0 -43.25 -14.65 -44.5 -14.15 -44.65 -12.25 -44.9 -11.75 -45.65 -13.25 -46.65 -12.65 -47.0 -9.4 -46.15" fill="#191919" fill-rule="evenodd" stroke="none"/>
      <path d="M-21.65 -41.5 L-20.4 -43.65 -17.65 -41.4 -17.4 -41.15 -18.0 -40.4 -21.65 -41.5" fill="#272727" fill-rule="evenodd" stroke="none"/>
      <path d="M-17.9 -38.75 L-21.75 -39.15 -18.0 -39.5 -17.9 -38.75" fill="#676767" fill-rule="evenodd" stroke="none"/>
      <path d="M21.1 -7.15 L11.6 -6.4 11.35 -7.9 12.0 -8.0 20.85 -8.65 20.85 -7.75 21.5 -7.4 21.0 -7.4 21.1 -7.15 M-16.0 -41.75 L-15.4 -41.75 -15.25 -41.75 -15.25 -41.65 -16.0 -41.75" fill="#232323" fill-rule="evenodd" stroke="none"/>
      <path d="M-15.15 -42.15 L-15.25 -41.65 -15.25 -41.75 -15.4 -41.75 -15.15 -42.15" fill="#353535" fill-rule="evenodd" stroke="none"/>
      <path d="M-17.5 -38.0 L-16.65 -37.75 -16.75 -37.5 -18.9 -35.65 -17.5 -38.0" fill="#aeaeae" fill-rule="evenodd" stroke="none"/>
      <path d="M-20.5 -37.0 L-17.9 -38.75 -17.5 -38.0 -20.5 -37.0" fill="#a5a5a5" fill-rule="evenodd" stroke="none"/>
      <path d="M-15.0 -33.4 L-17.5 -33.65 -17.0 -34.9 -16.75 -37.5 -16.65 -37.75 -16.4 -37.75 -15.9 -37.25 -15.25 -35.9 -15.0 -33.4" fill="#6b6b6b" fill-rule="evenodd" stroke="none"/>
      <path d="M-21.15 -36.75 L-21.75 -39.15 -17.9 -38.75 -20.5 -37.0 -21.15 -36.75" fill="#666666" fill-rule="evenodd" stroke="none"/>
      <path d="M-19.5 -34.75 L-21.15 -36.75 -20.5 -37.0 -17.5 -38.0 -18.9 -35.65 -19.5 -34.75" fill="#a4a4a4" fill-rule="evenodd" stroke="none"/>
      <path d="M-17.5 -33.65 L-19.5 -34.75 -18.9 -35.65 -16.75 -37.5 -17.0 -34.9 -17.5 -33.65" fill="#adadad" fill-rule="evenodd" stroke="none"/>
      <path d="M37.35 -34.65 L38.1 -34.65 38.85 -33.15 37.85 -32.65 37.0 -32.25 36.35 -32.0 32.85 -30.65 15.85 -29.15 15.1 -31.4 14.35 -31.9 21.85 -32.4 22.5 -32.65 21.0 -33.0 23.3 -33.2 27.1 -33.5 37.35 -34.65 M40.5 -18.5 L41.6 -18.75 42.25 -18.9 39.35 -14.9 40.5 -13.5 40.6 -11.75 41.6 -10.9 41.85 -9.5 42.85 -7.65 43.0 -1.9 32.25 -0.25 22.25 -2.65 Q21.0 -6.5 21.6 -7.0 L21.1 -7.15 30.6 -7.9 30.35 -9.5 29.5 -9.5 20.6 -9.75 20.25 -9.75 19.25 -13.4 26.6 -14.0 34.85 -16.75 40.0 -18.25 40.5 -18.5" fill="#6c6c6c" fill-rule="evenodd" stroke="none"/>
      <path d="M13.75 -32.5 L14.5 -32.5 14.85 -32.65 16.0 -32.65 16.85 -32.75 17.5 -32.75 18.85 -32.9 19.0 -32.9 21.0 -33.0 22.5 -32.65 21.85 -32.4 14.35 -31.9 13.75 -32.0 14.25 -32.25 13.1 -32.25 13.75 -32.5" fill="#707070" fill-rule="evenodd" stroke="none"/>
      <path d="M-15.5 -32.65 L-14.4 -32.65 -14.0 -32.4 -14.25 -32.15 -14.9 -31.9 -19.5 -27.4 -17.4 -32.15 -17.15 -32.5 -15.5 -32.65" fill="#393939" fill-rule="evenodd" stroke="none"/>
      <path d="M9.1 -32.15 L9.6 -32.15 10.35 -32.25 11.25 -32.25 11.75 -32.4 13.75 -32.5 13.1 -32.25 14.25 -32.25 13.75 -32.0 14.35 -31.9 7.85 -31.25 6.5 -31.25 5.35 -31.75 9.1 -32.15" fill="#6a6a6a" fill-rule="evenodd" stroke="none"/>
      <path d="M-12.0 -32.5 L-5.4 -32.15 -2.4 -31.4 9.1 -32.15 5.35 -31.75 -12.15 -30.65 -14.9 -31.9 -14.25 -32.15 -12.9 -32.4 -12.0 -32.5" fill="#3e3e3e" fill-rule="evenodd" stroke="none"/>
      <path d="M29.5 -9.5 L30.35 -9.5 30.6 -7.9 21.1 -7.15 21.0 -7.4 21.5 -7.4 20.85 -7.75 20.85 -8.65 29.5 -9.5 M-14.0 -32.4 L-12.9 -32.4 -14.25 -32.15 -14.0 -32.4" fill="#2e2e2e" fill-rule="evenodd" stroke="none"/>
      <path d="M44.5 -25.0 L45.25 -25.75 46.85 -21.15 47.35 -19.75 42.25 -18.9 42.35 -19.5 43.0 -21.0 44.5 -25.0" fill="#131912" fill-rule="evenodd" stroke="none"/>
      <path d="M40.6 -11.75 L40.5 -13.5 39.35 -14.9 42.25 -18.9 47.35 -19.75 47.75 -12.9 47.6 -12.65 40.6 -11.75" fill="#5d5d5d" fill-rule="evenodd" stroke="none"/>
      <path d="M40.6 -11.75 L47.6 -12.65 48.1 -10.4 48.0 -7.0 41.6 -10.9 40.6 -11.75" fill="#5f5f5f" fill-rule="evenodd" stroke="none"/>
      <path d="M48.35 -13.4 L49.85 7.75 49.0 7.5 49.0 3.5 48.5 1.85 48.6 1.5 49.1 -1.4 Q48.1 -3.25 48.5 -6.25 L48.0 -7.0 48.1 -10.4 47.6 -12.65 47.75 -12.9 48.35 -13.4" fill="#262626" fill-rule="evenodd" stroke="none"/>
      <path d="M38.1 -32.4 L42.25 -30.15 45.1 -26.15 44.0 -26.15 43.0 -27.0 42.85 -27.25 42.6 -27.5 41.75 -28.4 40.75 -29.4 40.0 -30.25 39.85 -30.25 39.25 -31.0 38.1 -32.4" fill="#696969" fill-rule="evenodd" stroke="none"/>
      <path d="M18.25 12.0 L0.75 13.6 -14.5 14.25 -16.0 11.1 -17.4 -7.15 -17.75 -8.15 -17.4 -9.9 -17.4 -25.0 -12.15 -30.65 -10.0 -29.4 -7.4 -29.0 -7.5 -28.65 -8.0 -28.0 -10.5 -25.4 -10.25 -25.5 -10.4 -24.75 -11.9 -21.25 -12.9 -21.25 -13.4 -21.4 Q-14.4 -21.25 -16.5 -15.65 L-16.0 -11.75 -15.9 -10.4 -15.75 -10.0 -15.75 -9.65 -15.9 -8.65 -15.4 -8.4 -12.25 -7.65 -11.65 -0.65 -11.65 -0.5 -10.65 12.75 10.5 12.1 18.5 11.35 19.0 11.6 18.35 11.6 18.25 12.0" fill="#050505" fill-rule="evenodd" stroke="none"/>
      <path d="M-18.5 7.85 L-20.25 5.5 -21.0 -0.9 -19.0 2.0 -18.65 3.25 -18.5 7.85" fill="#434343" fill-rule="evenodd" stroke="none"/>
      <path d="M12.75 -28.9 L13.1 -28.9 14.75 -13.15 19.25 -13.4 20.25 -9.75 12.0 -8.0 11.35 -7.9 11.6 -6.4 21.1 -7.15 21.6 -7.0 Q21.0 -6.5 22.25 -2.65 L12.85 1.35 0.1 1.75 -1.25 -4.0 -1.25 -8.0 -1.15 -8.25 -2.75 -11.4 -6.4 -14.9 -5.65 -14.9 0.85 -14.25 9.5 -13.15 10.0 -13.0 11.5 -22.25 11.5 -22.4 11.75 -23.5 12.5 -28.15 12.5 -28.5 12.75 -28.9 M14.0 -28.75 L14.1 -28.4 14.0 -27.5 13.6 -27.65 13.6 -28.75 14.0 -28.75 M13.75 -26.4 L13.75 -27.25 14.1 -27.15 14.1 -26.25 13.75 -26.4 M14.35 -23.5 L14.0 -23.65 14.0 -24.5 14.35 -24.4 14.35 -23.5 M14.25 -24.9 L13.85 -25.0 13.85 -25.9 14.25 -25.75 14.25 -24.9 M14.5 -22.9 L14.5 -22.25 14.1 -22.4 14.1 -23.0 14.5 -22.9 M14.6 -20.9 L14.25 -21.0 14.25 -21.65 14.6 -21.5 14.6 -20.9 M14.75 -20.15 L14.75 -19.65 14.35 -19.75 14.35 -20.25 14.75 -20.15" fill="#282828" fill-rule="evenodd" stroke="none"/>
      <path d="M13.1 -28.9 L14.0 -28.75 13.6 -28.75 13.6 -27.65 14.0 -27.5 14.1 -28.4 14.5 -28.15 19.25 -13.4 14.75 -13.15 13.1 -28.9 M13.75 -26.4 L14.1 -26.25 14.1 -27.15 13.75 -27.25 13.75 -26.4 M14.5 -22.9 L14.1 -23.0 14.1 -22.4 14.5 -22.25 14.5 -22.9 M14.25 -24.9 L14.25 -25.75 13.85 -25.9 13.85 -25.0 14.25 -24.9 M14.35 -23.5 L14.35 -24.4 14.0 -24.5 14.0 -23.65 14.35 -23.5 M14.6 -20.9 L14.6 -21.5 14.25 -21.65 14.25 -21.0 14.6 -20.9 M14.75 -20.15 L14.35 -20.25 14.35 -19.75 14.75 -19.65 14.75 -20.15" fill="#797979" fill-rule="evenodd" stroke="none"/>
      <path d="M11.5 -22.25 L10.0 -13.0 9.5 -13.15 11.0 -21.5 11.5 -22.25" fill="#161616" fill-rule="evenodd" stroke="none"/>
      <path d="M-10.4 -24.75 L-8.9 -26.5 -8.4 -22.9 -8.9 -22.5 -10.15 -19.5 -11.9 -21.25 -12.75 -14.9 -12.75 -14.0 -13.4 -13.25 -14.5 -15.65 -14.25 -17.5 -14.0 -18.25 -13.9 -18.9 -13.75 -19.15 -13.65 -19.5 -12.9 -21.25 -11.9 -21.25 -10.4 -24.75" fill="#575757" fill-rule="evenodd" stroke="none"/>
      <path d="M-7.15 -15.9 L-10.15 -19.5 -8.9 -22.5 -8.4 -22.9 -7.15 -15.9 M-12.75 -14.0 L-12.65 -12.15 -13.4 -13.25 -12.75 -14.0" fill="#818181" fill-rule="evenodd" stroke="none"/>
      <path d="M-7.15 -15.9 L-6.65 -15.25 -6.4 -14.9 -12.75 -14.9 -11.9 -21.25 -10.15 -19.5 -7.15 -15.9" fill="#050704" fill-rule="evenodd" stroke="none"/>
      <path d="M-13.4 -21.4 L-12.9 -21.25 -13.65 -19.5 -13.4 -21.4 M-12.65 -12.15 L-12.25 -7.65 -15.4 -8.4 -15.75 -9.65 -15.75 -10.0 -15.9 -10.4 -16.0 -11.75 -14.5 -15.65 -13.4 -13.25 -12.65 -12.15" fill="#313131" fill-rule="evenodd" stroke="none"/>
      <path d="M-7.4 -26.75 L-7.65 -27.15 Q-4.15 -29.5 -4.25 -26.5 L-6.0 -26.5 -7.4 -26.75" fill="#141414" fill-rule="evenodd" stroke="none"/>
      <path d="M-43.4 -22.4 L-44.15 -22.25 -46.75 -22.5 -48.25 -23.65 -48.15 -25.0 -47.5 -25.65 -45.4 -26.4 -45.25 -26.0 -43.65 -25.5 -41.5 -25.5 -45.65 -24.65 -46.0 -24.5 -46.9 -24.25 -47.15 -24.0 -47.0 -23.75 -46.15 -23.5 -41.75 -23.25 -43.65 -23.0 -43.15 -22.9 -43.4 -22.4 M12.85 1.35 L22.25 -2.65 22.5 0.75 22.25 0.75 12.85 1.35 M47.6 5.1 L48.5 1.85 49.0 3.5 49.0 7.5 47.85 7.0 47.5 6.1 47.6 5.1" fill="#121212" fill-rule="evenodd" stroke="none"/>
      <path d="M-5.65 -14.9 L-6.4 -14.9 -6.65 -15.25 -5.65 -14.9" fill="#1e1e1e" fill-rule="evenodd" stroke="none"/>
      <path d="M12.0 -8.0 L20.25 -9.75 20.6 -9.75 20.85 -8.65 12.0 -8.0 M43.0 -1.9 L42.85 -7.65 41.85 -9.5 41.6 -10.9 48.0 -7.0 48.5 -6.25 Q48.1 -3.25 49.1 -1.4 L48.6 1.5 48.5 1.85 47.6 5.1 Q46.5 5.35 43.35 1.5 L43.0 -1.9" fill="#3d3d3d" fill-rule="evenodd" stroke="none"/>
      <path d="M20.85 -8.65 L20.6 -9.75 29.5 -9.5 20.85 -8.65" fill="#4c4c4c" fill-rule="evenodd" stroke="none"/>
      <path d="M15.85 -29.15 L18.6 -29.4 19.85 -29.4 32.0 -30.4 32.0 -30.5 32.35 -30.5 32.75 -30.65 34.85 -16.9 34.85 -16.65 26.6 -14.0 25.6 -14.0 19.25 -13.4 19.1 -13.5 18.85 -14.65 18.6 -15.15 18.85 -15.75 18.35 -17.0 18.35 -17.5 17.0 -22.25 17.35 -23.0 16.1 -28.65 15.85 -29.15 M36.25 -32.0 L36.85 -32.25 37.5 -32.65 37.85 -32.65 38.0 -32.5 38.25 -32.4 38.35 -32.15 42.1 -30.15 43.0 -28.75 43.1 -28.5 44.5 -26.4 45.0 -25.9 44.5 -26.15 43.85 -26.25 44.6 -25.0 44.5 -25.0 44.5 -24.4 44.1 -23.4 43.85 -23.0 43.5 -22.0 43.35 -21.75 43.1 -21.0 43.0 -20.9 41.85 -27.5 41.85 -28.15 41.6 -28.4 41.6 -28.65 40.85 -29.4 40.35 -29.75 41.0 -26.65 41.1 -24.75 41.6 -22.65 41.6 -22.15 41.75 -20.75 42.25 -18.9 41.5 -18.65 41.5 -20.65 41.0 -22.75 40.85 -24.65 40.35 -26.75 40.25 -28.65 39.85 -30.25 39.35 -30.9 39.25 -31.0 38.6 -31.15 38.6 -30.5 39.0 -27.4 39.1 -27.25 39.25 -26.5 39.35 -25.0 39.75 -23.25 39.85 -21.75 40.35 -19.25 40.25 -18.25 39.85 -18.15 39.85 -19.65 38.6 -27.4 38.5 -28.9 38.0 -31.25 37.75 -31.5 37.6 -31.5 36.25 -32.0" fill="#121212" fill-opacity="0.50980395" fill-rule="evenodd" stroke="none"/>
      <path d="M45.0 -25.9 L45.0 -25.65 44.6 -25.0 43.85 -26.25 44.5 -26.15 45.0 -25.9 M43.0 -20.9 L42.75 -19.9 42.6 -19.65 42.25 -18.9 41.75 -20.75 41.6 -22.15 41.6 -22.65 41.1 -24.75 41.0 -26.65 40.35 -29.75 40.85 -29.4 41.6 -28.65 41.6 -28.4 41.85 -28.15 41.85 -27.5 43.0 -20.9 M41.5 -18.65 L40.5 -18.4 40.25 -18.25 40.35 -19.25 39.85 -21.75 39.75 -23.25 39.35 -25.0 39.25 -26.5 39.1 -27.25 39.0 -27.4 38.6 -30.5 38.6 -31.15 39.25 -31.0 39.35 -30.9 39.85 -30.25 40.25 -28.65 40.35 -26.75 40.85 -24.65 41.0 -22.75 41.5 -20.65 41.5 -18.65" fill="#121212" fill-rule="evenodd" stroke="none"/>
      <path d="M34.85 -16.65 L34.85 -16.9 32.75 -30.65 36.25 -32.0 37.6 -31.5 37.75 -31.5 38.0 -31.25 38.5 -28.9 38.6 -27.4 39.85 -19.65 39.85 -18.15 34.85 -16.65" fill="#242424" fill-opacity="0.50980395" fill-rule="evenodd" stroke="none"/>
      <path d="M15.85 -29.15 L16.1 -28.65 15.6 -28.5 15.5 -29.15 15.85 -29.15" fill="#0c0c0c" fill-rule="evenodd" stroke="none"/>
      <path d="M-11.9 -21.25 L-10.75 -24.25 -10.75 -24.75 -10.65 -25.0 -10.5 -25.25 -10.5 -25.4 -7.75 -28.4 -7.75 -28.5 -7.5 -28.65 -7.4 -29.0 -6.5 -28.9 -6.25 -28.75 -5.0 -28.65 -4.25 -28.5 -4.0 -28.4 -0.5 -27.9 5.35 -28.25 6.0 -28.25 11.1 -28.75 12.1 -28.75 12.75 -28.9 13.1 -28.9 14.0 -28.75 14.6 -29.0 15.5 -29.15 15.6 -28.5 17.0 -22.25 16.85 -21.9 17.0 -21.9 18.0 -17.4 18.0 -17.25 18.1 -17.0 18.1 -16.75 18.25 -16.65 18.6 -15.15 18.6 -14.75 18.75 -14.4 18.85 -13.4 11.6 -12.75 10.0 -13.0 9.5 -13.15 1.5 -14.0 1.0 -14.0 -6.5 -14.9 -6.9 -15.4 -7.0 -15.65 -7.15 -15.75 -10.9 -20.25 -11.9 -21.15 -11.9 -21.25" fill="#030303" fill-opacity="0.50980395" fill-rule="evenodd" stroke="none"/>
      <path d="M-11.9 -21.25 L-11.9 -21.15 -12.5 -18.15 -12.25 -17.75 -12.9 -13.9 -12.75 -13.25 -12.5 -10.4 -12.4 -9.9 -12.25 -7.65 -14.75 -8.0 -15.5 -8.4 -15.9 -8.4 -16.15 -11.5 -16.15 -11.75 -16.25 -12.15 -16.5 -14.25 -16.5 -15.65 -16.4 -16.15 -14.25 -20.5 -13.9 -21.65 -13.4 -21.4 -12.9 -21.25 -11.9 -21.25 M-19.0 -23.75 L-19.0 -25.25 -19.15 -24.15 -19.0 -23.75 M-20.0 -23.9 L-19.75 -26.0 -19.75 -26.4 -18.65 -25.4 -18.65 -24.0 -18.9 -23.15 -18.65 -22.75 -18.4 -22.65 -18.5 -18.65 -18.75 -17.25 -18.75 -14.9 -19.0 -14.4 -18.75 -14.15 -18.75 -13.0 -18.5 -12.75 -18.5 -12.65 -18.65 -11.65 -18.75 -9.25 -19.15 -9.25 -19.15 -9.65 -19.25 -9.9 -19.25 -10.15 -19.5 -10.15 -19.9 -10.4 -20.0 -10.4 -20.0 -13.4 -20.15 -13.4 -20.0 -13.65 -19.9 -14.25 -19.9 -23.4 -20.0 -23.9 M-19.25 -22.65 L-19.15 -22.15 -19.0 -23.15 -19.4 -22.65 -19.25 -22.65 M-19.4 -11.5 L-19.25 -10.5 -19.4 -11.75 -19.4 -11.5" fill="#000000" fill-opacity="0.50980395" fill-rule="evenodd" stroke="none"/>
      <path d="M16.1 -28.65 L17.35 -23.0 17.0 -22.25 18.35 -17.5 18.35 -17.0 18.85 -15.75 18.6 -15.15 18.85 -14.65 19.1 -13.5 19.25 -13.4 18.85 -13.4 18.75 -14.4 18.6 -14.75 18.6 -15.15 18.25 -16.65 18.1 -16.75 18.1 -17.0 18.0 -17.25 18.0 -17.4 17.0 -21.9 16.85 -21.9 17.0 -22.25 15.6 -28.5 16.1 -28.65" fill="#131313" fill-rule="evenodd" stroke="none"/>
      <path d="M47.1 -21.15 L46.85 -21.15 46.75 -21.5 46.6 -21.75 46.25 -23.25 47.1 -21.5 47.1 -21.15 M47.25 -20.15 L47.1 -20.65 47.1 -20.75 47.25 -20.15" fill="#101010" fill-rule="evenodd" stroke="none"/>
      <path d="M47.1 -20.75 L47.1 -21.15 47.1 -21.5 47.85 -20.5 48.25 -13.5 47.85 -13.65 47.75 -13.65 47.75 -14.25 47.6 -14.9 47.6 -16.15 47.5 -16.9 47.5 -18.0 47.35 -18.75 47.35 -19.75 47.25 -20.15 47.1 -20.75" fill="#111111" fill-rule="evenodd" stroke="none"/>
      <path d="M46.85 -21.15 L47.1 -21.15 47.1 -20.75 46.85 -21.15 M48.25 -13.5 L48.35 -13.25 48.1 -13.0 47.75 -12.9 47.75 -13.65 47.85 -13.65 48.25 -13.5" fill="#0f0f0f" fill-opacity="0.50980395" fill-rule="evenodd" stroke="none"/>
    </g>
  </defs>
</svg>
