<?xml version="1.0" encoding="UTF-8" standalone="no"?>
<svg xmlns:xlink="http://www.w3.org/1999/xlink" height="1034.2px" width="773.35px" xmlns="http://www.w3.org/2000/svg">
  <g transform="matrix(1.0, 0.0, 0.0, 1.0, 365.9, 551.4)">
    <use height="96.65" transform="matrix(1.0, 0.0, 0.0, 1.0, -172.9, -80.9)" width="318.0" xlink:href="#shape0"/>
  </g>
  <defs>
    <g id="shape0" transform="matrix(1.0, 0.0, 0.0, 1.0, 172.9, 80.9)">
      <path d="M65.5 -70.65 L144.1 -76.15 145.0 -76.15 145.1 -74.65 143.6 -74.65 143.35 -74.5 142.25 -74.5 141.75 -74.4 140.75 -74.4 140.1 -74.25 139.0 -74.25 138.35 -74.15 137.35 -74.15 136.75 -74.0 135.75 -74.0 135.1 -73.9 134.0 -73.9 133.1 -73.75 130.5 -73.65 129.6 -73.5 127.0 -73.4 126.1 -73.25 123.5 -73.15 122.6 -73.0 121.6 -73.0 120.85 -72.9 119.85 -72.9 119.1 -72.75 112.75 -72.4 111.85 -72.25 109.25 -72.15 108.25 -72.0 105.6 -71.9 104.75 -71.75 103.85 -71.75 101.1 -71.5 98.6 -71.4 97.6 -71.25 95.0 -71.15 94.1 -71.0 91.5 -70.9 90.5 -70.75 87.85 -70.65 87.1 -70.5 84.35 -70.4 83.35 -70.25 80.75 -70.15 79.85 -70.0 77.25 -69.9 76.35 -69.75 73.75 -69.65 72.85 -69.5 71.85 -69.5 71.1 -69.4 70.1 -69.4 69.1 -69.25 63.0 -68.9 62.1 -68.75 59.5 -68.65 58.5 -68.5 55.85 -68.4 55.0 -68.25 52.35 -68.15 51.35 -68.0 48.85 -67.9 47.85 -67.75 45.25 -67.65 42.5 -67.4 41.75 -67.4 39.0 -67.15 38.1 -67.15 37.1 -67.0 34.6 -66.9 33.6 -66.75 31.0 -66.65 30.0 -66.5 27.5 -66.4 26.5 -66.25 24.75 -66.15 24.25 -66.15 24.25 -66.65 64.25 -70.5 65.1 -70.65 65.5 -70.65 M-7.65 -14.5 L-5.15 -13.4 -7.25 -13.65 -7.65 -14.5 M21.35 -1.15 L31.35 1.25 22.1 2.25 21.75 2.25 21.35 -1.15" fill="#1e1e1e" fill-rule="evenodd" stroke="none"/>
      <path d="M65.5 -70.65 L65.1 -70.65 64.25 -70.5 24.25 -66.65 15.25 -65.75 14.75 -65.65 14.85 -65.4 14.1 -65.4 14.25 -65.5 14.75 -65.65 13.0 -65.65 12.6 -65.5 12.0 -65.4 11.0 -65.4 9.85 -65.25 7.6 -65.15 6.6 -65.0 6.0 -65.0 5.35 -64.9 4.75 -64.9 4.6 -64.9 4.5 -66.15 4.6 -66.5 9.6 -67.0 10.0 -67.0 10.0 -67.15 13.1 -67.4 92.0 -75.9 92.1 -73.65 97.85 -74.0 65.5 -70.65 M21.9 -65.95 L21.35 -65.9 21.25 -65.9 21.9 -65.95 M20.35 -65.9 L19.6 -65.75 19.5 -65.75 20.35 -65.9 M18.4 -65.7 L17.85 -65.65 17.75 -65.65 18.4 -65.7 M16.85 -65.65 L16.1 -65.5 16.0 -65.5 16.85 -65.65 M-32.15 -40.25 L-33.5 -39.9 -34.65 -40.65 -25.75 -54.75 -25.75 -55.25 -25.25 -55.75 -24.4 -56.0 -26.5 -52.9 -26.4 -52.5 -27.65 -50.5 -27.75 -49.65 -30.15 -46.4 -31.0 -44.5 -31.75 -44.15 -32.15 -42.65 -33.0 -41.4 -32.25 -40.9 -32.15 -40.25 M-25.9 -56.5 L-30.4 -54.0 -31.25 -54.15 -31.9 -54.9 -30.0 -58.0 -23.15 -61.15 -23.15 -60.75 -23.15 -60.65 -24.15 -59.25 -24.25 -59.15 -24.25 -59.0 -24.9 -58.65 -25.9 -56.5 M-22.65 -62.0 L-45.9 -59.75 -46.15 -59.65 -50.75 -59.4 -50.9 -60.65 -49.15 -60.9 -48.9 -60.9 -48.15 -61.0 -47.15 -61.0 -46.75 -61.15 -46.4 -61.15 -41.15 -61.5 -40.0 -61.65 -37.4 -61.75 -36.5 -61.9 -33.9 -62.0 -32.9 -62.15 -30.4 -62.25 -23.25 -62.75 -22.4 -62.9 -19.9 -63.0 -18.75 -63.15 -15.75 -63.25 -15.15 -63.4 -12.65 -63.5 -11.75 -63.65 -9.0 -63.75 -8.15 -63.9 -6.4 -63.9 -6.25 -63.65 -9.15 -63.4 -10.75 -63.15 -11.4 -63.15 -13.4 -62.15 -14.25 -61.75 -18.4 -59.9 -19.9 -60.75 -19.25 -61.5 -18.9 -62.4 -22.65 -62.0 M-172.0 -52.25 L-172.75 -52.25 -172.9 -53.9 -172.25 -54.15 -172.0 -52.25 M-18.5 -66.4 Q-11.15 -80.4 -8.65 -80.75 L-17.4 -66.65 -17.5 -66.4 -17.75 -66.15 -17.75 -66.0 -18.4 -65.9 -18.65 -65.9 -18.5 -66.4 M-15.15 -65.0 L-14.5 -65.65 -10.25 -67.65 -11.65 -65.25 -15.15 -65.0 M-14.65 -46.5 L-15.0 -46.15 Q-24.25 -47.75 -25.65 -41.4 -27.9 -35.9 -19.25 -32.15 L-19.75 -31.4 Q-27.9 -34.25 -26.0 -41.9 -23.75 -49.65 -14.15 -47.0 L-14.65 -46.5 M-16.4 -40.75 L-16.25 -40.65 -16.9 -40.65 -16.4 -40.75 M-18.65 -37.4 L-18.4 -37.25 -18.65 -37.25 -18.65 -37.4" fill="#000000" fill-rule="evenodd" stroke="none"/>
      <path d="M-44.5 -21.65 L-46.75 -21.5 -48.0 -21.75 -49.25 -22.65 Q-50.65 -24.65 -46.5 -25.65 L-46.4 -25.25 -45.0 -24.9 -42.65 -24.9 -42.65 -24.75 -43.4 -24.65 -46.9 -23.9 -47.25 -23.75 -48.15 -23.5 -48.4 -23.25 -48.25 -23.0 -47.25 -22.75 -43.65 -22.55 -44.75 -22.25 -44.25 -22.0 -44.5 -21.65 M92.0 -75.9 L99.1 -76.4 99.35 -74.25 98.0 -74.0 97.85 -74.0 92.1 -73.65 92.0 -75.9 M47.1 6.75 L48.0 3.5 48.5 4.5 48.6 9.1 47.35 8.5 47.1 6.75" fill="#121212" fill-rule="evenodd" stroke="none"/>
      <path d="M6.25 -70.4 Q9.25 -69.4 12.25 -69.5 L13.1 -67.4 10.0 -67.15 9.1 -68.9 6.85 -69.5 5.85 -70.25 6.25 -70.4 M8.25 -62.5 L8.1 -63.4 9.0 -63.75 9.85 -65.25 11.0 -65.4 12.0 -65.4 13.1 -65.4 12.75 -63.9 12.25 -63.5 9.6 -63.15 8.25 -62.5" fill="#454545" fill-rule="evenodd" stroke="none"/>
      <path d="M0.75 -70.25 L0.75 -71.9 1.25 -72.65 2.75 -73.5 5.0 -73.15 5.85 -72.25 6.25 -70.4 5.85 -70.25 3.85 -70.5 2.1 -70.25 0.75 -70.25 M-10.75 -63.15 Q-12.5 -60.5 -9.75 -57.0 L-8.65 -48.65 -11.5 -48.4 -13.4 -62.15 -11.4 -63.15 -10.75 -63.15" fill="#4e4e4e" fill-rule="evenodd" stroke="none"/>
      <path d="M-5.5 -68.5 L-3.4 -68.75 0.75 -70.25 2.1 -70.25 Q1.25 -70.0 1.1 -65.5 L2.0 -62.75 -0.4 -61.65 -0.9 -61.75 -2.9 -62.25 -5.15 -62.25 -4.4 -62.9 -4.15 -64.15 -1.25 -64.5 -1.9 -65.25 -3.0 -65.5 -2.65 -65.9 -4.15 -65.75 -4.75 -68.0 -5.5 -68.5" fill="#202020" fill-rule="evenodd" stroke="none"/>
      <path d="M47.0 -19.65 L47.35 -12.65 47.85 -12.15 47.35 -11.4 46.75 -18.65 46.5 -19.9 47.0 -19.65 M-25.75 -55.25 L-25.9 -56.5 -24.9 -58.65 -24.25 -59.0 -24.25 -59.15 -24.15 -59.25 -23.15 -60.65 -23.15 -60.75 -22.9 -61.25 -23.15 -61.15 -22.65 -62.0 -18.9 -62.4 -19.25 -61.5 -19.9 -60.75 -21.65 -58.15 -24.15 -55.9 -24.25 -56.25 -24.4 -56.0 -25.25 -55.75 -25.75 -55.25 M-20.4 -64.65 L-18.5 -66.4 -18.65 -65.9 -18.4 -65.9 -17.75 -66.0 -17.75 -66.15 -17.5 -66.4 -17.4 -66.65 -17.0 -67.0 -16.65 -66.65 -16.65 -66.5 -17.15 -64.9 -20.4 -64.65 M-6.5 -65.65 L-6.4 -67.4 -5.5 -68.5 -4.75 -68.0 -4.15 -65.75 -6.5 -65.65 M-6.25 -63.65 L-6.4 -63.9 -5.5 -64.0 -5.0 -64.15 -4.15 -64.15 -4.4 -62.9 -5.15 -62.25 -5.15 -63.15 -5.75 -62.9 -6.25 -63.65 M25.6 -49.75 L23.75 -49.9 21.5 -49.15 17.85 -50.0 21.0 -51.0 Q24.85 -51.0 25.6 -49.75 M39.5 -17.15 L37.5 -30.4 37.0 -30.65 36.5 -31.25 37.25 -31.65 38.6 -30.15 38.1 -30.15 40.0 -17.25 39.5 -17.15 M32.25 -29.65 L34.5 -15.5 25.6 -12.75 18.1 -12.15 13.85 -26.25 13.1 -27.65 15.0 -28.15 32.25 -29.65 M39.35 -29.25 L39.5 -29.25 40.25 -28.25 41.25 -20.5 41.85 -18.4 41.75 -17.75 41.25 -17.65 39.35 -29.25 M42.1 -26.5 L42.35 -26.15 42.75 -25.9 43.5 -25.15 44.0 -23.9 42.5 -20.0 41.35 -27.15 42.1 -26.5 M-20.4 -8.25 L-20.75 -9.0 -20.4 -24.75 -20.0 -22.0 -20.0 -17.75 -20.4 -15.75 -20.15 -13.4 -20.15 -8.5 -20.4 -8.25 M-21.0 -9.25 L-21.4 -9.25 -21.15 -25.5 -21.0 -9.25 M-7.25 -24.65 L-7.0 -25.15 -4.9 -25.25 -6.25 -24.65 -7.25 -24.65 M-2.5 -6.65 L-2.4 -2.65 -1.15 3.25 11.85 2.85 11.1 8.35 21.75 7.5 22.1 7.5 21.6 7.75 22.25 8.25 22.1 8.85 21.25 8.85 21.25 9.35 21.6 9.5 21.1 9.5 21.0 10.1 21.75 10.25 20.75 10.6 21.5 10.85 20.5 11.0 20.6 11.85 19.5 12.5 20.0 12.75 19.75 12.75 17.6 13.0 7.1 13.85 -11.9 14.35 -12.9 0.85 -11.25 -0.65 -2.5 -6.65 M-42.65 -24.75 L-42.65 -24.9 -41.65 -25.0 -42.65 -24.75" fill="#020202" fill-rule="evenodd" stroke="none"/>
      <path d="M24.25 -66.65 L24.25 -66.15 24.0 -66.15 23.1 -66.0 22.1 -66.0 21.9 -65.95 21.25 -65.9 20.35 -65.9 19.5 -65.75 18.6 -65.75 18.4 -65.7 17.75 -65.65 16.85 -65.65 16.0 -65.5 15.35 -65.5 15.25 -65.75 24.25 -66.65 M-49.15 -60.9 L-50.65 -60.9 -53.5 -60.65 -54.25 -60.65 -55.25 -60.5 -57.75 -60.4 -58.9 -60.25 -61.4 -60.15 -62.4 -60.0 -64.9 -59.9 -66.0 -59.75 -68.4 -59.65 -69.5 -59.5 -72.15 -59.4 -73.15 -59.25 -75.65 -59.15 -76.65 -59.0 -79.25 -58.9 -80.15 -58.75 -82.75 -58.65 -83.75 -58.5 -86.25 -58.4 -87.25 -58.25 -88.0 -58.25 -90.9 -58.0 -96.9 -57.65 -98.0 -57.5 -98.65 -57.5 -101.5 -57.25 -104.0 -57.15 -105.0 -57.0 -107.5 -56.9 -108.5 -56.75 -111.15 -56.65 -112.0 -56.5 -112.9 -56.5 -115.75 -56.25 -118.15 -56.15 -119.25 -56.0 -128.9 -55.4 -130.0 -55.25 -132.4 -55.15 -133.5 -55.0 -139.5 -54.65 -140.65 -54.5 -146.75 -54.15 -147.75 -54.0 -148.5 -54.0 -151.25 -53.75 -153.9 -53.65 -154.9 -53.5 -157.4 -53.4 -158.4 -53.25 -161.0 -53.15 -161.9 -53.0 -162.5 -53.0 -165.25 -52.75 -167.5 -52.65 -168.65 -52.5 -169.4 -52.5 -170.25 -52.4 -171.0 -52.4 -172.0 -52.25 -172.25 -54.15 -20.4 -64.65 -17.15 -64.9 -15.75 -65.0 -15.15 -65.0 -11.65 -65.25 -9.65 -65.4 -6.5 -65.65 -4.15 -65.75 -2.65 -65.9 -3.0 -65.5 -1.9 -65.25 -1.25 -64.5 -4.15 -64.15 -5.0 -64.15 -5.5 -64.0 -6.4 -63.9 -8.15 -63.9 -9.0 -63.75 -11.75 -63.65 -12.65 -63.5 -15.15 -63.4 -15.75 -63.25 -18.75 -63.15 -19.9 -63.0 -22.4 -62.9 -23.25 -62.75 -30.4 -62.25 -32.9 -62.15 -33.9 -62.0 -36.5 -61.9 -37.4 -61.75 -40.0 -61.65 -41.15 -61.5 -46.4 -61.15 -46.75 -61.15 -47.15 -61.0 -48.15 -61.0 -48.9 -60.9 -49.15 -60.9 M14.75 -65.65 L14.25 -65.5 14.1 -65.4 13.1 -65.4 12.0 -65.4 12.6 -65.5 13.0 -65.65 14.75 -65.65 M-9.15 -27.15 L-9.75 -26.0 -11.75 -23.5 -11.75 -24.25 -11.65 -24.4 -9.15 -27.15" fill="#101010" fill-rule="evenodd" stroke="none"/>
      <path d="M-16.25 -66.0 L-15.75 -65.0 -17.15 -64.9 -16.65 -66.5 -16.25 -66.0 M-24.15 -55.9 L-21.65 -58.15 -19.9 -60.75 -18.4 -59.9 -14.25 -61.75 -14.0 -58.9 Q-13.75 -57.9 -16.15 -54.4 L-16.0 -53.4 -16.15 -53.15 -17.15 -53.0 -23.25 -54.65 -23.0 -55.25 -24.25 -55.5 -24.15 -55.9 M-9.15 -63.4 L-8.0 -61.4 -7.9 -59.5 -8.25 -57.9 -8.9 -57.15 -9.75 -57.0 Q-12.5 -60.5 -10.75 -63.15 L-9.15 -63.4" fill="#1b1b1b" fill-rule="evenodd" stroke="none"/>
      <path d="M-24.15 -55.9 L-24.25 -55.5 -23.0 -55.25 -23.25 -54.65 -25.15 -52.15 -26.5 -48.9 -28.5 -45.65 -28.65 -45.4 -28.9 -45.4 -29.15 -45.15 -29.25 -45.0 -31.0 -44.5 -30.15 -46.4 -27.75 -49.65 -27.65 -50.5 -26.4 -52.5 -26.5 -52.9 -24.4 -56.0 -24.25 -56.25 -24.15 -55.9 M-32.15 -42.65 L-32.25 -40.9 -33.0 -41.4 -32.15 -42.65" fill="#7e7e7e" fill-rule="evenodd" stroke="none"/>
      <path d="M-23.15 -61.15 L-22.9 -61.25 -23.15 -60.75 -23.15 -61.15" fill="#898989" fill-rule="evenodd" stroke="none"/>
      <path d="M2.1 -70.25 L3.85 -70.5 5.85 -70.25 6.85 -69.5 Q4.0 -69.0 4.5 -66.15 L4.6 -64.9 4.75 -64.9 5.1 -64.0 6.0 -63.4 7.5 -63.25 6.85 -62.65 5.25 -62.15 2.0 -62.75 1.1 -65.5 Q1.25 -70.0 2.1 -70.25 M27.1 -44.5 L28.1 -44.5 28.5 -44.4 29.25 -44.4 29.35 -44.25 28.0 -43.75 27.5 -43.0 27.0 -44.15 27.25 -44.4 27.1 -44.5 M28.1 -40.4 L28.0 -40.75 28.35 -40.4 28.1 -40.4" fill="#161616" fill-rule="evenodd" stroke="none"/>
      <path d="M-6.65 -48.75 L-7.5 -62.5 -7.0 -62.5 -6.0 -48.9 -6.0 -48.4 -6.5 -48.25 -6.65 -48.75 M-4.65 -49.0 L-5.75 -62.9 -5.15 -63.15 -5.15 -62.25 -4.15 -49.0 -4.0 -47.5 -4.5 -47.5 -4.65 -49.0 M-0.9 -61.75 L-0.4 -61.65 2.0 -62.75 5.25 -62.15 6.85 -62.65 7.5 -63.25 8.1 -63.4 8.25 -62.5 9.25 -50.0 9.25 -49.5 8.25 -49.25 5.35 -49.0 2.75 -48.75 0.25 -48.9 0.0 -49.25 -0.9 -61.75 M29.35 -44.25 L30.0 -44.25 30.1 -44.15 30.75 -43.9 30.85 -43.75 31.1 -43.5 31.5 -42.75 31.6 -42.25 31.35 -41.4 31.0 -40.9 30.35 -40.4 29.5 -40.25 29.0 -40.25 28.5 -40.4 28.35 -40.4 28.0 -40.75 27.5 -43.0 28.0 -43.75 29.35 -44.25 M-23.5 -26.4 L-24.0 -25.65 -24.15 -23.5 -34.4 -22.65 -43.0 -22.5 -43.65 -22.55 -47.25 -22.75 -48.25 -23.0 -48.4 -23.25 -48.15 -23.5 -47.25 -23.75 -46.9 -23.9 -43.4 -24.65 -42.65 -24.75 -41.65 -25.0 -41.4 -25.0 -40.9 -25.15 -23.5 -26.4" fill="#181818" fill-rule="evenodd" stroke="none"/>
      <path d="M7.5 -63.25 L6.0 -63.4 5.1 -64.0 4.75 -64.9 5.35 -64.9 6.0 -65.0 6.6 -65.0 7.6 -65.15 9.85 -65.25 9.0 -63.75 8.1 -63.4 7.5 -63.25 M4.5 -66.15 Q4.0 -69.0 6.85 -69.5 L9.1 -68.9 10.0 -67.15 10.0 -67.0 9.6 -67.0 4.6 -66.5 4.5 -66.15 M42.5 -0.4 L42.1 -3.5 42.35 -6.5 41.6 -7.5 41.0 -9.65 47.75 -5.5 48.0 -2.4 48.6 -0.15 48.1 3.1 48.0 3.5 47.1 6.75 Q46.1 7.0 43.0 3.25 L42.5 -0.4" fill="#3a3a3a" fill-rule="evenodd" stroke="none"/>
      <path d="M-8.65 -80.75 L-8.25 -80.9 -7.25 -80.0 -12.25 -72.4 -14.5 -68.25 -16.25 -66.0 -16.65 -66.5 -16.65 -66.65 -17.0 -67.0 -17.4 -66.65 -8.65 -80.75" fill="#939393" fill-rule="evenodd" stroke="none"/>
      <path d="M15.35 -65.5 L16.35 -50.4 16.35 -50.0 16.5 -49.0 16.1 -49.0 15.85 -50.15 14.85 -65.4 14.75 -65.65 15.25 -65.75 15.35 -65.5 M-17.4 12.6 L-19.75 9.35 -20.0 3.35 -20.4 2.85 -21.4 -9.25 -21.0 -9.25 -20.75 -9.0 -20.4 -8.25 -20.15 -8.15 -19.9 -7.5 -19.5 -11.5 -19.65 -13.0 -19.75 -24.4 -20.4 -24.75 -21.15 -25.5 -21.15 -25.9 -20.9 -26.25 -16.15 -31.0 -13.4 -29.65 -18.75 -23.9 -19.0 -6.75 -17.25 10.6 -17.4 12.6 M12.75 -63.9 L13.75 -50.15 13.85 -49.9 13.25 -50.15 12.25 -63.5 12.75 -63.9 M-5.5 -27.4 L-5.0 -26.0 -6.65 -25.9 -8.15 -26.0 -8.5 -26.5 -5.5 -27.4" fill="#171717" fill-rule="evenodd" stroke="none"/>
      <path d="M-10.25 -67.65 L-8.9 -67.0 -9.65 -65.4 -11.65 -65.25 -10.25 -67.65" fill="#929292" fill-rule="evenodd" stroke="none"/>
      <path d="M-16.0 -53.4 L-16.15 -54.4 Q-13.75 -57.9 -14.0 -58.9 L-14.25 -61.75 -13.4 -62.15 -11.5 -48.4 -13.0 -47.75 -15.5 -48.0 -15.9 -51.5 -15.9 -51.65 -16.0 -52.5 -16.0 -52.65 -16.0 -53.4 M34.6 -40.4 L34.0 -40.5 31.35 -41.4 31.6 -42.25 31.5 -42.75 31.1 -43.5 30.85 -43.75 30.75 -43.9 30.1 -44.15 30.0 -44.25 29.35 -44.25 29.25 -44.4 28.5 -44.4 28.1 -44.5 27.1 -44.5 27.1 -45.5 26.85 -47.15 26.35 -47.15 26.0 -48.0 28.35 -48.65 30.75 -48.4 32.85 -47.15 34.25 -45.15 34.6 -44.9 34.85 -42.9 34.6 -40.4 M-19.5 -44.5 L-17.15 -45.15 -14.9 -44.75 -13.65 -44.15 -15.4 -43.9 -15.9 -43.75 -16.25 -42.65 -16.5 -41.0 -17.0 -41.0 -17.4 -41.0 -18.15 -40.9 -18.15 -41.25 -19.15 -43.15 -19.5 -44.5" fill="#080808" fill-rule="evenodd" stroke="none"/>
      <path d="M-8.65 -48.65 L-6.65 -48.75 -6.5 -48.25 -6.0 -48.4 -6.0 -48.9 -4.65 -49.0 -4.5 -47.5 -4.0 -47.5 -4.15 -49.0 0.0 -49.25 0.25 -48.9 2.75 -48.75 5.35 -49.0 6.5 -48.65 -2.15 -47.4 -10.5 -45.4 -13.65 -46.25 -14.65 -46.5 -14.15 -47.0 -13.0 -47.75 -11.5 -48.4 -8.65 -48.65 M-7.75 -14.75 L-7.65 -14.5 -7.25 -13.65 -7.65 -13.65 -8.25 -14.65 -7.75 -14.75" fill="#535353" fill-rule="evenodd" stroke="none"/>
      <path d="M-16.15 -53.15 L-16.0 -53.4 -16.0 -52.65 -16.15 -53.15" fill="#090909" fill-rule="evenodd" stroke="none"/>
      <path d="M-23.5 -27.75 Q-33.5 -33.4 -32.15 -40.25 L-32.25 -40.9 -32.15 -42.65 -31.75 -44.15 -31.0 -44.5 -29.25 -45.0 -29.15 -45.15 -28.9 -45.4 -28.65 -45.4 -28.5 -45.65 -19.75 -48.25 -15.5 -48.0 -13.0 -47.75 -14.15 -47.0 Q-23.75 -49.65 -26.0 -41.9 -27.9 -34.25 -19.75 -31.4 L-22.75 -27.75 -23.5 -27.75 M42.5 -0.4 L43.0 3.25 Q46.1 7.0 47.1 6.75 L47.35 8.5 48.6 9.1 29.35 12.0 20.0 12.75 19.5 12.5 20.6 11.85 20.5 11.0 21.5 10.85 20.75 10.6 21.75 10.25 21.0 10.1 21.1 9.5 21.6 9.5 21.25 9.35 21.25 8.85 22.1 8.85 22.25 8.25 21.6 7.75 22.1 7.5 32.6 6.5 31.35 1.25 42.5 -0.4 M-11.75 -24.25 L-11.75 -23.5 -13.25 -20.15 -13.75 -20.15 -14.15 -20.15 -11.75 -24.25 M11.85 2.85 L12.25 2.85 21.35 2.25 21.6 3.5 22.25 3.6 21.5 3.75 21.5 4.85 22.35 5.0 21.6 5.0 21.5 5.6 21.75 7.5 11.1 8.35 11.85 2.85 M22.1 2.25 L22.25 2.5 21.75 2.25 22.1 2.25" fill="#060606" fill-rule="evenodd" stroke="none"/>
      <path d="M5.35 -49.0 L8.25 -49.25 9.25 -49.5 9.25 -50.0 13.25 -50.15 13.85 -49.9 13.75 -50.15 15.85 -50.15 16.1 -49.0 16.5 -49.0 16.35 -50.0 17.85 -50.0 21.5 -49.15 23.25 -48.65 23.75 -48.15 15.35 -48.65 6.85 -48.65 6.5 -48.65 5.35 -49.0 M-9.75 -26.0 L-9.25 -22.25 -11.4 -18.25 -13.25 -20.15 -11.75 -23.5 -9.75 -26.0 M-13.75 -20.15 L-13.25 -20.15 -14.0 -13.65 -14.25 -12.5 -15.5 -14.9 -15.4 -15.65 -15.4 -15.9 -14.75 -18.0 -14.75 -18.25 -14.65 -18.5 -13.75 -20.15" fill="#565656" fill-rule="evenodd" stroke="none"/>
      <path d="M16.35 -50.4 L20.6 -51.5 Q28.35 -51.4 29.0 -49.75 L25.6 -49.75 Q24.85 -51.0 21.0 -51.0 L17.85 -50.0 16.35 -50.0 16.35 -50.4" fill="#323232" fill-rule="evenodd" stroke="none"/>
      <path d="M29.0 -49.75 Q33.85 -49.9 35.6 -43.65 35.75 -36.75 29.25 -35.4 L29.1 -36.0 31.5 -36.75 33.5 -38.25 34.6 -40.4 34.85 -42.9 34.6 -44.9 34.25 -45.15 32.85 -47.15 30.75 -48.4 28.35 -48.65 26.0 -48.0 24.85 -47.15 23.75 -48.15 24.1 -48.5 23.25 -48.65 21.5 -49.15 23.75 -49.9 25.6 -49.75 29.0 -49.75" fill="#595959" fill-rule="evenodd" stroke="none"/>
      <path d="M29.25 -35.4 L30.35 -35.5 31.35 -34.9 29.35 -34.9 29.25 -35.4 M13.25 -30.9 L14.1 -30.75 15.0 -28.15 13.1 -27.65 12.6 -27.9 12.25 -27.9 11.6 -27.75 0.5 -26.9 -2.0 -26.75 -4.75 -27.25 -5.5 -27.4 -8.15 -27.9 -8.65 -27.9 -10.9 -28.25 -13.4 -29.65 -1.0 -30.4 4.35 -30.75 5.5 -30.25 6.85 -30.25 13.25 -30.9" fill="#4c4c4c" fill-rule="evenodd" stroke="none"/>
      <path d="M31.35 -34.9 L35.85 -33.75 37.25 -33.75 26.75 -32.65 20.5 -32.0 17.6 -31.9 26.75 -32.65 28.5 -34.0 29.25 -34.15 29.35 -34.9 31.35 -34.9 M-13.25 -31.65 L-11.75 -31.15 -7.15 -31.15 -3.4 -30.4 -1.0 -30.4 7.75 -31.15 4.35 -30.75 -1.0 -30.4 -13.4 -29.65 -16.15 -31.0 -15.5 -31.25 -14.0 -31.5 -13.25 -31.65" fill="#393939" fill-rule="evenodd" stroke="none"/>
      <path d="M6.85 -48.65 L15.35 -48.65 23.75 -48.15 24.85 -47.15 27.0 -44.15 27.5 -43.0 28.0 -40.75 28.1 -40.4 28.85 -36.9 29.0 -36.65 29.0 -36.25 29.1 -36.0 29.25 -35.4 29.35 -34.9 29.25 -34.15 28.5 -34.0 26.75 -32.65 17.6 -31.9 17.1 -31.9 16.1 -31.75 15.1 -31.75 14.6 -31.65 13.1 -31.65 9.85 -42.9 6.85 -48.65" fill="#afafaf" fill-rule="evenodd" stroke="none"/>
      <path d="M-46.5 -25.65 L-45.5 -26.0 -23.5 -27.75 -22.75 -27.75 -22.65 -27.65 -23.5 -26.4 -40.9 -25.15 -41.4 -25.0 -41.65 -25.0 -42.65 -24.9 -45.0 -24.9 -46.4 -25.25 -46.5 -25.65 M29.0 -36.25 L29.0 -36.65 28.85 -36.9 28.1 -40.4 28.35 -40.4 28.5 -40.4 29.0 -40.25 30.75 -37.65 31.5 -36.75 29.1 -36.0 29.1 -36.25 29.0 -36.25" fill="#2d2d2d" fill-rule="evenodd" stroke="none"/>
      <path d="M30.35 -40.4 L32.6 -38.75 33.5 -38.25 31.5 -36.75 30.75 -37.65 29.0 -40.25 29.5 -40.25 30.35 -40.4" fill="#1c1c1c" fill-rule="evenodd" stroke="none"/>
      <path d="M-24.0 -23.25 L-44.5 -21.65 -44.25 -22.0 -44.75 -22.25 -43.65 -22.55 -43.0 -22.5 -34.4 -22.65 -24.15 -23.5 -24.0 -23.25 M31.35 -41.4 L34.0 -40.5 34.6 -40.4 33.5 -38.25 32.6 -38.75 30.35 -40.4 31.0 -40.9 31.35 -41.4" fill="#0b0b0b" fill-rule="evenodd" stroke="none"/>
      <path d="M26.0 -48.0 L26.35 -47.15 24.85 -47.15 26.0 -48.0 M-16.25 -40.65 L-15.15 -40.4 -14.25 -39.15 -14.4 -37.75 -14.9 -37.15 -16.15 -36.4 -17.0 -36.4 -17.5 -36.9 -17.65 -36.9 -18.4 -37.9 -18.5 -38.15 -18.5 -39.25 -18.25 -39.65 -17.9 -40.0 -17.65 -40.4 -16.9 -40.65 -16.25 -40.65" fill="#141414" fill-rule="evenodd" stroke="none"/>
      <path d="M26.35 -47.15 L26.85 -47.15 27.1 -45.5 27.1 -44.5 27.25 -44.4 27.0 -44.15 24.85 -47.15 26.35 -47.15 M23.25 -48.65 L24.1 -48.5 23.75 -48.15 23.25 -48.65" fill="#575757" fill-rule="evenodd" stroke="none"/>
      <path d="M6.85 -48.65 L9.85 -42.9 13.1 -31.65 12.1 -31.5 10.25 -31.4 9.85 -31.25 9.0 -31.25 8.25 -31.15 7.75 -31.15 -1.0 -30.4 -3.4 -30.4 -7.15 -31.15 -11.75 -31.15 -13.25 -31.65 -13.0 -40.75 -10.5 -45.4 -2.15 -47.4 6.5 -48.65 6.85 -48.65" fill="#343434" fill-rule="evenodd" stroke="none"/>
      <path d="M36.5 -31.25 L37.0 -30.65 35.85 -31.15 36.5 -31.25 M-10.5 -45.4 L-13.0 -40.75 -13.25 -31.65 -14.0 -31.5 -15.15 -31.5 -15.65 -31.75 -15.15 -32.0 -14.9 -32.75 -15.15 -34.25 -16.15 -36.4 -14.9 -37.15 -14.4 -37.75 -14.25 -39.15 -15.15 -40.4 -16.25 -40.65 -16.4 -40.75 -16.5 -40.9 -16.5 -41.0 -16.25 -42.65 -15.9 -43.75 -15.4 -43.9 -13.65 -44.15 -13.25 -44.15 -12.9 -45.15 -14.4 -45.9 -13.65 -46.25 -10.5 -45.4" fill="#191919" fill-rule="evenodd" stroke="none"/>
      <path d="M-14.4 -45.9 L-14.9 -46.0 -15.0 -46.15 -14.65 -46.5 -13.65 -46.25 -14.4 -45.9" fill="#1f1f1f" fill-rule="evenodd" stroke="none"/>
      <path d="M20.25 -5.65 L10.6 -4.9 10.5 -6.5 10.85 -6.65 11.1 -6.65 19.85 -7.25 20.25 -5.9 20.6 -5.75 20.25 -5.65 M-15.0 -46.15 L-14.9 -46.0 -14.4 -45.9 -12.9 -45.15 -13.25 -44.15 -13.65 -44.15 -14.9 -44.75 -17.15 -45.15 -19.5 -44.5 -21.65 -42.9 -22.9 -40.75 -23.15 -38.25 -22.4 -35.9 -20.75 -33.9 -18.75 -32.75 -16.15 -32.5 -14.9 -32.75 -15.15 -32.0 -15.65 -31.75 -16.75 -31.75 -19.25 -32.15 Q-27.9 -35.9 -25.65 -41.4 -24.25 -47.75 -15.0 -46.15 M-16.5 -41.0 L-16.5 -40.9 -17.0 -41.0 -16.5 -41.0" fill="#252525" fill-rule="evenodd" stroke="none"/>
      <path d="M-22.4 0.25 L-24.15 -10.4 -24.0 -23.25 -24.15 -23.5 -24.0 -25.65 -23.5 -26.4 -22.65 -27.65 -22.75 -27.75 -19.75 -31.4 -19.25 -32.15 -16.75 -31.75 -18.5 -31.4 -20.9 -26.25 -21.15 -25.9 -21.15 -25.5 -20.4 -24.75 -19.75 -24.4 -20.0 -22.0 -20.4 -24.75 -20.75 -9.0 -21.0 -9.25 -21.15 -25.5 -21.4 -9.25 -20.4 2.85 -22.4 0.25 M-20.0 -17.75 L-20.15 -13.4 -20.4 -15.75 -20.0 -17.75 M-14.5 -20.15 L-14.65 -18.5 -14.75 -18.25 -14.75 -18.0 -15.4 -15.9 -15.4 -15.65 -15.5 -14.9 -17.0 -10.65 -16.5 -7.0 -17.25 -7.15 -17.4 -11.9 -17.9 -14.0 -15.15 -20.4 -14.5 -20.15" fill="#282828" fill-rule="evenodd" stroke="none"/>
      <path d="M-16.0 15.75 L-17.4 12.6 -17.25 10.6 -19.0 -6.75 -18.75 -23.9 -13.4 -29.65 -10.9 -28.25 -8.65 -27.9 -9.15 -27.15 -11.65 -24.4 -11.75 -24.25 -14.15 -20.15 -14.5 -20.15 -15.15 -20.4 -17.9 -14.0 -17.4 -11.9 -17.25 -7.15 -16.5 -7.0 -16.15 -6.75 -13.5 -6.25 -12.9 0.85 -11.9 14.35 -14.4 14.75 -16.0 15.75 M-16.5 -40.9 L-16.4 -40.75 -16.9 -40.65 -17.65 -40.4 -17.9 -40.0 -18.25 -39.65 -18.5 -39.25 -18.5 -38.15 -18.4 -37.9 -17.65 -36.9 -17.75 -36.9 -18.4 -37.25 -18.65 -37.4 -19.15 -38.0 -19.25 -38.75 -19.25 -39.65 -18.75 -40.4 -18.15 -40.9 -17.4 -41.0 -17.0 -41.0 -16.5 -40.9" fill="#050505" fill-rule="evenodd" stroke="none"/>
      <path d="M8.5 -11.75 L10.25 -21.4 10.75 -22.15 9.0 -11.75 8.5 -11.75 M-21.65 -42.9 L-19.5 -44.5 -19.15 -43.15 -18.15 -41.25 -18.15 -40.9 -18.75 -40.4 -20.9 -42.15 -21.65 -42.9 M12.25 2.85 L21.35 -1.15 21.75 2.25 21.35 2.25 12.25 2.85" fill="#151515" fill-rule="evenodd" stroke="none"/>
      <path d="M11.6 -27.75 L12.25 -27.9 13.85 -11.75 10.5 -11.5 9.0 -11.75 10.75 -22.15 10.75 -22.4 10.85 -22.75 11.6 -27.4 11.6 -27.75 M12.6 -27.9 L13.1 -27.65 12.75 -27.4 12.6 -27.9 M12.75 -27.25 L13.1 -27.15 13.1 -26.15 12.75 -26.25 12.75 -27.25 M13.25 -24.75 L12.85 -24.9 12.85 -25.9 13.25 -25.75 13.25 -24.75 M13.35 -24.4 L13.35 -23.5 13.0 -23.65 13.0 -24.5 13.35 -24.4 M13.5 -22.9 L13.5 -22.15 13.1 -22.25 13.1 -23.0 13.5 -22.9 M13.25 -21.0 L13.25 -21.65 13.6 -21.5 13.6 -20.9 13.25 -21.0 M13.75 -20.15 L13.75 -19.5 13.35 -19.65 13.35 -20.25 13.75 -20.15 M13.5 -18.25 L13.5 -18.75 13.85 -18.65 13.85 -18.15 13.5 -18.25 M-22.9 -40.75 L-21.65 -42.9 -20.9 -42.15 -18.75 -40.4 -19.25 -39.65 -22.9 -40.75" fill="#272727" fill-rule="evenodd" stroke="none"/>
      <path d="M-16.15 -32.5 L-18.75 -32.75 -18.25 -34.0 -18.0 -36.65 -17.75 -36.9 -17.65 -36.9 -17.5 -36.9 -17.0 -36.4 -16.4 -34.5 -16.15 -32.5" fill="#727272" fill-rule="evenodd" stroke="none"/>
      <path d="M-18.4 -37.25 L-17.75 -36.9 -18.0 -36.65 -20.15 -34.75 -18.75 -37.15 -18.65 -37.25 -18.4 -37.25" fill="#b8b8b8" fill-rule="evenodd" stroke="none"/>
      <path d="M-19.15 -38.0 L-18.65 -37.4 -18.65 -37.25 -18.75 -37.15 -21.9 -36.15 -19.15 -38.0" fill="#a8a8a8" fill-rule="evenodd" stroke="none"/>
      <path d="M-22.4 -35.9 L-23.15 -38.25 -22.75 -38.25 -19.25 -38.75 -19.15 -38.0 -21.9 -36.15 -22.4 -35.9" fill="#666666" fill-rule="evenodd" stroke="none"/>
      <path d="M-23.15 -38.25 L-22.9 -40.75 -19.25 -39.65 -19.25 -38.75 -22.75 -38.25 -23.15 -38.25" fill="#363636" fill-rule="evenodd" stroke="none"/>
      <path d="M-14.9 -32.75 L-16.15 -32.5 -16.4 -34.5 -17.0 -36.4 -16.15 -36.4 -15.15 -34.25 -14.9 -32.75" fill="#2b2b2b" fill-rule="evenodd" stroke="none"/>
      <path d="M-20.75 -33.9 L-22.4 -35.9 -21.9 -36.15 -18.75 -37.15 -20.15 -34.75 -20.75 -33.9" fill="#a7a7a7" fill-rule="evenodd" stroke="none"/>
      <path d="M-18.75 -32.75 L-20.75 -33.9 -20.15 -34.75 -18.0 -36.65 -18.25 -34.0 -18.75 -32.75" fill="#b7b7b7" fill-rule="evenodd" stroke="none"/>
      <path d="M29.1 -36.0 L29.0 -36.25 29.1 -36.25 29.1 -36.0" fill="#858585" fill-rule="evenodd" stroke="none"/>
      <path d="M37.25 -31.65 L36.5 -31.25 35.85 -31.15 32.25 -29.65 15.0 -28.15 14.1 -30.75 13.25 -30.9 21.6 -31.5 20.5 -32.0 26.75 -32.65 37.25 -33.75 38.25 -32.15 37.25 -31.65" fill="#686868" fill-rule="evenodd" stroke="none"/>
      <path d="M13.1 -31.65 L14.6 -31.65 15.1 -31.75 16.1 -31.75 17.1 -31.9 17.6 -31.9 20.5 -32.0 21.6 -31.5 13.25 -30.9 12.1 -31.5 13.1 -31.65 M38.6 -30.15 L37.25 -31.65 41.5 -29.25 44.5 -25.15 44.6 -24.9 43.5 -25.15 42.75 -25.9 42.35 -26.15 42.1 -26.5 41.25 -27.4 40.25 -28.25 39.5 -29.25 39.35 -29.25 38.6 -30.15" fill="#696969" fill-rule="evenodd" stroke="none"/>
      <path d="M20.6 -5.75 L20.25 -5.9 19.85 -7.25 28.6 -8.15 29.6 -8.15 30.0 -6.5 20.6 -5.75 M-16.75 -31.75 L-15.65 -31.75 -15.15 -31.5 -15.5 -31.25 -16.15 -31.0 -20.9 -26.25 -18.5 -31.4 -16.75 -31.75" fill="#383838" fill-rule="evenodd" stroke="none"/>
      <path d="M-15.15 -31.5 L-14.0 -31.5 -15.5 -31.25 -15.15 -31.5" fill="#2c2c2c" fill-rule="evenodd" stroke="none"/>
      <path d="M37.25 -33.75 L43.85 -28.9 47.0 -19.65 46.5 -19.9 44.75 -24.65 44.0 -23.9 43.5 -25.15 44.6 -24.9 44.5 -25.15 41.5 -29.25 37.25 -31.65 38.25 -32.15 37.25 -33.75 M41.25 -27.4 L42.1 -26.5 41.35 -27.15 41.25 -27.4" fill="#545454" fill-rule="evenodd" stroke="none"/>
      <path d="M41.75 -17.75 L41.85 -18.4 42.5 -20.0 44.0 -23.9 44.75 -24.65 46.5 -19.9 46.75 -18.65 41.75 -17.75" fill="#141a13" fill-rule="evenodd" stroke="none"/>
      <path d="M7.75 -31.15 L8.25 -31.15 9.0 -31.25 9.85 -31.25 10.25 -31.4 12.1 -31.5 13.25 -30.9 6.85 -30.25 5.5 -30.25 4.35 -30.75 7.75 -31.15" fill="#646464" fill-rule="evenodd" stroke="none"/>
      <path d="M39.5 -17.15 L40.0 -17.25 41.25 -17.65 41.75 -17.75 38.75 -13.5 40.0 -12.15 40.1 -10.4 41.0 -9.65 41.6 -7.5 42.35 -6.5 42.1 -3.5 42.5 -0.4 31.35 1.25 21.35 -1.15 Q21.5 -3.0 20.5 -4.65 L20.75 -5.25 20.25 -5.65 20.6 -5.75 30.0 -6.5 29.6 -8.15 28.6 -8.15 19.75 -8.4 19.6 -9.4 19.0 -9.65 18.85 -10.4 19.25 -10.4 18.75 -10.5 18.1 -12.15 25.6 -12.75 34.5 -15.5 39.5 -17.15" fill="#6f6f6f" fill-rule="evenodd" stroke="none"/>
      <path d="M-19.75 9.35 L-21.4 7.1 -22.4 0.25 -20.4 2.85 -20.0 3.35 -19.75 9.35 M19.85 -7.25 L11.1 -6.65 19.75 -8.4 19.85 -7.25" fill="#414141" fill-rule="evenodd" stroke="none"/>
      <path d="M12.25 -27.9 L12.6 -27.9 12.75 -27.4 13.1 -27.65 13.85 -26.25 18.1 -12.15 13.85 -11.75 12.25 -27.9 M12.75 -27.25 L12.75 -26.25 13.1 -26.15 13.1 -27.15 12.75 -27.25 M13.75 -20.15 L13.35 -20.25 13.35 -19.65 13.75 -19.5 13.75 -20.15 M13.25 -21.0 L13.6 -20.9 13.6 -21.5 13.25 -21.65 13.25 -21.0 M13.5 -22.9 L13.1 -23.0 13.1 -22.25 13.5 -22.15 13.5 -22.9 M13.35 -24.4 L13.0 -24.5 13.0 -23.65 13.35 -23.5 13.35 -24.4 M13.25 -24.75 L13.25 -25.75 12.85 -25.9 12.85 -24.9 13.25 -24.75 M13.5 -18.25 L13.85 -18.15 13.85 -18.65 13.5 -18.75 13.5 -18.25" fill="#777777" fill-rule="evenodd" stroke="none"/>
      <path d="M0.5 -26.9 L11.6 -27.75 11.6 -27.4 10.85 -22.75 10.75 -22.4 10.75 -22.15 10.25 -21.4 8.5 -11.75 0.6 -12.75 0.1 -13.5 1.0 -16.4 Q-0.15 -20.0 -1.9 -21.9 L-2.4 -22.5 -3.5 -24.4 -2.5 -24.65 0.5 -26.9 M-19.75 -24.4 L-19.65 -13.0 -19.5 -11.5 -19.9 -7.5 -20.15 -8.15 -20.4 -8.25 -20.15 -8.5 -20.15 -13.4 -20.0 -17.75 -20.0 -22.0 -19.75 -24.4" fill="#030303" fill-rule="evenodd" stroke="none"/>
      <path d="M-4.75 -27.25 L-2.0 -26.75 0.5 -26.9 -2.5 -24.65 -3.5 -24.4 -3.9 -25.15 -4.0 -25.4 -4.0 -25.5 -4.75 -27.25" fill="#0f0f0f" fill-rule="evenodd" stroke="none"/>
      <path d="M-8.65 -27.9 L-8.15 -27.9 -5.5 -27.4 -4.75 -27.25 -4.0 -25.5 -4.0 -25.4 -3.9 -25.15 -3.5 -24.4 -2.4 -22.5 -1.9 -21.9 Q-0.15 -20.0 1.0 -16.4 L0.1 -13.5 -9.25 -22.25 -9.75 -26.0 -9.15 -27.15 -8.65 -27.9 M-5.5 -27.4 L-8.5 -26.5 -8.15 -26.0 -6.65 -25.9 -5.0 -26.0 -5.5 -27.4 M-7.25 -24.65 L-6.25 -24.65 -4.9 -25.25 -7.0 -25.15 -7.25 -24.65 M-13.5 -6.25 L-2.4 -6.9 -2.5 -6.65 -11.25 -0.65 -12.9 0.85 -13.5 -6.25" fill="#040404" fill-rule="evenodd" stroke="none"/>
      <path d="M8.5 -11.75 L9.0 -11.75 10.5 -11.5 13.85 -11.75 18.1 -12.15 18.75 -10.5 19.25 -10.4 18.85 -10.4 19.0 -9.65 19.6 -9.4 19.75 -8.4 11.1 -6.65 10.85 -6.65 10.5 -6.5 10.6 -4.9 20.25 -5.65 20.75 -5.25 20.5 -4.65 Q21.5 -3.0 21.35 -1.15 L12.25 2.85 11.85 2.85 -1.15 3.25 -2.4 -2.65 -2.5 -6.65 -2.4 -6.9 -3.9 -10.0 -7.65 -13.65 -7.25 -13.65 -5.15 -13.4 0.6 -12.75 8.5 -11.75" fill="#292929" fill-rule="evenodd" stroke="none"/>
      <path d="M-9.25 -22.25 L0.1 -13.5 0.6 -12.75 -5.15 -13.4 -7.65 -14.5 -7.75 -14.75 -9.25 -22.25" fill="#131313" fill-rule="evenodd" stroke="none"/>
      <path d="M-11.4 -18.25 L-9.25 -22.25 -7.75 -14.75 -8.25 -14.65 -11.4 -18.25" fill="#838383" fill-rule="evenodd" stroke="none"/>
      <path d="M-13.25 -20.15 L-11.4 -18.25 -8.25 -14.65 -7.65 -13.65 -14.0 -13.65 -13.25 -20.15" fill="#050805" fill-rule="evenodd" stroke="none"/>
      <path d="M-14.15 -20.15 L-13.75 -20.15 -14.65 -18.5 -14.5 -20.15 -14.15 -20.15 M-16.5 -7.0 L-17.0 -10.65 -15.5 -14.9 -14.25 -12.5 -14.15 -12.4 -13.5 -6.25 -16.15 -6.75 -16.5 -7.0" fill="#303030" fill-rule="evenodd" stroke="none"/>
      <path d="M40.1 -10.4 L40.0 -12.15 38.75 -13.5 41.75 -17.75 46.75 -18.65 47.35 -11.4 40.1 -10.4" fill="#5b5b5b" fill-rule="evenodd" stroke="none"/>
      <path d="M47.75 -5.5 L41.0 -9.65 40.1 -10.4 47.35 -11.4 47.75 -5.5" fill="#5e5e5e" fill-rule="evenodd" stroke="none"/>
      <path d="M-14.0 -13.65 L-7.65 -13.65 -3.9 -10.0 -2.4 -6.9 -13.5 -6.25 -14.15 -12.4 -14.25 -12.5 -14.0 -13.65" fill="#0a0a0a" fill-rule="evenodd" stroke="none"/>
      <path d="M19.85 -7.25 L19.75 -8.4 28.6 -8.15 19.85 -7.25" fill="#515151" fill-rule="evenodd" stroke="none"/>
      <path d="M47.85 -12.15 L49.35 9.25 48.6 9.1 48.5 4.5 48.0 3.5 48.1 3.1 48.6 -0.15 48.0 -2.4 47.75 -5.5 47.35 -11.4 47.85 -12.15" fill="#242424" fill-rule="evenodd" stroke="none"/>
      <path d="M49.35 9.25 L49.1 10.25 36.5 12.0 17.35 13.6 17.85 13.5 17.5 13.35 17.85 13.25 17.6 13.0 19.75 12.75 20.0 12.75 29.35 12.0 48.6 9.1 49.35 9.25" fill="#0e0e0e" fill-rule="evenodd" stroke="none"/>
      <path d="M17.35 13.6 L-2.15 15.35 -16.0 15.75 -14.4 14.75 -11.9 14.35 7.1 13.85 17.6 13.0 17.85 13.25 17.5 13.35 17.85 13.5 17.35 13.6 M22.1 7.5 L21.75 7.5 21.5 5.6 21.6 5.0 22.35 5.0 21.5 4.85 21.5 3.75 22.25 3.6 21.6 3.5 21.35 2.25 21.75 2.25 22.25 2.5 22.1 2.25 31.35 1.25 32.6 6.5 22.1 7.5" fill="#0c0c0c" fill-rule="evenodd" stroke="none"/>
      <path d="M15.0 -28.15 L31.35 -29.4 31.35 -29.5 31.85 -29.65 34.35 -15.9 34.35 -15.4 25.85 -12.75 18.35 -12.15 17.75 -13.9 17.85 -14.25 17.5 -15.25 17.6 -16.5 16.6 -18.9 16.1 -21.0 16.5 -21.75 15.25 -27.65 15.0 -28.15 M35.85 -31.15 L36.25 -31.25 36.5 -31.25 37.1 -31.65 37.25 -31.65 37.5 -31.5 37.6 -31.25 37.85 -31.25 41.1 -29.4 42.1 -28.25 43.85 -25.5 44.35 -24.9 Q44.2 -25.0 44.0 -25.15 L43.5 -25.15 44.1 -23.9 44.0 -23.9 44.0 -23.25 43.85 -23.0 43.75 -22.65 43.35 -21.9 43.25 -21.65 42.85 -21.0 42.85 -20.75 42.5 -19.75 41.35 -26.5 41.35 -27.15 41.1 -27.4 41.1 -27.5 40.35 -28.25 40.0 -28.5 39.85 -28.65 40.5 -25.65 40.6 -23.65 41.0 -21.65 41.1 -21.5 41.1 -21.15 41.25 -19.65 41.75 -17.75 41.1 -17.5 41.0 -19.5 40.5 -21.75 40.35 -23.5 39.85 -25.75 39.75 -27.65 39.35 -29.25 38.6 -30.15 38.0 -30.25 39.25 -22.15 39.35 -20.65 39.75 -18.5 39.85 -18.4 39.85 -17.25 39.85 -17.15 39.5 -17.0 38.1 -26.4 38.0 -27.75 37.5 -30.4 37.1 -30.65 37.0 -30.65 35.85 -31.15" fill="#141414" fill-opacity="0.50980395" fill-rule="evenodd" stroke="none"/>
      <path d="M44.35 -24.9 L44.5 -24.5 44.1 -23.9 43.5 -25.15 44.0 -25.15 Q44.2 -25.0 44.35 -24.9 M42.5 -19.75 L42.25 -18.75 41.85 -18.0 41.75 -17.75 41.25 -19.65 41.1 -21.15 41.1 -21.5 41.0 -21.65 40.6 -23.65 40.5 -25.65 39.85 -28.65 40.0 -28.5 40.35 -28.25 41.1 -27.5 41.1 -27.4 41.35 -27.15 41.35 -26.5 42.5 -19.75 M41.1 -17.5 L39.85 -17.25 39.85 -18.4 39.75 -18.5 39.35 -20.65 39.25 -22.15 38.0 -30.25 38.6 -30.15 39.35 -29.25 39.75 -27.65 39.85 -25.75 40.35 -23.5 40.5 -21.75 41.0 -19.5 41.1 -17.5" fill="#141414" fill-rule="evenodd" stroke="none"/>
      <path d="M34.35 -15.4 L34.35 -15.9 31.85 -29.65 35.85 -31.15 37.0 -30.65 37.1 -30.65 37.5 -30.4 38.0 -27.75 38.1 -26.4 39.5 -17.0 34.35 -15.4" fill="#282828" fill-opacity="0.50980395" fill-rule="evenodd" stroke="none"/>
      <path d="M15.0 -28.15 L15.25 -27.65 14.75 -27.5 14.5 -28.0 15.0 -28.15 M16.6 -18.9 L17.6 -16.5 17.5 -15.25 17.85 -14.25 17.75 -13.9 18.35 -12.15 18.0 -12.15 18.0 -13.0 17.75 -13.9 17.5 -14.9 17.5 -15.25 16.5 -18.4 16.5 -18.9 16.6 -18.9 M46.75 -19.9 L46.6 -20.4 47.35 -19.5 47.75 -12.25 47.5 -12.4 47.25 -12.5 47.25 -13.65 47.1 -14.5 47.0 -17.4 46.85 -18.4 46.85 -18.65 46.75 -19.4 46.75 -19.9" fill="#0e0e0e" fill-rule="evenodd" stroke="none"/>
      <path d="M-13.25 -20.15 L-12.15 -23.0 -12.0 -23.65 -12.0 -23.75 -11.9 -24.0 -11.65 -24.4 -8.9 -27.5 -8.75 -27.75 -8.65 -28.0 -8.15 -27.9 -7.65 -27.9 -4.15 -27.15 -3.65 -27.15 -1.65 -26.75 0.6 -26.9 1.25 -27.0 10.35 -27.75 11.6 -27.75 12.25 -27.9 12.6 -27.9 13.1 -27.65 13.85 -28.0 14.5 -28.0 14.75 -27.5 16.1 -21.0 16.1 -20.9 16.0 -20.5 16.5 -18.9 16.5 -18.4 17.5 -15.25 17.5 -14.9 17.75 -13.9 18.0 -13.0 18.0 -12.15 10.6 -11.5 10.25 -11.5 9.0 -11.75 8.5 -11.75 4.85 -12.25 4.5 -12.25 -7.25 -13.65 -7.75 -13.65 -8.25 -14.4 -8.5 -14.65 -13.0 -19.9 -13.25 -20.0 -13.25 -20.15" fill="#040404" fill-opacity="0.50980395" fill-rule="evenodd" stroke="none"/>
      <path d="M-13.25 -20.15 L-13.25 -20.0 -13.4 -19.5 -13.25 -18.9 -13.9 -16.75 -13.65 -16.15 -14.0 -13.5 -14.25 -12.5 -14.15 -12.4 -14.15 -12.15 -13.65 -7.15 -13.5 -6.65 -13.5 -6.25 -16.15 -6.65 -16.15 -6.75 -17.25 -7.15 -17.9 -12.9 -17.9 -14.4 -17.75 -14.9 -15.25 -20.0 -15.15 -20.4 -14.5 -20.15 -13.25 -20.15 M-20.5 -11.5 L-20.65 -11.15 -20.65 -10.65 -20.5 -9.9 -20.5 -11.5 M-20.75 -16.9 L-20.5 -16.5 -20.4 -17.0 -20.75 -16.9 M-20.5 -22.9 L-20.4 -21.75 -20.4 -23.5 -20.5 -22.9 M-20.25 -24.65 L-19.75 -24.25 -19.9 -24.15 -19.9 -22.75 -20.0 -22.65 -20.0 -17.5 -19.9 -13.5 -20.15 -13.15 -20.15 -8.0 -20.4 -8.0 -20.4 -8.15 -20.5 -8.65 -20.75 -8.75 -21.15 -9.25 -21.25 -9.25 -21.25 -16.65 -21.15 -17.25 -21.15 -20.65 -21.4 -21.25 -21.15 -21.4 -21.15 -21.9 -21.4 -22.25 -21.15 -24.0 -21.15 -25.5 -20.4 -24.75 -20.25 -24.65" fill="#000000" fill-opacity="0.50980395" fill-rule="evenodd" stroke="none"/>
      <path d="M15.25 -27.65 L16.5 -21.75 16.1 -21.0 16.6 -18.9 16.5 -18.9 16.0 -20.5 16.1 -20.9 16.1 -21.0 14.75 -27.5 15.25 -27.65" fill="#161616" fill-rule="evenodd" stroke="none"/>
      <path d="M46.5 -19.9 L46.5 -20.15 46.35 -20.25 46.1 -20.75 45.6 -22.5 46.0 -22.4 46.6 -20.4 46.75 -19.9 46.5 -19.9 M46.85 -18.65 L46.75 -19.15 46.75 -19.4 46.85 -18.65" fill="#0d0d0d" fill-rule="evenodd" stroke="none"/>
      <path d="M46.5 -19.9 L46.75 -19.9 46.75 -19.4 46.5 -19.9 M47.75 -12.25 L47.85 -12.0 47.6 -11.75 47.35 -11.4 47.25 -12.5 47.5 -12.4 47.75 -12.25" fill="#0d0d0d" fill-opacity="0.50980395" fill-rule="evenodd" stroke="none"/>
    </g>
  </defs>
</svg>
