<?xml version="1.0" encoding="UTF-8" standalone="no"?>
<svg xmlns:xlink="http://www.w3.org/1999/xlink" height="1034.2px" width="773.35px" xmlns="http://www.w3.org/2000/svg">
  <g transform="matrix(1.0, 0.0, 0.0, 1.0, 365.9, 551.4)">
    <use height="83.6" transform="matrix(1.0, 0.0, 0.0, 1.0, -52.8, -63.5)" width="99.4" xlink:href="#shape0"/>
    <use height="76.75" transform="matrix(1.0, 0.0, 0.0, 1.0, -157.4, -79.15)" width="338.9" xlink:href="#shape1"/>
    <use height="51.45" transform="matrix(1.0, 0.0, 0.0, 1.0, -34.8, -27.5)" width="97.0" xlink:href="#sprite0"/>
    <use height="21.95" id="zonee" transform="matrix(1.0, 0.0, 0.0, 1.0, -2.95, -67.8)" width="8.25" xlink:href="#sprite1"/>
    <use height="1034.2" transform="matrix(1.0, 0.0, 0.0, 1.0, -365.9, -551.4)" width="773.35" xlink:href="#sprite2"/>
  </g>
  <defs>
    <g id="shape0" transform="matrix(1.0, 0.0, 0.0, 1.0, 52.8, 63.5)">
      <path d="M-13.4 -61.25 L-12.9 -61.65 -11.65 -61.65 -10.9 -60.15 -11.15 -59.75 -10.9 -56.15 -11.65 -55.15 -12.4 -55.15 Q-15.15 -58.9 -13.4 -61.25" fill="#1b1b1b" fill-rule="evenodd" stroke="none"/>
      <path d="M-10.9 -60.15 L-10.5 -60.15 -9.5 -46.4 -9.5 -45.65 -9.9 -45.65 -10.0 -46.25 -10.9 -56.15 -11.15 -59.75 -10.9 -60.15 M-8.15 -46.4 L-9.25 -60.65 -8.75 -60.65 -7.65 -46.5 -7.5 -44.75 -8.0 -44.65 -8.0 -45.0 -8.15 -46.4 M-3.4 -46.75 L-4.5 -60.25 -4.25 -60.4 5.1 -61.15 6.0 -47.5 6.0 -46.9 5.6 -46.75 2.1 -46.25 -3.25 -46.15 -3.4 -46.75 M-17.4 -43.65 L-14.25 -42.65 -16.75 -37.75 -17.0 -28.5 -17.5 -28.4 -18.15 -28.65 -18.9 -28.4 -19.25 -28.75 -18.75 -29.0 -18.5 -29.75 -19.65 -33.65 Q-16.4 -36.65 -19.75 -37.75 L-20.0 -37.9 -20.0 -38.65 -19.65 -41.0 -19.0 -41.15 -17.25 -41.25 -16.9 -41.4 -16.65 -42.25 -18.15 -43.15 -17.4 -43.65" fill="#181818" fill-rule="evenodd" stroke="none"/>
      <path d="M-9.5 -46.4 L-8.15 -46.4 -8.0 -45.0 -8.0 -44.65 -7.5 -44.75 -7.65 -46.5 -3.4 -46.75 -3.25 -46.15 2.1 -46.25 3.25 -45.75 -7.15 -44.25 -14.25 -42.65 -17.4 -43.65 -18.15 -43.9 -17.65 -44.4 -16.5 -45.15 -16.25 -45.25 -14.15 -45.9 -11.15 -46.25 -10.0 -46.25 -9.9 -45.65 -9.5 -45.65 -9.5 -46.4" fill="#525252" fill-rule="evenodd" stroke="none"/>
      <path d="M-19.25 -61.0 L-18.9 -61.0 -18.65 -61.15 -16.15 -61.15 -14.15 -45.9 -16.25 -45.25 -16.5 -45.15 -17.9 -45.25 -18.15 -45.4 -18.0 -45.65 -18.65 -50.0 -18.65 -50.4 -19.0 -52.75 -19.0 -52.9 -19.15 -54.65 Q-17.0 -56.15 -19.0 -60.75 L-19.25 -61.0 M8.0 7.25 L8.35 7.25 17.75 6.6 18.25 6.85 18.1 6.5 18.5 6.5 18.75 10.1 17.85 10.25 18.75 10.35 18.85 11.85 18.25 11.85 7.1 12.85 8.0 7.25" fill="#070707" fill-rule="evenodd" stroke="none"/>
      <path d="M-16.15 -61.15 L-13.4 -61.25 Q-15.15 -58.9 -12.4 -55.15 L-11.15 -46.25 -14.15 -45.9 -16.15 -61.15" fill="#5a5a5a" fill-rule="evenodd" stroke="none"/>
      <path d="M-19.4 -54.5 L-20.5 -54.75 -21.4 -56.4 -21.4 -56.5 -21.5 -56.9 -21.5 -57.15 -21.65 -58.4 -21.65 -58.9 -21.4 -59.75 -20.9 -60.9 -20.4 -61.25 -19.25 -61.0 -19.0 -60.75 Q-17.0 -56.15 -19.15 -54.65 L-19.4 -54.5 M-17.25 -16.5 L-18.15 -12.0 -18.4 -9.75 -17.65 -2.4 -19.4 -2.65 -20.0 -7.0 -20.4 -7.5 -18.9 -11.5 -17.75 -16.5 -17.25 -16.5" fill="#2f2f2f" fill-rule="evenodd" stroke="none"/>
      <path d="M-27.75 -20.75 L-47.9 -19.25 -47.4 -19.75 -48.4 -19.9 -46.0 -20.15 -27.9 -21.0 -27.75 -20.75 M-19.0 -52.9 L-19.4 -54.5 -19.15 -54.65 -19.0 -52.9 M-14.25 -21.9 L-13.9 -22.4 -13.75 -22.0 -14.25 -21.9" fill="#090909" fill-rule="evenodd" stroke="none"/>
      <path d="M6.0 -47.5 L10.25 -47.65 10.25 -47.25 10.75 -47.25 10.75 -47.65 12.5 -47.5 12.6 -47.5 13.0 -46.25 13.25 -47.5 14.85 -47.4 18.35 -46.5 20.0 -46.0 20.85 -45.25 12.35 -45.9 3.25 -45.75 2.1 -46.25 5.6 -46.75 6.0 -46.9 6.0 -47.5 M-11.9 -9.9 L-12.15 -10.4 -10.5 -12.4 -10.25 -12.0 -9.25 -9.5 -11.9 -9.9" fill="#555555" fill-rule="evenodd" stroke="none"/>
      <path d="M10.25 -47.65 L9.1 -62.9 9.6 -62.9 10.75 -47.65 10.75 -47.25 10.25 -47.25 10.25 -47.65 M12.5 -47.5 L11.6 -63.5 12.25 -63.5 13.25 -47.9 13.25 -47.5 13.0 -46.25 12.6 -47.5 12.5 -47.5 M26.85 -41.4 L27.25 -41.4 27.35 -41.25 27.75 -41.15 27.85 -41.0 28.25 -40.65 28.6 -39.9 28.6 -39.4 28.5 -38.5 28.1 -38.0 27.5 -37.5 26.6 -37.4 26.1 -37.4 25.6 -37.5 25.25 -37.75 25.1 -37.5 24.5 -39.9 24.5 -40.25 25.0 -40.9 26.35 -41.4 26.85 -41.4" fill="#171717" fill-rule="evenodd" stroke="none"/>
      <path d="M-27.5 -25.25 L-31.4 -27.4 -34.65 -31.5 Q-38.0 -42.65 -32.5 -42.65 L-31.5 -43.4 -23.15 -45.75 -18.15 -45.4 -17.9 -45.25 -16.5 -45.15 -17.65 -44.4 Q-18.0 -45.25 -22.4 -45.4 L-25.4 -44.5 Q-28.75 -42.75 -29.75 -39.15 L-29.75 -36.15 Q-29.5 -32.0 -27.25 -30.5 L-23.4 -28.5 -26.15 -24.9 -27.5 -25.25 M28.1 5.5 L39.35 3.75 39.6 7.25 Q43.1 11.1 44.1 11.0 L44.25 12.5 45.6 13.25 26.75 16.25 15.6 17.25 16.75 16.85 16.25 16.75 16.6 16.25 17.6 16.1 16.85 15.85 17.6 14.5 17.75 13.1 18.25 13.0 17.75 12.85 17.85 12.25 18.75 12.1 18.25 11.85 18.85 11.85 29.35 10.85 28.1 5.5 M-20.0 -37.9 L-19.75 -37.75 -20.4 -37.75 -21.25 -37.5 -21.5 -37.4 -22.0 -36.75 -22.25 -36.5 -22.25 -36.4 -22.25 -36.25 -22.4 -36.0 -22.4 -35.9 -22.25 -35.15 -22.25 -35.0 -22.15 -34.75 -22.0 -34.65 -21.9 -34.25 -22.25 -34.4 -22.9 -35.15 -23.15 -35.9 -23.0 -36.75 -22.5 -37.5 -21.9 -38.0 -21.15 -38.15 -20.5 -38.15 -20.15 -38.0 -20.0 -37.9 M-18.25 -16.5 L-16.25 -20.15 -15.75 -20.9 -16.0 -20.15 -15.75 -19.9 -15.75 -19.75 -17.25 -16.5 -17.75 -16.5 -18.25 -16.5" fill="#060606" fill-rule="evenodd" stroke="none"/>
      <path d="M-49.75 -23.4 L-27.5 -25.25 -26.15 -24.9 -26.75 -24.15 -44.15 -22.75 -44.75 -22.65 -45.0 -22.65 -45.9 -22.5 -48.15 -22.5 -49.65 -22.9 -49.75 -23.4 M28.6 -33.75 L26.1 -33.15 26.1 -33.65 26.0 -33.65 25.1 -37.25 25.1 -37.5 25.6 -37.5 26.1 -37.4 28.6 -33.75" fill="#2d2d2d" fill-rule="evenodd" stroke="none"/>
      <path d="M-47.9 -19.25 L-48.4 -19.15 Q-56.5 -20.4 -49.75 -23.4 L-49.65 -22.9 -48.15 -22.5 -45.9 -22.5 -45.9 -22.4 -50.9 -21.25 -51.5 -20.9 -51.4 -20.65 -50.5 -20.4 -46.0 -20.15 -48.4 -19.9 -47.4 -19.75 -47.9 -19.25 M-11.9 -19.75 L-11.4 -19.75 -2.5 -11.0 -1.4 -8.65 -3.75 -8.9 -10.25 -12.0 -10.5 -12.4 -11.9 -19.75" fill="#131313" fill-rule="evenodd" stroke="none"/>
      <path d="M-26.0 3.75 L-27.75 -6.75 -27.75 -20.75 -27.9 -21.0 -27.75 -22.65 Q-27.05 -23.25 -26.75 -24.15 L-26.15 -24.9 -23.4 -28.5 -23.0 -29.0 -20.25 -28.75 -22.15 -28.5 -22.4 -28.15 -24.75 -23.15 -25.0 -22.75 -25.0 -22.25 -25.25 -6.0 -24.75 -6.25 -24.75 -5.65 -25.25 -5.75 -24.75 1.25 -24.0 5.85 -24.25 6.1 -26.0 3.75 M-24.9 -22.0 L-24.5 -21.65 -24.65 -19.65 -24.9 -22.0 M-24.25 -21.4 L-24.0 -21.15 -24.0 -18.25 -24.25 -21.4 M-19.4 -2.65 L-21.4 -3.25 -22.0 -10.75 -19.4 -16.5 -19.15 -16.9 -18.25 -16.5 -17.75 -16.5 -18.9 -11.5 -20.4 -7.5 -20.0 -7.0 -19.4 -2.65 M-24.0 -13.25 L-24.15 -9.5 -24.4 -10.0 -24.75 -9.75 -24.75 -7.65 -25.0 -13.15 Q-25.25 -17.75 -24.65 -18.15 L-24.5 -11.0 -24.0 -13.25" fill="#2c2c2c" fill-rule="evenodd" stroke="none"/>
      <path d="M33.25 -27.9 L33.85 -28.15 34.25 -27.5 33.25 -27.9 M-26.75 -24.15 Q-27.05 -23.25 -27.75 -22.65 L-27.9 -21.0 -46.0 -20.15 -50.5 -20.4 -51.4 -20.65 -51.5 -20.9 -50.9 -21.25 -45.9 -22.4 -45.0 -22.65 -44.75 -22.65 -44.15 -22.75 -26.75 -24.15 M-13.25 -23.5 L-12.9 -24.0 -12.65 -23.9 -13.25 -23.5" fill="#191919" fill-rule="evenodd" stroke="none"/>
      <path d="M-18.5 -43.25 Q-28.9 -45.5 -29.75 -36.15 -29.15 -33.15 -27.5 -31.75 L-23.0 -29.0 -23.4 -28.5 -27.25 -30.5 Q-29.5 -32.0 -29.75 -36.15 L-29.75 -39.15 Q-28.75 -42.75 -25.4 -44.5 L-22.4 -45.4 Q-18.0 -45.25 -17.65 -44.4 L-18.15 -43.9 -18.5 -43.25" fill="#000000" fill-rule="evenodd" stroke="none"/>
      <path d="M8.25 -24.4 L8.75 -24.4 10.0 -11.4 10.6 -11.4 10.75 -11.0 10.1 -11.15 10.1 -10.75 10.35 -7.9 5.35 -7.75 7.1 -18.15 7.1 -18.25 7.25 -18.65 8.25 -24.4 M9.6 -24.0 L9.6 -22.9 9.25 -23.0 9.25 -24.15 9.6 -24.0 M9.35 -22.75 L9.75 -22.65 9.75 -21.5 9.35 -21.65 9.35 -22.75 M9.5 -21.4 L9.85 -21.25 9.85 -20.25 9.5 -20.4 9.5 -21.4 M10.1 -17.65 L9.75 -17.75 9.75 -18.5 10.1 -18.4 10.1 -17.65 M10.0 -19.75 L10.0 -18.9 9.6 -19.0 9.6 -19.9 10.0 -19.75 M10.0 -15.65 L10.35 -15.5 10.35 -14.9 10.0 -15.0 10.0 -15.65 M10.5 -14.15 L10.5 -13.65 10.1 -13.75 10.1 -14.25 10.5 -14.15 M10.25 -16.25 L9.85 -16.4 9.85 -17.0 10.25 -16.9 10.25 -16.25 M16.85 -1.65 L6.85 -0.75 6.5 -2.5 7.1 -2.5 16.1 -3.15 16.5 -2.75 16.5 -1.75 16.85 -1.65 M-18.15 -43.15 L-16.65 -42.25 -16.9 -41.4 -17.25 -41.25 -18.5 -42.0 -20.9 -42.4 -23.5 -41.65 -25.4 -40.0 -26.75 -37.9 -27.0 -35.4 -26.25 -32.9 -24.65 -30.9 -22.5 -29.75 -19.9 -29.4 -18.5 -29.75 -18.75 -29.0 -19.25 -28.75 -20.25 -28.75 -23.0 -29.0 -27.5 -31.75 Q-29.15 -33.15 -29.75 -36.15 -28.9 -45.5 -18.5 -43.25 L-18.15 -43.15" fill="#252525" fill-rule="evenodd" stroke="none"/>
      <path d="M-18.15 -43.15 L-18.5 -43.25 -18.15 -43.9 -17.4 -43.65 -18.15 -43.15" fill="#1e1e1e" fill-rule="evenodd" stroke="none"/>
      <path d="M13.25 -47.9 L17.75 -49.0 Q25.85 -48.9 26.5 -47.0 L23.1 -47.15 Q21.6 -48.5 18.1 -48.5 L14.85 -47.4 13.25 -47.5 13.25 -47.9" fill="#313131" fill-rule="evenodd" stroke="none"/>
      <path d="M26.5 -47.0 Q31.0 -47.25 32.85 -40.65 32.5 -33.25 26.6 -32.5 L26.25 -32.5 26.1 -33.15 28.6 -33.75 30.6 -35.4 31.75 -37.5 32.25 -39.15 31.85 -40.0 31.5 -42.4 30.0 -44.4 27.75 -45.65 25.5 -45.9 23.0 -45.25 21.75 -44.25 20.85 -45.25 21.0 -45.9 20.0 -46.0 18.35 -46.5 20.75 -47.25 23.1 -47.15 26.5 -47.0" fill="#585858" fill-rule="evenodd" stroke="none"/>
      <path d="M26.6 -32.5 L27.75 -32.5 28.6 -31.9 26.5 -31.9 26.25 -32.4 26.25 -32.5 26.6 -32.5" fill="#4a4a4a" fill-rule="evenodd" stroke="none"/>
      <path d="M26.1 -33.15 L26.25 -32.5 26.25 -32.4 26.5 -31.9 26.1 -30.9 25.5 -30.9 24.35 -29.75 22.85 -29.25 22.5 -29.25 19.75 -29.0 15.0 -28.65 14.25 -28.65 13.5 -28.5 9.6 -28.25 6.0 -40.9 3.25 -45.75 12.35 -45.9 20.85 -45.25 21.75 -44.25 21.85 -44.25 24.0 -41.4 24.5 -40.25 24.5 -39.9 25.1 -37.5 25.1 -37.25 26.0 -33.65 26.1 -33.15" fill="#aeaeae" fill-rule="evenodd" stroke="none"/>
      <path d="M30.6 -35.4 L28.6 -33.75 26.1 -37.4 26.6 -37.4 27.5 -37.5 30.0 -35.75 30.6 -35.4 M-10.25 -12.0 L-3.75 -8.9 -9.25 -9.5 -10.25 -12.0" fill="#1d1d1d" fill-rule="evenodd" stroke="none"/>
      <path d="M13.85 17.85 L-5.4 19.6 -19.9 20.1 -18.65 19.1 -16.0 18.75 3.1 18.25 14.1 17.35 13.85 17.85 M28.5 -38.5 L31.75 -37.5 30.6 -35.4 30.0 -35.75 27.5 -37.5 28.1 -38.0 28.5 -38.5" fill="#0b0b0b" fill-rule="evenodd" stroke="none"/>
      <path d="M23.0 -45.25 L25.5 -45.9 27.75 -45.65 30.0 -44.4 31.5 -42.4 31.85 -40.0 32.25 -39.15 31.75 -37.5 28.5 -38.5 28.6 -39.4 28.6 -39.9 28.25 -40.65 27.85 -41.0 27.75 -41.15 27.35 -41.25 27.25 -41.4 26.85 -41.4 26.35 -41.5 25.5 -41.75 24.75 -41.75 24.1 -41.65 24.1 -43.0 23.85 -44.4 23.35 -44.4 23.0 -45.25 M-23.5 -41.65 L-20.9 -42.4 -18.5 -42.0 -17.25 -41.25 -19.0 -41.15 -19.65 -41.0 -20.0 -38.65 -20.15 -38.0 -20.5 -38.15 -21.15 -38.15 -21.9 -38.0 -21.9 -38.5 -22.9 -40.25 -23.5 -41.65" fill="#080808" fill-rule="evenodd" stroke="none"/>
      <path d="M23.0 -45.25 L23.35 -44.4 21.85 -44.25 21.75 -44.25 23.0 -45.25 M4.85 -7.9 L6.1 -14.75 7.1 -18.15 5.35 -7.75 4.85 -7.9 M-19.75 -37.75 Q-16.4 -36.65 -19.65 -33.65 L-20.0 -33.65 -20.75 -33.4 -21.5 -34.0 -21.65 -34.0 -22.0 -34.65 -22.15 -34.75 -22.25 -35.0 -22.25 -35.15 -22.4 -35.9 -22.4 -36.0 -22.25 -36.25 -22.25 -36.4 -22.15 -36.5 -22.25 -36.5 -22.0 -36.75 -21.5 -37.4 -21.25 -37.5 -20.4 -37.75 -19.75 -37.75" fill="#141414" fill-rule="evenodd" stroke="none"/>
      <path d="M23.35 -44.4 L23.85 -44.4 24.1 -43.0 24.1 -41.65 24.0 -41.4 21.85 -44.25 23.35 -44.4 M20.0 -46.0 L21.0 -45.9 20.85 -45.25 20.0 -46.0" fill="#575757" fill-rule="evenodd" stroke="none"/>
      <path d="M44.1 -16.15 L44.5 -9.4 45.0 -8.4 44.35 -7.9 43.85 -14.9 43.35 -16.75 44.1 -16.15 M34.25 -28.25 L34.5 -28.0 34.6 -27.65 34.6 -27.25 35.0 -27.25 35.25 -26.9 37.5 -13.75 36.75 -13.5 34.6 -27.25 34.25 -27.5 33.85 -28.15 34.25 -28.25 M40.6 -21.65 L41.1 -20.65 39.6 -16.65 38.5 -23.65 38.75 -23.5 39.0 -23.25 39.6 -22.4 40.0 -22.15 40.6 -21.65 M36.6 -25.5 L36.75 -25.5 37.35 -24.9 37.5 -24.65 39.0 -15.15 38.75 -14.0 38.35 -14.0 36.6 -25.5 M29.5 -26.4 L31.75 -11.9 22.1 -8.9 15.1 -8.25 11.25 -20.5 9.6 -24.5 11.5 -24.65 28.35 -26.0 29.5 -26.4 M18.35 -46.5 L14.85 -47.4 18.1 -48.5 Q21.6 -48.5 23.1 -47.15 L20.75 -47.25 18.35 -46.5 M-25.0 -22.25 L-24.9 -22.0 -24.65 -19.65 -24.5 -21.65 -24.25 -21.4 -24.0 -18.25 -24.0 -13.25 -24.5 -11.0 -24.65 -18.15 Q-25.25 -17.75 -25.0 -13.15 L-24.75 -7.65 -24.75 -9.75 -24.4 -10.0 -24.15 -9.5 -24.15 -6.0 -24.4 -4.65 -24.75 -5.65 -24.75 -6.25 -25.25 -6.0 -25.0 -22.25 M-45.0 -22.65 L-45.9 -22.4 -45.9 -22.5 -45.0 -22.65 M-6.5 -2.65 Q-7.15 -2.15 -6.4 2.25 L-5.15 7.6 8.0 7.25 7.1 12.85 18.25 11.85 18.75 12.1 17.85 12.25 17.75 12.85 18.25 13.0 17.75 13.1 17.6 14.5 16.85 15.85 17.6 16.1 16.6 16.25 16.25 16.75 16.75 16.85 15.6 17.25 14.1 17.35 3.1 18.25 -16.0 18.75 -17.15 5.1 -15.75 3.75 -6.5 -2.65" fill="#020202" fill-rule="evenodd" stroke="none"/>
      <path d="M24.1 -41.65 L24.75 -41.75 25.5 -41.75 26.35 -41.5 26.35 -41.4 25.0 -40.9 24.5 -40.25 24.0 -41.4 24.1 -41.65 M25.1 -37.5 L25.25 -37.75 25.6 -37.5 25.1 -37.5 M45.6 13.25 L44.25 12.5 44.1 11.0 45.0 7.85 45.25 7.75 45.6 8.85 45.6 13.25" fill="#111111" fill-rule="evenodd" stroke="none"/>
      <path d="M26.35 -41.5 L26.85 -41.4 26.35 -41.4 26.35 -41.5" fill="#010101" fill-rule="evenodd" stroke="none"/>
      <path d="M3.25 -45.75 L6.0 -40.9 9.6 -28.25 9.1 -28.15 4.6 -27.9 4.1 -27.75 3.35 -27.75 -5.0 -27.0 -5.4 -27.0 Q-8.25 -27.15 -10.65 -28.0 L-15.9 -28.0 -17.0 -28.5 -16.75 -37.75 -14.25 -42.65 -7.15 -44.25 3.25 -45.75" fill="#333333" fill-rule="evenodd" stroke="none"/>
      <path d="M9.6 -28.25 L13.5 -28.5 14.25 -28.65 15.0 -28.65 17.0 -28.75 18.5 -28.15 10.6 -27.5 10.1 -27.75 9.85 -27.5 10.1 -27.9 9.1 -28.15 9.6 -28.25 M-26.25 -32.9 L-27.0 -35.4 -26.25 -35.4 -23.15 -35.9 -22.9 -35.15 -25.5 -33.25 -26.25 -32.9" fill="#656565" fill-rule="evenodd" stroke="none"/>
      <path d="M28.6 -31.9 L34.1 -30.5 22.85 -29.25 24.35 -29.75 25.5 -30.9 26.1 -30.9 26.5 -31.9 28.6 -31.9 M15.0 -28.65 L19.75 -29.0 17.0 -28.75 15.0 -28.65 M0.75 -27.4 L-5.0 -27.0 3.35 -27.75 0.75 -27.4 M-5.4 -27.0 L-17.4 -26.25 -18.15 -26.5 -20.0 -27.9 -19.4 -28.15 -17.5 -28.4 -17.0 -28.5 -15.9 -28.0 -10.65 -28.0 Q-8.25 -27.15 -5.4 -27.0" fill="#373737" fill-rule="evenodd" stroke="none"/>
      <path d="M34.1 -30.5 L34.5 -30.5 35.25 -28.9 34.25 -28.25 33.85 -28.15 33.25 -27.9 29.5 -26.4 28.35 -26.0 11.5 -24.65 10.6 -27.25 9.85 -27.5 10.6 -27.5 18.5 -28.15 17.0 -28.75 19.75 -29.0 22.5 -29.25 22.85 -29.25 34.1 -30.5" fill="#666666" fill-rule="evenodd" stroke="none"/>
      <path d="M-20.0 -38.65 L-20.0 -37.9 -20.15 -38.0 -20.0 -38.65" fill="#323232" fill-rule="evenodd" stroke="none"/>
      <path d="M-25.4 -40.0 L-23.5 -41.65 -22.9 -40.25 -21.9 -38.5 -21.9 -38.0 -22.5 -37.5 -24.65 -39.25 -25.4 -40.0 M8.35 7.25 L17.75 3.1 18.1 6.5 17.75 6.6 8.35 7.25" fill="#151515" fill-rule="evenodd" stroke="none"/>
      <path d="M-26.75 -37.9 L-25.4 -40.0 -24.65 -39.25 -22.5 -37.5 -23.0 -36.75 -26.75 -37.9" fill="#272727" fill-rule="evenodd" stroke="none"/>
      <path d="M-27.0 -35.4 L-26.75 -37.9 -23.0 -36.75 -23.15 -35.9 -26.25 -35.4 -27.0 -35.4" fill="#363636" fill-rule="evenodd" stroke="none"/>
      <path d="M-24.65 -30.9 L-26.25 -32.9 -25.5 -33.25 -22.5 -34.25 -23.9 -31.9 -24.65 -30.9" fill="#a7a7a7" fill-rule="evenodd" stroke="none"/>
      <path d="M-22.25 -34.4 L-22.5 -34.25 -25.5 -33.25 -22.9 -35.15 -22.25 -34.4" fill="#a8a8a8" fill-rule="evenodd" stroke="none"/>
      <path d="M-21.9 -34.25 L-21.65 -34.0 -21.65 -33.75 -23.9 -31.9 -22.5 -34.25 -22.25 -34.4 -21.9 -34.25" fill="#b8b8b8" fill-rule="evenodd" stroke="none"/>
      <path d="M26.0 -33.65 L26.1 -33.65 26.1 -33.15 26.0 -33.65" fill="#868686" fill-rule="evenodd" stroke="none"/>
      <path d="M-22.25 -36.5 L-22.15 -36.5 -22.25 -36.4 -22.25 -36.5 M-22.0 -34.65 L-21.65 -34.0 -21.9 -34.25 -22.0 -34.65 M-15.75 -20.9 L-13.25 -23.5 -13.9 -22.4 -14.25 -21.9 -15.75 -19.9 -16.0 -20.15 -15.75 -20.9" fill="#101010" fill-rule="evenodd" stroke="none"/>
      <path d="M-19.9 -29.4 L-22.5 -29.75 -22.0 -31.0 -21.65 -33.75 -21.65 -34.0 -21.5 -34.0 -20.75 -33.4 -20.15 -31.75 -19.9 -29.4" fill="#727272" fill-rule="evenodd" stroke="none"/>
      <path d="M-18.5 -29.75 L-19.9 -29.4 -20.15 -31.75 -20.75 -33.4 -20.0 -33.65 -19.65 -33.65 -18.5 -29.75" fill="#2b2b2b" fill-rule="evenodd" stroke="none"/>
      <path d="M-22.5 -29.75 L-24.65 -30.9 -23.9 -31.9 -21.65 -33.75 -22.0 -31.0 -22.5 -29.75" fill="#b7b7b7" fill-rule="evenodd" stroke="none"/>
      <path d="M34.5 -30.5 L41.0 -25.65 44.1 -16.15 43.35 -16.75 41.75 -21.15 41.1 -20.65 40.6 -21.65 41.6 -21.4 41.5 -21.65 38.35 -25.9 34.5 -28.0 34.25 -28.25 35.25 -28.9 34.5 -30.5 M34.6 -27.25 L34.6 -27.65 35.0 -27.25 34.6 -27.25 M38.35 -23.9 L38.75 -23.5 38.5 -23.65 38.35 -23.9" fill="#535353" fill-rule="evenodd" stroke="none"/>
      <path d="M9.85 -27.5 L10.6 -27.25 11.5 -24.65 9.6 -24.5 8.75 -24.4 8.25 -24.4 -3.5 -23.4 -6.9 -23.5 -7.75 -23.65 -11.0 -24.25 -12.65 -24.5 -15.5 -25.0 -17.4 -26.25 -5.4 -27.0 -5.0 -27.0 0.75 -27.4 1.75 -26.9 3.5 -26.9 9.85 -27.5" fill="#494949" fill-rule="evenodd" stroke="none"/>
      <path d="M3.35 -27.75 L4.1 -27.75 4.6 -27.9 9.1 -28.15 10.1 -27.9 9.85 -27.5 3.5 -26.9 1.75 -26.9 0.75 -27.4 3.35 -27.75 M10.6 -27.5 L9.85 -27.5 10.1 -27.75 10.6 -27.5" fill="#606060" fill-rule="evenodd" stroke="none"/>
      <path d="M-20.25 -28.75 L-19.25 -28.75 -18.9 -28.4 -19.4 -28.15 -20.0 -27.9 -24.75 -23.15 -22.4 -28.15 -22.15 -28.5 -20.25 -28.75" fill="#353535" fill-rule="evenodd" stroke="none"/>
      <path d="M-19.4 -28.15 L-18.9 -28.4 -18.15 -28.65 -17.5 -28.4 -19.4 -28.15" fill="#2a2a2a" fill-rule="evenodd" stroke="none"/>
      <path d="M-21.4 16.75 L-23.65 13.0 -23.9 7.1 -24.25 6.1 -24.0 5.85 -24.75 1.25 -25.25 -5.75 -24.75 -5.65 -24.4 -4.65 -24.15 -4.5 -23.75 -4.0 -23.5 -20.75 -24.0 -21.15 -24.25 -21.4 -24.5 -21.65 -24.9 -22.0 -25.0 -22.25 -25.0 -22.75 -24.75 -23.15 -20.0 -27.9 -18.15 -26.5 -17.4 -26.25 -22.9 -20.25 -23.0 -1.4 -21.4 16.75" fill="#161616" fill-rule="evenodd" stroke="none"/>
      <path d="M34.5 -28.0 L38.35 -25.9 41.5 -21.65 41.6 -21.4 40.6 -21.65 40.0 -22.15 39.6 -22.4 39.0 -23.25 38.75 -23.5 38.35 -23.9 37.5 -24.65 37.35 -24.9 36.75 -25.5 36.6 -25.5 35.6 -26.65 Q35.45 -26.75 35.25 -26.9 L35.0 -27.25 34.6 -27.65 34.5 -28.0" fill="#696969" fill-rule="evenodd" stroke="none"/>
      <path d="M31.75 -11.9 L36.75 -13.5 37.5 -13.75 38.35 -14.0 38.75 -14.0 35.75 -9.9 36.85 -8.15 36.85 -6.5 37.75 -5.75 38.25 -4.0 39.25 -2.4 39.0 0.75 39.35 3.75 28.1 5.5 27.75 5.5 17.75 3.1 16.85 -1.65 26.6 -2.4 26.1 -4.15 25.75 -4.15 16.1 -4.4 15.75 -4.4 16.0 -5.0 15.5 -5.25 Q15.35 -7.9 14.6 -8.25 L15.1 -8.25 22.1 -8.9 31.75 -11.9" fill="#6e6e6e" fill-rule="evenodd" stroke="none"/>
      <path d="M41.1 -20.65 L41.75 -21.15 43.35 -16.75 43.85 -14.9 38.75 -14.0 39.0 -15.15 39.6 -16.65 41.1 -20.65" fill="#141b13" fill-rule="evenodd" stroke="none"/>
      <path d="M36.85 -6.5 L36.85 -8.15 35.75 -9.9 38.75 -14.0 43.85 -14.9 44.35 -7.9 44.35 -7.5 36.85 -6.5" fill="#5b5b5b" fill-rule="evenodd" stroke="none"/>
      <path d="M-19.9 20.1 L-21.4 16.75 -23.0 -1.4 -22.9 -20.25 -17.4 -26.25 -15.5 -25.0 -12.65 -24.5 -11.0 -24.25 -10.9 -23.75 -10.0 -23.65 -7.75 -23.65 -6.9 -23.5 -6.75 -23.25 -6.25 -22.15 -5.15 -20.25 -4.4 -19.25 -2.5 -16.15 -1.65 -13.75 -2.5 -11.0 -11.4 -19.75 -11.9 -19.75 -12.65 -24.5 -12.9 -24.0 -13.25 -23.5 -15.75 -20.9 -16.25 -20.15 -18.25 -16.5 -19.15 -16.9 -19.4 -16.5 -22.0 -10.75 -21.4 -3.25 -19.4 -2.65 -17.65 -2.4 -6.5 -2.65 -15.75 3.75 -17.15 5.1 -16.0 18.75 -18.65 19.1 -19.9 20.1 M-9.65 -22.9 L-9.9 -22.25 -9.4 -22.25 -7.9 -22.5 -7.5 -23.15 -9.65 -22.9" fill="#040404" fill-rule="evenodd" stroke="none"/>
      <path d="M-23.65 13.0 L-25.0 10.85 -26.0 3.75 -24.25 6.1 -23.9 7.1 -23.65 13.0 M16.1 -3.15 L7.1 -2.5 15.75 -4.4 16.1 -4.4 16.5 -3.25 16.1 -3.15" fill="#404040" fill-rule="evenodd" stroke="none"/>
      <path d="M-11.0 -24.25 L-7.75 -23.65 -10.0 -23.65 -10.9 -23.75 -11.0 -24.25 M-18.4 -9.75 L-11.9 -9.9 -7.75 -5.65 -6.5 -2.65 -17.65 -2.4 -18.4 -9.75" fill="#0a0a0a" fill-rule="evenodd" stroke="none"/>
      <path d="M8.75 -24.4 L9.6 -24.5 11.25 -20.5 15.1 -8.25 14.6 -8.25 10.35 -7.9 10.1 -10.75 10.1 -11.15 10.75 -11.0 10.6 -11.4 10.0 -11.4 8.75 -24.4 M9.6 -24.0 L9.25 -24.15 9.25 -23.0 9.6 -22.9 9.6 -24.0 M9.35 -22.75 L9.35 -21.65 9.75 -21.5 9.75 -22.65 9.35 -22.75 M9.5 -21.4 L9.5 -20.4 9.85 -20.25 9.85 -21.25 9.5 -21.4 M10.25 -16.25 L10.25 -16.9 9.85 -17.0 9.85 -16.4 10.25 -16.25 M10.5 -14.15 L10.1 -14.25 10.1 -13.75 10.5 -13.65 10.5 -14.15 M10.0 -15.65 L10.0 -15.0 10.35 -14.9 10.35 -15.5 10.0 -15.65 M10.0 -19.75 L9.6 -19.9 9.6 -19.0 10.0 -18.9 10.0 -19.75 M10.1 -17.65 L10.1 -18.4 9.75 -18.5 9.75 -17.75 10.1 -17.65" fill="#777777" fill-rule="evenodd" stroke="none"/>
      <path d="M-12.9 -24.0 L-12.65 -24.5 -11.9 -19.75 -12.25 -19.65 -15.0 -13.9 -17.25 -16.5 -15.75 -19.75 -15.75 -19.9 -14.25 -21.9 -13.75 -22.0 -13.9 -22.4 -13.25 -23.5 -12.65 -23.9 -12.9 -24.0" fill="#565656" fill-rule="evenodd" stroke="none"/>
      <path d="M-3.5 -23.4 L8.25 -24.4 7.25 -18.65 7.1 -18.25 7.1 -18.15 6.1 -14.75 4.85 -7.9 -1.4 -8.65 -2.5 -11.0 -1.65 -13.75 -2.5 -16.15 -4.4 -19.25 -5.15 -20.25 -6.25 -22.15 -5.0 -22.25 -3.5 -23.4 M-24.0 -21.15 L-23.5 -20.75 -23.75 -4.0 -24.15 -4.5 -24.4 -4.65 -24.15 -6.0 -24.15 -9.5 -24.0 -13.25 -24.0 -18.25 -24.0 -21.15" fill="#030303" fill-rule="evenodd" stroke="none"/>
      <path d="M4.85 -7.9 L5.35 -7.75 10.35 -7.9 14.6 -8.25 Q15.35 -7.9 15.5 -5.25 L16.0 -5.0 15.75 -4.4 7.1 -2.5 6.5 -2.5 6.85 -0.75 16.85 -1.65 17.75 3.1 8.35 7.25 8.0 7.25 -5.15 7.6 -6.4 2.25 Q-7.15 -2.15 -6.5 -2.65 L-7.75 -5.65 -11.9 -9.9 -9.25 -9.5 -3.75 -8.9 -1.4 -8.65 4.85 -7.9" fill="#292929" fill-rule="evenodd" stroke="none"/>
      <path d="M-6.9 -23.5 L-3.5 -23.4 -5.0 -22.25 -6.25 -22.15 -6.75 -23.25 -6.9 -23.5" fill="#0f0f0f" fill-rule="evenodd" stroke="none"/>
      <path d="M-9.65 -22.9 L-7.5 -23.15 -7.9 -22.5 -9.4 -22.25 -9.9 -22.25 -9.65 -22.9" fill="#050505" fill-rule="evenodd" stroke="none"/>
      <path d="M37.75 -5.75 L36.85 -6.5 44.35 -7.5 44.75 -1.65 37.75 -5.75" fill="#5e5e5e" fill-rule="evenodd" stroke="none"/>
      <path d="M45.0 -8.4 L46.6 13.35 45.6 13.25 45.6 8.85 45.25 7.75 45.25 7.0 45.35 5.1 45.75 4.6 44.75 -1.65 44.35 -7.5 44.35 -7.9 45.0 -8.4" fill="#232323" fill-rule="evenodd" stroke="none"/>
      <path d="M-18.4 -9.75 L-18.15 -12.0 -17.25 -16.5 -15.0 -13.9 -12.15 -10.4 -11.9 -9.9 -18.4 -9.75" fill="#050805" fill-rule="evenodd" stroke="none"/>
      <path d="M-12.15 -10.4 L-15.0 -13.9 -12.25 -19.65 -11.9 -19.75 -10.5 -12.4 -12.15 -10.4" fill="#858585" fill-rule="evenodd" stroke="none"/>
      <path d="M16.5 -3.25 L16.1 -4.4 25.75 -4.15 16.5 -3.25" fill="#515151" fill-rule="evenodd" stroke="none"/>
      <path d="M16.85 -1.65 L16.5 -1.75 16.5 -2.75 16.1 -3.15 16.5 -3.25 25.75 -4.15 26.1 -4.15 26.6 -2.4 16.85 -1.65" fill="#383838" fill-rule="evenodd" stroke="none"/>
      <path d="M46.6 13.35 L46.35 14.25 46.0 14.35 32.75 16.25 13.85 17.85 14.1 17.35 15.6 17.25 26.75 16.25 45.6 13.25 46.6 13.35 M27.75 5.5 L28.1 5.5 29.35 10.85 18.85 11.85 18.75 10.35 17.85 10.25 18.75 10.1 18.5 6.5 27.75 5.5 M18.1 6.5 L18.25 6.85 17.75 6.6 18.1 6.5" fill="#0e0e0e" fill-rule="evenodd" stroke="none"/>
      <path d="M17.75 3.1 L27.75 5.5 18.5 6.5 18.1 6.5 17.75 3.1" fill="#202020" fill-rule="evenodd" stroke="none"/>
      <path d="M39.35 3.75 L39.0 0.75 39.25 -2.4 38.25 -4.0 37.75 -5.75 44.75 -1.65 45.75 4.6 45.35 5.1 45.25 7.0 45.0 7.85 44.1 11.0 Q43.1 11.1 39.6 7.25 L39.35 3.75" fill="#3b3b3b" fill-rule="evenodd" stroke="none"/>
      <path d="M45.0 7.85 L45.25 7.0 45.25 7.75 45.0 7.85" fill="#121212" fill-rule="evenodd" stroke="none"/>
    </g>
    <g id="shape1" transform="matrix(1.0, 0.0, 0.0, 1.0, 157.4, 79.15)">
      <path d="M-18.65 -67.65 L-10.75 -79.0 -10.4 -79.15 -9.25 -78.4 -9.4 -78.15 -9.5 -77.9 -9.9 -77.25 -11.9 -74.9 -13.65 -71.75 -14.9 -70.5 -17.4 -66.5 -17.5 -66.25 -17.9 -65.75 -18.0 -65.5 -18.75 -64.5 -19.15 -64.0 -19.9 -64.75 -18.65 -67.65" fill="#4f4f4f" fill-rule="evenodd" stroke="none"/>
      <path d="M-18.5 -68.15 L-18.65 -67.65 -19.9 -64.75 -20.75 -63.4 -21.5 -63.4 -20.65 -65.65 -18.5 -68.15 M-9.9 -77.25 L-9.9 -76.75 -15.5 -68.65 -17.4 -66.5 -14.9 -70.5 -13.65 -71.75 -11.9 -74.9 -9.9 -77.25 M-22.25 -60.5 L-22.75 -59.75 -22.75 -60.5 -22.25 -60.5" fill="#020202" fill-rule="evenodd" stroke="none"/>
      <path d="M-21.9 -66.4 L-19.4 -70.0 -18.0 -69.25 -18.4 -68.65 -18.4 -68.5 -18.5 -68.25 -18.5 -68.15 -20.65 -65.65 -21.9 -66.4" fill="#4c4c4c" fill-rule="evenodd" stroke="none"/>
      <path d="M9.85 -64.65 L181.5 -77.9 181.5 -76.15 180.85 -76.15 180.25 -76.0 179.25 -76.0 178.75 -75.9 177.6 -75.9 177.0 -75.75 176.1 -75.75 175.35 -75.65 174.5 -75.65 173.85 -75.5 173.0 -75.5 172.25 -75.4 171.35 -75.4 170.6 -75.25 169.75 -75.25 169.0 -75.15 168.1 -75.15 167.5 -75.0 166.5 -75.0 165.85 -74.9 164.85 -74.9 164.25 -74.75 163.25 -74.75 162.6 -74.65 161.6 -74.65 161.0 -74.5 160.0 -74.5 159.35 -74.4 158.35 -74.4 157.75 -74.25 156.75 -74.25 156.1 -74.15 155.1 -74.15 154.5 -74.0 153.5 -74.0 152.85 -73.9 151.75 -73.9 151.25 -73.75 150.1 -73.75 149.6 -73.65 148.5 -73.65 148.0 -73.5 146.85 -73.5 146.1 -73.4 145.25 -73.4 144.5 -73.25 143.6 -73.25 142.85 -73.15 142.0 -73.15 141.25 -73.0 140.35 -73.0 139.6 -72.9 138.75 -72.9 138.0 -72.75 137.1 -72.75 136.35 -72.65 135.5 -72.65 134.75 -72.5 133.85 -72.5 133.1 -72.4 132.25 -72.4 131.5 -72.25 130.5 -72.25 129.85 -72.15 128.85 -72.15 128.25 -72.0 127.25 -72.0 126.6 -71.9 125.6 -71.9 125.0 -71.75 124.0 -71.75 123.25 -71.65 122.35 -71.65 121.6 -71.5 120.75 -71.5 120.0 -71.4 119.1 -71.4 118.35 -71.25 117.5 -71.25 116.75 -71.15 115.85 -71.15 115.1 -71.0 114.25 -71.0 113.5 -70.9 112.6 -70.9 111.85 -70.75 111.0 -70.75 110.25 -70.65 109.35 -70.65 108.6 -70.5 107.6 -70.5 107.0 -70.4 106.0 -70.4 105.35 -70.25 104.35 -70.25 103.75 -70.15 102.75 -70.15 102.1 -70.0 101.1 -70.0 100.35 -69.9 99.5 -69.9 98.85 -69.75 97.85 -69.75 97.25 -69.65 96.25 -69.65 95.6 -69.5 94.6 -69.5 94.0 -69.4 93.0 -69.4 92.35 -69.25 91.35 -69.25 90.75 -69.15 89.75 -69.15 89.1 -69.0 88.1 -69.0 87.5 -68.9 86.5 -68.9 85.85 -68.75 84.75 -68.75 84.25 -68.65 83.1 -68.65 82.6 -68.5 81.5 -68.5 81.0 -68.4 79.85 -68.4 79.35 -68.25 78.25 -68.25 77.75 -68.15 76.6 -68.15 75.85 -68.0 75.0 -68.0 74.25 -67.9 73.35 -67.9 72.6 -67.75 71.75 -67.75 71.0 -67.65 70.1 -67.65 69.35 -67.5 68.5 -67.5 67.75 -67.4 66.85 -67.4 66.1 -67.25 65.25 -67.25 64.5 -67.15 63.6 -67.15 62.85 -67.0 61.85 -67.0 61.25 -66.9 60.25 -66.9 59.6 -66.75 58.6 -66.75 58.0 -66.65 57.0 -66.65 56.35 -66.5 55.35 -66.5 54.75 -66.4 53.75 -66.4 53.0 -66.25 52.1 -66.25 51.35 -66.15 50.5 -66.15 49.75 -66.0 48.85 -66.0 48.1 -65.9 47.25 -65.9 46.5 -65.75 45.6 -65.75 44.85 -65.65 44.0 -65.65 43.25 -65.5 42.35 -65.5 41.6 -65.4 40.6 -65.4 40.0 -65.25 39.0 -65.25 38.35 -65.15 37.35 -65.15 36.75 -65.0 35.75 -65.0 35.1 -64.9 34.1 -64.9 33.5 -64.75 32.85 -64.75 32.5 -64.75 31.85 -64.65 30.85 -64.65 30.1 -64.5 29.25 -64.5 28.5 -64.4 27.6 -64.4 26.75 -64.25 26.0 -64.25 25.25 -64.15 24.35 -64.15 23.6 -64.0 22.75 -64.0 22.1 -63.9 21.1 -63.9 20.35 -63.75 19.5 -63.75 18.75 -63.65 17.75 -63.65 17.1 -63.5 16.1 -63.5 15.6 -63.4 14.5 -63.4 13.85 -63.25 12.85 -63.25 12.1 -63.15 12.1 -63.25 11.6 -63.5 11.6 -63.15 11.25 -63.15 9.85 -62.75 8.85 -62.9 6.5 -62.75 8.25 -63.65 8.6 -63.75 8.6 -64.65 9.85 -64.65 M26.0 -63.4 L12.6 -62.65 12.1 -62.9 26.0 -63.4 M11.5 -62.75 L10.0 -62.65 9.85 -62.75 11.5 -62.75 M-9.9 -61.5 L-10.15 -61.5 -10.65 -61.4 -11.75 -61.4 -12.25 -61.25 -13.4 -61.25 -13.9 -61.15 -15.0 -61.15 -15.5 -61.0 -16.5 -61.0 -17.25 -60.9 -18.15 -60.9 -18.9 -60.75 -19.75 -60.75 -20.5 -60.65 -21.5 -60.65 -22.15 -60.5 -22.25 -60.5 -22.75 -60.5 -22.75 -59.75 -23.0 -59.4 -23.4 -59.5 -24.25 -60.25 -24.65 -60.4 -25.4 -60.25 -26.25 -60.25 -26.9 -60.15 -28.0 -60.15 -28.65 -60.0 -29.65 -60.0 -30.25 -59.9 -31.25 -59.9 -31.9 -59.75 -32.9 -59.75 -33.5 -59.65 -34.5 -59.65 -35.15 -59.5 -36.15 -59.5 -36.75 -59.4 -37.75 -59.4 -38.4 -59.25 -39.4 -59.25 -40.0 -59.15 -41.0 -59.15 -41.65 -59.0 -42.65 -59.0 -43.25 -58.9 -44.25 -58.9 -44.9 -58.75 -45.9 -58.75 -46.5 -58.65 -47.5 -58.65 -48.25 -58.5 -49.4 -58.5 -49.9 -58.4 -51.0 -58.4 -51.5 -58.25 -52.65 -58.25 -53.15 -58.15 -54.25 -58.15 -54.75 -58.0 -55.9 -58.0 -56.4 -57.9 -57.5 -57.9 -58.0 -57.75 -59.15 -57.75 -59.65 -57.65 -60.75 -57.65 -61.25 -57.5 -62.4 -57.5 -63.0 -57.4 -64.0 -57.4 -64.65 -57.25 -65.65 -57.25 -66.25 -57.15 -67.25 -57.15 -67.9 -57.0 -68.9 -57.0 -69.5 -56.9 -70.5 -56.9 -71.15 -56.75 -72.25 -56.75 -72.75 -56.65 -73.9 -56.65 -74.4 -56.5 -75.5 -56.5 -76.0 -56.4 -77.15 -56.4 -77.65 -56.25 -78.75 -56.25 -79.25 -56.15 -80.4 -56.15 -80.9 -56.0 -82.0 -56.0 -82.5 -55.9 -83.65 -55.9 -84.15 -55.75 -85.25 -55.75 -85.75 -55.65 -86.9 -55.65 -87.5 -55.5 -88.4 -55.5 -89.15 -55.4 -90.0 -55.4 -90.75 -55.25 -91.75 -55.25 -92.4 -55.15 -93.25 -55.15 -94.0 -55.0 -95.0 -55.0 -95.65 -54.9 -96.65 -54.9 -97.25 -54.75 -98.25 -54.75 -98.9 -54.65 -99.9 -54.65 -100.5 -54.5 -101.5 -54.5 -102.15 -54.4 -103.15 -54.4 -103.65 -54.25 -104.75 -54.25 -105.25 -54.15 -106.4 -54.15 -106.9 -54.0 -108.0 -54.0 -108.5 -53.9 -109.65 -53.9 -110.4 -53.75 -111.25 -53.75 -112.0 -53.65 -112.9 -53.65 -113.65 -53.5 -114.5 -53.5 -115.25 -53.4 -116.15 -53.4 -116.9 -53.25 -118.0 -53.25 -118.5 -53.15 -119.65 -53.15 -120.15 -53.0 -121.25 -53.0 -121.75 -52.9 -122.9 -52.9 -123.4 -52.75 -124.5 -52.75 -125.0 -52.65 -126.15 -52.65 -126.65 -52.5 -127.75 -52.5 -128.25 -52.4 -129.4 -52.4 -129.9 -52.25 -131.0 -52.25 -131.5 -52.15 -132.65 -52.15 -133.25 -52.0 -134.25 -52.0 -134.9 -51.9 -135.9 -51.9 -136.5 -51.75 -137.5 -51.75 -138.15 -51.65 -139.15 -51.65 -139.75 -51.5 -140.75 -51.5 -141.4 -51.4 -142.4 -51.4 -143.0 -51.25 -144.0 -51.25 -144.65 -51.15 -145.65 -51.15 -146.25 -51.0 -147.25 -51.0 -147.9 -50.9 -149.0 -50.9 -149.5 -50.75 -150.4 -50.75 -151.0 -50.65 -151.9 -50.65 -152.75 -50.5 -153.65 -50.5 -154.25 -50.4 -155.25 -50.4 -155.75 -50.25 -157.25 -50.25 -157.4 -51.75 -59.25 -59.4 -60.4 -59.4 -60.5 -61.65 -52.0 -62.25 -51.9 -60.0 -7.4 -61.85 -9.9 -61.5 M-27.65 -48.5 L-28.5 -49.0 -28.65 -49.5 -28.5 -50.0 -28.5 -49.95 -28.4 -50.4 -28.25 -50.5 -28.25 -50.65 -28.0 -51.0 -27.75 -51.25 -27.15 -52.15 -26.9 -52.4 -26.15 -52.25 -26.5 -50.5 -27.0 -50.15 -27.65 -48.5 M-37.0 -38.15 L-38.15 -38.75 -37.75 -40.0 -36.5 -39.25 -37.0 -38.15 M-23.0 -63.4 L-21.9 -66.4 -20.65 -65.65 -21.5 -63.4 -23.0 -63.4 M-3.0 -62.15 L-4.15 -62.0 -4.75 -61.9 -6.5 -61.9 -4.15 -62.0 -3.5 -62.15 -3.0 -62.15" fill="#000000" fill-rule="evenodd" stroke="none"/>
      <path d="M-52.0 -62.25 L-42.75 -62.9 -23.0 -63.4 -21.5 -63.4 -20.75 -63.4 -18.9 -63.5 -10.0 -63.75 -5.15 -63.9 0.85 -64.0 1.85 -64.0 2.1 -63.15 2.1 -62.4 0.75 -62.4 0.25 -62.4 -0.15 -62.25 -2.4 -62.15 -3.0 -62.15 -3.5 -62.15 -4.15 -62.0 -6.5 -61.9 -7.15 -61.9 -7.4 -61.85 -51.9 -60.0 -52.0 -62.25" fill="#2a2a2a" fill-rule="evenodd" stroke="none"/>
      <path d="M-17.25 -60.9 L-16.0 -59.15 -15.65 -56.4 -16.5 -55.5 -17.15 -54.4 -17.4 -54.15 -18.65 -52.0 -18.75 -51.75 -18.75 -51.65 -19.15 -51.0 -25.15 -52.0 -26.15 -52.25 -26.9 -52.4 -26.65 -53.15 -28.25 -53.4 -28.0 -53.75 -24.25 -60.25 -23.4 -59.5 -23.0 -59.4 -22.75 -59.75 -22.25 -60.5 -22.15 -60.5 -21.5 -60.65 -20.5 -60.65 -19.75 -60.75 -18.9 -60.75 -18.15 -60.9 -17.25 -60.9 M-19.15 -64.0 L-18.9 -63.5 -20.75 -63.4 -19.9 -64.75 -19.15 -64.0" fill="#313131" fill-rule="evenodd" stroke="none"/>
      <path d="M-34.4 -42.0 L-35.5 -41.65 -35.75 -40.0 -36.5 -39.25 -37.75 -40.0 -28.25 -53.4 -26.65 -53.15 -26.9 -52.4 -27.15 -52.15 -27.75 -51.25 -28.0 -51.0 -28.25 -50.65 -28.25 -50.5 -28.4 -50.4 -28.5 -50.25 -28.75 -49.75 -29.15 -49.25 -30.4 -48.15 -30.75 -47.0 -33.4 -43.9 -34.4 -42.0" fill="#494949" fill-rule="evenodd" stroke="none"/>
      <path d="M-25.15 -52.0 L-26.4 -49.75 -27.4 -48.4 -27.65 -48.5 -27.0 -50.15 -26.5 -50.5 -26.15 -52.25 -25.15 -52.0 M-28.65 -49.5 L-29.15 -49.25 -33.15 -43.15 -34.4 -42.0 -33.4 -43.9 -30.75 -47.0 -30.4 -48.15 -29.15 -49.25 -28.75 -49.75 -28.5 -50.25 -28.4 -50.4 -28.5 -49.95 -28.75 -49.75 -28.65 -49.5 M-35.75 -40.0 L-35.75 -39.4 -36.65 -38.15 -37.0 -38.15 -36.5 -39.25 -35.75 -40.0" fill="#010101" fill-rule="evenodd" stroke="none"/>
      <path d="M10.0 -62.65 L9.85 -61.4 9.5 -61.15 9.25 -62.0 8.85 -62.0 8.85 -62.9 9.85 -62.75 10.0 -62.65 M9.0 -67.4 Q9.2 -67.25 9.35 -67.15 L9.85 -64.65 8.6 -64.65 8.6 -66.5 9.0 -67.4" fill="#525252" fill-rule="evenodd" stroke="none"/>
      <path d="M9.5 -61.15 Q6.6 -61.0 5.1 -60.0 L2.6 -60.9 Q4.1 -64.25 1.5 -67.75 L2.85 -68.15 6.75 -67.4 9.0 -67.4 8.6 -66.5 8.6 -64.65 8.6 -63.75 8.25 -63.65 6.5 -62.75 8.85 -62.9 8.85 -62.0 9.25 -62.0 9.5 -61.15" fill="#1f1f1f" fill-rule="evenodd" stroke="none"/>
      <path d="M-3.15 -67.9 L-2.65 -70.0 -1.5 -71.0 -0.65 -71.25 1.35 -70.9 2.5 -69.75 2.85 -68.15 1.5 -67.75 -1.4 -68.0 -2.9 -67.75 -3.15 -67.9" fill="#4e4e4e" fill-rule="evenodd" stroke="none"/>
      <path d="M-3.65 -60.25 L-4.5 -59.25 -8.5 -59.75 -8.75 -60.65 -9.4 -60.65 -9.5 -60.15 -9.9 -61.5 -7.4 -61.85 -7.15 -61.9 -6.5 -61.9 -4.75 -61.9 -4.25 -61.0 -4.0 -60.9 -3.65 -60.25 M-10.0 -63.75 L-9.75 -65.9 -7.4 -66.25 -3.15 -67.9 -2.9 -67.75 -4.0 -66.0 -4.15 -66.0 -4.4 -65.9 -4.5 -65.65 -5.15 -63.9 -10.0 -63.75" fill="#101010" fill-rule="evenodd" stroke="none"/>
      <path d="M-4.15 -66.0 L-4.0 -66.0 -3.65 -66.4 Q-0.65 -67.9 0.85 -64.0 L-5.15 -63.9 -4.5 -65.65 -4.15 -66.0 M0.75 -62.4 L0.25 -61.25 -1.15 -60.5 -3.25 -60.5 -4.0 -60.9 -4.25 -61.0 -4.75 -61.9 -4.15 -62.0 -3.0 -62.15 -2.4 -62.15 -0.15 -62.25 0.25 -62.4 0.75 -62.4" fill="#090909" fill-rule="evenodd" stroke="none"/>
      <path d="M2.6 -60.9 Q-0.75 -58.5 -3.65 -60.25 L-4.0 -60.9 -3.25 -60.5 -1.15 -60.5 0.25 -61.25 0.75 -62.4 2.1 -62.4 2.1 -63.15 1.85 -64.0 0.85 -64.0 Q-0.65 -67.9 -3.65 -66.4 L-4.0 -66.0 -2.9 -67.75 -1.4 -68.0 1.5 -67.75 Q4.1 -64.25 2.6 -60.9" fill="#3d3d3d" fill-rule="evenodd" stroke="none"/>
      <path d="M32.85 -64.75 L32.75 -63.75 31.1 -63.75 30.85 -63.65 29.5 -63.65 28.85 -63.5 26.1 -63.4 26.0 -63.4 12.1 -62.9 12.1 -63.15 12.85 -63.25 13.85 -63.25 14.5 -63.4 15.6 -63.4 16.1 -63.5 17.1 -63.5 17.75 -63.65 18.75 -63.65 19.5 -63.75 20.35 -63.75 21.1 -63.9 22.1 -63.9 22.75 -64.0 23.6 -64.0 24.35 -64.15 25.25 -64.15 26.0 -64.25 26.75 -64.25 27.6 -64.4 28.5 -64.4 29.25 -64.5 30.1 -64.5 30.85 -64.65 31.85 -64.65 32.5 -64.75 32.85 -64.75 M11.6 -63.15 L11.5 -62.75 9.85 -62.75 11.25 -63.15 11.6 -63.15" fill="#181818" fill-rule="evenodd" stroke="none"/>
      <path d="M-4.5 -65.65 L-4.4 -65.9 -4.15 -66.0 -4.5 -65.65" fill="#151515" fill-rule="evenodd" stroke="none"/>
      <path d="M33.1 -27.9 L34.0 -28.25 34.35 -28.15 34.6 -28.0 34.75 -27.75 38.6 -25.65 38.85 -25.15 40.1 -23.25 40.35 -23.0 40.35 -22.9 40.85 -22.0 41.25 -21.5 41.0 -21.5 40.6 -21.65 41.1 -20.65 41.1 -20.0 41.0 -19.65 40.85 -19.4 40.75 -19.0 40.35 -18.4 40.1 -17.65 40.0 -17.5 39.75 -16.65 39.6 -16.65 39.35 -17.75 38.5 -23.5 38.35 -23.75 37.6 -24.65 37.25 -24.9 37.6 -22.4 37.6 -22.25 37.75 -21.9 38.1 -18.4 38.25 -18.25 38.5 -16.0 38.85 -14.9 38.75 -14.25 38.75 -14.0 38.35 -14.0 38.25 -15.9 36.85 -24.75 36.6 -25.5 36.35 -26.0 35.6 -26.65 Q35.45 -26.75 35.25 -26.9 L35.35 -25.25 35.85 -23.15 35.85 -22.65 36.0 -21.25 36.5 -19.15 36.6 -17.15 37.1 -15.15 37.1 -14.65 37.25 -13.65 37.1 -13.5 36.75 -13.4 36.35 -17.0 35.85 -19.25 35.75 -21.15 35.25 -23.25 35.1 -25.15 34.6 -27.25 34.25 -27.5 33.25 -27.9 33.1 -27.9 M31.6 -11.75 L22.35 -8.9 18.6 -8.5 17.5 -8.5 14.85 -8.25 15.0 -8.4 14.85 -8.75 14.6 -9.75 14.5 -9.75 14.35 -10.15 14.5 -10.5 14.1 -11.25 14.0 -11.4 13.85 -11.9 13.85 -12.0 12.6 -17.0 13.0 -17.75 11.6 -24.25 11.5 -24.65 19.85 -25.25 20.0 -25.25 28.1 -26.0 28.35 -25.9 29.5 -26.5 31.6 -12.5 31.6 -11.75" fill="#131313" fill-opacity="0.50980395" fill-rule="evenodd" stroke="none"/>
      <path d="M41.25 -21.5 L41.6 -21.15 41.35 -20.75 41.1 -20.65 40.6 -21.65 41.0 -21.5 41.25 -21.5" fill="#141414" fill-rule="evenodd" stroke="none"/>
      <path d="M36.75 -13.4 L31.6 -11.75 31.6 -12.5 29.5 -26.5 33.1 -27.9 33.25 -27.9 34.25 -27.5 34.6 -27.25 35.1 -25.15 35.25 -23.25 35.75 -21.15 35.85 -19.25 36.35 -17.0 36.75 -13.4" fill="#272727" fill-opacity="0.50980395" fill-rule="evenodd" stroke="none"/>
      <path d="M39.6 -16.65 L39.6 -16.15 39.25 -15.25 39.0 -14.9 38.85 -14.9 38.5 -16.0 38.25 -18.25 38.1 -18.4 37.75 -21.9 37.6 -22.25 37.6 -22.4 37.25 -24.9 37.6 -24.65 38.35 -23.75 38.5 -23.5 39.35 -17.75 39.6 -16.65 M38.35 -14.0 L38.35 -13.9 37.25 -13.65 37.1 -14.65 37.1 -15.15 36.6 -17.15 36.5 -19.15 36.0 -21.25 35.85 -22.65 35.85 -23.15 35.35 -25.25 35.25 -26.9 Q35.45 -26.75 35.6 -26.65 L36.35 -26.0 36.6 -25.5 36.85 -24.75 38.25 -15.9 38.35 -14.0" fill="#131313" fill-rule="evenodd" stroke="none"/>
      <path d="M11.0 -24.65 L11.5 -24.65 11.6 -24.25 11.1 -24.0 11.0 -24.65 M12.85 -15.25 L12.5 -16.5 12.5 -16.65 12.85 -15.25" fill="#0d0d0d" fill-rule="evenodd" stroke="none"/>
      <path d="M14.5 -8.25 L6.85 -7.5 5.35 -7.75 4.85 -7.9 -11.9 -9.9 -12.0 -9.9 -12.25 -10.4 -16.9 -16.0 -17.25 -16.25 -17.25 -16.5 -15.9 -20.65 -15.75 -20.9 -12.75 -24.25 -12.65 -24.5 -11.0 -24.15 -10.65 -24.15 -10.5 -24.0 -10.15 -23.9 -9.25 -23.9 -8.15 -23.65 -7.75 -23.5 -6.9 -23.5 -5.5 -23.25 -3.5 -23.25 -1.25 -23.65 -0.65 -23.65 2.25 -23.9 3.25 -23.9 7.6 -24.25 8.25 -24.4 8.75 -24.4 11.0 -24.65 11.1 -24.0 11.1 -23.65 11.25 -23.25 11.25 -23.0 11.35 -21.9 12.6 -17.0 12.5 -16.65 12.5 -16.5 12.85 -15.25 12.85 -15.15 13.0 -14.65 13.1 -14.5 13.35 -13.15 13.5 -12.9 13.5 -12.75 14.5 -8.25" fill="#040404" fill-opacity="0.50980395" fill-rule="evenodd" stroke="none"/>
      <path d="M-17.25 -16.25 L-17.5 -16.15 -17.65 -15.4 -17.5 -15.0 -18.0 -12.9 -18.0 -12.75 -18.15 -11.9 -18.0 -11.15 -18.25 -11.0 -18.4 -10.5 -18.15 -10.25 -18.4 -10.15 -18.4 -9.75 -18.5 -9.25 -18.15 -8.15 -18.4 -7.75 -18.0 -7.25 -17.75 -2.75 -17.65 -2.4 -19.4 -2.65 -19.75 -2.75 -20.25 -2.75 -20.65 -3.0 -21.4 -3.25 -21.65 -3.25 -22.0 -9.4 -22.0 -11.15 -21.5 -11.75 -19.25 -16.9 -18.4 -16.5 -17.75 -16.4 -17.25 -16.5 -17.25 -16.25 M-24.5 -15.4 L-24.5 -15.0 -24.4 -14.65 -24.4 -16.4 -24.5 -15.4 M-24.65 -17.5 L-24.4 -17.15 -24.4 -19.9 -24.65 -19.4 -24.75 -18.4 -24.65 -18.15 -24.65 -17.5 M-24.9 -22.0 L-24.65 -21.75 -24.4 -21.0 -24.4 -21.5 -24.25 -21.4 -24.0 -21.15 -24.0 -12.5 -23.9 -11.75 -24.0 -9.75 -24.4 -9.75 -24.15 -8.9 -24.15 -5.5 -24.0 -4.25 -24.4 -4.4 -24.4 -4.5 -24.5 -5.15 -25.0 -5.65 -25.15 -5.65 -25.25 -12.65 -25.15 -14.0 -25.25 -16.15 -25.0 -17.9 -25.0 -22.25 -24.9 -22.0 M-24.65 -9.75 L-24.75 -9.4 -24.65 -6.25 -24.5 -5.9 -24.5 -10.0 -24.65 -9.75" fill="#000000" fill-opacity="0.50980395" fill-rule="evenodd" stroke="none"/>
      <path d="M14.85 -8.25 L14.5 -8.25 13.5 -12.75 13.5 -12.9 13.35 -13.15 13.1 -14.5 13.0 -14.65 12.85 -15.15 12.85 -15.25 12.5 -16.65 12.6 -17.0 11.35 -21.9 11.25 -23.0 11.25 -23.25 11.1 -23.65 11.1 -24.0 11.6 -24.25 13.0 -17.75 12.6 -17.0 13.85 -12.0 13.85 -11.9 14.0 -11.4 14.1 -11.25 14.5 -10.5 14.35 -10.15 14.5 -9.75 14.6 -9.75 14.85 -8.75 15.0 -8.4 14.85 -8.25" fill="#151515" fill-rule="evenodd" stroke="none"/>
      <path d="M43.85 -15.5 L44.5 -8.9 44.35 -8.9 43.75 -14.9 43.85 -15.25 43.85 -15.5 M43.35 -16.75 L42.6 -18.9 43.1 -18.65 43.75 -16.65 43.35 -16.75" fill="#0e0e0e" fill-rule="evenodd" stroke="none"/>
      <path d="M43.85 -16.4 L43.85 -15.5 43.35 -16.75 43.75 -16.65 43.85 -16.65 43.85 -16.4 M44.5 -8.9 L44.6 -8.65 44.85 -8.5 45.0 -8.25 44.35 -7.65 44.35 -8.9 44.5 -8.9" fill="#0d0d0d" fill-opacity="0.50980395" fill-rule="evenodd" stroke="none"/>
      <path d="M43.85 -16.4 L44.5 -15.9 44.85 -8.5 44.6 -8.65 44.5 -8.9 43.85 -15.5 43.85 -16.4" fill="#0f0f0f" fill-rule="evenodd" stroke="none"/>
    </g>
    <g id="sprite0" transform="matrix(1.0, 0.0, 0.0, 1.0, 48.5, 16.85)">
      <use height="33.7" transform="matrix(1.0, 0.0, 0.0, 1.0, -43.85, -16.85)" width="87.7" xlink:href="#shape2"/>
    </g>
    <g id="shape2" transform="matrix(1.0, 0.0, 0.0, 1.0, 43.85, 16.85)">
      <path d="M34.2 -16.85 Q34.15 -15.9 34.35 -14.9 34.65 -13.2 35.5 -11.65 L36.1 -10.1 36.35 -8.95 Q36.5 -8.4 36.8 -8.15 L38.0 -7.9 40.3 -8.15 42.75 -8.5 43.85 -8.5 43.85 -7.65 43.45 -6.35 42.3 -4.75 Q40.95 -2.95 39.4 -2.15 L38.5 -1.7 38.15 -1.45 38.2 -1.15 38.45 -0.9 41.0 0.9 41.8 1.4 42.15 1.8 Q41.65 1.8 41.3 2.15 40.75 2.65 39.0 2.8 L37.75 2.9 36.95 3.05 Q35.9 3.55 35.05 4.95 34.2 6.3 33.65 8.5 L33.6 8.5 33.35 7.75 33.0 6.7 Q32.45 5.25 31.15 3.9 L30.25 2.9 29.3 1.9 28.95 1.45 28.8 1.15 26.95 1.05 27.3 1.05 26.05 1.2 24.25 1.35 24.5 0.8 25.0 -0.25 Q25.8 -1.85 25.8 -2.5 25.8 -3.85 24.95 -5.05 24.0 -6.35 22.55 -6.7 L23.45 -6.85 24.7 -7.1 Q26.35 -7.5 27.25 -8.45 L27.25 -9.8 27.9 -9.6 28.7 -9.05 29.95 -8.15 Q31.05 -7.45 31.35 -7.45 L32.3 -10.6 34.15 -16.85 34.2 -16.85 M-42.8 -0.05 L-40.35 0.35 -38.05 0.6 -36.9 0.3 Q-36.6 0.1 -36.45 -0.45 L-36.15 -1.65 -35.6 -3.15 Q-34.75 -4.7 -34.45 -6.35 L-34.3 -8.3 -34.25 -8.35 -32.45 -2.1 -31.5 1.05 Q-31.15 1.05 -30.1 0.35 L-28.8 -0.55 -28.0 -1.1 -27.4 -1.3 -27.4 0.05 Q-26.5 1.0 -24.85 1.4 L-23.6 1.6 -22.75 1.8 Q-24.2 2.15 -25.1 3.4 -25.95 4.6 -25.95 5.95 -25.95 6.6 -25.15 8.15 L-24.65 9.2 -24.4 9.8 -26.2 9.6 -27.45 9.45 -27.1 9.45 -28.95 9.6 -29.1 9.9 -29.4 10.3 -30.35 11.3 -31.25 12.3 Q-32.55 13.65 -33.1 15.1 L-33.45 16.1 -33.7 16.85 -33.75 16.85 Q-34.3 14.7 -35.15 13.35 -35.95 11.95 -37.05 11.45 L-37.85 11.3 -39.05 11.2 Q-40.8 11.05 -41.35 10.55 -41.7 10.25 -42.2 10.25 L-41.85 9.8 -41.05 9.3 -38.55 7.5 -38.25 7.3 -38.25 7.0 -38.55 6.7 -39.45 6.3 Q-41.05 5.5 -42.35 3.7 L-43.5 2.1 -43.85 0.8 -43.85 -0.05 -42.8 -0.05" fill="#010101" fill-opacity="0.0" fill-rule="evenodd" stroke="none"/>
    </g>
    <g id="sprite1" transform="matrix(1.0, 0.0, 0.0, 1.0, 4.1, 11.0)">
      <use height="21.95" transform="matrix(1.0, 0.0, 0.0, 1.0, -4.1, -11.0)" width="8.25" xlink:href="#shape3"/>
    </g>
    <g id="shape3" transform="matrix(1.0, 0.0, 0.0, 1.0, 4.1, 11.0)">
      <path d="M4.15 -10.75 L3.35 10.95 -4.1 10.7 -3.3 -11.0 4.15 -10.75" fill="#010101" fill-opacity="0.0" fill-rule="evenodd" stroke="none"/>
    </g>
  </defs>
</svg>
