<?xml version="1.0" encoding="UTF-8" standalone="no"?>
<svg xmlns:xlink="http://www.w3.org/1999/xlink" height="1034.2px" width="773.35px" xmlns="http://www.w3.org/2000/svg">
  <g transform="matrix(1.0, 0.0, 0.0, 1.0, 365.9, 551.4)">
    <use height="69.75" transform="matrix(1.0, 0.0, 0.0, 1.0, -151.0, -50.0)" width="225.1" xlink:href="#shape0"/>
  </g>
  <defs>
    <g id="shape0" transform="matrix(1.0, 0.0, 0.0, 1.0, 151.0, 50.0)">
      <path d="M32.75 -48.15 L34.85 -50.0 35.75 -49.4 35.6 -49.0 33.5 -47.5 32.75 -48.15" fill="#414141" fill-rule="evenodd" stroke="none"/>
      <path d="M41.5 -48.5 L40.6 -46.75 33.0 -41.0 32.6 -41.5 41.5 -48.5 M-150.25 -29.75 L-151.0 -29.75 -151.0 -31.0 -150.25 -31.0 -150.25 -29.75 M-63.65 -34.75 L-65.5 -34.9 -65.5 -35.75 -42.75 -36.15 -36.75 -36.0 -37.25 -36.0 -38.25 -35.9 -40.15 -35.9 -41.15 -35.75 -42.9 -35.75 -43.9 -35.65 -45.65 -35.65 -46.75 -35.5 -51.25 -35.4 -52.4 -35.25 -56.9 -35.15 -58.0 -35.0 -62.5 -34.9 -63.65 -34.75 M28.6 -40.65 L32.75 -48.15 33.5 -47.5 35.6 -49.0 33.35 -44.65 31.85 -42.9 30.75 -40.75 29.5 -40.0 28.6 -40.65 M18.5 -35.4 L-19.65 -35.25 -20.0 -35.25 -22.9 -35.15 -25.5 -35.15 -26.9 -35.15 -27.25 -35.15 -29.15 -35.15 -29.25 -35.4 -29.25 -36.0 -27.5 -36.25 -27.4 -36.25 -23.25 -36.4 -22.5 -36.4 -16.8 -36.45 18.5 -36.75 18.5 -35.4 M-7.25 -25.5 L-6.75 -25.5 -6.5 -25.65 -6.0 -25.75 -5.75 -25.75 -3.5 -25.25 -1.75 -24.0 -1.5 -23.25 -3.15 -24.25 -4.4 -24.5 -8.5 -24.5 -8.0 -25.0 -7.9 -25.25 -7.5 -25.4 -7.25 -25.4 -7.25 -25.5 M15.75 -29.4 L16.5 -28.65 Q19.6 -30.65 19.6 -31.25 L25.5 -35.25 24.85 -34.25 15.85 -27.0 15.5 -27.15 14.85 -27.65 15.75 -29.4 M25.1 -34.0 L26.85 -33.4 24.35 -29.0 22.0 -27.4 21.35 -28.15 23.35 -31.75 25.1 -34.0 M-5.4 -15.0 L-2.65 -15.75 -1.4 -16.75 -0.65 -18.0 Q-0.75 -14.15 -6.0 -13.75 L-6.65 -14.4 -5.65 -14.5 -5.4 -15.0" fill="#000000" fill-rule="evenodd" stroke="none"/>
      <path d="M32.6 -41.5 L33.0 -41.0 33.25 -39.9 32.6 -39.15 32.1 -39.0 27.5 -38.9 26.85 -38.9 28.6 -40.65 29.5 -40.0 30.75 -40.75 31.85 -42.9 32.1 -42.65 32.25 -42.5 32.6 -41.5 M-67.0 -9.5 L-62.15 -11.15 -53.75 -10.9 -56.75 -10.4 -53.15 -10.4 -55.4 -8.4 -55.9 -8.4 -57.25 -8.4 -58.25 -8.4 -64.75 -8.4 -67.0 -9.5 M32.25 -38.0 L31.35 -34.75 30.25 -32.15 26.85 -33.4 25.1 -34.0 24.85 -34.25 25.5 -35.25 25.85 -35.75 24.75 -36.15 24.6 -36.15 25.75 -37.65 32.25 -38.0 M-17.5 2.0 L-18.9 -9.25 -17.75 -9.5 -16.15 1.75 -17.5 2.0" fill="#242424" fill-rule="evenodd" stroke="none"/>
      <path d="M-21.4 -36.65 L-20.75 -36.7 -21.25 -36.65 -21.4 -36.65 M-18.65 -36.75 L-17.5 -36.9 -18.5 -36.75 -18.65 -36.75 M-15.75 -36.9 L-14.65 -37.0 -14.9 -36.9 -15.75 -36.9 M26.5 -38.75 L26.85 -38.9 27.5 -38.9 26.5 -38.75 M34.75 -39.15 L34.75 -39.25 35.85 -39.25 34.75 -39.15 M38.25 -39.4 L38.6 -39.4 37.75 -39.25 38.25 -39.4 M32.1 -39.0 L32.6 -39.15 33.1 -39.15 32.1 -39.0 M-65.65 2.25 L-65.4 -7.0 -65.65 -7.25 -64.75 -8.4 -58.25 -8.4 -59.5 -8.15 -61.75 -7.75 -62.0 2.35 -65.65 2.25" fill="#111111" fill-rule="evenodd" stroke="none"/>
      <path d="M38.6 -39.4 L43.35 -39.5 44.35 -39.65 49.0 -39.75 50.0 -39.9 54.6 -40.0 55.6 -40.15 60.25 -40.25 61.25 -40.4 65.85 -40.5 66.85 -40.65 69.0 -40.65 69.85 -40.75 72.25 -40.75 73.0 -40.9 74.1 -40.9 74.1 -39.9 73.5 -39.75 38.85 -38.25 34.35 -38.0 32.25 -38.0 25.75 -37.65 9.6 -36.9 -14.9 -36.5 -14.9 -36.9 -14.65 -37.0 -12.9 -37.0 -11.9 -37.15 -10.15 -37.15 -9.15 -37.25 -7.25 -37.25 -6.4 -37.4 -4.5 -37.4 -3.5 -37.5 -1.65 -37.5 -0.75 -37.65 4.0 -37.75 5.0 -37.9 9.6 -38.0 10.6 -38.15 15.25 -38.25 16.25 -38.4 20.85 -38.5 21.85 -38.65 26.5 -38.75 27.5 -38.9 32.1 -39.0 33.1 -39.15 34.75 -39.15 35.85 -39.25 37.6 -39.25 37.6 -39.4 37.75 -39.25 38.6 -39.4 M-69.75 0.75 Q-70.75 -0.25 -68.4 -4.9 L-72.5 -4.65 -70.9 -7.15 -67.0 -9.5 -64.75 -8.4 -65.65 -7.25 -65.4 -7.0 -65.65 2.25 -69.75 0.75 M-27.75 -38.9 L-27.0 -38.25 -28.9 -37.75 -29.5 -36.15 -29.25 -36.0 -29.25 -35.4 -29.15 -35.15 -28.0 -34.0 -27.25 -34.0 -27.25 -33.65 -29.65 -33.4 -30.75 -33.9 -31.4 -35.75 -30.75 -39.0 -27.75 -38.9" fill="#181818" fill-rule="evenodd" stroke="none"/>
      <path d="M33.25 -39.9 L35.25 -40.0 34.75 -39.25 34.75 -39.15 33.1 -39.15 32.6 -39.15 33.25 -39.9 M37.1 -40.0 L38.6 -39.4 38.25 -39.4 37.6 -39.4 37.1 -40.0 M37.75 -35.9 L34.85 -26.5 31.75 -13.15 30.5 -12.75 30.0 -12.0 31.35 -12.0 31.35 -11.9 30.25 -11.5 30.5 -10.4 31.0 -10.15 30.35 -10.0 31.0 -9.65 29.5 -2.75 28.6 -5.4 26.6 -9.15 25.35 -12.25 23.1 -12.4 25.35 -18.4 27.85 -24.4 29.6 -28.0 31.35 -34.75 32.25 -38.0 34.35 -38.0 Q34.6 -33.65 37.75 -35.9" fill="#3e3e3e" fill-rule="evenodd" stroke="none"/>
      <path d="M35.25 -40.0 L35.75 -40.25 37.1 -40.0 37.6 -39.4 37.6 -39.25 35.85 -39.25 34.75 -39.25 35.25 -40.0 M38.85 -38.25 L37.75 -35.9 Q34.6 -33.65 34.35 -38.0 L38.85 -38.25 M-70.65 18.0 L-72.75 17.75 -73.15 17.25 -68.5 18.0 -68.15 18.0 -67.5 18.1 -66.75 18.35 -70.65 18.0 M-16.25 -20.15 L-15.15 -20.15 -14.9 -20.0 -14.65 -19.9 -14.4 -19.65 -14.15 -18.9 -14.15 -18.0 -14.65 -17.5 -15.0 -17.4 -15.4 -17.25 -15.9 -17.25 -16.4 -16.9 -19.0 -16.9 -18.25 -17.75 -18.25 -18.9 -19.65 -19.65 -16.25 -20.15" fill="#2b2b2b" fill-rule="evenodd" stroke="none"/>
      <path d="M37.75 -39.25 L37.6 -39.4 38.25 -39.4 37.75 -39.25" fill="#1b1b1b" fill-rule="evenodd" stroke="none"/>
      <path d="M41.5 -48.5 L32.6 -41.5 32.25 -42.5 32.1 -42.65 40.35 -49.15 41.0 -49.4 41.5 -48.5" fill="#464646" fill-rule="evenodd" stroke="none"/>
      <path d="M-31.5 -39.15 L-31.4 -40.25 -30.75 -41.0 -29.75 -41.4 -28.15 -40.9 -27.65 -40.15 -27.65 -39.15 -27.75 -38.9 -30.75 -39.0 -31.5 -39.15" fill="#525252" fill-rule="evenodd" stroke="none"/>
      <path d="M-27.65 -39.15 L-25.25 -38.5 -23.5 -38.5 -22.9 -37.65 -22.75 -36.5 -23.65 -36.4 -25.25 -36.4 -25.9 -37.9 -27.0 -38.25 -27.75 -38.9 -27.65 -39.15 M-26.4 -34.15 L-25.5 -35.15 -22.9 -35.15 -23.25 -34.25 -26.25 -33.65 -26.4 -34.15 M-44.25 -11.0 L-40.65 -11.0 -34.15 -11.25 -38.15 -10.15 -41.65 -9.65 -47.25 -8.4 -47.65 -8.4 -48.65 -8.4 -52.0 -8.4 -53.4 -8.4 -55.4 -8.4 -53.15 -10.4 -52.75 -10.4 -48.4 -10.4 -44.25 -11.0" fill="#484848" fill-rule="evenodd" stroke="none"/>
      <path d="M-32.65 -33.25 L-35.75 -33.75 -35.25 -34.9 -33.0 -35.15 -34.25 -35.9 -34.0 -36.15 -35.15 -36.0 -35.4 -37.4 -36.0 -37.9 -31.5 -39.15 -30.75 -39.0 -31.4 -35.75 -30.75 -33.9 -32.65 -33.25 M-65.4 5.75 L-64.5 5.0 -60.15 5.75 -65.4 5.75" fill="#1f1f1f" fill-rule="evenodd" stroke="none"/>
      <path d="M-35.75 -33.75 L-36.15 -33.9 -36.25 -34.9 -35.25 -34.9 -35.75 -33.75 M-36.75 -36.25 L-36.4 -37.65 -36.0 -37.9 -35.4 -37.4 -35.15 -36.0 -36.65 -36.0 -36.75 -36.25 M-67.5 15.25 L-73.0 15.25 -73.25 11.75 -68.15 11.85 -68.15 12.25 -67.75 12.25 -67.9 13.5 -67.5 15.25" fill="#020202" fill-rule="evenodd" stroke="none"/>
      <path d="M-42.75 -36.15 L-36.75 -36.25 -36.75 -36.0 -42.75 -36.15 M-23.65 -36.4 L-22.75 -36.5 -22.5 -36.4 -23.25 -36.4 -23.65 -36.4" fill="#050505" fill-rule="evenodd" stroke="none"/>
      <path d="M-36.25 -34.9 L-150.25 -29.75 -150.25 -31.0 -148.5 -31.0 -147.25 -31.15 -142.4 -31.25 -141.25 -31.4 -139.5 -31.4 -138.5 -31.5 -136.75 -31.5 -135.65 -31.65 -133.9 -31.65 -132.9 -31.75 -131.15 -31.75 -129.9 -31.9 -125.5 -32.0 -124.25 -32.15 -119.9 -32.25 -118.65 -32.4 -114.25 -32.5 -113.0 -32.65 -108.65 -32.75 -107.4 -32.9 -103.0 -33.0 -101.75 -33.15 -91.75 -33.5 -90.65 -33.65 -88.9 -33.65 -87.9 -33.75 -86.15 -33.75 -85.15 -33.9 -80.5 -34.0 -79.4 -34.15 -74.9 -34.25 -73.75 -34.4 -69.25 -34.5 -68.15 -34.65 -63.65 -34.75 -62.5 -34.9 -58.0 -35.0 -56.9 -35.15 -52.4 -35.25 -51.25 -35.4 -46.75 -35.5 -45.65 -35.65 -43.9 -35.65 -42.9 -35.75 -41.15 -35.75 -40.15 -35.9 -38.25 -35.9 -37.25 -36.0 -36.75 -36.0 -36.65 -36.0 -35.15 -36.0 -34.0 -36.15 -34.25 -35.9 -33.0 -35.15 -35.25 -34.9 -36.25 -34.9 M-22.75 -36.5 L-21.4 -36.65 -21.25 -36.65 -20.75 -36.7 -20.25 -36.75 -18.65 -36.75 -18.5 -36.75 -17.5 -36.9 -15.75 -36.9 -14.9 -36.9 -14.9 -36.5 -16.8 -36.45 -22.5 -36.4 -22.75 -36.5 M22.85 -37.0 L23.35 -37.0 23.5 -35.65 18.5 -35.4 18.5 -36.75 22.85 -37.0" fill="#0f0f0f" fill-rule="evenodd" stroke="none"/>
      <path d="M31.35 -34.75 L29.6 -28.0 27.85 -24.4 30.25 -32.15 31.35 -34.75 M25.35 -18.4 L23.1 -12.4 21.1 -12.4 21.6 -13.0 25.35 -18.4 M-25.9 -25.65 L-23.4 -25.25 -25.9 -25.15 -25.9 -25.65" fill="#0b0b0b" fill-rule="evenodd" stroke="none"/>
      <path d="M24.6 -36.15 L24.75 -36.15 25.85 -35.75 25.5 -35.25 19.6 -31.25 Q19.6 -30.65 16.5 -28.65 L15.75 -29.4 24.6 -36.15" fill="#3a3a3a" fill-rule="evenodd" stroke="none"/>
      <path d="M-5.75 -25.75 Q-4.15 -27.4 10.0 -24.4 L10.75 -20.5 Q10.85 -17.25 9.0 -14.65 L7.25 -12.9 6.0 -11.9 4.0 -11.4 Q-2.5 -10.75 -6.0 -13.75 -0.75 -14.15 -0.65 -18.0 L-0.4 -20.25 -0.65 -20.75 -1.15 -22.65 -1.5 -23.0 -1.5 -23.25 -1.75 -24.0 -3.5 -25.25 -5.75 -25.75 M9.6 -36.9 L22.85 -37.0 18.5 -36.75 -16.8 -36.45 -14.9 -36.5 9.6 -36.9 M-25.25 -36.4 L-23.65 -36.4 -23.25 -36.4 -27.4 -36.25 -25.25 -36.4 M-7.9 -25.25 L-7.75 -25.4 -7.5 -25.4 -7.9 -25.25 M-7.5 -13.9 L-8.4 -14.4 -8.0 -14.5 -7.5 -13.9 M-62.0 2.35 L-61.75 -7.75 -59.5 -8.15 -59.65 2.35 -61.65 2.35 -62.0 2.35 M-50.15 1.0 L-48.9 -6.15 -49.0 0.75 -50.15 1.0" fill="#1a1a1a" fill-rule="evenodd" stroke="none"/>
      <path d="M-29.65 18.35 L-29.75 18.35 -30.0 18.5 -32.65 19.5 -35.65 18.75 -39.5 18.5 -39.65 14.5 -44.75 16.75 -53.4 14.0 -53.65 11.6 -52.5 7.5 -50.9 4.85 -40.0 4.6 -38.25 4.35 -33.65 3.75 -33.75 -1.15 -35.75 -5.0 -38.65 -4.65 -40.9 -4.65 -41.65 -9.65 -38.15 -10.15 -34.15 -11.25 -33.5 -11.25 Q-28.0 -9.4 -28.4 17.5 L-29.65 18.35 M-27.0 -38.25 L-25.9 -37.9 -25.25 -36.4 -27.4 -36.25 -27.5 -36.25 -29.25 -36.0 -29.5 -36.15 -28.9 -37.75 -27.0 -38.25 M-27.25 -34.0 L-28.0 -34.0 -29.15 -35.15 -27.25 -35.15 -27.25 -34.0 M-25.5 -35.15 L-26.4 -34.15 -26.9 -34.15 -26.9 -35.15 -25.5 -35.15" fill="#343434" fill-rule="evenodd" stroke="none"/>
      <path d="M-38.9 -23.75 L-39.25 -34.15 -38.9 -33.4 -38.5 -23.9 -38.65 -23.4 -38.9 -23.75 M-19.65 -35.25 L-19.25 -25.25 -19.25 -24.75 -19.75 -25.15 -19.65 -25.5 -20.0 -35.25 -19.65 -35.25 M-36.65 -36.0 L-36.75 -36.0 -36.75 -36.25 -36.65 -36.0 M-26.9 -35.15 L-26.9 -34.15 -26.5 -24.5 -26.65 -23.65 -26.9 -24.4 -27.25 -33.65 -27.25 -34.0 -27.25 -35.15 -26.9 -35.15" fill="#161616" fill-rule="evenodd" stroke="none"/>
      <path d="M-32.4 -24.65 L-32.65 -33.25 -30.75 -33.9 -29.65 -33.4 -27.25 -33.65 -26.9 -24.4 -31.5 -24.15 -32.4 -24.25 -32.4 -24.65 M-26.4 -34.15 L-26.25 -33.65 -25.9 -25.65 -25.9 -25.15 -25.9 -24.65 -26.5 -24.5 -26.9 -34.15 -26.4 -34.15" fill="#171717" fill-rule="evenodd" stroke="none"/>
      <path d="M-40.15 -23.5 L-40.0 -23.5 -39.65 -23.65 -38.9 -23.75 -38.65 -23.4 -38.5 -23.9 -33.25 -24.4 -32.4 -24.65 -32.4 -24.25 -31.5 -24.15 -35.15 -23.5 -35.75 -23.5 -43.9 -22.4 -40.15 -23.5 M31.35 -12.0 L31.85 -12.15 31.35 -11.9 31.35 -12.0 M-19.65 -25.5 L-19.75 -25.15 -25.9 -24.65 -25.9 -25.15 -23.4 -25.25 -19.65 -25.5" fill="#4a4a4a" fill-rule="evenodd" stroke="none"/>
      <path d="M23.1 -12.4 L25.35 -12.25 26.6 -9.15 24.0 -9.25 13.5 -12.5 7.25 -12.9 9.0 -14.65 18.5 -13.0 21.1 -12.4 23.1 -12.4" fill="#666666" fill-rule="evenodd" stroke="none"/>
      <path d="M29.5 -2.75 L29.1 -0.5 28.5 -0.15 15.35 5.35 6.6 8.1 Q10.1 5.25 9.6 1.75 L4.0 -11.4 6.0 -11.9 7.25 -12.9 13.5 -12.5 24.0 -9.25 26.6 -9.15 28.6 -5.4 29.5 -2.75" fill="#353535" fill-rule="evenodd" stroke="none"/>
      <path d="M6.6 8.1 Q6.35 10.6 -4.4 12.75 L-3.5 9.25 -5.9 13.0 -6.65 13.6 -15.5 15.35 -15.65 13.0 -8.0 12.85 -3.9 9.0 -3.4 8.75 -3.25 8.0 -3.25 6.5 Q-2.5 -11.65 -6.65 -12.9 L-7.5 -13.9 -8.0 -14.5 -7.0 -14.65 -6.65 -14.4 -6.0 -13.75 Q-2.5 -10.75 4.0 -11.4 L9.6 1.75 Q10.1 5.25 6.6 8.1" fill="#323232" fill-rule="evenodd" stroke="none"/>
      <path d="M-14.4 -19.65 L-14.25 -20.15 -14.75 -20.75 -15.0 -21.0 -15.0 -21.65 -16.4 -22.4 -17.9 -22.9 -19.75 -22.5 -19.75 -22.65 -19.65 -22.9 -19.15 -23.4 -17.25 -23.9 -9.5 -24.4 -9.25 -24.5 -8.5 -24.5 -4.4 -24.5 -3.15 -24.25 -1.5 -23.25 -1.5 -23.0 -1.15 -22.65 -0.65 -20.75 -0.4 -20.25 -0.65 -18.0 -1.4 -16.75 -2.65 -15.75 -5.4 -15.0 -7.0 -14.65 -8.0 -14.5 -8.65 -14.4 -16.9 -13.5 -17.9 -14.0 -17.5 -14.0 -16.15 -14.5 -14.9 -15.25 -14.75 -15.9 -14.15 -16.65 -14.25 -17.4 -14.15 -18.0 -14.15 -18.9 -14.4 -19.65" fill="#575757" fill-rule="evenodd" stroke="none"/>
      <path d="M-7.65 -25.65 L-7.25 -25.5 -7.25 -25.4 -7.5 -25.4 -7.75 -25.4 -7.65 -25.65 M-19.75 -22.5 L-20.0 -22.0 -18.65 -22.0 -17.9 -21.9 -16.65 -20.5 -16.25 -20.15 -19.65 -19.65 Q-22.75 -17.65 -19.0 -16.9 L-16.4 -16.9 -16.5 -16.4 -18.25 -14.25 -17.9 -14.0 -16.9 -13.5 -18.5 -13.0 -19.9 -13.25 -21.9 -13.0 -22.5 -13.0 -23.4 -19.5 -25.15 -22.5 -19.15 -23.4 -19.65 -22.9 -19.75 -22.65 -19.75 -22.5 M-15.0 -13.5 L-16.9 -13.5 -8.65 -14.4 -8.0 -14.5 -8.4 -14.4 -8.65 -14.4 -9.15 -14.25 -12.4 -13.75 -15.0 -13.5 M-7.0 -14.65 L-5.4 -15.0 -5.65 -14.5 -6.65 -14.4 -7.0 -14.65 M-8.5 -24.5 L-9.25 -24.5 Q-8.55 -24.85 -7.9 -25.25 L-8.0 -25.0 -8.5 -24.5" fill="#636363" fill-rule="evenodd" stroke="none"/>
      <path d="M-19.25 -25.25 L-17.0 -25.5 -16.25 -25.5 -15.9 -25.65 -7.65 -25.65 -7.75 -25.4 -7.9 -25.25 Q-8.55 -24.85 -9.25 -24.5 L-9.5 -24.4 -17.25 -23.9 -19.15 -23.4 -25.15 -22.5 -30.0 -23.25 -35.15 -23.5 -31.5 -24.15 -26.9 -24.4 -26.65 -23.65 -26.5 -24.5 -25.9 -24.65 -19.75 -25.15 -19.25 -24.75 -19.25 -25.25" fill="#6e6e6e" fill-rule="evenodd" stroke="none"/>
      <path d="M-25.15 -22.5 L-23.4 -19.5 -22.5 -13.0 -34.9 -12.0 -40.65 -11.0 -44.25 -11.0 -49.4 -11.0 -50.9 -11.0 -44.25 -18.65 -41.4 -20.75 -35.75 -23.5 -35.15 -23.5 -30.0 -23.25 -25.15 -22.5" fill="#747474" fill-rule="evenodd" stroke="none"/>
      <path d="M-46.9 -21.75 L-45.75 -22.9 -43.65 -23.4 -40.15 -23.5 -43.9 -22.4 -44.5 -22.25 -44.9 -22.25 -46.25 -22.0 -46.9 -21.75" fill="#545454" fill-rule="evenodd" stroke="none"/>
      <path d="M-47.4 -21.0 L-46.9 -21.75 -46.25 -22.0 -45.9 -21.75 -47.0 -21.0 -47.4 -21.0 M-44.75 16.75 L-39.65 14.5 -39.5 18.5 -42.0 18.0 -44.75 16.75" fill="#0a0a0a" fill-rule="evenodd" stroke="none"/>
      <path d="M-73.4 3.85 L-73.75 -0.4 -72.25 0.0 -70.5 2.5 -73.4 3.85 M-18.65 -22.0 L-19.75 -22.5 -17.9 -22.9 -16.4 -22.4 -15.0 -21.65 -15.0 -21.0 -14.75 -20.75 -14.25 -20.15 -14.4 -19.65 -14.65 -19.9 -14.9 -20.0 -15.15 -20.15 -16.25 -20.15 -16.65 -20.5 -17.9 -21.9 -18.65 -22.0 M-14.15 -18.0 L-14.25 -17.4 -14.15 -16.65 -14.75 -15.9 -15.0 -16.75 -14.5 -17.4 -14.5 -17.5 -14.65 -17.5 -14.15 -18.0 M-9.15 -14.25 L-8.65 -14.4 -8.4 -14.4 -7.5 -13.9 -6.65 -12.9 -10.5 -13.0 -10.15 -13.4 -11.25 -13.25 -9.15 -14.25 M-45.9 -21.75 L-46.25 -22.0 -44.9 -22.25 -45.9 -21.75" fill="#080808" fill-rule="evenodd" stroke="none"/>
      <path d="M-56.0 -11.75 L-52.0 -17.5 -47.65 -20.65 -47.0 -21.0 -45.9 -21.75 -44.9 -22.25 -44.5 -22.25 -43.9 -22.4 -35.75 -23.5 -41.4 -20.75 -44.25 -18.65 -50.9 -11.0 -52.0 -11.0 -56.5 -11.0 -56.0 -11.75 M-17.9 -14.0 L-18.25 -14.25 -16.5 -16.4 -16.4 -16.9 -16.25 -16.9 -15.9 -17.25 -15.4 -17.25 -15.65 -16.5 -16.75 -15.5 -17.5 -14.0 -17.9 -14.0" fill="#383838" fill-rule="evenodd" stroke="none"/>
      <path d="M54.1 -9.75 L31.0 -9.65 30.35 -10.0 31.0 -10.15 45.6 -9.9 52.0 -10.25 52.35 -10.4 52.6 -10.4 54.1 -10.4 53.1 -10.15 54.1 -9.75 M-19.75 -22.5 L-18.65 -22.0 -20.0 -22.0 -19.75 -22.5 M-14.75 -15.9 L-14.9 -15.25 -16.15 -14.5 -15.5 -16.15 -15.0 -16.75 -15.0 -17.4 -14.65 -17.5 -14.5 -17.5 -14.5 -17.4 -15.0 -16.75 -14.75 -15.9" fill="#090909" fill-rule="evenodd" stroke="none"/>
      <path d="M-47.65 -20.65 L-47.4 -21.0 -47.0 -21.0 -47.65 -20.65" fill="#1e1e1e" fill-rule="evenodd" stroke="none"/>
      <path d="M-76.65 7.75 Q-74.65 4.25 -73.65 4.6 L-73.4 3.85 -70.5 2.5 -72.25 0.0 -69.75 0.75 -65.65 2.25 -62.0 2.35 -61.65 2.35 -64.5 5.0 -70.25 5.6 -65.4 5.75 -66.0 6.75 -67.0 8.0 -66.9 8.5 -67.65 9.75 -73.25 11.75 -77.15 11.25 -76.4 9.1 -76.65 7.75 M-19.0 -16.9 Q-22.75 -17.65 -19.65 -19.65 L-18.25 -18.9 -18.25 -17.75 -19.0 -16.9" fill="#121212" fill-rule="evenodd" stroke="none"/>
      <path d="M-15.9 -17.25 L-16.25 -16.9 -16.4 -16.9 -15.9 -17.25" fill="#3f3f3f" fill-rule="evenodd" stroke="none"/>
      <path d="M-16.15 -14.5 L-17.5 -14.0 -16.75 -15.5 -15.65 -16.5 -15.4 -17.25 -15.0 -17.4 -15.0 -16.75 -15.5 -16.15 -16.15 -14.5" fill="#2a2a2a" fill-rule="evenodd" stroke="none"/>
      <path d="M-11.4 -12.65 L-11.4 -12.9 -12.4 -13.75 -9.15 -14.25 -11.25 -13.25 -10.15 -13.4 -10.5 -13.0 -11.4 -12.65" fill="#0d0d0d" fill-rule="evenodd" stroke="none"/>
      <path d="M-53.15 19.35 L-67.75 18.75 -70.65 18.0 -66.75 18.35 -66.65 18.35 -66.0 18.5 -65.65 18.5 -65.25 18.6 -59.0 18.85 -53.75 19.0 -53.15 19.35 M-17.75 -9.5 L-15.0 -13.5 -12.4 -13.75 -11.4 -12.9 -11.4 -12.65 -11.4 -2.25 -12.75 1.6 -12.0 5.25 -9.4 7.85 -15.9 9.0 -16.15 1.75 -17.75 -9.5 M-21.4 -8.75 L-18.9 -9.25 -17.5 2.0 -19.9 2.5 -21.4 -8.75 M-22.65 -8.5 L-21.25 2.75 -23.25 3.1 -24.65 -8.25 -22.65 -8.5 M-38.65 -4.65 L-35.75 -5.0 -33.75 -1.15 -33.65 3.75 -38.25 4.35 -38.75 0.25 -38.65 -4.65 M-40.0 4.6 L-50.9 4.85 Q-50.65 3.75 -47.0 2.6 L-45.5 0.1 -45.5 0.0 -40.25 -0.25 -40.0 4.6" fill="#282828" fill-rule="evenodd" stroke="none"/>
      <path d="M-21.9 -13.0 L-19.9 -13.25 -18.5 -13.0 -16.9 -13.5 -15.0 -13.5 -17.75 -9.5 -20.9 -12.9 -21.5 -12.9 -21.9 -13.0" fill="#707070" fill-rule="evenodd" stroke="none"/>
      <path d="M-22.5 -13.0 L-21.9 -13.0 -21.5 -12.9 -33.5 -11.25 -34.15 -11.25 -40.65 -11.0 -34.9 -12.0 -22.5 -13.0" fill="#565656" fill-rule="evenodd" stroke="none"/>
      <path d="M31.75 -13.15 L55.1 -13.15 53.5 -12.5 54.0 -12.4 53.75 -12.25 52.25 -12.15 51.0 -12.25 33.35 -12.15 31.85 -12.15 31.35 -12.0 30.0 -12.0 30.5 -12.75 31.75 -13.15" fill="#535353" fill-rule="evenodd" stroke="none"/>
      <path d="M55.1 -13.15 L55.85 -13.15 Q61.6 -11.5 55.25 -9.9 L55.0 -9.75 54.1 -9.75 53.1 -10.15 54.1 -10.4 52.6 -10.4 Q59.35 -12.15 52.25 -12.15 L53.75 -12.25 54.0 -12.4 53.5 -12.5 55.1 -13.15 M-73.15 17.25 L-73.65 16.75 -68.5 18.0 -73.15 17.25" fill="#2c2c2c" fill-rule="evenodd" stroke="none"/>
      <path d="M33.35 -12.15 L51.0 -12.25 52.25 -12.15 Q59.35 -12.15 52.6 -10.4 L52.35 -10.4 52.0 -10.25 45.6 -9.9 31.0 -10.15 30.5 -10.4 30.25 -11.5 31.35 -11.9 33.35 -12.15 M-23.25 3.1 L-24.75 3.5 -25.4 3.5 -25.65 3.0 -25.5 1.35 -26.9 -7.75 -26.4 -8.15 -24.65 -8.25 -23.25 3.1" fill="#232323" fill-rule="evenodd" stroke="none"/>
      <path d="M18.5 -13.0 L21.6 -13.0 21.1 -12.4 18.5 -13.0" fill="#434343" fill-rule="evenodd" stroke="none"/>
      <path d="M-15.5 15.35 L-16.0 15.35 -16.4 15.5 -16.5 15.5 -20.75 15.85 -28.4 17.5 Q-28.0 -9.4 -33.5 -11.25 L-21.5 -12.9 -20.9 -12.9 -17.75 -9.5 -18.9 -9.25 -21.4 -8.75 -22.65 -8.5 -24.65 -8.25 -26.4 -8.15 -26.9 -7.75 -25.5 1.35 -25.65 3.0 -25.4 3.5 -24.75 3.5 -23.25 3.1 -21.25 2.75 -19.9 2.5 -17.5 2.0 -16.15 1.75 -15.9 9.0 -15.75 12.0 -15.65 13.0 -15.5 15.35" fill="#4e4e4e" fill-rule="evenodd" stroke="none"/>
      <path d="M-9.4 7.85 L-12.0 5.25 -12.75 1.6 -11.4 -2.25 -11.4 -12.65 -10.5 -13.0 -6.65 -12.9 Q-2.5 -11.65 -3.25 6.5 L-9.0 7.85 -9.4 7.85" fill="#3d3d3d" fill-rule="evenodd" stroke="none"/>
      <path d="M-3.25 6.5 L-3.25 8.0 -9.0 7.85 -3.25 6.5" fill="#8e8e8e" fill-rule="evenodd" stroke="none"/>
      <path d="M-15.9 9.0 L-9.4 7.85 -9.0 7.85 -3.25 8.0 -3.4 8.75 -3.9 9.0 -8.65 10.6 -15.75 12.0 -15.9 9.0 M-47.65 -8.4 L-47.25 -8.4 -44.4 -1.0 -45.5 0.0 -47.65 -8.4" fill="#6c6c6c" fill-rule="evenodd" stroke="none"/>
      <path d="M-62.15 -11.15 L-56.0 -11.75 -56.5 -11.0 -52.0 -11.0 -53.75 -10.9 -62.15 -11.15" fill="#2d2d2d" fill-rule="evenodd" stroke="none"/>
      <path d="M-50.9 -11.0 L-49.4 -11.0 -52.75 -10.4 -53.15 -10.4 -56.75 -10.4 -53.75 -10.9 -52.0 -11.0 -50.9 -11.0" fill="#373737" fill-rule="evenodd" stroke="none"/>
      <path d="M-49.4 -11.0 L-44.25 -11.0 -48.4 -10.4 -52.75 -10.4 -49.4 -11.0" fill="#3c3c3c" fill-rule="evenodd" stroke="none"/>
      <path d="M-48.9 -6.15 L-48.65 -8.4 -47.65 -8.4 -45.5 0.0 -45.5 0.1 -49.0 0.75 -48.9 -6.15" fill="#737373" fill-rule="evenodd" stroke="none"/>
      <path d="M-57.25 -8.4 L-55.9 -8.4 -56.15 2.1 -57.5 2.35 -57.25 -8.4 M-52.0 -8.4 L-52.25 1.35 -53.65 1.6 -53.4 -8.4 -52.0 -8.4" fill="#191919" fill-rule="evenodd" stroke="none"/>
      <path d="M-21.4 -8.75 L-19.9 2.5 -21.25 2.75 -22.65 -8.5 -21.4 -8.75 M-50.9 4.85 L-52.5 7.5 -53.65 11.6 -62.9 11.85 -67.65 9.75 -66.9 8.5 -67.0 8.0 -66.0 6.75 -60.75 6.75 -60.15 5.75 -64.5 5.0 -61.65 2.35 -59.65 2.35 -57.5 2.35 -56.15 2.1 -53.65 1.6 -52.25 1.35 -50.15 1.0 -49.0 0.75 -45.5 0.1 -47.0 2.6 Q-50.65 3.75 -50.9 4.85" fill="#222222" fill-rule="evenodd" stroke="none"/>
      <path d="M-73.75 -0.4 L-72.65 -4.25 -72.25 0.0 -73.75 -0.4" fill="#010301" fill-rule="evenodd" stroke="none"/>
      <path d="M-40.25 -0.25 L-45.5 0.0 -44.4 -1.0 -41.0 -4.5 Q-40.4 -4.25 -40.25 -0.25" fill="#0b0f0a" fill-rule="evenodd" stroke="none"/>
      <path d="M-3.9 9.0 L-8.0 12.85 -15.65 13.0 -15.75 12.0 -8.65 10.6 -3.9 9.0 M-64.5 5.0 L-65.4 5.75 -70.25 5.6 -64.5 5.0" fill="#1c1c1c" fill-rule="evenodd" stroke="none"/>
      <path d="M-65.4 5.75 L-60.15 5.75 -60.75 6.75 -66.0 6.75 -65.4 5.75" fill="#151515" fill-rule="evenodd" stroke="none"/>
      <path d="M-53.65 11.6 L-53.4 14.0 -44.75 16.75 -42.0 18.0 -39.5 18.5 -53.75 19.0 -59.0 18.85 -63.25 18.0 -65.15 17.0 -65.4 16.5 -66.4 16.25 -66.65 16.0 -66.4 15.6 -66.9 15.75 -67.25 15.35 -61.65 15.35 -62.9 11.85 -53.65 11.6 M-73.25 11.75 L-67.65 9.75 -68.15 11.85 -73.25 11.75" fill="#040404" fill-rule="evenodd" stroke="none"/>
      <path d="M-73.65 16.75 L-73.9 16.6 -74.75 16.25 -75.15 15.5 -76.5 14.35 -77.0 13.5 -77.15 11.85 -77.15 11.25 -73.25 11.75 -73.0 15.25 -67.5 15.25 -67.4 15.35 -67.25 15.35 -66.9 15.75 -66.4 15.6 -66.65 16.0 -66.4 16.25 -65.4 16.5 -65.15 17.0 -63.25 18.0 -59.0 18.85 -65.25 18.6 -65.65 18.5 -66.0 18.5 -66.65 18.35 -66.75 18.35 -67.5 18.1 -68.15 18.0 -68.5 18.0 -73.65 16.75" fill="#0e0e0e" fill-rule="evenodd" stroke="none"/>
      <path d="M-77.15 11.25 L-77.15 8.85 -76.65 7.75 -76.4 9.1 -77.15 11.25" fill="#131313" fill-rule="evenodd" stroke="none"/>
      <path d="M-16.5 15.5 L-29.65 18.35 -28.4 17.5 -20.75 15.85 -16.5 15.5 M-32.65 19.5 L-42.0 19.75 -53.15 19.35 -53.75 19.0 -39.5 18.5 -35.65 18.75 -32.65 19.5" fill="#0c0c0c" fill-rule="evenodd" stroke="none"/>
      <path d="M-4.4 12.75 L-5.9 13.0 -3.5 9.25 -4.4 12.75" fill="#141414" fill-rule="evenodd" stroke="none"/>
      <path d="M-67.65 9.75 L-62.9 11.85 -68.15 11.85 -67.65 9.75" fill="#060606" fill-rule="evenodd" stroke="none"/>
      <path d="M-68.15 11.85 L-62.9 11.85 -61.65 15.35 -67.25 15.35 -67.4 15.35 -67.5 15.25 -67.9 13.5 -67.75 12.25 -68.15 12.25 -68.15 11.85" fill="#030303" fill-rule="evenodd" stroke="none"/>
      <path d="M-40.9 -4.5 L-44.4 -1.0 -47.25 -8.4 -46.4 -8.5 -41.75 -9.65 -41.5 -9.4 -40.9 -4.5 M-50.15 1.0 L-52.25 1.35 -52.15 -1.15 -52.25 -1.75 -52.0 -2.65 -52.15 -3.9 -52.15 -7.15 -52.0 -8.4 -48.65 -8.4 -50.15 1.0" fill="#060606" fill-opacity="0.50980395" fill-rule="evenodd" stroke="none"/>
      <path d="M-44.4 -1.0 L-45.5 0.0 -45.5 0.1 -50.15 1.0 -48.65 -8.4 -47.25 -8.4 -44.4 -1.0 M-52.25 1.35 L-53.65 1.6 -53.4 -0.65 -53.5 -1.0 -53.25 -6.0 -53.4 -6.4 -53.4 -8.4 -52.0 -8.4 -52.15 -7.15 -52.15 -3.9 -52.0 -2.65 -52.25 -1.75 -52.15 -1.15 -52.25 1.35 M-56.15 2.1 L-57.5 2.35 -57.4 -2.75 -57.5 -3.0 -57.65 -4.0 -57.65 -4.25 -57.4 -4.65 -57.0 -4.9 -56.65 -5.75 -56.25 -6.25 -56.0 -5.9 -56.15 -3.65 -56.0 -3.15 -56.15 -0.4 -56.0 0.25 -56.25 1.75 -56.15 2.1 M-59.9 2.35 L-61.5 2.35 -61.4 2.1 -61.25 2.0 -61.4 1.75 -60.9 1.5 -60.9 1.25 -60.65 1.1 -60.65 1.0 -60.75 0.85 -60.75 0.75 -60.15 0.25 -60.0 0.1 -59.9 -0.15 -59.75 0.0 -60.0 0.1 -59.75 2.1 -59.9 2.35" fill="#030303" fill-opacity="0.50980395" fill-rule="evenodd" stroke="none"/>
      <path d="M-53.65 1.6 L-56.15 2.1 -56.25 1.75 -56.0 0.25 -56.15 -0.4 -56.0 -3.15 -56.15 -3.65 -56.0 -5.9 -56.25 -6.25 -56.65 -5.75 -57.0 -4.9 -57.4 -4.65 -57.25 -5.25 -57.25 -5.5 -57.4 -5.75 -56.9 -5.75 -56.5 -6.75 -56.0 -7.5 -55.9 -8.0 -55.4 -8.4 -53.4 -8.4 -53.4 -6.4 -53.25 -6.0 -53.5 -1.0 -53.4 -0.65 -53.65 1.6 M-57.5 2.35 L-59.9 2.35 -59.75 2.1 -60.0 0.1 -59.75 0.0 -59.9 -0.15 -59.75 -0.4 -59.75 -0.5 -59.65 -0.65 -59.65 -1.0 -57.65 -4.0 -57.5 -3.0 -57.4 -2.75 -57.5 2.35 M-69.9 0.75 L-72.4 -0.15 -72.65 -3.75 -72.5 -4.65 -68.4 -5.0 -69.5 -1.75 -69.9 -1.15 -69.9 0.75" fill="#030303" fill-rule="evenodd" stroke="none"/>
      <path d="M-55.9 -8.4 L-55.4 -8.4 -55.9 -8.0 -55.9 -8.4" fill="#010101" fill-rule="evenodd" stroke="none"/>
      <path d="M-20.0 -9.0 L-18.9 -9.0 -19.15 -8.15 -18.9 -7.9 -19.15 -7.75 -18.65 -6.5 -18.4 -6.15 -18.15 -3.65 -18.0 -3.25 -18.0 -1.75 -18.15 -1.5 -17.75 -0.75 -17.75 -0.5 -17.5 2.0 -17.75 2.1 -18.65 2.25 -18.9 2.35 -20.0 2.6 -20.0 2.1 -20.25 -0.25 -20.4 -0.75 -20.4 -2.0 -20.65 -3.15 -20.75 -3.4 -21.15 -5.9 -21.15 -7.9 -21.4 -8.75 -20.0 -9.0 M-61.5 2.35 L-61.65 2.5 -62.25 2.35 -65.75 2.35 -69.9 0.75 -69.9 -1.15 -69.5 -1.75 -68.4 -5.0 -72.5 -4.65 -70.5 -7.5 -67.15 -9.4 -66.25 -9.15 -65.65 -8.75 -64.75 -8.4 -58.25 -8.4 -59.5 -8.15 -59.65 -5.4 -59.5 -4.75 -59.75 -3.25 -59.65 -2.65 -59.65 -1.0 -59.65 -0.65 -59.75 -0.5 -59.75 -0.4 -59.9 -0.15 -60.0 0.1 -60.15 0.25 -60.75 0.75 -60.75 0.85 -60.65 1.0 -60.65 1.1 -60.9 1.25 -60.9 1.5 -61.4 1.75 -61.25 2.0 -61.4 2.1 -61.5 2.35 M-57.25 -8.25 L-55.9 -8.4 -55.9 -8.0 -56.0 -7.5 -56.5 -6.75 -56.9 -5.75 -57.4 -5.75 -57.25 -8.25" fill="#000000" fill-opacity="0.50980395" fill-rule="evenodd" stroke="none"/>
      <path d="M-58.25 -8.4 L-57.25 -8.25 -57.4 -5.75 -57.25 -5.5 -57.25 -5.25 -57.4 -4.65 -57.65 -4.25 -57.65 -4.0 -59.65 -1.0 -59.65 -2.65 -59.75 -3.25 -59.5 -4.75 -59.65 -5.4 -59.5 -8.15 -58.25 -8.4" fill="#000000" fill-rule="evenodd" stroke="none"/>
      <path d="M-22.5 -8.25 L-22.65 -7.65 -22.25 -5.5 -22.25 -4.65 -21.9 -2.65 -21.9 -1.9 -21.5 0.0 -21.25 2.85 -23.25 3.25 -23.5 2.35 -23.5 0.5 -23.75 -0.25 -24.15 -3.15 -24.4 -5.4 -24.5 -5.9 -24.65 -7.5 -24.65 -8.25 -22.65 -8.5 -22.5 -8.25" fill="#010101" fill-opacity="0.50980395" fill-rule="evenodd" stroke="none"/>
      <path d="M-38.65 -4.65 L-35.75 -5.0 -33.75 -1.0 -33.75 3.75 -36.4 4.25 -38.25 4.35 -38.65 -4.65" fill="#0c0c0c" fill-opacity="0.50980395" fill-rule="evenodd" stroke="none"/>
      <path d="M-38.65 -4.65 L-38.25 4.35 -40.0 4.6 -40.25 4.6 -40.15 2.25 -40.4 -0.15 -40.4 -0.25 -40.9 -4.5 -38.65 -4.65" fill="#191919" fill-opacity="0.50980395" fill-rule="evenodd" stroke="none"/>
    </g>
  </defs>
</svg>
