<?xml version="1.0" encoding="UTF-8" standalone="no"?>
<svg xmlns:xlink="http://www.w3.org/1999/xlink" height="195.75px" width="399.75px" xmlns="http://www.w3.org/2000/svg">
  <g transform="matrix(1.0, 0.0, 0.0, 1.0, 237.7, 96.3)">
    <use height="96.45" transform="matrix(1.0, 0.0, 0.0, 1.0, -15.55, -14.15)" width="49.45" xlink:href="#shape0"/>
    <use height="594.65" transform="matrix(-0.0147, 0.0363, 0.0363, 0.0147, 62.1422, 11.8497)" width="1190.55" xlink:href="#sprite0"/>
    <use height="18.2" transform="matrix(1.0, 0.0, 0.0, 1.0, 76.55, 77.55)" width="27.95" xlink:href="#shape2"/>
    <use height="71.3" transform="matrix(1.0, 0.0, 0.0, 1.0, -12.35, -14.0)" width="18.65" xlink:href="#shape3"/>
    <use height="27.55" transform="matrix(0.9447, -0.3166, 0.3166, 0.9447, -12.0679, -30.6096)" width="27.5" xlink:href="#sprite1"/>
    <use height="187.45" transform="matrix(1.0, 0.0, 0.0, 1.0, -179.35, -90.8)" width="245.25" xlink:href="#sprite2"/>
  </g>
  <defs>
    <g id="shape0" transform="matrix(1.0, 0.0, 0.0, 1.0, 15.55, 14.15)">
      <path d="M0.25 37.5 L25.05 70.05 -8.6 77.3" fill="none" stroke="#000000" stroke-linecap="round" stroke-linejoin="round" stroke-width="10.0"/>
      <path d="M-10.55 73.35 L28.9 75.1 -2.35 35.0 0.85 -9.15" fill="none" stroke="#000000" stroke-linecap="round" stroke-linejoin="round" stroke-width="10.0"/>
    </g>
    <g id="sprite0" transform="matrix(1.0, 0.0, 0.0, 1.0, 240.7, 103.2)">
      <use height="594.65" transform="matrix(1.0, 0.0, 0.0, 1.0, -240.7, -103.2)" width="1190.55" xlink:href="#shape1"/>
    </g>
    <g id="shape1" transform="matrix(1.0, 0.0, 0.0, 1.0, 240.7, 103.2)">
      <path d="M883.8 144.05 L882.25 143.0 882.35 139.95 Q882.75 136.45 883.8 134.5 885.2 131.55 924.6 92.15 L925.9 90.85 933.0 126.4 933.4 128.6 Q934.4 130.0 934.4 136.6 934.4 138.15 930.15 141.6 L928.85 142.65 883.8 144.05" fill="#455365" fill-rule="evenodd" stroke="none"/>
      <path d="M925.9 90.85 L924.6 92.15 Q885.2 131.55 883.8 134.5 882.75 136.45 882.35 139.95 L882.25 143.0 883.8 144.05 864.2 144.7 644.9 140.05 Q639.75 140.05 632.4 134.4 621.3 125.9 621.3 110.4 L621.05 100.0 622.85 87.25 879.65 89.8 880.05 80.25 Q880.7 70.2 881.7 67.65 882.75 64.55 891.25 57.6 899.6 50.5 902.2 50.5 905.05 50.5 908.15 51.55 911.35 52.55 912.9 54.1 914.3 55.55 920.1 72.15 925.9 88.4 925.9 90.85 M928.85 142.65 L930.15 141.6 Q934.4 138.15 934.4 136.6 934.4 130.0 933.4 128.6 L933.0 126.4 934.65 131.45 Q936.2 138.0 933.4 139.55 931.85 140.55 929.25 142.65 L928.85 142.65 M692.2 126.55 L761.5 127.05 765.1 127.95 777.6 129.5 Q789.6 130.5 858.0 129.5 L861.5 127.55 875.15 126.55 Q879.9 123.05 881.7 118.4 885.3 109.15 870.65 102.8 L696.7 100.9 Q689.45 103.85 685.2 108.6 676.85 118.05 692.2 126.55 M667.05 117.1 Q667.05 113.5 664.6 111.05 662.15 108.35 658.7 108.35 655.35 108.35 652.9 111.05 650.45 113.5 650.45 117.1 650.45 120.85 652.9 123.45 655.35 126.0 658.7 126.0 662.15 126.0 664.6 123.45 667.05 120.85 667.05 117.1 M621.05 100.0 L619.75 109.9 620.55 100.9 Q620.95 98.2 621.05 100.0 M894.75 72.4 Q894.75 75.65 897.2 77.95 899.35 80.25 902.85 80.25 906.05 80.25 908.5 77.95 910.85 75.65 910.85 72.4 910.85 69.3 908.5 67.0 906.05 64.7 902.85 64.7 899.35 64.7 897.2 67.0 894.75 69.2 894.75 72.4" fill="#323b48" fill-rule="evenodd" stroke="none"/>
      <path d="M933.0 126.4 L925.9 90.85 Q925.9 88.4 920.1 72.15 914.3 55.55 912.9 54.1 911.35 52.55 908.15 51.55 905.05 50.5 902.2 50.5 899.6 50.5 891.25 57.6 882.75 64.55 881.7 67.65 880.7 70.2 880.05 80.25 L879.65 89.8 622.85 87.25 621.05 100.0 621.3 110.4 Q621.3 125.9 632.4 134.4 639.75 140.05 644.9 140.05 L864.2 144.7 850.55 145.1 859.3 147.55 790.25 147.55 821.95 170.35 Q855.3 194.55 863.7 201.4 L866.0 201.65 869.6 201.4 872.3 200.5 Q874.1 199.7 875.65 199.45 877.2 199.05 877.1 194.7 876.55 189.65 876.55 187.85 876.55 184.4 873.75 150.9 L890.2 151.65 900.15 280.1 899.75 280.75 Q898.45 283.7 897.2 291.05 896.55 294.8 896.25 297.9 893.3 289.0 886.6 275.6 872.95 248.8 853.25 226.25 790.25 153.95 690.65 151.15 L714.1 153.45 Q742.8 158.1 769.5 169.45 854.65 205.9 886.75 295.3 902.85 309.5 902.85 312.05 L903.9 343.0 Q904.65 369.8 903.1 372.9 L898.2 349.3 Q891.5 314.8 893.05 307.8 888.8 303.55 884.55 298.4 875.9 288.0 875.9 283.35 875.9 278.3 867.4 261.55 859.4 245.95 855.15 240.55 834.15 214.3 809.3 195.7 754.65 155.25 690.0 153.7 L681.35 153.7 681.35 147.55 659.45 145.75 634.85 143.9 Q631.6 143.9 626.2 140.05 620.15 135.8 620.15 131.7 620.15 127.8 617.7 118.4 L615.25 109.65 610.5 112.1 609.2 121.9 603.15 125.5 594.5 137.75 589.25 144.7 586.0 148.8 588.45 161.05 592.05 216.1 589.75 220.35 Q587.05 224.7 584.7 224.7 L581.1 224.7 583.55 239.25 589.6 250.35 589.6 338.5 586.0 339.65 578.65 349.55 Q570.65 359.6 567.6 360.5 L537.05 366.55 534.6 486.55 529.7 491.45 446.45 490.15 451.35 365.4 434.2 361.7 438.6 358.05 Q442.85 353.8 442.85 350.75 L441.55 179.35 402.4 208.75 332.7 208.75 Q325.75 208.35 318.8 204.5 305.0 196.5 305.75 178.2 L307.05 110.8 Q297.25 119.45 293.5 120.6 L289.9 113.25 167.1 114.4 Q43.15 115.3 37.75 114.55 L15.6 112.25 -0.1 110.8 Q-3.2 109.4 -9.9 97.65 L-15.95 86.35 -15.95 74.2 132.05 71.75 Q135.15 71.75 155.9 54.65 166.35 46.15 176.0 37.5 L215.2 41.1 Q217.5 60.3 258.85 66.1 279.5 69.05 299.7 68.05 L297.25 59.55 Q253.05 65.7 231.8 50.4 220.85 42.4 217.65 30.15 L217.5 29.1 Q218.65 30.55 220.6 32.2 225.75 36.7 228.95 37.9 232.3 38.9 259.25 43.15 287.1 47.55 289.8 47.15 294.15 46.65 300.85 25.25 L302.15 44.85 308.2 71.75 316.85 66.85 322.4 66.85 313.1 74.2 313.1 113.25 312.7 114.7 Q313.35 116.2 318.0 117.0 322.65 117.75 459.6 118.65 L595.8 119.45 602.75 121.4 Q609.45 122.4 608.05 117.0 606.5 111.6 606.35 87.5 L606.75 64.45 612.95 76.65 868.55 72.95 866.1 -27.45 868.55 -45.75 869.85 5.65 885.2 5.95 Q901.05 6.55 904.15 8.1 907.1 9.65 913.3 32.85 916.25 44.45 918.7 55.8 L926.05 63.15 933.4 114.55 949.25 132.85 Q950.5 167.1 949.25 172.0 948.6 175.1 948.35 248.4 948.05 285.25 948.05 321.35 L943.8 337.2 Q938.9 353.7 935.85 356.8 932.75 359.85 928.5 371.45 926.4 377.25 924.9 382.4 L905.3 382.4 Q907.35 379.05 908.75 368.25 911.6 346.85 908.0 310.4 L907.75 308.45 Q906.7 297.15 905.55 290.15 L897.8 150.6 914.85 152.05 Q931.95 152.95 931.95 150.1 L931.95 142.65 929.25 142.65 Q931.85 140.55 933.4 139.55 936.2 138.0 934.65 131.45 L933.0 126.4 M514.9 366.55 L537.05 366.55 543.35 362.45 Q551.75 339.25 551.75 337.7 551.6 331.55 551.75 325.85 551.85 314.8 552.75 312.45 553.8 310.15 556.9 306.65 L559.7 303.55 561.8 290.95 559.1 269.3 Q558.7 261.7 558.55 253.55 558.3 237.45 559.7 235.15 565.15 225.6 564.35 223.55 563.85 222.0 549.15 191.45 545.05 182.2 541.05 171.9 532.8 151.15 532.8 146.25 532.8 141.35 528.4 133.85 L523.9 127.3 522.35 161.95 465.55 158.35 457.65 171.0 456.25 267.25 Q455.35 363.5 457.65 363.5 L475.2 363.35 469.15 364.0 469.15 369.55 Q469.25 375.6 470.3 378.15 471.85 382.4 477.0 386.65 L478.3 386.8 Q479.85 386.8 480.75 385.15 481.65 383.7 482.8 379.45 483.95 374.95 484.45 374.05 485.5 371.85 487.7 362.05 L487.7 361.95 490.8 366.7 501.75 366.7 500.95 369.65 Q500.3 373.65 501.25 376.6 504.45 386.15 506.0 387.2 507.55 388.2 509.85 386.8 512.45 385.15 512.95 380.9 513.2 377.0 514.1 371.2 L514.9 366.55 M751.2 -38.4 Q747.45 -50.65 752.2 -64.8 755.05 -73.2 760.6 -79.9 758.3 -75.75 756.35 -70.85 750.15 -54.5 751.2 -38.4 755.45 -35.3 759.7 -32.35 L866.1 -27.45 758.55 -27.45 751.2 -11.6 Q745.8 -9.3 510.5 -7.75 393.0 -6.85 276.4 -6.55 278.7 -5.95 282.05 1.8 L285.0 9.3 291.05 9.3 295.35 16.25 292.35 14.15 282.2 8.65 Q277.55 7.45 275.25 7.45 274.95 7.45 274.85 7.6 L274.2 3.1 Q273.05 -2.3 271.1 -3.1 L264.8 -6.3 Q260.0 -8.75 257.05 -8.25 254.2 -8.0 249.6 -5.15 L245.45 -2.45 252.4 -0.75 254.75 -2.85 Q257.7 -4.5 260.55 -3.1 264.25 -1.15 266.45 1.7 268.9 4.75 267.6 6.85 L264.9 11.45 Q263.25 13.9 261.85 13.9 L257.7 14.7 Q255.1 15.1 253.6 12.1 252.15 9.15 250.75 4.75 L249.6 1.05 244.3 0.4 243.0 0.4 247.0 -6.55 183.35 -5.4 165.05 -10.3 168.8 -38.4 167.5 -43.3 204.25 -44.6 198.05 -51.9 198.05 -54.75 Q200.0 -55.4 201.8 -56.2 207.85 -58.0 214.0 -59.15 234.0 -62.6 248.3 -56.8 L245.85 -44.6 Q620.15 -47.05 625.05 -45.75 L652.6 -41.5 683.8 -37.25 Q693.6 -35.95 751.2 -38.4 M656.85 -34.8 Q654.45 -36.45 515.25 -38.0 377.0 -39.45 371.85 -38.4 365.7 -37.25 188.25 -37.25 L174.85 -31.05 174.85 -13.9 Q463.1 -15.05 751.2 -16.35 L754.8 -22.55 754.8 -29.9 707.25 -31.3 Q659.2 -33.25 656.85 -34.8 M621.05 100.0 Q620.95 98.2 620.55 100.9 L619.75 109.9 621.05 100.0 M892.4 21.0 Q894.2 22.8 896.8 22.8 899.25 22.8 901.05 21.0 902.85 19.2 902.85 16.6 902.85 14.05 901.05 12.35 899.25 10.55 896.8 10.55 894.2 10.55 892.4 12.35 890.6 14.05 890.6 16.6 890.6 19.2 892.4 21.0 M860.05 147.8 L862.75 165.95 Q865.6 185.65 865.6 191.35 L865.6 193.0 860.05 147.8 M567.6 279.35 Q567.6 278.3 566.8 277.55 566.05 276.75 565.0 276.75 563.85 276.75 563.05 277.55 562.3 278.2 562.3 279.35 562.3 280.5 563.05 281.3 563.85 281.9 565.0 281.9 566.05 281.9 566.8 281.3 567.6 280.5 567.6 279.35 M556.75 310.65 Q555.85 311.45 555.85 312.45 555.85 313.6 556.75 314.4 557.8 315.05 559.1 315.05 560.5 315.05 561.55 314.4 562.45 313.6 562.45 312.45 562.45 311.45 561.55 310.65 560.5 309.9 559.1 309.9 557.8 309.9 556.75 310.65 M483.3 339.9 Q483.05 338.85 483.95 327.55 L485.0 316.2 489.65 311.45 491.3 308.7 510.25 309.35 516.05 307.7 518.6 310.4 491.3 308.7 494.0 330.35 491.8 323.0 490.9 332.45 491.3 320.3 485.5 319.3 483.3 339.9 M534.45 311.45 L538.6 319.3 541.3 318.75 541.8 326.65 541.3 336.15 536.55 342.5 536.55 344.95 536.0 328.8 535.0 331.9 534.45 311.45 M556.25 340.7 Q557.25 341.45 558.7 341.45 560.0 341.45 560.9 340.7 561.9 339.9 561.9 338.75 561.9 337.7 560.9 336.95 560.0 336.15 558.7 336.15 557.25 336.15 556.25 336.95 555.35 337.7 555.35 338.75 555.35 339.9 556.25 340.7 M557.8 333.35 Q558.7 332.55 558.7 331.4 558.7 330.35 557.8 329.6 556.9 328.8 555.45 328.8 554.05 328.8 553.15 329.6 552.25 330.35 552.25 331.4 552.25 332.55 553.15 333.35 554.05 334.0 555.45 334.0 556.9 334.0 557.8 333.35 M554.2 325.1 Q554.2 326.25 555.2 327.0 556.25 327.65 557.55 327.65 558.95 327.65 560.0 327.0 560.9 326.25 560.9 325.1 560.9 324.05 560.0 323.3 558.95 322.5 557.55 322.5 556.25 322.5 555.2 323.3 554.2 324.05 554.2 325.1 M555.85 318.75 Q555.85 319.95 556.75 320.7 557.8 321.35 559.1 321.35 560.5 321.35 561.55 320.7 562.45 319.95 562.45 318.75 562.45 317.75 561.55 316.95 560.5 316.2 559.1 316.2 557.8 316.2 556.75 316.95 555.85 317.75 555.85 318.75 M568.6 301.4 Q569.9 301.4 570.95 300.6 571.95 299.95 571.95 298.8 571.95 297.75 570.95 297.0 569.9 296.2 568.6 296.2 567.2 296.2 566.3 297.0 565.25 297.75 565.25 298.8 565.25 299.95 566.3 300.6 567.2 301.4 568.6 301.4 M568.85 302.8 Q567.85 302.0 566.55 302.0 565.15 302.0 564.25 302.8 563.2 303.45 563.2 304.6 563.2 305.75 564.25 306.55 565.15 307.2 566.55 307.2 567.85 307.2 568.85 306.55 569.75 305.75 569.75 304.6 569.75 303.45 568.85 302.8 M570.3 286.7 Q570.3 285.65 569.4 284.9 568.35 284.1 567.05 284.1 565.65 284.1 564.6 284.9 563.7 285.65 563.7 286.7 563.7 287.85 564.6 288.6 565.65 289.4 567.05 289.4 568.35 289.4 569.4 288.6 570.3 287.85 570.3 286.7 M573.1 294.95 Q574.0 294.15 574.0 293.0 574.0 291.95 573.1 291.2 572.1 290.4 570.65 290.4 569.4 290.4 568.35 291.2 567.45 291.95 567.45 293.0 567.45 294.15 568.35 294.95 569.4 295.7 570.65 295.7 572.1 295.7 573.1 294.95 M245.85 -80.0 Q240.95 -81.55 233.85 -82.6 242.1 -82.1 245.85 -80.0 M250.1 19.2 Q252.4 19.95 258.1 22.3 262.85 23.95 264.65 23.2 267.0 22.3 270.6 17.9 272.8 15.2 273.8 13.15 L274.05 14.55 280.75 16.9 Q287.7 19.35 289.25 19.7 292.1 20.5 292.1 30.15 292.1 32.85 288.9 36.1 L283.35 40.7 Q281.65 42.15 255.1 36.7 L226.8 30.8 Q224.6 30.8 223.3 28.5 222.25 26.3 220.85 20.35 219.8 15.35 221.75 11.6 222.9 9.4 226.15 6.85 227.95 5.4 235.65 5.4 L243.0 5.65 244.3 0.4 245.45 9.15 Q247.15 18.05 250.1 19.2 M216.6 14.3 L216.45 9.3 173.55 6.85 182.2 5.65 216.45 9.3 217.5 8.75 Q217.0 10.7 216.6 13.65 L216.6 14.3 M171.1 13.0 L161.45 14.15 159.65 13.0 171.1 13.0 M156.55 13.0 L160.15 32.6 128.35 58.25 -15.95 57.1 -15.95 74.2 -23.3 75.4 -24.5 86.35 -25.1 86.35 -29.5 75.4 -40.95 75.4 Q-42.9 62.75 -43.8 49.75 -46.5 11.1 -37.1 7.35 L-80.5 5.15 -73.55 3.2 -30.65 6.85 -19.7 4.4 -12.35 11.75 7.2 8.1 62.25 4.4 108.75 5.65 127.7 -2.95 114.95 3.2 150.35 6.85 7.2 8.1 -2.55 14.15 156.55 13.0 M228.3 2.3 L228.7 1.95 Q230.5 0.75 234.65 0.9 231.05 1.55 228.3 2.3 M236.7 44.45 L234.25 40.2 Q232.95 39.55 231.65 39.3 228.95 38.9 228.95 40.7 228.95 42.9 230.4 45.35 231.65 47.65 234.9 51.3 237.45 54.25 262.6 56.55 L288.65 58.25 294.8 57.35 300.85 55.9 Q302.65 55.4 298.55 52.45 L281.65 52.95 246.6 49.5 Q240.45 48.85 236.7 44.45 M150.35 6.85 L152.8 -5.4 156.05 10.7 150.35 6.85 M251.9 103.45 Q255.65 105.0 257.7 103.45 259.0 102.7 261.7 99.85 264.0 98.45 260.0 98.3 L255.65 98.55 250.75 97.4 Q247.65 96.65 247.65 93.95 L248.3 91.25 242.1 94.95 244.7 98.3 Q248.15 102.05 251.9 103.45 M381.55 138.5 Q382.8 133.1 382.3 128.7 L381.65 125.5 314.4 127.95 313.1 165.95 Q310.0 196.5 324.7 203.3 332.05 206.55 340.05 203.85 L397.5 202.7 435.5 174.45 434.2 126.8 397.5 127.95 Q396.85 154.75 377.4 169.2 371.45 173.7 364.25 176.4 L358.35 178.2 Q377.55 156.05 381.55 138.5 M-9.9 -62.9 Q-5.0 -69.6 2.3 -76.0 17.0 -88.8 29.25 -87.35 41.9 -85.7 56.95 -72.4 69.2 -61.7 70.85 -56.8 72.05 -53.1 73.3 -33.5 L141.85 -31.05 Q102.7 -30.4 63.55 -29.9 L62.25 4.4 62.25 -51.9 Q62.25 -54.9 57.35 -63.5 51.3 -74.35 43.15 -80.25 18.7 -98.45 -9.9 -62.9 L-14.8 -6.55 -13.5 -34.8 -9.9 -62.9 M-239.9 44.85 L-99.2 46.0 -100.5 38.65 -238.75 36.2 -239.9 44.85 M-77.45 86.35 L-85.8 86.35 -99.2 70.5 -235.0 63.15 Q-237.7 56.45 -239.4 48.45 -242.75 32.6 -237.45 26.4 L-99.2 25.25 -91.85 8.1 -82.95 5.8 -84.4 14.7 Q-85.95 26.55 -86.6 37.6 -88.9 72.95 -81.7 86.2 L-77.45 86.35 M61.1 -6.55 L62.25 4.4 48.85 -2.95 56.2 -6.55 61.1 -6.55 M-89.4 31.3 L-99.2 32.6 -100.5 38.65 -88.25 42.4 -89.4 31.3 M-33.1 42.4 L-29.5 31.3 -24.6 42.4 -18.4 44.85 -15.95 31.3 -29.5 31.3 -42.9 31.3 Q-42.25 36.2 -41.75 41.1 L-33.1 42.4 M-39.4 86.35 L-40.45 80.0 -36.95 86.35 -39.4 86.35 M46.4 101.0 Q42.55 101.0 39.2 95.6 L36.6 90.05 35.05 95.5 Q33.9 101.3 35.3 103.45 37.0 106.15 42.55 106.55 L52.45 105.9 Q56.95 105.15 54.1 103.1 51.3 101.0 46.4 101.0 M489.1 342.35 L489.25 341.45 Q488.6 339.9 489.65 336.8 L490.65 333.45 487.7 361.95 Q487.3 361.05 488.2 351.1 L489.1 342.35" fill="#000000" fill-rule="evenodd" stroke="none"/>
      <path d="M883.8 144.05 L928.85 142.65 929.25 142.65 931.95 142.65 931.95 150.1 Q931.95 152.95 914.85 152.05 L897.8 150.6 905.55 290.15 Q902.85 274.7 900.15 280.1 L890.2 151.65 873.75 150.9 870.1 150.6 860.05 147.8 859.3 147.55 850.55 145.1 864.2 144.7 883.8 144.05" fill="#2b3335" fill-rule="evenodd" stroke="none"/>
      <path d="M868.55 -45.75 L866.1 -27.45 759.7 -32.35 Q755.45 -35.3 751.2 -38.4 750.15 -54.5 756.35 -70.85 758.3 -75.75 760.6 -79.9 774.0 -103.2 803.75 -103.2 838.95 -103.2 853.0 -76.3 860.05 -62.9 860.05 -49.5 864.3 -47.55 868.55 -45.75 M814.45 -73.7 Q811.9 -76.3 808.0 -76.3 804.3 -76.3 801.55 -73.7 798.85 -71.0 798.85 -67.15 798.85 -63.25 801.55 -60.7 804.3 -58.0 808.0 -58.0 811.9 -58.0 814.45 -60.7 817.15 -63.25 817.15 -67.15 817.15 -71.0 814.45 -73.7 M667.05 117.1 Q667.05 120.85 664.6 123.45 662.15 126.0 658.7 126.0 655.35 126.0 652.9 123.45 650.45 120.85 650.45 117.1 650.45 113.5 652.9 111.05 655.35 108.35 658.7 108.35 662.15 108.35 664.6 111.05 667.05 113.5 667.05 117.1 M892.4 21.0 Q890.6 19.2 890.6 16.6 890.6 14.05 892.4 12.35 894.2 10.55 896.8 10.55 899.25 10.55 901.05 12.35 902.85 14.05 902.85 16.6 902.85 19.2 901.05 21.0 899.25 22.8 896.8 22.8 894.2 22.8 892.4 21.0 M894.75 72.4 Q894.75 69.2 897.2 67.0 899.35 64.7 902.85 64.7 906.05 64.7 908.5 67.0 910.85 69.3 910.85 72.4 910.85 75.65 908.5 77.95 906.05 80.25 902.85 80.25 899.35 80.25 897.2 77.95 894.75 75.65 894.75 72.4" fill="#a5bdcb" fill-rule="evenodd" stroke="none"/>
      <path d="M814.45 -73.7 Q817.15 -71.0 817.15 -67.15 817.15 -63.25 814.45 -60.7 811.9 -58.0 808.0 -58.0 804.3 -58.0 801.55 -60.7 798.85 -63.25 798.85 -67.15 798.85 -71.0 801.55 -73.7 804.3 -76.3 808.0 -76.3 811.9 -76.3 814.45 -73.7" fill="#e2eefb" fill-rule="evenodd" stroke="none"/>
      <path d="M866.1 -27.45 L868.55 72.95 612.95 76.65 606.75 64.45 430.85 65.2 325.35 64.45 322.4 66.85 316.85 66.85 308.2 71.75 302.15 44.85 300.85 25.25 Q302.15 21.4 295.35 16.25 L291.05 9.3 285.0 9.3 282.05 1.8 Q278.7 -5.95 276.4 -6.55 393.0 -6.85 510.5 -7.75 745.8 -9.3 751.2 -11.6 L758.55 -27.45 866.1 -27.45 M183.35 -5.4 L247.0 -6.55 243.0 0.4 236.7 0.4 234.65 0.9 Q230.5 0.75 228.7 1.95 L228.3 2.3 Q223.05 3.5 220.2 4.5 218.4 5.15 217.5 8.75 L216.45 9.3 182.2 5.65 183.35 -5.4 M636.4 17.8 Q637.55 21.25 639.75 23.95 L774.0 22.8 Q779.8 19.7 775.95 12.35 L770.9 5.65 639.75 6.85 Q634.2 10.7 636.4 17.8 M639.75 39.95 Q634.2 43.7 636.4 50.75 637.55 54.25 639.75 57.1 L774.0 55.8 Q779.8 52.85 775.95 45.35 L770.9 38.65 639.75 39.95 M595.55 8.75 L592.05 6.85 335.15 8.1 Q324.45 11.85 328.85 18.95 330.9 22.4 335.15 25.25 L598.25 23.95 Q609.6 20.85 602.0 13.55 599.65 11.2 595.55 8.75 M598.25 55.8 Q609.6 52.85 602.0 45.35 599.65 43.05 595.55 40.6 L592.05 38.65 335.15 39.95 Q324.45 43.7 328.85 50.75 330.9 54.25 335.15 57.1 L598.25 55.8 M152.8 -5.4 L150.35 6.85 114.95 3.2 127.7 -2.95 140.6 -9.0 152.8 -5.4" fill="#647491" fill-rule="evenodd" stroke="none"/>
      <path d="M636.4 17.8 Q634.2 10.7 639.75 6.85 L770.9 5.65 775.95 12.35 Q779.8 19.7 774.0 22.8 L639.75 23.95 Q637.55 21.25 636.4 17.8 M638.45 14.15 L705.3 16.0 Q772.2 17.25 772.2 14.15 772.2 11.1 771.55 10.55 L638.45 10.55 637.3 12.35 Q636.5 14.15 638.45 14.15 M637.3 45.5 Q636.5 47.3 638.45 47.3 L705.3 49.1 Q772.2 50.4 772.2 47.3 772.2 44.2 771.55 43.55 L638.45 43.55 637.3 45.5 M639.75 39.95 L770.9 38.65 775.95 45.35 Q779.8 52.85 774.0 55.8 L639.75 57.1 Q637.55 54.25 636.4 50.75 634.2 43.7 639.75 39.95 M593.35 11.75 L332.7 11.75 Q331.25 12.65 330.35 13.65 328.85 15.45 332.7 15.45 L463.6 17.25 Q594.5 18.55 594.5 15.45 594.5 12.35 593.35 11.75 M595.55 8.75 Q599.65 11.2 602.0 13.55 609.6 20.85 598.25 23.95 L335.15 25.25 Q330.9 22.4 328.85 18.95 324.45 11.85 335.15 8.1 L592.05 6.85 595.55 8.75 M593.35 43.55 L332.7 43.55 Q331.25 44.45 330.35 45.5 328.85 47.3 332.7 47.3 L463.6 49.1 Q594.5 50.4 594.5 47.3 594.5 44.2 593.35 43.55 M598.25 55.8 L335.15 57.1 Q330.9 54.25 328.85 50.75 324.45 43.7 335.15 39.95 L592.05 38.65 595.55 40.6 Q599.65 43.05 602.0 45.35 609.6 52.85 598.25 55.8 M692.2 126.55 Q676.85 118.05 685.2 108.6 689.45 103.85 696.7 100.9 L870.65 102.8 Q885.3 109.15 881.7 118.4 879.9 123.05 875.15 126.55 L861.5 127.55 858.0 129.5 Q789.6 130.5 777.6 129.5 L765.1 127.95 761.5 127.05 692.2 126.55 M690.5 108.25 Q686.25 110.3 688.2 110.95 L694.75 112.5 727.5 113.9 Q760.45 115.2 761.0 113.9 L763.55 106.95 695.15 106.3 Q692.7 107.2 690.5 108.25 M775.15 114.95 L856.6 115.45 Q857.5 112.5 855.55 111.85 L778.1 108.9 Q776.55 110.4 775.55 111.95 773.2 114.95 775.15 114.95 M873.1 111.05 Q875.4 113.0 875.65 113.9 876.15 115.45 871.15 114.95 L867.65 109.9 871.15 109.4 873.1 111.05 871.15 109.4 867.65 109.9 871.15 114.95 Q876.15 115.45 875.65 113.9 875.4 113.0 873.1 111.05" fill="#222827" fill-rule="evenodd" stroke="none"/>
      <path d="M637.3 45.5 L638.45 43.55 771.55 43.55 Q772.2 44.2 772.2 47.3 772.2 50.4 705.3 49.1 L638.45 47.3 Q636.5 47.3 637.3 45.5 M638.45 14.15 Q636.5 14.15 637.3 12.35 L638.45 10.55 771.55 10.55 Q772.2 11.1 772.2 14.15 772.2 17.25 705.3 16.0 L638.45 14.15 M593.35 11.75 Q594.5 12.35 594.5 15.45 594.5 18.55 463.6 17.25 L332.7 15.45 Q328.85 15.45 330.35 13.65 331.25 12.65 332.7 11.75 L593.35 11.75 M593.35 43.55 Q594.5 44.2 594.5 47.3 594.5 50.4 463.6 49.1 L332.7 47.3 Q328.85 47.3 330.35 45.5 331.25 44.45 332.7 43.55 L593.35 43.55 M690.5 108.25 Q692.7 107.2 695.15 106.3 L763.55 106.95 761.0 113.9 Q760.45 115.2 727.5 113.9 L694.75 112.5 688.2 110.95 Q686.25 110.3 690.5 108.25 M775.15 114.95 Q773.2 114.95 775.55 111.95 776.55 110.4 778.1 108.9 L855.55 111.85 Q857.5 112.5 856.6 115.45 L775.15 114.95" fill="#eff8f1" fill-rule="evenodd" stroke="none"/>
      <path d="M656.85 -34.8 Q659.2 -33.25 707.25 -31.3 L754.8 -29.9 754.8 -22.55 751.2 -16.35 Q463.1 -15.05 174.85 -13.9 L174.85 -31.05 188.25 -37.25 Q365.7 -37.25 371.85 -38.4 377.0 -39.45 515.25 -38.0 654.45 -36.45 656.85 -34.8" fill="#7b90a7" fill-rule="evenodd" stroke="none"/>
      <path d="M537.55 81.95 Q538.85 82.7 539.35 83.75 L538.85 102.3 Q538.85 105.8 535.65 106.15 L532.3 105.9 463.1 104.75 Q393.1 103.7 390.05 103.35 386.95 103.1 384.6 100.35 L382.95 97.8 384.5 83.25 391.6 81.3 Q525.3 82.7 531.25 81.3 535.1 80.25 537.55 81.95 M410.15 87.25 Q407.4 87.25 405.5 88.8 403.55 90.3 403.55 92.5 403.55 94.7 405.5 96.25 407.4 97.8 410.15 97.8 412.85 97.8 414.75 96.25 416.7 94.7 416.7 92.5 416.7 90.3 414.75 88.8 412.85 87.25 410.15 87.25" fill="#4c5565" fill-rule="evenodd" stroke="none"/>
      <path d="M606.75 64.45 L606.35 87.5 Q606.5 111.6 608.05 117.0 609.45 122.4 602.75 121.4 L595.8 119.45 459.6 118.65 Q322.65 117.75 318.0 117.0 313.35 116.2 312.7 114.7 L313.1 113.25 313.1 74.2 322.4 66.85 325.35 64.45 430.85 65.2 606.75 64.45 M537.55 81.95 Q535.1 80.25 531.25 81.3 525.3 82.7 391.6 81.3 L384.5 83.25 382.95 97.8 384.6 100.35 Q386.95 103.1 390.05 103.35 393.1 103.7 463.1 104.75 L532.3 105.9 535.65 106.15 Q538.85 105.8 538.85 102.3 L539.35 83.75 Q538.85 82.7 537.55 81.95 M592.45 106.95 Q595.65 104.1 595.65 99.85 595.65 95.75 592.45 92.65 589.25 89.8 584.6 89.8 579.95 89.8 576.75 92.65 573.5 95.75 573.5 99.85 573.5 104.1 576.75 106.95 580.1 109.9 584.6 109.9 589.25 109.9 592.45 106.95 M337.7 86.6 Q335.25 84.25 331.8 84.25 328.2 84.25 325.75 86.6 323.15 89.05 323.15 92.25 323.15 95.6 325.75 98.05 328.2 100.35 331.8 100.35 335.25 100.35 337.7 98.05 340.3 95.6 340.3 92.25 340.3 89.05 337.7 86.6" fill="#4c577b" fill-rule="evenodd" stroke="none"/>
      <path d="M592.45 106.95 Q589.25 109.9 584.6 109.9 580.1 109.9 576.75 106.95 573.5 104.1 573.5 99.85 573.5 95.75 576.75 92.65 579.95 89.8 584.6 89.8 589.25 89.8 592.45 92.65 595.65 95.75 595.65 99.85 595.65 104.1 592.45 106.95 M410.15 87.25 Q412.85 87.25 414.75 88.8 416.7 90.3 416.7 92.5 416.7 94.7 414.75 96.25 412.85 97.8 410.15 97.8 407.4 97.8 405.5 96.25 403.55 94.7 403.55 92.5 403.55 90.3 405.5 88.8 407.4 87.25 410.15 87.25 M337.7 86.6 Q340.3 89.05 340.3 92.25 340.3 95.6 337.7 98.05 335.25 100.35 331.8 100.35 328.2 100.35 325.75 98.05 323.15 95.6 323.15 92.25 323.15 89.05 325.75 86.6 328.2 84.25 331.8 84.25 335.25 84.25 337.7 86.6" fill="#495775" fill-rule="evenodd" stroke="none"/>
      <path d="M475.2 363.35 L457.65 363.5 Q455.35 363.5 456.25 267.25 L457.65 171.0 465.55 158.35 522.35 161.95 523.9 127.3 528.4 133.85 Q532.8 141.35 532.8 146.25 532.8 151.15 541.05 171.9 545.05 182.2 549.15 191.45 563.85 222.0 564.35 223.55 565.15 225.6 559.7 235.15 558.3 237.45 558.55 253.55 558.7 261.7 559.1 269.3 L561.8 290.95 559.7 303.55 556.9 306.65 Q553.8 310.15 552.75 312.45 551.85 314.8 551.75 325.85 551.6 331.55 551.75 337.7 551.75 339.25 543.35 362.45 L537.05 366.55 536.55 344.95 536.55 342.5 541.3 336.15 541.8 326.65 541.3 318.75 538.6 319.3 534.45 311.45 518.6 310.4 516.05 307.7 510.25 309.35 491.3 308.7 489.65 311.45 485.0 316.2 483.95 327.55 Q483.05 338.85 483.3 339.9 L485.65 341.2 Q488.45 342.75 489.1 342.35 L488.2 351.1 Q487.3 361.05 487.7 361.95 L475.2 363.35 M544.9 217.65 Q542.35 220.2 542.35 223.55 542.35 227.05 544.9 229.6 547.5 231.95 551.2 231.95 554.95 231.95 557.65 229.6 560.25 227.05 560.25 223.55 560.25 220.05 557.65 217.65 554.95 215.2 551.2 215.2 547.6 215.2 544.9 217.65 M543.85 245.2 Q535.0 237.35 532.8 233.6 L526.35 223.8 520.15 214.65 Q518.25 210.65 504.45 198.3 501.1 195.35 498.0 190.2 L495.55 185.65 477.65 185.15 475.05 307.2 483.2 307.2 492.85 306.8 Q494.9 306.15 498.65 293.0 L529.7 293.0 531.0 291.85 Q532.4 290.7 533.45 290.4 534.2 290.15 536.0 283.45 537.8 277.0 538.6 276.75 L547.85 275.5 556.0 274.6 556.5 246.25 543.85 245.2 M556.5 293.8 Q556.5 291.45 554.7 289.9 552.75 288.25 550.2 288.25 547.6 288.25 545.8 289.9 543.85 291.45 543.85 293.8 543.85 296.1 545.8 297.75 547.6 299.3 550.2 299.3 552.75 299.3 554.7 297.75 556.5 296.1 556.5 293.8" fill="#2a3438" fill-rule="evenodd" stroke="none"/>
      <path d="M905.55 290.15 Q906.7 297.15 907.75 308.45 L908.0 310.4 Q911.6 346.85 908.75 368.25 907.35 379.05 905.3 382.4 L902.85 374.8 901.7 374.7 Q900.9 374.3 902.85 373.25 L903.1 372.9 Q904.65 369.8 903.9 343.0 L902.85 312.05 Q902.85 309.5 886.75 295.3 854.65 205.9 769.5 169.45 742.8 158.1 714.1 153.45 L690.65 151.15 Q790.25 153.95 853.25 226.25 872.95 248.8 886.6 275.6 893.3 289.0 896.25 297.9 896.55 294.8 897.2 291.05 898.45 283.7 899.75 280.75 L900.15 280.1 Q902.85 274.7 905.55 290.15" fill="#ecf0ee" fill-rule="evenodd" stroke="none"/>
      <path d="M873.75 150.9 Q876.55 184.4 876.55 187.85 876.55 189.65 877.1 194.7 877.2 199.05 875.65 199.45 874.1 199.7 872.3 200.5 L869.6 201.4 866.0 201.65 863.7 201.4 864.45 200.25 864.6 199.85 Q865.35 197.4 865.6 193.0 L865.6 191.35 Q865.6 185.65 862.75 165.95 L860.05 147.8 870.1 150.6 873.75 150.9" fill="#2d302f" fill-rule="evenodd" stroke="none"/>
      <path d="M567.6 279.35 Q567.6 280.5 566.8 281.3 566.05 281.9 565.0 281.9 563.85 281.9 563.05 281.3 562.3 280.5 562.3 279.35 562.3 278.2 563.05 277.55 563.85 276.75 565.0 276.75 566.05 276.75 566.8 277.55 567.6 278.3 567.6 279.35 M544.9 217.65 Q547.6 215.2 551.2 215.2 554.95 215.2 557.65 217.65 560.25 220.05 560.25 223.55 560.25 227.05 557.65 229.6 554.95 231.95 551.2 231.95 547.5 231.95 544.9 229.6 542.35 227.05 542.35 223.55 542.35 220.2 544.9 217.65 M556.5 293.8 Q556.5 296.1 554.7 297.75 552.75 299.3 550.2 299.3 547.6 299.3 545.8 297.75 543.85 296.1 543.85 293.8 543.85 291.45 545.8 289.9 547.6 288.25 550.2 288.25 552.75 288.25 554.7 289.9 556.5 291.45 556.5 293.8 M556.75 310.65 Q557.8 309.9 559.1 309.9 560.5 309.9 561.55 310.65 562.45 311.45 562.45 312.45 562.45 313.6 561.55 314.4 560.5 315.05 559.1 315.05 557.8 315.05 556.75 314.4 555.85 313.6 555.85 312.45 555.85 311.45 556.75 310.65 M555.85 318.75 Q555.85 317.75 556.75 316.95 557.8 316.2 559.1 316.2 560.5 316.2 561.55 316.95 562.45 317.75 562.45 318.75 562.45 319.95 561.55 320.7 560.5 321.35 559.1 321.35 557.8 321.35 556.75 320.7 555.85 319.95 555.85 318.75 M554.2 325.1 Q554.2 324.05 555.2 323.3 556.25 322.5 557.55 322.5 558.95 322.5 560.0 323.3 560.9 324.05 560.9 325.1 560.9 326.25 560.0 327.0 558.95 327.65 557.55 327.65 556.25 327.65 555.2 327.0 554.2 326.25 554.2 325.1 M557.8 333.35 Q556.9 334.0 555.45 334.0 554.05 334.0 553.15 333.35 552.25 332.55 552.25 331.4 552.25 330.35 553.15 329.6 554.05 328.8 555.45 328.8 556.9 328.8 557.8 329.6 558.7 330.35 558.7 331.4 558.7 332.55 557.8 333.35 M556.25 340.7 Q555.35 339.9 555.35 338.75 555.35 337.7 556.25 336.95 557.25 336.15 558.7 336.15 560.0 336.15 560.9 336.95 561.9 337.7 561.9 338.75 561.9 339.9 560.9 340.7 560.0 341.45 558.7 341.45 557.25 341.45 556.25 340.7 M573.1 294.95 Q572.1 295.7 570.65 295.7 569.4 295.7 568.35 294.95 567.45 294.15 567.45 293.0 567.45 291.95 568.35 291.2 569.4 290.4 570.65 290.4 572.1 290.4 573.1 291.2 574.0 291.95 574.0 293.0 574.0 294.15 573.1 294.95 M570.3 286.7 Q570.3 287.85 569.4 288.6 568.35 289.4 567.05 289.4 565.65 289.4 564.6 288.6 563.7 287.85 563.7 286.7 563.7 285.65 564.6 284.9 565.65 284.1 567.05 284.1 568.35 284.1 569.4 284.9 570.3 285.65 570.3 286.7 M568.85 302.8 Q569.75 303.45 569.75 304.6 569.75 305.75 568.85 306.55 567.85 307.2 566.55 307.2 565.15 307.2 564.25 306.55 563.2 305.75 563.2 304.6 563.2 303.45 564.25 302.8 565.15 302.0 566.55 302.0 567.85 302.0 568.85 302.8 M568.6 301.4 Q567.2 301.4 566.3 300.6 565.25 299.95 565.25 298.8 565.25 297.75 566.3 297.0 567.2 296.2 568.6 296.2 569.9 296.2 570.95 297.0 571.95 297.75 571.95 298.8 571.95 299.95 570.95 300.6 569.9 301.4 568.6 301.4 M483.3 339.9 L485.5 319.3 491.3 320.3 490.9 332.45 490.65 333.45 489.65 336.8 Q488.6 339.9 489.25 341.45 L489.1 342.35 Q488.45 342.75 485.65 341.2 L483.3 339.9" fill="#c0c9cf" fill-rule="evenodd" stroke="none"/>
      <path d="M537.05 366.55 L514.9 366.55 501.75 366.7 490.8 366.7 487.7 361.95 490.65 333.45 490.9 332.45 491.8 323.0 494.0 330.35 491.3 308.7 518.6 310.4 534.45 311.45 535.0 331.9 536.0 328.8 536.55 344.95 537.05 366.55 M543.85 245.2 L556.5 246.25 556.0 274.6 547.85 275.5 538.6 276.75 Q537.8 277.0 536.0 283.45 534.2 290.15 533.45 290.4 532.4 290.7 531.0 291.85 L529.7 293.0 498.65 293.0 Q494.9 306.15 492.85 306.8 L483.2 307.2 475.05 307.2 477.65 185.15 495.55 185.65 498.0 190.2 Q501.1 195.35 504.45 198.3 518.25 210.65 520.15 214.65 L526.35 223.8 532.8 233.6 Q535.0 237.35 543.85 245.2" fill="#313836" fill-rule="evenodd" stroke="none"/>
      <path d="M514.9 366.55 L514.1 371.2 Q513.2 377.0 512.95 380.9 512.45 385.15 509.85 386.8 507.55 388.2 506.0 387.2 504.45 386.15 501.25 376.6 500.3 373.65 500.95 369.65 L501.75 366.7 514.9 366.55 M487.7 361.95 L487.7 362.05 Q485.5 371.85 484.45 374.05 483.95 374.95 482.8 379.45 481.65 383.7 480.75 385.15 479.85 386.8 478.3 386.8 L477.0 386.65 Q471.85 382.4 470.3 378.15 469.25 375.6 469.15 369.55 L469.15 364.0 475.2 363.35 487.7 361.95" fill="#2c2d2f" fill-rule="evenodd" stroke="none"/>
      <path d="M167.5 -43.3 L168.8 -38.4 165.05 -10.3 183.35 -5.4 182.2 5.65 173.55 6.85 171.1 13.0 159.65 13.0 156.55 13.0 156.05 10.7 152.8 -5.4 140.6 -9.0 141.85 -31.05 Q154.75 -37.1 167.5 -43.3" fill="#293231" fill-rule="evenodd" stroke="none"/>
      <path d="M248.3 -56.8 Q234.0 -62.6 214.0 -59.15 207.85 -58.0 201.8 -56.2 200.0 -55.4 198.05 -54.75 L196.9 -54.5 196.9 -80.0 Q212.5 -85.05 230.75 -83.0 L233.85 -82.6 Q240.95 -81.55 245.85 -80.0 L248.3 -56.8" fill="#3d4748" fill-rule="evenodd" stroke="none"/>
      <path d="M300.85 25.25 Q294.15 46.65 289.8 47.15 287.1 47.55 259.25 43.15 232.3 38.9 228.95 37.9 225.75 36.7 220.6 32.2 218.65 30.55 217.5 29.1 215.05 26.15 215.55 24.35 L216.6 14.3 216.6 13.65 Q217.0 10.7 217.5 8.75 218.4 5.15 220.2 4.5 223.05 3.5 228.3 2.3 231.05 1.55 234.65 0.9 L236.7 0.4 243.0 0.4 244.3 0.4 249.6 1.05 250.75 4.75 Q252.15 9.15 253.6 12.1 255.1 15.1 257.7 14.7 L261.85 13.9 Q263.25 13.9 264.9 11.45 L267.6 6.85 Q268.9 4.75 266.45 1.7 264.25 -1.15 260.55 -3.1 257.7 -4.5 254.75 -2.85 L252.4 -0.75 245.45 -2.45 249.6 -5.15 Q254.2 -8.0 257.05 -8.25 260.0 -8.75 264.8 -6.3 L271.1 -3.1 Q273.05 -2.3 274.2 3.1 L274.85 7.6 Q274.95 7.45 275.25 7.45 277.55 7.45 282.2 8.65 L292.35 14.15 295.35 16.25 Q302.15 21.4 300.85 25.25 M250.1 19.2 Q247.15 18.05 245.45 9.15 L244.3 0.4 243.0 5.65 235.65 5.4 Q227.95 5.4 226.15 6.85 222.9 9.4 221.75 11.6 219.8 15.35 220.85 20.35 222.25 26.3 223.3 28.5 224.6 30.8 226.8 30.8 L255.1 36.7 Q281.65 42.15 283.35 40.7 L288.9 36.1 Q292.1 32.85 292.1 30.15 292.1 20.5 289.25 19.7 287.7 19.35 280.75 16.9 L274.05 14.55 273.8 13.15 Q272.8 15.2 270.6 17.9 267.0 22.3 264.65 23.2 262.85 23.95 258.1 22.3 252.4 19.95 250.1 19.2" fill="#a7afb1" fill-rule="evenodd" stroke="none"/>
      <path d="M217.5 29.1 L217.65 30.15 Q220.85 42.4 231.8 50.4 253.05 65.7 297.25 59.55 L299.7 68.05 Q279.5 69.05 258.85 66.1 217.5 60.3 215.2 41.1 L176.0 37.5 Q166.35 46.15 155.9 54.65 135.15 71.75 132.05 71.75 L-15.95 74.2 -15.95 57.1 128.35 58.25 160.15 32.6 156.55 13.0 159.65 13.0 161.45 14.15 171.1 13.0 173.55 6.85 216.45 9.3 216.6 14.3 215.55 24.35 Q215.05 26.15 217.5 29.1 M-0.1 110.8 L15.6 112.25 37.75 114.55 Q43.15 115.3 167.1 114.4 L289.9 113.25 293.5 120.6 35.3 124.35 Q4.75 113.25 -0.1 110.8 M150.35 6.85 L156.05 10.7 156.55 13.0 -2.55 14.15 7.2 8.1 150.35 6.85 M251.9 103.45 Q248.15 102.05 244.7 98.3 L242.1 94.95 248.3 91.25 247.65 93.95 Q247.65 96.65 250.75 97.4 L255.65 98.55 260.0 98.3 Q264.0 98.45 261.7 99.85 259.0 102.7 257.7 103.45 255.65 105.0 251.9 103.45 M46.4 101.0 Q51.3 101.0 54.1 103.1 56.95 105.15 52.45 105.9 L42.55 106.55 Q37.0 106.15 35.3 103.45 33.9 101.3 35.05 95.5 L36.6 90.05 39.2 95.6 Q42.55 101.0 46.4 101.0" fill="#969fa5" fill-rule="evenodd" stroke="none"/>
      <path d="M236.7 44.45 Q240.45 48.85 246.6 49.5 L281.65 52.95 298.55 52.45 Q302.65 55.4 300.85 55.9 L294.8 57.35 288.65 58.25 262.6 56.55 Q237.45 54.25 234.9 51.3 231.65 47.65 230.4 45.35 228.95 42.9 228.95 40.7 228.95 38.9 231.65 39.3 232.95 39.55 234.25 40.2 L236.7 44.45 M-239.9 44.85 L-238.75 36.2 -100.5 38.65 -99.2 46.0 -239.9 44.85 M-89.4 31.3 L-88.25 42.4 -100.5 38.65 -99.2 32.6 -89.4 31.3 M-33.1 42.4 L-41.75 41.1 Q-42.25 36.2 -42.9 31.3 L-29.5 31.3 -15.95 31.3 -18.4 44.85 -24.6 42.4 -29.5 31.3 -33.1 42.4" fill="#f7faf7" fill-rule="evenodd" stroke="none"/>
      <path d="M140.6 -9.0 L127.7 -2.95 108.75 5.65 62.25 4.4 63.55 -29.9 Q102.7 -30.4 141.85 -31.05 L140.6 -9.0" fill="#829db6" fill-rule="evenodd" stroke="none"/>
      <path d="M62.25 4.4 L7.2 8.1 -12.35 11.75 -19.7 4.4 -14.8 -6.55 -9.9 -62.9 Q18.7 -98.45 43.15 -80.25 51.3 -74.35 57.35 -63.5 62.25 -54.9 62.25 -51.9 L62.25 4.4 61.1 -6.55 56.2 -6.55 48.85 -2.95 62.25 4.4" fill="#7892ab" fill-rule="evenodd" stroke="none"/>
      <path d="M-80.5 5.15 L-37.1 7.35 Q-46.5 11.1 -43.8 49.75 -42.9 62.75 -40.95 75.4 L-40.45 80.0 -39.4 86.35 -39.15 87.9 -77.45 86.35 -81.7 86.2 Q-88.9 72.95 -86.6 37.6 -85.95 26.55 -84.4 14.7 L-82.95 5.8 -82.95 4.9 -80.5 5.15" fill="#485152" fill-rule="evenodd" stroke="none"/>
      <path d="M-15.95 74.2 L-15.95 86.35 -24.6 87.6 -24.5 86.35 -23.3 75.4 -15.95 74.2 M-40.95 75.4 L-29.5 75.4 -25.1 86.35 -24.6 87.6 -35.55 88.8 -36.95 86.35 -40.45 80.0 -40.95 75.4" fill="#969999" fill-rule="evenodd" stroke="none"/>
      <path d="M873.1 111.05 L871.15 109.4 867.65 109.9 871.15 114.95 Q876.15 115.45 875.65 113.9 875.4 113.0 873.1 111.05 Z" fill="none" stroke="#000000" stroke-linecap="butt" stroke-linejoin="miter" stroke-width="1.0"/>
    </g>
    <g id="shape2" transform="matrix(1.0, 0.0, 0.0, 1.0, -76.55, -77.55)">
      <path d="M98.5 78.25 L99.75 79.9 99.25 82.1 97.65 82.0 97.0 80.6 98.5 78.25 M78.35 82.0 L97.85 83.1 93.75 87.05 76.55 86.1 76.85 82.5 78.35 82.0 M93.1 88.0 L102.25 89.05 100.15 92.6 99.45 92.55 99.1 92.55 99.25 92.2 99.3 91.7 Q99.3 90.65 98.2 90.1 L96.35 89.75 94.6 89.95 Q93.8 90.3 93.8 91.2 L93.95 92.15 93.95 92.25 93.9 92.25 93.2 92.2 93.1 88.0" fill="#262e37" fill-rule="evenodd" stroke="none"/>
      <path d="M97.65 82.0 L99.25 82.1 99.75 79.9 98.5 78.25 98.0 77.55 103.5 80.7 103.5 83.3 103.6 83.45 104.5 84.05 102.85 88.75 102.25 89.05 93.1 88.0 93.1 87.75 93.75 87.05 97.85 83.1 78.35 82.0 80.9 81.15 97.65 82.0 M93.95 92.15 L93.8 91.2 Q93.8 90.3 94.6 89.95 L96.35 89.75 98.2 90.1 Q99.3 90.65 99.3 91.7 L99.25 92.2 Q98.5 91.1 96.15 91.1 94.75 91.1 94.2 91.75 L93.95 92.15" fill="#647491" fill-rule="evenodd" stroke="none"/>
      <path d="M93.95 92.15 L94.2 91.75 Q94.75 91.1 96.15 91.1 98.5 91.1 99.25 92.2 L99.1 92.55 99.45 92.55 99.6 93.55 Q99.6 94.45 98.3 95.15 97.2 95.75 96.15 95.75 94.9 95.75 94.1 95.0 L93.25 94.15 93.9 92.25 93.95 92.25 93.95 92.15 M95.2 94.25 L95.5 94.3 95.05 93.95 95.2 94.25" fill="#181d23" fill-rule="evenodd" stroke="none"/>
    </g>
    <g id="shape3" transform="matrix(1.0, 0.0, 0.0, 1.0, 12.35, 14.0)">
      <path d="M1.3 -9.0 L-7.35 19.2 -5.5 52.3" fill="none" stroke="#000000" stroke-linecap="round" stroke-linejoin="round" stroke-width="10.0"/>
    </g>
    <g id="sprite1" transform="matrix(1.0, 0.0, 0.0, 1.0, -2.8, -6.75)">
      <use height="27.55" transform="matrix(1.0, 0.0, 0.0, 1.0, 2.8, 6.75)" width="27.5" xlink:href="#shape4"/>
    </g>
    <g id="shape4" transform="matrix(1.0, 0.0, 0.0, 1.0, -2.8, -6.75)">
      <path d="M28.05 13.0 Q31.15 17.75 30.0 23.3 29.2 26.2 27.95 28.35 26.45 30.5 24.1 32.0 19.35 35.15 13.8 34.0 L13.75 34.0 Q8.15 32.8 5.05 28.05 1.95 23.3 3.1 17.7 4.25 12.15 9.05 9.0 13.8 5.9 19.35 7.1 24.9 8.25 28.05 13.0" fill="#000000" fill-rule="evenodd" stroke="none"/>
    </g>
    <g id="sprite2" transform="matrix(1.0, 0.0, 0.0, 1.0, 148.15, 15.55)">
      <use height="29.05" transform="matrix(0.6892, -0.1847, 0.1847, 0.6892, -0.0091, 9.9285)" width="53.6" xlink:href="#sprite3"/>
    </g>
    <g id="sprite3" transform="matrix(1.0, 0.0, 0.0, 1.0, 3.35, -7.85)">
      <use height="29.05" transform="matrix(1.0, 0.0, 0.0, 1.0, -3.35, 7.85)" width="53.6" xlink:href="#shape5"/>
    </g>
    <g id="shape5" transform="matrix(1.0, 0.0, 0.0, 1.0, 3.35, -7.85)">
      <path d="M47.35 28.9 L47.7 29.15 48.6 28.2 Q49.1 27.45 48.6 26.5 49.85 26.2 49.0 25.15 48.15 24.2 47.5 24.55 L46.9 25.25 46.6 25.75 43.35 26.05 Q40.05 26.45 39.4 26.8 L38.9 27.1 38.95 27.35 Q38.4 27.2 37.8 27.35 L36.05 27.6 35.1 27.7 34.55 28.95 Q34.0 30.3 33.45 30.7 L31.2 32.4 Q28.7 33.85 24.7 33.5 L20.7 33.1 20.45 33.25 20.55 33.5 Q24.65 34.85 26.5 34.25 L29.35 33.7 Q30.6 33.5 31.55 32.95 L34.0 31.3 34.95 29.65 35.55 28.5 Q37.65 27.3 38.5 28.05 L41.25 30.5 42.45 30.6 43.0 30.2 Q43.25 29.9 42.75 29.35 L42.7 29.3 42.5 29.4 42.3 29.75 42.1 30.05 Q41.7 30.3 40.65 28.7 40.05 27.7 39.3 27.45 L42.15 27.3 Q45.35 27.0 47.1 26.3 L47.7 26.85 Q48.1 27.6 47.8 28.0 L47.2 28.6 47.35 28.9 M42.55 21.6 L47.45 23.05 47.8 23.25 48.3 23.3 Q49.25 23.55 49.7 24.4 50.7 25.4 49.9 26.45 L49.75 27.2 49.35 28.0 49.75 29.05 48.95 29.5 Q48.6 29.8 48.9 30.95 49.4 32.7 48.55 33.4 48.1 33.8 46.65 33.95 46.75 34.95 45.85 35.5 L45.0 35.65 44.15 34.75 43.2 33.55 Q42.3 34.05 42.0 33.85 L40.05 33.95 Q39.65 34.15 37.85 31.6 L36.75 32.05 Q36.25 32.35 35.5 33.4 L34.3 34.75 33.6 34.9 32.85 35.0 Q32.55 35.15 32.4 35.6 L31.9 36.15 31.2 36.4 29.95 36.15 29.85 36.2 Q28.85 36.8 27.25 36.9 25.5 37.0 24.8 36.05 L23.7 36.3 22.25 36.65 21.95 36.65 20.35 36.45 20.2 36.45 18.0 35.95 17.85 35.9 17.5 36.1 16.0 36.8 Q15.4 36.75 14.5 35.2 L14.3 35.0 13.0 34.35 Q11.5 33.45 10.55 31.8 L10.1 30.65 9.4 28.75 11.85 26.95 Q12.45 26.55 12.85 26.55 L12.9 26.55 13.3 26.4 13.45 26.4 14.2 26.65 14.25 26.65 14.5 26.75 14.6 26.8 16.05 27.35 16.45 27.5 17.5 27.65 17.9 27.7 18.15 27.55 18.25 27.7 18.5 27.7 18.75 27.65 19.1 27.6 19.45 27.5 21.25 27.25 Q21.8 27.25 22.9 26.65 23.85 26.1 24.75 26.3 L24.95 26.35 Q24.75 26.7 24.8 27.6 L25.2 27.7 25.45 26.95 25.55 26.5 26.55 26.5 27.3 25.8 27.85 25.9 28.3 25.6 29.05 25.25 29.2 24.9 29.3 24.8 29.7 24.55 30.25 24.25 31.0 24.4 30.75 24.55 32.1 24.05 32.35 23.9 34.3 22.85 34.45 22.75 34.75 22.55 34.85 22.6 35.65 22.4 35.75 22.4 35.8 22.2 Q36.45 21.85 36.85 21.85 L37.8 22.0 37.95 22.1 38.1 22.35 41.15 22.25 41.2 22.05 41.2 21.7 41.45 21.45 41.8 21.45 42.55 21.6 M8.65 15.25 L8.3 15.1 8.35 14.8 8.05 14.8 8.1 14.7 8.2 14.6 7.9 13.95 7.85 14.3 7.7 14.75 7.5 14.75 6.65 15.8 6.65 15.85 6.8 16.55 6.6 16.9 6.55 17.0 6.5 16.95 6.15 17.1 6.05 17.15 6.05 17.1 5.5 17.4 5.4 17.5 5.75 18.05 5.65 18.15 5.25 18.45 5.3 18.5 5.3 18.55 4.25 19.5 4.4 19.65 4.65 19.9 4.45 20.25 3.65 21.15 3.7 21.1 4.05 21.35 4.3 21.55 5.05 22.6 4.8 22.85 4.15 23.3 4.05 23.35 4.1 23.4 3.65 24.05 3.0 24.5 2.85 24.6 2.15 24.9 2.1 24.95 1.75 25.0 1.65 24.85 1.2 24.55 1.2 23.6 0.75 23.25 0.5 22.95 -0.05 21.9 1.15 20.85 1.6 20.65 2.25 20.65 2.55 20.1 2.7 20.0 2.55 19.55 1.85 19.65 1.4 20.05 1.5 20.4 0.65 20.2 Q0.15 18.9 0.5 18.4 L1.2 17.75 1.1 17.5 0.0 18.1 -0.4 18.35 -0.35 19.4 Q-0.35 20.3 -0.5 20.8 L-0.8 21.15 -0.9 21.2 -0.05 23.75 -0.15 23.8 -0.6 24.05 -1.2 24.3 Q-2.45 22.6 -2.1 20.0 L-2.1 19.7 -2.45 18.2 -2.2 17.6 -2.3 17.5 Q-3.0 16.45 -2.55 15.7 -2.2 14.95 -2.45 14.45 -2.65 14.15 -2.9 14.2 L-3.35 14.25 Q-3.05 13.6 -2.15 13.05 -1.7 12.8 -1.65 12.3 -1.6 11.7 -1.35 11.45 L-0.85 10.9 Q-0.95 10.2 -0.25 9.4 L1.05 8.2 3.05 8.0 Q4.45 8.65 6.35 8.65 8.7 8.4 8.8 10.7 L8.8 10.9 9.3 11.55 10.8 11.7 11.05 14.2 Q10.9 14.8 10.15 15.25 L9.3 15.4 8.65 15.25 M31.8 27.4 L32.35 28.1 33.1 27.65 Q33.4 27.05 32.8 26.5 32.3 25.95 32.0 26.1 31.3 26.5 31.8 27.4 M31.7 30.4 L31.6 30.3 31.55 30.35 31.6 30.45 31.7 30.4 M30.35 27.7 L30.5 27.65 30.45 27.65 30.1 27.85 30.35 27.7 M28.6 28.8 L28.3 28.9 27.75 29.55 Q27.45 30.0 26.4 30.15 26.2 30.45 26.35 30.7 L26.65 31.05 29.1 29.65 28.75 28.8 28.6 28.8 M26.7 31.4 Q25.7 30.0 24.5 30.1 24.1 30.05 22.85 30.65 L21.35 31.3 19.5 32.55 19.6 32.95 20.8 32.85 21.7 31.85 Q22.75 31.25 23.75 30.9 25.55 30.4 26.05 31.25 26.4 31.9 26.35 32.5 L26.3 33.2 Q26.5 33.55 26.9 33.3 27.75 32.8 26.7 31.4 M2.75 10.6 L3.55 10.25 3.85 9.35 2.45 9.5 1.55 9.95 Q0.65 10.45 0.3 10.8 L0.45 11.1 2.75 10.6 M5.0 10.4 L5.05 10.3 4.95 10.45 5.0 10.4 M2.6 13.05 L2.1 13.4 Q1.8 14.05 2.75 15.65 L3.0 15.9 Q3.2 15.7 3.45 15.6 L3.95 15.2 3.15 13.25 3.35 12.9 3.3 12.75 2.6 13.05 M6.3 14.85 L5.6 15.05 5.0 15.8 4.35 16.9 4.45 17.05 5.35 16.7 6.15 16.15 Q6.6 15.65 6.3 14.85 M2.25 18.8 L2.65 18.5 3.2 18.15 1.85 15.25 0.8 15.65 Q0.55 16.1 2.0 18.6 L2.25 18.8 M6.4 12.15 L6.0 12.5 6.55 13.45 6.7 13.6 7.2 13.4 Q7.75 13.1 7.55 12.35 7.3 11.6 6.4 12.15 M5.2 12.75 L6.3 11.95 Q5.55 11.9 4.75 12.35 3.55 13.05 3.6 13.55 L4.0 13.75 5.2 12.75 M-1.25 15.5 L-0.9 15.6 Q-0.2 15.5 -0.15 14.8 L-0.25 14.05 -0.3 14.0 -0.75 14.2 Q-1.15 14.45 -1.25 15.5 M17.95 34.7 Q18.6 34.3 18.55 32.65 18.6 31.2 18.15 30.2 L17.65 30.05 17.9 32.5 Q17.95 33.8 17.45 34.1 17.0 34.35 16.0 33.85 14.85 33.25 14.1 32.2 L14.8 32.0 Q15.75 31.45 15.2 30.55 14.6 29.5 13.8 29.95 13.45 30.15 13.35 31.1 13.15 32.05 13.4 32.5 14.5 34.35 16.25 34.75 L17.95 34.7 M20.95 29.35 Q20.85 29.25 20.4 29.1 L20.1 29.35 20.2 29.6 20.9 29.85 20.95 29.35" fill="#ffffff" fill-rule="evenodd" stroke="none"/>
      <path d="M47.35 28.9 L47.2 28.6 47.8 28.0 Q48.1 27.6 47.7 26.85 L47.1 26.3 Q45.35 27.0 42.15 27.3 L39.3 27.45 Q40.05 27.7 40.65 28.7 41.7 30.3 42.1 30.05 L42.3 29.75 42.5 29.4 42.7 29.3 42.75 29.35 Q43.25 29.9 43.0 30.2 L42.45 30.6 41.25 30.5 38.5 28.05 Q37.65 27.3 35.55 28.5 L34.95 29.65 34.0 31.3 31.55 32.95 Q30.6 33.5 29.35 33.7 L26.5 34.25 Q24.65 34.85 20.55 33.5 L20.45 33.25 20.7 33.1 24.7 33.5 Q28.7 33.85 31.2 32.4 L33.45 30.7 Q34.0 30.3 34.55 28.95 L35.1 27.7 36.05 27.6 37.8 27.35 Q38.4 27.2 38.95 27.35 L38.9 27.1 39.4 26.8 Q40.05 26.45 43.35 26.05 L46.6 25.75 46.9 25.25 47.5 24.55 Q48.15 24.2 49.0 25.15 49.85 26.2 48.6 26.5 49.1 27.45 48.6 28.2 L47.7 29.15 47.35 28.9 M25.55 26.5 L25.45 26.95 25.2 27.7 24.8 27.6 Q24.75 26.7 24.95 26.35 L25.1 26.2 25.15 26.2 25.4 26.15 25.55 26.25 25.6 26.25 25.55 26.5 M31.8 27.4 Q31.3 26.5 32.0 26.1 32.3 25.95 32.8 26.5 33.4 27.05 33.1 27.65 L32.35 28.1 31.8 27.4 M26.7 31.4 Q27.75 32.8 26.9 33.3 26.5 33.55 26.3 33.2 L26.35 32.5 Q26.4 31.9 26.05 31.25 25.55 30.4 23.75 30.9 22.75 31.25 21.7 31.85 L20.8 32.85 19.6 32.95 19.5 32.55 21.35 31.3 22.85 30.65 Q24.1 30.05 24.5 30.1 25.7 30.0 26.7 31.4 M28.6 28.8 L28.75 28.8 29.1 29.65 26.65 31.05 26.35 30.7 Q26.2 30.45 26.4 30.15 27.45 30.0 27.75 29.55 L28.3 28.9 28.6 28.8 M20.95 29.35 L20.9 29.85 20.2 29.6 20.1 29.35 20.4 29.1 Q20.85 29.25 20.95 29.35 M17.95 34.7 L16.25 34.75 Q14.5 34.35 13.4 32.5 13.15 32.05 13.35 31.1 13.45 30.15 13.8 29.95 14.6 29.5 15.2 30.55 15.75 31.45 14.8 32.0 L14.1 32.2 Q14.85 33.25 16.0 33.85 17.0 34.35 17.45 34.1 17.95 33.8 17.9 32.5 L17.65 30.05 18.15 30.2 Q18.6 31.2 18.55 32.65 18.6 34.3 17.95 34.7" fill="#cccccc" fill-rule="evenodd" stroke="none"/>
      <path d="M42.55 21.6 L41.8 21.45 42.2 21.3 42.35 21.2 42.55 21.6 M41.45 21.45 L41.2 21.7 41.35 21.45 41.45 21.45 M37.8 22.0 L36.85 21.85 Q36.45 21.85 35.8 22.2 L36.1 21.8 Q37.0 21.3 37.8 22.0 M34.75 22.55 L34.45 22.75 33.05 23.15 32.45 23.7 32.35 23.9 32.1 24.05 32.05 23.95 32.0 23.95 31.75 23.7 31.25 23.65 31.2 23.9 30.65 23.65 Q30.35 23.05 29.85 23.2 L29.45 23.35 29.35 23.35 29.3 23.45 28.9 23.65 28.3 23.95 Q27.95 24.3 28.25 24.8 L28.0 24.8 28.05 24.7 Q28.05 24.3 27.4 24.7 L27.15 24.9 27.0 24.9 26.35 25.3 26.35 25.5 26.15 25.6 25.55 26.25 25.4 26.15 25.15 26.2 25.1 26.2 Q24.65 25.85 24.2 25.85 24.0 25.85 23.15 26.35 L23.1 26.4 22.6 26.65 22.5 26.7 21.7 26.5 Q21.5 26.5 20.75 26.95 L20.45 27.1 Q19.8 26.55 19.5 26.5 19.25 26.45 18.75 26.75 L18.35 26.95 18.35 27.05 Q18.0 26.7 17.65 26.85 L16.85 27.25 16.45 27.5 16.05 27.35 Q15.55 26.6 15.0 26.65 L14.6 26.8 14.5 26.75 14.25 26.65 14.2 26.6 14.4 26.5 Q12.9 24.85 15.25 23.35 17.65 22.2 18.6 21.5 L21.0 21.1 21.25 20.9 Q17.7 20.35 14.65 22.15 13.25 22.95 12.85 23.65 L9.35 24.05 Q6.8 24.1 6.25 23.1 L5.9 22.45 5.55 21.35 5.4 21.05 5.5 21.1 6.1 20.8 5.5 19.45 5.5 19.4 6.0 19.55 6.5 19.3 7.1 18.8 7.2 17.6 7.15 17.6 7.85 17.1 7.55 16.15 7.55 16.0 7.7 15.9 8.15 15.6 8.3 15.1 8.65 15.25 12.05 15.35 Q13.05 14.9 15.35 14.65 L19.05 14.05 22.6 13.65 30.1 13.0 Q34.0 13.3 37.85 17.0 38.95 17.4 40.65 19.15 L41.9 20.55 41.55 20.5 41.0 20.8 40.4 21.1 Q40.1 21.5 40.3 22.0 L40.25 22.0 39.4 22.15 39.05 22.35 38.4 21.4 Q37.35 20.25 35.8 21.15 L35.1 21.85 34.75 22.55 M19.1 27.6 L18.75 27.65 18.5 27.7 18.25 27.7 18.15 27.55 18.25 27.5 18.35 27.45 19.1 27.6 M6.55 17.0 L6.6 16.9 6.8 16.55 6.7 17.1 6.7 17.15 6.6 17.15 6.55 17.0 M7.7 14.75 L7.85 14.3 8.1 14.7 8.05 14.8 7.85 14.7 7.7 14.75 M5.9 18.7 L6.2 18.85 6.4 19.1 5.9 18.7 M5.25 18.75 L5.3 18.55 5.3 18.5 5.4 18.5 5.25 18.75 M5.2 19.2 L5.25 19.05 5.3 19.15 5.2 19.2" fill="#a90101" fill-rule="evenodd" stroke="none"/>
      <path d="M41.8 21.45 L41.45 21.45 41.35 21.45 41.2 21.7 41.2 22.05 41.15 22.25 38.1 22.35 37.95 22.1 37.8 22.0 Q37.0 21.3 36.1 21.8 L35.8 22.2 35.75 22.4 35.65 22.4 35.65 22.25 34.95 22.45 34.85 22.6 34.75 22.55 35.1 21.85 35.8 21.15 Q37.35 20.25 38.4 21.4 L39.05 22.35 39.4 22.15 40.25 22.0 40.3 22.0 Q40.1 21.5 40.4 21.1 L41.0 20.8 41.55 20.5 41.9 20.55 42.45 21.05 42.35 21.2 42.2 21.3 41.8 21.45 M34.45 22.75 L34.3 22.85 32.35 23.9 32.45 23.7 33.05 23.15 34.45 22.75 M31.0 24.4 L30.25 24.25 29.7 24.55 29.3 24.8 29.2 24.9 29.05 25.25 28.3 25.6 27.85 25.9 27.3 25.8 26.55 26.5 25.55 26.5 25.6 26.25 25.55 26.25 26.15 25.6 26.35 25.5 26.35 25.3 27.0 24.9 27.15 24.9 27.4 24.7 Q28.05 24.3 28.05 24.7 L28.0 24.8 28.25 24.8 Q27.95 24.3 28.3 23.95 L28.9 23.65 29.3 23.45 29.35 23.35 29.45 23.35 29.85 23.2 Q30.35 23.05 30.65 23.65 L31.2 23.9 31.25 23.65 31.75 23.7 32.0 23.95 31.1 24.35 31.0 24.4 M24.95 26.35 L24.75 26.3 Q23.85 26.1 22.9 26.65 21.8 27.25 21.25 27.25 L19.45 27.5 19.1 27.6 18.35 27.45 18.25 27.5 18.15 27.55 17.9 27.7 17.5 27.65 16.45 27.5 16.85 27.25 17.65 26.85 Q18.0 26.7 18.35 27.05 L18.35 26.95 18.75 26.75 Q19.25 26.45 19.5 26.5 19.8 26.55 20.45 27.1 L20.75 26.95 Q21.5 26.5 21.7 26.5 L22.5 26.7 22.6 26.65 23.1 26.4 23.15 26.35 Q24.0 25.85 24.2 25.85 24.65 25.85 25.1 26.2 L24.95 26.35 M16.05 27.35 L14.6 26.8 15.0 26.65 Q15.55 26.6 16.05 27.35 M14.25 26.65 L14.2 26.65 13.95 26.15 13.5 26.4 13.45 26.4 13.3 26.4 Q12.55 24.65 13.05 23.75 L12.85 23.65 Q13.25 22.95 14.65 22.15 17.7 20.35 21.25 20.9 L21.0 21.1 18.6 21.5 Q17.65 22.2 15.25 23.35 12.9 24.85 14.4 26.5 L14.2 26.6 14.25 26.65 M8.3 15.1 L8.15 15.6 7.7 15.9 7.55 16.0 7.55 16.15 7.85 17.1 7.15 17.6 7.2 17.6 7.1 18.8 6.5 19.3 6.0 19.55 5.5 19.4 5.5 19.45 6.1 20.8 5.5 21.1 5.4 21.05 5.25 20.75 Q4.9 20.15 4.9 19.75 L4.95 19.35 5.2 19.2 5.3 19.15 5.25 19.05 5.25 18.75 5.4 18.5 5.3 18.5 5.25 18.45 5.65 18.15 5.75 18.05 5.4 17.5 5.5 17.4 6.05 17.1 6.05 17.15 6.15 17.1 6.5 16.95 6.55 17.0 6.6 17.15 6.7 17.15 6.7 17.1 6.8 16.55 6.65 15.85 6.65 15.8 7.5 14.75 7.7 14.75 7.85 14.7 8.05 14.8 8.35 14.8 8.3 15.1 M5.9 18.7 L6.4 19.1 6.2 18.85 5.9 18.7" fill="#6d0101" fill-rule="evenodd" stroke="none"/>
      <path d="M35.65 22.4 L34.85 22.6 34.95 22.45 35.65 22.25 35.65 22.4 M32.1 24.05 L30.75 24.55 31.0 24.4 31.1 24.35 32.0 23.95 32.05 23.95 32.1 24.05 M14.2 26.65 L13.45 26.4 13.5 26.4 13.95 26.15 14.2 26.65 M20.35 36.45 L21.95 36.65 21.35 36.8 20.35 36.45 M5.55 21.35 L5.9 22.45 5.75 22.95 4.8 23.7 3.65 24.05 4.1 23.4 4.6 23.35 4.8 23.05 4.8 22.85 5.05 22.6 4.3 21.55 4.7 21.25 5.3 21.0 5.55 21.35 M30.35 27.7 L30.1 27.85 30.45 27.65 30.5 27.65 30.35 27.7 M31.7 30.4 L31.6 30.45 31.55 30.35 31.6 30.3 31.7 30.4 M4.45 20.25 L4.2 20.75 3.9 21.0 Q4.7 20.55 5.1 20.65 L4.05 21.35 3.7 21.1 3.65 21.15 4.45 20.25 M2.75 10.6 L0.45 11.1 0.3 10.8 Q0.65 10.45 1.55 9.95 L2.45 9.5 3.85 9.35 3.55 10.25 2.75 10.6 M2.6 13.05 L3.3 12.75 3.35 12.9 3.15 13.25 3.95 15.2 3.45 15.6 Q3.2 15.7 3.0 15.9 L2.75 15.65 Q1.8 14.05 2.1 13.4 L2.6 13.05 M6.3 14.85 Q6.6 15.65 6.15 16.15 L5.35 16.7 4.45 17.05 4.35 16.9 5.0 15.8 5.6 15.05 6.3 14.85 M5.2 12.75 L4.0 13.75 3.6 13.55 Q3.55 13.05 4.75 12.35 5.55 11.9 6.3 11.95 L5.2 12.75 M6.4 12.15 Q7.3 11.6 7.55 12.35 7.75 13.1 7.2 13.4 L6.7 13.6 6.55 13.45 6.0 12.5 6.4 12.15 M2.25 18.8 L2.0 18.6 Q0.55 16.1 0.8 15.65 L1.85 15.25 3.2 18.15 2.65 18.5 2.25 18.8 M-0.5 20.8 Q-0.35 20.3 -0.35 19.4 L-0.4 18.35 0.0 18.1 1.1 17.5 1.2 17.75 0.5 18.4 Q0.15 18.9 0.65 20.2 L0.8 20.5 0.45 20.8 0.5 20.8 -0.4 21.5 0.4 22.95 0.5 22.95 0.75 23.25 0.4 23.45 -0.15 23.8 -0.05 23.75 -0.9 21.2 -0.8 21.15 -0.65 21.1 -0.4 20.95 -0.5 20.8 M1.5 20.4 L1.4 20.05 1.85 19.65 2.55 19.55 2.7 20.0 2.55 20.1 2.25 20.65 1.6 20.65 1.55 20.65 1.5 20.4 M-1.25 15.5 Q-1.15 14.45 -0.75 14.2 L-0.3 14.0 -0.25 14.05 -0.15 14.8 Q-0.2 15.5 -0.9 15.6 L-1.25 15.5" fill="#d0d0d0" fill-rule="evenodd" stroke="none"/>
    </g>
  </defs>
</svg>
