<?xml version="1.0" encoding="UTF-8" standalone="no"?>
<svg xmlns:xlink="http://www.w3.org/1999/xlink" height="3232.15px" width="2417.1px" xmlns="http://www.w3.org/2000/svg">
  <g transform="matrix(1.0, 0.0, 0.0, 1.0, 987.65, 1503.95)">
    <use height="73.85" transform="matrix(1.0, 0.0, 0.0, 1.0, -88.5, -39.05)" width="178.55" xlink:href="#shape0"/>
  </g>
  <defs>
    <g id="shape0" transform="matrix(1.0, 0.0, 0.0, 1.0, 88.5, 39.05)">
      <path d="M5.5 -9.2 Q6.25 -8.85 8.85 -9.15 L9.15 -9.8 9.65 -10.2 10.75 -10.15 11.45 -9.5 11.45 -8.5 14.0 -7.25 14.15 -6.9 23.9 -6.3 24.15 -6.5 26.85 -5.75 26.8 -5.15 15.75 -5.55 90.05 11.3 89.9 11.45 89.9 11.75 89.8 11.9 89.6 12.05 13.8 -5.15 13.45 -4.45 12.55 -4.55 11.3 1.6 11.5 1.6 12.65 1.95 12.75 2.05 13.2 2.2 14.9 -4.75 13.45 2.25 14.15 2.55 14.25 2.55 15.1 2.8 15.2 2.9 15.9 3.0 22.85 6.15 25.5 7.85 30.25 12.35 31.35 13.15 37.6 15.35 39.35 16.8 42.5 24.2 43.65 24.7 46.25 26.65 47.05 27.55 48.4 29.5 48.55 30.7 48.5 30.95 47.65 32.9 47.1 33.1 47.05 33.2 44.25 34.25 40.9 34.8 33.2 34.6 32.95 34.55 32.6 34.6 28.8 34.4 28.65 34.5 26.1 34.45 23.1 33.3 21.9 33.2 7.15 29.3 7.05 29.3 -5.55 26.2 -6.15 25.8 -27.0 20.25 -32.65 17.9 -59.95 9.1 -67.75 6.05 -69.85 4.1 -72.05 1.1 -72.4 0.45 -73.35 -0.8 -73.5 -0.95 -73.75 -1.85 -77.7 -2.0 -77.85 -1.9 -81.1 -2.05 -82.0 -1.9 -83.85 -2.3 -87.9 -4.4 -87.7 -4.7 -87.35 -5.0 -86.05 -4.9 -85.85 -5.0 -85.6 -5.0 -82.55 -5.3 -78.5 -4.9 -78.8 -5.1 -77.55 -5.2 -74.95 -4.95 -80.05 -19.75 -80.15 -19.9 -80.25 -20.1 -80.3 -20.25 -80.35 -20.5 -80.45 -20.65 -80.45 -20.8 -80.55 -21.0 -82.4 -25.55 -88.3 -26.75 -88.5 -29.0 -88.05 -29.4 -87.6 -29.35 -78.65 -27.25 -78.4 -28.25 -77.65 -29.1 -76.25 -29.5 Q-75.7 -30.1 -77.15 -32.55 L-77.95 -38.7 -77.35 -39.05 -75.15 -38.45 -74.25 -29.1 Q-71.35 -27.95 -70.9 -24.95 L-67.05 -24.85 -61.65 -23.6 -61.65 -23.15 2.25 -8.65 2.55 -8.5 3.25 -8.4 3.45 -8.4 3.9 -8.2 4.55 -8.05 4.75 -8.1 4.9 -7.95 5.5 -9.2 M4.65 -0.1 L6.0 -6.0 3.7 -6.25 2.55 -0.55 4.65 -0.1 M6.95 -5.45 L6.25 -5.9 5.0 0.05 5.8 0.1 6.95 -5.45 M3.4 -6.25 L-12.2 -7.0 Q-12.65 -6.2 -15.8 -7.6 L-15.7 -8.6 3.05 -7.6 -61.55 -22.25 -61.5 -21.2 -61.85 -21.1 -62.7 -21.05 -71.1 -23.05 -72.0 -22.0 -74.0 -21.5 -71.0 -14.7 -70.95 -14.55 -70.8 -14.45 -68.4 -10.25 -67.85 -9.5 -67.75 -9.3 -67.55 -9.05 -64.6 -4.6 -62.55 -4.4 -61.75 -4.0 -61.55 -3.95 -61.05 -3.65 -61.45 -3.35 -61.55 -3.25 -60.8 -2.85 -61.15 -2.2 -58.6 -1.65 -39.25 -0.1 -39.2 -0.15 -37.25 -0.05 -36.95 -0.1 -36.1 -0.05 -35.85 -0.1 -29.95 0.05 -21.85 -1.85 Q-22.15 -3.7 -19.45 -4.05 L-13.35 -3.45 -13.1 -3.9 -7.8 -3.5 -4.25 -2.85 -2.85 -2.15 -2.45 -1.75 2.2 -0.65 3.4 -6.25 M11.15 -4.6 L10.05 1.2 11.0 1.45 12.4 -4.55 11.15 -4.6 M35.0 19.8 L35.0 19.95 35.5 20.05 35.5 20.95 35.55 20.1 35.5 20.05 35.5 19.85 35.0 19.8 M1.25 8.0 L0.1 14.9 -1.35 20.65 2.15 24.35 7.0 25.45 10.35 12.7 4.75 8.8 1.25 8.0 M17.95 14.7 L18.55 14.85 18.9 14.9 17.95 14.65 17.95 14.7" fill="#010101" fill-opacity="0.0" fill-rule="evenodd" stroke="none"/>
    </g>
  </defs>
</svg>
