<?xml version="1.0" encoding="UTF-8" standalone="no"?>
<svg xmlns:xlink="http://www.w3.org/1999/xlink" height="3232.15px" width="2417.1px" xmlns="http://www.w3.org/2000/svg">
  <g transform="matrix(1.0, 0.0, 0.0, 1.0, 987.65, 1503.95)">
    <use height="1034.2" id="heli2" transform="matrix(-0.4451, 0.053, 0.053, 0.4451, 334.6493, -296.2624)" width="773.35" xlink:href="#sprite0"/>
  </g>
  <defs>
    <g id="sprite0" transform="matrix(1.0, 0.0, 0.0, 1.0, 365.9, 551.4)">
      <use height="92.15" transform="matrix(1.0, 0.0, 0.0, 1.0, -137.4, -75.4)" width="262.65" xlink:href="#shape0"/>
    </g>
    <g id="shape0" transform="matrix(1.0, 0.0, 0.0, 1.0, 137.4, 75.4)">
      <path d="M107.25 -74.75 L110.5 -75.4 111.35 -74.75 107.85 -74.4 107.25 -74.75" fill="#424242" fill-rule="evenodd" stroke="none"/>
      <path d="M125.25 -59.4 L124.6 -56.15 116.0 -55.25 116.1 -55.65 117.25 -57.5 116.85 -57.75 113.6 -57.9 125.25 -59.4 M-28.15 -39.5 L-44.15 -40.4 -44.15 -41.25 -25.9 -40.65 -25.75 -40.5 -25.65 -39.9 -27.25 -39.5 -27.9 -39.5 -28.15 -39.5 M85.75 -54.5 L85.85 -55.15 86.35 -54.5 94.35 -55.65 Q97.35 -54.4 100.25 -55.25 L100.25 -53.5 99.35 -53.15 87.0 -51.4 85.75 -51.5 85.35 -51.75 85.5 -53.25 86.0 -53.25 88.5 -53.65 88.35 -54.65 88.0 -54.65 87.35 -54.5 86.85 -54.5 86.35 -54.5 85.75 -54.5 M104.75 -61.4 L107.25 -74.75 107.85 -74.4 111.35 -74.75 109.35 -66.0 Q107.0 -62.65 107.6 -61.75 L107.35 -60.75 105.25 -60.5 105.1 -61.0 104.75 -61.4 M-16.9 -40.25 L12.6 -39.15 12.35 -38.65 12.35 -37.9 -10.25 -38.9 -10.65 -38.9 -14.0 -38.9 -15.65 -39.15 -19.0 -39.25 -19.65 -39.25 -19.75 -39.65 -19.5 -39.9 -19.5 -40.4 -18.65 -40.4 -17.25 -40.25 -16.9 -40.25 M6.5 -31.5 L7.25 -31.0 7.75 -29.9 6.85 -30.25 5.75 -30.15 5.75 -30.9 6.5 -31.5 M9.0 -21.9 L9.0 -20.65 8.6 -19.65 8.0 -19.25 7.5 -20.15 7.75 -20.9 8.5 -21.15 9.0 -21.9 M-1.75 -32.15 L-1.25 -31.75 -2.4 -31.65 -1.75 -32.15" fill="#000000" fill-rule="evenodd" stroke="none"/>
      <path d="M99.35 -55.9 Q100.35 -60.15 104.75 -61.4 L105.1 -61.0 105.25 -60.5 107.35 -60.75 107.6 -61.75 109.6 -61.0 110.6 -59.65 110.85 -58.15 111.0 -57.75 108.35 -57.4 107.0 -57.15 106.6 -56.5 107.1 -56.25 106.5 -54.4 106.6 -54.15 106.25 -53.9 105.75 -54.5 105.35 -54.4 103.35 -50.5 100.5 -51.5 99.35 -53.15 100.25 -53.5 100.25 -55.25 99.35 -55.9" fill="#171717" fill-rule="evenodd" stroke="none"/>
      <path d="M85.85 -55.15 L93.75 -56.25 Q97.1 -55.0 99.35 -55.9 L100.25 -55.25 Q97.35 -54.4 94.35 -55.65 L86.35 -54.5 85.85 -55.15" fill="#5d5d5d" fill-rule="evenodd" stroke="none"/>
      <path d="M-29.65 -39.25 L-28.15 -39.5 -27.9 -39.5 -29.65 -39.25 M-12.15 -41.5 L-11.9 -41.75 -11.65 -41.65 -12.15 -41.5 M-10.65 -41.75 L-10.0 -42.0 -9.75 -41.9 -10.65 -41.75 M-8.75 -42.0 L-8.25 -42.15 85.75 -54.5 86.35 -54.5 86.85 -54.5 -4.4 -42.5 -8.75 -42.0 M-27.25 -39.5 L-25.65 -39.9 -24.9 -39.9 -27.0 -39.5 -27.25 -39.5 M-53.4 -13.15 L-50.5 -13.15 -56.25 -12.25 -57.25 -12.5 -53.4 -13.15" fill="#212121" fill-rule="evenodd" stroke="none"/>
      <path d="M-80.25 8.35 L-79.9 6.6 -77.65 4.0 -76.9 4.35 -79.15 7.35 -80.25 8.35 M-76.4 2.85 L-72.4 0.35 -72.0 0.25 -70.65 -0.25 -70.0 0.1 -73.4 1.75 -74.75 2.75 -76.4 2.85 M86.85 -54.5 L87.35 -54.5 88.0 -54.65 88.35 -54.65 88.5 -53.65 86.0 -53.25 85.5 -53.25 -4.25 -41.5 -4.4 -42.5 86.85 -54.5" fill="#0c0c0c" fill-rule="evenodd" stroke="none"/>
      <path d="M-25.4 -38.65 L-136.9 -24.0 -137.15 -24.25 -137.25 -24.5 -137.25 -24.9 -137.4 -25.15 -33.65 -38.75 -30.2 -39.2 -29.65 -39.25 -27.9 -39.5 -27.25 -39.5 -27.0 -39.5 -24.9 -39.9 -22.75 -39.4 -22.65 -39.0 -23.5 -38.9 -24.0 -38.75 -24.65 -38.75 -25.4 -38.65 M-40.15 -42.0 L-39.75 -41.75 -40.5 -41.75 -40.15 -42.0 M-11.65 -41.65 L-10.65 -41.75 -9.75 -41.9 -8.75 -42.0 -4.4 -42.5 -4.25 -41.5 -9.5 -40.75 -12.25 -40.75 -12.15 -41.5 -11.65 -41.65" fill="#030303" fill-rule="evenodd" stroke="none"/>
      <path d="M110.85 -58.15 L124.0 -60.0 124.6 -60.0 125.25 -59.4 113.6 -57.9 111.0 -57.75 110.85 -58.15" fill="#434343" fill-rule="evenodd" stroke="none"/>
      <path d="M116.0 -55.25 L112.75 -48.9 112.6 -48.65 112.5 -48.4 112.35 -48.15 112.25 -47.9 112.1 -47.65 112.0 -47.4 111.85 -47.15 102.75 -27.25 102.5 -26.5 102.25 -26.4 99.35 -26.25 97.75 -25.75 96.35 -24.9 98.0 -24.75 97.1 -24.5 96.85 -23.65 99.0 -22.65 98.0 -22.5 98.85 -22.4 100.25 -22.4 100.35 -22.25 99.85 -20.9 99.6 -20.75 99.0 -20.0 98.1 -19.15 97.85 -18.65 90.85 -11.75 90.6 -11.65 89.85 -16.0 88.25 -21.0 87.0 -24.5 85.6 -24.65 95.75 -37.0 97.5 -40.25 97.85 -40.75 98.0 -40.9 98.1 -41.15 98.85 -42.25 103.35 -50.5 105.35 -54.4 105.75 -54.5 106.25 -53.9 106.6 -54.15 107.75 -52.5 108.85 -52.0 110.6 -52.0 Q113.0 -52.4 113.35 -54.75 L116.1 -55.65 115.35 -56.65 111.0 -57.75 113.6 -57.9 116.85 -57.75 117.25 -57.5 116.1 -55.65 116.0 -55.25 M107.1 -56.25 L106.6 -56.5 107.0 -57.15 108.35 -57.4 107.1 -56.25" fill="#393939" fill-rule="evenodd" stroke="none"/>
      <path d="M106.6 -54.15 L106.5 -54.4 107.1 -56.25 108.35 -57.4 111.0 -57.75 115.35 -56.65 116.1 -55.65 113.35 -54.75 Q113.0 -52.4 110.6 -52.0 L108.85 -52.0 107.75 -52.5 106.6 -54.15" fill="#2e2e2e" fill-rule="evenodd" stroke="none"/>
      <path d="M102.5 -26.5 L103.25 -26.5 107.0 -26.15 105.35 -26.15 102.25 -26.4 102.5 -26.5 M107.6 -26.0 L109.85 -26.0 114.35 -25.5 107.6 -26.0 M-19.65 6.35 L-12.5 5.35 -7.0 0.5 -6.0 4.6 -1.4 6.75 -19.15 9.6 -19.65 6.35" fill="#383838" fill-rule="evenodd" stroke="none"/>
      <path d="M98.0 -24.75 L96.35 -24.9 97.75 -25.75 99.35 -26.25 102.25 -26.4 105.35 -26.15 107.0 -26.15 107.6 -26.0 114.35 -25.5 115.0 -25.4 114.25 -25.25 Q111.1 -25.0 111.1 -24.0 L110.1 -24.0 98.0 -24.75" fill="#6c6c6c" fill-rule="evenodd" stroke="none"/>
      <path d="M107.6 -21.75 L106.35 -21.75 106.1 -21.9 100.35 -22.25 100.25 -22.4 99.0 -22.65 96.85 -23.65 97.1 -24.5 98.0 -24.75 110.1 -24.0 Q115.5 -23.4 110.6 -21.9 L107.6 -21.75" fill="#333333" fill-rule="evenodd" stroke="none"/>
      <path d="M111.0 -21.5 L107.6 -21.75 110.6 -21.9 111.0 -21.9 111.0 -21.5 M-70.65 -0.25 L-68.75 -3.5 -68.15 -1.0 -70.65 -0.25 M100.25 -22.4 L98.85 -22.4 98.0 -22.5 99.0 -22.65 100.25 -22.4" fill="#0b0b0b" fill-rule="evenodd" stroke="none"/>
      <path d="M-17.75 -43.75 L-12.9 -43.4 -12.15 -41.5 -12.25 -40.75 -15.25 -40.9 -16.25 -42.25 -16.5 -42.9 -17.65 -43.5 -19.0 -43.65 -17.75 -43.75 M83.35 -26.9 L84.6 -27.4 87.6 -27.4 87.35 -27.0 86.85 -26.5 85.85 -25.75 83.85 -26.0 83.0 -26.25 83.35 -26.9 M-15.9 -38.75 L-15.65 -39.15 -14.0 -38.9 -14.4 -38.75 -15.5 -38.25 -15.9 -38.75" fill="#505050" fill-rule="evenodd" stroke="none"/>
      <path d="M-21.5 -43.15 L-21.4 -44.65 Q-20.7 -44.9 -20.25 -45.5 L-18.65 -45.4 -18.0 -44.75 -17.75 -43.75 -19.0 -43.65 -20.25 -43.25 -21.4 -43.15 -21.5 -43.15" fill="#4b4b4b" fill-rule="evenodd" stroke="none"/>
      <path d="M-25.9 -28.0 L-27.0 -38.25 -25.5 -28.0 -25.9 -28.0 M-19.0 -43.65 L-17.65 -43.5 -16.5 -42.9 -16.25 -42.25 Q-19.15 -43.25 -19.5 -40.4 L-19.5 -39.9 -19.75 -39.65 -19.65 -39.25 -19.0 -39.25 -18.0 -38.4 -16.5 -38.5 -17.65 -37.75 -18.75 -37.75 -20.25 -38.4 -21.0 -39.9 Q-21.4 -41.0 -20.25 -43.25 L-19.0 -43.65" fill="#1c1c1c" fill-rule="evenodd" stroke="none"/>
      <path d="M-23.65 -37.65 L-24.9 -37.65 -24.65 -38.75 -24.0 -38.75 -23.65 -37.65 M-25.4 -41.75 L-21.5 -43.15 -21.4 -43.15 -20.25 -43.25 Q-21.4 -41.0 -21.0 -39.9 L-20.25 -38.4 -21.65 -37.5 -23.4 -37.65 -23.5 -38.9 -22.65 -39.0 -22.75 -39.4 -24.9 -39.9 -25.4 -41.75 M-16.9 -17.75 L-17.15 -18.0 -16.65 -18.0 -16.9 -17.75" fill="#111111" fill-rule="evenodd" stroke="none"/>
      <path d="M-44.15 -41.25 L-40.15 -42.0 -40.5 -41.75 -39.75 -41.75 -25.65 -41.25 -25.9 -40.65 -44.15 -41.25 M-16.75 -40.65 L-15.0 -40.65 -16.9 -40.25 -17.25 -40.25 -18.65 -40.4 -17.0 -40.65 -16.75 -40.65 M-20.25 -20.25 L-21.15 -20.25 -22.15 -21.15 -22.15 -22.15 -21.65 -22.75 -20.75 -23.0 -20.15 -21.4 -20.25 -20.25 M-69.15 3.35 Q-68.9 2.25 -63.75 1.1 L-63.65 -1.15 -60.15 -1.4 -60.0 -1.0 -59.65 3.25 -69.15 3.35" fill="#050505" fill-rule="evenodd" stroke="none"/>
      <path d="M97.85 -18.65 L97.5 -18.15 97.0 -17.65 96.75 -17.25 94.0 -14.15 90.85 -11.75 97.85 -18.65 M4.5 8.0 L-0.75 8.6 3.25 4.85 4.35 3.85 4.5 8.0 M-58.65 16.0 L-69.75 15.25 -74.5 14.0 -77.5 12.6 -78.5 9.6 -73.65 9.75 -73.5 11.85 -72.75 12.25 -64.15 14.5 -58.65 16.0" fill="#060606" fill-rule="evenodd" stroke="none"/>
      <path d="M-29.0 -27.25 L-28.5 -27.25 -25.75 -25.65 -24.75 -22.0 -23.9 -16.4 -24.4 -16.4 -29.5 -15.5 -41.4 -14.4 -47.9 -13.15 -50.5 -13.15 -53.4 -13.15 -54.25 -13.4 -43.0 -21.5 -38.75 -23.75 -29.0 -27.25 M17.6 -39.65 L17.25 -39.25 12.35 -38.65 12.6 -39.15 -16.9 -40.25 -15.0 -40.65 -16.75 -40.65 -15.25 -40.9 -12.25 -40.75 -9.5 -40.75 17.6 -39.65" fill="#2a2a2a" fill-rule="evenodd" stroke="none"/>
      <path d="M-53.15 -14.65 L-51.4 -15.65 -44.0 -21.5 -39.9 -23.65 -29.5 -27.15 -29.0 -27.25 -38.75 -23.75 -43.0 -21.5 -54.25 -13.4 -54.4 -13.65 -53.15 -14.65 M-15.25 -40.9 L-16.75 -40.65 -17.0 -40.65 -18.65 -40.4 -19.5 -40.4 Q-19.15 -43.25 -16.25 -42.25 L-15.25 -40.9 M-16.5 -38.5 L-18.0 -38.4 -19.0 -39.25 -15.65 -39.15 -15.9 -38.75 -16.5 -38.5 M-31.75 -11.0 L-29.4 -11.4 -27.65 -0.4 -30.15 0.0 -30.9 -4.65 -31.0 -4.65 -31.75 -11.0 M-35.4 -10.5 L-34.4 -4.0 -33.65 0.5 -37.65 1.0 -39.25 -9.75 -35.4 -10.5" fill="#1d1d1d" fill-rule="evenodd" stroke="none"/>
      <path d="M-22.65 -28.65 L-23.65 -37.65 -24.0 -38.75 -23.5 -38.9 -23.4 -37.65 -22.25 -28.75 -22.25 -28.4 -22.15 -27.4 -22.65 -27.75 -22.5 -28.25 -22.65 -28.65 M-20.25 -38.4 L-18.75 -37.75 -17.65 -37.75 -16.5 -38.5 -15.9 -38.75 -15.5 -38.25 -14.5 -30.0 -14.4 -29.5 -20.65 -28.5 -20.75 -29.0 -21.65 -37.5 -20.25 -38.4 M-25.0 -12.15 L-22.75 -12.5 -20.9 -1.5 -23.25 -1.15 -25.0 -12.15 M0.85 6.5 L0.1 7.1 -1.4 6.75 0.85 6.5" fill="#1b1b1b" fill-rule="evenodd" stroke="none"/>
      <path d="M87.6 -27.4 L92.35 -33.4 92.75 -33.75 92.85 -34.0 93.75 -35.0 97.5 -40.25 95.75 -37.0 85.6 -24.65 86.85 -26.5 87.35 -27.0 87.6 -27.4" fill="#0d0d0d" fill-rule="evenodd" stroke="none"/>
      <path d="M83.0 -25.9 L82.85 -26.0 82.5 -26.4 82.25 -26.5 82.85 -26.75 83.1 -26.9 83.35 -26.9 83.0 -26.25 83.85 -26.0 83.0 -25.9" fill="#3c3c3c" fill-rule="evenodd" stroke="none"/>
      <path d="M82.25 -24.4 L81.85 -25.4 83.0 -25.9 83.85 -26.0 85.85 -25.75 84.85 -24.75 84.35 -24.65 83.35 -24.5 82.25 -24.4" fill="#292929" fill-rule="evenodd" stroke="none"/>
      <path d="M-77.5 12.6 L-78.4 12.1 -78.5 12.0 -79.4 9.35 -79.0 7.85 -78.5 9.0 -78.75 9.5 -78.5 9.6 -77.5 12.6 M-24.9 -37.65 L-25.4 -38.65 -24.65 -38.75 -24.9 -37.65 M-25.65 -41.25 L-25.4 -41.75 -24.9 -39.9 -25.65 -39.9 -25.75 -40.5 -25.9 -40.65 -25.65 -41.25" fill="#020202" fill-rule="evenodd" stroke="none"/>
      <path d="M17.25 -39.25 L17.6 -39.65 17.6 -38.25 17.25 -39.25" fill="#1e1e1e" fill-rule="evenodd" stroke="none"/>
      <path d="M12.35 -38.65 L17.25 -39.25 17.6 -38.25 Q12.85 -36.65 12.35 -37.9 L12.35 -38.65" fill="#010101" fill-rule="evenodd" stroke="none"/>
      <path d="M-9.25 -30.65 L-9.25 -30.15 -9.15 -29.65 -9.5 -29.65 -9.65 -30.15 -9.75 -30.5 -10.65 -38.9 -10.25 -38.9 -9.25 -30.65 M-14.4 -38.75 L-14.0 -38.9 -12.9 -30.15 -13.4 -30.0 -14.4 -38.75" fill="#1a1a1a" fill-rule="evenodd" stroke="none"/>
      <path d="M-26.9 -27.65 L-25.9 -28.0 -25.5 -28.0 -24.75 -28.15 -24.65 -28.25 -23.0 -28.65 -22.65 -28.65 -22.5 -28.25 -26.9 -27.65 M-1.25 -31.75 L2.75 -32.4 6.25 -32.4 -9.25 -30.15 -9.25 -30.65 -2.4 -31.65 -1.25 -31.75 M-13.4 -30.0 L-12.9 -30.15 -9.75 -30.5 -9.65 -30.15 -14.4 -29.5 -14.5 -30.0 -13.4 -30.0 M-20.65 -28.5 L-22.25 -28.4 -22.25 -28.75 -20.75 -29.0 -20.65 -28.5" fill="#454545" fill-rule="evenodd" stroke="none"/>
      <path d="M5.75 -30.15 L6.85 -30.25 7.75 -29.9 8.85 -26.65 9.0 -21.9 8.5 -21.15 7.75 -20.9 5.5 -20.4 0.25 -19.25 -6.4 -18.35 -11.55 -17.7 -14.15 -17.4 -14.65 -17.5 -16.9 -17.75 -16.65 -18.0 -16.5 -18.4 -16.4 -19.25 -16.4 -20.9 -16.75 -23.65 -17.4 -25.65 -17.65 -25.9 -18.0 -26.5 -17.25 -27.15 -16.75 -27.5 2.25 -29.9 5.75 -30.15 M13.5 -32.65 L9.25 -32.25 8.85 -32.25 6.25 -32.4 2.75 -32.4 -1.25 -31.75 -1.75 -32.15 0.35 -32.9 5.5 -33.4 13.25 -33.25 13.5 -32.65" fill="#363636" fill-rule="evenodd" stroke="none"/>
      <path d="M-28.5 -27.25 L-28.25 -27.4 -27.0 -27.65 -26.9 -27.65 -22.5 -28.25 -22.65 -27.75 -22.15 -27.4 -22.25 -28.4 -20.65 -28.5 -14.4 -29.5 -9.65 -30.15 -9.5 -29.65 -9.15 -29.65 -9.25 -30.15 6.25 -32.4 8.85 -32.25 8.85 -32.15 6.5 -31.5 5.75 -30.9 2.25 -29.9 -16.75 -27.5 -17.25 -27.15 -25.75 -25.65 -28.5 -27.25" fill="#666666" fill-rule="evenodd" stroke="none"/>
      <path d="M-80.25 8.75 L-80.25 8.35 -79.15 7.35 -79.0 7.35 -79.0 7.85 -79.4 9.35 -80.25 8.75 M9.25 -32.25 L8.85 -32.15 8.85 -32.25 9.25 -32.25" fill="#0f0f0f" fill-rule="evenodd" stroke="none"/>
      <path d="M-59.4 -8.25 L-59.4 -8.75 -60.0 -8.75 -66.25 -8.0 -65.15 -10.5 -62.4 -12.25 -63.0 -11.0 -61.0 -10.4 -60.75 -10.0 -59.25 -9.75 -57.25 -10.5 -59.4 -8.25 M7.75 -29.9 L7.25 -31.0 6.5 -31.5 8.85 -32.15 9.25 -32.25 13.5 -32.65 22.35 -32.65 Q26.25 -31.75 25.6 -29.15 L26.1 -24.75 25.85 -21.4 26.0 -20.75 25.25 -19.0 24.1 -18.0 Q9.35 -17.25 8.0 -19.25 L8.6 -19.65 9.0 -20.65 9.0 -21.9 8.85 -26.65 7.75 -29.9 M-59.25 -5.5 L-52.75 -6.25 -51.65 2.1 -59.65 3.25 -60.0 -1.0 -58.65 -1.25 -59.25 -5.5" fill="#181818" fill-rule="evenodd" stroke="none"/>
      <path d="M25.6 -29.15 L26.5 -28.9 36.75 -24.5 34.35 -23.4 33.6 -21.9 32.75 -21.15 32.5 -20.9 32.75 -20.65 32.35 -20.65 Q31.0 -20.25 27.0 -21.5 L25.85 -21.4 26.1 -24.75 25.6 -29.15" fill="#707070" fill-rule="evenodd" stroke="none"/>
      <path d="M38.5 0.75 L30.0 3.35 4.5 8.0 4.35 3.85 4.25 3.1 3.25 -7.15 2.0 -15.15 0.25 -19.25 5.5 -20.4 6.35 -20.0 7.5 -20.15 8.0 -19.25 Q9.35 -17.25 24.1 -18.0 L25.25 -19.0 26.0 -20.75 25.85 -21.4 27.0 -21.5 Q31.0 -20.25 32.35 -20.65 L38.0 -10.0 Q40.0 -6.25 38.5 0.75" fill="#494949" fill-rule="evenodd" stroke="none"/>
      <path d="M90.6 -11.65 L79.0 -8.25 65.1 -4.9 38.5 0.75 Q40.0 -6.25 38.0 -10.0 L32.35 -20.65 32.75 -20.65 32.5 -20.9 32.75 -21.15 55.1 -22.25 81.85 -20.75 88.25 -21.0 89.85 -16.0 90.6 -11.65" fill="#4f4f4f" fill-rule="evenodd" stroke="none"/>
      <path d="M5.75 -30.9 L5.75 -30.15 2.25 -29.9 5.75 -30.9 M5.5 -20.4 L7.75 -20.9 7.5 -20.15 6.35 -20.0 5.5 -20.4 M-20.75 -23.0 L-21.65 -22.75 -22.15 -22.15 -22.15 -21.15 -21.15 -20.25 -20.25 -20.25 -16.4 -20.9 -16.4 -19.25 -16.5 -18.4 -16.65 -18.0 -17.15 -18.0 -16.9 -17.75 -14.65 -17.5 -15.15 -17.15 -23.9 -16.4 -24.75 -22.0 -25.75 -25.65 -17.25 -27.15 -18.0 -26.5 -18.5 -26.15 -18.65 -25.75 -17.4 -25.65 -16.75 -23.65 -20.75 -23.0 M-9.0 -18.0 L-11.55 -17.7 -6.4 -18.35 -9.0 -18.0" fill="#3d3d3d" fill-rule="evenodd" stroke="none"/>
      <path d="M26.5 -28.9 L37.0 -25.4 36.75 -24.5 26.5 -28.9" fill="#929292" fill-rule="evenodd" stroke="none"/>
      <path d="M37.0 -25.4 L45.5 -24.75 45.85 -24.65 47.1 -24.65 47.5 -24.5 48.75 -24.5 49.25 -24.4 50.35 -24.4 50.4 -24.35 50.85 -24.25 79.75 -23.9 83.35 -24.5 84.35 -24.65 85.6 -24.65 87.0 -24.5 88.25 -21.0 81.85 -20.75 55.1 -22.25 32.75 -21.15 33.6 -21.9 34.35 -23.4 36.75 -24.5 37.0 -25.4" fill="#909090" fill-rule="evenodd" stroke="none"/>
      <path d="M-62.4 -12.25 L-53.15 -14.65 -54.4 -13.65 -54.25 -13.4 -58.25 -12.9 -57.65 -12.5 -61.0 -10.4 -63.0 -11.0 -62.4 -12.25" fill="#131313" fill-rule="evenodd" stroke="none"/>
      <path d="M-43.9 15.5 L-48.4 16.75 -51.0 16.5 -52.0 16.5 -52.25 16.35 -57.75 16.1 -58.5 12.35 -58.25 12.25 -59.65 3.25 -51.65 2.1 -50.9 2.1 -50.9 1.35 -52.25 -6.25 -52.75 -6.25 -59.25 -5.5 -60.0 -5.5 -59.4 -8.25 -57.25 -10.5 -56.9 -10.9 -53.5 -11.25 -46.65 -12.9 -46.25 -12.9 -45.25 -8.9 -43.75 1.85 -43.4 2.25 -42.0 14.85 -43.9 15.5" fill="#0e0e0e" fill-rule="evenodd" stroke="none"/>
      <path d="M-47.9 -13.15 L-46.65 -12.9 -53.5 -11.25 -56.9 -10.9 -57.25 -10.5 -59.25 -9.75 -60.75 -10.0 -61.0 -10.4 -57.65 -12.5 -57.25 -12.5 -56.25 -12.25 -50.5 -13.15 -47.9 -13.15" fill="#191919" fill-rule="evenodd" stroke="none"/>
      <path d="M117.85 -25.15 L118.25 -25.15 118.5 -25.0 120.35 -24.9 120.85 -24.5 121.1 -24.0 119.35 -23.4 118.1 -22.75 115.25 -21.65 115.0 -21.5 112.25 -21.25 111.0 -21.5 111.0 -21.9 110.6 -21.9 Q115.5 -23.4 110.1 -24.0 L111.1 -24.0 Q111.1 -25.0 114.25 -25.25 L115.0 -25.4 115.6 -25.4 115.85 -25.25 117.85 -25.15 M-24.4 -16.4 L-24.15 -16.15 -35.15 -14.25 -46.25 -12.9 -46.65 -12.9 -47.9 -13.15 -41.4 -14.4 -29.5 -15.5 -24.4 -16.4" fill="#373737" fill-rule="evenodd" stroke="none"/>
      <path d="M-23.9 -16.4 L-15.15 -17.15 -14.65 -17.5 -14.15 -17.4 -22.75 -12.5 -24.15 -16.15 -24.4 -16.4 -23.9 -16.4" fill="#464646" fill-rule="evenodd" stroke="none"/>
      <path d="M-20.25 -20.25 L-20.15 -21.4 -20.75 -23.0 -16.75 -23.65 -16.4 -20.9 -20.25 -20.25 M-7.0 0.5 L-8.25 -7.9 -9.0 -18.0 -6.4 -18.35 0.25 -19.25 2.0 -15.15 3.25 -7.15 4.25 3.1 -6.0 4.6 -7.0 0.5" fill="#121212" fill-rule="evenodd" stroke="none"/>
      <path d="M-20.4 11.85 L-42.15 15.5 -42.0 14.85 -29.5 12.75 -20.4 11.85 M-17.4 -25.65 L-18.65 -25.75 -18.5 -26.15 -18.0 -26.5 -17.65 -25.9 -17.4 -25.65 M86.85 -26.5 L85.6 -24.65 84.85 -24.75 85.85 -25.75 86.85 -26.5 M-59.65 3.25 L-58.25 12.25 -58.5 12.35 -64.15 14.5 -72.75 12.25 -73.5 11.85 -73.65 9.75 -72.75 8.1 -72.5 6.1 -71.65 5.0 -69.15 3.35 -59.65 3.25 M-74.75 2.75 L-74.75 3.75 -75.75 3.35 -76.4 2.85 -74.75 2.75" fill="#080808" fill-rule="evenodd" stroke="none"/>
      <path d="M103.25 -26.5 L106.25 -26.5 108.1 -26.25 107.6 -26.0 107.0 -26.15 103.25 -26.5" fill="#646464" fill-rule="evenodd" stroke="none"/>
      <path d="M109.85 -26.0 L113.5 -26.0 117.85 -25.15 115.85 -25.25 115.6 -25.4 115.0 -25.4 114.35 -25.5 109.85 -26.0" fill="#737373" fill-rule="evenodd" stroke="none"/>
      <path d="M50.4 -24.35 L78.5 -24.0 82.25 -24.4 83.35 -24.5 79.75 -23.9 50.85 -24.25 50.4 -24.35 M-31.75 -11.0 L-31.0 -4.65 -33.0 -4.25 -34.0 -10.65 -31.75 -11.0 M84.35 -24.65 L84.85 -24.75 85.6 -24.65 84.35 -24.65" fill="#141414" fill-rule="evenodd" stroke="none"/>
      <path d="M106.35 -21.75 L106.25 -21.75 106.1 -21.9 106.35 -21.75" fill="#151515" fill-rule="evenodd" stroke="none"/>
      <path d="M4.25 3.1 L4.35 3.85 3.25 4.85 0.85 6.5 -1.4 6.75 -6.0 4.6 4.25 3.1" fill="#343434" fill-rule="evenodd" stroke="none"/>
      <path d="M-19.0 11.6 L-20.25 11.85 -20.4 11.85 -29.5 12.75 -42.0 14.85 -43.4 2.25 -43.75 1.85 -45.25 -8.9 -46.25 -12.9 -35.15 -14.25 -24.15 -16.15 -22.75 -12.5 -25.0 -12.15 -29.4 -11.4 -31.75 -11.0 -34.0 -10.65 -35.4 -10.5 -39.25 -9.75 -37.65 1.0 -33.65 0.5 -30.15 0.0 -27.65 -0.4 -23.25 -1.15 -20.9 -1.5 -19.65 6.35 -19.15 9.6 -19.0 11.6" fill="#2b2b2b" fill-rule="evenodd" stroke="none"/>
      <path d="M-54.25 -13.4 L-53.4 -13.15 -57.25 -12.5 -57.65 -12.5 -58.25 -12.9 -54.25 -13.4" fill="#202020" fill-rule="evenodd" stroke="none"/>
      <path d="M-31.0 -4.65 L-30.9 -4.65 -30.15 0.0 -33.65 0.5 -34.4 -4.0 -33.0 -4.25 -31.0 -4.65 M-52.75 -6.25 L-52.25 -6.25 -50.9 1.35 -50.9 2.1 -51.65 2.1 -52.75 -6.25" fill="#262626" fill-rule="evenodd" stroke="none"/>
      <path d="M-68.75 -3.5 L-66.5 -7.75 -66.25 -7.65 -66.9 -4.0 -68.75 -3.5" fill="#131912" fill-rule="evenodd" stroke="none"/>
      <path d="M-66.9 -4.0 L-66.25 -0.5 -69.15 0.35 -70.0 0.1 -70.65 -0.25 -68.15 -1.0 -68.75 -3.5 -66.9 -4.0" fill="#252525" fill-rule="evenodd" stroke="none"/>
      <path d="M-63.65 -1.15 L-60.0 -5.5 -60.15 -1.4 -63.65 -1.15" fill="#040603" fill-rule="evenodd" stroke="none"/>
      <path d="M-66.25 -0.5 L-63.65 -1.15 -63.75 1.1 Q-68.9 2.25 -69.15 3.35 L-71.65 5.0 -72.5 6.1 -72.75 8.1 -73.65 9.75 -78.5 9.6 -78.75 9.5 -78.5 9.0 -79.0 7.85 -79.0 7.35 -79.15 7.35 -76.9 4.35 -76.0 4.85 -74.75 3.75 -74.75 2.75 -73.4 1.75 -70.0 0.1 -69.15 0.35 -66.25 -0.5" fill="#070707" fill-rule="evenodd" stroke="none"/>
      <path d="M-57.75 16.1 L-58.25 16.0 -58.65 16.0 -64.15 14.5 -58.5 12.35 -57.75 16.1 M-77.65 4.0 L-76.4 2.85 -75.75 3.35 -74.75 3.75 -76.0 4.85 -76.9 4.35 -77.65 4.0" fill="#040404" fill-rule="evenodd" stroke="none"/>
      <path d="M-0.75 8.6 L-1.65 9.1 -19.0 11.6 -19.15 9.6 -1.4 6.75 0.1 7.1 0.85 6.5 3.25 4.85 -0.75 8.6" fill="#2c2c2c" fill-rule="evenodd" stroke="none"/>
      <path d="M-78.5 12.0 L-79.25 11.6 -80.25 8.75 -79.4 9.35 -78.5 12.0" fill="#1f1f1f" fill-rule="evenodd" stroke="none"/>
      <path d="M-42.15 15.5 L-43.9 15.5 -42.0 14.85 -42.15 15.5" fill="#101010" fill-rule="evenodd" stroke="none"/>
      <path d="M-29.15 -8.9 L-29.4 -11.4 -25.0 -12.15 -23.25 -1.15 -27.65 -0.4 -28.15 -3.15 -28.25 -3.4 -29.0 -8.65 -29.15 -8.9" fill="#070707" fill-opacity="0.50980395" fill-rule="evenodd" stroke="none"/>
      <path d="M-66.4 -7.75 L-65.0 -10.5 -62.5 -12.25 -62.9 -11.25 -62.9 -11.15 -62.65 -10.65 -61.25 -10.4 -60.65 -10.0 -59.15 -9.75 -58.75 -10.15 -58.4 -10.15 -58.15 -10.25 -57.9 -10.5 -57.25 -10.65 -58.75 -9.0 -59.0 -8.4 -59.4 -8.25 -59.4 -8.75 -62.65 -8.4 -62.9 -8.25 -63.4 -8.25 -66.4 -7.75 -66.9 -3.9 -66.65 -3.65 -66.75 -3.25 -66.25 -0.5 -66.9 -0.25 -68.4 0.1 -69.25 0.5 -69.65 0.25 -70.15 0.1 -70.65 -0.25 -66.4 -7.75" fill="#000000" fill-opacity="0.50980395" fill-rule="evenodd" stroke="none"/>
      <path d="M-66.4 -7.75 L-63.4 -8.25 -62.9 -8.25 -62.65 -8.4 -59.4 -8.75 -59.4 -8.25 -60.0 -5.25 -60.15 -5.25 -63.65 -1.15 -66.25 -0.5 -66.75 -3.25 -66.65 -3.65 -66.9 -3.9 -66.4 -7.75" fill="#030303" fill-rule="evenodd" stroke="none"/>
      <path d="M-34.0 -10.65 L-31.75 -11.0 -31.75 -10.0 -31.5 -9.65 -31.25 -8.15 -31.25 -7.15 -30.9 -5.5 -31.0 -4.75 -31.0 -4.65 -30.5 -2.75 -30.15 0.0 -30.25 0.1 -33.65 0.5 -33.75 0.25 -34.15 -2.15 -34.25 -2.4 -34.4 -4.0 -33.0 -4.25 -33.65 -9.25 -34.0 -10.65" fill="#030303" fill-opacity="0.50980395" fill-rule="evenodd" stroke="none"/>
      <path d="M-34.4 -4.0 L-34.5 -4.9 -34.75 -5.25 -35.4 -10.5 -34.9 -10.5 -34.0 -10.65 -33.65 -9.25 -33.0 -4.25 -34.4 -4.0" fill="#040404" fill-rule="evenodd" stroke="none"/>
      <path d="M-59.25 -5.4 L-52.75 -6.25 -52.4 -6.4 -51.5 -2.65 -51.4 -2.4 -51.4 -1.5 -50.9 2.1 -51.65 2.1 -54.9 2.85 -58.15 3.0 -59.65 3.25 -59.75 3.25 -59.9 3.1 -59.65 3.25 -60.15 -1.0 -58.65 -1.25 -59.25 -5.4" fill="#010101" fill-opacity="0.50980395" fill-rule="evenodd" stroke="none"/>
      <path d="M-60.0 -5.25 L-59.25 -5.4 -58.65 -1.25 -60.15 -1.0 -60.25 -1.25 -60.0 -5.25" fill="#050505" fill-rule="evenodd" stroke="none"/>
    </g>
  </defs>
</svg>
