<?xml version="1.0" encoding="UTF-8" standalone="no"?>
<svg xmlns:xlink="http://www.w3.org/1999/xlink" height="3232.15px" width="2417.1px" xmlns="http://www.w3.org/2000/svg">
  <g transform="matrix(1.0, 0.0, 0.0, 1.0, 987.65, 1503.95)">
    <use height="299.1" id="heli2" transform="matrix(-0.4476, 0.0235, 0.0235, 0.4476, 248.3819, -84.1294)" width="376.5" xlink:href="#sprite0"/>
  </g>
  <defs>
    <g id="sprite0" transform="matrix(1.0, 0.0, 0.0, 1.0, 182.65, 150.0)">
      <use height="109.35" transform="matrix(1.0, 0.0, 0.0, 1.0, -177.15, -88.0)" width="347.15" xlink:href="#shape0"/>
    </g>
    <g id="shape0" transform="matrix(1.0, 0.0, 0.0, 1.0, 177.15, 88.0)">
      <path d="M22.75 -64.5 L12.6 -63.75 12.1 -63.9 8.35 -64.4 9.5 -64.9 8.85 -65.25 10.35 -65.4 11.25 -65.4 11.75 -65.5 13.1 -65.5 14.0 -65.65 14.85 -65.65 15.85 -65.75 16.75 -65.75 17.75 -65.9 18.5 -65.9 21.5 -66.15 22.75 -66.15 22.75 -64.5 M27.5 -58.5 L18.5 -57.9 18.35 -59.25 18.35 -60.25 19.0 -60.25 27.35 -60.75 27.5 -58.5 M-35.15 -44.5 L-34.4 -45.75 -34.9 -44.65 -35.15 -44.5 M-34.25 -46.15 L-33.25 -48.0 -33.75 -46.5 -34.25 -46.15 M-31.75 -51.15 L-30.9 -52.75 -31.25 -51.5 -31.75 -51.15 M-27.25 -61.15 L-177.0 -51.4 -177.15 -53.0 -176.75 -53.0 -176.25 -53.15 -34.7 -62.45 -20.9 -63.25 -20.4 -63.4 -19.0 -63.4 -18.5 -63.5 -17.25 -63.5 -16.65 -63.65 -15.4 -63.65 -14.75 -63.75 -13.65 -63.75 -12.5 -63.9 -11.75 -63.9 -10.65 -64.0 -10.0 -64.0 -9.0 -64.15 -6.15 -64.25 -6.25 -63.9 -5.25 -62.75 -8.9 -62.4 -9.25 -62.4 -11.25 -62.25 -13.5 -62.15 -16.0 -61.9 -16.65 -61.9 -26.25 -61.25 -27.25 -61.15 M-27.75 -63.0 L-26.15 -66.5 -24.5 -66.75 -24.5 -66.4 -25.0 -66.0 -25.25 -65.0 -25.75 -64.25 -26.15 -63.15 -26.15 -63.0 -27.75 -63.0 M-18.75 -77.25 L-14.0 -87.25 -13.4 -87.75 -17.65 -79.5 -18.15 -77.9 -18.75 -77.25 M-23.25 -66.5 L-22.5 -67.4 -22.0 -67.4 -21.5 -67.5 -23.5 -63.25 -24.65 -63.15 -24.9 -63.25 -25.15 -63.15 -23.9 -65.9 -23.75 -66.0 -23.25 -66.5 M-17.65 -46.25 L-18.4 -45.5 -19.0 -44.5 Q-26.15 -47.0 -28.9 -42.0 -30.65 -38.0 -29.0 -35.15 L-25.9 -31.5 Q-30.9 -33.15 -29.9 -41.4 -27.25 -49.0 -17.65 -46.25" fill="#000000" fill-rule="evenodd" stroke="none"/>
      <path d="M-21.9 -70.75 L-21.75 -71.25 -21.5 -71.65 -21.4 -71.9 -21.25 -72.15 -19.9 -75.0 -19.75 -75.15 -19.65 -75.4 -18.9 -76.9 -18.9 -77.0 -18.75 -77.25 -18.15 -77.9 -17.65 -79.5 -13.4 -87.75 -13.0 -88.0 -11.9 -87.15 -19.9 -71.0 -20.4 -71.0 -21.15 -71.9 -21.9 -70.65 -21.9 -70.75" fill="#0e0e0e" fill-rule="evenodd" stroke="none"/>
      <path d="M-19.9 -71.0 L-16.9 -67.0 -16.75 -66.9 -16.25 -66.15 -16.15 -65.9 -16.0 -65.25 -15.25 -65.15 -15.0 -64.25 -15.4 -63.75 -16.25 -63.75 -16.65 -63.65 -17.25 -63.5 -18.5 -63.5 -19.0 -63.4 -20.4 -63.4 -20.9 -63.25 -21.75 -63.4 -20.0 -66.9 -21.5 -67.5 -22.0 -67.4 -22.5 -67.4 -23.25 -66.5 -21.9 -70.65 -21.15 -71.9 -20.4 -71.0 -19.9 -71.0 M-19.5 -58.0 L-26.15 -58.5 -27.9 -58.75 -27.65 -59.4 -26.25 -61.25 -16.65 -61.9 -17.4 -60.15 -19.5 -58.0 M-25.15 -63.15 L-24.9 -63.25 -24.65 -63.15 -25.15 -63.15 M3.35 -46.0 L5.5 -42.4 9.85 -26.9 9.35 -26.9 9.25 -26.75 0.85 -26.4 0.1 -26.4 -3.25 -26.15 -4.15 -26.0 -5.0 -26.0 -5.75 -25.95 Q-7.25 -26.1 -10.65 -27.4 L-16.15 -28.15 -17.0 -28.75 -16.75 -37.75 -14.15 -42.9 -7.0 -44.5 3.35 -46.0" fill="#313131" fill-rule="evenodd" stroke="none"/>
      <path d="M-48.9 -24.9 L-51.4 -24.9 -53.5 -26.15 Q-54.5 -28.25 -50.65 -29.0 L-50.25 -28.5 -48.9 -28.15 -46.65 -28.15 -47.4 -27.9 -52.4 -26.65 -52.4 -26.4 -52.15 -26.15 -47.0 -25.65 -49.25 -25.5 -48.25 -25.4 -48.9 -24.9 M-22.15 -70.75 L-21.9 -70.75 -21.9 -70.65 -22.15 -70.75 M-9.0 -67.0 L-7.0 -67.25 -2.9 -68.75 -2.0 -68.4 Q-3.4 -66.25 -3.4 -64.65 L-2.4 -61.4 -4.15 -60.15 -6.15 -60.65 -8.4 -60.65 -8.5 -61.25 -9.15 -61.25 -8.9 -62.4 -5.25 -62.75 -6.25 -63.9 -6.15 -64.25 -9.0 -64.15 -9.5 -66.65 -9.0 -67.0" fill="#121212" fill-rule="evenodd" stroke="none"/>
      <path d="M25.95 -66.4 L159.5 -75.25 159.75 -75.25 170.0 -75.75 170.0 -74.15 22.75 -64.5 22.75 -66.15 25.95 -66.4 M-15.25 -65.15 L-16.0 -65.25 -16.15 -65.9 -16.25 -66.15 -16.0 -66.5 -9.65 -65.65 -9.5 -65.5 -9.5 -64.15 -10.0 -64.15 -10.9 -64.15 -14.5 -65.0 -15.25 -65.15 M-1.75 -64.25 L-1.25 -64.4 -0.25 -64.15 -0.25 -62.5 -1.4 -62.65 -1.9 -62.75 -1.75 -63.25 -1.65 -63.4 -1.75 -63.4 -1.75 -64.25 M23.75 -48.4 L20.1 -48.5 17.35 -47.5 14.25 -48.5 Q16.35 -51.65 23.75 -48.4" fill="#010101" fill-rule="evenodd" stroke="none"/>
      <path d="M21.5 -66.15 L25.95 -66.4 22.75 -66.15 21.5 -66.15 M-15.4 -63.65 L-15.4 -63.75 -14.75 -63.75 -15.4 -63.65 M-13.65 -63.75 L-12.9 -63.9 -12.5 -63.9 -13.65 -63.75 M-11.75 -63.9 L-11.0 -64.0 -10.65 -64.0 -11.75 -63.9 M-9.0 -64.15 L-10.0 -64.0 -10.0 -64.15 -9.5 -64.15 -9.0 -64.15 M28.75 -34.15 L26.35 -33.5 26.25 -33.65 26.1 -34.0 26.1 -34.15 25.1 -37.9 25.35 -37.9 25.5 -37.9 26.5 -37.5 27.85 -35.25 28.75 -34.15 M-18.4 -44.15 L-16.5 -43.0 -16.9 -42.0 -17.25 -42.0 -18.5 -42.65 -20.9 -43.0 -23.5 -42.4 -25.5 -40.75 -26.75 -38.65 -27.0 -36.15 -26.4 -33.75 -26.4 -33.65 -24.75 -31.65 -22.5 -30.4 -20.0 -30.15 -18.75 -30.4 -18.9 -29.75 -19.4 -29.65 -19.75 -29.5 -20.9 -29.5 -23.65 -30.0 -25.9 -31.5 -29.0 -35.15 Q-30.65 -38.0 -28.9 -42.0 -26.15 -47.0 -19.0 -44.5 L-18.9 -44.4 -18.4 -44.15" fill="#2d2d2d" fill-rule="evenodd" stroke="none"/>
      <path d="M44.25 -14.4 L44.6 -7.15 45.25 -6.25 44.5 -5.75 44.0 -12.65 43.35 -15.4 44.25 -14.4 M15.8 19.35 L3.25 20.25 -16.25 20.5 -17.25 6.85 -6.4 -0.25 -6.5 4.25 -5.15 10.35 8.1 10.35 7.25 15.85 18.1 15.0 18.75 15.0 18.5 16.25 17.5 16.35 18.25 16.75 17.35 16.85 Q16.4 19.25 15.8 19.35 M-27.65 -59.4 L-27.0 -61.0 -27.25 -61.15 -26.25 -61.25 -27.65 -59.4 M-24.5 -66.75 L-22.15 -70.75 -21.9 -70.65 -23.25 -66.5 -23.75 -66.0 -23.9 -65.9 -25.15 -63.15 -26.15 -63.15 -25.75 -64.25 -25.25 -65.0 -24.5 -66.4 -24.5 -66.75 M-8.9 -62.4 L-9.15 -61.25 -9.25 -62.4 -8.9 -62.4 M-9.5 -66.65 L-9.0 -64.15 -9.5 -64.15 -9.5 -65.5 -9.65 -65.65 -9.5 -66.65 M38.75 -21.75 L38.85 -21.75 39.5 -21.15 39.85 -20.65 40.6 -16.4 39.85 -14.5 38.75 -21.75 M35.1 -25.5 L35.75 -24.9 37.6 -11.25 37.0 -11.15 35.1 -25.5 M37.0 -23.5 L37.25 -23.4 37.75 -22.75 39.0 -12.4 38.75 -11.65 37.0 -23.5 M-24.65 -4.5 L-25.0 -5.75 -24.65 -8.5 -24.9 -9.75 -24.4 -21.25 -24.25 -21.0 -24.15 -17.65 -24.15 -14.4 -24.5 -12.5 -24.25 -10.25 -24.25 -8.75 -24.65 -7.5 -24.4 -5.75 -24.65 -4.5 M-25.15 -22.4 L-24.9 -19.5 -25.25 -19.15 -25.15 -22.4 M-25.5 -6.0 L-25.4 -18.9 -25.0 -15.9 -25.5 -6.0" fill="#020202" fill-rule="evenodd" stroke="none"/>
      <path d="M26.75 -48.75 L27.6 -48.25 27.25 -48.25 26.75 -48.75 M-26.25 -26.5 L-48.9 -24.9 -48.25 -25.4 -49.25 -25.5 -47.0 -25.65 -36.4 -25.9 -26.15 -26.75 -26.25 -26.5 M-34.7 -62.45 L-27.75 -63.0 -26.15 -63.0 -26.15 -63.15 -25.15 -63.15 -24.65 -63.15 -23.5 -63.25 -21.75 -63.4 -20.9 -63.25 -34.7 -62.45 M13.1 -65.5 L13.85 -65.75 14.0 -65.65 13.1 -65.5 M14.85 -65.65 L15.6 -65.75 15.85 -65.75 14.85 -65.65 M-16.65 -63.65 L-16.25 -63.75 -15.4 -63.75 -15.4 -63.65 -16.65 -63.65 M-14.75 -63.75 L-14.15 -63.9 -13.65 -63.75 -14.75 -63.75 M-11.0 -64.0 L-10.9 -64.15 -10.0 -64.15 -10.0 -64.0 -10.65 -64.0 -11.0 -64.0 M-20.0 -38.75 L-19.25 -38.15 -20.5 -38.4 -21.4 -38.0 -22.0 -37.4 -22.4 -36.4 -22.4 -35.75 -22.25 -35.5 -22.4 -35.25 -23.0 -36.0 -23.25 -36.9 -23.0 -37.75 -22.65 -38.5 -21.75 -39.0 -21.4 -39.0 -20.0 -38.75" fill="#0b0b0b" fill-rule="evenodd" stroke="none"/>
      <path d="M-16.9 -67.0 L-13.75 -67.25 -14.0 -66.75 -16.0 -66.5 -16.25 -66.15 -16.75 -66.9 -16.9 -67.0 M-15.4 -63.75 L-15.0 -64.25 -15.25 -65.15 -14.5 -65.0 -14.15 -63.9 -14.75 -63.75 -15.4 -63.75 M-14.25 -47.9 L-14.15 -49.0 -14.5 -49.4 -16.0 -61.9 -13.5 -62.15 -12.9 -61.0 -11.4 -48.25 -14.25 -47.9" fill="#696969" fill-rule="evenodd" stroke="none"/>
      <path d="M-11.75 -67.0 L-10.65 -67.0 -10.75 -66.75 -9.5 -66.65 -9.65 -65.65 -16.0 -66.5 -14.0 -66.75 -11.75 -67.0 M-18.25 -47.4 L-18.5 -50.4 -18.0 -49.25 -17.9 -47.4 -18.25 -47.4 M4.75 -64.75 L5.5 -64.5 -0.75 -64.4 4.75 -64.75 M43.85 13.5 L45.1 9.6 45.5 11.1 45.35 15.5 44.1 15.0 43.85 13.5" fill="#101010" fill-rule="evenodd" stroke="none"/>
      <path d="M3.25 20.25 L-6.15 21.1 -20.25 21.35 -19.25 20.75 -16.25 20.5 3.25 20.25 M-13.75 -67.25 L-12.5 -67.75 -11.75 -67.0 -14.0 -66.75 -13.75 -67.25 M-14.15 -63.9 L-14.5 -65.0 -10.9 -64.15 -11.0 -64.0 -11.75 -63.9 -12.5 -63.9 -12.9 -63.9 -13.65 -63.75 -14.15 -63.9 M-11.25 -62.25 L-11.9 -61.15 -12.9 -61.0 -13.5 -62.15 -11.25 -62.25 M30.75 -35.65 L28.75 -34.15 27.85 -35.25 26.5 -37.5 27.25 -37.5 27.85 -37.75 30.75 -35.65" fill="#1c1c1c" fill-rule="evenodd" stroke="none"/>
      <path d="M-21.75 17.35 L-24.15 12.35 -24.4 5.85 -24.75 4.6 -25.5 -6.0 -25.0 -5.75 -24.65 -4.5 -24.4 -4.25 -24.15 -3.5 -23.9 -3.75 -23.75 -7.25 -23.9 -8.4 -23.9 -9.4 -23.75 -9.75 -23.65 -20.4 -24.0 -20.65 -24.25 -21.0 -24.4 -21.25 -25.15 -22.4 -25.15 -23.0 -25.0 -23.25 -20.0 -28.25 -17.25 -25.4 -22.75 -19.65 -22.9 -19.0 -23.25 -2.15 -21.65 15.6 -21.75 17.35 M-10.65 -67.0 L-10.25 -67.0 -9.65 -67.15 -9.0 -67.0 -9.5 -66.65 -10.75 -66.75 -10.65 -67.0 M-14.15 -42.9 L-16.75 -37.75 -17.0 -28.75 -17.4 -28.75 -18.0 -29.15 -18.75 -29.0 -19.4 -29.65 -18.9 -29.75 -18.75 -30.4 -18.75 -31.4 -19.75 -34.15 -19.9 -34.15 Q-16.5 -36.15 -19.25 -38.15 L-20.0 -38.75 -20.15 -39.0 -20.0 -39.15 -20.25 -39.25 -19.65 -41.75 -19.0 -41.9 -17.25 -42.0 -16.9 -42.0 -16.5 -43.0 -18.4 -44.15 -17.25 -44.9 -14.15 -42.9" fill="#191919" fill-rule="evenodd" stroke="none"/>
      <path d="M-24.15 12.35 L-25.65 9.5 -26.5 2.25 -24.75 4.6 -24.4 5.85 -24.15 12.35 M-2.9 -68.75 L-3.0 -69.65 -2.5 -71.0 -0.75 -72.15 1.35 -71.65 1.85 -71.15 2.35 -69.25 2.1 -68.9 -2.0 -68.4 -2.9 -68.75" fill="#4b4b4b" fill-rule="evenodd" stroke="none"/>
      <path d="M2.35 -69.25 L2.5 -69.25 7.1 -68.25 9.85 -68.25 10.35 -65.4 8.85 -65.25 9.5 -64.9 8.35 -64.4 5.5 -64.5 4.75 -64.75 4.5 -66.5 3.75 -67.75 2.1 -68.9 2.35 -69.25 M6.75 -61.25 L5.35 -60.75 4.1 -61.65 6.75 -61.25" fill="#4a4a4a" fill-rule="evenodd" stroke="none"/>
      <path d="M-2.4 -61.4 L-3.4 -64.65 Q-3.4 -66.25 -2.0 -68.4 L2.1 -68.9 3.75 -67.75 4.5 -66.5 4.75 -64.75 3.85 -66.65 1.85 -67.5 0.85 -67.5 -1.0 -66.5 -1.65 -65.5 -1.75 -64.25 -1.75 -63.4 -1.75 -63.25 -1.9 -62.75 -1.4 -62.65 Q0.35 -60.15 3.5 -61.75 L4.1 -61.65 1.6 -60.4 Q-1.15 -60.25 -2.4 -61.4" fill="#2f2f2f" fill-rule="evenodd" stroke="none"/>
      <path d="M27.6 -48.25 L28.0 -47.65 27.25 -48.25 27.6 -48.25 M28.35 18.25 L27.75 18.25 27.35 18.35 15.8 19.35 Q16.4 19.25 17.35 16.85 L18.25 16.75 17.5 16.35 18.5 16.25 18.75 15.0 29.25 14.1 28.25 8.75 39.35 6.85 39.6 10.35 Q43.0 13.6 43.85 13.5 L44.1 15.0 45.35 15.5 28.35 18.25 M-21.5 -67.5 L-20.0 -66.9 -21.75 -63.4 -23.5 -63.25 -21.5 -67.5" fill="#070707" fill-rule="evenodd" stroke="none"/>
      <path d="M12.6 -63.75 L30.25 -61.5 27.35 -60.75 19.0 -60.25 21.35 -60.75 20.35 -61.15 -0.15 -64.15 -0.25 -64.15 -1.25 -64.4 -0.75 -64.4 5.5 -64.5 8.35 -64.4 12.1 -63.9 12.6 -63.75" fill="#343434" fill-rule="evenodd" stroke="none"/>
      <path d="M-20.25 21.35 L-21.75 17.35 -21.65 15.6 -23.25 -2.15 -22.9 -19.0 -22.75 -19.65 -17.25 -25.4 -15.15 -23.5 -12.4 -22.9 -12.9 -22.4 -15.65 -19.25 -15.75 -18.4 -17.25 -14.65 -17.9 -14.75 -19.25 -15.25 -20.65 -11.9 -22.0 -9.4 -21.4 -2.0 -19.75 -1.0 -17.9 -0.5 -17.25 6.85 -16.25 20.5 -19.25 20.75 -20.25 21.35 M-24.5 -66.4 L-25.25 -65.0 -25.0 -66.0 -24.5 -66.4 M-18.5 -50.4 L-18.5 -50.65 -19.25 -56.4 -19.25 -56.65 -19.4 -57.4 -19.4 -57.5 -19.5 -58.0 -17.4 -60.15 -16.65 -61.9 -16.0 -61.9 -14.5 -49.4 -14.15 -49.0 -14.25 -47.9 -15.9 -47.75 -16.4 -47.25 -17.9 -47.4 -18.0 -49.25 -18.5 -50.4 M40.85 -19.75 L41.6 -18.5 40.6 -16.4 39.85 -20.65 40.1 -20.5 40.85 -19.75 M17.85 9.75 L18.25 9.75 18.6 10.0 17.85 9.75 18.0 10.5 18.6 10.6 17.85 10.85 18.6 11.1 17.85 11.25 17.85 12.5 18.75 12.6 17.85 12.6 18.0 14.0 18.75 14.1 18.0 14.25 18.1 15.0 7.25 15.85 8.1 10.35 17.85 9.75 M18.6 11.6 L18.25 11.6 18.35 11.35 18.6 11.6" fill="#050505" fill-rule="evenodd" stroke="none"/>
      <path d="M-1.75 -64.25 L-1.65 -65.5 -1.0 -66.5 0.85 -67.5 1.85 -67.5 3.85 -66.65 4.75 -64.75 -0.75 -64.4 -1.25 -64.4 -1.75 -64.25 M-1.4 -62.65 L-0.25 -62.5 3.5 -61.75 Q0.35 -60.15 -1.4 -62.65 M-15.75 -18.4 L-15.65 -19.25 -12.9 -22.4 -15.75 -18.4" fill="#0f0f0f" fill-rule="evenodd" stroke="none"/>
      <path d="M18.35 -59.25 L12.75 -60.15 12.25 -60.25 10.1 -60.65 9.6 -60.75 6.75 -61.25 4.1 -61.65 3.5 -61.75 -0.25 -62.5 -0.25 -64.15 -0.15 -64.15 20.35 -61.15 21.35 -60.75 19.0 -60.25 18.35 -60.25 18.35 -59.25 M-1.75 -63.4 L-1.65 -63.4 -1.75 -63.25 -1.75 -63.4 M-3.65 -21.65 L-2.5 -18.5 -3.4 -16.0 -9.65 -22.4 -5.65 -21.5 -3.65 -21.65 M-17.25 6.85 L-17.9 -0.5 -6.4 -0.25 -17.25 6.85" fill="#040404" fill-rule="evenodd" stroke="none"/>
      <path d="M30.25 -61.5 L30.6 -61.4 30.6 -59.15 27.5 -58.5 27.35 -60.75 30.25 -61.5" fill="#393939" fill-rule="evenodd" stroke="none"/>
      <path d="M12.75 -60.15 L13.35 -49.9 13.35 -48.75 13.5 -46.65 13.1 -46.65 12.75 -48.9 12.85 -49.65 12.25 -60.25 12.75 -60.15 M-4.15 -60.15 L-2.4 -61.4 Q-1.15 -60.25 1.6 -60.4 L4.1 -61.65 5.35 -60.75 6.0 -49.4 6.1 -47.5 2.1 -46.9 -3.25 -47.0 -3.5 -48.75 -4.15 -60.15 M24.6 -40.0 L24.6 -40.4 24.85 -40.5 24.6 -40.0 M-19.25 -38.15 Q-16.5 -36.15 -19.9 -34.15 L-20.65 -34.15 -21.0 -34.25 -21.75 -34.75 -21.9 -35.0 -22.25 -35.5 -22.4 -35.75 -22.4 -36.4 -22.0 -37.4 -21.4 -38.0 -20.5 -38.4 -19.25 -38.15 M-26.15 -26.75 L-36.4 -25.9 -47.0 -25.65 -52.15 -26.15 -52.4 -26.4 -52.4 -26.65 -47.4 -27.9 -46.65 -28.15 -30.4 -29.25 -27.5 -27.65 -25.65 -27.4 -26.15 -26.75 M18.25 9.75 L17.85 6.25 27.85 8.75 18.25 9.75" fill="#161616" fill-rule="evenodd" stroke="none"/>
      <path d="M10.25 -49.65 L9.6 -60.75 10.1 -60.65 10.75 -49.5 10.85 -48.4 10.5 -48.25 10.25 -49.65 M-3.4 -16.0 L-1.75 -12.15 -11.15 -17.15 -11.5 -17.5 -12.4 -22.9 -9.65 -22.4 -3.4 -16.0" fill="#141414" fill-rule="evenodd" stroke="none"/>
      <path d="M6.0 -49.4 L10.25 -49.65 10.5 -48.25 10.85 -48.4 10.75 -49.5 11.35 -49.4 12.75 -48.9 13.1 -46.65 13.5 -46.65 13.35 -48.75 14.25 -48.5 17.35 -47.5 18.6 -47.15 18.85 -47.0 19.5 -46.9 19.75 -46.75 19.85 -46.75 21.0 -45.75 21.1 -45.4 12.6 -46.0 3.35 -46.0 2.1 -46.9 6.1 -47.5 6.0 -49.4" fill="#717171" fill-rule="evenodd" stroke="none"/>
      <path d="M-9.15 -61.25 L-8.5 -61.25 -8.4 -60.65 -7.65 -48.5 -7.5 -45.25 -8.0 -45.5 -8.15 -48.5 -9.15 -61.25 M4.75 -7.25 L6.75 -16.5 7.25 -17.4 5.1 -5.5 4.5 -5.5 4.75 -7.25" fill="#151515" fill-rule="evenodd" stroke="none"/>
      <path d="M-16.4 -47.25 L-15.9 -47.75 -14.25 -47.9 -11.4 -48.25 -10.15 -48.25 -9.9 -47.0 -9.5 -46.9 -9.5 -48.4 -8.15 -48.5 -8.0 -45.5 -7.5 -45.25 -7.65 -48.5 -3.5 -48.75 -3.25 -47.0 2.1 -46.9 3.35 -46.0 -7.0 -44.5 -14.15 -42.9 -17.25 -44.9 -18.4 -45.5 -17.65 -46.25 -16.4 -47.25" fill="#5d5d5d" fill-rule="evenodd" stroke="none"/>
      <path d="M-10.15 -48.25 L-10.75 -61.4 -10.25 -61.15 -9.5 -48.4 -9.5 -46.9 -9.9 -47.0 -10.15 -48.25 M27.25 -41.65 L27.5 -41.5 27.6 -41.5 28.0 -41.25 28.25 -41.15 28.75 -40.4 28.75 -38.9 28.5 -38.5 27.85 -37.75 27.25 -37.5 26.5 -37.5 25.5 -37.9 25.35 -37.9 25.25 -38.0 25.1 -38.0 24.6 -40.0 24.85 -40.5 25.75 -41.5 27.25 -41.65 M-22.25 -35.5 L-21.9 -35.0 -22.4 -35.25 -22.25 -35.5" fill="#171717" fill-rule="evenodd" stroke="none"/>
      <path d="M13.35 -49.9 L16.6 -50.75 18.1 -50.75 25.6 -49.75 26.75 -48.75 27.25 -48.25 28.0 -47.65 28.1 -47.25 23.75 -48.4 Q16.35 -51.65 14.25 -48.5 L13.35 -48.75 13.35 -49.9 M11.35 -49.4 L12.85 -49.65 12.75 -48.9 11.35 -49.4 M39.35 6.85 L39.25 0.85 Q38.25 -2.6 37.7 -3.15 L44.85 1.0 45.6 7.0 45.1 9.6 43.85 13.5 Q43.0 13.6 39.6 10.35 L39.35 6.85" fill="#373737" fill-rule="evenodd" stroke="none"/>
      <path d="M-34.4 -45.75 L-34.4 -45.9 -34.25 -46.15 -33.75 -46.5 -33.25 -48.0 -33.25 -48.15 -33.15 -48.25 -33.0 -48.5 -32.0 -50.5 -32.0 -50.65 -31.9 -50.9 -31.75 -51.15 -31.25 -51.5 -30.9 -52.75 -30.9 -52.9 -30.75 -53.0 -30.65 -53.4 -30.5 -53.65 -30.15 -54.5 -30.0 -54.65 -29.9 -55.15 -29.5 -55.75 -29.4 -56.15 -29.25 -56.25 -29.15 -56.5 -29.0 -56.75 -28.65 -57.5 -28.65 -57.65 -28.5 -57.9 -28.4 -58.15 -27.65 -59.4 -27.9 -58.75 -26.15 -58.5 -28.15 -55.0 -32.5 -45.5 -34.9 -44.65 -34.4 -45.75 M-26.75 -38.65 L-25.5 -40.75 -25.4 -40.75 -22.65 -38.5 -23.0 -37.75 -26.75 -38.65" fill="#252525" fill-rule="evenodd" stroke="none"/>
      <path d="M-32.25 -30.65 L-35.0 -34.15 Q-37.0 -39.15 -36.0 -42.4 L-35.75 -44.0 -35.15 -44.5 -34.9 -44.65 -32.5 -45.5 -23.0 -48.0 -18.25 -47.4 -17.9 -47.4 -16.4 -47.25 -17.65 -46.25 Q-27.25 -49.0 -29.9 -41.4 -30.9 -33.15 -25.9 -31.5 L-23.65 -30.0 -25.65 -27.4 -27.5 -27.65 -30.4 -29.25 -32.25 -30.65 M27.85 8.75 L28.25 8.75 29.25 14.1 18.75 15.0 18.1 15.0 18.0 14.25 18.75 14.1 18.0 14.0 17.85 12.6 18.75 12.6 17.85 12.5 17.85 11.25 18.6 11.1 17.85 10.85 18.6 10.6 18.0 10.5 17.85 9.75 18.6 10.0 18.25 9.75 27.85 8.75 M18.6 11.6 L18.35 11.35 18.25 11.6 18.6 11.6" fill="#090909" fill-rule="evenodd" stroke="none"/>
      <path d="M28.1 -47.25 L30.6 -45.9 Q32.85 -44.0 33.1 -40.75 33.1 -34.9 27.1 -32.9 L26.25 -32.9 26.35 -33.5 28.75 -34.15 30.75 -35.65 32.0 -37.9 32.35 -40.25 32.0 -42.5 31.6 -42.65 30.5 -44.65 30.1 -44.65 28.0 -46.0 25.75 -46.25 23.25 -45.65 22.1 -44.75 21.5 -45.0 21.1 -45.4 21.0 -45.75 21.35 -46.4 19.85 -46.75 19.75 -46.75 19.5 -46.9 18.85 -47.0 18.6 -47.15 17.35 -47.5 20.1 -48.5 23.75 -48.4 28.1 -47.25" fill="#575757" fill-rule="evenodd" stroke="none"/>
      <path d="M23.6 -44.75 L24.1 -44.75 24.35 -43.4 24.35 -42.25 24.25 -41.4 21.5 -45.0 22.1 -44.75 23.6 -44.75 M19.85 -46.75 L21.35 -46.4 21.0 -45.75 19.85 -46.75" fill="#4c4c4c" fill-rule="evenodd" stroke="none"/>
      <path d="M26.35 -33.5 L26.25 -32.9 26.35 -32.15 26.5 -31.9 Q27.25 -30.15 23.35 -28.0 L22.35 -28.0 21.5 -27.9 20.75 -27.9 19.5 -27.75 19.0 -27.75 17.25 -27.5 9.85 -26.9 5.5 -42.4 3.35 -46.0 12.6 -46.0 21.1 -45.4 21.5 -45.0 24.25 -41.4 24.6 -40.4 24.6 -40.0 25.1 -38.0 25.1 -37.9 26.1 -34.15 26.1 -34.0 26.25 -33.65 26.35 -33.5" fill="#b2b2b2" fill-rule="evenodd" stroke="none"/>
      <path d="M23.25 -45.65 L25.75 -46.25 28.0 -46.0 30.1 -44.65 30.5 -44.65 31.6 -42.65 32.0 -42.5 32.35 -40.25 32.0 -37.9 31.25 -38.0 28.75 -38.9 28.75 -40.4 28.25 -41.15 28.0 -41.25 27.6 -41.5 27.5 -41.5 27.25 -41.65 25.75 -42.25 25.6 -42.25 25.0 -42.4 24.35 -42.25 24.35 -43.4 24.1 -44.75 23.6 -44.75 23.25 -45.65 M-23.5 -42.4 L-20.9 -43.0 -18.5 -42.65 -17.25 -42.0 -19.0 -41.9 -19.65 -41.75 -20.25 -39.25 -20.0 -39.15 -20.15 -39.0 -20.4 -39.15 -21.0 -39.15 -21.4 -39.0 -21.75 -39.0 -21.9 -39.25 -23.5 -42.4" fill="#080808" fill-rule="evenodd" stroke="none"/>
      <path d="M28.75 -38.9 L31.25 -38.0 32.0 -37.9 30.75 -35.65 27.85 -37.75 28.5 -38.5 28.75 -38.9" fill="#0a0a0a" fill-rule="evenodd" stroke="none"/>
      <path d="M25.6 -42.25 L25.75 -42.25 27.25 -41.65 25.75 -41.5 24.85 -40.5 24.6 -40.4 24.25 -41.4 24.35 -42.25 25.6 -42.25 M25.1 -38.0 L25.25 -38.0 25.35 -37.9 25.1 -37.9 25.1 -38.0" fill="#1f1f1f" fill-rule="evenodd" stroke="none"/>
      <path d="M45.25 -6.25 L46.25 15.35 45.35 15.5 45.5 11.1 45.1 9.6 45.6 7.0 44.85 1.0 44.5 -5.25 44.5 -5.75 45.25 -6.25 M24.35 -42.25 L25.0 -42.4 25.6 -42.25 24.35 -42.25" fill="#232323" fill-rule="evenodd" stroke="none"/>
      <path d="M23.25 -45.65 L23.6 -44.75 22.1 -44.75 23.25 -45.65 M8.1 10.35 L17.85 6.25 18.25 9.75 17.85 9.75 8.1 10.35" fill="#111111" fill-rule="evenodd" stroke="none"/>
      <path d="M-18.4 -45.5 L-17.25 -44.9 -18.4 -44.15 -18.9 -44.4 -19.0 -44.5 -18.4 -45.5" fill="#202020" fill-rule="evenodd" stroke="none"/>
      <path d="M9.85 -26.9 L17.25 -27.5 18.75 -26.65 18.1 -26.4 10.25 -25.9 10.5 -26.4 9.6 -26.25 9.25 -26.75 9.35 -26.9 9.85 -26.9" fill="#797979" fill-rule="evenodd" stroke="none"/>
      <path d="M17.25 -27.5 L19.0 -27.75 19.5 -27.75 20.75 -27.9 21.5 -27.9 22.35 -28.0 23.35 -28.0 34.75 -29.15 35.5 -27.15 34.5 -26.4 30.0 -24.5 28.5 -24.0 11.75 -22.75 10.85 -25.5 10.25 -25.9 2.25 -25.25 0.85 -26.4 9.25 -26.75 9.6 -26.25 10.5 -26.4 10.25 -25.9 18.1 -26.4 18.75 -26.65 17.25 -27.5" fill="#727272" fill-rule="evenodd" stroke="none"/>
      <path d="M29.25 -31.75 L34.75 -29.15 23.35 -28.0 Q27.25 -30.15 26.5 -31.9 L28.35 -31.9 29.25 -31.75" fill="#535353" fill-rule="evenodd" stroke="none"/>
      <path d="M27.1 -32.9 L27.75 -33.0 29.25 -31.75 28.35 -31.9 26.35 -32.15 26.25 -32.9 27.1 -32.9 M-5.75 -25.95 L-5.0 -26.0 -4.15 -26.0 -3.25 -26.15 0.1 -26.4 0.85 -26.4 2.25 -25.25 10.25 -25.9 10.85 -25.5 11.75 -22.75 10.1 -22.65 9.75 -22.65 9.35 -22.65 9.0 -22.5 8.25 -22.5 -3.65 -21.65 -5.65 -21.5 -9.65 -22.4 -12.4 -22.9 -15.15 -23.5 -17.25 -25.4 -5.75 -25.95" fill="#515151" fill-rule="evenodd" stroke="none"/>
      <path d="M10.5 -5.4 L14.75 -5.75 15.25 -5.15 14.85 -4.9 15.25 -4.65 15.25 -3.9 15.6 -3.9 15.35 -3.4 15.85 -1.5 7.0 0.35 6.6 0.35 6.85 2.1 16.75 1.35 Q16.85 3.1 17.75 4.1 L17.85 6.25 8.1 10.35 -5.15 10.35 -6.5 4.25 -6.4 -0.25 -7.9 -3.75 -11.75 -7.75 -6.5 -7.15 4.5 -5.5 5.1 -5.5 7.75 -5.15 10.5 -5.4 M-20.15 -39.0 L-20.0 -38.75 -21.4 -39.0 -21.0 -39.15 -20.4 -39.15 -20.15 -39.0" fill="#222222" fill-rule="evenodd" stroke="none"/>
      <path d="M-25.5 -40.75 L-23.5 -42.4 -21.9 -39.25 -21.75 -39.0 -22.65 -38.5 -25.4 -40.75 -25.5 -40.75" fill="#131313" fill-rule="evenodd" stroke="none"/>
      <path d="M-50.65 -29.0 L-50.25 -29.4 -32.25 -30.65 -30.4 -29.25 -46.65 -28.15 -48.9 -28.15 -50.25 -28.5 -50.65 -29.0" fill="#2c2c2c" fill-rule="evenodd" stroke="none"/>
      <path d="M-26.5 2.25 L-28.25 -8.65 Q-29.5 -25.15 -26.25 -26.5 L-26.15 -26.75 -25.65 -27.4 -23.65 -30.0 -20.9 -29.5 -22.4 -29.25 -25.0 -23.25 -25.15 -23.0 -25.15 -22.4 -24.4 -21.25 -24.9 -9.75 -24.65 -8.5 -25.0 -5.75 -25.5 -6.0 -24.75 4.6 -26.5 2.25 M4.75 -7.25 L4.5 -5.5 -6.5 -7.15 Q-6.65 -8.4 -8.9 -11.25 L-11.15 -17.15 -1.75 -12.15 4.75 -7.25 M-24.25 -21.0 L-24.0 -20.65 -24.15 -17.65 -24.25 -21.0 M-24.15 -14.4 L-23.9 -13.75 -24.25 -10.25 -24.5 -12.5 -24.15 -14.4 M-24.25 -8.75 L-24.4 -5.75 -24.65 -7.5 -24.25 -8.75 M-25.5 -6.0 L-25.0 -15.9 -25.4 -18.9 -25.5 -6.0 M-25.15 -22.4 L-25.25 -19.15 -24.9 -19.5 -25.15 -22.4 M-20.65 -11.9 Q-20.75 -3.75 -18.0 -3.4 L-17.9 -0.5 -19.75 -1.0 -21.4 -2.0 -22.0 -9.4 -20.65 -11.9" fill="#303030" fill-rule="evenodd" stroke="none"/>
      <path d="M-27.0 -36.15 L-26.75 -38.65 -23.0 -37.75 -23.25 -36.9 -26.5 -36.15 -27.0 -36.15" fill="#353535" fill-rule="evenodd" stroke="none"/>
      <path d="M-18.75 -30.4 L-20.0 -30.15 -20.25 -32.75 -20.65 -34.15 -19.9 -34.15 -19.75 -34.15 -18.75 -31.4 -18.75 -30.4 M25.35 -1.15 L26.5 -1.15 26.85 0.6 16.75 1.35 16.6 -0.25 25.35 -1.15" fill="#2b2b2b" fill-rule="evenodd" stroke="none"/>
      <path d="M-20.0 -30.15 L-22.5 -30.4 -22.15 -31.65 -21.75 -34.75 -21.0 -34.25 -20.65 -34.15 -20.25 -32.75 -20.0 -30.15 M-23.25 -36.9 L-23.0 -36.0 -26.5 -36.15 -23.25 -36.9" fill="#5f5f5f" fill-rule="evenodd" stroke="none"/>
      <path d="M-22.4 -35.25 L-21.9 -35.0 -21.75 -34.75 -24.0 -32.65 -22.4 -35.25" fill="#9d9d9d" fill-rule="evenodd" stroke="none"/>
      <path d="M-26.4 -33.75 L-27.0 -36.15 -26.5 -36.15 -23.0 -36.0 -25.65 -34.0 -26.4 -33.75" fill="#5e5e5e" fill-rule="evenodd" stroke="none"/>
      <path d="M-24.75 -31.65 L-26.4 -33.65 -26.4 -33.75 -25.65 -34.0 -22.4 -35.25 -24.0 -32.65 -24.75 -31.65" fill="#959595" fill-rule="evenodd" stroke="none"/>
      <path d="M-23.0 -36.0 L-22.4 -35.25 -25.65 -34.0 -23.0 -36.0" fill="#969696" fill-rule="evenodd" stroke="none"/>
      <path d="M-22.5 -30.4 L-24.75 -31.65 -24.0 -32.65 -21.75 -34.75 -22.15 -31.65 -22.5 -30.4" fill="#9c9c9c" fill-rule="evenodd" stroke="none"/>
      <path d="M26.5 -31.9 L26.35 -32.15 28.35 -31.9 26.5 -31.9" fill="#363636" fill-rule="evenodd" stroke="none"/>
      <path d="M-20.9 -29.5 L-19.75 -29.5 -19.4 -29.65 -18.75 -29.0 -19.75 -28.4 -20.0 -28.25 -25.0 -23.25 -22.4 -29.25 -20.9 -29.5" fill="#383838" fill-rule="evenodd" stroke="none"/>
      <path d="M-19.75 -28.4 L-18.75 -29.0 -18.0 -29.15 -17.4 -28.75 -19.75 -28.4" fill="#333333" fill-rule="evenodd" stroke="none"/>
      <path d="M-17.0 -28.75 L-16.15 -28.15 -10.65 -27.4 Q-7.25 -26.1 -5.75 -25.95 L-17.25 -25.4 -20.0 -28.25 -19.75 -28.4 -17.4 -28.75 -17.0 -28.75" fill="#404040" fill-rule="evenodd" stroke="none"/>
      <path d="M34.75 -29.15 L41.1 -24.4 44.25 -14.4 43.35 -15.4 42.0 -18.9 41.6 -18.5 40.85 -19.75 41.5 -19.75 38.75 -23.75 34.85 -26.0 34.5 -26.4 35.5 -27.15 34.75 -29.15" fill="#626262" fill-rule="evenodd" stroke="none"/>
      <path d="M41.6 -18.5 L42.0 -18.9 43.35 -15.4 44.0 -12.65 38.75 -11.65 39.0 -12.4 39.35 -12.65 39.85 -14.5 40.6 -16.4 41.6 -18.5" fill="#121811" fill-rule="evenodd" stroke="none"/>
      <path d="M14.75 -5.75 L15.5 -5.75 22.25 -6.25 31.35 -9.25 37.0 -11.15 37.6 -11.25 38.75 -11.65 35.75 -7.25 Q37.85 -5.4 37.0 -3.75 L37.5 -3.25 37.7 -3.15 Q38.25 -2.6 39.25 0.85 L39.35 6.85 28.25 8.75 27.85 8.75 17.85 6.25 17.75 4.1 Q16.85 3.1 16.75 1.35 L26.85 0.6 26.5 -1.15 25.35 -1.15 16.25 -1.5 15.85 -1.5 15.35 -3.4 15.6 -3.9 15.25 -3.9 15.25 -4.65 14.85 -4.9 15.25 -5.15 14.75 -5.75 M34.85 -26.0 L38.75 -23.75 41.5 -19.75 40.85 -19.75 40.1 -20.5 39.85 -20.65 39.5 -21.15 38.85 -21.75 38.75 -21.75 37.85 -22.75 37.75 -22.75 37.25 -23.4 37.0 -23.5 35.75 -24.9 35.1 -25.5 34.85 -26.0" fill="#676767" fill-rule="evenodd" stroke="none"/>
      <path d="M15.5 -5.75 L13.75 -11.75 13.85 -12.5 13.35 -13.0 10.1 -22.65 11.75 -22.75 28.5 -24.0 30.0 -24.5 31.5 -14.0 31.35 -9.25 22.25 -6.25 15.5 -5.75 M-24.0 -20.65 L-23.65 -20.4 -23.75 -9.75 -23.9 -9.4 -23.9 -8.4 -23.75 -7.25 -23.9 -3.75 -24.15 -3.5 -24.4 -4.25 -24.65 -4.5 -24.4 -5.75 -24.25 -8.75 -24.25 -10.25 -23.9 -13.75 -24.15 -14.4 -24.15 -17.65 -24.0 -20.65" fill="#030303" fill-rule="evenodd" stroke="none"/>
      <path d="M9.75 -22.65 L9.75 -21.75 9.35 -21.9 9.35 -22.65 9.75 -22.65 M9.0 -22.5 L10.5 -5.4 7.75 -5.15 5.1 -5.5 7.25 -17.4 7.25 -17.5 7.6 -19.15 7.6 -19.4 8.25 -22.5 9.0 -22.5 M9.85 -20.15 L9.5 -20.25 9.5 -21.5 9.85 -21.4 9.85 -20.15 M10.1 -17.15 L9.75 -17.25 9.75 -18.25 10.1 -18.15 10.1 -17.15 M10.0 -19.75 L10.0 -18.65 9.6 -18.75 9.6 -19.9 10.0 -19.75 M10.0 -15.0 L10.35 -14.9 10.35 -14.15 10.0 -14.25 10.0 -15.0 M9.85 -15.75 L9.85 -16.65 10.25 -16.5 10.25 -15.65 9.85 -15.75 M10.5 -12.65 L10.1 -12.75 10.1 -13.25 10.5 -13.15 10.5 -12.65" fill="#242424" fill-rule="evenodd" stroke="none"/>
      <path d="M9.35 -22.65 L9.35 -21.9 9.75 -21.75 9.75 -22.65 10.1 -22.65 13.35 -13.0 13.75 -11.75 15.5 -5.75 14.75 -5.75 10.5 -5.4 9.0 -22.5 9.35 -22.65 M9.85 -20.15 L9.85 -21.4 9.5 -21.5 9.5 -20.25 9.85 -20.15 M10.0 -15.0 L10.0 -14.25 10.35 -14.15 10.35 -14.9 10.0 -15.0 M10.0 -19.75 L9.6 -19.9 9.6 -18.75 10.0 -18.65 10.0 -19.75 M10.1 -17.15 L10.1 -18.15 9.75 -18.25 9.75 -17.25 10.1 -17.15 M9.85 -15.75 L10.25 -15.65 10.25 -16.5 9.85 -16.65 9.85 -15.75 M10.5 -12.65 L10.5 -13.15 10.1 -13.25 10.1 -12.75 10.5 -12.65" fill="#7b7b7b" fill-rule="evenodd" stroke="none"/>
      <path d="M13.75 -11.75 L13.35 -13.0 13.85 -12.5 13.75 -11.75 M7.25 -17.4 L6.75 -16.5 4.75 -7.25 -1.75 -12.15 -3.4 -16.0 -2.5 -18.5 -3.65 -21.65 8.25 -22.5 7.6 -19.4 7.6 -19.15 7.25 -17.5 7.25 -17.4 M-18.0 -3.4 L-18.25 -7.9 -11.75 -7.75 -7.9 -3.75 -6.4 -0.25 -17.9 -0.5 -18.0 -3.4" fill="#060606" fill-rule="evenodd" stroke="none"/>
      <path d="M-17.5 -13.9 L-17.9 -14.75 -17.25 -14.65 -15.75 -18.4 -12.9 -22.4 -12.4 -22.9 -11.5 -17.5 -15.25 -12.4 -17.25 -14.65 -17.5 -13.9" fill="#8b8b8b" fill-rule="evenodd" stroke="none"/>
      <path d="M-11.5 -17.5 L-11.15 -17.15 -8.9 -11.25 Q-6.65 -8.4 -6.5 -7.15 L-11.75 -7.75 -15.25 -12.4 -11.5 -17.5" fill="#484848" fill-rule="evenodd" stroke="none"/>
      <path d="M-18.25 -7.9 L-17.5 -13.9 -17.25 -14.65 -15.25 -12.4 -11.75 -7.75 -18.25 -7.9" fill="#040704" fill-rule="evenodd" stroke="none"/>
      <path d="M-20.65 -11.9 L-19.25 -15.25 -17.9 -14.75 -17.5 -13.9 -18.25 -7.9 -18.0 -3.4 Q-20.75 -3.75 -20.65 -11.9" fill="#3d3d3d" fill-rule="evenodd" stroke="none"/>
      <path d="M37.0 -3.75 Q37.85 -5.4 35.75 -7.25 L38.75 -11.65 44.0 -12.65 44.5 -5.75 44.5 -5.25 37.0 -3.75" fill="#5b5b5b" fill-rule="evenodd" stroke="none"/>
      <path d="M16.25 -1.5 L25.35 -1.15 16.6 -0.25 16.25 -1.5" fill="#3f3f3f" fill-rule="evenodd" stroke="none"/>
      <path d="M7.0 0.35 L15.85 -1.5 16.25 -1.5 16.6 -0.25 7.0 0.35" fill="#2e2e2e" fill-rule="evenodd" stroke="none"/>
      <path d="M37.7 -3.15 L37.5 -3.25 37.0 -3.75 44.5 -5.25 44.85 1.0 37.7 -3.15" fill="#595959" fill-rule="evenodd" stroke="none"/>
      <path d="M16.75 1.35 L6.85 2.1 6.6 0.35 7.0 0.35 16.6 -0.25 16.75 1.35" fill="#1d1d1d" fill-rule="evenodd" stroke="none"/>
      <path d="M46.25 15.35 L46.0 16.0 34.5 17.75 28.35 18.25 45.35 15.5 46.25 15.35" fill="#262626" fill-rule="evenodd" stroke="none"/>
      <path d="M29.85 -24.5 L34.1 -26.4 34.5 -26.4 34.6 -26.25 34.85 -26.0 35.0 -25.9 35.1 -25.5 37.0 -11.0 31.35 -9.15 31.5 -12.25 31.35 -13.75 31.35 -13.9 29.85 -24.5" fill="#212121" fill-opacity="0.50980395" fill-rule="evenodd" stroke="none"/>
      <path d="M35.0 -25.9 L38.6 -23.75 40.5 -21.0 40.75 -20.75 40.75 -20.65 41.0 -20.25 41.1 -19.9 41.35 -19.65 41.35 -19.5 41.25 -19.5 40.85 -19.9 41.35 -18.65 41.5 -18.25 41.35 -18.0 41.25 -17.4 41.1 -17.15 41.0 -16.75 40.6 -16.15 40.5 -15.5 40.25 -15.0 40.0 -14.9 39.85 -14.75 39.35 -16.9 39.25 -19.25 38.85 -21.0 38.75 -21.75 38.6 -22.0 37.85 -22.75 37.6 -22.9 37.6 -21.9 37.75 -21.75 37.85 -19.65 38.25 -17.75 38.35 -16.15 38.85 -13.65 38.85 -13.4 39.0 -12.4 38.85 -11.9 38.85 -11.65 38.75 -11.65 37.1 -22.0 37.0 -23.5 35.6 -25.0 35.75 -23.0 35.85 -22.9 35.85 -22.65 36.85 -15.0 37.0 -14.9 37.1 -13.0 37.5 -11.15 37.0 -11.0 35.1 -25.5 35.0 -25.9 M31.35 -9.15 L22.85 -6.4 22.25 -6.4 22.25 -6.25 21.25 -6.25 15.5 -5.75 14.85 -5.75 14.1 -10.5 13.75 -11.5 13.5 -11.65 13.5 -12.4 13.25 -13.15 13.25 -13.25 12.25 -19.75 12.5 -20.25 11.75 -22.75 14.25 -23.0 15.6 -23.0 16.25 -23.15 21.25 -23.4 28.1 -24.0 28.5 -24.0 28.5 -24.15 29.85 -24.5 31.35 -13.9 31.35 -13.75 31.5 -12.25 31.35 -9.15" fill="#101010" fill-opacity="0.50980395" fill-rule="evenodd" stroke="none"/>
      <path d="M39.85 -14.75 L39.85 -13.9 39.25 -12.5 39.1 -12.4 39.0 -12.4 38.85 -13.4 38.85 -13.65 38.35 -16.15 38.25 -17.75 37.85 -19.65 37.75 -21.75 37.6 -21.9 37.6 -22.9 37.85 -22.75 38.6 -22.0 38.75 -21.75 38.85 -21.0 39.25 -19.25 39.35 -16.9 39.85 -14.75 M38.75 -11.65 L38.6 -11.5 37.5 -11.15 37.1 -13.0 37.0 -14.9 36.85 -15.0 35.85 -22.65 35.85 -22.9 35.75 -23.0 35.6 -25.0 37.0 -23.5 37.1 -22.0 38.75 -11.65" fill="#101010" fill-rule="evenodd" stroke="none"/>
      <path d="M41.35 -19.5 L41.75 -19.25 41.75 -18.75 41.6 -18.65 41.35 -18.65 40.85 -19.9 41.25 -19.5 41.35 -19.5 M44.1 -14.4 L44.75 -13.65 45.0 -6.5 44.6 -6.9 44.5 -7.15 44.35 -8.5 44.25 -11.25 44.0 -13.5 44.1 -14.4" fill="#111111" fill-rule="evenodd" stroke="none"/>
      <path d="M14.85 -5.75 L14.6 -5.75 13.5 -11.65 13.35 -12.0 13.1 -13.0 13.25 -13.15 13.5 -12.4 13.5 -11.65 13.75 -11.5 14.1 -10.5 14.85 -5.75 M11.25 -22.75 L11.75 -22.75 12.5 -20.25 12.25 -19.75 13.25 -13.25 13.1 -13.4 11.75 -18.9 11.85 -19.5 11.25 -22.75" fill="#0b0b0b" fill-rule="evenodd" stroke="none"/>
      <path d="M14.6 -5.75 L6.75 -5.15 5.0 -5.5 4.5 -5.5 -11.9 -7.75 -12.25 -8.4 -17.25 -14.5 -17.25 -14.65 -17.0 -15.15 -16.0 -17.9 -15.65 -19.25 -14.65 -20.25 -14.4 -20.65 -14.25 -20.75 -13.75 -21.25 -13.5 -21.75 -13.25 -21.9 -13.0 -22.15 -12.9 -22.4 -12.4 -22.9 -12.15 -22.9 -5.4 -21.5 -5.0 -21.5 -3.65 -21.65 -3.0 -21.65 3.0 -22.15 3.6 -22.0 9.0 -22.5 9.35 -22.65 10.1 -22.65 10.85 -22.75 11.25 -22.75 11.85 -19.5 11.75 -18.9 13.1 -13.4 13.1 -13.25 13.25 -13.25 13.25 -13.15 13.1 -13.0 13.35 -12.0 13.5 -11.65 14.6 -5.75" fill="#030303" fill-opacity="0.50980395" fill-rule="evenodd" stroke="none"/>
      <path d="M-17.25 -14.5 L-17.5 -13.9 -17.65 -11.5 -18.4 -7.75 -18.0 -4.75 -17.9 -0.5 -20.4 -1.25 -21.0 -1.75 -21.4 -1.9 -21.5 -1.9 -21.9 -7.65 -22.15 -8.0 -22.0 -9.15 -22.0 -9.65 -21.65 -10.25 -20.0 -13.65 -20.0 -13.75 -19.9 -14.15 -19.5 -14.75 -19.25 -15.5 -17.9 -14.65 -17.25 -14.65 -17.25 -14.5 M-24.0 -20.65 L-24.0 -18.5 -24.15 -17.65 -24.15 -13.9 -23.9 -13.9 -23.9 -13.75 -24.0 -12.5 -24.15 -12.25 -24.0 -12.25 -24.0 -9.15 -24.15 -7.9 -24.25 -7.9 -24.15 -7.75 -24.15 -4.0 -24.5 -4.15 -24.65 -4.4 -24.65 -4.65 -24.75 -5.15 -25.4 -5.75 -25.5 -6.0 -25.5 -7.4 -25.4 -8.15 -25.4 -12.75 -25.5 -13.25 -25.4 -13.5 -25.4 -13.9 -25.25 -14.25 -25.4 -17.0 -25.25 -18.4 -25.4 -18.5 -25.4 -18.75 -25.15 -20.25 -25.25 -21.75 -25.15 -22.4 -24.0 -20.65 M-24.65 -20.9 L-24.5 -18.0 -24.4 -20.9 -24.65 -20.9 M-24.65 -16.15 L-24.65 -16.0 -24.5 -15.15 -24.65 -16.15 M-24.9 -11.5 L-24.65 -10.25 -24.75 -11.65 -24.9 -11.5 M-24.9 -7.0 L-24.9 -6.75 -24.75 -5.75 -24.9 -7.0" fill="#000000" fill-opacity="0.50980395" fill-rule="evenodd" stroke="none"/>
      <path d="M13.1 -13.4 L13.25 -13.25 13.1 -13.25 13.1 -13.4" fill="#121212" fill-rule="evenodd" stroke="none"/>
      <path d="M43.35 -15.4 L43.0 -16.15 43.0 -16.5 43.85 -15.0 43.85 -14.9 43.35 -15.4 M44.35 -7.15 L44.35 -8.5 44.5 -7.15 44.35 -7.15 M44.25 -11.25 L44.0 -12.5 44.0 -13.25 44.0 -13.5 44.25 -11.25" fill="#0f0f0f" fill-rule="evenodd" stroke="none"/>
      <path d="M43.35 -15.4 L43.85 -14.9 44.0 -14.75 44.0 -14.65 44.1 -14.5 44.1 -14.4 44.0 -13.5 44.0 -13.25 43.85 -13.5 43.35 -15.4 M45.0 -6.5 L45.1 -6.25 44.5 -5.75 44.35 -7.15 44.5 -7.15 44.6 -6.9 45.0 -6.5" fill="#0e0e0e" fill-opacity="0.50980395" fill-rule="evenodd" stroke="none"/>
    </g>
  </defs>
</svg>
