<?xml version="1.0" encoding="UTF-8" standalone="no"?>
<svg xmlns:xlink="http://www.w3.org/1999/xlink" height="194.8px" width="275.25px" xmlns="http://www.w3.org/2000/svg">
  <g transform="matrix(1.0, 0.0, 0.0, 1.0, 187.15, 59.7)">
    <use height="100.25" transform="matrix(1.0, 0.0, 0.0, 1.0, -50.4, -50.1)" width="100.8" xlink:href="#shape0"/>
    <clipPath id="clipPath0" transform="matrix(1.0, 0.0, 0.0, 1.0, 187.15, 59.7)">
      <use height="138.95" transform="matrix(0.9995, -0.027, 0.027, 0.9995, -187.0944, -55.8682)" width="137.0" xlink:href="#sprite0"/>
    </clipPath>
    <g clip-path="url(#clipPath0)">
      <use height="97.25" transform="matrix(1.0, 0.0, 0.0, 1.0, -48.9, -48.6)" width="97.8" xlink:href="#shape2"/>
    </g>
  </g>
  <defs>
    <g id="shape0" transform="matrix(1.0, 0.0, 0.0, 1.0, 50.4, 50.1)">
      <path d="M41.75 -49.9 L42.3 -49.3 Q50.4 -34.85 50.4 -17.05 50.4 10.75 30.65 30.45 10.95 50.15 -16.8 50.15 -27.25 50.15 -36.45 47.4 -43.4 45.35 -49.65 41.8 L-50.2 41.25 -50.4 40.5 -50.4 33.6 Q-50.4 33.05 -50.0 32.65 -49.65 32.2 -49.1 32.15 L-48.05 32.35 Q-42.15 36.25 -35.55 38.5 -26.75 41.4 -16.75 41.4 7.45 41.4 24.55 24.25 41.7 7.15 41.7 -17.05 41.7 -34.2 33.05 -47.8 32.75 -48.25 32.85 -48.8 32.9 -49.35 33.35 -49.7 33.75 -50.1 34.3 -50.1 L41.0 -50.1 41.75 -49.9" fill="#000000" fill-opacity="0.2901961" fill-rule="evenodd" stroke="none"/>
    </g>
    <g id="sprite0" transform="matrix(1.0, 0.0, 0.0, 1.0, 68.5, 69.45)">
      <use height="138.95" transform="matrix(1.0, 0.0, 0.0, 1.0, -68.5, -69.45)" width="137.0" xlink:href="#shape1"/>
    </g>
    <g id="shape1" transform="matrix(1.0, 0.0, 0.0, 1.0, 68.5, 69.45)">
      <path d="M-68.5 -69.45 L68.5 -69.45 68.5 69.5 Q-57.65 36.05 -68.5 -69.45" fill="#000000" fill-rule="evenodd" stroke="none"/>
    </g>
    <g id="shape2" transform="matrix(1.0, 0.0, 0.0, 1.0, 48.9, 48.6)">
      <path d="M48.9 -17.05 Q48.9 10.15 29.6 29.4 10.35 48.65 -16.8 48.65 -27.0 48.65 -36.05 45.95 -42.8 43.95 -48.9 40.5 L-48.9 33.6 Q-42.85 37.6 -36.05 39.9 -27.0 42.9 -16.75 42.9 8.05 42.9 25.6 25.3 43.2 7.75 43.2 -17.05 43.2 -34.65 34.3 -48.6 L41.0 -48.6 Q48.9 -34.45 48.9 -17.05" fill="#000000" fill-rule="evenodd" stroke="none"/>
    </g>
  </defs>
</svg>
