<?xml version="1.0" encoding="UTF-8" standalone="no"?>
<svg xmlns:xlink="http://www.w3.org/1999/xlink" height="156.6px" width="307.1px" xmlns="http://www.w3.org/2000/svg">
  <g transform="matrix(1.0, 0.0, 0.0, 1.0, 216.7, 59.8)">
    <use height="14.3" transform="matrix(1.0, 0.0, 0.0, 1.0, -153.65, 69.35)" width="117.35" xlink:href="#shape0"/>
    <use height="10.75" transform="matrix(1.0, 0.0, 0.0, 1.0, -216.7, 70.85)" width="168.05" xlink:href="#shape1"/>
    <use height="46.5" transform="matrix(1.0, 0.0, 0.0, 1.0, -15.55, 32.5)" width="57.8" xlink:href="#shape2"/>
    <use height="94.55" transform="matrix(0.9889, -0.1438, 0.1438, 0.9889, -43.6656, -31.6044)" width="37.8" xlink:href="#sprite0"/>
    <use height="448.85" transform="matrix(-0.029, 0.0263, 0.0263, 0.029, 59.25, 1.85)" width="665.1" xlink:href="#sprite2"/>
  </g>
  <defs>
    <g id="shape0" transform="matrix(1.0, 0.0, 0.0, 1.0, 153.65, -69.35)">
      <path d="M-83.1 78.4 L-86.7 78.5 -86.45 79.25 -76.4 78.25 -83.1 78.4 M-93.2 80.05 L-93.25 79.6 -93.15 78.6 -96.9 78.65 Q-96.65 79.1 -96.65 79.7 L-96.65 80.5 -93.2 80.05 M-93.7 70.0 L-93.45 69.55 Q-90.2 69.2 -89.0 69.55 -87.75 69.9 -87.75 71.4 -87.75 72.45 -87.9 72.65 L-88.1 72.95 -90.9 73.3 -93.1 72.95 Q-93.95 72.55 -93.95 71.4 L-93.7 70.0 M-129.55 79.0 L-129.95 79.5 -131.65 80.9 -133.4 80.2 -133.75 78.9 -133.5 77.55 -133.25 77.05 Q-131.3 76.4 -130.25 77.45 -129.55 78.2 -129.55 79.0 M-144.0 80.4 Q-145.4 79.35 -145.4 77.5 -145.4 75.0 -139.9 75.35 -134.45 75.7 -134.45 78.1 L-134.55 79.95 Q-135.45 81.6 -139.3 81.6 -142.45 81.6 -144.0 80.4 M-148.45 79.85 L-150.9 80.2 Q-153.65 80.2 -153.65 78.2 -153.65 77.2 -153.35 76.9 L-153.1 76.45 Q-150.5 76.1 -149.35 76.45 -148.1 76.85 -148.1 78.3 -148.1 79.35 -148.25 79.55 L-148.45 79.85 M-59.15 73.85 L-57.7 73.5 -55.7 72.85 -51.95 71.75 Q-50.1 71.1 -48.8 71.1 L-48.65 71.6 -48.65 72.6 Q-48.65 74.35 -53.25 76.3 L-54.85 76.85 Q-36.3 76.15 -36.3 79.0 -36.3 79.95 -60.9 81.9 L-85.75 83.65 Q-99.85 83.65 -102.05 83.3 -103.1 83.1 -103.1 82.65 L-102.9 81.6 -102.65 81.45 Q-104.15 81.25 -105.1 80.7 -106.3 79.95 -106.3 78.9 L-106.3 78.8 -109.1 78.8 Q-120.25 78.8 -121.9 78.5 -122.8 78.3 -122.85 77.9 L-122.75 76.8 Q-122.3 74.7 -120.75 74.7 -103.75 74.25 -95.35 74.15 L-79.35 74.0 Q-80.2 73.3 -80.2 72.7 L-79.95 71.35 -79.7 70.95 Q-76.05 69.95 -74.65 71.5 -74.0 72.3 -74.0 73.5 L-74.35 73.95 -59.15 73.85" fill="#6d0101" fill-rule="evenodd" stroke="none"/>
    </g>
    <g id="shape1" transform="matrix(1.0, 0.0, 0.0, 1.0, 216.7, -70.85)">
      <path d="M-214.05 77.8 Q-213.3 78.1 -213.3 79.25 -213.3 80.35 -213.7 80.6 L-214.7 80.9 -216.3 80.4 Q-216.4 80.05 -216.65 79.85 L-216.7 78.8 Q-216.7 77.7 -216.4 77.6 L-215.4 77.4 -214.05 77.8 M-203.95 76.95 L-204.4 76.1 -203.85 75.05 Q-202.15 74.2 -200.6 74.2 L-200.3 74.7 -200.25 75.85 -200.3 76.95 -200.8 77.05 -202.35 77.4 Q-203.5 77.4 -203.95 76.95 M-158.25 76.45 L-159.5 76.8 -162.15 76.3 Q-165.85 75.8 -175.75 76.1 -175.85 75.8 -176.15 75.75 L-176.3 74.7 Q-176.3 73.65 -176.0 73.5 L-175.75 73.3 Q-164.0 72.4 -160.1 73.25 -157.75 73.75 -157.75 75.4 -157.75 76.5 -158.0 76.6 L-158.25 76.45 M-143.9 72.45 Q-142.6 73.4 -142.6 74.0 -142.6 75.05 -142.85 75.25 L-143.15 75.4 -151.7 75.8 Q-152.95 76.0 -152.95 76.45 L-154.7 76.8 Q-155.8 76.8 -156.1 76.4 L-156.45 75.6 Q-152.5 70.0 -147.2 71.0 -145.35 71.35 -143.9 72.45 M-51.5 75.35 L-50.05 76.65 -50.55 77.4 Q-55.65 77.6 -58.95 75.4 L-58.45 74.35 -54.3 74.25 Q-52.0 74.1 -51.45 74.9 L-51.5 75.35 M-74.7 72.5 L-73.9 71.8 Q-72.5 72.6 -70.6 72.6 L-68.4 72.6 Q-69.15 73.1 -69.9 73.4 L-70.65 73.65 -70.05 73.8 Q-69.6 73.95 -69.4 74.25 L-69.35 74.0 Q-64.8 73.8 -63.5 74.5 -63.05 74.75 -63.05 75.4 -63.05 76.45 -63.3 76.65 L-63.6 76.8 -68.6 76.8 -69.55 76.05 -69.7 76.1 -76.8 76.1 Q-76.8 77.15 -77.05 77.3 L-77.35 77.4 -86.65 77.85 -89.7 78.0 -89.15 78.65 -90.45 79.5 -92.25 78.6 -93.0 78.1 -102.2 77.4 -103.0 77.4 -103.05 77.45 -114.15 78.1 -116.55 78.1 Q-115.9 78.3 -115.9 78.8 -115.9 79.85 -116.1 80.05 L-116.35 80.2 -131.15 80.2 -131.55 79.85 -131.65 78.8 -142.6 78.8 -142.6 80.05 -146.3 81.0 -150.9 81.6 Q-153.9 81.6 -157.25 80.6 -160.45 79.6 -160.45 78.8 -160.45 77.7 -160.2 77.6 L-160.0 77.75 -151.15 77.95 -145.35 78.25 -145.4 77.4 Q-145.4 76.35 -145.15 76.25 L-144.9 76.1 -132.8 76.1 -133.05 75.4 -132.8 74.2 -132.55 74.35 -119.0 74.8 -118.8 74.35 -106.45 73.15 Q-97.35 72.65 -97.35 72.95 L-92.65 73.5 Q-91.6 73.75 -91.15 74.2 L-91.2 74.7 -81.6 74.7 -81.35 73.5 -81.1 73.3 -74.6 73.3 -74.7 72.5 M-48.65 72.5 L-49.25 73.05 -50.75 73.3 Q-51.9 73.3 -52.35 72.85 L-52.65 72.3 -48.65 72.15 -48.65 72.5" fill="#430101" fill-rule="evenodd" stroke="none"/>
    </g>
    <g id="shape2" transform="matrix(1.0, 0.0, 0.0, 1.0, 15.55, -32.5)">
      <path d="M0.25 37.5 L28.9 54.3 2.65 74.0" fill="none" stroke="#000000" stroke-linecap="round" stroke-linejoin="round" stroke-width="10.0"/>
      <path d="M-10.55 73.35 L25.9 67.35 37.25 43.65" fill="none" stroke="#000000" stroke-linecap="round" stroke-linejoin="round" stroke-width="10.0"/>
    </g>
    <g id="sprite0" transform="matrix(1.0, 0.0, 0.0, 1.0, 3.1, 0.0)">
      <use height="71.05" transform="matrix(1.0, 0.0, 0.0, 1.0, -3.1, 23.5)" width="27.65" xlink:href="#shape3"/>
      <use height="27.55" transform="matrix(0.9456, -0.3169, 0.3169, 0.9456, -0.0129, 8.6956)" width="27.5" xlink:href="#sprite1"/>
    </g>
    <g id="shape3" transform="matrix(1.0, 0.0, 0.0, 1.0, 3.1, -23.5)">
      <path d="M19.55 47.05 L16.1 28.5" fill="none" stroke="#000000" stroke-linecap="round" stroke-linejoin="round" stroke-width="10.0"/>
      <path d="M16.2 29.95 L12.0 82.55" fill="none" stroke="#000000" stroke-linecap="round" stroke-linejoin="round" stroke-width="10.0"/>
      <path d="M14.1 29.45 L1.9 56.5 3.75 89.55" fill="none" stroke="#000000" stroke-linecap="round" stroke-linejoin="round" stroke-width="10.0"/>
    </g>
    <g id="sprite1" transform="matrix(1.0, 0.0, 0.0, 1.0, -2.8, -6.75)">
      <use height="27.55" transform="matrix(1.0, 0.0, 0.0, 1.0, 2.8, 6.75)" width="27.5" xlink:href="#shape4"/>
    </g>
    <g id="shape4" transform="matrix(1.0, 0.0, 0.0, 1.0, -2.8, -6.75)">
      <path d="M28.05 13.0 Q31.15 17.75 30.0 23.3 29.2 26.2 27.95 28.35 26.45 30.5 24.1 32.0 19.35 35.15 13.8 34.0 L13.75 34.0 Q8.15 32.8 5.05 28.05 1.95 23.3 3.1 17.7 4.25 12.15 9.05 9.0 13.8 5.9 19.35 7.1 24.9 8.25 28.05 13.0" fill="#000000" fill-rule="evenodd" stroke="none"/>
    </g>
    <g id="sprite2" transform="matrix(1.0, 0.0, 0.0, 1.0, 0.0, 0.0)">
      <use height="448.85" transform="matrix(1.0, 0.0, 0.0, 1.0, 0.0, 0.0)" width="665.1" xlink:href="#shape5"/>
    </g>
    <g id="shape5" transform="matrix(1.0, 0.0, 0.0, 1.0, 0.0, 0.0)">
      <path d="M664.25 123.6 Q663.25 125.45 657.9 126.5 647.1 128.65 625.1 124.95 621.7 125.75 616.85 127.8 607.05 131.95 599.5 138.45 595.45 141.95 592.25 145.95 596.6 137.0 599.4 134.6 604.05 130.6 613.4 117.95 L602.75 116.6 600.85 116.7 Q599.05 117.1 597.9 118.55 598.9 116.25 598.4 107.6 L597.4 89.95 Q597.4 83.7 595.0 83.1 L590.1 83.25 Q587.9 82.85 583.5 83.1 L573.4 83.95 Q568.8 84.3 545.0 83.5 517.75 82.6 514.1 82.6 507.0 82.6 504.5 84.3 503.7 84.8 503.5 85.45 L503.4 85.95 502.4 88.55 502.3 88.95 500.75 88.8 500.35 87.45 507.3 80.5 527.55 80.5 527.8 80.5 541.45 80.5 565.85 80.5 593.5 81.3 596.8 74.8 595.85 76.85 Q610.2 105.65 612.2 107.6 615.85 111.25 624.65 116.3 637.25 123.5 646.4 123.5 655.4 123.5 658.25 122.5 658.95 122.25 659.25 122.0 L660.9 122.4 Q663.25 123.0 664.25 123.6 M581.3 188.05 Q581.65 191.9 582.45 195.9 L595.85 215.25 597.55 216.25 622.25 282.95 Q647.25 351.25 648.8 359.35 650.3 367.5 648.1 387.8 646.95 397.95 645.55 406.5 L610.55 410.6 609.15 422.3 608.15 429.5 514.5 429.0 Q514.5 431.8 504.35 439.6 L494.15 446.85 Q497.85 447.75 549.7 447.55 L561.5 447.6 Q524.2 448.2 509.75 448.8 495.8 449.35 487.4 444.9 481.45 441.8 479.7 437.4 478.55 434.55 479.7 420.75 480.8 407.4 482.1 404.05 483.15 401.5 483.95 381.4 L484.55 361.8 Q479.9 343.1 474.1 321.35 462.5 277.85 456.9 262.6 451.3 247.35 432.4 242.1 426.55 240.45 420.0 239.95 L414.65 239.85 Q370.95 252.55 327.45 240.95 313.85 237.35 301.9 231.75 L292.7 226.85 277.25 184.55 Q267.6 163.2 240.15 150.2 231.55 146.1 222.25 143.4 L214.65 141.45 Q220.75 137.9 239.05 140.15 248.2 141.3 256.1 143.1 245.45 120.75 160.7 115.85 118.3 113.4 78.05 115.45 L74.8 116.25 75.6 96.75 68.4 95.85 75.0 95.75 83.75 95.15 159.35 95.95 285.35 95.15 294.3 94.3 Q292.15 97.15 290.55 106.1 288.8 115.65 291.05 117.9 292.55 119.4 297.65 120.75 302.05 121.9 302.45 123.6 L303.25 126.85 306.1 127.0 312.7 126.25 Q322.65 123.8 325.2 114.65 327.75 105.6 328.35 97.95 L328.45 98.4 351.2 97.55 351.2 102.45 327.65 104.9 326.85 110.6 352.85 113.0 357.75 128.45 364.25 130.9 362.6 91.05 380.75 90.65 Q369.25 94.55 369.4 104.9 369.55 112.0 374.0 118.7 L375.3 119.55 Q377.15 120.35 379.7 120.35 L412.9 119.65 Q438.35 119.1 445.65 119.35 L434.95 118.7 Q436.0 114.85 437.4 111.0 440.15 103.45 442.2 103.25 L390.25 106.5 448.8 101.65 452.05 93.5 451.2 105.7 464.55 107.75 Q478.55 109.35 482.1 107.3 485.65 105.25 486.7 100.4 L487.6 90.7 487.7 90.45 Q488.15 89.6 487.9 88.85 L489.45 89.0 489.4 88.75 491.85 89.0 491.6 88.15 491.75 88.15 491.85 88.6 495.95 89.0 495.8 88.4 496.7 88.45 496.75 88.6 499.25 88.85 500.3 96.4 498.75 92.6 497.45 95.0 Q496.1 97.85 496.1 99.95 496.1 102.0 499.45 108.85 L502.75 115.25 527.4 115.25 Q554.1 143.25 556.1 144.6 556.9 145.15 550.4 134.55 543.1 122.55 542.75 119.95 542.35 116.95 550.1 118.75 554.45 119.75 563.4 122.6 568.0 123.85 576.15 124.05 L583.4 123.95 579.45 123.45 588.75 122.6 588.9 122.6 583.4 123.95 Q576.7 125.9 573.25 134.1 L570.85 140.4 Q569.55 143.8 568.1 145.25 565.15 148.2 561.0 150.0 L557.4 151.25 566.1 155.25 573.4 160.6 575.1 170.35 Q576.75 180.85 576.75 184.6 576.75 188.35 579.1 193.55 L581.4 197.95 Q581.25 194.95 581.25 190.55 L581.3 188.05 M597.55 156.15 Q604.15 148.1 614.65 142.35 L616.5 142.15 Q604.7 147.95 597.55 156.15 M628.1 140.7 L630.55 140.35 644.55 139.05 646.8 138.85 637.0 140.05 628.1 140.7 M78.05 136.6 L76.4 127.65 77.2 121.95 77.25 121.95 78.05 115.45 78.05 136.6 M27.65 87.75 L27.65 75.6 5.7 76.45 2.45 74.8 1.95 61.8 7.3 61.8 7.3 55.3 1.65 54.5 1.65 55.2 0.0 15.45 19.5 13.85 23.6 11.4 24.5 14.1 24.4 75.6 27.65 75.6 27.75 36.6 28.45 78.85 38.0 80.7 Q48.15 82.7 51.2 83.75 56.1 85.35 78.05 88.6 L49.6 87.0 Q47.05 86.5 36.7 87.1 L27.65 87.75 M67.5 20.35 L364.25 21.95 365.85 17.1 375.0 17.05 372.35 17.1 371.55 39.85 Q369.5 42.1 362.9 43.5 349.7 46.35 326.85 42.3 L329.5 43.55 Q333.2 45.05 338.45 46.25 349.15 48.75 363.5 49.4 353.7 49.45 352.85 49.6 349.8 50.1 328.25 43.4 L307.3 36.6 285.35 37.4 187.6 38.0 Q89.25 38.45 86.2 37.4 82.2 36.1 75.3 30.1 68.05 23.75 67.5 20.35 M538.2 11.4 L541.45 16.25 543.9 21.15 538.2 11.4 M560.15 18.7 L566.65 22.75 568.25 23.55 572.85 25.0 Q580.8 26.65 589.45 23.6 598.55 20.35 604.4 24.7 608.95 28.1 608.95 32.55 608.95 36.6 600.0 64.25 L600.35 67.05 600.3 66.95 598.55 70.85 600.0 64.25 579.5 39.85 Q578.7 37.45 577.25 34.95 575.2 31.4 567.5 24.7 L560.15 18.7 M623.85 113.75 L626.6 115.3 Q624.65 114.6 624.1 114.05 L623.85 113.75 M591.8 28.15 Q589.45 30.3 589.45 33.35 589.45 36.4 591.8 38.5 594.2 40.65 597.55 40.65 600.95 40.65 603.3 38.5 605.7 36.4 605.7 33.35 605.7 30.3 603.3 28.15 600.9 26.0 597.55 26.0 594.2 26.0 591.8 28.15 M556.5 113.1 Q562.3 115.6 567.4 119.25 571.0 121.85 574.65 122.85 L572.75 122.6 Q566.25 121.8 561.95 118.2 559.0 115.15 556.5 113.1 M487.8 88.85 L487.6 90.7 Q486.45 92.5 482.3 93.45 L482.75 92.2 482.95 89.0 482.0 85.7 485.0 87.2 485.35 88.6 487.8 88.85 M506.35 103.25 L507.4 103.25 508.2 103.3 Q510.3 104.25 521.85 105.35 L526.8 105.85 527.75 106.0 539.7 107.85 540.1 107.95 540.8 108.15 537.0 107.85 Q521.1 106.95 517.4 105.95 511.15 104.25 506.35 103.25 M497.6 129.75 L495.15 133.4 460.45 134.9 478.8 191.9 Q496.15 186.35 539.05 199.5 560.5 206.05 578.45 213.75 573.2 203.2 570.85 183.15 L569.55 165.15 542.25 136.4 522.95 135.4 Q514.6 117.7 504.05 123.8 500.75 125.7 497.6 129.75 M247.35 48.8 L243.1 49.6 238.15 49.6 247.35 48.8 M409.25 88.85 L410.0 88.8 410.9 88.9 409.25 88.85 M412.1 88.6 L412.2 88.6 415.65 88.95 412.2 88.9 412.1 88.6 M416.05 88.3 L416.2 88.3 416.25 88.6 420.35 89.0 416.25 88.95 416.05 88.3 M420.35 89.0 L420.25 88.7 420.5 88.7 420.35 89.0 M470.6 85.05 L470.4 85.05 470.6 85.05 M294.8 93.9 Q298.45 91.25 313.2 91.3 L328.45 91.9 348.8 91.9 352.85 94.3 328.4 95.15 328.45 91.9 Q320.55 91.7 312.3 91.9 297.55 92.2 294.8 93.9 M314.65 149.6 L326.0 147.15 365.05 147.15 365.85 143.9 369.9 131.7 361.0 130.9 350.4 141.45 261.0 142.3 254.45 150.4 259.5 155.35 Q265.65 161.95 271.15 170.05 288.65 195.85 292.7 226.85 L301.65 223.6 Q299.35 221.45 296.7 217.65 291.4 210.0 289.55 201.55 288.5 196.8 288.6 192.1 289.1 213.6 310.05 227.45 331.85 241.9 365.05 240.65 400.6 239.4 419.7 227.75 440.75 214.95 439.05 191.05 437.5 170.25 417.8 159.05 411.65 155.6 404.4 153.45 L398.4 152.05 388.15 163.9 388.05 161.2 396.45 151.25 373.65 149.25 362.75 148.3 363.75 152.75 364.3 153.55 Q358.85 153.25 351.45 153.25 333.15 153.25 317.9 155.3 302.65 157.35 294.1 174.4 290.0 182.7 288.7 190.55 290.0 169.4 314.65 149.6 M386.5 132.75 Q386.15 130.45 384.45 128.65 382.3 126.45 379.35 126.45 376.4 126.45 374.25 128.65 372.15 130.85 372.15 133.9 372.15 136.95 374.25 139.15 376.4 141.35 379.35 141.35 382.3 141.35 384.45 139.15 385.9 137.6 386.4 135.65 L386.05 144.3 Q430.35 146.5 438.9 177.35 441.6 187.0 440.35 198.35 439.75 204.05 438.6 207.8 L445.55 206.8 456.0 200.35 Q459.1 150.15 423.15 135.25 411.9 130.6 398.1 130.05 L386.55 130.45 386.5 132.75 M342.2 225.35 Q374.25 209.1 377.4 178.25 378.4 168.15 376.15 157.7 L373.65 149.25 Q387.6 185.2 364.7 209.65 357.55 217.25 347.6 222.8 L342.2 225.35 M339.05 226.85 Q346.35 225.9 352.85 222.7 L350.25 224.3 345.55 226.85 339.05 226.85 M382.95 187.3 L383.55 185.5 388.6 183.75 382.95 187.3 M371.25 179.1 L371.35 177.65 371.4 173.3 Q371.55 176.2 371.25 179.1 M480.75 194.4 L483.7 197.0 Q487.0 200.35 488.95 204.2 495.15 216.6 485.25 229.6 L486.25 235.55 525.4 379.9 527.9 382.35 631.55 380.85 632.05 351.1 584.4 226.65 Q574.1 219.2 557.0 212.0 522.8 197.65 488.7 198.85 L485.65 196.65 Q482.3 194.4 480.75 194.4 M471.35 201.85 L462.9 202.85 461.75 205.6 Q460.55 209.0 460.2 212.25 458.95 222.7 466.4 227.65 478.3 235.55 467.9 228.15 L483.25 225.65 Q485.35 219.2 485.8 212.8 486.7 200.05 478.3 200.35 L471.35 201.85 M157.6 88.05 L157.45 88.05 157.45 88.0 157.6 88.0 157.6 88.05 M153.55 88.1 L153.4 88.1 153.4 88.05 153.5 88.05 153.55 88.1 M149.5 88.1 L149.35 88.1 149.35 88.05 149.45 88.05 149.5 88.1 M76.45 46.45 L72.35 44.7 Q70.45 44.7 63.8 38.0 66.2 40.05 70.55 42.9 L76.45 46.45 M302.25 128.7 Q302.25 125.95 300.15 123.95 298.0 122.0 295.05 122.0 292.05 122.0 289.95 123.95 287.85 125.9 287.85 128.7 287.85 131.5 289.95 133.45 292.05 135.4 295.05 135.4 298.0 135.4 300.15 133.45 302.25 131.45 302.25 128.7 M50.4 25.2 Q53.2 25.75 56.6 29.15 59.55 32.1 61.0 34.95 L61.3 35.45 Q52.1 25.9 50.4 25.2 M10.55 28.45 L9.75 67.5 15.45 66.65 15.45 28.45 10.55 28.45 M62.0 94.95 Q53.35 93.65 50.4 92.7 47.35 91.65 37.2 91.25 L27.65 91.05 45.55 91.05 52.25 92.5 Q58.9 93.95 62.0 94.95" fill="#313238" fill-rule="evenodd" stroke="none"/>
      <path d="M626.6 115.3 Q631.05 116.85 642.8 118.9 L659.3 121.5 659.25 122.0 Q658.95 122.25 658.25 122.5 655.4 123.5 646.4 123.5 637.25 123.5 624.65 116.3 615.85 111.25 612.2 107.6 610.2 105.65 595.85 76.85 L596.8 74.8 598.55 70.85 600.3 66.95 600.35 67.05 611.1 89.4 Q621.5 110.7 623.85 113.75 L624.1 114.05 Q624.65 114.6 626.6 115.3" fill="#a8aab2" fill-rule="evenodd" stroke="none"/>
      <path d="M664.25 123.6 Q667.65 132.65 657.8 137.35 656.75 137.9 646.8 138.85 L644.55 139.05 630.55 140.35 628.1 140.7 621.5 141.55 616.5 142.15 614.65 142.35 Q604.15 148.1 597.55 156.15 591.3 163.75 588.55 173.4 586.55 180.6 586.6 186.6 L586.7 188.3 587.0 191.05 597.55 216.25 595.85 215.25 582.45 195.9 Q581.65 191.9 581.3 188.05 581.35 180.7 582.1 174.6 583.05 166.45 589.5 151.85 L592.25 145.95 Q595.45 141.95 599.5 138.45 607.05 131.95 616.85 127.8 621.7 125.75 625.1 124.95 647.1 128.65 657.9 126.5 663.25 125.45 664.25 123.6" fill="#323439" fill-rule="evenodd" stroke="none"/>
      <path d="M375.0 17.05 L508.15 15.45 508.95 3.25 517.9 0.0 519.5 10.6 516.25 21.95 543.9 21.15 541.45 16.25 560.15 18.7 567.5 24.7 Q575.2 31.4 577.25 34.95 578.7 37.45 579.5 39.85 L578.85 39.05 578.85 50.4 489.55 49.85 489.45 49.6 486.2 49.6 486.3 49.85 484.6 49.85 484.55 49.6 481.3 49.6 481.35 49.8 480.55 49.8 480.5 49.6 474.8 49.6 474.85 49.75 471.6 49.75 471.55 49.6 465.05 49.6 465.1 49.7 464.3 49.7 464.25 49.6 461.0 49.6 461.05 49.65 460.2 49.65 460.15 49.6 456.9 49.6 456.9 49.65 456.15 49.65 456.1 49.6 452.85 49.6 452.85 49.65 452.05 49.65 452.05 49.6 448.8 49.6 447.95 49.6 444.7 49.6 Q384.2 49.3 363.5 49.4 349.15 48.75 338.45 46.25 333.2 45.05 329.5 43.55 L326.85 42.3 Q349.7 46.35 362.9 43.5 369.5 42.1 371.55 39.85 L372.35 17.1 375.0 17.05" fill="#626672" fill-rule="evenodd" stroke="none"/>
      <path d="M596.8 74.8 L593.5 81.3 565.85 80.5 571.55 80.5 561.8 78.85 Q558.9 78.45 554.4 75.0 550.4 71.95 548.8 72.35 546.75 72.9 543.9 76.75 L541.45 80.5 527.8 80.5 Q529.7 80.45 531.1 79.05 532.5 77.65 532.5 75.6 532.5 73.6 531.1 72.15 529.7 70.75 527.65 70.75 525.6 70.75 524.2 72.15 522.75 73.6 522.75 75.6 522.75 77.65 524.2 79.05 525.6 80.45 527.55 80.5 L507.3 80.5 500.35 87.45 489.55 49.85 578.85 50.4 578.85 39.05 579.5 39.85 600.0 64.25 598.55 70.85 596.8 74.8 M491.75 88.15 L491.6 88.15 480.55 49.8 481.35 49.8 491.75 88.15 M485.0 87.2 L482.0 85.7 471.6 49.75 474.85 49.75 485.0 87.2 M496.7 88.45 L495.8 88.4 484.6 49.85 486.3 49.85 496.7 88.45 M453.2 84.55 L443.1 49.6 436.6 49.6 446.0 84.35 445.8 84.35 435.75 49.6 432.5 49.6 441.95 84.25 441.75 84.25 431.7 49.6 428.45 49.6 437.85 84.15 437.65 84.15 427.65 49.6 424.4 49.6 433.75 84.05 433.55 84.05 423.6 49.6 420.35 49.6 429.65 83.95 429.45 83.95 419.5 49.6 413.0 49.6 422.45 84.4 422.35 84.65 412.2 49.6 405.7 49.6 416.2 88.3 416.05 88.3 404.9 49.6 401.65 49.6 412.2 88.6 412.1 88.6 400.8 49.6 397.55 49.6 408.15 88.6 410.0 88.8 409.25 88.85 408.1 88.85 396.75 49.6 390.25 49.6 400.8 88.6 402.5 88.8 400.75 88.75 389.45 49.6 386.2 49.6 396.75 88.6 397.7 88.7 395.0 88.65 383.75 49.6 380.5 49.6 391.05 88.6 390.75 88.65 387.8 86.2 172.85 87.9 161.8 49.6 238.15 49.6 243.1 49.6 247.35 48.8 262.1 45.95 Q279.1 42.05 284.1 38.5 L285.35 37.4 307.3 36.6 328.25 43.4 Q349.8 50.1 352.85 49.6 353.7 49.45 363.5 49.4 384.2 49.3 444.7 49.6 L454.2 84.6 453.2 84.55 M406.3 88.85 L404.85 88.8 404.8 88.7 406.3 88.85 M464.3 49.7 L465.1 49.7 474.7 85.15 474.5 85.15 464.3 49.7 M460.2 49.65 L461.05 49.65 470.6 85.05 470.4 85.05 460.2 49.65 M456.15 49.65 L456.9 49.65 466.5 84.95 466.35 84.95 456.15 49.65 M447.95 49.6 L448.8 49.6 458.3 84.7 458.1 84.7 447.95 49.6 M452.05 49.65 L452.85 49.65 462.4 84.8 462.2 84.8 452.05 49.65 M161.65 88.0 L161.5 88.0 150.4 49.6 151.2 49.6 161.65 88.0 M142.2 88.15 L142.05 88.15 130.9 49.6 131.7 49.6 142.2 88.15 M134.85 88.2 L134.75 88.2 123.6 49.6 124.4 49.6 134.85 88.2 M130.8 88.25 L130.7 88.25 119.5 49.6 120.35 49.6 130.8 88.25 M126.75 88.3 L126.65 88.3 115.45 49.6 116.25 49.6 126.75 88.3 M119.45 88.35 L119.3 88.35 108.15 49.6 108.95 49.6 119.45 88.35 M115.4 88.35 L113.65 88.4 102.45 49.6 104.9 49.6 115.4 88.35 M109.7 88.4 L84.55 88.6 83.75 49.6 99.2 49.6 109.7 88.4 M165.7 87.95 L165.55 87.95 154.45 49.6 155.3 49.6 165.7 87.95 M138.2 49.6 L139.05 49.6 149.45 88.05 149.35 88.05 138.2 49.6 M142.3 49.6 L143.1 49.6 153.5 88.05 153.4 88.05 142.3 49.6 M146.35 49.6 L147.15 49.6 157.6 88.0 157.45 88.0 146.35 49.6" fill="#494c55" fill-rule="evenodd" stroke="none"/>
      <path d="M527.8 80.5 L527.55 80.5 Q525.6 80.45 524.2 79.05 522.75 77.65 522.75 75.6 522.75 73.6 524.2 72.15 525.6 70.75 527.65 70.75 529.7 70.75 531.1 72.15 532.5 73.6 532.5 75.6 532.5 77.65 531.1 79.05 529.7 80.45 527.8 80.5 M591.8 28.15 Q594.2 26.0 597.55 26.0 600.9 26.0 603.3 28.15 605.7 30.3 605.7 33.35 605.7 36.4 603.3 38.5 600.95 40.65 597.55 40.65 594.2 40.65 591.8 38.5 589.45 36.4 589.45 33.35 589.45 30.3 591.8 28.15 M302.25 128.7 Q302.25 131.45 300.15 133.45 298.0 135.4 295.05 135.4 292.05 135.4 289.95 133.45 287.85 131.5 287.85 128.7 287.85 125.9 289.95 123.95 292.05 122.0 295.05 122.0 298.0 122.0 300.15 123.95 302.25 125.95 302.25 128.7" fill="#7b7a81" fill-rule="evenodd" stroke="none"/>
      <path d="M502.3 88.95 L502.4 88.55 503.4 85.95 503.5 85.45 Q503.7 84.8 504.5 84.3 507.0 82.6 514.1 82.6 517.75 82.6 545.0 83.5 568.8 84.3 573.4 83.95 L583.5 83.1 Q587.9 82.85 590.1 83.25 L595.0 83.1 Q597.4 83.7 597.4 89.95 L598.4 107.6 Q598.9 116.25 597.9 118.55 L597.4 119.25 595.45 121.1 593.9 121.6 588.9 122.6 588.75 122.6 579.45 123.45 574.65 122.85 Q571.0 121.85 567.4 119.25 562.3 115.6 556.5 113.1 L554.1 111.25 553.7 111.0 561.6 113.6 Q573.45 117.55 576.1 117.95 578.95 118.35 580.5 116.5 L583.4 112.6 Q585.25 110.8 583.65 106.05 582.3 102.0 579.4 97.95 577.25 94.95 570.5 94.5 L560.1 94.6 502.3 88.95 M508.2 103.3 L526.8 105.85 521.85 105.35 Q510.3 104.25 508.2 103.3 M539.7 107.85 L542.5 108.3 540.8 108.15 540.1 107.95 539.7 107.85" fill="#414244" fill-rule="evenodd" stroke="none"/>
      <path d="M500.75 88.8 L502.3 88.95 560.1 94.6 570.5 94.5 Q577.25 94.95 579.4 97.95 582.3 102.0 583.65 106.05 585.25 110.8 583.4 112.6 L580.5 116.5 Q578.95 118.35 576.1 117.95 573.45 117.55 561.6 113.6 L553.7 111.0 Q550.6 109.2 542.5 108.3 L539.7 107.85 527.75 106.0 526.8 105.85 508.2 103.3 507.4 103.25 506.35 103.25 502.75 102.6 500.3 96.4 499.25 88.85 499.2 88.6 500.75 88.8 M386.4 135.65 Q385.9 137.6 384.45 139.15 382.3 141.35 379.35 141.35 376.4 141.35 374.25 139.15 372.15 136.95 372.15 133.9 372.15 130.85 374.25 128.65 376.4 126.45 379.35 126.45 382.3 126.45 384.45 128.65 386.15 130.45 386.5 132.75 L386.4 135.65" fill="#55585e" fill-rule="evenodd" stroke="none"/>
      <path d="M517.9 0.0 L539.05 0.8 538.2 11.4 543.9 21.15 516.25 21.95 519.5 10.6 517.9 0.0" fill="#484954" fill-rule="evenodd" stroke="none"/>
      <path d="M500.35 87.45 L500.75 88.8 499.2 88.6 499.25 88.85 496.75 88.6 496.7 88.45 486.3 49.85 486.2 49.6 489.45 49.6 489.55 49.85 500.35 87.45 M495.8 88.4 L495.95 89.0 491.85 88.6 491.75 88.15 481.35 49.8 481.3 49.6 484.55 49.6 484.6 49.85 495.8 88.4 M491.6 88.15 L491.85 89.0 489.4 88.75 489.45 89.0 487.9 88.85 487.8 88.6 487.8 88.85 485.35 88.6 485.0 87.2 474.85 49.75 474.8 49.6 480.5 49.6 480.55 49.8 491.6 88.15 M482.0 85.7 L482.95 89.0 481.3 85.35 474.7 85.15 465.1 49.7 465.05 49.6 471.55 49.6 471.6 49.75 482.0 85.7 M446.0 84.35 L436.6 49.6 443.1 49.6 453.2 84.55 446.0 84.35 M454.2 84.6 L444.7 49.6 447.95 49.6 458.1 84.7 454.2 84.6 M161.8 49.6 L172.85 87.9 173.15 89.0 169.8 88.7 169.9 89.0 165.85 88.6 165.7 87.95 155.3 49.6 161.8 49.6 M391.05 88.6 L380.5 49.6 383.75 49.6 395.0 88.65 391.05 88.6 M397.7 88.7 L396.75 88.6 386.2 49.6 389.45 49.6 400.75 88.75 397.7 88.7 M402.5 88.8 L400.8 88.6 390.25 49.6 396.75 49.6 408.1 88.85 406.3 88.85 404.8 88.7 404.85 88.8 402.5 88.8 M410.0 88.8 L408.15 88.6 397.55 49.6 400.8 49.6 412.1 88.6 412.2 88.9 410.9 88.9 410.0 88.8 M412.2 88.6 L401.65 49.6 404.9 49.6 416.05 88.3 416.25 88.95 415.65 88.95 412.2 88.6 M416.2 88.3 L405.7 49.6 412.2 49.6 422.35 84.65 420.5 88.7 420.25 88.7 420.35 89.0 416.25 88.6 416.2 88.3 M422.45 84.4 L413.0 49.6 419.5 49.6 429.45 83.95 422.75 83.75 422.45 84.4 M429.65 83.95 L420.35 49.6 423.6 49.6 433.55 84.05 429.65 83.95 M433.75 84.05 L424.4 49.6 427.65 49.6 437.65 84.15 433.75 84.05 M437.85 84.15 L428.45 49.6 431.7 49.6 441.75 84.25 437.85 84.15 M441.95 84.25 L432.5 49.6 435.75 49.6 445.8 84.35 441.95 84.25 M461.05 49.65 L461.0 49.6 464.25 49.6 464.3 49.7 474.5 85.15 470.6 85.05 461.05 49.65 M456.9 49.65 L456.9 49.6 460.15 49.6 460.2 49.65 470.4 85.05 466.5 84.95 456.9 49.65 M452.85 49.65 L452.85 49.6 456.1 49.6 456.15 49.65 466.35 84.95 462.4 84.8 452.85 49.65 M448.8 49.6 L452.05 49.6 452.05 49.65 462.2 84.8 458.3 84.7 448.8 49.6 M165.55 87.95 L165.85 89.0 161.8 88.6 161.65 88.0 151.2 49.6 154.45 49.6 165.55 87.95 M161.5 88.0 L161.8 89.0 157.75 88.6 157.6 88.05 157.6 88.0 147.15 49.6 150.4 49.6 161.5 88.0 M157.45 88.05 L157.75 89.0 153.65 88.6 153.55 88.1 153.5 88.05 143.1 49.6 146.35 49.6 157.45 88.0 157.45 88.05 M153.4 88.1 L153.65 89.0 149.6 88.6 149.5 88.1 149.45 88.05 139.05 49.6 142.3 49.6 153.4 88.05 153.4 88.1 M149.35 88.1 L149.6 89.0 146.25 88.7 146.35 89.0 142.3 88.6 142.2 88.15 131.7 49.6 138.2 49.6 149.35 88.05 149.35 88.1 M142.05 88.15 L142.3 89.0 138.95 88.7 139.05 89.0 134.95 88.6 134.85 88.2 124.4 49.6 130.9 49.6 142.05 88.15 M134.75 88.2 L134.95 89.0 130.9 88.6 130.8 88.25 120.35 49.6 123.6 49.6 134.75 88.2 M130.7 88.25 L130.9 89.0 126.85 88.6 126.75 88.3 116.25 49.6 119.5 49.6 130.7 88.25 M126.65 88.3 L126.85 89.0 123.5 88.7 123.6 89.0 119.5 88.6 119.45 88.35 108.95 49.6 115.45 49.6 126.65 88.3 M119.3 88.35 L119.5 89.0 115.45 88.6 115.4 88.35 104.9 49.6 108.15 49.6 119.3 88.35 M113.65 88.4 L113.8 89.0 109.75 88.6 109.7 88.4 99.2 49.6 102.45 49.6 113.65 88.4" fill="#33353b" fill-rule="evenodd" stroke="none"/>
      <path d="M487.9 88.85 Q488.15 89.6 487.7 90.45 L487.6 90.7 486.7 100.4 Q485.65 105.25 482.1 107.3 478.55 109.35 464.55 107.75 L451.2 105.7 452.05 93.5 Q456.0 95.2 466.45 95.05 476.0 94.9 482.1 93.5 L482.3 93.45 Q486.45 92.5 487.6 90.7 L487.8 88.85 487.8 88.6 487.9 88.85" fill="#010002" fill-rule="evenodd" stroke="none"/>
      <path d="M592.25 145.95 L589.5 151.85 Q583.05 166.45 582.1 174.6 581.35 180.7 581.3 188.05 L581.25 190.55 Q581.25 194.95 581.4 197.95 L579.1 193.55 Q576.75 188.35 576.75 184.6 576.75 180.85 575.1 170.35 L573.4 160.6 566.1 155.25 557.4 151.25 561.0 150.0 Q565.15 148.2 568.1 145.25 569.55 143.8 570.85 140.4 L573.25 134.1 Q576.7 125.9 583.4 123.95 L588.9 122.6 593.9 121.6 595.45 121.1 597.4 119.25 597.9 118.55 Q599.05 117.1 600.85 116.7 L602.75 116.6 613.4 117.95 Q604.05 130.6 599.4 134.6 596.6 137.0 592.25 145.95 M553.7 111.0 L554.1 111.25 556.5 113.1 Q559.0 115.15 561.95 118.2 566.25 121.8 572.75 122.6 L574.65 122.85 579.45 123.45 583.4 123.95 576.15 124.05 Q568.0 123.85 563.4 122.6 554.45 119.75 550.1 118.75 542.35 116.95 542.75 119.95 543.1 122.55 550.4 134.55 556.9 145.15 556.1 144.6 554.1 143.25 527.4 115.25 L502.75 115.25 499.45 108.85 Q496.1 102.0 496.1 99.95 496.1 97.85 497.45 95.0 L498.75 92.6 500.3 96.4 502.75 102.6 506.35 103.25 Q511.15 104.25 517.4 105.95 521.1 106.95 537.0 107.85 L540.8 108.15 542.5 108.3 Q550.6 109.2 553.7 111.0" fill="#020202" fill-rule="evenodd" stroke="none"/>
      <path d="M565.85 80.5 L541.45 80.5 543.9 76.75 Q546.75 72.9 548.8 72.35 550.4 71.95 554.4 75.0 558.9 78.45 561.8 78.85 L571.55 80.5 565.85 80.5" fill="#000100" fill-rule="evenodd" stroke="none"/>
      <path d="M27.65 91.05 L26.85 87.8 27.65 87.75 36.7 87.1 Q47.05 86.5 49.6 87.0 L78.05 88.6 72.35 44.7 76.45 46.45 Q80.8 48.85 83.75 49.6 L84.55 88.6 109.7 88.4 109.75 88.6 113.8 89.0 113.65 88.4 115.4 88.35 115.45 88.6 119.5 89.0 119.3 88.35 119.45 88.35 119.5 88.6 123.6 89.0 123.5 88.7 126.85 89.0 126.65 88.3 126.75 88.3 126.85 88.6 130.9 89.0 130.7 88.25 130.8 88.25 130.9 88.6 134.95 89.0 134.75 88.2 134.85 88.2 134.95 88.6 139.05 89.0 138.95 88.7 142.3 89.0 142.05 88.15 142.2 88.15 142.3 88.6 146.35 89.0 146.25 88.7 149.6 89.0 149.35 88.1 149.5 88.1 149.6 88.6 153.65 89.0 153.4 88.1 153.55 88.1 153.65 88.6 157.75 89.0 157.45 88.05 157.6 88.05 157.75 88.6 161.8 89.0 161.5 88.0 161.65 88.0 161.8 88.6 165.85 89.0 165.55 87.95 165.7 87.95 165.85 88.6 169.9 89.0 169.8 88.7 173.15 89.0 172.85 87.9 387.8 86.2 390.75 88.65 Q384.95 89.2 380.75 90.65 L362.6 91.05 364.25 130.9 357.75 128.45 352.85 113.0 326.85 110.6 327.65 104.9 351.2 102.45 351.2 97.55 328.45 98.4 328.35 97.95 328.35 97.8 328.4 95.15 352.85 94.3 348.8 91.9 328.45 91.9 313.2 91.3 Q298.45 91.25 294.8 93.9 L294.3 94.3 285.35 95.15 159.35 95.95 83.75 95.15 75.0 95.75 68.4 95.85 62.0 94.95 Q58.9 93.95 52.25 92.5 L45.55 91.05 27.65 91.05 M500.85 145.2 Q503.2 147.2 505.55 148.3 L505.55 124.5 Q503.2 125.85 500.85 128.1 496.15 132.55 496.15 136.85 496.15 141.2 500.85 145.2 M497.6 129.75 Q500.75 125.7 504.05 123.8 514.6 117.7 522.95 135.4 L542.25 136.4 569.55 165.15 570.85 183.15 Q573.2 203.2 578.45 213.75 560.5 206.05 539.05 199.5 496.15 186.35 478.8 191.9 L460.45 134.9 495.15 133.4 497.6 129.75 M496.75 142.05 L493.65 137.85 465.4 138.85 480.3 187.95 Q498.6 183.6 537.85 195.5 557.5 201.5 573.5 208.3 571.35 204.9 568.5 185.7 L566.05 167.15 538.3 138.35 522.95 138.35 Q516.4 156.65 504.4 149.05 500.6 146.7 496.75 142.05 M520.45 136.85 Q520.45 131.9 515.75 128.2 L511.0 125.45 511.0 148.3 515.75 145.55 Q520.45 141.8 520.45 136.85 M480.75 194.4 Q482.3 194.4 485.65 196.65 L488.7 198.85 Q522.8 197.65 557.0 212.0 574.1 219.2 584.4 226.65 L632.05 351.1 631.55 380.85 527.9 382.35 525.4 379.9 486.25 235.55 485.25 229.6 Q495.15 216.6 488.95 204.2 487.0 200.35 483.7 197.0 L480.75 194.4 M493.15 202.35 Q496.3 207.3 493.55 220.7 492.2 227.4 490.2 233.1 L531.35 377.9 627.55 374.9 Q628.05 352.6 627.55 350.6 627.05 348.65 580.95 227.65 559.25 213.05 524.05 206.25 513.0 204.1 502.0 203.0 L493.15 202.35" fill="#0e0e11" fill-rule="evenodd" stroke="none"/>
      <path d="M496.75 142.05 Q500.6 146.7 504.4 149.05 516.4 156.65 522.95 138.35 L538.3 138.35 566.05 167.15 568.5 185.7 Q571.35 204.9 573.5 208.3 557.5 201.5 537.85 195.5 498.6 183.6 480.3 187.95 L465.4 138.85 493.65 137.85 496.75 142.05 M493.15 202.35 L502.0 203.0 Q513.0 204.1 524.05 206.25 559.25 213.05 580.95 227.65 627.05 348.65 627.55 350.6 628.05 352.6 627.55 374.9 L531.35 377.9 490.2 233.1 Q492.2 227.4 493.55 220.7 496.3 207.3 493.15 202.35 M565.1 337.75 Q559.35 337.75 555.25 341.65 551.2 345.55 551.2 351.1 551.2 356.65 555.25 360.6 559.35 364.5 565.1 364.5 570.85 364.5 574.9 360.6 578.95 356.65 578.95 351.1 578.95 345.55 574.9 341.65 570.85 337.75 565.1 337.75" fill="#2c2d33" fill-rule="evenodd" stroke="none"/>
      <path d="M500.85 145.2 Q496.15 141.2 496.15 136.85 496.15 132.55 500.85 128.1 503.2 125.85 505.55 124.5 L505.55 148.3 Q503.2 147.2 500.85 145.2 M520.45 136.85 Q520.45 141.8 515.75 145.55 L511.0 148.3 511.0 125.45 515.75 128.2 Q520.45 131.9 520.45 136.85 M565.1 337.75 Q570.85 337.75 574.9 341.65 578.95 345.55 578.95 351.1 578.95 356.65 574.9 360.6 570.85 364.5 565.1 364.5 559.35 364.5 555.25 360.6 551.2 356.65 551.2 351.1 551.2 345.55 555.25 341.65 559.35 337.75 565.1 337.75" fill="#4c4d53" fill-rule="evenodd" stroke="none"/>
      <path d="M452.05 93.5 L448.8 101.65 390.25 106.5 391.05 88.6 395.0 88.65 397.7 88.7 400.75 88.75 402.5 88.8 404.85 88.8 406.3 88.85 408.1 88.85 409.25 88.85 410.9 88.9 412.2 88.9 415.65 88.95 416.25 88.95 420.35 89.0 420.5 88.7 422.35 84.65 422.45 84.4 422.75 83.75 429.45 83.95 429.65 83.95 433.55 84.05 433.75 84.05 437.65 84.15 437.85 84.15 441.75 84.25 441.95 84.25 445.8 84.35 446.0 84.35 453.2 84.55 454.2 84.6 458.1 84.7 458.3 84.7 462.2 84.8 462.4 84.8 466.35 84.95 466.5 84.95 470.4 85.05 470.6 85.05 474.5 85.15 474.7 85.15 481.3 85.35 482.95 89.0 482.75 92.2 482.3 93.45 482.1 93.5 Q476.0 94.9 466.45 95.05 456.0 95.2 452.05 93.5" fill="#43454b" fill-rule="evenodd" stroke="none"/>
      <path d="M328.35 97.95 Q327.75 105.6 325.2 114.65 322.65 123.8 312.7 126.25 L306.1 127.0 303.25 126.85 302.45 123.6 Q302.05 121.9 297.65 120.75 292.55 119.4 291.05 117.9 288.8 115.65 290.55 106.1 292.15 97.15 294.3 94.3 L294.8 93.9 Q297.55 92.2 312.3 91.9 320.55 91.7 328.45 91.9 L328.4 95.15 328.35 97.8 328.35 97.95" fill="#414249" fill-rule="evenodd" stroke="none"/>
      <path d="M374.0 118.7 Q369.55 112.0 369.4 104.9 369.25 94.55 380.75 90.65 384.95 89.2 390.75 88.65 L391.05 88.6 390.25 106.5 374.0 118.7" fill="#3f4047" fill-rule="evenodd" stroke="none"/>
      <path d="M390.25 106.5 L442.2 103.25 Q440.15 103.45 437.4 111.0 436.0 114.85 434.95 118.7 L445.65 119.35 Q438.35 119.1 412.9 119.65 L379.7 120.35 Q377.15 120.35 375.3 119.55 L374.0 118.7 390.25 106.5" fill="#19171c" fill-rule="evenodd" stroke="none"/>
      <path d="M254.45 150.4 L261.0 142.3 350.4 141.45 361.0 130.9 369.9 131.7 365.85 143.9 365.05 147.15 326.0 147.15 314.65 149.6 254.45 150.4" fill="#16161a" fill-rule="evenodd" stroke="none"/>
      <path d="M386.5 132.75 L386.55 130.45 398.1 130.05 Q411.9 130.6 423.15 135.25 459.1 150.15 456.0 200.35 L445.55 206.8 438.6 207.8 Q439.75 204.05 440.35 198.35 441.6 187.0 438.9 177.35 430.35 146.5 386.05 144.3 L386.4 135.65 386.5 132.75" fill="#1b1b1d" fill-rule="evenodd" stroke="none"/>
      <path d="M364.3 153.55 L363.75 152.75 362.75 148.3 373.65 149.25 376.15 157.7 Q378.4 168.15 377.4 178.25 374.25 209.1 342.2 225.35 L340.4 226.25 339.05 226.85 338.2 223.6 Q351.3 215.45 361.0 202.5 369.95 190.6 371.25 179.1 371.55 176.2 371.4 173.3 370.8 163.25 364.3 153.55" fill="#09090b" fill-rule="evenodd" stroke="none"/>
      <path d="M373.65 149.25 L396.45 151.25 388.05 161.2 388.15 163.9 388.6 183.75 383.55 185.5 382.95 187.3 Q381.15 192.1 378.3 197.1 376.5 200.4 374.1 203.6 L373.4 204.55 Q364.35 217.1 352.85 222.7 346.35 225.9 339.05 226.85 L340.4 226.25 342.2 225.35 347.6 222.8 Q357.55 217.25 364.7 209.65 387.6 185.2 373.65 149.25" fill="#3e3f46" fill-rule="evenodd" stroke="none"/>
      <path d="M471.35 201.85 L478.3 200.35 Q486.7 200.05 485.8 212.8 485.35 219.2 483.25 225.65 L467.9 228.15 Q478.3 235.55 466.4 227.65 458.95 222.7 460.2 212.25 460.55 209.0 461.75 205.6 L462.9 202.85 471.35 201.85" fill="#3b3d42" fill-rule="evenodd" stroke="none"/>
      <path d="M52.85 10.6 L65.05 11.4 Q66.65 15.45 67.5 20.35 68.05 23.75 75.3 30.1 82.2 36.1 86.2 37.4 89.25 38.45 187.6 38.0 L285.35 37.4 284.1 38.5 Q279.1 42.05 262.1 45.95 L247.35 48.8 238.15 49.6 161.8 49.6 155.3 49.6 154.45 49.6 151.2 49.6 150.4 49.6 147.15 49.6 146.35 49.6 143.1 49.6 142.3 49.6 139.05 49.6 138.2 49.6 131.7 49.6 130.9 49.6 124.4 49.6 123.6 49.6 120.35 49.6 119.5 49.6 116.25 49.6 115.45 49.6 108.95 49.6 108.15 49.6 104.9 49.6 102.45 49.6 99.2 49.6 83.75 49.6 Q80.8 48.85 76.45 46.45 L70.55 42.9 Q66.2 40.05 63.8 38.0 L61.4 35.55 61.3 35.45 61.0 34.95 Q59.55 32.1 56.6 29.15 53.2 25.75 50.4 25.2 47.85 24.2 37.5 23.8 L27.65 23.6 24.5 14.1 23.6 11.4 35.75 10.6 34.15 15.45 54.45 14.65 52.85 10.6" fill="#656874" fill-rule="evenodd" stroke="none"/>
      <path d="M214.65 141.45 L78.05 136.6 78.05 115.45 Q118.3 113.4 160.7 115.85 245.45 120.75 256.1 143.1 248.2 141.3 239.05 140.15 220.75 137.9 214.65 141.45" fill="#2a2b31" fill-rule="evenodd" stroke="none"/>
      <path d="M314.65 149.6 Q290.0 169.4 288.7 190.55 L288.6 192.1 Q288.5 196.8 289.55 201.55 291.4 210.0 296.7 217.65 299.35 221.45 301.65 223.6 L292.7 226.85 Q288.65 195.85 271.15 170.05 265.65 161.95 259.5 155.35 L254.45 150.4 314.65 149.6" fill="#303137" fill-rule="evenodd" stroke="none"/>
      <path d="M23.6 11.4 L32.5 0.8 52.85 1.65 52.85 10.6 54.45 14.65 34.15 15.45 35.75 10.6 23.6 11.4" fill="#44454d" fill-rule="evenodd" stroke="none"/>
      <path d="M72.35 44.7 L78.05 88.6 Q56.1 85.35 51.2 83.75 48.15 82.7 38.0 80.7 L28.45 78.85 27.75 36.6 27.65 23.6 37.5 23.8 Q47.85 24.2 50.4 25.2 52.1 25.9 61.3 35.45 L61.4 35.55 63.8 38.0 Q70.45 44.7 72.35 44.7" fill="#42464b" fill-rule="evenodd" stroke="none"/>
      <path d="M24.5 14.1 L27.65 23.6 27.75 36.6 27.65 75.6 24.4 75.6 24.5 14.1 M10.55 28.45 L15.45 28.45 15.45 66.65 9.75 67.5 10.55 28.45" fill="#100f12" fill-rule="evenodd" stroke="none"/>
      <path d="M1.95 61.8 L1.65 61.8 1.65 55.2 1.65 54.5 7.3 55.3 7.3 61.8 1.95 61.8" fill="#010100" fill-rule="evenodd" stroke="none"/>
      <path d="M76.4 127.65 L29.25 127.65 27.2 120.4 77.2 121.95 76.4 127.65 M25.1 109.85 Q22.85 94.85 27.65 91.05 L37.2 91.25 Q47.35 91.65 50.4 92.7 53.35 93.65 62.0 94.95 L68.4 95.85 75.6 96.75 74.8 116.25 74.8 104.9 29.25 106.5 25.2 109.75 25.1 109.85" fill="#44464f" fill-rule="evenodd" stroke="none"/>
      <path d="M27.2 120.4 L26.0 120.35 Q24.8 118.5 24.1 116.25 22.7 111.9 25.1 109.85 L25.2 109.75 29.25 106.5 74.8 104.9 74.8 116.25 78.05 115.45 77.25 121.95 77.2 121.95 27.2 120.4" fill="#121416" fill-rule="evenodd" stroke="none"/>
      <path d="M608.15 429.5 L609.7 429.5 606.55 438.65 Q603.0 447.7 600.8 447.15 L600.4 447.15 596.25 447.2 561.5 447.6 549.7 447.55 Q497.85 447.75 494.15 446.85 L504.35 439.6 Q514.5 431.8 514.5 429.0 L608.15 429.5" fill="#595a64" fill-rule="evenodd" stroke="none"/>
    </g>
  </defs>
</svg>
