<?xml version="1.0" encoding="UTF-8" standalone="no"?>
<svg xmlns:xlink="http://www.w3.org/1999/xlink" height="5172.7px" width="5098.05px" xmlns="http://www.w3.org/2000/svg">
  <g transform="matrix(1.0, 0.0, 0.0, 1.0, 2244.4, 2332.0)">
    <use height="216.0" transform="matrix(0.9621, -0.0168, 0.0, 1.2406, -91.95, 6.15)" width="372.1" xlink:href="#sprite0"/>
    <use height="440.45" transform="matrix(0.496, 0.0, -0.0555, 0.5478, -136.15, -122.15)" width="326.0" xlink:href="#sprite1"/>
    <use height="580.85" transform="matrix(-0.2655, 0.0, 0.0403, 0.6154, 156.8069, -185.1482)" width="618.5" xlink:href="#sprite2"/>
  </g>
  <defs>
    <g id="sprite0" transform="matrix(1.0, 0.0, 0.0, 1.0, 0.0, 0.0)">
      <use height="216.0" transform="matrix(1.0, 0.0, 0.0, 1.0, 0.0, 0.0)" width="372.1" xlink:href="#shape0"/>
    </g>
    <g id="shape0" transform="matrix(1.0, 0.0, 0.0, 1.0, 0.0, 0.0)">
      <path d="M242.65 90.7 L243.55 90.9 Q265.9 96.0 274.1 99.0 L272.25 102.45 Q270.35 105.45 267.1 106.0 L267.1 107.0 298.1 107.0 Q319.8 103.6 340.45 99.3 351.65 97.0 358.6 97.0 L364.1 98.5 Q369.8 100.0 372.1 100.0 370.9 113.75 332.55 131.3 319.6 137.25 305.1 142.4 293.05 146.6 290.1 147.0 275.7 148.85 268.1 158.3 266.25 160.6 265.0 163.0 L263.1 163.0 Q247.5 170.05 240.45 173.5 228.1 179.6 228.1 184.5 228.1 185.75 229.1 188.25 230.1 190.75 230.1 192.0 230.1 197.5 225.15 202.0 220.8 206.0 217.1 206.0 214.6 206.0 196.0 198.0 L177.6 190.0 Q176.1 190.0 167.4 196.0 158.65 202.0 156.1 202.0 L137.1 204.45 Q120.1 206.9 113.0 207.0 109.15 207.0 105.25 208.4 L97.45 211.5 Q84.95 216.0 63.5 216.0 60.35 216.0 56.95 209.05 54.0 202.95 54.0 200.0 54.0 198.8 56.65 194.95 L62.5 186.6 Q66.4 180.8 68.5 176.0 L56.75 175.45 Q51.65 174.05 53.0 167.0 50.0 166.0 42.0 166.0 35.8 166.0 27.95 169.0 20.05 172.0 15.0 172.0 6.0 172.0 3.6 169.4 1.55 167.15 0.0 157.0 11.6 152.4 22.3 147.15 38.0 139.5 38.0 136.5 38.0 135.25 37.0 132.5 36.0 129.75 36.0 128.5 36.0 120.65 40.5 115.0 44.05 110.55 51.65 106.25 55.85 103.9 64.8 99.35 L64.0 102.0 64.0 121.0 64.5 121.15 Q65.0 121.4 65.0 122.0 L75.5 117.0 Q86.2 111.8 89.0 109.0 L89.85 109.4 Q87.3 114.8 82.15 123.55 78.0 131.35 78.0 137.5 78.0 143.0 88.35 150.05 91.7 152.3 95.55 154.35 L99.0 156.0 112.65 153.2 Q129.3 149.6 147.1 145.0 156.75 142.45 160.65 138.9 L162.85 136.5 Q163.9 135.35 165.1 135.0 164.05 133.25 158.3 128.25 L151.45 122.3 Q171.3 126.55 186.0 133.4 194.95 137.55 212.1 147.0 212.1 145.3 214.6 140.7 217.1 136.15 217.1 135.0 217.1 133.05 211.7 130.0 207.55 127.7 204.7 127.15 L214.05 128.0 225.6 129.0 Q236.95 129.0 240.1 126.05 241.1 125.1 241.1 122.5 241.1 120.65 239.6 118.05 238.1 115.5 238.1 113.0 241.1 110.0 244.2 108.9 247.25 107.85 252.1 103.0 L252.1 100.0 Q248.6 98.3 231.55 95.15 214.35 92.0 208.1 92.0 L208.0 91.55 230.55 90.65 242.65 90.7" fill="#ffffff" fill-opacity="0.47058824" fill-rule="evenodd" stroke="none"/>
      <path d="M64.8 99.35 L66.0 98.75 Q74.75 94.0 80.0 89.0 92.75 76.8 108.85 52.45 120.9 34.15 127.0 22.0 128.0 22.0 128.0 21.0 141.1 40.7 158.75 65.8 L181.1 98.0 Q188.05 96.45 189.6 93.1 190.1 91.95 190.1 86.5 190.1 80.0 184.15 74.35 183.5 73.75 171.1 64.25 162.3 57.5 158.05 50.8 152.1 41.35 152.1 28.5 152.1 20.35 155.8 11.65 159.05 4.05 163.1 0.0 190.3 34.65 202.95 54.75 214.25 72.75 218.1 86.0 221.85 86.0 242.65 90.7 L230.55 90.65 208.0 91.55 Q207.35 91.75 207.1 92.0 L208.1 92.0 Q214.35 92.0 231.55 95.15 248.6 98.3 252.1 100.0 L252.1 103.0 Q247.25 107.85 244.2 108.9 241.1 110.0 238.1 113.0 238.1 115.5 239.6 118.05 241.1 120.65 241.1 122.5 241.1 125.1 240.1 126.05 236.95 129.0 225.6 129.0 L214.05 128.0 204.7 127.15 Q207.55 127.7 211.7 130.0 217.1 133.05 217.1 135.0 217.1 136.15 214.6 140.7 212.1 145.3 212.1 147.0 194.95 137.55 186.0 133.4 171.3 126.55 151.45 122.3 L158.3 128.25 Q164.05 133.25 165.1 135.0 163.9 135.35 162.85 136.5 L160.65 138.9 Q156.75 142.45 147.1 145.0 129.3 149.6 112.65 153.2 L99.0 156.0 95.55 154.35 Q91.7 152.3 88.35 150.05 78.0 143.0 78.0 137.5 78.0 131.35 82.15 123.55 87.3 114.8 89.85 109.4 L90.0 109.0 89.0 109.0 Q86.2 111.8 75.5 117.0 L65.0 122.0 Q65.0 121.4 64.5 121.15 L64.0 121.0 64.0 102.0 64.8 99.35 M204.7 127.15 L203.1 127.0 202.25 127.0 204.7 127.15 M151.45 122.3 L151.1 122.0 150.1 122.0 151.45 122.3" fill="#ffffff" fill-opacity="0.29411766" fill-rule="evenodd" stroke="none"/>
    </g>
    <g id="sprite1" transform="matrix(1.0, 0.0, 0.0, 1.0, 0.0, 0.0)">
      <use height="440.45" transform="matrix(1.0, 0.0, 0.0, 1.0, 0.0, 0.0)" width="326.0" xlink:href="#shape1"/>
    </g>
    <g id="shape1" transform="matrix(1.0, 0.0, 0.0, 1.0, 0.0, 0.0)">
      <path d="M174.0 67.0 Q173.5 63.0 165.5 63.0 158.3 63.0 143.95 71.05 129.0 79.45 129.0 85.0 129.0 92.0 132.55 95.65 135.4 98.6 142.45 100.75 L157.6 104.95 Q168.2 108.2 177.0 113.0 182.2 115.9 184.05 120.25 186.6 126.4 188.0 128.0 L207.65 150.3 Q215.55 160.1 219.15 166.95 L222.0 163.0 Q222.0 155.95 212.0 141.85 L205.15 131.9 Q202.0 126.8 202.0 124.0 L203.0 114.5 204.0 105.0 Q204.0 99.0 199.15 95.7 196.25 93.75 188.5 91.5 180.75 89.25 177.85 87.3 173.0 84.0 173.0 78.0 173.0 75.65 173.6 71.7 174.15 68.25 174.0 67.0 M253.0 119.0 Q252.35 115.5 251.0 112.0 248.35 105.0 245.0 105.0 241.0 106.8 237.0 110.05 229.0 116.45 229.0 123.5 229.0 135.3 232.55 148.1 234.95 156.7 241.15 172.25 248.7 191.15 251.7 199.9 L253.55 205.5 Q256.0 195.65 256.0 193.5 256.0 186.55 248.5 167.05 L241.0 148.5 Q241.0 137.85 247.0 128.95 248.5 126.75 251.15 123.3 253.0 120.65 253.0 119.0 M104.75 13.1 Q145.55 0.0 175.0 0.0 213.15 0.0 236.0 9.05 257.0 17.35 257.0 29.5 257.0 30.75 256.0 35.25 255.0 39.75 255.0 41.0 255.0 43.05 257.95 44.9 L264.5 48.3 Q274.0 53.15 274.0 59.5 274.0 65.1 268.05 71.7 L266.3 73.4 268.65 77.8 Q273.0 87.5 273.0 100.0 L270.5 137.15 Q268.0 175.3 268.0 181.5 268.0 205.1 274.7 223.65 279.35 236.35 289.5 251.5 301.6 269.55 304.3 275.0 311.0 288.65 311.0 304.0 311.0 327.15 307.0 357.55 305.0 372.75 303.0 384.0 303.0 391.25 312.85 399.75 L320.55 405.95 Q324.7 409.25 326.0 411.0 324.7 410.85 320.0 412.9 L315.0 415.0 Q316.0 415.0 316.0 416.0 319.65 417.4 320.7 419.3 321.2 420.25 321.0 421.0 321.0 426.35 305.4 433.1 293.55 437.65 287.2 440.45 L287.0 440.0 282.9 435.9 Q279.0 431.9 279.0 431.5 279.0 428.15 281.15 427.4 L286.0 426.0 Q284.95 424.3 282.9 422.5 L281.0 421.0 Q284.4 420.85 288.0 419.0 L294.0 416.0 294.15 415.5 294.25 415.4 Q294.5 415.0 295.0 415.0 L294.6 414.75 Q291.65 412.8 286.4 411.6 285.05 411.25 284.55 410.4 284.0 409.35 284.0 406.5 284.0 402.8 285.9 398.05 L290.0 387.35 Q296.0 368.95 296.0 335.5 296.0 314.55 286.3 292.05 278.05 272.95 261.65 250.35 250.3 234.75 228.65 209.3 201.8 177.8 194.0 168.0 180.5 151.0 164.75 141.4 L152.75 134.35 150.85 133.1 150.5 133.2 Q136.05 137.0 128.0 137.0 117.65 137.0 105.75 128.5 L97.15 122.65 Q92.35 120.0 88.0 120.0 86.3 120.0 76.15 126.5 65.95 133.0 62.5 133.0 61.5 133.0 52.5 128.9 44.0 125.05 38.0 122.0 27.6 116.6 17.75 111.95 L6.3 106.6 Q2.35 104.65 1.15 103.4 0.0 102.2 0.0 100.0 0.0 90.75 10.7 87.6 17.25 85.7 36.0 83.0 36.0 82.05 35.0 80.7 34.0 79.3 34.0 78.0 34.0 71.8 47.3 51.45 59.2 33.2 62.0 31.0 65.35 28.35 76.8 23.45 89.55 18.0 104.75 13.1" fill="#ffffff" fill-opacity="0.47058824" fill-rule="evenodd" stroke="none"/>
    </g>
    <g id="sprite2" transform="matrix(1.0, 0.0, 0.0, 1.0, 59.4, 140.4)">
      <use height="580.85" transform="matrix(1.0, 0.0, 0.0, 1.0, -59.4, -140.4)" width="618.5" xlink:href="#shape2"/>
    </g>
    <g id="shape2" transform="matrix(1.0, 0.0, 0.0, 1.0, 59.4, 140.4)">
      <path d="M271.65 120.35 L270.5 137.15 Q268.0 175.3 268.0 181.5 L268.2 189.7 270.1 189.2 Q275.8 187.8 275.8 187.3 275.8 185.7 285.3 182.6 294.75 179.5 294.75 176.8 294.75 174.75 313.55 161.65 L326.85 152.4 Q318.15 134.8 271.65 120.35 M203.0 114.5 L204.0 105.0 204.0 104.3 Q173.8 98.45 134.75 92.35 L130.05 91.65 Q130.95 94.0 132.55 95.65 135.4 98.6 142.45 100.75 L157.6 104.95 Q168.2 108.2 177.0 113.0 182.2 115.9 184.05 120.25 186.6 126.4 188.0 128.0 L207.65 150.3 Q215.55 160.1 219.15 166.95 L222.0 163.0 Q222.0 155.95 212.0 141.85 L205.15 131.9 Q202.0 126.8 202.0 124.0 L203.0 114.5 M237.0 110.05 L235.9 110.95 236.75 111.15 237.0 110.05 M86.8 -140.4 Q89.6 -140.4 113.95 -136.2 L167.45 -126.9 Q225.45 -117.05 253.0 -114.4 279.75 -102.0 310.65 -88.8 349.7 -72.2 419.65 -43.3 454.25 -28.45 476.85 -16.65 486.0 -25.7 486.0 -31.1 486.0 -50.25 476.35 -62.25 L469.65 -69.9 Q466.65 -73.75 466.65 -77.4 466.65 -79.35 480.55 -84.8 488.2 -87.8 493.6 -89.15 L498.05 -90.1 514.65 -88.3 Q541.2 -85.3 558.75 -85.3 L558.95 -83.3 559.1 -80.05 548.35 -68.1 Q537.55 -55.7 537.55 -51.9 537.55 -50.0 535.85 -47.75 534.15 -45.5 534.15 -43.65 534.15 -36.75 537.45 -30.6 539.55 -26.6 544.65 -20.6 550.1 -14.25 551.85 -11.25 555.15 -5.75 555.15 0.0 555.15 2.2 548.5 12.05 538.0 27.1 530.4 38.4 L529.9 38.3 529.6 39.55 Q525.55 56.45 495.9 78.3 481.75 88.7 457.6 103.45 447.95 109.4 409.5 132.15 401.95 136.6 374.9 150.0 343.45 165.5 327.8 173.95 282.15 198.5 271.65 213.5 272.95 218.75 274.7 223.65 278.9 235.2 287.7 248.75 L289.5 251.5 Q301.6 269.55 304.3 275.0 311.0 288.65 311.0 304.0 311.0 327.15 307.0 357.55 305.0 372.75 303.0 384.0 303.0 391.25 312.85 399.75 L320.55 405.95 Q324.7 409.25 326.0 411.0 324.7 410.85 320.0 412.9 L315.0 415.0 Q316.0 415.0 316.0 416.0 319.65 417.4 320.7 419.3 321.2 420.25 321.0 421.0 321.0 426.35 305.4 433.1 293.55 437.65 287.2 440.45 L287.0 440.0 282.9 435.9 Q279.0 431.9 279.0 431.5 279.0 428.15 281.15 427.4 L286.0 426.0 Q284.95 424.3 282.9 422.5 L281.0 421.0 Q284.4 420.85 288.0 419.0 L294.0 416.0 294.15 415.5 294.25 415.4 Q294.5 415.0 295.0 415.0 L294.6 414.75 Q291.65 412.8 286.4 411.6 285.05 411.25 284.55 410.4 284.0 409.35 284.0 406.5 284.0 402.8 285.9 398.05 L290.0 387.35 Q296.0 368.95 296.0 335.5 296.0 314.55 286.3 292.05 278.05 272.95 261.65 250.35 250.3 234.75 228.65 209.3 201.8 177.8 194.0 168.0 180.5 151.0 164.75 141.4 L152.75 134.35 150.85 133.1 150.5 133.2 Q136.05 137.0 128.0 137.0 117.65 137.0 105.75 128.5 L97.15 122.65 Q92.35 120.0 88.0 120.0 86.3 120.0 76.15 126.5 65.95 133.0 62.5 133.0 61.5 133.0 52.5 128.9 44.0 125.05 38.0 122.0 27.6 116.6 17.75 111.95 L6.3 106.6 Q2.35 104.65 1.15 103.4 0.0 102.2 0.0 100.0 0.0 90.75 10.7 87.6 17.25 85.7 36.0 83.0 36.0 82.05 35.0 80.7 34.0 79.3 34.0 78.0 L34.1 76.9 1.25 71.05 Q-59.4 59.15 -59.4 46.65 -59.4 40.15 -55.05 30.15 -50.95 20.85 -44.45 11.45 -37.85 1.95 -31.35 -3.95 -24.3 -10.3 -19.5 -10.3 -8.55 -1.05 5.35 8.95 33.15 29.1 49.65 33.15 L58.45 35.2 Q60.9 31.85 62.0 31.0 65.35 28.35 76.8 23.45 89.55 18.0 104.75 13.1 145.55 0.0 175.0 0.0 213.15 0.0 236.0 9.05 257.0 17.35 257.0 29.5 257.0 30.75 256.0 35.25 255.0 39.75 255.0 41.0 255.0 43.05 257.95 44.9 L264.5 48.3 Q274.0 53.15 274.0 59.5 274.0 65.05 268.15 71.6 277.85 76.5 287.45 82.25 315.55 99.05 334.1 117.25 344.9 127.85 349.7 136.1 L375.4 114.65 Q402.55 91.9 402.55 91.5 402.55 87.05 399.85 80.15 397.1 73.3 397.1 71.8 399.95 70.1 418.05 62.95 434.8 55.35 434.8 49.85 434.8 31.95 408.35 23.45 401.0 21.05 387.2 18.25 L374.0 15.3 Q357.85 3.65 334.75 -5.25 310.15 -14.7 268.65 -23.95 219.95 -34.0 195.0 -39.75 151.25 -49.8 121.3 -61.3 123.7 -61.3 128.45 -63.0 134.6 -65.2 134.6 -68.05 134.6 -73.85 110.05 -77.1 L56.05 -82.6 Q20.15 -86.6 2.05 -93.05 -22.5 -101.85 -22.5 -117.0 -13.75 -123.1 4.3 -128.9 40.2 -140.4 86.8 -140.4" fill="#ffffff" fill-opacity="0.47058824" fill-rule="evenodd" stroke="none"/>
    </g>
  </defs>
</svg>
