<?xml version="1.0" encoding="UTF-8" standalone="no"?>
<svg xmlns:xlink="http://www.w3.org/1999/xlink" height="51.45px" width="97.0px" xmlns="http://www.w3.org/2000/svg">
  <g transform="matrix(1.0, 0.0, 0.0, 1.0, 48.5, 16.85)">
    <use height="33.7" transform="matrix(1.0, 0.0, 0.0, 1.0, -43.85, -16.85)" width="87.7" xlink:href="#shape0"/>
  </g>
  <defs>
    <g id="shape0" transform="matrix(1.0, 0.0, 0.0, 1.0, 43.85, 16.85)">
      <path d="M34.2 -16.85 Q34.15 -15.9 34.35 -14.9 34.65 -13.2 35.5 -11.65 L36.1 -10.1 36.35 -8.95 Q36.5 -8.4 36.8 -8.15 L38.0 -7.9 40.3 -8.15 42.75 -8.5 43.85 -8.5 43.85 -7.65 43.45 -6.35 42.3 -4.75 Q40.95 -2.95 39.4 -2.15 L38.5 -1.7 38.15 -1.45 38.2 -1.15 38.45 -0.9 41.0 0.9 41.8 1.4 42.15 1.8 Q41.65 1.8 41.3 2.15 40.75 2.65 39.0 2.8 L37.75 2.9 36.95 3.05 Q35.9 3.55 35.05 4.95 34.2 6.3 33.65 8.5 L33.6 8.5 33.35 7.75 33.0 6.7 Q32.45 5.25 31.15 3.9 L30.25 2.9 29.3 1.9 28.95 1.45 28.8 1.15 26.95 1.05 27.3 1.05 26.05 1.2 24.25 1.35 24.5 0.8 25.0 -0.25 Q25.8 -1.85 25.8 -2.5 25.8 -3.85 24.95 -5.05 24.0 -6.35 22.55 -6.7 L23.45 -6.85 24.7 -7.1 Q26.35 -7.5 27.25 -8.45 L27.25 -9.8 27.9 -9.6 28.7 -9.05 29.95 -8.15 Q31.05 -7.45 31.35 -7.45 L32.3 -10.6 34.15 -16.85 34.2 -16.85 M-42.8 -0.05 L-40.35 0.35 -38.05 0.6 -36.9 0.3 Q-36.6 0.1 -36.45 -0.45 L-36.15 -1.65 -35.6 -3.15 Q-34.75 -4.7 -34.45 -6.35 L-34.3 -8.3 -34.25 -8.35 -32.45 -2.1 -31.5 1.05 Q-31.15 1.05 -30.1 0.35 L-28.8 -0.55 -28.0 -1.1 -27.4 -1.3 -27.4 0.05 Q-26.5 1.0 -24.85 1.4 L-23.6 1.6 -22.75 1.8 Q-24.2 2.15 -25.1 3.4 -25.95 4.6 -25.95 5.95 -25.95 6.6 -25.15 8.15 L-24.65 9.2 -24.4 9.8 -26.2 9.6 -27.45 9.45 -27.1 9.45 -28.95 9.6 -29.1 9.9 -29.4 10.3 -30.35 11.3 -31.25 12.3 Q-32.55 13.65 -33.1 15.1 L-33.45 16.1 -33.7 16.85 -33.75 16.85 Q-34.3 14.7 -35.15 13.35 -35.95 11.95 -37.05 11.45 L-37.85 11.3 -39.05 11.2 Q-40.8 11.05 -41.35 10.55 -41.7 10.25 -42.2 10.25 L-41.85 9.8 -41.05 9.3 -38.55 7.5 -38.25 7.3 -38.25 7.0 -38.55 6.7 -39.45 6.3 Q-41.05 5.5 -42.35 3.7 L-43.5 2.1 -43.85 0.8 -43.85 -0.05 -42.8 -0.05" fill="#010101" fill-opacity="0.0" fill-rule="evenodd" stroke="none"/>
    </g>
  </defs>
</svg>
