<?xml version="1.0" encoding="UTF-8" standalone="no"?>
<svg xmlns:xlink="http://www.w3.org/1999/xlink" height="2253.25px" width="1497.2px" xmlns="http://www.w3.org/2000/svg">
  <g transform="matrix(1.0, 0.0, 0.0, 1.0, 755.4, 1136.6)">
    <use height="25.05" transform="matrix(1.0, 0.0, 0.0, 1.0, -59.1, -13.05)" width="134.25" xlink:href="#sprite0"/>
  </g>
  <defs>
    <g id="sprite0" transform="matrix(1.0, 0.0, 0.0, 1.0, 59.1, 13.05)">
      <use height="11.05" transform="matrix(1.0, 0.0, 0.0, 1.0, -17.75, 0.95)" width="92.9" xlink:href="#text0"/>
      <use height="13.75" transform="matrix(1.0, 0.0, 0.0, 1.0, -59.1, -13.05)" width="106.3" xlink:href="#text1"/>
    </g>
    <g id="text0" transform="matrix(1.0, 0.0, 0.0, 1.0, -0.5, 1.05)">
      <g transform="matrix(1.0, 0.0, 0.0, 1.0, 0.0, 0.0)">
        <use fill="#cc0000" fill-opacity="0.5921569" height="11.05" transform="matrix(0.0098, 0.0, 0.0, 0.0098, 0.0, 8.0)" width="92.9" xlink:href="#font_Fusion_p0"/>
        <use fill="#cc0000" fill-opacity="0.5921569" height="11.05" transform="matrix(0.0098, 0.0, 0.0, 0.0098, 11.05, 8.0)" width="92.9" xlink:href="#font_Fusion_r0"/>
        <use fill="#cc0000" fill-opacity="0.5921569" height="11.05" transform="matrix(0.0098, 0.0, 0.0, 0.0098, 22.1, 8.0)" width="92.9" xlink:href="#font_Fusion_e0"/>
        <use fill="#cc0000" fill-opacity="0.5921569" height="11.05" transform="matrix(0.0098, 0.0, 0.0, 0.0098, 33.15, 8.0)" width="92.9" xlink:href="#font_Fusion_s0"/>
        <use fill="#cc0000" fill-opacity="0.5921569" height="11.05" transform="matrix(0.0098, 0.0, 0.0, 0.0098, 44.2, 8.0)" width="92.9" xlink:href="#font_Fusion_e0"/>
        <use fill="#cc0000" fill-opacity="0.5921569" height="11.05" transform="matrix(0.0098, 0.0, 0.0, 0.0098, 55.25, 8.0)" width="92.9" xlink:href="#font_Fusion_n0"/>
        <use fill="#cc0000" fill-opacity="0.5921569" height="11.05" transform="matrix(0.0098, 0.0, 0.0, 0.0098, 66.8, 8.0)" width="92.9" xlink:href="#font_Fusion_t0"/>
        <use fill="#cc0000" fill-opacity="0.5921569" height="11.05" transform="matrix(0.0098, 0.0, 0.0, 0.0098, 77.85, 8.0)" width="92.9" xlink:href="#font_Fusion_s0"/>
      </g>
    </g>
    <g id="font_Fusion_p0">
      <path d="M764.0 -452.0 L764.0 -452.0 Q779.5 -452.0 791.5 -440.0 803.0 -428.5 803.0 -412.5 L803.0 -360.5 Q803.0 -345.5 791.5 -333.0 779.5 -321.0 764.0 -321.0 L506.5 -321.0 401.5 -150.5 966.5 -150.5 Q1010.5 -150.5 1042.5 -182.5 1074.5 -214.5 1074.5 -259.0 L1074.5 -515.0 Q1074.5 -558.0 1042.5 -590.5 1010.0 -622.5 966.5 -622.5 L50.0 -622.5 50.0 0.0 321.5 0.0 321.5 -452.0 764.0 -452.0" fill-rule="evenodd" stroke="none"/>
    </g>
    <g id="font_Fusion_r0">
      <path d="M803.0 -412.5 L803.0 -360.5 Q803.0 -345.5 791.5 -333.0 779.5 -321.0 764.0 -321.0 L401.5 -321.0 673.0 100.5 941.0 100.5 773.5 -150.5 966.5 -150.5 Q1010.5 -150.5 1042.5 -182.5 1074.5 -214.5 1074.5 -259.0 L1074.5 -515.0 Q1074.5 -558.0 1042.5 -590.5 1010.0 -622.5 966.5 -622.5 L50.0 -622.5 50.0 0.0 321.5 0.0 321.5 -452.0 764.0 -452.0 Q779.5 -452.0 791.5 -440.0 803.0 -428.5 803.0 -412.5" fill-rule="evenodd" stroke="none"/>
    </g>
    <g id="font_Fusion_e0">
      <path d="M803.0 -371.5 L321.5 -371.5 321.5 -413.0 Q321.5 -429.0 333.0 -440.5 344.5 -452.0 360.0 -452.0 L764.0 -452.0 Q779.5 -452.0 791.5 -440.0 803.0 -428.5 803.0 -413.0 L803.0 -371.5 M1074.5 -251.0 L1074.5 -515.0 Q1074.5 -558.0 1042.5 -590.5 1010.0 -622.5 966.5 -622.5 L158.5 -622.5 Q114.0 -622.5 82.0 -590.5 50.0 -558.5 50.0 -515.0 L50.0 -108.5 Q50.0 -65.0 82.5 -32.5 115.0 0.0 158.5 0.0 L869.0 0.0 974.0 -170.5 360.0 -170.5 Q344.5 -170.5 333.0 -182.0 321.5 -193.5 321.5 -209.5 L321.5 -251.0 1074.5 -251.0" fill-rule="evenodd" stroke="none"/>
    </g>
    <g id="font_Fusion_s0">
      <path d="M321.5 -371.5 L321.5 -413.0 Q321.5 -429.0 333.0 -440.5 344.5 -452.0 360.0 -452.0 L969.5 -452.0 1074.5 -622.5 158.5 -622.5 Q114.0 -622.5 82.0 -590.5 50.0 -558.5 50.0 -515.0 L50.0 -251.0 803.0 -251.0 803.0 -209.5 Q803.0 -195.0 791.5 -182.5 779.5 -170.5 764.0 -170.5 L155.0 -170.5 50.0 0.0 966.5 0.0 Q1010.5 0.0 1042.5 -32.0 1074.5 -64.0 1074.5 -108.5 L1074.5 -371.5 321.5 -371.5" fill-rule="evenodd" stroke="none"/>
    </g>
    <g id="font_Fusion_n0">
      <path d="M321.5 -622.5 L50.0 -622.5 50.0 0.0 321.5 0.0 321.5 -401.5 412.5 -401.5 Q428.0 -401.5 440.0 -390.0 451.5 -378.0 451.5 -362.5 L451.5 -108.5 Q451.5 -65.0 484.0 -32.5 516.5 0.0 560.0 0.0 L1016.5 0.0 Q1060.5 0.0 1092.5 -32.0 1124.5 -64.0 1124.5 -108.5 L1124.5 -622.5 853.0 -519.0 853.0 -209.5 Q853.0 -195.0 841.5 -182.5 829.5 -170.5 814.0 -170.5 L761.5 -170.5 Q746.0 -170.5 734.5 -182.0 723.0 -193.5 723.0 -209.5 L723.0 -464.5 Q723.0 -507.5 691.0 -540.0 658.5 -572.0 615.0 -572.0 L321.5 -572.0 321.5 -622.5" fill-rule="evenodd" stroke="none"/>
    </g>
    <g id="font_Fusion_t0">
      <path d="M1074.5 -108.5 L1074.5 -271.0 803.0 -271.0 803.0 -209.5 Q803.0 -194.0 791.5 -182.0 779.5 -170.5 764.0 -170.5 L360.0 -170.5 Q345.5 -170.5 333.5 -182.5 321.5 -194.5 321.5 -209.5 L321.5 -401.5 718.5 -401.5 823.5 -572.0 321.5 -572.0 321.5 -622.5 50.0 -622.5 50.0 -108.5 Q50.0 -65.0 82.5 -32.5 115.0 0.0 158.5 0.0 L966.5 0.0 Q1010.5 0.0 1042.5 -32.0 1074.5 -64.0 1074.5 -108.5" fill-rule="evenodd" stroke="none"/>
    </g>
    <g id="text1" transform="matrix(1.0, 0.0, 0.0, 1.0, -0.65, 1.05)">
      <g transform="matrix(1.0, 0.0, 0.0, 1.0, 0.0, 0.0)">
        <use fill="#ffffff" fill-opacity="0.5921569" height="13.75" transform="matrix(0.0127, 0.0, 0.0, 0.0127, 0.0, 10.0)" width="106.3" xlink:href="#font_Fusion_P0"/>
        <use fill="#ffffff" fill-opacity="0.5921569" height="13.75" transform="matrix(0.0127, 0.0, 0.0, 0.0127, 14.35, 10.0)" width="106.3" xlink:href="#font_Fusion_y0"/>
        <use fill="#ffffff" fill-opacity="0.5921569" height="13.75" transform="matrix(0.0127, 0.0, 0.0, 0.0127, 28.7, 10.0)" width="106.3" xlink:href="#font_Fusion_r0"/>
        <use fill="#ffffff" fill-opacity="0.5921569" height="13.75" transform="matrix(0.0127, 0.0, 0.0, 0.0127, 43.05, 10.0)" width="106.3" xlink:href="#font_Fusion_o0"/>
        <use fill="#ffffff" fill-opacity="0.5921569" height="13.75" transform="matrix(0.0127, 0.0, 0.0, 0.0127, 57.4, 10.0)" width="106.3" xlink:href="#font_Fusion_z0"/>
        <use fill="#ffffff" fill-opacity="0.5921569" height="13.75" transform="matrix(0.0127, 0.0, 0.0, 0.0127, 71.75, 10.0)" width="106.3" xlink:href="#font_Fusion_e0"/>
        <use fill="#ffffff" fill-opacity="0.5921569" height="13.75" transform="matrix(0.0127, 0.0, 0.0, 0.0127, 86.1, 10.0)" width="106.3" xlink:href="#font_Fusion_n0"/>
      </g>
    </g>
    <g id="font_Fusion_P0">
      <path d="M764.0 -452.0 L764.0 -452.0 Q779.5 -452.0 791.5 -440.0 803.0 -428.5 803.0 -412.5 L803.0 -360.5 Q803.0 -345.5 791.5 -333.0 779.5 -321.0 764.0 -321.0 L506.5 -321.0 401.5 -150.5 966.5 -150.5 Q1010.5 -150.5 1042.5 -182.5 1074.5 -214.5 1074.5 -259.0 L1074.5 -515.0 Q1074.5 -558.0 1042.5 -590.5 1010.0 -622.5 966.5 -622.5 L50.0 -622.5 50.0 0.0 321.5 0.0 321.5 -452.0 764.0 -452.0" fill-rule="evenodd" stroke="none"/>
    </g>
    <g id="font_Fusion_y0">
      <path d="M50.0 -359.5 L50.0 -359.5 Q50.0 -316.0 82.5 -283.5 115.0 -251.0 158.5 -251.0 L803.0 -251.0 803.0 -209.5 Q803.0 -195.0 791.5 -182.5 779.5 -170.5 764.0 -170.5 L150.5 -170.5 255.5 0.0 966.5 0.0 Q1010.5 0.0 1042.5 -32.0 1074.5 -64.0 1074.5 -108.5 L1074.5 -622.5 803.0 -622.5 803.0 -371.5 360.0 -371.5 Q344.5 -371.5 333.0 -383.0 321.5 -394.5 321.5 -410.5 L321.5 -622.5 50.0 -622.5 50.0 -359.5" fill-rule="evenodd" stroke="none"/>
    </g>
    <g id="font_Fusion_o0">
      <path d="M966.5 -622.5 L158.5 -622.5 Q114.0 -622.5 82.0 -590.5 50.0 -558.5 50.0 -515.0 L50.0 -108.5 Q50.0 -65.0 82.5 -32.5 115.0 0.0 158.5 0.0 L966.5 0.0 Q1010.0 0.0 1042.5 -32.5 1074.5 -65.5 1074.5 -108.5 L1074.5 -515.0 Q1074.5 -558.0 1042.5 -590.5 1010.0 -622.5 966.5 -622.5 M764.0 -452.0 L764.0 -452.0 Q779.5 -452.0 791.5 -440.0 803.0 -428.5 803.0 -413.0 L803.0 -209.5 Q803.0 -194.0 791.5 -182.0 779.5 -170.5 764.0 -170.5 L360.0 -170.5 Q344.5 -170.5 333.0 -182.0 321.5 -193.5 321.5 -209.5 L321.5 -413.0 Q321.5 -429.0 333.0 -440.5 344.5 -452.0 360.0 -452.0 L764.0 -452.0" fill-rule="evenodd" stroke="none"/>
    </g>
    <g id="font_Fusion_z0">
      <path d="M321.5 -251.0 L966.5 -251.0 Q1010.0 -251.0 1042.5 -284.0 1074.5 -316.5 1074.5 -361.5 L1074.5 -622.5 50.0 -622.5 155.0 -452.0 803.0 -452.0 803.0 -410.5 Q803.0 -396.0 791.5 -383.5 779.5 -371.5 764.0 -371.5 L50.0 -371.5 50.0 -108.5 Q50.0 -65.0 82.5 -32.5 115.0 0.0 158.5 0.0 L1074.5 0.0 969.5 -170.5 360.0 -170.5 Q344.5 -170.5 333.0 -182.0 321.5 -193.5 321.5 -209.5 L321.5 -251.0" fill-rule="evenodd" stroke="none"/>
    </g>
  </defs>
</svg>
