<?xml version="1.0" encoding="UTF-8" standalone="no"?>
<svg xmlns:xlink="http://www.w3.org/1999/xlink" height="2253.25px" width="1497.2px" xmlns="http://www.w3.org/2000/svg">
  <g transform="matrix(1.0, 0.0, 0.0, 1.0, 755.4, 1136.6)">
    <use height="511.0" transform="matrix(1.0, 0.0, 0.0, 1.0, -743.95, -242.4)" width="1166.9" xlink:href="#sprite0"/>
    <use height="511.5" transform="matrix(1.0, 0.0, 0.0, 1.0, -200.65, -269.6)" width="846.95" xlink:href="#sprite1"/>
    <use height="57.75" transform="matrix(1.0, 0.0, 0.0, 1.0, -298.45, -77.1)" width="196.95" xlink:href="#sprite11"/>
  </g>
  <defs>
    <g id="sprite0" transform="matrix(1.0, 0.0, 0.0, 1.0, 0.0, 0.0)">
      <use height="511.0" transform="matrix(1.0, 0.0, 0.0, 1.0, 0.0, 0.0)" width="1166.9" xlink:href="#shape0"/>
    </g>
    <g id="shape0" transform="matrix(1.0, 0.0, 0.0, 1.0, 0.0, 0.0)">
      <path d="M869.9 260.0 L199.95 334.0 0.0 358.35 0.0 0.0 869.9 0.0 869.9 260.0" fill="#d5d5d5" fill-rule="evenodd" stroke="none"/>
      <path d="M1166.9 300.2 L1166.9 511.0 0.0 511.0 0.0 358.35 199.95 334.0 869.9 260.0 1166.9 300.2" fill="#e6e6e6" fill-rule="evenodd" stroke="none"/>
      <path d="M1166.9 300.2 L869.9 260.0 869.9 0.0 1166.9 0.0 1166.9 300.2" fill="#c4c4c4" fill-rule="evenodd" stroke="none"/>
    </g>
    <g id="sprite1" transform="matrix(1.0, 0.0, 0.0, 1.0, -1.15, 0.0)">
      <use height="583.1" transform="matrix(-0.2846, -0.1229, -0.1229, 0.2846, 431.7414, 293.4081)" width="583.2" xlink:href="#sprite2"/>
      <use height="200.85" transform="matrix(1.0989, 0.1745, -0.1745, 1.0989, 451.55, 0.0)" width="200.0" xlink:href="#sprite7"/>
      <use height="74.8" transform="matrix(0.7781, 0.3277, -0.3819, 0.9069, 445.0625, 79.2305)" width="104.45" xlink:href="#sprite8"/>
      <use height="243.95" transform="matrix(0.4396, 0.0, 0.0, 0.4396, 366.95, 209.222)" width="389.15" xlink:href="#sprite9"/>
      <use height="332.75" transform="matrix(1.0, 0.0, 0.0, 1.0, 1.15, 178.75)" width="846.95" xlink:href="#sprite10"/>
    </g>
    <g id="sprite2" transform="matrix(1.0, 0.0, 0.0, 1.0, 280.25, 274.5)">
      <use height="396.05" transform="matrix(1.0, 0.0, 0.0, 1.0, -280.25, -274.5)" width="560.3" xlink:href="#sprite3"/>
      <use height="159.8" transform="matrix(0.9443, 0.3259, -0.3259, 0.9443, -44.6559, 28.6505)" width="255.0" xlink:href="#sprite4"/>
      <use height="85.6" transform="matrix(0.4923, 0.2792, -0.2792, 0.4923, 42.4595, 13.5154)" width="529.15" xlink:href="#sprite5"/>
      <use height="85.6" transform="matrix(0.2794, 0.4919, 0.4919, -0.2794, 7.2886, 48.3257)" width="529.15" xlink:href="#sprite5"/>
      <use height="141.1" transform="matrix(0.9491, 0.3074, -0.3074, 0.9491, 42.4436, -51.9935)" width="245.85" xlink:href="#sprite6"/>
    </g>
    <g id="sprite3" transform="matrix(1.0, 0.0, 0.0, 1.0, 280.15, 198.05)">
      <use height="396.05" transform="matrix(1.0, 0.0, 0.0, 1.0, -280.15, -198.05)" width="560.3" xlink:href="#shape1"/>
    </g>
    <g id="shape1" transform="matrix(1.0, 0.0, 0.0, 1.0, 280.15, 198.05)">
      <path d="M-165.4 -198.05 L-149.7 -178.2 Q-123.6 -144.5 -91.95 -100.0 -65.9 -63.3 -50.45 -46.7 -32.15 -27.05 -0.95 -4.0 20.3 11.6 70.55 32.3 L109.65 48.0 Q127.35 55.15 137.85 60.0 L149.05 61.0 Q170.3 63.1 182.35 66.6 187.3 68.1 201.05 74.0 211.55 78.5 230.15 89.8 256.15 105.65 256.15 113.0 256.15 117.85 253.25 119.35 251.2 120.4 245.95 120.2 238.95 119.95 236.55 120.2 230.9 120.85 227.15 124.0 231.25 128.1 256.7 147.95 280.15 167.4 280.15 174.5 280.15 178.9 277.75 182.8 275.85 185.95 268.15 195.0 262.45 193.9 237.5 180.2 208.95 164.5 190.95 157.35 L190.05 157.0 189.05 157.0 Q192.05 160.0 192.05 167.5 192.05 176.8 189.05 186.05 185.15 198.0 178.55 198.0 170.85 198.0 167.3 195.25 164.25 192.9 163.15 187.4 162.8 185.65 161.85 174.8 161.0 165.3 159.05 158.0 154.7 141.5 137.6 130.95 123.8 122.5 111.05 122.0 L87.25 120.85 Q60.7 130.35 41.85 139.55 29.05 145.75 13.8 155.35 2.8 162.25 -4.0 164.2 -13.55 167.0 -32.45 167.0 -45.9 167.0 -51.75 162.8 -56.35 159.5 -60.35 149.55 -67.45 132.0 -70.4 126.3 -79.2 109.2 -93.95 92.0 -104.05 80.15 -141.0 34.9 -163.0 7.95 -198.3 -31.0 -206.35 -36.15 -215.95 -45.95 -227.85 -58.1 -246.45 -81.85 -257.5 -96.0 -280.15 -126.15 -257.9 -144.55 -188.45 -184.85 L-165.4 -198.05 M76.15 56.7 Q75.05 56.8 75.05 57.0 L80.05 57.0 76.15 56.7" fill="#000000" fill-rule="evenodd" stroke="none"/>
    </g>
    <g id="sprite4" transform="matrix(1.0, 0.0, 0.0, 1.0, 127.5, 79.9)">
      <use height="159.8" transform="matrix(1.0, 0.0, 0.0, 1.0, -127.5, -79.9)" width="255.0" xlink:href="#shape2"/>
    </g>
    <g id="shape2" transform="matrix(1.0, 0.0, 0.0, 1.0, 127.5, 79.9)">
      <path d="M-120.5 -56.4 Q-120.5 -66.95 -112.5 -72.95 -103.25 -79.9 -84.0 -79.9 -49.55 -79.9 -36.35 -63.2 -31.45 -56.95 -27.95 -46.5 L-22.5 -27.9 Q-19.6 -18.45 -8.45 -9.85 L2.05 -2.0 Q8.65 3.1 13.5 8.1 20.7 15.55 40.6 19.05 56.15 21.75 70.5 21.1 84.7 20.55 103.05 30.65 113.0 36.15 127.5 46.1 127.1 52.75 121.95 61.65 116.8 70.5 116.5 76.1 L102.8 76.9 73.25 78.1 78.5 78.1 Q78.5 79.9 68.15 79.9 L44.05 78.25 Q8.45 74.05 -4.5 66.1 L-21.5 55.85 -34.5 47.8 -35.7 47.7 Q-40.25 45.9 -50.95 42.35 -70.4 35.8 -83.2 29.7 -127.5 8.5 -127.5 -21.4 -127.5 -34.05 -120.8 -45.4 L-120.35 -45.35 -120.4 -46.05 -120.5 -56.4" fill="#000000" fill-rule="evenodd" stroke="none"/>
    </g>
    <g id="sprite5" transform="matrix(1.0, 0.0, 0.0, 1.0, 264.55, 42.8)">
      <use height="85.6" transform="matrix(1.0, 0.0, 0.0, 1.0, -264.55, -42.8)" width="529.15" xlink:href="#shape3"/>
    </g>
    <g id="shape3" transform="matrix(1.0, 0.0, 0.0, 1.0, 264.55, 42.8)">
      <path d="M-250.55 14.7 L-264.55 1.7 -233.55 -9.35 -247.55 -25.35 -224.5 -36.35 Q-118.0 -53.1 -19.45 -26.35 L90.55 7.7 Q150.5 30.7 227.6 29.7 L264.6 42.7 Q222.65 43.35 186.3 40.55 L140.95 35.35 Q85.0 26.6 45.55 7.7 -114.8 -49.4 -216.55 -22.35 -202.65 -12.3 -216.55 4.7 L-250.55 14.7" fill="#c8c8c8" fill-rule="evenodd" stroke="none"/>
      <path d="M-200.55 -19.35 Q-193.1 -7.1 -200.55 5.15 L-216.55 4.7 Q-202.65 -12.3 -216.55 -22.35 L-200.55 -19.35" fill="#848484" fill-rule="evenodd" stroke="none"/>
      <path d="M140.95 35.35 Q65.95 26.1 45.55 15.65 -69.1 -41.7 -200.55 -19.35 L-216.55 -22.35 Q-114.8 -49.4 45.55 7.7 85.0 26.6 140.95 35.35 M-200.55 5.15 L-227.55 14.7 -250.55 14.7 -216.55 4.7 -200.55 5.15" fill="#595959" fill-rule="evenodd" stroke="none"/>
    </g>
    <g id="sprite6" transform="matrix(1.0, 0.0, 0.0, 1.0, 122.9, 70.55)">
      <use height="141.1" transform="matrix(1.0, 0.0, 0.0, 1.0, -122.9, -70.55)" width="245.85" xlink:href="#shape4"/>
    </g>
    <g id="shape4" transform="matrix(1.0, 0.0, 0.0, 1.0, 122.9, 70.55)">
      <path d="M81.65 56.35 L77.8 52.75 Q70.35 45.6 64.7 38.7 58.95 31.7 57.95 28.55 51.6 8.2 45.65 -1.5 37.65 -14.55 24.95 -19.45 15.65 -23.0 6.7 -25.6 L6.6 -25.6 6.55 -25.55 Q2.15 -24.15 -10.95 -18.0 -23.0 -12.35 -31.25 -10.2 -43.75 -6.95 -56.05 -8.45 L-52.55 -8.45 -68.95 -9.85 -99.05 -12.45 Q-109.9 -13.25 -115.4 -21.25 -120.6 -28.9 -118.55 -40.1 L-122.9 -40.8 Q-117.7 -52.6 -109.05 -59.2 -101.05 -65.35 -88.75 -67.95 -78.6 -70.1 -62.05 -70.45 -52.1 -70.65 -29.05 -70.45 L-1.4 -70.45 22.1 -70.55 Q39.6 -70.15 47.4 -66.9 54.85 -63.85 63.7 -53.85 L77.55 -37.75 87.95 -25.45 Q93.5 -19.15 98.05 -8.15 L100.5 -1.5 104.95 10.55 109.8 19.0 Q113.85 25.8 114.95 30.55 L119.3 48.0 Q122.95 63.05 122.95 65.05 122.95 67.8 114.8 69.4 L113.4 63.65 102.1 60.45 Q95.95 58.6 93.8 58.6 88.85 58.6 81.95 56.45 L81.65 56.35" fill="#000000" fill-rule="evenodd" stroke="none"/>
      <path d="M114.8 69.4 L114.0 69.55 104.45 70.55 Q97.2 70.55 81.65 56.35 L81.95 56.45 Q88.85 58.6 93.8 58.6 95.95 58.6 102.1 60.45 L113.4 63.65 114.8 69.4" fill="#1a1a1a" fill-rule="evenodd" stroke="none"/>
    </g>
    <g id="sprite7" transform="matrix(1.0, 0.0, 0.0, 1.0, 0.0, 0.0)">
      <use height="200.85" transform="matrix(1.0, 0.0, 0.0, 1.0, 0.0, 0.0)" width="200.0" xlink:href="#shape5"/>
    </g>
    <g id="shape5" transform="matrix(1.0, 0.0, 0.0, 1.0, 0.0, 0.0)">
      <path d="M120.9 198.0 Q145.65 191.85 164.95 172.55 193.3 144.25 193.3 104.2 193.3 64.15 164.95 35.9 136.65 7.55 96.65 7.55 56.6 7.55 28.25 35.9 0.75 63.4 0.0 102.15 L0.0 100.0 Q0.0 58.6 29.25 29.3 58.55 0.0 100.0 0.0 141.4 0.0 170.7 29.3 200.0 58.6 200.0 100.0 200.0 141.45 170.7 170.75 149.1 192.3 120.9 198.0" fill="#333333" fill-rule="evenodd" stroke="none"/>
      <path d="M0.0 102.15 Q0.75 63.4 28.25 35.9 56.6 7.55 96.65 7.55 136.65 7.55 164.95 35.9 193.3 64.15 193.3 104.2 193.3 144.25 164.95 172.55 145.65 191.85 120.9 198.0 109.35 200.85 96.65 200.85 56.6 200.85 28.25 172.55 0.0 144.25 0.0 104.2 L0.0 102.15" fill="#000000" fill-rule="evenodd" stroke="none"/>
    </g>
    <g id="sprite8" transform="matrix(1.0, 0.0, 0.0, 1.0, -1.8, -0.1)">
      <use height="74.8" transform="matrix(1.0, 0.0, 0.0, 1.0, 1.8, 0.1)" width="104.45" xlink:href="#shape6"/>
    </g>
    <g id="shape6" transform="matrix(1.0, 0.0, 0.0, 1.0, -1.8, -0.1)">
      <path d="M106.25 51.55 Q98.35 62.15 85.1 65.3 63.8 69.9 43.85 55.4 36.15 48.25 34.1 52.2 33.65 53.85 34.15 58.0 26.3 75.4 12.4 74.9 -2.45 59.15 3.5 28.4 L23.5 28.4 Q26.1 30.15 28.25 30.45 34.8 30.3 39.7 24.05 69.6 1.9 92.45 0.1 103.2 24.85 106.25 51.55" fill="#ffffff" fill-rule="evenodd" stroke="none"/>
    </g>
    <g id="sprite9" transform="matrix(1.0, 0.0, 0.0, 1.0, 0.0, -0.05)">
      <use height="243.95" transform="matrix(1.0, 0.0, 0.0, 1.0, 0.0, 0.05)" width="389.15" xlink:href="#shape7"/>
    </g>
    <g id="shape7" transform="matrix(1.0, 0.0, 0.0, 1.0, 0.0, -0.05)">
      <path d="M300.1 0.55 Q319.15 1.8 351.55 7.3 L382.2 12.65 387.35 13.55 387.15 16.65 388.15 30.7 Q389.15 43.35 389.15 62.15 L389.15 74.15 Q389.15 89.15 388.15 102.15 L385.15 157.15 Q383.2 162.55 377.6 179.1 371.65 195.25 365.15 206.8 346.5 239.8 319.0 244.0 316.1 242.0 267.4 238.8 202.45 234.6 183.15 232.15 170.95 230.65 81.4 197.5 26.75 177.3 0.0 166.55 L0.15 166.15 Q1.15 164.15 18.45 139.35 36.6 113.4 39.15 109.15 52.55 87.35 71.2 69.4 76.05 64.75 96.15 48.15 109.35 37.25 129.05 26.3 L133.4 23.95 Q130.25 27.75 129.2 31.2 129.9 31.9 130.9 32.1 L133.7 32.2 140.2 31.2 146.7 30.2 Q149.8 30.2 152.55 31.2 155.3 32.2 158.2 32.2 157.3 36.45 150.5 39.1 L142.2 42.2 142.2 43.2 146.25 43.7 150.7 44.2 Q160.55 44.2 166.85 40.5 169.55 38.9 179.2 30.2 193.1 17.75 202.05 18.25 206.5 18.5 208.2 21.2 L208.2 21.3 Q212.6 21.7 216.7 23.8 221.05 26.05 228.2 25.2 228.2 28.2 229.2 30.2 L226.7 31.85 Q226.1 32.65 225.2 36.2 233.45 38.7 236.1 40.0 239.35 41.6 240.25 44.0 240.9 45.7 241.1 51.1 241.4 58.6 242.2 64.2 243.2 71.5 245.95 86.8 248.2 100.4 248.2 108.2 248.2 116.15 246.2 122.95 244.2 129.75 244.2 133.7 244.2 146.65 248.2 161.5 252.25 176.65 256.2 177.2 256.2 175.15 257.7 172.8 259.2 170.4 259.2 169.7 259.2 164.45 256.2 145.9 L253.2 128.2 Q253.2 127.05 255.7 118.0 258.2 108.9 258.2 102.7 258.2 87.8 257.9 84.3 257.05 74.65 253.2 64.2 L253.2 38.2 268.2 38.2 273.45 39.6 277.2 40.2 277.2 35.2 271.25 30.8 Q265.1 26.15 263.2 25.2 L263.2 19.2 282.2 19.2 Q285.15 20.35 298.9 27.45 310.0 33.2 312.7 33.2 316.95 33.2 321.4 30.85 327.2 27.85 326.2 23.2 322.15 22.6 307.25 16.85 L290.2 10.2 Q291.3 8.25 297.45 2.85 L300.1 0.55 M161.4 14.65 L162.95 14.15 161.65 15.15 161.4 14.65 M198.15 11.15 L200.05 11.0 204.55 10.4 204.7 11.2 200.15 11.5 200.1 11.5 198.3 11.75 198.25 11.75 198.15 11.15" fill="#000000" fill-rule="evenodd" stroke="none"/>
      <path d="M133.4 23.95 Q149.95 15.15 156.15 15.15 L161.4 14.65 161.65 15.15 160.2 16.2 160.2 24.2 Q167.35 22.25 185.0 15.4 192.05 12.65 198.25 11.75 L198.3 11.75 200.1 11.5 200.15 11.5 204.7 11.2 Q208.5 11.2 221.65 13.7 234.8 16.2 240.2 16.2 248.35 16.2 256.35 9.7 261.35 5.7 265.2 0.05 271.4 -0.05 279.65 0.35 L286.65 0.65 297.0 0.35 300.1 0.55 297.45 2.85 Q291.3 8.25 290.2 10.2 L307.25 16.85 Q322.15 22.6 326.2 23.2 327.2 27.85 321.4 30.85 316.95 33.2 312.7 33.2 310.0 33.2 298.9 27.45 285.15 20.35 282.2 19.2 L263.2 19.2 263.2 25.2 Q265.1 26.15 271.25 30.8 L277.2 35.2 277.2 40.2 273.45 39.6 268.2 38.2 253.2 38.2 253.2 64.2 Q257.05 74.65 257.9 84.3 258.2 87.8 258.2 102.7 258.2 108.9 255.7 118.0 253.2 127.05 253.2 128.2 L256.2 145.9 Q259.2 164.45 259.2 169.7 259.2 170.4 257.7 172.8 256.2 175.15 256.2 177.2 252.25 176.65 248.2 161.5 244.2 146.65 244.2 133.7 244.2 129.75 246.2 122.95 248.2 116.15 248.2 108.2 248.2 100.4 245.95 86.8 243.2 71.5 242.2 64.2 241.4 58.6 241.1 51.1 240.9 45.7 240.25 44.0 239.35 41.6 236.1 40.0 233.45 38.7 225.2 36.2 226.1 32.65 226.7 31.85 L229.2 30.2 Q228.2 28.2 228.2 25.2 221.05 26.05 216.7 23.8 212.6 21.7 208.2 21.3 L208.2 21.2 Q206.5 18.5 202.05 18.25 193.1 17.75 179.2 30.2 169.55 38.9 166.85 40.5 160.55 44.2 150.7 44.2 L146.25 43.7 142.2 43.2 142.2 42.2 150.5 39.1 Q157.3 36.45 158.2 32.2 155.3 32.2 152.55 31.2 149.8 30.2 146.7 30.2 L140.2 31.2 133.7 32.2 130.9 32.1 Q129.9 31.9 129.2 31.2 130.25 27.75 133.4 23.95" fill="#330000" fill-rule="evenodd" stroke="none"/>
      <path d="M162.95 14.15 L164.2 13.65 Q170.5 12.05 198.15 11.15 L198.25 11.75 Q192.05 12.65 185.0 15.4 167.35 22.25 160.2 24.2 L160.2 16.2 161.65 15.15 162.95 14.15 M204.55 10.4 L223.0 7.05 251.15 1.15 Q255.9 0.1 265.2 0.05 261.35 5.7 256.35 9.7 248.35 16.2 240.2 16.2 234.8 16.2 221.65 13.7 208.5 11.2 204.7 11.2 L204.55 10.4" fill="#650101" fill-rule="evenodd" stroke="none"/>
    </g>
    <g id="sprite10" transform="matrix(1.0, 0.0, 0.0, 1.0, 0.0, 0.0)">
      <use height="332.75" transform="matrix(1.0, 0.0, 0.0, 1.0, 0.0, 0.0)" width="846.95" xlink:href="#shape8"/>
    </g>
    <g id="shape8" transform="matrix(1.0, 0.0, 0.0, 1.0, 0.0, 0.0)">
      <path d="M335.0 72.8 L846.95 0.0 846.95 41.3 415.0 108.8 335.0 72.8 M0.0 224.8 L115.0 201.8 270.9 244.4 Q271.5 261.1 278.8 267.6 284.9 273.05 299.15 274.25 L307.0 274.55 307.8 274.55 315.45 274.05 310.45 325.45 0.0 224.8" fill="#1e1e1e" fill-rule="evenodd" stroke="none"/>
      <path d="M846.95 41.3 L846.95 54.8 555.2 87.0 408.9 165.95 413.65 121.55 415.0 108.8 846.95 41.3 M636.95 332.75 L390.35 332.75 397.05 276.8 401.0 239.55 406.95 260.8 440.95 295.8 636.95 332.75" fill="#333333" fill-rule="evenodd" stroke="none"/>
      <path d="M846.95 54.8 L846.95 332.75 636.95 332.75 440.95 295.8 406.95 260.8 401.0 239.55 408.9 165.95 555.2 87.0 846.95 54.8" fill="#444444" fill-rule="evenodd" stroke="none"/>
      <path d="M348.3 332.75 L332.95 332.75 310.45 325.45 310.0 329.75 287.7 329.75 262.05 318.65 Q255.4 316.6 252.0 319.8 L187.0 313.8 131.5 286.3 109.0 278.8 101.0 278.8 93.0 272.8 44.0 255.8 44.0 250.8 12.0 250.8 12.0 269.8 19.0 281.8 19.0 291.8 25.0 291.8 25.0 329.75 0.0 329.75 0.0 224.8 310.45 325.45 315.45 274.05 316.1 267.45 318.1 246.75 318.7 240.6 319.4 233.5 320.05 227.0 327.45 150.75 328.05 144.55 335.0 72.8 415.0 108.8 413.65 121.55 Q404.3 118.15 404.95 113.8 L359.95 107.8 351.95 124.8 351.95 137.8 338.95 179.8 Q334.75 186.4 334.5 194.8 333.8 216.55 334.85 238.25 335.45 252.4 336.85 266.55 L337.25 270.55 Q340.65 303.6 348.3 332.75" fill="#555555" fill-rule="evenodd" stroke="none"/>
      <path d="M390.35 332.75 L348.3 332.75 Q340.65 303.6 337.25 270.55 L336.85 266.55 Q335.45 252.4 334.85 238.25 333.8 216.55 334.5 194.8 334.75 186.4 338.95 179.8 L351.95 137.8 351.95 124.8 359.95 107.8 404.95 113.8 Q404.3 118.15 413.65 121.55 L408.9 165.95 401.0 239.55 397.05 276.8 390.35 332.75 M287.7 329.75 L25.0 329.75 25.0 291.8 19.0 291.8 19.0 281.8 12.0 269.8 12.0 250.8 44.0 250.8 44.0 255.8 93.0 272.8 101.0 278.8 109.0 278.8 131.5 286.3 187.0 313.8 252.0 319.8 Q255.4 316.6 262.05 318.65 L287.7 329.75" fill="#626262" fill-rule="evenodd" stroke="none"/>
      <path d="M270.9 244.4 L270.8 240.95 Q270.8 216.8 309.0 167.65 L318.35 156.05 317.5 157.7 Q314.05 164.75 314.05 166.5 314.05 170.25 315.55 172.1 316.55 173.35 316.9 174.55 L317.05 175.75 Q317.05 177.75 316.35 180.0 314.7 185.05 309.35 191.3 L303.85 197.4 Q301.3 200.45 301.05 202.0 L302.85 202.25 304.8 202.5 Q309.6 202.5 315.3 190.5 L315.55 190.0 Q321.05 178.4 321.05 171.5 L320.55 168.4 320.05 165.25 Q320.05 160.15 322.75 155.8 324.6 152.9 327.45 150.75 L320.05 227.0 315.5 231.0 311.0 234.45 310.05 235.0 304.05 236.7 Q299.85 237.8 299.05 239.5 297.9 241.95 297.3 245.35 L295.55 253.5 Q295.0 255.45 295.15 258.2 295.3 260.45 294.55 262.0 L292.85 263.75 Q291.55 265.1 291.55 267.0 291.55 271.35 298.55 274.0 L299.15 274.25 Q284.9 273.05 278.8 267.6 271.5 261.1 270.9 244.4 M319.4 233.5 L318.7 240.6 Q315.4 242.5 314.05 242.5 L311.4 242.25 310.2 242.15 308.55 242.0 308.55 239.5 310.55 238.65 314.9 236.1 Q317.55 234.45 319.4 233.5 M318.1 246.75 L316.1 267.45 313.9 270.65 Q312.4 272.0 308.55 272.0 L307.25 271.85 Q305.4 271.45 302.55 270.0 297.55 267.45 297.55 264.25 297.55 261.45 300.05 254.0 302.6 246.5 303.55 246.5 L309.6 248.45 313.3 249.5 Q314.1 249.5 316.9 247.6 L318.1 246.75" fill="#000000" fill-rule="evenodd" stroke="none"/>
      <path d="M318.35 156.05 L318.8 155.55 328.05 144.55 327.45 150.75 Q324.6 152.9 322.75 155.8 320.05 160.15 320.05 165.25 L320.55 168.4 321.05 171.5 Q321.05 178.4 315.55 190.0 L315.3 190.5 Q309.6 202.5 304.8 202.5 L302.85 202.25 301.05 202.0 Q301.3 200.45 303.85 197.4 L309.35 191.3 Q314.7 185.05 316.35 180.0 317.05 177.75 317.05 175.75 L316.9 174.55 Q316.55 173.35 315.55 172.1 314.05 170.25 314.05 166.5 314.05 164.75 317.5 157.7 L318.35 156.05" fill="#440000" fill-rule="evenodd" stroke="none"/>
      <path d="M320.05 227.0 L319.4 233.5 Q317.55 234.45 314.9 236.1 L310.55 238.65 308.55 239.5 308.55 242.0 310.2 242.15 311.4 242.25 314.05 242.5 Q315.4 242.5 318.7 240.6 L318.1 246.75 316.9 247.6 Q314.1 249.5 313.3 249.5 L309.6 248.45 303.55 246.5 Q302.6 246.5 300.05 254.0 297.55 261.45 297.55 264.25 297.55 267.45 302.55 270.0 305.4 271.45 307.25 271.85 L308.55 272.0 Q312.4 272.0 313.9 270.65 L316.1 267.45 315.45 274.05 307.8 274.55 307.0 274.55 299.15 274.25 298.55 274.0 Q291.55 271.35 291.55 267.0 291.55 265.1 292.85 263.75 L294.55 262.0 Q295.3 260.45 295.15 258.2 295.0 255.45 295.55 253.5 L297.3 245.35 Q297.9 241.95 299.05 239.5 299.85 237.8 304.05 236.7 L310.05 235.0 311.0 234.45 315.5 231.0 320.05 227.0" fill="#2b0000" fill-rule="evenodd" stroke="none"/>
    </g>
    <g id="sprite11" transform="matrix(1.0, 0.0, 0.0, 1.0, 83.8, 27.05)">
      <use height="11.05" transform="matrix(1.0, 0.0, 0.0, 1.0, -83.8, -27.05)" width="83.85" xlink:href="#text0"/>
      <use height="43.75" transform="matrix(1.0, 0.0, 0.0, 1.0, -59.1, -13.05)" width="172.25" xlink:href="#text1"/>
    </g>
    <g id="text0" transform="matrix(1.0, 0.0, 0.0, 1.0, -0.5, 1.05)">
      <g transform="matrix(1.0, 0.0, 0.0, 1.0, 0.0, 0.0)">
        <use fill="#cc0000" height="11.05" transform="matrix(0.0098, 0.0, 0.0, 0.0098, 0.0, 8.0)" width="83.85" xlink:href="#font_Fusion_a0"/>
        <use fill="#cc0000" height="11.05" transform="matrix(0.0098, 0.0, 0.0, 0.0098, 11.05, 8.0)" width="83.85" xlink:href="#font_Fusion_r0"/>
        <use fill="#cc0000" height="11.05" transform="matrix(0.0098, 0.0, 0.0, 0.0098, 22.1, 8.0)" width="83.85" xlink:href="#font_Fusion_t0"/>
        <use fill="#cc0000" height="11.05" transform="matrix(0.0098, 0.0, 0.0, 0.0098, 33.15, 8.0)" width="83.85" xlink:href="#font_Fusion_w0"/>
        <use fill="#cc0000" height="11.05" transform="matrix(0.0098, 0.0, 0.0, 0.0098, 46.7, 8.0)" width="83.85" xlink:href="#font_Fusion_o0"/>
        <use fill="#cc0000" height="11.05" transform="matrix(0.0098, 0.0, 0.0, 0.0098, 57.75, 8.0)" width="83.85" xlink:href="#font_Fusion_r0"/>
        <use fill="#cc0000" height="11.05" transform="matrix(0.0098, 0.0, 0.0, 0.0098, 68.8, 8.0)" width="83.85" xlink:href="#font_Fusion_k0"/>
      </g>
    </g>
    <g id="font_Fusion_a0">
      <path d="M1074.5 0.0 L1074.5 -622.5 158.5 -622.5 Q114.0 -622.5 82.0 -590.5 50.0 -558.5 50.0 -515.0 L50.0 -108.5 Q50.0 -65.0 82.5 -32.5 115.0 0.0 158.5 0.0 L618.0 0.0 723.0 -170.5 360.0 -170.5 Q344.5 -170.5 333.0 -182.0 321.5 -193.5 321.5 -209.5 L321.5 -413.0 Q321.5 -429.0 333.0 -440.5 344.5 -452.0 360.0 -452.0 L803.0 -452.0 803.0 0.0 1074.5 0.0" fill-rule="evenodd" stroke="none"/>
    </g>
    <g id="font_Fusion_r0">
      <path d="M803.0 -412.5 L803.0 -360.5 Q803.0 -345.5 791.5 -333.0 779.5 -321.0 764.0 -321.0 L401.5 -321.0 673.0 100.5 941.0 100.5 773.5 -150.5 966.5 -150.5 Q1010.5 -150.5 1042.5 -182.5 1074.5 -214.5 1074.5 -259.0 L1074.5 -515.0 Q1074.5 -558.0 1042.5 -590.5 1010.0 -622.5 966.5 -622.5 L50.0 -622.5 50.0 0.0 321.5 0.0 321.5 -452.0 764.0 -452.0 Q779.5 -452.0 791.5 -440.0 803.0 -428.5 803.0 -412.5" fill-rule="evenodd" stroke="none"/>
    </g>
    <g id="font_Fusion_t0">
      <path d="M1074.5 -108.5 L1074.5 -271.0 803.0 -271.0 803.0 -209.5 Q803.0 -194.0 791.5 -182.0 779.5 -170.5 764.0 -170.5 L360.0 -170.5 Q345.5 -170.5 333.5 -182.5 321.5 -194.5 321.5 -209.5 L321.5 -401.5 718.5 -401.5 823.5 -572.0 321.5 -572.0 321.5 -622.5 50.0 -622.5 50.0 -108.5 Q50.0 -65.0 82.5 -32.5 115.0 0.0 158.5 0.0 L966.5 0.0 Q1010.5 0.0 1042.5 -32.0 1074.5 -64.0 1074.5 -108.5" fill-rule="evenodd" stroke="none"/>
    </g>
    <g id="font_Fusion_w0">
      <path d="M803.0 -98.5 L803.0 0.0 1217.5 0.0 Q1261.5 0.0 1293.5 -32.0 1325.5 -64.0 1325.5 -108.5 L1325.5 -622.5 1054.0 -622.5 1054.0 -209.5 Q1054.0 -195.0 1042.5 -182.5 1030.5 -170.5 1015.0 -170.5 L823.5 -170.5 823.5 -622.5 552.0 -622.5 552.0 -209.5 Q552.0 -195.0 540.5 -182.5 528.5 -170.5 513.0 -170.5 L321.5 -170.5 321.5 -622.5 50.0 -622.5 50.0 0.0 715.5 0.0 Q759.0 0.0 790.5 -32.0 822.0 -64.0 803.0 -98.5 L803.0 -103.5 803.0 -98.5" fill-rule="evenodd" stroke="none"/>
    </g>
    <g id="font_Fusion_o0">
      <path d="M966.5 -622.5 L158.5 -622.5 Q114.0 -622.5 82.0 -590.5 50.0 -558.5 50.0 -515.0 L50.0 -108.5 Q50.0 -65.0 82.5 -32.5 115.0 0.0 158.5 0.0 L966.5 0.0 Q1010.0 0.0 1042.5 -32.5 1074.5 -65.5 1074.5 -108.5 L1074.5 -515.0 Q1074.5 -558.0 1042.5 -590.5 1010.0 -622.5 966.5 -622.5 M764.0 -452.0 L764.0 -452.0 Q779.5 -452.0 791.5 -440.0 803.0 -428.5 803.0 -413.0 L803.0 -209.5 Q803.0 -194.0 791.5 -182.0 779.5 -170.5 764.0 -170.5 L360.0 -170.5 Q344.5 -170.5 333.0 -182.0 321.5 -193.5 321.5 -209.5 L321.5 -413.0 Q321.5 -429.0 333.0 -440.5 344.5 -452.0 360.0 -452.0 L764.0 -452.0" fill-rule="evenodd" stroke="none"/>
    </g>
    <g id="font_Fusion_k0">
      <path d="M969.5 -401.5 L1074.5 -572.0 321.5 -572.0 321.5 -622.5 50.0 -622.5 50.0 0.0 321.5 0.0 321.5 -201.0 764.0 -201.0 Q779.5 -201.0 791.5 -189.0 803.0 -177.5 803.0 -162.0 L803.0 0.0 1074.5 0.0 1074.5 -264.0 Q1074.5 -307.0 1043.0 -339.0 1011.0 -371.5 966.5 -371.5 L321.5 -371.5 321.5 -401.5 969.5 -401.5" fill-rule="evenodd" stroke="none"/>
    </g>
    <g id="text1" transform="matrix(1.0, 0.0, 0.0, 1.0, -0.65, 1.05)">
      <g transform="matrix(1.0, 0.0, 0.0, 1.0, 0.0, 0.0)">
        <use fill="#000000" height="43.75" transform="matrix(0.0127, 0.0, 0.0, 0.0127, 0.0, 10.0)" width="172.25" xlink:href="#font_Fusion_c0"/>
        <use fill="#000000" height="43.75" transform="matrix(0.0127, 0.0, 0.0, 0.0127, 14.35, 10.0)" width="172.25" xlink:href="#font_Fusion_h0"/>
        <use fill="#000000" height="43.75" transform="matrix(0.0127, 0.0, 0.0, 0.0127, 28.7, 10.0)" width="172.25" xlink:href="#font_Fusion_r0"/>
        <use fill="#000000" height="43.75" transform="matrix(0.0127, 0.0, 0.0, 0.0127, 43.05, 10.0)" width="172.25" xlink:href="#font_Fusion_i0"/>
        <use fill="#000000" height="43.75" transform="matrix(0.0127, 0.0, 0.0, 0.0127, 47.65, 10.0)" width="172.25" xlink:href="#font_Fusion_s0"/>
        <use fill="#000000" height="43.75" transform="matrix(0.0127, 0.0, 0.0, 0.0127, 62.0, 10.0)" width="172.25" xlink:href="#font_Fusion_s0"/>
        <use fill="#000000" height="43.75" transform="matrix(0.0127, 0.0, 0.0, 0.0127, 86.8, 10.0)" width="172.25" xlink:href="#font_Fusion_m0"/>
        <use fill="#000000" height="43.75" transform="matrix(0.0127, 0.0, 0.0, 0.0127, 104.4, 10.0)" width="172.25" xlink:href="#font_Fusion_a0"/>
        <use fill="#000000" height="43.75" transform="matrix(0.0127, 0.0, 0.0, 0.0127, 118.75, 10.0)" width="172.25" xlink:href="#font_Fusion_r0"/>
        <use fill="#000000" height="43.75" transform="matrix(0.0127, 0.0, 0.0, 0.0127, 133.1, 10.0)" width="172.25" xlink:href="#font_Fusion_t0"/>
        <use fill="#000000" height="43.75" transform="matrix(0.0127, 0.0, 0.0, 0.0127, 147.45, 10.0)" width="172.25" xlink:href="#font_Fusion_i0"/>
        <use fill="#000000" height="43.75" transform="matrix(0.0127, 0.0, 0.0, 0.0127, 152.05, 10.0)" width="172.25" xlink:href="#font_Fusion_n0"/>
      </g>
      <g transform="matrix(1.0, 0.0, 0.0, 1.0, 0.0, 0.0)">
        <use fill="#000000" height="43.75" transform="matrix(0.0127, 0.0, 0.0, 0.0127, 0.0, 25.0)" width="172.25" xlink:href="#font_Fusion_y0"/>
        <use fill="#000000" height="43.75" transform="matrix(0.0127, 0.0, 0.0, 0.0127, 14.35, 25.0)" width="172.25" xlink:href="#font_Fusion_a0"/>
        <use fill="#000000" height="43.75" transform="matrix(0.0127, 0.0, 0.0, 0.0127, 28.7, 25.0)" width="172.25" xlink:href="#font_Fusion_n0"/>
        <use fill="#000000" height="43.75" transform="matrix(0.0127, 0.0, 0.0, 0.0127, 54.15, 25.0)" width="172.25" xlink:href="#font_Fusion_l0"/>
        <use fill="#000000" height="43.75" transform="matrix(0.0127, 0.0, 0.0, 0.0127, 68.5, 25.0)" width="172.25" xlink:href="#font_Fusion_e0"/>
        <use fill="#000000" height="43.75" transform="matrix(0.0127, 0.0, 0.0, 0.0127, 82.85, 25.0)" width="172.25" xlink:href="#font_Fusion_p0"/>
        <use fill="#000000" height="43.75" transform="matrix(0.0127, 0.0, 0.0, 0.0127, 97.2, 25.0)" width="172.25" xlink:href="#font_Fusion_a0"/>
        <use fill="#000000" height="43.75" transform="matrix(0.0127, 0.0, 0.0, 0.0127, 111.55, 25.0)" width="172.25" xlink:href="#font_Fusion_g0"/>
        <use fill="#000000" height="43.75" transform="matrix(0.0127, 0.0, 0.0, 0.0127, 125.9, 25.0)" width="172.25" xlink:href="#font_Fusion_e0"/>
      </g>
      <g transform="matrix(1.0, 0.0, 0.0, 1.0, 0.0, 0.0)">
        <use fill="#000000" height="43.75" transform="matrix(0.0127, 0.0, 0.0, 0.0127, 0.0, 40.0)" width="172.25" xlink:href="#font_Fusion_v0"/>
        <use fill="#000000" height="43.75" transform="matrix(0.0127, 0.0, 0.0, 0.0127, 14.35, 40.0)" width="172.25" xlink:href="#font_Fusion_a0"/>
        <use fill="#000000" height="43.75" transform="matrix(0.0127, 0.0, 0.0, 0.0127, 28.7, 40.0)" width="172.25" xlink:href="#font_Fusion_n0"/>
        <use fill="#000000" height="43.75" transform="matrix(0.0127, 0.0, 0.0, 0.0127, 43.7, 40.0)" width="172.25" xlink:href="#font_Fusion_b0"/>
        <use fill="#000000" height="43.75" transform="matrix(0.0127, 0.0, 0.0, 0.0127, 58.05, 40.0)" width="172.25" xlink:href="#font_Fusion_r0"/>
        <use fill="#000000" height="43.75" transform="matrix(0.0127, 0.0, 0.0, 0.0127, 72.4, 40.0)" width="172.25" xlink:href="#font_Fusion_a0"/>
        <use fill="#000000" height="43.75" transform="matrix(0.0127, 0.0, 0.0, 0.0127, 86.75, 40.0)" width="172.25" xlink:href="#font_Fusion_u0"/>
        <use fill="#000000" height="43.75" transform="matrix(0.0127, 0.0, 0.0, 0.0127, 101.1, 40.0)" width="172.25" xlink:href="#font_Fusion_n0"/>
      </g>
    </g>
    <g id="font_Fusion_c0">
      <path d="M1015.0 -622.5 L158.5 -622.5 Q114.0 -622.5 82.0 -590.5 50.0 -558.5 50.0 -515.0 L50.0 -108.5 Q50.0 -65.0 82.5 -32.5 115.0 0.0 158.5 0.0 L1074.5 0.0 1074.5 -170.5 360.0 -170.5 Q344.5 -170.5 333.0 -182.0 321.5 -193.5 321.5 -209.5 L321.5 -411.5 Q321.5 -428.5 333.0 -440.0 344.5 -452.0 360.0 -452.0 L803.0 -452.0 803.0 -401.5 1074.5 -401.5 1074.5 -563.5 Q1074.5 -587.5 1057.0 -605.0 1039.5 -622.5 1015.0 -622.5" fill-rule="evenodd" stroke="none"/>
    </g>
    <g id="font_Fusion_h0">
      <path d="M1074.5 -464.5 L1074.5 -464.5 Q1074.5 -507.5 1042.5 -540.0 1010.0 -572.0 966.5 -572.0 L321.5 -572.0 321.5 -622.5 50.0 -622.5 50.0 0.0 321.5 0.0 321.5 -401.5 764.0 -401.5 Q779.5 -401.5 791.5 -390.0 803.0 -378.0 803.0 -362.5 L803.0 0.0 1074.5 0.0 1074.5 -464.5" fill-rule="evenodd" stroke="none"/>
    </g>
    <g id="font_Fusion_i0">
      <path d="M50.0 0.0 L321.5 0.0 321.5 -622.5 50.0 -622.5 50.0 0.0" fill-rule="evenodd" stroke="none"/>
    </g>
    <g id="font_Fusion_s0">
      <path d="M321.5 -371.5 L321.5 -413.0 Q321.5 -429.0 333.0 -440.5 344.5 -452.0 360.0 -452.0 L969.5 -452.0 1074.5 -622.5 158.5 -622.5 Q114.0 -622.5 82.0 -590.5 50.0 -558.5 50.0 -515.0 L50.0 -251.0 803.0 -251.0 803.0 -209.5 Q803.0 -195.0 791.5 -182.5 779.5 -170.5 764.0 -170.5 L155.0 -170.5 50.0 0.0 966.5 0.0 Q1010.5 0.0 1042.5 -32.0 1074.5 -64.0 1074.5 -108.5 L1074.5 -371.5 321.5 -371.5" fill-rule="evenodd" stroke="none"/>
    </g>
    <g id="font_Fusion_m0">
      <path d="M803.0 -475.0 L803.0 -475.0 Q822.0 -508.0 791.0 -540.0 760.0 -572.0 715.5 -572.0 L321.5 -572.0 321.5 -622.5 50.0 -622.5 50.0 0.0 321.5 0.0 321.5 -401.5 513.0 -401.5 Q528.5 -401.5 540.5 -390.0 552.0 -378.0 552.0 -362.5 L552.0 0.0 823.5 0.0 823.5 -401.5 1015.0 -401.5 Q1030.5 -401.5 1042.5 -390.0 1054.0 -378.0 1054.0 -362.5 L1054.0 0.0 1325.5 0.0 1325.5 -464.5 Q1325.5 -507.5 1293.5 -540.0 1261.0 -572.0 1217.5 -572.0 L803.0 -572.0 803.0 -475.0" fill-rule="evenodd" stroke="none"/>
    </g>
    <g id="font_Fusion_n0">
      <path d="M321.5 -622.5 L50.0 -622.5 50.0 0.0 321.5 0.0 321.5 -401.5 412.5 -401.5 Q428.0 -401.5 440.0 -390.0 451.5 -378.0 451.5 -362.5 L451.5 -108.5 Q451.5 -65.0 484.0 -32.5 516.5 0.0 560.0 0.0 L1016.5 0.0 Q1060.5 0.0 1092.5 -32.0 1124.5 -64.0 1124.5 -108.5 L1124.5 -622.5 853.0 -519.0 853.0 -209.5 Q853.0 -195.0 841.5 -182.5 829.5 -170.5 814.0 -170.5 L761.5 -170.5 Q746.0 -170.5 734.5 -182.0 723.0 -193.5 723.0 -209.5 L723.0 -464.5 Q723.0 -507.5 691.0 -540.0 658.5 -572.0 615.0 -572.0 L321.5 -572.0 321.5 -622.5" fill-rule="evenodd" stroke="none"/>
    </g>
    <g id="font_Fusion_y0">
      <path d="M50.0 -359.5 L50.0 -359.5 Q50.0 -316.0 82.5 -283.5 115.0 -251.0 158.5 -251.0 L803.0 -251.0 803.0 -209.5 Q803.0 -195.0 791.5 -182.5 779.5 -170.5 764.0 -170.5 L150.5 -170.5 255.5 0.0 966.5 0.0 Q1010.5 0.0 1042.5 -32.0 1074.5 -64.0 1074.5 -108.5 L1074.5 -622.5 803.0 -622.5 803.0 -371.5 360.0 -371.5 Q344.5 -371.5 333.0 -383.0 321.5 -394.5 321.5 -410.5 L321.5 -622.5 50.0 -622.5 50.0 -359.5" fill-rule="evenodd" stroke="none"/>
    </g>
    <g id="font_Fusion_l0">
      <path d="M1074.5 -108.5 L1074.5 -271.0 803.0 -271.0 803.0 -209.5 Q803.0 -194.0 791.5 -182.0 779.5 -170.5 764.0 -170.5 L360.0 -170.5 Q345.5 -170.5 333.5 -182.5 321.5 -194.5 321.5 -209.5 L321.5 -622.5 50.0 -622.5 50.0 -108.5 Q50.0 -65.0 82.5 -32.5 115.0 0.0 158.5 0.0 L966.5 0.0 Q1010.5 0.0 1042.5 -32.0 1074.5 -64.0 1074.5 -108.5" fill-rule="evenodd" stroke="none"/>
    </g>
    <g id="font_Fusion_e0">
      <path d="M803.0 -371.5 L321.5 -371.5 321.5 -413.0 Q321.5 -429.0 333.0 -440.5 344.5 -452.0 360.0 -452.0 L764.0 -452.0 Q779.5 -452.0 791.5 -440.0 803.0 -428.5 803.0 -413.0 L803.0 -371.5 M1074.5 -251.0 L1074.5 -515.0 Q1074.5 -558.0 1042.5 -590.5 1010.0 -622.5 966.5 -622.5 L158.5 -622.5 Q114.0 -622.5 82.0 -590.5 50.0 -558.5 50.0 -515.0 L50.0 -108.5 Q50.0 -65.0 82.5 -32.5 115.0 0.0 158.5 0.0 L869.0 0.0 974.0 -170.5 360.0 -170.5 Q344.5 -170.5 333.0 -182.0 321.5 -193.5 321.5 -209.5 L321.5 -251.0 1074.5 -251.0" fill-rule="evenodd" stroke="none"/>
    </g>
    <g id="font_Fusion_p0">
      <path d="M764.0 -452.0 L764.0 -452.0 Q779.5 -452.0 791.5 -440.0 803.0 -428.5 803.0 -412.5 L803.0 -360.5 Q803.0 -345.5 791.5 -333.0 779.5 -321.0 764.0 -321.0 L506.5 -321.0 401.5 -150.5 966.5 -150.5 Q1010.5 -150.5 1042.5 -182.5 1074.5 -214.5 1074.5 -259.0 L1074.5 -515.0 Q1074.5 -558.0 1042.5 -590.5 1010.0 -622.5 966.5 -622.5 L50.0 -622.5 50.0 0.0 321.5 0.0 321.5 -452.0 764.0 -452.0" fill-rule="evenodd" stroke="none"/>
    </g>
    <g id="font_Fusion_g0">
      <path d="M1074.5 -452.0 L1074.5 -622.5 158.5 -622.5 Q114.0 -622.5 82.0 -590.5 50.0 -558.5 50.0 -515.0 L50.0 -108.5 Q50.0 -65.0 82.5 -32.5 115.0 0.0 158.5 0.0 L966.5 0.0 Q1010.5 0.0 1042.5 -32.0 1074.5 -64.0 1074.5 -108.5 L1074.5 -371.5 401.5 -371.5 507.5 -251.0 803.0 -251.0 803.0 -170.5 360.0 -170.5 Q344.5 -170.5 333.0 -182.0 321.5 -193.5 321.5 -209.5 L321.5 -413.0 Q321.5 -429.0 333.0 -440.5 344.5 -452.0 360.0 -452.0 L1074.5 -452.0" fill-rule="evenodd" stroke="none"/>
    </g>
    <g id="font_Fusion_v0">
      <path d="M50.0 -622.5 L50.0 -108.5 Q50.0 -65.0 82.5 -32.5 115.0 0.0 158.5 0.0 L966.5 0.0 Q1010.0 0.0 1042.5 -32.5 1074.5 -65.5 1074.5 -108.5 L1074.5 -622.5 803.0 -622.5 803.0 -209.5 Q803.0 -194.0 791.5 -182.0 779.5 -170.5 764.0 -170.5 L360.0 -170.5 Q344.5 -170.5 333.0 -182.0 321.5 -193.5 321.5 -209.5 L321.5 -622.5 50.0 -622.5" fill-rule="evenodd" stroke="none"/>
    </g>
    <g id="font_Fusion_b0">
      <path d="M966.5 -572.0 L401.5 -572.0 506.5 -401.5 764.0 -401.5 Q779.5 -401.5 791.5 -390.0 803.0 -378.0 803.0 -362.5 L803.0 -209.5 Q803.0 -194.0 791.5 -182.0 779.5 -170.5 764.0 -170.5 L321.5 -170.5 321.5 -622.5 50.0 -622.5 50.0 0.0 966.5 0.0 Q1010.5 0.0 1042.5 -32.0 1074.5 -64.0 1074.5 -108.5 L1074.5 -464.5 Q1074.5 -507.5 1042.5 -540.0 1010.0 -572.0 966.5 -572.0" fill-rule="evenodd" stroke="none"/>
    </g>
    <g id="font_Fusion_u0">
      <path d="M321.5 -622.5 L50.0 -622.5 50.0 -108.5 Q50.0 -65.0 82.5 -32.5 115.0 0.0 158.5 0.0 L768.5 0.0 803.0 -75.5 803.0 0.0 1074.5 0.0 1074.5 -622.5 803.0 -622.5 803.0 -170.5 360.0 -170.5 Q344.5 -170.5 333.0 -182.0 321.5 -193.5 321.5 -209.5 L321.5 -622.5" fill-rule="evenodd" stroke="none"/>
    </g>
  </defs>
</svg>
