<?xml version="1.0" encoding="UTF-8" standalone="no"?>
<svg xmlns:xlink="http://www.w3.org/1999/xlink" height="2253.25px" width="1497.2px" xmlns="http://www.w3.org/2000/svg">
  <g transform="matrix(1.0, 0.0, 0.0, 1.0, 755.4, 1136.6)">
    <use height="768.2" transform="matrix(1.0, 0.0, 0.0, 1.0, -418.6, -289.9)" width="836.2" xlink:href="#sprite0"/>
    <use height="194.0" transform="matrix(1.0, 0.0, 0.0, 1.0, -119.45, 82.2)" width="536.95" xlink:href="#sprite1"/>
    <use height="1377.25" transform="matrix(1.0, 0.0, 0.0, 1.0, -385.0, -300.0)" width="664.05" xlink:href="#sprite2"/>
    <use height="24.95" transform="matrix(1.6289, 0.0, 0.0, 1.6289, 65.0012, -121.5998)" width="171.85" xlink:href="#sprite5"/>
  </g>
  <defs>
    <g id="sprite0" transform="matrix(1.0, 0.0, 0.0, 1.0, 0.0, 0.0)">
      <use height="768.2" transform="matrix(1.0, 0.0, 0.0, 1.0, 0.0, 0.0)" width="836.2" xlink:href="#shape0"/>
    </g>
    <g id="shape0" transform="matrix(1.0, 0.0, 0.0, 1.0, 0.0, 0.0)">
      <path d="M0.0 82.05 L0.0 0.0 836.2 0.0 836.2 82.05 Q426.05 113.05 0.0 82.05" fill="#484848" fill-rule="evenodd" stroke="none"/>
      <path d="M836.2 476.7 L836.2 530.1 307.1 530.1 191.05 571.15 214.05 596.15 183.05 621.15 152.05 643.15 173.05 655.15 161.05 669.15 836.2 722.95 836.2 768.2 0.0 768.2 0.0 485.65 Q419.6 469.0 836.2 476.7" fill="#a2a2a2" fill-rule="evenodd" stroke="none"/>
      <path d="M836.2 530.1 L836.2 722.95 161.05 669.15 173.05 655.15 152.05 643.15 183.05 621.15 214.05 596.15 191.05 571.15 307.1 530.1 836.2 530.1" fill="#8c8c8c" fill-rule="evenodd" stroke="none"/>
      <path d="M836.2 82.05 L836.2 476.7 Q419.6 469.0 0.0 485.65 L0.0 82.05 Q426.05 113.05 836.2 82.05" fill="#6a6a6a" fill-rule="evenodd" stroke="none"/>
    </g>
    <g id="sprite1" transform="matrix(1.0, 0.0, 0.0, 1.0, 0.0, 0.0)">
      <use height="194.0" transform="matrix(1.0, 0.0, 0.0, 1.0, 0.0, 0.0)" width="536.95" xlink:href="#shape1"/>
    </g>
    <g id="shape1" transform="matrix(1.0, 0.0, 0.0, 1.0, 0.0, 0.0)">
      <path d="M8.0 9.0 L71.4 0.0 536.95 0.0 536.95 9.0 8.0 9.0 M536.95 183.0 L536.95 194.0 52.95 194.0 52.95 183.0 536.95 183.0 M0.0 67.05 L12.1 64.1 12.35 67.05 0.0 67.05" fill="#1e1e1e" fill-rule="evenodd" stroke="none"/>
      <path d="M8.0 9.0 L536.95 9.0 536.95 183.0 52.95 183.0 21.0 183.0 20.55 177.0 12.35 67.05 12.1 64.1 8.0 9.0" fill="#333333" fill-rule="evenodd" stroke="none"/>
      <path d="M20.55 177.0 L11.85 177.0 0.0 67.05 12.35 67.05 20.55 177.0" fill="#3c3c3c" fill-rule="evenodd" stroke="none"/>
    </g>
    <g id="sprite2" transform="matrix(1.0, 0.0, 0.0, 1.0, 0.0, 0.0)">
      <use height="1106.25" transform="matrix(1.0, 0.0, 0.0, 1.0, 0.0, 271.0)" width="664.05" xlink:href="#sprite3"/>
      <use height="405.0" transform="matrix(1.0, 0.0, 0.0, 1.0, 231.6, 0.0)" width="300.1" xlink:href="#sprite4"/>
    </g>
    <g id="sprite3" transform="matrix(1.0, 0.0, 0.0, 1.0, 0.0, 0.0)">
      <use height="1106.25" transform="matrix(1.0, 0.0, 0.0, 1.0, 0.0, 0.0)" width="664.05" xlink:href="#shape2"/>
    </g>
    <g id="shape2" transform="matrix(1.0, 0.0, 0.0, 1.0, 0.0, 0.0)">
      <path d="M658.05 446.7 L655.7 455.8 Q651.4 472.0 637.7 516.0 635.0 524.9 626.1 542.75 L609.7 574.0 Q604.55 583.6 599.7 609.3 597.75 619.65 596.75 626.5 591.55 606.8 580.95 587.05 L584.75 579.65 599.0 553.4 Q616.75 520.65 623.7 498.0 630.9 474.4 646.25 458.1 649.3 454.85 658.05 446.7 M219.85 1106.25 L209.8 1106.25 Q185.65 962.3 194.35 884.15 200.75 826.65 196.1 794.65 194.2 781.5 190.4 772.65 174.6 733.1 174.3 681.1 L181.35 703.8 192.0 738.6 Q197.35 754.85 202.45 764.85 208.45 776.55 216.6 785.1 219.4 788.0 223.9 791.05 231.7 796.25 244.75 801.7 L248.35 813.25 Q238.6 813.65 231.85 815.35 221.8 817.95 215.6 824.15 202.6 837.15 202.6 873.1 202.6 896.2 202.85 898.3 203.4 903.75 208.6 939.1 209.2 943.9 212.1 953.25 214.65 961.65 215.6 973.1 L217.5 984.45 Q219.15 993.8 219.6 1005.1 L220.15 1020.8 Q220.6 1038.2 220.6 1064.6 220.6 1092.05 219.85 1106.25 M187.2 611.25 Q176.6 596.85 176.6 594.0 176.6 587.4 192.8 567.25 196.7 562.45 211.8 545.0 L202.4 584.15 Q193.35 597.8 187.2 611.25 M200.9 521.85 Q164.65 480.95 129.0 465.0 76.15 441.4 44.7 419.0 L56.15 425.15 Q73.3 433.85 96.7 442.9 109.6 447.85 129.6 455.0 143.65 460.2 153.5 466.45 156.45 468.35 173.6 481.0 187.3 491.05 191.5 495.15 201.6 505.0 201.6 514.0 L201.7 516.35 Q201.65 519.05 201.1 521.65 L200.9 521.85 M22.0 291.55 Q53.25 221.75 122.65 138.0 138.0 77.85 224.65 48.0 L226.25 56.35 Q215.65 66.9 197.7 79.75 166.15 102.35 152.6 113.0 145.2 118.8 140.45 131.5 136.2 142.8 137.3 151.1 L136.65 151.15 134.6 151.0 Q131.75 151.0 108.6 179.0 86.55 205.7 57.45 244.05 37.6 270.2 22.0 291.55 M237.65 48.0 L314.7 36.0 Q336.65 16.55 335.8 0.0 L344.1 0.0 Q340.45 20.05 335.0 31.3 326.2 49.5 309.6 54.0 293.85 58.25 265.75 61.05 L239.4 63.0 Q238.35 55.55 237.65 48.0 M445.85 37.6 L506.7 49.0 Q504.55 96.05 492.7 135.4 L492.45 136.3 491.5 139.25 Q491.05 137.1 490.7 134.05 L490.6 132.85 Q490.15 128.5 489.95 122.6 489.7 116.2 489.7 100.5 489.7 92.1 490.8 79.55 492.1 65.05 493.7 62.0 L478.7 56.0 473.7 56.0 Q470.2 54.3 463.5 49.6 L455.7 44.0 Q450.55 41.85 448.05 39.95 446.75 38.95 445.85 37.6 M519.7 49.95 Q563.2 53.0 590.75 88.0 L616.7 169.45 Q604.9 145.35 595.55 129.7 561.8 73.1 529.7 65.0 529.5 65.85 520.95 82.8 L516.65 91.35 Q519.75 70.3 519.7 49.95 M343.15 275.0 L357.05 290.2 363.8 297.35 377.6 311.55 Q381.1 315.0 381.6 315.0 387.3 315.0 403.05 304.3 L403.7 304.6 Q393.5 325.3 382.35 349.4 L379.7 355.1 Q367.7 326.45 356.75 302.95 349.75 287.9 343.15 275.0 M331.8 196.05 Q337.85 193.25 345.2 188.0 L349.05 185.15 359.45 176.45 360.35 175.6 363.75 172.5 Q371.2 165.5 376.55 158.95 381.6 152.8 383.05 149.15 L383.45 149.3 Q380.6 155.1 375.1 168.1 L370.3 178.9 370.0 179.5 367.55 184.05 Q363.2 191.45 358.0 194.95 354.6 197.25 350.4 198.25 L346.05 198.9 343.6 199.0 Q337.35 199.0 333.85 197.0 332.9 196.45 331.8 196.05 M395.05 190.9 L393.85 186.35 Q392.5 180.3 391.6 171.0 L394.45 174.65 Q398.75 180.35 405.7 186.0 L406.3 186.5 407.45 187.5 412.5 191.7 Q425.15 202.4 429.7 207.0 L416.7 207.0 Q409.7 208.0 404.6 204.85 L404.35 204.7 Q398.35 200.75 395.05 190.9" fill="#111111" fill-rule="evenodd" stroke="none"/>
      <path d="M616.7 169.45 L617.8 173.0 Q651.45 286.75 658.55 408.1 L661.6 411.5 664.05 414.25 662.55 425.0 Q660.9 434.8 658.05 446.7 649.3 454.85 646.25 458.1 630.9 474.4 623.7 498.0 616.75 520.65 599.0 553.4 L584.75 579.65 580.95 587.05 Q571.8 570.1 558.75 553.1 552.55 547.9 546.75 541.7 547.4 532.95 548.55 521.35 L553.7 471.0 Q556.75 441.45 559.4 430.2 562.85 415.5 569.7 408.95 531.55 294.5 515.75 180.05 L509.5 176.0 506.75 174.25 496.1 167.3 Q499.0 159.85 501.5 152.45 L502.2 150.4 Q512.4 120.2 516.65 91.35 L520.95 82.8 Q529.5 65.85 529.7 65.0 561.8 73.1 595.55 129.7 604.9 145.35 616.7 169.45 M285.6 1106.25 L219.85 1106.25 Q220.6 1092.05 220.6 1064.6 220.6 1038.2 220.15 1020.8 L219.6 1005.1 Q219.15 993.8 217.5 984.45 L215.6 973.1 Q214.65 961.65 212.1 953.25 209.2 943.9 208.6 939.1 203.4 903.75 202.85 898.3 202.6 896.2 202.6 873.1 202.6 837.15 215.6 824.15 221.8 817.95 231.85 815.35 238.6 813.65 248.35 813.25 258.6 847.15 267.95 885.75 249.25 968.85 285.6 1106.25 M174.3 681.1 L174.4 669.6 Q174.1 659.1 175.75 648.4 211.7 701.45 240.6 788.85 L244.75 801.7 Q231.7 796.25 223.9 791.05 219.4 788.0 216.6 785.1 208.45 776.55 202.45 764.85 197.35 754.85 192.0 738.6 L181.35 703.8 174.3 681.1 M211.8 545.0 L213.7 537.05 Q207.35 529.15 201.05 522.0 L200.9 521.85 201.1 521.65 Q201.65 519.05 201.7 516.35 L201.6 514.0 Q201.6 505.0 191.5 495.15 187.3 491.05 173.6 481.0 156.45 468.35 153.5 466.45 143.65 460.2 129.6 455.0 109.6 447.85 96.7 442.9 73.3 433.85 56.15 425.15 L44.7 419.0 Q30.5 408.9 20.65 399.05 -8.7 366.3 3.65 343.05 10.0 318.35 22.0 291.55 37.6 270.2 57.45 244.05 86.55 205.7 108.6 179.0 131.75 151.0 134.6 151.0 L136.65 151.15 137.3 151.1 Q136.2 142.8 140.45 131.5 145.2 118.8 152.6 113.0 166.15 102.35 197.7 79.75 215.65 66.9 226.25 56.35 235.2 100.65 252.85 143.65 L255.8 150.65 256.8 153.0 254.8 153.0 248.0 153.0 223.7 153.0 190.65 184.0 Q151.2 269.6 84.65 348.0 L111.65 363.05 Q190.65 420.15 249.7 475.1 266.05 477.8 263.85 495.3 252.8 520.9 238.0 539.75 238.6 553.9 240.1 574.25 242.6 607.7 242.6 611.5 242.6 622.05 240.6 625.4 238.85 628.3 229.6 639.0 226.9 642.55 220.35 645.55 L215.9 647.35 Q204.7 634.15 193.4 619.45 L187.2 611.25 Q193.35 597.8 202.4 584.15 L211.8 545.0 M344.1 0.0 L409.3 0.0 Q406.1 17.0 426.75 34.0 L445.85 37.6 Q446.75 38.95 448.05 39.95 450.55 41.85 455.7 44.0 L463.5 49.6 Q470.2 54.3 473.7 56.0 L478.7 56.0 493.7 62.0 Q492.1 65.05 490.8 79.55 489.7 92.1 489.7 100.5 489.7 116.2 489.95 122.6 490.15 128.5 490.6 132.85 L490.7 134.05 Q491.05 137.1 491.5 139.25 479.95 175.65 459.9 205.3 L457.55 208.75 Q443.55 228.6 425.85 261.5 L422.15 268.35 Q413.6 284.5 404.2 303.55 L403.7 304.6 403.05 304.3 Q387.3 315.0 381.6 315.0 381.1 315.0 377.6 311.55 L363.8 297.35 357.05 290.2 343.15 275.0 339.1 267.15 335.9 261.15 Q319.45 230.6 305.85 214.3 285.3 189.65 270.85 162.1 265.4 151.75 260.85 141.05 L258.55 135.55 Q244.75 101.3 239.4 63.0 L265.75 61.05 Q293.85 58.25 309.6 54.0 326.2 49.5 335.0 31.3 340.45 20.05 344.1 0.0 M331.8 196.05 Q332.9 196.45 333.85 197.0 337.35 199.0 343.6 199.0 L346.05 198.9 350.4 198.25 Q354.6 197.25 358.0 194.95 363.2 191.45 367.55 184.05 L370.0 179.5 370.3 178.9 375.1 168.1 Q380.6 155.1 383.45 149.3 L383.05 149.15 Q381.6 152.8 376.55 158.95 371.2 165.5 363.75 172.5 L360.35 175.6 359.45 176.45 349.05 185.15 345.2 188.0 Q337.85 193.25 331.8 196.05 M395.05 190.9 Q398.35 200.75 404.35 204.7 L404.6 204.85 Q409.7 208.0 416.7 207.0 L429.7 207.0 Q425.15 202.4 412.5 191.7 L407.45 187.5 406.3 186.5 405.7 186.0 Q398.75 180.35 394.45 174.65 L391.6 171.0 Q392.5 180.3 393.85 186.35 L395.05 190.9" fill="#000000" fill-rule="evenodd" stroke="none"/>
      <path d="M596.75 626.5 Q602.4 647.85 601.75 669.1 L601.8 669.65 Q602.4 695.7 599.35 718.8 L596.95 733.6 Q593.25 738.9 589.0 743.75 584.1 749.3 578.45 754.25 569.0 762.6 552.7 773.1 529.75 788.1 499.4 796.7 473.0 804.2 449.45 803.65 464.5 809.6 483.85 813.45 L517.9 819.2 Q535.25 822.35 543.3 826.95 553.7 832.85 555.7 844.1 557.85 855.9 564.35 869.85 570.95 884.05 573.7 898.1 L577.65 916.8 Q581.55 935.35 584.45 952.7 590.5 988.85 592.6 1020.0 591.9 1050.1 589.75 1083.9 L588.2 1106.25 436.9 1106.25 Q411.45 986.05 402.85 851.55 L397.7 866.2 Q393.25 986.2 374.95 1106.25 L285.6 1106.25 Q249.25 968.85 267.95 885.75 258.6 847.15 248.35 813.25 L254.6 813.1 Q259.1 813.1 290.6 818.1 296.6 818.1 298.6 817.1 278.25 814.55 252.6 804.8 L244.75 801.7 240.6 788.85 Q211.7 701.45 175.75 648.4 178.55 630.1 187.2 611.25 L193.4 619.45 Q204.7 634.15 215.9 647.35 L220.35 645.55 Q226.9 642.55 229.6 639.0 238.85 628.3 240.6 625.4 242.6 622.05 242.6 611.5 242.6 607.7 240.1 574.25 238.6 553.9 238.0 539.75 252.8 520.9 263.85 495.3 273.45 473.1 280.25 445.8 292.45 396.45 295.45 330.55 L295.7 316.3 Q295.75 287.9 292.55 262.5 L291.05 252.25 Q283.4 203.9 263.15 166.9 L262.65 166.0 256.8 153.0 255.8 150.65 252.85 143.65 Q235.2 100.65 226.25 56.35 L224.65 48.0 237.65 48.0 Q238.35 55.55 239.4 63.0 244.75 101.3 258.55 135.55 L260.85 141.05 Q265.4 151.75 270.85 162.1 285.3 189.65 305.85 214.3 305.75 236.6 308.5 259.05 L309.65 267.3 Q313.3 291.95 320.45 316.8 339.75 383.85 384.7 452.1 L393.5 438.1 Q439.6 361.35 452.75 264.85 L453.7 257.5 Q456.6 233.7 457.55 208.75 L459.9 205.3 Q479.95 175.65 491.5 139.25 L492.45 136.3 492.7 135.4 Q504.55 96.05 506.7 49.0 L519.7 49.95 Q519.75 70.3 516.65 91.35 512.4 120.2 502.2 150.4 L501.5 152.45 Q499.0 159.85 496.1 167.3 L489.7 183.0 Q483.6 195.65 479.35 210.9 474.55 228.0 472.05 248.35 471.55 252.25 471.2 256.3 467.7 291.55 470.7 336.05 481.7 409.4 500.5 460.55 519.6 512.6 546.75 541.7 552.55 547.9 558.75 553.1 571.8 570.1 580.95 587.05 591.55 606.8 596.75 626.5 M312.8 497.55 L303.4 512.85 304.7 515.3 Q306.6 519.6 306.6 527.0 306.6 537.0 288.95 544.65 281.9 547.7 276.05 549.35 L270.6 555.0 270.95 555.9 309.05 543.1 Q321.25 539.25 327.4 538.4 332.25 537.75 342.1 538.25 L349.2 538.6 Q360.25 539.0 369.6 539.0 L385.05 538.95 Q397.4 538.6 398.5 537.3 L396.6 537.0 398.6 537.0 398.5 537.3 406.1 538.35 415.2 539.75 Q444.35 544.2 464.05 548.9 485.15 553.85 506.7 562.0 479.05 530.7 409.95 527.45 L404.7 527.25 Q401.0 527.1 397.0 527.1 385.2 526.95 370.75 527.45 L358.55 527.95 Q328.65 529.4 322.6 529.0 333.25 524.4 336.65 521.55 337.7 521.0 340.15 520.95 L350.1 521.0 371.55 521.5 380.4 521.7 361.35 516.75 342.6 511.0 Q337.25 509.4 333.65 504.55 330.35 500.1 326.3 497.85 L326.0 498.45 Q326.6 499.4 326.6 501.0 326.6 502.35 325.35 504.0 L322.6 507.25 Q318.6 512.15 318.6 518.0 L317.25 518.15 Q316.6 518.35 316.6 519.0 L314.6 519.0 314.1 507.25 313.6 498.0 312.8 497.55 M439.2 492.2 L422.7 491.0 Q421.55 491.0 414.7 492.5 408.4 493.9 401.7 494.0 404.65 494.5 422.5 500.8 L472.7 519.0 472.7 513.0 Q464.2 496.05 439.2 492.2" fill="#800000" fill-rule="evenodd" stroke="none"/>
      <path d="M496.1 167.3 L506.75 174.25 Q507.15 178.2 507.15 182.4 507.15 215.15 483.95 238.35 L479.8 242.25 473.05 247.65 472.05 248.35 Q474.55 228.0 479.35 210.9 483.6 195.65 489.7 183.0 L496.1 167.3 M305.85 214.3 Q319.45 230.6 335.9 261.15 L339.1 267.15 343.15 275.0 Q349.75 287.9 356.75 302.95 367.7 326.45 379.7 355.1 L382.35 349.4 Q393.5 325.3 403.7 304.6 L404.2 303.55 Q413.6 284.5 422.15 268.35 L425.85 261.5 Q443.55 228.6 457.55 208.75 456.6 233.7 453.7 257.5 L452.75 264.85 Q439.6 361.35 393.5 438.1 L384.7 452.1 Q339.75 383.85 320.45 316.8 313.3 291.95 309.65 267.3 L308.5 259.05 Q305.75 236.6 305.85 214.3 M254.8 153.0 L256.8 153.0 262.65 166.0 263.15 166.9 Q283.4 203.9 291.05 252.25 281.15 246.85 272.55 238.25 249.4 215.05 249.4 182.3 249.4 166.5 254.8 153.0" fill="#a90101" fill-rule="evenodd" stroke="none"/>
      <path d="M312.8 497.55 L313.6 498.0 314.1 507.25 314.6 519.0 316.6 519.0 Q316.6 518.35 317.25 518.15 L318.6 518.0 Q318.6 512.15 322.6 507.25 L325.35 504.0 Q326.6 502.35 326.6 501.0 326.6 499.4 326.0 498.45 L326.3 497.85 Q330.35 500.1 333.65 504.55 337.25 509.4 342.6 511.0 L361.35 516.75 380.4 521.7 371.55 521.5 350.1 521.0 340.15 520.95 Q337.7 521.0 336.65 521.55 333.25 524.4 322.6 529.0 328.65 529.4 358.55 527.95 L370.75 527.45 Q385.2 526.95 397.0 527.1 401.0 527.1 404.7 527.25 L409.95 527.45 Q479.05 530.7 506.7 562.0 485.15 553.85 464.05 548.9 444.35 544.2 415.2 539.75 L406.1 538.35 398.5 537.3 398.6 537.0 396.6 537.0 398.5 537.3 Q397.4 538.6 385.05 538.95 L369.6 539.0 Q360.25 539.0 349.2 538.6 L342.1 538.25 Q332.25 537.75 327.4 538.4 321.25 539.25 309.05 543.1 L270.95 555.9 270.6 555.0 276.05 549.35 Q281.9 547.7 288.95 544.65 306.6 537.0 306.6 527.0 306.6 519.6 304.7 515.3 L303.4 512.85 312.8 497.55 M439.2 492.2 Q464.2 496.05 472.7 513.0 L472.7 519.0 422.5 500.8 Q404.65 494.5 401.7 494.0 408.4 493.9 414.7 492.5 421.55 491.0 422.7 491.0 L439.2 492.2 M596.95 733.6 L594.9 743.0 Q591.3 758.35 585.75 772.15 572.6 799.95 585.85 883.55 594.5 938.5 592.6 1020.0 590.5 988.85 584.45 952.7 581.55 935.35 577.65 916.8 L573.7 898.1 Q570.95 884.05 564.35 869.85 557.85 855.9 555.7 844.1 553.7 832.85 543.3 826.95 535.25 822.35 517.9 819.2 L483.85 813.45 Q464.5 809.6 449.45 803.65 473.0 804.2 499.4 796.7 529.75 788.1 552.7 773.1 569.0 762.6 578.45 754.25 584.1 749.3 589.0 743.75 593.25 738.9 596.95 733.6 M244.75 801.7 L252.6 804.8 Q278.25 814.55 298.6 817.1 296.6 818.1 290.6 818.1 259.1 813.1 254.6 813.1 L248.35 813.25 244.75 801.7" fill="#6d0101" fill-rule="evenodd" stroke="none"/>
      <path d="M599.35 718.8 L599.15 730.25 599.05 742.45 Q597.95 924.35 633.45 1106.25 L588.2 1106.25 589.75 1083.9 Q591.9 1050.1 592.6 1020.0 594.5 938.5 585.85 883.55 572.6 799.95 585.75 772.15 591.3 758.35 594.9 743.0 L596.95 733.6 599.35 718.8 M436.9 1106.25 L374.95 1106.25 Q393.25 986.2 397.7 866.2 L402.85 851.55 Q411.45 986.05 436.9 1106.25" fill="#800000" fill-opacity="0.7607843" fill-rule="evenodd" stroke="none"/>
      <path d="M506.75 174.25 L509.5 176.0 Q510.05 180.9 510.05 186.05 510.05 220.2 485.9 244.35 L481.55 248.45 Q478.1 251.45 474.5 254.05 L471.2 256.3 Q471.55 252.25 472.05 248.35 L473.05 247.65 479.8 242.25 483.95 238.35 Q507.15 215.15 507.15 182.4 507.15 178.2 506.75 174.25 M248.0 153.0 L254.8 153.0 Q249.4 166.5 249.4 182.3 249.4 215.05 272.55 238.25 281.15 246.85 291.05 252.25 L292.55 262.5 Q277.75 256.45 265.55 244.25 241.4 220.1 241.4 185.95 241.4 168.1 248.0 153.0" fill="#ca0202" fill-rule="evenodd" stroke="none"/>
    </g>
    <g id="sprite4" transform="matrix(1.0, 0.0, 0.0, 1.0, 0.0, 0.0)">
      <use height="405.0" transform="matrix(1.0, 0.0, 0.0, 1.0, 0.0, 0.0)" width="300.1" xlink:href="#shape3"/>
    </g>
    <g id="shape3" transform="matrix(1.0, 0.0, 0.0, 1.0, 0.0, 0.0)">
      <path d="M55.65 43.05 Q79.05 12.0 82.5 12.0 85.15 12.0 89.1 14.0 93.1 16.0 94.5 16.0 99.0 16.0 109.0 9.0 118.95 2.0 124.5 2.0 130.4 2.0 136.7 8.05 138.7 9.95 141.6 13.6 143.25 12.25 145.4 10.95 149.8 8.2 151.0 7.0 L156.0 7.0 156.0 12.0 Q158.0 11.65 175.9 5.7 194.1 0.0 199.6 0.0 211.75 0.0 234.55 31.2 255.5 59.9 267.1 88.0 274.05 104.7 277.35 118.85 L279.2 128.45 281.35 145.1 Q282.8 156.3 285.1 167.0 L288.95 183.35 291.2 192.8 Q287.95 188.85 285.75 184.85 283.75 181.2 282.55 177.5 L280.65 170.6 Q279.55 166.7 278.1 164.0 273.05 154.6 269.85 138.55 268.2 130.2 267.25 121.05 266.45 113.8 266.1 106.0 L266.1 107.0 Q266.1 113.25 266.65 121.2 268.05 141.45 273.1 172.55 L275.95 189.45 277.9 200.95 Q280.1 213.9 280.1 216.5 280.1 256.15 264.1 282.45 L253.1 298.95 252.0 300.9 Q248.1 307.75 248.1 313.5 248.1 319.15 253.0 331.05 250.65 339.85 248.35 351.45 242.65 383.6 239.1 400.4 237.8 394.6 235.75 387.15 L234.8 383.6 234.05 377.55 Q232.15 360.5 230.1 350.0 L226.75 350.5 Q225.1 340.5 225.1 332.5 225.1 322.65 230.25 311.05 L235.75 300.35 241.6 289.15 Q249.25 274.5 252.95 262.1 258.1 244.7 258.1 225.0 258.1 210.7 256.35 198.65 L256.15 197.5 Q254.95 189.9 251.4 175.15 245.65 151.35 242.45 126.5 241.05 115.85 240.1 105.0 L237.45 68.85 Q235.05 43.7 231.1 39.0 219.55 25.2 210.75 17.15 201.8 9.0 198.1 9.0 191.1 13.25 182.1 17.5 164.05 26.0 153.0 26.0 L153.0 28.0 Q156.2 30.15 163.95 34.35 171.4 38.4 173.1 39.0 172.5 39.0 172.25 39.5 L172.1 40.0 Q171.4 40.7 170.35 40.9 L167.5 41.0 147.15 40.0 122.0 39.0 122.0 38.0 Q125.35 37.15 128.75 34.65 L134.0 30.0 125.0 30.0 125.0 29.0 Q127.9 27.55 132.95 25.5 138.65 23.15 140.0 23.0 137.0 22.0 128.5 22.0 116.4 22.0 87.5 31.7 L55.65 43.05 M158.4 341.1 L155.0 333.0 Q155.0 331.3 158.1 326.85 161.05 322.65 166.0 317.0 167.05 315.85 168.2 312.25 L170.65 304.75 Q171.85 301.3 173.35 298.4 176.45 292.25 180.7 288.4 L180.45 298.65 Q180.1 309.05 179.1 317.0 178.25 324.55 171.95 333.7 169.05 337.95 167.55 341.0 L163.0 341.0 158.4 341.1 M169.95 70.85 Q174.9 70.35 177.45 68.0 L179.15 65.95 Q179.75 65.0 180.1 65.0 181.1 65.0 196.25 79.55 211.65 94.4 215.1 99.0 L203.1 99.0 Q214.15 112.1 219.65 127.7 L220.85 131.25 Q226.1 148.2 226.1 170.0 226.1 192.25 223.35 214.15 221.3 230.2 217.8 246.05 213.9 263.75 208.55 279.05 214.5 256.15 215.05 218.05 L215.1 210.5 Q215.1 179.3 212.35 158.4 210.65 145.25 207.55 134.2 205.8 127.9 203.6 122.25 198.1 108.1 188.05 93.85 182.1 85.35 169.95 70.85 M47.8 96.15 Q45.4 107.0 42.65 121.9 37.55 149.35 34.55 172.2 L33.0 185.0 33.0 196.0 35.0 196.0 39.55 192.45 Q43.3 189.8 45.0 189.0 L69.15 286.55 71.3 295.2 76.0 314.0 76.0 319.0 Q72.3 310.3 65.95 300.05 L62.85 294.95 60.3 290.7 56.05 283.15 Q44.65 260.75 39.0 218.0 L39.0 219.0 Q38.85 224.1 36.4 232.1 34.0 240.0 34.0 241.0 L30.8 235.2 Q27.85 229.15 28.0 226.0 28.6 217.0 28.0 190.0 28.0 180.9 28.25 173.6 28.65 161.05 29.75 153.8 31.9 139.3 40.0 117.0 44.6 104.1 47.8 96.15 M65.0 122.55 L66.6 116.35 66.0 128.55 Q65.0 148.35 65.0 155.5 L65.1 162.35 65.75 165.35 67.0 172.0 67.0 196.0 Q66.5 196.0 66.0 195.5 65.5 195.0 65.0 195.0 63.4 191.9 61.0 180.05 59.55 173.0 58.8 166.9 58.0 160.45 58.0 155.0 58.0 150.2 65.0 122.55 M99.05 115.5 Q102.95 123.25 114.55 144.65 L119.25 153.6 Q127.55 170.05 132.0 183.0 140.0 206.3 140.0 229.0 140.0 240.65 138.75 253.85 137.75 264.3 136.0 275.7 134.0 288.7 133.0 297.15 132.0 305.6 132.0 309.5 132.0 318.55 132.25 321.7 L130.65 315.5 Q129.3 308.6 129.4 298.45 L129.45 297.05 Q129.5 290.4 129.9 275.15 L129.8 258.05 Q129.6 248.25 129.0 238.0 L127.2 207.7 Q124.8 180.2 120.0 168.0 L114.25 154.7 105.7 136.15 Q99.0 121.75 99.0 115.5 L99.05 115.5 M85.2 250.7 Q87.9 259.0 97.0 270.0 97.9 271.1 98.5 272.75 99.35 275.3 99.5 279.2 L99.45 293.5 99.5 296.1 Q100.3 317.55 110.0 336.0 L110.0 346.0 Q107.45 339.75 100.5 324.5 94.0 309.5 90.2 296.7 L89.95 295.8 Q87.45 287.35 85.85 278.7 81.2 254.5 82.9 228.8 82.35 241.95 85.2 250.7 M145.7 158.55 L145.0 147.95 144.4 142.5 143.15 133.4 144.05 133.25 Q151.6 141.45 154.1 145.05 L154.65 145.8 Q159.0 152.4 159.0 158.0 L158.4 173.55 Q157.65 187.75 157.0 191.0 156.0 187.0 156.0 178.0 L149.75 173.15 Q146.05 169.55 146.0 166.0 L145.7 158.55" fill="#1e1e1e" fill-rule="evenodd" stroke="none"/>
      <path d="M55.65 43.05 L87.5 31.7 Q116.4 22.0 128.5 22.0 137.0 22.0 140.0 23.0 138.65 23.15 132.95 25.5 127.9 27.55 125.0 29.0 L125.0 30.0 134.0 30.0 128.75 34.65 Q125.35 37.15 122.0 38.0 L122.0 39.0 147.15 40.0 167.5 41.0 170.35 40.9 Q171.4 40.7 172.1 40.0 L172.25 39.5 Q172.5 39.0 173.1 39.0 171.4 38.4 163.95 34.35 156.2 30.15 153.0 28.0 L153.0 26.0 Q164.05 26.0 182.1 17.5 191.1 13.25 198.1 9.0 201.8 9.0 210.75 17.15 219.55 25.2 231.1 39.0 235.05 43.7 237.45 68.85 L240.1 105.0 Q241.05 115.85 242.45 126.5 245.65 151.35 251.4 175.15 254.95 189.9 256.15 197.5 L256.35 198.65 Q258.1 210.7 258.1 225.0 258.1 244.7 252.95 262.1 249.25 274.5 241.6 289.15 L235.75 300.35 230.25 311.05 Q225.1 322.65 225.1 332.5 225.1 340.5 226.75 350.5 220.9 352.1 212.4 358.85 201.6 367.4 201.1 372.0 L200.1 372.0 Q199.25 367.95 198.4 359.75 197.45 353.3 195.1 352.0 188.05 348.05 183.25 344.65 L178.7 341.5 Q177.3 340.85 174.3 340.85 L167.55 341.0 Q169.05 337.95 171.95 333.7 178.25 324.55 179.1 317.0 180.1 309.05 180.45 298.65 L180.7 288.4 Q176.45 292.25 173.35 298.4 171.85 301.3 170.65 304.75 L168.2 312.25 Q167.05 315.85 166.0 317.0 161.05 322.65 158.1 326.85 155.0 331.3 155.0 333.0 L158.4 341.1 Q146.45 341.55 140.65 344.65 L134.75 347.65 Q130.6 349.25 124.0 350.0 L115.3 350.45 Q110.3 351.05 107.0 354.0 L93.3 366.15 Q84.1 374.0 82.0 374.0 80.95 364.55 77.0 358.05 74.6 354.1 68.65 348.2 62.6 342.2 60.0 338.05 55.6 331.05 54.0 321.0 53.35 322.45 52.0 323.0 L47.3 341.8 Q43.4 356.7 43.85 362.65 42.5 359.6 39.3 348.1 L34.0 328.0 Q31.35 317.85 26.35 306.6 L24.0 301.55 20.5 293.6 Q16.9 284.75 15.0 276.0 2.1 218.0 1.25 212.1 0.15 204.6 0.0 195.4 L0.0 170.0 Q0.0 138.75 5.6 121.8 10.5 106.95 28.0 81.0 37.15 67.5 54.95 43.9 L55.65 43.05 M234.8 383.6 L235.75 387.15 Q237.8 394.6 239.1 400.4 L238.1 405.0 Q236.35 396.25 234.8 383.6 M253.0 331.05 Q248.1 319.15 248.1 313.5 248.1 307.75 252.0 300.9 L253.1 298.95 264.1 282.45 Q280.1 256.15 280.1 216.5 280.1 213.9 277.9 200.95 L275.95 189.45 273.1 172.55 Q268.05 141.45 266.65 121.2 266.1 113.25 266.1 107.0 L266.1 106.0 Q266.45 113.8 267.25 121.05 268.2 130.2 269.85 138.55 273.05 154.6 278.1 164.0 279.55 166.7 280.65 170.6 L282.55 177.5 Q283.75 181.2 285.75 184.85 287.95 188.85 291.2 192.8 L293.65 203.15 Q300.1 230.45 300.1 234.5 300.1 241.55 295.1 254.45 290.1 267.3 290.1 275.5 290.1 278.1 294.6 293.55 L297.1 302.3 Q299.1 309.65 299.1 311.0 L299.1 314.0 Q298.15 313.0 295.65 312.4 L290.65 311.3 Q283.75 309.5 281.1 304.0 281.1 305.85 278.7 308.6 276.6 311.0 276.1 311.0 L273.55 310.5 272.1 310.0 271.6 315.0 Q271.1 318.5 271.1 320.0 L266.1 320.0 263.8 318.6 Q261.95 311.75 262.1 309.0 L261.1 309.0 Q257.0 316.1 253.0 331.05 M65.0 122.55 Q58.0 150.2 58.0 155.0 58.0 160.45 58.8 166.9 59.55 173.0 61.0 180.05 63.4 191.9 65.0 195.0 65.5 195.0 66.0 195.5 66.5 196.0 67.0 196.0 L67.0 172.0 65.75 165.35 65.1 162.35 65.0 155.5 Q65.0 148.35 66.0 128.55 L66.6 116.35 65.0 122.55 M47.8 96.15 Q44.6 104.1 40.0 117.0 31.9 139.3 29.75 153.8 28.65 161.05 28.25 173.6 28.0 180.9 28.0 190.0 28.6 217.0 28.0 226.0 27.85 229.15 30.8 235.2 L34.0 241.0 Q34.0 240.0 36.4 232.1 38.85 224.1 39.0 219.0 L39.0 218.0 Q44.65 260.75 56.05 283.15 L60.3 290.7 62.85 294.95 65.95 300.05 Q72.3 310.3 76.0 319.0 L76.0 314.0 71.3 295.2 69.15 286.55 45.0 189.0 Q43.3 189.8 39.55 192.45 L35.0 196.0 33.0 196.0 33.0 185.0 34.55 172.2 Q37.55 149.35 42.65 121.9 45.4 107.0 47.8 96.15 M169.95 70.85 Q182.1 85.35 188.05 93.85 198.1 108.1 203.6 122.25 205.8 127.9 207.55 134.2 210.65 145.25 212.35 158.4 215.1 179.3 215.1 210.5 L215.05 218.05 Q214.5 256.15 208.55 279.05 213.9 263.75 217.8 246.05 221.3 230.2 223.35 214.15 226.1 192.25 226.1 170.0 226.1 148.2 220.85 131.25 L219.65 127.7 Q214.15 112.1 203.1 99.0 L215.1 99.0 Q211.65 94.4 196.25 79.55 181.1 65.0 180.1 65.0 179.75 65.0 179.15 65.95 L177.45 68.0 Q174.9 70.35 169.95 70.85 M99.05 115.5 L99.0 115.5 Q99.0 121.75 105.7 136.15 L114.25 154.7 120.0 168.0 Q124.8 180.2 127.2 207.7 L129.0 238.0 Q129.6 248.25 129.8 258.05 L129.9 275.15 Q129.5 290.4 129.45 297.05 L129.4 298.45 Q129.3 308.6 130.65 315.5 L132.25 321.7 Q132.0 318.55 132.0 309.5 132.0 305.6 133.0 297.15 134.0 288.7 136.0 275.7 137.75 264.3 138.75 253.85 140.0 240.65 140.0 229.0 140.0 206.3 132.0 183.0 127.55 170.05 119.25 153.6 L114.55 144.65 Q102.95 123.25 99.05 115.5 M145.7 158.55 L146.0 166.0 Q146.05 169.55 149.75 173.15 L156.0 178.0 Q156.0 187.0 157.0 191.0 157.65 187.75 158.4 173.55 L159.0 158.0 Q159.0 152.4 154.65 145.8 L154.1 145.05 Q151.6 141.45 144.05 133.25 L143.15 133.4 144.4 142.5 145.0 147.95 145.7 158.55 M85.2 250.7 Q82.35 241.95 82.9 228.8 81.2 254.5 85.85 278.7 87.45 287.35 89.95 295.8 L90.2 296.7 Q94.0 309.5 100.5 324.5 107.45 339.75 110.0 346.0 L110.0 336.0 Q100.3 317.55 99.5 296.1 L99.45 293.5 99.5 279.2 Q99.35 275.3 98.5 272.75 97.9 271.1 97.0 270.0 87.9 259.0 85.2 250.7" fill="#333333" fill-rule="evenodd" stroke="none"/>
    </g>
    <g id="sprite5" transform="matrix(1.0, 0.0, 0.0, 1.0, -3.5, -4.85)">
      <use height="24.75" transform="matrix(1.0, 0.0, 0.0, 1.0, 3.95, 4.95)" width="171.25" xlink:href="#sprite6"/>
      <use height="24.75" transform="matrix(1.0, 0.0, 0.0, 1.0, 4.1, 5.05)" width="171.25" xlink:href="#sprite6"/>
      <use height="24.75" transform="matrix(1.0, 0.0, 0.0, 1.0, 4.1, 5.05)" width="171.25" xlink:href="#sprite6"/>
      <use height="24.75" transform="matrix(1.0, 0.0, 0.0, 1.0, 3.5, 4.85)" width="171.25" xlink:href="#text1"/>
    </g>
    <g id="sprite6" transform="matrix(1.0, 0.0, 0.0, 1.0, -3.5, -4.85)">
      <use height="24.75" transform="matrix(1.0, 0.0, 0.0, 1.0, 3.5, 4.85)" width="171.25" xlink:href="#text0"/>
    </g>
    <g id="text0" transform="matrix(1.0, 0.0, 0.0, 1.0, -1.5, -2.85)">
      <g transform="matrix(1.0, 0.0, 0.0, 1.0, 0.0, 0.0)">
        <use fill="#ff0000" height="24.75" transform="matrix(0.0293, 0.0, 0.0, 0.0293, 0.0, 23.0)" width="171.25" xlink:href="#font_LilyUPC_-0"/>
        <use fill="#ff0000" height="24.75" transform="matrix(0.0293, 0.0, 0.0, 0.0293, 17.45, 23.0)" width="171.25" xlink:href="#font_LilyUPC_N0"/>
        <use fill="#ff0000" height="24.75" transform="matrix(0.0293, 0.0, 0.0, 0.0293, 30.8, 23.0)" width="171.25" xlink:href="#font_LilyUPC_e0"/>
        <use fill="#ff0000" height="24.75" transform="matrix(0.0293, 0.0, 0.0, 0.0293, 40.6, 23.0)" width="171.25" xlink:href="#font_LilyUPC_e0"/>
        <use fill="#ff0000" height="24.75" transform="matrix(0.0293, 0.0, 0.0, 0.0293, 50.4, 23.0)" width="171.25" xlink:href="#font_LilyUPC_d0"/>
        <use fill="#ff0000" height="24.75" transform="matrix(0.0293, 0.0, 0.0, 0.0293, 66.65, 23.0)" width="171.25" xlink:href="#font_LilyUPC_s0"/>
        <use fill="#ff0000" height="24.75" transform="matrix(0.0293, 0.0, 0.0, 0.0293, 76.15, 23.0)" width="171.25" xlink:href="#font_LilyUPC_o0"/>
        <use fill="#ff0000" height="24.75" transform="matrix(0.0293, 0.0, 0.0, 0.0293, 87.4, 23.0)" width="171.25" xlink:href="#font_LilyUPC_m0"/>
        <use fill="#ff0000" height="24.75" transform="matrix(0.0293, 0.0, 0.0, 0.0293, 103.3, 23.0)" width="171.25" xlink:href="#font_LilyUPC_e0"/>
        <use fill="#ff0000" height="24.75" transform="matrix(0.0293, 0.0, 0.0, 0.0293, 118.7, 23.0)" width="171.25" xlink:href="#font_LilyUPC_h0"/>
        <use fill="#ff0000" height="24.75" transform="matrix(0.0293, 0.0, 0.0, 0.0293, 129.15, 23.0)" width="171.25" xlink:href="#font_LilyUPC_e0"/>
        <use fill="#ff0000" height="24.75" transform="matrix(0.0293, 0.0, 0.0, 0.0293, 138.95, 23.0)" width="171.25" xlink:href="#font_LilyUPC_l0"/>
        <use fill="#ff0000" height="24.75" transform="matrix(0.0293, 0.0, 0.0, 0.0293, 143.4, 23.0)" width="171.25" xlink:href="#font_LilyUPC_p0"/>
      </g>
    </g>
    <g id="font_LilyUPC_-0">
      <path d="M393.5 -206.5 L393.5 -290.0 48.5 -290.0 48.5 -206.5 393.5 -206.5" fill-rule="evenodd" stroke="none"/>
    </g>
    <g id="font_LilyUPC_N0">
      <path d="M350.5 -199.5 L211.0 -477.5 33.5 -477.5 33.5 0.0 144.5 0.0 144.5 -287.5 294.0 0.0 460.0 0.0 460.0 -477.5 350.5 -477.5 350.5 -199.5" fill-rule="evenodd" stroke="none"/>
    </g>
    <g id="font_LilyUPC_e0">
      <path d="M210.0 -275.5 L210.0 -275.5 Q244.0 -273.0 255.0 -252.0 266.5 -231.5 266.5 -199.0 L148.5 -199.0 Q148.5 -275.5 210.0 -275.5 M148.5 -139.5 L352.5 -139.5 Q353.0 -144.0 354.5 -156.0 355.5 -167.5 355.5 -183.5 353.0 -276.0 316.5 -311.5 291.0 -336.0 261.0 -343.5 230.5 -350.5 180.5 -350.5 105.0 -348.5 62.0 -306.0 19.5 -263.0 19.5 -163.5 21.0 1.0 168.0 9.5 172.5 9.5 180.0 10.0 187.5 10.5 191.5 10.5 243.0 10.5 281.0 1.0 318.5 -8.0 333.0 -14.0 L347.5 -96.5 Q335.0 -87.5 302.0 -73.5 268.5 -60.0 220.5 -58.5 148.5 -58.5 148.5 -139.5" fill-rule="evenodd" stroke="none"/>
    </g>
    <g id="font_LilyUPC_d0">
      <path d="M245.0 -89.0 L245.0 -89.0 Q239.0 -84.0 224.0 -76.0 208.5 -68.0 189.5 -67.5 151.5 -67.5 134.5 -91.0 117.5 -114.5 117.5 -176.0 117.5 -228.0 135.0 -251.0 153.0 -273.5 189.5 -273.5 209.5 -272.0 227.5 -264.0 245.0 -256.0 245.0 -254.0 L245.0 -89.0 M374.0 -477.5 L245.0 -477.5 245.0 -334.5 Q237.0 -338.0 215.5 -343.0 193.5 -347.5 156.5 -347.5 21.5 -341.0 21.5 -177.5 21.5 -102.5 41.5 -61.0 61.5 -20.0 92.0 -5.5 123.0 8.5 161.0 8.5 192.0 8.5 214.5 -2.0 236.5 -12.5 245.0 -19.5 L245.0 0.0 374.0 0.0 374.0 -477.5" fill-rule="evenodd" stroke="none"/>
    </g>
    <g id="font_LilyUPC_s0">
      <path d="M144.5 -244.5 L144.5 -244.5 Q144.5 -278.5 206.5 -278.5 259.5 -278.5 287.5 -269.5 315.5 -261.0 324.5 -255.0 L306.0 -334.0 Q296.0 -338.0 266.5 -343.5 237.5 -349.5 188.5 -349.5 184.5 -349.5 175.5 -349.0 166.5 -348.5 161.5 -348.5 103.0 -346.0 61.0 -322.0 19.5 -297.5 15.0 -251.0 15.0 -202.0 42.0 -179.5 68.5 -156.5 105.5 -148.5 142.5 -140.0 179.0 -130.5 215.0 -121.5 215.0 -100.5 215.0 -81.5 199.0 -72.0 183.0 -62.5 135.0 -62.5 89.5 -63.0 60.0 -76.5 30.5 -90.0 20.5 -99.0 L36.5 -12.0 Q49.5 -7.0 84.5 0.5 119.0 8.5 166.0 8.5 187.5 8.5 198.5 7.5 267.0 2.0 303.0 -25.5 339.0 -53.0 339.0 -117.5 337.0 -161.0 310.5 -181.5 284.0 -202.0 246.0 -209.0 207.5 -216.5 177.0 -223.0 146.0 -229.5 144.5 -244.5" fill-rule="evenodd" stroke="none"/>
    </g>
    <g id="font_LilyUPC_o0">
      <path d="M140.0 -172.0 L140.0 -172.0 Q140.0 -205.5 144.0 -228.5 148.5 -251.0 163.5 -266.5 179.0 -282.5 210.0 -282.5 253.5 -282.5 265.0 -252.0 276.5 -222.0 276.5 -170.0 276.5 -135.0 273.0 -113.0 269.5 -91.0 255.0 -75.0 240.5 -59.5 210.0 -59.5 178.5 -59.5 163.5 -75.5 149.0 -91.5 145.5 -112.5 142.0 -133.0 140.0 -172.0 M209.0 -355.5 L209.0 -355.5 Q115.5 -355.5 67.0 -309.0 18.5 -262.0 17.5 -171.0 17.5 -106.5 38.0 -66.0 59.0 -25.5 101.0 -6.5 142.5 13.0 206.5 13.5 308.5 13.5 354.0 -31.0 399.0 -75.5 399.0 -172.0 399.0 -233.5 381.0 -274.0 362.5 -314.5 320.5 -335.0 278.5 -355.5 209.0 -355.5" fill-rule="evenodd" stroke="none"/>
    </g>
    <g id="font_LilyUPC_m0">
      <path d="M459.0 0.0 L556.0 0.0 556.0 -252.0 Q556.0 -294.0 524.5 -321.5 493.5 -348.5 431.0 -348.5 396.0 -348.0 373.5 -337.5 351.0 -327.0 341.0 -314.5 331.5 -301.5 331.0 -301.0 328.0 -312.5 310.0 -330.0 292.0 -347.5 247.0 -347.5 191.0 -346.5 158.0 -313.0 L158.0 -341.0 29.0 -341.0 29.0 0.0 158.0 0.0 158.0 -211.0 Q158.5 -224.0 167.5 -244.5 177.0 -265.0 208.0 -268.0 260.0 -268.0 260.0 -216.0 L260.0 0.0 356.0 0.0 356.0 -211.0 Q356.5 -224.0 366.0 -244.5 376.0 -265.0 406.5 -268.0 459.0 -268.0 459.0 -216.0 L459.0 0.0" fill-rule="evenodd" stroke="none"/>
    </g>
    <g id="font_LilyUPC_h0">
      <path d="M368.5 -245.5 L368.5 -245.5 Q368.5 -266.5 356.5 -290.0 344.5 -313.0 316.0 -329.5 288.0 -346.0 243.5 -346.0 215.0 -346.0 195.5 -339.0 176.5 -331.5 166.5 -323.5 156.5 -315.0 154.5 -313.0 L154.5 -477.5 25.5 -477.5 25.5 0.0 154.5 0.0 154.5 -216.0 Q155.0 -228.5 165.0 -249.5 175.0 -270.0 207.0 -274.5 240.0 -274.5 256.5 -259.0 272.5 -244.0 272.5 -222.0 L272.5 0.0 368.5 1.0 368.5 -245.5" fill-rule="evenodd" stroke="none"/>
    </g>
    <g id="font_LilyUPC_l0">
      <path d="M32.0 0.0 L161.0 0.0 161.0 -477.5 32.0 -477.5 32.0 0.0" fill-rule="evenodd" stroke="none"/>
    </g>
    <g id="font_LilyUPC_p0">
      <path d="M158.0 -252.0 L158.0 -252.0 Q164.5 -257.0 179.0 -265.0 194.0 -272.5 213.5 -273.5 251.5 -273.5 268.0 -250.0 285.0 -226.5 285.0 -164.5 285.0 -107.0 267.0 -88.5 249.0 -69.5 213.5 -67.5 193.5 -67.5 175.5 -75.0 158.0 -82.5 158.0 -85.0 L158.0 -252.0 M29.0 136.5 L158.0 136.5 158.0 -11.0 Q167.5 -7.0 191.5 0.0 215.5 6.5 246.0 6.5 300.0 3.5 340.5 -30.0 381.0 -64.0 381.0 -168.0 381.0 -242.0 362.0 -282.0 343.5 -322.0 314.5 -334.5 285.5 -347.5 248.0 -347.5 215.5 -347.5 191.5 -336.5 167.5 -326.0 158.0 -318.5 L158.0 -341.0 29.0 -341.0 29.0 136.5" fill-rule="evenodd" stroke="none"/>
    </g>
    <g id="text1" transform="matrix(1.0, 0.0, 0.0, 1.0, -1.5, -2.85)">
      <g transform="matrix(1.0, 0.0, 0.0, 1.0, 0.0, 0.0)">
        <use fill="#ffffff" height="24.75" transform="matrix(0.0293, 0.0, 0.0, 0.0293, 0.0, 23.0)" width="171.25" xlink:href="#font_LilyUPC_-0"/>
        <use fill="#ffffff" height="24.75" transform="matrix(0.0293, 0.0, 0.0, 0.0293, 17.45, 23.0)" width="171.25" xlink:href="#font_LilyUPC_N0"/>
        <use fill="#ffffff" height="24.75" transform="matrix(0.0293, 0.0, 0.0, 0.0293, 30.8, 23.0)" width="171.25" xlink:href="#font_LilyUPC_e0"/>
        <use fill="#ffffff" height="24.75" transform="matrix(0.0293, 0.0, 0.0, 0.0293, 40.6, 23.0)" width="171.25" xlink:href="#font_LilyUPC_e0"/>
        <use fill="#ffffff" height="24.75" transform="matrix(0.0293, 0.0, 0.0, 0.0293, 50.4, 23.0)" width="171.25" xlink:href="#font_LilyUPC_d0"/>
        <use fill="#ffffff" height="24.75" transform="matrix(0.0293, 0.0, 0.0, 0.0293, 66.65, 23.0)" width="171.25" xlink:href="#font_LilyUPC_s0"/>
        <use fill="#ffffff" height="24.75" transform="matrix(0.0293, 0.0, 0.0, 0.0293, 76.15, 23.0)" width="171.25" xlink:href="#font_LilyUPC_o0"/>
        <use fill="#ffffff" height="24.75" transform="matrix(0.0293, 0.0, 0.0, 0.0293, 87.4, 23.0)" width="171.25" xlink:href="#font_LilyUPC_m0"/>
        <use fill="#ffffff" height="24.75" transform="matrix(0.0293, 0.0, 0.0, 0.0293, 103.3, 23.0)" width="171.25" xlink:href="#font_LilyUPC_e0"/>
        <use fill="#ffffff" height="24.75" transform="matrix(0.0293, 0.0, 0.0, 0.0293, 118.7, 23.0)" width="171.25" xlink:href="#font_LilyUPC_h0"/>
        <use fill="#ffffff" height="24.75" transform="matrix(0.0293, 0.0, 0.0, 0.0293, 129.15, 23.0)" width="171.25" xlink:href="#font_LilyUPC_e0"/>
        <use fill="#ffffff" height="24.75" transform="matrix(0.0293, 0.0, 0.0, 0.0293, 138.95, 23.0)" width="171.25" xlink:href="#font_LilyUPC_l0"/>
        <use fill="#ffffff" height="24.75" transform="matrix(0.0293, 0.0, 0.0, 0.0293, 143.4, 23.0)" width="171.25" xlink:href="#font_LilyUPC_p0"/>
      </g>
    </g>
  </defs>
</svg>
