<?xml version="1.0" encoding="UTF-8" standalone="no"?>
<svg xmlns:xlink="http://www.w3.org/1999/xlink" height="223.45px" width="198.4px" xmlns="http://www.w3.org/2000/svg">
  <g transform="matrix(1.0, 0.0, 0.0, 1.0, 109.6, 83.0)">
    <clipPath id="clipPath0" transform="matrix(1.0, 0.0, 0.0, 1.0, 109.6, 83.0)">
      <use height="65.6" transform="matrix(1.0, 0.0, 0.0, 1.0, -25.9, -51.75)" width="114.7" xlink:href="#shape0"/>
    </clipPath>
    <g clip-path="url(#clipPath0)">
      <use height="35.5" transform="matrix(1.0, 0.0, 0.0, 1.0, -6.15, -17.05)" width="12.5" xlink:href="#sprite0"/>
    </g>
  </g>
  <defs>
    <g id="shape0" transform="matrix(1.0, 0.0, 0.0, 1.0, 25.9, 51.75)">
      <path d="M2.45 -17.65 L5.55 -18.1 -4.6 -20.05 -13.7 -20.25 -13.7 -15.75 -24.65 -16.9 -25.9 -38.35 52.4 -51.75 88.8 -49.0 87.0 13.85 24.15 13.85 24.15 11.45 9.1 11.45 9.1 1.85 9.95 1.4 9.95 -0.25 8.55 -0.75 8.55 -9.0 9.2 -9.6 9.2 -10.3 -0.05 -10.7 1.85 -11.4 1.85 -17.65 2.45 -17.65" fill="#000000" fill-rule="evenodd" stroke="none"/>
    </g>
    <g id="sprite0" transform="matrix(1.0, 0.0, 0.0, 1.0, 6.25, 17.75)">
      <use height="39.5" transform="matrix(0.3165, 0.0, 0.0, 0.8987, -6.2499, -17.7499)" width="39.5" xlink:href="#shape1"/>
    </g>
    <g id="shape1" transform="matrix(1.0, 0.0, 0.0, 1.0, 19.75, 19.75)">
      <path d="M19.75 -19.75 L19.75 19.75 -19.75 19.75 -19.75 -19.75 19.75 -19.75" fill="#ffffff" fill-opacity="0.0" fill-rule="evenodd" stroke="none"/>
    </g>
  </defs>
</svg>
