<?xml version="1.0" encoding="UTF-8" standalone="no"?>
<svg xmlns:xlink="http://www.w3.org/1999/xlink" height="25.1px" width="287.25px" xmlns="http://www.w3.org/2000/svg">
  <g transform="matrix(1.0, 0.0, 0.0, 1.0, 54.5, -4.85)">
    <use height="25.1" transform="matrix(1.0, 0.0, 0.0, 1.0, -54.5, 4.85)" width="287.25" xlink:href="#text0"/>
  </g>
  <defs>
    <g id="text0" transform="matrix(1.0, 0.0, 0.0, 1.0, 56.5, -2.85)">
      <g transform="matrix(1.0, 0.0, 0.0, 1.0, -58.0, 0.0)">
        <use fill="#fe4e4e" height="25.1" transform="matrix(0.0293, 0.0, 0.0, 0.0293, 0.0, 23.0)" width="287.25" xlink:href="#font_LilyUPC_-0"/>
        <use fill="#fe4e4e" height="25.1" transform="matrix(0.0293, 0.0, 0.0, 0.0293, 17.45, 23.0)" width="287.25" xlink:href="#font_LilyUPC_I0"/>
        <use fill="#fe4e4e" height="25.1" transform="matrix(0.0293, 0.0, 0.0, 0.0293, 22.55, 23.0)" width="287.25" xlink:href="#font_LilyUPC__1"/>
        <use fill="#fe4e4e" height="25.1" transform="matrix(0.0293, 0.0, 0.0, 0.0293, 28.1, 23.0)" width="287.25" xlink:href="#font_LilyUPC_m0"/>
        <use fill="#fe4e4e" height="25.1" transform="matrix(0.0293, 0.0, 0.0, 0.0293, 49.6, 23.0)" width="287.25" xlink:href="#font_LilyUPC_t0"/>
        <use fill="#fe4e4e" height="25.1" transform="matrix(0.0293, 0.0, 0.0, 0.0293, 56.75, 23.0)" width="287.25" xlink:href="#font_LilyUPC_a0"/>
        <use fill="#fe4e4e" height="25.1" transform="matrix(0.0293, 0.0, 0.0, 0.0293, 67.15, 23.0)" width="287.25" xlink:href="#font_LilyUPC_l0"/>
        <use fill="#fe4e4e" height="25.1" transform="matrix(0.0293, 0.0, 0.0, 0.0293, 71.6, 23.0)" width="287.25" xlink:href="#font_LilyUPC_k0"/>
        <use fill="#fe4e4e" height="25.1" transform="matrix(0.0293, 0.0, 0.0, 0.0293, 82.85, 23.0)" width="287.25" xlink:href="#font_LilyUPC_i0"/>
        <use fill="#fe4e4e" height="25.1" transform="matrix(0.0293, 0.0, 0.0, 0.0293, 87.05, 23.0)" width="287.25" xlink:href="#font_LilyUPC_n0"/>
        <use fill="#fe4e4e" height="25.1" transform="matrix(0.0293, 0.0, 0.0, 0.0293, 97.5, 23.0)" width="287.25" xlink:href="#font_LilyUPC_g0"/>
        <use fill="#fe4e4e" height="25.1" transform="matrix(0.0293, 0.0, 0.0, 0.0293, 113.85, 23.0)" width="287.25" xlink:href="#font_LilyUPC_a0"/>
        <use fill="#fe4e4e" height="25.1" transform="matrix(0.0293, 0.0, 0.0, 0.0293, 124.25, 23.0)" width="287.25" xlink:href="#font_LilyUPC_b0"/>
        <use fill="#fe4e4e" height="25.1" transform="matrix(0.0293, 0.0, 0.0, 0.0293, 134.7, 23.0)" width="287.25" xlink:href="#font_LilyUPC_o0"/>
        <use fill="#fe4e4e" height="25.1" transform="matrix(0.0293, 0.0, 0.0, 0.0293, 145.95, 23.0)" width="287.25" xlink:href="#font_LilyUPC_u0"/>
        <use fill="#fe4e4e" height="25.1" transform="matrix(0.0293, 0.0, 0.0, 0.0293, 156.4, 23.0)" width="287.25" xlink:href="#font_LilyUPC_t0"/>
        <use fill="#fe4e4e" height="25.1" transform="matrix(0.0293, 0.0, 0.0, 0.0293, 169.15, 23.0)" width="287.25" xlink:href="#font_LilyUPC_R0"/>
        <use fill="#fe4e4e" height="25.1" transform="matrix(0.0293, 0.0, 0.0, 0.0293, 182.3, 23.0)" width="287.25" xlink:href="#font_LilyUPC_E0"/>
        <use fill="#fe4e4e" height="25.1" transform="matrix(0.0293, 0.0, 0.0, 0.0293, 193.05, 23.0)" width="287.25" xlink:href="#font_LilyUPC_A0"/>
        <use fill="#fe4e4e" height="25.1" transform="matrix(0.0293, 0.0, 0.0, 0.0293, 207.15, 23.0)" width="287.25" xlink:href="#font_LilyUPC_L0"/>
        <use fill="#fe4e4e" height="25.1" transform="matrix(0.0293, 0.0, 0.0, 0.0293, 223.25, 23.0)" width="287.25" xlink:href="#font_LilyUPC_h0"/>
        <use fill="#fe4e4e" height="25.1" transform="matrix(0.0293, 0.0, 0.0, 0.0293, 233.7, 23.0)" width="287.25" xlink:href="#font_LilyUPC_e0"/>
        <use fill="#fe4e4e" height="25.1" transform="matrix(0.0293, 0.0, 0.0, 0.0293, 243.5, 23.0)" width="287.25" xlink:href="#font_LilyUPC_l0"/>
        <use fill="#fe4e4e" height="25.1" transform="matrix(0.0293, 0.0, 0.0, 0.0293, 247.95, 23.0)" width="287.25" xlink:href="#font_LilyUPC_p0"/>
        <use fill="#fe4e4e" height="25.1" transform="matrix(0.0293, 0.0, 0.0, 0.0293, 264.05, 23.0)" width="287.25" xlink:href="#font_LilyUPC__2"/>
      </g>
    </g>
    <g id="font_LilyUPC_-0">
      <path d="M393.5 -206.5 L393.5 -290.0 48.5 -290.0 48.5 -206.5 393.5 -206.5" fill-rule="evenodd" stroke="none"/>
    </g>
    <g id="font_LilyUPC_I0">
      <path d="M184.5 -477.5 L34.0 -477.5 34.0 0.0 184.5 0.0 184.5 -477.5" fill-rule="evenodd" stroke="none"/>
    </g>
    <g id="font_LilyUPC__1">
      <path d="M109.5 -545.5 L28.5 -372.5 88.0 -372.5 209.0 -545.5 109.5 -545.5" fill-rule="evenodd" stroke="none"/>
    </g>
    <g id="font_LilyUPC_m0">
      <path d="M459.0 0.0 L556.0 0.0 556.0 -252.0 Q556.0 -294.0 524.5 -321.5 493.5 -348.5 431.0 -348.5 396.0 -348.0 373.5 -337.5 351.0 -327.0 341.0 -314.5 331.5 -301.5 331.0 -301.0 328.0 -312.5 310.0 -330.0 292.0 -347.5 247.0 -347.5 191.0 -346.5 158.0 -313.0 L158.0 -341.0 29.0 -341.0 29.0 0.0 158.0 0.0 158.0 -211.0 Q158.5 -224.0 167.5 -244.5 177.0 -265.0 208.0 -268.0 260.0 -268.0 260.0 -216.0 L260.0 0.0 356.0 0.0 356.0 -211.0 Q356.5 -224.0 366.0 -244.5 376.0 -265.0 406.5 -268.0 459.0 -268.0 459.0 -216.0 L459.0 0.0" fill-rule="evenodd" stroke="none"/>
    </g>
    <g id="font_LilyUPC_t0">
      <path d="M201.0 -116.5 L201.0 -270.0 265.5 -270.0 265.5 -341.0 201.0 -341.0 201.0 -477.5 72.0 -477.5 72.0 -341.0 7.5 -341.0 7.5 -270.0 72.0 -270.0 72.0 -104.5 Q72.0 -46.0 108.0 -21.5 138.5 1.0 226.5 1.0 240.5 1.0 251.0 0.5 261.5 0.5 265.5 0.0 L265.5 -70.5 Q265.0 -70.5 258.5 -69.5 252.5 -68.5 246.0 -68.5 228.0 -68.5 218.5 -76.5 201.0 -89.0 201.0 -116.5" fill-rule="evenodd" stroke="none"/>
    </g>
    <g id="font_LilyUPC_a0">
      <path d="M182.5 -67.5 L182.5 -67.5 Q162.0 -63.5 153.5 -63.5 118.0 -63.5 115.0 -87.0 115.0 -109.5 128.0 -120.0 141.0 -130.5 171.0 -135.0 195.5 -139.0 208.0 -145.0 220.5 -151.0 224.5 -156.5 229.0 -161.5 229.5 -162.5 L229.5 -110.5 Q229.5 -103.0 219.5 -88.5 209.0 -74.0 182.5 -67.5 M229.5 1.0 L358.5 0.0 358.5 -240.5 Q358.5 -285.0 320.0 -315.5 281.5 -346.0 195.5 -346.0 153.5 -346.0 122.0 -339.0 91.0 -332.0 73.5 -324.0 56.5 -316.0 56.5 -314.0 L35.0 -234.5 Q45.5 -245.5 79.5 -262.0 113.0 -278.5 172.0 -278.5 197.5 -278.5 214.0 -268.5 230.5 -258.0 230.5 -244.5 230.5 -230.0 211.5 -218.0 192.5 -205.5 154.5 -200.5 85.5 -190.5 51.5 -167.0 17.5 -143.5 17.5 -91.0 18.5 -43.0 53.5 -18.5 88.5 6.5 135.5 6.5 184.0 5.0 204.5 -9.5 225.5 -24.0 229.5 -33.5 L229.5 1.0" fill-rule="evenodd" stroke="none"/>
    </g>
    <g id="font_LilyUPC_l0">
      <path d="M32.0 0.0 L161.0 0.0 161.0 -477.5 32.0 -477.5 32.0 0.0" fill-rule="evenodd" stroke="none"/>
    </g>
    <g id="font_LilyUPC_k0">
      <path d="M25.5 0.0 L154.5 0.0 154.5 -128.0 179.5 -147.5 284.0 1.0 407.5 0.0 251.0 -207.5 409.5 -341.0 285.0 -341.0 154.5 -231.5 154.5 -477.5 25.5 -477.5 25.5 0.0" fill-rule="evenodd" stroke="none"/>
    </g>
    <g id="font_LilyUPC_i0">
      <path d="M90.0 -478.5 L90.0 -478.5 Q62.0 -478.5 41.5 -461.0 21.5 -443.5 21.5 -419.0 21.5 -394.5 42.0 -377.0 62.0 -359.5 90.0 -359.5 118.5 -359.5 138.5 -377.0 159.0 -394.5 159.0 -419.0 159.0 -443.5 138.5 -461.0 118.5 -478.5 90.0 -478.5 M25.5 0.0 L154.5 0.0 154.5 -341.0 25.5 -341.0 25.5 0.0" fill-rule="evenodd" stroke="none"/>
    </g>
    <g id="font_LilyUPC_n0">
      <path d="M368.5 -245.5 L368.5 -245.5 Q368.5 -266.5 356.5 -290.0 344.5 -313.0 316.0 -329.5 288.0 -346.0 243.5 -346.0 215.0 -346.0 195.5 -339.0 176.5 -331.5 166.5 -323.5 156.5 -315.0 154.5 -313.0 L154.5 -341.0 25.5 -341.0 25.5 0.0 154.5 0.0 154.5 -216.0 Q155.0 -228.5 165.0 -249.5 175.0 -270.0 207.0 -274.5 240.0 -274.5 256.5 -259.0 272.5 -244.0 272.5 -222.0 L272.5 0.0 368.5 0.0 368.5 -245.5" fill-rule="evenodd" stroke="none"/>
    </g>
    <g id="font_LilyUPC_g0">
      <path d="M242.0 -252.0 L242.0 -87.0 Q242.0 -85.0 224.5 -77.0 207.0 -69.0 186.5 -67.5 150.0 -67.5 132.5 -91.0 114.5 -114.5 114.5 -167.0 114.5 -228.5 131.5 -251.0 148.0 -273.5 186.5 -273.5 206.0 -272.5 221.0 -265.0 235.5 -257.0 242.0 -252.0 M371.0 36.0 L371.0 -341.0 242.0 -341.0 242.0 -321.5 Q233.5 -328.5 211.5 -339.0 189.0 -349.5 158.0 -349.5 119.5 -349.5 89.0 -335.5 58.5 -321.5 38.5 -280.5 18.5 -239.5 18.5 -165.0 18.5 -66.5 60.0 -31.0 101.5 4.5 153.5 6.0 186.5 6.0 210.0 0.0 233.5 -6.5 242.0 -10.5 L242.0 28.5 Q242.0 51.0 216.5 63.5 191.5 75.5 152.5 75.5 122.5 75.5 95.0 67.5 67.5 59.5 49.5 50.5 31.0 41.5 28.5 39.0 L44.0 130.0 Q47.5 133.5 89.0 141.0 130.5 148.5 190.5 148.5 285.0 146.0 328.0 113.5 371.0 81.5 371.0 36.0" fill-rule="evenodd" stroke="none"/>
    </g>
    <g id="font_LilyUPC_b0">
      <path d="M160.0 -89.0 L160.0 -254.0 Q160.0 -256.0 177.5 -264.0 195.5 -272.0 215.5 -273.5 253.5 -273.5 270.5 -253.0 287.0 -233.0 287.0 -176.0 287.0 -114.0 270.0 -90.5 253.0 -67.5 215.5 -67.5 196.5 -68.0 181.5 -76.0 166.5 -84.0 160.0 -89.0 M31.0 -477.5 L31.0 0.0 160.0 0.0 160.0 -22.5 Q168.0 -14.5 190.0 -3.0 212.0 8.5 244.0 8.5 383.0 8.5 383.0 -177.5 383.0 -284.0 343.5 -314.5 304.0 -345.0 248.0 -347.5 215.0 -347.5 192.0 -341.0 169.0 -334.5 160.0 -329.5 L160.0 -477.5 31.0 -477.5" fill-rule="evenodd" stroke="none"/>
    </g>
    <g id="font_LilyUPC_o0">
      <path d="M140.0 -172.0 L140.0 -172.0 Q140.0 -205.5 144.0 -228.5 148.5 -251.0 163.5 -266.5 179.0 -282.5 210.0 -282.5 253.5 -282.5 265.0 -252.0 276.5 -222.0 276.5 -170.0 276.5 -135.0 273.0 -113.0 269.5 -91.0 255.0 -75.0 240.5 -59.5 210.0 -59.5 178.5 -59.5 163.5 -75.5 149.0 -91.5 145.5 -112.5 142.0 -133.0 140.0 -172.0 M209.0 -355.5 L209.0 -355.5 Q115.5 -355.5 67.0 -309.0 18.5 -262.0 17.5 -171.0 17.5 -106.5 38.0 -66.0 59.0 -25.5 101.0 -6.5 142.5 13.0 206.5 13.5 308.5 13.5 354.0 -31.0 399.0 -75.5 399.0 -172.0 399.0 -233.5 381.0 -274.0 362.5 -314.5 320.5 -335.0 278.5 -355.5 209.0 -355.5" fill-rule="evenodd" stroke="none"/>
    </g>
    <g id="font_LilyUPC_u0">
      <path d="M25.5 -94.0 L25.5 -94.0 Q25.5 -59.0 54.0 -28.0 83.0 3.0 147.5 7.5 185.0 7.5 213.0 0.0 241.0 -8.0 257.5 -17.0 273.0 -25.5 273.0 -26.5 273.0 -26.5 272.5 -26.5 L272.5 0.0 368.5 0.0 368.5 -341.0 272.5 -341.0 272.5 -125.0 Q272.5 -108.5 262.0 -90.5 252.0 -72.0 219.5 -66.5 154.5 -66.5 154.5 -118.5 L154.5 -341.0 25.5 -341.0 25.5 -94.0" fill-rule="evenodd" stroke="none"/>
    </g>
    <g id="font_LilyUPC_R0">
      <path d="M354.5 -191.5 L354.5 -191.5 Q356.0 -192.0 375.0 -194.5 393.5 -197.5 414.0 -209.5 434.5 -221.5 450.5 -250.5 466.0 -279.0 466.0 -328.0 466.0 -406.0 420.5 -441.5 375.5 -477.5 301.0 -477.5 L40.0 -477.5 40.0 0.0 190.5 0.0 190.5 -397.0 248.0 -397.0 Q316.5 -397.0 316.5 -314.0 316.5 -272.0 295.0 -254.5 273.5 -237.5 249.0 -237.5 L190.5 -237.5 317.5 1.0 479.5 0.0 354.5 -191.5" fill-rule="evenodd" stroke="none"/>
    </g>
    <g id="font_LilyUPC_E0">
      <path d="M38.0 -477.5 L38.0 0.0 388.0 0.0 388.0 -81.5 188.5 -81.5 188.5 -207.5 349.5 -207.5 349.5 -289.0 188.5 -289.0 188.5 -396.0 385.0 -396.0 385.0 -477.5 38.0 -477.5" fill-rule="evenodd" stroke="none"/>
    </g>
    <g id="font_LilyUPC_A0">
      <path d="M287.0 -153.5 L176.5 -153.5 232.0 -300.0 287.0 -153.5 M145.0 -70.0 L319.0 -70.0 345.5 0.0 505.0 0.0 324.0 -477.5 188.0 -477.5 9.5 0.0 118.0 0.0 145.0 -70.0" fill-rule="evenodd" stroke="none"/>
    </g>
    <g id="font_LilyUPC_L0">
      <path d="M185.5 -80.0 L185.5 -477.5 35.0 -477.5 35.0 0.0 385.0 0.0 385.0 -80.0 185.5 -80.0" fill-rule="evenodd" stroke="none"/>
    </g>
    <g id="font_LilyUPC_h0">
      <path d="M368.5 -245.5 L368.5 -245.5 Q368.5 -266.5 356.5 -290.0 344.5 -313.0 316.0 -329.5 288.0 -346.0 243.5 -346.0 215.0 -346.0 195.5 -339.0 176.5 -331.5 166.5 -323.5 156.5 -315.0 154.5 -313.0 L154.5 -477.5 25.5 -477.5 25.5 0.0 154.5 0.0 154.5 -216.0 Q155.0 -228.5 165.0 -249.5 175.0 -270.0 207.0 -274.5 240.0 -274.5 256.5 -259.0 272.5 -244.0 272.5 -222.0 L272.5 0.0 368.5 1.0 368.5 -245.5" fill-rule="evenodd" stroke="none"/>
    </g>
    <g id="font_LilyUPC_e0">
      <path d="M210.0 -275.5 L210.0 -275.5 Q244.0 -273.0 255.0 -252.0 266.5 -231.5 266.5 -199.0 L148.5 -199.0 Q148.5 -275.5 210.0 -275.5 M148.5 -139.5 L352.5 -139.5 Q353.0 -144.0 354.5 -156.0 355.5 -167.5 355.5 -183.5 353.0 -276.0 316.5 -311.5 291.0 -336.0 261.0 -343.5 230.5 -350.5 180.5 -350.5 105.0 -348.5 62.0 -306.0 19.5 -263.0 19.5 -163.5 21.0 1.0 168.0 9.5 172.5 9.5 180.0 10.0 187.5 10.5 191.5 10.5 243.0 10.5 281.0 1.0 318.5 -8.0 333.0 -14.0 L347.5 -96.5 Q335.0 -87.5 302.0 -73.5 268.5 -60.0 220.5 -58.5 148.5 -58.5 148.5 -139.5" fill-rule="evenodd" stroke="none"/>
    </g>
    <g id="font_LilyUPC_p0">
      <path d="M158.0 -252.0 L158.0 -252.0 Q164.5 -257.0 179.0 -265.0 194.0 -272.5 213.5 -273.5 251.5 -273.5 268.0 -250.0 285.0 -226.5 285.0 -164.5 285.0 -107.0 267.0 -88.5 249.0 -69.5 213.5 -67.5 193.5 -67.5 175.5 -75.0 158.0 -82.5 158.0 -85.0 L158.0 -252.0 M29.0 136.5 L158.0 136.5 158.0 -11.0 Q167.5 -7.0 191.5 0.0 215.5 6.5 246.0 6.5 300.0 3.5 340.5 -30.0 381.0 -64.0 381.0 -168.0 381.0 -242.0 362.0 -282.0 343.5 -322.0 314.5 -334.5 285.5 -347.5 248.0 -347.5 215.5 -347.5 191.5 -336.5 167.5 -326.0 158.0 -318.5 L158.0 -341.0 29.0 -341.0 29.0 136.5" fill-rule="evenodd" stroke="none"/>
    </g>
    <g id="font_LilyUPC__2">
      <path d="M117.0 -125.5 L117.0 -125.5 Q85.0 -125.5 66.5 -106.5 48.5 -87.5 48.5 -62.5 48.5 -37.0 66.5 -18.0 85.0 1.0 117.0 1.0 149.5 1.0 167.5 -18.0 185.5 -36.5 185.5 -62.5 185.5 -88.5 167.5 -107.0 149.5 -125.5 117.0 -125.5 M44.0 -487.5 L44.0 -379.0 85.0 -163.0 149.5 -163.0 187.5 -379.0 187.5 -487.5 44.0 -487.5" fill-rule="evenodd" stroke="none"/>
    </g>
  </defs>
</svg>
