<?xml version="1.0" encoding="UTF-8" standalone="no"?>
<svg xmlns:xlink="http://www.w3.org/1999/xlink" height="116.4px" width="83.45px" xmlns="http://www.w3.org/2000/svg">
  <g transform="matrix(1.0, 0.0, 0.0, 1.0, 6.45, 39.95)">
    <use height="37.0" id="zonee" transform="matrix(1.0, 0.0, 0.0, 1.0, 0.0, 0.0)" width="77.0" xlink:href="#sprite0"/>
  </g>
  <defs>
    <g id="sprite0" transform="matrix(1.0, 0.0, 0.0, 1.0, 38.5, 18.5)">
      <use height="37.0" transform="matrix(1.0, 0.0, 0.0, 1.0, -38.5, -18.5)" width="77.0" xlink:href="#shape0"/>
    </g>
    <g id="shape0" transform="matrix(1.0, 0.0, 0.0, 1.0, 38.5, 18.5)">
      <path d="M20.7 -18.5 L38.5 -18.5 38.5 -7.35 20.7 -18.5 M38.5 14.45 L38.5 18.5 16.6 18.5 -38.5 -11.85 -38.5 -18.5 -19.4 -18.5 38.5 14.45" fill="#ffffff" fill-opacity="0.5137255" fill-rule="evenodd" stroke="none"/>
      <path d="M20.7 -18.5 L38.5 -7.35 38.5 14.45 -19.4 -18.5 20.7 -18.5 M16.6 18.5 L-38.5 18.5 -38.5 -11.85 16.6 18.5" fill="#999999" fill-opacity="0.5137255" fill-rule="evenodd" stroke="none"/>
    </g>
  </defs>
</svg>
