<?xml version="1.0" encoding="UTF-8" standalone="no"?>
<svg xmlns:xlink="http://www.w3.org/1999/xlink" height="60.7px" width="60.85px" xmlns="http://www.w3.org/2000/svg">
  <g transform="matrix(1.0, 0.0, 0.0, 1.0, 8.85, 8.9)">
    <use height="58.4" transform="matrix(1.0, 0.0, 0.0, 1.0, -7.7, -7.7)" width="58.4" xlink:href="#sprite0"/>
    <use height="43.0" transform="matrix(-0.5846, 0.8088, -0.8088, -0.5846, 51.45, 16.65)" width="43.0" xlink:href="#sprite2"/>
  </g>
  <defs>
    <g id="sprite0" transform="matrix(1.0, 0.0, 0.0, 1.0, 0.0, 0.0)">
      <use height="58.4" transform="matrix(1.0, 0.0, 0.0, 1.0, 0.0, 0.0)" width="58.4" xlink:href="#sprite1"/>
    </g>
    <g id="sprite1" transform="matrix(1.0, 0.0, 0.0, 1.0, 0.0, 0.0)">
      <use height="58.4" transform="matrix(1.0, 0.0, 0.0, 1.0, 0.0, 0.0)" width="58.4" xlink:href="#shape0"/>
    </g>
    <g id="shape0" transform="matrix(1.0, 0.0, 0.0, 1.0, 0.0, 0.0)">
      <path d="M58.4 29.2 Q58.4 41.3 49.85 49.8 41.3 58.4 29.2 58.4 17.1 58.4 8.55 49.8 0.0 41.3 0.0 29.2 0.0 17.1 8.55 8.5 17.1 0.0 29.2 0.0 41.3 0.0 49.85 8.5 58.4 17.1 58.4 29.2" fill="url(#gradient0)" fill-rule="evenodd" stroke="none"/>
    </g>
    <radialGradient cx="0" cy="0" gradientTransform="matrix(0.0364, 0.0, 0.0, 0.0364, 29.2, 29.2)" gradientUnits="userSpaceOnUse" id="gradient0" r="819.2" spreadMethod="pad">
      <stop offset="0.09803921568627451" stop-color="#ffffff" stop-opacity="0.0"/>
      <stop offset="0.5411764705882353" stop-color="#ffffff" stop-opacity="0.0"/>
      <stop offset="0.6784313725490196" stop-color="#ffffff" stop-opacity="0.0"/>
      <stop offset="0.8392156862745098" stop-color="#ffffff" stop-opacity="0.0"/>
    </radialGradient>
    <g id="sprite2" transform="matrix(1.0, 0.0, 0.0, 1.0, 0.0, 0.0)">
      <use height="43.0" transform="matrix(1.0, 0.0, 0.0, 1.0, 0.0, 0.0)" width="43.0" xlink:href="#shape1"/>
    </g>
    <g id="shape1" transform="matrix(1.0, 0.0, 0.0, 1.0, 0.0, 0.0)">
      <path d="M37.05 36.4 L36.7 36.7 Q34.4 39.0 31.75 40.5 32.65 39.8 32.0 38.7 31.3 37.6 29.65 38.25 32.35 36.9 34.65 34.6 L34.95 34.3 37.05 36.4" fill="#006699" fill-opacity="0.0" fill-rule="evenodd" stroke="none"/>
      <path d="M31.75 40.5 L31.2 40.8 31.15 40.8 Q26.8 43.0 21.5 43.0 18.05 43.0 15.0 42.05 L13.0 41.35 11.6 40.65 12.7 37.8 Q16.7 40.05 21.65 40.05 26.0 40.05 29.65 38.25 31.3 37.6 32.0 38.7 32.65 39.8 31.75 40.5" fill="#ffffff" fill-rule="evenodd" stroke="none"/>
      <path d="M11.6 40.65 Q8.75 39.15 6.3 36.7 4.8 35.2 3.65 33.55 L5.8 31.1 Q6.95 32.95 8.6 34.6 10.5 36.5 12.7 37.8 L11.6 40.65" fill="#ffffff" fill-opacity="0.8627451" fill-rule="evenodd" stroke="none"/>
      <path d="M3.65 33.55 L2.95 32.45 2.9 32.35 Q1.45 29.95 0.75 27.25 L0.7 27.1 3.4 24.35 Q3.9 28.0 5.8 31.1 L3.65 33.55" fill="#ffffff" fill-opacity="0.72156864" fill-rule="evenodd" stroke="none"/>
      <path d="M0.7 27.1 Q0.0 24.45 0.0 21.5 0.0 19.5 0.35 17.65 L3.6 17.65 Q3.2 19.55 3.2 21.6 L3.4 24.35 0.7 27.1" fill="#ffffff" fill-opacity="0.6313726" fill-rule="evenodd" stroke="none"/>
      <path d="M0.35 17.65 Q1.35 11.7 5.6 7.1 L7.85 9.35 Q5.25 12.25 4.1 15.75 L3.9 16.4 3.6 17.65 0.35 17.65" fill="#ffffff" fill-opacity="0.53333336" fill-rule="evenodd" stroke="none"/>
      <path d="M5.6 7.1 L5.6 7.05 6.3 6.3 Q9.1 3.5 12.5 1.95 L14.9 4.4 Q11.45 5.7 8.6 8.55 L7.85 9.35 5.6 7.1" fill="#ffffff" fill-opacity="0.37254903" fill-rule="evenodd" stroke="none"/>
      <path d="M12.5 1.95 Q16.6 0.0 21.5 0.0 L23.3 0.1 23.3 3.25 21.65 3.15 Q18.05 3.15 14.9 4.4 L12.5 1.95" fill="#ffffff" fill-opacity="0.28235295" fill-rule="evenodd" stroke="none"/>
      <path d="M23.3 0.1 Q28.55 0.45 32.85 3.2 L30.6 5.45 Q27.3 3.55 23.3 3.25 L23.3 0.1" fill="#ffffff" fill-opacity="0.18039216" fill-rule="evenodd" stroke="none"/>
      <path d="M32.85 3.2 L32.95 3.25 Q34.9 4.5 36.7 6.3 L37.75 7.4 35.6 9.55 34.65 8.55 Q32.75 6.65 30.6 5.45 L32.85 3.2" fill="#ffffff" fill-opacity="0.09019608" fill-rule="evenodd" stroke="none"/>
      <path d="M37.75 7.4 Q41.15 11.25 42.35 16.05 L39.3 16.1 Q38.2 12.5 35.6 9.55 L37.75 7.4" fill="#ffffff" fill-opacity="0.043137256" fill-rule="evenodd" stroke="none"/>
      <path d="M42.35 16.05 L42.9 19.25 42.9 19.3 43.0 20.6 43.0 21.5 42.95 23.25 42.65 25.55 Q42.2 28.1 41.15 30.45 L41.1 30.55 Q39.6 33.7 37.05 36.4 L34.95 34.3 Q37.6 31.55 38.9 28.2 39.75 25.85 40.0 23.25 L40.05 21.6 Q40.05 18.7 39.3 16.1 L42.35 16.05" fill="#ffffff" fill-opacity="0.011764706" fill-rule="evenodd" stroke="none"/>
    </g>
  </defs>
</svg>
