<?xml version="1.0" encoding="UTF-8" standalone="no"?>
<svg xmlns:xlink="http://www.w3.org/1999/xlink" height="194.0px" width="536.95px" xmlns="http://www.w3.org/2000/svg">
  <g transform="matrix(1.0, 0.0, 0.0, 1.0, 0.0, 0.0)">
    <path d="M8.0 9.0 L71.4 0.0 536.95 0.0 536.95 9.0 8.0 9.0 M536.95 183.0 L536.95 194.0 52.95 194.0 52.95 183.0 536.95 183.0 M0.0 67.05 L12.1 64.1 12.35 67.05 0.0 67.05" fill="#1e1e1e" fill-rule="evenodd" stroke="none"/>
    <path d="M8.0 9.0 L536.95 9.0 536.95 183.0 52.95 183.0 21.0 183.0 20.55 177.0 12.35 67.05 12.1 64.1 8.0 9.0" fill="#333333" fill-rule="evenodd" stroke="none"/>
    <path d="M20.55 177.0 L11.85 177.0 0.0 67.05 12.35 67.05 20.55 177.0" fill="#3c3c3c" fill-rule="evenodd" stroke="none"/>
  </g>
</svg>
