<?xml version="1.0" encoding="UTF-8" standalone="no"?>
<svg xmlns:xlink="http://www.w3.org/1999/xlink" height="1106.25px" width="664.05px" xmlns="http://www.w3.org/2000/svg">
  <g transform="matrix(1.0, 0.0, 0.0, 1.0, 0.0, 0.0)">
    <path d="M658.05 446.7 L655.7 455.8 Q651.4 472.0 637.7 516.0 635.0 524.9 626.1 542.75 L609.7 574.0 Q604.55 583.6 599.7 609.3 597.75 619.65 596.75 626.5 591.55 606.8 580.95 587.05 L584.75 579.65 599.0 553.4 Q616.75 520.65 623.7 498.0 630.9 474.4 646.25 458.1 649.3 454.85 658.05 446.7 M219.85 1106.25 L209.8 1106.25 Q185.65 962.3 194.35 884.15 200.75 826.65 196.1 794.65 194.2 781.5 190.4 772.65 174.6 733.1 174.3 681.1 L181.35 703.8 192.0 738.6 Q197.35 754.85 202.45 764.85 208.45 776.55 216.6 785.1 219.4 788.0 223.9 791.05 231.7 796.25 244.75 801.7 L248.35 813.25 Q238.6 813.65 231.85 815.35 221.8 817.95 215.6 824.15 202.6 837.15 202.6 873.1 202.6 896.2 202.85 898.3 203.4 903.75 208.6 939.1 209.2 943.9 212.1 953.25 214.65 961.65 215.6 973.1 L217.5 984.45 Q219.15 993.8 219.6 1005.1 L220.15 1020.8 Q220.6 1038.2 220.6 1064.6 220.6 1092.05 219.85 1106.25 M187.2 611.25 Q176.6 596.85 176.6 594.0 176.6 587.4 192.8 567.25 196.7 562.45 211.8 545.0 L202.4 584.15 Q193.35 597.8 187.2 611.25 M200.9 521.85 Q164.65 480.95 129.0 465.0 76.15 441.4 44.7 419.0 L56.15 425.15 Q73.3 433.85 96.7 442.9 109.6 447.85 129.6 455.0 143.65 460.2 153.5 466.45 156.45 468.35 173.6 481.0 187.3 491.05 191.5 495.15 201.6 505.0 201.6 514.0 L201.7 516.35 Q201.65 519.05 201.1 521.65 L200.9 521.85 M22.0 291.55 Q53.25 221.75 122.65 138.0 138.0 77.85 224.65 48.0 L226.25 56.35 Q215.65 66.9 197.7 79.75 166.15 102.35 152.6 113.0 145.2 118.8 140.45 131.5 136.2 142.8 137.3 151.1 L136.65 151.15 134.6 151.0 Q131.75 151.0 108.6 179.0 86.55 205.7 57.45 244.05 37.6 270.2 22.0 291.55 M237.65 48.0 L314.7 36.0 Q336.65 16.55 335.8 0.0 L344.1 0.0 Q340.45 20.05 335.0 31.3 326.2 49.5 309.6 54.0 293.85 58.25 265.75 61.05 L239.4 63.0 Q238.35 55.55 237.65 48.0 M445.85 37.6 L506.7 49.0 Q504.55 96.05 492.7 135.4 L492.45 136.3 491.5 139.25 Q491.05 137.1 490.7 134.05 L490.6 132.85 Q490.15 128.5 489.95 122.6 489.7 116.2 489.7 100.5 489.7 92.1 490.8 79.55 492.1 65.05 493.7 62.0 L478.7 56.0 473.7 56.0 Q470.2 54.3 463.5 49.6 L455.7 44.0 Q450.55 41.85 448.05 39.95 446.75 38.95 445.85 37.6 M519.7 49.95 Q563.2 53.0 590.75 88.0 L616.7 169.45 Q604.9 145.35 595.55 129.7 561.8 73.1 529.7 65.0 529.5 65.85 520.95 82.8 L516.65 91.35 Q519.75 70.3 519.7 49.95 M343.15 275.0 L357.05 290.2 363.8 297.35 377.6 311.55 Q381.1 315.0 381.6 315.0 387.3 315.0 403.05 304.3 L403.7 304.6 Q393.5 325.3 382.35 349.4 L379.7 355.1 Q367.7 326.45 356.75 302.95 349.75 287.9 343.15 275.0 M331.8 196.05 Q337.85 193.25 345.2 188.0 L349.05 185.15 359.45 176.45 360.35 175.6 363.75 172.5 Q371.2 165.5 376.55 158.95 381.6 152.8 383.05 149.15 L383.45 149.3 Q380.6 155.1 375.1 168.1 L370.3 178.9 370.0 179.5 367.55 184.05 Q363.2 191.45 358.0 194.95 354.6 197.25 350.4 198.25 L346.05 198.9 343.6 199.0 Q337.35 199.0 333.85 197.0 332.9 196.45 331.8 196.05 M395.05 190.9 L393.85 186.35 Q392.5 180.3 391.6 171.0 L394.45 174.65 Q398.75 180.35 405.7 186.0 L406.3 186.5 407.45 187.5 412.5 191.7 Q425.15 202.4 429.7 207.0 L416.7 207.0 Q409.7 208.0 404.6 204.85 L404.35 204.7 Q398.35 200.75 395.05 190.9" fill="#111111" fill-rule="evenodd" stroke="none"/>
    <path d="M616.7 169.45 L617.8 173.0 Q651.45 286.75 658.55 408.1 L661.6 411.5 664.05 414.25 662.55 425.0 Q660.9 434.8 658.05 446.7 649.3 454.85 646.25 458.1 630.9 474.4 623.7 498.0 616.75 520.65 599.0 553.4 L584.75 579.65 580.95 587.05 Q571.8 570.1 558.75 553.1 552.55 547.9 546.75 541.7 547.4 532.95 548.55 521.35 L553.7 471.0 Q556.75 441.45 559.4 430.2 562.85 415.5 569.7 408.95 531.55 294.5 515.75 180.05 L509.5 176.0 506.75 174.25 496.1 167.3 Q499.0 159.85 501.5 152.45 L502.2 150.4 Q512.4 120.2 516.65 91.35 L520.95 82.8 Q529.5 65.85 529.7 65.0 561.8 73.1 595.55 129.7 604.9 145.35 616.7 169.45 M285.6 1106.25 L219.85 1106.25 Q220.6 1092.05 220.6 1064.6 220.6 1038.2 220.15 1020.8 L219.6 1005.1 Q219.15 993.8 217.5 984.45 L215.6 973.1 Q214.65 961.65 212.1 953.25 209.2 943.9 208.6 939.1 203.4 903.75 202.85 898.3 202.6 896.2 202.6 873.1 202.6 837.15 215.6 824.15 221.8 817.95 231.85 815.35 238.6 813.65 248.35 813.25 258.6 847.15 267.95 885.75 249.25 968.85 285.6 1106.25 M174.3 681.1 L174.4 669.6 Q174.1 659.1 175.75 648.4 211.7 701.45 240.6 788.85 L244.75 801.7 Q231.7 796.25 223.9 791.05 219.4 788.0 216.6 785.1 208.45 776.55 202.45 764.85 197.35 754.85 192.0 738.6 L181.35 703.8 174.3 681.1 M211.8 545.0 L213.7 537.05 Q207.35 529.15 201.05 522.0 L200.9 521.85 201.1 521.65 Q201.65 519.05 201.7 516.35 L201.6 514.0 Q201.6 505.0 191.5 495.15 187.3 491.05 173.6 481.0 156.45 468.35 153.5 466.45 143.65 460.2 129.6 455.0 109.6 447.85 96.7 442.9 73.3 433.85 56.15 425.15 L44.7 419.0 Q30.5 408.9 20.65 399.05 -8.7 366.3 3.65 343.05 10.0 318.35 22.0 291.55 37.6 270.2 57.45 244.05 86.55 205.7 108.6 179.0 131.75 151.0 134.6 151.0 L136.65 151.15 137.3 151.1 Q136.2 142.8 140.45 131.5 145.2 118.8 152.6 113.0 166.15 102.35 197.7 79.75 215.65 66.9 226.25 56.35 235.2 100.65 252.85 143.65 L255.8 150.65 256.8 153.0 254.8 153.0 248.0 153.0 223.7 153.0 190.65 184.0 Q151.2 269.6 84.65 348.0 L111.65 363.05 Q190.65 420.15 249.7 475.1 266.05 477.8 263.85 495.3 252.8 520.9 238.0 539.75 238.6 553.9 240.1 574.25 242.6 607.7 242.6 611.5 242.6 622.05 240.6 625.4 238.85 628.3 229.6 639.0 226.9 642.55 220.35 645.55 L215.9 647.35 Q204.7 634.15 193.4 619.45 L187.2 611.25 Q193.35 597.8 202.4 584.15 L211.8 545.0 M344.1 0.0 L409.3 0.0 Q406.1 17.0 426.75 34.0 L445.85 37.6 Q446.75 38.95 448.05 39.95 450.55 41.85 455.7 44.0 L463.5 49.6 Q470.2 54.3 473.7 56.0 L478.7 56.0 493.7 62.0 Q492.1 65.05 490.8 79.55 489.7 92.1 489.7 100.5 489.7 116.2 489.95 122.6 490.15 128.5 490.6 132.85 L490.7 134.05 Q491.05 137.1 491.5 139.25 479.95 175.65 459.9 205.3 L457.55 208.75 Q443.55 228.6 425.85 261.5 L422.15 268.35 Q413.6 284.5 404.2 303.55 L403.7 304.6 403.05 304.3 Q387.3 315.0 381.6 315.0 381.1 315.0 377.6 311.55 L363.8 297.35 357.05 290.2 343.15 275.0 339.1 267.15 335.9 261.15 Q319.45 230.6 305.85 214.3 285.3 189.65 270.85 162.1 265.4 151.75 260.85 141.05 L258.55 135.55 Q244.75 101.3 239.4 63.0 L265.75 61.05 Q293.85 58.25 309.6 54.0 326.2 49.5 335.0 31.3 340.45 20.05 344.1 0.0 M331.8 196.05 Q332.9 196.45 333.85 197.0 337.35 199.0 343.6 199.0 L346.05 198.9 350.4 198.25 Q354.6 197.25 358.0 194.95 363.2 191.45 367.55 184.05 L370.0 179.5 370.3 178.9 375.1 168.1 Q380.6 155.1 383.45 149.3 L383.05 149.15 Q381.6 152.8 376.55 158.95 371.2 165.5 363.75 172.5 L360.35 175.6 359.45 176.45 349.05 185.15 345.2 188.0 Q337.85 193.25 331.8 196.05 M395.05 190.9 Q398.35 200.75 404.35 204.7 L404.6 204.85 Q409.7 208.0 416.7 207.0 L429.7 207.0 Q425.15 202.4 412.5 191.7 L407.45 187.5 406.3 186.5 405.7 186.0 Q398.75 180.35 394.45 174.65 L391.6 171.0 Q392.5 180.3 393.85 186.35 L395.05 190.9" fill="#000000" fill-rule="evenodd" stroke="none"/>
    <path d="M596.75 626.5 Q602.4 647.85 601.75 669.1 L601.8 669.65 Q602.4 695.7 599.35 718.8 L596.95 733.6 Q593.25 738.9 589.0 743.75 584.1 749.3 578.45 754.25 569.0 762.6 552.7 773.1 529.75 788.1 499.4 796.7 473.0 804.2 449.45 803.65 464.5 809.6 483.85 813.45 L517.9 819.2 Q535.25 822.35 543.3 826.95 553.7 832.85 555.7 844.1 557.85 855.9 564.35 869.85 570.95 884.05 573.7 898.1 L577.65 916.8 Q581.55 935.35 584.45 952.7 590.5 988.85 592.6 1020.0 591.9 1050.1 589.75 1083.9 L588.2 1106.25 436.9 1106.25 Q411.45 986.05 402.85 851.55 L397.7 866.2 Q393.25 986.2 374.95 1106.25 L285.6 1106.25 Q249.25 968.85 267.95 885.75 258.6 847.15 248.35 813.25 L254.6 813.1 Q259.1 813.1 290.6 818.1 296.6 818.1 298.6 817.1 278.25 814.55 252.6 804.8 L244.75 801.7 240.6 788.85 Q211.7 701.45 175.75 648.4 178.55 630.1 187.2 611.25 L193.4 619.45 Q204.7 634.15 215.9 647.35 L220.35 645.55 Q226.9 642.55 229.6 639.0 238.85 628.3 240.6 625.4 242.6 622.05 242.6 611.5 242.6 607.7 240.1 574.25 238.6 553.9 238.0 539.75 252.8 520.9 263.85 495.3 273.45 473.1 280.25 445.8 292.45 396.45 295.45 330.55 L295.7 316.3 Q295.75 287.9 292.55 262.5 L291.05 252.25 Q283.4 203.9 263.15 166.9 L262.65 166.0 256.8 153.0 255.8 150.65 252.85 143.65 Q235.2 100.65 226.25 56.35 L224.65 48.0 237.65 48.0 Q238.35 55.55 239.4 63.0 244.75 101.3 258.55 135.55 L260.85 141.05 Q265.4 151.75 270.85 162.1 285.3 189.65 305.85 214.3 305.75 236.6 308.5 259.05 L309.65 267.3 Q313.3 291.95 320.45 316.8 339.75 383.85 384.7 452.1 L393.5 438.1 Q439.6 361.35 452.75 264.85 L453.7 257.5 Q456.6 233.7 457.55 208.75 L459.9 205.3 Q479.95 175.65 491.5 139.25 L492.45 136.3 492.7 135.4 Q504.55 96.05 506.7 49.0 L519.7 49.95 Q519.75 70.3 516.65 91.35 512.4 120.2 502.2 150.4 L501.5 152.45 Q499.0 159.85 496.1 167.3 L489.7 183.0 Q483.6 195.65 479.35 210.9 474.55 228.0 472.05 248.35 471.55 252.25 471.2 256.3 467.7 291.55 470.7 336.05 481.7 409.4 500.5 460.55 519.6 512.6 546.75 541.7 552.55 547.9 558.75 553.1 571.8 570.1 580.95 587.05 591.55 606.8 596.75 626.5 M312.8 497.55 L303.4 512.85 304.7 515.3 Q306.6 519.6 306.6 527.0 306.6 537.0 288.95 544.65 281.9 547.7 276.05 549.35 L270.6 555.0 270.95 555.9 309.05 543.1 Q321.25 539.25 327.4 538.4 332.25 537.75 342.1 538.25 L349.2 538.6 Q360.25 539.0 369.6 539.0 L385.05 538.95 Q397.4 538.6 398.5 537.3 L396.6 537.0 398.6 537.0 398.5 537.3 406.1 538.35 415.2 539.75 Q444.35 544.2 464.05 548.9 485.15 553.85 506.7 562.0 479.05 530.7 409.95 527.45 L404.7 527.25 Q401.0 527.1 397.0 527.1 385.2 526.95 370.75 527.45 L358.55 527.95 Q328.65 529.4 322.6 529.0 333.25 524.4 336.65 521.55 337.7 521.0 340.15 520.95 L350.1 521.0 371.55 521.5 380.4 521.7 361.35 516.75 342.6 511.0 Q337.25 509.4 333.65 504.55 330.35 500.1 326.3 497.85 L326.0 498.45 Q326.6 499.4 326.6 501.0 326.6 502.35 325.35 504.0 L322.6 507.25 Q318.6 512.15 318.6 518.0 L317.25 518.15 Q316.6 518.35 316.6 519.0 L314.6 519.0 314.1 507.25 313.6 498.0 312.8 497.55 M439.2 492.2 L422.7 491.0 Q421.55 491.0 414.7 492.5 408.4 493.9 401.7 494.0 404.65 494.5 422.5 500.8 L472.7 519.0 472.7 513.0 Q464.2 496.05 439.2 492.2" fill="#800000" fill-rule="evenodd" stroke="none"/>
    <path d="M496.1 167.3 L506.75 174.25 Q507.15 178.2 507.15 182.4 507.15 215.15 483.95 238.35 L479.8 242.25 473.05 247.65 472.05 248.35 Q474.55 228.0 479.35 210.9 483.6 195.65 489.7 183.0 L496.1 167.3 M305.85 214.3 Q319.45 230.6 335.9 261.15 L339.1 267.15 343.15 275.0 Q349.75 287.9 356.75 302.95 367.7 326.45 379.7 355.1 L382.35 349.4 Q393.5 325.3 403.7 304.6 L404.2 303.55 Q413.6 284.5 422.15 268.35 L425.85 261.5 Q443.55 228.6 457.55 208.75 456.6 233.7 453.7 257.5 L452.75 264.85 Q439.6 361.35 393.5 438.1 L384.7 452.1 Q339.75 383.85 320.45 316.8 313.3 291.95 309.65 267.3 L308.5 259.05 Q305.75 236.6 305.85 214.3 M254.8 153.0 L256.8 153.0 262.65 166.0 263.15 166.9 Q283.4 203.9 291.05 252.25 281.15 246.85 272.55 238.25 249.4 215.05 249.4 182.3 249.4 166.5 254.8 153.0" fill="#a90101" fill-rule="evenodd" stroke="none"/>
    <path d="M312.8 497.55 L313.6 498.0 314.1 507.25 314.6 519.0 316.6 519.0 Q316.6 518.35 317.25 518.15 L318.6 518.0 Q318.6 512.15 322.6 507.25 L325.35 504.0 Q326.6 502.35 326.6 501.0 326.6 499.4 326.0 498.45 L326.3 497.85 Q330.35 500.1 333.65 504.55 337.25 509.4 342.6 511.0 L361.35 516.75 380.4 521.7 371.55 521.5 350.1 521.0 340.15 520.95 Q337.7 521.0 336.65 521.55 333.25 524.4 322.6 529.0 328.65 529.4 358.55 527.95 L370.75 527.45 Q385.2 526.95 397.0 527.1 401.0 527.1 404.7 527.25 L409.95 527.45 Q479.05 530.7 506.7 562.0 485.15 553.85 464.05 548.9 444.35 544.2 415.2 539.75 L406.1 538.35 398.5 537.3 398.6 537.0 396.6 537.0 398.5 537.3 Q397.4 538.6 385.05 538.95 L369.6 539.0 Q360.25 539.0 349.2 538.6 L342.1 538.25 Q332.25 537.75 327.4 538.4 321.25 539.25 309.05 543.1 L270.95 555.9 270.6 555.0 276.05 549.35 Q281.9 547.7 288.95 544.65 306.6 537.0 306.6 527.0 306.6 519.6 304.7 515.3 L303.4 512.85 312.8 497.55 M439.2 492.2 Q464.2 496.05 472.7 513.0 L472.7 519.0 422.5 500.8 Q404.65 494.5 401.7 494.0 408.4 493.9 414.7 492.5 421.55 491.0 422.7 491.0 L439.2 492.2 M596.95 733.6 L594.9 743.0 Q591.3 758.35 585.75 772.15 572.6 799.95 585.85 883.55 594.5 938.5 592.6 1020.0 590.5 988.85 584.45 952.7 581.55 935.35 577.65 916.8 L573.7 898.1 Q570.95 884.05 564.35 869.85 557.85 855.9 555.7 844.1 553.7 832.85 543.3 826.95 535.25 822.35 517.9 819.2 L483.85 813.45 Q464.5 809.6 449.45 803.65 473.0 804.2 499.4 796.7 529.75 788.1 552.7 773.1 569.0 762.6 578.45 754.25 584.1 749.3 589.0 743.75 593.25 738.9 596.95 733.6 M244.75 801.7 L252.6 804.8 Q278.25 814.55 298.6 817.1 296.6 818.1 290.6 818.1 259.1 813.1 254.6 813.1 L248.35 813.25 244.75 801.7" fill="#6d0101" fill-rule="evenodd" stroke="none"/>
    <path d="M599.35 718.8 L599.15 730.25 599.05 742.45 Q597.95 924.35 633.45 1106.25 L588.2 1106.25 589.75 1083.9 Q591.9 1050.1 592.6 1020.0 594.5 938.5 585.85 883.55 572.6 799.95 585.75 772.15 591.3 758.35 594.9 743.0 L596.95 733.6 599.35 718.8 M436.9 1106.25 L374.95 1106.25 Q393.25 986.2 397.7 866.2 L402.85 851.55 Q411.45 986.05 436.9 1106.25" fill="#800000" fill-opacity="0.7607843" fill-rule="evenodd" stroke="none"/>
    <path d="M506.75 174.25 L509.5 176.0 Q510.05 180.9 510.05 186.05 510.05 220.2 485.9 244.35 L481.55 248.45 Q478.1 251.45 474.5 254.05 L471.2 256.3 Q471.55 252.25 472.05 248.35 L473.05 247.65 479.8 242.25 483.95 238.35 Q507.15 215.15 507.15 182.4 507.15 178.2 506.75 174.25 M248.0 153.0 L254.8 153.0 Q249.4 166.5 249.4 182.3 249.4 215.05 272.55 238.25 281.15 246.85 291.05 252.25 L292.55 262.5 Q277.75 256.45 265.55 244.25 241.4 220.1 241.4 185.95 241.4 168.1 248.0 153.0" fill="#ca0202" fill-rule="evenodd" stroke="none"/>
  </g>
</svg>
