<?xml version="1.0" encoding="UTF-8" standalone="no"?>
<svg xmlns:xlink="http://www.w3.org/1999/xlink" height="440.45px" width="326.0px" xmlns="http://www.w3.org/2000/svg">
  <g transform="matrix(1.0, 0.0, 0.0, 1.0, 0.0, 0.0)">
    <path d="M174.0 67.0 Q173.5 63.0 165.5 63.0 158.3 63.0 143.95 71.05 129.0 79.45 129.0 85.0 129.0 92.0 132.55 95.65 135.4 98.6 142.45 100.75 L157.6 104.95 Q168.2 108.2 177.0 113.0 182.2 115.9 184.05 120.25 186.6 126.4 188.0 128.0 L207.65 150.3 Q215.55 160.1 219.15 166.95 L222.0 163.0 Q222.0 155.95 212.0 141.85 L205.15 131.9 Q202.0 126.8 202.0 124.0 L203.0 114.5 204.0 105.0 Q204.0 99.0 199.15 95.7 196.25 93.75 188.5 91.5 180.75 89.25 177.85 87.3 173.0 84.0 173.0 78.0 173.0 75.65 173.6 71.7 174.15 68.25 174.0 67.0 M253.0 119.0 Q252.35 115.5 251.0 112.0 248.35 105.0 245.0 105.0 241.0 106.8 237.0 110.05 229.0 116.45 229.0 123.5 229.0 135.3 232.55 148.1 234.95 156.7 241.15 172.25 248.7 191.15 251.7 199.9 L253.55 205.5 Q256.0 195.65 256.0 193.5 256.0 186.55 248.5 167.05 L241.0 148.5 Q241.0 137.85 247.0 128.95 248.5 126.75 251.15 123.3 253.0 120.65 253.0 119.0 M104.75 13.1 Q145.55 0.0 175.0 0.0 213.15 0.0 236.0 9.05 257.0 17.35 257.0 29.5 257.0 30.75 256.0 35.25 255.0 39.75 255.0 41.0 255.0 43.05 257.95 44.9 L264.5 48.3 Q274.0 53.15 274.0 59.5 274.0 65.1 268.05 71.7 L266.3 73.4 268.65 77.8 Q273.0 87.5 273.0 100.0 L270.5 137.15 Q268.0 175.3 268.0 181.5 268.0 205.1 274.7 223.65 279.35 236.35 289.5 251.5 301.6 269.55 304.3 275.0 311.0 288.65 311.0 304.0 311.0 327.15 307.0 357.55 305.0 372.75 303.0 384.0 303.0 391.25 312.85 399.75 L320.55 405.95 Q324.7 409.25 326.0 411.0 324.7 410.85 320.0 412.9 L315.0 415.0 Q316.0 415.0 316.0 416.0 319.65 417.4 320.7 419.3 321.2 420.25 321.0 421.0 321.0 426.35 305.4 433.1 293.55 437.65 287.2 440.45 L287.0 440.0 282.9 435.9 Q279.0 431.9 279.0 431.5 279.0 428.15 281.15 427.4 L286.0 426.0 Q284.95 424.3 282.9 422.5 L281.0 421.0 Q284.4 420.85 288.0 419.0 L294.0 416.0 294.15 415.5 294.25 415.4 Q294.5 415.0 295.0 415.0 L294.6 414.75 Q291.65 412.8 286.4 411.6 285.05 411.25 284.55 410.4 284.0 409.35 284.0 406.5 284.0 402.8 285.9 398.05 L290.0 387.35 Q296.0 368.95 296.0 335.5 296.0 314.55 286.3 292.05 278.05 272.95 261.65 250.35 250.3 234.75 228.65 209.3 201.8 177.8 194.0 168.0 180.5 151.0 164.75 141.4 L152.75 134.35 150.85 133.1 150.5 133.2 Q136.05 137.0 128.0 137.0 117.65 137.0 105.75 128.5 L97.15 122.65 Q92.35 120.0 88.0 120.0 86.3 120.0 76.15 126.5 65.95 133.0 62.5 133.0 61.5 133.0 52.5 128.9 44.0 125.05 38.0 122.0 27.6 116.6 17.75 111.95 L6.3 106.6 Q2.35 104.65 1.15 103.4 0.0 102.2 0.0 100.0 0.0 90.75 10.7 87.6 17.25 85.7 36.0 83.0 36.0 82.05 35.0 80.7 34.0 79.3 34.0 78.0 34.0 71.8 47.3 51.45 59.2 33.2 62.0 31.0 65.35 28.35 76.8 23.45 89.55 18.0 104.75 13.1" fill="#ffffff" fill-opacity="0.9411765" fill-rule="evenodd" stroke="none"/>
  </g>
</svg>
