<?xml version="1.0" encoding="UTF-8" standalone="no"?>
<svg xmlns:xlink="http://www.w3.org/1999/xlink" height="580.85px" width="618.5px" xmlns="http://www.w3.org/2000/svg">
  <g transform="matrix(1.0, 0.0, 0.0, 1.0, 59.4, 140.4)">
    <path d="M271.65 120.35 L270.5 137.15 Q268.0 175.3 268.0 181.5 L268.2 189.7 270.1 189.2 Q275.8 187.8 275.8 187.3 275.8 185.7 285.3 182.6 294.75 179.5 294.75 176.8 294.75 174.75 313.55 161.65 L326.85 152.4 Q318.15 134.8 271.65 120.35 M203.0 114.5 L204.0 105.0 204.0 104.3 Q173.8 98.45 134.75 92.35 L130.05 91.65 Q130.95 94.0 132.55 95.65 135.4 98.6 142.45 100.75 L157.6 104.95 Q168.2 108.2 177.0 113.0 182.2 115.9 184.05 120.25 186.6 126.4 188.0 128.0 L207.65 150.3 Q215.55 160.1 219.15 166.95 L222.0 163.0 Q222.0 155.95 212.0 141.85 L205.15 131.9 Q202.0 126.8 202.0 124.0 L203.0 114.5 M237.0 110.05 L235.9 110.95 236.75 111.15 237.0 110.05 M86.8 -140.4 Q89.6 -140.4 113.95 -136.2 L167.45 -126.9 Q225.45 -117.05 253.0 -114.4 279.75 -102.0 310.65 -88.8 349.7 -72.2 419.65 -43.3 454.25 -28.45 476.85 -16.65 486.0 -25.7 486.0 -31.1 486.0 -50.25 476.35 -62.25 L469.65 -69.9 Q466.65 -73.75 466.65 -77.4 466.65 -79.35 480.55 -84.8 488.2 -87.8 493.6 -89.15 L498.05 -90.1 514.65 -88.3 Q541.2 -85.3 558.75 -85.3 L558.95 -83.3 559.1 -80.05 548.35 -68.1 Q537.55 -55.7 537.55 -51.9 537.55 -50.0 535.85 -47.75 534.15 -45.5 534.15 -43.65 534.15 -36.75 537.45 -30.6 539.55 -26.6 544.65 -20.6 550.1 -14.25 551.85 -11.25 555.15 -5.75 555.15 0.0 555.15 2.2 548.5 12.05 538.0 27.1 530.4 38.4 L529.9 38.3 529.6 39.55 Q525.55 56.45 495.9 78.3 481.75 88.7 457.6 103.45 447.95 109.4 409.5 132.15 401.95 136.6 374.9 150.0 343.45 165.5 327.8 173.95 282.15 198.5 271.65 213.5 272.95 218.75 274.7 223.65 278.9 235.2 287.7 248.75 L289.5 251.5 Q301.6 269.55 304.3 275.0 311.0 288.65 311.0 304.0 311.0 327.15 307.0 357.55 305.0 372.75 303.0 384.0 303.0 391.25 312.85 399.75 L320.55 405.95 Q324.7 409.25 326.0 411.0 324.7 410.85 320.0 412.9 L315.0 415.0 Q316.0 415.0 316.0 416.0 319.65 417.4 320.7 419.3 321.2 420.25 321.0 421.0 321.0 426.35 305.4 433.1 293.55 437.65 287.2 440.45 L287.0 440.0 282.9 435.9 Q279.0 431.9 279.0 431.5 279.0 428.15 281.15 427.4 L286.0 426.0 Q284.95 424.3 282.9 422.5 L281.0 421.0 Q284.4 420.85 288.0 419.0 L294.0 416.0 294.15 415.5 294.25 415.4 Q294.5 415.0 295.0 415.0 L294.6 414.75 Q291.65 412.8 286.4 411.6 285.05 411.25 284.55 410.4 284.0 409.35 284.0 406.5 284.0 402.8 285.9 398.05 L290.0 387.35 Q296.0 368.95 296.0 335.5 296.0 314.55 286.3 292.05 278.05 272.95 261.65 250.35 250.3 234.75 228.65 209.3 201.8 177.8 194.0 168.0 180.5 151.0 164.75 141.4 L152.75 134.35 150.85 133.1 150.5 133.2 Q136.05 137.0 128.0 137.0 117.65 137.0 105.75 128.5 L97.15 122.65 Q92.35 120.0 88.0 120.0 86.3 120.0 76.15 126.5 65.95 133.0 62.5 133.0 61.5 133.0 52.5 128.9 44.0 125.05 38.0 122.0 27.6 116.6 17.75 111.95 L6.3 106.6 Q2.35 104.65 1.15 103.4 0.0 102.2 0.0 100.0 0.0 90.75 10.7 87.6 17.25 85.7 36.0 83.0 36.0 82.05 35.0 80.7 34.0 79.3 34.0 78.0 L34.1 76.9 1.25 71.05 Q-59.4 59.15 -59.4 46.65 -59.4 40.15 -55.05 30.15 -50.95 20.85 -44.45 11.45 -37.85 1.95 -31.35 -3.95 -24.3 -10.3 -19.5 -10.3 -8.55 -1.05 5.35 8.95 33.15 29.1 49.65 33.15 L58.45 35.2 Q60.9 31.85 62.0 31.0 65.35 28.35 76.8 23.45 89.55 18.0 104.75 13.1 145.55 0.0 175.0 0.0 213.15 0.0 236.0 9.05 257.0 17.35 257.0 29.5 257.0 30.75 256.0 35.25 255.0 39.75 255.0 41.0 255.0 43.05 257.95 44.9 L264.5 48.3 Q274.0 53.15 274.0 59.5 274.0 65.05 268.15 71.6 277.85 76.5 287.45 82.25 315.55 99.05 334.1 117.25 344.9 127.85 349.7 136.1 L375.4 114.65 Q402.55 91.9 402.55 91.5 402.55 87.05 399.85 80.15 397.1 73.3 397.1 71.8 399.95 70.1 418.05 62.95 434.8 55.35 434.8 49.85 434.8 31.95 408.35 23.45 401.0 21.05 387.2 18.25 L374.0 15.3 Q357.85 3.65 334.75 -5.25 310.15 -14.7 268.65 -23.95 219.95 -34.0 195.0 -39.75 151.25 -49.8 121.3 -61.3 123.7 -61.3 128.45 -63.0 134.6 -65.2 134.6 -68.05 134.6 -73.85 110.05 -77.1 L56.05 -82.6 Q20.15 -86.6 2.05 -93.05 -22.5 -101.85 -22.5 -117.0 -13.75 -123.1 4.3 -128.9 40.2 -140.4 86.8 -140.4" fill="#ffffff" fill-opacity="0.9411765" fill-rule="evenodd" stroke="none"/>
  </g>
</svg>
