<?xml version="1.0" encoding="UTF-8" standalone="no"?>
<svg xmlns:xlink="http://www.w3.org/1999/xlink" height="27.9px" width="22.95px" xmlns="http://www.w3.org/2000/svg">
  <g transform="matrix(1.0, 0.0, 0.0, 1.0, 11.45, 13.95)">
    <path d="M9.95 -4.6 L6.85 -8.0 7.6 -9.8 5.4 -13.65 5.4 -13.95 8.65 -13.4 Q9.45 -13.3 9.85 -12.6 10.3 -11.75 11.1 -11.5 L11.25 -11.45 11.35 -10.95 11.4 -10.75 11.2 -10.25 11.2 -10.05 11.2 -10.0 9.2 -8.2 Q9.4 -7.5 9.85 -6.95 L9.95 -4.7 9.95 -4.6 M-8.35 -12.3 L-5.9 -11.65 Q-2.75 -10.7 -2.75 -9.15 L-1.95 -9.05 Q-3.6 -9.05 -5.15 -7.9 -6.45 -6.95 -7.25 -5.55 L-7.25 -5.05 -7.55 -5.1 -7.4 -4.85 -7.35 -4.6 -7.4 -4.1 -7.15 -4.1 -7.1 -3.85 -7.4 -3.2 -8.3 -3.2 -8.4 -3.3 -8.7 -3.6 -8.65 -4.35 -9.05 -4.95 -9.05 -6.1 -8.55 -6.6 -8.5 -7.0 -8.85 -7.75 -9.65 -9.1 -9.85 -9.25 -10.05 -9.45 -10.05 -10.45 -10.0 -10.5 Q-9.45 -11.55 -8.3 -11.85 L-8.35 -12.3 M4.75 -0.6 L7.65 -1.85 Q8.9 -2.3 9.55 -2.7 L9.2 -2.1 9.2 -0.85 9.0 -0.8 8.8 -0.35 8.6 0.8 8.25 1.05 8.2 1.05 8.05 1.35 7.7 1.9 7.65 2.0 Q7.4 2.7 7.7 2.65 8.5 3.05 8.2 4.65 L7.45 5.65 7.35 6.15 7.1 6.4 6.6 6.8 6.35 6.8 5.95 7.3 5.3 7.5 Q4.3 7.15 3.95 6.15 L3.35 8.4 1.85 9.15 0.2 9.15 Q-0.05 8.1 -0.55 7.65 L-0.55 4.55 Q0.9 3.75 2.1 2.7 L2.55 2.35 3.45 1.5 3.95 1.0 4.85 -0.1 4.75 -0.6" fill="#1e1e1e" fill-rule="evenodd" stroke="none"/>
    <path d="M-10.55 10.6 L-10.5 9.4 -10.45 5.75 -10.4 5.3 -10.55 4.15 -10.65 3.65 -10.65 2.55 -10.75 1.55 -10.05 1.9 -9.7 1.95 -8.25 2.25 -7.4 2.3 -3.85 2.35 -3.6 2.35 -1.95 2.45 -1.3 2.4 -0.3 2.45 0.5 2.45 1.3 2.45 Q1.45 2.75 1.95 2.7 L2.1 2.7 Q0.9 3.75 -0.55 4.55 L-0.55 7.65 Q-0.05 8.1 0.2 9.15 L1.85 9.15 3.35 8.4 3.95 6.15 Q4.3 7.15 5.3 7.5 L5.95 7.3 6.35 6.8 6.6 6.8 7.1 6.4 7.35 6.15 7.45 5.65 7.65 5.9 8.15 6.3 8.4 6.5 Q8.5 6.95 8.7 7.05 L8.85 7.4 9.05 7.8 9.2 8.0 9.35 8.25 9.85 8.9 9.8 9.55 Q9.7 10.05 10.0 10.7 L9.85 10.8 9.55 10.95 8.95 11.1 8.35 11.2 Q7.75 11.1 7.65 11.65 L7.4 11.95 6.9 11.95 6.35 12.05 4.3 12.35 3.95 12.45 2.8 12.35 2.15 12.45 1.85 12.3 1.45 12.15 0.95 12.15 Q0.55 12.05 0.35 12.3 L-0.3 12.45 -1.15 12.5 -2.05 12.6 -2.35 12.55 -2.5 12.0 Q-2.7 11.75 -2.3 11.6 L-1.9 11.2 -2.0 10.85 -1.85 10.45 Q-1.65 9.85 -2.25 9.65 L-2.35 10.05 -2.35 10.55 Q-2.2 10.7 -2.4 10.85 L-2.45 11.2 -2.7 11.2 -3.35 11.15 Q-3.95 11.0 -3.95 11.5 L-3.3 12.15 -3.1 12.4 Q-3.15 12.75 -3.85 12.65 -4.1 12.5 -4.3 12.5 L-4.95 12.55 -5.6 12.65 -6.25 12.5 -6.5 12.25 -6.75 12.05 -7.25 11.65 Q-7.55 11.45 -7.7 11.65 L-8.05 11.85 -8.5 11.75 -8.95 11.65 -9.2 11.45 -9.45 11.0 Q-9.75 10.4 -10.55 10.6 M-11.05 0.5 L-10.85 -0.1 -10.85 -2.15 -10.95 -2.65 -10.95 -3.7 -11.05 -7.45 -11.1 -8.1 -11.2 -8.65 -11.25 -9.3 -11.25 -9.7 -10.7 -9.4 -9.85 -9.25 -9.65 -9.1 -8.85 -7.75 -8.5 -7.0 -8.55 -6.6 -9.05 -6.1 -9.05 -4.95 -8.65 -4.35 -8.7 -3.6 -8.4 -3.3 -8.3 -3.2 -7.4 -3.2 -7.1 -3.85 -7.15 -4.1 -7.4 -4.1 -7.35 -4.6 -7.4 -4.85 -7.55 -5.1 -7.25 -5.05 -6.85 -4.95 -6.65 -4.7 -6.55 -4.45 -5.8 -4.1 Q-6.35 -3.75 -6.55 -2.85 L-6.5 -2.35 -6.4 -2.1 -5.9 -1.85 -5.65 -1.6 -4.4 -1.7 Q-3.85 -2.3 -3.75 -3.1 L-4.05 -3.35 -3.5 -3.8 Q-3.25 -3.9 -3.3 -4.2 L-2.9 -4.2 -2.65 -4.2 -2.55 -2.1 -1.4 -1.85 0.45 -1.7 2.1 -3.6 Q2.75 -4.1 3.35 -4.1 L3.6 -4.45 3.6 -4.6 4.0 -5.0 4.1 -5.2 4.75 -1.75 4.65 -1.7 Q4.55 -1.35 4.75 -1.15 L4.5 -0.8 4.05 -0.5 3.65 0.0 3.6 0.3 3.75 0.65 3.95 1.0 3.45 1.5 3.15 1.6 -0.4 1.7 -0.8 1.7 -1.4 1.6 -2.15 1.55 -2.75 1.5 -3.3 1.5 -3.8 1.4 -5.05 1.4 -5.6 1.45 -6.25 1.35 -6.9 1.3 -7.5 1.25 -8.4 1.2 -8.8 1.25 -9.15 1.2 Q-9.45 0.9 -10.05 1.0 L-10.6 0.8 -11.05 0.5 M-11.3 -10.75 L-11.3 -11.0 -11.25 -11.3 -11.2 -12.4 -11.1 -12.75 -11.05 -13.15 -9.4 -13.35 -8.75 -13.0 -8.55 -12.8 -8.4 -12.7 -8.35 -12.3 -8.3 -11.85 Q-9.45 -11.55 -10.0 -10.5 L-10.05 -10.5 -10.35 -11.0 -10.8 -10.35 -11.0 -10.55 -11.3 -10.75" fill="#515151" fill-rule="evenodd" stroke="none"/>
    <path d="M11.2 -10.0 L11.1 -7.75 11.1 -7.45 11.05 -6.45 11.0 -6.15 11.0 -2.35 11.0 -1.55 11.15 -0.15 11.15 0.1 11.15 0.15 10.25 0.5 9.7 0.65 8.9 0.85 8.55 0.95 8.25 1.05 8.6 0.8 8.8 -0.35 9.0 -0.8 9.2 -0.85 9.2 -2.1 9.55 -2.7 9.95 -4.15 9.95 -4.6 9.95 -4.7 9.85 -6.95 Q9.4 -7.5 9.2 -8.2 L11.2 -10.0 M11.0 0.85 Q10.8 1.6 10.85 2.3 L10.9 4.0 10.95 5.45 11.0 7.2 11.0 8.5 11.0 8.65 11.1 9.3 11.05 9.35 10.85 9.6 10.75 10.1 10.25 10.65 10.0 10.7 Q9.7 10.05 9.8 9.55 L9.85 8.9 9.35 8.25 9.2 8.0 9.05 7.8 8.85 7.4 8.7 7.05 Q8.5 6.95 8.4 6.5 L8.15 6.3 7.65 5.9 7.45 5.65 8.2 4.65 Q8.5 3.05 7.7 2.65 7.4 2.7 7.65 2.0 L7.7 1.9 7.8 1.9 8.15 1.8 9.0 1.5 9.35 1.35 11.0 0.85 M4.75 -1.75 L4.75 -1.15 4.75 -0.6 4.85 -0.1 3.95 1.0 3.75 0.65 3.6 0.3 3.65 0.0 4.05 -0.5 4.5 -0.8 4.75 -1.15 Q4.55 -1.35 4.65 -1.7 L4.75 -1.75 M2.55 2.35 L2.1 2.7 1.95 2.7 Q1.45 2.75 1.3 2.45 L2.3 2.35 2.55 2.35" fill="#444444" fill-rule="evenodd" stroke="none"/>
    <path d="M11.15 0.15 L11.15 0.3 11.0 0.85 9.35 1.35 9.0 1.5 8.15 1.8 7.8 1.9 7.7 1.9 8.05 1.35 8.2 1.05 8.25 1.05 8.55 0.95 8.9 0.85 9.7 0.65 10.25 0.5 11.15 0.15 M11.05 9.35 L11.1 9.4 11.15 10.1 11.2 10.35 11.35 10.95 11.5 11.5 Q0.7 15.85 -10.4 12.5 L-10.65 11.85 -10.55 11.1 -10.55 10.6 Q-9.75 10.4 -9.45 11.0 L-9.2 11.45 -8.95 11.65 -8.5 11.75 -8.05 11.85 -7.7 11.65 Q-7.55 11.45 -7.25 11.65 L-6.75 12.05 -6.5 12.25 -6.25 12.5 -5.6 12.65 -4.95 12.55 -4.3 12.5 Q-4.1 12.5 -3.85 12.65 -3.15 12.75 -3.1 12.4 L-3.3 12.15 -3.95 11.5 Q-3.95 11.0 -3.35 11.15 L-2.7 11.2 -2.45 11.2 -2.4 10.85 Q-2.2 10.7 -2.35 10.55 L-2.35 10.05 -2.25 9.65 Q-1.65 9.85 -1.85 10.45 L-2.0 10.85 -1.9 11.2 -2.3 11.6 Q-2.7 11.75 -2.5 12.0 L-2.35 12.55 -2.05 12.6 -1.15 12.5 -0.3 12.45 0.35 12.3 Q0.55 12.05 0.95 12.15 L1.45 12.15 1.85 12.3 2.15 12.45 2.8 12.35 3.95 12.45 4.3 12.35 6.35 12.05 6.9 11.95 7.4 11.95 7.65 11.65 Q7.75 11.1 8.35 11.2 L8.95 11.1 9.55 10.95 9.85 10.8 10.0 10.7 10.25 10.65 10.75 10.1 10.85 9.6 11.05 9.35 M-10.75 1.55 L-10.85 1.35 Q-11.15 1.15 -11.05 0.5 L-10.6 0.8 -10.05 1.0 Q-9.45 0.9 -9.15 1.2 L-8.8 1.25 -8.4 1.2 -7.5 1.25 -6.9 1.3 -6.25 1.35 -5.6 1.45 -5.05 1.4 -3.8 1.4 -3.3 1.5 -2.75 1.5 -2.15 1.55 -1.4 1.6 -0.8 1.7 -0.4 1.7 3.15 1.6 3.45 1.5 2.55 2.35 2.3 2.35 1.3 2.45 0.5 2.45 -0.3 2.45 -1.3 2.4 -1.95 2.45 -3.6 2.35 -3.85 2.35 -7.4 2.3 -8.25 2.25 -9.7 1.95 -10.05 1.9 -10.75 1.55 M-11.25 -9.7 L-11.45 -10.05 Q-11.35 -10.1 -11.4 -10.45 L-11.3 -10.75 -11.0 -10.55 -10.8 -10.35 -10.35 -11.0 -10.05 -10.5 -10.0 -10.5 -10.05 -10.45 -10.05 -9.45 -9.85 -9.25 -10.7 -9.4 -11.25 -9.7" fill="#373737" fill-rule="evenodd" stroke="none"/>
  </g>
</svg>
