<?xml version="1.0" encoding="UTF-8" standalone="no"?>
<svg xmlns:xlink="http://www.w3.org/1999/xlink" height="66.6px" width="148.95px" xmlns="http://www.w3.org/2000/svg">
  <g transform="matrix(1.0, 0.0, 0.0, 1.0, 76.65, 56.85)">
    <path d="M44.85 -53.75 L45.95 -53.9 47.0 -53.75 47.4 -53.5 47.45 -53.35 47.4 -53.15 47.35 -53.15 47.4 -53.15 47.45 -9.9 47.45 -9.85 47.35 -9.7 47.0 -9.55 45.95 -9.35 44.85 -9.55 44.6 -9.65 44.4 -9.9 44.4 -0.85 44.5 -0.65 Q44.5 -0.4 43.9 -0.2 L42.65 0.0 41.3 -0.2 Q41.05 -0.3 40.95 -0.35 L40.8 -0.5 40.75 -0.65 40.85 -0.85 40.7 -1.9 40.75 -10.2 40.7 -10.2 40.3 -10.2 39.5 -10.3 39.2 -10.4 38.8 -10.65 38.75 -10.75 38.8 -10.8 38.8 -54.05 38.75 -54.2 38.8 -54.3 39.2 -54.6 40.3 -54.75 41.35 -54.6 41.75 -54.3 41.8 -54.2 41.75 -54.05 41.85 -44.7 42.65 -44.8 42.75 -44.8 43.6 -44.7 43.9 -44.6 44.4 -44.3 44.4 -53.35 44.85 -53.75 M53.15 -52.6 L53.6 -52.2 53.55 -52.05 53.55 -8.85 53.6 -8.75 53.55 -8.6 53.45 -8.5 53.15 -8.4 52.1 -8.2 51.9 -8.2 51.9 -1.95 51.85 -1.9 51.8 -1.8 51.75 -1.7 51.7 -1.65 51.25 -1.45 50.6 -1.25 50.0 -1.2 49.3 -1.25 48.7 -1.45 48.35 -1.6 48.2 -1.85 48.25 -2.0 48.2 -2.0 48.25 -45.15 48.2 -45.3 48.25 -45.45 48.45 -45.65 48.7 -45.8 48.85 -45.8 50.0 -45.95 50.4 -45.9 50.45 -46.15 50.65 -52.0 50.55 -52.2 50.65 -52.4 51.0 -52.6 51.25 -52.65 52.1 -52.75 53.15 -52.6 M57.2 -50.8 L57.25 -50.9 57.65 -51.2 58.35 -51.3 58.4 -51.3 58.75 -51.35 59.8 -51.2 60.25 -50.8 60.2 -50.6 60.2 -7.45 60.25 -7.35 60.2 -7.15 59.8 -7.0 59.5 -6.9 58.75 -6.8 58.5 -6.8 58.5 -3.45 58.6 -3.2 58.6 -3.0 58.6 -2.95 58.6 -2.9 58.6 -2.8 Q58.6 -2.55 58.05 -2.4 L56.8 -2.2 56.05 -2.25 55.65 -2.35 55.55 -2.4 Q55.05 -2.55 55.0 -2.75 L55.0 -2.8 54.9 -2.85 54.85 -2.95 54.85 -3.0 54.8 -3.0 54.85 -46.3 54.9 -46.3 55.0 -46.2 55.0 -46.25 55.55 -46.75 56.8 -46.9 57.05 -46.9 57.05 -47.15 57.1 -47.15 57.25 -50.65 57.2 -50.8 M63.05 -49.65 L63.1 -49.75 63.3 -49.95 63.5 -50.05 64.6 -50.2 65.65 -50.05 66.1 -49.65 66.05 -49.5 66.05 -6.3 66.1 -6.2 65.65 -5.85 65.3 -5.7 65.3 -4.3 65.35 -4.1 65.35 -4.0 65.4 -3.9 65.4 -3.85 Q65.4 -3.55 64.8 -3.4 L63.5 -3.15 62.15 -3.4 Q61.75 -3.5 61.65 -3.7 L61.6 -3.85 61.65 -4.0 61.65 -4.15 61.65 -4.25 61.65 -4.35 61.65 -4.45 61.7 -4.55 61.7 -4.6 61.75 -4.6 61.6 -4.6 61.65 -47.15 61.6 -47.3 61.65 -47.45 62.15 -47.8 62.95 -47.9 62.95 -48.1 63.1 -49.55 63.05 -49.65 M25.95 -56.3 L26.0 -56.4 26.4 -56.7 27.5 -56.85 28.55 -56.7 28.85 -56.55 28.95 -56.4 29.0 -56.3 28.95 -56.15 28.85 -56.05 28.95 -56.05 28.95 -43.0 28.9 -42.95 28.9 -42.6 28.95 -42.6 29.05 -42.6 29.25 -42.55 29.4 -42.5 29.8 -42.3 30.0 -42.1 30.05 -42.05 30.05 -41.95 30.05 -41.9 30.0 -41.8 29.9 -41.65 29.9 0.5 29.95 0.6 29.95 0.65 30.0 0.75 30.05 0.9 30.05 1.05 30.0 1.15 30.0 1.25 30.05 1.4 29.95 1.65 29.65 1.85 29.4 1.9 28.95 2.05 28.05 2.15 27.95 2.15 27.7 2.15 26.75 2.0 26.45 1.9 Q25.9 1.7 25.85 1.45 L25.85 1.4 25.9 1.35 25.95 1.2 25.9 1.15 25.85 1.05 25.85 1.0 25.85 0.9 25.95 -41.75 25.85 -41.9 25.85 -42.0 25.9 -42.1 25.95 -42.15 26.0 -42.2 26.05 -42.25 26.05 -42.35 26.0 -42.35 26.05 -42.65 26.05 -56.1 25.95 -56.3 M34.6 -55.7 L35.25 -55.6 35.35 -55.55 35.65 -55.35 35.7 -55.2 35.6 -55.0 35.6 -44.0 35.55 -44.0 35.55 -43.8 35.6 -43.6 35.65 -43.6 35.95 -43.55 36.25 -43.5 36.3 -43.5 36.6 -43.4 37.25 -42.85 37.1 -42.55 37.1 -0.25 37.15 -0.15 37.15 -0.1 37.65 0.35 37.05 0.85 37.0 0.85 36.75 0.95 36.25 1.05 35.55 1.1 35.4 1.1 34.05 0.85 34.0 0.85 33.45 0.45 33.25 0.35 33.15 0.25 33.1 0.15 33.1 0.05 33.05 0.2 33.1 -11.4 32.65 -11.75 32.65 -55.2 33.1 -55.6 33.15 -55.6 34.2 -55.75 34.45 -55.75 34.6 -55.7 M21.5 -41.5 L21.75 -41.4 21.85 -41.35 21.95 -41.25 22.05 -41.15 22.15 -41.05 22.15 -40.95 22.15 -40.9 22.0 -40.65 22.0 1.55 22.05 1.6 22.1 1.75 22.1 1.85 22.1 1.95 22.1 2.05 22.1 2.1 22.1 2.15 22.1 2.25 22.15 2.4 22.15 2.5 22.05 2.65 21.5 2.9 21.4 2.95 21.35 3.0 21.0 3.1 20.2 3.15 20.05 3.15 19.8 3.15 18.85 3.0 18.55 2.9 18.15 2.7 17.95 2.45 17.95 2.4 18.0 2.35 18.05 2.2 18.05 2.1 18.05 2.0 18.05 1.9 17.95 2.1 18.05 -40.75 17.95 -40.9 17.95 -41.0 18.0 -41.05 18.0 -41.1 18.05 -41.15 18.3 -41.35 18.35 -41.4 18.55 -41.5 19.65 -41.7 19.8 -41.7 20.05 -41.7 20.15 -41.7 20.8 -41.65 21.3 -41.55 21.35 -41.55 21.5 -41.5 M13.8 -40.5 L14.15 -40.2 14.2 -40.15 14.2 -40.05 14.05 -39.75 13.95 -39.7 14.05 -39.7 14.05 2.75 14.1 2.95 14.1 3.05 14.1 3.15 14.15 3.25 14.2 3.4 13.95 3.75 13.9 3.8 13.55 3.9 13.25 4.05 13.0 4.1 12.7 4.15 12.1 4.15 11.85 4.15 10.6 3.9 Q10.0 3.7 10.0 3.4 L10.05 3.35 10.1 3.25 10.05 3.1 10.05 2.95 10.0 3.1 10.1 -39.8 10.0 -40.05 10.0 -40.1 10.05 -40.2 10.1 -40.3 10.6 -40.6 12.1 -40.8 13.55 -40.6 13.8 -40.5 M1.95 -39.65 L3.45 -39.85 4.9 -39.65 5.5 -39.25 5.55 -39.15 5.55 -39.1 5.55 -39.05 5.4 -38.8 5.4 3.85 5.4 3.9 5.4 4.0 5.4 4.1 5.5 4.2 5.55 4.25 5.55 4.35 5.4 4.65 4.9 4.85 3.45 5.1 1.95 4.85 1.7 4.75 Q1.35 4.6 1.35 4.35 L1.35 4.3 1.45 4.15 1.4 4.1 1.4 4.05 1.4 3.95 1.35 4.1 1.45 -38.85 1.35 -39.1 1.4 -39.2 1.45 -39.35 1.95 -39.65 M72.2 -48.55 L72.3 -48.45 72.3 -48.35 72.3 -48.3 72.2 -48.1 72.2 -5.55 72.25 -5.45 72.25 -5.4 72.25 -5.3 72.25 -5.25 72.2 -5.2 72.2 -5.15 72.2 -5.1 72.3 -4.9 72.3 -4.85 71.85 -4.5 71.75 -4.45 71.7 -4.45 70.5 -4.2 70.4 -4.2 69.1 -4.4 69.05 -4.45 68.9 -4.5 68.6 -4.65 68.55 -4.75 68.5 -4.9 68.6 -5.1 68.5 -5.1 68.55 -48.2 68.5 -48.35 68.6 -48.55 69.05 -48.85 70.4 -49.0 71.7 -48.85 72.2 -48.55 M40.75 -44.1 L40.75 -43.95 40.8 -43.95 40.75 -44.1 M58.6 -46.4 L58.55 -46.4 58.6 -46.35 58.6 -46.4 M-46.15 -37.15 L-45.0 -36.95 Q-44.55 -36.75 -44.4 -36.55 L-44.35 -36.45 -44.35 -36.35 -44.4 -36.25 -44.5 -36.15 Q-44.6 -36.05 -44.85 -35.95 L-44.8 -35.95 -44.5 -36.1 -44.5 6.65 -44.45 6.8 -44.45 6.85 -44.35 7.0 -44.35 7.05 -44.4 7.25 -44.85 7.5 -45.0 7.55 -45.45 7.7 -45.6 7.75 -45.65 7.75 -45.9 7.8 -46.3 7.8 -46.35 7.8 -46.45 7.8 -46.55 7.8 -46.95 7.8 -47.55 7.7 -47.6 7.65 -47.95 7.55 -48.5 7.2 -48.55 7.1 -48.55 7.0 -48.5 6.95 -48.45 6.85 -48.45 6.8 -48.5 6.75 -48.55 6.85 -48.45 -36.15 Q-48.3 -36.0 -47.95 -35.9 -48.3 -36.0 -48.45 -36.15 L-48.5 -36.2 -48.55 -36.4 -48.55 -36.45 -48.45 -36.6 -48.25 -36.8 -47.95 -36.95 -46.45 -37.15 -46.15 -37.15 M-58.2 -40.55 L-58.35 -40.3 -58.7 -40.15 -58.65 -40.15 Q-58.45 -40.25 -58.35 -40.3 L-58.35 2.45 -58.35 2.5 -58.35 2.55 -58.3 2.6 -58.25 2.65 -58.2 2.8 -58.2 2.9 -58.2 2.95 -58.4 3.15 -58.7 3.3 -58.85 3.35 -60.3 3.6 -60.4 3.6 -61.8 3.35 -62.35 3.0 -62.4 2.9 -62.4 2.8 -62.35 2.75 -62.35 2.7 -62.35 2.65 -62.4 2.7 -62.3 -40.35 -61.8 -40.1 -62.3 -40.35 -62.35 -40.45 -62.4 -40.55 -62.4 -40.65 -62.3 -40.8 -62.1 -41.0 -61.8 -41.15 -60.3 -41.35 -60.1 -41.35 -58.85 -41.15 -58.5 -40.95 -58.25 -40.75 -58.2 -40.65 -58.2 -40.55 M-53.25 -39.3 L-52.1 -39.1 Q-51.65 -38.9 -51.5 -38.7 L-51.6 -38.4 -51.55 -38.45 -51.45 -38.6 -51.45 -38.5 -51.5 -38.4 -51.6 -38.25 -51.95 -38.1 -51.9 -38.1 -51.6 -38.25 -51.6 4.5 -51.55 4.65 -51.55 4.7 -51.45 4.85 -51.45 4.9 -51.6 5.2 -51.95 5.35 -52.1 5.4 -52.55 5.55 -52.75 5.6 -52.85 5.6 -53.1 5.65 -53.15 5.65 -53.45 5.65 -53.55 5.65 -53.65 5.65 -55.05 5.4 -55.3 5.3 -55.45 5.2 -55.6 5.05 -55.65 4.95 -55.65 4.9 -55.6 4.8 -55.65 4.75 -55.65 4.6 -55.65 4.5 -55.65 4.4 -55.55 -38.3 Q-55.4 -38.15 -55.05 -38.05 -55.4 -38.15 -55.55 -38.3 L-55.6 -38.35 -55.65 -38.55 -55.65 -38.6 -55.6 -38.65 -55.55 -38.7 -55.55 -38.75 -55.35 -38.95 -55.05 -39.1 -53.55 -39.3 -53.25 -39.3 M-42.0 -34.25 L-42.05 -34.45 -42.05 -34.5 -41.95 -34.7 -41.75 -34.85 -41.45 -35.0 -39.95 -35.2 -39.65 -35.2 -38.5 -35.0 -37.9 -34.6 -37.85 -34.5 -37.85 -34.4 -37.85 -34.3 -37.9 -34.25 -38.0 -34.15 -38.05 -34.1 -38.0 -34.1 -38.0 8.6 -38.05 8.55 -38.05 8.65 -38.05 8.7 -37.95 8.8 -37.85 8.95 -37.85 9.0 -37.9 9.2 -38.05 9.35 -38.15 9.4 -38.3 9.45 -38.35 9.5 -38.5 9.5 -38.95 9.65 -39.1 9.7 -39.25 9.7 -39.8 9.75 -39.85 9.75 -39.95 9.75 -40.05 9.75 -40.95 9.65 -41.45 9.5 Q-42.05 9.3 -42.05 9.0 L-42.05 8.95 -42.0 8.85 -42.0 8.75 -42.05 8.85 -41.95 -34.2 Q-41.8 -34.05 -41.45 -33.95 -41.8 -34.05 -41.95 -34.2 L-42.0 -34.25 M-66.2 -43.1 L-65.6 -42.75 -65.55 -42.6 -65.55 -42.55 -65.7 -42.25 -65.7 0.5 -65.65 0.65 -65.55 0.85 -65.55 0.9 -66.0 1.35 -66.2 1.4 -67.65 1.65 -69.15 1.4 Q-69.75 1.2 -69.75 0.9 L-69.65 -42.3 -69.75 -42.55 -69.75 -42.6 -69.65 -42.75 -69.45 -42.95 -69.15 -43.1 -67.65 -43.3 -66.2 -43.1 M-72.45 -44.25 L-72.55 -44.0 -72.6 -43.95 -72.6 -1.05 -72.45 -0.8 -72.5 -0.65 -72.55 -0.55 Q-72.7 -0.4 -73.1 -0.3 L-74.55 -0.05 -76.05 -0.3 -76.65 -0.7 -76.65 -0.8 -76.55 -44.0 -76.65 -44.25 -76.55 -44.45 -76.05 -44.8 -74.55 -45.0 -73.1 -44.8 -72.5 -44.45 -72.45 -44.25 M-6.9 -38.45 L-5.4 -38.65 -3.95 -38.45 -3.55 -38.25 -3.35 -38.1 -3.3 -38.05 -3.3 -37.9 -3.45 -37.6 -3.45 5.0 -3.5 4.95 -3.5 5.05 -3.45 5.1 -3.45 5.2 -3.45 5.3 -3.35 5.4 -3.3 5.55 Q-3.3 5.85 -3.95 6.05 L-5.4 6.3 -6.25 6.25 -6.9 6.05 -7.5 5.55 -7.45 5.5 -7.35 5.3 -7.4 5.2 -7.4 5.1 -7.4 5.05 -7.5 5.25 -7.4 -37.65 -7.5 -37.9 -7.5 -37.95 -7.45 -38.05 -7.4 -38.1 -6.9 -38.45 M-14.25 -37.4 L-12.8 -37.2 Q-12.35 -37.0 -12.2 -36.8 L-12.15 -36.7 -12.15 -36.65 -12.2 -36.5 -12.3 -36.35 -12.4 -36.25 -12.35 -36.3 -12.3 -36.3 -12.3 6.2 -12.2 6.35 -12.2 6.5 -12.2 6.55 -12.2 6.65 -12.15 6.75 -12.15 6.8 -12.2 6.95 -12.4 7.15 -12.6 7.25 -12.65 7.3 -12.75 7.3 -12.8 7.3 -13.25 7.45 -13.35 7.5 -13.5 7.5 -13.55 7.5 -14.0 7.55 -14.25 7.55 -14.35 7.55 -15.25 7.45 -15.75 7.3 -16.35 6.85 -16.35 6.75 -16.3 6.7 -16.3 6.65 -16.3 6.6 -16.35 6.65 -16.35 6.55 -16.35 6.45 -16.35 6.4 -16.35 6.3 -16.25 -36.4 Q-16.1 -36.25 -15.75 -36.15 -16.1 -36.25 -16.25 -36.4 L-16.3 -36.45 -16.3 -36.5 -16.35 -36.6 -16.35 -36.7 -16.25 -36.85 -16.05 -37.05 -15.75 -37.2 -14.25 -37.4 M-12.65 -36.15 L-12.75 -36.15 -12.65 -36.15 M-13.5 -35.95 L-13.45 -35.95 -13.4 -35.95 -13.35 -35.95 -13.5 -35.95 M-16.35 -36.7 L-16.3 -36.65 -16.25 -36.55 -16.25 -36.8 -16.35 -36.7 M-14.8 -35.9 L-14.65 -35.9 -15.3 -36.0 -14.8 -35.9 M-31.6 -35.1 L-30.95 -35.1 -29.9 -34.9 -29.7 -34.8 -29.6 -34.75 Q-29.25 -34.55 -29.25 -34.35 -29.25 -34.1 -29.65 -33.95 L-29.4 -34.05 -29.4 8.55 -29.0 9.0 -29.65 9.5 -31.1 9.75 -31.35 9.75 -32.45 9.55 -32.6 9.5 -32.75 9.45 -33.0 9.3 -33.2 9.0 -33.3 8.9 -33.35 8.8 -33.35 8.7 -33.35 8.65 -33.45 8.85 -33.35 -34.15 -33.45 -34.35 Q-33.45 -34.65 -32.85 -34.9 L-31.6 -35.1 M-40.5 -33.7 L-40.05 -33.7 -41.0 -33.8 -40.5 -33.7 M-39.15 -33.75 L-39.1 -33.75 -39.25 -33.75 -39.15 -33.75 M-20.9 -35.8 L-20.85 -35.75 -20.8 -35.65 -20.8 -35.6 -20.8 -35.5 -20.95 -35.25 -20.95 7.05 -20.85 7.25 -20.85 7.45 -20.9 7.55 -20.95 7.6 -20.95 7.65 -20.9 7.65 -20.85 7.7 -20.8 7.8 -20.8 7.9 -21.45 8.4 -22.9 8.65 -24.4 8.4 -24.7 8.3 -25.0 7.9 -25.0 7.85 -24.95 7.75 -24.95 7.7 -24.95 7.6 -24.95 7.5 -25.0 7.65 -24.9 -35.3 -25.0 -35.55 -25.0 -35.6 -24.95 -35.65 -24.9 -35.8 -24.4 -36.1 -22.9 -36.3 -21.45 -36.1 -20.9 -35.8" fill="#000000" fill-rule="evenodd" stroke="none"/>
  </g>
</svg>
