<?xml version="1.0" encoding="UTF-8" standalone="no"?>
<svg xmlns:xlink="http://www.w3.org/1999/xlink" height="66.6px" width="148.95px" xmlns="http://www.w3.org/2000/svg">
  <g transform="matrix(1.0, 0.0, 0.0, 1.0, 74.5, 33.3)">
    <path d="M46.55 -29.8 L46.75 -29.55 47.0 -29.45 48.1 -29.25 49.15 -29.45 49.5 -29.6 49.55 -29.6 49.6 13.65 49.6 13.7 49.5 13.85 49.15 14.0 48.1 14.2 47.0 14.0 46.75 13.9 46.55 13.65 46.55 -20.35 46.65 -20.55 46.65 -20.65 46.55 -20.75 46.55 -29.8 M40.95 -30.5 L41.35 -30.3 41.65 -30.2 42.45 -30.1 43.5 -30.3 43.65 -30.35 43.9 -30.5 44.0 -21.15 43.45 -21.05 Q43.0 -20.9 42.9 -20.6 L42.9 -20.55 42.9 -20.4 42.9 13.35 42.85 13.35 42.45 13.35 41.65 13.25 41.35 13.15 40.95 12.9 40.95 12.75 40.95 -30.5 M55.7 -28.5 L55.7 14.7 55.7 14.95 55.6 15.05 55.3 15.15 54.25 15.35 54.05 15.35 54.05 -21.55 53.9 -21.55 53.95 -21.75 53.4 -22.25 52.6 -22.35 52.55 -22.35 52.6 -22.6 52.8 -28.45 Q52.9 -28.4 53.15 -28.3 L54.25 -28.1 55.3 -28.3 55.7 -28.5 M59.4 -27.1 L59.8 -26.9 60.9 -26.7 61.65 -26.8 61.95 -26.9 62.35 -27.05 62.35 16.1 62.4 16.2 62.35 16.4 61.95 16.55 61.65 16.65 60.9 16.75 60.65 16.75 60.65 15.7 60.65 -22.5 60.75 -22.7 60.75 -22.8 60.75 -22.85 60.7 -22.85 60.45 -23.05 60.2 -23.2 59.2 -23.35 59.2 -23.6 59.25 -23.6 59.4 -27.1 M68.2 -25.95 L68.2 17.25 68.25 17.35 67.8 17.7 67.45 17.85 67.45 -23.5 67.55 -23.75 67.55 -23.8 67.5 -23.85 66.95 -24.25 65.65 -24.4 65.1 -24.35 65.1 -24.55 65.25 -26.0 Q65.3 -25.85 65.65 -25.75 L66.75 -25.55 67.8 -25.75 68.2 -25.95 M31.0 -32.5 L31.1 -32.5 31.1 -19.45 31.05 -19.4 31.05 -19.05 31.0 -19.05 30.85 -19.1 30.7 -19.1 30.65 -19.1 30.2 -19.15 30.1 -19.15 29.85 -19.15 29.0 -19.05 28.65 -18.95 28.6 -18.95 28.2 -18.7 28.2 -18.8 28.15 -18.8 28.2 -19.1 28.2 -32.55 Q28.3 -32.5 28.55 -32.4 L29.65 -32.2 30.7 -32.4 31.0 -32.5 M37.75 -31.45 L37.75 -20.45 37.7 -20.45 37.7 -20.25 37.75 -20.05 37.35 -20.05 37.3 -20.05 35.85 -19.85 35.8 -19.85 35.6 -19.75 35.2 -19.35 35.2 -19.3 35.3 -19.05 35.25 11.4 34.8 11.8 34.8 -31.65 Q34.8 -31.45 35.25 -31.3 L36.35 -31.1 37.4 -31.3 37.75 -31.45" fill="#2f2f2f" fill-rule="evenodd" stroke="none"/>
    <path d="M49.5 -29.6 L49.15 -29.45 48.1 -29.25 47.0 -29.45 46.75 -29.55 46.55 -29.8 Q46.55 -30.0 47.0 -30.2 L48.1 -30.35 49.15 -30.2 49.55 -29.95 49.6 -29.8 49.55 -29.6 49.5 -29.6 M46.55 -20.75 L46.65 -20.65 46.65 -20.55 46.55 -20.35 Q46.4 -20.2 46.05 -20.1 L44.8 -19.9 43.45 -20.1 42.95 -20.4 42.9 -20.55 42.9 -20.6 Q43.0 -20.9 43.45 -21.05 L44.0 -21.15 44.8 -21.25 44.9 -21.25 45.75 -21.15 46.05 -21.05 46.55 -20.75 M43.9 -30.5 L43.65 -30.35 43.5 -30.3 42.45 -30.1 41.65 -30.2 41.35 -30.3 40.95 -30.5 40.9 -30.65 40.95 -30.75 41.35 -31.05 42.45 -31.2 43.5 -31.05 43.9 -30.75 43.95 -30.65 43.9 -30.5 M40.95 12.75 L40.95 12.9 40.9 12.8 40.95 12.75 M52.8 -28.45 L52.7 -28.65 52.8 -28.85 53.15 -29.05 53.4 -29.1 54.25 -29.2 55.3 -29.05 55.75 -28.65 55.7 -28.5 55.3 -28.3 54.25 -28.1 53.15 -28.3 Q52.9 -28.4 52.8 -28.45 M55.7 14.7 L55.75 14.8 55.7 14.95 55.7 14.7 M53.85 21.9 L53.4 22.1 52.75 22.3 52.15 22.35 51.45 22.3 50.85 22.1 50.5 21.95 50.35 21.7 50.4 21.55 50.45 21.7 50.55 21.8 50.95 22.0 52.3 22.2 53.55 22.0 53.8 21.9 53.85 21.9 M50.4 -21.6 L50.35 -21.75 50.4 -21.9 50.6 -22.1 50.85 -22.25 51.0 -22.25 52.15 -22.4 52.55 -22.35 52.6 -22.35 53.4 -22.25 53.95 -21.75 53.9 -21.55 53.4 -21.35 52.75 -21.15 52.15 -21.1 51.45 -21.15 50.85 -21.35 Q50.5 -21.45 50.4 -21.6 M62.35 -27.05 L61.95 -26.9 61.65 -26.8 60.9 -26.7 59.8 -26.9 59.4 -27.1 59.35 -27.25 59.4 -27.35 59.8 -27.65 60.5 -27.75 60.55 -27.75 60.9 -27.8 61.95 -27.65 Q62.4 -27.45 62.4 -27.25 L62.35 -27.05 M59.2 -23.35 L60.2 -23.2 60.45 -23.05 60.7 -22.85 60.75 -22.8 60.75 -22.7 60.65 -22.5 60.2 -22.3 58.95 -22.1 58.2 -22.15 57.8 -22.25 57.7 -22.3 57.15 -22.65 57.15 -22.7 Q57.15 -23.0 57.7 -23.2 L58.95 -23.35 59.2 -23.35 M65.25 -26.0 L65.2 -26.1 65.25 -26.2 65.45 -26.4 65.65 -26.5 66.75 -26.65 67.8 -26.5 68.25 -26.1 68.2 -25.95 67.8 -25.75 66.75 -25.55 65.65 -25.75 Q65.3 -25.85 65.25 -26.0 M67.55 19.65 L67.55 19.7 Q67.55 20.0 66.95 20.15 L65.65 20.4 64.3 20.15 63.8 19.85 63.75 19.7 63.8 19.55 63.8 19.6 63.85 19.7 63.85 19.75 63.95 19.8 63.95 19.85 64.05 19.9 64.3 20.0 64.35 20.0 65.7 20.2 66.95 20.0 67.1 19.95 67.15 19.95 67.25 19.9 67.3 19.85 67.4 19.8 67.45 19.75 67.55 19.65 M63.8 -23.6 L63.75 -23.75 63.8 -23.9 64.3 -24.25 65.1 -24.35 65.65 -24.4 66.95 -24.25 67.5 -23.85 67.55 -23.8 67.55 -23.75 67.45 -23.5 66.95 -23.3 65.65 -23.05 64.3 -23.3 63.8 -23.6 M28.2 -32.55 L28.1 -32.75 28.15 -32.85 28.55 -33.15 29.65 -33.3 30.7 -33.15 31.0 -33.0 31.1 -32.85 31.15 -32.75 31.1 -32.6 31.0 -32.5 30.7 -32.4 29.65 -32.2 28.55 -32.4 Q28.3 -32.5 28.2 -32.55 M31.05 -19.05 L31.1 -19.05 31.2 -19.05 31.4 -19.0 31.55 -18.95 31.95 -18.75 32.15 -18.55 32.2 -18.5 32.2 -18.4 32.2 -18.35 32.15 -18.25 32.05 -18.1 31.8 -17.95 31.55 -17.9 31.1 -17.75 31.05 -17.75 30.2 -17.65 30.1 -17.65 29.85 -17.65 28.9 -17.8 28.6 -17.9 28.2 -18.1 28.1 -18.15 28.1 -18.2 28.0 -18.35 28.0 -18.45 28.05 -18.55 28.1 -18.6 28.15 -18.65 28.2 -18.7 28.6 -18.95 28.65 -18.95 29.0 -19.05 29.85 -19.15 30.1 -19.15 30.2 -19.15 30.65 -19.1 30.7 -19.1 30.85 -19.1 31.0 -19.05 31.05 -19.05 M32.15 24.8 L32.2 24.95 32.1 25.2 31.8 25.4 31.55 25.45 31.1 25.6 30.2 25.7 30.1 25.7 29.85 25.7 28.9 25.55 28.6 25.45 28.0 25.0 28.0 24.95 28.05 24.9 28.1 24.75 28.1 24.8 28.05 24.9 28.4 25.1 28.45 25.1 28.6 25.15 28.65 25.2 30.1 25.4 31.55 25.15 32.1 24.9 32.15 24.9 32.15 24.8 M34.8 -31.65 L35.25 -32.05 35.3 -32.05 36.35 -32.2 36.6 -32.2 36.75 -32.15 37.4 -32.05 37.5 -32.0 37.8 -31.8 37.85 -31.65 37.75 -31.45 37.4 -31.3 36.35 -31.1 35.25 -31.3 Q34.8 -31.45 34.8 -31.65 M37.75 -20.05 L37.8 -20.05 38.1 -20.0 38.4 -19.95 38.45 -19.95 38.75 -19.85 39.4 -19.3 39.25 -19.0 38.85 -18.8 38.75 -18.8 38.55 -18.7 38.0 -18.6 37.3 -18.55 36.65 -18.6 35.8 -18.8 35.6 -18.85 35.3 -19.05 35.2 -19.3 35.2 -19.35 35.6 -19.75 35.8 -19.85 35.85 -19.85 37.3 -20.05 37.35 -20.05 37.75 -20.05 M39.3 23.45 L39.8 23.9 Q39.8 24.2 39.2 24.4 L39.15 24.4 38.9 24.5 38.4 24.6 37.7 24.65 37.55 24.65 36.2 24.4 36.15 24.4 37.3 24.5 38.75 24.25 38.85 24.25 39.1 24.2 39.15 24.15 39.2 24.1 39.3 24.0 39.35 24.0 39.35 23.9 39.3 23.85 39.3 23.7 39.3 23.6 39.3 23.55 39.3 23.45 M35.25 12.15 L34.8 11.8 35.25 11.4 35.25 12.15 M24.15 -17.1 L23.65 -16.9 23.55 -16.85 23.5 -16.8 23.35 -16.75 23.25 -16.75 22.35 -16.65 22.2 -16.65 21.95 -16.65 21.0 -16.8 20.7 -16.9 20.3 -17.1 20.2 -17.2 20.1 -17.35 20.1 -17.45 20.15 -17.5 20.15 -17.55 20.2 -17.6 20.45 -17.8 20.5 -17.85 20.7 -17.95 21.8 -18.15 21.95 -18.15 22.2 -18.15 22.3 -18.15 22.95 -18.1 23.45 -18.0 23.5 -18.0 23.65 -17.95 23.9 -17.85 24.0 -17.8 24.1 -17.7 24.2 -17.6 24.3 -17.5 24.3 -17.4 24.3 -17.35 24.15 -17.1 M20.2 25.75 L20.15 25.9 20.5 26.1 20.55 26.1 20.7 26.15 20.75 26.2 22.2 26.4 23.65 26.15 24.2 25.9 24.25 25.9 24.25 25.8 24.3 25.95 24.3 26.05 24.2 26.2 23.65 26.45 23.55 26.5 23.5 26.55 23.15 26.65 22.35 26.7 22.2 26.7 21.95 26.7 21.0 26.55 20.7 26.45 20.3 26.25 20.1 26.0 20.1 25.95 20.15 25.9 20.2 25.75 M12.25 -16.25 L12.15 -16.5 12.15 -16.55 12.2 -16.65 12.25 -16.75 12.75 -17.05 14.25 -17.25 15.7 -17.05 15.95 -16.95 16.3 -16.65 16.35 -16.6 16.35 -16.5 16.2 -16.2 16.1 -16.15 16.05 -16.1 15.7 -16.0 15.4 -15.85 15.15 -15.8 14.85 -15.75 14.25 -15.75 14.0 -15.75 12.75 -16.0 Q12.4 -16.1 12.25 -16.25 M16.3 26.8 L16.35 26.95 16.1 27.3 16.05 27.35 15.7 27.45 15.4 27.6 15.15 27.65 14.85 27.7 14.25 27.7 14.0 27.7 12.75 27.45 12.15 26.95 12.2 26.9 12.55 27.1 12.6 27.1 12.75 27.15 12.8 27.2 14.25 27.4 15.7 27.15 16.25 26.9 16.3 26.9 16.3 26.8 M7.55 -15.25 L7.05 -15.05 5.6 -14.8 4.1 -15.05 3.85 -15.15 3.6 -15.3 3.5 -15.55 3.55 -15.65 3.6 -15.8 4.1 -16.1 5.6 -16.3 7.05 -16.1 7.65 -15.7 7.7 -15.6 7.7 -15.55 7.7 -15.5 7.55 -15.25 M3.5 27.85 L3.55 27.9 3.9 28.1 3.95 28.1 4.1 28.15 4.15 28.2 5.6 28.4 7.05 28.15 7.6 27.9 7.65 27.9 7.65 27.8 7.65 27.75 7.7 27.8 7.7 27.9 7.55 28.2 7.05 28.4 5.6 28.65 4.1 28.4 3.85 28.3 3.5 27.9 3.5 27.85 M70.7 -24.65 L70.65 -24.8 70.75 -25.0 71.2 -25.3 72.55 -25.45 73.85 -25.3 74.35 -25.0 74.45 -24.9 74.45 -24.8 74.45 -24.75 74.35 -24.55 74.0 -24.4 73.85 -24.35 72.55 -24.1 71.2 -24.35 71.05 -24.4 Q70.8 -24.5 70.7 -24.65 M74.45 18.7 L74.0 19.05 73.9 19.1 73.85 19.1 72.65 19.35 72.55 19.35 72.6 19.25 73.85 19.05 74.2 18.9 74.45 18.7 M71.25 19.15 L71.2 19.1 71.05 19.05 70.75 18.9 70.7 18.8 70.65 18.65 70.75 18.45 70.7 18.6 70.75 18.75 70.85 18.85 71.25 19.05 71.25 19.15 M57.15 20.8 L57.25 20.85 57.55 21.0 58.9 21.2 60.15 21.0 60.25 21.0 60.4 20.95 60.65 20.75 60.7 20.7 60.75 20.65 60.75 20.75 60.2 21.15 58.95 21.35 58.2 21.3 57.8 21.2 57.7 21.15 57.15 20.8 M43.0 22.7 L43.1 23.2 42.95 23.05 42.9 22.9 43.0 22.7 M60.65 15.7 L60.55 15.7 60.65 15.7 M-45.8 -12.35 L-46.3 -12.6 -46.35 -12.65 -46.4 -12.85 -46.4 -12.9 -46.3 -13.05 -46.1 -13.25 -45.8 -13.4 -44.3 -13.6 -44.0 -13.6 -42.85 -13.4 -42.25 -13.0 -42.2 -12.9 -42.2 -12.8 -42.25 -12.7 -42.35 -12.6 -42.7 -12.4 -42.85 -12.35 -43.3 -12.2 -43.45 -12.15 -43.5 -12.15 -43.75 -12.1 -44.15 -12.1 -44.3 -12.1 -44.4 -12.1 -44.85 -12.1 -45.4 -12.2 -45.45 -12.25 -45.8 -12.35 M-42.3 30.4 L-42.2 30.55 -42.2 30.6 -42.25 30.8 -42.7 31.05 -42.85 31.1 -43.3 31.25 -43.45 31.3 -43.5 31.3 -43.75 31.35 -44.15 31.35 -44.2 31.35 -44.3 31.35 -44.4 31.35 -44.8 31.35 -45.4 31.25 -45.45 31.2 -45.8 31.1 -46.35 30.75 -46.4 30.65 -46.4 30.6 -46.0 30.9 -45.8 30.95 -45.75 31.0 -44.3 31.2 -42.85 30.95 -42.3 30.7 -42.25 30.7 -42.25 30.6 -42.3 30.4 M-59.65 -16.55 Q-60.0 -16.7 -60.15 -16.8 L-60.2 -16.9 -60.25 -17.0 -60.25 -17.1 -60.15 -17.25 -59.95 -17.45 -59.65 -17.6 -58.15 -17.8 -57.95 -17.8 -56.7 -17.6 -56.35 -17.4 -56.1 -17.2 -56.05 -17.1 -56.05 -17.0 -56.2 -16.75 -56.55 -16.6 -56.7 -16.55 -58.15 -16.3 -58.25 -16.3 -59.65 -16.55 M-56.15 26.2 L-56.1 26.2 -56.05 26.35 -56.05 26.45 -56.05 26.5 -56.25 26.7 -56.55 26.85 -56.7 26.9 -58.15 27.15 -58.25 27.15 -59.65 26.9 -60.2 26.55 -60.25 26.45 -60.25 26.35 -59.65 26.75 -58.15 27.0 -56.7 26.75 -56.15 26.5 -56.1 26.5 -56.1 26.4 -56.15 26.2 M-52.9 -14.5 L-53.4 -14.75 -53.45 -14.8 -53.5 -15.0 -53.5 -15.05 -53.45 -15.1 -53.4 -15.15 -53.4 -15.2 -53.2 -15.4 -52.9 -15.55 -51.4 -15.75 -51.1 -15.75 -49.95 -15.55 -49.35 -15.15 -49.45 -14.85 -49.4 -14.9 -49.3 -15.05 -49.3 -14.95 -49.35 -14.85 -49.45 -14.7 -49.8 -14.55 -49.95 -14.5 -50.4 -14.35 -50.6 -14.3 -50.7 -14.3 -50.95 -14.25 -51.0 -14.25 -51.3 -14.25 -51.4 -14.25 -51.5 -14.25 -52.9 -14.5 M-49.4 28.25 L-49.3 28.4 -49.3 28.45 -49.45 28.75 -49.8 28.9 -49.95 28.95 -50.4 29.1 -50.6 29.15 -50.7 29.15 -50.95 29.2 -51.0 29.2 -51.3 29.2 -51.4 29.2 -51.5 29.2 -52.9 28.95 -53.15 28.85 -53.3 28.75 -53.45 28.6 -53.5 28.5 -53.5 28.45 -53.3 28.6 -53.3 28.65 -53.1 28.75 -52.9 28.8 -51.4 29.05 -49.95 28.8 -49.4 28.55 -49.35 28.55 -49.35 28.45 -49.4 28.25 M-39.3 -10.4 L-39.8 -10.65 -39.85 -10.7 -39.9 -10.9 -39.9 -10.95 -39.8 -11.15 -39.6 -11.3 -39.3 -11.45 -37.8 -11.65 -37.5 -11.65 -36.35 -11.45 Q-35.9 -11.25 -35.75 -11.05 L-35.7 -10.95 -35.7 -10.85 -35.7 -10.75 -35.75 -10.7 -35.85 -10.6 -35.9 -10.55 -36.0 -10.5 -36.15 -10.45 -36.2 -10.4 -36.35 -10.4 -36.8 -10.25 -36.95 -10.2 -37.1 -10.2 -37.65 -10.15 -37.8 -10.15 -37.9 -10.15 -38.85 -10.25 -39.3 -10.4 M-35.8 32.35 L-35.7 32.5 -35.7 32.55 -35.75 32.75 -35.9 32.9 -36.0 32.95 -36.15 33.0 -36.2 33.05 -36.35 33.05 -36.8 33.2 -36.95 33.25 -37.1 33.25 -37.65 33.3 -37.7 33.3 -37.8 33.3 -37.9 33.3 -38.8 33.2 -39.3 33.05 -39.9 32.55 -39.8 32.65 -39.5 32.85 -39.3 32.9 -39.25 32.95 -37.8 33.15 -36.35 32.9 -35.8 32.65 -35.75 32.65 -35.75 32.55 -35.8 32.35 M-67.5 -18.75 L-67.6 -19.0 -67.6 -19.05 -67.5 -19.2 -67.3 -19.4 -67.0 -19.55 -65.5 -19.75 -64.05 -19.55 -63.45 -19.2 -63.4 -19.05 -63.4 -19.0 -63.55 -18.7 Q-63.65 -18.65 -63.85 -18.55 L-64.05 -18.5 -65.5 -18.25 -67.0 -18.5 -67.5 -18.75 M-63.5 24.2 L-63.4 24.4 -63.4 24.45 -63.85 24.9 -64.05 24.95 -65.5 25.2 -67.0 24.95 -67.6 24.45 -67.6 24.4 -67.55 24.5 -67.0 24.8 -65.5 25.05 -64.05 24.8 -63.5 24.55 -63.45 24.45 -63.5 24.2 M-70.45 -20.4 L-70.95 -20.2 -72.4 -19.95 -73.9 -20.2 -74.4 -20.45 -74.5 -20.7 -74.4 -20.9 -73.9 -21.25 -72.4 -21.45 -70.95 -21.25 -70.35 -20.9 -70.3 -20.7 -70.4 -20.45 -70.45 -20.4 M-70.35 22.9 L-70.45 22.5 -70.3 22.75 -70.35 22.9 M-1.3 -14.05 L-1.8 -13.85 -3.25 -13.6 -4.1 -13.65 -4.75 -13.85 Q-5.1 -13.95 -5.25 -14.1 L-5.35 -14.35 -5.35 -14.4 -5.3 -14.5 -5.25 -14.55 -4.75 -14.9 -3.25 -15.1 -1.8 -14.9 -1.4 -14.7 -1.2 -14.55 -1.15 -14.5 -1.15 -14.35 -1.3 -14.05 M-5.3 29.05 L-4.95 29.25 -4.9 29.25 -4.75 29.3 -4.7 29.35 -3.25 29.55 -1.8 29.3 -1.55 29.25 -1.5 29.2 -1.25 29.05 -1.2 29.05 -1.2 28.95 -1.15 29.1 Q-1.15 29.4 -1.8 29.6 L-3.25 29.85 -4.1 29.8 -4.75 29.6 -5.35 29.1 -5.3 29.05 M-13.6 -12.6 L-14.1 -12.85 -14.15 -12.9 -14.15 -12.95 -14.2 -13.05 -14.2 -13.15 -14.1 -13.3 -13.9 -13.5 -13.6 -13.65 -12.1 -13.85 -10.65 -13.65 -10.05 -13.25 -10.0 -13.15 -10.0 -13.1 -10.05 -12.95 -10.15 -12.8 -10.25 -12.7 -10.45 -12.65 -10.5 -12.6 -10.6 -12.6 -10.65 -12.6 -11.1 -12.45 -11.2 -12.4 -11.35 -12.4 -11.4 -12.4 -11.45 -12.4 -12.1 -12.35 -12.5 -12.35 -13.15 -12.45 -13.6 -12.6 M-10.05 30.2 L-10.0 30.3 -10.0 30.35 -10.05 30.5 -10.25 30.7 -10.45 30.8 -10.5 30.85 -10.6 30.85 -10.65 30.85 -11.1 31.0 -11.2 31.05 -11.35 31.05 -11.4 31.05 -11.85 31.1 -12.1 31.1 -12.2 31.1 -13.1 31.0 -13.6 30.85 -14.2 30.4 -13.8 30.65 -13.75 30.65 -13.6 30.7 -13.55 30.75 -12.1 30.95 -10.65 30.7 -10.1 30.45 -10.05 30.45 -10.05 30.35 -10.05 30.25 -10.05 30.2 M-14.2 -13.15 L-14.15 -13.1 -14.1 -13.0 -14.1 -13.25 -14.2 -13.15 M-31.2 -10.6 L-31.3 -10.8 -30.7 -11.35 -29.45 -11.55 -28.8 -11.55 -27.75 -11.35 -27.55 -11.25 -27.45 -11.2 -27.1 -10.8 Q-27.1 -10.55 -27.5 -10.4 L-27.75 -10.3 -29.2 -10.05 -29.45 -10.05 -30.55 -10.25 -30.7 -10.3 -31.1 -10.5 -31.2 -10.6 M-27.25 32.1 L-26.85 32.55 -27.5 33.05 -28.95 33.3 -29.2 33.3 -30.3 33.1 -30.45 33.05 -30.6 33.0 -30.85 32.85 -30.7 32.9 -30.65 32.95 -29.2 33.15 -27.75 32.9 -27.2 32.65 -27.15 32.65 -27.15 32.55 -27.2 32.35 -27.2 32.3 -27.35 32.15 -27.3 32.1 -27.25 32.1 M-22.75 -11.75 L-22.85 -12.0 -22.85 -12.05 -22.8 -12.1 -22.75 -12.25 -22.25 -12.55 -20.75 -12.75 -19.3 -12.55 Q-18.95 -12.4 -18.75 -12.25 L-18.7 -12.2 -18.65 -12.1 -18.65 -12.05 -18.65 -11.95 Q-18.65 -11.85 -18.8 -11.7 L-19.3 -11.5 -20.75 -11.25 -22.25 -11.5 -22.55 -11.6 -22.75 -11.75 M-18.7 31.25 L-18.65 31.35 -18.65 31.45 -19.3 31.95 -20.75 32.2 -22.25 31.95 -22.55 31.85 -22.85 31.45 -22.85 31.4 -22.75 31.45 -22.7 31.55 -22.65 31.6 -22.45 31.65 -22.4 31.65 -22.25 31.7 -22.2 31.75 -20.75 31.95 -19.3 31.7 -18.75 31.45 -18.7 31.45 -18.7 31.35 -18.7 31.25 M-39.8 32.35 L-39.65 32.2 -39.75 32.3 -39.8 32.35" fill="#262626" fill-rule="evenodd" stroke="none"/>
    <path d="M46.55 -20.35 L46.55 13.65 46.55 22.7 46.65 22.9 46.05 23.35 44.8 23.55 43.45 23.35 43.1 23.2 43.0 22.7 42.85 21.65 42.9 13.35 42.9 -20.4 42.95 -20.4 43.45 -20.1 44.8 -19.9 46.05 -20.1 Q46.4 -20.2 46.55 -20.35 M54.05 15.35 L54.05 21.6 54.0 21.65 53.95 21.75 53.9 21.85 53.85 21.9 53.8 21.9 53.55 22.0 52.3 22.2 50.95 22.0 50.55 21.8 50.45 21.7 50.4 21.55 50.35 21.55 50.4 -21.6 Q50.5 -21.45 50.85 -21.35 L51.45 -21.15 52.15 -21.1 52.75 -21.15 53.4 -21.35 53.9 -21.55 54.05 -21.55 54.05 15.35 M60.65 -22.5 L60.65 15.7 60.65 16.75 60.65 20.1 60.75 20.35 60.75 20.55 60.75 20.6 60.75 20.65 60.7 20.7 60.65 20.75 60.4 20.95 60.25 21.0 60.15 21.0 58.9 21.2 57.55 21.0 57.25 20.85 57.15 20.8 57.15 20.75 57.05 20.7 57.0 20.6 57.0 20.55 56.95 20.55 57.0 -22.75 57.05 -22.75 57.15 -22.65 57.7 -22.3 57.8 -22.25 58.2 -22.15 58.95 -22.1 60.2 -22.3 60.65 -22.5 M67.45 17.85 L67.45 19.25 67.5 19.45 67.5 19.55 67.55 19.65 67.45 19.75 67.4 19.8 67.3 19.85 67.25 19.9 67.15 19.95 67.1 19.95 66.95 20.0 65.7 20.2 64.35 20.0 64.3 20.0 64.05 19.9 63.95 19.85 63.95 19.8 63.85 19.75 63.85 19.7 63.8 19.6 63.8 19.55 63.8 19.4 63.8 19.3 63.8 19.2 63.8 19.1 63.85 19.0 63.85 18.95 63.9 18.95 63.75 18.95 63.8 -23.6 64.3 -23.3 65.65 -23.05 66.95 -23.3 67.45 -23.5 67.45 17.85 M32.05 -18.1 L32.05 24.05 32.1 24.15 32.1 24.2 32.15 24.3 32.2 24.45 32.2 24.6 32.15 24.7 32.15 24.8 32.15 24.9 32.1 24.9 31.55 25.15 30.1 25.4 28.65 25.2 28.6 25.15 28.45 25.1 28.4 25.1 28.05 24.9 28.1 24.8 28.1 24.75 28.05 24.7 28.0 24.6 28.0 24.55 28.0 24.45 28.1 -18.15 28.2 -18.1 28.6 -17.9 28.9 -17.8 29.85 -17.65 30.1 -17.65 30.2 -17.65 31.05 -17.75 31.1 -17.75 31.55 -17.9 31.8 -17.95 32.05 -18.1 M39.25 -19.0 L39.25 23.3 39.3 23.4 39.3 23.45 39.3 23.55 39.3 23.6 39.3 23.7 39.3 23.85 39.35 23.9 39.35 24.0 39.3 24.0 39.2 24.1 39.15 24.15 39.1 24.2 38.85 24.25 38.75 24.25 37.3 24.5 36.15 24.4 35.6 24.0 35.4 23.9 35.3 23.8 35.25 23.7 35.25 23.6 35.2 23.75 35.25 12.15 35.25 11.4 35.3 -19.05 35.6 -18.85 35.8 -18.8 36.65 -18.6 37.3 -18.55 38.0 -18.6 38.55 -18.7 38.75 -18.8 38.85 -18.8 39.25 -19.0 M20.2 -17.2 L20.3 -17.1 20.7 -16.9 21.0 -16.8 21.95 -16.65 22.2 -16.65 22.35 -16.65 23.25 -16.75 23.35 -16.75 23.5 -16.8 23.55 -16.85 23.65 -16.9 24.15 -17.1 24.15 25.1 24.2 25.15 24.25 25.3 24.25 25.4 24.25 25.5 24.25 25.6 24.25 25.65 24.25 25.7 24.25 25.8 24.25 25.9 24.2 25.9 23.65 26.15 22.2 26.4 20.75 26.2 20.7 26.15 20.55 26.1 20.5 26.1 20.15 25.9 20.2 25.75 20.2 25.65 20.2 25.55 20.2 25.45 20.1 25.65 20.2 -17.2 M16.1 -16.15 L16.2 -16.15 16.2 26.3 16.25 26.5 16.25 26.6 16.25 26.7 16.3 26.8 16.3 26.9 16.25 26.9 15.7 27.15 14.25 27.4 12.8 27.2 12.75 27.15 12.6 27.1 12.55 27.1 12.2 26.9 12.25 26.8 12.2 26.65 12.2 26.5 12.15 26.65 12.25 -16.25 Q12.4 -16.1 12.75 -16.0 L14.0 -15.75 14.25 -15.75 14.85 -15.75 15.15 -15.8 15.4 -15.85 15.7 -16.0 16.05 -16.1 16.1 -16.15 M3.6 -15.3 L3.85 -15.15 4.1 -15.05 5.6 -14.8 7.05 -15.05 7.55 -15.25 7.55 27.4 7.55 27.45 7.55 27.55 7.55 27.65 7.65 27.75 7.65 27.8 7.65 27.9 7.6 27.9 7.05 28.15 5.6 28.4 4.15 28.2 4.1 28.15 3.95 28.1 3.9 28.1 3.55 27.9 3.5 27.85 3.6 27.7 3.55 27.65 3.55 27.6 3.55 27.5 3.5 27.65 3.6 -15.3 M74.35 -24.55 L74.35 18.0 74.4 18.1 74.4 18.15 74.4 18.25 74.4 18.3 74.35 18.35 74.35 18.4 74.35 18.45 74.45 18.65 74.45 18.7 74.2 18.9 73.85 19.05 72.6 19.25 72.55 19.35 71.25 19.15 71.25 19.05 70.85 18.85 70.75 18.75 70.7 18.6 70.75 18.45 70.65 18.45 70.7 -24.65 Q70.8 -24.5 71.05 -24.4 L71.2 -24.35 72.55 -24.1 73.85 -24.35 74.0 -24.4 74.35 -24.55 M50.4 21.55 L50.55 21.45 50.5 21.4 50.5 21.35 50.4 21.55 M60.65 15.7 L60.55 15.7 60.65 15.7 M70.75 18.45 L70.95 18.3 70.9 18.3 70.75 18.45 M-42.7 -12.4 L-42.65 -12.4 Q-42.45 -12.5 -42.35 -12.55 L-42.35 30.2 -42.3 30.35 -42.3 30.4 -42.25 30.6 -42.25 30.7 -42.3 30.7 -42.85 30.95 -44.3 31.2 -45.75 31.0 -45.8 30.95 -46.0 30.9 -46.4 30.6 -46.4 30.55 -46.35 30.5 -46.3 30.4 -46.3 30.35 -46.35 30.3 -46.4 30.4 -46.3 -12.6 -45.8 -12.35 -45.45 -12.25 -45.4 -12.2 -44.85 -12.1 -44.4 -12.1 -44.3 -12.1 -44.15 -12.1 -43.75 -12.1 -43.5 -12.15 -43.45 -12.15 -43.3 -12.2 -42.85 -12.35 -42.7 -12.4 M-56.55 -16.6 L-56.5 -16.6 -56.2 -16.75 -56.2 26.0 -56.2 26.05 -56.2 26.1 -56.15 26.15 -56.15 26.2 -56.1 26.4 -56.1 26.5 -56.15 26.5 -56.7 26.75 -58.15 27.0 -59.65 26.75 -60.25 26.35 -60.2 26.3 -60.2 26.25 -60.2 26.2 -60.25 26.25 -60.15 -16.8 Q-60.0 -16.65 -59.65 -16.55 L-58.25 -16.3 -58.15 -16.3 -56.7 -16.55 -56.55 -16.6 M-49.8 -14.55 L-49.75 -14.55 Q-49.55 -14.65 -49.45 -14.7 L-49.45 28.05 -49.4 28.2 -49.4 28.25 -49.35 28.45 -49.35 28.55 -49.4 28.55 -49.95 28.8 -51.4 29.05 -52.9 28.8 -53.1 28.75 -53.3 28.65 -53.3 28.6 -53.5 28.45 -53.45 28.35 -53.5 28.3 -53.5 28.15 -53.5 28.05 -53.5 27.95 -53.4 -14.75 -52.9 -14.5 -51.5 -14.25 -51.4 -14.25 -51.3 -14.25 -51.0 -14.25 -50.95 -14.25 -50.7 -14.3 -50.6 -14.3 -50.4 -14.35 -49.95 -14.5 -49.8 -14.55 M-35.9 -10.55 L-35.85 -10.55 -35.85 32.15 -35.9 32.1 -35.9 32.2 -35.9 32.25 -35.8 32.35 -35.75 32.55 -35.75 32.65 -35.8 32.65 -36.35 32.9 -37.8 33.15 -39.25 32.95 -39.3 32.9 -39.5 32.85 -39.8 32.65 -39.9 32.55 -39.9 32.5 -39.85 32.4 -39.85 32.3 -39.9 32.4 -39.8 -10.65 -39.3 -10.4 -38.85 -10.25 -38.35 -10.15 -37.9 -10.15 -37.8 -10.15 -37.65 -10.15 -37.1 -10.2 -37.0 -10.2 -36.95 -10.2 -36.8 -10.25 -36.35 -10.4 -36.2 -10.4 -36.15 -10.45 -36.0 -10.5 -35.9 -10.55 M-63.55 -18.7 L-63.55 24.05 -63.5 24.2 -63.45 24.45 -63.5 24.55 -64.05 24.8 -65.5 25.05 -67.0 24.8 -67.55 24.5 -67.6 24.4 -67.5 -18.75 -67.0 -18.5 -65.5 -18.25 -64.05 -18.5 -63.85 -18.55 Q-63.65 -18.65 -63.55 -18.7 M-74.4 -20.45 L-73.9 -20.2 -72.4 -19.95 -70.95 -20.2 -70.45 -20.4 -70.45 22.5 -70.35 22.9 -70.4 23.0 -70.95 23.25 -72.4 23.5 -73.9 23.25 -74.5 22.85 -74.5 22.75 -74.4 -20.45 M-5.25 -14.1 Q-5.1 -13.95 -4.75 -13.85 L-4.1 -13.65 -3.25 -13.6 -1.8 -13.85 -1.3 -14.05 -1.3 28.55 -1.35 28.5 -1.35 28.6 -1.3 28.65 -1.3 28.75 -1.3 28.85 -1.2 28.95 -1.2 29.05 -1.25 29.05 -1.5 29.2 -1.55 29.25 -1.8 29.3 -3.25 29.55 -4.7 29.35 -4.75 29.3 -4.9 29.25 -4.95 29.25 -5.3 29.05 -5.2 28.85 -5.25 28.75 -5.25 28.65 -5.25 28.6 -5.35 28.8 -5.25 -14.1 M-10.25 -12.7 L-10.2 -12.75 -10.15 -12.75 -10.15 29.75 -10.05 29.9 -10.05 30.05 -10.05 30.1 -10.05 30.2 -10.05 30.25 -10.05 30.35 -10.05 30.45 -10.1 30.45 -10.65 30.7 -12.1 30.95 -13.55 30.75 -13.6 30.7 -13.75 30.65 -13.8 30.65 -14.2 30.4 -14.2 30.3 -14.15 30.25 -14.15 30.2 -14.15 30.15 -14.2 30.2 -14.2 30.1 -14.2 30.0 -14.2 29.95 -14.2 29.85 -14.1 -12.85 -13.6 -12.6 -13.15 -12.45 -12.65 -12.35 -12.5 -12.35 -12.1 -12.35 -11.45 -12.4 -11.4 -12.4 -11.35 -12.4 -11.3 -12.4 -11.25 -12.4 -11.2 -12.4 -11.1 -12.45 -10.65 -12.6 -10.6 -12.6 -10.5 -12.6 -10.45 -12.65 -10.25 -12.7 M-27.5 -10.4 L-27.25 -10.5 -27.25 32.1 -27.3 32.1 -27.35 32.15 -27.2 32.3 -27.2 32.35 -27.15 32.55 -27.15 32.65 -27.2 32.65 -27.75 32.9 -29.2 33.15 -30.65 32.95 -30.7 32.9 -30.85 32.85 -31.05 32.55 -31.15 32.45 -31.2 32.35 -31.2 32.25 -31.2 32.2 -31.3 32.4 -31.2 -10.6 -31.1 -10.5 -30.7 -10.3 -30.55 -10.25 -29.45 -10.05 -29.2 -10.05 -27.75 -10.3 -27.5 -10.4 M-18.8 -11.7 L-18.8 30.6 -18.7 30.8 -18.7 31.0 -18.75 31.1 -18.8 31.15 -18.8 31.2 -18.75 31.2 -18.7 31.25 -18.7 31.35 -18.7 31.45 -18.75 31.45 -19.3 31.7 -20.75 31.95 -22.2 31.75 -22.25 31.7 -22.4 31.65 -22.45 31.65 -22.65 31.6 -22.7 31.55 -22.75 31.45 -22.85 31.4 -22.8 31.3 -22.8 31.25 -22.8 31.15 -22.8 31.05 -22.85 31.2 -22.75 -11.75 -22.55 -11.6 -22.25 -11.5 -20.75 -11.25 -19.3 -11.5 -18.8 -11.7 M-39.8 32.35 L-39.75 32.3 -39.65 32.2 -39.8 32.35" fill="#404040" fill-rule="evenodd" stroke="none"/>
    <path d="M50.4 21.55 L50.5 21.35 50.5 21.4 50.55 21.45 50.4 21.55 M70.75 18.45 L70.9 18.3 70.95 18.3 70.75 18.45" fill="#6f6f6f" fill-rule="evenodd" stroke="none"/>
  </g>
</svg>
