<?xml version="1.0" encoding="UTF-8" standalone="no"?>
<svg xmlns:xlink="http://www.w3.org/1999/xlink" height="333.6px" width="373.95px" xmlns="http://www.w3.org/2000/svg">
  <g transform="matrix(1.0, 0.0, 0.0, 1.0, 363.0, 184.85)">
    <path d="M-303.6 -95.45 L-329.6 -95.45 -329.6 -113.1 -329.6 -114.2 -303.6 -114.3 -303.6 -95.45" fill="#373737" fill-rule="evenodd" stroke="none"/>
    <path d="M-280.6 -109.65 L-280.6 -98.95 -303.6 -95.45 -303.6 -114.3 -280.6 -111.15 -280.6 -109.65" fill="#515151" fill-rule="evenodd" stroke="none"/>
    <path d="M-245.0 -109.65 L-280.6 -109.65 -280.6 -111.15 -303.6 -114.3 -329.6 -114.2 -329.6 -113.1 -362.9 -116.7 -299.15 -116.7 -245.0 -109.65" fill="#333333" fill-rule="evenodd" stroke="none"/>
    <path d="M-299.15 -147.0 L-248.5 -127.35 -246.9 -126.7 -245.0 -126.0 -245.0 -109.65 -299.15 -116.7 -299.15 -147.0" fill="#666666" fill-rule="evenodd" stroke="none"/>
    <path d="M-358.65 -147.0 L-302.65 -147.0 -299.15 -147.0 -299.15 -116.7 -362.9 -116.7 -363.0 -147.0 -360.65 -147.0 -358.65 -147.0" fill="#919191" fill-rule="evenodd" stroke="none"/>
    <path d="M-360.65 -147.0 L-360.65 -174.25 -359.65 -174.35 -358.65 -173.85 -358.65 -147.0 -360.65 -147.0 M-302.65 -147.0 L-302.65 -181.05 -300.45 -181.25 -299.15 -180.35 -299.15 -147.0 -302.65 -147.0" fill="#626262" fill-rule="evenodd" stroke="none"/>
    <path d="M-299.15 -182.35 L-305.85 -181.5 -306.9 -181.35 -311.15 -180.85 -363.0 -174.5 -363.0 -176.4 -299.15 -184.85 -299.15 -182.35" fill="#5e5e5e" fill-rule="evenodd" stroke="none"/>
    <path d="M-299.15 -182.35 L-299.15 -184.85 -243.75 -147.5 -243.75 -144.55 -299.15 -182.35" fill="#404040" fill-rule="evenodd" stroke="none"/>
    <path d="M-248.5 -127.35 L-248.5 -146.6 -247.5 -146.6 -246.9 -146.2 -246.9 -126.7 -248.5 -127.35" fill="#555555" fill-rule="evenodd" stroke="none"/>
    <path d="M-64.05 97.0 L10.95 97.0 10.95 148.75 -64.05 148.75 -64.05 97.0" fill="#151515" fill-rule="evenodd" stroke="none"/>
    <path d="M-64.05 97.0 L-64.05 148.75 -106.05 148.75 -106.05 140.95 -64.05 97.0" fill="#333333" fill-rule="evenodd" stroke="none"/>
  </g>
</svg>
