<?xml version="1.0" encoding="UTF-8" standalone="no"?>
<svg xmlns:xlink="http://www.w3.org/1999/xlink" height="26.3px" width="34.95px" xmlns="http://www.w3.org/2000/svg">
  <g transform="matrix(1.0, 0.0, 0.0, 1.0, 16.2, 7.05)">
    <path d="M-5.55 -4.85 L-4.1 -3.75 -2.8 -3.05 -1.8 -1.9 0.05 -0.45 -0.85 0.75 4.15 2.1 4.4 2.25 4.45 2.3 9.25 5.35 Q9.85 6.3 8.9 7.0 L8.5 7.15 7.8 7.0 3.1 3.85 -0.1 3.15 -0.15 3.1 -0.25 3.1 -0.2 3.15 Q3.05 5.1 5.9 7.3 L12.1 9.85 18.65 13.5 18.75 14.4 Q18.0 16.05 16.95 15.5 L10.75 11.4 8.15 10.25 10.2 12.45 16.1 17.1 Q16.95 17.9 15.55 19.15 L14.7 19.25 9.25 14.2 4.3 8.5 -0.05 5.0 1.35 6.85 5.5 10.55 Q5.7 10.85 5.3 11.5 4.85 12.05 4.2 11.9 L0.1 8.0 -3.2 3.75 -3.2 3.7 -4.35 5.15 -6.45 3.5 -7.5 2.9 -8.25 2.1 -9.95 0.75 -8.9 -0.55 Q-8.8 -1.6 -8.1 -2.4 -7.45 -3.25 -6.55 -3.55 L-5.55 -4.85" fill="#ffffff" fill-opacity="0.0" fill-rule="evenodd" stroke="none"/>
    <path d="M1.8 -6.4 L1.8 -5.9 -9.1 5.95 -8.7 6.05 -5.8 3.65 -7.5 5.75 -6.45 5.05 -5.9 4.1 -5.9 4.95 -7.95 6.5 -7.95 7.15 -9.3 8.55 -6.4 8.1 -8.9 8.7 -8.6 8.8 -9.35 9.9 -9.45 10.75 -10.95 11.7 -12.25 11.4 -11.6 12.2 -12.25 12.45 Q-13.8 14.45 -16.2 13.15 L-15.15 11.5 -15.7 11.2 -15.15 9.45 -13.0 6.0 -10.95 6.55 -2.15 -4.05 -2.2 -4.6 0.75 -7.05 1.8 -6.4 M-12.3 7.85 L-11.25 6.65 -13.0 6.15 -13.1 7.15 -12.85 7.1 -12.3 7.85" fill="#ffffff" fill-opacity="0.0" fill-rule="evenodd" stroke="none"/>
  </g>
</svg>
