<?xml version="1.0" encoding="UTF-8" standalone="no"?>
<svg xmlns:xlink="http://www.w3.org/1999/xlink" height="210.65px" width="86.6px" xmlns="http://www.w3.org/2000/svg">
  <g transform="matrix(1.0, 0.0, 0.0, 1.0, 36.05, 85.85)">
    <path d="M46.4 -79.0 Q49.35 -76.3 49.35 -72.45 49.35 -71.15 49.65 -68.8 L49.9 -65.3 Q49.9 -64.85 50.25 -63.95 L50.55 -62.65 Q50.55 -53.7 47.3 -42.3 43.3 -28.4 37.85 -28.4 30.55 -28.4 28.7 -28.55 24.95 -28.8 22.85 -30.0 21.4 -30.85 19.9 -33.0 19.35 -15.15 20.55 0.45 L31.95 59.65 36.65 119.35 Q34.85 122.15 31.55 124.25 16.75 126.85 15.95 117.5 L15.95 57.3 12.15 33.15 6.75 55.15 1.7 115.1 Q0.1 124.3 -14.4 120.55 -17.55 118.15 -19.1 115.2 L-9.4 56.1 2.8 12.5 5.35 4.5 Q5.5 -24.9 9.4 -54.85 L9.5 -55.7 9.3 -55.25 9.6 -57.2 Q8.95 -58.25 7.1 -58.95 L6.1 -60.2 5.1 -60.45 4.3 -61.25 Q5.4 -58.5 5.4 -56.55 5.4 -53.7 5.7 -51.7 L5.9 -50.5 5.95 -50.05 5.3 -48.65 4.6 -47.85 -4.2 -39.95 Q-13.1 -32.1 -13.85 -32.1 L-16.6 -31.15 -19.75 -30.2 Q-20.25 -30.2 -23.65 -34.3 -27.4 -38.85 -27.4 -41.3 -27.4 -42.25 -29.6 -46.9 -31.95 -52.0 -32.55 -55.4 -32.75 -56.65 -34.5 -62.25 -36.05 -67.1 -36.05 -68.65 -36.05 -74.8 -35.25 -74.8 L-32.8 -77.25 Q-30.2 -79.7 -28.7 -79.7 L-26.55 -79.65 Q-25.2 -79.4 -25.2 -78.05 L-23.75 -76.15 Q-22.3 -74.1 -22.3 -71.6 -22.3 -69.05 -19.55 -60.55 -16.75 -52.0 -15.6 -50.85 -9.65 -57.05 -4.45 -64.75 L-1.7 -65.35 0.3 -65.95 -0.9 -68.2 Q-0.6 -69.2 -1.35 -69.5 L-1.4 -69.45 Q-0.9 -71.8 0.2 -73.7 L4.4 -75.25 Q8.45 -76.5 12.8 -77.05 13.55 -86.05 19.95 -85.85 26.7 -84.7 23.05 -75.15 L22.95 -74.15 28.2 -70.8 33.1 -50.4 30.65 -50.25 Q31.15 -48.25 31.7 -47.75 32.3 -47.15 35.3 -47.15 36.4 -47.15 37.7 -49.15 39.45 -51.85 39.45 -56.4 39.45 -58.55 36.6 -68.0 36.6 -69.9 37.05 -73.8 37.55 -77.75 37.8 -77.75 L38.85 -79.6 Q39.85 -81.45 40.6 -81.45 43.75 -81.45 46.4 -79.0" fill="#000000" fill-rule="evenodd" stroke="none"/>
    <path d="M4.6 -75.1 L5.05 -74.8 Q9.3 -70.45 13.05 -65.05 L13.05 -62.3 12.55 -61.8 12.5 -61.3 Q11.85 -57.5 9.6 -54.7 L9.7 -55.55 8.9 -53.85 8.8 -53.8 8.8 -53.65 4.75 -45.5 Q5.65 -56.65 -4.75 -65.05 L-1.5 -72.75 Q1.45 -74.15 4.6 -75.1" fill="#000000" fill-rule="evenodd" stroke="none"/>
  </g>
</svg>
