<?xml version="1.0" encoding="UTF-8" standalone="no"?>
<svg xmlns:xlink="http://www.w3.org/1999/xlink" height="53.2px" width="150.2px" xmlns="http://www.w3.org/2000/svg">
  <g transform="matrix(1.0, 0.0, 0.0, 1.0, -141.9, 139.8)">
    <path d="M160.4 -136.8 L181.1 -139.6 204.1 -139.8 226.1 -138.3 248.6 -137.45 249.75 -137.3 255.6 -137.1 282.4 -133.8 283.9 -133.45 275.25 -134.3 286.1 -132.6 287.75 -131.45 287.9 -130.95 291.25 -128.6 292.1 -127.3 290.4 -119.45 285.9 -110.45 284.95 -109.8 284.9 -109.8 285.4 -109.8 284.75 -108.8 283.6 -105.95 281.9 -103.3 280.9 -103.1 281.9 -103.1 281.4 -101.45 281.75 -97.3 281.25 -90.3 281.1 -89.95 280.75 -86.6 162.4 -87.8 160.6 -89.3 159.1 -88.1 158.1 -87.8 157.1 -88.1 150.25 -93.3 146.75 -88.3 145.6 -87.3 Q145.1 -88.6 141.9 -87.3 L142.1 -88.3 147.25 -96.6 147.9 -96.3 148.25 -96.45 147.25 -97.45 147.6 -97.95 151.9 -101.8 152.4 -102.45 153.4 -102.95 154.25 -103.8 156.1 -105.1 156.25 -105.6 157.25 -105.9 157.6 -105.95 157.4 -105.95 157.25 -106.3 155.25 -107.45 155.25 -108.1 155.6 -109.1 155.6 -109.6 155.75 -109.95 155.9 -110.8 156.1 -111.45 156.1 -111.95 156.25 -112.3 156.9 -115.6 156.9 -116.3 156.75 -116.3 157.1 -116.95 158.9 -126.6 158.75 -126.6 159.1 -127.3 160.25 -136.1 160.4 -136.45 160.4 -136.6 160.4 -136.8 M262.6 -112.3 L262.9 -108.95 263.6 -111.6 263.75 -111.95 264.9 -115.3 264.75 -115.6 262.6 -112.3 M159.4 -105.3 L158.75 -105.8 160.3 -104.2 160.25 -104.3 159.9 -104.8 159.4 -105.3 M158.1 -108.1 L158.25 -107.8 158.25 -107.3 158.75 -106.45 158.9 -107.3 158.6 -108.3 158.1 -108.1" fill="#000000" fill-opacity="0.7019608" fill-rule="evenodd" stroke="none"/>
  </g>
</svg>
