<?xml version="1.0" encoding="UTF-8" standalone="no"?>
<svg xmlns:xlink="http://www.w3.org/1999/xlink" height="467.85px" width="829.7px" xmlns="http://www.w3.org/2000/svg">
  <g transform="matrix(1.0, 0.0, 0.0, 1.0, 414.0, 236.0)">
    <path d="M121.65 -60.4 Q130.65 -64.6 139.65 -59.8 L147.6 -55.65 Q151.25 -54.65 154.1 -54.9 157.3 -55.2 159.5 -57.1 L160.2 -57.15 160.15 -57.7 Q167.65 -65.6 176.3 -60.95 L183.3 -57.2 Q189.85 -53.8 197.1 -52.85 L199.8 -52.6 204.1 -52.35 Q210.05 -50.0 213.45 -52.1 L243.8 -53.7 Q254.6 -54.9 261.5 -51.55 277.2 -44.0 293.8 -42.65 L303.8 -41.8 307.7 -41.5 319.75 -40.55 Q329.3 -39.75 337.9 -43.65 345.8 -47.25 355.25 -44.5 364.9 -37.45 372.4 -33.35 376.7 -31.05 381.5 -29.45 L389.9 -26.8 Q395.7 -25.05 401.75 -24.3 L415.7 -22.75 415.7 -14.1 401.75 -14.95 389.7 -15.35 Q366.4 -15.25 343.85 -18.85 L331.7 -20.1 299.75 -21.8 291.85 -22.75 Q277.0 -25.3 257.75 -24.65 241.5 -24.05 221.7 -20.2 216.55 -18.1 205.7 -12.85 L185.55 -13.65 Q182.75 -15.05 179.65 -15.55 169.9 -17.1 159.9 -13.15 150.6 -14.15 135.75 -19.95 119.15 -27.45 94.6 -26.8 L92.1 -26.75 Q88.8 -28.05 84.05 -33.05 88.95 -35.2 93.25 -38.75 L105.25 -48.75 113.2 -54.85 Q117.9 -58.35 120.65 -59.85 L121.4 -59.6 121.65 -60.4 M-414.0 -43.45 L-402.15 -56.2 Q-397.3 -61.35 -386.15 -59.25 -382.6 -58.2 -379.1 -57.45 L-377.65 -57.15 -376.05 -56.9 -366.4 -55.8 Q-362.2 -55.55 -358.05 -55.75 -351.05 -56.05 -344.6 -54.2 L-340.65 -49.5 Q-333.55 -41.9 -322.05 -40.35 L-322.05 -40.3 Q-324.05 -38.05 -330.15 -34.35 -334.05 -33.05 -338.1 -32.35 -352.5 -29.8 -356.1 -18.05 -357.05 -15.05 -358.5 -12.3 -362.15 -5.35 -367.7 2.2 -372.1 8.2 -383.95 7.4 -394.3 6.65 -400.55 15.3 -406.65 20.7 -414.0 26.1 L-414.0 -43.45 M-169.3 -61.75 Q-162.25 -63.25 -157.65 -60.9 -152.1 -58.05 -146.25 -55.7 -137.9 -52.4 -130.35 -58.35 -127.55 -60.5 -122.15 -60.85 -112.3 -61.5 -103.55 -57.25 L-75.4 -56.0 -54.2 -55.15 Q-51.15 -55.05 -48.35 -53.65 -35.15 -46.15 -25.95 -42.6 L-24.4 -42.0 Q-16.6 -39.15 -8.25 -37.6 L-8.05 -37.55 -2.15 -36.05 Q5.85 -33.35 10.75 -29.05 L2.85 -20.65 Q-2.95 -14.85 -7.55 -11.3 -9.15 -10.05 -13.6 -7.15 L-17.1 -5.05 Q-20.5 -3.15 -23.95 -1.6 L-29.75 0.75 -38.45 5.45 Q-42.5 10.05 -48.55 6.7 -56.5 2.3 -66.85 -5.8 L-69.95 -8.3 -77.0 -13.05 Q-80.95 -17.65 -88.0 -22.15 -93.45 -29.55 -107.55 -28.95 -115.6 -33.75 -127.6 -33.2 -132.8 -30.25 -137.65 -28.25 -140.95 -26.9 -144.1 -26.0 -150.2 -24.2 -157.7 -19.25 -158.85 -15.8 -168.05 -15.7 -182.8 -13.9 -196.3 -21.45 -203.35 -23.8 -212.0 -29.15 L-213.9 -30.35 -224.3 -38.45 Q-233.65 -33.95 -244.4 -25.55 -263.3 -21.25 -287.8 -21.4 -303.05 -24.25 -313.95 -40.0 L-322.0 -40.35 Q-310.65 -49.85 -292.0 -48.8 L-264.05 -47.75 -253.9 -46.95 -242.05 -45.7 Q-233.0 -45.1 -224.3 -38.45 -218.4 -45.35 -208.05 -44.7 -201.55 -44.3 -200.4 -49.7 -189.05 -57.65 -178.2 -58.8 -173.35 -60.9 -169.3 -61.75 M178.0 -49.55 Q178.0 -47.2 178.35 -45.3 L178.65 -43.35 178.7 -42.5 Q176.5 -32.35 174.4 -30.25 L179.4 -26.65 180.8 -26.65 Q180.2 -32.0 184.45 -33.75 187.0 -34.8 193.75 -35.9 L193.75 -38.8 196.15 -38.9 202.35 -39.6 Q202.25 -40.75 203.3 -41.9 L205.1 -43.8 205.2 -43.9 Q202.9 -45.3 196.2 -46.3 L188.6 -47.6 187.3 -48.85 Q185.15 -50.8 180.7 -51.1 176.55 -51.4 175.8 -52.45 175.5 -51.55 176.0 -50.8 176.55 -49.95 178.0 -49.55 M283.25 -42.4 L280.35 -40.5 Q278.3 -39.1 278.3 -37.4 278.3 -35.7 284.6 -32.65 287.65 -31.15 291.85 -29.55 292.8 -29.1 293.95 -27.8 L295.75 -25.25 Q297.6 -22.35 300.75 -22.35 305.7 -22.35 310.05 -23.9 315.2 -25.8 315.45 -28.85 L311.9 -28.85 Q305.25 -27.6 299.7 -28.85 300.4 -28.85 300.4 -29.55 L302.55 -30.55 Q303.8 -31.15 304.7 -32.35 L299.9 -32.7 Q294.75 -33.4 291.15 -35.4 287.85 -37.3 283.25 -42.4 M-172.25 -54.5 Q-173.75 -54.2 -174.95 -52.9 -176.75 -51.05 -176.55 -48.85 L-177.05 -48.75 Q-185.0 -47.65 -185.8 -43.9 L-184.15 -43.5 -183.0 -43.1 Q-183.0 -41.8 -184.4 -38.8 L-184.4 -35.9 -180.85 -35.9 Q-180.15 -36.6 -178.05 -36.6 -178.8 -40.1 -174.95 -43.5 L-172.25 -46.3 Q-170.85 -48.25 -170.85 -49.9 -170.85 -50.75 -171.55 -52.25 -172.2 -53.65 -172.25 -54.5 M-46.65 -46.3 L-53.65 -46.7 -53.75 -46.55 -54.0 -45.95 -54.15 -44.95 Q-54.15 -44.2 -52.35 -42.0 L-50.55 -39.95 Q-50.55 -39.4 -53.15 -37.1 -55.55 -34.95 -54.85 -33.1 L-48.05 -29.05 Q-44.9 -26.6 -44.75 -24.1 L-44.75 -23.85 -40.15 -23.55 Q-37.1 -22.85 -35.5 -21.65 -37.3 -19.6 -37.85 -18.0 -38.4 -16.5 -38.4 -13.8 -38.4 -12.9 -38.0 -12.2 -37.6 -11.55 -37.6 -10.9 L-34.1 -10.9 Q-25.55 -29.1 -18.25 -25.25 L-17.9 -25.9 Q-17.55 -26.35 -17.55 -27.35 -17.55 -30.15 -25.95 -30.8 L-36.9 -30.95 -36.9 -33.8 -34.8 -35.9 -36.55 -36.95 -39.2 -38.45 Q-42.15 -40.15 -44.05 -40.3 -42.75 -45.15 -46.65 -46.3" fill="#cccccc" fill-rule="evenodd" stroke="none"/>
    <path d="M-75.4 -56.0 Q-73.75 -58.65 -72.85 -61.65 -69.1 -70.0 -66.65 -72.55 -62.15 -77.05 -60.25 -78.2 -57.0 -80.1 -54.5 -85.25 -51.15 -88.05 -49.85 -89.85 L-41.35 -101.45 Q-26.45 -105.1 -17.5 -99.0 -3.55 -98.65 2.4 -94.95 19.7 -90.35 28.65 -83.05 36.5 -79.4 39.6 -77.6 44.75 -74.55 51.85 -74.95 60.8 -74.05 65.65 -74.85 71.75 -76.0 73.6 -73.85 79.95 -66.65 88.5 -73.1 100.1 -74.25 105.2 -69.55 L114.15 -64.65 Q116.8 -63.05 120.6 -59.9 L120.65 -59.85 Q117.9 -58.35 113.2 -54.85 L105.25 -48.75 93.25 -38.75 Q88.95 -35.2 84.05 -33.05 76.15 -33.9 65.85 -36.3 52.4 -39.4 32.35 -36.95 29.3 -35.6 21.85 -35.05 19.4 -35.05 15.6 -32.6 L10.75 -29.05 Q5.85 -33.35 -2.15 -36.05 L-8.05 -37.55 -8.25 -37.6 Q-16.6 -39.15 -24.4 -42.0 L-25.95 -42.6 Q-35.15 -46.15 -48.35 -53.65 -51.15 -55.05 -54.2 -55.15 L-75.4 -56.0 M213.45 -52.1 L213.45 -52.15 Q220.5 -69.35 235.8 -75.9 243.3 -79.1 251.75 -79.65 262.45 -80.35 271.95 -74.35 276.15 -71.65 281.7 -71.35 L291.8 -70.7 Q297.2 -70.3 302.6 -70.45 L309.7 -70.85 325.7 -71.85 Q332.15 -71.65 338.05 -68.8 360.7 -61.8 381.7 -64.0 386.95 -64.55 392.0 -63.1 395.7 -62.05 399.7 -62.25 L415.7 -62.9 415.7 -22.75 401.75 -24.3 Q395.7 -25.05 389.9 -26.8 L381.5 -29.45 Q376.7 -31.05 372.4 -33.35 364.9 -37.45 355.25 -44.5 345.8 -47.25 337.9 -43.65 329.3 -39.75 319.75 -40.55 L307.7 -41.5 303.8 -41.8 293.8 -42.65 Q277.2 -44.0 261.5 -51.55 254.6 -54.9 243.8 -53.7 L213.45 -52.1 M-366.4 -55.8 Q-350.45 -61.1 -343.6 -65.3 -334.9 -70.6 -326.1 -65.95 -318.75 -62.1 -310.35 -60.5 -298.7 -54.0 -290.2 -58.4 -284.2 -61.5 -278.65 -65.0 L-272.55 -68.9 -262.25 -74.45 Q-254.0 -79.4 -246.0 -78.35 -234.85 -76.85 -228.15 -80.15 -218.95 -84.6 -212.9 -77.05 -209.1 -74.05 -207.5 -72.95 -200.05 -68.8 -194.05 -69.0 -187.4 -60.75 -178.2 -58.8 -189.05 -57.65 -200.4 -49.7 -201.55 -44.3 -208.05 -44.7 -218.4 -45.35 -224.3 -38.45 -233.0 -45.1 -242.05 -45.7 L-253.9 -46.95 -264.05 -47.75 -292.0 -48.8 Q-310.65 -49.85 -322.0 -40.35 L-322.05 -40.35 Q-333.55 -41.9 -340.65 -49.5 L-344.6 -54.2 Q-351.05 -56.05 -358.05 -55.75 -362.2 -55.55 -366.4 -55.8" fill="#dddddd" fill-rule="evenodd" stroke="none"/>
    <path d="M120.65 -59.85 L120.6 -59.9 Q116.8 -63.05 114.15 -64.65 L105.2 -69.55 Q100.1 -74.25 88.5 -73.1 79.95 -66.65 73.6 -73.85 71.75 -76.0 65.65 -74.85 60.8 -74.05 51.85 -74.95 44.75 -74.55 39.6 -77.6 36.5 -79.4 28.65 -83.05 19.7 -90.35 2.4 -94.95 -3.55 -98.65 -17.5 -99.0 -26.45 -105.1 -41.35 -101.45 L-49.85 -89.85 Q-51.15 -88.05 -54.5 -85.25 -57.0 -80.1 -60.25 -78.2 -62.15 -77.05 -66.65 -72.55 -69.1 -70.0 -72.85 -61.65 -73.75 -58.65 -75.4 -56.0 L-103.55 -57.25 Q-112.3 -61.5 -122.15 -60.85 -127.55 -60.5 -130.35 -58.35 -137.9 -52.4 -146.25 -55.7 -152.1 -58.05 -157.65 -60.9 -162.25 -63.25 -169.3 -61.75 -170.75 -62.4 -178.2 -58.8 -187.4 -60.75 -194.05 -69.0 -200.05 -68.8 -207.5 -72.95 -209.1 -74.05 -212.9 -77.05 -218.95 -84.6 -228.15 -80.15 -234.85 -76.85 -246.0 -78.35 -254.0 -79.4 -262.25 -74.45 L-272.55 -68.9 -278.65 -65.0 Q-284.2 -61.5 -290.2 -58.4 -298.7 -54.0 -310.35 -60.5 -318.75 -62.1 -326.1 -65.95 -334.9 -70.6 -343.6 -65.3 -350.45 -61.1 -366.4 -55.8 L-376.05 -56.9 -377.65 -57.15 -379.1 -57.45 Q-382.6 -58.2 -386.15 -59.25 -397.3 -61.35 -402.15 -56.2 L-414.0 -43.45 -414.0 -236.0 415.7 -236.0 415.7 -62.9 399.7 -62.25 Q395.7 -62.05 392.0 -63.1 386.95 -64.55 381.7 -64.0 360.7 -61.8 338.05 -68.8 332.15 -71.65 325.7 -71.85 L309.7 -70.85 302.6 -70.45 Q297.2 -70.3 291.8 -70.7 L281.7 -71.35 Q276.15 -71.65 271.95 -74.35 262.45 -80.35 251.75 -79.65 243.3 -79.1 235.8 -75.9 220.5 -69.35 213.45 -52.15 L213.45 -52.1 204.1 -52.35 203.9 -52.45 197.1 -52.85 Q189.85 -53.8 183.3 -57.2 L176.3 -60.95 Q167.65 -65.6 160.15 -57.7 L159.5 -57.1 Q156.75 -56.65 154.1 -54.9 L147.6 -55.65 139.65 -59.8 Q130.65 -64.6 121.65 -60.4 L120.65 -59.85" fill="#e6e6e6" fill-rule="evenodd" stroke="none"/>
    <path d="M15.6 -32.6 Q19.4 -35.05 21.85 -35.05 29.3 -35.6 32.35 -36.95 52.4 -39.4 65.85 -36.3 76.15 -33.9 84.05 -33.05 88.8 -28.05 92.1 -26.75 L94.6 -26.8 Q119.15 -27.45 135.75 -19.95 150.6 -14.15 159.9 -13.15 169.9 -17.1 179.65 -15.55 182.75 -15.05 185.55 -13.65 L205.7 -12.85 Q216.55 -18.1 221.7 -20.2 241.5 -24.05 257.75 -24.65 277.0 -25.3 291.85 -22.75 L299.75 -21.8 331.7 -20.1 343.85 -18.85 Q366.4 -15.25 389.7 -15.35 L401.75 -14.95 415.7 -14.1 415.7 231.85 -414.0 231.85 -414.0 26.1 Q-406.65 20.7 -400.55 15.3 -394.3 6.65 -383.95 7.4 -372.1 8.2 -367.7 2.2 -362.15 -5.35 -358.5 -12.3 -357.05 -15.05 -356.1 -18.05 -352.5 -29.8 -338.1 -32.35 -334.05 -33.05 -330.15 -34.35 -324.05 -38.05 -322.05 -40.3 L-322.0 -40.35 -313.95 -40.0 Q-303.05 -24.25 -287.8 -21.4 -263.3 -21.25 -244.4 -25.55 -233.65 -33.95 -224.3 -38.45 L-213.9 -30.35 -212.0 -29.15 Q-203.35 -23.8 -196.3 -21.45 -182.8 -13.9 -168.05 -15.7 -158.85 -15.8 -157.7 -19.25 -150.2 -24.2 -144.1 -26.0 -140.95 -26.9 -137.65 -28.25 -132.8 -30.25 -127.6 -33.2 -115.6 -33.75 -107.55 -28.95 -93.45 -29.55 -88.0 -22.15 -80.95 -17.65 -77.0 -13.05 L-69.95 -8.3 -66.85 -5.8 Q-56.5 2.3 -48.55 6.7 -42.5 10.05 -38.45 5.45 L-29.75 0.75 -23.95 -1.6 Q-20.5 -3.15 -17.1 -5.05 -13.95 -5.6 -9.9 -7.5 L-0.3 -13.1 3.95 -13.1 3.95 -11.6 -5.05 -5.0 Q-9.6 -1.6 -9.7 2.65 6.25 -0.95 13.25 -4.4 12.8 -4.85 12.65 -5.35 L12.55 -5.8 17.55 -5.8 Q17.55 -5.45 18.25 -5.1 L18.95 -4.4 21.8 -4.4 21.8 -4.85 Q21.5 -7.1 19.0 -12.1 16.15 -17.65 16.15 -18.4 L17.55 -20.25 19.7 -22.35 Q17.1 -26.9 16.9 -28.85 L16.85 -29.05 16.15 -31.0 15.6 -32.6 M66.25 -29.55 L66.25 -30.95 62.0 -30.65 Q59.1 -30.05 59.1 -28.5 59.1 -28.05 60.55 -26.7 62.0 -25.3 62.0 -23.85 L61.95 -19.4 Q61.4 -16.5 58.3 -13.8 L58.3 -5.1 60.5 -5.1 Q61.15 -5.75 63.5 -13.5 L63.95 -14.8 Q65.8 -20.15 68.0 -20.15 68.5 -20.15 70.55 -18.75 L70.75 -18.6 Q72.65 -17.2 72.65 -16.65 72.65 -15.85 71.75 -14.55 L70.55 -13.1 70.55 -10.2 77.75 -10.2 80.7 -11.15 83.4 -11.6 Q90.7 -11.6 95.9 -6.0 L99.8 -1.5 Q102.05 0.95 104.15 1.95 103.4 0.45 102.65 -5.7 102.1 -10.05 99.15 -11.6 92.0 -15.4 91.6 -15.7 86.7 -18.9 87.0 -21.65 83.8 -21.35 81.7 -21.65 76.6 -22.45 77.75 -26.65 75.0 -26.55 71.55 -28.1 68.1 -29.65 66.25 -29.55 M-312.7 -24.0 Q-314.05 -23.05 -315.65 -22.2 -319.05 -20.45 -321.25 -20.85 -317.35 -18.55 -315.4 -15.15 L-315.1 -14.65 Q-313.3 -11.15 -312.0 -4.4 L-311.6 -4.3 Q-311.2 -4.15 -311.2 -3.7 -310.05 -4.85 -309.7 -7.45 L-309.3 -11.9 Q-309.0 -14.3 -307.55 -15.15 -306.1 -16.05 -303.35 -15.2 L-303.25 -16.15 -302.65 -16.6 -308.85 -21.55 Q-310.75 -23.1 -312.7 -24.0 M-257.1 -8.7 L-258.15 -8.55 Q-266.85 -7.25 -268.95 -5.1 -267.45 -3.6 -262.0 -2.45 -257.8 -1.55 -256.1 -1.55 -253.1 -1.55 -247.9 -5.65 -245.75 -7.4 -243.65 -8.15 -241.75 -8.95 -239.9 -8.9 L-238.85 -8.8 -236.45 -3.0 Q-235.1 -0.1 -233.15 1.25 L-233.15 -1.6 Q-233.15 -3.25 -234.25 -6.9 L-235.15 -10.55 -235.35 -12.75 Q-235.35 -13.6 -234.6 -14.7 -233.85 -15.75 -233.85 -16.65 -233.85 -17.95 -234.35 -19.45 L-234.95 -21.3 Q-235.0 -22.15 -233.7 -23.0 -238.1 -22.65 -242.0 -20.45 -247.05 -17.65 -248.9 -13.1 -250.15 -9.95 -257.1 -8.7 M-105.25 -18.4 Q-107.4 -17.35 -108.55 -17.35 -109.4 -17.35 -111.25 -18.05 L-114.0 -18.75 Q-115.05 -18.75 -117.45 -17.45 -118.6 -16.85 -119.35 -16.15 L-117.8 -14.9 Q-114.55 -12.7 -112.85 -10.2 L-110.3 -5.8 Q-108.2 -2.4 -106.35 -1.55 -103.4 -0.15 -94.2 7.2 -86.05 13.65 -81.35 14.9 L-79.85 14.9 -79.85 9.95 Q-81.95 7.85 -86.95 3.7 L-93.5 -1.55 -93.5 -4.4 -82.05 -5.1 -82.05 -7.3 Q-87.65 -6.7 -91.0 -9.45 -94.75 -12.55 -92.7 -18.05 L-94.5 -18.15 -98.05 -18.75 -102.45 -19.45 Q-103.05 -19.45 -105.25 -18.4" fill="#c4c4c4" fill-rule="evenodd" stroke="none"/>
    <path d="M10.75 -29.05 L15.6 -32.6 16.15 -31.0 16.85 -29.05 16.9 -28.85 Q17.1 -26.9 19.7 -22.35 L17.55 -20.25 16.15 -18.4 Q16.15 -17.65 19.0 -12.1 21.5 -7.1 21.8 -4.85 L21.8 -4.4 18.95 -4.4 18.25 -5.1 Q17.55 -5.45 17.55 -5.8 L12.55 -5.8 12.65 -5.35 Q12.8 -4.85 13.25 -4.4 6.25 -0.95 -9.7 2.65 -9.6 -1.6 -5.05 -5.0 L3.95 -11.6 3.95 -13.1 -0.3 -13.1 -9.9 -7.5 Q-13.95 -5.6 -17.1 -5.05 L-13.6 -7.15 Q-9.15 -10.05 -7.55 -11.3 -2.95 -14.85 2.85 -20.65 L10.75 -29.05 M66.25 -29.55 Q68.1 -29.65 71.55 -28.1 75.0 -26.55 77.75 -26.65 76.6 -22.45 81.7 -21.65 83.8 -21.35 87.0 -21.65 86.7 -18.9 91.6 -15.7 92.0 -15.4 99.15 -11.6 102.1 -10.05 102.65 -5.7 103.4 0.45 104.15 1.95 102.05 0.95 99.8 -1.5 L95.9 -6.0 Q90.7 -11.6 83.4 -11.6 L80.7 -11.15 77.75 -10.2 70.55 -10.2 70.55 -13.1 71.75 -14.55 Q72.65 -15.85 72.65 -16.65 72.65 -17.2 70.75 -18.6 L70.55 -18.75 Q68.5 -20.15 68.0 -20.15 65.8 -20.15 63.95 -14.8 L63.5 -13.5 Q61.15 -5.75 60.5 -5.1 L58.3 -5.1 58.3 -13.8 Q61.4 -16.5 61.95 -19.4 L62.0 -23.85 Q62.0 -25.3 60.55 -26.7 59.1 -28.05 59.1 -28.5 59.1 -30.05 62.0 -30.65 L66.25 -30.95 66.25 -29.55 M-312.7 -24.0 Q-310.75 -23.1 -308.85 -21.55 L-302.65 -16.6 -303.25 -16.15 -303.35 -15.2 Q-306.1 -16.05 -307.55 -15.15 -309.0 -14.3 -309.3 -11.9 L-309.7 -7.45 Q-310.05 -4.85 -311.2 -3.7 -311.2 -4.15 -311.6 -4.3 L-312.0 -4.4 Q-313.3 -11.15 -315.1 -14.65 L-315.4 -15.15 Q-317.35 -18.55 -321.25 -20.85 -319.05 -20.45 -315.65 -22.2 -314.05 -23.05 -312.7 -24.0 M-257.1 -8.7 Q-250.15 -9.95 -248.9 -13.1 -247.05 -17.65 -242.0 -20.45 -238.1 -22.65 -233.7 -23.0 -235.0 -22.15 -234.95 -21.3 L-234.35 -19.45 Q-233.85 -17.95 -233.85 -16.65 -233.85 -15.75 -234.6 -14.7 -235.35 -13.6 -235.35 -12.75 L-235.15 -10.55 -234.25 -6.9 Q-233.15 -3.25 -233.15 -1.6 L-233.15 1.25 Q-235.1 -0.1 -236.45 -3.0 L-238.85 -8.8 -239.9 -8.9 Q-241.75 -8.95 -243.65 -8.15 -245.75 -7.4 -247.9 -5.65 -253.1 -1.55 -256.1 -1.55 -257.8 -1.55 -262.0 -2.45 -267.45 -3.6 -268.95 -5.1 -266.85 -7.25 -258.15 -8.55 L-257.1 -8.7 M-105.25 -18.4 Q-103.05 -19.45 -102.45 -19.45 L-98.05 -18.75 -94.5 -18.15 -92.7 -18.05 Q-94.75 -12.55 -91.0 -9.45 -87.65 -6.7 -82.05 -7.3 L-82.05 -5.1 -93.5 -4.4 -93.5 -1.55 -86.95 3.7 Q-81.95 7.85 -79.85 9.95 L-79.85 14.9 -81.35 14.9 Q-86.05 13.65 -94.2 7.2 -103.4 -0.15 -106.35 -1.55 -108.2 -2.4 -110.3 -5.8 L-112.85 -10.2 Q-114.55 -12.7 -117.8 -14.9 L-119.35 -16.15 Q-118.6 -16.85 -117.45 -17.45 -115.05 -18.75 -114.0 -18.75 L-111.25 -18.05 Q-109.4 -17.35 -108.55 -17.35 -107.4 -17.35 -105.25 -18.4" fill="#bbbbbb" fill-rule="evenodd" stroke="none"/>
    <path d="M178.0 -49.55 Q176.55 -49.95 176.0 -50.8 175.5 -51.55 175.8 -52.45 176.55 -51.4 180.7 -51.1 185.15 -50.8 187.3 -48.85 L188.6 -47.6 196.2 -46.3 Q202.9 -45.3 205.2 -43.9 L205.1 -43.8 203.3 -41.9 Q202.25 -40.75 202.35 -39.6 L196.15 -38.9 193.75 -38.8 193.75 -35.9 Q187.0 -34.8 184.45 -33.75 180.2 -32.0 180.8 -26.65 L179.4 -26.65 174.4 -30.25 Q176.5 -32.35 178.7 -42.5 L178.65 -43.35 178.35 -45.3 Q178.0 -47.2 178.0 -49.55 M283.25 -42.4 Q287.85 -37.3 291.15 -35.4 294.75 -33.4 299.9 -32.7 L304.7 -32.35 Q303.8 -31.15 302.55 -30.55 L300.4 -29.55 Q300.4 -28.85 299.7 -28.85 305.25 -27.6 311.9 -28.85 L315.45 -28.85 Q315.2 -25.8 310.05 -23.9 305.7 -22.35 300.75 -22.35 297.6 -22.35 295.75 -25.25 L293.95 -27.8 Q292.8 -29.1 291.85 -29.55 287.65 -31.15 284.6 -32.65 278.3 -35.7 278.3 -37.4 278.3 -39.1 280.35 -40.5 L283.25 -42.4 M-172.25 -54.5 Q-172.2 -53.65 -171.55 -52.25 -170.85 -50.75 -170.85 -49.9 -170.85 -48.25 -172.25 -46.3 L-174.95 -43.5 Q-178.8 -40.1 -178.05 -36.6 -180.15 -36.6 -180.85 -35.9 L-184.4 -35.9 -184.4 -38.8 Q-183.0 -41.8 -183.0 -43.1 L-184.15 -43.5 -185.8 -43.9 Q-185.0 -47.65 -177.05 -48.75 L-176.55 -48.85 Q-176.75 -51.05 -174.95 -52.9 -173.75 -54.2 -172.25 -54.5 M-46.65 -46.3 Q-42.75 -45.15 -44.05 -40.3 -42.15 -40.15 -39.2 -38.45 L-36.55 -36.95 -34.8 -35.9 -36.9 -33.8 -36.9 -30.95 -25.95 -30.8 Q-17.55 -30.15 -17.55 -27.35 -17.55 -26.35 -17.9 -25.9 L-18.25 -25.25 Q-25.55 -29.1 -34.1 -10.9 L-37.6 -10.9 Q-37.6 -11.55 -38.0 -12.2 -38.4 -12.9 -38.4 -13.8 -38.4 -16.5 -37.85 -18.0 -37.3 -19.6 -35.5 -21.65 -37.1 -22.85 -40.15 -23.55 L-44.75 -23.85 -44.75 -24.1 Q-44.9 -26.6 -48.05 -29.05 L-54.85 -33.1 Q-55.55 -34.95 -53.15 -37.1 -50.55 -39.4 -50.55 -39.95 L-52.35 -42.0 Q-54.15 -44.2 -54.15 -44.95 L-54.0 -45.95 -53.75 -46.55 -53.65 -46.7 -46.65 -46.3" fill="#bfbfbf" fill-rule="evenodd" stroke="none"/>
  </g>
</svg>
