<?xml version="1.0" encoding="UTF-8" standalone="no"?>
<svg xmlns:xlink="http://www.w3.org/1999/xlink" height="10.1px" width="30.4px" xmlns="http://www.w3.org/2000/svg">
  <g transform="matrix(1.0, 0.0, 0.0, 1.0, 14.6, 0.35)">
    <path d="M12.25 2.8 Q12.35 2.5 12.55 2.5 L13.9 2.8 14.85 3.25 14.55 3.5 12.75 4.9 Q12.6 5.0 12.6 5.2 L12.6 5.5 11.85 5.6 9.45 6.15 Q9.05 6.4 8.3 7.0 6.85 8.3 3.6 8.85 L4.3 7.9 Q4.9 7.0 5.75 6.4 L6.65 5.65 Q7.05 5.25 7.15 5.2 L7.15 5.15 6.85 5.2 4.9 5.6 3.0 5.6 1.85 5.85 0.2 6.3 0.15 6.15 0.55 5.3 0.55 5.25 -0.05 5.3 -2.6 6.1 -3.95 6.5 -4.75 6.65 -6.35 6.95 -7.35 7.15 -7.45 7.15 -8.45 7.0 -9.7 6.85 -11.45 6.75 -13.7 6.85 -10.8 6.1 -6.6 5.45 -3.35 4.05 -2.85 3.85 -0.5 3.05 2.55 2.25 Q2.7 2.65 3.8 2.85 L4.95 2.9 Q5.55 2.45 5.5 1.9 L4.9 1.1 Q4.3 0.5 3.85 0.5 L5.55 0.75 6.7 1.15 Q7.55 1.6 7.95 2.0 L8.4 2.4 8.45 2.7 Q8.4 2.9 8.7 3.05 L9.05 3.2 9.7 3.25 11.3 3.15 12.25 2.9 12.25 2.8" fill="#ffffff" fill-opacity="0.47058824" fill-rule="evenodd" stroke="none"/>
    <path d="M5.75 -0.1 L7.1 0.4 8.5 1.35 8.45 1.35 9.15 1.95 9.15 2.0 9.3 2.3 9.75 2.35 11.2 2.25 Q11.45 2.25 11.45 2.45 11.7 1.6 12.45 1.65 13.0 1.55 14.25 2.0 15.9 2.65 15.7 3.2 16.05 3.65 15.0 4.25 L13.5 5.45 13.3 6.05 12.65 6.35 11.9 6.45 9.85 6.95 Q9.45 7.15 8.9 7.65 7.35 9.15 3.7 9.7 L3.05 9.55 Q2.75 9.35 2.75 9.0 2.65 8.65 2.85 8.4 L3.6 7.35 3.65 7.35 4.3 6.5 3.05 6.45 2.1 6.7 0.35 7.15 -0.1 7.1 -0.45 6.85 -0.65 6.4 -2.4 6.95 -3.6 7.3 -3.65 7.3 -4.6 7.45 -4.65 7.45 -6.2 7.8 -7.05 7.95 -7.35 8.0 -8.6 7.9 -9.75 7.7 -11.5 7.6 -13.6 7.7 -14.2 7.55 -14.55 7.0 Q-14.65 6.65 -14.4 6.4 L-13.9 6.0 -11.05 5.25 -10.95 5.25 -6.85 4.65 -3.7 3.3 -3.25 3.05 -3.2 3.05 Q-2.45 2.7 -0.7 2.3 L2.3 1.4 2.75 1.35 3.15 1.65 3.4 2.0 3.9 1.95 4.65 2.05 4.65 2.0 4.3 1.75 4.3 1.7 3.9 1.35 Q3.5 1.4 3.25 1.15 2.95 0.95 2.95 0.6 2.9 0.2 3.2 -0.05 L3.75 -0.35 5.75 -0.1 M12.25 2.8 L12.25 2.9 11.3 3.15 9.7 3.25 9.05 3.2 8.7 3.05 Q8.4 2.9 8.45 2.7 L8.4 2.4 7.95 2.0 Q7.55 1.6 6.7 1.15 L5.55 0.75 3.85 0.5 Q4.3 0.5 4.9 1.1 L5.5 1.9 Q5.55 2.45 4.95 2.9 L3.8 2.85 Q2.7 2.65 2.55 2.25 L-0.5 3.05 -2.85 3.85 -3.35 4.05 -6.6 5.45 -10.8 6.1 -13.7 6.85 -11.45 6.75 -9.7 6.85 -8.45 7.0 -7.45 7.15 -7.35 7.15 -6.35 6.95 -4.75 6.65 -3.95 6.5 -2.6 6.1 -0.05 5.3 0.55 5.25 0.55 5.3 0.15 6.15 0.2 6.3 1.85 5.85 3.0 5.6 4.9 5.6 6.85 5.2 7.15 5.15 7.15 5.2 Q7.05 5.25 6.65 5.65 L5.75 6.4 Q4.9 7.0 4.3 7.9 L3.6 8.85 Q6.85 8.3 8.3 7.0 9.05 6.4 9.45 6.15 L11.85 5.6 12.6 5.5 12.6 5.2 Q12.6 5.0 12.75 4.9 L14.55 3.5 14.85 3.25 13.9 2.8 12.55 2.5 Q12.35 2.5 12.25 2.8" fill="#000000" fill-opacity="0.47058824" fill-rule="evenodd" stroke="none"/>
  </g>
</svg>
