<?xml version="1.0" encoding="UTF-8" standalone="no"?>
<svg xmlns:xlink="http://www.w3.org/1999/xlink" height="290.55px" width="831.7px" xmlns="http://www.w3.org/2000/svg">
  <g transform="matrix(1.0, 0.0, 0.0, 1.0, 414.0, 56.55)">
    <path d="M-153.0 36.0 Q-153.6 36.0 -153.85 36.5 L-154.0 37.0 Q-175.4 38.3 -183.45 40.35 -188.7 41.7 -189.2 43.95 L-189.55 45.55 Q-190.05 46.35 -191.7 46.8 L-192.25 46.95 -211.5 48.0 -222.8 47.4 -239.0 46.0 -239.0 44.0 -236.5 41.2 Q-234.95 39.25 -235.0 38.0 -240.5 38.65 -245.15 36.35 -248.1 34.9 -251.0 32.0 -249.0 31.05 -244.25 29.8 L-243.1 29.55 -243.0 30.0 -242.85 29.45 Q-239.0 28.45 -238.05 27.15 L-234.5 27.0 -226.75 28.0 -219.0 29.0 Q-210.1 29.0 -196.95 25.5 L-184.5 22.0 Q-183.5 22.0 -178.85 23.8 -173.25 25.95 -172.0 28.0 -173.6 27.7 -174.05 28.45 L-174.4 29.3 -175.0 31.0 Q-174.0 31.0 -174.0 32.0 -170.5 32.65 -161.8 31.7 -154.5 31.55 -153.0 36.0 M26.2 28.5 L26.25 28.55 27.85 30.0 24.85 31.4 Q23.2 32.0 21.85 32.0 L21.85 30.0 Q23.35 28.25 24.3 27.6 25.65 26.65 26.85 27.0 25.2 27.6 26.2 28.5 M30.45 33.1 L32.85 33.0 Q32.85 34.0 33.85 35.5 L34.65 37.05 34.85 38.0 33.15 39.4 Q32.25 39.85 31.05 40.0 L30.35 40.0 27.9 39.5 Q26.8 39.0 25.85 39.0 24.9 36.55 26.65 34.9 L27.2 34.45 Q28.45 33.45 30.45 33.1 M10.85 46.0 Q11.7 45.3 12.15 43.9 L12.95 43.1 14.85 43.5 17.85 44.0 17.85 46.0 Q17.25 46.0 17.0 46.5 L16.85 47.0 11.85 47.0 10.85 46.0 M0.25 35.05 L2.4 33.9 Q4.5 35.15 6.3 38.0 L6.85 39.0 Q6.2 39.0 6.0 39.65 5.85 40.0 5.85 41.0 L-1.15 41.0 -2.65 39.9 Q-3.55 39.3 -5.15 39.0 -4.15 39.0 -4.15 38.0 -3.5 37.35 -1.85 36.35 L0.25 35.05 M13.85 36.0 L13.85 33.0 15.85 32.5 17.85 32.0 19.85 34.0 19.75 34.05 16.85 35.5 15.85 35.95 15.35 36.1 13.85 36.0 M40.7 29.0 Q41.55 29.2 42.4 29.8 L44.55 31.6 Q45.85 32.7 46.85 33.0 46.25 33.0 46.0 33.5 L45.85 34.0 37.85 34.0 37.45 33.45 Q36.85 32.3 36.85 30.0 L37.5 29.55 37.7 29.45 40.7 29.0 M-157.0 174.5 Q-159.05 176.0 -163.0 180.0 L-163.0 182.0 Q-158.65 181.45 -152.95 183.15 -146.6 185.0 -143.5 185.0 -135.0 185.0 -128.2 180.0 L-123.35 176.55 Q-120.55 175.0 -117.5 175.0 -109.05 175.0 -97.45 177.55 L-78.0 182.0 -78.0 188.0 Q-80.85 189.35 -83.75 192.85 L-88.0 198.0 Q-84.3 201.25 -79.8 202.9 -74.1 205.0 -66.0 205.0 -62.1 205.0 -59.45 203.0 -56.3 200.6 -53.0 200.0 L-46.0 200.0 -45.85 200.5 Q-45.6 201.0 -45.0 201.0 -45.0 203.35 -47.5 206.0 -50.0 208.65 -50.0 210.0 -50.0 214.85 -45.0 217.7 -41.9 219.45 -41.55 219.7 -40.0 220.9 -40.0 222.5 -40.0 224.25 -46.05 228.5 -52.5 233.05 -53.0 234.0 L-302.1 234.0 Q-303.3 233.95 -304.7 233.35 L-305.5 233.0 Q-307.5 232.0 -309.0 232.0 -306.9 222.75 -319.85 218.85 L-330.65 216.15 Q-336.75 214.65 -339.0 213.0 -338.25 211.95 -333.75 210.5 -329.3 209.0 -327.0 209.0 -326.3 207.5 -326.1 204.5 -325.9 201.3 -325.5 200.2 -324.0 195.75 -315.0 197.0 L-318.95 192.6 Q-321.0 190.0 -321.0 187.0 -321.0 181.5 -293.45 177.75 L-258.0 174.0 -253.0 174.0 -255.1 176.75 Q-257.1 179.25 -258.0 180.0 L-258.0 181.0 -243.0 181.0 Q-235.5 179.55 -207.7 177.35 L-184.55 175.4 -152.0 172.0 Q-154.7 172.8 -157.0 174.5" fill="#000000" fill-opacity="0.101960786" fill-rule="evenodd" stroke="none"/>
    <path d="M237.1 22.35 L237.2 3.0 237.2 0.3 216.35 0.3 235.9 -16.55 237.3 -16.45 237.25 -6.0 272.4 30.0 288.55 42.0 384.45 124.5 415.7 134.9 417.7 187.0 262.95 153.0 236.85 79.85 237.1 28.5 237.1 22.35 249.25 85.65 276.9 114.9 358.35 115.8 288.45 58.65 272.35 46.2 237.1 22.35 M371.95 -27.5 L355.3 -25.7 355.3 -56.55 371.95 -39.55 371.95 -27.5 M166.85 9.9 L166.95 0.3 237.1 28.5 214.85 29.6 166.5 40.8 166.55 35.3 205.1 28.6 218.6 28.45 166.85 9.9 M135.25 33.8 L152.65 46.0 166.55 46.0 149.95 70.0 127.7 51.0 114.8 25.95 128.3 37.4 135.25 33.8 M113.85 24.1 L113.65 23.7 113.8 12.4 113.85 24.1 M113.85 1.05 L113.95 -10.7 135.25 26.0 135.25 29.9 113.85 1.05 M-15.15 182.1 L273.95 231.85 -414.0 231.85 -414.0 201.15 -224.25 168.5 -15.15 182.1" fill="#000000" fill-opacity="0.2" fill-rule="evenodd" stroke="none"/>
    <path d="M237.1 22.35 L272.35 46.2 288.45 58.65 358.35 115.8 276.9 114.9 249.25 85.65 237.1 22.35 M166.85 9.9 L218.6 28.45 205.1 28.6 166.55 35.3 166.85 9.9 M135.25 33.8 L128.3 37.4 114.8 25.95 113.85 24.1 113.8 12.4 113.85 1.05 135.25 29.9 135.25 33.8" fill="#000000" fill-opacity="0.4" fill-rule="evenodd" stroke="none"/>
  </g>
</svg>
