<?xml version="1.0" encoding="UTF-8" standalone="no"?>
<svg xmlns:xlink="http://www.w3.org/1999/xlink" height="474.7px" width="829.7px" xmlns="http://www.w3.org/2000/svg">
  <g transform="matrix(1.0, 0.0, 0.0, 1.0, 414.85, 237.35)">
    <path d="M30.15 -68.95 L23.2 -68.75 Q20.65 -68.75 16.0 -70.95 12.7 -72.5 4.2 -77.35 1.75 -78.7 -2.8 -82.3 -5.35 -84.25 -7.85 -84.25 L-18.2 -84.35 -25.9 -85.1 Q-35.3 -87.0 -43.75 -100.6 L-45.35 -103.25 Q-49.5 -111.1 -51.2 -113.95 -53.95 -118.7 -55.65 -118.7 L-89.5 -118.6 Q-99.85 -118.35 -109.4 -116.9 -111.7 -116.55 -115.45 -114.25 -118.35 -112.45 -122.15 -109.45 L-123.9 -108.05 -124.85 -107.3 Q-135.05 -98.8 -139.9 -98.8 L-145.45 -98.85 -145.7 -98.85 Q-157.2 -99.25 -163.4 -101.1 L-166.0 -102.0 Q-173.95 -105.05 -182.5 -112.65 L-183.4 -110.45 Q-190.55 -93.1 -198.2 -81.3 L-200.75 -77.55 Q-202.7 -74.85 -204.75 -72.5 -211.35 -64.85 -218.65 -61.1 -225.7 -57.5 -233.4 -57.5 -236.95 -57.5 -240.2 -60.95 L-240.7 -61.45 Q-243.7 -64.4 -246.7 -64.4 L-249.9 -63.55 Q-252.1 -62.7 -253.15 -62.7 -255.1 -62.7 -266.9 -71.95 L-268.3 -73.05 Q-279.8 -82.25 -280.7 -86.8 L-283.25 -86.8 -283.6 -86.3 Q-285.5 -83.3 -293.15 -67.45 L-295.5 -63.25 -299.0 -57.95 Q-304.3 -50.7 -308.2 -50.7 -309.25 -50.7 -310.8 -51.55 -312.35 -52.4 -313.4 -52.4 -314.4 -52.4 -316.1 -51.6 L-317.15 -51.05 Q-319.65 -49.75 -320.3 -49.75 -320.7 -51.05 -321.85 -52.35 -323.45 -54.1 -325.4 -54.1 -331.55 -54.1 -343.7 -45.5 -350.95 -40.35 -352.15 -39.6 -356.4 -36.9 -358.55 -36.9 L-361.0 -38.6 Q-363.6 -40.3 -365.45 -40.3 -365.95 -40.3 -370.8 -37.5 L-371.5 -37.75 Q-372.8 -37.75 -373.6 -37.2 L-375.35 -36.05 -380.2 -42.2 Q-383.4 -45.65 -387.2 -46.2 L-388.75 -46.35 -402.1 -37.75 -402.8 -38.15 Q-406.2 -40.3 -409.75 -40.3 L-414.85 -39.7 -414.85 -237.35 414.85 -237.35 414.85 -69.9 Q404.7 -77.05 401.0 -79.05 394.5 -82.6 378.7 -88.0 364.5 -92.85 363.1 -92.85 360.55 -92.85 357.4 -91.5 354.25 -90.2 347.6 -90.2 L340.5 -91.1 333.45 -92.0 326.75 -91.1 320.05 -90.2 311.2 -91.75 Q302.0 -93.7 300.3 -95.4 296.9 -92.55 296.15 -92.2 L290.4 -92.0 Q289.3 -92.0 280.45 -94.95 L271.1 -97.95 261.2 -91.1 Q250.9 -84.25 247.8 -84.25 242.8 -84.25 238.8 -85.5 234.75 -86.8 229.75 -86.8 224.7 -86.8 214.65 -82.65 L208.3 -79.9 Q194.55 -73.0 193.6 -73.0 191.45 -73.0 187.25 -75.6 183.0 -78.2 179.8 -78.2 L175.5 -77.35 171.2 -76.5 Q169.6 -76.5 166.0 -77.75 L162.6 -79.05 105.7 -76.9 77.4 -74.8 Q76.35 -74.8 72.95 -75.7 L72.75 -75.2 71.45 -76.1 70.25 -76.45 64.8 -76.2 64.1 -76.1 Q60.7 -75.65 55.55 -75.95 L52.3 -76.15 51.0 -76.3 51.45 -75.6 48.85 -73.9 Q42.45 -69.85 30.15 -68.95" fill="#e6e6e6" fill-rule="evenodd" stroke="none"/>
    <path d="M30.15 -68.95 L36.9 -67.4 47.3 -65.25 54.2 -65.25 53.75 -66.55 Q53.25 -67.45 53.25 -67.9 54.55 -68.5 57.7 -69.05 L62.85 -69.6 62.85 -71.3 58.75 -74.15 55.7 -75.85 55.55 -75.95 Q60.7 -75.65 64.1 -76.1 L64.8 -76.2 70.25 -76.45 71.45 -76.1 72.75 -75.2 72.95 -75.7 Q76.35 -74.8 77.4 -74.8 L105.7 -76.9 162.6 -79.05 166.0 -77.75 Q169.6 -76.5 171.2 -76.5 L175.5 -77.35 179.8 -78.2 Q183.0 -78.2 187.25 -75.6 191.45 -73.0 193.6 -73.0 194.55 -73.0 208.3 -79.9 L214.65 -82.65 Q224.7 -86.8 229.75 -86.8 234.75 -86.8 238.8 -85.5 242.8 -84.25 247.8 -84.25 250.9 -84.25 261.2 -91.1 L271.1 -97.95 280.45 -94.95 Q289.3 -92.0 290.4 -92.0 L296.15 -92.2 Q296.9 -92.55 300.3 -95.4 302.0 -93.7 311.2 -91.75 L320.05 -90.2 326.75 -91.1 333.45 -92.0 340.5 -91.1 347.6 -90.2 Q354.25 -90.2 357.4 -91.5 360.55 -92.85 363.1 -92.85 364.5 -92.85 378.7 -88.0 394.5 -82.6 401.0 -79.05 404.7 -77.05 414.85 -69.9 L414.85 -47.35 409.75 -51.85 Q399.35 -61.0 397.2 -61.0 L394.95 -60.5 Q393.15 -59.75 390.85 -58.0 L389.75 -57.15 388.5 -56.1 380.4 -48.05 Q377.5 -50.15 376.15 -51.8 L375.9 -52.15 374.35 -54.1 371.9 -51.75 Q365.85 -46.3 358.9 -42.65 L358.85 -42.65 358.8 -42.6 357.65 -42.0 Q352.25 -39.3 345.85 -37.55 L342.7 -36.75 340.8 -38.6 335.15 -44.2 325.15 -53.2 322.0 -55.65 316.4 -59.3 Q311.8 -61.9 307.3 -63.1 L300.3 -64.25 290.35 -64.7 Q275.35 -64.4 264.6 -64.4 L239.4 -62.9 Q221.05 -61.4 215.7 -59.8 L214.25 -59.3 Q209.1 -56.1 204.4 -53.65 L203.25 -53.7 203.05 -53.8 196.25 -54.2 198.95 -53.95 203.25 -53.7 203.5 -53.15 Q200.0 -51.4 196.7 -50.0 181.8 -43.65 160.9 -42.0 L157.85 -41.7 138.5 -45.5 Q136.8 -45.5 133.35 -44.2 129.9 -42.95 128.6 -42.95 L120.45 -42.45 113.1 -42.0 Q109.95 -42.0 106.7 -42.95 L99.95 -41.25 93.3 -39.45 92.55 -39.45 92.4 -39.5 92.4 -40.1 91.8 -39.6 Q89.95 -39.95 87.4 -41.05 L80.0 -44.6 Q71.7 -48.45 64.05 -49.4 L58.9 -49.75 52.0 -48.9 45.1 -48.05 Q43.8 -48.05 30.65 -55.35 L17.55 -62.7 14.9 -61.4 Q12.4 -60.15 11.95 -60.15 10.25 -60.15 6.75 -63.1 3.2 -66.1 2.9 -66.1 L2.5 -66.05 1.75 -65.8 -0.45 -64.8 Q-3.0 -63.55 -4.75 -63.55 L-6.7 -63.95 Q-8.7 -64.85 -10.4 -67.5 -12.55 -71.7 -13.65 -72.85 L-13.8 -73.0 -13.9 -72.9 -15.35 -71.8 -15.6 -71.6 Q-20.2 -67.95 -27.35 -60.6 L-29.45 -58.5 Q-35.05 -52.65 -38.65 -49.3 L-39.1 -48.85 -39.7 -48.3 -43.1 -45.5 Q-47.85 -42.1 -61.95 -34.85 -74.85 -28.25 -75.4 -28.25 L-90.05 -30.8 -98.25 -29.5 -105.15 -28.25 -116.3 -30.8 Q-116.8 -30.8 -123.85 -27.8 -130.95 -24.85 -133.5 -24.85 -135.55 -24.85 -143.4 -29.4 L-147.2 -31.7 -158.05 -38.6 -163.85 -37.75 -169.65 -36.9 Q-174.5 -36.9 -184.1 -43.3 -193.65 -49.75 -194.2 -49.75 L-204.35 -46.75 Q-205.3 -46.3 -206.45 -46.1 L-208.9 -46.05 Q-218.25 -46.65 -223.95 -41.05 L-225.15 -39.8 -226.05 -40.45 Q-236.25 -37.75 -238.9 -37.75 -240.5 -37.75 -244.85 -40.35 -249.15 -42.95 -252.75 -42.95 -254.6 -42.95 -256.55 -40.65 L-260.25 -35.35 -260.9 -34.4 Q-270.7 -36.05 -283.25 -36.05 -292.0 -36.05 -305.15 -33.45 L-325.4 -29.1 -327.3 -28.3 -332.8 -25.7 -334.1 -25.05 -335.45 -24.4 -336.25 -24.85 -338.45 -25.95 Q-341.7 -27.45 -346.0 -28.25 -351.1 -29.2 -360.1 -33.0 L-361.6 -33.65 -370.8 -37.5 Q-365.95 -40.3 -365.45 -40.3 -363.6 -40.3 -361.0 -38.6 L-358.55 -36.9 Q-356.4 -36.9 -352.15 -39.6 -350.95 -40.35 -343.7 -45.5 -331.55 -54.1 -325.4 -54.1 -323.45 -54.1 -321.85 -52.35 -320.7 -51.05 -320.3 -49.75 -319.65 -49.75 -317.15 -51.05 L-316.1 -51.6 -308.6 -49.0 Q-297.55 -45.5 -287.15 -45.5 -280.9 -45.5 -278.85 -47.2 -282.25 -48.45 -285.35 -51.35 -288.2 -54.0 -288.95 -56.7 L-289.3 -58.85 Q-289.3 -61.0 -285.4 -64.4 -281.55 -67.85 -281.55 -69.2 -281.55 -69.95 -283.65 -72.55 -285.8 -75.15 -285.8 -75.65 -285.8 -76.9 -284.1 -79.4 -282.4 -81.9 -282.4 -84.25 -282.4 -84.65 -283.6 -86.3 L-283.25 -86.8 -280.7 -86.8 Q-279.8 -82.25 -268.3 -73.05 L-266.9 -71.95 Q-255.1 -62.7 -253.15 -62.7 -252.1 -62.7 -249.9 -63.55 L-246.7 -64.4 Q-243.7 -64.4 -240.7 -61.45 L-240.2 -60.95 Q-236.95 -57.5 -233.4 -57.5 -225.7 -57.5 -218.65 -61.1 L-211.65 -59.65 Q-198.25 -56.65 -188.55 -56.65 L-181.1 -57.25 Q-174.55 -58.15 -172.2 -60.15 L-173.85 -62.1 -170.15 -63.1 Q-171.05 -63.5 -174.1 -62.3 L-178.15 -66.3 Q-182.5 -70.45 -182.5 -74.8 -182.5 -76.85 -178.2 -81.35 L-177.85 -81.7 -173.9 -85.95 Q-173.9 -87.2 -176.9 -89.85 -179.95 -92.5 -179.95 -93.7 -179.95 -94.95 -177.8 -97.5 -175.7 -100.05 -175.7 -101.9 -175.7 -103.75 -180.5 -108.05 L-183.4 -110.45 -182.5 -112.65 Q-173.95 -105.05 -166.0 -102.0 L-163.4 -101.1 Q-157.2 -99.25 -145.7 -98.85 L-145.45 -98.85 -145.45 -98.75 Q-142.25 -97.1 -132.8 -95.35 L-122.25 -93.7 Q-120.6 -93.75 -117.15 -96.1 L-114.35 -98.2 Q-108.2 -102.95 -106.75 -106.6 -112.8 -107.4 -114.5 -111.45 L-115.45 -114.25 Q-111.7 -116.55 -109.4 -116.9 -99.85 -118.35 -89.5 -118.6 L-55.65 -118.7 Q-53.95 -118.7 -51.2 -113.95 -49.5 -111.1 -45.35 -103.25 L-43.75 -100.6 Q-35.3 -87.0 -25.9 -85.1 L-18.2 -84.35 -7.85 -84.25 Q-5.35 -84.25 -2.8 -82.3 1.75 -78.7 4.2 -77.35 12.7 -72.5 16.0 -70.95 20.65 -68.75 23.2 -68.75 L30.15 -68.95 M120.8 -61.75 L119.8 -61.2 120.55 -60.95 120.8 -61.75 M158.65 -58.45 L159.35 -58.5 159.3 -59.05 158.65 -58.45 Q155.9 -58.0 153.25 -56.25 L146.75 -57.0 Q150.4 -56.0 153.25 -56.25 156.45 -56.55 158.65 -58.45 M-414.85 -39.7 L-409.75 -40.3 Q-406.2 -40.3 -402.8 -38.15 L-402.1 -37.75 -403.6 -36.8 -414.85 -29.5 -414.85 -39.7 M-322.85 -41.7 L-322.9 -41.7 -322.9 -41.65 -322.85 -41.7 M-54.85 -47.3 L-54.5 -48.05 -54.6 -47.9 -54.85 -47.3" fill="#dddddd" fill-rule="evenodd" stroke="none"/>
    <path d="M55.55 -75.95 L55.7 -75.85 58.75 -74.15 62.85 -71.3 62.85 -69.6 57.7 -69.05 Q54.55 -68.5 53.25 -67.9 53.25 -67.45 53.75 -66.55 L54.2 -65.25 47.3 -65.25 36.9 -67.4 30.15 -68.95 Q42.45 -69.85 48.85 -73.9 L51.45 -75.6 51.0 -76.3 52.3 -76.15 55.55 -75.95 M-115.45 -114.25 L-114.5 -111.45 Q-112.8 -107.4 -106.75 -106.6 -108.2 -102.95 -114.35 -98.2 L-117.15 -96.1 Q-120.6 -93.75 -122.25 -93.7 L-132.8 -95.35 Q-142.25 -97.1 -145.45 -98.75 L-145.45 -98.85 -139.9 -98.8 Q-135.05 -98.8 -124.85 -107.3 L-123.9 -108.05 -122.15 -109.45 Q-118.35 -112.45 -115.45 -114.25 M-183.4 -110.45 L-180.5 -108.05 Q-175.7 -103.75 -175.7 -101.9 -175.7 -100.05 -177.8 -97.5 -179.95 -94.95 -179.95 -93.7 -179.95 -92.5 -176.9 -89.85 -173.9 -87.2 -173.9 -85.95 L-177.85 -81.7 -178.2 -81.35 Q-182.5 -76.85 -182.5 -74.8 -182.5 -70.45 -178.15 -66.3 L-174.1 -62.3 -179.05 -60.15 -173.85 -62.1 -172.2 -60.15 Q-174.55 -58.15 -181.1 -57.25 L-188.55 -56.65 Q-198.25 -56.65 -211.65 -59.65 L-218.65 -61.1 Q-211.35 -64.85 -204.75 -72.5 -202.7 -74.85 -200.75 -77.55 L-198.2 -81.3 Q-190.55 -93.1 -183.4 -110.45 M-283.6 -86.3 Q-282.4 -84.65 -282.4 -84.25 -282.4 -81.9 -284.1 -79.4 -285.8 -76.9 -285.8 -75.65 -285.8 -75.15 -283.65 -72.55 -281.55 -69.95 -281.55 -69.2 -281.55 -67.85 -285.4 -64.4 -289.3 -61.0 -289.3 -58.85 L-288.95 -56.7 Q-288.2 -54.0 -285.35 -51.35 -282.25 -48.45 -278.85 -47.2 -280.9 -45.5 -287.15 -45.5 -297.55 -45.5 -308.6 -49.0 L-316.1 -51.6 Q-314.4 -52.4 -313.4 -52.4 -312.35 -52.4 -310.8 -51.55 -309.25 -50.7 -308.2 -50.7 -304.3 -50.7 -299.0 -57.95 L-295.5 -63.25 -293.15 -67.45 Q-285.5 -83.3 -283.6 -86.3 M-336.25 -24.85 L-335.45 -24.4 -343.0 -20.7 Q-354.5 -15.0 -359.3 -13.4 L-359.35 -13.65 -359.45 -13.45 -359.5 -13.3 Q-361.25 -12.75 -362.05 -12.75 -365.35 -12.75 -371.25 -14.9 -377.15 -17.1 -384.4 -17.1 -391.25 -17.1 -404.5 -13.95 L-414.85 -11.1 -414.85 -29.5 -403.6 -36.8 -402.1 -37.75 -388.75 -46.35 -387.2 -46.2 -387.4 -45.65 Q-388.3 -43.2 -388.3 -42.1 -388.3 -41.05 -386.95 -39.4 -385.65 -37.75 -385.65 -36.9 -385.65 -35.8 -386.5 -34.7 -387.35 -33.55 -387.35 -32.5 -387.35 -29.95 -384.3 -29.1 -380.1 -27.9 -378.75 -26.55 -379.55 -25.25 -380.65 -24.45 L-382.25 -23.15 -382.25 -22.2 -353.8 -22.2 Q-344.2 -24.0 -336.25 -24.85 M-260.9 -34.4 L-260.25 -35.35 -256.55 -40.65 Q-254.6 -42.95 -252.75 -42.95 -249.15 -42.95 -244.85 -40.35 -240.5 -37.75 -238.9 -37.75 -236.25 -37.75 -226.05 -40.45 L-225.15 -39.8 -223.95 -41.05 Q-218.25 -46.65 -208.9 -46.05 L-206.45 -46.1 Q-205.3 -46.3 -204.35 -46.75 L-194.2 -49.75 Q-193.65 -49.75 -184.1 -43.3 -174.5 -36.9 -169.65 -36.9 L-163.85 -37.75 -158.05 -38.6 -147.2 -31.7 -143.4 -29.4 Q-135.55 -24.85 -133.5 -24.85 -130.95 -24.85 -123.85 -27.8 -116.8 -30.8 -116.3 -30.8 L-105.15 -28.25 -98.25 -29.5 -90.05 -30.8 -75.4 -28.25 Q-74.85 -28.25 -61.95 -34.85 -47.85 -42.1 -43.1 -45.5 L-39.7 -48.3 -39.1 -48.85 -38.65 -49.3 -38.75 -48.9 Q-38.65 -47.65 -39.65 -43.75 L-40.0 -42.6 -41.2 -38.0 -39.65 -39.85 Q-35.35 -44.45 -25.7 -51.25 -22.55 -54.0 -20.4 -57.0 -15.75 -63.6 -15.6 -71.6 L-15.35 -71.8 -13.9 -72.9 -13.8 -73.0 -13.65 -72.85 Q-12.55 -71.7 -10.4 -67.5 -8.7 -64.85 -6.7 -63.95 L-5.15 -57.25 Q-4.45 -53.65 -4.0 -49.8 -3.65 -46.5 -3.45 -42.95 L-1.75 -42.95 Q0.25 -43.9 3.1 -46.75 L5.1 -48.9 Q6.0 -50.1 6.0 -50.7 6.0 -53.15 4.2 -58.4 2.5 -63.35 2.5 -65.9 L1.75 -65.8 2.5 -66.05 2.9 -66.1 Q3.2 -66.1 6.75 -63.1 10.25 -60.15 11.95 -60.15 12.4 -60.15 14.9 -61.4 L17.55 -62.7 30.65 -55.35 Q43.8 -48.05 45.1 -48.05 L52.0 -48.9 58.9 -49.75 64.05 -49.4 65.4 -47.2 Q65.4 -46.1 62.0 -42.85 58.85 -39.85 56.75 -38.6 L61.0 -38.6 60.9 -37.45 Q60.7 -36.9 60.15 -36.9 L60.15 -35.2 64.5 -34.25 67.4 -33.4 67.5 -33.35 Q77.65 -33.35 85.75 -36.6 L91.9 -39.2 91.8 -39.6 92.4 -40.1 92.4 -39.5 92.55 -39.45 93.3 -39.45 99.95 -41.25 106.7 -42.95 Q109.95 -42.0 113.1 -42.0 L120.45 -42.45 128.6 -42.95 Q129.9 -42.95 133.35 -44.2 136.8 -45.5 138.5 -45.5 L157.85 -41.7 Q145.65 -40.5 135.65 -37.5 130.35 -35.95 125.65 -33.9 118.85 -30.9 114.9 -29.95 108.1 -28.25 98.1 -28.25 L98.15 -28.2 93.75 -28.15 91.25 -28.1 91.05 -28.15 Q62.7 -27.7 54.95 -23.5 49.95 -20.8 47.9 -20.25 42.25 -18.8 29.15 -18.8 22.4 -18.8 16.35 -20.8 13.1 -21.9 6.15 -25.2 L5.6 -25.7 5.45 -25.55 Q-7.6 -31.65 -19.85 -31.65 -25.45 -31.65 -38.55 -28.4 L-54.25 -24.2 Q-74.4 -18.05 -79.95 -16.65 L-81.8 -16.25 Q-94.3 -14.5 -124.9 -16.25 -133.7 -16.75 -139.05 -14.0 -143.1 -11.9 -148.3 -11.3 L-152.85 -11.05 -171.65 -14.5 Q-191.3 -17.95 -196.4 -17.95 L-207.4 -16.25 -208.3 -16.1 -220.0 -14.55 Q-224.95 -14.55 -228.85 -17.65 L-229.15 -17.9 Q-233.85 -22.6 -237.3 -25.3 -245.75 -31.85 -260.9 -34.4 M203.5 -53.15 L203.25 -53.7 203.95 -53.4 203.5 -53.15 M342.7 -36.75 L345.85 -37.55 Q352.25 -39.3 357.65 -42.0 L361.4 -42.0 378.25 -38.05 Q383.1 -36.9 385.95 -36.9 L388.35 -37.3 389.85 -37.75 Q389.6 -41.35 392.2 -41.6 L395.9 -41.15 395.9 -46.35 Q393.95 -47.45 393.45 -48.85 393.25 -49.5 393.25 -51.55 L393.35 -52.85 394.15 -56.5 394.75 -59.25 394.95 -60.5 397.2 -61.0 Q399.35 -61.0 409.75 -51.85 L414.85 -47.35 414.85 -2.55 Q396.85 -3.65 375.6 -14.2 L369.75 -17.25 Q354.05 -25.85 342.7 -36.75" fill="#cccccc" fill-rule="evenodd" stroke="none"/>
    <path d="M-370.8 -37.5 L-361.6 -33.65 -360.1 -33.0 Q-351.1 -29.2 -346.0 -28.25 -341.7 -27.45 -338.45 -25.95 L-336.25 -24.85 Q-344.2 -24.0 -353.8 -22.2 L-382.25 -22.2 -382.25 -23.15 -380.65 -24.45 Q-379.55 -25.25 -378.75 -26.55 -380.1 -27.9 -384.3 -29.1 -387.35 -29.95 -387.35 -32.5 -387.35 -33.55 -386.5 -34.7 -385.65 -35.8 -385.65 -36.9 -385.65 -37.75 -386.95 -39.4 -388.3 -41.05 -388.3 -42.1 -388.3 -43.2 -387.4 -45.65 L-387.2 -46.2 Q-383.4 -45.65 -380.2 -42.2 L-375.35 -36.05 -373.6 -37.2 Q-372.8 -37.75 -371.5 -37.75 L-370.8 -37.5 M-335.45 -24.4 L-334.1 -25.05 -332.8 -25.7 -327.3 -28.3 -325.4 -29.1 -305.15 -33.45 Q-292.0 -36.05 -283.25 -36.05 -270.7 -36.05 -260.9 -34.4 -245.75 -31.85 -237.3 -25.3 -233.85 -22.6 -229.15 -17.9 L-228.85 -17.65 Q-224.95 -14.55 -220.0 -14.55 L-208.3 -16.1 -207.4 -16.25 -196.4 -17.95 Q-191.3 -17.95 -171.65 -14.5 L-152.85 -11.05 -148.3 -11.3 Q-143.1 -11.9 -139.05 -14.0 -133.7 -16.75 -124.9 -16.25 -94.3 -14.5 -81.8 -16.25 L-79.95 -16.65 Q-74.4 -18.05 -54.25 -24.2 L-38.55 -28.4 Q-25.45 -31.65 -19.85 -31.65 -7.6 -31.65 5.45 -25.55 L5.6 -25.7 6.15 -25.2 Q13.1 -21.9 16.35 -20.8 22.4 -18.8 29.15 -18.8 42.25 -18.8 47.9 -20.25 49.95 -20.8 54.95 -23.5 62.7 -27.7 91.05 -28.15 L91.25 -28.1 93.75 -28.15 98.15 -28.2 98.1 -28.25 Q108.1 -28.25 114.9 -29.95 118.85 -30.9 125.65 -33.9 130.35 -35.95 135.65 -37.5 145.65 -40.5 157.85 -41.7 L160.9 -42.0 Q181.8 -43.65 196.7 -50.0 200.0 -51.4 203.5 -53.15 L203.95 -53.4 204.4 -53.65 Q209.1 -56.1 214.25 -59.3 L215.7 -59.8 Q221.05 -61.4 239.4 -62.9 L264.6 -64.4 Q275.35 -64.4 290.35 -64.7 L300.3 -64.25 307.3 -63.1 Q311.8 -61.9 316.4 -59.3 L322.0 -55.65 325.15 -53.2 335.15 -44.2 340.8 -38.6 342.7 -36.75 Q354.05 -25.85 369.75 -17.25 L375.6 -14.2 Q396.85 -3.65 414.85 -2.55 L414.85 11.7 Q380.0 9.75 301.6 15.65 L235.8 21.0 194.0 23.65 Q113.9 23.65 70.0 22.1 L14.25 18.65 -38.1 15.2 Q-78.25 13.65 -152.0 13.65 L-174.25 14.65 -196.5 15.65 -240.15 13.65 -290.0 11.65 -319.4 12.55 -355.85 14.65 Q-382.1 16.2 -393.9 17.7 -408.75 19.65 -414.85 22.65 L-414.85 -11.1 -404.5 -13.95 Q-391.25 -17.1 -384.4 -17.1 -377.15 -17.1 -371.25 -14.9 -365.35 -12.75 -362.05 -12.75 -361.25 -12.75 -359.5 -13.3 L-359.45 -13.45 -359.35 -13.65 -359.3 -13.4 Q-354.5 -15.0 -343.0 -20.7 L-335.45 -24.4 M-38.65 -49.3 Q-35.05 -52.65 -29.45 -58.5 L-27.35 -60.6 Q-20.2 -67.95 -15.6 -71.6 -15.75 -63.6 -20.4 -57.0 -22.55 -54.0 -25.7 -51.25 -35.35 -44.45 -39.65 -39.85 L-41.2 -38.0 -40.0 -42.6 -39.65 -43.75 Q-38.65 -47.65 -38.75 -48.9 L-38.65 -49.3 M-6.7 -63.95 L-4.75 -63.55 Q-3.0 -63.55 -0.45 -64.8 L1.75 -65.8 2.5 -65.9 Q2.5 -63.35 4.2 -58.4 6.0 -53.15 6.0 -50.7 6.0 -50.1 5.1 -48.9 L3.1 -46.75 Q0.25 -43.9 -1.75 -42.95 L-3.45 -42.95 Q-3.65 -46.5 -4.0 -49.8 -4.45 -53.65 -5.15 -57.25 L-6.7 -63.95 M64.05 -49.4 Q71.7 -48.45 80.0 -44.6 L87.4 -41.05 Q89.95 -39.95 91.8 -39.6 L91.9 -39.2 85.75 -36.6 Q77.65 -33.35 67.5 -33.35 L67.4 -33.4 64.5 -34.25 60.15 -35.2 60.15 -36.9 Q60.7 -36.9 60.9 -37.45 L61.0 -38.6 56.75 -38.6 Q58.85 -39.85 62.0 -42.85 65.4 -46.1 65.4 -47.2 L64.05 -49.4 M357.65 -42.0 L358.8 -42.6 358.85 -42.65 358.9 -42.65 Q365.85 -46.3 371.9 -51.75 L374.35 -54.1 375.9 -52.15 376.15 -51.8 Q377.5 -50.15 380.4 -48.05 L388.5 -56.1 389.75 -57.15 390.85 -58.0 Q393.15 -59.75 394.95 -60.5 L394.75 -59.25 394.15 -56.5 393.35 -52.85 393.25 -51.55 Q393.25 -49.5 393.45 -48.85 393.95 -47.45 395.9 -46.35 L395.9 -41.15 392.2 -41.6 Q389.6 -41.35 389.85 -37.75 L388.35 -37.3 385.95 -36.9 Q383.1 -36.9 378.25 -38.05 L361.4 -42.0 357.65 -42.0 M221.45 -48.85 Q222.25 -50.4 225.4 -50.7 225.4 -51.55 223.7 -53.25 221.15 -51.9 216.55 -49.95 209.05 -46.8 208.2 -45.5 L211.8 -45.05 215.95 -44.65 215.95 -43.35 Q212.85 -37.7 198.3 -27.65 191.35 -22.9 186.9 -20.45 182.25 -17.95 180.25 -17.95 179.35 -17.95 170.6 -21.4 L169.05 -22.0 Q161.45 -24.85 157.4 -24.85 L151.25 -24.3 147.75 -23.85 142.85 -23.15 163.5 -15.4 Q176.25 -10.85 190.2 -7.65 L197.0 -13.25 Q201.9 -17.25 208.5 -22.3 L227.2 -36.9 Q227.55 -38.55 224.4 -42.1 221.15 -45.75 221.15 -46.35 221.15 -48.3 221.45 -48.85 M290.85 -48.9 Q283.05 -49.1 278.7 -48.7 270.85 -48.05 267.7 -44.65 L285.2 -43.8 293.75 -43.8 Q309.9 -43.75 312.95 -43.5 318.4 -43.05 320.4 -40.45 325.35 -34.2 328.45 -31.55 337.85 -23.6 358.0 -13.6 347.85 -20.65 339.8 -29.65 332.1 -39.1 328.35 -43.0 323.65 -47.95 318.0 -51.05 316.2 -52.05 314.3 -52.85 306.1 -56.35 293.0 -57.95 291.65 -56.8 290.55 -56.25 L277.7 -56.95 264.6 -57.5 258.85 -57.05 252.6 -56.65 253.0 -56.65 270.95 -54.25 Q284.25 -52.75 290.85 -48.9 M414.85 52.8 L414.85 237.35 414.0 237.35 414.0 216.45 407.15 216.15 394.0 215.65 Q383.1 215.75 374.05 219.8 354.35 228.55 342.0 232.65 L326.05 237.35 193.8 237.35 186.0 234.9 166.0 228.65 155.25 229.65 144.5 230.65 Q139.7 230.65 122.3 227.15 104.95 223.65 103.5 223.65 96.35 223.65 89.05 230.25 L83.15 235.55 80.6 237.35 -154.7 237.35 Q-169.1 232.0 -188.75 221.1 -200.65 214.5 -213.55 206.35 L-224.0 199.65 Q-226.55 199.65 -229.35 201.15 -232.15 202.65 -237.5 202.65 -254.1 202.65 -263.6 199.65 -267.9 198.15 -270.1 197.6 -273.8 196.65 -278.5 196.65 -279.5 196.65 -333.85 212.65 -335.5 212.65 -336.65 211.75 L-340.85 207.65 Q-341.15 207.65 -341.55 208.65 -341.9 209.65 -343.35 209.65 L-364.1 201.65 -384.85 193.65 -390.35 194.65 -395.85 195.65 Q-400.0 195.65 -403.8 193.65 -407.55 191.65 -412.35 191.65 -413.05 191.65 -414.8 192.8 L-414.85 192.85 -414.85 95.05 -406.45 95.4 Q-401.05 94.65 -394.85 90.65 -394.0 91.9 -389.55 93.6 -384.25 95.65 -379.35 95.65 -367.6 95.65 -361.85 93.25 -359.65 92.35 -353.8 87.8 -348.7 83.9 -341.35 81.75 -330.65 78.7 -310.85 77.65 -302.9 68.75 -298.7 60.05 L-294.15 49.0 Q-292.15 44.7 -288.0 43.3 -283.5 41.7 -272.0 41.65 L-271.0 41.6 -262.8 40.9 -248.1 40.2 Q-227.95 40.35 -222.0 48.65 -216.65 56.15 -202.55 59.05 -194.85 60.65 -186.0 60.65 L-174.25 59.55 -164.5 57.15 Q-150.9 53.65 -134.0 53.65 -126.45 53.65 -124.7 56.15 L-123.6 57.85 Q-122.85 58.65 -121.0 58.65 -118.85 58.65 -112.45 56.15 -106.05 53.65 -96.0 53.65 L-81.8 53.15 -72.5 52.65 Q-56.45 52.65 -45.8 54.15 L-32.0 55.65 -24.55 53.65 Q-17.35 51.65 -16.0 51.65 L-7.15 53.65 Q0.95 55.65 5.5 55.65 6.75 55.65 10.25 54.65 L15.0 53.65 22.3 55.15 Q29.45 56.65 33.0 56.65 L44.75 55.65 56.5 54.65 83.0 68.65 109.5 82.65 Q113.45 82.65 119.4 77.3 L127.0 70.65 Q130.35 69.0 138.2 63.75 144.3 59.65 146.0 59.65 155.15 59.45 165.5 55.5 173.65 52.4 180.05 51.8 L180.8 51.65 182.3 51.65 183.0 51.75 Q189.5 52.25 198.9 54.65 210.6 57.65 212.0 57.65 L218.85 56.15 Q226.75 54.65 233.5 54.65 242.05 54.65 248.95 57.15 255.85 59.65 257.0 59.65 L282.45 54.15 Q309.85 48.65 327.5 48.65 332.6 48.65 341.75 46.15 350.85 43.65 352.0 43.65 L375.6 49.15 Q400.35 54.65 406.5 54.65 408.5 54.65 413.6 53.15 L414.0 53.05 414.0 52.8 414.85 52.8 M-313.85 -20.5 L-311.95 -20.5 Q-295.4 -20.35 -276.8 -17.45 -283.35 -19.2 -294.8 -23.4 -303.5 -26.55 -309.05 -26.55 -312.4 -26.55 -320.05 -23.65 L-322.85 -22.55 Q-330.2 -19.55 -333.7 -17.15 L-326.3 -18.75 Q-318.2 -20.5 -313.85 -20.5 M-207.55 -2.75 L-207.45 -3.3 -208.7 -3.65 Q-217.1 -6.2 -229.3 -12.3 L-244.9 -20.0 -251.35 -23.15 -258.05 -23.15 Q-255.5 -21.75 -252.3 -19.45 L-250.55 -18.15 Q-243.25 -12.65 -239.35 -11.05 -236.6 -9.95 -225.0 -7.05 L-207.65 -2.5 -207.6 -2.5 -207.55 -2.75 M-72.3 -6.8 L-72.3 -5.85 Q-64.05 -8.15 -53.3 -10.2 L-42.05 -12.2 -36.2 -13.15 -8.7 -17.1 Q-10.05 -18.5 -15.85 -20.9 -21.05 -23.0 -23.85 -24.85 L-36.2 -20.4 -48.0 -16.25 -61.35 -11.4 Q-70.05 -8.15 -72.3 -6.8" fill="#c4c4c4" fill-rule="evenodd" stroke="none"/>
    <path d="M221.45 -48.85 Q221.15 -48.3 221.15 -46.35 221.15 -45.75 224.4 -42.1 227.55 -38.55 227.2 -36.9 L208.5 -22.3 Q201.9 -17.25 197.0 -13.25 L190.2 -7.65 Q176.25 -10.85 163.5 -15.4 L142.85 -23.15 147.75 -23.85 151.25 -24.3 157.4 -24.85 Q161.45 -24.85 169.05 -22.0 L170.6 -21.4 Q179.35 -17.95 180.25 -17.95 182.25 -17.95 186.9 -20.45 191.35 -22.9 198.3 -27.65 212.85 -37.7 215.95 -43.35 L215.95 -44.65 211.8 -45.05 208.2 -45.5 Q209.05 -46.8 216.55 -49.95 221.15 -51.9 223.7 -53.25 225.4 -51.55 225.4 -50.7 222.25 -50.4 221.45 -48.85 M290.85 -48.9 Q284.25 -52.75 270.95 -54.25 L253.0 -56.65 252.6 -56.65 258.85 -57.05 264.6 -57.5 277.7 -56.95 290.55 -56.25 Q291.65 -56.8 293.0 -57.95 306.1 -56.35 314.3 -52.85 316.2 -52.05 318.0 -51.05 323.65 -47.95 328.35 -43.0 332.1 -39.1 339.8 -29.65 347.85 -20.65 358.0 -13.6 337.85 -23.6 328.45 -31.55 325.35 -34.2 320.4 -40.45 318.4 -43.05 312.95 -43.5 309.9 -43.75 293.75 -43.8 L285.2 -43.8 267.7 -44.65 Q270.85 -48.05 278.7 -48.7 283.05 -49.1 290.85 -48.9 M-313.85 -20.5 Q-318.2 -20.5 -326.3 -18.75 L-333.7 -17.15 Q-330.2 -19.55 -322.85 -22.55 L-320.05 -23.65 Q-312.4 -26.55 -309.05 -26.55 -303.5 -26.55 -294.8 -23.4 -283.35 -19.2 -276.8 -17.45 -295.4 -20.35 -311.95 -20.5 L-313.85 -20.5 M-207.65 -2.5 L-225.0 -7.05 Q-236.6 -9.95 -239.35 -11.05 -243.25 -12.65 -250.55 -18.15 L-252.3 -19.45 Q-255.5 -21.75 -258.05 -23.15 L-251.35 -23.15 -244.9 -20.0 -229.3 -12.3 Q-217.1 -6.2 -208.7 -3.65 L-207.45 -3.3 -207.55 -2.75 -207.65 -2.5 M-72.3 -6.8 Q-70.05 -8.15 -61.35 -11.4 L-48.0 -16.25 -36.2 -20.4 -23.85 -24.85 Q-21.05 -23.0 -15.85 -20.9 -10.05 -18.5 -8.7 -17.1 L-36.2 -13.15 -42.05 -12.2 -53.3 -10.2 Q-64.05 -8.15 -72.3 -5.85 L-72.3 -6.8" fill="#bbbbbb" fill-rule="evenodd" stroke="none"/>
    <path d="M-414.85 22.65 Q-408.75 19.65 -393.9 17.7 -382.1 16.2 -355.85 14.65 L-319.4 12.55 -290.0 11.65 -240.15 13.65 -196.5 15.65 -174.25 14.65 -152.0 13.65 Q-78.25 13.65 -38.1 15.2 L14.25 18.65 70.0 22.1 Q113.9 23.65 194.0 23.65 L235.8 21.0 301.6 15.65 Q380.0 9.75 414.85 11.7 L414.85 52.8 414.0 52.8 414.0 53.05 413.6 53.15 Q408.5 54.65 406.5 54.65 400.35 54.65 375.6 49.15 L352.0 43.65 Q350.85 43.65 341.75 46.15 332.6 48.65 327.5 48.65 309.85 48.65 282.45 54.15 L257.0 59.65 Q255.85 59.65 248.95 57.15 242.05 54.65 233.5 54.65 226.75 54.65 218.85 56.15 L212.0 57.65 Q210.6 57.65 198.9 54.65 189.5 52.25 183.0 51.75 L182.3 51.65 180.8 51.65 180.05 51.8 Q173.65 52.4 165.5 55.5 155.15 59.45 146.0 59.65 144.3 59.65 138.2 63.75 130.35 69.0 127.0 70.65 L119.4 77.3 Q113.45 82.65 109.5 82.65 L83.0 68.65 56.5 54.65 44.75 55.65 33.0 56.65 Q29.45 56.65 22.3 55.15 L15.0 53.65 10.25 54.65 Q6.75 55.65 5.5 55.65 0.95 55.65 -7.15 53.65 L-16.0 51.65 Q-17.35 51.65 -24.55 53.65 L-32.0 55.65 -45.8 54.15 Q-56.45 52.65 -72.5 52.65 L-81.8 53.15 -96.0 53.65 Q-106.05 53.65 -112.45 56.15 -118.85 58.65 -121.0 58.65 -122.85 58.65 -123.6 57.85 L-124.7 56.15 Q-126.45 53.65 -134.0 53.65 -150.9 53.65 -164.5 57.15 L-174.25 59.55 -186.0 60.65 Q-194.85 60.65 -202.55 59.05 -216.65 56.15 -222.0 48.65 -227.95 40.35 -248.1 40.2 L-262.8 40.9 -271.0 41.6 -272.0 41.65 Q-283.5 41.7 -288.0 43.3 -292.15 44.7 -294.15 49.0 L-298.7 60.05 Q-302.9 68.75 -310.85 77.65 -330.65 78.7 -341.35 81.75 -348.7 83.9 -353.8 87.8 -359.65 92.35 -361.85 93.25 -367.6 95.65 -379.35 95.65 -384.25 95.65 -389.55 93.6 -394.0 91.9 -394.85 90.65 -401.05 94.65 -406.45 95.4 L-414.85 95.05 -414.85 22.65 M414.0 237.35 L326.05 237.35 342.0 232.65 Q354.35 228.55 374.05 219.8 383.1 215.75 394.0 215.65 L407.15 216.15 414.0 216.45 414.0 237.35 M193.8 237.35 L80.6 237.35 83.15 235.55 89.05 230.25 Q96.35 223.65 103.5 223.65 104.95 223.65 122.3 227.15 139.7 230.65 144.5 230.65 L155.25 229.65 166.0 228.65 186.0 234.9 193.8 237.35 M-154.7 237.35 L-414.85 237.35 -414.85 192.85 -414.8 192.8 Q-413.05 191.65 -412.35 191.65 -407.55 191.65 -403.8 193.65 -400.0 195.65 -395.85 195.65 L-390.35 194.65 -384.85 193.65 -364.1 201.65 -343.35 209.65 Q-341.9 209.65 -341.55 208.65 -341.15 207.65 -340.85 207.65 L-336.65 211.75 Q-335.5 212.65 -333.85 212.65 -279.5 196.65 -278.5 196.65 -273.8 196.65 -270.1 197.6 -267.9 198.15 -263.6 199.65 -254.1 202.65 -237.5 202.65 -232.15 202.65 -229.35 201.15 -226.55 199.65 -224.0 199.65 L-213.55 206.35 Q-200.65 214.5 -188.75 221.1 -169.1 232.0 -154.7 237.35" fill="#b3b3b3" fill-rule="evenodd" stroke="none"/>
    <path d="M-207.55 -2.75 L-207.6 -2.5 -207.65 -2.5 -207.55 -2.75" fill="#9d9d9d" fill-rule="evenodd" stroke="none"/>
    <path d="M-54.85 -47.3 L-54.6 -47.9 -54.5 -48.05 -54.85 -47.3" fill="#bfbfbf" fill-rule="evenodd" stroke="none"/>
  </g>
</svg>
