<?xml version="1.0" encoding="UTF-8" standalone="no"?>
<svg xmlns:xlink="http://www.w3.org/1999/xlink" height="343.3px" width="258.95px" xmlns="http://www.w3.org/2000/svg">
  <g transform="matrix(1.0, 0.0, 0.0, 1.0, 117.0, 162.3)">
    <path d="M124.95 -153.65 L124.95 181.0 -117.0 136.0 -117.0 -162.3 -107.0 -162.3 124.95 -153.65 M95.95 -129.0 L-79.0 -138.1 -106.95 -109.25 -107.0 -109.25 -107.0 71.0 -80.05 119.0 95.95 149.0 95.95 -129.0" fill="#777777" fill-rule="evenodd" stroke="none"/>
    <path d="M124.95 -153.65 L141.95 -140.0 141.95 171.0 124.95 181.0 124.95 -153.65" fill="#b7b7b7" fill-rule="evenodd" stroke="none"/>
    <path d="M45.95 -35.0 L45.95 -82.0 -89.5 -92.0 -89.5 -50.95 45.95 -35.0 M-106.95 -109.25 L58.95 -100.0 58.95 96.0 -107.0 71.0 -107.0 -109.25 -106.95 -109.25 M7.3 20.25 Q11.1 13.15 11.1 6.75 11.1 -1.3 6.9 4.1 3.25 8.8 2.05 13.25 0.75 17.85 -4.0 24.5 L-8.4 30.7 -8.15 32.35 -7.45 32.85 -6.4 33.0 Q4.15 26.05 7.3 20.25 M-25.15 59.0 Q-20.65 59.0 -17.65 57.5 -14.9 56.15 -14.9 54.5 -14.9 51.9 -23.9 51.45 -32.9 51.05 -32.9 54.5 L-32.0 56.75 Q-30.1 59.0 -25.15 59.0 M-19.15 39.35 L-17.3 38.75 -16.45 38.6 -15.65 38.6 -16.15 38.85 Q-16.45 39.25 -19.15 39.35 M-38.15 37.5 Q-37.4 37.1 -37.4 35.45 -37.4 32.6 -41.7 25.0 -46.15 17.15 -46.4 14.6 -49.85 4.2 -53.85 6.25 -55.4 7.05 -56.4 9.65 -57.4 12.1 -57.4 14.85 -57.4 18.25 -53.4 26.9 -48.3 38.0 -42.15 38.0 L-38.15 37.5 M-26.9 40.25 L-27.15 40.1 -23.4 40.25 -26.9 40.25 M-33.9 41.25 Q-33.75 42.0 -33.15 42.6 -31.2 44.5 -25.15 44.5 -16.2 44.5 -12.95 42.25 -10.9 40.85 -10.9 37.95 -10.9 36.5 -11.85 35.65 -13.8 33.8 -19.1 34.45 -24.55 33.25 -29.5 36.1 -33.9 38.6 -33.9 40.55 L-33.9 41.25 M-2.8 -3.1 Q-0.9 -11.0 -0.9 -11.8 -0.9 -14.9 -2.35 -15.45 -3.8 -16.0 -5.85 -13.95 -10.95 -8.75 -13.4 4.1 -13.4 7.2 -14.4 15.15 -15.4 23.05 -15.4 26.6 L-15.15 28.85 -14.45 29.35 -13.4 29.5 Q-8.75 29.5 -7.45 21.45 -6.75 11.9 -5.9 9.0 -4.7 4.9 -2.8 -3.1 M-19.65 -23.55 Q-24.1 -36.05 -27.6 -29.85 -30.4 -24.9 -30.4 -17.7 -30.4 -11.9 -28.4 0.1 -26.4 12.1 -26.4 18.3 L-26.4 24.25 Q-26.1 30.0 -24.65 30.0 -20.25 30.0 -19.4 15.9 L-19.4 0.45 Q-19.4 -15.65 -19.65 -23.55" fill="#000000" fill-rule="evenodd" stroke="none"/>
    <path d="M95.95 -129.0 L58.95 -100.0 -106.95 -109.25 -79.0 -138.1 95.95 -129.0 M58.95 96.0 L95.95 149.0 -80.05 119.0 -107.0 71.0 58.95 96.0" fill="#333333" fill-rule="evenodd" stroke="none"/>
    <path d="M58.95 -100.0 L95.95 -129.0 95.95 149.0 58.95 96.0 58.95 -100.0" fill="#1a1a1a" fill-rule="evenodd" stroke="none"/>
    <path d="M45.95 -35.0 L-89.5 -50.95 -89.5 -92.0 45.95 -82.0 45.95 -35.0 M7.3 20.25 Q4.15 26.05 -6.4 33.0 L-7.45 32.85 -8.15 32.35 -8.4 30.7 -4.0 24.5 Q0.75 17.85 2.05 13.25 3.25 8.8 6.9 4.1 11.1 -1.3 11.1 6.75 11.1 13.15 7.3 20.25 M-19.65 -23.55 Q-19.4 -15.65 -19.4 0.45 L-19.4 15.9 Q-20.25 30.0 -24.65 30.0 -26.1 30.0 -26.4 24.25 L-26.4 18.3 Q-26.4 12.1 -28.4 0.1 -30.4 -11.9 -30.4 -17.7 -30.4 -24.9 -27.6 -29.85 -24.1 -36.05 -19.65 -23.55 M-2.8 -3.1 Q-4.7 4.9 -5.9 9.0 -6.75 11.9 -7.45 21.45 -8.75 29.5 -13.4 29.5 L-14.45 29.35 -15.15 28.85 -15.4 26.6 Q-15.4 23.05 -14.4 15.15 -13.4 7.2 -13.4 4.1 -10.95 -8.75 -5.85 -13.95 -3.8 -16.0 -2.35 -15.45 -0.9 -14.9 -0.9 -11.8 -0.9 -11.0 -2.8 -3.1 M-33.9 41.25 L-33.9 40.55 Q-33.9 38.6 -29.5 36.1 -24.55 33.25 -19.1 34.45 -13.8 33.8 -11.85 35.65 -10.9 36.5 -10.9 37.95 -10.9 40.85 -12.95 42.25 -16.2 44.5 -25.15 44.5 -31.2 44.5 -33.15 42.6 -33.75 42.0 -33.9 41.25 M-26.9 40.25 L-23.4 40.25 -27.15 40.1 -26.9 40.25 M-38.15 37.5 L-42.15 38.0 Q-48.3 38.0 -53.4 26.9 -57.4 18.25 -57.4 14.85 -57.4 12.1 -56.4 9.65 -55.4 7.05 -53.85 6.25 -49.85 4.2 -46.4 14.6 -46.15 17.15 -41.7 25.0 -37.4 32.6 -37.4 35.45 -37.4 37.1 -38.15 37.5 M-19.15 39.35 Q-16.45 39.25 -16.15 38.85 L-15.65 38.6 -16.45 38.6 -17.3 38.75 -19.15 39.35 M-25.15 59.0 Q-30.1 59.0 -32.0 56.75 L-32.9 54.5 Q-32.9 51.05 -23.9 51.45 -14.9 51.9 -14.9 54.5 -14.9 56.15 -17.65 57.5 -20.65 59.0 -25.15 59.0" fill="#cccccc" fill-rule="evenodd" stroke="none"/>
  </g>
</svg>
