<?xml version="1.0" encoding="UTF-8" standalone="no"?>
<svg xmlns:xlink="http://www.w3.org/1999/xlink" height="49.4px" width="48.05px" xmlns="http://www.w3.org/2000/svg">
  <g transform="matrix(1.0, 0.0, 0.0, 1.0, 0.0, 0.0)">
    <path d="M33.05 0.0 L48.0 0.0 48.0 0.25 48.05 0.25 48.05 16.75 44.05 15.0 44.85 14.3 45.75 13.3 Q45.1 13.25 44.5 12.65 L43.95 11.95 44.3 11.5 Q42.6 10.9 42.4 10.55 42.6 10.35 43.55 10.05 L44.8 9.5 42.1 8.9 39.8 8.3 39.8 8.05 Q41.45 6.6 46.2 3.8 L43.95 2.0 43.45 2.6 42.2 2.15 41.8 2.55 Q41.5 3.05 41.55 3.55 L41.45 3.55 40.75 2.65 39.65 1.65 39.1 2.6 38.0 1.2 37.3 2.55 36.7 4.05 35.75 2.6 Q35.05 1.55 34.5 1.55 34.15 1.55 34.05 1.7 L33.85 2.15 33.3 1.55 31.5 1.5 Q29.85 1.6 29.7 2.6 29.0 1.9 28.6 1.9 28.3 1.9 28.05 2.25 L27.8 2.85 Q27.35 2.85 26.4 2.15 L25.45 1.4 24.65 1.9 Q23.95 2.5 24.1 2.95 L24.0 2.95 Q22.8 1.4 22.45 1.4 21.9 1.4 21.65 1.75 L21.25 2.5 21.1 2.0 20.85 1.8 19.45 2.35 19.0 2.0 Q18.6 2.15 18.05 3.05 L17.8 3.55 16.7 3.1 15.3 2.5 10.15 0.25 33.05 0.25 33.05 0.0 M36.9 48.1 L0.0 49.4 0.0 37.2 Q0.9 37.9 2.05 38.25 L1.65 39.05 Q1.4 39.45 1.45 39.8 4.4 40.9 4.65 41.45 3.9 41.95 2.85 42.9 1.45 44.1 1.45 44.5 1.45 44.9 2.15 44.7 2.85 44.9 2.85 47.25 L3.4 46.85 3.9 46.45 5.25 47.85 7.6 45.6 8.35 46.9 9.05 46.3 9.15 46.45 9.15 46.65 9.5 46.2 9.65 46.8 9.85 46.55 9.85 45.7 10.0 45.95 10.1 46.55 10.25 46.55 Q10.7 45.5 11.05 45.35 L12.35 47.75 Q12.3 47.45 12.9 46.5 L13.45 45.35 14.4 46.9 14.5 46.8 14.9 45.7 16.05 44.3 17.25 47.15 19.35 45.1 20.15 45.65 20.65 46.2 22.1 44.15 23.9 46.55 24.25 46.45 25.45 44.3 27.2 44.9 31.55 46.35 32.65 46.7 33.85 47.1 34.4 47.3 34.5 47.3 36.9 48.1" fill="#f2f2f2" fill-opacity="0.5019608" fill-rule="evenodd" stroke="none"/>
    <path d="M48.05 16.75 L48.05 47.6 43.95 47.75 43.95 47.85 36.9 48.1 34.5 47.3 34.75 46.5 35.75 45.6 36.5 46.35 Q37.05 46.95 37.55 47.25 L37.65 47.15 38.0 43.45 38.25 43.6 40.2 45.8 Q41.0 46.65 41.65 46.65 42.4 46.55 42.4 46.1 L42.05 45.5 42.05 44.9 44.4 45.6 44.4 45.5 43.35 44.45 Q42.35 43.5 42.4 43.1 L43.6 43.1 44.95 43.35 46.8 43.8 46.7 43.7 Q46.1 43.35 45.05 42.4 43.65 41.15 43.6 40.5 L45.0 40.5 45.4 40.6 Q43.0 38.55 43.0 38.05 43.0 37.75 43.5 37.5 L44.05 37.3 42.75 35.85 43.1 35.4 44.2 34.45 Q45.15 33.75 46.9 32.9 L46.8 32.9 43.95 32.65 43.95 32.4 45.6 30.5 Q40.6 28.5 39.65 28.5 L39.65 28.4 42.6 27.3 Q45.15 26.35 45.35 26.0 L44.35 25.65 43.45 25.15 44.1 24.4 44.65 23.2 44.45 22.8 44.05 22.45 45.6 20.9 45.15 20.35 44.4 19.95 46.1 18.3 44.9 17.35 Q45.2 17.1 45.85 16.6 43.8 16.05 43.35 15.55 L44.05 15.0 48.05 16.75 M25.45 44.3 L26.0 43.0 26.35 43.2 Q26.7 44.15 27.2 44.9 L25.45 44.3 M31.55 46.35 L32.05 46.05 32.65 46.7 31.55 46.35 M33.85 47.1 L34.2 46.9 34.4 47.3 33.85 47.1 M17.8 3.55 Q17.55 4.05 17.6 4.25 L16.7 3.1 17.8 3.55 M15.3 2.5 L15.2 2.95 15.1 2.95 13.8 1.85 12.7 3.1 Q12.2 3.1 11.75 2.5 L11.15 1.9 10.9 2.2 10.6 2.75 9.3 1.55 8.7 2.0 8.1 1.55 7.5 1.05 Q6.8 1.05 6.8 2.15 5.35 1.6 4.75 1.05 L4.45 1.05 4.15 1.25 4.05 1.3 2.75 2.15 Q2.75 3.2 3.6 3.9 L4.4 4.5 3.55 5.45 2.5 6.4 Q5.0 7.85 5.6 8.8 L3.6 10.15 2.65 10.9 3.7 11.85 Q4.75 12.6 4.75 13.3 L3.15 14.5 Q2.4 15.1 2.4 15.4 2.4 15.75 3.35 17.1 L2.85 17.3 Q2.5 17.5 2.5 17.9 2.5 18.55 3.15 19.2 3.8 19.8 3.8 20.4 L3.7 20.55 0.0 21.0 0.0 0.25 10.15 0.25 15.3 2.5 M33.05 0.25 L31.9 0.0 33.05 0.0 33.05 0.25" fill="#b7b7b7" fill-opacity="0.5019608" fill-rule="evenodd" stroke="none"/>
  </g>
</svg>
