<?xml version="1.0" encoding="UTF-8" standalone="no"?>
<svg xmlns:xlink="http://www.w3.org/1999/xlink" height="91.9px" width="304.75px" xmlns="http://www.w3.org/2000/svg">
  <g transform="matrix(1.0, 0.0, 0.0, 1.0, 144.4, 74.9)">
    <path d="M-10.9 -74.5 L-10.65 -74.9 -9.5 -74.15 -9.4 -72.9 -10.65 -73.5 -10.9 -74.5" fill="#515151" fill-rule="evenodd" stroke="none"/>
    <path d="M7.25 -59.0 L160.25 -70.5 160.35 -68.9 9.25 -57.75 9.0 -58.0 8.6 -57.65 7.1 -57.5 6.1 -57.5 4.1 -57.4 5.85 -58.15 6.0 -58.9 6.0 -59.0 7.25 -59.0 M-34.15 -37.0 L-35.25 -35.65 -36.25 -36.15 -36.4 -36.65 -36.5 -37.75 -27.15 -50.9 -26.9 -50.5 -27.0 -50.25 -27.0 -50.15 -27.15 -49.75 -25.9 -49.5 -27.75 -47.15 -29.9 -43.15 Q-32.9 -39.9 -32.65 -39.15 L-33.9 -38.4 -34.15 -37.0 M-47.15 -53.0 L-54.0 -52.4 -54.65 -52.5 -54.65 -52.9 -144.25 -46.25 -144.4 -47.5 -143.9 -47.75 -47.4 -54.9 -47.15 -53.0 M-24.5 -56.65 L-24.4 -57.0 -24.5 -57.5 -24.5 -58.0 -25.15 -58.0 -25.5 -58.4 -25.75 -61.25 -23.75 -63.9 -23.25 -62.5 -23.4 -60.75 -23.0 -59.15 -22.9 -59.0 -22.9 -58.65 -23.0 -58.5 -23.0 -58.4 -23.9 -57.25 -23.9 -57.15 -24.0 -56.75 -24.5 -56.65 M-20.15 -61.5 L-19.4 -61.65 -17.0 -65.9 -10.9 -74.5 -10.65 -73.5 -9.4 -72.9 -18.5 -59.65 -19.0 -59.15 -19.75 -60.15 -20.15 -59.75 -20.15 -59.65 -20.5 -59.65 -20.65 -60.4 -19.9 -61.4 -20.15 -61.5 M-24.65 -51.65 L-24.65 -52.15 -23.5 -53.75 -23.15 -53.75 -23.0 -52.65 -22.15 -52.5 -21.65 -49.15 -20.4 -48.5 -22.5 -45.25 -22.9 -45.15 -23.9 -46.0 -24.25 -49.25 -24.65 -51.65 M-22.75 -26.65 Q-30.4 -30.25 -28.5 -34.5 -29.5 -35.9 -27.15 -39.15 L-24.9 -40.9 -21.9 -41.9 Q-17.9 -41.9 -17.65 -40.9 L-18.25 -40.4 -18.65 -39.75 Q-27.0 -42.15 -28.5 -34.5 -28.25 -29.15 -22.5 -27.0 L-22.75 -26.65 M-21.4 -34.25 L-21.4 -34.15 -21.5 -34.0 -21.4 -34.25" fill="#000000" fill-rule="evenodd" stroke="none"/>
    <path d="M37.35 -15.25 L37.85 -9.0 38.25 -8.25 37.6 -8.0 37.1 -14.15 36.5 -16.4 37.35 -15.25 M-27.15 -50.9 L-27.15 -51.4 -25.65 -54.75 -22.25 -55.0 -23.0 -54.15 -23.15 -53.75 -23.5 -53.75 -24.65 -52.15 -24.65 -51.65 -26.25 -49.9 -27.15 -49.75 -27.0 -50.15 -27.0 -50.25 -26.9 -50.5 -27.15 -50.9 M-22.0 -60.25 L-20.15 -61.5 -19.9 -61.4 -20.65 -60.4 -20.5 -59.65 -20.15 -59.65 -21.15 -56.9 -24.0 -56.75 -23.9 -57.15 -23.9 -57.25 -23.0 -58.4 -23.0 -58.5 -22.9 -58.65 -22.9 -59.0 -23.0 -59.15 -22.0 -60.25 M-8.9 -21.9 L-8.4 -21.75 -8.75 -21.4 -10.15 -21.25 -10.15 -21.9 -8.9 -21.9 M6.75 -22.65 L8.25 -22.9 23.1 -24.0 25.0 -24.65 27.1 -11.75 17.85 -8.75 11.6 -8.25 11.5 -9.15 6.75 -22.65 M29.5 -24.75 L29.6 -24.75 29.85 -24.5 30.25 -24.0 31.75 -13.25 31.35 -13.15 29.5 -24.75 M31.1 -23.15 L31.25 -23.15 31.5 -22.9 31.85 -22.4 32.75 -15.75 33.1 -15.5 32.6 -14.15 31.1 -23.15 M33.35 -21.0 L33.6 -20.75 33.75 -20.5 34.1 -17.9 33.6 -16.75 32.75 -21.5 33.35 -21.0 M-24.25 -20.75 L-23.9 -18.65 -23.9 -20.25 -23.5 -19.9 -23.4 -18.0 -23.4 -16.25 -23.75 -14.65 -23.9 -17.4 -24.25 -17.0 -24.0 -10.5 -23.9 -13.75 -23.4 -13.15 -23.65 -5.0 -24.0 -5.9 -24.0 -6.75 -24.5 -6.5 -24.65 -8.9 -24.25 -20.75 M-24.25 -7.75 L-24.0 -6.75 -24.0 -9.65 -24.25 -7.75 M-7.75 -3.25 L-7.75 0.75 -6.65 5.75 5.0 5.5 4.35 10.35 13.85 9.6 14.6 9.6 14.35 10.6 14.0 10.75 14.35 10.85 14.25 11.5 13.6 11.75 14.0 11.85 14.0 12.35 13.25 12.35 13.85 12.75 13.1 12.75 13.0 13.5 12.0 14.35 11.1 14.5 2.5 15.25 -16.25 15.75 -17.15 3.5 -17.15 3.35 -7.75 -3.25" fill="#020202" fill-rule="evenodd" stroke="none"/>
    <path d="M-23.75 -63.9 L-23.4 -64.15 -22.4 -63.5 -22.0 -60.25 -23.0 -59.15 -23.4 -60.75 -23.25 -62.5 -23.75 -63.9" fill="#454545" fill-rule="evenodd" stroke="none"/>
    <path d="M-24.5 -57.5 L-25.15 -58.0 -24.5 -58.0 -24.5 -57.5 M-12.65 -22.65 L-8.9 -21.9 -10.15 -21.9 -10.15 -21.25 -8.75 -21.4 -8.4 -21.75 -7.4 -21.65 -7.0 -20.9 -3.0 -14.0 -2.9 -12.9 -3.65 -10.75 -12.15 -18.75 -12.4 -19.0 -12.65 -22.65 M-17.65 -3.0 L-7.75 -3.25 -17.15 3.35 -17.65 -3.0" fill="#040404" fill-rule="evenodd" stroke="none"/>
    <path d="M-4.5 -62.0 L-4.15 -63.9 -2.4 -65.0 -1.5 -65.0 0.1 -64.25 0.75 -62.25 -0.4 -61.9 -2.75 -62.15 -4.25 -61.9 -4.5 -62.0" fill="#4e4e4e" fill-rule="evenodd" stroke="none"/>
    <path d="M6.0 -59.0 L6.0 -58.9 5.85 -58.15 4.1 -57.4 6.1 -57.5 6.25 -56.65 6.85 -56.0 6.6 -55.75 4.35 -55.5 2.75 -54.9 0.6 -55.65 1.1 -57.4 1.0 -59.15 -0.4 -61.9 0.75 -62.25 4.25 -61.5 6.35 -61.5 5.85 -59.9 6.0 -59.0" fill="#1f1f1f" fill-rule="evenodd" stroke="none"/>
    <path d="M24.0 -29.5 L28.6 -28.15 18.85 -27.0 21.75 -28.65 22.0 -29.5 24.0 -29.5 M-5.0 -55.0 L-5.4 -55.65 Q-2.75 -54.0 -1.15 -56.9 L0.1 -57.25 -0.15 -58.5 -1.0 -58.4 Q-2.75 -62.15 -5.15 -60.5 L-5.4 -60.4 -4.25 -61.9 -2.75 -62.15 -0.4 -61.9 1.0 -59.15 1.1 -57.4 0.6 -55.65 -2.15 -54.4 -3.4 -54.4 -5.0 -55.0 M12.35 -26.5 L17.05 -26.85 13.35 -26.5 12.35 -26.5" fill="#3e3e3e" fill-rule="evenodd" stroke="none"/>
    <path d="M-10.75 -57.75 L-10.65 -60.15 -8.0 -60.65 -4.5 -62.0 -4.25 -61.9 -5.4 -60.4 -5.65 -60.0 -5.75 -60.0 -5.9 -59.9 -6.5 -58.0 -10.75 -57.75 M-9.65 -54.65 L-9.65 -55.4 -10.25 -55.15 -10.65 -56.0 -6.0 -56.5 -5.4 -55.65 -5.0 -55.0 -5.75 -54.25 -9.65 -54.65 M34.25 -20.15 L34.75 -19.5 34.1 -17.9 33.75 -20.5 34.0 -20.4 34.25 -20.15 M37.1 8.75 L37.75 7.0 Q37.95 6.95 38.1 6.85 L38.35 5.85 38.75 7.5 38.75 11.0 37.5 10.35 37.1 8.75" fill="#111111" fill-rule="evenodd" stroke="none"/>
    <path d="M-25.65 -54.75 L-47.15 -53.0 -47.4 -54.9 -24.5 -56.65 -24.0 -56.75 -21.15 -56.9 -17.0 -57.25 -14.0 -57.5 -13.4 -57.5 -12.25 -57.65 -10.75 -57.75 -6.5 -58.0 -1.0 -58.4 -0.15 -58.5 0.1 -57.25 -1.15 -56.9 -6.0 -56.5 -10.65 -56.0 -11.25 -56.0 -14.25 -55.75 -16.15 -55.65 -16.4 -55.5 -22.25 -55.0 -25.65 -54.75 M-18.0 -39.65 L-16.65 -38.9 -17.0 -38.0 -17.4 -38.0 -18.5 -38.65 -20.65 -38.9 -22.9 -38.25 -24.65 -36.9 -25.9 -34.9 -26.0 -32.65 -26.15 -32.15 -25.4 -30.4 -24.0 -28.65 -21.9 -27.5 -19.65 -27.4 -18.5 -27.65 -18.75 -26.9 -19.25 -26.75 -20.0 -26.65 -22.5 -27.0 Q-28.25 -29.15 -28.5 -34.5 -27.0 -42.15 -18.65 -39.75 L-18.5 -39.75 -18.0 -39.65" fill="#282828" fill-rule="evenodd" stroke="none"/>
    <path d="M-5.4 -55.65 L-6.0 -56.5 -1.15 -56.9 Q-2.75 -54.0 -5.4 -55.65 M-5.15 -60.5 Q-2.75 -62.15 -1.0 -58.4 L-6.5 -58.0 -5.9 -59.9 -5.75 -60.0 -5.65 -60.0 -5.15 -60.5 M-18.25 -9.65 L-12.5 -9.65 -9.0 -6.25 -7.75 -3.25 -17.65 -3.0 -18.25 -9.65" fill="#090909" fill-rule="evenodd" stroke="none"/>
    <path d="M-45.65 -18.4 L-48.15 -18.4 -50.0 -19.5 -49.9 -20.9 -49.25 -21.5 -47.25 -22.25 -47.25 -21.75 -45.75 -21.4 -43.75 -21.4 -44.4 -21.0 -46.5 -20.75 -48.0 -20.4 -48.9 -20.0 -49.0 -19.75 -48.25 -19.5 -44.4 -19.15 -46.25 -19.0 -45.15 -18.9 -45.65 -18.4 M-13.4 -57.5 L-13.0 -57.9 -12.25 -57.65 -13.4 -57.5 M-12.75 -51.65 L-13.25 -52.65 -13.75 -52.75 -14.25 -55.75 -11.25 -56.0 -11.15 -53.65 -11.25 -55.0 -11.65 -55.0 -11.75 -54.5 -11.5 -52.15 -12.75 -51.65 M-5.4 -60.4 L-5.15 -60.5 -5.65 -60.0 -5.4 -60.4 M-12.15 -18.75 L-3.65 -10.75 -2.65 -8.5 -4.75 -8.75 -10.9 -11.75 -11.0 -12.0 -12.15 -18.75" fill="#131313" fill-rule="evenodd" stroke="none"/>
    <path d="M-14.25 -55.75 L-13.75 -52.75 -13.25 -52.65 -12.75 -51.65 -11.5 -42.65 -14.25 -42.4 -16.15 -55.65 -14.25 -55.75" fill="#5b5b5b" fill-rule="evenodd" stroke="none"/>
    <path d="M-19.9 17.0 L-21.0 14.0 -22.25 1.0 -22.25 -2.5 -22.65 -3.65 -22.25 -5.5 -22.4 -18.0 -22.25 -19.25 -17.4 -24.4 -15.4 -23.0 -13.15 -22.75 -13.5 -22.15 -13.9 -21.75 -13.9 -21.65 -16.0 -19.4 -16.15 -19.15 -16.15 -19.25 -18.4 -15.65 -19.0 -15.9 -21.5 -10.4 -20.9 -3.9 -19.25 -3.25 -17.65 -3.0 -17.15 3.35 -17.15 3.5 -16.25 15.75 -18.5 16.1 -19.9 17.0 M-18.9 -48.5 L-18.75 -49.4 -17.4 -51.25 -16.5 -53.4 -16.4 -55.5 -16.15 -55.65 -14.25 -42.4 -16.25 -42.0 -16.65 -41.65 -17.9 -41.9 -17.9 -42.15 -18.0 -42.75 -18.0 -43.15 -18.15 -43.75 -18.4 -45.5 -18.4 -45.9 -18.5 -46.4 -18.5 -46.9 -18.65 -47.4 -18.75 -48.25 -18.75 -48.4 -18.9 -48.5" fill="#050505" fill-rule="evenodd" stroke="none"/>
    <path d="M-18.5 -59.65 L-17.0 -57.25 -21.15 -56.9 -20.15 -59.65 -20.15 -59.75 -19.75 -60.15 -19.0 -59.15 -18.5 -59.65 M-24.65 -51.65 L-24.25 -49.25 -25.9 -49.5 -27.15 -49.75 -26.25 -49.9 -24.65 -51.65 M-23.0 -54.15 L-22.25 -55.0 -16.4 -55.5 -16.5 -53.4 -17.4 -51.25 -18.75 -49.4 -18.9 -48.5 -20.4 -48.5 -20.75 -51.9 -22.15 -52.5 -21.75 -53.4 -22.75 -53.65 -23.0 -54.15" fill="#232323" fill-rule="evenodd" stroke="none"/>
    <path d="M7.25 -59.0 L6.0 -59.0 5.85 -59.9 6.35 -61.5 7.25 -59.0 M6.1 -57.5 L7.1 -57.5 6.85 -56.0 6.25 -56.65 6.1 -57.5" fill="#4f4f4f" fill-rule="evenodd" stroke="none"/>
    <path d="M8.6 -57.65 L9.0 -58.0 9.25 -57.75 10.1 -44.15 10.1 -43.75 10.25 -42.75 9.85 -42.5 9.5 -43.9 8.6 -57.65 M-21.0 14.0 L-23.0 11.0 -23.25 5.5 -23.65 4.75 -23.4 4.0 -24.5 -6.0 -24.0 -5.9 -23.65 -5.0 -23.15 -4.25 -23.0 -7.9 -23.15 -9.15 -23.15 -9.75 -23.0 -10.25 -23.25 -19.65 -23.5 -19.9 -23.9 -20.25 -24.25 -20.75 -24.25 -21.25 -24.0 -21.65 -19.75 -25.9 -17.4 -24.4 -22.25 -19.25 -22.4 -18.0 -22.25 -5.5 -22.65 -3.65 -22.25 -2.5 -22.25 1.0 -21.0 14.0 M6.6 -55.75 L6.85 -56.0 7.85 -44.0 7.85 -43.4 7.5 -43.4 7.5 -44.0 6.6 -55.75 M22.1 -38.15 L22.5 -38.15 22.75 -38.0 22.85 -38.0 23.35 -37.75 24.0 -36.75 24.0 -36.25 23.85 -35.5 23.6 -35.15 23.1 -34.65 22.35 -34.4 21.85 -34.4 21.25 -34.65 21.0 -34.65 20.85 -34.9 20.75 -34.65 20.25 -36.65 20.25 -37.0 20.75 -37.65 22.1 -38.15 M-19.5 -34.75 L-18.75 -34.5 -18.0 -33.4 -18.15 -32.15 -18.75 -31.4 -19.65 -31.15 -20.5 -31.0 -21.15 -31.4 -21.5 -31.75 -21.75 -32.15 -21.9 -32.65 -21.9 -33.5 -21.75 -33.5 -21.5 -34.0 -21.4 -34.15 -21.4 -34.25 -21.0 -34.5 -20.9 -34.65 -20.75 -34.65 -20.25 -34.75 -19.5 -34.75" fill="#161616" fill-rule="evenodd" stroke="none"/>
    <path d="M-11.5 -52.15 L-11.75 -54.5 -11.65 -55.0 -11.25 -55.0 -11.15 -53.65 -10.25 -42.75 -10.25 -42.0 -10.65 -42.0 -10.75 -42.75 -11.5 -52.15 M-10.25 -55.15 L-9.65 -55.4 -9.65 -54.65 -8.75 -42.9 -8.75 -41.0 -9.25 -42.15 -9.15 -42.9 -10.25 -55.15 M-5.75 -54.25 L-5.0 -55.0 -3.4 -54.4 -2.15 -54.4 0.6 -55.65 2.75 -54.9 3.6 -43.9 3.6 -43.0 0.0 -42.5 -4.65 -42.4 -4.9 -43.15 -5.75 -54.25" fill="#171717" fill-rule="evenodd" stroke="none"/>
    <path d="M-22.15 -52.5 L-23.0 -52.65 -23.15 -53.75 -23.0 -54.15 -22.75 -53.65 -21.75 -53.4 -22.15 -52.5 M16.25 -42.25 L17.35 -42.15 17.0 -41.5 16.25 -42.25 M17.5 -41.0 L18.0 -40.75 19.35 -40.75 19.85 -40.75 20.0 -39.4 20.0 -38.4 19.85 -37.9 17.5 -41.0" fill="#424242" fill-rule="evenodd" stroke="none"/>
    <path d="M-14.25 -42.4 L-11.5 -42.65 -10.75 -42.75 -10.65 -42.0 -10.25 -42.0 -10.25 -42.75 -9.15 -42.9 -9.25 -42.15 -8.75 -41.0 -8.75 -42.9 -4.9 -43.15 -4.65 -42.4 0.0 -42.5 1.0 -42.0 -8.5 -40.5 -14.65 -39.0 -17.4 -40.15 -18.25 -40.4 -17.65 -40.9 -16.65 -41.65 -16.25 -42.0 -14.25 -42.4 M-12.5 -9.65 L-12.65 -10.0 -11.0 -12.0 -10.9 -11.75 -9.9 -9.4 -12.5 -9.65" fill="#545454" fill-rule="evenodd" stroke="none"/>
    <path d="M-27.15 -24.0 Q-35.65 -28.4 -34.15 -37.0 L-33.9 -38.4 -32.65 -39.15 -31.15 -39.65 -30.25 -40.15 -22.5 -42.25 -17.9 -41.9 -16.65 -41.65 -17.65 -40.9 Q-17.9 -41.9 -21.9 -41.9 L-24.9 -40.9 -27.15 -39.15 Q-29.5 -35.9 -28.5 -34.5 -30.4 -30.25 -22.75 -26.65 L-25.25 -23.4 -26.65 -23.75 -27.15 -24.0 M32.85 2.35 L33.25 5.75 Q36.25 9.0 37.1 8.75 L37.5 10.35 38.75 11.0 22.0 13.5 12.0 14.35 13.0 13.5 13.1 12.75 13.85 12.75 13.25 12.35 14.0 12.35 14.0 11.85 13.6 11.75 14.25 11.5 14.35 10.85 14.0 10.75 14.35 10.6 14.6 9.6 13.85 9.6 4.35 10.35 5.0 5.5 13.75 4.85 14.0 5.5 13.75 5.6 14.35 5.75 13.75 5.75 14.1 6.25 13.75 6.5 14.35 6.75 13.75 6.85 14.25 7.25 13.75 7.6 14.1 7.75 13.85 8.0 14.5 8.1 13.85 8.35 14.25 8.35 13.85 8.75 14.25 8.75 13.85 8.85 13.85 9.6 23.85 8.75 22.85 4.0 32.85 2.35 M-19.75 -35.0 L-19.5 -34.75 -20.25 -34.75 -20.75 -34.65 -20.9 -34.65 -21.0 -34.5 -21.4 -34.25 -21.5 -34.0 -21.9 -33.5 -21.9 -32.65 -21.75 -32.15 -21.5 -31.75 -21.9 -31.75 -22.4 -32.4 -22.5 -33.15 -22.5 -34.0 -21.9 -34.65 -21.25 -35.15 -20.0 -35.15 -19.9 -35.0 -19.75 -35.0 M-18.4 -15.65 L-16.15 -19.25 -16.15 -19.15 -16.15 -18.5 -17.5 -15.5 -17.9 -15.5 -18.25 -15.5 -18.4 -15.65" fill="#060606" fill-rule="evenodd" stroke="none"/>
    <path d="M-23.0 11.0 L-24.4 8.75 -25.15 2.75 -23.65 4.75 -23.25 5.5 -23.0 11.0 M-20.4 -48.5 L-21.65 -49.15 -22.15 -52.5 -20.75 -51.9 -20.4 -48.5" fill="#404040" fill-rule="evenodd" stroke="none"/>
    <path d="M14.75 -42.75 L16.25 -42.25 17.0 -41.5 11.25 -42.0 1.0 -42.0 0.0 -42.5 3.6 -43.0 3.6 -43.9 7.5 -44.0 7.5 -43.4 7.85 -43.4 7.85 -44.0 9.5 -43.9 9.85 -42.5 10.25 -42.75 10.1 -43.75 11.5 -43.5 14.75 -42.75" fill="#656565" fill-rule="evenodd" stroke="none"/>
    <path d="M10.1 -44.15 L14.75 -45.15 Q22.35 -45.15 22.75 -43.15 L19.5 -43.4 Q18.0 -44.9 14.35 -44.65 L11.5 -43.5 10.1 -43.75 10.1 -44.15" fill="#2f2f2f" fill-rule="evenodd" stroke="none"/>
    <path d="M19.5 -43.4 L16.35 -43.4 14.75 -42.75 11.5 -43.5 14.35 -44.65 Q18.0 -44.9 19.5 -43.4" fill="#010101" fill-rule="evenodd" stroke="none"/>
    <path d="M22.75 -43.15 L22.85 -43.15 Q24.45 -42.55 25.85 -41.5 27.6 -40.5 27.85 -36.65 28.0 -31.65 21.85 -30.0 L21.75 -30.0 21.6 -30.65 22.0 -30.65 24.0 -31.25 25.75 -32.65 27.0 -34.65 27.0 -36.9 26.6 -39.0 25.25 -40.75 23.25 -41.9 21.25 -42.15 19.1 -41.65 18.0 -40.75 17.5 -41.0 17.0 -41.5 17.35 -42.15 16.25 -42.25 14.75 -42.75 16.35 -43.4 19.5 -43.4 22.75 -43.15" fill="#535353" fill-rule="evenodd" stroke="none"/>
    <path d="M21.85 -30.0 L22.0 -30.0 23.35 -30.15 24.0 -29.5 22.0 -29.5 21.75 -30.0 21.85 -30.0" fill="#4b4b4b" fill-rule="evenodd" stroke="none"/>
    <path d="M21.6 -30.65 L21.75 -30.0 22.0 -29.5 21.75 -28.65 18.85 -27.0 18.25 -27.0 17.05 -26.85 12.35 -26.5 11.75 -26.5 6.6 -26.0 3.35 -37.9 1.0 -42.0 11.25 -42.0 17.0 -41.5 17.5 -41.0 19.85 -37.9 20.25 -37.0 20.25 -36.65 20.75 -34.65 20.85 -34.4 21.35 -32.5 21.5 -32.15 21.5 -32.0 21.75 -31.15 21.75 -31.0 21.6 -30.65" fill="#afafaf" fill-rule="evenodd" stroke="none"/>
    <path d="M22.0 -30.65 L21.6 -30.65 21.75 -31.0 22.0 -30.65" fill="#828282" fill-rule="evenodd" stroke="none"/>
    <path d="M-47.25 -22.25 L-27.15 -24.0 -26.65 -23.75 -25.25 -23.4 -25.65 -22.9 -42.25 -21.65 -42.9 -21.5 -43.0 -21.5 -43.75 -21.4 -45.75 -21.4 -47.25 -21.75 -47.25 -22.25 M24.0 -31.25 L22.0 -30.65 21.75 -31.0 21.75 -31.15 21.5 -32.0 21.5 -32.15 21.35 -32.5 20.85 -34.4 20.75 -34.65 21.0 -34.65 21.25 -34.65 21.85 -34.4 24.0 -31.25" fill="#2d2d2d" fill-rule="evenodd" stroke="none"/>
    <path d="M22.1 -38.15 L20.75 -37.65 20.25 -37.0 19.85 -37.9 20.0 -38.4 20.5 -38.4 21.25 -38.4 22.1 -38.25 22.1 -38.15 M20.75 -34.65 L20.85 -34.9 21.0 -34.65 20.75 -34.65 M-16.15 -19.15 L-16.0 -19.4 -13.9 -21.65 -16.15 -18.5 -16.15 -19.15" fill="#101010" fill-rule="evenodd" stroke="none"/>
    <path d="M19.1 -41.65 L21.25 -42.15 23.25 -41.9 25.25 -40.75 26.6 -39.0 27.0 -36.9 27.0 -34.65 26.75 -34.65 26.35 -34.75 26.25 -34.75 23.85 -35.5 24.0 -36.25 24.0 -36.75 23.35 -37.75 22.85 -38.0 22.75 -38.0 22.5 -38.15 22.1 -38.15 22.1 -38.25 21.25 -38.4 21.25 -38.5 20.5 -38.4 20.0 -38.4 20.0 -39.4 19.85 -40.75 19.35 -40.75 19.1 -41.65 M-17.4 -38.0 L-19.0 -37.75 -19.75 -36.65 -19.9 -35.4 -20.0 -35.15 -21.25 -35.15 -21.5 -35.4 -22.4 -37.0 -22.9 -38.25 -20.65 -38.9 -18.5 -38.65 -17.4 -38.0" fill="#080808" fill-rule="evenodd" stroke="none"/>
    <path d="M20.5 -38.4 L21.25 -38.5 21.25 -38.4 20.5 -38.4 M5.35 -22.5 L5.85 -22.65 7.35 -7.9 4.1 -7.65 2.85 -7.9 4.1 -15.25 4.1 -15.4 4.25 -15.75 5.35 -22.5 M6.85 -20.5 L6.85 -19.9 6.5 -20.0 6.5 -20.65 6.85 -20.5 M6.35 -22.15 L6.75 -22.0 6.75 -21.25 6.35 -21.4 6.35 -22.15 M6.6 -18.65 L6.6 -19.25 7.0 -19.15 7.0 -18.5 6.6 -18.65 M-24.65 -36.9 L-24.0 -36.25 -22.15 -34.9 -21.9 -34.65 -22.5 -34.0 -25.9 -34.9 -24.65 -36.9" fill="#262626" fill-rule="evenodd" stroke="none"/>
    <path d="M18.0 -40.75 L19.1 -41.65 19.35 -40.75 18.0 -40.75 M4.1 -15.25 L2.85 -7.9 2.5 -7.9 2.85 -10.75 Q3.35 -15.0 4.1 -15.25 M5.0 5.5 L13.6 1.75 14.0 4.85 13.75 4.85 5.0 5.5" fill="#141414" fill-rule="evenodd" stroke="none"/>
    <path d="M10.85 15.0 L-7.15 16.6 -19.9 17.0 -18.5 16.1 -16.25 15.75 2.5 15.25 11.1 14.5 10.85 15.0 M27.0 -34.65 L25.75 -32.65 23.1 -34.65 23.6 -35.15 23.85 -35.5 26.25 -34.75 26.35 -34.75 26.75 -34.65 27.0 -34.65" fill="#0b0b0b" fill-rule="evenodd" stroke="none"/>
    <path d="M-17.4 -40.15 L-18.0 -39.65 -18.5 -39.75 -18.65 -39.75 -18.25 -40.4 -17.4 -40.15" fill="#1e1e1e" fill-rule="evenodd" stroke="none"/>
    <path d="M-17.4 -40.15 L-14.65 -39.0 -16.9 -34.75 -17.0 -26.4 -17.5 -26.4 -18.75 -26.4 -19.15 -26.75 -19.25 -26.75 -18.75 -26.9 -18.5 -27.65 -19.25 -30.5 -19.65 -30.75 -19.65 -31.15 -18.75 -31.4 -18.15 -32.15 -18.0 -33.4 -18.75 -34.5 -19.5 -34.75 -19.75 -35.0 -19.9 -35.4 -19.75 -36.65 -19.0 -37.75 -17.4 -38.0 -17.0 -38.0 -16.65 -38.9 -18.0 -39.65 -17.4 -40.15" fill="#191919" fill-rule="evenodd" stroke="none"/>
    <path d="M-3.05 -25.25 L-5.0 -25.15 -6.0 -25.0 -6.5 -25.0 -11.5 -25.9 -16.25 -26.0 -17.0 -26.4 -16.9 -34.75 -14.65 -39.0 -8.5 -40.5 1.0 -42.0 3.35 -37.9 6.6 -26.0 -0.4 -25.5 -0.5 -25.5 -3.05 -25.25" fill="#333333" fill-rule="evenodd" stroke="none"/>
    <path d="M28.6 -28.15 L29.0 -28.15 29.6 -26.65 28.5 -26.0 28.1 -25.9 25.0 -24.65 23.1 -24.0 8.25 -22.9 7.35 -25.4 7.0 -25.4 7.35 -25.65 6.6 -26.0 11.75 -26.5 12.35 -26.5 13.35 -26.5 17.05 -26.85 18.25 -27.0 18.85 -27.0 28.6 -28.15" fill="#676767" fill-rule="evenodd" stroke="none"/>
    <path d="M-19.9 -35.4 L-19.75 -35.0 -19.9 -35.0 -20.0 -35.15 -19.9 -35.4" fill="#323232" fill-rule="evenodd" stroke="none"/>
    <path d="M-22.9 -38.25 L-22.4 -37.0 -21.5 -35.4 -21.25 -35.15 -21.9 -34.65 -22.15 -34.9 -24.0 -36.25 -24.65 -36.9 -22.9 -38.25" fill="#151515" fill-rule="evenodd" stroke="none"/>
    <path d="M-19.25 -26.75 L-19.15 -26.75 -18.75 -26.4 -19.15 -26.15 -19.4 -26.0 -19.75 -25.9 -24.0 -21.65 -21.9 -26.25 -20.0 -26.65 -19.25 -26.75 M-22.5 -34.0 L-22.5 -33.15 -25.5 -32.65 -26.0 -32.65 -25.9 -34.9 -22.5 -34.0" fill="#363636" fill-rule="evenodd" stroke="none"/>
    <path d="M-26.0 -32.65 L-25.5 -32.65 -22.4 -32.4 -24.75 -30.75 -25.4 -30.4 -26.15 -32.15 -26.0 -32.65" fill="#636363" fill-rule="evenodd" stroke="none"/>
    <path d="M-23.25 -29.5 L-24.0 -28.65 -25.4 -30.4 -24.75 -30.75 -22.0 -31.65 -23.25 -29.5" fill="#a4a4a4" fill-rule="evenodd" stroke="none"/>
    <path d="M-22.4 -32.4 L-21.9 -31.75 -22.0 -31.65 -24.75 -30.75 -22.4 -32.4" fill="#a5a5a5" fill-rule="evenodd" stroke="none"/>
    <path d="M-21.5 -31.75 L-21.15 -31.4 -21.25 -31.15 -23.25 -29.5 -22.0 -31.65 -21.9 -31.75 -21.5 -31.75" fill="#b5b5b5" fill-rule="evenodd" stroke="none"/>
    <path d="M-25.5 -32.65 L-22.5 -33.15 -22.4 -32.4 -25.5 -32.65" fill="#646464" fill-rule="evenodd" stroke="none"/>
    <path d="M-25.15 2.75 L-26.9 -7.75 -26.9 -20.15 -26.75 -21.25 -25.65 -22.9 -25.25 -23.4 -22.75 -26.65 -22.5 -27.0 -20.0 -26.65 -21.9 -26.25 -24.0 -21.65 -24.25 -21.25 -24.25 -20.75 -23.9 -20.25 -23.9 -18.65 -24.25 -20.75 -24.65 -8.9 -24.5 -6.5 -24.0 -6.75 -24.0 -5.9 -24.5 -6.0 -23.4 4.0 -23.65 4.75 -25.15 2.75 M-23.5 -19.9 L-23.25 -19.65 -23.4 -18.0 -23.5 -19.9 M-23.4 -13.15 L-23.9 -13.75 -24.0 -10.5 -24.25 -17.0 -23.9 -17.4 -23.75 -14.65 -23.4 -16.25 -23.4 -13.15 M-19.25 -3.25 L-20.9 -3.9 -21.5 -10.4 -19.0 -15.9 -18.4 -15.65 -18.25 -15.5 -17.9 -15.5 -18.75 -11.4 -20.15 -7.5 -19.65 -6.4 -19.25 -3.25 M-24.25 -7.75 L-24.0 -9.65 -24.0 -6.75 -24.25 -7.75" fill="#2c2c2c" fill-rule="evenodd" stroke="none"/>
    <path d="M25.75 -32.65 L24.0 -31.25 21.85 -34.4 22.35 -34.4 23.1 -34.65 25.75 -32.65 M-10.9 -11.75 L-4.75 -8.75 -9.9 -9.4 -10.9 -11.75 M14.0 4.85 L13.6 1.75 22.85 4.0 14.0 4.85" fill="#1d1d1d" fill-rule="evenodd" stroke="none"/>
    <path d="M37.75 7.0 L38.35 4.75 38.35 5.85 38.1 6.85 Q37.95 6.95 37.75 7.0 M-21.5 -34.0 L-21.75 -33.5 -21.9 -33.5 -21.5 -34.0" fill="#121212" fill-rule="evenodd" stroke="none"/>
    <path d="M-21.15 -31.4 L-20.5 -31.0 -19.9 -29.5 -19.65 -27.4 -21.9 -27.5 -21.5 -28.9 -21.25 -31.15 -21.15 -31.4" fill="#707070" fill-rule="evenodd" stroke="none"/>
    <path d="M-24.0 -28.65 L-23.25 -29.5 -21.25 -31.15 -21.5 -28.9 -21.9 -27.5 -24.0 -28.65" fill="#b4b4b4" fill-rule="evenodd" stroke="none"/>
    <path d="M-19.65 -31.15 L-19.65 -30.75 -19.25 -30.5 -18.5 -27.65 -19.65 -27.4 -19.9 -29.5 -20.5 -31.0 -19.65 -31.15 M-18.75 -26.4 L-17.5 -26.4 -19.15 -26.15 -18.75 -26.4" fill="#2b2b2b" fill-rule="evenodd" stroke="none"/>
    <path d="M29.0 -28.15 L34.6 -23.9 37.35 -15.25 36.5 -16.4 35.25 -19.75 34.75 -19.5 34.25 -20.15 34.85 -20.0 34.75 -20.4 32.5 -23.75 28.5 -26.0 29.6 -26.65 29.0 -28.15 M32.6 -21.75 L33.35 -21.0 32.75 -21.5 32.6 -21.75 M33.6 -20.75 L34.0 -20.4 33.75 -20.5 33.6 -20.75" fill="#565656" fill-rule="evenodd" stroke="none"/>
    <path d="M28.1 -25.9 L28.5 -26.0 28.6 -25.75 28.1 -25.9" fill="#1a1a1a" fill-rule="evenodd" stroke="none"/>
    <path d="M7.0 -25.4 L7.35 -25.4 8.25 -22.9 6.75 -22.65 5.85 -22.65 5.35 -22.5 -5.4 -21.65 -7.4 -21.65 -8.4 -21.75 -8.9 -21.9 -12.65 -22.65 -13.15 -22.75 -15.4 -23.0 -17.4 -24.4 -6.5 -25.0 -6.0 -25.0 -5.0 -25.15 -3.05 -25.25 -1.25 -25.4 0.1 -24.75 7.0 -25.4" fill="#4a4a4a" fill-rule="evenodd" stroke="none"/>
    <path d="M7.0 -25.4 L0.1 -24.75 -1.25 -25.4 -0.5 -25.5 -0.4 -25.5 6.6 -26.0 7.35 -25.65 7.0 -25.4" fill="#626262" fill-rule="evenodd" stroke="none"/>
    <path d="M-1.25 -25.4 L-3.05 -25.25 -0.5 -25.5 -1.25 -25.4 M-6.5 -25.0 L-17.4 -24.4 -19.75 -25.9 -19.4 -26.0 -19.15 -26.15 -17.5 -26.4 -17.0 -26.4 -16.25 -26.0 -11.5 -25.9 -6.5 -25.0" fill="#383838" fill-rule="evenodd" stroke="none"/>
    <path d="M28.5 -26.0 L32.5 -23.75 34.75 -20.4 34.85 -20.0 34.25 -20.15 34.0 -20.4 33.6 -20.75 33.35 -21.0 32.6 -21.75 32.0 -22.4 31.85 -22.4 31.5 -22.9 31.25 -23.15 31.1 -23.15 30.25 -24.0 29.85 -24.5 29.6 -24.75 29.5 -24.75 28.6 -25.75 28.5 -26.0" fill="#6a6a6a" fill-rule="evenodd" stroke="none"/>
    <path d="M11.6 -8.25 L17.85 -8.75 27.1 -11.75 31.35 -13.15 31.75 -13.25 32.35 -13.25 29.75 -9.75 30.75 -7.9 30.85 -6.65 31.5 -6.0 31.85 -4.4 32.75 -2.9 32.5 -0.65 32.85 2.35 22.85 4.0 13.6 1.75 12.6 -2.4 21.0 -3.0 21.5 -3.15 21.1 -4.5 12.0 -4.75 12.35 -4.9 11.85 -5.0 Q12.35 -5.5 11.0 -8.25 L11.6 -8.25" fill="#6e6e6e" fill-rule="evenodd" stroke="none"/>
    <path d="M34.75 -19.5 L35.25 -19.75 36.5 -16.4 37.1 -14.15 32.35 -13.25 32.6 -14.15 33.1 -15.5 33.6 -16.75 34.1 -17.9 34.75 -19.5" fill="#141a13" fill-rule="evenodd" stroke="none"/>
    <path d="M37.1 -14.15 L37.6 -8.0 37.5 -7.65 30.85 -6.65 30.75 -7.9 29.75 -9.75 32.35 -13.25 37.1 -14.15" fill="#5c5c5c" fill-rule="evenodd" stroke="none"/>
    <path d="M30.85 -6.65 L37.5 -7.65 37.85 -2.25 31.5 -6.0 30.85 -6.65" fill="#5f5f5f" fill-rule="evenodd" stroke="none"/>
    <path d="M38.25 -8.25 L39.6 11.0 38.75 11.0 38.75 7.5 38.35 5.85 38.35 4.75 38.25 4.0 38.75 3.0 38.1 1.0 37.85 -2.25 37.5 -7.65 37.6 -8.0 38.25 -8.25" fill="#242424" fill-rule="evenodd" stroke="none"/>
    <path d="M-26.9 -20.15 L-33.15 -19.5 -34.2 -19.45 -44.4 -19.15 -48.25 -19.5 -49.0 -19.75 -48.9 -20.0 -48.0 -20.4 -46.5 -20.75 -44.4 -21.0 -43.75 -21.4 -43.0 -21.5 -42.9 -21.5 -42.25 -21.65 -25.65 -22.9 -26.75 -21.25 -26.9 -20.15" fill="#181818" fill-rule="evenodd" stroke="none"/>
    <path d="M-13.15 -22.75 L-12.65 -22.65 -12.4 -19.0 -15.25 -13.25 -17.5 -15.5 -16.15 -18.5 -13.9 -21.65 -13.9 -21.75 -13.5 -22.15 -13.15 -22.75 M-17.9 -12.65 L-18.0 -11.65 -18.25 -11.75 -17.9 -12.65" fill="#555555" fill-rule="evenodd" stroke="none"/>
    <path d="M-12.65 -10.0 L-15.25 -13.25 -12.4 -19.0 -12.15 -18.75 -11.0 -12.0 -12.65 -10.0" fill="#848484" fill-rule="evenodd" stroke="none"/>
    <path d="M-17.9 -12.65 L-17.9 -13.15 -17.65 -14.9 -17.5 -15.5 -15.25 -13.25 -12.65 -10.0 -12.5 -9.65 -18.25 -9.65 -18.0 -11.65 -17.9 -12.65" fill="#050805" fill-rule="evenodd" stroke="none"/>
    <path d="M5.85 -22.65 L6.75 -22.65 11.5 -9.15 11.6 -8.25 11.0 -8.25 10.75 -8.15 7.35 -7.9 5.85 -22.65 M6.6 -18.65 L7.0 -18.5 7.0 -19.15 6.6 -19.25 6.6 -18.65 M6.35 -22.15 L6.35 -21.4 6.75 -21.25 6.75 -22.0 6.35 -22.15 M6.85 -20.5 L6.5 -20.65 6.5 -20.0 6.85 -19.9 6.85 -20.5" fill="#777777" fill-rule="evenodd" stroke="none"/>
    <path d="M-5.4 -21.65 L5.35 -22.5 4.25 -15.75 4.1 -15.4 4.1 -15.25 Q3.35 -15.0 2.85 -10.75 L2.5 -7.9 -2.65 -8.5 -3.65 -10.75 -2.9 -12.9 -3.0 -14.0 -7.0 -20.9 Q-6.2 -21.25 -5.4 -21.65 M-23.25 -19.65 L-23.0 -10.25 -23.15 -9.75 -23.15 -9.15 -23.0 -7.9 -23.15 -4.25 -23.65 -5.0 -23.4 -13.15 -23.4 -16.25 -23.4 -18.0 -23.25 -19.65" fill="#030303" fill-rule="evenodd" stroke="none"/>
    <path d="M-7.4 -21.65 L-5.4 -21.65 Q-6.2 -21.25 -7.0 -20.9 L-7.4 -21.65" fill="#0f0f0f" fill-rule="evenodd" stroke="none"/>
    <path d="M-34.2 -19.45 L-45.65 -18.4 -45.15 -18.9 -46.25 -19.0 -44.4 -19.15 -34.2 -19.45" fill="#0a0a0a" fill-rule="evenodd" stroke="none"/>
    <path d="M2.85 -7.9 L4.1 -7.65 7.35 -7.9 10.75 -8.15 11.0 -8.25 Q12.35 -5.5 11.85 -5.0 L12.35 -4.9 12.0 -4.75 4.25 -3.15 3.6 -3.15 4.0 -1.65 12.6 -2.4 13.6 1.75 5.0 5.5 -6.65 5.75 -7.75 0.75 -7.75 -3.25 -9.0 -6.25 -12.5 -9.65 -9.9 -9.4 -4.75 -8.75 -2.65 -8.5 2.5 -7.9 2.85 -7.9" fill="#292929" fill-rule="evenodd" stroke="none"/>
    <path d="M-17.9 -15.5 L-17.5 -15.5 -17.65 -14.9 -17.9 -13.15 -17.9 -12.65 -18.25 -11.75 -18.0 -11.65 -18.25 -9.65 -17.65 -3.0 -19.25 -3.25 -19.65 -6.4 -20.15 -7.5 -18.75 -11.4 -17.9 -15.5" fill="#2e2e2e" fill-rule="evenodd" stroke="none"/>
    <path d="M31.5 -6.0 L37.85 -2.25 38.1 1.0 38.75 3.0 38.25 4.0 38.35 4.75 37.75 7.0 37.1 8.75 Q36.25 9.0 33.25 5.75 L32.85 2.35 32.5 -0.65 32.75 -2.9 31.85 -4.4 31.5 -6.0" fill="#3b3b3b" fill-rule="evenodd" stroke="none"/>
    <path d="M12.6 -2.4 L12.35 -3.75 21.1 -4.5 21.5 -3.15 21.0 -3.0 12.6 -2.4" fill="#373737" fill-rule="evenodd" stroke="none"/>
    <path d="M21.1 -4.5 L12.35 -3.75 12.0 -4.75 21.1 -4.5" fill="#505050" fill-rule="evenodd" stroke="none"/>
    <path d="M4.25 -3.15 L12.0 -4.75 12.35 -3.75 4.25 -3.15" fill="#3f3f3f" fill-rule="evenodd" stroke="none"/>
    <path d="M13.75 4.85 L14.0 4.85 22.85 4.0 23.85 8.75 13.85 9.6 13.85 8.85 14.25 8.75 13.85 8.75 14.25 8.35 13.85 8.35 14.5 8.1 13.85 8.0 14.1 7.75 13.75 7.6 14.25 7.25 13.75 6.85 14.35 6.75 13.75 6.5 14.1 6.25 13.75 5.75 14.35 5.75 13.75 5.6 14.0 5.5 13.75 4.85" fill="#0c0c0c" fill-rule="evenodd" stroke="none"/>
    <path d="M12.6 -2.4 L4.0 -1.65 3.6 -3.15 4.25 -3.15 12.35 -3.75 12.6 -2.4" fill="#252525" fill-rule="evenodd" stroke="none"/>
    <path d="M39.6 11.0 L39.5 11.85 28.25 13.5 10.85 15.0 11.1 14.5 12.0 14.35 22.0 13.5 38.75 11.0 39.6 11.0" fill="#0e0e0e" fill-rule="evenodd" stroke="none"/>
    <path d="M8.35 -22.75 L8.25 -22.9 8.5 -22.9 23.1 -24.0 23.1 -24.15 24.0 -24.15 24.6 -24.65 25.0 -24.75 27.0 -12.15 27.0 -11.65 17.85 -8.75 12.1 -8.25 11.6 -8.25 11.0 -8.15 10.35 -11.65 10.35 -11.75 10.1 -12.4 10.0 -12.9 10.0 -13.15 9.75 -14.4 9.6 -14.65 9.6 -15.9 8.5 -22.4 8.35 -22.75 M28.0 -25.9 L28.1 -26.0 28.5 -26.0 28.75 -25.9 29.0 -25.65 28.0 -25.9 M29.1 -25.5 L32.35 -23.75 34.25 -20.9 34.25 -20.75 34.35 -20.5 34.5 -20.25 34.6 -20.15 34.6 -20.0 34.25 -20.15 34.75 -19.4 34.75 -19.0 34.25 -17.9 34.0 -17.9 34.1 -17.75 33.75 -17.75 34.0 -17.5 33.85 -16.9 33.6 -16.75 33.25 -19.15 32.6 -21.65 32.6 -21.75 32.0 -22.4 31.6 -22.65 31.75 -22.15 31.85 -21.0 32.0 -20.9 32.0 -20.4 31.85 -19.65 31.5 -21.0 31.35 -22.75 30.85 -23.65 30.0 -24.25 29.85 -24.4 29.75 -24.25 30.1 -23.4 30.5 -20.9 30.35 -20.25 30.0 -21.75 29.75 -24.25 29.1 -25.5 M32.85 -14.9 L33.0 -14.65 32.75 -14.25 32.6 -14.15 32.5 -15.65 32.85 -14.9 M30.35 -20.25 L30.75 -19.4 31.0 -17.75 30.85 -17.0 31.25 -16.25 31.6 -13.75 31.35 -13.15 30.85 -17.0 30.6 -18.0 30.35 -20.25 M31.85 -19.65 L32.25 -18.9 32.6 -16.4 32.5 -15.65 32.1 -17.25 31.85 -19.65" fill="#131313" fill-opacity="0.50980395" fill-rule="evenodd" stroke="none"/>
    <path d="M25.0 -24.75 L28.0 -25.9 29.0 -25.65 29.1 -25.5 29.75 -24.25 30.0 -21.75 30.35 -20.25 30.6 -18.0 30.85 -17.0 31.35 -13.15 31.35 -13.0 27.0 -11.65 27.0 -12.15 25.0 -24.75" fill="#262626" fill-opacity="0.50980395" fill-rule="evenodd" stroke="none"/>
    <path d="M33.6 -16.75 L33.6 -16.5 33.5 -15.9 33.1 -15.15 32.85 -15.0 32.85 -14.9 32.5 -15.65 32.6 -14.15 32.6 -13.75 32.35 -13.25 31.75 -13.15 31.35 -13.15 31.6 -13.75 31.25 -16.25 30.85 -17.0 31.0 -17.75 30.75 -19.4 30.35 -20.25 30.5 -20.9 30.1 -23.4 29.75 -24.25 29.85 -24.4 30.0 -24.25 30.85 -23.65 31.35 -22.75 31.5 -21.0 31.85 -19.65 32.0 -20.4 32.0 -20.9 31.85 -21.0 31.75 -22.15 31.6 -22.65 32.0 -22.4 32.6 -21.75 32.6 -21.65 33.25 -19.15 33.6 -16.75 M31.85 -19.65 L32.1 -17.25 32.5 -15.65 32.6 -16.4 32.25 -18.9 31.85 -19.65" fill="#131313" fill-rule="evenodd" stroke="none"/>
    <path d="M34.6 -20.0 L35.0 -19.75 34.85 -19.5 34.75 -19.4 34.25 -20.15 34.6 -20.0" fill="#141414" fill-rule="evenodd" stroke="none"/>
    <path d="M7.85 -22.75 L8.25 -22.9 8.35 -22.75 7.85 -22.75 M11.0 -8.15 L10.75 -8.25 9.75 -13.4 9.6 -13.75 9.6 -14.65 9.75 -14.4 10.0 -13.15 10.0 -12.9 10.1 -12.4 10.35 -11.75 10.35 -11.65 11.0 -8.15" fill="#151515" fill-rule="evenodd" stroke="none"/>
    <path d="M10.75 -8.25 L10.75 -8.15 10.5 -8.15 3.85 -7.65 2.85 -7.75 2.5 -7.9 -12.65 -9.65 -12.75 -10.0 -17.0 -15.15 -17.25 -15.25 -17.5 -15.5 -17.25 -15.9 -17.15 -16.15 -17.0 -16.4 -17.0 -16.5 -16.9 -16.65 -16.9 -16.9 -16.75 -17.15 -16.65 -17.25 -16.5 -17.65 -16.5 -17.75 -16.15 -19.25 -16.0 -19.4 -13.4 -22.4 -13.15 -22.75 -8.9 -21.9 -8.4 -21.65 -6.15 -21.65 0.6 -22.15 0.75 -22.15 5.35 -22.5 5.85 -22.65 7.85 -22.75 7.85 -22.25 8.6 -19.15 8.75 -17.4 8.75 -17.25 8.85 -16.75 9.6 -14.65 9.6 -13.75 9.75 -13.4 10.75 -8.25" fill="#040404" fill-opacity="0.50980395" fill-rule="evenodd" stroke="none"/>
    <path d="M-17.25 -15.25 L-17.65 -14.9 -17.65 -14.75 -17.5 -14.5 -17.9 -13.15 -17.9 -12.5 -18.15 -11.65 -18.15 -11.25 -18.25 -10.9 -18.0 -10.5 -18.25 -10.4 -18.15 -9.5 -18.25 -7.9 -17.75 -4.25 -17.9 -3.25 -17.65 -3.0 -20.0 -3.4 -20.4 -3.65 -20.65 -3.75 -21.0 -3.75 -21.15 -5.65 -21.25 -6.0 -21.65 -9.15 -21.5 -10.25 -21.5 -10.75 -21.0 -11.4 -19.15 -15.9 -18.4 -15.65 -18.4 -15.5 -17.5 -15.5 -17.25 -15.25 M-24.25 -9.25 L-24.0 -9.0 -24.0 -7.0 -23.75 -6.65 -23.75 -9.25 -24.25 -9.25 M-24.25 -20.75 L-24.0 -20.4 -23.9 -17.65 -23.65 -17.4 -23.65 -20.0 -23.5 -19.9 -23.25 -19.65 -23.5 -17.9 -23.4 -10.4 -23.5 -9.65 -23.4 -8.4 -23.5 -8.4 -23.65 -7.0 -23.5 -5.25 -23.65 -4.75 -23.75 -5.0 -23.75 -5.15 -23.9 -5.4 -24.0 -5.65 -24.25 -5.9 -24.4 -5.9 -24.5 -9.0 -24.4 -9.65 -24.5 -12.15 -24.4 -13.4 -24.5 -13.5 -24.4 -17.15 -24.25 -18.15 -24.25 -20.75" fill="#000000" fill-opacity="0.50980395" fill-rule="evenodd" stroke="none"/>
    <path d="M7.85 -22.75 L8.35 -22.75 8.5 -22.4 9.6 -15.9 9.6 -14.65 8.85 -16.75 8.75 -17.25 8.75 -17.4 8.6 -19.15 7.85 -22.25 7.85 -22.75" fill="#0d0d0d" fill-rule="evenodd" stroke="none"/>
    <path d="M36.5 -16.4 L36.1 -17.0 36.1 -17.5 37.0 -15.9 36.5 -16.4 M37.6 -8.75 L37.6 -8.9 37.85 -8.65 37.6 -8.75 M37.35 -13.25 L37.1 -14.65 37.35 -15.15 37.35 -13.25" fill="#0e0e0e" fill-rule="evenodd" stroke="none"/>
    <path d="M37.0 -15.9 L37.1 -15.65 37.25 -15.4 37.35 -15.15 37.1 -14.65 37.35 -13.25 36.85 -14.15 37.1 -14.65 36.5 -16.4 37.0 -15.9 M38.0 -8.65 L38.1 -8.25 37.6 -8.0 37.6 -8.75 37.85 -8.65 38.0 -8.65" fill="#0d0d0d" fill-opacity="0.50980395" fill-rule="evenodd" stroke="none"/>
    <path d="M37.35 -15.15 L37.85 -13.75 38.0 -8.65 37.85 -8.65 37.6 -8.9 37.6 -9.4 37.5 -9.9 37.5 -11.25 37.35 -11.75 37.35 -13.25 37.35 -15.15" fill="#0f0f0f" fill-rule="evenodd" stroke="none"/>
  </g>
</svg>
