<?xml version="1.0" encoding="UTF-8" standalone="no"?>
<svg xmlns:xlink="http://www.w3.org/1999/xlink" height="93.85px" width="293.15px" xmlns="http://www.w3.org/2000/svg">
  <g transform="matrix(1.0, 0.0, 0.0, 1.0, 149.65, 80.0)">
    <path d="M-11.5 -78.15 L-10.5 -80.0 -9.25 -79.5 -9.5 -78.65 -9.65 -78.4 -9.65 -78.25 -10.25 -77.5 -11.5 -78.15" fill="#8f8f8f" fill-rule="evenodd" stroke="none"/>
    <path d="M139.25 -75.0 L134.0 -74.5 133.85 -74.5 126.85 -73.9 126.5 -73.9 122.5 -73.5 122.0 -73.5 121.0 -73.4 120.6 -73.4 113.5 -72.75 104.6 -72.0 104.25 -72.0 103.1 -71.9 102.75 -71.9 97.25 -71.4 96.85 -71.4 95.75 -71.25 95.35 -71.25 94.25 -71.15 93.75 -71.15 91.25 -70.9 90.85 -70.75 90.5 -70.75 89.75 -70.75 89.35 -70.65 88.35 -70.65 87.85 -70.5 86.35 -70.5 86.35 -70.4 84.85 -70.4 83.85 -70.25 83.5 -70.25 82.35 -70.15 82.0 -70.15 80.85 -70.0 80.5 -70.0 79.5 -69.9 79.1 -69.9 78.0 -69.75 77.6 -69.75 76.5 -69.65 76.1 -69.65 75.0 -69.5 72.1 -69.25 71.75 -69.25 70.6 -69.15 70.25 -69.15 69.25 -69.0 68.75 -69.0 67.75 -68.9 67.25 -68.9 66.25 -68.75 65.75 -68.75 63.35 -68.5 62.85 -68.5 61.85 -68.4 61.35 -68.4 60.25 -68.25 59.85 -68.25 58.75 -68.15 58.35 -68.15 57.25 -68.0 56.85 -68.0 55.85 -67.9 55.35 -67.9 54.35 -67.75 54.0 -67.75 52.85 -67.65 52.5 -67.65 51.35 -67.5 51.0 -67.5 49.85 -67.4 49.5 -67.4 48.35 -67.25 48.0 -67.25 47.0 -67.15 46.5 -67.15 45.5 -67.0 45.1 -67.0 44.0 -66.9 43.6 -66.9 42.5 -66.75 42.1 -66.75 41.0 -66.65 40.6 -66.65 39.5 -66.5 39.0 -66.5 38.1 -66.4 37.5 -66.4 36.6 -66.25 36.1 -66.25 35.1 -66.15 34.6 -66.15 33.6 -66.0 33.1 -66.0 32.1 -65.9 31.6 -65.9 30.75 -65.75 30.1 -65.75 29.25 -65.65 28.75 -65.65 27.75 -65.5 27.25 -65.5 26.25 -65.4 25.75 -65.4 24.75 -65.25 24.35 -65.25 23.25 -65.15 22.75 -65.15 21.85 -65.0 21.35 -65.0 20.35 -64.9 19.85 -64.9 18.85 -64.75 18.35 -64.75 17.5 -64.65 17.0 -64.65 16.0 -64.5 15.5 -64.5 14.85 -64.25 14.35 -64.4 14.0 -64.25 14.35 -64.15 13.85 -64.15 13.0 -64.25 12.5 -64.15 12.75 -64.15 12.35 -64.0 11.85 -64.0 11.5 -64.0 10.85 -64.15 10.25 -64.0 9.1 -64.0 8.5 -63.9 7.5 -63.9 7.0 -63.75 5.75 -63.75 7.25 -64.65 7.25 -65.4 11.75 -65.75 11.85 -65.75 139.25 -77.0 139.25 -75.0 M-29.15 -44.4 L-27.9 -46.75 -28.4 -47.15 -26.65 -50.4 -25.4 -49.75 -25.5 -49.4 -24.75 -50.5 -24.75 -50.65 -24.65 -50.9 -23.9 -52.0 -23.65 -52.5 -23.0 -53.5 -23.0 -53.65 -22.9 -53.9 -22.75 -53.9 -22.75 -53.75 -24.0 -51.0 -24.15 -50.75 -24.25 -50.5 -24.4 -50.25 -24.5 -50.0 -24.9 -49.4 -25.0 -49.15 -25.15 -48.9 -25.25 -48.65 -25.65 -47.9 -25.75 -47.65 -25.9 -47.4 -26.0 -47.15 -26.4 -46.5 -26.5 -46.25 -26.65 -46.0 -26.75 -45.75 -26.9 -45.65 -26.9 -45.5 -27.15 -45.25 -27.4 -45.15 -27.75 -44.9 -27.9 -44.75 -29.15 -44.4 M-20.25 -61.4 L-21.5 -61.4 -22.4 -61.25 -23.0 -61.25 -24.0 -61.15 -24.5 -61.15 -25.5 -61.0 -26.0 -61.0 -27.0 -60.9 -27.5 -60.9 -28.4 -60.75 -29.0 -60.75 -29.9 -60.65 -30.4 -60.65 -31.4 -60.5 -31.9 -60.5 -32.9 -60.4 -33.4 -60.4 -34.4 -60.25 -34.9 -60.25 -35.9 -60.15 -36.4 -60.15 -37.25 -60.0 -38.0 -60.0 -38.75 -59.9 -39.5 -59.9 -40.25 -59.75 -40.9 -59.75 -41.75 -59.65 -42.4 -59.65 -43.25 -59.5 -43.9 -59.5 -44.65 -59.4 -45.4 -59.4 -46.15 -59.25 -46.75 -59.25 -47.65 -59.15 -48.25 -59.15 -49.15 -59.0 -49.75 -59.0 -50.65 -58.9 -51.25 -58.9 -52.15 -58.75 -52.65 -58.75 -53.5 -58.65 -54.15 -58.65 -55.0 -58.5 -55.65 -58.5 -56.5 -58.4 -57.15 -58.4 -57.9 -58.25 -58.65 -58.25 -59.4 -58.15 -60.0 -58.15 -61.0 -58.0 -61.5 -58.0 -62.25 -57.9 -63.0 -57.9 -63.9 -57.75 -64.5 -57.75 -65.4 -57.65 -66.0 -57.65 -66.9 -57.5 -67.5 -57.5 -68.4 -57.4 -68.9 -57.4 -69.75 -57.25 -70.4 -57.25 -71.25 -57.15 -72.0 -57.15 -72.75 -57.0 -73.5 -57.0 -74.25 -56.9 -75.0 -56.9 -75.75 -56.75 -76.5 -56.75 -77.25 -56.65 -77.9 -56.65 -78.65 -56.5 -79.4 -56.5 -80.15 -56.4 -80.75 -56.4 -83.65 -56.15 -84.65 -56.0 -85.4 -56.0 -85.75 -55.9 -86.15 -55.9 -86.25 -57.15 -82.0 -57.65 -81.75 -57.65 -80.65 -57.75 -80.0 -57.75 -79.25 -57.9 -78.15 -57.9 -77.75 -58.0 -77.4 -58.0 -76.25 -58.15 -73.65 -58.25 -72.65 -58.4 -70.0 -58.5 -68.9 -58.65 -66.25 -58.75 -65.25 -58.9 -62.5 -59.0 -61.5 -59.15 -58.75 -59.25 -57.65 -59.4 -50.25 -59.9 -43.9 -60.25 -42.9 -60.4 -40.25 -60.5 -39.15 -60.65 -36.5 -60.75 -35.4 -60.9 -32.75 -61.0 -31.75 -61.15 -30.75 -61.15 -29.9 -61.25 -28.9 -61.25 -28.0 -61.4 -25.25 -61.5 -24.25 -61.65 -21.65 -61.75 -20.5 -61.9 -17.9 -62.0 -17.0 -62.15 -14.25 -62.25 -13.25 -62.4 -11.9 -62.4 -11.4 -62.5 -10.4 -62.5 -9.5 -62.65 -7.65 -62.65 -5.4 -62.75 -6.25 -62.65 -6.75 -62.65 -7.75 -62.5 -8.4 -62.5 -8.65 -62.4 -9.75 -62.4 -10.15 -62.25 -10.4 -62.25 -11.25 -62.25 -12.25 -62.15 -12.65 -62.15 -13.15 -62.0 -13.65 -62.0 -14.15 -62.0 -15.25 -61.9 -15.65 -61.9 -16.65 -61.75 -17.15 -61.75 -18.0 -61.65 -18.65 -61.65 -20.25 -61.4 M-146.15 -53.4 L-146.4 -53.4 -147.0 -53.25 -148.0 -53.25 -148.4 -53.15 -149.4 -53.15 -149.65 -55.0 -146.15 -55.25 -146.15 -53.4 M-18.4 -64.9 L-11.5 -78.15 -10.25 -77.5 -10.4 -77.25 -10.75 -76.5 -10.9 -76.25 -11.0 -76.0 -11.15 -75.75 -11.15 -75.65 -11.65 -74.75 -11.75 -74.65 -11.75 -74.5 -12.15 -74.4 -12.25 -73.65 -12.4 -73.4 -12.5 -73.15 -12.65 -72.9 -12.75 -72.65 -12.9 -72.4 -13.0 -72.15 -13.25 -71.75 -13.4 -71.5 -13.5 -71.25 -13.65 -71.0 -13.75 -70.75 -13.75 -70.65 -14.5 -69.25 -14.9 -68.65 -15.0 -68.4 -15.65 -67.25 -15.75 -67.0 -15.75 -66.9 -16.15 -66.15 -16.25 -65.9 -16.5 -65.5 -16.5 -65.4 -17.5 -64.0 -18.4 -64.9" fill="#000000" fill-rule="evenodd" stroke="none"/>
    <path d="M-22.5 -57.25 L-22.5 -57.4 -20.25 -61.4 -18.65 -61.65 -18.0 -61.65 -17.15 -61.75 -16.65 -61.75 -15.65 -61.9 -15.25 -61.9 -14.15 -62.0 -13.65 -62.0 -13.15 -61.5 -12.75 -60.5 -11.65 -59.5 -12.15 -58.4 -12.65 -58.25 -12.65 -57.5 -14.75 -53.75 -15.75 -53.0 -22.75 -53.75 -22.75 -53.9 -22.9 -53.9 -22.0 -55.4 -21.9 -55.65 -21.0 -57.0 -22.5 -57.25 M-18.9 -63.65 L-18.9 -64.15 -18.4 -64.9 -17.5 -64.0 -16.5 -65.4 -16.15 -65.25 -15.15 -63.9 -18.9 -63.65" fill="#353535" fill-rule="evenodd" stroke="none"/>
    <path d="M20.35 -64.65 L20.25 -64.65 19.25 -64.5 16.6 -64.4 15.6 -64.25 14.85 -64.25 15.5 -64.5 16.0 -64.5 17.0 -64.65 17.5 -64.65 18.35 -64.75 18.85 -64.75 19.85 -64.9 20.35 -64.9 20.35 -64.65 M-82.0 -57.65 L-83.65 -57.65 -84.75 -57.5 -87.4 -57.4 -88.4 -57.25 -91.15 -57.15 -92.25 -57.0 -93.0 -57.0 -96.0 -56.75 -98.5 -56.65 -99.75 -56.5 -106.0 -56.15 -107.15 -56.0 -107.75 -56.0 -110.9 -55.75 -114.65 -55.5 -117.25 -55.4 -118.25 -55.25 -124.65 -54.9 -125.75 -54.75 -128.4 -54.65 -129.5 -54.5 -139.25 -53.9 -140.25 -53.75 -142.75 -53.65 -143.75 -53.5 -146.15 -53.4 -146.15 -55.25 -18.9 -63.65 -15.15 -63.9 -5.4 -64.5 -1.5 -64.75 0.5 -64.9 1.25 -63.5 -1.65 -63.15 -2.65 -63.15 -3.0 -63.0 -4.15 -63.0 -4.9 -62.9 -5.15 -62.75 -5.4 -62.75 -7.65 -62.65 -9.5 -62.65 -10.4 -62.5 -11.4 -62.5 -11.9 -62.4 -13.25 -62.4 -14.25 -62.25 -17.0 -62.15 -17.9 -62.0 -20.5 -61.9 -21.65 -61.75 -24.25 -61.65 -25.25 -61.5 -28.0 -61.4 -28.9 -61.25 -29.9 -61.25 -30.75 -61.15 -31.75 -61.15 -32.75 -61.0 -35.4 -60.9 -36.5 -60.75 -39.15 -60.65 -40.25 -60.5 -42.9 -60.4 -43.9 -60.25 -50.25 -59.9 -57.65 -59.4 -58.75 -59.25 -61.5 -59.15 -62.5 -59.0 -65.25 -58.9 -66.25 -58.75 -68.9 -58.65 -70.0 -58.5 -72.65 -58.4 -73.65 -58.25 -76.25 -58.15 -77.4 -58.0 -77.75 -58.0 -78.15 -57.9 -79.25 -57.9 -80.0 -57.75 -80.65 -57.75 -81.15 -57.75 -81.75 -57.65 -82.0 -57.65 M14.35 -64.15 L14.0 -64.25 14.35 -64.4 14.35 -64.15 M12.75 -64.15 L12.5 -64.15 13.0 -64.25 13.85 -64.15 12.75 -64.15" fill="#1c1c1c" fill-rule="evenodd" stroke="none"/>
    <path d="M45.1 -20.25 L45.6 -13.4 46.1 -12.9 45.35 -12.25 44.85 -19.15 44.6 -20.65 45.1 -20.25 M-15.9 -65.75 L-16.15 -65.25 -16.5 -65.4 -15.9 -65.75 M-5.4 -64.5 L-5.25 -65.9 -4.65 -66.9 -3.65 -67.25 -2.75 -67.15 -2.0 -66.25 -1.5 -64.75 -5.4 -64.5 M-24.75 -50.5 L-25.5 -49.4 -25.4 -49.75 -24.75 -50.5 M-5.15 -62.75 L-4.9 -62.9 -4.15 -63.0 -3.0 -63.0 -2.65 -63.15 -1.65 -63.15 -2.25 -61.75 -3.25 -61.25 -4.75 -61.9 -5.15 -62.75 M24.85 -49.15 L23.0 -49.25 20.75 -48.65 17.35 -49.4 20.0 -50.25 Q23.75 -50.4 24.85 -49.15 M14.5 -28.25 L30.25 -29.5 31.25 -29.9 33.25 -17.25 33.1 -16.25 24.85 -13.65 17.75 -13.0 13.5 -26.25 12.75 -27.65 12.6 -28.15 14.5 -28.25 M35.1 -31.4 L35.75 -31.65 36.1 -31.4 37.1 -30.25 36.75 -30.25 38.6 -18.0 38.1 -17.9 36.1 -30.5 35.6 -30.75 35.1 -31.4 M38.0 -29.15 L38.35 -28.9 38.75 -28.4 40.25 -19.15 40.1 -18.4 39.6 -18.25 38.0 -29.15 M40.6 -26.5 L40.85 -26.15 41.1 -26.0 41.75 -25.5 42.25 -24.25 40.85 -20.75 39.85 -27.25 40.6 -26.5 M-2.25 -7.75 L-2.25 -3.9 -1.0 1.75 11.5 1.35 10.75 6.6 20.75 5.75 21.5 5.85 21.35 6.1 20.85 6.5 21.35 6.5 21.25 7.0 20.75 7.1 21.1 7.1 21.0 8.1 20.25 8.1 20.0 8.6 20.1 9.25 19.75 9.25 19.6 9.85 20.0 10.1 19.25 10.1 19.35 10.5 18.5 10.85 17.0 11.1 8.5 11.85 -11.4 12.35 -12.25 -0.5 -11.15 -1.65 -2.25 -7.75 M-19.5 -9.25 L-19.9 -9.9 -19.65 -16.5 -19.9 -17.15 -19.5 -17.65 -19.25 -14.25 -19.25 -9.4 -19.5 -9.25 M-19.15 -17.9 L-19.65 -17.75 -19.5 -25.0 -19.15 -22.5 -19.15 -17.9 M-4.75 -25.25 L-5.9 -24.9 -6.75 -24.9 -6.75 -25.4 -4.65 -25.65 -4.75 -25.25" fill="#020202" fill-rule="evenodd" stroke="none"/>
    <path d="M-3.65 -67.25 L-2.0 -67.5 0.25 -68.65 0.75 -68.9 2.75 -68.65 3.25 -62.0 1.85 -61.0 -0.9 -60.9 -1.65 -61.25 -3.25 -61.25 -2.25 -61.75 -1.65 -63.15 1.25 -63.5 0.5 -64.9 -1.5 -64.75 -2.0 -66.25 -2.75 -67.15 -3.65 -67.25" fill="#383838" fill-rule="evenodd" stroke="none"/>
    <path d="M-9.65 -78.25 L-10.4 -77.25 -10.25 -77.5 -9.65 -78.25 M-11.75 -74.5 L-12.25 -73.65 -12.15 -74.4 -11.75 -74.5 M11.25 -28.0 L11.35 -27.75 10.35 -22.4 10.0 -22.25 10.1 -21.15 8.85 -16.75 8.25 -12.65 0.5 -13.65 0.1 -14.15 1.0 -16.9 -0.15 -19.65 -3.4 -24.65 -2.0 -24.9 0.6 -27.15 11.25 -28.0 M-19.15 -24.75 L-18.65 -24.5 -18.9 -8.5 -19.25 -9.0 -19.25 -9.4 -19.25 -14.25 -19.15 -17.9 -19.15 -22.5 -19.15 -24.75" fill="#030303" fill-rule="evenodd" stroke="none"/>
    <path d="M139.25 -77.0 L143.5 -77.25 143.5 -75.25 142.25 -75.25 141.5 -75.15 140.85 -75.15 139.25 -75.0 139.25 -77.0 M47.5 7.5 L47.25 8.5 34.1 10.25 16.6 11.75 17.0 11.1 18.5 10.85 19.35 10.5 19.25 10.1 20.0 10.1 19.6 9.85 19.75 9.25 20.1 9.25 20.0 8.6 20.25 8.1 21.0 8.1 21.1 7.1 20.75 7.1 21.25 7.0 21.35 6.5 20.85 6.5 21.35 6.1 21.5 5.85 20.75 5.75 21.5 5.6 31.25 4.85 30.0 -0.25 40.6 -1.75 41.0 1.5 Q44.0 5.5 45.25 5.0 L45.35 6.75 46.6 7.35 47.5 7.5 M-22.5 -27.9 L-26.9 -30.25 -29.75 -33.9 -31.25 -38.75 -30.65 -43.75 -29.15 -44.4 -27.9 -44.75 -27.75 -44.9 -27.4 -45.15 -27.15 -45.25 -26.9 -45.5 -18.9 -47.75 -15.15 -47.5 -14.75 -47.5 -12.65 -47.15 -13.5 -46.5 Q-22.75 -49.15 -25.15 -41.4 -26.75 -34.15 -19.0 -31.5 -20.15 -29.55 -21.65 -27.9 L-22.5 -27.9 M-13.5 -20.65 L-11.5 -24.15 -11.15 -24.65 -11.0 -24.75 -11.25 -23.9 -12.4 -20.65 -13.5 -20.65" fill="#060606" fill-rule="evenodd" stroke="none"/>
    <path d="M8.85 -68.25 L10.5 -68.0 10.85 -67.5 11.6 -66.5 11.6 -66.4 11.75 -65.9 11.75 -65.75 7.25 -65.4 7.6 -67.4 8.85 -68.25 M7.5 -63.9 L8.5 -63.9 9.1 -64.0 10.25 -64.0 10.85 -64.15 11.5 -64.0 10.75 -62.65 9.5 -62.15 8.5 -62.4 7.5 -63.9" fill="#303030" fill-rule="evenodd" stroke="none"/>
    <path d="M10.85 -67.5 L11.35 -67.25 11.6 -66.5 10.85 -67.5 M9.5 -62.15 L10.75 -62.65 11.5 -64.0 11.85 -64.0 11.75 -63.4 10.35 -62.25 9.5 -62.15" fill="#454545" fill-rule="evenodd" stroke="none"/>
    <path d="M5.5 -69.0 L7.75 -68.4 8.85 -68.25 7.6 -67.4 7.25 -65.4 7.25 -64.65 5.75 -63.75 7.0 -63.75 7.5 -63.9 8.5 -62.4 9.5 -62.15 9.35 -62.15 8.85 -62.0 8.6 -62.0 8.0 -61.65 6.5 -61.15 3.25 -62.0 2.75 -68.65 5.5 -69.0 M-20.75 -42.5 L-18.9 -44.0 -17.4 -41.0 -17.4 -40.65 -17.4 -40.5 -18.0 -40.15 -19.9 -41.65 -20.75 -42.5" fill="#151515" fill-rule="evenodd" stroke="none"/>
    <path d="M0.25 -68.65 L0.5 -70.65 1.1 -71.4 2.5 -72.0 4.6 -71.4 5.1 -70.75 5.5 -69.0 2.75 -68.65 0.75 -68.9 0.25 -68.65" fill="#494949" fill-rule="evenodd" stroke="none"/>
    <path d="M90.85 -70.75 L107.25 -71.9 108.5 -71.9 108.5 -70.75 108.0 -70.5 106.6 -70.5 106.35 -70.4 105.0 -70.4 104.6 -70.25 103.35 -70.25 103.0 -70.15 101.6 -70.15 101.1 -70.0 99.85 -70.0 99.25 -69.9 98.25 -69.9 97.35 -69.75 96.35 -69.75 95.5 -69.65 94.5 -69.65 93.75 -69.5 92.6 -69.5 91.85 -69.4 90.85 -69.4 90.1 -69.25 89.0 -69.25 88.25 -69.15 87.1 -69.15 86.25 -69.0 83.35 -68.9 82.5 -68.75 79.75 -68.65 78.75 -68.5 76.0 -68.4 75.1 -68.25 74.1 -68.25 73.25 -68.15 72.25 -68.15 71.35 -68.0 70.35 -68.0 69.5 -67.9 68.5 -67.9 67.6 -67.75 64.85 -67.65 63.85 -67.5 61.1 -67.4 60.25 -67.25 57.35 -67.15 56.6 -67.0 55.5 -67.0 54.75 -66.9 53.75 -66.9 52.75 -66.75 50.0 -66.65 49.0 -66.5 46.25 -66.4 45.35 -66.25 44.35 -66.25 41.6 -66.0 38.85 -65.9 37.85 -65.75 35.1 -65.65 34.1 -65.5 31.35 -65.4 30.5 -65.25 27.75 -65.15 26.75 -65.0 24.0 -64.9 23.1 -64.75 20.35 -64.65 20.35 -64.9 21.35 -65.0 21.85 -65.0 22.75 -65.15 23.25 -65.15 24.35 -65.25 24.75 -65.25 25.75 -65.4 26.25 -65.4 27.25 -65.5 27.75 -65.5 28.75 -65.65 29.25 -65.65 30.1 -65.75 30.75 -65.75 31.6 -65.9 32.1 -65.9 33.1 -66.0 33.6 -66.0 34.6 -66.15 35.1 -66.15 36.1 -66.25 36.6 -66.25 37.5 -66.4 38.1 -66.4 39.0 -66.5 39.5 -66.5 40.6 -66.65 41.0 -66.65 42.1 -66.75 42.5 -66.75 43.6 -66.9 44.0 -66.9 45.1 -67.0 45.5 -67.0 46.5 -67.15 47.0 -67.15 48.0 -67.25 48.35 -67.25 49.5 -67.4 49.85 -67.4 51.0 -67.5 51.35 -67.5 52.5 -67.65 52.85 -67.65 54.0 -67.75 54.35 -67.75 55.35 -67.9 55.85 -67.9 56.85 -68.0 57.25 -68.0 58.35 -68.15 58.75 -68.15 59.85 -68.25 60.25 -68.25 61.35 -68.4 61.85 -68.4 62.85 -68.5 63.35 -68.5 65.75 -68.75 66.25 -68.75 67.25 -68.9 67.75 -68.9 68.75 -69.0 69.25 -69.0 70.25 -69.15 70.6 -69.15 71.75 -69.25 72.1 -69.25 75.0 -69.5 76.1 -69.65 76.5 -69.65 77.6 -69.75 78.0 -69.75 79.1 -69.9 79.5 -69.9 80.5 -70.0 80.85 -70.0 82.0 -70.15 82.35 -70.15 83.5 -70.25 83.85 -70.25 84.85 -70.4 86.35 -70.4 86.35 -70.5 87.85 -70.5 88.35 -70.65 89.35 -70.65 90.5 -70.75 90.85 -70.75 M-17.4 -39.5 L-17.75 -38.65 -17.75 -39.0 -17.4 -39.5 M-17.25 -37.15 L-16.9 -36.75 -17.15 -36.75 -17.25 -37.15" fill="#111111" fill-rule="evenodd" stroke="none"/>
    <path d="M-13.25 -71.75 L-13.15 -71.75 -12.5 -71.65 -13.65 -69.9 -13.75 -69.5 -14.15 -68.9 -14.25 -68.65 -14.25 -68.5 -15.9 -65.9 -15.9 -65.75 -16.5 -65.4 -16.5 -65.5 -16.25 -65.9 -16.15 -66.15 -15.75 -66.9 -15.75 -67.0 -15.65 -67.25 -15.0 -68.4 -14.9 -68.65 -14.5 -69.25 -13.75 -70.65 -13.75 -70.75 -13.65 -71.0 -13.5 -71.25 -13.4 -71.5 -13.25 -71.75" fill="#8e8e8e" fill-rule="evenodd" stroke="none"/>
    <path d="M14.85 -64.25 L15.85 -49.75 15.85 -49.4 15.85 -48.4 15.5 -48.4 15.35 -49.5 14.35 -64.15 14.35 -64.4 14.85 -64.25 M-0.9 -60.9 L1.85 -61.0 3.25 -62.0 6.5 -61.15 8.0 -61.65 8.85 -49.4 9.0 -48.9 8.5 -48.75 5.25 -48.4 0.25 -48.25 0.0 -48.75 -0.9 -60.9 M-6.15 -48.25 L-7.15 -61.4 -6.65 -61.15 -5.75 -48.25 -5.65 -47.75 -6.15 -47.75 -6.15 -48.25 M-4.4 -48.4 L-5.4 -62.0 -4.9 -62.0 -3.9 -48.5 -3.75 -47.0 -4.25 -46.9 -4.4 -48.4 M-13.15 -45.75 L-10.15 -44.9 -12.5 -40.4 -12.25 -37.65 -12.65 -31.65 -13.4 -31.5 -14.5 -31.5 -15.0 -31.75 -14.5 -32.0 -14.25 -32.75 -15.65 -36.5 Q-12.0 -38.9 -15.25 -40.4 L-15.65 -40.5 -15.65 -41.15 -15.5 -42.4 -15.25 -43.4 -12.9 -43.65 -12.25 -44.4 -13.75 -45.4 -13.15 -45.75" fill="#181818" fill-rule="evenodd" stroke="none"/>
    <path d="M15.85 -49.75 L18.85 -50.65 20.85 -50.75 27.1 -50.0 28.0 -49.15 24.85 -49.15 Q23.75 -50.4 20.0 -50.25 L17.35 -49.4 15.85 -49.4 15.85 -49.75 M6.35 -48.0 Q9.1 -44.75 9.75 -41.75 L12.6 -31.65 12.25 -31.5 9.5 -31.4 8.85 -31.25 8.25 -31.25 7.25 -31.15 6.85 -31.15 -1.4 -30.4 -1.75 -30.4 -6.65 -31.25 -12.65 -31.65 -12.25 -37.65 -12.5 -40.4 -10.15 -44.9 -3.4 -46.5 6.35 -48.0" fill="#343434" fill-rule="evenodd" stroke="none"/>
    <path d="M28.0 -49.15 Q32.75 -49.15 34.35 -43.25 34.35 -36.25 28.25 -35.25 L28.1 -35.9 30.35 -36.5 32.25 -38.0 33.5 -40.15 33.75 -42.4 33.35 -44.5 33.0 -44.65 32.0 -46.5 31.6 -46.5 29.6 -47.75 27.35 -48.0 25.0 -47.4 23.85 -46.5 23.0 -47.5 23.1 -48.0 22.25 -48.15 20.75 -48.65 23.0 -49.25 24.85 -49.15 28.0 -49.15" fill="#585858" fill-rule="evenodd" stroke="none"/>
    <path d="M15.35 -49.5 L15.5 -48.4 15.85 -48.4 15.85 -49.4 17.35 -49.4 20.75 -48.65 22.25 -48.15 23.0 -47.5 14.85 -48.0 6.35 -48.0 5.25 -48.4 8.5 -48.75 9.0 -48.9 8.85 -49.4 12.75 -49.5 13.35 -49.5 15.35 -49.5" fill="#555555" fill-rule="evenodd" stroke="none"/>
    <path d="M12.35 -64.0 L13.35 -49.5 12.75 -49.5 11.75 -63.4 11.85 -64.0 12.35 -64.0 M30.25 -41.0 L29.85 -40.5 29.35 -40.15 28.6 -39.9 28.0 -39.9 27.35 -40.15 27.25 -40.15 27.0 -40.4 26.5 -42.4 26.5 -42.75 27.0 -43.25 28.25 -43.9 28.5 -43.9 29.1 -43.75 29.25 -43.65 29.6 -43.5 30.1 -43.0 30.35 -42.4 30.35 -41.9 30.25 -41.0 M-5.0 -27.25 L-4.9 -26.15 -5.15 -25.9 -7.4 -26.15 -8.25 -26.5 -7.5 -27.0 -5.4 -27.5 -5.0 -27.25" fill="#171717" fill-rule="evenodd" stroke="none"/>
    <path d="M-10.4 -62.25 L-10.15 -62.25 -9.75 -62.4 -8.65 -62.4 Q-6.25 -57.75 -9.5 -56.25 -12.15 -59.9 -10.4 -62.25" fill="#1b1b1b" fill-rule="evenodd" stroke="none"/>
    <path d="M-12.65 -57.5 L-12.65 -58.25 -12.15 -58.4 -11.65 -59.5 -12.75 -60.5 -13.15 -61.5 -13.15 -62.0 -12.65 -62.15 -12.25 -62.15 -11.25 -62.25 -10.4 -62.25 Q-12.15 -59.9 -9.5 -56.25 L-8.25 -48.15 -11.0 -47.75 -12.65 -57.5" fill="#4e4e4e" fill-rule="evenodd" stroke="none"/>
    <path d="M-15.75 -53.0 L-14.75 -53.75 -12.65 -57.5 -11.0 -47.75 -12.65 -47.15 -14.75 -47.5 -15.15 -47.5 -15.15 -49.25 -15.5 -51.9 -15.75 -53.0 M-13.15 -61.5 L-13.65 -62.0 -13.15 -62.0 -13.15 -61.5" fill="#090909" fill-rule="evenodd" stroke="none"/>
    <path d="M-26.65 -50.4 L-22.5 -57.25 -21.0 -57.0 -21.9 -55.65 -22.0 -55.4 -22.9 -53.9 -23.0 -53.65 -23.0 -53.5 -23.65 -52.5 -23.9 -52.0 -24.65 -50.9 -24.75 -50.65 -24.75 -50.5 -25.4 -49.75 -26.65 -50.4 M-7.9 -15.25 L-10.9 -18.9 -9.0 -22.5 -7.5 -15.25 -7.9 -15.25 M-13.9 -13.0 L-13.4 -13.4 -13.4 -12.4 -13.9 -13.0" fill="#838383" fill-rule="evenodd" stroke="none"/>
    <path d="M-5.75 -48.25 L-4.4 -48.4 -4.25 -46.9 -3.75 -47.0 -3.9 -48.5 0.0 -48.75 0.25 -48.25 5.25 -48.4 6.35 -48.0 -3.4 -46.5 -10.15 -44.9 -13.15 -45.75 -14.0 -46.0 -13.5 -46.5 -12.65 -47.15 -11.0 -47.75 -8.25 -48.15 -6.15 -48.25 -6.15 -47.75 -5.65 -47.75 -5.75 -48.25 M19.25 -8.4 L19.0 -9.4 28.25 -9.15 19.25 -8.4" fill="#535353" fill-rule="evenodd" stroke="none"/>
    <path d="M23.0 -47.5 L23.85 -46.5 26.1 -43.65 26.5 -42.75 26.5 -42.4 27.0 -40.4 27.1 -40.25 27.25 -40.15 27.25 -39.5 27.75 -37.15 28.0 -36.4 28.0 -36.15 28.1 -35.9 28.25 -35.25 28.35 -34.75 28.35 -34.15 27.0 -33.65 26.75 -33.15 24.6 -32.5 18.25 -32.0 16.1 -31.9 15.25 -31.75 14.25 -31.75 13.75 -31.65 12.6 -31.65 9.75 -41.75 Q9.1 -44.75 6.35 -48.0 L14.85 -48.0 23.0 -47.5" fill="#aeaeae" fill-rule="evenodd" stroke="none"/>
    <path d="M25.35 -46.65 L26.0 -46.5 26.35 -44.0 26.1 -43.65 23.85 -46.5 25.35 -46.65 M22.25 -48.15 L23.1 -48.0 23.0 -47.5 22.25 -48.15 M-9.4 -26.15 L-9.0 -22.5 -10.9 -18.9 -12.25 -20.5 -12.5 -20.4 -13.4 -14.4 -13.4 -13.4 -13.9 -13.0 -15.0 -15.25 -14.9 -16.4 -14.5 -17.65 -14.4 -18.25 -14.25 -18.5 -14.25 -18.75 -13.5 -20.65 -12.4 -20.65 -11.25 -23.9 -9.4 -26.15" fill="#565656" fill-rule="evenodd" stroke="none"/>
    <path d="M25.0 -47.4 L25.35 -46.65 23.85 -46.5 25.0 -47.4 M10.35 -22.4 L10.1 -21.15 8.75 -12.65 8.25 -12.65 8.85 -16.75 10.1 -21.15 10.0 -22.25 10.35 -22.4" fill="#141414" fill-rule="evenodd" stroke="none"/>
    <path d="M33.5 -40.15 L33.1 -40.15 30.25 -41.0 30.35 -41.9 30.35 -42.4 30.1 -43.0 29.6 -43.5 29.25 -43.65 29.1 -43.75 28.5 -43.9 28.25 -43.9 26.35 -44.0 26.0 -46.5 25.35 -46.65 25.0 -47.4 27.35 -48.0 29.6 -47.75 31.6 -46.5 32.0 -46.5 33.0 -44.65 33.35 -44.5 33.75 -42.4 33.5 -40.15 M-18.9 -44.0 L-16.4 -44.65 -14.25 -44.4 -12.9 -43.65 -15.25 -43.4 -15.5 -42.4 -15.65 -41.15 -15.9 -40.65 -17.4 -40.65 -17.4 -41.0 -18.9 -44.0" fill="#080808" fill-rule="evenodd" stroke="none"/>
    <path d="M-23.25 -23.5 L-43.65 -21.9 -43.4 -22.15 -43.0 -22.4 -43.75 -22.65 -42.15 -22.75 -23.15 -23.75 -23.25 -23.5 M30.25 -41.0 L33.1 -40.15 33.5 -40.15 32.25 -38.0 29.35 -40.15 29.85 -40.5 30.25 -41.0" fill="#0b0b0b" fill-rule="evenodd" stroke="none"/>
    <path d="M-43.65 -21.9 L-46.0 -21.9 -47.5 -22.5 -48.0 -23.15 -47.9 -24.5 -47.25 -25.15 -45.15 -25.9 -45.0 -25.5 -43.4 -25.0 -41.5 -25.0 -45.5 -24.15 -45.9 -24.0 -46.9 -23.5 -46.75 -23.25 -45.75 -23.0 -42.15 -22.75 -43.75 -22.65 -43.0 -22.4 -43.4 -22.15 -43.65 -21.9 M26.35 -44.0 L28.25 -43.9 27.0 -43.25 26.5 -42.75 26.1 -43.65 26.35 -44.0 M0.5 -13.65 L-5.65 -14.25 -7.4 -14.9 -7.5 -15.25 -9.0 -22.5 0.1 -14.15 0.5 -13.65" fill="#131313" fill-rule="evenodd" stroke="none"/>
    <path d="M-13.5 -46.5 L-14.0 -46.0 -14.4 -45.65 Q-23.25 -47.0 -24.65 -41.4 -26.25 -34.9 -18.5 -32.15 L-19.0 -31.5 Q-26.75 -34.15 -25.15 -41.4 -22.75 -49.15 -13.5 -46.5" fill="#010101" fill-rule="evenodd" stroke="none"/>
    <path d="M-5.65 -14.25 L-7.4 -14.5 -7.4 -14.9 -5.65 -14.25 M-14.0 -46.0 L-13.15 -45.75 -13.75 -45.4 -14.4 -45.65 -14.0 -46.0" fill="#1e1e1e" fill-rule="evenodd" stroke="none"/>
    <path d="M-14.4 -45.65 L-13.75 -45.4 -12.25 -44.4 -12.9 -43.65 -14.25 -44.4 -16.4 -44.65 -18.9 -44.0 -20.75 -42.5 -21.9 -40.4 -22.25 -38.0 -21.5 -35.75 -20.0 -33.9 -18.0 -32.75 -15.5 -32.5 -14.25 -32.75 -14.5 -32.0 -15.0 -31.75 -15.9 -31.75 -18.5 -32.15 Q-26.25 -34.9 -24.65 -41.4 -23.25 -47.0 -14.4 -45.65" fill="#252525" fill-rule="evenodd" stroke="none"/>
    <path d="M-21.5 -0.9 L-23.25 -12.0 -23.25 -23.5 -23.15 -23.75 -23.25 -25.4 -22.5 -26.65 -21.65 -27.9 Q-20.15 -29.55 -19.0 -31.5 L-18.5 -32.15 -15.9 -31.75 -17.65 -31.65 -17.9 -31.25 -20.0 -26.5 -20.25 -26.15 -20.25 -25.75 -19.5 -25.0 -19.15 -24.75 -19.15 -22.5 -19.5 -25.0 -19.65 -17.75 -19.15 -17.9 -19.25 -14.25 -19.5 -17.65 -19.9 -17.15 -19.65 -16.5 -19.9 -9.9 -20.5 -10.25 -19.25 1.25 -19.5 1.6 -21.5 -0.9 M-19.25 -9.0 L-19.5 -9.25 -19.25 -9.4 -19.25 -9.0 M-13.9 -20.65 L-14.25 -18.75 -14.25 -18.5 -14.4 -18.25 -14.5 -17.65 -14.9 -16.4 -15.0 -15.25 -16.5 -11.5 -17.0 -15.15 Q-15.15 -20.65 -13.9 -20.65 M-15.9 -8.15 L-16.4 -8.25 -16.4 -10.4 -15.9 -8.15" fill="#282828" fill-rule="evenodd" stroke="none"/>
    <path d="M19.75 -32.0 L21.0 -31.5 13.6 -31.0 12.25 -31.5 12.6 -31.65 13.75 -31.65 14.25 -31.75 15.25 -31.75 16.1 -31.9 18.25 -32.0 19.75 -32.0" fill="#656565" fill-rule="evenodd" stroke="none"/>
    <path d="M6.85 -31.15 L7.25 -31.15 8.25 -31.25 8.85 -31.25 9.5 -31.4 12.25 -31.5 13.6 -31.0 5.5 -30.4 4.25 -30.75 6.85 -31.15" fill="#616161" fill-rule="evenodd" stroke="none"/>
    <path d="M30.1 -34.9 L35.6 -33.65 24.6 -32.5 19.75 -32.0 18.25 -32.0 24.6 -32.5 26.75 -33.15 27.0 -33.65 28.35 -34.15 28.35 -34.75 29.5 -34.9 30.1 -34.9 M6.85 -31.15 L4.25 -30.75 -1.4 -30.4 6.85 -31.15 M-15.9 -31.75 L-15.0 -31.75 -14.5 -31.5 -14.9 -31.25 -13.4 -31.5 -12.65 -31.65 -6.65 -31.25 -1.75 -30.4 -12.75 -29.75 -13.5 -29.9 -15.25 -31.15 -20.0 -26.5 -17.9 -31.25 -17.65 -31.65 -15.9 -31.75" fill="#373737" fill-rule="evenodd" stroke="none"/>
    <path d="M28.25 -35.25 L29.6 -35.4 30.1 -34.9 29.5 -34.9 28.35 -34.75 28.25 -35.25 M14.5 -28.25 L12.6 -28.15 12.25 -28.15 11.85 -28.0 11.25 -28.0 0.6 -27.15 -2.0 -27.0 -4.65 -27.5 -8.15 -28.15 -10.75 -28.5 -12.75 -29.75 -1.75 -30.4 -1.4 -30.4 4.25 -30.75 5.5 -30.4 13.6 -31.0 14.5 -28.25" fill="#4a4a4a" fill-rule="evenodd" stroke="none"/>
    <path d="M12.6 -28.15 L12.75 -27.65 12.35 -27.0 12.25 -28.15 12.6 -28.15 M11.85 -28.0 L12.75 -18.25 13.35 -18.25 13.5 -17.9 12.85 -18.0 12.85 -17.0 13.35 -12.65 10.25 -12.4 8.75 -12.65 10.1 -21.15 10.35 -22.4 11.35 -27.75 11.25 -28.0 11.85 -28.0 M12.75 -26.65 L12.75 -25.75 12.35 -25.9 12.35 -26.75 12.75 -26.65 M12.85 -24.4 L12.5 -24.5 12.5 -25.4 12.85 -25.25 12.85 -24.4 M12.75 -22.5 L13.1 -22.4 13.1 -21.75 12.75 -21.9 12.75 -22.5 M13.0 -23.15 L12.6 -23.25 12.6 -23.9 13.0 -23.75 13.0 -23.15 M-21.9 -40.4 L-20.75 -42.5 -19.9 -41.65 -18.0 -40.15 -18.5 -39.5 -21.9 -40.4" fill="#272727" fill-rule="evenodd" stroke="none"/>
    <path d="M-22.25 -38.0 L-21.9 -40.4 -18.5 -39.5 -18.25 -39.4 -18.5 -38.5 -22.25 -38.0" fill="#363636" fill-rule="evenodd" stroke="none"/>
    <path d="M-18.5 -38.5 L-18.4 -37.75 -22.25 -38.0 -18.5 -38.5" fill="#676767" fill-rule="evenodd" stroke="none"/>
    <path d="M-15.15 13.85 L-16.65 10.75 -16.5 8.6 -17.4 2.35 -17.9 -6.9 -18.25 -7.9 -17.9 -9.65 -17.9 -24.25 -12.75 -29.75 -10.75 -28.5 -8.15 -28.15 -8.15 -28.0 -8.65 -27.4 -11.0 -24.9 -11.0 -24.75 -11.15 -24.65 -11.5 -24.15 -13.5 -20.65 -13.9 -20.65 Q-15.15 -20.65 -17.0 -15.15 L-16.5 -11.5 -16.5 -11.0 -16.4 -10.65 -16.4 -10.4 -16.4 -8.25 -15.9 -8.15 -13.0 -7.4 -12.25 -0.5 -11.4 12.35 -13.9 12.85 -15.15 13.85 M-15.9 -40.65 L-15.75 -40.5 -15.65 -40.5 -17.15 -39.9 -17.4 -39.65 -17.4 -39.5 -17.75 -39.0 -17.75 -38.65 -17.75 -38.15 -17.5 -37.4 -17.4 -37.25 -17.25 -37.15 -17.15 -36.75 -17.65 -37.15 -17.9 -37.0 -18.4 -37.75 -18.5 -38.5 -18.25 -39.4 -18.5 -39.5 -18.0 -40.15 -17.4 -40.5 -17.4 -40.65 -15.9 -40.65" fill="#050505" fill-rule="evenodd" stroke="none"/>
    <path d="M-15.65 -41.15 L-15.65 -40.5 -15.75 -40.5 -15.9 -40.65 -15.65 -41.15 M-13.9 -20.65 L-13.5 -20.65 -14.25 -18.75 -13.9 -20.65 M-16.5 -11.5 L-15.0 -15.25 -13.9 -13.0 -13.4 -12.4 -13.0 -7.4 -15.9 -8.15 -16.4 -10.4 -16.4 -10.65 -16.5 -11.0 -16.5 -11.5" fill="#323232" fill-rule="evenodd" stroke="none"/>
    <path d="M27.0 -40.4 L27.25 -40.15 27.1 -40.25 27.0 -40.4 M30.0 -0.25 L31.25 4.85 21.5 5.6 21.25 5.5 21.5 4.6 21.1 4.6 21.5 4.35 21.0 4.25 21.5 3.85 21.0 3.6 21.5 3.6 20.85 3.35 21.35 3.1 20.85 2.75 21.35 2.6 20.6 2.6 21.35 2.5 21.35 2.0 20.85 2.0 21.35 1.75 20.6 1.75 21.35 1.6 21.35 1.25 20.6 1.1 20.6 0.75 21.35 1.0 21.1 0.6 30.0 -0.25" fill="#0e0e0e" fill-rule="evenodd" stroke="none"/>
    <path d="M29.35 -40.15 L32.25 -38.0 30.35 -36.5 28.0 -39.9 28.6 -39.9 29.35 -40.15" fill="#1d1d1d" fill-rule="evenodd" stroke="none"/>
    <path d="M-45.15 -25.9 L-22.5 -27.9 -21.65 -27.9 -22.5 -26.65 -39.5 -25.25 -40.15 -25.25 -41.5 -25.0 -43.4 -25.0 -45.0 -25.5 -45.15 -25.9 M27.25 -40.15 L27.35 -40.15 28.0 -39.9 30.35 -36.5 28.1 -35.9 28.1 -36.15 28.0 -36.15 28.0 -36.4 27.75 -37.15 27.25 -39.5 27.25 -40.15" fill="#2d2d2d" fill-rule="evenodd" stroke="none"/>
    <path d="M28.0 -36.15 L28.1 -36.15 28.1 -35.9 28.0 -36.15" fill="#878787" fill-rule="evenodd" stroke="none"/>
    <path d="M-16.65 10.75 L-18.9 7.85 -19.15 2.6 -19.5 1.6 -19.25 1.25 -20.5 -10.25 -19.9 -9.9 -19.5 -9.25 -19.25 -9.0 -18.9 -8.5 -18.65 -24.5 -19.15 -24.75 -19.5 -25.0 -20.25 -25.75 -20.25 -26.15 -20.0 -26.5 -15.25 -31.15 -13.5 -29.9 -12.75 -29.75 -17.9 -24.25 -17.9 -9.65 -18.25 -7.9 -17.9 -6.9 -17.4 2.35 -16.5 8.6 -16.65 10.75 M11.5 1.35 L20.5 -2.5 21.1 0.6 20.6 0.75 11.5 1.35 M-15.65 -40.5 L-15.25 -40.4 Q-12.0 -38.9 -15.65 -36.5 L-16.4 -36.4 -16.9 -36.75 -17.25 -37.15 -17.4 -37.25 -17.5 -37.4 -17.75 -38.15 -17.75 -38.65 -17.4 -39.5 -17.4 -39.65 -17.15 -39.9 -15.65 -40.5" fill="#161616" fill-rule="evenodd" stroke="none"/>
    <path d="M-17.15 -36.75 L-17.25 -36.5 -19.25 -34.75 -17.9 -37.0 -17.65 -37.15 -17.15 -36.75" fill="#bbbbbb" fill-rule="evenodd" stroke="none"/>
    <path d="M-18.4 -37.75 L-17.9 -37.0 -20.75 -36.15 -18.4 -37.75" fill="#aaaaaa" fill-rule="evenodd" stroke="none"/>
    <path d="M35.6 -33.65 L36.1 -33.65 36.75 -32.15 35.75 -31.65 35.1 -31.4 34.5 -31.15 31.25 -29.9 30.25 -29.5 14.5 -28.25 13.6 -31.0 21.0 -31.5 19.75 -32.0 24.6 -32.5 35.6 -33.65 M-21.5 -35.75 L-22.25 -38.0 -18.4 -37.75 -20.75 -36.15 -21.5 -35.75" fill="#666666" fill-rule="evenodd" stroke="none"/>
    <path d="M-20.0 -33.9 L-21.5 -35.75 -20.75 -36.15 -17.9 -37.0 -19.25 -34.75 -20.0 -33.9" fill="#a9a9a9" fill-rule="evenodd" stroke="none"/>
    <path d="M-18.0 -32.75 L-20.0 -33.9 -19.25 -34.75 -17.25 -36.5 -17.5 -33.9 -18.0 -32.75" fill="#bababa" fill-rule="evenodd" stroke="none"/>
    <path d="M-15.5 -32.5 L-18.0 -32.75 -17.5 -33.9 -17.25 -36.5 -17.15 -36.75 -16.9 -36.75 -16.4 -36.4 -15.75 -34.9 -15.5 -32.5" fill="#747474" fill-rule="evenodd" stroke="none"/>
    <path d="M-14.25 -32.75 L-15.5 -32.5 -15.75 -34.9 -16.4 -36.4 -15.65 -36.5 -14.25 -32.75 M-14.5 -31.5 L-13.4 -31.5 -14.9 -31.25 -14.5 -31.5" fill="#2b2b2b" fill-rule="evenodd" stroke="none"/>
    <path d="M36.1 -33.65 L42.1 -29.15 45.1 -20.25 44.6 -20.65 42.75 -25.15 42.25 -24.25 41.75 -25.5 42.75 -25.15 39.85 -29.4 36.1 -31.4 35.75 -31.65 36.75 -32.15 36.1 -33.65 M39.6 -27.65 L40.6 -26.5 39.85 -27.25 39.6 -27.65" fill="#525252" fill-rule="evenodd" stroke="none"/>
    <path d="M34.5 -31.15 L35.1 -31.4 35.6 -30.75 34.5 -31.15 M-22.5 -26.65 L-23.25 -25.4 -23.15 -23.75 -42.15 -22.75 -45.75 -23.0 -46.75 -23.25 -46.9 -23.5 -45.9 -24.0 -45.5 -24.15 -41.5 -25.0 -40.15 -25.25 -39.5 -25.25 -22.5 -26.65" fill="#191919" fill-rule="evenodd" stroke="none"/>
    <path d="M17.75 -13.0 L24.85 -13.65 33.1 -16.25 38.1 -17.9 38.6 -18.0 39.6 -18.25 40.1 -18.4 37.25 -14.25 38.35 -13.0 38.35 -12.5 38.5 -11.4 39.25 -10.65 40.6 -7.4 40.6 -1.75 30.0 -0.25 20.5 -2.5 20.0 -4.4 20.35 -4.75 19.85 -5.0 20.25 -5.15 19.85 -5.25 20.0 -5.9 19.35 -6.9 28.75 -7.65 28.25 -9.15 19.0 -9.4 19.0 -10.0 18.6 -10.0 18.75 -10.4 17.75 -12.0 18.25 -12.25 17.35 -13.0 17.75 -13.0" fill="#6f6f6f" fill-rule="evenodd" stroke="none"/>
    <path d="M40.85 -20.75 L42.25 -24.25 42.75 -25.15 44.6 -20.65 44.85 -19.15 40.1 -18.4 40.25 -19.15 40.85 -20.75" fill="#141b13" fill-rule="evenodd" stroke="none"/>
    <path d="M40.1 -18.4 L44.85 -19.15 45.35 -12.25 38.5 -11.4 38.35 -12.5 38.35 -13.0 37.25 -14.25 40.1 -18.4" fill="#5b5b5b" fill-rule="evenodd" stroke="none"/>
    <path d="M38.5 -11.4 L45.35 -12.25 45.75 -6.75 39.25 -10.65 38.5 -11.4" fill="#5f5f5f" fill-rule="evenodd" stroke="none"/>
    <path d="M37.1 -30.25 L36.1 -31.4 39.85 -29.4 42.75 -25.15 41.75 -25.5 41.1 -26.0 40.85 -26.15 40.6 -26.5 39.6 -27.65 38.85 -28.4 38.75 -28.4 38.35 -28.9 38.0 -29.15 37.85 -29.4 37.1 -30.25" fill="#696969" fill-rule="evenodd" stroke="none"/>
    <path d="M-18.9 7.85 L-20.5 5.75 -21.5 -0.9 -19.5 1.6 -19.15 2.6 -18.9 7.85" fill="#404040" fill-rule="evenodd" stroke="none"/>
    <path d="M16.6 11.75 L0.0 13.25 -15.15 13.85 -13.9 12.85 -11.4 12.35 8.5 11.85 17.0 11.1 16.6 11.75 M-8.65 -27.4 L-8.15 -28.0 -8.15 -28.15 -4.65 -27.5 -4.0 -26.15 -4.0 -26.0 -3.65 -25.15 -3.4 -24.75 -3.4 -24.65 -0.15 -19.65 1.0 -16.9 0.1 -14.15 -9.0 -22.5 -9.4 -26.15 -8.65 -27.4 M-5.0 -27.25 L-5.4 -27.5 -7.5 -27.0 -8.25 -26.5 -7.4 -26.15 -5.15 -25.9 -4.9 -26.15 -5.0 -27.25 M-4.75 -25.25 L-4.65 -25.65 -6.75 -25.4 -6.75 -24.9 -5.9 -24.9 -4.75 -25.25 M-13.0 -7.4 L-2.25 -7.75 -11.15 -1.65 -12.25 -0.5 -13.0 -7.4" fill="#040404" fill-rule="evenodd" stroke="none"/>
    <path d="M-8.65 -27.4 L-9.4 -26.15 -11.25 -23.9 -11.0 -24.75 -11.0 -24.9 -8.65 -27.4" fill="#101010" fill-rule="evenodd" stroke="none"/>
    <path d="M12.75 -27.65 L13.5 -26.25 17.75 -13.0 17.35 -13.0 13.35 -12.65 12.85 -17.0 12.85 -18.0 13.5 -17.9 13.35 -18.25 12.75 -18.25 11.85 -28.0 12.25 -28.15 12.35 -27.0 12.75 -27.65 M13.0 -23.15 L13.0 -23.75 12.6 -23.9 12.6 -23.25 13.0 -23.15 M12.75 -22.5 L12.75 -21.9 13.1 -21.75 13.1 -22.4 12.75 -22.5 M12.85 -24.4 L12.85 -25.25 12.5 -25.4 12.5 -24.5 12.85 -24.4 M12.75 -26.65 L12.35 -26.75 12.35 -25.9 12.75 -25.75 12.75 -26.65" fill="#767676" fill-rule="evenodd" stroke="none"/>
    <path d="M-3.4 -24.65 L-3.4 -24.75 -3.65 -25.15 -4.0 -26.0 -4.0 -26.15 -4.65 -27.5 -2.0 -27.0 0.6 -27.15 -2.0 -24.9 -3.4 -24.65" fill="#0f0f0f" fill-rule="evenodd" stroke="none"/>
    <path d="M13.35 -12.65 L17.35 -13.0 18.25 -12.25 17.75 -12.0 18.75 -10.4 18.6 -10.0 19.0 -10.0 19.0 -9.4 10.75 -7.75 10.0 -7.65 10.25 -6.15 19.35 -6.9 20.0 -5.9 19.85 -5.25 20.25 -5.15 19.85 -5.0 20.35 -4.75 20.0 -4.4 20.5 -2.5 11.5 1.35 -1.0 1.75 -2.25 -3.9 -2.25 -7.75 -3.5 -10.5 -7.4 -14.5 -5.65 -14.25 0.5 -13.65 8.25 -12.65 8.75 -12.65 10.25 -12.4 13.35 -12.65" fill="#2a2a2a" fill-rule="evenodd" stroke="none"/>
    <path d="M-7.5 -15.25 L-7.4 -14.9 -7.9 -15.25 -7.5 -15.25" fill="#545454" fill-rule="evenodd" stroke="none"/>
    <path d="M-7.9 -15.25 L-7.4 -14.9 -7.4 -14.5 -13.4 -14.4 -12.5 -20.4 -12.25 -20.5 -10.9 -18.9 -7.9 -15.25" fill="#050805" fill-rule="evenodd" stroke="none"/>
    <path d="M-7.4 -14.5 L-3.5 -10.5 -2.25 -7.75 -13.0 -7.4 -13.4 -12.4 -13.4 -13.4 -13.4 -14.4 -7.4 -14.5" fill="#0a0a0a" fill-rule="evenodd" stroke="none"/>
    <path d="M46.1 -12.9 L47.5 7.5 46.6 7.35 46.6 3.5 46.1 1.85 46.25 1.35 46.75 -1.15 45.75 -6.75 45.35 -12.25 46.1 -12.9" fill="#242424" fill-rule="evenodd" stroke="none"/>
    <path d="M40.6 -1.75 L40.6 -7.4 39.25 -10.65 45.75 -6.75 46.75 -1.15 46.25 1.35 46.1 1.85 45.25 5.0 Q44.0 5.5 41.0 1.5 L40.6 -1.75" fill="#3c3c3c" fill-rule="evenodd" stroke="none"/>
    <path d="M10.75 -7.75 L19.0 -9.4 19.25 -8.4 10.75 -7.75" fill="#424242" fill-rule="evenodd" stroke="none"/>
    <path d="M19.35 -6.9 L10.25 -6.15 10.0 -7.65 10.75 -7.75 19.25 -8.4 19.25 -7.5 19.75 -7.4 19.35 -6.9" fill="#262626" fill-rule="evenodd" stroke="none"/>
    <path d="M19.35 -6.9 L19.75 -7.4 19.25 -7.5 19.25 -8.4 28.25 -9.15 28.75 -7.65 19.35 -6.9" fill="#393939" fill-rule="evenodd" stroke="none"/>
    <path d="M21.1 0.6 L20.5 -2.5 30.0 -0.25 21.1 0.6" fill="#212121" fill-rule="evenodd" stroke="none"/>
    <path d="M20.75 5.75 L10.75 6.6 11.5 1.35 20.6 0.75 21.1 0.6 21.35 1.0 20.6 0.75 20.6 1.1 21.35 1.25 21.35 1.6 20.6 1.75 21.35 1.75 20.85 2.0 21.35 2.0 21.35 2.5 20.6 2.6 21.35 2.6 20.85 2.75 21.35 3.1 20.85 3.35 21.5 3.6 21.0 3.6 21.5 3.85 21.0 4.25 21.5 4.35 21.1 4.6 21.5 4.6 21.25 5.5 21.5 5.6 20.75 5.75" fill="#070707" fill-rule="evenodd" stroke="none"/>
    <path d="M45.25 5.0 L46.1 1.85 46.6 3.5 46.6 7.35 45.35 6.75 45.25 5.0" fill="#121212" fill-rule="evenodd" stroke="none"/>
    <path d="M14.5 -28.25 L30.35 -29.25 30.1 -29.65 30.85 -29.75 31.1 -29.9 33.1 -16.5 33.0 -16.15 24.25 -13.5 18.1 -13.0 17.35 -13.0 17.5 -13.65 17.35 -13.9 17.35 -14.0 17.25 -14.4 17.25 -14.65 16.85 -15.5 17.0 -16.0 16.1 -19.5 15.85 -19.75 16.25 -19.75 15.6 -21.5 15.85 -21.65 14.5 -28.25 M34.35 -31.15 L35.6 -31.65 35.85 -31.65 36.25 -31.25 36.35 -31.25 39.75 -29.4 41.1 -27.4 41.35 -27.15 41.35 -27.0 42.1 -25.5 42.35 -25.25 42.1 -25.4 41.75 -25.5 42.25 -24.5 42.25 -23.65 42.1 -23.4 42.0 -23.0 41.6 -22.25 41.5 -22.25 41.35 -21.65 41.25 -21.5 41.1 -21.5 41.0 -20.75 40.85 -20.5 39.85 -26.5 39.85 -27.25 39.6 -27.5 39.6 -27.65 38.85 -28.4 38.5 -28.65 38.5 -28.0 39.0 -25.9 39.1 -24.0 39.6 -22.0 39.6 -21.5 39.75 -20.0 40.1 -18.9 40.1 -18.4 39.5 -18.15 39.5 -19.9 38.0 -29.15 37.85 -29.4 37.25 -30.15 36.6 -30.25 37.1 -26.65 37.25 -26.5 37.35 -24.75 37.85 -22.75 37.85 -22.25 38.5 -18.0 38.5 -17.9 38.1 -17.75 37.75 -20.65 36.1 -30.5 35.85 -30.65 34.5 -31.15 34.35 -31.15" fill="#141414" fill-opacity="0.50980395" fill-rule="evenodd" stroke="none"/>
    <path d="M42.35 -25.25 L42.75 -25.0 42.5 -24.5 42.25 -24.5 41.75 -25.5 42.1 -25.4 42.35 -25.25 M40.85 -20.5 L40.75 -19.9 40.5 -19.25 40.25 -18.9 40.1 -18.9 39.75 -20.0 39.6 -21.5 39.6 -22.0 39.1 -24.0 39.0 -25.9 38.5 -28.0 38.5 -28.65 38.85 -28.4 39.6 -27.65 39.6 -27.5 39.85 -27.25 39.85 -26.5 40.85 -20.5 M39.5 -18.15 L38.6 -18.0 38.5 -18.0 37.85 -22.25 37.85 -22.75 37.35 -24.75 37.25 -26.5 37.1 -26.65 36.6 -30.25 37.25 -30.15 37.85 -29.4 38.0 -29.15 39.5 -19.9 39.5 -18.15" fill="#141414" fill-rule="evenodd" stroke="none"/>
    <path d="M33.0 -16.15 L33.1 -16.5 31.1 -29.9 34.35 -31.15 34.5 -31.15 35.85 -30.65 36.1 -30.5 37.75 -20.65 38.1 -17.75 33.0 -16.15" fill="#282828" fill-opacity="0.50980395" fill-rule="evenodd" stroke="none"/>
    <path d="M14.5 -28.25 L15.85 -21.65 15.6 -21.5 16.25 -19.75 15.85 -19.75 15.5 -20.9 15.6 -21.5 14.25 -27.5 14.1 -27.75 14.0 -28.25 14.5 -28.25" fill="#0e0e0e" fill-rule="evenodd" stroke="none"/>
    <path d="M-12.75 -20.65 L-11.5 -23.4 -11.25 -24.4 -11.15 -24.65 -11.0 -24.9 -8.5 -27.65 -8.15 -28.15 -8.0 -28.15 -7.4 -28.0 -6.15 -27.5 -4.65 -27.5 -4.0 -27.4 -3.5 -27.4 -1.5 -27.0 0.6 -27.0 1.1 -27.25 11.25 -28.0 11.85 -28.0 12.25 -28.15 13.35 -28.15 14.0 -28.25 14.1 -27.75 14.25 -27.5 15.6 -21.5 15.5 -20.9 15.85 -19.75 15.85 -19.15 16.25 -17.75 16.25 -17.65 16.35 -17.15 16.5 -17.0 16.85 -15.5 16.85 -15.15 17.0 -14.9 17.0 -14.75 17.35 -13.0 10.0 -12.4 8.75 -12.65 8.25 -12.65 5.75 -13.0 5.0 -13.0 4.25 -13.15 -7.25 -14.4 -7.4 -14.5 -7.9 -15.15 -8.0 -15.25 -11.65 -19.65 -12.5 -20.4 -12.75 -20.65" fill="#040404" fill-opacity="0.50980395" fill-rule="evenodd" stroke="none"/>
    <path d="M-12.75 -20.65 L-12.5 -20.4 -13.5 -13.25 -13.4 -12.9 -13.4 -12.4 -13.0 -10.15 -12.9 -7.75 -13.0 -7.4 -15.4 -7.75 -16.5 -8.25 -16.75 -12.4 -16.9 -12.75 -17.15 -14.15 -17.0 -14.75 -17.0 -15.4 -14.4 -20.9 -13.9 -20.65 -12.75 -20.65 M-20.15 -25.4 L-19.5 -25.0 -19.4 -25.0 -19.15 -24.65 -19.15 -23.25 -19.4 -22.5 -19.15 -21.65 -19.15 -15.25 -19.25 -14.9 -19.4 -13.9 -19.25 -13.25 -19.25 -9.0 -19.5 -9.0 -19.5 -9.25 -19.65 -9.5 -19.9 -9.75 -20.4 -10.15 -20.5 -16.15 -20.4 -16.5 -20.25 -17.75 -20.25 -21.9 -20.5 -22.15 -20.25 -22.4 -20.25 -25.75 -20.15 -25.4 M-19.5 -23.9 L-19.65 -23.4 -19.5 -22.15 -19.5 -23.9 M-19.9 -17.15 L-19.65 -16.65 -19.65 -17.15 -19.75 -17.5 -19.9 -17.4 -19.9 -17.15 M-19.75 -11.5 L-19.75 -11.15 -19.65 -10.75 -19.65 -12.4 -19.75 -11.5" fill="#000000" fill-opacity="0.50980395" fill-rule="evenodd" stroke="none"/>
    <path d="M15.85 -19.75 L16.1 -19.5 17.0 -16.0 16.85 -15.5 17.25 -14.65 17.25 -14.4 17.35 -14.0 17.35 -13.9 17.5 -13.65 17.35 -13.0 17.0 -14.75 17.0 -14.9 16.85 -15.15 16.85 -15.5 16.5 -17.0 16.35 -17.15 16.25 -17.65 16.25 -17.75 15.85 -19.15 15.85 -19.75" fill="#161616" fill-rule="evenodd" stroke="none"/>
    <path d="M44.85 -19.9 L44.85 -20.5 44.6 -20.65 44.6 -20.75 44.25 -21.4 43.85 -22.75 44.25 -22.65 44.6 -21.25 44.75 -21.0 45.5 -20.0 45.85 -13.15 45.5 -13.4 45.35 -13.4 45.25 -16.15 45.1 -17.65 45.1 -18.0 45.0 -19.15 44.85 -19.15 44.85 -19.9" fill="#0d0d0d" fill-rule="evenodd" stroke="none"/>
    <path d="M44.6 -20.65 L44.85 -20.5 44.85 -19.9 44.6 -20.65 M45.35 -13.4 L45.5 -13.4 45.85 -13.15 46.0 -12.9 45.75 -12.65 45.35 -12.4 45.35 -13.4" fill="#0c0c0c" fill-opacity="0.50980395" fill-rule="evenodd" stroke="none"/>
  </g>
</svg>
