<?xml version="1.0" encoding="UTF-8" standalone="no"?>
<svg xmlns:xlink="http://www.w3.org/1999/xlink" height="87.6px" width="73.55px" xmlns="http://www.w3.org/2000/svg">
  <g transform="matrix(1.0, 0.0, 0.0, 1.0, 36.75, 43.8)">
    <path d="M3.35 -43.8 L3.45 -43.8 Q3.3 -40.55 3.95 -37.0 5.0 -31.15 7.95 -25.8 9.25 -23.45 9.95 -20.5 L10.9 -16.45 Q11.4 -14.55 12.5 -13.75 13.8 -12.85 16.55 -12.85 L24.55 -13.7 33.1 -14.95 36.8 -14.95 36.8 -12.05 Q36.35 -9.2 35.4 -7.5 L31.5 -1.95 Q26.9 4.35 21.45 7.15 L18.35 8.55 Q17.2 9.05 17.2 9.55 L17.3 10.55 18.25 11.3 Q22.3 13.9 27.0 17.6 27.8 18.25 29.75 19.25 30.8 19.75 30.95 20.8 29.25 20.8 28.05 21.85 26.05 23.7 20.05 24.2 L15.8 24.5 Q13.65 24.7 12.95 25.05 9.3 26.75 6.4 31.6 3.55 36.35 1.6 43.8 L1.3 43.8 0.45 41.25 -0.65 37.75 Q-2.6 32.7 -7.15 27.95 L-10.25 24.5 Q-13.0 21.5 -13.5 21.05 -14.25 20.4 -14.6 19.55 L-15.2 18.5 -21.7 18.15 -20.35 18.15 -24.8 18.65 -30.95 19.2 -30.1 17.25 -28.3 13.6 Q-25.65 8.15 -25.65 5.85 -25.65 1.15 -28.55 -2.95 -31.75 -7.4 -36.75 -8.6 L-33.8 -9.2 -29.45 -10.0 Q-23.75 -11.4 -20.6 -14.65 L-20.6 -19.45 -18.4 -18.75 Q-17.3 -18.35 -15.65 -16.8 L-11.15 -13.6 Q-7.4 -11.25 -6.35 -11.25 -5.15 -14.5 -3.05 -22.2 L3.35 -43.8 M7.4 -19.85 Q6.75 -22.45 5.6 -24.55 3.65 -28.15 2.5 -31.9 L-0.5 -21.5 Q-2.65 -13.65 -3.9 -10.3 -4.2 -9.55 -4.85 -9.05 -5.55 -8.6 -6.35 -8.6 -7.8 -8.35 -12.55 -11.4 -16.15 -13.65 -17.4 -14.85 L-17.95 -15.35 -17.95 -14.65 Q-17.95 -13.6 -18.7 -12.8 -22.25 -9.05 -28.8 -7.45 L-28.95 -7.4 Q-27.6 -6.15 -26.4 -4.45 -23.0 0.35 -23.0 5.85 -22.9 8.5 -25.9 14.75 L-26.6 16.2 -25.1 16.05 -22.85 15.75 -21.85 15.5 Q-14.4 15.0 -13.4 16.55 L-13.4 16.6 Q-12.9 16.85 -12.2 18.55 L-12.15 18.55 -11.8 19.05 -8.3 22.7 -5.15 26.2 -5.25 26.1 Q-0.75 30.85 1.4 35.8 2.65 32.7 4.15 30.25 7.5 24.6 11.8 22.65 12.7 22.1 15.55 21.9 L19.9 21.55 19.85 21.55 Q24.15 21.2 25.95 20.15 L25.35 19.7 Q20.75 16.05 16.85 13.55 15.2 12.5 14.95 11.8 14.55 11.4 14.55 9.55 14.0 7.6 17.25 6.15 L20.3 4.75 20.35 4.75 Q25.2 2.15 29.35 -3.55 L33.1 -8.8 Q33.8 -10.1 34.15 -12.25 L34.15 -12.3 33.15 -12.3 25.0 -11.1 16.55 -10.2 Q12.7 -10.2 10.95 -11.6 L10.9 -11.6 Q9.15 -12.8 8.35 -15.7 L8.3 -15.9 7.4 -19.85" fill="#000000" fill-opacity="0.6431373" fill-rule="evenodd" stroke="none"/>
    <path d="M7.4 -19.85 L8.3 -15.9 8.35 -15.7 Q9.15 -12.8 10.9 -11.6 L10.95 -11.6 Q12.7 -10.2 16.55 -10.2 L25.0 -11.1 33.15 -12.3 34.15 -12.3 34.15 -12.25 Q33.8 -10.1 33.1 -8.8 L29.35 -3.55 Q25.2 2.15 20.35 4.75 L20.3 4.75 17.25 6.15 Q14.0 7.6 14.55 9.55 14.55 11.4 14.95 11.8 15.2 12.5 16.85 13.55 20.75 16.05 25.35 19.7 L25.95 20.15 Q24.15 21.2 19.85 21.55 L19.9 21.55 15.55 21.9 Q12.7 22.1 11.8 22.65 7.5 24.6 4.15 30.25 2.65 32.7 1.4 35.8 -0.75 30.85 -5.25 26.1 L-5.15 26.2 -8.3 22.7 -11.8 19.05 -12.15 18.55 -12.2 18.55 Q-12.9 16.85 -13.4 16.6 L-13.4 16.55 Q-14.4 15.0 -21.85 15.5 L-22.85 15.75 -25.1 16.05 -26.6 16.2 -25.9 14.75 Q-22.9 8.5 -23.0 5.85 -23.0 0.35 -26.4 -4.45 -27.6 -6.15 -28.95 -7.4 L-28.8 -7.45 Q-22.25 -9.05 -18.7 -12.8 -17.95 -13.6 -17.95 -14.65 L-17.95 -15.35 -17.4 -14.85 Q-16.15 -13.65 -12.55 -11.4 -7.8 -8.35 -6.35 -8.6 -5.55 -8.6 -4.85 -9.05 -4.2 -9.55 -3.9 -10.3 -2.65 -13.65 -0.5 -21.5 L2.5 -31.9 Q3.65 -28.15 5.6 -24.55 6.75 -22.45 7.4 -19.85" fill="#ffffff" fill-opacity="0.6431373" fill-rule="evenodd" stroke="none"/>
  </g>
</svg>
