<?xml version="1.0" encoding="UTF-8" standalone="no"?>
<svg xmlns:xlink="http://www.w3.org/1999/xlink" height="77.0px" width="324.6px" xmlns="http://www.w3.org/2000/svg">
  <g transform="matrix(1.0, 0.0, 0.0, 1.0, 180.25, 79.4)">
    <path d="M93.0 -70.5 L143.35 -74.15 144.25 -74.15 144.35 -73.0 144.35 -72.65 141.6 -72.5 141.25 -72.4 140.0 -72.4 139.6 -72.25 138.35 -72.25 138.0 -72.15 136.6 -72.15 136.35 -72.0 135.0 -72.0 134.5 -71.9 133.35 -71.9 133.0 -71.75 131.6 -71.75 131.1 -71.65 129.85 -71.65 129.35 -71.5 128.25 -71.5 127.6 -71.4 126.5 -71.4 125.85 -71.25 124.75 -71.25 124.1 -71.15 123.0 -71.15 122.35 -71.0 121.25 -71.0 120.75 -70.9 119.5 -70.9 119.0 -70.75 117.75 -70.75 117.25 -70.65 116.0 -70.65 115.6 -70.5 114.35 -70.5 113.85 -70.4 112.6 -70.4 112.1 -70.25 110.85 -70.25 110.35 -70.15 109.1 -70.15 108.5 -70.0 107.35 -70.0 106.75 -69.9 105.6 -69.9 105.0 -69.75 103.85 -69.75 103.5 -69.65 102.1 -69.65 101.6 -69.5 100.5 -69.5 99.85 -69.4 98.75 -69.4 98.1 -69.25 97.0 -69.25 96.35 -69.15 95.25 -69.15 94.6 -69.0 93.5 -69.0 92.85 -68.9 91.75 -68.9 91.1 -68.75 90.0 -68.75 89.35 -68.65 88.25 -68.65 87.75 -68.5 86.5 -68.5 85.85 -68.4 84.85 -68.4 84.35 -68.25 83.1 -68.25 82.5 -68.15 81.35 -68.15 80.75 -68.0 79.6 -68.0 79.0 -67.9 77.85 -67.9 77.25 -67.75 76.1 -67.75 75.5 -67.65 74.35 -67.65 73.85 -67.5 72.6 -67.5 72.1 -67.4 71.0 -67.4 70.35 -67.25 69.25 -67.25 68.6 -67.15 67.5 -67.15 67.0 -67.0 65.75 -67.0 65.25 -66.9 64.0 -66.9 63.5 -66.75 62.25 -66.75 61.75 -66.65 60.5 -66.65 59.85 -66.5 58.75 -66.5 58.35 -66.4 57.1 -66.4 56.6 -66.25 55.35 -66.25 54.85 -66.15 53.6 -66.15 53.0 -66.0 51.85 -66.0 51.25 -65.9 50.1 -65.9 49.5 -65.75 48.35 -65.75 47.75 -65.65 46.6 -65.65 46.0 -65.5 44.85 -65.5 44.25 -65.4 43.25 -65.4 42.6 -65.25 41.5 -65.25 40.85 -65.15 39.75 -65.15 39.1 -65.0 38.0 -65.0 37.35 -64.9 36.25 -64.9 35.6 -64.75 34.5 -64.75 33.85 -64.65 32.75 -64.65 32.1 -64.5 31.0 -64.5 30.35 -64.4 29.35 -64.4 28.75 -64.25 27.6 -64.25 27.0 -64.15 25.85 -64.15 25.25 -64.0 24.1 -64.0 23.5 -63.9 22.35 -63.9 21.75 -63.75 21.25 -63.75 21.0 -64.15 90.35 -70.25 90.75 -70.4 91.75 -70.4 92.6 -70.5 93.0 -70.5" fill="#1d1d1d" fill-rule="evenodd" stroke="none"/>
    <path d="M12.1 -63.25 L11.35 -63.15 9.85 -63.15 9.6 -63.0 8.6 -63.0 8.5 -62.9 7.1 -62.9 6.6 -62.75 3.6 -62.65 3.1 -62.5 1.35 -62.4 1.0 -62.4 1.1 -62.65 1.1 -63.4 1.35 -64.15 6.35 -64.5 6.6 -64.65 9.85 -64.9 89.5 -72.75 89.5 -70.5 95.5 -70.9 93.0 -70.5 92.6 -70.5 91.75 -70.4 90.75 -70.4 90.35 -70.25 21.0 -64.15 20.85 -64.15 14.1 -63.5 14.0 -63.5 12.1 -63.25 M-9.9 -61.25 L-10.75 -61.25 -12.25 -61.15 -13.5 -61.0 -13.65 -61.0 -14.75 -60.9 -16.75 -59.75 Q-21.0 -57.75 -21.65 -58.15 L-22.5 -58.9 -22.15 -59.5 -22.0 -60.15 -25.9 -59.9 -26.25 -59.9 -27.25 -59.75 -27.65 -59.75 -28.65 -59.65 -29.0 -59.65 -30.0 -59.5 -30.4 -59.5 -35.5 -59.0 -35.9 -59.0 -36.9 -58.9 -37.25 -58.9 -38.25 -58.75 -38.65 -58.75 -39.5 -58.65 -40.0 -58.65 -41.0 -58.5 -41.4 -58.5 -45.25 -58.15 -45.65 -58.15 -46.65 -58.0 -47.0 -58.0 -48.0 -57.9 -48.4 -57.9 -52.15 -57.5 -52.65 -57.5 -53.5 -57.4 -54.25 -57.4 -54.5 -58.25 -54.0 -58.4 -52.75 -58.4 -52.25 -58.5 -51.0 -58.5 -50.5 -58.65 -49.25 -58.65 -48.75 -58.75 -47.65 -58.75 -47.0 -58.9 -45.9 -58.9 -45.25 -59.0 -44.15 -59.0 -43.5 -59.15 -42.4 -59.15 -41.75 -59.25 -40.75 -59.25 -40.15 -59.4 -39.0 -59.4 -38.4 -59.5 -37.25 -59.5 -36.65 -59.65 -35.5 -59.65 -34.9 -59.75 -33.75 -59.75 -33.15 -59.9 -32.0 -59.9 -31.4 -60.0 -30.4 -60.0 -29.65 -60.15 -28.65 -60.15 -27.9 -60.25 -26.9 -60.25 -26.25 -60.4 -25.0 -60.4 -24.5 -60.5 -23.5 -60.5 -22.75 -60.65 -21.65 -60.65 -21.0 -60.75 -19.75 -60.75 -19.25 -60.9 -18.15 -60.9 -17.65 -61.0 -16.4 -61.0 -15.9 -61.15 -14.75 -61.15 -14.15 -61.25 -13.0 -61.25 -12.4 -61.4 -9.9 -61.4 -9.9 -61.25 M-34.15 -42.15 Q-34.8 -41.8 -35.5 -41.5 L-35.75 -39.75 -36.15 -39.15 -35.75 -39.0 -35.65 -38.25 -36.15 -37.75 -36.65 -37.75 -37.65 -38.5 -28.4 -53.25 -28.15 -53.9 -27.25 -54.25 -27.15 -54.0 -27.25 -53.75 -29.4 -50.9 -29.25 -50.5 -30.9 -47.75 -30.75 -47.4 -33.25 -44.0 -34.15 -42.15 M-28.65 -54.65 L-33.15 -52.4 -34.5 -53.25 -32.5 -56.65 -25.9 -59.4 -26.0 -58.75 -26.0 -58.65 -26.9 -57.5 -27.0 -57.4 -27.0 -57.25 -28.0 -56.15 -28.65 -54.65 M-179.25 -49.25 L-179.9 -49.25 -180.15 -49.75 -180.25 -50.9 -179.4 -51.15 -179.25 -49.25 M-21.15 -64.65 L-19.75 -66.25 -18.15 -69.9 -12.9 -78.4 -11.15 -79.25 -20.25 -64.65 -20.5 -64.25 -20.65 -64.25 -21.25 -64.15 -21.15 -64.65 M-18.25 -63.0 L-13.25 -65.4 -14.65 -62.9 -18.4 -62.65 -18.25 -63.0" fill="#000000" fill-rule="evenodd" stroke="none"/>
    <path d="M89.5 -72.75 L96.85 -73.25 97.1 -71.4 97.1 -71.0 96.5 -71.0 96.1 -70.9 95.5 -70.9 89.5 -70.5 89.5 -72.75" fill="#111111" fill-rule="evenodd" stroke="none"/>
    <path d="M21.25 -63.75 L20.6 -63.75 20.0 -63.65 18.85 -63.65 18.25 -63.5 17.1 -63.5 16.5 -63.4 15.5 -63.4 14.75 -63.25 13.75 -63.25 13.1 -63.15 12.1 -63.25 14.0 -63.5 14.1 -63.5 20.85 -64.15 21.0 -64.15 21.25 -63.75 M11.35 -63.15 L11.35 -63.0 10.0 -63.0 9.6 -63.0 9.85 -63.15 11.35 -63.15 M-54.5 -58.25 L-55.65 -58.25 -56.4 -58.15 -57.4 -58.15 -58.15 -58.0 -59.15 -58.0 -59.9 -57.9 -60.9 -57.9 -61.4 -57.75 -62.75 -57.75 -63.25 -57.65 -64.5 -57.65 -65.0 -57.5 -66.25 -57.5 -66.75 -57.4 -68.0 -57.4 -68.5 -57.25 -69.75 -57.25 -70.25 -57.15 -71.4 -57.15 -72.0 -57.0 -73.15 -57.0 -73.75 -56.9 -74.9 -56.9 -75.5 -56.75 -76.65 -56.75 -77.15 -56.65 -78.4 -56.65 -78.9 -56.5 -80.15 -56.5 -80.65 -56.4 -81.9 -56.4 -82.4 -56.25 -83.65 -56.25 -84.15 -56.15 -85.25 -56.15 -85.9 -56.0 -87.0 -56.0 -87.65 -55.9 -88.75 -55.9 -89.4 -55.75 -90.5 -55.75 -91.15 -55.65 -92.15 -55.65 -92.75 -55.5 -93.9 -55.5 -94.5 -55.4 -95.65 -55.4 -96.25 -55.25 -97.4 -55.25 -98.0 -55.15 -99.0 -55.15 -99.75 -55.0 -100.75 -55.0 -101.5 -54.9 -102.5 -54.9 -103.25 -54.75 -104.25 -54.75 -105.0 -54.65 -106.0 -54.65 -106.65 -54.5 -107.75 -54.5 -108.4 -54.4 -109.5 -54.4 -110.15 -54.25 -111.25 -54.25 -111.9 -54.15 -112.9 -54.15 -113.65 -54.0 -114.65 -54.0 -115.25 -53.9 -116.4 -53.9 -117.0 -53.75 -118.15 -53.75 -118.75 -53.65 -119.9 -53.65 -120.5 -53.5 -121.65 -53.5 -122.15 -53.4 -123.4 -53.4 -123.9 -53.25 -125.15 -53.25 -125.65 -53.15 -126.75 -53.15 -127.4 -53.0 -128.5 -53.0 -129.25 -52.9 -130.25 -52.9 -131.0 -52.75 -132.0 -52.75 -132.75 -52.65 -133.75 -52.65 -134.5 -52.5 -135.65 -52.5 -136.25 -52.4 -137.4 -52.4 -137.9 -52.25 -139.15 -52.25 -139.65 -52.15 -140.65 -52.15 -141.4 -52.0 -142.5 -52.0 -143.15 -51.9 -144.25 -51.9 -144.9 -51.75 -146.0 -51.75 -146.65 -51.65 -147.75 -51.65 -148.4 -51.5 -149.5 -51.5 -150.15 -51.4 -151.25 -51.4 -151.75 -51.25 -153.0 -51.25 -153.5 -51.15 -154.75 -51.15 -155.25 -51.0 -156.4 -51.0 -157.0 -50.9 -158.15 -50.9 -158.75 -50.75 -159.9 -50.75 -160.5 -50.65 -161.65 -50.65 -162.25 -50.5 -163.25 -50.5 -164.0 -50.4 -165.0 -50.4 -165.75 -50.25 -166.75 -50.25 -167.4 -50.15 -168.4 -50.15 -169.15 -50.0 -170.15 -50.0 -170.75 -49.9 -171.75 -49.9 -172.5 -49.75 -173.65 -49.75 -174.15 -49.65 -175.25 -49.65 -175.75 -49.5 -176.9 -49.5 -177.5 -49.4 -178.5 -49.4 -179.25 -49.25 -179.4 -51.15 -23.65 -62.25 -20.15 -62.5 -18.4 -62.65 -14.65 -62.9 -12.75 -63.0 -10.0 -63.25 -7.65 -63.4 -6.15 -63.5 -6.5 -63.15 -5.25 -62.75 -4.65 -62.0 -7.75 -61.65 -8.9 -61.65 -9.9 -61.4 -12.4 -61.4 -13.0 -61.25 -14.15 -61.25 -14.75 -61.15 -15.9 -61.15 -16.4 -61.0 -17.65 -61.0 -18.15 -60.9 -19.25 -60.9 -19.75 -60.75 -21.0 -60.75 -21.65 -60.65 -22.75 -60.65 -23.5 -60.5 -24.5 -60.5 -25.0 -60.4 -26.25 -60.4 -26.9 -60.25 -27.9 -60.25 -28.65 -60.15 -29.65 -60.15 -30.4 -60.0 -31.4 -60.0 -32.0 -59.9 -33.15 -59.9 -33.75 -59.75 -34.9 -59.75 -35.5 -59.65 -36.65 -59.65 -37.25 -59.5 -38.4 -59.5 -39.0 -59.4 -40.15 -59.4 -40.75 -59.25 -41.75 -59.25 -42.4 -59.15 -43.5 -59.15 -44.15 -59.0 -45.25 -59.0 -45.9 -58.9 -47.0 -58.9 -47.65 -58.75 -48.75 -58.75 -49.25 -58.65 -50.5 -58.65 -51.0 -58.5 -52.25 -58.5 -52.75 -58.4 -54.0 -58.4 -54.5 -58.25 M8.5 -62.9 L8.6 -63.0 9.6 -63.0 8.5 -62.9" fill="#0f0f0f" fill-rule="evenodd" stroke="none"/>
    <path d="M-2.75 -68.0 L-2.65 -69.65 -2.15 -70.4 -0.5 -71.25 Q2.75 -71.65 2.85 -68.15 L2.75 -67.9 0.35 -68.15 -1.25 -67.9 -2.75 -68.0" fill="#4e4e4e" fill-rule="evenodd" stroke="none"/>
    <path d="M10.0 -63.0 L10.0 -62.9 9.5 -61.4 9.0 -61.0 6.75 -60.75 5.25 -60.15 4.85 -60.9 6.1 -61.75 6.6 -62.75 7.1 -62.9 8.5 -62.9 9.6 -63.0 10.0 -63.0 M2.85 -68.15 L5.75 -67.4 8.85 -67.25 9.35 -66.75 9.85 -64.9 6.6 -64.65 6.5 -65.5 5.6 -66.65 3.6 -67.15 Q3.2 -67.5 2.75 -67.9 L2.85 -68.15" fill="#484848" fill-rule="evenodd" stroke="none"/>
    <path d="M4.1 -60.75 L3.6 -60.15 2.0 -59.65 -1.5 -60.25 -2.25 -63.0 Q-2.25 -67.65 -1.25 -67.9 L0.35 -68.15 2.75 -67.9 Q3.2 -67.5 3.6 -67.15 0.6 -66.75 1.1 -63.4 L1.1 -62.65 1.0 -62.4 1.35 -62.4 2.75 -60.9 4.1 -60.75" fill="#151515" fill-rule="evenodd" stroke="none"/>
    <path d="M-1.5 -60.25 L-3.65 -59.25 Q-6.0 -60.15 -8.5 -59.75 L-7.75 -60.9 -7.75 -61.65 -4.65 -62.0 -5.25 -62.75 -6.5 -63.15 -6.15 -63.5 -7.65 -63.4 -8.25 -65.5 -9.15 -66.0 -6.9 -66.4 -2.75 -68.0 -1.25 -67.9 Q-2.25 -67.65 -2.25 -63.0 L-1.5 -60.25" fill="#202020" fill-rule="evenodd" stroke="none"/>
    <path d="M-8.5 -59.75 L-8.75 -60.65 -9.5 -60.5 -9.9 -61.25 -9.9 -61.4 -8.9 -61.65 -7.75 -61.65 -7.75 -60.9 -8.5 -59.75 M-28.4 -53.25 L-28.65 -54.65 -28.0 -56.15 -27.0 -57.25 -27.0 -57.4 -26.9 -57.5 -26.0 -58.65 -26.0 -58.75 -25.5 -59.5 -25.75 -59.65 -25.9 -59.9 -22.0 -60.15 -22.15 -59.5 -22.5 -58.9 -25.0 -55.65 -27.25 -53.75 -27.15 -54.0 -27.25 -54.25 -28.15 -53.9 -28.4 -53.25 M-23.65 -62.25 L-21.15 -64.65 -21.25 -64.15 -20.65 -64.25 -20.5 -64.25 -20.25 -64.65 -19.65 -65.15 -19.4 -65.0 -19.4 -64.9 -20.15 -62.5 -23.65 -62.25 M-10.0 -63.25 L-9.9 -65.25 -9.15 -66.0 -8.25 -65.5 -7.65 -63.4 -10.0 -63.25" fill="#020202" fill-rule="evenodd" stroke="none"/>
    <path d="M-16.75 -59.75 L-16.9 -56.0 Q-19.5 -52.15 -18.9 -51.25 L-19.9 -51.15 -26.0 -52.75 -25.9 -53.4 -27.25 -53.75 -25.0 -55.65 -22.5 -58.9 -21.65 -58.15 Q-21.0 -57.75 -16.75 -59.75 M-18.9 -64.25 L-18.25 -63.0 -18.4 -62.65 -20.15 -62.5 -19.4 -64.9 -18.9 -64.25" fill="#1b1b1b" fill-rule="evenodd" stroke="none"/>
    <path d="M-13.25 -65.4 L-12.9 -65.65 -11.75 -64.9 -12.75 -63.0 -14.65 -62.9 -13.25 -65.4" fill="#8e8e8e" fill-rule="evenodd" stroke="none"/>
    <path d="M-11.15 -79.25 L-10.75 -79.4 -9.75 -78.4 -18.9 -64.25 -19.4 -64.9 -19.4 -65.0 -19.65 -65.15 -20.25 -64.65 -11.15 -79.25" fill="#8f8f8f" fill-rule="evenodd" stroke="none"/>
    <path d="M4.85 -60.9 L4.1 -60.75 2.75 -60.9 1.35 -62.4 3.1 -62.5 3.6 -62.65 6.6 -62.75 6.1 -61.75 4.85 -60.9 M6.6 -64.65 L6.35 -64.5 1.35 -64.15 1.1 -63.4 Q0.6 -66.75 3.6 -67.15 L5.6 -66.65 6.5 -65.5 6.6 -64.65" fill="#383838" fill-rule="evenodd" stroke="none"/>
    <path d="M-25.9 -59.4 L-25.75 -59.65 -25.5 -59.5 -26.0 -58.75 -25.9 -59.4" fill="#818181" fill-rule="evenodd" stroke="none"/>
    <path d="M-26.0 -52.75 L-27.9 -50.25 -29.4 -46.9 -31.65 -43.25 -34.15 -42.15 -33.25 -44.0 -30.75 -47.4 -30.9 -47.75 -29.25 -50.5 -29.4 -50.9 -27.25 -53.75 -25.9 -53.4 -26.0 -52.75 M-35.75 -39.75 L-35.75 -39.0 -36.15 -39.15 -35.75 -39.75" fill="#7d7d7d" fill-rule="evenodd" stroke="none"/>
    <path d="M33.1 -27.9 L34.0 -28.25 34.35 -28.15 34.6 -28.0 34.75 -27.75 38.6 -25.65 38.85 -25.15 40.1 -23.25 40.35 -23.0 40.35 -22.9 40.85 -22.0 41.25 -21.5 41.0 -21.5 40.6 -21.65 41.1 -20.65 41.1 -20.0 41.0 -19.65 40.85 -19.4 40.75 -19.0 40.35 -18.4 40.1 -17.65 40.0 -17.5 39.75 -16.65 39.6 -16.65 39.35 -17.75 38.5 -23.5 38.35 -23.75 37.6 -24.65 37.25 -24.9 37.6 -22.4 37.6 -22.25 37.75 -21.9 38.1 -18.4 38.25 -18.25 38.5 -16.0 38.85 -14.9 38.75 -14.25 38.75 -14.0 38.35 -14.0 38.25 -15.9 36.85 -24.75 36.6 -25.5 36.35 -26.0 35.6 -26.65 Q35.45 -26.75 35.25 -26.9 L35.35 -25.25 35.85 -23.15 35.85 -22.65 36.0 -21.25 36.5 -19.15 36.6 -17.15 37.1 -15.15 37.1 -14.65 37.25 -13.65 37.1 -13.5 36.75 -13.4 36.35 -17.0 35.85 -19.25 35.75 -21.15 35.25 -23.25 35.1 -25.15 34.6 -27.25 34.25 -27.5 33.25 -27.9 33.1 -27.9 M31.6 -11.75 L22.35 -8.9 18.6 -8.5 17.5 -8.5 14.85 -8.25 15.0 -8.4 14.85 -8.75 14.6 -9.75 14.5 -9.75 14.35 -10.15 14.5 -10.5 14.1 -11.25 14.0 -11.4 13.85 -11.9 13.85 -12.0 12.6 -17.0 13.0 -17.75 11.6 -24.25 11.5 -24.65 19.85 -25.25 20.0 -25.25 28.1 -26.0 28.35 -25.9 29.5 -26.5 31.6 -12.5 31.6 -11.75" fill="#131313" fill-opacity="0.50980395" fill-rule="evenodd" stroke="none"/>
    <path d="M36.75 -13.4 L31.6 -11.75 31.6 -12.5 29.5 -26.5 33.1 -27.9 33.25 -27.9 34.25 -27.5 34.6 -27.25 35.1 -25.15 35.25 -23.25 35.75 -21.15 35.85 -19.25 36.35 -17.0 36.75 -13.4" fill="#272727" fill-opacity="0.50980395" fill-rule="evenodd" stroke="none"/>
    <path d="M11.0 -24.65 L11.5 -24.65 11.6 -24.25 11.1 -24.0 11.0 -24.65 M12.85 -15.25 L12.5 -16.5 12.5 -16.65 12.85 -15.25" fill="#0d0d0d" fill-rule="evenodd" stroke="none"/>
    <path d="M14.5 -8.25 L6.85 -7.5 5.35 -7.75 4.85 -7.9 -11.9 -9.9 -12.0 -9.9 -12.25 -10.4 -16.9 -16.0 -17.25 -16.25 -17.25 -16.5 -15.9 -20.65 -15.75 -20.9 -12.75 -24.25 -12.65 -24.5 -11.0 -24.15 -10.65 -24.15 -10.5 -24.0 -10.15 -23.9 -9.25 -23.9 -8.15 -23.65 -7.75 -23.5 -6.9 -23.5 -5.5 -23.25 -3.5 -23.25 -1.25 -23.65 -0.65 -23.65 2.25 -23.9 3.25 -23.9 7.6 -24.25 8.25 -24.4 8.75 -24.4 11.0 -24.65 11.1 -24.0 11.1 -23.65 11.25 -23.25 11.25 -23.0 11.35 -21.9 12.6 -17.0 12.5 -16.65 12.5 -16.5 12.85 -15.25 12.85 -15.15 13.0 -14.65 13.1 -14.5 13.35 -13.15 13.5 -12.9 13.5 -12.75 14.5 -8.25" fill="#040404" fill-opacity="0.50980395" fill-rule="evenodd" stroke="none"/>
    <path d="M-17.25 -16.25 L-17.5 -16.15 -17.65 -15.4 -17.5 -15.0 -18.0 -12.9 -18.0 -12.75 -18.15 -11.9 -18.0 -11.15 -18.25 -11.0 -18.4 -10.5 -18.15 -10.25 -18.4 -10.15 -18.4 -9.75 -18.5 -9.25 -18.15 -8.15 -18.4 -7.75 -18.0 -7.25 -17.75 -2.75 -17.65 -2.4 -19.4 -2.65 -19.75 -2.75 -20.25 -2.75 -20.65 -3.0 -21.4 -3.25 -21.65 -3.25 -22.0 -9.4 -22.0 -11.15 -21.5 -11.75 -19.25 -16.9 -18.4 -16.5 -17.75 -16.4 -17.25 -16.5 -17.25 -16.25 M-24.5 -15.4 L-24.5 -15.0 -24.4 -14.65 -24.4 -16.4 -24.5 -15.4 M-24.65 -17.5 L-24.4 -17.15 -24.4 -19.9 -24.65 -19.4 -24.75 -18.4 -24.65 -18.15 -24.65 -17.5 M-24.9 -22.0 L-24.65 -21.75 -24.4 -21.0 -24.4 -21.5 -24.25 -21.4 -24.0 -21.15 -24.0 -12.5 -23.9 -11.75 -24.0 -9.75 -24.4 -9.75 -24.15 -8.9 -24.15 -5.5 -24.0 -4.25 -24.4 -4.4 -24.4 -4.5 -24.5 -5.15 -25.0 -5.65 -25.15 -5.65 -25.25 -12.65 -25.15 -14.0 -25.25 -16.15 -25.0 -17.9 -25.0 -22.25 -24.9 -22.0 M-24.65 -9.75 L-24.75 -9.4 -24.65 -6.25 -24.5 -5.9 -24.5 -10.0 -24.65 -9.75" fill="#000000" fill-opacity="0.50980395" fill-rule="evenodd" stroke="none"/>
    <path d="M41.25 -21.5 L41.6 -21.15 41.35 -20.75 41.1 -20.65 40.6 -21.65 41.0 -21.5 41.25 -21.5" fill="#141414" fill-rule="evenodd" stroke="none"/>
    <path d="M39.6 -16.65 L39.6 -16.15 39.25 -15.25 39.0 -14.9 38.85 -14.9 38.5 -16.0 38.25 -18.25 38.1 -18.4 37.75 -21.9 37.6 -22.25 37.6 -22.4 37.25 -24.9 37.6 -24.65 38.35 -23.75 38.5 -23.5 39.35 -17.75 39.6 -16.65 M38.35 -14.0 L38.35 -13.9 37.25 -13.65 37.1 -14.65 37.1 -15.15 36.6 -17.15 36.5 -19.15 36.0 -21.25 35.85 -22.65 35.85 -23.15 35.35 -25.25 35.25 -26.9 Q35.45 -26.75 35.6 -26.65 L36.35 -26.0 36.6 -25.5 36.85 -24.75 38.25 -15.9 38.35 -14.0" fill="#131313" fill-rule="evenodd" stroke="none"/>
    <path d="M14.85 -8.25 L14.5 -8.25 13.5 -12.75 13.5 -12.9 13.35 -13.15 13.1 -14.5 13.0 -14.65 12.85 -15.15 12.85 -15.25 12.5 -16.65 12.6 -17.0 11.35 -21.9 11.25 -23.0 11.25 -23.25 11.1 -23.65 11.1 -24.0 11.6 -24.25 13.0 -17.75 12.6 -17.0 13.85 -12.0 13.85 -11.9 14.0 -11.4 14.1 -11.25 14.5 -10.5 14.35 -10.15 14.5 -9.75 14.6 -9.75 14.85 -8.75 15.0 -8.4 14.85 -8.25" fill="#151515" fill-rule="evenodd" stroke="none"/>
    <path d="M43.85 -15.5 L44.5 -8.9 44.35 -8.9 43.75 -14.9 43.85 -15.25 43.85 -15.5 M43.35 -16.75 L42.6 -18.9 43.1 -18.65 43.75 -16.65 43.35 -16.75" fill="#0e0e0e" fill-rule="evenodd" stroke="none"/>
    <path d="M43.85 -16.4 L43.85 -15.5 43.35 -16.75 43.75 -16.65 43.85 -16.65 43.85 -16.4 M44.5 -8.9 L44.6 -8.65 44.85 -8.5 45.0 -8.25 44.35 -7.65 44.35 -8.9 44.5 -8.9" fill="#0d0d0d" fill-opacity="0.50980395" fill-rule="evenodd" stroke="none"/>
    <path d="M43.85 -16.4 L44.5 -15.9 44.85 -8.5 44.6 -8.65 44.5 -8.9 43.85 -15.5 43.85 -16.4" fill="#0f0f0f" fill-rule="evenodd" stroke="none"/>
  </g>
</svg>
