<?xml version="1.0" encoding="UTF-8" standalone="no"?>
<svg xmlns:xlink="http://www.w3.org/1999/xlink" height="211.0px" width="355.6px" xmlns="http://www.w3.org/2000/svg">
  <g transform="matrix(1.0, 0.0, 0.0, 1.0, 163.0, 142.9)">
    <path d="M192.6 -20.0 L192.25 -18.5 191.75 -18.5 180.75 -22.0 31.6 -43.0 29.35 -43.4 29.6 -41.9 28.75 -43.4 28.6 -43.5 19.25 -44.75 18.75 -44.75 16.1 -45.25 16.0 -45.25 13.5 -45.65 15.5 -46.0 16.0 -46.75 19.5 -46.25 20.0 -46.25 24.6 -45.5 26.25 -45.4 29.0 -44.9 180.5 -23.65 192.6 -20.0 M-37.4 57.0 L-46.0 55.6 -46.0 53.75 -37.25 55.1 -37.4 57.0 M-35.25 -52.5 L-154.4 -69.25 Q-163.25 -71.15 -163.0 -73.65 L-155.5 -70.9 -15.9 -51.25 -15.4 -51.25 -14.65 -51.15 -14.5 -51.15 -10.9 -50.5 -10.15 -50.5 -9.75 -50.4 -9.25 -50.4 -5.5 -49.75 -4.3 -49.65 -3.9 -49.65 -3.4 -49.5 -3.0 -49.5 -2.65 -49.4 -2.15 -49.4 -2.5 -49.15 -1.25 -48.5 -0.75 -47.65 -3.75 -48.0 -5.0 -48.15 -5.15 -48.15 -5.65 -48.25 -13.75 -49.4 -16.4 -49.75 -16.65 -49.9 -35.25 -52.5 M-40.4 -98.75 L-41.9 -99.75 -42.15 -100.0 -35.9 -107.65 -35.15 -109.0 -30.65 -114.4 -30.15 -115.5 -30.0 -115.75 -29.15 -115.9 -29.4 -115.4 -29.5 -114.9 -31.4 -113.25 -33.75 -109.9 -34.4 -108.4 -41.4 -99.75 -40.4 -98.75 M-28.5 -118.5 L-30.65 -118.5 -31.65 -119.5 -29.0 -123.15 -25.25 -122.9 -25.4 -122.65 -26.75 -120.75 -27.0 -120.65 -28.0 -119.4 -28.5 -118.5 M-21.0 -127.0 L-19.4 -128.65 -10.25 -141.25 -9.65 -141.65 -9.4 -142.4 -8.75 -142.9 -7.9 -142.9 -20.4 -126.65 -20.75 -126.65 -21.25 -126.65 -21.0 -127.0 M-22.75 -122.0 L-22.15 -121.9 -20.65 -123.15 -18.0 -123.4 -17.75 -123.25 -20.75 -119.4 -19.65 -118.4 -23.0 -118.4 -24.65 -119.5 -24.9 -119.65 -23.25 -122.0 -22.75 -122.0 M-14.75 -46.4 L-14.9 -46.0 -16.9 -44.65 Q-18.9 -46.25 -21.0 -46.15 L-24.25 -45.5 Q-26.25 -44.9 -27.75 -42.25 L-28.4 -38.25 Q-29.75 -41.65 -25.75 -45.65 -19.75 -49.5 -14.75 -46.4" fill="#000000" fill-rule="evenodd" stroke="none"/>
    <path d="M-7.9 -142.9 L-6.65 -141.75 -19.0 -125.75 -19.5 -126.0 -19.9 -127.0 -20.0 -126.75 -20.4 -126.65 -20.65 -126.5 -20.75 -126.65 -20.4 -126.65 -7.9 -142.9" fill="#121212" fill-rule="evenodd" stroke="none"/>
    <path d="M17.1 67.75 L6.85 68.1 -5.75 63.6 -5.25 63.75 -4.65 63.5 -4.5 61.0 8.35 64.5 8.75 64.5 17.75 64.35 17.5 66.1 18.25 66.25 17.35 66.25 17.25 67.0 18.1 67.1 17.35 67.1 17.1 67.75 M-30.0 -115.75 L-28.5 -118.5 -28.0 -119.4 -27.0 -120.65 -26.75 -120.75 -25.4 -122.65 -25.25 -122.9 -23.15 -125.25 -21.0 -127.0 -21.25 -126.65 -20.75 -126.65 -20.65 -126.5 -20.4 -126.65 -20.0 -126.75 -21.0 -124.4 -22.75 -122.0 -23.25 -122.0 -24.9 -119.65 -24.65 -119.5 -27.9 -115.9 -29.5 -114.9 -29.4 -115.4 -28.9 -115.65 -29.15 -115.9 -30.0 -115.75 M-10.4 -72.75 L-10.25 -73.9 -9.25 -70.65 -9.75 -71.0 -10.4 -72.75 M1.75 -46.65 Q5.5 -50.25 8.1 -45.0 L4.5 -45.4 1.6 -45.65 1.6 -45.75 1.5 -45.9 1.75 -46.65 M-21.15 8.1 L-21.15 8.35 -22.65 11.6 -21.75 6.25 -21.15 8.1 M-23.65 -4.4 L-23.25 -2.15 -24.5 3.75 -24.65 6.0 -25.5 10.35 -25.75 10.25 -26.0 8.75 -25.65 8.25 -25.4 6.0 -23.65 -4.4 M-22.65 1.25 L-22.25 3.5 -22.9 6.0 -24.15 13.25 -24.15 15.1 -24.5 15.85 -24.9 13.25 -23.5 6.0 -22.65 1.25" fill="#020202" fill-rule="evenodd" stroke="none"/>
    <path d="M-20.5 -111.75 L-28.4 -114.0 -28.25 -114.25 -29.5 -114.5 -29.75 -114.65 -29.5 -114.9 -27.9 -115.9 -24.65 -119.5 -23.0 -118.4 -19.65 -118.4 -17.0 -121.4 -16.25 -119.4 -16.25 -117.9 -16.15 -116.25 -17.75 -114.0 -20.15 -111.75 -20.5 -111.75 M-19.0 -125.75 L-18.65 -124.65 -18.0 -123.4 -20.65 -123.15 -22.15 -121.9 -22.75 -122.0 -21.0 -124.4 -20.0 -126.75 -19.9 -127.0 -19.5 -126.0 -19.0 -125.75" fill="#242424" fill-rule="evenodd" stroke="none"/>
    <path d="M-17.65 -124.5 L-14.15 -124.9 -13.65 -124.4 -14.0 -124.4 -13.75 -123.9 -15.0 -123.0 -15.15 -123.0 -16.5 -122.15 -17.4 -123.25 -17.65 -124.5 M-17.25 -16.25 L-16.9 -14.9 -15.9 -13.9 -15.5 -11.9 -14.9 -10.9 -14.65 -10.0 -17.75 -9.65 -23.5 -5.5 -20.75 -16.65 -18.0 -16.25 -17.25 -16.25" fill="#303030" fill-rule="evenodd" stroke="none"/>
    <path d="M-13.65 -124.4 L-13.4 -124.0 -13.75 -123.9 -14.0 -124.4 -13.65 -124.4" fill="#2f2f2f" fill-rule="evenodd" stroke="none"/>
    <path d="M-13.4 -124.0 L-13.25 -123.15 Q-15.4 -120.0 -13.0 -115.65 L-12.65 -96.4 -12.0 -84.9 -11.15 -78.65 -10.75 -76.75 -10.75 -76.25 -10.25 -73.9 -10.4 -72.75 -11.25 -74.75 -14.25 -74.9 -14.25 -76.15 -14.75 -76.65 -15.0 -82.15 -14.4 -82.0 -14.4 -83.4 -14.75 -83.9 -14.75 -82.4 -15.15 -82.5 -15.75 -94.4 -15.65 -95.75 -15.0 -95.65 -15.9 -103.15 -15.65 -106.75 -16.15 -116.25 -15.9 -116.75 -16.25 -117.9 -16.25 -119.4 -16.15 -122.0 -15.15 -123.0 -15.0 -123.0 -13.75 -123.9 -13.4 -124.0 M-14.9 -94.15 L-15.25 -94.25 -14.9 -84.65 -14.5 -84.5 -14.9 -94.15" fill="#5c5c5c" fill-rule="evenodd" stroke="none"/>
    <path d="M-18.65 -124.65 L-17.65 -124.5 -17.4 -123.25 -17.75 -123.25 -18.0 -123.4 -18.65 -124.65 M-12.0 -84.9 L-8.0 -85.25 7.6 -83.9 -12.0 -84.9 M-10.75 -76.25 L-10.75 -76.75 -10.65 -76.75 -3.9 -76.15 -10.75 -76.25 M4.75 11.1 L7.1 11.75 13.1 12.0 13.1 12.85 13.6 13.0 13.25 13.5 13.75 14.0 13.5 14.25 14.0 14.5 13.6 14.75 14.5 15.0 13.75 15.1 14.5 15.35 13.85 15.5 5.85 15.6 4.75 11.1" fill="#454545" fill-rule="evenodd" stroke="none"/>
    <path d="M-19.65 -118.4 L-20.75 -119.4 -17.75 -123.25 -17.4 -123.25 -16.5 -122.15 -17.0 -121.4 -19.65 -118.4" fill="#0f0f0f" fill-rule="evenodd" stroke="none"/>
    <path d="M-16.15 -122.0 L-16.25 -119.4 -17.0 -121.4 -16.5 -122.15 -16.4 -122.15 -16.15 -122.0 M-16.25 -117.9 L-15.9 -116.75 -16.15 -116.25 -15.65 -106.75 -15.9 -103.15 -15.0 -95.65 -15.65 -95.75 -15.75 -94.4 -15.15 -82.5 -14.75 -82.4 -14.75 -83.9 -14.4 -83.4 -14.4 -82.0 -15.0 -82.15 -14.75 -76.65 -14.25 -76.15 -14.25 -74.9 -17.75 -74.75 -19.25 -71.5 -19.4 -80.9 -19.4 -81.5 -19.15 -83.65 -19.4 -85.9 -20.15 -111.75 -17.75 -114.0 -16.15 -116.25 -16.25 -117.9 M-14.9 -94.15 L-14.5 -84.5 -14.9 -84.65 -15.25 -94.25 -14.9 -94.15 M34.0 23.85 L34.0 22.85 34.6 19.5 37.75 18.0 38.35 18.75 38.6 19.0 41.35 22.25 41.75 22.6 42.0 23.0 43.1 25.85 42.6 30.5 40.1 36.5 38.75 36.85 36.6 30.85 36.75 30.35 34.0 23.85" fill="#050505" fill-rule="evenodd" stroke="none"/>
    <path d="M45.25 33.6 L45.1 35.25 45.0 35.6 45.0 36.25 44.6 39.0 44.6 39.1 44.35 39.85 37.5 47.0 Q38.5 45.75 36.5 39.85 L40.1 36.5 45.25 33.6 M-13.25 -123.15 L-13.15 -123.15 -11.65 -123.0 -11.0 -122.25 -10.4 -120.25 Q-10.15 -115.15 -13.0 -115.65 -15.4 -120.0 -13.25 -123.15" fill="#292929" fill-rule="evenodd" stroke="none"/>
    <path d="M29.6 -41.9 L29.35 -43.4 31.6 -43.0 31.5 -40.75 31.0 -39.5 29.6 -41.75 29.6 -41.9 M7.6 -83.9 L12.6 -83.5 12.75 -83.5 13.75 -83.4 14.1 -83.4 14.85 -83.25 15.35 -83.25 16.1 -83.15 16.75 -83.15 17.25 -83.0 17.6 -83.0 15.85 -78.75 -11.15 -78.65 -12.0 -84.9 7.6 -83.9 M12.5 -53.75 Q13.35 -53.5 18.1 -56.65 L27.75 -55.75 30.5 -54.9 31.5 -47.5 29.35 -47.75 29.0 -47.9 28.35 -48.0 24.0 -48.5 23.1 -48.65 20.5 -49.0 19.5 -49.15 17.5 -49.5 17.0 -49.4 17.0 -51.0 16.1 -51.4 16.1 -52.4 15.75 -52.5 15.5 -51.5 12.1 -52.75 12.5 -53.75" fill="#545454" fill-rule="evenodd" stroke="none"/>
    <path d="M44.35 39.85 L44.5 40.1 43.75 45.85 44.25 49.75 44.1 54.35 42.85 57.5 38.25 62.6 38.35 59.75 38.5 56.1 39.25 53.5 Q38.35 52.0 38.35 48.75 L37.5 47.0 44.35 39.85 M-10.75 -76.75 L-11.15 -78.65 15.85 -78.75 14.75 -76.15 10.25 -75.9 -3.9 -76.15 -10.65 -76.75 -10.75 -76.75 M22.35 -78.75 L24.6 -78.0 23.0 -77.0 21.6 -76.75 22.35 -78.75" fill="#262626" fill-rule="evenodd" stroke="none"/>
    <path d="M192.6 -20.0 L180.5 -23.65 29.0 -44.9 29.25 -45.4 26.25 -45.4 24.6 -45.5 29.35 -45.65 29.5 -46.25 27.1 -46.25 29.6 -46.4 29.85 -47.15 29.6 -47.5 25.0 -47.65 28.35 -48.0 29.0 -47.9 29.35 -47.75 31.5 -47.5 179.85 -26.75 191.85 -23.25 192.6 -20.0 M17.6 -83.0 L27.5 -106.4 Q31.25 -110.5 36.85 -108.25 32.85 -106.5 32.75 -105.75 L13.85 -58.4 10.0 -58.9 9.6 -56.0 8.6 -56.25 6.35 -56.4 14.75 -76.15 15.85 -78.75 17.6 -83.0 M-14.5 -51.15 L-14.65 -51.15 -15.4 -51.25 -15.9 -51.25 -15.9 -51.65 -3.65 -50.65 -3.65 -50.25 -9.25 -50.4 -9.75 -50.4 -10.15 -50.5 -10.9 -50.5 -8.9 -50.75 -14.5 -51.15 M-14.9 -54.0 L-13.25 -53.75 -14.5 -53.5 -14.9 -54.0 M-10.75 -53.4 L-9.9 -53.25 -13.4 -53.15 -9.0 -53.15 -8.0 -53.0 -13.5 -53.0 -13.9 -52.4 -15.0 -52.25 -15.4 -52.25 -15.0 -53.4 -10.75 -53.4 M-7.5 -53.0 L-6.15 -52.75 -6.4 -52.25 -7.5 -52.25 -7.5 -53.0 M-8.15 -51.65 L-6.15 -51.4 -8.25 -51.4 -8.15 -51.65 M-3.5 -51.25 L-3.5 -50.9 -7.0 -51.15 -3.5 -51.25 M8.1 -45.0 L8.5 -45.0 6.1 -39.15 3.75 -39.4 4.5 -45.4 8.1 -45.0 M24.0 -48.5 L21.6 -48.4 25.85 -48.0 16.5 -48.25 16.6 -48.4 16.75 -48.9 23.1 -48.65 24.0 -48.5 M20.5 -49.0 L18.35 -49.0 19.5 -49.15 20.5 -49.0 M-3.9 -49.65 L-4.3 -49.65 -3.65 -49.65 -3.9 -49.65 M-15.75 25.1 Q-14.75 28.6 -14.0 28.75 L-12.5 25.1 1.75 25.25 4.25 24.85 5.85 21.75 7.35 21.75 0.0 40.6 -9.25 37.6 -9.5 37.35 -14.0 29.0 -14.4 29.1 -16.0 35.0 -16.4 41.1 -18.9 37.35 -19.15 37.1 -20.5 33.25 -20.25 28.6 -20.15 28.25 -19.25 26.0 -19.0 25.5 -18.4 25.0 -15.75 25.1" fill="#686868" fill-rule="evenodd" stroke="none"/>
    <path d="M36.85 -108.25 L37.0 -107.15 Q32.75 -105.15 32.6 -104.4 L23.6 -81.5 22.35 -78.75 21.6 -76.75 21.35 -76.4 13.75 -57.0 13.75 -57.65 13.75 -57.75 13.85 -58.4 32.75 -105.75 Q32.85 -106.5 36.85 -108.25 M-20.0 -26.5 L-20.5 -25.75 -23.25 -24.4 -23.9 -24.15 -22.15 -26.15 -20.0 -26.5" fill="#151515" fill-rule="evenodd" stroke="none"/>
    <path d="M-46.0 53.75 L-37.25 46.6 -26.9 21.85 -26.9 21.6 -26.4 20.6 -26.25 20.5 -26.15 19.85 -24.65 16.5 -24.15 15.1 -22.9 12.35 -22.65 11.6 -21.15 8.35 -21.15 8.1 -16.9 -1.65 -16.75 -1.9 -16.4 -2.9 -16.4 -3.15 -14.0 -8.5 -14.0 -8.65 -13.25 -10.15 -11.4 -14.65 -11.25 -14.9 -10.75 -16.15 -10.65 -16.25 -7.75 -23.15 -5.65 -28.25 -3.5 -33.25 -2.5 -35.5 1.6 -45.4 1.6 -45.65 4.5 -45.4 3.75 -39.4 6.1 -39.15 -28.65 48.1 -37.25 55.1 -46.0 53.75 M-53.9 -83.5 L-53.0 -83.65 -52.65 -83.65 -50.0 -83.9 -45.3 -84.2 -30.5 -85.0 -20.0 -84.75 -19.9 -82.15 -19.4 -81.5 -19.4 -80.9 -19.9 -78.75 -42.4 -78.9 -53.9 -79.5 -53.9 -79.55 -54.0 -80.0 Q-54.7 -80.55 -55.5 -80.65 L-55.5 -82.65 -53.9 -82.75 -56.0 -83.25 -53.9 -83.5 M13.85 -58.4 L13.75 -57.75 13.75 -57.65 11.75 -53.4 11.0 -55.15 9.6 -56.0 10.0 -58.9 13.85 -58.4" fill="#3d3d3d" fill-rule="evenodd" stroke="none"/>
    <path d="M10.25 -53.5 L10.1 -54.65 8.6 -56.25 9.6 -56.0 11.0 -55.15 11.75 -53.4 11.6 -53.0 10.25 -53.5" fill="#929292" fill-rule="evenodd" stroke="none"/>
    <path d="M23.6 -81.5 L25.0 -80.15 25.25 -79.4 25.0 -77.5 24.25 -76.75 22.85 -76.25 21.35 -76.4 21.6 -76.75 23.0 -77.0 24.6 -78.0 22.35 -78.75 23.6 -81.5 M4.5 -54.9 L5.5 -56.0 6.35 -56.4 8.6 -56.25 10.1 -54.65 10.25 -53.5 10.1 -52.5 9.0 -51.75 6.75 -52.0 4.85 -52.5 4.6 -52.9 4.25 -54.4 4.5 -54.9" fill="#4f4f4f" fill-rule="evenodd" stroke="none"/>
    <path d="M-15.15 -123.0 L-16.15 -122.0 -16.4 -122.15 -16.5 -122.15 -15.15 -123.0" fill="#757575" fill-rule="evenodd" stroke="none"/>
    <path d="M16.0 -46.75 L15.5 -46.0 13.5 -45.65 16.0 -45.25 16.0 -44.65 15.5 -44.65 15.0 -44.65 13.0 -44.75 11.25 -44.4 9.1 -44.65 9.75 -45.4 10.25 -47.5 9.0 -51.75 10.1 -52.5 10.25 -53.5 11.6 -53.0 12.1 -52.75 15.5 -51.5 16.1 -51.4 17.0 -51.0 16.1 -48.4 16.1 -47.25 16.0 -46.75 M-28.4 -114.0 L-30.5 -111.65 -32.9 -107.75 -36.4 -103.65 -36.65 -102.9 -40.0 -98.65 -40.4 -98.75 -41.4 -99.75 -34.4 -108.4 -33.75 -109.9 -31.4 -113.25 -29.5 -114.9 -29.75 -114.65 -29.5 -114.5 -28.25 -114.25 -28.4 -114.0 M-29.4 -115.4 L-29.15 -115.9 -28.9 -115.65 -29.4 -115.4 M-17.25 -26.75 L-17.25 -26.25 -16.15 -23.75 -15.4 -20.65 -16.4 -21.4 -17.0 -21.5 -17.4 -21.5 -17.65 -21.4 -18.0 -21.4 -19.0 -20.75 -19.5 -19.75 -19.75 -20.25 -19.65 -21.0 -20.15 -22.0 -20.25 -23.0 -20.4 -23.4 -20.5 -24.4 -20.75 -25.15 -20.4 -25.4 -20.5 -25.75 -20.0 -26.5 -19.9 -26.75 -19.25 -26.9 -17.25 -26.75" fill="#2e2e2e" fill-rule="evenodd" stroke="none"/>
    <path d="M-22.5 -66.5 L-20.4 -76.25 -20.25 -77.0 -19.9 -78.75 -19.4 -80.9 -19.25 -71.5 -19.5 -70.65 -22.5 -66.5 M-20.15 -85.25 L-20.5 -111.75 -20.15 -111.75 -19.4 -85.9 -19.15 -83.65 -19.4 -81.5 -19.9 -82.15 -20.0 -84.75 -20.15 -85.25" fill="#101010" fill-rule="evenodd" stroke="none"/>
    <path d="M-20.4 -76.25 L-26.4 -76.4 -20.25 -77.0 -20.4 -76.25 M-52.4 -77.0 L-53.5 -77.0 -53.5 -77.15 -53.4 -77.15 -52.4 -77.0 M-45.3 -84.2 L-31.5 -85.25 -20.15 -85.25 -20.0 -84.75 -30.5 -85.0 -45.3 -84.2" fill="#3b3b3b" fill-rule="evenodd" stroke="none"/>
    <path d="M-53.5 -77.0 L-56.65 -77.0 -58.0 -77.9 -58.9 -79.4 Q-59.4 -83.5 -53.9 -83.5 L-56.0 -83.25 -53.9 -82.75 -55.5 -82.65 -55.5 -80.65 Q-54.7 -80.55 -54.0 -80.0 L-53.9 -79.55 Q-57.3 -79.5 -57.5 -78.4 L-53.5 -77.15 -53.5 -77.0" fill="#1a1a1a" fill-rule="evenodd" stroke="none"/>
    <path d="M33.5 -18.25 L31.35 -17.0 31.0 -17.9 31.85 -18.4 32.35 -19.5 32.35 -19.9 32.75 -19.4 33.5 -18.25 M-26.4 -76.4 L-43.0 -76.25 -52.4 -77.0 -53.4 -77.15 -53.5 -77.15 -57.5 -78.4 Q-57.3 -79.5 -53.9 -79.55 L-53.9 -79.5 -42.4 -78.9 -19.9 -78.75 -20.25 -77.0 -26.4 -76.4" fill="#1e1e1e" fill-rule="evenodd" stroke="none"/>
    <path d="M-19.25 -71.5 L-17.75 -74.75 -14.25 -74.9 -13.4 -71.5 -8.65 -60.15 -8.4 -60.25 -8.65 -59.65 -6.15 -55.5 -6.75 -55.15 -11.9 -54.75 -14.9 -54.0 -17.0 -54.4 -17.5 -54.75 -18.0 -60.25 -19.15 -63.9 -19.0 -69.0 -19.5 -70.65 -19.25 -71.5" fill="#282828" fill-rule="evenodd" stroke="none"/>
    <path d="M-14.25 -74.9 L-11.25 -74.75 -10.4 -72.75 -9.75 -71.0 -9.25 -70.65 -0.4 -58.9 1.85 -55.15 -2.75 -55.4 -3.25 -55.4 -6.15 -55.5 -8.65 -59.65 -8.4 -60.25 -8.65 -60.15 -13.4 -71.5 -14.25 -74.9" fill="#676767" fill-rule="evenodd" stroke="none"/>
    <path d="M-6.15 -55.5 L-3.25 -55.4 -6.75 -55.15 -6.15 -55.5" fill="#1d1d1d" fill-rule="evenodd" stroke="none"/>
    <path d="M-3.25 -55.4 L-2.75 -55.4 -1.25 -53.9 -2.75 -53.9 -3.15 -53.0 -3.25 -52.4 -6.15 -52.75 -7.5 -53.0 -8.0 -53.0 -9.0 -53.15 -9.9 -53.25 -10.75 -53.4 -13.25 -53.75 -14.9 -54.0 -11.9 -54.75 -6.75 -55.15 -3.25 -55.4" fill="#464646" fill-rule="evenodd" stroke="none"/>
    <path d="M-5.75 63.6 Q-6.5 63.85 -10.5 61.25 L-13.0 60.5 -13.25 60.0 -17.0 53.35 -16.4 41.1 -4.9 48.1 -4.9 53.1 -5.25 54.85 -4.5 61.0 -4.65 63.5 -5.25 63.75 -5.75 63.6 M-26.5 -23.65 L-26.15 -24.75 -26.0 -24.0 -26.5 -23.65 M-25.4 -56.4 L-23.9 -63.0 -22.5 -66.5 -19.5 -70.65 -19.0 -69.0 -19.15 -63.9 -18.0 -60.25 -17.5 -54.75 -22.15 -56.75 -25.4 -56.4" fill="#030303" fill-rule="evenodd" stroke="none"/>
    <path d="M-27.9 -34.15 Q-38.5 -47.5 -35.25 -52.5 L-16.65 -49.9 -16.4 -49.75 -13.75 -49.4 -14.75 -46.4 Q-19.75 -49.5 -25.75 -45.65 -29.75 -41.65 -28.4 -38.25 L-27.9 -34.15 M-29.25 -56.0 L-25.4 -56.4 -22.15 -56.75 -17.5 -54.75 -17.0 -54.4 -29.25 -56.0 M-9.25 37.6 L0.0 40.6 8.5 43.5 10.35 43.5 16.25 43.35 16.5 45.1 16.85 45.25 16.5 45.35 16.85 45.35 16.75 46.35 17.1 46.6 16.85 47.75 Q17.35 47.85 17.35 50.6 L8.1 52.85 8.0 54.25 8.35 55.25 17.75 55.0 18.25 61.0 8.75 64.5 8.35 64.5 -4.5 61.0 -5.25 54.85 -4.9 53.1 -4.9 48.1 -5.65 45.75 -6.15 41.1 -9.25 37.6" fill="#1c1c1c" fill-rule="evenodd" stroke="none"/>
    <path d="M-24.25 38.5 L-28.75 50.0 -37.4 57.0 -37.25 55.1 -28.65 48.1 6.1 -39.15 8.5 -45.0 8.5 -45.15 8.75 -45.65 8.6 -44.25 3.6 -31.4 0.75 -24.15 -9.15 0.6 -12.25 8.6 -13.25 11.1 -19.0 25.5 -19.25 26.0 -20.15 28.25 -20.25 28.6 -23.0 35.35 -24.25 38.5 M13.75 -57.0 L12.5 -53.75 12.1 -52.75 11.6 -53.0 11.75 -53.4 13.75 -57.65 13.75 -57.0" fill="#0d0d0d" fill-rule="evenodd" stroke="none"/>
    <path d="M29.0 -44.9 L26.25 -45.4 29.25 -45.4 29.0 -44.9 M24.6 -45.5 L20.0 -46.25 19.5 -46.25 16.0 -46.75 16.1 -47.25 16.5 -47.65 16.5 -48.25 25.85 -48.0 21.6 -48.4 24.0 -48.5 28.35 -48.0 25.0 -47.65 29.6 -47.5 29.85 -47.15 29.6 -46.4 27.1 -46.25 29.5 -46.25 29.35 -45.65 24.6 -45.5 M-163.0 -73.65 L-160.25 -76.15 -153.65 -73.65 -29.25 -56.0 -17.0 -54.4 -14.9 -54.0 -14.5 -53.5 -13.25 -53.75 -10.75 -53.4 -15.0 -53.4 -15.4 -52.25 -15.0 -52.25 -13.9 -52.4 -13.5 -53.0 -8.0 -53.0 -7.5 -53.0 -7.5 -52.25 -6.4 -52.25 -6.15 -52.75 -3.25 -52.4 -3.5 -51.25 -7.0 -51.15 -3.5 -50.9 -3.65 -50.65 -15.9 -51.65 -15.9 -51.25 -155.5 -70.9 -163.0 -73.65 M-14.5 -51.15 L-8.9 -50.75 -10.9 -50.5 -14.5 -51.15 M-9.25 -50.4 L-3.65 -50.25 -3.65 -49.65 -3.4 -49.5 -3.9 -49.65 -3.65 -49.65 -4.3 -49.65 -5.5 -49.75 -9.25 -50.4 M-9.9 -53.25 L-9.0 -53.15 -13.4 -53.15 -9.9 -53.25 M-8.15 -51.65 L-8.25 -51.4 -6.15 -51.4 -8.15 -51.65 M23.1 -48.65 L16.75 -48.9 17.0 -49.4 17.5 -49.5 19.5 -49.15 18.35 -49.0 20.5 -49.0 23.1 -48.65 M-20.5 -25.75 L-20.4 -25.4 -20.75 -25.15 -23.15 -22.9 -23.15 -22.75 -23.5 -22.65 -24.5 -21.9 -23.9 -24.15 -23.25 -24.4 -20.5 -25.75" fill="#272727" fill-rule="evenodd" stroke="none"/>
    <path d="M-26.15 -24.75 L-27.25 -32.25 -27.9 -34.15 -28.4 -38.25 -27.75 -42.25 Q-26.25 -44.9 -24.25 -45.5 L-21.0 -46.15 Q-18.9 -46.25 -16.9 -44.65 L-14.75 -36.0 -15.25 -34.65 -14.15 -30.15 -13.0 -28.4 -13.5 -26.65 -14.4 -27.0 -15.0 -27.4 -17.65 -27.75 -19.9 -27.25 -22.15 -26.15 -23.9 -24.15 -24.5 -21.9 -24.0 -19.75 -23.15 -18.25 -24.25 -19.25 -24.65 -19.75 -25.5 -21.4 -25.65 -23.75 -26.0 -24.0 -26.15 -24.75 M16.25 43.35 L10.35 43.5 11.0 24.6 11.6 24.6 11.75 24.1 11.75 23.6 11.1 23.85 11.1 21.85 11.5 21.75 11.75 22.1 11.85 21.5 14.6 21.25 15.35 24.85 19.25 43.25 16.25 43.35" fill="#4e4e4e" fill-rule="evenodd" stroke="none"/>
    <path d="M19.0 -43.5 L19.5 -43.5 18.0 -27.75 17.5 -27.9 19.0 -43.5 M-14.9 -46.0 L-15.65 -43.4 -12.65 -30.15 -10.15 -22.75 -13.4 -18.25 -13.5 -16.4 -14.9 -10.9 -15.5 -11.9 -15.9 -13.9 -16.9 -14.9 -17.25 -16.25 -16.5 -16.5 -16.75 -17.4 -15.75 -17.9 -15.0 -19.15 -15.4 -20.65 -16.15 -23.75 -17.25 -26.25 -17.25 -26.75 -17.25 -27.0 -17.15 -27.15 -15.5 -27.4 -14.4 -27.0 -13.5 -26.65 -13.0 -28.4 -14.15 -30.15 -15.25 -34.65 -14.75 -36.0 -16.9 -44.65 -14.9 -46.0 M-3.4 -33.9 L-2.9 -42.25 -2.4 -42.25 -2.9 -35.0 -3.4 -33.9" fill="#090909" fill-rule="evenodd" stroke="none"/>
    <path d="M19.25 -44.75 L28.6 -43.5 28.75 -43.4 29.6 -41.9 29.6 -41.75 31.0 -39.5 36.25 -26.15 Q37.1 -23.0 35.85 -22.0 L35.75 -22.5 35.6 -24.65 34.25 -26.5 32.1 -27.65 29.75 -28.0 27.85 -27.65 27.6 -27.65 27.5 -27.5 27.1 -27.4 26.1 -27.0 25.5 -28.15 25.25 -28.9 25.5 -31.0 24.35 -34.4 22.1 -36.75 22.1 -37.0 21.85 -37.4 21.5 -38.75 21.35 -38.9 21.25 -39.25 21.1 -39.5 21.0 -39.9 20.85 -40.25 20.75 -40.65 20.35 -41.65 20.25 -42.0 20.25 -42.15 19.5 -43.5 19.35 -43.75 19.25 -44.15 19.25 -44.75 M1.6 -45.65 L1.6 -45.4 -2.5 -35.5 -2.9 -35.0 -2.4 -42.25 -2.9 -42.25 -3.4 -33.9 -3.5 -33.5 -3.5 -33.25 -5.65 -28.25 -7.75 -23.15 -10.15 -22.75 -12.65 -30.15 -15.65 -43.4 -14.9 -46.0 -14.75 -46.4 -13.75 -49.4 -5.65 -48.25 -6.25 -37.9 -5.75 -38.25 -5.15 -48.15 -5.0 -48.15 -3.75 -48.0 -3.4 -47.4 Q-0.65 -47.25 1.5 -45.9 L1.6 -45.75 1.6 -45.65 M6.25 -31.15 L8.0 -24.5 0.75 -24.15 3.6 -31.4 6.25 -31.15" fill="#707070" fill-rule="evenodd" stroke="none"/>
    <path d="M-2.75 -55.4 L1.85 -55.15 4.5 -54.9 4.25 -54.4 0.25 -53.75 -1.25 -53.9 -2.75 -55.4 M-20.5 -24.4 L-20.4 -23.4 -22.9 -21.0 -20.75 -24.15 -20.5 -24.4" fill="#444444" fill-rule="evenodd" stroke="none"/>
    <path d="M-3.65 -50.25 L-3.65 -50.65 -3.5 -50.9 -3.5 -51.25 -3.25 -52.4 -3.15 -53.0 -2.75 -53.9 -1.25 -53.9 0.25 -53.75 4.25 -54.4 4.6 -52.9 Q0.5 -48.75 1.75 -46.65 L1.5 -45.9 Q-0.65 -47.25 -3.4 -47.4 L-3.75 -48.0 -0.75 -47.65 -1.25 -48.5 -2.5 -49.15 -2.15 -49.4 -2.65 -49.4 -3.0 -49.5 -3.4 -49.5 -3.65 -49.65 -3.65 -50.25" fill="#191919" fill-rule="evenodd" stroke="none"/>
    <path d="M4.6 -52.9 L4.85 -52.5 6.75 -52.0 9.0 -51.75 10.25 -47.5 9.75 -45.4 9.1 -44.65 8.6 -44.25 8.75 -45.65 8.5 -45.15 8.5 -45.0 8.1 -45.0 Q5.5 -50.25 1.75 -46.65 0.5 -48.75 4.6 -52.9" fill="#202020" fill-rule="evenodd" stroke="none"/>
    <path d="M16.0 -45.25 L16.1 -45.25 16.0 -44.65 16.0 -45.25 M16.5 -48.25 L16.5 -47.65 16.1 -47.25 16.1 -48.4 17.0 -51.0 17.0 -49.4 16.75 -48.9 16.6 -48.4 16.5 -48.25" fill="#333333" fill-rule="evenodd" stroke="none"/>
    <path d="M45.25 26.0 L44.75 30.35 44.0 27.75 42.6 30.5 43.1 25.85 44.1 27.25 43.6 24.5 43.25 23.1 43.5 22.75 45.25 26.0 M16.1 -51.4 L15.5 -51.5 15.75 -52.5 16.1 -52.4 16.1 -51.4 M15.0 -44.65 L15.5 -44.65 14.85 -37.9 Q14.0 -38.65 15.0 -44.65 M-5.15 -48.15 L-5.75 -38.25 -6.25 -37.9 -5.65 -48.25 -5.15 -48.15 M27.5 63.85 L18.1 64.35 18.25 61.0 27.5 63.85" fill="#0a0a0a" fill-rule="evenodd" stroke="none"/>
    <path d="M16.1 -45.25 L18.75 -44.75 19.25 -44.15 19.35 -43.75 19.0 -43.5 17.5 -27.9 18.0 -27.75 19.5 -43.5 20.25 -42.15 20.25 -42.0 20.35 -41.65 20.75 -40.65 20.85 -40.25 21.0 -39.9 21.1 -39.5 21.25 -39.25 21.35 -38.9 21.5 -38.75 21.85 -37.4 22.1 -37.0 22.1 -36.75 24.75 -29.0 25.85 -23.0 17.1 -24.15 8.0 -24.5 6.25 -31.15 8.35 -31.25 9.5 -31.75 10.35 -32.75 11.0 -41.75 11.35 -42.65 11.25 -44.4 13.0 -44.75 15.0 -44.65 Q14.0 -38.65 14.85 -37.9 L15.5 -44.65 16.0 -44.65 16.1 -45.25" fill="#bebebe" fill-rule="evenodd" stroke="none"/>
    <path d="M8.6 -44.25 L9.1 -44.65 11.25 -44.4 11.35 -42.65 11.0 -41.75 10.35 -32.75 9.5 -31.75 8.35 -31.25 6.25 -31.15 3.6 -31.4 8.6 -44.25" fill="#111111" fill-rule="evenodd" stroke="none"/>
    <path d="M18.75 -44.75 L19.25 -44.75 19.25 -44.15 18.75 -44.75" fill="#4c4c4c" fill-rule="evenodd" stroke="none"/>
    <path d="M19.5 -43.5 L19.0 -43.5 19.35 -43.75 19.5 -43.5" fill="#7f7f7f" fill-rule="evenodd" stroke="none"/>
    <path d="M30.6 -16.9 L36.6 -6.0 31.75 -10.0 29.1 -10.5 28.6 -16.65 29.0 -16.65 30.6 -16.9 M22.1 -36.75 L24.35 -34.4 25.5 -31.0 25.25 -28.9 25.5 -28.15 26.1 -27.0 27.1 -27.4 27.5 -27.5 27.6 -27.65 27.85 -27.65 28.35 -27.5 28.35 -27.25 28.35 -20.75 28.25 -19.15 25.85 -23.0 24.75 -29.0 22.1 -36.75" fill="#a2a2a2" fill-rule="evenodd" stroke="none"/>
    <path d="M25.85 -23.0 L28.25 -19.15 28.35 -18.75 28.5 -18.15 28.6 -16.65 29.1 -10.5 29.25 1.0 Q28.1 2.75 27.85 6.0 L26.75 8.5 26.35 9.0 21.0 11.0 19.0 11.6 13.1 12.0 11.0 -7.4 11.25 -7.65 8.0 -24.5 17.1 -24.15 25.85 -23.0" fill="#727272" fill-rule="evenodd" stroke="none"/>
    <path d="M35.1 -20.25 L35.25 -20.15 33.5 -18.25 32.75 -19.4 32.35 -19.9 32.1 -21.0 32.1 -21.15 31.25 -23.65 35.1 -20.25 M-2.5 -35.5 L-3.5 -33.25 -3.5 -33.5 -3.4 -33.9 -2.9 -35.0 -2.5 -35.5 M-24.15 15.1 L-24.65 16.5 -24.5 16.0 -24.5 15.85 -24.15 15.1" fill="#0b0b0b" fill-rule="evenodd" stroke="none"/>
    <path d="M-7.75 -23.15 L-10.65 -16.25 -10.75 -16.15 -11.25 -14.9 -11.4 -14.65 -13.25 -10.15 -14.0 -8.65 -14.65 -10.0 -14.9 -10.9 -13.5 -16.4 -13.4 -18.25 -10.15 -22.75 -7.75 -23.15 M0.75 -24.15 L8.0 -24.5 11.25 -7.65 11.0 -7.4 13.1 12.0 7.1 11.75 4.75 11.1 -1.75 9.35 -2.5 8.85 -9.15 0.6 0.75 -24.15" fill="#212121" fill-rule="evenodd" stroke="none"/>
    <path d="M35.85 -22.0 L35.85 -21.9 35.1 -20.25 31.25 -23.65 30.85 -24.5 30.35 -26.15 30.35 -26.25 30.0 -26.75 29.75 -27.0 29.35 -27.4 28.35 -27.5 27.85 -27.65 29.75 -28.0 32.1 -27.65 34.25 -26.5 35.6 -24.65 35.75 -22.5 35.85 -22.0 M-14.4 -27.0 L-15.5 -27.4 -17.15 -27.15 -17.25 -27.0 -17.25 -26.75 -17.4 -27.0 -18.25 -27.25 -18.75 -27.15 -19.15 -27.15 -19.25 -26.9 -19.9 -26.75 -20.0 -26.5 -22.15 -26.15 -19.9 -27.25 -17.65 -27.75 -15.0 -27.4 -14.4 -27.0" fill="#080808" fill-rule="evenodd" stroke="none"/>
    <path d="M28.35 -27.25 L28.35 -27.5 29.35 -27.4 29.75 -27.0 28.35 -27.25 M30.0 -26.75 L30.35 -26.25 30.35 -26.15 30.0 -26.75 M-19.25 -26.9 L-19.15 -27.15 -18.75 -27.15 -18.25 -27.25 -17.4 -27.0 -17.25 -26.75 -19.25 -26.9" fill="#141414" fill-rule="evenodd" stroke="none"/>
    <path d="M28.35 -27.25 L29.75 -27.0 30.0 -26.75 30.35 -26.15 30.85 -24.5 31.25 -23.65 32.1 -21.15 31.6 -21.5 31.1 -21.75 29.85 -21.75 29.5 -21.65 29.35 -21.5 28.6 -21.0 28.35 -20.75 28.35 -27.25" fill="#4b4b4b" fill-rule="evenodd" stroke="none"/>
    <path d="M28.25 -19.15 L28.35 -20.75 28.6 -21.0 29.35 -21.5 29.5 -21.65 29.85 -21.75 31.1 -21.75 31.6 -21.5 32.1 -21.15 32.1 -21.0 32.35 -19.9 32.35 -19.5 31.85 -18.4 31.0 -17.9 29.5 -17.9 28.75 -18.4 28.6 -18.4 28.35 -18.75 28.25 -19.15 M-15.4 -20.65 L-15.0 -19.15 -15.75 -17.9 -16.75 -17.4 -18.15 -17.5 -19.15 -18.4 -19.5 -19.4 -19.5 -19.75 -19.0 -20.75 -18.0 -21.4 -17.65 -21.4 -17.4 -21.5 -17.0 -21.5 -16.4 -21.4 -15.4 -20.65" fill="#161616" fill-rule="evenodd" stroke="none"/>
    <path d="M-29.0 1.1 L-29.65 -8.9 Q-28.75 -22.65 -26.5 -23.65 L-26.0 -24.0 -25.65 -23.75 -25.5 -21.4 -24.65 -19.75 -24.25 -19.25 -23.15 -18.25 -22.65 -17.9 -22.5 -17.65 Q-25.15 -16.65 -27.5 -1.25 L-27.25 5.0 -29.0 1.1" fill="#3f3f3f" fill-rule="evenodd" stroke="none"/>
    <path d="M-20.75 -25.15 L-20.5 -24.4 -20.75 -24.15 -22.9 -21.0 -24.0 -19.75 -24.5 -21.9 -23.5 -22.65 -23.15 -22.75 -23.15 -22.9 -20.75 -25.15 M17.75 55.0 L8.35 55.25 8.0 54.25 8.1 52.85 17.6 52.6 17.75 55.0" fill="#363636" fill-rule="evenodd" stroke="none"/>
    <path d="M-14.0 -8.65 L-14.0 -8.5 -16.4 -3.15 -17.75 -9.65 -14.65 -10.0 -14.0 -8.65 M-20.4 -23.4 L-20.25 -23.0 -22.65 -17.9 -23.15 -18.25 -24.0 -19.75 -22.9 -21.0 -20.4 -23.4 M-12.25 8.6 L-9.15 0.6 -2.5 8.85 -12.25 8.6" fill="#434343" fill-rule="evenodd" stroke="none"/>
    <path d="M-2.5 8.85 L-1.75 9.35 4.75 11.1 5.85 15.6 13.85 15.5 14.25 15.5 15.0 21.25 14.6 21.25 11.85 21.5 7.35 21.75 5.85 21.75 3.25 21.75 -2.25 21.5 -8.75 18.75 -11.75 15.35 -13.25 11.1 -12.25 8.6 -2.5 8.85" fill="#343434" fill-rule="evenodd" stroke="none"/>
    <path d="M-17.5 57.5 L-20.15 54.75 -22.0 51.85 -23.25 43.25 -23.0 35.35 -20.25 28.6 -20.5 33.25 -19.15 37.1 -18.9 37.35 -16.4 41.1 -17.0 53.35 -17.5 57.5 M-15.75 25.1 L-16.4 22.75 -16.75 22.5 -18.4 25.0 -19.0 25.5 -13.25 11.1 -11.75 15.35 -8.75 18.75 -12.0 23.6 -12.5 25.1 -14.0 28.75 Q-14.75 28.6 -15.75 25.1 M0.0 40.6 L7.35 21.75 11.85 21.5 11.75 22.1 11.5 21.75 11.1 21.85 11.1 23.85 11.75 23.6 11.75 24.1 11.6 24.6 11.0 24.6 10.35 43.5 8.5 43.5 0.0 40.6" fill="#0e0e0e" fill-rule="evenodd" stroke="none"/>
    <path d="M-26.9 21.6 L-28.65 11.5 -29.0 1.1 -27.25 5.0 -27.25 5.25 -27.15 5.85 -25.4 6.0 -25.65 8.25 -26.0 8.75 -25.75 10.25 -26.15 13.35 -26.15 19.85 -26.25 20.5 -26.4 20.6 -26.9 21.6 M-22.65 11.6 L-22.9 12.35 -24.15 15.1 -24.15 13.25 -22.9 6.0 -21.75 6.25 -22.65 11.6 M-25.5 10.35 L-24.65 6.0 -23.5 6.0 -24.9 13.25 -25.5 10.35 M-18.4 25.0 L-16.75 22.5 -16.4 22.75 -15.75 25.1 -18.4 25.0 M-12.5 25.1 L-12.0 23.6 -8.75 18.75 -2.25 21.5 3.25 21.75 4.25 24.85 1.75 25.25 -12.5 25.1" fill="#767676" fill-rule="evenodd" stroke="none"/>
    <path d="M-20.25 -23.0 L-20.15 -22.0 -19.65 -21.0 -19.75 -20.25 -20.0 -18.75 -20.75 -16.65 -22.5 -17.65 -22.65 -17.9 -20.25 -23.0" fill="#a5a5a5" fill-rule="evenodd" stroke="none"/>
    <path d="M-19.75 -20.25 L-19.5 -19.75 -19.5 -19.4 -20.0 -18.75 -19.75 -20.25" fill="#a1a1a1" fill-rule="evenodd" stroke="none"/>
    <path d="M31.35 -17.0 L30.6 -16.9 29.0 -16.65 28.75 -17.5 28.6 -18.4 28.75 -18.4 29.5 -17.9 31.0 -17.9 31.35 -17.0" fill="#3a3a3a" fill-rule="evenodd" stroke="none"/>
    <path d="M28.5 -18.15 L28.35 -18.75 28.6 -18.4 28.75 -17.5 28.5 -18.15" fill="#bfbfbf" fill-rule="evenodd" stroke="none"/>
    <path d="M-19.5 -19.4 L-19.15 -18.4 -18.15 -17.5 -18.0 -16.25 -20.75 -16.65 -20.0 -18.75 -19.5 -19.4" fill="#a3a3a3" fill-rule="evenodd" stroke="none"/>
    <path d="M28.6 -16.65 L28.5 -18.15 28.75 -17.5 29.0 -16.65 28.6 -16.65" fill="#c0c0c0" fill-rule="evenodd" stroke="none"/>
    <path d="M-22.5 -17.65 L-20.75 -16.65 -23.5 -5.5 -23.65 -4.4 -25.4 6.0 -27.15 5.85 -27.25 5.25 -27.25 5.0 -27.5 -1.25 Q-25.15 -16.65 -22.5 -17.65 M-23.25 -2.15 L-22.65 1.25 -23.5 6.0 -24.65 6.0 -24.5 3.75 -23.25 -2.15 M-22.25 3.5 L-21.75 6.25 -22.9 6.0 -22.25 3.5" fill="#969696" fill-rule="evenodd" stroke="none"/>
    <path d="M-16.75 -17.4 L-16.5 -16.5 -17.25 -16.25 -18.0 -16.25 -18.15 -17.5 -16.75 -17.4" fill="#313131" fill-rule="evenodd" stroke="none"/>
    <path d="M-23.25 43.25 L-24.25 38.5 -23.0 35.35 -23.25 43.25 M-16.4 -3.15 L-16.4 -2.9 -16.75 -1.9 -16.9 -1.65 -21.15 8.1 -21.75 6.25 -22.25 3.5 -22.65 1.25 -23.25 -2.15 -23.65 -4.4 -23.5 -5.5 -17.75 -9.65 -16.4 -3.15 M-24.65 16.5 L-26.15 19.85 -26.15 13.35 -25.75 10.25 -25.5 10.35 -24.9 13.25 -24.5 15.85 -24.5 16.0 -24.65 16.5" fill="#1b1b1b" fill-rule="evenodd" stroke="none"/>
    <path d="M26.75 8.5 L27.85 6.0 Q28.1 2.75 29.25 1.0 L29.1 -10.5 31.75 -10.0 38.0 7.85 26.75 8.5" fill="#979797" fill-rule="evenodd" stroke="none"/>
    <path d="M21.0 11.0 L26.35 9.0 26.75 8.5 38.0 7.85 38.85 14.75 37.75 18.0 34.6 19.5 32.85 20.35 31.0 21.0 24.25 21.5 15.0 21.25 14.25 15.5 22.35 15.35 21.0 11.0" fill="#515151" fill-rule="evenodd" stroke="none"/>
    <path d="M36.6 -6.0 L43.5 12.6 38.0 7.85 31.75 -10.0 36.6 -6.0" fill="#808080" fill-rule="evenodd" stroke="none"/>
    <path d="M13.1 12.0 L19.0 11.6 21.0 11.0 22.35 15.35 14.25 15.5 13.85 15.5 14.5 15.35 13.75 15.1 14.5 15.0 13.6 14.75 14.0 14.5 13.5 14.25 13.75 14.0 13.25 13.5 13.6 13.0 13.1 12.85 13.1 12.0" fill="#494949" fill-rule="evenodd" stroke="none"/>
    <path d="M43.5 12.6 L45.25 26.0 43.5 22.75 43.25 23.1 43.6 24.5 42.0 23.0 41.75 22.6 41.35 22.25 38.6 19.0 38.35 18.75 37.75 18.0 38.85 14.75 38.0 7.85 43.5 12.6" fill="#5f5f5f" fill-rule="evenodd" stroke="none"/>
    <path d="M5.85 21.75 L4.25 24.85 3.25 21.75 5.85 21.75 M15.0 21.25 L24.25 21.5 31.0 21.0 32.85 20.35 34.0 22.85 34.0 23.85 15.35 24.85 14.6 21.25 15.0 21.25" fill="#777777" fill-rule="evenodd" stroke="none"/>
    <path d="M42.0 23.0 L43.6 24.5 44.1 27.25 43.1 25.85 42.0 23.0" fill="#535353" fill-rule="evenodd" stroke="none"/>
    <path d="M44.75 30.35 L45.25 33.6 40.1 36.5 42.6 30.5 44.0 27.75 44.75 30.35" fill="#0d120d" fill-rule="evenodd" stroke="none"/>
    <path d="M15.35 24.85 L34.0 23.85 36.75 30.35 36.6 30.85 38.75 36.85 23.85 43.25 19.25 43.25 15.35 24.85" fill="#565656" fill-rule="evenodd" stroke="none"/>
    <path d="M18.25 61.0 L17.75 55.0 27.25 54.75 27.25 52.35 17.35 50.6 Q17.35 47.85 16.85 47.75 L17.1 46.6 16.75 46.35 16.85 45.35 16.5 45.35 16.85 45.25 16.5 45.1 16.25 43.35 19.25 43.25 23.85 43.25 38.75 36.85 40.1 36.5 36.5 39.85 Q38.5 45.75 37.5 47.0 L38.35 48.75 Q38.35 52.0 39.25 53.5 L38.5 56.1 38.35 59.75 27.5 63.85 18.25 61.0" fill="#4d4d4d" fill-rule="evenodd" stroke="none"/>
    <path d="M-9.5 37.35 L-9.25 37.6 -6.15 41.1 -5.65 45.75 -4.9 48.1 -16.4 41.1 -16.0 35.0 -9.5 37.35 M8.75 64.5 L18.25 61.0 18.1 64.35 17.75 64.35 8.75 64.5" fill="#070707" fill-rule="evenodd" stroke="none"/>
    <path d="M-16.0 35.0 L-14.4 29.1 -14.0 29.0 -9.5 37.35 -16.0 35.0" fill="#040604" fill-rule="evenodd" stroke="none"/>
    <path d="M-13.25 60.0 L-17.5 57.5 -17.0 53.35 -13.25 60.0" fill="#222222" fill-rule="evenodd" stroke="none"/>
    <path d="M38.25 62.6 L28.1 67.35 27.5 63.85 38.35 59.75 38.25 62.6" fill="#0c0c0c" fill-rule="evenodd" stroke="none"/>
    <path d="M8.1 52.85 L17.35 50.6 17.6 52.6 8.1 52.85" fill="#414141" fill-rule="evenodd" stroke="none"/>
    <path d="M27.25 52.35 L17.6 52.6 17.35 50.6 27.25 52.35" fill="#636363" fill-rule="evenodd" stroke="none"/>
    <path d="M27.25 52.35 L27.25 54.75 17.75 55.0 17.6 52.6 27.25 52.35" fill="#6d6d6d" fill-rule="evenodd" stroke="none"/>
    <path d="M28.1 67.35 L17.1 67.75 17.35 67.1 18.1 67.1 17.25 67.0 17.35 66.25 18.25 66.25 17.5 66.1 17.75 64.35 18.1 64.35 27.5 63.85 28.1 67.35" fill="#040404" fill-rule="evenodd" stroke="none"/>
    <path d="M-14.25 28.5 L-14.25 29.0 -16.0 35.0 -16.25 39.85 -16.4 41.0 -18.9 37.35 -19.15 37.1 -20.25 33.85 -20.4 33.85 -20.5 33.25 -20.25 29.25 -20.4 28.75 -20.4 28.6 -20.25 28.25 -20.15 28.1 -19.9 27.85 -20.0 27.6 -19.9 27.35 -19.5 26.85 -19.65 26.6 -19.5 26.35 -19.4 26.0 -19.25 25.75 -19.0 25.6 -18.65 24.85 -16.65 22.25 -15.5 26.0 -14.5 28.35 -14.25 28.5 M-22.75 0.75 L-22.65 1.25 -23.15 3.35 -23.25 4.75 -23.65 6.85 -23.75 8.35 -24.25 10.75 -24.4 11.0 -24.4 11.75 -24.9 13.25 -25.0 14.0 -25.5 10.75 -25.5 10.35 -25.65 10.25 -25.25 7.85 -25.0 7.25 -25.0 6.25 -24.75 6.0 -24.65 4.25 -24.5 3.85 -24.5 3.0 -24.15 0.85 -23.9 0.5 -23.9 -0.75 -23.4 -2.65 -22.75 -0.25 -22.75 0.75 M-22.9 5.0 L-22.4 3.0 -21.75 6.25 -22.65 10.85 -22.65 11.6 -24.0 15.35 -24.4 15.1 -24.25 13.6 -24.0 13.0 -24.0 12.0 -23.75 11.25 -23.65 10.75 -23.65 10.1 -23.5 9.6 -23.5 8.75 -23.15 7.1 -23.15 6.5 -22.9 6.0 -22.9 5.0 M-24.65 15.75 L-24.4 15.25 -24.5 15.85 -24.5 16.0 -24.65 16.5 -24.65 15.75" fill="#000000" fill-opacity="0.50980395" fill-rule="evenodd" stroke="none"/>
    <path d="M15.65 35.7 L15.5 33.35 15.35 33.1 15.75 33.1 15.6 26.75 15.0 21.25 22.5 21.6 31.75 20.85 32.85 20.35 34.0 22.85 34.6 19.5 37.75 18.0 37.85 18.0 38.5 19.0 38.75 19.1 40.0 20.6 40.25 20.85 40.6 21.35 41.0 21.75 41.0 22.0 41.35 22.35 41.5 22.6 41.75 22.6 42.0 23.0 43.1 25.85 43.5 26.6 44.0 27.25 44.0 27.85 43.5 28.5 42.6 30.5 42.35 31.6 40.75 35.35 40.1 36.5 39.5 36.75 39.1 36.85 35.85 38.25 35.25 38.35 35.0 38.6 30.1 40.6 29.85 40.75 29.25 41.0 28.85 41.1 28.6 41.25 28.0 41.5 27.6 41.6 26.75 42.0 25.6 42.35 25.35 42.6 23.85 43.25 16.5 43.35 15.65 35.7" fill="#141414" fill-opacity="0.50980395" fill-rule="evenodd" stroke="none"/>
    <path d="M32.85 20.35 L34.6 19.5 34.0 22.85 32.85 20.35" fill="#282828" fill-opacity="0.50980395" fill-rule="evenodd" stroke="none"/>
    <path d="M15.35 33.1 L14.75 22.25 14.6 22.1 14.5 21.25 15.0 21.25 15.6 26.75 15.75 33.1 15.35 33.1" fill="#121212" fill-rule="evenodd" stroke="none"/>
    <path d="M-14.25 28.5 L-12.15 23.85 -12.25 23.85 -11.9 23.6 -9.65 20.1 -9.0 18.85 -8.75 18.75 -1.9 21.5 5.85 21.75 6.6 21.85 6.6 21.75 14.5 21.25 14.6 22.1 14.75 22.25 15.35 33.1 15.5 33.35 15.65 35.7 16.1 43.35 8.75 43.5 8.25 43.35 8.0 43.35 -3.0 39.6 -3.4 39.5 -9.4 37.5 -9.65 37.35 -9.65 37.25 -14.15 29.0 -14.25 29.0 -14.25 28.5" fill="#090909" fill-opacity="0.50980395" fill-rule="evenodd" stroke="none"/>
    <path d="M44.0 27.25 L44.0 26.35 43.35 22.75 45.1 25.6 45.1 26.5 44.6 29.25 44.0 27.85 44.0 27.25" fill="#050505" fill-opacity="0.50980395" fill-rule="evenodd" stroke="none"/>
    <path d="M45.1 26.5 L45.75 29.35 45.25 32.6 44.6 29.75 44.6 29.25 45.1 26.5" fill="#050505" fill-rule="evenodd" stroke="none"/>
    <path d="M16.1 43.35 L15.65 35.7 16.5 43.35 16.1 43.35" fill="#181818" fill-rule="evenodd" stroke="none"/>
  </g>
</svg>
