<?xml version="1.0" encoding="UTF-8" standalone="no"?>
<svg xmlns:xlink="http://www.w3.org/1999/xlink" height="215.75px" width="335.85px" xmlns="http://www.w3.org/2000/svg">
  <g transform="matrix(1.0, 0.0, 0.0, 1.0, 180.5, 138.9)">
    <path d="M28.25 -44.75 L145.75 -63.75 155.35 -63.4 154.85 -62.0 144.35 -62.25 31.75 -43.9 24.0 -42.65 Q30.0 -41.15 30.0 -36.75 28.0 -43.65 19.5 -39.75 L18.75 -40.15 17.75 -41.5 17.1 -41.4 15.35 -41.25 17.6 -42.4 17.6 -43.0 25.75 -44.25 26.6 -44.5 27.5 -44.65 28.25 -44.75 M25.5 -47.75 L25.5 -47.65 25.35 -47.65 25.5 -47.75 M-4.75 -135.4 L-16.9 -125.5 -17.25 -125.25 -18.0 -124.65 -19.4 -123.75 -19.25 -124.25 -19.75 -125.0 -20.25 -124.75 -20.4 -125.15 -20.0 -126.4 -19.25 -126.9 -19.15 -127.15 -17.65 -127.9 -13.5 -132.0 -5.25 -138.65 -6.0 -136.4 -4.75 -135.4 M-23.9 -125.0 L-22.9 -127.0 -23.15 -128.4 -21.4 -132.65 -21.0 -133.4 -18.0 -135.75 -21.9 -126.75 -21.9 -126.65 -22.0 -126.4 -22.25 -126.15 -23.9 -125.0 M-29.25 -119.25 L-29.0 -119.4 -29.15 -118.75 -29.65 -117.75 -30.15 -117.25 -30.65 -117.0 -30.65 -116.9 -30.75 -115.9 -30.15 -115.5 -34.9 -111.0 -42.0 -105.25 -42.65 -105.0 -43.65 -106.0 -43.4 -106.5 -42.65 -108.4 -29.75 -118.5 -29.25 -119.25 M-28.25 -116.5 L-27.65 -117.75 -25.75 -119.0 Q-27.5 -116.65 -26.4 -115.75 L-28.9 -109.75 -27.75 -108.75 -31.0 -106.0 -32.25 -107.0 -32.0 -107.5 -28.9 -115.0 -28.25 -116.5 M-28.75 -76.5 L-31.15 -79.0 -37.15 -85.4 -37.5 -85.75 -55.75 -105.4 -55.75 -106.5 -55.25 -106.4 -40.65 -90.75 -40.65 -90.4 -35.15 -84.9 -35.0 -84.4 -34.4 -84.15 -12.65 -60.5 0.0 -47.4 0.0 -47.0 0.6 -45.65 0.1 -45.5 -0.5 -46.15 -5.4 -51.5 -5.5 -51.5 -6.4 -52.5 -14.75 -61.4 -15.15 -61.9 -16.5 -63.25 -16.65 -63.5 -19.0 -66.0 -19.15 -66.0 -19.75 -66.75 -21.25 -68.25 -21.4 -68.5 -21.9 -69.0 -22.0 -69.25 -28.75 -76.5 M110.75 67.0 L110.35 68.75 Q103.85 71.0 103.0 70.25 100.25 60.35 98.6 59.85 L32.1 -11.25 31.6 -11.65 31.1 -11.4 30.0 -11.4 29.0 -11.9 28.85 -11.9 28.5 -12.4 28.75 -14.65 25.85 -17.75 18.75 -25.4 18.35 -26.0 14.25 -30.5 13.75 -30.9 11.5 -33.25 11.35 -33.25 11.0 -33.9 9.75 -35.15 9.5 -35.5 9.35 -35.65 8.6 -36.5 8.6 -37.15 8.85 -37.75 13.75 -32.65 14.6 -31.5 100.25 59.5 103.5 68.85 110.75 67.0 M-30.9 -33.65 L-165.9 -11.65 -179.0 -12.0 -179.25 -12.75 -179.25 -12.9 -180.4 -16.4 -179.15 -13.65 -167.15 -13.25 -12.15 -38.25 -11.5 -38.25 -1.25 -40.0 -0.5 -40.15 1.0 -40.4 0.6 -40.0 1.75 -39.75 2.35 -39.15 -1.15 -38.5 -1.75 -38.4 -5.15 -37.9 -5.65 -37.75 -14.9 -36.25 -15.75 -36.15 -28.5 -34.0 -30.9 -33.65 M-26.9 -39.4 L-25.9 -40.75 -22.9 -42.4 -19.5 -43.0 Q-16.0 -42.75 -14.65 -41.65 L-14.5 -41.5 -14.65 -41.25 -18.5 -40.75 Q-20.75 -42.0 -23.65 -41.0 L-26.0 -39.5 -26.9 -39.4" fill="#000000" fill-rule="evenodd" stroke="none"/>
    <path d="M-5.25 -138.65 L-4.9 -138.9 -3.75 -137.75 -4.75 -135.4 -6.0 -136.4 -5.25 -138.65" fill="#818181" fill-rule="evenodd" stroke="none"/>
    <path d="M-18.0 -135.75 L-17.65 -136.0 -16.65 -134.75 -19.75 -127.65 -21.9 -126.75 -18.0 -135.75" fill="#868686" fill-rule="evenodd" stroke="none"/>
    <path d="M-19.75 -127.65 L-19.15 -127.15 -19.25 -126.9 -20.0 -126.4 -20.4 -125.15 -20.25 -124.75 -22.4 -121.65 -25.5 -118.75 -25.5 -119.25 -25.75 -119.0 -27.65 -117.75 -28.25 -116.5 -30.15 -115.5 -30.75 -115.9 -30.65 -116.9 -30.65 -117.0 -30.15 -117.25 -29.65 -117.75 -29.15 -118.75 -29.0 -119.4 -29.25 -119.25 -27.9 -121.15 -23.9 -125.0 -22.25 -126.15 -22.0 -126.4 -21.9 -126.65 -21.9 -126.75 -19.75 -127.65 M16.85 76.6 L6.5 76.85 -5.15 72.5 -4.9 69.75 8.1 73.5 8.5 73.5 17.35 73.35 17.0 76.0 17.6 76.1 16.85 76.1 16.85 76.6 M-3.25 -43.15 L-3.15 -44.0 -2.25 -44.65 -1.15 -43.65 -0.65 -42.15 -0.65 -40.4 -2.0 -41.75 -2.25 -42.25 -2.5 -42.4 -2.9 -42.9 -3.25 -43.15 M-1.15 -38.5 L-1.4 -38.15 -1.75 -38.4 -1.15 -38.5 M-23.65 1.85 L-23.25 4.35 -24.0 6.75 -24.4 10.1 -25.15 13.25 -25.4 16.6 -25.9 16.35 -26.0 14.0 Q-25.15 12.1 -25.25 10.1 L-23.65 1.85 M-22.65 8.0 L-22.25 10.35 -23.0 12.75 -23.0 14.25 -24.65 22.25 -25.0 19.75 -23.15 10.1 -22.65 8.0 M-21.75 13.25 L-21.15 16.6 -21.75 18.5 -23.25 28.6 -23.75 29.0 -24.15 25.0 -21.75 13.25" fill="#020202" fill-rule="evenodd" stroke="none"/>
    <path d="M-30.15 -115.5 L-28.25 -116.5 -28.9 -115.0 -30.15 -115.5 M-25.5 -118.75 L-22.4 -121.65 -20.25 -124.75 -19.75 -125.0 -19.25 -124.25 -19.4 -123.75 -18.0 -124.65 -17.75 -123.75 Q-17.15 -123.5 -16.4 -119.15 L-16.5 -116.25 -17.25 -114.75 -20.0 -112.4 -20.4 -112.15 -21.9 -112.15 -25.5 -113.65 -25.15 -114.5 -25.5 -116.0 -24.65 -117.5 -25.5 -118.15 -25.75 -118.4 -25.5 -118.75" fill="#202020" fill-rule="evenodd" stroke="none"/>
    <path d="M-18.0 -124.65 L-17.25 -125.25 -16.75 -123.4 -17.75 -123.75 -18.0 -124.65" fill="#5b5b5b" fill-rule="evenodd" stroke="none"/>
    <path d="M-16.9 -125.5 L-13.75 -125.9 -13.5 -125.75 -13.25 -125.25 -13.65 -125.25 -13.4 -124.65 -14.4 -124.0 -16.25 -122.9 -16.75 -123.4 -17.25 -125.25 -16.9 -125.5" fill="#323232" fill-rule="evenodd" stroke="none"/>
    <path d="M-13.25 -125.25 L-13.0 -124.9 -13.4 -124.65 -13.65 -125.25 -13.25 -125.25 M-14.0 16.5 L-2.4 16.75 4.85 19.25 6.0 24.0 14.0 23.85 14.35 24.5 14.75 29.75 10.85 30.1 6.75 30.35 5.0 30.35 3.75 30.25 -2.15 30.0 -8.75 27.25 -11.65 23.6 -14.0 16.5" fill="#303030" fill-rule="evenodd" stroke="none"/>
    <path d="M-13.0 -124.9 L-12.9 -123.9 Q-14.75 -117.5 -12.65 -116.4 L-12.0 -85.65 -11.0 -78.75 -10.75 -77.0 -10.75 -76.4 -10.65 -75.4 -10.4 -72.4 -11.15 -74.5 -14.25 -74.5 -14.4 -76.25 -14.9 -77.15 -14.9 -80.25 -14.25 -80.0 -14.25 -80.65 -14.4 -81.0 -15.0 -80.9 -15.65 -89.9 -15.4 -105.65 -15.75 -122.65 -14.4 -124.0 -13.4 -124.65 -13.0 -124.9 M-14.75 -94.4 L-15.15 -94.5 -14.75 -83.0 -14.4 -82.9 -14.75 -94.4" fill="#5a5a5a" fill-rule="evenodd" stroke="none"/>
    <path d="M-25.75 -119.0 L-25.5 -119.25 -25.5 -118.75 -25.75 -118.4 -25.5 -118.15 -24.65 -117.5 -25.5 -116.0 -25.15 -114.5 -25.5 -113.65 -27.75 -108.75 -28.9 -109.75 -26.4 -115.75 Q-27.5 -116.65 -25.75 -119.0" fill="#8a8a8a" fill-rule="evenodd" stroke="none"/>
    <path d="M-8.9 -69.4 L-0.25 -57.0 2.5 -52.0 0.5 -53.75 -11.9 -67.0 -13.4 -70.65 -14.25 -74.5 -11.15 -74.5 -10.4 -72.4 -9.5 -70.0 -8.9 -69.4 M-15.75 -122.65 L-16.25 -122.9 -14.4 -124.0 -15.75 -122.65 M8.35 -17.75 L17.35 -17.4 26.1 -16.25 28.5 -12.4 28.6 -11.9 28.6 -10.5 29.25 -3.9 29.5 0.75 29.25 8.6 26.85 16.35 26.85 16.75 21.25 19.0 18.85 19.75 13.35 20.1 11.1 -2.15 8.35 -17.75" fill="#707070" fill-rule="evenodd" stroke="none"/>
    <path d="M-20.0 -112.4 L-17.25 -114.75 -16.5 -116.25 -16.4 -119.15 Q-17.15 -123.5 -17.75 -123.75 L-16.75 -123.4 -16.25 -122.9 -15.75 -122.65 -15.4 -105.65 -15.65 -89.9 -15.0 -80.9 -14.4 -81.0 -14.25 -80.65 -14.25 -80.0 -14.9 -80.25 -14.9 -77.15 -14.4 -76.25 -14.25 -74.5 -17.65 -74.65 -18.25 -73.5 -19.5 -74.9 -19.5 -80.25 -19.4 -81.75 -19.15 -83.9 -19.4 -86.0 -19.5 -99.15 -19.65 -99.65 -19.9 -111.5 -20.0 -112.15 -20.0 -112.4 M-14.75 -94.4 L-14.4 -82.9 -14.75 -83.0 -15.15 -94.5 -14.75 -94.4 M37.75 26.5 L41.75 31.1 42.6 33.75 42.85 34.1 42.5 34.85 Q43.0 35.5 41.85 40.5 L40.1 44.85 40.0 45.1 39.0 45.35 36.0 35.6 33.6 29.35 33.6 28.6 37.75 26.5" fill="#050505" fill-rule="evenodd" stroke="none"/>
    <path d="M-12.9 -123.9 L-12.75 -123.9 -11.4 -123.75 -10.75 -123.15 -10.0 -120.75 Q-10.0 -115.4 -12.65 -116.4 -14.75 -117.5 -12.9 -123.9 M-17.25 -10.25 L-16.9 -9.0 -15.9 -7.9 -14.75 -4.5 -14.5 -3.65 -17.75 -3.25 -23.5 0.75 -20.65 -10.65 -17.9 -10.25 -17.25 -10.25" fill="#2a2a2a" fill-rule="evenodd" stroke="none"/>
    <path d="M-20.4 -112.15 L-20.0 -112.4 -20.0 -112.15 -19.9 -111.5 -19.65 -99.65 -19.5 -99.15 -19.4 -86.0 -19.15 -83.9 -19.4 -81.75 -20.0 -82.5 -20.0 -85.5 -20.15 -85.9 -20.4 -112.15 M-19.5 -80.25 L-19.5 -74.9 -20.5 -76.0 -20.5 -76.5 -20.4 -77.25 -20.0 -77.5 -19.9 -78.9 -19.5 -80.25 M-21.9 -69.0 L-21.4 -68.5 -21.25 -68.25 -21.65 -67.15 -22.4 -66.5 -22.5 -67.0 -21.9 -69.0" fill="#101010" fill-rule="evenodd" stroke="none"/>
    <path d="M-19.4 -81.75 L-19.5 -80.25 -19.9 -78.9 -23.5 -79.0 -30.0 -85.75 -20.0 -85.5 -20.0 -82.5 -19.4 -81.75 M-37.15 -85.4 L-31.15 -79.0 -41.4 -79.15 -52.5 -79.9 -54.0 -79.9 -54.25 -80.5 -55.75 -81.15 -55.9 -83.25 -54.0 -83.4 -55.4 -83.9 -56.0 -83.65 -56.25 -84.0 -55.75 -84.0 -54.15 -84.25 -43.7 -85.2 -37.15 -85.4" fill="#3e3e3e" fill-rule="evenodd" stroke="none"/>
    <path d="M-37.5 -85.75 L-37.15 -85.4 -43.7 -85.2 -37.5 -85.75 M-30.0 -85.75 L-30.4 -86.15 -20.15 -85.9 -20.0 -85.5 -30.0 -85.75 M-20.4 -77.25 L-20.5 -76.5 -21.15 -76.5 -21.75 -77.15 -20.4 -77.25 M8.75 -36.15 L8.6 -36.5 9.35 -35.65 8.75 -36.15" fill="#393939" fill-rule="evenodd" stroke="none"/>
    <path d="M-19.5 -74.9 L-18.25 -73.5 -11.9 -67.0 0.5 -53.75 -3.0 -53.15 1.5 -49.5 0.35 -48.25 0.0 -47.4 -12.65 -60.5 -34.4 -84.15 -35.0 -84.4 -35.15 -84.9 -40.65 -90.4 -40.65 -90.75 -55.25 -106.4 -55.75 -106.5 -55.65 -110.15 -50.5 -110.65 -50.75 -107.25 -30.4 -86.15 -30.0 -85.75 -23.5 -79.0 -21.75 -77.15 -21.15 -76.5 -20.5 -76.0 -19.5 -74.9 M11.1 -38.25 L14.6 -39.0 15.25 -38.5 15.75 -38.15 19.1 -34.5 19.6 -34.0 19.85 -33.5 20.6 -32.75 18.25 -32.5 Q14.7 -35.35 11.1 -38.25" fill="#363636" fill-rule="evenodd" stroke="none"/>
    <path d="M-31.15 -79.0 L-28.75 -76.5 -41.15 -76.5 -52.65 -77.4 -53.25 -77.5 -53.5 -77.5 -56.4 -78.15 -57.5 -78.65 -57.75 -79.15 -56.15 -79.9 -52.75 -79.5 -52.5 -79.9 -41.4 -79.15 -31.15 -79.0 M-20.4 -77.25 L-21.75 -77.15 -23.5 -79.0 -19.9 -78.9 -20.0 -77.5 -20.4 -77.25" fill="#1c1c1c" fill-rule="evenodd" stroke="none"/>
    <path d="M0.6 -45.65 L0.0 -47.0 0.0 -47.4 0.35 -48.25 1.5 -49.5 3.85 -50.25 5.35 -49.75 5.75 -49.15 5.0 -47.65 0.6 -45.65" fill="#2d2d2d" fill-rule="evenodd" stroke="none"/>
    <path d="M-12.0 -85.65 L-8.4 -86.0 5.6 -84.9 15.75 -83.65 -7.65 -85.65 -12.0 -85.65 M-4.25 -76.25 L-10.75 -76.4 -10.75 -77.0 -4.25 -76.25 M2.5 -52.0 L3.1 -51.25 3.85 -50.25 1.5 -49.5 -3.0 -53.15 0.5 -53.75 2.5 -52.0 M36.5 -16.4 L106.75 57.0 107.85 58.85 110.75 67.0 103.5 68.85 100.25 59.5 14.6 -31.5 13.75 -32.65 8.85 -37.75 11.1 -38.25 Q14.7 -35.35 18.25 -32.5 L20.6 -32.75 22.1 -31.4 22.35 -31.15 22.5 -31.15 22.75 -30.65 31.5 -21.5 34.25 -18.75 34.35 -18.5 35.85 -17.0 36.5 -16.4" fill="#434343" fill-rule="evenodd" stroke="none"/>
    <path d="M3.1 -51.25 L6.75 -51.0 Q10.6 -50.5 11.5 -49.25 L10.35 -49.15 8.75 -50.0 7.25 -50.0 5.75 -49.15 5.35 -49.75 3.85 -50.25 3.1 -51.25 M43.25 20.1 L44.85 33.5 43.0 30.6 44.0 35.85 42.85 34.1 42.6 33.75 41.75 31.1 37.75 26.5 38.85 23.1 38.0 15.75 43.25 20.1" fill="#575757" fill-rule="evenodd" stroke="none"/>
    <path d="M-10.65 -75.4 L-8.9 -69.4 -9.5 -70.0 -10.4 -72.4 -10.65 -75.4 M-19.0 -21.0 L-19.0 -21.15 -18.75 -21.25 -18.25 -21.25 -17.25 -21.15 -17.25 -21.0 -19.0 -21.0" fill="#121212" fill-rule="evenodd" stroke="none"/>
    <path d="M21.0 -76.5 L10.35 -75.9 -4.25 -76.25 -10.75 -77.0 -11.0 -78.75 11.25 -78.5 19.75 -78.9 20.5 -78.65 22.5 -78.9 24.75 -78.0 23.1 -77.0 21.0 -76.5" fill="#2e2e2e" fill-rule="evenodd" stroke="none"/>
    <path d="M15.75 -83.65 L15.85 -83.65 18.85 -83.25 19.0 -83.25 21.5 -83.0 21.6 -82.65 20.0 -82.5 19.85 -82.25 22.0 -82.15 22.75 -80.25 21.6 -79.5 21.6 -79.0 19.75 -78.9 11.25 -78.5 -11.0 -78.75 -12.0 -85.65 -7.65 -85.65 15.75 -83.65" fill="#565656" fill-rule="evenodd" stroke="none"/>
    <path d="M-52.5 -79.9 L-52.75 -79.5 -56.15 -79.9 -57.75 -79.15 -57.5 -78.65 -56.4 -78.15 -53.5 -77.5 -56.65 -77.4 Q-57.4 -77.25 -59.15 -79.9 -58.4 -85.65 -54.15 -84.25 L-55.75 -84.0 -56.25 -84.0 -56.0 -83.65 -55.4 -83.9 -54.0 -83.4 -55.9 -83.25 -55.75 -81.15 -54.25 -80.5 -54.0 -79.9 -52.5 -79.9" fill="#191919" fill-rule="evenodd" stroke="none"/>
    <path d="M19.0 -83.25 Q21.6 -84.5 25.25 -80.0 26.1 -75.75 21.0 -76.5 L23.1 -77.0 24.75 -78.0 22.5 -78.9 20.5 -78.65 19.75 -78.9 21.6 -79.0 21.6 -79.5 22.75 -80.25 22.0 -82.15 19.85 -82.25 20.0 -82.5 21.6 -82.65 21.5 -83.0 19.0 -83.25" fill="#5c5c5c" fill-rule="evenodd" stroke="none"/>
    <path d="M-18.25 -73.5 L-17.65 -74.65 -14.25 -74.5 -13.4 -70.65 -11.9 -67.0 -18.25 -73.5 M-19.15 -66.0 L-19.0 -66.0 -16.65 -63.5 -16.5 -63.25 -15.15 -61.9 -14.75 -61.4 -6.4 -52.5 -9.25 -51.25 -15.4 -50.4 -15.65 -50.15 -15.9 -50.0 -17.4 -50.75 -17.75 -57.0 -19.15 -62.65 -19.15 -66.0 M45.0 42.1 L44.1 48.0 37.25 55.75 Q38.1 54.6 36.35 48.35 L40.0 45.1 40.1 44.85 45.0 42.1" fill="#292929" fill-rule="evenodd" stroke="none"/>
    <path d="M-22.4 -66.5 L-23.0 -64.75 -23.4 -64.65 -22.5 -67.0 -22.4 -66.5" fill="#232323" fill-rule="evenodd" stroke="none"/>
    <path d="M-21.25 -68.25 L-19.75 -66.75 -19.15 -66.0 -19.15 -62.65 -17.75 -57.0 -17.4 -50.75 -21.5 -52.75 -25.75 -52.5 -25.65 -55.65 -23.4 -64.65 -23.0 -64.75 -22.4 -66.5 -21.65 -67.15 -21.25 -68.25 M27.6 76.25 L16.85 76.6 16.85 76.1 17.6 76.1 17.0 76.0 17.35 73.35 17.75 73.35 27.25 73.0 27.6 76.25 M-5.15 72.5 L-7.15 71.85 Q-9.65 69.35 -13.15 68.6 L-13.65 67.85 -13.9 66.85 -14.65 66.25 -17.4 60.85 -16.5 49.25 -5.0 56.75 -5.4 64.0 -4.9 69.75 -5.15 72.5" fill="#030303" fill-rule="evenodd" stroke="none"/>
    <path d="M-25.75 -52.5 L-21.5 -52.75 -17.4 -50.75 -15.9 -50.0 -15.75 -49.9 -12.15 -49.4 -10.5 -48.65 -11.15 -48.0 -11.15 -46.75 -13.4 -46.25 -13.4 -45.9 -13.5 -45.0 -13.5 -44.15 -14.65 -41.65 Q-16.0 -42.75 -19.5 -43.0 L-22.9 -42.4 -25.9 -40.75 -26.9 -39.4 -33.5 -38.4 Q-35.15 -40.9 -35.75 -46.0 L-34.65 -50.9 -34.4 -51.25 -31.75 -52.0 -25.75 -52.5 M-13.65 67.85 L-17.75 65.1 -17.4 60.85 -14.65 66.25 -13.9 66.85 -13.65 67.85 M-27.9 -29.9 L-28.9 -30.5 -30.9 -33.65 -28.5 -34.0 -28.25 -33.5 -27.9 -29.9" fill="#242424" fill-rule="evenodd" stroke="none"/>
    <path d="M-6.4 -52.5 L-5.5 -51.5 -9.25 -51.25 -6.4 -52.5" fill="#2b2b2b" fill-rule="evenodd" stroke="none"/>
    <path d="M-5.5 -51.5 L-5.4 -51.5 -0.5 -46.15 -13.4 -45.9 -13.4 -46.25 -11.15 -46.75 -11.15 -48.0 -10.5 -48.65 -12.15 -49.4 -15.75 -49.9 -15.9 -50.0 -15.65 -50.15 -15.4 -50.4 -9.25 -51.25 -5.5 -51.5 M13.35 20.1 L18.85 19.75 21.25 19.0 22.5 23.75 14.0 23.85 13.75 23.1 14.25 22.85 13.75 22.75 13.35 21.85 13.35 21.5 14.0 21.5 13.25 21.25 13.85 21.0 13.1 20.75 13.75 20.5 13.0 20.1 13.35 20.1" fill="#404040" fill-rule="evenodd" stroke="none"/>
    <path d="M-0.5 -46.15 L0.1 -45.5 0.1 -45.4 -0.15 -45.25 -2.25 -44.65 -3.15 -44.0 -3.25 -43.15 -4.75 -42.9 -4.5 -45.4 -5.0 -45.4 -5.25 -42.75 -7.65 -42.4 -8.4 -42.25 -11.5 -41.75 -12.15 -41.75 -14.65 -41.25 -14.5 -41.5 -14.65 -41.65 -13.5 -44.15 -13.5 -45.0 -13.0 -45.5 -13.4 -45.9 -0.5 -46.15 M6.6 -24.75 L8.35 -17.75 -1.4 -17.25 -9.9 -16.15 -12.4 -24.0 -14.9 -36.25 -5.65 -37.75 Q-6.4 -32.9 -5.65 -32.25 L-5.15 -37.9 -1.75 -38.4 -1.4 -38.15 1.85 -38.15 1.0 -27.5 Q3.85 -24.5 6.6 -24.75 M-1.9 -35.5 L-2.25 -35.5 -3.65 -21.25 -3.15 -21.25 -1.9 -35.5" fill="#676767" fill-rule="evenodd" stroke="none"/>
    <path d="M30.0 -36.75 Q30.0 -41.15 24.0 -42.65 L31.75 -43.9 32.0 -36.75 31.1 -34.65 30.0 -36.75 M31.1 -48.65 L25.5 -47.75 25.35 -47.65 24.85 -47.65 22.25 -47.15 21.5 -47.0 18.35 -46.5 17.6 -46.4 17.0 -46.4 16.0 -47.5 11.1 -47.65 10.35 -49.15 11.5 -49.25 12.85 -49.5 18.5 -52.65 28.35 -51.65 30.75 -50.9 31.1 -48.65" fill="#4f4f4f" fill-rule="evenodd" stroke="none"/>
    <path d="M155.35 -63.4 L145.75 -63.75 28.25 -44.75 22.55 -44.65 27.5 -44.65 26.6 -44.5 17.6 -44.4 17.6 -44.65 17.5 -45.15 17.25 -45.9 17.0 -46.4 17.6 -46.4 27.35 -46.4 18.35 -46.5 21.5 -47.0 26.75 -46.9 22.25 -47.15 24.85 -47.65 25.35 -47.65 25.5 -47.65 25.5 -47.75 31.1 -48.65 141.85 -66.25 151.75 -65.9 155.35 -63.4 M25.75 -44.25 L17.6 -43.0 17.6 -44.4 25.75 -44.25 M-4.75 -42.9 L-3.25 -43.15 -2.9 -42.9 -2.5 -42.4 -7.65 -42.4 -5.25 -42.75 -2.9 -42.9 -4.75 -42.9 M-2.25 -42.25 L-2.0 -41.75 -0.65 -40.4 -3.25 -40.25 -0.5 -40.15 -4.25 -40.15 -1.25 -40.0 -11.5 -38.25 -12.15 -38.25 -12.5 -38.65 -11.25 -38.9 -12.5 -38.9 -13.0 -39.25 -9.5 -39.25 -8.15 -39.65 -12.9 -39.65 -13.65 -40.0 -5.5 -40.25 -14.0 -40.4 -8.7 -40.45 -14.0 -40.5 -14.4 -40.9 -2.4 -41.0 -14.65 -41.15 -9.7 -41.2 -14.65 -41.25 -12.15 -41.75 -11.5 -41.75 -8.4 -42.25 -2.25 -42.25" fill="#6b6b6b" fill-rule="evenodd" stroke="none"/>
    <path d="M28.25 -44.75 L27.5 -44.65 22.55 -44.65 28.25 -44.75 M26.6 -44.5 L25.75 -44.25 17.6 -44.4 26.6 -44.5 M22.25 -47.15 L26.75 -46.9 21.5 -47.0 22.25 -47.15 M18.35 -46.5 L27.35 -46.4 17.6 -46.4 18.35 -46.5 M-180.4 -16.4 L-180.4 -16.5 -180.5 -16.75 -180.5 -17.4 -166.5 -17.15 -33.5 -38.4 -26.9 -39.4 -26.0 -39.5 -18.5 -40.75 -14.65 -41.25 -9.7 -41.2 -14.65 -41.15 -2.4 -41.0 -14.4 -40.9 -14.0 -40.5 -8.7 -40.45 -14.0 -40.4 -5.5 -40.25 -13.65 -40.0 -12.9 -39.65 -8.15 -39.65 -9.5 -39.25 -13.0 -39.25 -12.5 -38.9 -11.25 -38.9 -12.5 -38.65 -12.15 -38.25 -167.15 -13.25 -179.15 -13.65 -180.4 -16.4 M-0.65 -40.4 L-0.5 -40.15 -3.25 -40.25 -0.65 -40.4 M-2.9 -42.9 L-5.25 -42.75 -4.75 -42.9 -2.9 -42.9 M-7.65 -42.4 L-2.5 -42.4 -2.25 -42.25 -8.4 -42.25 -7.65 -42.4 M-0.5 -40.15 L-1.25 -40.0 -4.25 -40.15 -0.5 -40.15" fill="#212121" fill-rule="evenodd" stroke="none"/>
    <path d="M11.1 -47.65 L10.75 -45.75 9.1 -45.4 6.35 -45.65 5.85 -45.75 5.0 -47.65 5.75 -49.15 7.25 -50.0 8.75 -50.0 10.35 -49.15 11.1 -47.65 M25.5 51.1 L39.0 45.35 40.0 45.1 36.35 48.35 Q38.1 54.6 37.25 55.75 L38.0 57.6 Q37.75 60.35 38.85 62.35 L38.1 65.0 38.0 68.5 27.25 73.0 17.85 70.1 Q18.25 65.5 17.5 64.1 L26.85 63.85 27.0 61.5 26.6 61.35 17.0 59.6 Q17.35 56.0 16.1 52.6 L16.35 52.1 23.6 52.0 25.5 51.1" fill="#4e4e4e" fill-rule="evenodd" stroke="none"/>
    <path d="M17.6 -43.0 L17.6 -42.4 15.35 -41.25 17.1 -41.4 16.1 -40.9 15.6 -40.75 14.25 -40.25 13.6 -40.9 12.0 -44.5 10.75 -45.75 11.1 -47.65 16.0 -47.5 17.0 -46.4 17.25 -45.9 17.5 -45.15 17.6 -44.65 17.6 -44.4 17.6 -43.0" fill="#4c4c4c" fill-rule="evenodd" stroke="none"/>
    <path d="M0.1 -45.5 L0.6 -45.65 5.0 -47.65 5.85 -45.75 6.35 -45.65 5.0 -39.9 5.25 -38.0 1.85 -38.15 -1.4 -38.15 -1.15 -38.5 2.35 -39.15 1.75 -39.75 0.6 -40.0 1.0 -40.4 -0.5 -40.15 -0.65 -40.4 -0.65 -42.15 -1.15 -43.65 -2.25 -44.65 -0.15 -45.25 0.1 -45.4 0.1 -45.5 M8.35 -17.75 L11.1 -2.15 13.35 20.1 13.0 20.1 7.25 19.85 4.85 19.25 -2.4 16.75 Q-13.9 2.35 -14.5 -3.65 L-14.75 -4.5 -13.15 -12.0 -9.9 -16.15 -1.4 -17.25 8.35 -17.75" fill="#1f1f1f" fill-rule="evenodd" stroke="none"/>
    <path d="M10.75 -45.75 L12.0 -44.5 13.6 -40.9 Q7.85 -40.75 8.6 -37.15 L8.6 -36.5 8.75 -36.15 5.25 -38.0 5.0 -39.9 6.35 -45.65 9.1 -45.4 10.75 -45.75 M-17.0 -20.0 L-16.0 -17.75 -15.25 -14.65 -17.4 -15.15 -18.25 -14.9 -19.5 -13.5 -19.65 -14.15 -19.65 -16.0 -20.0 -16.15 -19.75 -16.65 -20.15 -17.15 -20.25 -17.5 -20.0 -17.9 -20.4 -18.65 -20.5 -19.4 -20.4 -19.9 -20.0 -20.5 -19.75 -20.9 -19.0 -21.0 -17.25 -21.0 -17.15 -21.0 -17.0 -20.0" fill="#2c2c2c" fill-rule="evenodd" stroke="none"/>
    <path d="M-13.5 -45.0 L-13.4 -45.9 -13.0 -45.5 -13.5 -45.0 M5.25 -38.0 L8.75 -36.15 9.35 -35.65 9.5 -35.5 9.75 -35.15 11.0 -33.9 11.35 -33.25 10.75 -26.5 Q8.0 -24.15 6.6 -24.75 3.85 -24.5 1.0 -27.5 L1.85 -38.15 5.25 -38.0 M-15.75 -21.25 L-15.65 -21.25 -15.0 -21.15 -13.25 -20.4 -12.9 -22.25 -13.9 -24.0 -15.0 -28.65 -14.65 -30.25 -15.75 -36.15 -14.9 -36.25 -12.4 -24.0 -9.9 -16.15 -13.15 -12.0 -14.75 -4.5 -15.9 -7.9 -16.9 -9.0 -17.25 -10.25 -16.5 -10.4 -16.5 -11.15 Q-14.75 -11.65 -15.15 -14.15 L-15.25 -14.5 -15.25 -14.65 -16.0 -17.75 -17.0 -20.0 -17.0 -21.15 -15.75 -21.25 M17.85 70.1 L27.25 73.0 17.75 73.35 17.85 70.1" fill="#090909" fill-rule="evenodd" stroke="none"/>
    <path d="M-5.25 -42.75 L-5.0 -45.4 -4.5 -45.4 -4.75 -42.9 -5.25 -42.75 M-5.15 -37.9 L-5.65 -32.25 Q-6.4 -32.9 -5.65 -37.75 L-5.15 -37.9" fill="#0b0b0b" fill-rule="evenodd" stroke="none"/>
    <path d="M13.6 -40.9 L14.25 -40.25 14.6 -39.0 11.1 -38.25 8.85 -37.75 8.6 -37.15 Q7.85 -40.75 13.6 -40.9" fill="#0d0d0d" fill-rule="evenodd" stroke="none"/>
    <path d="M17.1 -41.4 L17.75 -41.5 18.75 -40.15 19.6 -39.0 20.5 -37.0 20.75 -36.25 20.85 -36.15 21.35 -34.25 21.5 -33.9 21.6 -33.75 22.25 -31.4 22.1 -31.4 20.6 -32.75 19.85 -33.5 19.6 -34.0 20.0 -36.65 19.5 -36.9 19.6 -36.65 19.1 -34.5 15.75 -38.15 16.1 -40.9 17.1 -41.4 M14.25 -40.25 L15.6 -40.75 15.25 -38.5 14.6 -39.0 14.25 -40.25 M11.35 -33.25 L11.5 -33.25 13.75 -30.9 14.25 -30.5 18.35 -26.0 17.85 -21.25 Q18.75 -21.5 18.75 -25.4 L25.85 -17.75 26.1 -16.25 17.35 -17.4 8.35 -17.75 6.6 -24.75 Q8.0 -24.15 10.75 -26.5 L11.35 -33.25" fill="#afafaf" fill-rule="evenodd" stroke="none"/>
    <path d="M15.6 -40.75 L16.1 -40.9 15.75 -38.15 15.25 -38.5 15.6 -40.75 M-1.9 -35.5 L-3.15 -21.25 -3.65 -21.25 -2.25 -35.5 -1.9 -35.5" fill="#0a0a0a" fill-rule="evenodd" stroke="none"/>
    <path d="M18.75 -40.15 L19.5 -39.75 19.6 -39.0 18.75 -40.15 M-26.25 -20.4 L-26.75 -24.9 -27.9 -29.9 -28.25 -33.5 -28.5 -34.0 -15.75 -36.15 -14.65 -30.25 -15.0 -28.65 -13.9 -24.0 -12.9 -22.25 -13.25 -20.4 -15.0 -21.15 -15.65 -21.25 -15.75 -21.25 -17.75 -21.5 -18.15 -21.4 -18.25 -21.25 -18.75 -21.25 -19.0 -21.15 -19.75 -21.15 -21.5 -20.15 -22.15 -19.9 -23.4 -18.25 -23.4 -18.15 -23.65 -18.15 -23.75 -18.0 -24.25 -15.9 -24.0 -13.65 -23.0 -12.25 -23.75 -12.9 -23.9 -12.9 -24.75 -14.15 -25.25 -14.75 Q-24.9 -15.4 -25.9 -19.0 L-26.25 -20.4 M-18.5 -40.75 L-26.0 -39.5 -23.65 -41.0 Q-20.75 -42.0 -18.5 -40.75" fill="#4d4d4d" fill-rule="evenodd" stroke="none"/>
    <path d="M19.5 -39.75 Q28.0 -43.65 30.0 -36.75 L31.1 -34.65 36.6 -19.9 36.85 -17.4 36.5 -16.4 35.85 -17.0 35.75 -18.25 34.6 -20.0 32.6 -21.25 31.5 -21.5 22.75 -30.65 22.5 -31.15 22.35 -31.15 22.35 -31.4 22.25 -31.4 21.6 -33.75 21.5 -33.9 21.35 -34.25 20.85 -36.15 20.75 -36.25 20.5 -37.0 19.6 -39.0 19.5 -39.75" fill="#737373" fill-rule="evenodd" stroke="none"/>
    <path d="M22.25 -31.4 L22.35 -31.4 22.35 -31.15 22.1 -31.4 22.25 -31.4 M25.85 -17.75 L28.75 -14.65 28.5 -12.4 26.1 -16.25 25.85 -17.75" fill="#9d9d9d" fill-rule="evenodd" stroke="none"/>
    <path d="M31.5 -21.5 L32.6 -21.25 34.6 -20.0 35.75 -18.25 35.85 -17.0 34.35 -18.5 34.25 -18.75 31.5 -21.5 M18.35 -26.0 L18.75 -25.4 Q18.75 -21.5 17.85 -21.25 L18.35 -26.0 M19.6 -36.65 L20.0 -36.65 19.6 -34.0 19.1 -34.5 19.6 -36.65 M-15.75 -21.25 L-17.0 -21.15 -17.0 -20.0 -17.15 -21.0 -17.25 -21.0 -17.25 -21.15 -18.25 -21.25 -18.15 -21.4 -17.75 -21.5 -15.75 -21.25 M-19.0 -21.0 L-19.75 -20.9 -20.0 -20.5 -21.5 -20.15 -19.75 -21.15 -19.0 -21.15 -19.0 -21.0" fill="#080808" fill-rule="evenodd" stroke="none"/>
    <path d="M20.0 -36.65 L19.6 -36.65 19.5 -36.9 20.0 -36.65" fill="#6e6e6e" fill-rule="evenodd" stroke="none"/>
    <path d="M-21.5 -20.15 L-20.0 -20.5 -20.4 -19.9 -22.65 -18.5 -23.4 -18.25 -22.15 -19.9 -21.5 -20.15 M-23.75 -18.0 L-23.65 -18.15 -23.65 -18.0 -23.75 -18.0" fill="#141414" fill-rule="evenodd" stroke="none"/>
    <path d="M-20.4 -19.9 L-20.5 -19.4 -23.0 -16.9 -24.25 -15.9 -23.75 -18.0 -23.65 -18.0 -23.65 -18.15 -23.4 -18.15 -23.4 -18.25 -22.65 -18.5 -20.4 -19.9" fill="#262626" fill-rule="evenodd" stroke="none"/>
    <path d="M-20.5 -19.4 L-20.4 -18.65 -22.9 -14.9 -24.0 -13.65 -24.25 -15.9 -23.0 -16.9 -20.5 -19.4 M-17.75 -3.25 L-14.5 -3.65 Q-13.9 2.35 -2.4 16.75 L-14.0 16.5 -17.75 -3.25 M17.35 61.6 L17.75 63.6 17.5 64.1 7.75 64.35 8.0 61.85 17.35 61.6" fill="#353535" fill-rule="evenodd" stroke="none"/>
    <path d="M-27.4 -17.9 L-26.25 -20.4 -25.9 -19.0 -27.4 -17.9 M-16.65 48.85 L-16.0 43.35 -9.5 46.1 -6.25 49.6 -5.75 54.5 -5.0 56.75 -16.5 49.25 -16.65 48.85 M17.75 73.35 L17.35 73.35 8.5 73.5 17.85 70.1 17.75 73.35" fill="#060606" fill-rule="evenodd" stroke="none"/>
    <path d="M-29.25 5.5 L-29.75 -4.9 -28.0 -16.25 -27.4 -17.9 -25.9 -19.0 Q-24.9 -15.4 -25.25 -14.75 L-24.75 -14.15 -23.9 -12.9 -25.0 -11.15 -27.75 2.25 -27.5 9.6 -29.25 5.5" fill="#414141" fill-rule="evenodd" stroke="none"/>
    <path d="M-23.9 -12.9 L-23.75 -12.9 -23.0 -12.25 -22.65 -11.9 -20.65 -10.65 -23.5 0.75 -23.65 1.85 -25.25 10.1 -27.25 10.1 -27.5 9.6 -27.75 2.25 -25.0 -11.15 -23.9 -12.9 M-23.25 4.35 L-22.65 8.0 -23.15 10.1 -24.4 10.1 -24.0 6.75 -23.25 4.35" fill="#8c8c8c" fill-rule="evenodd" stroke="none"/>
    <path d="M-20.4 -18.65 L-20.0 -17.9 -20.25 -17.5 -20.15 -17.15 -21.65 -13.5 -22.65 -11.9 -23.0 -12.25 -24.0 -13.65 -22.9 -14.9 -20.4 -18.65" fill="#424242" fill-rule="evenodd" stroke="none"/>
    <path d="M-20.15 -17.15 L-19.75 -16.65 -20.0 -16.15 -21.65 -13.5 -20.15 -17.15" fill="#a8a8a8" fill-rule="evenodd" stroke="none"/>
    <path d="M-20.0 -16.15 L-19.65 -16.0 -19.65 -14.15 -19.9 -12.9 -20.65 -10.65 -22.65 -11.9 -21.65 -13.5 -20.0 -16.15" fill="#a9a9a9" fill-rule="evenodd" stroke="none"/>
    <path d="M21.25 19.0 L26.85 16.75 26.85 16.35 38.0 15.75 38.85 23.1 37.75 26.5 33.6 28.6 32.0 29.35 33.6 29.35 36.0 35.6 39.0 45.35 25.5 51.1 19.1 51.25 14.85 30.35 20.0 30.0 14.75 29.75 14.35 24.5 14.0 23.85 22.5 23.75 21.25 19.0 M4.85 30.6 L4.25 31.85 3.85 31.5 3.75 30.6 4.85 30.6" fill="#494949" fill-rule="evenodd" stroke="none"/>
    <path d="M26.85 16.35 L29.25 8.6 29.5 0.75 29.25 -3.9 31.85 -3.5 38.0 15.75 26.85 16.35" fill="#888888" fill-rule="evenodd" stroke="none"/>
    <path d="M36.5 0.25 L43.25 20.1 38.0 15.75 31.85 -3.5 36.5 0.25" fill="#7b7b7b" fill-rule="evenodd" stroke="none"/>
    <path d="M30.85 -10.75 L36.5 0.25 31.85 -3.5 29.25 -3.9 28.6 -10.5 29.1 -10.5 30.85 -10.75" fill="#989898" fill-rule="evenodd" stroke="none"/>
    <path d="M28.5 -12.4 L28.85 -11.9 28.85 -11.5 29.1 -10.5 28.6 -10.5 28.6 -11.9 28.5 -12.4" fill="#cfcfcf" fill-rule="evenodd" stroke="none"/>
    <path d="M31.5 -10.9 L30.85 -10.75 29.1 -10.5 28.85 -11.5 28.85 -11.9 29.0 -11.9 30.0 -11.4 31.1 -11.4 31.25 -11.4 31.5 -10.9" fill="#3a3a3a" fill-rule="evenodd" stroke="none"/>
    <path d="M32.1 -11.25 L31.5 -10.9 31.25 -11.4 31.1 -11.4 31.6 -11.65 32.1 -11.25" fill="#1e1e1e" fill-rule="evenodd" stroke="none"/>
    <path d="M-15.25 -14.65 L-15.25 -14.5 -15.15 -14.15 Q-14.75 -11.65 -16.5 -11.15 L-18.0 -11.25 -18.75 -11.75 -19.5 -13.5 -18.25 -14.9 -17.4 -15.15 -15.25 -14.65" fill="#161616" fill-rule="evenodd" stroke="none"/>
    <path d="M-19.65 -14.15 L-19.5 -13.5 -19.9 -12.9 -19.65 -14.15" fill="#aeaeae" fill-rule="evenodd" stroke="none"/>
    <path d="M-16.5 -11.15 L-16.5 -10.4 -17.25 -10.25 -17.9 -10.25 -18.0 -11.25 -16.5 -11.15" fill="#313131" fill-rule="evenodd" stroke="none"/>
    <path d="M-18.0 -11.25 L-17.9 -10.25 -20.65 -10.65 -19.9 -12.9 -19.5 -13.5 -18.75 -11.75 -18.0 -11.25" fill="#b0b0b0" fill-rule="evenodd" stroke="none"/>
    <path d="M-23.65 49.5 L-26.75 28.75 -26.25 18.1 -25.9 16.35 -25.4 16.6 -25.0 19.75 -24.65 22.25 -24.75 23.0 -24.15 25.0 -23.75 29.0 -23.25 28.6 -21.75 18.5 -21.15 16.6 -21.75 13.25 -22.25 10.35 -22.65 8.0 -23.25 4.35 -23.65 1.85 -23.5 0.75 -17.75 -3.25 -14.0 16.5 -20.25 21.35 -20.5 22.25 -20.25 22.75 -22.9 36.35 -23.65 49.5" fill="#1a1a1a" fill-rule="evenodd" stroke="none"/>
    <path d="M3.75 30.25 L5.0 30.35 4.85 30.6 3.75 30.6 3.75 30.25 M14.75 29.75 L20.0 30.0 14.85 30.35 14.75 29.75 M33.6 29.35 L32.0 29.35 33.6 28.6 33.6 29.35" fill="#656565" fill-rule="evenodd" stroke="none"/>
    <path d="M-26.75 28.75 L-28.75 17.25 -29.25 5.5 -27.5 9.6 -27.25 10.1 -25.25 10.1 Q-25.15 12.1 -26.0 14.0 L-25.9 16.35 -26.25 18.1 -26.75 28.75 M-8.75 27.25 L-2.15 30.0 3.75 30.25 3.75 30.6 -10.75 30.6 -8.75 27.25 M-22.25 10.35 L-21.75 13.25 -24.15 25.0 -24.75 23.0 -24.65 22.25 -23.0 14.25 -23.0 12.75 -22.25 10.35 M-25.0 19.75 L-25.4 16.6 -25.15 13.25 -24.4 10.1 -23.15 10.1 -25.0 19.75" fill="#6a6a6a" fill-rule="evenodd" stroke="none"/>
    <path d="M-17.75 65.1 L-20.5 62.0 -22.15 59.25 -23.65 49.5 -22.9 36.35 -20.25 22.75 -20.5 22.25 -20.25 21.35 -14.0 16.5 -11.65 23.6 -8.75 27.25 -10.75 30.6 -12.0 32.25 -14.25 37.25 Q-16.4 33.25 -16.5 30.5 L-20.15 35.0 -20.65 41.0 -19.15 45.25 -16.65 48.85 -16.5 49.25 -17.4 60.85 -17.75 65.1 M6.75 30.35 L10.85 30.1 11.0 31.5 11.6 31.25 11.5 32.0 10.85 32.0 10.85 33.35 11.5 33.1 11.35 34.1 10.75 34.1 10.0 52.25 8.6 52.35 -0.9 49.0 6.75 30.35" fill="#0e0e0e" fill-rule="evenodd" stroke="none"/>
    <path d="M5.0 30.35 L6.75 30.35 -0.9 49.0 -9.5 46.1 -14.0 37.35 -14.4 37.5 -16.0 43.35 -16.65 48.85 -19.15 45.25 -20.65 41.0 -20.15 35.0 -16.5 30.5 Q-16.4 33.25 -14.25 37.25 L-12.0 32.25 -10.75 30.6 3.75 30.6 3.85 31.5 4.25 31.85 4.85 30.6 5.0 30.35" fill="#606060" fill-rule="evenodd" stroke="none"/>
    <path d="M-16.0 43.35 L-14.4 37.5 -14.0 37.35 -9.5 46.1 -16.0 43.35" fill="#040604" fill-rule="evenodd" stroke="none"/>
    <path d="M14.0 23.85 L6.0 24.0 4.85 19.25 7.25 19.85 13.0 20.1 13.75 20.5 13.1 20.75 13.85 21.0 13.25 21.25 14.0 21.5 13.35 21.5 13.35 21.85 13.75 22.75 14.25 22.85 13.75 23.1 14.0 23.85" fill="#3c3c3c" fill-rule="evenodd" stroke="none"/>
    <path d="M10.85 30.1 L14.75 29.75 14.85 30.35 19.1 51.25 25.5 51.1 23.6 52.0 16.35 52.1 10.0 52.25 10.75 34.1 11.35 34.1 11.5 33.1 10.85 33.35 10.85 32.0 11.5 32.0 11.6 31.25 11.0 31.5 10.85 30.1" fill="#5d5d5d" fill-rule="evenodd" stroke="none"/>
    <path d="M44.85 33.5 L45.1 34.1 44.35 37.6 44.1 36.35 43.5 36.85 41.85 40.5 Q43.0 35.5 42.5 34.85 L42.85 34.1 44.0 35.85 43.0 30.6 44.85 33.5 M37.75 71.35 L27.6 76.25 27.25 73.0 38.0 68.5 37.85 71.1 37.75 71.35" fill="#0c0c0c" fill-rule="evenodd" stroke="none"/>
    <path d="M44.35 37.6 L45.0 42.1 40.1 44.85 41.85 40.5 43.5 36.85 44.1 36.35 44.35 37.6" fill="#0d120c" fill-rule="evenodd" stroke="none"/>
    <path d="M-9.5 46.1 L-0.9 49.0 8.6 52.35 10.0 52.25 16.35 52.1 16.1 52.6 Q17.35 56.0 17.0 59.6 L8.0 61.85 7.75 64.35 17.5 64.1 Q18.25 65.5 17.85 70.1 L8.5 73.5 8.1 73.5 -4.9 69.75 -5.4 64.0 -5.0 56.75 -5.75 54.5 -6.25 49.6 -9.5 46.1" fill="#1d1d1d" fill-rule="evenodd" stroke="none"/>
    <path d="M8.0 61.85 L17.0 59.6 17.35 61.6 8.0 61.85" fill="#444444" fill-rule="evenodd" stroke="none"/>
    <path d="M26.6 61.35 L17.35 61.6 17.0 59.6 26.6 61.35" fill="#686868" fill-rule="evenodd" stroke="none"/>
    <path d="M26.6 61.35 L27.0 61.5 26.85 63.85 17.5 64.1 17.75 63.6 17.35 61.6 26.6 61.35" fill="#696969" fill-rule="evenodd" stroke="none"/>
    <path d="M44.1 48.0 L43.35 54.1 43.85 58.0 Q43.0 61.75 43.6 63.0 L42.75 65.6 38.5 70.6 37.85 71.1 38.0 68.5 38.1 65.0 38.85 62.35 Q37.75 60.35 38.0 57.6 L37.25 55.75 44.1 48.0 M38.0 71.1 L37.75 71.35 37.85 71.1 38.0 71.1" fill="#252525" fill-rule="evenodd" stroke="none"/>
    <path d="M38.5 70.6 L38.0 71.1 37.85 71.1 38.5 70.6" fill="#131313" fill-rule="evenodd" stroke="none"/>
    <path d="M-23.4 3.75 L-23.0 4.6 -22.65 8.0 -23.15 10.1 -23.25 11.5 -23.75 13.5 -23.9 14.75 -24.15 15.25 -24.15 15.6 -24.5 18.0 -24.9 18.85 -25.0 19.85 -25.15 20.25 -25.15 19.85 -25.25 19.5 -25.65 16.5 -25.9 16.35 -25.65 16.25 -25.4 15.35 -25.15 13.6 -25.15 12.6 -24.65 11.0 -24.75 10.35 -24.5 10.1 -24.5 9.0 -24.0 7.0 -24.0 6.6 -23.9 6.25 -23.9 5.5 -23.5 4.5 -23.4 3.75 M-22.4 16.1 L-22.4 16.75 -23.0 20.1 -23.15 20.35 -23.65 23.5 -23.9 24.25 -24.15 24.6 -24.15 25.0 -24.4 24.75 -24.5 24.1 -24.65 23.75 -24.65 23.6 -24.75 23.25 -24.75 22.1 -24.65 22.1 -24.25 20.1 -24.4 20.0 -24.15 19.6 -24.15 18.6 -23.75 16.5 -23.5 16.1 -23.5 15.0 -23.15 13.0 -22.9 12.6 -22.9 11.75 -22.75 11.75 -22.5 10.25 -22.0 11.75 -21.75 13.25 -22.4 16.1 M-14.25 37.5 L-14.75 38.85 -16.0 43.5 -16.65 48.85 -18.4 46.25 -19.25 45.25 -19.4 45.1 -20.65 41.0 -20.65 40.35 -20.5 39.6 -20.25 35.1 -20.15 34.75 -16.75 30.5 -16.5 30.5 -15.9 33.5 -14.25 37.0 -14.25 37.5" fill="#000000" fill-opacity="0.50980395" fill-rule="evenodd" stroke="none"/>
    <path d="M15.0 29.75 L15.6 29.85 23.6 30.1 30.0 29.75 30.35 29.6 31.75 29.5 31.75 29.35 37.75 26.5 37.85 26.5 38.0 26.85 40.5 29.75 40.75 30.25 40.85 30.25 41.75 31.25 42.6 33.75 42.85 34.1 43.85 35.85 43.85 36.35 43.5 36.85 43.0 37.85 40.0 45.1 39.35 45.35 39.0 45.35 38.5 45.75 38.0 45.85 37.6 46.1 35.35 47.0 35.25 47.1 25.5 51.25 25.1 51.35 24.85 51.5 24.0 51.85 23.75 52.0 16.25 52.1 15.5 42.1 15.5 34.35 15.1 30.85 15.1 30.35 15.0 30.1 15.0 29.75" fill="#121212" fill-opacity="0.50980395" fill-rule="evenodd" stroke="none"/>
    <path d="M14.6 29.75 L15.0 29.75 15.0 30.1 15.1 30.35 15.1 30.85 15.5 34.35 15.5 42.1 16.25 52.1 15.85 52.1 14.75 30.5 14.85 30.35 14.85 30.1 14.6 30.0 14.6 29.75" fill="#161616" fill-rule="evenodd" stroke="none"/>
    <path d="M-14.25 37.5 L-14.25 37.0 -12.15 32.35 -10.25 29.6 -9.4 28.0 -8.9 27.35 -8.9 27.25 -8.75 27.25 -1.9 30.0 3.25 30.25 3.75 30.35 6.75 30.35 14.6 29.75 14.6 30.0 14.75 30.5 15.85 52.1 8.6 52.35 8.1 52.1 7.85 52.1 -9.25 46.25 -9.4 46.25 -9.5 46.1 -9.75 45.85 -14.15 37.5 -14.25 37.5" fill="#080808" fill-opacity="0.50980395" fill-rule="evenodd" stroke="none"/>
    <path d="M43.85 35.85 L43.75 34.0 43.5 33.1 43.1 30.6 44.85 33.5 44.85 34.0 45.0 34.0 44.85 34.5 44.35 37.1 43.85 36.35 43.85 35.85" fill="#040404" fill-opacity="0.50980395" fill-rule="evenodd" stroke="none"/>
    <path d="M44.85 34.5 L45.6 38.1 45.0 40.75 44.35 37.75 44.35 37.1 44.85 34.5" fill="#040404" fill-rule="evenodd" stroke="none"/>
    <path d="M14.6 30.0 L14.85 30.1 14.85 30.35 14.75 30.5 14.6 30.0" fill="#111111" fill-rule="evenodd" stroke="none"/>
  </g>
</svg>
