<?xml version="1.0" encoding="UTF-8" standalone="no"?>
<svg xmlns:xlink="http://www.w3.org/1999/xlink" height="248.5px" width="323.2px" xmlns="http://www.w3.org/2000/svg">
  <g transform="matrix(1.0, 0.0, 0.0, 1.0, 135.35, 145.9)">
    <path d="M186.1 55.35 L185.35 56.75 175.5 49.5 35.1 -8.5 35.0 -8.5 34.35 -8.9 24.0 -13.15 23.85 -13.15 23.35 -13.4 21.35 -14.25 21.1 -14.4 20.85 -14.5 20.75 -14.5 16.75 -16.15 16.35 -16.25 16.25 -16.25 15.85 -16.65 16.1 -17.5 16.1 -17.9 16.35 -17.75 25.85 -13.9 26.1 -13.75 26.35 -13.65 26.6 -13.5 27.1 -13.4 27.85 -13.0 176.1 48.1 176.35 48.6 186.1 55.35 M-30.15 21.85 L-92.75 85.25 -105.25 91.1 -112.15 87.5 -112.15 86.1 -105.25 89.6 -92.75 83.75 0.6 -10.65 0.85 -10.9 1.1 -11.15 1.25 -11.4 1.85 -11.9 2.25 -12.25 2.6 -12.75 3.0 -13.15 Q3.0 -13.5 3.35 -13.5 L3.75 -14.0 6.35 -16.5 6.6 -16.75 6.75 -17.15 8.0 -17.5 8.25 -17.25 7.85 -16.75 2.0 -10.9 -1.65 -7.15 -2.25 -6.5 -10.0 1.35 -14.5 6.0 -16.75 8.25 -22.15 13.85 -28.4 20.0 -29.0 20.6 -30.15 21.85 M-34.65 -37.4 L-130.0 -76.9 Q-136.0 -81.15 -135.25 -82.75 L-130.4 -78.4 -1.65 -25.25 -1.65 -24.5 0.0 -23.4 -0.65 -23.4 -1.4 -23.65 -1.5 -23.65 -3.4 -24.5 -3.65 -24.65 -3.9 -24.75 -4.0 -24.75 -13.0 -28.5 -13.15 -28.5 -20.5 -31.65 -20.9 -31.75 -34.65 -37.4 M-29.5 -100.15 L-33.15 -99.4 -34.0 -100.4 -27.65 -116.65 -27.5 -116.9 -27.25 -117.65 -25.15 -117.75 -25.25 -117.4 -26.9 -114.15 -26.75 -113.75 -26.9 -110.4 -30.65 -101.0 -29.5 -100.15 M-30.25 -119.9 Q-42.0 -114.25 -44.0 -116.4 L-42.65 -120.15 -28.65 -123.75 -28.15 -123.75 -28.0 -123.25 -28.15 -123.0 -28.25 -122.65 -28.65 -121.75 -28.9 -121.4 -29.9 -121.15 -30.25 -119.9 M-21.9 -129.9 Q-20.0 -131.9 -20.25 -136.4 L-17.0 -144.9 -13.4 -145.9 -19.65 -130.15 -19.9 -129.5 -19.9 -129.4 -20.15 -129.25 -20.75 -129.15 -21.25 -129.0 -21.4 -129.0 -22.15 -128.75 -22.0 -129.0 -21.9 -129.9 M-12.25 -128.15 L-11.0 -128.65 -1.9 -131.0 -3.25 -127.0 -2.25 -126.0 -9.15 -124.25 -12.25 -123.5 -14.5 -122.9 -15.5 -122.65 -18.15 -122.25 -18.75 -123.15 -19.15 -123.25 -18.4 -125.25 -17.5 -125.75 -16.4 -126.0 -15.5 -126.15 -12.25 -127.9 -12.25 -128.15 M84.25 -91.0 L83.85 -89.75 Q76.25 -87.9 76.1 -86.0 L29.6 -38.75 18.1 -27.15 17.35 -26.4 15.5 -24.4 15.25 -24.5 16.5 -26.9 17.0 -27.15 17.5 -27.65 17.6 -27.75 18.35 -28.5 18.75 -28.9 19.0 -29.25 19.25 -29.65 78.1 -89.0 84.25 -91.0 M19.25 -25.4 L18.6 -26.25 Q29.25 -29.75 30.85 -21.9 28.5 -28.15 20.5 -24.65 L19.25 -25.4 M0.75 -19.25 L0.85 -19.5 1.0 -19.5 1.0 -19.4 0.75 -19.25 M-27.75 -18.25 L-28.4 -20.75 Q-28.25 -23.4 -25.25 -26.0 -18.25 -29.75 -13.75 -26.5 L-16.0 -25.0 Q-20.9 -28.0 -25.4 -25.0 -27.5 -23.25 -27.75 -21.15 L-27.75 -18.25 M-19.75 0.85 L-19.25 0.5 -20.0 1.25 -19.75 0.85 M-21.75 2.85 L-23.15 4.35 -22.25 3.1 -21.75 2.85" fill="#000000" fill-rule="evenodd" stroke="none"/>
    <path d="M36.0 5.0 L34.25 6.75 33.0 4.85 32.85 4.6 31.85 0.6 36.0 5.0 M15.5 102.35 L5.1 102.6 6.85 100.0 16.1 99.75 15.5 102.35 M-22.4 -67.65 L-20.4 -76.5 -20.25 -77.4 -19.9 -77.65 -19.75 -78.9 -19.15 -81.75 Q-20.25 -82.25 -19.75 -87.0 L-19.9 -87.25 -19.4 -114.25 Q-15.65 -116.4 -15.5 -122.65 L-14.5 -122.9 -14.4 -109.15 -14.75 -103.5 -14.15 -95.75 -14.75 -96.0 -15.0 -89.5 -14.65 -80.5 -14.25 -80.5 -14.5 -92.15 -14.4 -93.4 -14.0 -93.15 -13.9 -79.25 -14.5 -79.4 -14.65 -76.75 -14.4 -73.9 -14.0 -74.0 -14.0 -73.25 -14.25 -73.25 -17.65 -73.15 -19.5 -69.4 -22.5 -65.65 -22.4 -67.65 M-13.4 -145.9 L-12.5 -145.25 -12.4 -144.5 -18.25 -130.0 -19.65 -130.15 -13.4 -145.9" fill="#090909" fill-rule="evenodd" stroke="none"/>
    <path d="M-28.25 -116.9 L-29.9 -118.0 -30.25 -119.9 -29.9 -121.15 -28.9 -121.4 -28.65 -121.75 -28.25 -122.65 -28.15 -123.0 -28.0 -123.25 -27.9 -123.9 -28.15 -123.75 -28.65 -123.75 Q-26.5 -128.0 -21.9 -129.9 L-22.0 -129.0 -22.15 -128.75 -21.4 -129.0 -21.25 -129.0 -20.75 -129.15 -20.15 -129.25 -19.9 -129.4 -19.9 -129.5 -19.65 -130.15 -18.25 -130.0 -17.5 -129.0 -17.25 -128.25 -17.15 -128.15 -17.15 -127.9 -17.0 -127.65 -17.0 -127.5 -17.5 -125.75 -18.4 -125.25 -19.15 -123.25 -18.75 -123.15 -21.65 -119.5 -25.25 -117.4 -25.15 -117.75 -27.25 -117.65 -27.5 -116.9 -28.25 -116.9 M-1.9 -131.0 L-0.65 -130.15 -2.25 -126.0 -3.25 -127.0 -1.9 -131.0 M-16.75 71.6 L-16.4 68.25 -9.9 71.5 -6.9 74.25 -6.4 80.1 -6.0 80.25 -5.65 82.75 -17.0 73.5 -17.15 73.1 -16.75 71.6 M6.85 100.0 L16.75 96.75 16.5 99.75 16.1 99.75 6.85 100.0" fill="#060606" fill-rule="evenodd" stroke="none"/>
    <path d="M-28.15 -123.75 L-27.9 -123.9 -28.0 -123.25 -28.15 -123.75" fill="#0c0c0c" fill-rule="evenodd" stroke="none"/>
    <path d="M-17.25 -128.25 L-15.9 -128.0 -15.5 -126.15 -16.4 -126.0 -17.0 -127.5 -17.0 -127.65 -17.15 -127.9 -17.15 -128.15 -17.25 -128.25 M-5.5 -43.9 L-5.25 -43.75 -1.25 -39.5 1.6 -31.75 -6.9 -31.9 -9.5 -32.9 -10.25 -33.25 -10.4 -34.75 -9.9 -35.25 -9.9 -35.9 -11.65 -37.0 -13.65 -36.65 -14.75 -36.9 -16.0 -37.75 -15.0 -38.75 -13.15 -39.15 -9.9 -42.0 -5.5 -43.9 M10.35 55.6 L14.85 55.25 17.75 71.0 35.0 70.75 38.75 69.75 39.1 70.75 23.0 77.85 15.5 78.0 8.5 78.1 8.25 75.85 9.5 67.1 9.25 65.5 10.1 57.1 10.75 57.0 10.85 56.5 10.25 56.5 10.35 55.6" fill="#4a4a4a" fill-rule="evenodd" stroke="none"/>
    <path d="M-19.4 -114.25 L-24.5 -115.65 -24.0 -117.0 -25.25 -117.4 -21.65 -119.5 -18.75 -123.15 -18.15 -122.25 -15.5 -122.65 Q-15.65 -116.4 -19.4 -114.25 M-27.65 -116.65 L-28.25 -116.9 -27.5 -116.9 -27.65 -116.65 M-17.0 -127.5 L-16.4 -126.0 -17.5 -125.75 -17.0 -127.5 M-16.75 8.25 L-15.65 10.75 -14.5 14.85 -14.25 15.85 -17.5 16.25 -23.5 19.85 -22.15 13.85 -16.75 8.25" fill="#1c1c1c" fill-rule="evenodd" stroke="none"/>
    <path d="M-15.9 -128.0 L-12.25 -128.15 -12.25 -127.9 -15.5 -126.15 -15.9 -128.0" fill="#424242" fill-rule="evenodd" stroke="none"/>
    <path d="M-9.15 -124.25 Q-7.5 -116.9 -11.5 -117.5 L-12.25 -118.75 Q-12.75 -123.15 -12.25 -123.5 L-9.15 -124.25 M-19.5 -69.4 L-17.65 -73.15 -14.25 -73.25 -13.15 -68.25 -8.0 -51.65 -8.15 -50.75 -5.5 -43.9 -9.9 -42.0 -13.15 -39.15 -15.0 -38.75 -16.0 -37.75 -17.0 -38.4 -17.65 -52.75 -19.0 -58.9 -19.25 -65.65 -19.0 -66.9 -19.5 -69.4" fill="#242424" fill-rule="evenodd" stroke="none"/>
    <path d="M-11.5 -117.5 L-11.5 -87.75 -11.5 -87.25 -11.25 -81.15 -10.75 -78.65 -10.5 -77.0 -10.5 -76.25 -10.15 -73.5 -10.15 -71.0 -10.9 -73.15 -14.0 -73.25 -14.0 -74.0 -14.4 -73.9 -14.65 -76.75 -14.5 -79.4 -13.9 -79.25 -14.0 -93.15 -14.4 -93.4 -14.5 -92.15 -14.25 -80.5 -14.65 -80.5 -15.0 -89.5 -14.75 -96.0 -14.15 -95.75 -14.75 -103.5 -14.4 -109.15 -14.5 -122.9 -12.25 -123.5 Q-12.75 -123.15 -12.25 -118.75 L-11.5 -117.5" fill="#4e4e4e" fill-rule="evenodd" stroke="none"/>
    <path d="M-26.25 -76.75 L-42.25 -76.9 -53.9 -78.15 -54.65 -78.15 -58.25 -79.65 -58.4 -79.9 -58.15 -80.15 -56.65 -80.75 -55.75 -80.65 -55.0 -80.65 -54.0 -80.25 -52.9 -80.4 -39.15 -79.4 -19.75 -78.9 -19.9 -77.65 -20.25 -77.4 -26.25 -76.75 M-24.5 -115.65 L-25.65 -113.4 Q-24.5 -111.25 -29.5 -100.15 L-30.65 -101.0 -26.9 -110.4 -26.75 -113.75 -26.9 -114.15 -25.25 -117.4 -24.0 -117.0 -24.5 -115.65 M8.5 78.1 L15.5 78.0 Q16.6 83.85 16.0 84.6 L16.35 85.1 16.1 86.0 7.1 88.35 6.85 89.25 7.1 90.85 16.6 90.75 16.75 96.75 6.85 100.0 -5.65 95.5 -6.15 90.1 -5.65 82.75 -6.0 80.25 -6.4 80.1 -6.9 74.25 -9.9 71.5 -9.5 71.5 7.75 78.1 8.5 78.1" fill="#1e1e1e" fill-rule="evenodd" stroke="none"/>
    <path d="M21.5 -39.75 L73.1 -90.75 79.25 -92.75 84.25 -91.0 78.1 -89.0 19.25 -29.65 18.6 -29.75 18.25 -29.4 19.0 -29.25 18.75 -28.9 18.35 -28.5 15.85 -28.5 15.35 -29.25 16.1 -29.4 16.25 -29.75 15.35 -29.25 14.35 -30.0 15.1 -30.15 15.25 -30.5 13.85 -30.5 14.35 -30.25 14.0 -30.25 12.0 -30.25 12.75 -31.0 13.1 -31.5 13.75 -32.15 13.85 -32.15 14.75 -33.0 15.1 -33.4 15.75 -33.4 15.25 -33.5 15.1 -33.5 16.1 -34.4 21.5 -39.75 M17.5 -27.65 L17.0 -27.15 16.5 -26.9 16.25 -27.9 16.75 -28.4 17.6 -28.4 17.35 -28.0 17.6 -27.75 17.1 -27.75 17.5 -27.65 M21.25 -32.65 L20.6 -32.65 20.5 -32.4 21.1 -32.4 21.25 -32.65 M19.75 -32.65 L19.1 -32.65 19.0 -32.4 19.6 -32.4 19.75 -32.65 M19.35 -33.0 L20.1 -33.0 20.35 -33.5 19.75 -33.65 19.35 -33.0 M19.0 -33.65 L18.25 -33.65 17.85 -33.0 18.6 -33.0 19.0 -33.65 M16.25 -33.0 L17.1 -33.0 17.5 -33.65 16.6 -33.65 16.25 -33.0 M16.1 -34.4 L18.0 -34.25 17.35 -34.65 16.1 -34.4 M17.35 -32.25 L17.25 -32.0 17.85 -32.0 18.0 -32.25 17.35 -32.25 M17.0 -31.25 L16.5 -31.0 17.1 -30.9 17.0 -31.25 M17.6 -31.65 L17.75 -31.9 17.0 -31.75 17.6 -31.65 M15.6 -30.9 L15.5 -31.25 14.6 -31.25 14.5 -31.0 14.85 -31.0 15.6 -30.9 M15.6 -32.15 L16.35 -32.0 16.5 -32.25 15.6 -32.15 M16.1 -31.65 L16.25 -31.9 15.25 -31.9 15.1 -31.65 16.1 -31.65 M16.5 -30.0 L16.5 -30.5 15.85 -30.15 16.5 -30.0 M16.75 -29.25 L17.5 -29.25 17.75 -29.75 17.1 -29.75 16.75 -29.25 M17.25 -28.9 L16.6 -29.15 16.5 -28.9 17.25 -28.9 M19.1 -31.65 L19.25 -31.9 18.5 -31.75 19.1 -31.65 M20.85 -32.0 L21.0 -32.25 20.35 -32.25 20.25 -32.0 20.85 -32.0 M20.6 -31.65 L20.75 -31.9 20.0 -31.75 20.6 -31.65 M19.5 -32.25 L18.85 -32.25 18.75 -32.0 19.35 -32.0 19.5 -32.25 M18.0 -30.0 L18.0 -30.5 17.35 -30.15 18.0 -30.0 M18.6 -30.9 L18.5 -31.25 18.0 -31.0 18.6 -30.9 M20.0 -31.25 L19.5 -31.0 20.1 -30.9 20.0 -31.25 M19.5 -30.0 L19.5 -30.5 18.85 -30.15 19.5 -30.0 M18.1 -32.4 L18.25 -32.65 17.6 -32.65 17.5 -32.4 18.1 -32.4 M5.85 -17.4 L5.0 -17.15 6.0 -17.15 5.85 -17.4 6.75 -17.15 6.6 -16.75 4.25 -16.5 6.35 -16.5 3.75 -14.0 3.0 -14.15 2.6 -13.65 3.35 -13.5 Q3.0 -13.5 3.0 -13.15 L2.6 -12.75 0.6 -12.65 2.25 -12.25 1.85 -11.9 0.85 -11.9 1.35 -11.75 1.25 -11.4 1.1 -11.15 -0.75 -11.15 0.25 -11.4 -1.4 -11.4 -2.0 -11.65 -1.9 -12.0 -2.9 -12.0 -3.5 -12.4 -2.9 -12.65 -4.9 -12.9 -3.9 -13.15 -5.4 -13.15 -5.25 -13.25 -3.5 -15.15 -2.25 -16.15 -0.5 -17.9 4.75 -17.9 5.85 -17.4 M4.35 -18.0 L-0.5 -17.9 -0.25 -18.15 0.75 -19.25 1.0 -19.4 3.0 -18.65 3.75 -18.25 -0.25 -18.15 4.1 -18.15 4.35 -18.0 M3.85 -15.25 L3.5 -14.75 4.35 -14.75 4.5 -15.4 3.1 -15.25 3.85 -15.25 M4.85 -15.65 L5.1 -16.0 3.75 -15.9 4.85 -15.65 M0.25 -12.65 L-0.65 -12.5 0.1 -12.4 0.25 -12.65 M0.6 -10.65 L0.0 -11.0 0.85 -10.9 0.6 -10.65 M-1.4 -12.4 L-1.25 -12.65 -2.15 -12.5 -1.4 -12.4 M-0.5 -11.75 L-0.4 -12.0 -1.0 -11.9 -0.5 -11.75" fill="#3d3d3d" fill-rule="evenodd" stroke="none"/>
    <path d="M-112.15 86.1 L-99.9 80.25 -30.15 11.25 -30.15 11.1 -27.65 8.75 -27.5 8.5 -23.65 4.85 -23.15 4.35 -21.75 2.85 -20.0 1.25 -19.25 0.5 -16.65 -2.15 -16.65 -2.25 -13.15 -5.5 -11.9 -6.75 -11.9 -6.9 -11.4 -7.25 -5.4 -13.15 -3.9 -13.15 -4.9 -12.9 -2.9 -12.65 -3.5 -12.4 -2.9 -12.0 -1.9 -12.0 -2.0 -11.65 -1.4 -11.4 0.25 -11.4 -0.75 -11.15 1.1 -11.15 0.85 -10.9 0.0 -11.0 0.6 -10.65 -92.75 83.75 -105.25 89.6 -112.15 86.1 M19.25 -29.65 L19.0 -29.25 18.25 -29.4 18.6 -29.75 19.25 -29.65 M18.35 -28.5 L17.6 -27.75 17.5 -27.65 17.1 -27.75 17.6 -27.75 17.35 -28.0 17.6 -28.4 16.75 -28.4 16.25 -27.9 15.85 -28.5 18.35 -28.5 M19.0 -33.65 L18.6 -33.0 17.85 -33.0 18.25 -33.65 19.0 -33.65 M19.35 -33.0 L19.75 -33.65 20.35 -33.5 20.1 -33.0 19.35 -33.0 M19.75 -32.65 L19.6 -32.4 19.0 -32.4 19.1 -32.65 19.75 -32.65 M21.25 -32.65 L21.1 -32.4 20.5 -32.4 20.6 -32.65 21.25 -32.65 M15.1 -33.4 L15.1 -33.5 15.25 -33.5 15.75 -33.4 15.1 -33.4 M16.25 -33.0 L16.6 -33.65 17.5 -33.65 17.1 -33.0 16.25 -33.0 M16.1 -34.4 L17.35 -34.65 18.0 -34.25 16.1 -34.4 M17.0 -31.25 L17.1 -30.9 16.5 -31.0 17.0 -31.25 M17.35 -32.25 L18.0 -32.25 17.85 -32.0 17.25 -32.0 17.35 -32.25 M17.6 -31.65 L17.0 -31.75 17.75 -31.9 17.6 -31.65 M16.1 -31.65 L15.1 -31.65 15.25 -31.9 16.25 -31.9 16.1 -31.65 M15.6 -32.15 L16.5 -32.25 16.35 -32.0 15.6 -32.15 M15.6 -30.9 L14.85 -31.0 14.5 -31.0 14.6 -31.25 15.5 -31.25 15.6 -30.9 M15.35 -29.25 L16.25 -29.75 16.1 -29.4 15.35 -29.25 M16.5 -30.0 L15.85 -30.15 16.5 -30.5 16.5 -30.0 M14.0 -30.25 L14.35 -30.25 13.85 -30.5 15.25 -30.5 15.1 -30.15 14.35 -30.0 14.0 -30.25 M16.75 -29.25 L17.1 -29.75 17.75 -29.75 17.5 -29.25 16.75 -29.25 M17.25 -28.9 L16.5 -28.9 16.6 -29.15 17.25 -28.9 M20.6 -31.65 L20.0 -31.75 20.75 -31.9 20.6 -31.65 M20.85 -32.0 L20.25 -32.0 20.35 -32.25 21.0 -32.25 20.85 -32.0 M19.1 -31.65 L18.5 -31.75 19.25 -31.9 19.1 -31.65 M19.5 -32.25 L19.35 -32.0 18.75 -32.0 18.85 -32.25 19.5 -32.25 M20.0 -31.25 L20.1 -30.9 19.5 -31.0 20.0 -31.25 M18.6 -30.9 L18.0 -31.0 18.5 -31.25 18.6 -30.9 M18.0 -30.0 L17.35 -30.15 18.0 -30.5 18.0 -30.0 M19.5 -30.0 L18.85 -30.15 19.5 -30.5 19.5 -30.0 M18.1 -32.4 L17.5 -32.4 17.6 -32.65 18.25 -32.65 18.1 -32.4 M5.85 -17.4 L6.0 -17.15 5.0 -17.15 5.85 -17.4 M4.75 -17.9 L-0.5 -17.9 4.35 -18.0 4.75 -17.9 M1.25 -11.4 L1.35 -11.75 0.85 -11.9 1.85 -11.9 1.25 -11.4 M2.25 -12.25 L0.6 -12.65 2.6 -12.75 2.25 -12.25 M3.35 -13.5 L2.6 -13.65 3.0 -14.15 3.75 -14.0 3.35 -13.5 M6.35 -16.5 L4.25 -16.5 6.6 -16.75 6.35 -16.5 M4.1 -18.15 L-0.25 -18.15 3.75 -18.25 4.1 -18.15 M3.85 -15.25 L3.1 -15.25 4.5 -15.4 4.35 -14.75 3.5 -14.75 3.85 -15.25 M4.85 -15.65 L3.75 -15.9 5.1 -16.0 4.85 -15.65 M-23.25 0.85 L-23.15 0.75 -23.15 0.85 -23.25 0.85 M-21.9 -0.4 L-21.25 -0.65 -21.4 -0.4 -21.9 -0.4 M0.25 -12.65 L0.1 -12.4 -0.65 -12.5 0.25 -12.65 M-0.5 -11.75 L-1.0 -11.9 -0.4 -12.0 -0.5 -11.75 M-1.4 -12.4 L-2.15 -12.5 -1.25 -12.65 -1.4 -12.4" fill="#101010" fill-rule="evenodd" stroke="none"/>
    <path d="M-20.0 -87.5 L-19.9 -87.25 -19.75 -87.0 Q-20.25 -82.25 -19.15 -81.75 L-19.75 -78.9 -39.15 -79.4 -52.9 -80.4 -54.5 -80.5 -54.65 -81.15 -56.15 -81.9 -56.0 -83.4 -56.4 -84.5 -54.4 -84.65 -55.15 -85.25 -56.5 -85.15 -56.75 -85.65 -55.15 -85.75 -54.65 -86.15 -45.15 -87.15 -31.65 -87.75 -20.0 -87.5 M21.25 43.25 L26.6 40.6 26.85 40.0 38.1 39.6 38.75 48.0 37.6 51.85 34.6 53.5 Q32.85 56.1 14.85 55.25 L14.35 49.25 14.0 48.85 22.35 48.75 21.25 43.25 M-20.0 -0.65 L-19.9 0.5 -19.75 0.85 -20.0 1.25 -21.75 2.85 -22.25 3.1 -20.0 -0.65 M-55.0 -80.65 L-55.75 -80.65 -55.9 -80.9 -55.0 -80.65" fill="#3e3e3e" fill-rule="evenodd" stroke="none"/>
    <path d="M-30.15 11.1 L-30.15 8.85 -27.65 -2.75 -25.9 -3.9 -25.65 -1.9 -27.15 5.0 -27.5 8.5 -27.65 8.75 -30.15 11.1 M-20.4 -76.5 L-26.25 -76.75 -20.25 -77.4 -20.4 -76.5 M-54.65 -86.15 L-44.9 -87.4 -29.4 -88.25 -20.15 -87.9 -20.0 -87.5 -31.65 -87.75 -45.15 -87.15 -54.65 -86.15 M12.75 -36.65 L19.35 -39.75 21.5 -39.75 16.1 -34.4 15.1 -33.5 15.1 -33.4 14.75 -33.0 13.85 -32.15 13.75 -32.15 12.6 -32.5 Q11.0 -35.0 9.85 -35.25 L10.35 -36.65 11.85 -36.25 12.75 -36.65 M29.6 -38.75 L32.0 -38.15 Q34.1 -25.15 31.75 -19.65 L30.85 -21.9 Q29.25 -29.75 18.6 -26.25 L18.1 -26.75 18.1 -27.15 29.6 -38.75 M-28.25 22.6 L-29.0 20.6 -28.4 20.0 -28.25 22.6" fill="#373737" fill-rule="evenodd" stroke="none"/>
    <path d="M-11.5 -87.75 L-7.0 -87.65 4.6 -86.4 20.0 -84.0 19.75 -83.9 9.1 -85.65 -6.5 -87.25 -11.5 -87.25 -11.5 -87.75 M-4.65 -76.15 L-10.5 -76.25 -10.5 -77.0 -4.65 -76.15" fill="#414141" fill-rule="evenodd" stroke="none"/>
    <path d="M-10.75 -78.65 L-11.25 -81.15 -11.5 -87.25 -6.5 -87.25 9.1 -85.65 19.75 -83.9 22.35 -83.4 22.6 -82.9 21.75 -83.15 20.75 -82.75 20.6 -82.5 21.35 -82.25 22.75 -82.25 23.5 -80.5 23.5 -79.65 22.6 -79.15 22.35 -78.5 20.6 -78.4 5.75 -78.15 -10.75 -78.65 M22.6 -78.5 L23.0 -78.75 23.5 -78.5 22.6 -78.5 M21.5 -20.25 L21.6 -20.65 21.75 -20.15 21.5 -20.25" fill="#565656" fill-rule="evenodd" stroke="none"/>
    <path d="M20.0 -84.0 L22.25 -83.9 Q24.1 -83.0 26.0 -79.9 26.35 -75.0 21.5 -76.15 L23.85 -76.5 25.5 -77.65 23.5 -78.5 23.0 -78.75 22.6 -78.5 20.75 -78.15 20.6 -78.4 22.35 -78.5 22.6 -79.15 23.5 -79.65 23.5 -80.5 22.75 -82.25 21.35 -82.25 20.6 -82.5 20.75 -82.75 21.75 -83.15 22.6 -82.9 22.35 -83.4 19.75 -83.9 20.0 -84.0" fill="#626262" fill-rule="evenodd" stroke="none"/>
    <path d="M-54.65 -78.15 Q-58.4 -77.25 -59.75 -81.15 -59.0 -87.65 -54.65 -86.15 L-55.15 -85.75 -56.75 -85.65 -56.5 -85.15 -55.15 -85.25 -54.4 -84.65 -56.4 -84.5 -56.0 -83.4 -56.15 -81.9 -54.65 -81.15 -54.5 -80.5 -52.9 -80.4 -54.0 -80.25 -55.0 -80.65 -55.9 -80.9 -55.75 -80.65 -56.65 -80.75 -58.15 -80.15 -58.4 -79.9 -58.25 -79.65 -54.65 -78.15" fill="#1b1b1b" fill-rule="evenodd" stroke="none"/>
    <path d="M21.5 -76.15 L12.5 -75.5 -4.65 -76.15 -10.5 -77.0 -10.75 -78.65 5.75 -78.15 20.6 -78.4 20.75 -78.15 22.6 -78.5 23.5 -78.5 25.5 -77.65 23.85 -76.5 21.5 -76.15" fill="#2f2f2f" fill-rule="evenodd" stroke="none"/>
    <path d="M186.1 55.35 L176.35 48.6 176.1 48.1 27.85 -13.0 27.1 -13.4 26.6 -13.5 26.35 -13.65 26.1 -13.75 25.85 -13.9 16.35 -17.75 17.5 -19.15 29.6 -15.15 30.0 -15.15 Q30.6 -15.55 30.85 -16.25 L33.1 -15.4 177.5 43.75 187.75 50.85 Q188.25 51.5 186.1 55.35 M-10.15 -73.5 L-8.4 -67.0 -8.5 -66.75 -8.9 -67.25 -10.15 -71.0 -10.15 -73.5 M0.1 -29.0 L-0.9 -27.65 -11.4 -30.9 -9.5 -32.9 -6.9 -31.9 0.1 -29.0" fill="#252525" fill-rule="evenodd" stroke="none"/>
    <path d="M-7.9 -65.65 L-5.0 -60.75 -4.75 -60.5 -4.65 -60.15 -3.5 -58.4 -3.4 -58.15 -1.15 -53.0 -1.0 -52.75 -0.9 -52.65 4.85 -40.15 -5.25 -43.75 -5.5 -43.9 -8.15 -50.75 -8.0 -51.65 -13.15 -68.25 -14.25 -73.25 -14.0 -73.25 -10.9 -73.15 -10.15 -71.0 -8.9 -67.25 -7.9 -65.65" fill="#909090" fill-rule="evenodd" stroke="none"/>
    <path d="M43.1 72.5 L42.1 77.0 Q43.35 84.85 41.5 89.6 L41.0 90.75 36.25 96.75 36.5 94.35 36.85 91.0 37.6 88.5 Q36.6 86.5 37.0 83.85 L36.25 81.5 36.6 81.5 43.1 72.5 M-27.75 -16.4 Q-30.15 -16.9 -34.4 -29.0 L-35.4 -33.9 -35.4 -35.15 -34.65 -37.4 -20.9 -31.75 -20.5 -31.65 -13.15 -28.5 -13.5 -27.65 -13.75 -26.5 Q-18.25 -29.75 -25.25 -26.0 -28.25 -23.4 -28.4 -20.75 L-27.75 -18.25 -27.75 -16.4 M-27.0 -40.15 L-26.4 -40.15 -21.15 -40.5 -17.0 -38.4 -16.0 -37.75 -14.75 -36.9 -13.65 -36.65 -11.65 -37.0 -9.9 -35.9 -9.9 -35.25 -10.4 -34.75 -10.25 -33.25 -27.0 -40.15 M-23.75 -63.4 L-22.4 -67.65 -22.5 -65.65 -23.75 -63.4 M-14.5 14.85 L-12.5 8.6 -12.65 8.1 -9.15 4.35 -0.65 3.35 9.25 3.0 11.5 19.25 13.25 44.5 7.25 44.1 5.0 43.35 -1.65 40.85 -2.25 40.25 -8.15 31.1 -13.4 20.1 Q-13.0 19.5 -14.25 15.85 L-14.5 14.85" fill="#212121" fill-rule="evenodd" stroke="none"/>
    <path d="M-27.65 -2.75 L-26.5 -7.15 -25.9 -3.9 -27.65 -2.75 M-26.4 -40.15 L-25.9 -53.75 -24.65 -60.65 -23.75 -63.4 -22.5 -65.65 -19.5 -69.4 -19.0 -66.9 -19.25 -65.65 -19.0 -58.9 -17.65 -52.75 -17.0 -38.4 -21.15 -40.5 -26.4 -40.15" fill="#030303" fill-rule="evenodd" stroke="none"/>
    <path d="M-12.5 92.85 L-14.4 91.85 -15.15 89.85 -15.15 89.1 -12.5 92.85 M-8.0 -66.0 L-8.0 -65.9 -7.9 -65.65 -8.9 -67.25 -8.5 -66.75 -8.0 -66.0" fill="#262626" fill-rule="evenodd" stroke="none"/>
    <path d="M-14.4 91.85 L-14.75 91.25 -15.15 89.85 -14.4 91.85 M-8.4 -67.0 L-8.0 -66.0 -8.5 -66.75 -8.4 -67.0" fill="#141414" fill-rule="evenodd" stroke="none"/>
    <path d="M4.85 -40.15 L7.1 -39.25 11.0 -38.5 12.75 -36.65 11.85 -36.25 10.35 -36.65 9.85 -35.25 Q11.0 -35.0 12.6 -32.5 L13.75 -32.15 13.1 -31.5 1.6 -31.75 -1.25 -39.5 -5.25 -43.75 4.85 -40.15" fill="#808080" fill-rule="evenodd" stroke="none"/>
    <path d="M-135.25 -82.75 L-131.25 -85.25 -126.4 -80.75 -27.0 -40.15 -10.25 -33.25 -9.5 -32.9 -11.4 -30.9 -0.9 -27.65 -0.9 -27.5 -1.65 -25.25 -130.4 -78.4 -135.25 -82.75 M19.25 -21.0 L21.5 -20.25 21.75 -20.15 30.85 -16.25 Q30.6 -15.55 30.0 -15.15 L29.6 -15.15 17.5 -19.15 19.25 -21.0" fill="#111111" fill-rule="evenodd" stroke="none"/>
    <path d="M2.1 -29.25 L4.25 -28.65 7.35 -28.4 7.0 -27.5 6.85 -27.4 6.85 -26.75 4.5 -25.15 3.0 -23.5 2.75 -22.25 2.0 -21.4 1.1 -22.25 -1.5 -23.65 -1.4 -23.65 -0.65 -23.4 0.0 -23.4 -1.65 -24.5 -1.65 -25.25 -0.9 -27.5 -0.9 -27.65 0.1 -29.0 0.75 -29.5 2.1 -29.25" fill="#181818" fill-rule="evenodd" stroke="none"/>
    <path d="M-27.65 44.85 L-29.5 31.85 -30.15 21.85 -29.0 20.6 -28.25 22.6 -24.25 22.75 -25.75 30.1 -26.15 30.5 -26.4 33.1 -26.4 33.6 -27.65 44.85 M2.1 -29.25 L0.75 -29.5 0.1 -29.0 -6.9 -31.9 1.6 -31.75 2.1 -29.25 M-1.5 -23.65 L1.1 -22.25 2.0 -21.4 1.6 -20.65 0.85 -19.5 0.75 -19.25 -0.25 -18.15 -0.5 -17.9 -2.25 -16.15 -3.5 -15.15 -5.25 -13.25 -5.4 -13.15 -11.4 -7.25 -11.9 -6.9 -14.75 -22.5 -13.75 -26.5 -13.5 -27.65 -13.15 -28.5 -13.0 -28.5 -4.0 -24.75 -5.25 -14.75 -4.75 -14.9 -4.5 -16.25 -3.65 -24.65 -3.4 -24.5 -1.5 -23.65 M7.5 -5.5 L9.25 3.0 -0.65 3.35 -9.15 4.35 -10.0 1.35 -2.25 -6.5 Q-3.15 -2.0 -2.4 -1.4 L-1.65 -7.15 2.0 -10.9 Q1.75 -5.65 7.5 -5.5 M-25.9 34.75 L-24.0 25.35 -23.25 23.6 -22.65 28.0 -24.75 37.25 -25.4 38.5 -25.9 34.75 M-22.25 30.85 L-21.75 34.6 -24.5 45.0 -25.15 41.75 -24.75 41.5 -23.75 35.75 -22.25 30.85" fill="#484848" fill-rule="evenodd" stroke="none"/>
    <path d="M16.75 -16.15 L20.75 -14.5 18.75 -2.25 18.85 -1.25 19.25 -1.5 21.1 -14.4 21.35 -14.25 23.35 -13.4 25.85 -3.5 26.85 4.5 17.5 3.35 9.25 3.0 7.5 -5.5 Q8.75 -4.9 11.35 -7.4 L13.0 -17.0 15.85 -16.15 15.75 -14.5 16.25 -14.75 16.25 -16.15 16.75 -16.15 M15.5 -24.4 L17.35 -26.4 16.85 -23.25 15.5 -24.4 M7.35 -28.4 L4.25 -28.65 2.1 -29.25 1.6 -31.75 13.1 -31.5 12.75 -31.0 12.0 -30.25 11.1 -29.75 8.85 -29.75 7.35 -28.4 M18.6 -26.25 L19.25 -25.4 20.85 -22.75 20.85 -22.5 21.6 -20.75 21.6 -20.65 21.5 -20.25 19.25 -21.0 19.0 -22.25 18.6 -22.25 17.5 -22.9 18.1 -26.75 18.6 -26.25" fill="#7c7c7c" fill-rule="evenodd" stroke="none"/>
    <path d="M-26.5 -7.15 L-26.25 -7.9 -27.75 -16.4 -27.75 -18.25 -27.75 -21.15 Q-27.5 -23.25 -25.4 -25.0 -20.9 -28.0 -16.0 -25.0 L-13.9 -13.5 Q-15.0 -11.9 -13.15 -5.5 L-16.65 -2.25 -19.15 -2.0 -20.15 -1.4 -20.25 -1.25 -21.25 -0.65 -21.9 -0.4 -22.65 0.5 -23.15 0.75 -23.25 0.85 -23.75 2.6 -23.75 2.75 -23.9 2.85 -23.65 4.85 -24.75 3.6 -25.65 -1.9 -25.9 -3.9 -26.5 -7.15" fill="#474747" fill-rule="evenodd" stroke="none"/>
    <path d="M36.25 96.75 L26.1 102.0 15.5 102.35 16.1 99.75 16.5 99.75 25.85 99.5 36.5 94.35 36.25 96.75 M13.0 -17.0 L11.35 -7.4 Q8.75 -4.9 7.5 -5.5 1.75 -5.65 2.0 -10.9 L7.85 -16.75 9.75 -17.4 13.0 -17.0 M-13.75 -26.5 L-14.75 -22.5 -11.9 -6.9 -11.9 -6.75 -13.15 -5.5 Q-15.0 -11.9 -13.9 -13.5 L-16.0 -25.0 -13.75 -26.5 M-10.0 1.35 L-9.15 4.35 -12.65 8.1 -12.5 8.6 -14.5 14.85 -15.65 10.75 -16.75 8.25 -15.4 7.85 -14.75 7.25 -14.5 6.0 -10.0 1.35" fill="#0a0a0a" fill-rule="evenodd" stroke="none"/>
    <path d="M23.85 -13.15 L24.0 -13.15 34.35 -8.9 35.0 -8.5 37.25 -0.65 37.5 1.6 36.85 2.75 36.35 1.0 35.75 -0.4 34.85 -0.9 34.75 -0.9 33.6 -1.75 31.0 -2.0 29.35 -1.75 27.6 -1.15 26.85 -1.75 26.35 -3.0 26.75 -5.65 25.6 -10.4 23.85 -13.15 M31.75 -19.65 L33.1 -15.4 30.85 -16.25 21.75 -20.15 21.6 -20.65 21.6 -20.75 20.85 -22.5 20.85 -22.75 20.5 -24.65 Q28.5 -28.15 30.85 -21.9 L31.75 -19.65" fill="#6a6a6a" fill-rule="evenodd" stroke="none"/>
    <path d="M20.75 -14.5 L20.85 -14.5 21.1 -14.4 19.25 -1.5 18.85 -1.25 18.75 -2.25 20.75 -14.5 M36.85 2.75 L36.0 5.0 31.85 0.6 31.6 0.0 31.35 -1.0 31.25 -1.75 31.0 -2.0 33.6 -1.75 34.75 -0.9 34.85 -0.9 35.75 -0.4 36.35 1.0 36.85 2.75 M17.35 -26.4 L18.1 -27.15 18.1 -26.75 17.5 -22.9 16.85 -23.25 17.35 -26.4 M15.85 -16.15 L16.25 -16.15 16.25 -14.75 15.75 -14.5 15.85 -16.15 M-4.0 -24.75 L-3.9 -24.75 -3.65 -24.65 -4.5 -16.25 -4.75 -14.9 -5.25 -14.75 -4.0 -24.75 M-2.25 -6.5 L-1.65 -7.15 -2.4 -1.4 Q-3.15 -2.0 -2.25 -6.5 M16.75 96.75 L25.85 99.5 16.5 99.75 16.75 96.75" fill="#080808" fill-rule="evenodd" stroke="none"/>
    <path d="M36.6 19.75 L43.0 43.5 38.1 39.6 32.1 16.35 36.6 19.75 M16.5 -26.9 L15.25 -24.5 12.6 -26.25 12.6 -28.15 11.1 -29.75 12.0 -30.25 14.0 -30.25 14.35 -30.0 15.35 -29.25 15.85 -28.5 16.25 -27.9 16.5 -26.9" fill="#616161" fill-rule="evenodd" stroke="none"/>
    <path d="M6.85 -26.75 L6.85 -27.4 7.0 -27.5 7.35 -28.4 8.85 -29.75 11.1 -29.75 12.6 -28.15 12.6 -26.25 12.25 -25.5 11.35 -25.0 9.85 -24.9 7.85 -25.65 6.85 -26.75" fill="#4f4f4f" fill-rule="evenodd" stroke="none"/>
    <path d="M2.0 -21.4 L2.75 -22.25 3.0 -23.5 4.5 -25.15 6.85 -26.75 7.85 -25.65 9.85 -24.9 10.6 -20.4 10.25 -18.0 9.75 -17.4 7.85 -16.75 8.25 -17.25 8.0 -17.5 6.75 -17.15 Q5.0 -22.25 1.6 -20.65 L2.0 -21.4 M-13.9 40.0 L-2.25 40.25 -1.65 40.85 5.0 43.35 6.0 48.85 14.0 48.85 14.35 49.25 14.85 55.25 10.35 55.6 4.5 55.85 -2.15 55.35 -8.75 52.35 -11.65 48.25 -13.9 40.0" fill="#2b2b2b" fill-rule="evenodd" stroke="none"/>
    <path d="M16.1 -17.9 L16.1 -17.5 15.85 -16.65 16.25 -16.25 16.25 -16.15 15.85 -16.15 13.0 -17.0 9.75 -17.4 10.25 -18.0 10.6 -20.4 9.85 -24.9 11.35 -25.0 12.25 -25.5 12.6 -26.25 15.25 -24.5 15.5 -24.4 16.85 -23.25 17.5 -22.9 18.6 -22.25 16.6 -20.0 16.1 -17.9" fill="#2c2c2c" fill-rule="evenodd" stroke="none"/>
    <path d="M19.25 -25.4 L20.5 -24.65 20.85 -22.75 19.25 -25.4" fill="#6e6e6e" fill-rule="evenodd" stroke="none"/>
    <path d="M16.35 -17.75 L16.1 -17.9 16.6 -20.0 18.6 -22.25 19.0 -22.25 19.25 -21.0 17.5 -19.15 16.35 -17.75 M16.25 -16.25 L16.35 -16.25 16.75 -16.15 16.25 -16.15 16.25 -16.25" fill="#131313" fill-rule="evenodd" stroke="none"/>
    <path d="M5.1 102.6 L-6.15 97.85 -5.65 95.5 6.85 100.0 5.1 102.6 M5.85 -17.4 L4.75 -17.9 4.35 -18.0 4.1 -18.15 3.75 -18.25 3.0 -18.65 1.0 -19.4 1.0 -19.5 0.85 -19.5 1.6 -20.65 Q5.0 -22.25 6.75 -17.15 L5.85 -17.4 M-24.25 22.75 L-23.65 21.0 -23.25 23.6 -24.0 25.35 -25.9 34.75 -26.4 33.6 -26.4 33.1 -26.15 30.5 -25.75 30.1 -24.25 22.75 M-21.75 34.6 L-21.15 38.25 -23.65 48.6 -24.15 49.35 -24.65 46.5 -24.5 45.0 -21.75 34.6 M-25.15 41.75 L-25.4 38.5 -24.75 37.25 -22.65 28.0 -22.25 30.85 -23.75 35.75 -24.75 41.5 -25.15 41.75 M37.6 51.85 L41.5 57.0 41.6 57.75 38.75 69.25 35.0 55.0 35.1 54.25 34.6 53.5 37.6 51.85" fill="#020202" fill-rule="evenodd" stroke="none"/>
    <path d="M23.35 -13.4 L23.85 -13.15 25.6 -10.4 26.75 -5.65 26.35 -3.0 26.85 -1.75 27.6 -1.15 29.35 -1.75 29.25 4.85 29.25 7.5 29.1 8.1 26.85 4.5 25.85 -3.5 23.35 -13.4" fill="#8b8b8b" fill-rule="evenodd" stroke="none"/>
    <path d="M9.25 3.0 L17.5 3.35 26.85 4.5 29.1 8.1 29.6 15.85 29.35 31.0 27.6 38.25 26.85 40.0 26.6 40.6 21.25 43.25 18.6 44.1 13.25 44.5 11.5 19.25 9.25 3.0" fill="#707070" fill-rule="evenodd" stroke="none"/>
    <path d="M31.0 -2.0 L31.25 -1.75 31.35 -1.0 31.6 0.0 31.85 0.6 32.85 4.6 33.0 4.85 33.1 5.5 32.5 4.75 32.25 4.6 31.85 4.5 30.25 4.75 29.75 5.0 29.25 4.85 29.35 -1.75 31.0 -2.0" fill="#363636" fill-rule="evenodd" stroke="none"/>
    <path d="M-14.5 6.0 L-14.75 7.25 -15.4 7.85 -16.75 8.25 -14.5 6.0" fill="#010101" fill-rule="evenodd" stroke="none"/>
    <path d="M-25.65 -1.9 L-24.75 3.6 -23.65 4.85 -27.5 8.5 -27.15 5.0 -25.65 -1.9 M-28.25 22.6 L-28.4 20.0 -22.15 13.85 -23.5 19.85 -23.65 21.0 -24.25 22.75 -28.25 22.6" fill="#6d6d6d" fill-rule="evenodd" stroke="none"/>
    <path d="M-23.65 4.85 L-23.9 2.85 -23.75 2.75 -23.75 2.6 -22.4 1.35 -20.25 -1.25 -20.15 -1.4 -19.75 -0.75 -20.0 -0.65 -22.25 3.1 -23.15 4.35 -23.65 4.85 M34.6 53.5 L35.1 54.25 35.0 55.0 38.75 69.25 38.75 69.75 35.0 70.75 17.75 71.0 14.85 55.25 Q32.85 56.1 34.6 53.5" fill="#333333" fill-rule="evenodd" stroke="none"/>
    <path d="M33.0 7.25 L32.0 8.25 31.35 8.35 30.0 8.1 29.35 7.75 29.25 7.5 29.25 4.85 29.75 5.0 30.25 4.75 31.85 4.5 32.25 4.6 32.5 4.75 33.1 5.5 33.0 7.25 M-20.15 -1.4 L-19.15 -2.0 -16.65 -2.25 -16.65 -2.15 -19.25 0.5 -19.75 0.85 -19.9 0.5 -20.0 -0.65 -19.75 -0.75 -20.15 -1.4" fill="#121212" fill-rule="evenodd" stroke="none"/>
    <path d="M34.25 6.75 L33.0 7.25 33.1 5.5 33.0 4.85 34.25 6.75" fill="#1d1d1d" fill-rule="evenodd" stroke="none"/>
    <path d="M-23.75 2.6 L-23.25 0.85 -23.15 0.85 -23.15 0.75 -22.65 0.5 -21.9 -0.4 -21.4 -0.4 -21.25 -0.65 -20.25 -1.25 -22.4 1.35 -23.75 2.6" fill="#232323" fill-rule="evenodd" stroke="none"/>
    <path d="M-15.15 90.5 L-18.9 87.1 -18.25 83.85 -15.15 90.5 M13.25 44.5 L18.6 44.1 21.25 43.25 22.35 48.75 14.0 48.85 13.85 48.5 14.5 48.5 13.75 48.35 14.1 48.25 13.75 48.1 13.85 47.25 13.5 47.1 14.25 46.85 13.5 46.85 13.35 45.85 14.0 45.75 13.25 45.6 13.5 45.5 13.1 45.1 13.5 45.0 13.1 44.85 13.25 44.5" fill="#353535" fill-rule="evenodd" stroke="none"/>
    <path d="M26.85 40.0 L27.6 38.25 29.35 31.0 29.6 15.85 31.6 16.0 32.1 16.35 38.1 39.6 26.85 40.0" fill="#5b5b5b" fill-rule="evenodd" stroke="none"/>
    <path d="M31.35 8.35 L36.6 19.75 32.1 16.35 31.6 16.0 29.6 15.85 29.1 8.1 29.35 8.1 30.0 8.1 31.35 8.35" fill="#727272" fill-rule="evenodd" stroke="none"/>
    <path d="M29.25 7.5 L29.35 7.75 29.35 8.1 29.1 8.1 29.25 7.5" fill="#dcdcdc" fill-rule="evenodd" stroke="none"/>
    <path d="M29.35 8.1 L29.35 7.75 30.0 8.1 29.35 8.1" fill="#3a3a3a" fill-rule="evenodd" stroke="none"/>
    <path d="M-14.25 15.85 Q-13.0 19.5 -13.4 20.1 L-8.15 31.1 -2.25 40.25 -13.9 40.0 -17.5 16.25 -14.25 15.85" fill="#222222" fill-rule="evenodd" stroke="none"/>
    <path d="M-24.65 69.6 L-27.65 44.85 -26.4 33.6 -25.9 34.75 -25.4 38.5 -25.15 41.75 -24.5 45.0 -24.65 46.5 -24.15 49.35 -23.65 48.6 -21.15 38.25 -21.75 34.6 -22.25 30.85 -22.65 28.0 -23.25 23.6 -23.65 21.0 -23.5 19.85 -17.5 16.25 -13.9 40.0 -20.4 44.6 -20.25 45.35 -23.25 56.35 -23.15 58.1 -24.65 69.6" fill="#191919" fill-rule="evenodd" stroke="none"/>
    <path d="M43.0 43.5 L44.5 57.6 44.1 57.5 42.75 54.6 42.5 55.0 43.5 61.5 Q42.6 61.35 41.6 57.75 L41.5 57.0 37.6 51.85 38.75 48.0 38.1 39.6 43.0 43.5" fill="#454545" fill-rule="evenodd" stroke="none"/>
    <path d="M-18.9 87.1 L-21.15 84.1 -23.4 79.5 -24.65 69.6 -23.15 58.1 -23.25 56.35 -20.25 45.35 -20.4 44.6 -13.9 40.0 -11.65 48.25 -8.75 52.35 -12.0 57.6 -14.25 62.5 Q-16.15 59.75 -16.65 54.35 L-20.4 58.35 -21.15 63.6 -19.75 68.5 -18.0 71.6 -17.15 73.1 -17.0 73.5 -18.25 83.85 -18.9 87.1" fill="#0e0e0e" fill-rule="evenodd" stroke="none"/>
    <path d="M-8.75 52.35 L-2.15 55.35 4.5 55.85 -3.25 71.35 -9.5 71.5 -9.9 71.5 -14.25 62.75 -16.4 68.25 -16.75 71.6 -18.0 71.6 -19.75 68.5 -21.15 63.6 -20.4 58.35 -16.65 54.35 Q-16.15 59.75 -14.25 62.5 L-12.0 57.6 -8.75 52.35" fill="#444444" fill-rule="evenodd" stroke="none"/>
    <path d="M4.5 55.85 L10.35 55.6 10.25 56.5 10.85 56.5 10.75 57.0 10.1 57.1 9.25 65.5 9.5 67.1 8.25 75.85 8.5 78.1 7.75 78.1 -9.5 71.5 -3.25 71.35 4.5 55.85 M-18.0 71.6 L-16.75 71.6 -17.15 73.1 -18.0 71.6" fill="#313131" fill-rule="evenodd" stroke="none"/>
    <path d="M-16.4 68.25 L-14.25 62.75 -9.9 71.5 -16.4 68.25" fill="#030603" fill-rule="evenodd" stroke="none"/>
    <path d="M5.0 43.35 L7.25 44.1 13.25 44.5 13.1 44.85 13.5 45.0 13.1 45.1 13.5 45.5 13.25 45.6 14.0 45.75 13.35 45.85 13.5 46.85 14.25 46.85 13.5 47.1 13.85 47.25 13.75 48.1 14.1 48.25 13.75 48.35 14.5 48.5 13.85 48.5 14.0 48.85 6.0 48.85 5.0 43.35" fill="#323232" fill-rule="evenodd" stroke="none"/>
    <path d="M44.5 57.6 L43.5 61.75 39.35 70.5 39.1 70.75 38.75 69.75 38.75 69.25 41.6 57.75 Q42.6 61.35 43.5 61.5 L42.5 55.0 42.75 54.6 44.1 57.5 44.5 57.6" fill="#040404" fill-rule="evenodd" stroke="none"/>
    <path d="M43.5 61.75 L44.25 67.25 39.35 70.5 43.5 61.75" fill="#141b13" fill-rule="evenodd" stroke="none"/>
    <path d="M44.25 67.25 L43.1 72.5 36.6 81.5 36.25 81.5 Q37.1 80.5 35.35 73.6 L39.1 70.75 39.35 70.5 44.25 67.25" fill="#303030" fill-rule="evenodd" stroke="none"/>
    <path d="M-6.15 97.85 L-8.25 96.75 -12.5 92.85 -15.15 89.1 -15.15 89.85 -14.75 91.25 -15.15 90.5 -18.25 83.85 -17.0 73.5 -5.65 82.75 -6.15 90.1 -5.65 95.5 -6.15 97.85" fill="#070707" fill-rule="evenodd" stroke="none"/>
    <path d="M39.1 70.75 L35.35 73.6 Q37.1 80.5 36.25 81.5 L37.0 83.85 Q36.6 86.5 37.6 88.5 L36.85 91.0 36.5 94.35 25.85 99.5 16.75 96.75 16.6 90.75 26.0 90.5 26.0 88.25 25.6 87.85 16.1 86.0 16.35 85.1 16.0 84.6 Q16.6 83.85 15.5 78.0 L23.0 77.85 39.1 70.75" fill="#4d4d4d" fill-rule="evenodd" stroke="none"/>
    <path d="M25.6 87.85 L26.0 88.25 26.0 90.5 16.6 90.75 16.75 90.25 16.35 89.85 16.75 89.35 16.25 88.25 25.6 87.85" fill="#535353" fill-rule="evenodd" stroke="none"/>
    <path d="M16.1 86.0 L25.6 87.85 16.25 88.25 16.1 86.0" fill="#636363" fill-rule="evenodd" stroke="none"/>
    <path d="M7.1 88.35 L16.1 86.0 16.25 88.25 7.1 88.35" fill="#434343" fill-rule="evenodd" stroke="none"/>
    <path d="M16.6 90.75 L7.1 90.85 6.85 89.25 7.1 88.35 16.25 88.25 16.75 89.35 16.35 89.85 16.75 90.25 16.6 90.75" fill="#2d2d2d" fill-rule="evenodd" stroke="none"/>
    <path d="M-24.15 25.75 L-24.0 25.35 -24.0 25.0 -23.65 24.35 -23.4 22.85 -23.0 24.6 -22.65 28.0 -23.0 28.85 -23.25 29.85 -23.25 30.25 -23.4 31.25 -24.75 36.35 -24.75 37.25 -25.15 37.5 -25.5 39.0 -26.0 34.75 -26.0 33.85 -25.9 33.85 -25.4 31.85 -25.5 31.85 -25.4 31.35 -25.4 31.0 -24.9 29.35 -24.9 28.85 -24.65 28.75 -24.65 27.75 -24.0 25.75 -24.15 25.75 M-23.0 32.6 L-23.0 32.1 -22.4 30.25 -21.75 34.6 -22.15 35.5 -22.4 36.6 -22.5 37.6 -23.15 39.75 -23.25 40.0 -23.25 40.6 -24.0 43.6 -24.25 43.85 -24.5 45.1 -25.4 42.6 -25.25 42.5 -25.15 42.1 -25.15 41.25 -25.0 41.25 -24.65 40.1 -24.65 39.1 -24.5 39.0 -24.4 38.1 -23.75 36.0 -23.75 35.35 -23.5 35.1 -23.4 34.35 -23.0 33.0 -23.15 33.0 -23.0 32.6 M-14.4 63.0 L-16.4 68.35 -16.75 71.6 -17.15 72.75 -17.15 73.1 -19.75 68.6 -19.75 68.5 -20.65 65.35 -20.75 64.85 -21.0 64.5 -21.15 63.6 -21.15 63.0 -20.5 58.5 -20.5 58.25 -19.9 57.85 -16.9 54.35 -15.65 59.1 -15.65 59.5 -14.5 62.35 -14.4 62.5 -14.4 63.0" fill="#000000" fill-opacity="0.50980395" fill-rule="evenodd" stroke="none"/>
    <path d="M43.25 61.85 L39.85 69.1 39.35 70.5 39.1 70.75 29.1 75.0 28.75 75.25 23.0 77.85 15.6 78.0 15.1 76.75 15.5 76.75 15.0 72.5 15.35 72.25 15.0 67.75 15.25 58.1 15.0 56.0 14.85 55.85 15.0 55.6 14.85 55.6 14.85 55.25 15.5 55.35 23.5 55.75 31.35 55.0 37.5 52.0 37.75 52.1 38.5 53.0 38.85 53.35 38.85 53.5 39.25 54.25 41.25 56.85 41.5 57.1 41.6 57.75 43.1 61.35 43.35 61.5 43.35 61.75 43.25 61.85" fill="#0c0c0c" fill-opacity="0.50980395" fill-rule="evenodd" stroke="none"/>
    <path d="M14.35 55.25 L14.85 55.25 14.85 55.6 14.85 55.85 14.5 56.0 14.35 55.25" fill="#0c0c0c" fill-rule="evenodd" stroke="none"/>
    <path d="M15.25 78.0 L8.0 78.1 7.5 78.0 7.35 78.0 -9.75 71.6 -9.75 71.5 -10.15 71.25 -14.25 63.0 -14.4 63.0 -14.4 62.5 -14.5 62.35 -13.4 60.6 -12.15 57.75 -8.9 52.5 -8.75 52.35 -2.0 55.35 4.5 55.85 14.35 55.25 14.5 56.0 15.0 72.5 15.1 76.75 15.25 78.0" fill="#060606" fill-opacity="0.50980395" fill-rule="evenodd" stroke="none"/>
    <path d="M43.5 60.75 L44.25 58.25 44.85 61.85 44.25 65.6 43.25 61.85 43.35 61.75 43.35 61.5 43.5 61.1 43.5 60.75" fill="#040404" fill-rule="evenodd" stroke="none"/>
    <path d="M43.5 60.75 L42.6 54.6 44.25 57.25 44.1 57.35 44.35 57.5 44.25 58.25 43.5 60.75" fill="#040404" fill-opacity="0.50980395" fill-rule="evenodd" stroke="none"/>
    <path d="M15.6 78.0 L15.25 78.0 15.1 76.75 15.0 72.5 14.5 56.0 14.85 55.85 14.85 55.6 15.0 55.6 14.85 55.85 15.0 56.0 15.25 58.1 15.0 67.75 15.35 72.25 15.0 72.5 15.5 76.75 15.1 76.75 15.6 78.0" fill="#0f0f0f" fill-rule="evenodd" stroke="none"/>
  </g>
</svg>
