<?xml version="1.0" encoding="UTF-8" standalone="no"?>
<svg xmlns:xlink="http://www.w3.org/1999/xlink" height="291.85px" width="359.6px" xmlns="http://www.w3.org/2000/svg">
  <g transform="matrix(1.0, 0.0, 0.0, 1.0, 165.75, 146.5)">
    <path d="M32.1 -1.9 L183.0 32.1 193.85 37.5 193.1 38.6 192.1 38.25 181.35 33.1 34.75 0.0 34.0 -0.25 24.1 -2.4 23.6 -2.5 18.75 -3.65 17.35 -4.0 16.35 -4.4 19.0 -4.65 19.1 -4.9 26.85 -3.15 27.25 -3.15 32.1 -1.9 M-0.9 -135.15 L-10.65 -128.5 -14.25 -126.0 -16.0 -125.0 -16.9 -125.9 -17.65 -125.5 -17.65 -127.9 -16.5 -128.75 -16.0 -129.15 -15.65 -129.25 Q-14.65 -129.15 -11.15 -133.75 L-2.4 -139.75 -2.15 -135.9 -0.9 -135.15 M-21.4 -146.25 L-21.0 -141.75 -21.25 -137.15 -21.0 -131.25 -21.15 -130.15 -21.4 -129.9 -21.5 -129.75 -22.25 -129.25 -22.65 -129.15 -22.65 -129.0 -23.15 -128.65 -23.25 -128.9 -23.4 -129.65 Q-22.4 -132.65 -24.4 -134.75 L-24.65 -143.75 -21.4 -146.25 M-27.65 -121.9 L-27.5 -121.9 -27.25 -121.75 -27.5 -119.5 -27.75 -119.4 -27.9 -119.25 -27.65 -117.9 -29.65 -116.65 Q-30.25 -114.15 -39.5 -108.25 L-40.75 -107.75 -41.75 -108.5 -41.65 -112.4 -27.65 -121.9 M-24.15 -116.65 L-24.0 -117.25 -22.0 -118.5 -21.9 -118.0 -22.15 -114.9 -20.5 -111.25 -20.5 -102.25 -19.25 -101.65 -22.9 -99.25 -24.0 -100.15 -24.0 -116.4 -24.15 -116.65 M19.75 -15.0 L19.35 -15.65 Q29.25 -19.15 31.6 -11.4 29.0 -17.4 21.25 -14.0 L19.75 -15.0 M0.0 -7.9 L-0.15 -7.9 -0.9 -8.15 -3.15 -8.65 -3.65 -8.75 -3.75 -8.75 -13.75 -11.0 -13.9 -11.0 -14.15 -11.15 -14.75 -11.25 -25.75 -13.75 -26.65 -13.0 -27.4 -11.0 -27.5 -8.9 -28.0 -10.65 -27.15 -13.0 -26.4 -13.9 -32.4 -15.25 -156.25 -43.25 Q-166.0 -47.0 -165.75 -49.4 L-158.5 -45.25 -156.5 -44.65 -13.4 -12.25 -11.9 -12.0 -10.15 -11.5 -9.75 -11.5 -9.25 -11.4 -9.15 -11.4 -3.5 -10.0 -3.15 -10.0 -2.65 -9.9 -2.5 -9.9 0.0 -9.25 0.25 -9.25 1.85 -8.0 2.0 -7.5 0.0 -7.9 M-34.9 145.35 L-43.25 143.35 -43.5 143.25 -43.25 142.0 -34.75 144.1 -34.9 145.35" fill="#000000" fill-rule="evenodd" stroke="none"/>
    <path d="M-2.4 -139.75 L-2.0 -139.9 -0.9 -139.15 -0.9 -135.15 -2.15 -135.9 -2.4 -139.75 M0.0 -7.9 L2.85 -6.75 4.1 -5.75 2.85 0.35 2.85 2.25 2.85 2.35 2.6 3.6 2.5 3.85 2.5 4.0 -0.25 13.5 -0.4 13.75 -1.5 17.75 -8.75 18.35 -11.15 8.1 -11.15 6.5 -12.75 -2.0 -12.65 -3.25 -14.15 -11.15 -13.9 -11.0 -13.75 -11.0 -3.75 -8.75 Q-5.15 -3.25 -4.25 -2.5 L-3.15 -8.65 -0.9 -8.15 -0.15 -7.9 0.0 -7.9 M-13.0 -16.65 L-12.75 -17.25 -12.0 -20.15 -12.0 -20.5 -11.5 -21.15 -11.9 -21.65 2.35 -21.65 3.85 -14.25 0.5 -14.65 0.1 -13.75 -1.9 -14.15 -2.15 -14.15 -2.65 -14.25 -3.25 -14.4 -7.15 -15.25 -9.15 -15.75 -9.4 -15.9 -10.15 -16.0 -10.75 -16.15 -11.5 -16.25 -11.9 -16.4 -13.0 -16.65 M-0.25 0.0 L-2.25 11.75 -2.25 12.25 -1.9 12.25 0.25 0.0 -0.15 -0.25 -0.25 0.0 M6.1 17.25 L7.85 10.75 8.0 10.35 8.0 10.1 8.25 9.75 9.75 17.1 6.1 17.25 M-16.15 105.25 L-17.75 103.6 -17.9 103.6 -17.65 102.75 -17.4 102.25 -16.15 105.25" fill="#3f3f3f" fill-rule="evenodd" stroke="none"/>
    <path d="M-11.5 -126.0 L-13.25 -123.9 -13.65 -124.0 -13.5 -124.25 -13.75 -125.25 -11.5 -126.0 M-21.0 -131.25 L-21.25 -137.15 -21.0 -141.75 -21.4 -146.25 -21.25 -146.5 -19.9 -145.65 -19.75 -131.9 -21.0 -131.25 M8.1 -14.4 Q11.5 -17.5 13.75 -12.9 L13.25 -10.75 12.1 -10.25 10.1 -10.4 8.85 -11.0 7.85 -11.65 8.0 -11.9 7.5 -12.15 8.1 -14.4" fill="#4a4a4a" fill-rule="evenodd" stroke="none"/>
    <path d="M-19.75 -131.9 L-17.9 -131.65 -16.65 -130.15 -16.65 -130.0 -16.5 -129.75 -16.5 -128.75 -17.65 -127.9 -17.65 -125.5 -16.9 -125.9 Q-17.25 -121.75 -21.9 -118.0 L-22.0 -118.5 -24.0 -117.25 -24.15 -116.65 -24.75 -116.4 -26.65 -116.65 -27.65 -117.9 -27.9 -119.25 -27.75 -119.4 -27.5 -119.5 -27.25 -121.75 -27.5 -121.9 -27.65 -121.9 Q-27.75 -125.0 -23.4 -129.65 L-23.25 -128.9 -23.15 -128.65 -22.65 -129.0 -22.65 -129.15 -22.25 -129.25 -21.5 -129.75 -21.4 -129.9 -21.15 -130.15 -21.0 -131.25 -19.75 -131.9 M4.6 -4.15 Q9.6 -7.0 11.1 -2.15 L7.35 -2.9 4.5 -3.4 4.6 -4.15 M-23.25 36.6 L-24.0 38.25 -26.25 46.85 -26.65 45.75 -26.5 43.35 -25.9 42.1 -23.65 33.5 -23.25 36.6 M-25.65 51.25 L-22.65 41.6 -22.25 44.5 -23.15 46.35 -23.15 47.35 -24.65 51.85 -25.0 54.25 -25.4 54.5 -25.65 51.25 M4.25 119.1 L-7.0 114.25 -6.5 112.0 6.0 116.85 4.25 119.1 M37.35 68.75 L40.5 73.25 37.75 82.25 35.0 70.0 37.35 68.75 M-21.75 48.75 L-21.15 52.1 -23.4 60.35 -23.65 60.85 -24.0 62.6 -24.5 63.25 -24.75 58.1 -24.5 57.1 -21.75 48.75" fill="#020202" fill-rule="evenodd" stroke="none"/>
    <path d="M-16.5 -129.75 L-16.0 -129.15 -16.5 -128.75 -16.5 -129.75 M-14.25 -126.0 L-13.75 -125.25 -13.5 -124.25 -13.75 -124.15 -13.65 -124.0 Q-14.0 -115.15 -18.4 -115.75 L-20.65 -116.0 -20.65 -117.9 -21.9 -118.0 Q-17.25 -121.75 -16.9 -125.9 L-16.0 -125.0 -14.25 -126.0 M-24.75 -116.4 L-24.15 -116.65 -24.0 -116.4 -24.75 -116.4" fill="#262626" fill-rule="evenodd" stroke="none"/>
    <path d="M-10.65 -128.5 L-10.4 -127.75 -10.9 -127.75 -10.5 -126.9 -11.5 -126.0 -13.75 -125.25 -14.25 -126.0 -10.65 -128.5" fill="#2d2d2d" fill-rule="evenodd" stroke="none"/>
    <path d="M-10.4 -127.75 L-10.15 -127.15 -10.5 -126.9 -10.9 -127.75 -10.4 -127.75 M-20.75 12.25 L-20.0 12.0 -20.0 12.25 -21.65 13.6 -20.75 12.25 M2.6 72.6 L10.0 72.5 10.0 72.85 9.5 73.0 8.85 78.5 9.1 79.0 7.5 87.75 7.5 89.35 7.1 89.85 Q7.75 90.1 8.35 94.5 L8.0 95.0 7.1 95.0 -10.25 88.1 -12.0 84.25 -4.15 84.1 2.6 72.6" fill="#313131" fill-rule="evenodd" stroke="none"/>
    <path d="M-10.15 -127.15 L-10.15 -126.5 Q-12.4 -121.0 -10.15 -117.75 L-10.5 -117.4 -10.9 -88.4 -10.9 -88.0 -10.9 -82.25 -10.25 -78.0 -10.15 -76.5 -10.15 -75.75 -9.65 -72.15 -9.75 -69.75 -10.5 -71.75 -13.65 -71.75 -13.65 -73.5 -14.15 -74.75 -14.0 -96.0 -13.5 -96.15 -13.75 -101.65 -13.0 -123.25 -13.25 -123.9 -11.5 -126.0 -10.5 -126.9 -10.15 -127.15 M-13.25 -92.65 L-13.65 -92.75 -13.75 -84.15 -13.4 -82.9 -13.25 -92.65 M8.0 95.0 L8.35 94.5 Q7.75 90.1 7.1 89.85 L7.5 89.35 7.5 87.75 9.1 79.0 8.85 78.5 9.5 73.0 10.0 72.85 10.0 72.5 14.75 72.1 16.75 83.75 34.0 83.6 37.75 82.75 38.6 87.1 38.6 87.25 22.1 94.75 14.75 94.85 8.0 95.0" fill="#464646" fill-rule="evenodd" stroke="none"/>
    <path d="M-10.15 -126.5 L-9.25 -125.65 -8.4 -125.4 -7.25 -122.75 Q-7.0 -116.65 -10.15 -117.75 -12.4 -121.0 -10.15 -126.5 M-13.65 -124.0 L-13.75 -124.15 -13.5 -124.25 -13.65 -124.0" fill="#2c2c2c" fill-rule="evenodd" stroke="none"/>
    <path d="M-10.9 -88.4 L-7.25 -88.4 3.0 -87.15 21.0 -84.15 20.5 -84.0 9.85 -86.0 -6.25 -87.9 -10.9 -88.0 -10.9 -88.4 M-10.15 -75.75 L-10.15 -76.5 -5.0 -75.65 -10.15 -75.75 M-55.15 -87.0 L-43.65 -88.4 -29.4 -89.15 -20.15 -88.75 -19.65 -88.25 -31.15 -88.65 -46.15 -87.9 -54.75 -86.9 -55.15 -87.0 M-20.0 -77.0 L-20.25 -76.65 -19.75 -76.15 -20.15 -76.15 -26.25 -76.4 -20.0 -77.0 M6.6 105.5 L15.6 103.1 15.75 105.35 6.6 105.5" fill="#373737" fill-rule="evenodd" stroke="none"/>
    <path d="M21.0 -84.15 L23.25 -83.9 Q25.0 -83.15 26.75 -79.65 L26.6 -78.75 26.6 -78.4 26.25 -77.4 26.25 -77.25 26.1 -77.0 24.5 -77.75 23.6 -77.75 21.6 -77.4 21.35 -77.65 23.25 -77.75 23.25 -78.25 24.5 -79.0 23.6 -81.9 21.6 -82.15 22.25 -82.9 23.35 -82.65 23.35 -83.25 21.85 -83.4 20.5 -84.0 21.0 -84.15 M26.0 -76.5 L25.6 -75.5 24.5 -75.15 22.5 -75.4 24.75 -75.75 26.0 -76.5 M-19.25 -101.65 L-20.5 -102.25 -20.5 -111.25 -22.15 -114.9 -21.9 -118.0 -20.65 -117.9 -20.65 -116.0 Q-21.5 -114.5 -19.4 -111.25 L-19.25 -101.65" fill="#686868" fill-rule="evenodd" stroke="none"/>
    <path d="M-10.25 -78.0 L-10.9 -82.25 -10.9 -88.0 -6.25 -87.9 9.85 -86.0 20.5 -84.0 21.85 -83.4 23.35 -83.25 23.35 -82.65 22.25 -82.9 21.6 -82.15 23.6 -81.9 24.5 -79.0 23.25 -78.25 23.25 -77.75 21.35 -77.65 10.75 -77.25 -10.25 -78.0" fill="#555555" fill-rule="evenodd" stroke="none"/>
    <path d="M32.1 -1.9 L27.25 -3.15 26.85 -3.15 19.1 -4.9 19.1 -5.15 19.35 -6.15 33.25 -5.9 33.1 -5.25 27.8 -5.15 33.0 -5.15 32.6 -3.25 27.25 -3.15 32.5 -3.15 32.1 -1.9 M32.1 -6.4 L19.35 -6.25 19.5 -6.65 19.6 -6.9 25.35 -6.9 19.5 -6.65 29.6 -6.65 29.75 -7.0 32.1 -6.4 M-13.25 -123.9 L-13.0 -123.25 -13.75 -101.65 -13.5 -96.15 -14.0 -96.0 -14.15 -74.75 -13.65 -73.5 -13.65 -71.75 -13.75 -71.75 -17.15 -72.0 -19.25 -68.25 -22.5 -64.5 -22.0 -67.75 -20.15 -76.15 -19.75 -76.15 -20.25 -76.65 -20.0 -77.0 -19.5 -77.25 -19.5 -78.4 -18.75 -80.75 -18.9 -82.25 -19.4 -83.0 -19.25 -87.25 -19.4 -87.75 -18.4 -115.75 Q-14.0 -115.15 -13.65 -124.0 L-13.25 -123.9 M-13.25 -92.65 L-13.4 -82.9 -13.75 -84.15 -13.65 -92.75 -13.25 -92.65 M20.25 -9.15 L21.75 -8.75 22.0 -8.75 22.25 -8.65 22.35 -8.65 25.0 -8.0 24.0 -7.75 19.85 -8.0 20.0 -8.25 20.0 -8.65 20.25 -9.15 M19.6 -7.15 L19.85 -7.65 26.25 -7.75 29.0 -7.15 28.25 -6.9 24.5 -7.4 19.6 -7.15 M-34.25 -21.5 L-13.0 -16.65 -11.9 -16.4 -11.5 -16.25 -10.75 -16.15 -10.9 -15.9 -10.15 -16.0 -9.4 -15.9 -9.75 -15.65 -9.15 -15.75 -7.15 -15.25 -3.25 -14.4 -10.3 -14.25 -2.65 -14.25 -2.15 -14.15 -1.9 -14.15 0.1 -13.75 -0.15 -12.5 -0.4 -11.9 -0.5 -11.25 -0.65 -11.15 Q-6.5 -11.75 -0.75 -10.5 L-0.65 -10.5 -0.75 -10.0 -3.15 -10.0 -3.5 -10.0 -9.15 -11.4 -5.15 -11.5 -5.4 -11.15 -4.9 -11.15 -4.65 -11.65 -5.25 -11.75 -3.75 -12.0 -9.15 -12.15 -6.4 -12.25 -7.4 -12.4 -7.1 -12.55 -13.25 -12.75 -13.4 -12.25 -156.5 -44.65 -158.5 -45.25 -165.75 -49.4 -163.15 -53.15 -154.9 -48.65 -34.25 -21.5 M-11.15 -15.25 L-10.4 -15.25 -11.0 -15.5 -11.15 -15.25 M-12.25 -15.25 L-11.5 -15.25 -12.15 -15.5 -12.25 -15.25 M-11.9 -16.15 L-12.0 -15.9 -11.25 -15.9 -11.9 -16.15 M-11.9 -12.0 L-8.9 -11.75 -10.15 -11.5 -11.9 -12.0 M-8.15 -15.25 L-8.75 -15.5 -8.9 -15.25 -8.15 -15.25 M-10.0 -15.25 L-9.25 -15.25 -9.9 -15.5 -10.0 -15.25 M-1.75 -11.75 L-1.65 -12.0 -2.5 -11.9 -1.75 -11.75 M-0.9 -12.65 L-1.15 -12.75 -2.25 -12.4 -2.65 -12.5 -2.0 -12.75 -3.75 -12.4 -3.15 -12.75 -3.9 -12.75 -4.0 -12.25 -0.5 -12.25 -1.5 -12.4 -0.9 -12.65 M-0.9 -9.9 L-0.75 -9.5 0.0 -9.25 -2.5 -9.9 -0.9 -9.9 M-2.9 -11.75 L-2.75 -12.0 -3.65 -11.9 -2.9 -11.75 M-3.65 -11.0 L-3.75 -11.4 -4.25 -11.15 -3.65 -11.0 M-4.25 -12.75 L-5.0 -12.75 -4.65 -12.5 -4.25 -12.75 M32.25 13.1 L31.85 11.6 31.75 11.35 33.75 11.6 34.1 11.75 34.25 11.75 34.5 11.85 35.1 12.25 36.0 12.6 36.85 14.0 36.85 14.1 37.35 15.6 37.1 16.0 37.25 16.1 36.25 18.0 32.25 13.1 M22.1 -0.75 L22.5 -0.75 19.75 12.35 19.25 12.25 20.75 4.25 Q21.35 -0.5 22.1 -0.75" fill="#080808" fill-rule="evenodd" stroke="none"/>
    <path d="M-19.65 -88.25 L-19.4 -87.75 -19.25 -87.25 -19.4 -83.0 -18.9 -82.25 -18.75 -80.75 -19.5 -78.4 -41.5 -79.15 -52.9 -80.25 -54.75 -80.5 -54.75 -81.15 -56.25 -81.9 -56.25 -84.75 -54.65 -85.0 -55.25 -85.75 -56.9 -85.9 -56.75 -86.25 -54.9 -86.5 -54.75 -86.9 -46.15 -87.9 -31.15 -88.65 -19.65 -88.25 M-30.4 27.25 L-29.25 30.1 -28.75 30.5 -28.65 31.25 -23.15 31.35 -23.4 32.75 -23.65 33.5 -25.9 42.1 -26.5 43.35 -26.65 45.75 -27.15 47.35 -28.15 56.1 -30.25 39.35 -30.4 27.25 M-26.25 46.85 L-24.0 38.25 -23.25 36.6 -22.65 41.6 -25.65 51.25 -26.25 46.85 M-25.4 54.5 L-25.0 54.25 -24.65 51.85 -23.15 47.35 -23.15 46.35 -22.25 44.5 -21.75 48.75 -24.5 57.1 -24.75 58.1 -25.0 57.1 -25.4 54.5 M43.0 59.1 L44.0 73.1 43.5 72.85 42.5 70.6 42.1 70.5 43.0 76.5 42.85 78.5 41.0 73.6 40.5 73.25 37.35 68.75 38.6 64.35 38.1 55.35 43.0 59.1 M-56.15 -80.65 L-55.65 -80.9 -55.25 -80.65 -56.15 -80.65 M5.0 59.5 L7.75 60.35 13.0 60.6 13.6 60.85 13.0 61.0 13.35 61.35 13.25 61.85 13.6 62.0 13.25 62.25 13.5 63.5 14.0 63.5 13.5 63.75 13.6 64.25 14.25 64.25 13.6 64.5 14.0 64.85 13.85 65.35 6.0 65.5 5.0 59.5 M2.6 72.6 L-4.15 84.1 -12.0 84.25 -12.4 84.0 -8.4 69.35 -2.25 72.25 2.6 72.6 M-16.9 70.35 L-20.4 82.0 -21.4 79.0 -20.65 73.85 -16.9 70.35" fill="#3d3d3d" fill-rule="evenodd" stroke="none"/>
    <path d="M-54.75 -78.15 Q-58.75 -77.4 -59.9 -81.25 L-59.9 -82.5 -59.0 -85.4 -57.75 -86.9 -55.15 -87.0 -54.75 -86.9 -54.9 -86.5 -56.75 -86.25 -56.9 -85.9 -55.25 -85.75 -54.65 -85.0 -56.25 -84.75 -56.25 -81.9 -54.75 -81.15 -54.75 -80.5 -52.9 -80.25 -54.5 -80.25 -55.25 -80.65 -55.65 -80.9 -56.15 -80.65 -57.4 -80.65 -58.4 -80.0 -58.4 -79.65 -55.9 -78.4 -55.5 -78.4 -54.75 -78.15 M33.35 18.6 L33.35 18.0 33.25 17.35 34.5 19.5 33.6 19.85 33.6 18.85 33.35 18.6 M42.35 88.35 L41.1 92.75 Q42.6 100.85 40.1 106.5 L35.1 113.1 35.35 111.1 35.75 107.75 36.75 105.6 Q36.25 99.1 35.25 98.75 L35.5 98.25 36.0 98.0 42.35 88.35" fill="#1c1c1c" fill-rule="evenodd" stroke="none"/>
    <path d="M-19.5 -78.4 L-19.5 -77.25 -20.0 -77.0 -26.25 -76.4 -42.9 -76.65 -54.75 -78.15 -55.5 -78.4 -55.9 -78.4 -58.4 -79.65 -58.4 -80.0 -57.4 -80.65 -56.15 -80.65 -55.25 -80.65 -54.5 -80.25 -52.9 -80.25 -41.5 -79.15 -19.5 -78.4 M-16.65 -29.75 L-15.9 -29.4 -15.75 -29.25 -13.4 -27.9 Q-9.75 -28.5 -9.15 -26.4 L-9.75 -25.5 -9.75 -23.25 -10.25 -22.65 -10.75 -22.65 -12.0 -22.4 -11.9 -21.65 -12.25 -21.25 -12.0 -20.5 -12.0 -20.15 -12.75 -17.25 -13.0 -16.65 -34.25 -21.5 -35.15 -26.15 -33.65 -30.4 -30.75 -31.15 -26.25 -31.4 -20.65 -31.65 -16.65 -29.75 M-27.5 -8.9 L-27.5 -8.65 -27.25 -6.75 Q-28.0 -6.75 -30.25 -9.9 L-32.4 -15.25 -26.4 -13.9 -27.15 -13.0 -28.0 -10.65 -27.5 -8.9" fill="#202020" fill-rule="evenodd" stroke="none"/>
    <path d="M42.0 -100.65 L41.85 -99.4 38.0 -96.4 37.35 -95.5 37.75 -97.25 38.5 -97.5 42.0 -100.65 M-13.15 86.6 L-10.25 88.1 -7.25 90.6 -6.25 99.35 -14.5 91.85 -14.4 91.0 -13.15 86.6" fill="#0e0e0e" fill-rule="evenodd" stroke="none"/>
    <path d="M26.75 -79.65 L32.25 -98.0 36.75 -101.75 42.0 -100.65 38.5 -97.5 37.75 -97.25 37.35 -95.5 37.35 -95.4 36.85 -93.65 36.75 -93.15 36.6 -92.75 35.75 -89.5 35.6 -89.15 35.5 -88.65 35.35 -88.25 34.5 -85.0 34.35 -84.65 33.5 -81.4 33.35 -81.0 33.25 -80.5 33.1 -80.15 33.0 -79.65 32.35 -77.4 32.25 -76.9 32.1 -76.5 31.1 -72.9 31.0 -72.4 30.85 -72.0 30.0 -68.75 29.85 -68.4 28.75 -64.25 27.85 -61.15 27.75 -60.65 27.6 -60.25 26.6 -56.65 26.5 -56.15 24.35 -48.5 23.1 -44.0 23.0 -43.5 22.1 -40.4 19.5 -30.9 19.35 -30.75 19.25 -30.25 17.1 -22.75 13.1 -23.5 12.75 -17.65 9.85 -17.75 8.75 -17.15 10.0 -21.5 11.1 -25.65 11.6 -27.0 11.75 -27.65 12.25 -29.5 12.25 -29.65 25.75 -75.5 25.6 -75.5 26.0 -76.5 26.1 -77.0 26.25 -77.25 26.25 -77.4 26.6 -78.4 26.6 -78.75 26.75 -79.65 M-19.25 -68.25 L-17.15 -72.0 -13.75 -71.75 -13.65 -71.75 -12.65 -66.0 -10.4 -57.15 -10.0 -57.0 -7.75 -46.75 -7.5 -46.9 -7.25 -46.15 -7.25 -45.75 -7.65 -45.9 -4.9 -37.5 -9.5 -35.65 -15.9 -29.4 -16.65 -29.75 -17.25 -48.25 -18.65 -56.15 -19.0 -64.25 -18.75 -65.0 -19.25 -68.25 M11.1 -2.15 L11.35 -2.25 9.1 6.25 9.0 6.5 9.0 6.6 6.5 6.0 7.35 -2.9 11.1 -2.15 M-17.4 29.5 L-14.0 29.1 Q-12.9 32.85 -13.25 33.85 L-9.15 43.5 -9.0 43.6 -12.5 55.5 -13.75 55.6 -17.4 29.5 M-2.25 55.85 L-4.65 55.85 -4.15 54.0 -3.9 53.5 -2.25 55.85" fill="#1f1f1f" fill-rule="evenodd" stroke="none"/>
    <path d="M19.25 -30.25 L21.25 -30.75 29.35 -30.0 32.85 -29.15 Q34.6 -11.4 32.25 -9.4 L31.6 -11.4 Q29.25 -19.15 19.35 -15.65 L17.0 -20.15 16.6 -20.75 17.1 -22.75 19.25 -30.25 M11.75 -27.65 L11.6 -27.0 11.1 -25.65 10.6 -26.25 11.1 -27.65 11.75 -27.65 M18.75 -14.65 L18.85 -14.9 19.25 -14.65 18.75 -14.65 M-23.5 17.25 L-23.5 15.75 -23.25 15.35 -21.65 13.6 -20.0 12.25 -23.25 17.6 -23.5 17.25 M-27.65 7.6 L-26.65 7.1 -29.25 23.0 -28.75 30.5 -29.25 30.1 -30.4 27.25 -30.4 18.85 -27.65 7.6 M5.0 59.5 L6.0 65.5 13.85 65.35 14.75 72.1 10.0 72.5 2.6 72.6 -2.25 72.25 -8.4 69.35 -4.65 55.85 -2.25 55.85 -1.4 56.75 5.0 59.5 M-13.15 57.25 L-13.75 55.6 -12.5 55.5 -13.15 57.25" fill="#303030" fill-rule="evenodd" stroke="none"/>
    <path d="M24.1 -2.4 L34.0 -0.25 34.75 0.0 37.75 11.6 Q38.35 15.25 37.35 15.6 L36.85 14.1 36.85 14.0 36.0 12.6 35.1 12.25 34.5 11.85 34.25 11.75 34.1 11.75 33.75 11.6 31.75 11.35 29.85 11.6 27.85 12.1 27.6 11.75 27.0 10.1 Q28.1 8.35 26.25 1.85 L24.1 -1.4 24.1 -2.4 M33.25 -6.25 L32.1 -6.4 29.75 -7.0 29.35 -7.0 29.1 -7.15 29.0 -7.15 26.25 -7.75 25.1 -8.0 25.0 -8.0 22.35 -8.65 22.35 -9.25 22.35 -9.5 21.6 -11.75 21.25 -14.0 Q29.0 -17.4 31.6 -11.4 L32.25 -9.4 33.25 -6.25" fill="#656565" fill-rule="evenodd" stroke="none"/>
    <path d="M18.75 -3.65 L23.6 -2.5 24.1 -1.4 26.35 9.35 27.5 18.6 9.75 17.1 8.25 9.75 8.25 9.35 8.75 7.6 Q11.85 7.1 12.0 5.6 L14.0 -3.75 16.6 -3.9 16.5 -2.25 16.85 -2.25 17.1 -3.75 18.75 -3.5 18.75 -3.65 M10.0 -21.5 L8.75 -17.15 8.75 -17.0 7.35 -14.4 3.85 -14.25 2.35 -21.65 10.0 -21.5 M16.5 -20.4 L17.0 -20.15 19.35 -15.65 19.75 -15.0 21.6 -11.75 22.35 -9.5 22.35 -9.25 22.25 -8.65 22.0 -8.75 21.75 -8.75 20.25 -9.15 20.25 -9.25 20.35 -9.9 18.5 -10.65 19.25 -14.65 18.85 -14.9 18.75 -14.65 17.85 -10.75 14.6 -12.5 14.6 -14.15 14.75 -14.25 14.75 -14.65 14.85 -14.75 15.0 -15.0 16.5 -20.4 M22.1 -0.75 Q21.35 -0.5 20.75 4.25 L19.25 12.25 19.75 12.35 22.5 -0.75 22.1 -1.15 22.1 -0.75" fill="#666666" fill-rule="evenodd" stroke="none"/>
    <path d="M17.0 -20.15 L16.5 -20.4 16.6 -20.75 17.0 -20.15 M21.6 -11.75 L19.75 -15.0 21.25 -14.0 21.6 -11.75" fill="#6d6d6d" fill-rule="evenodd" stroke="none"/>
    <path d="M12.75 -17.65 L13.1 -23.5 17.1 -22.75 16.6 -20.75 16.5 -20.4 15.0 -15.0 14.85 -14.75 14.75 -14.65 14.75 -15.9 14.0 -16.9 12.75 -17.65 M11.5 -2.75 L11.6 -3.25 11.6 -3.0 11.5 -2.75 M-1.5 17.75 L-0.4 13.75 -0.25 13.5 2.5 4.0 2.5 3.85 2.6 3.6 3.1 1.85 3.25 1.5 3.35 1.0 4.25 -1.9 4.25 -2.0 4.35 -2.4 4.5 -2.75 4.5 -3.25 4.5 -3.4 7.35 -2.9 6.5 6.0 9.0 6.6 8.75 7.6 8.25 9.35 8.0 10.1 8.0 10.35 7.85 10.75 6.1 17.25 -3.9 53.5 -4.15 54.0 -4.65 55.85 -8.4 69.35 -12.4 84.0 -12.5 84.25 -13.15 86.5 -13.15 86.6 -14.4 91.0 -14.5 91.85 -14.75 92.35 -17.4 102.25 -17.65 102.75 -17.9 103.6 -18.0 104.1 -22.15 119.0 -22.15 119.1 -23.2 123.0 -26.5 134.6 -34.75 144.1 -43.25 142.0 -34.9 132.25 -23.75 93.85 -23.75 93.6 -20.4 82.35 -20.4 82.0 -16.9 70.35 -16.75 70.0 -13.15 57.6 -13.15 57.25 -12.5 55.5 -9.0 43.6 -9.15 43.5 -7.65 38.6 -7.5 38.35 -6.25 33.85 -6.15 33.6 -2.4 20.75 -2.25 20.5 -1.5 17.75 M-14.4 18.35 Q-13.75 21.25 -16.25 21.5 L-17.15 21.35 -18.25 20.5 -18.5 18.85 -18.5 18.75 -18.25 18.5 -17.75 18.1 -17.0 17.85 -15.4 17.75 -14.4 18.35" fill="#111111" fill-rule="evenodd" stroke="none"/>
    <path d="M26.1 -77.0 L26.0 -76.5 24.75 -75.75 22.5 -75.4 9.0 -74.75 -3.65 -75.5 -4.0 -75.65 -5.0 -75.65 -10.15 -76.5 -10.25 -78.0 10.75 -77.25 21.35 -77.65 21.6 -77.4 23.6 -77.75 24.5 -77.75 26.1 -77.0" fill="#323232" fill-rule="evenodd" stroke="none"/>
    <path d="M-9.75 -69.75 L-9.65 -72.15 -8.0 -66.0 -8.25 -65.65 -9.75 -69.75" fill="#252525" fill-rule="evenodd" stroke="none"/>
    <path d="M-13.65 -71.75 L-10.5 -71.75 -9.75 -69.75 -8.25 -65.65 -7.9 -63.65 -5.5 -60.0 -3.4 -55.75 -0.15 -47.5 0.75 -46.25 0.75 -46.15 1.1 -45.25 1.1 -45.15 1.75 -43.65 1.75 -43.5 1.85 -43.15 2.25 -42.15 2.35 -41.75 2.5 -41.5 2.6 -41.15 6.1 -32.0 0.1 -35.4 -4.9 -37.5 -7.65 -45.9 -7.25 -45.75 -7.25 -46.15 -7.5 -46.9 -7.75 -46.75 -10.0 -57.0 -10.4 -57.15 -12.65 -66.0 -13.65 -71.75" fill="#959595" fill-rule="evenodd" stroke="none"/>
    <path d="M12.25 -29.65 L12.25 -29.5 11.75 -27.65 11.1 -27.65 10.6 -26.25 11.1 -25.65 10.0 -21.5 2.35 -21.65 0.5 -28.4 -0.75 -31.4 -4.9 -37.5 0.1 -35.4 6.1 -32.0 7.6 -31.0 Q12.0 -30.65 12.25 -29.65" fill="#8f8f8f" fill-rule="evenodd" stroke="none"/>
    <path d="M1.75 -43.65 L1.1 -45.15 1.5 -44.9 1.75 -43.65 M0.75 -46.25 L-0.15 -47.5 -3.4 -55.75 -5.5 -60.0 -7.9 -63.65 -8.25 -65.65 -7.65 -64.75 -2.4 -54.75 0.75 -46.25" fill="#333333" fill-rule="evenodd" stroke="none"/>
    <path d="M-8.0 -66.0 L-7.65 -64.75 -8.25 -65.65 -8.0 -66.0 M-15.25 106.85 L-15.75 106.0 -15.75 105.85 -16.15 104.5 -16.0 104.75 -15.25 106.85" fill="#141414" fill-rule="evenodd" stroke="none"/>
    <path d="M-22.5 -64.5 L-19.25 -68.25 -18.75 -65.0 -19.0 -64.25 -18.65 -56.15 -17.25 -48.25 -16.65 -29.75 -20.65 -31.65 -26.25 -31.4 -26.4 -41.5 -25.9 -51.5 -24.4 -60.75 -23.75 -62.25 -22.5 -64.5 M-26.4 2.0 L-25.75 6.5 -26.65 7.1 -27.65 7.6 -26.4 2.0" fill="#030303" fill-rule="evenodd" stroke="none"/>
    <path d="M-22.0 -67.75 L-22.5 -64.5 -23.75 -62.25 -22.0 -67.75" fill="#1e1e1e" fill-rule="evenodd" stroke="none"/>
    <path d="M-15.9 -29.4 L-9.5 -35.65 -4.9 -37.5 -0.75 -31.4 0.5 -28.4 2.35 -21.65 -11.9 -21.65 -12.0 -22.4 -10.75 -22.65 -10.25 -22.65 -9.75 -23.25 -9.75 -25.5 -9.15 -26.4 Q-9.75 -28.5 -13.4 -27.9 L-15.75 -29.25 -15.9 -29.4" fill="#414141" fill-rule="evenodd" stroke="none"/>
    <path d="M-27.5 -8.9 L-27.4 -11.0 -26.65 -13.0 -25.75 -13.75 -14.75 -11.25 -14.9 -10.4 -14.15 -7.4 -14.25 -5.9 -13.4 -1.75 -13.75 1.6 -12.65 7.75 -11.65 9.85 -12.4 12.0 -13.65 11.25 -16.15 11.0 -18.75 11.25 -19.65 11.75 -19.75 11.75 -20.0 12.0 -20.75 12.25 -22.9 14.0 -23.25 15.35 -23.5 15.75 -23.5 17.25 -24.5 16.1 -25.75 6.5 -26.4 2.0 -27.25 -6.75 -27.5 -8.65 -27.5 -8.9" fill="#434343" fill-rule="evenodd" stroke="none"/>
    <path d="M-14.15 -11.15 L-12.65 -3.25 -12.75 -2.0 -11.15 6.5 -11.15 8.1 -8.75 18.35 -12.25 22.0 -14.25 28.0 -14.9 26.85 -15.5 23.35 -16.25 21.5 Q-13.75 21.25 -14.4 18.35 L-15.15 13.75 -16.15 11.0 -13.65 11.25 -12.4 12.0 -11.65 9.85 -12.65 7.75 -13.75 1.6 -13.4 -1.75 -14.25 -5.9 -14.15 -7.4 -14.9 -10.4 -14.75 -11.25 -14.15 -11.15 M-12.0 -20.5 L-12.25 -21.25 -11.9 -21.65 -11.5 -21.15 -12.0 -20.5 M14.6 118.85 L4.25 119.1 6.0 116.85 6.5 116.85 15.1 116.75 14.85 118.25 14.5 118.25 14.6 118.85" fill="#0a0a0a" fill-rule="evenodd" stroke="none"/>
    <path d="M-19.65 11.75 L-18.75 11.25 -16.15 11.0 -15.15 13.75 -14.4 18.35 -15.4 17.75 -17.0 17.85 -17.75 18.1 -18.25 18.5 -18.5 18.75 -18.9 17.25 -18.75 16.25 -19.15 16.1 -18.9 15.5 -19.4 14.25 -19.15 13.6 -19.5 13.25 -19.5 12.85 -19.65 11.75" fill="#1a1a1a" fill-rule="evenodd" stroke="none"/>
    <path d="M-20.0 12.0 L-19.75 11.75 -19.65 11.75 -19.5 12.85 -19.5 13.25 -20.9 16.85 -22.0 19.1 -23.25 17.6 -20.0 12.25 -20.0 12.0" fill="#3b3b3b" fill-rule="evenodd" stroke="none"/>
    <path d="M-23.25 15.35 L-22.9 14.0 -20.75 12.25 -21.65 13.6 -23.25 15.35" fill="#212121" fill-rule="evenodd" stroke="none"/>
    <path d="M3.85 -14.25 L7.35 -14.4 8.1 -14.4 7.5 -12.15 8.0 -11.9 7.85 -11.65 Q3.75 -8.9 4.6 -5.65 L4.1 -5.75 2.85 -6.75 0.0 -7.9 2.0 -7.5 1.85 -8.0 0.25 -9.25 0.0 -9.25 -0.75 -9.5 -0.9 -9.9 -0.75 -10.0 -0.65 -10.5 -0.75 -10.5 -0.65 -10.75 -0.5 -11.0 -0.65 -11.15 -0.5 -11.25 -0.4 -11.9 -0.15 -12.5 0.1 -13.75 0.5 -14.65 3.85 -14.25 M-23.4 32.75 L-17.4 29.5 -13.75 55.6 -20.4 59.85 -23.75 71.35 -23.5 72.1 -25.25 82.35 -28.15 56.1 -27.15 47.35 -26.65 45.75 -26.25 46.85 -25.65 51.25 -25.4 54.5 -25.0 57.1 -24.75 58.1 -24.5 63.25 -24.0 62.6 -23.65 60.85 -23.4 60.35 -21.15 52.1 -21.75 48.75 -22.25 44.5 -22.65 41.6 -23.25 36.6 -23.65 33.5 -23.4 32.75 M24.75 118.6 L14.6 118.85 14.5 118.25 14.85 118.25 15.1 116.75 15.6 116.75 24.85 116.5 24.75 118.6" fill="#171717" fill-rule="evenodd" stroke="none"/>
    <path d="M8.75 -17.15 L9.85 -17.75 12.75 -17.65 14.0 -16.9 14.75 -15.9 14.75 -14.65 14.75 -14.25 14.6 -14.15 14.6 -12.5 13.75 -12.9 Q11.5 -17.5 8.1 -14.4 L7.35 -14.4 8.75 -17.0 8.75 -17.15" fill="#545454" fill-rule="evenodd" stroke="none"/>
    <path d="M193.85 37.5 L183.0 32.1 32.1 -1.9 32.5 -3.15 27.25 -3.15 32.6 -3.25 33.0 -5.15 27.8 -5.15 33.1 -5.25 33.25 -5.9 19.35 -6.15 19.35 -6.25 32.1 -6.4 33.25 -6.25 183.1 27.75 Q193.25 31.5 193.5 33.75 L193.85 37.5 M19.85 -8.0 L24.0 -7.75 25.0 -8.0 25.1 -8.0 26.25 -7.75 19.85 -7.65 19.85 -8.0 M19.6 -6.9 L19.6 -7.15 24.5 -7.4 28.25 -6.9 29.0 -7.15 29.1 -7.15 29.35 -7.0 29.75 -7.0 29.6 -6.65 19.5 -6.65 25.35 -6.9 19.6 -6.9 M-3.25 -14.4 L-2.65 -14.25 -10.3 -14.25 -3.25 -14.4 M-10.15 -16.0 L-10.9 -15.9 -10.75 -16.15 -10.15 -16.0 M-11.9 -16.15 L-11.25 -15.9 -12.0 -15.9 -11.9 -16.15 M-12.25 -15.25 L-12.15 -15.5 -11.5 -15.25 -12.25 -15.25 M-11.15 -15.25 L-11.0 -15.5 -10.4 -15.25 -11.15 -15.25 M-9.4 -15.9 L-9.15 -15.75 -9.75 -15.65 -9.4 -15.9 M-10.0 -15.25 L-9.9 -15.5 -9.25 -15.25 -10.0 -15.25 M-8.15 -15.25 L-8.9 -15.25 -8.75 -15.5 -8.15 -15.25 M-10.15 -11.5 L-8.9 -11.75 -11.9 -12.0 -13.4 -12.25 -13.25 -12.75 -7.1 -12.55 -7.4 -12.4 -6.4 -12.25 -9.15 -12.15 -3.75 -12.0 -5.25 -11.75 -4.65 -11.65 -4.9 -11.15 -5.4 -11.15 -5.15 -11.5 -9.15 -11.4 -9.25 -11.4 -9.75 -11.5 -10.15 -11.5 M-0.9 -12.65 L-1.5 -12.4 -0.5 -12.25 -4.0 -12.25 -3.9 -12.75 -3.15 -12.75 -3.75 -12.4 -2.0 -12.75 -2.65 -12.5 -2.25 -12.4 -1.15 -12.75 -0.9 -12.65 M-1.75 -11.75 L-2.5 -11.9 -1.65 -12.0 -1.75 -11.75 M-0.65 -11.15 L-0.5 -11.0 -0.65 -10.75 -0.75 -10.5 Q-6.5 -11.75 -0.65 -11.15 M-0.75 -10.0 L-0.9 -9.9 -2.5 -9.9 -2.65 -9.9 -3.15 -10.0 -0.75 -10.0 M-4.25 -12.75 L-4.65 -12.5 -5.0 -12.75 -4.25 -12.75 M-3.65 -11.0 L-4.25 -11.15 -3.75 -11.4 -3.65 -11.0 M-2.9 -11.75 L-3.65 -11.9 -2.75 -12.0 -2.9 -11.75 M-16.25 21.5 L-15.5 23.35 -14.9 26.85 -14.25 28.0 -14.0 29.1 -17.4 29.5 -23.4 32.75 -23.15 31.35 -20.4 20.1 -19.9 20.25 -18.25 20.5 -17.15 21.35 -16.25 21.5" fill="#1b1b1b" fill-rule="evenodd" stroke="none"/>
    <path d="M17.85 -10.75 L18.75 -14.65 19.25 -14.65 18.5 -10.65 17.85 -10.75 M-3.15 -8.65 L-4.25 -2.5 Q-5.15 -3.25 -3.75 -8.75 L-3.65 -8.75 -3.15 -8.65 M17.1 -3.75 L16.85 -2.25 16.5 -2.25 16.6 -3.9 17.1 -3.75 M-0.25 0.0 L0.25 0.0 -1.9 12.25 -2.25 12.25 -2.25 11.75 -0.25 0.0 M15.75 113.85 L24.85 116.5 15.6 116.75 15.75 113.85" fill="#070707" fill-rule="evenodd" stroke="none"/>
    <path d="M19.1 -4.9 L19.0 -4.65 16.35 -4.4 17.35 -4.0 18.75 -3.65 18.75 -3.5 17.1 -3.75 16.6 -3.9 14.0 -3.75 12.5 -3.75 13.25 -5.4 13.25 -7.0 12.1 -10.25 13.25 -10.75 13.75 -12.9 14.6 -12.5 17.85 -10.75 18.5 -10.65 20.35 -9.9 20.25 -9.25 20.25 -9.15 20.0 -8.65 20.0 -8.25 19.85 -8.0 19.85 -7.65 19.6 -7.15 19.6 -6.9 19.5 -6.65 19.35 -6.25 19.35 -6.15 19.1 -5.15 19.1 -4.9" fill="#393939" fill-rule="evenodd" stroke="none"/>
    <path d="M7.85 -11.65 L8.85 -11.0 10.1 -10.4 12.1 -10.25 13.25 -7.0 13.25 -5.4 12.5 -3.75 11.6 -3.25 11.5 -2.75 11.35 -2.5 11.35 -2.25 11.1 -2.15 Q9.6 -7.0 4.6 -4.15 L4.6 -5.65 Q3.75 -8.9 7.85 -11.65" fill="#222222" fill-rule="evenodd" stroke="none"/>
    <path d="M-8.75 18.35 L-1.5 17.75 -2.25 20.5 -2.4 20.75 -6.15 33.6 -6.25 33.85 -7.5 38.35 -7.65 38.6 -9.15 43.5 -13.25 33.85 Q-12.9 32.85 -14.0 29.1 L-14.25 28.0 -12.25 22.0 -8.75 18.35 M6.1 17.25 L9.75 17.1 12.25 38.5 12.0 38.75 13.35 60.6 13.0 60.6 7.75 60.35 5.0 59.5 -1.4 56.75 -2.25 55.85 -3.9 53.5 6.1 17.25" fill="#242424" fill-rule="evenodd" stroke="none"/>
    <path d="M2.6 3.6 L2.85 2.35 2.85 2.25 3.25 1.5 3.1 1.85 2.6 3.6 M4.5 -2.75 L4.35 -2.9 4.5 -3.25 4.5 -2.75" fill="#0d0d0d" fill-rule="evenodd" stroke="none"/>
    <path d="M4.6 -5.65 L4.6 -4.15 4.5 -3.4 4.5 -3.25 4.35 -2.9 4.5 -2.75 4.35 -2.4 4.25 -2.0 4.25 -1.9 3.35 1.0 3.25 1.5 2.85 2.25 2.85 0.35 4.1 -5.75 4.6 -5.65 M11.6 -3.25 L12.5 -3.75 14.0 -3.75 12.0 5.6 Q11.85 7.1 8.75 7.6 L9.0 6.6 9.0 6.5 9.1 6.25 11.35 -2.25 11.5 -2.75 11.6 -3.0 11.6 -3.25" fill="#0c0c0c" fill-rule="evenodd" stroke="none"/>
    <path d="M23.6 -2.5 L24.1 -2.4 24.1 -1.4 23.6 -2.5 M22.25 -8.65 L22.35 -9.25 22.35 -8.65 22.25 -8.65" fill="#565656" fill-rule="evenodd" stroke="none"/>
    <path d="M11.35 -2.25 L11.35 -2.5 11.5 -2.75 11.35 -2.25 M8.25 9.75 L8.0 10.1 8.25 9.35 8.25 9.75 M44.0 73.1 L43.0 76.5 42.1 70.5 42.5 70.6 43.5 72.85 44.0 73.1 M-23.2 123.0 L-26.4 135.25 -34.9 145.35 -34.75 144.1 -26.5 134.6 -23.2 123.0 M40.5 73.25 L41.0 73.6 42.85 78.5 38.85 87.0 38.6 87.1 37.75 82.75 37.75 82.25 40.5 73.25" fill="#040404" fill-rule="evenodd" stroke="none"/>
    <path d="M22.5 -0.75 L22.1 -0.75 22.1 -1.15 22.5 -0.75" fill="#2f2f2f" fill-rule="evenodd" stroke="none"/>
    <path d="M29.75 18.6 L29.85 11.6 31.75 11.35 31.85 11.6 32.25 13.1 33.1 17.1 33.25 17.35 33.35 18.0 33.35 18.6 33.1 18.35 32.85 18.25 32.6 18.1 32.35 18.0 31.1 18.0 30.6 18.1 30.6 18.25 29.75 18.6" fill="#282828" fill-rule="evenodd" stroke="none"/>
    <path d="M-20.9 16.85 L-19.5 13.25 -19.15 13.6 -19.4 14.25 -20.9 16.85 M27.5 18.6 L26.35 9.35 24.1 -1.4 26.25 1.85 Q28.1 8.35 27.0 10.1 L27.6 11.75 27.85 12.1 29.85 11.6 29.75 18.6 29.6 20.85 29.5 21.75 27.5 18.6" fill="#7d7d7d" fill-rule="evenodd" stroke="none"/>
    <path d="M27.5 18.6 L29.5 21.75 29.85 29.25 29.5 45.75 26.85 55.75 26.85 56.25 21.1 59.35 19.25 60.25 13.35 60.6 12.0 38.75 12.25 38.5 9.75 17.1 27.5 18.6" fill="#747474" fill-rule="evenodd" stroke="none"/>
    <path d="M0.25 0.0 L-0.25 0.0 -0.15 -0.25 0.25 0.0" fill="#2b2b2b" fill-rule="evenodd" stroke="none"/>
    <path d="M-25.75 6.5 L-24.5 16.1 -23.5 17.25 -23.25 17.6 -22.0 19.1 -20.4 20.1 -23.15 31.35 -28.65 31.25 -28.75 30.5 -29.25 23.0 -26.65 7.1 -25.75 6.5" fill="#585858" fill-rule="evenodd" stroke="none"/>
    <path d="M13.35 60.6 L19.25 60.25 21.1 59.35 22.35 65.35 13.85 65.35 14.0 64.85 13.6 64.5 14.25 64.25 13.6 64.25 13.5 63.75 14.0 63.5 13.5 63.5 13.25 62.25 13.6 62.0 13.25 61.85 13.35 61.35 13.0 61.0 13.6 60.85 13.0 60.6 13.35 60.6" fill="#424242" fill-rule="evenodd" stroke="none"/>
    <path d="M21.1 59.35 L26.85 56.25 26.85 55.75 38.1 55.35 38.6 64.35 37.35 68.75 35.0 70.0 Q33.25 73.1 14.75 72.1 L13.85 65.35 22.35 65.35 21.1 59.35" fill="#454545" fill-rule="evenodd" stroke="none"/>
    <path d="M26.85 55.75 L29.5 45.75 29.85 29.25 32.25 29.6 38.1 55.35 26.85 55.75" fill="#4b4b4b" fill-rule="evenodd" stroke="none"/>
    <path d="M32.25 29.6 L36.6 32.75 37.25 34.25 43.0 59.1 38.1 55.35 32.25 29.6" fill="#4d4d4d" fill-rule="evenodd" stroke="none"/>
    <path d="M29.5 21.75 L29.6 20.85 29.75 20.85 30.75 21.6 32.1 21.6 36.6 32.75 32.25 29.6 29.85 29.25 29.5 21.75" fill="#5d5d5d" fill-rule="evenodd" stroke="none"/>
    <path d="M29.6 20.85 L29.75 18.6 30.6 18.25 30.6 18.1 31.1 18.0 32.35 18.0 32.6 18.1 32.85 18.25 33.1 18.35 33.35 18.6 33.6 18.85 33.6 19.85 33.0 21.25 32.1 21.6 30.75 21.6 29.75 20.85 29.6 20.85" fill="#121212" fill-rule="evenodd" stroke="none"/>
    <path d="M33.25 17.35 L33.1 17.1 32.25 13.1 36.25 18.0 34.5 19.5 33.25 17.35" fill="#090909" fill-rule="evenodd" stroke="none"/>
    <path d="M-22.0 19.1 L-20.9 16.85 -19.4 14.25 -18.9 15.5 -19.15 16.1 -19.4 17.85 -19.9 20.25 -20.4 20.1 -22.0 19.1" fill="#7b7b7b" fill-rule="evenodd" stroke="none"/>
    <path d="M-19.15 16.1 L-18.75 16.25 -18.9 17.25 -19.4 17.85 -19.15 16.1" fill="#adadad" fill-rule="evenodd" stroke="none"/>
    <path d="M-18.5 18.75 L-18.5 18.85 -18.25 20.5 -19.9 20.25 -19.4 17.85 -18.9 17.25 -18.5 18.75" fill="#ababab" fill-rule="evenodd" stroke="none"/>
    <path d="M35.0 70.0 L37.75 82.25 37.75 82.75 34.0 83.6 16.75 83.75 14.75 72.1 Q33.25 73.1 35.0 70.0" fill="#343434" fill-rule="evenodd" stroke="none"/>
    <path d="M-23.75 93.6 L-24.25 92.6 -25.25 82.35 -23.5 72.1 -23.75 71.35 -20.4 59.85 -13.75 55.6 -13.15 57.25 -13.15 57.6 -16.75 70.0 -16.9 70.35 -20.65 73.85 -21.4 79.0 -20.4 82.0 -20.4 82.35 -23.75 93.6" fill="#101010" fill-rule="evenodd" stroke="none"/>
    <path d="M-12.0 84.25 L-10.25 88.1 -13.15 86.6 -13.15 86.5 -12.5 84.25 -12.4 84.0 -12.0 84.25" fill="#111710" fill-rule="evenodd" stroke="none"/>
    <path d="M-7.0 114.25 L-8.9 113.0 -14.0 107.75 -16.0 104.75 -16.15 104.5 -15.75 105.85 -16.15 105.25 -17.4 102.25 -14.75 92.35 -14.5 91.85 -6.25 99.35 -6.75 108.5 -6.5 112.0 -7.0 114.25" fill="#060606" fill-rule="evenodd" stroke="none"/>
    <path d="M42.85 78.5 L43.75 83.6 38.85 87.0 42.85 78.5" fill="#141a13" fill-rule="evenodd" stroke="none"/>
    <path d="M43.75 83.6 L42.35 88.35 36.0 98.0 35.5 98.25 Q36.25 97.25 34.75 89.85 L38.6 87.25 38.6 87.1 38.85 87.0 43.75 83.6" fill="#363636" fill-rule="evenodd" stroke="none"/>
    <path d="M15.6 103.1 L15.75 102.35 15.35 102.25 15.75 102.1 15.6 100.75 15.25 100.75 Q14.5 96.6 15.1 96.25 L14.75 94.85 22.1 94.75 38.6 87.25 34.75 89.85 Q36.25 97.25 35.5 98.25 L35.25 98.75 Q36.25 99.1 36.75 105.6 L35.75 107.75 35.35 111.1 24.85 116.5 15.75 113.85 15.85 107.85 25.0 107.75 25.25 107.0 24.85 105.1 15.6 103.1" fill="#444444" fill-rule="evenodd" stroke="none"/>
    <path d="M-10.25 88.1 L7.1 95.0 8.0 95.0 14.75 94.85 15.1 96.25 Q14.5 96.6 15.25 100.75 L15.6 100.75 15.75 102.1 15.35 102.25 15.75 102.35 15.6 103.1 6.6 105.5 6.25 105.5 6.1 108.1 15.85 107.85 15.75 113.85 6.5 116.85 6.0 116.85 -6.5 112.0 -6.75 108.5 -6.25 99.35 -7.25 90.6 -10.25 88.1" fill="#1d1d1d" fill-rule="evenodd" stroke="none"/>
    <path d="M15.75 105.35 L15.85 107.85 6.1 108.1 6.25 105.5 6.6 105.5 15.75 105.35" fill="#232323" fill-rule="evenodd" stroke="none"/>
    <path d="M15.6 103.1 L24.85 105.1 15.75 105.35 15.6 103.1" fill="#4f4f4f" fill-rule="evenodd" stroke="none"/>
    <path d="M24.85 105.1 L25.25 107.0 25.0 107.75 15.85 107.85 15.75 105.35 24.85 105.1" fill="#3a3a3a" fill-rule="evenodd" stroke="none"/>
    <path d="M-14.0 107.75 L-15.25 106.85 -16.0 104.75 -14.0 107.75" fill="#292929" fill-rule="evenodd" stroke="none"/>
    <path d="M35.1 113.1 L24.75 118.6 24.85 116.5 35.35 111.1 35.1 113.1" fill="#0f0f0f" fill-rule="evenodd" stroke="none"/>
    <path d="M6.5 116.85 L15.75 113.85 15.6 116.75 15.1 116.75 6.5 116.85" fill="#050505" fill-rule="evenodd" stroke="none"/>
    <path d="M-24.0 38.5 L-24.0 37.85 -23.25 36.0 -22.9 38.0 -22.9 39.35 -22.65 41.6 -23.4 43.75 -23.5 44.25 -23.75 44.75 -24.15 46.5 -24.25 47.35 -24.9 49.35 -25.0 50.0 -25.5 50.0 -25.75 51.5 -26.0 50.0 -26.0 49.5 -26.4 46.85 -26.25 46.0 -26.15 46.0 -25.65 44.1 -25.5 44.0 -25.5 43.35 -24.9 41.35 -24.75 41.0 -24.75 40.6 -24.0 38.5 M-23.0 45.6 L-22.75 45.35 -22.4 44.1 -22.0 45.5 -21.75 48.75 -22.4 50.1 -22.4 50.6 -23.25 53.5 -23.4 54.35 -24.15 56.35 -24.25 57.0 -24.65 57.1 -24.5 57.25 -24.75 58.35 -25.15 57.1 -25.25 56.35 -25.5 55.6 -25.5 55.0 -25.4 54.85 -25.4 54.1 -25.25 54.1 -24.65 52.1 -24.65 51.35 -24.25 50.6 -23.9 49.25 -23.9 48.75 -23.15 46.5 -23.15 46.35 -23.0 45.6 M-17.0 71.0 L-20.25 82.35 -20.5 82.35 -21.4 79.25 -21.5 78.6 -21.5 77.85 -21.25 77.6 -20.75 73.85 -17.0 70.25 -16.9 70.35 -17.0 71.0" fill="#000000" fill-opacity="0.50980395" fill-rule="evenodd" stroke="none"/>
    <path d="M14.75 72.1 L23.25 72.6 31.25 71.85 31.25 71.75 31.6 71.75 37.35 68.75 37.85 69.6 38.1 69.6 38.25 69.75 40.5 73.25 41.1 73.85 42.5 77.85 42.5 78.6 42.75 78.85 41.0 82.35 39.35 85.35 38.85 87.0 38.6 87.1 38.6 87.25 22.35 94.75 14.85 94.85 14.75 91.25 14.5 90.0 14.4 85.95 14.35 85.25 14.6 85.1 15.1 74.35 14.85 72.75 14.85 72.6 14.75 72.1" fill="#080808" fill-opacity="0.50980395" fill-rule="evenodd" stroke="none"/>
    <path d="M14.75 72.1 L14.85 72.6 14.85 72.75 14.25 72.85 14.25 72.1 14.75 72.1 M42.75 78.85 L42.5 78.6 42.5 77.85 42.6 78.1 42.85 78.5 42.75 78.85" fill="#080808" fill-rule="evenodd" stroke="none"/>
    <path d="M14.35 85.25 L14.4 85.95 14.5 90.0 14.6 94.85 7.35 95.0 6.35 94.6 6.25 94.6 5.85 94.35 5.75 94.35 -10.0 88.25 -10.15 88.25 -10.5 87.85 -10.5 87.75 -12.15 84.35 -12.5 84.25 -12.4 84.1 -12.15 82.85 -10.4 76.85 -10.25 76.1 -8.4 69.35 -2.0 72.25 6.35 72.75 14.25 72.1 14.25 72.85 14.35 85.25" fill="#040404" fill-opacity="0.50980395" fill-rule="evenodd" stroke="none"/>
    <path d="M14.85 72.75 L15.1 74.35 14.6 85.1 14.35 85.25 14.25 72.85 14.85 72.75 M14.5 90.0 L14.75 91.25 14.85 94.85 14.6 94.85 14.5 90.0" fill="#0a0a0a" fill-rule="evenodd" stroke="none"/>
    <path d="M43.75 73.75 L43.0 75.6 42.6 74.6 42.25 71.5 42.25 70.5 43.25 72.25 43.85 73.0 43.75 73.75" fill="#020202" fill-opacity="0.50980395" fill-rule="evenodd" stroke="none"/>
    <path d="M43.75 73.75 L44.35 78.35 43.6 82.1 42.85 78.5 42.85 76.35 43.0 75.6 43.75 73.75" fill="#020202" fill-rule="evenodd" stroke="none"/>
  </g>
</svg>
