<?xml version="1.0" encoding="UTF-8" standalone="no"?>
<svg xmlns:xlink="http://www.w3.org/1999/xlink" height="295.6px" width="367.25px" xmlns="http://www.w3.org/2000/svg">
  <g transform="matrix(1.0, 0.0, 0.0, 1.0, 182.65, 146.5)">
    <path d="M34.5 7.85 L174.1 10.0 184.6 13.0 184.1 14.0 183.5 14.0 173.85 11.1 34.85 9.1 24.35 9.0 18.5 8.85 18.25 8.75 18.75 8.35 20.85 7.75 34.5 7.85 M-3.65 -146.25 L-2.9 -143.75 -1.4 -143.0 -12.5 -129.65 -13.15 -128.9 -14.15 -127.9 -14.75 -127.4 -15.4 -128.4 -15.9 -128.25 -15.9 -128.15 -15.9 -128.1 -16.5 -127.4 -16.65 -127.75 -17.0 -129.15 -16.0 -130.65 Q-14.75 -130.75 -11.25 -137.4 L-3.65 -146.25 M-23.15 -140.65 L-22.75 -140.4 -22.5 -137.5 -22.15 -137.25 -20.75 -129.4 -20.75 -128.75 -21.4 -128.15 -21.65 -127.75 -22.25 -127.15 -22.75 -126.9 Q-22.4 -130.0 -24.65 -130.75 L-26.0 -137.0 -23.15 -140.65 M-21.75 -116.9 L-21.9 -117.9 -19.9 -120.0 -19.65 -119.15 -19.5 -117.15 -17.95 -116.15 -17.75 -116.0 -17.7 -115.85 -17.65 -115.25 -16.25 -108.65 -14.9 -108.0 -15.4 -106.9 -17.65 -104.5 -18.15 -104.15 -19.5 -105.15 -20.75 -112.5 -21.65 -115.5 -21.75 -116.9 M-26.0 -119.5 L-25.9 -119.5 -25.75 -119.15 -25.65 -117.5 -26.0 -117.0 -25.0 -115.9 -27.0 -113.75 -29.5 -109.25 -36.75 -100.65 -38.25 -101.65 -38.65 -104.4 -31.75 -112.25 -28.75 -116.25 -26.25 -118.75 -26.0 -119.5 M4.6 -11.15 L4.75 -11.0 4.6 -10.65 4.6 -11.0 4.6 -11.15 M6.25 -2.15 L6.35 -2.15 6.35 -1.5 6.25 -2.15 M20.25 -4.5 Q31.1 -7.5 32.35 -0.75 30.75 -6.0 22.0 -3.0 L20.6 -3.9 20.25 -4.5 M-27.4 2.1 Q-28.0 -0.5 -26.65 -2.25 L-23.65 -4.9 Q-17.5 -7.75 -12.5 -5.15 L-14.9 -3.75 Q-19.15 -6.5 -24.4 -3.75 -26.65 -2.5 -26.9 -0.4 L-26.9 2.1 -27.4 2.1 M4.0 7.5 L4.6 8.6 3.5 8.6 -3.25 8.6 -3.75 8.6 -12.25 8.5 -13.15 8.35 -26.5 8.25 -170.4 6.25 -171.9 6.1 -182.25 3.0 -182.65 1.6 -172.4 4.75 -170.5 5.0 -11.75 7.25 -8.15 7.25 -7.65 7.35 0.5 7.35 0.85 7.5 1.85 7.5 4.0 7.5 M8.75 12.85 L8.75 13.5 8.6 13.1 8.5 12.5 8.75 12.85 M9.25 16.85 L9.35 18.25 9.25 17.25 9.25 16.85 M9.5 18.75 L9.6 18.25 9.6 19.0 9.5 18.75 M10.35 23.35 L10.6 23.0 10.6 23.35 11.35 27.85 11.85 28.6 11.85 30.25 16.35 57.35 17.75 63.85 22.85 95.25 23.25 95.6 27.25 121.35 32.1 149.1 31.6 149.1 31.5 148.75 28.6 132.0 28.35 130.5 28.5 129.75 28.1 129.1 24.75 109.75 22.6 96.35 21.5 89.25 20.25 81.85 19.1 76.35 16.85 61.1 11.75 31.6 10.5 23.75 10.35 23.35" fill="#000000" fill-rule="evenodd" stroke="none"/>
    <path d="M-1.4 -143.0 L-2.9 -143.75 -3.65 -146.25 -3.5 -146.5 -2.15 -145.75 -1.4 -143.0" fill="#9a9a9a" fill-rule="evenodd" stroke="none"/>
    <path d="M-16.0 -130.65 L-17.0 -129.15 -16.65 -127.75 -16.5 -127.4 -15.9 -128.1 -16.5 -124.15 Q-18.25 -120.25 -19.65 -119.15 L-19.9 -120.0 -21.9 -117.9 -21.75 -116.9 -24.15 -115.75 -25.0 -115.9 -26.0 -117.0 -25.65 -117.5 -25.75 -119.15 -25.9 -119.5 -26.0 -119.5 -25.25 -122.65 Q-23.5 -126.75 -22.75 -126.9 L-22.25 -127.15 -21.65 -127.75 -21.4 -128.15 -20.75 -128.75 -20.75 -129.4 -19.65 -130.5 -17.75 -131.4 -16.25 -131.0 -16.0 -130.75 -16.0 -130.65 M-22.15 -63.0 L-18.75 -66.65 -18.25 -62.9 -18.5 -61.9 -18.15 -52.75 -16.75 -43.65 -15.9 -20.5 -19.65 -22.4 -26.0 -22.15 -26.25 -39.0 -25.65 -49.4 -23.65 -60.75 -22.15 -63.0 M0.85 1.75 L1.5 3.6 1.25 6.0 0.85 4.35 0.5 2.5 0.85 1.75 M-26.9 57.5 L-26.5 54.85 -23.5 46.75 -23.15 49.75 -25.75 56.5 -26.4 59.1 -26.9 57.5 M15.5 11.5 L15.6 12.6 8.85 12.5 8.85 12.85 8.75 12.85 8.75 12.5 8.85 12.25 11.25 10.6 Q14.35 10.1 15.5 11.5 M35.0 86.5 L37.1 85.35 39.25 88.6 36.75 95.0 35.0 86.5 M-25.9 64.0 L-22.65 55.35 -22.25 58.35 -25.65 67.35 -25.9 64.0 M-21.75 63.0 L-21.15 67.35 -23.65 74.25 -23.9 74.75 -24.25 76.25 -24.5 76.75 -24.75 76.6 -25.25 72.6 -25.0 71.5 -23.5 67.85 -21.75 63.0" fill="#020202" fill-rule="evenodd" stroke="none"/>
    <path d="M-20.75 -129.4 L-22.15 -137.25 -22.5 -137.5 -22.75 -140.4 -23.15 -140.65 -22.5 -140.65 -21.5 -139.9 -20.5 -133.5 -19.65 -130.5 -20.75 -129.4" fill="#939393" fill-rule="evenodd" stroke="none"/>
    <path d="M-15.9 -128.1 L-15.9 -128.15 -15.9 -128.25 -15.4 -128.4 -14.75 -127.4 -14.15 -127.9 -12.65 -125.65 -13.15 -128.9 -12.5 -129.65 -9.4 -129.4 -9.0 -129.25 -8.75 -127.75 -9.15 -128.15 -9.25 -127.9 -8.9 -126.9 -9.75 -125.9 -12.25 -125.15 -11.5 -123.75 -11.65 -123.5 -11.9 -123.4 -11.5 -122.15 -10.25 -121.65 -10.15 -120.5 -11.0 -118.4 -11.9 -119.15 -12.0 -117.5 -13.0 -116.0 -14.25 -115.15 -16.25 -114.9 -17.7 -115.85 -17.75 -116.0 -17.95 -116.15 Q-18.75 -117.2 -18.4 -118.9 L-19.65 -119.15 Q-18.25 -120.25 -16.5 -124.15 L-15.9 -128.1 M-21.75 -116.9 L-21.65 -115.5 -24.15 -115.75 -21.75 -116.9 M35.1 119.0 L34.35 115.1 35.0 116.35 35.1 119.0 M34.35 114.85 L32.6 106.0 36.85 104.0 37.35 104.0 33.85 106.1 34.85 112.25 34.75 114.5 34.35 114.85 M30.75 96.25 L29.5 88.6 31.25 88.5 35.0 86.5 36.75 95.0 36.75 95.5 30.75 96.25 M14.5 88.75 L21.5 89.25 22.6 96.35 15.85 96.35 14.5 88.75 M14.25 111.35 L21.75 111.25 24.75 109.75 28.1 129.1 28.5 129.75 28.35 130.5 23.85 132.85 23.5 132.85 14.75 130.5 15.1 130.25 14.75 130.1 Q15.5 129.5 14.85 124.6 L23.85 124.5 24.25 124.35 24.1 121.85 14.85 119.85 14.25 111.35" fill="#323232" fill-rule="evenodd" stroke="none"/>
    <path d="M-14.15 -127.9 L-13.15 -128.9 -12.65 -125.65 -14.15 -127.9" fill="#5b5b5b" fill-rule="evenodd" stroke="none"/>
    <path d="M-8.75 -127.75 L-8.5 -126.75 -8.9 -126.9 -9.25 -127.9 -9.15 -128.15 -8.75 -127.75" fill="#343434" fill-rule="evenodd" stroke="none"/>
    <path d="M-8.9 -117.25 L-9.4 -102.15 -9.5 -101.65 -9.65 -101.5 -10.25 -100.25 -10.4 -100.15 -10.4 -99.65 -9.65 -93.5 -9.9 -88.75 -9.9 -88.25 -10.25 -84.4 -9.5 -77.0 -9.5 -75.5 -9.4 -74.9 -9.0 -71.0 -9.0 -67.5 -9.65 -69.9 -13.15 -69.9 -12.9 -70.65 -13.25 -70.5 -13.4 -87.5 -13.0 -89.5 -12.9 -95.9 -12.5 -96.25 -12.65 -103.25 -12.25 -103.4 -11.75 -115.4 -12.0 -117.5 -11.9 -119.15 -11.0 -118.4 -10.15 -120.5 -10.25 -121.65 -11.5 -122.15 -11.9 -123.4 -11.65 -123.5 -9.75 -125.9 -8.9 -126.9 -8.5 -126.75 Q-10.9 -121.25 -8.9 -117.25 M-12.25 -92.75 L-12.5 -92.9 -12.9 -87.75 -12.65 -77.9 -12.25 -92.75" fill="#414141" fill-rule="evenodd" stroke="none"/>
    <path d="M-9.75 -125.9 L-11.65 -123.5 -11.5 -123.75 -12.25 -125.15 -9.75 -125.9" fill="#313131" fill-rule="evenodd" stroke="none"/>
    <path d="M-12.0 -117.5 L-11.75 -115.4 -12.25 -103.4 -12.65 -103.25 -12.5 -96.25 -12.9 -95.9 -13.0 -89.5 -13.4 -87.5 -13.25 -70.5 -12.9 -70.65 -13.15 -69.9 -13.15 -70.0 -13.25 -70.0 -16.65 -70.0 -18.75 -66.65 -22.15 -63.0 -21.4 -67.5 -19.75 -75.25 -19.25 -75.25 -19.4 -76.15 -19.0 -76.25 -18.9 -77.4 -18.15 -79.75 -18.15 -81.15 -18.75 -82.4 -18.5 -87.15 -18.65 -87.4 -17.65 -104.5 -15.4 -106.9 -14.9 -108.0 -16.25 -114.9 -14.25 -115.15 -13.0 -116.0 -12.0 -117.5 M-12.25 -92.75 L-12.65 -77.9 -12.9 -87.75 -12.5 -92.9 -12.25 -92.75 M32.5 25.0 L33.35 25.1 34.6 25.35 36.75 26.25 37.35 27.35 37.35 27.5 37.6 29.25 37.85 29.35 36.75 31.1 34.85 32.5 33.6 30.25 33.6 30.1 33.5 29.85 33.0 27.25 32.85 27.0 32.75 26.0 32.5 25.0" fill="#080808" fill-rule="evenodd" stroke="none"/>
    <path d="M-14.9 -108.0 L-16.25 -108.65 -17.65 -115.25 -17.7 -115.85 -16.25 -114.9 -14.9 -108.0 M-17.95 -116.15 L-19.5 -117.15 -19.65 -119.15 -18.4 -118.9 Q-18.75 -117.2 -17.95 -116.15" fill="#8a8a8a" fill-rule="evenodd" stroke="none"/>
    <path d="M-8.5 -126.75 L-6.4 -124.65 -5.9 -123.5 -5.65 -120.9 -6.4 -117.65 -7.15 -116.9 -7.75 -116.75 -8.9 -117.25 Q-10.9 -121.25 -8.5 -126.75" fill="#2c2c2c" fill-rule="evenodd" stroke="none"/>
    <path d="M34.5 7.85 L20.85 7.75 21.6 7.6 21.75 5.75 33.75 4.85 34.5 7.85 M-9.4 -102.15 L-7.9 -105.15 -2.4 -104.65 -4.75 -100.0 -4.5 -99.4 -2.5 -88.0 -2.4 -87.65 -0.4 -76.65 0.0 -74.15 9.35 -22.65 11.5 -10.75 12.1 -6.9 5.85 -6.65 6.85 -6.25 12.1 -6.5 12.35 -5.65 12.6 -3.4 11.6 -4.25 10.1 -4.5 8.25 -4.0 7.25 -3.5 7.1 -3.4 6.25 -3.25 6.75 -3.0 6.6 -2.75 6.6 -2.65 6.35 -2.4 6.5 -2.25 6.5 -1.9 6.6 -1.65 6.35 -1.5 6.35 -2.15 6.25 -2.15 6.25 -2.4 6.0 -3.75 6.0 -3.9 4.75 -11.0 4.6 -11.15 -3.75 -62.9 -4.15 -63.25 -3.9 -63.5 -7.25 -81.65 -9.9 -99.15 -10.4 -99.65 -10.4 -100.15 -10.25 -100.25 -9.65 -101.5 -9.5 -101.65 -9.4 -102.15 M6.25 -4.15 L6.1 -3.9 7.6 -3.9 6.25 -4.15 M6.1 -5.0 L7.25 -5.0 6.25 -5.25 6.1 -5.0 M6.0 -5.75 L7.0 -5.75 6.1 -6.0 6.0 -5.75 M12.75 -3.25 L12.6 -3.4 12.75 -3.4 12.75 -3.25 M-27.4 2.1 L-26.9 2.1 -14.0 2.25 -13.25 2.35 -6.0 2.35 -5.5 2.5 -2.4 2.5 -1.9 2.5 0.5 2.5 0.85 4.35 -12.0 5.35 -11.75 7.25 -170.5 5.0 -172.4 4.75 -182.65 1.6 -181.9 -3.5 -171.0 -0.25 -28.25 2.1 -27.4 2.1 M2.1 7.35 L4.0 7.5 1.85 7.5 2.1 7.35 M15.6 12.6 L17.1 21.1 17.1 21.35 17.25 22.0 10.75 22.25 17.35 22.25 17.5 22.85 10.6 23.0 10.5 21.75 10.4 21.1 8.85 12.85 8.85 12.5 15.6 12.6 M14.75 14.25 L14.0 14.1 14.1 14.5 14.75 14.25 M10.4 21.1 L17.1 21.1 16.5 21.0 16.5 20.6 16.1 20.6 16.25 20.85 10.4 21.1 M16.35 20.1 L16.0 20.1 16.35 20.5 16.35 20.1 M43.35 88.5 L42.35 91.35 41.75 86.25 43.35 88.5 M39.25 88.6 L40.6 90.35 42.35 95.1 38.1 103.5 37.6 103.25 37.1 96.5 36.75 95.5 36.75 95.0 39.25 88.6" fill="#030303" fill-rule="evenodd" stroke="none"/>
    <path d="M-2.4 -104.65 L-2.75 -103.0 -4.5 -99.4 -4.75 -100.0 -2.4 -104.65 M37.6 103.25 L38.1 103.5 37.35 104.0 36.85 104.0 37.6 103.25 M23.5 132.85 L23.85 132.85 23.75 134.35 13.1 134.85 13.5 134.25 14.5 133.85 14.5 133.25 23.5 132.85" fill="#1c1c1c" fill-rule="evenodd" stroke="none"/>
    <path d="M-9.65 -93.5 L-10.4 -99.65 -9.9 -99.15 -7.25 -81.65 -3.9 -63.5 -4.15 -63.25 -3.75 -62.9 4.6 -11.15 4.25 -11.4 1.5 -27.75 0.5 -35.75 0.0 -36.65 0.0 -38.5 -0.4 -39.15 -0.25 -40.0 -2.5 -51.5 -2.65 -52.0 -2.65 -52.25 -3.0 -54.4 -6.25 -74.75 -6.5 -75.0 -6.25 -75.5 -6.65 -75.65 -6.4 -76.0 -6.75 -76.9 -6.5 -77.15 -7.5 -81.15 -7.4 -82.0 -8.65 -88.25 -8.65 -88.65 -9.65 -93.5 M4.75 -11.0 L6.0 -3.9 6.0 -3.75 6.25 -2.4 6.25 -2.15 6.35 -1.5 6.35 -0.5 4.75 -8.4 4.6 -10.65 4.75 -11.0 M8.6 13.1 L8.75 13.5 8.75 12.85 8.85 12.85 10.4 21.1 10.5 21.75 10.6 23.0 10.35 23.35 10.25 23.0 10.25 22.75 10.1 22.25 10.0 21.5 9.85 21.25 9.85 20.75 9.75 20.6 9.75 19.75 9.6 19.1 9.6 19.0 9.6 18.25 9.5 18.75 9.35 18.25 9.25 16.85 9.1 16.6 9.1 16.5 8.85 14.5 8.75 14.25 8.75 13.75 8.6 13.1" fill="#010101" fill-rule="evenodd" stroke="none"/>
    <path d="M-2.5 -88.0 L7.85 -86.65 22.35 -83.75 21.75 -83.65 10.75 -85.9 -2.4 -87.65 -2.5 -88.0 M-9.4 -74.9 L-9.5 -75.5 -6.5 -75.0 -6.25 -74.75 -9.4 -74.9 M-9.9 -88.25 L-9.9 -88.75 -8.65 -88.65 -8.65 -88.25 -9.9 -88.25 M-19.0 -88.5 L-18.65 -87.4 -18.5 -87.15 -18.75 -82.4 -18.15 -81.15 -18.15 -79.75 -18.9 -77.4 -41.5 -78.4 -54.25 -79.9 -54.65 -79.9 -54.5 -80.4 -56.15 -81.5 -56.15 -84.65 -54.9 -84.65 -54.4 -85.15 -55.4 -85.9 -56.4 -85.65 -57.0 -86.4 -54.9 -86.65 -54.5 -86.9 -54.75 -87.25 -43.9 -88.5 -29.15 -89.15 -19.0 -88.5 M-29.25 39.0 L-29.75 38.6 -30.65 36.35 -30.5 28.35 -27.75 19.5 -29.65 30.6 -29.25 39.0" fill="#353535" fill-rule="evenodd" stroke="none"/>
    <path d="M-9.5 -77.0 L-10.25 -84.4 -9.9 -88.25 -8.65 -88.25 -7.4 -82.0 -7.5 -81.15 -6.5 -77.15 -6.75 -76.9 -9.5 -77.0 M-0.4 -76.65 L-2.4 -87.65 10.75 -85.9 21.75 -83.65 21.85 -83.25 23.35 -82.75 24.5 -82.75 24.35 -81.9 23.5 -82.25 22.75 -81.4 24.85 -81.0 25.6 -77.9 24.1 -76.5 23.0 -76.4 9.85 -76.15 -0.4 -76.65" fill="#4c4c4c" fill-rule="evenodd" stroke="none"/>
    <path d="M23.85 -74.25 L17.35 -73.65 7.6 -73.65 0.0 -74.15 -0.4 -76.65 9.85 -76.15 23.0 -76.4 24.6 -76.5 25.5 -76.65 27.1 -76.0 27.35 -75.5 25.85 -74.65 23.85 -74.25 M-9.5 -75.5 L-9.5 -77.0 -6.75 -76.9 -6.4 -76.0 -6.65 -75.65 -6.25 -75.5 -6.5 -75.0 -9.5 -75.5 M42.75 74.5 L43.35 88.5 41.75 86.25 42.35 91.35 42.35 95.1 40.6 90.35 39.25 88.6 37.1 85.35 38.5 80.6 37.85 70.85 42.75 74.5" fill="#363636" fill-rule="evenodd" stroke="none"/>
    <path d="M-9.0 -67.5 L-9.0 -71.0 -7.4 -64.25 -7.65 -64.15 -7.9 -64.4 -9.0 -67.5" fill="#272727" fill-rule="evenodd" stroke="none"/>
    <path d="M-13.15 -69.9 L-9.65 -69.9 -9.0 -67.5 -7.9 -64.4 -7.15 -61.0 -5.75 -58.75 -5.9 -58.4 -3.0 -52.4 -2.65 -52.25 -2.65 -52.0 -2.5 -51.5 -0.25 -40.0 -0.4 -39.15 0.0 -38.5 0.0 -36.65 0.5 -35.75 1.5 -27.75 -4.25 -30.65 -5.65 -35.4 -5.5 -36.15 -5.9 -36.4 -7.0 -40.15 -7.0 -40.65 -6.65 -40.75 -7.15 -40.9 -6.75 -41.15 -13.15 -69.9 -13.25 -70.0 -13.15 -70.0 -13.15 -69.9" fill="#8e8e8e" fill-rule="evenodd" stroke="none"/>
    <path d="M9.35 -22.65 L12.6 -21.4 14.35 -18.5 14.5 -18.0 13.85 -17.75 12.0 -18.25 11.5 -16.15 12.6 -15.25 12.75 -14.5 14.25 -12.4 15.1 -11.75 17.1 -11.25 17.35 -10.25 16.75 -10.65 11.5 -10.75 9.35 -22.65 M1.5 -27.75 L4.25 -11.4 4.6 -11.15 4.6 -11.0 3.1 -11.0 2.35 -15.0 0.5 -21.25 -4.25 -30.65 1.5 -27.75" fill="#888888" fill-rule="evenodd" stroke="none"/>
    <path d="M18.5 8.85 L24.35 9.0 27.1 23.1 28.0 33.0 19.25 32.1 17.5 22.85 17.35 22.25 17.25 22.0 17.1 21.35 17.1 21.1 15.6 12.6 15.5 11.5 15.6 9.6 17.35 9.25 17.1 10.25 17.6 10.35 18.0 9.0 18.5 8.85 M23.1 2.85 L21.5 2.85 21.1 2.1 19.75 2.0 20.5 -1.15 20.0 -1.15 19.25 1.85 14.5 0.6 13.35 -1.25 13.35 -2.15 12.75 -3.25 12.75 -3.4 12.6 -3.4 12.35 -5.65 12.1 -6.5 12.1 -6.9 11.5 -10.75 16.75 -10.65 17.35 -10.25 17.85 -9.4 20.25 -4.5 20.6 -3.9 22.5 -0.15 22.6 0.25 22.6 0.35 22.85 1.0 23.0 1.25 23.1 2.85 M4.6 -10.65 L4.75 -8.4 6.35 -0.5 6.35 0.75 5.35 1.0 3.1 -11.0 4.6 -11.0 4.6 -10.65 M10.25 31.6 L8.75 21.35 9.85 21.25 10.0 21.5 10.1 22.25 10.25 22.75 10.25 23.0 10.35 23.35 10.5 23.75 11.75 31.6 10.25 31.6 M23.0 14.35 L19.85 26.1 20.35 26.35 23.5 14.35 23.5 14.0 23.1 14.0 23.0 14.35" fill="#5a5a5a" fill-rule="evenodd" stroke="none"/>
    <path d="M6.75 -3.0 L6.25 -3.25 7.1 -3.4 6.75 -3.0 M12.1 -6.5 L6.85 -6.25 5.85 -6.65 12.1 -6.9 12.1 -6.5 M6.0 -5.75 L6.1 -6.0 7.0 -5.75 6.0 -5.75 M6.1 -5.0 L6.25 -5.25 7.25 -5.0 6.1 -5.0 M6.25 -4.15 L7.6 -3.9 6.1 -3.9 6.25 -4.15 M7.1 9.75 L6.85 8.5 9.35 3.85 Q11.85 5.25 13.75 3.6 L15.5 6.0 15.85 7.0 15.6 9.6 15.5 11.5 Q14.35 10.1 11.25 10.6 L8.85 12.25 8.75 12.5 8.75 12.85 8.5 12.5 8.35 11.6 7.1 9.75 M23.5 14.35 L23.0 14.35 23.1 14.0 23.5 14.0 23.5 14.35 M17.25 22.0 L17.35 22.25 10.75 22.25 17.25 22.0 M17.5 22.85 L19.25 32.1 26.6 72.0 29.5 88.6 30.75 96.25 32.6 106.0 34.35 114.85 34.35 115.1 35.1 119.0 36.25 125.75 40.35 149.1 32.1 149.1 27.25 121.35 23.25 95.6 22.85 95.25 17.75 63.85 16.35 57.35 11.85 30.25 11.85 28.6 11.35 27.85 10.6 23.35 10.6 23.0 17.5 22.85 M14.75 14.25 L14.1 14.5 14.0 14.1 14.75 14.25 M16.35 20.1 L16.35 20.5 16.0 20.1 16.35 20.1 M10.4 21.1 L16.25 20.85 16.1 20.6 16.5 20.6 16.5 21.0 17.1 21.1 10.4 21.1" fill="#282828" fill-rule="evenodd" stroke="none"/>
    <path d="M-55.25 -87.4 L-44.9 -88.65 -28.0 -89.65 -20.0 -89.15 -19.15 -89.0 -19.0 -88.5 -29.15 -89.15 -43.9 -88.5 -54.75 -87.25 -55.25 -87.4 M-26.15 -75.5 L-19.4 -76.15 -19.25 -75.25 -19.75 -75.25 -26.15 -75.5" fill="#333333" fill-rule="evenodd" stroke="none"/>
    <path d="M-54.65 -79.9 L-56.0 -80.25 -56.9 -80.25 -58.5 -79.5 -58.4 -79.25 -57.0 -78.25 -54.65 -77.65 Q-58.0 -76.5 -59.9 -81.0 -60.65 -82.5 -57.9 -87.15 L-55.25 -87.4 -54.75 -87.25 -54.5 -86.9 -54.9 -86.65 -57.0 -86.4 -56.4 -85.65 -55.4 -85.9 -54.4 -85.15 -54.9 -84.65 -56.15 -84.65 -56.15 -81.5 -54.5 -80.4 -54.65 -79.9 M33.6 30.25 L34.85 32.5 34.25 32.75 34.0 32.35 33.6 30.25" fill="#1a1a1a" fill-rule="evenodd" stroke="none"/>
    <path d="M-18.9 -77.4 L-19.0 -76.25 -19.4 -76.15 -26.15 -75.5 -40.15 -75.75 -50.4 -76.75 -54.65 -77.65 -57.0 -78.25 -58.4 -79.25 -58.5 -79.5 -56.9 -80.25 -56.0 -80.25 -54.65 -79.9 -54.25 -79.9 -41.5 -78.4 -18.9 -77.4 M15.0 122.1 L24.1 121.85 24.25 124.35 23.85 124.5 14.85 124.6 15.0 122.1" fill="#222222" fill-rule="evenodd" stroke="none"/>
    <path d="M22.35 -83.75 Q27.0 -83.65 28.1 -76.75 L27.1 -76.0 25.5 -76.65 24.6 -76.5 23.0 -76.4 24.1 -76.5 25.6 -77.9 24.85 -81.0 22.75 -81.4 23.5 -82.25 24.35 -81.9 24.5 -82.75 23.35 -82.75 21.85 -83.25 21.75 -83.65 22.35 -83.75" fill="#626262" fill-rule="evenodd" stroke="none"/>
    <path d="M28.1 -76.75 Q27.25 -73.25 23.85 -74.25 L25.85 -74.65 27.35 -75.5 27.1 -76.0 28.1 -76.75 M32.6 106.0 L30.75 96.25 36.75 95.5 37.1 96.5 37.6 103.25 36.85 104.0 32.6 106.0 M7.75 111.5 L7.6 111.0 8.1 111.0 7.35 110.35 7.85 110.1 7.75 109.75 7.25 109.75 Q7.45 109.65 7.6 109.5 L7.1 109.1 7.1 108.75 7.5 108.75 7.0 108.25 Q7.6 107.6 6.35 103.1 L8.5 92.5 8.25 91.6 8.75 91.5 8.5 90.5 8.6 89.6 9.1 89.25 14.5 88.75 15.85 96.35 22.6 96.35 24.75 109.75 21.75 111.25 14.25 111.35 7.75 111.5" fill="#464646" fill-rule="evenodd" stroke="none"/>
    <path d="M-21.4 -67.5 L-22.15 -63.0 -23.65 -60.75 -21.4 -67.5 M-22.9 28.35 L-22.65 27.6 -21.75 27.0 -22.9 28.35 M14.5 133.25 L14.5 133.85 13.5 134.25 13.1 134.85 3.25 135.1 5.1 133.35 5.5 133.35 14.5 133.25" fill="#1e1e1e" fill-rule="evenodd" stroke="none"/>
    <path d="M-18.75 -66.65 L-16.65 -70.0 -13.25 -70.0 -13.15 -69.9 -6.75 -41.15 -7.15 -40.9 -6.65 -40.75 -7.0 -40.65 -7.0 -40.15 -5.9 -36.4 -5.5 -36.15 -5.65 -35.4 -4.25 -30.65 -8.9 -28.65 Q-13.5 -24.9 -14.75 -21.25 L-15.65 -20.25 -15.9 -20.5 -16.75 -43.65 -18.15 -52.75 -18.5 -61.9 -18.25 -62.9 -18.75 -66.65 M36.25 125.75 L35.1 119.0 35.0 116.35 34.35 115.1 34.35 114.85 34.75 114.5 41.5 104.0 40.25 107.35 40.5 116.1 Q39.1 123.5 36.25 125.75 M-10.5 104.6 L5.25 111.0 7.75 111.5 14.25 111.35 14.85 119.85 6.0 122.25 5.5 122.25 5.35 124.85 14.85 124.6 Q15.5 129.5 14.75 130.1 L15.1 130.25 14.75 130.5 5.5 133.35 5.1 133.35 -7.4 128.25 -7.5 123.0 -7.0 120.75 Q-7.4 117.35 -6.75 115.85 L-7.4 113.25 -7.75 106.75 -10.5 104.6" fill="#171717" fill-rule="evenodd" stroke="none"/>
    <path d="M-15.65 -20.25 L-14.75 -21.25 Q-13.5 -24.9 -8.9 -28.65 L-4.25 -30.65 0.5 -21.25 2.35 -15.0 3.1 -11.0 -10.9 -11.0 -11.25 -11.0 -11.0 -11.5 -11.25 -12.0 -9.5 -12.4 -8.9 -13.25 -9.0 -15.9 -8.25 -16.75 -10.4 -18.75 Q-12.5 -17.9 -15.65 -20.25 M-20.0 25.6 L-19.25 25.35 -19.15 25.35 -19.25 25.6 -19.15 25.6 -19.15 26.0 -20.5 29.5 -21.75 32.0 -22.9 30.6 -20.0 25.6 M-13.75 71.25 L-2.25 71.6 -1.65 72.35 5.0 75.5 5.85 82.0 13.75 81.85 14.1 82.25 14.5 88.75 9.1 89.25 4.5 89.5 0.25 89.1 -2.25 89.0 -8.9 85.85 -11.65 80.85 -13.75 71.25" fill="#383838" fill-rule="evenodd" stroke="none"/>
    <path d="M5.35 1.0 L6.35 0.75 6.5 0.75 7.35 0.5 8.75 0.35 8.6 3.1 9.1 3.25 9.35 3.85 6.85 8.5 7.1 9.75 4.75 9.1 3.5 8.6 4.6 8.6 4.0 7.5 2.1 7.35 1.25 7.25 1.25 6.0 1.5 3.6 0.85 1.75 5.35 1.0 M-15.65 -20.25 Q-12.5 -17.9 -10.4 -18.75 L-8.25 -16.75 -9.0 -15.9 -8.9 -13.25 -9.5 -12.4 -11.25 -12.0 -11.0 -11.5 -11.25 -11.0 -11.5 -10.65 -11.25 -9.9 -11.25 -9.75 -11.4 -9.4 -12.5 -5.15 Q-17.5 -7.75 -23.65 -4.9 L-26.65 -2.25 Q-28.0 -0.5 -27.4 2.1 L-28.25 2.1 Q-32.4 -2.9 -34.65 -17.0 L-33.0 -21.25 -30.25 -21.9 -26.0 -22.15 -19.65 -22.4 -15.9 -20.5 -15.65 -20.25 M-20.25 32.85 L-19.65 33.0 -18.15 33.25 -17.4 34.6 -15.75 35.0 -15.15 36.6 -14.65 40.1 -14.0 41.35 -13.9 42.5 -17.25 43.0 -23.4 46.0 -22.0 40.1 -20.25 32.85" fill="#1b1b1b" fill-rule="evenodd" stroke="none"/>
    <path d="M-3.0 -54.4 L-2.65 -52.25 -3.0 -52.4 -5.9 -58.4 -5.75 -58.75 -7.15 -61.0 -7.9 -64.4 -7.65 -64.15 -7.0 -62.9 -3.0 -54.4" fill="#3c3c3c" fill-rule="evenodd" stroke="none"/>
    <path d="M-7.65 -64.15 L-7.4 -64.25 -7.0 -62.9 -7.65 -64.15" fill="#161616" fill-rule="evenodd" stroke="none"/>
    <path d="M3.1 -11.0 L5.35 1.0 0.85 1.75 0.5 2.5 -1.9 2.5 -1.25 -0.5 -1.65 -0.9 -1.65 -0.5 -2.4 2.5 -5.5 2.5 -6.0 2.35 -13.25 2.35 -13.5 -0.4 -12.5 -5.15 -11.4 -9.4 -11.25 -9.75 -11.25 -9.9 -10.75 -10.5 -10.9 -11.0 3.1 -11.0 M3.5 8.6 L4.75 9.1 3.1 17.35 Q4.0 20.75 8.75 21.35 L10.25 31.6 -0.5 32.0 -8.25 32.75 -10.65 21.25 -12.25 8.5 -3.75 8.6 -3.9 10.0 -3.5 10.0 -3.25 8.6 3.5 8.6 M0.75 15.0 L-1.75 26.0 -1.25 26.1 1.25 15.0 0.85 14.6 0.75 15.0" fill="#3b3b3b" fill-rule="evenodd" stroke="none"/>
    <path d="M-11.25 -11.0 L-10.9 -11.0 -10.75 -10.5 -11.25 -9.9 -11.5 -10.65 -11.25 -11.0 M-14.9 -3.75 L-12.5 -5.15 -13.5 -0.4 -13.25 2.35 -14.0 2.25 -14.9 -3.75 M-12.25 8.5 L-10.65 21.25 -8.25 32.75 -12.0 36.25 -14.0 41.35 -14.65 40.1 -15.15 36.6 -15.75 35.0 Q-13.5 34.6 -13.9 32.1 L-14.75 26.75 -15.5 24.5 -12.0 25.35 -11.75 25.5 -11.0 23.35 Q-13.25 19.75 -13.15 8.35 L-12.25 8.5 M-7.9 130.1 L-7.4 128.25 5.1 133.35 3.25 135.1 -7.9 130.1" fill="#0a0a0a" fill-rule="evenodd" stroke="none"/>
    <path d="M14.35 -18.5 L21.35 -21.25 30.35 -20.5 34.0 -19.65 Q35.6 -1.0 32.75 1.0 L32.35 -0.75 Q31.1 -7.5 20.25 -4.5 L17.85 -9.4 17.85 -10.15 17.35 -10.25 17.1 -11.25 15.1 -11.75 14.25 -12.4 12.75 -14.5 12.6 -15.25 11.5 -16.15 12.0 -18.25 13.85 -17.75 14.5 -18.0 14.35 -18.5 M-1.25 -0.5 L-1.65 -0.5 -1.65 -0.9 -1.25 -0.5" fill="#202020" fill-rule="evenodd" stroke="none"/>
    <path d="M24.35 9.0 L34.85 9.1 38.5 25.75 38.5 27.6 37.85 29.35 37.6 29.25 37.35 27.5 37.35 27.35 36.75 26.25 34.6 25.35 33.35 25.1 32.5 25.0 30.5 25.25 28.35 25.75 27.6 23.75 Q28.85 22.5 27.1 15.6 27.35 14.85 25.0 11.25 L24.35 9.0 M33.35 3.1 L23.1 2.85 23.0 1.25 22.85 1.0 22.6 0.35 22.6 0.25 22.5 -0.15 22.6 -1.0 22.0 -3.0 Q30.75 -6.0 32.35 -0.75 L32.75 1.0 33.35 3.1" fill="#5c5c5c" fill-rule="evenodd" stroke="none"/>
    <path d="M17.35 -10.25 L17.85 -10.15 17.85 -9.4 17.35 -10.25 M20.6 -3.9 L22.0 -3.0 22.6 -1.0 22.5 -0.15 20.6 -3.9 M24.35 9.0 L25.0 11.25 Q27.35 14.85 27.1 15.6 28.85 22.5 27.6 23.75 L28.35 25.75 30.5 25.25 30.25 32.0 30.1 34.5 30.0 36.0 28.0 33.0 27.1 23.1 24.35 9.0" fill="#686868" fill-rule="evenodd" stroke="none"/>
    <path d="M6.35 -1.5 L6.6 -1.65 6.5 -1.9 6.5 -2.25 6.35 -2.4 6.6 -2.65 6.6 -2.75 6.75 -3.0 7.1 -3.4 7.25 -3.5 8.25 -4.0 10.1 -4.5 11.6 -4.25 12.6 -3.4 12.75 -3.25 13.35 -2.15 13.35 -1.25 14.5 0.6 14.0 0.6 12.85 -0.75 11.75 -1.15 9.5 -0.5 8.75 0.35 7.35 0.5 6.5 0.75 6.35 0.75 6.35 -0.5 6.35 -1.5 M-26.9 2.1 L-26.9 -0.4 Q-26.65 -2.5 -24.4 -3.75 -19.15 -6.5 -14.9 -3.75 L-14.0 2.25 -26.9 2.1 M-26.5 8.25 L-13.15 8.35 Q-13.25 19.75 -11.0 23.35 L-11.75 25.5 -12.0 25.35 -15.5 24.5 -18.0 24.75 -19.25 25.35 -20.0 25.6 -21.25 26.5 -21.75 27.0 -22.65 27.6 -22.9 28.35 -22.9 28.5 -23.15 30.25 -24.15 29.0 -25.5 17.1 -26.4 10.75 -26.5 8.25" fill="#404040" fill-rule="evenodd" stroke="none"/>
    <path d="M20.85 7.75 L18.75 8.35 18.25 8.75 18.5 8.85 18.0 9.0 17.35 9.25 15.6 9.6 15.85 7.0 15.5 6.0 13.75 3.6 Q11.85 5.25 9.35 3.85 L9.1 3.25 8.6 3.1 8.75 0.35 9.5 -0.5 11.75 -1.15 12.85 -0.75 14.0 0.6 14.5 0.6 19.25 1.85 19.75 2.0 21.1 2.1 21.5 2.85 21.75 5.75 21.6 7.6 20.85 7.75" fill="#494949" fill-rule="evenodd" stroke="none"/>
    <path d="M0.75 15.0 L1.25 15.0 -1.25 26.1 -1.75 26.0 0.75 15.0 M19.75 2.0 L19.25 1.85 20.0 -1.15 20.5 -1.15 19.75 2.0 M18.0 9.0 L17.6 10.35 17.1 10.25 17.35 9.25 18.0 9.0" fill="#070707" fill-rule="evenodd" stroke="none"/>
    <path d="M-1.65 -0.5 L-1.25 -0.5 -1.9 2.5 -2.4 2.5 -1.65 -0.5 M-3.25 8.6 L-3.5 10.0 -3.9 10.0 -3.75 8.6 -3.25 8.6 M23.0 14.35 L23.5 14.35 20.35 26.35 19.85 26.1 23.0 14.35" fill="#060606" fill-rule="evenodd" stroke="none"/>
    <path d="M184.6 13.0 L174.1 10.0 34.5 7.85 33.75 4.85 21.75 5.75 21.5 2.85 23.1 2.85 33.35 3.1 172.6 5.35 182.25 8.1 184.6 13.0 M1.25 6.0 L1.25 7.25 2.1 7.35 1.85 7.5 0.85 7.5 0.5 7.35 -7.65 7.35 -8.15 7.25 -11.75 7.25 -12.0 5.35 0.85 4.35 1.25 6.0" fill="#131313" fill-rule="evenodd" stroke="none"/>
    <path d="M-27.75 19.0 L-26.4 10.75 -25.5 17.1 -27.5 18.25 -27.75 19.0 M-18.15 32.25 L-17.9 32.1 -17.5 31.75 -17.15 31.6 -15.0 31.35 -14.4 31.5 -13.9 32.1 Q-13.5 34.6 -15.75 35.0 L-17.4 34.6 -18.15 33.25 -18.15 32.25" fill="#111111" fill-rule="evenodd" stroke="none"/>
    <path d="M-27.75 19.5 L-27.75 19.0 -27.5 18.25 -25.5 17.1 -24.15 29.0 -23.15 30.25 -22.9 30.6 -21.75 32.0 -20.25 32.85 -22.0 40.1 -29.15 39.85 -29.25 39.0 -29.65 30.6 -27.75 19.5 M30.1 42.75 L32.5 43.1 37.85 70.85 26.85 71.35 28.0 68.0 28.6 63.85 29.5 61.0 30.1 42.75 M-17.0 119.75 L-20.5 115.5 -19.65 113.25 -19.25 113.5 -19.4 114.0 -17.0 119.75" fill="#4a4a4a" fill-rule="evenodd" stroke="none"/>
    <path d="M4.75 9.1 L7.1 9.75 8.35 11.6 8.5 12.5 8.6 13.1 8.75 13.75 8.75 14.25 8.85 14.5 9.1 16.5 9.1 16.6 9.25 16.85 9.25 17.25 9.35 18.25 9.5 18.75 9.6 19.0 9.6 19.1 9.75 19.75 9.75 20.6 9.85 20.75 9.85 21.25 8.75 21.35 Q4.0 20.75 3.1 17.35 L4.75 9.1 M-17.9 104.85 L-6.75 115.85 Q-7.4 117.35 -7.0 120.75 L-7.5 123.0 -7.4 128.25 -7.9 130.1 -15.4 122.25 -16.65 120.35 -17.0 119.85 -17.0 119.75 -19.4 114.0 -19.25 113.5 -19.65 113.25 -19.75 113.0 -17.9 104.85 M14.75 130.5 L14.5 133.25 5.5 133.35 14.75 130.5" fill="#040404" fill-rule="evenodd" stroke="none"/>
    <path d="M28.0 33.0 L30.0 36.0 30.1 42.75 29.5 61.0 28.6 63.85 28.0 68.0 26.85 71.35 26.6 72.0 19.25 32.1 28.0 33.0 M10.25 31.6 L11.75 31.6 16.85 61.1 19.1 76.35 13.25 76.85 12.25 50.25 10.25 31.6" fill="#737373" fill-rule="evenodd" stroke="none"/>
    <path d="M30.5 25.25 L32.5 25.0 32.75 26.0 32.85 27.0 33.0 27.25 33.5 29.85 33.6 30.1 33.6 30.25 34.0 32.35 33.1 31.75 32.35 31.75 30.6 32.25 30.25 32.0 30.5 25.25" fill="#1d1d1d" fill-rule="evenodd" stroke="none"/>
    <path d="M30.1 34.5 L30.25 32.0 30.6 32.25 32.35 31.75 33.1 31.75 34.0 32.35 34.25 32.75 33.85 34.5 32.85 35.25 31.25 35.25 30.1 34.5" fill="#121212" fill-rule="evenodd" stroke="none"/>
    <path d="M1.25 15.0 L0.75 15.0 0.85 14.6 1.25 15.0 M-17.25 43.0 L-13.9 42.5 -12.5 49.25 -8.5 59.1 -8.25 60.5 -6.9 62.5 -4.4 68.0 -2.25 71.6 -13.75 71.25 -17.25 43.0" fill="#242424" fill-rule="evenodd" stroke="none"/>
    <path d="M-29.25 39.0 L-29.15 39.85 -22.0 40.1 -23.4 46.0 -23.5 46.75 -26.5 54.85 -26.9 57.5 -27.25 58.0 -28.75 67.0 -30.75 48.1 -30.65 36.35 -29.75 38.6 -29.25 39.0 M-26.4 59.1 L-25.75 56.5 -23.15 49.75 -22.65 55.35 -25.9 64.0 -26.4 59.1 M-25.65 67.85 L-25.65 67.35 -22.25 58.35 -21.75 63.0 -23.5 67.85 -25.65 67.85" fill="#3e3e3e" fill-rule="evenodd" stroke="none"/>
    <path d="M-28.75 67.0 L-27.25 58.0 -26.9 57.5 -26.4 59.1 -25.9 64.0 -25.65 67.35 -25.65 67.85 -25.0 71.5 -25.25 72.6 -24.75 76.6 -24.5 76.75 -24.25 76.25 -23.9 74.75 -23.65 74.25 -21.15 67.35 -21.75 63.0 -22.25 58.35 -22.65 55.35 -23.15 49.75 -23.5 46.75 -23.4 46.0 -17.25 43.0 -13.75 71.25 -20.4 75.1 -24.0 85.1 -23.9 86.0 -25.9 95.35 -28.75 67.0" fill="#151515" fill-rule="evenodd" stroke="none"/>
    <path d="M-8.25 32.75 L-0.5 32.0 10.25 31.6 12.25 50.25 13.25 76.85 7.1 76.25 5.0 75.5 -1.65 72.35 -2.25 71.6 -4.4 68.0 -6.9 62.5 -8.25 60.5 -8.5 59.1 -12.5 49.25 -13.9 42.5 -14.0 41.35 -12.0 36.25 -8.25 32.75" fill="#232323" fill-rule="evenodd" stroke="none"/>
    <path d="M23.85 132.85 L28.35 130.5 28.6 132.0 23.75 134.35 23.85 132.85" fill="#0d0d0d" fill-rule="evenodd" stroke="none"/>
    <path d="M29.5 88.6 L26.6 72.0 26.85 71.35 37.85 70.85 38.5 80.6 37.1 85.35 35.0 86.5 31.25 88.5 29.5 88.6 M14.1 81.85 L20.25 81.85 21.5 89.25 14.5 88.75 14.1 82.25 13.75 81.85 14.1 81.85" fill="#515151" fill-rule="evenodd" stroke="none"/>
    <path d="M14.1 81.85 L14.25 81.6 13.6 81.5 14.35 81.35 13.6 81.25 13.85 81.0 13.5 80.25 14.0 79.85 13.5 79.75 14.0 79.5 13.25 79.1 14.0 78.85 13.25 78.75 13.5 78.5 13.1 78.0 13.5 77.5 13.0 77.25 13.25 76.85 19.1 76.35 20.25 81.85 14.1 81.85" fill="#585858" fill-rule="evenodd" stroke="none"/>
    <path d="M-19.25 25.35 L-18.0 24.75 -15.5 24.5 -14.75 26.75 -13.9 32.1 -14.4 31.5 -15.0 31.35 -17.15 31.6 -17.5 31.75 -17.9 32.1 -18.15 32.25 -18.65 30.1 -18.75 29.1 -19.0 27.1 -18.75 26.6 -19.15 26.0 -19.15 25.6 -19.25 25.6 -19.15 25.35 -19.25 25.35" fill="#141414" fill-rule="evenodd" stroke="none"/>
    <path d="M-19.65 33.0 L-19.0 30.35 -18.65 30.1 -18.15 32.25 -18.15 33.25 -19.65 33.0" fill="#7f7f7f" fill-rule="evenodd" stroke="none"/>
    <path d="M-19.0 30.35 L-18.75 29.1 -18.65 30.1 -19.0 30.35" fill="#818181" fill-rule="evenodd" stroke="none"/>
    <path d="M-19.0 27.1 L-18.75 29.1 -19.0 30.35 -19.65 33.0 -20.25 32.85 -21.75 32.0 -20.5 29.5 -19.0 27.1" fill="#5e5e5e" fill-rule="evenodd" stroke="none"/>
    <path d="M-19.0 27.1 L-20.5 29.5 -19.15 26.0 -18.75 26.6 -19.0 27.1" fill="#606060" fill-rule="evenodd" stroke="none"/>
    <path d="M-23.15 30.25 L-22.9 28.5 -22.9 28.35 -21.75 27.0 -21.25 26.5 -20.0 25.6 -22.9 30.6 -23.15 30.25 M43.0 99.85 L41.5 104.0 34.75 114.5 34.85 112.25 33.85 106.1 37.35 104.0 38.1 103.5 43.0 99.85 M-15.4 122.25 L-15.9 122.1 -16.15 121.5 -16.4 121.1 -16.65 120.5 -16.65 120.35 -15.4 122.25" fill="#2e2e2e" fill-rule="evenodd" stroke="none"/>
    <path d="M30.0 36.0 L30.1 34.5 31.25 35.25 32.85 35.25 37.0 46.25 32.5 43.1 30.1 42.75 30.0 36.0" fill="#525252" fill-rule="evenodd" stroke="none"/>
    <path d="M37.0 46.25 L42.75 74.5 37.85 70.85 32.5 43.1 37.0 46.25" fill="#454545" fill-rule="evenodd" stroke="none"/>
    <path d="M0.25 89.1 L-5.15 96.75 -14.25 96.85 -14.9 96.0 -15.25 96.85 -20.9 97.0 -21.9 93.5 -20.9 89.25 -17.0 86.0 -16.0 92.1 Q-15.4 95.5 -14.65 95.75 L-8.9 85.85 -2.25 89.0 0.25 89.1 M-25.0 71.5 L-25.65 67.85 -23.5 67.85 -25.0 71.5" fill="#3f3f3f" fill-rule="evenodd" stroke="none"/>
    <path d="M-25.9 95.35 L-23.9 86.0 -24.0 85.1 -20.4 75.1 -13.75 71.25 -11.65 80.85 -8.9 85.85 -14.65 95.75 Q-15.4 95.5 -16.0 92.1 L-17.0 86.0 -20.9 89.25 -21.9 93.5 -20.9 97.0 -20.65 99.0 -20.4 99.35 -18.0 104.5 -18.0 104.75 -17.9 104.85 -19.75 113.0 -19.65 113.25 -20.5 115.5 -22.4 112.35 -24.9 106.1 -25.9 95.35" fill="#101010" fill-rule="evenodd" stroke="none"/>
    <path d="M9.1 89.25 L8.6 89.6 8.5 90.5 8.75 91.5 8.25 91.6 8.5 92.5 6.35 103.1 Q7.6 107.6 7.0 108.25 L7.5 108.75 7.1 108.75 7.1 109.1 7.6 109.5 Q7.45 109.65 7.25 109.75 L7.75 109.75 7.85 110.1 7.35 110.35 8.1 111.0 7.6 111.0 7.75 111.5 5.25 111.0 -10.5 104.6 -10.75 104.35 -14.25 96.85 -5.15 96.75 0.25 89.1 4.5 89.5 9.1 89.25 M-20.9 97.0 L-15.25 96.85 -17.0 100.75 -18.0 104.5 -20.4 99.35 -20.65 99.0 -20.9 97.0" fill="#3d3d3d" fill-rule="evenodd" stroke="none"/>
    <path d="M-14.25 96.85 L-10.75 104.35 -17.0 100.75 -15.25 96.85 -14.9 96.0 -14.25 96.85" fill="#101610" fill-rule="evenodd" stroke="none"/>
    <path d="M13.25 76.85 L13.0 77.25 13.5 77.5 13.1 78.0 13.5 78.5 13.25 78.75 14.0 78.85 13.25 79.1 14.0 79.5 13.5 79.75 14.0 79.85 13.5 80.25 13.85 81.0 13.6 81.25 14.35 81.35 13.6 81.5 14.25 81.6 14.1 81.85 13.75 81.85 5.85 82.0 5.0 75.5 7.1 76.25 13.25 76.85" fill="#505050" fill-rule="evenodd" stroke="none"/>
    <path d="M-10.75 104.35 L-10.5 104.6 -7.75 106.75 -7.4 113.25 -6.75 115.85 -17.9 104.85 -18.0 104.75 -18.0 104.5 -17.0 100.75 -10.75 104.35" fill="#0e0e0e" fill-rule="evenodd" stroke="none"/>
    <path d="M42.35 95.1 L43.0 99.85 38.1 103.5 42.35 95.1" fill="#131912" fill-rule="evenodd" stroke="none"/>
    <path d="M14.85 119.85 L15.0 122.1 6.0 122.25 14.85 119.85" fill="#252525" fill-rule="evenodd" stroke="none"/>
    <path d="M6.0 122.25 L15.0 122.1 14.85 124.6 5.35 124.85 5.5 122.25 6.0 122.25" fill="#181818" fill-rule="evenodd" stroke="none"/>
    <path d="M15.0 122.1 L14.85 119.85 24.1 121.85 15.0 122.1" fill="#303030" fill-rule="evenodd" stroke="none"/>
    <path d="M14.75 130.5 L23.5 132.85 14.5 133.25 14.75 130.5" fill="#050505" fill-rule="evenodd" stroke="none"/>
    <path d="M-14.9 95.6 L-14.75 95.85 -14.75 96.0 -16.9 100.35 -17.15 100.75 -18.15 104.35 -20.65 99.0 -20.65 98.85 -20.75 98.75 -20.75 98.1 -21.0 97.0 -21.9 94.0 -21.9 92.85 -21.0 89.25 -20.75 89.1 -17.15 86.0 -16.0 91.75 -16.0 92.0 -14.9 95.6 M-24.0 51.0 L-23.25 49.5 -22.65 53.75 -22.65 55.35 -23.4 57.25 -23.5 58.0 -24.25 59.85 -24.4 60.5 -24.65 60.75 -25.15 62.35 -25.25 62.85 -25.5 63.0 -26.0 64.25 -26.5 60.1 -26.5 58.5 -26.4 58.5 -25.75 56.6 -25.65 55.85 -24.9 54.35 -24.9 54.0 -24.75 53.35 -24.0 51.5 -24.0 51.0 M-23.0 59.35 L-22.25 57.85 -21.75 62.1 -21.75 63.0 -22.5 64.85 -22.65 65.5 -23.5 67.5 -23.5 68.0 -23.9 68.6 -24.4 70.0 -24.4 70.5 -24.75 70.75 -25.15 71.75 -25.9 67.75 -25.65 67.0 -25.5 67.0 -24.0 62.6 -24.0 62.5 -23.9 62.0 -23.5 61.5 -23.15 60.25 -23.15 60.0 -23.0 59.35" fill="#000000" fill-opacity="0.50980395" fill-rule="evenodd" stroke="none"/>
    <path d="M14.0 103.0 L14.1 101.1 14.5 97.85 14.25 97.6 14.5 97.25 14.85 90.85 14.75 89.75 14.6 89.35 14.5 88.75 21.5 89.25 22.0 93.35 22.5 95.35 23.1 100.1 23.75 102.85 23.6 103.75 24.75 108.75 24.75 109.6 24.5 109.75 24.1 110.1 21.6 111.25 14.0 111.35 14.1 110.6 14.0 108.85 14.25 104.0 14.0 103.0 M42.1 95.35 L39.5 100.75 39.0 101.25 38.1 103.5 37.35 104.0 36.85 104.0 36.35 104.25 36.1 104.5 32.6 106.0 32.25 103.75 32.0 103.5 32.0 103.35 31.85 102.75 31.85 102.5 31.75 102.1 30.0 92.1 29.85 91.75 29.5 88.6 30.85 88.6 31.0 88.5 31.35 88.5 37.1 85.35 40.6 90.6 42.0 94.35 42.1 95.35" fill="#030303" fill-opacity="0.50980395" fill-rule="evenodd" stroke="none"/>
    <path d="M14.0 89.6 L14.0 88.85 14.5 88.75 14.6 89.35 14.0 89.6 M42.1 95.35 L42.0 94.35 42.35 95.1 42.1 95.35" fill="#030303" fill-rule="evenodd" stroke="none"/>
    <path d="M43.25 88.85 L42.5 90.75 42.35 91.0 42.25 91.0 41.75 86.35 43.25 88.25 43.25 88.85 M14.0 88.85 L14.0 89.6 14.0 97.75 13.85 97.85 14.1 101.1 14.0 103.0 14.0 108.85 14.0 111.35 7.75 111.5 7.0 111.6 4.85 110.75 4.6 110.75 -9.65 104.85 -9.75 104.85 -10.65 104.5 -10.9 104.25 -10.9 104.1 -14.4 96.85 -14.75 96.0 -14.75 95.85 -14.9 95.6 -9.5 87.0 -9.15 86.25 -8.9 85.85 -2.25 88.85 6.25 89.5 14.0 88.85" fill="#010101" fill-opacity="0.50980395" fill-rule="evenodd" stroke="none"/>
    <path d="M14.0 111.35 L14.0 108.85 14.0 103.0 14.25 104.0 14.0 108.85 14.1 110.6 14.0 111.35 M14.1 101.1 L13.85 97.85 14.0 97.75 14.0 89.6 14.6 89.35 14.75 89.75 14.85 90.85 14.5 97.25 14.25 97.6 14.5 97.85 14.1 101.1" fill="#040404" fill-rule="evenodd" stroke="none"/>
    <path d="M43.25 88.85 L43.75 94.25 43.0 98.0 42.35 95.1 42.35 91.0 42.5 90.75 43.25 88.85" fill="#010101" fill-rule="evenodd" stroke="none"/>
  </g>
</svg>
