<?xml version="1.0" encoding="UTF-8" standalone="no"?>
<svg xmlns:xlink="http://www.w3.org/1999/xlink" height="37.0px" width="77.15px" xmlns="http://www.w3.org/2000/svg">
  <g transform="matrix(1.0, 0.0, 0.0, 1.0, 0.0, 0.0)">
    <path d="M72.9 4.9 L73.1 4.75 Q74.7 3.8 74.75 3.5 L73.6 3.05 73.75 2.35 74.0 1.8 73.0 1.65 70.7 2.15 70.2 1.75 69.8 1.25 69.05 2.4 68.9 2.55 64.55 0.0 77.15 0.0 77.15 7.4 72.9 4.9 M58.0 3.5 L57.85 3.75 57.3 3.1 58.0 3.5 M56.6 2.7 L56.05 3.15 55.55 3.7 54.7 2.55 54.05 3.1 53.75 2.5 Q53.5 2.15 53.3 2.15 53.05 2.15 52.6 3.05 52.4 2.45 52.1 2.45 51.95 2.45 51.1 2.95 L50.05 3.6 49.95 3.45 49.9 2.85 Q49.55 3.25 48.95 3.45 L48.15 3.75 47.75 2.8 47.25 1.95 45.65 4.2 Q44.3 6.25 44.3 7.15 L41.25 1.45 40.45 4.85 38.8 2.95 37.25 1.3 Q37.25 2.1 35.9 2.7 34.4 3.35 34.2 3.75 L34.05 3.6 33.9 1.9 32.9 2.25 Q32.15 2.6 32.0 3.05 L31.85 2.95 30.85 1.8 30.7 3.0 30.6 4.25 30.5 4.25 29.7 3.35 28.95 2.35 28.2 2.35 28.05 3.6 27.9 3.5 27.55 2.05 26.15 2.65 Q24.8 3.15 24.2 3.6 L21.75 2.3 17.3 0.0 52.05 0.0 56.6 2.7 M2.15 10.2 L2.1 10.3 1.9 11.25 Q3.85 11.9 4.35 14.0 L4.75 17.45 2.35 15.35 Q2.5 15.95 2.1 16.2 L1.3 16.8 2.15 17.3 Q1.95 17.3 1.95 17.45 L2.95 18.15 2.85 18.3 Q2.1 18.25 1.65 19.55 L2.6 21.25 2.7 21.1 Q3.3 19.9 3.5 18.45 L3.5 18.55 4.05 21.05 4.35 23.3 2.45 25.6 5.4 27.9 3.2 29.4 Q1.9 30.35 1.9 30.55 L2.35 31.65 3.2 32.8 Q3.85 32.0 4.65 31.6 L4.75 31.75 4.75 32.4 5.15 32.15 6.8 33.55 6.9 33.45 7.8 31.25 7.85 31.35 Q9.2 32.9 9.25 33.65 10.15 33.15 13.15 32.6 L16.15 32.15 16.15 32.3 15.0 34.35 15.0 35.05 Q15.5 34.9 15.9 33.95 L16.25 34.7 Q16.35 34.35 16.65 34.35 16.95 34.35 17.3 34.85 L17.4 34.8 17.7 33.9 18.6 35.15 Q19.5 35.7 21.75 35.7 L22.7 35.6 Q19.95 34.8 19.95 34.2 19.95 33.8 20.65 33.7 L23.2 33.65 Q23.2 33.15 22.45 31.5 L22.55 31.5 26.8 34.85 Q27.15 34.1 27.65 33.7 L28.7 35.1 29.35 34.65 Q29.85 34.4 29.95 34.45 L30.0 34.55 30.5 32.75 30.5 32.9 32.15 33.2 32.3 33.05 32.6 33.25 32.9 33.8 33.0 33.7 Q33.0 33.5 33.15 33.4 L34.55 34.35 Q35.3 33.35 41.65 30.75 L41.5 30.95 39.85 33.65 Q41.1 34.25 41.9 35.2 L42.75 34.2 43.25 35.1 43.25 35.05 43.15 34.35 43.3 34.35 44.45 35.1 45.8 33.2 44.05 32.7 42.5 32.15 42.6 32.15 45.55 31.65 46.55 31.55 50.4 33.4 53.55 34.95 57.85 37.0 0.0 37.0 0.0 9.15 2.15 10.2 M74.4 29.85 L74.65 29.55 74.6 29.45 72.85 28.15 74.1 27.3 72.8 24.8 Q71.85 22.65 71.8 21.8 L73.1 22.5 73.1 22.3 72.85 21.8 Q73.05 21.65 73.75 21.4 L73.2 21.1 Q73.2 20.95 73.55 20.5 L74.0 19.5 Q71.3 18.6 70.7 17.9 L73.65 13.1 73.45 12.95 74.0 12.9 77.15 14.75 77.15 31.25 74.4 29.85" fill="#999999" fill-opacity="0.5137255" fill-rule="evenodd" stroke="none"/>
    <path d="M72.9 4.9 L77.15 7.4 77.15 14.75 74.0 12.9 74.05 12.85 74.5 12.65 74.0 12.2 74.25 11.95 Q73.2 11.25 72.85 11.25 72.9 11.15 74.0 10.6 73.3 10.6 72.6 9.9 L74.25 9.1 74.15 9.0 71.7 7.65 71.8 7.55 Q72.4 7.55 73.1 6.95 L70.55 6.15 70.65 6.15 Q70.8 6.05 72.9 4.9 M64.55 0.0 L68.9 2.55 68.0 3.3 67.55 2.7 67.25 2.35 67.75 2.15 66.95 1.65 Q66.2 1.65 66.3 2.05 L64.95 1.05 Q64.55 1.05 64.4 1.7 L64.25 2.55 62.85 1.45 62.1 2.85 61.35 2.15 60.8 2.85 60.45 3.5 60.4 3.45 59.8 2.95 59.05 3.75 58.35 3.2 58.0 3.5 57.3 3.1 56.6 2.7 52.05 0.0 64.55 0.0 M21.75 2.3 Q21.2 2.65 20.65 3.3 L18.8 1.7 18.7 3.95 18.1 3.4 17.5 3.1 Q17.25 3.1 17.05 3.3 L16.45 2.55 16.1 1.9 16.0 1.95 15.35 3.05 15.25 2.95 15.15 1.95 14.35 2.65 13.55 3.5 13.45 3.35 13.3 1.95 13.1 1.95 12.05 2.95 11.05 2.05 11.05 2.35 11.25 3.6 11.15 3.6 10.05 2.4 9.25 1.8 8.55 2.35 7.7 3.05 6.9 1.45 5.0 3.6 3.95 1.45 3.75 2.3 3.6 2.2 2.6 1.05 2.35 2.15 2.35 2.05 2.1 1.85 2.4 3.5 Q2.6 4.85 3.05 5.15 L1.3 5.4 1.3 5.65 Q2.05 6.4 2.05 6.8 L1.65 7.15 2.7 8.05 1.9 8.45 2.2 8.85 2.3 9.35 2.15 10.2 0.0 9.15 0.0 0.0 17.3 0.0 21.75 2.3 M46.55 31.55 L47.7 31.5 Q48.05 31.5 50.0 33.1 L50.4 33.4 46.55 31.55 M53.55 34.95 L54.0 34.7 54.05 35.1 54.15 35.05 54.65 34.35 54.95 34.6 55.05 34.55 55.05 33.9 55.15 33.95 55.8 35.05 59.75 29.3 61.7 33.1 62.35 35.1 62.45 35.05 Q62.6 34.55 63.15 34.15 63.15 34.6 63.6 35.05 L64.0 34.25 64.5 33.4 65.05 34.55 65.15 34.35 Q65.15 33.8 65.8 33.2 66.4 32.65 66.75 32.65 67.35 32.65 68.5 33.8 L69.75 35.05 70.2 33.55 Q70.7 32.1 71.15 31.25 L72.4 32.45 74.35 33.9 74.5 33.4 73.9 31.9 74.1 31.65 74.6 31.35 73.95 30.95 73.75 30.6 74.05 30.15 74.4 29.85 77.15 31.25 77.15 37.0 57.85 37.0 53.55 34.95" fill="#ffffff" fill-opacity="0.5137255" fill-rule="evenodd" stroke="none"/>
  </g>
</svg>
