<?xml version="1.0" encoding="UTF-8" standalone="no"?>
<svg xmlns:xlink="http://www.w3.org/1999/xlink" height="37.0px" width="37.0px" xmlns="http://www.w3.org/2000/svg">
  <g transform="matrix(1.0, 0.0, 0.0, 1.0, 0.0, 0.0)">
    <path d="M34.45 11.4 L34.55 11.3 34.8 11.0 Q33.85 10.7 33.2 10.05 33.2 9.6 33.45 9.35 L33.65 8.85 33.55 8.45 33.05 7.85 Q34.05 7.65 35.25 7.0 L36.9 6.15 35.8 5.15 34.95 4.2 Q35.55 4.2 35.55 3.65 35.55 3.05 34.9 2.15 L33.35 0.0 37.0 0.0 37.0 13.05 34.45 11.4 M37.0 31.55 L37.0 37.0 0.0 37.0 0.0 9.55 1.4 10.4 0.6 10.8 0.85 11.55 1.05 11.95 0.75 12.75 Q0.45 13.0 0.45 13.45 0.45 13.95 0.95 14.75 L1.4 15.6 Q1.4 16.15 1.0 16.7 L0.45 17.6 1.85 18.2 1.7 18.5 Q1.55 18.7 1.55 18.9 1.55 19.1 2.3 19.3 3.0 19.85 3.0 21.9 2.8 21.9 1.95 22.5 L0.9 23.4 1.6 24.0 2.15 24.55 1.8 25.2 1.4 25.7 Q1.4 26.0 2.15 26.75 L1.85 27.35 1.4 27.9 3.1 28.65 Q3.75 28.9 3.75 29.25 L3.15 30.0 Q2.55 30.7 2.55 31.2 L2.7 31.35 Q5.0 31.2 5.0 33.2 L9.15 33.2 8.1 33.95 Q7.2 34.6 7.05 35.1 L7.2 35.1 8.75 34.55 10.4 34.2 Q11.0 34.2 11.6 34.75 12.2 35.25 12.6 35.25 L13.2 33.65 13.65 34.8 14.3 36.05 Q14.95 35.55 16.45 34.85 18.1 34.05 18.6 34.05 18.6 35.0 19.05 36.05 L19.2 35.85 20.25 34.75 Q20.95 34.05 21.45 34.05 L21.9 34.2 22.35 34.8 Q24.55 32.65 25.2 32.4 L25.35 33.5 27.35 32.75 29.05 32.4 29.8 33.1 Q30.45 34.0 30.2 35.1 L34.35 33.05 34.05 32.9 32.95 32.3 32.25 32.25 31.95 30.6 31.35 28.65 31.35 28.2 37.0 31.55 M16.85 0.0 L22.8 0.0 22.2 0.75 21.3 1.7 21.15 1.25 Q21.0 0.9 20.6 0.9 19.5 0.85 18.85 1.3 L18.3 0.95 18.0 0.75 16.85 0.0 M33.35 0.0 L31.75 1.35 Q30.25 2.45 30.05 2.7 30.05 2.0 29.65 1.3 29.25 0.5 28.65 0.3 27.15 1.25 26.75 2.0 L25.85 1.05 24.9 0.45 24.9 1.35 Q24.25 1.45 23.85 0.7 L23.25 0.0 33.35 0.0" fill="#999999" fill-opacity="0.5137255" fill-rule="evenodd" stroke="none"/>
    <path d="M34.45 11.4 L37.0 13.05 37.0 31.55 31.35 28.2 31.35 27.2 31.95 27.2 32.25 27.5 33.05 27.5 Q32.85 27.0 33.25 26.35 33.6 25.7 34.35 25.35 L34.2 25.2 32.9 24.2 Q36.2 22.65 36.9 22.65 L35.6 21.4 34.5 20.1 Q35.1 19.55 36.2 19.65 L36.2 19.5 34.9 18.8 Q34.4 18.45 34.5 18.05 34.9 18.05 36.2 17.3 35.85 17.35 35.15 16.9 L34.5 16.25 34.65 15.95 34.8 15.65 34.6 14.75 34.05 13.8 33.65 13.8 34.95 13.5 36.2 13.05 36.6 13.05 35.6 12.7 Q34.75 12.3 34.2 11.45 L34.45 11.4 M0.0 9.55 L0.0 0.0 8.85 0.0 7.35 2.3 Q5.9 0.6 5.5 0.6 L4.2 1.35 3.6 0.75 2.95 1.35 2.15 1.85 1.4 0.85 Q2.15 2.35 2.15 3.3 L1.8 4.1 1.2 4.7 4.55 8.3 1.4 10.4 0.0 9.55 M16.85 0.0 L18.0 0.75 17.3 0.75 17.0 1.05 Q17.1 0.6 16.65 0.0 L16.85 0.0 M18.3 0.95 L18.85 1.3 18.4 1.8 18.45 2.0 18.3 2.0 18.4 1.8 18.3 0.95 M11.9 0.0 L11.7 0.2 11.0 1.05 10.2 0.0 11.9 0.0 M13.35 0.3 L13.05 0.0 13.75 0.0 13.35 0.3" fill="#ffffff" fill-opacity="0.5137255" fill-rule="evenodd" stroke="none"/>
  </g>
</svg>
