<?xml version="1.0" encoding="UTF-8" standalone="no"?>
<svg xmlns:xlink="http://www.w3.org/1999/xlink" height="44.6px" width="246.4px" xmlns="http://www.w3.org/2000/svg">
  <g transform="matrix(1.0, 0.0, 0.0, 1.0, -555.75, 22.3)">
    <path d="M677.3 -19.8 L677.5 -19.75 710.5 -19.75 710.5 -19.8 677.3 -19.8 M677.6 -17.6 L677.5 -17.7 677.55 -17.6 677.6 -17.6 M675.6 -17.6 L675.65 -17.6 675.55 -17.7 675.6 -17.6 M677.7 -15.25 L677.55 -15.2 677.75 -14.45 677.85 -14.45 677.7 -15.25 M711.85 -17.6 L711.9 -17.6 711.8 -17.7 711.85 -17.6 M727.8 -6.8 L727.45 -6.85 727.65 -6.8 727.8 -6.8 M720.35 -8.75 L720.4 -8.8 720.35 -8.8 720.35 -8.75 M719.95 -8.8 L720.3 -8.8 719.95 -8.9 719.95 -8.8 M606.65 -4.1 L606.9 -4.25 606.95 -4.45 606.65 -4.1 M595.25 -8.6 L594.9 -8.7 594.65 -8.7 595.15 -8.6 595.25 -8.6 M745.85 -8.05 L745.7 -8.1 745.7 -8.0 745.85 -8.05 M736.35 -20.1 L736.45 -20.05 740.8 -18.3 Q744.2 -16.75 749.3 -13.75 754.85 -10.35 756.85 -9.3 L757.1 -9.2 757.6 -9.0 758.4 -8.8 758.4 -9.5 760.8 -9.5 772.85 -8.4 786.7 -7.0 Q792.2 -6.05 795.3 -4.35 L797.45 -2.45 Q798.7 -0.75 799.35 2.0 L799.4 2.15 799.4 2.35 799.85 2.3 Q800.55 2.7 801.15 3.65 L801.3 4.0 801.3 4.1 801.35 4.1 801.4 4.15 Q802.15 5.55 802.15 6.95 L802.15 7.05 Q802.05 12.3 796.6 13.7 L791.4 14.4 786.6 14.85 786.8 13.85 786.85 13.3 786.1 13.15 784.5 13.55 784.15 13.55 784.15 13.75 Q783.6 16.85 781.25 19.25 778.2 22.3 773.9 22.3 769.6 22.3 766.55 19.25 764.4 17.1 763.75 14.3 L763.7 14.1 763.45 14.3 763.4 14.3 763.2 14.25 761.8 14.1 761.6 14.1 761.6 14.25 757.45 14.55 754.15 14.55 753.35 14.55 606.9 14.55 606.75 14.55 606.2 14.65 605.8 14.65 605.2 15.0 604.15 15.15 603.8 15.15 Q603.05 17.4 601.25 19.25 598.2 22.3 593.9 22.3 589.6 22.3 586.55 19.25 584.4 17.1 583.75 14.3 L583.7 14.1 581.5 14.15 581.5 14.9 573.5 14.2 565.1 14.05 Q560.65 13.7 558.45 12.15 556.05 10.5 555.75 7.05 L555.75 6.25 Q555.75 4.35 556.2 3.5 556.4 3.0 557.6 2.1 L558.3 1.3 Q559.05 0.2 559.4 -1.95 560.0 -5.1 561.05 -6.2 561.95 -7.1 564.5 -7.6 L565.5 -7.8 575.95 -9.3 585.25 -10.5 585.45 -10.5 585.9 -10.55 Q588.4 -15.45 594.7 -18.4 L597.5 -19.55 Q603.85 -21.85 611.3 -22.05 L611.55 -22.05 718.8 -22.05 Q727.8 -23.0 736.35 -20.1 M625.3 -19.8 L628.8 -19.8 625.5 -19.9 625.3 -19.8 623.6 -19.8 624.25 -19.65 625.3 -19.8 M633.85 -17.6 L633.75 -17.7 633.8 -17.6 633.85 -17.6 M631.7 -17.6 L631.6 -17.7 631.65 -17.6 631.7 -17.6 M612.9 -18.7 L612.95 -18.7 613.8 -18.85 612.75 -18.85 611.85 -18.85 612.0 -18.8 612.9 -18.7 M629.45 -9.0 L629.35 -9.1 629.35 -9.0 629.45 -9.0 M589.45 15.9 L589.3 15.8 589.15 15.95 589.45 15.9 M594.75 17.6 L594.65 17.6 594.85 17.65 594.95 17.7 594.9 17.65 594.85 17.65 594.75 17.6 M595.3 18.75 L595.25 18.45 595.25 18.8 595.3 18.8 595.3 18.75 M779.05 13.65 L778.95 13.8 778.95 14.0 779.0 13.85 779.0 13.8 779.05 13.75 779.05 13.65 M774.75 17.6 L774.65 17.6 774.85 17.65 774.75 17.6 M775.3 18.75 L775.25 18.45 775.25 18.8 775.3 18.8 775.3 18.75 M754.4 13.3 L754.5 13.3 754.5 13.4 754.6 13.3 754.5 12.5 754.4 13.3 754.3 14.0 754.4 13.9 754.15 14.35 754.25 14.4 754.25 14.35 754.5 13.75 754.4 13.3 M769.3 15.8 L769.15 15.95 769.45 15.9 769.3 15.8" fill="#010101" fill-opacity="0.0" fill-rule="evenodd" stroke="none"/>
  </g>
</svg>
