<?xml version="1.0" encoding="UTF-8" standalone="no"?>
<svg xmlns:xlink="http://www.w3.org/1999/xlink" height="44.35px" width="265.95px" xmlns="http://www.w3.org/2000/svg">
  <g transform="matrix(1.0, 0.0, 0.0, 1.0, 0.0, 0.0)">
    <path d="M256.5 15.85 Q259.25 16.4 260.25 17.4 261.4 18.55 262.0 21.95 262.4 24.3 263.2 25.5 L262.0 25.5 259.4 25.75 258.9 21.9 258.5 20.35 Q257.8 17.95 256.5 15.85 M0.9 28.5 L0.9 28.4 1.1 28.0 6.5 27.9 14.45 27.9 14.75 28.0 14.75 28.3 12.5 28.7 9.65 28.85 5.3 28.7 0.9 28.5 M259.6 28.25 L239.95 28.25 239.7 28.05 239.55 27.8 239.55 27.55 239.6 27.55 239.85 27.4 259.75 27.4 259.9 27.85 259.6 28.25 M184.95 27.3 L211.45 27.2 211.55 27.4 211.65 27.75 Q211.65 28.0 210.7 28.25 L210.5 28.3 210.5 28.15 210.15 28.0 184.9 28.0 183.9 28.0 Q135.2 28.1 86.65 28.65 L85.9 28.65 50.3 29.1 49.8 29.1 45.65 29.15 45.4 29.1 45.0 28.9 44.5 28.65 44.35 28.5 45.25 28.25 45.4 28.15 45.95 28.0 49.85 28.0 50.35 28.0 85.85 27.8 86.7 27.8 183.95 27.35 184.95 27.3" fill="#67686c" fill-rule="evenodd" stroke="none"/>
    <path d="M256.5 15.85 Q257.8 17.95 258.5 20.35 L258.9 21.9 240.9 21.9 Q240.85 20.75 239.6 20.05 238.5 19.4 237.25 19.4 L237.0 19.45 235.6 20.4 Q235.1 20.85 235.05 21.9 L220.2 21.9 Q221.75 20.6 221.75 19.1 L221.55 17.2 221.6 16.45 221.6 16.25 Q221.5 12.35 221.0 10.25 220.4 7.7 218.95 6.3 216.15 3.6 206.8 3.6 L205.4 3.75 209.45 3.95 Q213.25 4.25 215.95 5.2 219.25 6.4 220.1 9.1 220.55 10.65 220.85 14.0 L220.85 14.2 220.85 14.3 220.9 17.5 Q220.9 19.65 220.4 20.65 L219.3 21.9 185.5 21.9 Q186.05 17.25 186.55 14.55 L186.3 14.55 186.4 14.35 186.5 14.35 216.6 14.4 Q216.85 10.6 215.7 8.45 214.4 6.05 211.2 5.4 L209.1 4.85 207.2 4.35 204.3 3.9 205.25 3.8 205.4 3.75 204.45 3.7 202.75 3.7 202.65 3.7 202.35 3.65 192.85 2.7 192.75 2.7 190.9 2.7 190.7 2.6 187.1 2.7 180.8 2.7 146.7 2.7 140.7 2.7 139.0 2.7 134.75 2.7 98.95 2.7 93.85 2.7 93.1 2.6 92.55 2.5 83.6 3.05 75.2 4.05 Q74.1 4.25 72.3 5.2 L69.0 7.0 67.25 8.1 66.05 8.95 64.4 9.75 Q63.35 10.25 63.05 10.5 L63.0 10.55 Q61.3 11.0 60.25 12.05 L59.25 12.8 58.35 13.4 57.25 14.3 Q56.4 15.1 56.4 15.45 L56.75 15.7 57.6 15.8 58.3 15.8 58.3 15.85 Q58.3 16.15 61.05 16.25 61.65 16.25 61.65 16.0 61.65 15.6 60.95 15.45 L60.95 15.35 61.95 15.1 61.95 15.2 63.8 15.2 74.3 14.65 84.85 14.6 88.25 14.55 88.3 14.6 Q87.5 16.35 86.7 20.35 L86.45 21.9 50.6 21.9 50.6 21.2 Q50.75 19.55 52.1 17.5 53.5 15.3 53.75 14.2 55.15 13.6 58.1 11.55 L63.0 8.05 Q64.1 7.3 65.45 6.7 L67.5 5.65 69.95 4.4 Q71.65 3.45 71.65 2.95 71.65 2.6 71.45 2.5 L71.0 2.4 Q80.25 -0.75 89.95 0.25 L205.75 0.25 206.0 0.25 Q214.05 0.5 220.9 2.95 L223.9 4.2 Q223.95 4.7 224.95 5.4 L226.65 6.6 228.1 7.85 229.2 8.95 230.95 11.35 Q232.15 12.8 233.8 13.25 L233.9 12.75 234.1 12.75 244.15 14.05 255.45 15.65 256.5 15.85 M5.1 21.4 Q6.05 20.15 7.4 19.4 10.75 17.55 16.65 16.5 L31.6 15.0 44.65 13.8 47.2 13.8 47.2 14.55 48.1 14.35 48.65 14.15 48.9 14.05 50.2 14.25 52.85 14.45 53.1 14.45 51.55 17.65 Q50.6 19.65 50.1 21.55 L50.1 21.9 14.2 21.9 14.15 21.9 Q13.15 21.2 10.8 21.35 L8.4 21.45 7.05 21.45 5.1 21.4 M223.35 14.8 L223.25 14.8 222.75 14.85 223.25 15.3 224.15 15.6 226.0 15.3 225.25 14.85 224.35 14.65 224.0 14.7 223.7 14.7 223.35 14.8 M211.0 19.65 L211.25 19.8 212.35 20.1 214.1 20.25 215.55 20.1 216.5 19.55 Q216.5 18.95 215.45 18.45 214.45 17.95 213.15 17.95 L211.5 18.3 Q210.7 18.6 210.7 19.15 L210.7 19.25 210.75 19.5 211.0 19.65 M184.1 4.95 L184.15 4.85 184.65 4.85 183.8 8.15 183.7 8.5 Q183.05 10.8 182.2 11.95 L182.2 11.15 183.0 8.15 183.1 7.65 184.0 5.1 184.05 5.05 184.1 4.95 M182.85 5.05 L182.95 4.95 183.0 4.85 183.45 4.85 182.6 8.15 182.55 8.5 Q181.85 10.8 181.05 11.95 L181.05 11.15 181.8 8.2 181.95 7.65 Q182.35 6.1 182.85 5.1 L182.85 5.05 M186.3 14.55 Q185.55 15.65 185.2 17.4 L184.65 21.2 184.55 21.9 87.35 21.9 87.55 20.5 88.5 15.15 88.65 14.7 88.7 14.55 88.75 14.55 186.3 14.55 M181.75 4.95 L181.85 4.85 182.3 4.85 181.45 8.2 181.35 8.5 Q180.7 10.8 179.85 11.95 L179.85 11.15 180.65 8.2 180.75 7.65 181.65 5.1 181.7 5.05 181.75 4.95 M136.65 4.95 L136.75 4.85 137.2 4.85 136.25 8.5 135.45 10.75 134.75 11.95 134.75 11.15 134.9 10.7 135.65 7.65 136.55 5.1 136.6 5.05 136.65 4.95 M144.5 4.95 L144.55 4.85 145.0 4.85 144.1 8.5 143.05 11.2 142.6 11.95 142.6 11.15 143.5 7.65 Q143.9 6.1 144.4 5.1 L144.4 5.05 144.45 5.05 144.5 4.95 M143.15 5.05 L143.2 4.95 143.25 4.85 143.7 4.85 142.8 8.5 141.75 11.2 141.3 11.95 141.3 11.15 142.2 7.65 Q142.6 6.1 143.1 5.1 L143.1 5.05 143.15 5.05 M142.2 4.85 L142.7 4.85 141.75 8.5 140.75 11.1 140.25 11.95 140.25 11.1 141.15 7.65 142.05 5.1 142.05 5.05 142.1 5.05 142.15 4.95 142.2 4.85 M134.55 4.95 L134.65 4.85 135.1 4.85 134.35 7.6 134.15 8.5 133.4 10.6 132.65 11.95 132.65 11.15 132.8 10.55 133.55 7.65 134.45 5.1 134.5 5.05 134.55 4.95 M134.5 7.65 Q134.9 6.1 135.4 5.1 L135.4 5.05 135.45 5.05 135.5 4.95 135.55 4.85 136.0 4.85 135.1 8.5 134.3 10.7 133.6 11.95 133.6 11.15 133.75 10.65 134.3 8.5 134.5 7.65 M97.5 4.95 L97.6 4.85 98.05 4.85 97.1 8.45 97.1 8.5 Q96.45 10.8 95.6 11.95 L95.6 11.15 96.35 8.4 96.5 7.65 97.4 5.1 97.45 5.05 97.5 4.95 M96.2 4.95 L96.3 4.85 96.75 4.85 95.85 8.4 95.8 8.5 Q95.15 10.8 94.3 11.95 L94.3 11.15 95.05 8.4 95.25 7.65 Q95.65 6.1 96.15 5.1 L96.15 5.05 96.2 4.95 M95.0 4.85 L95.45 4.85 94.6 8.35 94.55 8.5 Q93.9 10.8 93.05 11.95 L93.05 11.15 93.8 8.35 93.95 7.65 94.85 5.1 94.85 5.05 94.9 5.05 94.95 4.95 95.0 4.85 M80.25 16.75 L79.15 16.8 Q78.35 16.85 78.35 17.25 78.35 17.55 79.75 17.7 L81.15 17.8 81.85 17.8 82.25 17.45 Q82.25 17.15 81.4 16.9 L80.65 16.7 80.25 16.75 M81.4 18.75 L81.2 18.7 81.15 18.7 80.2 18.65 78.05 18.75 Q76.6 19.0 76.6 19.7 76.6 20.35 77.85 20.5 L79.7 20.6 81.8 20.45 83.7 20.1 Q83.55 19.85 83.05 19.75 L82.6 19.7 79.85 20.0 78.15 19.85 78.15 19.65 Q78.45 19.3 79.95 19.25 L81.85 19.2 81.55 18.9 81.4 18.75" fill="#e6e6e6" fill-rule="evenodd" stroke="none"/>
    <path d="M258.9 21.9 L259.4 25.75 262.0 25.5 263.2 25.5 263.95 26.35 265.5 27.85 Q265.95 28.75 265.95 30.8 L265.95 31.7 237.3 31.7 Q236.65 29.2 235.55 27.85 232.75 24.4 224.45 24.4 218.1 24.4 214.75 28.5 213.6 29.9 212.9 31.7 L211.15 31.7 Q212.5 27.3 216.0 24.7 L219.95 22.1 220.2 21.9 235.05 21.9 235.05 22.05 Q235.05 23.2 235.85 24.0 236.7 24.85 238.05 24.85 239.3 24.85 240.1 24.1 240.9 23.3 240.9 22.0 L240.9 21.9 258.9 21.9 M0.0 31.7 L0.0 31.55 Q0.0 30.05 0.8 28.55 L0.85 28.5 0.9 28.5 5.3 28.7 9.65 28.85 12.5 28.7 14.75 28.3 14.75 28.0 14.45 27.9 6.5 27.9 1.1 28.0 Q1.75 27.0 2.5 26.55 L2.95 26.6 2.95 26.4 3.9 26.55 5.15 26.55 7.95 26.4 11.25 26.25 11.35 26.25 12.2 26.3 12.7 26.4 Q14.05 26.4 14.55 25.9 15.05 25.45 15.05 24.2 15.05 22.55 14.2 21.95 L14.2 21.9 50.1 21.9 49.9 26.6 49.85 28.0 45.95 28.0 45.4 28.15 45.25 28.25 44.35 28.5 44.5 28.65 45.0 28.9 45.4 29.1 45.65 29.15 49.8 29.1 49.8 29.9 49.8 31.7 41.95 31.7 Q41.2 29.2 40.3 27.8 38.95 25.65 36.5 24.7 33.85 23.65 29.3 23.65 23.45 23.65 20.15 27.0 18.25 28.85 17.35 31.7 L0.0 31.7 M259.6 28.25 L259.9 27.85 259.75 27.4 239.85 27.4 239.6 27.55 239.55 27.55 239.55 27.8 239.7 28.05 239.95 28.25 259.6 28.25 M185.5 21.9 L219.3 21.9 217.95 22.75 Q215.45 24.2 215.1 24.55 212.4 27.0 211.15 29.45 L210.25 31.7 184.85 31.7 184.8 30.55 184.9 28.0 210.15 28.0 210.5 28.15 210.5 28.3 210.7 28.25 Q211.65 28.0 211.65 27.75 L211.55 27.4 211.45 27.2 184.95 27.3 185.45 22.1 185.5 21.9 M87.35 21.9 L184.55 21.9 184.15 25.25 183.95 27.35 86.7 27.8 Q86.8 24.95 87.35 21.9 M183.9 28.0 L183.75 30.1 183.85 31.7 86.75 31.7 86.65 29.4 86.65 28.65 Q135.2 28.1 183.9 28.0 M86.45 21.9 Q85.85 25.1 85.85 27.5 L85.85 27.8 50.35 28.0 50.6 21.9 86.45 21.9 M85.9 28.65 L86.0 31.7 50.3 31.7 50.3 30.3 50.3 29.1 85.9 28.65" fill="#d9d9d9" fill-rule="evenodd" stroke="none"/>
    <path d="M265.95 31.7 Q265.65 35.4 263.05 37.2 260.7 38.85 255.85 39.25 L246.8 39.4 238.15 40.15 238.15 39.35 Q238.05 34.7 237.3 31.7 L265.95 31.7 M211.8 39.9 L211.5 39.9 210.9 39.8 210.75 39.75 210.3 39.75 210.25 38.25 Q210.25 34.6 211.15 31.7 L212.9 31.7 Q211.55 35.1 211.8 39.9 M51.8 39.75 L48.25 39.75 43.75 39.45 43.75 39.3 42.25 32.95 41.95 31.7 49.8 31.7 49.9 34.65 Q50.15 36.5 51.35 38.4 L51.45 38.55 51.45 38.4 51.55 38.4 51.45 37.55 50.35 33.85 50.3 31.7 86.0 31.7 86.15 33.75 Q86.4 37.2 86.75 38.4 L51.55 38.4 51.45 38.9 51.7 39.55 51.7 39.6 51.8 39.75 M16.5 38.4 L16.55 39.0 16.8 40.1 11.6 39.6 6.0 38.85 Q0.1 37.35 0.0 31.7 L17.35 31.7 Q16.45 34.3 16.45 37.75 L16.5 38.4 M210.25 31.7 Q209.6 33.75 209.6 36.15 L209.7 38.25 209.7 38.4 185.2 38.4 184.95 34.6 184.85 31.7 210.25 31.7 M86.75 31.7 L183.85 31.7 184.1 34.5 184.4 38.4 87.3 38.4 86.85 33.9 86.75 31.7 M51.65 39.2 L51.8 39.55 51.55 39.05 51.65 39.2" fill="#b6babb" fill-rule="evenodd" stroke="none"/>
    <path d="M223.9 4.2 Q230.7 7.4 233.4 12.7 L233.9 12.75 233.8 13.25 Q232.15 12.8 230.95 11.35 L229.2 8.95 228.1 7.85 226.65 6.6 224.95 5.4 Q223.95 4.7 223.9 4.2" fill="#474849" fill-rule="evenodd" stroke="none"/>
    <path d="M223.35 14.8 L223.45 14.8 224.0 14.7 224.35 14.65 225.25 14.85 226.0 15.3 224.15 15.6 223.25 15.3 222.75 14.85 223.25 14.8 223.35 14.8 M211.75 19.25 L212.5 19.4 213.15 19.55 214.75 19.55 214.0 18.9 212.95 18.85 211.95 18.85 Q211.45 18.95 211.2 19.25 L211.75 19.25 M210.7 19.25 L210.7 19.15 Q210.7 18.6 211.5 18.3 L213.15 17.95 Q214.45 17.95 215.45 18.45 216.5 18.95 216.5 19.55 L215.55 20.1 214.1 20.25 212.35 20.1 211.25 19.8 211.0 19.65 210.7 19.25 M60.95 15.45 Q61.65 15.6 61.65 16.0 61.65 16.25 61.05 16.25 58.3 16.15 58.3 15.85 L58.3 15.8 Q58.35 15.5 58.7 15.4 L59.55 15.4 59.8 15.4 60.45 15.35 60.65 15.4 60.75 15.4 60.95 15.45 M63.2 12.25 L63.25 13.65 62.9 14.55 Q62.55 14.95 62.05 15.05 L61.95 15.05 61.25 14.8 Q61.0 14.55 61.0 14.0 61.0 13.2 62.0 12.8 L63.2 12.25 M80.65 16.7 L81.4 16.9 Q82.25 17.15 82.25 17.45 L81.85 17.8 81.15 17.8 79.75 17.7 Q78.35 17.55 78.35 17.25 78.35 16.85 79.15 16.8 L80.25 16.75 80.4 16.75 80.65 16.7 M81.4 18.75 L81.55 18.9 81.85 19.2 79.95 19.25 Q78.45 19.3 78.15 19.65 L78.15 19.85 79.85 20.0 82.6 19.7 83.05 19.75 Q83.55 19.85 83.7 20.1 L81.8 20.45 79.7 20.6 77.85 20.5 Q76.6 20.35 76.6 19.7 76.6 19.0 78.05 18.75 L80.2 18.65 81.15 18.7 81.2 18.7 81.4 18.75" fill="#bfbfbf" fill-rule="evenodd" stroke="none"/>
    <path d="M210.3 39.75 L209.8 39.75 210.0 38.4 209.7 38.4 209.7 38.25 209.6 36.15 Q209.6 33.75 210.25 31.7 L211.15 29.45 Q212.4 27.0 215.1 24.55 215.45 24.2 217.95 22.75 L219.3 21.9 220.4 20.65 Q220.9 19.65 220.9 17.5 L220.85 14.3 220.85 14.2 220.85 14.0 Q220.55 10.65 220.1 9.1 219.25 6.4 215.95 5.2 213.25 4.25 209.45 3.95 L205.4 3.75 206.8 3.6 Q216.15 3.6 218.95 6.3 220.4 7.7 221.0 10.25 221.5 12.35 221.6 16.25 L221.6 16.45 221.55 17.2 221.75 19.1 Q221.75 20.6 220.2 21.9 L219.95 22.1 216.0 24.7 Q212.5 27.3 211.15 31.7 210.25 34.6 210.25 38.25 L210.3 39.75 M237.5 20.1 L237.75 20.0 239.1 20.7 Q240.1 21.35 240.2 21.9 L240.2 22.0 Q240.2 22.75 239.7 23.35 239.15 24.1 238.15 24.1 237.45 24.1 236.85 23.6 236.1 23.0 236.1 22.05 L236.15 21.9 Q236.15 21.15 236.55 20.7 236.9 20.35 237.5 20.1 M186.3 14.55 L186.55 14.55 Q186.05 17.25 185.5 21.9 L185.45 22.1 184.95 27.3 183.95 27.35 184.15 25.25 184.55 21.9 184.65 21.2 185.2 17.4 Q185.55 15.65 186.3 14.55 M211.75 19.25 L211.2 19.25 Q211.45 18.95 211.95 18.85 L212.95 18.85 214.0 18.9 214.75 19.55 213.15 19.55 212.5 19.4 211.75 19.25 M184.9 28.0 L184.8 30.55 184.85 31.7 184.95 34.6 185.2 38.4 184.4 38.4 184.1 34.5 183.85 31.7 183.75 30.1 183.9 28.0 184.9 28.0 M88.7 14.55 L88.65 14.7 88.5 15.15 87.55 20.5 87.35 21.9 Q86.8 24.95 86.7 27.8 L85.85 27.8 85.85 27.5 Q85.85 25.1 86.45 21.9 L86.7 20.35 Q87.5 16.35 88.3 14.6 L88.3 14.55 88.7 14.55 M86.65 28.65 L86.65 29.4 86.75 31.7 86.85 33.9 87.3 38.4 86.75 38.4 Q86.4 37.2 86.15 33.75 L86.0 31.7 85.9 28.65 86.65 28.65 M50.3 31.7 L50.35 33.85 51.45 37.55 51.35 38.4 Q50.15 36.5 49.9 34.65 L49.8 31.7 49.8 29.9 49.8 29.1 50.3 29.1 50.3 30.3 50.3 31.7 M53.75 14.2 Q53.5 15.3 52.1 17.5 50.75 19.55 50.6 21.2 L50.6 21.9 50.35 28.0 49.85 28.0 49.9 26.6 50.1 21.9 50.1 21.55 Q50.6 19.65 51.55 17.65 L53.1 14.45 53.75 14.2 M7.05 21.45 L8.4 21.45 10.8 21.35 Q13.15 21.2 14.15 21.9 L14.2 21.9 14.2 21.95 Q15.05 22.55 15.05 24.2 15.05 25.45 14.55 25.9 14.05 26.4 12.7 26.4 L12.2 26.3 11.35 26.25 11.25 26.25 7.95 26.4 5.15 26.55 5.05 25.75 Q5.05 24.7 5.85 23.25 L7.05 21.45" fill="#969b9c" fill-rule="evenodd" stroke="none"/>
    <path d="M235.05 21.9 Q235.1 20.85 235.6 20.4 L237.0 19.45 237.25 19.4 Q238.5 19.4 239.6 20.05 240.85 20.75 240.9 21.9 L240.9 22.0 Q240.9 23.3 240.1 24.1 239.3 24.85 238.05 24.85 236.7 24.85 235.85 24.0 235.05 23.2 235.05 22.05 L235.05 21.9 M237.5 20.1 Q236.9 20.35 236.55 20.7 236.15 21.15 236.15 21.9 L236.1 22.05 Q236.1 23.0 236.85 23.6 237.45 24.1 238.15 24.1 239.15 24.1 239.7 23.35 240.2 22.75 240.2 22.0 L240.2 21.9 Q240.1 21.35 239.1 20.7 L237.75 20.0 237.5 20.1 M61.95 15.1 L60.95 15.35 60.75 15.4 60.65 15.4 60.45 15.35 59.8 15.4 59.55 15.4 58.7 15.4 Q58.35 15.5 58.3 15.8 L57.6 15.8 56.75 15.7 56.4 15.45 Q56.4 15.1 57.25 14.3 L58.35 13.4 59.25 12.8 60.25 12.05 Q61.3 11.0 63.0 10.55 L63.15 12.0 63.2 12.25 62.0 12.8 Q61.0 13.2 61.0 14.0 61.0 14.55 61.25 14.8 L61.95 15.05 61.95 15.1" fill="#cccccc" fill-rule="evenodd" stroke="none"/>
    <path d="M204.3 3.9 L207.2 4.35 209.1 4.85 211.2 5.4 Q214.4 6.05 215.7 8.45 216.85 10.6 216.6 14.4 L186.5 14.35 186.5 14.25 187.4 8.3 187.45 8.1 Q188.2 4.15 189.2 2.7 L190.9 2.7 192.05 2.85 192.75 2.7 192.85 2.7 202.35 3.65 202.65 3.7 202.75 3.7 203.3 3.75 204.25 3.9 204.3 3.9 M180.8 2.7 Q179.95 3.75 179.4 6.95 L179.15 8.25 178.55 12.15 178.55 14.25 178.45 14.3 144.6 14.3 Q144.45 14.15 144.45 13.8 L144.95 11.0 Q146.05 4.7 146.7 2.7 L180.8 2.7 M140.7 2.7 L140.1 5.25 139.5 8.1 139.05 11.0 139.05 11.15 138.75 14.3 136.6 14.4 136.5 13.25 Q136.5 12.1 136.85 10.85 L136.9 10.65 137.8 8.0 138.45 5.1 Q138.75 3.3 139.0 2.7 L140.7 2.7 M134.55 2.75 L132.3 8.05 131.6 10.5 Q131.15 12.5 131.2 14.3 L97.05 14.3 97.0 14.25 96.9 14.25 Q96.7 12.9 97.05 11.25 L97.65 8.45 97.7 8.4 98.3 5.35 Q98.6 3.45 98.95 2.75 L134.55 2.75" fill="#37322f" fill-rule="evenodd" stroke="none"/>
    <path d="M238.15 39.35 L235.7 39.3 232.2 39.15 221.6 39.75 213.7 40.4 212.6 40.25 211.95 39.9 211.8 39.9 Q211.55 35.1 212.9 31.7 213.6 29.9 214.75 28.5 218.1 24.4 224.45 24.4 232.75 24.4 235.55 27.85 236.65 29.2 237.3 31.7 238.05 34.7 238.15 39.35 M43.75 39.3 L43.55 39.3 42.05 39.45 41.85 39.5 41.75 39.5 41.5 39.3 Q41.25 39.0 40.8 39.0 L24.9 38.8 20.65 38.7 19.05 38.7 17.3 38.25 16.5 38.4 16.45 37.75 Q16.45 34.3 17.35 31.7 18.25 28.85 20.15 27.0 23.45 23.65 29.3 23.65 33.85 23.65 36.5 24.7 38.95 25.65 40.3 27.8 41.2 29.2 41.95 31.7 L42.25 32.95 43.75 39.3 M34.15 36.8 L34.05 36.9 34.3 36.9 34.15 36.8" fill="#090909" fill-rule="evenodd" stroke="none"/>
    <path d="M209.8 39.75 L52.7 39.75 51.8 39.75 51.7 39.6 51.8 39.55 51.65 39.2 51.55 38.4 86.75 38.4 87.3 38.4 184.4 38.4 185.2 38.4 209.7 38.4 210.0 38.4 209.8 39.75" fill="#272727" fill-rule="evenodd" stroke="none"/>
    <path d="M186.4 14.35 L186.3 14.55 88.75 14.55 88.75 14.45 89.15 14.3 89.4 14.1 89.55 13.9 89.6 13.75 Q90.1 11.05 91.1 8.3 L91.25 7.85 Q92.45 4.7 93.85 2.7 L98.95 2.7 98.95 2.75 Q98.6 3.45 98.3 5.35 L97.7 8.4 97.65 8.45 97.05 11.25 Q96.7 12.9 96.9 14.25 L97.0 14.25 97.05 14.3 131.2 14.3 Q131.15 12.5 131.6 10.5 L132.3 8.05 134.55 2.75 134.75 2.7 139.0 2.7 Q138.75 3.3 138.45 5.1 L137.8 8.0 136.9 10.65 136.85 10.85 Q136.5 12.1 136.5 13.25 L136.6 14.4 138.75 14.3 139.05 11.15 139.05 11.0 139.5 8.1 140.1 5.25 140.7 2.7 146.7 2.7 Q146.05 4.7 144.95 11.0 L144.45 13.8 Q144.45 14.15 144.6 14.3 L178.45 14.3 178.55 14.25 178.55 12.15 179.15 8.25 179.4 6.95 Q179.95 3.75 180.8 2.7 L187.1 2.7 189.2 2.7 Q188.2 4.15 187.45 8.1 L187.4 8.3 186.5 14.25 186.4 14.35 M182.85 5.05 L182.85 5.1 Q182.35 6.1 181.95 7.65 L181.8 8.2 181.05 11.15 181.05 11.95 Q181.85 10.8 182.55 8.5 L182.6 8.15 183.45 4.85 183.0 4.85 182.95 4.95 182.85 5.05 M184.0 5.1 L183.1 7.65 183.0 8.15 182.2 11.15 182.2 11.95 Q183.05 10.8 183.7 8.5 L183.8 8.15 184.65 4.85 184.15 4.85 184.1 4.95 184.0 5.1 M181.65 5.1 L180.75 7.65 180.65 8.2 179.85 11.15 179.85 11.95 Q180.7 10.8 181.35 8.5 L181.45 8.2 182.3 4.85 181.85 4.85 181.75 4.95 181.65 5.1 M142.2 4.85 L142.15 4.95 142.1 5.05 142.05 5.05 142.05 5.1 141.15 7.65 140.25 11.1 140.25 11.95 140.75 11.1 141.75 8.5 142.7 4.85 142.2 4.85 M143.15 5.05 L143.1 5.05 143.1 5.1 Q142.6 6.1 142.2 7.65 L141.3 11.15 141.3 11.95 141.75 11.2 142.8 8.5 143.7 4.85 143.25 4.85 143.2 4.95 143.15 5.05 M144.5 4.95 L144.45 5.05 144.4 5.05 144.4 5.1 Q143.9 6.1 143.5 7.65 L142.6 11.15 142.6 11.95 143.05 11.2 144.1 8.5 145.0 4.85 144.55 4.85 144.5 4.95 M136.55 5.1 L135.65 7.65 134.9 10.7 134.75 11.15 134.75 11.95 135.45 10.75 136.25 8.5 137.2 4.85 136.75 4.85 136.65 4.95 136.55 5.1 M134.35 7.6 L135.1 4.85 134.65 4.85 134.55 4.95 134.45 5.1 133.55 7.65 132.8 10.55 132.65 11.15 132.65 11.95 133.4 10.6 134.15 8.5 134.3 8.5 133.75 10.65 133.6 11.15 133.6 11.95 134.3 10.7 135.1 8.5 136.0 4.85 135.55 4.85 135.5 4.95 135.45 5.05 135.4 5.05 135.4 5.1 Q134.9 6.1 134.5 7.65 L134.35 7.6 M97.4 5.1 L96.5 7.65 96.35 8.4 95.6 11.15 95.6 11.95 Q96.45 10.8 97.1 8.5 L97.1 8.45 98.05 4.85 97.6 4.85 97.5 4.95 97.4 5.1 M96.2 4.95 L96.15 5.05 96.15 5.1 Q95.65 6.1 95.25 7.65 L95.05 8.4 94.3 11.15 94.3 11.95 Q95.15 10.8 95.8 8.5 L95.85 8.4 96.75 4.85 96.3 4.85 96.2 4.95 M95.0 4.85 L94.95 4.95 94.9 5.05 94.85 5.05 94.85 5.1 93.95 7.65 93.8 8.35 93.05 11.15 93.05 11.95 Q93.9 10.8 94.55 8.5 L94.6 8.35 95.45 4.85 95.0 4.85" fill="#0d0d0d" fill-rule="evenodd" stroke="none"/>
    <path d="M48.9 14.05 L57.05 9.25 Q62.55 6.0 66.2 4.3 L70.9 2.45 71.0 2.4 71.45 2.5 Q71.65 2.6 71.65 2.95 71.65 3.45 69.95 4.4 L67.5 5.65 65.45 6.7 Q64.1 7.3 63.0 8.05 L58.1 11.55 Q55.15 13.6 53.75 14.2 L53.1 14.45 52.85 14.45 50.2 14.25 48.9 14.05" fill="#cfd4d7" fill-rule="evenodd" stroke="none"/>
    <path d="M2.95 26.4 L3.0 26.25 Q3.7 23.25 5.1 21.4 L7.05 21.45 5.85 23.25 Q5.05 24.7 5.05 25.75 L5.15 26.55 3.9 26.55 2.95 26.4" fill="#abb0b1" fill-rule="evenodd" stroke="none"/>
    <path d="M24.9 38.8 L25.0 38.95 25.0 39.15 24.9 38.8 M34.15 36.8 L34.3 36.9 34.05 36.9 34.15 36.8 M29.4 43.1 L29.45 43.1 29.35 43.2 29.4 43.1 M23.7 40.1 L23.65 40.1 23.75 40.1 23.7 40.1 M29.0 44.35 L28.95 44.35 28.95 44.3 29.0 44.0 29.0 44.35" fill="#acb1b5" fill-rule="evenodd" stroke="none"/>
    <path d="M91.25 7.85 L91.1 8.3 Q90.1 11.05 89.6 13.75 L89.55 13.9 89.4 14.1 89.15 14.3 88.75 14.45 88.35 14.55 88.25 14.55 84.85 14.6 74.3 14.65 63.8 15.2 62.05 15.2 62.05 15.05 Q62.55 14.95 62.9 14.55 L63.25 13.65 63.2 12.25 63.15 12.0 63.0 10.55 63.05 10.5 Q63.35 10.25 64.4 9.75 L66.05 8.95 67.25 8.1 69.0 7.0 72.3 5.2 Q74.1 4.25 75.2 4.05 L83.6 3.05 92.55 2.5 93.1 2.6 93.85 2.7 Q92.45 4.7 91.25 7.85" fill="#37322f" fill-rule="evenodd" stroke="none"/>
  </g>
</svg>
