<?xml version="1.0" encoding="UTF-8" standalone="no"?>
<svg xmlns:xlink="http://www.w3.org/1999/xlink" height="12.7px" width="31.8px" xmlns="http://www.w3.org/2000/svg">
  <g transform="matrix(1.0, 0.0, 0.0, 1.0, 15.9, 6.35)">
    <path d="M13.3 -1.0 L13.15 -0.55 Q12.15 2.2 11.65 4.9 L11.6 5.05 11.45 5.25 11.2 5.45 10.8 5.6 10.4 5.7 10.3 5.7 6.9 5.75 -3.65 5.8 -14.15 6.35 -15.9 6.35 -15.9 6.2 -15.05 5.7 Q-14.7 5.3 -14.7 4.8 L-14.75 3.4 -14.8 3.15 -14.95 1.7 -14.9 1.65 -13.55 0.9 -11.9 0.1 Q-11.65 -0.05 -10.7 -0.75 L-8.95 -1.85 -5.65 -3.65 Q-3.85 -4.6 -2.75 -4.8 L5.65 -5.8 14.6 -6.35 15.15 -6.25 15.9 -6.15 Q14.5 -4.15 13.3 -1.0" fill="#37322f" fill-rule="evenodd" stroke="none"/>
  </g>
</svg>
