<?xml version="1.0" encoding="UTF-8" standalone="no"?>
<svg xmlns:xlink="http://www.w3.org/1999/xlink" height="14.8px" width="75.3px" xmlns="http://www.w3.org/2000/svg">
  <g transform="matrix(1.0, 0.0, 0.0, 1.0, 24.15, 2.7)">
    <path d="M48.05 -0.8 L48.05 -2.7 49.3 -2.7 49.3 -0.8 51.15 -0.8 51.15 0.45 49.3 0.45 49.3 2.3 48.05 2.3 48.05 0.45 46.15 0.45 46.15 -0.8 48.05 -0.8 M50.65 12.1 L-24.1 12.1 -24.1 12.0 -24.15 12.0 -24.15 4.25 -20.4 4.25 -20.4 8.1 47.0 8.1 47.0 4.25 50.75 4.25 50.75 12.0 50.65 12.0 50.65 12.1 M-23.65 1.7 L-23.65 0.3 -20.95 0.3 -20.95 1.7 -23.65 1.7" fill="#ffffff" fill-rule="evenodd" stroke="none"/>
  </g>
</svg>
