<?xml version="1.0" encoding="UTF-8" standalone="no"?>
<svg xmlns:xlink="http://www.w3.org/1999/xlink" height="1021.0px" width="1603.9px" xmlns="http://www.w3.org/2000/svg">
  <g transform="matrix(1.0, 0.0, 0.0, 1.0, 976.75, 393.0)">
    <path d="M-134.5 120.5 L-136.05 118.95 -134.1 116.95 -43.1 116.95 Q-43.45 60.25 -83.7 20.0 -123.55 -19.9 -179.75 -20.45 L-179.75 71.65 -181.55 73.45 -183.3 71.65 -183.3 -20.45 Q-239.5 -19.9 -279.45 20.0 -319.65 60.25 -319.95 116.95 L-229.0 116.95 -227.0 118.95 -228.6 120.5 -319.9 120.5 Q-319.05 176.15 -279.45 215.75 -239.5 255.7 -183.3 256.3 L-183.3 166.2 -181.55 164.4 -179.75 166.2 -179.75 256.3 Q-123.55 255.7 -83.7 215.75 -44.05 176.15 -43.1 120.5 L-134.5 120.5 M627.15 628.0 L-976.75 628.0 -976.75 -393.0 627.15 -393.0 627.15 628.0" fill="#000000" fill-opacity="0.5529412" fill-rule="evenodd" stroke="none"/>
  </g>
</svg>
