<?xml version="1.0" encoding="UTF-8" standalone="no"?>
<svg xmlns:xlink="http://www.w3.org/1999/xlink" height="100.25px" width="100.8px" xmlns="http://www.w3.org/2000/svg">
  <g transform="matrix(1.0, 0.0, 0.0, 1.0, 50.4, 50.1)">
    <path d="M41.75 -49.9 L42.3 -49.3 Q50.4 -34.85 50.4 -17.05 50.4 10.75 30.65 30.45 10.95 50.15 -16.8 50.15 -27.25 50.15 -36.45 47.4 -43.4 45.35 -49.65 41.8 L-50.2 41.25 -50.4 40.5 -50.4 33.6 Q-50.4 33.05 -50.0 32.65 -49.65 32.2 -49.1 32.15 L-48.05 32.35 Q-42.15 36.25 -35.55 38.5 -26.75 41.4 -16.75 41.4 7.45 41.4 24.55 24.25 41.7 7.15 41.7 -17.05 41.7 -34.2 33.05 -47.8 32.75 -48.25 32.85 -48.8 32.9 -49.35 33.35 -49.7 33.75 -50.1 34.3 -50.1 L41.0 -50.1 41.75 -49.9" fill="#000000" fill-opacity="0.4117647" fill-rule="evenodd" stroke="none"/>
  </g>
</svg>
