<?xml version="1.0" encoding="UTF-8" standalone="no"?>
<svg xmlns:xlink="http://www.w3.org/1999/xlink" height="28.5px" width="69.9px" xmlns="http://www.w3.org/2000/svg">
  <g transform="matrix(1.0, 0.0, 0.0, 1.0, 34.95, 14.25)">
    <path d="M6.35 2.2 Q2.5 3.25 -1.15 9.1 -14.9 14.0 -29.5 7.55 L-34.6 1.3 Q-35.6 -2.85 -33.65 -9.75 L-26.05 -14.25 Q-11.25 -9.05 6.7 -1.45 L7.15 -2.05 6.9 -0.1 8.7 -2.2 7.8 -0.8 29.65 -3.25 34.2 -2.95 34.95 -0.1 33.0 7.0 33.0 7.35 Q29.65 11.05 25.65 13.45 L13.85 14.0 7.75 11.3 Q8.55 5.2 6.35 2.2" fill="#000000" fill-opacity="0.37254903" fill-rule="evenodd" stroke="none"/>
  </g>
</svg>
