<?xml version="1.0" encoding="UTF-8" standalone="no"?>
<svg xmlns:xlink="http://www.w3.org/1999/xlink" height="31.25px" width="27.8px" xmlns="http://www.w3.org/2000/svg">
  <g transform="matrix(1.0, 0.0, 0.0, 1.0, 13.9, 15.6)">
    <path d="M13.7 -5.9 L13.65 -5.9 13.65 -5.65 13.65 -5.5 13.75 -5.4 13.75 -4.95 13.8 -4.65 13.9 -4.0 13.75 0.85 13.45 3.55 13.2 6.05 11.55 15.2 11.55 15.25 11.35 15.25 11.2 15.2 11.05 15.2 10.75 15.2 10.55 15.2 9.7 15.4 8.45 15.65 7.65 15.6 5.5 15.2 2.4 14.45 0.2 14.0 -3.4 13.1 -6.05 12.5 -8.75 11.95 -11.3 11.0 -13.35 10.25 -13.75 10.2 -13.85 9.95 -13.9 9.5 Q-13.9 9.1 -13.5 8.85 L-13.05 8.55 -12.9 8.45 -12.75 8.55 -12.65 8.45 -12.55 7.35 -12.0 3.55 -11.85 -0.65 -11.7 -3.85 -11.6 -6.0 -11.6 -6.55 Q-11.6 -9.3 -12.35 -10.65 L-12.35 -10.75 -12.15 -10.8 -12.0 -10.8 -8.4 -15.6 12.85 -12.6 13.7 -5.9" fill="#ffffff" fill-opacity="0.4117647" fill-rule="evenodd" stroke="none"/>
  </g>
</svg>
