<?xml version="1.0" encoding="UTF-8" standalone="no"?>
<svg xmlns:xlink="http://www.w3.org/1999/xlink" height="11.5px" width="44.85px" xmlns="http://www.w3.org/2000/svg">
  <g transform="matrix(1.0, 0.0, 0.0, 1.0, 22.4, 5.75)">
    <path d="M-19.5 -1.05 L-18.45 -0.45 Q-17.35 0.1 -17.0 0.6 -16.6 1.1 -16.6 2.05 -16.6 3.05 -16.9 3.6 L-17.8 4.45 -19.35 4.75 -21.05 4.45 -22.05 3.6 -22.3 2.0 -22.3 1.45 -19.9 1.45 -20.75 0.95 -22.15 -0.25 -22.4 -1.5 -22.1 -3.0 -21.15 -3.8 -19.65 -4.05 -18.2 -3.85 Q-17.6 -3.65 -17.3 -3.25 L-16.9 -2.55 -16.8 -1.65 -16.8 -1.0 -19.3 -1.0 -19.3 -1.6 -19.35 -2.25 -19.55 -2.35 -19.75 -2.25 -19.85 -1.9 -19.8 -1.4 -19.5 -1.05 M-16.0 -3.0 L-15.4 -3.75 -14.3 -4.05 -13.4 -3.9 -12.85 -3.4 -12.85 -5.75 -10.1 -5.75 -10.1 4.6 -12.85 4.6 -12.85 4.0 -13.4 4.55 -14.3 4.75 -15.4 4.4 -16.0 3.65 -16.15 2.3 -16.15 -1.6 -16.0 -3.0 M-3.15 -0.45 Q-2.05 0.1 -1.7 0.6 -1.3 1.1 -1.3 2.05 -1.3 3.05 -1.6 3.6 L-2.5 4.45 -4.05 4.75 -5.75 4.45 -6.75 3.6 -7.0 2.0 -7.0 1.45 -4.6 1.45 -5.45 0.95 -6.85 -0.25 -7.1 -1.5 -6.8 -3.0 -5.85 -3.8 -4.35 -4.05 -2.9 -3.85 Q-2.3 -3.65 -2.0 -3.25 L-1.6 -2.55 -1.5 -1.65 -1.5 -1.0 -4.0 -1.0 -4.0 -1.6 -4.05 -2.25 -4.25 -2.35 -4.45 -2.25 -4.55 -1.9 -4.5 -1.4 -4.2 -1.05 -3.15 -0.45 M4.6 -3.75 L5.2 -2.9 5.3 -1.3 5.3 4.6 2.55 4.6 2.55 -1.25 2.5 -2.2 2.3 -2.35 2.1 -2.2 2.0 -1.1 2.0 4.6 -0.75 4.6 -0.75 -3.9 2.05 -3.9 2.0 -3.15 2.5 -3.8 3.45 -4.05 4.6 -3.75 M-13.35 -1.7 L-13.35 2.35 -13.3 2.95 -13.1 3.05 Q-12.95 3.05 -12.9 2.9 L-12.85 2.1 -12.85 -1.7 -12.9 -2.25 -13.1 -2.35 -13.3 -2.25 -13.35 -1.7 M16.75 -2.7 Q17.05 -3.35 17.75 -3.7 L19.35 -4.05 21.15 -3.65 Q21.9 -3.2 22.15 -2.5 L22.45 -0.6 22.45 0.6 19.2 0.6 19.2 2.3 19.25 2.9 19.45 3.05 19.75 2.85 19.8 2.1 19.8 0.9 22.45 0.9 22.45 1.65 22.35 2.85 21.9 3.75 20.95 4.5 19.5 4.75 18.05 4.5 17.05 3.85 16.55 2.9 Q16.4 2.4 16.4 1.5 L16.4 -0.95 Q16.4 -2.05 16.75 -2.7 M19.65 -1.0 L19.65 -1.45 19.6 -2.2 19.45 -2.35 19.25 -2.25 19.2 -1.45 19.2 -1.0 19.65 -1.0 M8.95 -3.9 L8.95 4.6 6.1 4.6 6.1 -3.9 8.95 -3.9 M8.95 -5.75 L8.95 -4.15 6.1 -4.15 6.1 -5.75 8.95 -5.75 M15.05 -3.7 L15.65 -2.95 15.75 -1.5 15.75 2.0 15.6 3.65 15.0 4.45 13.95 4.75 13.0 4.5 Q12.6 4.3 12.45 3.9 L12.45 5.75 9.7 5.75 9.7 -3.9 12.5 -3.9 12.45 -3.2 13.0 -3.85 13.95 -4.05 15.05 -3.7 M12.45 -1.4 L12.45 2.05 12.55 2.9 12.75 3.05 12.95 2.9 12.95 2.15 12.95 -1.4 12.95 -2.25 12.75 -2.35 12.55 -2.2 12.45 -1.4" fill="#000000" fill-rule="evenodd" stroke="none"/>
  </g>
</svg>
