<?xml version="1.0" encoding="UTF-8" standalone="no"?>
<svg xmlns:xlink="http://www.w3.org/1999/xlink" height="224.05px" width="82.15px" xmlns="http://www.w3.org/2000/svg">
  <g transform="matrix(1.0, 0.0, 0.0, 1.0, 0.0, 0.0)">
    <path d="M21.05 12.4 L20.95 11.35 Q17.1 1.2 24.25 0.0 31.05 -0.25 31.85 9.35 40.05 10.4 47.25 13.75 L65.75 57.25 71.0 108.0 Q67.85 116.9 57.95 114.35 52.15 111.35 52.25 107.5 L48.0 57.5 35.35 32.05 Q39.6 64.4 39.75 96.1 L59.1 162.75 82.0 211.25 Q83.5 220.75 70.5 221.25 63.4 221.85 58.5 216.25 L41.4 163.65 33.1 123.4 28.5 152.25 28.5 216.25 Q27.65 226.2 11.9 223.45 8.4 221.2 6.5 218.25 L11.5 154.75 23.6 91.75 Q25.3 69.85 23.8 43.7 L19.0 62.75 16.25 110.25 Q15.1 113.2 8.7 114.1 3.05 114.1 0.0 109.0 L4.75 60.75 15.5 16.0 21.05 12.4" fill="#000000" fill-rule="evenodd" stroke="none"/>
  </g>
</svg>
