<?xml version="1.0" encoding="UTF-8" standalone="no"?>
<svg xmlns:xlink="http://www.w3.org/1999/xlink" height="17.5px" width="42.9px" xmlns="http://www.w3.org/2000/svg">
  <g transform="matrix(1.0, 0.0, 0.0, 1.0, 21.45, 8.75)">
    <path d="M16.0 -8.75 L20.65 -6.0 Q21.85 -1.75 21.25 0.8 L18.1 4.65 Q9.15 8.6 0.7 5.6 -1.55 2.0 -3.9 1.35 -5.25 3.2 -4.75 6.95 L-8.5 8.6 -15.75 8.25 Q-18.2 6.8 -20.25 4.5 L-20.25 4.3 -21.45 -0.05 -21.0 -1.8 -18.2 -2.0 -4.8 -0.5 -5.35 -1.35 -4.25 -0.05 -4.4 -1.25 -4.1 -0.9 Q6.9 -5.55 16.0 -8.75" fill="#ffffff" fill-rule="evenodd" stroke="none"/>
  </g>
</svg>
