<?xml version="1.0" encoding="UTF-8" standalone="no"?>
<svg xmlns:xlink="http://www.w3.org/1999/xlink" height="132.2px" width="50.65px" xmlns="http://www.w3.org/2000/svg">
  <g transform="matrix(1.0, 0.0, 0.0, 1.0, 121.4, 66.1)">
    <path d="M-79.25 -38.5 Q-97.2 -41.2 -115.1 -36.6 -120.5 -19.0 -113.25 -3.25 -96.8 -8.9 -76.3 -6.6 -73.2 -22.55 -79.25 -38.5 M-73.55 -3.45 Q-94.85 -6.95 -116.2 -0.5 -125.0 -19.8 -118.9 -39.05 -97.75 -45.1 -76.6 -41.65 -69.6 -22.55 -73.55 -3.45 M-116.4 2.1 Q-96.25 -4.1 -74.1 -0.5 -69.75 18.6 -71.05 37.7 -92.35 45.0 -113.7 40.65 -118.9 21.4 -116.4 2.1 M-112.6 4.55 Q-115.55 21.25 -110.75 37.9 -92.25 41.1 -73.8 34.55 -72.45 18.6 -76.75 2.65 -94.65 -0.35 -112.6 4.55" fill="#000000" fill-rule="evenodd" stroke="none"/>
    <path d="M-92.05 -65.4 Q-89.1 -55.3 -90.65 -45.2 -99.8 -46.35 -108.95 -43.9 -111.75 -53.95 -110.2 -63.95 -101.15 -67.3 -92.05 -65.4 M-99.2 -55.35 L-98.0 -49.6 -102.4 -49.0 -103.0 -54.7 -105.6 -54.6 -101.7 -59.7 -95.55 -55.65 -99.2 -55.35 M-93.55 -64.1 Q-101.15 -65.6 -108.7 -62.7 -110.0 -54.2 -107.8 -45.7 -99.9 -48.0 -91.95 -46.6 -91.4 -55.35 -93.55 -64.1 M-101.05 45.2 Q-91.95 46.35 -82.8 43.9 -80.75 53.95 -81.55 63.95 -90.6 67.3 -99.65 65.4 -103.15 55.3 -101.05 45.2 M-99.75 46.6 Q-101.25 55.35 -98.15 64.1 -90.6 65.6 -83.05 62.7 -82.05 54.2 -83.95 45.7 -91.85 48.75 -99.75 46.6 M-89.35 50.45 L-88.7 56.2 -86.1 56.1 -90.05 61.15 -96.2 57.15 -92.55 56.85 -93.7 51.1 -89.35 50.45" fill="#000000" fill-opacity="0.47058824" fill-rule="evenodd" stroke="none"/>
  </g>
</svg>
