<?xml version="1.0" encoding="UTF-8" standalone="no"?>
<svg xmlns:xlink="http://www.w3.org/1999/xlink" height="87.75px" width="125.5px" xmlns="http://www.w3.org/2000/svg">
  <g transform="matrix(1.0, 0.0, 0.0, 1.0, 144.7, 43.85)">
    <path d="M-96.05 -7.05 L-100.2 -8.65 Q-110.1 -4.65 -109.5 5.75 -109.4 7.25 -108.8 8.7 L-106.55 7.5 -96.05 -7.05 M-45.5 -13.85 Q-54.9 -5.3 -61.35 5.7 L-62.2 7.1 -62.9 7.4 -63.15 8.65 -63.9 9.15 Q-71.35 27.65 -83.5 43.6 -111.55 46.05 -134.15 29.55 -141.2 24.4 -144.7 16.65 L-142.7 8.45 Q-143.6 15.7 -138.4 20.85 -133.5 25.7 -127.1 28.15 -124.45 29.15 -121.75 29.75 -129.25 27.45 -135.2 22.55 -140.75 18.05 -142.7 11.15 L-133.0 -8.75 -141.45 4.65 Q-130.75 -24.15 -103.1 -37.1 -76.9 -49.3 -49.3 -39.45 -36.5 -34.85 -26.45 -25.7 L-33.45 -27.85 -35.85 -26.8 -37.2 -26.8 Q-49.75 -19.45 -58.0 -7.65 -49.7 -16.65 -38.7 -22.1 -36.05 -23.45 -33.4 -24.5 L-34.55 -26.7 -31.25 -24.75 -26.35 -25.65 -22.2 -21.65 Q-20.65 -20.05 -19.9 -17.95 -19.1 -15.9 -19.2 -13.6 L-19.25 -12.85 -19.85 -15.05 Q-22.55 -20.9 -28.85 -22.9 L-30.35 -23.4 Q-39.3 -20.85 -45.5 -13.85 M-66.85 -1.65 L-68.25 -2.35 Q-79.8 -7.85 -92.55 -7.0 L-105.55 9.4 -109.25 9.95 Q-115.7 18.05 -116.5 28.45 L-111.65 30.9 Q-98.7 36.9 -85.0 34.25 -78.45 15.0 -66.85 -1.65 M-83.75 41.3 L-82.9 40.65 Q-76.15 35.35 -74.5 26.95 L-83.75 41.3 M-71.95 12.95 L-72.6 13.4 -72.8 14.1 -71.95 12.95" fill="#000000" fill-rule="evenodd" stroke="none"/>
    <path d="M-66.85 -1.65 Q-78.45 15.0 -85.0 34.25 -98.7 36.9 -111.65 30.9 L-116.5 28.45 Q-115.7 18.05 -109.25 9.95 L-105.55 9.4 -92.55 -7.0 Q-79.8 -7.85 -68.25 -2.35 L-66.85 -1.65" fill="#000000" fill-opacity="0.34117648" fill-rule="evenodd" stroke="none"/>
    <path d="M-19.85 -15.05 Q-31.1 -13.05 -42.45 -13.6 L-45.5 -13.85 Q-39.3 -20.85 -30.35 -23.4 L-28.85 -22.9 Q-22.55 -20.9 -19.85 -15.05" fill="#000000" fill-opacity="0.42352942" fill-rule="evenodd" stroke="none"/>
  </g>
</svg>
