<?xml version="1.0" encoding="UTF-8" standalone="no"?>
<svg xmlns:xlink="http://www.w3.org/1999/xlink" height="179.65px" width="165.55px" xmlns="http://www.w3.org/2000/svg">
  <g transform="matrix(1.0, 0.0, 0.0, 1.0, 0.0, 0.0)">
    <path d="M131.5 41.5 Q134.95 50.85 137.6 63.25 140.2 75.7 139.2 85.95 135.15 88.7 129.15 89.35 123.15 89.95 118.4 89.6 L113.4 89.15 95.0 78.9 86.8 75.5 84.6 73.45 Q84.15 73.85 79.7 75.5 75.2 77.25 72.45 75.65 71.2 74.25 73.95 72.05 76.7 69.9 79.9 68.15 L83.45 66.35 83.75 63.75 77.2 66.1 Q70.95 68.2 62.7 69.55 54.45 70.9 48.2 68.8 L29.6 61.35 19.8 57.35 18.55 53.15 Q24.3 51.3 37.25 49.05 50.3 46.7 62.8 45.55 75.3 44.4 79.5 45.95 83.4 47.65 89.15 48.95 L99.5 50.95 104.35 51.65 100.3 47.2 95.95 42.0 Q92.25 37.45 93.3 37.25 94.1 36.95 91.4 28.75 88.75 20.5 87.35 11.55 86.0 2.6 90.65 0.15 94.25 -0.55 97.1 2.55 99.9 5.7 101.55 9.15 L103.25 12.9 106.5 19.35 113.1 31.6 Q116.6 37.9 118.1 39.15 L119.55 42.15 120.7 44.2 125.65 53.1 125.3 47.1 Q125.05 41.55 125.15 36.25 125.3 30.9 126.55 31.15 128.05 32.2 131.5 41.5" fill="#bdc2ca" fill-rule="evenodd" stroke="none"/>
    <path d="M128.9 48.1 Q127.6 40.75 128.25 39.05 128.9 37.35 131.4 42.75 135.15 51.4 136.5 61.6 137.85 71.75 137.9 79.1 L137.9 86.85 136.75 88.6 Q135.6 89.8 133.65 85.1 131.95 72.8 126.7 64.1 121.35 55.4 117.75 52.35 114.05 49.25 117.3 53.75 121.05 58.8 123.7 65.9 126.25 73.0 126.45 77.15 126.65 81.25 123.2 77.45 116.3 69.15 107.0 67.05 97.7 64.95 90.25 65.75 L81.4 67.1 88.8 64.45 Q98.05 61.4 105.2 63.85 112.3 66.3 116.8 70.3 L122.65 75.7 Q123.95 77.2 121.55 72.1 118.0 64.95 108.85 61.15 99.75 57.4 88.75 56.2 L68.7 55.4 51.7 56.15 40.05 55.65 Q36.4 54.95 40.5 52.65 45.3 50.25 55.4 49.4 L75.55 48.7 90.5 49.8 Q95.15 50.9 101.4 53.5 107.6 56.05 111.7 57.05 115.75 58.0 113.9 54.3 110.0 48.1 105.4 44.2 100.75 40.25 104.05 41.9 108.15 43.8 112.9 46.8 117.7 49.8 121.8 54.05 125.35 57.65 124.25 54.55 123.15 51.35 122.65 48.65 122.65 46.8 123.65 50.5 124.7 54.25 127.2 60.25 129.7 65.4 129.95 60.6 130.2 55.9 128.9 48.1" fill="#ffffff" fill-rule="evenodd" stroke="none"/>
    <path d="M93.1 62.1 L91.45 61.95 Q90.3 61.95 90.85 62.5 87.6 63.15 83.95 64.45 80.3 66.0 72.55 67.7 64.75 69.4 53.5 69.55 41.6 68.9 31.05 63.05 20.5 57.25 19.6 54.3 19.75 52.85 21.8 52.15 23.8 51.45 25.0 51.65 26.2 51.75 23.6 52.7 21.1 53.8 25.7 56.7 30.25 59.65 38.2 62.6 46.15 65.5 53.8 66.6 64.9 67.25 75.0 63.95 85.1 60.65 93.1 62.1" fill="#7d8892" fill-rule="evenodd" stroke="none"/>
    <path d="M115.5 76.8 Q121.25 81.1 123.75 86.95 L123.65 89.95 Q123.5 92.3 122.9 88.1 122.15 84.95 118.05 83.95 113.95 82.95 110.6 82.95 107.3 82.9 108.8 82.75 L113.95 81.75 Q116.4 81.4 119.55 82.75 113.05 76.45 105.8 77.9 L96.65 79.9 92.15 79.85 86.4 79.45 Q84.05 79.05 86.35 78.05 L82.25 77.05 Q80.15 76.4 79.35 75.6 75.7 76.9 76.6 75.4 79.05 72.25 87.3 71.4 95.55 70.6 102.85 71.45 109.8 72.45 115.5 76.8 M111.9 76.85 L110.65 76.0 110.4 76.0 111.9 76.85" fill="#7d8892" fill-rule="evenodd" stroke="none"/>
    <path d="M58.8 126.3 Q56.4 122.6 55.05 115.65 53.75 108.75 56.8 107.4 60.05 107.1 62.0 109.45 63.95 111.8 66.4 112.55 68.65 113.65 67.85 118.75 L66.7 124.6 64.7 126.3 58.8 126.3" fill="#bdc2ca" fill-rule="evenodd" stroke="none"/>
    <path d="M114.75 122.85 L114.75 124.8 110.2 127.6 Q110.2 127.85 104.75 130.6 99.35 133.35 88.75 135.5 78.15 136.85 72.8 133.55 67.4 130.15 67.6 128.75 67.8 127.7 67.5 124.0 67.2 120.3 66.2 116.65 65.45 113.95 64.9 107.75 64.4 101.6 64.55 96.45 64.65 91.35 65.9 91.8 69.8 96.3 74.7 93.1 79.6 89.9 82.05 85.5 L114.75 122.85" fill="#ffc40c" fill-rule="evenodd" stroke="none"/>
    <path d="M75.45 93.45 Q75.45 101.3 75.9 112.4 76.4 123.45 79.95 130.45 83.2 136.45 80.1 136.5 76.95 136.6 74.9 134.95 73.85 133.55 72.55 124.75 71.2 116.0 70.55 106.55 69.85 97.15 70.75 93.85 72.3 90.25 74.1 91.75 L76.05 93.75 75.45 93.45" fill="#fff9ba" fill-rule="evenodd" stroke="none"/>
    <path d="M80.0 88.95 L82.85 85.25 88.9 92.45 100.45 106.15 107.1 114.3 111.2 120.1 114.7 124.8 112.15 126.95 Q109.6 128.95 105.15 130.4 100.35 131.95 94.25 134.2 88.1 136.4 84.2 136.05 80.75 135.2 80.7 133.8 80.65 132.4 82.25 133.25 L87.55 133.05 95.4 130.9 Q99.2 129.65 99.75 129.0 L100.3 128.35 94.95 124.5 Q91.3 121.6 88.75 116.45 86.2 111.4 84.75 106.9 L83.1 101.35 81.45 96.0 Q80.35 92.15 80.0 88.95" fill="#c59a0a" fill-rule="evenodd" stroke="none"/>
    <path d="M128.3 89.1 Q133.8 89.05 135.45 87.6 137.1 86.1 140.25 85.9 142.45 86.1 141.4 90.15 140.35 94.15 137.7 99.05 135.1 103.95 132.55 106.8 129.85 109.4 123.45 109.75 L110.7 109.15 Q104.35 108.25 101.8 107.1 98.0 104.95 92.85 100.1 L86.65 94.0 Q85.85 93.1 84.85 90.9 83.9 88.65 83.75 87.45 83.65 86.6 82.85 85.55 82.0 84.5 81.4 81.95 80.75 79.05 81.35 76.55 81.9 74.0 84.7 73.45 L86.9 75.5 89.65 77.0 Q92.1 78.35 94.1 79.3 97.35 80.2 98.6 81.15 99.75 82.15 102.7 84.05 L106.0 86.15 114.15 87.5 128.3 89.1" fill="#2f5fac" fill-rule="evenodd" stroke="none"/>
    <path d="M131.0 89.6 Q136.2 89.55 137.55 88.65 136.7 99.7 131.0 102.95 125.25 106.2 117.65 104.95 110.0 103.7 103.3 101.1 94.0 97.05 93.6 90.35 93.15 83.55 96.35 81.25 L99.85 83.4 Q103.35 85.35 109.3 87.25 113.45 88.45 119.6 89.05 L131.0 89.6" fill="url(#gradient0)" fill-rule="evenodd" stroke="none"/>
    <path d="M156.45 111.25 Q154.8 116.4 154.05 116.9 L148.7 117.2 Q143.85 117.45 140.15 116.5 136.45 115.55 139.5 112.1 142.75 108.55 141.25 106.8 139.75 104.95 137.1 104.35 L134.15 103.75 138.0 96.35 141.1 97.2 Q144.35 98.15 151.55 101.85 158.1 106.15 156.45 111.25" fill="#2f5fac" fill-rule="evenodd" stroke="none"/>
    <path d="M145.8 103.7 Q138.55 100.25 137.6 99.55 136.6 98.75 137.05 98.9 L138.15 98.35 Q141.65 98.95 146.2 100.85 150.75 102.8 153.45 105.6 156.15 108.5 153.95 111.9 150.55 116.5 150.15 115.7 149.8 114.9 150.0 114.45 L147.7 113.3 149.5 111.85 Q150.95 110.5 150.8 108.3 150.6 106.15 145.8 103.7" fill="url(#gradient1)" fill-rule="evenodd" stroke="none"/>
    <path d="M78.7 76.1 L82.1 74.45 81.35 81.95 82.1 85.6 78.3 89.65 Q74.8 93.25 70.75 93.95 67.1 93.65 66.3 90.35 65.5 87.05 65.7 86.55 L62.0 85.5 55.75 84.0 47.65 83.1 Q42.45 82.55 39.9 81.5 38.0 80.05 39.9 77.1 41.75 74.2 45.35 74.45 L58.3 75.85 71.9 76.65 78.7 76.1" fill="#2f5fac" fill-rule="evenodd" stroke="none"/>
    <path d="M67.15 80.2 L60.95 80.35 Q58.75 80.25 58.65 80.65 58.5 81.05 58.65 81.05 L51.75 80.1 41.3 78.5 Q37.85 77.7 38.2 76.7 38.6 75.7 40.8 76.15 L52.65 77.7 67.75 79.4 Q70.45 79.95 67.15 80.2" fill="url(#gradient2)" fill-rule="evenodd" stroke="none"/>
    <path d="M120.05 109.75 L128.05 109.55 Q129.05 109.95 126.95 112.2 124.9 114.45 124.3 115.55 123.95 116.4 122.65 117.15 L120.6 118.35 118.2 120.9 116.5 122.95 Q116.6 123.15 114.15 124.8 111.7 126.5 105.05 127.15 100.1 126.75 95.85 120.85 91.6 114.9 88.85 107.6 86.1 100.3 85.65 95.75 L85.6 94.95 85.6 93.8 89.35 98.0 94.45 102.7 Q99.35 107.0 106.5 108.75 L120.05 109.75" fill="#bdc2ca" fill-rule="evenodd" stroke="none"/>
    <path d="M117.85 112.4 Q122.85 112.75 119.45 116.15 116.0 119.6 112.15 122.3 L109.4 122.6 105.1 122.85 Q102.05 122.9 100.35 120.0 L97.9 114.75 Q96.2 110.85 95.55 108.05 94.85 105.2 97.2 107.35 101.15 110.8 106.55 111.65 L117.85 112.4" fill="#ffffff" fill-rule="evenodd" stroke="none"/>
    <path d="M109.15 34.8 Q103.55 26.35 98.75 16.05 93.9 5.85 94.85 2.15 95.95 0.65 99.2 6.25 102.5 11.75 105.65 18.45 L109.7 27.1 113.8 34.0 Q116.7 38.65 118.7 43.8 L119.5 44.85 121.0 51.7 115.5 47.75 Q115.75 47.9 114.9 45.15 114.05 42.4 109.15 34.8" fill="#ffffff" fill-rule="evenodd" stroke="none"/>
    <path d="M101.1 130.7 L108.8 127.65 Q112.9 125.8 114.15 124.4 106.45 129.9 100.45 125.9 97.15 123.55 94.15 119.25 91.15 114.9 90.85 114.05 90.65 113.65 89.25 113.5 L86.6 113.05 Q84.45 112.25 81.95 116.75 80.35 118.95 76.8 118.15 73.25 117.35 70.05 115.35 L68.65 114.2 66.45 112.5 Q65.8 112.35 66.4 115.6 67.0 118.9 67.55 121.25 L67.9 124.45 67.85 127.9 Q68.05 130.3 73.0 132.75 77.9 135.15 84.9 135.25 91.45 135.0 94.8 133.5 L101.1 130.7 M163.95 176.05 Q165.35 176.85 165.35 177.45 165.3 178.0 160.95 178.7 L148.05 179.35 Q138.65 179.45 129.2 179.15 L116.35 178.0 106.7 177.2 Q101.9 177.25 102.7 172.35 105.9 161.4 106.5 161.35 L107.3 158.4 Q108.1 155.65 110.15 152.0 112.35 148.65 113.9 147.75 115.3 146.9 115.5 146.95 L114.6 145.15 Q113.85 143.5 115.5 141.3 116.45 139.95 110.45 141.55 104.45 143.1 95.9 146.75 87.3 150.4 80.55 155.25 70.85 162.6 64.8 164.15 58.75 165.75 57.1 159.95 L55.85 155.1 55.3 157.25 Q52.85 159.1 53.95 159.95 55.4 160.6 58.5 163.9 61.6 167.25 60.9 171.5 62.5 172.15 62.8 173.45 63.1 174.75 61.75 175.3 61.65 175.6 56.9 177.45 52.1 179.3 43.85 179.6 35.6 179.95 25.1 175.6 24.0 171.5 24.65 169.3 25.3 167.05 25.5 167.0 25.6 166.45 29.1 159.75 32.55 153.05 38.15 146.8 L49.2 135.7 Q54.45 130.4 56.4 126.9 60.25 119.6 64.55 121.8 66.25 123.1 66.5 123.85 L65.0 114.0 Q64.0 106.8 63.85 99.0 63.75 91.15 65.7 86.55 65.85 92.6 71.1 92.85 76.4 93.15 81.1 84.85 82.75 82.35 82.7 82.95 L82.65 84.3 82.65 86.55 79.9 90.05 Q77.25 93.2 73.05 94.4 70.6 95.1 73.1 96.9 75.6 98.75 79.2 100.45 L83.75 102.5 Q84.15 103.0 78.3 101.5 72.45 100.05 67.4 94.0 65.65 91.85 65.3 95.5 64.9 99.25 65.6 104.2 66.25 109.15 67.7 110.8 70.15 112.9 74.35 114.75 78.45 116.6 80.1 116.05 81.35 115.1 82.2 113.35 83.05 111.6 84.05 111.35 L87.7 112.15 90.25 112.2 87.65 105.85 Q85.35 100.4 84.75 94.3 84.9 92.45 85.7 93.05 L86.6 94.0 Q86.5 94.4 87.65 100.4 88.8 106.45 92.45 114.0 96.1 121.55 103.4 126.3 100.5 122.8 101.2 122.15 101.9 121.5 102.85 121.65 104.1 122.45 108.35 122.8 112.95 122.45 109.75 124.65 108.3 125.65 111.35 124.3 114.4 122.95 117.95 120.1 119.2 118.05 120.65 117.25 L122.15 116.5 Q122.2 116.7 123.3 115.9 L125.7 112.95 128.1 109.55 Q129.9 107.7 130.65 108.0 L128.45 111.1 125.4 115.05 Q124.75 115.7 126.1 115.05 127.4 114.35 128.25 114.2 L130.95 113.05 Q132.95 112.05 135.6 111.8 136.15 110.7 138.1 110.45 L140.35 110.2 Q140.8 109.95 140.75 107.5 140.6 105.05 134.3 104.45 134.2 103.45 134.75 102.85 L135.4 102.2 Q134.9 102.55 135.4 103.35 136.6 103.4 140.05 104.55 143.55 105.75 141.65 110.2 147.7 110.75 150.2 112.9 152.75 115.05 152.65 115.35 153.3 115.0 155.35 111.1 157.4 107.2 152.95 103.45 147.55 100.15 142.95 98.8 L138.0 97.55 139.1 96.1 Q145.85 97.3 152.0 100.65 158.2 104.0 158.0 108.55 157.2 112.95 155.75 114.95 L154.05 116.9 Q154.35 117.1 154.9 118.85 155.45 120.6 152.65 121.25 152.4 124.45 150.6 124.8 L148.55 124.9 148.4 126.25 Q148.15 127.4 146.85 127.75 149.65 130.45 149.25 135.2 148.85 139.9 147.45 143.8 L145.9 147.95 147.5 148.35 Q148.85 148.9 148.25 151.35 158.1 154.0 160.85 158.7 163.6 163.45 163.25 165.15 L165.05 170.55 Q166.4 174.3 163.95 176.05" fill="#1a2f59" fill-rule="evenodd" stroke="none"/>
    <path d="M124.3 35.45 Q124.15 29.75 125.2 29.35 127.85 29.85 131.6 39.65 135.4 49.45 137.9 62.55 140.35 75.65 139.2 85.95 L138.45 86.9 Q137.8 87.7 137.75 86.8 138.45 73.65 135.9 61.35 133.35 49.1 130.2 40.95 127.1 32.85 126.05 32.3 125.3 32.45 125.55 37.65 L126.2 48.35 Q126.6 53.75 126.15 54.5 125.3 54.25 123.45 50.1 121.6 45.95 120.1 45.3 119.15 45.85 120.65 49.1 122.1 52.35 120.95 51.65 119.5 50.5 113.45 46.85 107.45 43.1 101.45 40.15 95.5 37.15 94.25 38.2 93.85 39.85 97.85 43.9 L105.3 51.7 Q108.75 55.35 106.55 55.75 95.75 49.65 81.35 48.2 66.95 46.75 53.1 48.1 39.25 49.45 30.05 51.65 20.85 53.85 20.45 54.9 20.85 56.95 27.5 60.45 34.15 64.0 41.2 66.3 48.3 68.5 59.0 68.45 69.65 68.35 77.2 65.35 84.15 62.45 88.1 62.15 L93.85 61.8 Q95.1 61.6 93.45 62.4 91.8 63.15 93.3 64.35 88.75 63.55 84.85 64.9 L75.05 68.05 Q69.05 69.8 58.15 70.3 40.85 70.05 28.9 63.8 16.9 57.55 16.5 54.5 17.0 51.8 29.8 48.45 42.55 45.05 62.65 44.75 82.5 45.25 93.3 48.75 103.15 51.95 104.2 52.65 L100.75 49.0 Q97.45 45.45 94.55 41.65 91.65 37.85 92.6 36.85 94.8 35.8 101.45 39.15 108.1 42.5 114.1 46.3 L120.55 50.4 Q120.15 50.0 118.9 47.25 117.65 44.45 119.55 43.6 121.85 43.75 123.65 48.05 L125.6 53.05 125.0 46.9 Q124.5 41.15 124.3 35.45" fill="#1a2f59" fill-rule="evenodd" stroke="none"/>
    <path d="M93.15 79.45 L91.0 77.8 Q89.05 76.4 88.1 76.2 87.4 76.05 86.9 75.3 86.35 74.55 85.25 74.35 82.45 74.1 81.6 77.75 81.1 81.3 81.9 82.5 L82.85 79.5 Q83.75 76.35 86.85 75.45 86.6 75.9 86.7 76.45 86.85 76.95 86.0 77.6 84.2 79.25 84.55 81.55 L83.9 83.9 Q83.3 85.3 84.7 86.9 86.05 88.4 85.45 88.95 84.75 89.55 84.85 90.6 85.35 91.9 86.6 93.4 L88.1 95.1 Q87.9 94.85 87.65 91.65 87.35 88.4 88.65 84.8 90.25 81.5 91.65 80.4 93.1 79.35 93.15 79.45 M141.75 86.5 Q143.2 87.6 140.2 93.95 137.2 100.3 133.55 106.1 131.15 109.5 125.5 110.4 119.85 111.25 114.05 110.7 L105.05 109.25 Q96.95 106.75 89.35 97.9 85.5 93.95 85.05 94.0 84.6 94.05 84.4 93.4 L82.9 90.3 Q81.95 88.25 82.0 85.5 80.4 83.5 80.2 80.5 80.0 77.5 81.35 74.75 79.85 76.0 76.5 77.55 73.15 79.05 71.15 76.2 70.25 73.95 73.05 71.65 75.85 69.45 79.2 67.9 82.55 66.35 83.45 66.3 84.3 66.4 83.2 67.4 82.05 68.35 80.05 69.0 77.75 69.7 74.7 71.8 71.65 73.9 72.4 75.65 73.8 76.95 77.3 75.65 L83.45 73.35 Q86.05 72.6 87.75 72.5 89.4 72.45 87.8 73.05 86.35 73.7 87.6 74.05 88.8 74.45 88.5 75.05 92.4 76.65 95.0 78.85 95.8 79.4 96.25 79.1 96.65 78.8 98.4 80.0 100.3 81.7 105.45 84.65 110.6 87.55 119.25 87.75 L133.55 87.1 Q139.0 86.5 139.35 84.95 139.65 83.5 140.55 83.65 L141.55 83.95 Q143.35 85.3 141.75 86.5 M140.9 87.65 L139.35 87.7 Q139.1 88.05 137.5 88.6 135.35 89.45 128.05 90.6 120.75 91.75 112.4 89.6 104.5 87.05 101.45 84.95 L98.55 82.7 Q96.55 80.9 94.3 81.1 92.0 81.25 90.35 85.25 87.3 93.15 92.05 98.2 94.1 101.1 99.05 104.55 104.0 108.0 115.05 109.05 126.05 109.7 129.75 107.6 133.5 105.55 134.1 103.7 L138.7 95.05 Q141.85 88.7 140.9 87.65" fill="#1a2f59" fill-rule="evenodd" stroke="none"/>
    <path d="M98.5 6.6 Q94.3 0.05 91.2 1.55 87.2 4.8 88.25 13.15 89.3 21.55 91.85 29.0 L94.65 36.95 93.35 37.2 Q91.15 34.3 88.85 25.75 86.55 17.15 86.4 9.15 86.25 1.25 90.65 0.15 97.4 -0.1 101.0 6.75 104.7 13.65 107.2 20.3 110.15 26.55 114.5 33.15 118.85 39.7 120.75 44.15 L119.8 45.0 Q119.0 45.65 118.9 44.6 118.75 43.15 116.5 39.4 L111.85 32.05 Q110.15 29.15 106.4 21.15 102.7 13.15 98.5 6.6" fill="#1a2f59" fill-rule="evenodd" stroke="none"/>
    <path d="M96.6 43.6 L100.3 47.55 104.35 51.65 Q105.3 52.6 104.5 53.8 103.85 53.9 102.65 52.6 L100.7 50.8 Q100.05 50.35 99.05 48.15 98.1 45.95 96.6 43.6" fill="#1a2f59" fill-rule="evenodd" stroke="none"/>
    <path d="M70.4 75.35 L71.65 74.5 71.95 77.3 65.75 77.5 51.6 76.25 Q44.0 74.8 42.1 75.6 40.3 76.4 40.3 78.6 40.25 80.7 43.0 81.4 L47.8 82.15 54.05 83.2 63.5 85.2 Q68.2 86.25 69.35 86.8 70.75 87.65 70.95 88.35 71.15 89.1 70.1 88.35 69.0 87.7 63.75 86.35 L53.6 84.05 Q48.75 83.15 48.8 83.95 49.25 85.6 47.45 87.65 45.6 89.7 43.25 89.2 40.85 90.95 36.85 91.3 32.8 91.75 29.85 92.7 27.05 94.45 23.2 97.35 19.4 100.3 15.6 97.65 12.55 94.15 16.15 89.9 19.75 85.6 22.4 84.55 24.15 83.7 23.45 82.55 22.7 81.45 21.95 81.3 L19.3 81.85 16.3 82.3 Q15.35 82.1 14.25 81.25 13.15 80.35 13.35 79.75 L7.55 79.15 Q3.85 78.4 2.0 76.85 0.15 75.25 3.75 72.8 1.5 71.25 0.4 67.85 -0.65 64.4 0.95 62.95 3.85 60.0 16.3 68.3 L20.1 69.0 24.8 70.15 29.6 71.1 33.8 71.4 Q36.35 71.3 37.45 71.85 38.75 72.0 41.7 71.15 43.4 70.9 45.05 71.85 46.65 72.8 46.1 73.85 49.35 74.75 57.3 75.5 65.2 76.2 70.4 75.35" fill="#1a2f59" fill-rule="evenodd" stroke="none"/>
    <path d="M65.35 113.75 L61.75 110.2 Q58.55 107.2 56.45 108.25 54.8 110.05 55.5 114.85 56.25 119.6 58.6 124.75 58.6 126.35 57.8 125.85 L56.85 125.2 Q54.8 121.85 53.8 116.0 52.9 110.15 55.35 107.6 58.1 105.85 60.0 107.15 61.95 108.5 63.25 109.75 L64.9 111.0 65.35 113.75" fill="#1a2f59" fill-rule="evenodd" stroke="none"/>
    <path d="M75.95 117.25 L76.65 116.9 Q77.35 116.65 77.95 117.55 79.0 131.1 82.35 133.6 85.65 136.15 86.15 135.5 86.35 135.6 86.15 135.8 L82.9 135.05 Q79.5 133.35 77.75 126.95 76.05 120.55 75.95 117.25" fill="#1a2f59" fill-rule="evenodd" stroke="none"/>
    <path d="M152.95 118.3 Q153.25 120.1 152.6 119.95 L151.8 119.75 150.85 122.4 Q149.9 124.55 147.6 122.1 L143.8 117.05 Q142.2 114.95 139.7 114.8 L134.1 115.7 Q131.25 116.45 128.95 115.25 129.9 114.65 133.4 113.4 136.95 112.15 139.55 112.1 142.15 112.1 146.45 113.25 150.75 114.4 152.95 118.3" fill="#1a2f59" fill-rule="evenodd" stroke="none"/>
    <path d="M144.35 125.95 Q143.85 124.75 143.85 124.15 143.85 123.65 143.45 123.3 143.05 123.0 142.6 124.15 142.2 125.55 141.15 126.65 140.05 127.75 137.8 127.1 135.7 126.1 136.85 123.35 138.05 120.6 139.65 119.4 141.15 118.7 142.65 119.85 144.2 121.05 144.4 120.8 144.3 119.15 140.3 117.95 138.45 117.95 137.05 120.2 135.65 122.45 135.55 123.2 135.05 124.6 134.55 123.6 134.0 122.2 133.45 123.2 133.5 124.0 132.15 127.35 130.8 130.7 127.35 131.95 124.15 132.4 124.5 129.4 124.9 126.4 125.55 124.35 126.55 120.4 129.45 119.2 131.6 118.35 129.45 118.1 128.0 117.6 125.65 120.9 123.35 125.15 123.15 129.8 122.35 134.4 117.6 134.35 115.5 133.55 115.4 128.95 115.35 124.4 116.5 122.9 L119.35 120.0 Q121.05 118.25 123.15 117.25 125.35 116.5 128.9 116.65 L134.85 116.7 139.45 116.35 Q141.85 116.45 144.6 119.5 147.2 122.8 147.3 124.65 147.35 126.55 146.3 126.85 144.8 127.1 144.35 125.95" fill="#bdc2ca" fill-rule="evenodd" stroke="none"/>
    <path d="M114.2 127.35 Q114.6 126.25 114.75 130.0 114.9 133.75 115.45 134.8 115.75 135.75 112.7 137.55 109.65 139.35 107.25 135.95 106.05 132.9 109.15 131.45 112.25 130.05 114.2 127.35" fill="#bdc2ca" fill-rule="evenodd" stroke="none"/>
    <path d="M113.0 161.65 L110.65 162.25 Q108.65 162.7 108.35 160.5 108.55 157.5 111.45 152.75 114.25 148.0 117.2 148.4 119.6 149.9 117.2 154.9 114.9 160.0 113.0 161.65" fill="#fec416" fill-rule="evenodd" stroke="none"/>
    <path d="M42.95 73.8 Q40.55 74.0 39.55 75.75 38.55 77.6 38.75 78.9 38.8 80.2 40.15 81.7 41.55 83.3 45.65 83.7 49.35 84.7 46.05 87.3 42.75 89.85 38.75 85.7 35.45 80.9 35.45 78.7 35.4 76.5 36.05 75.5 36.5 74.3 38.0 73.3 39.5 72.25 41.8 72.7 43.95 73.25 43.55 73.5 L42.95 73.8" fill="#1a2f59" fill-rule="evenodd" stroke="none"/>
    <path d="M19.8 80.25 Q20.65 80.75 20.05 80.75 L17.65 81.15 Q16.55 81.05 15.65 80.3 14.7 79.55 15.55 79.35 18.15 78.6 16.25 78.3 14.5 78.5 9.75 78.3 5.05 78.05 3.4 76.65 2.35 75.2 2.95 74.6 3.6 74.0 4.5 73.85 5.5 73.75 8.05 74.8 10.5 75.9 13.0 76.4 17.6 77.45 18.4 79.2 L19.8 80.25" fill="#bdc2ca" fill-rule="evenodd" stroke="none"/>
    <path d="M28.15 71.7 L21.55 71.0 Q19.9 70.75 19.15 70.2 L19.95 70.05 Q23.0 70.3 28.15 71.7" fill="#bdc2ca" fill-rule="evenodd" stroke="none"/>
    <path d="M24.85 81.9 Q24.0 80.9 22.1 80.15 L18.9 77.9 Q17.65 76.65 15.75 76.05 13.45 75.55 9.5 74.25 5.55 72.95 3.9 70.55 2.35 67.95 1.75 65.7 1.05 63.5 3.35 63.35 L4.6 63.5 Q2.3 63.9 2.25 65.9 2.15 67.85 5.5 70.05 9.6 72.3 14.35 73.35 19.15 74.45 21.3 75.45 22.95 76.5 23.05 77.25 23.2 78.0 25.25 78.2 29.55 79.25 29.2 81.9 28.45 83.1 23.4 84.95 25.7 82.85 24.85 81.9" fill="#bdc2ca" fill-rule="evenodd" stroke="none"/>
    <path d="M33.7 74.2 L35.35 73.45 35.3 73.65 34.7 74.7 33.95 74.55 Q33.05 74.55 33.7 74.2" fill="#bdc2ca" fill-rule="evenodd" stroke="none"/>
    <path d="M35.5 82.55 Q38.45 86.75 38.65 88.15 38.2 88.9 35.35 89.8 L29.6 91.0 Q26.85 91.75 23.9 95.0 20.9 98.2 18.55 97.5 L17.6 96.75 Q19.9 97.4 20.45 93.75 21.2 91.65 23.4 89.5 25.55 87.35 27.8 87.0 29.75 86.75 32.05 85.6 34.35 84.4 35.5 82.55" fill="#bdc2ca" fill-rule="evenodd" stroke="none"/>
    <path d="M33.35 72.65 Q35.5 72.85 35.3 73.5 34.35 73.9 33.7 74.25 33.05 74.6 33.9 74.6 L34.7 74.75 Q32.95 77.95 35.0 81.85 L35.45 82.55 Q34.3 84.45 31.95 85.6 29.7 86.8 27.7 87.0 25.5 87.4 23.3 89.55 21.15 91.75 20.4 93.8 19.9 97.4 17.55 96.75 16.05 95.25 16.35 92.75 L17.35 90.25 Q18.45 88.45 21.05 86.65 L23.35 84.95 Q28.4 83.05 29.15 81.95 29.5 79.2 25.15 78.25 23.15 78.05 23.0 77.3 22.85 76.5 21.25 75.4 19.05 74.45 14.25 73.4 9.5 72.3 5.4 70.05 2.1 67.85 2.15 65.85 2.2 63.9 4.55 63.55 7.65 64.4 11.6 66.7 15.6 69.0 17.55 70.7 19.5 72.4 21.8 73.3 24.05 74.15 25.45 73.65 26.55 73.2 25.7 73.0 L23.2 72.4 20.2 71.15 Q18.65 70.45 19.15 70.1 19.9 70.7 21.5 70.9 L28.15 71.65 33.35 72.65" fill="#ffffff" fill-rule="evenodd" stroke="none"/>
    <path d="M136.65 117.65 Q135.55 118.6 134.15 118.75 132.8 119.1 131.35 122.1 129.95 125.1 129.7 126.4 129.3 127.35 127.7 127.0 126.05 126.75 126.3 124.7 127.2 121.25 129.45 119.25 L131.05 117.55 129.5 117.7 Q127.3 118.3 125.1 119.7 122.95 121.2 122.5 122.55 121.7 124.2 118.9 125.8 116.05 127.4 116.55 124.5 117.25 122.65 119.45 120.1 121.6 117.5 123.05 117.25 L126.35 117.05 129.5 116.85 133.25 117.0 136.9 116.85 Q137.7 116.65 136.65 117.65" fill="#ffffff" fill-rule="evenodd" stroke="none"/>
    <path d="M139.45 124.7 Q137.2 123.3 139.05 120.45 140.25 119.15 141.1 119.6 141.95 120.05 141.4 121.1 140.8 122.25 140.45 123.65 140.1 125.05 139.45 124.7" fill="#ffffff" fill-rule="evenodd" stroke="none"/>
    <path d="M115.0 155.35 Q113.1 159.4 111.1 159.05 109.45 157.85 111.0 153.65 112.9 149.65 114.9 150.05 116.55 151.2 115.0 155.35" fill="#fff9ba" fill-rule="evenodd" stroke="none"/>
    <path d="M142.05 156.15 Q150.3 156.35 155.85 159.05 161.4 161.75 161.8 169.1 161.65 176.2 156.6 175.95 151.55 175.65 146.25 174.5 143.3 173.75 143.45 169.55 143.55 165.3 143.95 161.1 144.35 156.85 142.05 156.15" fill="url(#gradient3)" fill-rule="evenodd" stroke="none"/>
    <path d="M52.25 164.5 Q55.7 166.0 56.3 169.8 57.0 173.55 55.35 175.25 53.1 176.75 48.15 177.4 43.2 178.0 43.05 176.5 43.45 174.65 42.9 171.1 42.3 167.55 41.55 165.45 40.8 165.15 42.45 163.9 45.05 162.6 52.25 164.5" fill="url(#gradient4)" fill-rule="evenodd" stroke="none"/>
    <path d="M146.5 131.7 Q147.5 133.25 146.0 136.25 144.55 139.3 142.5 141.55 140.1 143.6 135.6 143.6 131.1 143.6 131.5 141.55 132.4 139.25 134.15 135.9 135.85 132.65 138.2 130.8 142.65 127.25 146.5 131.7" fill="url(#gradient5)" fill-rule="evenodd" stroke="none"/>
    <path d="M93.3 143.9 Q96.1 143.9 95.95 144.45 95.8 145.0 93.95 145.9 88.8 147.95 84.1 150.45 79.35 152.95 76.45 155.6 69.95 161.55 64.0 162.5 58.1 163.45 58.8 155.3 60.25 147.05 63.4 141.95 66.45 136.85 67.4 132.3 68.4 133.0 73.25 135.35 78.1 137.7 86.0 137.6 89.55 137.9 90.75 138.8 91.95 139.75 88.6 141.55 84.5 143.75 86.55 143.9 L93.3 143.9" fill="#2f5fac" fill-rule="evenodd" stroke="none"/>
    <path d="M120.85 135.1 Q122.5 134.55 123.3 133.55 124.85 132.1 124.25 134.0 L122.55 137.0 Q121.35 139.0 120.05 140.1 118.7 141.05 117.8 142.55 L116.8 144.15 Q115.6 145.45 116.1 141.6 116.65 139.95 117.35 139.65 L118.65 138.75 119.8 137.05 Q120.25 136.15 119.2 136.65 117.9 137.4 115.15 138.55 L110.3 140.2 Q109.1 140.45 104.5 142.0 99.9 143.5 93.95 145.9 95.8 145.0 95.9 144.45 96.1 143.9 93.3 143.9 L86.55 143.9 Q84.5 143.75 88.6 141.55 91.9 139.75 90.7 138.8 89.6 137.95 86.05 137.6 89.7 137.4 93.95 136.0 106.75 131.4 109.45 129.4 107.65 130.8 106.45 132.9 105.15 135.05 106.9 137.4 110.0 140.2 112.95 138.5 L116.1 136.4 Q116.55 136.0 118.35 135.7 L120.85 135.1" fill="#1a2f59" fill-rule="evenodd" stroke="none"/>
    <path d="M47.45 140.3 Q48.4 144.0 48.25 148.25 L47.75 154.8 Q44.85 153.25 41.95 154.05 39.05 154.85 41.85 155.1 45.2 155.3 46.65 156.5 48.1 157.65 46.5 157.3 43.8 156.8 38.6 157.3 35.45 157.65 34.05 159.2 32.7 160.75 35.35 159.85 40.6 157.05 50.75 160.15 55.9 162.15 57.55 165.15 59.2 168.15 59.05 170.35 58.9 172.05 57.6 169.9 56.35 167.8 55.65 165.4 54.85 163.35 51.55 162.85 L46.65 162.45 Q44.85 162.25 41.75 163.1 38.55 163.95 38.6 167.95 38.5 174.75 33.2 175.0 27.9 175.3 26.45 174.45 25.75 173.65 26.4 170.05 27.0 166.4 28.0 164.25 29.15 162.15 32.05 157.6 34.95 153.0 37.6 149.85 40.85 146.45 47.45 140.3" fill="#2f5fac" fill-rule="evenodd" stroke="none"/>
    <path d="M57.95 144.4 L58.6 139.85 59.1 135.05 Q59.55 136.6 59.85 139.4 L60.4 144.9 Q58.4 148.45 57.85 150.7 L57.8 148.25 Q57.8 146.0 57.95 144.4" fill="#2f5fac" fill-rule="evenodd" stroke="none"/>
    <path d="M65.15 125.1 Q66.45 127.1 65.25 131.6 L63.0 139.05 Q62.15 141.7 60.35 144.95 L59.85 139.45 Q59.55 136.6 59.05 135.05 L59.05 134.95 Q59.0 133.45 58.0 133.9 57.05 134.3 57.4 135.35 57.8 136.6 57.2 139.85 L56.35 144.7 55.5 150.9 Q55.15 152.75 54.0 155.05 52.85 157.35 52.0 158.25 51.4 158.9 50.75 157.85 50.05 156.75 47.8 154.85 L48.2 148.3 Q48.4 144.05 47.45 140.35 52.85 135.25 55.8 130.45 61.75 121.0 65.15 125.1" fill="#1a2f59" fill-rule="evenodd" stroke="none"/>
    <path d="M60.4 144.6 L60.25 149.7 Q59.95 152.75 60.5 153.1 61.1 153.85 60.7 158.1 60.25 162.3 59.25 160.7 58.3 158.1 57.9 153.5 57.5 148.95 57.8 145.25 58.25 142.15 59.25 143.15 L60.4 144.6" fill="#2f5fac" fill-rule="evenodd" stroke="none"/>
    <path d="M85.3 141.45 Q84.7 142.55 82.2 143.75 76.75 146.2 79.35 146.55 80.55 146.7 78.45 148.55 76.3 150.3 74.3 151.35 72.55 152.9 69.8 157.2 67.1 161.5 64.7 160.1 62.95 157.6 65.8 152.7 68.65 147.75 69.25 144.85 69.25 142.5 70.7 142.6 L74.3 142.9 Q76.0 142.7 74.1 141.45 L71.75 140.05 84.75 140.6 Q85.85 140.3 85.3 141.45" fill="url(#gradient6)" fill-rule="evenodd" stroke="none"/>
    <path d="M139.55 163.5 L139.05 166.25 Q137.75 170.6 130.25 171.6 L115.05 172.15 105.6 171.45 Q103.95 171.1 104.85 168.35 L106.15 164.4 Q105.9 162.9 111.1 164.15 114.1 164.35 116.4 160.45 118.75 156.65 120.15 152.4 121.1 148.7 119.1 147.65 117.2 146.6 117.2 146.05 L120.25 142.85 122.95 140.4 124.5 137.55 Q125.85 135.05 126.2 133.5 131.15 133.1 132.85 129.5 L134.4 125.8 Q134.65 126.65 137.2 128.4 140.9 129.5 142.75 127.0 L143.1 126.7 Q143.5 126.5 144.85 127.85 149.05 132.6 146.7 139.5 144.45 146.45 142.55 146.75 L134.65 146.55 125.2 146.75 Q122.6 146.85 123.2 147.65 123.75 148.35 125.8 148.45 L134.65 148.55 144.0 148.9 Q148.3 149.8 145.8 150.6 L140.85 150.5 130.15 151.0 Q128.45 151.4 127.65 151.8 122.1 153.9 121.2 156.35 120.3 158.85 126.2 160.7 L139.55 163.5" fill="#2f5fac" fill-rule="evenodd" stroke="none"/>
    <path d="M159.7 159.65 Q160.5 161.35 158.6 159.8 156.75 158.15 153.75 156.8 150.2 155.7 144.45 155.25 138.7 154.9 139.05 156.0 140.05 156.75 140.15 157.9 140.3 159.1 139.55 163.55 L126.25 160.7 Q120.35 158.9 121.25 156.4 122.1 153.95 127.7 151.85 125.45 153.35 130.05 152.15 133.25 151.2 137.85 151.6 L146.55 152.3 Q150.75 152.7 154.65 155.05 158.55 157.45 159.7 159.65" fill="url(#gradient7)" fill-rule="evenodd" stroke="none"/>
    <path d="M129.15 93.65 Q129.0 95.8 126.9 96.0 124.8 95.8 124.6 93.65 124.8 91.45 126.9 91.25 129.0 91.45 129.15 93.65" fill="#ffffff" fill-rule="evenodd" stroke="none"/>
    <path d="M131.35 92.85 Q131.25 93.75 130.35 93.85 129.45 93.75 129.35 92.85 129.45 91.95 130.35 91.85 131.25 91.95 131.35 92.85" fill="#ffffff" fill-rule="evenodd" stroke="none"/>
    <path d="M130.95 95.15 Q130.9 96.0 130.05 96.05 129.25 96.0 129.15 95.15 129.25 94.35 130.05 94.25 130.9 94.35 130.95 95.15" fill="#ffffff" fill-rule="evenodd" stroke="none"/>
  </g>
  <defs>
    <radialGradient cx="0" cy="0" fx="76.80000000000001" fy="0" gradientTransform="matrix(0.0445, 0.0, 0.0, 0.0445, 129.6, 74.8)" gradientUnits="userSpaceOnUse" id="gradient0" r="819.2" spreadMethod="pad">
      <stop offset="0.0" stop-color="#ffffff"/>
      <stop offset="1.0" stop-color="#2f5fac"/>
    </radialGradient>
    <radialGradient cx="0" cy="0" fx="76.80000000000001" fy="0" gradientTransform="matrix(0.0303, 0.0, 0.0, 0.0303, 166.4, 95.8)" gradientUnits="userSpaceOnUse" id="gradient1" r="819.2" spreadMethod="pad">
      <stop offset="0.0" stop-color="#ffffff"/>
      <stop offset="1.0" stop-color="#2f5fac"/>
    </radialGradient>
    <radialGradient cx="0" cy="0" fx="76.80000000000001" fy="0" gradientTransform="matrix(0.0345, 0.0, 0.0, 0.0345, 48.05, 57.9)" gradientUnits="userSpaceOnUse" id="gradient2" r="819.2" spreadMethod="pad">
      <stop offset="0.0" stop-color="#ffffff"/>
      <stop offset="1.0" stop-color="#2f5fac"/>
    </radialGradient>
    <radialGradient cx="0" cy="0" fx="76.80000000000001" fy="0" gradientTransform="matrix(0.0462, 0.0, 0.0, 0.0462, 162.95, 135.85)" gradientUnits="userSpaceOnUse" id="gradient3" r="819.2" spreadMethod="pad">
      <stop offset="0.0" stop-color="#ffffff"/>
      <stop offset="1.0" stop-color="#1a2f59"/>
    </radialGradient>
    <radialGradient cx="0" cy="0" fx="76.80000000000001" fy="0" gradientTransform="matrix(0.0303, 0.0, 0.0, 0.0303, 55.95, 149.15)" gradientUnits="userSpaceOnUse" id="gradient4" r="819.2" spreadMethod="pad">
      <stop offset="0.0" stop-color="#ffffff"/>
      <stop offset="1.0" stop-color="#1a2f59"/>
    </radialGradient>
    <radialGradient cx="0" cy="0" fx="76.80000000000001" fy="0" gradientTransform="matrix(0.0342, 0.0, 0.0, 0.0342, 160.0, 128.3)" gradientUnits="userSpaceOnUse" id="gradient5" r="819.2" spreadMethod="pad">
      <stop offset="0.0" stop-color="#ffffff"/>
      <stop offset="1.0" stop-color="#2f5fac"/>
    </radialGradient>
    <radialGradient cx="0" cy="0" fx="76.80000000000001" fy="0" gradientTransform="matrix(0.0509, 0.0, 0.0, 0.0509, 98.6, 163.5)" gradientUnits="userSpaceOnUse" id="gradient6" r="819.2" spreadMethod="pad">
      <stop offset="0.0" stop-color="#ffffff"/>
      <stop offset="1.0" stop-color="#2f5fac"/>
    </radialGradient>
    <radialGradient cx="0" cy="0" fx="76.80000000000001" fy="0" gradientTransform="matrix(0.036, 0.0, 0.0, 0.036, 154.8, 144.3)" gradientUnits="userSpaceOnUse" id="gradient7" r="819.2" spreadMethod="pad">
      <stop offset="0.0" stop-color="#ffffff"/>
      <stop offset="1.0" stop-color="#2f5fac"/>
    </radialGradient>
  </defs>
</svg>
