<?xml version="1.0" encoding="UTF-8" standalone="no"?>
<svg xmlns:xlink="http://www.w3.org/1999/xlink" height="67.55px" width="120.1px" xmlns="http://www.w3.org/2000/svg">
  <g transform="matrix(1.0, 0.0, 0.0, 1.0, 0.0, 0.0)">
    <path d="M3.75 3.4 L4.35 3.7 3.15 3.7 3.75 3.4 M57.1 1.1 L56.35 1.2 52.15 1.15 57.1 1.1 M21.9 35.15 Q21.9 32.1 19.15 32.65 16.4 33.2 16.4 35.45 16.4 36.3 16.65 36.8 17.25 37.95 19.15 37.95 20.4 37.95 21.15 37.2 21.9 36.45 21.9 35.15 M39.25 7.4 L42.85 8.75 Q47.3 10.45 48.9 10.45 50.9 9.15 53.0 8.65 57.2 7.6 58.4 11.45 L59.35 13.55 Q60.45 15.45 61.9 15.45 63.6 15.45 64.15 13.95 L64.4 11.7 64.15 8.7 79.05 8.6 Q81.4 8.6 83.55 11.8 85.7 14.95 88.15 14.95 90.05 14.95 90.9 13.95 91.4 13.3 91.4 12.45 L89.5 7.85 99.4 7.95 104.05 7.8 104.4 9.4 Q105.25 12.45 107.15 12.45 108.25 12.45 109.35 11.1 110.45 9.7 111.55 9.7 112.6 9.7 113.55 10.6 114.8 11.75 117.9 12.45 117.55 14.05 117.7 15.2 117.95 17.05 119.6 17.4 L118.1 19.55 Q114.7 24.3 114.4 28.35 L114.45 35.95 Q114.25 40.35 111.65 43.7 109.75 46.2 110.15 51.4 110.6 57.45 110.05 59.1 L106.3 66.95 106.0 67.55 13.1 67.55 12.15 66.6 Q6.9 60.9 6.9 54.7 L6.9 45.7 Q6.9 43.65 4.65 41.65 2.4 39.7 2.4 36.95 L2.4 18.95 1.1 16.75 Q1.35 16.15 1.25 15.35 L0.05 9.6 0.05 8.95 4.4 8.95 20.65 9.5 28.95 9.3 Q30.95 12.35 30.9 13.6 30.8 15.6 31.35 19.25 L31.9 23.35 Q31.45 25.05 31.5 26.7 31.55 29.95 33.9 29.95 36.4 29.95 36.9 26.95 37.15 25.4 36.9 23.6 36.9 21.4 35.7 15.0 34.95 11.1 34.2 8.7 L38.5 7.6 39.25 7.4 M120.05 0.0 L120.1 0.1 119.15 0.05 119.2 0.0 120.05 0.0" fill="#000000" fill-rule="evenodd" stroke="none"/>
  </g>
</svg>
