<?xml version="1.0" encoding="UTF-8" standalone="no"?>
<svg xmlns:xlink="http://www.w3.org/1999/xlink" height="55.75px" width="159.85px" xmlns="http://www.w3.org/2000/svg">
  <g transform="matrix(1.0, 0.0, 0.0, 1.0, 79.4, 27.85)">
    <path d="M23.55 -2.5 Q24.7 -2.35 25.5 -1.45 26.3 -0.5 26.25 0.8 26.15 2.05 25.15 2.9 24.15 3.75 22.9 3.7 21.65 3.55 20.8 2.6 19.95 1.6 20.05 0.35 20.1 -0.95 21.1 -1.75 22.1 -2.65 23.35 -2.55 L23.55 -2.5 M72.1 -17.3 Q71.0 -17.8 70.5 -18.9 69.95 -20.05 70.4 -21.25 70.85 -22.45 72.05 -22.95 L74.4 -23.1 Q75.6 -22.65 76.15 -21.45 76.65 -20.3 76.25 -19.1 75.8 -17.9 74.65 -17.35 L72.25 -17.25 72.1 -17.3 M52.25 -21.65 Q51.05 -21.7 50.2 -22.55 49.25 -23.45 49.3 -24.7 49.25 -26.0 50.2 -26.9 51.1 -27.85 52.35 -27.85 53.6 -27.85 54.55 -26.95 55.45 -26.05 55.5 -24.75 55.5 -23.5 54.6 -22.6 53.65 -21.65 52.4 -21.65 L52.25 -21.65 M-73.75 -1.3 Q-74.4 -0.4 -75.55 -0.1 -76.8 0.2 -77.85 -0.4 -78.95 -1.05 -79.3 -2.25 -79.65 -3.55 -79.0 -4.65 -78.35 -5.75 -77.1 -6.05 -75.85 -6.4 -74.75 -5.75 -73.65 -5.1 -73.35 -3.85 -73.05 -2.6 -73.65 -1.5 L-73.75 -1.3 M-30.1 -9.2 Q-31.25 -9.45 -31.95 -10.4 L-32.3 -11.0 Q-32.7 -11.8 -32.55 -12.7 -32.35 -13.95 -31.3 -14.7 -30.3 -15.5 -29.05 -15.3 -27.75 -15.15 -26.95 -14.1 -26.2 -13.05 -26.35 -11.8 -26.5 -11.0 -26.95 -10.4 L-27.8 -12.75 -26.95 -10.4 -27.6 -9.75 Q-28.65 -9.0 -29.9 -9.15 L-30.1 -9.2 M-30.7 -12.4 L-32.3 -11.0 -30.7 -12.4 M-8.8 -14.35 Q-10.0 -14.35 -10.9 -15.15 -11.85 -16.0 -11.9 -17.25 -12.0 -18.55 -11.15 -19.5 -10.3 -20.5 -9.0 -20.55 -7.75 -20.65 -6.75 -19.8 -5.8 -18.95 -5.7 -17.65 -5.65 -16.4 -6.5 -15.4 -7.35 -14.45 -8.65 -14.35 L-8.8 -14.35 M-11.8 14.75 L-19.45 15.3 -18.95 21.3 -9.1 20.5 -11.5 23.75 -19.85 24.4 -22.8 21.9 -23.3 15.45 -20.8 12.5 -9.35 11.55 -11.8 14.75 M-4.0 21.1 L-3.85 23.0 -7.55 25.4 -8.65 11.55 -4.8 11.2 -4.35 16.85 0.95 10.75 5.3 10.45 1.25 15.15 5.6 18.8 5.9 22.4 2.0 22.7 1.75 19.75 -0.8 17.5 -4.0 21.1 M-32.55 16.4 L-35.85 16.65 -35.1 25.5 -38.85 27.9 -39.75 16.95 -43.05 17.25 -45.9 14.5 -30.1 13.25 -32.55 16.4 M-28.0 27.0 L-29.1 13.15 -25.2 12.8 -24.25 24.6 -28.0 27.0 M-46.65 22.7 L-49.05 26.65 -62.75 27.75 -60.3 24.6 -51.55 23.9 -50.85 23.05 -51.7 22.25 -60.45 22.95 -63.4 19.6 -60.95 15.7 -47.3 14.6 -49.75 17.75 -58.5 18.45 -59.15 19.3 -58.35 20.0 -49.55 19.35 -46.65 22.7 M66.65 8.5 L59.05 9.1 59.2 10.75 67.8 10.1 65.55 13.0 59.45 13.45 59.55 15.05 69.4 14.3 67.0 17.55 55.9 18.4 54.95 6.5 69.15 5.35 66.65 8.5 M51.05 9.75 L43.45 10.3 43.9 16.3 49.95 15.85 49.8 14.2 47.5 14.4 44.85 11.9 53.45 11.2 53.8 15.8 51.35 18.75 43.0 19.4 40.05 16.9 39.55 10.45 42.1 7.5 53.5 6.55 51.05 9.75 M27.35 14.35 L33.95 13.85 33.7 11.15 27.1 11.65 27.35 14.35 M34.65 8.05 L37.55 10.55 38.3 19.8 34.4 20.1 34.15 16.8 27.55 17.3 27.85 20.5 24.1 22.9 23.2 11.65 25.75 8.8 34.65 8.05 M17.35 12.4 L10.95 12.9 11.15 15.0 17.5 14.5 18.25 13.3 17.35 12.4 M22.25 12.8 L19.4 17.35 11.4 18.0 11.7 21.75 8.0 24.15 6.9 10.3 19.25 9.3 22.25 12.8" fill="#000000" fill-rule="evenodd" stroke="none"/>
    <path d="M17.15 -23.75 L19.65 -17.4 23.55 -15.05 26.05 -18.8 26.45 -24.2 M23.55 -2.5 L23.55 -6.25 19.7 -2.95 17.3 2.5 M23.55 -15.05 L23.55 -6.25 27.7 -2.6 29.75 2.5 M72.1 -17.3 L71.05 -13.7 75.65 -15.8 79.45 -20.4 M52.25 -21.65 L52.5 -17.9 56.85 -20.25 61.05 -19.85 M48.55 -1.05 L53.0 -4.45 53.2 -9.15 52.5 -17.9 47.35 -19.2 50.15 -14.4 M63.3 2.7 L65.2 -2.35 68.6 -5.3 71.05 -13.7 68.1 -18.35 67.5 -23.85 M65.55 -11.2 L58.75 -10.85 53.2 -9.15 M68.6 -5.3 L71.7 -1.95 72.35 4.85 M-73.75 -1.3 L-70.4 0.3 -70.6 -0.45 -71.65 -4.55 -75.45 -9.1 M-70.6 -0.45 L-68.8 -4.45 -71.8 -10.45 M-64.5 13.45 L-60.25 7.85 -62.4 4.25 -63.8 2.8 Q-66.55 0.05 -70.4 0.3 M-32.3 -11.0 L-34.2 -9.4 -30.35 -5.45 -30.1 -9.2 M-26.95 -10.4 L-24.55 -7.75 -30.35 -5.45 -30.95 3.3 -34.8 5.85 -42.35 5.4 -42.95 5.85 M-26.95 -10.4 L-27.8 -12.75 M-32.3 -11.0 L-30.7 -12.4 M-8.8 -14.35 L-8.3 -10.6 -3.15 -11.0 -1.3 -16.75 M-14.95 1.2 L-8.25 2.85 -7.15 -1.95 -8.3 -10.6 -13.85 -13.35 -15.7 -7.9 M0.45 5.85 L-1.7 -0.45 -7.15 -1.95 M-30.95 3.3 L-37.3 1.7 -42.35 5.4 -47.45 5.15 M-57.55 12.3 L-57.75 5.05 -62.4 4.25" fill="none" stroke="#000000" stroke-linecap="round" stroke-linejoin="round" stroke-width="2.0"/>
  </g>
</svg>
