<?xml version="1.0" encoding="UTF-8" standalone="no"?>
<svg xmlns:xlink="http://www.w3.org/1999/xlink" height="8.8px" width="15.6px" xmlns="http://www.w3.org/2000/svg">
  <g transform="matrix(1.0, 0.0, 0.0, 1.0, -10.95, -52.3)">
    <path d="M22.6 60.4 L22.65 60.65 22.55 60.95 22.1 61.1 21.0 60.8 15.5 60.45 13.65 60.05 Q12.5 59.65 11.7 58.85 10.95 58.05 10.95 55.95 10.95 54.0 11.25 53.2 11.8 51.75 13.5 52.7 15.85 53.85 21.65 54.75 L26.0 55.6 26.1 55.65 26.55 55.9 26.45 56.25 26.3 56.4 26.3 56.5 25.95 56.5 18.9 55.5 Q14.45 54.5 12.5 53.3 11.85 54.1 11.85 55.95 L11.9 57.3 Q12.1 58.15 13.05 58.8 L14.45 59.1 Q15.05 59.15 14.9 59.3 L21.3 59.55 Q21.75 59.55 22.15 59.95 L22.1 60.05 22.2 60.35 22.6 60.4" fill="#000000" fill-rule="evenodd" stroke="none"/>
    <path d="M25.95 56.5 Q23.9 60.45 22.8 60.45 L22.6 60.4 22.2 60.35 22.1 60.05 22.15 59.95 Q21.75 59.55 21.3 59.55 L14.9 59.3 Q15.05 59.15 14.45 59.1 L13.05 58.8 Q12.1 58.15 11.9 57.3 L11.85 55.95 Q11.85 54.1 12.5 53.3 14.45 54.5 18.9 55.5 L25.95 56.5" fill="#ffcc99" fill-rule="evenodd" stroke="none"/>
  </g>
</svg>
