<?xml version="1.0" encoding="UTF-8" standalone="no"?>
<svg xmlns:xlink="http://www.w3.org/1999/xlink" height="252.1px" width="414.3px" xmlns="http://www.w3.org/2000/svg">
  <g transform="matrix(1.0, 0.0, 0.0, 1.0, 207.15, 126.05)">
    <path d="M207.15 -84.0 L-206.8 -84.0 -206.8 -96.0 207.15 -96.0 207.15 -84.0 M207.15 -54.0 L-206.8 -54.0 -206.8 -66.0 207.15 -66.0 207.15 -54.0 M207.15 -24.0 L-206.8 -24.0 -206.8 -36.0 207.15 -36.0 207.15 -24.0 M207.15 6.0 L-206.8 6.0 -206.8 -6.0 207.15 -6.0 207.15 6.0 M207.15 66.0 L-206.8 66.0 -206.8 54.0 207.15 54.0 207.15 66.0 M207.15 36.0 L-206.8 36.0 -206.8 24.0 207.15 24.0 207.15 36.0 M206.8 -114.05 L-207.15 -114.05 -207.15 -126.05 206.8 -126.05 206.8 -114.05 M-206.8 84.0 L207.15 84.0 207.15 96.0 -206.8 96.0 -206.8 84.0" fill="#000000" fill-rule="evenodd" stroke="none"/>
    <path d="M207.15 126.05 L-206.8 126.05 -206.8 114.05 207.15 114.05 207.15 126.05" fill="#000000" fill-rule="evenodd" stroke="none"/>
  </g>
</svg>
