<?xml version="1.0" encoding="UTF-8" standalone="no"?>
<svg xmlns:xlink="http://www.w3.org/1999/xlink" height="6.65px" width="22.1px" xmlns="http://www.w3.org/2000/svg">
  <g transform="matrix(1.0, 0.0, 0.0, 1.0, -6.05, -54.8)">
    <path d="M21.75 59.25 L21.95 59.45 22.85 59.8 Q22.1 59.8 22.3 61.0 21.25 59.85 20.35 60.0 L14.7 61.25 12.55 61.4 9.95 60.9 Q8.7 60.45 7.45 58.7 6.25 57.1 6.05 56.3 5.8 55.0 8.05 55.25 11.1 55.6 15.7 55.25 L21.0 54.8 23.35 55.1 25.65 55.4 26.6 55.35 27.25 55.45 Q29.45 55.7 26.2 56.4 L15.1 56.1 Q10.1 56.55 7.4 56.05 7.25 56.95 8.35 58.5 L9.25 59.6 Q9.9 60.25 11.25 60.5 L12.85 60.4 13.4 60.45 19.9 58.85 21.05 59.0 21.05 59.1 21.35 59.3 21.75 59.25" fill="#000000" fill-rule="evenodd" stroke="none"/>
    <path d="M21.75 59.25 L21.35 59.3 21.05 59.1 21.05 59.0 19.9 58.85 13.4 60.45 12.85 60.4 11.25 60.5 Q9.9 60.25 9.25 59.6 L8.35 58.5 Q7.25 56.95 7.4 56.05 10.1 56.55 15.1 56.1 L26.2 56.4 Q25.6 63.9 22.85 59.8 L21.75 59.25" fill="#ffcc99" fill-rule="evenodd" stroke="none"/>
  </g>
</svg>
