<?xml version="1.0" encoding="UTF-8" standalone="no"?>
<svg xmlns:xlink="http://www.w3.org/1999/xlink" height="7.0px" width="12.05px" xmlns="http://www.w3.org/2000/svg">
  <g transform="matrix(1.0, 0.0, 0.0, 1.0, 2.0, -36.9)">
    <path d="M9.45 40.0 L8.7 39.9 5.9 38.9 Q3.6 37.9 3.3 37.9 L2.4 38.85 1.35 40.05 Q0.65 40.9 -0.35 41.2 -1.05 41.4 -1.05 41.85 L-0.75 42.45 -0.3 42.8 Q3.15 42.95 4.45 41.8 5.75 40.6 5.95 40.6 6.45 40.65 7.55 42.1 L7.8 42.45 7.95 42.7 7.8 43.1 7.5 43.2 6.6 42.55 5.85 41.9 4.55 43.0 Q3.05 44.0 1.1 43.9 -1.1 43.8 -1.8 42.75 L-2.0 41.75 Q-2.0 40.45 -0.9 39.95 0.85 39.2 2.1 37.5 3.05 36.2 6.65 37.75 8.45 38.55 10.05 39.6 L9.95 39.95 9.45 40.0" fill="#000000" fill-rule="evenodd" stroke="none"/>
    <path d="M7.8 42.45 L7.55 42.1 Q6.45 40.65 5.95 40.6 5.75 40.6 4.45 41.8 3.15 42.95 -0.3 42.8 L-0.75 42.45 -1.05 41.85 Q-1.05 41.4 -0.35 41.2 0.65 40.9 1.35 40.05 L2.4 38.85 3.3 37.9 Q3.6 37.9 5.9 38.9 L8.7 39.9 9.45 40.0 9.45 40.2 8.8 41.4 7.95 42.55 7.8 42.45" fill="#ffcc99" fill-rule="evenodd" stroke="none"/>
  </g>
</svg>
