<?xml version="1.0" encoding="UTF-8" standalone="no"?>
<svg xmlns:xlink="http://www.w3.org/1999/xlink" height="7.15px" width="11.9px" xmlns="http://www.w3.org/2000/svg">
  <g transform="matrix(1.0, 0.0, 0.0, 1.0, 1.8, -37.25)">
    <path d="M9.55 40.05 L8.8 40.0 5.95 39.15 Q3.6 38.25 3.3 38.25 L2.45 39.25 1.45 40.55 Q0.8 41.4 -0.2 41.75 -0.9 42.0 -0.85 42.45 L-0.55 43.05 -0.05 43.35 Q3.4 43.35 4.65 42.1 L6.1 40.85 Q6.6 40.85 7.75 42.25 L8.0 42.6 8.05 42.65 8.15 42.8 8.05 43.25 7.75 43.35 Q7.6 43.35 6.8 42.75 L6.05 42.15 4.8 43.3 Q3.35 44.4 1.4 44.4 -0.8 44.4 -1.55 43.4 L-1.8 42.4 Q-1.85 41.1 -0.8 40.55 0.95 39.7 2.1 37.95 3.0 36.6 6.65 37.95 8.5 38.65 10.1 39.6 L10.05 39.95 9.55 40.05" fill="#000000" fill-rule="evenodd" stroke="none"/>
    <path d="M8.05 42.65 L8.0 42.6 7.75 42.25 Q6.6 40.85 6.1 40.85 L4.65 42.1 Q3.4 43.35 -0.05 43.35 L-0.55 43.05 -0.85 42.45 Q-0.9 42.0 -0.2 41.75 0.8 41.4 1.45 40.55 L2.45 39.25 3.3 38.25 Q3.6 38.25 5.95 39.15 L8.8 40.0 9.55 40.05 9.55 40.25 8.95 41.5 8.15 42.65 8.05 42.65" fill="#ffcc99" fill-rule="evenodd" stroke="none"/>
  </g>
</svg>
