<?xml version="1.0" encoding="UTF-8" standalone="no"?>
<svg xmlns:xlink="http://www.w3.org/1999/xlink" height="6.9px" width="22.1px" xmlns="http://www.w3.org/2000/svg">
  <g transform="matrix(1.0, 0.0, 0.0, 1.0, -6.05, -55.0)">
    <path d="M21.75 59.45 L21.95 59.65 22.85 60.0 Q22.1 60.0 22.3 61.2 21.25 60.05 20.35 60.25 18.5 60.5 14.7 61.65 L12.55 61.9 9.95 61.45 Q8.7 61.05 7.45 59.35 6.25 57.75 6.05 56.95 5.8 55.7 8.05 55.85 L15.7 55.65 21.0 55.05 23.35 55.25 25.65 55.5 26.6 55.4 27.25 55.5 Q29.45 55.7 26.2 56.5 18.55 56.2 15.1 56.5 L7.4 56.7 Q7.25 57.6 8.35 59.1 L9.25 60.2 Q9.9 60.8 11.25 61.0 L12.85 60.85 13.4 60.9 19.9 59.1 21.05 59.25 21.05 59.35 Q21.25 59.6 21.35 59.5 L21.75 59.45" fill="#000000" fill-rule="evenodd" stroke="none"/>
    <path d="M21.75 59.45 L21.35 59.5 Q21.25 59.6 21.05 59.35 L21.05 59.25 19.9 59.1 13.4 60.9 12.85 60.85 11.25 61.0 Q9.9 60.8 9.25 60.2 L8.35 59.1 Q7.25 57.6 7.4 56.7 L15.1 56.5 Q18.55 56.2 26.2 56.5 25.6 64.0 22.85 60.0 L21.75 59.45" fill="#ffcc99" fill-rule="evenodd" stroke="none"/>
  </g>
</svg>
