<?xml version="1.0" encoding="UTF-8" standalone="no"?>
<svg xmlns:xlink="http://www.w3.org/1999/xlink" height="250.1px" width="171.05px" xmlns="http://www.w3.org/2000/svg">
  <g transform="matrix(1.0, 0.0, 0.0, 1.0, 85.5, 125.0)">
    <path d="M74.05 -108.35 Q67.65 -120.9 0.45 -121.1 -70.0 -121.35 -74.0 -108.35 -67.85 -101.8 -33.3 -98.85 L0.45 -97.1 Q39.7 -96.4 58.55 -100.9 70.15 -103.65 74.05 -108.35 M73.25 -98.65 Q67.15 -96.3 58.55 -94.7 37.3 -90.75 0.55 -91.55 L-33.3 -93.55 Q-60.0 -95.9 -73.45 -100.3 -82.45 -103.3 -85.5 -107.2 -80.85 -125.35 0.55 -125.0 78.15 -124.7 85.55 -107.2 82.1 -102.1 73.25 -98.65" fill="#ffffff" fill-opacity="0.7411765" fill-rule="evenodd" stroke="none"/>
    <path d="M-73.45 -100.3 L-58.5 92.85 Q-33.9 89.9 -11.0 89.45 -50.65 92.75 -58.05 99.85 L-58.05 107.85 Q-7.0 120.2 44.05 107.85 53.4 97.15 26.95 90.45 41.65 91.55 55.55 93.85 L73.25 -98.65 Q82.1 -102.1 85.55 -107.2 L67.55 107.85 Q2.95 140.75 -69.5 110.85 L-85.5 -107.2 Q-82.45 -103.3 -73.45 -100.3" fill="#ffffff" fill-opacity="0.6313726" fill-rule="evenodd" stroke="none"/>
  </g>
</svg>
