<?xml version="1.0" encoding="UTF-8" standalone="no"?>
<svg xmlns:xlink="http://www.w3.org/1999/xlink" height="43.45px" width="26.5px" xmlns="http://www.w3.org/2000/svg">
  <g transform="matrix(1.0, 0.0, 0.0, 1.0, 0.0, 0.0)">
    <path d="M4.35 1.1 L4.7 0.95 Q6.55 1.6 8.9 6.2 5.2 4.1 3.7 4.1 2.1 4.1 1.9 5.35 L1.75 5.35 1.75 3.35 Q3.05 1.6 4.35 1.1 M21.75 13.3 Q20.75 14.7 19.0 14.85 L19.15 14.7 Q21.15 12.65 22.75 11.7 L21.75 13.3 M9.5 31.7 L9.5 33.0 17.4 33.0 17.4 34.95 9.5 34.95 9.5 38.95 7.75 38.95 7.75 31.05 9.65 29.15 13.1 29.15 13.1 31.0 10.2 31.0 9.5 31.7" fill="#ffffff" fill-rule="evenodd" stroke="none"/>
    <path d="M4.35 1.1 Q3.05 1.6 1.75 3.35 L1.75 5.35 1.9 5.35 Q2.1 4.1 3.7 4.1 5.2 4.1 8.9 6.2 6.55 1.6 4.7 0.95 L4.35 1.1 M8.75 2.0 L12.6 7.1 Q15.15 10.9 14.25 15.0 L13.05 15.3 Q8.5 14.6 4.55 12.15 2.15 10.6 0.7 8.05 0.05 6.95 0.0 5.8 -0.1 0.1 5.8 0.0 7.5 0.65 8.75 2.0" fill="#009bca" fill-rule="evenodd" stroke="none"/>
    <path d="M16.6 18.55 Q17.9 20.85 18.4 23.35 L19.2 28.8 19.35 31.95 Q19.45 36.7 16.65 40.35 13.5 44.6 8.3 43.0 5.95 42.4 4.7 40.3 2.25 36.25 3.95 31.65 5.45 27.6 8.1 24.05 11.05 20.2 15.0 17.5 L15.85 17.7 16.6 18.55 M9.5 31.7 L10.2 31.0 13.1 31.0 13.1 29.15 9.65 29.15 7.75 31.05 7.75 38.95 9.5 38.95 9.5 34.95 17.4 34.95 17.4 33.0 9.5 33.0 9.5 31.7" fill="#ff0302" fill-rule="evenodd" stroke="none"/>
    <path d="M17.15 16.25 L17.0 15.85 17.3 15.15 Q19.85 11.65 24.05 10.4 25.0 10.5 25.6 10.85 26.2 11.2 26.3 11.8 L26.5 12.75 Q26.25 14.1 25.05 14.9 21.35 17.3 17.15 16.25 M21.75 13.3 L22.75 11.7 Q21.15 12.65 19.15 14.7 L19.0 14.85 Q20.75 14.7 21.75 13.3" fill="#fb9606" fill-rule="evenodd" stroke="none"/>
  </g>
</svg>
