<?xml version="1.0" encoding="UTF-8" standalone="no"?>
<svg xmlns:xlink="http://www.w3.org/1999/xlink" height="71.85px" width="22.7px" xmlns="http://www.w3.org/2000/svg">
  <g transform="matrix(1.0, 0.0, 0.0, 1.0, 9.75, 34.1)">
    <path d="M6.35 -33.05 Q8.5 -32.15 10.05 -30.45 13.4 -22.8 12.85 -13.95 12.2 -3.95 12.2 6.1 L11.9 7.0 11.6 7.9 11.3 8.85 11.0 9.75 11.0 10.65 11.0 11.6 11.0 12.5 11.0 13.4 10.7 14.3 10.35 15.25 10.05 16.15 9.85 17.05 9.75 17.95 Q9.9 19.4 10.35 20.8 11.05 22.95 11.0 25.3 L11.0 28.95 9.55 32.5 Q7.55 36.65 3.05 37.45 L1.25 37.75 -2.65 36.7 -4.55 35.95 -6.3 34.05 -7.45 32.2 -8.5 29.55 -8.5 28.6 -8.5 27.7 Q-9.65 24.7 -9.75 21.3 -9.9 15.8 -9.1 10.4 L-8.5 8.55 -8.5 6.7 -8.4 4.9 -7.75 2.2 -7.3 1.25 -7.3 -6.1 -7.3 -17.05 -7.3 -18.85 -7.6 -19.8 -7.9 -20.7 -8.2 -21.6 -8.5 -22.5 -8.5 -23.45 -8.5 -24.35 -8.5 -25.25 -8.5 -26.15 -8.2 -27.1 -7.9 -28.0 -7.6 -28.9 -5.15 -31.65 Q-3.2 -33.4 -0.6 -33.8 L1.25 -34.1 Q3.9 -34.15 6.35 -33.05" fill="#ffffff" fill-rule="evenodd" stroke="none"/>
  </g>
</svg>
