<?xml version="1.0" encoding="UTF-8" standalone="no"?>
<svg xmlns:xlink="http://www.w3.org/1999/xlink" height="101.85px" width="65.85px" xmlns="http://www.w3.org/2000/svg">
  <g transform="matrix(1.0, 0.0, 0.0, 1.0, 21.9, 12.5)">
    <path d="M16.0 86.4 L17.95 88.5 18.1 88.6 18.2 88.5 18.4 88.3 18.55 88.15 18.85 87.9 19.15 87.75 17.8 85.8 23.15 82.4 41.15 63.25 40.95 63.35 39.95 62.2 36.7 58.25 Q34.8 55.8 33.45 53.55 L29.25 47.55 28.85 46.9 Q27.7 45.05 27.2 43.6 L27.2 43.55 26.0 41.3 25.75 41.4 25.1 40.0 22.95 35.25 21.05 30.0 18.6 23.05 18.35 22.35 Q17.55 19.7 17.55 17.9 L17.3 17.9 17.15 16.6 17.1 16.4 16.45 11.25 Q16.15 8.15 16.15 5.55 L15.85 -1.75 15.85 -2.5 Q15.85 -6.25 16.8 -8.05 L16.8 -8.2 12.6 -9.5 Q13.15 -7.9 13.1 -5.25 L13.1 -1.75 13.1 1.0 14.55 1.0 Q14.55 1.2 14.95 1.2 L14.95 2.35 13.9 2.55 12.85 2.7 Q12.85 8.25 13.1 10.95 L12.75 11.05 12.3 11.1 Q11.7 11.1 11.35 7.1 L11.15 2.9 7.7 2.7 7.7 1.55 9.2 1.0 11.15 0.8 11.15 -8.1 9.35 -8.0 9.3 -8.0 8.95 -8.05 Q7.7 -8.25 7.7 -8.8 L7.75 -9.15 7.9 -9.3 8.3 -9.3 M6.55 -10.8 L6.85 -10.75 6.95 -10.7 6.55 -10.8 Q0.05 -12.0 -4.35 -12.0 L-10.15 -11.55 Q-13.95 -11.05 -15.65 -10.1 -18.35 -8.6 -18.5 -5.5 L-18.5 -0.35 -18.6 0.15 -18.75 0.95 -18.7 3.65 -18.15 11.25 -17.75 14.65 -15.55 27.0 -15.5 27.15 -15.45 27.15 Q-15.65 28.3 -15.35 29.55 L-13.8 34.5 -13.8 35.0 -13.65 35.75 Q-12.2 40.55 -10.1 45.4 L-8.7 48.55 Q-6.95 52.35 -3.0 59.7 -2.55 61.25 -1.75 62.6 L0.95 66.9 1.15 67.35 1.4 68.15 7.4 76.6 9.55 79.25 16.0 86.4 M5.65 -10.2 L5.65 -9.95 5.4 -6.7 5.25 -4.0 5.2 -1.75 Q5.05 4.85 5.55 11.25 L5.65 12.6 5.65 13.0 Q5.75 14.55 6.4 17.5 L6.45 18.2 7.15 21.4 7.8 24.0 8.4 26.15 Q10.2 32.5 12.55 38.45 L13.05 39.55 13.05 39.75 13.2 40.1 16.75 47.0 17.75 48.9 18.15 49.55 19.1 51.25 20.3 53.2 Q23.7 58.85 27.4 63.95 L28.25 65.15 28.5 65.5 29.75 64.65 29.8 64.4 29.9 64.15 29.1 62.95 Q25.25 57.85 21.85 52.15 L19.8 48.6 19.45 47.9 18.45 46.05 18.65 45.85 18.5 45.55 14.85 39.6 14.8 39.35 14.3 37.9 Q12.05 32.0 10.25 25.6 L9.0 20.85 8.25 17.65 8.15 17.4 Q7.9 17.15 7.9 16.35 L7.85 15.2 7.6 13.0 7.55 12.7 7.55 12.65 7.45 11.25 Q6.95 4.85 7.1 -1.75 L7.3 -6.7 7.55 -9.95 7.55 -10.2 7.0 -10.7 6.95 -10.7 12.1 -9.65 12.55 -9.65 12.6 -9.5 12.1 -9.65 8.3 -9.65 M5.45 -10.4 Q5.85 -10.8 6.55 -10.8 M3.85 -9.4 L3.8 -9.35 3.5 -9.2 3.15 -9.05 0.3 -9.05 0.3 1.4 3.2 1.4 3.75 2.05 3.1 2.65 2.55 2.85 2.25 2.9 -0.05 2.9 0.7 12.4 0.7 12.45 1.1 15.5 1.65 18.65 4.55 18.4 5.3 18.6 5.4 18.6 4.85 19.2 4.8 19.25 4.6 19.5 Q4.3 19.7 4.3 19.75 L1.6 20.6 4.65 30.65 7.4 29.75 8.1 30.2 Q8.2 30.5 7.7 31.0 7.4 31.15 7.25 31.3 L6.95 31.45 4.75 32.15 8.3 41.05 Q9.05 43.15 10.35 45.8 L12.35 49.85 12.5 50.1 17.8 58.5 20.25 56.9 21.0 57.2 Q21.2 57.45 20.9 58.05 L20.5 58.55 20.2 58.7 18.3 59.9 24.0 67.55 24.15 68.1 Q24.25 68.95 23.85 69.2 L23.05 69.35 22.95 69.35 22.85 69.35 17.5 60.85 12.55 64.0 19.45 72.95 19.5 73.25 19.7 73.7 19.3 74.05 18.85 74.2 18.75 74.25 15.95 71.15 Q13.3 67.9 11.6 64.55 L9.25 66.0 8.4 65.95 8.2 65.6 8.0 65.05 8.25 64.95 10.65 63.45 5.1 54.5 2.95 50.2 1.0 45.6 -0.4 42.45 Q-2.25 38.55 -2.95 34.9 L-5.5 35.7 -6.3 35.45 -6.5 35.0 -6.5 34.55 Q-6.5 34.35 -6.3 34.45 L-3.6 33.6 -6.9 22.8 -9.1 23.3 -9.15 22.75 -8.35 21.9 -7.35 21.55 -7.55 19.4 -7.35 15.05 -8.0 11.25 Q-8.6 7.0 -8.25 3.3 L-10.95 3.3 -11.65 2.8 -11.7 2.35 -11.55 1.85 Q-11.5 1.65 -11.3 1.8 L-8.45 1.8 -8.45 -9.45 -8.6 -9.45 -10.35 -9.65 -10.75 -9.65 -10.6 -10.15 Q-10.35 -10.6 -9.55 -10.75 L-7.5 -10.8 -0.75 -11.05 Q2.4 -11.05 3.8 -10.35 L4.4 -9.95 4.5 -9.85 3.85 -9.4 M11.15 -8.35 L11.15 -8.1 M11.15 0.8 L11.15 1.2 M5.65 12.6 L5.6 12.75 5.65 13.0 5.6 13.0 5.6 12.75 M9.1 17.75 L12.7 16.6 13.15 16.45 13.2 16.6 Q14.25 17.95 14.95 20.5 L16.0 23.8 16.75 26.5 18.1 26.1 18.6 26.15 18.9 27.15 18.0 27.7 17.0 28.15 Q18.65 33.5 19.65 35.95 L19.4 36.15 18.95 36.3 Q18.35 36.5 16.9 32.8 L15.45 28.85 12.1 29.65 11.8 28.55 13.05 27.6 Q13.85 27.05 14.8 26.9 L12.2 18.35 Q11.8 18.65 10.6 18.95 L10.55 19.0 10.15 19.05 Q8.9 19.2 8.7 18.65 L8.65 18.35 8.8 18.2 9.2 18.05 M12.7 16.6 L13.2 16.6 M12.1 18.1 L12.2 18.35 M14.8 26.9 L14.95 27.25 M2.35 44.6 L-1.85 34.6 3.75 32.9 6.7 42.5 11.05 50.6 16.8 59.7 12.2 62.65 6.45 53.45 Q5.6 52.1 4.3 48.75 L2.6 44.95 2.35 44.6 M13.2 40.1 L13.2 40.15 13.15 40.15 13.05 39.85 13.05 39.75 M13.2 40.1 L13.05 39.85 M18.5 45.55 L18.6 45.35 18.95 45.15 M18.7 44.85 L21.95 42.85 22.3 42.6 22.5 42.75 23.0 43.15 24.75 45.45 25.1 46.05 26.95 49.0 28.45 51.3 29.65 50.55 Q29.75 50.75 30.05 50.55 L30.7 51.55 29.95 52.25 29.1 52.9 33.7 59.75 33.4 60.05 33.1 60.35 Q32.6 60.6 30.25 57.45 L27.75 53.95 Q26.0 55.1 24.75 55.65 L24.15 54.7 25.1 53.4 Q25.7 52.6 26.6 52.2 L21.95 44.6 Q21.65 45.05 20.45 45.7 L20.4 45.75 20.1 45.9 Q18.95 46.3 18.7 45.9 L18.65 45.85 M21.95 42.85 L22.5 42.75 M21.8 44.4 L21.95 44.6 M3.4 31.65 L-1.85 33.2 -5.2 22.25 0.0 20.7 3.4 31.65 M36.5 59.35 L36.9 59.25 37.3 59.95 36.0 61.0 15.75 80.95 14.85 81.3 14.7 81.3 14.4 81.0 Q14.0 80.35 14.65 79.85 L15.35 79.5 36.05 59.35 36.5 59.35 M26.6 52.2 L26.8 52.55 M29.9 64.15 L30.1 64.45 M28.25 65.15 L28.45 65.5 28.5 65.5 M19.15 87.75 L20.2 87.5 21.85 86.85 24.9 84.2 27.95 81.1 33.5 75.4 36.25 72.8 39.0 70.1 41.1 67.3 43.0 65.0 43.45 64.6 43.3 64.25 43.05 63.7 Q42.8 63.25 42.1 63.15 L41.35 63.15 41.15 63.25 M38.95 62.9 Q38.85 63.55 38.4 64.0 L38.3 64.2 37.6 64.7 18.65 83.0 18.05 83.35 16.35 84.15 15.95 83.5 Q16.25 83.4 16.55 82.95 L16.8 82.65 Q17.05 82.5 17.2 82.5 L37.85 62.2 38.95 62.9 M12.35 49.85 L12.5 50.15 12.5 50.1 M43.0 65.0 L43.45 64.8 43.45 64.6 M-1.2 -9.45 L-1.2 1.95 -6.7 1.95 -6.7 -9.45 -1.2 -9.45 M-7.1 3.3 L-5.7 14.55 -5.8 17.75 Q-5.75 19.75 -5.15 21.0 L-0.65 19.3 -1.2 13.35 -1.2 3.3 -7.1 3.3" fill="none" stroke="#000000" stroke-linecap="round" stroke-linejoin="round" stroke-width="1.0"/>
    <path d="M-18.7 3.65 L-17.7 3.5 M16.0 86.4 L16.8 85.65 M-18.7 3.65 L-21.8 4.1 -21.8 5.55 -19.25 28.25 Q-17.2 43.6 -14.45 51.95 -11.2 62.05 -2.9 75.05 -0.9 78.15 4.1 83.35 9.7 89.25 11.5 89.25 13.1 89.25 14.35 88.0 L16.0 86.4 Z" fill="none" stroke="#000000" stroke-linecap="round" stroke-linejoin="round" stroke-width="0.25"/>
  </g>
</svg>
