<?xml version="1.0" encoding="UTF-8" standalone="no"?>
<svg xmlns:xlink="http://www.w3.org/1999/xlink" height="47.85px" width="66.4px" xmlns="http://www.w3.org/2000/svg">
  <g transform="matrix(1.0, 0.0, 0.0, 1.0, 33.2, 23.9)">
    <path d="M32.0 -20.15 L32.05 13.4 28.35 14.05 Q25.3 14.55 23.5 15.15 L18.55 16.35 16.6 16.75 15.4 16.95 11.65 17.15 Q8.3 17.45 5.1 18.3 1.25 19.35 -2.9 19.8 L-4.0 19.9 -6.4 20.05 -12.75 20.25 -21.0 21.2 -23.95 21.9 -24.05 21.9 -26.45 22.5 -31.15 23.45 Q-31.95 23.45 -32.7 22.3 L-32.7 -9.45 -24.0 -11.6 -4.05 -16.25 -3.0 -16.45 -1.35 -16.85 7.85 -17.95 11.65 -18.4 Q14.2 -18.85 15.95 -19.55 L16.55 -19.75 23.65 -21.45 32.45 -23.25 32.7 -23.4 M31.8 -20.4 Q31.2 -20.6 31.15 -20.7 L31.1 -21.55 Q31.1 -22.5 32.45 -23.25 M11.65 -18.4 L11.65 17.15 M16.55 -19.75 L16.6 16.75 M-4.0 19.6 L-4.05 -16.25 M-2.9 19.8 L-3.0 -16.45 M-23.95 21.55 L-24.0 -11.6 M-7.75 -15.05 L-7.75 19.75" fill="none" stroke="#000000" stroke-linecap="round" stroke-linejoin="round" stroke-width="1.0"/>
  </g>
</svg>
