<?xml version="1.0" encoding="UTF-8" standalone="no"?>
<svg xmlns:xlink="http://www.w3.org/1999/xlink" height="33.5px" width="38.9px" xmlns="http://www.w3.org/2000/svg">
  <g transform="matrix(1.0, 0.0, 0.0, 1.0, 109.5, 18.65)">
    <path d="M-104.55 -18.65 Q-96.3 -15.75 -86.3 -11.5 L-86.05 -11.85 -86.2 -10.75 -85.2 -11.95 -85.7 -11.15 -73.55 -12.5 -71.05 -12.35 -70.6 -10.75 -71.7 -6.8 -71.7 -6.65 Q-73.55 -4.55 -75.8 -3.25 L-82.35 -2.95 -85.75 -4.45 Q-85.3 -7.8 -86.5 -9.5 -88.65 -8.9 -90.7 -5.65 -98.35 -2.95 -106.45 -6.5 L-109.3 -10.0 Q-109.85 -12.3 -108.75 -16.15 L-104.55 -18.65 M-90.75 4.45 L-84.7 12.4 Q-86.0 11.6 -86.3 13.4 L-91.45 4.9 Q-91.55 4.2 -90.9 4.4 L-90.75 4.45 M-83.95 13.4 L-83.95 13.65 Q-84.0 14.75 -85.45 14.85 L-86.1 13.75 Q-85.75 12.05 -84.4 12.75 L-83.95 13.4" fill="#000000" fill-rule="evenodd" stroke="none"/>
  </g>
</svg>
