<?xml version="1.0" encoding="UTF-8" standalone="no"?>
<svg xmlns:xlink="http://www.w3.org/1999/xlink" height="66.3px" width="73.95px" xmlns="http://www.w3.org/2000/svg">
  <g transform="matrix(1.0, 0.0, 0.0, 1.0, 0.0, 0.0)">
    <path d="M52.9 15.75 L52.75 15.1 52.4 14.0 52.25 12.95 51.95 0.0 53.6 1.05 63.4 6.9 Q64.0 7.2 64.25 7.65 66.2 10.8 69.0 13.6 L70.45 14.8 Q72.25 15.9 73.1 17.35 74.2 19.2 73.9 21.75 L73.45 25.0 Q72.8 29.4 72.4 33.85 72.05 38.15 70.0 42.5 L68.95 44.8 Q67.35 48.3 66.05 51.9 L65.3 53.7 63.75 56.25 61.7 58.55 60.7 59.75 Q58.75 62.55 55.5 63.5 L55.3 63.5 54.65 63.0 Q54.8 62.15 54.35 61.4 L54.45 61.0 53.2 61.5 Q51.0 62.4 49.0 63.5 47.6 64.3 46.3 65.2 L45.55 65.25 Q40.3 67.6 36.5 64.65 34.3 62.35 31.8 60.45 30.05 59.8 29.15 58.5 L28.4 57.6 27.8 56.75 Q26.5 53.15 26.75 48.85 L26.75 48.65 26.55 47.75 Q25.8 46.7 24.0 45.85 L23.35 45.6 Q21.65 45.1 21.1 43.45 L21.0 43.2 20.9 41.85 Q20.75 39.9 21.8 38.35 22.25 37.7 22.25 36.6 L22.3 36.15 22.4 35.55 Q23.55 32.35 26.85 31.25 L27.9 30.9 29.75 30.3 35.95 28.8 36.35 28.7 Q38.45 28.2 41.2 26.9 L43.3 25.75 49.45 23.95 Q49.3 21.35 51.55 21.55 53.4 21.65 53.6 20.8 53.65 18.05 52.9 15.75 M14.35 0.75 L16.35 0.35 16.55 2.05 17.0 3.4 17.05 4.25 Q17.4 5.25 17.3 6.6 L17.8 7.75 18.85 10.35 19.35 12.95 20.4 18.65 Q20.3 20.35 19.2 21.55 18.5 22.6 16.6 22.6 14.75 22.2 13.05 22.6 L8.5 22.3 Q3.7 20.3 0.55 17.3 -0.15 16.6 0.05 15.15 0.25 13.7 1.55 12.3 L2.3 11.35 Q3.7 9.45 5.7 8.1 8.75 6.05 11.6 2.7 L12.9 1.25 14.35 0.75" fill="#000000" fill-rule="evenodd" stroke="none"/>
  </g>
</svg>
