<?xml version="1.0" encoding="UTF-8" standalone="no"?>
<svg xmlns:xlink="http://www.w3.org/1999/xlink" height="332.75px" width="846.95px" xmlns="http://www.w3.org/2000/svg">
  <g transform="matrix(1.0, 0.0, 0.0, 1.0, 0.0, 0.0)">
    <path d="M335.0 72.8 L846.95 0.0 846.95 41.3 415.0 108.8 335.0 72.8 M0.0 224.8 L115.0 201.8 270.9 244.4 Q271.5 261.1 278.8 267.6 284.9 273.05 299.15 274.25 L307.0 274.55 307.8 274.55 315.45 274.05 310.45 325.45 0.0 224.8" fill="#1e1e1e" fill-rule="evenodd" stroke="none"/>
    <path d="M846.95 41.3 L846.95 54.8 555.2 87.0 408.9 165.95 413.65 121.55 415.0 108.8 846.95 41.3 M636.95 332.75 L390.35 332.75 397.05 276.8 401.0 239.55 406.95 260.8 440.95 295.8 636.95 332.75" fill="#333333" fill-rule="evenodd" stroke="none"/>
    <path d="M846.95 54.8 L846.95 332.75 636.95 332.75 440.95 295.8 406.95 260.8 401.0 239.55 408.9 165.95 555.2 87.0 846.95 54.8" fill="#444444" fill-rule="evenodd" stroke="none"/>
    <path d="M348.3 332.75 L332.95 332.75 310.45 325.45 310.0 329.75 287.7 329.75 262.05 318.65 Q255.4 316.6 252.0 319.8 L187.0 313.8 131.5 286.3 109.0 278.8 101.0 278.8 93.0 272.8 44.0 255.8 44.0 250.8 12.0 250.8 12.0 269.8 19.0 281.8 19.0 291.8 25.0 291.8 25.0 329.75 0.0 329.75 0.0 224.8 310.45 325.45 315.45 274.05 316.1 267.45 318.1 246.75 318.7 240.6 319.4 233.5 320.05 227.0 327.45 150.75 328.05 144.55 335.0 72.8 415.0 108.8 413.65 121.55 Q404.3 118.15 404.95 113.8 L359.95 107.8 351.95 124.8 351.95 137.8 338.95 179.8 Q334.75 186.4 334.5 194.8 333.8 216.55 334.85 238.25 335.45 252.4 336.85 266.55 L337.25 270.55 Q340.65 303.6 348.3 332.75" fill="#555555" fill-rule="evenodd" stroke="none"/>
    <path d="M390.35 332.75 L348.3 332.75 Q340.65 303.6 337.25 270.55 L336.85 266.55 Q335.45 252.4 334.85 238.25 333.8 216.55 334.5 194.8 334.75 186.4 338.95 179.8 L351.95 137.8 351.95 124.8 359.95 107.8 404.95 113.8 Q404.3 118.15 413.65 121.55 L408.9 165.95 401.0 239.55 397.05 276.8 390.35 332.75 M287.7 329.75 L25.0 329.75 25.0 291.8 19.0 291.8 19.0 281.8 12.0 269.8 12.0 250.8 44.0 250.8 44.0 255.8 93.0 272.8 101.0 278.8 109.0 278.8 131.5 286.3 187.0 313.8 252.0 319.8 Q255.4 316.6 262.05 318.65 L287.7 329.75" fill="#626262" fill-rule="evenodd" stroke="none"/>
    <path d="M270.9 244.4 L270.8 240.95 Q270.8 216.8 309.0 167.65 L318.35 156.05 317.5 157.7 Q314.05 164.75 314.05 166.5 314.05 170.25 315.55 172.1 316.55 173.35 316.9 174.55 L317.05 175.75 Q317.05 177.75 316.35 180.0 314.7 185.05 309.35 191.3 L303.85 197.4 Q301.3 200.45 301.05 202.0 L302.85 202.25 304.8 202.5 Q309.6 202.5 315.3 190.5 L315.55 190.0 Q321.05 178.4 321.05 171.5 L320.55 168.4 320.05 165.25 Q320.05 160.15 322.75 155.8 324.6 152.9 327.45 150.75 L320.05 227.0 315.5 231.0 311.0 234.45 310.05 235.0 304.05 236.7 Q299.85 237.8 299.05 239.5 297.9 241.95 297.3 245.35 L295.55 253.5 Q295.0 255.45 295.15 258.2 295.3 260.45 294.55 262.0 L292.85 263.75 Q291.55 265.1 291.55 267.0 291.55 271.35 298.55 274.0 L299.15 274.25 Q284.9 273.05 278.8 267.6 271.5 261.1 270.9 244.4 M319.4 233.5 L318.7 240.6 Q315.4 242.5 314.05 242.5 L311.4 242.25 310.2 242.15 308.55 242.0 308.55 239.5 310.55 238.65 314.9 236.1 Q317.55 234.45 319.4 233.5 M318.1 246.75 L316.1 267.45 313.9 270.65 Q312.4 272.0 308.55 272.0 L307.25 271.85 Q305.4 271.45 302.55 270.0 297.55 267.45 297.55 264.25 297.55 261.45 300.05 254.0 302.6 246.5 303.55 246.5 L309.6 248.45 313.3 249.5 Q314.1 249.5 316.9 247.6 L318.1 246.75" fill="#000000" fill-rule="evenodd" stroke="none"/>
    <path d="M318.35 156.05 L318.8 155.55 328.05 144.55 327.45 150.75 Q324.6 152.9 322.75 155.8 320.05 160.15 320.05 165.25 L320.55 168.4 321.05 171.5 Q321.05 178.4 315.55 190.0 L315.3 190.5 Q309.6 202.5 304.8 202.5 L302.85 202.25 301.05 202.0 Q301.3 200.45 303.85 197.4 L309.35 191.3 Q314.7 185.05 316.35 180.0 317.05 177.75 317.05 175.75 L316.9 174.55 Q316.55 173.35 315.55 172.1 314.05 170.25 314.05 166.5 314.05 164.75 317.5 157.7 L318.35 156.05" fill="#440000" fill-rule="evenodd" stroke="none"/>
    <path d="M320.05 227.0 L319.4 233.5 Q317.55 234.45 314.9 236.1 L310.55 238.65 308.55 239.5 308.55 242.0 310.2 242.15 311.4 242.25 314.05 242.5 Q315.4 242.5 318.7 240.6 L318.1 246.75 316.9 247.6 Q314.1 249.5 313.3 249.5 L309.6 248.45 303.55 246.5 Q302.6 246.5 300.05 254.0 297.55 261.45 297.55 264.25 297.55 267.45 302.55 270.0 305.4 271.45 307.25 271.85 L308.55 272.0 Q312.4 272.0 313.9 270.65 L316.1 267.45 315.45 274.05 307.8 274.55 307.0 274.55 299.15 274.25 298.55 274.0 Q291.55 271.35 291.55 267.0 291.55 265.1 292.85 263.75 L294.55 262.0 Q295.3 260.45 295.15 258.2 295.0 255.45 295.55 253.5 L297.3 245.35 Q297.9 241.95 299.05 239.5 299.85 237.8 304.05 236.7 L310.05 235.0 311.0 234.45 315.5 231.0 320.05 227.0" fill="#2b0000" fill-rule="evenodd" stroke="none"/>
  </g>
</svg>
