<?xml version="1.0" encoding="UTF-8" standalone="no"?>
<svg xmlns:xlink="http://www.w3.org/1999/xlink" height="60.55px" width="152.4px" xmlns="http://www.w3.org/2000/svg">
  <g transform="matrix(1.0, 0.0, 0.0, 1.0, 76.2, 30.25)">
    <path d="M8.15 -9.8 Q2.55 -5.8 -1.7 -4.4 L32.8 -3.15 Q35.3 -3.15 43.9 -5.1 52.4 -7.05 55.45 -8.25 L57.6 -8.25 Q57.45 -5.7 58.95 -4.55 60.55 -3.4 60.55 -1.5 60.55 1.35 41.9 2.75 L22.85 3.6 Q15.0 3.6 -3.6 0.0 L-22.0 -3.6 -27.5 -3.1 Q-30.45 -2.3 -30.45 0.2 -30.45 3.3 -28.7 4.25 -26.15 5.6 -24.95 8.3 -29.05 12.05 -37.6 14.45 L-38.8 14.8 -45.3 10.4 -45.3 7.45 Q-43.75 6.55 -41.3 4.45 L-36.4 0.65 Q-38.05 -1.0 -48.7 -3.65 L-49.5 -2.5 Q-50.95 -0.55 -51.65 -0.2 -62.25 4.6 -62.6 2.15 -68.2 3.25 -72.45 -2.0 -76.2 -6.7 -76.2 -11.0 -76.2 -17.25 -69.0 -23.9 -62.2 -30.25 -56.9 -30.25 -48.4 -30.25 -45.45 -24.75 -44.15 -22.35 -42.3 -11.6 -35.35 -11.1 -20.3 -6.55 -19.55 -8.1 -4.7 -16.45 10.0 -24.75 11.65 -24.75 14.05 -24.75 15.25 -23.05 16.1 -21.85 16.1 -20.5 16.1 -15.4 8.15 -9.8 M-62.6 2.15 L-61.8 1.95 -62.65 1.95 -62.6 2.15 M70.7 15.35 Q64.3 20.15 59.7 20.15 58.55 20.15 55.45 16.7 L53.25 14.05 63.15 9.7 Q69.35 7.0 71.1 7.0 76.2 7.0 76.2 10.4 L70.7 15.35 M59.3 29.0 Q58.85 29.0 58.85 30.3 L40.65 30.3 Q24.85 28.35 8.0 24.85 L-6.35 21.8 Q-1.3 17.4 2.2 14.85 2.55 17.5 4.45 18.0 L8.95 17.55 13.45 17.35 Q15.5 18.1 15.7 21.8 L34.6 25.4 Q50.3 28.7 59.3 29.0" fill="#000000" fill-rule="evenodd" stroke="none"/>
  </g>
</svg>
