<?xml version="1.0" encoding="UTF-8" standalone="no"?>
<svg xmlns:xlink="http://www.w3.org/1999/xlink" height="57.85px" width="296.95px" xmlns="http://www.w3.org/2000/svg">
  <g transform="matrix(1.0, 0.0, 0.0, 1.0, 148.5, 28.9)">
    <path d="M-28.3 -0.75 Q-10.95 6.05 23.85 3.15 L37.7 1.85 75.45 3.05 Q80.1 4.3 104.05 5.45 L147.6 7.8 147.7 8.1 148.45 8.85 Q148.45 9.75 147.2 10.15 L132.95 10.35 95.6 7.55 41.15 4.75 29.55 5.1 25.7 5.85 Q16.2 6.95 -45.25 6.95 L-56.65 6.9 -54.35 7.6 Q-49.25 9.15 -36.5 10.15 -28.1 12.3 -21.45 13.5 -9.05 15.8 4.5 14.8 11.0 14.35 16.2 12.95 20.7 11.5 22.55 11.15 25.4 10.65 29.0 11.85 L30.65 12.45 Q34.3 9.95 35.75 9.35 40.5 7.3 43.5 9.7 41.75 13.75 34.8 13.75 L33.7 13.75 Q36.75 15.1 40.95 17.35 44.85 19.4 55.35 19.35 L65.7 18.85 Q68.25 18.85 69.75 19.9 64.95 23.1 55.05 23.1 L44.45 22.3 Q42.6 21.85 39.8 20.55 32.1 18.0 -0.7 18.0 -11.6 18.0 -23.55 15.85 L-23.55 15.35 Q-29.05 13.6 -40.5 11.75 L-40.55 11.55 -41.75 11.55 -43.85 11.25 -54.85 8.45 -59.3 7.5 -59.05 7.05 -59.7 6.45 Q-56.65 5.2 -53.95 3.65 -56.35 1.1 -63.55 0.25 L-65.45 0.05 -64.9 -0.35 -70.95 -0.15 -78.4 0.25 -80.35 -0.3 -77.3 -0.15 Q-74.45 -0.15 -68.1 -1.7 L-58.6 -4.4 Q-50.6 -7.0 -45.05 -5.4 L-37.45 -1.45 Q-33.55 0.8 -29.55 -0.35 L-28.3 -0.75 M-27.85 18.0 L-11.4 19.8 10.2 23.15 Q23.85 25.1 44.35 26.5 L44.45 26.75 45.2 27.55 Q45.2 28.0 41.45 28.5 L36.05 28.95 Q21.8 28.95 2.65 25.7 L-18.35 22.05 -49.05 19.0 -57.45 18.35 -33.55 22.45 -33.55 23.1 Q-35.15 23.95 -38.45 23.95 -48.55 23.95 -60.25 20.8 -66.05 19.25 -71.3 17.45 L-85.45 16.65 -84.95 16.65 -52.65 16.35 -44.0 17.35 -32.5 18.35 -27.85 18.0 M-131.35 14.6 L-135.75 14.4 Q-134.6 14.1 -129.3 11.6 L-127.8 10.9 -127.9 10.9 -130.65 11.2 -132.85 10.9 -133.35 10.65 -131.35 10.1 Q-126.05 8.65 -121.95 6.2 L-114.75 4.5 -108.75 4.75 -103.8 4.7 -100.25 5.3 -99.7 5.55 Q-102.4 7.05 -104.05 8.9 L-106.75 9.45 -113.4 10.8 -105.0 11.45 -105.45 11.7 Q-124.95 11.75 -128.55 11.95 -129.45 11.95 -130.35 12.75 -131.2 13.5 -131.5 14.5 L-131.35 14.6 M-138.3 2.45 L-139.15 2.5 -139.15 2.35 -138.3 2.45 M-72.25 -17.15 Q-60.35 -25.5 -55.8 -27.6 -50.9 -29.85 -48.95 -28.2 -47.7 -27.15 -46.5 -22.25 L-45.05 -17.25 Q-60.5 -17.45 -72.25 -17.15 M-44.15 -14.85 L-43.2 -12.95 -42.7 -12.1 Q-57.25 -11.6 -66.65 -9.65 L-76.95 -7.15 Q-82.05 -5.95 -87.5 -6.1 L-87.5 -2.3 -87.3 -2.15 -95.2 -4.15 -95.3 -5.65 -88.85 -5.15 -78.6 -12.6 Q-65.35 -14.6 -58.6 -14.6 -49.4 -14.6 -44.15 -14.85 M-18.75 -6.8 L-15.7 -6.8 Q-10.45 -6.7 -7.15 -5.7 1.65 -2.95 76.3 -2.5 L76.75 -1.95 Q76.15 -1.25 75.6 -1.0 L73.35 -0.6 Q1.9 -0.6 -5.4 -2.35 L-15.35 -4.05 -21.75 -4.5 -18.75 -6.8 M-108.3 -6.85 L-107.9 -6.8 -107.9 -6.75 -108.3 -6.85" fill="#8f0101" fill-rule="evenodd" stroke="none"/>
    <path d="M-23.55 15.85 L-23.55 16.65 Q-24.6 17.35 -26.9 17.8 L-27.85 18.0 -32.5 18.35 -44.0 17.35 -52.65 16.35 -84.95 16.65 -85.45 16.65 -106.3 16.15 Q-112.3 18.85 -112.9 18.85 L-115.1 18.55 -116.3 17.8 -113.1 15.9 -131.35 14.6 -131.5 14.5 Q-131.2 13.5 -130.35 12.75 -129.45 11.95 -128.55 11.95 -124.95 11.75 -105.45 11.7 L-105.0 11.45 -103.05 10.45 -104.5 9.4 -104.05 8.9 Q-102.4 7.05 -99.7 5.55 L-100.25 5.3 -103.8 4.7 -108.75 4.75 -114.75 4.5 -119.1 4.2 -121.95 6.2 Q-126.05 8.65 -131.35 10.1 L-133.35 10.65 -140.0 11.55 Q-142.85 11.55 -144.35 10.95 -145.2 10.65 -146.8 9.4 -143.15 4.8 -136.9 2.65 L-138.3 2.45 -139.15 2.35 -143.0 1.55 -143.4 0.25 Q-142.15 -0.7 -135.55 -0.95 L-140.3 -1.95 -143.95 -2.45 Q-147.25 -3.05 -148.5 -4.0 -140.0 -9.2 -124.3 -8.6 L-118.9 -10.0 -103.35 -14.45 Q-94.3 -16.6 -72.25 -17.15 -60.5 -17.45 -45.05 -17.25 L-37.15 -17.15 -37.15 -15.9 Q-38.05 -15.2 -44.15 -14.85 -49.4 -14.6 -58.6 -14.6 -65.35 -14.6 -78.6 -12.6 L-104.1 -8.2 -109.85 -7.1 -108.3 -6.85 -107.9 -6.75 -107.9 -6.8 -107.9 -7.4 -94.75 -7.8 -95.3 -5.65 -95.2 -4.15 -87.3 -2.15 -87.5 -2.3 -87.5 -6.1 Q-82.05 -5.95 -76.95 -7.15 L-66.65 -9.65 Q-57.25 -11.6 -42.7 -12.1 -31.3 -12.55 -16.75 -12.05 -16.75 -11.2 -15.05 -9.95 L-18.75 -6.8 -21.75 -4.5 Q-25.45 -1.9 -28.3 -0.75 L-29.55 -0.35 Q-33.55 0.8 -37.45 -1.45 L-45.05 -5.4 Q-50.6 -7.0 -58.6 -4.4 L-68.1 -1.7 Q-74.45 -0.15 -77.3 -0.15 L-80.35 -0.3 -78.4 0.25 -70.95 -0.15 -64.9 -0.35 -65.45 0.05 -63.55 0.25 Q-56.35 1.1 -53.95 3.65 -56.65 5.2 -59.7 6.45 L-59.05 7.05 -59.3 7.5 Q-59.95 7.95 -62.05 8.5 L-45.05 11.05 -43.85 11.25 -41.75 11.55 -40.55 11.55 -40.5 11.75 Q-29.05 13.6 -23.55 15.35 L-23.55 15.85 M-96.5 11.65 L-80.2 11.6 -82.7 11.0 -96.35 11.55 -96.5 11.65" fill="#3c0000" fill-rule="evenodd" stroke="none"/>
  </g>
</svg>
