<?xml version="1.0" encoding="UTF-8" standalone="no"?>
<svg xmlns:xlink="http://www.w3.org/1999/xlink" height="685.45px" width="722.45px" xmlns="http://www.w3.org/2000/svg">
  <g transform="matrix(1.0, 0.0, 0.0, 1.0, -118.7, -46.75)">
    <path d="M803.2 504.75 Q820.9 546.15 826.6 561.8 837.1 590.3 841.15 614.3 827.6 621.3 809.5 631.7 766.35 656.55 747.15 674.0 744.4 676.55 722.75 685.8 696.95 696.9 681.6 705.85 667.4 714.05 622.3 722.65 572.45 732.2 531.25 732.2 480.15 732.2 428.85 725.95 380.15 720.05 354.8 711.55 344.45 708.0 338.2 699.9 335.2 696.05 332.25 688.95 L298.95 617.75 Q274.05 563.95 274.05 557.4 274.05 549.75 276.0 547.25 L285.2 538.85 Q282.25 537.8 272.4 536.95 L255.3 535.05 252.35 535.05 249.05 530.15 Q243.0 520.55 238.4 499.4 236.25 489.3 228.1 484.05 L222.85 481.05 Q220.55 479.75 220.55 478.7 220.55 475.6 223.85 472.65 L223.85 470.3 Q222.7 469.7 219.4 467.25 216.2 464.85 214.9 464.2 216.25 462.85 217.65 460.65 L219.4 460.2 219.05 459.05 219.0 458.8 217.6 454.3 Q214.3 445.75 203.65 430.85 198.25 423.3 187.15 414.35 175.55 405.65 172.2 402.75 170.75 401.4 164.25 392.0 156.8 381.2 154.85 378.75 L142.85 367.65 Q132.45 358.0 125.75 347.3 123.35 343.5 118.7 337.4 152.85 295.95 210.15 249.95 274.8 198.05 357.7 148.95 433.6 104.0 500.7 75.25 567.4 46.75 596.1 46.75 618.0 80.05 651.1 145.3 717.0 275.2 775.4 435.55 785.7 463.95 803.2 504.75" fill="#000000" fill-rule="evenodd" stroke="none"/>
  </g>
</svg>
