<?xml version="1.0" encoding="UTF-8" standalone="no"?>
<svg xmlns:xlink="http://www.w3.org/1999/xlink" height="116.4px" width="75.8px" xmlns="http://www.w3.org/2000/svg">
  <g transform="matrix(1.0, 0.0, 0.0, 1.0, 15.45, 30.15)">
    <use height="49.4" id="zonee" transform="matrix(1.0, 0.0, 0.0, 1.0, 0.0, 0.0)" width="48.05" xlink:href="#sprite0"/>
  </g>
  <defs>
    <g id="sprite0" transform="matrix(1.0, 0.0, 0.0, 1.0, 24.0, 24.7)">
      <use height="49.4" transform="matrix(1.0, 0.0, 0.0, 1.0, -24.0, -24.7)" width="48.05" xlink:href="#shape0"/>
    </g>
    <g id="shape0" transform="matrix(1.0, 0.0, 0.0, 1.0, 24.0, 24.7)">
      <path d="M24.05 -7.95 L24.05 22.9 19.95 23.05 19.95 23.15 12.9 23.4 -24.0 11.1 -24.0 -24.45 -13.85 -24.45 24.05 -7.95 M9.05 -24.45 L7.9 -24.7 9.05 -24.7 9.05 -24.45" fill="#b7b7b7" fill-opacity="0.5019608" fill-rule="evenodd" stroke="none"/>
      <path d="M9.05 -24.7 L24.0 -24.7 24.0 -24.45 24.05 -24.45 24.05 -7.95 -13.85 -24.45 9.05 -24.45 9.05 -24.7 M12.9 23.4 L-24.0 24.7 -24.0 11.1 12.9 23.4" fill="#f2f2f2" fill-opacity="0.5019608" fill-rule="evenodd" stroke="none"/>
    </g>
  </defs>
</svg>
