<?xml version="1.0" encoding="UTF-8" standalone="no"?>
<svg xmlns:xlink="http://www.w3.org/1999/xlink" height="83.1px" width="39.65px" xmlns="http://www.w3.org/2000/svg">
  <g transform="matrix(1.0, 0.0, 0.0, 1.0, 17.9, 21.35)">
    <use height="83.1" transform="matrix(1.0, 0.0, 0.0, 1.0, -17.9, -21.35)" width="39.65" xlink:href="#shape0"/>
  </g>
  <defs>
    <g id="shape0" transform="matrix(1.0, 0.0, 0.0, 1.0, 17.9, 21.35)">
      <path d="M-13.95 -18.55 L-13.9 -18.25 -7.6 -18.85 0.5 -19.25 3.2 -19.55 5.55 -20.0 7.35 -20.35 13.95 -20.55 15.25 -6.3 15.3 -6.3 18.2 25.9 19.9 41.9 19.8 41.9 21.25 57.65 12.75 58.65 11.5 58.8 M-13.9 -18.25 L-12.45 -2.8 -12.4 -2.5 -11.15 10.45 -11.05 11.75 -10.2 20.7 -7.7 45.45 -7.85 45.45 -6.35 61.2 Q1.4 60.9 10.45 59.0 L10.5 59.0 9.15 44.0 6.6 18.55 4.55 -3.8 4.65 -3.8 4.5 -5.3 3.2 -19.55 M4.65 -3.8 L5.95 10.45 6.0 10.45 4.55 -5.3 4.5 -5.3 M12.75 58.65 L11.5 44.4 11.4 44.4 8.9 18.15 6.9 -4.25 6.95 -4.25 6.8 -5.7 5.55 -20.0 M11.5 44.4 L8.55 12.8 8.25 10.0 8.3 10.0 6.9 -5.75 6.8 -5.7 M-6.35 61.2 L-10.2 61.25 -11.4 47.0 -11.55 47.0 -11.95 41.3 -17.4 -18.25 -14.05 -18.25 -13.9 -18.25 M-12.45 -2.8 L-12.55 -2.5 -12.4 -2.5 M-11.05 11.75 L-11.2 11.75 -10.35 20.7 -10.2 20.7 M-11.15 10.45 L-11.1 11.45 -11.05 11.75 M-11.1 11.45 L-11.2 11.75 -12.55 -2.5 M-11.4 47.0 L-11.95 41.3 M-10.35 20.7 L-7.85 45.45 M5.95 10.45 L6.05 11.6 6.65 18.5 9.1 43.3 9.15 43.25 6.0 10.45 M6.05 11.6 L5.9 10.45 5.95 10.45 M6.95 -4.25 L8.9 18.15 M6.6 18.55 L6.65 18.5 M15.25 -6.3 L16.85 11.65 17.4 17.15 17.3 17.15 18.45 29.0 18.2 25.9 M16.85 11.65 L17.3 17.15 M8.3 10.0 L8.55 12.8 M19.8 41.9 L18.45 29.0 M9.1 43.3 L9.15 44.0 M11.0 58.75 L10.65 59.0 10.45 59.0" fill="none" stroke="#000000" stroke-linecap="round" stroke-linejoin="round" stroke-width="1.0"/>
    </g>
  </defs>
</svg>
