<?xml version="1.0" encoding="UTF-8" standalone="no"?>
<svg xmlns:xlink="http://www.w3.org/1999/xlink" height="83.1px" width="39.65px" xmlns="http://www.w3.org/2000/svg">
  <g transform="matrix(1.0, 0.0, 0.0, 1.0, 17.9, 21.35)">
    <use height="42.6" transform="matrix(1.0, 0.0, 0.0, 1.0, -17.9, -21.35)" width="35.8" xlink:href="#shape0"/>
  </g>
  <defs>
    <g id="shape0" transform="matrix(1.0, 0.0, 0.0, 1.0, 17.9, 21.35)">
      <path d="M-13.95 -18.55 L-13.9 -18.25 -7.6 -18.85 0.5 -19.25 3.2 -19.55 5.55 -20.0 7.35 -20.35 13.95 -20.55 17.4 17.15 8.9 18.15 7.65 18.3 M7.5 18.0 L6.65 18.25 6.65 18.5 Q-2.3 20.4 -10.2 20.7 L-14.05 20.75 -17.4 -18.25 -14.05 -18.25 -13.9 -18.25 -10.2 20.7 M3.2 -19.55 L6.65 18.25 M8.9 18.15 L5.55 -20.0" fill="none" stroke="#000000" stroke-linecap="round" stroke-linejoin="round" stroke-width="1.0"/>
    </g>
  </defs>
</svg>
