<?xml version="1.0" encoding="UTF-8" standalone="no"?>
<svg xmlns:xlink="http://www.w3.org/1999/xlink" height="114.2px" width="52.5px" xmlns="http://www.w3.org/2000/svg">
  <g transform="matrix(1.0, 0.0, 0.0, 1.0, 0.0, 0.0)">
    <use height="114.2" transform="matrix(1.0, 0.0, 0.0, 1.0, 0.0, 0.0)" width="52.5" xlink:href="#shape0"/>
  </g>
  <defs>
    <g id="shape0" transform="matrix(1.0, 0.0, 0.0, 1.0, 0.0, 0.0)">
      <path d="M43.05 7.0 L42.9 24.6 Q38.85 29.35 38.85 35.35 L38.95 37.9 Q39.25 40.85 40.35 43.25 41.45 45.7 43.15 47.4 L43.75 53.05 Q44.05 55.25 46.25 56.65 48.8 58.25 50.1 60.25 48.85 62.35 48.85 65.0 48.85 68.05 50.4 70.3 51.1 71.35 52.15 72.15 52.55 78.9 52.5 86.0 52.45 89.9 50.7 92.8 47.7 97.8 45.7 102.85 45.05 104.5 44.7 106.15 44.05 109.0 43.65 111.95 L43.35 113.1 42.85 114.05 Q37.9 115.15 38.95 109.0 40.7 98.8 44.2 88.05 L44.7 85.95 Q45.8 77.2 44.25 68.95 L43.65 67.2 41.85 62.75 Q39.6 55.4 34.4 50.6 34.55 49.0 33.75 48.7 L31.1 47.85 30.15 47.6 28.95 47.35 26.1 46.8 23.8 46.6 23.45 46.3 Q20.35 43.6 15.95 43.35 11.5 43.15 8.4 45.6 5.8 47.65 5.2 51.1 L2.15 50.75 Q0.6 50.5 0.35 49.65 -1.1 44.15 3.2 42.15 L5.95 40.75 Q8.1 39.55 10.15 39.45 16.2 39.1 22.1 39.75 L34.05 40.9 Q35.55 41.0 36.3 40.25 37.05 39.5 37.05 38.0 L37.25 20.15 Q37.85 18.4 37.85 16.75 37.85 14.8 37.4 13.15 L37.55 8.0 37.75 6.9 Q39.7 1.35 44.05 0.0 43.05 3.3 43.05 7.0" fill="#990000" fill-rule="evenodd" stroke="none"/>
    </g>
  </defs>
</svg>
