<?xml version="1.0" encoding="UTF-8" standalone="no"?>
<svg xmlns:xlink="http://www.w3.org/1999/xlink" height="33.3px" width="66.0px" xmlns="http://www.w3.org/2000/svg">
  <g transform="matrix(1.0, 0.0, 0.0, 1.0, 46.25, 15.5)">
    <use height="30.95" transform="matrix(1.0, 0.0, 0.0, 1.0, -18.7, -15.5)" width="37.45" xlink:href="#sprite0"/>
  </g>
  <defs>
    <g id="sprite0" transform="matrix(1.0, 0.0, 0.0, 1.0, 21.0, 11.35)">
      <use height="30.95" transform="matrix(1.0, 0.0, 0.0, 1.0, -21.0, -11.35)" width="37.45" xlink:href="#shape0"/>
    </g>
    <g id="shape0" transform="matrix(1.0, 0.0, 0.0, 1.0, 21.0, 11.35)">
      <path d="M-19.75 16.05 L-19.85 15.8 -19.75 15.95 -19.75 16.05 M-19.9 15.7 L-19.9 15.5 -19.85 15.4 -19.9 15.7 M-20.85 13.85 L-20.9 13.85 -20.9 13.8 -20.85 13.85 M-20.55 11.55 Q-20.8 11.3 -20.65 11.0 L-20.65 11.15 -20.55 11.4 -20.55 11.55 M-20.65 10.95 L-20.65 10.85 -20.6 10.85 -20.65 10.95 M-9.45 8.45 L-9.4 8.5 -9.5 8.45 -9.45 8.45 M-9.15 8.8 L-9.05 9.5 -9.0 9.5 -9.0 9.55 -9.1 9.55 -9.1 9.1 -9.15 8.8 M-5.6 8.25 L-5.65 8.2 -5.8 8.0 -5.6 8.25 M-9.75 8.6 L-9.7 8.55 -9.65 8.65 Q-9.6 8.65 -9.5 8.75 L-9.7 8.65 -10.85 8.9 -10.9 8.85 -9.75 8.6 M-9.2 9.55 L-9.2 9.6 -9.25 9.6 -9.2 9.55 M-8.2 10.4 L-8.1 10.55 -8.2 10.45 -8.2 10.4 M-5.0 10.65 L-5.05 10.55 -5.05 10.45 -5.0 10.65 M-9.85 9.8 L-9.8 9.9 -9.9 9.75 -9.85 9.8 M-12.9 11.25 L-12.85 11.45 -12.9 11.35 -12.9 11.25 M-3.95 7.6 L-3.9 7.6 -3.9 7.7 -3.95 7.6 M-2.65 11.7 L-2.5 10.85 -2.5 11.2 -2.65 11.7 M-18.85 10.3 L-18.65 10.4 -18.55 10.55 -18.65 10.45 -18.85 10.3 M-18.55 10.65 L-18.5 10.8 -18.5 10.85 -18.55 10.7 -18.55 10.65 M-20.05 11.25 L-20.0 11.1 -20.0 11.15 -20.05 11.25 M-20.1 10.85 L-20.15 10.8 Q-20.2 10.7 -20.3 10.7 -20.15 10.65 -20.1 10.85 M-17.1 9.65 L-17.05 9.75 -17.15 9.75 -17.1 9.65 M-13.6 15.3 L-13.55 15.3 -13.6 15.35 -13.75 15.5 -13.6 15.3 M-17.75 15.2 L-17.7 15.35 -17.7 15.4 -17.75 15.25 -17.75 15.2 M-19.25 15.55 L-19.2 15.7 -19.25 15.8 -19.25 15.65 -19.25 15.55 M-3.2 12.9 L-3.05 12.65 -2.0 12.45 -2.95 12.65 -3.1 12.8 -3.2 12.9 M-20.65 13.05 L-20.45 13.2 -20.5 13.2 -20.65 13.05 M-20.4 13.45 L-20.35 13.55 -20.4 13.6 -20.4 13.45" fill="#191413" fill-rule="evenodd" stroke="none"/>
      <path d="M-16.65 16.3 L-16.75 16.3 Q-16.95 16.45 -17.4 16.6 L-18.4 16.45 -19.05 16.2 -19.4 16.3 -19.6 16.2 -19.1 16.2 -18.25 15.95 -18.25 15.7 -18.1 15.85 -17.6 15.85 -16.75 15.6 -16.75 15.35 -16.7 14.9 Q-16.7 14.45 -17.1 14.4 L-18.25 14.75 -18.3 14.9 -18.65 14.8 -19.75 15.1 -19.85 15.25 -19.85 15.35 -19.8 15.15 -19.75 15.0 -19.95 14.55 -20.05 14.1 -20.6 14.15 -20.85 14.0 -20.75 14.0 -20.3 14.05 -19.45 13.85 -19.4 13.6 -19.3 13.15 Q-19.3 12.7 -19.7 12.65 L-20.25 12.75 -20.35 12.2 -20.3 11.65 -20.4 11.6 -19.95 11.65 -19.05 11.5 -19.05 11.25 -19.0 11.15 -18.9 11.25 -18.7 11.3 -18.4 11.3 -17.55 11.05 -17.55 10.8 -17.45 10.35 Q-17.5 9.9 -17.9 9.9 L-19.0 10.15 -19.1 10.35 -19.35 10.25 -19.9 10.4 Q-19.45 9.5 -18.65 9.35 L-18.25 9.35 -17.7 9.5 -17.15 10.05 -16.4 11.15 Q-15.5 13.1 -16.3 15.9 -16.3 16.1 -16.65 16.3 M-6.9 7.6 L-6.25 7.55 -5.95 7.6 -5.3 7.85 -5.1 8.0 -4.7 8.4 Q-3.95 9.2 -3.8 10.65 -3.75 11.75 -4.0 12.5 L-4.55 13.3 -4.7 13.45 -5.15 13.75 -5.9 13.85 -6.35 13.65 -6.75 13.45 -6.9 13.5 -7.65 13.65 -6.75 13.45 -4.9 13.05 -4.7 12.75 Q-4.3 12.25 -4.7 11.95 L-5.1 11.8 -5.3 11.8 -9.35 12.75 -9.45 13.1 -9.35 12.1 -9.3 12.05 -9.3 12.1 -9.35 12.45 -6.9 11.75 -6.55 11.65 -6.55 11.5 -7.75 11.8 -6.9 11.55 -6.5 11.45 -5.1 11.0 -4.7 10.9 -4.7 10.95 -4.6 10.95 -4.45 10.85 -4.15 11.0 -4.05 10.4 Q-4.05 9.75 -4.65 9.6 L-4.75 9.75 -5.0 9.75 -5.0 9.85 -5.1 9.8 -5.35 9.9 -5.3 9.95 -5.4 9.9 -5.65 9.95 -5.65 9.9 -6.0 9.5 -5.95 9.4 -6.0 9.25 -6.05 9.2 -6.2 9.2 -6.3 9.05 -6.2 9.0 -5.8 9.05 -5.8 8.95 -5.75 8.95 -5.75 9.05 -5.6 9.05 -5.6 8.95 -5.55 8.95 -5.1 8.9 Q-5.05 8.4 -5.4 8.1 L-5.65 8.0 -5.8 7.9 -6.05 7.95 -6.1 7.95 -6.2 7.95 -6.3 8.1 -6.4 8.1 -6.5 8.1 -6.5 8.15 Q-6.65 8.0 -6.9 8.0 L-9.05 8.4 -7.65 8.1 -7.45 8.0 -7.05 7.6 -6.9 7.6 M-1.0 8.25 L-0.85 8.55 -2.9 8.85 -2.95 8.65 -1.0 8.25 M-0.6 10.1 L-0.6 10.15 -2.5 10.6 -2.5 10.3 -2.45 10.45 -0.6 10.1 M-5.0 13.75 L-5.15 13.75 -5.0 13.7 -5.0 13.75 M-12.7 12.65 L-10.0 12.05 -9.9 11.45 Q-9.9 10.75 -10.5 10.7 L-11.5 11.0 Q-11.55 10.85 -11.8 10.75 L-12.1 10.65 -13.05 10.85 -13.35 10.2 -11.05 9.75 -11.15 9.25 Q-11.25 8.8 -11.7 8.85 L-13.55 9.3 Q-12.9 8.2 -11.8 8.4 L-11.55 8.5 -10.85 9.1 -10.0 10.45 Q-8.95 12.75 -10.8 15.0 L-10.5 14.9 -11.0 15.1 -12.2 15.05 -12.5 14.85 -12.55 14.8 -13.2 14.85 -13.15 14.75 -10.7 14.15 -10.5 14.1 -10.3 13.95 -10.3 13.75 -10.3 13.45 Q-10.45 12.9 -10.85 12.95 L-12.75 13.4 -12.75 13.0 -12.7 12.65 M-17.75 12.25 Q-17.6 12.25 -17.55 12.4 L-17.6 12.35 Q-17.7 12.25 -17.75 12.25 M-17.5 12.65 L-17.45 12.75 -17.5 12.8 -17.5 12.65 M-17.6 13.05 L-16.5 12.8 -16.4 12.35 Q-16.4 11.9 -16.8 11.8 L-17.9 12.1 -17.95 12.2 -18.15 12.0 -18.55 12.05 -18.7 12.8 Q-18.65 13.45 -18.4 13.6 L-18.05 13.7 -17.65 13.3 -17.3 13.3 -16.45 13.05 -16.4 12.8 -17.7 13.2 -17.95 13.1 -17.95 13.15 -18.0 13.05 -18.1 12.5 -18.05 12.45 -18.1 12.7 -18.05 12.9 -18.0 13.0 -17.95 13.05 -17.85 13.1 -17.75 13.1 -17.6 13.05 M-14.8 10.45 L-14.75 10.35 -14.7 10.3 -14.65 10.05 -14.65 9.75 -15.1 9.35 -15.35 9.35 -15.65 9.3 -17.1 9.65 -16.85 9.55 Q-16.3 8.8 -15.55 8.8 L-14.7 9.15 -14.25 9.65 -13.45 11.0 Q-12.5 13.3 -13.6 15.3 L-13.85 15.6 -14.35 15.9 -15.45 15.9 -16.0 15.7 -15.9 15.45 -15.95 15.65 -14.35 15.25 -14.25 15.25 -14.15 15.2 -13.75 14.6 Q-13.7 14.2 -14.2 13.9 L-14.55 13.75 -14.7 13.75 -15.55 13.9 -15.55 13.6 -15.5 13.2 -13.6 12.75 -13.45 12.5 -13.45 11.95 -13.95 11.55 -14.4 11.4 -14.6 11.0 -14.65 10.85 -14.7 10.75 -14.8 10.45" fill="#151515" fill-rule="evenodd" stroke="none"/>
      <path d="M-19.9 15.5 L-19.85 15.35 -19.85 15.25 -19.75 15.1 -18.65 14.8 -18.3 14.9 -18.25 14.75 -17.1 14.4 Q-16.7 14.45 -16.7 14.9 L-16.75 15.35 -17.85 15.65 -17.7 15.4 -17.7 15.35 -17.75 15.2 -17.8 15.1 -17.85 15.05 -17.85 15.0 -17.9 15.0 -18.0 14.9 -18.1 14.9 -18.25 15.0 -18.35 15.1 -18.4 15.35 -18.25 15.6 -18.25 15.65 -18.25 15.7 -19.35 16.05 -19.35 16.0 -19.25 15.8 -19.2 15.7 -19.25 15.55 -19.35 15.45 -19.35 15.35 -19.6 15.25 -19.85 15.4 -19.9 15.5 M-20.95 13.3 L-21.0 13.3 -20.95 13.05 -20.8 12.9 -20.5 12.85 -20.25 12.75 -19.7 12.65 Q-19.3 12.7 -19.3 13.15 L-19.4 13.6 -20.5 13.85 -20.45 13.8 -20.4 13.6 -20.35 13.55 -20.4 13.45 -20.45 13.25 -20.45 13.2 -20.65 13.05 -20.7 13.05 -20.95 13.25 -20.95 13.3 M-20.65 10.85 L-20.7 10.95 -20.6 10.7 -20.5 10.5 -20.4 10.5 -19.9 10.4 -19.35 10.25 -19.1 10.35 -19.0 10.15 -17.9 9.9 Q-17.5 9.9 -17.45 10.35 L-17.55 10.8 -18.65 11.15 -18.65 11.05 -18.5 10.85 -18.5 10.8 -18.55 10.65 -18.55 10.55 -18.65 10.4 -18.85 10.3 -18.9 10.35 -19.05 10.45 -19.1 10.5 -19.2 10.8 -19.05 11.1 -19.0 11.15 -19.05 11.25 -20.15 11.5 -20.05 11.25 -20.0 11.15 -20.0 11.1 -20.0 11.05 -20.1 10.85 Q-20.15 10.65 -20.3 10.7 L-20.4 10.7 Q-20.5 10.7 -20.6 10.85 L-20.65 10.85 M-0.75 9.05 L-0.7 9.0 -0.65 9.2 -0.6 10.05 -0.6 10.1 -2.45 10.45 -2.5 10.3 -2.65 9.35 -0.75 9.05 M-17.75 12.25 L-17.85 12.25 -18.1 12.45 -18.05 12.45 -18.1 12.5 -18.05 12.25 -17.95 12.2 -17.9 12.1 -16.8 11.8 Q-16.4 11.9 -16.4 12.35 L-16.5 12.8 -17.6 13.05 -17.55 13.0 -17.5 12.8 -17.45 12.75 -17.5 12.65 -17.55 12.45 -17.55 12.4 Q-17.6 12.25 -17.75 12.25" fill="#4d4d4d" fill-rule="evenodd" stroke="none"/>
      <path d="M-19.6 16.2 L-19.75 16.05 -19.75 15.95 -19.7 16.0 -19.6 16.05 -19.5 16.05 -19.35 16.05 -18.25 15.7 -18.25 15.65 -18.05 15.7 -17.95 15.7 -17.85 15.65 -16.75 15.35 -16.75 15.6 -17.6 15.85 -18.1 15.85 -18.25 15.7 -18.25 15.95 -19.1 16.2 -19.6 16.2 M-20.85 14.0 L-20.85 13.85 -20.7 13.9 -20.65 13.9 -20.5 13.85 -19.4 13.6 -19.45 13.85 -20.3 14.05 -20.75 14.0 -20.85 14.0 M-20.4 11.6 L-20.45 11.6 -20.55 11.55 -20.55 11.4 -20.45 11.5 -20.15 11.5 -19.05 11.25 -19.05 11.5 -19.95 11.65 -20.4 11.6 M-18.65 11.15 L-17.55 10.8 -17.55 11.05 -18.4 11.3 -18.7 11.3 -18.9 11.25 -19.0 11.15 -18.85 11.15 -18.65 11.15 M-17.65 13.3 L-17.7 13.3 -17.8 13.3 -17.95 13.2 -17.95 13.15 -17.95 13.1 -17.7 13.2 -16.4 12.8 -16.45 13.05 -17.3 13.3 -17.65 13.3" fill="#111111" fill-rule="evenodd" stroke="none"/>
      <path d="M-19.85 15.8 L-19.9 15.7 -19.85 15.4 -19.6 15.25 -19.35 15.35 -19.35 15.45 -19.25 15.55 -19.25 15.65 -19.25 15.8 -19.35 16.0 -19.35 16.05 -19.5 16.05 -19.6 16.05 -19.7 16.0 -19.75 15.95 -19.85 15.8 M-20.9 13.8 L-20.95 13.75 -21.0 13.5 -20.95 13.3 -20.95 13.25 -20.7 13.05 -20.65 13.05 -20.5 13.2 -20.45 13.2 -20.45 13.25 -20.4 13.45 -20.4 13.6 -20.45 13.8 -20.5 13.85 -20.65 13.9 -20.7 13.9 -20.85 13.85 -20.9 13.8 M-20.65 11.0 L-20.65 10.95 -20.6 10.85 Q-20.5 10.7 -20.4 10.7 L-20.3 10.7 Q-20.2 10.7 -20.15 10.8 L-20.1 10.85 -20.0 11.05 -20.0 11.1 -20.05 11.25 -20.15 11.5 -20.45 11.5 -20.55 11.4 -20.65 11.15 -20.65 11.0 M-19.0 11.15 L-19.05 11.1 -19.2 10.8 -19.1 10.5 -19.05 10.45 -18.9 10.35 -18.85 10.3 -18.65 10.45 -18.55 10.55 -18.55 10.65 -18.55 10.7 -18.5 10.85 -18.65 11.05 -18.65 11.15 -18.85 11.15 -19.0 11.15 M-18.05 12.45 L-18.1 12.45 -17.85 12.25 -17.75 12.25 Q-17.7 12.25 -17.6 12.35 L-17.55 12.4 -17.55 12.45 -17.5 12.65 -17.5 12.8 -17.55 13.0 -17.6 13.05 -17.75 13.1 -17.85 13.1 -17.95 13.05 -18.0 13.0 -18.05 12.9 -18.1 12.7 -18.05 12.45 M-17.95 12.2 L-18.05 12.25 -18.1 12.5 -18.0 13.05 -17.95 13.15 -17.95 13.2 -17.8 13.3 -17.7 13.3 -17.65 13.3 -18.05 13.7 -18.4 13.6 Q-18.65 13.45 -18.7 12.8 L-18.55 12.05 -18.15 12.0 -17.95 12.2 M-15.85 11.4 L-16.05 11.05 -16.05 11.0 -15.95 11.0 -15.9 11.15 -15.8 11.25 -15.65 11.3 -15.65 11.35 -15.65 11.45 -15.8 11.45 -15.85 11.4 M-14.7 11.15 L-14.8 11.25 -14.95 11.25 -15.0 11.2 -15.1 11.15 -15.15 11.0 -15.25 10.9 -15.2 10.85 -15.1 10.8 -15.05 10.95 -14.9 11.05 -14.7 11.15 M-17.7 15.4 L-17.85 15.65 -17.95 15.7 -18.05 15.7 -18.25 15.65 -18.25 15.6 -18.4 15.35 -18.35 15.1 -18.25 15.0 -18.1 14.9 -18.0 14.9 -17.9 15.0 -17.85 15.0 -17.85 15.05 -17.8 15.1 -17.75 15.2 -17.75 15.25 -17.7 15.4" fill="#040404" fill-rule="evenodd" stroke="none"/>
      <path d="M2.15 2.25 L2.25 -10.4 2.3 -10.4 3.85 -10.75 9.2 -11.35 9.25 -11.3 Q11.3 -8.25 15.0 -3.35 L15.0 -3.3 15.0 2.15 14.95 6.15 15.0 8.25 15.0 8.45 15.0 8.5 14.45 9.25 13.15 11.25 11.75 13.45 10.9 14.95 10.85 15.1 10.75 15.2 10.6 15.25 2.2 17.15 2.05 17.15 2.1 16.2 2.1 15.35 2.15 2.25 M-14.6 19.2 L-14.85 19.25 -14.95 19.2 -15.0 19.05 -15.1 18.85 -15.8 17.75 -16.65 16.3 Q-16.3 16.1 -16.3 15.9 -15.5 13.1 -16.4 11.15 L-17.15 10.05 -17.7 9.5 -18.25 9.35 -18.65 9.35 -18.85 2.3 Q-15.3 -4.05 -13.4 -7.9 -11.25 -8.25 -8.4 -9.25 L-6.9 -9.5 -6.9 3.85 -6.9 7.6 -7.05 7.6 -7.45 8.0 -7.65 8.1 -9.05 8.4 -9.45 8.45 -9.5 8.45 -9.55 8.5 -9.75 8.55 -9.75 8.6 -10.9 8.85 -10.85 8.9 -9.9 9.75 -9.8 9.9 -9.7 10.15 -9.55 10.5 -9.5 10.55 Q-9.35 10.7 -9.35 11.35 L-9.35 11.45 -9.3 12.0 -9.3 12.05 -9.35 12.1 -9.45 13.1 -9.75 14.05 -7.65 13.65 -6.9 13.5 -6.75 16.65 -6.75 17.9 -6.75 18.0 -7.05 18.05 -14.6 19.2 M-6.25 7.55 L-6.2 7.55 -6.15 7.55 -6.0 7.5 -4.7 7.3 -4.45 7.35 -4.35 7.4 -4.3 7.45 -3.95 7.6 -3.9 7.7 -3.85 7.7 -3.5 8.0 -3.0 8.65 -2.95 8.65 -2.9 8.85 -2.75 9.2 -2.65 9.35 -2.5 10.3 -2.5 10.6 -2.5 10.85 -2.65 11.7 -2.8 11.95 -3.0 12.55 -3.05 12.65 -3.2 12.9 -3.25 13.0 -3.5 13.35 -3.6 13.35 -4.05 13.55 -4.15 13.6 -4.3 13.6 -5.0 13.75 -5.0 13.7 -5.15 13.75 -4.7 13.45 -4.55 13.3 -4.0 12.5 Q-3.75 11.75 -3.8 10.65 -3.95 9.2 -4.7 8.4 L-5.1 8.0 -5.3 7.85 -5.95 7.6 -6.25 7.55 M-12.7 12.65 L-12.75 13.0 -12.75 13.4 -12.8 13.5 -13.05 14.35 -13.05 14.55 -13.2 14.75 -13.15 14.75 -13.2 14.85 -12.55 14.8 -12.5 14.85 -12.2 15.05 -11.0 15.1 -10.5 14.9 -10.8 15.0 Q-8.95 12.75 -10.0 10.45 L-10.85 9.1 -11.55 8.5 -11.8 8.4 Q-12.9 8.2 -13.55 9.3 L-14.05 9.35 -13.75 9.75 -13.45 10.25 -13.35 10.2 -13.05 10.85 -12.95 11.05 -12.9 11.0 -12.85 11.0 -12.85 11.1 -12.8 11.15 -12.75 11.2 -12.8 11.2 -12.85 11.25 -12.9 11.25 -12.9 11.35 -12.85 11.45 -12.8 11.85 -12.75 12.65 -12.7 12.65 M-14.8 10.45 L-15.05 10.45 -15.1 10.45 -15.1 10.5 -15.85 10.6 -15.9 10.6 -15.9 10.65 -16.2 10.65 -16.25 10.65 -16.05 11.0 -16.05 11.05 -15.85 11.4 -15.75 11.8 -15.7 11.95 -15.55 13.05 -15.55 13.2 -15.5 13.2 -15.55 13.6 -15.55 13.9 Q-15.65 14.75 -15.9 15.45 L-16.0 15.7 -15.45 15.9 -14.35 15.9 -13.85 15.6 -13.6 15.3 Q-12.5 13.3 -13.45 11.0 L-14.25 9.65 -14.7 9.15 -15.55 8.8 Q-16.3 8.8 -16.85 9.55 L-17.1 9.65 -15.65 9.3 -15.35 9.35 -15.1 9.35 -14.65 9.75 -14.65 10.05 -14.7 10.3 -14.75 10.35 -14.8 10.45 M-17.1 9.65 L-17.15 9.75 -17.05 9.75 -17.1 9.65 M-13.6 15.3 L-13.75 15.5 -13.6 15.35 -13.55 15.3 -13.6 15.3" fill="#737373" fill-rule="evenodd" stroke="none"/>
      <path d="M-1.55 7.2 L-1.5 7.2 -1.35 7.35 -0.85 8.25 -1.0 8.25 -2.95 8.65 -3.0 8.65 -3.5 8.0 -3.85 7.7 -3.9 7.7 -3.9 7.6 -3.95 7.55 -1.6 7.2 -1.55 7.2 M-8.25 10.35 L-8.2 10.35 -6.95 10.15 -6.75 10.15 -6.55 10.1 -5.85 10.05 -5.65 9.95 -5.4 9.9 -5.3 9.95 -5.15 10.2 -5.05 10.45 -5.05 10.55 -5.0 10.65 -5.1 10.9 -5.1 11.0 -6.5 11.45 -6.9 11.55 -7.75 11.8 -7.95 11.75 -7.85 11.15 -8.0 10.85 -8.1 10.55 -8.2 10.4 -8.25 10.35" fill="#555555" fill-rule="evenodd" stroke="none"/>
      <path d="M-0.7 11.65 L-0.7 11.75 -0.75 11.8 -0.85 12.2 -0.9 12.2 -2.0 12.45 -3.05 12.65 -3.0 12.55 -2.8 11.95 -2.65 11.7 -2.5 11.2 -0.6 10.85 -0.7 11.65" fill="#515151" fill-rule="evenodd" stroke="none"/>
      <path d="M-16.05 11.0 L-16.25 10.65 -16.2 10.65 -15.9 10.65 -15.9 10.6 -15.85 10.6 -15.1 10.5 -15.1 10.45 -15.05 10.45 -14.8 10.45 -14.7 10.75 -14.8 10.7 -14.95 10.75 -15.1 10.8 -15.2 10.85 -15.25 10.9 -15.15 11.0 -15.1 11.15 -15.0 11.2 -14.95 11.25 -14.8 11.25 -14.7 11.15 -14.7 11.1 -14.6 11.0 -14.4 11.4 -15.75 11.8 -15.85 11.4 -15.8 11.45 -15.65 11.45 -15.65 11.35 -15.55 11.3 -15.5 11.2 -15.5 11.05 -15.65 11.0 -15.75 10.95 -15.95 11.0 -16.05 11.0" fill="#8c8c8c" fill-rule="evenodd" stroke="none"/>
      <path d="M2.1 16.2 L-5.7 17.0 -6.75 16.65 2.1 15.35 2.1 16.2 M-15.95 11.0 L-15.75 10.95 -15.65 11.0 -15.5 11.05 -15.5 11.2 -15.55 11.3 -15.65 11.35 -15.65 11.3 -15.8 11.25 -15.9 11.15 -15.95 11.0 M-14.7 11.15 L-14.9 11.05 -15.05 10.95 -15.1 10.8 -14.95 10.75 -14.8 10.7 -14.7 10.75 -14.65 10.85 -14.6 11.0 -14.7 11.1 -14.7 11.15" fill="#6f6f6f" fill-rule="evenodd" stroke="none"/>
      <path d="M-11.5 11.0 L-10.5 10.7 Q-9.9 10.75 -9.9 11.45 L-10.0 12.05 -12.7 12.65 -12.75 12.65 -12.8 11.85 -12.85 11.45 -12.9 11.25 -12.85 11.25 -11.5 11.0 M-15.5 13.2 L-15.55 13.2 -15.55 13.05 -15.7 11.95 -15.75 11.8 -14.4 11.4 -13.95 11.55 -13.45 11.95 -13.45 12.5 -13.6 12.75 -15.5 13.2" fill="#595959" fill-rule="evenodd" stroke="none"/>
      <path d="M12.0 15.25 L2.5 17.55 2.2 17.15 10.6 15.25 10.75 15.25 12.0 15.25 M-5.7 18.3 L-13.85 19.6 -14.6 19.2 -7.05 18.05 -6.75 18.0 -6.75 17.9 -5.7 18.3 M-15.9 15.45 Q-15.65 14.75 -15.55 13.9 L-14.7 13.75 -14.55 13.75 -14.2 13.9 Q-13.7 14.2 -13.75 14.6 L-14.15 15.2 -14.25 15.25 -14.35 15.25 -15.95 15.65 -15.9 15.45" fill="#3c3c3c" fill-rule="evenodd" stroke="none"/>
      <path d="M16.45 8.5 L12.0 15.25 10.75 15.25 10.75 15.2 10.85 15.1 10.9 14.95 11.75 13.45 13.15 11.25 14.45 9.25 15.0 8.5 16.45 8.5 M-9.4 8.5 L-9.25 8.65 -9.15 8.8 -9.1 9.1 -9.1 9.55 -9.2 9.6 -9.2 9.55 -9.2 9.5 -9.2 9.4 -9.2 9.35 -9.2 9.2 -9.2 9.15 -9.4 8.8 -9.5 8.75 Q-9.6 8.65 -9.65 8.65 L-9.7 8.55 -9.75 8.55 -9.55 8.5 -9.5 8.45 -9.4 8.5 M-8.05 11.8 L-8.05 11.25 -8.15 10.8 -8.15 10.75 -8.15 10.65 -8.15 10.6 -8.25 10.55 -8.25 10.5 -8.3 10.5 -8.3 10.45 -8.35 10.45 -8.35 10.4 -8.4 10.4 -8.45 10.35 -8.45 10.3 -8.25 10.3 -8.25 10.35 -8.2 10.4 -8.2 10.45 -8.1 10.55 -8.0 10.85 -7.85 11.15 -7.95 11.75 -8.05 11.8 M-12.75 13.4 L-10.85 12.95 Q-10.45 12.9 -10.3 13.45 L-10.3 13.75 -10.3 13.95 -10.5 14.1 -10.7 14.15 -13.15 14.75 -13.2 14.75 -13.05 14.55 -13.05 14.35 -12.8 13.5 -12.75 13.4" fill="#444444" fill-rule="evenodd" stroke="none"/>
      <path d="M-6.5 8.15 L-6.5 8.25 -6.4 8.25 -6.35 8.3 -6.35 8.4 -6.25 8.65 -6.25 8.95 -6.2 9.0 -6.3 9.05 -6.2 9.2 -6.35 9.2 -6.45 9.2 -6.55 9.25 -6.55 9.35 -6.5 9.5 -6.5 9.6 -6.35 9.65 -6.25 9.65 -6.1 9.7 -6.05 9.55 -6.0 9.5 -5.65 9.9 -5.65 9.95 -5.85 10.05 -6.55 10.1 -6.75 10.15 -6.95 10.15 -8.2 10.35 -8.25 10.35 -8.25 10.3 -8.45 10.3 -8.45 10.35 -8.4 10.4 -8.35 10.4 -8.35 10.45 -8.3 10.45 -8.3 10.5 -8.25 10.5 -8.25 10.55 -8.15 10.6 -8.15 10.65 -8.15 10.75 -8.15 10.8 -8.05 11.25 -8.05 11.8 -9.3 12.0 -9.35 11.45 -9.35 11.35 Q-9.35 10.7 -9.5 10.55 L-9.55 10.5 -9.1 10.45 -8.75 10.4 -8.6 10.3 -8.85 9.9 -9.1 9.55 -9.0 9.55 -9.0 9.5 -9.05 9.5 -9.15 8.8 -9.25 8.65 -9.4 8.5 -9.45 8.45 -9.05 8.4 -6.9 8.0 Q-6.65 8.0 -6.5 8.15 M-9.5 8.75 L-9.4 8.8 -9.2 9.15 -9.2 9.2 -9.2 9.35 -9.2 9.4 -9.2 9.5 -9.2 9.55 -9.25 9.6 -9.85 9.8 -9.9 9.75 -10.85 8.9 -9.7 8.65 -9.5 8.75 M-7.55 9.95 L-7.5 9.9 -7.45 9.75 -7.45 9.6 -7.55 9.6 -7.7 9.55 -7.85 9.55 -7.9 9.6 -8.0 9.65 -8.05 9.75 -8.0 9.85 -7.95 9.95 -7.85 10.05 -7.75 10.05 -7.6 10.05 -7.55 9.95 M-8.25 10.0 L-8.15 9.9 -8.2 9.75 -8.25 9.65 -8.4 9.6 -8.55 9.65 -8.65 9.7 -8.75 9.75 -8.8 9.8 -8.7 9.9 -8.65 10.05 -8.55 10.1 -8.5 10.15 -8.35 10.15 -8.25 10.05 -8.25 10.0 M-5.1 11.0 L-5.1 10.9 -5.0 10.65 -5.05 10.45 -5.15 10.2 -5.3 9.95 -5.35 9.9 -5.1 9.8 -5.0 9.85 -5.0 9.9 -4.85 10.25 -4.75 10.7 -4.7 10.9 -5.1 11.0 M-13.55 9.3 L-11.7 8.85 Q-11.25 8.8 -11.15 9.25 L-11.05 9.75 -13.35 10.2 -13.45 10.25 -13.75 9.75 -14.05 9.35 -13.55 9.3 M-6.75 9.75 L-6.7 9.6 -6.7 9.5 -6.75 9.4 -6.9 9.35 -7.1 9.4 -7.15 9.4 -7.25 9.45 -7.3 9.6 -7.25 9.7 -7.15 9.75 -7.05 9.85 -7.0 9.9 -6.9 9.9 -6.85 9.85 -6.75 9.75" fill="#666666" fill-rule="evenodd" stroke="none"/>
      <path d="M-13.05 10.85 L-12.1 10.65 -11.8 10.75 Q-11.55 10.85 -11.5 11.0 L-12.85 11.25 -12.8 11.2 -12.75 11.2 -12.8 11.15 -12.85 11.1 -12.85 11.0 -12.9 11.0 -12.95 11.05 -13.05 10.85" fill="#777777" fill-rule="evenodd" stroke="none"/>
      <path d="M-6.0 9.5 L-6.05 9.55 -6.25 9.5 -6.35 9.35 -6.45 9.2 -6.35 9.2 -6.2 9.2 -6.05 9.2 -6.0 9.25 -5.95 9.4 -6.0 9.5 M-7.9 9.6 L-7.85 9.55 -7.7 9.55 -7.55 9.6 -7.45 9.6 -7.45 9.75 -7.5 9.9 -7.55 9.95 -7.55 9.9 -7.7 9.85 -7.85 9.75 -7.9 9.6 M-8.65 9.7 L-8.55 9.65 -8.4 9.6 -8.25 9.65 -8.2 9.75 -8.15 9.9 -8.25 10.0 -8.45 9.95 -8.6 9.85 -8.65 9.7 M-7.15 9.4 L-7.1 9.4 -6.9 9.35 -6.75 9.4 -6.7 9.5 -6.7 9.6 -6.75 9.75 -6.9 9.75 -7.0 9.7 -7.1 9.55 -7.15 9.4" fill="#808080" fill-rule="evenodd" stroke="none"/>
      <path d="M-9.1 9.55 L-8.85 9.9 -8.6 10.3 -8.75 10.4 -9.1 10.45 -9.2 10.05 -9.3 10.05 -9.7 10.15 -9.8 9.9 -9.85 9.8 -9.25 9.6 -9.2 9.6 -9.1 9.55 M-9.3 12.0 L-8.05 11.8 -7.95 11.75 -7.75 11.8 -6.55 11.5 -6.55 11.65 -6.9 11.75 -9.35 12.45 -9.3 12.1 -9.3 12.05 -9.3 12.0 M-6.05 9.55 L-6.1 9.7 -6.25 9.65 -6.35 9.65 -6.5 9.6 -6.5 9.5 -6.55 9.35 -6.55 9.25 -6.45 9.2 -6.35 9.35 -6.25 9.5 -6.05 9.55 M-7.9 9.6 L-7.85 9.75 -7.7 9.85 -7.55 9.9 -7.55 9.95 -7.6 10.05 -7.75 10.05 -7.85 10.05 -7.95 9.95 -8.0 9.85 -8.05 9.75 -8.0 9.65 -7.9 9.6 M-8.65 9.7 L-8.6 9.85 -8.45 9.95 -8.25 10.0 -8.25 10.05 -8.35 10.15 -8.5 10.15 -8.55 10.1 -8.65 10.05 -8.7 9.9 -8.8 9.8 -8.75 9.75 -8.65 9.7 M-7.15 9.4 L-7.1 9.55 -7.0 9.7 -6.9 9.75 -6.75 9.75 -6.85 9.85 -6.9 9.9 -7.0 9.9 -7.05 9.85 -7.15 9.75 -7.25 9.7 -7.3 9.6 -7.25 9.45 -7.15 9.4" fill="#0d0d0d" fill-rule="evenodd" stroke="none"/>
      <path d="M-9.45 13.1 L-9.35 12.75 -5.3 11.8 -5.1 11.8 -4.7 11.95 Q-4.3 12.25 -4.7 12.75 L-4.9 13.05 -6.75 13.45 -7.65 13.65 -9.75 14.05 -9.45 13.1" fill="#373737" fill-rule="evenodd" stroke="none"/>
      <path d="M-9.1 10.45 L-9.55 10.5 -9.7 10.15 -9.3 10.05 -9.2 10.05 -9.1 10.45" fill="#484848" fill-rule="evenodd" stroke="none"/>
      <path d="M-6.2 9.0 L-6.25 8.95 -6.25 8.65 -6.35 8.4 -6.35 8.3 -6.4 8.25 -6.5 8.25 -6.5 8.15 -6.5 8.1 -6.4 8.1 -6.3 8.1 -6.15 8.1 -5.95 8.3 -5.85 8.4 -5.8 8.5 -5.8 8.55 -5.75 8.6 -5.75 8.65 -5.75 8.8 -5.75 8.95 -5.8 8.95 -5.8 9.05 -6.2 9.0" fill="#7b7b7b" fill-rule="evenodd" stroke="none"/>
      <path d="M-5.75 8.95 L-5.75 8.8 -5.75 8.65 -5.75 8.6 -5.8 8.55 -5.8 8.5 -5.85 8.4 -5.95 8.3 -6.15 8.1 -6.3 8.1 -6.2 7.95 -6.1 7.95 -5.8 8.0 -5.65 8.2 -5.6 8.25 -5.55 8.4 -5.55 8.5 -5.6 8.8 -5.6 8.95 -5.6 9.05 -5.75 9.05 -5.75 8.95" fill="#6a6a6a" fill-rule="evenodd" stroke="none"/>
      <path d="M-5.6 8.95 L-5.6 8.8 -5.55 8.5 -5.55 8.4 -5.6 8.25 -5.8 8.0 -6.1 7.95 -6.05 7.95 -5.8 7.9 -5.65 8.0 -5.4 8.1 Q-5.05 8.4 -5.1 8.9 L-5.55 8.95 -5.6 8.95" fill="#262626" fill-rule="evenodd" stroke="none"/>
      <path d="M9.25 -11.3 L10.85 -11.3 16.45 -3.85 15.0 -3.3 15.0 -3.35 Q11.3 -8.25 9.25 -11.3 M-5.0 9.85 L-5.0 9.75 -4.75 9.75 -4.7 9.8 -4.55 10.05 -4.45 10.25 -4.45 10.35 -4.45 10.85 -4.6 10.95 -4.7 10.95 -4.7 10.9 -4.75 10.7 -4.85 10.25 -5.0 9.9 -5.0 9.85" fill="#959595" fill-rule="evenodd" stroke="none"/>
      <path d="M-4.75 9.75 L-4.65 9.6 Q-4.05 9.75 -4.05 10.4 L-4.15 11.0 -4.45 10.85 -4.45 10.35 -4.45 10.25 -4.55 10.05 -4.7 9.8 -4.75 9.75" fill="#404040" fill-rule="evenodd" stroke="none"/>
      <path d="M-4.3 7.45 L-4.3 7.4 -3.6 7.15 -2.6 6.95 -1.9 7.1 -1.55 7.2 -1.6 7.2 -3.95 7.55 -3.95 7.6 -4.3 7.45 M-0.85 8.55 L-0.85 8.6 -0.75 9.05 -2.65 9.35 -2.75 9.2 -2.9 8.85 -0.85 8.55 M-0.6 10.05 L-0.55 10.1 -0.6 10.1 -0.6 10.05 M-0.6 10.15 L-0.55 10.7 -0.7 11.65 -0.6 10.85 -2.5 11.2 -2.5 10.85 -2.5 10.6 -0.6 10.15 M-0.9 12.2 L-1.3 12.65 -2.0 13.3 -2.25 13.3 -3.05 13.15 -3.25 13.0 -3.2 12.9 -3.1 12.8 -2.95 12.65 -2.0 12.45 -0.9 12.2" fill="#1a1a1a" fill-rule="evenodd" stroke="none"/>
      <path d="M-5.95 3.85 L2.15 2.25 2.1 15.35 -6.75 16.65 -6.9 13.5 -6.75 13.45 -6.35 13.65 -5.9 13.85 -5.15 13.75 -5.0 13.75 -4.3 13.6 -4.15 13.6 -4.05 13.55 -3.6 13.35 -3.5 13.35 -3.25 13.0 -3.05 13.15 -2.25 13.3 -2.0 13.3 -1.3 12.65 -0.9 12.2 -0.85 12.2 -0.75 11.8 -0.7 11.75 -0.7 11.65 -0.55 10.7 -0.6 10.15 -0.6 10.1 -0.55 10.1 -0.6 10.05 -0.65 9.2 -0.7 9.0 -0.75 9.05 -0.85 8.6 -0.85 8.55 -1.0 8.25 -0.85 8.25 -1.35 7.35 -1.5 7.2 -1.55 7.2 -1.9 7.1 -2.6 6.95 -3.6 7.15 -4.3 7.4 -4.3 7.45 -4.35 7.4 -4.45 7.35 -4.7 7.3 -6.0 7.5 -6.15 7.55 -6.2 7.55 -6.25 7.55 -6.9 7.6 -6.9 3.85 -5.95 3.85" fill="#848484" fill-rule="evenodd" stroke="none"/>
      <path d="M16.45 -3.85 L16.45 8.5 15.0 8.5 15.0 8.45 15.0 8.25 14.95 6.15 15.0 2.15 15.0 -3.3 16.45 -3.85 M-5.7 17.0 L-5.7 18.3 -6.75 17.9 -6.75 16.65 -5.7 17.0 M-6.9 -9.5 L-5.95 -9.5 -5.95 3.85 -6.9 3.85 -6.9 -9.5" fill="#626262" fill-rule="evenodd" stroke="none"/>
      <path d="M2.3 14.85 L15.1 8.25 16.45 8.5 12.25 14.8 Q11.4 16.0 8.25 16.55 L3.0 17.25 2.25 17.25 Q2.45 16.8 2.25 16.4 L1.2 16.4 -2.45 16.85 -6.15 17.15 -6.15 17.2 -6.15 17.25 Q-5.65 17.25 -5.1 18.4 L-13.75 19.25 -14.05 19.25 -14.45 19.2 -14.95 19.2 Q-15.0 18.15 -15.6 17.5 L-16.7 16.05 -16.6 15.95 -15.85 15.55 -14.55 16.05 Q-14.0 16.05 -13.35 15.35 -12.7 14.6 -12.2 14.6 -11.9 14.6 -11.65 14.85 L-10.95 15.1 Q-10.3 15.1 -10.0 14.5 -9.7 13.9 -9.05 13.7 L-8.1 14.95 2.3 14.85 M-18.5 8.65 L-18.7 3.3 Q-18.7 0.8 -15.65 -2.75 L-16.3 4.65 -12.95 8.9 Q-13.8 8.75 -14.15 8.4 L-15.05 8.2 Q-15.65 8.2 -16.25 8.6 L-17.15 8.95 -17.75 8.8 -18.5 8.65" fill="#000000" fill-opacity="0.101960786" fill-rule="evenodd" stroke="none"/>
    </g>
  </defs>
</svg>
