<?xml version="1.0" encoding="UTF-8" standalone="no"?>
<svg xmlns:xlink="http://www.w3.org/1999/xlink" height="32.9px" width="37.25px" xmlns="http://www.w3.org/2000/svg">
  <g transform="matrix(1.0, 0.0, 0.0, 1.0, 0.0, 0.0)">
    <use height="32.9" transform="matrix(1.0, 0.0, 0.0, 1.0, 0.0, 0.0)" width="37.25" xlink:href="#shape0"/>
  </g>
  <defs>
    <g id="shape0" transform="matrix(1.0, 0.0, 0.0, 1.0, 0.0, 0.0)">
      <path d="M29.65 30.35 L29.65 30.0 29.9 27.95 30.1 28.05 32.75 31.2 33.35 30.3 33.85 29.4 33.05 28.3 33.1 28.15 33.15 28.15 34.35 27.45 33.25 26.65 33.45 26.65 32.25 25.7 34.15 25.2 34.15 25.1 33.0 25.2 32.85 25.3 36.5 20.3 33.9 21.15 Q31.85 21.75 31.4 22.25 L33.65 18.35 31.2 18.35 31.4 18.25 32.9 17.8 34.8 17.35 30.5 12.55 30.6 12.55 Q34.0 14.25 34.7 14.4 L34.5 14.0 35.1 13.6 34.25 12.95 34.7 12.55 34.1 12.35 33.95 12.25 35.9 11.65 34.45 11.1 32.65 9.9 32.75 9.7 34.05 9.5 Q33.8 9.15 32.6 8.7 L30.7 8.2 Q31.35 7.75 34.15 6.15 L31.7 5.1 Q35.5 3.0 35.5 2.3 L35.0 1.35 Q33.8 2.05 33.45 2.45 L32.55 1.15 31.85 1.85 31.65 1.55 Q31.6 1.35 31.35 1.35 L30.85 1.55 30.5 1.75 30.3 1.45 29.3 2.35 29.15 2.25 Q28.95 1.5 28.55 1.15 L27.3 1.8 25.8 2.9 Q25.8 2.45 25.1 1.75 L24.1 3.0 23.05 1.35 Q23.05 2.05 22.0 3.9 L20.8 6.15 20.7 6.05 20.3 4.0 19.7 2.15 19.1 2.8 18.45 1.75 Q18.1 1.8 17.7 2.3 L17.35 3.0 17.25 2.9 16.55 1.55 Q16.15 1.75 15.8 2.7 15.5 3.55 15.5 4.1 14.45 1.7 14.2 1.55 L13.8 2.15 13.7 2.05 13.35 1.45 12.95 1.95 12.45 1.35 11.85 2.25 11.75 2.15 11.15 0.85 10.8 0.95 9.6 3.5 9.5 3.4 8.9 2.05 8.7 3.2 8.6 3.1 7.75 1.6 6.85 0.25 6.75 0.45 6.15 2.05 6.05 2.05 4.9 0.75 4.5 1.25 4.4 1.15 4.1 0.75 3.2 1.55 2.75 1.05 2.55 1.4 2.6 1.5 2.65 2.25 2.45 3.3 2.05 3.45 1.55 4.0 3.7 5.3 3.5 5.45 Q1.6 5.45 1.35 5.95 L5.7 7.95 Q4.95 8.5 4.05 9.6 3.1 10.55 1.45 10.65 L1.55 10.75 Q2.9 11.85 3.45 13.35 3.95 14.7 5.95 16.05 L2.9 16.3 Q2.55 16.4 2.55 16.95 2.55 17.5 3.7 18.15 L3.15 18.35 2.75 18.55 0.0 17.35 0.0 0.0 37.25 0.0 37.25 32.9 35.45 32.9 29.65 30.35 M1.7 27.45 Q1.25 27.8 1.2 28.3 L1.05 30.4 3.3 29.3 3.2 29.8 3.4 29.7 4.45 28.6 6.4 29.45 8.1 30.15 14.6 32.9 0.0 32.9 0.0 26.7 1.7 27.45 M25.4 28.5 L26.05 27.65 26.1 27.35 26.1 27.55 26.05 27.65 25.9 28.7 25.4 28.5" fill="#999999" fill-opacity="0.5137255" fill-rule="evenodd" stroke="none"/>
      <path d="M29.65 30.35 L35.45 32.9 14.6 32.9 8.1 30.15 8.5 29.8 Q9.45 28.95 9.6 28.15 L9.7 28.25 10.1 29.4 10.6 28.9 11.05 29.35 11.15 30.2 11.35 30.2 13.05 26.85 13.05 26.95 13.6 29.05 14.3 31.3 14.6 31.3 15.1 30.85 15.6 30.3 16.1 31.2 17.25 29.2 17.35 29.4 18.25 31.2 19.0 30.35 18.9 29.8 18.9 29.7 19.0 30.35 19.1 30.8 19.2 30.7 19.3 29.9 20.0 29.8 Q19.7 28.75 19.7 28.15 L22.25 31.55 22.35 31.0 Q23.1 31.0 24.6 29.35 L25.4 28.5 25.9 28.7 25.8 31.55 27.25 30.2 27.25 30.8 27.35 29.4 28.55 31.25 29.15 32.15 29.65 30.35 M0.0 17.35 L2.75 18.55 2.55 18.7 4.6 20.4 3.7 20.65 3.05 20.9 Q4.3 22.65 4.8 22.75 L4.8 22.85 3.65 22.65 Q2.85 22.6 2.55 23.35 L3.2 23.6 4.0 24.1 3.9 24.1 2.2 24.75 0.3 25.5 0.4 25.6 1.85 26.1 3.7 26.55 3.7 26.65 Q2.3 26.9 1.7 27.45 L0.0 26.7 0.0 17.35 M4.45 28.6 L5.4 27.45 5.6 27.55 5.85 28.05 6.05 28.75 6.05 28.65 6.25 28.55 6.4 29.45 4.45 28.6" fill="#ffffff" fill-opacity="0.5137255" fill-rule="evenodd" stroke="none"/>
    </g>
  </defs>
</svg>
