<?xml version="1.0" encoding="UTF-8" standalone="no"?>
<svg xmlns:xlink="http://www.w3.org/1999/xlink" height="41.9px" width="48.5px" xmlns="http://www.w3.org/2000/svg">
  <g transform="matrix(1.0, 0.0, 0.0, 1.0, 24.25, 20.95)">
    <use height="41.9" transform="matrix(1.0, 0.0, 0.0, 1.0, -24.25, -20.95)" width="48.5" xlink:href="#shape0"/>
  </g>
  <defs>
    <g id="shape0" transform="matrix(1.0, 0.0, 0.0, 1.0, 24.25, 20.95)">
      <path d="M20.9 -5.45 L19.9 -3.45 19.65 -1.7 Q19.75 -1.4 21.65 -1.2 L22.15 -1.2 24.15 0.05 24.25 0.05 24.25 20.05 Q23.7 20.95 23.15 20.95 L19.6 20.15 17.85 19.7 17.65 19.7 15.5 19.15 9.4 18.55 5.5 18.45 4.55 18.35 2.85 18.2 2.75 18.2 1.95 18.2 Q-1.1 17.9 -4.1 17.0 L-9.0 16.1 -11.7 16.0 -12.7 15.95 -14.15 15.55 -17.8 14.65 -21.5 13.9 -24.25 13.45 -24.05 -12.0 -23.55 -12.15 -23.55 -12.45 -23.55 -12.6 -21.6 -12.45 -21.35 -12.45 -19.35 -15.2 -18.1 -19.45 -18.1 -20.95 Q2.0 -17.55 21.4 -15.2 L23.65 -15.2 Q22.15 -13.1 21.9 -9.7 L21.4 -8.95 20.9 -5.45 M17.65 19.5 L17.95 19.6 17.95 19.5 17.65 19.5" fill="#ffffff" fill-opacity="0.4117647" fill-rule="evenodd" stroke="none"/>
    </g>
  </defs>
</svg>
