<?xml version="1.0" encoding="UTF-8" standalone="no"?>
<svg xmlns:xlink="http://www.w3.org/1999/xlink" height="71.2px" width="1.8px" xmlns="http://www.w3.org/2000/svg">
  <g transform="matrix(1.0, 0.0, 0.0, 1.0, 0.9, 40.1)">
    <use height="71.2" transform="matrix(1.0, 0.0, 0.0, 1.0, -0.9, -40.1)" width="1.8" xlink:href="#shape0"/>
  </g>
  <defs>
    <g id="shape0" transform="matrix(1.0, 0.0, 0.0, 1.0, 0.9, 40.1)">
      <path d="M0.9 -29.4 L0.9 -24.6 0.0 -22.9 -0.9 -24.75 -0.9 -29.25 0.0 -31.1 0.9 -29.4 M0.9 -11.4 L0.9 -6.6 0.0 -4.9 -0.9 -6.75 -0.9 -11.25 0.0 -13.1 0.9 -11.4 M0.9 -2.4 L0.9 2.4 0.0 4.1 -0.9 2.25 -0.9 -2.25 0.0 -4.1 0.9 -2.4 M0.9 -15.6 L0.0 -13.9 -0.9 -15.75 -0.9 -20.25 0.0 -22.1 0.9 -20.4 0.9 -15.6 M0.0 22.1 L-0.9 20.25 -0.9 15.75 0.0 13.9 0.9 15.6 0.9 20.4 0.0 22.1 M0.0 13.1 L-0.9 11.25 -0.9 6.75 0.0 4.9 0.9 6.6 0.9 11.4 0.0 13.1 M0.9 24.6 L0.9 29.4 0.0 31.1 -0.9 29.25 -0.9 24.75 0.0 22.9 0.9 24.6" fill="#000000" fill-rule="evenodd" stroke="none"/>
      <path d="M0.9 -33.6 L0.0 -31.9 -0.9 -33.75 -0.9 -38.25 0.0 -40.1 0.9 -38.4 0.9 -33.6" fill="#000000" fill-rule="evenodd" stroke="none"/>
    </g>
  </defs>
</svg>
