<?xml version="1.0" encoding="UTF-8" standalone="no"?>
<svg xmlns:xlink="http://www.w3.org/1999/xlink" height="444.1px" width="1462.5px" xmlns="http://www.w3.org/2000/svg">
  <g transform="matrix(1.0, 0.0, 0.0, 1.0, 798.35, 0.0)">
    <use height="281.3" transform="matrix(1.0, 0.0, 0.0, 1.0, -726.7, 149.4)" width="1236.95" xlink:href="#sprite0"/>
    <use height="281.3" transform="matrix(1.0, 0.0, 0.0, 1.0, -741.7, 149.4)" width="1236.95" xlink:href="#sprite0"/>
    <use height="281.3" transform="matrix(1.0, 0.0, 0.0, 1.0, -756.7, 149.4)" width="1236.95" xlink:href="#sprite0"/>
    <use height="285.4" transform="matrix(1.0, 0.0, 0.0, 1.0, -726.7, 149.4)" width="1236.95" xlink:href="#sprite1"/>
    <use height="285.4" transform="matrix(1.0, 0.0, 0.0, 1.0, -741.7, 149.4)" width="1236.95" xlink:href="#sprite1"/>
    <use height="285.4" transform="matrix(1.0, 0.0, 0.0, 1.0, -756.7, 149.4)" width="1236.95" xlink:href="#sprite1"/>
    <use height="281.3" transform="matrix(1.0, 0.0, 0.0, 1.0, -768.35, 149.4)" width="1276.45" xlink:href="#sprite2"/>
    <use height="281.3" transform="matrix(1.0, 0.0, 0.0, 1.0, -783.35, 149.4)" width="1276.45" xlink:href="#sprite2"/>
    <use height="281.3" transform="matrix(1.0, 0.0, 0.0, 1.0, -798.35, 149.4)" width="1276.45" xlink:href="#sprite2"/>
    <use height="281.3" transform="matrix(1.0, 0.0, 0.0, 1.0, -726.7, 149.4)" width="1236.95" xlink:href="#sprite3"/>
    <use height="281.3" transform="matrix(1.0, 0.0, 0.0, 1.0, -741.7, 149.4)" width="1236.95" xlink:href="#sprite3"/>
    <use height="281.3" transform="matrix(1.0, 0.0, 0.0, 1.0, -756.7, 149.4)" width="1236.95" xlink:href="#sprite3"/>
  </g>
  <defs>
    <g id="sprite0" transform="matrix(1.0, 0.0, 0.0, 1.0, 799.95, 44.9)">
      <use height="215.05" transform="matrix(1.0, 0.0, 0.0, 1.0, 0.0, 0.0)" width="10.0" xlink:href="#shape0"/>
    </g>
    <g id="shape0" transform="matrix(1.0, 0.0, 0.0, 1.0, 0.0, 0.0)">
      <path d="M10.0 0.0 L10.0 215.05 0.0 215.05 0.0 0.0 10.0 0.0" fill="#010101" fill-opacity="0.0" fill-rule="evenodd" stroke="none"/>
    </g>
    <g id="sprite1" transform="matrix(1.0, 0.0, 0.0, 1.0, 799.95, 44.9)">
      <use height="215.05" transform="matrix(1.0, 0.0, 0.0, 1.0, 0.0, 0.0)" width="10.0" xlink:href="#shape0"/>
    </g>
    <g id="sprite2" transform="matrix(1.0, 0.0, 0.0, 1.0, 841.6, 44.9)">
      <use height="215.05" transform="matrix(1.0, 0.0, 0.0, 1.0, 0.0, 0.0)" width="10.0" xlink:href="#shape0"/>
    </g>
    <g id="sprite3" transform="matrix(1.0, 0.0, 0.0, 1.0, 799.95, 44.9)">
      <use height="215.05" transform="matrix(1.0, 0.0, 0.0, 1.0, 0.0, 0.0)" width="10.0" xlink:href="#shape0"/>
    </g>
  </defs>
</svg>
