<?xml version="1.0" encoding="UTF-8" standalone="no"?>
<svg xmlns:xlink="http://www.w3.org/1999/xlink" height="17.0px" width="165.0px" xmlns="http://www.w3.org/2000/svg">
  <g transform="matrix(1.0, 0.0, 0.0, 1.0, -2.0, -7.0)">
    <use height="17.0" transform="matrix(1.0, 0.0, 0.0, 1.0, 2.0, 7.0)" width="165.0" xlink:href="#text0"/>
  </g>
  <defs>
    <g id="text0" transform="matrix(1.0, 0.0, 0.0, 1.0, 0.0, -5.0)">
      <g transform="matrix(1.0, 0.0, 0.0, 1.0, 0.0, 0.0)">
        <use fill="#ffffff" height="17.0" transform="matrix(0.0293, 0.0, 0.0, 0.0293, 0.0, 21.0)" width="165.0" xlink:href="#font_Visitor_TT1_BRK_t0"/>
        <use fill="#ffffff" height="17.0" transform="matrix(0.0293, 0.0, 0.0, 0.0293, 18.0, 21.0)" width="165.0" xlink:href="#font_Visitor_TT1_BRK_40"/>
        <use fill="#ffffff" height="17.0" transform="matrix(0.0293, 0.0, 0.0, 0.0293, 36.0, 21.0)" width="165.0" xlink:href="#font_Visitor_TT1_BRK_50"/>
        <use fill="#ffffff" height="17.0" transform="matrix(0.0293, 0.0, 0.0, 0.0293, 54.0, 21.0)" width="165.0" xlink:href="#font_Visitor_TT1_BRK_o0"/>
        <use fill="#ffffff" height="17.0" transform="matrix(0.0293, 0.0, 0.0, 0.0293, 72.0, 21.0)" width="165.0" xlink:href="#font_Visitor_TT1_BRK_l0"/>
        <use fill="#ffffff" height="17.0" transform="matrix(0.0293, 0.0, 0.0, 0.0293, 90.0, 21.0)" width="165.0" xlink:href="#font_Visitor_TT1_BRK_.0"/>
        <use fill="#ffffff" height="17.0" transform="matrix(0.0293, 0.0, 0.0, 0.0293, 96.0, 21.0)" width="165.0" xlink:href="#font_Visitor_TT1_BRK_c0"/>
        <use fill="#ffffff" height="17.0" transform="matrix(0.0293, 0.0, 0.0, 0.0293, 114.0, 21.0)" width="165.0" xlink:href="#font_Visitor_TT1_BRK_o0"/>
        <use fill="#ffffff" height="17.0" transform="matrix(0.0293, 0.0, 0.0, 0.0293, 132.0, 21.0)" width="165.0" xlink:href="#font_Visitor_TT1_BRK_m0"/>
      </g>
    </g>
    <g id="font_Visitor_TT1_BRK_t0">
      <path d="M0.0 -409.5 L0.0 -512.0 512.0 -512.0 512.0 -409.5 307.0 -409.5 307.0 0.0 205.0 0.0 205.0 -409.5 0.0 -409.5" fill-rule="evenodd" stroke="none"/>
    </g>
    <g id="font_Visitor_TT1_BRK_40">
      <path d="M0.0 -205.0 L0.0 -512.0 102.5 -512.0 102.5 -307.0 409.5 -307.0 409.5 -512.0 512.0 -512.0 512.0 0.0 409.5 0.0 409.5 -205.0 0.0 -205.0" fill-rule="evenodd" stroke="none"/>
    </g>
    <g id="font_Visitor_TT1_BRK_50">
      <path d="M0.0 -512.0 L512.0 -512.0 512.0 -409.5 102.5 -409.5 102.5 -307.0 512.0 -307.0 512.0 0.0 0.0 0.0 0.0 -102.5 409.5 -102.5 409.5 -205.0 0.0 -205.0 0.0 -512.0" fill-rule="evenodd" stroke="none"/>
    </g>
    <g id="font_Visitor_TT1_BRK_o0">
      <path d="M102.5 -409.5 L102.5 -102.5 409.5 -102.5 409.5 -409.5 102.5 -409.5 M0.0 0.0 L0.0 -512.0 512.0 -512.0 512.0 0.0 0.0 0.0" fill-rule="evenodd" stroke="none"/>
    </g>
    <g id="font_Visitor_TT1_BRK_l0">
      <path d="M0.0 0.0 L0.0 -512.0 102.5 -512.0 102.5 -102.5 512.0 -102.5 512.0 0.0 0.0 0.0" fill-rule="evenodd" stroke="none"/>
    </g>
    <g id="font_Visitor_TT1_BRK_.0">
      <path d="M0.0 0.0 L0.0 -102.5 102.5 -102.5 102.5 0.0 0.0 0.0" fill-rule="evenodd" stroke="none"/>
    </g>
    <g id="font_Visitor_TT1_BRK_c0">
      <path d="M0.0 0.0 L0.0 -512.0 512.0 -512.0 512.0 -409.5 102.5 -409.5 102.5 -102.5 512.0 -102.5 512.0 0.0 0.0 0.0" fill-rule="evenodd" stroke="none"/>
    </g>
    <g id="font_Visitor_TT1_BRK_m0">
      <path d="M205.0 0.0 L205.0 -409.5 102.5 -409.5 102.5 0.0 0.0 0.0 0.0 -512.0 512.0 -512.0 512.0 0.0 409.5 0.0 409.5 -409.5 307.5 -409.5 307.5 0.0 205.0 0.0" fill-rule="evenodd" stroke="none"/>
    </g>
  </defs>
</svg>
