<?xml version="1.0" encoding="UTF-8" standalone="no"?>
<svg xmlns:xlink="http://www.w3.org/1999/xlink" height="59.45px" width="39.85px" xmlns="http://www.w3.org/2000/svg">
  <g transform="matrix(1.0, 0.0, 0.0, 1.0, 0.8, -34.9)">
    <use height="59.4" transform="matrix(1.0, 0.0, 0.0, 1.0, 0.75, 34.95)" width="37.45" xlink:href="#shape0"/>
  </g>
  <defs>
    <g id="shape0" transform="matrix(1.0, 0.0, 0.0, 1.0, -0.75, -34.95)">
      <path d="M33.95 43.55 Q38.7 46.65 38.05 51.55 36.85 56.2 32.4 59.05 L30.05 59.95 29.75 59.9 28.5 59.6 Q27.35 59.1 27.15 58.4 L26.8 57.4 Q26.05 58.45 23.75 59.1 L20.75 59.75 20.3 59.8 20.1 59.85 Q11.95 60.5 10.2 53.8 10.25 57.0 12.7 59.35 11.35 59.15 9.5 57.55 7.5 55.8 6.3 55.8 L6.2 55.8 Q5.15 55.9 3.35 57.55 L3.3 57.35 3.25 57.15 3.2 57.0 2.85 55.85 Q4.35 54.1 6.2 52.7 L9.05 50.75 10.05 50.2 10.35 50.05 Q15.25 48.65 20.7 49.8 L21.2 49.9 22.45 50.8 24.0 52.45 Q25.05 53.7 25.4 54.95 25.55 55.45 26.45 55.45 27.7 55.45 28.5 54.4 29.65 52.85 30.25 52.45 L32.0 50.7 32.6 48.95 33.25 48.3 Q33.7 44.85 32.45 42.65 L33.95 43.55" fill="#9d9d9d" fill-opacity="0.93333334" fill-rule="evenodd" stroke="none"/>
      <path d="M19.6 38.0 L18.2 36.2 10.45 36.65 18.3 37.0 19.6 38.0 M2.85 55.85 Q0.8 50.8 0.75 45.05 1.0 39.65 8.4 36.2 L11.4 34.95 21.35 34.95 21.35 35.0 28.85 36.9 Q32.85 38.05 33.95 43.55 L32.45 42.65 Q33.7 44.85 33.25 48.3 L32.6 48.95 Q31.0 50.3 28.2 51.3 L27.65 49.5 Q25.4 45.35 23.55 44.85 25.2 46.0 26.35 50.45 L25.2 51.05 21.8 50.05 21.2 49.9 20.7 49.8 Q15.25 48.65 10.35 50.05 L10.05 50.2 9.45 47.85 9.05 50.75 6.2 52.7 Q4.35 54.1 2.85 55.85 M32.4 59.05 Q31.5 62.55 31.05 66.0 L31.0 66.4 Q30.65 68.95 30.55 71.5 30.35 75.85 30.8 80.2 L33.55 89.75 Q32.9 89.8 31.55 91.35 30.0 93.1 29.3 94.35 L15.8 94.35 Q12.2 90.95 8.55 90.95 L8.35 91.0 8.2 91.0 Q5.75 90.95 5.45 91.75 L5.55 91.1 5.7 90.7 5.8 90.1 5.8 90.05 Q6.95 85.45 6.75 79.45 6.45 69.05 3.35 57.55 5.15 55.9 6.2 55.8 L6.3 55.8 Q7.5 55.8 9.5 57.55 11.35 59.15 12.7 59.35 L12.85 59.5 13.15 59.75 Q16.85 60.9 20.75 59.75 L23.75 59.1 Q26.05 58.45 26.8 57.4 L27.15 58.4 Q27.35 59.1 28.5 59.6 L29.75 59.9 29.8 60.05 30.05 59.95 32.4 59.05 M33.75 90.7 L34.15 91.85 34.1 91.85 34.5 93.25 35.15 94.1 35.35 94.35 30.5 94.35 Q31.1 93.3 32.0 92.3 L33.2 91.0 33.75 90.7 M14.35 94.35 L4.35 94.35 4.85 93.15 5.3 92.25 5.45 92.25 5.45 92.3 6.0 92.0 Q6.5 91.65 7.85 91.65 11.2 91.65 13.8 93.85 L14.35 94.35 M20.75 36.85 L24.1 36.9 21.45 36.2 20.75 36.85" fill="#000000" fill-rule="evenodd" stroke="none"/>
      <path d="M19.6 38.0 L18.3 37.0 10.45 36.65 18.2 36.2 19.6 38.0 M9.05 50.75 L9.45 47.85 10.05 50.2 9.05 50.75 M25.2 51.05 L26.35 50.45 Q25.2 46.0 23.55 44.85 25.4 45.35 27.65 49.5 L28.2 51.3 27.1 51.65 25.2 51.05 M20.75 36.85 L21.45 36.2 24.1 36.9 20.75 36.85" fill="#1a1a1a" fill-rule="evenodd" stroke="none"/>
      <path d="M29.75 59.9 L30.05 59.95 29.8 60.05 29.75 59.9" fill="#cc0000" fill-rule="evenodd" stroke="none"/>
      <path d="M21.2 49.9 L21.8 50.05 25.2 51.05 27.1 51.65 28.2 51.3 Q31.0 50.3 32.6 48.95 L32.0 50.7 30.25 52.45 Q29.65 52.85 28.5 54.4 27.7 55.45 26.45 55.45 25.55 55.45 25.4 54.95 25.05 53.7 24.0 52.45 L22.45 50.8 21.2 49.9" fill="#666666" fill-rule="evenodd" stroke="none"/>
      <path d="M12.7 59.35 Q10.25 57.0 10.2 53.8 11.95 60.5 20.1 59.85 L20.3 59.8 20.75 59.75 Q16.85 60.9 13.15 59.75 L12.85 59.5 12.7 59.35" fill="#373737" fill-rule="evenodd" stroke="none"/>
      <path d="M33.55 89.75 Q34.0 89.7 34.0 90.6 L33.75 90.7 33.2 91.0 32.0 92.3 Q31.1 93.3 30.5 94.35 L29.3 94.35 Q30.0 93.1 31.55 91.35 32.9 89.8 33.55 89.75 M15.8 94.35 L14.35 94.35 13.8 93.85 Q11.2 91.65 7.85 91.65 6.5 91.65 6.0 92.0 L5.45 92.3 5.45 92.25 5.3 92.25 5.2 92.25 4.9 92.15 5.05 92.1 5.0 92.05 Q5.15 91.9 5.4 91.9 L5.45 91.75 Q5.75 90.95 8.2 91.0 L8.35 91.0 8.55 90.95 Q12.2 90.95 15.8 94.35" fill="#eeeeee" fill-rule="evenodd" stroke="none"/>
      <path d="M12.6 36.55 L10.45 36.65 12.95 36.75 13.6 37.2 14.3 38.6 14.75 40.6 14.9 42.7 15.1 44.8 Q15.1 46.1 14.7 47.2 L14.25 47.6 13.95 47.85 9.95 49.75 9.45 47.85 9.15 50.15 8.15 50.65 Q3.05 53.3 2.7 54.65 L2.6 54.45 2.4 54.7 Q0.8 50.15 0.75 45.05 1.0 39.65 8.4 36.2 L10.1 35.5 Q11.5 35.9 12.6 36.55 M13.9 36.45 L13.75 36.25 14.15 36.45 13.9 36.45 M14.65 36.85 L15.65 38.35 15.75 38.5 14.5 37.0 14.3 36.85 14.65 36.85 M15.1 38.85 L15.6 39.7 15.55 39.7 Q15.9 41.25 15.9 45.55 L15.8 44.85 Q15.8 42.55 15.45 40.5 L15.1 38.85 M21.35 35.2 L21.2 35.25 21.35 35.4 21.6 36.25 21.45 36.2 20.75 36.85 21.9 36.9 22.25 37.65 Q22.45 37.85 22.2 37.95 L19.9 38.25 17.5 37.0 18.3 37.0 19.6 38.0 18.2 36.2 16.25 36.3 15.4 35.85 15.15 35.75 14.5 35.4 13.7 35.05 21.4 35.05 21.35 35.15 21.35 35.2 M23.4 36.4 L22.7 35.55 22.25 35.25 28.85 36.9 Q32.7 38.0 33.9 43.15 L33.2 42.6 27.2 38.75 23.4 36.4 M16.75 42.25 L16.9 42.65 16.95 42.8 16.8 43.65 16.75 42.25 M16.85 38.3 L17.0 38.45 16.9 38.5 16.85 38.3 M26.0 49.25 Q23.0 49.25 20.85 46.65 19.25 44.7 19.25 43.5 19.25 42.35 21.4 41.7 L22.35 41.4 22.9 41.4 23.95 41.35 23.95 41.4 27.35 43.15 Q29.45 44.6 29.45 46.8 29.6 47.45 29.2 48.05 28.75 48.85 27.45 49.15 25.3 45.35 23.55 44.85 24.95 45.85 26.0 49.25" fill="#000000" fill-rule="evenodd" stroke="none"/>
      <path d="M12.95 36.75 L10.45 36.65 12.6 36.55 12.95 36.75 M9.15 50.15 L9.45 47.85 9.95 49.75 9.15 50.15 M14.15 36.45 L14.45 36.6 14.65 36.85 14.3 36.85 14.0 36.55 13.9 36.45 14.15 36.45 M21.6 36.25 L21.9 36.9 20.75 36.85 21.45 36.2 21.6 36.25 M17.5 37.0 L16.25 36.3 18.2 36.2 19.6 38.0 18.3 37.0 17.5 37.0 M26.0 49.25 Q24.95 45.85 23.55 44.85 25.3 45.35 27.45 49.15 L26.0 49.25" fill="#1a1a1a" fill-rule="evenodd" stroke="none"/>
      <path d="M14.7 47.2 Q15.1 46.1 15.1 44.8 L14.9 42.7 14.75 40.6 14.3 38.6 13.6 37.2 13.3 36.7 11.45 35.4 11.1 35.4 10.95 35.4 10.85 35.4 10.25 35.25 Q10.45 35.1 10.75 35.1 L10.85 34.95 11.9 34.95 Q12.95 35.3 13.75 36.25 L13.9 36.45 14.0 36.55 14.25 37.0 Q14.75 37.6 15.1 38.85 L15.45 40.5 Q15.8 42.55 15.8 44.85 L15.9 45.55 16.05 46.9 Q16.55 48.4 18.8 49.2 19.9 49.6 23.5 51.6 26.65 53.4 27.1 53.4 28.9 53.4 30.95 52.4 L33.3 51.1 Q34.05 50.6 34.25 49.6 L34.35 48.05 34.2 45.35 33.35 43.9 32.7 42.85 26.75 39.45 Q21.35 36.25 21.35 35.25 L21.35 35.2 21.35 35.15 21.4 35.05 21.45 34.95 21.55 34.95 23.4 36.4 27.2 38.75 33.2 42.6 33.9 43.15 Q36.25 45.2 37.2 46.85 38.2 48.6 38.2 51.0 38.2 53.1 36.65 55.6 35.05 58.1 32.75 59.25 L32.8 59.25 32.85 59.4 31.7 64.65 31.55 67.2 31.2 69.25 31.3 70.0 31.2 71.65 31.3 75.0 31.05 78.25 Q31.05 79.25 32.4 84.85 33.3 88.8 33.95 90.7 L34.3 91.05 34.75 92.15 35.9 94.1 36.05 94.35 4.0 94.35 Q5.4 91.45 5.8 89.65 L6.35 85.5 6.75 81.35 6.45 76.25 5.8 71.0 5.8 69.55 5.75 69.55 5.7 69.4 5.75 69.4 4.45 62.7 2.95 56.15 2.85 56.1 2.9 56.05 2.85 55.85 3.15 55.85 Q6.45 52.8 12.05 49.85 13.95 48.9 14.7 47.2" fill="#c4c4c4" fill-opacity="0.98039216" fill-rule="evenodd" stroke="none"/>
    </g>
  </defs>
</svg>
