<?xml version="1.0" encoding="UTF-8" standalone="no"?>
<svg xmlns:xlink="http://www.w3.org/1999/xlink" height="59.45px" width="39.85px" xmlns="http://www.w3.org/2000/svg">
  <g transform="matrix(1.0, 0.0, 0.0, 1.0, 0.8, -34.9)">
    <use height="59.4" transform="matrix(1.0, 0.0, 0.0, 1.0, 0.75, 34.95)" width="37.4" xlink:href="#shape0"/>
  </g>
  <defs>
    <g id="shape0" transform="matrix(1.0, 0.0, 0.0, 1.0, -0.75, -34.95)">
      <path d="M19.6 38.0 L18.2 36.2 10.45 36.65 18.3 37.0 19.6 38.0 M2.85 55.85 Q0.8 50.8 0.75 45.05 1.0 39.65 8.4 36.2 L11.4 34.95 21.35 34.95 21.35 35.0 28.85 36.9 Q32.85 38.05 33.95 43.55 L32.45 42.65 Q33.7 44.85 33.25 48.3 L32.6 48.95 Q31.0 50.3 28.2 51.3 L27.65 49.5 Q25.4 45.35 23.55 44.85 25.2 46.0 26.35 50.45 L25.2 51.05 21.8 50.05 21.2 49.9 20.7 49.8 Q15.25 48.65 10.35 50.05 L10.05 50.2 9.45 47.85 9.05 50.75 6.2 52.7 Q4.35 54.1 2.85 55.85 M20.75 36.85 L24.1 36.9 21.45 36.2 20.75 36.85" fill="#000000" fill-rule="evenodd" stroke="none"/>
      <path d="M19.6 38.0 L18.3 37.0 10.45 36.65 18.2 36.2 19.6 38.0 M9.05 50.75 L9.45 47.85 10.05 50.2 9.05 50.75 M25.2 51.05 L26.35 50.45 Q25.2 46.0 23.55 44.85 25.4 45.35 27.65 49.5 L28.2 51.3 27.1 51.65 25.2 51.05 M20.75 36.85 L21.45 36.2 24.1 36.9 20.75 36.85" fill="#1a1a1a" fill-rule="evenodd" stroke="none"/>
      <path d="M33.95 43.55 Q38.7 46.65 38.05 51.55 36.85 56.2 32.4 59.05 L30.05 59.95 29.75 59.9 28.5 59.6 Q27.35 59.1 27.15 58.4 L26.8 57.4 Q26.05 58.45 23.75 59.1 L20.75 59.75 20.3 59.8 20.1 59.85 Q11.95 60.5 10.2 53.8 10.25 57.0 12.7 59.35 11.35 59.15 9.5 57.55 7.5 55.8 6.3 55.8 L6.2 55.8 6.2 52.7 9.05 50.75 10.05 50.2 10.35 50.05 Q15.25 48.65 20.7 49.8 L21.2 49.9 22.45 50.8 24.0 52.45 Q25.05 53.7 25.4 54.95 25.55 55.45 26.45 55.45 27.7 55.45 28.5 54.4 29.65 52.85 30.25 52.45 L32.0 50.7 32.6 48.95 33.25 48.3 Q33.7 44.85 32.45 42.65 L33.95 43.55 M35.15 94.1 L35.35 94.35 34.5 94.35 35.15 94.1" fill="#ba0101" fill-rule="evenodd" stroke="none"/>
      <path d="M31.0 66.4 Q30.65 68.95 30.55 71.5 L29.9 78.5 28.8 79.2 30.5 81.8 32.55 86.25 34.5 93.25 35.15 94.1 34.5 94.35 4.35 94.35 5.55 91.0 7.4 87.0 8.15 78.5 6.2 60.2 6.2 55.8 6.3 55.8 Q7.5 55.8 9.5 57.55 11.35 59.15 12.7 59.35 L12.85 59.5 13.15 59.75 Q16.85 60.9 20.75 59.75 L23.75 59.1 Q26.05 58.45 26.8 57.4 L27.15 58.4 Q27.35 59.1 28.5 59.6 L29.75 59.9 30.05 59.95 28.15 60.65 30.45 61.7 31.0 66.4 M21.2 49.9 L21.8 50.05 25.2 51.05 27.1 51.65 28.2 51.3 Q31.0 50.3 32.6 48.95 L32.0 50.7 30.25 52.45 Q29.65 52.85 28.5 54.4 27.7 55.45 26.45 55.45 25.55 55.45 25.4 54.95 25.05 53.7 24.0 52.45 L22.45 50.8 21.2 49.9" fill="#cc0000" fill-rule="evenodd" stroke="none"/>
      <path d="M32.4 59.05 Q31.45 62.75 31.0 66.4 L30.45 61.7 28.15 60.65 30.05 59.95 32.4 59.05 M12.7 59.35 Q10.25 57.0 10.2 53.8 11.95 60.5 20.1 59.85 L20.3 59.8 20.75 59.75 Q16.85 60.9 13.15 59.75 L12.85 59.5 12.7 59.35" fill="#6d0101" fill-rule="evenodd" stroke="none"/>
      <path d="M3.35 57.55 L2.85 55.85 Q4.35 54.1 6.2 52.7 L6.2 55.8 Q5.15 55.9 3.35 57.55" fill="#980101" fill-rule="evenodd" stroke="none"/>
      <path d="M30.55 71.5 Q30.35 75.85 30.8 80.2 L32.55 86.25 30.5 81.8 28.8 79.2 29.9 78.5 30.55 71.5 M5.55 91.0 Q6.95 86.05 6.75 79.45 6.45 69.05 3.35 57.55 5.15 55.9 6.2 55.8 L6.2 60.2 8.15 78.5 7.4 87.0 5.55 91.0" fill="#a90101" fill-rule="evenodd" stroke="none"/>
      <path d="M3.35 57.55 L2.85 55.85 Q4.35 54.1 6.2 52.7 L6.2 55.8 Q5.15 55.9 3.35 57.55" fill="#980101" fill-rule="evenodd" stroke="none"/>
      <path d="M2.85 55.85 Q0.8 50.8 0.75 45.05 1.0 39.65 8.4 36.2 L11.15 35.05 21.55 35.05 28.85 36.9 Q32.85 38.05 33.95 43.55 L32.45 42.65 Q33.7 44.85 33.25 48.3 L32.6 48.95 Q31.0 50.3 28.2 51.3 L27.65 49.5 Q25.4 45.35 23.55 44.85 25.2 46.0 26.35 50.45 L25.2 51.05 21.8 50.05 21.2 49.9 20.7 49.8 Q15.25 48.65 10.35 50.05 L10.05 50.2 9.45 47.85 9.05 50.75 6.2 52.7 Q4.35 54.1 2.85 55.85 M10.45 36.65 L18.3 37.0 19.6 38.0 18.2 36.2 10.45 36.65 M24.1 36.9 L21.45 36.2 20.75 36.85 24.1 36.9" fill="#000000" fill-rule="evenodd" stroke="none"/>
      <path d="M9.05 50.75 L9.45 47.85 10.05 50.2 9.05 50.75 M25.2 51.05 L26.35 50.45 Q25.2 46.0 23.55 44.85 25.4 45.35 27.65 49.5 L28.2 51.3 27.1 51.65 25.2 51.05 M10.45 36.65 L18.2 36.2 19.6 38.0 18.3 37.0 10.45 36.65 M24.1 36.9 L20.75 36.85 21.45 36.2 24.1 36.9" fill="#1a1a1a" fill-rule="evenodd" stroke="none"/>
      <path d="M33.95 43.55 Q38.7 46.65 38.05 51.55 36.85 56.2 32.4 59.05 L30.05 59.95 29.75 59.9 28.5 59.6 Q27.35 59.1 27.15 58.4 L26.8 57.4 Q26.05 58.45 23.75 59.1 L20.75 59.75 20.3 59.8 20.1 59.85 Q11.95 60.5 10.2 53.8 10.25 57.0 12.7 59.35 11.35 59.15 9.5 57.55 7.5 55.8 6.3 55.8 L6.2 55.8 6.2 52.7 9.05 50.75 10.05 50.2 10.35 50.05 Q15.25 48.65 20.7 49.8 L21.2 49.9 22.45 50.8 24.0 52.45 Q25.05 53.7 25.4 54.95 25.55 55.45 26.45 55.45 27.7 55.45 28.5 54.4 29.65 52.85 30.25 52.45 L32.0 50.7 32.6 48.95 33.25 48.3 Q33.7 44.85 32.45 42.65 L33.95 43.55" fill="#ba0101" fill-rule="evenodd" stroke="none"/>
      <path d="M31.0 66.4 Q30.65 68.95 30.55 71.5 L29.9 78.5 28.8 79.2 30.5 81.8 32.55 86.25 34.5 93.25 34.95 93.8 4.6 93.8 5.55 91.0 7.4 87.0 8.15 78.5 6.2 60.2 6.2 55.8 6.3 55.8 Q7.5 55.8 9.5 57.55 11.35 59.15 12.7 59.35 L12.85 59.5 13.15 59.75 Q16.85 60.9 20.75 59.75 L23.75 59.1 Q26.05 58.45 26.8 57.4 L27.15 58.4 Q27.35 59.1 28.5 59.6 L29.75 59.9 30.05 59.95 28.15 60.65 30.45 61.7 31.0 66.4 M21.2 49.9 L21.8 50.05 25.2 51.05 27.1 51.65 28.2 51.3 Q31.0 50.3 32.6 48.95 L32.0 50.7 30.25 52.45 Q29.65 52.85 28.5 54.4 27.7 55.45 26.45 55.45 25.55 55.45 25.4 54.95 25.05 53.7 24.0 52.45 L22.45 50.8 21.2 49.9" fill="#cc0000" fill-rule="evenodd" stroke="none"/>
      <path d="M32.4 59.05 Q31.45 62.75 31.0 66.4 L30.45 61.7 28.15 60.65 30.05 59.95 32.4 59.05 M12.7 59.35 Q10.25 57.0 10.2 53.8 11.95 60.5 20.1 59.85 L20.3 59.8 20.75 59.75 Q16.85 60.9 13.15 59.75 L12.85 59.5 12.7 59.35" fill="#6d0101" fill-rule="evenodd" stroke="none"/>
      <path d="M30.55 71.5 Q30.35 75.85 30.8 80.2 L32.55 86.25 30.5 81.8 28.8 79.2 29.9 78.5 30.55 71.5 M5.55 91.0 Q6.95 86.05 6.75 79.45 6.45 69.05 3.35 57.55 5.15 55.9 6.2 55.8 L6.2 60.2 8.15 78.5 7.4 87.0 5.55 91.0" fill="#a90101" fill-rule="evenodd" stroke="none"/>
    </g>
  </defs>
</svg>
