<?xml version="1.0" encoding="UTF-8" standalone="no"?>
<svg xmlns:xlink="http://www.w3.org/1999/xlink" height="27.05px" width="373.05px" xmlns="http://www.w3.org/2000/svg">
  <g transform="matrix(1.0, 0.0, 0.0, 1.0, 0.0, 0.0)">
    <use height="27.05" transform="matrix(1.0, 0.0, 0.0, 1.0, 0.0, 0.0)" width="373.05" xlink:href="#shape0"/>
  </g>
  <defs>
    <g id="shape0" transform="matrix(1.0, 0.0, 0.0, 1.0, 0.0, 0.0)">
      <path d="M330.0 22.55 L348.25 4.3 373.05 0.0 346.0 27.05 330.0 27.05 330.0 22.55" fill="#cc0000" fill-opacity="0.09019608" fill-rule="evenodd" stroke="none"/>
      <path d="M313.05 0.0 L286.0 27.05 270.0 27.05 270.0 22.55 288.25 4.3 313.05 0.0" fill="#cc0000" fill-opacity="0.2901961" fill-rule="evenodd" stroke="none"/>
      <path d="M300.0 22.55 L318.25 4.3 343.05 0.0 316.0 27.05 300.0 27.05 300.0 22.55" fill="#cc0000" fill-opacity="0.18039216" fill-rule="evenodd" stroke="none"/>
      <path d="M283.05 0.0 L256.0 27.05 240.0 27.05 240.0 22.55 258.25 4.3 283.05 0.0" fill="#cc0000" fill-opacity="0.39215687" fill-rule="evenodd" stroke="none"/>
      <path d="M210.0 22.55 L228.25 4.3 253.05 0.0 226.0 27.05 210.0 27.05 210.0 22.55" fill="#cc0000" fill-opacity="0.5019608" fill-rule="evenodd" stroke="none"/>
      <path d="M180.0 22.55 L198.25 4.3 223.05 0.0 196.0 27.05 180.0 27.05 180.0 22.55" fill="#cc0000" fill-opacity="0.6313726" fill-rule="evenodd" stroke="none"/>
      <path d="M193.05 0.0 L166.0 27.05 150.0 27.05 150.0 22.55 168.25 4.3 193.05 0.0" fill="#cc0000" fill-opacity="0.77254903" fill-rule="evenodd" stroke="none"/>
      <path d="M90.0 22.55 L108.25 4.3 133.05 0.0 106.0 27.05 90.0 27.05 90.0 22.55" fill="#cc0000" fill-rule="evenodd" stroke="none"/>
      <path d="M120.0 27.05 L120.0 22.55 138.25 4.3 163.05 0.0 136.0 27.05 120.0 27.05" fill="#cc0000" fill-opacity="0.9019608" fill-rule="evenodd" stroke="none"/>
      <path d="M73.05 0.0 L46.0 27.05 30.0 27.05 30.0 22.55 48.25 4.3 73.05 0.0 M0.0 22.55 L18.25 4.3 43.05 0.0 16.0 27.05 0.0 27.05 0.0 22.55" fill="#000000" fill-rule="evenodd" stroke="none"/>
      <path d="M60.0 22.55 L78.25 4.3 103.05 0.0 76.0 27.05 60.0 27.05 60.0 22.55" fill="#595959" fill-rule="evenodd" stroke="none"/>
    </g>
  </defs>
</svg>
