<?xml version="1.0" encoding="UTF-8" standalone="no"?>
<svg xmlns:xlink="http://www.w3.org/1999/xlink" height="14.5px" width="136.25px" xmlns="http://www.w3.org/2000/svg">
  <g transform="matrix(1.0, 0.0, 0.0, 1.0, 43.25, 4.4)">
    <use height="8.65" transform="matrix(1.0, 0.0, 0.0, 1.0, -43.25, -4.4)" width="93.0" xlink:href="#text0"/>
  </g>
  <defs>
    <g id="text0" transform="matrix(1.0, 0.0, 0.0, 1.0, 0.0, -1.45)">
      <g transform="matrix(1.0, 0.0, 0.0, 1.0, 0.0, 0.0)">
        <use fill="#ffffff" fill-opacity="0.8980392" height="8.65" transform="matrix(0.0127, 0.0, 0.0, 0.0127, 0.0, 9.0)" width="93.0" xlink:href="#font_Visitor_TT1_BRK_w0"/>
        <use fill="#ffffff" fill-opacity="0.8980392" height="8.65" transform="matrix(0.0127, 0.0, 0.0, 0.0127, 7.85, 9.0)" width="93.0" xlink:href="#font_Visitor_TT1_BRK_a0"/>
        <use fill="#ffffff" fill-opacity="0.8980392" height="8.65" transform="matrix(0.0127, 0.0, 0.0, 0.0127, 15.7, 9.0)" width="93.0" xlink:href="#font_Visitor_TT1_BRK_l0"/>
        <use fill="#ffffff" fill-opacity="0.8980392" height="8.65" transform="matrix(0.0127, 0.0, 0.0, 0.0127, 23.55, 9.0)" width="93.0" xlink:href="#font_Visitor_TT1_BRK_k0"/>
        <use fill="#ffffff" fill-opacity="0.8980392" height="8.65" transform="matrix(0.0127, 0.0, 0.0, 0.0127, 31.4, 9.0)" width="93.0" xlink:href="#font_Visitor_TT1_BRK_t0"/>
        <use fill="#ffffff" fill-opacity="0.8980392" height="8.65" transform="matrix(0.0127, 0.0, 0.0, 0.0127, 39.25, 9.0)" width="93.0" xlink:href="#font_Visitor_TT1_BRK_h0"/>
        <use fill="#ffffff" fill-opacity="0.8980392" height="8.65" transform="matrix(0.0127, 0.0, 0.0, 0.0127, 47.1, 9.0)" width="93.0" xlink:href="#font_Visitor_TT1_BRK_r0"/>
        <use fill="#ffffff" fill-opacity="0.8980392" height="8.65" transform="matrix(0.0127, 0.0, 0.0, 0.0127, 54.95, 9.0)" width="93.0" xlink:href="#font_Visitor_TT1_BRK_o0"/>
        <use fill="#ffffff" fill-opacity="0.8980392" height="8.65" transform="matrix(0.0127, 0.0, 0.0, 0.0127, 62.8, 9.0)" width="93.0" xlink:href="#font_Visitor_TT1_BRK_u0"/>
        <use fill="#ffffff" fill-opacity="0.8980392" height="8.65" transform="matrix(0.0127, 0.0, 0.0, 0.0127, 70.65, 9.0)" width="93.0" xlink:href="#font_Visitor_TT1_BRK_g0"/>
        <use fill="#ffffff" fill-opacity="0.8980392" height="8.65" transform="matrix(0.0127, 0.0, 0.0, 0.0127, 78.5, 9.0)" width="93.0" xlink:href="#font_Visitor_TT1_BRK_h0"/>
      </g>
    </g>
    <g id="font_Visitor_TT1_BRK_w0">
      <path d="M0.0 0.0 L0.0 -522.0 121.0 -522.0 121.0 -120.5 201.0 -120.5 201.0 -522.0 322.0 -522.0 322.0 -120.5 401.5 -120.5 401.5 -522.0 522.5 -522.0 522.5 0.0 0.0 0.0" fill-rule="evenodd" stroke="none"/>
    </g>
    <g id="font_Visitor_TT1_BRK_a0">
      <path d="M121.0 -401.5 L121.0 -321.0 401.5 -321.0 401.5 -401.5 121.0 -401.5 M401.5 0.0 L401.5 -201.0 121.0 -201.0 121.0 0.0 0.0 0.0 0.0 -522.0 522.5 -522.0 522.5 0.0 401.5 0.0" fill-rule="evenodd" stroke="none"/>
    </g>
    <g id="font_Visitor_TT1_BRK_l0">
      <path d="M0.0 0.0 L0.0 -522.0 121.0 -522.0 121.0 -120.5 522.5 -120.5 522.5 0.0 0.0 0.0" fill-rule="evenodd" stroke="none"/>
    </g>
    <g id="font_Visitor_TT1_BRK_k0">
      <path d="M401.5 -401.5 L401.5 -522.0 522.5 -522.0 522.5 -401.5 401.5 -401.5 M422.0 -301.0 L301.0 -301.0 301.0 -421.5 422.0 -421.5 422.0 -301.0 M301.5 -100.5 L301.5 -201.0 121.0 -201.0 121.0 0.0 0.0 0.0 0.0 -522.0 121.0 -522.0 121.0 -321.0 322.0 -321.0 322.0 -221.0 422.0 -221.0 422.0 -120.5 522.5 -120.5 522.5 0.0 401.5 0.0 401.5 -100.5 301.5 -100.5" fill-rule="evenodd" stroke="none"/>
    </g>
    <g id="font_Visitor_TT1_BRK_t0">
      <path d="M0.0 -401.5 L0.0 -522.0 522.5 -522.0 522.5 -401.5 321.5 -401.5 321.5 0.0 201.0 0.0 201.0 -401.5 0.0 -401.5" fill-rule="evenodd" stroke="none"/>
    </g>
    <g id="font_Visitor_TT1_BRK_h0">
      <path d="M401.5 0.0 L401.5 -201.0 121.0 -201.0 121.0 0.0 0.0 0.0 0.0 -522.0 121.0 -522.0 121.0 -321.0 401.5 -321.0 401.5 -522.0 522.5 -522.0 522.5 0.0 401.5 0.0" fill-rule="evenodd" stroke="none"/>
    </g>
    <g id="font_Visitor_TT1_BRK_r0">
      <path d="M121.0 -401.5 L121.0 -321.0 401.5 -321.0 401.5 -401.5 121.0 -401.5 M301.5 -100.5 L301.5 -201.0 121.0 -201.0 121.0 0.0 0.0 0.0 0.0 -522.0 522.5 -522.0 522.5 -201.0 422.0 -201.0 422.0 -120.5 522.5 -120.5 522.5 0.0 401.5 0.0 401.5 -100.5 301.5 -100.5" fill-rule="evenodd" stroke="none"/>
    </g>
    <g id="font_Visitor_TT1_BRK_o0">
      <path d="M121.0 -401.5 L121.0 -120.5 401.5 -120.5 401.5 -401.5 121.0 -401.5 M0.0 0.0 L0.0 -522.0 522.5 -522.0 522.5 0.0 0.0 0.0" fill-rule="evenodd" stroke="none"/>
    </g>
    <g id="font_Visitor_TT1_BRK_u0">
      <path d="M0.0 0.0 L0.0 -522.0 121.0 -522.0 121.0 -120.5 401.5 -120.5 401.5 -522.0 522.5 -522.0 522.5 0.0 0.0 0.0" fill-rule="evenodd" stroke="none"/>
    </g>
    <g id="font_Visitor_TT1_BRK_g0">
      <path d="M0.0 0.0 L0.0 -522.0 522.5 -522.0 522.5 -401.5 121.0 -401.5 121.0 -120.5 401.5 -120.5 401.5 -201.0 201.0 -201.0 201.0 -321.0 522.5 -321.0 522.5 0.0 0.0 0.0" fill-rule="evenodd" stroke="none"/>
    </g>
  </defs>
</svg>
