<?xml version="1.0" encoding="UTF-8" standalone="no"?>
<svg xmlns:xlink="http://www.w3.org/1999/xlink" height="211.15px" width="657.4px" xmlns="http://www.w3.org/2000/svg">
  <g transform="matrix(1.0, 0.0, 0.0, 1.0, 306.7, 52.85)">
    <use height="78.95" transform="matrix(1.0, 0.0, 0.0, 1.0, -283.9, -4.5)" width="509.35" xlink:href="#shape0"/>
    <use height="101.85" transform="matrix(1.0, 0.0, 0.0, 1.0, -110.7, 30.3)" width="65.85" xlink:href="#sprite0"/>
    <use height="52.25" transform="matrix(0.7937, 0.0, 0.0, 0.7937, -217.2714, -32.3895)" width="224.7" xlink:href="#sprite1"/>
    <use height="125.15" transform="matrix(0.821, 0.0, 0.0, 0.821, -13.7871, 20.4561)" width="104.4" xlink:href="#sprite2"/>
  </g>
  <defs>
    <g id="shape0" transform="matrix(1.0, 0.0, 0.0, 1.0, 283.9, 4.5)">
      <path d="M-106.3 5.2 L-106.2 5.45 -104.45 4.35 -103.4 4.35 -53.85 4.35 -53.8 3.85 -53.8 2.5 -52.45 2.45 -49.0 2.7 -49.0 2.25 -50.85 2.45 -51.65 2.4 -51.95 1.1 -54.3 1.3 -57.1 1.3 -57.0 -0.55 Q-57.0 -1.2 -55.7 -1.25 L-55.55 -0.65 -55.45 -0.1 -52.55 0.15 -51.4 -0.3 Q-50.75 -0.75 -50.15 -0.75 L-49.15 -0.15 -45.3 0.6 -42.0 0.65 -39.65 0.6 -36.15 0.4 -35.75 0.35 -33.3 0.2 -32.45 0.15 Q-30.8 0.15 -29.85 1.1 L-28.1 2.8 -27.95 2.9 59.7 2.9 62.25 2.9 62.5 2.7 62.5 2.9 Q62.55 4.0 62.95 5.25 L70.3 5.25 Q70.15 6.35 70.15 8.85 M182.25 -4.0 L180.5 -2.9 Q180.0 -2.4 178.9 -2.4 178.35 -2.4 177.4 -3.25 176.55 -4.0 175.5 -3.8 L175.5 -0.15 Q178.8 -0.35 182.45 -0.15 L182.45 -3.8 M217.05 18.75 L217.0 18.15 216.9 17.65 217.05 12.2 216.6 12.55 215.9 12.75 215.95 15.7 215.9 18.75 216.35 18.65 Q216.7 18.65 217.0 19.1 L217.35 20.05 218.45 19.95 219.7 19.8 219.7 11.5 218.75 11.5 218.75 19.55 M218.75 11.5 L217.15 11.5 217.05 12.2 M215.9 12.75 L215.5 12.85 215.4 12.3 215.3 11.7 213.4 11.7 213.4 14.85 213.55 14.8 213.55 19.6 215.3 19.55 215.9 18.75 M209.45 16.05 L209.6 16.05 209.6 16.0 209.45 16.05 199.8 16.15 193.35 15.5 191.25 14.75 191.25 11.7 Q191.0 11.7 191.0 11.25 L188.2 11.25 Q188.05 11.45 188.0 12.0 L187.95 14.5 187.95 18.95 188.0 19.8 189.95 20.05 202.5 19.8 213.55 19.6 M193.35 15.5 L196.7 15.2 202.1 14.8 206.1 14.75 Q209.3 14.9 209.6 16.0 L209.9 15.9 213.4 14.85 M209.9 15.9 L209.6 16.05 M182.45 6.15 L174.75 6.5 174.0 7.95 174.5 7.85 175.55 7.8 Q175.65 7.3 176.05 7.05 L176.5 6.85 177.9 6.95 180.0 7.2 Q181.1 7.25 181.2 7.65 L181.3 8.15 182.45 7.95 182.45 6.15 182.45 4.3 180.8 4.65 179.05 4.9 177.35 4.6 175.5 4.3 175.5 4.8 175.3 4.8 174.75 6.5 M179.45 11.8 L179.35 12.05 179.3 12.2 179.45 12.15 Q180.05 11.8 180.65 11.8 L181.35 12.05 181.5 12.15 181.95 12.25 182.45 12.25 182.45 7.95 M181.5 12.15 L181.65 12.7 181.5 13.4 180.65 13.6 Q179.3 13.6 179.3 12.45 L179.3 12.2 177.95 12.45 176.8 12.25 Q176.8 13.1 176.45 13.35 L175.45 13.4 175.0 13.25 174.4 13.1 174.4 12.2 173.55 12.45 172.9 12.35 172.25 12.3 172.25 12.4 172.4 18.4 172.45 18.4 172.5 18.75 172.5 19.25 174.7 19.3 177.2 19.35 Q178.2 18.4 180.7 18.45 L184.35 18.7 187.35 18.6 187.65 18.55 187.9 18.85 187.95 18.95 M188.0 12.0 L188.0 12.4 182.45 12.25 M181.3 8.15 L181.3 9.4 Q181.3 11.25 179.35 11.25 L176.45 11.0 Q175.5 10.55 175.5 8.1 L175.55 7.8 M174.0 7.95 L173.65 8.45 Q172.3 10.6 172.25 12.3 M174.6 12.1 L174.4 12.0 174.4 12.2 174.5 12.15 174.6 12.1 Q175.0 11.8 175.35 11.8 L176.45 12.15 176.5 12.15 176.8 12.15 176.8 12.25 176.5 12.15 M181.35 12.05 L181.45 12.1 181.5 12.15 M172.5 19.25 L172.55 20.2 172.5 23.7 176.45 23.7 176.45 21.2 Q176.45 20.0 177.2 19.35 M172.4 18.4 L172.5 18.75 M192.75 50.85 L192.5 51.85 192.4 53.1 192.55 54.5 Q192.65 55.35 193.0 55.85 L193.2 55.75 192.95 54.55 192.9 53.2 193.0 51.85 193.2 50.7 192.75 50.85 192.75 50.8 192.6 50.65 Q192.45 50.5 192.35 50.5 L192.25 50.5 191.95 51.45 191.75 52.7 Q191.7 53.75 191.8 54.5 191.9 55.45 192.35 56.05 L192.6 56.05 192.95 55.9 193.0 55.85 M193.2 55.75 L193.25 55.75 193.6 55.85 194.0 55.95 194.2 56.0 209.7 56.1 210.55 56.1 211.25 56.0 215.4 55.05 218.35 55.0 218.45 54.65 218.6 53.9 218.7 53.25 218.7 52.75 218.55 52.25 218.35 52.0 218.2 52.0 216.35 52.15 215.4 52.05 211.2 50.95 210.75 50.85 210.3 50.8 193.6 50.25 193.3 50.6 193.2 50.7 M192.25 50.5 Q191.75 50.55 191.5 51.2 L191.3 52.6 Q191.2 54.2 191.35 54.9 191.6 55.85 192.35 56.05 M224.4 53.25 L223.7 52.95 222.5 52.6 222.6 53.0 222.6 53.55 222.55 53.95 222.5 54.35 Q223.8 54.15 224.95 53.65 L224.4 53.25 M218.45 54.65 L221.9 54.45 222.5 54.35 M222.5 52.6 L222.15 52.55 218.55 52.25 M213.4 11.7 L191.25 11.7 M103.6 20.05 L103.6 19.8 90.45 19.8 90.45 18.65 68.7 18.65 67.95 19.85 67.9 19.95 67.5 20.3 Q66.75 20.95 65.85 20.95 L65.15 20.75 64.45 20.5 Q63.7 20.5 63.0 20.95 L63.05 21.25 M103.6 19.8 L103.6 18.4 103.5 12.45 Q97.9 12.2 92.8 12.45 92.65 14.8 92.65 19.55 M103.5 12.45 L103.5 12.4 103.2 12.4 101.15 11.3 Q98.65 10.85 95.05 8.4 L91.9 6.0 Q91.15 6.0 91.2 7.55 L91.05 9.8 M101.15 11.3 L99.85 10.7 Q97.45 9.65 96.65 8.85 L95.25 7.05 94.15 5.4 Q92.7 3.5 90.2 4.1 L74.9 4.1 74.9 5.55 81.45 5.55 Q85.45 5.7 87.6 6.35 L87.5 6.4 87.45 6.5 84.65 7.1 Q82.65 7.35 82.25 8.1 82.6 8.1 82.6 8.4 L82.2 8.55 81.8 8.7 78.7 8.4 76.15 8.1 76.2 7.7 76.3 7.4 76.75 7.25 76.6 7.2 76.6 7.1 76.4 7.0 76.05 6.95 75.5 7.0 74.85 7.1 74.75 9.8 76.1 10.15 77.85 10.2 Q78.5 9.85 79.55 9.85 L80.95 10.1 82.35 10.35 83.6 10.1 84.9 9.85 90.0 10.25 92.15 10.1 Q92.1 10.5 92.5 11.2 L92.7 12.15 92.8 12.45 92.65 12.45 92.7 12.15 M90.0 10.25 L90.9 10.35 90.8 11.05 90.5 12.2 90.45 12.4 90.3 12.4 90.35 15.15 90.45 18.4 90.45 18.65 M74.75 9.8 L73.8 9.65 73.3 9.55 70.3 9.15 66.65 9.15 Q66.65 10.6 66.15 11.7 L67.4 11.75 90.3 12.4 90.5 12.2 M70.1 5.0 Q70.8 4.6 71.85 4.65 L73.3 4.8 73.8 4.7 74.05 4.45 Q74.15 4.2 74.55 4.15 L74.9 4.1 M73.8 9.65 L73.6 7.65 73.8 4.7 M74.9 5.55 L74.85 7.1 M62.25 2.9 L62.5 2.9 M61.4 9.15 L61.35 8.85 61.05 9.0 61.35 9.0 61.4 9.15 61.65 12.8 61.35 16.05 Q60.65 16.05 60.5 14.8 L60.4 12.45 Q60.4 9.95 60.7 9.0 L61.05 9.0 M62.9 5.55 L63.05 8.1 63.2 11.2 62.95 18.2 Q63.2 17.7 64.1 17.25 64.9 16.85 65.45 16.85 L66.75 17.25 67.6 15.7 Q68.1 14.75 68.1 13.95 L67.75 12.65 67.4 11.75 M67.5 20.3 L67.95 19.85 67.95 19.55 Q67.95 18.6 67.3 17.8 L66.75 17.25 M59.7 2.9 L59.7 22.35 61.75 22.35 62.0 22.35 62.2 22.35 Q62.0 21.6 62.85 21.0 L63.0 20.95 62.9 19.55 62.95 18.2 M53.9 10.7 Q54.35 10.35 54.35 9.5 54.35 8.55 53.85 8.2 53.55 8.0 52.7 7.75 L44.9 7.75 Q44.05 8.0 43.75 8.2 43.25 8.55 43.25 9.5 43.25 10.35 43.7 10.7 L44.95 11.0 45.15 11.0 52.5 11.0 53.9 10.7 M-28.1 2.8 L-30.85 2.7 -32.4 2.25 -33.15 2.5 -33.85 2.7 -36.6 2.3 -36.65 2.45 -33.8 2.95 -40.1 3.05 -43.5 3.0 -47.15 2.75 -49.0 2.7 -49.0 27.05 -44.95 27.45 -22.2 25.15 -12.85 24.15 9.95 22.8 13.75 22.9 17.8 22.8 Q19.05 22.65 21.25 22.75 L26.9 22.6 30.0 22.45 Q34.35 22.3 43.05 22.3 L44.95 22.3 Q54.0 22.25 59.7 22.35 M31.7 11.0 L24.1 11.0 22.65 10.7 Q22.25 10.35 22.25 9.5 22.25 8.55 22.7 8.2 23.05 8.0 23.85 7.75 L31.95 7.75 Q32.75 8.0 33.05 8.2 33.55 8.55 33.55 9.5 33.55 10.35 33.15 10.7 L31.7 11.0 M12.1 10.7 Q12.55 10.35 12.55 9.5 12.55 8.55 12.05 8.2 L10.95 7.75 3.05 7.75 Q2.25 8.0 1.9 8.2 1.45 8.55 1.45 9.5 1.45 10.35 1.85 10.7 L3.3 11.0 10.7 11.0 12.1 10.7 M103.6 18.4 L172.4 18.4 M103.5 12.4 L172.25 12.4 M-33.3 0.2 L-34.1 0.95 -35.55 2.2 M-36.6 2.3 L-36.05 0.8 -35.75 0.35 M-36.65 2.45 L-41.95 2.15 -45.9 2.0 -48.65 2.2 -49.0 2.25 M-53.85 4.35 L-53.8 4.35 -53.8 3.85 M-150.95 31.85 L-151.05 32.15 -150.75 32.2 -149.25 32.55 -147.75 32.35 Q-145.85 29.7 -142.3 28.9 L-134.8 28.35 -126.9 28.55 -124.4 28.65 -120.25 28.9 -116.3 29.05 -112.65 29.45 Q-111.4 29.75 -110.6 31.15 L-109.4 33.3 -107.35 33.6 Q-106.45 33.45 -104.25 32.2 -102.0 31.0 -101.7 31.0 L-92.25 31.35 -86.55 31.0 Q-82.9 31.0 -78.55 32.1 L-76.4 32.7 -76.3 32.75 -76.25 32.75 -72.25 34.0 -72.15 34.3 -71.65 33.5 Q-71.0 32.75 -70.9 30.1 -70.8 27.75 -69.8 27.2 -68.6 26.55 -65.5 26.45 L-62.55 26.5 -58.5 26.65 -53.85 26.9 -53.85 21.5 -59.05 21.6 -63.6 21.65 -65.85 21.3 Q-66.75 20.85 -66.75 19.75 -66.75 17.15 -58.15 16.8 L-58.7 15.95 -58.9 15.2 -59.0 15.2 -71.45 15.2 -79.9 15.3 -80.45 15.4 -101.4 15.4 -100.6 14.75 -100.05 14.05 -100.05 13.3 -101.4 13.3 Q-101.9 9.8 -98.25 8.35 -95.2 7.1 -90.75 7.6 -87.4 8.0 -82.9 7.65 L-75.45 7.2 Q-69.8 7.2 -64.8 9.35 -61.2 10.9 -59.65 12.95 L-59.25 11.85 -58.0 11.75 Q-56.35 11.75 -56.05 12.35 -55.8 12.9 -53.85 12.9 L-53.85 4.35 M-53.85 12.9 L-53.85 16.9 -53.85 21.5 M-53.85 16.9 L-54.45 16.8 -54.95 16.7 -58.15 16.8 M-59.65 12.95 Q-58.85 14.0 -58.6 15.2 L-58.9 15.2 M-71.75 18.5 L-70.5 18.5 -70.5 18.55 -70.4 18.65 -70.4 25.05 -71.2 25.2 -102.55 25.2 Q-102.65 25.5 -103.3 25.75 L-104.25 26.0 Q-105.0 26.0 -106.15 25.35 -103.7 26.1 -103.3 23.8 L-103.1 21.75 Q-102.95 20.45 -102.55 19.85 L-102.0 19.85 Q-101.8 20.5 -101.75 21.85 L-101.75 24.1 -71.3 24.1 -71.3 23.55 Q-71.6 23.2 -71.6 21.75 -71.55 20.15 -71.75 19.7 L-71.75 18.5 M-72.5 27.5 L-73.15 27.55 -73.25 27.55 -77.7 27.15 Q-80.65 27.15 -80.65 28.95 -80.65 30.45 -79.25 30.85 L-76.3 31.0 -73.25 30.7 Q-71.85 30.25 -71.85 28.9 -71.85 27.8 -72.5 27.5 L-73.25 27.55 M-53.85 26.9 L-53.15 26.95 -52.65 26.95 -52.65 27.45 -52.25 27.45 -51.2 27.2 -50.15 26.95 -49.0 27.05 M-53.15 26.95 L-52.8 27.4 -52.65 27.45 M-280.85 73.95 L-280.85 73.45 -280.8 69.35 Q-280.55 45.05 -283.4 23.1 L-281.3 22.95 -247.8 21.0 -247.8 20.75 -247.75 19.6 Q-247.7 18.85 -247.9 18.1 L-248.15 17.3 -248.15 12.05 -247.1 10.6 Q-246.75 10.1 -245.95 10.1 L-207.8 7.55 -206.85 7.6 Q-206.4 7.65 -205.7 8.2 -205.2 8.35 -205.15 9.2 -205.2 9.7 -204.65 9.9 L-204.55 11.05 Q-204.55 13.4 -204.95 16.3 L-204.9 16.35 -204.45 17.7 -204.45 17.8 -204.4 17.85 Q-204.3 18.15 -204.35 18.65 L-179.3 17.3 -179.05 17.25 -177.2 11.35 -176.25 9.3 Q-173.6 4.55 -169.3 4.55 L-161.95 4.65 -154.9 5.2 -150.25 5.25 -149.95 4.75 Q-148.75 3.6 -147.85 3.6 -147.15 3.6 -146.45 4.15 L-145.7 5.05 -145.6 5.25 -130.15 5.25 -130.1 5.2 -129.95 5.05 -129.55 4.45 -128.55 4.3 Q-127.95 4.3 -127.05 4.65 L-126.55 4.85 -125.95 5.25 -114.9 5.25 -114.75 5.2 -114.7 5.15 -113.95 4.8 -112.8 4.3 Q-112.5 4.3 -111.65 4.8 L-111.0 5.25 -110.7 5.45 -106.2 5.45 -106.0 6.85 Q-106.0 8.55 -106.55 9.05 -107.1 9.6 -109.1 9.6 -110.7 9.6 -110.95 8.6 L-111.0 5.25 M-103.4 4.35 Q-103.7 5.55 -103.55 8.85 -103.7 11.65 -105.85 11.95 L-163.0 11.95 -164.4 13.25 Q-165.15 13.95 -166.15 13.95 L-167.85 13.95 -167.8 15.2 Q-167.8 16.3 -167.95 16.7 -165.55 16.55 -157.1 16.55 L-154.75 16.7 -152.85 16.9 -151.55 16.85 -147.65 17.0 Q-146.8 17.35 -146.8 19.8 -146.8 23.0 -150.1 23.2 L-153.35 23.2 -156.6 23.6 -156.5 23.6 Q-155.05 23.55 -154.25 24.35 -153.45 25.15 -153.2 27.5 L-153.0 31.85 -151.85 32.0 -151.05 32.15 -151.7 33.7 Q-152.1 34.45 -153.15 34.45 L-154.2 36.65 Q-155.35 39.0 -155.35 40.25 L-155.2 41.45 -155.1 42.45 -155.1 42.85 Q-153.65 46.95 -149.95 47.7 L-140.9 48.5 Q-137.85 48.5 -135.65 47.0 -133.4 45.4 -132.7 42.7 L-132.2 38.8 -132.1 34.95 Q-132.2 34.0 -129.9 32.55 L-141.45 32.5 -142.05 32.95 Q-143.45 34.0 -145.05 35.85 -147.0 38.05 -147.0 39.6 -147.0 41.15 -146.6 42.55 L-145.85 44.8 -145.85 45.25 -147.95 43.2 -148.25 40.65 Q-148.4 38.55 -147.35 36.05 L-146.3 33.5 -146.3 33.25 Q-146.4 32.35 -147.45 32.3 L-147.75 32.35 M-126.55 4.85 L-126.65 5.4 -126.3 9.3 -125.0 9.55 -123.45 9.75 -120.15 9.6 -116.55 9.45 Q-115.0 9.5 -114.8 7.95 L-114.75 5.2 M-113.6 16.15 L-117.6 16.3 -120.65 16.55 Q-120.4 19.5 -127.7 23.5 -133.75 26.9 -137.95 27.8 L-139.55 28.1 Q-141.3 28.1 -142.55 26.85 -143.8 25.6 -143.8 23.85 -143.8 22.1 -142.55 20.85 -141.45 19.75 -139.9 19.65 L-139.55 19.6 -139.4 19.6 -134.25 19.4 Q-131.15 19.2 -128.85 18.5 -128.15 18.25 -125.2 15.95 -122.7 13.95 -120.3 13.95 L-112.3 14.1 -108.95 13.95 Q-106.7 14.2 -107.25 16.05 L-108.0 16.25 -108.75 16.45 -110.65 16.3 -113.25 16.15 -113.6 16.15 M-107.95 26.85 Q-107.3 26.85 -106.9 27.3 -106.45 27.7 -106.45 28.35 -106.45 28.95 -106.9 29.4 -107.3 29.8 -107.95 29.8 -108.55 29.8 -109.0 29.4 -109.4 28.95 -109.4 28.35 -109.4 27.7 -109.0 27.3 -108.55 26.85 -107.95 26.85 M-124.4 28.65 L-124.2 29.0 Q-124.05 29.3 -124.05 29.55 L-124.45 31.45 -124.8 33.35 -124.1 33.5 -122.7 33.0 Q-121.8 32.55 -121.45 32.55 L-118.8 32.9 -115.7 33.25 -115.4 32.9 -114.55 32.7 -112.15 32.95 -109.6 33.25 -109.4 33.3 M-107.35 33.6 L-107.1 33.75 Q-106.95 33.9 -106.95 35.65 L-107.05 38.25 -107.25 41.75 -107.45 42.0 -107.45 41.75 -109.8 41.65 -112.3 41.8 -112.2 42.05 -112.1 42.6 Q-112.1 43.8 -113.1 45.55 L-114.65 48.5 -112.25 46.0 -110.65 43.65 -109.55 42.0 M-115.7 33.25 L-115.35 33.25 -115.4 32.9 M-115.35 33.25 L-115.35 41.75 -112.65 41.75 -112.3 41.75 -112.3 41.8 -112.65 41.75 M-110.2 37.8 Q-110.35 37.65 -110.55 37.65 -110.95 37.75 -111.2 37.95 L-111.3 38.0 -111.65 38.7 -111.25 39.35 -110.7 39.75 Q-110.25 39.75 -109.95 39.35 L-109.75 38.65 Q-109.75 38.1 -110.2 37.8 M-107.45 41.75 L-107.25 41.75 M-87.4 28.05 Q-87.05 27.65 -86.55 27.65 -86.05 27.65 -85.7 28.05 -85.3 28.4 -85.3 28.9 -85.3 29.4 -85.7 29.75 -86.05 30.1 -86.55 30.1 L-87.4 29.75 -87.75 28.9 Q-87.75 28.4 -87.4 28.05 M-93.5 29.85 Q-93.85 30.25 -94.35 30.25 -94.85 30.25 -95.2 29.85 L-95.55 29.0 Q-95.55 28.5 -95.2 28.15 -94.85 27.8 -94.35 27.8 -93.85 27.8 -93.5 28.15 -93.15 28.5 -93.15 29.0 -93.15 29.5 -93.5 29.85 M-145.7 5.05 L-145.75 8.3 Q-145.65 10.0 -144.15 10.0 L-135.25 9.85 Q-131.8 9.85 -130.75 8.85 -129.9 7.95 -130.1 5.2 M-138.05 22.4 Q-137.4 23.05 -137.4 23.95 -137.4 24.85 -138.05 25.5 -138.65 26.1 -139.6 26.1 -140.5 26.1 -141.1 25.5 -141.75 24.85 -141.75 23.95 -141.75 23.05 -141.1 22.4 -140.5 21.8 -139.6 21.8 -138.65 21.8 -138.05 22.4 M-139.4 19.6 Q-137.75 19.65 -136.55 20.85 -135.3 22.1 -135.3 23.85 -135.3 25.6 -136.55 26.85 L-137.95 27.8 -138.05 27.8 -138.05 27.55 M-150.25 5.25 L-149.95 5.25 -149.95 4.75 M-149.95 5.25 Q-149.85 7.75 -150.25 8.45 -150.8 9.45 -153.1 9.45 -159.6 9.1 -162.6 9.3 L-167.2 9.6 Q-169.95 9.95 -171.05 11.55 -168.25 12.2 -167.95 13.7 L-167.85 13.95 -167.95 13.95 -167.95 13.7 M-152.85 16.9 Q-155.1 17.05 -156.7 17.7 -158.85 18.5 -164.85 18.5 L-168.75 18.5 Q-170.0 18.8 -170.0 21.1 -170.0 22.85 -169.45 23.45 -168.8 23.5 -168.5 23.7 L-167.2 24.35 -165.1 24.1 -160.7 23.65 -156.85 23.65 -156.6 23.6 M-146.3 33.25 L-142.05 32.95 M-153.5 33.5 L-153.0 33.3 -153.0 31.85 -153.25 31.85 M-151.85 32.0 Q-152.0 32.6 -152.55 33.0 L-153.0 33.3 -153.0 34.0 -153.15 34.45 M-281.3 22.95 Q-278.5 44.95 -278.7 69.35 L-278.8 73.6 -277.4 73.65 Q-269.7 73.65 -250.2 69.35 L-232.95 65.25 -207.6 59.0 Q-198.85 56.9 -196.25 57.45 -193.6 57.95 -192.5 58.4 -191.45 58.85 -190.75 61.3 L-190.65 61.35 -186.2 63.45 Q-183.6 64.6 -180.75 65.35 L-175.05 66.9 -169.2 67.5 Q-168.3 65.6 -166.9 60.65 -165.3 55.0 -164.35 52.65 L-163.5 49.4 -162.45 46.1 Q-160.8 42.6 -156.0 42.5 L-155.6 42.45 M-156.0 42.5 Q-155.0 47.25 -151.0 48.6 L-141.25 49.15 Q-136.65 48.65 -134.75 47.5 -132.9 46.4 -132.25 43.8 -131.6 39.6 -131.35 36.2 -131.1 33.05 -128.85 33.2 L-128.55 33.1 -127.35 32.8 -126.9 32.9 Q-126.35 31.1 -126.35 30.6 -126.35 29.2 -126.9 28.55 M-126.9 32.9 L-125.7 33.15 -124.8 33.35 M-171.05 11.55 L-171.75 11.45 Q-174.6 11.0 -177.2 11.35 M-167.95 16.7 L-168.05 16.7 -173.9 16.9 -178.9 17.2 -178.95 17.25 -179.1 17.3 -179.1 17.5 Q-178.85 22.4 -176.95 23.1 -175.0 23.85 -172.1 23.55 L-169.45 23.45 M-178.95 17.25 L-179.05 17.25 -179.1 17.3 -179.15 17.3 -179.1 17.5 M-179.3 17.3 L-179.15 17.3 M-168.8 14.1 Q-168.8 14.7 -169.25 15.15 -169.65 15.55 -170.25 15.55 -170.9 15.55 -171.3 15.15 L-171.75 14.1 Q-171.75 13.5 -171.3 13.05 -170.9 12.6 -170.25 12.6 -169.65 12.6 -169.25 13.05 -168.8 13.5 -168.8 14.1 M-167.85 20.1 Q-167.3 19.6 -166.65 19.6 -165.95 19.6 -165.45 20.1 -164.9 20.65 -164.9 21.3 -164.9 22.0 -165.45 22.5 -165.95 23.05 -166.65 23.05 -167.3 23.05 -167.85 22.5 -168.35 22.0 -168.35 21.3 -168.35 20.65 -167.85 20.1 M-223.55 23.95 L-224.0 23.95 -223.65 26.0 Q-223.45 27.25 -223.55 28.3 -222.15 28.0 -221.7 29.8 -221.2 31.8 -219.8 31.95 -218.45 32.1 -217.25 31.1 L-214.85 28.45 Q-213.6 26.8 -211.25 26.9 L-206.0 26.95 -195.85 26.05 -185.9 25.6 Q-184.4 25.8 -182.8 27.35 -181.25 28.85 -181.0 31.8 -180.7 34.75 -183.75 42.45 -186.8 50.15 -191.65 50.55 -215.8 54.5 -221.95 54.9 -228.15 55.25 -228.9 50.6 -229.6 45.9 -229.5 41.95 -229.4 37.95 -229.8 36.85 -230.15 35.75 -230.1 33.7 L-230.0 30.9 Q-230.0 30.0 -229.35 29.6 L-228.9 29.25 -228.2 28.8 -228.05 26.85 -227.95 25.35 Q-227.95 23.8 -228.85 23.7 L-228.95 23.7 -231.2 24.2 -231.2 22.55 -231.2 20.95 -236.95 21.2 -242.6 21.5 -245.7 21.55 Q-247.55 21.55 -247.35 21.05 -247.2 20.5 -247.45 20.65 L-247.8 20.75 M-179.95 26.95 L-180.85 26.6 -181.2 25.7 -180.85 24.8 Q-180.45 24.45 -179.95 24.45 -179.45 24.45 -179.05 24.8 -178.7 25.2 -178.7 25.7 -178.7 26.25 -179.05 26.6 -179.45 26.95 -179.95 26.95 M-204.9 16.35 L-209.8 16.25 -216.5 16.1 -221.45 16.3 -221.45 20.5 -214.15 20.25 -208.7 20.25 Q-205.85 20.0 -204.8 18.65 L-204.4 17.85 M-221.7 16.35 L-221.45 16.3 -221.45 15.4 Q-223.9 14.75 -224.5 16.6 L-224.65 16.95 -225.15 18.7 Q-225.6 19.55 -226.65 19.55 -227.75 19.55 -228.2 19.1 -228.6 18.6 -228.6 17.35 L-228.45 16.55 -228.85 16.55 -228.85 16.8 M-221.45 20.5 L-221.45 22.35 -221.45 23.3 -222.85 23.35 Q-223.6 23.55 -224.0 23.95 L-225.85 23.75 -227.6 23.5 -228.25 23.6 -228.85 23.7 M-204.35 18.65 L-204.8 18.65 M-224.5 16.6 L-226.65 16.65 -228.45 16.55 -228.2 15.9 M-247.9 18.1 L-245.5 18.05 -239.15 17.7 Q-235.1 17.25 -231.2 17.75 L-231.2 16.35 Q-228.95 15.65 -228.2 15.65 M-231.2 20.95 L-231.2 17.75 M-228.2 28.8 L-227.95 28.6 -228.3 29.25 -225.75 29.2 -222.9 29.3 Q-223.25 28.8 -223.55 28.85 L-223.65 28.6 -223.75 28.35 -223.55 28.3 M-228.3 29.25 L-228.6 29.75 Q-229.1 30.6 -229.1 31.25 L-228.85 32.05 Q-228.6 32.45 -228.6 33.0 L-227.5 33.0 Q-227.15 32.65 -226.2 32.45 L-224.95 32.3 Q-224.35 32.3 -223.75 32.7 L-222.65 33.0 -222.25 32.45 -222.15 31.7 Q-222.15 30.85 -222.65 29.8 L-222.8 29.4 -222.9 29.3 M-228.9 29.25 L-228.3 29.25 M-221.45 22.35 L-231.2 22.55 M-169.2 67.5 L-168.5 67.45 M-270.65 48.95 Q-269.4 54.25 -263.95 54.25 L-262.9 54.1 -261.85 53.8 -262.8 30.0 -263.0 30.05 Q-268.2 31.0 -269.6 31.95 L-270.1 32.45 Q-271.15 33.8 -271.15 37.7 L-271.2 43.65 Q-271.15 46.95 -270.65 48.95 M-262.8 30.0 L-260.25 29.85 -259.8 29.75 -259.1 29.75 Q-252.3 28.75 -250.75 33.0 -249.2 37.2 -249.0 42.6 -248.8 48.0 -251.1 50.9 -253.4 53.75 -256.25 53.75 L-257.7 53.75 -258.65 54.25 Q-262.45 56.1 -264.9 56.1 -270.75 56.1 -272.25 50.55 -272.95 48.05 -272.95 39.0 -272.95 36.85 -272.05 34.9 -271.3 33.25 -270.1 32.45 L-269.8 32.1 -269.6 31.95 M-260.25 29.85 L-259.8 29.9 -259.8 29.75 M-259.8 29.9 L-259.35 30.0 M-260.05 53.45 L-259.4 53.6 Q-259.4 53.35 -259.8 53.4 L-260.05 53.45 -260.45 53.55 -261.05 53.7 -261.85 53.8 M-257.7 53.75 L-259.4 53.6 M-280.85 73.45 L-279.0 73.55 -278.8 73.6 M-259.8 29.9 L-259.8 53.4 M175.5 -0.15 L175.5 4.3 M182.45 4.3 L182.45 -0.15" fill="none" stroke="#000000" stroke-linecap="round" stroke-linejoin="round" stroke-width="1.0"/>
    </g>
    <g id="sprite0" transform="matrix(1.0, 0.0, 0.0, 1.0, 21.9, 12.5)">
      <use height="40.65" transform="matrix(1.0, 0.0, 0.0, 1.0, -19.25, -12.5)" width="38.7" xlink:href="#shape1"/>
    </g>
    <g id="shape1" transform="matrix(1.0, 0.0, 0.0, 1.0, 19.25, 12.5)">
      <path d="M5.45 -10.4 Q5.85 -10.8 6.55 -10.8 0.05 -12.0 -4.35 -12.0 L-10.15 -11.55 Q-13.95 -11.05 -15.65 -10.1 -18.35 -8.6 -18.5 -5.5 L-18.5 -0.35 -18.6 0.15 -18.75 0.95 Q-18.75 5.95 -18.15 11.25 L-17.75 14.65 -15.55 27.0 -15.5 27.15 -15.3 27.15 -15.05 27.05 -14.85 27.0 -14.5 26.95 -14.2 27.0 -14.2 24.6 -7.85 24.6 17.55 17.9 17.3 17.9 17.1 16.4 16.45 11.25 Q16.15 8.15 16.15 5.55 L15.85 -1.75 15.85 -2.5 Q15.85 -6.25 16.8 -8.05 L16.8 -8.2 12.6 -9.5 Q13.15 -7.9 13.1 -5.25 L13.1 -1.75 13.1 1.0 14.55 1.0 Q14.55 1.2 14.95 1.2 L14.95 2.35 13.9 2.55 12.85 2.7 Q12.85 8.25 13.1 10.95 L12.75 11.05 12.3 11.1 Q11.7 11.1 11.35 7.1 L11.15 2.9 7.7 2.7 7.7 1.55 9.2 1.0 11.15 0.8 11.15 -8.1 9.35 -8.0 9.3 -8.0 8.95 -8.05 Q7.7 -8.25 7.7 -8.8 L7.75 -9.15 7.9 -9.3 8.3 -9.3 M6.55 -10.8 L6.85 -10.75 6.95 -10.7 6.55 -10.8 M5.65 -10.2 L5.65 -9.95 5.4 -6.7 5.25 -4.0 5.2 -1.75 Q5.05 4.85 5.55 11.25 L5.65 12.6 5.65 13.0 7.15 13.0 7.35 12.8 7.55 12.65 7.45 11.25 Q6.95 4.85 7.1 -1.75 L7.3 -6.7 7.55 -9.95 7.55 -10.2 7.0 -10.7 6.95 -10.7 12.1 -9.65 12.55 -9.65 12.6 -9.5 12.1 -9.65 8.3 -9.65 M0.3 -9.05 L0.3 1.4 3.2 1.4 3.75 2.05 3.1 2.65 2.55 2.85 2.25 2.9 -0.05 2.9 0.7 12.4 0.55 12.95 Q0.2 13.75 -0.25 13.75 L-1.05 13.5 -1.1 13.45 -1.2 13.35 -1.2 3.3 -7.1 3.3 -5.95 14.55 -6.05 14.9 -6.25 15.4 -6.75 15.45 -7.2 15.35 -7.3 15.3 -8.0 11.25 Q-8.6 7.0 -8.25 3.3 L-10.95 3.3 -11.65 2.8 -11.7 2.35 -11.55 1.85 Q-11.5 1.65 -11.3 1.8 L-8.45 1.8 -8.45 -9.45 -8.6 -9.45 -10.35 -9.65 -10.75 -9.65 -10.6 -10.15 Q-10.35 -10.6 -9.55 -10.75 L-7.5 -10.8 -0.75 -11.05 Q2.4 -11.05 3.8 -10.35 L4.4 -9.95 4.5 -9.85 3.85 -9.4 3.8 -9.35 3.5 -9.2 3.15 -9.05 0.3 -9.05 M11.15 -8.35 L11.15 -8.1 M11.15 0.8 L11.15 1.2 M16.1 12.2 L16.1 13.0 14.4 13.3 -13.35 19.4 -14.35 19.25 -14.45 19.1 -14.55 18.7 Q-14.55 18.0 -13.75 17.95 L-13.0 18.0 15.3 11.85 15.7 12.05 16.1 12.2 M7.55 12.65 L7.55 13.0 M5.65 12.6 L5.6 13.0 5.65 13.0 M-14.2 27.0 L-13.1 27.3 -11.35 27.65 -7.4 27.0 -3.15 26.05 4.65 24.15 8.35 23.3 12.0 22.55 15.45 21.35 Q16.9 20.7 18.2 20.35 L18.75 20.25 18.85 19.9 18.95 19.3 Q18.95 18.75 18.45 18.35 L17.75 17.95 17.55 17.9 M15.9 16.4 L14.85 17.1 14.65 17.2 13.8 17.2 -12.05 22.75 -12.8 22.7 -14.55 22.5 -14.55 21.75 -13.75 21.55 -13.4 21.45 -13.0 21.5 15.3 15.25 15.9 16.4 M18.2 20.35 L18.7 20.45 18.75 20.25 M-1.2 -9.45 L-1.2 1.95 -6.7 1.95 -6.7 -9.45 -1.2 -9.45" fill="none" stroke="#000000" stroke-linecap="round" stroke-linejoin="round" stroke-width="1.0"/>
    </g>
    <g id="sprite1" transform="matrix(1.0, 0.0, 0.0, 1.0, 116.7, 30.1)">
      <use height="31.3" transform="matrix(1.0, 0.0, 0.0, 1.0, -63.05, -11.7)" width="143.15" xlink:href="#shape2"/>
    </g>
    <g id="shape2" transform="matrix(1.0, 0.0, 0.0, 1.0, 75.05, 15.7)">
      <path d="M4.55 -13.65 L3.5 -15.05 1.05 -15.2 -3.5 -15.05 Q-4.2 -14.95 -5.0 -14.15 L-5.7 -13.45 -6.5 -8.8 -7.25 -3.05 -7.15 -2.25 Q-5.35 -8.05 -4.35 -9.65 -2.95 -11.9 1.5 -11.9 2.75 -11.9 3.95 -11.1 L5.65 -9.9 Q5.25 -10.3 5.2 -11.65 L4.95 -13.1 4.9 -13.1 4.55 -13.65 4.95 -13.1 63.85 -13.1 Q65.25 -12.9 66.5 -8.9 67.6 -5.4 67.6 -3.05 67.6 0.25 67.2 1.9 66.5 4.4 64.65 5.2 M5.95 -10.2 L5.8 -10.95 7.2 -10.95 10.3 -10.65 Q10.15 -10.05 9.6 -9.95 L8.7 -9.9 5.95 -10.2 M0.1 -5.95 L-0.05 -5.85 -0.95 -4.8 Q-1.55 -3.8 -1.55 -3.05 -1.55 -2.45 -0.8 -1.55 -0.05 -0.65 0.6 -0.65 2.05 -0.65 2.05 -3.2 L1.85 -5.15 Q1.55 -6.4 1.05 -6.65 L0.25 -6.1 0.1 -5.95 M9.7 -3.35 Q9.7 -1.35 10.4 -0.55 11.15 0.3 13.05 0.3 15.6 0.3 16.6 -0.4 17.7 -1.15 17.7 -3.25 17.7 -5.6 16.75 -6.45 15.85 -7.25 13.35 -7.35 L12.0 -7.25 Q10.45 -6.4 10.05 -5.7 9.7 -5.05 9.7 -3.35 M-1.7 1.75 L-4.2 -0.55 Q-4.95 -1.65 -4.95 -3.9 -4.95 -5.7 -4.05 -7.3 -2.9 -9.2 -1.05 -9.2 6.3 -9.2 6.3 -2.75 6.3 -1.7 5.55 -0.35 4.6 1.25 3.25 1.9 L3.4 1.9 9.4 2.2 9.25 5.05 9.55 5.15 12.75 5.5 14.95 5.2 16.45 5.05 16.45 3.55 20.3 3.4 30.35 3.8 39.7 4.3 49.35 4.95 58.55 5.55 61.4 5.55 64.05 5.2 M9.4 -1.85 L8.05 -2.15 6.3 -2.15 6.3 -0.65 7.6 -0.4 8.8 0.0 9.95 0.75 Q11.05 1.35 12.05 1.35 L14.5 1.35 Q16.5 1.15 16.75 -0.15 M16.6 -11.25 L16.6 -10.2 21.1 -10.05 33.1 -11.55 30.35 -11.4 23.25 -11.55 16.6 -11.75 M12.05 -1.25 Q12.45 -0.8 14.15 -0.8 16.15 -0.8 16.15 -2.8 16.15 -4.6 15.4 -5.05 L13.3 -5.4 Q12.05 -5.4 11.75 -4.8 L11.65 -3.45 Q11.65 -1.7 12.05 -1.25 M24.9 -0.15 L28.0 -0.15 39.85 1.2 45.7 1.65 Q48.65 1.9 50.95 2.65 L42.85 2.65 30.8 1.75 27.7 2.05 M-58.1 1.35 L-57.8 -1.7 -57.65 -3.35 -64.1 -3.3 -70.1 -3.5 -72.0 -3.5 -72.0 -1.85 Q-64.9 -1.6 -58.1 -1.85 M-72.0 -3.5 L-71.9 -13.5 Q-74.55 -8.9 -74.55 -5.3 -74.55 -3.35 -73.85 -1.9 L-72.05 0.9 -72.0 -1.85 -72.35 -1.85 M-71.9 -13.5 L-71.9 -14.6 -58.55 -14.6 -57.75 -14.75 -57.6 -14.65 Q-53.15 -12.8 -50.7 -12.8 L-41.9 -12.8 Q-41.75 -13.25 -41.9 -13.25 L-41.9 -14.6 -35.3 -14.6 -35.3 -13.25 M-57.65 -3.35 L-57.45 -7.65 -57.75 -12.45 -57.6 -14.65 M-57.8 -1.7 L-45.7 -1.85 -45.75 -3.2 -53.05 -3.35 -54.9 -3.25 -57.3 -3.05 M-45.7 -1.85 L-45.6 0.0 -43.05 0.1 Q-41.35 0.45 -41.9 2.5 L-37.35 2.65 -35.6 -0.15 -35.55 -0.25 Q-35.15 -0.85 -35.15 -3.05 -35.15 -5.4 -35.3 -6.2 L-35.85 -6.2 -44.0 -6.2 Q-45.05 -6.5 -45.45 -5.8 L-45.6 -5.45 -45.75 -3.5 -45.75 -3.2 M-47.45 -12.5 Q-47.35 -10.7 -47.6 -8.0 L-48.05 -3.8 M-45.45 -5.8 Q-45.45 -10.4 -45.6 -12.5 M-35.6 -0.15 L-5.4 -0.15 -4.35 -0.35 -5.65 -1.25 -7.1 -2.0 -13.95 -1.55 -22.4 -2.3 -25.7 -1.7 -29.45 -1.85 Q-30.05 -1.8 -30.15 -2.8 L-30.2 -4.35 Q-30.35 -7.15 -30.55 -7.6 L-30.8 -7.75 -33.3 -8.0 -35.15 -8.0 Q-35.9 -7.8 -35.9 -6.6 L-35.85 -6.2 M-38.6 -10.8 L-39.0 -10.95 -39.3 -10.95 Q-41.0 -10.4 -41.0 -8.5 -41.0 -7.75 -40.4 -7.25 -39.85 -6.8 -39.05 -6.8 -36.65 -7.85 -36.65 -8.6 -36.65 -9.2 -37.55 -10.05 L-38.6 -10.8 M-28.65 -2.15 L-28.5 -3.2 Q-28.5 -3.65 -28.8 -3.95 L-28.8 -5.55 -26.3 -5.55 -25.25 -5.25 -25.1 -2.0 M-22.65 -2.6 Q-22.95 -3.85 -22.95 -8.15 L-22.65 -12.5 M-30.5 -12.45 L-30.8 -7.75 M-35.15 -12.95 L-6.35 -12.95 -6.15 -13.05 -5.7 -13.45 M-7.1 -2.0 L-7.15 -2.25 M-16.35 4.45 L-16.3 5.25 -16.05 5.2 -16.05 3.4 -15.75 2.05 -8.9 2.05 -6.3 2.35 -2.65 2.15 3.25 1.9 M9.55 5.15 L9.85 10.55 Q9.85 13.9 8.35 14.2 L-4.4 14.95 -11.85 14.55 Q-15.5 14.1 -15.75 13.45 L-16.05 11.15 -16.05 8.8 -16.3 5.25 -23.15 5.65 -23.1 8.75 -23.15 9.55 -26.0 9.4 -26.75 9.4 Q-26.6 9.85 -26.6 10.85 L-26.75 14.05 Q-26.75 14.45 -26.9 14.65 L-28.65 14.65 -29.0 12.3 -38.4 12.0 Q-39.9 12.0 -39.8 12.45 -39.55 13.65 -40.05 14.65 L-42.2 14.35 -44.85 14.75 -47.7 15.1 -49.5 14.95 -51.3 14.35 -52.4 13.65 -53.45 12.9 -53.15 9.1 -53.45 4.7 -53.9 0.45 Q-55.75 0.8 -58.85 1.9 L-72.05 1.9 -72.05 0.9 M-37.35 2.65 L-36.9 2.6 Q-33.85 2.85 -34.35 5.35 L-33.6 5.4 -31.75 5.6 -29.5 5.85 -23.15 5.65 M-45.6 0.0 L-45.85 0.0 -45.9 1.35 Q-45.7 5.05 -42.3 6.85 -39.05 8.6 -33.75 8.2 L-33.6 5.4 M-53.9 0.45 L-53.55 0.35 -45.9 0.0 -45.85 0.0 M-52.85 9.25 Q-52.4 8.05 -50.8 6.95 -48.95 5.7 -47.1 5.7 -42.65 5.7 -42.65 9.7 -42.65 11.35 -43.6 12.9 -44.65 14.6 -45.9 14.5 M31.6 1.65 L25.2 1.95 16.6 1.65 Q16.6 0.4 18.1 0.15 L20.65 0.15 25.6 0.5 31.3 1.5 31.6 1.65" fill="none" stroke="#000000" stroke-linecap="round" stroke-linejoin="round" stroke-width="1.0"/>
    </g>
    <g id="sprite2" transform="matrix(1.0, 0.0, 0.0, 1.0, 59.3, 37.75)">
      <use height="71.85" transform="matrix(1.0, 0.0, 0.0, 1.0, -9.75, -34.1)" width="22.7" xlink:href="#shape3"/>
    </g>
    <g id="shape3" transform="matrix(1.0, 0.0, 0.0, 1.0, 9.75, 34.1)">
      <path d="M6.35 -33.05 Q8.5 -32.15 10.05 -30.45 13.4 -22.8 12.85 -13.95 12.2 -3.95 12.2 6.1 L11.9 7.0 11.6 7.9 11.3 8.85 11.0 9.75 11.0 10.65 11.0 11.6 11.0 12.5 11.0 13.4 10.7 14.3 10.35 15.25 10.05 16.15 9.85 17.05 9.75 17.95 Q9.9 19.4 10.35 20.8 11.05 22.95 11.0 25.3 L11.0 28.95 9.55 32.5 Q7.55 36.65 3.05 37.45 L1.25 37.75 -2.65 36.7 -4.55 35.95 -6.3 34.05 -7.45 32.2 -8.5 29.55 -8.5 28.6 -8.5 27.7 Q-9.65 24.7 -9.75 21.3 -9.9 15.8 -9.1 10.4 L-8.5 8.55 -8.5 6.7 -8.4 4.9 -7.75 2.2 -7.3 1.25 -7.3 -6.1 -7.3 -17.05 -7.3 -18.85 -7.6 -19.8 -7.9 -20.7 -8.2 -21.6 -8.5 -22.5 -8.5 -23.45 -8.5 -24.35 -8.5 -25.25 -8.5 -26.15 -8.2 -27.1 -7.9 -28.0 -7.6 -28.9 -5.15 -31.65 Q-3.2 -33.4 -0.6 -33.8 L1.25 -34.1 Q3.9 -34.15 6.35 -33.05" fill="#ffffff" fill-rule="evenodd" stroke="none"/>
    </g>
  </defs>
</svg>
